<?xml version="1.0" standalone="no"?>
<!DOCTYPE svg PUBLIC "-//W3C//DTD SVG 1.1//EN" "http://www.w3.org/Graphics/SVG/1.1/DTD/svg11.dtd">
<svg width="512px" height="512px" version="1.1" xmlns="http://www.w3.org/2000/svg" xmlns:inkscape="http://www.inkscape.org/namespaces/inkscape">
<g id="layer" inkscape:groupmode="layer" inkscape:label="layer">
<path d="M177.6301 0.0 L180.5713 2.6172 L182.3853 4.8116 L187.715 13.1198 L192.9776 21.1145 L194.0749 22.7604 L196.1687 26.3658 L197.4899 29.6913 L198.1282 31.7292 L198.4193 33.2519 L199.2478 38.9961 L201.1486 52.1651 L202.0387 58.1721 L202.6069 64.2452 L203.0101 67.1787 L203.2004 68.4441 L203.4915 69.5973 L203.8051 70.5042 L205.4286 75.0054 L206.5147 77.3567 L207.5448 78.8572 L208.8101 80.3015 L211.8657 83.5263 L212.8343 84.8596 L214.0573 86.8232 L214.8246 87.8807 L216.1101 89.5394 L216.9402 90.723 L221.2499 99.0676 L222.0673 100.6912 L222.795 102.8523 L223.3102 105.4275 L223.3885 110.8693 L223.1892 115.064 L223.2928 117.5523 L223.5175 118.7329 L223.6521 119.5231 L224.0669 121.465 L224.5874 122.5688 L225.491 123.9987 L226.5237 124.9773 L228.6847 126.4442 L233.6785 129.7138 L243.9909 136.5215 L245.9084 137.7629 L247.6412 138.6041 L249.3542 139.2102 L249.8492 139.3849 L251.2277 139.8716 L251.4732 139.9582 L255.3446 141.325 L260.7863 143.3292 L263.0817 144.5944 L264.862 145.871 L266.2281 147.1026 L267.7061 148.7709 L277.6489 162.8006 L278.9702 165.0626 L280.0003 168.0632 L280.4706 170.4817 L281.8814 180.9845 L282.1725 182.8208 L282.6652 184.5901 L283.337 186.1351 L284.3112 187.8259 L285.4084 189.2815 L286.6513 190.5245 L288.3308 191.812 L295.329 195.8766 L296.6502 196.873 L297.8146 197.9703 L304.2865 205.1701 L307.4328 207.9804 L325.0792 223.4882 L325.8295 224.1712 L326.6804 225.2236 L327.4194 226.6009 L327.9457 228.0005 L328.4383 229.501 L329.0317 230.7941 L329.8547 232.2274 L331.4615 234.2876 L332.0213 235.273 L332.5308 236.3647 L333.992 240.1828 L334.3027 241.6287 L334.3699 242.7203 L334.3335 244.1466 L334.1712 245.1767 L333.9136 246.5315 L333.5217 247.892 L332.0549 252.2476 L331.7694 254.0334 L331.6407 255.9034 L331.747 257.4877 L333.7457 276.5282 L333.9955 279.711 L334.0379 281.6607 L334.0364 281.8301 L333.9808 284.7523 L333.9248 285.8495 L333.7848 286.807 L333.4209 288.0161 L332.8723 289.0855 L331.9541 290.8099 L330.5993 292.7693 L325.1128 297.9143 L324.2954 298.7764 L323.59 299.7395 L320.4437 304.2967 L319.5815 306.1665 L319.4023 307.219 L319.324 309.1672 L319.4528 312.1569 L319.4696 314.0044 L319.3127 316.0758 L319.0049 318.4103 L318.6466 320.1796 L317.6949 322.6765 L316.8606 324.5462 L315.6906 327.2894 L315.1644 328.5492 L314.8788 330.0159 L314.6604 331.5051 L315.0636 340.6083 L314.3805 343.2173 L313.2384 345.0927 L312.6394 345.8876 L307.7127 349.773 L304.544 352.4826 L299.8749 356.228 L296.0399 360.3429 L295.021 362.5542 L294.4164 365.1743 L294.2988 366.2494 L294.3212 367.8392 L294.4891 369.4014 L295.9615 376.1587 L299.2815 391.2689 L299.3823 392.5733 L299.3598 394.0401 L299.2366 394.8575 L295.2394 408.7978 L294.31 412.0113 L293.8062 413.187 L288.1741 424.2158 L285.7108 428.6388 L285.0166 429.4562 L279.8884 433.6214 L279.099 434.4164 L278.3768 435.3904 L277.968 436.068 L277.4838 437.2395 L277.1451 438.457 L276.8876 439.7699 L276.8092 440.4907 L276.7532 441.8497 L276.7812 442.6797 L276.8764 443.7155 L277.1059 445.0143 L277.509 445.7868 L287.5246 463.9427 L291.6899 471.4895 L300.1839 487.0863 L300.7146 488.0609 L306.1787 497.9702 L306.8394 499.1684 L307.2313 500.4112 L307.3544 502.0571 L307.3544 503.8488 L307.041 505.8753 L306.2795 507.8235 L305.7309 508.5289 L304.0737 510.5221 L302.8869 512.0" stroke-dasharray="" fill="none" fill-opacity="1.0" stroke="#ff0000" stroke-opacity="1.0" stroke-width="1.0px" stroke-linecap="butt" stroke-linejoin="miter" stroke-dashoffset="0.0px"/>
</g>
</svg>