<?xml version="1.0" standalone="no"?>
<!DOCTYPE svg PUBLIC "-//W3C//DTD SVG 1.1//EN" "http://www.w3.org/Graphics/SVG/1.1/DTD/svg11.dtd">
<svg width="512px" height="512px" version="1.1" xmlns="http://www.w3.org/2000/svg" xmlns:inkscape="http://www.inkscape.org/namespaces/inkscape">
<g id="layer" inkscape:groupmode="layer" inkscape:label="layer">
<path d="M0.0 269.6658 L30.7707 288.3695 L167.0064 371.2091 L275.8501 437.3962 L391.4513 362.6415 L349.6997 337.2406 L377.514 319.2609 L364.4214 311.2967 L350.7254 302.9705 L443.6408 242.9375 L512.0 198.7726 L448.5279 162.2701 L467.3523 152.8579 L474.0495 135.2402 L469.4641 119.9755 L452.691 105.5555 L424.6354 96.8673 L398.6312 94.7556 L375.161 101.3321 L362.9734 112.9163 L320.0151 86.0674 L301.794 74.6038 L152.526 171.079 L0.0 269.6658 M115.4202 245.5319 L227.2807 174.3974 L347.6484 248.7297 L235.7879 319.9246 L115.4202 245.5319" stroke-dasharray="" fill="none" fill-opacity="1.0" stroke="#ff0000" stroke-opacity="1.0" stroke-width="1.0px" stroke-linecap="butt" stroke-linejoin="miter" stroke-dashoffset="0.0px"/>
</g>
</svg>