<?xml version="1.0" standalone="no"?>
<!DOCTYPE svg PUBLIC "-//W3C//DTD SVG 1.1//EN" "http://www.w3.org/Graphics/SVG/1.1/DTD/svg11.dtd">
<svg width="512px" height="512px" version="1.1" xmlns="http://www.w3.org/2000/svg" xmlns:inkscape="http://www.inkscape.org/namespaces/inkscape">
<g id="layer" inkscape:groupmode="layer" inkscape:label="layer">
<path d="M0.0 269.0894 L43.9875 325.1868 L74.9746 313.6111 L75.1527 313.9673 L82.0981 311.296 L121.0991 361.3384 L114.3318 364.0097 L123.0581 375.2292 L129.8254 372.5579 L130.1816 372.9141 L151.9082 364.544 L179.1555 399.6271 L200.1697 391.4351 L189.8407 377.9005 L398.9148 297.2271 L409.4219 310.7617 L448.0668 295.8024 L437.3816 282.2678 L512.0 253.5958 L402.1203 112.3729 L342.6393 135.3461 L336.5843 127.5103 L283.3363 147.9903 L286.72 152.4424 L204.8 184.1419 L200.3478 178.4431 L139.4421 201.7725 L156.7165 224.0334 L60.9057 261.0755 L51.289 248.7875 L0.0 269.0894" stroke-dasharray="" fill="none" fill-opacity="1.0" stroke="#ff0000" stroke-opacity="1.0" stroke-width="1.0px" stroke-linecap="butt" stroke-linejoin="miter" stroke-dashoffset="0.0px"/>
</g>
</svg>