<?xml version="1.0" standalone="no"?>
<!DOCTYPE svg PUBLIC "-//W3C//DTD SVG 1.1//EN" "http://www.w3.org/Graphics/SVG/1.1/DTD/svg11.dtd">
<svg width="512px" height="512px" version="1.1" xmlns="http://www.w3.org/2000/svg" xmlns:inkscape="http://www.inkscape.org/namespaces/inkscape">
<g id="layer" inkscape:groupmode="layer" inkscape:label="layer">
<path d="M0.0 281.3352 L30.162 299.8885 L34.8752 320.7644 L34.8714 340.9961 L24.6532 341.9092 L14.7646 341.7842 L19.6559 361.7659 L20.7205 361.0309 L22.452 360.2731 L25.5208 360.0913 L26.8544 360.7543 L27.5402 362.7926 L33.7726 362.0804 L40.7249 381.202 L63.427 376.7238 L104.2807 340.4884 L120.1517 334.8129 L141.88 333.9074 L149.1998 324.7198 L164.1198 327.4931 L223.633 338.5562 L272.1627 361.4628 L288.0564 354.0483 L321.1925 344.262 L324.1629 342.7617 L353.4042 314.3917 L390.0108 305.4883 L405.9121 303.6848 L435.7331 295.1564 L446.8075 285.4611 L472.4041 248.1119 L464.7092 212.0092 L489.4836 207.4779 L498.1863 160.2591 L512.0 134.2305 L418.699 131.6125 L389.7456 130.798 L268.7263 199.2526 L240.1556 215.4114 L227.4634 215.0402 L199.048 195.4866 L174.3304 178.479 L119.3409 184.8024 L97.3512 175.0313 L80.9346 166.2149 L47.8023 193.0542 L17.5569 219.041 L4.5503 247.3011 L20.4515 250.423 L0.0 281.3352 M268.6695 283.9683 L294.1486 248.7598 L269.4462 237.9164 L275.6521 206.9247 L287.9048 209.6488 L327.1029 207.6673 L367.7521 207.2164 L448.6943 207.5877 L443.3939 258.3376 L426.2007 257.9019 L426.8372 231.0513 L413.3076 239.125 L364.7704 249.7259 L390.5526 255.0756 L374.4771 281.6231 L422.6961 260.2244 L435.2784 269.4992 L366.6647 301.0517 L268.6695 283.9683 M444.9548 201.1393 L450.2211 192.2131 L459.602 187.7841 L466.1262 187.1324 L473.105 180.4567 L482.717 180.237 L484.0885 185.7533 L476.3103 190.834 L474.935 195.9147 L466.4672 202.3025 L454.4531 206.6557 L447.9328 206.4398 L445.0723 204.481 L444.9548 201.1393" stroke-dasharray="" fill="none" fill-opacity="1.0" stroke="#ff0000" stroke-opacity="1.0" stroke-width="1.0px" stroke-linecap="butt" stroke-linejoin="miter" stroke-dashoffset="0.0px"/>
</g>
</svg>