<?xml version="1.0" standalone="no"?>
<!DOCTYPE svg PUBLIC "-//W3C//DTD SVG 1.1//EN" "http://www.w3.org/Graphics/SVG/1.1/DTD/svg11.dtd">
<svg width="512px" height="512px" version="1.1" xmlns="http://www.w3.org/2000/svg" xmlns:inkscape="http://www.inkscape.org/namespaces/inkscape">
<g id="layer" inkscape:groupmode="layer" inkscape:label="layer">
<path d="M60.6378 160.2042 L60.7081 160.943 L61.4118 161.5059 L62.1508 162.192 L62.4674 162.5967 L62.96 162.5614 L63.5581 162.3151 L64.2266 162.2977 L64.684 162.3855 L65.1238 162.544 L65.4404 162.579 L65.634 162.3504 L65.8627 161.9106 L66.0914 161.4179 L66.4432 161.1012 L66.496 160.7671 L66.6192 160.3447 L67.0414 159.993 L67.1821 159.729 L67.1821 159.4477 L67.2349 159.2014 L67.3756 159.0429 L67.6923 158.8671 L68.4136 158.6561 L68.5191 159.43 L68.5719 160.1514 L68.396 161.0485 L68.2376 161.9634 L68.009 163.0365 L67.833 163.6347 L67.534 164.9189 L67.3932 165.5697 L67.2525 166.4317 L67.3405 167.1883 L67.4812 167.6808 L67.534 168.3845 L67.534 168.8419 L67.6747 169.4753 L67.7626 169.6688 L67.9914 169.9854 L68.1497 170.1966 L68.1848 170.6363 L68.009 171.0762 L68.0265 171.6214 L68.0265 172.2372 L68.3256 172.8882 L68.783 173.4336 L69.5747 174.0141 L70.2256 174.1725 L70.5598 174.4363 L70.9117 174.8409 L71.4043 175.1224 L71.932 175.5798 L72.108 176.002 L72.2663 176.477 L72.7765 176.9872 L73.269 177.3565 L73.8144 177.4709 L74.6061 178.1746 L75.4505 178.4561 L76.2949 179.582 L76.5764 179.582 L77.7023 180.7079 L79.1097 180.9894 L79.8134 181.6931 L78.8232 181.7994 L78.6636 183.7133 L77.8935 183.8456 L77.6485 184.2284 L76.699 184.2438 L75.9032 183.7254 L75.4249 183.1734 L73.7318 183.1366 L72.7626 182.879 L71.6461 182.2533 L71.0327 182.4128 L70.4439 182.9771 L69.8795 183.7745 L70.591 184.4002 L71.8057 185.0504 L73.4251 185.0382 L73.8177 185.4186 L75.3266 185.3326 L75.4126 185.0873 L76.9216 185.2099 L77.9399 184.9892 L78.2466 184.4862 L78.725 184.2653 L79.3507 184.658 L79.0686 185.8233 L79.1176 186.5964 L79.6726 187.1818 L80.2356 187.1818 L81.08 187.7449 L81.643 187.4635 L83.0504 187.7449 L84.1763 186.9004 L85.0207 186.6189 L86.991 186.6189 L88.1169 186.9004 L88.5392 186.4782 L88.5392 185.6339 L89.2428 185.2115 L90.5094 186.1968 L90.791 187.0411 L91.4947 187.7449 L92.902 188.3078 L94.3094 189.4337 L95.6742 189.4969 L97.4355 190.86 L98.3908 191.8262 L98.4768 193.0652 L98.2501 193.656 L97.6872 194.2188 L94.5909 195.6262 L92.0576 195.6262 L91.6354 195.2041 L91.6354 194.6411 L92.4798 193.7967 L92.0576 193.0929 L90.6502 193.0929 L90.3688 193.3743 L88.9614 193.0929 L88.7254 192.9388 L88.8632 192.4946 L90.3028 191.4226 L91.6046 190.2739 L91.283 189.5389 L90.41 188.4668 L89.8281 188.7578 L89.2001 188.9416 L88.5263 189.4929 L87.7759 190.4731 L87.7145 192.1424 L88.0822 192.4794 L87.883 193.1532 L87.6533 193.6126 L87.883 195.236 L88.6334 196.0784 L88.5755 198.3897 L89.1542 199.5701 L89.1021 201.6779 L89.6651 202.5224 L90.228 204.4927 L90.228 206.7445 L90.5094 207.026 L90.5094 208.152 L90.791 209.5592 L91.3539 210.1223 L91.3539 210.9666 L94.4502 217.4407 L95.7168 218.7072 L96.5612 218.9887 L97.4057 219.8331 L97.9686 219.8331 L99.0945 220.3961 L99.939 220.3961 L100.2204 220.6776 L101.0648 220.6776 L101.3464 220.959 L103.5982 221.2405 L105.287 222.0849 L107.5388 222.3664 L108.1017 222.6478 L110.7758 225.322 L111.0573 226.7294 L111.6203 227.5737 L111.6203 228.4182 L112.1832 229.2627 L112.1832 235.1736 L113.872 237.9884 L113.872 238.8329 L116.1238 241.929 L118.7979 244.3217 L121.0497 245.4475 L122.7385 245.4475 L124.1459 246.5735 L124.9904 246.5735 L125.5533 245.729 L126.5385 246.4327 L125.5533 246.5735 L125.4126 246.9956 L125.8347 247.4179 L126.3977 247.4179 L126.82 248.1215 L127.9459 248.9659 L127.9459 250.3734 L127.6643 251.2177 L128.2273 252.3436 L129.3532 253.4697 L129.3532 253.7512 L131.6051 255.7215 L131.7458 256.1435 L132.8717 255.2992 L133.2939 255.7215 L132.8717 256.425 L132.168 256.5658 L132.168 257.1287 L133.5754 258.5362 L133.8568 259.9436 L134.279 260.3658 L134.842 260.3658 L136.1086 261.0695 L135.1235 262.0546 L134.842 261.7732 L133.8568 262.1953 L135.5457 263.8843 L135.5457 264.4472 L135.8272 265.0101 L136.6716 265.2916 L136.6716 266.9804 L138.5012 268.81 L138.7827 268.81 L145.9603 275.9876 L145.9603 276.2692 L148.6344 278.9432 L149.3381 279.3655 L149.7603 280.0691 L152.575 282.0395 L154.2638 283.7283 L155.3898 284.0099 L156.5157 284.8541 L157.3601 285.9801 L158.486 286.543 L160.4563 288.5134 L161.3008 288.7949 L163.8341 290.4837 L166.0859 292.4541 L167.3526 293.7208 L167.3526 294.2836 L170.1673 298.5058 L169.8859 298.7873 L169.8859 299.3503 L169.1822 299.7724 L168.6192 299.4909 L167.7747 298.3652 L164.96 298.3652 L164.5378 297.9428 L164.5378 297.0984 L164.1155 296.6763 L163.5526 296.6763 L162.1452 295.8318 L160.7379 294.143 L160.1749 294.4245 L158.486 294.4245 L157.3601 294.9873 L155.1083 294.9873 L154.8268 295.2688 L152.575 294.9873 L151.8713 295.6911 L151.5899 296.5354 L151.5899 298.2243 L152.4343 301.0391 L152.0121 301.4614 L150.0417 301.1797 L148.2121 299.6317 L148.2121 299.0688 L144.4123 294.9873 L141.5974 294.4245 L140.7531 293.8615 L140.1901 293.8615 L139.6271 293.2984 L138.7827 293.2984 L137.9382 292.7356 L136.5309 291.0467 L135.9679 290.7652 L134.842 290.7652 L134.6046 291.3566 L133.7161 294.143 L135.405 295.8318 L136.2494 296.1133 L138.5012 298.0837 L140.1901 298.9279 L140.6123 299.6317 L142.7233 301.4614 L143.2863 301.4614 L143.8493 300.6168 L144.9752 300.6168 L145.6789 301.3206 L145.5381 302.0244 L143.427 301.8835 L144.1307 302.5873 L144.6937 302.5873 L145.8196 303.1502 L148.9158 305.9649 L150.0417 306.5278 L150.6047 306.5278 L152.8565 308.4983 L154.2638 309.0612 L155.6713 310.1871 L157.6416 310.4685 L162.4267 313.2833 L164.1155 313.2833 L165.2414 313.5649 L166.3674 314.4093 L167.4933 314.6907 L168.3377 315.5351 L169.7451 316.0981 L170.5895 316.9425 L172.2784 316.9425 L174.9524 319.6165 L176.3598 321.5869 L176.3598 322.1499 L177.2043 322.7128 L177.2043 324.1202 L177.4857 324.4017 L177.7672 326.9349 L178.8931 327.498 L178.0486 327.7793 L178.0486 329.7496 L178.3301 330.0311 L178.3301 330.8755 L178.0486 331.157 L178.0486 333.6905 L176.6413 336.505 L176.6413 337.3495 L175.7968 339.3199 L174.9524 340.4458 L174.6709 341.5717 L174.6709 342.6976 L174.9524 342.979 L174.9524 344.1051 L174.6709 344.9494 L175.2339 345.7938 L175.5153 347.4826 L175.2339 348.0457 L175.2339 349.7345 L175.7968 350.2975 L175.7968 351.9863 L177.4857 353.3937 L177.3449 353.8158 L175.9376 353.8158 L175.2339 354.5195 L174.6709 356.4899 L175.0931 356.9122 L176.0783 356.7715 L176.0783 357.3343 L175.3747 357.4752 L174.9524 358.1789 L176.3598 360.1491 L176.3598 361.5566 L177.4857 365.2156 L176.3598 366.3416 L176.0783 367.1861 L175.2339 368.0305 L175.2339 369.1564 L174.2487 370.1417 L173.5451 371.6897 L173.2635 371.9712 L173.2635 373.9414 L173.5451 374.2229 L173.5451 374.7859 L173.2635 375.6304 L174.108 378.1636 L172.9821 379.2896 L172.4191 380.9784 L172.7006 381.2599 L172.9821 382.9487 L172.9821 386.0451 L173.5451 386.608 L173.2635 387.1708 L173.8265 388.5782 L172.7006 389.7041 L172.7006 392.5189 L171.8561 393.9264 L171.5747 395.3336 L169.8859 397.8669 L169.8859 399.8374 L168.7599 402.0892 L168.7599 403.4966 L168.4784 403.7779 L168.197 405.7484 L166.7896 407.4373 L166.7896 408.8445 L166.2267 409.6889 L166.2267 411.9409 L166.5081 412.2222 L167.071 414.4741 L167.634 415.0371 L168.197 416.1628 L168.197 417.5703 L168.7599 418.9777 L170.0265 419.6814 L171.5747 421.7925 L172.2784 422.4961 L172.8413 422.4961 L174.3894 424.0444 L174.3894 424.3258 L178.6116 428.5478 L179.1745 429.6738 L181.0041 431.5034 L181.5671 431.5034 L182.4115 432.0665 L187.4781 437.1329 L188.3225 437.1329 L189.4484 438.2588 L189.7299 438.2588 L190.8558 439.6661 L191.4188 439.6661 L191.7003 439.9477 L193.1076 439.6661 L193.3891 439.9477 L193.9521 439.9477 L195.3595 441.0736 L195.9224 441.0736 L196.7668 440.5107 L197.3298 441.3552 L199.0187 441.3552 L200.1446 441.9181 L200.426 440.5107 L201.2704 441.0736 L202.9593 440.7922 L203.3815 441.2143 L202.6779 441.9181 L201.6926 442.6217 L202.3963 442.7624 L203.2408 442.481 L203.8038 442.7624 L203.9445 443.1846 L203.663 443.7475 L204.3667 445.2958 L205.0704 445.1551 L205.0704 443.1846 L204.2259 442.9033 L204.2259 441.7772 L207.7444 441.6365 L208.4481 440.6513 L207.8851 439.807 L209.1518 439.1032 L211.6851 439.1032 L211.9665 439.3848 L217.0331 439.3848 L217.3146 439.6661 L219.2849 439.9477 L222.3812 440.2291 L224.3515 440.2291 L225.196 439.9477 L226.6033 440.7922 L228.5737 441.0736 L229.1366 442.1995 L229.6995 441.9181 L230.8254 441.9181 L231.107 441.6365 L234.2032 441.6365 L234.4846 441.9181 L236.1735 441.6365 L237.0179 442.1995 L238.4254 442.481 L239.2697 442.1995 L239.5512 442.481 L240.6771 442.481 L242.6475 442.481 L243.4919 443.3255 L246.0252 443.6069 L246.3067 443.8884 L250.5288 445.2958 L251.7955 446.8438 L251.7955 447.6884 L250.951 448.5328 L250.951 448.8141 L251.514 449.3772 L250.951 450.2216 L251.9362 451.2068 L253.3436 451.2068 L253.9065 451.7696 L254.4694 451.7696 L255.3139 451.2068 L256.862 452.4733 L257.425 453.5994 L257.1435 455.2882 L256.5806 456.1327 L256.5806 456.9769 L257.425 457.8214 L257.425 459.2288 L257.7065 459.5103 L257.7065 460.9177 L257.988 462.325 L256.862 463.7325 L256.862 464.5769 L256.5806 464.8583 L256.862 465.9843 L256.1584 466.688 L255.3139 466.9694 L253.4843 469.3619 L253.2028 469.925 L253.7658 470.7695 L253.3436 470.9101 L251.7955 472.7398 L251.9362 473.4434 L252.4992 472.8804 L252.9214 473.3026 L251.514 474.4286 L251.514 474.9916 L252.7806 475.6952 L253.6251 475.1322 L254.188 475.1322 L255.0324 475.6952 L256.0176 475.836 L256.0176 476.1174 L254.188 477.6655 L252.9214 477.5247 L252.9214 478.6507 L253.4843 479.7766 L253.9065 479.9174 L254.751 481.0433 L255.3139 481.0433 L256.4398 481.8878 L257.425 483.4358 L258.4102 483.8581 L259.2546 484.7023 L260.6619 484.9839 L261.0842 485.6876 L261.7878 486.1099 L262.9138 486.1099 L264.6027 486.6728 L265.8693 487.9395 L268.2619 491.1765 L269.6692 491.458 L270.7951 490.8949 L272.2025 492.3023 L272.484 492.0208 L273.6099 492.5838 L273.8913 492.5838 L274.4543 491.7393 L275.0173 492.0208 L276.1432 491.7393 L276.7061 492.3023 L281.4912 492.3023 L282.3356 492.8654 L286.2763 493.1466 L287.6837 492.8654 L288.2467 493.4282 L290.217 493.4282 L292.1873 493.9912 L293.1725 494.9764 L293.1725 496.3837 L293.5947 496.8059 L294.1577 496.8059 L295.2835 497.3689 L297.5353 497.3689 L297.7004 498.0405 L296.5551 499.09 L297.2273 501.8599 L298.6019 504.2074 L299.7836 504.6673 L298.9171 506.6952 L299.0136 510.1353 L299.2065 511.9356 L299.9225 511.9683 L300.6211 512.0 L301.5855 509.9103 L302.5501 506.9202 L303.0241 504.5466 L304.4315 503.702 L304.4315 502.5762 L307.1056 499.9023 L307.95 499.9023 L308.2315 499.6208 L308.7944 499.9023 L309.6389 499.0578 L311.8907 499.0578 L312.4536 498.4949 L313.861 498.4949 L316.1128 499.3393 L316.535 498.9171 L316.2536 498.3541 L316.6758 497.3689 L318.9276 497.0874 L320.0534 495.9615 L320.8979 496.243 L322.0238 495.1172 L322.7275 495.5392 L322.3053 495.9615 L321.6016 496.1022 L322.3053 496.8059 L323.9942 495.68 L324.5571 495.68 L325.1201 495.9615 L325.5422 495.5392 L325.683 494.5542 L326.5275 494.5542 L326.8089 494.8357 L329.0607 494.5542 L329.483 494.1319 L329.2014 492.7246 L329.9051 492.0208 L330.4681 492.0208 L330.8903 491.5985 L330.8903 491.0357 L333.7051 487.9395 L334.1273 487.2357 L334.4088 487.5172 L335.8161 487.5172 L336.3791 486.9543 L337.5051 486.6728 L338.631 485.5468 L339.1939 485.5468 L341.1642 484.1394 L342.0086 484.7023 L342.1494 484.2802 L341.8679 483.4358 L343.1345 482.4507 L343.979 482.4507 L344.1197 481.747 L344.5419 481.3246 L344.8234 481.6062 L346.09 480.3395 L345.5271 478.6507 L346.2308 478.5099 L346.5123 478.7915 L347.3567 478.7915 L347.7789 478.3693 L347.7789 477.5247 L347.3567 477.3842 L347.216 476.6804 L348.3419 476.9618 L348.3419 476.1174 L347.216 474.9916 L347.216 474.147 L345.5271 472.7398 L346.09 471.8953 L346.09 470.4878 L345.3864 469.7842 L344.2604 469.2213 L343.6975 469.2213 L343.1345 469.7842 L342.1494 469.0805 L342.4309 465.9843 L341.8679 465.4214 L341.8679 464.2954 L342.4309 462.8881 L342.4309 460.0732 L343.2753 458.9473 L343.2753 458.3844 L342.9938 458.1029 L343.2753 456.1327 L342.7123 455.0067 L343.2753 454.4437 L342.9938 453.5994 L343.5568 452.4733 L343.8382 450.5031 L343.2753 449.3772 L342.2901 448.3919 L341.8679 448.5328 L341.8679 447.1253 L339.8976 445.1551 L339.8976 443.7475 L340.742 442.9033 L339.8976 441.2143 L341.0235 440.0884 L340.179 439.2441 L340.179 437.5552 L339.3347 436.7108 L338.7717 435.0218 L336.8014 433.333 L336.5198 432.4886 L335.3939 431.3627 L334.831 429.1109 L335.1125 428.5478 L335.1125 425.1702 L335.3939 424.8887 L335.3939 422.9183 L337.0828 420.6666 L337.0828 418.9777 L338.7717 417.2888 L339.0531 415.6001 L339.8976 414.4741 L339.8976 412.7852 L340.179 411.6594 L341.0235 410.8148 L341.3049 409.6889 L342.1494 408.8445 L342.1494 406.8742 L341.8679 406.5928 L342.1494 405.4668 L342.9938 404.3408 L343.5568 402.6521 L344.5419 401.6668 L344.8234 401.6668 L345.3864 400.8225 L346.09 400.4004 L345.6678 399.6966 L344.8234 399.978 L344.1197 398.4299 L344.8234 398.0077 L345.3864 398.5707 L346.09 397.8669 L346.653 396.4596 L347.216 395.8966 L347.216 395.0522 L347.9196 394.067 L348.9048 393.6448 L348.6233 393.082 L348.6233 391.9559 L350.5937 388.8596 L350.5937 388.0154 L350.8752 387.7339 L350.8752 385.2005 L351.4381 384.3562 L351.4381 383.2301 L352.0011 382.3858 L351.7196 381.8228 L351.7196 379.0081 L352.0011 378.7266 L352.0011 377.8822 L353.127 376.4747 L353.127 373.9414 L352.8455 373.6601 L352.8455 371.9712 L352.564 370.8452 L352.8455 370.5638 L352.8455 369.1564 L353.127 368.8749 L353.4084 367.1861 L353.4084 364.0898 L353.127 363.8083 L353.127 362.964 L352.2825 360.4307 L351.4381 358.7418 L351.4381 357.0529 L350.8752 356.7715 L350.5937 353.6751 L350.3122 353.3937 L349.7492 351.1418 L348.9048 350.2975 L349.1863 350.0159 L349.1863 347.7643 L348.6233 346.9197 L348.0604 345.2309 L348.0604 343.2605 L347.7789 342.979 L347.7789 341.8532 L346.9345 340.7273 L346.653 337.068 L346.3715 335.6608 L344.9641 332.8459 L344.9641 332.0016 L344.4012 331.4385 L343.5568 329.4683 L343.5568 328.6239 L343.2753 328.3424 L342.9938 326.9349 L342.4309 326.372 L342.4309 325.246 L341.8679 324.9646 L342.1494 323.8386 L341.0235 320.7424 L341.0235 318.7722 L340.742 318.4906 L340.742 317.0833 L341.0235 315.9573 L340.742 315.3945 L341.0235 315.1129 L341.3049 313.1427 L341.8679 312.5796 L341.8679 312.0166 L342.9938 308.6389 L344.1197 306.9501 L344.1197 306.3872 L344.4012 305.8241 L346.09 304.1354 L346.3715 303.0094 L347.6382 302.0244 L349.0456 302.0244 L350.1715 302.5873 L350.7344 302.3058 L357.2084 302.3058 L357.4899 302.0244 L360.8675 302.0244 L362.275 301.4614 L363.4009 301.4614 L364.2453 300.3353 L364.6675 300.4762 L364.8083 301.1797 L365.9342 301.1797 L367.3415 302.3058 L368.1859 301.7429 L368.7489 301.7429 L369.3118 302.3058 L370.1563 302.3058 L371.0007 302.8687 L372.971 303.1502 L374.6599 304.5575 L376.0673 304.8389 L377.1932 305.6835 L380.008 305.6835 L380.1487 304.9798 L380.008 304.5575 L380.5709 304.5575 L380.8524 305.402 L381.4153 305.402 L381.6968 305.1206 L383.6672 305.1206 L384.3708 304.4169 L384.2301 303.9946 L383.3857 304.5575 L382.119 303.854 L382.5412 303.4317 L383.3857 303.4317 L384.2301 302.8687 L385.356 301.1797 L386.0597 301.6021 L386.0597 302.165 L385.7782 302.7279 L386.4819 303.1502 L387.6078 302.8687 L388.03 303.2908 L388.7337 303.9946 L389.5782 303.1502 L390.1411 303.1502 L391.267 302.3058 L392.3929 302.3058 L393.0966 301.6021 L393.2374 300.6168 L393.8003 301.1797 L396.615 301.4614 L397.4595 300.6168 L399.1483 300.3353 L400.1335 299.3503 L400.2742 298.9279 L402.2446 298.6465 L402.6668 298.2243 L402.1038 297.3799 L402.3854 297.0984 L402.5261 295.8318 L403.0891 295.8318 L403.3705 295.5503 L403.7927 295.9726 L403.5112 296.5354 L404.7779 297.5207 L405.6223 296.3948 L406.1853 296.3948 L406.6075 295.9726 L406.6075 295.1281 L407.1704 294.5651 L406.8889 293.7208 L407.3112 293.2984 L408.8593 293.4393 L408.2963 292.5948 L408.4371 292.4541 L409.0 293.0171 L409.7037 292.0319 L409.7037 290.6245 L409.4222 290.343 L409.4222 288.9356 L409.7037 288.3727 L409.4222 287.8096 L410.5481 286.9652 L411.8148 284.8541 L413.2222 284.8541 L413.7851 285.6986 L415.0518 284.995 L415.0518 283.869 L414.7703 283.5876 L415.0518 283.0247 L415.0518 279.0839 L414.7703 278.8025 L414.4888 277.1136 L414.4888 273.7358 L415.0518 272.3286 L415.6147 271.7655 L415.6147 270.9211 L416.1777 270.0766 L416.1777 268.1064 L416.7406 267.2619 L416.7406 265.8545 L417.3036 265.2916 L417.3036 262.4768 L417.8665 260.788 L417.5851 255.7215 L416.1777 252.9066 L416.1777 252.3436 L414.4888 250.3734 L414.2073 249.2475 L413.6444 248.6844 L413.0814 247.2771 L413.0814 246.7143 L411.9555 245.3067 L412.237 241.929 L412.8 241.3661 L412.8 240.8032 L413.0814 238.8329 L413.5036 238.6921 L414.0666 238.9735 L415.474 237.8476 L417.4443 237.8476 L418.5702 238.9735 L419.1332 238.9735 L419.9776 239.818 L421.1035 239.818 L421.385 240.0994 L422.5109 240.381 L424.1998 240.381 L424.4812 240.6624 L424.7627 240.381 L426.7331 240.381 L427.0145 240.6624 L427.5774 240.6624 L429.2663 240.381 L429.8293 239.818 L430.3923 239.818 L431.5182 239.2551 L432.2219 238.5513 L431.3774 237.9884 L431.5182 237.2848 L432.6441 237.2848 L433.207 238.1292 L434.0515 238.1292 L435.1774 237.5662 L437.7106 235.5958 L440.2439 234.47 L441.6513 233.344 L443.4809 231.5145 L443.4809 230.9515 L444.3253 230.107 L444.8883 228.6997 L446.0142 227.2923 L446.0142 226.1663 L447.1401 224.196 L447.1401 223.6331 L446.2956 222.2258 L447.1401 221.3814 L447.1401 220.5369 L447.703 219.6925 L447.703 218.0036 L448.266 217.4407 L448.266 216.3147 L448.8289 215.4702 L448.8289 214.9074 L448.266 213.7814 L448.8289 213.2186 L448.8289 212.374 L449.6734 210.6851 L450.7993 209.2779 L450.7993 208.7148 L451.3622 207.026 L450.94 206.8854 L450.6585 207.1667 L450.2363 206.7445 L451.0808 205.9 L451.0808 205.3371 L449.9548 204.4927 L449.1104 202.2408 L446.8586 200.2706 L446.5771 198.3002 L446.8586 198.0188 L447.1401 192.3892 L447.9845 191.2633 L447.9845 189.0115 L447.2808 188.0263 L446.4364 188.0263 L445.4512 187.0411 L445.7327 186.7596 L445.7327 185.9153 L445.7327 183.6635 L444.3253 182.256 L444.3253 181.6931 L443.1994 180.8487 L442.6364 179.7228 L442.0735 179.4413 L441.792 178.3154 L440.9476 177.1894 L439.8217 176.3452 L436.444 171.56 L435.3181 170.7156 L435.3181 170.4341 L431.3774 166.4934 L431.3774 166.2119 L429.6886 164.8045 L428.4219 163.2564 L427.5774 162.975 L423.3553 158.7529 L423.0739 158.7529 L418.8517 155.0936 L418.148 154.1084 L418.148 153.5456 L413.7851 149.1827 L412.6592 148.6196 L411.8148 147.4937 L410.9704 147.2122 L408.7185 145.2419 L404.7779 142.9901 L401.5409 139.4716 L401.5409 139.1902 L396.1929 134.405 L395.4891 133.1385 L394.6447 132.857 L393.8003 132.0125 L391.83 130.8866 L388.4523 128.3533 L387.0449 127.2275 L382.9635 123.4275 L382.9635 123.146 L380.008 119.6275 L379.445 119.6275 L377.7561 118.2202 L375.2228 117.6572 L374.6599 117.0942 L374.0969 117.0942 L373.534 116.5312 L372.1267 115.9685 L370.7192 115.9685 L369.0304 115.1239 L368.4675 115.4055 L368.0452 114.7018 L364.8083 111.7462 L363.9638 111.7462 L363.4009 111.1834 L362.8379 111.1834 L361.1491 110.6203 L360.5861 110.0575 L360.0231 110.0575 L359.1787 109.213 L357.7713 109.213 L356.6454 108.6499 L355.5195 108.9316 L354.3936 108.3685 L353.2677 108.3685 L352.4233 109.213 L352.2825 108.7906 L351.2974 108.3685 L350.5937 109.0723 L350.3122 109.9165 L349.7492 110.761 L348.2011 112.3092 L347.0752 112.8722 L346.2308 113.1537 L341.4457 113.1537 L341.1642 112.8722 L339.4753 112.8722 L339.1939 112.5906 L336.9421 112.3092 L333.8459 111.4648 L333.2829 110.9017 L332.1569 110.6203 L331.594 110.0575 L331.031 110.0575 L328.7793 109.213 L327.0904 107.524 L325.9645 107.524 L324.9793 108.5092 L324.6979 109.0723 L324.9793 110.4796 L323.1497 111.1834 L322.5868 110.6203 L321.1794 110.0575 L320.0534 109.213 L319.9128 108.5092 L316.6758 105.8351 L315.5499 104.9908 L314.1425 104.4279 L313.0166 103.3019 L311.187 102.0353 L309.4981 98.6576 L307.2463 96.6872 L306.6833 95.5612 L302.7427 90.7762 L303.0241 89.3688 L305.276 87.1171 L305.5574 86.554 L305.839 84.5838 L306.6833 82.8949 L306.4019 82.0504 L307.2463 81.4875 L307.2463 80.9245 L308.0907 79.5173 L309.9203 77.6876 L310.4833 77.6876 L312.1721 76.5616 L315.2684 74.0285 L316.3943 74.0285 L318.3646 72.9024 L319.772 71.4952 L320.335 71.4952 L321.4609 72.058 L322.0238 71.4952 L323.7126 71.2136 L324.5571 70.3691 L326.246 69.8063 L327.6534 68.3989 L327.9348 68.3989 L328.4977 67.5544 L329.3422 67.5544 L330.0459 66.2878 L331.4533 64.0361 L331.031 63.8952 L330.8903 64.599 L330.0459 65.7247 L325.9645 68.9618 L324.8386 69.5248 L324.2756 69.5248 L322.8683 70.6507 L322.0238 70.6507 L321.1794 71.2136 L320.6164 70.9321 L318.9276 71.2136 L319.0683 70.2285 L318.5054 69.1026 L319.9128 66.8507 L319.6313 66.2878 L320.1942 65.1619 L319.6313 63.7546 L321.0387 62.6286 L320.7572 62.0656 L321.6016 61.2213 L321.883 57.8435 L321.0387 56.7176 L320.7572 55.8731 L320.335 55.7325 L315.1276 49.9622 L309.6389 45.0362 L308.7944 45.0362 L307.95 44.1918 L305.6982 43.066 L304.8537 43.3475 L304.0094 42.5031 L302.8835 41.9401 L302.039 42.2215 L301.1945 41.3772 L300.6316 42.2215 L300.3502 41.0956 L298.3798 41.6586 L297.9576 40.955 L298.5206 40.1104 L297.5353 39.1252 L296.128 38.8439 L294.4391 37.4365 L293.3132 37.4365 L292.7502 36.8736 L291.6244 36.8736 L289.654 36.029 L287.1208 35.7476 L285.1504 34.9032 L280.6468 34.0588 L276.4246 33.7772 L276.1432 33.4958 L274.4543 33.2144 L274.3136 33.9181 L273.047 34.3402 L271.9211 32.9328 L269.9507 32.9328 L269.6692 32.6514 L268.2619 32.37 L265.7286 32.37 L265.447 32.0883 L264.0397 31.8069 L263.1953 31.8069 L262.6323 32.0883 L261.7878 31.5255 L259.8176 31.5255 L258.1286 30.9625 L256.1584 30.9625 L255.5954 31.8069 L254.751 30.9625 L253.6251 30.6811 L235.6105 30.3997 L235.3291 30.6811 L230.2625 30.6811 L229.9811 30.9625 L228.5737 31.2439 L224.3515 31.5255 L223.2256 30.3997 L221.959 29.6959 L221.1145 28.0069 L221.1145 26.5995 L221.396 26.3181 L221.396 24.9107 L221.6774 24.6292 L221.6774 23.7849 L221.959 22.6591 L222.5219 21.8145 L222.5219 20.9701 L223.3664 18.4368 L224.2108 17.3109 L224.7737 15.9036 L225.196 15.7629 L225.8996 15.0591 L225.8996 14.4961 L227.7292 12.9481 L228.2922 12.6665 L229.9811 12.9481 L231.107 12.1035 L232.5143 12.1035 L233.6403 11.822 L235.6105 10.6961 L238.7068 8.163 L241.2401 7.0371 L243.7734 6.7555 L244.3363 6.1927 L245.4622 5.6296 L246.5881 5.6296 L247.714 6.1927 L249.6844 8.163 L249.9659 8.163 L251.0918 9.2887 L252.2177 9.8518 L252.7806 9.8518 L253.0621 10.1333 L255.5954 10.1333 L255.8769 9.8518 L257.2843 9.5703 L258.2694 8.5851 L258.2694 7.7407 L260.099 6.1927 L261.2249 6.1927 L262.0694 5.3482 L263.4767 4.7851 L264.6027 5.0667 L265.1656 4.5038 L267.1359 4.7851 L267.4174 4.5038 L269.3878 4.5038 L271.3581 3.9407 L272.484 3.3778 L274.1728 1.4075 L275.5803 0.8445 L276.1432 0.8445 L276.4246 1.1261 L276.4246 0.0 L275.5803 0.5632 L275.0173 0.5632 L273.6099 1.1261 L271.6395 3.0964 L270.7951 3.0964 L269.6692 3.6593 L268.2619 3.6593 L267.9803 3.9407 L264.3211 3.9407 L264.0397 4.2222 L262.9138 4.2222 L262.6323 4.5038 L260.3805 5.0667 L259.8176 5.6296 L258.9731 5.9111 L257.988 6.8963 L257.1435 8.3036 L255.8769 9.2887 L253.3436 9.2887 L253.0621 9.0074 L252.2177 9.0074 L248.277 5.6296 L247.714 5.6296 L246.0252 4.7851 L244.0549 5.9111 L242.9289 5.9111 L242.0845 6.474 L240.6771 6.474 L239.5512 6.7555 L238.7068 7.6 L237.5809 7.8815 L235.6105 9.5703 L233.3587 10.6961 L230.8254 10.9777 L228.8552 11.822 L227.1662 12.1035 L225.4774 13.2296 L223.3664 15.3406 L222.5219 16.7479 L221.6774 18.9997 L221.6774 20.4071 L220.5516 21.8145 L219.9886 22.9405 L219.9886 24.3478 L220.2701 24.6292 L220.2701 25.1923 L219.9886 25.4738 L219.9886 28.8514 L219.2849 29.5552 L218.722 29.5552 L217.8776 30.3997 L217.1739 29.9773 L216.8924 29.1328 L216.8924 28.57 L217.4553 28.0069 L217.4553 26.0367 L217.7368 25.1923 L216.8924 23.7849 L216.6109 21.533 L215.7665 20.1256 L215.9072 19.422 L215.6257 19.7034 L214.4998 19.7034 L213.3739 20.2664 L212.248 21.3923 L211.4036 21.6737 L209.1518 23.3627 L207.7444 24.7699 L206.9 25.0516 L204.7889 27.1626 L205.2111 27.8662 L206.0555 27.5848 L206.4777 28.2886 L204.9296 29.2735 L203.8038 30.3997 L202.9593 30.3997 L201.9742 31.3848 L201.6926 32.7921 L201.4112 33.0735 L201.1297 34.4809 L202.1149 36.029 L202.3963 35.7476 L202.9593 36.029 L204.5075 36.1699 L204.5075 38.7032 L204.2259 38.9845 L204.2259 39.8291 L203.8038 40.2511 L203.2408 40.2511 L202.3963 39.4068 L201.9742 39.8291 L201.9742 43.2066 L201.6926 44.0511 L202.2556 44.8956 L202.2556 46.0216 L203.3815 46.5844 L202.5371 47.1473 L202.8185 48.5548 L203.9445 50.8066 L206.3371 53.1992 L207.1814 53.1992 L208.3073 53.7622 L210.9814 56.4361 L213.5147 60.9398 L217.0331 65.0212 L220.9738 67.5544 L224.07 68.3989 L224.7737 69.9471 L223.7886 70.9321 L222.9441 71.2136 L221.2553 71.2136 L220.9738 71.4952 L218.722 72.058 L215.6257 72.3396 L212.5295 73.7469 L210.8406 74.8729 L209.1518 76.5616 L208.8703 76.5616 L204.5075 81.2061 L203.9445 82.332 L200.8483 86.2727 L198.5964 88.8059 L198.1742 88.9467 L198.0334 89.3688 L194.515 92.8874 L194.2336 92.8874 L192.8262 94.0132 L191.4188 95.702 L190.0114 96.5465 L186.0707 99.9243 L185.5078 99.9243 L184.3819 100.7687 L181.8486 101.6131 L180.4412 101.6131 L180.1597 101.8946 L178.7523 102.176 L176.5005 102.4575 L173.6857 102.176 L173.4043 101.8946 L170.871 101.8946 L170.5895 101.6131 L170.0265 101.8946 L166.0859 101.8946 L165.2414 102.176 L164.6785 102.739 L163.2712 103.0204 L162.4267 103.5833 L161.8638 103.5833 L161.0193 104.1465 L158.7675 104.9908 L157.0787 104.9908 L156.5157 105.5537 L154.5454 106.1168 L153.9824 106.6797 L153.4195 106.6797 L152.2936 107.524 L151.4491 107.524 L149.4788 109.213 L146.664 109.4944 L143.0048 113.4351 L142.4419 113.4351 L141.5974 114.2795 L139.9086 114.8425 L138.2198 115.9685 L136.1086 118.3609 L136.1086 119.2054 L135.5457 120.0497 L135.8272 120.6127 L135.8272 122.3017 L136.6716 123.9904 L136.9531 127.6497 L136.1086 128.4941 L135.8272 131.5903 L135.2643 132.1534 L134.9827 134.405 L134.1384 136.657 L131.9569 140.6854 L130.9522 145.0381 L129.8087 148.2749 L128.6828 150.7203 L128.0319 151.7934 L127.5921 152.1629 L127.3106 152.673 L126.5189 153.3592 L125.6217 154.0628 L124.4606 154.9776 L122.8597 155.8396 L120.8543 156.0155 L119.5524 155.9804 L117.8459 155.611 L116.5089 155.1007 L115.5061 154.3971 L114.5034 153.6933 L113.9581 152.7961 L113.5182 151.8462 L112.6034 150.738 L111.4951 149.5064 L110.4396 148.0639 L109.4721 146.9029 L108.7331 146.4982 L108.6276 146.1111 L107.0795 145.2667 L106.1998 144.8268 L105.6545 144.7917 L105.1092 144.6158 L104.5638 143.9648 L103.561 143.1908 L102.2592 141.9242 L101.3444 140.9742 L100.711 140.7455 L100.1481 140.1122 L100.0074 139.5669 L100.0953 139.1094 L99.9546 138.652 L100.1481 138.3178 L100.3064 137.9484 L100.1481 137.5788 L99.9722 137.3678 L100.2009 137.0686 L99.937 136.5586 L99.4093 135.8901 L98.7231 135.5558 L98.4436 134.748 L98.0918 134.3786 L97.4232 134.3259 L96.8779 134.0971 L96.2797 133.323 L95.7343 132.9713 L94.7844 132.7777 L93.9927 132.9713 L93.3242 133.2528 L92.7261 133.6045 L92.4974 134.1324 L92.4974 134.5195 L92.427 134.8712 L92.7261 134.9944 L92.6205 135.5397 L92.7085 135.8212 L92.7964 136.2787 L92.902 137.0 L92.902 138.0729 L92.7789 139.6386 L92.4798 140.9758 L92.4622 142.3304 L92.427 143.7026 L92.5678 144.3008 L92.6205 144.9515 L92.4446 145.6906 L91.952 146.0422 L91.5474 146.3062 L90.9141 146.6404 L90.3688 147.0627 L89.9465 147.696 L90.0169 148.1006 L90.1928 148.382 L90.4919 148.9274 L90.6854 149.2088 L90.6678 149.5607 L90.4039 149.7896 L90.2104 150.2292 L90.2104 150.5987 L90.2456 151.1441 L90.3335 151.7773 L90.3688 152.5867 L90.4919 153.607 L90.703 154.5923 L90.6678 155.3135 L90.5446 155.5421 L90.2632 155.8765 L90.14 156.2106 L90.0521 156.4042 L89.4715 156.3161 L88.891 156.2106 L88.2929 156.2283 L87.7651 156.3514 L86.9734 156.7736 L86.1466 157.5125 L85.5309 158.1459 L84.9679 158.568 L84.4401 159.0783 L83.9124 159.9226 L83.455 160.6967 L82.9624 161.031 L82.7865 161.4532 L82.6633 161.9106 L82.2939 162.5086 L81.7837 162.9134 L81.2559 163.3181 L80.9392 163.9514 L80.5874 164.4439 L80.0244 164.9189 L79.5319 165.3587 L78.9161 165.4642 L78.3181 165.5522 L78.019 165.6226 L77.6671 165.8161 L77.4208 166.0624 L77.1217 166.0271 L76.8403 165.8161 L78.3181 161.893 L77.8958 161.7522 L77.6847 161.4355 L77.6143 160.9253 L77.3328 160.6791 L76.6643 160.3624 L76.0662 160.0634 L75.6264 159.4477 L75.0635 158.7263 L74.6764 158.3041 L74.4477 158.0227 L74.9051 157.7237 L75.3449 157.4421 L76.4885 156.8264 L76.5236 156.4042 L76.4708 156.1228 L76.2773 155.8412 L76.3125 155.3839 L76.4885 155.0672 L76.7875 154.7682 L77.2977 154.6097 L78.0365 154.5923 L78.881 154.5569 L79.6375 154.3106 L80.3411 154.0643 L80.6754 153.7653 L80.8689 153.5015 L80.9041 152.9913 L80.6402 152.3755 L80.2883 152.059 L79.8486 151.7246 L79.2856 151.4608 L79.0217 151.1441 L78.6699 150.6868 L77.6847 150.4228 L77.1745 150.4228 L76.7523 150.6515 L76.3653 150.6691 L75.9079 150.8274 L75.6968 151.1792 L75.4857 151.7423 L75.1514 152.4635 L74.7644 152.6745 L74.1838 152.7626 L73.8496 152.6571 L73.6209 152.4108 L73.4625 152.0413 L73.269 151.6895 L73.1459 151.8831 L73.2514 152.6922 L73.2867 153.1144 L73.269 153.5894 L73.0051 153.8533 L72.3894 154.1524 L72.02 154.381 L71.4571 154.6978 L71.2811 154.9617 L70.2607 155.5245 L67.7979 156.6154 L66.8831 157.108 L66.4784 157.5829 L66.1266 158.4449 L65.7923 158.9024 L65.1942 159.4653 L64.8247 159.6586 L64.2794 159.3069 L63.822 158.7263 L63.347 158.3745 L62.8368 158.2163 L62.3794 158.3745 L61.7461 158.4272 L61.5174 158.48 L61.148 158.8494 L60.673 159.5708 L60.6378 160.2042 M84.5985 185.0708 L84.5985 184.5079 L85.0207 184.0857 L85.5837 184.0857 L86.0059 184.5079 L85.8651 185.2115 L85.3022 185.4929 L84.5985 185.0708 M127.6643 156.9231 L127.6643 156.3602 L128.0866 155.938 L128.5088 156.0788 L129.0718 156.6418 L128.6496 157.3453 L128.0866 157.3453 L127.6643 156.9231 M134.9827 293.1578 L135.405 293.0171 L136.2494 293.5799 L137.0939 293.5799 L138.5012 294.143 L140.4715 295.8318 L141.5974 296.1133 L141.8789 296.3948 L142.8641 297.0984 L144.1307 297.2392 L145.1159 298.5058 L144.6937 298.9279 L144.1307 298.6465 L142.1604 298.6465 L141.8789 298.3652 L141.0345 298.9279 L140.8937 298.2243 L141.1752 297.9428 L140.4715 297.2392 L139.3456 296.3948 L138.7827 296.3948 L137.9382 295.5503 L136.8123 295.2688 L134.9827 293.1578 M136.6716 120.6127 L137.0939 120.472 L137.516 120.8943 L137.516 121.4572 L137.3753 121.5979 L136.8123 121.5979 L136.6716 120.6127 M165.6637 301.8835 L165.8044 301.4614 L166.0859 301.4614 L166.9303 301.1797 L167.071 301.6021 L166.6488 302.3058 L166.0859 302.3058 L165.6637 301.8835 M169.0414 295.6911 L169.0414 295.1281 L169.4636 294.706 L170.1673 294.8466 L170.1673 295.9726 L169.4636 296.1133 L169.0414 295.6911 M174.6709 385.7634 L174.6709 385.2005 L174.9524 384.9191 L174.6709 383.7933 L175.3747 383.6524 L175.9376 383.9339 L176.0783 384.3562 L175.5153 384.9191 L175.5153 385.7634 L175.3747 385.9042 L174.6709 385.7634 M175.7968 423.7629 L176.219 423.3405 L176.782 423.3405 L176.9227 423.7629 L176.5005 424.1851 L175.9376 423.9036 L175.7968 423.7629 M175.7968 368.8749 L175.9376 368.4527 L176.5005 368.7342 L177.4857 368.5933 L177.4857 369.1564 L176.782 369.5786 L176.0783 369.4379 L175.7968 368.8749 M175.7968 349.4531 L175.7968 348.89 L176.0783 348.6086 L176.0783 346.6383 L176.219 346.4976 L176.6413 346.9197 L176.6413 349.7345 L176.219 349.8752 L175.7968 349.4531 M178.3301 353.1123 L178.6116 352.5493 L178.7523 352.4086 L179.1745 352.8307 L179.1745 353.3937 L178.7523 353.5344 L178.3301 353.1123 M203.9445 84.5838 L203.9445 84.0207 L204.3667 83.8802 L204.7889 84.3023 L204.6481 84.7244 L204.2259 84.8652 L203.9445 84.5838 M205.6334 439.807 L205.7741 439.3848 L206.6185 439.3848 L207.0407 439.807 L206.6185 440.5107 L206.3371 440.5107 L205.9148 440.0884 L205.6334 439.807 M210.5592 25.3331 L210.9814 25.4738 L211.5443 26.3181 L211.1221 26.7405 L210.6999 26.3181 L210.6999 25.7552 L210.5592 25.3331 M220.2701 31.3848 L220.2701 30.8218 L220.9738 30.118 L221.396 30.2587 L222.0997 30.6811 L222.5219 30.8218 L222.5219 31.3848 L220.9738 32.0883 L220.2701 31.3848 M230.9662 440.37 L230.9662 440.0884 L232.2329 439.1032 L232.9366 439.5254 L232.655 440.0884 L231.9514 440.7922 L231.3884 440.7922 L230.9662 440.37 M254.8917 473.5842 L255.0324 473.4434 L255.8769 474.0064 L255.8769 474.5692 L255.5954 474.8508 L255.0324 474.8508 L254.8917 473.5842 M255.4547 480.3395 L255.5954 479.9174 L255.8769 479.9174 L257.0028 479.9174 L257.988 480.0582 L257.7065 480.6211 L258.5509 481.4654 L258.1286 481.8878 L257.5657 481.3246 L256.4398 481.0433 L255.4547 480.3395 M256.0176 470.4878 L256.1584 469.5028 L256.4398 469.5028 L256.5806 469.925 L256.862 470.7695 L256.4398 470.9101 L256.0176 470.4878 M267.2766 487.9395 L267.6989 487.5172 L267.8396 487.658 L268.4025 488.2208 L268.2619 488.6431 L267.6989 488.6431 L267.2766 487.9395 M316.535 496.1022 L316.9572 495.9615 L317.5202 495.9615 L317.8017 495.68 L318.2239 496.1022 L317.8017 496.5245 L316.6758 496.243 L316.535 496.1022 M319.0683 60.0954 L320.1942 60.0954 L320.6164 60.5175 L320.7572 60.6583 L320.335 61.0804 L319.772 61.0804 L319.0683 60.0954 M325.5422 493.5689 L325.5422 493.0061 L325.9645 492.5838 L326.5275 492.8654 L327.6534 491.7393 L328.2163 491.7393 L328.3571 491.88 L328.6385 492.7246 L328.92 493.2874 L328.4977 493.9912 L326.246 493.9912 L325.5422 493.5689 M326.1052 109.0723 L326.246 108.3685 L327.3718 108.6499 L327.7941 109.0723 L327.3718 109.4944 L326.5275 109.213 L326.1052 109.0723 M341.5864 450.5031 L341.5864 449.94 L342.2901 449.2363 L342.7123 449.94 L342.7123 450.7846 L342.0086 450.9253 L341.5864 450.5031 M341.5864 305.2612 L341.5864 304.6983 L341.5864 304.1354 L342.2901 303.9946 L342.5716 304.276 L343.416 303.4317 L343.5568 304.4169 L342.5716 304.8389 L342.0086 305.402 L341.5864 305.2612 M343.8382 115.2648 L344.2604 115.1239 L344.9641 115.8276 L344.8234 115.9685 L344.2604 115.4055 L343.979 115.4055 L343.8382 115.2648 M355.801 111.1834 L355.801 110.6203 L356.9269 110.6203 L357.4899 111.1834 L358.6158 111.4648 L360.0231 110.9017 L360.1638 111.3241 L359.1787 112.3092 L358.6158 112.5906 L358.3342 112.3092 L357.7713 111.7462 L357.2084 111.7462 L356.6454 111.1834 L355.801 111.1834 M361.5713 113.0129 L361.9934 112.5906 L362.5564 112.8722 L362.6971 113.2944 L362.275 113.7167 L361.712 113.1537 L361.5713 113.0129 M383.2449 128.2126 L383.2449 127.3682 L383.9486 126.6644 L385.0745 126.6644 L384.9338 127.6497 L383.6672 128.6348 L383.2449 128.2126 M393.9411 137.7827 L394.6447 137.0791 L395.6299 137.7827 L395.6299 138.0642 L394.9262 138.2051 L394.3633 138.2051 L393.9411 137.7827 M397.178 299.7724 L397.3187 299.3503 L398.3039 298.6465 L398.7262 299.3503 L398.3039 299.7724 L398.0225 299.4909 L397.7409 299.7724 L397.178 299.7724 M403.2297 145.3828 L403.652 144.9605 L403.9334 144.9605 L404.6371 145.9457 L404.3557 147.0716 L403.9334 147.4937 L403.5112 146.79 L403.2297 145.3828 M409.9852 285.2763 L409.9852 284.4321 L410.1259 284.2912 L410.9704 284.0099 L411.3926 284.4321 L410.6889 285.4172 L409.9852 285.2763 M438.6958 231.5145 L438.8366 231.0923 L439.6809 231.0923 L440.3846 231.7959 L440.2439 232.2182 L438.9772 232.0773 L438.6958 231.5145 M442.355 228.9811 L442.355 228.4182 L442.4957 228.2774 L443.3401 227.996 L443.4809 228.4182 L442.7772 229.1219 L442.355 228.9811 M446.9993 208.5742 L446.9993 208.0111 L447.5623 208.0111 L448.1252 207.4482 L448.5475 208.152 L447.8438 208.5742 L446.9993 208.5742" stroke-dasharray="" fill="none" fill-opacity="1.0" stroke="#ff0000" stroke-opacity="1.0" stroke-width="1.0px" stroke-linecap="butt" stroke-linejoin="miter" stroke-dashoffset="0.0px"/>
</g>
</svg>