<?xml version="1.0" standalone="no"?>
<!DOCTYPE svg PUBLIC "-//W3C//DTD SVG 1.1//EN" "http://www.w3.org/Graphics/SVG/1.1/DTD/svg11.dtd">
<svg width="512px" height="512px" version="1.1" xmlns="http://www.w3.org/2000/svg" xmlns:inkscape="http://www.inkscape.org/namespaces/inkscape">
<g id="layer" inkscape:groupmode="layer" inkscape:label="layer">
<path d="M252.1765 135.6471 L252.4118 136.0 L251.2353 132.0 L250.2941 131.6471 L249.8235 130.7059 L250.1765 129.7647 L249.2353 128.1176 L250.1765 128.3529 L250.8824 127.0588 L251.8235 127.0588 L250.8824 127.1765 L252.2941 125.5294 L253.7059 125.7647 L254.6471 124.3529 L256.4118 123.1765 L257.3529 122.0 L258.7647 120.0 L259.0 121.0588 L259.5882 118.4706 L261.7059 117.5294 L260.7647 118.4706 L262.4118 118.4706 L261.9412 120.2353 L260.4118 121.8824 L260.4118 123.5294 L259.0 124.4706 L257.9412 126.9412 L258.2941 127.1765 L257.2353 127.1765 L256.2941 130.1176 L256.6471 131.4118 L257.9412 131.0588 L259.0 131.6471 L259.1176 134.3529 L260.4118 135.0588 L259.4706 133.5294 L260.0588 131.8824 L261.5882 130.3529 L259.8235 131.6471 L259.7059 130.9412 L256.7647 130.9412 L258.8824 128.7059 L259.5882 126.3529 L261.7059 124.0 L261.9412 123.0588 L263.9412 121.6471 L263.7059 120.1176 L266.1765 118.2353 L267.1176 119.0588 L267.2353 120.7059 L267.4706 119.5294 L267.2353 118.2353 L266.2941 115.7647 L266.4118 114.7059 L267.7059 113.1765 L269.4706 112.5882 L277.0 107.1765 L278.2941 105.5294 L278.5294 104.0 L279.8235 102.9412 L280.0588 101.5294 L279.1176 101.0588 L280.2941 98.4706 L281.2353 97.8824 L281.3529 96.8235 L282.6471 95.4118 L283.4706 94.4706 L284.8824 93.2941 L286.0588 93.0588 L285.3529 95.0588 L286.2941 93.0588 L286.6471 94.3529 L288.8824 96.9412 L288.2941 97.8824 L291.0 99.6471 L292.7647 100.9412 L296.7647 102.3529 L298.0588 103.6471 L298.0588 104.7059 L296.7647 104.2353 L297.9412 104.9412 L297.7059 106.0 L298.6471 106.8235 L298.7647 108.3529 L297.5882 108.4706 L298.8824 109.1765 L298.4118 110.3529 L299.3529 110.7059 L300.2941 111.4118 L300.6471 112.3529 L300.4118 111.4118 L300.4118 110.2353 L299.3529 110.1176 L299.4706 108.5882 L299.1176 107.1765 L298.2941 105.2941 L299.3529 104.8235 L299.9412 103.8824 L301.3529 103.5294 L302.8824 104.8235 L303.1176 106.0 L304.5294 107.0588 L305.0 108.4706 L306.2941 108.5882 L305.9412 107.0588 L305.3529 105.2941 L304.2941 103.0588 L302.4118 103.8824 L302.8824 101.4118 L304.7647 101.4118 L305.9412 105.5294 L306.2941 107.6471 L307.1176 109.6471 L308.4118 113.8824 L310.4118 119.8824 L309.0 122.7059 L307.3529 123.7647 L306.0588 124.3529 L307.1176 123.2941 L308.7647 121.2941 L307.1176 122.3529 L307.1176 121.4118 L307.1176 120.4706 L306.2941 121.8824 L306.1765 120.7059 L305.9412 121.6471 L304.0588 120.8235 L305.0 119.8824 L304.8824 119.1765 L304.8824 117.6471 L304.7647 116.5882 L305.0 115.1765 L303.8235 115.7647 L304.8824 117.4118 L304.1765 118.3529 L304.1765 119.2941 L303.1176 119.5294 L304.0588 120.2353 L302.0588 122.1176 L301.9412 121.0588 L302.0588 120.0 L301.1176 120.7059 L300.8824 119.4118 L300.6471 117.8824 L299.2353 118.1176 L299.1176 116.3529 L297.7059 115.8824 L297.7059 115.6471 L296.7647 115.6471 L297.0 114.7059 L296.0588 113.4118 L294.7647 112.1176 L294.6471 110.9412 L294.7647 112.0 L295.2353 114.2353 L293.8235 114.8235 L295.1176 115.1765 L295.9412 116.9412 L296.8824 116.7059 L298.4118 118.0 L299.1176 120.5882 L297.5882 120.8235 L296.5294 121.7647 L295.9412 122.7059 L294.7647 123.5294 L293.8235 122.2353 L294.2941 123.7647 L293.8235 124.9412 L292.7647 124.0 L291.7059 124.1176 L291.3529 125.1765 L293.1176 125.4118 L292.1765 126.8235 L293.1176 125.8824 L294.5294 126.0 L293.8235 126.9412 L295.9412 125.0588 L297.8235 122.5882 L298.6471 123.8824 L299.9412 124.4706 L301.2353 124.2353 L302.1765 124.1176 L301.7059 125.4118 L302.6471 126.1176 L302.5294 124.8235 L303.5882 125.2941 L306.5294 127.7647 L305.5882 129.0588 L304.5294 128.9412 L304.5294 129.8824 L303.4706 130.0 L299.4706 132.1176 L298.4118 133.4118 L298.2941 134.0 L299.3529 134.0 L298.2941 134.7059 L298.0588 135.6471 L298.7647 137.4118 L296.7647 137.7647 L295.1176 137.4118 L294.7647 136.2353 L296.2941 135.4118 L297.0 132.3529 L296.5294 133.2941 L293.4706 133.8824 L293.8235 132.7059 L294.5294 131.7647 L295.4706 131.5294 L294.2941 131.2941 L295.4706 129.4118 L294.0588 130.3529 L293.1176 130.3529 L293.5882 131.4118 L293.1176 132.3529 L291.7059 131.2941 L291.2353 129.8824 L291.2353 130.8235 L290.2941 130.5882 L291.3529 131.2941 L290.2941 131.2941 L292.2941 131.8824 L292.7647 133.4118 L291.8235 133.5294 L291.7059 132.3529 L289.9412 131.8824 L291.8235 134.2353 L289.7059 134.9412 L289.3529 133.7647 L288.4118 133.7647 L288.5294 134.9412 L287.1176 134.3529 L286.4118 133.4118 L287.1176 132.0 L286.1765 132.0 L286.2941 130.3529 L285.9412 132.9412 L284.6471 133.1765 L283.9412 132.1176 L283.4706 130.1176 L283.8235 128.7059 L283.2353 130.0 L280.1765 130.3529 L283.0 130.4706 L282.8824 131.4118 L281.7059 132.4706 L282.7647 132.2353 L283.0 133.1765 L283.9412 133.1765 L282.6471 134.1176 L282.5294 135.6471 L283.3529 134.3529 L285.2353 134.4706 L285.3529 135.5294 L286.4118 136.8235 L285.3529 137.5294 L286.2941 137.2941 L286.8824 138.7059 L285.8235 139.0588 L285.2353 140.1176 L283.5882 139.6471 L282.6471 139.8824 L281.7059 139.5294 L280.6471 138.4706 L279.4706 139.2941 L280.4118 139.1765 L280.7647 140.1176 L282.2941 140.0 L281.8235 141.1765 L282.6471 140.2353 L283.8235 140.5882 L283.5882 141.8824 L283.1176 142.8235 L284.2941 141.0588 L285.2353 141.1765 L287.8235 139.2941 L287.8235 141.2941 L288.7647 140.0 L289.2353 138.9412 L289.8235 140.5882 L288.1765 142.8235 L289.7059 141.5294 L289.8235 143.0588 L287.2353 146.0 L287.5882 144.5882 L287.1176 143.0588 L286.2941 144.0 L286.4118 144.9412 L283.7059 144.7059 L283.0 143.6471 L283.0 144.7059 L281.7059 144.5882 L279.4706 145.4118 L282.4118 145.1765 L283.5882 145.1765 L284.0588 145.7647 L285.2353 145.7647 L285.0 146.9412 L284.4118 148.2353 L281.8235 148.1176 L277.1176 147.6471 L276.8824 146.7059 L276.6471 145.7647 L276.8824 143.8824 L276.0588 145.4118 L275.4706 144.3529 L276.0588 145.6471 L275.1176 145.8824 L276.2941 147.0588 L275.3529 146.5882 L274.4118 146.4706 L273.2353 146.1176 L272.5294 147.5294 L273.4706 146.7059 L276.2941 147.1765 L272.0588 149.6471 L269.5882 152.4706 L266.6471 153.2941 L262.4118 157.8824 L261.3529 158.9412 L260.8824 157.8824 L260.1765 156.7059 L260.1765 157.7647 L260.7647 158.1176 L259.5882 158.1176 L261.0 158.4706 L256.4118 160.0 L257.3529 158.3529 L257.8235 156.9412 L258.0588 155.5294 L257.1176 154.9412 L257.7059 156.8235 L256.2941 157.8824 L256.2941 158.9412 L256.2941 161.0588 L254.6471 160.0 L253.7059 160.4706 L252.5294 159.4118 L253.5882 160.5882 L255.2353 161.6471 L256.5294 161.7647 L257.1176 160.7059 L256.7647 161.8824 L254.1765 163.1765 L251.9412 165.4118 L249.5882 165.2941 L246.8824 165.4118 L247.8235 165.6471 L251.2353 166.4706 L248.0588 170.5882 L247.0 173.0588 L244.4118 176.0 L243.7059 178.0 L243.5882 180.0 L241.8235 180.4706 L241.3529 181.7647 L237.7059 187.6471 L234.4118 190.5882 L232.6471 192.9412 L229.0 195.8824 L227.8235 199.5294 L226.2941 202.0 L226.0588 204.9412 L224.7647 205.8824 L219.3529 207.7647 L218.6471 210.1176 L219.1176 213.0588 L220.4118 214.3529 L222.8824 215.0588 L223.3529 211.1765 L224.2941 210.9412 L225.9412 209.1765 L227.7059 208.0 L228.6471 208.2353 L228.5294 207.2941 L229.2353 207.7647 L229.2353 206.8235 L230.6471 205.2941 L232.4118 201.8824 L233.0 199.5294 L234.8824 196.7059 L235.8235 197.5294 L236.5294 198.4706 L238.7647 197.8824 L239.2353 196.9412 L238.1765 196.5882 L237.2353 197.0588 L236.7647 198.0 L237.0 196.8235 L236.7647 195.0588 L237.5882 193.5294 L238.6471 194.0 L239.5882 194.0 L240.6471 194.1176 L239.7059 193.8824 L238.5294 193.7647 L238.5294 192.0 L240.4118 190.8235 L241.8235 189.5294 L243.0 190.0 L243.2353 191.1765 L243.2353 190.1176 L244.4118 190.0 L244.1765 188.5882 L245.7059 188.7059 L244.7647 188.9412 L244.0588 187.4118 L245.3529 185.1765 L247.1176 183.7647 L250.0588 179.4118 L250.8824 178.8235 L251.8235 178.8235 L252.7647 175.7647 L253.7059 175.4118 L255.1176 173.7647 L255.2353 175.7647 L256.2941 175.1765 L255.3529 174.5882 L255.5882 173.1765 L255.3529 171.8824 L258.1765 168.8235 L257.5882 170.2353 L260.2941 172.9412 L259.0 171.5294 L259.9412 168.5882 L260.6471 169.7647 L260.7647 168.0 L261.9412 168.0 L263.5882 170.2353 L262.6471 168.5882 L261.2353 167.1765 L261.0 165.7647 L261.5882 164.4706 L261.7059 166.7059 L263.0 165.7647 L262.6471 164.7059 L263.5882 164.8235 L262.4118 164.3529 L263.4706 163.5294 L264.8824 163.7647 L264.1765 165.0588 L265.1176 164.3529 L265.1176 165.2941 L265.0 168.7059 L265.5882 167.4118 L265.9412 167.6471 L265.9412 165.0588 L265.2353 163.1765 L265.1176 161.7647 L266.6471 162.1176 L267.5882 161.8824 L269.0 159.8824 L270.1765 153.8824 L274.4118 155.8824 L274.0588 157.0588 L273.0 156.8235 L273.2353 157.7647 L273.3529 158.7059 L273.4706 157.6471 L274.6471 157.8824 L274.5294 156.9412 L275.7059 156.9412 L276.2941 157.8824 L277.2353 158.0 L277.1176 157.1765 L278.8824 157.1765 L277.2353 156.9412 L275.8235 156.4706 L274.4118 155.5294 L275.9412 155.0588 L277.0 154.8235 L281.7059 155.8824 L284.1765 157.4118 L283.9412 158.3529 L283.0 158.1176 L281.7059 158.3529 L281.8235 159.2941 L283.1176 160.0 L283.5882 158.5882 L284.5294 157.8824 L285.7059 159.0588 L285.7059 158.0 L289.1176 158.1176 L290.0588 157.5294 L290.1765 158.9412 L288.7647 158.7059 L287.5882 159.5294 L290.4118 159.4118 L290.5294 161.2941 L289.9412 163.7647 L288.4118 164.2353 L290.0588 164.3529 L288.7647 164.5882 L289.2353 165.7647 L287.9412 164.7059 L287.3529 163.2941 L287.3529 164.5882 L288.5294 165.6471 L287.2353 165.5294 L288.1765 166.2353 L289.4706 166.5882 L288.6471 168.2353 L286.5294 167.6471 L288.5294 167.1765 L285.0 167.1765 L284.2941 165.6471 L284.8824 167.2941 L283.2353 168.0 L283.3529 166.7059 L282.0588 167.2941 L281.4706 166.1176 L282.0588 165.6471 L281.1176 165.6471 L281.8235 164.5882 L280.7647 164.8235 L279.7059 165.4118 L279.4706 163.4118 L280.4118 162.1176 L279.1176 163.6471 L278.0588 162.4706 L277.1176 162.3529 L275.9412 162.0 L277.2353 162.7059 L278.2941 163.8824 L278.0588 165.6471 L277.0 166.0 L276.0588 165.7647 L277.1176 166.5882 L278.1765 166.5882 L280.2941 166.5882 L280.7647 167.6471 L278.8824 167.4118 L279.9412 168.1176 L279.2353 168.7059 L280.4118 168.7059 L281.7059 168.5882 L280.0588 170.0 L279.5882 169.5294 L278.5294 169.5294 L277.4706 168.3529 L276.0588 169.5294 L273.2353 167.6471 L273.7059 168.5882 L276.0588 169.8824 L275.5882 171.1765 L274.5294 171.0588 L275.0 173.2941 L273.8235 173.8824 L273.9412 174.8235 L275.3529 173.8824 L275.8235 172.4706 L275.8235 171.4118 L276.5294 170.2353 L277.4706 170.3529 L279.1176 170.4706 L278.0588 170.5882 L278.8824 172.2353 L279.8235 172.0 L280.4118 172.0 L280.4118 173.6471 L281.2353 172.5882 L281.2353 171.2941 L281.7059 170.3529 L282.6471 170.3529 L282.0588 172.4706 L283.3529 170.5882 L284.5294 170.1176 L285.4706 170.0 L286.4118 170.8235 L285.5882 171.7647 L285.3529 173.0588 L285.8235 174.1176 L283.8235 175.8824 L282.4118 177.2941 L280.6471 179.8824 L280.5294 178.8235 L280.8824 177.0588 L279.7059 177.5294 L279.9412 178.7059 L278.2941 178.2353 L277.9412 179.1765 L277.0 179.7647 L275.8235 178.5882 L274.8824 178.8235 L273.1176 178.3529 L274.1765 179.4118 L273.2353 180.1176 L273.4706 181.6471 L273.9412 181.2941 L273.9412 180.3529 L274.5294 179.4118 L276.0588 179.6471 L276.4118 181.5294 L276.6471 182.7059 L277.1176 183.1765 L277.1176 184.1176 L277.0 185.4118 L275.5882 185.0588 L275.2353 186.0 L273.8235 185.7647 L272.8824 187.1765 L271.2353 187.6471 L272.5294 187.5294 L272.0588 188.5882 L271.9412 190.1176 L273.1176 188.7059 L274.6471 186.8235 L275.7059 187.6471 L276.1765 186.2353 L277.2353 186.3529 L278.1765 186.4706 L278.6471 184.8235 L279.7059 184.5882 L279.5882 184.0 L279.5882 182.9412 L283.3529 183.1765 L284.4118 181.6471 L285.7059 180.3529 L286.8824 180.5882 L286.5294 181.7647 L285.2353 182.8235 L285.4706 185.8824 L284.5294 185.4118 L284.8824 186.3529 L283.8235 186.3529 L284.2941 187.4118 L285.2353 186.8235 L285.7059 187.7647 L285.4706 189.1765 L282.6471 189.6471 L281.3529 187.8824 L282.1765 189.8824 L280.0588 190.3529 L277.2353 189.7647 L279.2353 191.1765 L277.8235 192.2353 L279.3529 192.0 L279.2353 193.6471 L278.2941 194.7059 L279.7059 194.5882 L280.1765 195.8824 L279.0 197.6471 L280.7647 198.3529 L280.8824 199.1765 L282.0588 199.1765 L281.7059 198.2353 L280.4118 197.8824 L281.0 195.7647 L281.3529 194.2353 L280.1765 193.4118 L280.8824 191.8824 L282.8824 191.4118 L283.7059 192.3529 L284.8824 191.1765 L286.1765 190.9412 L287.7059 191.1765 L285.4706 193.1765 L286.4118 193.7647 L285.5882 195.8824 L286.6471 194.3529 L286.7647 193.2941 L288.0588 192.8235 L288.6471 194.1176 L287.9412 192.4706 L289.3529 193.0588 L289.0 192.0 L288.5294 190.8235 L288.8824 189.2941 L289.8235 189.2941 L288.8824 188.8235 L288.7647 187.5294 L289.9412 187.5294 L289.5882 186.4706 L289.5882 185.1765 L290.5294 184.2353 L291.7059 185.2941 L290.7647 183.8824 L291.8235 183.4118 L292.2941 184.4706 L291.9412 183.5294 L293.2353 183.1765 L293.5882 184.1176 L293.3529 182.8235 L293.8235 181.7647 L295.2353 182.3529 L295.0 181.1765 L296.0588 181.0588 L297.1176 180.8235 L296.2941 181.8824 L297.4706 181.7647 L297.9412 183.0588 L298.1765 184.8235 L297.3529 186.0 L296.5294 187.1765 L295.5882 186.8235 L296.6471 187.2941 L295.5882 187.6471 L295.9412 188.8235 L296.8824 189.4118 L296.5294 190.7059 L294.7647 190.4706 L294.8824 191.6471 L293.8235 191.8824 L294.0588 193.1765 L293.8235 195.1765 L294.8824 195.8824 L295.2353 196.9412 L294.2941 197.1765 L295.2353 197.2941 L296.1765 197.8824 L295.8235 196.1176 L294.7647 194.4706 L294.6471 192.9412 L295.4706 191.7647 L296.4118 191.5294 L297.3529 193.1765 L297.0 191.8824 L297.4706 190.8235 L298.7647 190.5882 L299.2353 191.5294 L299.7059 192.5882 L300.8824 193.7647 L300.0588 192.1176 L300.0588 191.0588 L299.0 190.5882 L299.2353 189.6471 L297.3529 187.8824 L298.7647 187.6471 L298.6471 186.7059 L299.5882 186.9412 L299.4706 185.8824 L301.2353 186.1176 L299.5882 184.7059 L301.1176 184.3529 L300.1765 184.0 L300.4118 182.8235 L299.4706 182.9412 L299.4706 182.0 L299.2353 180.5882 L299.0 179.1765 L300.2941 177.2941 L301.2353 177.1765 L301.8235 176.2353 L302.0588 174.9412 L303.1176 175.2941 L304.4118 176.9412 L305.2353 176.0 L303.9412 175.5294 L304.2941 174.3529 L303.3529 174.7059 L304.1765 171.7647 L305.5882 171.4118 L305.5882 172.3529 L306.6471 172.3529 L305.7059 171.5294 L307.1176 170.5882 L308.4118 171.1765 L308.4118 169.5294 L309.4706 167.5294 L310.1765 169.0588 L310.2941 172.0 L309.2353 171.1765 L308.8824 171.6471 L308.8824 172.9412 L308.6471 174.8235 L308.7647 173.6471 L310.1765 173.6471 L309.8235 175.5294 L308.8824 176.3529 L310.1765 177.1765 L309.1176 177.0588 L309.0 178.2353 L307.8235 178.5882 L306.6471 177.5294 L306.8824 178.8235 L306.4118 178.8235 L305.4706 178.8235 L304.7647 180.4706 L303.5882 180.1176 L302.5294 181.7647 L303.7059 180.4706 L304.6471 180.5882 L305.5882 179.6471 L306.7647 179.5294 L308.1765 179.0588 L309.5882 179.5294 L309.9412 180.7059 L310.0588 179.2941 L311.5882 179.6471 L311.3529 178.0 L312.8824 179.5294 L312.5294 181.0588 L312.7647 182.0 L311.3529 182.1176 L310.2941 181.4118 L309.7059 182.4706 L308.2941 181.8824 L307.3529 183.0588 L309.2353 182.5882 L309.0 184.0 L310.0588 182.5882 L310.1765 184.3529 L309.1176 184.9412 L310.6471 184.0 L311.7059 182.9412 L312.6471 182.7059 L314.0588 182.4706 L313.0 181.1765 L314.2941 181.7647 L314.4118 184.8235 L313.4706 184.7059 L311.4706 185.0588 L310.8824 186.2353 L312.2941 185.1765 L313.2353 185.1765 L312.6471 186.5882 L312.8824 188.3529 L314.0588 188.8235 L313.2353 195.6471 L311.9412 198.4706 L311.7059 196.8235 L311.4706 198.0 L310.8824 196.9412 L310.0588 196.0 L309.9412 199.5294 L311.1176 199.4118 L309.1176 201.2941 L308.5294 199.6471 L309.2353 198.2353 L307.8235 196.4706 L307.9412 197.8824 L307.8235 198.8235 L307.4706 200.2353 L304.7647 200.1176 L304.6471 199.1765 L303.7059 197.7647 L303.7059 199.1765 L304.5294 200.2353 L303.2353 200.5882 L302.5294 199.6471 L303.0 200.8235 L304.4118 200.7059 L305.3529 200.5882 L306.8824 200.9412 L307.3529 202.4706 L308.8824 202.7059 L305.9412 205.0588 L305.0 204.0 L303.7059 203.7647 L304.7647 204.7059 L305.3529 205.8824 L302.8824 205.6471 L300.4118 205.8824 L299.3529 205.5294 L298.1765 205.2941 L296.5294 205.7647 L295.4706 206.2353 L296.7647 205.8824 L298.2941 205.5294 L298.2941 206.5882 L299.3529 205.8824 L300.0588 206.8235 L299.4706 209.5294 L297.0 209.5294 L296.0588 210.0 L295.0 212.1176 L295.1176 213.4118 L293.4706 213.0588 L292.5294 213.6471 L291.1176 213.7647 L289.9412 214.7059 L288.4118 214.5882 L288.8824 213.5294 L289.1176 212.1176 L288.7647 213.0588 L287.8235 213.2941 L287.7059 215.0588 L286.8824 213.5294 L287.2353 212.0 L285.8235 210.3529 L284.0588 210.0 L282.7647 210.9412 L281.0 210.8235 L279.3529 211.8824 L275.8235 211.1765 L277.8235 212.5882 L277.2353 214.4706 L275.1176 214.1176 L273.9412 214.9412 L273.9412 216.1176 L273.0 215.8824 L271.8235 216.5882 L270.4118 216.1176 L270.0588 215.1765 L270.5294 217.2941 L269.1176 218.7059 L267.8235 218.8235 L266.7647 218.5882 L265.7059 220.8235 L264.6471 220.8235 L263.1176 220.9412 L263.4706 222.3529 L262.5294 222.8235 L262.0588 220.4706 L260.8824 220.5882 L260.1765 221.7647 L258.5294 221.6471 L258.0588 222.5882 L256.7647 223.7647 L257.4706 225.0588 L255.8235 225.6471 L255.2353 227.4118 L256.0588 226.0 L258.0588 225.5294 L259.0 224.3529 L258.4118 223.1765 L259.9412 222.8235 L261.5882 221.7647 L261.4706 222.7059 L262.1765 223.4118 L263.3529 223.4118 L264.1765 222.7059 L264.1765 221.7647 L265.9412 221.7647 L267.1176 219.6471 L268.6471 219.8824 L268.4118 221.6471 L269.3529 221.2941 L270.0588 219.4118 L271.1176 220.1176 L271.2353 218.5882 L271.4706 217.1765 L272.7647 216.8235 L274.7647 217.6471 L276.0588 216.1176 L277.9412 215.5294 L278.7647 213.7647 L279.7059 213.7647 L280.7647 213.0588 L280.7647 214.1176 L281.9412 215.0588 L283.2353 214.9412 L283.8235 213.8824 L284.4118 211.2941 L285.8235 212.1176 L285.2353 213.4118 L285.5882 216.7059 L285.7059 216.4706 L285.7059 213.7647 L285.8235 213.1765 L285.8235 214.8235 L286.8824 217.4118 L288.1765 217.5294 L289.5882 216.2353 L289.1176 217.1765 L289.3529 218.2353 L290.7647 219.0588 L289.3529 218.0 L289.7059 217.0588 L293.1176 217.1765 L294.8824 216.1176 L296.2941 216.7059 L297.5882 216.5882 L298.5294 216.9412 L298.8824 218.0 L299.9412 217.7647 L300.1765 214.2353 L300.6471 218.2353 L299.3529 218.0 L298.4118 218.4706 L298.4118 219.6471 L299.1176 218.5882 L300.1765 218.8235 L299.4706 220.1176 L301.0 218.8235 L301.2353 220.2353 L301.7059 218.9412 L302.7647 218.5882 L303.7059 218.9412 L303.7059 219.8824 L305.1176 220.0 L305.7059 221.1765 L308.8824 234.2353 L306.6471 238.1176 L305.1176 238.8235 L302.7647 239.0588 L303.7059 238.9412 L303.7059 237.2941 L302.4118 237.1765 L302.1765 236.1176 L299.7059 236.9412 L295.9412 236.2353 L295.5882 237.5294 L294.6471 238.1176 L293.4706 239.2941 L295.1176 237.7647 L296.8824 238.0 L297.2353 237.0588 L298.6471 238.1176 L299.9412 237.2941 L299.7059 239.2941 L299.7059 240.7059 L298.6471 241.8824 L297.9412 240.4706 L297.9412 241.4118 L296.4118 241.5294 L294.1765 242.0 L295.7059 241.8824 L297.1176 241.8824 L298.5294 242.3529 L299.3529 243.7647 L299.0 244.3529 L298.0588 244.3529 L297.3529 243.2941 L298.0588 244.8235 L296.7647 245.0588 L295.9412 243.6471 L295.8235 244.5882 L296.6471 245.5294 L295.5882 245.1765 L295.5882 246.0 L294.5294 246.0 L295.7059 246.5882 L294.4118 247.4118 L293.9412 247.8824 L292.6471 247.8824 L294.0588 248.1176 L294.0588 249.1765 L294.1765 247.6471 L295.2353 247.8824 L295.4706 246.9412 L296.8824 247.0588 L297.0 246.1176 L297.9412 245.8824 L297.7059 247.1765 L298.4118 245.8824 L298.8824 246.8235 L299.4706 246.5882 L299.4706 245.5294 L300.4118 246.1176 L299.5882 248.1176 L298.4118 248.7059 L297.1176 248.9412 L297.1176 250.3529 L296.4118 249.7647 L295.1176 249.7647 L296.2941 250.1176 L296.8824 251.4118 L295.8235 251.2941 L296.7647 252.1176 L295.2353 253.4118 L296.8824 252.2353 L297.3529 254.0 L296.1765 255.0588 L297.3529 255.0588 L298.2941 254.7059 L298.0588 253.7647 L297.1176 252.7059 L297.1176 250.9412 L298.1765 251.2941 L297.9412 250.2353 L299.3529 249.8824 L299.5882 250.8235 L299.4706 249.5294 L300.5294 248.9412 L300.4118 250.7059 L301.8235 250.8235 L301.3529 249.8824 L302.2941 249.2941 L303.2353 248.7059 L302.5294 249.6471 L303.1176 251.0588 L302.0588 252.5882 L303.1176 252.0 L303.4706 251.0588 L304.0588 249.5294 L305.1176 251.5294 L304.5294 253.0588 L303.9412 254.1176 L303.4706 253.8824 L303.4706 255.6471 L302.2941 255.4118 L301.2353 255.8824 L302.4118 255.6471 L301.7059 256.7059 L302.0588 257.6471 L301.0 258.2353 L299.9412 258.3529 L298.8824 257.5294 L300.2941 258.9412 L301.5882 258.7059 L300.4118 260.1176 L298.7647 260.9412 L298.2941 259.6471 L297.3529 259.2941 L298.2941 260.2353 L299.2353 261.2941 L297.5882 262.3529 L299.0 262.9412 L299.3529 263.6471 L299.3529 264.5882 L299.2353 265.5294 L298.2941 266.1176 L299.3529 266.1176 L299.5882 264.8235 L299.2353 262.0 L300.5294 261.4118 L301.5882 261.2941 L301.3529 260.3529 L303.1176 259.6471 L304.1765 258.5882 L303.9412 260.8235 L303.0 261.1765 L302.6471 262.3529 L303.5882 264.2353 L302.5294 265.6471 L301.4706 265.5294 L301.0 266.4706 L301.9412 266.4706 L303.8235 265.6471 L303.8235 268.2353 L302.2941 268.4706 L304.4118 268.3529 L305.7059 269.7647 L306.8824 270.2353 L307.4706 268.7059 L307.9412 269.7647 L306.0588 270.0 L304.4118 270.9412 L303.8235 269.6471 L301.9412 269.2941 L302.7647 270.2353 L301.8235 270.5882 L302.5294 271.5294 L300.8824 271.7647 L299.7059 271.8824 L298.7647 271.8824 L298.2941 273.0588 L296.8824 273.7647 L295.5882 272.9412 L296.1765 274.0 L297.7059 274.3529 L298.7647 272.7059 L300.5294 272.1176 L302.1765 272.3529 L303.3529 271.7647 L303.4706 272.8235 L301.8235 274.0 L303.9412 272.9412 L304.1765 276.0 L303.0 276.0 L301.9412 276.0 L300.6471 276.3529 L299.4706 276.9412 L300.7647 276.7059 L300.2941 278.0 L302.1765 277.0588 L303.3529 276.7059 L304.2941 278.4706 L302.4118 278.0 L301.9412 279.1765 L301.3529 280.7059 L299.8235 279.6471 L301.0 280.3529 L299.9412 280.8235 L301.1176 280.8235 L300.2941 282.1176 L300.6471 283.0588 L299.4706 283.7647 L297.9412 282.8235 L297.0 283.0588 L298.5294 282.2353 L297.5882 280.4706 L297.8235 281.7647 L296.2941 282.1176 L296.1765 283.5294 L295.3529 282.1176 L293.9412 280.3529 L294.1765 281.2941 L294.1765 282.4706 L295.1176 283.6471 L294.0588 283.0588 L292.5294 283.2941 L291.8235 284.0 L291.8235 283.0588 L290.8824 283.4118 L289.8235 282.5882 L289.3529 283.7647 L291.9412 284.3529 L293.2353 284.4706 L292.6471 285.7647 L291.9412 287.0588 L290.8824 286.3529 L290.6471 287.4118 L289.5882 287.0588 L288.2941 287.4118 L289.2353 288.1176 L287.7059 287.8824 L285.5882 288.8235 L285.8235 287.8824 L284.4118 288.3529 L283.1176 289.2941 L282.0588 289.1765 L281.3529 290.7059 L282.6471 290.4706 L283.9412 289.1765 L285.0 289.0588 L286.5294 289.2941 L287.7059 288.7059 L289.5882 289.1765 L289.9412 290.1176 L290.6471 289.0588 L290.1765 288.0 L291.2353 287.6471 L292.4118 287.8824 L293.7059 287.0588 L294.0588 287.6471 L294.0588 289.4118 L294.1765 288.2353 L294.0588 287.2941 L294.1765 285.1765 L294.0588 284.1176 L295.0 285.5294 L297.7059 284.4706 L297.2353 286.2353 L298.4118 286.4706 L298.0588 284.9412 L300.5294 285.6471 L301.1176 284.2353 L302.4118 285.4118 L303.3529 285.7647 L302.0588 284.7059 L303.0 284.3529 L302.1765 282.2353 L302.8824 282.0 L302.8824 280.2353 L302.8824 282.4706 L304.2941 284.3529 L303.8235 282.9412 L303.5882 281.7647 L303.7059 280.8235 L304.8824 280.8235 L305.3529 282.2353 L305.8235 281.1765 L306.7647 280.8235 L306.1765 280.5882 L306.1765 279.4118 L307.1176 278.2353 L308.2941 278.3529 L308.2941 280.2353 L308.7647 281.1765 L307.8235 281.5294 L307.0 282.7059 L307.9412 282.1176 L308.2941 284.0 L307.3529 284.3529 L307.2353 285.6471 L308.2941 286.0 L308.0588 285.0588 L309.7059 284.7059 L308.5294 283.7647 L308.7647 282.7059 L308.8824 281.7647 L309.8235 282.9412 L310.8824 283.4118 L310.4118 282.2353 L311.3529 282.5882 L310.7647 281.5294 L309.7059 282.1176 L310.5294 280.9412 L309.5882 281.5294 L309.3529 280.5882 L309.9412 278.8235 L309.4706 277.6471 L308.5294 277.5294 L308.7647 276.3529 L309.8235 276.4706 L311.3529 277.4118 L311.0 278.7059 L311.9412 278.3529 L311.5882 279.6471 L311.8235 280.5882 L312.4118 279.5294 L313.7059 281.0588 L313.9412 283.8824 L312.8824 283.2941 L314.0588 284.3529 L312.1765 284.4706 L313.1176 284.9412 L314.2941 285.0588 L316.1765 293.0588 L315.1176 290.4706 L313.8235 288.7059 L314.1765 289.6471 L314.5294 290.8235 L314.2941 292.2353 L313.5882 290.9412 L312.6471 291.2941 L313.4706 291.7647 L313.4706 292.9412 L312.1765 292.4706 L309.7059 291.7647 L310.0588 290.3529 L311.3529 290.2353 L311.2353 289.0588 L310.0588 290.1176 L310.1765 288.7059 L309.7059 290.5882 L309.1176 288.5882 L308.1765 289.1765 L308.6471 290.1176 L309.1176 292.5882 L307.7059 291.5294 L308.0588 292.7059 L306.6471 292.4706 L305.0 292.9412 L305.9412 293.5294 L304.5294 294.9412 L303.4706 294.2353 L304.2941 295.2941 L303.8235 296.4706 L302.8824 297.4118 L301.8235 297.6471 L303.0 297.6471 L303.5882 298.7059 L303.2353 297.6471 L303.9412 296.7059 L305.2353 297.1765 L304.2941 296.0 L304.7647 294.9412 L306.2941 295.4118 L306.4118 294.3529 L307.1176 293.1765 L309.1176 293.5294 L308.1765 295.4118 L308.7647 294.3529 L309.7059 292.9412 L310.8824 293.1765 L311.2353 294.1176 L309.5882 295.7647 L309.0 296.7059 L310.6471 295.2941 L311.5882 295.5294 L311.4706 294.4706 L312.7647 294.2353 L313.8235 294.2353 L314.7647 293.6471 L316.2941 293.1765 L313.8235 294.4706 L311.3529 297.6471 L299.2353 304.9412 L291.8235 307.5294 L292.1765 306.4706 L292.4118 305.4118 L291.3529 307.1765 L291.0 306.1176 L290.4118 304.7059 L292.0588 303.7647 L291.0 303.1765 L291.3529 301.5294 L290.0588 300.3529 L291.3529 300.1176 L292.1765 299.0588 L290.7647 298.3529 L291.8235 299.2941 L290.2941 299.7647 L289.1176 299.7647 L291.0 301.6471 L290.2941 302.5882 L290.0588 303.7647 L289.1176 303.4118 L290.0588 303.8824 L288.1765 304.1176 L288.1765 305.0588 L290.5294 306.2353 L288.6471 306.2353 L288.8824 306.8235 L289.8235 306.8235 L290.8824 307.5294 L288.0588 308.4706 L287.9412 307.4118 L287.9412 308.5882 L285.9412 309.4118 L286.2941 308.4706 L286.0588 307.4118 L285.1176 306.1176 L285.9412 304.9412 L285.3529 305.8824 L284.0588 306.8235 L285.0 306.8235 L285.2353 307.7647 L284.2941 307.7647 L284.2941 308.8235 L285.9412 309.5294 L283.8235 311.8824 L282.8824 312.4706 L282.4118 310.9412 L282.8824 310.0 L282.5294 309.5294 L282.5294 310.4706 L282.2941 311.5294 L281.2353 312.0 L280.4118 310.8235 L280.6471 311.8824 L281.5882 312.5882 L280.7647 314.1176 L279.7059 313.1765 L277.8235 314.1176 L278.6471 313.0588 L278.6471 310.1176 L276.5294 308.9412 L275.8235 310.1176 L274.6471 308.5882 L275.5882 307.2941 L274.4118 308.1176 L274.4118 306.9412 L273.8235 305.8824 L274.4118 305.6471 L274.4118 303.5294 L273.3529 303.4118 L272.1765 302.1176 L273.2353 303.0588 L273.9412 304.2353 L273.4706 305.5294 L273.7059 307.2941 L272.2941 307.7647 L270.8824 306.7059 L272.6471 308.2353 L274.1765 307.7647 L274.2941 308.9412 L275.5882 310.7059 L274.1765 310.2353 L275.3529 311.1765 L276.7647 310.8235 L277.4706 312.7059 L275.5882 312.3529 L275.9412 313.6471 L275.0 313.2941 L275.2353 314.3529 L273.8235 314.5882 L273.3529 313.1765 L272.8824 314.3529 L271.5882 314.4706 L271.7059 313.1765 L270.7647 312.8235 L270.1765 311.6471 L270.5294 312.8235 L269.4706 312.4706 L269.5882 312.8235 L268.5294 312.8235 L270.1765 313.0588 L271.1176 313.1765 L270.8824 315.0588 L269.7059 314.9412 L269.5882 316.1176 L270.7647 315.5294 L271.9412 315.0588 L272.4118 316.2353 L273.0 314.9412 L273.4706 316.1176 L274.7647 315.4118 L275.9412 315.6471 L273.5882 316.8235 L274.5294 317.4118 L273.9412 318.8235 L275.3529 318.5882 L275.1176 317.2941 L276.4118 317.4118 L277.0 316.3529 L277.4706 316.3529 L277.4706 318.1176 L276.5294 318.1176 L275.4706 319.1765 L274.5294 319.2941 L276.1765 320.0 L271.0 321.4118 L268.5294 322.8235 L264.8824 322.7059 L266.7647 321.4118 L264.8824 321.6471 L264.8824 320.5882 L264.6471 319.6471 L265.7059 320.0 L265.7059 318.5882 L264.7647 317.8824 L266.6471 317.6471 L265.5882 317.4118 L264.6471 317.4118 L264.1765 316.1176 L264.4118 315.1765 L264.8824 314.0 L265.0 312.3529 L264.0588 313.6471 L263.8235 314.7059 L264.2941 315.6471 L262.7647 315.2941 L263.4706 316.3529 L263.3529 317.2941 L264.1765 318.4706 L262.6471 318.8235 L261.8235 317.8824 L260.4118 317.6471 L259.2353 316.8235 L259.9412 317.8824 L260.2941 318.5882 L261.2353 318.5882 L262.5294 319.4118 L262.2941 320.3529 L263.7059 319.6471 L263.3529 321.5294 L261.9412 321.2941 L260.8824 320.1176 L261.2353 321.0588 L261.5882 322.3529 L260.6471 322.7059 L259.7059 322.1176 L258.8824 322.5882 L258.8824 320.7059 L257.3529 320.0 L256.8824 318.8235 L255.3529 317.6471 L256.6471 318.8235 L257.1176 319.8824 L258.5294 321.0588 L258.1765 322.4706 L257.4706 322.7059 L258.4118 322.7059 L258.2941 323.6471 L257.1176 324.2353 L256.1765 324.4706 L257.1176 324.5882 L258.6471 323.4118 L259.8235 323.1765 L259.3529 324.1176 L260.4118 323.2941 L261.3529 323.2941 L262.6471 323.4118 L262.2941 325.5294 L261.3529 326.2353 L260.8824 325.1765 L261.1176 326.3529 L260.1765 325.8824 L260.0588 326.8235 L258.6471 327.5294 L260.2941 327.6471 L261.2353 326.8235 L260.8824 328.0 L260.6471 329.1765 L260.8824 330.5882 L261.3529 329.2941 L261.9412 328.0 L262.5294 326.5882 L263.0 325.5294 L264.4118 325.2941 L264.0588 326.7059 L266.1765 327.0588 L267.2353 326.9412 L265.2353 330.8235 L264.7647 333.5294 L260.4118 336.1176 L257.1176 337.7647 L257.1176 335.5294 L255.8235 335.8824 L255.5882 334.2353 L255.3529 335.1765 L256.1765 336.5882 L257.1176 338.1176 L254.5294 340.2353 L254.7647 339.2941 L254.0588 339.6471 L254.0588 338.5882 L253.5882 339.7647 L252.2941 338.3529 L252.4118 339.2941 L253.4706 339.7647 L254.4118 340.2353 L253.3529 341.6471 L251.3529 341.4118 L251.3529 340.3529 L250.8824 341.7647 L251.0 342.7059 L251.2353 341.5294 L252.6471 342.0 L252.1765 343.0588 L253.3529 341.8824 L253.3529 342.9412 L253.8235 341.6471 L253.2353 345.4118 L251.8235 347.4118 L252.0588 349.2941 L249.1176 350.2353 L247.0 349.6471 L246.8824 348.1176 L248.4118 348.0 L248.4118 344.3529 L247.2353 343.4118 L248.2941 344.0 L248.2941 343.0588 L247.9412 341.1765 L247.7059 339.8824 L246.2941 340.0 L245.9412 339.0588 L246.1765 337.2941 L245.4706 338.3529 L244.0588 338.4706 L243.9412 337.5294 L243.9412 338.8235 L241.2353 338.8235 L242.5294 338.9412 L244.6471 338.8235 L244.2941 339.7647 L245.7059 340.1176 L246.6471 340.7059 L246.8824 341.6471 L246.8824 343.6471 L246.2941 344.8235 L245.1176 344.5882 L245.2353 343.2941 L243.5882 342.9412 L244.8824 344.3529 L243.4706 344.0 L245.0 344.9412 L245.2353 345.6471 L243.5882 345.6471 L245.1176 346.1176 L244.1765 346.5882 L242.7647 349.2941 L241.4706 350.0 L239.4706 351.0588 L238.8824 351.7647 L236.6471 351.7647 L236.2941 349.5294 L233.1176 347.0588 L235.8235 348.9412 L236.6471 347.8824 L235.1176 347.6471 L236.1765 347.1765 L235.5882 345.6471 L237.1176 346.3529 L237.3529 345.2941 L239.3529 344.8235 L237.9412 345.0588 L237.7059 343.7647 L237.5882 344.8235 L236.4118 345.2941 L236.6471 344.3529 L235.0 345.4118 L234.7647 346.7059 L234.4118 345.0588 L234.2941 344.0 L235.7059 343.5294 L235.5882 341.7647 L235.1176 340.3529 L234.4118 339.2941 L233.4706 339.0588 L231.7059 339.5294 L231.2353 337.7647 L232.5294 336.0 L233.0 335.0588 L234.0588 333.4118 L235.2353 333.5294 L236.5294 332.4706 L236.8824 331.4118 L237.8235 331.0588 L236.5294 331.1765 L235.5882 332.7059 L232.6471 334.1176 L231.3529 333.8824 L232.6471 334.5882 L230.7647 336.9412 L230.4118 338.0 L230.5294 338.9412 L229.2353 339.1765 L227.4706 339.5294 L231.1176 339.6471 L231.7059 340.5882 L233.0 340.2353 L233.7059 341.2941 L232.4118 342.2353 L233.9412 341.6471 L232.8824 342.7059 L233.0 344.7059 L230.2941 346.1176 L229.4706 345.0588 L230.1765 346.2353 L229.1176 346.7059 L228.7647 348.1176 L227.8235 348.9412 L226.5294 349.2941 L225.4706 348.1176 L226.5294 350.3529 L225.0 351.4118 L224.7647 350.3529 L223.8235 350.7059 L224.2941 350.3529 L224.2941 351.2941 L223.9412 353.1765 L219.7059 353.7647 L215.4706 352.7059 L213.0 352.5882 L210.2941 353.4118 L209.5882 354.3529 L206.5294 354.7059 L201.8235 358.8235 L201.0 356.4706 L200.0588 356.1176 L199.2353 354.3529 L198.8824 356.1176 L199.5882 356.1176 L199.5882 357.0588 L200.2941 358.3529 L201.3529 359.2941 L199.7059 360.4706 L196.1765 361.0588 L193.7059 362.5882 L192.5294 361.7647 L191.0 361.6471 L189.9412 362.0 L189.4706 363.1765 L188.6471 362.3529 L188.6471 361.2941 L187.7059 360.8235 L186.8824 361.7647 L184.8824 361.1765 L183.7059 360.3529 L182.6471 360.3529 L184.1765 360.4706 L184.2941 361.6471 L186.5294 361.8824 L187.5882 362.2353 L188.1765 363.2941 L189.7059 364.8235 L191.7059 363.1765 L191.8235 364.4706 L191.1176 366.2353 L191.2353 367.2941 L190.1765 367.4118 L190.2941 368.3529 L190.4118 369.6471 L190.6471 371.1765 L189.7059 370.8235 L189.4706 369.8824 L188.4118 370.5882 L189.4706 370.3529 L190.4118 372.0 L191.5882 370.5882 L191.5882 369.6471 L191.7059 368.3529 L191.4706 367.0588 L192.5294 367.7647 L192.7647 369.8824 L191.9412 372.9412 L188.8824 376.5882 L184.8824 376.5882 L183.2353 376.1176 L183.1176 375.4118 L180.2941 375.4118 L182.7647 376.1176 L183.8235 377.0588 L184.0588 377.8824 L185.1176 377.8824 L182.4118 382.2353 L181.4706 381.6471 L181.0 382.9412 L180.4118 384.8235 L178.0588 384.3529 L176.4118 385.7647 L174.6471 386.1176 L174.5294 387.1765 L175.5882 386.9412 L175.3529 388.9412 L175.3529 390.8235 L176.6471 387.4118 L178.0588 387.4118 L178.7647 386.5882 L179.9412 386.5882 L181.4706 387.4118 L181.8235 388.9412 L182.8824 389.6471 L182.5294 391.5294 L183.0 395.2941 L182.6471 397.8824 L178.2941 404.3529 L175.8235 403.5294 L173.4706 399.6471 L171.7059 397.7647 L169.3529 396.9412 L167.3529 397.5294 L164.7647 397.0588 L161.8235 397.1765 L158.1765 392.9412 L154.8824 391.4118 L150.4118 391.2941 L143.9412 389.1765 L139.9412 389.5294 L137.4706 390.9412 L136.0588 395.2941 L134.6471 397.6471 L131.0 400.5882 L131.4706 401.8824 L131.1176 403.2941 L132.0588 403.6471 L130.7647 408.1176 L130.0588 412.7059 L129.4706 413.7647 L130.1765 419.1765 L132.2941 425.1765 L134.0588 426.8235 L133.5882 428.7059 L136.5294 430.4706 L136.8824 432.2353 L135.8235 432.2353 L137.5882 433.5294 L138.0588 436.4706 L141.3529 439.5294 L140.4118 441.4118 L139.9412 443.7647 L140.2941 444.8235 L141.2353 444.3529 L143.2353 446.5882 L151.1176 452.2353 L152.6471 452.2353 L154.0588 448.1176 L152.5294 444.7059 L149.4706 441.2941 L149.9412 440.1176 L151.0 439.7647 L153.4706 441.0588 L152.8824 442.0 L153.9412 443.5294 L154.7647 442.5882 L156.0588 444.4706 L157.5882 444.8235 L157.8235 445.8824 L159.2353 445.7647 L160.5294 446.9412 L161.4706 446.7059 L162.0588 445.4118 L161.0 445.2941 L160.1765 444.3529 L159.1176 444.9412 L157.9412 443.4118 L156.2941 443.4118 L156.7647 442.1176 L156.0588 440.4706 L154.4118 441.2941 L154.5294 440.0 L153.1176 439.0588 L152.1765 439.6471 L151.4706 438.3529 L148.4118 438.3529 L145.0 437.7647 L143.2353 434.1176 L143.9412 435.4118 L145.4706 436.4706 L146.4118 436.0 L146.4118 437.0588 L146.7647 436.0 L145.5882 435.4118 L146.1765 434.2353 L144.5294 433.2941 L143.3529 432.5882 L141.7059 431.7647 L141.3529 430.0 L140.2941 428.7059 L138.4118 422.1176 L139.9412 420.3529 L140.0588 419.4118 L139.1176 418.3529 L140.4118 415.7647 L139.9412 413.7647 L141.4706 411.2941 L139.9412 407.8824 L143.0 400.1176 L148.4118 396.2353 L150.2941 395.6471 L153.5882 396.7059 L155.7059 398.5882 L157.1176 398.9412 L158.5294 400.3529 L162.1765 402.4706 L163.7059 404.5882 L164.1765 406.5882 L167.3529 405.6471 L169.7059 406.0 L172.2941 409.6471 L173.4706 410.0 L178.1765 413.8824 L177.9412 414.9412 L176.2941 414.7059 L175.9412 415.0588 L175.9412 414.1176 L174.6471 413.6471 L175.3529 414.5882 L175.4706 415.5294 L176.6471 415.6471 L177.7059 416.3529 L178.5294 418.8235 L178.0588 420.4706 L178.5294 421.7647 L180.4118 423.1765 L181.1176 424.9412 L180.8824 427.2941 L181.7059 425.0588 L181.2353 422.1176 L180.7647 420.8235 L179.8235 421.0588 L180.0588 419.7647 L180.1765 418.0 L181.0 416.3529 L182.0588 415.4118 L185.1176 409.2941 L185.5882 406.5882 L186.6471 404.0 L187.7059 402.9412 L187.7059 401.2941 L188.2941 396.1176 L189.7059 394.1176 L189.7059 392.7059 L189.1176 391.5294 L191.0 391.5294 L194.4118 389.4118 L193.5882 390.9412 L195.5882 390.3529 L197.1176 390.9412 L195.8235 389.8824 L195.4706 388.8235 L197.4706 387.4118 L198.2941 386.0 L200.5294 385.1765 L201.5882 387.5294 L200.8824 385.1765 L201.4706 384.0 L203.5882 384.0 L201.8235 383.7647 L203.7059 381.4118 L202.5294 382.0 L200.8824 382.9412 L200.6471 384.0 L198.7647 385.1765 L198.0588 381.2941 L198.4118 380.2353 L201.2353 380.0 L206.8824 376.5882 L205.2353 377.7647 L205.1176 380.0 L205.3529 377.8824 L206.7647 376.9412 L207.7059 377.0588 L208.8824 376.1176 L208.4118 377.0588 L209.4706 376.4706 L211.1176 375.0588 L212.4118 375.1765 L219.8235 371.5294 L221.5882 372.2353 L220.7647 374.0 L221.5882 375.2941 L221.4706 372.7059 L223.4706 371.2941 L221.4706 371.8824 L222.0588 370.5882 L223.1176 370.5882 L223.9412 368.3529 L223.2353 367.0588 L224.1765 366.4706 L225.2353 366.4706 L227.0 366.3529 L228.0588 365.4118 L229.1176 366.5882 L229.3529 367.5294 L227.8235 368.2353 L226.5294 368.2353 L226.0588 369.1765 L225.8235 370.7059 L226.4118 369.4118 L227.1176 369.5294 L227.1176 368.4706 L228.2941 368.7059 L229.3529 368.1176 L231.7059 371.6471 L230.7647 371.1765 L231.4706 372.1176 L230.6471 373.2941 L229.7059 373.4118 L228.5294 373.8824 L229.5882 374.4706 L230.6471 374.1176 L232.1765 374.1176 L232.2941 372.3529 L233.2353 372.4706 L233.2353 373.8824 L234.6471 374.9412 L233.7059 375.7647 L231.5882 376.3529 L233.5882 376.0 L233.3529 377.2941 L232.4118 377.6471 L233.8235 377.7647 L233.9412 379.4118 L232.2941 380.7059 L230.5294 380.5882 L231.2353 381.5294 L232.4118 381.1765 L232.8824 382.1176 L232.8824 383.2941 L231.7059 384.8235 L231.8235 386.5882 L232.4118 386.3529 L232.4118 385.1765 L233.7059 384.1176 L234.0588 382.4706 L234.2941 381.2941 L235.5882 381.0588 L235.5882 380.0 L235.9412 379.1765 L237.0 379.1765 L236.0588 379.0588 L235.9412 377.4118 L235.2353 376.3529 L236.1765 375.6471 L236.6471 374.3529 L235.7059 373.1765 L236.0588 371.8824 L233.0 369.6471 L233.4706 367.8824 L236.0588 368.0 L237.1176 369.4118 L237.2353 370.9412 L237.4706 372.8235 L236.8824 373.7647 L238.1765 373.8824 L240.1765 373.5294 L240.1765 374.5882 L239.7059 375.0588 L240.7647 375.0588 L241.1176 374.0 L242.8824 373.2941 L244.6471 374.3529 L244.8824 375.4118 L246.6471 375.6471 L247.5882 376.4706 L248.4118 377.8824 L247.0 378.4706 L246.0588 378.5882 L245.1176 379.8824 L245.7059 379.5294 L246.8824 379.5294 L248.2941 379.4118 L249.3529 379.0588 L249.8235 378.0 L248.7647 376.3529 L248.8824 373.8824 L248.2941 374.9412 L247.1176 374.9412 L246.5294 373.8824 L245.1176 371.2941 L242.7647 370.4706 L241.8235 370.4706 L239.0 369.2941 L239.2353 367.8824 L242.1765 368.0 L245.2353 366.3529 L247.1176 366.1176 L247.1176 366.1176 L248.8824 366.1176 L255.5882 363.7647 L255.2353 364.1176 L257.3529 364.1176 L255.8235 363.6471 L258.7647 361.1765 L261.5882 362.9412 L260.0588 361.8824 L259.0 361.0588 L261.9412 358.0 L262.5294 355.5294 L263.0 355.7647 L263.0 356.9412 L262.5294 358.0 L263.5882 357.0588 L263.8235 358.2353 L264.1765 356.5882 L265.7059 356.7059 L265.3529 358.7059 L266.0588 356.7059 L267.2353 358.3529 L266.5294 356.8235 L268.0588 356.4706 L265.0 355.8824 L265.7059 354.4706 L264.7647 353.6471 L265.2353 354.5882 L263.5882 355.6471 L262.6471 355.4118 L265.0 349.0588 L265.5882 350.0 L265.7059 351.1765 L265.7059 349.0588 L266.7647 349.2941 L265.9412 348.2353 L268.1765 348.2353 L266.4118 347.4118 L265.4706 349.0588 L265.9412 346.1176 L268.0588 347.7647 L269.3529 347.7647 L271.1176 346.9412 L270.2941 348.2353 L270.0588 349.1765 L268.8824 349.7647 L269.4706 350.8235 L268.1765 352.0 L266.5294 353.5294 L267.2353 354.3529 L267.2353 353.4118 L267.9412 354.0 L267.9412 353.0588 L268.5294 353.7647 L268.5294 352.7059 L269.8235 353.1765 L270.8824 353.0588 L269.0 352.2353 L270.4118 351.5294 L272.5294 351.8824 L271.3529 351.1765 L271.3529 349.8824 L273.3529 349.6471 L274.5294 349.2941 L272.2941 348.8235 L275.5882 346.2353 L275.1176 347.5294 L276.8824 347.0588 L276.7647 345.0588 L277.7059 347.4118 L276.5294 349.5294 L275.7059 351.8824 L274.7647 351.7647 L275.0 354.0 L275.4706 352.2353 L276.5294 352.2353 L276.6471 350.7059 L279.5882 351.5294 L277.9412 353.5294 L276.8824 354.4706 L277.8235 354.2353 L279.4706 354.9412 L279.2353 356.0 L280.6471 357.2941 L281.0 358.7059 L280.0588 358.4706 L278.7647 359.0588 L279.2353 360.5882 L277.7059 361.0588 L277.2353 362.0 L275.2353 363.0588 L274.8824 364.0 L274.5294 365.0588 L273.3529 365.6471 L275.0 365.6471 L275.8235 364.4706 L277.7059 365.7647 L276.4118 364.2353 L277.3529 363.1765 L278.6471 363.4118 L278.8824 362.3529 L280.4118 361.8824 L280.1765 359.8824 L282.1765 360.4706 L283.2353 359.2941 L282.6471 358.2353 L282.5294 356.0 L280.7647 353.8824 L281.5882 352.1176 L283.1176 352.0 L282.2941 353.5294 L283.3529 352.4706 L283.5882 354.5882 L283.9412 353.4118 L286.0588 354.8235 L285.4706 353.7647 L287.3529 352.4706 L286.0588 352.7059 L283.9412 352.4706 L283.7059 351.1765 L284.6471 350.4706 L283.3529 351.4118 L281.1176 349.8824 L282.1765 348.9412 L281.8235 346.3529 L283.3529 344.0 L284.5294 341.0588 L284.5294 340.1176 L285.9412 340.3529 L285.4706 341.6471 L286.4118 342.5882 L286.0588 343.7647 L285.0 344.0 L285.1176 344.9412 L284.8824 347.0588 L286.1765 347.8824 L285.8235 345.6471 L286.7647 345.6471 L286.4118 344.3529 L287.8235 343.6471 L287.5882 342.7059 L288.5294 343.0588 L288.1765 344.4706 L288.0588 347.1765 L289.5882 347.0588 L289.2353 345.2941 L288.7647 344.7059 L289.7059 344.7059 L289.1176 343.6471 L290.6471 344.1176 L290.8824 343.0588 L289.1176 343.1765 L289.2353 341.6471 L287.9412 342.2353 L287.1176 340.9412 L288.5294 339.7647 L289.4706 339.5294 L290.1765 340.9412 L291.3529 340.8235 L289.7059 339.5294 L289.9412 337.4118 L291.0 337.5294 L291.3529 338.4706 L290.8824 337.0588 L292.6471 335.4118 L294.1765 331.2941 L296.1765 328.7059 L298.7647 328.7059 L300.4118 328.2353 L299.2353 328.7059 L297.0 329.0588 L295.8235 329.5294 L296.1765 331.1765 L297.1176 329.7647 L298.0588 329.1765 L297.9412 330.5882 L299.0 329.2941 L299.5882 330.2353 L300.7647 330.4706 L298.7647 332.5882 L300.2941 332.2353 L299.9412 338.5882 L298.1765 343.1765 L301.8235 347.2941 L300.8824 349.1765 L300.7647 348.1176 L300.5294 349.4118 L299.8235 350.9412 L298.2941 351.1765 L299.7059 351.1765 L295.8235 356.2353 L294.2941 359.7647 L290.6471 364.8235 L288.4118 372.7059 L288.7647 376.5882 L289.4706 378.0 L292.7647 382.2353 L288.1765 384.4706 L286.7647 383.4118 L284.4118 383.5294 L285.0 387.5294 L290.4118 395.7647 L289.8235 398.9412 L291.3529 401.1765 L288.8824 402.0 L287.8235 402.9412 L285.5882 407.4118 L283.7059 409.1765 L282.1765 411.5294 L279.4706 413.5294 L278.8824 414.5882 L277.3529 417.0588 L276.0588 418.3529 L273.3529 420.9412 L271.0 425.0588 L268.0588 433.7647 L268.2941 446.1176 L269.2353 451.4118 L268.5294 452.3529 L266.5294 459.6471 L265.4706 468.0 L263.3529 466.8235 L261.7059 465.8824 L262.7647 466.2353 L262.8824 467.2941 L264.7647 468.3529 L266.6471 475.2941 L264.0588 476.2353 L263.7059 475.0588 L263.9412 476.2353 L262.5294 477.0588 L261.3529 479.4118 L261.3529 480.4706 L260.2941 480.5882 L261.3529 480.8235 L261.0 482.7059 L260.8824 484.8235 L259.7059 485.0588 L260.2941 488.2353 L260.2941 486.4706 L261.3529 488.7059 L261.4706 489.7647 L260.6471 492.0 L261.8235 489.7647 L260.6471 486.2353 L261.7059 485.2941 L263.0 486.2353 L264.2941 486.4706 L262.7647 487.0588 L263.1176 488.5882 L264.2941 488.2353 L263.9412 487.1765 L265.1176 487.6471 L266.6471 489.0588 L264.7647 488.8235 L264.4118 490.0 L265.1176 489.0588 L266.2941 489.1765 L266.2941 490.4706 L264.5294 491.1765 L266.0588 491.0588 L266.2941 492.0 L266.7647 490.7059 L269.3529 492.2353 L270.0588 493.1765 L269.9412 494.1176 L271.4706 495.2941 L271.7059 496.5882 L272.0588 499.0588 L272.8824 500.7059 L271.7059 503.6471 L271.0 503.1765 L271.0 502.2353 L269.5882 501.8824 L268.5294 502.0 L269.9412 502.4706 L268.8824 503.1765 L267.2353 502.5882 L266.1765 503.0588 L265.4706 500.9412 L266.5294 500.2353 L268.4118 499.2941 L266.2941 499.1765 L267.0 497.6471 L265.9412 498.1176 L265.4706 499.0588 L264.5294 499.4118 L263.3529 498.9412 L263.7059 498.0 L262.7647 497.7647 L262.2941 498.8235 L262.1765 499.8824 L263.3529 499.4118 L261.9412 501.4118 L263.2353 501.1765 L263.8235 500.2353 L264.6471 501.6471 L263.7059 502.7059 L263.4706 503.8824 L264.7647 502.5882 L264.7647 504.8235 L263.5882 504.7059 L263.7059 505.7647 L265.2353 505.7647 L264.7647 507.1765 L265.8235 505.7647 L267.0 506.4706 L266.4118 508.0 L267.2353 505.6471 L267.8235 507.0588 L266.6471 508.4706 L267.0 510.0 L265.7059 509.2941 L264.7647 509.7647 L264.1765 508.7059 L263.4706 509.6471 L263.1176 508.4706 L262.1765 508.4706 L261.8235 510.1176 L262.1765 509.0588 L263.5882 510.1176 L264.4118 511.2941 L265.5882 512.0 L266.5294 511.1765 L267.9412 510.8235 L268.1765 509.8824 L268.7647 511.2941 L269.2353 509.8824 L268.1765 508.8235 L269.4706 507.1765 L272.6471 510.7059 L272.5294 512.0 L382.5294 512.0 L382.5294 512.0 L294.2941 512.0 L294.4118 510.5882 L295.7059 511.0588 L294.4118 510.4706 L294.1765 507.4118 L292.4118 502.7059 L292.4118 500.5882 L293.7059 500.0 L294.5294 503.1765 L296.5294 504.4706 L298.1765 504.2353 L297.5882 506.0 L297.8235 508.1176 L298.1765 505.7647 L298.5294 506.9412 L298.4118 504.8235 L300.0588 506.1176 L298.8824 512.0 L298.4118 510.9412 L298.4118 512.0 L322.8824 512.0 L321.4706 504.0 L323.0 502.1176 L323.3529 499.4118 L325.0 498.8235 L324.0588 498.4706 L323.7059 497.2941 L322.7647 494.8235 L322.5294 492.4706 L323.5882 492.1176 L323.1176 493.5294 L324.0588 493.4118 L325.1176 494.1176 L325.4706 495.1765 L327.2353 495.4118 L328.0588 497.0588 L329.2353 498.0 L328.5294 497.0588 L328.2941 495.7647 L327.3529 495.2941 L328.4118 494.8235 L325.4706 494.0 L325.8235 492.8235 L323.8235 491.0588 L325.0 490.5882 L324.8824 488.4706 L325.8235 488.7059 L327.0 490.5882 L327.9412 490.9412 L328.8824 491.0588 L330.1765 491.5294 L328.4118 490.7059 L326.5294 489.1765 L327.7059 487.5294 L328.8824 488.3529 L327.7059 486.5882 L330.5294 487.0588 L330.8824 488.1176 L331.9412 489.0588 L331.9412 490.0 L333.4706 491.0588 L334.4118 490.3529 L335.5882 491.4118 L334.8824 491.8824 L334.8824 494.0 L334.8824 496.8235 L334.0588 498.2353 L335.1176 497.7647 L336.5294 498.9412 L338.0588 501.1765 L339.5882 502.9412 L339.0 501.7647 L337.8235 500.8235 L337.0 499.1765 L335.3529 497.5294 L335.7059 495.5294 L336.7647 496.0 L335.7059 495.1765 L335.3529 493.8824 L336.0588 492.3529 L337.4706 493.4118 L337.4706 494.3529 L338.5294 494.5882 L340.2941 494.7059 L337.5882 493.1765 L336.2941 491.5294 L341.0 491.1765 L338.5294 490.7059 L337.3529 490.7059 L336.1765 490.3529 L334.7647 489.6471 L335.8235 489.0588 L335.2353 487.7647 L334.4118 489.1765 L333.4706 489.1765 L334.0588 487.8824 L333.2353 488.8235 L332.1765 487.8824 L332.5294 486.5882 L331.2353 486.0 L331.8235 485.0588 L331.1176 485.8824 L330.1765 485.8824 L330.1765 484.4706 L328.8824 484.4706 L328.5294 483.2941 L329.9412 483.5294 L328.5294 482.9412 L327.0 481.1765 L326.8824 480.2353 L327.9412 479.4118 L326.1765 479.5294 L326.7647 480.8235 L325.0 482.8235 L324.7647 484.8235 L323.7059 485.2941 L322.7647 486.4706 L322.4118 484.8235 L321.5882 486.2353 L321.2353 487.6471 L319.7059 489.0588 L318.6471 488.8235 L318.6471 490.1176 L320.0588 490.9412 L319.1176 491.1765 L319.0 492.1176 L318.5294 493.2941 L319.9412 492.2353 L317.8235 496.2353 L317.5882 495.0588 L317.0 496.3529 L315.9412 496.3529 L316.4118 495.4118 L315.1176 494.7059 L314.4118 495.6471 L314.1765 497.0588 L313.9412 498.5882 L313.0 499.0588 L313.1176 498.0 L311.8235 497.8824 L311.7059 499.0588 L312.8824 499.7647 L312.6471 500.9412 L311.4706 501.1765 L311.1176 499.2941 L310.7647 500.2353 L310.5294 501.7647 L311.2353 501.6471 L311.2353 503.4118 L313.5882 504.5882 L313.3529 505.6471 L308.8824 501.0588 L309.3529 498.8235 L308.2941 498.7059 L307.5882 497.5294 L306.2941 497.6471 L305.0 496.8235 L304.0588 495.4118 L303.7059 491.2941 L302.1765 489.1765 L302.2941 488.2353 L301.5882 486.1176 L300.4118 486.3529 L301.0 484.7059 L300.7647 483.7647 L300.2941 482.5882 L299.8235 483.5294 L298.5294 482.1176 L298.4118 477.0588 L298.8824 476.0 L299.5882 477.8824 L299.4706 476.4706 L299.4706 474.4706 L298.5294 474.5882 L297.7059 471.2941 L298.0588 469.7647 L297.4706 468.1176 L297.8235 465.1765 L298.6471 463.5294 L298.5294 465.7647 L298.0588 465.7647 L298.0588 467.0588 L299.2353 466.3529 L299.1176 467.5294 L300.1765 466.0 L301.3529 465.4118 L301.5882 467.5294 L300.6471 468.1176 L299.4706 470.5882 L299.8235 472.1176 L300.5294 473.4118 L300.5294 474.4706 L302.1765 476.9412 L303.1176 476.8235 L302.8824 478.2353 L301.9412 477.8824 L300.8824 478.1176 L301.0 479.6471 L301.9412 479.4118 L301.9412 480.7059 L302.4118 479.6471 L303.0 482.2353 L302.2941 483.1765 L302.0588 485.0588 L303.0 485.0588 L303.1176 487.4118 L304.1765 485.8824 L305.3529 485.0588 L306.0588 486.1176 L304.7647 487.6471 L305.4706 486.7059 L306.8824 486.4706 L305.5882 488.1176 L305.3529 489.2941 L305.3529 490.4706 L305.9412 488.8235 L307.0 487.5294 L307.0 488.5882 L307.3529 488.5882 L307.3529 489.8824 L307.7059 488.3529 L308.2941 489.4118 L308.0588 488.3529 L307.7059 487.2941 L307.8235 486.2353 L309.2353 486.8235 L309.3529 488.4706 L309.4706 490.9412 L308.5294 492.1176 L307.4706 492.0 L307.0 495.0588 L307.7059 494.0 L307.9412 492.4706 L308.8824 492.7059 L310.2941 490.7059 L310.2941 492.0 L311.2353 492.3529 L310.4118 494.1176 L312.1765 494.5882 L312.0588 495.6471 L312.7647 494.7059 L311.2353 493.4118 L311.5882 492.4706 L310.7647 490.0 L311.0 488.2353 L310.1765 486.9412 L310.5294 486.0 L309.3529 485.2941 L308.1765 484.8235 L306.4118 484.0 L305.4706 482.2353 L305.8235 480.7059 L305.9412 478.1176 L306.2941 477.8824 L306.2941 476.8235 L306.0588 475.5294 L305.5882 474.2353 L306.5294 475.2941 L307.3529 474.2353 L308.4118 473.5294 L310.2941 472.0 L310.2941 473.7647 L309.4706 473.5294 L309.4706 474.9412 L307.9412 475.6471 L307.0 476.7059 L308.4118 477.0588 L308.7647 476.3529 L308.7647 477.4118 L309.2353 476.2353 L310.4118 475.4118 L311.0 476.5882 L310.2941 477.6471 L311.5882 476.5882 L313.1176 477.8824 L312.6471 479.1765 L311.3529 478.0 L310.4118 478.2353 L308.8824 478.9412 L307.5882 478.1176 L308.4118 479.5294 L307.9412 480.5882 L306.8824 480.5882 L307.1176 482.9412 L307.7059 481.0588 L308.6471 480.8235 L308.7647 481.8824 L309.0 480.1176 L309.9412 483.0588 L309.7059 479.6471 L310.2941 480.9412 L311.1176 479.7647 L311.3529 480.7059 L312.2941 482.0 L311.1176 482.7059 L310.7647 483.8824 L313.2353 482.8235 L313.4706 481.6471 L313.0 480.8235 L314.8824 480.8235 L314.5294 482.3529 L314.2941 483.5294 L312.0588 484.5882 L311.8235 486.2353 L311.8235 487.7647 L312.1765 488.8235 L312.6471 492.0 L313.3529 490.5882 L314.8824 492.2353 L315.5882 493.5294 L315.7059 491.6471 L314.1765 490.9412 L314.0588 490.0 L313.0 489.6471 L312.7647 488.7059 L312.7647 487.7647 L314.5294 488.5882 L313.1176 486.5882 L314.1765 486.0 L314.0588 484.9412 L315.5882 485.0588 L316.5294 483.7647 L317.2353 485.5294 L315.4706 485.6471 L316.8824 485.8824 L316.4118 487.5294 L317.5882 487.4118 L317.8235 485.5294 L318.8824 486.5882 L319.9412 485.6471 L318.7647 485.4118 L319.3529 483.8824 L318.6471 484.8235 L317.5882 483.7647 L318.7647 482.5882 L318.4118 481.0588 L319.7059 480.3529 L320.2941 479.2941 L320.2941 481.7647 L321.4706 479.6471 L322.6471 478.0 L322.5294 480.3529 L321.7059 481.7647 L322.6471 482.1176 L322.2941 481.0588 L323.0 479.7647 L323.2353 480.9412 L324.2941 480.4706 L323.9412 479.1765 L323.8235 476.5882 L323.9412 478.2353 L325.3529 478.8235 L324.4118 477.8824 L324.7647 476.0 L325.3529 476.9412 L324.7647 475.1765 L323.4706 475.5294 L322.1765 476.2353 L321.8235 475.0588 L321.5882 476.3529 L319.5882 476.0 L319.5882 475.0588 L318.7647 476.0 L318.4118 477.1765 L317.4706 478.5882 L316.0588 478.0 L317.1176 476.9412 L317.2353 475.0588 L316.2941 475.1765 L315.8235 474.0 L315.9412 472.7059 L316.6471 471.4118 L317.9412 469.5294 L317.9412 472.3529 L317.7059 473.5294 L319.5882 471.7647 L320.2941 473.0588 L320.7647 471.5294 L322.2941 471.0588 L322.0588 472.9412 L322.5294 471.6471 L322.6471 469.8824 L321.7059 470.0 L320.5294 470.4706 L319.5882 470.7059 L320.4118 469.5294 L319.3529 469.7647 L320.4118 468.1176 L319.9412 467.1765 L320.4118 466.0 L322.2941 463.8824 L314.0588 453.4118 L314.0588 450.9412 L312.7647 451.1765 L313.0 449.8824 L312.0588 451.8824 L311.7059 450.2353 L310.6471 450.2353 L309.1176 450.8235 L309.2353 451.8824 L307.8235 453.7647 L309.0 450.5882 L309.8235 448.5882 L312.2941 449.0588 L311.9412 448.1176 L311.4706 447.0588 L310.1765 446.1176 L311.3529 446.4706 L311.9412 445.5294 L311.0 445.6471 L311.0 444.4706 L309.2353 443.4118 L308.6471 441.2941 L308.1765 442.5882 L307.1176 443.1765 L307.3529 444.2353 L306.0588 443.0588 L304.5294 442.1176 L305.5882 441.4118 L307.3529 441.0588 L309.0 439.0588 L309.7059 437.2941 L309.4706 435.8824 L310.7647 436.1176 L311.1176 437.0588 L310.1765 437.4118 L309.9412 438.4706 L309.5882 440.1176 L310.5294 440.5882 L310.2941 441.8824 L310.2941 443.0588 L311.2353 442.2353 L310.8824 439.6471 L311.7059 439.4118 L311.7059 437.7647 L312.0588 436.5882 L313.0 436.5882 L313.1176 435.1765 L314.1765 434.7059 L313.9412 436.1176 L314.0588 437.4118 L312.8824 437.4118 L314.0588 438.3529 L313.8235 439.1765 L312.8824 439.1765 L312.4118 440.2353 L313.4706 440.0 L314.4118 441.0588 L313.4706 441.6471 L313.5882 442.7059 L314.5294 442.4706 L313.2353 446.7059 L313.9412 445.7647 L315.4706 446.2353 L315.2353 447.5294 L315.9412 448.4706 L317.2353 447.6471 L316.0588 447.8824 L316.2941 446.9412 L315.7059 445.7647 L314.4118 445.2941 L315.3529 443.8824 L315.0 441.2941 L316.1765 441.0588 L314.6471 440.0 L314.7647 436.5882 L315.2353 436.9412 L315.2353 439.4118 L316.1765 439.8824 L315.8235 438.9412 L315.9412 437.2941 L315.3529 436.2353 L316.2941 436.7059 L317.4706 437.2941 L318.7647 437.2941 L318.6471 438.3529 L318.1765 439.8824 L319.3529 440.1176 L318.5294 441.2941 L317.1176 441.2941 L317.3529 442.3529 L317.0 443.5294 L317.8235 444.1176 L319.0 444.1176 L319.0 445.6471 L319.9412 445.6471 L319.2353 443.8824 L317.9412 443.2941 L318.2941 442.3529 L317.9412 442.1176 L319.3529 442.1176 L319.3529 441.1765 L320.6471 440.7059 L321.1176 441.1765 L321.1176 442.3529 L321.5882 442.2353 L321.5882 443.1765 L322.0588 443.0588 L322.0588 446.2353 L322.4118 444.4706 L321.5882 441.0588 L320.8824 439.0588 L321.8235 439.6471 L323.1176 439.5294 L323.3529 440.7059 L323.5882 439.6471 L324.6471 440.0 L325.1176 441.0588 L326.1765 441.7647 L326.0588 442.7059 L325.1176 443.8824 L325.2353 445.6471 L325.5882 444.4706 L326.4118 442.5882 L327.8235 444.1176 L328.0588 442.9412 L329.1176 442.4706 L331.0 442.5882 L328.8824 442.0 L327.5882 442.4706 L326.4118 439.8824 L327.3529 439.5294 L327.5882 438.2353 L327.0 439.1765 L325.9412 436.4706 L325.3529 438.5882 L324.2941 438.2353 L323.0 437.6471 L321.5882 437.6471 L320.1765 436.4706 L321.9412 435.1765 L321.4706 434.0 L322.4118 433.8824 L322.7647 432.8235 L324.5294 433.0588 L326.2941 432.7059 L325.5882 433.7647 L326.5294 433.1765 L326.4118 434.1176 L327.7059 433.1765 L328.1765 434.4706 L328.0588 433.5294 L329.2353 433.6471 L330.2941 433.6471 L330.4118 434.5882 L331.1176 433.4118 L331.7059 433.8824 L331.7059 435.1765 L333.5882 435.2941 L335.0 436.7059 L333.8235 434.9412 L331.9412 434.7059 L332.0588 433.4118 L332.1765 432.4706 L333.3529 432.9412 L334.6471 432.1176 L335.7059 432.3529 L334.5294 431.6471 L332.7647 432.5882 L332.4118 430.1176 L331.8235 431.2941 L331.7059 433.1765 L329.7059 432.5882 L330.1765 430.9412 L329.3529 433.2941 L328.4118 432.4706 L326.8824 432.7059 L326.4118 431.4118 L327.9412 431.1765 L326.6471 429.7647 L326.6471 428.8235 L327.2353 427.7647 L328.5294 427.6471 L329.9412 426.5882 L328.8824 426.9412 L326.7647 427.0588 L326.4118 428.0 L325.2353 427.4118 L326.2941 428.4706 L326.2941 430.7059 L325.8235 432.1176 L323.7059 431.4118 L324.0588 430.4706 L323.3529 431.6471 L321.9412 431.1765 L321.7059 432.7059 L320.5294 432.4706 L319.5882 434.7059 L318.6471 434.8235 L319.1176 433.0588 L320.2941 431.7647 L319.9412 430.4706 L320.6471 429.0588 L318.8824 428.8235 L318.6471 427.7647 L318.1765 430.0 L317.8235 431.5294 L316.8824 431.8824 L316.0588 430.8235 L316.1765 427.2941 L314.8824 429.8824 L315.2353 430.9412 L314.2941 431.1765 L311.8235 426.9412 L313.0 424.4706 L312.0588 424.2353 L311.3529 425.5294 L309.8235 424.9412 L308.2941 422.7059 L307.2353 419.5294 L308.1765 417.7647 L306.6471 418.2353 L306.5294 419.5294 L305.5882 419.6471 L304.4118 421.7647 L305.8235 420.1176 L306.7647 420.4706 L306.5294 421.4118 L306.8824 422.9412 L307.0 421.6471 L308.5294 425.0588 L307.3529 424.9412 L307.1176 425.8824 L307.8235 426.8235 L305.3529 426.3529 L303.5882 425.4118 L303.5882 424.3529 L302.5294 425.5294 L300.5294 425.8824 L301.4706 424.2353 L301.1176 422.0 L299.8235 423.2941 L299.7059 422.1176 L300.1765 420.2353 L301.8235 417.5294 L303.1176 416.5882 L303.3529 415.2941 L305.0 413.5294 L306.7647 409.7647 L308.4118 407.8824 L309.0 405.4118 L308.4118 402.4706 L309.2353 400.4706 L310.1765 398.9412 L312.6471 397.1765 L313.5882 396.9412 L314.8824 394.2353 L316.2941 392.5882 L317.8235 393.6471 L316.8824 396.7059 L317.1176 399.4118 L318.0588 400.1176 L317.0 402.2353 L317.5882 403.1765 L318.6471 403.0588 L319.7059 402.0 L320.2941 399.6471 L320.0588 398.3529 L319.4706 396.5882 L320.7647 396.8235 L321.9412 397.8824 L323.2353 396.2353 L325.4706 395.1765 L327.5882 391.4118 L327.3529 390.4706 L328.1765 389.4118 L329.5882 387.2941 L328.0588 387.1765 L327.3529 388.1176 L328.6471 385.8824 L329.7059 385.7647 L331.8235 384.7059 L334.2941 384.3529 L334.1765 382.8235 L332.8824 382.4706 L332.8824 380.7059 L331.2353 379.0588 L331.2353 376.3529 L328.6471 376.3529 L331.3529 376.2353 L337.2353 376.3529 L331.3529 376.3529 L331.5882 377.5294 L333.1176 378.3529 L335.7059 378.2353 L334.2941 379.5294 L334.4118 382.8235 L335.8235 382.1176 L336.6471 383.5294 L337.5882 382.0 L338.6471 381.6471 L337.0 380.7059 L337.8235 379.5294 L339.5882 380.7059 L340.1765 379.4118 L339.8235 378.3529 L341.1176 378.2353 L342.8824 378.2353 L342.0588 376.4706 L343.0 376.5882 L343.3529 375.2941 L341.7059 374.0 L340.6471 374.2353 L339.5882 373.1765 L338.6471 373.8824 L339.7059 372.3529 L343.9412 372.0 L344.6471 369.8824 L346.8824 366.7059 L351.0 364.3529 L350.5294 367.5294 L349.2353 370.0 L349.1176 371.2941 L350.1765 375.4118 L350.0588 376.3529 L351.2353 377.0588 L352.0588 378.3529 L351.4706 379.8824 L348.1765 383.2941 L346.4118 383.5294 L347.8235 384.3529 L349.4706 387.1765 L353.7059 389.6471 L354.6471 393.7647 L355.5882 394.4706 L354.7647 395.5294 L356.4118 398.7059 L357.7059 397.7647 L361.2353 396.9412 L363.3529 390.8235 L363.1176 388.8235 L363.0 387.7647 L360.6471 385.8824 L353.7059 384.5882 L355.2353 383.1765 L359.5882 376.5882 L359.5882 376.5882 L359.5882 374.9412 L363.1176 372.0 L363.8235 370.3529 L363.7059 369.0588 L363.2353 370.3529 L361.9412 368.0 L365.4706 368.8235 L366.7647 370.8235 L367.5882 370.8235 L372.5294 370.8235 L374.4118 366.9412 L376.6471 366.9412 L375.7059 369.1765 L376.8824 370.4706 L376.6471 371.6471 L377.9412 372.5882 L378.8824 373.1765 L379.1176 371.7647 L378.6471 370.1176 L380.6471 367.7647 L380.6471 366.8235 L382.2941 366.3529 L382.5294 366.4706 L382.5294 362.3529 L379.9412 360.7059 L377.0 360.3529 L377.5882 358.0 L376.0588 361.4118 L372.6471 360.1176 L369.9412 358.4706 L371.9412 358.4706 L371.0 358.0 L370.7647 357.0588 L369.7059 356.4706 L369.7059 358.3529 L367.4706 358.2353 L365.0 355.6471 L365.7059 354.0 L366.2941 353.8824 L366.2941 355.1765 L366.4118 354.1176 L367.3529 353.8824 L369.0 352.5882 L368.1765 350.8235 L367.9412 352.1176 L367.4706 351.7647 L367.4706 350.5882 L368.2941 349.4118 L369.7059 350.0 L371.1176 348.8235 L371.5882 349.8824 L371.8235 348.9412 L372.6471 350.4706 L372.4118 349.1765 L372.7647 346.9412 L373.8235 347.4118 L372.8824 347.4118 L374.8824 349.2941 L376.0588 349.2941 L375.9412 350.3529 L377.0 350.4706 L377.3529 348.8235 L378.5294 347.4118 L377.5882 347.2941 L379.2353 346.2353 L378.7647 347.8824 L380.7647 347.5294 L381.8235 347.8824 L382.1765 350.0 L381.3529 352.2353 L381.4706 354.0 L382.1765 353.0588 L381.9412 352.1176 L382.5294 350.7059 L382.5294 349.0588 L382.5294 348.4706 L382.5294 338.7059 L382.5294 339.4118 L382.5294 340.7059 L381.4706 339.8824 L381.2353 338.5882 L380.0588 337.5294 L381.2353 337.2941 L381.4706 335.8824 L382.5294 336.5882 L381.4706 334.9412 L380.6471 333.7647 L381.7059 332.1176 L382.5294 331.8824 L382.5294 318.1176 L381.9412 316.3529 L382.1765 315.2941 L381.7059 314.2353 L380.7647 314.7059 L381.4706 313.6471 L380.4118 313.5294 L380.5294 311.0588 L379.5882 309.5294 L380.2941 308.1176 L381.4706 308.2353 L382.4118 309.2941 L382.1765 307.4118 L381.1176 307.7647 L381.0 306.5882 L380.4118 305.6471 L381.3529 305.7647 L381.9412 304.3529 L381.3529 303.0588 L382.5294 303.4118 L382.5294 304.0 L382.5294 248.9412 L382.0588 246.9412 L382.5294 246.9412 L382.5294 244.8235 L380.2941 245.0588 L377.3529 242.9412 L378.2941 243.4118 L379.1176 242.2353 L380.5294 242.3529 L379.2353 241.4118 L379.8235 240.2353 L378.1765 241.8824 L376.1765 241.7647 L376.2941 240.3529 L375.3529 239.4118 L376.5294 239.5294 L375.3529 238.8235 L375.4706 237.8824 L376.5294 238.5882 L377.2353 237.5294 L378.0588 238.5882 L377.9412 237.5294 L376.6471 237.1765 L376.8824 234.7059 L378.7647 235.4118 L379.5882 236.8235 L380.8824 236.0 L381.1176 236.9412 L382.4118 236.4706 L382.5294 237.2941 L382.5294 236.2353 L381.7059 235.1765 L382.1765 234.2353 L381.4706 235.2941 L380.0588 234.9412 L379.5882 233.6471 L380.7647 232.4706 L379.3529 233.1765 L377.9412 233.4118 L378.0588 231.7647 L379.4706 229.1765 L378.1765 231.0588 L377.1176 231.1765 L375.1176 231.2941 L374.1765 232.3529 L373.8235 233.6471 L373.8235 234.8235 L372.1765 234.4706 L373.1176 236.0 L369.5882 229.4118 L370.6471 229.6471 L371.8235 229.8824 L369.9412 228.7059 L372.5294 229.5294 L374.0588 229.4118 L372.6471 229.1765 L371.8235 228.2353 L372.7647 227.7647 L373.4706 226.0 L374.6471 225.0588 L376.2941 225.4118 L375.3529 225.1765 L374.7647 224.1176 L373.1176 224.5882 L372.0588 225.7647 L370.8824 226.4706 L368.8824 226.0 L367.5882 224.2353 L366.8824 221.2941 L367.4706 220.8235 L367.4706 221.7647 L369.3529 221.1765 L369.1176 222.5882 L370.1765 222.5882 L370.4118 220.8235 L371.5882 221.1765 L373.3529 221.8824 L374.4118 222.0 L375.4706 220.4706 L377.3529 219.8824 L379.1176 220.2353 L379.7059 221.4118 L379.8235 220.0 L381.2353 220.2353 L382.5294 220.7059 L382.5294 219.7647 L380.5294 219.1765 L377.8235 219.5294 L376.8824 218.4706 L375.2353 218.8235 L374.4118 220.0 L372.7647 219.6471 L370.1765 219.1765 L369.7059 219.8824 L368.6471 219.8824 L368.0588 218.8235 L368.5294 217.8824 L368.8824 216.2353 L367.4706 217.8824 L366.8824 216.0 L365.3529 213.5294 L364.0588 209.1765 L363.1176 203.6471 L364.7647 203.4118 L364.8824 205.4118 L364.7647 204.0 L366.4118 203.7647 L366.0588 204.7059 L366.6471 205.0588 L367.5882 205.0588 L367.8235 206.0 L366.5294 205.8824 L367.0 207.0588 L368.2941 206.9412 L368.1765 206.0 L370.0588 206.3529 L370.0588 207.6471 L371.3529 207.7647 L371.3529 208.8235 L370.4118 209.0588 L371.0 210.0 L372.0588 209.0588 L373.0 209.8824 L372.8824 211.5294 L373.5882 212.7059 L374.5294 212.9412 L374.8824 213.8824 L375.1176 212.5882 L374.1765 212.3529 L373.1176 210.5882 L374.2941 209.8824 L374.0588 208.8235 L375.3529 207.6471 L376.2941 208.3529 L375.7059 207.4118 L374.1765 207.7647 L372.1765 207.7647 L370.4118 205.1765 L372.7647 206.1176 L374.6471 204.8235 L375.9412 204.3529 L375.0 204.9412 L373.7059 205.1765 L372.6471 205.1765 L371.2353 204.3529 L369.3529 204.8235 L368.1765 204.3529 L367.5882 202.9412 L367.7059 201.6471 L368.8824 201.1765 L369.9412 200.2353 L372.6471 199.7647 L371.0 200.0 L369.5882 200.1176 L367.9412 200.0 L366.8824 200.5882 L366.0588 199.5294 L367.1176 201.5294 L366.6471 202.7059 L365.4706 201.7647 L363.8235 201.8824 L362.8824 200.9412 L362.0588 198.5882 L364.0588 197.6471 L362.8824 197.4118 L362.8824 196.0 L362.0588 198.3529 L360.5294 195.6471 L359.5882 192.3529 L360.0588 193.5294 L359.7059 190.5882 L360.1765 187.6471 L360.2941 189.4118 L360.1765 190.9412 L360.6471 191.8824 L361.2353 189.8824 L361.8235 191.2941 L363.5882 192.8235 L365.1176 193.1765 L365.5882 194.2353 L366.6471 194.5882 L367.5882 195.5294 L367.3529 194.4706 L365.0 192.7059 L366.0588 191.4118 L367.5882 192.0 L368.8824 192.1176 L367.3529 191.5294 L368.2941 190.9412 L367.3529 190.4706 L366.4118 190.3529 L363.9412 191.4118 L363.5882 190.3529 L364.7647 190.3529 L361.8235 188.9412 L362.2941 187.2941 L362.2941 186.1176 L363.7059 185.6471 L365.8235 184.7059 L366.8824 185.7647 L366.0588 184.7059 L367.5882 184.4706 L367.2353 183.1765 L366.1765 183.5294 L366.2941 182.5882 L365.5882 184.4706 L364.1765 184.7059 L363.2353 184.7059 L361.1176 184.9412 L362.4118 183.8824 L361.4706 184.0 L360.2941 183.4118 L359.1176 183.2941 L359.2353 181.1765 L359.9412 179.6471 L361.5882 179.4118 L360.5294 177.6471 L360.7647 179.0588 L359.8235 178.2353 L359.3529 180.3529 L354.1765 171.6471 L353.1176 166.2353 L353.1176 165.1765 L353.4706 166.4706 L354.4118 168.0 L355.5882 168.2353 L355.9412 169.2941 L357.0 169.1765 L356.6471 170.3529 L357.5882 170.4706 L357.9412 172.8235 L358.7647 171.8824 L360.6471 172.1176 L358.5294 170.9412 L360.2941 169.4118 L361.3529 169.5294 L360.1765 168.8235 L359.0 168.3529 L359.0 167.7647 L357.7059 167.7647 L358.1765 166.3529 L357.7059 167.2941 L356.2941 167.1765 L356.4118 165.4118 L357.7059 164.8235 L356.5294 165.2941 L355.1176 165.4118 L354.0588 163.4118 L354.1765 162.1176 L355.3529 161.8824 L356.7647 161.2941 L358.1765 161.0588 L359.4706 162.1176 L358.4118 161.2941 L359.3529 160.3529 L357.3529 161.1765 L356.1765 161.1765 L355.2353 160.3529 L355.2353 161.5294 L353.0 159.7647 L352.4118 158.4706 L354.2941 158.1176 L352.2941 157.5294 L352.6471 155.5294 L354.1765 152.1176 L354.6471 153.4118 L354.7647 152.1176 L356.4118 151.5294 L357.3529 153.7647 L357.1176 155.4118 L358.0588 156.5882 L358.6471 155.6471 L357.5882 154.2353 L359.2353 153.8824 L357.8235 153.2941 L357.9412 151.7647 L359.9412 151.4118 L358.2941 151.7647 L357.8235 150.5882 L359.0 150.1176 L357.9412 149.8824 L356.8824 150.7059 L355.2353 150.3529 L354.5294 145.4118 L355.2353 143.5294 L358.1765 139.6471 L358.8824 137.7647 L358.7647 136.5882 L359.8235 136.3529 L360.4118 135.4118 L362.0588 128.1176 L362.0588 126.2353 L366.8824 130.0 L365.9412 130.4706 L365.1176 132.7059 L366.4118 132.1176 L366.2941 135.5294 L366.4118 136.8235 L366.4118 138.5882 L367.2353 141.4118 L367.0 142.5882 L366.8824 143.8824 L367.5882 145.2941 L367.5882 142.4706 L367.7059 150.4706 L368.0588 151.4118 L367.5882 153.4118 L368.5294 154.2353 L369.4706 160.9412 L370.5294 162.3529 L369.3529 162.8235 L370.6471 163.5294 L370.7647 165.5294 L371.3529 168.5882 L372.1765 170.4706 L372.6471 172.2353 L371.4706 172.9412 L373.2353 172.9412 L374.2941 174.3529 L373.8235 175.4118 L372.5294 176.9412 L374.2941 176.7059 L374.8824 178.4706 L377.7059 183.7647 L377.5882 184.7059 L377.7059 186.3529 L378.4118 185.8824 L378.4118 184.8235 L379.3529 187.2941 L380.7647 187.0588 L380.2941 188.2353 L381.2353 190.2353 L380.0588 190.4706 L380.7647 192.3529 L381.0 191.0588 L381.9412 191.1765 L382.5294 192.0 L382.5294 194.1176 L382.4118 195.0588 L382.5294 195.5294 L382.5294 196.5882 L382.5294 196.7059 L382.5294 512.0 L382.5294 0.0 L380.2941 0.0 L377.7059 15.0588 L374.7647 24.2353 L370.5294 34.0 L367.5882 43.5294 L367.0 45.0588 L365.0 51.6471 L362.0588 64.5882 L361.4706 63.2941 L361.7059 64.4706 L359.8235 75.1765 L357.9412 83.6471 L355.3529 85.8824 L351.8235 86.5882 L349.7059 86.2353 L346.6471 83.4118 L342.0588 82.2353 L341.2353 81.2941 L342.8824 80.5882 L344.0588 80.9412 L347.2353 81.4118 L347.1176 82.3529 L347.3529 81.2941 L348.6471 82.1176 L350.2941 81.7647 L351.7059 80.9412 L353.3529 78.7059 L353.9412 77.2941 L356.4118 76.4706 L358.2941 76.7059 L356.5294 76.3529 L358.2941 75.7647 L358.7647 74.2353 L357.8235 74.4706 L357.2353 75.8824 L355.2353 76.7059 L355.2353 75.1765 L355.3529 73.6471 L356.4118 73.8824 L357.0 74.1176 L357.0 73.0588 L357.3529 71.8824 L359.3529 70.7059 L357.5882 71.1765 L356.6471 71.1765 L356.7647 72.3529 L355.5882 72.7059 L354.5294 72.9412 L355.5882 72.3529 L355.0 71.4118 L355.9412 71.4118 L356.0588 70.2353 L354.6471 69.5294 L355.1176 70.8235 L353.5882 70.9412 L354.4118 72.2353 L353.9412 73.4118 L353.9412 74.5882 L354.5294 73.6471 L354.5294 75.1765 L353.3529 74.9412 L354.2941 75.6471 L354.1765 76.8235 L353.2353 76.7059 L352.2941 77.4118 L350.0588 78.3529 L350.8824 75.4118 L349.8235 78.2353 L348.6471 79.6471 L342.2941 80.5882 L341.9412 79.5294 L342.8824 78.9412 L343.5882 80.1176 L343.3529 78.5882 L344.2941 77.8824 L344.1765 78.8235 L345.2353 78.3529 L345.4706 80.0 L345.9412 78.4706 L346.1765 77.4118 L345.2353 77.2941 L345.0 76.1176 L346.2941 76.4706 L345.7059 75.2941 L346.0588 74.3529 L346.2941 75.4118 L346.7647 73.6471 L345.4706 73.8824 L344.5294 73.8824 L345.2353 72.9412 L345.9412 72.0 L345.3529 70.4706 L346.4118 70.8235 L347.1176 69.7647 L346.0588 70.1176 L346.6471 67.8824 L347.0 66.8235 L346.4118 65.6471 L347.0 66.9412 L345.9412 67.5294 L346.2941 68.5882 L346.1765 69.6471 L345.1176 68.8235 L345.2353 67.8824 L344.1765 67.8824 L345.3529 69.6471 L344.2941 69.7647 L345.0 70.7059 L344.7647 71.6471 L343.8235 70.5882 L344.0588 69.6471 L343.7059 70.8235 L342.4118 70.8235 L343.3529 70.4706 L343.0 71.7647 L344.1765 71.4118 L344.5294 72.5882 L343.2353 72.2353 L343.3529 73.4118 L343.4706 74.8235 L344.7647 74.5882 L343.5882 75.4118 L343.2353 76.4706 L341.7059 76.7059 L342.0588 75.6471 L341.1176 74.7059 L340.7647 76.4706 L340.7647 77.7647 L339.4706 78.0 L339.7059 76.5882 L338.6471 76.7059 L338.6471 75.4118 L338.1765 74.4706 L339.1176 74.8235 L339.0 73.2941 L340.2941 73.7647 L339.8235 72.8235 L340.7647 72.8235 L339.4706 72.8235 L338.5294 73.5294 L337.4706 72.1176 L337.5882 70.8235 L338.7647 70.7059 L337.7059 70.5882 L337.7059 69.4118 L337.3529 70.4706 L335.3529 70.1176 L335.1176 68.9412 L334.1765 68.4706 L335.2353 70.4706 L336.8824 71.5294 L335.9412 71.6471 L336.1765 72.7059 L337.3529 72.8235 L338.1765 73.8824 L337.2353 74.4706 L338.4118 75.2941 L337.0 75.6471 L335.5882 74.4706 L336.2941 75.4118 L336.1765 76.8235 L337.2353 76.1176 L336.4118 77.4118 L337.8235 77.1765 L337.4706 78.3529 L338.6471 78.4706 L338.6471 80.2353 L337.5882 81.0588 L340.0588 80.1176 L340.2941 81.1765 L332.8824 84.7059 L326.6471 86.2353 L326.6471 84.3529 L328.4118 84.5882 L326.7647 83.6471 L328.7647 83.0588 L325.8235 82.5882 L324.8824 82.1176 L325.4706 84.2353 L324.2941 84.3529 L326.1765 84.4706 L326.1765 86.4706 L319.0 88.0 L309.9412 94.1176 L307.3529 94.3529 L305.9412 94.5882 L305.4706 93.6471 L307.1176 93.4118 L307.1176 93.4118 L310.0588 93.4118 L311.3529 92.8235 L310.1765 93.0588 L309.9412 90.8235 L307.7059 90.0 L307.5882 88.9412 L306.5294 89.4118 L305.3529 90.4706 L305.2353 91.6471 L303.8235 91.4118 L302.7647 91.5294 L301.5882 92.3529 L300.0588 92.4706 L300.6471 91.4118 L299.7059 91.5294 L300.6471 91.2941 L299.7059 90.7059 L300.4118 89.5294 L299.4706 88.4706 L301.0 88.0 L299.7059 87.7647 L299.4706 87.2941 L300.4118 87.2941 L299.5882 86.8235 L301.1176 86.8235 L299.5882 86.5882 L300.5294 83.5294 L300.8824 80.4706 L302.1765 82.8235 L303.2353 81.7647 L304.4118 81.2941 L304.6471 82.3529 L305.5882 82.8235 L305.0 81.6471 L305.9412 82.3529 L305.7059 81.1765 L307.1176 80.7059 L307.1176 80.9412 L307.1176 82.1176 L308.4118 82.4706 L308.1765 81.4118 L307.4706 79.8824 L307.3529 78.8235 L307.2353 77.7647 L307.9412 79.1765 L308.0588 78.0 L309.1176 77.5294 L309.7059 79.1765 L310.0588 80.1176 L311.5882 80.1176 L312.5294 79.1765 L310.6471 79.4118 L311.3529 78.2353 L312.7647 77.6471 L311.2353 77.7647 L310.7647 78.9412 L310.4118 77.7647 L309.8235 76.2353 L310.6471 75.2941 L310.0588 74.2353 L310.8824 72.9412 L312.4118 72.1176 L309.7059 73.4118 L309.9412 75.0588 L309.2353 76.7059 L308.0588 76.3529 L308.2941 77.2941 L307.1176 77.4118 L306.4118 76.1176 L306.7647 77.6471 L305.2353 77.1765 L306.2941 78.0 L305.9412 78.9412 L305.1176 80.4706 L303.9412 80.0 L304.1765 78.9412 L303.4706 80.5882 L302.4118 76.5882 L301.3529 76.0 L299.9412 75.2941 L300.8824 75.1765 L299.9412 74.7059 L300.5294 73.7647 L302.2941 72.9412 L302.2941 72.0 L303.2353 72.0 L304.0588 70.8235 L305.3529 69.4118 L305.1176 70.7059 L305.4706 70.2353 L306.4118 70.2353 L306.1765 68.9412 L307.3529 67.5294 L309.7059 66.9412 L312.1765 67.4118 L314.8824 66.7059 L315.9412 66.8235 L315.5882 67.7647 L316.2941 66.7059 L317.4706 66.7059 L317.8235 67.6471 L317.2353 68.7059 L317.2353 70.1176 L318.4118 69.7647 L318.4118 68.3529 L319.0 67.4118 L320.2941 67.7647 L318.4118 67.1765 L319.2353 66.0 L320.1765 66.5882 L320.0588 65.1765 L321.2353 65.5294 L321.5882 66.4706 L321.3529 65.4118 L323.0 66.9412 L322.2941 64.4706 L323.4706 64.7059 L323.4706 63.8824 L322.5294 63.8824 L320.7647 65.0588 L320.4118 63.6471 L319.9412 62.3529 L319.8235 63.4118 L320.0588 64.8235 L318.7647 65.4118 L318.4118 64.1176 L318.6471 66.0 L317.4706 65.1765 L317.9412 66.1176 L316.8824 66.1176 L315.8235 65.8824 L317.4706 64.4706 L317.5882 63.1765 L316.2941 63.1765 L315.2353 61.4118 L315.1176 62.5882 L316.6471 63.7647 L315.4706 65.0588 L314.6471 66.0 L313.3529 66.0 L312.7647 64.2353 L313.0 66.1176 L311.1176 66.3529 L310.2941 65.2941 L309.7059 66.4706 L308.6471 66.7059 L307.1176 66.8235 L306.5294 64.9412 L307.2353 64.0 L307.8235 62.9412 L307.3529 62.7059 L308.4118 62.7059 L307.3529 62.5882 L307.2353 62.3529 L307.2353 61.2941 L307.5882 60.1176 L309.1176 60.3529 L307.8235 60.1176 L307.1176 59.4118 L307.1176 57.0588 L305.1176 56.0 L305.1176 54.7059 L304.1765 53.8824 L306.0588 53.5294 L307.3529 54.7059 L306.2941 53.4118 L306.5294 52.4706 L306.5294 51.2941 L305.9412 49.6471 L307.1176 49.4118 L306.1765 49.4118 L306.6471 48.4706 L306.0588 47.1765 L305.8235 45.7647 L307.3529 44.4706 L309.7059 43.4118 L310.7647 43.8824 L313.4706 42.3529 L315.0 42.7059 L316.1765 42.0 L315.1176 41.7647 L314.0588 42.3529 L313.0 42.2353 L311.9412 41.6471 L310.8824 43.4118 L309.4706 43.1765 L307.8235 43.1765 L306.6471 44.0 L305.7059 44.4706 L305.2353 45.5294 L305.7059 46.4706 L305.9412 48.5882 L304.7647 49.2941 L303.2353 49.6471 L304.4118 50.1176 L304.8824 51.7647 L304.5294 50.2353 L306.0588 52.8235 L303.7059 53.5294 L302.8824 52.4706 L303.5882 53.5294 L302.4118 54.7059 L301.3529 54.7059 L299.9412 54.7059 L301.2353 54.9412 L302.1765 54.9412 L303.7059 54.1176 L304.4118 56.3529 L306.1765 57.1765 L305.1176 57.7647 L302.4118 60.3529 L305.3529 58.0 L306.6471 58.5882 L306.7647 59.5294 L306.6471 60.7059 L305.2353 60.7059 L305.7059 61.6471 L306.7647 62.7059 L305.9412 64.9412 L306.0588 66.9412 L304.8824 66.9412 L304.7647 68.7059 L303.0 68.7059 L301.7059 68.0 L301.7059 66.4706 L301.7059 67.7647 L300.7647 67.7647 L302.0588 68.7059 L303.3529 69.4118 L302.4118 70.1176 L299.9412 70.3529 L298.1765 70.0 L298.2941 68.5882 L296.8824 69.1765 L296.5294 68.2353 L296.8824 67.1765 L296.1765 68.1176 L296.2941 67.0588 L295.2353 67.1765 L295.7059 65.5294 L294.2941 65.6471 L294.2941 64.4706 L295.5882 62.9412 L294.2941 63.8824 L294.0588 65.4118 L293.0 65.6471 L292.6471 64.3529 L292.1765 66.1176 L290.4118 65.4118 L290.0588 63.7647 L288.8824 63.5294 L288.4118 62.5882 L287.7059 61.0588 L288.2941 59.6471 L287.4706 58.7059 L287.4706 61.4118 L287.9412 62.5882 L288.8824 65.0588 L290.0588 65.2941 L290.6471 66.3529 L290.1765 67.6471 L289.2353 67.5294 L290.1765 68.0 L290.4118 69.1765 L291.0 66.8235 L293.2353 66.8235 L294.1765 67.2941 L294.2941 68.2353 L295.3529 69.5294 L294.4118 69.8824 L294.0588 70.8235 L293.2353 69.8824 L292.7647 70.9412 L294.0588 71.1765 L293.5882 72.4706 L294.2941 71.0588 L295.4706 70.7059 L298.1765 70.9412 L298.0588 72.0 L299.0 72.4706 L297.9412 72.1176 L296.1765 72.5882 L297.3529 72.7059 L296.5294 75.4118 L296.4118 76.3529 L294.0588 76.2353 L293.0 76.4706 L295.1176 77.0588 L296.2941 77.2941 L298.2941 76.1176 L298.6471 78.2353 L296.8824 78.5882 L295.8235 84.8235 L291.1176 84.9412 L290.2941 78.8235 L286.8824 78.9412 L283.8235 80.4706 L281.0 80.9412 L279.5882 80.1176 L279.0 78.1176 L278.8824 76.3529 L277.2353 76.1176 L277.2353 76.0 L276.1765 76.0 L275.2353 75.7647 L274.2941 74.4706 L275.8235 74.9412 L274.8824 74.4706 L275.2353 73.5294 L274.6471 71.1765 L274.2941 69.8824 L273.8235 70.9412 L274.6471 71.4118 L274.6471 72.4706 L273.8235 73.8824 L273.9412 74.9412 L273.0 75.6471 L270.7647 75.4118 L271.8235 75.4118 L272.6471 74.0 L271.2353 72.8235 L269.5882 72.5882 L270.0588 71.4118 L269.0 70.2353 L267.4706 70.1176 L268.4118 69.0588 L269.9412 69.2941 L270.4118 68.2353 L269.4706 68.3529 L268.2941 68.2353 L265.5882 67.0588 L265.1176 65.4118 L263.9412 65.5294 L263.4706 65.0588 L261.7059 65.0588 L262.7647 62.3529 L262.4118 61.2941 L261.2353 60.5882 L261.1176 58.7059 L261.5882 57.1765 L260.5294 55.8824 L261.1176 54.1176 L263.0 54.3529 L263.2353 52.8235 L261.7059 52.1176 L260.4118 52.2353 L260.1765 51.2941 L260.2941 52.2353 L261.9412 52.3529 L263.1176 53.0588 L262.8824 54.2353 L260.8824 54.0 L260.1765 55.8824 L260.1765 58.2353 L260.8824 59.4118 L259.9412 60.4706 L261.4706 61.7647 L260.2941 62.8235 L259.8235 64.9412 L260.6471 66.5882 L262.5294 66.4706 L263.2353 67.6471 L264.0588 69.0588 L265.7059 68.9412 L266.7647 72.2353 L266.0588 73.2941 L268.2941 73.7647 L268.7647 75.0588 L269.3529 77.5294 L270.5294 78.1176 L272.2941 77.7647 L273.2353 78.4706 L274.5294 82.7059 L272.8824 84.2353 L272.5294 83.2941 L271.4706 82.8235 L270.7647 81.2941 L269.1176 81.5294 L267.7059 80.4706 L266.2941 78.9412 L265.4706 77.5294 L264.2941 77.6471 L263.9412 76.4706 L262.1765 76.1176 L261.1176 76.0 L262.2941 76.2353 L263.8235 76.5882 L264.1765 77.8824 L265.2353 77.6471 L267.0 80.3529 L266.2941 83.0588 L265.3529 82.9412 L266.4118 83.1765 L266.8824 81.4118 L268.1765 82.3529 L267.9412 83.6471 L269.1176 82.9412 L270.7647 82.8235 L269.4706 84.1176 L270.4118 84.3529 L271.4706 84.3529 L271.2353 87.7647 L270.2941 90.1176 L269.2353 90.4706 L270.5294 90.1176 L271.4706 89.6471 L271.9412 88.5882 L273.5882 87.8824 L273.1176 90.3529 L273.4706 91.7647 L272.1765 93.4118 L268.7647 94.2353 L266.8824 96.2353 L266.6471 97.6471 L264.4118 98.3529 L262.1765 100.9412 L260.0588 101.8824 L259.1176 101.1765 L260.1765 100.0 L259.1176 100.8235 L256.0588 99.8824 L254.2941 100.0 L252.7647 99.7647 L251.8235 99.2941 L250.0588 99.5294 L250.8824 98.3529 L250.2941 96.3529 L251.2353 95.8824 L251.1176 94.8235 L250.0588 96.3529 L250.2941 97.2941 L249.0 97.5294 L250.4118 97.6471 L249.7059 99.8824 L250.8824 100.5882 L252.0588 103.0588 L253.0 102.0 L254.2941 102.0 L254.6471 100.9412 L257.3529 100.5882 L257.1176 102.0 L258.1765 104.3529 L257.8235 105.8824 L256.2941 107.4118 L252.2941 108.7059 L247.1176 108.7059 L245.3529 109.0588 L243.9412 110.1176 L242.0588 113.4118 L242.1765 116.2353 L244.2941 122.4706 L244.1765 124.7059 L242.8824 127.1765 L243.0 129.4118 L242.5294 131.1765 L241.5882 131.4118 L242.0588 133.5294 L241.5882 135.5294 L240.4118 136.7059 L240.0588 138.4706 L241.3529 138.0 L242.2941 138.3529 L242.2941 137.4118 L243.0 138.5882 L241.9412 140.7059 L240.5294 141.6471 L239.2353 143.5294 L238.2941 142.1176 L237.7059 139.2941 L236.4118 137.7647 L237.4706 136.8235 L236.2941 137.6471 L235.5882 135.6471 L234.5294 133.2941 L235.0 132.2353 L235.3529 131.1765 L236.2941 129.8824 L235.3529 128.3529 L234.0588 128.7059 L233.2353 128.9412 L234.6471 128.9412 L235.7059 130.0 L234.7647 131.0588 L234.8824 132.0 L234.6471 132.9412 L231.5882 132.3529 L229.7059 132.7059 L228.6471 133.5294 L227.3529 135.4118 L226.0588 137.4118 L222.7647 139.0588 L222.2941 140.5882 L220.5294 141.7647 L219.0 141.1765 L219.2353 139.5294 L218.4118 138.4706 L216.5294 138.0 L215.3529 137.8824 L214.2941 136.8235 L212.1765 136.3529 L212.4118 136.8235 L211.3529 136.8235 L214.2941 137.7647 L215.3529 139.2941 L216.6471 138.7059 L217.5882 139.6471 L217.8235 141.1765 L218.7647 142.3529 L219.4706 145.4118 L216.4118 145.1765 L208.5294 145.8824 L204.7647 144.0 L202.4118 143.8824 L198.0588 147.5294 L196.0588 148.5882 L194.1765 150.7059 L193.0 150.8235 L189.3529 152.5882 L188.0588 152.3529 L187.3529 150.9412 L185.9412 151.5294 L184.2941 150.5882 L183.1176 150.4706 L184.1765 151.2941 L185.5882 153.0588 L186.2941 153.0588 L187.2353 153.0588 L187.5882 156.3529 L186.7647 157.5294 L186.6471 159.5294 L185.4706 160.9412 L185.2353 162.5882 L185.7059 163.7647 L184.6471 164.2353 L186.5294 164.4706 L184.1765 166.2353 L183.1176 166.2353 L183.4706 164.9412 L182.4118 164.9412 L179.2353 162.8235 L176.4118 157.7647 L174.2941 157.1765 L174.0588 156.2353 L175.1176 155.6471 L173.9412 156.1176 L173.9412 157.5294 L171.8235 159.5294 L170.6471 159.4118 L170.1765 162.3529 L169.4706 167.2941 L167.7059 165.4118 L165.9412 165.4118 L165.0 164.7059 L162.7647 165.1765 L161.5882 164.9412 L159.8235 165.5294 L159.1176 164.4706 L157.2353 163.6471 L157.2353 162.8235 L157.2353 163.7647 L157.9412 165.0588 L154.7647 162.7059 L152.1765 162.4706 L150.8824 163.2941 L150.2941 166.4706 L148.8824 166.3529 L147.2353 168.4706 L146.8824 166.0 L143.3529 164.8235 L140.8824 162.9412 L142.2941 164.5882 L140.0588 166.4706 L139.1176 167.6471 L138.5294 169.1765 L137.5882 168.2353 L136.5294 167.4118 L135.1176 167.8824 L134.8824 169.5294 L135.1176 171.1765 L137.7059 172.2353 L139.1176 174.2353 L139.2353 175.4118 L138.0588 176.8235 L136.1765 176.8235 L133.2353 178.2353 L132.1765 179.8824 L132.2941 181.6471 L134.4118 185.4118 L134.2941 188.5882 L134.8824 186.0 L133.0 181.4118 L132.8824 180.1176 L134.0588 178.2353 L138.4118 177.4118 L140.6471 174.8235 L140.2941 173.6471 L141.2353 172.3529 L140.1765 173.2941 L140.2941 171.7647 L140.5294 170.1176 L141.7059 169.7647 L143.2353 170.4706 L144.8824 170.5882 L147.0 170.8235 L150.4118 171.0588 L153.2353 169.6471 L154.4118 170.7059 L153.2353 169.5294 L153.5882 168.5882 L157.7059 167.6471 L162.0588 168.0 L160.7647 168.3529 L161.2353 170.1176 L160.1765 169.8824 L160.6471 170.8235 L161.7059 168.3529 L163.4706 167.6471 L164.5294 168.2353 L166.6471 169.5294 L168.5294 169.1765 L170.6471 169.7647 L172.0588 170.9412 L170.8824 170.7059 L173.4706 171.6471 L172.8824 170.4706 L171.8235 170.0 L172.6471 168.4706 L172.7647 166.9412 L171.7059 161.5294 L172.7647 159.7647 L174.2941 161.5294 L176.5294 162.9412 L179.2353 165.6471 L178.1765 166.2353 L176.7647 164.8235 L175.4706 164.9412 L174.4118 165.0588 L176.7647 165.2941 L177.9412 166.3529 L179.3529 165.8824 L181.3529 166.7059 L182.8824 168.3529 L184.4118 167.0588 L187.4706 166.5882 L187.1176 165.4118 L187.8235 164.4706 L188.0588 160.5882 L192.4118 154.7059 L195.4706 152.1176 L197.4706 152.2353 L199.7059 151.2941 L199.4706 152.4706 L200.1765 153.4118 L201.3529 153.1765 L203.0 153.7647 L202.8824 154.8235 L201.1176 156.0 L203.1176 154.9412 L205.0 155.4118 L206.1765 156.5882 L206.0588 157.6471 L205.0 158.5882 L205.1176 160.3529 L203.9412 162.9412 L203.0 163.5294 L203.4706 164.5882 L203.2353 162.8235 L204.4118 161.7647 L205.3529 161.2941 L205.0 163.4118 L206.5294 164.1176 L206.2941 165.5294 L205.0 166.3529 L204.2941 168.1176 L206.1765 169.2941 L206.4118 173.4118 L206.8824 175.0588 L205.8235 175.8824 L203.9412 176.0 L205.7059 176.0 L205.8235 177.2941 L204.6471 177.7647 L205.8235 177.4118 L206.8824 179.2941 L206.2941 180.3529 L204.1765 178.4706 L202.7647 178.1176 L201.9412 176.3529 L200.7647 175.8824 L200.4118 179.8824 L202.4118 181.4118 L201.4706 181.6471 L199.1176 183.7647 L199.4706 184.8235 L201.4706 185.6471 L201.5882 188.1176 L200.8824 186.5882 L199.5882 185.8824 L197.7059 186.8235 L197.7059 184.9412 L197.2353 184.0 L195.5882 183.2941 L194.6471 183.2941 L194.5294 185.0588 L194.6471 186.0 L195.1176 185.7647 L195.1176 183.7647 L196.8824 184.7059 L197.5882 187.0588 L199.9412 186.3529 L200.5294 187.8824 L201.8235 188.3529 L201.9412 186.1176 L201.5882 185.1765 L200.6471 184.5882 L199.7059 184.7059 L201.7059 182.9412 L202.6471 184.2353 L202.1765 183.1765 L203.4706 182.0 L202.5294 180.0 L201.1176 179.4118 L201.8235 178.4706 L202.7647 179.1765 L203.8235 179.1765 L205.1176 180.5882 L206.5294 180.8235 L207.0 179.8824 L207.3529 178.8235 L208.5294 180.1176 L206.0588 176.4706 L207.4706 174.5882 L208.4118 174.5882 L208.2941 175.5294 L208.6471 174.0 L209.4706 175.5294 L209.4706 174.5882 L211.8235 173.6471 L211.5882 174.5882 L212.4118 173.2941 L214.0588 174.3529 L212.8824 173.8824 L212.8824 172.5882 L212.8824 171.4118 L211.2353 171.2941 L210.8824 169.5294 L210.4118 168.5882 L211.0 168.5882 L211.0 169.5294 L210.1765 168.1176 L210.2941 166.9412 L208.8824 167.7647 L209.5882 169.1765 L207.9412 169.4118 L208.8824 167.7647 L207.1176 166.8235 L208.6471 165.0588 L210.0588 164.4706 L210.8824 166.1176 L210.6471 164.5882 L210.2941 162.9412 L207.7059 162.2353 L206.4118 162.8235 L206.5294 161.7647 L207.8235 161.7647 L208.2941 160.3529 L210.1765 161.0588 L210.7647 162.5882 L211.7059 162.4706 L213.0 160.9412 L211.9412 158.0 L209.4706 158.0 L206.6471 159.1765 L207.1176 157.8824 L208.4118 156.5882 L208.2941 155.5294 L207.0 154.8235 L207.9412 153.1765 L211.2353 152.8235 L215.8235 153.5294 L217.7059 152.4706 L220.6471 151.0588 L222.5294 147.1765 L222.5294 148.8235 L223.5882 149.4118 L224.5294 150.7059 L226.7647 150.8235 L225.7059 150.9412 L227.2353 151.1765 L223.7059 149.1765 L223.5882 147.8824 L224.8824 147.8824 L226.1765 147.5294 L231.2353 146.7059 L236.4118 147.7647 L237.7059 148.7059 L236.6471 148.0 L234.8824 148.2353 L235.0 149.5294 L235.3529 150.7059 L236.7647 150.2353 L236.2941 149.0588 L237.7059 150.0 L243.7059 149.0588 L245.7059 148.3529 L246.8824 147.5294 L247.2353 148.9412 L248.4118 148.7059 L247.3529 147.1765 L250.0588 143.7647 L251.9412 137.5294 L253.0 138.0 L252.4118 140.4706 L252.7647 141.7647 L252.5294 140.3529 L253.3529 139.2941 L254.8824 140.1176 L256.5294 139.8824 L255.5882 140.1176 L254.8824 139.1765 L253.8235 138.4706 L254.8824 137.6471 L253.5882 138.0 L252.4118 136.9412 L252.1765 135.6471 L252.1765 135.6471 M358.0588 276.0 L358.0588 277.6471 L359.5882 278.2353 L359.0 279.2941 L357.1176 280.5882 L356.8824 277.7647 L358.0588 276.0 L358.0588 276.0 M275.5882 339.4118 L277.0 340.2353 L277.4706 341.1765 L276.5294 340.5882 L275.1176 342.4706 L276.7647 340.8235 L276.2941 343.0588 L275.2353 343.0588 L272.6471 344.8235 L274.4118 342.2353 L275.5882 339.4118 L275.5882 339.4118 M372.1765 135.6471 L372.1765 135.6471 L372.1765 134.5882 L372.5294 135.5294 L372.5294 137.2941 L372.5294 139.7647 L373.0 141.6471 L372.2941 139.7647 L372.1765 135.6471 L372.1765 135.6471 M381.8235 135.4118 L381.1176 134.9412 L380.0588 134.8235 L380.4118 133.7647 L378.2941 131.7647 L377.7059 130.5882 L376.2941 130.5882 L376.4118 129.6471 L375.4706 129.6471 L373.0 128.5882 L370.8824 125.6471 L369.9412 125.5294 L371.2353 125.0588 L374.8824 126.7059 L382.4118 135.6471 L382.5294 135.6471 L382.5294 136.5882 L381.8235 135.4118 L381.8235 135.4118 M345.8235 80.2353 L347.2353 80.3529 L348.4118 80.9412 L349.3529 81.0588 L350.8824 80.9412 L349.0 81.4118 L350.1765 81.2941 L348.7647 82.0 L347.8235 81.1765 L344.4118 80.4706 L345.8235 80.2353 L345.8235 80.2353 M362.0588 123.7647 L361.9412 125.0588 L361.3529 124.0 L361.7059 121.6471 L360.7647 122.4706 L361.3529 123.8824 L360.0588 122.0 L360.1765 120.8235 L361.2353 119.2941 L363.5882 118.8235 L366.1765 119.4118 L367.0 121.2941 L366.7647 122.9412 L364.1765 124.4706 L364.1765 123.5294 L365.5882 122.7059 L365.7059 121.4118 L365.2353 119.8824 L363.7059 119.7647 L362.1765 120.4706 L362.0588 123.7647 L362.0588 123.7647 M373.9412 144.2353 L374.7647 146.7059 L374.4118 147.8824 L374.8824 150.3529 L373.8235 146.8235 L373.4706 145.4118 L373.9412 145.7647 L373.9412 144.2353 L373.9412 144.2353 M229.1176 143.4118 L230.8824 144.7059 L228.4118 145.6471 L226.2941 146.2353 L224.8824 147.0588 L222.5294 147.1765 L223.0 146.0 L225.1176 144.3529 L227.3529 142.1176 L228.6471 142.1176 L229.1176 143.4118 L229.1176 143.4118 M305.7059 211.7647 L305.8235 210.7059 L305.2353 209.1765 L302.6471 206.4706 L303.5882 206.4706 L304.2941 207.8824 L306.2941 207.4118 L306.5294 208.5882 L306.4118 206.7059 L307.5882 205.8824 L308.4118 206.7059 L308.4118 205.7647 L310.0588 205.1765 L310.2941 206.4706 L308.6471 210.5882 L306.7647 212.1176 L305.7059 211.7647 L305.7059 211.7647 M367.3529 352.3529 L367.1176 352.4706 L365.7059 353.7647 L364.7647 351.7647 L364.5294 349.5294 L363.7059 346.5882 L365.1176 344.8235 L366.4118 346.0 L367.5882 345.7647 L369.1176 345.6471 L368.0588 345.0588 L370.4118 345.7647 L370.1765 346.8235 L368.4118 348.9412 L367.4706 348.9412 L367.1176 347.7647 L367.2353 348.9412 L367.4706 350.4706 L367.3529 352.3529 L367.3529 352.3529 M376.5294 316.2353 L375.8235 314.1176 L374.1765 311.5294 L375.7059 310.4706 L374.2941 311.5294 L375.3529 311.7647 L376.4118 311.2941 L377.7059 310.8235 L378.0588 311.7647 L379.4706 312.1176 L378.5294 313.1765 L378.6471 314.4706 L379.5882 314.9412 L379.2353 316.0 L379.2353 316.7059 L378.2941 316.7059 L379.2353 316.7059 L380.1765 317.2941 L379.8235 316.3529 L380.5294 316.3529 L380.5294 317.2941 L381.2353 316.3529 L382.5294 319.0588 L382.5294 319.1765 L380.7647 319.1765 L379.4706 319.7647 L378.5294 318.4706 L379.0 319.4118 L378.7647 320.5882 L379.7059 320.9412 L379.9412 320.0 L382.5294 319.2941 L382.5294 321.8824 L381.4706 322.1176 L381.5882 323.0588 L382.5294 323.7647 L382.5294 324.7059 L380.5294 325.4118 L378.8824 324.7059 L378.4118 323.2941 L379.3529 324.5882 L380.0588 323.2941 L380.1765 324.7059 L381.1176 324.1176 L380.1765 322.8235 L379.1176 323.1765 L379.4706 321.5294 L380.5294 321.8824 L379.2353 321.2941 L376.5294 316.2353 L376.5294 316.2353 M348.4118 316.1176 L348.1765 314.2353 L348.6471 311.0588 L349.5882 311.1765 L350.2941 309.2941 L351.4706 308.2353 L352.4118 305.1765 L351.9412 304.1176 L351.8235 302.8235 L351.4706 300.9412 L352.4118 300.1176 L352.4118 301.1765 L354.1765 301.4118 L353.2353 304.0 L353.9412 305.5294 L353.8235 306.5882 L352.6471 308.0 L351.3529 310.0 L353.0 311.2941 L353.2353 313.1765 L352.7647 312.2353 L352.8824 313.8824 L351.9412 315.7647 L351.3529 316.1176 L349.4706 316.1176 L348.4118 316.1176 L348.4118 316.1176 M377.5882 302.4706 L377.0 302.9412 L378.1765 303.0588 L379.1176 303.6471 L378.4118 304.5882 L379.4706 304.9412 L379.2353 305.8824 L378.0588 305.8824 L376.7647 304.2353 L375.8235 303.1765 L376.0588 302.0 L375.4706 303.2941 L375.5882 304.9412 L376.7647 304.8235 L377.1176 304.8235 L377.1176 305.7647 L375.9412 306.4706 L375.7059 306.1176 L375.7059 307.0588 L375.1176 301.5294 L374.6471 300.0 L376.2941 299.7647 L376.0588 300.9412 L375.3529 302.1176 L376.8824 300.1176 L377.3529 301.0588 L377.3529 300.0 L378.4118 299.0588 L380.7647 299.5294 L378.8824 299.6471 L378.7647 300.9412 L379.7059 300.5882 L380.7647 300.1176 L381.5882 300.3529 L381.5882 302.2353 L380.2941 302.4706 L379.3529 303.1765 L377.5882 302.4706 L377.5882 302.4706 M379.7059 306.4706 L379.2353 306.3529 L379.7059 304.9412 L379.1176 303.7647 L380.5294 303.0588 L381.0 304.4706 L380.2941 305.5294 L380.0588 304.4706 L379.7059 306.4706 L379.7059 306.4706 M359.2353 281.0588 L359.1176 281.6471 L358.5294 282.7059 L358.0588 284.2353 L357.0 280.9412 L358.4118 280.9412 L357.4706 281.4118 L357.2353 282.5882 L358.5294 281.6471 L358.0588 282.8235 L359.2353 281.0588 L359.2353 281.0588 M379.5882 334.1176 L378.7647 334.7059 L377.5882 333.5294 L378.5294 333.0588 L378.7647 332.0 L380.4118 330.8235 L381.5882 332.1176 L380.6471 332.1176 L380.7647 333.0588 L379.5882 334.1176 L379.5882 334.1176 M347.4706 349.7647 L347.9412 349.1765 L350.0588 349.7647 L351.3529 349.2941 L351.8235 350.7059 L350.6471 351.6471 L350.2941 352.9412 L349.1176 353.1765 L350.6471 353.6471 L351.8235 353.6471 L352.5294 355.0588 L351.9412 357.1765 L350.7647 357.5294 L349.5882 357.1765 L350.5294 359.0588 L348.2941 361.6471 L347.2353 361.1765 L345.9412 361.7647 L344.6471 361.2941 L347.2353 360.0 L347.1176 358.9412 L345.3529 358.0 L342.8824 358.1176 L341.8235 358.9412 L343.0 354.5882 L341.3529 354.4706 L341.5882 352.3529 L342.2941 351.1765 L342.5294 352.1176 L344.0588 351.6471 L343.5882 352.5882 L342.0588 353.6471 L343.9412 352.3529 L344.8824 352.5882 L343.4706 353.7647 L344.7647 353.2941 L344.8824 355.0588 L343.7059 354.9412 L344.1765 355.1765 L344.1765 356.1176 L345.8235 354.2353 L347.8235 355.1765 L346.8824 353.8824 L347.4706 349.7647 L347.4706 349.7647 M347.4706 337.6471 L347.0 336.9412 L351.2353 333.5294 L350.6471 335.2941 L351.7059 335.1765 L352.8824 335.4118 L354.2941 333.4118 L355.2353 333.6471 L354.8824 334.1176 L355.8235 334.1176 L355.1176 337.8824 L354.0588 339.5294 L352.4118 340.2353 L351.4706 341.4118 L350.8824 344.1176 L350.7647 343.1765 L349.4706 342.7059 L349.8235 341.5294 L348.5294 340.5882 L349.8235 339.8824 L351.0 339.5294 L351.3529 338.3529 L351.0 336.8235 L351.9412 336.7059 L350.8824 335.7647 L350.5294 336.9412 L350.4118 336.0 L349.1176 336.5882 L347.4706 337.6471 L347.4706 337.6471 M351.9412 341.7647 L353.4706 344.3529 L352.0588 341.7647 L353.1176 340.5882 L353.1176 342.4706 L354.1765 344.3529 L353.8235 343.1765 L354.2941 345.7647 L353.2353 345.8824 L352.7647 344.1176 L351.8235 343.8824 L351.9412 342.7059 L351.9412 341.7647 L351.9412 341.7647 M319.3529 384.1176 L318.7647 385.4118 L317.5882 386.2353 L317.2353 387.7647 L318.6471 386.1176 L318.5294 387.8824 L318.2941 390.1176 L319.5882 390.1176 L320.6471 388.7059 L319.2353 390.9412 L320.4118 390.7059 L319.0 391.5294 L318.2941 392.8235 L316.8824 392.2353 L316.6471 390.1176 L317.3529 388.5882 L316.7647 387.5294 L317.4706 385.5294 L318.2941 384.1176 L319.3529 384.1176 L319.3529 384.1176 M291.7059 487.6471 L289.8235 484.7059 L289.9412 482.3529 L291.2353 479.7647 L292.1765 479.4118 L294.5294 480.3529 L292.6471 481.2941 L292.5294 482.2353 L291.7059 483.2941 L291.4706 484.3529 L293.4706 486.9412 L292.6471 488.1176 L291.7059 487.6471 L291.7059 487.6471 M326.8824 387.8824 L327.2353 388.2353 L326.2941 389.8824 L325.3529 390.3529 L324.2941 389.4118 L325.2353 388.5882 L323.2353 388.3529 L323.1176 386.1176 L325.4706 387.6471 L326.8824 387.8824 L326.8824 387.8824" stroke-dasharray="" fill="none" fill-opacity="1.0" stroke="#ff0000" stroke-opacity="1.0" stroke-width="1.0px" stroke-linecap="butt" stroke-linejoin="miter" stroke-dashoffset="0.0px"/>
</g>
</svg>