<?xml version="1.0" standalone="no"?>
<!DOCTYPE svg PUBLIC "-//W3C//DTD SVG 1.1//EN" "http://www.w3.org/Graphics/SVG/1.1/DTD/svg11.dtd">
<svg width="512px" height="512px" version="1.1" xmlns="http://www.w3.org/2000/svg" xmlns:inkscape="http://www.inkscape.org/namespaces/inkscape">
<g id="layer" inkscape:groupmode="layer" inkscape:label="layer">
<path d="M0.0 0.0 L0.0 175.2941 L1.4118 175.0588 L2.2353 173.5294 L3.4118 173.4118 L3.1765 175.2941 L3.7647 176.4706 L4.4706 178.3529 L6.1176 178.8235 L7.8824 180.4706 L9.0588 180.3529 L10.3529 182.3529 L10.3529 184.0 L11.6471 185.5294 L12.8235 185.5294 L13.7647 186.0 L13.5294 184.9412 L13.2941 182.7059 L13.2941 181.7647 L12.3529 181.7647 L11.8824 179.7647 L10.7059 178.5882 L10.8235 177.5294 L9.7647 178.3529 L9.7647 176.9412 L10.0 175.5294 L9.6471 174.0 L11.0588 172.5882 L8.7059 171.7647 L7.7647 171.1765 L7.7647 169.1765 L6.9412 167.5294 L6.5882 164.7059 L6.0 163.0588 L5.4118 159.6471 L4.9412 157.6471 L2.3529 154.8235 L3.1765 153.5294 L5.0588 154.4706 L6.5882 156.1176 L6.8235 158.1176 L8.0 158.1176 L8.1176 158.9412 L9.4118 158.9412 L9.6471 160.5882 L10.7059 160.4706 L11.7647 161.6471 L13.0588 162.5882 L13.0588 163.5294 L14.5882 164.5882 L16.0 164.5882 L16.2353 165.5294 L16.4706 167.6471 L15.5294 167.5294 L16.0 167.8824 L16.0 169.0588 L17.6471 168.0 L18.8235 168.9412 L21.1765 167.4118 L22.9412 169.7647 L24.2353 173.7647 L26.2353 175.5294 L26.4706 176.9412 L29.0588 178.2353 L27.8824 179.8824 L28.8235 179.1765 L28.4706 180.5882 L29.5294 181.6471 L30.1176 182.8235 L28.8235 183.2941 L29.1765 184.7059 L29.4118 182.9412 L30.4706 183.0588 L31.6471 183.2941 L31.8824 182.1176 L32.5882 181.1765 L32.4706 180.2353 L33.8824 179.5294 L32.9412 179.5294 L30.3529 179.4118 L30.7059 177.2941 L30.0 176.7059 L28.9412 176.7059 L29.0588 174.2353 L27.0588 172.2353 L26.0 172.1176 L24.8235 170.8235 L26.3529 168.7059 L28.7059 167.5294 L27.2941 167.5294 L25.0588 167.2941 L24.0 167.6471 L24.4706 166.4706 L20.5882 165.2941 L18.7059 165.4118 L17.2941 162.1176 L17.5294 161.5294 L19.8824 161.5294 L22.2353 161.6471 L23.7647 160.9412 L24.1176 159.8824 L26.0 158.4706 L26.8235 156.3529 L28.5882 156.0 L31.2941 156.9412 L31.4118 157.8824 L31.4118 156.9412 L32.4706 156.8235 L35.0588 156.8235 L36.4706 157.5294 L38.2353 156.4706 L40.5882 156.1176 L37.7647 156.2353 L36.4706 157.0588 L32.9412 155.8824 L31.0588 156.4706 L28.3529 155.1765 L30.0 154.5882 L31.1765 153.5294 L33.6471 152.9412 L34.7059 152.0 L33.2941 152.5882 L31.8824 152.5882 L30.7059 152.7059 L29.5294 154.1176 L26.9412 154.7059 L26.1176 156.2353 L24.8235 154.7059 L25.7647 154.1176 L25.5294 152.3529 L24.5882 151.1765 L24.9412 152.7059 L25.5294 154.0 L24.7059 155.2941 L25.8824 156.5882 L24.0 157.2941 L23.7647 158.4706 L22.4706 158.3529 L21.4118 158.1176 L22.4706 158.4706 L20.8235 159.4118 L19.7647 158.2353 L19.7647 157.2941 L18.5882 157.2941 L17.6471 156.7059 L16.9412 158.9412 L15.1765 158.9412 L13.5294 158.9412 L11.8824 156.8235 L12.7059 155.6471 L14.9412 154.9412 L13.8824 153.6471 L12.8235 154.5882 L11.1765 155.4118 L10.0 156.3529 L8.3529 153.1765 L8.0 151.0588 L6.9412 150.0 L5.0588 149.4118 L3.8824 147.5294 L3.4118 145.5294 L4.7059 145.4118 L6.2353 145.4118 L5.7647 144.2353 L4.1176 144.2353 L4.0 145.1765 L3.1765 144.2353 L2.5882 145.2941 L0.0 143.7647 L0.0 0.0 L0.0 0.0 L162.0 0.0 L161.7647 2.9412 L159.8824 10.8235 L158.7059 11.0588 L159.7647 8.9412 L157.8824 6.9412 L156.0 6.2353 L151.7647 6.4706 L148.4706 8.1176 L143.4118 11.2941 L140.7059 15.0588 L135.6471 20.2353 L131.4118 26.2353 L123.7647 34.9412 L122.0 37.8824 L121.4118 40.2353 L121.8824 41.5294 L122.0 43.0588 L122.2353 46.3529 L121.5294 50.0 L117.1765 58.4706 L112.3529 63.4118 L109.0588 65.4118 L107.6471 66.9412 L107.2941 68.4706 L107.0588 75.5294 L105.7647 80.8235 L105.0588 87.4118 L105.2941 92.1176 L107.5294 95.8824 L107.8824 99.1765 L107.4118 100.3529 L107.5294 101.5294 L106.3529 104.1176 L106.4706 107.0588 L105.6471 108.1176 L106.2353 111.2941 L101.4118 118.1176 L100.7059 120.1176 L100.8235 123.0588 L98.3529 124.3529 L96.8235 126.7059 L93.5294 128.2353 L93.4118 129.1765 L91.6471 129.7647 L90.9412 130.7059 L91.5294 131.7647 L89.1765 133.5294 L87.5294 135.2941 L87.4118 137.7647 L86.4706 138.4706 L86.4706 139.8824 L85.5294 140.0 L86.0 140.9412 L82.7059 146.3529 L77.6471 151.1765 L76.7059 152.7059 L74.9412 155.4118 L74.0 159.8824 L74.9412 162.3529 L74.9412 163.8824 L76.9412 166.4706 L77.5294 168.2353 L78.5882 177.1765 L80.0 177.7647 L78.9412 178.0 L79.8824 178.7059 L78.2353 179.1765 L75.2941 182.2353 L74.2353 178.3529 L72.9412 177.2941 L74.1176 178.7059 L75.0588 182.7059 L73.0588 184.4706 L69.5294 183.6471 L72.1176 184.7059 L70.4706 187.8824 L70.8235 189.4118 L70.3529 190.7059 L70.9412 192.4706 L71.8824 193.0588 L72.2353 194.2353 L75.1765 198.3529 L79.7647 200.1176 L80.1176 201.1765 L81.0588 202.0 L83.5294 206.1176 L85.0588 207.5294 L85.2941 208.4706 L86.2353 209.0588 L88.2353 213.5294 L90.1176 219.6471 L92.0 222.0 L93.0588 225.0588 L95.8824 228.9412 L99.5294 231.5294 L100.8235 231.7647 L102.0 232.3529 L104.4706 233.4118 L106.3529 234.9412 L107.8824 235.8824 L107.5294 236.5882 L108.8235 236.5882 L111.4118 239.1765 L115.6471 241.6471 L116.8235 242.4706 L119.0588 244.0 L120.5882 244.3529 L119.6471 245.8824 L120.7059 244.4706 L121.6471 244.8235 L121.7647 246.8235 L122.0 245.5294 L122.9412 245.4118 L124.9412 244.5882 L127.7647 244.9412 L131.4118 244.4706 L132.2353 242.1176 L129.2941 241.6471 L128.8235 240.3529 L127.1765 240.3529 L124.8235 241.6471 L120.9412 240.4706 L119.5294 239.6471 L118.9412 238.5882 L117.1765 237.6471 L116.1176 237.6471 L117.6471 235.8824 L117.7647 234.1176 L119.0588 235.0588 L117.8824 233.8824 L118.1176 232.9412 L117.0588 234.7059 L117.4118 235.6471 L116.3529 237.0588 L114.1176 236.5882 L113.0588 236.0 L110.5882 234.8235 L110.4706 233.1765 L108.7059 231.2941 L104.4706 229.6471 L102.1176 227.6471 L100.4706 226.9412 L97.8824 224.1176 L96.5882 223.2941 L96.1176 220.5882 L94.1176 216.7059 L94.0 212.8235 L91.8824 212.5882 L90.7059 209.5294 L89.0588 208.9412 L88.3529 207.8824 L88.4706 206.0 L87.1765 201.4118 L84.2353 197.5294 L82.8235 197.0588 L81.7647 195.4118 L77.8824 192.8235 L77.8824 191.5294 L79.4118 188.1176 L80.4706 188.2353 L82.2353 186.3529 L84.3529 188.2353 L82.4706 186.1176 L83.4118 186.1176 L83.7647 185.0588 L86.4706 187.0588 L87.4118 186.5882 L85.8824 185.7647 L85.1765 184.2353 L85.8824 183.4118 L86.8235 183.4118 L88.1176 181.7647 L88.0 179.8824 L86.7059 176.8235 L84.3529 173.7647 L85.4118 172.4706 L84.9412 166.5882 L85.6471 163.1765 L83.6471 162.5882 L83.1765 165.4118 L82.7059 164.0 L82.7059 158.1176 L83.7647 156.0 L88.7059 155.6471 L89.1765 154.3529 L90.2353 153.5294 L91.8824 153.4118 L94.1176 151.4118 L95.4118 151.7647 L97.4118 147.7647 L98.1176 146.4706 L98.0 147.5294 L98.7059 145.6471 L102.1176 140.2353 L103.0588 139.5294 L104.1176 140.0 L105.5294 139.8824 L106.0 138.8235 L107.7647 137.7647 L108.9412 133.5294 L112.0 132.2353 L113.0588 130.8235 L114.3529 131.6471 L112.7059 132.3529 L113.5294 133.7647 L114.7059 134.1176 L114.4706 135.5294 L115.7647 135.7647 L116.0 136.7059 L114.8235 137.4118 L115.1765 138.3529 L113.0588 139.6471 L115.2941 138.4706 L116.2353 138.9412 L118.2353 137.8824 L118.2353 139.0588 L118.7059 140.7059 L120.1176 140.0 L120.1176 138.5882 L121.0588 140.5882 L122.5882 140.4706 L123.4118 138.7059 L125.4118 139.1765 L125.8824 137.6471 L126.5882 138.9412 L128.2353 137.8824 L128.2353 138.9412 L129.5294 139.1765 L129.6471 138.1176 L130.8235 138.7059 L131.2941 137.4118 L132.2353 138.2353 L133.1765 137.5294 L134.3529 138.2353 L135.4118 138.2353 L136.7059 138.7059 L136.4706 140.1176 L136.7059 142.4706 L135.6471 143.1765 L135.6471 146.7059 L136.2353 145.1765 L136.1176 143.2941 L137.0588 143.6471 L137.0588 142.5882 L136.8235 139.0588 L137.7647 138.7059 L135.4118 137.7647 L132.7059 136.8235 L132.3529 137.7647 L130.8235 137.2941 L130.5882 138.4706 L129.5294 137.8824 L128.8235 139.2941 L128.5882 137.7647 L126.8235 138.3529 L127.7647 136.7059 L126.4706 137.2941 L124.8235 137.0588 L124.3529 138.4706 L122.8235 138.7059 L122.7059 140.0 L121.0588 140.2353 L121.1765 139.2941 L120.5882 138.3529 L118.7059 139.5294 L119.1765 138.2353 L118.5882 137.5294 L117.5294 137.5294 L116.2353 138.5882 L115.8824 137.5294 L115.8824 135.2941 L114.7059 135.4118 L115.0588 133.8824 L113.1765 132.7059 L114.5882 132.1176 L114.5882 131.0588 L116.0 131.5294 L117.1765 131.2941 L119.7647 129.5294 L120.8235 130.0 L122.1176 129.8824 L122.7059 128.7059 L121.0588 128.9412 L121.4118 127.8824 L122.9412 127.5294 L122.0 126.9412 L121.0588 127.6471 L120.2353 128.7059 L120.0 127.6471 L122.0 122.5882 L126.3529 118.4706 L127.0588 119.6471 L126.4706 121.0588 L128.1176 121.8824 L127.2941 123.4118 L127.6471 125.6471 L126.7059 125.5294 L124.8235 124.8235 L123.6471 126.0 L124.4706 127.1765 L124.9412 125.6471 L126.0 126.5882 L126.0 127.5294 L126.7059 125.6471 L127.6471 125.7647 L127.8824 127.4118 L128.9412 127.6471 L128.1176 129.7647 L129.5294 130.1176 L129.2941 132.9412 L129.5294 131.7647 L131.1765 132.8235 L129.6471 131.5294 L129.8824 130.4706 L131.2941 131.7647 L132.3529 131.8824 L131.4118 131.4118 L131.2941 130.3529 L129.8824 130.3529 L128.7059 128.5882 L131.1765 128.1176 L130.2353 128.4706 L130.8235 129.4118 L131.8824 127.8824 L132.8235 128.1176 L129.2941 128.3529 L129.2941 127.4118 L128.1176 126.8235 L128.0 125.7647 L128.1176 124.1176 L128.7059 122.7059 L127.1765 121.0588 L129.8824 121.2941 L133.1765 120.1176 L132.8235 121.1765 L134.3529 121.7647 L133.5294 120.8235 L132.3529 119.5294 L134.1176 117.2941 L135.0588 117.2941 L135.4118 118.3529 L136.4706 120.1176 L135.7647 118.2353 L135.8824 117.1765 L135.5294 118.3529 L135.4118 117.2941 L134.0 115.6471 L134.3529 114.7059 L135.6471 114.1176 L139.4118 112.2353 L140.7059 112.1176 L141.7647 110.5882 L143.0588 108.2353 L144.4706 108.7059 L144.2353 109.6471 L144.4706 108.4706 L147.4118 108.1176 L148.3529 107.5294 L147.0588 108.0 L145.2941 107.7647 L146.3529 106.3529 L147.0588 102.4706 L147.8824 101.5294 L148.8235 102.0 L150.7059 102.8235 L149.6471 102.4706 L149.0588 101.4118 L147.0588 99.6471 L148.2353 98.4706 L149.8824 96.0 L151.6471 95.4118 L152.2353 94.2353 L152.7059 95.5294 L153.7647 96.2353 L153.5294 97.5294 L152.2353 97.4118 L150.9412 97.2941 L152.2353 97.6471 L151.1765 98.4706 L152.7059 99.6471 L152.5882 98.0 L153.5294 98.0 L155.4118 100.0 L154.8235 100.9412 L155.7647 100.8235 L157.4118 101.6471 L156.5882 102.8235 L155.6471 103.1765 L155.7647 104.2353 L156.8235 104.2353 L156.0 105.2941 L157.0588 104.4706 L157.0588 102.4706 L158.7059 102.0 L158.4706 103.0588 L158.5882 101.4118 L160.1176 100.8235 L161.2941 101.1765 L162.9412 101.2941 L163.2941 101.6471 L165.1765 101.6471 L164.2353 103.5294 L164.4706 105.5294 L165.8824 105.2941 L164.4706 105.5294 L164.3529 104.1176 L165.7647 104.1176 L164.3529 104.1176 L164.9412 102.3529 L165.8824 102.9412 L165.6471 101.6471 L166.8235 101.6471 L166.4706 103.0588 L166.4706 102.1176 L167.5294 103.6471 L166.9412 101.7647 L168.4706 103.0588 L170.3529 102.7059 L169.2941 104.1176 L170.4706 106.1176 L171.6471 106.5882 L173.0588 105.7647 L171.5294 108.7059 L172.4706 108.1176 L172.2353 110.2353 L173.1765 110.4706 L172.9412 109.4118 L173.8824 111.8824 L174.4706 111.5294 L174.4706 110.1176 L174.9412 111.0588 L174.8235 112.2353 L173.2941 112.2353 L175.0588 112.3529 L174.1176 114.0 L175.6471 115.1765 L176.5882 114.8235 L176.9412 116.0 L177.4118 118.0 L178.1176 119.4118 L176.4706 120.3529 L176.8235 120.9412 L175.8824 120.9412 L176.9412 120.9412 L175.8824 121.5294 L177.0588 121.2941 L177.4118 121.8824 L175.6471 121.8824 L175.1765 123.1765 L176.0 124.3529 L174.7059 124.7059 L174.2353 125.7647 L175.1765 126.1176 L173.4118 126.4706 L172.8235 127.4118 L172.9412 128.3529 L172.0 128.9412 L172.1176 130.0 L170.5882 130.8235 L171.5294 131.1765 L170.3529 132.3529 L170.2353 133.2941 L169.1765 135.4118 L170.4706 135.4118 L169.4118 135.1765 L170.4706 135.2941 L170.0 134.3529 L171.0588 134.4706 L171.5294 132.9412 L172.0 132.0 L172.8235 131.0588 L173.2941 129.7647 L172.3529 128.9412 L173.2941 128.7059 L173.5294 129.6471 L174.7059 130.2353 L174.9412 130.9412 L174.9412 131.8824 L175.4118 133.0588 L175.4118 132.0 L175.0588 130.7059 L173.8824 128.8235 L175.5294 126.3529 L174.8235 125.1765 L176.0 124.7059 L176.5882 123.2941 L177.5294 122.4706 L178.4706 123.2941 L177.5294 122.3529 L177.5294 120.4706 L178.7059 120.7059 L179.5294 119.7647 L181.2941 122.1176 L178.7059 118.7059 L177.2941 117.1765 L177.6471 116.0 L177.8824 116.9412 L179.4118 117.4118 L179.1765 117.1765 L180.5882 117.1765 L179.0588 117.0588 L179.4118 114.8235 L178.7059 113.6471 L177.4118 113.4118 L177.0588 110.7059 L175.1765 109.7647 L174.9412 108.3529 L173.0588 108.3529 L174.1176 106.7059 L173.8824 105.6471 L172.8235 105.4118 L171.5294 106.1176 L170.3529 105.0588 L171.7647 105.7647 L174.3529 104.7059 L174.7059 103.6471 L173.5294 103.1765 L172.1176 102.9412 L173.4118 102.7059 L172.3529 102.0 L173.2941 101.6471 L172.3529 101.5294 L172.4706 100.5882 L171.2941 101.2941 L172.0 99.0588 L170.9412 97.1765 L173.2941 96.8235 L173.4118 98.3529 L173.5294 97.2941 L174.8235 96.7059 L175.1765 97.7647 L176.2353 98.9412 L176.3529 97.6471 L175.2941 97.0588 L178.2353 96.7059 L176.7059 96.8235 L178.3529 97.1765 L176.9412 97.8824 L178.3529 97.4118 L176.8235 98.2353 L178.2353 98.0 L176.8235 98.9412 L178.3529 98.0 L180.2353 98.1176 L178.2353 99.6471 L179.2941 99.4118 L181.2941 100.0 L181.0588 98.5882 L180.5882 96.9412 L183.8824 96.0 L184.0 97.0588 L182.0 98.4706 L182.9412 99.7647 L182.1176 100.9412 L183.1765 100.4706 L182.9412 99.5294 L182.3529 98.2353 L183.2941 98.4706 L183.2941 97.5294 L183.8824 95.8824 L186.0 95.0588 L185.0588 96.2353 L184.8235 97.0588 L184.8235 98.5882 L186.1176 97.2941 L187.0588 98.0 L187.4118 99.0588 L188.3529 98.1176 L188.4706 99.0588 L186.5882 101.1765 L188.8235 98.9412 L188.3529 97.6471 L189.4118 97.5294 L188.9412 95.7647 L190.8235 96.0 L190.8235 95.0588 L190.7059 93.8824 L191.7647 93.7647 L192.7059 92.7059 L193.1765 93.6471 L192.1176 94.5882 L193.1765 93.6471 L193.0588 94.7059 L194.1176 94.9412 L192.3529 95.6471 L193.8824 95.5294 L193.6471 96.8235 L194.5882 97.6471 L194.1176 96.5882 L194.2353 95.6471 L195.2941 93.8824 L196.5882 92.4706 L197.1765 93.5294 L197.8824 91.8824 L199.5294 92.8235 L199.7647 90.3529 L200.8235 90.2353 L201.8824 89.2941 L200.9412 90.0 L200.8235 88.8235 L200.9412 90.0 L199.6471 90.2353 L198.9412 92.1176 L198.0 91.7647 L196.9412 92.4706 L195.8824 92.0 L194.8235 92.2353 L194.5882 90.7059 L195.8824 90.1176 L196.4706 91.0588 L195.8824 89.8824 L194.5882 89.7647 L195.2941 86.8235 L194.8235 84.9412 L194.7059 82.4706 L195.7647 81.8824 L194.1176 82.2353 L194.1176 78.4706 L193.0588 75.4118 L192.8235 74.4706 L192.5882 73.1765 L192.5882 74.2353 L188.3529 65.8824 L185.6471 60.5882 L183.1765 54.1176 L181.7647 47.0588 L186.5882 46.9412 L190.4706 45.1765 L192.0 44.0 L194.1176 44.1176 L194.5882 45.8824 L193.6471 46.0 L195.0588 45.8824 L195.2941 46.8235 L194.7059 47.1765 L195.6471 47.1765 L195.6471 47.5294 L196.7059 47.5294 L198.5882 48.0 L199.8824 48.5882 L198.9412 50.0 L197.8824 49.8824 L196.5882 48.5882 L197.6471 49.4118 L197.5294 50.3529 L198.4706 49.6471 L198.1176 51.4118 L197.0588 51.0588 L198.1176 51.5294 L199.0588 51.7647 L198.5882 52.7059 L197.6471 52.4706 L199.0588 52.8235 L199.7647 51.2941 L201.6471 49.8824 L200.2353 51.8824 L201.8824 50.0 L201.1765 51.4118 L202.9412 51.4118 L202.7059 52.4706 L200.9412 53.5294 L200.8235 52.2353 L200.8235 53.5294 L201.0588 56.1176 L202.0 58.0 L203.7647 58.2353 L203.6471 59.2941 L203.8824 58.1176 L202.8235 57.7647 L204.2353 57.1765 L204.3529 56.1176 L205.2941 58.0 L207.1765 59.1765 L206.9412 60.4706 L205.0588 60.4706 L204.9412 58.9412 L204.4706 59.8824 L205.1765 60.7059 L207.0588 60.7059 L208.2353 61.4118 L209.2941 61.4118 L207.4118 63.8824 L206.2353 63.8824 L205.1765 62.4706 L205.7647 63.4118 L205.0588 66.1176 L206.2353 66.3529 L207.4118 69.0588 L208.4706 69.0588 L209.7647 69.8824 L208.9412 71.6471 L212.7059 68.9412 L212.4706 73.5294 L210.8235 73.6471 L210.4706 74.5882 L211.7647 76.7059 L213.5294 78.1176 L215.1765 78.5882 L216.3529 77.8824 L216.9412 76.8235 L217.8824 76.9412 L219.1765 78.0 L221.2941 78.2353 L222.3529 79.6471 L219.7647 79.1765 L218.2353 79.8824 L216.9412 81.5294 L216.7059 83.1765 L217.7647 83.7647 L219.0588 82.1176 L220.2353 81.6471 L221.1765 82.2353 L224.4706 82.5882 L223.7647 84.3529 L220.8235 84.2353 L220.0 85.8824 L218.4706 86.5882 L221.0588 88.9412 L222.5882 88.2353 L224.1176 87.7647 L226.5882 88.4706 L227.6471 88.3529 L226.3529 88.1176 L226.1176 85.7647 L224.7059 84.3529 L224.3529 80.4706 L225.8824 81.6471 L228.0 86.9412 L231.8824 93.8824 L235.2941 97.7647 L235.4118 98.9412 L233.8824 97.2941 L231.6471 96.3529 L232.1176 95.4118 L230.9412 94.5882 L230.9412 93.5294 L229.6471 91.1765 L227.1765 91.2941 L227.6471 90.0 L227.8824 88.7059 L226.5882 88.4706 L227.1765 90.7059 L226.1176 91.1765 L226.3529 92.3529 L225.4118 93.1765 L225.2941 94.8235 L227.0588 95.8824 L228.5882 98.0 L232.0 99.2941 L232.3529 100.2353 L232.0 101.7647 L233.1765 102.9412 L233.0588 104.3529 L235.7647 104.5882 L236.2353 107.1765 L238.7059 108.0 L239.5294 108.9412 L236.2353 106.9412 L236.4706 104.8235 L234.8235 104.3529 L236.7059 104.4706 L235.2941 103.5294 L236.4706 102.7059 L235.0588 103.4118 L235.0588 102.2353 L236.3529 101.6471 L235.5294 100.4706 L244.3529 110.8235 L246.9412 113.2941 L251.0588 115.6471 L252.4706 117.7647 L252.2353 120.0 L250.8235 119.5294 L250.4706 118.5882 L247.8824 116.3529 L245.8824 115.2941 L245.6471 114.3529 L244.5882 115.1765 L245.1765 113.8824 L244.1176 115.1765 L243.7647 114.2353 L244.8235 113.6471 L243.6471 114.1176 L242.4706 112.9412 L241.5294 111.1765 L240.0 110.9412 L239.5294 109.7647 L239.0588 110.9412 L239.6471 114.5882 L240.3529 116.0 L241.4118 116.0 L240.5882 117.6471 L239.0588 117.8824 L238.4706 122.0 L239.1765 123.0588 L238.8235 124.5882 L240.0 124.4706 L240.1176 126.3529 L239.8824 125.1765 L239.4118 124.0 L240.7059 121.1765 L241.7647 121.1765 L242.8235 122.3529 L244.5882 122.0 L246.3529 123.0588 L246.1176 124.1176 L247.1765 124.3529 L248.2353 125.2941 L249.7647 125.1765 L248.4706 124.2353 L246.8235 124.1176 L247.4118 122.7059 L249.4118 121.1765 L251.0588 123.2941 L249.4118 124.2353 L249.7647 125.1765 L249.7647 126.2353 L249.4118 127.1765 L250.8235 128.0 L250.9412 129.6471 L252.1176 130.7059 L253.7647 130.9412 L253.5294 132.3529 L253.8824 130.9412 L254.1176 129.6471 L254.2353 128.5882 L255.0588 130.2353 L254.3529 131.7647 L253.6471 134.1176 L254.8235 132.3529 L256.1176 132.5882 L256.1176 130.9412 L256.2353 133.2941 L257.7647 132.8235 L256.8235 133.2941 L258.2353 134.2353 L257.7647 135.5294 L256.9412 136.7059 L257.5294 138.3529 L258.5882 139.1765 L260.8235 138.5882 L262.1176 137.5294 L262.3529 136.5882 L263.5294 137.7647 L264.1176 136.1176 L266.2353 136.2353 L268.8235 135.1765 L270.1176 134.0 L270.3529 135.4118 L269.0588 135.6471 L268.1176 137.2941 L269.4118 137.8824 L269.2941 139.0588 L270.0 140.1176 L269.1765 139.0588 L269.8824 140.1176 L268.3529 138.4706 L267.4118 138.2353 L266.7059 137.1765 L267.8824 137.2941 L267.4118 136.2353 L267.5294 137.1765 L266.2353 137.7647 L266.9412 138.8235 L266.0 138.8235 L264.4706 139.4118 L265.6471 138.9412 L267.1765 139.4118 L265.6471 140.3529 L264.4706 140.3529 L265.4118 140.5882 L266.7059 140.0 L265.7647 140.5882 L267.2941 140.9412 L267.8824 142.1176 L266.7059 142.3529 L266.3529 141.2941 L265.4118 141.1765 L263.4118 141.4118 L262.7059 142.4706 L263.5294 143.4118 L263.5294 144.3529 L262.2353 144.7059 L263.6471 144.3529 L263.2941 145.2941 L264.1176 146.3529 L264.5882 147.6471 L264.8235 148.8235 L264.7059 147.2941 L267.1765 147.2941 L267.5294 149.5294 L266.1176 149.8824 L267.5294 149.6471 L265.4118 150.1176 L267.7647 150.5882 L266.5882 151.4118 L268.1176 150.8235 L268.1176 152.8235 L270.2353 153.1765 L270.2353 154.2353 L269.6471 155.6471 L270.5882 155.1765 L269.6471 155.8824 L270.5882 155.2941 L270.7059 156.2353 L271.7647 156.0 L270.4706 156.8235 L273.5294 155.0588 L276.4706 152.2353 L277.7647 154.5882 L276.5882 155.7647 L275.5294 156.8235 L276.7059 156.0 L276.4706 156.9412 L278.3529 156.5882 L279.4118 155.4118 L278.9412 156.9412 L277.8824 156.9412 L278.9412 156.9412 L278.5882 158.2353 L277.5294 158.7059 L276.4706 158.2353 L277.4118 158.8235 L276.0 159.4118 L274.3529 158.5882 L275.2941 157.8824 L272.5882 160.0 L274.1176 160.4706 L275.6471 160.3529 L276.8235 160.0 L276.5882 161.6471 L278.0 161.7647 L279.4118 160.8235 L279.6471 161.7647 L279.4118 160.7059 L280.2353 160.8235 L280.2353 159.4118 L281.5294 160.1176 L281.6471 161.4118 L280.7059 161.7647 L279.4118 162.8235 L278.4706 162.0 L279.1765 163.2941 L277.0588 165.0588 L276.7059 166.2353 L276.7059 167.7647 L275.4118 169.1765 L274.0 169.6471 L271.8824 168.1176 L272.1176 169.2941 L270.2353 168.1176 L271.7647 168.5882 L272.5882 170.2353 L272.3529 168.8235 L273.1765 169.7647 L274.1176 170.0 L274.0 171.4118 L274.5882 169.5294 L276.3529 169.2941 L276.1176 171.1765 L276.8235 173.0588 L275.6471 174.3529 L274.4706 175.8824 L273.5294 175.8824 L273.1765 174.8235 L273.1765 174.7059 L273.1765 172.8235 L271.7647 173.1765 L270.8235 173.7647 L270.7059 172.8235 L269.1765 173.1765 L268.7059 172.2353 L267.1765 171.2941 L267.6471 172.4706 L268.7059 173.0588 L270.4706 172.8235 L270.7059 174.2353 L270.2353 175.6471 L270.8235 177.0588 L269.8824 177.4118 L269.8824 175.2941 L268.3529 174.9412 L267.6471 177.0588 L265.7647 175.4118 L264.7059 175.8824 L264.4706 177.2941 L263.4118 176.8235 L263.1765 175.8824 L262.2353 174.8235 L262.3529 176.0 L261.6471 176.9412 L260.8235 175.4118 L260.8235 176.3529 L261.5294 177.4118 L261.4118 178.3529 L260.3529 177.8824 L260.3529 179.7647 L259.2941 179.7647 L258.8235 181.0588 L257.2941 179.6471 L256.1176 180.2353 L254.1176 181.5294 L253.2941 183.2941 L250.7059 183.7647 L253.1765 183.4118 L251.8824 186.1176 L250.1176 185.8824 L248.8235 186.5882 L247.7647 186.1176 L246.4706 188.1176 L246.1176 189.4118 L244.5882 190.1176 L242.1176 191.8824 L240.7059 191.6471 L241.6471 191.8824 L240.3529 192.3529 L239.0588 191.2941 L238.5882 191.7647 L238.5882 192.9412 L237.4118 191.8824 L238.0 192.9412 L239.1765 191.5294 L239.8824 192.8235 L245.1765 190.3529 L246.4706 189.5294 L246.7059 188.2353 L247.7647 187.7647 L250.8235 186.4706 L251.7647 187.2941 L253.4118 184.5882 L256.1176 182.7059 L257.2941 181.7647 L257.1765 180.3529 L258.8235 181.4118 L259.5294 180.4706 L261.4118 183.7647 L260.5882 180.7059 L261.4118 179.5294 L263.2941 179.5294 L263.7647 178.5882 L262.8235 177.7647 L264.3529 178.2353 L265.6471 178.5882 L264.8235 179.5294 L264.1176 181.6471 L263.0588 181.8824 L264.0 181.7647 L263.6471 184.5882 L264.1176 185.5294 L262.7059 186.8235 L262.0 190.5882 L261.4118 192.1176 L260.7059 194.0 L260.7059 195.2941 L261.8824 193.6471 L260.8235 192.7059 L261.6471 192.4706 L261.6471 191.2941 L262.7059 190.3529 L262.4706 189.1765 L262.9412 188.1176 L263.2941 186.7059 L264.2353 186.2353 L265.7647 188.0 L264.5882 186.9412 L265.0588 185.4118 L264.0 184.5882 L263.8824 183.0588 L264.8235 182.4706 L264.8235 181.5294 L265.7647 182.1176 L264.8235 181.5294 L264.7059 182.4706 L264.7059 180.5882 L265.7647 180.5882 L264.9412 179.6471 L265.7647 178.7059 L265.0588 177.4118 L266.8235 177.5294 L266.9412 178.4706 L267.4118 179.5294 L266.8235 180.4706 L265.6471 181.1765 L266.8235 180.5882 L266.9412 179.6471 L268.2353 179.6471 L267.4118 177.6471 L268.9412 175.5294 L269.1765 177.4118 L269.8824 178.8235 L270.9412 177.8824 L272.5882 177.5294 L273.6471 177.1765 L276.0 178.3529 L275.1765 179.6471 L275.5294 180.9412 L274.5882 180.5882 L273.4118 180.0 L273.7647 181.0588 L274.9412 181.1765 L276.1176 180.8235 L277.6471 180.2353 L277.8824 181.2941 L277.5294 180.1176 L276.1176 180.3529 L276.1176 178.7059 L276.4706 177.7647 L277.2941 178.9412 L276.5882 177.6471 L276.1176 176.0 L277.1765 178.0 L278.1176 178.2353 L277.4118 177.2941 L278.4706 177.0588 L278.4706 176.1176 L277.4118 176.0 L278.9412 176.1176 L278.9412 174.7059 L279.6471 173.2941 L280.8235 173.5294 L281.7647 173.7647 L280.7059 174.7059 L281.8824 174.3529 L281.2941 175.4118 L281.8824 174.0 L283.4118 175.0588 L284.4706 174.9412 L284.3529 175.8824 L283.2941 175.1765 L282.3529 174.9412 L282.9412 176.1176 L283.8824 175.7647 L282.0 177.5294 L281.8824 176.4706 L281.1765 177.5294 L281.4118 178.4706 L282.8235 178.0 L282.8235 177.0588 L283.7647 177.1765 L284.5882 178.2353 L285.5294 178.5882 L286.5882 178.1176 L287.5294 177.7647 L287.8824 178.7059 L289.1765 180.0 L288.7059 183.1765 L288.5882 184.4706 L288.7059 183.2941 L288.9412 182.1176 L290.2353 181.7647 L291.1765 181.6471 L291.2941 183.0588 L290.3529 182.3529 L291.5294 183.5294 L289.7647 182.8235 L291.1765 183.5294 L289.6471 183.0588 L291.5294 183.6471 L292.8235 184.1176 L293.0588 185.5294 L291.7647 186.3529 L292.7059 186.4706 L293.7647 186.1176 L293.0588 187.2941 L294.5882 187.5294 L295.6471 188.3529 L297.1765 187.5294 L296.7059 189.0588 L294.8235 189.5294 L293.6471 191.5294 L294.9412 189.5294 L296.2353 188.9412 L298.2353 189.6471 L299.5294 189.5294 L301.2941 188.1176 L302.2353 188.9412 L302.0 190.2353 L300.8235 190.4706 L300.4706 191.4118 L299.5294 191.8824 L298.0 193.1765 L296.4706 193.7647 L298.0 193.2941 L299.0588 192.2353 L300.5882 191.6471 L301.7647 191.0588 L301.8824 192.9412 L302.0 194.5882 L301.6471 195.8824 L302.2353 194.7059 L301.6471 193.2941 L302.7059 192.1176 L303.6471 192.9412 L303.5294 194.7059 L304.0 194.2353 L304.0 195.6471 L303.2941 198.0 L301.8824 200.8235 L303.6471 198.5882 L303.6471 197.2941 L304.9412 196.5882 L306.0 196.9412 L306.7059 197.8824 L308.3529 196.9412 L307.8824 198.7059 L308.3529 197.2941 L309.5294 196.9412 L309.0588 198.8235 L307.6471 200.5882 L308.4706 199.6471 L309.1765 200.5882 L308.4706 201.8824 L309.4118 200.9412 L308.2353 203.0588 L310.1176 201.6471 L309.5294 203.8824 L308.3529 204.9412 L309.7647 203.7647 L310.0 202.7059 L311.6471 205.8824 L311.4118 206.8235 L313.0588 207.5294 L315.1765 208.2353 L315.0588 210.0 L313.6471 210.3529 L313.1765 211.7647 L315.0588 210.7059 L316.3529 210.4706 L318.2353 209.8824 L317.2941 211.5294 L316.2353 211.1765 L314.8235 211.1765 L316.0 211.4118 L318.0 212.2353 L317.0588 212.7059 L315.0588 214.3529 L313.8824 214.1176 L312.9412 214.2353 L314.0 214.9412 L315.1765 214.4706 L316.1176 214.4706 L317.2941 214.5882 L318.5882 213.7647 L317.7647 215.5294 L318.1176 216.8235 L317.0588 216.8235 L318.4706 217.5294 L316.3529 218.3529 L315.2941 218.7059 L314.7059 219.6471 L315.5294 218.3529 L315.0588 217.2941 L314.8235 217.2941 L314.8235 218.3529 L313.7647 218.9412 L314.4706 217.5294 L314.7059 216.3529 L314.0 215.7647 L313.0588 215.7647 L314.5882 216.3529 L314.2353 217.6471 L312.9412 219.4118 L312.4706 220.4706 L312.4706 221.6471 L313.0588 223.1765 L313.2941 222.0 L313.2941 223.0588 L313.4118 222.0 L313.5294 222.9412 L312.5882 221.5294 L312.5882 220.5882 L312.5882 219.5294 L313.5294 219.5294 L314.5882 220.5882 L314.0 223.5294 L313.0588 223.2941 L312.5882 224.3529 L313.5294 224.4706 L314.0 223.5294 L314.5882 224.8235 L315.1765 225.7647 L314.1176 226.3529 L315.1765 225.7647 L314.9412 226.7059 L315.4118 228.0 L314.4706 228.9412 L315.6471 228.7059 L315.8824 230.1176 L314.2353 230.1176 L315.4118 230.2353 L315.4118 231.4118 L316.3529 231.5294 L317.8824 233.5294 L316.8235 233.6471 L315.7647 233.1765 L313.6471 233.8824 L314.5882 234.2353 L316.2353 233.7647 L317.7647 234.0 L318.9412 235.1765 L316.8235 235.0588 L317.7647 235.4118 L318.3529 236.7059 L317.0588 236.3529 L318.3529 236.7059 L318.5882 235.2941 L319.5294 236.5882 L318.1176 236.8235 L317.1765 236.9412 L316.2353 236.3529 L312.0 235.8824 L311.2941 234.7059 L311.7647 235.8824 L316.3529 237.5294 L319.1765 237.5294 L322.4706 240.4706 L321.1765 239.7647 L322.0 240.8235 L320.9412 239.8824 L321.7647 240.8235 L320.8235 240.0 L319.7647 240.2353 L321.8824 240.9412 L319.4118 241.2941 L317.1765 242.2353 L319.5294 241.5294 L321.4118 241.7647 L322.5882 242.0 L323.7647 243.6471 L323.4118 244.9412 L324.3529 243.8824 L324.9412 244.9412 L320.0 245.1765 L322.9412 245.1765 L321.1765 245.2941 L322.4706 245.5294 L324.0 245.0588 L323.8824 246.8235 L323.4118 245.8824 L322.0 246.0 L318.9412 246.7059 L318.3529 247.2941 L319.2941 247.2941 L322.1176 247.2941 L324.5882 247.7647 L323.6471 248.0 L323.5294 249.1765 L322.5882 249.4118 L323.4118 249.8824 L322.2353 249.8824 L323.1765 249.8824 L322.2353 250.1176 L323.1765 250.3529 L322.9412 251.2941 L323.0588 252.1176 L324.0 252.1176 L323.8824 253.2941 L323.6471 254.5882 L323.6471 255.5294 L324.2353 254.2353 L325.2941 255.5294 L324.1176 256.0 L322.5882 256.2353 L322.8235 257.1765 L322.7059 256.2353 L323.6471 257.0588 L324.4706 256.1176 L325.8824 257.2941 L327.2941 257.1765 L328.5882 258.4706 L328.0 259.7647 L328.9412 260.7059 L326.9412 260.8235 L326.8235 259.8824 L325.8824 260.0 L324.4706 260.1176 L322.7059 260.4706 L322.0 261.5294 L320.2353 260.9412 L320.9412 261.8824 L317.2941 263.0588 L316.2353 262.4706 L314.3529 264.1176 L313.1765 264.8235 L314.5882 265.0588 L315.4118 264.1176 L316.3529 264.1176 L317.8824 264.3529 L319.6471 264.0 L320.9412 262.9412 L322.3529 262.4706 L323.4118 262.1176 L324.1176 263.2941 L323.1765 264.1176 L324.2353 263.4118 L326.1176 263.7647 L326.2353 264.8235 L326.2353 263.7647 L327.2941 264.4706 L328.0 265.5294 L328.1176 267.5294 L325.1765 267.8824 L326.2353 267.4118 L327.5294 268.2353 L327.8824 269.6471 L326.4706 269.6471 L327.1765 270.7059 L325.8824 271.5294 L324.9412 271.5294 L324.2353 272.9412 L322.2353 275.0588 L321.1765 275.1765 L321.1765 276.1176 L323.6471 275.7647 L323.2941 276.7059 L322.1176 276.8235 L323.8824 276.9412 L325.0588 276.2353 L326.9412 276.3529 L327.2941 277.5294 L326.0 278.0 L327.7647 278.2353 L327.8824 276.5882 L328.7059 279.0588 L327.5294 279.0588 L326.9412 280.0 L322.8235 280.1176 L325.4118 280.5882 L323.4118 281.4118 L325.0588 281.4118 L323.2941 283.2941 L324.4706 282.8235 L323.7647 284.1176 L324.3529 283.0588 L326.2353 281.4118 L327.2941 281.6471 L326.7059 282.5882 L326.7059 283.6471 L327.2941 282.4706 L328.7059 281.6471 L329.1765 279.7647 L330.5882 280.0 L332.2353 279.0588 L333.7647 281.1765 L332.7059 281.4118 L333.5294 282.5882 L332.5882 282.7059 L333.7647 282.9412 L334.0 284.1176 L336.0 284.2353 L337.2941 285.2941 L336.2353 286.5882 L334.3529 287.5294 L332.1176 286.5882 L330.3529 287.6471 L329.5294 286.7059 L328.3529 287.4118 L326.8235 288.0 L325.5294 288.1176 L326.4706 288.8235 L325.4118 289.5294 L324.3529 290.1176 L322.5882 292.2353 L323.5294 291.5294 L324.4706 290.7059 L325.4118 290.5882 L328.7059 288.2353 L332.9412 288.5882 L334.5882 289.0588 L336.0 288.7059 L335.4118 289.6471 L333.6471 289.1765 L329.8824 289.4118 L334.1176 289.7647 L331.6471 291.0588 L331.4118 293.6471 L332.2353 291.7647 L332.7059 290.8235 L334.5882 289.6471 L335.5294 290.1176 L338.2353 290.4706 L338.0 291.6471 L338.9412 290.9412 L338.7059 288.8235 L337.6471 282.7059 L336.1176 281.5294 L337.2941 282.2353 L336.8235 281.5294 L335.8824 281.5294 L337.0588 281.4118 L336.1176 280.9412 L337.2941 280.4706 L336.2353 280.0 L335.6471 279.0588 L336.9412 279.6471 L336.8235 278.3529 L336.3529 276.8235 L336.4706 278.0 L335.2941 277.1765 L336.2353 276.3529 L335.6471 274.7059 L335.4118 273.5294 L334.3529 273.0588 L335.2941 272.5882 L334.3529 272.5882 L334.4706 271.6471 L334.7059 270.5882 L334.1176 268.9412 L332.3529 268.2353 L333.5294 267.4118 L333.6471 266.3529 L332.7059 266.8235 L333.0588 264.9412 L333.2941 263.6471 L333.4118 261.8824 L332.5882 260.7059 L333.6471 260.7059 L333.1765 260.5882 L333.1765 258.2353 L332.0 255.8824 L330.4706 255.8824 L332.3529 255.8824 L332.0 254.9412 L331.6471 253.0588 L332.5882 251.1765 L332.0 248.8235 L331.5294 241.5294 L331.1765 240.4706 L331.2941 238.4706 L330.5882 233.0588 L329.7647 232.0 L329.6471 230.4706 L330.5882 227.5294 L329.6471 227.8824 L330.2353 226.3529 L329.2941 225.7647 L328.2353 226.4706 L326.9412 227.6471 L327.2941 226.3529 L328.8235 225.4118 L330.4706 223.6471 L333.8824 255.8824 L336.5882 274.4706 L340.2353 293.7647 L341.6471 298.7059 L340.5882 299.4118 L340.3529 298.9412 L339.0588 298.9412 L337.7647 298.2353 L336.7059 296.5882 L335.0588 295.8824 L334.0 296.0 L332.5882 296.9412 L331.5294 298.5882 L329.5294 299.2941 L330.4706 299.5294 L330.4706 301.0588 L330.1176 302.1176 L329.7647 304.1176 L330.3529 305.0588 L330.4706 303.5294 L331.2941 302.3529 L331.6471 300.8235 L332.0 300.1176 L332.0 298.9412 L332.5882 298.0 L333.8824 297.2941 L334.9412 297.2941 L336.7059 298.3529 L339.2941 300.5882 L338.1176 300.9412 L338.3529 302.0 L339.4118 301.5294 L340.3529 301.6471 L340.0 300.4706 L339.0588 300.3529 L340.5882 300.0 L342.2353 305.6471 L345.6471 317.8824 L343.7647 318.0 L342.4706 317.4118 L341.6471 316.3529 L340.3529 316.3529 L337.8824 316.8235 L336.7059 319.2941 L338.0 318.7059 L340.0 317.5294 L340.4706 318.9412 L340.2353 319.8824 L342.2353 319.2941 L342.8235 318.1176 L345.5294 318.1176 L345.8824 321.1765 L347.7647 327.7647 L350.3529 340.2353 L351.7647 350.8235 L351.8824 357.4118 L351.2941 367.1765 L350.2353 370.4706 L350.0 376.3529 L348.2353 381.0588 L346.1176 384.2353 L345.6471 383.2941 L344.0 383.2941 L343.7647 382.0 L345.7647 380.9412 L346.4706 376.8235 L348.0 376.3529 L337.2941 376.3529 L348.1176 376.2353 L348.0 372.5882 L349.4118 371.8824 L349.7647 369.7647 L348.7059 370.3529 L350.3529 368.7059 L350.1176 367.4118 L350.9412 365.5294 L351.4118 358.8235 L350.7059 351.6471 L349.6471 352.5882 L348.7059 351.0588 L348.5882 352.0 L347.6471 351.6471 L348.5882 350.8235 L348.9412 349.5294 L349.8824 349.6471 L349.6471 348.3529 L349.4118 349.4118 L347.7647 349.6471 L348.1176 348.5882 L349.0588 346.4706 L347.7647 347.1765 L345.7647 345.6471 L346.8235 346.7059 L347.6471 348.5882 L347.2941 350.3529 L345.4118 349.6471 L345.1765 348.4706 L345.2941 349.8824 L343.7647 348.9412 L343.4118 348.0 L342.7059 346.7059 L341.6471 346.7059 L343.0588 348.4706 L340.7059 348.3529 L339.6471 347.2941 L338.7059 347.2941 L341.5294 348.7059 L343.2941 348.8235 L344.1176 351.0588 L342.5882 350.7059 L344.7059 351.8824 L341.7647 351.7647 L343.5294 352.4706 L344.2353 353.4118 L344.4706 352.8235 L345.5294 352.8235 L345.7647 353.7647 L344.9412 354.0 L345.8824 354.0 L346.8235 355.1765 L347.8824 355.5294 L349.4118 355.8824 L350.8235 357.2941 L350.4706 360.4706 L347.6471 360.3529 L345.1765 361.1765 L344.1176 360.3529 L343.0588 360.5882 L341.6471 358.5882 L339.0588 358.7059 L337.8824 357.7647 L337.4118 356.3529 L335.5294 355.2941 L334.2353 356.0 L333.6471 354.2353 L332.5882 353.2941 L333.0588 352.3529 L333.2941 354.7059 L333.8824 356.3529 L335.4118 356.5882 L335.5294 358.2353 L337.2941 359.2941 L339.1765 359.7647 L342.5882 361.8824 L344.1176 362.2353 L344.1176 363.5294 L342.7059 364.8235 L343.7647 364.5882 L344.3529 363.5294 L345.7647 363.2941 L346.7059 363.8824 L347.8824 362.2353 L350.1176 362.4706 L350.3529 364.8235 L349.8824 366.5882 L346.9412 368.4706 L345.7647 368.2353 L343.0588 368.9412 L340.9412 369.7647 L340.0 369.7647 L336.7059 371.2941 L334.1176 373.2941 L333.1765 373.6471 L327.1765 376.3529 L324.0 378.7059 L321.6471 376.9412 L320.7059 376.7059 L318.4706 376.9412 L316.8235 378.8235 L314.8235 376.5882 L313.8824 375.2941 L310.4706 373.8824 L311.5294 374.8235 L311.0588 376.4706 L308.4706 377.8824 L306.5882 378.8235 L305.0588 379.0588 L302.9412 380.2353 L300.8235 378.3529 L300.8235 377.4118 L302.5882 380.3529 L300.7059 385.0588 L300.2353 386.3529 L297.6471 386.9412 L296.5882 388.3529 L297.0588 389.4118 L294.1176 389.2941 L292.2353 385.7647 L290.4706 384.5882 L287.8824 384.0 L286.5882 384.1176 L286.1176 382.8235 L285.0588 381.8824 L283.7647 381.6471 L284.2353 383.6471 L282.7059 383.2941 L281.4118 383.7647 L281.0588 385.4118 L279.4118 384.2353 L278.8235 385.8824 L277.5294 385.8824 L276.5882 386.5882 L274.8235 385.4118 L273.1765 385.5294 L271.5294 388.4706 L269.8824 389.7647 L264.4706 391.0588 L262.0 395.0588 L258.8235 397.8824 L257.6471 401.1765 L255.8824 401.7647 L257.0588 401.8824 L258.1176 400.9412 L258.9412 398.0 L262.1176 395.0588 L264.7059 391.0588 L270.2353 390.0 L271.6471 388.7059 L272.5882 386.3529 L273.5294 385.7647 L274.7059 385.7647 L276.3529 386.9412 L278.7059 386.5882 L279.7647 385.4118 L280.7059 385.7647 L280.2353 385.8824 L281.4118 385.8824 L281.5294 384.2353 L283.6471 384.5882 L283.6471 386.0 L283.6471 384.5882 L284.5882 383.7647 L284.2353 382.1176 L285.7647 382.9412 L285.8824 384.7059 L287.0588 385.0588 L285.8824 386.4706 L287.0588 385.0588 L289.2941 385.5294 L290.4706 386.4706 L291.8824 388.9412 L294.5882 390.9412 L296.4706 391.1765 L297.7647 390.4706 L298.5882 389.2941 L301.4118 388.3529 L302.4706 391.4118 L303.1765 392.7059 L304.2353 393.4118 L303.5294 397.0588 L303.2941 400.8235 L303.4118 399.5294 L303.8824 400.4706 L307.2941 402.5882 L309.1765 401.7647 L310.2353 404.4706 L311.1765 409.8824 L312.4706 410.2353 L312.5882 411.2941 L311.6471 411.7647 L311.8824 415.5294 L312.3529 418.4706 L314.3529 420.9412 L316.3529 422.1176 L318.1176 423.0588 L320.0 425.0588 L321.5294 424.3529 L323.1765 427.6471 L319.5294 430.7059 L322.3529 429.0588 L323.7647 431.0588 L322.9412 432.1176 L320.5882 433.1765 L323.1765 432.4706 L324.3529 430.9412 L325.7647 432.9412 L326.3529 434.5882 L325.7647 437.4118 L326.7059 442.0 L325.7647 442.8235 L327.0588 442.7059 L326.4706 438.5882 L327.0588 437.4118 L329.4118 438.4706 L329.6471 439.4118 L330.7059 442.1176 L333.8824 443.7647 L333.8824 444.3529 L331.1765 444.3529 L330.4706 445.7647 L331.6471 448.2353 L331.4118 451.2941 L332.4706 453.0588 L331.2941 453.4118 L331.5294 454.3529 L332.4706 453.2941 L332.8235 454.5882 L334.1176 455.8824 L331.8824 458.1176 L334.4706 455.8824 L336.4706 457.7647 L341.1765 458.4706 L341.6471 460.1176 L340.4706 462.7059 L341.4118 463.2941 L341.5294 465.2941 L342.0 468.1176 L340.8235 471.1765 L340.9412 473.4118 L341.0588 473.6471 L341.0588 471.4118 L342.2353 468.4706 L341.8824 466.9412 L343.1765 465.2941 L344.7059 465.1765 L346.3529 471.1765 L345.5294 468.0 L344.9412 464.8235 L343.4118 464.8235 L342.2353 466.4706 L341.8824 464.8235 L342.2353 463.6471 L341.1765 462.4706 L342.1176 459.2941 L341.2941 457.8824 L340.3529 457.6471 L341.2941 456.9412 L342.2353 456.7059 L341.0588 455.6471 L341.2941 454.7059 L340.3529 454.2353 L340.1176 455.4118 L340.9412 456.5882 L340.0 455.7647 L339.0588 455.6471 L339.8824 456.7059 L339.5294 457.6471 L337.1765 457.2941 L335.5294 455.5294 L334.3529 455.1765 L331.7647 451.0588 L332.2353 448.7059 L331.2941 446.8235 L331.0588 445.1765 L333.8824 445.4118 L334.3529 443.6471 L333.2941 442.4706 L331.7647 442.0 L330.1176 437.7647 L328.8235 436.8235 L328.8235 434.4706 L328.0 432.3529 L327.6471 431.2941 L326.5882 429.0588 L325.5294 427.1765 L325.1765 425.7647 L324.2353 424.3529 L323.0588 423.6471 L322.2353 422.0 L322.3529 420.8235 L326.5882 421.4118 L327.0588 422.7059 L330.3529 422.1176 L332.1176 423.0588 L331.4118 425.0588 L331.6471 425.6471 L330.3529 425.6471 L328.5882 426.5882 L331.8824 426.2353 L334.9412 424.7059 L330.5882 427.8824 L331.8824 428.1176 L335.6471 425.8824 L333.0588 428.2353 L334.7059 427.8824 L334.9412 428.8235 L333.7647 429.6471 L334.8235 429.4118 L333.2941 431.0588 L334.7059 431.0588 L335.7647 432.3529 L337.6471 431.4118 L337.4118 432.4706 L340.0 434.5882 L341.0588 434.8235 L337.8824 436.3529 L339.7647 436.1176 L341.5294 436.5882 L341.4118 437.5294 L341.1765 438.9412 L342.4706 440.0 L341.7647 441.0588 L340.7059 441.2941 L342.4706 441.1765 L343.2941 443.7647 L343.2941 444.9412 L342.3529 446.1176 L343.7647 446.5882 L343.5294 447.5294 L344.5882 449.6471 L345.2941 450.1176 L345.2941 451.0588 L347.0588 452.5882 L348.4706 456.7059 L349.7647 457.4118 L349.7647 458.3529 L352.3529 463.1765 L352.2353 464.9412 L354.0 467.8824 L354.2353 469.6471 L356.5882 474.8235 L360.2353 474.0 L362.0 472.8235 L360.9412 472.7059 L359.8824 473.7647 L357.7647 469.7647 L356.1176 467.5294 L356.2353 466.1176 L354.9412 462.5882 L354.2353 461.1765 L349.1765 452.8235 L348.9412 451.6471 L348.1176 450.1176 L347.5294 449.0588 L346.5882 448.3529 L346.5882 447.4118 L345.1765 445.1765 L345.4118 444.1176 L344.9412 442.9412 L345.1765 441.0588 L344.4706 440.0 L344.8235 438.3529 L343.7647 434.9412 L344.8235 433.5294 L346.1176 434.1176 L347.2941 435.5294 L350.2353 435.7647 L351.8824 439.6471 L351.4118 441.6471 L351.8824 443.4118 L356.8235 450.4706 L356.7059 452.3529 L359.1765 455.1765 L359.1765 456.4706 L358.2353 458.3529 L358.1176 464.1176 L360.5882 469.2941 L362.2353 471.6471 L362.1176 472.7059 L358.4706 464.2353 L358.7059 457.8824 L359.4118 456.7059 L362.1176 455.4118 L363.7647 457.2941 L364.9412 457.7647 L366.7059 456.7059 L367.8824 456.8235 L369.6471 457.6471 L369.6471 458.5882 L371.0588 458.0 L373.0588 457.2941 L372.9412 458.8235 L374.0 460.1176 L374.9412 457.5294 L375.8824 457.2941 L375.8824 458.2353 L378.4706 459.2941 L382.4706 457.0588 L380.4706 458.9412 L380.1176 459.8824 L380.7059 458.9412 L381.6471 459.7647 L380.4706 460.4706 L380.0 461.8824 L378.8235 461.6471 L379.0588 462.5882 L378.5882 463.5294 L378.4706 466.0 L378.3529 467.8824 L379.0588 469.5294 L377.7647 469.5294 L377.2941 472.0 L377.7647 475.4118 L376.5882 476.3529 L377.6471 478.1176 L377.1765 476.2353 L377.5294 472.1176 L378.7059 472.1176 L378.7059 470.4706 L379.8824 469.7647 L380.5882 468.3529 L381.1765 467.0588 L381.5294 468.5882 L382.7059 470.0 L382.7059 471.5294 L383.7647 471.6471 L383.8824 472.8235 L384.0 474.0 L383.0588 474.5882 L382.2353 472.8235 L380.9412 471.0588 L379.6471 472.3529 L380.8235 471.7647 L382.5882 475.1765 L383.7647 476.1176 L384.2353 477.1765 L385.4118 479.0588 L384.7059 476.4706 L385.8824 477.4118 L387.0588 478.1176 L387.4118 479.4118 L386.8235 480.8235 L385.8824 481.6471 L386.9412 481.7647 L387.8824 481.2941 L388.3529 482.4706 L390.2353 482.3529 L390.9412 482.8235 L390.9412 484.5882 L391.0588 486.2353 L391.2941 485.0588 L392.0 486.1176 L391.8824 485.0588 L393.0588 485.8824 L392.4706 483.7647 L393.0588 485.1765 L394.0 485.1765 L394.7059 487.5294 L392.0 488.5882 L393.2941 488.5882 L392.8235 489.8824 L394.0 490.0 L393.6471 488.9412 L394.9412 488.3529 L395.8824 490.0 L395.6471 489.0588 L397.0588 488.9412 L398.0 490.0 L398.9412 490.9412 L399.8824 492.1176 L398.7059 487.7647 L399.4118 488.8235 L401.0588 488.8235 L400.4706 489.7647 L401.4118 490.0 L401.0588 491.4118 L402.3529 493.2941 L403.2941 493.8824 L404.9412 494.0 L405.8824 496.9412 L404.8235 497.4118 L405.2941 496.0 L404.3529 496.7059 L404.8235 498.7059 L405.7647 498.4706 L407.6471 501.8824 L408.5882 504.2353 L408.5882 502.4706 L409.5294 501.8824 L410.9412 501.8824 L411.4118 503.6471 L410.3529 504.8235 L411.2941 504.5882 L410.7059 505.7647 L411.7647 504.0 L412.0 505.2941 L412.3529 503.7647 L413.1765 506.2353 L413.4118 505.2941 L413.2941 504.2353 L414.8235 505.6471 L415.2941 507.8824 L416.4706 509.0588 L416.7059 506.4706 L417.1765 505.5294 L416.1176 505.4118 L416.7059 504.0 L417.7647 504.0 L417.8824 505.0588 L418.9412 505.1765 L419.4118 506.3529 L419.7647 507.7647 L420.1176 506.7059 L420.7059 505.7647 L420.3529 504.7059 L420.5882 503.6471 L419.6471 502.4706 L418.5882 503.2941 L418.2353 501.7647 L420.4706 501.8824 L421.0588 504.3529 L422.0 505.4118 L423.4118 506.7059 L424.2353 508.5882 L424.0 507.2941 L424.4706 506.7059 L424.4706 507.6471 L425.4118 508.2353 L424.8235 511.1765 L425.6471 508.9412 L425.6471 509.8824 L426.2353 508.7059 L426.3529 509.6471 L427.4118 511.0588 L427.0588 512.0 L427.7647 510.9412 L426.4706 509.0588 L427.6471 505.2941 L428.8235 506.0 L429.8824 508.3529 L428.8235 509.0588 L428.8235 511.1765 L429.1765 510.2353 L431.4118 510.2353 L431.8824 511.7647 L432.7059 512.0 L434.1176 512.0 L434.8235 510.8235 L435.1765 512.0 L436.4706 509.6471 L436.8235 511.4118 L436.7059 512.0 L512.0 512.0 L512.0 493.6471 L511.0588 493.6471 L511.0588 493.1765 L512.0 493.1765 L511.5294 491.6471 L510.5882 493.2941 L505.1765 495.2941 L502.7059 495.2941 L504.0 494.7059 L505.5294 494.9412 L504.9412 494.0 L506.8235 490.3529 L505.8824 489.2941 L505.0588 490.4706 L502.0 492.0 L502.2353 490.3529 L500.9412 489.8824 L500.9412 488.7059 L500.1176 490.0 L498.9412 490.3529 L498.9412 491.2941 L499.8824 490.1176 L501.1765 491.0588 L501.1765 492.5882 L500.2353 492.8235 L499.7647 494.2353 L498.0 493.1765 L498.5882 491.8824 L498.1176 490.7059 L498.4706 489.5294 L497.8824 490.9412 L496.8235 490.8235 L496.3529 492.2353 L498.2353 493.8824 L498.7059 494.9412 L500.2353 494.3529 L502.9412 493.8824 L502.3529 494.5882 L500.3529 494.5882 L498.1176 496.3529 L496.8235 495.1765 L494.9412 494.0 L494.7059 492.8235 L493.6471 492.8235 L492.5882 493.6471 L494.2353 493.5294 L491.1765 494.1176 L493.6471 491.4118 L493.0588 484.7059 L493.6471 485.1765 L493.6471 486.9412 L493.8824 488.7059 L494.3529 487.4118 L494.3529 486.4706 L493.7647 485.1765 L492.5882 483.5294 L493.0588 482.2353 L490.4706 481.5294 L489.0588 479.7647 L489.4118 477.2941 L488.1176 478.1176 L486.9412 480.2353 L487.0588 482.0 L488.8235 483.4118 L488.7059 482.3529 L489.5294 483.7647 L490.9412 483.6471 L492.4706 484.7059 L480.8235 480.5882 L478.4706 480.9412 L479.0588 480.0 L477.8824 480.9412 L472.8235 482.1176 L468.0 484.3529 L463.8824 485.0588 L459.2941 485.1765 L459.2941 483.5294 L459.0588 484.7059 L455.4118 486.1176 L451.4118 491.0588 L449.8824 491.4118 L449.1765 484.7059 L448.7059 482.3529 L448.9412 483.5294 L449.5294 485.5294 L452.0 484.0 L452.8235 485.1765 L452.2353 487.0588 L453.7647 486.3529 L452.9412 488.4706 L455.0588 485.8824 L454.1176 486.3529 L453.1765 485.2941 L454.9412 485.6471 L458.1176 483.8824 L457.6471 481.8824 L457.8824 478.8235 L457.8824 477.7647 L457.6471 476.7059 L456.2353 476.2353 L456.0 476.4706 L456.0 477.7647 L456.5882 478.7059 L454.1176 482.0 L453.0588 479.4118 L454.0 479.0588 L454.5882 477.7647 L453.2941 478.7059 L452.3529 479.7647 L450.4706 480.8235 L448.0 479.7647 L444.0 480.1176 L444.3529 478.8235 L446.4706 477.8824 L446.9412 476.8235 L446.5882 475.5294 L446.2353 476.4706 L445.5294 477.7647 L444.5882 478.0 L442.2353 478.7059 L443.4118 479.0588 L444.1176 480.8235 L442.8235 480.5882 L441.5294 481.7647 L436.1176 481.2941 L435.5294 480.7059 L435.5294 481.6471 L440.9412 482.0 L442.5882 483.5294 L444.2353 483.8824 L443.7647 481.8824 L444.9412 483.5294 L444.7059 485.4118 L443.5294 486.5882 L438.9412 487.1765 L436.3529 488.4706 L435.2941 489.5294 L433.8824 488.2353 L434.1176 487.1765 L434.7059 488.5882 L434.8235 487.6471 L433.8824 486.3529 L433.8824 487.4118 L433.1765 484.1176 L434.2353 483.1765 L436.1176 478.8235 L437.5294 473.1765 L439.2941 472.1176 L439.0588 469.6471 L437.8824 471.0588 L438.8235 470.9412 L438.9412 471.5294 L437.4118 471.5294 L436.7059 472.4706 L434.7059 473.5294 L434.2353 474.8235 L433.5294 477.7647 L431.0588 477.2941 L430.8235 476.0 L432.0 472.9412 L430.8235 473.2941 L428.8235 472.9412 L427.5294 473.7647 L425.5294 473.5294 L424.4706 475.5294 L424.4706 479.0588 L421.1765 478.1176 L421.7647 476.0 L420.1176 477.8824 L420.3529 479.1765 L421.6471 478.8235 L423.0588 480.2353 L424.3529 479.6471 L425.8824 479.7647 L426.9412 480.5882 L428.0 482.1176 L428.8235 480.8235 L428.7059 478.4706 L427.7647 477.0588 L426.9412 476.5882 L426.9412 475.6471 L429.1765 475.7647 L429.2941 477.8824 L429.8824 479.0588 L431.4118 479.1765 L431.0588 480.5882 L429.0588 482.2353 L427.1765 481.7647 L424.5882 480.8235 L421.4118 482.3529 L418.9412 481.0588 L416.3529 480.7059 L416.0 479.6471 L413.2941 479.2941 L412.4706 478.3529 L409.8824 479.5294 L409.6471 478.3529 L409.4118 477.4118 L408.0 476.1176 L406.2353 474.0 L405.8824 470.5882 L406.7059 468.9412 L409.4118 470.1176 L408.3529 469.4118 L407.5294 468.3529 L406.4706 467.0588 L406.5882 464.1176 L407.4118 461.1765 L407.0588 456.3529 L406.4706 457.6471 L406.3529 461.2941 L406.9412 462.4706 L406.0 462.8235 L405.4118 464.1176 L402.5882 469.0588 L395.8824 472.0 L395.0588 470.9412 L393.2941 471.1765 L393.7647 468.9412 L392.0 466.9412 L393.4118 465.6471 L393.6471 463.5294 L393.6471 464.8235 L395.2941 464.5882 L396.8235 465.5294 L396.9412 463.6471 L397.6471 464.9412 L398.5882 463.7647 L397.5294 462.1176 L397.7647 459.4118 L396.5882 457.6471 L396.8235 454.7059 L395.6471 457.5294 L395.5294 459.6471 L394.9412 460.8235 L393.2941 461.5294 L392.9412 462.4706 L391.6471 462.5882 L391.1765 463.5294 L389.8824 463.8824 L389.2941 464.8235 L388.7059 463.6471 L389.2941 461.0588 L387.2941 459.1765 L387.5294 457.7647 L389.5294 455.8824 L389.4118 453.2941 L390.4706 452.3529 L389.0588 451.0588 L389.2941 448.1176 L387.1765 450.3529 L385.7647 452.9412 L385.1765 455.4118 L384.1176 455.0588 L382.5882 453.6471 L382.2353 455.0588 L379.1765 455.5294 L377.8824 456.3529 L376.5882 455.5294 L376.5882 454.5882 L375.8824 453.5294 L374.9412 453.7647 L374.3529 455.6471 L373.4118 455.2941 L372.1176 454.8235 L371.8824 453.6471 L371.7647 452.1176 L372.8235 452.1176 L372.7059 449.5294 L373.6471 448.3529 L374.5882 448.7059 L375.0588 447.6471 L374.7059 446.4706 L374.4706 448.3529 L372.5882 446.9412 L371.0588 447.6471 L370.5882 448.7059 L371.6471 449.1765 L368.9412 451.7647 L369.0588 453.0588 L368.3529 452.0 L366.5882 451.5294 L366.9412 450.3529 L365.8824 450.2353 L365.6471 452.1176 L363.7647 451.6471 L364.8235 453.1765 L362.4706 454.1176 L359.2941 450.8235 L358.1176 451.1765 L358.2353 449.4118 L356.8235 448.2353 L354.4706 444.7059 L353.4118 442.3529 L354.9412 442.5882 L356.1176 442.1176 L357.5294 443.2941 L356.2353 442.0 L357.6471 440.4706 L360.7059 438.9412 L360.5882 437.0588 L359.2941 437.4118 L358.7059 436.3529 L360.0 438.0 L359.2941 439.6471 L357.6471 440.2353 L356.5882 441.7647 L355.5294 442.2353 L354.3529 442.3529 L353.4118 441.1765 L353.6471 439.4118 L352.5882 437.4118 L352.1176 435.6471 L352.5882 434.3529 L351.7647 435.6471 L352.0 433.5294 L351.1765 433.4118 L351.1765 434.5882 L348.0 434.5882 L347.4118 433.4118 L346.9412 432.4706 L346.8235 431.2941 L345.8824 431.1765 L344.9412 430.0 L343.7647 428.9412 L343.7647 427.2941 L344.8235 427.5294 L345.2941 426.5882 L344.3529 425.6471 L345.2941 426.4706 L346.8235 426.3529 L346.8235 425.1765 L345.2941 425.0588 L344.3529 424.7059 L344.3529 423.6471 L343.2941 423.6471 L343.4118 422.5882 L342.8235 421.5294 L342.2353 420.9412 L341.1765 420.9412 L340.7059 419.7647 L340.0 417.7647 L339.8824 415.5294 L340.1176 414.3529 L341.5294 412.3529 L345.4118 410.9412 L346.8235 409.2941 L346.9412 407.8824 L348.0 408.4706 L347.0588 407.8824 L347.6471 406.9412 L348.7059 407.5294 L349.2941 406.4706 L345.8824 406.9412 L344.9412 405.2941 L346.7059 404.2353 L358.8235 405.5294 L358.5882 406.7059 L354.9412 407.1765 L362.1176 406.8235 L361.8824 407.7647 L359.8824 407.5294 L358.8235 408.0 L358.5882 409.7647 L359.0588 409.5294 L359.0588 408.5882 L360.0 408.9412 L359.8824 407.7647 L361.7647 408.4706 L358.7059 411.5294 L360.0 410.9412 L361.5294 410.7059 L362.1176 409.6471 L362.1176 407.8824 L364.2353 408.2353 L364.9412 405.7647 L366.3529 406.0 L367.6471 406.4706 L368.1176 407.5294 L367.1765 411.8824 L361.8824 411.4118 L360.8235 412.7059 L361.2941 414.0 L361.2941 412.4706 L362.2353 411.7647 L363.8824 412.2353 L363.7647 413.2941 L362.7059 414.9412 L363.8824 413.6471 L364.2353 412.2353 L365.2941 412.4706 L365.8824 413.4118 L364.8235 414.3529 L364.8235 416.0 L366.3529 417.2941 L368.1176 419.0588 L365.6471 422.1176 L368.7059 419.1765 L367.6471 423.2941 L369.8824 419.8824 L371.5294 420.8235 L371.0588 423.4118 L371.6471 422.4706 L372.8235 422.4706 L372.5882 421.1765 L374.3529 421.0588 L374.4706 424.9412 L375.2941 421.8824 L375.5294 424.1176 L375.7647 423.1765 L376.5882 422.1176 L377.2941 422.0 L377.2941 424.5882 L379.4118 424.5882 L378.1176 424.7059 L377.2941 423.1765 L378.1176 421.4118 L384.2353 417.7647 L382.8235 416.0 L381.4118 414.4706 L381.4118 413.5294 L382.4706 412.9412 L382.9412 413.8824 L383.5294 415.4118 L384.8235 417.1765 L386.3529 416.2353 L387.0588 417.4118 L390.1176 418.9412 L390.2353 420.3529 L389.0588 421.7647 L390.2353 420.8235 L390.4706 419.1765 L391.4118 419.4118 L390.8235 418.2353 L391.8824 418.2353 L390.3529 417.8824 L386.5882 415.2941 L388.4706 415.1765 L387.5294 414.2353 L389.0588 413.5294 L387.8824 413.0588 L387.0588 414.2353 L385.8824 414.0 L386.2353 411.0588 L384.7059 410.2353 L385.5294 412.0 L385.6471 412.9412 L383.0588 409.7647 L382.9412 410.8235 L383.6471 411.7647 L382.5882 410.9412 L380.8235 410.7059 L380.8235 409.2941 L379.6471 409.5294 L376.3529 407.5294 L374.5882 406.8235 L372.5882 406.9412 L368.0 404.0 L365.4118 403.8824 L363.8824 402.5882 L362.2353 403.0588 L359.6471 402.2353 L357.1765 400.7059 L357.1765 398.0 L362.5882 400.8235 L365.2941 401.4118 L376.3529 406.2353 L377.4118 406.7059 L385.1765 408.7059 L389.1765 408.8235 L390.7059 409.7647 L392.1176 409.7647 L392.0 411.4118 L393.6471 412.5882 L392.5882 411.1765 L392.4706 410.2353 L394.0 410.2353 L395.2941 409.8824 L397.6471 409.0588 L400.4706 409.4118 L400.7059 411.1765 L399.0588 412.1176 L398.4706 410.3529 L398.1176 411.5294 L396.9412 411.8824 L397.6471 413.0588 L397.4118 414.7059 L398.4706 415.5294 L399.7647 416.9412 L399.5294 416.0 L400.4706 416.2353 L400.2353 417.2941 L399.5294 418.5882 L399.7647 419.5294 L399.7647 418.5882 L400.5882 416.8235 L400.9412 418.1176 L401.8824 417.6471 L401.4118 416.7059 L402.7059 418.1176 L404.1176 417.4118 L404.1176 416.1176 L405.2941 418.4706 L405.1765 419.8824 L406.2353 419.2941 L405.1765 416.3529 L406.3529 417.2941 L406.0 416.2353 L406.4706 415.1765 L406.5882 413.7647 L405.0588 412.2353 L404.9412 410.5882 L406.2353 410.2353 L407.6471 410.5882 L406.5882 410.9412 L407.8824 410.7059 L407.2941 412.0 L408.2353 412.0 L408.1176 413.4118 L408.4706 414.7059 L410.1176 413.7647 L411.1765 414.1176 L412.4706 415.5294 L412.5882 417.2941 L411.6471 418.3529 L412.9412 417.7647 L413.7647 416.2353 L415.0588 416.1176 L416.3529 416.0 L416.7059 417.5294 L415.6471 418.9412 L415.7647 420.5882 L415.7647 419.6471 L417.7647 418.1176 L417.5294 420.0 L418.1176 416.9412 L418.1176 418.2353 L418.3529 416.9412 L418.2353 418.2353 L418.4706 417.0588 L418.5882 419.8824 L419.5294 416.4706 L419.7647 418.9412 L420.2353 416.5882 L421.1765 417.8824 L420.9412 420.7059 L419.8824 420.9412 L419.7647 422.5882 L420.2353 421.0588 L421.2941 422.5882 L421.7647 418.0 L423.1765 419.0588 L423.0588 420.7059 L422.7059 421.7647 L423.1765 420.7059 L424.7059 419.6471 L425.0588 421.2941 L424.2353 422.4706 L425.0588 421.4118 L425.0588 422.7059 L425.7647 420.7059 L426.7059 420.7059 L427.2941 419.6471 L427.6471 420.5882 L426.5882 421.8824 L427.8824 420.8235 L427.4118 424.2353 L428.3529 420.5882 L429.2941 419.8824 L430.2353 421.6471 L430.1176 420.7059 L431.4118 420.0 L431.2941 417.4118 L432.3529 416.4706 L432.4706 417.4118 L433.4118 419.1765 L432.3529 419.1765 L434.5882 420.9412 L435.2941 422.5882 L436.0 423.7647 L436.1176 422.5882 L436.2353 424.3529 L436.3529 422.1176 L437.2941 422.5882 L437.5294 424.1176 L438.0 425.0588 L437.7647 423.5294 L438.1176 425.0588 L437.8824 423.7647 L438.9412 421.6471 L440.0 422.0 L440.4706 423.5294 L440.8235 422.7059 L440.8235 424.4706 L441.1765 423.2941 L441.8824 424.3529 L441.1765 425.4118 L442.2353 425.8824 L441.6471 423.0588 L442.7059 422.9412 L444.0 422.4706 L444.3529 424.2353 L445.5294 423.6471 L445.6471 424.7059 L446.1176 423.5294 L447.0588 423.4118 L447.4118 423.8824 L447.4118 426.2353 L448.2353 423.5294 L448.2353 424.7059 L448.4706 423.4118 L448.9412 424.3529 L449.8824 423.4118 L449.8824 425.1765 L449.8824 423.5294 L450.9412 423.6471 L451.2941 425.7647 L451.6471 424.1176 L453.2941 424.1176 L452.3529 424.5882 L452.0 425.7647 L451.7647 426.7059 L452.5882 425.2941 L453.0588 427.0588 L453.2941 426.1176 L453.7647 424.5882 L454.0 426.2353 L455.5294 426.0 L455.2941 428.1176 L455.6471 425.8824 L456.8235 426.0 L457.2941 427.1765 L456.5882 428.9412 L457.2941 427.0588 L458.4706 426.4706 L458.4706 428.4706 L459.0588 427.4118 L460.4706 427.8824 L460.5882 429.5294 L460.7059 430.8235 L460.8235 427.7647 L461.0588 429.1765 L461.0588 428.1176 L461.5294 429.2941 L462.9412 429.2941 L462.7059 430.2353 L463.0588 429.0588 L462.8235 430.2353 L463.4118 429.1765 L463.0588 430.3529 L463.4118 429.2941 L463.2941 430.3529 L463.6471 429.2941 L463.6471 430.3529 L464.2353 428.9412 L464.5882 430.3529 L463.6471 430.8235 L463.8824 432.8235 L463.8824 431.2941 L464.4706 430.5882 L464.4706 431.7647 L464.7059 430.7059 L464.9412 431.6471 L465.2941 430.5882 L466.0 431.5294 L465.7647 430.5882 L466.8235 432.3529 L467.1765 430.2353 L467.2941 431.2941 L467.7647 430.1176 L470.8235 430.0 L470.4706 430.9412 L473.0588 432.5882 L472.3529 433.7647 L473.1765 432.4706 L474.2353 433.5294 L475.6471 434.3529 L474.0 436.1176 L475.6471 434.4706 L475.5294 435.6471 L477.6471 436.1176 L476.7059 436.1176 L476.5882 438.8235 L477.5294 437.5294 L478.8235 439.4118 L478.4706 437.6471 L479.8824 438.2353 L479.8824 439.8824 L480.1176 439.2941 L480.1176 438.0 L480.0 436.8235 L479.8824 435.5294 L480.4706 436.4706 L480.3529 435.1765 L481.2941 435.7647 L481.4118 434.8235 L483.4118 436.5882 L483.6471 439.1765 L483.6471 437.2941 L483.2941 436.1176 L485.5294 434.5882 L485.8824 436.0 L486.8235 436.7059 L486.4706 435.7647 L487.4118 436.3529 L486.3529 435.6471 L488.0 433.8824 L488.2353 434.9412 L488.2353 433.7647 L491.8824 433.1765 L492.9412 433.2941 L493.7647 436.2353 L495.1765 437.5294 L495.6471 439.4118 L496.8235 439.1765 L499.5294 438.0 L500.5882 437.7647 L502.0 438.3529 L506.3529 438.8235 L508.5882 439.8824 L509.5294 441.5294 L509.2941 440.0 L512.0 440.2353 L511.8824 441.2941 L512.0 440.9412 L512.0 427.6471 L510.9412 427.7647 L509.8824 426.8235 L506.3529 426.0 L500.7059 423.8824 L496.8235 423.1765 L495.0588 422.7059 L493.7647 422.1176 L491.5294 422.2353 L489.5294 420.7059 L486.8235 420.3529 L485.4118 419.6471 L485.2941 420.7059 L482.8235 419.1765 L480.0 418.1176 L478.1176 418.1176 L474.5882 416.8235 L468.4706 416.7059 L467.2941 417.5294 L465.8824 416.5882 L466.4706 417.2941 L464.2353 417.2941 L465.1765 415.8824 L466.8235 415.6471 L475.6471 416.2353 L496.8235 422.2353 L512.0 427.2941 L512.0 0.0 L0.0 0.0 L0.0 0.0 M256.1176 122.7059 L256.1176 122.4706 L254.7059 121.1765 L255.8824 121.6471 L263.2941 127.2941 L268.7059 130.3529 L276.7059 134.1176 L276.5882 135.4118 L275.8824 137.2941 L274.8235 137.0588 L273.4118 137.6471 L274.7059 137.7647 L274.3529 139.2941 L273.2941 139.6471 L272.2353 138.7059 L272.2353 140.0 L271.1765 139.6471 L270.2353 139.7647 L269.7647 138.8235 L270.2353 137.5294 L271.1765 138.3529 L270.9412 136.8235 L270.8235 135.4118 L270.8235 134.1176 L269.4118 133.1765 L268.5882 132.0 L265.1765 129.5294 L264.2353 129.7647 L263.1765 129.0588 L262.4706 132.0 L262.3529 130.5882 L259.1765 129.1765 L259.6471 127.0588 L258.4706 127.2941 L258.4706 126.2353 L257.2941 125.2941 L256.1176 122.7059 L256.1176 122.7059 M200.7059 48.5882 L200.9412 48.5882 L200.9412 47.6471 L200.3529 46.7059 L199.2941 46.1176 L198.3529 44.7059 L198.9412 44.4706 L197.5294 44.4706 L198.0 42.3529 L199.4118 40.1176 L203.4118 45.8824 L212.1176 53.6471 L212.1176 55.5294 L210.9412 57.1765 L210.5882 59.6471 L209.8824 58.4706 L210.1176 60.2353 L208.3529 60.8235 L208.1176 59.6471 L208.3529 58.7059 L209.5294 58.5882 L208.5882 56.9412 L208.2353 55.7647 L208.8235 54.8235 L208.9412 56.0 L210.1176 55.7647 L210.0 57.1765 L210.2353 55.6471 L208.8235 54.7059 L207.4118 55.0588 L205.6471 55.1765 L207.1765 53.7647 L206.2353 53.4118 L204.5882 53.0588 L205.7647 51.5294 L204.4706 52.7059 L204.7059 51.5294 L203.0588 48.1176 L202.0 47.4118 L200.7059 48.5882 L200.7059 48.5882 M286.1176 152.2353 L285.4118 152.4706 L287.0588 152.7059 L285.7647 153.4118 L284.7059 152.8235 L285.0588 154.1176 L286.1176 153.5294 L287.1765 152.7059 L288.4706 152.4706 L289.7647 153.6471 L289.2941 154.8235 L288.0 153.6471 L286.4706 154.4706 L288.1176 153.8824 L289.0588 155.0588 L287.5294 155.2941 L287.8824 156.2353 L286.5882 155.8824 L286.0 156.8235 L284.4706 156.9412 L284.1176 158.1176 L284.0 156.7059 L283.6471 154.4706 L285.1765 155.1765 L284.2353 154.9412 L284.2353 153.1765 L283.1765 152.7059 L284.1176 152.5882 L284.7059 151.2941 L286.0 151.7647 L287.1765 152.3529 L286.1176 152.2353 L286.1176 152.2353 M287.5294 156.3529 L287.6471 156.3529 L287.5294 155.6471 L289.2941 155.6471 L289.4118 157.0588 L288.1176 157.5294 L288.3529 156.0 L288.5882 157.0588 L287.4118 157.8824 L286.5882 156.2353 L287.5294 156.3529 L287.5294 156.3529 M286.1176 161.6471 L285.6471 161.5294 L286.9412 160.5882 L288.3529 159.5294 L290.2353 159.1765 L289.7647 160.3529 L290.4706 158.9412 L290.4706 157.5294 L291.5294 157.2941 L290.4706 157.2941 L289.7647 156.3529 L289.8824 155.0588 L290.8235 154.5882 L293.7647 159.7647 L293.7647 160.9412 L292.3529 164.2353 L291.2941 164.7059 L291.4118 162.8235 L291.0588 161.1765 L289.7647 162.9412 L290.2353 161.2941 L289.2941 160.8235 L287.6471 161.5294 L286.1176 161.6471 L286.1176 161.6471 M216.7059 75.4118 L216.7059 75.4118 L217.4118 74.0 L217.2941 72.5882 L216.1176 72.7059 L215.7647 71.1765 L217.5294 69.8824 L218.0 68.9412 L217.6471 67.6471 L216.7059 67.0588 L216.4706 65.8824 L215.2941 65.7647 L214.8235 63.0588 L214.4706 61.6471 L212.8235 60.9412 L212.9412 59.6471 L214.7059 60.8235 L220.1176 69.7647 L224.7059 75.4118 L226.4706 77.6471 L223.8824 80.0 L224.4706 79.0588 L224.5882 78.1176 L222.7059 75.4118 L222.0 74.3529 L220.8235 74.7059 L221.7647 74.9412 L220.5882 75.4118 L219.1765 75.0588 L219.0588 74.0 L220.2353 73.5294 L220.4706 74.4706 L220.4706 73.0588 L221.1765 74.0 L220.5882 72.8235 L221.5294 73.6471 L218.8235 69.5294 L220.0 72.9412 L218.7059 73.8824 L217.8824 75.4118 L217.4118 76.4706 L216.4706 76.4706 L216.7059 75.4118 L216.7059 75.4118 M195.8824 41.2941 L197.7647 41.7647 L196.9412 42.9412 L195.7647 42.9412 L192.4706 42.0 L191.5294 42.3529 L191.7647 43.5294 L190.5882 42.9412 L188.5882 40.7059 L190.9412 43.4118 L186.3529 46.7059 L182.0 46.5882 L180.3529 40.9412 L180.9412 39.7647 L182.1176 38.8235 L185.7647 38.9412 L186.9412 38.3529 L190.7059 38.7059 L195.8824 41.2941 L195.8824 41.2941 M314.7059 195.7647 L315.0588 195.4118 L313.5294 192.8235 L312.3529 190.4706 L311.2941 190.0 L310.0 187.4118 L308.5882 184.9412 L307.8824 184.4706 L307.8824 182.7059 L306.4706 181.2941 L306.4706 180.3529 L305.7647 179.4118 L304.8235 178.9412 L304.3529 177.0588 L302.9412 176.4706 L303.0588 174.8235 L301.8824 173.4118 L301.6471 172.4706 L299.8824 171.0588 L299.0588 169.0588 L298.0 167.6471 L296.7059 166.5882 L295.4118 165.7647 L294.4706 165.7647 L295.5294 164.5882 L297.7647 166.3529 L305.6471 176.7059 L316.1176 195.5294 L323.2941 208.0 L327.7647 218.3529 L330.9412 222.1176 L328.8235 223.5294 L327.7647 220.9412 L326.7059 221.4118 L326.5882 222.3529 L326.5882 225.1765 L326.5882 222.5882 L325.4118 222.0 L325.6471 220.8235 L326.7059 220.4706 L326.3529 218.3529 L325.8824 217.4118 L325.7647 216.4706 L324.0 215.8824 L324.9412 215.8824 L325.5294 214.9412 L324.4706 215.1765 L325.4118 214.7059 L324.4706 215.1765 L325.4118 214.5882 L324.1176 215.0588 L325.1765 214.2353 L323.7647 214.9412 L324.3529 213.8824 L324.0 212.0 L323.4118 210.9412 L322.9412 209.6471 L322.0 208.3529 L323.0588 208.5882 L322.0 207.7647 L321.7647 206.4706 L319.6471 203.0588 L317.2941 201.5294 L316.8235 200.5882 L316.3529 199.6471 L315.2941 198.5882 L314.8235 196.9412 L314.7059 195.7647 L314.7059 195.7647 M262.9412 135.4118 L263.2941 134.2353 L261.8824 133.0588 L262.9412 132.4706 L264.1176 133.4118 L265.2941 133.8824 L267.2941 133.8824 L265.8824 135.4118 L264.7059 135.4118 L263.6471 137.0588 L262.9412 135.4118 L262.9412 135.4118 M264.1176 129.8824 L265.0588 129.6471 L265.4118 130.5882 L266.4706 130.8235 L267.0588 132.1176 L268.7059 132.3529 L269.6471 134.2353 L268.1176 134.3529 L267.2941 133.4118 L265.5294 132.9412 L264.5882 133.0588 L262.8235 131.8824 L264.1176 129.8824 L264.1176 129.8824 M286.0 146.2353 L286.0 146.2353 L284.3529 147.8824 L281.5294 146.7059 L282.4706 145.4118 L283.7647 144.8235 L282.7059 143.4118 L281.5294 142.9412 L280.2353 141.5294 L278.3529 141.4118 L276.9412 142.8235 L277.2941 141.0588 L276.0 140.3529 L275.0588 139.8824 L275.6471 138.9412 L276.0 140.0 L278.0 140.8235 L277.4118 139.1765 L275.7647 138.9412 L277.6471 136.4706 L284.0 142.5882 L286.0 145.2941 L290.1176 150.4706 L290.8235 152.4706 L289.1765 151.5294 L286.2353 150.8235 L286.4706 149.4118 L287.1765 150.9412 L288.0 149.7647 L288.1176 150.7059 L289.0588 150.2353 L288.2353 149.0588 L286.7059 148.8235 L286.4706 147.8824 L286.0 146.2353 L286.0 146.2353 M286.1176 160.7059 L284.7059 161.1765 L284.5882 160.0 L285.7647 160.1176 L285.2941 158.7059 L286.2353 158.4706 L286.0 157.5294 L287.5294 158.7059 L288.4706 159.2941 L286.9412 159.7647 L286.1176 160.7059 L286.1176 160.7059 M270.9412 143.7647 L270.7059 143.1765 L272.1176 143.0588 L271.8824 144.0 L270.9412 143.8824 L271.6471 145.0588 L271.4118 146.0 L269.5294 145.5294 L269.8824 144.3529 L270.8235 144.2353 L269.6471 144.0 L268.2353 145.0588 L270.9412 143.7647 L270.9412 143.7647 M270.9412 141.4118 L269.8824 141.7647 L268.3529 140.9412 L268.0 142.0 L268.0 141.0588 L266.9412 140.5882 L267.4118 139.5294 L267.2941 138.3529 L268.4706 138.5882 L268.3529 139.6471 L269.0588 140.3529 L270.9412 140.3529 L272.0 140.4706 L270.9412 141.4118 L270.9412 141.4118 M281.5294 149.5294 L282.1176 149.8824 L281.1765 149.8824 L281.2941 148.9412 L280.2353 148.3529 L280.1176 146.4706 L280.5882 147.6471 L281.0588 146.4706 L282.0 147.5294 L283.1765 148.0 L281.5294 149.5294 L281.5294 149.5294 M277.2941 152.4706 L278.2353 151.1765 L278.1176 152.9412 L278.4706 153.4118 L278.4706 151.8824 L279.7647 152.4706 L278.7059 153.1765 L278.4706 154.1176 L276.7059 155.7647 L278.2353 154.1176 L277.1765 152.8235 L277.2941 152.4706 L277.2941 152.4706 M312.8235 206.0 L312.1176 205.6471 L313.0588 206.5882 L311.5294 206.8235 L311.6471 205.8824 L310.4706 202.4706 L311.8824 203.7647 L314.0 204.2353 L314.5882 203.8824 L314.5882 204.8235 L312.8235 204.5882 L312.8235 206.0 L312.8235 206.0 M314.7059 199.7647 L314.5882 200.5882 L313.2941 200.9412 L313.6471 200.0 L312.5882 200.5882 L313.0588 199.6471 L313.4118 198.4706 L312.4706 198.0 L314.3529 198.3529 L314.7059 199.7647 L314.7059 199.7647 M316.1176 420.9412 L315.0588 420.8235 L312.7059 418.0 L312.5882 414.9412 L313.6471 414.1176 L313.0588 412.8235 L313.2941 410.1176 L312.0 408.5882 L311.6471 404.5882 L310.7059 401.6471 L309.5294 400.7059 L307.8824 401.0588 L304.8235 398.7059 L305.7647 396.0 L305.4118 393.1765 L304.9412 392.0 L304.0 391.6471 L303.1765 390.1176 L303.6471 388.4706 L304.7059 387.5294 L307.4118 388.8235 L309.7647 389.1765 L311.5294 391.0588 L312.8235 391.2941 L315.2941 392.7059 L316.2353 392.9412 L322.7059 396.7059 L322.8235 398.1176 L324.2353 398.9412 L325.1765 397.8824 L324.1176 396.4706 L322.9412 396.4706 L323.1765 395.1765 L326.0 398.4706 L327.0588 399.1765 L328.4706 400.4706 L329.6471 400.9412 L330.5882 402.5882 L334.1176 406.2353 L338.1176 410.9412 L337.7647 412.3529 L334.7059 416.5882 L334.4706 417.7647 L335.4118 417.4118 L334.4706 418.2353 L334.4706 419.2941 L334.5882 420.2353 L333.5294 421.8824 L332.3529 422.0 L330.1176 421.1765 L328.2353 421.2941 L326.9412 420.3529 L325.2941 420.0 L324.8235 420.3529 L323.8824 420.3529 L321.4118 419.4118 L320.4706 419.5294 L318.7059 420.4706 L317.6471 420.3529 L316.1176 420.9412 L316.1176 420.9412 M466.8235 420.1176 L466.9412 420.1176 L465.1765 420.4706 L464.2353 421.0588 L463.1765 421.5294 L464.3529 420.7059 L462.8235 421.0588 L461.5294 419.7647 L458.9412 418.7059 L455.4118 418.0 L456.3529 417.8824 L454.2353 416.8235 L452.7059 417.1765 L452.4706 415.8824 L451.0588 416.7059 L450.0 416.3529 L450.3529 415.4118 L449.1765 414.8235 L448.8235 416.0 L447.6471 415.5294 L447.4118 414.3529 L446.9412 415.2941 L446.0 414.9412 L444.4706 413.7647 L443.5294 414.3529 L442.5882 414.2353 L439.1765 413.7647 L436.7059 412.7059 L435.6471 412.0 L432.3529 410.7059 L433.8824 411.6471 L432.8235 411.8824 L434.4706 412.7059 L433.0588 413.1765 L430.8235 412.2353 L430.8235 411.2941 L429.5294 410.8235 L427.5294 410.7059 L426.1176 410.1176 L425.0588 409.6471 L423.7647 409.1765 L424.2353 408.7059 L421.7647 408.7059 L420.1176 406.7059 L419.7647 405.1765 L423.5294 406.7059 L436.5882 410.5882 L446.4706 413.4118 L456.2353 417.0588 L463.0588 418.7059 L465.1765 418.4706 L465.0588 419.7647 L466.7059 419.6471 L469.8824 419.8824 L473.0588 418.9412 L474.8235 419.4118 L471.0588 420.5882 L466.8235 420.1176 L466.8235 420.1176 M406.4706 409.7647 L401.4118 409.1765 L396.4706 408.7059 L390.9412 409.2941 L389.1765 407.7647 L391.6471 407.7647 L397.7647 407.1765 L406.3529 407.0588 L411.7647 407.6471 L419.5294 408.0 L419.7647 409.6471 L417.8824 409.4118 L412.8235 410.2353 L412.5882 409.8824 L410.1176 409.8824 L410.0 409.8824 L409.0588 409.8824 L409.0588 408.5882 L408.9412 409.8824 L408.7059 408.5882 L408.7059 409.8824 L408.2353 409.8824 L408.2353 408.5882 L408.1176 409.8824 L407.7647 409.7647 L407.7647 408.5882 L407.6471 409.7647 L406.4706 409.7647 L406.4706 409.7647 M401.1765 414.3529 L401.4118 415.0588 L400.1176 416.0 L399.1765 414.7059 L400.0 413.5294 L400.1176 412.1176 L401.0588 412.0 L401.0588 413.1765 L402.1176 412.9412 L402.3529 415.0588 L401.1765 414.3529 L401.1765 414.3529 M457.6471 419.0588 L457.7647 419.0588 L458.2353 420.0 L460.1176 420.0 L460.3529 420.9412 L460.4706 421.8824 L459.0588 421.7647 L458.7059 420.7059 L457.4118 421.6471 L455.8824 420.2353 L455.2941 420.1176 L455.2941 418.9412 L457.6471 419.0588 L457.6471 419.0588 M376.3529 414.2353 L376.3529 414.2353 L377.4118 413.2941 L377.4118 412.2353 L377.6471 411.2941 L376.5882 410.4706 L377.6471 409.7647 L378.8235 414.2353 L377.2941 419.8824 L375.5294 419.6471 L376.0 418.2353 L375.6471 417.2941 L374.8235 414.4706 L376.3529 414.2353 L376.3529 414.2353 M471.6471 422.0 L470.4706 421.4118 L472.1176 420.8235 L474.3529 420.8235 L475.2941 421.4118 L474.3529 421.4118 L474.5882 422.8235 L475.6471 422.7059 L475.5294 423.2941 L474.2353 423.2941 L473.0588 424.3529 L472.8235 423.4118 L471.6471 423.5294 L471.6471 422.2353 L471.4118 423.1765 L470.4706 423.2941 L469.2941 421.8824 L470.3529 421.5294 L471.6471 422.0 L471.6471 422.0" stroke-dasharray="" fill="none" fill-opacity="1.0" stroke="#ff0000" stroke-opacity="1.0" stroke-width="1.0px" stroke-linecap="butt" stroke-linejoin="miter" stroke-dashoffset="0.0px"/>
</g>
</svg>