<?xml version="1.0" standalone="no"?>
<!DOCTYPE svg PUBLIC "-//W3C//DTD SVG 1.1//EN" "http://www.w3.org/Graphics/SVG/1.1/DTD/svg11.dtd">
<svg width="512px" height="512px" version="1.1" xmlns="http://www.w3.org/2000/svg" xmlns:inkscape="http://www.inkscape.org/namespaces/inkscape">
<g id="layer" inkscape:groupmode="layer" inkscape:label="layer">
<path d="M0.0 291.5303 L38.5087 346.3268 L119.9428 412.9608 L210.2796 442.5696 L302.0931 448.5025 L387.9854 427.7652 L415.6455 400.0314 L420.6281 387.1021 L423.8717 369.611 L423.637 344.1439 L421.6633 342.4367 L419.6481 344.0879 L416.6944 343.976 L414.6655 343.1084 L411.8912 331.7741 L410.2349 323.0985 L403.7892 311.1765 L402.0087 299.9261 L407.9575 287.9761 L419.1375 280.28 L430.9247 273.7592 L443.8852 270.0371 L454.4302 268.4978 L465.058 267.3784 L471.0207 266.4828 L473.5051 264.2999 L478.8742 262.6487 L484.616 264.2999 L489.6125 257.2754 L492.7595 257.8351 L497.5627 257.4713 L503.8152 245.5492 L507.9835 230.7165 L509.833 224.2517 L510.675 217.619 L512.0 213.0852 L509.3775 204.1016 L508.9083 191.8436 L505.8993 187.4498 L499.426 171.4696 L499.8815 166.8518 L495.658 159.7433 L485.3476 149.6122 L479.8542 142.6716 L474.071 136.0108 L466.8247 128.7903 L454.6786 123.3049 L445.9969 122.1295 L436.1696 117.2038 L431.2422 110.8509 L421.6357 99.1245 L362.8099 84.2076 L348.2069 84.0677 L331.7131 81.1571 L310.1813 80.7373 L307.9591 82.7803 L303.1559 84.9913 L299.6777 83.0882 L293.2872 86.5585 L282.7421 96.9416 L281.6242 100.6358 L270.0577 109.0318 L239.375 119.7506 L228.4849 123.4448 L221.1973 121.6537 L215.7591 117.4277 L212.0601 112.1103 L209.5066 106.3171 L203.9581 102.175 L201.8739 93.6111 L191.4531 77.6308 L183.9446 73.4328 L178.0371 65.3726 L169.4659 63.4975 L159.749 63.7494 L147.2578 67.6675 L137.3891 74.1324 L103.656 100.4958 L81.448 161.1986 L75.5267 210.0907 L31.0968 220.4456 L4.4444 248.5717 L0.0 291.5303" stroke-dasharray="" fill="none" fill-opacity="1.0" stroke="#ff0000" stroke-opacity="1.0" stroke-width="1.0px" stroke-linecap="butt" stroke-linejoin="miter" stroke-dashoffset="0.0px"/>
</g>
</svg>