<?xml version="1.0" standalone="no"?>
<!DOCTYPE svg PUBLIC "-//W3C//DTD SVG 1.1//EN" "http://www.w3.org/Graphics/SVG/1.1/DTD/svg11.dtd">
<svg width="512px" height="512px" version="1.1" xmlns="http://www.w3.org/2000/svg" xmlns:inkscape="http://www.inkscape.org/namespaces/inkscape">
<g id="layer" inkscape:groupmode="layer" inkscape:label="layer">
<path d="M0.0 219.2907 L33.1661 226.5524 L84.7791 233.5786 L119.6719 236.6003 L159.4302 279.3009 L215.0472 339.8639 L260.2619 374.8364 L272.1148 415.3021 L263.2837 437.713 L305.3979 437.5952 L346.2739 483.8103 L355.3885 487.7955 L371.3368 485.0614 L386.9449 473.2125 L390.2575 464.8005 L388.807 439.667 L390.488 428.0053 L390.3636 404.402 L395.4907 391.6396 L416.6814 372.4995 L408.2508 350.853 L408.0642 338.6826 L408.9368 328.5583 L406.3211 318.3677 L401.2927 317.8966 L388.0845 318.1652 L382.855 315.9534 L376.934 313.8225 L373.4001 307.9745 L372.9885 299.208 L372.8989 294.4015 L376.7163 294.9204 L381.0057 299.8668 L388.1522 303.5508 L394.2524 305.494 L408.0642 305.4277 L410.0105 306.4325 L416.3119 301.9388 L429.2531 292.2853 L431.4645 276.7983 L440.356 271.4102 L443.6283 272.6946 L445.238 275.4328 L444.1112 277.4166 L442.3955 277.8987 L440.0889 278.1674 L441.1608 280.7436 L442.0187 283.9088 L442.3955 286.2679 L443.2534 286.75 L444.3435 287.2211 L445.077 285.9992 L445.8818 283.6916 L446.7397 281.119 L448.2945 278.0606 L448.4555 276.8277 L447.3836 274.0895 L448.5103 273.0185 L457.153 269.3197 L463.6557 266.3017 L467.2097 268.4474 L467.4457 269.9012 L465.0092 272.886 L459.2456 278.0018 L456.2897 283.2868 L453.4399 288.3694 L452.2729 290.3273 L452.2034 291.9136 L454.1258 293.4851 L456.6317 291.7664 L457.8682 289.9483 L459.4139 287.2726 L461.1644 283.9419 L473.9812 279.4445 L477.3999 287.5266 L476.1268 288.2921 L472.313 291.494 L470.8113 292.5687 L471.1113 295.7448 L473.9867 296.3005 L477.8919 296.9041 L479.6515 295.27 L482.5709 286.9193 L486.8675 285.9771 L493.7817 288.4908 L501.0105 288.178 L504.559 284.0265 L512.0 262.7759 L502.9512 250.8033 L498.7533 224.6827 L490.8642 209.1801 L471.1991 190.0482 L455.28 183.9677 L451.5613 181.3102 L447.8409 182.4807 L445.6093 186.0915 L442.8473 182.904 L434.3765 172.7195 L431.7462 176.7793 L425.2088 177.0038 L417.8794 174.6224 L407.596 141.7311 L407.2228 117.8277 L419.9592 108.9789 L439.5841 109.4684 L455.5379 88.0638 L448.6237 87.0883 L431.192 54.4744 L423.6486 58.4831 L384.1646 50.2412 L373.2135 36.9744 L351.6205 24.2045 L333.8155 73.2846 L310.2269 93.4196 L274.1159 87.0993 L224.5442 96.0882 L159.1174 98.4036 L133.5259 112.6892 L124.8905 138.2785 L62.9171 116.1419 L29.045 124.895 L18.2512 148.0511 L14.3259 186.3197 L0.0 219.2907 M186.7796 294.0187 L193.2694 290.8683 L208.5501 289.0797 L212.7828 291.6191 L219.225 291.4793 L221.5755 292.749 L221.3871 293.6875 L213.8162 296.3668 L207.6099 295.616 L199.569 295.9435 L195.1022 297.5923 L190.4471 297.5445 L188.0033 296.1791 L186.7796 294.0187 M237.1397 262.0435 L243.5033 249.3827 L266.9621 234.4766 L268.2022 232.6584 L263.9934 225.8973 L265.2719 223.7184 L271.0575 225.2201 L273.8378 224.3183 L283.9439 213.8765 L291.1123 211.9847 L303.8889 221.6352 L319.9744 233.4866 L321.7029 240.7004 L326.2008 242.6768 L331.6206 246.9352 L335.6776 253.0227 L336.4989 256.9092 L335.9044 260.6118 L334.3259 262.6397 L334.3204 269.8276 L345.1014 282.352 L346.4238 289.2416 L344.8819 296.9777 L354.388 316.1411 L360.1315 336.18 L355.2897 343.1172 L355.6135 346.5361 L355.041 348.2658 L353.2795 346.6097 L351.2034 347.5555 L346.9964 348.1554 L346.1696 345.5277 L342.7125 347.4782 L339.3304 345.8884 L335.4984 345.675 L335.9502 339.5143 L330.8871 336.6217 L326.7825 339.6652 L324.9039 338.6127 L322.9504 341.9948 L318.8934 345.675 L315.1363 345.9031 L316.3582 350.8566 L307.8892 353.7382 L307.6972 346.8784 L304.1468 341.8476 L298.7508 324.5284 L293.8706 316.8219 L285.9431 314.1206 L277.0388 315.0186 L270.9953 313.6863 L266.3694 315.9976 L262.2648 315.9166 L256.4792 306.3736 L255.3982 302.697 L266.0695 300.8936 L270.26 292.0056 L273.1611 290.7432 L277.5199 284.1296 L276.8724 281.6858 L268.1272 284.1296 L253.3002 284.8326 L242.1662 284.9062 L240.776 278.9476 L237.8402 275.2709 L238.2207 270.755 L240.851 266.3974 L237.1397 262.0435 M262.0984 134.3069 L265.8061 125.3109 L274.7341 120.4338 L277.7559 121.2583 L277.4815 122.7711 L273.2232 125.3772 L271.9191 127.9869 L272.4678 131.5573 L271.7819 133.9609 L274.0464 136.2983 L276.6565 137.189 L277.2053 138.7018 L273.0165 139.9386 L267.5913 138.2197 L263.9531 138.7681 L262.0984 134.3069 M335.3959 115.8437 L335.8459 110.1126 L346.2775 100.9692 L355.6153 100.2588 L358.4487 101.6133 L359.1565 104.0575 L358.1267 108.4378 L354.3276 111.5297 L353.7477 112.623 L350.8504 116.7456 L351.4302 117.6474 L353.4898 118.2878 L353.6837 119.8338 L345.3757 120.9933 L339.645 119.5762 L335.3959 115.8437 M370.0308 100.9802 L371.4374 100.3949 L378.7211 104.4771 L380.9069 104.8636 L381.7812 106.0783 L379.7417 107.6795 L376.1969 108.5556 L373.9635 108.6513 L370.4661 104.4771 L370.0308 100.9802" stroke-dasharray="" fill="none" fill-opacity="1.0" stroke="#ff0000" stroke-opacity="1.0" stroke-width="1.0px" stroke-linecap="butt" stroke-linejoin="miter" stroke-dashoffset="0.0px"/>
</g>
</svg>