<?xml version="1.0" standalone="no"?>
<!DOCTYPE svg PUBLIC "-//W3C//DTD SVG 1.1//EN" "http://www.w3.org/Graphics/SVG/1.1/DTD/svg11.dtd">
<svg width="512px" height="512px" version="1.1" xmlns="http://www.w3.org/2000/svg" xmlns:inkscape="http://www.inkscape.org/namespaces/inkscape">
<g id="layer" inkscape:groupmode="layer" inkscape:label="layer">
<path d="M0.0 285.1382 L14.8664 304.1672 L42.8153 293.2652 L56.4925 310.7085 L38.2563 317.6461 L68.3856 356.2989 L7.5323 379.887 L27.9489 405.8537 L116.5528 371.5617 L138.3569 399.7089 L223.7894 366.6063 L218.8339 360.4615 L474.3384 261.7484 L476.5188 264.7216 L497.53 256.5947 L494.9532 253.8196 L512.0 247.2784 L421.6121 131.3202 L413.6833 134.2935 L391.681 106.1463 L326.4669 131.5184 L348.6674 159.8637 L308.429 175.3248 L299.1127 163.2334 L275.3264 172.3515 L271.7584 167.5943 L123.6887 224.4832 L124.0852 225.0778 L117.7422 227.4564 L130.0317 244.1069 L90.9826 259.1715 L85.4324 252.0356 L0.0 285.1382" stroke-dasharray="" fill="none" fill-opacity="1.0" stroke="#ff0000" stroke-opacity="1.0" stroke-width="1.0px" stroke-linecap="butt" stroke-linejoin="miter" stroke-dashoffset="0.0px"/>
</g>
</svg>