<?xml version="1.0" standalone="no"?>
<!DOCTYPE svg PUBLIC "-//W3C//DTD SVG 1.1//EN" "http://www.w3.org/Graphics/SVG/1.1/DTD/svg11.dtd">
<svg width="400px" height="400px" version="1.1" xmlns="http://www.w3.org/2000/svg" xmlns:inkscape="http://www.inkscape.org/namespaces/inkscape">
<rect x="0" y="0" width="400px" height="400px" fill="#ffffff"/>
<g id="layer" inkscape:groupmode="layer" inkscape:label="layer">
<path d="M325.6741 325.5554 L320.4761 325.6493 L314.8537 325.7507 L310.0888 325.8367 L300.8191 326.0041 L295.5172 326.0998 L290.2152 326.1955 L284.4368 326.2998 L276.5706 326.4417 L270.9481 326.5432 L259.0101 326.7587 L253.6561 326.8553 L248.3542 326.951 L239.8988 327.1037 L233.4187 327.2206 L224.7467 327.3772" stroke-dasharray="" fill="none" fill-opacity="1.0" stroke="#0000ff" stroke-opacity="1.0" stroke-width="1.0px" stroke-linecap="butt" stroke-linejoin="miter" stroke-dashoffset="0.0px"/>
<path d="M135.7615 201.7499 L131.5995 204.8653 L127.0977 208.2352 L123.2825 211.0909 L115.8603 216.6467 L111.6151 219.8244 L107.3699 223.0021 L102.7431 226.4654 L96.4447 231.18 L91.9428 234.5499 L82.3841 241.7049 L78.0973 244.9137 L73.8521 248.0914 L67.0819 253.1591 L61.8933 257.043 L54.9497 262.2405" stroke-dasharray="" fill="none" fill-opacity="1.0" stroke="#0000ff" stroke-opacity="1.0" stroke-width="1.0px" stroke-linecap="butt" stroke-linejoin="miter" stroke-dashoffset="0.0px"/>
<path d="M169.9584 275.4996 L164.9774 308.2266 L138.3137 327.8459 L105.5865 322.865 L85.9669 296.2016 L90.9479 263.4746 L117.6116 243.8551 L150.3388 248.836 L169.9584 275.4996" stroke-dasharray="" fill="none" fill-opacity="1.0" stroke="#0000ff" stroke-opacity="1.0" stroke-width="1.0px" stroke-linecap="butt" stroke-linejoin="miter" stroke-dashoffset="0.0px"/>
<path d="M377.1821 308.1588 L377.6003 76.0333" stroke-dasharray="" fill="none" fill-opacity="1.0" stroke="#0000ff" stroke-opacity="1.0" stroke-width="1.0px" stroke-linecap="butt" stroke-linejoin="miter" stroke-dashoffset="0.0px"/>
<path d="M42.167 100.7095 L43.84 304.3946" stroke-dasharray="" fill="none" fill-opacity="1.0" stroke="#0000ff" stroke-opacity="1.0" stroke-width="1.0px" stroke-linecap="butt" stroke-linejoin="miter" stroke-dashoffset="0.0px"/>
<path d="M331.0704 189.2205 L326.0515 193.403 L318.9413 196.749 L312.6676 195.076 L307.6487 191.3118 L303.4662 185.0381 L298.8655 179.6009 L294.2648 175.8367 L286.7364 175.4184 L278.7897 178.3461 L270.843 183.3651 L263.3146 190.057 L257.0409 194.4486 L249.9307 197.7946 L243.657 196.1216 L238.6381 192.3574 L234.4556 186.0837 L229.8549 180.6465 L225.2542 176.8823 L217.7258 176.464 L209.7791 179.3917 L201.8324 184.4107 L193.6766 191.4163 L188.6577 195.5988 L181.5475 198.9447 L175.2738 197.2718 L170.2549 193.5075 L166.0724 187.2339 L161.4717 181.7967 L156.871 178.0324 L149.3426 177.6142 L141.3959 180.5419 L133.4492 185.5609 L125.9208 192.2528 L119.6471 196.6444 L112.5369 199.9904 L106.2632 198.3174 L101.2443 194.5532 L97.0618 188.2795 L92.4611 182.8423 L87.8604 179.0781 L80.332 178.6598 L72.3853 181.5875 L64.4386 186.6065 L56.9102 193.2984" stroke-dasharray="" fill="none" fill-opacity="1.0" stroke="#0000ff" stroke-opacity="1.0" stroke-width="1.0px" stroke-linecap="butt" stroke-linejoin="miter" stroke-dashoffset="0.0px"/>
<path d="M57.424 144.5334 L64.9524 137.8415 L72.8991 132.8226 L80.8458 129.8949 L88.3742 130.3131 L92.9749 134.0773 L97.5756 139.5145 L101.7581 145.7881 L106.777 149.5523 L113.0507 151.2253 L120.1609 147.8794 L126.4346 143.4878 L133.963 136.7959 L141.9097 131.777 L149.8564 128.8492 L157.3848 129.2675 L161.9855 133.0317 L166.5862 138.4689 L170.7687 144.7425 L175.7876 148.5067 L182.0613 150.1797 L189.1715 146.8338 L194.1904 142.6513 L202.3462 135.6457 L210.2929 130.6268 L218.2396 127.6991 L225.768 128.1173 L230.3687 131.8815 L234.9694 137.3187 L239.1519 143.5924 L244.1708 147.3566 L250.4445 149.0295 L257.5547 145.6836 L263.8284 141.292 L271.3568 134.6001 L279.3035 129.5812 L287.2502 126.6535 L294.7786 127.0717 L299.3793 130.8359 L303.98 136.2731 L308.1625 142.5467 L313.1814 146.311 L319.4551 147.9839 L326.5653 144.638 L331.5842 140.4555" stroke-dasharray="" fill="none" fill-opacity="1.0" stroke="#0000ff" stroke-opacity="1.0" stroke-width="1.0px" stroke-linecap="butt" stroke-linejoin="miter" stroke-dashoffset="0.0px"/>
<path d="M359.593 84.5054 L321.9007 111.6378 L283.0039 82.7792 L239.5063 116.6568 L191.8262 79.4332 L138.2908 117.9115 L88.1012 78.5968 L53.3868 100.7635" stroke-dasharray="" fill="none" fill-opacity="1.0" stroke="#0000ff" stroke-opacity="1.0" stroke-width="1.0px" stroke-linecap="butt" stroke-linejoin="miter" stroke-dashoffset="0.0px"/>
<path d="M56.1329 60.7393 L95.0297 35.6451 L143.9645 74.5412 L194.5723 38.5728 L239.3246 73.2865 L284.0769 40.6639 L323.8103 72.0318 L362.6265 43.6707" stroke-dasharray="" fill="none" fill-opacity="1.0" stroke="#0000ff" stroke-opacity="1.0" stroke-width="1.0px" stroke-linecap="butt" stroke-linejoin="miter" stroke-dashoffset="0.0px"/>
<path d="M265.401 206.3855 L336.0594 209.8796 L344.9887 214.9267 L351.5887 225.0207 L352.3652 238.9971 L351.2005 253.3617 L348.4828 268.891 L343.0476 275.4909 L324.0242 276.6556 L261.5187 274.3262" stroke-dasharray="" fill="none" fill-opacity="1.0" stroke="#0000ff" stroke-opacity="1.0" stroke-width="1.0px" stroke-linecap="butt" stroke-linejoin="miter" stroke-dashoffset="0.0px"/>
<path d="M292.3732 297.9963 L221.6305 298.526 L212.4286 293.995 L205.2653 284.2927 L203.6953 270.3831 L204.0412 255.9756 L205.8713 240.3169 L210.9225 233.4185 L229.8489 231.1739 L292.3857 229.945" stroke-dasharray="" fill="none" fill-opacity="1.0" stroke="#0000ff" stroke-opacity="1.0" stroke-width="1.0px" stroke-linecap="butt" stroke-linejoin="miter" stroke-dashoffset="0.0px"/>
<path d="M158.0556 201.9818 L166.8403 256.3371" stroke-dasharray="" fill="none" fill-opacity="1.0" stroke="#0000ff" stroke-opacity="1.0" stroke-width="1.0px" stroke-linecap="butt" stroke-linejoin="miter" stroke-dashoffset="0.0px"/>
<path d="M186.6059 206.9232 L177.2721 268.416" stroke-dasharray="" fill="none" fill-opacity="1.0" stroke="#0000ff" stroke-opacity="1.0" stroke-width="1.0px" stroke-linecap="butt" stroke-linejoin="miter" stroke-dashoffset="0.0px"/>
<path d="M200.881 215.1588 L259.0797 216.806" stroke-dasharray="" fill="none" fill-opacity="1.0" stroke="#0000ff" stroke-opacity="1.0" stroke-width="1.0px" stroke-linecap="butt" stroke-linejoin="miter" stroke-dashoffset="0.0px"/>
<path d="M309.5918 255.7881 L250.844 256.3371" stroke-dasharray="" fill="none" fill-opacity="1.0" stroke="#0000ff" stroke-opacity="1.0" stroke-width="1.0px" stroke-linecap="butt" stroke-linejoin="miter" stroke-dashoffset="0.0px"/>
<path d="M348.0205 161.8685 L360.2517 161.9655 L360.2517 171.186 L314.1491 171.186" stroke-dasharray="" fill="none" fill-opacity="1.0" stroke="#0000ff" stroke-opacity="1.0" stroke-width="1.0px" stroke-linecap="butt" stroke-linejoin="miter" stroke-dashoffset="0.0px"/>
</g>
</svg>