<?xml version="1.0" standalone="no"?>
<!DOCTYPE svg PUBLIC "-//W3C//DTD SVG 1.1//EN" "http://www.w3.org/Graphics/SVG/1.1/DTD/svg11.dtd">
<svg width="256px" height="256px" version="1.1" xmlns="http://www.w3.org/2000/svg" xmlns:inkscape="http://www.inkscape.org/namespaces/inkscape">
<rect x="0" y="0" width="256px" height="256px" fill="#ffffff"/>
<g id="layer" inkscape:groupmode="layer" inkscape:label="layer">
<path d="M11231486.2303 14725117.6799 L11231486.2303 -1921023.6973 L2842879.5521 -1921023.6973 L3039487.5211 -1593343.7489 L3432703.4591 -1462271.7696 L7627006.7983 -1527807.7592 L8085758.726 -1134591.8212 L8413438.6744 -610303.9037 L8806654.6124 -479231.9245 L11231486.2303 -516095.9187 L11231486.2303 450559.929 L7692542.7879 503807.9206 L7364862.8396 634879.9 L7102718.8809 962559.8484 L7037182.8912 3387391.4664 L6381822.9945 3846143.394 L6054143.0461 4304895.3218 L6054143.0461 6533118.9707 L5071103.201 7450622.8261 L5071103.201 8433662.6712 L4940031.2216 8826878.6092 L4415743.3042 9154558.5575 L3498239.4488 9154558.5575 L3236095.4901 9285630.5369 L2842879.5521 9940990.4336 L2515199.6037 10203134.3924 L286975.9548 10268670.3821 L-171775.9729 9875454.444 L-499455.9213 9351166.5267 L-1154815.818 8957950.5886 L-1285887.7974 8695806.6299 L-1351423.787 7516158.8158 L-2334463.6322 6729726.9396 L-2399999.6218 5550079.1256 L-2531071.6012 5287935.1668 L-3186431.4979 4894719.2288 L-3448575.4566 4567039.2804 L-3448575.4566 3321855.4767 L-2531071.6012 2535423.6005 L-2465535.6115 2338815.6315 L-2531071.6012 1093631.8277 L-3055359.5186 700415.8896 L-5545727.1262 753663.8812 L-5545727.1262 8261630.6983 L-4890367.2294 8237054.7021 L-4300543.3224 7385086.8364 L-3841791.3947 7319550.8467 L-3186431.4979 8171518.7124 L-2531071.6012 8564734.6505 L-2399999.6218 8957950.5886 L-2465535.6115 11055102.2582 L-2858751.5495 11382782.2065 L-4038399.3637 11448318.1962 L-4497151.2914 11972606.1136 L-4497151.2914 15314941.587 L-4550399.283 15380477.5766 L10707198.3129 15380477.5766 L10903806.282 14856189.6592 L11165950.2407 14725117.6799 L11231486.2303 14725117.6799" stroke-dasharray="" fill="none" fill-opacity="1.0" stroke="#00ff00" stroke-opacity="1.0" stroke-width="1.0px" stroke-linecap="butt" stroke-linejoin="miter" stroke-dashoffset="0.0px"/>
</g>
</svg>