<?xml version="1.0" standalone="no"?>
<!DOCTYPE svg PUBLIC "-//W3C//DTD SVG 1.1//EN" "http://www.w3.org/Graphics/SVG/1.1/DTD/svg11.dtd">
<svg width="512px" height="512px" version="1.1" xmlns="http://www.w3.org/2000/svg" xmlns:inkscape="http://www.inkscape.org/namespaces/inkscape">
<g id="world" inkscape:groupmode="layer" inkscape:label="world">
<path d="M325.6889 285.0133 L326.9689 283.5911 L322.9867 282.88 L319.2889 281.1733 L317.8667 279.04 L316.7744 277.7212 L316.7762 284.0732 L319.8224 284.0747 L321.5362 284.1509 L322.9867 285.1556 L325.6889 285.0133 M327.211 190.7936 L323.4892 190.1008 L321.1188 192.6711 L321.4642 193.3834 L320.488 196.3386 L317.3898 197.7417 L317.4798 202.4818 L316.8859 203.3974 L317.7371 204.5137 L315.7298 206.2826 L313.867 208.9504 L312.8503 211.5354 L313.1193 214.29 L311.3669 217.216 L312.6773 222.1261 L313.4157 222.6457 L313.4085 225.2617 L311.7851 228.0382 L311.8513 230.4145 L309.6978 232.272 L309.707 234.8852 L310.5716 237.6619 L308.8682 238.6945 L308.1081 241.2321 L307.4397 244.1453 L307.9202 247.6128 L306.7765 248.1917 L307.4406 251.4733 L308.7245 252.5514 L307.787 253.7448 L309.1063 254.3147 L309.4108 255.3863 L308.1691 255.9252 L308.4743 257.595 L307.4354 261.3613 L305.9275 263.7896 L306.258 265.2281 L305.3561 267.0325 L303.1739 268.2836 L303.4224 271.2997 L304.4245 272.3312 L306.3183 272.1479 L306.263 274.2783 L307.4423 275.9368 L314.3158 276.3172 L316.952 276.7629 L318.1511 276.9066 L316.258 275.26 L315.3393 272.3058 L316.5049 270.9738 L319.1009 269.8515 L320.9495 266.5169 L324.3091 264.9125 L325.2877 262.3606 L322.5683 261.7854 L319.7709 259.7028 L320.5865 257.5698 L322.8161 256.1127 L325.5032 256.1046 L326.1758 254.5817 L326.594 251.7202 L328.8781 249.9515 L331.4971 249.0685 L330.6497 247.5909 L329.0925 248.4879 L327.1721 247.6316 L326.7754 244.8052 L327.8732 244.0609 L330.6084 245.0966 L333.523 244.704 L335.2292 243.7032 L334.7043 242.2687 L335.2867 240.1397 L334.6888 238.4433 L337.8135 238.7297 L343.5183 238.1375 L347.7357 236.6119 L350.4689 232.9645 L350.6134 231.5751 L348.836 230.3357 L349.2243 228.3748 L345.613 225.9385 L345.8074 224.4536 L346.0278 222.6153 L346.6449 221.9821 L346.6171 219.1488 L347.378 216.2249 L348.0885 213.9486 L351.8837 210.0701 L355.0939 207.3086 L357.0042 206.1504 L359.3992 204.5823 L359.4571 202.3107 L358.0301 200.6688 L356.6214 201.2139 L356.1563 203.7242 L353.5763 205.9032 L351.3267 206.3602 L348.1322 205.9261 L345.2639 205.1519 L348.0643 200.8282 L347.6559 199.5729 L344.7264 198.461 L341.2509 196.36 L338.9253 195.9274 L333.6958 191.2861 L333.2367 190.6773 L329.993 190.5597 L328.8831 192.8479 L327.211 190.7936" stroke-dasharray="" fill="none" fill-opacity="1.0" stroke="#000000" stroke-opacity="1.0" stroke-width="1.0px" stroke-linecap="butt" stroke-linejoin="miter" stroke-dashoffset="0.0px"/>
<path d="M342.5505 355.6698 L339.5979 354.4994 L338.0936 355.5026 L335.9765 356.6731 L329.8484 356.3945 L323.4417 356.2831 L325.0015 357.119 L325.0015 357.2304 L328.5671 358.1779 L334.918 358.0108 L340.8792 358.4009 L341.7149 357.119 L342.5505 355.6698 M59.1412 354.125 L58.3612 352.8429 L56.1886 351.8397 L53.3472 350.9481 L48.0546 350.5019 L46.3278 351.561 L46.3278 351.561 L48.1661 352.3412 L48.2776 352.5085 L49.9489 353.5117 L53.6815 354.5151 L59.1412 354.125 M383.5598 350.0006 L379.2701 349.3873 L375.036 350.0006 L373.5876 350.0004 L373.5876 350.0004 L371.7491 351.171 L370.022 352.1741 L368.7407 353.233 L366.958 354.4594 L364.5066 355.4069 L358.4342 356.1871 L357.9328 357.3576 L361.6655 358.3052 L368.4065 358.4724 L374.3675 357.915 L379.7158 357.2462 L384.3398 356.5217 L388.7409 355.6299 L388.6295 354.1807 L388.2953 352.9545 L387.0696 351.2266 L383.5598 350.0006 M167.2206 337.0695 L163.8222 336.5678 L163.2093 337.5155 L163.2093 337.5155 L166.0506 338.5187 L170.0061 338.7415 L172.6802 338.017 L174.2958 337.0136 L170.8975 337.5153 L167.2206 337.0695 M154.8528 337.0136 L152.0115 336.3448 L149.9502 336.9579 L149.9502 336.9579 L153.8498 337.7383 L157.5268 338.017 L159.1982 338.1284 L154.8528 337.0136 M230.4525 332.6104 L226.3298 332.3875 L222.7087 331.9973 L220.9259 332.499 L220.9259 332.499 L222.4302 333.6694 L225.3271 334.2268 L229.1712 334.0597 L232.681 334.1711 L236.1351 334.0597 L238.3634 334.2825 L236.6921 332.6662 L233.5723 333.0006 L230.4525 332.6104 M317.2939 329.8299 L316.514 328.548 L315.5669 327.3216 L314.3412 326.0397 L313.6727 324.9807 L312.1685 323.9218 L309.55 324.3676 L307.9345 325.7053 L307.9902 327.9906 L307.823 329.0495 L306.9875 330.4987 L303.7004 330.3873 L301.7506 330.7217 L301.7506 330.7217 L298.6308 331.8365 L298.7978 333.007 L300.9706 333.843 L304.1461 333.4528 L307.4887 333.0627 L306.096 334.1774 L309.8286 334.2332 L313.0042 333.6758 L316.3469 333.2856 L317.1267 332.2266 L317.6282 331.1118 L317.2939 329.8299 M345.2753 310.4781 L348.1721 309.642 L349.2307 308.6945 L347.5594 307.9699 L345.331 308.3043 L343.7153 309.1961 L341.654 309.9207 L339.3142 310.2551 L337.3086 310.8125 L335.5259 311.7043 L332.796 311.8715 L331.0133 312.5961 L329.4534 313.3765 L328.3391 314.6027 L326.0549 315.4386 L324.1051 316.3306 L322.2665 317.3895 L320.7067 318.2256 L319.314 319.5075 L319.6482 320.6222 L320.2052 321.8484 L319.7596 322.9631 L318.6454 324.1336 L317.3084 325.1926 L317.0298 326.3073 L317.1969 327.422 L317.9212 328.4254 L318.8125 329.54 L319.8153 330.6548 L320.7067 331.7696 L321.041 332.9401 L320.3724 334.1663 L318.7012 335.0581 L315.9156 335.6712 L312.2943 336.0613 L308.2831 336.3958 L304.8291 336.7859 L301.932 337.5105 L298.9794 338.1237 L295.1911 338.4022 L293.2413 337.4547 L290.3442 336.8416 L286.4444 337.1203 L283.6031 336.0056 L282.489 337.0089 L280.2605 338.0678 L276.8622 337.4547 L273.408 337.1203 L269.6754 337.0089 L267.3356 335.8941 L263.7701 336.1728 L260.483 335.6712 L258.1989 334.3893 L255.7476 336.563 L251.9593 336.7859 L249.0624 336.1171 L245.5526 336.4515 L241.6527 337.0089 L237.9759 337.399 L234.1318 337.2318 L232.9063 336.2286 L230.0092 335.3925 L226.6666 334.9466 L222.9895 335.1138 L219.2569 334.9466 L217.0843 334.5565 L218.0871 336.6744 L218.6999 337.7334 L220.3155 338.7925 L223.9923 339.0153 L225.3851 340.0187 L227.2236 340.9662 L225.7194 342.1924 L221.8197 341.6909 L217.9756 341.3006 L213.6858 341.1892 L210.0646 341.6909 L206.0534 341.858 L202.7665 341.0776 L198.9225 340.7432 L195.5241 339.6843 L192.5715 340.5204 L190.7329 339.5727 L189.7302 338.5695 L187.8917 337.6777 L184.8276 338.6809 L181.4292 339.1826 L177.8637 338.5695 L174.4095 339.0153 L171.5127 339.8514 L167.6128 339.963 L163.3788 339.9071 L159.2562 339.8514 L155.3007 339.963 L151.0667 339.6843 L147.2226 339.4056 L143.49 339.7957 L139.5902 339.8514 L135.8018 339.3499 L131.5679 339.74 L129.6179 339.517 L127.3896 339.3499 L123.9356 339.963 L120.8713 340.5761 L117.0273 341.2449 L113.1833 341.5236 L109.1164 341.5793 L105.8294 342.304 L101.484 342.8614 L99.8126 341.9137 L96.1357 342.4154 L95.3 343.4187 L96.3029 344.4777 L96.4141 345.5367 L92.1245 345.8154 L88.8932 346.7629 L85.3278 347.5432 L81.5395 348.1564 L77.0269 348.435 L74.6871 347.2088 L70.1742 347.5989 L65.4945 347.8777 L62.932 346.9859 L61.5392 346.7071 L62.4305 349.9397 L64.6591 350.9431 L68.3359 351.8349 L70.1742 352.8939 L75.6898 353.1726 L80.8152 353.5627 L86.6648 353.73 L90.8432 354.5659 L94.5201 355.3463 L95.5228 356.5168 L93.2388 357.4643 L88.5589 358.5234 L83.4893 359.3595 L79.3667 358.4118 L72.7928 358.8578 L65.8846 358.6905 L70.2857 359.5823 L72.4585 360.5857 L77.1939 361.3659 L77.7511 362.5364 L76.6926 363.5954 L75.634 364.7659 L75.1326 366.0478 L82.765 366.6609 L85.1606 367.7757 L94.3529 368.4445 L105.5508 368.5561 L104.938 369.8937 L97.0271 370.6741 L89.5059 371.5102 L82.6536 370.6184 L70.5643 370.061 L62.3747 370.8413 L51.3998 370.1724 L44.993 369.2806 L36.9149 368.5561 L32.6252 367.6086 L31.2889 367.2687 L28.5832 366.6052 L20.2265 367.1069 L19.5796 367.2687 L15.9787 368.4532 L11.8617 367.2687 L11.5279 367.2475 L11.1369 367.2157 L8.1328 368.1221 L7.803 368.2217 L2.6775 367.3299 L0.1636 368.9854 L0.0 368.9625 L0.0 384.0 L1024.0 384.0 L1024.0 368.9625 L1019.0996 368.2774 L1012.5815 367.3856 L1004.7263 368.1101 L1002.6014 367.2687 L1002.0521 367.0512 L993.8625 366.4381 L992.4143 365.0446 L985.8962 364.1528 L981.6063 363.261 L977.6507 362.3692 L974.1966 361.4216 L971.7455 360.3627 L970.2969 359.1922 L966.5087 358.2447 L968.0127 357.1856 L969.2385 356.1265 L969.7398 354.7889 L972.1355 353.1726 L977.5395 353.0611 L981.8848 352.448 L987.0102 352.0021 L985.8962 350.7758 L980.6036 350.3858 L979.2665 349.3825 L978.6535 348.3234 L977.0379 347.2088 L976.9821 346.1498 L977.2608 344.8678 L977.9848 343.8089 L979.155 342.6384 L981.2163 341.7466 L983.1663 340.6875 L984.4474 339.5727 L988.1244 338.9596 L989.7958 337.9564 L993.5284 337.5105 L994.8654 336.34 L995.8683 335.3368 L997.1496 334.0549 L998.6538 333.0515 L998.9882 331.9367 L996.9825 331.1008 L994.0298 330.5434 L991.0773 329.8744 L987.9014 329.4843 L984.5033 329.2613 L981.1049 329.317 L978.0407 329.1499 L974.7538 329.2056 L971.5783 328.7598 L969.4056 327.7564 L966.1744 327.0876 L964.7815 325.9729 L961.4948 325.6385 L958.0406 325.3598 L955.5336 324.6911 L953.3607 323.7992 L950.8539 323.0188 L949.0153 323.9666 L945.7842 323.9106 L942.887 323.4649 L939.043 323.0188 L935.3661 322.5174 L932.1906 321.7927 L929.1266 321.1239 L927.288 320.2878 L927.8451 319.2288 L925.8394 318.337 L922.664 318.1141 L918.9315 318.0026 L916.2573 318.0583 L912.5246 318.0583 L909.9618 318.2256 L906.2293 318.2813 L902.9981 318.4486 L900.6025 317.9469 L899.4324 316.9994 L898.4855 315.8289 L897.984 314.5468 L896.2013 313.7666 L896.0898 314.9371 L895.3099 316.3306 L892.7473 316.5534 L890.1288 316.8321 L886.8976 316.8321 L884.0006 316.9437 L880.9366 317.3895 L878.3738 317.8912 L875.7554 317.6125 L873.2485 317.3338 L870.6856 317.3338 L868.0114 317.7796 L865.0589 317.501 L862.4961 317.1108 L859.9335 317.3338 L858.0392 318.2256 L855.8108 319.1174 L852.8581 319.3403 L849.2927 319.0616 L845.8943 318.337 L843.9443 317.6125 L840.8245 317.7239 L838.819 316.8321 L837.3706 315.9403 L835.1422 315.3829 L833.0251 315.996 L829.8495 316.1076 L827.8997 316.9437 L825.5597 317.7239 L822.4957 318.1141 L819.4315 318.4486 L816.8132 318.4486 L814.0275 318.3927 L810.4063 316.665 L808.5122 315.6616 L806.3393 314.8814 L804.5011 314.4911 L800.9355 316.6091 L798.9855 317.3895 L797.5372 318.337 L795.6428 319.2846 L792.6904 318.8944 L790.0719 319.2846 L787.0077 319.2846 L784.4451 319.6747 L782.2723 319.0616 L779.8768 318.8944 L778.0939 319.1731 L775.4198 319.1174 L772.523 318.8944 L769.793 319.2288 L767.0631 319.0058 L764.6675 318.4486 L763.3306 317.1108 L762.2721 316.3304 L760.8235 318.2256 L758.7623 319.0058 L755.6424 318.8387 L752.8568 319.1731 L750.2943 319.4518 L747.4529 319.1731 L745.3917 319.619 L743.7761 320.1206 L742.2161 321.0682 L739.8205 321.6256 L737.035 322.3501 L735.0851 323.4089 L734.2494 324.468 L732.8566 325.5827 L729.9597 326.0286 L727.1184 326.3631 L723.8871 326.4745 L722.1045 326.7532 L720.6002 328.1466 L719.876 329.1499 L718.0932 329.986 L716.5334 330.8778 L715.5862 331.9367 L714.0264 333.0515 L710.7394 333.5532 L707.4525 333.2745 L705.2797 332.3827 L706.6169 331.2122 L708.0652 330.1531 L708.4553 329.0384 L705.2797 329.0942 L704.8896 327.9794 L707.1182 326.9204 L709.848 326.1958 L710.1823 324.9139 L710.2937 324.1893 L707.9539 321.2353 L705.1126 321.2353 L702.3271 321.0124 L699.6529 320.678 L696.8674 320.3434 L694.1933 319.7305 L691.7418 320.9009 L689.4577 321.4583 L686.728 321.2911 L684.3882 320.5108 L682.4941 319.7305 L679.0955 319.3961 L677.3685 318.6157 L674.8614 317.6682 L674.583 316.442 L672.2988 315.6616 L669.6247 315.3829 L667.1177 315.2158 L664.4993 315.4386 L661.658 315.8846 L659.3182 316.442 L656.9225 317.2224 L656.3654 318.2256 L654.0256 318.8944 L651.3514 318.8387 L649.513 319.619 L646.9502 320.6222 L644.2762 320.2878 L642.0478 320.9009 L639.7078 321.5698 L637.4795 322.1828 L634.1368 322.7401 L631.3513 323.1304 L628.3985 324.0779 L625.8359 324.5794 L624.8331 325.8057 L621.9361 326.4745 L619.819 325.7499 L617.8134 324.7467 L614.8608 324.9696 L612.4095 324.3008 L611.2953 323.2975 L608.3425 322.8518 L606.7269 323.7992 L605.1671 325.3598 L602.9943 326.1401 L600.0974 326.4188 L597.4232 326.9204 L594.9162 327.7007 L591.9078 328.0351 L589.0666 328.4254 L585.891 328.4811 L582.6599 328.4811 L579.3171 328.5925 L576.1974 329.0942 L574.3589 328.2581 L573.0218 327.3106 L569.9577 327.1433 L566.7822 326.8089 L563.7738 326.7532 L560.4312 326.8647 L557.367 327.1991 L555.0272 328.2581 L553.9129 327.1991 L550.1803 327.0319 L547.2833 327.8123 L546.002 328.9269 L542.7707 329.4843 L541.1551 328.4811 L539.0937 327.1433 L536.1411 327.5336 L534.0242 326.8089 L532.2972 327.8123 L529.8458 328.4254 L526.6704 328.8712 L523.7733 329.54 L520.5977 329.9303 L517.3666 330.3204 L514.4695 330.8221 L511.3497 331.7696 L510.1241 330.5991 L506.8928 330.4318 L503.3273 330.7664 L499.6504 331.2679 L496.2521 331.1008 L495.5279 330.0417 L492.4637 329.763 L491.0153 330.8778 L490.9038 331.9367 L487.5054 331.8253 L486.1127 330.8778 L482.7142 330.7105 L480.653 331.4909 L479.2603 332.8287 L477.0318 333.9433 L474.1348 334.8351 L471.015 335.5039 L468.0623 336.0613 L466.1681 336.9532 L465.1653 338.1237 L468.1736 338.7925 L467.338 339.9071 L464.6639 340.7432 L462.1569 341.6909 L458.2015 342.5827 L455.0816 343.2515 L451.6275 343.9203 L448.1178 344.4777 L443.9394 344.8678 L439.5383 344.9793 L437.5884 345.2022 L433.7444 345.5924 L429.8445 346.094 L427.2818 347.2088 L423.8278 348.0448 L420.3737 348.8809 L415.5825 349.5496 L411.5156 350.2184 L410.2343 350.8316 L409.8443 352.9496 L410.6243 354.0086 L416.1953 354.0086 L422.045 353.5627 L427.5604 353.4513 L427.5604 354.5102 L428.7861 355.5134 L430.7917 356.5168 L426.3905 357.2413 L420.0952 357.743 L414.1898 358.1331 L408.8415 358.7462 L403.2147 359.3595 L396.0279 359.4152 L392.0725 360.2512 L390.234 361.4774 L384.4958 360.8085 L377.5319 360.4184 L370.4566 360.4741 L365.387 361.2545 L359.4815 361.979 L354.5233 362.8708 L349.8436 363.7069 L346.3894 364.7102 L344.9966 363.6511 L342.2111 362.3135 L336.9187 361.3659 L332.0717 360.5298 L325.1078 359.7496 L318.0327 359.3036 L312.8514 358.4118 L308.7845 357.52 L303.6591 356.7398 L297.6424 356.2938 L294.0211 355.2347 L293.4083 354.1758 L290.0657 353.2283 L290.177 352.1135 L290.3442 350.9431 L294.4111 350.2184 L299.3137 350.4971 L302.4893 349.6053 L300.7065 348.6021 L297.5309 347.8217 L293.1855 347.3203 L292.2941 346.2055 L297.0852 346.2055 L301.5978 345.9826 L306.6118 346.094 L311.1802 345.9826 L313.4643 344.8121 L317.3084 344.199 L320.8738 343.5859 L324.6621 343.1399 L328.9519 342.081 L330.6789 341.1335 L331.9603 340.1301 L335.7486 339.74 L337.4199 338.7925 L338.9799 337.622 L339.3699 336.1171 L338.4785 335.0024 L338.2557 333.8876 L337.4199 332.8287 L337.03 330.2088 L336.1944 329.1499 L334.8573 328.2024 L334.0216 327.0876 L333.4088 326.0286 L332.2388 324.9139 L330.0662 324.022 L327.7263 323.3533 L326.2221 322.4614 L325.2193 321.2911 L325.6649 320.2321 L327.4476 319.0058 L329.119 318.1141 L330.6789 317.1665 L333.3531 316.9437 L335.3029 316.2747 L333.9659 315.3272 L333.7988 314.2683 L334.1888 313.1535 L335.5816 312.3174 L337.6429 311.5928 L339.5927 310.924 L341.9325 310.6453 L344.0496 311.0912 L345.2753 310.4781" stroke-dasharray="" fill="none" fill-opacity="1.0" stroke="#000000" stroke-opacity="1.0" stroke-width="1.0px" stroke-linecap="butt" stroke-linejoin="miter" stroke-dashoffset="0.0px"/>
<path d="M333.2367 190.6773 L333.6958 191.2861 L334.8162 187.8802 L334.8879 186.3502 L336.2522 183.8471 L341.2094 183.0194 L343.8505 183.0596 L346.5003 184.5146 L346.5489 185.3915 L347.4381 184.8035 L347.1645 183.1822 L347.9438 181.9359 L348.4491 179.6955 L347.7773 177.927 L346.2235 177.1284 L345.9184 176.006 L346.3361 174.3632 L340.8828 174.2458 L339.7889 170.9338 L340.619 170.8863 L340.5815 169.6597 L340.0272 168.8292 L339.9017 167.1849 L338.2496 166.3414 L336.4602 166.3693 L335.283 165.5432 L333.3602 164.9796 L332.2411 163.9169 L329.0557 163.4474 L325.9668 160.8996 L326.1955 158.9927 L325.8458 157.8992 L326.1485 155.7674 L322.4266 156.2491 L320.9279 157.3172 L318.4407 158.4699 L317.8062 159.3302 L316.3416 159.3924 L314.2267 159.1516 L316.686 163.7299 L316.0744 164.6926 L315.9347 166.6921 L315.8787 169.1126 L314.7675 170.5335 L315.2772 171.5882 L314.6247 172.5444 L315.8481 174.9353 L314.0539 178.0054 L315.4482 179.9399 L315.8277 181.9923 L317.3199 183.1966 L316.4241 185.9489 L317.9522 189.1395 L319.0665 193.0607 L321.1188 192.6711 L323.4892 190.1008 L327.211 190.7936 L328.8831 192.8479 L329.993 190.5597 L333.2367 190.6773" stroke-dasharray="" fill="none" fill-opacity="1.0" stroke="#000000" stroke-opacity="1.0" stroke-width="1.0px" stroke-linecap="butt" stroke-linejoin="miter" stroke-dashoffset="0.0px"/>
<path d="M348.0885 213.9486 L349.9349 213.6453 L352.7872 215.8452 L353.8446 215.7621 L356.7717 217.5844 L359.0032 219.1566 L360.6483 221.092 L359.394 222.4413 L360.1816 224.0523 L362.0634 222.4258 L363.3605 219.7202 L365.2943 218.3899 L367.7956 216.1336 L370.9516 211.1274 L372.9395 209.5619 L373.585 208.1739 L374.1163 205.3004 L373.6434 203.7296 L374.0574 201.6058 L376.4651 198.7846 L379.8127 196.5197 L382.9984 195.6888 L385.0018 194.4234 L389.4764 193.3303 L392.5667 193.3371 L393.2326 191.6321 L395.5349 190.3995 L396.0185 187.4617 L398.9025 183.7486 L399.4069 179.9461 L400.3062 178.8238 L400.6084 176.9484 L401.4015 172.5641 L401.1996 167.2345 L401.9943 165.1418 L402.7054 165.0862 L404.8111 162.6203 L406.6232 159.4047 L410.6326 155.4468 L412.0798 153.5898 L413.2125 148.8874 L412.7402 147.1664 L411.7749 143.5447 L410.744 142.6475 L408.3116 142.5334 L406.1205 141.7129 L402.4878 138.5263 L398.2829 136.1722 L394.0333 136.2831 L388.4977 134.7786 L385.1901 135.6553 L385.6565 134.0807 L384.2682 132.4138 L379.5439 130.6767 L375.9646 129.6544 L373.8041 131.5209 L373.7015 128.6698 L368.6735 128.2231 L367.7888 127.3657 L369.9282 125.0242 L369.8515 123.0607 L368.3303 122.5911 L366.7349 117.6166 L366.0312 116.0434 L365.0623 116.1778 L363.3797 118.7809 L362.5062 120.8755 L361.4161 121.956 L360.0541 122.1592 L359.6662 121.3585 L359.03 121.2396 L358.1495 122.0109 L356.9074 121.4241 L355.278 120.8213 L353.9349 121.1122 L352.787 120.8594 L352.5025 121.6831 L352.9796 122.2485 L352.7233 122.8297 L351.1769 122.5969 L350.4848 122.6988 L348.9114 122.4575 L347.9866 123.214 L346.6995 123.7129 L345.8006 123.8359 L345.4862 124.393 L344.09 124.2519 L342.3401 122.9173 L342.1339 121.6011 L341.4058 120.1629 L341.8584 117.7415 L342.6474 116.7394 L341.9949 115.4176 L341.0176 114.9868 L341.3875 113.7378 L340.7255 113.0823 L339.2467 113.2081 L339.6233 114.0107 L338.5831 115.0963 L335.4014 116.1611 L333.356 116.6024 L332.5349 117.2748 L330.2732 116.5638 L328.1674 116.1999 L327.6343 116.4617 L328.9074 117.199 L328.7927 119.106 L329.1876 120.8974 L331.5972 121.1419 L331.751 121.7397 L329.7192 122.549 L329.3886 123.7537 L328.2176 124.2205 L326.1021 124.8845 L325.5516 125.755 L323.34 125.9393 L321.774 124.4349 L321.2372 124.7855 L320.6827 123.1076 L319.8925 122.2054 L318.9516 123.1859 L313.4095 123.1223 L313.4447 124.9022 L315.1114 125.1963 L315.0153 126.2858 L314.4465 125.9914 L312.8446 126.46 L312.8301 128.5267 L314.0919 129.5644 L314.5373 131.1932 L314.4701 132.4268 L313.1914 140.226 L310.6282 140.0925 L310.2468 140.5201 L307.9156 141.0673 L304.663 143.0032 L304.4565 144.3307 L303.7306 145.3204 L304.0141 146.8585 L302.2948 147.6796 L302.2979 148.8811 L301.5474 149.4011 L302.7312 151.9629 L304.3118 153.6934 L303.7107 154.9147 L305.5985 155.0797 L306.6741 156.5969 L309.1842 156.6704 L311.5182 154.9941 L311.3282 159.3149 L312.6222 159.6415 L314.2267 159.1516 L316.3416 159.3924 L317.8062 159.3302 L318.4407 158.4699 L320.9279 157.3172 L322.4266 156.2491 L326.1485 155.7674 L325.8458 157.8992 L326.1955 158.9927 L325.9668 160.8996 L329.0557 163.4474 L332.2411 163.9169 L333.3602 164.9796 L335.283 165.5432 L336.4602 166.3693 L338.2496 166.3414 L339.9017 167.1849 L340.0272 168.8292 L340.5815 169.6597 L340.619 170.8863 L339.7889 170.9338 L340.8828 174.2458 L346.3361 174.3632 L345.9184 176.006 L346.2235 177.1284 L347.7773 177.927 L348.4491 179.6955 L347.9438 181.9359 L347.1645 183.1822 L347.4381 184.8035 L346.5489 185.3915 L347.3901 186.973 L347.201 190.8343 L350.2037 191.3803 L351.3648 190.8233 L353.2858 191.593 L353.8185 192.4427 L354.0832 195.0492 L354.4157 196.1442 L355.4762 196.2703 L356.543 195.8104 L357.5667 196.3264 L357.5652 197.8903 L357.1799 199.5724 L356.6214 201.2139 L358.0301 200.6688 L359.4571 202.3107 L359.3992 204.5823 L357.0042 206.1504 L355.0939 207.3086 L351.8837 210.0701 L348.0885 213.9486" stroke-dasharray="" fill="none" fill-opacity="1.0" stroke="#000000" stroke-opacity="1.0" stroke-width="1.0px" stroke-linecap="butt" stroke-linejoin="miter" stroke-dashoffset="0.0px"/>
<path d="M316.7744 277.7212 L314.7502 277.3854 L312.1281 278.5599 L311.2056 280.5072 L309.738 281.8114 L305.965 280.7905 L301.9716 278.8905 L299.6266 278.2933 L303.5443 281.4792 L306.4494 283.0084 L310.0283 284.5976 L313.0081 285.0089 L315.0731 285.864 L316.7574 286.0943 L318.155 286.1848 L320.5944 285.3013 L321.5362 284.1509 L319.8224 284.0747 L316.7762 284.0732 L316.7744 277.7212 M317.9522 189.1395 L316.4241 185.9489 L317.3199 183.1966 L315.8277 181.9923 L315.4482 179.9399 L314.0539 178.0054 L313.2915 179.4637 L311.8291 180.1898 L312.4212 184.1962 L312.6293 188.8521 L311.7398 195.2114 L310.8268 201.1191 L310.3143 206.6215 L308.651 210.0948 L308.9918 213.6055 L308.1423 215.9521 L308.7973 220.2138 L307.5933 224.4525 L305.6266 229.0029 L303.8813 233.5965 L302.6828 233.689 L302.9175 236.8935 L303.7366 239.6692 L302.4296 241.6134 L301.46 246.883 L300.5669 250.951 L302.3606 251.3515 L303.2494 247.801 L305.1582 248.5571 L303.6719 254.4497 L300.5107 253.4487 L299.5423 258.1731 L296.8337 260.6866 L301.1511 261.5161 L298.1468 263.7139 L296.9372 266.4498 L297.302 271.2985 L298.7331 273.1901 L297.927 274.8568 L298.8181 276.6585 L302.3566 278.2864 L302.3566 278.2864 L305.613 280.2671 L308.8219 281.1917 L310.0264 281.1257 L310.485 278.4688 L313.0516 277.4412 L314.4212 276.7415 L316.952 276.7629 L314.3158 276.3172 L307.4423 275.9368 L306.263 274.2783 L306.3183 272.1479 L304.4245 272.3312 L303.4224 271.2997 L303.1739 268.2836 L305.3561 267.0325 L306.258 265.2281 L305.9275 263.7896 L307.4354 261.3613 L308.4743 257.595 L308.1691 255.9252 L309.4108 255.3863 L309.1063 254.3147 L307.787 253.7448 L308.7245 252.5514 L307.4406 251.4733 L306.7765 248.1917 L307.9202 247.6128 L307.4397 244.1453 L308.1081 241.2321 L308.8682 238.6945 L310.5716 237.6619 L309.707 234.8852 L309.6978 232.272 L311.8513 230.4145 L311.7851 228.0382 L313.4085 225.2617 L313.4157 222.6457 L312.6773 222.1261 L311.3669 217.216 L313.1193 214.29 L312.8503 211.5354 L313.867 208.9504 L315.7298 206.2826 L317.7371 204.5137 L316.8859 203.3974 L317.4798 202.4818 L317.3898 197.7417 L320.488 196.3386 L321.4642 193.3834 L321.1188 192.6711 L319.0665 193.0607 L317.9522 189.1395" stroke-dasharray="" fill="none" fill-opacity="1.0" stroke="#000000" stroke-opacity="1.0" stroke-width="1.0px" stroke-linecap="butt" stroke-linejoin="miter" stroke-dashoffset="0.0px"/>
<path d="M297.6051 128.4324 L298.3634 128.1627 L300.255 129.5099 L301.163 130.8525 L302.4796 131.5854 L304.1553 134.5677 L306.2733 134.924 L307.8407 134.1718 L308.8679 134.664 L310.575 134.4195 L312.7532 135.7516 L310.9186 138.6464 L311.7681 138.7139 L313.1914 140.226 L314.4701 132.4268 L314.5373 131.1932 L314.0919 129.5644 L312.8301 128.5267 L312.8446 126.46 L314.4465 125.9914 L315.0153 126.2858 L315.1114 125.1963 L313.4447 124.9022 L313.4095 123.1223 L318.9516 123.1859 L319.8925 122.2054 L320.6827 123.1076 L321.2372 124.7855 L321.774 124.4349 L320.9065 121.5982 L320.1505 120.6036 L319.1184 119.9768 L320.5599 118.5608 L320.462 117.924 L319.6534 117.0788 L319.0812 115.1888 L319.304 113.1488 L319.9388 112.1938 L320.451 110.6618 L319.4451 110.173 L317.8239 110.4974 L315.7751 110.3451 L314.6255 110.6493 L312.6235 108.2016 L310.9711 107.8392 L307.3133 108.1127 L306.6358 107.1206 L305.9357 106.8835 L305.8356 106.2898 L306.1734 105.2369 L305.9488 104.0917 L305.3213 103.4658 L304.9565 102.1581 L303.4881 101.9676 L304.277 100.3043 L304.625 98.2746 L305.4516 97.2175 L306.5527 96.4019 L307.2742 94.9798 L309.1013 94.503 L309.6534 93.5453 L308.9072 92.797 L307.8995 92.6228 L306.5225 93.9931 L305.4142 94.6291 L303.1758 96.0654 L300.9501 95.828 L300.7239 96.4209 L298.9315 96.4749 L297.3001 97.7949 L296.776 100.1984 L296.7478 101.1392 L295.5765 101.4419 L293.4423 103.4276 L291.9727 103.3372 L291.6275 103.7531 L292.2878 105.4285 L291.7515 106.274 L290.8347 106.0698 L290.4702 107.4524 L291.6219 108.9675 L292.0709 111.3732 L291.4611 112.12 L292.1028 114.7222 L291.5662 116.373 L292.6146 117.0499 L291.5259 118.5422 L290.3281 120.3297 L288.917 120.5204 L288.25 121.5506 L288.3759 122.9756 L287.3147 123.189 L287.7006 124.072 L290.5456 125.6962 L291.0759 125.6508 L291.7689 126.8745 L294.1827 127.2692 L294.9908 126.8166 L296.3869 127.7588 L297.6051 128.4324" stroke-dasharray="" fill="none" fill-opacity="1.0" stroke="#000000" stroke-opacity="1.0" stroke-width="1.0px" stroke-linecap="butt" stroke-linejoin="miter" stroke-dashoffset="0.0px"/>
<path d="M283.5838 137.6849 L283.921 138.8691 L283.1096 139.5464 L283.1865 140.5887 L284.3622 140.3622 L285.5112 140.6697 L286.705 142.106 L288.3132 140.9359 L288.8514 139.0168 L290.5944 136.5419 L294.0149 135.4202 L297.1165 132.4419 L298.0019 130.5925 L297.6051 128.4324 L296.3869 127.7588 L294.9908 126.8166 L294.1827 127.2692 L291.7689 126.8745 L291.0759 125.6508 L290.5456 125.6962 L287.7006 124.072 L285.745 125.2041 L284.1867 125.8142 L284.385 126.975 L283.3086 128.807 L282.7851 130.579 L281.7887 131.0079 L282.269 133.5895 L281.6917 134.3913 L283.3955 135.6378 L284.4827 134.3169 L285.0978 135.5591 L283.5838 137.6849" stroke-dasharray="" fill="none" fill-opacity="1.0" stroke="#000000" stroke-opacity="1.0" stroke-width="1.0px" stroke-linecap="butt" stroke-linejoin="miter" stroke-dashoffset="0.0px"/>
<path d="M1019.3738 177.3224 L1018.6683 177.7915 L1017.3749 177.4397 L1016.2774 178.4168 L1016.5517 179.6674 L1018.1196 180.0192 L1019.8833 179.6283 L1020.3536 178.1432 L1019.3738 177.3224 M1022.1913 175.7905 L1024.0 175.0904 L1024.0 173.7021 L1022.3318 174.5893 L1021.4304 174.7456 L1020.0088 175.3291 L1020.3735 176.3898 L1022.1913 175.7905 M0.235 174.9384 L0.5879 173.5705 L0.0 173.7021 L0.0 175.0904 L0.235 174.9384" stroke-dasharray="" fill="none" fill-opacity="1.0" stroke="#000000" stroke-opacity="1.0" stroke-width="1.0px" stroke-linecap="butt" stroke-linejoin="miter" stroke-dashoffset="0.0px"/>
<path d="M337.92 275.4844 L339.3422 276.7644 L341.76 275.4844 L343.04 276.48 L346.88 275.6267 L347.7333 274.6311 L345.4578 273.3511 L343.7511 274.4889 L341.3333 273.7778 L337.92 275.4844" stroke-dasharray="" fill="none" fill-opacity="1.0" stroke="#000000" stroke-opacity="1.0" stroke-width="1.0px" stroke-linecap="butt" stroke-linejoin="miter" stroke-dashoffset="0.0px"/>
<path d="M314.0539 178.0054 L315.8481 174.9353 L314.6247 172.5444 L315.2772 171.5882 L314.7675 170.5335 L315.8787 169.1126 L315.9347 166.6921 L316.0744 164.6926 L316.686 163.7299 L314.2267 159.1516 L312.6222 159.6415 L311.3282 159.3149 L311.5182 154.9941 L309.1842 156.6704 L306.6741 156.5969 L305.5985 155.0797 L303.7107 154.9147 L304.3118 153.6934 L302.7312 151.9629 L301.5474 149.4011 L302.2979 148.8811 L302.2948 147.6796 L304.0141 146.8585 L303.7306 145.3204 L304.4565 144.3307 L304.663 143.0032 L307.9156 141.0673 L310.2468 140.5201 L310.6282 140.0925 L313.1914 140.226 L311.7681 138.7139 L310.9186 138.6464 L312.7532 135.7516 L310.575 134.4195 L308.8679 134.664 L307.8407 134.1718 L306.2733 134.924 L304.1553 134.5677 L302.4796 131.5854 L301.163 130.8525 L300.255 129.5099 L298.3634 128.1627 L297.6051 128.4324 L298.0019 130.5925 L297.1165 132.4419 L294.0149 135.4202 L290.5944 136.5419 L288.8514 139.0168 L288.3132 140.9359 L286.705 142.106 L285.5112 140.6697 L284.3622 140.3622 L283.1865 140.5887 L283.1096 139.5464 L283.921 138.8691 L283.5838 137.6849 L281.3165 139.4813 L280.4311 141.4735 L281.8095 144.1865 L280.8889 145.4559 L282.9156 146.6074 L285.1255 148.4639 L286.0205 150.5588 L287.1838 151.8551 L289.8712 157.5188 L292.6757 162.7668 L295.0848 166.4997 L294.6177 167.3193 L295.796 169.6691 L297.99 171.4224 L303.0911 174.5333 L308.7302 177.3895 L308.9771 178.5566 L311.8291 180.1898 L313.2915 179.4637 L314.0539 178.0054" stroke-dasharray="" fill="none" fill-opacity="1.0" stroke="#000000" stroke-opacity="1.0" stroke-width="1.0px" stroke-linecap="butt" stroke-linejoin="miter" stroke-dashoffset="0.0px"/>
<path d="M333.6958 191.2861 L338.9253 195.9274 L341.2509 196.36 L344.7264 198.461 L347.6559 199.5729 L348.0643 200.8282 L345.2639 205.1519 L348.1322 205.9261 L351.3267 206.3602 L353.5763 205.9032 L356.1563 203.7242 L356.6214 201.2139 L357.1799 199.5724 L357.5652 197.8903 L357.5667 196.3264 L356.543 195.8104 L355.4762 196.2703 L354.4157 196.1442 L354.0832 195.0492 L353.8185 192.4427 L353.2858 191.593 L351.3648 190.8233 L350.2037 191.3803 L347.201 190.8343 L347.3901 186.973 L346.5489 185.3915 L346.5003 184.5146 L343.8505 183.0596 L341.2094 183.0194 L336.2522 183.8471 L334.8879 186.3502 L334.8162 187.8802 L333.6958 191.2861" stroke-dasharray="" fill="none" fill-opacity="1.0" stroke="#000000" stroke-opacity="1.0" stroke-width="1.0px" stroke-linecap="butt" stroke-linejoin="miter" stroke-dashoffset="0.0px"/>
<path d="M348.0885 213.9486 L347.378 216.2249 L346.6171 219.1488 L346.6449 221.9821 L346.0278 222.6153 L345.8074 224.4536 L347.5403 226.0268 L349.4693 225.9355 L352.0987 227.1569 L353.6381 226.852 L355.738 227.4209 L358.9506 225.8398 L360.1816 224.0523 L359.394 222.4413 L360.6483 221.092 L359.0032 219.1566 L356.7717 217.5844 L353.8446 215.7621 L352.7872 215.8452 L349.9349 213.6453 L348.0885 213.9486" stroke-dasharray="" fill="none" fill-opacity="1.0" stroke="#000000" stroke-opacity="1.0" stroke-width="1.0px" stroke-linecap="butt" stroke-linejoin="miter" stroke-dashoffset="0.0px"/>
</g>
</svg>