<?xml version="1.0" standalone="no"?>
<!DOCTYPE svg PUBLIC "-//W3C//DTD SVG 1.1//EN" "http://www.w3.org/Graphics/SVG/1.1/DTD/svg11.dtd">
<svg width="400px" height="400px" version="1.1" xmlns="http://www.w3.org/2000/svg" xmlns:inkscape="http://www.inkscape.org/namespaces/inkscape">
<rect x="0" y="0" width="400px" height="400px" fill="#ffffff"/>
<g id="layer" inkscape:groupmode="layer" inkscape:label="layer">
<path d="M33.3333 366.6667 L40.3333 307.6667 L47.1667 255.1667 L54.1667 209.1667 L61.1667 169.1667 L68.0 135.0 L75.0 106.3333 L82.0 82.8333 L88.8333 64.1667 L95.8333 50.3333 L102.8333 40.6667 L109.6667 35.1667 L116.6667 33.3333 L123.6667 35.0 L130.5 39.8333 L137.5 47.6667 L144.5 58.0 L151.3333 70.6667 L158.3333 85.3333 L165.3333 101.8333 L172.1667 119.8333 L179.1667 138.8333 L186.1667 158.6667 L193.0 179.1667 L200.0 200.0 L207.0 220.8333 L213.8333 241.3333 L220.8333 261.1667 L227.8333 280.1667 L234.6667 298.1667 L241.6667 314.6667 L248.6667 329.3333 L255.5 342.0 L262.5 352.3333 L269.5 360.1667 L276.3333 365.0 L283.3333 366.6667 L290.3333 364.8333 L297.1667 359.3333 L304.1667 349.6667 L311.1667 335.8333 L318.0 317.1667 L325.0 293.6667 L332.0 265.0 L338.8333 230.8333 L345.8333 190.8333 L352.8333 144.8333 L359.6667 92.3333 L366.6667 33.3333" stroke-dasharray="" fill="none" fill-opacity="1.0" stroke="#add8e6" stroke-opacity="1.0" stroke-width="1.0px" stroke-linecap="butt" stroke-linejoin="miter" stroke-dashoffset="0.0px"/>
</g>
</svg>