<?xml version="1.0" standalone="no"?>
<!DOCTYPE svg PUBLIC "-//W3C//DTD SVG 1.1//EN" "http://www.w3.org/Graphics/SVG/1.1/DTD/svg11.dtd">
<svg width="800px" height="800px" version="1.1" xmlns="http://www.w3.org/2000/svg" xmlns:inkscape="http://www.inkscape.org/namespaces/inkscape">
<rect x="0" y="0" width="800px" height="800px" fill="#ffffff"/>
<g id="layer" inkscape:groupmode="layer" inkscape:label="layer">
<path d="M66.6667 733.3333 L80.6667 615.3333 L94.3333 510.3333 L108.3333 418.3333 L122.3333 338.3333 L136.0 270.0 L150.0 212.6667 L164.0 165.6667 L177.6667 128.3333 L191.6667 100.6667 L205.6667 81.3333 L219.3333 70.3333 L233.3333 66.6667 L247.3333 70.0 L261.0 79.6667 L275.0 95.3333 L289.0 116.0 L302.6667 141.3333 L316.6667 170.6667 L330.6667 203.6667 L344.3333 239.6667 L358.3333 277.6667 L372.3333 317.3333 L386.0 358.3333 L400.0 400.0 L414.0 441.6667 L427.6667 482.6667 L441.6667 522.3333 L455.6667 560.3333 L469.3333 596.3333 L483.3333 629.3333 L497.3333 658.6667 L511.0 684.0 L525.0 704.6667 L539.0 720.3333 L552.6667 730.0 L566.6667 733.3333 L580.6667 729.6667 L594.3333 718.6667 L608.3333 699.3333 L622.3333 671.6667 L636.0 634.3333 L650.0 587.3333 L664.0 530.0 L677.6667 461.6667 L691.6667 381.6667 L705.6667 289.6667 L719.3333 184.6667 L733.3333 66.6667" stroke-dasharray="" fill="none" fill-opacity="1.0" stroke="#add8e6" stroke-opacity="1.0" stroke-width="1.0px" stroke-linecap="butt" stroke-linejoin="miter" stroke-dashoffset="0.0px"/>
</g>
</svg>