<?xml version="1.0" standalone="no"?>
<!DOCTYPE svg PUBLIC "-//W3C//DTD SVG 1.1//EN" "http://www.w3.org/Graphics/SVG/1.1/DTD/svg11.dtd">
<svg width="200px" height="200px" version="1.1" xmlns="http://www.w3.org/2000/svg" xmlns:inkscape="http://www.inkscape.org/namespaces/inkscape">
<rect x="0" y="0" width="200px" height="200px" fill="#ffffff"/>
<g id="layer" inkscape:groupmode="layer" inkscape:label="layer">
<path d="M16.6667 183.3333 L20.1667 153.8333 L23.5833 127.5833 L27.0833 104.5833 L30.5833 84.5833 L34.0 67.5 L37.5 53.1667 L41.0 41.4167 L44.4167 32.0833 L47.9167 25.1667 L51.4167 20.3333 L54.8333 17.5833 L58.3333 16.6667 L61.8333 17.5 L65.25 19.9167 L68.75 23.8333 L72.25 29.0 L75.6667 35.3333 L79.1667 42.6667 L82.6667 50.9167 L86.0833 59.9167 L89.5833 69.4167 L93.0833 79.3333 L96.5 89.5833 L100.0 100.0 L103.5 110.4167 L106.9167 120.6667 L110.4167 130.5833 L113.9167 140.0833 L117.3333 149.0833 L120.8333 157.3333 L124.3333 164.6667 L127.75 171.0 L131.25 176.1667 L134.75 180.0833 L138.1667 182.5 L141.6667 183.3333 L145.1667 182.4167 L148.5833 179.6667 L152.0833 174.8333 L155.5833 167.9167 L159.0 158.5833 L162.5 146.8333 L166.0 132.5 L169.4167 115.4167 L172.9167 95.4167 L176.4167 72.4167 L179.8333 46.1667 L183.3333 16.6667" stroke-dasharray="" fill="none" fill-opacity="1.0" stroke="#add8e6" stroke-opacity="1.0" stroke-width="1.0px" stroke-linecap="butt" stroke-linejoin="miter" stroke-dashoffset="0.0px"/>
</g>
</svg>