<?xml version="1.0" standalone="no"?>
<!DOCTYPE svg PUBLIC "-//W3C//DTD SVG 1.1//EN" "http://www.w3.org/Graphics/SVG/1.1/DTD/svg11.dtd">
<svg width="600px" height="600px" version="1.1" xmlns="http://www.w3.org/2000/svg" xmlns:inkscape="http://www.inkscape.org/namespaces/inkscape">
<rect x="0" y="0" width="600px" height="600px" fill="#ffffff"/>
<g id="layer" inkscape:groupmode="layer" inkscape:label="layer">
<path d="M50.0 550.0 L60.5 461.5 L70.75 382.75 L81.25 313.75 L91.75 253.75 L102.0 202.5 L112.5 159.5 L123.0 124.25 L133.25 96.25 L143.75 75.5 L154.25 61.0 L164.5 52.75 L175.0 50.0 L185.5 52.5 L195.75 59.75 L206.25 71.5 L216.75 87.0 L227.0 106.0 L237.5 128.0 L248.0 152.75 L258.25 179.75 L268.75 208.25 L279.25 238.0 L289.5 268.75 L300.0 300.0 L310.5 331.25 L320.75 362.0 L331.25 391.75 L341.75 420.25 L352.0 447.25 L362.5 472.0 L373.0 494.0 L383.25 513.0 L393.75 528.5 L404.25 540.25 L414.5 547.5 L425.0 550.0 L435.5 547.25 L445.75 539.0 L456.25 524.5 L466.75 503.75 L477.0 475.75 L487.5 440.5 L498.0 397.5 L508.25 346.25 L518.75 286.25 L529.25 217.25 L539.5 138.5 L550.0 50.0" stroke-dasharray="" fill="none" fill-opacity="1.0" stroke="#add8e6" stroke-opacity="1.0" stroke-width="1.0px" stroke-linecap="butt" stroke-linejoin="miter" stroke-dashoffset="0.0px"/>
</g>
</svg>