<?xml version="1.0" standalone="no"?>
<!DOCTYPE svg PUBLIC "-//W3C//DTD SVG 1.1//EN" "http://www.w3.org/Graphics/SVG/1.1/DTD/svg11.dtd">
<svg width="512px" height="512px" version="1.1" xmlns="http://www.w3.org/2000/svg" xmlns:inkscape="http://www.inkscape.org/namespaces/inkscape">
<g id="polygon" inkscape:groupmode="layer" inkscape:label="polygon">
<path d="M71.3507 357.7286 L326.8715 357.7286 L326.8715 102.2078 L71.3507 102.2078 L71.3507 357.7286" stroke-dasharray="" fill="none" fill-opacity="1.0" stroke="#000000" stroke-opacity="0.01" stroke-width="50.0px" stroke-linecap="butt" stroke-linejoin="miter" stroke-dashoffset="0.0px"/>
<path d="M71.3507 357.7286 L326.8715 357.7286 L326.8715 102.2078 L71.3507 102.2078 L71.3507 357.7286" stroke-dasharray="" fill="none" fill-opacity="1.0" stroke="#000000" stroke-opacity="0.01" stroke-width="50.0px" stroke-linecap="butt" stroke-linejoin="miter" stroke-dashoffset="0.0px"/>
<path d="M71.3507 357.7286 L326.8715 357.7286 L326.8715 102.2078 L71.3507 102.2078 L71.3507 357.7286" stroke-dasharray="" fill="none" fill-opacity="1.0" stroke="#000000" stroke-opacity="0.01" stroke-width="50.0px" stroke-linecap="butt" stroke-linejoin="miter" stroke-dashoffset="0.0px"/>
<path d="M71.3507 357.7286 L326.8715 357.7286 L326.8715 102.2078 L71.3507 102.2078 L71.3507 357.7286" stroke-dasharray="" fill="none" fill-opacity="1.0" stroke="#000000" stroke-opacity="0.01" stroke-width="50.0px" stroke-linecap="butt" stroke-linejoin="miter" stroke-dashoffset="0.0px"/>
<path d="M71.3507 357.7286 L326.8715 357.7286 L326.8715 102.2078 L71.3507 102.2078 L71.3507 357.7286" stroke-dasharray="" fill="none" fill-opacity="1.0" stroke="#000000" stroke-opacity="0.01" stroke-width="50.0px" stroke-linecap="butt" stroke-linejoin="miter" stroke-dashoffset="0.0px"/>
<path d="M71.3507 357.7286 L326.8715 357.7286 L326.8715 102.2078 L71.3507 102.2078 L71.3507 357.7286" stroke-dasharray="" fill="none" fill-opacity="1.0" stroke="#000000" stroke-opacity="0.01" stroke-width="50.0px" stroke-linecap="butt" stroke-linejoin="miter" stroke-dashoffset="0.0px"/>
<path d="M71.3507 357.7286 L326.8715 357.7286 L326.8715 102.2078 L71.3507 102.2078 L71.3507 357.7286" stroke-dasharray="" fill="none" fill-opacity="1.0" stroke="#000000" stroke-opacity="0.01" stroke-width="50.0px" stroke-linecap="butt" stroke-linejoin="miter" stroke-dashoffset="0.0px"/>
<path d="M71.3507 357.7286 L326.8715 357.7286 L326.8715 102.2078 L71.3507 102.2078 L71.3507 357.7286" stroke-dasharray="" fill="none" fill-opacity="1.0" stroke="#000000" stroke-opacity="0.01" stroke-width="50.0px" stroke-linecap="butt" stroke-linejoin="miter" stroke-dashoffset="0.0px"/>
<path d="M71.3507 357.7286 L326.8715 357.7286 L326.8715 102.2078 L71.3507 102.2078 L71.3507 357.7286" stroke-dasharray="" fill="none" fill-opacity="1.0" stroke="#000000" stroke-opacity="0.01" stroke-width="50.0px" stroke-linecap="butt" stroke-linejoin="miter" stroke-dashoffset="0.0px"/>
<path d="M71.3507 357.7286 L326.8715 357.7286 L326.8715 102.2078 L71.3507 102.2078 L71.3507 357.7286" stroke-dasharray="" fill="none" fill-opacity="1.0" stroke="#000000" stroke-opacity="0.01" stroke-width="50.0px" stroke-linecap="butt" stroke-linejoin="miter" stroke-dashoffset="0.0px"/>
<path d="M71.3507 357.7286 L326.8715 357.7286 L326.8715 102.2078 L71.3507 102.2078 L71.3507 357.7286" stroke-dasharray="" fill="none" fill-opacity="1.0" stroke="#000000" stroke-opacity="0.01" stroke-width="50.0px" stroke-linecap="butt" stroke-linejoin="miter" stroke-dashoffset="0.0px"/>
<path d="M71.3507 357.7286 L326.8715 357.7286 L326.8715 102.2078 L71.3507 102.2078 L71.3507 357.7286" stroke-dasharray="" fill="none" fill-opacity="1.0" stroke="#000000" stroke-opacity="0.01" stroke-width="50.0px" stroke-linecap="butt" stroke-linejoin="miter" stroke-dashoffset="0.0px"/>
<path d="M71.3507 357.7286 L326.8715 357.7286 L326.8715 102.2078 L71.3507 102.2078 L71.3507 357.7286" stroke-dasharray="" fill="none" fill-opacity="1.0" stroke="#000000" stroke-opacity="0.01" stroke-width="50.0px" stroke-linecap="butt" stroke-linejoin="miter" stroke-dashoffset="0.0px"/>
<path d="M71.3507 357.7286 L326.8715 357.7286 L326.8715 102.2078 L71.3507 102.2078 L71.3507 357.7286" stroke-dasharray="" fill="none" fill-opacity="1.0" stroke="#000000" stroke-opacity="0.01" stroke-width="50.0px" stroke-linecap="butt" stroke-linejoin="miter" stroke-dashoffset="0.0px"/>
<path d="M71.3507 357.7286 L326.8715 357.7286 L326.8715 102.2078 L71.3507 102.2078 L71.3507 357.7286" stroke-dasharray="" fill="none" fill-opacity="1.0" stroke="#000000" stroke-opacity="0.01" stroke-width="50.0px" stroke-linecap="butt" stroke-linejoin="miter" stroke-dashoffset="0.0px"/>
<path d="M71.3507 357.7286 L326.8715 357.7286 L326.8715 102.2078 L71.3507 102.2078 L71.3507 357.7286" stroke-dasharray="" fill="none" fill-opacity="1.0" stroke="#000000" stroke-opacity="0.01" stroke-width="50.0px" stroke-linecap="butt" stroke-linejoin="miter" stroke-dashoffset="0.0px"/>
<path d="M71.3507 357.7286 L326.8715 357.7286 L326.8715 102.2078 L71.3507 102.2078 L71.3507 357.7286" stroke-dasharray="" fill="none" fill-opacity="1.0" stroke="#000000" stroke-opacity="0.01" stroke-width="50.0px" stroke-linecap="butt" stroke-linejoin="miter" stroke-dashoffset="0.0px"/>
<path d="M71.3507 357.7286 L326.8715 357.7286 L326.8715 102.2078 L71.3507 102.2078 L71.3507 357.7286" stroke-dasharray="" fill="none" fill-opacity="1.0" stroke="#000000" stroke-opacity="0.01" stroke-width="50.0px" stroke-linecap="butt" stroke-linejoin="miter" stroke-dashoffset="0.0px"/>
<path d="M71.3507 357.7286 L326.8715 357.7286 L326.8715 102.2078 L71.3507 102.2078 L71.3507 357.7286" stroke-dasharray="" fill="none" fill-opacity="1.0" stroke="#000000" stroke-opacity="0.01" stroke-width="50.0px" stroke-linecap="butt" stroke-linejoin="miter" stroke-dashoffset="0.0px"/>
<path d="M71.3507 357.7286 L326.8715 357.7286 L326.8715 102.2078 L71.3507 102.2078 L71.3507 357.7286" stroke-dasharray="" fill="none" fill-opacity="1.0" stroke="#000000" stroke-opacity="0.01" stroke-width="50.0px" stroke-linecap="butt" stroke-linejoin="miter" stroke-dashoffset="0.0px"/>
<path d="M71.3507 357.7286 L326.8715 357.7286 L326.8715 102.2078 L71.3507 102.2078 L71.3507 357.7286" stroke-dasharray="" fill="none" fill-opacity="1.0" stroke="#000000" stroke-opacity="0.01" stroke-width="50.0px" stroke-linecap="butt" stroke-linejoin="miter" stroke-dashoffset="0.0px"/>
<path d="M71.3507 357.7286 L326.8715 357.7286 L326.8715 102.2078 L71.3507 102.2078 L71.3507 357.7286" stroke-dasharray="" fill="none" fill-opacity="1.0" stroke="#000000" stroke-opacity="0.01" stroke-width="50.0px" stroke-linecap="butt" stroke-linejoin="miter" stroke-dashoffset="0.0px"/>
<path d="M71.3507 357.7286 L326.8715 357.7286 L326.8715 102.2078 L71.3507 102.2078 L71.3507 357.7286" stroke-dasharray="" fill="none" fill-opacity="1.0" stroke="#000000" stroke-opacity="0.01" stroke-width="50.0px" stroke-linecap="butt" stroke-linejoin="miter" stroke-dashoffset="0.0px"/>
<path d="M71.3507 357.7286 L326.8715 357.7286 L326.8715 102.2078 L71.3507 102.2078 L71.3507 357.7286" stroke-dasharray="" fill="none" fill-opacity="1.0" stroke="#000000" stroke-opacity="0.01" stroke-width="50.0px" stroke-linecap="butt" stroke-linejoin="miter" stroke-dashoffset="0.0px"/>
<path d="M71.3507 357.7286 L326.8715 357.7286 L326.8715 102.2078 L71.3507 102.2078 L71.3507 357.7286" stroke-dasharray="" fill="none" fill-opacity="1.0" stroke="#000000" stroke-opacity="0.01" stroke-width="50.0px" stroke-linecap="butt" stroke-linejoin="miter" stroke-dashoffset="0.0px"/>
<path d="M71.3507 357.7286 L326.8715 357.7286 L326.8715 102.2078 L71.3507 102.2078 L71.3507 357.7286" stroke-dasharray="" fill="none" fill-opacity="1.0" stroke="#000000" stroke-opacity="0.01" stroke-width="50.0px" stroke-linecap="butt" stroke-linejoin="miter" stroke-dashoffset="0.0px"/>
<path d="M71.3507 357.7286 L326.8715 357.7286 L326.8715 102.2078 L71.3507 102.2078 L71.3507 357.7286" stroke-dasharray="" fill="none" fill-opacity="1.0" stroke="#000000" stroke-opacity="0.01" stroke-width="50.0px" stroke-linecap="butt" stroke-linejoin="miter" stroke-dashoffset="0.0px"/>
<path d="M71.3507 357.7286 L326.8715 357.7286 L326.8715 102.2078 L71.3507 102.2078 L71.3507 357.7286" stroke-dasharray="" fill="none" fill-opacity="1.0" stroke="#000000" stroke-opacity="0.01" stroke-width="50.0px" stroke-linecap="butt" stroke-linejoin="miter" stroke-dashoffset="0.0px"/>
<path d="M71.3507 357.7286 L326.8715 357.7286 L326.8715 102.2078 L71.3507 102.2078 L71.3507 357.7286" stroke-dasharray="" fill="none" fill-opacity="1.0" stroke="#000000" stroke-opacity="0.01" stroke-width="50.0px" stroke-linecap="butt" stroke-linejoin="miter" stroke-dashoffset="0.0px"/>
<path d="M71.3507 357.7286 L326.8715 357.7286 L326.8715 102.2078 L71.3507 102.2078 L71.3507 357.7286" stroke-dasharray="" fill="none" fill-opacity="1.0" stroke="#000000" stroke-opacity="0.01" stroke-width="50.0px" stroke-linecap="butt" stroke-linejoin="miter" stroke-dashoffset="0.0px"/>
<path d="M71.3507 357.7286 L326.8715 357.7286 L326.8715 102.2078 L71.3507 102.2078 L71.3507 357.7286" stroke-dasharray="" fill="none" fill-opacity="1.0" stroke="#000000" stroke-opacity="0.01" stroke-width="50.0px" stroke-linecap="butt" stroke-linejoin="miter" stroke-dashoffset="0.0px"/>
<path d="M71.3507 357.7286 L326.8715 357.7286 L326.8715 102.2078 L71.3507 102.2078 L71.3507 357.7286" stroke-dasharray="" fill="none" fill-opacity="1.0" stroke="#000000" stroke-opacity="0.01" stroke-width="50.0px" stroke-linecap="butt" stroke-linejoin="miter" stroke-dashoffset="0.0px"/>
<path d="M71.3507 357.7286 L326.8715 357.7286 L326.8715 102.2078 L71.3507 102.2078 L71.3507 357.7286" stroke-dasharray="" fill="none" fill-opacity="1.0" stroke="#000000" stroke-opacity="0.01" stroke-width="50.0px" stroke-linecap="butt" stroke-linejoin="miter" stroke-dashoffset="0.0px"/>
<path d="M71.3507 357.7286 L326.8715 357.7286 L326.8715 102.2078 L71.3507 102.2078 L71.3507 357.7286" stroke-dasharray="" fill="none" fill-opacity="1.0" stroke="#000000" stroke-opacity="0.01" stroke-width="50.0px" stroke-linecap="butt" stroke-linejoin="miter" stroke-dashoffset="0.0px"/>
<path d="M71.3507 357.7286 L326.8715 357.7286 L326.8715 102.2078 L71.3507 102.2078 L71.3507 357.7286" stroke-dasharray="" fill="none" fill-opacity="1.0" stroke="#000000" stroke-opacity="0.01" stroke-width="50.0px" stroke-linecap="butt" stroke-linejoin="miter" stroke-dashoffset="0.0px"/>
<path d="M71.3507 357.7286 L326.8715 357.7286 L326.8715 102.2078 L71.3507 102.2078 L71.3507 357.7286" stroke-dasharray="" fill="none" fill-opacity="1.0" stroke="#000000" stroke-opacity="0.01" stroke-width="50.0px" stroke-linecap="butt" stroke-linejoin="miter" stroke-dashoffset="0.0px"/>
<path d="M71.3507 357.7286 L326.8715 357.7286 L326.8715 102.2078 L71.3507 102.2078 L71.3507 357.7286" stroke-dasharray="" fill="none" fill-opacity="1.0" stroke="#000000" stroke-opacity="0.01" stroke-width="50.0px" stroke-linecap="butt" stroke-linejoin="miter" stroke-dashoffset="0.0px"/>
<path d="M71.3507 357.7286 L326.8715 357.7286 L326.8715 102.2078 L71.3507 102.2078 L71.3507 357.7286" stroke-dasharray="" fill="none" fill-opacity="1.0" stroke="#000000" stroke-opacity="0.01" stroke-width="50.0px" stroke-linecap="butt" stroke-linejoin="miter" stroke-dashoffset="0.0px"/>
<path d="M71.3507 357.7286 L326.8715 357.7286 L326.8715 102.2078 L71.3507 102.2078 L71.3507 357.7286" stroke-dasharray="" fill="none" fill-opacity="1.0" stroke="#000000" stroke-opacity="0.01" stroke-width="50.0px" stroke-linecap="butt" stroke-linejoin="miter" stroke-dashoffset="0.0px"/>
<path d="M71.3507 357.7286 L326.8715 357.7286 L326.8715 102.2078 L71.3507 102.2078 L71.3507 357.7286" stroke-dasharray="" fill="none" fill-opacity="1.0" stroke="#000000" stroke-opacity="0.01" stroke-width="50.0px" stroke-linecap="butt" stroke-linejoin="miter" stroke-dashoffset="0.0px"/>
<path d="M71.3507 357.7286 L326.8715 357.7286 L326.8715 102.2078 L71.3507 102.2078 L71.3507 357.7286" stroke-dasharray="" fill="none" fill-opacity="1.0" stroke="#000000" stroke-opacity="0.01" stroke-width="50.0px" stroke-linecap="butt" stroke-linejoin="miter" stroke-dashoffset="0.0px"/>
<path d="M71.3507 357.7286 L326.8715 357.7286 L326.8715 102.2078 L71.3507 102.2078 L71.3507 357.7286" stroke-dasharray="" fill="none" fill-opacity="1.0" stroke="#000000" stroke-opacity="0.01" stroke-width="50.0px" stroke-linecap="butt" stroke-linejoin="miter" stroke-dashoffset="0.0px"/>
<path d="M71.3507 357.7286 L326.8715 357.7286 L326.8715 102.2078 L71.3507 102.2078 L71.3507 357.7286" stroke-dasharray="" fill="none" fill-opacity="1.0" stroke="#000000" stroke-opacity="0.01" stroke-width="50.0px" stroke-linecap="butt" stroke-linejoin="miter" stroke-dashoffset="0.0px"/>
<path d="M71.3507 357.7286 L326.8715 357.7286 L326.8715 102.2078 L71.3507 102.2078 L71.3507 357.7286" stroke-dasharray="" fill="none" fill-opacity="1.0" stroke="#000000" stroke-opacity="0.01" stroke-width="50.0px" stroke-linecap="butt" stroke-linejoin="miter" stroke-dashoffset="0.0px"/>
<path d="M71.3507 357.7286 L326.8715 357.7286 L326.8715 102.2078 L71.3507 102.2078 L71.3507 357.7286" stroke-dasharray="" fill="none" fill-opacity="1.0" stroke="#000000" stroke-opacity="0.01" stroke-width="50.0px" stroke-linecap="butt" stroke-linejoin="miter" stroke-dashoffset="0.0px"/>
<path d="M71.3507 357.7286 L326.8715 357.7286 L326.8715 102.2078 L71.3507 102.2078 L71.3507 357.7286" stroke-dasharray="" fill="none" fill-opacity="1.0" stroke="#000000" stroke-opacity="0.01" stroke-width="50.0px" stroke-linecap="butt" stroke-linejoin="miter" stroke-dashoffset="0.0px"/>
<path d="M71.3507 357.7286 L326.8715 357.7286 L326.8715 102.2078 L71.3507 102.2078 L71.3507 357.7286" stroke-dasharray="" fill="none" fill-opacity="1.0" stroke="#000000" stroke-opacity="0.01" stroke-width="50.0px" stroke-linecap="butt" stroke-linejoin="miter" stroke-dashoffset="0.0px"/>
<path d="M71.3507 357.7286 L326.8715 357.7286 L326.8715 102.2078 L71.3507 102.2078 L71.3507 357.7286" stroke-dasharray="" fill="none" fill-opacity="1.0" stroke="#000000" stroke-opacity="0.01" stroke-width="50.0px" stroke-linecap="butt" stroke-linejoin="miter" stroke-dashoffset="0.0px"/>
<path d="M71.3507 357.7286 L326.8715 357.7286 L326.8715 102.2078 L71.3507 102.2078 L71.3507 357.7286" stroke-dasharray="" fill="none" fill-opacity="1.0" stroke="#000000" stroke-opacity="0.01" stroke-width="50.0px" stroke-linecap="butt" stroke-linejoin="miter" stroke-dashoffset="0.0px"/>
<path d="M71.3507 357.7286 L326.8715 357.7286 L326.8715 102.2078 L71.3507 102.2078 L71.3507 357.7286" stroke-dasharray="" fill="none" fill-opacity="1.0" stroke="#000000" stroke-opacity="0.01" stroke-width="50.0px" stroke-linecap="butt" stroke-linejoin="miter" stroke-dashoffset="0.0px"/>
<path d="M71.3507 357.7286 L326.8715 357.7286 L326.8715 102.2078 L71.3507 102.2078 L71.3507 357.7286" stroke-dasharray="" fill="none" fill-opacity="1.0" stroke="#000000" stroke-opacity="0.01" stroke-width="50.0px" stroke-linecap="butt" stroke-linejoin="miter" stroke-dashoffset="0.0px"/>
<path d="M71.3507 357.7286 L326.8715 357.7286 L326.8715 102.2078 L71.3507 102.2078 L71.3507 357.7286" stroke-dasharray="" fill="none" fill-opacity="1.0" stroke="#000000" stroke-opacity="0.01" stroke-width="50.0px" stroke-linecap="butt" stroke-linejoin="miter" stroke-dashoffset="0.0px"/>
<path d="M71.3507 357.7286 L326.8715 357.7286 L326.8715 102.2078 L71.3507 102.2078 L71.3507 357.7286" stroke-dasharray="" fill="none" fill-opacity="1.0" stroke="#000000" stroke-opacity="0.01" stroke-width="50.0px" stroke-linecap="butt" stroke-linejoin="miter" stroke-dashoffset="0.0px"/>
<path d="M71.3507 357.7286 L326.8715 357.7286 L326.8715 102.2078 L71.3507 102.2078 L71.3507 357.7286" stroke-dasharray="" fill="none" fill-opacity="1.0" stroke="#000000" stroke-opacity="0.01" stroke-width="50.0px" stroke-linecap="butt" stroke-linejoin="miter" stroke-dashoffset="0.0px"/>
<path d="M71.3507 357.7286 L326.8715 357.7286 L326.8715 102.2078 L71.3507 102.2078 L71.3507 357.7286" stroke-dasharray="" fill="none" fill-opacity="1.0" stroke="#000000" stroke-opacity="0.01" stroke-width="50.0px" stroke-linecap="butt" stroke-linejoin="miter" stroke-dashoffset="0.0px"/>
<path d="M71.3507 357.7286 L326.8715 357.7286 L326.8715 102.2078 L71.3507 102.2078 L71.3507 357.7286" stroke-dasharray="" fill="none" fill-opacity="1.0" stroke="#000000" stroke-opacity="0.01" stroke-width="50.0px" stroke-linecap="butt" stroke-linejoin="miter" stroke-dashoffset="0.0px"/>
<path d="M71.3507 357.7286 L326.8715 357.7286 L326.8715 102.2078 L71.3507 102.2078 L71.3507 357.7286" stroke-dasharray="" fill="none" fill-opacity="1.0" stroke="#000000" stroke-opacity="0.01" stroke-width="50.0px" stroke-linecap="butt" stroke-linejoin="miter" stroke-dashoffset="0.0px"/>
<path d="M71.3507 357.7286 L326.8715 357.7286 L326.8715 102.2078 L71.3507 102.2078 L71.3507 357.7286" stroke-dasharray="" fill="none" fill-opacity="1.0" stroke="#000000" stroke-opacity="0.01" stroke-width="50.0px" stroke-linecap="butt" stroke-linejoin="miter" stroke-dashoffset="0.0px"/>
<path d="M71.3507 357.7286 L326.8715 357.7286 L326.8715 102.2078 L71.3507 102.2078 L71.3507 357.7286" stroke-dasharray="" fill="none" fill-opacity="1.0" stroke="#000000" stroke-opacity="0.01" stroke-width="50.0px" stroke-linecap="butt" stroke-linejoin="miter" stroke-dashoffset="0.0px"/>
<path d="M71.3507 357.7286 L326.8715 357.7286 L326.8715 102.2078 L71.3507 102.2078 L71.3507 357.7286" stroke-dasharray="" fill="none" fill-opacity="1.0" stroke="#000000" stroke-opacity="0.01" stroke-width="50.0px" stroke-linecap="butt" stroke-linejoin="miter" stroke-dashoffset="0.0px"/>
<path d="M71.3507 357.7286 L326.8715 357.7286 L326.8715 102.2078 L71.3507 102.2078 L71.3507 357.7286" stroke-dasharray="" fill="none" fill-opacity="1.0" stroke="#000000" stroke-opacity="0.01" stroke-width="50.0px" stroke-linecap="butt" stroke-linejoin="miter" stroke-dashoffset="0.0px"/>
</g>
</svg>