<?xml version="1.0" standalone="no"?>
<!DOCTYPE svg PUBLIC "-//W3C//DTD SVG 1.1//EN" "http://www.w3.org/Graphics/SVG/1.1/DTD/svg11.dtd">
<svg width="256px" height="256px" version="1.1" xmlns="http://www.w3.org/2000/svg" xmlns:inkscape="http://www.inkscape.org/namespaces/inkscape">
<rect x="0" y="0" width="256px" height="256px" fill="#ffffff"/>
<g id="layer" inkscape:groupmode="layer" inkscape:label="layer">
<path d="M11231485.9501 14725117.3124 L11231485.9501 -1921023.6493 L2842879.4811 -1921023.6493 L3039487.4453 -1593343.7091 L3432703.3735 -1462271.7331 L7627006.6079 -1527807.7211 L8085758.5242 -1134591.7929 L8413438.4644 -610303.8885 L8806654.3926 -479231.9126 L11231485.9501 -516095.9058 L11231485.9501 450559.9178 L7692542.596 503807.9081 L7364862.6558 634879.8841 L7102718.7036 962559.8244 L7037182.7156 3387391.3818 L6381822.8352 3846143.2981 L6054142.895 4304895.2143 L6054142.895 6533118.8076 L5071103.0744 7450622.6402 L5071103.0744 8433662.4608 L4940031.0984 8826878.389 L4415743.1941 9154558.3291 L3498239.3615 9154558.3291 L3236095.4094 9285630.3052 L2842879.4811 9940990.1856 L2515199.5409 10203134.1378 L286975.9476 10268670.1259 L-171775.9686 9875454.1976 L-499455.9088 9351166.2933 L-1154815.7892 8957950.3651 L-1285887.7653 8695806.4129 L-1351423.7533 7516158.6282 L-2334463.5739 6729726.7717 L-2399999.5619 5550078.9871 L-2531071.538 5287935.0348 L-3186431.4184 4894719.1067 L-3448575.3706 4567039.1664 L-3448575.3706 3321855.3938 L-2531071.538 2535423.5372 L-2465535.55 2338815.5731 L-2531071.538 1093631.8005 L-3055359.4423 700415.8721 L-5545726.9878 753663.8624 L-5545726.9878 8261630.4921 L-4890367.1074 8237054.4966 L-4300543.2151 7385086.6521 L-3841791.2988 7319550.664 L-3186431.4184 8171518.5085 L-2531071.538 8564734.4368 L-2399999.5619 8957950.3651 L-2465535.55 11055101.9823 L-2858751.4782 11382781.9224 L-4038399.2629 11448317.9105 L-4497151.1792 11972605.8149 L-4497151.1792 15314941.2049 L-4550399.1695 15380477.1928 L10707198.0458 15380477.1928 L10903806.0099 14856189.2885 L11165949.962 14725117.3124 L11231485.9501 14725117.3124" stroke-dasharray="" fill="none" fill-opacity="1.0" stroke="#00ff00" stroke-opacity="1.0" stroke-width="1.0px" stroke-linecap="butt" stroke-linejoin="miter" stroke-dashoffset="0.0px"/>
</g>
</svg>