<?xml version="1.0" standalone="no"?>
<!DOCTYPE svg PUBLIC "-//W3C//DTD SVG 1.1//EN" "http://www.w3.org/Graphics/SVG/1.1/DTD/svg11.dtd">
<svg width="200px" height="200px" version="1.1" xmlns="http://www.w3.org/2000/svg" xmlns:inkscape="http://www.inkscape.org/namespaces/inkscape">
<rect x="0" y="0" width="200px" height="200px" fill="#ffffff"/>
<g id="layer" inkscape:groupmode="layer" inkscape:label="layer">
<path d="M162.8371 162.7777 L160.2381 162.8246 L157.4268 162.8754 L155.0444 162.9184 L150.4096 163.002 L147.7586 163.0499 L145.1076 163.0977 L142.2184 163.1499 L138.2853 163.2209 L135.474 163.2716 L129.505 163.3794 L126.8281 163.4277 L124.1771 163.4755 L119.9494 163.5518 L116.7093 163.6103 L112.3734 163.6886" stroke-dasharray="" fill="none" fill-opacity="1.0" stroke="#0000ff" stroke-opacity="1.0" stroke-width="1.0px" stroke-linecap="butt" stroke-linejoin="miter" stroke-dashoffset="0.0px"/>
<path d="M67.8808 100.875 L65.7998 102.4327 L63.5488 104.1176 L61.6413 105.5455 L57.9302 108.3234 L55.8075 109.9122 L53.6849 111.5011 L51.3716 113.2327 L48.2223 115.59 L45.9714 117.2749 L41.1921 120.8524 L39.0486 122.4569 L36.926 124.0457 L33.541 126.5796 L30.9467 128.5215 L27.4749 131.1202" stroke-dasharray="" fill="none" fill-opacity="1.0" stroke="#0000ff" stroke-opacity="1.0" stroke-width="1.0px" stroke-linecap="butt" stroke-linejoin="miter" stroke-dashoffset="0.0px"/>
<path d="M84.9792 137.7498 L82.4887 154.1133 L69.1569 163.9229 L52.7932 161.4325 L42.9835 148.1008 L45.4739 131.7373 L58.8058 121.9275 L75.1694 124.418 L84.9792 137.7498" stroke-dasharray="" fill="none" fill-opacity="1.0" stroke="#0000ff" stroke-opacity="1.0" stroke-width="1.0px" stroke-linecap="butt" stroke-linejoin="miter" stroke-dashoffset="0.0px"/>
<path d="M188.591 154.0794 L188.8002 38.0167" stroke-dasharray="" fill="none" fill-opacity="1.0" stroke="#0000ff" stroke-opacity="1.0" stroke-width="1.0px" stroke-linecap="butt" stroke-linejoin="miter" stroke-dashoffset="0.0px"/>
<path d="M21.0835 50.3548 L21.92 152.1973" stroke-dasharray="" fill="none" fill-opacity="1.0" stroke="#0000ff" stroke-opacity="1.0" stroke-width="1.0px" stroke-linecap="butt" stroke-linejoin="miter" stroke-dashoffset="0.0px"/>
<path d="M165.5352 94.6103 L163.0257 96.7015 L159.4707 98.3745 L156.3338 97.538 L153.8243 95.6559 L151.7331 92.519 L149.4328 89.8004 L147.1324 87.9183 L143.3682 87.7092 L139.3948 89.1731 L135.4215 91.6825 L131.6573 95.0285 L128.5205 97.2243 L124.9654 98.8973 L121.8285 98.0608 L119.319 96.1787 L117.2278 93.0418 L114.9275 90.3232 L112.6271 88.4411 L108.8629 88.232 L104.8896 89.6959 L100.9162 92.2053 L96.8383 95.7082 L94.3288 97.7994 L90.7738 99.4724 L87.6369 98.6359 L85.1274 96.7538 L83.0362 93.6169 L80.7358 90.8983 L78.4355 89.0162 L74.6713 88.8071 L70.6979 90.271 L66.7246 92.7804 L62.9604 96.1264 L59.8236 98.3222 L56.2685 99.9952 L53.1316 99.1587 L50.6221 97.2766 L48.5309 94.1397 L46.2306 91.4211 L43.9302 89.539 L40.166 89.3299 L36.1927 90.7938 L32.2193 93.3032 L28.4551 96.6492" stroke-dasharray="" fill="none" fill-opacity="1.0" stroke="#0000ff" stroke-opacity="1.0" stroke-width="1.0px" stroke-linecap="butt" stroke-linejoin="miter" stroke-dashoffset="0.0px"/>
<path d="M28.712 72.2667 L32.4762 68.9207 L36.4496 66.4113 L40.4229 64.9474 L44.1871 65.1566 L46.4875 67.0386 L48.7878 69.7572 L50.879 72.8941 L53.3885 74.7762 L56.5254 75.6127 L60.0805 73.9397 L63.2173 71.7439 L66.9815 68.3979 L70.9548 65.8885 L74.9282 64.4246 L78.6924 64.6337 L80.9928 66.5158 L83.2931 69.2344 L85.3843 72.3713 L87.8938 74.2534 L91.0307 75.0899 L94.5857 73.4169 L97.0952 71.3257 L101.1731 67.8229 L105.1465 65.3134 L109.1198 63.8495 L112.884 64.0587 L115.1844 65.9408 L117.4847 68.6593 L119.5759 71.7962 L122.0854 73.6783 L125.2223 74.5148 L128.7774 72.8418 L131.9142 70.646 L135.6784 67.3001 L139.6518 64.7906 L143.6251 63.3267 L147.3893 63.5359 L149.6897 65.418 L151.99 68.1365 L154.0812 71.2734 L156.5907 73.1555 L159.7276 73.992 L163.2826 72.319 L165.7921 70.2278" stroke-dasharray="" fill="none" fill-opacity="1.0" stroke="#0000ff" stroke-opacity="1.0" stroke-width="1.0px" stroke-linecap="butt" stroke-linejoin="miter" stroke-dashoffset="0.0px"/>
<path d="M179.7965 42.2527 L160.9504 55.8189 L141.5019 41.3896 L119.7531 58.3284 L95.9131 39.7166 L69.1454 58.9557 L44.0506 39.2984 L26.6934 50.3818" stroke-dasharray="" fill="none" fill-opacity="1.0" stroke="#0000ff" stroke-opacity="1.0" stroke-width="1.0px" stroke-linecap="butt" stroke-linejoin="miter" stroke-dashoffset="0.0px"/>
<path d="M28.0664 30.3697 L47.5149 17.8226 L71.9823 37.2706 L97.2861 19.2864 L119.6623 36.6432 L142.0385 20.332 L161.9051 36.0159 L181.3133 21.8353" stroke-dasharray="" fill="none" fill-opacity="1.0" stroke="#0000ff" stroke-opacity="1.0" stroke-width="1.0px" stroke-linecap="butt" stroke-linejoin="miter" stroke-dashoffset="0.0px"/>
<path d="M132.7005 103.1928 L168.0297 104.9398 L172.4944 107.4633 L175.7943 112.5104 L176.1826 119.4985 L175.6002 126.6808 L174.2414 134.4455 L171.5238 137.7454 L162.0121 138.3278 L130.7593 137.1631" stroke-dasharray="" fill="none" fill-opacity="1.0" stroke="#0000ff" stroke-opacity="1.0" stroke-width="1.0px" stroke-linecap="butt" stroke-linejoin="miter" stroke-dashoffset="0.0px"/>
<path d="M146.1866 148.9982 L110.8152 149.263 L106.2143 146.9975 L102.6326 142.1463 L101.8476 135.1916 L102.0206 127.9878 L102.9357 120.1584 L105.4612 116.7093 L114.9244 115.587 L146.1929 114.9725" stroke-dasharray="" fill="none" fill-opacity="1.0" stroke="#0000ff" stroke-opacity="1.0" stroke-width="1.0px" stroke-linecap="butt" stroke-linejoin="miter" stroke-dashoffset="0.0px"/>
<path d="M79.0278 100.9909 L83.4201 128.1685" stroke-dasharray="" fill="none" fill-opacity="1.0" stroke="#0000ff" stroke-opacity="1.0" stroke-width="1.0px" stroke-linecap="butt" stroke-linejoin="miter" stroke-dashoffset="0.0px"/>
<path d="M93.3029 103.4616 L88.6361 134.208" stroke-dasharray="" fill="none" fill-opacity="1.0" stroke="#0000ff" stroke-opacity="1.0" stroke-width="1.0px" stroke-linecap="butt" stroke-linejoin="miter" stroke-dashoffset="0.0px"/>
<path d="M100.4405 107.5794 L129.5399 108.403" stroke-dasharray="" fill="none" fill-opacity="1.0" stroke="#0000ff" stroke-opacity="1.0" stroke-width="1.0px" stroke-linecap="butt" stroke-linejoin="miter" stroke-dashoffset="0.0px"/>
<path d="M154.7959 127.894 L125.422 128.1685" stroke-dasharray="" fill="none" fill-opacity="1.0" stroke="#0000ff" stroke-opacity="1.0" stroke-width="1.0px" stroke-linecap="butt" stroke-linejoin="miter" stroke-dashoffset="0.0px"/>
<path d="M174.0103 80.9342 L180.1259 80.9828 L180.1259 85.593 L157.0745 85.593" stroke-dasharray="" fill="none" fill-opacity="1.0" stroke="#0000ff" stroke-opacity="1.0" stroke-width="1.0px" stroke-linecap="butt" stroke-linejoin="miter" stroke-dashoffset="0.0px"/>
</g>
</svg>