<?xml version="1.0" standalone="no"?>
<!DOCTYPE svg PUBLIC "-//W3C//DTD SVG 1.1//EN" "http://www.w3.org/Graphics/SVG/1.1/DTD/svg11.dtd">
<svg width="600px" height="400px" version="1.1" xmlns="http://www.w3.org/2000/svg" xmlns:inkscape="http://www.inkscape.org/namespaces/inkscape">
<rect x="0" y="0" width="600px" height="400px" fill="#ffffff"/>
<g id="layer" inkscape:groupmode="layer" inkscape:label="layer">
<path d="M515.0539 12.038 L515.0539 400.0 L502.533 392.9517 L497.7889 388.3517 L491.6386 380.8798 L488.3771 377.0168 L475.7884 367.1728 L465.038 359.3875 L458.5997 352.8644 L450.8143 344.4946 L447.036 340.496 L437.6242 331.6772 L432.5158 326.9331 L428.441 322.4855 L424.4425 319.1478 L409.5495 307.3808 L395.3174 292.2676 L386.651 282.9913 L379.5434 274.5537 L375.8329 269.7334 L370.572 264.0998 L365.6755 260.3639 L357.9071 254.3914 L346.8772 243.1751 L341.0234 237.2281 L337.2874 233.4159 L328.2398 223.8262 L322.6317 217.3116 L319.1922 212.6014 L316.7101 210.1785 L312.8471 207.2728 L305.5616 199.3858 L300.6989 195.0653 L295.4211 191.3294 L293.2355 188.8472 L290.5077 184.8656 L287.5342 181.8582 L284.6962 176.9871 L282.087 172.421 L274.4372 166.4401 L271.8364 162.9413 L268.1005 156.8333 L263.8308 152.6823 L258.0194 148.8278 L255.7066 146.9471 L252.4451 142.5504 L245.2782 138.2129 L239.4667 134.0111 L233.6044 126.3697 L221.8629 112.1969 L216.6529 106.3346 L209.0031 96.3805 L198.7526 85.1134 L196.3721 78.9461 L192.4667 73.2533 L188.9087 69.5851 L184.7576 61.1729 L180.3101 51.8034 L178.1159 47.6523 L173.6769 36.0887 L172.3129 33.0728 L169.5851 29.9214 L167.7553 22.8138 L165.1376 17.0617 L163.0112 13.978 L158.3773 11.2587 L154.5312 10.4877 L150.4395 9.8354 L147.1864 9.8354 L143.6877 9.0052 L136.148 7.1669 L130.9973 4.0833 L125.7196 1.5926 L122.3479 0.2287 L119.9759 0.0 L115.469 2.4229 L110.4877 6.6247 L101.1267 10.6657 L92.7738 12.0804 L84.9461 12.038" stroke-dasharray="" fill="none" fill-opacity="1.0" stroke="#ff0000" stroke-opacity="1.0" stroke-width="0.2px" stroke-linecap="butt" stroke-linejoin="miter" stroke-dashoffset="0.0px"/>
</g>
</svg>