<?xml version="1.0" standalone="no"?>
<!DOCTYPE svg PUBLIC "-//W3C//DTD SVG 1.1//EN" "http://www.w3.org/Graphics/SVG/1.1/DTD/svg11.dtd">
<svg width="600px" height="400px" version="1.1" xmlns="http://www.w3.org/2000/svg" xmlns:inkscape="http://www.inkscape.org/namespaces/inkscape">
<rect x="0" y="0" width="600px" height="400px" fill="#ffffff"/>
<g id="point" inkscape:groupmode="layer" inkscape:label="point">
<path d="M147.7895 363.6364 L137.2922 345.4545 L116.2976 345.4545 L105.8004 363.6364 L116.2976 381.8182 L137.2922 381.8182 L147.7895 363.6364 M147.7895 327.2727 L137.2922 309.0909 L116.2976 309.0909 L105.8004 327.2727 L116.2976 345.4545 L137.2922 345.4545 L147.7895 327.2727 M147.7895 290.9091 L137.2922 272.7273 L116.2976 272.7273 L105.8004 290.9091 L116.2976 309.0909 L137.2922 309.0909 L147.7895 290.9091 M147.7895 254.5455 L137.2922 236.3636 L116.2976 236.3636 L105.8004 254.5455 L116.2976 272.7273 L137.2922 272.7273 L147.7895 254.5455 M147.7895 218.1818 L137.2922 200.0 L116.2976 200.0 L105.8004 218.1818 L116.2976 236.3636 L137.2922 236.3636 L147.7895 218.1818 M147.7895 181.8182 L137.2922 163.6364 L116.2976 163.6364 L105.8004 181.8182 L116.2976 200.0 L137.2922 200.0 L147.7895 181.8182 M147.7895 145.4545 L137.2922 127.2727 L116.2976 127.2727 L105.8004 145.4545 L116.2976 163.6364 L137.2922 163.6364 L147.7895 145.4545 M147.7895 109.0909 L137.2922 90.9091 L116.2976 90.9091 L105.8004 109.0909 L116.2976 127.2727 L137.2922 127.2727 L147.7895 109.0909 M147.7895 72.7273 L137.2922 54.5455 L116.2976 54.5455 L105.8004 72.7273 L116.2976 90.9091 L137.2922 90.9091 L147.7895 72.7273 M147.7895 36.3636 L137.2922 18.1818 L116.2976 18.1818 L105.8004 36.3636 L116.2976 54.5455 L137.2922 54.5455 L147.7895 36.3636 M179.2813 381.8182 L168.784 363.6364 L147.7895 363.6364 L137.2922 381.8182 L147.7895 400.0 L168.784 400.0 L179.2813 381.8182 M179.2813 345.4545 L168.784 327.2727 L147.7895 327.2727 L137.2922 345.4545 L147.7895 363.6364 L168.784 363.6364 L179.2813 345.4545 M179.2813 309.0909 L168.784 290.9091 L147.7895 290.9091 L137.2922 309.0909 L147.7895 327.2727 L168.784 327.2727 L179.2813 309.0909 M179.2813 272.7273 L168.784 254.5455 L147.7895 254.5455 L137.2922 272.7273 L147.7895 290.9091 L168.784 290.9091 L179.2813 272.7273 M179.2813 236.3636 L168.784 218.1818 L147.7895 218.1818 L137.2922 236.3636 L147.7895 254.5455 L168.784 254.5455 L179.2813 236.3636 M179.2813 200.0 L168.784 181.8182 L147.7895 181.8182 L137.2922 200.0 L147.7895 218.1818 L168.784 218.1818 L179.2813 200.0 M179.2813 163.6364 L168.784 145.4545 L147.7895 145.4545 L137.2922 163.6364 L147.7895 181.8182 L168.784 181.8182 L179.2813 163.6364 M179.2813 127.2727 L168.784 109.0909 L147.7895 109.0909 L137.2922 127.2727 L147.7895 145.4545 L168.784 145.4545 L179.2813 127.2727 M179.2813 90.9091 L168.784 72.7273 L147.7895 72.7273 L137.2922 90.9091 L147.7895 109.0909 L168.784 109.0909 L179.2813 90.9091 M179.2813 54.5455 L168.784 36.3636 L147.7895 36.3636 L137.2922 54.5455 L147.7895 72.7273 L168.784 72.7273 L179.2813 54.5455 M179.2813 18.1818 L168.784 0.0 L147.7895 0.0 L137.2922 18.1818 L147.7895 36.3636 L168.784 36.3636 L179.2813 18.1818 M210.7731 363.6364 L200.2759 345.4545 L179.2813 345.4545 L168.784 363.6364 L179.2813 381.8182 L200.2759 381.8182 L210.7731 363.6364 M210.7731 327.2727 L200.2759 309.0909 L179.2813 309.0909 L168.784 327.2727 L179.2813 345.4545 L200.2759 345.4545 L210.7731 327.2727 M210.7731 290.9091 L200.2759 272.7273 L179.2813 272.7273 L168.784 290.9091 L179.2813 309.0909 L200.2759 309.0909 L210.7731 290.9091 M210.7731 254.5455 L200.2759 236.3636 L179.2813 236.3636 L168.784 254.5455 L179.2813 272.7273 L200.2759 272.7273 L210.7731 254.5455 M210.7731 218.1818 L200.2759 200.0 L179.2813 200.0 L168.784 218.1818 L179.2813 236.3636 L200.2759 236.3636 L210.7731 218.1818 M210.7731 181.8182 L200.2759 163.6364 L179.2813 163.6364 L168.784 181.8182 L179.2813 200.0 L200.2759 200.0 L210.7731 181.8182 M210.7731 145.4545 L200.2759 127.2727 L179.2813 127.2727 L168.784 145.4545 L179.2813 163.6364 L200.2759 163.6364 L210.7731 145.4545 M210.7731 109.0909 L200.2759 90.9091 L179.2813 90.9091 L168.784 109.0909 L179.2813 127.2727 L200.2759 127.2727 L210.7731 109.0909 M210.7731 72.7273 L200.2759 54.5455 L179.2813 54.5455 L168.784 72.7273 L179.2813 90.9091 L200.2759 90.9091 L210.7731 72.7273 M210.7731 36.3636 L200.2759 18.1818 L179.2813 18.1818 L168.784 36.3636 L179.2813 54.5455 L200.2759 54.5455 L210.7731 36.3636 M242.265 381.8182 L231.7677 363.6364 L210.7731 363.6364 L200.2759 381.8182 L210.7731 400.0 L231.7677 400.0 L242.265 381.8182 M242.265 345.4545 L231.7677 327.2727 L210.7731 327.2727 L200.2759 345.4545 L210.7731 363.6364 L231.7677 363.6364 L242.265 345.4545 M242.265 309.0909 L231.7677 290.9091 L210.7731 290.9091 L200.2759 309.0909 L210.7731 327.2727 L231.7677 327.2727 L242.265 309.0909 M242.265 272.7273 L231.7677 254.5455 L210.7731 254.5455 L200.2759 272.7273 L210.7731 290.9091 L231.7677 290.9091 L242.265 272.7273 M242.265 236.3636 L231.7677 218.1818 L210.7731 218.1818 L200.2759 236.3636 L210.7731 254.5455 L231.7677 254.5455 L242.265 236.3636 M242.265 200.0 L231.7677 181.8182 L210.7731 181.8182 L200.2759 200.0 L210.7731 218.1818 L231.7677 218.1818 L242.265 200.0 M242.265 163.6364 L231.7677 145.4545 L210.7731 145.4545 L200.2759 163.6364 L210.7731 181.8182 L231.7677 181.8182 L242.265 163.6364 M242.265 127.2727 L231.7677 109.0909 L210.7731 109.0909 L200.2759 127.2727 L210.7731 145.4545 L231.7677 145.4545 L242.265 127.2727 M242.265 90.9091 L231.7677 72.7273 L210.7731 72.7273 L200.2759 90.9091 L210.7731 109.0909 L231.7677 109.0909 L242.265 90.9091 M242.265 54.5455 L231.7677 36.3636 L210.7731 36.3636 L200.2759 54.5455 L210.7731 72.7273 L231.7677 72.7273 L242.265 54.5455 M242.265 18.1818 L231.7677 0.0 L210.7731 0.0 L200.2759 18.1818 L210.7731 36.3636 L231.7677 36.3636 L242.265 18.1818 M273.7568 363.6364 L263.2595 345.4545 L242.265 345.4545 L231.7677 363.6364 L242.265 381.8182 L263.2595 381.8182 L273.7568 363.6364 M273.7568 327.2727 L263.2595 309.0909 L242.265 309.0909 L231.7677 327.2727 L242.265 345.4545 L263.2595 345.4545 L273.7568 327.2727 M273.7568 290.9091 L263.2595 272.7273 L242.265 272.7273 L231.7677 290.9091 L242.265 309.0909 L263.2595 309.0909 L273.7568 290.9091 M273.7568 254.5455 L263.2595 236.3636 L242.265 236.3636 L231.7677 254.5455 L242.265 272.7273 L263.2595 272.7273 L273.7568 254.5455 M273.7568 218.1818 L263.2595 200.0 L242.265 200.0 L231.7677 218.1818 L242.265 236.3636 L263.2595 236.3636 L273.7568 218.1818 M273.7568 181.8182 L263.2595 163.6364 L242.265 163.6364 L231.7677 181.8182 L242.265 200.0 L263.2595 200.0 L273.7568 181.8182 M273.7568 145.4545 L263.2595 127.2727 L242.265 127.2727 L231.7677 145.4545 L242.265 163.6364 L263.2595 163.6364 L273.7568 145.4545 M273.7568 109.0909 L263.2595 90.9091 L242.265 90.9091 L231.7677 109.0909 L242.265 127.2727 L263.2595 127.2727 L273.7568 109.0909 M273.7568 72.7273 L263.2595 54.5455 L242.265 54.5455 L231.7677 72.7273 L242.265 90.9091 L263.2595 90.9091 L273.7568 72.7273 M273.7568 36.3636 L263.2595 18.1818 L242.265 18.1818 L231.7677 36.3636 L242.265 54.5455 L263.2595 54.5455 L273.7568 36.3636 M305.2486 381.8182 L294.7514 363.6364 L273.7568 363.6364 L263.2595 381.8182 L273.7568 400.0 L294.7514 400.0 L305.2486 381.8182 M305.2486 345.4545 L294.7514 327.2727 L273.7568 327.2727 L263.2595 345.4545 L273.7568 363.6364 L294.7514 363.6364 L305.2486 345.4545 M305.2486 309.0909 L294.7514 290.9091 L273.7568 290.9091 L263.2595 309.0909 L273.7568 327.2727 L294.7514 327.2727 L305.2486 309.0909 M305.2486 272.7273 L294.7514 254.5455 L273.7568 254.5455 L263.2595 272.7273 L273.7568 290.9091 L294.7514 290.9091 L305.2486 272.7273 M305.2486 236.3636 L294.7514 218.1818 L273.7568 218.1818 L263.2595 236.3636 L273.7568 254.5455 L294.7514 254.5455 L305.2486 236.3636 M305.2486 200.0 L294.7514 181.8182 L273.7568 181.8182 L263.2595 200.0 L273.7568 218.1818 L294.7514 218.1818 L305.2486 200.0 M305.2486 163.6364 L294.7514 145.4545 L273.7568 145.4545 L263.2595 163.6364 L273.7568 181.8182 L294.7514 181.8182 L305.2486 163.6364 M305.2486 127.2727 L294.7514 109.0909 L273.7568 109.0909 L263.2595 127.2727 L273.7568 145.4545 L294.7514 145.4545 L305.2486 127.2727 M305.2486 90.9091 L294.7514 72.7273 L273.7568 72.7273 L263.2595 90.9091 L273.7568 109.0909 L294.7514 109.0909 L305.2486 90.9091 M305.2486 54.5455 L294.7514 36.3636 L273.7568 36.3636 L263.2595 54.5455 L273.7568 72.7273 L294.7514 72.7273 L305.2486 54.5455 M305.2486 18.1818 L294.7514 0.0 L273.7568 0.0 L263.2595 18.1818 L273.7568 36.3636 L294.7514 36.3636 L305.2486 18.1818 M336.7405 363.6364 L326.2432 345.4545 L305.2486 345.4545 L294.7514 363.6364 L305.2486 381.8182 L326.2432 381.8182 L336.7405 363.6364 M336.7405 327.2727 L326.2432 309.0909 L305.2486 309.0909 L294.7514 327.2727 L305.2486 345.4545 L326.2432 345.4545 L336.7405 327.2727 M336.7405 290.9091 L326.2432 272.7273 L305.2486 272.7273 L294.7514 290.9091 L305.2486 309.0909 L326.2432 309.0909 L336.7405 290.9091 M336.7405 254.5455 L326.2432 236.3636 L305.2486 236.3636 L294.7514 254.5455 L305.2486 272.7273 L326.2432 272.7273 L336.7405 254.5455 M336.7405 218.1818 L326.2432 200.0 L305.2486 200.0 L294.7514 218.1818 L305.2486 236.3636 L326.2432 236.3636 L336.7405 218.1818 M336.7405 181.8182 L326.2432 163.6364 L305.2486 163.6364 L294.7514 181.8182 L305.2486 200.0 L326.2432 200.0 L336.7405 181.8182 M336.7405 145.4545 L326.2432 127.2727 L305.2486 127.2727 L294.7514 145.4545 L305.2486 163.6364 L326.2432 163.6364 L336.7405 145.4545 M336.7405 109.0909 L326.2432 90.9091 L305.2486 90.9091 L294.7514 109.0909 L305.2486 127.2727 L326.2432 127.2727 L336.7405 109.0909 M336.7405 72.7273 L326.2432 54.5455 L305.2486 54.5455 L294.7514 72.7273 L305.2486 90.9091 L326.2432 90.9091 L336.7405 72.7273 M336.7405 36.3636 L326.2432 18.1818 L305.2486 18.1818 L294.7514 36.3636 L305.2486 54.5455 L326.2432 54.5455 L336.7405 36.3636 M368.2323 381.8182 L357.735 363.6364 L336.7405 363.6364 L326.2432 381.8182 L336.7405 400.0 L357.735 400.0 L368.2323 381.8182 M368.2323 345.4545 L357.735 327.2727 L336.7405 327.2727 L326.2432 345.4545 L336.7405 363.6364 L357.735 363.6364 L368.2323 345.4545 M368.2323 309.0909 L357.735 290.9091 L336.7405 290.9091 L326.2432 309.0909 L336.7405 327.2727 L357.735 327.2727 L368.2323 309.0909 M368.2323 272.7273 L357.735 254.5455 L336.7405 254.5455 L326.2432 272.7273 L336.7405 290.9091 L357.735 290.9091 L368.2323 272.7273 M368.2323 236.3636 L357.735 218.1818 L336.7405 218.1818 L326.2432 236.3636 L336.7405 254.5455 L357.735 254.5455 L368.2323 236.3636 M368.2323 200.0 L357.735 181.8182 L336.7405 181.8182 L326.2432 200.0 L336.7405 218.1818 L357.735 218.1818 L368.2323 200.0 M368.2323 163.6364 L357.735 145.4545 L336.7405 145.4545 L326.2432 163.6364 L336.7405 181.8182 L357.735 181.8182 L368.2323 163.6364 M368.2323 127.2727 L357.735 109.0909 L336.7405 109.0909 L326.2432 127.2727 L336.7405 145.4545 L357.735 145.4545 L368.2323 127.2727 M368.2323 90.9091 L357.735 72.7273 L336.7405 72.7273 L326.2432 90.9091 L336.7405 109.0909 L357.735 109.0909 L368.2323 90.9091 M368.2323 54.5455 L357.735 36.3636 L336.7405 36.3636 L326.2432 54.5455 L336.7405 72.7273 L357.735 72.7273 L368.2323 54.5455 M368.2323 18.1818 L357.735 0.0 L336.7405 0.0 L326.2432 18.1818 L336.7405 36.3636 L357.735 36.3636 L368.2323 18.1818 M399.7241 363.6364 L389.2269 345.4545 L368.2323 345.4545 L357.735 363.6364 L368.2323 381.8182 L389.2269 381.8182 L399.7241 363.6364 M399.7241 327.2727 L389.2269 309.0909 L368.2323 309.0909 L357.735 327.2727 L368.2323 345.4545 L389.2269 345.4545 L399.7241 327.2727 M399.7241 290.9091 L389.2269 272.7273 L368.2323 272.7273 L357.735 290.9091 L368.2323 309.0909 L389.2269 309.0909 L399.7241 290.9091 M399.7241 254.5455 L389.2269 236.3636 L368.2323 236.3636 L357.735 254.5455 L368.2323 272.7273 L389.2269 272.7273 L399.7241 254.5455 M399.7241 218.1818 L389.2269 200.0 L368.2323 200.0 L357.735 218.1818 L368.2323 236.3636 L389.2269 236.3636 L399.7241 218.1818 M399.7241 181.8182 L389.2269 163.6364 L368.2323 163.6364 L357.735 181.8182 L368.2323 200.0 L389.2269 200.0 L399.7241 181.8182 M399.7241 145.4545 L389.2269 127.2727 L368.2323 127.2727 L357.735 145.4545 L368.2323 163.6364 L389.2269 163.6364 L399.7241 145.4545 M399.7241 109.0909 L389.2269 90.9091 L368.2323 90.9091 L357.735 109.0909 L368.2323 127.2727 L389.2269 127.2727 L399.7241 109.0909 M399.7241 72.7273 L389.2269 54.5455 L368.2323 54.5455 L357.735 72.7273 L368.2323 90.9091 L389.2269 90.9091 L399.7241 72.7273 M399.7241 36.3636 L389.2269 18.1818 L368.2323 18.1818 L357.735 36.3636 L368.2323 54.5455 L389.2269 54.5455 L399.7241 36.3636 M431.216 381.8182 L420.7187 363.6364 L399.7241 363.6364 L389.2269 381.8182 L399.7241 400.0 L420.7187 400.0 L431.216 381.8182 M431.216 345.4545 L420.7187 327.2727 L399.7241 327.2727 L389.2269 345.4545 L399.7241 363.6364 L420.7187 363.6364 L431.216 345.4545 M431.216 309.0909 L420.7187 290.9091 L399.7241 290.9091 L389.2269 309.0909 L399.7241 327.2727 L420.7187 327.2727 L431.216 309.0909 M431.216 272.7273 L420.7187 254.5455 L399.7241 254.5455 L389.2269 272.7273 L399.7241 290.9091 L420.7187 290.9091 L431.216 272.7273 M431.216 236.3636 L420.7187 218.1818 L399.7241 218.1818 L389.2269 236.3636 L399.7241 254.5455 L420.7187 254.5455 L431.216 236.3636 M431.216 200.0 L420.7187 181.8182 L399.7241 181.8182 L389.2269 200.0 L399.7241 218.1818 L420.7187 218.1818 L431.216 200.0 M431.216 163.6364 L420.7187 145.4545 L399.7241 145.4545 L389.2269 163.6364 L399.7241 181.8182 L420.7187 181.8182 L431.216 163.6364 M431.216 127.2727 L420.7187 109.0909 L399.7241 109.0909 L389.2269 127.2727 L399.7241 145.4545 L420.7187 145.4545 L431.216 127.2727 M431.216 90.9091 L420.7187 72.7273 L399.7241 72.7273 L389.2269 90.9091 L399.7241 109.0909 L420.7187 109.0909 L431.216 90.9091 M431.216 54.5455 L420.7187 36.3636 L399.7241 36.3636 L389.2269 54.5455 L399.7241 72.7273 L420.7187 72.7273 L431.216 54.5455 M431.216 18.1818 L420.7187 0.0 L399.7241 0.0 L389.2269 18.1818 L399.7241 36.3636 L420.7187 36.3636 L431.216 18.1818 M462.7078 363.6364 L452.2105 345.4545 L431.216 345.4545 L420.7187 363.6364 L431.216 381.8182 L452.2105 381.8182 L462.7078 363.6364 M462.7078 327.2727 L452.2105 309.0909 L431.216 309.0909 L420.7187 327.2727 L431.216 345.4545 L452.2105 345.4545 L462.7078 327.2727 M462.7078 290.9091 L452.2105 272.7273 L431.216 272.7273 L420.7187 290.9091 L431.216 309.0909 L452.2105 309.0909 L462.7078 290.9091 M462.7078 254.5455 L452.2105 236.3636 L431.216 236.3636 L420.7187 254.5455 L431.216 272.7273 L452.2105 272.7273 L462.7078 254.5455 M462.7078 218.1818 L452.2105 200.0 L431.216 200.0 L420.7187 218.1818 L431.216 236.3636 L452.2105 236.3636 L462.7078 218.1818 M462.7078 181.8182 L452.2105 163.6364 L431.216 163.6364 L420.7187 181.8182 L431.216 200.0 L452.2105 200.0 L462.7078 181.8182 M462.7078 145.4545 L452.2105 127.2727 L431.216 127.2727 L420.7187 145.4545 L431.216 163.6364 L452.2105 163.6364 L462.7078 145.4545 M462.7078 109.0909 L452.2105 90.9091 L431.216 90.9091 L420.7187 109.0909 L431.216 127.2727 L452.2105 127.2727 L462.7078 109.0909 M462.7078 72.7273 L452.2105 54.5455 L431.216 54.5455 L420.7187 72.7273 L431.216 90.9091 L452.2105 90.9091 L462.7078 72.7273 M462.7078 36.3636 L452.2105 18.1818 L431.216 18.1818 L420.7187 36.3636 L431.216 54.5455 L452.2105 54.5455 L462.7078 36.3636 M494.1996 381.8182 L483.7024 363.6364 L462.7078 363.6364 L452.2105 381.8182 L462.7078 400.0 L483.7024 400.0 L494.1996 381.8182 M494.1996 345.4545 L483.7024 327.2727 L462.7078 327.2727 L452.2105 345.4545 L462.7078 363.6364 L483.7024 363.6364 L494.1996 345.4545 M494.1996 309.0909 L483.7024 290.9091 L462.7078 290.9091 L452.2105 309.0909 L462.7078 327.2727 L483.7024 327.2727 L494.1996 309.0909 M494.1996 272.7273 L483.7024 254.5455 L462.7078 254.5455 L452.2105 272.7273 L462.7078 290.9091 L483.7024 290.9091 L494.1996 272.7273 M494.1996 236.3636 L483.7024 218.1818 L462.7078 218.1818 L452.2105 236.3636 L462.7078 254.5455 L483.7024 254.5455 L494.1996 236.3636 M494.1996 200.0 L483.7024 181.8182 L462.7078 181.8182 L452.2105 200.0 L462.7078 218.1818 L483.7024 218.1818 L494.1996 200.0 M494.1996 163.6364 L483.7024 145.4545 L462.7078 145.4545 L452.2105 163.6364 L462.7078 181.8182 L483.7024 181.8182 L494.1996 163.6364 M494.1996 127.2727 L483.7024 109.0909 L462.7078 109.0909 L452.2105 127.2727 L462.7078 145.4545 L483.7024 145.4545 L494.1996 127.2727 M494.1996 90.9091 L483.7024 72.7273 L462.7078 72.7273 L452.2105 90.9091 L462.7078 109.0909 L483.7024 109.0909 L494.1996 90.9091 M494.1996 54.5455 L483.7024 36.3636 L462.7078 36.3636 L452.2105 54.5455 L462.7078 72.7273 L483.7024 72.7273 L494.1996 54.5455 M494.1996 18.1818 L483.7024 0.0 L462.7078 0.0 L452.2105 18.1818 L462.7078 36.3636 L483.7024 36.3636 L494.1996 18.1818" stroke-dasharray="" fill="none" fill-opacity="1.0" stroke="#808080" stroke-opacity="1.0" stroke-width="0.2px" stroke-linecap="butt" stroke-linejoin="miter" stroke-dashoffset="0.0px"/>
</g>
</svg>