<?xml version="1.0" standalone="no"?>
<!DOCTYPE svg PUBLIC "-//W3C//DTD SVG 1.1//EN" "http://www.w3.org/Graphics/SVG/1.1/DTD/svg11.dtd">
<svg width="1152px" height="384px" version="1.1" xmlns="http://www.w3.org/2000/svg" xmlns:inkscape="http://www.inkscape.org/namespaces/inkscape">
<rect x="0" y="0" width="1152px" height="384px" fill="#ffffff"/>
<g id="carto_tests" inkscape:groupmode="layer" inkscape:label="carto_tests">
<path d="M106.6667 64.0 L64.0 106.6667 L21.3333 64.0 L64.0 21.3333 L106.6667 64.0" stroke-dasharray="" fill="none" fill-opacity="1.0" stroke="#000000" stroke-opacity="1.0" stroke-width="1.0px" stroke-linecap="butt" stroke-linejoin="miter" stroke-dashoffset="0.0px"/>
<path d="M234.6667 64.0 L192.0 106.6667 L149.3333 64.0 L192.0 21.3333 L234.6667 64.0" stroke-dasharray="" fill="none" fill-opacity="1.0" stroke="#000000" stroke-opacity="1.0" stroke-width="1.0px" stroke-linecap="butt" stroke-linejoin="miter" stroke-dashoffset="0.0px"/>
<path d="M362.6667 64.0 L320.0 106.6667 L277.3333 64.0 L320.0 21.3333 L362.6667 64.0" stroke-dasharray="" fill="none" fill-opacity="1.0" stroke="#000000" stroke-opacity="1.0" stroke-width="1.0px" stroke-linecap="butt" stroke-linejoin="miter" stroke-dashoffset="0.0px"/>
<path d="M490.6667 64.0 L448.0 106.6667 L405.3333 64.0 L448.0 21.3333 L490.6667 64.0" stroke-dasharray="" fill="none" fill-opacity="1.0" stroke="#000000" stroke-opacity="1.0" stroke-width="1.0px" stroke-linecap="butt" stroke-linejoin="miter" stroke-dashoffset="0.0px"/>
<path d="M618.6667 64.0 L576.0 106.6667 L533.3333 64.0 L576.0 21.3333 L618.6667 64.0" stroke-dasharray="" fill="none" fill-opacity="1.0" stroke="#000000" stroke-opacity="1.0" stroke-width="1.0px" stroke-linecap="butt" stroke-linejoin="miter" stroke-dashoffset="0.0px"/>
<path d="M746.6667 64.0 L704.0 106.6667 L661.3333 64.0 L704.0 21.3333 L746.6667 64.0" stroke-dasharray="" fill="none" fill-opacity="1.0" stroke="#000000" stroke-opacity="1.0" stroke-width="1.0px" stroke-linecap="butt" stroke-linejoin="miter" stroke-dashoffset="0.0px"/>
<path d="M874.6667 64.0 L832.0 106.6667 L789.3333 64.0 L832.0 21.3333 L874.6667 64.0" stroke-dasharray="" fill="none" fill-opacity="1.0" stroke="#000000" stroke-opacity="1.0" stroke-width="1.0px" stroke-linecap="butt" stroke-linejoin="miter" stroke-dashoffset="0.0px"/>
<path d="M1002.6667 64.0 L960.0 106.6667 L917.3333 64.0 L960.0 21.3333 L1002.6667 64.0" stroke-dasharray="" fill="none" fill-opacity="1.0" stroke="#000000" stroke-opacity="1.0" stroke-width="1.0px" stroke-linecap="butt" stroke-linejoin="miter" stroke-dashoffset="0.0px"/>
<path d="M1130.6667 64.0 L1088.0 106.6667 L1045.3333 64.0 L1088.0 21.3333 L1130.6667 64.0" stroke-dasharray="" fill="none" fill-opacity="1.0" stroke="#000000" stroke-opacity="1.0" stroke-width="1.0px" stroke-linecap="butt" stroke-linejoin="miter" stroke-dashoffset="0.0px"/>
<path d="M106.6667 192.0 L64.0 234.6667 L21.3333 192.0 L64.0 149.3333 L106.6667 192.0" stroke-dasharray="" fill="none" fill-opacity="1.0" stroke="#000000" stroke-opacity="1.0" stroke-width="1.0px" stroke-linecap="butt" stroke-linejoin="miter" stroke-dashoffset="0.0px"/>
<path d="M234.6667 192.0 L192.0 234.6667 L149.3333 192.0 L192.0 149.3333 L234.6667 192.0" stroke-dasharray="" fill="none" fill-opacity="1.0" stroke="#000000" stroke-opacity="1.0" stroke-width="1.0px" stroke-linecap="butt" stroke-linejoin="miter" stroke-dashoffset="0.0px"/>
<path d="M362.6667 192.0 L320.0 234.6667 L277.3333 192.0 L320.0 149.3333 L362.6667 192.0" stroke-dasharray="" fill="none" fill-opacity="1.0" stroke="#000000" stroke-opacity="1.0" stroke-width="1.0px" stroke-linecap="butt" stroke-linejoin="miter" stroke-dashoffset="0.0px"/>
<path d="M490.6667 192.0 L448.0 234.6667 L405.3333 192.0 L448.0 149.3333 L490.6667 192.0" stroke-dasharray="" fill="none" fill-opacity="1.0" stroke="#000000" stroke-opacity="1.0" stroke-width="1.0px" stroke-linecap="butt" stroke-linejoin="miter" stroke-dashoffset="0.0px"/>
<path d="M618.6667 192.0 L576.0 234.6667 L533.3333 192.0 L576.0 149.3333 L618.6667 192.0" stroke-dasharray="" fill="none" fill-opacity="1.0" stroke="#000000" stroke-opacity="1.0" stroke-width="1.0px" stroke-linecap="butt" stroke-linejoin="miter" stroke-dashoffset="0.0px"/>
<path d="M746.6667 192.0 L704.0 234.6667 L661.3333 192.0 L704.0 149.3333 L746.6667 192.0" stroke-dasharray="" fill="none" fill-opacity="1.0" stroke="#000000" stroke-opacity="1.0" stroke-width="1.0px" stroke-linecap="butt" stroke-linejoin="miter" stroke-dashoffset="0.0px"/>
<path d="M874.6667 192.0 L832.0 234.6667 L789.3333 192.0 L832.0 149.3333 L874.6667 192.0" stroke-dasharray="" fill="none" fill-opacity="1.0" stroke="#000000" stroke-opacity="1.0" stroke-width="1.0px" stroke-linecap="butt" stroke-linejoin="miter" stroke-dashoffset="0.0px"/>
<path d="M1002.6667 192.0 L960.0 234.6667 L917.3333 192.0 L960.0 149.3333 L1002.6667 192.0" stroke-dasharray="" fill="none" fill-opacity="1.0" stroke="#000000" stroke-opacity="1.0" stroke-width="1.0px" stroke-linecap="butt" stroke-linejoin="miter" stroke-dashoffset="0.0px"/>
<path d="M1130.6667 192.0 L1088.0 234.6667 L1045.3333 192.0 L1088.0 149.3333 L1130.6667 192.0" stroke-dasharray="" fill="none" fill-opacity="1.0" stroke="#000000" stroke-opacity="1.0" stroke-width="1.0px" stroke-linecap="butt" stroke-linejoin="miter" stroke-dashoffset="0.0px"/>
<path d="M106.6667 320.0 L64.0 362.6667 L21.3333 320.0 L64.0 277.3333 L106.6667 320.0" stroke-dasharray="" fill="none" fill-opacity="1.0" stroke="#000000" stroke-opacity="1.0" stroke-width="1.0px" stroke-linecap="butt" stroke-linejoin="miter" stroke-dashoffset="0.0px"/>
<path d="M234.6667 320.0 L192.0 362.6667 L149.3333 320.0 L192.0 277.3333 L234.6667 320.0" stroke-dasharray="" fill="none" fill-opacity="1.0" stroke="#000000" stroke-opacity="1.0" stroke-width="1.0px" stroke-linecap="butt" stroke-linejoin="miter" stroke-dashoffset="0.0px"/>
<path d="M362.6667 320.0 L320.0 362.6667 L277.3333 320.0 L320.0 277.3333 L362.6667 320.0" stroke-dasharray="" fill="none" fill-opacity="1.0" stroke="#000000" stroke-opacity="1.0" stroke-width="1.0px" stroke-linecap="butt" stroke-linejoin="miter" stroke-dashoffset="0.0px"/>
<path d="M490.6667 320.0 L448.0 362.6667 L405.3333 320.0 L448.0 277.3333 L490.6667 320.0" stroke-dasharray="" fill="none" fill-opacity="1.0" stroke="#000000" stroke-opacity="1.0" stroke-width="1.0px" stroke-linecap="butt" stroke-linejoin="miter" stroke-dashoffset="0.0px"/>
<path d="M618.6667 320.0 L576.0 362.6667 L533.3333 320.0 L576.0 277.3333 L618.6667 320.0" stroke-dasharray="" fill="none" fill-opacity="1.0" stroke="#000000" stroke-opacity="1.0" stroke-width="1.0px" stroke-linecap="butt" stroke-linejoin="miter" stroke-dashoffset="0.0px"/>
<path d="M746.6667 320.0 L704.0 362.6667 L661.3333 320.0 L704.0 277.3333 L746.6667 320.0" stroke-dasharray="" fill="none" fill-opacity="1.0" stroke="#000000" stroke-opacity="1.0" stroke-width="1.0px" stroke-linecap="butt" stroke-linejoin="miter" stroke-dashoffset="0.0px"/>
<path d="M874.6667 320.0 L832.0 362.6667 L789.3333 320.0 L832.0 277.3333 L874.6667 320.0" stroke-dasharray="" fill="none" fill-opacity="1.0" stroke="#000000" stroke-opacity="1.0" stroke-width="1.0px" stroke-linecap="butt" stroke-linejoin="miter" stroke-dashoffset="0.0px"/>
<path d="M1002.6667 320.0 L960.0 362.6667 L917.3333 320.0 L960.0 277.3333 L1002.6667 320.0" stroke-dasharray="" fill="none" fill-opacity="1.0" stroke="#000000" stroke-opacity="1.0" stroke-width="1.0px" stroke-linecap="butt" stroke-linejoin="miter" stroke-dashoffset="0.0px"/>
<path d="M1130.6667 320.0 L1088.0 362.6667 L1045.3333 320.0 L1088.0 277.3333 L1130.6667 320.0" stroke-dasharray="" fill="none" fill-opacity="1.0" stroke="#000000" stroke-opacity="1.0" stroke-width="1.0px" stroke-linecap="butt" stroke-linejoin="miter" stroke-dashoffset="0.0px"/>
</g>
</svg>