<?xml version="1.0" standalone="no"?>
<!DOCTYPE svg PUBLIC "-//W3C//DTD SVG 1.1//EN" "http://www.w3.org/Graphics/SVG/1.1/DTD/svg11.dtd">
<svg width="400px" height="600px" version="1.1" xmlns="http://www.w3.org/2000/svg" xmlns:inkscape="http://www.inkscape.org/namespaces/inkscape">
<rect x="0" y="0" width="400px" height="600px" fill="#ffffff"/>
<g id="point" inkscape:groupmode="layer" inkscape:label="point">
<path d="M43.2432 468.5239 L32.4324 449.799 L10.8108 449.799 L0.0 468.5239 L10.8108 487.2487 L32.4324 487.2487 L43.2432 468.5239 M43.2432 431.0741 L32.4324 412.3492 L10.8108 412.3492 L0.0 431.0741 L10.8108 449.799 L32.4324 449.799 L43.2432 431.0741 M43.2432 393.6244 L32.4324 374.8995 L10.8108 374.8995 L0.0 393.6244 L10.8108 412.3492 L32.4324 412.3492 L43.2432 393.6244 M43.2432 356.1746 L32.4324 337.4497 L10.8108 337.4497 L0.0 356.1746 L10.8108 374.8995 L32.4324 374.8995 L43.2432 356.1746 M43.2432 318.7249 L32.4324 300.0 L10.8108 300.0 L0.0 318.7249 L10.8108 337.4497 L32.4324 337.4497 L43.2432 318.7249 M43.2432 281.2751 L32.4324 262.5503 L10.8108 262.5503 L0.0 281.2751 L10.8108 300.0 L32.4324 300.0 L43.2432 281.2751 M43.2432 243.8254 L32.4324 225.1005 L10.8108 225.1005 L0.0 243.8254 L10.8108 262.5503 L32.4324 262.5503 L43.2432 243.8254 M43.2432 206.3756 L32.4324 187.6508 L10.8108 187.6508 L0.0 206.3756 L10.8108 225.1005 L32.4324 225.1005 L43.2432 206.3756 M43.2432 168.9259 L32.4324 150.201 L10.8108 150.201 L0.0 168.9259 L10.8108 187.6508 L32.4324 187.6508 L43.2432 168.9259 M43.2432 131.4761 L32.4324 112.7513 L10.8108 112.7513 L0.0 131.4761 L10.8108 150.201 L32.4324 150.201 L43.2432 131.4761 M75.6757 487.2487 L64.8649 468.5239 L43.2432 468.5239 L32.4324 487.2487 L43.2432 505.9736 L64.8649 505.9736 L75.6757 487.2487 M75.6757 449.799 L64.8649 431.0741 L43.2432 431.0741 L32.4324 449.799 L43.2432 468.5239 L64.8649 468.5239 L75.6757 449.799 M75.6757 412.3492 L64.8649 393.6244 L43.2432 393.6244 L32.4324 412.3492 L43.2432 431.0741 L64.8649 431.0741 L75.6757 412.3492 M75.6757 374.8995 L64.8649 356.1746 L43.2432 356.1746 L32.4324 374.8995 L43.2432 393.6244 L64.8649 393.6244 L75.6757 374.8995 M75.6757 337.4497 L64.8649 318.7249 L43.2432 318.7249 L32.4324 337.4497 L43.2432 356.1746 L64.8649 356.1746 L75.6757 337.4497 M75.6757 300.0 L64.8649 281.2751 L43.2432 281.2751 L32.4324 300.0 L43.2432 318.7249 L64.8649 318.7249 L75.6757 300.0 M75.6757 262.5503 L64.8649 243.8254 L43.2432 243.8254 L32.4324 262.5503 L43.2432 281.2751 L64.8649 281.2751 L75.6757 262.5503 M75.6757 225.1005 L64.8649 206.3756 L43.2432 206.3756 L32.4324 225.1005 L43.2432 243.8254 L64.8649 243.8254 L75.6757 225.1005 M75.6757 187.6508 L64.8649 168.9259 L43.2432 168.9259 L32.4324 187.6508 L43.2432 206.3756 L64.8649 206.3756 L75.6757 187.6508 M75.6757 150.201 L64.8649 131.4761 L43.2432 131.4761 L32.4324 150.201 L43.2432 168.9259 L64.8649 168.9259 L75.6757 150.201 M75.6757 112.7513 L64.8649 94.0264 L43.2432 94.0264 L32.4324 112.7513 L43.2432 131.4761 L64.8649 131.4761 L75.6757 112.7513 M108.1081 468.5239 L97.2973 449.799 L75.6757 449.799 L64.8649 468.5239 L75.6757 487.2487 L97.2973 487.2487 L108.1081 468.5239 M108.1081 431.0741 L97.2973 412.3492 L75.6757 412.3492 L64.8649 431.0741 L75.6757 449.799 L97.2973 449.799 L108.1081 431.0741 M108.1081 393.6244 L97.2973 374.8995 L75.6757 374.8995 L64.8649 393.6244 L75.6757 412.3492 L97.2973 412.3492 L108.1081 393.6244 M108.1081 356.1746 L97.2973 337.4497 L75.6757 337.4497 L64.8649 356.1746 L75.6757 374.8995 L97.2973 374.8995 L108.1081 356.1746 M108.1081 318.7249 L97.2973 300.0 L75.6757 300.0 L64.8649 318.7249 L75.6757 337.4497 L97.2973 337.4497 L108.1081 318.7249 M108.1081 281.2751 L97.2973 262.5503 L75.6757 262.5503 L64.8649 281.2751 L75.6757 300.0 L97.2973 300.0 L108.1081 281.2751 M108.1081 243.8254 L97.2973 225.1005 L75.6757 225.1005 L64.8649 243.8254 L75.6757 262.5503 L97.2973 262.5503 L108.1081 243.8254 M108.1081 206.3756 L97.2973 187.6508 L75.6757 187.6508 L64.8649 206.3756 L75.6757 225.1005 L97.2973 225.1005 L108.1081 206.3756 M108.1081 168.9259 L97.2973 150.201 L75.6757 150.201 L64.8649 168.9259 L75.6757 187.6508 L97.2973 187.6508 L108.1081 168.9259 M108.1081 131.4761 L97.2973 112.7513 L75.6757 112.7513 L64.8649 131.4761 L75.6757 150.201 L97.2973 150.201 L108.1081 131.4761 M140.5405 487.2487 L129.7297 468.5239 L108.1081 468.5239 L97.2973 487.2487 L108.1081 505.9736 L129.7297 505.9736 L140.5405 487.2487 M140.5405 449.799 L129.7297 431.0741 L108.1081 431.0741 L97.2973 449.799 L108.1081 468.5239 L129.7297 468.5239 L140.5405 449.799 M140.5405 412.3492 L129.7297 393.6244 L108.1081 393.6244 L97.2973 412.3492 L108.1081 431.0741 L129.7297 431.0741 L140.5405 412.3492 M140.5405 374.8995 L129.7297 356.1746 L108.1081 356.1746 L97.2973 374.8995 L108.1081 393.6244 L129.7297 393.6244 L140.5405 374.8995 M140.5405 337.4497 L129.7297 318.7249 L108.1081 318.7249 L97.2973 337.4497 L108.1081 356.1746 L129.7297 356.1746 L140.5405 337.4497 M140.5405 300.0 L129.7297 281.2751 L108.1081 281.2751 L97.2973 300.0 L108.1081 318.7249 L129.7297 318.7249 L140.5405 300.0 M140.5405 262.5503 L129.7297 243.8254 L108.1081 243.8254 L97.2973 262.5503 L108.1081 281.2751 L129.7297 281.2751 L140.5405 262.5503 M140.5405 225.1005 L129.7297 206.3756 L108.1081 206.3756 L97.2973 225.1005 L108.1081 243.8254 L129.7297 243.8254 L140.5405 225.1005 M140.5405 187.6508 L129.7297 168.9259 L108.1081 168.9259 L97.2973 187.6508 L108.1081 206.3756 L129.7297 206.3756 L140.5405 187.6508 M140.5405 150.201 L129.7297 131.4761 L108.1081 131.4761 L97.2973 150.201 L108.1081 168.9259 L129.7297 168.9259 L140.5405 150.201 M140.5405 112.7513 L129.7297 94.0264 L108.1081 94.0264 L97.2973 112.7513 L108.1081 131.4761 L129.7297 131.4761 L140.5405 112.7513 M172.973 468.5239 L162.1622 449.799 L140.5405 449.799 L129.7297 468.5239 L140.5405 487.2487 L162.1622 487.2487 L172.973 468.5239 M172.973 431.0741 L162.1622 412.3492 L140.5405 412.3492 L129.7297 431.0741 L140.5405 449.799 L162.1622 449.799 L172.973 431.0741 M172.973 393.6244 L162.1622 374.8995 L140.5405 374.8995 L129.7297 393.6244 L140.5405 412.3492 L162.1622 412.3492 L172.973 393.6244 M172.973 356.1746 L162.1622 337.4497 L140.5405 337.4497 L129.7297 356.1746 L140.5405 374.8995 L162.1622 374.8995 L172.973 356.1746 M172.973 318.7249 L162.1622 300.0 L140.5405 300.0 L129.7297 318.7249 L140.5405 337.4497 L162.1622 337.4497 L172.973 318.7249 M172.973 281.2751 L162.1622 262.5503 L140.5405 262.5503 L129.7297 281.2751 L140.5405 300.0 L162.1622 300.0 L172.973 281.2751 M172.973 243.8254 L162.1622 225.1005 L140.5405 225.1005 L129.7297 243.8254 L140.5405 262.5503 L162.1622 262.5503 L172.973 243.8254 M172.973 206.3756 L162.1622 187.6508 L140.5405 187.6508 L129.7297 206.3756 L140.5405 225.1005 L162.1622 225.1005 L172.973 206.3756 M172.973 168.9259 L162.1622 150.201 L140.5405 150.201 L129.7297 168.9259 L140.5405 187.6508 L162.1622 187.6508 L172.973 168.9259 M172.973 131.4761 L162.1622 112.7513 L140.5405 112.7513 L129.7297 131.4761 L140.5405 150.201 L162.1622 150.201 L172.973 131.4761 M205.4054 487.2487 L194.5946 468.5239 L172.973 468.5239 L162.1622 487.2487 L172.973 505.9736 L194.5946 505.9736 L205.4054 487.2487 M205.4054 449.799 L194.5946 431.0741 L172.973 431.0741 L162.1622 449.799 L172.973 468.5239 L194.5946 468.5239 L205.4054 449.799 M205.4054 412.3492 L194.5946 393.6244 L172.973 393.6244 L162.1622 412.3492 L172.973 431.0741 L194.5946 431.0741 L205.4054 412.3492 M205.4054 374.8995 L194.5946 356.1746 L172.973 356.1746 L162.1622 374.8995 L172.973 393.6244 L194.5946 393.6244 L205.4054 374.8995 M205.4054 337.4497 L194.5946 318.7249 L172.973 318.7249 L162.1622 337.4497 L172.973 356.1746 L194.5946 356.1746 L205.4054 337.4497 M205.4054 300.0 L194.5946 281.2751 L172.973 281.2751 L162.1622 300.0 L172.973 318.7249 L194.5946 318.7249 L205.4054 300.0 M205.4054 262.5503 L194.5946 243.8254 L172.973 243.8254 L162.1622 262.5503 L172.973 281.2751 L194.5946 281.2751 L205.4054 262.5503 M205.4054 225.1005 L194.5946 206.3756 L172.973 206.3756 L162.1622 225.1005 L172.973 243.8254 L194.5946 243.8254 L205.4054 225.1005 M205.4054 187.6508 L194.5946 168.9259 L172.973 168.9259 L162.1622 187.6508 L172.973 206.3756 L194.5946 206.3756 L205.4054 187.6508 M205.4054 150.201 L194.5946 131.4761 L172.973 131.4761 L162.1622 150.201 L172.973 168.9259 L194.5946 168.9259 L205.4054 150.201 M205.4054 112.7513 L194.5946 94.0264 L172.973 94.0264 L162.1622 112.7513 L172.973 131.4761 L194.5946 131.4761 L205.4054 112.7513 M237.8378 468.5239 L227.027 449.799 L205.4054 449.799 L194.5946 468.5239 L205.4054 487.2487 L227.027 487.2487 L237.8378 468.5239 M237.8378 431.0741 L227.027 412.3492 L205.4054 412.3492 L194.5946 431.0741 L205.4054 449.799 L227.027 449.799 L237.8378 431.0741 M237.8378 393.6244 L227.027 374.8995 L205.4054 374.8995 L194.5946 393.6244 L205.4054 412.3492 L227.027 412.3492 L237.8378 393.6244 M237.8378 356.1746 L227.027 337.4497 L205.4054 337.4497 L194.5946 356.1746 L205.4054 374.8995 L227.027 374.8995 L237.8378 356.1746 M237.8378 318.7249 L227.027 300.0 L205.4054 300.0 L194.5946 318.7249 L205.4054 337.4497 L227.027 337.4497 L237.8378 318.7249 M237.8378 281.2751 L227.027 262.5503 L205.4054 262.5503 L194.5946 281.2751 L205.4054 300.0 L227.027 300.0 L237.8378 281.2751 M237.8378 243.8254 L227.027 225.1005 L205.4054 225.1005 L194.5946 243.8254 L205.4054 262.5503 L227.027 262.5503 L237.8378 243.8254 M237.8378 206.3756 L227.027 187.6508 L205.4054 187.6508 L194.5946 206.3756 L205.4054 225.1005 L227.027 225.1005 L237.8378 206.3756 M237.8378 168.9259 L227.027 150.201 L205.4054 150.201 L194.5946 168.9259 L205.4054 187.6508 L227.027 187.6508 L237.8378 168.9259 M237.8378 131.4761 L227.027 112.7513 L205.4054 112.7513 L194.5946 131.4761 L205.4054 150.201 L227.027 150.201 L237.8378 131.4761 M270.2703 487.2487 L259.4595 468.5239 L237.8378 468.5239 L227.027 487.2487 L237.8378 505.9736 L259.4595 505.9736 L270.2703 487.2487 M270.2703 449.799 L259.4595 431.0741 L237.8378 431.0741 L227.027 449.799 L237.8378 468.5239 L259.4595 468.5239 L270.2703 449.799 M270.2703 412.3492 L259.4595 393.6244 L237.8378 393.6244 L227.027 412.3492 L237.8378 431.0741 L259.4595 431.0741 L270.2703 412.3492 M270.2703 374.8995 L259.4595 356.1746 L237.8378 356.1746 L227.027 374.8995 L237.8378 393.6244 L259.4595 393.6244 L270.2703 374.8995 M270.2703 337.4497 L259.4595 318.7249 L237.8378 318.7249 L227.027 337.4497 L237.8378 356.1746 L259.4595 356.1746 L270.2703 337.4497 M270.2703 300.0 L259.4595 281.2751 L237.8378 281.2751 L227.027 300.0 L237.8378 318.7249 L259.4595 318.7249 L270.2703 300.0 M270.2703 262.5503 L259.4595 243.8254 L237.8378 243.8254 L227.027 262.5503 L237.8378 281.2751 L259.4595 281.2751 L270.2703 262.5503 M270.2703 225.1005 L259.4595 206.3756 L237.8378 206.3756 L227.027 225.1005 L237.8378 243.8254 L259.4595 243.8254 L270.2703 225.1005 M270.2703 187.6508 L259.4595 168.9259 L237.8378 168.9259 L227.027 187.6508 L237.8378 206.3756 L259.4595 206.3756 L270.2703 187.6508 M270.2703 150.201 L259.4595 131.4761 L237.8378 131.4761 L227.027 150.201 L237.8378 168.9259 L259.4595 168.9259 L270.2703 150.201 M270.2703 112.7513 L259.4595 94.0264 L237.8378 94.0264 L227.027 112.7513 L237.8378 131.4761 L259.4595 131.4761 L270.2703 112.7513 M302.7027 468.5239 L291.8919 449.799 L270.2703 449.799 L259.4595 468.5239 L270.2703 487.2487 L291.8919 487.2487 L302.7027 468.5239 M302.7027 431.0741 L291.8919 412.3492 L270.2703 412.3492 L259.4595 431.0741 L270.2703 449.799 L291.8919 449.799 L302.7027 431.0741 M302.7027 393.6244 L291.8919 374.8995 L270.2703 374.8995 L259.4595 393.6244 L270.2703 412.3492 L291.8919 412.3492 L302.7027 393.6244 M302.7027 356.1746 L291.8919 337.4497 L270.2703 337.4497 L259.4595 356.1746 L270.2703 374.8995 L291.8919 374.8995 L302.7027 356.1746 M302.7027 318.7249 L291.8919 300.0 L270.2703 300.0 L259.4595 318.7249 L270.2703 337.4497 L291.8919 337.4497 L302.7027 318.7249 M302.7027 281.2751 L291.8919 262.5503 L270.2703 262.5503 L259.4595 281.2751 L270.2703 300.0 L291.8919 300.0 L302.7027 281.2751 M302.7027 243.8254 L291.8919 225.1005 L270.2703 225.1005 L259.4595 243.8254 L270.2703 262.5503 L291.8919 262.5503 L302.7027 243.8254 M302.7027 206.3756 L291.8919 187.6508 L270.2703 187.6508 L259.4595 206.3756 L270.2703 225.1005 L291.8919 225.1005 L302.7027 206.3756 M302.7027 168.9259 L291.8919 150.201 L270.2703 150.201 L259.4595 168.9259 L270.2703 187.6508 L291.8919 187.6508 L302.7027 168.9259 M302.7027 131.4761 L291.8919 112.7513 L270.2703 112.7513 L259.4595 131.4761 L270.2703 150.201 L291.8919 150.201 L302.7027 131.4761 M335.1351 487.2487 L324.3243 468.5239 L302.7027 468.5239 L291.8919 487.2487 L302.7027 505.9736 L324.3243 505.9736 L335.1351 487.2487 M335.1351 449.799 L324.3243 431.0741 L302.7027 431.0741 L291.8919 449.799 L302.7027 468.5239 L324.3243 468.5239 L335.1351 449.799 M335.1351 412.3492 L324.3243 393.6244 L302.7027 393.6244 L291.8919 412.3492 L302.7027 431.0741 L324.3243 431.0741 L335.1351 412.3492 M335.1351 374.8995 L324.3243 356.1746 L302.7027 356.1746 L291.8919 374.8995 L302.7027 393.6244 L324.3243 393.6244 L335.1351 374.8995 M335.1351 337.4497 L324.3243 318.7249 L302.7027 318.7249 L291.8919 337.4497 L302.7027 356.1746 L324.3243 356.1746 L335.1351 337.4497 M335.1351 300.0 L324.3243 281.2751 L302.7027 281.2751 L291.8919 300.0 L302.7027 318.7249 L324.3243 318.7249 L335.1351 300.0 M335.1351 262.5503 L324.3243 243.8254 L302.7027 243.8254 L291.8919 262.5503 L302.7027 281.2751 L324.3243 281.2751 L335.1351 262.5503 M335.1351 225.1005 L324.3243 206.3756 L302.7027 206.3756 L291.8919 225.1005 L302.7027 243.8254 L324.3243 243.8254 L335.1351 225.1005 M335.1351 187.6508 L324.3243 168.9259 L302.7027 168.9259 L291.8919 187.6508 L302.7027 206.3756 L324.3243 206.3756 L335.1351 187.6508 M335.1351 150.201 L324.3243 131.4761 L302.7027 131.4761 L291.8919 150.201 L302.7027 168.9259 L324.3243 168.9259 L335.1351 150.201 M335.1351 112.7513 L324.3243 94.0264 L302.7027 94.0264 L291.8919 112.7513 L302.7027 131.4761 L324.3243 131.4761 L335.1351 112.7513 M367.5676 468.5239 L356.7568 449.799 L335.1351 449.799 L324.3243 468.5239 L335.1351 487.2487 L356.7568 487.2487 L367.5676 468.5239 M367.5676 431.0741 L356.7568 412.3492 L335.1351 412.3492 L324.3243 431.0741 L335.1351 449.799 L356.7568 449.799 L367.5676 431.0741 M367.5676 393.6244 L356.7568 374.8995 L335.1351 374.8995 L324.3243 393.6244 L335.1351 412.3492 L356.7568 412.3492 L367.5676 393.6244 M367.5676 356.1746 L356.7568 337.4497 L335.1351 337.4497 L324.3243 356.1746 L335.1351 374.8995 L356.7568 374.8995 L367.5676 356.1746 M367.5676 318.7249 L356.7568 300.0 L335.1351 300.0 L324.3243 318.7249 L335.1351 337.4497 L356.7568 337.4497 L367.5676 318.7249 M367.5676 281.2751 L356.7568 262.5503 L335.1351 262.5503 L324.3243 281.2751 L335.1351 300.0 L356.7568 300.0 L367.5676 281.2751 M367.5676 243.8254 L356.7568 225.1005 L335.1351 225.1005 L324.3243 243.8254 L335.1351 262.5503 L356.7568 262.5503 L367.5676 243.8254 M367.5676 206.3756 L356.7568 187.6508 L335.1351 187.6508 L324.3243 206.3756 L335.1351 225.1005 L356.7568 225.1005 L367.5676 206.3756 M367.5676 168.9259 L356.7568 150.201 L335.1351 150.201 L324.3243 168.9259 L335.1351 187.6508 L356.7568 187.6508 L367.5676 168.9259 M367.5676 131.4761 L356.7568 112.7513 L335.1351 112.7513 L324.3243 131.4761 L335.1351 150.201 L356.7568 150.201 L367.5676 131.4761 M400.0 487.2487 L389.1892 468.5239 L367.5676 468.5239 L356.7568 487.2487 L367.5676 505.9736 L389.1892 505.9736 L400.0 487.2487 M400.0 449.799 L389.1892 431.0741 L367.5676 431.0741 L356.7568 449.799 L367.5676 468.5239 L389.1892 468.5239 L400.0 449.799 M400.0 412.3492 L389.1892 393.6244 L367.5676 393.6244 L356.7568 412.3492 L367.5676 431.0741 L389.1892 431.0741 L400.0 412.3492 M400.0 374.8995 L389.1892 356.1746 L367.5676 356.1746 L356.7568 374.8995 L367.5676 393.6244 L389.1892 393.6244 L400.0 374.8995 M400.0 337.4497 L389.1892 318.7249 L367.5676 318.7249 L356.7568 337.4497 L367.5676 356.1746 L389.1892 356.1746 L400.0 337.4497 M400.0 300.0 L389.1892 281.2751 L367.5676 281.2751 L356.7568 300.0 L367.5676 318.7249 L389.1892 318.7249 L400.0 300.0 M400.0 262.5503 L389.1892 243.8254 L367.5676 243.8254 L356.7568 262.5503 L367.5676 281.2751 L389.1892 281.2751 L400.0 262.5503 M400.0 225.1005 L389.1892 206.3756 L367.5676 206.3756 L356.7568 225.1005 L367.5676 243.8254 L389.1892 243.8254 L400.0 225.1005 M400.0 187.6508 L389.1892 168.9259 L367.5676 168.9259 L356.7568 187.6508 L367.5676 206.3756 L389.1892 206.3756 L400.0 187.6508 M400.0 150.201 L389.1892 131.4761 L367.5676 131.4761 L356.7568 150.201 L367.5676 168.9259 L389.1892 168.9259 L400.0 150.201 M400.0 112.7513 L389.1892 94.0264 L367.5676 94.0264 L356.7568 112.7513 L367.5676 131.4761 L389.1892 131.4761 L400.0 112.7513" stroke-dasharray="" fill="none" fill-opacity="1.0" stroke="#808080" stroke-opacity="1.0" stroke-width="0.2px" stroke-linecap="butt" stroke-linejoin="miter" stroke-dashoffset="0.0px"/>
</g>
</svg>