<?xml version="1.0" standalone="no"?>
<!DOCTYPE svg PUBLIC "-//W3C//DTD SVG 1.1//EN" "http://www.w3.org/Graphics/SVG/1.1/DTD/svg11.dtd">
<svg width="512px" height="512px" version="1.1" xmlns="http://www.w3.org/2000/svg" xmlns:inkscape="http://www.inkscape.org/namespaces/inkscape">
<g id="poly" inkscape:groupmode="layer" inkscape:label="poly">
<path d="M4.0128 67.4211 L3.4927 69.3273 L1.8856 70.9565 L0.5321 71.5159 L0.0 72.333 L0.2772 73.1497 L0.5588 73.4213 L1.8979 72.5898 L4.0465 70.3996 L4.0343 69.053 L6.4552 67.6635 L7.7995 66.3038 L8.6089 66.3036 L9.4229 66.9467 L10.2484 67.6023 L10.2488 67.6193 L10.2531 67.8883 L10.8002 68.7067 L11.0864 69.7796 L10.5637 71.127 L10.5679 71.1385 L10.845 72.7572 L11.9379 73.5701 L12.7641 74.646 L13.3218 75.9872 L13.5964 76.2455 L13.8683 76.531 L15.501 77.3181 L15.7752 77.5886 L15.5129 78.4069 L14.4268 78.4212 L13.8941 78.9635 L13.9064 79.7825 L14.9989 81.1106 L15.2919 82.1965 L13.9559 84.1055 L13.9502 84.1137 L13.9529 84.6598 L14.7904 86.5496 L15.3364 87.0763 L15.6109 87.3346 L18.3355 88.9344 L19.4282 89.7351 L20.249 91.3677 L20.2513 91.3819 L20.5535 93.7993 L20.8458 95.9558 L21.4061 97.5728 L22.224 98.9166 L23.3282 100.2615 L27.1922 106.9947 L27.7333 107.2648 L28.5466 107.5215 L28.8186 107.7947 L28.8325 108.8677 L28.5792 110.2275 L28.5855 110.7677 L28.8576 111.0409 L29.6718 111.0244 L32.0994 110.1957 L32.8979 109.3664 L33.426 106.9197 L33.9411 106.0994 L33.9487 106.0884 L33.9479 105.8469 L34.4872 105.8333 L36.3935 106.9042 L37.4789 106.8905 L39.641 106.3292 L40.7274 106.5861 L41.2799 107.6579 L41.0113 108.4752 L40.2112 109.5609 L39.9642 111.7349 L38.8846 112.2926 L37.2639 112.5802 L36.1901 113.3954 L36.2049 114.4815 L37.3154 117.4547 L37.3153 117.712 L38.1338 119.0565 L38.1439 119.068 L38.9607 119.8715 L40.3205 120.3986 L41.1402 120.9261 L40.8995 123.9139 L40.8994 124.1711 L40.6449 124.7286 L40.1035 125.5457 L39.3038 126.6309 L39.3035 127.1744 L41.2037 127.4317 L43.1098 128.4863 L41.4886 129.0467 L39.336 129.8753 L37.7214 131.2499 L36.9162 131.5342 L36.0956 130.9937 L36.364 130.1768 L36.8974 129.3623 L36.8884 128.8203 L34.7179 128.0339 L33.3953 131.2942 L30.181 134.8551 L30.1945 135.6534 L31.2735 135.6393 L33.9624 133.4508 L34.2271 133.4363 L35.3084 133.4365 L37.4994 135.0513 L38.3071 135.2919 L39.6477 133.9335 L39.9072 133.3924 L40.1688 132.3049 L40.1557 130.9631 L41.2369 130.403 L43.1288 130.3888 L44.2143 131.1892 L45.5882 132.8019 L46.4017 133.3291 L48.022 132.7557 L48.2949 132.7556 L49.1032 132.7561 L51.2736 133.286 L53.7009 132.7124 L54.7757 131.6248 L55.3096 130.5243 L56.1038 128.908 L56.9111 128.6214 L57.7293 129.4221 L57.7361 129.9668 L59.6676 133.4654 L60.7606 134.5375 L61.8801 138.3231 L62.1454 138.5791 L63.2632 141.8237 L65.7415 146.9375 L66.015 147.2078 L66.5691 148.0068 L68.2022 149.3489 L69.8281 149.5902 L71.7203 149.5903 L73.6072 149.018 L74.147 149.0181 L75.4954 148.2019 L76.5701 147.3724 L77.3631 146.2872 L78.4441 145.2008 L79.7838 144.1 L80.8643 143.5569 L82.2177 143.5413 L83.577 144.3397 L83.5757 144.6128 L84.117 145.1413 L85.2216 147.298 L86.0551 149.7257 L86.8808 151.0682 L88.5132 152.411 L90.6862 153.7381 L91.7833 155.0799 L91.7921 155.0905 L92.3319 156.1659 L92.905 159.1335 L92.6493 161.0344 L91.8438 161.8483 L88.8817 163.2064 L86.7234 164.0647 L84.8421 165.1504 L84.5693 165.1503 L82.4142 165.7246 L79.4343 164.9414 L76.4618 165.2258 L75.6551 165.5119 L75.1329 167.6696 L74.8598 167.9555 L74.0595 168.7689 L72.7126 169.5979 L72.1792 170.1251 L72.1919 170.6695 L73.2712 171.1966 L74.6263 171.195 L76.4989 169.2816 L77.5802 169.2668 L78.3993 170.6243 L78.1389 171.7077 L77.878 172.7948 L77.3518 173.8623 L77.6383 176.0337 L78.1833 176.2909 L79.0026 177.1053 L79.2713 177.1025 L81.9904 178.9566 L82.8032 179.227 L83.6101 178.6843 L85.4842 176.7726 L85.7569 176.7727 L86.0381 177.8412 L84.9763 180.027 L84.9885 181.3841 L85.008 183.8083 L83.9331 184.6237 L83.6668 184.8937 L83.6734 185.4376 L83.4065 186.2504 L83.9534 186.7786 L84.7665 187.319 L84.7781 188.4058 L84.5126 189.2195 L83.9784 189.7622 L82.9055 190.5748 L80.4841 191.418 L80.2115 191.4178 L78.5979 191.9762 L77.5166 192.2478 L76.4369 191.9898 L75.6163 190.9217 L75.0717 190.3787 L73.9907 190.3935 L73.184 190.9362 L71.2971 191.7638 L69.9496 192.0525 L67.2502 192.3365 L65.363 192.6375 L65.0886 192.6402 L62.1154 192.1277 L59.1485 192.1423 L56.9773 191.9004 L52.6499 190.8769 L51.8307 190.8759 L51.8423 191.4191 L52.6613 192.7463 L54.0222 193.2711 L55.9152 193.5294 L57.0016 194.057 L58.6408 196.211 L59.4543 196.465 L60.5282 196.4656 L61.6087 195.9238 L62.1599 196.7076 L62.4414 198.0612 L62.4461 198.334 L62.4456 198.8766 L61.927 200.2306 L61.666 201.586 L61.6786 203.1991 L64.1239 204.5243 L66.571 206.4061 L68.4715 207.1888 L68.7381 207.1887 L69.2782 207.1728 L70.6244 206.3614 L71.7036 206.3455 L72.2448 206.6164 L72.5306 208.2426 L72.804 208.2268 L74.4169 207.4154 L75.2236 207.3995 L75.2302 207.9431 L75.2376 209.0096 L75.5167 209.5533 L76.3225 209.5534 L77.1245 208.4524 L77.9376 208.4536 L79.563 209.2515 L80.0965 208.9657 L80.8972 207.6108 L81.9782 207.3395 L82.2457 207.3235 L83.3234 207.054 L85.479 206.7679 L88.732 207.5493 L89.813 207.8046 L90.0841 208.0774 L90.6261 208.3326 L91.1839 209.9592 L91.7309 210.7569 L93.084 211.2984 L93.9035 212.0964 L93.909 213.1824 L93.1026 213.7245 L92.2969 213.7241 L90.6639 212.6549 L89.8633 212.6707 L89.0495 213.2117 L88.7905 214.2949 L88.5283 215.3798 L89.0743 216.1934 L89.0888 217.2608 L88.281 218.0755 L87.7467 218.9034 L88.0272 219.7009 L88.5746 220.2419 L89.3857 220.4989 L90.7273 219.4156 L92.3356 218.5852 L93.9544 218.3013 L95.8487 218.5546 L96.1165 218.5556 L98.8282 219.6098 L99.3622 219.0676 L99.6214 217.9846 L100.9697 217.6979 L100.9706 217.1556 L99.8711 215.5598 L99.5893 214.2054 L101.9992 211.4944 L106.331 212.8052 L107.1517 213.8573 L108.5097 215.4851 L108.7832 215.4695 L108.7913 216.0103 L107.1713 216.5832 L105.3156 219.8191 L104.7824 221.1743 L105.3344 222.5314 L105.0673 223.3432 L104.2603 223.6152 L102.3747 223.6289 L100.759 224.4576 L99.9663 226.6257 L99.9772 227.6946 L99.9833 227.7032 L100.7912 228.7788 L98.1237 232.3149 L92.7679 236.9347 L89.3126 242.11 L88.2376 243.7226 L86.3686 245.6329 L85.0301 246.7298 L84.501 248.3558 L83.6952 248.8976 L82.3614 249.9936 L80.7467 251.079 L79.4118 251.6359 L78.5988 252.1765 L78.3331 252.4462 L78.3377 252.7187 L78.6126 253.2589 L78.6197 254.0714 L78.3592 254.8829 L77.2853 255.1544 L74.8507 255.1855 L73.7775 255.7265 L73.7781 255.996 L73.7828 256.2685 L75.9447 256.5224 L77.0313 257.3202 L77.8313 257.3042 L78.6435 257.3054 L79.7243 257.0185 L79.9984 257.2891 L80.5396 258.3758 L80.5438 258.3871 L81.1032 260.2529 L82.189 261.5925 L83.0092 262.3904 L84.3535 263.1944 L84.3629 263.2013 L85.1761 263.7126 L86.8016 264.7802 L87.8896 265.0494 L88.6953 265.3069 L89.5042 264.7637 L90.3093 264.4786 L91.3969 265.0043 L92.7496 265.8314 L93.8233 265.5314 L95.1697 264.9755 L95.7047 264.1617 L95.964 263.6226 L95.6854 263.0795 L94.3379 262.8232 L92.9848 261.7556 L92.1583 260.162 L92.1383 257.982 L91.0531 256.6589 L90.7795 256.6577 L88.6003 253.9804 L88.0416 251.8288 L88.2953 250.2046 L89.0768 247.2267 L90.1448 245.6009 L90.4107 245.3314 L92.0171 243.9623 L93.8984 243.1337 L94.9735 242.3207 L94.4194 240.441 L94.135 239.0856 L94.6669 238.273 L95.2007 237.7311 L96.0092 237.1745 L97.3614 237.1604 L99.5203 237.7031 L100.6017 237.4165 L101.6694 236.3327 L102.4683 235.2347 L104.0841 234.1496 L105.1578 233.5922 L106.5048 233.3217 L107.5835 233.3068 L110.0238 234.901 L111.3703 234.8872 L111.098 234.3606 L110.5511 233.2934 L109.1916 232.2245 L109.1787 230.8681 L108.9118 230.5983 L107.5587 230.8685 L107.5589 230.3422 L108.3585 229.5138 L108.6193 228.1587 L108.8869 227.6167 L109.6936 227.6182 L110.2325 227.6187 L110.2406 228.1593 L109.9789 229.2278 L109.9793 229.771 L110.2525 230.3108 L111.6061 229.755 L111.8726 229.7552 L112.6856 230.0267 L112.965 231.636 L113.778 231.9075 L117.2729 230.5229 L118.3338 227.8132 L118.8671 227.2873 L119.1405 227.2718 L121.0276 226.9864 L122.9147 226.7011 L123.1747 225.8881 L123.7168 225.3438 L125.3281 224.5166 L126.4096 223.9898 L126.6648 223.1608 L125.3094 222.0939 L124.7639 221.2802 L126.1099 221.0091 L129.3507 220.707 L132.8647 222.0318 L133.1387 222.303 L134.2177 222.2886 L135.5716 222.5586 L137.4769 224.4268 L137.7434 224.427 L138.2843 224.4251 L137.998 222.2746 L138.8106 222.5298 L139.6239 223.0716 L139.6251 223.3254 L140.1713 224.4139 L140.1722 224.4271 L140.4569 226.3067 L140.2096 228.4602 L140.756 229.7976 L141.8425 230.8671 L144.289 233.2896 L144.8343 233.5481 L145.3614 233.0055 L146.176 233.0052 L146.9951 233.8169 L147.5365 234.0725 L148.0751 233.8038 L148.336 232.7177 L148.8626 230.8229 L149.3897 229.4674 L149.9303 229.1959 L151.0155 229.4686 L151.2839 229.4663 L155.889 232.132 L156.7044 232.9288 L158.0503 232.6588 L158.3044 230.4769 L158.5776 230.2209 L161.0183 231.8153 L161.8297 232.8996 L162.1162 233.9682 L162.1104 234.2377 L162.656 235.0358 L164.0093 235.0369 L165.8966 235.2927 L168.0624 235.8191 L170.2178 235.5335 L171.8436 236.3444 L173.4658 236.8707 L176.1711 237.3827 L177.5236 238.18 L177.7974 238.721 L177.7969 238.9944 L178.6105 239.5208 L179.6973 240.0611 L181.8701 242.1985 L182.6826 243.0105 L183.7566 243.5373 L185.1165 243.7929 L186.4643 243.7906 L188.3507 242.981 L189.4312 242.9652 L189.9699 243.2362 L189.7048 243.7758 L188.3638 244.8613 L188.0968 245.4036 L188.6365 245.9283 L194.3048 247.2522 L194.8513 247.2512 L195.6646 247.7777 L196.2099 248.5929 L197.2904 249.4029 L201.8909 251.2548 L203.2445 252.0498 L203.2503 253.4062 L201.9099 254.4873 L201.9111 254.7578 L200.8359 255.03 L199.2302 257.2103 L198.6896 257.481 L197.0746 257.2119 L196.2618 257.4819 L194.922 258.5799 L194.1214 261.2721 L194.406 262.6255 L195.2266 263.9784 L196.0323 264.2341 L198.199 265.3025 L198.7407 265.5716 L200.0925 266.9043 L200.1025 266.9074 L201.446 267.4379 L201.7213 267.7064 L202.8014 267.9772 L204.6932 268.2346 L205.4999 269.0302 L205.7876 270.1123 L205.7867 270.9243 L206.5996 271.4509 L206.8721 272.5341 L207.1526 274.1416 L207.4252 274.9554 L211.2062 276.0206 L212.2873 276.0061 L212.5535 276.0068 L213.3731 276.2772 L214.1798 276.8036 L215.2546 276.5319 L217.407 275.1654 L217.9342 273.8112 L219.0152 273.2703 L219.5546 273.8119 L219.8278 274.8794 L220.3741 275.9609 L222.8069 277.5707 L223.8948 278.0966 L226.3143 277.5405 L226.5885 277.825 L229.0151 278.0663 L231.1694 278.3356 L231.7167 279.1321 L231.4562 280.2136 L235.2418 283.7023 L236.3222 283.7006 L238.2153 284.4999 L239.5625 284.7526 L239.8221 284.4998 L239.557 283.9565 L238.2083 283.4165 L237.3883 282.0794 L237.657 280.726 L239.277 280.1839 L239.5307 278.8318 L237.6302 275.8703 L237.8949 274.8 L238.9705 274.8029 L239.2445 274.7722 L242.7582 276.9214 L242.764 277.7345 L243.0378 278.2594 L244.6565 279.0729 L246.8186 280.4104 L247.6317 280.9506 L248.9787 280.6808 L250.871 281.7332 L251.1455 283.0841 L251.4185 283.3556 L251.9519 282.7982 L253.2998 282.7989 L253.845 283.0716 L254.1128 283.3392 L254.6587 284.4088 L254.6665 286.5714 L255.4982 290.6136 L255.4973 290.8866 L255.5034 292.2389 L254.9695 293.3058 L253.8964 294.3863 L253.6295 294.9445 L254.1639 296.0096 L257.423 298.9557 L259.5835 300.5624 L260.6631 301.3738 L260.3966 302.1852 L260.1291 302.7263 L259.3305 303.5357 L257.1699 302.1983 L256.3558 301.9144 L255.8145 302.2001 L255.5484 302.1991 L254.4684 302.2003 L253.6622 302.1999 L252.0343 301.4041 L249.6083 300.3362 L248.2611 300.0663 L246.9148 299.8096 L246.101 299.2856 L245.8275 297.6623 L245.0134 297.4075 L243.3999 297.9494 L242.3212 299.0298 L241.7996 300.3831 L241.8003 300.9225 L240.7192 300.6538 L240.1848 300.924 L240.7248 301.7357 L241.8136 303.0713 L241.8115 303.3433 L242.0852 304.154 L242.8998 305.7604 L244.2526 306.8425 L246.4124 307.6231 L246.9451 308.1642 L246.6918 309.2461 L246.9662 310.596 L246.699 311.1372 L245.891 311.1396 L245.3521 310.8675 L244.8112 310.0719 L244.2654 309.7864 L243.7321 310.6127 L242.9248 310.6115 L242.1121 309.7858 L241.5781 309.8158 L240.7709 310.3577 L240.5026 310.6287 L239.692 310.0863 L238.6053 308.479 L237.7847 306.8726 L237.2445 306.3302 L236.4374 306.06 L235.9022 306.6031 L235.9042 307.4127 L236.9968 309.8324 L237.0034 311.1841 L236.2096 313.8865 L235.6751 315.7642 L235.6831 316.3046 L235.4215 318.1962 L235.6954 319.2635 L236.2341 319.8046 L237.8582 320.0874 L238.1278 320.6005 L237.8625 321.9508 L238.6752 323.0331 L238.9547 324.3697 L239.5 325.4501 L240.5817 326.2456 L242.1943 326.7729 L243.0077 327.5824 L243.2771 328.3813 L242.4802 329.4605 L242.4809 329.7426 L241.4127 331.6371 L241.6874 332.4315 L242.4998 333.2278 L242.7723 333.7679 L242.5006 334.0526 L241.1596 334.3214 L240.6187 334.8639 L239.8185 336.2138 L239.2848 336.2147 L238.4719 336.2134 L237.6721 337.5801 L236.864 338.6465 L235.2634 339.4575 L234.7223 340.0121 L234.7305 340.5523 L235.5361 340.8091 L236.6107 340.8083 L238.4921 339.7111 L239.0308 339.983 L239.5782 340.7914 L239.0431 341.603 L238.7704 341.8745 L237.4308 342.4134 L236.8959 343.2251 L237.1703 344.5738 L236.6364 344.8438 L235.5552 344.3055 L235.0166 344.3195 L234.4825 345.1151 L234.762 347.0055 L235.582 349.4217 L235.8545 349.9616 L234.5084 349.9615 L233.4339 350.517 L233.4397 351.8543 L233.7134 352.6639 L233.9869 353.9993 L234.5345 354.5384 L236.681 355.065 L239.9149 354.5243 L240.9827 353.1733 L241.7827 351.5383 L242.3154 350.9986 L243.6637 350.7274 L246.8916 350.9815 L247.1633 350.9826 L253.347 349.8712 L255.766 349.0628 L256.0338 348.7754 L257.6481 348.5055 L258.9942 348.5063 L259.2607 349.0462 L259.5408 349.8405 L259.2677 350.3808 L258.1937 350.3979 L256.5794 350.6677 L256.3122 351.2083 L256.3129 351.7471 L257.1323 352.0188 L259.2806 352.0013 L259.8083 352.2571 L260.893 352.7987 L261.9743 353.0685 L263.0545 352.526 L263.308 350.6377 L263.0357 349.8408 L260.6106 348.4991 L260.0622 347.4245 L259.7875 345.8058 L260.0501 344.7234 L261.3946 344.1845 L263.2769 343.9131 L265.4304 344.1687 L266.5158 345.2494 L267.0573 345.503 L267.589 345.5051 L268.1298 345.5057 L271.1105 350.8773 L272.7303 351.9416 L273.2777 353.2767 L273.8174 354.3575 L274.624 354.3592 L274.6246 353.5478 L274.8902 352.4677 L275.4242 352.1982 L275.4265 352.2123 L275.6976 353.547 L275.4379 354.6273 L274.9042 355.6922 L274.6402 356.79 L274.6412 356.8032 L274.6439 357.5838 L275.4452 358.6626 L275.7301 359.1872 L275.7211 359.1971 L275.4573 359.4584 L274.9169 359.4746 L274.3764 359.1884 L273.5708 358.3922 L272.4845 357.8531 L271.4083 357.5991 L270.0692 357.8679 L267.6475 358.694 L266.8483 358.6936 L265.2268 358.44 L262.7993 357.3737 L261.9933 357.1034 L261.1867 357.6443 L259.0332 357.6579 L257.1451 357.3905 L256.8793 357.3896 L255.2656 357.1338 L252.8379 356.068 L251.4922 355.7984 L249.3444 356.6238 L246.1161 357.7186 L243.4404 359.3398 L241.2877 360.704 L241.0207 360.9588 L239.6797 361.7857 L234.5852 364.5008 L231.9037 366.6597 L231.1035 367.7557 L229.7623 369.3602 L227.6152 370.4551 L227.0935 372.6161 L227.0988 374.4734 L227.6405 375.0287 L228.4466 376.1092 L228.4598 376.636 L227.9201 377.1743 L226.5795 377.4591 L221.4638 376.141 L219.8394 374.5341 L219.2966 373.7259 L217.6845 373.7412 L216.6056 374.5496 L213.3948 376.981 L212.0563 377.7888 L211.5147 377.8047 L211.248 377.2656 L214.7302 374.2806 L214.99 373.487 L215.2566 372.9466 L215.5242 372.9446 L215.79 372.6766 L217.1437 372.9304 L218.2129 371.8501 L218.7398 370.781 L218.7469 370.7739 L219.2643 370.2438 L219.8108 369.6897 L219.8197 369.6797 L221.147 367.8002 L222.2141 366.1803 L223.2753 363.4803 L223.2745 363.2273 L223.2625 361.3357 L222.9876 360.2564 L222.4491 359.716 L221.6366 359.1894 L219.7489 358.9198 L218.6747 358.3955 L218.4017 358.1246 L218.1349 357.5853 L218.9354 356.5057 L218.9295 355.9799 L218.3877 355.4412 L217.8488 355.4385 L216.7748 355.6965 L215.968 355.4391 L215.1535 354.9153 L214.6138 354.1051 L214.6148 353.8493 L213.5293 352.2284 L213.5223 351.6895 L214.3278 351.4202 L214.8693 351.1475 L214.8622 350.8775 L213.5161 350.0833 L213.5092 349.5443 L214.0426 348.1937 L214.0291 346.0316 L213.2165 345.236 L212.4037 344.4404 L211.0632 343.9153 L209.4426 343.6441 L208.6352 343.9162 L208.3684 344.726 L208.6425 345.5357 L210.5299 346.0608 L210.5348 346.8715 L210.2689 346.8708 L209.4616 347.1429 L208.382 346.6026 L207.3083 346.8861 L206.5022 347.6971 L205.9731 347.6977 L205.6881 346.9007 L205.4046 346.0842 L204.8804 345.8235 L204.0687 345.8359 L203.2671 346.6461 L203.2674 346.903 L201.9273 347.7276 L200.5863 348.539 L199.5125 348.2681 L198.4318 348.0128 L197.8868 346.9466 L198.1383 344.7849 L198.1454 344.7777 L198.4133 344.515 L199.486 344.5161 L200.8326 344.7721 L202.1811 345.0254 L202.4457 344.4871 L201.8935 343.1506 L201.8943 342.609 L201.8951 341.7984 L201.348 341.0038 L201.0783 340.1933 L201.0747 340.1782 L201.6147 339.9248 L202.4138 338.8434 L202.1356 337.7617 L202.669 336.4107 L202.663 335.3466 L201.8561 335.3461 L200.5154 335.6162 L198.9012 336.7119 L198.3686 337.5213 L197.5611 338.3316 L196.2271 339.4136 L194.8923 341.844 L194.3588 342.1146 L193.2782 342.1162 L192.4724 342.1291 L190.0518 343.2246 L187.9037 343.5105 L186.8238 342.7018 L185.7429 342.4467 L185.4771 342.4462 L184.6703 342.7149 L184.1434 344.0662 L183.3416 345.4184 L182.5363 345.9572 L183.0807 347.0391 L183.0894 347.8481 L182.0204 349.1986 L180.6797 350.0106 L177.718 350.2957 L175.5722 350.5794 L175.0259 350.0382 L174.7521 348.7041 L175.0123 347.8939 L176.887 346.799 L179.0343 345.449 L179.561 344.0977 L178.7487 343.2869 L178.4804 343.0322 L177.4009 343.0473 L175.2598 343.5872 L172.8402 344.411 L170.6846 345.2381 L170.4179 345.4934 L169.0777 345.7932 L167.191 345.5229 L165.0318 344.4574 L164.4907 344.1891 L162.3431 345.014 L160.4563 345.0335 L159.6498 345.0422 L160.4357 342.3425 L160.1715 342.0703 L159.0973 342.6108 L158.5623 343.4224 L157.223 344.5172 L156.1548 345.058 L154.8156 345.3424 L154.2748 345.6122 L154.0138 346.9798 L154.2883 347.5034 L155.0937 348.0314 L156.168 347.7598 L157.5148 347.2041 L158.589 346.9325 L161.8364 349.0638 L162.3804 350.4012 L162.1417 354.4359 L162.6804 355.2483 L162.9666 356.8514 L162.7006 357.6613 L162.7136 359.552 L161.3664 359.553 L159.4861 359.3122 L162.7118 359.8236 L163.2525 359.8229 L163.7926 360.3468 L163.8057 361.4273 L163.2665 361.6977 L161.9238 362.5081 L160.3177 363.3321 L158.9839 364.6822 L157.9275 368.1947 L157.662 368.4631 L157.1491 371.4352 L157.1461 371.4453 L156.6194 372.7829 L155.5461 373.5919 L154.7519 375.4812 L155.8455 377.6252 L156.9179 377.072 L157.0098 377.0731 L157.4526 377.0711 L157.7259 377.6101 L156.6642 378.9605 L156.0582 379.9834 L155.8637 380.312 L155.8047 380.7522 L155.6109 382.1845 L156.151 383.0056 L156.69 383.2641 L157.4984 383.2489 L158.098 382.8163 L159.3721 381.8987 L161.2381 379.7411 L162.5813 378.9152 L163.654 378.8995 L165.26 379.1713 L165.5466 379.1706 L166.3409 378.9014 L166.3337 377.8216 L166.0609 376.7413 L166.3222 375.9327 L167.1096 374.0423 L166.8432 373.2477 L166.0299 372.4367 L166.2963 371.9127 L167.0978 371.0865 L167.9041 370.8176 L168.984 371.6133 L169.7903 371.6132 L170.5911 371.0716 L171.1242 370.2636 L171.6596 368.9115 L172.9926 367.8175 L174.5997 366.7383 L175.9417 366.453 L177.5613 366.7061 L178.9093 367.5167 L179.7276 369.1214 L180.0063 370.9796 L179.2072 372.0763 L179.1995 372.0872 L178.4078 373.1562 L178.1393 373.443 L175.9918 374.5224 L175.4645 375.0617 L174.6779 378.3002 L172.8084 380.7446 L171.7355 381.8096 L170.6688 382.0939 L169.8612 381.8244 L168.7737 381.0314 L167.9735 381.3004 L167.9807 382.3802 L168.2596 383.7292 L168.5333 384.7934 L168.5389 385.6033 L168.0059 386.1425 L167.4723 386.3588 L166.6669 386.6817 L166.3222 387.0406 L166.1331 387.2367 L166.0429 387.2822 L165.0584 387.7755 L164.5341 388.5771 L163.9963 389.3977 L163.4767 392.3633 L163.3299 392.6607 L162.9491 393.4268 L162.6875 394.5074 L164.0407 396.1268 L164.0474 396.9205 L163.494 397.8534 L163.247 398.2713 L162.9859 399.0796 L162.3474 399.727 L162.1858 399.8895 L162.0456 400.0387 L161.9195 400.1735 L160.5791 400.984 L158.4378 402.0627 L157.0672 402.7726 L156.2966 403.1703 L154.1571 404.5188 L153.3498 405.059 L152.8217 406.1381 L153.0866 406.6624 L153.0949 406.6767 L153.6363 406.6768 L154.074 406.7827 L154.7082 406.9333 L154.7143 408.0113 L154.4472 408.5507 L154.2062 408.6508 L153.1139 409.1061 L152.7819 409.4409 L152.58 409.644 L152.586 410.4535 L156.3478 410.4092 L157.689 410.4089 L157.9149 410.628 L158.2286 410.9321 L157.695 411.4868 L157.1667 412.2971 L157.6519 412.5369 L157.7083 412.5658 L158.5078 412.2968 L160.6366 410.392 L161.9832 409.8383 L163.0574 409.5682 L164.4037 409.8237 L165.2101 409.5391 L166.8115 407.9208 L168.1531 407.38 L170.0271 406.8412 L170.5736 408.1751 L170.5802 408.9687 L170.0527 410.8577 L166.8688 416.7912 L164.996 418.1522 L165.0211 421.1059 L163.9546 422.1823 L161.0071 423.8001 L153.7761 426.5566 L154.0499 427.6196 L156.4813 429.2227 L155.1481 430.5698 L154.6149 431.1244 L153.2744 431.9336 L151.1263 432.2176 L149.779 431.6934 L149.4997 430.0777 L149.7538 428.2046 L148.6786 428.2056 L148.1404 427.9642 L148.14 427.9475 L148.1392 427.1422 L147.5991 426.3341 L146.5188 426.348 L144.1183 428.775 L138.2295 431.2152 L136.9012 432.8629 L136.3661 433.6718 L132.8859 434.7638 L132.6316 436.3804 L133.1853 439.3303 L132.3972 440.9479 L132.6642 441.2174 L134.5556 442.0114 L134.549 442.2664 L134.2889 443.0907 L132.155 444.437 L128.1465 447.4306 L124.9179 446.3683 L123.3104 446.6523 L121.716 449.0941 L117.7318 454.2281 L117.7462 456.0975 L118.8217 457.164 L118.8342 457.1691 L120.4463 457.6839 L121.5131 457.1448 L120.6997 456.6204 L120.9657 455.8132 L125.2418 453.3583 L127.6504 452.2667 L128.4396 450.3786 L130.0275 448.2332 L134.0406 446.0391 L136.1713 443.0739 L138.5719 441.172 L141.253 440.618 L143.3886 438.7159 L144.7347 438.4471 L146.3351 437.8942 L153.3178 438.3731 L153.8532 437.8327 L153.5795 436.77 L154.3801 435.9617 L157.0675 436.469 L160.0143 435.648 L160.2873 436.1864 L156.8121 438.3574 L155.4849 440.2446 L152.2757 442.6845 L151.7495 444.0318 L152.2958 445.0959 L154.9898 446.4126 L156.6079 448.0059 L157.4161 447.7439 L157.144 446.9506 L158.2109 446.1272 L158.4535 442.3691 L158.9857 441.8307 L159.7865 441.0226 L165.9289 436.4112 L166.997 435.3325 L166.9912 434.2552 L164.8296 433.175 L164.826 432.1118 L169.1144 431.0192 L169.659 431.8145 L170.1924 431.2891 L170.9945 430.7335 L172.0613 429.3854 L172.321 428.3084 L171.7806 427.5243 L171.7745 427.5157 L169.7683 428.06 L167.7593 428.594 L164.5321 428.8918 L162.124 429.4472 L170.6368 417.8389 L170.3455 414.3634 L172.9944 408.4295 L174.3293 408.1442 L175.409 407.3207 L176.4761 406.5127 L177.0104 406.7805 L177.83 407.8439 L178.6365 408.3857 L179.9705 408.1163 L180.5171 407.8438 L181.0372 405.9573 L182.1131 404.8626 L183.1843 404.5946 L186.4056 404.3089 L186.9399 404.0397 L188.5544 403.4845 L189.8948 404.0091 L191.5224 405.8806 L192.874 406.9464 L194.4897 406.9294 L196.0953 406.6613 L198.2497 407.7257 L200.1368 407.7098 L201.2041 407.1708 L201.2029 406.9013 L202.8114 406.0778 L204.4248 406.076 L205.4994 405.8069 L206.2998 405.5349 L206.2998 404.7126 L206.0211 403.6484 L205.7468 402.0296 L206.0137 402.0312 L206.8264 402.8386 L207.6403 403.093 L208.9734 402.5549 L209.7802 402.5397 L210.3148 402.8247 L210.3158 403.3628 L210.0554 403.9031 L209.5283 404.9667 L209.7938 404.9674 L211.4014 404.6971 L212.4828 404.681 L215.7102 405.7449 L217.3217 406.2712 L218.1297 406.2571 L218.4031 406.2554 L221.0909 406.2539 L224.8406 405.6851 L227.8011 405.4006 L228.8813 405.6693 L231.028 405.6552 L232.1015 405.3858 L233.7151 405.6413 L235.0619 406.1805 L236.9495 406.9726 L237.4886 407.5136 L237.4897 407.7831 L236.6837 408.8608 L236.1564 409.1305 L234.0075 409.9405 L232.6668 410.2118 L232.1333 411.3037 L233.2146 412.0983 L235.1011 413.1624 L235.102 413.7004 L234.5667 414.2411 L232.9601 415.0484 L232.7003 416.9364 L232.166 418.0151 L231.3713 419.3652 L231.1055 419.6327 L230.299 420.1724 L227.89 421.7909 L226.5491 422.5991 L225.7548 423.9492 L225.4823 424.2324 L224.6827 424.2318 L223.3341 423.708 L218.7666 423.7246 L217.1514 424.0092 L216.0904 425.3576 L215.0185 426.4335 L213.677 426.7043 L212.6032 426.9898 L211.2635 426.4648 L210.4499 425.6569 L208.5372 420.5641 L207.9969 419.4858 L207.4566 418.9612 L206.6497 418.9597 L206.1231 420.3081 L205.5882 420.8491 L204.5153 421.1191 L203.9739 421.1183 L202.6468 422.4823 L203.1811 423.5435 L203.2073 427.288 L202.9463 428.3973 L202.1401 429.2057 L202.4188 430.2692 L202.4252 431.0792 L203.7666 431.6011 L204.3127 431.8863 L203.7718 432.1418 L202.6917 431.6176 L201.0838 431.887 L200.8241 433.5051 L202.1614 434.2924 L202.1705 434.2908 L212.3747 433.984 L213.7159 433.1597 L215.3228 432.6215 L216.9436 433.6835 L218.0165 433.9385 L218.2838 433.9366 L219.3578 433.668 L220.1642 433.938 L220.4386 434.7301 L219.9036 435.5391 L220.4439 436.0805 L220.9845 435.8084 L223.3916 434.1771 L224.4598 433.9084 L226.6065 433.0854 L226.874 432.2905 L227.6754 431.7349 L229.2811 431.7207 L230.8949 431.7208 L231.1625 431.4506 L231.7035 431.72 L232.783 432.5132 L234.1236 432.5151 L234.923 431.7061 L235.7315 431.4203 L235.9901 430.0734 L236.5312 429.8182 L237.3386 430.0728 L237.5999 430.3475 L237.6087 430.3581 L237.8771 431.6916 L238.1513 432.4838 L238.6912 432.484 L240.0305 432.4851 L242.1859 433.8174 L243.2593 433.8009 L248.0884 432.1698 L248.3557 432.168 L256.1394 429.9827 L257.213 430.2517 L257.7516 430.5074 L257.7521 431.5865 L257.491 432.3945 L256.9585 433.2013 L255.3506 434.027 L253.7434 435.1054 L252.9433 436.1822 L252.4084 438.0697 L252.4209 439.9382 L252.4277 439.9515 L252.6954 440.4789 L253.5006 440.4803 L255.1092 440.4652 L256.7228 440.4662 L258.0634 440.9895 L258.3306 440.9878 L259.1436 441.528 L260.224 443.1285 L260.7656 443.6675 L261.5766 443.6691 L262.9057 442.3207 L263.9722 441.2293 L265.8544 440.6886 L267.1931 440.9587 L268.8139 442.8292 L269.3555 443.0832 L270.1616 442.8128 L270.1553 442.275 L269.8819 440.9415 L270.6877 440.3897 L271.2211 439.5962 L271.2158 438.7864 L271.215 438.5171 L268.5274 437.994 L265.0342 437.7377 L264.766 437.4701 L264.7606 436.6603 L265.5605 435.8519 L265.5609 435.3273 L265.02 434.2515 L265.8213 432.9026 L265.8094 432.0962 L265.8105 432.0804 L265.5413 431.2871 L267.4226 430.7454 L269.0292 430.7456 L271.4441 429.9229 L273.3307 430.4477 L274.4042 430.717 L275.2052 430.1781 L274.9253 427.2268 L274.9191 426.4326 L274.9195 426.4205 L274.6529 425.8769 L274.6534 425.6085 L274.6465 424.2596 L274.6457 423.184 L274.9067 422.388 L274.9056 421.5808 L274.9009 420.2458 L274.6277 419.962 L274.0917 419.708 L272.7457 419.1678 L271.6661 418.8982 L271.1269 418.1044 L271.1252 417.5655 L271.3922 417.026 L272.4655 416.7575 L273.2721 416.487 L273.2674 415.4082 L273.8003 415.1223 L274.3346 415.1228 L274.6073 415.125 L275.4139 414.8546 L275.9483 414.3133 L276.4812 413.5063 L276.2155 412.7109 L275.6745 412.4408 L274.8675 412.1734 L274.8628 410.5528 L275.3954 410.0142 L277.542 409.7459 L277.8165 410.5519 L278.356 411.3628 L278.8958 411.3467 L279.1637 411.0765 L279.1566 410.2688 L278.6167 409.2053 L277.5351 408.3964 L276.9961 407.6024 L278.0707 407.0617 L278.6086 407.0483 L279.6838 408.1255 L280.5035 409.9991 L280.7707 410.5392 L281.844 410.2541 L281.8446 409.7292 L281.2989 408.38 L281.5632 406.4938 L281.0244 406.4942 L280.4848 405.9685 L281.552 404.8887 L283.972 404.8755 L284.5183 404.62 L284.5065 403.5398 L284.7725 403.2723 L285.579 403.2706 L286.3865 403.5261 L286.9328 405.145 L287.4658 405.1446 L288.0067 404.6204 L288.813 404.5897 L289.621 405.127 L289.8936 406.2091 L290.1542 407.0177 L290.9678 407.0171 L292.0403 406.4627 L292.315 406.4624 L293.6547 405.6538 L295.5289 403.7659 L296.3302 402.4156 L296.8639 402.1468 L298.7506 402.9414 L299.5578 403.2094 L300.0987 404.8124 L301.1781 406.1626 L302.2507 407.2346 L302.2587 407.2405 L302.7983 407.51 L303.8717 406.6874 L306.0191 405.8786 L306.5533 405.6061 L306.5526 404.7986 L305.7392 403.4662 L306.0069 403.1794 L307.6201 403.4666 L308.4288 403.9884 L309.2339 404.2592 L309.5023 403.7038 L309.5007 403.4501 L309.2284 401.2915 L310.3017 401.2924 L311.649 401.5616 L312.1814 401.2919 L312.7223 400.7512 L312.7157 399.9433 L309.7537 397.8002 L308.681 398.069 L307.6065 398.3404 L306.7956 397.2748 L304.9072 395.4023 L304.9061 394.5776 L305.44 394.0523 L305.1685 393.5126 L304.9003 393.2445 L304.895 392.7024 L305.4332 391.8946 L306.5012 390.8148 L306.7677 390.2909 L304.6206 389.7511 L301.3865 388.9566 L300.313 388.1611 L299.2334 387.6221 L297.0794 386.8128 L295.1989 386.826 L294.3841 386.0185 L294.1109 384.9395 L293.8391 383.6049 L293.8399 382.794 L294.1041 381.4609 L294.0984 381.1752 L294.6323 380.1112 L295.9738 379.0296 L295.9673 377.1408 L296.7747 376.8704 L297.8485 376.871 L299.1943 377.1259 L300.5416 377.1252 L301.0689 376.5863 L300.535 375.5218 L300.2676 375.2377 L298.9204 374.9818 L298.3805 374.7122 L298.3815 373.9012 L298.6488 373.6468 L299.988 373.6318 L300.8022 373.6315 L300.7961 373.0928 L300.2598 372.3081 L300.2511 372.2975 L299.981 371.4729 L300.2484 370.9329 L300.522 370.9316 L301.0562 370.4059 L301.5894 369.8671 L302.6703 369.8522 L303.4838 369.5821 L303.7421 369.0436 L303.7374 368.2323 L303.1903 365.2938 L303.4582 364.4681 L303.7234 363.9428 L303.9908 363.6594 L304.7972 363.3881 L305.6115 362.5925 L306.1378 362.0525 L307.2119 362.0242 L308.5585 361.2275 L309.0992 361.2285 L310.1733 361.768 L310.713 362.021 L311.5195 362.0234 L312.5942 361.4819 L313.1345 360.9564 L313.1303 360.9451 L311.2335 356.3676 L310.9601 356.112 L310.4209 353.9655 L310.4167 353.9541 L309.8736 352.6169 L310.1334 349.1201 L310.1281 348.0386 L309.8676 347.7676 L309.3215 347.4975 L308.7801 348.039 L308.5216 349.929 L308.2538 350.4692 L307.9871 350.9936 L307.9921 353.1562 L307.7264 353.9673 L307.1935 354.776 L306.1127 354.5052 L305.8391 353.1723 L305.8395 352.0911 L306.0992 350.741 L305.8327 350.4698 L305.0189 350.2012 L304.7524 349.9301 L304.4789 349.1358 L304.7435 348.0668 L304.7458 348.052 L304.739 346.7041 L304.4667 345.0982 L304.7331 344.0181 L304.7324 343.7481 L304.7283 343.2063 L304.1866 342.3965 L302.5674 341.3309 L302.0257 339.7253 L302.5603 339.1702 L303.3677 338.6298 L304.714 338.3583 L305.7939 338.6282 L307.1348 338.8834 L307.9478 338.629 L308.4815 338.0899 L308.4821 337.5473 L308.2103 337.0068 L308.2082 336.1969 L308.4694 335.9252 L309.8225 336.1977 L311.1633 335.6402 L311.9708 335.0999 L312.7822 335.1015 L313.5828 334.5767 L313.8563 334.0197 L314.1108 332.6857 L314.923 332.1445 L316.805 331.5884 L318.6917 330.5214 L319.4916 329.1708 L319.7658 328.3446 L319.2187 327.551 L318.945 326.7393 L319.2063 326.1939 L319.2126 326.1819 L320.0184 326.1835 L321.0999 326.737 L322.1804 327.5344 L323.7995 327.535 L326.4876 326.7069 L327.0286 326.7082 L327.0266 327.25 L325.9534 328.0589 L325.1474 329.4092 L325.1531 330.2222 L325.1543 330.7623 L325.9513 330.7617 L325.9605 330.7601 L328.6533 330.2221 L329.4613 329.9352 L329.4548 329.6649 L329.7273 328.8706 L330.528 327.7901 L331.0692 327.5177 L331.6088 328.584 L332.1491 328.8543 L332.6891 328.3156 L333.7566 326.1668 L334.5558 325.3423 L335.3688 325.0715 L337.2564 326.4074 L338.3359 326.4082 L339.1446 325.8812 L340.2162 324.8015 L340.4775 323.7207 L340.4787 322.1117 L340.2097 321.8176 L339.132 321.2871 L337.5174 321.302 L335.363 322.3828 L333.75 322.399 L332.4027 322.6529 L331.5951 323.2099 L330.783 322.909 L329.9814 323.4663 L329.4419 323.209 L329.4351 322.1295 L330.5093 320.7777 L331.5892 320.5213 L332.9287 319.411 L334.5496 319.6951 L335.6233 319.6955 L335.8902 319.1541 L335.6245 318.6134 L334.8098 318.074 L333.4643 317.5326 L332.3906 318.0883 L331.8493 317.8048 L330.7627 317.8198 L330.2356 318.8994 L329.9693 319.155 L329.4279 318.9005 L328.3485 318.3608 L327.5427 318.3592 L326.2026 319.7098 L325.9293 319.981 L325.3889 319.7107 L325.3894 318.9145 L325.3805 317.5637 L325.3813 317.2946 L325.3815 316.4816 L324.835 315.1445 L323.4815 312.7265 L322.1296 310.0233 L321.582 306.7932 L321.8484 305.4419 L322.1113 304.1212 L322.113 304.11 L322.9162 302.2128 L322.9094 301.415 L322.6431 301.1313 L322.3698 301.1288 L320.7554 300.3356 L320.2161 299.7922 L321.2898 298.9827 L321.823 298.185 L321.5496 297.3606 L321.01 295.7503 L320.7373 293.872 L320.9951 292.518 L320.9969 292.5069 L322.6212 292.5104 L323.692 290.3408 L324.2229 289.2755 L324.4909 289.2742 L324.7646 290.6262 L324.7711 291.4074 L324.7714 291.4242 L324.7712 291.9637 L325.5777 291.1518 L326.3838 289.5299 L326.9185 288.7331 L328.5328 288.1771 L328.8049 288.1787 L329.878 288.1781 L331.7714 288.7043 L333.1193 288.9897 L334.733 288.7034 L335.0062 289.2456 L336.0872 289.7701 L337.1657 290.056 L337.7016 289.2434 L338.239 288.9594 L339.594 290.0393 L341.2078 290.8371 L343.3684 291.6486 L345.7957 291.6482 L346.6017 291.1059 L346.3276 290.297 L345.7884 289.7532 L344.7078 289.2454 L343.0932 289.2443 L342.0143 288.6879 L340.9333 287.6069 L339.8542 287.0796 L337.9613 286.2668 L336.8792 285.2016 L336.0731 284.6601 L334.4528 284.1194 L333.6408 283.5778 L332.8319 282.2412 L332.8255 281.9707 L332.2804 279.2631 L331.4672 277.67 L331.1935 274.6933 L330.9216 274.1519 L330.1121 273.6121 L329.2999 273.6271 L328.2262 274.1676 L327.9522 274.1687 L327.147 274.1681 L326.6002 273.8972 L325.7932 273.0854 L324.1732 272.558 L319.585 270.1385 L318.5059 269.8818 L316.0775 269.8837 L315.2657 269.6126 L314.7262 269.0857 L314.4561 268.0017 L314.4519 267.9903 L314.4522 267.733 L314.4515 267.4625 L313.378 266.6495 L313.3645 265.8545 L313.091 265.3121 L312.0193 264.7705 L311.4717 263.6893 L310.6593 262.8906 L308.2314 262.366 L306.8776 261.554 L306.3383 260.7408 L305.7846 257.5077 L305.6869 257.0202 L305.5055 256.1844 L305.5125 256.1688 L306.5859 255.0706 L306.8581 255.072 L308.7516 254.5457 L313.0459 250.739 L313.313 249.6564 L310.0594 244.014 L308.9727 242.3892 L308.701 242.1181 L307.893 241.5925 L305.4596 240.5077 L303.56 238.8985 L302.2142 238.3711 L301.6721 237.8299 L301.9396 237.0174 L301.9348 236.2035 L300.5865 235.9486 L301.382 234.0502 L301.3905 234.0439 L302.1938 233.5102 L303.8154 233.2395 L304.0865 233.24 L305.1673 232.9693 L305.7541 232.3631 L305.9754 232.1399 L306.7814 232.1401 L307.5952 232.4123 L308.4022 232.9371 L309.4811 233.2096 L310.0221 232.4118 L310.8284 232.1255 L311.3691 232.666 L312.4554 233.48 L313.2617 233.1939 L313.8027 232.396 L314.3356 231.5839 L314.61 231.5828 L315.9554 231.0418 L317.3096 232.6526 L318.1234 232.6506 L318.6571 232.1091 L319.1966 231.5679 L319.7358 231.8246 L320.2765 231.8248 L320.8035 230.767 L321.3556 230.7714 L322.9778 231.8237 L323.7838 231.8243 L324.0568 231.2817 L324.0563 231.0111 L324.0514 229.3859 L324.8568 229.1158 L326.7496 229.3868 L327.8315 229.6412 L328.0976 229.1142 L327.284 228.3012 L327.0104 228.0326 L327.5509 226.9473 L327.8181 225.3357 L328.0776 224.7954 L328.178 224.8862 L328.3654 225.0496 L328.6258 225.5912 L328.6314 226.4063 L328.364 227.4896 L328.631 227.7617 L329.1705 227.761 L329.7107 226.9332 L330.5187 225.8624 L331.3243 225.0519 L333.2127 225.0496 L334.5658 225.3047 L335.6528 226.661 L335.92 227.187 L336.9984 227.1894 L337.5402 226.6457 L339.425 225.8341 L339.9668 225.2903 L340.2322 224.2219 L340.233 223.3948 L339.6872 220.9698 L339.6867 220.6991 L341.3012 220.1575 L342.9208 219.8861 L343.4607 219.3449 L343.4564 218.2768 L343.4537 217.4635 L343.4537 216.906 L342.6469 216.3803 L342.1009 215.8354 L341.8268 214.7674 L341.8232 214.7523 L341.5542 213.9543 L342.9069 213.685 L343.1801 213.654 L343.9876 213.1274 L344.5206 211.5159 L345.3273 210.7015 L346.9613 210.9732 L348.0279 209.6186 L349.6479 209.3473 L351.5414 209.8734 L352.8874 209.874 L354.7821 209.0444 L355.5902 208.7888 L357.4828 210.9419 L357.7558 211.2145 L358.0293 211.4834 L358.5674 211.7566 L359.3757 210.9435 L360.182 209.5878 L360.1886 208.5189 L360.7159 207.4188 L362.3364 205.8078 L363.9562 205.52 L367.1956 204.1659 L369.0827 203.3682 L369.6212 203.367 L369.3571 204.9785 L369.9037 205.791 L370.7102 206.5918 L370.9833 206.59 L372.3301 207.1329 L374.4909 207.6747 L378.2771 209.2867 L381.5255 211.167 L381.5257 211.4379 L382.8715 212.5216 L387.7384 214.9473 L391.792 216.559 L392.3316 216.559 L393.945 217.1005 L398.8139 218.4385 L401.5135 218.9815 L401.5127 219.7929 L401.5063 219.8048 L401.2459 220.3363 L400.1651 221.1343 L399.3606 221.4042 L396.3855 220.8778 L396.1185 220.8798 L395.5791 221.1505 L393.6858 221.405 L392.339 221.1483 L390.4449 220.066 L389.3653 219.5245 L388.0188 219.8095 L385.5848 219.8095 L383.4248 219.538 L383.1504 219.5388 L380.4571 219.5386 L377.7582 220.908 L375.3295 221.1663 L373.4356 220.9091 L369.6552 220.3673 L369.3888 220.911 L369.6566 221.4502 L371.0033 222.2637 L375.3303 223.0606 L378.3035 223.5883 L378.57 223.59 L381.0036 224.4177 L382.6241 225.2137 L382.6247 225.7552 L381.0039 227.6391 L380.2033 230.3466 L379.9371 233.312 L380.4779 234.6652 L381.0181 236.276 L382.3707 237.631 L383.1846 237.9007 L383.9909 237.3451 L384.5302 236.2756 L383.4438 234.6515 L382.9035 232.7701 L382.6312 230.6167 L382.6296 228.9925 L382.8964 227.3672 L384.2445 225.7558 L385.3236 224.6569 L386.4036 224.4161 L388.5652 224.3852 L391.2587 224.9273 L391.5311 224.9293 L398.0126 226.5544 L400.7114 227.0804 L402.059 227.0797 L403.1391 226.5395 L403.4134 226.5388 L404.494 225.9949 L406.6528 224.9136 L408.5399 224.9133 L410.9804 225.4525 L412.5936 225.7115 L413.4009 225.1816 L413.9395 224.898 L413.9401 224.3697 L412.861 224.0984 L412.0469 223.5574 L412.321 223.0152 L412.5861 222.7454 L414.208 222.7444 L414.4809 222.2013 L414.2085 221.4038 L413.4005 221.1046 L409.3457 221.1345 L407.7267 220.5923 L406.1061 219.7784 L404.7599 219.78 L403.6732 219.237 L403.4063 218.1689 L403.9472 217.0832 L405.5657 216.2713 L406.9121 215.7451 L408.2609 215.7287 L413.1275 217.6248 L414.4734 218.1687 L415.2885 217.8816 L417.4545 217.0679 L417.7138 217.0686 L418.5277 216.5268 L420.9547 216.5273 L423.9221 216.8122 L424.7362 216.8121 L425.2758 216.2709 L425.8154 215.7297 L425.5483 214.0861 L424.4618 211.9344 L423.922 211.3924 L422.8414 211.1368 L422.5749 211.1349 L421.4936 211.1369 L420.6813 210.3219 L420.4147 209.2535 L420.4141 207.6116 L418.7875 205.7303 L417.9823 205.1873 L416.6272 204.9323 L415.5469 205.1894 L413.9282 206.5429 L413.1202 207.3561 L412.0408 207.6264 L410.4139 207.899 L410.1473 207.8972 L406.6386 208.1704 L404.4741 208.4404 L402.5864 208.4409 L400.6924 207.8995 L399.0737 207.0998 L397.719 206.0169 L396.6399 205.2174 L396.3662 204.9313 L395.2851 204.1344 L393.9401 203.8627 L393.3928 203.5907 L392.5851 202.78 L392.5846 200.897 L392.5782 200.3549 L393.1117 199.8129 L393.6591 199.5395 L394.1999 198.9988 L393.393 198.4552 L393.3867 197.659 L393.3864 197.6421 L393.926 197.3713 L396.0925 197.1017 L397.9794 196.846 L399.5995 196.2885 L400.413 195.4873 L400.6805 195.2023 L401.7607 194.4029 L402.8404 194.4032 L404.1928 195.2014 L405.0073 195.2009 L407.4349 194.3877 L407.9748 194.3879 L408.246 194.389 L409.0545 194.3883 L410.4057 194.9317 L412.5665 195.7295 L416.901 197.627 L419.0544 197.8989 L420.1268 197.8983 L420.4132 197.8982 L421.4869 197.8987 L422.2953 197.8982 L424.1874 199.5101 L425.0007 199.7967 L425.5415 199.5103 L425.5377 198.9824 L425.5382 198.9703 L425.0009 197.3548 L425.0008 196.0002 L425.8078 194.3732 L427.1688 194.1159 L429.5874 193.8306 L431.755 195.4724 L432.0222 195.4707 L433.1011 196.2713 L434.1827 196.5405 L436.0767 196.8124 L437.4295 196.812 L439.0491 196.5427 L439.3165 196.2701 L439.4299 196.0458 L439.8551 195.1859 L439.4297 194.6283 L439.0491 194.1165 L437.1491 193.3023 L435.8022 192.7611 L435.8023 191.6773 L436.8826 191.6745 L437.1482 190.5918 L437.1503 189.2342 L437.1492 188.9791 L437.148 187.0812 L437.4287 186.2679 L437.696 185.4532 L439.3146 185.4539 L439.429 185.2886 L439.8556 184.6546 L439.5891 183.5685 L439.5892 182.7555 L440.1284 181.9589 L440.9346 180.8727 L441.7492 180.6018 L442.8279 180.873 L443.364 181.4296 L443.6432 182.2124 L445.5361 183.5679 L445.5341 183.8417 L445.5352 184.3846 L445.2613 185.4532 L445.2626 185.9962 L445.5357 186.5368 L446.0755 186.8084 L446.8839 187.3504 L446.8817 188.437 L446.8759 188.4452 L446.3438 189.2344 L445.5363 190.0483 L445.2619 190.8786 L445.8026 191.4052 L446.8831 191.4028 L447.4287 191.6746 L447.695 193.0314 L446.8827 193.8292 L446.6104 194.1147 L445.5299 194.6591 L445.5308 195.185 L445.5306 195.7269 L446.3418 195.7287 L448.2296 195.4713 L448.2346 195.4583 L449.3166 192.7597 L450.657 191.4035 L451.2087 191.6756 L451.477 192.4878 L452.0168 192.7594 L452.83 192.4878 L453.6375 191.674 L453.6369 190.877 L451.2094 188.9781 L449.8564 188.7072 L449.0422 187.623 L449.0424 187.081 L448.7759 186.5369 L447.9629 185.9957 L447.4231 185.453 L447.4212 184.1129 L447.4232 183.8392 L447.6959 183.8415 L448.5032 183.8405 L449.8561 184.6535 L451.477 184.9107 L452.5556 184.9111 L453.6426 184.3839 L454.9891 183.2987 L456.0771 183.0268 L456.616 182.4845 L457.4224 182.2285 L458.2366 182.4831 L457.9621 182.7713 L456.3431 184.3839 L456.3427 185.197 L456.8822 186.0107 L458.7771 187.3516 L459.5843 187.3508 L459.8554 187.6232 L462.2903 187.6223 L463.9112 188.977 L464.7163 189.2501 L466.8774 190.0637 L467.9585 190.8757 L469.3121 191.4021 L469.5776 191.6912 L471.2038 191.6905 L472.55 191.148 L473.9059 190.062 L475.2576 190.0617 L480.6645 188.9929 L482.5519 187.9058 L483.9047 188.1778 L485.2654 188.7351 L485.5255 188.9912 L486.8786 188.9922 L487.9599 190.6186 L489.0387 191.4337 L491.1999 192.2446 L493.0865 192.5177 L495.2595 192.2446 L495.5189 192.2457 L497.1402 192.5176 L498.2191 192.8032 L499.3065 191.9893 L500.1121 192.518 L500.9206 193.0739 L501.7335 194.1589 L502.8126 194.4156 L503.8927 194.7022 L504.9735 194.4302 L505.7874 193.8886 L506.8677 193.8875 L507.6734 194.1744 L507.6736 194.7004 L507.1352 195.5139 L506.32 196.3132 L506.0551 196.8546 L506.5941 197.3978 L507.9407 197.6701 L510.101 198.7696 L510.6418 197.6826 L509.8347 196.8688 L509.8348 196.0551 L511.9941 194.9881 L512.0 193.3606 L511.46 192.8333 L510.3802 192.2754 L509.035 192.004 L506.8665 192.2758 L504.7063 191.7191 L503.3586 190.6198 L501.1993 189.2794 L499.039 188.481 L496.6044 188.209 L496.0665 188.4639 L494.4458 188.735 L492.8254 188.7351 L491.7443 188.1935 L489.5849 186.2947 L488.7723 185.7528 L487.4185 185.4967 L485.2649 185.4802 L484.1785 185.4816 L483.0975 184.6691 L482.2922 183.3108 L482.2915 183.0557 L480.9438 181.4232 L480.9358 181.4172 L479.592 180.614 L478.2365 180.8869 L477.1559 181.9569 L475.8036 183.8552 L475.2645 184.3973 L473.3711 184.6666 L472.0173 184.3819 L470.6698 183.3134 L469.316 182.2277 L469.3163 181.9567 L469.5836 181.4254 L469.5899 181.4134 L469.5902 181.1424 L470.6707 179.8011 L471.7495 179.802 L474.4501 181.1423 L475.804 181.4272 L476.3442 181.1572 L477.6969 178.9876 L479.0493 178.7164 L479.3231 178.1731 L479.5905 177.1033 L477.9699 175.4767 L477.1646 175.2033 L476.0774 175.7469 L475.8101 175.7484 L474.9965 176.0198 L474.4569 175.4767 L473.3771 174.9327 L471.2168 174.1194 L470.4034 174.1198 L468.7826 174.1208 L467.7026 173.8479 L466.623 173.0329 L466.0752 172.7634 L464.7294 174.1207 L464.1893 174.1198 L463.103 173.0204 L462.2955 173.0211 L461.2032 173.8491 L459.8626 174.1046 L459.5893 174.1059 L458.2417 174.1059 L457.428 174.6486 L457.1562 175.4605 L457.977 177.6306 L457.6974 178.1738 L456.0769 177.3452 L454.9962 176.2754 L452.5627 173.2911 L451.4817 172.4923 L450.6683 172.493 L449.8617 173.0202 L448.5092 173.8345 L447.4289 174.3754 L446.8821 174.9203 L446.6165 175.1903 L445.8027 175.4452 L444.9955 175.7343 L443.6408 175.1913 L443.1008 174.9196 L442.022 177.3468 L441.4818 177.8884 L440.6752 178.1737 L439.856 177.6322 L439.4302 176.9074 L439.0475 176.2771 L438.2361 175.7331 L437.4215 175.7331 L436.0752 176.2769 L434.9951 176.0048 L434.1804 175.4626 L433.1016 175.7337 L433.1016 176.0048 L432.2882 176.5479 L431.4748 176.549 L430.6679 176.0045 L430.1279 175.733 L428.7744 176.2757 L428.2344 176.0042 L427.6942 175.4616 L427.961 174.9215 L427.6942 174.1063 L426.601 173.8498 L426.0686 171.6782 L424.1747 169.7809 L424.1735 169.5257 L423.089 167.6242 L421.4669 165.1988 L420.3865 164.6558 L419.5807 164.1123 L417.9538 164.9283 L417.1408 165.1969 L415.793 164.9271 L415.2467 164.6554 L415.2431 161.6707 L415.2436 161.6586 L414.9809 160.8715 L414.7079 160.0559 L414.4344 160.0576 L413.894 159.515 L410.9193 159.5154 L410.1076 159.5141 L409.5671 158.9715 L407.6732 157.6297 L406.8612 157.0861 L404.9669 157.0872 L403.6127 156.8465 L402.8064 155.7317 L401.9932 155.204 L400.9067 155.2035 L399.5605 155.2025 L399.2858 155.2032 L396.8529 154.4051 L395.2339 154.4022 L390.3665 156.5752 L390.1002 158.4586 L389.5529 159.2747 L389.0128 159.5459 L386.8521 159.8172 L385.7731 160.0894 L386.3126 160.6307 L387.1258 160.9038 L388.7465 160.9037 L390.3659 160.9027 L391.179 161.43 L391.9941 161.7004 L392.5339 161.1581 L393.3456 161.1591 L393.8863 161.7015 L393.8869 163.5864 L394.9739 164.6713 L395.2395 164.6721 L396.3262 165.2147 L397.1323 165.7578 L399.841 165.7557 L401.4595 166.013 L402.8137 166.825 L404.7061 169.2533 L405.2541 170.3391 L405.7875 171.4224 L405.7857 171.6963 L406.3332 172.494 L407.6883 173.0359 L409.8476 173.3068 L410.7911 173.7813 L412.0133 174.4082 L413.093 175.7509 L413.366 177.3625 L413.1069 178.446 L413.3681 179.5318 L413.9062 180.331 L414.721 180.8728 L416.0725 181.1455 L417.1543 180.6013 L417.6945 181.1437 L417.1539 182.4853 L415.7999 183.3153 L415.2611 183.8411 L413.6392 183.843 L412.5613 183.5856 L412.0209 182.5013 L411.7463 182.231 L411.2064 182.5017 L410.666 183.8434 L409.5808 185.1978 L408.5068 185.4685 L406.8868 185.197 L405.5323 184.6722 L403.9126 184.9427 L400.9393 185.1978 L400.6731 185.4839 L398.2401 185.7562 L397.16 185.4851 L395.5337 184.9426 L394.7249 184.6725 L393.1046 185.5014 L390.4005 186.0273 L388.5111 186.3152 L387.1591 186.8553 L385.538 187.6712 L385.2726 187.6704 L383.1125 189.5534 L381.2187 190.0965 L380.4116 191.4525 L379.872 191.7236 L378.7911 191.9937 L377.7051 190.9231 L376.0855 190.0949 L375.271 189.8418 L371.4904 189.3135 L370.4118 188.7693 L370.4115 188.4983 L368.7831 186.331 L368.7849 185.2452 L369.8569 184.4474 L370.9392 183.6322 L369.5845 182.8337 L367.692 181.1915 L366.8776 180.6638 L365.2581 180.4068 L364.9967 180.4092 L362.823 180.1379 L362.2845 179.8645 L362.0105 179.3243 L362.0108 177.9832 L362.0115 177.6963 L362.0112 177.6794 L361.2038 177.6819 L359.8445 177.4386 L358.4918 176.6253 L357.951 176.0836 L358.2185 175.2692 L358.4917 175.0131 L359.5707 174.1992 L361.9977 173.3702 L363.0781 172.5573 L363.8914 171.4717 L363.8919 171.2138 L364.1606 170.6751 L364.1676 170.6594 L364.6989 169.8568 L365.2383 169.3143 L366.0446 168.7734 L366.8508 167.1574 L366.8553 167.1482 L367.3926 165.5164 L367.9326 164.7159 L369.5532 163.6316 L371.9845 162.8181 L373.3388 162.0033 L374.4123 161.1892 L374.6864 160.646 L373.6063 160.9176 L370.8997 161.4609 L368.7398 162.2753 L368.471 162.2764 L367.3866 162.274 L365.7656 162.8331 L363.8716 163.0901 L362.2518 163.6334 L360.3586 164.462 L359.8184 164.4624 L358.7375 165.0045 L357.3857 165.0044 L357.1193 164.4615 L357.6582 164.206 L358.465 163.3778 L359.8062 162.0198 L360.8981 161.7484 L361.1655 161.4919 L360.892 160.9479 L359.5455 160.6768 L358.9998 160.9481 L358.192 161.7632 L357.379 161.7618 L356.0331 161.7621 L354.6787 162.3061 L353.0639 163.1201 L352.7866 163.1192 L349.8104 163.6638 L347.9257 163.949 L346.2987 164.4916 L344.6782 165.3056 L343.8725 165.3057 L343.0571 165.0361 L342.5178 163.6792 L343.0523 162.608 L343.592 162.3363 L345.486 162.6076 L346.0316 162.3361 L346.5641 161.7798 L346.5645 160.7093 L346.8305 160.4228 L346.8309 159.3522 L346.2863 159.0787 L345.7465 159.3504 L345.2103 160.1664 L344.3982 160.7075 L343.8579 160.708 L343.3126 159.3508 L342.7723 159.3513 L342.2372 160.1806 L341.4252 161.251 L340.3448 161.2521 L338.7304 163.9664 L337.9239 166.6777 L338.1975 167.2047 L339.2769 167.7485 L339.5569 169.634 L340.0964 169.9204 L342.5232 167.749 L344.9515 166.3908 L348.1976 165.5624 L351.9778 165.2917 L352.7905 165.2761 L352.7914 165.8184 L352.2516 166.09 L348.7446 167.4459 L346.3116 168.2754 L346.0369 168.2765 L343.0704 169.6322 L341.7175 170.7188 L340.9115 171.2601 L339.0184 171.2602 L337.6626 171.5326 L336.3097 172.0903 L335.5094 172.8898 L334.429 173.9903 L333.07 174.5311 L330.6435 174.8035 L327.943 174.5322 L326.317 174.8175 L324.4362 176.4468 L323.0891 176.988 L320.9216 176.99 L319.8439 177.2516 L319.0354 178.3613 L317.4276 182.6855 L317.1684 183.7552 L316.6212 183.7549 L316.3483 183.4993 L315.8014 182.1589 L316.8747 179.43 L316.8764 179.1731 L317.4095 176.1907 L317.3905 171.8635 L317.3844 168.8947 L317.3837 168.6236 L317.3722 167.8239 L317.3727 167.8118 L317.1049 167.0103 L316.2908 165.9261 L315.7379 162.4113 L314.9213 160.8005 L314.105 159.9854 L313.2979 159.985 L311.137 161.0714 L310.3312 161.6134 L308.1815 166.4845 L308.1832 166.7688 L307.6494 167.8403 L308.1956 169.1969 L307.6628 170.0151 L307.6517 170.0194 L306.842 170.2835 L305.4896 169.7391 L304.6823 170.0258 L305.223 170.5539 L307.9282 172.4381 L308.2089 173.7943 L308.2089 174.3354 L306.8614 174.881 L306.5951 175.9498 L306.3219 176.4932 L305.5141 177.05 L304.434 177.5931 L303.0806 177.8637 L301.4616 177.593 L300.9203 177.5931 L299.8419 178.4205 L299.3019 178.4216 L297.9488 177.6063 L297.1344 176.5228 L297.3999 175.724 L297.4049 175.7111 L297.6677 174.9102 L296.8548 173.5696 L295.774 172.2062 L295.7679 172.1976 L295.7621 171.9394 L294.1222 168.1574 L292.7701 166.5439 L292.5038 166.2725 L291.1424 165.4598 L291.1426 165.2019 L291.6831 164.3893 L291.6748 163.5756 L291.4086 163.3043 L291.1364 163.0328 L290.0565 163.0313 L289.2491 164.4047 L288.7096 164.4022 L288.1623 163.5908 L287.6224 163.047 L286.2692 163.048 L285.4614 163.6053 L284.9233 164.4031 L284.6625 166.5746 L284.3953 167.1185 L284.9407 168.7318 L286.3021 170.6304 L287.6613 174.1421 L289.5616 174.9402 L290.101 175.467 L288.7551 176.2804 L289.0278 177.1099 L288.4809 177.9257 L287.1405 177.9235 L284.4326 177.9405 L282.0006 177.3956 L281.7273 177.398 L277.127 176.3283 L273.8872 176.628 L273.074 176.087 L273.0617 172.8454 L273.3268 172.3043 L274.6793 171.7617 L274.1317 170.6757 L273.3198 169.8776 L271.9621 168.2487 L271.6859 167.163 L271.6822 167.1478 L271.936 162.5659 L271.3881 161.7668 L270.8417 160.6815 L270.3033 160.6802 L269.7704 161.4943 L270.0676 167.9927 L270.0688 169.35 L270.0678 169.3659 L269.5347 169.8759 L268.9945 170.1644 L268.1802 170.1635 L266.2872 169.3636 L264.9346 168.5502 L264.66 168.5518 L264.1199 168.0083 L263.302 166.6651 L260.8421 160.4549 L260.0174 158.57 L259.4772 158.0264 L257.5829 158.5702 L257.5894 159.6569 L257.5959 160.1984 L256.7824 160.756 L254.6277 161.029 L254.0811 161.3005 L252.2018 164.2851 L251.9336 164.8281 L250.0478 165.0995 L249.2345 165.6571 L249.5067 166.4565 L249.773 166.7191 L249.7824 166.7261 L250.595 167.2537 L251.4067 167.7972 L251.687 168.611 L248.9939 171.5945 L247.6466 172.154 L246.5734 173.2231 L243.5924 172.9835 L243.06 173.5398 L243.0655 174.883 L242.7915 175.1387 L242.7986 175.41 L242.2591 175.695 L241.4463 175.4087 L240.9049 175.6964 L240.6449 177.3097 L240.371 177.8524 L239.8385 178.1217 L238.759 178.1215 L237.1324 177.8809 L236.0507 178.1535 L235.2444 178.9656 L235.2514 180.0517 L236.063 180.3079 L237.1438 180.3091 L237.1502 181.1204 L235.8032 182.2079 L235.803 182.478 L236.6177 182.7324 L237.6912 182.7324 L238.7767 182.4627 L240.3964 182.1911 L241.4849 182.7177 L242.2965 183.5187 L242.8441 185.144 L243.3888 185.9441 L244.7435 186.4838 L246.0953 187.3 L246.3707 188.0972 L246.643 188.3683 L248.276 191.3206 L249.3623 192.1367 L250.4491 192.9493 L253.6952 193.747 L255.3221 194.5458 L255.0548 195.8871 L254.5165 196.4427 L255.6097 198.0541 L256.1557 199.6658 L256.1543 200.2093 L257.2412 200.7519 L257.2418 201.2928 L256.1609 201.2949 L254.8083 201.0222 L254.0012 199.422 L253.9913 199.4189 L253.4476 199.1391 L252.3658 199.4234 L252.1062 200.4959 L250.7557 201.0519 L250.7601 202.1233 L250.7597 202.3932 L250.7673 203.205 L250.233 204.2913 L249.4269 205.1026 L247.8067 205.9171 L247.2724 207.0032 L247.5452 207.8149 L247.552 208.6136 L247.5489 208.6238 L247.2861 209.4401 L246.753 209.9826 L245.6716 210.5246 L245.4052 211.0681 L245.1449 212.9498 L245.4245 214.8465 L246.2442 216.7294 L246.7836 217.5418 L247.5901 217.2713 L248.1313 216.7141 L248.4039 216.7153 L248.6619 215.6422 L249.2036 215.3596 L250.2853 215.6281 L251.1054 216.7138 L251.6448 218.0415 L251.6444 218.0537 L251.6501 218.8678 L252.4638 219.6787 L253.2773 219.9369 L255.7039 219.9204 L256.7879 220.4692 L257.0643 221.2752 L257.6048 221.5444 L258.4241 221.8028 L258.6909 222.6141 L258.4286 223.9706 L258.4294 223.9837 L258.4246 224.2252 L257.8902 225.0531 L256.0024 225.0548 L254.9225 225.3398 L253.8503 226.4073 L252.7703 227.5063 L253.5922 228.5683 L254.6691 228.846 L254.9474 230.7289 L255.2223 231.8119 L256.0348 232.896 L257.3949 233.9638 L259.2829 234.7601 L261.1752 235.0321 L261.4495 235.2881 L260.9093 235.8289 L259.8352 236.6412 L257.1414 237.4693 L255.2557 238.282 L253.3668 239.383 L252.2863 239.1109 L252.0143 238.8401 L252.5534 238.0285 L253.9016 237.2145 L254.709 236.4011 L254.7005 235.3193 L254.4285 234.7909 L254.4285 234.5043 L250.8878 228.592 L250.0759 228.0483 L249.2685 228.048 L248.188 228.6067 L247.3806 228.6064 L246.8408 228.8778 L245.488 228.6215 L244.4075 228.3663 L243.6012 228.6368 L243.0623 229.1622 L242.5206 229.4654 L241.9873 229.7043 L241.1799 230.518 L240.64 231.3457 L239.5661 232.1585 L239.0253 232.1593 L238.2192 232.4299 L237.6792 232.9711 L237.1517 234.0446 L237.1445 234.0518 L236.6132 234.5951 L235.2655 235.14 L234.7266 235.138 L233.0986 233.2722 L232.2857 233.0022 L231.2059 233.0013 L229.8581 233.2888 L228.7785 233.2879 L227.1571 233.3037 L225.8053 232.5049 L224.9911 231.9644 L224.1709 230.0827 L224.1721 229.7971 L223.6251 229.5403 L222.8188 230.0809 L222.278 230.0819 L221.466 229.5555 L220.6516 228.2012 L220.1119 227.9457 L219.5718 228.2005 L219.0311 228.7579 L218.7709 230.0984 L218.5045 230.3842 L218.2392 231.4511 L217.9768 232.5368 L216.6238 232.551 L216.3503 232.0097 L216.3501 231.1959 L216.879 229.8412 L216.0646 228.7736 L215.7919 227.9587 L214.9788 227.6892 L213.6258 227.4337 L213.085 227.4348 L212.2712 226.0937 L211.7304 226.0949 L211.7314 226.6353 L211.4641 227.1778 L211.1988 227.4478 L210.6567 227.1781 L210.1109 226.3951 L209.5722 226.6511 L209.3046 227.1767 L209.0436 228.5333 L208.7771 228.5326 L208.4975 227.4638 L208.224 226.6526 L208.7586 225.8374 L210.1056 225.2954 L210.3718 224.4822 L209.8319 224.2266 L208.4861 225.0394 L207.9381 224.4999 L207.3978 223.7002 L206.5844 223.7005 L206.052 224.2433 L205.5109 224.7839 L204.97 224.7851 L204.7036 224.5147 L204.4111 221.2779 L203.326 219.6671 L202.7798 219.3946 L201.4251 218.8687 L200.6189 219.4098 L200.3582 220.7667 L199.5519 221.3079 L198.7454 221.3216 L197.3918 220.5102 L196.5772 220.2398 L195.4976 220.5263 L194.6839 220.2401 L194.4173 220.2395 L187.6509 217.6045 L186.2971 217.0631 L184.9451 217.3492 L183.8702 217.6352 L182.7902 217.905 L181.4377 217.3649 L180.3586 217.3781 L178.2042 218.4616 L177.1234 218.4778 L172.5304 217.9799 L171.4429 217.1698 L170.0899 216.9119 L169.015 217.1691 L167.9358 216.9129 L167.1176 216.1137 L165.2293 216.4011 L163.6078 216.1456 L162.7963 216.1439 L160.3689 216.4304 L160.0964 216.4297 L158.2087 216.1909 L156.8549 216.19 L155.5083 216.1903 L155.7692 214.834 L156.5689 214.0221 L156.0228 212.9537 L154.1226 211.6148 L153.5819 211.3429 L151.6894 211.6279 L150.8826 211.3727 L150.6041 210.5587 L150.3288 210.0333 L150.863 209.2049 L151.1312 208.9326 L150.5902 208.4116 L148.7045 208.4197 L148.43 208.4218 L147.3424 207.6083 L145.432 204.9264 L144.6183 204.1144 L143.7988 203.572 L140.5517 203.6163 L137.0382 202.5612 L134.5985 201.5087 L132.1596 199.8967 L131.8837 199.898 L131.0717 199.627 L129.7233 199.627 L123.7896 200.7714 L121.6245 200.5306 L119.1914 199.1894 L118.9049 198.6479 L118.6241 197.0363 L119.6974 195.6811 L123.7264 192.9379 L123.4533 192.6675 L122.9146 192.4101 L121.2932 192.6837 L120.2123 192.6975 L119.1263 191.8984 L117.7672 190.8289 L117.7618 190.5429 L116.4012 189.4725 L115.5879 189.2175 L114.2339 188.961 L113.6932 188.7064 L113.4154 187.6194 L114.4882 186.5206 L115.2861 185.1626 L115.2924 185.1506 L115.5489 184.3508 L114.7304 183.009 L114.183 182.4673 L113.1028 182.2121 L111.7485 181.9556 L110.6673 181.4342 L110.6573 181.4311 L110.1114 180.3428 L109.837 179.5445 L109.8375 179.2585 L109.8173 177.6461 L110.6261 176.831 L111.4326 176.0017 L111.4252 175.7473 L110.8806 174.6599 L109.526 174.6774 L108.9869 174.947 L108.1849 176.0493 L107.3781 176.8617 L106.5781 177.4051 L104.6782 177.1483 L103.8647 176.6196 L103.5848 175.5351 L103.3099 174.1928 L103.3063 174.1777 L102.2196 173.3787 L101.9404 172.5811 L102.4727 172.0242 L103.8195 171.4821 L104.36 170.9395 L104.6124 169.5802 L104.6215 169.5702 L105.1543 169.0386 L106.5131 169.0241 L106.7627 168.4928 L106.7718 168.4828 L107.3083 167.9373 L107.3028 167.651 L107.2948 166.5825 L107.028 166.5823 L105.9478 167.1245 L104.5885 166.3418 L104.8478 164.7134 L104.029 163.9152 L104.0223 163.1008 L104.8311 162.8125 L105.6369 161.9988 L105.6246 160.3708 L104.7981 158.7739 L103.9658 156.5998 L103.9531 155.2578 L105.0318 153.8879 L105.0204 153.6305 L105.5544 152.273 L105.5412 151.1879 L104.9943 150.1026 L103.0834 148.2314 L102.2631 146.6015 L101.443 146.3463 L100.9155 147.9744 L100.6499 147.9753 L100.1029 147.4464 L99.8232 146.6314 L99.5558 146.087 L99.5502 146.0747 L98.1953 145.8353 L98.1903 145.2918 L98.7297 144.7478 L98.9966 144.7479 L99.2645 144.2046 L99.2577 143.3899 L99.5138 142.5722 L100.0571 142.3051 L101.4122 142.0172 L102.2171 141.7463 L103.0241 140.9162 L103.0177 140.1183 L102.7385 139.5734 L102.733 138.7595 L103.5391 137.9453 L103.5323 137.1303 L102.9869 136.8726 L100.546 136.0755 L99.4611 135.5602 L98.3807 135.8167 L97.8472 136.361 L97.0385 136.92 L95.9591 137.4638 L95.1467 137.2061 L94.053 136.4063 L93.2461 136.4059 L92.1597 136.438 L91.0795 136.6946 L89.4524 136.1653 L88.9063 135.6373 L88.9072 135.0939 L89.4342 134.279 L90.2475 134.0222 L91.0539 133.449 L91.8612 132.6354 L92.1296 132.3623 L92.9351 131.805 L93.1943 131.0059 L93.1827 130.1916 L92.6421 129.1193 L91.824 128.5751 L90.4691 128.5771 L88.5761 128.8794 L87.7631 128.6049 L87.2241 128.0696 L87.2161 128.0637 L87.2029 126.7207 L87.4702 125.9068 L89.0856 124.8031 L90.6973 123.4309 L90.6865 122.3761 L91.2257 121.8148 L91.2192 121.5442 L92.2988 121.0 L94.4531 119.6131 L94.9918 119.6124 L95.0057 120.9687 L95.5458 121.2433 L96.3539 120.4258 L97.4327 119.8686 L97.9655 119.3109 L98.4947 117.4084 L100.0782 113.3597 L100.0872 113.3496 L100.7248 112.5651 L101.423 111.7168 L102.7701 110.6159 L103.3035 109.8008 L103.0232 108.7145 L101.9246 107.1126 L101.1043 106.5707 L100.2923 106.2967 L98.671 106.3285 L98.1248 106.328 L97.0508 106.8724 L97.0631 108.5024 L96.7905 109.047 L94.6499 110.9474 L92.2291 113.1208 L92.2281 113.1367 L92.2346 113.6816 L92.7766 113.6791 L93.8555 113.1217 L96.0024 111.492 L98.1625 110.3748 L99.7831 110.1015 L99.5214 111.1902 L98.7233 112.5472 L96.5695 114.1925 L94.9544 115.2802 L91.9876 116.3973 L89.8392 118.5865 L88.4996 119.6719 L88.2275 119.9591 L87.1524 120.5024 L84.4602 122.1319 L82.2992 122.9781 L80.9516 123.2351 L79.0518 122.993 L77.159 123.0386 L76.066 122.7507 L74.7192 122.7676 L73.6513 124.4128 L72.8449 124.6833 L72.5785 124.9538 L71.4915 124.9695 L67.9644 124.1868 L66.3439 124.4732 L64.9985 125.0312 L64.1862 125.3016 L62.8314 125.0472 L62.0241 125.3338 L59.8644 125.8909 L58.5106 125.6206 L58.212 124.0201 L58.4663 121.3032 L59.2683 120.4728 L61.1675 120.4726 L62.2595 121.5442 L63.0723 121.8015 L63.6133 121.7855 L63.3345 120.7138 L63.054 119.8985 L63.3197 119.3574 L63.5868 119.3573 L66.268 116.3524 L68.4348 116.0662 L68.9683 115.7955 L69.234 114.9802 L68.9556 114.4362 L68.1367 113.3643 L68.124 112.005 L68.3898 111.4638 L71.0916 111.1446 L71.0952 111.1597 L71.3764 112.52 L71.6501 112.7906 L72.4504 111.6887 L73.251 110.3294 L72.4375 109.8014 L71.6242 109.8013 L69.4575 110.1044 L68.6502 110.1045 L67.279 109.0322 L67.011 109.0483 L66.4729 108.7591 L65.3853 109.0614 L64.0505 110.4211 L62.7036 111.2526 L60.8097 111.5392 L59.7236 111.2819 L58.9041 110.4675 L58.6311 110.4675 L57.5505 110.7542 L55.3851 110.224 L54.5587 109.4254 L53.738 108.3527 L53.4661 108.0794 L53.4586 108.0698 L52.3611 105.3786 L52.0683 103.4908 L53.1338 102.1334 L53.6635 100.5012 L53.1099 99.1416 L51.2105 98.9016 L50.397 98.9018 L48.236 99.7172 L46.3436 99.4908 L45.25 98.946 L44.4303 97.8742 L44.4121 96.004 L44.4033 95.9934 L43.859 95.1724 L43.3247 94.9154 L41.6972 95.7468 L41.4252 95.4734 L40.5926 93.3122 L40.5858 93.0414 L38.9343 90.3531 L37.8493 89.5531 L36.7615 89.5696 L34.3339 90.9435 L33.5275 91.2317 L32.7068 90.6871 L31.3471 89.8863 L30.8008 89.6 L29.7154 89.9174 L28.6364 89.9156 L27.8161 88.8439 L27.542 88.5734 L26.7144 87.5005 L20.3542 75.0977 L20.3499 75.0863 L19.8028 74.0225 L19.5286 73.752 L17.3383 71.3366 L16.7725 68.9006 L15.9213 65.6537 L15.0816 63.5081 L13.9836 61.6189 L13.6901 60.0001 L14.218 58.6393 L14.7459 57.2784 L14.7201 54.5578 L12.8147 54.3161 L12.5658 56.2046 L12.0379 57.5656 L11.5056 57.8966 L10.6917 58.4006 L10.4379 59.7575 L9.6428 61.6633 L9.3777 61.9355 L9.11 62.7503 L6.4268 65.5029 L4.0128 67.4211 M12.1159 64.6252 L11.8556 65.4411 L9.9552 65.4564 L9.6758 64.9121 L9.9412 64.37 L11.5692 64.0813 L12.1159 64.6252 M44.4174 124.4134 L44.4263 124.9554 L43.6177 125.2122 L42.5309 124.9713 L41.7113 124.4439 L41.7126 123.9135 L41.7048 123.6297 L42.5123 123.0855 L43.0581 123.3426 L43.6046 124.1565 L44.4174 124.4134 M77.5907 140.6166 L77.8713 141.9592 L77.0699 143.0591 L75.7299 144.4172 L75.2025 145.7754 L74.9356 146.5891 L74.1354 146.8595 L72.5085 147.4184 L71.4289 147.4184 L69.5293 146.9065 L68.4487 146.6486 L67.9016 146.1079 L67.6213 145.293 L67.5842 141.5052 L67.0329 140.1478 L66.4851 139.3658 L66.746 138.2777 L67.2795 137.7209 L67.5536 137.4479 L68.352 136.9059 L71.3269 136.3307 L74.0271 135.7583 L75.3852 136.3022 L77.5907 140.6166 M85.3102 126.7368 L85.0573 128.093 L83.9836 129.4512 L81.8356 131.0957 L81.2953 131.3819 L80.7487 131.1111 L80.4681 130.0256 L80.455 128.3963 L80.9912 127.5796 L81.2557 127.0377 L82.8705 126.4944 L84.2184 125.6479 L85.0314 125.6483 L85.3102 126.7368 M84.8992 171.632 L84.118 174.6166 L83.5726 174.6163 L83.0251 173.8179 L83.0179 173.0036 L83.0052 172.2061 L82.4651 171.662 L81.3845 171.4075 L80.8397 170.8642 L81.106 170.3203 L81.0994 170.05 L82.1736 170.0341 L83.0002 170.576 L84.8931 171.1047 L84.8992 171.632 M91.3669 168.8744 L91.3726 169.6877 L90.8335 170.2314 L90.0267 170.5171 L89.2079 169.4455 L89.4751 169.1595 L90.0073 168.6314 L90.2813 168.6326 L91.0946 168.6172 L91.3669 168.8744 M94.3464 170.2146 L93.8128 171.0153 L93.2847 171.3015 L93.0001 171.3009 L92.9996 170.7569 L92.9995 170.2298 L92.453 169.6891 L92.4521 169.4022 L93.2598 169.1296 L94.3408 169.4013 L94.3464 170.2146 M99.7225 166.0989 L99.1887 166.9288 L98.3764 166.9282 L96.4751 166.1312 L96.4692 165.33 L96.4682 164.7897 L97.0029 164.5001 L97.8098 163.6873 L98.6226 163.958 L99.7087 164.744 L99.7225 166.0989 M96.0382 178.0367 L96.8582 178.8355 L96.3238 179.3782 L94.9699 179.6661 L94.6953 179.3948 L94.4225 178.8676 L94.4175 178.3246 L94.9561 178.0379 L96.0382 178.0367 M100.3518 176.9217 L99.8178 177.7344 L99.2765 177.7369 L99.0046 177.1937 L98.9968 176.3955 L99.8045 175.567 L100.3459 175.5646 L100.6186 176.0919 L100.3518 176.9217 M97.6641 209.9001 L97.6711 210.44 L96.8631 211.2546 L96.069 212.896 L95.7965 212.8958 L95.2453 211.5394 L95.5096 210.9988 L95.5109 210.7262 L96.3125 209.6415 L97.3921 209.6432 L97.6641 209.9001 M104.4119 209.8384 L105.2307 210.3958 L104.9655 210.6496 L103.8859 210.9214 L103.0715 210.6658 L102.5242 209.598 L102.5192 209.0555 L103.0587 208.7701 L103.592 208.7702 L104.4119 209.8384 M108.7443 210.8927 L108.48 211.4333 L107.4047 211.9777 L107.1309 211.9764 L106.8594 211.4337 L106.8522 210.9059 L107.6589 210.3641 L108.7394 210.3501 L108.7443 210.8927 M91.4583 241.8101 L91.9999 241.539 L91.998 241.2684 L92.8054 241.2538 L93.3461 241.5247 L93.3511 242.0668 L92.5388 242.5915 L91.7331 242.3506 L91.4583 241.8101 M88.3462 255.8609 L88.0855 256.6724 L86.7385 257.4851 L84.3054 257.5167 L83.23 257.2609 L82.1382 255.921 L81.8582 254.8387 L81.8534 254.0403 L82.9254 252.1321 L83.1744 250.7905 L83.7139 250.5221 L84.5147 249.9642 L85.868 249.9508 L86.4156 250.7608 L86.7074 253.4543 L88.3462 255.8609 M89.2029 261.803 L89.2114 262.8691 L88.683 263.4268 L87.6033 263.4244 L87.0632 263.1706 L87.0571 262.3423 L87.3238 262.0859 L88.1239 261.5321 L89.2029 261.803 M92.9972 263.6526 L92.7365 264.464 L92.1961 264.1932 L91.6446 262.8545 L91.6427 262.5841 L92.1708 262.5849 L92.9972 263.6526 M108.8608 224.9242 L108.6005 225.7203 L107.5198 226.2934 L106.4401 226.0218 L105.8935 225.2242 L104.8124 224.6987 L105.0803 224.4263 L105.8864 224.1412 L106.1529 224.1414 L107.2395 224.3973 L108.0482 224.3961 L108.8608 224.9242 M105.9195 228.19 L106.4667 228.7311 L106.1987 229.0034 L105.3861 229.0017 L104.8526 228.7317 L104.5651 228.2066 L105.1055 227.9345 L105.9195 228.19 M110.975 219.2495 L111.2559 220.5868 L110.7155 220.8588 L110.175 220.6044 L109.3566 219.2471 L109.6228 218.9775 L109.8888 218.7078 L110.4298 218.7056 L110.975 219.2495 M116.6949 224.5911 L116.9615 225.1345 L116.4274 225.6763 L114.8064 225.6924 L114.2614 225.1485 L114.2609 224.8788 L114.7946 224.0671 L115.0612 223.7937 L116.1284 223.2522 L116.6747 223.2539 L116.9489 223.7779 L116.6949 224.5911 M144.7717 224.9059 L144.7716 225.4492 L144.2362 226.0066 L143.6973 226.0058 L142.612 224.937 L142.3303 224.1251 L142.3319 223.8526 L142.8647 223.5835 L143.4115 223.5818 L144.7717 224.9059 M152.7896 214.0524 L152.5215 214.5944 L152.255 214.594 L151.4425 214.6084 L151.168 213.7973 L151.1698 213.5248 L152.2437 213.254 L152.7896 214.0524 M146.1508 229.2257 L145.8825 230.041 L145.0832 230.8528 L144.5428 230.5813 L144.5296 229.5142 L144.7961 228.9714 L145.0686 228.9719 L145.8782 228.9555 L146.1508 229.2257 M157.7513 228.5949 L157.7578 228.8817 L157.4905 229.1378 L156.6766 228.8814 L155.8583 227.813 L155.8577 227.5263 L156.665 227.525 L157.4779 227.7974 L157.7513 228.5949 M167.7011 222.8897 L168.2404 222.3185 L168.2357 221.5185 L168.5018 221.2323 L169.0426 220.961 L170.929 220.9463 L171.4754 221.4882 L171.4749 221.7617 L170.9417 222.8435 L171.2147 223.3715 L172.0277 223.9139 L173.1141 224.7109 L173.3935 225.7954 L173.1285 226.3354 L172.3138 226.0655 L169.8812 225.5383 L167.7202 225.5672 L166.3722 224.757 L165.8206 223.9584 L166.0873 223.1458 L166.6283 223.1443 L167.7011 222.8897 M214.4439 229.0437 L214.7175 229.3153 L213.637 229.8579 L213.3716 229.6006 L213.0981 229.0592 L213.0978 228.8016 L214.1775 228.8022 L214.4439 229.0437 M200.8552 258.5487 L200.8626 259.3463 L200.327 259.6331 L199.2421 259.6326 L198.702 258.5642 L198.968 258.2785 L199.7749 258.0084 L200.8552 258.5487 M203.8043 255.0284 L204.6174 255.555 L203.5433 256.3671 L202.7236 256.3831 L202.4561 255.8424 L202.9964 255.3143 L203.8043 255.0284 M220.1439 234.4161 L219.8776 235.229 L219.6111 235.2283 L218.7972 234.9745 L218.5234 233.8891 L218.5245 233.6035 L219.0582 233.3316 L219.6041 233.6043 L220.1439 234.4161 M202.2345 263.6631 L201.9675 264.2051 L201.1607 264.4751 L200.0804 264.4739 L200.3465 263.6782 L200.8808 263.1209 L201.1599 262.8656 L201.9618 262.849 L202.2352 263.1203 L202.2345 263.6631 M226.0844 234.6571 L226.0912 235.1977 L225.2771 235.7406 L224.4701 235.4711 L224.1966 235.1995 L224.4711 234.4009 L224.7315 234.1149 L225.8111 234.1158 L226.0844 234.6571 M227.9907 237.3497 L228.2629 238.9612 L227.4571 238.9622 L227.1837 238.1635 L226.638 237.6211 L226.9055 237.0789 L227.7175 236.8083 L227.9907 237.3497 M225.3169 241.9544 L225.3166 242.7511 L224.2433 243.5641 L223.7027 243.5651 L223.6967 242.4816 L223.9689 242.2251 L224.7761 241.6689 L225.3169 241.9544 M214.4152 270.8648 L214.1479 271.6761 L213.3405 272.219 L211.7282 273.029 L210.1117 273.0605 L209.2941 272.5179 L209.0268 271.7369 L209.56 271.4362 L211.7139 270.8955 L213.3329 270.3392 L213.8746 270.3391 L214.4152 270.8648 M241.1943 232.9702 L241.7337 234.0398 L240.9391 234.8379 L240.6529 234.5816 L240.3879 233.7679 L240.373 233.2421 L241.1943 232.9702 M240.6787 238.9021 L240.6854 239.4426 L239.878 239.7121 L238.7987 239.4412 L238.2593 239.1855 L238.5256 238.8998 L239.5982 238.6302 L240.6787 238.9021 M244.7195 237.5323 L244.1864 238.3441 L243.3783 238.0733 L243.0994 237.0045 L242.5586 236.7187 L242.2865 236.4769 L242.5521 235.651 L243.0919 235.3796 L244.1672 235.9051 L244.7206 236.9892 L244.7195 237.5323 M275.3426 201.4736 L276.4281 203.1009 L276.7025 203.0994 L277.5089 203.0992 L277.7755 203.1003 L279.4032 204.4247 L281.3038 205.2228 L281.8418 206.0518 L281.5822 208.2053 L281.8553 209.288 L281.5884 210.089 L281.0474 209.8316 L280.2343 209.5607 L279.4161 208.4754 L278.6079 208.2206 L277.8016 208.2208 L276.9949 208.4909 L276.7204 208.4923 L275.3684 207.1508 L274.2827 206.8787 L273.7412 206.3384 L273.7349 205.5397 L274.0086 205.2674 L275.0811 204.7274 L275.0836 204.1681 L274.8084 202.8302 L274.5354 202.2883 L274.8038 201.2013 L275.3426 201.4736 M281.0174 201.1864 L281.0158 201.7299 L280.2089 202.0 L279.9368 201.7287 L279.3892 200.3895 L279.3894 200.1027 L279.9305 200.1024 L280.4703 200.1011 L281.0174 201.1864 M304.7325 185.4291 L304.4613 185.9696 L303.3866 186.2419 L302.2995 186.2427 L300.9469 185.4445 L298.7807 183.5592 L297.9683 182.7309 L297.9616 181.6608 L298.5015 181.1187 L299.3142 181.119 L300.1194 181.376 L301.2081 181.9172 L303.1063 182.4604 L304.1813 181.9012 L304.7207 182.445 L304.4617 184.3429 L304.7325 185.4291 M295.6625 218.1426 L295.3957 219.2262 L294.589 219.496 L293.7752 219.2408 L292.6949 218.9554 L291.0681 217.6021 L289.4491 216.2752 L288.6286 214.6642 L288.0816 213.0386 L287.5423 212.4954 L286.4563 211.9691 L285.915 211.4287 L285.9159 210.6145 L286.456 209.545 L286.9895 209.0029 L288.0619 208.4465 L292.117 208.9711 L294.2772 208.7015 L294.2821 209.516 L293.7426 210.8561 L294.2898 211.9375 L295.9156 212.7374 L295.9153 213.8224 L295.6496 214.6327 L295.6559 216.2461 L295.6561 216.7867 L295.6625 218.1426 M314.4689 187.5513 L315.8152 186.4811 L316.0882 187.5525 L315.2807 188.6376 L315.0137 190.2508 L314.2079 191.0624 L313.3999 191.8765 L311.7934 195.4007 L310.9856 196.215 L310.4458 196.2159 L310.1732 195.6735 L310.1725 195.4026 L310.1656 194.5737 L312.3125 190.8074 L313.128 190.2485 L313.6596 189.1803 L314.4663 187.8241 L314.4689 187.5513 M284.7963 201.9845 L285.6026 201.1569 L285.6041 200.9001 L286.9507 199.8013 L287.4901 199.5461 L288.0316 199.7998 L288.0367 200.6145 L288.8503 202.225 L288.8519 203.5652 L288.0508 204.1222 L287.5104 203.5657 L286.9645 201.9697 L286.4241 202.2408 L285.884 203.0527 L285.3359 203.3263 L284.8032 203.0542 L284.7963 201.9845 M283.4698 207.9338 L284.2822 207.6472 L284.556 208.1733 L284.2887 209.29 L284.0148 209.5454 L283.2099 209.2888 L283.2015 208.4761 L283.4753 208.1748 L283.4698 207.9338 M260.8647 226.3918 L260.6037 227.4916 L259.522 227.4926 L259.2569 227.206 L258.9701 226.1225 L258.9692 225.8518 L259.7844 225.8497 L260.8647 226.3918 M268.0922 212.3019 L268.3666 212.8449 L268.0999 213.1305 L267.2873 213.4005 L266.7394 213.1299 L266.2062 212.6041 L266.4747 212.3157 L267.2806 211.7746 L267.553 211.7759 L268.0922 212.3019 M263.2647 218.8069 L263.2665 219.0908 L262.7252 219.6188 L261.6521 220.1747 L261.6436 219.379 L262.1851 218.8221 L262.4522 218.8193 L263.2647 218.8069 M261.0787 213.4155 L261.8867 212.6018 L262.4202 211.7895 L263.2324 211.7893 L264.0463 212.875 L264.3255 214.4853 L264.0594 215.5693 L263.5266 216.6521 L262.4462 217.4645 L261.6396 218.279 L260.5577 218.2801 L259.4716 217.2102 L259.2051 217.2092 L258.9382 218.0223 L258.406 218.8354 L257.5916 218.564 L257.3186 218.0222 L257.579 216.4107 L257.0262 215.0729 L257.5722 214.5152 L258.1132 214.5145 L258.3788 214.2447 L259.9986 213.9582 L261.0787 213.4155 M264.3066 209.8915 L264.0341 210.4347 L263.4939 210.706 L263.2209 209.9066 L263.2199 209.6357 L263.2203 209.3658 L263.7595 208.8237 L264.0271 209.0956 L264.3066 209.8915 M272.9167 203.0993 L273.1895 203.928 L272.6485 203.9284 L271.8411 203.658 L271.5682 203.1159 L271.5637 202.5722 L272.3751 202.559 L272.9167 203.0993 M312.0846 202.6924 L312.625 202.4216 L312.8922 201.8784 L313.1595 201.3352 L313.7007 201.3353 L313.9732 201.8776 L313.9712 202.4211 L313.4379 203.2339 L312.3591 204.0473 L311.5461 203.7758 L311.5447 203.2341 L312.0846 202.6924 M335.2505 176.6712 L335.524 177.7561 L334.7094 178.3159 L333.3622 178.8568 L332.5503 178.5858 L332.0092 178.0444 L332.2768 177.501 L332.5481 177.5016 L332.8163 177.2292 L333.635 177.2304 L334.7035 176.6876 L335.2505 176.6712 M260.3381 288.7056 L260.3391 288.9759 L259.5374 289.518 L258.9926 288.976 L258.719 288.1649 L258.7194 287.6384 L259.5258 287.3526 L260.065 287.6252 L260.3317 288.1658 L260.3381 288.7056 M257.6642 293.5598 L257.3976 294.3713 L257.1315 294.6565 L256.3239 294.9122 L255.7842 294.3864 L255.7763 293.8456 L256.3168 293.5758 L257.1313 293.3044 L257.6642 293.5598 M263.8833 297.3169 L263.6109 297.8421 L261.4574 297.8576 L260.6388 297.06 L260.6383 296.5206 L260.6378 295.4377 L261.1705 294.6273 L261.4444 294.6257 L261.7106 294.6267 L262.799 296.2492 L263.5989 296.7759 L263.8833 297.3169 M245.3827 316.2611 L245.6505 317.0714 L245.1173 317.6115 L244.5764 317.3422 L244.0374 317.07 L244.0298 316.2604 L244.2977 316.2586 L245.3827 316.2611 M247.8303 321.9071 L249.7113 320.8089 L251.5915 320.2695 L252.9519 322.9571 L254.0311 323.4819 L255.111 323.7544 L255.3786 324.0218 L255.3845 324.5648 L254.5782 325.6456 L255.1229 327.2522 L255.9386 327.521 L257.5519 328.0619 L257.5575 328.5881 L257.8244 328.8591 L257.8306 330.2101 L262.1511 332.8805 L262.6921 332.881 L263.4977 332.5957 L264.5734 332.8655 L265.3854 333.6621 L266.4666 334.2012 L268.0785 334.4723 L269.6998 334.713 L271.3142 334.4557 L271.586 334.7139 L271.5865 335.2529 L271.0531 335.7925 L269.978 336.6043 L268.3644 337.1606 L268.099 337.9554 L267.8385 339.5742 L267.2978 340.1331 L264.6177 341.7518 L263.8099 342.023 L262.1899 341.4809 L261.6561 341.7673 L260.5762 342.3063 L258.9621 342.3072 L258.1551 341.7836 L257.0684 340.433 L255.9821 338.2998 L257.0627 338.0138 L257.328 337.4758 L257.0565 336.6629 L255.1623 335.0576 L254.8964 335.0567 L254.0823 334.2629 L253.8089 333.4528 L254.3292 330.48 L252.9776 328.8722 L252.4359 328.6186 L251.6355 329.4136 L251.6352 330.2254 L251.6418 331.0505 L250.8427 331.5894 L250.0283 331.3217 L249.7567 330.5087 L249.4819 330.2403 L248.4018 329.4457 L247.5938 329.1744 L247.3294 328.3626 L247.0489 327.568 L247.3082 326.4868 L246.7631 324.3374 L247.8357 322.9884 L247.8303 321.9071 M301.7498 260.7865 L301.7581 261.3118 L300.9495 261.8534 L300.1356 262.1252 L299.5977 261.853 L299.5962 261.3121 L299.8634 260.7864 L300.4034 260.2295 L301.2102 260.2307 L301.7498 260.7865 M266.1797 330.4347 L267.2658 332.3117 L266.7248 332.3112 L265.1062 331.2439 L262.1436 330.7204 L261.326 329.1116 L261.325 328.8416 L261.3245 328.3026 L261.5924 328.3008 L264.5665 329.8935 L266.1797 330.4347 M271.2883 327.4454 L271.2881 328.7964 L270.4801 329.0675 L269.9395 328.7979 L269.6744 328.0018 L269.4007 327.7174 L268.5932 327.4626 L268.5874 326.9196 L268.8598 326.6518 L269.3946 326.3784 L269.9338 326.3817 L271.2883 327.4454 M269.9597 332.0245 L269.9591 332.8362 L269.6931 333.1211 L269.1594 332.8358 L268.613 332.3092 L268.8736 331.4982 L268.8731 331.2161 L269.4127 331.2156 L269.9597 332.0245 M268.6068 328.8112 L268.0607 329.6233 L267.2537 329.6217 L266.1733 328.2875 L265.0797 326.9519 L265.0811 326.4101 L265.0812 326.1242 L266.1607 326.1233 L267.2411 326.6494 L268.0535 328.2712 L268.6068 328.8112 M253.0332 340.1769 L253.0332 340.4626 L251.9596 340.733 L250.8737 339.6525 L250.3388 339.6524 L249.2598 339.1279 L249.5269 338.5871 L249.7947 338.5853 L250.0606 338.5862 L250.8662 338.5866 L251.9546 338.8406 L252.2205 339.1274 L253.0332 340.1769 M316.1372 289.2895 L316.1352 289.8318 L315.3291 290.3869 L313.9827 289.8459 L313.4419 289.5755 L313.1698 289.0343 L313.442 289.0359 L315.0572 288.4926 L315.5898 288.7487 L316.1372 289.2895 M319.1034 289.5609 L318.8291 291.4548 L317.764 291.4532 L317.4893 291.1841 L317.49 290.6408 L318.2969 289.0029 L318.5647 288.7481 L318.8295 288.7484 L319.1034 289.5609 M322.0572 286.0451 L322.0571 286.5848 L320.9824 287.9379 L320.7164 289.0037 L320.4516 289.0033 L319.9116 289.5596 L319.9102 289.2762 L319.9047 287.6655 L319.9041 287.3952 L320.4437 286.5854 L321.2503 285.7732 L321.5105 285.7743 L322.0572 286.0451 M324.2187 287.1093 L323.9518 287.6513 L323.684 287.9062 L322.6042 287.6654 L322.3303 287.1269 L322.5972 286.5849 L322.8647 286.3132 L323.9435 286.5698 L324.2187 287.1093 M331.2061 279.836 L330.9404 280.6158 L330.3937 280.9015 L329.8594 280.9014 L329.5869 280.0897 L329.8606 279.2785 L329.8531 279.0237 L330.6652 279.0088 L331.2061 279.836 M239.2926 391.6423 L239.0269 392.452 L238.2196 392.4499 L237.9521 392.4518 L237.6787 391.6429 L237.9466 391.3724 L238.7525 391.3735 L239.2926 391.6423 M235.2778 395.1633 L235.0113 395.9598 L233.9375 395.9728 L233.3964 395.4345 L233.3908 395.1657 L233.3916 394.8934 L233.9308 394.624 L235.2778 395.1633 M209.2163 398.253 L209.4821 398.7787 L209.2214 399.0627 L208.1491 399.8709 L207.0745 399.6028 L207.0684 399.0775 L207.0692 398.5367 L207.3348 398.5374 L208.1428 397.998 L209.2163 398.253 M201.445 402.5998 L201.9854 402.331 L201.4329 401.2519 L201.4335 400.711 L201.9738 400.7108 L203.0464 400.9814 L203.3261 402.0587 L203.0589 402.8544 L201.7241 403.9492 L200.1165 404.4885 L199.3048 404.4878 L198.7653 403.9473 L199.0387 403.4083 L199.0365 403.1546 L200.3727 402.8831 L201.445 402.5998 M194.7438 405.3269 L194.7491 405.8678 L193.9469 405.8825 L193.4009 405.8827 L193.1358 405.3414 L193.663 404.8026 L194.4697 404.787 L194.7438 405.3269 M204.52 376.4986 L206.9525 378.9005 L208.0264 378.6303 L208.8338 378.9006 L208.566 379.44 L206.7045 381.8694 L205.0925 382.4226 L203.4782 382.693 L202.4096 383.7733 L202.1441 384.3268 L201.3511 384.5964 L200.5359 384.5975 L199.4561 384.0738 L198.9153 383.7885 L198.9101 383.2472 L199.1767 382.9923 L200.5243 382.7079 L201.3242 382.4226 L201.0564 382.1682 L200.518 381.6283 L195.9296 379.245 L194.8431 377.6415 L195.1042 376.2909 L195.6444 376.0051 L196.7242 375.7348 L197.5183 374.9406 L198.0527 374.3859 L198.5859 374.1155 L199.1196 374.3708 L200.2047 374.642 L200.4723 374.3711 L201.0067 373.8453 L201.8191 374.3713 L203.1732 375.7043 L204.52 376.4986 M211.4775 370.0058 L211.2096 370.5454 L210.4026 370.8173 L209.5963 371.0855 L208.522 370.8303 L208.7898 370.2907 L209.3221 369.7509 L209.8499 369.7372 L210.3963 369.2119 L210.9297 369.2106 L211.4775 370.0058 M205.8535 374.6117 L205.8525 375.1361 L205.587 375.421 L204.7808 375.4205 L204.24 374.8953 L203.7002 374.3543 L203.4275 373.815 L203.6932 373.5469 L205.04 373.5472 L205.3066 373.8008 L205.8535 374.6117 M211.1832 366.7824 L210.9246 367.8459 L210.1224 368.4027 L209.316 368.4021 L208.5027 367.8628 L208.4963 367.0515 L208.7632 366.5277 L209.031 366.2569 L210.6433 365.4469 L211.179 365.4307 L211.7177 365.7022 L211.4498 366.2418 L211.1832 366.7824 M217.3417 360.0149 L217.0679 360.5544 L216.2665 360.8264 L215.7269 360.5708 L215.1863 360.3021 L215.187 360.0296 L215.4531 359.4926 L215.9866 359.4914 L216.7882 359.4759 L217.067 359.7469 L217.3417 360.0149 M183.5788 383.0824 L184.6524 382.2742 L185.4536 380.9234 L186.7939 380.3688 L188.1334 379.8299 L188.4004 380.1001 L188.6815 380.8934 L190.2942 381.4191 L193.5275 382.7537 L193.2684 383.8326 L192.4663 384.3727 L191.9337 385.7222 L191.6668 385.7207 L191.1264 385.4523 L190.5803 384.1175 L189.7657 383.3091 L188.153 383.0521 L186.8118 383.5935 L185.7445 384.6873 L184.6777 386.0376 L183.8716 386.3061 L182.7981 386.5768 L181.4492 386.3233 L180.6437 386.0509 L180.3697 385.259 L180.3628 384.4482 L180.9038 383.9067 L181.704 383.6379 L183.5788 383.0824 M195.2563 356.9109 L195.7888 356.6564 L197.39 353.9716 L197.917 353.1297 L198.7306 352.8745 L200.3447 353.1283 L201.6911 353.1154 L206.2719 353.8965 L206.552 355.5007 L207.0867 355.7692 L207.8981 356.0257 L208.6997 355.2157 L209.507 354.9437 L210.3129 355.2169 L210.8604 356.0245 L210.8657 357.0917 L210.6001 358.44 L210.8789 359.5054 L211.1449 360.5861 L210.8863 360.8555 L209.2716 361.4115 L208.738 361.9505 L207.9245 361.1423 L207.9183 360.0621 L206.5637 358.4717 L205.7593 358.7251 L204.6905 359.8228 L203.0829 361.1579 L199.8684 362.0125 L198.5214 363.0755 L197.4482 363.0903 L196.1002 362.8373 L195.2866 362.567 L192.0717 364.2034 L190.4526 363.9459 L189.6448 363.4071 L189.3656 362.342 L189.9009 361.5312 L188.5467 359.9256 L187.4609 358.5913 L187.4528 356.9723 L187.9872 356.4171 L189.3279 355.3366 L190.3949 354.5268 L191.4752 354.5252 L194.1745 356.3859 L195.2563 356.9109 M211.3549 348.7485 L211.3548 349.0174 L210.5544 349.8284 L210.0148 350.0985 L209.4799 350.0988 L208.9342 349.8429 L208.9339 348.7626 L209.2011 348.7643 L210.0075 348.508 L211.3549 348.7485 M202.8539 367.637 L202.8551 368.1756 L201.2476 368.7162 L200.4331 368.1929 L200.4339 367.6516 L200.9683 367.3656 L202.0417 367.3676 L202.8539 367.637 M205.7893 362.5076 L206.0571 363.0311 L205.5168 363.317 L204.1768 363.8555 L203.3684 363.8578 L203.0956 363.3183 L203.0952 363.0615 L203.9037 362.7905 L205.2447 362.2361 L205.7893 362.5076 M189.6843 370.9375 L189.6955 371.7479 L188.6288 372.8261 L186.2158 373.9213 L184.3401 375.2866 L183.8014 375.0155 L183.2609 374.7472 L183.2541 373.6673 L182.1744 373.1401 L182.1743 372.6026 L182.7077 372.3322 L183.5086 371.7909 L187.8095 370.6828 L189.6829 370.6678 L189.6843 370.9375 M171.5523 394.1913 L172.6321 394.4456 L172.0973 394.9873 L171.8377 395.2556 L170.7571 395.2568 L170.4849 394.731 L170.4849 394.4624 L171.0178 394.192 L171.5523 394.1913 M166.4742 398.5252 L166.7418 399.3203 L165.9486 400.1435 L165.1474 400.4114 L164.3332 399.8891 L164.3274 399.0795 L164.8685 398.7944 L165.4015 398.524 L166.4742 398.5252 M168.8633 394.2077 L168.8766 394.4776 L168.3356 395.0024 L167.5288 395.287 L166.1819 394.7628 L165.6427 393.967 L165.3696 393.4281 L166.1705 393.1433 L166.709 393.414 L167.2499 393.6699 L168.3246 393.6684 L168.8633 394.2077 M158.2027 407.1721 L158.4755 407.4422 L157.6757 408.252 L156.8696 408.2645 L156.8694 407.9959 L156.8621 407.7263 L157.6702 407.1703 L158.2027 407.1721 M197.6373 350.984 L197.3767 351.525 L196.5701 351.5247 L195.4895 351.0005 L194.9507 350.7292 L194.4104 350.188 L194.4095 349.9349 L194.6691 349.6496 L196.5583 349.9024 L197.6373 350.984 M195.2416 353.6857 L195.242 353.9715 L194.7034 354.4947 L193.6229 354.2395 L193.3557 353.969 L193.3499 353.7 L193.8893 353.1608 L194.6968 353.4142 L195.2416 353.6857 M171.2316 346.305 L172.3119 346.034 L173.3863 346.0317 L173.3855 346.2875 L173.1192 346.8285 L172.044 347.3846 L171.2446 347.6547 L170.9714 347.3842 L170.9718 346.8426 L171.2376 346.5742 L171.2316 346.305 M127.624 449.0482 L127.0972 450.3946 L126.024 450.6652 L125.4901 450.1263 L125.4772 449.6016 L126.2781 448.7772 L127.0845 448.7773 L127.624 449.0482 M124.3978 448.7916 L123.8698 449.8856 L123.0698 450.154 L122.7968 449.8844 L122.5295 449.3467 L122.7901 448.8075 L123.3235 448.5379 L124.1312 448.5389 L124.3978 448.7916 M212.3612 431.558 L212.0946 432.0809 L211.5608 432.3664 L211.0207 432.0814 L210.7545 431.8281 L210.7483 431.5716 L211.5547 431.2881 L212.3632 431.2869 L212.3612 431.558 M205.1005 429.714 L205.6396 430.2543 L204.2993 430.27 L204.0256 429.7304 L203.7459 429.1906 L204.0204 428.9214 L205.1005 429.714 M207.4889 425.1314 L207.4961 425.401 L206.6886 425.94 L206.1477 425.6876 L205.3417 425.1457 L205.3405 424.6079 L206.682 424.3369 L207.4889 425.1314 M232.7638 429.0246 L232.4971 429.8326 L232.2295 430.1028 L227.934 430.1196 L227.3941 429.5949 L227.6607 428.7868 L227.928 428.7849 L229.8087 428.5016 L231.1491 428.7718 L232.2232 428.7719 L232.7638 429.0246 M249.5672 403.6926 L249.0333 404.7555 L248.4954 405.0547 L247.9601 404.7561 L247.4142 403.9453 L247.4125 403.423 L247.6814 403.4222 L247.9528 403.4233 L248.7615 403.6913 L249.5672 403.6926 M237.5597 421.7476 L238.0995 422.0163 L238.1002 422.2689 L237.5662 422.5541 L237.3006 423.3632 L237.3054 423.9039 L237.0389 424.4436 L236.5046 424.7121 L235.6921 424.4414 L234.6184 423.6481 L234.0725 422.8378 L234.3384 422.3018 L235.145 421.7623 L237.5597 421.7476 M243.9897 417.1625 L243.7228 418.227 L242.3817 419.0349 L241.5761 419.0338 L240.7685 418.779 L241.3022 417.6874 L243.4495 416.877 L243.9897 417.1625 M254.9165 399.0912 L255.7312 399.3596 L256.2652 399.8848 L256.8106 400.9645 L257.6174 400.95 L258.1449 400.424 L258.9581 400.9479 L258.698 401.7864 L257.891 402.297 L257.0898 402.8366 L253.057 403.406 L252.7898 402.5974 L253.3223 402.0585 L253.8556 401.7891 L253.8507 399.8995 L254.3832 399.3606 L254.9165 399.0912 M256.5688 407.6932 L257.1162 408.741 L256.043 408.7702 L254.963 408.5009 L254.1548 407.7078 L254.1483 406.8843 L254.4151 406.3445 L255.2237 406.6126 L255.4957 407.1518 L256.5688 407.6932 M261.1315 406.0585 L261.1379 406.5968 L259.7914 406.5985 L258.7154 405.7903 L258.4434 405.2511 L258.7103 404.7113 L259.2433 404.7105 L259.7909 405.5188 L260.5907 405.52 L261.1315 406.0585 M255.5269 413.8817 L255.5276 414.676 L254.9931 414.9444 L254.4543 414.6886 L253.9134 414.1502 L253.907 413.3268 L254.1816 413.3262 L255.5269 413.8817 M268.342 394.4589 L268.6089 394.2045 L268.61 393.9032 L269.1426 393.6498 L269.416 393.6484 L269.6834 394.1886 L269.6893 395.2521 L268.876 396.0766 L268.0818 396.6174 L267.275 396.3462 L267.2686 395.8078 L267.2687 395.5514 L268.342 394.4589 M301.5114 346.7196 L301.5121 347.5283 L300.9852 347.7987 L300.1713 347.5302 L299.8981 346.9889 L299.8973 346.719 L299.8989 346.4632 L300.9721 346.4629 L301.5114 346.7196 M295.6088 353.4571 L295.3494 354.0116 L294.2693 354.011 L294.0018 353.7268 L293.7288 352.4069 L294.8031 352.4074 L295.6103 353.2013 L295.6088 353.4571 M248.5651 419.8117 L249.1108 420.6223 L248.5715 421.1598 L247.7631 420.8919 L246.1497 419.8295 L246.4117 418.7491 L246.6834 418.4818 L247.4904 418.7487 L248.5651 419.8117 M253.3606 410.3903 L253.3599 411.1837 L252.8266 411.7383 L252.0201 412.0092 L250.4116 412.0086 L249.0727 412.562 L247.9925 412.5614 L247.9927 412.0365 L247.9924 411.23 L249.0597 410.1337 L249.5933 409.5959 L250.3999 409.3249 L252.0154 409.3099 L253.0882 409.8344 L253.3606 410.3903 M321.2944 301.9578 L321.8366 302.4825 L321.568 302.7532 L320.7621 303.3079 L319.954 303.3091 L319.6821 302.7681 L320.2144 301.9574 L320.4884 301.9563 L321.2944 301.9578 M247.8093 429.4892 L247.81 430.027 L247.0014 430.0275 L246.4677 429.759 L246.1933 429.235 L246.461 428.9649 L247.536 428.9494 L247.8093 429.4892 M256.8953 419.2127 L257.1662 420.0528 L256.3604 420.5762 L255.8266 420.3076 L254.4794 419.7839 L254.2074 418.9886 L254.1995 418.4494 L254.741 417.9093 L255.2728 417.8953 L255.8129 417.8957 L256.8953 419.2127 M253.6858 423.2717 L253.959 424.0969 L253.4246 424.6214 L252.3453 423.8276 L252.3446 423.2897 L252.3445 422.7482 L253.1442 422.7493 L253.6858 423.2717 M291.8996 368.548 L291.6335 369.0891 L290.2913 369.359 L290.0256 369.3578 L290.0194 368.8191 L290.2854 368.5636 L290.8262 368.2788 L291.3529 368.0085 L291.6344 368.278 L291.8996 368.548 M283.6299 384.9832 L283.3626 385.5231 L282.5545 385.8095 L281.4809 385.8092 L280.4076 386.3473 L279.0668 386.8871 L278.5277 386.8874 L278.5197 385.8096 L279.3266 385.0007 L280.9412 384.9978 L281.7338 384.4599 L283.6214 384.4595 L283.6299 384.9832 M265.2036 414.3608 L264.9385 415.1829 L263.8637 415.9922 L262.528 417.3414 L261.4566 418.149 L260.3875 419.4834 L259.3137 419.4995 L259.3092 418.9587 L259.3076 418.1514 L258.7685 417.8788 L257.4203 417.6271 L256.8884 417.3557 L256.6152 416.8157 L256.881 416.5482 L258.2207 416.0081 L258.7549 415.7231 L259.8351 415.724 L261.1749 415.1839 L261.7083 414.9147 L263.0572 414.6586 L264.3906 413.8369 L265.1982 413.8357 L265.2036 414.3608 M262.0157 422.4342 L262.0163 422.9721 L261.2084 423.2417 L260.1351 422.4479 L259.8623 421.6394 L260.1268 421.371 L260.9355 421.3707 L261.476 421.909 L262.0157 422.4342 M258.2677 425.6832 L258.2732 426.4933 L257.7318 427.0333 L256.9324 427.0322 L256.6591 426.4922 L256.9259 425.9527 L257.194 425.4142 L257.4594 425.4151 L258.2677 425.6832 M294.6201 375.5225 L294.0807 376.3466 L293.5469 376.6157 L292.7388 376.6164 L292.467 376.0766 L292.7397 375.8055 L293.8134 375.2675 L294.3467 375.2672 L294.6201 375.5225 M293.5344 373.1073 L293.5332 373.4087 L291.6529 374.458 L290.8457 374.4718 L290.5797 373.9322 L289.7648 372.8679 L289.4984 372.597 L290.0325 372.0423 L290.5728 372.3286 L291.6538 372.8519 L291.9195 372.8531 L292.1864 372.5818 L293.5319 372.5837 L293.5344 373.1073 M291.8934 366.4188 L292.4339 366.1171 L292.4335 365.8642 L293.2405 365.8625 L294.0471 365.5789 L294.3155 365.8471 L294.582 366.1181 L294.3146 366.6583 L293.7813 367.1971 L293.2421 367.1973 L292.4338 367.198 L292.1673 366.9271 L291.8934 366.4188 M295.941 368.818 L295.4079 370.1521 L294.5944 370.4223 L294.3286 369.8826 L294.3263 369.0733 L294.5938 368.5332 L294.5952 368.2775 L295.4013 368.2627 L295.941 368.818 M289.2833 386.859 L290.3566 386.8426 L291.4361 387.6381 L291.7034 387.922 L291.1695 388.4476 L290.3635 388.4456 L289.5569 389.271 L288.749 389.2718 L288.2084 388.7328 L288.4816 388.1932 L289.0164 387.6517 L289.0162 387.1134 L289.2833 386.859 M283.1538 401.6662 L283.9656 402.4628 L283.6996 402.7303 L283.1594 402.7296 L282.3521 402.4619 L281.8125 401.9361 L282.0786 401.6687 L282.3461 401.6671 L283.1538 401.6662 M295.2243 393.5424 L295.2243 394.3371 L294.4169 394.8927 L293.8833 395.1617 L292.2691 394.9076 L291.1888 394.0992 L290.9167 392.7482 L290.9162 392.4954 L291.9909 391.3998 L293.3307 391.671 L294.6852 392.7477 L295.2243 393.5424 M294.1561 396.7823 L294.6965 397.3213 L294.1636 397.8599 L293.3566 398.1301 L293.0903 397.8594 L292.8153 397.3215 L292.8165 397.0492 L293.0827 396.7819 L293.6163 396.5129 L294.1561 396.7823 M272.9939 413.7884 L272.9938 414.0737 L272.4537 414.0731 L271.9132 413.7909 L271.6468 413.264 L271.6473 412.9956 L271.6405 412.7258 L272.1807 412.4701 L272.9858 412.9966 L272.9939 413.7884 M268.9841 419.9922 L268.9908 420.547 L268.1853 420.5454 L267.6435 420.2624 L267.3716 419.467 L267.6372 419.1828 L267.9118 419.1823 L268.9841 419.9922 M263.9096 425.9238 L263.9156 426.9864 L262.5755 428.0797 L262.0415 428.0794 L261.501 427.5412 L261.7541 426.7477 L261.7542 426.4626 L262.8355 425.923 L263.3687 425.6539 L263.9096 425.9238 M267.6638 424.8295 L268.2038 424.83 L269.2769 424.5614 L270.879 422.9416 L271.9532 422.9426 L272.4855 423.4668 L272.7717 424.5292 L272.2306 425.086 L270.8909 425.6254 L269.0169 426.4331 L267.9437 426.7015 L267.3973 426.4482 L267.1292 425.6391 L267.3969 425.3689 L267.6638 424.8295 M267.9496 428.0494 L267.6835 428.8582 L267.1481 429.3983 L266.3408 429.3995 L266.07 428.8736 L266.335 428.0517 L266.6037 427.7947 L267.4081 427.5269 L267.9496 428.0494 M292.8363 402.9693 L293.1078 403.7652 L292.3024 404.5745 L292.0336 404.5751 L291.7679 404.0359 L291.7619 403.2411 L291.7611 402.9716 L292.2967 402.6999 L292.8363 402.9693 M297.1232 399.1801 L296.8567 399.7329 L296.3239 400.2714 L295.783 400.2742 L295.5167 400.0034 L295.5099 399.1955 L296.044 398.3848 L296.3107 398.1137 L297.1173 398.3853 L297.1232 399.1801 M302.4925 396.4824 L302.2269 397.0192 L301.6847 397.021 L300.6053 396.482 L299.7995 395.6852 L299.5253 394.8787 L299.5265 394.6064 L299.7913 394.338 L300.3395 394.3365 L301.6799 395.6722 L302.4925 396.4824 M304.1322 403.1961 L303.8599 403.7486 L303.3177 403.7504 L302.7847 403.7506 L302.5122 402.9248 L302.7785 402.401 L303.046 402.3995 L303.5862 402.4005 L304.1327 402.6543 L304.1322 403.1961 M316.7858 323.7814 L317.3268 324.8608 L316.5181 325.9272 L315.9852 326.2142 L315.4449 325.9441 L315.1723 325.6724 L314.9044 324.861 L314.3578 324.3374 L314.9 323.5097 L315.9707 322.7153 L316.2392 322.4448 L317.3183 322.6852 L316.7858 323.7814 M323.7743 319.7261 L323.7755 320.2663 L322.7003 321.0781 L321.3526 321.6182 L320.547 321.0775 L320.5399 319.9979 L321.0805 319.4552 L321.3459 319.1865 L322.1544 318.9162 L322.9608 318.914 L323.7743 319.7261 M322.1611 322.9534 L321.9003 323.4951 L320.8265 324.0341 L320.013 324.0351 L319.7461 323.5104 L319.7455 323.2404 L320.8189 322.6845 L321.6267 322.6833 L322.1611 322.9534 M311.9638 331.8729 L311.6973 332.9535 L311.1498 332.9559 L310.8825 332.4146 L311.1506 331.6172 L311.149 331.3341 L311.6907 331.3314 L311.9566 331.3327 L311.9638 331.8729 M322.1484 317.0365 L321.6143 317.8496 L320.8065 318.3901 L320.2667 318.3899 L320.2667 317.8507 L320.2674 317.3077 L320.5334 317.3091 L321.074 316.7663 L321.6138 316.7665 L322.1484 317.0365 M337.5174 323.1774 L337.7909 323.9893 L337.5176 324.2604 L336.7172 323.9887 L335.9029 322.9102 L336.1692 322.6547 L336.9779 322.6379 L337.5174 323.1774 M361.4584 170.9422 L360.9175 171.7586 L360.1053 172.2993 L359.0251 172.3 L358.2171 172.8437 L357.6774 173.1152 L356.8638 172.5717 L356.5915 172.0288 L356.5911 171.2286 L357.1258 170.6868 L358.4788 169.3296 L359.5587 169.0578 L360.3719 169.3303 L361.4511 169.8744 L361.4584 170.9422 M334.5334 212.6148 L334.8057 213.157 L334.2671 213.6993 L333.7191 213.7146 L332.6466 213.1719 L332.3738 212.3588 L332.3732 212.088 L333.1795 212.0887 L333.7199 211.8182 L334.5334 212.6148 M329.9453 214.783 L329.9535 215.8665 L329.6781 215.8835 L328.3323 215.8835 L327.2452 215.613 L326.7058 214.7986 L326.7052 214.5278 L327.2459 213.9996 L328.3257 213.9859 L329.9453 214.783 M356.1085 199.332 L355.3088 202.5704 L353.9543 203.113 L352.6036 202.5845 L352.0626 202.0263 L352.3298 200.9584 L352.0627 200.686 L350.9762 200.1449 L350.1624 199.0769 L349.8894 197.4638 L350.1626 196.6501 L351.5081 196.1088 L353.4021 195.8233 L354.2097 196.0917 L355.5623 196.8922 L356.1038 197.9755 L356.1085 199.332 M339.4068 218.0046 L339.4142 218.8171 L338.8668 218.5457 L338.0583 218.2768 L338.0535 217.1917 L338.0521 216.9369 L338.3259 216.665 L339.141 217.7333 L339.4068 218.0046 M356.1236 205.0085 L356.1222 205.5361 L354.7683 205.5379 L354.5035 205.2797 L354.2285 205.0098 L354.2281 204.7389 L354.7688 204.4686 L355.583 204.4672 L356.1236 205.0085 M360.9767 201.7546 L361.2501 202.2982 L360.4372 202.5545 L359.6231 202.0272 L359.0821 201.2149 L360.4361 200.9592 L360.9767 201.7546 M390.4068 186.5694 L390.9455 187.3851 L390.1319 188.4699 L390.6786 189.554 L390.14 189.8091 L389.3196 189.8096 L388.786 189.2811 L388.5121 188.4699 L388.7849 187.9262 L389.3182 187.113 L389.5915 186.8571 L390.4068 186.5694 M393.9262 194.6761 L393.6582 195.4899 L392.8459 195.7588 L392.5723 195.2187 L392.5719 194.6768 L392.8452 194.421 L393.1133 194.1322 L393.9262 194.6761 M418.2342 183.841 L418.7744 184.3833 L418.5072 184.6562 L418.5081 184.9403 L417.6948 184.9416 L417.1525 184.3851 L417.427 183.8425 L418.2342 183.841 M423.6417 187.3516 L423.3745 187.8954 L422.2946 187.8947 L421.7546 187.6234 L421.2076 187.0967 L421.4798 186.8109 L422.5606 186.5539 L422.8329 186.2681 L423.3748 186.2657 L423.9148 186.8081 L423.6417 187.3516 M432.2885 179.5172 L432.2884 180.0593 L431.7484 180.3298 L430.9338 179.5168 L430.6684 178.9737 L431.2084 178.4321 L431.7472 178.7026 L432.2885 179.5172 M432.0221 183.2974 L432.0202 184.1132 L431.2089 184.6536 L430.127 184.3844 L430.129 183.5686 L430.6689 182.756 L431.2088 182.4854 L431.7475 182.7559 L432.0221 183.2974 M436.616 178.4299 L436.8827 179.245 L436.614 179.5168 L435.8026 179.244 L435.534 178.7026 L435.534 178.4316 L435.2616 178.1751 L435.8016 178.1757 L436.616 178.4299 M432.828 186.2679 L432.5625 186.8088 L431.4807 187.3526 L431.4826 186.2659 L432.0226 185.4534 L432.2889 185.1965 L432.8288 185.197 L433.1012 185.4534 L432.828 186.2679 M434.1817 181.9564 L434.1808 182.4854 L433.3675 182.4864 L433.1011 181.9592 L432.8276 181.6728 L433.102 181.4303 L433.9095 181.6711 L434.1817 181.9564 M450.1278 174.6488 L450.4022 175.1904 L450.1285 176.005 L449.857 176.5458 L449.0496 176.5468 L448.5096 176.2751 L449.0485 175.7326 L449.5887 175.4622 L449.5889 174.9201 L449.3162 174.9178 L449.8564 174.6474 L450.1278 174.6488 M447.1564 180.8717 L446.8819 181.4312 L446.3428 181.9566 L445.5353 181.6698 L445.2622 181.1292 L445.5344 180.8726 L445.8032 180.6009 L446.6165 180.6001 L447.1564 180.8717 M451.2094 180.0573 L451.2092 180.5993 L450.6694 181.1285 L449.8571 180.8714 L449.0487 180.0583 L449.0489 179.5162 L449.049 179.2452 L449.5878 178.9738 L450.941 179.2448 L451.2094 180.0573 M452.8296 182.2117 L452.562 182.7554 L451.4773 183.0257 L451.2087 182.7553 L451.4763 182.2117 L452.29 181.9569 L452.8296 182.2117 M460.13 184.3822 L460.3964 185.1972 L459.5831 185.1979 L459.0434 184.6551 L458.7768 184.3819 L458.7771 183.8399 L459.3171 183.8407 L460.13 184.3822 M471.4704 187.6214 L471.4708 188.7063 L470.6636 188.7069 L470.3914 188.1625 L470.1245 187.622 L470.3969 187.3657 L470.9369 187.3666 L471.4704 187.6214 M478.7708 186.0409 L478.5049 186.8236 L477.9652 186.5516 L477.4238 185.4814 L477.4243 184.9394 L477.6922 184.396 L478.237 184.1252 L479.0449 184.9388 L478.7708 186.0409 M498.7722 190.6193 L498.7736 191.1754 L497.9522 191.4487 L497.4131 190.9056 L497.1459 190.6191 L497.1452 190.364 L497.687 190.3625 L498.7722 190.6193 M510.1062 193.6322 L510.1068 193.8872 L509.2995 194.175 L508.7545 193.6315 L508.4868 193.0899 L508.4881 192.8321 L509.3012 192.8325 L510.1062 193.6322 M396.3203 162.5003 L396.3207 163.0426 L395.7805 163.0425 L394.9735 162.7864 L394.9731 162.2441 L395.5071 161.9728 L396.3203 162.5003 M258.3721 212.0915 L258.3727 212.8898 L257.5651 212.8894 L257.0189 212.0924 L256.2113 212.092 L255.6725 211.82 L255.6647 211.5649 L255.9336 211.0065 L257.2868 211.0056 L257.8255 211.2776 L258.3721 212.0915 M263.7284 202.0753 L263.7283 202.6198 L262.9205 202.6192 L262.6474 202.0772 L262.3753 201.2616 L262.3758 200.9917 L262.9156 200.9902 L263.1822 200.9912 L263.7284 202.0753 M266.6824 197.4666 L266.4098 198.01 L265.8686 198.0104 L265.3298 197.7382 L265.0567 197.1961 L265.0572 196.3816 L265.3221 195.8408 L265.3235 195.2972 L265.0504 194.755 L265.0425 194.4998 L265.5829 194.2284 L266.3972 194.4833 L266.936 195.0423 L266.4031 195.8389 L266.6751 196.6547 L266.6824 197.4666 M252.6913 209.9534 L252.4254 210.7508 L252.1519 211.0231 L251.3444 211.0229 L251.0725 210.2243 L251.0668 209.6966 L251.0668 209.4099 L251.6059 209.1543 L252.4204 209.1389 L252.6913 209.9534 M258.8408 196.4136 L259.1158 197.4975 L258.8482 197.7701 L258.0367 197.4968 L257.4891 196.4117 L257.4829 195.3429 L257.7545 195.0731 L258.0225 194.8173 L258.5621 195.0567 L258.8362 195.8697 L258.8408 196.4136 M255.8232 187.51 L255.8248 188.322 L254.7508 188.0675 L253.9368 188.0671 L253.3968 187.7817 L253.1238 186.7117 L253.6563 186.1849 L253.9309 185.8964 L254.7376 185.8958 L255.8232 187.51 M256.6237 184.27 L256.6244 185.0689 L256.3576 185.3548 L255.8176 184.8116 L255.5443 184.2694 L255.5378 183.7281 L255.5368 183.4571 L256.0782 183.4566 L256.6237 184.27 M252.5703 185.0984 L252.5759 185.9133 L251.77 186.455 L250.9573 186.4554 L250.683 185.6423 L250.95 185.1154 L251.2167 184.5716 L251.4903 184.5568 L252.0317 184.5562 L252.5703 185.0984 M257.6536 173.7202 L257.9269 174.2625 L257.1268 174.5343 L256.3068 174.5335 L255.7671 174.0071 L256.0338 173.7211 L257.3871 173.449 L257.6536 173.7202 M253.0733 176.4489 L253.3455 177.2482 L252.806 177.533 L252.5328 177.2486 L251.9929 176.1774 L251.986 175.9061 L252.5332 175.9056 L253.0733 176.4489 M258.1676 167.5094 L258.1676 168.0544 L256.2806 168.5825 L255.4621 167.5096 L255.4614 166.9683 L255.7273 166.6982 L256.5402 166.6978 L257.0814 166.9674 L257.8942 166.967 L258.1676 167.5094 M253.5937 172.1072 L253.3339 172.6355 L252.5128 172.9376 L251.9726 172.3943 L251.9669 171.579 L251.9653 171.0537 L253.0473 170.4944 L253.5868 170.4965 L254.1257 171.0389 L253.8608 171.5801 L253.5937 172.1072 M253.7417 203.7324 L254.2871 204.5454 L254.0127 204.547 L252.9337 204.5464 L252.1198 203.4776 L252.1197 203.1907 L253.4685 203.1905 L253.7417 203.7324" stroke-dasharray="" fill="#808080" fill-opacity="1.0" stroke="none" stroke-opacity="1.0" stroke-width="0.0px" stroke-linecap="butt" stroke-linejoin="miter" stroke-dashoffset="0.0px"/>
</g>
</svg>