<?xml version="1.0" standalone="no"?>
<!DOCTYPE svg PUBLIC "-//W3C//DTD SVG 1.1//EN" "http://www.w3.org/Graphics/SVG/1.1/DTD/svg11.dtd">
<svg width="512px" height="512px" version="1.1" xmlns="http://www.w3.org/2000/svg" xmlns:inkscape="http://www.inkscape.org/namespaces/inkscape">
<g id="layer" inkscape:groupmode="layer" inkscape:label="layer">
<path d="M7.5747 42.9319 L31.3581 73.203 L32.4392 72.4215 L44.0944 88.1562 L42.9458 88.9378 L44.6349 91.2302 L45.7836 90.3966 L57.3375 106.0792 L56.2226 106.9128 L57.878 109.1532 L59.0266 108.3717 L70.6481 124.1064 L69.567 124.94 L71.4589 127.5972 L72.6075 126.7636 L83.9925 142.1335 L82.8438 142.9672 L84.533 145.2596 L85.6816 144.3739 L97.3031 160.2128 L78.6209 173.9155 L77.7425 172.7692 L75.5129 174.4365 L76.3237 175.5827 L63.8576 184.7005 L63.0468 183.5543 L60.7833 185.2215 L61.6279 186.3156 L49.1619 195.4855 L48.3511 194.3393 L46.0201 196.0586 L46.8646 197.2048 L33.3175 207.1041 L32.5067 205.9579 L30.2433 207.6251 L31.0878 208.7714 L17.6759 218.6185 L16.8651 217.4723 L14.8043 218.9311 L57.5739 277.3368 L59.6347 275.8779 L57.9455 273.5855 L71.121 263.9467 L71.9318 265.0409 L74.1953 263.4257 L73.3845 262.2795 L86.5262 252.6929 L87.3708 253.8391 L89.6005 252.1197 L88.7897 250.9735 L103.7895 240.0322 L104.6003 241.1784 L106.8975 239.4591 L106.0867 238.365 L119.4311 228.5699 L120.2419 229.7161 L122.5054 228.0489 L121.6946 226.9027 L135.9511 216.4824 L146.8969 231.4876 L145.7483 232.2691 L147.3699 234.5616 L148.5185 233.728 L160.0048 249.5668 L158.8562 250.3483 L160.5454 252.6408 L161.694 251.755 L172.6398 266.8644 L83.6208 331.991 L125.4107 389.5107 L215.0716 325.4783 L224.2606 338.0868 L223.1458 338.8684 L224.7674 341.1608 L225.916 340.3272 L236.9969 355.5407 L235.9158 356.3222 L237.5374 358.6147 L238.6861 357.7811 L251.1859 374.9745 L237.4361 384.8737 L236.6253 383.7274 L234.2267 385.4989 L235.0375 386.593 L221.8958 396.2317 L221.0512 395.0855 L218.6188 396.8048 L219.4634 397.951 L206.0176 407.746 L205.2068 406.5998 L202.7407 408.3712 L203.5515 409.5175 L190.3422 419.1562 L189.5314 418.0099 L187.099 419.7814 L187.9436 420.8755 L174.3627 430.7747 L173.5519 429.6285 L171.0857 431.3999 L171.8965 432.5461 L158.6535 442.1848 L157.8427 441.0386 L155.3765 442.81 L156.2549 443.9562 L143.2483 453.3344 L141.5929 451.0941 L139.397 452.7092 L182.6058 512.0 L184.8355 510.3849 L184.0247 509.2908 L198.3151 499.2353 L199.1259 500.3815 L201.5583 498.6101 L200.7475 497.4639 L213.9905 487.9294 L214.7675 489.0756 L217.2337 487.3042 L216.4229 486.158 L229.7335 476.5193 L230.5443 477.6655 L232.9767 475.8941 L232.1659 474.7479 L246.0846 464.6403 L246.9292 465.7865 L249.3278 464.0151 L248.517 462.921 L261.3884 453.5949 L262.233 454.7411 L264.6654 452.9697 L263.8208 451.8235 L276.4896 442.6537 L277.3004 443.7999 L279.699 442.0806 L278.8882 440.9344 L292.0636 431.3999 L305.8472 450.1041 L304.6648 450.8857 L306.4215 453.3344 L307.5702 452.5008 L318.3133 467.6101 L317.1308 468.4437 L318.8876 470.8924 L320.0024 470.1109 L327.1645 480.1664 L323.1105 483.0319 L328.3469 490.4823 L332.4684 487.5126 L346.725 507.6235 L378.8529 484.4907 L502.8375 395.0334 L504.4253 393.835 L258.0101 55.8532 L241.4225 67.9408 L245.9495 74.1409 L178.5856 123.6896 L173.9911 117.4895 L159.1265 128.535 L154.3292 121.9702 L155.4779 121.1366 L153.8225 118.8441 L152.6739 119.6777 L141.1538 103.8388 L142.3024 103.0052 L140.647 100.7127 L139.5322 101.5464 L127.9783 85.6032 L129.0593 84.8217 L127.4377 82.5813 L126.2891 83.3629 L114.8028 67.5239 L115.9514 66.7424 L114.3298 64.4499 L113.1812 65.2315 L101.6611 49.4446 L102.776 48.611 L101.1544 46.3706 L100.0057 47.1522 L88.4856 31.3132 L89.6343 30.4796 L66.6954 0.0 L7.5747 42.9319" stroke-dasharray="" fill="none" fill-opacity="1.0" stroke="#ff0000" stroke-opacity="1.0" stroke-width="1.0px" stroke-linecap="butt" stroke-linejoin="miter" stroke-dashoffset="0.0px"/>
</g>
</svg>