<?xml version="1.0" standalone="no"?>
<!DOCTYPE svg PUBLIC "-//W3C//DTD SVG 1.1//EN" "http://www.w3.org/Graphics/SVG/1.1/DTD/svg11.dtd">
<svg width="512px" height="512px" version="1.1" xmlns="http://www.w3.org/2000/svg" xmlns:inkscape="http://www.inkscape.org/namespaces/inkscape">
<g id="layer" inkscape:groupmode="layer" inkscape:label="layer">
<path d="M0.0 113.3069 L307.6588 482.346 L512.0 312.7647 L476.7656 270.5116 L373.3563 357.4363 L100.0143 29.654 L0.0 113.3069 M34.9591 122.981 L35.0509 116.579 L36.152 110.177 L38.1706 104.0596 L41.1986 98.5111 L45.0523 93.3895 L49.6401 88.837 L54.8703 85.1381 L60.5591 82.435 L66.7068 80.4433 L72.9462 79.5897 L79.3692 79.7319 L85.6086 80.8701 L91.6645 82.8618 L97.2616 85.8494 L102.4 89.6906 L106.8043 94.2431 L110.4746 99.507 L113.319 105.1977 L115.2459 111.3152 L116.1634 117.5749 L116.0717 123.9769 L114.9706 130.3789 L112.952 136.3541 L110.0158 142.0448 L106.162 147.1664 L101.6659 151.5767 L96.4358 155.4179 L90.6552 158.2632 L84.5993 160.1127 L78.2681 161.1085 L71.8452 160.9663 L65.514 159.8281 L59.4581 157.8364 L53.8609 154.8488 L48.7226 151.0076 L44.2265 146.4551 L40.5563 141.1912 L37.7118 135.3583 L35.7849 129.2408 L34.9591 122.981 M105.9785 185.7207 L106.162 180.8836 L107.2631 176.1888 L109.3735 171.9208 L112.3097 168.0796 L115.9799 164.9497 L120.2007 162.8157 L124.7885 161.3931 L129.5599 161.1085 L134.3312 161.6776 L138.8272 163.3848 L142.8645 165.9456 L146.2595 169.2177 L149.0122 173.2012 L150.8473 177.6115 L151.6731 182.3063 L151.4896 187.1433 L150.3885 191.8381 L148.2781 196.1061 L145.3419 199.9473 L141.6717 202.9349 L137.4509 205.2112 L132.8631 206.6339 L128.0918 206.9184 L123.3204 206.3493 L118.8244 204.6421 L114.7871 202.0813 L111.3004 198.8092 L108.6394 194.8257 L106.8043 190.4155 L105.9785 185.7207 M154.7928 244.3345 L154.9763 239.4975 L156.1692 234.8027 L158.3713 230.5347 L161.3075 226.6935 L165.0695 223.5636 L169.2903 221.4296 L173.9699 220.1492 L178.7412 219.7224 L183.5125 220.4337 L188.0086 222.1409 L192.1376 224.7017 L195.5326 228.1161 L198.1935 232.0996 L200.0287 236.6521 L200.7627 241.3469 L200.5792 246.184 L199.3864 250.8788 L197.276 255.1468 L194.248 258.988 L190.5778 262.1178 L186.357 264.2518 L181.6774 265.6745 L176.9061 265.959 L172.1348 265.2477 L167.547 263.5405 L163.5097 260.9797 L160.0229 257.5653 L157.362 253.5818 L155.6186 249.1716 L154.7928 244.3345 M233.2444 341.6448 L233.9785 336.5232 L235.6301 331.5439 L238.1993 326.9913 L241.5025 323.0079 L245.448 319.7357 L250.0358 317.175 L254.8989 315.61 L260.0373 314.8987 L265.1756 315.1832 L270.2222 316.3214 L274.9935 318.4553 L279.2143 321.3007 L282.8846 324.9996 L285.8208 329.2676 L287.8394 334.1047 L289.0323 339.084 L289.2158 344.3478 L288.5735 349.4694 L286.8301 354.3065 L284.3527 358.859 L281.0495 362.8425 L277.0122 366.1146 L272.5161 368.6754 L267.5613 370.3826 L262.5147 371.0939 L257.2846 370.8094 L252.238 369.529 L247.5584 367.5372 L243.2459 364.5496 L239.6674 360.8507 L236.7312 356.5827 L234.6208 351.8879 L233.5197 346.7664 L233.2444 341.6448 M290.5004 410.3594 L291.1427 405.0955 L292.7943 400.2585 L295.3634 395.706 L298.6667 391.7225 L302.7039 388.4504 L307.2 385.8896 L312.0631 384.1824 L317.2014 383.4711 L322.4315 383.7556 L327.4781 384.8937 L332.1577 387.0277 L336.4703 390.0153 L340.1405 393.572 L343.0767 397.9822 L345.0953 402.677 L346.2882 407.7986 L346.5634 412.9202 L345.8294 418.0418 L344.1778 423.0211 L341.7004 427.5736 L338.3054 431.557 L334.3599 434.8292 L329.8638 437.39 L324.909 439.0971 L319.7706 439.8085 L314.6323 439.5239 L309.5857 438.2436 L304.8143 436.2518 L300.5935 433.2642 L296.9233 429.5653 L293.9871 425.2973 L291.8767 420.6025 L290.6839 415.481 L290.5004 410.3594" stroke-dasharray="" fill="none" fill-opacity="1.0" stroke="#ff0000" stroke-opacity="1.0" stroke-width="1.0px" stroke-linecap="butt" stroke-linejoin="miter" stroke-dashoffset="0.0px"/>
</g>
</svg>