<?xml version="1.0" standalone="no"?>
<!DOCTYPE svg PUBLIC "-//W3C//DTD SVG 1.1//EN" "http://www.w3.org/Graphics/SVG/1.1/DTD/svg11.dtd">
<svg width="512px" height="512px" version="1.1" xmlns="http://www.w3.org/2000/svg" xmlns:inkscape="http://www.inkscape.org/namespaces/inkscape">
<g id="layer" inkscape:groupmode="layer" inkscape:label="layer">
<path d="M0.0 281.9489 L40.1423 282.9977 L40.1107 283.5661 L41.9581 283.5857 L41.9834 283.0369 L47.962 283.2329 L47.9557 283.7131 L48.4682 283.7327 L48.4935 283.2525 L56.6738 283.4583 L56.7117 283.9582 L57.2305 283.968 L57.1989 283.4583 L65.4678 283.6641 L65.4931 284.1738 L66.0119 284.1836 L65.9992 283.6739 L74.2681 283.87 L74.2681 284.3992 L74.7932 284.409 L74.7363 283.8896 L469.5801 294.1612 L469.5801 294.6709 L470.1242 294.6905 L470.1115 294.171 L478.412 294.4062 L478.393 294.8963 L478.9245 294.9159 L478.9371 294.416 L487.1744 294.6611 L487.1427 295.1511 L487.6932 295.1315 L487.7248 294.6709 L496.0127 294.9061 L495.9747 295.3864 L496.5251 295.3766 L496.5567 294.9257 L504.9522 295.1609 L510.9814 295.3373 L512.0 242.3127 L510.3804 242.2833 L497.6449 241.9304 L497.6512 241.4012 L497.1325 241.3914 L497.1135 241.9108 L488.8319 241.6854 L488.8446 241.1561 L488.3195 241.1463 L488.3005 241.6756 L484.1376 241.558 L471.5223 241.2541 L471.5919 240.7151 L471.0352 240.6857 L470.9972 241.2345 L462.76 241.0189 L462.7853 240.4994 L462.2349 240.4798 L462.2602 241.0091 L453.9976 240.7837 L454.004 240.2642 L453.4662 240.274 L453.4029 240.7837 L445.1657 240.5583 L445.1847 240.029 L444.6722 240.0486 L444.6469 240.5485 L436.3337 240.323 L436.3907 239.7938 L435.8213 239.784 L435.8086 240.3132 L427.584 240.0976 L427.622 239.5977 L427.0716 239.5487 L427.0589 240.078 L392.4777 239.1665 L392.484 238.647 L391.9652 238.6274 L391.9462 239.1567 L374.8897 238.7156 L374.915 238.2255 L374.3582 238.1961 L374.3772 238.7156 L366.0767 238.4706 L366.0894 237.9413 L365.5643 237.9315 L365.5453 238.4608 L357.3144 238.2452 L357.3333 237.7159 L356.7892 237.7355 L356.7956 238.2354 L348.552 238.0491 L348.5393 237.5199 L348.0079 237.5003 L348.0016 238.0001 L339.7833 237.8041 L339.7707 237.2846 L339.2772 237.2454 L339.2582 237.7747 L330.9577 237.5689 L330.9767 237.0494 L330.4389 237.0298 L330.4642 237.5395 L322.2333 237.3238 L322.2523 236.7848 L321.7208 236.7848 L321.7019 237.3042 L317.849 237.1768 L273.2653 236.0007 L269.6655 235.9124 L269.6845 235.4126 L269.153 235.3734 L269.1467 235.9026 L260.9537 235.687 L260.9664 235.1577 L260.435 235.1381 L260.4223 235.6772 L252.0648 235.4518 L252.0775 234.9225 L251.5461 234.9127 L251.5271 235.4322 L243.2456 235.2166 L243.2519 234.6971 L242.7964 234.6775 L242.7774 235.2067 L234.4958 234.9813 L234.5148 234.4619 L233.9644 234.4422 L233.9581 234.9715 L225.6829 234.7559 L225.7019 234.2266 L225.2021 234.2168 L225.1894 234.7363 L216.9205 234.5207 L216.9395 233.9914 L216.427 233.9718 L216.4081 234.5109 L208.0949 234.2854 L208.1012 233.7562 L207.5761 233.7464 L207.5635 234.2756 L199.4211 234.06 L199.3958 233.5503 L198.8707 233.5111 L198.8897 234.0404 L190.5449 233.8248 L190.5639 233.2857 L190.0261 233.2857 L190.0134 233.8052 L181.7699 233.5895 L181.7888 233.0603 L181.2574 233.0407 L181.2384 233.5797 L172.9569 233.3543 L172.9759 232.825 L172.4444 232.8152 L172.4255 233.3445 L164.1629 233.1191 L164.1692 232.5996 L163.6378 232.58 L163.6251 233.1093 L155.3499 232.8936 L155.3626 232.3644 L154.9134 232.3448 L154.9071 232.874 L146.6509 232.6584 L146.6698 232.1291 L146.0308 232.1193 L146.0245 232.6388 L137.7873 232.4232 L137.7999 231.8939 L137.2558 231.8743 L137.2369 232.4134 L128.9996 232.1879 L129.0186 231.6685 L128.4302 231.6391 L128.4176 232.1781 L120.1866 231.9625 L120.193 231.4332 L119.6742 231.4136 L119.6552 231.9429 L111.3737 231.7273 L111.3926 231.198 L110.8675 231.1882 L110.8612 231.7077 L93.7667 231.2666 L93.7794 230.7276 L93.2543 230.7178 L93.2353 231.247 L84.9601 231.0216 L84.979 230.4923 L84.4476 230.4825 L84.4286 231.0118 L76.2167 230.7962 L76.2293 230.2669 L75.7042 230.2571 L75.6916 230.7766 L67.4164 230.5609 L67.4227 230.0317 L66.9039 230.0219 L66.8849 230.5511 L61.5706 230.4041 L61.7224 224.4155 L33.1767 223.6706 L33.3412 217.4272 L1.7145 216.6136 L0.0 281.9489" stroke-dasharray="" fill="none" fill-opacity="1.0" stroke="#ff0000" stroke-opacity="1.0" stroke-width="1.0px" stroke-linecap="butt" stroke-linejoin="miter" stroke-dashoffset="0.0px"/>
</g>
</svg>