<?xml version="1.0" standalone="no"?>
<!DOCTYPE svg PUBLIC "-//W3C//DTD SVG 1.1//EN" "http://www.w3.org/Graphics/SVG/1.1/DTD/svg11.dtd">
<svg width="512px" height="512px" version="1.1" xmlns="http://www.w3.org/2000/svg" xmlns:inkscape="http://www.inkscape.org/namespaces/inkscape">
<g id="layer" inkscape:groupmode="layer" inkscape:label="layer">
<path d="M0.0 356.4805 L0.0948 358.8465 L0.6165 361.0646 L1.5649 363.1348 L2.8927 364.9832 L4.5524 366.6098 L6.4966 367.9407 L8.7254 368.8279 L11.049 369.2715 L13.42 369.1976 L15.7911 368.754 L17.925 367.7928 L19.9166 366.388 L51.3091 390.7871 L95.1731 413.5595 L132.3508 425.3894 L134.627 425.6112 L136.9032 425.2415 L139.0371 424.5021 L140.9814 423.2452 L142.5937 421.6186 L143.7792 419.6963 L144.5379 417.4782 L144.8225 415.2601 L168.3431 418.5133 L168.2008 420.8053 L168.4379 423.0973 L169.0544 425.3154 L170.145 427.3117 L171.5202 429.0862 L173.2274 430.6389 L175.219 431.7479 L177.353 432.5612 L179.6292 432.9309 L181.9528 432.857 L184.229 432.2655 L186.3629 431.3043 L188.3071 429.9734 L189.9194 428.3468 L191.2472 426.3505 L192.1482 424.2064 L192.6224 421.9144 L192.6698 419.5484 L216.3801 418.0697 L216.4749 420.2878 L216.9966 422.4319 L217.9924 424.3543 L219.3676 426.1287 L221.0747 427.5335 L223.019 428.5686 L256.4031 423.0973 L303.0175 405.6483 L344.7476 379.253 L346.6444 380.8796 L348.8258 382.0626 L351.2442 382.728 L353.7575 382.9498 L356.2234 382.654 L358.5944 381.7668 L360.7284 380.4359 L362.4355 378.8833 L363.8107 376.9609 L364.8065 374.8907 L365.3756 372.5987 L365.5178 370.2327 L365.1859 367.9407 L303.3494 298.588 L332.3708 271.3793 L359.5903 292.0816 L364.4272 287.2018 L445.137 374.521 L508.1589 316.2589 L509.7238 314.4844 L510.9093 312.4882 L511.6681 310.2701 L512.0 307.978 L511.9052 305.612 L511.3835 303.3939 L510.3877 301.2498 L509.0599 299.3274 L507.4002 297.7747 L505.4085 296.5178 L503.2746 295.6306 L500.9984 295.187 L492.3679 297.8487 L433.3293 233.8194 L431.8592 232.4146 L430.1521 231.3795 L428.2553 230.714 L426.2636 230.3443 L424.2245 230.4183 L422.2803 230.8619 L420.4309 231.6752 L403.0275 212.8213 L404.8295 211.3426 L406.2995 209.4941 L407.3902 207.4239 L408.1015 205.2058 L408.3386 202.8398 L408.1489 200.4738 L407.5325 198.2557 L406.4892 196.1115 L405.0666 194.2631 L403.312 192.7104 L401.3204 191.5274 L399.139 190.7881 L396.8154 190.4184 L394.4918 190.4923 L392.263 190.936 L390.1291 191.8971 L388.1849 193.1541 L386.5251 194.8546 L369.1218 175.9267 L370.2125 174.0783 L370.8764 172.0081 L371.066 169.79 L370.7815 167.6458 L309.2296 98.8843 L310.6048 96.9619 L311.6006 94.8177 L312.1697 92.5257 L312.3119 90.1597 L312.0274 87.7937 L311.2687 85.5756 L310.1306 83.5053 L308.5657 81.6569 L306.7637 80.1782 L304.6772 79.0691 L292.253 81.3612 L229.0414 139.9194 L309.5615 227.3869 L304.4875 232.0449 L322.4599 260.7324 L293.486 287.8672 L195.7047 181.6938 L194.3295 180.5108 L192.6698 179.6975 L190.9153 179.2539 L189.0659 179.2539 L92.5176 266.2777 L120.0215 289.1241 L144.206 301.028 L163.6484 306.5732 L177.8746 308.6434 L177.1633 324.6138 L152.9788 320.4733 L147.9522 339.7708 L132.2086 335.0389 L120.4483 330.159 L88.8662 311.453 L66.1517 290.8247 L3.7936 348.4214 L2.2762 350.1219 L1.1381 352.0443 L0.3319 354.2624 L0.0 356.4805 M191.674 325.3531 L192.3379 309.3828 L226.7178 304.2812 L251.5188 294.3736 L262.6152 287.8672 L269.7757 282.1741 L294.1973 309.4567 L257.968 331.2681 L219.3202 343.024 L216.2853 323.209 L191.674 325.3531" stroke-dasharray="" fill="none" fill-opacity="1.0" stroke="#ff0000" stroke-opacity="1.0" stroke-width="1.0px" stroke-linecap="butt" stroke-linejoin="miter" stroke-dashoffset="0.0px"/>
</g>
</svg>