<?xml version="1.0" standalone="no"?>
<!DOCTYPE svg PUBLIC "-//W3C//DTD SVG 1.1//EN" "http://www.w3.org/Graphics/SVG/1.1/DTD/svg11.dtd">
<svg width="512px" height="512px" version="1.1" xmlns="http://www.w3.org/2000/svg" xmlns:inkscape="http://www.inkscape.org/namespaces/inkscape">
<g id="layer" inkscape:groupmode="layer" inkscape:label="layer">
<path d="M0.0 441.8 L0.5352 443.7864 L0.9167 444.949 L3.2565 447.1321 L3.7943 449.7051 L5.3859 451.9654 L9.5176 445.8383 L15.7619 441.9859 L14.3005 444.2747 L14.9316 445.2369 L12.3302 448.7539 L10.6983 451.254 L12.8558 454.5923 L10.3792 453.8744 L10.1248 455.9371 L9.1154 458.3117 L10.7569 462.9166 L31.6765 465.1043 L35.8992 458.616 L54.54 440.0783 L57.6811 439.6661 L74.3139 450.3254 L96.199 427.4108 L78.0214 409.542 L84.9732 407.7912 L93.2386 393.6107 L100.5244 406.2463 L124.6238 420.2013 L127.2501 420.3558 L132.348 423.0335 L168.9605 414.7431 L175.7577 416.0819 L192.5962 404.4958 L198.4153 374.0108 L207.3752 360.5194 L252.5744 355.6147 L251.6603 338.0165 L281.8873 308.3042 L298.6486 308.3068 L319.4268 311.6514 L334.1542 305.0085 L346.5128 305.1117 L359.3381 311.5346 L359.8526 311.2979 L361.1629 311.3902 L361.6061 310.6239 L362.3035 309.7245 L363.3877 308.499 L363.6712 308.3338 L363.9608 308.0595 L364.0748 307.6995 L364.37 307.3421 L365.9536 305.7336 L366.2495 305.5968 L366.65 305.5589 L366.8204 305.4838 L366.9032 305.3871 L366.8888 305.1281 L366.8243 304.8575 L366.9042 304.6587 L367.1593 304.437 L367.4201 304.4519 L367.5692 304.3589 L367.5624 304.1816 L367.8437 303.9245 L368.717 303.4963 L369.1696 303.4536 L369.4369 303.4678 L369.746 303.5773 L370.1811 303.803 L370.6656 303.8891 L371.0177 303.8264 L372.1634 303.1516 L374.1307 302.0603 L374.9666 301.4446 L375.8264 300.698 L376.6707 299.6468 L377.5845 298.2855 L378.3621 296.8353 L378.9078 295.6108 L379.1173 293.6042 L379.0719 292.874 L379.082 292.878 L379.0729 292.8718 L379.0571 292.2076 L379.6198 291.9034 L380.1835 292.2864 L380.3909 292.5632 L380.7067 292.5683 L381.3556 293.0181 L381.5497 293.5827 L381.7141 293.7946 L381.9575 293.6958 L382.6954 293.6476 L383.5212 293.6214 L384.1075 293.5331 L384.8521 293.5915 L385.352 293.7717 L386.3985 293.9168 L387.7362 293.6688 L388.0551 293.2406 L388.6225 293.1246 L389.4413 293.0969 L390.2186 293.0845 L390.9647 293.4839 L391.2279 293.6575 L392.7748 293.4751 L392.7516 293.099 L393.3177 292.5585 L394.2788 292.7168 L394.4773 292.3064 L394.6959 292.1313 L395.1387 292.0897 L395.4154 291.8775 L395.7993 291.6024 L395.9781 291.0936 L396.1934 290.6807 L396.5891 290.3308 L397.2385 290.1291 L420.8581 282.2514 L450.018 289.106 L478.7502 261.084 L488.6885 239.1475 L504.2913 227.7158 L512.0 222.7273 L506.0336 220.9042 L504.1896 219.9445 L502.4711 218.062 L499.819 215.1525 L496.8015 211.8419 L491.6064 204.4769 L487.8044 203.1387 L484.8759 204.3951 L478.9448 207.3435 L473.7991 208.7145 L470.329 211.1048 L469.3811 211.6376 L470.3914 212.0171 L469.778 212.536 L469.5479 213.0703 L466.0957 215.1116 L464.2479 216.4472 L455.9205 220.8626 L455.6806 220.6328 L463.6575 216.4144 L465.479 215.2138 L464.9846 213.8454 L469.8034 210.5501 L472.3568 208.397 L472.4867 207.4803 L472.0307 207.0723 L472.6544 206.3899 L473.7991 206.3789 L473.3744 205.8863 L482.1817 200.9632 L480.6314 200.5143 L476.8651 199.7691 L475.7782 200.3264 L474.8013 200.6716 L474.3576 200.8815 L474.0021 201.0534 L473.6319 201.4537 L472.2517 202.4102 L471.6858 202.8624 L470.9217 203.8335 L470.5975 203.8112 L470.4847 203.5514 L470.2764 203.5383 L470.0578 203.6277 L469.6153 204.0977 L469.3456 204.3769 L469.1449 204.4813 L468.9297 204.6761 L468.7859 204.8973 L468.8354 205.1466 L468.9673 205.4341 L469.0523 205.7823 L468.8169 206.1114 L468.7835 206.3041 L468.4701 206.3771 L468.1087 206.591 L467.9486 206.7092 L467.7943 206.8493 L467.4723 206.672 L467.1574 206.6629 L466.9537 206.7862 L466.951 207.0402 L466.7766 207.4259 L466.4449 207.7106 L465.8608 207.9303 L465.6522 207.7026 L465.328 207.4694 L464.9465 207.3599 L465.5829 206.6775 L465.4209 206.3497 L466.0907 205.7432 L466.1831 205.3225 L465.8505 205.2086 L465.6338 205.387 L465.371 205.5666 L465.1142 205.7392 L464.5385 205.872 L464.0741 205.8629 L463.6726 205.7523 L463.5207 205.6016 L463.6568 205.3714 L464.1344 205.2739 L464.484 205.0071 L464.7905 204.7674 L465.0405 204.6648 L465.2186 204.1598 L465.1704 204.0094 L464.9959 203.974 L464.401 204.0459 L463.688 204.5046 L463.341 204.9429 L462.8826 205.1736 L462.3707 205.571 L461.6878 206.0567 L460.7682 206.9606 L460.5699 207.1603 L460.2416 207.3756 L459.9839 207.6799 L460.0681 207.8434 L460.4867 207.5011 L461.0741 207.0701 L461.4269 207.0471 L461.646 206.8585 L461.8267 206.6289 L462.0285 206.4829 L462.2191 206.4819 L462.389 206.614 L462.6916 206.51 L462.8975 206.4972 L463.0458 206.5724 L463.0871 206.8388 L463.131 207.1347 L462.9729 207.4132 L462.6311 207.5902 L462.3856 207.7055 L462.2205 208.0868 L461.9664 208.4269 L461.8416 208.6036 L461.8353 208.8185 L461.8507 208.9849 L461.8865 209.1564 L461.5565 209.5301 L461.2925 209.2021 L460.9709 209.1367 L460.651 209.2656 L460.3873 209.1521 L460.0295 209.0141 L459.8452 208.87 L459.4831 208.6532 L459.1322 208.4488 L458.6719 208.2711 L458.3871 208.0872 L458.0146 207.7427 L456.9829 207.3219 L456.7862 206.8691 L456.8656 206.522 L457.0089 206.2596 L457.3052 206.0195 L457.5747 205.8096 L457.6098 205.5491 L457.2904 205.2958 L456.8824 205.1338 L456.867 205.1276 L455.9378 204.8553 L455.4204 204.6356 L454.4574 204.3992 L454.0324 204.0601 L453.6554 203.8718 L453.4487 203.8569 L452.958 204.6207 L452.5978 204.671 L452.4027 204.5506 L452.2275 204.5408 L452.2332 204.7776 L452.2044 204.9287 L452.1276 205.0995 L452.1833 205.336 L452.4067 205.3349 L452.6299 205.2976 L452.8817 205.1148 L453.322 204.8929 L453.6191 204.8024 L454.1485 204.8057 L454.3595 204.9177 L454.467 205.052 L454.3679 205.4571 L454.5162 205.5812 L454.7706 205.5571 L454.9345 205.6622 L455.1845 205.7764 L455.2304 205.9403 L454.7389 206.3173 L454.0132 206.7037 L453.6338 206.4757 L452.97 206.337 L452.8605 206.1133 L452.5397 206.0903 L452.317 205.7815 L451.9023 205.5998 L451.6278 205.7575 L451.4123 205.5962 L451.5131 205.3396 L451.3374 205.2177 L451.0796 205.2371 L450.9114 205.3367 L450.567 205.6122 L450.359 205.5801 L450.2148 205.3184 L450.0556 205.2644 L449.5745 205.2407 L449.376 205.4706 L449.035 205.2688 L448.9969 205.0349 L448.9714 204.6911 L449.2277 204.621 L449.6458 204.628 L449.8884 204.5524 L450.1584 204.2733 L450.2961 204.0594 L450.5339 204.0371 L450.7163 203.7729 L450.7055 203.5167 L450.4819 203.3365 L449.9712 203.1835 L449.311 203.1383 L449.0556 203.3343 L448.8332 203.3857 L448.6237 203.3956 L448.2704 203.2376 L448.0619 203.3262 L447.7156 203.527 L447.3734 203.6974 L447.1195 203.5828 L446.9167 203.4536 L446.7192 203.6269 L446.4178 203.9882 L446.4751 204.286 L446.6494 204.497 L446.8317 204.6907 L447.0372 205.0276 L447.1584 205.3754 L447.5032 205.6202 L447.8709 205.6483 L448.2642 205.6013 L448.5769 205.783 L448.6938 206.0852 L448.8385 206.3322 L449.0804 206.4249 L449.8593 206.0023 L450.2697 206.033 L450.6045 205.9224 L450.6484 206.1457 L451.1108 206.3465 L451.2256 206.484 L451.162 206.5428 L451.0705 206.6895 L451.156 206.7607 L451.3753 206.6807 L451.5025 206.5636 L451.7818 206.6691 L451.9484 206.8709 L452.09 206.9796 L452.3547 207.1033 L452.7106 207.1128 L452.9577 207.4026 L453.2304 207.4727 L453.7689 207.4321 L454.3583 207.6898 L453.9925 208.0671 L453.3278 208.5514 L454.0165 208.289 L454.6218 207.731 L455.1154 207.8795 L455.6988 208.0025 L456.4219 208.1788 L457.6282 208.7448 L458.0093 208.8145 L458.5577 208.951 L459.1456 209.4396 L459.3321 210.0319 L459.1752 210.3928 L458.8142 210.7165 L458.2407 211.1924 L457.9589 211.3409 L456.699 211.8824 L456.2546 211.8894 L455.6947 211.9781 L455.4015 211.9693 L455.1243 212.17 L454.8658 212.416 L454.6071 212.5776 L453.9366 212.1926 L454.4161 211.8708 L454.3907 211.3584 L454.5186 211.2603 L455.1051 211.2227 L455.1168 210.892 L454.8725 210.7731 L453.2138 210.1509 L452.3105 209.6079 L452.0878 209.4221 L451.9431 209.5217 L451.8478 209.6692 L451.8099 209.8275 L451.6578 210.0987 L451.1641 210.4782 L450.8497 210.3855 L450.5291 210.0826 L450.4795 209.7965 L450.2632 209.679 L450.2932 209.5279 L450.5126 209.448 L450.6414 209.1725 L450.515 208.8382 L450.61 208.6612 L450.753 208.5718 L451.0153 208.2835 L451.3897 208.1036 L451.9129 207.5832 L452.1387 207.1829 L451.8536 206.9457 L451.5582 207.0559 L451.1286 207.3139 L450.7122 207.6759 L450.268 208.0241 L449.6155 208.6379 L449.0691 208.9338 L448.7609 208.5664 L448.448 208.6298 L448.1867 208.4653 L447.9388 208.6678 L447.6827 208.8138 L447.4099 208.8459 L447.2486 208.8444 L443.4842 211.203 L442.0578 209.1141 L441.8872 208.9389 L441.8476 208.2339 L441.8269 208.0117 L441.7561 207.8157 L441.7089 207.7212 L441.5658 207.6438 L441.3808 207.704 L441.0532 207.7515 L440.7734 207.6391 L440.6683 207.3588 L440.5783 206.9588 L440.5046 205.8695 L440.268 205.1688 L440.029 204.594 L439.6906 204.3127 L439.0595 204.1017 L438.4782 203.9288 L438.0979 203.7996 L437.6074 203.7532 L437.7247 203.462 L438.2284 203.1908 L438.3811 203.0642 L438.3227 202.7204 L438.1912 202.5088 L437.9486 202.3124 L437.5908 202.3288 L436.8634 202.4387 L436.4792 202.2672 L436.1459 199.7866 L435.8293 198.4714 L435.5159 197.5086 L435.2255 196.9327 L434.8277 196.3338 L434.4451 196.0368 L434.1228 195.8233 L433.8365 195.293 L433.6186 194.8948 L433.4034 194.2788 L433.3717 193.939 L433.2695 193.5824 L433.2135 193.4485 L432.609 192.6722 L430.8233 191.7777 L430.5963 192.0047 L430.07 192.7587 L429.8694 192.8634 L429.6635 192.8762 L429.471 192.7817 L429.3952 192.7025 L428.9035 191.9883 L428.5884 191.7112 L428.4641 191.6222 L428.3453 191.5707 L428.2258 191.5704 L428.1471 191.6306 L427.8442 191.9226 L426.9673 192.7963 L426.7 192.9963 L426.4485 193.0824 L425.9004 192.9857 L424.8644 192.7335 L424.0403 192.847 L423.521 193.0244 L422.9582 193.1926 L422.1691 192.7689 L421.5349 192.4529 L421.1879 192.3634 L420.8644 192.3525 L420.418 192.4952 L419.3707 193.4722 L417.9162 194.3193 L417.3561 194.7277 L416.8226 194.9506 L416.2683 195.2437 L415.7614 195.7411 L415.4998 195.8977 L415.1139 195.9539 L413.8778 195.493 L413.7192 195.3795 L413.5867 195.3718 L413.4017 195.5583 L413.1276 195.5568 L412.6431 195.3952 L412.3482 195.2401 L410.958 194.9306 L410.6522 194.9627 L409.8879 195.1463 L409.2548 195.4397 L408.848 195.8371 L408.5555 195.8145 L408.3282 195.7608 L407.8932 195.8546 L407.5992 195.8692 L407.112 196.2181 L406.8375 196.5816 L406.5284 196.6444 L406.2488 196.6159 L405.1667 196.0119 L404.2886 195.3397 L403.6613 195.293 L403.5003 195.3444 L402.5373 195.8977 L402.0095 195.7816 L401.4007 195.4539 L400.7223 194.9671 L400.0825 194.3309 L399.8089 194.182 L399.2258 194.2733 L397.4691 195.2065 L397.0184 195.5192 L396.7494 195.805 L396.1643 196.2258 L395.5315 196.1039 L395.191 195.8265 L394.7439 195.4966 L394.604 195.336 L394.3234 194.8977 L394.2673 194.7455 L394.2135 194.6295 L393.8833 193.6977 L393.5865 193.4061 L393.3134 192.7361 L393.4705 192.181 L393.5807 191.8952 L393.4821 191.3182 L393.4365 190.5025 L393.0352 190.0875 L392.8473 189.7266 L392.0103 189.3751 L391.5517 189.2287 L391.3947 188.8306 L391.4842 187.4108 L391.4893 186.9502 L391.7232 184.8797 L391.8231 184.3023 L392.0527 184.1946 L392.4019 183.9038 L392.7633 183.5596 L392.8209 183.2618 L392.7093 182.6179 L392.6906 182.0518 L392.9385 181.4087 L393.0295 180.9182 L393.1624 180.5098 L393.4876 179.9627 L393.8082 179.5488 L394.1012 179.0217 L394.5056 178.5877 L394.7991 178.2505 L394.9968 178.1581 L395.2829 178.0884 L395.7364 177.772 L396.0261 177.2833 L396.3054 176.6865 L396.7856 176.5128 L397.6762 176.6168 L398.3489 175.6174 L398.6117 174.9133 L398.6397 174.3009 L398.4504 173.857 L397.95 173.7019 L397.758 173.4793 L397.3314 173.1234 L397.2306 172.9606 L397.329 172.9172 L397.5051 172.9694 L397.6673 173.0573 L397.8339 173.0073 L397.8497 172.5186 L397.8341 171.9864 L398.0333 171.5546 L397.9304 171.1852 L397.8953 170.81 L397.981 170.6297 L398.279 170.7049 L398.5063 170.9045 L398.7823 171.2907 L399.0196 171.5783 L399.238 171.7685 L399.4108 171.6831 L399.5267 171.5867 L399.628 171.4046 L399.8219 171.283 L400.1516 171.1487 L400.5289 170.9753 L400.6901 170.6848 L400.992 170.0712 L401.3422 169.6077 L401.7098 169.1985 L401.734 168.8601 L401.6203 168.7382 L401.3191 168.6287 L400.9671 168.5239 L400.5497 168.2706 L400.2274 168.3009 L399.9875 168.4787 L399.7091 168.7973 L399.4729 169.1981 L399.3357 169.7449 L399.2303 170.0818 L399.029 170.3074 L398.6421 170.3782 L398.3674 170.3694 L398.1648 170.2165 L398.0503 170.0895 L398.0592 170.0026 L398.2452 169.7956 L398.5639 169.542 L398.7297 169.3025 L398.9697 168.5743 L399.2298 168.4294 L399.55 168.1925 L399.6633 167.941 L399.8137 167.7202 L399.9448 167.6563 L400.0626 167.8173 L400.3546 168.0137 L400.5752 167.9929 L401.0463 167.7246 L402.0943 167.4023 L402.2819 167.2125 L402.304 166.9007 L402.4571 166.5248 L402.5997 166.2185 L402.6421 165.9393 L402.7422 165.9126 L403.0035 166.1462 L403.1634 166.3893 L403.2735 166.6543 L403.2111 166.9015 L402.7804 167.2347 L402.7211 167.5158 L402.8324 168.1593 L403.0213 168.348 L403.3033 168.5575 L403.1077 169.2419 L402.82 169.3605 L402.916 170.0227 L402.9805 170.5892 L402.896 171.2695 L402.848 171.4922 L403.0693 171.6608 L403.7494 171.6141 L403.928 171.5112 L404.0611 171.6535 L404.0763 172.3649 L404.0391 173.7972 L404.1082 174.7203 L403.7628 175.2349 L403.4161 175.8101 L402.9736 175.9459 L402.6849 176.3346 L402.7233 176.7442 L402.7921 177.1165 L402.9371 177.5676 L403.0993 177.6556 L403.2498 177.4347 L403.2476 177.2285 L403.3182 177.0668 L403.467 176.8292 L403.5877 176.4733 L403.6045 175.9211 L403.8956 175.739 L404.0943 175.6685 L404.1718 175.7645 L404.1559 176.1448 L404.1067 176.7175 L404.1255 177.2836 L404.285 177.5267 L404.4722 177.6986 L404.6669 177.7665 L404.8972 177.4866 L404.9035 177.004 L404.8636 176.5774 L404.7432 176.0207 L405.0016 175.125 L404.932 174.5637 L404.9678 173.665 L405.0535 172.934 L405.411 171.8159 L405.4528 171.471 L405.5893 171.0691 L405.766 170.8531 L405.6232 170.6081 L405.5161 170.3771 L405.0794 170.2807 L404.9568 170.0683 L404.8893 169.7131 L404.7413 169.228 L404.6628 168.7532 L404.7204 168.4553 L404.8948 168.1254 L404.9186 167.8304 L404.9611 167.5512 L405.0513 167.4566 L405.3287 167.5067 L405.8459 167.4479 L407.0189 166.4211 L406.4744 165.978 L405.7391 165.8491 L405.4619 165.4038 L405.6496 165.214 L405.8785 164.9169 L406.1307 164.6865 L406.8346 164.3449 L407.2452 163.7787 L407.4324 163.425 L407.4571 163.133 L407.268 163.0381 L407.0175 163.2068 L406.6553 163.5177 L406.2445 163.8335 L405.8648 164.4854 L405.5565 164.5858 L405.3789 164.5164 L405.2903 164.3011 L405.3894 163.8955 L405.7317 163.3469 L405.6791 162.7837 L406.1255 161.7021 L406.4847 161.1517 L406.9952 160.5702 L407.0359 160.2734 L407.2558 160.0223 L407.3234 159.762 L407.9136 159.1823 L408.3153 158.9484 L409.1675 158.1792 L409.7799 158.1391 L410.0264 158.0299 L410.0072 157.8252 L409.8094 157.723 L409.6409 157.5667 L409.7504 157.0918 L410.0261 156.9279 L410.6054 156.7187 L411.1982 156.284 L411.7 155.9788 L411.9424 156.0077 L412.0751 156.081 L412.0117 156.4234 L411.7398 156.7852 L411.5632 157.0761 L411.3366 157.2181 L411.1694 157.4404 L411.1927 157.6912 L411.3582 157.8726 L411.1223 158.8312 L410.7444 159.3944 L410.7048 159.9555 L410.6136 160.4585 L409.9176 161.2064 L409.5404 161.8846 L409.7883 161.9339 L409.6205 162.6026 L409.802 162.8888 L410.1375 162.9958 L410.6508 162.5453 L411.1948 162.8436 L411.442 163.4831 L411.8653 163.7565 L412.1166 164.4632 L412.0695 165.2421 L411.964 165.4454 L411.8502 165.5648 L411.5776 165.4257 L411.2003 165.3655 L411.1031 165.556 L410.8125 165.8239 L410.6873 166.1984 L410.9018 166.2988 L411.3186 166.4193 L411.4677 166.6759 L411.443 167.1431 L411.3561 167.4957 L411.4535 167.6242 L411.6061 167.6096 L411.8032 167.4187 L412.1216 167.7647 L412.131 168.4626 L412.0 168.6101 L411.7295 168.5623 L411.5761 168.3874 L411.4374 168.3659 L411.1876 168.4411 L411.0542 168.6601 L411.1643 168.9251 L410.9642 169.1693 L410.7288 169.3233 L410.4516 169.4186 L410.2743 169.7022 L410.1449 170.1004 L409.9251 170.8615 L410.1281 171.2038 L410.4017 171.3845 L410.7698 171.6597 L410.5294 172.1988 L410.2006 172.7117 L409.6505 173.4176 L409.0945 173.8552 L408.6263 175.0236 L408.6335 175.5532 L409.0158 175.4313 L409.3702 175.3805 L409.8363 175.4229 L410.1835 175.4762 L410.383 175.5952 L410.4562 175.8295 L410.4595 176.4142 L410.3314 176.8544 L410.405 177.2975 L410.4614 177.5333 L410.6035 177.5888 L410.6973 177.4939 L410.772 177.1942 L410.8137 176.7256 L410.9174 176.3715 L411.0446 176.0839 L411.1756 176.02 L411.2843 176.2678 L411.443 176.6836 L411.6349 176.9062 L411.8341 177.0252 L412.411 176.9712 L413.1864 176.296 L413.2997 176.0441 L413.2798 175.0991 L413.2495 174.775 L413.5123 174.475 L413.7965 174.0352 L414.0228 173.8932 L414.2248 173.857 L414.4182 173.9779 L414.8756 173.8647 L416.2985 172.8515 L416.7072 172.5825 L416.9016 172.5244 L417.3784 172.5887 L417.6373 172.3335 L417.7629 172.5525 L417.6131 172.85 L417.7122 173.3263 L417.9068 173.3939 L418.1749 173.3344 L418.5176 173.3365 L418.9049 173.4552 L419.1245 173.6066 L419.2279 173.6139 L419.6033 173.3701 L419.5034 173.1599 L418.9371 172.7759 L418.2649 172.3569 L418.1562 172.109 L418.2037 171.5192 L418.3419 170.8005 L418.2263 170.4384 L418.3621 170.2048 L417.8495 169.5376 L417.574 169.0886 L417.4041 169.1861 L417.1967 168.9817 L416.9157 168.9046 L416.6527 168.6543 L415.9904 167.4253 L415.6933 167.1778 L415.4384 167.0124 L415.0084 166.6222 L414.7341 166.2521 L414.5214 165.8075 L414.4857 165.2425 L414.275 164.634 L414.0501 164.2419 L413.8886 163.4309 L413.7909 162.7516 L413.7293 162.2752 L413.7557 161.8251 L413.7338 161.2247 L413.6256 160.6151 L413.4502 159.4711 L413.5519 158.9108 L413.1965 158.2209 L412.6426 157.24 L412.6289 156.7249 L412.8185 156.1905 L413.0808 155.701 L413.5685 155.2422 L414.1022 154.9045 L414.5689 154.3069 L414.994 153.8945 L415.4298 153.4385 L415.8516 153.1921 L416.7137 153.0768 L417.4701 152.7475 L418.7175 151.9933 L419.0153 151.5177 L419.1339 150.9555 L419.2644 150.7025 L419.5627 150.416 L419.8653 149.9918 L420.2368 149.3825 L420.8744 148.7619 L421.6124 148.4575 L422.0422 148.3074 L424.2603 145.9802 L425.2539 144.9905 L424.1185 145.0636 L422.2774 146.4018 L418.4341 149.2708 L417.549 149.5625 L415.2992 151.6005 L414.3678 151.8725 L413.9088 151.9553 L413.3201 151.8688 L412.79 152.0565 L412.3839 152.4733 L412.0211 152.7657 L411.9095 153.1279 L411.8176 153.3732 L411.4811 153.7295 L409.7602 152.243 L408.964 151.4122 L407.202 150.9664 L406.5281 152.0057 L405.4382 152.419 L402.82 151.4078 L402.1139 152.1036 L401.3882 153.3177 L394.6486 156.0365 L392.5629 156.5574 L392.0088 158.8582 L387.6608 164.0948 L386.7988 165.133 L386.6148 164.584 L386.2661 163.5451 L382.2824 161.8113 L383.2687 160.311 L382.3664 159.8511 L381.4641 159.3948 L382.0616 158.1172 L380.7777 154.9231 L372.3808 152.8388 L373.6695 147.531 L374.4086 146.6037 L373.2879 146.3701 L369.2346 145.0048 L368.7619 139.4814 L369.861 133.4284 L370.6889 132.8224 L372.5392 129.9784 L372.7072 127.054 L373.8471 126.0281 L377.466 124.1989 L375.8197 121.5556 L374.543 122.001 L378.5298 118.4306 L378.6767 117.8432 L380.0527 117.3174 L382.1634 117.6807 L382.2253 117.5339 L381.3052 116.9541 L380.1223 116.5675 L380.3697 115.7788 L382.9255 113.7787 L384.591 107.0056 L386.9188 104.0881 L387.1204 101.2839 L386.5716 100.2614 L383.7595 101.5486 L379.8946 103.095 L375.2675 104.5285 L372.3714 105.1021 L370.9584 105.116 L369.6474 104.9973 L359.6882 100.842 L350.5689 94.9302 L340.3697 90.8258 L332.5032 86.3926 L319.1818 72.6798 L315.0517 71.0838 L312.6519 72.2744 L310.9361 74.5971 L296.0717 67.8116 L297.9939 71.2628 L296.0933 69.6997 L295.6733 67.5121 L294.5958 68.1622 L293.5159 68.8159 L295.5893 69.8494 L300.5665 74.692 L301.716 75.7146 L305.4597 78.7566 L305.4897 79.2862 L297.8931 84.0336 L282.8199 89.8289 L282.3279 93.6777 L279.7194 98.3335 L274.1542 95.226 L272.7815 95.96 L272.3831 94.4519 L274.8045 85.7353 L275.7621 85.7353 L275.2869 82.6313 L275.9948 82.1091 L273.4631 77.0512 L272.5199 72.7674 L270.0073 75.9593 L268.2171 76.8284 L267.4635 79.5272 L265.1338 80.904 L264.4515 79.9771 L263.4861 79.9771 L262.5077 78.1877 L261.7222 75.9604 L261.1429 75.5097 L257.3066 76.8485 L257.2907 77.2447 L258.5914 80.3416 L257.1563 80.4402 L256.6116 82.1138 L255.427 82.6159 L254.4206 83.9788 L253.2207 84.9283 L253.2975 86.6884 L252.2151 86.4474 L251.5336 90.2306 L249.7049 91.9249 L251.0488 95.9307 L256.3025 94.7301 L258.9394 95.0398 L259.0704 97.2533 L259.2763 98.7596 L258.3366 100.1114 L257.2293 100.4845 L257.2809 101.1926 L256.8804 102.2332 L257.3195 102.364 L257.6284 103.7544 L256.1352 104.8615 L256.8818 105.8401 L258.0791 107.5007 L258.1691 108.273 L259.0059 108.8009 L259.5209 109.5476 L260.5636 109.1358 L261.176 109.9851 L262.4174 110.5645 L264.5802 109.7149 L264.9922 110.3071 L264.1297 111.324 L264.3227 112.0323 L263.979 114.3629 L262.5967 115.3049 L260.6265 120.0368 L257.2163 121.3365 L253.0767 116.685 L256.6668 113.9795 L255.918 113.1215 L253.5638 111.7523 L255.2773 110.4378 L254.3366 108.9298 L253.1535 110.0325 L253.6838 108.8459 L252.4647 107.9038 L253.0575 106.5747 L251.1712 106.0015 L249.357 106.3849 L248.9706 105.1507 L245.7045 106.9143 L233.3958 85.078 L235.3949 83.3397 L236.458 85.6842 L238.4354 86.7322 L239.057 89.5733 L238.8962 91.0303 L239.4338 91.1106 L240.3529 91.1289 L243.0023 85.7755 L245.5869 83.4639 L249.7001 75.4188 L250.7393 70.9414 L250.8736 69.9663 L250.4081 71.1313 L248.5386 70.0466 L247.7371 71.1386 L243.2423 63.7102 L242.1767 60.4706 L244.1974 55.6459 L247.2931 52.9614 L248.0371 48.2022 L247.6176 47.9692 L247.1398 47.9648 L245.7309 47.8666 L245.0865 47.4969 L243.2185 46.8957 L243.0078 46.9323 L242.7196 47.1916 L241.6389 48.3049 L238.9994 50.3448 L238.4839 50.6421 L238.261 50.5475 L237.1727 48.8674 L236.9264 48.4101 L236.4921 47.822 L235.8789 47.2719 L235.2574 46.9615 L232.3793 47.3172 L230.361 48.6793 L229.9353 49.981 L229.6305 51.106 L228.6202 57.1251 L228.5602 57.7935 L227.5163 65.7664 L228.5938 69.3929 L229.1938 77.3799 L233.2782 88.4705 L234.9581 90.1721 L233.5365 92.4833 L233.541 92.5307 L234.0995 92.5253 L234.2139 92.8313 L234.5612 93.5492 L235.134 94.3558 L235.7786 95.3797 L235.8756 95.6255 L235.2694 96.2075 L234.2077 97.4334 L233.5641 98.3488 L234.2267 98.0191 L234.8127 97.2208 L234.7839 98.7275 L234.4066 101.699 L234.6593 103.107 L234.7608 103.8205 L235.5564 105.5841 L236.0493 106.769 L236.2528 107.1111 L236.9411 107.8724 L237.7568 108.8973 L238.1532 109.6517 L238.9749 110.1939 L239.8996 111.1049 L240.6742 112.2368 L241.3063 112.8396 L241.878 113.7772 L242.3699 114.4954 L243.3219 115.8004 L244.141 116.3937 L245.1539 117.1633 L245.937 118.1082 L246.3176 118.6231 L246.8523 119.3044 L247.1928 119.9152 L247.6135 120.7491 L248.0726 121.3143 L247.3215 122.196 L247.3606 122.3563 L247.6075 122.5341 L248.4882 123.2946 L248.5614 123.4067 L248.5883 123.5414 L248.8578 123.7608 L249.1244 124.2866 L249.435 124.6856 L249.8866 125.0452 L249.9269 125.1916 L249.9293 125.3983 L250.1719 125.5954 L250.32 125.8386 L250.4899 126.0368 L250.5679 126.1814 L251.6409 127.7448 L252.6622 129.3285 L254.0575 131.779 L254.2999 132.7527 L254.5 133.7592 L254.6617 133.9746 L254.7959 134.0016 L255.0064 134.0706 L255.1194 133.9114 L254.9584 133.3463 L254.9771 133.0002 L255.0966 132.8169 L255.2444 132.7512 L255.5118 132.8636 L256.4866 133.9417 L257.2739 134.8486 L257.5982 134.9493 L258.1561 135.3217 L258.4323 135.3915 L258.633 135.3228 L258.9188 135.2494 L258.9963 134.8168 L258.9332 134.5324 L258.7899 134.3021 L258.8353 133.9479 L259.0793 133.6745 L259.4882 133.5135 L259.8081 133.5591 L260.0428 133.4102 L260.3743 132.9308 L260.4232 132.5146 L259.841 130.7692 L259.6821 130.1281 L259.511 129.7655 L259.1847 129.5724 L258.9183 129.288 L258.7947 128.886 L258.9636 128.6808 L259.368 128.6111 L259.962 128.5976 L260.3841 128.7853 L261.2298 128.9324 L261.374 129.1927 L261.6769 129.319 L261.8345 129.3555 L262.3095 129.6721 L262.9207 130.2011 L263.1048 130.3676 L263.404 130.5074 L263.608 130.4745 L263.7832 130.6231 L263.8763 130.7396 L263.8446 130.9962 L263.7851 131.1671 L263.7095 131.3058 L263.7126 131.5136 L263.8194 131.7406 L264.0875 132.1769 L264.0616 132.6347 L264.2691 133.1623 L264.1201 134.4079 L263.7241 136.4856 L263.3344 138.2646 L262.8845 138.9966 L263.1705 139.0331 L263.5295 138.8308 L263.956 137.1256 L264.517 137.1818 L264.1578 138.4157 L265.4818 138.9768 L266.3795 138.0904 L267.6361 140.3568 L267.4453 140.9964 L265.5156 140.2783 L262.4933 139.5657 L261.3668 139.1689 L260.842 137.9455 L259.4436 139.2598 L257.7959 139.4916 L254.0342 140.175 L253.9891 139.0834 L255.8765 137.7411 L248.8472 136.0895 L249.1568 136.479 L249.1484 136.6678 L249.1693 136.8901 L249.1501 137.0701 L248.7969 137.5783 L248.7181 138.242 L248.6596 138.9104 L248.8247 139.5807 L249.1971 140.3568 L249.9058 141.3512 L250.2257 141.6736 L250.7153 142.4023 L251.129 143.2335 L251.1839 143.5445 L251.2178 143.903 L250.4254 145.6655 L249.854 146.684 L249.0143 148.8488 L247.2029 153.413 L246.1741 155.3871 L245.2135 157.7233 L243.9651 159.908 L242.7558 161.9204 L242.4136 162.3354 L242.0858 162.8348 L241.4981 163.6094 L241.4254 163.8141 L241.0824 164.2894 L240.2478 165.3735 L239.9752 165.5513 L239.7736 165.402 L239.7025 164.9026 L239.4299 164.1883 L238.7848 162.9753 L238.5345 162.1383 L237.816 160.6914 L236.6478 159.0119 L232.5386 152.9581 L232.4184 152.7373 L232.3154 152.3306 L232.4918 152.04 L232.7136 151.7422 L232.9778 151.5093 L233.0543 151.3512 L233.068 150.9537 L233.0519 150.7832 L232.8477 150.6131 L232.6541 150.4751 L232.3154 150.2334 L231.5278 150.0498 L231.1304 149.8293 L230.6459 149.772 L229.9651 148.9068 L228.5674 146.9735 L226.8763 144.2195 L226.7721 143.6614 L226.5806 143.266 L226.1923 142.9586 L225.942 142.4833 L225.3476 141.6272 L225.1705 141.4491 L225.1064 141.8364 L225.3879 142.3439 L227.0601 144.8693 L228.7474 147.4857 L229.0443 148.0183 L229.0263 148.1749 L230.1074 149.8034 L230.5353 150.0527 L230.6886 150.2802 L230.882 151.0092 L232.2953 153.2293 L232.9012 153.9368 L234.2319 156.1219 L237.495 160.7206 L238.6147 163.1217 L239.0942 165.5524 L239.6183 168.5623 L239.8199 171.778 L240.2367 173.0935 L240.7383 174.368 L240.8259 175.2959 L244.0232 180.8875 L244.0359 181.3711 L244.313 181.7635 L244.9872 182.2894 L244.5914 182.6931 L244.6889 183.1687 L245.0584 183.7764 L245.6922 183.6997 L246.1515 183.7946 L246.4693 184.0249 L248.0397 186.3199 L248.3567 186.7834 L248.7052 187.1991 L249.3778 188.0612 L250.7841 190.6218 L251.2768 191.758 L251.5775 192.1536 L251.6689 192.4521 L251.8283 192.6751 L251.9636 192.7426 L252.1115 192.8164 L252.519 191.805 L254.1607 187.9878 L254.29 187.582 L254.6778 186.6385 L255.3229 184.8001 L257.2358 179.8813 L257.4136 179.363 L257.7265 178.9838 L258.0664 178.7538 L258.3296 178.6531 L258.6956 178.6644 L259.1372 178.8502 L259.2243 179.1451 L259.1177 179.4455 L259.0913 179.8272 L259.2903 180.1576 L259.5348 180.3455 L259.7637 180.37 L260.5804 180.0353 L260.8242 180.0419 L260.9118 180.1689 L260.9584 180.3488 L261.1139 180.3937 L261.2876 180.3178 L261.4978 180.2813 L261.6574 180.3718 L261.9058 180.424 L262.1991 180.6401 L262.5986 181.0441 L262.9492 181.5547 L263.0824 182.1653 L263.2492 182.4694 L263.77 182.5552 L263.93 182.6486 L263.9756 182.6938 L264.166 182.8836 L264.3831 183.4103 L264.4172 183.7694 L264.4993 184.187 L264.4825 184.4625 L264.655 184.6899 L264.8789 184.8337 L265.0131 185.1407 L265.0224 185.552 L264.9171 185.8651 L264.8689 186.1564 L264.9519 186.4093 L264.805 186.5582 L264.8545 186.7349 L265.2571 187.1798 L265.3462 187.2783 L265.4297 187.5375 L265.4921 187.8846 L265.5259 188.3094 L265.6241 188.6375 L265.7172 189.2703 L265.7265 190.0798 L265.9615 190.6149 L266.3503 190.9999 L266.5214 191.0342 L266.7474 191.0357 L266.8888 190.8419 L266.6488 190.4616 L266.4789 190.2273 L266.1204 189.4517 L266.1288 188.7108 L266.3971 188.524 L266.6941 188.397 L266.8852 188.6094 L267.7301 189.2744 L267.8741 189.4941 L268.4251 190.3361 L269.0937 191.1496 L269.3083 191.7525 L269.3246 192.2751 L269.5257 192.5262 L270.4083 193.1576 L270.4297 193.5021 L270.404 193.7882 L270.2658 194.52 L270.076 194.9466 L269.9173 195.2517 L269.9953 195.5532 L269.997 195.5601 L270.0992 195.7532 L270.7047 196.1068 L271.0306 196.3561 L271.4292 196.7141 L271.7861 197.3265 L271.8713 197.6743 L271.7573 197.9984 L271.9267 198.5757 L272.1494 198.9502 L272.4052 199.572 L271.1895 200.8764 L271.0239 200.7231 L270.8681 200.6705 L270.693 200.7713 L270.7769 201.3745 L270.2341 201.9964 L269.7431 202.3661 L269.3503 202.4526 L269.0704 202.4496 L268.8391 202.2967 L268.4738 202.361 L268.2643 202.5456 L267.8158 202.5982 L267.5521 203.0087 L267.607 203.4883 L268.0652 203.8503 L267.4578 204.4156 L267.1828 204.4616 L266.7688 204.428 L266.4868 204.6097 L265.8369 204.7243 L265.6063 204.5813 L265.8158 204.2911 L266.0522 204.0806 L266.4122 203.9247 L266.5888 203.7397 L266.655 203.4664 L266.559 203.2153 L266.5026 202.9303 L266.0018 202.9876 L265.621 203.0963 L265.1427 203.3923 L265.0457 203.1675 L264.9884 203.1335 L264.9569 202.7989 L264.7558 202.8011 L264.2487 203.0452 L263.8545 203.3956 L263.6951 203.9021 L263.4208 204.3039 L263.1475 204.8783 L262.8854 205.1225 L262.7112 205.0546 L262.2703 204.4718 L262.0887 204.3389 L261.9639 204.2477 L261.7208 203.9839 L261.4287 203.5554 L261.44 203.3182 L260.9672 202.7551 L260.769 202.5708 L259.8921 201.6756 L259.7712 201.2818 L259.6872 201.1041 L259.3349 200.7494 L258.8979 200.3855 L258.4398 199.264 L258.1746 198.9451 L257.6956 198.6695 L257.5754 198.4615 L257.547 197.806 L257.1782 197.4528 L256.9557 197.0517 L256.8703 196.8572 L256.7333 196.2962 L255.8141 195.6236 L255.1074 195.3021 L254.8338 194.9634 L254.5674 194.8539 L254.2996 195.1404 L254.709 195.6163 L254.9718 196.0295 L254.8247 196.17 L254.3882 196.2754 L253.3241 195.69 L252.6042 195.4327 L252.1482 195.7028 L251.8938 195.913 L252.4534 196.232 L253.1899 196.6043 L254.1407 196.6652 L254.7585 196.5134 L255.1144 196.4612 L255.3599 197.3904 L255.451 198.1458 L255.4597 198.7695 L255.411 199.5002 L255.3099 200.7424 L255.2576 200.9986 L255.7213 201.3825 L255.5566 202.096 L255.5614 202.5183 L255.8986 202.8252 L256.0824 203.3448 L255.9615 203.874 L256.3347 204.4156 L256.6721 204.1517 L257.0553 203.9466 L257.3975 204.0152 L257.5473 204.4816 L257.3577 204.9812 L257.8072 204.9385 L258.159 204.7995 L258.8151 204.1003 L259.0973 203.5332 L259.0889 203.3967 L258.6188 203.0879 L258.6138 202.8533 L258.0589 202.6566 L258.0318 202.1993 L257.7234 202.4113 L257.4498 202.4372 L257.1271 202.2931 L256.9461 201.8971 L256.7085 201.5143 L256.6565 201.0902 L256.7042 200.9088 L256.8835 200.6724 L257.0856 200.5008 L257.0731 200.3669 L257.0136 200.2713 L256.8345 200.153 L256.5086 199.7275 L256.3723 199.7067 L256.1671 200.1655 L256.0335 199.8206 L255.9591 199.7961 L255.9039 199.5647 L255.9752 199.2542 L256.1345 198.9859 L256.2003 198.794 L256.1854 198.4575 L256.3145 198.2257 L256.5926 198.1487 L256.7659 198.3856 L256.8576 198.6473 L257.1751 198.9885 L257.3176 199.3976 L257.2075 199.5089 L256.9476 199.6009 L256.8984 199.7914 L257.022 200.033 L257.1993 200.1341 L257.4758 200.0403 L257.9099 200.0162 L258.1045 200.3016 L258.1837 200.5355 L258.1995 200.7333 L258.2653 200.8961 L258.3958 201.0358 L258.8854 201.2858 L259.2835 201.7716 L259.3935 202.0482 L259.4695 202.4967 L259.6318 202.6164 L259.9588 202.7036 L260.4609 203.0445 L261.1456 203.7222 L261.3997 204.1032 L261.512 204.5575 L261.7066 205.0203 L261.698 205.3111 L261.4472 205.6151 L261.3068 205.8691 L261.4122 206.0801 L261.703 206.237 L261.6963 206.653 L260.4611 207.4259 L260.1604 207.3756 L259.583 207.3511 L259.3829 207.5646 L259.5185 207.8522 L259.7354 208.0175 L259.7479 208.1511 L259.5595 208.2872 L259.3044 208.4295 L259.0556 208.639 L258.8734 208.8419 L258.6222 209.2035 L258.4114 209.4597 L258.2197 209.5622 L258.0496 209.359 L257.9548 209.0641 L257.8105 208.9597 L257.4748 208.9579 L256.9236 209.1619 L256.392 209.398 L255.397 210.2352 L255.2099 210.8548 L255.0378 210.8446 L254.7849 210.3578 L254.6913 209.5393 L254.7582 209.3338 L254.8952 209.1856 L255.152 208.7054 L255.2178 208.5134 L255.3097 208.4204 L255.5528 208.3295 L255.9473 208.2416 L256.2403 208.1463 L256.7791 207.808 L257.3968 207.5978 L258.0503 207.411 L258.2255 207.5865 L258.3181 208.3222 L258.519 208.1171 L258.5077 207.692 L258.7635 207.5256 L259.4546 207.2117 L260.387 207.199 L260.5134 206.9366 L260.632 206.345 L260.9346 205.8943 L261.2922 205.5046 L261.5286 205.1524 L261.2991 204.5678 L261.0289 204.6294 L260.8552 205.0517 L260.5564 205.4392 L259.8295 205.6794 L258.9274 205.6991 L258.632 205.8425 L257.9428 206.6891 L257.2216 207.1333 L256.554 207.3486 L255.8737 207.43 L255.2375 207.2789 L255.0145 207.1121 L254.7577 207.1643 L254.4695 207.5726 L254.1813 208.3843 L253.9598 208.4748 L252.2531 206.6884 L252.2295 206.5454 L253.3383 206.168 L253.8885 206.1326 L254.3606 206.1552 L254.7114 206.1388 L255.1859 206.0096 L255.3759 205.8903 L255.4141 205.5827 L255.2876 205.3079 L255.1719 205.2721 L254.9692 205.2418 L254.6334 205.2396 L254.2619 205.0385 L253.932 204.5634 L253.746 204.193 L253.6922 203.624 L253.7985 202.9722 L254.0452 202.2062 L254.0032 201.7917 L253.9447 201.5205 L253.7177 201.2242 L253.3565 200.9545 L253.1184 200.3862 L253.0527 199.8691 L253.0712 199.5618 L252.9144 199.2914 L252.6094 199.0837 L252.3735 199.0724 L251.9648 199.3644 L251.3586 199.6129 L250.9855 200.2914 L250.5787 200.5078 L249.8979 200.4702 L249.84 200.8318 L249.7582 201.1267 L249.8888 201.4194 L250.1283 201.6913 L250.2468 202.1482 L249.9819 202.615 L249.1943 203.5335 L248.2125 203.6499 L247.9027 203.5343 L247.2987 202.8828 L246.315 202.1128 L245.9836 201.7942 L245.5468 201.9577 L245.2247 202.2325 L244.6641 202.373 L244.0714 202.6799 L243.6303 202.4515 L243.457 202.215 L243.2103 201.7052 L242.9764 201.2822 L242.1196 200.9118 L241.8804 200.6501 L241.4916 200.0439 L241.5221 199.071 L241.1676 199.6735 L241.1367 199.8111 L241.4052 199.8458 L241.3822 199.8479 L241.3409 200.2352 L241.1451 200.7537 L240.7378 201.419 L239.2687 202.4321 L238.5864 203.3813 L237.6315 204.1762 L237.1242 204.4729 L236.6622 204.5995 L236.3999 204.4382 L236.1479 203.8098 L236.2684 203.6237 L236.6934 203.3558 L236.8172 203.1693 L236.4083 203.2609 L235.9279 203.5339 L235.373 202.5062 L235.2305 201.8 L235.1794 201.7125 L235.0503 201.7245 L234.9536 201.7774 L234.9444 201.8741 L235.0723 202.5058 L234.9898 202.6996 L234.8012 202.8358 L234.4611 202.9693 L234.1916 202.9613 L233.8153 202.3551 L233.8256 201.9318 L233.7695 201.8694 L233.5984 201.8351 L233.435 201.8843 L233.2907 202.05 L233.1033 202.4267 L233.0195 202.7843 L233.1064 203.35 L233.0551 203.6926 L232.7515 204.2109 L231.9262 205.0659 L231.1355 205.9345 L230.5936 206.7767 L230.4328 207.7182 L230.5086 208.3576 L230.8693 208.1649 L231.1575 207.353 L231.6478 206.4523 L232.063 205.8724 L232.2941 205.745 L232.5873 205.8918 L232.9608 206.5388 L233.2377 206.7202 L233.505 207.1497 L233.8225 207.38 L233.9987 207.9566 L233.2396 208.9732 L233.1175 209.1196 L232.4434 209.9009 L231.7282 209.7049 L231.2329 209.0565 L230.7424 208.8393 L230.4841 209.1167 L230.447 209.6101 L230.686 210.7183 L230.7373 211.0847 L230.6382 211.28 L229.8703 211.4376 L229.7968 211.1807 L229.787 210.6939 L229.6531 210.1823 L229.3368 210.0345 L229.0157 210.0815 L228.9159 210.4501 L228.4491 210.7979 L228.4978 211.6602 L228.2566 212.2039 L227.8624 212.4196 L227.7061 212.3667 L227.5043 212.5378 L227.1873 213.0914 L227.1628 213.3637 L227.2514 213.5917 L227.1772 214.4526 L226.4098 215.4452 L225.7808 216.0918 L225.6946 216.5713 L225.4606 217.1573 L225.2254 217.4168 L224.9624 217.4157 L224.8182 217.2446 L224.5456 216.8651 L224.4822 216.6107 L224.4242 216.1735 L224.3618 216.0444 L224.2389 215.9885 L224.1559 215.9966 L224.0639 216.0896 L224.0107 216.4151 L223.7556 216.7819 L223.4688 216.7198 L225.0625 219.723 L223.3265 225.8191 L231.0006 223.4969 L234.3529 231.2614 L245.4518 235.1657 L241.6761 222.5642 L249.7414 219.0023 L255.6853 219.8847 L259.2562 215.3634 L263.6286 215.878 L263.6358 218.5856 L262.5511 220.4321 L262.8847 222.4828 L259.3258 225.2196 L257.2163 224.8291 L258.4186 225.9932 L259.2994 227.3396 L259.7841 227.9964 L262.3399 232.1525 L262.6759 230.8936 L261.836 230.0982 L262.1504 229.3429 L262.523 228.4182 L262.3992 228.327 L262.3203 228.1913 L262.0721 226.4245 L262.07 226.4124 L262.0772 226.203 L262.2247 225.7771 L262.4484 225.5677 L262.841 225.3768 L263.207 225.2922 L263.583 225.3469 L263.8537 224.9707 L263.9209 224.6266 L263.7189 223.6717 L265.5065 221.5837 L265.7436 221.4129 L266.0743 221.2958 L266.4263 221.2294 L266.8 221.2203 L267.1232 221.1962 L267.327 221.1604 L267.5089 221.1035 L267.5744 221.3958 L267.6913 221.5742 L267.7805 221.7899 L267.7697 222.127 L267.7892 222.3693 L267.8974 222.5401 L267.9924 222.6073 L268.0642 223.2458 L268.1943 223.425 L268.2751 224.0734 L268.4098 224.3507 L268.2967 224.6153 L268.2835 224.8018 L268.3555 225.101 L268.4405 225.3163 L268.4702 225.3564 L268.6397 225.5837 L268.6896 225.6509 L268.8945 225.8494 L269.0104 226.0877 L269.0544 226.4051 L269.062 226.7602 L269.0337 227.1597 L268.9339 227.4184 L268.9576 227.837 L268.9797 228.0015 L269.0851 228.5022 L269.1943 229.0291 L268.9341 229.3961 L268.9418 229.6446 L269.1417 229.9271 L269.2612 230.0734 L269.4602 230.2668 L269.8309 230.6722 L270.0911 230.7867 L270.4115 230.8389 L270.7145 230.9185 L270.7719 230.9334 L271.1936 231.2231 L271.817 231.7705 L271.9101 232.2693 L272.0764 232.5006 L272.0635 232.6071 L271.9188 232.6046 L271.6246 232.5531 L271.2869 232.4568 L270.8161 232.5177 L270.4458 232.5991 L269.974 232.6834 L269.7621 232.8523 L269.4417 233.3727 L269.1657 233.9068 L268.9229 234.2597 L269.0059 234.3735 L269.182 234.4294 L269.4969 234.4556 L269.6766 234.5509 L270.0479 234.6541 L270.6169 234.7286 L271.2197 234.6384 L271.3973 234.7435 L272.0541 234.8099 L272.4472 234.9011 L272.8055 235.0748 L273.2876 235.3784 L273.6872 235.2252 L274.0395 234.9876 L274.729 234.807 L276.6704 233.8912 L276.0767 233.2752 L275.6181 232.9067 L274.8734 232.3641 L274.3711 231.8449 L274.0335 231.4351 L274.1292 231.1954 L274.9181 230.7448 L275.4218 230.196 L275.5718 229.8325 L275.6157 229.6008 L275.8499 229.437 L276.0486 229.4874 L276.2579 229.7213 L276.9392 229.6961 L277.1804 229.3965 L277.6337 229.2546 L280.5641 226.1209 L282.4863 228.4963 L283.7436 229.0484 L283.7791 228.9364 L283.8129 228.1453 L283.8962 227.7023 L283.8912 227.3006 L283.7035 226.4945 L283.7681 226.307 L283.8888 226.0515 L284.033 225.6294 L284.0246 224.7729 L283.8609 224.2216 L284.2344 224.0676 L284.4472 224.4588 L284.8206 225.0933 L285.3673 225.8392 L285.7249 225.9008 L288.5986 225.1648 L288.4955 224.1869 L290.3001 222.0814 L291.2384 223.2126 L296.53 223.4863 L296.2612 225.0116 L291.9272 227.1864 L292.196 229.1349 L290.4009 232.1598 L288.8314 233.4478 L287.9435 233.0246 L288.4091 233.7507 L292.0232 236.8229 L293.2135 241.9968 L292.1009 241.2233 L291.3256 240.2637 L291.0347 239.5376 L290.3128 239.0884 L289.8249 239.191 L289.7386 239.3989 L291.2936 241.1321 L280.5449 237.5709 L279.7386 237.6549 L278.733 240.1396 L277.1948 240.3695 L277.1948 239.3807 L276.386 240.1396 L273.2951 239.4829 L270.7849 241.4714 L266.6956 241.4495 L255.0973 246.5429 L243.3358 245.795 L242.2775 245.3827 L241.9176 245.2878 L239.9012 245.3699 L240.3697 249.8492 L239.661 256.7276 L239.93 259.5886 L240.9905 266.0467 L238.5209 268.0477 L235.0445 269.0786 L234.5957 270.0198 L234.9454 270.7225 L234.231 271.5155 L233.7937 275.9373 L230.5588 277.9083 L227.295 279.4054 L228.5074 281.5511 L228.5225 282.8428 L227.4921 287.3036 L226.1556 288.9633 L217.2919 293.6943 L215.0215 293.3383 L212.7047 293.5736 L211.2518 294.6143 L209.1909 296.3173 L204.5943 299.7215 L206.3459 301.1995 L205.822 302.2478 L205.2554 303.1115 L203.5101 302.1063 L201.9847 303.6487 L199.7268 301.3516 L198.463 302.3404 L197.6869 301.3636 L195.5408 304.8725 L195.4023 305.2014 L195.3485 306.2315 L195.3704 306.8092 L195.1657 307.2141 L195.0236 307.6561 L194.9682 308.1817 L194.9492 308.6416 L195.0714 309.2726 L195.3265 310.0586 L195.6336 310.214 L196.3281 309.6734 L196.6862 309.4648 L197.8326 308.8382 L198.1062 308.6737 L198.6545 308.5658 L198.9125 308.4126 L199.2276 308.3728 L199.265 308.5964 L199.4023 308.936 L200.1966 309.9014 L200.415 310.1246 L200.5768 310.063 L200.7985 310.2891 L201.0574 310.6301 L201.2984 310.7457 L201.6005 311.0233 L201.7611 311.2979 L202.0054 311.2746 L202.255 311.2739 L202.6228 311.3774 L203.3889 311.8348 L203.9528 312.3447 L204.1772 312.6328 L204.2598 312.7765 L204.5002 313.0271 L204.8405 313.499 L204.9627 313.9914 L205.0315 314.0935 L205.2312 314.2591 L205.5079 314.3893 L205.6843 314.5356 L205.9089 314.6526 L206.1863 314.8405 L206.2091 315.0819 L206.2115 315.4211 L206.2389 315.7085 L206.3262 316.0065 L206.3581 316.1713 L206.5048 316.2629 L206.7575 316.3643 L206.9953 316.4471 L207.2773 316.5123 L207.6404 316.4941 L208.0006 316.4139 L208.2302 316.2702 L208.7973 316.1535 L209.2254 315.9908 L209.654 316.148 L210.0563 316.2315 L210.0956 316.2279 L210.3298 316.2056 L210.3428 316.3431 L210.3471 316.3883 L210.4642 316.5156 L210.7505 316.6269 L211.0263 316.7983 L211.2396 316.7943 L211.2924 317.0605 L211.3721 317.2232 L211.877 317.5605 L212.2703 317.6915 L212.9267 317.8563 L213.369 317.7721 L213.8314 317.9592 L214.0296 318.1386 L214.1069 318.3866 L214.0373 318.6237 L214.0757 319.0318 L214.1947 319.6299 L213.9564 319.6791 L213.7488 319.6033 L213.4738 319.5438 L213.1803 319.4268 L212.9449 319.5446 L213.0435 319.7889 L213.4033 319.9096 L213.7188 320.1562 L214.0027 320.2743 L214.2262 320.4144 L214.3735 320.5814 L214.3975 320.8363 L214.5372 321.1329 L214.8208 321.5603 L214.9502 321.7127 L215.0231 321.9629 L215.128 322.2394 L215.2828 323.0089 L215.5048 323.4389 L215.6716 324.5038 L215.696 324.8769 L215.7851 325.1584 L215.8772 325.3342 L217.1419 326.1333 L217.3795 326.8747 L218.0227 327.3904 L218.2809 327.514 L218.4426 327.6963 L218.511 327.7952 L218.47 327.9177 L219.235 328.2602 L220.6013 329.6073 L220.7056 329.0162 L220.0191 328.2842 L219.7827 328.32 L219.6586 328.2219 L219.069 327.7554 L219.0767 327.3663 L219.0786 327.2667 L218.7428 326.8572 L218.5701 326.6464 L218.4827 326.0913 L218.4714 326.0198 L218.6696 325.8922 L218.5374 325.6413 L218.235 325.2223 L218.1755 325.1869 L218.0054 325.0859 L218.1069 324.9848 L218.2545 324.8382 L218.7071 325.1081 L219.5857 325.9932 L219.8235 326.1121 L219.2835 325.1949 L218.6519 324.5596 L218.7421 324.3667 L218.5072 323.9794 L218.235 323.634 L217.7824 323.006 L217.4241 322.5516 L217.1331 322.1044 L217.0483 321.5297 L217.0563 321.2656 L217.3802 320.9414 L217.4441 320.7805 L217.5585 320.7069 L217.6632 320.6675 L217.8045 320.6671 L217.8636 320.6317 L217.925 320.6558 L218.1148 320.6839 L218.3082 320.7886 L218.3558 321.111 L218.2334 321.2787 L218.283 321.4914 L218.4316 321.7408 L218.5991 321.8798 L218.7563 322.0822 L218.7534 322.1912 L218.7928 322.2963 L218.8943 322.3955 L219.0798 322.3776 L219.4352 322.7627 L219.8885 323.2186 L220.0894 323.3543 L220.5681 324.076 L220.9965 323.9943 L221.0627 323.8958 L221.3721 323.8663 L221.5223 323.8225 L221.6514 323.9024 L221.7546 323.8466 L221.8444 323.65 L221.8434 323.4659 L221.7654 323.3017 L221.5686 323.0271 L221.391 322.9192 L221.2022 322.9039 L221.0983 322.7755 L220.991 322.4761 L220.8134 322.2295 L220.6308 322.1052 L220.2439 321.9407 L219.9379 321.7518 L219.7097 321.6876 L219.5571 321.7018 L219.4942 321.7594 L219.163 321.6252 L219.0973 321.2426 L219.0829 320.9509 L218.7385 320.7495 L218.6327 320.2415 L218.7352 320.0515 L218.9912 319.9811 L219.5701 319.5632 L220.5741 318.8764 L220.8283 318.7028 L220.8945 318.7586 L222.0239 319.7094 L222.2538 319.6744 L222.9732 320.0573 L223.3495 320.4235 L223.4981 320.6762 L223.104 321.3032 L222.8967 321.7842 L222.7109 322.9484 L222.7407 323.1234 L222.6123 323.3302 L222.5513 323.6588 L222.7503 323.9199 L223.159 324.006 L223.2197 323.8127 L223.3834 323.5632 L223.7352 323.3583 L224.0503 323.2525 L224.2386 323.2645 L225.146 322.5424 L225.2744 322.3098 L225.2919 322.278 L225.5098 322.2904 L226.1115 322.5723 L226.7313 323.0771 L227.0659 323.3218 L227.241 323.3459 L227.3687 323.363 L227.9344 323.4403 L228.3085 323.576 L228.3507 323.8488 L228.2478 324.1486 L228.2355 324.1734 L227.9732 324.6854 L227.41 324.8773 L227.1151 325.4422 L227.3567 326.157 L227.7124 326.5844 L227.7287 326.7576 L227.7328 327.0767 L227.6397 327.1537 L227.5163 327.2554 L227.6123 327.4013 L227.6435 327.6617 L227.9034 327.8415 L228.0819 328.2 L228.0327 328.3944 L228.0164 328.654 L228.0896 328.7693 L228.212 328.8466 L228.273 329.0052 L228.4645 329.3298 L228.8624 329.6806 L228.9644 330.03 L228.9401 330.2959 L228.8655 330.4811 L228.7205 330.5803 L228.5413 330.6303 L222.6783 330.9738 L221.2024 331.0686 L220.201 331.7717 L213.2329 340.9583 L212.0241 345.747 L212.2194 345.9592 L211.8465 347.082 L211.3351 347.4357 L211.2401 348.0279 L210.8532 349.7742 L210.3426 349.6878 L209.7865 350.0933 L209.4741 350.1921 L209.2842 350.2001 L208.4438 349.8402 L208.1314 349.7188 L207.7707 349.5471 L206.8506 349.368 L206.4849 349.182 L206.1695 348.8695 L205.5158 348.487 L205.0752 348.1698 L204.4969 348.1654 L203.4633 347.447 L203.1078 347.1283 L202.3579 346.9427 L202.1597 346.8764 L201.667 347.6607 L201.7628 348.2544 L201.6228 348.4094 L201.4237 348.3853 L201.1561 348.2296 L200.8645 348.0994 L200.5173 347.8657 L200.0301 347.9251 L199.6855 348.0305 L199.2379 348.0564 L198.481 348.5271 L198.3567 348.7069 L198.3029 348.867 L198.4371 348.9662 L198.6286 349.0468 L199.0104 349.0533 L199.3125 349.3669 L199.4155 349.9336 L199.4568 351.099 L199.5247 351.5045 L201.0759 350.4047 L201.4484 350.4879 L201.7251 350.5309 L201.8926 350.6698 L201.9113 350.8656 L201.7136 350.9998 L201.5468 351.6646 L201.5667 351.8403 L201.7416 351.8863 L201.8657 352.0161 L201.9509 352.2586 L202.0464 352.7796 L202.1338 353.6705 L202.2437 354.0854 L202.4073 354.1635 L202.5235 354.3071 L202.8801 354.4625 L203.261 354.5124 L203.7556 354.6692 L204.2295 354.8876 L204.547 355.0845 L204.7671 355.3967 L204.9857 355.9389 L205.0104 356.2 L204.8309 356.6503 L204.5 356.7677 L203.9322 356.7801 L203.7491 356.857 L203.6216 357.0372 L203.5165 357.4193 L203.2247 357.4933 L202.7296 357.435 L202.0493 357.4273 L201.5636 357.6053 L201.217 357.971 L200.8103 358.7046 L200.6704 359.482 L200.5842 359.5411 L200.5254 359.5816 L200.475 359.4313 L200.4717 359.33 L200.47 359.2738 L200.1707 358.2284 L200.0251 357.8339 L199.9247 357.6848 L199.7287 357.6002 L199.3533 357.5389 L199.1263 357.4288 L198.8669 357.4302 L198.6183 358.0997 L198.4196 358.3951 L198.2065 358.2937 L197.9245 357.9517 L197.26 357.5258 L197.0882 357.3354 L196.7767 357.2964 L195.8326 357.1404 L195.6788 357.128 L195.41 356.9985 L194.8251 356.7808 L194.4676 356.6831 L192.8122 355.7471 L192.3361 355.5057 L191.9123 355.1903 L191.9147 354.6962 L192.1254 354.5277 L191.9953 354.1945 L192.1683 353.9407 L192.2029 353.6803 L192.0306 353.4236 L191.7409 353.1038 L191.7227 353.0838 L191.7037 352.5718 L191.8247 352.3231 L192.2953 352.1598 L192.7424 352.1634 L193.0838 352.0584 L193.3903 351.4097 L193.3207 350.9521 L193.5734 350.3613 L193.9319 349.8793 L193.9101 349.7243 L193.9017 349.6648 L194.1278 349.5544 L194.4352 349.5051 L194.662 349.3684 L195.0538 348.8929 L195.2634 348.4349 L195.3238 348.1359 L195.6178 347.7027 L195.9591 347.3541 L196.1047 347.3045 L196.5532 346.4121 L197.2475 345.8674 L196.5326 345.1785 L196.3413 344.784 L196.0961 344.3602 L195.5998 343.9945 L195.3593 343.6218 L195.2634 343.5106 L195.0164 343.4311 L194.8657 343.1922 L194.799 342.9745 L194.5297 342.5227 L194.559 342.3123 L194.6135 342.1949 L194.8261 342.0793 L195.0126 342.0712 L195.1314 342.0435 L195.2466 341.8714 L195.2062 341.6413 L195.3231 341.6129 L195.499 341.665 L196.2355 342.1526 L197.0601 342.5355 L198.0898 342.7896 L198.9343 342.8709 L199.1297 342.8523 L200.1314 343.0989 L200.3106 343.2867 L200.4414 343.4883 L201.0236 343.601 L201.2463 343.6655 L201.3135 343.1255 L201.2766 343.0135 L201.0349 342.7499 L200.5708 342.5996 L200.0978 342.391 L200.3857 341.6851 L201.0762 341.692 L201.2038 341.584 L200.9166 340.9791 L200.1647 340.7125 L199.9967 340.5276 L199.703 340.6056 L199.5218 340.7825 L198.9955 340.8784 L198.6449 340.889 L198.3183 340.874 L197.8561 340.9178 L197.3277 340.9911 L197.1119 341.1764 L196.8364 341.2489 L196.6725 341.2183 L196.5511 340.9003 L196.4409 340.7132 L195.7373 340.4642 L195.5787 340.2454 L195.6022 340.0091 L195.8571 339.7509 L196.7061 339.6633 L197.1695 339.4821 L197.764 339.4004 L197.877 339.4022 L198.0445 339.4493 L198.2293 339.69 L198.3553 339.7702 L198.5374 339.7527 L198.8964 339.3464 L199.0416 339.1448 L199.211 338.9902 L199.6166 338.833 L200.1688 338.7345 L200.6473 338.6197 L201.1184 338.6671 L201.4592 338.5887 L201.5734 338.1295 L199.3761 338.4443 L198.4757 338.7601 L198.2933 338.9424 L197.822 339.0303 L197.409 339.1783 L197.295 339.2582 L196.9271 339.2932 L196.762 339.2826 L196.1573 339.0288 L195.445 338.6933 L195.2451 338.7681 L195.0351 338.7024 L194.8021 338.4249 L194.4541 338.3593 L194.2929 338.391 L193.9231 338.232 L193.8227 337.8298 L193.698 337.7262 L193.5304 337.6566 L193.3421 337.6449 L193.0651 337.4965 L193.3073 337.1044 L193.1796 336.8302 L193.0253 336.7624 L192.8055 336.7999 L192.5576 336.8171 L192.1114 336.9976 L191.889 336.9728 L191.6538 336.7828 L191.6336 336.773 L191.1256 336.4364 L190.8602 336.3065 L190.6065 336.1957 L189.9492 336.1559 L189.6557 336.2467 L189.3838 336.3944 L189.1256 336.1366 L188.7284 335.8212 L188.4503 335.4853 L187.9754 335.257 L187.4592 335.1523 L186.9639 334.9758 L186.5588 334.6706 L185.8931 334.3209 L185.0426 334.1528 L184.9411 334.0503 L184.9902 333.8413 L185.0915 333.6965 L185.195 333.3672 L185.6716 332.4358 L186.3514 331.0103 L186.4114 330.3721 L186.3646 330.239 L186.2163 330.1153 L186.0217 330.0479 L185.7954 330.0541 L185.506 330.2003 L183.829 333.2702 L183.5506 333.2075 L183.1837 333.1502 L182.9031 333.0649 L182.2542 332.422 L182.1453 332.0008 L181.5112 331.7218 L181.4815 331.4085 L181.2691 331.1091 L181.133 330.852 L180.8777 331.0343 L180.5175 331.0457 L180.0975 331.1547 L179.9113 330.8531 L179.3507 330.6562 L178.995 330.5088 L178.6514 330.4527 L178.5144 330.6697 L177.9838 330.48 L176.7661 329.6569 L177.4028 328.506 L177.6574 328.0731 L177.8633 327.5428 L178.2134 327.4239 L179.1321 327.4119 L179.3524 327.3448 L179.9314 327.4939 L180.278 327.3028 L180.5818 327.1818 L180.5926 326.568 L179.6996 326.2609 L179.2468 326.1953 L178.8307 326.4163 L178.578 326.246 L178.6262 326.146 L178.0049 325.8131 L178.115 325.3805 L178.3092 324.8977 L178.5864 324.0115 L179.0488 322.9626 L178.7116 322.3853 L178.7675 321.9352 L178.6384 321.5782 L178.0954 321.4983 L177.762 321.5862 L177.7138 322.7405 L177.4539 323.4309 L177.1868 324.0428 L177.043 324.1223 L176.8791 323.9863 L176.8647 323.487 L176.6411 323.3105 L176.2473 323.7664 L175.6828 325.0195 L175.5084 325.5005 L175.2465 325.9969 L175.2069 326.3069 L174.9607 326.6566 L175.0702 327.1172 L174.9379 327.5942 L174.3817 327.789 L173.804 327.9691 L173.163 327.7208 L172.7311 327.4622 L172.1657 326.9724 L172.0181 326.4888 L172.188 326.1333 L172.1654 325.7897 L172.116 325.4779 L171.7663 325.2543 L171.6958 324.7175 L170.7167 324.9228 L169.7121 324.653 L169.5487 323.8977 L169.7944 323.7886 L169.9931 323.6314 L170.1078 323.3864 L169.9312 323.1858 L169.7311 323.0169 L169.4469 322.7211 L169.2907 322.3896 L169.2288 322.258 L169.9768 321.7616 L171.2753 321.6675 L171.444 321.6445 L171.5583 321.8116 L171.5278 322.0089 L171.3999 322.4265 L171.2417 322.7346 L171.3701 322.8411 L171.584 322.8109 L171.7157 322.7784 L171.8794 322.6343 L171.9499 322.4432 L171.9314 322.0395 L171.937 321.7853 L171.9845 321.7018 L172.0975 321.5034 L172.278 321.3973 L172.4107 321.3418 L172.5727 321.3889 L172.7879 321.3717 L173.3634 321.2047 L174.1949 320.9312 L174.6046 320.6449 L174.9386 320.5832 L176.3289 320.4312 L176.7359 320.2539 L177.0483 320.2244 L177.3437 320.1171 L177.6495 320.1901 L177.965 320.1565 L178.1503 320.3433 L178.4556 320.5843 L178.7188 320.7634 L178.9648 320.8619 L179.1366 320.8028 L179.4464 320.9873 L179.8458 321.4239 L180.0982 321.7868 L180.1266 321.8035 L180.8047 321.6482 L180.8146 321.6281 L181.0454 322.0541 L181.3685 322.3429 L181.7414 322.4655 L182.3099 322.5034 L182.7507 322.3692 L182.9583 322.1683 L183.091 321.9053 L183.5717 321.9516 L183.5225 322.1606 L183.6608 322.4407 L183.9252 322.5968 L184.2396 322.3426 L184.2367 322.0694 L184.5672 322.1963 L184.811 322.3772 L185.0913 322.4075 L185.5708 323.1362 L185.8023 323.9571 L185.8136 324.0764 L186.1052 324.3616 L187.9509 326.1675 L189.481 327.8798 L190.3944 328.4979 L190.8319 328.8608 L191.2139 329.3218 L192.2096 329.5694 L192.4573 329.8112 L192.7448 330.1905 L193.1208 330.7973 L193.3159 331.0883 L193.4954 331.3888 L193.7781 331.8414 L193.8938 331.9858 L194.5679 332.8271 L195.2062 333.465 L195.5321 333.6809 L195.6869 333.7188 L195.8964 333.9197 L196.1095 334.5583 L196.4966 334.9857 L196.8112 335.3941 L197.1472 335.5794 L197.278 335.2606 L197.0574 335.0809 L196.7577 334.7599 L196.5084 334.7279 L196.0215 333.7826 L195.8201 333.5645 L195.8323 333.3129 L195.9228 333.1922 L196.0872 333.1601 L196.4757 333.446 L196.6262 333.682 L196.9003 333.7319 L197.2146 333.7578 L197.3373 333.977 L197.8801 334.0207 L198.2614 334.2676 L198.3301 334.4029 L198.2725 334.5565 L198.0368 334.8095 L198.1078 335.0728 L198.2422 335.2085 L198.4892 335.389 L198.835 335.2245 L198.9655 334.8693 L199.0939 334.5689 L198.9487 334.5043 L198.8021 333.9759 L197.552 333.0536 L197.1774 333.2607 L196.8278 333.1393 L196.5441 332.7115 L195.9432 332.4358 L195.9631 332.0551 L196.0234 331.6871 L196.1854 331.3852 L196.6449 331.3808 L196.8479 331.131 L196.8544 330.7845 L196.5873 330.5989 L195.9475 330.2612 L194.8909 329.867 L194.6809 329.7889 L194.3356 329.5902 L194.278 329.557 L193.6476 329.561 L193.3502 329.1609 L192.4388 328.0683 L191.8453 327.6274 L191.3716 327.4815 L191.0481 327.3969 L190.7769 327.1001 L190.5835 326.7923 L190.5129 326.4268 L190.6363 326.204 L190.5223 325.9713 L190.3118 325.8991 L189.9231 325.9921 L189.5667 326.3225 L189.3317 326.0946 L189.0471 325.5188 L188.9509 325.1953 L188.7975 325.068 L188.404 324.9341 L187.6922 324.2872 L187.5266 323.6143 L187.5873 323.3878 L187.7601 323.2693 L188.0591 323.2011 L188.4083 323.2799 L188.6648 323.4236 L188.9216 323.7055 L190.0423 324.4061 L190.457 324.5873 L190.7476 324.5002 L191.1251 324.115 L191.3793 323.9888 L191.7702 323.991 L192.0546 324.2069 L192.0891 324.5833 L192.165 324.8627 L192.4762 324.9254 L192.7222 324.7799 L193.0277 324.7806 L193.2149 324.9899 L193.7102 325.1537 L193.7695 325.3984 L193.6447 325.677 L193.4112 325.8838 L193.1234 326.0694 L192.7752 326.0366 L192.4976 326.0534 L192.2593 326.1716 L192.1383 326.3182 L192.0814 326.5147 L192.1635 326.7573 L192.2758 326.9374 L192.4985 327.068 L192.6128 327.2678 L192.7858 327.7095 L192.9691 327.8072 L193.201 327.8608 L193.4539 327.8962 L193.7121 327.8123 L193.7726 327.444 L193.7047 327.1442 L193.7596 326.8918 L194.0195 326.8276 L194.2103 326.8291 L194.3044 326.6092 L194.5077 326.5341 L195.242 326.8659 L195.4201 327.185 L195.158 327.3681 L195.0066 327.6066 L195.0351 327.8047 L194.9005 327.8736 L194.7978 328.1438 L194.8686 328.3346 L194.9075 328.3557 L195.1698 328.4972 L195.3956 328.4195 L195.4693 328.1916 L195.4316 327.8988 L195.5681 327.6752 L195.9075 327.681 L196.2362 327.6872 L196.7366 327.216 L197.0486 327.1427 L197.2187 327.4487 L197.4882 327.657 L197.8933 327.6347 L198.4078 328.0315 L198.943 328.2795 L199.1314 328.6373 L200.0742 329.3677 L200.4537 329.4899 L200.7143 329.5012 L200.9461 329.5913 L201.1196 329.6897 L201.3793 329.7609 L201.8741 329.7138 L202.045 329.7831 L202.2991 329.9334 L202.469 329.4724 L202.2919 329.5125 L201.9679 329.4906 L201.6576 329.4377 L201.3977 329.1923 L201.0591 329.1883 L200.8547 329.1453 L200.5177 329.0552 L200.0961 328.9046 L199.638 328.4013 L199.4263 328.0063 L199.032 327.622 L198.8254 327.1161 L198.6276 326.8204 L198.3927 326.3156 L198.3771 326.1526 L198.2873 325.9706 L198.3821 325.7533 L198.518 325.7306 L198.6312 325.8178 L198.882 326.2011 L199.3013 326.0891 L199.6852 326.0213 L200.1832 326.0775 L200.1928 326.421 L200.2586 326.6668 L200.368 326.6686 L200.6953 326.5939 L200.7529 325.9527 L201.0174 325.9013 L201.1266 325.9039 L201.3764 325.9097 L201.6284 325.9637 L201.7596 326.0381 L201.7949 326.2109 L202.0598 326.7368 L202.4361 327.0082 L202.6641 326.9535 L202.9787 327.0851 L203.1162 327.2168 L204.291 325.8499 L203.8482 325.6843 L203.3728 325.6242 L202.871 325.5271 L202.3039 325.4031 L201.8136 325.2554 L201.6161 324.7306 L201.3025 324.4706 L200.7968 324.5417 L200.3128 324.5519 L200.1741 324.5549 L199.9214 324.4899 L199.6812 324.312 L199.6341 324.1519 L199.5842 323.9819 L199.6003 323.2653 L199.3687 322.8058 L199.225 322.7335 L198.9634 322.6602 L198.7812 322.7412 L198.548 322.987 L198.2187 323.1216 L198.067 322.964 L197.9259 322.8568 L197.846 322.7959 L197.7846 322.5092 L198.0925 322.1026 L197.7025 321.3375 L197.4774 321.2601 L196.4969 320.7933 L194.9046 319.4191 L194.5146 319.2203 L193.5204 318.8334 L192.6272 318.2476 L191.6852 317.5113 L191.5856 317.3567 L191.5652 317.1411 L191.6142 316.8927 L191.8631 316.609 L192.0812 316.2749 L190.3442 314.9645 L190.2377 314.7077 L190.338 314.5863 L189.9159 314.3959 L189.6944 314.2784 L189.4071 314.2631 L188.5249 313.5497 L188.2605 314.0527 L189.572 316.4186 L189.5986 316.9431 L189.3053 317.3501 L188.6888 317.3625 L188.3817 317.2403 L186.8494 317.2611 L186.6533 317.0984 L185.786 316.1597 L185.4124 316.2052 L184.882 315.8077 L182.5998 316.6958 L181.9348 316.8347 L181.4402 317.0182 L180.8124 317.078 L180.4757 317.0193 L180.0354 316.6684 L179.8165 316.5503 L179.607 316.4372 L179.2797 316.1659 L178.8323 315.7399 L178.2794 315.3091 L178.0438 315.0845 L177.2849 314.3609 L177.1458 314.0523 L175.8052 317.0813 L172.3879 320.5971 L169.8633 320.4585 L167.2451 318.7772 L165.8652 320.2032 L164.0342 319.74 L163.1438 319.0471 L161.464 318.6423 L159.4841 321.1879 L160.7896 322.4972 L161.7447 323.3032 L162.4455 321.9757 L164.2237 323.8284 L160.8282 328.4031 L160.8028 328.4578 L159.923 328.8448 L159.6636 329.1234 L159.2643 329.2076 L159.0202 329.6164 L159.1745 329.6821 L159.3101 330.0205 L159.2021 330.2517 L159.193 330.5643 L159.3336 330.6813 L159.2559 330.8185 L158.9886 330.8699 L158.7771 331.3713 L158.7685 331.554 L158.8386 331.6124 L159.068 331.7079 L159.1933 331.9297 L159.0824 332.2652 L158.9506 332.3819 L158.7625 332.3946 L158.4613 332.4154 L157.8184 332.3337 L157.1424 332.1773 L156.8659 331.9957 L156.511 331.5358 L156.5072 331.5088 L156.4328 330.984 L156.4942 330.5362 L156.6507 330.0008 L156.8162 329.5563 L157.1045 329.3203 L157.1923 329.286 L157.2393 329.2817 L157.4493 329.2616 L157.8666 329.2868 L158.1587 329.259 L158.6999 328.3127 L158.0862 327.2113 L158.2993 326.0603 L158.7126 325.4352 L158.7887 324.6438 L158.7803 324.5953 L158.6864 324.0508 L158.5259 323.5297 L158.5638 323.3827 L158.6641 323.3473 L158.8294 323.4487 L159.0478 323.7007 L159.1409 323.4965 L157.6843 321.8517 L157.9986 320.8451 L156.5443 319.5285 L155.8772 320.2433 L155.3636 320.5865 L155.1769 324.1048 L152.4836 328.0264 L146.2708 329.9107 L144.6437 328.9815 L144.4901 328.7007 L145.6252 327.3149 L144.9389 325.681 L142.451 324.7562 L142.4599 323.657 L143.0531 320.8962 L143.2448 319.5653 L142.3447 319.2659 L140.5352 317.0594 L140.7392 315.9142 L140.1609 314.7106 L136.7147 313.1715 L132.5727 309.9182 L130.0265 305.3007 L127.4419 302.6417 L129.8057 300.9858 L127.9338 295.1351 L126.4531 294.0336 L122.827 290.7288 L119.4287 289.4649 L116.2211 290.8076 L111.4702 287.5199 L111.5143 286.1072 L109.0274 284.7039 L107.5738 284.3599 L105.8076 285.2671 L90.3291 272.0967 L80.7697 265.7822 L76.3015 264.3484 L76.6648 264.5717 L77.3442 265.4188 L78.0915 266.259 L78.5472 267.093 L78.5628 267.7011 L78.7051 270.2285 L78.935 270.6415 L79.0322 271.2481 L79.3339 271.5159 L79.5981 271.2897 L79.9302 271.4291 L80.6576 272.4075 L82.6708 274.6368 L84.7797 276.3561 L87.0927 278.0757 L85.0332 281.6134 L79.2386 282.173 L72.3038 281.0929 L77.7567 288.8962 L78.4615 289.1909 L78.8004 289.5736 L79.0713 289.9697 L78.953 290.1062 L79.7305 290.9907 L79.8661 291.0338 L80.9868 291.8982 L82.0648 292.7638 L83.4346 293.6575 L83.8633 293.88 L84.1863 294.1324 L84.5724 294.4943 L84.9844 295.0611 L85.1212 295.1169 L85.3029 295.1621 L85.4843 295.3062 L85.5357 295.4331 L85.5038 295.5812 L85.354 295.6976 L85.1841 295.7767 L85.1222 295.7133 L84.9182 295.6075 L84.7056 295.7202 L84.5998 296.0237 L84.367 296.1317 L84.1399 296.1634 L83.899 296.1535 L83.7226 296.1638 L83.3454 296.1342 L83.0128 296.1627 L81.9792 296.0375 L81.2155 296.4672 L80.6624 297.2183 L80.4838 297.6902 L80.2688 298.1918 L79.912 298.4982 L79.6585 298.5799 L79.4142 298.8075 L78.942 299.3703 L78.7997 299.6701 L78.301 300.2982 L78.0915 300.3744 L77.9652 300.5678 L77.9384 300.768 L77.7365 301.0802 L77.4687 301.3202 L77.2206 301.3377 L77.0046 301.4143 L76.8779 301.5683 L76.7164 301.6244 L76.6444 301.6496 L76.1781 301.7101 L75.5474 301.778 L75.2153 301.6427 L74.8884 301.3016 L74.5446 301.1824 L74.2328 301.1167 L73.8784 301.1572 L73.4356 301.2688 L72.9314 301.3567 L72.5033 301.4833 L72.1851 301.4876 L71.7521 301.5653 L71.2856 301.4304 L71.2619 301.6255 L71.1025 302.0559 L71.0123 302.4535 L69.9871 303.1786 L69.7864 303.4044 L69.773 303.6892 L69.8505 304.2254 L69.7864 304.6605 L69.6293 304.9852 L69.5441 305.5264 L69.4999 305.9608 L69.2779 306.8595 L70.0564 307.426 L77.4562 314.0242 L78.6386 315.4062 L76.9019 317.0226 L76.7701 317.6572 L76.7857 318.1853 L76.3048 318.7185 L75.0919 319.8764 L79.0473 323.2485 L78.8505 324.5213 L82.3063 325.1668 L82.683 329.9407 L83.4735 332.038 L84.079 333.0215 L94.9873 341.2923 L94.3799 341.9163 L93.7968 341.5545 L93.3281 341.8667 L91.3267 340.5623 L90.7896 339.5609 L90.1776 340.4507 L88.5746 339.4223 L89.0039 338.6025 L87.7898 337.9891 L86.2556 337.2678 L84.4459 335.9721 L84.0166 336.4725 L83.7802 336.5239 L82.9187 335.955 L82.4781 335.5192 L81.9825 334.7074 L81.5815 334.0503 L82.3866 333.2462 L84.2331 334.5007 L82.4776 331.3254 L81.5532 330.5646 L78.9698 328.9148 L76.8899 326.9319 L74.2971 325.2642 L74.3893 327.0487 L72.8318 327.7343 L70.9 332.2746 L66.5803 331.8844 L64.5765 329.1055 L65.5268 327.0632 L65.054 323.5366 L62.839 323.9487 L62.2606 324.1311 L59.2561 327.3696 L56.1719 331.3556 L55.4853 332.3261 L55.2856 332.8844 L50.9014 338.8235 L50.3067 339.2629 L49.9568 339.6794 L50.0687 341.1982 L49.3223 341.4418 L47.7024 342.0275 L46.9213 342.0851 L45.6007 342.4013 L44.9544 342.6182 L43.6328 342.9242 L43.3458 343.1408 L43.2525 343.597 L43.557 344.9955 L43.7159 346.8381 L43.7929 347.4671 L43.5753 347.6946 L42.0276 347.319 L41.9163 347.0135 L41.8817 345.7911 L41.7987 343.9937 L41.2203 338.9913 L40.76 338.9267 L41.3801 345.2989 L41.1661 345.9217 L40.3698 349.0428 L40.2933 349.1361 L39.0226 348.902 L37.7272 348.7547 L36.7221 349.88 L36.7137 350.3281 L36.9304 350.8062 L37.0871 351.0148 L37.3098 351.9198 L37.4601 353.2165 L37.3679 355.8638 L37.0588 356.5128 L36.6081 356.4705 L36.492 356.1489 L36.4601 355.2297 L36.1183 353.2478 L35.8752 351.3492 L35.5786 350.3602 L35.3024 351.0341 L35.6422 352.9795 L35.7111 354.4176 L35.7269 356.0158 L35.6508 356.7673 L35.6127 357.1447 L35.3633 357.2202 L32.8215 356.7422 L24.4041 355.2847 L24.8956 356.5566 L26.3794 358.0235 L27.1841 358.7717 L28.8387 361.7577 L31.8891 365.868 L34.3837 369.2546 L36.0255 371.4003 L40.7562 375.8466 L43.0699 377.8373 L44.3754 379.2074 L45.9393 380.6162 L48.3758 382.1285 L50.6832 383.3823 L52.4927 384.9336 L53.863 386.3809 L55.5498 388.1907 L56.4872 388.9085 L57.1623 389.5389 L57.4773 391.0128 L56.8923 392.3971 L56.3185 393.5108 L56.2285 393.6796 L56.5772 393.8936 L56.8697 394.2199 L57.1399 395.4688 L57.7586 395.6376 L57.8937 396.4703 L57.1639 397.3525 L56.9859 398.0652 L57.9806 398.674 L58.3156 399.3743 L58.6518 401.2094 L58.0831 402.3472 L55.9374 404.0274 L55.8596 405.2941 L56.7903 405.5526 L57.54 406.8711 L57.3074 407.9567 L55.6012 408.474 L54.5414 409.6631 L54.6705 410.9557 L55.2911 412.7393 L55.1603 414.2696 L52.5606 417.7438 L51.0727 418.0682 L50.5736 416.1144 L49.2273 414.2954 L49.4529 412.8519 L48.7905 412.7244 L47.5642 411.5068 L46.6811 414.2918 L47.7706 415.4655 L46.8995 417.9953 L46.4819 424.8516 L44.9988 424.068 L42.0303 425.8649 L41.1687 427.7676 L41.5335 428.4966 L40.3072 428.6132 L40.2232 429.7869 L34.4829 429.047 L34.1831 430.0905 L32.3019 431.6133 L28.5642 431.5302 L27.5294 430.2691 L25.8294 430.755 L23.3669 428.3326 L18.222 429.3021 L15.4879 428.2553 L14.6904 426.3446 L8.7077 424.9672 L9.5623 430.6474 L12.4975 433.8804 L12.1358 436.9526 L12.5517 437.9396 L12.6204 438.2785 L12.5229 438.8048 L12.0924 439.5906 L11.4759 440.8634 L7.9458 441.8037 L2.9566 440.6301 L0.3369 440.7318 L0.0 441.8 M26.4889 357.8879 L26.5678 357.6826 L27.0557 357.5962 L29.8923 358.0975 L32.0907 358.522 L33.5738 358.779 L35.1358 359.0248 L35.5153 359.1411 L35.934 359.3128 L36.2066 359.5564 L36.9227 361.0718 L37.4368 361.8791 L37.9227 362.1879 L38.4891 363.1647 L38.576 363.4933 L38.7723 363.7445 L39.0094 363.8181 L39.3818 363.7051 L39.7233 363.5622 L39.9374 363.8342 L40.1702 364.4825 L40.4778 364.6593 L40.9671 365.1282 L41.221 365.6372 L41.8884 366.4321 L42.509 367.3243 L43.72 368.7098 L44.4565 369.6195 L44.8966 369.9706 L45.5388 369.8496 L45.7646 369.9466 L45.8673 370.1971 L45.2789 371.071 L45.2935 371.2245 L45.0667 371.7528 L44.5337 372.1893 L44.3257 372.5553 L44.5114 372.6428 L45.0226 372.6662 L45.8253 372.3355 L46.3197 372.2155 L46.7706 372.2611 L47.1987 372.5495 L47.4469 372.8087 L47.5743 373.2656 L47.6417 373.7921 L47.8244 374.2733 L48.3782 374.7017 L48.4759 374.8301 L48.4905 374.9836 L48.4099 375.2147 L48.2366 375.369 L48.1867 375.5629 L48.2839 375.8634 L48.7656 376.9692 L48.8896 377.3921 L46.3804 377.7326 L46.1138 377.4023 L45.4704 376.4332 L45.0211 375.9388 L44.4509 374.9628 L44.2172 374.8509 L43.941 374.922 L43.8455 375.1703 L43.9623 375.4579 L44.413 375.9673 L44.3444 376.1827 L43.9995 376.47 L42.9667 377.1963 L43.0132 377.3713 L43.1735 377.4902 L43.761 377.7177 L43.935 377.8723 L43.3331 377.9051 L42.8512 377.465 L42.3943 376.9757 L42.0427 376.5758 L41.7084 376.4463 L41.5078 376.1062 L41.3926 375.7882 L41.4718 375.4116 L41.1013 375.2512 L40.5676 374.8552 L39.8419 374.1982 L39.3912 373.1609 L39.3895 372.7989 L39.8378 372.5054 L39.8289 372.2064 L40.1817 372.0146 L40.2897 371.8393 L40.0749 371.6526 L39.7737 371.731 L39.1781 372.0285 L38.1805 372.8623 L37.9835 372.8284 L35.9842 370.6722 L36.0099 370.495 L36.2119 370.3404 L36.3101 370.1632 L36.2021 369.6859 L35.9033 369.5171 L35.0178 369.5626 L34.5335 369.3282 L34.2659 368.673 L33.9232 368.3864 L32.7336 366.6957 L30.144 363.4134 L29.8025 362.9686 L29.6573 362.686 L29.0511 361.9108 L28.5978 361.121 L28.0051 359.8667 L27.7147 359.338 L27.4337 358.8709 L26.8159 358.2153 L26.4889 357.8879 M39.8128 440.9946 L41.0751 435.5566 L40.9191 433.9639 L41.0223 433.9639 L41.3919 434.3721 L44.7636 433.9238 L44.4325 438.5781 L43.7101 441.0383 L41.5935 441.2789 L39.8128 440.9946 M43.3554 377.9339 L43.9446 377.8956 L44.3566 378.4968 L44.7651 378.7054 L45.5561 379.4925 L46.2153 380.0682 L47.2914 380.7784 L49.0036 381.8558 L49.6192 382.1821 L50.1407 382.3461 L50.5361 382.6013 L50.7742 382.687 L50.8628 382.6159 L50.8769 382.4909 L51.0012 381.3607 L51.1982 381.2794 L51.3576 381.1259 L51.5229 381.1033 L51.6964 381.1656 L51.9117 381.2899 L52.4361 382.1099 L52.5388 382.3531 L52.6739 382.531 L53.12 382.765 L53.365 383.0972 L53.5705 383.1497 L53.9712 383.1508 L54.1337 383.3396 L54.7492 383.7315 L55.2899 383.8245 L56.1589 384.153 L56.7231 384.3196 L56.8872 384.5245 L56.9943 384.8205 L56.9024 385.3036 L56.7735 385.6387 L56.5647 386.1002 L55.9362 386.9839 L55.768 387.1484 L55.5829 387.3405 L55.1882 387.5399 L54.9645 387.4218 L54.397 386.8549 L53.3926 385.6569 L52.2856 384.3105 L51.569 383.8227 L50.4555 383.1325 L48.4869 382.111 L47.2198 381.2662 L46.9892 381.0872 L46.5289 380.9108 L45.659 380.3292 L45.0747 379.8155 L44.5493 379.3354 L43.6127 378.1607 L43.3554 377.9339 M46.3878 377.7472 L48.9045 377.4067 L49.1455 378.2638 L49.2287 378.985 L49.5273 379.4637 L50.325 380.6289 L50.4877 381.2684 L50.8006 381.3803 L50.9815 381.3607 L50.8628 382.4796 L50.4985 382.1493 L48.8409 380.3814 L48.3132 379.8494 L47.4977 379.1068 L46.3878 377.7472 M47.2446 342.4757 L47.7008 342.08 L49.2194 341.7952 L49.6384 341.778 L49.9967 341.6088 L50.1637 341.2599 L50.2786 339.9179 L50.5961 339.6633 L51.1179 339.6593 L51.4673 339.6028 L51.7588 339.6637 L52.211 339.6502 L52.7632 339.7221 L53.4783 339.7129 L53.816 339.2225 L53.9979 339.2017 L54.8376 339.1904 L55.4896 339.2068 L56.2124 338.864 L56.911 338.3359 L57.2227 337.7127 L57.3725 337.7678 L57.8498 338.8797 L58.3458 339.7782 L59.1323 340.8569 L59.1474 341.0137 L58.8184 341.1111 L58.6439 341.8659 L58.5143 342.1252 L58.4267 342.6872 L58.1843 342.7302 L58.12 342.4695 L58.0019 342.092 L57.587 341.8058 L56.5565 341.4039 L55.8577 341.9618 L55.228 342.3517 L54.912 342.4811 L54.372 342.4341 L54.1911 342.5701 L54.1104 343.5496 L54.1056 344.1859 L54.0739 345.0946 L54.5921 345.5326 L54.8505 345.8998 L55.0583 346.7363 L54.828 347.5557 L54.444 347.9747 L54.4963 348.3521 L54.3922 348.4163 L54.2657 347.8274 L54.0665 347.6323 L53.9069 347.2687 L53.8292 346.9004 L53.5378 346.4639 L52.9451 346.4486 L52.7584 346.0413 L52.9799 345.2624 L52.8762 344.35 L53.1431 343.8763 L53.2201 343.6152 L53.4783 343.3961 L53.8143 343.1991 L53.8107 342.9555 L53.7116 342.7411 L53.0766 342.2849 L52.7802 342.3101 L52.54 342.6492 L52.3545 343.1153 L52.1174 343.6254 L51.6729 344.1327 L51.1279 344.8573 L51.2054 345.1526 L51.0679 345.3306 L50.3648 345.0884 L49.4805 344.6662 L48.1018 343.7476 L47.7884 343.3198 L47.4512 343.0226 L47.2446 342.4757 M50.3787 355.9713 L50.563 355.7 L51.0907 355.5505 L51.3958 355.202 L51.8356 354.9916 L52.2155 354.1547 L52.2916 353.5742 L52.6367 353.2314 L53.1303 353.1049 L53.6854 352.8278 L53.8546 352.3632 L53.4051 351.9224 L52.9765 351.6999 L51.9393 351.8093 L51.6751 351.6237 L51.6465 351.3353 L51.8491 351.076 L52.1795 350.7814 L52.5894 349.7079 L53.0147 349.6207 L54.1023 349.1769 L54.3437 348.8509 L54.4255 348.5727 L54.3934 348.4228 L54.4963 348.3645 L54.5078 348.4363 L54.8078 348.5855 L54.8553 348.8214 L54.6715 349.0453 L54.2674 349.2907 L53.7874 349.6291 L53.5112 349.9354 L53.3254 350.1724 L53.5287 350.7737 L53.7773 351.142 L53.9638 351.4768 L54.3857 352.0784 L54.5318 352.0941 L54.6012 352.4314 L54.491 352.889 L54.4253 353.2741 L54.4867 353.5603 L54.7862 353.7631 L55.2729 353.9403 L55.5395 354.0209 L55.5609 354.0169 L55.6739 354.0468 L55.9688 353.9359 L56.3451 353.8174 L56.8709 353.7868 L57.3514 353.7033 L58.1183 353.8119 L58.7356 353.9181 L59.2606 354.0924 L59.5145 354.2459 L60.2604 354.8154 L60.6621 355.2052 L60.7684 355.4587 L60.7346 355.7252 L59.7025 356.6809 L59.3847 357.3438 L60.6173 359.0736 L61.8443 360.3327 L62.9112 361.1199 L63.0003 361.365 L62.6708 361.5611 L61.1037 362.8315 L60.6021 362.9784 L60.253 362.9 L59.6384 362.4483 L58.8318 361.7055 L58.0504 360.779 L57.3566 360.1508 L56.7612 359.5225 L56.6055 358.612 L56.0922 358.3283 L56.103 358.0279 L56.4325 357.3143 L56.5052 357.0437 L57.1349 356.9511 L57.2827 356.7451 L57.1774 356.1431 L56.9808 355.8382 L56.6314 355.8116 L56.4997 355.8627 L56.3638 355.8802 L56.2019 356.1194 L56.2102 356.2685 L56.1515 356.4217 L55.7053 357.3883 L55.3854 357.9229 L54.827 358.2853 L54.2803 358.2025 L53.7773 357.9932 L53.0943 358.0629 L52.3389 357.1338 L52.1289 357.0652 L51.9455 357.0729 L51.7684 357.35 L51.4483 357.5061 L51.0423 357.2089 L50.8404 356.8494 L50.8774 356.3422 L50.6494 356.1562 L50.3787 355.9713 M54.9794 410.5164 L55.1291 410.0823 L55.3106 409.7487 L55.4699 409.5588 L55.7675 409.7181 L56.0399 409.6211 L56.1963 409.4629 L56.2278 409.3022 L55.97 408.8888 L56.0087 408.7211 L56.0797 408.6052 L56.391 408.4386 L56.7152 408.4073 L57.48 408.4156 L57.7476 408.3628 L57.929 408.2636 L57.9921 408.0661 L58.0821 407.8656 L58.2945 407.5171 L58.3718 407.181 L58.3434 406.8831 L58.1704 406.7898 L57.8248 406.57 L57.8755 406.1041 L58.269 405.8231 L58.415 405.9186 L58.672 405.7571 L58.856 405.6845 L59.1344 405.74 L59.3238 405.7221 L59.4147 405.2478 L59.1738 404.724 L58.911 404.8312 L58.7346 404.985 L58.6667 405.1283 L58.3631 405.3762 L58.1584 405.2318 L58.0783 404.9657 L58.0658 404.8348 L59.2275 404.144 L59.4246 404.2074 L59.8584 404.4666 L60.0413 404.6679 L60.1656 404.9817 L60.469 405.1469 L60.6465 405.2938 L60.7241 405.5329 L60.5724 405.6565 L60.5349 405.997 L60.6564 406.1337 L60.8844 406.0644 L61.1116 405.8785 L61.2414 405.8114 L61.39 405.9339 L61.5213 406.1676 L61.5342 406.3032 L61.7389 406.4475 L62.3674 407.3173 L62.5301 407.8765 L62.5057 408.4809 L62.3708 409.0682 L62.0336 409.3507 L61.6816 409.1013 L61.5385 409.2894 L61.7929 409.5891 L61.8601 409.7192 L61.9105 409.9609 L61.796 410.1902 L61.814 410.3801 L61.9324 410.4785 L62.2352 410.5044 L62.4925 410.3425 L62.6674 410.4628 L62.7526 410.7829 L62.3924 411.0089 L61.7788 411.7241 L61.3809 411.8448 L61.2045 411.9982 L61.0876 412.2009 L61.0826 412.7214 L61.0219 412.946 L60.7636 413.3812 L60.6324 413.722 L60.6559 414.5408 L60.5906 414.7114 L60.4332 414.7813 L60.2866 414.9592 L60.2045 415.2406 L59.6257 415.4994 L59.306 415.6256 L59.1769 415.3383 L59.0175 415.0802 L58.784 414.9381 L59.1896 414.3261 L59.2832 413.8792 L59.2522 413.5536 L59.1378 413.2092 L58.9201 412.9289 L59.2187 412.6267 L59.3276 412.3423 L59.3211 411.9877 L59.1164 411.8429 L58.8325 411.9694 L58.5345 412.186 L58.2966 412.4787 L58.114 413.0608 L57.9456 413.2959 L57.7382 413.1246 L57.8834 412.6453 L57.8757 411.9895 L57.8395 411.61 L57.5779 411.4434 L57.2962 411.6348 L57.2215 411.9975 L57.1731 412.6314 L57.5258 413.6594 L57.3319 413.9313 L57.0886 414.0348 L56.1399 414.099 L56.019 413.9732 L55.9633 413.6779 L55.8724 413.3841 L55.6487 412.6682 L55.6564 412.175 L55.5738 411.8823 L55.1836 411.509 L55.0427 410.8933 L54.9794 410.5164 M55.899 387.2497 L56.9182 385.7582 L56.9482 385.7834 L57.4872 385.409 L57.9671 385.1388 L58.4416 384.8461 L58.9252 384.8887 L59.4711 385.1363 L59.8301 385.5267 L59.9252 385.8698 L59.91 386.3653 L59.7896 386.7196 L59.8176 387.3226 L59.8728 387.6216 L60.0771 387.7911 L61.0029 387.7 L61.2707 387.5818 L61.6089 387.4768 L61.8121 387.1279 L62.0948 387.0977 L62.533 387.3882 L62.9669 387.8735 L63.2299 389.0474 L63.193 389.6238 L62.8808 389.9417 L62.2662 390.3103 L61.7622 390.5822 L61.2808 391.0926 L60.312 392.0453 L59.7353 392.2727 L59.2069 392.2891 L58.8196 392.1714 L57.9319 391.4463 L57.7056 391.1747 L57.5558 390.8433 L57.4351 390.4397 L57.335 389.7346 L57.265 389.3161 L57.2383 389.2155 L57.0883 389.0751 L56.7876 388.6774 L56.4378 388.7076 L56.0975 388.3978 L55.9148 388.1353 L56.0291 387.8181 L55.9542 387.5848 L55.9384 387.28 L55.899 387.2497 M56.0706 405.008 L56.5184 404.7116 L56.6739 404.5155 L56.7804 404.3241 L56.8832 404.0933 L56.9067 403.8247 L57.1061 403.5385 L57.4349 403.4412 L57.7994 403.4754 L58.5162 403.8972 L58.6446 404.0726 L58.9748 404.0937 L59.2122 404.14 L58.0617 404.825 L58.0442 404.7389 L57.9719 404.5541 L57.7348 404.3584 L57.4519 404.2486 L57.1301 404.3066 L56.9616 404.3988 L56.8805 404.5483 L56.8311 404.856 L56.7516 404.9526 L56.5928 404.9744 L56.449 405.258 L56.1479 405.1983 L56.0706 405.008 M58.1783 398.0535 L58.198 398.0174 L58.227 397.969 L58.6175 398.0229 L58.8532 398.0003 L59.4673 398.0207 L60.36 398.1166 L60.4162 398.3503 L60.6254 398.5234 L60.8011 398.4593 L60.9832 398.4057 L61.2362 398.2365 L61.4466 398.2723 L61.7137 398.3189 L61.7684 398.5147 L61.8236 398.9901 L61.7807 399.2307 L61.7809 399.3553 L61.7183 399.6455 L61.6511 399.7768 L61.7209 400.032 L61.6895 400.2959 L61.6561 400.4242 L61.6204 400.5186 L61.6809 400.6834 L61.6482 400.8114 L61.7317 400.9739 L61.5539 401.1271 L61.5073 401.2339 L61.6768 401.9451 L61.6797 402.0924 L61.7106 402.419 L61.6689 402.4569 L61.6103 402.5535 L61.5177 402.6538 L61.6091 402.8947 L61.4639 402.9199 L61.3262 402.7595 L61.1692 402.5604 L61.0204 402.4285 L61.121 402.294 L61.1711 402.1073 L61.1092 401.9309 L60.9667 401.8653 L60.9979 401.7151 L61.006 401.566 L61.0725 401.3101 L61.0507 401.1985 L61.0171 401.088 L61.0636 400.9812 L61.0533 400.8292 L60.9578 400.6178 L60.6828 400.3874 L60.6117 400.161 L60.5585 399.9616 L60.6137 399.706 L60.5162 399.6361 L60.5155 399.511 L60.313 399.4057 L60.3322 399.1308 L60.2722 398.9777 L60.2143 398.8468 L60.2083 398.6656 L60.1373 398.2748 L59.7896 398.1943 L59.324 398.1822 L58.9199 398.2212 L58.575 398.2879 L58.3473 398.2759 L58.1783 398.0535 M61.8757 397.8702 L61.9448 397.4531 L62.2618 397.3408 L62.5282 397.5614 L63.0552 398.222 L64.222 399.5883 L64.4234 400.5536 L64.605 401.029 L65.0586 401.7789 L65.7154 402.3723 L66.2599 402.6483 L66.479 402.6549 L66.6734 402.6909 L66.8044 402.84 L67.3204 403.0836 L67.953 403.1743 L68.6235 403.2155 L68.7629 403.147 L69.3062 403.1222 L69.8301 403.182 L70.2645 403.2753 L70.8656 403.244 L71.4709 403.186 L71.8064 403.0194 L72.0032 403.0828 L72.1075 403.3191 L72.1999 403.6001 L71.8748 403.7368 L71.4886 403.98 L70.5904 404.2851 L70.2926 404.3135 L69.8035 404.3332 L68.5131 404.2271 L67.9436 404.2818 L67.6933 404.2348 L67.4286 404.315 L67.1606 404.3682 L66.7821 404.4043 L66.3415 404.3646 L66.0147 404.3682 L65.4176 404.4119 L64.9864 404.1662 L64.6434 404.0077 L64.4308 403.7817 L63.5582 403.209 L63.1476 403.0588 L62.7939 403.0336 L62.6681 402.7471 L62.4903 402.5994 L62.3146 402.7602 L62.1416 402.6603 L61.9549 402.131 L61.9268 399.8351 L61.9856 399.3098 L61.9093 398.7972 L61.8784 398.472 L61.8757 397.8702 M62.0574 413.488 L62.1656 413.1086 L62.3326 412.3813 L62.7375 411.7726 L62.9537 411.3534 L63.0382 410.8613 L62.8606 410.7727 L62.7461 410.4278 L62.9931 410.1577 L63.2803 410.021 L63.5311 410.0786 L63.8661 410.7304 L64.049 410.932 L64.4366 411.2779 L64.7332 411.5232 L65.1311 411.9771 L65.2777 412.3737 L65.5702 413.4399 L65.8138 413.9911 L65.9451 414.2251 L66.1143 415.1389 L66.1299 415.3015 L66.3605 415.7174 L66.5083 415.8399 L66.9283 416.2376 L66.9504 416.4563 L66.8913 416.706 L66.4961 417.4274 L66.1654 417.6782 L66.1267 417.8462 L66.1255 418.1199 L66.2004 418.3317 L66.3833 418.635 L66.6989 418.6736 L66.9672 418.9047 L67.2957 418.9755 L67.5861 418.8522 L67.7303 418.5749 L67.7392 418.2876 L67.7922 418.121 L67.9204 418.0569 L68.0437 418.2092 L67.9813 418.3499 L67.9549 418.5533 L68.0742 419.383 L68.1207 419.8714 L68.1678 420.085 L68.427 420.225 L68.6187 420.2334 L68.7433 420.1124 L68.8436 419.8149 L69.0934 419.7781 L69.3624 420.1273 L69.3142 420.6595 L69.2484 420.8301 L69.1985 421.1629 L69.2537 421.4588 L69.6967 422.1 L69.7639 422.2305 L69.9828 422.8115 L70.032 423.3262 L69.9448 423.5536 L69.6463 423.8562 L69.4301 423.877 L69.3602 423.7188 L69.5971 423.3408 L69.5119 423.0207 L68.9993 422.2218 L67.7313 421.796 L67.3386 421.3961 L67.1603 421.2493 L66.8464 421.3885 L66.6185 420.9999 L66.2671 420.459 L65.7711 420.1237 L65.6967 419.9122 L65.6612 419.2587 L65.7308 418.8417 L65.9021 418.6335 L66.0216 418.4582 L66.0499 418.1819 L65.9156 417.9213 L65.8385 417.6822 L65.8155 417.4383 L65.8097 416.8095 L65.7644 416.0477 L65.5621 415.9307 L65.3895 415.2632 L65.0687 414.473 L64.4013 413.1964 L63.9981 412.1819 L63.432 411.1365 L63.3192 411.002 L63.1606 411.0439 L63.1692 411.2375 L63.3828 411.6516 L63.4555 412.1386 L63.6273 412.5304 L63.7111 412.9602 L63.6149 413.121 L63.2508 413.1957 L62.8457 413.422 L62.2203 413.683 L62.0574 413.488 M63.9751 406.7253 L64.444 406.4887 L64.7605 406.3764 L65.0903 406.4523 L65.3696 406.6626 L65.9328 407.0235 L66.2316 407.1267 L66.6403 407.2455 L67.2566 407.3443 L67.3098 407.3629 L67.5774 407.3374 L67.8877 407.7945 L68.4265 408.3125 L68.761 408.5144 L69.0137 408.513 L69.174 408.4747 L69.3874 408.576 L69.5616 408.5101 L69.6209 408.2013 L69.9828 408.104 L70.1243 408.3143 L71.5642 409.5727 L72.2362 409.8184 L72.5426 410.1723 L72.7116 410.5117 L72.9021 410.7942 L73.1491 411.0986 L73.4183 411.3465 L73.6386 411.6537 L73.8834 411.9315 L74.055 413.1045 L74.0243 413.6962 L73.972 414.002 L74.0452 414.4875 L74.3622 415.5242 L74.5016 415.8388 L74.7116 416.0378 L74.9621 416.0768 L75.1171 416.1869 L75.2388 416.363 L75.3703 416.659 L75.2638 416.9699 L75.2575 417.2141 L75.1392 417.6658 L75.5062 418.409 L75.7613 418.7549 L75.5618 419.2004 L75.1822 419.3852 L74.9093 419.2795 L74.5405 419.1632 L74.0972 419.3013 L73.6912 419.2776 L72.2314 419.0159 L70.9847 419.0268 L70.5323 419.0702 L70.192 419.185 L69.9456 419.0112 L69.1896 417.9344 L68.4762 417.0311 L68.4013 416.2449 L68.1488 415.8734 L67.6077 415.1881 L66.9393 413.8263 L66.6024 412.8213 L66.4608 412.4787 L66.4918 412.2297 L66.7437 412.0143 L66.882 412.0281 L67.0699 412.2836 L67.1908 412.4087 L67.331 412.4502 L67.4932 412.4346 L67.4968 412.1878 L67.4555 411.7544 L67.546 411.5542 L67.493 411.2852 L66.9496 411.31 L66.7617 411.0548 L66.1961 410.562 L66.0034 410.2773 L65.359 409.7199 L65.2914 409.4407 L65.2962 409.4166 L65.1541 409.0747 L65.1387 409.062 L64.9876 408.8531 L64.7867 408.4346 L64.6043 408.1696 L64.4894 407.8251 L64.2767 407.5995 L64.1452 407.3202 L64.0871 407.0228 L63.9751 406.7253 M69.8908 306.683 L69.8937 305.9185 L69.9746 305.6997 L70.0147 305.5344 L69.989 305.3327 L70.1673 305.0322 L70.3278 304.8914 L70.4798 304.7255 L70.6333 304.5095 L70.8671 304.4114 L71.0876 304.4165 L71.3641 304.6273 L71.6427 305.1741 L71.8678 305.4327 L72.193 305.6388 L72.5131 306.033 L72.6936 306.513 L72.8241 307.3311 L72.8508 308.0238 L72.6393 307.9417 L71.7992 307.3304 L71.1987 307.0288 L70.5853 306.8668 L70.3926 306.7403 L70.2494 306.7541 L70.1087 306.8304 L69.8908 306.683 M74.511 303.9664 L74.647 303.6371 L74.732 303.2173 L74.6115 302.8168 L74.6792 302.5961 L74.9547 302.5563 L75.1291 302.5925 L75.3187 302.3765 L75.5945 302.5808 L75.923 302.4768 L76.1618 302.0519 L76.1781 301.7331 L76.6444 301.6726 L76.7164 301.6507 L76.8323 301.9516 L77.0348 301.9749 L77.3154 302.0898 L77.4654 301.9403 L77.4747 301.6591 L77.7305 301.2754 L77.8611 301.1641 L77.7658 301.0769 L77.9638 300.7589 L78.1824 300.8468 L78.3252 300.7242 L78.3852 300.3526 L78.8968 299.9313 L79.2352 299.5497 L79.5083 299.3127 L79.7893 298.9858 L80.0123 298.8786 L80.0334 299.1007 L79.9729 299.6041 L79.8337 300.5203 L79.365 301.4647 L78.6173 302.7194 L78.4195 302.9889 L78.0365 303.0717 L77.8839 303.2971 L77.8546 303.5076 L77.9194 303.9464 L77.4123 304.9341 L77.3466 304.693 L77.2731 304.5092 L77.1083 304.4687 L76.6309 304.5278 L76.5578 304.828 L76.5422 304.9746 L76.8045 305.1405 L77.0226 305.1194 L77.2254 305.2485 L77.1248 305.3999 L76.8745 305.394 L76.5779 305.5906 L76.558 305.661 L76.3662 305.649 L76.175 305.4684 L76.1999 305.3415 L76.3893 305.3732 L76.4591 305.1923 L76.2357 305.0647 L76.4476 304.6832 L76.0572 304.6211 L75.8985 304.6489 L75.5482 304.8816 L75.1935 304.8032 L75.0924 304.9126 L75.0425 304.7805 L75.0773 304.6277 L74.9352 304.5668 L74.7646 304.7944 L74.6773 304.6427 L74.511 303.9664 M81.2479 427.0423 L82.2439 426.0362 L83.1822 420.2443 L84.5861 420.3537 L90.8016 422.7339 L92.0591 424.3195 L91.7015 425.8941 L86.4699 430.4648 L82.479 431.7478 L81.2839 429.663 L81.2479 427.0423 M154.7243 333.3895 L154.7486 333.1532 L154.8698 333.0062 L154.9756 332.8778 L155.1971 332.7564 L155.3468 332.7221 L155.5091 332.7469 L155.6444 332.8406 L155.5955 333.0259 L155.5559 333.0788 L155.3876 333.2928 L155.0449 333.539 L154.871 333.5291 L154.7243 333.3895 M160.0701 335.5976 L160.2312 335.2592 L160.4169 334.8686 L163.3001 336.3033 L163.2055 336.5119 L163.1208 336.6986 L161.7582 336.1774 L160.0701 335.5976 M163.3368 336.7824 L163.4176 336.5928 L163.5069 336.3835 L164.0284 336.6884 L164.0469 336.7197 L164.0577 336.7493 L164.0598 336.7945 L164.0493 336.8375 L164.0231 336.878 L163.989 336.9072 L163.8827 336.9323 L163.7745 336.9374 L163.666 336.9177 L163.3368 336.7824 M207.8002 300.5751 L208.6891 300.1085 L208.6488 299.9451 L208.5348 299.4837 L208.2454 298.9249 L208.3869 298.5095 L208.7695 298.3873 L209.152 298.0546 L209.2372 297.6344 L209.4431 297.2755 L209.7388 296.8258 L210.2413 296.6492 L211.1002 295.8296 L211.5813 294.9768 L211.8808 294.7175 L212.1266 295.1034 L212.6958 296.2553 L213.0891 297.54 L213.2451 298.4165 L213.5525 299.3418 L213.5782 299.5578 L212.5213 300.4029 L212.0896 300.8395 L211.3366 301.3523 L210.3291 301.4351 L209.8206 300.9201 L209.3663 301.1543 L208.9552 301.5329 L207.8964 300.7935 L207.882 300.7607 L207.8002 300.5751 M212.391 294.8897 L212.4923 294.7777 L212.72 294.7427 L212.9538 294.3783 L213.3423 294.0226 L213.9552 293.7542 L214.5026 293.6816 L215.069 293.8056 L215.3867 294.0693 L215.614 294.5402 L215.8511 294.665 L215.9982 294.8926 L216.1021 295.4295 L216.1247 296.0503 L216.1426 296.2068 L215.8225 296.3293 L215.6644 296.3246 L215.5809 296.1021 L215.4683 295.9876 L215.3111 295.8905 L215.0644 295.8512 L214.9442 295.8661 L214.727 295.9657 L214.6478 296.1017 L214.4945 296.2513 L214.2101 296.476 L214.2624 296.5438 L213.1712 297.0811 L212.7925 295.764 L212.391 294.8897 M241.35 254.8377 L241.5103 254.6579 L241.9375 254.7261 L242.111 254.6502 L242.3301 254.3591 L242.4242 253.8592 L242.4323 252.9354 L242.5845 252.8088 L242.7791 252.8169 L242.9831 252.9227 L243.1215 253.3809 L243.0368 253.5272 L242.9629 253.8246 L242.9521 254.0562 L243.6272 254.5349 L244.2055 254.8731 L244.5348 254.9143 L245.0476 254.9516 L245.3294 254.872 L245.4611 254.876 L245.6332 255.0278 L245.8544 255.2471 L246.3179 255.2493 L246.7102 255.1923 L247.1237 255.397 L247.4508 255.4846 L247.8081 255.8593 L247.9183 256.2245 L247.7916 256.4145 L247.5648 256.4492 L247.2358 256.2365 L247.0244 255.98 L246.6992 255.6681 L246.4714 255.6236 L246.2564 255.6772 L246.0515 255.8381 L246.1355 256.0311 L246.4131 256.2588 L246.7558 256.269 L247.0951 256.3817 L247.3145 256.6181 L247.4866 256.9082 L247.6965 257.0432 L247.9747 257.4157 L248.0006 257.69 L248.6092 257.8002 L248.7301 257.7954 L248.9917 257.5364 L249.0196 257.3099 L248.9754 257.1194 L248.9644 256.8998 L249.254 256.7305 L249.4952 256.7079 L249.7117 256.7728 L249.876 256.81 L250.0152 257.0308 L250.787 257.5838 L250.9394 257.632 L251.4086 257.9366 L251.5298 258.0734 L251.5451 258.1643 L251.6783 258.1847 L251.7949 258.2883 L251.8806 258.4127 L251.9324 258.6481 L251.9665 259.1165 L252.1359 259.7265 L252.3323 260.0308 L252.3879 260.3781 L252.2615 260.5681 L251.8213 260.6758 L251.4556 260.6641 L250.9521 260.4485 L250.3008 259.9895 L249.7916 259.6061 L249.5564 259.3416 L248.8568 258.3369 L248.6613 258.1446 L248.2175 258.0745 L248.0462 257.9987 L247.8408 257.9458 L247.6656 257.9687 L247.5041 258.103 L247.3562 258.3474 L247.2106 258.7535 L246.8624 259.871 L246.3726 260.9125 L245.9809 261.9516 L245.7877 262.4809 L245.5605 262.9968 L245.3325 263.2624 L245.0342 263.4783 L244.7568 263.8111 L244.4352 264.5141 L243.9953 264.2394 L243.6545 264.285 L243.3382 264.4137 L242.9651 264.2547 L242.374 263.2861 L242.3788 262.9526 L242.1707 262.6298 L242.3205 262.474 L242.3644 262.173 L242.1746 261.9735 L242.3126 261.6936 L242.2574 261.4218 L241.7357 261.1519 L241.6687 260.8615 L241.757 260.682 L242.008 260.7305 L242.565 261.1325 L242.8708 261.2383 L243.1861 261.0271 L243.3046 260.7852 L243.3846 260.3099 L243.3039 259.5955 L242.6937 258.8724 L242.5142 258.6426 L242.2 258.4481 L242.2391 258.2369 L242.3819 258.0089 L242.7618 257.5776 L242.9833 257.4872 L243.1724 257.2617 L243.1851 257.0406 L243.0205 256.6269 L242.6673 256.5747 L242.2672 256.5831 L242.1923 256.2442 L242.5355 256.014 L242.4842 255.679 L242.3538 255.1723 L241.68 255.2712 L241.4095 255.0858 L241.35 254.8377 M244.7064 264.2543 L244.991 263.7166 L245.3718 263.3671 L245.7253 262.968 L245.8998 262.5196 L246.3865 261.1763 L246.715 260.4682 L246.9816 259.9848 L247.1631 259.3314 L247.4486 258.4211 L247.5965 258.2128 L247.6985 258.1107 L247.8607 258.0888 L248.0467 258.1435 L248.3063 258.3168 L248.9581 259.0953 L249.3582 259.6802 L249.6867 260.2354 L249.7174 260.6313 L249.8446 261.0048 L250.4287 261.2394 L251.3978 262.2814 L251.8497 262.7162 L252.0618 263.0851 L252.032 263.3284 L251.9248 263.6188 L251.8789 263.8636 L251.9171 264.2685 L251.9195 264.8515 L251.9653 265.4403 L251.6029 266.4768 L251.3111 266.6559 L251.0596 266.8478 L250.7901 266.9164 L250.4959 266.7927 L250.1885 266.4958 L250.177 266.2331 L249.7395 266.0536 L249.7618 265.7683 L249.6992 265.6622 L249.2622 265.6611 L248.835 265.629 L248.7361 265.4502 L248.1827 265.5392 L247.3239 265.5976 L246.9305 265.5031 L246.4546 265.7161 L245.6327 265.7483 L245.3913 265.6954 L245.2591 265.6519 L245.0788 265.5534 L244.9339 265.3761 L244.8693 265.178 L244.8871 264.9851 L245.0951 264.4382 L244.7064 264.2543 M263.2864 207.0366 L263.2963 206.4866 L263.4198 205.8224 L263.5257 205.5228 L264.1338 205.6202 L264.2893 205.4089 L264.3457 205.2378 L264.6169 205.1604 L264.7503 204.9301 L264.8996 204.7604 L265.1636 205.0462 L265.463 205.1524 L265.7018 205.171 L265.7474 205.5396 L265.9617 205.6228 L263.5142 207.0457 L263.2982 207.1595 L263.2864 207.0366 M264.9862 148.2012 L265.0496 147.8588 L265.4081 147.7226 L265.7066 148.1691 L266.6634 149.3183 L267.2775 149.6592 L268.3287 150.5222 L269.1264 151.3797 L269.4062 151.6633 L269.6056 152.0006 L269.5703 152.2875 L270.0181 152.2945 L271.1165 152.995 L271.567 153.483 L271.8432 153.6944 L272.1964 153.7795 L272.6054 153.6517 L273.0438 153.6992 L273.3831 153.9868 L273.609 153.8006 L274.0745 153.6477 L275.1316 152.8617 L275.7885 152.262 L276.0769 151.5191 L276.302 151.046 L276.6342 150.5718 L277.0568 150.1531 L277.2771 149.8786 L277.362 149.5785 L277.4916 149.2945 L277.5974 148.9514 L277.7215 148.6298 L277.7479 148.4056 L277.9579 148.0928 L278.1244 148.0428 L278.6872 148.3852 L279.2132 148.3355 L279.525 148.0132 L279.7774 147.4211 L279.9262 147.1834 L280.2495 146.9805 L281.0736 146.6442 L281.1189 146.3989 L280.7945 145.4998 L280.6447 144.9993 L280.4355 144.7781 L280.3702 144.6291 L280.4607 144.5003 L280.6627 144.4638 L280.9598 144.5043 L281.5766 145.0493 L281.9622 145.3724 L282.2768 145.4315 L282.4501 145.6885 L282.5243 145.8962 L282.7354 146.1828 L282.5123 146.6391 L282.0141 146.726 L281.7798 146.8239 L281.4638 146.8538 L281.1789 146.8315 L280.6022 147.0641 L279.9327 147.7047 L280.0054 148.2618 L280.2024 148.3684 L280.5058 148.6232 L280.9836 148.8086 L281.3075 148.8605 L281.4201 148.6947 L281.2893 148.4235 L281.5055 148.2052 L281.7772 148.1563 L283.2353 148.4173 L284.2077 148.8627 L284.5518 149.1054 L285.0856 148.8291 L285.871 148.7546 L286.771 148.8838 L287.0952 149.2883 L287.2096 149.5282 L287.6147 149.6417 L287.7206 149.4938 L287.7352 149.2858 L287.8878 149.0123 L288.0716 148.9057 L288.6092 149.1171 L288.7981 149.3058 L288.8554 149.7308 L288.7542 150.2915 L288.7554 150.67 L288.8818 151.03 L289.278 151.2778 L289.9401 151.3965 L290.4976 151.6239 L290.9977 151.6903 L291.5528 151.5863 L292.3445 151.2702 L292.7208 150.7573 L293.0577 149.9702 L293.2744 149.5121 L293.3025 149.2182 L293.4107 148.9707 L293.7573 148.8094 L294.1393 148.5177 L294.435 148.3866 L295.7707 148.7594 L296.4616 149.2095 L296.2999 149.5877 L296.1045 150.658 L295.4091 152.4912 L294.1619 155.0987 L293.5375 156.5001 L292.794 156.1449 L292.6118 156.3402 L292.7928 157.1805 L292.5156 157.2758 L291.6193 157.1827 L291.086 157.3517 L290.6327 157.3554 L290.1292 157.5612 L290.076 158.008 L289.9891 158.1679 L289.7311 158.1165 L288.974 158.0365 L288.2735 158.0336 L287.6349 158.1468 L287.3577 158.2935 L286.8338 158.526 L285.8792 158.8637 L285.0625 159.0597 L284.6267 158.5176 L281.1321 157.8562 L281.3565 157.5189 L281.5799 156.9199 L281.5701 156.3964 L281.5278 156.2621 L281.4412 156.0759 L281.2732 155.8281 L280.398 155.5415 L279.6176 155.3188 L279.1453 155.8908 L278.8067 156.3453 L278.3483 157.0976 L277.8029 156.8571 L277.4667 156.7786 L277.2135 157.0568 L276.2087 157.244 L274.2269 157.4977 L273.8398 157.7522 L273.5475 157.8952 L273.1969 157.8361 L272.9581 157.6777 L272.7949 157.4787 L272.7328 156.8184 L272.692 156.6698 L272.0887 156.2621 L272.0676 155.8295 L271.9934 155.3586 L271.5734 155.4378 L271.2111 154.9414 L270.9178 154.7326 L270.7066 154.3329 L270.793 154.0281 L270.6322 153.8817 L269.8317 153.5948 L269.5 153.1812 L269.1684 152.6617 L268.0205 151.9959 L267.1542 151.7349 L266.7385 151.3581 L266.0436 150.3393 L265.6474 149.8399 L265.6039 149.2405 L265.5017 148.8546 L265.2495 148.4797 L264.9862 148.2012 M295.8998 154.3175 L295.9905 153.8839 L296.2581 153.5871 L296.4316 153.4644 L296.1501 152.711 L296.8084 151.7144 L299.6594 148.3633 L302.0328 147.4324 L301.5792 145.0668 L303.919 142.6428 L305.9997 143.6066 L305.7429 144.3367 L306.95 143.9023 L306.4652 143.1174 L307.1876 143.0846 L310.6865 146.1657 L312.8295 144.187 L313.9982 141.5659 L313.1919 140.9562 L312.4815 139.6055 L311.1497 140.3028 L308.5819 138.4957 L312.8319 136.9952 L310.3587 132.9516 L311.2855 130.1065 L312.7659 129.9649 L313.2939 131.4197 L315.1864 130.982 L317.6323 131.0207 L319.6277 129.579 L319.6791 128.6392 L319.6534 126.3735 L318.7909 124.1077 L319.5375 121.327 L321.8161 122.8203 L323.2965 124.7254 L325.5495 123.567 L329.0786 122.3807 L331.2481 122.4611 L331.9438 123.0825 L332.7815 123.4286 L333.9694 131.8841 L331.5456 142.3654 L331.7904 144.9938 L334.2022 153.8025 L334.9222 153.4192 L337.7539 156.4745 L334.8934 158.2559 L335.3469 162.1106 L334.9764 164.4376 L335.6438 168.1206 L337.9488 170.7625 L337.5245 171.1323 L338.0126 171.9455 L338.0071 172.2784 L332.2512 177.7439 L328.997 173.9881 L327.1108 173.9041 L327.3316 170.2541 L330.6999 164.7793 L330.7115 164.7146 L329.4456 163.333 L329.3335 163.0509 L329.1549 162.7925 L328.7935 162.5855 L328.5447 162.4884 L328.2629 162.2227 L327.6966 161.2948 L327.6493 160.9721 L327.4031 160.7198 L327.0988 160.5764 L326.8202 160.3446 L326.5735 159.9029 L326.6843 159.4448 L326.5989 159.2637 L326.392 159.3349 L326.1101 159.3086 L325.9601 159.2035 L325.7331 159.1561 L325.4633 159.1988 L325.2862 159.3189 L324.9843 159.3817 L321.7482 158.6374 L321.6275 158.7005 L321.4168 158.9049 L321.1588 158.8535 L320.9358 158.825 L320.4933 158.7348 L319.7798 158.6636 L319.5259 158.6549 L319.5346 160.2168 L319.5778 161.0272 L319.5679 161.6908 L319.4664 161.9277 L319.3436 162.077 L319.2181 162.4132 L318.9433 162.8118 L318.9181 163.4867 L318.9363 165.8853 L318.8204 166.6116 L318.5058 166.8215 L318.244 166.9496 L317.9879 166.9566 L317.4753 166.7814 L317.2428 166.4934 L317.1096 166.351 L316.9769 166.2353 L316.7707 166.2813 L316.6476 166.4412 L316.6015 166.5886 L316.4684 166.666 L316.1605 166.7146 L315.6764 166.8463 L315.0556 167.123 L314.8977 167.7242 L314.3839 168.2049 L312.3784 169.2518 L311.9841 169.4266 L311.4895 169.4843 L310.4551 170.3008 L309.6793 171.0699 L308.9214 171.6459 L308.4914 172.2109 L308.2101 172.5076 L307.5166 173.3482 L306.8607 174.2049 L306.6188 174.4272 L306.2992 174.3023 L304.4307 172.4478 L302.9682 170.7268 L302.9778 170.3745 L302.1341 170.9261 L300.8038 171.8466 L300.5991 171.9525 L300.525 171.8908 L300.4919 171.7218 L300.1475 171.4615 L299.9416 171.2746 L299.7486 171.2239 L299.5005 171.3163 L299.213 171.5327 L299.0491 171.6104 L299.0191 171.92 L299.0613 172.0908 L298.9637 172.1693 L298.8326 172.1747 L298.6291 172.1083 L298.4674 171.9623 L297.8518 171.7437 L297.7522 171.6641 L297.6306 171.6309 L297.4467 171.1319 L297.4508 170.9936 L297.4837 170.8023 L297.6061 170.6687 L297.6675 170.4851 L297.7962 170.3147 L298.2934 170.218 L298.5907 170.0581 L298.7222 169.8146 L298.763 169.5836 L298.728 169.4547 L298.6512 169.3824 L298.4873 169.2773 L298.2855 169.3138 L298.0829 169.2025 L298.242 168.8678 L298.2101 168.1502 L298.1283 167.8698 L298.1655 167.741 L298.3073 167.7279 L298.8413 167.7633 L299.3268 167.6486 L299.4299 167.4464 L299.3592 167.2668 L298.6337 166.2853 L298.0268 165.8447 L298.0568 165.5356 L298.2156 165.4082 L298.3378 165.2385 L298.3294 165.0446 L298.1993 164.7599 L298.3222 164.6106 L298.5579 164.5383 L298.752 164.2595 L298.9418 164.1098 L299.2624 163.5681 L299.3548 163.2173 L299.4667 162.9093 L299.399 162.6092 L299.8454 162.5669 L300.051 162.2705 L300.1928 161.5777 L300.1547 161.3513 L300.2929 161.1831 L300.596 160.948 L301.0834 160.127 L301.0023 159.4864 L300.8862 159.1973 L300.7114 159.0524 L300.1756 159.0867 L299.7369 159.1776 L299.0138 159.3546 L298.3551 159.5853 L297.9543 159.3101 L297.6838 159.2302 L297.4081 159.0801 L297.6733 158.6249 L297.9303 158.4453 L298.0105 158.0248 L298.1456 157.8226 L298.3368 157.6448 L298.5785 157.4539 L298.6831 157.1692 L298.9944 156.8407 L298.9608 156.4844 L298.7897 156.0985 L298.5538 155.6163 L298.1871 155.2849 L297.0618 154.9264 L296.5514 154.6384 L296.0333 154.5128 L295.8998 154.3175 M331.823 121.3745 L332.105 121.2219 L332.6054 121.1744 L332.8526 121.0291 L333.0472 121.0631 L333.9142 121.9583 L334.3462 122.3844 L334.3383 122.4925 L333.9711 122.6323 L333.4768 123.0518 L332.8854 123.2858 L332.6927 123.3172 L332.3954 123.0222 L331.823 121.3745 M332.8075 120.6337 L332.9032 120.4446 L333.106 120.1656 L333.6313 119.9265 L334.2265 119.6899 L334.6927 119.6129 L335.0112 119.431 L335.0328 118.9608 L335.2193 118.6001 L335.5291 118.4438 L336.442 118.2076 L336.6603 118.2233 L336.8552 118.3368 L336.9181 118.5153 L336.8075 118.7735 L336.6011 119.0634 L336.5819 119.4464 L336.4288 119.8228 L336.531 119.9966 L336.59 120.2273 L336.7655 120.3654 L336.9229 120.108 L336.9454 119.8947 L337.183 119.4467 L337.7119 118.6712 L338.0669 118.3872 L338.6224 118.5624 L338.9378 118.7669 L339.0436 118.9841 L338.8744 119.3533 L338.8173 120.2522 L338.9752 120.3595 L339.2017 120.1799 L339.4763 119.8276 L339.7357 119.2817 L340.0407 119.0287 L340.2557 119.0137 L340.488 119.0623 L340.6947 119.5143 L340.825 119.9572 L341.1842 120.3489 L341.5207 120.6071 L343.249 120.8506 L343.6116 120.8853 L344.0484 120.8404 L344.5572 120.4095 L345.1334 120.243 L345.7484 120.3139 L346.5039 120.1996 L346.8298 120.1689 L347.0611 120.25 L347.2639 120.403 L347.321 121.0229 L347.5912 121.1357 L347.7998 121.0068 L347.8919 120.8948 L348.0222 120.6414 L347.9486 120.3172 L348.1142 120.12 L348.3474 120.0941 L348.7933 120.1036 L349.2922 120.0393 L349.5507 120.0441 L349.7943 119.9418 L350.0069 119.6844 L350.2946 119.5979 L350.6908 119.8042 L350.9263 120.1945 L351.2793 120.6987 L351.7549 121.1784 L352.2423 121.3796 L352.5838 121.4596 L352.8713 121.6991 L352.9502 122.1409 L352.8079 122.5531 L352.2946 122.5852 L351.662 122.7108 L351.0167 122.8079 L350.6949 122.7426 L350.3587 122.4873 L350.0964 122.6013 L349.7914 122.4355 L349.3361 122.2803 L349.1444 122.338 L348.8022 122.4789 L348.7851 122.6093 L348.9306 122.7243 L349.2495 122.6878 L349.4991 122.7922 L350.3359 122.9543 L350.7688 123.1891 L351.1206 123.3556 L351.154 123.606 L351.0009 123.8316 L349.2238 125.4636 L349.0237 125.5385 L348.7991 125.4936 L348.6445 125.2479 L348.5608 124.9854 L348.2644 124.2278 L347.9162 123.5819 L347.7376 123.1865 L347.7484 122.7404 L347.9966 122.7564 L348.2075 122.5155 L348.1765 122.2909 L348.015 122.2172 L347.7748 122.1803 L347.8171 121.9652 L347.6913 121.7677 L347.4962 121.6297 L347.3145 121.6202 L347.1281 121.7005 L347.1007 121.8579 L347.0246 122.1405 L347.0453 122.3625 L346.7943 122.4906 L346.5454 122.3234 L346.0234 122.2303 L345.2526 122.3559 L344.9889 122.5224 L344.728 122.7217 L344.6215 122.8473 L344.5339 123.4227 L343.8427 123.3793 L343.3244 123.3227 L342.4513 123.2698 L340.4964 123.3917 L338.9766 123.1756 L338.4741 123.1836 L336.8917 123.1745 L336.0767 123.146 L335.9008 123.0631 L335.5888 123.2022 L335.2598 123.0934 L334.2932 122.1595 L333.0369 120.8696 L333.0374 120.8692 L332.8075 120.6337" stroke-dasharray="" fill="none" fill-opacity="1.0" stroke="#ff0000" stroke-opacity="1.0" stroke-width="1.0px" stroke-linecap="butt" stroke-linejoin="miter" stroke-dashoffset="0.0px"/>
</g>
</svg>