<?xml version="1.0" standalone="no"?>
<!DOCTYPE svg PUBLIC "-//W3C//DTD SVG 1.1//EN" "http://www.w3.org/Graphics/SVG/1.1/DTD/svg11.dtd">
<svg width="512px" height="512px" version="1.1" xmlns="http://www.w3.org/2000/svg" xmlns:inkscape="http://www.inkscape.org/namespaces/inkscape">
<g id="layer" inkscape:groupmode="layer" inkscape:label="layer">
<path d="M0.0 338.9302 L3.9356 338.6476 L7.1705 339.2632 L7.5724 334.2421 L8.2957 334.0912 L10.3502 333.8976 L10.541 333.6731 L11.5607 335.2216 L14.8609 334.9622 L16.2423 335.9494 L15.9108 337.0179 L12.3644 341.6517 L26.8285 343.5137 L32.0777 339.9097 L31.9722 342.9988 L36.5608 345.186 L36.5759 343.3589 L38.9569 342.3175 L40.5894 342.3175 L40.3508 344.7718 L41.4283 345.7589 L41.7595 345.4516 L43.9016 345.8019 L45.936 345.8151 L46.2505 346.5177 L43.219 347.4274 L38.7281 348.5368 L34.8881 349.4798 L34.0932 351.4605 L31.6008 353.0232 L31.1695 354.8286 L32.7056 355.4348 L34.3223 353.3062 L35.2249 353.8586 L38.0813 353.9933 L41.6787 353.5083 L42.7431 352.5518 L37.6232 352.8483 L37.2864 352.1879 L39.698 350.0055 L43.3672 350.5513 L49.4075 352.6106 L48.2296 354.8015 L47.6268 355.4286 L48.2748 356.0828 L49.4 354.7551 L52.7152 355.657 L55.4754 356.2609 L55.7818 355.3628 L59.7551 354.7125 L59.7476 356.9344 L57.55 360.062 L58.5546 366.3945 L59.823 367.2847 L59.6296 369.5645 L57.452 370.6367 L57.2486 371.8907 L58.0347 375.9973 L59.1298 376.7288 L62.6434 375.1807 L63.2738 375.9548 L63.9068 376.7327 L64.6778 375.4864 L65.8331 375.1691 L68.3773 378.219 L60.4534 393.9631 L60.4458 396.0607 L61.4957 397.303 L61.3173 405.3563 L63.1307 402.272 L66.2684 399.7488 L70.0526 401.6451 L75.8492 405.3602 L76.2059 409.0326 L82.2085 412.1362 L83.7582 408.9049 L84.6975 405.8517 L88.6783 405.3718 L89.4519 403.8858 L83.4794 398.2937 L89.8361 400.2326 L92.4331 400.8982 L94.4549 393.5219 L87.7289 391.9661 L90.0898 384.1019 L93.0936 379.113 L101.3667 358.6724 L102.0223 353.1564 L103.9712 347.7525 L105.2823 348.6738 L105.87 346.8893 L106.4931 348.0537 L109.953 354.5174 L110.2501 355.0725 L115.984 356.0054 L128.7177 361.6684 L130.3678 362.3922 L130.9053 359.9304 L135.2578 359.8414 L136.2775 359.8336 L135.7727 358.5795 L136.4056 358.5795 L136.5688 356.8841 L142.795 346.5525 L151.7864 352.088 L152.4796 351.9564 L153.3235 348.6119 L157.1059 349.808 L158.2914 349.0571 L160.5066 350.8609 L159.9038 353.6983 L159.7895 353.9937 L156.8053 353.3503 L155.6394 359.1895 L154.7375 360.3213 L155.0941 363.7044 L153.8735 367.7337 L153.7015 369.0045 L154.4549 370.8445 L152.7837 373.139 L153.6188 374.825 L152.1772 378.5243 L152.559 379.7946 L153.1015 379.9815 L153.8263 379.3685 L154.3894 378.4856 L155.8471 377.0458 L156.48 375.9784 L155.5856 375.1636 L155.7552 373.9785 L159.7031 372.3939 L160.165 373.5589 L162.0838 376.7521 L162.1541 377.0772 L165.1361 385.1709 L165.5623 386.9775 L169.7617 388.5488 L170.804 390.3949 L172.8504 392.1395 L173.6913 392.6179 L174.2498 393.1078 L175.4077 393.7 L177.1339 399.4969 L180.1495 406.3509 L181.7898 404.6837 L188.0185 407.1956 L188.3859 408.4208 L203.6276 414.0416 L207.1807 413.5451 L211.1764 414.0033 L213.1241 421.5595 L212.4522 427.4515 L213.3021 428.1871 L216.9464 430.4622 L216.9389 436.6531 L219.468 437.7906 L225.4782 439.7213 L229.3214 439.6293 L230.5307 439.8173 L234.0977 440.677 L234.9124 439.8227 L237.7151 439.1824 L238.3404 439.2528 L239.3084 439.6478 L239.7763 439.9237 L240.0141 440.1841 L240.1234 440.5478 L240.0993 440.8364 L240.0189 441.801 L240.6147 441.8223 L242.5229 441.3518 L242.3675 443.0453 L243.7556 443.2597 L244.445 443.7317 L244.0492 444.8038 L243.513 446.6841 L243.2229 447.2212 L241.0431 449.9604 L240.9587 450.3434 L240.9929 450.8943 L241.2714 451.1222 L240.2015 452.9255 L238.6941 452.9901 L238.4909 456.1084 L239.9473 453.2203 L242.915 454.1504 L242.4973 452.8524 L242.9391 452.1695 L243.6891 450.9659 L244.1341 450.7496 L244.6078 450.733 L244.5656 449.582 L244.6492 449.1823 L245.0797 448.821 L245.306 448.3552 L245.5313 447.4672 L245.9226 446.4787 L247.0847 447.1623 L246.876 447.7976 L246.8004 448.1923 L246.9486 448.6662 L247.6061 449.1046 L248.7793 449.5677 L249.6287 448.7301 L250.4929 447.9346 L250.5592 447.6193 L250.134 447.372 L249.6663 447.3012 L249.221 447.362 L248.8292 447.3918 L247.797 447.5748 L247.6475 447.4386 L247.5742 447.1047 L247.7751 446.8714 L248.673 446.505 L249.4031 446.6884 L250.3623 446.2988 L251.1173 446.3982 L251.7452 446.5205 L253.4116 446.7515 L254.6711 446.9418 L252.6091 446.2086 L251.8607 445.9169 L250.516 445.1207 L250.0908 444.8065 L249.5603 444.3086 L250.0669 443.3657 L250.3497 443.3699 L251.0685 443.6988 L252.6569 444.0451 L253.4043 444.2354 L254.0003 444.5221 L254.4712 445.1737 L254.7038 445.46 L255.7026 445.7002 L256.0625 445.6635 L256.8775 445.9885 L258.0547 446.0794 L259.8073 446.4048 L259.9507 445.975 L259.469 445.8701 L258.658 445.7242 L257.1714 445.4964 L256.2657 445.2468 L256.065 445.1516 L255.8973 444.0501 L255.7114 443.8737 L255.4497 443.9066 L255.135 443.7835 L255.0107 443.5096 L254.9348 443.0318 L254.6428 442.8611 L253.9418 442.6004 L253.77 442.2285 L254.9461 441.664 L257.8651 441.1943 L257.8977 437.6893 L257.9261 437.4026 L258.3769 436.8632 L259.1608 436.6032 L260.4661 436.383 L261.2384 436.2306 L263.0598 436.4623 L263.4659 436.4828 L263.6063 436.6395 L263.8499 436.7452 L264.4753 437.8669 L265.6296 437.7283 L267.84 437.7937 L268.1057 437.4954 L269.0506 437.146 L270.1519 437.1669 L270.3825 434.5753 L269.8666 433.0713 L269.1802 432.5513 L268.7311 431.9991 L268.5156 430.8832 L268.5689 430.2827 L268.7871 429.4245 L269.7817 428.1549 L269.9819 427.3075 L270.5266 426.3553 L270.6083 425.983 L270.9099 425.083 L271.3256 424.2128 L271.6556 423.2408 L271.205 422.9184 L270.4224 421.8853 L269.9399 420.9601 L269.727 420.0147 L269.7586 419.5117 L269.7599 418.1554 L269.6579 417.4662 L269.7393 416.8842 L270.0645 416.536 L270.0781 416.317 L269.9151 415.0586 L269.8759 414.1271 L269.8437 412.5402 L270.055 412.2449 L271.2033 412.1393 L271.6141 412.142 L271.5998 411.594 L271.5775 410.6471 L271.6631 410.1282 L271.8156 409.9629 L271.9803 409.9494 L273.3936 409.7907 L273.7201 409.6104 L273.9401 409.2849 L274.6142 407.6979 L274.9811 407.3373 L275.2084 407.0703 L275.215 406.8748 L275.158 406.7243 L275.0226 406.6384 L275.2192 406.0618 L275.327 405.9581 L275.6372 406.1597 L275.8956 406.2452 L276.3859 405.9968 L276.4637 405.8087 L276.6734 404.1183 L276.6114 403.933 L276.466 403.7778 L276.0483 403.8037 L275.9295 403.7097 L275.8625 403.1377 L275.9403 402.7016 L276.2384 401.6161 L276.2723 400.8924 L276.4482 399.9257 L276.4828 399.32 L276.5913 398.1385 L276.6227 396.6683 L276.7277 396.5472 L276.9537 396.5317 L281.1629 397.7685 L281.3887 397.7531 L281.6883 397.5414 L282.3333 397.7925 L282.124 398.6672 L287.0605 400.0778 L287.7359 398.1056 L288.1093 398.339 L288.4775 398.4752 L289.9337 398.8131 L293.0265 400.2237 L295.3434 401.5201 L296.5382 402.5007 L296.6783 402.5971 L296.9038 402.6571 L297.096 402.6164 L297.2949 402.6246 L297.5724 402.7883 L298.0358 403.1052 L298.4924 403.7108 L298.7674 404.1814 L298.8985 404.4469 L298.8917 404.6423 L298.7694 404.7665 L298.5431 404.782 L298.2227 404.6346 L297.7425 404.4751 L297.3378 404.5274 L297.1781 404.823 L297.1939 405.0072 L297.3687 405.4879 L298.3643 406.5335 L299.0045 407.1813 L299.7007 408.0965 L300.0564 408.3295 L300.4343 408.2927 L300.8272 408.3465 L301.4631 408.3902 L301.6781 408.2533 L301.7655 408.0048 L301.7353 406.6659 L301.6268 405.7785 L301.5949 405.5177 L301.5738 404.6551 L301.5598 404.3753 L301.4628 403.7116 L301.5193 403.2585 L301.8333 403.0537 L302.5699 403.467 L302.8256 403.4117 L303.4565 403.7615 L305.0619 404.8877 L305.2156 405.2189 L305.9849 406.3969 L306.605 407.2916 L307.2073 408.4421 L307.7036 409.6282 L309.1959 412.4728 L310.347 414.2289 L311.5829 415.7253 L311.8132 415.2191 L310.7262 413.7258 L309.8678 412.3974 L309.1522 411.0631 L308.1506 409.0613 L307.3838 407.6082 L306.4586 406.0633 L306.0319 405.1392 L305.8237 404.3521 L305.6813 401.9125 L305.4374 398.7844 L305.5961 398.5704 L305.9467 398.2925 L305.8104 397.9141 L305.6082 397.8208 L305.6554 397.3018 L305.8279 396.8003 L305.8001 396.1532 L305.6612 396.0495 L305.2083 395.9202 L304.9047 392.7526 L304.9999 392.5621 L307.1902 392.6647 L308.4 388.7822 L308.5909 388.7655 L312.673 390.439 L312.9776 390.3217 L312.3683 387.4226 L314.2183 385.9956 L315.5354 385.4627 L315.7885 385.0544 L315.3164 382.6285 L315.7788 381.7321 L318.0748 379.3886 L318.6972 378.8386 L319.4449 377.7208 L309.5302 377.232 L306.7675 376.1444 L300.8241 370.4277 L300.1644 368.7966 L299.4938 367.6935 L298.7292 367.15 L299.0826 366.8098 L297.201 364.852 L296.8092 364.1352 L295.3698 364.7073 L292.8391 366.5896 L292.2572 366.2679 L291.609 365.0061 L290.3067 365.6869 L291.1458 367.2398 L288.2882 368.7432 L287.0608 369.7074 L284.7001 370.3623 L278.6706 370.0081 L274.8757 370.2922 L270.3925 371.7669 L267.4716 374.1163 L263.4955 370.3177 L255.9357 372.1683 L256.1067 371.6121 L255.3608 371.1166 L254.6174 370.6251 L253.7396 371.4507 L249.9459 368.5349 L249.5038 368.1131 L248.1446 366.6581 L249.0718 366.0423 L248.7921 362.9833 L249.1969 361.2511 L250.1418 360.1162 L250.8794 359.6215 L251.0824 358.9503 L250.1681 358.5067 L251.4428 355.7538 L252.6559 355.0802 L254.4353 355.9272 L255.2101 356.2957 L256.5239 353.8675 L255.7544 350.312 L254.9841 348.2403 L255.0436 346.2223 L257.9663 344.9673 L260.947 343.1293 L262.625 344.341 L263.6648 345.7233 L264.303 347.4467 L267.9036 354.8364 L270.4141 353.9585 L273.0744 353.9643 L277.4003 352.8742 L277.4952 352.1887 L277.882 352.4453 L277.9749 350.1549 L278.3788 349.7511 L279.5115 345.8921 L278.6953 343.6987 L281.6144 343.0302 L281.2199 341.7794 L283.096 341.5394 L284.4146 341.5278 L281.4961 337.7766 L281.2827 336.2513 L281.2375 334.1879 L284.2237 334.1879 L283.7367 331.1985 L283.0003 331.2659 L282.764 331.0467 L282.4495 330.4567 L279.6122 329.7785 L279.2372 329.6209 L279.1064 329.4459 L279.0544 328.7289 L278.9434 328.5687 L278.5767 328.4634 L278.2796 327.871 L278.098 327.283 L278.0729 325.6233 L278.2655 325.3801 L278.9178 325.022 L279.5693 324.8548 L280.0914 324.5563 L283.6307 323.2589 L286.0571 322.3565 L286.4183 322.3034 L288.4019 322.8574 L289.4854 322.4792 L291.238 322.2368 L292.5593 320.6205 L293.0167 316.2978 L293.4286 314.7917 L292.5998 315.4576 L291.781 313.9593 L294.0163 312.6661 L296.6085 313.816 L299.8431 314.7599 L302.1646 314.1718 L303.4801 313.816 L303.9289 313.7231 L304.1811 313.9786 L306.4686 313.3359 L306.9559 310.2346 L308.6813 308.9221 L309.8565 302.6574 L311.5124 300.6765 L313.772 301.2182 L314.1982 300.347 L317.2161 296.3049 L318.9812 298.9321 L318.6713 299.8215 L318.7926 301.5457 L319.0754 304.1461 L318.0068 305.1006 L317.6338 305.4665 L318.1374 305.9601 L319.264 309.2524 L319.0754 311.1925 L319.2236 313.0653 L320.6924 315.9486 L321.6159 317.6606 L321.3923 322.2833 L324.6875 330.8973 L325.7122 330.8973 L328.8796 335.4566 L330.5118 337.4263 L331.0034 338.149 L331.0536 338.5861 L333.0417 338.5354 L334.7072 338.0073 L335.2381 338.1037 L335.2502 338.1014 L335.4257 338.3662 L335.5222 338.9186 L335.7032 339.4374 L336.2244 339.7258 L337.5317 340.4826 L338.692 342.8827 L341.3995 353.5435 L341.625 353.6186 L341.6423 353.6147 L341.9076 353.6287 L342.2077 353.7614 L342.277 353.8361 L342.7105 353.9809 L343.0732 354.9475 L343.3537 355.4836 L344.2107 357.5127 L344.7102 359.1349 L344.7429 359.3598 L344.7343 359.3742 L344.7775 359.4891 L347.2916 358.9627 L347.3875 359.2023 L347.4913 359.2116 L347.6545 359.3459 L347.8981 359.7674 L348.6443 361.5929 L349.3707 363.5724 L349.4443 363.7102 L354.5073 367.4163 L354.9501 367.1462 L354.7668 367.1473 L355.9477 366.3562 L358.4055 364.9016 L360.0634 364.0241 L360.7714 363.5921 L360.7639 363.5852 L361.178 363.3436 L363.3706 362.0051 L363.9403 362.1565 L365.3636 362.4886 L366.174 362.7495 L366.7537 362.9031 L366.751 362.9349 L366.9112 362.9864 L367.0491 363.0901 L367.1144 363.5399 L366.7678 365.7458 L366.6369 366.2946 L366.4724 366.3717 L366.4526 366.3612 L366.4473 366.4216 L369.7349 368.0395 L374.8309 370.5206 L378.7716 364.7843 L383.1331 358.132 L383.3534 357.4322 L383.7118 356.5148 L384.2287 355.6485 L384.9945 354.7036 L386.6134 352.8239 L389.0323 349.1345 L389.4834 348.4493 L390.0736 347.4041 L388.7073 346.6919 L388.8331 341.4341 L389.953 340.1655 L393.2055 349.3822 L402.2572 354.9332 L403.7732 353.6213 L403.7174 353.3685 L404.1534 352.964 L404.4184 353.0627 L404.7888 352.7422 L407.3682 353.737 L407.5513 353.0031 L406.716 351.9522 L408.1719 348.2635 L407.3491 345.8758 L408.0865 344.4118 L410.0245 345.2027 L410.0759 344.958 L410.2357 344.6789 L410.4622 344.5473 L410.9497 344.4025 L411.2471 344.3731 L411.1027 345.0358 L411.8687 342.7716 L412.3836 340.4946 L412.814 338.7347 L413.4015 337.6942 L414.0176 336.508 L415.1646 334.1291 L415.2133 333.855 L415.1423 333.5941 L414.9207 333.2782 L413.4447 332.2991 L411.3297 330.7068 L413.3189 328.2589 L414.3916 328.9868 L415.7566 329.9136 L415.5027 330.3429 L419.3592 333.0324 L422.5582 335.3458 L430.2109 341.1484 L431.8577 341.6792 L432.2405 341.7895 L432.6423 341.9323 L433.1678 342.1015 L434.7033 342.5126 L436.4956 343.1169 L437.3674 343.4316 L438.1876 343.8772 L439.7295 345.1643 L440.3448 345.6653 L440.4661 345.8948 L440.555 346.0233 L440.7005 346.1708 L441.3261 346.3729 L441.6448 346.5517 L444.6572 348.6181 L444.8325 348.7389 L447.4335 350.7622 L447.6916 350.998 L448.1686 351.3487 L449.0856 352.2711 L450.4476 353.5555 L450.9243 354.1199 L452.6753 356.1579 L454.2034 357.7434 L456.6474 360.1785 L458.092 361.5693 L460.4705 363.9858 L461.5703 365.1029 L462.7475 366.2176 L469.1841 371.3527 L473.0386 374.6566 L476.0889 378.4682 L477.3098 379.9939 L478.6492 379.6313 L480.6574 378.6134 L482.0395 377.3671 L481.9662 377.1499 L481.8773 377.2173 L481.8228 377.0826 L481.49 375.7396 L481.3313 375.2697 L481.3976 374.7944 L481.3931 374.2858 L481.4908 374.1256 L481.5505 373.6975 L482.9623 373.4053 L484.4047 373.1239 L485.5623 373.9189 L485.7695 374.2274 L485.8958 374.2459 L486.3745 374.2022 L486.4765 374.2134 L486.5483 374.2622 L486.5955 374.3187 L486.6106 374.3837 L486.5521 374.5885 L486.2801 374.7785 L486.1668 374.8188 L486.323 375.0514 L485.3443 375.5778 L486.4046 379.7555 L487.9033 381.1434 L488.1145 381.2251 L489.4585 381.0126 L489.7925 380.7572 L490.4181 380.2045 L492.288 380.3593 L493.1532 380.7889 L493.3341 382.7937 L494.635 382.5422 L495.1926 384.3186 L497.2694 384.0566 L498.5024 381.4229 L503.3966 378.8974 L503.1535 376.8008 L505.0678 376.2385 L504.8704 375.1447 L509.4653 374.1743 L508.7694 372.642 L507.8112 370.79 L507.7939 370.7629 L506.5097 370.2109 L506.2837 369.5529 L505.0199 365.6707 L503.9426 363.7299 L503.1899 362.1421 L503.1832 362.0175 L502.6592 361.6122 L502.5894 361.6223 L500.9157 360.2641 L499.7159 359.3304 L493.6332 359.3095 L493.2537 359.4284 L492.9357 359.5073 L492.8471 359.1458 L492.785 358.7115 L492.771 358.1343 L492.7848 357.5344 L492.0933 349.3629 L493.5965 349.2568 L496.6887 348.8747 L496.0943 342.7859 L503.9253 340.7032 L507.3837 335.6823 L505.9614 333.9967 L505.3886 332.7029 L507.4184 332.1609 L508.304 331.7374 L508.1347 328.6712 L509.2448 328.5357 L510.6237 325.1211 L512.0 321.7026 L510.7442 320.5024 L504.2568 319.9991 L503.9806 318.2994 L502.2099 317.1573 L501.9342 316.5014 L501.8475 316.5181 L501.577 316.3466 L501.0114 315.5881 L501.0355 315.0999 L501.1392 314.6097 L501.0998 314.5323 L494.3186 312.8674 L494.2088 312.6727 L493.5719 312.0761 L493.2027 311.4155 L493.0731 310.7628 L493.0706 310.6842 L493.0354 309.8699 L493.006 308.9473 L493.0178 308.368 L493.2283 307.6901 L493.6086 307.0439 L494.1443 306.213 L494.3131 305.6066 L494.6918 304.4199 L495.0316 303.98 L495.706 303.2595 L496.0448 302.8126 L496.209 302.6864 L496.2753 302.6763 L496.2952 302.638 L496.3783 302.6601 L496.5727 302.6303 L497.0268 302.8103 L497.1044 302.8545 L501.0697 303.9158 L501.2239 300.7818 L501.0722 299.6771 L501.0172 299.4049 L500.5814 299.3015 L499.7385 299.5366 L499.7443 299.1029 L499.7142 299.0959 L499.5838 298.9074 L499.7667 297.4282 L499.7812 296.346 L500.0455 296.2306 L500.1163 296.1094 L500.3172 295.9712 L500.7399 295.716 L501.6792 295.5162 L502.8152 295.0217 L502.8805 295.1371 L503.1239 295.1232 L503.4235 295.3505 L503.5436 295.6347 L503.8733 296.0591 L504.1853 296.8827 L504.7072 297.8785 L506.6089 297.3949 L507.9217 296.3712 L507.9521 296.3212 L507.9559 296.2933 L507.8848 295.8298 L506.9324 294.094 L505.8246 291.7467 L505.6611 291.2464 L505.595 290.911 L505.6043 290.6601 L505.6402 290.4719 L505.325 289.7413 L505.1688 289.6429 L505.0708 289.5333 L504.8225 288.5757 L504.4505 287.7126 L503.6066 286.0072 L503.5667 286.0309 L503.4308 285.8512 L502.7316 285.2719 L502.2431 285.0306 L501.7342 284.6403 L501.6388 284.4897 L501.6021 284.4738 L501.6157 284.4533 L501.4567 284.2024 L501.3588 284.0064 L501.3901 283.9402 L501.7983 283.7694 L502.2162 283.5448 L502.2677 283.467 L501.966 281.951 L501.8596 281.7806 L501.8244 281.7647 L501.4416 281.8665 L501.5107 283.7965 L500.4443 284.1447 L498.5255 284.5745 L495.8356 286.2009 L495.3069 288.1064 L495.2567 288.4642 L495.118 288.7864 L494.949 289.3955 L494.2108 289.4613 L493.6236 289.641 L491.9447 289.991 L491.3286 290.0735 L490.8988 290.0375 L490.5198 289.7912 L485.5909 290.2319 L485.4683 289.8404 L485.2403 289.8439 L485.0861 289.6766 L484.8276 287.0195 L484.532 286.9637 L484.3605 286.8692 L484.2193 286.7418 L484.1689 286.5629 L484.1844 286.3073 L484.2743 286.0026 L484.2939 285.984 L484.1653 285.7958 L489.1397 283.467 L490.005 283.467 L490.0494 283.4531 L490.0896 282.4025 L489.9919 281.5637 L489.8899 281.12 L489.8118 280.8346 L489.5223 280.1367 L488.714 280.2719 L488.2381 280.2812 L488.0414 280.1472 L487.9862 279.8827 L487.5537 279.8726 L486.4124 279.4703 L489.2909 275.2729 L491.6018 273.5663 L493.4395 272.5273 L495.1142 270.8938 L497.3583 266.4109 L498.7251 266.5654 L498.9278 266.1677 L498.7739 266.1185 L498.7761 266.1053 L499.0079 265.3137 L499.9877 263.6817 L500.4074 262.7806 L500.8022 262.2724 L501.2374 261.9688 L501.7033 261.7461 L502.2059 261.6307 L502.5879 261.599 L503.6644 261.3666 L503.7317 261.3104 L503.6794 260.9979 L503.7407 260.7524 L503.7312 260.4821 L503.4263 260.2334 L503.1605 260.1292 L503.1234 259.9863 L503.0958 259.9639 L503.1048 259.9155 L503.0387 259.661 L503.1844 259.4891 L503.2685 259.0386 L503.1631 258.9442 L502.9104 258.9809 L502.5816 259.3183 L502.4849 259.4949 L502.2315 259.6773 L501.7028 260.2199 L501.5828 260.1447 L501.029 260.5436 L499.7212 260.8585 L498.5368 260.6796 L497.7059 258.5557 L497.1363 258.1564 L495.0758 257.1138 L493.6661 256.8133 L493.2261 257.3377 L493.1058 257.3551 L492.3761 256.9384 L492.2777 256.6712 L492.3141 256.5252 L492.1569 256.4915 L492.667 254.9802 L492.6507 254.7614 L492.3852 254.378 L491.6608 254.3284 L491.1718 254.4849 L490.7783 254.4187 L490.6509 254.2591 L490.4307 254.244 L490.8313 253.0767 L491.1631 252.0229 L491.1962 252.0139 L491.267 251.8079 L494.0222 251.471 L495.2642 249.4357 L495.4528 248.9775 L496.1457 246.5758 L496.4077 242.9331 L496.7518 241.6921 L496.7756 241.4586 L496.7905 240.9779 L496.9756 240.4345 L497.0439 240.2811 L496.0842 241.9118 L496.0676 241.9214 L495.9237 242.2301 L495.7173 242.3657 L495.485 242.3854 L495.3335 242.356 L495.2082 242.43 L493.1477 241.8021 L492.7612 241.7014 L492.6185 241.6406 L491.6053 241.3319 L492.7094 239.4832 L494.6672 237.2948 L495.1605 237.1763 L495.4194 237.0071 L496.1731 236.8967 L496.2969 236.9025 L496.5036 236.8529 L498.3913 237.1244 L496.6137 236.1921 L491.1211 235.0553 L489.4321 234.5394 L488.658 233.6713 L488.491 233.3936 L485.6956 233.3541 L485.8704 232.787 L486.3092 231.2993 L486.0955 230.8554 L485.5012 230.2116 L485.5108 230.0342 L485.7994 229.6566 L485.8006 229.6221 L486.5589 228.5123 L486.6453 227.7841 L486.9085 227.2817 L487.0187 227.0098 L487.0813 226.9513 L487.1785 226.7658 L487.5512 226.6538 L488.3242 226.3269 L490.5894 225.742 L492.024 225.3113 L492.3415 224.9789 L493.8339 223.1769 L494.2211 223.7494 L494.9482 223.7754 L495.1853 223.7479 L495.2014 223.3865 L495.3197 223.3284 L495.3192 223.2653 L495.7276 223.1277 L496.1299 222.9496 L496.3246 222.9352 L496.5134 223.0522 L496.9042 223.2064 L497.0672 223.431 L497.2564 223.5368 L497.5947 223.9617 L498.0922 224.0338 L498.3456 224.2069 L498.8891 224.2108 L497.6266 222.5498 L496.627 221.6368 L495.3232 221.3056 L494.6888 221.3796 L494.3186 219.7988 L493.4277 219.3347 L493.8148 219.0531 L495.1753 218.8536 L496.8492 218.5398 L499.8993 218.9853 L501.9045 217.5741 L502.4402 217.1987 L502.5362 217.0655 L503.0656 216.7196 L503.1872 216.6754 L504.5959 215.6888 L505.1409 215.6888 L504.6361 214.7591 L502.7974 213.5198 L502.7115 213.5024 L501.7983 213.4803 L500.3059 213.7434 L496.9608 212.3534 L497.2019 212.0377 L497.171 211.8874 L497.1953 211.5926 L498.0581 210.4076 L498.6066 209.9362 L499.081 209.3679 L500.0068 208.8701 L500.5237 208.6086 L500.6437 208.4676 L500.9285 208.3243 L501.0883 208.2816 L501.7036 207.9047 L501.892 207.73 L502.4734 207.2756 L503.8839 206.538 L504.2134 206.3331 L504.2968 206.3145 L504.4585 206.2153 L504.7933 206.2211 L505.2652 206.182 L505.6786 206.2711 L506.0368 206.3706 L506.2799 206.5465 L506.5057 206.741 L506.728 207.0451 L506.7923 207.1997 L506.9279 207.3589 L507.118 207.386 L506.7054 206.2072 L506.8249 205.6214 L506.6471 204.646 L506.7277 202.535 L506.5582 201.3597 L506.5931 201.2969 L506.5484 201.0032 L505.918 201.2117 L502.3275 203.0402 L498.8916 205.4626 L498.1741 205.7311 L497.9757 205.8372 L497.2473 206.0778 L496.475 206.3668 L496.2558 206.4733 L495.2569 206.8227 L490.9355 208.4273 L490.2177 208.8654 L490.1311 208.9007 L489.4462 209.5643 L490.5512 210.6451 L490.5512 211.5593 L490.0936 211.6465 L489.1091 211.9025 L488.4375 211.9897 L488.21 212.0366 L487.8134 212.5967 L487.737 212.7385 L486.7211 215.0651 L484.5486 215.5299 L483.334 215.1674 L482.1737 215.3506 L480.5685 215.2355 L480.4661 214.7784 L480.4558 214.7738 L480.4515 214.7141 L480.2614 213.8758 L480.2478 213.8716 L480.0705 213.0348 L479.8801 212.4453 L479.6649 212.1648 L478.6849 211.452 L477.9869 210.9693 L477.3186 210.5568 L477.2661 210.4708 L476.9441 210.248 L477.1322 210.0342 L477.1593 209.8587 L477.2482 209.6704 L477.6935 209.3683 L477.7345 209.3489 L477.913 209.1459 L478.7419 208.6795 L478.9579 208.4858 L479.4373 208.2882 L479.8788 208.0395 L481.2981 208.2456 L481.4589 208.2468 L481.8316 208.1189 L482.1626 207.9621 L482.3922 207.83 L482.512 207.7966 L483.3908 207.3806 L483.6731 207.1904 L484.6252 205.8934 L485.454 205.6838 L485.6577 205.3084 L485.6868 205.0372 L485.874 204.584 L486.8002 203.175 L487.5944 201.7688 L487.6248 201.7587 L487.6908 201.6432 L488.118 201.7184 L488.3677 201.7323 L489.2508 201.9171 L490.7132 202.1585 L492.2157 200.6585 L493.11 198.5022 L492.8252 198.3084 L492.3844 198.346 L491.9396 198.2806 L491.4177 198.4092 L491.038 198.623 L490.5427 198.5711 L490.3267 198.3158 L490.3312 197.9962 L490.4879 197.9361 L490.3001 197.8997 L491.1791 196.9467 L491.2218 196.5539 L491.1653 195.6934 L491.3542 194.7191 L491.5149 194.3014 L491.646 194.0182 L491.686 193.6641 L491.8658 193.4514 L491.9512 193.4309 L491.9801 193.3647 L492.2807 193.4615 L492.4015 193.3697 L492.512 193.1144 L492.4879 192.9141 L492.4163 192.658 L492.4648 192.5879 L492.5319 192.3546 L493.381 191.2602 L494.4138 189.7643 L494.5974 189.4528 L494.6938 189.318 L494.5466 189.1813 L492.7715 191.4539 L491.365 193.3375 L491.0885 193.3918 L490.8632 193.6788 L489.6461 193.4561 L488.6369 193.601 L487.9043 193.2922 L487.7076 193.1446 L487.6981 193.0993 L487.572 193.076 L487.6722 192.9737 L487.8126 192.7072 L488.7597 191.8301 L489.2113 191.2501 L489.4444 191.1184 L489.4936 191.1071 L489.5981 191.0002 L490.174 191.0177 L491.8294 192.2163 L491.8093 192.164 L491.527 191.7406 L491.0222 191.1622 L491.0217 191.0254 L491.0912 190.932 L490.994 190.817 L491.846 189.798 L491.9798 189.5966 L492.4048 188.5788 L492.7652 188.4591 L493.5566 188.2185 L493.7156 188.0786 L493.9506 187.8466 L494.0363 187.797 L494.4203 187.4595 L496.0375 186.4286 L496.1837 186.3216 L496.2038 186.3228 L497.0991 185.7521 L496.6388 185.0524 L496.3077 184.6068 L495.8321 184.0846 L495.3717 183.62 L495.0761 183.4941 L495.0444 183.3585 L494.5572 183.073 L496.906 181.6522 L496.8949 181.393 L496.7304 180.9916 L496.6975 180.7743 L496.7071 180.7406 L496.4338 180.3795 L494.0652 181.3508 L493.3255 181.1958 L491.9954 180.0664 L491.8698 180.2795 L491.7804 180.3206 L492.0921 180.5891 L492.125 180.6821 L492.0818 180.7859 L492.0084 180.8161 L491.0144 180.9215 L489.0197 181.7588 L488.0811 182.3833 L487.0371 183.1636 L486.4084 183.782 L486.3255 183.8936 L485.839 185.1214 L485.8795 185.2248 L485.8554 185.3259 L485.7986 185.4708 L485.6524 185.6676 L485.6235 185.6649 L485.4025 185.6847 L485.2551 185.6456 L482.8977 185.5212 L482.252 184.5441 L481.712 184.4767 L480.6888 184.9939 L480.7227 185.1365 L480.6604 185.243 L480.4138 185.4154 L478.6733 185.8641 L478.1439 185.9605 L475.1724 186.2178 L473.072 186.2569 L472.9296 186.1678 L472.9562 186.0434 L473.0534 185.9478 L473.4045 185.6235 L476.6111 182.5336 L475.4891 181.9939 L471.8396 179.8374 L473.1705 177.7006 L471.6937 176.9095 L471.8489 176.6138 L471.6479 176.4964 L471.2928 176.2551 L470.5745 175.7669 L468.7165 176.5553 L468.4836 176.5716 L468.3807 176.4422 L468.3591 176.2942 L468.4266 176.1787 L470.2447 173.7277 L470.2098 173.5847 L469.8565 173.4956 L469.5008 173.5122 L466.2702 177.3589 L464.5626 178.1656 L463.8166 178.4996 L463.3726 178.8103 L462.9946 179.152 L462.7728 179.4507 L462.4719 179.9044 L462.2085 180.4755 L462.2015 180.4949 L461.4382 182.3295 L458.5092 189.8542 L458.1749 190.6372 L457.824 190.9653 L457.7758 191.0107 L456.9824 191.3559 L456.4492 191.4337 L455.9622 191.4694 L454.9192 191.3032 L453.1942 190.9181 L451.7461 190.5531 L451.0745 190.5946 L450.6246 190.7836 L447.4091 193.3995 L445.1175 195.2928 L443.7249 196.316 L443.4119 196.2447 L443.1553 195.9286 L443.0882 195.7085 L443.1168 195.4218 L443.9007 194.406 L444.1825 193.9752 L444.081 193.8319 L443.8037 193.9783 L443.4089 194.4068 L442.9069 195.0635 L442.2358 196.0095 L442.1572 196.0742 L441.8128 196.0006 L440.6387 195.6593 L440.1037 195.9669 L439.8337 196.1653 L439.3226 196.2753 L439.0815 196.3106 L438.8411 196.4694 L438.7532 196.7119 L438.7148 197.0532 L438.7256 197.3698 L438.638 197.6123 L437.6635 198.1601 L436.7668 198.5204 L436.7327 198.5134 L436.314 198.4274 L435.5068 198.1918 L434.1659 198.0342 L432.8742 197.8517 L431.3928 197.5728 L430.1898 197.5185 L429.6375 197.1861 L428.8501 197.0277 L428.2702 196.6581 L428.0404 196.3079 L427.743 196.1196 L427.2339 196.1234 L426.6412 196.1568 L426.4614 196.0064 L426.2587 195.7004 L426.0711 194.881 L426.1316 194.499 L426.2645 194.1558 L425.2189 192.856 L424.6234 191.8735 L424.3569 190.1266 L424.3434 188.9864 L422.6292 186.754 L420.6383 184.6971 L419.5689 182.9498 L413.5984 187.8613 L411.717 188.6772 L409.9883 188.7714 L408.416 190.9762 L407.1382 190.7693 L406.6725 191.4481 L403.4464 195.2533 L403.2025 203.7336 L402.869 201.1935 L400.9831 198.0888 L400.1799 194.642 L399.6874 193.2263 L396.2746 188.967 L396.8521 188.3897 L398.2937 189.6996 L399.1999 190.0444 L399.1742 189.7399 L399.1127 189.6419 L399.1024 189.3401 L399.1187 189.0782 L399.0374 188.1069 L398.953 187.8074 L397.8399 186.2472 L397.1472 185.1566 L397.557 184.8486 L397.6859 184.3996 L395.5179 184.8044 L393.7164 185.0377 L392.8418 184.8126 L390.2343 185.3465 L389.667 185.6192 L389.0823 185.945 L388.3718 186.5688 L383.004 186.9249 L377.9362 186.9892 L377.2526 187.0674 L376.7603 187.0686 L376.7113 187.0047 L376.4803 187.0078 L377.7988 187.4622 L379.0398 189.1836 L379.3439 189.9201 L379.3251 190.6961 L376.3587 192.1361 L376.2238 193.0873 L376.2615 193.5584 L375.9199 196.0475 L375.6562 197.6402 L375.8282 199.3432 L376.0181 199.8693 L375.9965 200.0843 L375.9134 200.185 L375.9214 200.2652 L375.8735 200.2331 L375.8471 200.2652 L375.7047 200.3745 L374.9477 199.614 L372.0915 197.7045 L370.1132 196.5798 L363.9684 194.186 L359.5757 192.6626 L358.4073 192.3299 L357.7133 192.0164 L356.3513 191.5442 L356.4631 196.4245 L356.2401 196.5814 L356.2559 196.8545 L356.1778 197.0424 L355.7935 197.3027 L355.307 197.2504 L355.2796 197.2566 L354.333 197.9222 L354.2715 199.4203 L352.3961 200.3602 L352.3539 200.7452 L350.7056 201.2473 L350.2444 200.9699 L349.8248 201.0164 L346.4661 200.2021 L346.0132 200.0301 L345.9863 200.1169 L343.9896 199.2068 L341.9789 197.7153 L338.8701 195.3467 L335.9617 193.2349 L336.1669 192.2361 L334.6283 191.4736 L334.0182 190.7158 L333.7462 190.33 L333.5001 189.7004 L333.4838 189.49 L333.3065 189.1189 L332.8968 188.9542 L332.5979 189.1836 L332.4106 189.5946 L332.0931 190.4377 L331.7681 190.753 L331.4733 190.8104 L331.3311 190.8383 L330.5493 190.2742 L330.4028 191.5507 L323.9258 194.7892 L323.4963 195.1255 L321.7189 196.5047 L316.4471 197.3961 L314.8269 196.7592 L314.3354 196.1525 L317.131 192.0412 L318.7743 189.7066 L320.8855 186.9512 L321.0435 186.3282 L320.6705 186.1329 L319.7757 187.4487 L315.4462 184.9079 L318.5819 179.1609 L317.2252 177.7754 L317.9432 176.9246 L319.4336 177.19 L319.5481 177.5763 L319.6905 177.7929 L320.0163 177.7808 L319.9517 176.4197 L320.0956 175.5441 L320.3679 174.7947 L319.1257 175.0179 L316.8027 175.362 L315.774 175.5127 L315.4269 174.737 L315.6821 172.8547 L316.0545 169.2869 L315.4178 168.3233 L315.3056 167.1086 L315.6296 166.6242 L316.8914 166.5173 L318.0331 167.1717 L318.541 167.107 L318.5729 167.0857 L318.8903 167.0005 L319.697 166.9106 L319.8648 166.9745 L319.7669 167.1481 L319.5803 167.317 L319.3246 167.4891 L319.3015 167.5848 L319.6654 167.899 L319.8081 167.8645 L319.9585 167.7774 L320.4691 167.3291 L320.7318 167.1721 L320.7527 167.1458 L320.8599 167.0958 L321.2364 166.9563 L321.9132 166.6142 L322.5831 165.8365 L323.4498 165.3998 L323.5475 165.6846 L323.272 166.1267 L323.2715 166.2217 L323.3082 166.2433 L323.5719 166.1046 L323.6766 165.9442 L324.0039 165.7323 L324.1701 165.5808 L324.4316 165.5498 L324.5974 165.4924 L325.2597 165.4339 L326.4421 165.5951 L327.3186 165.69 L327.7793 165.5393 L327.9797 165.4266 L328.9667 165.0484 L330.6623 164.4881 L330.6796 164.4993 L331.3306 164.2424 L332.2795 163.7499 L332.3729 163.6906 L332.2606 163.5585 L331.5351 163.6492 L331.1144 163.5019 L330.7602 162.7219 L329.5574 162.1977 L328.1726 162.2039 L326.9833 162.8479 L325.9996 163.7147 L325.2029 163.5767 L324.512 163.2609 L324.3487 162.281 L325.2589 161.7784 L326.5167 161.8958 L326.6671 161.6684 L327.7202 161.3065 L328.2665 160.9589 L328.8793 160.8663 L329.3003 160.8578 L329.6818 160.6648 L330.5731 159.8712 L330.971 159.505 L332.7419 157.969 L333.5292 158.0318 L334.3957 158.2472 L334.2016 157.456 L334.9453 157.3239 L335.0703 158.1798 L335.599 158.0973 L335.6133 157.0061 L334.9955 156.884 L334.4563 156.8038 L334.3259 156.755 L334.2724 156.6043 L334.2714 156.576 L333.638 156.2582 L333.4602 156.2582 L332.7429 155.9374 L331.4991 155.1368 L331.4667 155.0462 L330.7929 154.456 L330.5231 153.6725 L330.0969 152.6677 L330.1753 152.1682 L332.5314 151.8411 L332.4681 151.759 L332.1496 151.1239 L331.8693 150.6627 L331.7754 150.3775 L331.7023 150.2318 L331.6883 150.1132 L331.5165 149.5913 L331.4313 148.3768 L331.4617 148.1893 L331.4042 147.7021 L331.3906 147.7064 L331.3497 147.4615 L330.0477 148.0966 L328.2452 148.0838 L326.9856 147.7235 L326.306 147.1031 L326.0438 147.0163 L326.0222 146.8438 L325.8227 146.6617 L325.5264 144.2746 L325.4282 142.1583 L325.6213 140.7473 L325.0381 140.2924 L322.3362 139.584 L322.1903 139.2596 L322.6436 138.7326 L324.0385 137.1107 L324.4894 136.8422 L324.6812 136.8522 L324.9111 136.6403 L325.1783 136.6259 L326.3984 136.3109 L327.2056 136.3 L329.2196 137.1138 L330.2388 137.4936 L333.8454 137.9393 L335.1153 137.7812 L335.1369 137.7711 L335.3119 137.6657 L335.8831 137.5366 L336.4168 137.5851 L336.6978 138.2625 L336.7707 138.5423 L337.6786 140.8241 L337.7705 140.9756 L338.1261 141.1523 L338.4835 140.9884 L342.3981 141.3391 L343.8769 141.3391 L344.6763 141.0852 L345.325 140.6276 L345.4165 140.4303 L345.4396 140.1106 L345.4084 139.732 L345.3243 139.3941 L343.739 138.6136 L343.3208 138.4388 L343.2241 138.4202 L343.0378 138.3206 L342.379 138.0548 L344.0261 137.1131 L345.4589 136.884 L345.8758 136.3562 L346.6431 135.2013 L346.9282 134.9355 L347.1736 134.5902 L344.6319 134.9041 L343.4981 130.4803 L343.3834 130.4392 L342.1364 130.5896 L341.9781 130.3477 L341.521 129.0181 L340.8741 126.8683 L340.3793 125.0274 L340.0518 124.0271 L340.0081 123.9368 L339.7125 123.8388 L338.9057 123.9744 L338.807 123.9008 L338.7234 123.6213 L338.6468 123.6058 L338.0621 122.0405 L337.8888 121.8257 L335.7459 122.5683 L338.4537 131.3496 L334.6301 132.1901 L334.2704 132.1119 L334.0268 132.1301 L333.4873 131.9262 L332.9973 131.8212 L332.8905 131.8274 L329.573 132.6668 L327.5447 133.2067 L323.6302 134.3228 L323.4639 134.0465 L323.3669 134.0263 L322.1137 132.301 L321.9256 131.9751 L321.9888 131.8069 L322.0913 131.7646 L322.0403 131.6797 L330.1429 128.6604 L330.0811 128.5514 L329.894 128.7406 L329.9917 128.567 L329.9929 128.396 L329.5273 127.5744 L328.9321 126.6009 L328.263 125.992 L327.8242 125.7556 L327.3661 125.6285 L327.011 125.3623 L326.5574 125.1456 L326.2336 124.7336 L326.1128 124.6274 L325.9868 124.6999 L326.0247 124.7464 L326.3165 125.1813 L326.3909 125.3293 L326.3678 125.3851 L326.4868 125.5556 L326.3128 125.5173 L325.8823 125.5805 L325.4809 125.4801 L324.9274 125.5436 L324.4107 125.246 L324.3929 125.1572 L324.0624 125.1103 L324.0719 124.4701 L323.8969 123.4462 L323.8072 122.249 L325.0693 119.9305 L327.6185 119.3767 L329.7945 118.6554 L330.3825 118.1799 L330.6882 117.7501 L331.0398 117.6326 L332.0163 116.9679 L332.6082 115.5362 L332.0188 115.4448 L330.7296 115.4037 L329.9249 115.3095 L329.6092 115.0727 L329.5916 114.9514 L329.6496 114.6246 L329.8191 114.5824 L330.2105 114.6134 L332.17 115.0339 L332.5266 115.07 L332.8308 114.9983 L332.9031 114.8231 L329.8277 114.3223 L329.4138 114.2549 L328.9876 113.8564 L328.586 113.67 L328.4805 113.6475 L323.4478 114.8611 L314.4657 114.7425 L311.4882 114.4998 L310.2485 109.7442 L311.6199 109.5143 L312.0945 109.4476 L316.9717 108.3697 L315.3219 105.6116 L314.0877 103.9128 L313.2127 103.3174 L312.9432 103.1624 L313.2684 102.6666 L314.6337 100.8247 L314.3934 99.9278 L313.0135 98.0025 L312.4022 96.5365 L312.6677 95.5834 L312.5423 94.5015 L311.3586 93.9794 L310.4284 90.0892 L309.9426 89.8818 L309.4456 89.4659 L309.5267 88.3002 L310.2571 87.9332 L313.5153 87.8886 L313.507 85.4883 L313.7371 84.4979 L314.0191 83.3373 L315.5211 83.3547 L316.4775 83.5129 L316.8966 83.573 L317.507 83.0733 L317.8126 82.3856 L317.7968 81.4727 L317.1408 80.9552 L316.7967 80.3788 L316.6073 79.4662 L317.0257 77.671 L313.9795 76.6414 L310.8616 75.7688 L298.4738 73.8425 L291.391 72.9516 L290.9075 72.9272 L289.112 72.6438 L288.1892 72.2492 L284.5761 69.2815 L283.0927 68.4205 L270.6665 63.7521 L267.5871 63.0445 L262.564 63.6222 L249.0166 70.3484 L242.8482 71.1703 L238.2797 70.2244 L230.0091 62.6026 L225.9007 60.5238 L219.5208 61.6144 L217.2988 61.5132 L213.0535 59.793 L212.5715 60.5373 L208.7298 59.403 L205.9706 59.0575 L204.4506 58.9784 L203.0133 61.2077 L201.5631 61.6233 L201.3762 60.7273 L201.0354 59.0924 L197.9582 58.904 L195.2744 58.5973 L189.2878 56.9892 L188.5625 56.9136 L187.3592 56.5716 L182.7648 56.2611 L176.8257 55.8916 L175.4765 56.0595 L174.9342 56.6034 L173.0978 59.8395 L172.0502 60.119 L168.3492 61.1394 L164.8998 61.6341 L156.7626 61.5422 L149.4848 61.2577 L147.7101 61.0999 L146.7105 63.4539 L145.673 64.1932 L144.7382 64.4014 L141.922 63.8707 L139.8138 66.588 L139.151 70.1243 L139.542 71.7456 L138.6861 73.4335 L138.4631 74.8306 L139.9851 73.2009 L142.8427 73.1734 L144.8258 71.6859 L147.7905 75.8223 L148.5696 76.9624 L149.9668 75.9463 L151.9414 74.612 L152.2912 74.8411 L152.6212 74.7872 L153.0763 74.6639 L153.5412 74.7663 L155.5136 80.4082 L162.1541 77.0124 L165.5598 79.0282 L162.2822 80.2687 L161.2223 83.0714 L159.1528 84.9321 L158.1432 87.7773 L160.4839 89.2255 L162.2973 91.3474 L161.9705 91.8343 L161.1498 92.7983 L162.1798 92.6529 L162.2785 95.352 L161.7699 96.5377 L158.2371 95.2841 L157.351 96.0722 L156.799 95.6725 L156.6372 95.2884 L156.3306 94.7116 L156.1319 94.5004 L155.7783 94.5004 L155.3606 94.3387 L154.7176 94.2647 L153.6015 94.1236 L152.412 93.7484 L152.188 93.6937 L152.0142 91.4672 L151.7635 89.162 L151.7008 88.629 L151.7078 87.568 L151.4873 86.8342 L151.1065 86.3609 L150.6529 86.1275 L149.792 86.0376 L148.8175 86.0372 L146.8451 85.9775 L146.428 85.9279 L146.006 85.7492 L144.7809 85.0724 L144.6691 85.0902 L144.38 85.4596 L144.103 86.9365 L143.7042 89.7 L141.056 89.6957 L139.7894 91.1075 L136.0489 92.4367 L135.2955 90.9675 L134.8504 89.7244 L134.6751 87.8738 L132.107 87.4397 L131.1991 87.6184 L130.4205 87.6184 L129.8986 86.6311 L130.1596 85.9543 L129.6869 84.8282 L128.2528 85.1445 L127.6977 85.2844 L125.7754 84.1858 L127.1238 82.9667 L128.6029 80.4625 L129.9391 78.2967 L131.1072 76.9934 L131.0261 76.52 L129.6864 76.8643 L127.0073 75.737 L127.9014 73.8568 L126.1762 73.2788 L125.103 72.4666 L124.0499 72.4263 L123.4401 74.5205 L121.9478 74.1026 L121.4063 76.8135 L121.284 77.4264 L120.0535 80.4575 L118.0938 84.4049 L118.8874 85.4244 L114.7659 86.2574 L112.1956 85.6833 L107.9144 86.5873 L108.0965 84.2079 L109.1797 83.673 L108.9592 79.0747 L106.9324 77.055 L107.9822 75.1981 L110.2677 74.4073 L115.0749 77.1325 L117.8351 74.198 L115.8258 72.0154 L114.3415 70.0809 L110.5766 68.5535 L110.5415 66.8787 L109.2254 65.5529 L107.6808 65.6847 L107.7763 62.8391 L105.8223 62.1296 L104.2701 61.9357 L104.034 63.5214 L100.0005 63.3935 L101.1457 61.2185 L100.7037 59.8302 L99.9758 60.1179 L98.4978 60.2822 L95.0692 61.3496 L95.1868 61.7694 L95.4382 63.4148 L89.6385 65.7021 L88.6198 66.1441 L86.4357 66.3976 L84.0789 68.6 L83.1252 69.8456 L80.7094 67.8778 L79.8853 69.9491 L78.7702 71.0075 L79.2147 72.9148 L79.5438 74.3918 L81.0633 73.663 L82.7219 74.0142 L85.671 75.6773 L88.7888 76.3301 L89.5172 76.8651 L89.693 81.1851 L86.8989 80.6083 L86.0035 79.7112 L85.5999 79.3724 L82.8957 79.4182 L81.0163 78.4091 L78.829 79.7345 L77.4084 78.7386 L77.5069 77.7334 L74.9501 77.3458 L75.9595 78.4265 L76.882 79.4143 L78.6293 81.4847 L82.4034 85.957 L83.7315 87.5308 L86.2521 86.7695 L90.2983 86.9206 L89.0073 90.138 L82.7033 88.5875 L83.1087 87.2215 L81.759 85.6108 L78.9267 82.2604 L78.1262 82.4147 L77.6513 81.8418 L77.7452 80.9467 L77.1186 80.178 L75.6986 82.2984 L78.3081 82.9745 L81.229 85.4476 L80.6142 86.7668 L79.5744 86.7958 L77.4541 85.5748 L76.4842 87.3362 L78.7483 87.2602 L79.3253 87.5199 L78.6805 88.4882 L76.5439 87.9855 L74.5206 88.3588 L72.6596 91.2838 L71.017 90.7768 L70.5373 92.3091 L70.6468 92.8002 L70.9253 95.3167 L70.8168 95.7512 L72.5491 99.0805 L69.8767 98.9564 L70.0023 101.003 L67.9177 100.8169 L67.8414 101.0348 L67.8273 101.379 L67.325 102.5418 L68.1136 104.2356 L66.5992 105.0612 L67.7294 106.631 L66.0968 107.193 L66.5984 109.1383 L66.2212 109.2868 L64.1059 108.2356 L60.9481 113.0069 L62.0582 115.4215 L59.2352 118.119 L59.0419 120.9134 L60.3353 121.1886 L60.5614 122.5993 L60.5714 123.6768 L62.4325 122.89 L64.0876 124.6612 L63.8113 126.5718 L60.8276 128.5445 L64.497 135.8729 L61.7167 135.8729 L61.6363 136.3147 L64.4794 136.3612 L64.1881 139.0701 L67.4782 141.3643 L67.4782 143.0112 L67.7042 143.2515 L70.7382 144.3017 L58.1251 155.6751 L57.0484 154.8989 L55.6111 154.4118 L51.9718 156.8492 L46.3333 162.2779 L49.5557 162.7925 L48.1592 164.6376 L47.4113 165.6924 L43.43 165.3312 L44.3567 166.668 L45.1228 169.2951 L36.5985 179.369 L48.0648 177.2915 L50.9873 180.5081 L51.4042 182.4724 L47.5941 186.0369 L47.7298 188.0166 L46.4464 189.3455 L51.8437 191.2904 L52.2983 192.5611 L54.1845 192.2047 L55.5508 196.7491 L56.8166 201.7002 L48.5787 206.4458 L47.4929 206.9231 L47.8197 209.0266 L54.9673 209.6391 L56.1435 210.8272 L58.7832 215.7856 L61.9106 222.8926 L61.9578 224.5981 L55.2343 226.9649 L55.817 228.7854 L57.6781 230.5285 L64.3814 228.5697 L64.9666 231.0862 L64.0876 233.6039 L63.3417 234.1849 L58.5205 236.0031 L58.1327 236.6565 L62.5028 240.5368 L63.3399 241.2107 L63.3793 241.9741 L63.5175 247.1603 L63.6179 249.5538 L67.5058 251.9667 L68.5984 254.1162 L65.5217 256.6878 L64.939 259.0851 L65.5317 262.4622 L64.7758 263.1051 L65.7578 263.9571 L66.6092 264.2476 L66.9809 263.1361 L70.7206 264.5496 L71.0044 266.9352 L72.8479 267.6439 L72.9836 269.1969 L71.567 272.0432 L70.1857 270.9086 L69.5226 272.4498 L69.1936 271.23 L68.9098 272.0432 L68.096 273.8633 L68.7365 274.4597 L68.513 275.5285 L70.4921 274.7811 L74.1866 275.8422 L77.1502 278.6497 L82.9243 277.8017 L83.9365 283.0333 L88.5809 282.5024 L92.2473 288.1331 L94.6659 293.2831 L94.8819 296.9229 L97.1498 300.0051 L97.1021 302.2508 L95.6077 302.8277 L96.2658 303.7144 L104.9281 303.2924 L105.4081 303.5162 L103.8155 307.8186 L102.7858 310.5947 L101.6656 316.6617 L102.2935 317.9316 L101.4773 318.1794 L102.075 318.8879 L102.6451 318.8995 L102.6175 320.6766 L101.7686 320.5256 L101.2412 322.5311 L100.7112 322.8447 L99.586 323.1544 L98.9883 323.1544 L99.2696 323.9635 L97.5391 323.8358 L97.2126 323.3712 L94.1493 325.1587 L93.1589 325.7367 L88.387 325.0127 L80.9301 326.4452 L80.9352 328.3809 L79.4182 327.3627 L74.7291 327.8195 L75.2565 326.4413 L73.4834 325.7483 L71.5193 330.5102 L69.8943 329.8327 L69.8491 324.8966 L68.0835 323.7816 L70.0325 321.6058 L71.8107 323.6732 L75.043 322.1517 L77.1628 322.6743 L79.923 320.7347 L78.3407 319.55 L72.421 318.8995 L70.7131 318.6943 L69.613 318.493 L69.613 320.2236 L62.8594 321.025 L61.7368 319.7745 L56.8241 318.8569 L56.5627 319.7602 L55.6261 322.9957 L52.2757 322.5349 L52.3988 320.2856 L51.153 319.8248 L54.0664 312.3138 L50.6834 309.3906 L47.1345 309.6616 L46.4439 310.7225 L43.98 311.5975 L46.1299 312.7435 L46.1224 316.7663 L44.4019 316.383 L39.9665 316.8166 L33.4616 315.0705 L33.0924 316.9366 L32.791 318.3149 L34.5717 318.3149 L35.084 319.8636 L27.1575 319.5538 L26.4267 322.2717 L19.8213 324.5559 L14.5495 324.2655 L13.8437 319.6196 L14.7203 318.7679 L13.8563 313.6766 L13.1656 312.5112 L11.9726 312.7978 L5.6937 315.295 L3.8603 318.5201 L3.0214 319.0312 L4.7921 319.6584 L6.4472 324.463 L6.5075 325.3573 L11.5334 324.6298 L13.5424 324.3391 L8.2204 325.8064 L7.61 325.4812 L7.4393 328.1525 L7.8662 333.0846 L6.0077 334.9274 L2.2629 336.5185 L0.4144 335.7365 L0.0 338.9302 M52.674 157.8326 L52.944 157.5839 L53.3981 157.4281 L53.5034 157.3099 L53.5066 157.1933 L53.4506 157.0445 L53.2424 156.7019 L53.1354 156.4795 L53.1668 156.2641 L54.0406 155.6623 L54.9462 154.9938 L55.0585 154.9694 L55.9805 155.143 L56.3437 155.0892 L56.5913 154.9907 L56.7548 154.9977 L57.4309 155.6026 L57.4864 155.6642 L57.5214 155.7983 L57.4734 155.8909 L57.4412 156.0428 L54.248 158.7541 L53.9055 158.8432 L53.8022 158.694 L53.8052 158.5293 L53.7397 158.3616 L53.6309 158.3162 L53.3984 158.5061 L52.9568 158.1356 L52.674 157.8326 M64.5173 237.8077 L64.5367 237.1883 L64.7245 236.246 L64.9506 235.2846 L65.259 234.5157 L65.4976 234.2415 L65.7158 234.1071 L65.9105 234.0265 L66.124 233.9576 L66.8104 233.9684 L68.3256 234.2489 L68.6524 234.3643 L68.6428 234.8206 L68.7501 235.5964 L68.8686 236.3567 L67.8482 240.5767 L67.7992 241.05 L67.77 241.4338 L67.7811 242.0922 L68.2078 242.5148 L68.2766 242.6879 L68.3319 242.8777 L68.2806 242.9467 L68.0039 243.0877 L67.7982 243.0807 L67.5515 243.0509 L67.119 242.9207 L66.0923 242.1647 L65.5086 241.469 L65.1959 240.9067 L64.8097 239.7908 L64.5856 238.6532 L64.5206 238.2283 L64.5201 238.2244 L64.5198 238.2225 L64.5173 237.8077 M68.5966 176.615 L68.6747 176.3872 L69.7286 175.3147 L70.5308 174.503 L70.7799 174.1233 L71.4171 173.6041 L71.6627 173.4038 L71.9003 173.3018 L72.1196 173.2767 L72.3956 173.3852 L72.7128 173.6215 L72.9705 173.8067 L73.0863 174.088 L73.2206 174.396 L73.2161 174.7695 L72.9062 175.2399 L71.6718 176.6526 L71.0733 177.4341 L70.6465 177.87 L70.3856 178.1171 L70.1354 178.1838 L69.8682 178.1861 L69.6163 178.1416 L69.3579 178.0528 L69.166 177.9099 L68.9758 177.7293 L68.8545 177.5608 L68.7782 177.4453 L68.6963 177.2934 L68.6149 176.9924 L68.5966 176.615 M70.6983 255.7467 L70.8038 255.4617 L70.958 255.2126 L71.935 254.5469 L72.4004 254.2347 L72.6656 254.1518 L72.8404 254.1607 L72.9436 254.2153 L73.0303 254.3327 L73.5356 255.0577 L74.1462 256.0279 L76.4156 259.4391 L76.5309 259.6916 L76.5841 259.9356 L76.5497 260.1145 L76.4839 260.3155 L75.2781 261.9018 L75.0639 261.977 L74.8763 261.822 L73.9455 260.5603 L73.0403 259.3554 L70.7141 256.031 L70.6983 255.7467 M75.3828 102.0837 L75.4205 101.5809 L75.6117 101.2794 L75.9849 100.9507 L76.4206 100.7123 L76.8122 100.2569 L77.0274 99.8646 L77.1417 99.4622 L77.1769 99.1963 L77.2326 98.8153 L77.2138 98.5196 L76.9855 97.0497 L77.0211 96.8703 L77.1281 96.7551 L77.3271 96.6761 L77.6026 96.6106 L77.8419 96.6373 L78.1835 97.0873 L78.733 98.1203 L79.6965 98.9642 L80.0727 99.5886 L80.402 101.1557 L78.1189 104.6046 L77.8685 104.6414 L76.3639 104.4182 L76.0248 103.8504 L76.0316 103.3507 L75.3828 102.0837 M83.8413 255.4369 L83.9219 255.1766 L84.0229 255.0329 L84.1799 254.9489 L84.4298 255.0562 L84.9534 255.5592 L85.0252 255.8195 L84.9519 255.9891 L84.7515 256.0987 L84.4087 256.0848 L83.8707 255.7905 L83.8413 255.4369 M84.9677 92.0285 L85.1644 90.2318 L86.6497 90.1489 L87.2266 90.2369 L87.9233 90.578 L88.2338 90.8392 L88.3033 91.18 L88.1755 91.5571 L87.0013 92.299 L86.1328 92.675 L85.903 92.7417 L85.5406 92.7929 L85.0584 92.6863 L84.9913 92.2963 L84.9677 92.0285 M86.3604 271.8732 L86.5284 271.4832 L86.656 271.2416 L86.809 271.07 L86.986 270.9984 L87.1731 270.9864 L87.3788 271.1049 L87.5521 271.139 L87.6744 271.2304 L88.2885 271.6056 L88.9455 272.6559 L89.1852 273.1074 L89.4993 273.1217 L90.0072 273.629 L90.4166 274.3509 L90.781 275.0619 L90.7506 275.3271 L90.559 275.616 L89.9542 275.9835 L89.5998 276.1663 L89.2386 276.2457 L88.9508 276.1144 L88.7155 275.8104 L88.4633 275.2737 L88.5455 274.9488 L88.3639 274.4194 L87.9771 273.9117 L87.6049 273.619 L87.3045 273.4025 L87.1232 272.9947 L86.936 272.6051 L86.6008 272.2113 L86.3983 271.9545 L86.3604 271.8732 M95.4108 256.3149 L95.4196 256.1549 L95.4877 255.9961 L95.777 255.7889 L96.3979 255.5259 L96.5234 255.8273 L96.6124 256.0445 L96.6199 256.6851 L96.6463 257.5042 L96.2738 257.6235 L96.0817 257.6274 L95.6763 257.4244 L95.4907 256.9833 L95.4304 256.6317 L95.4108 256.3149 M152.4891 378.515 L152.7734 378.2337 L153.0718 378.3804 L153.1612 378.4744 L153.171 378.4849 L153.1921 378.8676 L153.0851 379.0445 L152.8518 379.1211 L152.6667 379.0995 L152.6587 379.0824 L152.576 378.9091 L152.5263 378.6857 L152.4891 378.515 M153.934 376.6247 L154.0546 376.2795 L154.463 375.7411 L154.7478 375.7113 L154.9377 375.7488 L155.1202 375.9818 L155.1328 376.209 L155.1348 376.4273 L154.9964 376.7645 L154.5757 376.9355 L154.2286 377.0075 L154.0877 376.9657 L153.936 376.7439 L153.934 376.6247 M165.4433 61.6582 L165.9511 61.5764 L166.7664 61.481 L168.1384 61.2953 L169.6328 61.5733 L171.1918 61.7303 L171.4133 61.9276 L171.6313 62.09 L171.5888 62.5208 L171.4037 62.9371 L170.9725 63.3547 L169.6474 64.0234 L169.0763 64.2665 L168.3303 64.3673 L167.4842 64.3669 L166.8666 64.12 L166.3115 63.5536 L166.0069 62.9635 L165.7607 62.5064 L165.5628 62.0424 L165.4433 61.6582 M175.7922 393.9918 L175.8567 393.6655 L175.8198 393.0064 L175.9198 392.3481 L176.1237 391.393 L176.2792 390.8248 L176.4427 389.9564 L176.5562 389.2683 L176.6629 388.9184 L176.8262 388.858 L177.2911 388.8259 L178.6945 389.045 L179.01 389.1638 L179.1946 389.4424 L179.3636 391.0807 L179.6309 392.7092 L179.3747 392.972 L179.0547 392.991 L178.5903 392.8129 L178.3866 392.5722 L178.4527 392.1124 L178.5717 391.9189 L178.5333 391.6573 L177.969 391.7792 L177.8213 392.9263 L177.7196 393.4302 L177.5814 393.876 L178.0415 394.1671 L178.1608 394.4554 L177.9393 394.8118 L177.2434 395.0162 L176.8468 395.2294 L177.0444 395.7418 L177.4021 396.1006 L177.5073 396.6513 L177.8642 396.9578 L178.2329 397.3428 L178.6468 397.9187 L178.7222 398.1466 L178.5652 398.5108 L178.1493 398.5932 L177.279 398.303 L176.7413 397.9353 L176.5499 397.3235 L175.8469 394.9155 L175.8015 394.5812 L175.7922 393.9918 M188.8533 57.1229 L189.0362 57.0997 L189.9692 57.3532 L192.2613 58.0344 L194.965 58.6725 L195.2302 58.7074 L195.4959 59.1544 L196.2278 59.5472 L196.9546 59.6162 L197.6827 59.5022 L198.0999 59.22 L198.3958 59.1153 L199.4097 59.1777 L199.7939 61.8059 L197.3311 63.1019 L196.2401 63.5935 L196.1715 63.578 L195.2453 63.4931 L194.4943 63.1826 L193.3058 62.1967 L191.9149 61.8993 L191.0198 62.0311 L190.6511 62.0129 L190.4376 61.8753 L190.2334 61.2957 L190.0122 60.5284 L189.7176 59.3316 L189.4626 58.4531 L189.1843 57.7048 L188.8533 57.1229 M196.1462 103.298 L196.1497 103.2069 L196.4305 102.5368 L196.4511 102.4654 L196.5299 102.41 L196.595 102.4092 L196.6429 102.4185 L196.6849 102.4329 L196.7605 102.5007 L196.9895 102.6662 L197.9218 103.1395 L197.9253 103.1635 L197.6275 103.8426 L197.582 103.8302 L196.7128 103.448 L196.5528 103.4155 L196.2928 103.379 L196.1894 103.3507 L196.1462 103.298 M201.765 68.6752 L201.7738 67.649 L202.5097 63.5427 L203.1449 61.9435 L203.7411 61.5283 L204.2665 61.1263 L204.5162 60.3202 L204.591 60.0175 L204.8083 59.912 L205.0941 59.819 L205.4158 59.5026 L205.8014 59.2556 L207.139 59.2987 L208.1256 59.5092 L208.5219 59.6484 L208.6708 59.9023 L208.7025 59.9566 L208.5709 60.373 L208.5041 60.5846 L208.5159 60.6323 L208.5691 60.8456 L208.5889 60.9247 L208.9662 61.2096 L209.3924 61.4387 L209.6217 61.4147 L210.129 61.3011 L211.1364 61.3259 L211.644 61.4162 L212.7112 61.7485 L213.1831 62.0629 L213.5983 62.506 L213.8886 62.8581 L213.9941 63.868 L213.9494 65.6044 L213.6108 69.4168 L213.4662 69.7727 L213.167 69.7921 L212.3917 69.8956 L212.1697 70.0832 L211.7535 70.6973 L211.0372 71.6378 L210.4086 71.863 L209.6948 71.7909 L209.1337 71.8026 L208.6912 71.9034 L208.1208 72.0666 L207.7626 71.9712 L206.917 71.6413 L204.6074 69.7088 L203.5216 69.1319 L202.6262 68.9183 L202.0061 68.9074 L201.765 68.6752 M208.6108 60.6579 L208.6658 60.3986 L208.7974 59.9822 L208.7658 59.9279 L208.8416 59.5704 L210.0889 59.8411 L211.1138 60.8176 L210.9978 61.1654 L209.8374 61.1848 L208.664 60.8712 L208.6108 60.6579 M227.3453 379.3367 L227.4091 378.8959 L227.5628 378.5476 L228.1467 377.5753 L228.2585 377.2916 L228.2389 377.0377 L228.2959 376.831 L228.3972 376.6878 L228.6473 376.6224 L228.6491 376.6216 L228.8121 376.3879 L229.1243 376.0693 L229.394 375.7132 L229.4508 375.5933 L229.554 375.4915 L229.6889 375.4601 L229.8945 375.4357 L230.0224 375.4841 L230.4483 375.4342 L230.9356 375.2979 L231.1446 375.07 L231.4814 374.064 L231.7737 373.3654 L232.1801 373.1448 L232.6261 372.9799 L233.2264 372.8506 L233.8824 372.8282 L233.9359 373.2423 L233.7249 374.5567 L233.3452 375.9687 L233.1968 376.2985 L233.2281 376.6809 L233.5665 376.7401 L233.7347 376.5713 L233.8545 376.3356 L233.8646 375.9931 L233.7925 375.7121 L233.8457 375.2186 L233.9937 374.5471 L234.1356 373.5295 L234.2152 373.3546 L234.9295 373.1192 L235.0347 373.0356 L235.1322 372.9106 L237.7115 375.3188 L237.6229 375.6238 L235.5024 377.6759 L235.4318 377.7855 L235.4858 377.9016 L235.9969 378.7322 L236.3646 379.1312 L236.6446 379.3727 L236.7632 379.3201 L232.5616 384.014 L231.7446 384.9069 L231.3774 385.2784 L230.8851 385.6334 L229.5487 386.2561 L229.2468 386.3157 L229.1215 386.1698 L229.0891 386.0753 L229.021 385.4402 L228.9464 384.9297 L228.8058 383.077 L228.8234 382.6896 L228.8769 382.1671 L229.1996 381.3071 L230.0284 380.6825 L230.5872 380.1151 L230.9876 379.8031 L230.8974 379.7791 L230.6453 379.9157 L230.2148 380.2041 L229.3666 380.6468 L229.0863 380.6782 L228.6998 380.5737 L228.3758 380.3906 L228.1186 380.3581 L227.7436 380.0965 L227.4631 379.7613 L227.3453 379.3367 M229.9591 386.57 L230.0028 386.4024 L231.0971 385.8609 L231.3837 385.6852 L231.9447 385.2053 L232.3747 384.6921 L233.1583 383.8135 L233.5825 383.4277 L233.9859 382.8514 L237.6648 378.7689 L239.0218 377.2297 L239.1989 377.3106 L239.5854 377.554 L239.8989 377.8966 L240.0702 378.3482 L240.1925 378.8247 L240.248 379.2051 L240.255 380.3345 L240.1518 380.9503 L240.081 381.0664 L239.7037 381.3691 L239.5719 381.5475 L239.4104 383.5666 L239.2727 383.5871 L239.0615 383.5829 L238.8229 383.5117 L238.69 383.4432 L238.4612 383.1517 L237.7645 382.8735 L236.1265 382.3115 L235.9153 382.3068 L235.8148 382.3393 L235.2924 382.6103 L234.8401 383.1184 L234.873 383.3433 L234.9526 383.6494 L235.3959 384.5203 L235.4187 384.6758 L235.2158 384.9704 L234.9611 385.1492 L233.7101 385.5977 L233.4921 385.7889 L233.2211 386.2174 L232.7828 386.5819 L232.4543 386.736 L230.433 387.077 L230.1304 387.0224 L230.0015 386.818 L229.9591 386.57 M230.9891 371.9794 L230.9919 371.7932 L231.2171 371.3814 L231.513 371.0338 L231.8516 370.2353 L231.8513 370.0038 L231.9872 369.7917 L232.1946 369.6783 L232.3416 369.6342 L232.4925 369.6926 L232.6565 369.7987 L232.7427 369.9659 L232.8127 370.1846 L232.979 370.1858 L233.1438 370.2547 L233.2646 370.4044 L233.2417 370.5442 L233.3289 370.6738 L233.6029 370.8573 L233.678 371.0322 L233.6699 371.1886 L233.6895 371.3222 L233.7654 371.4599 L233.8781 371.5552 L234.1996 372.1036 L234.3659 372.2964 L234.5887 372.4373 L234.8471 372.6528 L234.8044 372.7152 L234.3222 372.774 L234.0409 372.5425 L233.6842 372.5576 L232.8572 372.6977 L231.6906 372.8549 L231.2199 372.6281 L231.0403 372.2449 L230.9891 371.9794 M242.6593 409.8294 L242.8783 408.6847 L243.297 407.7053 L244.1997 404.871 L244.267 404.1652 L244.1135 403.2341 L243.8106 402.0344 L243.7571 401.3289 L243.8046 400.5963 L243.9161 400.0464 L244.2534 398.7128 L244.3077 398.3142 L244.3335 398.0104 L244.263 397.5263 L244.2311 396.9481 L244.2044 395.3235 L244.2268 394.7549 L244.2077 394.2634 L244.1497 393.866 L243.9694 392.9917 L243.9578 392.5517 L244.0058 392.28 L244.1329 392.0672 L244.38 391.8702 L244.3968 391.6879 L244.5257 391.3914 L244.6324 391.04 L244.6442 390.7149 L244.7698 390.2188 L244.9162 389.4974 L245.0775 389.2795 L245.1583 389.2323 L245.2663 389.2516 L245.4904 389.3422 L245.6792 389.915 L245.9836 391.0331 L246.3355 392.8919 L246.1655 393.2522 L246.2448 393.4573 L246.452 393.52 L246.6422 393.424 L246.818 393.2305 L246.87 393.0014 L246.8873 392.7738 L246.8097 392.4878 L246.8705 392.3025 L247.1201 392.0892 L247.1663 391.9232 L247.0747 391.7777 L246.9692 391.7757 L246.7979 391.6515 L246.6113 391.3067 L246.344 390.8608 L245.5655 389.0163 L245.6863 388.5205 L245.8179 388.2187 L246.1014 387.8765 L246.3855 387.6583 L247.0623 387.3649 L247.2459 387.1787 L247.3703 386.9488 L247.527 386.2193 L247.5192 385.8408 L247.476 385.4232 L247.4961 384.9611 L247.7606 384.1274 L247.8387 383.9393 L247.8138 383.8902 L247.6591 383.9126 L247.3886 383.8352 L247.1553 383.6769 L246.9893 383.4718 L246.9267 383.2144 L246.9795 382.8963 L246.8192 382.6904 L246.5638 382.6347 L246.2383 382.397 L246.1082 382.0673 L246.0874 381.8052 L246.0758 381.3656 L246.0911 380.8686 L246.0077 380.2981 L245.9254 379.9746 L245.7121 379.4761 L245.368 378.8026 L245.3233 378.4183 L245.3952 378.1907 L245.5963 378.0432 L245.9645 377.8528 L246.5113 377.5304 L246.9847 377.2126 L247.5601 376.9173 L248.189 376.4811 L248.7117 376.3337 L249.0729 376.2806 L249.6086 376.3433 L249.9205 376.3472 L250.2445 376.2501 L250.5127 376.1239 L250.8606 375.8371 L251.2182 375.6169 L251.5681 375.5967 L251.8984 375.486 L252.2025 375.3235 L252.6099 374.8958 L252.9801 374.6651 L253.2137 374.7015 L254.2997 376.0078 L254.327 376.0744 L254.3228 376.2868 L254.2743 376.4355 L253.7923 376.9827 L253.5512 377.4952 L253.4575 378.0564 L253.3779 379.6754 L253.2614 380.6813 L252.8035 382.9559 L252.6576 384.9626 L252.5838 385.5385 L252.4107 385.917 L252.1711 386.1996 L251.4922 386.5994 L251.4804 386.76 L251.5699 389.127 L251.5422 389.3472 L251.5344 389.7389 L251.6211 389.9734 L251.8627 390.1851 L252.6375 390.509 L252.9133 390.6607 L252.9954 390.8488 L253.1383 391.5873 L253.3194 393.3091 L253.3882 395.2236 L253.2865 396.2101 L253.066 396.9841 L252.805 397.4814 L252.7274 397.9895 L251.1585 398.3007 L251.1698 399.099 L252.0779 399.1331 L252.5059 399.2256 L252.7008 399.4129 L252.7802 402.1207 L252.7694 402.5282 L252.7204 403.1536 L252.6247 403.5456 L252.5353 403.7495 L252.3645 403.8923 L252.2136 404.0448 L252.1078 404.2526 L252.1435 404.5823 L252.4466 405.3443 L252.8048 406.061 L252.9482 406.4824 L252.7777 406.8783 L252.2927 407.1287 L251.7537 407.2076 L251.2923 406.9716 L250.8827 406.8768 L249.5327 406.8431 L248.2129 406.6303 L247.595 406.3482 L247.4378 406.3714 L247.2927 406.4793 L247.0839 407.0734 L247.041 407.3798 L246.1614 410.4931 L245.8997 410.7435 L243.6197 411.8374 L243.3078 411.8657 L243.0273 411.748 L242.857 411.5433 L242.7949 411.3584 L242.6897 410.8793 L242.6593 409.8294 M251.5854 387.2391 L251.5937 386.8966 L251.8642 386.5467 L252.1242 386.3346 L252.4532 386.0873 L252.6363 385.7781 L252.7402 385.4097 L252.8492 383.7512 L252.9587 383.0569 L252.961 382.7438 L253.0637 382.1768 L253.3463 381.0219 L253.4894 379.9591 L253.553 378.5897 L253.6547 377.6036 L253.7411 377.3191 L253.9395 376.9735 L254.4928 376.4386 L254.7392 376.2791 L255.0526 376.3074 L255.3171 376.4235 L255.6657 376.7079 L256.0753 377.3795 L256.3913 378.1458 L256.593 378.8502 L256.6545 379.5121 L256.5973 379.9622 L256.4905 380.3132 L256.0558 380.9422 L255.5439 381.4058 L255.1719 381.7429 L255.0253 381.9411 L255.0014 382.1389 L255.1767 382.3781 L255.6273 382.7868 L256.2903 383.2601 L256.8808 383.5767 L257.911 384.0326 L257.9809 384.2695 L257.957 384.4672 L257.1161 385.5618 L256.7233 386.2375 L256.2956 386.7948 L255.9357 387.0951 L255.2646 387.6703 L254.692 388.1958 L254.2464 388.632 L254.0118 388.949 L253.9352 389.1107 L253.5773 389.9049 L253.3983 390.0017 L253.278 390.0195 L253.128 389.9533 L252.5376 389.7571 L251.8567 389.663 L251.7213 389.5767 L251.6871 389.3786 L251.6241 389.1378 L251.5854 387.2391 M256.8137 435.3 L256.9516 435.1433 L257.2932 435.0683 L257.6197 435.1011 L257.8349 435.0508 L258.2463 435.1143 L258.9554 435.1839 L259.3062 435.3 L259.5059 435.2273 L259.6644 435.0427 L259.4602 434.7873 L259.2979 434.65 L258.8313 434.3339 L258.8775 434.2278 L259.0116 434.171 L259.6438 434.0533 L260.5703 433.9346 L262.6662 433.5639 L262.7398 433.5883 L262.8242 433.81 L263.0336 434.0584 L263.2617 435.2404 L263.3812 436.2275 L263.3704 436.3656 L263.2745 436.4294 L263.0535 436.4395 L262.7016 436.3822 L261.3783 436.2282 L261.2394 436.1745 L261.0869 436.0913 L260.5118 435.9988 L260.0115 436.0212 L259.1947 436.104 L258.2476 436.0135 L257.742 435.728 L257.3585 435.685 L257.0842 435.6695 L256.8788 435.5488 L256.8137 435.3 M257.565 430.4642 L257.6951 430.3396 L257.958 430.2761 L258.2185 430.2815 L258.5216 430.2185 L258.6414 430.0772 L258.8556 429.8261 L259.3215 429.7263 L261.6362 429.2898 L262.1571 429.2132 L262.1654 429.3305 L262.4442 431.7329 L262.6255 432.3822 L262.7694 433.1089 L262.7011 433.2423 L262.5444 433.3712 L262.4241 433.4598 L261.9441 433.5616 L260.9814 433.7028 L260.2445 433.8231 L259.5561 433.9365 L259.2422 433.9891 L259.0307 433.8959 L258.9267 433.6072 L258.834 433.1433 L258.5688 432.7668 L258.2689 432.364 L257.9291 431.9426 L257.7604 431.4652 L257.8236 431.1765 L257.7674 430.9618 L257.5705 430.6758 L257.565 430.4642 M262.9307 430.1782 L262.9847 429.9797 L263.2647 429.784 L263.8085 429.6091 L264.4841 429.5216 L265.4485 429.5468 L265.8657 429.6404 L266.0734 429.681 L266.5179 429.6396 L266.8419 429.6636 L267.1659 429.7708 L267.4141 430.0084 L267.5233 430.3493 L267.6077 430.7656 L267.6032 431.3851 L267.6798 431.9094 L267.8591 432.407 L268.1251 433.0106 L268.6723 433.8347 L269.0963 434.4631 L269.3344 435.2017 L269.3115 435.7763 L269.1865 436.0565 L268.8755 436.4472 L268.48 436.7436 L267.7358 437.0907 L267.467 437.2017 L267.1137 437.2176 L266.5157 437.1031 L265.9639 436.9816 L265.4656 436.8999 L265.1968 436.9278 L264.7922 437.0822 L264.575 437.1379 L264.4602 437.0833 L264.1849 436.6597 L264.0229 436.3621 L263.9067 435.8909 L263.7828 435.1236 L263.6525 434.3931 L263.4322 433.3546 L263.2926 432.5768 L263.0753 431.1688 L262.9307 430.1782 M263.0306 416.3154 L263.2202 416.0767 L263.5282 415.8557 L263.8695 415.5032 L264.0167 415.4219 L264.205 415.3519 L264.4665 415.2923 L264.9577 415.7241 L265.0743 415.9304 L265.2782 416.0558 L265.5234 416.1924 L265.9021 416.2616 L266.0817 416.4338 L266.156 416.6463 L266.0297 416.9938 L266.0134 417.4055 L266.2286 417.9074 L266.3466 418.2494 L266.4044 418.4333 L267.0145 420.707 L267.0677 421.0715 L267.1853 421.5382 L267.2332 422.2146 L267.2724 422.4742 L267.358 422.7222 L267.4251 423.0968 L267.0175 423.1007 L266.8339 422.8612 L264.2043 422.2606 L264.0129 422.177 L263.937 422.0161 L263.7241 420.9171 L263.7999 420.8355 L264.1576 420.6675 L264.4785 420.4357 L264.5049 420.255 L264.3547 419.8569 L263.5972 418.0045 L263.0306 416.3154 M264.1274 425.1283 L264.2078 424.7332 L264.301 424.6489 L264.4924 424.6384 L264.9472 424.7483 L265.2519 424.7916 L265.3895 424.7715 L265.5708 424.6922 L265.7301 424.5804 L265.8129 424.4268 L265.8245 424.2662 L265.5575 424.092 L265.4706 423.9291 L265.5959 423.5406 L265.7333 423.5205 L266.8274 423.8014 L267.1564 423.7709 L267.7358 423.6637 L268.8323 423.6765 L269.8955 423.8986 L270.3405 424.0626 L270.5852 424.4155 L270.6439 424.775 L270.6467 425.0861 L270.3403 425.7992 L269.676 426.2438 L268.163 427.5428 L267.8096 427.7034 L267.5534 427.6778 L267.3701 427.311 L267.0953 427.3265 L266.9062 427.5196 L266.8635 427.8284 L266.7809 428.2238 L266.7734 428.6046 L266.5614 428.7137 L265.8596 428.8201 L265.3003 428.7597 L264.9917 428.6614 L264.8658 428.521 L264.7043 428.0153 L264.9108 427.3845 L264.9801 426.8978 L264.7819 426.418 L264.1274 425.1283 M274.034 335.654 L274.9472 333.843 L276.139 332.512 L277.1295 333.2085 L278.1819 335.0656 L276.8354 335.9788 L275.1175 336.5823 L274.2352 336.1801 L274.034 335.654 M277.8087 324.358 L277.8504 324.0913 L277.8963 323.8981 L277.9669 323.4908 L278.1091 323.2775 L278.3557 323.2291 L278.6018 323.2612 L278.8781 323.2887 L279.0893 323.2516 L279.2475 322.9488 L279.1699 321.9709 L279.0524 321.4052 L278.9236 321.1238 L279.7996 320.1473 L280.0595 320.0033 L280.759 319.7416 L281.2982 319.3448 L281.7275 319.1582 L282.3096 319.0552 L282.7939 319.1252 L283.0154 319.1988 L284.1659 319.984 L284.3099 320.308 L283.9839 321.2988 L284.0429 321.3212 L284.3051 320.4884 L284.4698 320.4842 L284.8064 320.4025 L284.9784 320.3773 L285.6754 320.8226 L286.5376 322.0386 L284.1521 322.9008 L283.7792 322.991 L283.7053 322.9662 L283.6609 322.9024 L283.6232 322.7293 L283.6684 322.4869 L283.6895 322.3352 L283.5672 322.3034 L283.3655 322.9043 L282.5357 323.3398 L281.1056 323.9241 L280.8557 323.2717 L280.2044 323.5164 L280.4355 324.2086 L279.1119 324.7882 L279.0386 324.6515 L278.9585 324.5183 L278.7357 324.4765 L278.3642 324.5183 L278.101 324.4951 L277.8818 324.4777 L277.8087 324.358 M281.4587 332.3278 L282.3119 332.2813 L282.3403 332.8458 L281.4858 332.8829 L281.4587 332.3278 M289.8913 172.6273 L289.934 171.7059 L290.0561 171.3239 L290.4022 171.0395 L292.9162 170.485 L293.2661 170.6059 L298.2304 169.6942 L300.6493 169.5655 L301.2777 169.3408 L301.1549 173.1453 L290.1749 173.7602 L289.9511 173.4723 L289.8913 172.6273 M292.4277 299.3538 L292.4571 299.1888 L292.5754 299.0556 L292.7286 298.9685 L292.921 299.003 L293.0431 299.1617 L293.1217 299.2922 L293.1543 299.4781 L293.2096 299.7205 L293.2967 300.3183 L293.1317 300.4047 L292.8678 300.3566 L292.7083 300.1503 L292.5084 299.6628 L292.4277 299.3538 M294.0369 86.2527 L294.4181 84.7045 L295.2781 84.634 L297.4694 84.8313 L299.4204 85.1751 L300.2515 86.5245 L299.4764 87.9843 L294.9611 87.7339 L294.5314 87.5413 L294.2243 87.2459 L294.0864 86.773 L294.0369 86.2527 M294.8577 93.1421 L295.7006 91.266 L297.534 90.7435 L298.8325 91.0424 L302.42 92.3487 L301.2848 94.7391 L298.83 93.6205 L296.729 94.0348 L296.0934 93.1421 L294.8577 93.1421 M296.5113 220.8063 L296.5879 220.4491 L296.7373 220.3074 L296.9036 220.343 L297.0395 220.4243 L297.2751 220.6529 L297.3778 220.7253 L297.5154 220.945 L297.5631 221.1456 L297.5511 221.2212 L297.5096 221.3563 L297.3064 221.3722 L297.0244 221.3304 L296.7401 221.1139 L296.5113 220.8063 M296.7853 402.2736 L296.8644 402.0832 L296.9184 402.0344 L297.1746 402.0123 L297.3165 402.0781 L297.3509 402.1397 L297.2625 402.3719 L297.2313 402.4376 L297.1645 402.4322 L296.933 402.4291 L296.7853 402.2736 M298.9731 180.0598 L299.4272 179.2233 L299.9207 179.4914 L299.4669 180.3279 L298.9731 180.0598 M302.6161 395.8413 L302.8048 395.6899 L303.1878 395.669 L303.5786 395.7 L304.5782 395.5715 L304.6472 395.6849 L304.7773 396.9783 L304.5189 397.5743 L304.5742 397.9547 L305.02 398.3773 L305.2437 400.5882 L305.2704 402.1915 L305.1395 402.9191 L304.9444 403.2654 L304.6596 403.3602 L303.8064 403.1675 L303.4003 402.9094 L303.0215 402.1176 L302.9529 400.0805 L303.1574 399.5565 L303.2614 399.0646 L303.0594 398.2825 L303.0532 397.8773 L303.1039 397.623 L302.8173 396.4999 L302.6488 396.0657 L302.6161 395.8413 M308.4445 149.0162 L308.5221 148.7302 L308.8034 148.5167 L309.1701 148.5508 L309.6623 148.6512 L310.1516 148.6361 L310.9415 148.6822 L311.3908 148.9228 L311.759 149.4498 L312.2347 150.4012 L312.5529 150.6085 L312.9851 150.7317 L313.7293 150.6085 L315.5896 150.1706 L316.4559 149.9896 L316.7419 150.1423 L317.1305 150.7441 L317.904 152.2011 L318.1564 152.6061 L318.394 152.7425 L318.8961 152.8719 L319.0021 152.839 L319.0388 152.8331 L319.1342 152.6351 L319.0016 152.0484 L318.9858 151.4552 L318.8481 149.2475 L318.9358 148.9554 L319.5378 147.9641 L319.6292 147.5293 L320.0635 146.7969 L320.5648 146.526 L321.1281 146.6338 L321.746 146.7101 L322.2686 146.8 L322.9877 146.855 L323.3767 146.9643 L323.6251 147.124 L323.6322 147.3235 L323.5962 149.01 L323.6643 149.4777 L324.0265 149.644 L325.8524 150.0071 L326.7686 150.1384 L327.0846 150.3752 L327.3691 150.7581 L327.7908 151.2502 L328.1088 151.8144 L328.1663 152.4534 L327.9792 152.529 L327.7087 152.7467 L327.3601 152.875 L327.1657 153.0044 L327.0873 153.3605 L326.9474 154.2723 L326.6576 155.164 L325.8185 155.3224 L325.225 155.3562 L324.6247 155.4616 L323.968 155.6638 L323.5651 155.9176 L323.2454 156.0172 L322.6941 156.1428 L322.3294 156.2439 L322.1036 156.3602 L321.9446 156.7341 L321.8628 157.0704 L321.6242 157.3432 L321.3564 157.6199 L321.3228 157.9993 L321.4875 158.324 L321.3115 158.7831 L320.8368 159.3876 L320.4799 159.4992 L319.8947 159.7092 L318.9694 160.325 L318.1127 160.7059 L318.0166 160.9399 L317.5607 161.0244 L317.1827 160.8919 L316.859 160.7431 L316.7118 160.7539 L316.2602 161.1112 L315.6517 161.4928 L314.3504 162.4437 L313.6502 162.8913 L313.1675 163.0959 L312.7754 162.7905 L312.6232 162.3236 L312.3449 161.2096 L312.1051 160.5509 L312.1073 159.8673 L311.8667 159.4202 L311.4872 158.9126 L310.79 156.321 L310.5165 155.4313 L310.0745 153.7217 L309.6561 152.4104 L309.2733 151.6206 L308.8388 150.374 L308.4445 149.0162 M332.0426 332.3773 L332.2478 332.0591 L332.5324 331.9577 L332.7775 332.0777 L333.1947 332.641 L333.6026 333.3858 L333.7603 333.9754 L334.2654 335.8828 L334.4399 336.5897 L334.5042 336.7004 L335.1268 337.6899 L335.0653 337.7592 L334.2415 338.0236 L333.7269 337.9427 L333.2876 337.3105 L332.9267 335.9827 L332.6449 334.7868 L332.2898 333.7462 L332.0851 333.0796 L332.0426 332.3773 M352.2437 295.2041 L352.8733 294.5822 L353.5738 293.8438 L354.112 293.1856 L355.1053 291.8617 L356.4299 290.3062 L356.6499 290.1734 L356.6738 290.1591 L357.7698 290.8111 L358.2835 291.0837 L358.3952 291.1182 L358.6175 291.1864 L360.4185 294.7158 L360.2284 294.8045 L359.8271 294.9923 L359.0801 295.1731 L358.2443 295.3753 L356.1054 295.6986 L355.4085 295.7245 L354.7165 295.7505 L353.3605 295.618 L352.4654 295.4012 L352.3115 295.3315 L352.2587 295.3079 L352.2437 295.2041 M353.4969 334.3141 L353.7247 334.0075 L353.9952 333.8314 L354.2715 333.7377 L354.5415 333.977 L354.6578 334.1674 L354.5191 334.788 L354.4973 334.8941 L354.3609 334.9761 L354.3436 334.961 L354.0176 334.7187 L353.4969 334.3141 M362.1224 212.2764 L363.0823 211.4938 L365.2513 214.4984 L365.6069 214.2318 L362.8334 210.3917 L363.2423 209.7696 L364.5579 210.3205 L365.7845 210.7652 L366.9401 210.3205 L368.3445 209.4318 L369.6247 209.3249 L369.9979 209.4674 L373.9267 212.9694 L373.1979 213.6806 L371.1713 211.8851 L369.909 213.4761 L370.1757 213.6806 L371.1713 212.4185 L372.8957 213.9649 L369.2512 218.7474 L367.1357 217.4141 L366.5847 217.805 L365.0556 216.6316 L366.0731 215.3537 L365.7157 215.0883 L364.3446 215.8852 L362.1224 212.2764 M371.7467 298.0419 L372.2093 297.6997 L373.1193 297.2749 L373.3039 297.2652 L373.3516 297.4484 L373.4855 297.429 L373.5005 297.17 L374.3934 296.7471 L375.2252 296.411 L375.5246 298.5434 L376.0576 302.7422 L376.5013 305.6748 L376.484 306.3775 L376.1698 306.4871 L375.0808 306.3047 L374.9276 306.1688 L374.7799 306.1657 L374.4218 306.285 L373.0927 306.0465 L372.7985 305.5687 L372.6092 304.217 L372.1802 300.927 L371.7467 298.0419 M373.0125 214.9938 L373.0909 214.2504 L373.2893 213.9409 L373.6472 213.5996 L373.8152 213.571 L373.9765 213.6643 L374.3997 214.2659 L374.1905 214.6157 L374.0141 214.7955 L373.9272 214.8513 L373.6256 215.0081 L373.4403 215.0279 L373.0125 214.9938 M382.6072 205.0562 L383.2017 204.0583 L384.8043 204.2067 L385.76 204.1505 L386.0285 203.7677 L386.7478 202.4378 L387.3506 201.7548 L389.0464 201.8765 L389.0994 202.0969 L389.0984 202.3793 L388.7003 203.9897 L388.8703 204.025 L389.1745 203.8712 L389.3136 204.0552 L389.2209 204.1799 L389.0923 204.7176 L388.9489 205.1535 L388.6184 205.4312 L388.1424 205.659 L388.0802 205.6408 L386.3472 207.1954 L385.0718 206.8731 L384.9357 206.5148 L384.1129 206.0468 L383.4526 205.6331 L382.6072 205.0562 M388.9348 327.8726 L389.1614 327.0406 L389.6961 327.487 L390.0178 327.89 L391.3271 329.9008 L390.2019 330.5404 L389.6265 330.7754 L389.1094 328.8567 L388.9348 327.8726 M389.3505 336.2893 L389.8568 336.1766 L390.5541 336.2192 L390.9559 336.2095 L391.148 336.0586 L391.905 336.6338 L392.2481 336.7736 L392.5721 336.9269 L392.7168 337.1274 L392.7647 337.3841 L392.1906 339.7827 L392.0813 340.5759 L391.3397 342.2811 L390.8996 340.9421 L390.1103 338.6933 L389.3505 336.2893 M389.6727 326.2872 L389.7682 326.0514 L390.2424 325.8133 L391.1553 325.3848 L391.4027 325.4223 L391.7533 326.0642 L392.016 327.5102 L392.2657 328.9477 L392.3928 329.2574 L393.1563 330.5241 L394.3465 332.4118 L394.9596 333.4404 L395.1557 333.7776 L395.1238 334.0637 L394.7793 334.325 L394.1687 334.7098 L393.8706 334.7814 L393.6232 334.6486 L393.469 334.2387 L393.4311 333.1078 L393.1332 331.7339 L393.0164 331.1702 L392.1918 329.648 L391.3103 328.4332 L390.5734 327.4889 L389.6727 326.2872 M389.7338 332.3506 L392.2956 331.1486 L392.4505 331.6472 L392.6153 332.4671 L392.7924 333.9998 L392.9398 336.364 L392.4543 336.0435 L391.6207 335.4198 L390.3295 333.1078 L389.791 332.6344 L389.7338 332.3506 M390.8816 203.4919 L391.1038 203.4524 L392.2883 203.1243 L392.7733 203.1274 L393.5714 203.9824 L393.6259 204.1644 L393.3414 204.3082 L392.9225 204.4926 L392.3594 204.677 L391.9402 204.7382 L391.4537 204.7494 L391.1827 204.6975 L391.0202 204.4957 L390.9446 204.1199 L390.8816 203.4919 M391.6504 343.4777 L392.8401 340.3668 L393.1771 340.8523 L393.7797 341.8863 L394.235 342.4844 L394.1152 342.9377 L394.0127 343.1998 L394.1657 343.578 L394.2835 343.7367 L394.178 343.9279 L394.1376 344.0851 L394.1062 344.3746 L394.1077 344.6278 L393.9537 344.8717 L393.7003 345.373 L393.5039 345.8309 L393.3298 346.3241 L393.3032 346.6481 L393.2063 346.729 L393.0031 346.6493 L392.7615 346.4917 L391.6504 343.4777 M392.1677 326.897 L392.4847 327.5578 L392.8263 328.2187 L393.1806 328.6352 L393.6059 328.9984 L393.9921 329.4835 L394.5967 330.0955 L395.1 330.8462 L395.3225 331.3506 L395.6164 332.1168 L395.6131 332.3847 L395.6468 332.8829 L395.6613 333.5631 L395.6033 334.0815 L395.4694 334.126 L395.1191 333.2464 L394.1232 331.7157 L392.8388 329.6678 L392.5445 329.0921 L392.3996 328.3972 L392.1677 326.897 M392.2089 208.1294 L392.228 208.0577 L392.2624 208.0229 L392.4493 207.8807 L393.2974 206.975 L393.4856 206.7844 L393.6669 206.6581 L394.061 206.5469 L394.7549 206.5729 L395.435 206.6635 L396.085 206.6918 L396.2917 206.908 L396.4334 207.2535 L396.3417 207.9287 L396.3786 208.7151 L396.3214 209.4713 L394.7654 209.039 L394.5346 208.982 L393.3625 208.5978 L392.9044 208.406 L392.2343 208.2011 L392.2089 208.1294 M392.8122 339.91 L393.2125 339.0425 L393.5772 338.511 L394.5223 339.1253 L395.2999 339.6034 L395.9507 340.2151 L396.0534 340.3688 L395.368 341.4469 L395.1987 341.4399 L394.9051 341.4721 L394.4219 341.7187 L394.2257 342.1553 L394.1383 342.1921 L394.1152 342.1751 L393.8236 341.8023 L392.8652 340.1357 L392.8122 339.91 M393.6463 347.3685 L393.9987 346.1263 L394.4889 345.272 L394.8827 344.2302 L395.0477 344.0719 L395.3202 344.0886 L395.5629 343.9542 L395.747 343.8919 L395.9888 343.6213 L396.235 343.2865 L396.4218 343.0348 L396.741 342.8618 L397.1668 342.4371 L397.8748 342.0473 L398.1784 342.081 L398.4878 342.1344 L398.8068 342.4712 L399.1567 343.0585 L399.1481 343.4835 L398.8844 344.0878 L398.4564 344.7687 L398.2846 344.987 L397.7951 345.3591 L397.6068 345.608 L397.446 346.4004 L396.6727 347.4854 L396.0722 348.0676 L395.4365 348.4079 L394.3314 348.7814 L394.0167 348.7919 L393.8643 348.742 L393.7194 348.6111 L393.9185 348.363 L393.9047 348.1818 L393.6463 347.3685 M394.8338 349.0543 L395.8241 348.7447 L397.3873 347.5532 L398.4861 346.2993 L401.4887 350.0914 L401.0243 350.9887 L400.5134 351.8399 L400.2505 352.5212 L399.5849 352.5676 L396.8767 350.7723 L395.3753 349.534 L394.8338 349.0543 M398.9658 345.9126 L401.2719 344.2411 L403.516 346.7948 L403.0672 347.3519 L403.0051 347.8934 L401.3648 349.1782 L398.9658 345.9126 M399.6256 342.609 L400.2163 342.5962 L400.5518 342.4546 L400.7477 342.5169 L401.0253 342.7457 L401.3601 342.8746 L401.6527 343.2063 L401.6522 343.487 L401.5308 343.6457 L400.8834 344.1114 L400.5737 343.8253 L400.5441 343.5555 L399.9091 343.0766 L399.6256 342.609 M421.7231 195.4908 L421.7763 195.4629 L422.3364 195.1723 L422.6787 194.9182 L422.6976 194.8899 L422.8025 194.7311 L422.694 194.363 L422.461 193.725 L422.1357 192.694 L422.0461 192.3182 L422.132 192.0691 L422.641 191.4779 L423.1974 190.8716 L423.7813 190.0576 L423.9797 189.8035 L424.1744 189.8879 L424.2464 190.335 L424.2208 190.7155 L424.2379 191.1002 L424.5267 192.195 L425.2797 193.6835 L425.4487 194.3324 L425.7122 195.0918 L425.7855 195.5985 L425.7102 196.2563 L425.6293 196.6352 L425.6155 196.7003 L425.0316 197.1509 L423.8521 197.7045 L423.008 198.1004 L422.8108 197.9458 L422.5368 196.8588 L422.6081 196.6151 L422.6709 196.4613 L422.6046 196.3195 L422.3105 196.2284 L422.0227 196.2284 L421.874 195.9638 L421.7231 195.4908 M426.9903 209.8339 L427.8073 209.0281 L428.1386 207.7548 L428.6635 207.1396 L429.8025 206.2556 L430.0303 206.254 L430.4912 206.6724 L430.8159 206.9839 L430.8431 207.0327 L430.7451 207.2376 L430.3744 207.4368 L429.1437 208.5869 L428.2464 209.2001 L427.1767 209.8839 L426.9903 209.8339 M427.2048 212.2473 L427.3502 211.8545 L427.3892 211.7937 L427.6418 211.2723 L428.2722 210.6606 L428.4433 210.5386 L428.9742 210.0997 L429.2372 209.6259 L429.5654 209.4244 L429.862 209.5348 L430.0057 209.8211 L430.284 210.6617 L430.4163 211.3602 L430.5314 211.5113 L431.1811 211.4168 L431.7482 211.1034 L432.3292 210.7307 L432.6351 210.2988 L432.9686 210.25 L433.2265 210.5184 L434.0458 211.4412 L435.1353 212.2895 L435.3084 212.6351 L435.336 212.8257 L435.0615 213.1131 L434.6368 213.4575 L434.5695 213.4854 L434.2402 213.5059 L434.0074 213.3091 L433.2115 212.0424 L432.9465 211.7995 L432.7215 211.8324 L432.5399 211.9866 L432.5404 212.166 L433.2891 213.1069 L433.3144 213.2824 L432.9407 213.6953 L432.6162 213.9219 L432.4201 213.9762 L432.1343 213.9409 L431.9984 213.884 L431.0889 213.0937 L430.8895 213.1228 L429.7204 212.1036 L428.279 213.1514 L427.8872 213.3525 L427.2643 212.5839 L427.2048 212.2473 M427.8837 216.1377 L429.6619 214.3473 L429.6594 214.3442 L430.7285 213.2828 L430.9867 213.478 L431.9919 214.3349 L431.5963 214.9698 L431.0844 215.1921 L430.4902 215.8631 L430.3317 216.1009 L430.1745 216.4441 L429.3253 216.5681 L428.6429 216.6289 L428.3122 216.5503 L428.0442 216.3256 L427.8837 216.1377 M430.169 208.7822 L430.2621 208.5292 L430.5545 208.3917 L430.9822 208.1461 L431.2047 208.1313 L431.3788 208.0496 L431.5644 208.1457 L431.8386 208.5826 L432.4585 209.4643 L432.6396 209.7127 L432.2737 209.8769 L432.2056 209.8587 L432.1056 209.8734 L431.1397 210.6033 L430.9862 210.6002 L430.8431 210.4928 L430.169 208.7822 M431.1266 201.3883 L431.3145 200.5101 L431.8688 199.5636 L432.1935 199.1483 L432.4291 198.8942 L432.6097 198.7908 L432.8317 198.8531 L433.2964 199.1743 L433.6816 199.4346 L434.2179 199.4575 L434.5142 199.1972 L434.8761 198.8954 L435.0974 198.8454 L435.1077 198.9705 L435.1203 199.1247 L433.9451 201.9284 L433.6884 202.4978 L432.8282 204.4054 L432.676 204.4453 L432.4364 204.1269 L432.2159 203.562 L431.9085 202.5439 L432.124 202.3351 L432.1481 202.1372 L432.0936 202.0039 L431.8916 201.945 L431.3255 201.6979 L431.1266 201.3883 M432.2299 206.7007 L432.2463 206.4512 L432.5549 206.0352 L432.9292 205.3444 L433.4772 204.2752 L434.1596 203.5047 L434.7935 203.1801 L435.2491 202.9217 L435.5932 202.8717 L435.9559 202.9922 L436.0731 203.0313 L436.1676 203.0305 L436.4594 203.0278 L436.7344 202.8643 L437.0182 202.3987 L437.2262 202.0151 L437.4274 201.8269 L437.6708 201.809 L438.0133 201.9888 L438.5149 202.1197 L438.916 202.0337 L439.2088 202.1147 L439.3754 202.4134 L439.7963 202.6055 L440.3637 202.5649 L440.5083 202.4731 L440.8474 202.1565 L441.0378 201.8226 L441.0983 201.4507 L441.3168 200.4117 L442.4864 199.146 L443.2113 198.0865 L444.0323 196.9653 L444.4738 196.6182 L445.3599 196.0646 L446.4489 195.0929 L446.7453 194.5904 L447.5593 193.7823 L450.005 191.7468 L450.9625 191.0769 L451.4587 190.987 L452.4008 191.0618 L453.6903 191.3508 L455.9105 191.7979 L456.234 192.5286 L456.3543 193.3596 L455.1646 193.1915 L455.0766 192.5108 L454.7152 191.8103 L453.0159 191.734 L453.8482 193.6754 L452.2454 195.2026 L451.3407 196.1122 L450.8118 196.9494 L450.4747 197.8827 L450.1849 198.6842 L449.9337 199.6419 L448.9401 203.4311 L447.6957 206.6744 L447.1667 208.0384 L446.908 208.8004 L446.7875 209.5283 L446.585 211.1793 L446.5647 211.2328 L446.3904 211.7007 L446.3118 211.961 L446.0199 212.2508 L444.9588 212.6881 L444.4583 212.8168 L444.357 212.6831 L443.747 212.0188 L442.9722 210.986 L442.2097 211.4598 L441.6091 212.1818 L440.9687 213.2762 L440.6595 213.6117 L439.6577 213.5125 L438.641 213.3265 L437.6733 212.9713 L437.611 212.8365 L437.6012 212.8129 L440.0595 212.3627 L440.1959 212.2593 L440.0972 212.2589 L440.2449 212.1187 L439.9786 210.8613 L440.4259 208.7651 L440.1223 208.7283 L439.5695 209.0061 L439.196 208.8283 L438.7884 209.154 L437.8649 209.5713 L437.5497 209.6491 L437.3395 209.7254 L437.4053 210.057 L437.1451 210.2957 L436.9708 210.5219 L436.4433 211.0491 L435.7401 211.478 L435.6846 211.5047 L435.4011 211.1944 L435.23 210.9833 L435.0087 210.5227 L434.9796 210.2488 L435.1243 210.059 L435.4726 209.7963 L435.5884 209.7851 L435.8366 209.7611 L435.9802 209.5259 L435.9247 209.402 L435.8474 209.2296 L435.1193 208.5838 L435.0283 208.5032 L434.6107 208.456 L434.2734 208.4521 L434.0473 208.4498 L433.6904 208.2898 L432.9724 207.4581 L432.4816 206.982 L432.2299 206.7007 M434.0119 202.8725 L434.4027 202.107 L434.5763 202.0376 L435.4412 201.6917 L435.8572 201.5111 L436.4022 201.3225 L436.5039 201.1776 L436.3449 201.1493 L435.434 201.4767 L435.0211 201.6777 L434.7355 201.6386 L434.8023 201.1536 L435.064 200.3598 L435.2694 199.6682 L435.4824 199.3192 L435.6296 199.2448 L435.9099 199.299 L436.427 199.411 L436.6242 199.559 L436.9236 200.1692 L436.9808 200.5694 L436.9532 200.7425 L436.7932 200.9947 L436.9231 201.0672 L437.1401 201.0559 L437.2224 201.5034 L437.1024 201.6448 L437.071 201.6669 L436.7538 201.9074 L436.6094 202.1228 L436.31 202.3607 L436.0322 202.3836 L435.9212 202.3468 L435.7954 202.2061 L435.5224 202.1399 L435.2423 202.2693 L434.1767 202.9189 L434.0119 202.8725 M436.9484 199.3529 L437.0308 199.1224 L437.2275 198.9775 L437.4337 198.8404 L438.1515 198.5033 L438.5511 198.3995 L439.0157 198.3545 L439.5886 198.4336 L439.7137 198.4037 L440.1582 197.837 L440.9011 197.0773 L441.2982 196.8797 L441.7347 196.8708 L442.2996 197.2101 L442.5984 197.0098 L443.0118 197.073 L443.258 197.1962 L443.31 197.3124 L443.0339 197.9532 L441.8703 199.5361 L440.9285 200.5213 L439.9184 201.6758 L439.4391 201.7633 L438.8414 201.7618 L438.4395 201.4143 L438.1291 201.2121 L438.3464 200.8921 L439.1825 199.8747 L439.9904 199.0007 L440.0449 198.8834 L439.9751 198.7915 L438.7763 200.0886 L437.9779 200.7751 L437.5808 201.3097 L437.4357 201.2779 L437.398 201.0184 L437.6082 200.5287 L437.7828 200.2904 L437.7145 200.1982 L437.2852 200.0719 L437.1298 199.8829 L436.9484 199.3529 M440.7278 216.5882 L445.9855 213.4912 L447.1085 212.245 L456.0665 209.4384 L451.5358 206.3931 L456.6534 198.3301 L456.9337 197.0687 L455.3155 196.4865 L456.0695 193.3426 L456.5534 193.4154 L456.4914 192.9865 L456.4331 192.5844 L456.3151 192.3178 L456.4535 191.7406 L457.1816 191.4117 L457.975 191.0665 L458.0232 191.0211 L458.6727 190.7201 L459.4337 188.8016 L462.6992 194.6524 L465.9457 195.1173 L466.654 190.8809 L466.393 189.4319 L465.9982 189.5354 L463.6519 185.9001 L462.9984 186.253 L461.2697 184.2457 L462.5624 180.8374 L463.0004 179.9796 L463.6913 179.1532 L464.594 178.5678 L470.5702 176.3147 L471.1024 176.4631 L470.5449 178.6851 L471.7544 179.8452 L475.4505 182.0482 L476.5666 182.5468 L475.3934 183.4759 L472.9414 185.8672 L472.8201 186.0694 L472.1184 187.1976 L471.0665 189.9584 L471.6743 190.8251 L472.1849 194.375 L474.5244 193.725 L475.7664 193.3135 L480.4801 202.1705 L475.4261 203.5245 L471.4726 204.7998 L477.1618 216.2741 L464.7025 221.7557 L462.2381 215.2251 L451.2181 218.3016 L452.5236 220.1129 L449.7016 221.765 L454.2134 223.268 L453.9773 223.7785 L459.6369 226.0186 L460.3758 227.8252 L456.0765 229.918 L453.9731 225.1904 L449.5921 224.0214 L451.2324 228.5933 L449.8232 229.1375 L451.0797 233.564 L453.1169 232.7809 L455.0362 239.4116 L450.639 240.5983 L448.5102 234.6652 L450.8798 233.6923 L449.6132 229.299 L447.9855 223.6782 L445.7183 224.7891 L440.7278 216.5882 M461.6004 187.2991 L461.6436 187.0109 L462.0176 186.6618 L462.6817 186.3751 L463.3415 186.2395 L463.6197 186.4022 L464.0221 186.835 L464.5558 187.4975 L465.042 188.3308 L465.5386 189.5036 L465.5604 189.8806 L465.2502 190.0832 L464.5638 190.1239 L463.8719 189.812 L463.2905 189.497 L462.4544 188.9112 L461.9566 188.3153 L461.715 187.7737 L461.6004 187.2991 M461.9435 362.4026 L461.9809 362.2347 L462.2215 362.0845 L462.5089 362.1046 L462.8432 361.4234 L463.3949 360.5788 L463.8224 360.6031 L464.1527 360.7406 L464.3147 360.3186 L464.2027 359.9737 L463.8109 359.7566 L464.109 359.4272 L464.485 358.8624 L464.7042 358.2985 L464.8635 358.2876 L464.9981 358.1069 L464.9388 357.954 L465.0571 357.7984 L465.5037 358.0562 L465.5742 359.3506 L465.4343 359.4949 L465.4685 360.0732 L465.632 360.3469 L465.7136 360.8787 L465.6202 361.2917 L465.4549 361.6664 L465.4037 362.086 L465.4517 362.4166 L465.6297 362.6159 L466.4965 362.6771 L466.9918 363.0065 L467.159 363.1323 L467.4448 363.3831 L467.5214 363.3939 L467.6212 363.5581 L467.643 363.7268 L467.8454 364.0082 L467.9924 364.2494 L468.51 367.0254 L468.9937 369.6195 L469.0718 369.8866 L469.0517 370.1103 L468.7561 370.2601 L468.7396 370.2686 L468.2709 370.1114 L464.2552 367.1133 L463.6531 366.4169 L463.4223 366.1901 L463.3985 365.7663 L463.1606 365.6626 L462.8007 364.7173 L461.9435 362.4026 M465.6385 358.0314 L465.7993 357.8162 L465.736 357.5084 L466.2308 357.3555 L466.2471 357.6203 L466.3508 358.0008 L466.714 357.9373 L466.9164 358.305 L467.2339 358.3573 L467.2896 357.8882 L466.8378 357.162 L466.7876 356.6727 L466.8441 356.4691 L467.0184 356.3743 L468.1059 357.0768 L469.5008 358.0426 L471.4518 359.4098 L471.8757 359.7609 L472.3439 360.6778 L472.4411 361.0057 L472.4903 361.1725 L472.4582 362.753 L472.3439 362.9949 L472.2191 363.1632 L472.0372 363.4524 L472.0144 363.7648 L472.0121 363.7938 L472.149 364.2242 L468.9026 364.4715 L468.4377 364.3519 L468.0499 364.1317 L467.2065 362.8048 L466.111 361.1632 L465.9073 360.4862 L465.9844 360.0779 L466.023 359.6625 L465.8874 359.3227 L465.6385 358.0314 M480.7516 282.5392 L480.8614 282.3049 L481.117 282.1798 L483.1956 282.6023 L483.8918 282.7824 L484.3833 282.8339 L484.5863 282.9028 L484.7111 282.9903 L484.9289 283.1572 L485.079 283.4856 L485.0142 283.8713 L484.5634 283.9088 L484.1563 283.8345 L483.5955 283.7896 L482.7644 283.963 L481.8939 284.178 L481.0136 284.3042 L480.9475 284.2728 L480.7516 282.5392 M488.388 194.7892 L488.5859 194.2662 L490.4272 195.3234 L490.5085 195.3703 L490.5676 196.1196 L490.4847 196.4171 L489.9512 196.3284 L489.4861 196.1622 L489.1347 195.8627 L488.388 194.7892 M491.6237 218.171 L491.6503 217.9417 L491.8266 217.5079 L493.8236 215.012 L494.1563 214.9276 L494.4592 215.0178 L494.6717 215.0992 L494.6988 215.117 L494.9399 215.2259 L494.9909 215.3537 L493.488 217.5935 L493.104 218.142 L492.6901 218.6037 L492.5098 218.7637 L492.4558 218.7684 L492.2116 218.7893 L491.6237 218.171 M492.9962 218.7176 L493.0967 218.3825 L493.5387 217.6531 L494.9781 215.5733 L495.1316 215.3692 L495.432 215.2611 L495.7833 215.0081 L495.9637 214.9105 L496.1839 214.9651 L496.5381 215.2088 L497.6929 215.3324 L497.8584 215.3982 L497.9056 215.5706 L497.8406 215.7372 L496.638 217.0717 L496.3612 217.4393 L496.3391 217.9177 L496.1332 218.1447 L495.9162 218.4616 L495.4639 218.6119 L494.4715 218.7362 L493.9203 218.8536 L493.2989 219.0163 L493.0284 219.026 L492.9962 218.7176 M495.4935 222.4328 L495.6271 221.9707 L495.7813 221.858 L495.9481 221.8336 L496.1126 221.9304 L496.2168 222.0152 L496.3434 222.2085 L496.4311 222.5378 L496.2743 222.7718 L495.9408 222.9612 L495.6334 222.9155 L495.5206 222.6904 L495.4935 222.4328 M497.8546 265.5953 L497.8554 263.8351 L498.0668 262.4452 L498.1849 262.4018 L498.478 262.3917 L499.1177 262.4463 L499.832 262.7465 L500.0266 262.8692 L500.0013 263.011 L499.2254 264.3452 L498.6448 265.7165 L498.5481 265.9078 L498.4006 265.9295 L497.99 265.8052 L497.9182 265.7173 L497.8546 265.5953" stroke-dasharray="" fill="none" fill-opacity="1.0" stroke="#ff0000" stroke-opacity="1.0" stroke-width="1.0px" stroke-linecap="butt" stroke-linejoin="miter" stroke-dashoffset="0.0px"/>
</g>
</svg>