<?xml version="1.0" standalone="no"?>
<!DOCTYPE svg PUBLIC "-//W3C//DTD SVG 1.1//EN" "http://www.w3.org/Graphics/SVG/1.1/DTD/svg11.dtd">
<svg width="512px" height="512px" version="1.1" xmlns="http://www.w3.org/2000/svg" xmlns:inkscape="http://www.inkscape.org/namespaces/inkscape">
<g id="layer" inkscape:groupmode="layer" inkscape:label="layer">
<path d="M15.5327 44.0082 L15.5741 47.2455 L17.025 56.8292 L17.9577 59.9383 L22.02 68.7206 L23.7818 71.4451 L30.1655 78.721 L32.6112 80.8365 L40.7567 86.061 L43.6998 87.4072 L52.9852 90.0996 L56.1771 90.5484 L65.8563 90.5484 L69.0482 90.0996 L78.3336 87.3752 L81.2767 86.029 L110.7082 103.3052 L109.9413 108.658 L111.0812 122.8892 L116.7395 136.6076 L108.9879 142.7617 L109.9413 143.5309 L109.2159 156.8006 L108.3039 173.4998 L139.2691 174.9101 L139.8909 206.6739 L142.0257 211.7702 L147.3938 209.3021 L145.259 269.1755 L142.7511 269.1435 L142.689 272.1884 L145.1761 272.2525 L145.1347 274.0795 L135.9943 272.7653 L133.7973 288.0862 L144.658 289.6568 L144.4921 295.5543 L114.2938 282.0925 L109.9827 292.5735 L97.2568 286.8362 L95.7852 290.1375 L95.5572 289.8811 L93.6296 288.7914 L92.9249 288.8555 L92.0959 291.9645 L91.4534 292.1568 L89.8989 291.1311 L89.0698 291.1953 L87.9506 293.7915 L82.2923 291.2914 L73.1105 298.9198 L65.3589 305.3622 L65.6076 306.0033 L69.2347 307.2854 L67.8046 310.3944 L68.3227 310.9393 L70.6026 311.6765 L70.6856 312.1893 L54.975 347.3182 L55.3066 347.7349 L140.0153 385.2356 L130.5018 406.9987 L170.3172 425.0439 L166.0061 434.8197 L216.2261 457.7046 L226.2162 435.6851 L263.648 452.4801 L262.7982 454.3391 L287.4626 465.6213 L287.2139 466.1662 L342.8435 491.0703 L343.1544 490.3972 L367.9017 501.455 L368.8551 499.3396 L396.9186 512.0 L421.0441 456.5187 L421.2513 456.3904 L431.9254 461.1341 L441.4803 439.4672 L432.7752 435.3966 L448.921 406.8385 L496.4673 298.6634 L483.8035 293.0222 L485.2336 289.817 L471.72 283.5989 L471.2848 283.5989 L469.8547 286.8362 L469.1707 287.0285 L436.2779 271.9961 L435.8634 271.6756 L423.8007 298.9518 L416.6708 295.7787 L414.3287 301.0352 L413.3339 299.9134 L412.8986 299.2724 L412.1939 298.9198 L410.9089 298.1185 L409.5202 297.5095 L408.8362 297.3172 L408.0486 297.0928 L406.5563 296.9326 L405.0433 296.9967 L403.551 297.2531 L402.1002 297.7659 L400.7737 298.4711 L399.5508 299.3685 L399.2606 299.9134 L398.473 300.4583 L397.5611 301.6763 L396.8564 303.0224 L396.7113 303.343 L396.359 304.4007 L396.0481 305.843 L395.9652 307.3174 L396.0895 307.9264 L396.0895 308.7597 L396.4419 310.2021 L396.9807 311.5803 L397.7062 312.8303 L398.2658 313.7599 L398.6181 314.0163 L399.6752 315.0099 L400.8566 315.8753 L402.1623 316.5484 L402.2452 316.8689 L403.551 316.9971 L405.0019 317.2856 L406.4734 317.3497 L407.9243 317.1894 L409.3544 316.8048 L410.7016 316.2599 L411.4063 316.2279 L415.0541 318.1189 L415.2199 318.6638 L407.6963 335.2667 L393.2293 329.0486 L393.2293 329.914 L385.1045 348.0234 L329.9724 322.8947 L295.8775 307.5097 L295.0692 307.1251 L283.7733 302.3814 L282.737 302.0609 L255.9585 361.998 L257.6167 362.3506 L265.2232 366.1647 L263.9797 368.9532 L267.8969 370.7481 L263.7309 380.2355 L238.4655 369.0814 L250.1137 342.5425 L215.7287 327.2537 L152.0158 298.8877 L152.1816 290.7786 L152.4925 275.1372 L152.5547 272.4448 L155.6844 272.5089 L155.788 269.464 L152.6169 269.3678 L153.3838 250.5853 L155.2491 205.6482 L158.2337 204.27 L158.5653 186.7694 L160.6173 186.9618 L162.3168 156.5762 L171.9546 153.9479 L182.4836 148.0183 L190.857 139.2359 L197.6346 125.1329 L199.4792 109.5554 L196.3081 94.7152 L188.7429 82.407 L175.3952 71.7977 L162.1717 67.3424 L162.7313 65.1628 L150.9173 64.7782 L151.1039 66.9257 L146.9586 67.3424 L145.8808 61.1242 L108.2625 39.008 L106.0447 39.2965 L104.7597 32.9821 L99.5574 21.1547 L91.2876 11.2505 L80.572 4.1027 L68.2813 0.2564 L55.4102 0.0 L42.9951 3.3655 L32.0102 10.1286 L23.3465 19.6803 L17.709 31.2833 L15.5327 44.0082" stroke-dasharray="" fill="none" fill-opacity="1.0" stroke="#ff0000" stroke-opacity="1.0" stroke-width="1.0px" stroke-linecap="butt" stroke-linejoin="miter" stroke-dashoffset="0.0px"/>
</g>
</svg>