<?xml version="1.0" standalone="no"?>
<!DOCTYPE svg PUBLIC "-//W3C//DTD SVG 1.1//EN" "http://www.w3.org/Graphics/SVG/1.1/DTD/svg11.dtd">
<svg width="512px" height="512px" version="1.1" xmlns="http://www.w3.org/2000/svg" xmlns:inkscape="http://www.inkscape.org/namespaces/inkscape">
<g id="layer" inkscape:groupmode="layer" inkscape:label="layer">
<path d="M0.0 171.4358 L2.4203 181.2305 L7.9771 179.7757 L12.2641 178.6423 L12.0796 177.1705 L16.6922 175.9526 L41.2205 229.324 L44.4222 236.412 L54.342 257.9465 L10.6253 285.5878 L9.1167 286.6704 L21.9994 307.3421 L38.887 296.3127 L33.3519 286.958 L60.3004 270.0079 L65.0433 279.8532 L65.1952 279.7517 L65.7704 280.9527 L65.3906 281.308 L69.9489 288.6835 L70.383 288.3113 L73.6716 293.8937 L75.6034 292.7603 L81.4316 302.5548 L80.8889 302.8424 L81.6595 304.2464 L82.0068 304.0604 L83.2115 306.0734 L82.9836 306.547 L83.8193 307.9173 L84.2534 307.8327 L85.4799 309.8795 L86.7063 311.9264 L86.3807 312.1632 L87.2706 313.6688 L87.6179 313.4658 L88.9312 315.648 L88.6164 315.851 L89.4304 317.1197 L90.0273 316.7306 L95.8664 326.6943 L94.0973 327.76 L102.7907 339.6182 L102.4434 339.872 L104.9288 343.1199 L110.1926 349.9879 L83.993 369.6275 L77.5679 359.7992 L61.071 371.5728 L73.8127 391.9737 L96.3873 377.0029 L107.3382 369.6275 L110.8764 371.1669 L115.489 373.3321 L116.2161 372.8416 L141.4173 359.241 L136.4574 353.8109 L162.8415 341.479 L197.5501 343.1537 L266.8478 341.2084 L266.8369 341.9696 L268.8882 342.0203 L268.9099 341.09 L272.5457 340.887 L329.5685 292.8449 L330.4476 293.9106 L331.6197 292.5066 L331.9996 292.7603 L337.5781 286.2983 L338.9999 286.2475 L340.3348 284.5051 L339.9984 284.2683 L352.371 269.6526 L353.1959 268.6715 L350.2221 266.0664 L349.343 266.9968 L341.952 260.89 L352.5338 248.2196 L355.8549 245.4453 L358.5248 243.1785 L380.7413 227.091 L386.0268 242.9586 L383.498 243.7368 L388.6208 257.3375 L390.8565 256.5086 L406.6805 250.6894 L409.7302 249.5729 L406.5937 241.4192 L403.6416 242.6541 L402.3935 239.3554 L404.7703 236.6996 L406.1595 235.8537 L410.0124 233.164 L417.1647 229.8992 L419.5958 235.4477 L420.8656 237.0717 L423.2425 238.628 L426.1511 239.034 L427.8334 238.6788 L428.8861 238.222 L430.2102 237.2578 L431.4475 235.8199 L432.1204 234.4666 L432.5003 232.9272 L432.446 230.9311 L432.1747 229.9499 L429.2117 223.7078 L452.1554 213.1181 L455.9215 219.8677 L466.9049 213.7271 L463.6815 207.8909 L470.1283 203.9155 L491.8239 190.5177 L492.3014 191.262 L508.744 182.0763 L509.341 183.1928 L510.1332 182.6346 L510.5457 183.362 L511.3488 182.8714 L510.9689 182.1948 L512.0 181.6873 L511.5116 180.7399 L508.6464 175.4281 L507.2029 172.7723 L506.1935 173.2797 L502.6662 167.0714 L501.1794 166.2086 L498.325 168.3909 L498.987 170.1502 L497.2288 170.9283 L496.2629 169.0168 L491.5634 170.6577 L492.0735 172.1971 L490.2827 172.823 L489.6098 171.1652 L484.7585 172.7046 L485.7352 175.7496 L486.8423 175.4789 L488.9695 182.0087 L488.1338 184.8676 L485.4856 186.0855 L483.0871 184.5631 L481.4808 180.4016 L463.052 187.3712 L454.5974 163.1129 L455.4765 161.9457 L453.8594 157.9703 L451.2763 151.2882 L454.847 149.8842 L453.7074 146.9745 L450.1367 148.3786 L448.4545 144.1833 L452.0035 142.7284 L450.8205 139.8357 L447.2715 141.2905 L444.2434 133.3228 L445.0791 131.2252 L443.5488 130.4977 L442.1162 133.289 L436.6353 135.4881 L436.44 134.8961 L428.1698 137.941 L428.4086 138.4147 L423.058 140.394 L422.2657 138.4316 L422.7866 138.2286 L419.9431 130.9883 L419.4222 131.1913 L419.2702 130.853 L394.9699 140.8169 L385.0609 144.8768 L388.3169 153.9272 L398.5189 149.9857 L401.5578 157.8011 L401.0368 158.021 L401.6989 159.7973 L402.1438 159.6281 L405.1285 167.4774 L404.6944 167.6465 L405.161 169.1183 L405.6277 168.8814 L408.2651 175.868 L407.7115 176.1386 L408.0154 176.866 L400.1034 179.8941 L399.2135 177.5089 L397.3576 178.2025 L398.2584 180.5877 L382.836 186.5085 L381.9135 184.0387 L379.9599 184.7661 L380.8933 187.2359 L365.5468 193.1228 L363.1049 186.5254 L362.432 186.61 L360.6412 184.7999 L358.2101 186.0686 L352.6858 175.6988 L351.047 172.5862 L350.0702 173.229 L332.9221 182.2117 L333.3562 183.1082 L334.8431 185.7303 L336.5362 188.9275 L344.4482 203.6787 L351.5028 216.8566 L342.2016 224.672 L347.7801 231.9291 L345.7072 233.6377 L343.6234 235.3632 L344.09 235.9045 L317.4454 265.3897 L316.8376 265.1021 L316.7725 264.3071 L314.9926 264.8315 L315.5895 266.4724 L314.3089 267.7411 L312.67 267.3351 L312.377 269.4835 L312.8762 269.6188 L300.0043 283.524 L299.7221 283.0673 L297.8337 283.7101 L298.5066 285.2156 L297.2693 286.4336 L295.3049 286.2306 L295.001 288.2436 L296.1297 288.2098 L296.4553 288.9541 L270.972 311.0299 L260.9762 313.9564 L260.9653 312.5861 L260.1839 312.2647 L250.5788 313.2628 L250.2098 313.5335 L250.2532 315.242 L232.4323 317.0182 L230.0337 306.1241 L227.9716 306.6147 L226.4847 301.4214 L215.7292 304.9062 L203.7798 278.3476 L169.9504 195.3727 L166.5207 187.1682 L155.5482 159.4251 L173.1629 156.6508 L174.6932 162.9099 L181.4005 161.6581 L179.2516 154.587 L180.3043 154.3332 L175.7894 136.4186 L173.0869 125.9472 L172.935 125.3382 L170.3194 125.7273 L127.9484 134.507 L127.8833 133.6104 L124.0087 134.1686 L124.0739 135.1329 L107.7181 137.9918 L105.6668 123.5958 L104.8854 120.0263 L101.2821 121.1767 L91.5794 124.3232 L90.1793 124.7461 L89.8537 123.342 L89.1157 123.9172 L88.2257 124.0187 L87.6396 123.6296 L85.8814 124.1878 L84.579 124.3739 L80.0207 124.9322 L78.4144 125.4735 L77.3182 125.4735 L76.3632 126.387 L75.3538 127.3851 L12.3835 139.4128 L12.2316 138.55 L11.9385 137.3659 L6.6313 138.4485 L7.543 143.6927 L10.2671 143.6081 L14.8797 167.4943 L4.0917 170.3532 L0.0 171.4358 M48.3836 192.7845 L79.4997 179.9787 L95.6927 174.3455 L103.507 171.6219 L120.3295 165.7011 L135.7953 198.6207 L138.8776 206.6898 L151.0115 238.4758 L173.3474 280.5806 L164.8602 284.7758 L173.8032 303.333 L164.9145 307.4944 L156.0257 311.6727 L156.0908 312.7384 L159.553 322.2791 L119.1574 338.0281 L118.1914 335.9813 L100.4139 301.4553 L64.2944 225.4671 L48.3836 192.7845 M392.6473 213.5241 L405.5952 208.3984 L407.0929 212.8982 L409.7628 213.8793 L412.3784 212.8982 L412.6498 211.308 L418.8035 209.0243 L417.0236 204.2369 L430.8723 199.1789 L432.8367 203.9155 L434.9748 204.6091 L437.5362 203.6279 L438.361 201.2766 L436.885 196.9798 L453.1648 191.0421 L456.9634 199.2127 L451.8298 202.004 L451.5476 201.5134 L402.2849 226.905 L398.7576 228.7319 L392.6473 213.5241" stroke-dasharray="" fill="none" fill-opacity="1.0" stroke="#ff0000" stroke-opacity="1.0" stroke-width="1.0px" stroke-linecap="butt" stroke-linejoin="miter" stroke-dashoffset="0.0px"/>
</g>
</svg>