<?xml version="1.0" standalone="no"?>
<!DOCTYPE svg PUBLIC "-//W3C//DTD SVG 1.1//EN" "http://www.w3.org/Graphics/SVG/1.1/DTD/svg11.dtd">
<svg width="512px" height="512px" version="1.1" xmlns="http://www.w3.org/2000/svg" xmlns:inkscape="http://www.inkscape.org/namespaces/inkscape">
<g id="layer" inkscape:groupmode="layer" inkscape:label="layer">
<path d="M80.7702 156.2099 L83.3429 161.8473 L83.5645 163.9692 L83.786 166.0854 L86.0507 165.5593 L87.1098 168.1726 L83.5832 169.1786 L82.1749 169.8204 L84.9879 169.8898 L84.7054 172.0238 L84.4628 173.3559 L84.6829 174.2781 L84.8797 174.8233 L86.1356 176.0733 L87.0021 178.1078 L89.6615 179.9816 L91.2223 179.5682 L92.4215 180.3245 L93.4897 179.7804 L93.7762 179.5104 L95.867 177.9471 L108.3709 178.9149 L104.8968 180.8228 L102.7298 183.0603 L102.0538 179.7706 L100.9759 183.2395 L99.0079 185.4827 L98.0464 187.7201 L100.8632 187.8519 L101.1761 187.5686 L101.4897 187.2454 L101.8506 186.8772 L102.2434 186.3927 L102.8136 185.6428 L103.6608 184.8681 L104.2542 184.2472 L104.4698 183.6997 L104.8645 183.169 L105.2037 182.7966 L106.3755 181.9849 L107.0969 181.6687 L107.3786 181.7161 L107.3035 181.8392 L106.7755 182.2491 L106.2827 182.8082 L105.9822 183.5095 L105.5184 184.4981 L105.0437 185.1526 L104.8931 185.411 L111.2215 186.8066 L104.0743 191.1889 L105.7381 195.2358 L104.8217 195.9584 L105.432 200.2526 L105.5751 200.603 L105.5766 201.0366 L105.5503 201.0788 L105.5541 201.1036 L105.5293 201.1129 L105.4925 201.1718 L105.3648 201.2464 L105.266 201.21 L103.9489 201.6968 L105.1853 204.5792 L108.9079 210.6423 L117.0165 219.0822 L118.7573 220.3823 L120.4965 219.5875 L122.4138 220.9101 L126.0099 222.7212 L127.0412 223.3958 L127.4682 223.6079 L127.253 221.5448 L128.5221 221.6107 L128.741 220.2546 L129.1929 219.8227 L130.504 220.2523 L130.6482 219.7996 L132.0224 219.1331 L132.8768 218.9782 L133.3853 218.6545 L132.7856 217.9718 L132.4164 217.348 L132.5354 216.859 L133.3418 216.9116 L133.871 217.3746 L134.7303 217.189 L135.1798 216.4225 L137.7085 216.1167 L137.3747 217.5862 L137.7431 219.0187 L138.9877 221.4731 L139.2551 223.8126 L137.8329 225.3531 L138.6557 230.0654 L138.0627 233.0926 L138.5423 233.3591 L140.1253 231.3105 L152.061 220.8165 L155.3059 220.8165 L155.52 222.5738 L162.1675 222.1865 L163.3205 222.3021 L162.4868 218.5504 L153.6083 219.9493 L152.5905 218.2903 L151.5727 216.6312 L151.7868 211.625 L152.0121 211.2782 L152.3404 211.2909 L152.4756 211.1492 L152.6893 210.9342 L153.6526 210.9446 L154.2588 210.955 L155.5605 211.0296 L156.4318 211.1435 L157.0399 211.4857 L157.1127 211.6701 L157.5706 211.7464 L157.5706 207.9079 L158.1993 207.683 L158.2042 207.6477 L158.2695 207.5304 L158.4783 207.439 L158.9598 207.4113 L160.2683 206.9436 L160.521 206.7193 L161.2932 206.1568 L161.6771 206.1401 L161.7634 206.4095 L162.0511 206.3066 L164.8003 211.2955 L168.6011 212.972 L168.8377 207.2489 L170.5176 203.1576 L169.6827 201.8956 L168.0467 200.366 L168.5365 198.964 L168.4245 198.2709 L167.916 199.2334 L167.7282 199.6734 L167.6118 199.8092 L167.024 200.9215 L166.3965 200.6064 L167.3087 196.8366 L168.0347 194.5987 L168.4644 193.928 L167.0364 193.8113 L166.7754 194.686 L166.7784 194.742 L166.8426 195.0854 L166.9448 195.5595 L166.4791 196.026 L164.8664 195.9636 L162.5987 193.5326 L160.4009 192.2341 L157.4346 192.6255 L154.4083 186.824 L154.6926 186.5019 L154.6516 186.4418 L154.5461 186.2227 L153.9275 186.3615 L150.9267 184.1067 L149.2047 184.2987 L149.0305 184.4397 L148.5749 184.7051 L148.4168 184.5501 L148.1978 184.4108 L145.7401 184.6849 L145.7352 185.5775 L145.8682 185.6931 L146.0034 185.877 L146.1161 186.3297 L145.7735 192.3422 L145.7394 192.4359 L145.7401 193.6459 L141.0117 193.6459 L142.3675 201.3349 L142.7618 203.5375 L144.9364 201.4216 L155.1294 206.9425 L154.1303 206.9251 L149.5859 206.0348 L152.6882 209.2144 L150.953 212.1453 L145.834 210.492 L143.4735 211.1088 L143.5002 211.2487 L143.4946 211.3851 L143.4292 211.5025 L143.3064 211.6158 L143.0597 211.7424 L142.5853 211.8372 L141.7238 212.1586 L140.8603 212.3181 L140.6481 212.2904 L140.537 212.2187 L140.2004 214.4345 L137.2323 214.7709 L137.2083 214.8871 L136.7963 214.8207 L134.8974 215.0357 L128.8958 210.1104 L129.0302 209.16 L128.8301 208.8259 L128.6633 208.4524 L128.3655 207.6489 L128.0237 206.162 L128.0639 205.5018 L128.1461 205.0688 L128.269 204.7671 L128.8192 204.0884 L128.9927 203.8652 L129.135 203.5507 L129.7341 201.8101 L130.0172 200.6539 L130.0923 200.4365 L130.2313 200.185 L130.3083 200.1266 L130.4319 199.2537 L129.1474 196.5365 L129.2946 196.2515 L129.2545 196.1885 L129.2034 195.9168 L129.209 195.6861 L129.2282 195.4381 L129.3848 195.0652 L130.1378 193.8616 L130.9209 192.5989 L131.2607 191.6531 L131.0688 191.1675 L131.0497 190.9033 L131.0572 190.3194 L131.6337 189.1012 L131.9788 188.5185 L132.2297 188.3803 L132.4626 188.308 L133.6543 184.9913 L129.523 191.0559 L129.5264 190.8275 L129.4866 190.8686 L129.3318 190.7923 L129.268 190.3598 L129.2233 189.0677 L128.9517 187.0945 L129.2661 186.6407 L129.3559 186.3852 L128.7794 184.39 L126.4696 184.1761 L125.2554 182.1173 L125.2156 182.1144 L124.8498 181.9907 L124.3581 181.3472 L123.9108 180.6251 L124.1358 180.2198 L122.9843 178.2674 L123.376 178.0171 L123.1128 177.8459 L122.8517 177.6551 L122.7901 177.432 L122.8183 177.2146 L123.0335 176.9914 L123.2389 176.822 L123.3986 176.7098 L123.743 176.8076 L124.3386 177.1909 L124.5215 177.2851 L125.88 176.4173 L121.313 173.1218 L121.2912 173.0778 L121.0486 173.0339 L120.587 172.4476 L120.3756 172.1418 L120.1596 171.6532 L119.8817 171.3127 L119.6049 170.7946 L119.3961 170.42 L119.1941 170.0089 L119.2121 169.6094 L119.1847 169.3637 L117.869 169.3637 L118.0478 169.0856 L117.9363 168.8786 L117.8942 168.7838 L117.9393 168.3894 L118.5954 167.5384 L119.2759 167.1579 L119.4915 166.8197 L120.2554 166.6006 L120.9359 166.2091 L122.4904 165.554 L123.5458 165.2424 L124.1328 165.077 L124.5384 165.051 L125.1288 165.2008 L126.2367 164.8828 L126.8624 165.9802 L127.0664 166.219 L127.2658 166.5572 L127.3319 166.8255 L127.8325 167.7263 L127.881 167.7286 L128.5675 167.4736 L129.2176 167.1758 L129.8918 166.648 L130.0206 166.5167 L130.4428 165.9507 L130.7357 165.6772 L130.8089 165.7136 L131.6637 164.8423 L130.9314 163.1714 L131.4628 163.2853 L131.4245 163.0522 L131.4151 162.9227 L131.6157 162.8481 L131.8188 162.8464 L132.0453 162.962 L132.3206 163.3708 L132.3683 163.4795 L135.2692 164.1022 L136.5063 169.3336 L136.6476 169.4862 L137.6578 169.3232 L139.9901 172.11 L139.4854 170.7704 L139.3915 170.6617 L138.7932 169.2694 L137.9125 166.7035 L137.8246 166.3618 L137.7029 166.0391 L137.4663 164.4491 L137.4197 164.1537 L137.4975 164.1028 L137.7085 164.1213 L138.0574 164.6284 L138.3617 165.1297 L150.3408 174.2376 L151.0056 173.0466 L162.3328 173.9254 L163.7487 172.6881 L162.1675 168.508 L154.2355 166.7098 L147.0884 157.1292 L149.4958 155.0246 L146.9739 153.7676 L145.7927 153.5033 L145.5534 153.4149 L145.52 153.1154 L145.5869 152.8725 L145.6162 152.8077 L145.8265 150.9367 L150.3626 153.5051 L150.6695 153.5906 L151.294 153.8826 L151.4829 154.1388 L154.3782 155.7763 L154.3782 157.3952 L157.9311 161.8704 L158.3683 161.2344 L158.4276 160.9158 L158.7814 160.0179 L159.0943 159.8046 L159.4792 159.6178 L160.9432 157.4877 L162.1022 157.9393 L162.4203 157.8849 L162.9968 158.0035 L163.7202 158.3151 L164.2553 158.5996 L164.2426 158.7731 L166.4641 159.6386 L163.1929 163.2754 L163.3919 165.7443 L163.3919 167.358 L163.464 167.3678 L163.6233 167.4609 L164.1881 166.9931 L165.7392 168.6756 L174.3773 169.7279 L175.9209 172.3008 L172.6835 172.162 L174.8618 174.1278 L176.0336 176.9434 L176.3277 176.9353 L176.3273 176.8943 L176.494 176.7029 L176.7964 176.5595 L177.1385 176.6358 L177.2895 176.8041 L177.338 176.9064 L179.0795 176.8567 L182.0052 180.713 L180.5066 182.2393 L175.9397 184.5288 L176.2499 184.6409 L176.9605 184.2033 L177.9558 183.8737 L179.0551 183.2591 L180.0053 182.77 L181.4411 181.7629 L181.6904 181.7259 L182.7488 180.9096 L188.7391 186.4887 L187.5824 190.1945 L187.8825 189.8528 L187.8644 189.8436 L187.9749 189.4955 L188.8259 187.871 L189.2724 187.7715 L189.5511 187.4634 L189.8985 187.5594 L189.986 187.4599 L190.7146 187.7201 L191.9315 187.5755 L193.1558 187.431 L190.7146 186.6563 L186.5834 183.6384 L182.5159 178.9959 L179.4025 175.0008 L181.9225 174.0006 L183.6764 177.5678 L183.1431 179.1924 L190.8348 183.6037 L189.6743 185.448 L196.3444 187.9166 L198.226 188.9573 L198.7928 188.7405 L198.1772 188.3936 L198.418 188.0542 L199.7032 187.4426 L199.7741 187.6027 L199.823 187.8536 L199.9976 187.8762 L200.3037 187.7686 L200.5463 187.6524 L200.5749 187.4403 L200.5583 187.1599 L201.6952 186.8928 L204.0023 186.4476 L203.9723 186.7569 L204.2502 186.6505 L206.0266 189.8534 L202.7817 192.3278 L206.2708 195.7098 L213.1324 202.0864 L218.6946 202.0113 L222.3057 207.6148 L222.4019 207.6836 L222.7004 207.9744 L222.883 208.3045 L222.9239 208.5738 L223.1673 208.9513 L223.221 208.9519 L223.9669 210.0821 L224.1036 210.1399 L224.848 210.078 L225.112 210.0486 L225.4999 209.7636 L226.0242 210.1977 L226.4073 210.4058 L227.1675 211.0533 L228.02 211.5915 L229.6988 212.9991 L231.1388 214.3657 L236.245 218.5273 L233.6956 219.7337 L233.4076 219.9598 L232.8791 220.3696 L232.6692 220.5442 L232.6501 220.5638 L237.6309 220.169 L238.1153 221.1922 L234.9493 229.0827 L231.648 230.581 L231.4602 230.7573 L231.0002 231.2169 L229.9587 232.2637 L229.5231 232.7204 L226.1497 237.869 L225.8766 236.5337 L225.6821 236.7262 L225.0309 237.2956 L224.8532 237.295 L224.6478 237.2285 L224.5332 237.0898 L224.1051 236.4262 L224.0502 236.2129 L224.0758 235.9747 L224.1667 235.4782 L224.3128 234.8187 L224.4356 234.5169 L224.6309 234.2077 L224.9971 233.7013 L225.1788 233.4614 L225.5187 233.047 L225.7884 232.7972 L226.1474 232.4591 L226.4569 232.1475 L227.1401 231.0198 L227.3068 230.7348 L227.587 230.3949 L227.6689 230.2781 L227.7902 230.0163 L227.5547 229.211 L227.3834 228.7104 L218.304 216.0242 L218.7885 214.3767 L217.9885 214.4518 L215.6363 217.548 L215.7359 217.6382 L215.9526 217.8694 L217.6956 219.2614 L213.324 223.4409 L211.8405 223.1403 L210.3457 219.7412 L205.4595 219.9493 L205.5282 219.7343 L204.841 219.7066 L204.6562 219.6383 L204.4928 219.484 L204.3445 219.1348 L204.3073 218.8932 L204.3651 218.5204 L204.6077 218.2163 L205.3397 217.8573 L205.9275 217.5613 L206.297 217.3261 L206.4285 216.9145 L209.4195 214.105 L209.4334 214.0478 L209.4338 213.7703 L209.3996 213.5333 L202.9207 215.9028 L201.1705 216.3422 L207.2547 210.6596 L207.2825 210.3382 L207.1237 208.4629 L207.1665 207.9564 L207.3054 207.7992 L207.4155 207.709 L207.5131 207.6847 L207.5777 206.9425 L208.3214 207.5437 L208.6391 207.5044 L208.9666 207.4466 L209.1431 207.3882 L209.7523 206.2545 L210.8155 205.2163 L210.4336 204.981 L207.281 203.6993 L204.438 205.0636 L203.0408 202.705 L204.0737 200.8955 L201.655 202.6992 L194.5868 201.2886 L193.3023 203.2773 L191.3907 202.6992 L190.5869 204.6763 L189.0524 205.0752 L188.6682 205.388 L187.33 205.7631 L186.3595 209.0878 L186.4643 209.5063 L186.7655 210.0191 L186.7809 210.6457 L186.8177 212.4442 L186.5379 213.1038 L185.8946 213.1754 L185.6497 213.2413 L185.4022 213.4523 L185.0653 213.5211 L184.375 215.9028 L182.0352 215.8046 L179.0156 218.5851 L176.1538 217.8683 L175.0796 214.7929 L177.81 212.1453 L179.8915 212.1453 L180.1675 211.9187 L181.1714 208.8502 L181.7948 206.1389 L177.2429 211.2782 L176.3416 211.2782 L176.796 210.1624 L177.8514 210.174 L177.1528 208.4224 L177.0927 204.9191 L177.7563 205.2729 L178.1034 204.7954 L178.4925 204.7312 L178.862 204.4907 L178.9897 204.0427 L179.1257 203.719 L179.9872 203.2091 L180.2178 203.0807 L181.2202 201.9303 L178.3171 200.8724 L171.7221 203.5895 L170.3324 206.3123 L170.554 214.2206 L172.9689 216.2612 L174.5651 217.3654 L175.2524 218.1747 L170.8996 219.221 L167.1551 224.5103 L169.1419 224.0016 L170.385 226.5566 L171.5793 225.6491 L172.7736 224.7473 L172.2629 223.5623 L173.3746 221.4003 L174.8468 221.7471 L177.1941 225.1751 L177.1791 227.9844 L176.1913 232.0886 L174.1182 231.5163 L173.4347 231.077 L173.5023 232.0308 L173.6149 232.6724 L175.1859 240.2666 L175.3812 240.6077 L175.4894 240.9718 L175.5247 241.2869 L175.4286 241.4406 L175.504 241.8053 L177.5997 241.1464 L178.3959 240.2909 L177.1265 238.447 L177.0063 233.6782 L177.8438 233.2447 L178.272 235.8458 L181.5845 236.632 L182.223 234.2562 L183.3535 239.0828 L184.6567 238.2736 L185.5581 242.1984 L182.377 241.0481 L180.1311 242.3198 L180.7019 245.8688 L185.4491 243.6666 L190.5006 239.025 L190.0799 242.4643 L191.3832 241.9152 L189.6893 247.7185 L190.5344 248.5624 L194.7745 243.4065 L201.3207 243.7417 L201.8916 241.0192 L203.454 241.1984 L203.0146 243.6492 L198.673 245.4816 L197.6484 246.8364 L197.7885 246.9318 L197.8317 247.1312 L197.6706 247.4208 L197.5136 247.6474 L197.3502 247.7757 L197.1391 247.9404 L196.8128 247.9613 L196.7992 247.9595 L194.9623 250.3889 L197.5838 255.1921 L196.9942 256.9434 L205.7374 251.6779 L210.1823 249.4444 L218.6315 246.7983 L224.6696 244.2348 L231.8546 238.8036 L238.1142 232.903 L239.4374 230.788 L236.2976 227.5682 L238.8928 223.094 L239.6064 223.4813 L240.1472 223.9322 L240.3988 224.5565 L239.2946 228.0364 L240.9096 228.3139 L242.1001 225.9381 L254.9371 201.4158 L258.0795 198.6016 L260.538 196.6348 L263.7976 195.2016 L267.6047 193.2487 L272.3794 190.7628 L287.484 181.771 L297.1475 180.21 L300.3811 176.6312 L308.3582 165.4378 L307.2466 156.2504 L309.1469 150.8384 L313.3045 145.0735 L316.3429 142.5409 L317.4485 142.261 L336.342 141.5232 L341.5887 136.9841 L341.9042 135.1048 L344.8997 134.3918 L345.0124 134.2681 L345.317 134.2351 L345.4233 134.2675 L346.1556 134.0929 L345.9603 131.456 L347.6091 129.756 L346.873 120.8796 L348.9442 119.8295 L349.2612 119.4704 L348.8034 118.2832 L348.8548 117.3371 L348.7561 117.0647 L348.572 116.771 L348.9296 115.9654 L349.0137 114.4203 L339.2526 114.4896 L338.6743 112.801 L338.0959 111.1067 L337.0931 111.8931 L332.4548 111.6849 L327.794 108.2904 L323.3848 108.9438 L318.5189 111.678 L315.9673 109.9269 L315.8959 106.914 L315.4715 104.6008 L316.5344 103.9993 L314.0594 102.9121 L308.5498 102.9873 L313.1881 99.9801 L314.3557 100.3091 L314.367 100.1021 L314.7523 100.19 L315.1012 100.4653 L315.4017 100.589 L315.4036 100.6047 L315.772 100.7088 L318.0667 96.9786 L327.249 100.2669 L327.4669 100.2825 L327.7388 100.3832 L328.0685 100.441 L328.4118 100.57 L328.5068 100.6839 L332.3068 99.7904 L332.5044 99.6493 L332.7132 99.695 L333.6904 99.4654 L333.8557 99.0143 L333.7242 98.7078 L333.5477 93.792 L334.2422 93.5648 L334.3428 93.297 L334.7428 92.9963 L335.4583 92.7175 L336.6586 92.485 L337.1765 92.5475 L337.2539 92.5804 L342.1227 90.9883 L342.5028 90.7465 L343.0943 90.6708 L343.0985 90.6691 L344.6008 87.2569 L345.1438 86.9145 L345.6084 85.9706 L345.8 85.7561 L346.0869 85.6919 L346.3701 85.66 L346.6119 85.4865 L346.8974 85.235 L347.1235 85.1575 L347.7544 85.0615 L348.0395 85.0464 L348.1394 85.0273 L348.4196 84.8509 L348.5394 84.5595 L348.5495 84.5184 L346.2533 82.7342 L347.1866 81.7909 L347.2114 81.7053 L347.3901 81.2929 L347.4589 81.2866 L347.4701 81.2675 L347.7105 81.2623 L347.976 81.3531 L348.3655 81.7128 L349.0749 81.9482 L349.6897 82.1905 L349.8539 82.1726 L349.9267 82.1275 L348.4766 80.7909 L344.4055 80.8661 L345.1491 77.0085 L349.5057 71.3694 L349.9508 71.4868 L350.0007 71.4145 L350.2621 71.2739 L350.7691 70.9333 L351.1 70.9541 L351.4083 71.0981 L351.8034 71.3682 L352.4014 72.0946 L352.4847 72.156 L353.5806 72.4451 L355.4022 67.876 L357.0325 63.0997 L357.046 62.947 L356.3411 60.1429 L351.7065 58.6969 L350.7075 59.5472 L351.0193 58.2805 L350.8672 58.3516 L350.4597 59.0214 L350.3207 59.1839 L350.6512 59.7438 L349.4051 60.3372 L343.2555 63.2095 L343.2851 63.3067 L343.355 63.8961 L343.355 64.397 L343.1056 64.81 L343.0339 64.8898 L343.0872 65.8516 L341.4309 68.3792 L340.9405 67.9471 L340.901 67.9488 L340.6434 67.7892 L340.5536 67.6064 L337.341 64.7758 L335.5908 58.6217 L336.3206 57.9357 L336.4836 57.5858 L337.1224 57.1821 L345.7087 49.1127 L346.4538 49.3411 L346.7798 49.1896 L347.3233 48.8466 L347.5847 48.831 L348.0699 49.1427 L348.6355 49.6899 L349.0366 50.1336 L349.1914 50.181 L349.6961 49.9005 L350.3511 50.0642 L350.3586 50.539 L350.7988 50.6744 L350.9317 50.5442 L351.2525 50.4245 L351.666 50.4835 L352.0618 50.476 L352.3698 50.5726 L352.7382 50.6472 L353.0992 50.6588 L353.1236 51.3471 L353.2967 51.4408 L357.5715 52.7521 L357.6011 52.7486 L358.332 52.7561 L365.2684 48.6615 L368.2917 39.8173 L367.8861 27.1376 L367.2968 23.3631 L366.4082 20.5535 L365.395 19.5412 L364.8951 17.9301 L361.8387 14.0484 L360.0615 15.4299 L358.5618 17.2914 L356.2284 17.9578 L352.8393 20.4858 L351.6987 22.2606 L349.532 26.6228 L349.0246 26.7645 L348.7921 27.0758 L348.3287 27.8387 L348.1011 28.0944 L347.7909 28.0713 L347.5152 27.9394 L346.9237 27.5917 L346.4249 27.4899 L345.2313 27.8225 L345.3598 28.1743 L344.9474 28.4554 L344.0066 28.869 L341.7652 29.3497 L340.5679 29.5383 L339.0746 29.8096 L337.9708 29.8489 L336.6575 30.2151 L335.6442 29.9189 L335.5717 29.927 L335.4166 30.0276 L335.3193 30.1497 L335.1946 30.5257 L335.1586 31.4489 L335.0079 31.9678 L334.6774 32.5173 L334.4649 32.6249 L334.2643 32.6128 L334.081 33.171 L324.335 26.6286 L327.4492 24.2361 L327.7286 23.76 L328.2206 23.3493 L329.0585 22.9999 L329.0897 22.9669 L329.2655 22.9831 L329.955 22.9281 L331.0036 23.1456 L333.0557 23.3429 L337.51 26.4261 L338.9822 23.9792 L335.1214 21.8967 L327.9367 19.6869 L325.2011 18.0718 L324.483 17.867 L324.276 17.6871 L323.5163 17.3961 L323.8622 16.8634 L323.858 16.7344 L324.5051 15.8024 L324.6204 15.4079 L324.5919 15.2939 L324.4571 15.011 L324.4334 14.6703 L324.0015 12.9672 L322.797 12.015 L321.958 11.6974 L321.7736 11.5505 L321.3492 11.3798 L317.9477 6.4192 L317.7426 6.377 L315.4039 7.1452 L315.3626 7.2661 L315.3213 7.4663 L314.8436 9.1839 L314.6306 9.7618 L314.4474 9.9457 L314.2772 10.4658 L312.8718 11.02 L312.8118 11.0582 L312.7449 11.0698 L308.8202 12.6178 L305.8907 18.1019 L304.6739 18.7209 L303.5513 20.5032 L303.5265 20.6142 L306.6832 18.6862 L307.4411 18.8186 L307.5955 18.7203 L308.0788 18.6086 L308.288 18.7527 L308.4138 18.9881 L308.9366 19.0795 L309.2972 20.6414 L305.8382 23.1462 L306.8578 25.2351 L307.2428 25.3427 L308.9317 25.4769 L309.1537 25.209 L309.4395 24.8683 L309.7982 24.6664 L310.0198 24.6445 L310.9459 23.528 L321.6084 25.9981 L320.9098 29.0524 L312.2187 30.5263 L312.1722 30.7449 L311.981 30.9214 L311.7038 31.0903 L311.2141 31.1921 L310.4641 31.2493 L309.684 31.2655 L309.0136 31.1441 L303.6373 38.4464 L304.9819 39.6958 L303.089 43.2011 L311.021 46.1858 L311.4007 47.7944 L303.4296 47.2478 L300.8145 45.1244 L299.2101 44.9532 L297.606 46.3073 L295.8551 48.348 L295.3049 51.516 L295.2771 52.6427 L295.2741 53.0314 L295.6039 55.6256 L286.7968 56.3081 L288.4001 50.251 L289.0675 46.8533 L289.8257 44.9729 L291.2059 42.6829 L291.3122 42.0911 L290.7665 41.9818 L290.7147 42.072 L290.5262 42.4908 L290.4522 42.8605 L290.2411 43.119 L290.0 43.2035 L289.5685 43.0317 L289.437 42.7673 L289.2105 42.7633 L289.8047 41.08 L290.3301 40.0828 L289.6331 39.7502 L288.5608 40.2974 L288.3032 41.4126 L288.112 43.1983 L286.7584 42.4035 L286.455 41.8806 L286.2067 41.6128 L286.1609 41.5775 L285.8312 40.8059 L285.2269 39.7647 L284.893 40.0527 L285.2269 40.9626 L287.3537 44.0173 L287.5813 45.14 L287.2324 49.2798 L286.405 51.5813 L285.9006 54.4676 L285.6558 55.3578 L285.361 57.001 L285.1033 61.785 L283.678 65.2125 L283.6675 65.3114 L283.5379 65.5497 L282.2343 68.6851 L282.0495 69.3867 L281.9166 69.9766 L281.8614 70.271 L281.7968 70.6747 L281.5046 70.9113 L281.3416 70.71 L281.3378 70.086 L278.6694 62.9192 L280.4053 58.0427 L281.929 57.9884 L282.9637 57.8924 L283.5699 56.9293 L283.2803 56.5082 L281.1332 55.9611 L281.6965 50.524 L282.5092 50.524 L282.5059 50.3684 L280.1379 47.7476 L278.0347 46.1338 L278.5042 47.1113 L277.9784 47.3427 L277.9596 45.6768 L275.7925 44.4563 L271.4021 43.7854 L270.9815 40.7949 L270.4527 40.7382 L270.4144 40.796 L270.1068 40.8458 L269.9915 40.689 L264.9235 40.147 L260.8636 38.6141 L254.7929 43.1867 L253.9084 44.406 L254.5608 48.0675 L254.7009 48.466 L254.8102 48.6384 L259.8646 47.8286 L271.789 51.2239 L275.8226 49.6737 L278.6882 51.409 L279.2478 53.3293 L279.075 53.1384 L275.5822 54.5729 L274.3729 58.1243 L272.326 57.0253 L270.7073 61.8723 L270.9928 69.6574 L269.7722 69.4954 L270.4519 70.9125 L272.8894 72.5897 L273.8246 77.4075 L272.0481 86.3836 L271.1633 86.1424 L270.6829 87.2551 L270.3021 88.2915 L270.1898 88.6443 L269.9952 88.9589 L269.6689 89.1208 L269.4124 89.1127 L269.2847 88.8548 L269.2426 88.4777 L269.234 88.2117 L269.228 87.7779 L269.2171 87.4448 L269.0777 87.1302 L268.6672 86.7682 L268.3168 86.5715 L267.9953 86.3564 L267.7182 85.9267 L267.4718 85.6352 L267.0237 85.261 L266.6797 84.9198 L266.5791 84.892 L266.5832 85.3362 L266.4258 85.7046 L265.9883 86.088 L265.491 86.3107 L264.9025 86.2719 L264.2325 85.7815 L263.3818 85.1696 L262.7651 84.3125 L262.5507 83.6977 L261.1893 81.1125 L261.074 81.1773 L260.8456 81.2559 L260.5925 81.4676 L260.262 81.4988 L259.9705 81.3641 L259.9198 81.2311 L259.1623 82.046 L258.8262 81.7325 L258.7695 81.969 L258.4859 82.0477 L258.0931 82.0807 L257.5973 82.0315 L257.3314 81.6579 L257.0914 81.1877 L256.836 80.5781 L256.4728 79.7499 L256.2821 78.9234 L255.9482 78.3115 L254.9826 77.0848 L254.7336 76.7204 L254.5634 76.4567 L254.3591 76.1658 L254.1774 76.0339 L253.8412 75.8726 L253.6831 75.529 L253.7379 75.1779 L254.0346 74.8882 L254.2679 74.6846 L254.675 74.6389 L255.152 74.7534 L255.7134 74.968 L256.1078 75.3272 L256.1848 76.0195 L256.1532 76.5359 L256.1991 77.0437 L256.4717 77.4787 L256.806 78.0484 L257.2781 78.54 L257.6675 78.9465 L258.0931 79.4908 L258.3436 79.9338 L258.3999 79.7036 L259.2708 77.7638 L258.5298 74.4931 L258.2035 73.4463 L258.1009 73.2525 L258.0213 72.8616 L257.4801 71.1247 L257.8516 66.6498 L258.6632 63.9985 L258.4799 60.8896 L258.1355 60.2262 L257.4121 58.6142 L257.3089 58.3632 L256.4214 56.4487 L255.3698 56.5094 L255.2598 56.7194 L255.2106 57.1023 L254.9127 57.8617 L254.7651 58.0352 L254.5105 58.1468 L253.9509 59.2134 L251.8184 59.1394 L251.6862 58.2134 L250.2158 56.949 L248.7706 56.9108 L247.8505 57.558 L246.005 59.0758 L242.9358 57.9421 L241.8996 55.3104 L243.2126 53.4352 L244.3738 53.0204 L244.7055 52.3564 L243.9866 51.2227 L244.3637 50.5107 L246.0327 50.8913 L246.9319 50.3794 L246.749 49.2202 L244.4602 47.3398 L243.4646 47.2397 L242.4866 48.3601 L241.15 50.6917 L240.4476 51.1834 L238.2768 52.9244 L234.1358 52.2292 L233.8842 52.7006 L236.0978 56.2439 L236.2694 58.0578 L235.1972 58.9456 L235.8882 60.2933 L234.1944 62.1962 L234.7502 65.0939 L229.0078 72.3104 L226.1084 72.931 L227.6106 68.1883 L226.5703 66.43 L225.8079 63.8273 L224.8465 62.0921 L225.2581 64.6902 L225.5529 65.9488 L225.5454 66.5035 L225.6731 67.308 L225.4083 68.4318 L224.0258 71.3335 L223.2184 74.5498 L221.2537 76.0837 L218.6631 78.6516 L216.1313 79.7985 L214.4405 78.9471 L213.7852 77.0223 L213.9808 74.7152 L216.7229 70.1895 L217.7407 68.9309 L220.8628 67.9899 L221.9576 65.7608 L221.2192 63.0962 L219.6842 63.4091 L217.5826 58.3637 L216.9617 55.8055 L216.8558 55.5082 L216.7698 55.0154 L216.205 52.7145 L216.1306 52.6786 L216.1419 52.4588 L215.331 49.1566 L215.3141 47.1923 L216.6906 46.611 L216.2328 42.8714 L216.4055 42.8911 L216.3946 42.6545 L216.5062 42.5319 L216.7214 42.3561 L216.9839 42.4631 L217.1022 42.9704 L217.3238 42.9958 L219.4589 44.1619 L220.2408 46.0389 L219.0875 49.4603 L221.0228 51.2592 L221.4532 52.2564 L221.887 52.5542 L221.0817 49.48 L221.9223 47.994 L225.3046 47.6811 L226.6928 45.8827 L231.6394 43.1844 L235.5885 42.4804 L238.1694 39.2157 L238.065 37.463 L240.0161 37.138 L241.2878 37.0732 L242.5974 38.3857 L243.2738 40.6427 L245.0056 41.1072 L245.0773 40.3275 L244.4482 32.8829 L240.4304 31.8897 L239.4606 24.1522 L240.3973 23.1838 L241.0084 23.432 L241.589 27.0815 L240.9257 27.9388 L241.0362 29.5151 L241.589 30.8976 L243.8541 30.9653 L244.1846 29.9067 L244.9624 29.6534 L245.709 30.2891 L247.2977 30.8537 L249.8114 30.3232 L250.783 30.6599 L251.5709 31.3951 L252.3434 31.5322 L253.2542 29.6065 L250.5204 26.4204 L249.5702 23.9156 L247.929 23.5685 L245.7484 23.624 L243.178 24.2048 L243.4297 26.8079 L241.8861 26.4608 L241.6063 22.8078 L241.5458 22.4596 L241.4557 21.8707 L241.5143 21.6017 L241.6003 21.195 L241.7302 20.5784 L241.7986 19.8801 L241.9206 19.4266 L241.9792 18.6821 L242.1167 18.029 L240.5904 18.6619 L240.454 18.9783 L240.326 19.0147 L240.0555 18.884 L239.7791 18.9985 L239.7724 18.5861 L239.7446 18.5473 L239.7326 18.4374 L239.7679 18.2928 L239.692 13.5411 L240.5201 13.1483 L241.3137 13.238 L243.2903 12.8978 L243.5221 12.6375 L243.5821 12.527 L243.347 9.4534 L243.391 7.6202 L242.2308 7.1469 L241.8669 5.1916 L241.9942 4.6073 L241.7835 3.3247 L241.3554 2.1394 L241.26 1.4226 L241.2146 1.249 L239.704 1.3948 L239.3405 0.2898 L239.022 0.0 L237.2102 1.6262 L236.5826 1.2224 L236.1676 1.2473 L235.738 1.0436 L235.7282 1.0217 L233.4695 2.7202 L233.3005 2.9747 L232.9524 3.4179 L230.3846 7.9592 L230.2603 8.3468 L229.2218 12.3922 L228.2405 11.8519 L228.0411 11.8316 L227.4394 11.4903 L226.7686 11.042 L223.3554 9.1642 L221.1997 8.2964 L219.6335 9.7195 L215.6901 20.8092 L209.895 24.4941 L206.7365 24.4941 L200.8926 21.029 L191.6536 11.6749 L184.2699 10.6104 L169.9343 16.7598 L170.1338 19.1102 L170.1766 19.2617 L170.2032 19.503 L170.1597 19.7078 L169.4923 20.0976 L168.4411 20.7444 L168.2931 20.8051 L167.9491 21.088 L167.486 21.4952 L166.858 21.8094 L165.5897 22.1293 L164.6103 22.2612 L164.1641 22.2218 L163.8077 22.1952 L163.1891 22.1975 L162.3865 22.3317 L162.0808 22.3659 L161.9031 22.2964 L161.8074 22.1512 L157.1646 22.5544 L156.6129 22.8304 L156.2388 23.0346 L156.0228 23.1584 L155.8065 23.1352 L155.5872 23.0392 L155.4422 22.909 L155.1992 22.6956 L154.9521 22.5006 L149.8977 21.0579 L148.3315 22.2316 L148.38 22.6678 L148.4517 22.9611 L149.6498 26.0848 L147.1372 25.8216 L146.652 25.9396 L145.804 25.9709 L145.5009 25.828 L144.8898 25.6279 L144.8864 25.5856 L137.947 24.8585 L140.2718 23.9156 L136.4523 22.6719 L135.7612 20.734 L141.0755 21.1736 L141.1619 19.9357 L134.2627 17.159 L133.3538 15.9036 L133.3463 16.1119 L133.5867 17.616 L120.8098 17.049 L108.9117 17.9226 L107.7136 16.2102 L105.3438 16.6557 L105.0621 16.6672 L103.834 16.647 L103.7919 16.6626 L103.4441 16.6806 L103.2939 16.6383 L96.6005 16.5284 L95.3198 17.2226 L99.0755 17.2747 L100.3412 18.4953 L98.7901 20.0167 L96.8409 25.1072 L100.0144 20.9017 L104.2817 21.9742 L107.0763 22.5382 L109.9809 22.3815 L110.2108 22.8431 L110.3652 23.008 L110.45 23.3238 L111.1125 24.6554 L110.8771 26.7391 L111.7439 28.3443 L112.3684 31.7844 L110.5691 32.8239 L108.7329 36.0788 L109.6666 37.4399 L109.0503 38.5777 L106.8727 42.787 L106.8949 46.8568 L111.3905 51.3164 L114.1622 61.4154 L116.4419 62.9944 L116.3142 73.2259 L113.7866 89.2406 L114.0345 89.4892 L112.3031 92.7684 L105.0809 92.9882 L101.3289 95.3477 L102.8312 95.6716 L102.8402 95.6785 L103.7303 95.5681 L103.7698 95.671 L108.9079 95.6311 L110.2713 95.6369 L111.9613 95.6369 L111.7247 94.4802 L113.6589 94.4802 L114.4776 93.4508 L117.7263 92.6122 L118.4962 89.628 L114.7706 89.3157 L115.6731 82.8765 L115.4624 82.8886 L115.5476 80.6469 L115.9953 79.1449 L116.2286 78.3809 L116.6514 78.1033 L117.1551 77.9639 L118.4887 75.1056 L117.7338 81.1784 L120.3854 82.2021 L119.9234 86.3836 L120.0511 88.2632 L121.2717 87.9624 L120.5994 83.6942 L121.3356 81.4676 L122.8453 83.2027 L123.8406 82.7689 L122.9956 79.16 L126.74 85.2384 L126.4734 84.3599 L126.2367 83.8643 L126.2551 83.7104 L126.2758 83.7081 L125.5344 81.2652 L125.3128 78.9286 L125.5757 75.0478 L127.3297 73.8853 L128.4188 74.2439 L129.4178 82.1096 L129.8234 85.2384 L130.1517 84.9377 L130.3124 84.711 L130.6035 84.4218 L130.8191 84.2367 L130.9764 84.0193 L131.0628 83.8111 L131.2532 83.648 L131.4395 83.5855 L131.6018 83.6081 L134.3153 81.1206 L135.5884 83.9603 L133.2524 86.4414 L135.1528 87.7542 L137.3837 85.6606 L140.0127 85.9498 L137.4776 90.0965 L143.5393 92.0513 L135.2166 93.3236 L135.2993 94.22 L133.9284 93.8904 L132.5013 94.0349 L130.1652 94.8215 L132.1257 97.2793 L133.3538 96.7068 L132.9181 94.1159 L133.4402 94.3877 L134.1312 97.6495 L135.3481 96.8687 L135.6974 97.7189 L145.1805 96.8861 L144.7786 99.6273 L157.1311 96.14 L162.3891 96.9034 L165.5289 99.4769 L159.1615 98.5349 L158.8336 99.4937 L163.8659 100.293 L181.5316 98.0046 L185.3883 98.4146 L185.1637 99.6932 L181.4324 99.4232 L167.3617 100.8649 L157.225 102.4379 L161.1159 104.5025 L166.6781 103.7622 L153.0149 109.5453 L149.7249 108.0243 L150.7164 104.8668 L145.6199 106.8735 L133.0458 107.6253 L127.3484 110.378 L125.2265 112.8589 L127.2733 114.3624 L127.3297 114.7267 L124.6969 117.4158 L119.9272 118.7747 L125.2715 123.0424 L141.9581 125.1299 L133.4439 126.1766 L123.619 123.7941 L121.5158 126.616 L121.7712 128.5648 L126.6273 133.717 L125.8462 137.2096 L126.4508 139.5804 L128.37 137.8977 L129.4554 138.4008 L129.1868 139.0443 L129.4993 139.3803 L128.6107 140.8195 L128.0538 141.7568 L127.9944 141.8991 L127.9632 141.8991 L127.5648 142.2963 L126.891 142.2928 L125.4011 142.2142 L123.9199 142.4449 L119.8746 145.7327 L120.9435 145.454 L121.4955 145.1366 L124.5493 143.6546 L125.0364 143.2024 L126.384 142.7948 L127.3589 142.4137 L127.5696 143.7164 L127.5715 143.7274 L128.2198 143.5586 L130.5295 144.796 L125.7973 146.0681 L125.7662 146.1103 L125.86 146.197 L125.5517 146.4248 L125.5198 146.4451 L124.1786 148.2653 L123.0369 152.0179 L115.7095 157.1986 L115.4128 154.8858 L114.5603 157.5109 L111.1351 159.072 L107.0526 166.8023 L103.1279 163.8247 L88.1164 164.5127 L87.9023 159.6502 L84.6123 160.1069 L82.2349 155.5334 L80.7702 156.2099 M106.6297 183.5049 L106.7826 183.0643 L107.2577 182.4567 L108.2368 181.7398 L109.8472 181.0732 L110.7723 180.713 L111.5437 180.569 L112.2599 180.6771 L112.7478 180.8893 L113.0197 181.12 L113.6063 181.0021 L113.6705 180.9281 L113.4809 180.5407 L113.7025 180.1863 L114.0961 179.6925 L114.7796 179.6 L115.6404 179.7446 L116.2616 179.8891 L116.9237 180.4482 L117.1956 180.9159 L117.4627 181.6629 L118.3678 182.1907 L119.3338 182.9331 L119.6042 183.051 L120.1942 183.3915 L120.3279 183.9315 L120.3087 184.3727 L120.9525 184.945 L120.9525 186.2753 L120.963 186.273 L121.0129 186.1741 L121.7975 182.9851 L124.2913 182.9562 L124.9185 184.9739 L123.8631 185.0202 L125.2715 187.5755 L124.4716 190.5587 L122.9836 192.0208 L124.0408 191.5057 L125.507 190.7339 L125.676 190.3749 L125.8972 190.3032 L126.1838 190.7206 L126.4891 191.2617 L126.5331 191.3739 L126.6799 191.3334 L127.1907 193.0736 L125.9292 193.9142 L125.8709 194.2813 L125.8364 194.5374 L126.6086 196.6019 L126.9672 197.3031 L127.1652 197.9442 L127.149 198.0466 L127.4987 198.982 L126.7701 200.803 L126.7701 203.0229 L126.3175 202.4188 L126.2465 202.483 L125.8124 202.0974 L125.4402 201.5164 L125.1416 201.0649 L124.7393 200.3116 L123.2284 198.294 L121.5759 198.2131 L117.0428 199.138 L117.4431 197.7182 L117.3737 197.7147 L117.1006 197.45 L117.0458 197.1418 L117.0251 196.2359 L117.2572 194.8744 L117.1194 193.4494 L116.9958 192.9001 L116.6819 192.5163 L116.4167 192.5255 L116.2023 192.4243 L116.0817 192.2336 L115.9995 191.4947 L115.6588 190.7859 L114.4852 188.9879 L114.2542 188.5624 L114.1821 188.4607 L112.6524 187.1246 L112.9735 186.987 L112.9063 186.8563 L113.1804 186.5066 L114.1592 186.0279 L114.5712 185.7457 L112.6257 185.137 L111.4813 185.5353 L110.2453 185.4434 L108.5707 185.1601 L107.4872 184.5178 L106.9294 184.0524 L106.6842 183.7708 L106.6297 183.5049 M107.2367 172.3008 L111.8449 171.4162 L113.1857 170.4217 L113.5537 170.2425 L115.9424 172.9483 L116.6747 177.9263 L110.26 177.458 L108.7427 177.458 L109.8694 176.8856 L108.0629 174.573 L107.2367 172.3008 M113.2563 189.0608 L113.3134 188.7775 L113.4696 188.7758 L113.7062 189.1203 L113.8129 189.3285 L114.036 189.4603 L114.3161 189.6326 L114.6729 189.6973 L114.9069 189.7696 L115.1094 190.5986 L115.0692 190.9137 L115.1326 191.2519 L115.2964 191.9468 L115.9112 192.8406 L116.5132 193.2915 L116.6913 193.5679 L116.7442 194.3761 L116.5433 195.2132 L116.2248 195.3456 L116.0967 195.3184 L115.978 195.2843 L115.6539 194.8079 L114.7958 192.6284 L114.6906 192.2012 L114.3706 191.1542 L113.8734 190.4356 L113.6991 190.1361 L113.3783 189.5025 L113.2563 189.0608 M120.6182 209.5439 L121.9102 209.5439 L128.1259 214.6946 L126.0753 215.0415 L120.6182 209.5439 M129.7784 79.6226 L130.8675 74.9148 L131.5999 74.8685 L133.7519 77.0605 L129.7784 79.6226 M155.3923 203.4045 L155.8805 197.924 L156.1772 198.0974 L158.5095 202.7975 L155.3923 203.4045 M157.6307 147.8721 L158.1339 145.0793 L162.8285 145.0793 L163.0501 147.2939 L157.6307 147.8721 M185.5768 98.7078 L186.7561 96.007 L186.865 95.3535 L187.0979 95.3709 L189.0884 96.3598 L187.9016 99.396 L186.4106 99.0548 L185.5768 98.7078 M191.3907 238.3487 L195.8449 233.5799 L195.9163 233.5337 L195.1539 235.0192 L194.583 238.3661 L193.1821 238.447 L192.2695 237.5857 L192.7127 240.3603 L191.4207 241.0481 L191.3907 238.3487 M203.7612 112.2199 L204.3967 111.8295 L212.9371 118.9887 L215.3971 119.3472 L217.8124 120.7842 L219.5002 124.3105 L220.2953 133.7789 L219.107 135.5113 L216.1295 123.106 L212.6427 119.4814 L203.7612 112.2199 M210.7111 25.7719 L210.7333 25.4555 L210.7434 25.4404 L211.0386 25.0083 L211.371 24.6676 L211.7154 24.5241 L212.0271 24.5102 L212.3272 24.5345 L212.6926 24.8654 L213.0457 24.8938 L213.5305 24.9395 L213.8175 24.8446 L214.0353 24.6421 L214.0672 24.4136 L214.8687 23.9682 L215.2168 24.0498 L215.5406 24.427 L215.8448 25.3126 L216.0311 25.4607 L216.3653 25.3242 L217.4954 24.3136 L218.2541 23.6761 L218.7461 23.2631 L219.063 24.3795 L219.2219 24.8695 L219.1806 25.1564 L217.5754 26.5846 L217.3144 26.8195 L217.2705 26.8554 L216.9122 27.1475 L216.4168 27.2915 L216.2294 27.5779 L216.128 27.656 L215.3276 28.8106 L214.5817 30.4256 L213.8531 31.9741 L213.8321 32.0187 L213.5452 32.1708 L213.2192 32.0551 L213.1441 31.9574 L212.8316 31.553 L212.2641 30.2671 L211.709 28.8846 L211.1558 27.3818 L211.116 27.2441 L210.9098 26.5297 L210.7111 25.7719 M216.7781 29.6534 L217.7568 28.2674 L218.9662 26.7507 L219.3721 26.318 L219.9269 26.0467 L220.3828 25.9304 L220.5837 25.9524 L221.0247 26.3949 L221.1692 26.709 L221.4866 27.0763 L221.8641 27.3274 L222.4233 27.6629 L223.0715 28.1448 L223.1076 28.1557 L223.624 28.4184 L224.3503 28.6145 L224.8149 28.6625 L225.2265 28.7053 L225.595 28.9205 L225.8211 29.1727 L226.0149 29.4602 L226.1884 29.743 L226.3217 29.9501 L227.0218 30.4933 L227.7166 31.1898 L227.955 31.4732 L228.568 31.9643 L228.8448 32.3889 L229.1103 32.8985 L230.4999 34.4054 L230.4661 34.6975 L230.3745 34.8629 L230.3448 34.8884 L228.6487 36.3252 L227.8135 37.0333 L225.9273 38.3145 L225.8027 38.3735 L225.0399 38.7327 L224.5385 38.9196 L224.2069 38.7993 L223.9218 38.58 L223.3367 37.9177 L221.8325 36.3062 L218.5553 31.7942 L217.4887 30.5355 L217.3482 30.3695 L216.7781 29.6534 M223.5132 241.5048 L228.1778 238.6956 L231.4152 234.1117 L233.2667 234.1117 L229.3984 240.0944 L224.392 243.499 L223.5132 241.5048 M226.9598 39.4488 L227.0758 39.118 L227.7244 38.4181 L228.7362 37.7951 L229.4724 37.2698 L229.9756 36.8366 L230.3917 36.4132 L230.8563 35.8289 L232.0743 34.5459 L232.2335 34.7218 L233.0549 35.5617 L233.1176 35.7318 L233.0669 35.8706 L233.0189 35.9128 L231.9609 36.8366 L229.1584 39.2117 L227.8585 40.2216 L227.7714 40.2315 L227.6576 40.1997 L226.9598 39.4488 M227.8409 20.9775 L227.8893 20.8167 L228.2574 20.3539 L229.1557 19.5059 L229.6256 19.1651 L230.4413 18.7631 L231.5695 18.3934 L232.2786 18.2251 L232.4386 18.2743 L232.6253 18.3645 L232.7342 18.5519 L232.7755 18.7249 L232.7751 18.7851 L232.7732 19.1021 L232.5843 19.9866 L231.9462 22.1883 L231.7107 22.7066 L231.5481 23.4048 L231.4734 24.0463 L231.4005 24.6618 L231.5173 25.9466 L231.6653 26.8131 L231.6886 27.1625 L231.6785 27.5877 L231.5203 27.656 L231.4494 27.6866 L231.0659 27.6195 L230.8608 27.5113 L230.5664 27.3505 L230.2772 27.5189 L230.2622 27.5235 L229.9091 27.6334 L228.8252 27.5553 L228.5879 26.8282 L228.5856 26.805 L228.4485 25.2894 L228.201 23.8566 L228.1128 23.2492 L227.8412 21.3767 L227.8409 20.9775 M233.7242 16.7193 L233.8121 16.2907 L234.1546 16.1321 L234.4137 16.0193 L235.0488 15.9592 L235.5108 16.1223 L235.6633 17.4974 L235.5333 19.2988 L235.3421 21.2743 L235.2464 22.3861 L235.2772 24.1441 L235.1998 25.419 L234.9392 26.2734 L234.6177 26.5846 L234.2297 26.5424 L234.1501 26.0403 L234.1103 25.4028 L234.0089 23.7721 L234.0141 22.5799 L234.031 22.4989 L234.2729 21.3373 L234.2808 20.0907 L234.2372 19.2739 L234.0239 18.3408 L233.8455 17.3441 L233.7242 16.7193 M256.1465 153.4692 L256.2479 152.9835 L259.9397 150.503 L262.6326 149.1673 L275.4744 146.8082 L278.1447 143.6268 L281.4734 140.3968 L282.4923 137.7502 L283.5507 132.701 L285.4507 122.7671 L286.7051 120.5113 L288.4324 119.1546 L297.8107 116.3031 L303.7342 113.4875 L303.7169 114.7001 L297.7833 117.7367 L289.9917 119.741 L288.0508 121.0577 L286.609 122.9614 L285.2257 137.8237 L284.2789 141.0624 L278.8144 145.8183 L275.9661 147.9849 L266.9325 149.1552 L262.8902 149.9074 L260.2135 150.932 L256.1465 153.4692 M301.1706 56.4348 L301.9608 52.8724 L302.5057 50.6536 L302.8899 50.7432 L303.2715 51.0504 L305.8216 52.0545 L305.819 51.804 L305.9674 51.6831 L306.2314 51.6172 L306.5206 51.6843 L307.108 52.0429 L307.642 52.3391 L308.0206 52.3651 L308.3567 52.4322 L308.7511 52.6503 L309.0966 53.0355 L309.2213 53.3924 L310.4276 53.8672 L307.517 58.7663 L304.2157 58.6796 L301.7895 57.0195 L301.8012 56.9224 L301.5766 56.8032 L301.1706 56.4348 M324.2824 93.0344 L325.1049 93.0344 L326.8588 94.0407 L333.0557 93.9019 L332.9806 97.3256 L326.4833 96.14 L324.2824 93.0344 M159.7789 328.3168 L159.809 329.669 L162.0999 329.1894 L165.2698 331.8763 L168.6574 331.8937 L164.8679 330.0504 L165.927 327.7505 L170.355 328.4613 L169.1794 330.9171 L172.6009 331.2869 L171.9158 336.4441 L172.0657 337.1185 L172.089 337.4663 L171.9448 337.7177 L171.6706 338.2909 L171.4779 339.7407 L171.8911 347.8648 L173.0591 349.7542 L172.7902 348.0971 L172.5937 347.6493 L172.151 345.7748 L171.9568 344.8157 L171.9819 344.1489 L172.0383 343.7057 L172.0319 340.8391 L172.2448 339.2443 L172.5269 337.917 L173.0166 336.573 L173.3148 333.7682 L174.294 330.6346 L174.5418 330.0573 L174.9531 329.8938 L175.4751 329.7996 L175.9438 329.7944 L176.2939 329.9435 L176.7224 330.0758 L185.6369 329.6921 L187.9617 318.0656 L187.9918 319.3773 L188.7887 317.7009 L188.7801 317.5056 L188.88 317.1393 L188.9085 316.7388 L188.9296 316.4123 L188.9975 316.1326 L189.0771 315.9564 L189.2447 315.8229 L189.4215 315.7714 L189.5646 315.8142 L189.8696 315.026 L194.5255 315.7714 L194.6777 315.6443 L194.8215 315.3825 L194.9488 315.1699 L195.128 315.0924 L195.6019 315.1803 L196.0139 315.3224 L196.2689 315.4617 L196.4169 315.6177 L196.4736 316.0349 L196.48 316.0771 L197.52 316.2395 L198.688 322.9774 L195.5219 322.5672 L194.1774 325.1386 L191.969 324.2776 L188.3072 328.0857 L186.2679 329.1316 L187.0528 330.9171 L186.865 331.1772 L188.2836 331.9908 L188.3654 331.8885 L188.3951 331.592 L188.3181 331.1824 L188.4616 330.7374 L188.6452 330.4664 L189.0877 330.2699 L189.3532 330.5548 L189.9196 331.7874 L190.0371 332.9037 L190.0919 333.0286 L190.9437 333.5174 L190.6989 334.1744 L190.8134 334.5893 L190.4769 334.8464 L190.4427 334.862 L190.2827 335.2914 L189.8174 335.1504 L188.3636 334.754 L188.3636 336.6146 L189.2987 336.343 L189.3239 337.3502 L189.3569 337.4814 L189.3288 337.5501 L189.3975 340.304 L189.4264 340.3121 L189.4009 340.4375 L189.4452 342.2137 L191.0113 343.0054 L191.4248 342.4148 L191.4128 342.0982 L191.9491 341.2349 L191.139 340.7403 L192.5211 338.1401 L191.4883 338.1401 L193.3849 335.014 L193.723 339.3142 L193.8664 339.5968 L193.8638 339.7592 L193.7921 339.9354 L193.7737 339.9573 L193.8206 340.5554 L189.3675 346.1365 L189.1091 346.6288 L188.391 347.7469 L187.4874 348.6217 L186.8019 349.3521 L182.1667 355.1855 L193.617 349.4081 L197.5737 349.7432 L200.164 346.8189 L202.7686 349.3561 L203.608 348.4946 L210.7415 357.1206 L210.3269 357.391 L208.3792 355.876 L209.0417 358.3507 L206.5036 357.499 L200.606 352.7738 L199.1492 354.1744 L207.6382 361.5978 L209.9851 363.8523 L211.8142 362.1421 L215.829 368.4745 L213.1287 369.9247 L210.4283 367.9834 L207.5436 365.4285 L206.4292 365.8115 L208.6222 368.3445 L208.872 368.5872 L209.2772 369.1008 L211.1156 371.2246 L212.1296 374.3041 L213.9061 378.7528 L214.3027 379.4819 L214.3688 379.1757 L214.1577 379.011 L213.9898 378.5332 L213.9684 378.1537 L214.0728 377.9174 L214.2122 377.766 L214.4552 377.6083 L214.7346 377.5407 L215.5864 377.372 L216.5193 376.9023 L216.9031 376.7445 L217.1307 376.588 L217.3309 376.3725 L217.462 376.1905 L217.5243 375.8594 L217.572 375.3521 L217.4977 374.7282 L217.1082 374.1758 L217.0879 373.6657 L217.1698 373.3693 L217.2622 373.1705 L217.4327 373.0157 L217.661 372.9585 L217.9375 372.8181 L218.3972 372.6413 L218.9864 372.5963 L219.9006 372.8973 L220.3298 373.1469 L220.761 373.2093 L221.034 373.5282 L221.2733 373.8049 L221.3386 374.0643 L221.2857 374.2215 L222.5217 374.957 L220.2044 377.2102 L219.6824 376.1333 L219.3996 376.5077 L218.6052 377.4274 L218.1617 377.8145 L220.1105 377.684 L221.0769 379.5853 L221.4772 378.4604 L221.9005 378.7355 L222.1746 379.1093 L223.0816 379.7084 L225.1792 380.9216 L226.0528 381.3018 L230.5938 382.9322 L231.079 382.9772 L231.3194 383.0287 L231.6015 382.9397 L231.8824 382.8316 L232.8018 382.8605 L233.2908 382.9472 L234.0633 382.8952 L234.7067 382.6924 L235.2415 382.7219 L236.2202 382.2949 L237.1024 382.1118 L237.7879 381.9465 L238.604 381.4584 L239.2105 381.0978 L239.5778 380.6489 L239.5692 380.1012 L239.4933 379.7488 L239.5831 379.3409 L239.965 379.2462 L240.7406 379.3964 L241.4072 379.743 L241.6574 380.1099 L241.8388 380.5629 L242.3473 380.9008 L243.2787 380.943 L243.9021 381.1371 L244.221 381.4173 L244.3536 381.7062 L244.4512 381.7455 L245.5261 383.522 L245.9486 383.5423 L246.3738 383.273 L246.8905 383.3054 L247.0802 383.4868 L247.3315 383.7306 L247.6721 383.7976 L247.9121 383.6555 L248.0357 383.3597 L248.3932 383.1638 L249.0099 383.3083 L249.4189 383.4446 L249.6375 383.7624 L249.6232 384.3436 L249.435 385.7925 L249.7693 391.0585 L253.8104 397.0032 L254.3738 401.4169 L247.6466 404.013 L247.6436 404.0223 L246.8654 404.7565 L246.6107 405.0587 L246.4722 405.5029 L246.1462 405.8056 L245.1517 406.3746 L242.5951 408.7882 L242.2417 409.6542 L242.1411 410.1134 L242.4235 411.3739 L242.4397 412.5495 L242.4618 413.1416 L242.3435 413.7667 L242.191 414.0353 L242.2057 414.639 L242.982 415.1537 L243.074 415.6944 L243.2096 417.0837 L243.4222 417.5342 L243.2723 417.7278 L243.2817 417.8242 L243.2381 418.9778 L242.8937 419.4752 L242.5095 419.6133 L242.3187 419.6918 L242.1741 419.8281 L242.0401 419.3192 L242.1978 426.4648 L246.8323 436.6486 L254.3914 432.0847 L254.4035 432.0547 L254.6648 431.7584 L255.1005 431.5435 L255.3961 431.4753 L256.1427 431.0224 L256.7951 429.7245 L262.1969 429.1336 L262.3186 429.4576 L262.3588 429.4351 L262.6359 429.5327 L262.731 429.8908 L262.5984 430.201 L262.903 431.0109 L260.1576 432.3106 L259.6318 435.0255 L251.0688 440.1086 L248.2708 446.2544 L247.1103 453.8614 L250.3364 456.1544 L251.8575 462.5656 L253.5851 461.8898 L253.878 461.7743 L257.5023 459.8452 L256.7418 458.4365 L256.1183 458.5237 L255.8599 458.3146 L255.3593 457.3033 L255.3705 456.9371 L255.6008 456.6772 L256.2002 456.2463 L257.6754 455.5543 L258.3315 455.2673 L258.7728 455.5792 L259.3726 455.3574 L260.7622 457.1641 L260.831 457.1358 L260.9985 457.0127 L261.2647 456.8164 L261.5025 457.227 L261.795 456.7534 L261.7105 456.6003 L261.7887 456.196 L262.3039 455.1899 L262.7569 454.9987 L262.8594 455.0316 L263.4806 455.042 L264.3193 456.237 L266.7849 458.6259 L267.497 458.2193 L269.1998 459.1348 L269.5048 459.643 L269.759 458.9823 L269.4033 458.3972 L268.5178 457.4829 L268.7221 457.0093 L268.6353 456.0366 L268.271 455.2239 L268.1069 454.4575 L268.6766 452.3417 L268.7202 452.1535 L268.3675 450.5749 L268.1576 450.263 L267.2427 449.5768 L267.2712 448.5816 L267.2679 448.5325 L267.6566 447.9098 L268.2109 447.5973 L268.9842 447.6297 L269.4912 447.8671 L269.5273 447.9087 L270.4369 447.9064 L270.5736 448.9564 L270.716 449.0003 L271.46 449.3752 L277.554 448.484 L277.7234 448.9582 L277.7696 448.9778 L278.3032 448.9969 L278.612 449.0096 L279.2373 448.9605 L279.7086 448.8871 L279.9723 448.9622 L280.106 449.013 L281.9744 448.276 L280.1454 446.2948 L282.8833 444.4349 L287.116 447.9641 L286.1433 450.5056 L285.0654 450.5056 L285.6663 451.9149 L285.4635 454.1155 L283.0335 456.1198 L284.6072 457.1768 L282.2862 460.3997 L283.7621 467.2901 L283.7621 468.451 L283.1871 469.3318 L283.1913 469.3705 L283.0433 470.2438 L282.4969 471.1459 L281.9496 471.8026 L281.5144 471.8939 L281.1981 472.3773 L281.1981 472.4038 L281.1748 473.4619 L280.9852 474.4813 L280.8691 474.5957 L280.8214 475.1969 L279.9884 474.6551 L279.5471 474.6673 L278.7412 473.8529 L277.4713 473.0368 L279.6271 476.7967 L283.7434 475.4164 L285.118 473.4065 L286.0118 473.6028 L285.1142 472.3322 L286.2672 472.8231 L285.1968 468.8669 L285.6911 465.4153 L285.6851 465.3512 L285.7542 464.5652 L285.8191 464.5201 L286.0419 462.9641 L284.4682 463.2414 L288.1864 454.9819 L290.1694 454.8087 L290.9243 456.9169 L289.2286 459.8019 L289.1696 459.9728 L288.8999 460.5516 L288.6359 460.8103 L288.2765 461.422 L288.8722 462.029 L289.096 462.04 L289.0693 462.2306 L290.3158 463.5013 L293.5307 458.3031 L293.818 458.3874 L293.9885 458.3181 L294.2086 458.3302 L294.5189 458.4001 L294.787 458.5162 L294.9601 458.723 L295.0443 458.7478 L295.0278 458.8038 L295.0631 458.846 L295.0739 459.2266 L295.0946 459.6477 L294.9361 460.1929 L294.4437 461.5335 L294.1868 462.9312 L293.785 464.9042 L293.7658 465.48 L294.3532 467.833 L297.3428 473.6086 L301.2111 477.8126 L301.29 477.8634 L301.9777 478.5236 L302.6304 479.428 L302.8392 480.8193 L303.1615 481.6775 L303.2291 481.6584 L303.2204 481.5735 L302.9617 480.776 L302.7611 478.9174 L302.6417 478.2619 L303.2005 478.2348 L304.4538 478.367 L306.053 478.981 L306.9258 479.3523 L307.1087 479.6873 L307.1722 480.2602 L307.2278 480.6015 L308.5498 478.8123 L311.353 480.2949 L312.2796 480.5906 L312.9049 481.115 L313.9017 481.6423 L313.9602 485.2853 L314.4166 485.6648 L314.7065 485.7254 L316.1776 485.4944 L317.939 490.2879 L316.9994 490.3439 L317.0106 490.4935 L317.4204 492.8307 L317.2747 492.9121 L317.5755 494.4379 L317.8534 494.2975 L318.3161 495.3226 L318.632 495.9665 L318.9598 496.3847 L319.1262 496.7583 L319.2543 497.1146 L319.2415 497.3306 L318.9918 497.4259 L318.2053 497.7123 L318.2339 497.8827 L318.6928 497.6402 L319.5713 497.3502 L320.384 497.3318 L320.5891 497.4536 L320.218 497.9994 L320.0603 498.3049 L320.126 498.466 L320.4129 498.4585 L320.7284 497.8463 L320.9308 497.7279 L321.407 497.6985 L321.8093 497.8706 L321.9407 498.4082 L321.9565 500.0033 L322.0553 501.0584 L322.0339 501.6324 L322.0977 502.2116 L322.1161 502.5939 L322.0425 502.7949 L321.9899 502.8007 L321.8299 507.0585 L319.5014 508.6928 L322.5593 511.1904 L323.4772 511.5565 L324.8191 511.7476 L327.5345 511.6853 L327.7677 511.8158 L327.8233 512.0 L328.0381 511.9844 L327.9893 510.7833 L333.5214 511.8285 L336.1617 509.9921 L336.6049 511.482 L340.3332 510.5061 L340.2873 510.3138 L340.5818 510.0094 L341.2578 509.95 L341.769 509.8616 L342.3545 509.645 L343.2483 509.201 L344.0509 509.2477 L344.4896 509.4175 L348.0297 508.4907 L348.8582 511.6535 L349.0806 511.672 L349.3923 511.5756 L350.7875 509.0208 L350.9494 508.4884 L351.6097 506.6052 L352.0209 506.4048 L352.2417 506.4527 L352.345 506.2789 L354.4779 509.4366 L354.6484 509.3494 L355.0551 508.6934 L355.7691 507.3426 L355.8566 507.2208 L356.788 505.2798 L356.0883 503.9776 L356.0455 503.9557 L355.1817 503.1304 L355.0164 502.7395 L354.9898 502.4969 L355.072 502.0869 L355.0529 502.0517 L355.0814 502.0401 L355.1994 501.4505 L355.1866 501.4158 L354.7412 501.3298 L354.8249 501.0029 L354.6033 500.8337 L354.5023 500.5779 L354.5785 500.251 L354.9718 499.7573 L355.2797 499.2317 L355.2857 499.1191 L348.732 496.0745 L348.945 496.0826 L348.4646 495.8857 L348.3993 495.8181 L349.2071 495.6287 L350.0003 495.6068 L351.6082 495.6859 L353.9829 495.8014 L354.0651 495.6016 L354.2281 494.9865 L354.3295 494.5366 L354.7862 493.6565 L355.4735 491.2234 L355.5794 491.2494 L355.7747 490.8278 L355.931 490.7695 L356.2588 491.1091 L356.8286 491.5289 L356.8819 491.5665 L357.9373 491.8241 L357.6593 489.6988 L358.3842 487.8796 L357.5504 486.9613 L356.9495 486.7534 L352.961 485.298 L350.7939 492.1648 L346.1181 493.2447 L345.2971 493.3729 L345.5059 493.5115 L345.765 493.6461 L345.8721 493.8794 L345.8991 494.122 L345.7677 494.4743 L345.7106 494.8987 L345.7831 495.6483 L345.7384 495.981 L345.5956 496.16 L345.9153 496.7733 L344.8975 499.4298 L341.2544 501.4742 L337.9156 506.1807 L336.9992 505.0951 L339.0386 503.4781 L340.7211 500.4693 L340.2359 498.5428 L340.1457 498.3805 L339.893 497.181 L339.4254 495.3151 L339.2538 495.2146 L339.072 494.7018 L339.0142 494.4154 L338.9796 494.0538 L338.968 493.6247 L338.9849 493.5566 L338.7419 492.5864 L339.2451 492.7423 L339.6748 492.4714 L339.8453 492.0348 L339.9888 491.5434 L340.0917 491.3436 L340.412 491.3181 L340.7008 491.3384 L341.0381 491.3742 L341.4148 491.3638 L343.9638 489.7409 L344.0032 489.4424 L344.7255 487.9922 L344.6496 486.6033 L339.1775 485.1999 L337.9757 479.3321 L338.2348 479.0543 L338.2499 478.6916 L338.5563 478.713 L339.8776 479.0832 L339.9215 479.0953 L340.6148 479.1121 L340.836 478.9844 L341.1466 478.7748 L343.1556 477.1744 L339.4404 475.7109 L343.9473 472.725 L336.9391 464.4658 L340.1165 458.742 L346.6409 455.6248 L346.6664 455.5312 L346.6792 455.0582 L346.8962 454.9692 L347.2827 455.0888 L347.8352 454.6533 L348.4654 454.6319 L350.4604 453.4502 L352.0934 452.6669 L352.6631 452.6848 L352.8321 452.8315 L358.0721 452.3192 L358.3868 452.1927 L359.6431 451.8029 L360.7112 451.7122 L361.2592 451.7901 L361.5566 451.979 L361.6952 451.9652 L361.7504 451.86 L362.0813 451.8514 L362.5695 451.5187 L363.0612 451.2137 L363.1656 451.1669 L364.8421 450.081 L365.2128 449.6675 L365.5771 449.4601 L365.7686 449.4815 L366.0421 449.3042 L368.9753 451.655 L371.131 450.1937 L369.2382 456.2237 L366.8424 457.6631 L366.6757 458.1546 L366.3932 458.6034 L366.2933 458.6975 L366.0961 458.664 L365.8562 458.496 L365.5497 458.474 L365.3784 458.537 L364.1642 459.2618 L364.4065 459.6101 L364.7276 459.7152 L364.957 459.81 L365.0768 460.0006 L365.3416 460.4153 L365.3638 460.6636 L365.2748 460.789 L366.5641 462.4501 L373.6849 457.7081 L375.1647 454.9011 L375.4644 454.9334 L375.4719 454.7942 L375.5173 454.4552 L375.6266 454.1929 L375.8696 454.1381 L376.9103 454.551 L379.3106 455.0073 L380.3577 455.2251 L380.5973 455.3932 L380.6078 455.4896 L382.0169 455.6415 L382.1935 455.5774 L382.9104 455.31 L383.1801 454.9733 L383.268 454.7411 L383.461 454.8422 L383.9391 453.7124 L383.8531 453.6985 L383.8801 453.3294 L383.9436 452.9003 L384.62 451.6746 L384.4063 450.8729 L383.541 450.6344 L383.3803 450.4062 L382.9416 449.2169 L382.9668 448.9738 L383.0486 448.8005 L383.3033 448.6226 L383.5083 448.5423 L384.1198 448.987 L384.7361 450.0591 L384.9573 450.5627 L385.1473 450.8591 L385.5417 449.928 L385.5417 442.8061 L385.9484 442.8713 L385.9202 442.6149 L386.2173 442.5952 L386.7503 442.9863 L386.7792 443.0053 L388.396 443.2653 L388.4764 443.2173 L388.7539 443.323 L390.3865 443.5858 L390.4079 443.7649 L390.6607 443.9029 L390.7771 444.4632 L390.5364 444.8341 L390.6119 445.4631 L392.9517 446.6414 L394.3525 447.1035 L395.2126 449.0789 L399.1073 448.8883 L402.7852 448.7138 L402.7882 448.6861 L403.1863 448.6578 L403.4759 448.6832 L403.6073 448.7416 L403.7377 448.8837 L403.871 449.6686 L404.4644 450.4178 L404.5985 450.7845 L404.4817 450.9185 L405.4469 452.3597 L401.9766 454.9299 L398.3111 455.1263 L398.3111 455.5763 L398.4196 455.656 L398.4703 456.7788 L398.4429 457.4245 L398.4125 458.9303 L397.9392 460.6711 L397.5224 463.5013 L398.9082 460.3246 L400.0176 460.0237 L400.4064 459.7776 L401.3787 459.3826 L402.2865 459.1561 L402.78 459.0695 L403.2577 458.9858 L403.9709 459.0741 L404.0869 459.408 L404.1219 459.5085 L404.2762 460.5187 L404.3529 461.329 L404.508 462.4501 L405.2666 460.9022 L405.3537 460.9178 L405.445 459.0724 L405.6546 457.6642 L405.792 457.022 L406.45 456.9388 L406.9323 457.3922 L407.1659 457.0289 L407.2692 456.9619 L407.3814 456.9775 L407.6158 457.3529 L407.6785 457.9178 L407.8727 458.4249 L408.2186 458.5532 L409.7997 458.3498 L411.0849 458.0027 L411.7531 457.6827 L411.9942 457.5568 L412.4817 457.4869 L413.11 458.5 L413.1386 458.4706 L417.0674 456.4686 L417.7239 455.9991 L418.925 455.1997 L419.3772 454.9981 L419.7993 454.9513 L420.0089 455.0114 L420.0618 455.0212 L420.3758 454.8953 L418.6294 453.6823 L419.8913 452.9777 L418.8322 449.3908 L422.0659 445.388 L431.2298 441.1714 L426.2298 436.9634 L426.098 436.9819 L425.6608 436.8473 L425.0843 436.2477 L424.6731 435.6533 L422.9109 434.1706 L423.0799 427.909 L419.328 419.3019 L415.7863 417.2223 L415.7803 415.48 L415.579 415.264 L415.1944 414.7995 L414.4951 413.9417 L413.2336 412.4721 L413.0026 412.2676 L412.7536 411.9938 L412.5027 411.0897 L412.6203 410.2838 L412.7483 410.2064 L413.1363 408.7045 L413.1352 408.6426 L412.7833 407.8599 L412.1399 407.6594 L412.0291 407.0812 L411.7448 406.0153 L411.3381 404.8322 L411.2423 404.4324 L409.1049 399.678 L409.0832 397.4839 L408.9431 396.5 L408.8342 395.7611 L409.0441 394.764 L408.6922 394.6548 L408.6768 394.69 L408.6141 394.7807 L408.483 394.8212 L408.2362 394.8067 L407.7427 394.6317 L407.5129 394.5318 L407.339 394.4203 L407.2714 394.3284 L407.2316 394.2025 L406.5248 393.9933 L405.06 387.3033 L400.2828 392.9477 L398.3486 393.3289 L396.4144 393.7045 L397.9355 395.0505 L397.6027 395.4578 L397.4206 395.8345 L397.045 397.0101 L397.8878 397.5948 L397.9449 397.7958 L397.958 398.0119 L397.5655 398.0448 L397.5171 398.1609 L397.9561 398.86 L398.1815 398.8548 L398.4894 398.9564 L398.7309 399.3007 L398.7031 399.5705 L398.7238 399.8501 L398.5435 400.2464 L398.4192 400.6312 L398.0928 401.2632 L397.4082 401.8623 L396.8557 402.2372 L395.8503 402.8553 L394.973 403.1459 L394.6605 403.4504 L393.921 403.2736 L393.2942 403.2591 L392.3669 403.2158 L391.209 403.2557 L390.4267 403.1511 L389.3207 402.7178 L388.47 402.2846 L388.7791 402.1089 L388.7945 402.1009 L388.4625 402.0252 L388.1357 402.1708 L386.932 403.1292 L386.4663 402.972 L386.2252 402.8628 L385.829 402.5775 L385.3081 402.1546 L385.3655 401.5867 L385.4943 401.3429 L384.7868 401.18 L385.1552 400.578 L385.1094 400.5705 L385.0095 400.1644 L385.1492 399.6762 L385.4282 399.2002 L385.9867 398.7485 L386.7104 397.9587 L387.4165 395.9194 L387.8383 395.7334 L389.1862 395.1667 L390.0707 395.537 L390.3073 395.4636 L390.4087 395.1072 L390.4793 393.6045 L390.5672 393.4 L390.7827 393.348 L390.9476 393.3162 L391.1283 390.2896 L391.0137 389.4282 L391.0532 389.2849 L391.1474 389.1353 L391.1996 389.0902 L391.2053 388.996 L390.3291 389.2416 L389.9129 389.5749 L389.2602 389.7523 L387.5224 390.1596 L387.3977 390.0631 L386.8562 390.215 L385.3426 387.3726 L385.7809 387.13 L385.7809 387.0809 L386.0149 386.7464 L386.2564 386.5263 L386.5527 386.3316 L386.6057 386.0063 L386.4671 385.651 L385.7238 384.5833 L385.5481 384.0749 L385.5563 383.6301 L385.817 383.3094 L382.3193 376.9733 L382.5931 376.5053 L382.7752 376.068 L383.0629 375.7017 L383.9797 374.1342 L383.9203 374.0285 L382.3493 372.7326 L380.1124 371.9157 L380.0798 371.944 L379.7534 372.0485 L379.335 371.7498 L377.9585 371.2281 L376.7529 371.3674 L376.4048 371.1761 L376.2133 370.9987 L375.9868 370.6948 L375.8752 370.3932 L375.8771 370.3684 L374.9318 370.0229 L373.6395 371.0074 L372.939 371.4147 L372.2991 371.7654 L366.5863 375.5469 L366.4882 375.6335 L366.4529 375.6347 L366.0195 375.9218 L355.3785 370.5672 L354.8775 370.4158 L354.6202 370.1853 L352.1159 368.9251 L353.7121 366.1114 L358.2599 366.58 L358.8439 366.4049 L359.4178 366.0796 L359.77 365.774 L360.4269 365.2563 L362.4726 363.5813 L363.83 362.6569 L364.8016 362.0629 L365.4321 361.6845 L365.526 361.6215 L363.2178 358.5772 L364.337 357.1957 L364.7246 356.5982 L365.3071 355.9742 L365.4701 355.8205 L366.0984 355.0584 L367.1616 354.2986 L367.5939 353.9323 L367.7314 353.8092 L363.2647 349.5323 L362.8933 349.3162 L362.8561 349.2157 L362.8208 349.084 L362.8279 348.9626 L362.9489 348.735 L363.0991 348.3473 L364.0324 347.2188 L364.7186 346.4104 L365.0554 346.4567 L366.7737 347.2396 L368.1734 348.3917 L369.2874 349.6473 L369.8616 350.0489 L370.5703 350.4048 L371.0642 350.4736 L371.578 350.547 L372.0594 350.6608 L372.3096 350.6591 L372.4868 350.6388 L372.7456 350.5949 L373.2759 350.3008 L373.7578 349.9911 L374.0928 349.6537 L374.4845 349.1932 L374.791 348.7136 L375.1192 347.6394 L375.4137 346.8363 L376.2602 345.7454 L377.6171 344.105 L378.3521 343.1435 L379.169 343.7762 L381.0296 344.8492 L383.6578 343.5809 L383.8843 343.3035 L384.6065 341.0928 L389.4521 338.5671 L389.7529 338.1158 L390.1187 337.7454 L390.8154 337.267 L391.6323 336.8983 L392.7252 336.5262 L393.6562 336.376 L398.8631 333.6619 L398.5101 329.877 L399.0772 329.4043 L399.4686 328.8924 L400.7812 327.9834 L401.1316 327.6985 L397.0003 319.805 L397.6985 317.7622 L397.6061 317.1167 L397.457 316.0933 L398.1774 315.6605 L397.4548 313.7679 L397.261 313.4351 L397.1445 313.0294 L397.1423 312.9502 L396.0554 310.1024 L395.9758 310.0412 L396.0189 310.0071 L395.8698 309.617 L399.25 308.5768 L398.1233 302.6938 L402.724 300.4978 L401.6762 302.2199 L403.5255 301.2057 L403.5589 301.1335 L403.616 301.156 L404.4366 300.7058 L407.0168 298.1977 L409.4189 301.7524 L409.4445 301.7322 L409.7874 301.8333 L410.6072 302.7441 L412.0708 304.6541 L412.3679 304.249 L412.3352 304.1166 L412.3983 303.8537 L412.831 303.6173 L413.3263 302.9654 L414.3456 302.7175 L414.8016 302.484 L416.1612 301.9391 L417.357 301.8293 L418.0352 301.7385 L418.51 301.4912 L417.6529 300.1164 L419.0388 299.3478 L420.2504 301.553 L420.2913 301.5542 L421.2058 299.9719 L423.8911 298.3884 L421.664 294.0772 L421.7894 293.9824 L421.7508 293.931 L421.8041 293.6033 L422.2454 292.9687 L422.7479 292.3746 L423.5929 291.528 L423.9103 291.4251 L424.2089 291.3916 L424.4481 291.4332 L424.5285 291.5834 L424.0038 289.3613 L426.5314 284.9632 L427.5041 285.9457 L426.8544 284.42 L427.6393 283.7727 L421.6415 275.9299 L421.0443 274.6527 L421.3046 274.5538 L421.2847 274.3255 L421.3155 274.1342 L421.4507 273.9886 L421.679 273.8845 L422.7299 273.58 L423.2808 273.4597 L423.9035 272.9217 L424.2637 272.4529 L424.4395 270.7976 L418.0585 270.8323 L414.0437 273.2135 L408.3162 273.1268 L408.0721 269.9365 L408.6392 268.1101 L407.6027 267.8789 L406.316 267.9621 L406.0546 268.4644 L405.8732 268.7094 L405.6106 268.6447 L405.3774 268.5655 L405.0875 268.5355 L404.7555 268.4569 L404.3889 268.2517 L404.2071 268.0991 L403.9446 268.1159 L401.233 264.7752 L400.9866 265.1416 L400.4338 265.6739 L399.8291 265.6311 L399.5797 265.5653 L397.4033 266.6056 L397.0176 267.1495 L396.8636 267.0726 L397.1843 268.9944 L393.6728 273.7048 L392.332 271.9073 L395.572 266.4247 L395.2528 266.2588 L394.8536 266.0889 L394.5937 266.0496 L394.3927 266.0721 L394.0957 266.2149 L393.8125 266.3363 L392.4232 268.6724 L391.2612 270.819 L391.167 270.7843 L391.1489 270.815 L389.6579 270.815 L384.3504 265.7907 L382.9172 265.1815 L381.8378 264.6237 L378.357 263.3244 L376.1757 261.9933 L375.8929 262.2956 L375.6811 262.6904 L375.3074 263.6481 L370.8005 262.8678 L372.9526 257.718 L372.1451 255.7065 L374.427 253.4119 L379.0556 248.7433 L379.074 248.6971 L379.3883 248.1445 L379.7061 247.811 L380.5256 247.2023 L380.6529 247.1335 L383.2732 244.4932 L383.0892 238.5221 L381.3841 237.7823 L375.9045 240.3545 L375.7423 240.8314 L375.8921 241.0817 L376.0221 241.5684 L375.7641 242.2695 L375.458 243.1932 L375.1778 244.344 L374.5412 245.4243 L373.994 246.4214 L373.7484 247.0289 L373.5103 247.5156 L373.1764 248.3734 L373.1291 248.5104 L373.0675 248.474 L372.8759 248.6502 L372.4091 248.7364 L372.0223 248.3977 L371.6828 247.9913 L371.2208 247.3751 L368.6147 245.8238 L368.4386 245.7885 L368.3541 245.6688 L366.9322 244.8226 L365.6252 243.0886 L364.4421 244.2273 L364.7614 246.0249 L362.0347 245.8804 L362.4629 241.7129 L360.0029 238.2216 L349.4719 228.4931 L350.3511 226.9219 L350.2884 226.7404 L350.6538 225.989 L351.2987 225.0282 L351.518 224.6531 L351.7099 224.2658 L352.0262 223.9293 L352.1572 223.6952 L352.2106 223.7334 L352.4844 223.442 L352.8584 223.286 L353.3365 223.3091 L354.4895 223.9184 L354.9872 224.245 L355.6515 224.6386 L356.9935 226.0687 L359.3671 228.1532 L360.0724 228.3521 L360.9843 228.015 L361.2652 227.963 L361.6746 228.0324 L362.0111 228.152 L362.147 228.6284 L362.4865 228.9151 L363.0364 229.0787 L365.1929 229.1463 L365.8021 229.3781 L366.2907 229.5983 L366.4961 229.9851 L367.0433 229.9937 L367.9289 230.1255 L368.5516 230.0978 L368.8314 230.0827 L368.8652 230.0735 L365.5914 226.0826 L366.2678 225.2167 L366.299 224.856 L366.4477 224.5057 L366.6246 224.2663 L366.8037 224.0808 L365.9407 220.5274 L364.3633 220.5274 L364.6494 217.5128 L364.592 216.2971 L364.8001 215.2184 L364.8609 214.1073 L365.0295 213.5078 L365.1182 212.6713 L365.2763 212.7326 L365.3465 212.5054 L365.5628 212.2933 L365.831 212.2638 L366.6058 212.3962 L367.7171 213.1194 L368.6797 213.4766 L372.4343 215.201 L373.4536 215.5063 L374.1431 215.7537 L374.3561 215.9595 L374.4436 216.2844 L374.7436 217.5001 L374.7459 217.6688 L376.3402 224.9716 L376.9392 225.8317 L377.0042 226.1711 L377.6415 227.2746 L378.1809 227.2422 L378.8663 227.0566 L379.8319 226.4583 L380.5244 225.9861 L381.1081 226.5017 L381.8074 227.1399 L381.8663 227.1722 L381.4029 226.4179 L382.3493 225.0537 L381.17 222.7645 L383.6788 219.1632 L384.1149 216.5121 L385.1391 216.1843 L384.1408 210.3648 L383.0543 203.1062 L381.7597 200.0052 L379.7301 199.0161 L364.5135 204.3526 L355.9467 205.081 L354.8726 201.4505 L352.5069 202.7379 L352.692 203.7542 L352.7217 204.0051 L352.7285 204.3347 L352.3818 204.4376 L352.191 204.4694 L351.8786 206.9939 L351.8816 207.2558 L351.8188 207.4784 L351.5976 209.2664 L349.9902 210.9082 L350.6471 211.6759 L350.7455 211.6695 L351.0174 211.7227 L351.3978 212.0048 L351.6427 212.1453 L351.862 212.2881 L351.6427 212.8043 L351.622 212.8164 L351.7404 212.9546 L351.2465 213.039 L350.3699 213.5575 L349.9943 213.6986 L349.6916 213.7899 L349.0535 213.6304 L349.1609 213.3945 L346.0805 213.92 L344.6271 206.7286 L346.6814 204.5491 L345.5247 203.3236 L344.9801 200.9071 L342.1182 202.9131 L340.2329 201.9534 L341.4084 200.3116 L340.7812 198.9357 L338.7794 194.2414 L336.1767 194.8022 L335.2153 192.2758 L330.1413 191.0328 L329.2212 183.754 L330.7422 181.031 L337.6565 177.7875 L329.762 176.7873 L330.5507 175.4922 L329.3188 175.076 L331.2943 170.7628 L329.8634 168.1553 L329.578 165.461 L329.8784 165.2493 L329.9024 165.0256 L331.7138 163.4992 L332.797 162.8244 L333.402 162.655 L333.5402 162.4255 L333.7888 162.5463 L334.5437 162.3006 L335.1627 162.7475 L336.0171 163.2615 L335.5232 162.3388 L338.7081 160.3209 L338.8459 160.1642 L339.5031 159.6745 L339.7852 159.6432 L341.2732 158.6788 L343.0008 162.8071 L345.2129 162.6857 L345.2092 166.7619 L345.3602 166.8555 L345.7406 166.7561 L345.9626 167.022 L345.9385 167.214 L346.272 167.421 L346.3438 167.4221 L346.3566 167.2851 L346.4831 167.1562 L347.0213 167.3054 L347.715 167.4482 L348.5041 167.4597 L349.3153 167.2024 L349.5804 167.0579 L352.4017 163.8496 L352.7551 163.2159 L352.8821 163.0892 L353.0417 163.069 L353.8766 163.3685 L354.0336 163.3795 L354.2863 163.0465 L354.3014 162.9453 L354.4463 162.6938 L354.5864 162.6516 L354.8666 162.636 L355.1302 162.7585 L355.2587 162.9274 L355.0814 163.4541 L355.4025 163.4766 L355.5779 163.0326 L355.7188 162.8447 L355.9817 162.8152 L356.3013 162.9684 L356.3922 163.2251 L356.3644 163.5449 L356.8586 163.5796 L356.8969 163.3569 L357.1151 163.2072 L358.1311 163.6697 L359.8301 163.79 L364.8748 169.5938 L365.1493 169.5961 L365.5827 169.2706 L365.8513 169.1989 L366.3091 169.429 L366.9141 169.9904 L367.0569 171.2855 L367.3937 171.8764 L367.3847 172.2192 L367.2758 172.3557 L367.8861 173.0582 L367.3584 173.597 L367.4069 174.0358 L367.4659 174.2561 L367.95 174.7927 L374.8154 175.7293 L376.7946 172.2545 L377.2667 172.3719 L377.2889 172.354 L377.3828 172.2597 L377.5082 172.2146 L377.6532 172.1603 L378.0941 172.4661 L378.6026 172.7038 L380.2198 173.1062 L380.3986 172.7408 L380.5744 172.3031 L380.6998 171.4884 L380.8786 171.141 L381.0236 171.0155 L381.1738 170.8623 L381.4806 170.446 L381.588 170.1881 L381.1715 169.5059 L380.8482 169.0607 L380.2619 168.0148 L379.8041 167.3094 L379.7722 167.1614 L379.8135 166.9683 L380.85 164.5393 L380.8816 164.5139 L375.683 162.0901 L369.486 155.2674 L355.1092 144.9001 L345.6373 142.911 L346.3284 148.1439 L342.9257 148.884 L341.5737 144.8538 L337.4724 144.4375 L337.6978 143.0555 L331.3506 142.7664 L316.3579 143.0266 L311.836 147.317 L308.7864 153.3304 L307.6259 156.233 L308.9366 164.8481 L307.1977 168.7335 L297.2526 180.395 L287.608 182.1699 L280.2844 187.9456 L273.0847 191.3635 L268.7146 193.4176 L263.671 196.0307 L260.6503 197.3511 L258.2057 199.1496 L255.5831 201.462 L243.0729 225.1346 L242.7311 227.1694 L245.2662 227.1751 L245.8033 230.5452 L241.2138 231.8863 L240.1171 231.0018 L238.9566 232.4816 L234.4047 237.7071 L223.0137 246.2041 L207.7092 251.3022 L196.6599 257.9549 L196.089 259.7756 L198.6617 261.7754 L195.6947 263.6597 L197.5744 263.3464 L197.8227 263.0337 L198.5825 262.8545 L198.8731 262.9476 L199.3276 263.0539 L200.3582 262.8823 L200.6597 262.7482 L201.2933 262.6684 L202.0009 262.6048 L202.2863 262.2644 L202.5616 261.6263 L203.1746 261.8084 L203.6677 262.6008 L204.88 264.2532 L206.3417 265.0624 L206.8792 265.1277 L207.2833 265.3965 L207.3761 265.9508 L206.9351 267.3177 L206.5783 267.998 L207.1312 268.4228 L207.4132 267.9569 L207.616 266.9905 L208.0014 266.7721 L208.1982 266.8732 L208.603 266.1739 L210.126 268.4216 L210.7979 268.8551 L211.7139 269.8717 L212.5927 271.212 L212.8804 272.0021 L212.6397 272.1316 L212.9221 272.5489 L211.4123 274.277 L208.3589 271.4507 L210.7137 275.3404 L210.1433 275.8276 L210.0798 276.0993 L210.3337 276.5842 L211.2839 277.5072 L212.4643 278.5105 L212.536 278.6278 L212.7944 278.8313 L216.531 275.782 L216.6872 275.5918 L217.0459 275.2063 L217.5198 274.8243 L218.9023 273.8666 L219.8953 273.3459 L220.6517 272.8246 L220.838 272.6812 L221.4239 271.8992 L221.6973 271.5918 L221.9681 271.2583 L222.1311 271.13 L222.3177 271.1201 L222.474 271.1178 L222.6531 271.2288 L222.6659 271.4837 L222.6881 272.1559 L222.8548 273.5395 L223.0723 274.2267 L223.2991 274.3752 L224.0315 276.1958 L224.5948 276.0929 L224.7101 276.0455 L224.9035 276.0028 L225.0913 276.0028 L225.2746 275.9704 L225.6276 275.5832 L224.2643 275.4098 L224.2624 274.9688 L224.1824 274.948 L224.0578 274.6567 L224.1798 274.288 L224.2591 274.266 L224.2568 273.7684 L225.2934 273.5661 L226.3262 273.3696 L227.0398 274.3579 L226.991 273.4736 L226.4614 272.624 L231.6518 266.5611 L232.5197 266.2675 L232.9212 265.7375 L233.1668 265.5531 L233.4372 265.5023 L233.7024 265.4936 L233.883 265.526 L234.1381 265.6121 L234.3251 265.7953 L234.585 266.2109 L234.7251 266.5351 L234.7949 266.8357 L234.8411 267.5783 L234.7739 267.8211 L234.5891 268.0823 L234.8948 268.4407 L234.914 268.4875 L235.0807 268.4164 L236.4441 267.8384 L235.8169 266.7692 L237.2853 262.4401 L248.4586 264.9139 L248.0154 265.9022 L246.945 269.0117 L240.6129 274.5313 L243.7226 276.6755 L244.6142 275.5924 L247.4708 272.1212 L257.4535 264.9543 L257.5661 262.943 L258.4867 262.2263 L259.1026 261.7465 L259.8331 261.172 L259.8672 261.0125 L260.1493 260.9235 L260.7585 260.4576 L261.7601 260.2987 L262.0504 260.0108 L262.4084 260.0386 L262.7321 260.0918 L262.8046 260.1334 L263.2372 260.0646 L266.6399 255.5851 L270.0313 254.6315 L269.1112 258.7352 L266.2042 260.4172 L267.6427 261.7581 L266.3169 263.3129 L265.1864 262.2552 L265.9526 261.0761 L265.2015 260.7813 L262.8804 263.8215 L257.9943 265.0931 L259.5379 267.5148 L254.847 272.0518 L248.3684 272.9823 L250.3927 276.2363 L247.929 280.0912 L246.7009 278.9411 L244.9132 281.2413 L222.8259 295.233 L211.371 294.736 L204.9863 299.29 L204.115 299.8794 L204.8699 301.1971 L205.025 301.8507 L205.2856 302.0992 L205.8219 302.4211 L206.0871 302.2604 L206.371 301.8657 L206.4968 301.5218 L206.7338 301.2421 L207.0433 300.8341 L207.7595 300.7867 L208.2023 300.9353 L208.3375 301.278 L209.7598 302.2315 L208.0547 304.3408 L206.6689 303.9172 L206.3004 304.1825 L206.252 304.2287 L206.0191 305.3984 L207.1533 308.0971 L201.5697 306.4161 L201.0623 306.6149 L200.6702 306.9223 L200.1373 306.553 L200.1621 306.1872 L200.3668 306.0537 L192.7765 303.7687 L196.978 304.1056 L197.4546 303.9305 L197.8418 303.663 L199.0301 302.784 L199.8256 302.5638 L200.5377 302.187 L201.1254 302.0096 L201.1502 301.5259 L201.1581 300.9867 L201.5303 300.5729 L198.0732 302.2182 L196.2483 303.1608 L196.16 303.1284 L195.4581 303.4624 L193.4 302.4222 L185.5468 299.9025 L185.14 298.8317 L185.0206 298.7317 L184.8775 298.1405 L184.6957 297.6608 L184.5549 297.4505 L184.3983 297.3996 L184.0239 297.2222 L183.6513 297.2008 L183.213 297.0563 L182.8926 296.9269 L182.3071 296.5981 L182.1869 296.4079 L182.1644 296.3686 L182.0765 296.3311 L181.0287 297.0072 L181.9826 298.0359 L181.701 298.452 L181.8489 299.2073 L182.0724 299.4431 L181.4114 300.0048 L181.7971 300.4568 L182.2928 301.5802 L181.841 301.7016 L182.17 302.7955 L182.0562 303.3856 L181.5222 304.3206 L177.5434 308.0683 L172.8751 316.9734 L169.5802 319.2728 L167.1439 321.6715 L161.7807 328.3168 L159.7789 328.3168 M169.4949 319.5449 L170.4338 319.0942 L171.7483 319.2213 L174.1219 321.371 L179.5414 319.4814 L181.2315 320.5446 L179.1321 325.0924 L179.5001 326.4561 L179.2372 326.4388 L176.4955 325.4333 L175.951 322.8792 L169.4949 319.5449 M191.8083 346.7854 L192.0145 345.1208 L191.9649 344.6296 L192.2113 344.0766 L192.757 343.5364 L192.9459 343.2272 L193.1104 342.6974 L193.1209 342.5044 L193.1172 342.4726 L193.2745 341.8792 L193.9847 341.0968 L194.2578 340.8183 L194.5477 340.6606 L194.793 340.9108 L195.2305 341.1176 L195.3526 341.5689 L195.5148 343.3879 L195.5602 343.7987 L195.2346 343.7392 L194.6784 343.3214 L194.3088 343.5312 L194.2059 343.8721 L194.058 344.3696 L194.5939 344.6914 L195.0397 344.6677 L195.179 344.9607 L195.2038 346.0447 L195.309 346.7045 L195.0506 347.254 L194.2826 347.7533 L193.3917 348.1017 L192.9651 348.2773 L192.4362 348.1127 L192.0164 347.7758 L191.8624 347.5372 L191.8083 346.7854 M195.2628 340.4814 L195.4104 340.2607 L195.6819 340.0117 L195.8776 340.0538 L196.1123 340.1555 L196.3242 340.3676 L196.5897 340.5999 L196.8278 341.0067 L197.2582 341.4556 L198.1006 341.9803 L199.4406 342.0011 L200.0288 342.1161 L200.3578 342.2074 L201.0331 341.9722 L201.5235 341.4655 L201.6674 341.3031 L202.0557 341.2806 L202.4643 341.3649 L202.9995 341.3048 L203.2658 341.1454 L203.3852 340.8599 L203.2087 340.6762 L203.3109 340.3751 L203.4412 340.0018 L203.6793 340.1267 L204.0511 340.378 L204.3576 340.5999 L205.2128 341.0275 L204.7951 341.3921 L202.944 342.8141 L201.0965 343.6918 L200.0607 343.8397 L199.3505 343.7733 L198.0518 343.2642 L197.4539 342.7927 L196.9176 342.0005 L196.1653 341.332 L195.5632 340.6646 L195.2628 340.4814 M208.932 265.1988 L209.0147 265.0485 L209.2032 264.9173 L209.4116 264.915 L209.5638 265.0185 L209.75 265.2011 L209.9927 264.8041 L209.8037 264.1879 L209.7831 264.1729 L209.4481 263.6926 L209.3827 263.3395 L209.4068 263.1799 L209.4826 263.0667 L209.658 262.9528 L210.1684 262.8071 L210.2954 262.8245 L210.5233 263.0915 L211.3075 264.003 L211.4536 264.3319 L211.5017 264.5099 L212.0245 265.2144 L214.7812 266.0987 L212.8921 263.6654 L213.0885 263.6076 L213.1313 263.4279 L213.3086 263.2406 L213.5189 263.1597 L213.8171 263.0273 L214.1356 262.9395 L214.4071 262.8933 L214.7154 262.8066 L215.2104 262.6626 L215.4211 262.6806 L215.6037 262.7285 L215.7727 262.8181 L215.8778 262.7869 L220.1856 265.1104 L220.4147 264.9543 L220.2465 264.8145 L220.1413 264.5226 L220.1755 264.2683 L220.2728 264.1579 L220.6682 264.103 L221.1895 264.0556 L221.7247 263.9434 L222.2265 263.7198 L223.4944 262.8557 L223.8519 262.4823 L224.0544 262.1933 L224.1363 261.9436 L224.1366 261.7997 L223.5996 258.3306 L223.8929 257.9018 L223.8362 257.7203 L223.7197 257.3931 L223.6856 257.1775 L223.7535 256.992 L223.9143 256.8434 L224.0277 256.7839 L224.4341 256.6862 L224.6031 256.6094 L224.7627 256.4504 L225.0906 256.1516 L225.684 255.2846 L225.9243 255.2441 L225.9367 255.2765 L226.2327 255.1777 L226.4077 255.1586 L226.6995 255.2042 L226.8787 255.3152 L226.9579 255.4632 L226.968 255.6505 L226.7743 255.9701 L226.6879 256.1782 L226.7303 256.3724 L226.8449 256.6053 L226.9523 256.6822 L227.178 256.6464 L227.2865 256.7336 L227.3019 256.8735 L227.2689 257.044 L227.0668 257.3388 L226.9324 257.7249 L226.9226 257.8757 L227.0886 258.3133 L232.5719 259.9259 L231.479 261.0593 L231.4595 261.116 L231.3273 261.3818 L231.12 261.6298 L230.8334 261.7708 L230.791 261.7725 L228.9101 263.7232 L228.4219 263.4649 L228.2931 263.5036 L227.925 263.5707 L227.4078 263.5602 L227.1543 263.3897 L226.991 263.0944 L226.9098 262.7846 L226.9365 262.6794 L226.4839 262.4401 L225.592 258.0127 L225.56 258.1503 L225.5326 258.3757 L225.6303 260.8876 L225.6964 261.2934 L225.7471 261.565 L225.8571 261.8506 L226.2034 262.7574 L226.1857 262.9331 L226.0663 263.1244 L225.9127 263.2291 L225.7058 263.3528 L225.5446 263.3955 L224.7563 264.3359 L224.3222 264.9347 L223.7986 265.6595 L220.945 265.6098 L220.7291 265.7335 L220.9443 267.0351 L222.1799 266.1912 L221.778 267.3472 L220.8504 267.8327 L222.6907 269.3701 L219.6561 271.942 L217.0233 271.2716 L218.2364 270.815 L217.8421 269.6822 L215.8144 270.0313 L215.7058 271.1207 L215.6608 271.3242 L215.595 271.5305 L215.4335 271.6738 L215.26 271.6467 L215.0967 272.1385 L214.5085 271.4629 L214.0721 271.2456 L213.6406 270.7861 L213.3822 270.2919 L213.2158 269.9775 L212.3099 268.9366 L209.2227 266.0641 L209.3914 265.7878 L209.1919 265.6144 L208.9606 265.363 L208.932 265.1988 M212.216 358.0745 L213.8535 357.5025 L215.8628 356.1331 L215.9868 356.0696 L215.7652 357.7856 L216.9182 359.4207 L215.0328 360.7727 L218.0299 362.2981 L213.8422 363.835 L214.4957 361.3794 L212.9108 359.4092 L212.216 358.0745 M242.6147 237.973 L244.5218 235.9776 L244.5785 235.8106 L244.7802 235.3701 L245.0442 235.4718 L245.982 236.099 L246.7674 236.5967 L246.8357 237.0707 L246.9886 237.5557 L247.7393 238.1643 L248.7034 238.7713 L249.6187 239.6418 L249.9717 240.1932 L250.3338 240.8221 L250.3503 241.0661 L250.2346 241.3406 L249.4313 242.3389 L249.4012 242.4874 L248.4661 243.6955 L248.083 242.5337 L242.6147 237.973 M249.4087 264.8676 L251.4785 263.7614 L251.5142 263.7071 L252.0002 263.0961 L252.1681 262.4679 L252.2804 261.1032 L252.3337 256.3516 L252.5068 254.5823 L252.6094 254.3176 L252.6499 252.7529 L253.7879 251.1172 L254.2686 251.3022 L254.3396 251.3241 L254.3595 251.3137 L254.444 251.3553 L257.1906 252.1923 L255.6507 252.8685 L253.4784 254.7366 L253.3868 254.9083 L253.3965 257.3729 L253.086 261.0131 L252.9804 264.2665 L250.911 266.6189 L249.4087 264.8676 M254.367 260.4195 L254.3847 259.5843 L254.5822 258.7306 L254.5792 258.1399 L254.6686 257.4399 L254.8057 256.844 L254.9739 256.3857 L255.5985 256.1383 L256.0729 256.0441 L256.6663 256.0354 L257.0824 256.1666 L257.5849 256.9839 L258.2478 258.3168 L258.7916 259.1658 L259.7159 260.1415 L259.3418 260.7888 L258.7082 261.565 L257.8591 262.3239 L257.1538 262.4546 L256.8597 262.2095 L256.8221 261.8691 L255.8757 259.8623 L255.25 260.2946 L254.755 260.5888 L254.367 260.4195 M289.2815 453.8776 L289.5129 452.9811 L289.7401 451.67 L289.6357 449.9805 L289.8719 449.8714 L290.4165 449.9355 L290.5754 450.2491 L290.8796 451.5013 L290.9246 452.6577 L290.0484 454.0826 L289.6492 454.2103 L289.2815 453.8776 M322.0891 206.5667 L322.6149 205.0 L324.5265 203.1097 L327.8766 202.4101 L328.5151 201.7627 L328.6465 201.8898 L329.2587 203.786 L326.7537 206.9829 L323.1106 206.9193 L322.0891 206.5667 M326.5054 346.4607 L326.6256 346.1805 L326.6887 346.11 L326.8814 344.4355 L326.914 343.838 L326.9839 342.6801 L327.0631 342.0756 L327.1536 341.1974 L327.4413 339.3674 L327.5183 338.9034 L327.7564 336.8342 L328.0422 336.8261 L328.1279 336.6666 L328.4636 336.3575 L328.95 336.1356 L329.4724 336.0518 L330.0921 336.0922 L330.6983 336.1038 L332.2276 336.1685 L334.5081 336.1922 L336.7442 336.1419 L338.8102 336.1113 L343.1375 335.864 L349.7183 335.6618 L351.7708 335.6953 L354.1515 335.6693 L356.8597 335.6467 L357.3209 335.8184 L357.5091 336.02 L357.532 336.6025 L357.8697 336.6262 L357.5204 339.0819 L361.2873 337.6316 L362.4929 339.1802 L361.2498 341.5839 L358.0912 340.0816 L346.9518 348.7546 L337.8443 352.9495 L340.2855 361.339 L338.6874 361.2974 L337.6058 361.3794 L335.7508 361.3869 L332.9566 361.1489 L330.7648 361.079 L328.6916 360.559 L327.518 353.3406 L326.9415 353.4169 L326.8585 352.6213 L326.819 352.2648 L326.7578 351.7598 L326.7462 350.8041 L326.7187 350.0859 L326.709 349.6687 L326.611 348.6864 L326.5524 347.402 L326.5471 347.339 L326.5204 346.8299 L326.5054 346.4607 M385.6607 438.8239 L386.4273 439.1572 L386.748 439.1838 L387.4601 439.215 L388.9259 439.7943 L388.9999 439.8354 L390.4079 440.6134 L390.4042 441.2448 L390.3249 442.0846 L389.7672 441.9893 L388.1759 441.2621 L386.407 440.7214 L385.8786 440.4199 L385.82 440.0289 L385.684 438.9995 L385.6607 438.8239 M217.8766 385.1212 L218.1609 385.5424 L218.5016 386.0271 L218.4727 386.0826 L218.9763 386.662 L217.9961 387.0433 L218.4674 387.7874 L218.6172 387.8701 L218.8997 388.2981 L219.4311 388.955 L219.8747 389.3814 L220.1605 389.6107 L220.3573 389.7875 L220.4542 389.9545 L220.4399 390.1544 L220.3359 390.4848 L220.2825 390.568 L220.4204 391.6975 L221.615 393.4006 L223.4452 393.4514 L224.5794 394.8044 L224.605 394.7975 L225.1135 393.8252 L225.0466 393.7016 L225.0515 393.3388 L225.2183 393.1493 L225.3685 393.0493 L225.4917 393.0771 L225.5026 393.0811 L225.53 393.0285 L228.2904 393.8708 L228.4797 393.7004 L228.5826 393.4064 L228.5691 393.2845 L227.6647 391.3924 L226.2849 389.932 L226.4663 389.843 L226.3919 389.7309 L226.5745 389.3548 L227.344 388.8198 L228.221 388.6431 L229.0938 388.8071 L230.0624 389.081 L231.0651 389.5443 L232.3387 390.9655 L232.9175 391.2434 L235.2144 394.2903 L233.1552 396.578 L232.0623 396.5018 L232.463 399.3834 L230.7151 398.7132 L227.9697 398.2048 L226.6225 396.578 L225.1736 397.1626 L224.0807 396.8576 L222.1743 395.307 L220.6288 399.2158 L220.4898 399.8975 L221.887 398.8981 L222.1998 400.6705 L223.7648 399.8917 L224.5129 399.1962 L226.0633 399.2216 L226.7498 401.4267 L226.8911 401.6503 L227.2347 401.6953 L228.2961 401.5353 L228.912 401.4504 L228.9984 401.3955 L228.7096 400.0483 L228.6228 399.8784 L228.6378 399.7138 L228.5496 399.3025 L229.1738 399.3984 L229.2571 399.3943 L229.3417 399.4244 L231.3652 399.7352 L231.74 399.7398 L232.2489 399.6774 L232.6786 399.6976 L232.8795 399.7693 L233.2818 400.0119 L233.3895 400.2412 L233.3941 400.2684 L234.096 401.9668 L236.1286 401.0934 L236.491 401.0616 L236.722 400.9559 L237.8476 400.7675 L238.385 400.6959 L238.5871 400.8796 L238.8004 400.8611 L238.7486 400.7138 L238.6318 400.4134 L238.8011 399.4486 L238.9728 398.7866 L238.8481 398.3666 L238.8222 397.9928 L238.9536 397.5341 L239.2871 396.9217 L239.7633 396.0009 L239.9087 394.8195 L240.1284 394.3128 L240.7605 394.1106 L241.0966 394.073 L241.4098 394.314 L241.7208 393.8258 L242.3195 394.5479 L242.6293 394.3486 L243.1934 393.9413 L243.2006 393.8951 L244.3746 393.0592 L244.5969 392.5872 L244.7889 392.2024 L245.4172 392.088 L245.774 391.8823 L246.133 391.579 L246.2709 391.4057 L246.5259 391.0394 L246.69 390.4635 L247.1283 389.9839 L247.5042 389.9493 L246.029 389.3051 L245.8142 389.3207 L245.2151 389.8418 L244.4689 389.5524 L243.7331 389.0555 L242.8077 388.5004 L242.5238 387.7736 L238.0365 385.8128 L231.4418 386.7914 L231.5962 386.9809 L231.577 387.2756 L230.8879 388.4946 L230.7906 389.0313 L230.5641 389.1399 L229.9978 388.8481 L228.6562 388.3386 L228.2157 387.8441 L227.9483 387.0069 L227.8105 386.7573 L225.61 384.3049 L224.8547 383.6243 L224.7721 383.3713 L224.0653 382.5832 L224.1456 382.3706 L223.9579 382.4024 L223.177 381.7524 L221.7859 380.9615 L221.2361 380.657 L221.1445 380.4901 L220.7602 380.6131 L219.8213 380.3474 L220.6701 381.266 L219.8401 382.4677 L218.4358 384.3655 L218.4888 384.5025 L218.2398 384.6307 L217.8766 385.1212 M233.5067 268.306 L233.7137 269.0002 L234.5204 268.6557 L234.3882 268.4343 L234.0581 268.2309 L233.8485 268.1754 L233.7043 268.1916 L233.5492 268.2505 L233.5067 268.306 M277.9667 449.6392 L278.0347 449.8298 L278.9346 449.4751 L278.2037 449.5566 L277.9667 449.6392 M331.9354 163.6917 L331.997 163.9386 L332.0777 164.0878 L334.5854 166.367 L335.6892 167.0307 L335.9626 166.9411 L334.9186 166.1606 L332.5825 164.0155 L332.8274 163.609 L332.2066 163.4431 L331.9951 163.494 L331.9354 163.6917 M382.2434 227.9555 L382.4395 228.1058 L382.3227 227.915 L382.2434 227.9555" stroke-dasharray="" fill="none" fill-opacity="1.0" stroke="#ff0000" stroke-opacity="1.0" stroke-width="1.0px" stroke-linecap="butt" stroke-linejoin="miter" stroke-dashoffset="0.0px"/>
</g>
</svg>