<?xml version="1.0" standalone="no"?>
<!DOCTYPE svg PUBLIC "-//W3C//DTD SVG 1.1//EN" "http://www.w3.org/Graphics/SVG/1.1/DTD/svg11.dtd">
<svg width="512px" height="512px" version="1.1" xmlns="http://www.w3.org/2000/svg" xmlns:inkscape="http://www.inkscape.org/namespaces/inkscape">
<g id="layer" inkscape:groupmode="layer" inkscape:label="layer">
<path d="M0.0 299.4787 L1.1638 298.864 L2.4398 295.3927 L3.3635 292.936 L3.91 291.913 L4.3564 291.6304 L4.6952 291.6974 L5.7246 292.2718 L6.305 292.7304 L6.5322 292.9505 L6.6951 293.2613 L6.5541 293.6171 L4.7301 296.8019 L4.2932 297.4928 L1.2441 300.5695 L0.9362 301.0227 L0.8554 301.7631 L1.0478 302.5371 L1.1907 303.8762 L2.24 304.5039 L4.8791 305.8963 L5.6463 306.2482 L6.9357 306.7068 L10.08 308.0086 L11.0167 307.9042 L12.8038 308.2104 L13.7634 307.4891 L14.5301 308.5463 L17.3645 309.0095 L18.5572 309.2456 L18.6938 309.3454 L20.2756 309.7194 L22.972 310.6906 L25.3256 311.8918 L26.6294 312.0243 L27.725 312.0868 L27.8346 312.4661 L27.9233 312.131 L28.5072 311.7395 L29.1918 311.6534 L29.8444 311.7059 L30.4049 312.051 L30.8 312.7297 L30.9869 315.0461 L31.9509 313.6331 L32.352 311.7821 L33.2772 311.7974 L35.7763 311.5818 L37.4578 311.0417 L38.5065 310.9031 L38.7531 309.7148 L37.8434 309.2525 L35.6218 307.9872 L34.4649 307.7717 L33.7091 306.6458 L35.1131 303.1289 L34.604 300.7074 L35.005 297.2674 L34.2029 296.1255 L31.8891 295.6784 L30.4239 294.8915 L36.4703 285.8989 L40.6658 285.9766 L42.5939 288.1819 L42.995 288.9536 L43.4887 290.6348 L43.1813 292.1911 L43.98 292.6839 L45.4697 294.1533 L46.3839 294.4763 L48.9532 293.742 L51.0796 292.8439 L51.969 291.9922 L52.5374 290.3316 L52.8468 289.531 L53.5413 288.3457 L53.8622 286.6706 L53.9703 285.8486 L53.65 282.8716 L53.6998 282.1807 L54.1915 281.7488 L53.6694 280.8537 L53.5114 278.3558 L53.5055 278.0869 L53.7292 277.8934 L54.056 277.9208 L54.9229 278.1913 L56.292 278.9081 L56.3802 278.9645 L56.9711 279.2661 L57.1928 279.6051 L57.2735 279.7209 L58.2844 280.2397 L58.8668 280.7615 L59.5564 281.5743 L61.5856 283.897 L62.1516 284.0745 L62.6488 283.977 L63.2437 283.6677 L63.7389 283.5016 L64.3238 283.4414 L64.6567 283.5169 L64.971 283.5534 L64.9905 283.7096 L64.7045 283.993 L64.9501 283.881 L65.1235 283.8383 L67.7028 284.4797 L69.7166 284.6191 L72.0074 284.4416 L72.9765 284.0981 L73.7068 283.9922 L74.2325 284.1857 L74.4078 284.9193 L72.5704 285.7999 L71.3861 286.4047 L69.9104 287.6464 L68.19 288.5331 L66.3486 289.3916 L65.9221 289.7054 L65.8544 290.049 L65.827 290.1853 L65.9137 294.1792 L66.1757 295.4468 L66.3307 295.8612 L66.9545 297.5332 L67.2624 299.9906 L66.9251 300.1886 L66.7213 300.2145 L65.25 299.6196 L63.7843 299.3606 L61.6613 299.1176 L60.0033 298.6842 L59.7098 298.5418 L59.4951 298.2028 L59.4174 297.8539 L59.4602 297.1744 L58.0423 297.6345 L57.7055 298.5143 L56.5745 301.6169 L55.1645 304.6349 L55.1431 305.1757 L54.7406 306.9604 L54.8372 308.2074 L54.4944 309.5122 L54.1412 313.1151 L55.2542 316.0546 L57.5964 319.2872 L58.7413 320.8175 L59.3765 321.6043 L62.5945 320.1769 L63.8819 319.6536 L65.7796 319.6315 L67.3067 318.8462 L69.1825 318.7373 L70.4998 318.5697 L70.4071 318.2704 L70.6687 317.5544 L70.8162 316.8109 L70.8615 315.7971 L70.8027 313.3375 L70.7584 312.1165 L70.8291 311.3068 L70.996 311.0996 L70.6298 311.2009 L70.291 311.1887 L69.9986 310.9427 L69.7709 310.9442 L69.4201 310.9473 L69.1805 310.9488 L68.5498 310.7523 L68.3838 310.3585 L68.1198 309.5152 L67.6918 309.3416 L67.3231 309.3073 L67.1557 309.2913 L66.7058 309.3279 L65.958 309.1809 L65.5161 309.094 L64.7563 309.0696 L64.5296 309.0628 L63.0155 309.3233 L59.9808 309.0011 L57.6053 308.9417 L57.4255 308.6606 L57.4185 308.6416 L57.3413 308.4298 L57.3582 308.1236 L57.4484 307.6361 L57.5201 306.6672 L57.6855 306.1218 L57.9352 305.7516 L58.6446 305.6975 L59.392 305.9481 L59.7452 306.0212 L61.0675 306.1378 L62.8068 306.1736 L63.9148 306.3381 L64.7493 306.2947 L65.6541 306.153 L66.379 305.9511 L67.4098 305.6076 L69.0644 305.4614 L72.1195 306.057 L72.968 306.6748 L73.392 307.0358 L74.1518 307.3337 L74.8398 307.3847 L76.2453 307.7808 L76.9199 308.1655 L77.2173 308.1761 L77.7001 308.2394 L78.0952 308.3689 L78.5645 308.4344 L79.3352 308.1023 L79.7333 308.0383 L80.1932 308.1396 L80.4368 308.3232 L80.4298 309.2997 L80.4283 309.468 L80.4204 311.3167 L82.5428 312.7175 L82.778 312.6741 L83.8128 312.8546 L85.5062 313.4076 L86.0199 313.5501 L86.7582 313.6544 L86.8121 313.5539 L86.9237 313.3177 L87.0123 312.7861 L86.9481 312.198 L86.7284 310.0005 L86.6526 308.3049 L86.7667 307.5622 L86.5824 307.9286 L86.269 308.0649 L85.6118 307.8715 L85.01 307.5751 L84.2079 307.3641 L83.2722 307.275 L82.7241 307.4068 L81.8533 307.4883 L81.0212 307.195 L80.9315 307.1631 L80.6022 306.5697 L80.382 305.8399 L80.3805 305.7127 L80.2545 304.9426 L80.4398 304.6638 L81.0083 304.6402 L82.4845 304.5023 L83.7859 304.1177 L85.704 303.6858 L85.5152 302.8974 L84.7135 296.4942 L84.8042 295.1924 L84.8202 294.8679 L85.4748 293.9012 L87.0721 293.0237 L88.1727 292.7289 L89.3525 292.5963 L90.2159 292.5232 L90.7814 292.153 L90.9792 292.0113 L92.4549 290.5761 L94.7178 288.7822 L95.217 288.0981 L95.4193 287.734 L95.9066 287.3897 L96.3605 287.4834 L97.1696 288.1621 L98.183 289.6475 L98.4191 290.7102 L98.5736 290.989 L98.3977 291.5634 L98.1466 292.2512 L97.7849 293.0793 L98.442 295.0255 L98.8003 296.6458 L98.9158 297.9842 L98.9687 299.6425 L99.3343 302.9781 L99.8057 308.3978 L100.0164 313.403 L100.0478 313.5988 L100.2232 319.5835 L99.9377 323.9404 L99.5745 324.2276 L99.2247 324.2923 L98.1007 324.2748 L97.6778 324.0867 L96.5852 323.9899 L94.4488 324.2999 L93.9904 324.4332 L93.7867 324.7638 L93.8639 325.7944 L93.5081 326.256 L92.6049 326.8897 L90.9443 327.6712 L91.8252 327.3155 L92.2247 327.2104 L92.9526 327.4152 L93.5385 327.1479 L93.9426 326.8128 L94.3746 326.1341 L94.8628 325.9818 L94.5141 324.6023 L94.7273 324.437 L95.8403 324.1453 L96.1089 324.1461 L96.3958 324.5285 L97.0779 326.2621 L97.9896 329.0064 L98.2124 330.612 L97.9289 330.7651 L98.0743 330.9951 L98.6423 331.2412 L98.8341 331.6174 L98.8287 333.3921 L98.7454 335.9155 L98.8546 337.5029 L99.2546 339.11 L100.14 340.8184 L100.7553 341.4124 L101.24 340.9996 L102.4084 340.7688 L103.484 340.8892 L106.8022 340.727 L107.3587 340.8298 L108.0213 339.7452 L107.2297 339.8518 L106.4524 340.0209 L103.5623 340.0719 L103.3136 339.9653 L103.1203 339.7962 L103.0954 339.5441 L103.1129 338.8586 L103.1343 338.3049 L103.2867 337.8692 L103.9314 337.6438 L105.2163 337.5722 L106.4609 337.6156 L107.1599 337.7001 L107.7084 337.6864 L108.1847 337.4191 L108.6386 337.4724 L108.8872 337.8068 L109.231 336.601 L109.3655 335.4136 L109.506 335.1615 L109.6973 334.9855 L109.9031 334.8142 L110.3879 334.6862 L110.5533 334.3526 L110.6778 334.1302 L110.7476 333.811 L110.8373 333.5368 L111.0585 333.3228 L111.2234 333.2124 L111.4182 333.1187 L113.309 333.2253 L114.8749 333.3411 L115.7024 333.3403 L115.9919 333.3647 L116.4542 333.1545 L116.6226 332.2984 L116.795 331.3105 L116.7532 330.6455 L116.5045 330.1459 L116.3885 329.5457 L116.5344 329.065 L116.7258 328.6682 L116.666 327.7504 L116.6964 326.946 L116.7407 326.3123 L116.2903 326.1204 L116.0631 326.3976 L115.6197 326.7015 L115.3078 326.8516 L114.6776 327.1517 L113.9003 327.429 L113.0783 327.5897 L112.7684 327.4061 L112.4914 327.0062 L112.6234 325.5324 L112.609 324.6991 L112.6912 323.3775 L112.6154 322.7171 L112.8451 314.2661 L112.7913 313.2309 L112.6289 312.0434 L112.6234 311.45 L112.8132 311.2603 L113.3129 311.0181 L114.5087 310.619 L115.3487 310.603 L115.6865 310.8208 L115.8329 311.1667 L116.2445 313.5973 L116.3914 313.4069 L117.1109 313.467 L117.6305 312.8874 L117.9529 311.7943 L118.2712 309.4414 L118.5766 308.4709 L118.9204 302.1943 L119.0196 301.1736 L119.3813 300.2648 L119.6782 299.9449 L120.5003 298.3155 L121.286 293.6468 L121.8794 290.6858 L122.2824 290.1655 L122.8334 289.841 L124.8786 289.5698 L126.6952 289.6727 L127.8211 289.9248 L127.3503 287.2061 L127.0728 286.0642 L125.6534 283.9358 L126.3942 281.9613 L128.2142 281.7762 L130.096 282.0847 L131.2066 284.8918 L130.929 287.4834 L130.9599 288.4402 L132.8248 289.531 L135.3283 290.8237 L136.6207 291.4697 L136.971 291.9008 L137.24 292.2771 L138.0476 292.5194 L138.6669 292.8431 L140.3903 293.6506 L141.44 294.1084 L141.7903 293.8121 L142.1261 292.2611 L144.1862 294.7772 L144.5041 294.8831 L144.6899 294.7696 L145.2639 291.472 L145.516 290.6675 L145.7835 290.551 L145.9669 290.4192 L146.4491 290.4055 L147.042 290.6119 L147.5382 290.7361 L147.9378 290.7361 L148.4066 290.6401 L148.7928 290.3362 L148.9716 290.0056 L149.2063 289.8128 L149.4958 289.7435 L149.7892 289.8128 L149.8649 289.8007 L149.9646 289.854 L153.2867 290.9981 L153.9205 291.3013 L154.0037 291.3844 L154.0988 291.4011 L154.3604 291.8368 L154.4625 292.6572 L154.5213 292.7487 L154.8133 292.9764 L154.9847 293.1539 L155.2303 293.3139 L156.4848 293.9347 L157.8081 294.7338 L159.3934 295.3957 L160.8128 296.2641 L161.0749 296.4843 L161.1113 296.7166 L161.1666 296.7555 L161.466 297.2224 L161.4391 297.6673 L160.5468 299.8367 L159.504 301.1758 L159.5419 301.2893 L159.9723 301.9894 L160.6723 302.7435 L160.9479 302.9873 L161.7615 303.6279 L162.2647 304.3447 L162.2721 305.6449 L162.5013 305.8239 L162.603 305.811 L164.7538 304.8124 L167.4143 303.5212 L168.2916 303.0665 L168.5697 302.9606 L169.0933 302.7062 L169.2074 302.7168 L169.6109 302.6894 L170.3378 302.9324 L171.9536 303.9013 L172.5729 304.5747 L172.5998 305.2747 L172.5161 305.6792 L172.6157 306.4775 L173.502 308.1876 L173.9659 308.9501 L174.646 309.8245 L176.0026 309.3332 L178.2252 308.3224 L179.8349 307.5477 L179.9874 307.5279 L180.2166 307.7077 L180.3127 308.0596 L179.6611 309.4284 L179.2525 311.0303 L178.6063 313.3566 L178.4449 313.7443 L178.3692 314.0269 L178.2057 314.3186 L177.8525 315.1664 L177.5087 315.5617 L177.3961 315.7621 L176.2134 317.0554 L174.9793 317.939 L172.0712 319.0846 L170.3508 319.3901 L169.6892 319.4731 L168.7635 318.7868 L168.3455 318.6535 L167.624 318.8424 L164.6387 321.0605 L164.2287 321.2585 L164.003 321.6493 L164.0154 321.9715 L164.2556 321.8008 L164.7717 322.9373 L165.0761 323.6868 L165.1803 324.2893 L164.1753 324.5315 L162.6259 325.1538 L162.4091 325.2894 L161.8706 325.914 L161.612 326.4951 L161.5263 327.2705 L161.5691 327.9172 L161.2891 328.5418 L160.8582 329.1229 L160.6001 329.9204 L160.3201 330.0065 L159.6091 330.1139 L159.1782 330.3508 L158.9201 331.4278 L158.812 332.7851 L159.2001 332.8064 L160.492 332.1605 L161.4864 331.4879 L162.9552 330.8329 L163.7344 330.2853 L164.283 329.6188 L164.4553 327.8311 L164.5231 327.7367 L164.5943 327.4792 L164.7697 327.3398 L164.843 327.3353 L165.0966 327.2576 L165.3357 327.3878 L165.4463 327.4 L165.4852 327.4571 L165.8105 327.5752 L166.2614 328.0429 L166.4004 328.4313 L166.4801 328.4984 L167.4706 329.9417 L168.483 330.954 L169.0001 331.7728 L169.2208 332.1795 L169.7868 333.0105 L170.1849 333.4957 L170.7015 334.4867 L171.1754 335.3047 L171.7139 335.7784 L172.3412 335.8569 L172.4672 335.8264 L173.0267 335.3405 L173.6171 334.278 L174.2603 332.6008 L174.8562 330.1169 L175.2986 328.9226 L176.6867 327.6171 L177.2073 326.8242 L177.8092 324.2238 L178.3423 321.4306 L178.6277 320.4069 L178.7941 320.1579 L178.9077 319.8829 L179.4035 319.3017 L180.0606 319.1372 L180.2868 318.994 L180.8922 318.3595 L181.5922 317.4706 L183.1267 316.0439 L186.5998 313.2979 L187.2634 312.85 L186.95 312.2475 L186.3845 311.5475 L185.8191 311.1438 L184.9576 310.7127 L184.1226 310.363 L183.1267 309.6897 L182.5612 309.0704 L182.1845 308.4245 L182.1038 307.6437 L182.2384 306.7014 L182.5881 305.9748 L183.1536 305.4088 L183.6922 305.2206 L184.2576 305.2473 L185.0384 305.7592 L185.6307 306.7822 L186.4922 308.0741 L187.3805 309.3667 L188.6191 310.4704 L189.615 311.4127 L190.186 311.3754 L190.6169 311.6443 L191.2631 311.5635 L191.6363 311.0928 L192.0045 312.2498 L191.5312 313.1966 L191.0579 313.985 L190.449 314.6568 L189.9344 315.8443 L188.8014 317.3715 L188.9544 318.166 L190.6369 321.3971 L191.009 322.0423 L191.3907 322.4132 L191.714 322.8558 L191.7594 323.4369 L191.2985 324.2497 L189.8422 326.0625 L188.5503 327.7237 L187.5873 329.2189 L187.7427 329.5746 L188.5164 329.8442 L188.9205 330.3492 L188.9205 331.4598 L188.4492 332.2671 L188.1463 333.3106 L188.5344 334.5019 L188.9863 334.9543 L189.331 335.6863 L189.331 336.6559 L189.0944 336.9362 L189.0326 336.9788 L188.9414 337.4107 L188.6993 338.081 L188.7063 338.2714 L188.5673 338.378 L188.5453 338.4267 L188.2429 338.7063 L188.0142 338.8594 L187.2096 338.9188 L186.0159 339.1168 L185.977 339.0947 L185.7124 339.4344 L185.6263 340.1024 L185.5834 340.9204 L185.3248 341.8039 L184.8296 343.2899 L184.162 345.616 L183.6663 347.0593 L183.4939 349.2346 L183.4939 349.8378 L183.3384 350.3877 L183.1381 352.4418 L183.188 352.8699 L183.2786 353.1113 L183.6448 353.6284 L184.0324 354.0161 L184.2263 354.5333 L184.571 354.8562 L184.6079 354.8486 L186.0766 353.6292 L186.5958 352.9178 L188.4263 351.4532 L188.6475 351.3633 L189.0082 351.1943 L189.1885 351.339 L189.2503 351.3428 L189.5179 351.502 L189.6623 351.6634 L189.611 351.9376 L189.4631 352.2202 L189.202 352.4654 L188.2838 353.355 L188.2325 353.4129 L187.2629 354.2218 L186.5415 355.2241 L186.0881 355.5919 L185.2217 356.4457 L185.01 356.5135 L184.6059 356.5851 L184.1939 356.5401 L183.6877 356.3414 L183.5586 356.2187 L183.171 356.1487 L182.7186 355.6963 L182.3749 354.6361 L182.2857 354.4784 L181.7635 354.0237 L181.0077 353.9521 L180.2898 353.1105 L179.4254 351.7556 L178.6357 350.9437 L178.5834 350.85 L177.9801 350.5271 L177.4634 350.0747 L177.291 349.2132 L177.1615 348.7608 L177.018 348.5651 L176.8312 348.4577 L176.4241 348.5087 L175.763 349.0076 L175.2802 349.6916 L175.0769 350.1333 L174.9972 350.4844 L175.2662 351.5393 L175.4601 352.1852 L175.891 353.0686 L176.3155 353.7983 L176.6119 353.9727 L177.3035 355.2477 L177.6358 355.6749 L178.42 356.8258 L179.0667 355.7184 L179.671 355.2659 L180.384 355.4906 L180.7387 355.6445 L180.933 356.0946 L181.1562 357.1411 L180.8309 357.8273 L180.1383 358.4343 L180.651 358.7763 L181.1896 358.8623 L182.2852 359.5204 L182.891 360.2949 L183.318 360.6742 L183.6682 361.4099 L183.8023 362.0687 L184.168 362.5006 L184.1879 363.1243 L184.4729 363.7275 L185.2132 364.8045 L185.2352 364.8517 L186.0208 366.0162 L188.8966 366.3101 L189.5966 366.7679 L190.0539 367.1982 L190.5387 367.2256 L190.8885 366.7138 L190.9587 365.678 L190.9697 365.1525 L191.0673 364.8958 L191.0853 364.7648 L191.2228 364.4853 L191.719 363.5082 L191.9771 362.5265 L192.0289 361.5097 L192.0289 360.6826 L192.3014 359.9636 L190.9478 359.5158 L189.7152 359.0802 L188.8199 358.8105 L187.6615 358.2652 L187.37 357.7984 L187.3655 357.1715 L187.7332 356.5843 L188.2549 356.0519 L188.8109 355.7892 L189.6444 354.9682 L189.9603 354.7846 L190.9772 354.5637 L191.8286 354.6894 L192.3383 354.8745 L192.4728 354.6825 L192.4539 354.3985 L192.2974 354.2263 L192.1151 353.8676 L192.2661 353.3565 L192.4544 352.1989 L192.9391 350.6367 L193.5046 349.6946 L193.9625 349.1828 L194.0283 349.0525 L194.0238 348.7418 L193.2769 348.0038 L193.0562 347.6153 L193.0009 347.172 L192.9157 346.7668 L194.1239 344.552 L194.1478 344.4979 L194.5295 343.9647 L194.7537 343.8322 L195.0212 343.7644 L195.2668 343.8025 L195.6819 344.1399 L195.793 344.1483 L196.3853 344.5794 L196.7894 344.929 L197.3235 344.028 L197.7006 342.5473 L198.1854 340.3126 L198.3468 338.2127 L198.4006 333.3396 L198.4276 329.9471 L198.0504 326.9582 L197.459 325.8485 L196.6394 324.942 L196.5079 324.6016 L196.8123 323.4705 L196.7042 322.6235 L196.9737 321.5472 L197.1352 320.6849 L197.0006 320.2546 L198.0235 319.7968 L198.6428 319.662 L199.6776 320.4397 L200.2431 320.6819 L201.3471 320.8434 L202.0307 320.8845 L204.0196 320.9165 L205.3105 321.0521 L205.3812 321.0841 L205.8162 321.0049 L207.8624 317.2626 L209.0202 314.7589 L209.5857 314.3278 L210.3933 314.4626 L211.7664 315.1626 L212.305 315.8085 L212.2781 316.4011 L211.9279 316.8589 L211.9548 317.7471 L212.1436 318.636 L212.4664 319.336 L212.8436 320.0086 L213.005 320.736 L212.8436 322.1626 L212.5028 323.4537 L212.305 324.4881 L212.1067 325.1706 L212.0848 325.8964 L212.305 326.2925 L212.723 326.5568 L213.3393 326.777 L214.1096 327.0413 L214.7478 327.4815 L215.4079 327.8113 L216.1563 328.0314 L217.1467 328.2957 L218.0495 328.538 L218.5557 328.9119 L218.9518 329.5281 L219.0838 330.2548 L219.1276 331.1566 L219.0395 331.9495 L218.8636 332.5436 L218.7973 333.0936 L218.9299 333.7097 L219.1276 333.8423 L220.2063 334.1058 L221.5928 334.524 L223.1114 335.2064 L224.5862 335.6025 L226.2368 335.6688 L228.3716 335.1843 L229.818 334.6725 L229.9346 334.6344 L230.4408 334.1942 L230.3964 333.6222 L230.0666 333.0715 L229.4722 332.1476 L229.1419 331.3547 L229.107 330.7278 L229.0761 330.1664 L229.0761 329.5281 L229.0761 328.538 L228.8778 327.8776 L228.3059 327.1068 L227.6452 326.4906 L226.4351 325.1919 L226.3907 324.4881 L226.171 323.894 L225.2463 323.0797 L224.1901 321.781 L223.1996 320.6583 L223.0232 319.8661 L223.2215 319.2057 L223.9918 318.1492 L224.1457 317.159 L224.498 315.9266 L224.6519 315.0902 L224.344 314.2318 L224.1677 314.0551 L223.5075 313.9233 L223.2215 314.2973 L222.8693 314.8259 L222.1648 314.4298 L222.517 313.7915 L222.2973 312.9993 L222.0328 312.537 L221.9007 312.1188 L222.3631 311.9863 L222.8912 312.1843 L223.3097 312.0746 L223.5519 311.6123 L223.8817 311.3921 L225.4003 311.7882 L227.5132 311.9428 L228.5256 311.9863 L235.2092 312.39 L235.4558 312.5659 L235.6671 312.8478 L235.7553 313.1471 L235.5087 313.6757 L235.1918 313.9751 L234.8042 314.4329 L234.5401 314.9257 L234.1879 315.4536 L233.9592 315.9296 L233.9766 316.4575 L233.9766 316.9678 L234.4171 318.0426 L234.9452 318.9757 L235.5087 319.5386 L236.248 320.3841 L237.4278 321.4581 L238.7132 322.6555 L240.7425 324.6275 L241.5127 325.7281 L241.4245 326.3222 L241.7549 326.8287 L241.9646 326.7891 L243.0438 327.0131 L244.224 327.4792 L245.5842 328.4222 L246.0137 328.848 L246.7286 329.3278 L247.8895 330.6173 L248.6343 331.309 L249.4927 331.6982 L249.7822 332.3441 L250.6352 332.7836 L251.2131 332.894 L251.7083 332.7013 L251.8458 332.2885 L251.4607 331.766 L250.6078 331.3531 L250.1678 331.0233 L250.0851 330.6379 L250.0851 330.1702 L250.5803 329.2623 L253.1666 325.8507 L253.5238 325.1629 L252.3685 324.613 L251.1578 323.4301 L249.4524 321.9989 L248.0494 320.9264 L247.3887 320.5684 L247.0589 320.5684 L246.7286 320.7337 L246.2334 321.5868 L245.1602 322.9068 L244.5554 323.3745 L243.2346 322.1367 L238.8328 317.4873 L237.5947 316.3592 L237.1543 315.8641 L237.4572 315.2037 L237.8697 314.5982 L238.0346 313.8829 L238.1722 312.8927 L238.5299 311.7646 L238.8602 310.8292 L239.2727 309.7567 L239.328 308.9859 L239.2727 308.0505 L238.6953 307.2529 L237.4846 306.1797 L236.7966 306.0974 L236.4393 306.2071 L235.9441 306.2627 L233.4126 304.2266 L233.0554 303.2912 L233.2203 302.5211 L233.5781 301.6954 L233.9632 301.3655 L234.5132 301.2825 L235.0637 301.0623 L235.421 300.6502 L236.6042 299.2471 L237.3471 298.1738 L237.6221 297.3763 L237.8149 296.6054 L238.6953 297.4037 L239.4929 298.2843 L240.8137 299.3568 L241.6941 299.9898 L243.3173 301.0623 L244.1976 301.7228 L245.0506 302.4936 L245.4078 303.2912 L245.7655 304.254 L246.4536 305.0515 L247.5263 305.5192 L249.0947 306.07 L250.1125 306.345 L250.9655 306.703 L251.4881 306.5103 L251.9006 306.1248 L252.4786 305.162 L253.3315 304.254 L253.7157 304.0369 L253.8786 303.8389 L254.3858 303.7764 L254.4032 303.797 L254.5696 303.7589 L255.147 304.5016 L255.8625 304.9419 L256.413 305.6845 L256.6327 306.2071 L256.853 306.8949 L256.688 307.9979 L256.7105 308.0604 L256.7394 308.3224 L256.9357 308.656 L257.6785 309.3987 L258.8339 310.8292 L259.4392 311.3525 L260.1542 311.6001 L260.897 311.9573 L262.5616 312.6657 L264.2809 313.56 L266.2071 314.4542 L267.8233 315.692 L268.9582 316.4484 L270.0244 317.274 L270.8839 318.0647 L271.0901 319.2689 L270.5745 319.7161 L269.9901 320.3688 L269.2676 321.6416 L267.5483 324.565 L266.0352 326.697 L263.3871 330.0324 L260.6703 333.5064 L258.7786 335.8104 L257.3686 336.7389 L256.3373 336.9796 L256.0244 336.9392 L255.2023 336.876 L253.9643 336.8417 L252.8293 337.1167 L251.5225 338.0459 L251.7273 338.2447 L250.6645 339.5449 L248.7334 340.861 L248.6682 340.9341 L249.8031 340.487 L250.7318 340.4528 L251.5569 340.6249 L252.5543 341.1405 L253.4486 341.2784 L254.8242 341.2091 L256.1305 340.797 L257.541 339.9714 L258.7786 338.9393 L259.7073 338.0459 L261.0829 337.3231 L262.3209 336.3946 L263.1809 335.9818 L264.0403 335.879 L264.7627 335.4662 L265.0377 334.7441 L265.1409 333.5407 L265.1409 331.8901 L265.244 330.9266 L265.932 329.3103 L267.067 327.3848 L267.9264 325.9749 L268.6488 325.1835 L269.4051 324.0836 L269.9901 322.8451 L270.7464 321.6416 L271.4688 321.5038 L272.1219 322.0888 L272.5693 322.8451 L273.0506 323.7393 L273.7621 324.4119 L274.3231 324.9428 L276.3175 327.0405 L277.7618 328.3818 L278.2092 328.9668 L278.7592 330.3081 L278.7936 331.6487 L277.9686 332.99 L276.5586 334.882 L275.4237 336.7046 L274.8044 337.5295 L271.8469 340.5213 L269.1301 342.8261 L267.2045 344.2702 L265.6565 345.3365 L264.4533 346.0585 L263.4215 346.3335 L262.1147 346.4713 L261.1172 346.9184 L259.8792 347.709 L258.813 348.6032 L258.3317 350.1851 L258.0223 351.6642 L258.091 353.1768 L258.1942 355.9286 L258.4348 356.3756 L258.8822 356.0314 L259.0885 354.9651 L259.5354 354.1745 L260.2578 353.3489 L260.6703 352.5233 L260.9453 351.7327 L261.4266 350.6322 L261.9772 350.2194 L263.1121 349.9444 L264.9346 349.6002 L265.8977 349.1188 L266.654 348.9817 L266.8258 349.6352 L266.929 350.46 L266.7915 351.6985 L266.7915 353.0397 L266.9634 354.2431 L267.3764 355.103 L268.0639 355.8593 L268.7863 355.7907 L269.1301 355.0687 L269.6458 354.6559 L270.5057 354.2431 L271.675 354.2088 L272.8787 354.9308 L274.4606 356.9255 L275.7674 358.1982 L277.2118 359.4701 L278.5186 360.6049 L279.7567 361.3277 L280.6854 361.4991 L281.4417 361.4991 L282.5422 361.362 L283.1266 361.6712 L283.6428 362.7032 L284.6397 364.87 L285.3965 366.3482 L285.7169 367.78 L286.523 369.0161 L287.2753 369.4457 L288.1886 369.6071 L288.7795 370.3588 L289.4247 371.326 L289.3763 372.4288 L288.6733 373.4836 L287.3994 374.757 L286.2575 375.5917 L285.4225 375.7676 L282.6548 375.1089 L279.9754 374.0982 L278.3059 373.8347 L276.3733 374.23 L274.484 374.9329 L272.0681 375.8118 L270.7942 376.9542 L269.5641 377.9206 L268.6852 378.5352 L267.4994 379.194 L266.1373 380.2046 L265.9176 380.7758 L266.357 382.0057 L267.3674 386.1791 L267.631 387.3649 L267.4551 388.9467 L267.06 390.089 L267.1477 391.4065 L267.4113 393.0324 L267.7187 394.2181 L268.5975 394.9652 L269.6518 395.3605 L270.3986 395.448 L271.1454 395.0528 L271.4967 394.7017 L272.1997 394.1747 L272.6391 393.9546 L274.2204 393.9546 L275.4506 394.2623 L276.4609 394.57 L277.559 394.3499 L278.7014 393.8671 L280.9419 392.3729 L282.7869 390.4401 L283.8411 389.6054 L285.1589 389.2543 L286.4328 388.8591 L287.5314 388.7273 L287.2679 386.2233 L287.6191 384.378 L288.2344 383.4116 L288.5857 380.0729 L289.1566 378.4911 L289.8596 378.0958 L290.738 377.7881 L292.4514 377.7005 L295.3067 378.0082 L299.8315 378.7546 L302.8188 379.5893 L305.2791 380.424 L307.6949 381.3028 L310.0675 381.5663 L317.5353 381.6547 L320.2591 381.2152 L321.0936 381.0835 L321.7966 380.5557 L322.4557 380.117 L323.1587 379.9853 L324.608 379.9411 L327.156 380.2046 L327.156 378.4477 L323.1587 378.4477 L319.864 378.2717 L316.2175 377.6564 L315.9978 376.6023 L315.8663 371.0229 L315.251 360.0847 L314.5041 359.2942 L311.7808 358.3711 L310.902 357.9758 L310.331 357.5805 L310.3749 356.6582 L310.3749 355.7793 L309.7601 355.1647 L308.1344 354.7694 L306.553 354.1106 L305.3229 353.451 L304.5322 352.7046 L304.6638 351.8698 L307.0363 349.102 L309.1009 346.7737 L309.9354 345.3685 L309.8039 344.5337 L309.2768 344.226 L308.3979 343.6548 L308.53 342.6448 L309.3206 341.5899 L310.1551 340.4482 L313.7134 342.4689 L317.3599 344.929 L321.0059 346.9938 L326.4973 349.7174 L329.3088 351.1668 L331.4172 352.0016 L332.6912 352.2209 L332.2941 354.3208 L331.7057 355.876 L331.2837 356.8882 L330.9464 357.563 L330.9464 358.0131 L330.8622 358.7717 L330.9743 359.7001 L331.5931 360.4031 L332.6897 361.0779 L333.7579 361.6963 L334.8545 362.1175 L336.7098 362.7085 L338.4252 363.5234 L340.168 364.0299 L341.3553 364.1738 L342.4493 364.4328 L343.8743 365.023 L344.652 365.4549 L345.0695 365.5554 L345.5154 365.4983 L345.76 365.1959 L345.9329 364.6483 L345.8323 364.1738 L345.3286 363.3239 L343.9898 362.0002 L343.0397 361.0208 L341.854 359.7039 L341.2636 358.298 L340.9263 357.2576 L340.8137 356.4427 L341.1231 356.1616 L341.7414 355.627 L342.4728 355.2896 L343.0348 355.234 L343.6814 355.5714 L344.778 356.3863 L345.6494 356.7237 L346.1835 356.6673 L346.9428 356.1334 L347.2238 355.3124 L347.5387 354.9301 L347.9437 354.8173 L348.5062 354.6825 L348.9785 354.6825 L349.7204 354.9072 L350.238 355.0877 L350.7074 355.1875 L350.7995 354.9803 L350.7417 354.566 L350.1349 353.4624 L349.6506 352.8691 L349.0388 352.2758 L348.715 352.3299 L348.5889 352.6178 L348.0852 352.5454 L347.7076 352.2392 L347.5995 351.7175 L347.7255 350.6383 L347.6533 349.0548 L347.2034 347.5795 L346.7535 346.5719 L344.7382 344.1247 L342.9929 342.4506 L341.9676 342.0187 L340.6 341.839 L339.2861 341.5336 L338.6564 341.3355 L337.649 341.2814 L336.6052 340.9753 L335.9575 340.3819 L335.5978 339.5723 L335.5435 338.6545 L335.9217 337.6285 L336.5873 336.3329 L337.9006 334.786 L340.5277 332.4644 L341.3558 331.5649 L341.8595 331.3128 L342.4175 331.2046 L343.2271 331.3128 L344.0905 331.6007 L344.8463 331.7088 L345.2962 331.9069 L345.4581 332.1224 L345.35 332.6266 L344.8463 333.1659 L344.5045 333.6877 L344.3785 334.1736 L344.5404 334.8218 L344.7566 335.8295 L345.1701 337.1791 L345.8901 339.3743 L346.8257 341.4254 L347.6174 342.7568 L348.7509 344.3402 L349.4887 345.1682 L349.8848 345.5277 L350.0826 345.9961 L350.1543 346.5536 L350.3347 347.4531 L350.7662 348.6588 L351.7198 350.1341 L352.6559 350.9978 L353.4476 351.6459 L353.8975 351.7358 L354.2751 351.6101 L354.743 351.3397 L355.5884 350.7822 L356.0747 350.1706 L356.3442 349.6306 L356.5425 349.3968 L356.9381 349.0007 L357.1723 348.6047 L357.532 348.137 L357.7213 347.808 L361.2687 349.4798 L361.9826 349.8363 L362.3857 349.8134 L362.7773 349.6177 L363.9401 348.5697 L365.3336 347.4066 L366.6694 345.5871 L366.9573 344.8384 L367.3604 343.8025 L367.8093 342.8695 L367.9593 342.6509 L368.0629 342.1322 L368.1207 341.7758 L368.328 341.6029 L368.6388 341.7293 L368.8112 341.9479 L368.8919 342.2708 L368.9841 342.7431 L369.2606 343.1231 L369.4908 343.3074 L370.2048 343.261 L370.6771 342.9959 L372.7671 341.3416 L373.8109 340.9098 L374.2827 340.5594 L374.5273 340.1131 L374.5418 339.5517 L374.1103 338.2127 L372.9151 336.1684 L372.2674 335.2476 L372.0661 334.8446 L372.1812 334.5567 L372.656 334.2543 L373.4621 333.9809 L374.4845 333.549 L375.6937 333.0022 L376.6149 332.5124 L377.2048 331.9945 L377.4927 331.4902 L377.6945 331.1878 L378.1693 330.6844 L378.5006 330.4399 L378.817 330.4109 L379.2779 330.6699 L379.5658 331.2602 L379.8538 332.5558 L380.1273 333.2611 L380.4726 333.808 L380.7895 333.8225 L381.2643 333.434 L381.9842 332.3106 L382.5168 330.8855 L383.0638 329.9212 L383.582 329.4893 L384.1146 329.2593 L384.7189 329.4177 L385.0358 329.6188 L385.252 329.2303 L385.7557 328.9714 L386.4468 329.0574 L387.0367 329.2303 L387.3824 329.5327 L387.5404 329.9212 L387.4831 330.4399 L387.4108 330.9578 L387.368 331.5481 L387.6704 332.2824 L388.1163 333.2756 L388.6778 334.0236 L388.8791 334.5567 L388.9369 335.0602 L388.9658 335.5065 L388.8218 335.8234 L388.6634 336.0968 L388.62 336.4997 L388.9453 336.8333 L389.7913 336.6978 L391.0155 336.9613 L392.1833 337.282 L393.4268 337.9598 L396.7604 339.6926 L397.3633 340.2197 L397.5138 340.9547 L397.3254 341.4635 L397.0056 342.0659 L396.459 343.0454 L396.2144 343.8551 L396.2518 344.7028 L396.5721 345.1925 L397.1371 345.5878 L398.4559 346.3601 L399.3597 346.9443 L401.0172 347.6039 L402.072 347.9238 L403.2777 348.3381 L404.2004 348.8279 L405.1609 349.4303 L405.9521 349.3176 L406.9884 348.9596 L407.7228 348.7905 L408.5703 348.677 L409.5308 348.7905 L410.6045 349.2049 L411.735 350.1089 L412.6388 351.0884 L413.0154 351.9734 L412.9402 352.8211 L412.6955 353.6125 L412.8271 354.3847 L413.5052 354.761 L414.3716 355.138 L415.1817 355.5896 L416.1233 356.1357 L417.1028 356.9271 L418.3837 358.4907 L419.4006 359.7336 L419.6457 360.4495 L419.6079 360.9766 L419.3064 362.1068 L419.137 363.0863 L418.9298 364.5744 L419.0997 365.4412 L419.4006 366.2881 L419.6836 366.8722 L419.853 367.3246 L419.5516 367.8516 L418.7793 368.4731 L417.7246 369.3398 L417.0086 370.093 L416.7825 371.2423 L416.9897 372.3915 L417.3479 373.2574 L417.9129 373.9543 L418.3648 374.0297 L419.0429 373.7852 L419.8904 373.4273 L420.7946 373.2765 L421.3033 373.4273 L422.2071 373.54 L423.5632 373.4646 L424.204 373.1257 L424.4486 372.636 L424.6185 371.7883 L424.6185 370.8089 L424.4302 369.8486 L424.185 368.9445 L424.1661 368.4358 L424.4112 368.0969 L425.0136 367.8143 L425.8615 367.4373 L426.3887 367.0794 L426.6338 366.7214 L426.7279 366.138 L427.1046 365.5729 L428.1404 364.8943 L429.1388 364.2355 L430.7396 362.4648 L432.9248 360.2233 L433.4519 359.6392 L433.584 359.282 L433.3956 358.924 L433.2452 358.5843 L433.1884 358.0383 L433.2262 357.5485 L433.3956 356.8143 L433.8475 355.8912 L434.3183 354.9682 L434.7707 353.9133 L434.9964 353.0846 L434.8838 352.6513 L434.846 351.9171 L434.9212 351.2956 L434.9023 350.4479 L435.0722 349.8827 L435.4109 349.2049 L435.6371 348.7334 L435.6745 348.2437 L435.6561 347.6785 L435.6371 346.8499 L435.9196 346.3982 L435.9949 345.6632 L435.9759 345.0608 L436.4283 344.4956 L436.8991 344.213 L437.2195 343.9305 L437.6146 343.1399 L437.9539 342.2358 L438.3116 341.6706 L438.9523 341.0491 L439.5173 340.6531 L439.743 340.2578 L440.0444 339.8808 L440.1555 339.5144 L439.9159 339.0879 L438.4451 337.7831 L437.5628 337.1395 L437.1213 337.0847 L436.5882 337.4153 L436.1388 337.7268 L434.8465 338.1579 L433.3817 338.1579 L432.0315 338.4161 L430.624 338.8472 L429.3605 339.1054 L428.3551 338.5882 L427.5949 337.7458 L426.8595 336.873 L425.9403 336.1836 L424.9523 335.6093 L424.0789 335.2186 L423.2748 335.0571 L422.6316 334.5979 L422.3097 333.725 L422.1946 332.7135 L421.9879 331.4499 L421.6894 330.0712 L421.1837 328.5547 L420.4025 326.6932 L420.4484 326.1874 L421.115 325.7053 L421.8962 325.4981 L423.1597 325.0388 L424.0331 324.7174 L424.7455 324.2801 L425.159 323.683 L425.6189 322.6029 L426.1012 321.5 L426.6756 320.512 L427.3423 319.547 L427.8704 318.6276 L428.1693 317.5018 L429.0541 315.3942 L430.074 313.2522 L430.5742 312.4288 L431.5298 311.84 L432.7798 311.5605 L433.427 311.6046 L433.8535 311.3548 L433.8241 310.8109 L433.4126 309.9875 L432.324 308.4869 L431.201 307.1859 L430.6494 307.2545 L430.2588 307.7374 L429.937 308.5418 L429.3396 309.2768 L428.5813 310.1041 L427.7079 311.3449 L426.2835 312.9765 L425.0654 314.4702 L423.9857 313.3672 L423.4571 313.2979 L423.0894 313.5051 L422.1473 314.0794 L421.5036 313.8951 L421.4807 313.1829 L421.9405 312.6543 L422.2853 311.6206 L422.2624 310.7706 L421.7109 310.2419 L421.0442 309.9205 L420.5849 310.1269 L419.987 310.2648 L419.6886 309.8055 L419.7344 309.1847 L419.8953 308.8632 L419.8032 308.3803 L419.2751 307.9903 L418.4938 308.2889 L418.0111 308.1739 L417.9189 307.5302 L418.7464 306.7258 L419.5277 305.8072 L420.1709 305.3014 L420.8604 304.5427 L421.2968 304.0148 L421.4348 303.6241 L421.4578 302.9575 L421.1822 302.4518 L420.4469 301.9924 L419.8266 301.5102 L419.7573 300.7287 L420.263 299.8786 L420.8833 298.8442 L421.389 297.8105 L421.9176 296.4774 L422.1473 295.5816 L421.8947 295.053 L421.4578 295.0301 L421.113 295.673 L420.5615 297.2818 L419.2058 299.3043 L418.6543 300.085 L417.8272 300.3379 L417.184 300.2229 L416.7012 299.9243 L416.4257 299.5335 L416.2419 298.8906 L416.7242 297.7183 L417.5054 296.3167 L417.5517 295.8337 L416.9773 295.7195 L416.4023 296.2245 L415.644 297.4426 L414.7711 299.7164 L413.9227 299.9373 L413.3388 300.9306 L412.6801 302.8882 L411.715 303.9227 L410.6783 305.2945 L409.8079 305.83 L409.624 306.8637 L409.1642 307.2316 L408.1991 307.1859 L407.7397 306.703 L407.3257 306.1515 L406.5445 306.0593 L405.7175 306.1972 L404.5227 306.4272 L404.0629 306.1972 L404.1087 305.6228 L404.1271 304.3195 L406.821 301.965 L408.2669 299.2266 L406.6611 300.5581 L404.5471 302.157 L403.3708 303.6096 L401.6241 306.1835 L401.0362 306.7167 L400.3008 307.6719 L398.7992 311.3121 L398.7324 311.8674 L397.5217 311.1979 L396.7345 310.718 L396.3469 310.4362 L395.4048 309.6752 L396.3096 309.1702 L396.8118 308.6583 L396.884 308.1053 L396.9368 307.8562 L396.7161 307.1577 L397.0285 306.4775 L397.157 305.779 L396.7893 305.5947 L395.7231 306.0174 L395.0107 306.1812 L394.6739 307.2674 L393.947 308.0695 L393.4258 308.7116 L392.8923 309.1062 L391.853 308.2615 L390.3882 310.1041 L389.172 311.1415 L388.0989 312.3176 L387.7302 312.8333 L387.5429 312.6543 L387.6714 311.2939 L387.929 310.6868 L388.3883 310.3013 L388.8113 309.5655 L388.8298 308.7566 L388.3699 308.2051 L387.9843 307.6909 L388.2045 306.8081 L388.339 305.8003 L388.8851 304.6516 L389.5457 303.6462 L389.9762 303.33 L390.1201 302.8418 L389.7754 302.3253 L388.9708 302.1813 L388.7989 301.5499 L389.1431 300.5154 L389.7465 299.3949 L390.436 298.2172 L391.1251 297.0396 L391.3552 296.207 L390.8954 295.8337 L390.2347 295.8909 L389.4017 296.4081 L388.339 297.3557 L386.4144 298.7055 L384.6626 299.6539 L383.1112 300.4293 L381.8761 300.7736 L380.0954 300.9466 L378.7742 301.1477 L377.5102 301.751 L376.0165 303.2158 L376.6198 302.2103 L377.2805 301.2337 L377.7115 300.2282 L378.257 299.2227 L378.9754 298.4183 L379.6645 298.0451 L380.7272 297.9019 L383.5137 297.2407 L386.7019 296.8103 L388.0804 296.4081 L388.8562 296.0349 L389.89 295.2015 L390.7519 294.426 L391.5276 293.8227 L392.8668 292.7517 L393.6944 292.7334 L394.5952 292.8995 L395.2384 292.789 L395.5508 292.642 L395.7167 292.2924 L395.4407 291.7043 L394.6868 290.6934 L394.0068 289.9393 L393.3451 289.7001 L392.5913 289.48 L391.5251 288.8919 L390.4036 288.2482 L389.7051 288.3586 L389.2273 288.7631 L388.1796 289.0016 L387.4073 289.2042 L386.8742 289.6453 L386.0288 290.2516 L385.1828 290.3438 L384.5949 290.3072 L384.2949 290.0901 L383.9293 289.6407 L383.5078 289.2187 L382.5522 288.882 L381.6245 289.1349 L380.922 289.1631 L380.4437 289.0785 L379.6007 288.6565 L378.4199 287.5885 L377.1624 285.8105 L376.7967 285.1646 L377.1903 283.4498 L378.399 281.2856 L379.1578 280.245 L379.5514 280.245 L380.1418 279.9076 L381.9409 278.0244 L384.3298 275.832 L386.7193 273.696 L389.1252 271.1196 L389.7295 270.357 L389.6718 270.069 L388.4053 268.6292 L387.4557 267.5642 L387.1821 266.7727 L387.1677 266.0825 L387.5274 265.406 L387.7576 264.9307 L387.7147 264.2687 L387.2255 263.5777 L386.3043 262.8875 L385.2969 262.4845 L382.8935 261.952 L381.1517 261.5916 L380.8388 261.7211 L380.497 261.9375 L379.9216 262.1173 L378.9859 261.7394 L378.0682 261.6678 L377.0608 261.9375 L376.1256 261.7211 L375.0101 261.3075 L373.4452 261.0203 L372.5095 261.0919 L371.5923 261.3075 L370.7827 261.6495 L369.6492 262.0091 L368.7494 262.099 L367.9941 262.0274 L367.5443 261.8118 L366.9688 261.5596 L366.1592 261.2176 L365.4213 260.6782 L364.4682 259.9766 L362.849 259.5446 L360.2403 259.473 L359.2872 259.3831 L358.7472 259.1127 L358.1538 258.5192 L357.524 258.1596 L356.8046 258.1238 L356.0309 258.1954 L355.437 258.1414 L354.8795 257.6378 L354.2497 257.17 L353.2423 257.0801 L351.8573 257.2058 L349.8963 257.2241 L347.2696 257.5479 L344.9131 257.9799 L344.1936 258.2313 L343.6177 258.699 L343.0781 259.5804 L341.279 264.2222 L339.3903 269.0071 L339.1023 269.9068 L338.077 269.3133 L336.9614 268.6833 L336.3681 268.2521 L336.0622 267.6579 L335.972 266.6508 L336.0442 263.9883 L336.098 263.2867 L335.7921 262.9088 L335.4683 262.8189 L335.1265 262.2971 L334.5869 261.3258 L334.2272 260.372 L333.8132 259.8867 L333.5257 259.4905 L333.4893 259.0594 L333.6513 258.5916 L333.9392 258.0515 L334.0832 256.7564 L334.2989 255.011 L334.569 253.2839 L335.0547 250.9817 L335.8644 247.4559 L336.0442 246.4304 L336.1518 245.6206 L336.53 244.829 L337.1592 243.2459 L337.5553 241.5546 L337.8612 239.8099 L337.8612 238.4607 L337.8792 237.7407 L338.1487 237.471 L338.7605 237.5609 L339.2463 238.0287 L339.5522 238.5323 L339.894 238.4789 L340.2163 237.9967 L340.8461 237.5015 L341.6328 237.052 L342.1051 236.7373 L342.3074 236.3549 L342.7348 235.8825 L343.2296 235.2532 L343.3197 234.5111 L342.9147 234.0159 L342.3527 233.7912 L341.9701 233.5893 L341.2506 232.1044 L340.3738 230.688 L339.474 229.4965 L338.1925 228.0123 L338.0127 227.5171 L339.5641 226.663 L340.2387 226.3255 L341.0932 226.2577 L342.0154 226.2577 L342.6451 226.0558 L343.252 225.6284 L343.657 225.1339 L343.7691 224.369 L343.9042 223.6947 L344.2863 223.2444 L344.3989 222.5252 L344.354 221.5804 L344.2639 220.8162 L345.1861 220.5465 L346.5801 220.2761 L349.0762 219.7145 L350.1334 219.3092 L350.5604 219.5568 L350.673 220.4566 L350.6954 223.8966 L350.3357 225.4036 L350.0432 227.45 L350.5155 229.2488 L350.8528 230.1258 L350.8753 231.0027 L350.7627 231.6998 L350.6052 232.8015 L350.8528 233.5664 L351.2798 234.1508 L351.8199 234.9378 L352.3595 235.7705 L352.8318 235.9953 L353.3938 235.8155 L354.3832 235.0734 L355.8674 233.5893 L359.1507 231.2724 L360.8372 229.7433 L361.6692 229.0241 L363.3333 228.0123 L364.3362 227.7426 L365.2818 227.9361 L366.3007 228.3696 L367.5697 228.9875 L368.7883 229.4721 L370.558 229.6725 L371.4598 229.6222 L372.1608 229.5224 L372.9121 229.338 L373.213 229.338 L373.4467 229.789 L373.9309 230.3071 L374.4147 230.3734 L374.9493 229.8393 L375.3001 229.4553 L375.884 229.322 L376.5685 228.8542 L376.3184 228.3696 L375.6169 228.3864 L374.7989 228.0192 L374.5343 227.6138 L374.3006 226.7461 L374.1835 226.0108 L374.2339 225.3434 L374.6011 224.9259 L375.2522 224.8589 L376.1869 224.9594 L376.571 225.4935 L376.855 226.2447 L377.4394 226.9297 L378.408 227.3632 L379.5763 227.6977 L381.0291 227.9476 L382.031 228.0481 L382.6653 228.3818 L382.9493 228.8161 L383.4001 229.9681 L383.6338 230.7193 L383.5167 231.421 L383.9173 231.9048 L384.8191 232.656 L386.0711 233.4239 L387.5404 234.0921 L388.6758 234.3428 L389.611 234.3923 L390.6961 234.6932 L391.6143 234.793 L391.7145 234.5096 L391.1136 234.1591 L390.2118 233.7416 L389.1436 233.3074 L388.0082 232.5059 L386.5554 231.2541 L385.6705 229.9345 L384.8694 228.1815 L384.3184 226.7621 L383.7504 225.7274 L383.3329 225.2931 L382.5482 224.9762 L381.4466 224.4916 L380.5448 224.0406 L379.81 223.2558 L379.4263 222.1374 L379.3262 221.5865 L379.226 220.9686 L378.6083 220.6349 L378.5579 220.1503 L379.1757 219.2323 L380.6285 218.2304 L382.4147 217.5126 L383.4166 217.262 L384.4349 216.6943 L385.5206 215.5088 L386.0377 214.8917 L386.7198 214.2943 L388.8372 213.121 L388.7595 211.8859 L388.5089 211.1179 L387.8577 210.2996 L387.5404 209.9994 L387.2066 209.6985 L387.2235 209.3144 L387.5907 208.8641 L387.4905 208.4969 L387.0566 208.1959 L386.6391 207.6115 L386.1548 206.6599 L385.537 205.5749 L384.2182 203.7882 L383.6338 202.9036 L383.0828 202.0853 L382.1646 201.1839 L381.5263 200.0349 L381.6265 199.3667 L381.8935 198.8996 L382.2607 198.4653 L382.4949 198.031 L382.5283 197.4801 L382.4281 196.9292 L382.2776 196.2114 L382.1775 195.3763 L382.19 194.3256 L382.3987 193.2299 L382.5028 192.1342 L382.5811 191.0644 L382.2682 189.76 L382.3205 188.534 L382.6334 187.3339 L382.9986 186.421 L383.6507 186.1079 L384.2511 185.8732 L384.851 185.8206 L385.1638 185.5341 L385.5814 185.0906 L385.8424 184.5428 L386.1812 183.8379 L386.4946 183.3945 L386.8075 183.3945 L387.0162 183.6558 L387.4337 184.4902 L387.8772 185.8991 L388.2424 187.1251 L388.5293 188.534 L388.9204 189.7341 L390.0424 190.7779 L391.3209 191.5079 L392.4947 191.482 L393.0945 191.2214 L394.086 190.4907 L394.2688 190.1516 L394.2424 189.0818 L394.4512 187.8558 L394.8687 186.4469 L395.2598 184.9337 L395.4167 183.7861 L395.8078 183.3686 L396.3036 183.969 L396.7993 183.812 L397.0081 182.6119 L397.3468 181.8553 L397.9995 181.2815 L398.7035 181.0727 L399.3039 181.0209 L399.8514 181.5429 L400.3212 182.221 L401.3645 183.2383 L402.9558 184.5946 L404.3907 186.0294 L405.0429 186.082 L406.0602 185.6644 L407.0258 185.0906 L407.5474 184.7775 L408.1473 185.0906 L408.8259 185.8732 L410.3131 187.3339 L411.5651 189.0559 L412.5301 189.7081 L413.2869 190.5433 L414.1479 191.6649 L414.5913 192.6303 L415.3217 193.0471 L415.8697 192.8909 L416.4437 192.4733 L416.8871 191.8211 L417.5393 191.3258 L418.2173 191.1429 L418.8436 191.2214 L419.8087 191.8211 L420.7219 192.8909 L421.0871 193.6475 L421.7657 194.6388 L422.8613 195.8388 L424.5492 197.4885 L427.8051 200.6277 L431.762 204.1836 L433.866 206.3544 L434.7339 207.4729 L435.3686 207.9072 L436.0028 208.1403 L436.9046 208.4748 L438.474 209.7937 L440.8949 211.9644 L443.9838 214.6692 L445.2194 215.3702 L446.9388 215.921 L447.9073 216.3385 L448.9591 217.2231 L449.8609 218.0749 L450.6122 219.1271 L451.0795 220.2791 L451.514 223.6848 L451.3132 224.8703 L451.0631 225.6383 L450.6456 226.2729 L450.8125 227.0241 L450.8125 228.2096 L450.5454 228.7437 L449.8773 229.0111 L449.1594 228.9106 L448.4414 228.8938 L447.9243 229.3113 L447.3229 230.0465 L447.0225 230.781 L447.0559 231.5825 L446.8386 232.1166 L446.2044 232.6506 L445.3694 232.7847 L444.9688 233.1352 L444.7182 233.7531 L444.5513 234.0868 L444.2843 234.1706 L443.7332 234.2033 L443.2993 234.6208 L443.2659 235.1884 L443.249 235.9236 L442.9989 236.7411 L442.8982 237.4763 L443.0487 238.0607 L443.4662 238.3776 L443.9838 238.6945 L444.5683 238.7281 L445.3694 239.0625 L445.7869 239.9135 L445.7366 240.9992 L445.6952 241.6399 L445.8457 242.8177 L446.2473 244.685 L446.5591 246.5081 L446.6329 248.4379 L447.0031 250.0926 L446.8735 250.5139 L446.8317 250.7996 L446.9089 251.211 L446.9717 251.8098 L446.7196 252.5031 L446.2627 253.2756 L445.6165 254.205 L445.207 255.024 L445.2857 255.6388 L445.8372 256.1431 L446.4047 256.316 L446.9562 256.2376 L447.4604 256.3008 L447.996 256.4577 L448.5157 256.4577 L448.9885 256.1271 L449.3038 255.67 L449.5559 255.1344 L449.9182 254.1418 L450.2649 253.1331 L450.659 252.2037 L451.1787 251.4159 L451.6201 251.038 L452.3918 250.6122 L452.9593 250.4232 L453.7156 250.3288 L456.812 251.7694 L459.4581 252.8962 L460.0485 251.4159 L460.5925 250.699 L461.0823 249.8191 L461.7903 249.5517 L462.4315 249.3384 L463.3661 249.1913 L464.0477 249.0314 L464.6486 248.7502 L465.0362 248.2162 L465.5703 247.3614 L466.3435 246.5112 L466.7346 246.1722 L466.7087 245.7547 L466.2912 245.4674 L466.0565 245.0759 L466.5523 244.8938 L467.2567 244.8671 L467.7784 244.6325 L468.0395 244.0329 L468.1177 243.2764 L468.2821 242.7179 L469.5496 240.5367 L471.2903 238.2664 L472.1876 237.071 L472.7192 235.8414 L472.9848 234.7115 L473.4835 233.4491 L474.0814 232.2529 L474.6792 230.2263 L475.6428 227.7015 L476.5401 225.8409 L477.5699 224.113 L478.8987 221.9538 L480.6265 219.4951 L482.5203 216.8376 L484.6133 214.7111 L487.3381 212.4185 L491.3114 210.1061 L492.401 209.6809 L492.6406 209.335 L492.667 208.804 L492.4543 205.5612 L492.4807 203.8598 L492.4807 202.5043 L492.667 201.494 L493.225 200.1918 L493.8363 199.2882 L495.0859 198.9697 L495.8566 198.5704 L496.9198 197.7468 L497.1057 196.8431 L496.9996 196.3646 L497.2118 195.8594 L497.9297 195.6202 L498.7005 195.8061 L499.4179 196.7098 L500.2156 197.5608 L501.1458 197.8527 L501.9698 197.8527 L502.7406 197.6934 L503.4849 197.4542 L504.1386 197.5715 L504.6702 197.7201 L505.4145 197.6348 L506.9241 197.0823 L507.8598 196.8271 L508.1453 196.8675 L508.5399 197.0587 L509.0979 197.1944 L509.5607 197.589 L509.9284 197.9563 L510.4725 198.242 L511.153 198.3243 L511.6054 197.6843 L511.4216 197.2149 L511.0643 196.1261 L510.7923 194.51 L510.316 193.0135 L509.6354 191.261 L509.2274 190.0366 L509.3465 189.3386 L509.7376 189.1519 L510.469 188.8967 L511.3877 188.6757 L512.0 188.3351 L511.9492 187.6036 L511.8132 186.8043 L511.3194 186.005 L510.5203 185.5623 L510.0779 185.6644 L510.1117 186.0728 L510.6902 187.1822 L510.1825 187.7705 L508.7391 188.0646 L507.6705 188.2246 L507.1359 188.412 L507.804 188.8128 L508.2584 190.8976 L508.8463 192.1799 L509.0067 193.4631 L508.4278 193.6254 L507.8324 194.0338 L507.2201 194.2547 L506.5564 194.3568 L504.9407 193.7785 L503.6478 192.6219 L502.4232 191.2953 L502.0147 191.1757 L501.5897 191.3288 L501.0964 191.7037 L501.1303 192.1624 L501.4706 192.6562 L501.5727 193.0471 L501.3346 193.3191 L500.9943 193.5576 L500.4497 193.7275 L499.9057 193.6429 L499.3611 193.0135 L499.1399 192.4687 L498.4255 191.6527 L497.3877 190.717 L497.6941 189.747 L497.983 189.254 L498.4255 188.5903 L498.7488 188.1309 L498.7488 187.3148 L498.9187 186.7365 L498.8166 186.3448 L498.4085 185.7665 L497.8814 185.5623 L497.2517 185.3924 L496.6393 185.0861 L496.18 184.542 L495.8058 183.6741 L495.2274 182.0412 L495.0744 181.1908 L494.8702 180.3062 L494.4621 178.8775 L493.9519 177.3291 L493.6455 176.3766 L493.1354 175.9682 L492.4378 175.7983 L491.7403 175.7472 L491.3492 175.2199 L490.5835 173.8255 L490.2093 173.145 L489.8182 172.7876 L489.4266 172.7366 L489.2398 172.9408 L489.6309 174.3017 L489.869 175.322 L489.9203 176.0878 L489.7499 176.4955 L489.2906 176.7172 L488.6444 176.6487 L488.2189 176.4277 L487.6579 175.271 L485.7014 171.4435 L484.6636 169.2322 L484.1704 167.9733 L483.6602 165.2347 L483.3712 162.1218 L483.2178 159.5363 L482.9288 158.141 L482.5203 157.1717 L482.2143 156.508 L482.2995 156.015 L482.6054 155.4366 L483.0987 154.9603 L483.6602 154.6197 L484.0857 153.6672 L484.1195 153.1574 L483.9835 152.4426 L484.1788 151.5472 L484.7901 150.5108 L487.6345 146.8964 L490.0798 143.7331 L490.6378 142.7501 L490.6114 141.9522 L490.7708 141.1018 L490.7728 140.204 L491.2401 139.5174 L491.402 138.984 L491.418 138.4986 L491.3049 138.1914 L491.0299 137.8195 L490.5287 137.2853 L490.0922 136.9622 L489.8496 136.2505 L489.9951 135.6842 L490.4803 135.1188 L491.8385 134.1639 L493.3267 133.3393 L494.3291 132.7731 L494.6689 132.45 L494.6529 132.1101 L494.2808 131.3503 L493.9898 130.6873 L493.8926 129.9107 L493.6341 128.9726 L493.375 128.5847 L492.6152 128.1968 L491.9197 127.9865 L491.127 128.148 L490.3667 128.6335 L489.2836 129.4581 L487.7147 130.2666 L487.1323 130.3802 L486.5015 130.7033 L485.3536 131.5439 L484.7712 131.8678 L484.2376 131.9325 L483.7359 131.7062 L483.4933 131.2855 L483.4614 130.2179 L483.5421 129.0054 L483.3319 128.0513 L482.1027 125.8511 L481.1322 124.6386 L480.6958 124.5898 L480.1622 124.8322 L479.6605 124.6706 L479.0945 124.1692 L478.1563 123.4254 L474.6792 121.6626 L472.2051 120.5949 L470.6362 120.191 L468.5337 119.1881 L468.3234 118.5411 L467.9029 117.6844 L466.6898 116.8431 L466.0914 116.6007 L465.5419 116.552 L464.4742 116.7135 L463.7144 116.8591 L462.857 117.0854 L462.1131 117.3766 L461.8705 117.9588 L461.7409 118.4443 L461.7584 118.7636 L461.6448 118.9907 L461.3344 119.1149 L460.879 119.1149 L460.4132 118.6287 L459.7715 118.0487 L459.1298 117.625 L458.517 117.4406 L456.4045 117.8544 L455.6447 118.3909 L454.4375 120.3137 L452.8053 119.464 L449.7652 120.6932 L447.0155 122.0795 L446.1212 122.7722 L445.8492 123.5244 L447.5795 126.5309 L440.8206 127.9994 L439.1685 124.695 L438.0276 123.3316 L435.5918 124.74 L433.1769 126.2817 L430.5568 123.1716 L428.1105 124.7948 L427.7672 125.4106 L428.4154 127.7357 L430.2922 131.5515 L430.1283 132.0072 L422.5364 135.9121 L421.6869 136.1148 L420.7438 136.1704 L419.9895 135.6705 L418.7245 136.3251 L416.8482 134.6669 L415.7576 135.9761 L414.4049 136.979 L413.8818 136.9356 L413.0304 135.2293 L412.6069 135.1371 L408.5085 139.1715 L408.3526 139.2461 L408.2001 139.2934 L408.0133 139.2888 L407.8259 139.1669 L407.2958 138.7775 L407.1977 138.5412 L407.1304 138.2806 L406.6292 139.9518 L406.5445 140.4327 L405.555 141.3921 L404.3668 141.9682 L403.1686 142.6914 L400.4358 144.6354 L399.835 145.1734 L399.0353 145.7221 L398.6592 145.8524 L398.5032 145.5956 L398.0733 146.1809 L397.5526 146.9231 L396.1332 149.0751 L394.8004 150.7615 L393.9913 151.5045 L393.1399 151.9152 L392.1434 152.4814 L391.2616 152.8685 L390.6971 153.0354 L390.4829 152.4753 L388.9633 145.3525 L389.1825 144.7314 L389.4401 144.3123 L389.7789 144.2148 L388.7735 143.9381 L388.1626 143.218 L387.7486 142.7166 L387.2469 142.1709 L386.4831 142.0841 L385.6003 142.9391 L382.1646 143.8467 L380.8443 143.6181 L380.2773 141.1795 L380.7974 138.8041 L379.6555 139.9244 L378.9137 139.8809 L378.3467 139.0084 L378.2809 138.6593 L377.3433 138.9428 L376.4704 138.6151 L376.3179 137.7868 L376.1431 136.521 L375.8401 136.0424 L375.5148 136.4897 L375.3339 136.8136 L374.9618 138.0047 L375.031 138.2608 L375.5432 138.4734 L375.7505 138.5923 L375.743 138.7485 L375.3868 139.1471 L375.2956 139.5411 L375.4002 139.9228 L375.595 140.1865 L375.5616 140.3435 L374.8282 140.6582 L372.5758 141.5277 L371.8982 141.9354 L371.0552 142.3081 L369.9078 142.8133 L369.1774 142.9924 L368.7435 142.7844 L368.3788 142.4247 L368.3638 142.0444 L367.1457 140.9036 L366.1741 140.4913 L364.8653 140.0333 L363.9491 139.2477 L363.2511 138.1358 L362.4878 136.87 L362.575 135.7361 L363.5131 135.7795 L363.84 136.8266 L364.6038 137.6336 L365.6072 137.1977 L366.3271 136.0851 L367.1995 135.6705 L367.3086 135.1691 L367.3305 134.0564 L367.5467 133.7783 L367.1447 133.2616 L367.0166 133.0497 L366.8527 132.8501 L366.6385 132.7876 L365.4428 132.7502 L358.6241 131.5805 L357.6316 131.0767 L357.1538 130.7772 L356.8888 130.4716 L356.7667 130.0449 L356.3413 129.7149 L354.4794 131.1971 L353.6748 132.0057 L351.366 131.6879 L350.2331 132.1574 L347.169 132.5079 L344.9215 133.7592 L341.845 132.7784 L338.2414 132.6062 L337.5738 134.1151 L336.66 134.6455 L336.1364 135.9319 L336.3327 136.521 L336.9869 136.9577 L337.7347 136.8624 L338.1407 136.473 L339.1332 136.0927 L341.571 135.7521 L341.859 135.8069 L342.1295 135.9319 L342.3228 136.156 L342.4309 136.364 L342.4887 136.7153 L342.411 137.4103 L342.1375 138.6517 L341.989 139.727 L341.71 140.6392 L341.1311 141.1879 L340.0514 141.8067 L339.2224 142.5596 L338.6579 144.6057 L338.7217 147.2767 L339.0704 150.4102 L339.619 152.0471 L339.757 152.8792 L339.3778 153.3204 L337.4397 153.9011 L335.8091 153.9125 L333.5332 154.052 L330.8657 153.751 L328.9446 152.5188 L327.995 152.2117 L327.7827 152.1888 L327.2063 152.1789 L326.8764 152.0204 L326.6737 151.7765 L326.3992 151.0099 L326.0394 150.7165 L325.6309 150.5878 L322.6794 150.5573 L322.0188 150.6678 L320.9297 151.0457 L319.2083 151.4893 L317.3913 151.7171 L316.4307 151.692 L315.6306 151.5716 L315.2106 151.2926 L314.6078 150.6015 L313.9242 149.258 L312.029 146.2632 L311.6937 145.6146 L311.6374 145.7183 L312.1814 147.0267 L312.2895 147.503 L312.3433 147.9374 L312.3503 148.3435 L311.9477 148.6727 L310.7246 149.0583 L309.3186 149.5651 L308.4373 149.8768 L307.1768 149.8204 L305.6243 149.0759 L305.3194 149.0583 L304.2183 149.5072 L303.3833 149.716 L302.206 149.8288 L299.6307 149.7716 L296.5432 149.4752 L293.659 149.7609 L292.1459 150.0772 L290.6996 150.4354 L289.8571 151.301 L289.4257 152.5355 L289.1462 153.7174 L288.9374 154.1442 L288.3953 154.212 L287.8911 154.1991 L287.5454 153.9666 L287.2714 153.1863 L286.7123 148.7009 L286.808 148.2971 L286.9759 148.0799 L287.3057 147.99 L286.801 147.6592 L286.1105 147.0183 L285.6053 148.2704 L284.8659 148.6598 L285.3811 148.9821 L285.7782 149.0705 L286.0652 149.2214 L286.2684 149.748 L286.5146 150.7257 L286.9096 153.4523 L286.8494 153.9636 L286.6441 154.3621 L285.8529 155.1935 L285.1375 155.3665 L284.4908 155.432 L280.6271 162.6027 L280.2713 162.8404 L279.8274 162.7581 L277.2417 161.0497 L276.589 160.0263 L276.1924 158.6775 L275.7819 159.0875 L275.314 159.9196 L274.4506 160.5048 L272.4288 161.7385 L272.0407 161.8711 L271.6382 161.8589 L271.1972 161.7484 L270.8644 161.6265 L267.6928 159.3984 L266.8463 158.474 L266.4527 157.4689 L266.3655 156.7686 L266.2509 155.8511 L266.3525 155.2987 L266.7108 154.8178 L267.0675 154.6426 L268.1272 154.5785 L268.6414 154.3964 L269.2696 153.8546 L269.1525 152.7276 L269.2118 152.5089 L269.4126 152.3526 L269.6313 152.3389 L269.9905 152.6803 L270.9043 153.4911 L271.3492 153.9118 L272.4323 154.2593 L273.234 154.6144 L273.519 154.9657 L273.7003 154.2661 L273.658 153.5948 L273.3376 153.0682 L271.399 151.772 L270.6846 151.5091 L269.7539 150.728 L269.6398 150.3622 L269.8914 149.7305 L270.2471 148.7185 L270.1206 148.3131 L269.8605 148.0486 L267.7306 146.9277 L265.1439 145.8989 L264.2854 145.4196 L263.8878 144.8274 L263.8938 144.4327 L263.9456 143.9633 L264.2745 143.3422 L264.971 142.1359 L265.4936 140.8068 L265.935 139.9846 L266.2629 139.7887 L265.379 139.7781 L264.5036 139.9914 L263.7742 139.9023 L263.3831 139.4557 L263.1694 138.6258 L263.1669 138.2189 L263.3109 137.9384 L263.5844 137.5376 L263.8878 137.3753 L264.69 137.2884 L270.1998 137.9026 L272.6067 138.0977 L275.6827 138.244 L276.4649 138.4986 L277.4116 139.1326 L278.114 139.631 L278.4508 140.0105 L279.1837 141.3068 L279.7313 141.8867 L279.5569 141.1528 L279.9455 140.4479 L281.7431 140.0349 L283.0305 139.3063 L283.6134 138.9665 L284.6094 139.695 L285.7513 140.3999 L286.7956 140.4723 L287.9131 140.7642 L288.9768 139.9038 L289.899 139.3833 L289.4172 139.0289 L288.7695 138.9139 L286.7014 139.0792 L286.0133 139.0823 L285.0832 138.8613 L284.0703 137.9179 L283.1834 137.8698 L282.4102 137.5544 L282.0485 137.328 L281.9763 136.8609 L281.8034 130.3352 L281.9229 130.0784 L282.5128 129.894 L283.4246 129.8079 L283.87 129.7919 L283.9502 128.9955 L283.9213 128.5436 L283.7973 127.6611 L283.4405 126.6498 L282.9229 126.8319 L282.6623 126.7328 L282.4022 126.524 L282.2508 126.1354 L282.0505 124.7514 L281.8363 123.7493 L281.6793 123.4307 L281.3615 123.2013 L280.518 123.2867 L279.9365 123.4284 L279.3935 123.4345 L278.6287 123.5442 L277.2058 123.8399 L276.2208 124.1707 L275.1606 124.8352 L274.7421 125.1225 L274.3699 125.563 L273.9086 125.842 L273.4213 125.9654 L273.0994 126.0881 L272.8613 126.3876 L272.945 126.8395 L272.9266 127.4088 L272.7293 128.0345 L271.8071 129.0892 L270.8893 130.8961 L270.2113 131.6993 L269.4809 131.8091 L269.3429 131.8754 L269.3907 133.1839 L269.0688 134.6882 L268.6175 135.2628 L267.9603 135.4076 L266.7999 135.4358 L265.376 135.4373 L263.3413 135.5859 L262.7444 135.6057 L261.886 136.5614 L261.463 136.8845 L261.1242 136.902 L259.924 136.0721 L259.2997 135.3657 L258.9355 135.1653 L259.0172 134.8719 L258.9634 134.4276 L259.08 133.7996 L259.3799 133.2723 L260.3001 132.2496 L260.2792 132.0804 L259.5214 130.5006 L259.3351 129.9847 L258.8463 129.7766 L258.5255 129.7431 L257.0712 129.8742 L255.7663 130.2857 L254.6598 130.2041 L254.3444 130.0228 L254.1466 129.6067 L253.9184 128.2806 L253.9707 127.2107 L254.3399 126.4181 L255.1216 125.3397 L255.3468 124.4961 L255.2841 123.6616 L255.2023 122.898 L255.2422 122.2784 L255.9547 121.0499 L256.551 120.5675 L257.3053 120.3206 L260.2394 119.7177 L261.9483 119.3931 L263.6905 119.3397 L266.3376 119.4708 L270.0728 120.0637 L271.8783 120.3297 L272.2854 120.444 L272.7437 120.4212 L273.1916 120.476 L274.3261 120.303 L264.6237 118.3437 L261.8317 117.8506 L260.2279 117.5572 L259.1478 117.6806 L258.1453 118.3437 L256.9885 119.3314 L254.7674 122.3386 L253.5179 124.2057 L252.6539 125.4548 L251.0806 126.7351 L248.7823 127.3981 L247.2243 127.2747 L238.9414 126.6269 L224.5343 125.3161 L221.9615 125.1782 L222.236 125.5554 L222.2689 133.4658 L221.8474 133.7981 L221.3592 133.8591 L220.7788 133.7867 L220.3583 133.398 L219.9776 132.9964 L219.5706 132.6154 L218.9881 132.3227 L218.8262 132.4797 L216.6953 135.4465 L216.2474 135.5029 L215.8773 135.4434 L215.5743 135.1797 L215.7153 134.3811 L215.7721 133.7874 L215.8822 132.6268 L216.1169 131.5271 L216.4377 131.4524 L217.2359 131.7649 L217.2753 131.7138 L217.5144 129.2104 L217.4103 128.3744 L217.4212 127.5231 L217.2758 126.6917 L217.203 126.1072 L217.0197 126.13 L217.0336 126.3495 L217.0834 127.0819 L217.1542 127.9225 L217.1213 128.7074 L217.0496 129.1235 L216.8951 129.5434 L216.4163 129.6798 L216.2873 129.2538 L216.0362 128.7127 L216.0177 127.8097 L215.7049 126.4211 L215.1444 125.5767 L214.9092 125.1485 L214.7637 125.0753 L214.3158 125.1317 L214.3273 125.2216 L215.0462 129.5236 L215.0238 129.7088 L214.8449 129.7316 L213.7464 129.09 L213.5904 128.446 L213.3597 127.4804 L212.9846 126.854 L212.4415 126.5111 L211.1317 126.2177 L210.4402 125.8862 L209.6644 125.576 L208.528 125.0212 L208.0258 124.8627 L207.2585 125.2391 L205.2532 125.6088 L204.1581 126.4112 L202.9942 126.4516 L201.957 126.9699 L199.4105 126.7816 L199.5306 124.4214 L199.2531 123.8201 L198.8366 123.2333 L195.1966 122.8789 L193.5774 122.8164 L193.6347 123.7637 L190.5796 125.7863 L191.1705 126.4882 L192.0653 127.4141 L193.8544 128.1076 L195.2275 128.9566 L197.2323 129.4809 L201.0113 134.7865 L199.3921 136.9927 L197.2014 135.512 L196.4147 137.3783 L195.9987 137.9339 L195.2768 138.9223 L195.4567 139.2576 L195.9947 140.6544 L196.1298 141.735 L196.0994 142.0178 L195.9484 142.2997 L195.9155 142.6419 L196.0764 142.8842 L196.3684 143.1235 L196.758 143.5442 L197.1083 143.977 L197.4201 144.3245 L197.6927 144.8495 L197.7166 145.2062 L197.8078 145.7008 L198.2821 146.0947 L198.6513 146.3523 L199.2372 146.5756 L199.839 146.9284 L200.2859 147.3628 L200.6073 147.9503 L200.8599 148.6567 L200.9162 149.1079 L201.6994 150.1892 L202.7142 151.3117 L204.3788 154.9855 L204.8561 157.3501 L205.3553 159.1637 L205.443 159.3717 L205.5003 159.6003 L205.6224 160.3174 L205.5785 160.6268 L205.3409 160.7677 L206.6343 160.9224 L206.4639 160.1634 L206.4365 159.6697 L206.0658 159.028 L205.7006 156.8326 L204.2313 151.9846 L203.357 149.716 L203.1487 148.4152 L203.059 147.695 L200.8853 144.8572 L200.8459 144.5417 L201.0248 144.153 L201.1424 144.0014 L201.4951 143.9107 L201.9819 144.1698 L203.3824 145.9157 L204.4525 147.9313 L206.2083 154.3438 L207.269 159.1972 L207.4035 159.5462 L207.8539 160.4865 L208.0646 160.5536 L208.3342 160.6397 L208.4418 160.3433 L208.109 159.3664 L206.2372 152.0257 L205.6817 149.7625 L205.6702 148.9402 L205.7928 148.467 L206.0498 147.9778 L206.285 147.6737 L206.4748 147.375 L206.4748 147.0092 L206.2217 145.3487 L206.1599 144.8526 L206.1709 144.5767 L206.5231 144.121 L206.8535 143.8505 L207.0772 143.8231 L207.3631 144.2902 L208.2315 146.1481 L209.1637 148.6987 L209.4701 149.8272 L209.9868 151.7034 L210.1283 151.1265 L210.0172 150.7325 L209.8642 150.3378 L209.7701 149.8036 L209.6973 149.495 L209.647 149.0942 L209.8149 148.6171 L210.073 148.4815 L210.475 148.4441 L211.0375 148.374 L211.179 148.1279 L211.2602 147.8414 L211.4117 147.5784 L210.6778 147.1677 L209.5748 146.3455 L208.4657 144.7459 L207.5525 143.2599 L207.4852 142.7196 L207.5241 142.3028 L207.5236 141.937 L207.7194 141.6832 L208.9953 141.3403 L209.6036 138.5649 L209.8557 138.3957 L210.4765 138.2715 L210.8348 138.2265 L211.9493 139.1394 L212.1341 139.1615 L212.3578 139.1334 L212.8894 138.6548 L213.3587 137.6809 L213.4763 137.5292 L214.6292 137.293 L214.9535 137.3433 L215.5873 138.1541 L217.7785 142.0231 L218.0116 142.6777 L217.8049 143.173 L217.2852 143.3696 L214.9047 144.214 L214.116 145.0103 L212.9343 147.0724 L212.4993 147.3407 L211.9996 147.583 L211.6977 147.9252 L211.6548 148.2963 L211.9199 148.3801 L212.158 148.5783 L212.4395 148.7916 L212.6194 149.1284 L212.4201 149.7952 L212.3832 150.6563 L212.158 151.1128 L211.4959 151.5342 L210.7909 151.7141 L210.3883 152.4967 L210.5906 153.0202 L212.3897 157.9635 L213.0239 160.4919 L213.0299 161.2684 L212.9686 161.5054 L213.3961 162.1317 L213.8505 162.4609 L214.1504 162.9341 L214.694 164.3644 L215.1942 165.89 L215.2435 166.3396 L214.9301 166.9179 L214.408 167.3149 L214.0558 167.5801 L213.7708 167.8369 L213.4863 168.3147 L212.9602 168.6774 L212.2372 169.1209 L211.74 169.383 L211.3061 169.8799 L211.0375 170.7074 L210.5657 170.8979 L210.0122 171.32 L209.9674 171.733 L210.1637 172.364 L210.7456 175.2055 L211.1292 177.3946 L212.0878 183.5156 L212.4624 185.1569 L212.8994 185.7429 L214.0124 189.9527 L214.0757 190.4625 L213.974 190.8069 L213.566 190.9547 L209.5543 191.5277 L208.9007 191.5978 L207.6287 191.7144 L206.1619 191.767 L205.1775 191.8218 L202.8249 191.8409 L202.226 192.0611 L201.4353 192.2363 L200.1609 192.8939 L199.3363 193.5705 L197.9851 194.8247 L195.8936 196.3234 L195.2001 196.5071 L194.2325 196.3113 L193.0717 196.1116 L191.9547 195.8792 L191.5028 195.7908 L190.73 195.6674 L189.6494 195.5607 L188.2892 195.5318 L187.2943 195.6705 L186.0742 195.4922 L184.6861 195.0175 L182.195 193.9843 L179.3302 192.4382 L177.7603 191.2824 L176.5312 190.6964 L176.451 191.1574 L176.1376 191.4652 L174.5513 191.6092 L171.2914 191.6397 L171.0358 190.6979 L170.5182 190.3558 L170.2945 190.0526 L170.0598 190.0472 L169.3309 190.0564 L168.5751 190.0129 L168.1138 190.016 L167.8258 190.2453 L167.5642 190.5196 L167.2778 190.5974 L166.8812 190.5646 L166.381 190.5303 L165.8733 190.4358 L165.4986 190.3032 L165.2326 189.936 L165.112 189.5779 L164.5361 189.43 L162.9597 189.7661 L160.2279 190.8831 L158.954 191.485 L158.8753 192.2889 L159.1274 193.3694 L159.2444 194.6723 L158.7821 195.7703 L158.6257 196.1718 L158.1379 196.6838 L156.7304 197.2766 L155.6916 197.3917 L154.6444 197.3856 L153.9538 197.5898 L153.4058 197.9418 L153.0212 198.2245 L152.5339 198.4036 L152.1024 198.4782 L150.8968 198.4714 L150.1619 198.4874 L149.5316 199.0085 L148.9656 199.3971 L148.3304 199.9747 L147.6728 200.0577 L146.3729 199.6272 L145.221 198.7297 L144.3925 197.9426 L143.3537 197.397 L142.3483 197.1227 L141.1321 197.1997 L138.7984 197.5342 L136.3014 197.5517 L133.8651 197.3955 L131.6843 197.1936 L131.3296 197.3079 L131.3187 197.2683 L131.0556 197.397 L131.774 202.6445 L131.9922 203.779 L132.2284 205.0111 L133.7285 208.2927 L134.1326 209.5941 L134.2133 210.2425 L134.3199 210.8185 L133.9597 216.4803 L133.8033 216.8818 L133.5786 217.0136 L133.3409 217.0441 L132.7849 216.1778 L131.9738 214.9275 L131.3525 213.4212 L130.9918 212.5899 L130.7198 212.0688 L130.1897 211.6855 L129.5146 211.2497 L129.2092 211.0112 L128.433 208.1098 L127.2771 204.3596 L126.9806 203.4065 L126.2388 201.987 L126.1974 201.8696 L125.4989 201.4788 L125.3893 201.417 L124.2992 201.1267 L123.7327 201.0528 L122.5036 200.9728 L121.6003 200.9622 L120.726 200.9065 L120.431 200.5842 L120.2875 200.0981 L120.3488 199.0482 L120.6916 197.8793 L120.8575 197.5548 L121.2994 197.2363 L121.9436 197.045 L122.391 196.8781 L122.7263 196.8637 L123.0826 196.9566 L123.6231 196.8751 L124.1637 196.9589 L124.491 197.1524 L124.7381 197.3696 L125.1781 197.2523 L125.9244 196.8339 L126.9144 196.4888 L127.7125 196.4294 L128.7752 196.5033 L129.1429 196.5254 L130.0875 196.4423 L130.368 196.4126 L130.663 196.293 L130.9206 196.1505 L131.0631 196.0773 L132.1746 195.6057 L134.0504 194.859 L135.1604 194.3736 L134.5222 193.9736 L132.4267 194.1039 L132.1078 193.6543 L131.8906 193.4318 L131.4138 192.9945 L131.1174 192.548 L129.967 191.7197 L127.9691 191.0126 L126.8576 190.9448 L126.6035 191.1155 L126.1107 191.5384 L125.3191 192.5457 L124.767 193.0295 L124.0755 193.3374 L123.4627 193.1179 L123.0228 192.5228 L122.816 192.8428 L122.7572 193.4745 L122.5539 193.7778 L121.9601 193.9911 L119.7126 194.6723 L118.4406 195.0578 L117.9823 194.9771 L117.4945 194.6571 L117.1547 194.145 L116.5848 192.3445 L115.8215 187.8985 L115.8125 187.2752 L115.8798 186.7121 L115.8922 186.2595 L115.6944 185.5669 L113.6393 183.7259 L112.9756 183.7488 L112.6453 183.86 L112.3399 184.4529 L112.3793 185.3154 L112.036 185.6012 L111.48 185.5669 L111.1462 185.3672 L111.1048 185.2476 L111.0271 184.7714 L110.9573 184.4193 L110.9369 184.2189 L110.6619 181.5094 L110.6315 182.0885 L110.4576 183.3945 L110.6868 185.2232 L110.914 187.2043 L110.9882 188.569 L111.1935 190.5943 L111.3664 191.9742 L111.3131 192.7065 L111.335 193.6498 L111.3968 194.3668 L111.608 194.6784 L111.741 194.1991 L111.9094 193.8395 L112.049 193.028 L112.185 191.9681 L112.0275 191.0972 L111.9055 190.5052 L111.8302 189.3538 L111.8656 188.8662 L112.1476 188.5888 L113.2243 188.3359 L114.0548 188.0387 L114.7628 188.4669 L115.0009 188.665 L115.4219 189.8826 L115.5953 191.1041 L115.4144 192.1899 L115.0124 192.9937 L114.1584 193.4875 L113.7578 193.9728 L113.2357 194.2045 L112.0803 195.0959 L111.4675 196.3737 L111.749 197.4542 L111.5657 197.9159 L111.3888 198.3731 L111.0699 198.5864 L110.779 198.7815 L109.086 199.2295 L108.4443 199.0543 L107.8514 198.8112 L107.9107 198.4569 L107.6771 197.9662 L107.143 197.618 L106.004 197.6005 L105.5183 197.1303 L105.171 196.0065 L104.4869 195.4922 L104.1487 194.7858 L104.0919 194.0551 L100.4748 192.8459 L99.8231 190.7871 L100.4708 189.3371 L101.2729 188.5042 L102.5379 188.6277 L103.2539 189.3439 L102.6485 185.8709 L101.963 186.3837 L101.5928 186.7822 L100.9625 187.0832 L97.5686 187.4207 L96.4287 187.2805 L96.0321 186.9468 L95.4841 186.4363 L94.9884 185.6354 L94.9904 185.0312 L94.8 184.4887 L94.1444 183.7008 L93.831 183.7503 L93.6053 184.1839 L93.119 184.4102 L91.9906 184.3751 L91.6478 185.1417 L90.4451 186.437 L88.2544 186.4988 L87.113 186.6839 L86.7119 183.6917 L85.8176 181.7791 L84.7066 179.465 L82.0241 182.0625 L83.5088 182.8649 L83.9413 183.3343 L84.2935 184.1267 L84.308 186.114 L84.4176 187.9229 L84.74 189.1633 L84.9706 190.1394 L85.991 191.8592 L86.7408 192.948 L88.3859 194.1923 L88.7691 195.1782 L88.9913 197.3757 L89.1866 198.114 L89.6624 198.6085 L90.6773 199.6958 L90.9328 200.5271 L90.878 201.19 L90.4874 201.7569 L89.9997 201.9839 L91.0928 202.6026 L90.74 203.3516 L91.169 203.7486 L91.3095 204.32 L91.0853 205.0073 L88.8244 206.7132 L85.9133 208.7758 L85.1978 208.7826 L84.157 208.3338 L80.3162 206.2005 L77.5476 204.1813 L73.4453 201.0376 L73.1264 200.9675 L72.8634 201.1732 L72.9381 201.6052 L78.0493 205.9681 L78.9073 206.4953 L81.7945 208.1068 L81.9818 208.394 L81.9305 208.7529 L81.5224 209.3426 L80.3197 210.4055 L79.1758 211.1156 L77.1002 211.5293 L75.2802 211.9514 L74.9355 212.0574 L75.0231 212.3705 L75.0421 212.852 L75.1881 213.5789 L74.7426 213.9804 L74.2424 214.0018 L73.9276 214.0696 L73.516 214.4117 L73.5942 215.0364 L73.6231 215.3785 L73.4617 215.9583 L73.6182 216.6014 L73.6157 217.409 L73.4762 217.8898 L73.1553 218.241 L72.674 218.5222 L71.976 218.7759 L69.87 219.4974 L67.8752 220.225 L69.3315 220.3721 L72.2112 219.2231 L73.8015 218.8361 L74.4427 218.7347 L75.1123 218.8574 L75.7296 219.1667 L76.5955 219.5408 L77.6991 220.0505 L77.6782 220.4886 L77.1784 221.1728 L76.4804 222.2479 L75.9508 222.9709 L75.357 223.0798 L73.9928 221.9058 L73.4727 221.7915 L72.813 222.1023 L71.556 223.6139 L70.596 224.4116 L69.5313 225.2695 L69.044 225.5042 L67.3107 225.447 L66.6177 225.6863 L65.4015 226.8062 L61.6185 230.5212 L60.931 230.8016 L60.3455 230.6218 L60.2942 230.2126 L61.4332 227.9415 L61.5607 225.7708 L61.9468 223.9065 L61.4347 223.7777 L61.1138 223.8524 L60.8348 223.7701 L58.8987 221.5911 L54.0236 218.0963 L53.6126 217.8372 L53.2628 218.0124 L53.0949 218.2684 L52.947 218.7363 L52.7063 220.0513 L52.4438 220.2204 L52.5554 220.9557 L52.1797 223.169 L51.9132 224.4505 L51.4737 225.6611 L50.7643 227.5803 L50.2187 228.4504 L49.4275 228.8397 L48.7783 228.8763 L44.3377 228.6043 L43.5844 228.6622 L43.1265 229.1361 L41.3818 231.4362 L40.5044 231.859 L39.0207 232.6704 L37.4234 233.6464 L35.9143 235.1069 L33.7739 236.4516 L29.5894 237.6653 L28.715 237.9967 L28.1455 238.4866 L27.7175 238.9216 L27.4889 239.5745 L27.164 241.1066 L26.4645 243.2268 L26.0988 245.3006 L25.916 245.8758 L25.6136 246.646 L25.205 247.1999 L24.93 247.7545 L24.9305 248.3091 L24.923 249.0733 L24.7028 249.5167 L24.089 250.392 L23.0547 251.2156 L22.4444 251.451 L21.9561 251.3176 L21.4429 251.1051 L20.3234 250.0888 L19.9279 249.842 L18.8871 249.314 L18.341 249.0809 L17.7387 248.9491 L17.0501 248.6611 L16.1897 248.2429 L14.6866 247.6128 L13.9736 247.382 L13.449 247.2616 L12.7898 246.9447 L12.8038 246.5074 L13.1421 245.6914 L14.5331 243.0577 L15.0154 242.3484 L14.7354 241.3199 L13.8755 241.601 L13.3857 241.4281 L13.2198 241.0418 L13.3817 240.6274 L13.8834 239.5631 L14.133 239.0808 L14.1116 238.6328 L14.0728 238.3258 L13.9367 238.0652 L13.5337 237.6744 L13.2846 237.0565 L13.2452 236.0806 L13.0006 235.6395 L12.5377 235.2471 L10.0785 234.7679 L8.1175 234.6262 L7.2018 234.7785 L6.1784 235.2943 L5.1541 236.1278 L3.5991 237.7087 L3.3152 238.1567 L2.9151 238.7509 L2.375 239.717 L1.8066 240.728 L1.3083 241.3923 L0.9277 242.8337 L0.7952 243.3685 L0.6397 243.8302 L1.1599 244.9242 L1.9256 244.973 L2.6127 245.0827 L2.6147 245.5215 L2.5703 245.9276 L2.0801 247.6082 L2.1184 247.8033 L2.2081 248.2162 L2.814 249.3353 L3.7441 250.5695 L3.9514 250.8925 L3.8547 251.2605 L3.916 251.7664 L3.7964 252.6394 L4.347 252.6173 L5.2263 253.0379 L5.7096 253.3571 L5.6493 254.72 L6.7424 253.1095 L8.0363 253.5871 L9.1563 254.2591 L9.4777 254.6255 L10.5219 255.0468 L10.648 255.0651 L11.1562 254.6141 L11.6559 254.4274 L12.0674 254.3612 L13.2766 254.4503 L13.6582 254.5265 L14.2382 254.6971 L15.5998 255.2418 L16.0472 255.2525 L16.7572 255.2982 L17.5748 255.0681 L18.2279 254.9516 L18.7929 254.9013 L19.2293 255.0461 L19.3424 254.7048 L20.6358 255.1184 L23.0358 256.1164 L24.8891 257.7025 L26.6404 259.3024 L27.6204 259.5804 L28.7494 259.7122 L29.6262 259.7077 L30.3521 259.7884 L30.948 260.0931 L31.3949 260.3613 L31.6714 260.7544 L31.5394 261.3517 L31.3705 261.7592 L29.0139 263.8862 L22.3358 270.3022 L18.0361 274.508 L16.398 276.1581 L15.7647 276.4315 L14.9138 276.4559 L14.018 276.0644 L10.5912 279.7552 L10.0441 280.3943 L8.5385 282.4047 L8.2082 283.0705 L8.3123 284.0044 L8.3691 284.3502 L8.2296 284.8873 L6.0315 287.5573 L3.8069 290.6774 L2.2071 293.5835 L0.0 299.4787 M10.3939 306.642 L10.4118 306.2741 L10.5309 306.0464 L10.7501 305.667 L11.211 305.3715 L11.6091 305.3212 L12.0041 305.4446 L12.1486 305.6937 L12.1606 306.0631 L12.0649 306.4417 L11.7471 306.7784 L11.3161 306.9566 L10.8981 306.965 L10.5598 306.8637 L10.3939 306.642 M22.6576 254.448 L23.5295 253.901 L23.8738 253.8332 L24.4348 253.7502 L25.0391 253.6252 L25.9055 253.6504 L26.329 254.1463 L26.3684 254.336 L26.038 254.9028 L25.5508 255.6715 L25.1402 256.1439 L23.521 255.3439 L22.6576 254.448 M44.4867 252.5541 L44.9361 252.2212 L44.7139 250.5177 L45.1324 250.165 L48.305 250.4552 L50.9885 250.6769 L60.2818 251.5073 L60.2753 251.8951 L60.1034 252.1724 L59.7651 252.6013 L59.4458 253.2428 L58.8763 253.9147 L58.2266 254.5006 L57.6417 255.1062 L56.7838 255.7873 L56.0947 255.5633 L55.4605 255.1184 L55.0046 255.107 L54.8372 255.142 L54.5313 255.3942 L54.3808 255.6205 L54.342 255.9153 L54.4242 256.188 L54.7161 256.8143 L54.8731 257.2432 L54.472 257.7772 L53.9703 258.9382 L53.3027 260.7003 L52.8134 260.8588 L52.2903 260.6965 L50.4922 259.0936 L48.1013 256.6596 L46.7257 255.4437 L45.9629 254.8861 L45.3815 254.3566 L44.7761 253.639 L44.668 253.1247 L44.4867 252.5541 M47.9393 234.0312 L47.9762 233.7058 L48.1974 233.4697 L48.9856 233.0758 L51.5001 232.7413 L53.5214 232.5036 L54.9947 232.4739 L55.6005 232.4845 L56.8042 232.9417 L57.125 233.136 L57.125 234.0342 L56.844 234.4654 L55.8466 235.1077 L54.8223 235.7682 L53.489 236.4303 L51.8628 237.0337 L50.8813 237.5411 L49.6936 238.1917 L49.3304 238.3532 L49.1261 238.178 L48.9109 237.5479 L48.5367 236.2192 L48.1566 234.87 L48.0604 234.4997 L47.9393 234.0312 M76.7714 213.6048 L76.9996 213.3267 L77.0733 213.2368 L77.7574 213.2764 L78.7304 213.9073 L79.5051 214.5267 L79.956 214.7035 L80.8025 214.3705 L81.0063 214.3599 L81.08 215.0235 L80.8035 215.7846 L80.3367 216.4323 L79.8843 216.8818 L79.1459 218.0155 L78.6233 218.0612 L77.9223 217.3351 L77.0105 215.1515 L76.7714 213.6048 M84.2831 218.6349 L84.299 218.3774 L85.0832 215.4364 L85.2167 215.0921 L85.4878 214.6715 L85.9491 214.3439 L86.5445 213.9301 L88.0187 213.1644 L89.2927 212.3964 L91.6886 210.2516 L92.014 209.7685 L91.8267 209.5362 L91.2806 209.3304 L90.6947 209.0577 L89.9374 208.9114 L87.7437 208.9876 L87.3925 208.8794 L87.2425 208.5601 L87.4508 208.2439 L92.0543 204.6461 L92.4001 204.4373 L92.8889 204.493 L94.7308 205.4004 L95.1607 205.754 L95.2474 206.2812 L95.0621 207.002 L92.5187 210.6867 L91.2492 211.9636 L89.5617 213.5019 L88.077 214.7317 L87.0542 215.7442 L85.4195 217.5934 L85.0369 218.1115 L84.6772 218.481 L84.4634 218.5907 L84.2831 218.6349 M86.6347 192.0276 L86.6347 191.1795 L86.7318 190.813 L86.8753 190.2324 L87.5664 190.0594 L87.9595 189.9878 L88.3062 189.9314 L88.4343 190.0541 L88.7262 189.9908 L89.7087 189.9459 L90.7904 190.0221 L92.7812 190.0495 L94.2874 190.9021 L96.2758 192.1975 L98.8117 193.9119 L99.2472 195.9745 L98.8097 199.0657 L98.6722 200.0394 L97.5009 200.4151 L96.8776 200.5271 L95.9883 200.4707 L95.0003 200.4075 L94.0318 200.1217 L93.6188 200.2497 L90.5392 198.9933 L89.3615 196.6328 L89.2469 195.7162 L89.5219 194.7767 L89.3385 194.0437 L86.6347 192.0276 M88.5105 215.5545 L88.6241 215.3054 L92.4689 211.3686 L92.9536 210.8931 L94.2062 209.4577 L94.6575 209.1042 L95.0138 208.3758 L95.227 207.879 L95.5862 207.5026 L96.1562 207.2169 L96.9803 207.3616 L97.7879 207.8744 L98.4296 208.6249 L100.0807 211.1766 L100.4837 211.8646 L100.819 212.6715 L100.8215 213.1896 L100.6905 213.572 L97.3724 216.7652 L97.0789 216.8993 L96.8069 216.7058 L96.7177 216.1572 L96.7516 214.7241 L96.7137 212.9884 L96.4332 212.1259 L95.9968 211.6634 L95.5568 211.5042 L94.9958 211.4234 L94.5893 211.4745 L94.0672 211.7061 L93.4693 212.1541 L91.8755 213.556 L90.4147 215.1972 L89.5015 215.8783 L88.9484 216.1343 L88.639 215.918 L88.5105 215.5545 M99.2058 337.2766 L99.2491 335.9704 L99.572 334.0053 L99.7429 332.8909 L99.8106 330.5412 L100.1629 325.9185 L100.5734 322.1733 L100.7667 319.3421 L100.967 316.9831 L101.0064 314.6035 L100.8275 312.6246 L100.3846 307.0305 L100.0269 299.4635 L99.6158 294.4756 L99.6572 293.6491 L99.8281 293.0823 L100.3163 292.8134 L100.8579 292.9589 L101.4757 293.2194 L101.8309 293.582 L102.1015 294.2592 L102.4368 298.6332 L102.6664 299.6448 L102.9958 300.0835 L105.0928 300.8346 L105.5561 301.1286 L105.6822 301.6375 L105.8934 306.4188 L105.864 313.208 L105.9447 313.8578 L106.5217 315.5709 L106.4529 316.4308 L106.3652 322.1649 L106.0798 323.197 L105.5267 324.1507 L105.5536 325.604 L105.5482 326.8013 L105.2562 327.7748 L105.2826 328.3955 L105.312 329.0414 L105.4107 330.0507 L105.3927 330.6745 L105.183 331.1977 L104.622 331.3927 L104.0953 331.3623 L103.3714 331.3013 L102.6052 331.3356 L102.3257 331.523 L102.1089 332.047 L101.9495 332.7508 L101.7617 334.1454 L101.6541 334.9391 L101.811 336.0473 L102.2943 338.1472 L102.4059 338.9264 L102.3316 339.5989 L102.1916 339.9127 L101.809 340.1542 L101.3347 340.3796 L100.6596 340.1542 L100.134 339.8061 L99.8271 339.1686 L99.4868 338.282 L99.2058 337.2766 M106.86 298.88 L107.5196 299.4193 L107.8793 299.9594 L107.9989 300.8186 L107.9391 302.3565 L108.2391 303.4161 L108.6586 304.0354 L109.1981 304.3553 L109.7178 304.6547 L110.1572 305.2344 L110.4571 305.9138 L110.5966 307.1326 L110.7366 309.2905 L110.5568 310.2099 L110.1572 311.009 L109.4976 311.3685 L108.7383 311.4287 L108.2391 311.6084 L108.1389 313.2873 L108.3586 313.7664 L108.9983 314.0665 L109.3979 314.5258 L109.8976 316.964 L110.5368 321.8999 L110.3968 323.178 L110.0172 323.6578 L109.4178 323.6776 L108.9381 323.0988 L108.4986 320.4404 L107.7991 314.7261 L107.6193 311.4089 L107.3597 308.3917 L107.14 303.2958 L107.1001 302.0572 L107.1001 300.8384 L107.2197 300.1186 L107.1599 299.4795 L106.86 298.88 M113.1072 198.8592 L113.168 198.1064 L113.1734 197.4397 L113.3872 196.9345 L113.6746 196.6648 L114.2018 196.5429 L115.3402 196.6998 L116.7432 196.8454 L117.211 197.2203 L117.7954 197.3201 L118.4202 197.8572 L118.6055 198.0112 L118.6469 198.3396 L118.2892 199.7293 L117.9917 200.0113 L117.5927 200.3617 L117.0506 200.7679 L116.2933 201.478 L115.9704 201.7081 L115.0408 202.1835 L114.6073 202.3489 L114.3248 202.3954 L114.002 202.3801 L113.5546 202.1698 L113.2681 201.1168 L113.1072 198.8592 M127.0424 191.2481 L127.5925 191.1787 L128.2526 191.2664 L129.8006 191.7525 L130.4826 192.1853 L131.7661 193.9789 L132.3226 194.5199 L131.5917 194.9024 L131.086 195.166 L129.4977 195.4762 L128.5147 194.8788 L127.8201 194.1953 L127.4609 193.3991 L127.2547 192.7842 L127.146 192.3171 L127.0609 191.8767 L127.0424 191.2481 M161.9229 329.6538 L161.9906 329.2494 L162.321 328.8914 L162.7016 328.151 L163.0952 327.8243 L163.43 327.822 L163.5615 328.0825 L163.5082 328.445 L163.1515 329.222 L162.8964 329.551 L162.3673 329.8945 L162.0903 329.8899 L161.9229 329.6538 M185.3931 276.2792 L185.5426 275.2729 L186.1853 273.6937 L186.4822 272.4344 L187.1971 266.6425 L187.6152 264.1117 L188.1737 262.3778 L188.5349 261.5665 L188.9359 260.4223 L189.2488 260.017 L189.472 259.956 L190.0251 260.1518 L191.3344 260.8512 L194.1468 262.4814 L195.5698 263.5647 L196.1437 264.4561 L197.3888 267.0241 L197.7066 267.9809 L197.7086 268.5333 L197.6992 269.5084 L197.5866 270.9855 L197.8023 271.6559 L198.6687 273.0423 L198.7589 273.7615 L198.8271 275.8952 L198.3997 280.9321 L198.0778 286.2874 L197.8671 286.7125 L197.3594 286.9326 L195.4367 287.0842 L193.396 287.1132 L192.134 287.0926 L191.8884 287.0545 L191.6408 286.8922 L191.4779 286.5853 L191.019 285.3459 L190.2612 283.0804 L189.8143 281.7503 L189.3848 279.8725 L189.1203 279.3408 L188.5847 278.8091 L187.5892 278.2674 L186.8868 277.9345 L185.8619 277.3312 L185.4873 276.9229 L185.3931 276.2792 M197.8332 291.5222 L199.1629 273.3234 L200.7722 269.1884 L205.7185 271.3786 L204.8681 292.0798 L212.5651 297.6292 L212.4839 298.966 L210.053 300.7081 L207.8659 300.3433 L198.6333 292.9749 L197.8332 291.5222 M210.192 312.4486 L210.9623 310.8643 L211.7983 308.883 L212.2826 307.8486 L212.6348 307.1448 L213.1629 308.2013 L213.5814 309.0811 L214.0657 310.5778 L214.3736 311.8103 L214.3955 312.8668 L214.2416 313.8791 L213.4051 313.6156 L212.6567 313.4609 L211.7764 313.3071 L210.764 312.8889 L210.192 312.4486 M213.001 305.3341 L213.579 304.7286 L214.1569 304.3431 L215.3397 304.0407 L216.0551 303.931 L216.4676 304.481 L216.1652 304.6189 L215.8075 304.6463 L215.67 305.1688 L215.8897 305.5817 L216.3301 306.1043 L216.7153 306.7372 L217.0456 307.5622 L217.5682 308.5806 L217.8158 308.8282 L218.2837 308.9104 L218.7236 308.5806 L219.3015 308.4702 L219.7689 308.4976 L220.2093 308.9653 L220.3194 309.8184 L220.2093 310.7264 L219.9617 311.5513 L219.4664 311.1941 L219.0813 311.2489 L219.1087 311.744 L218.8063 311.9916 L218.4486 311.9093 L218.2558 311.2215 L218.1457 310.4788 L217.8158 310.0386 L217.4307 310.2587 L217.4855 310.9739 L217.4033 311.5787 L216.8254 311.3312 L216.7153 310.9191 L216.8528 310.3958 L216.9903 309.6805 L216.495 308.9653 L215.9998 308.6355 L215.3397 308.5806 L215.3123 308.9653 L215.3671 309.4604 L215.6147 310.6434 L215.9998 311.5239 L216.5503 311.9093 L216.8254 312.377 L216.6879 312.9544 L216.2474 313.5051 L216.0551 314.2204 L215.9176 315.5686 L215.7801 316.504 L215.3671 316.916 L215.0093 316.2838 L214.9819 315.4581 L215.2849 313.8898 L215.3671 312.3222 L215.1469 311.1667 L214.817 310.1757 L214.2665 308.8282 L214.6242 308.0299 L215.0921 307.5348 L215.3671 306.8744 L215.3945 306.1591 L215.1195 305.9115 L214.5141 306.1317 L213.9093 306.4623 L213.0837 306.297 L213.001 305.3341 M222.0642 309.0894 L222.1992 308.7269 L222.2395 308.6187 L222.9779 308.084 L225.3858 306.9498 L225.6613 306.6725 L226.0081 306.1096 L226.4221 305.6777 L226.7878 305.5764 L227.3005 305.4918 L230.4398 306.3152 L231.2967 306.4051 L231.9265 306.4295 L232.4805 306.5674 L233.3658 307.0975 L234.1904 308.0779 L234.2242 308.4603 L233.9697 309.7544 L234.2636 310.4849 L234.8356 310.6472 L234.9651 310.7005 L235.6262 310.8193 L236.0731 310.9206 L236.4638 310.9663 L236.4842 311.0097 L236.5569 311.1621 L236.5953 311.4698 L236.4418 311.6785 L236.3721 311.7737 L236.0079 311.9436 L235.2057 312.0784 L235.1629 312.0746 L232.6489 311.8339 L230.93 311.5734 L230.1593 311.6839 L229.0951 311.6519 L227.8819 311.5117 L227.3493 311.45 L226.9517 311.3457 L226.4326 311.2093 L225.1432 310.8711 L223.2435 310.1566 L222.4039 309.7163 L222.1563 309.4436 L222.0642 309.0894 M225.0415 126.2832 L225.2777 125.909 L225.4486 125.8267 L226.0021 125.7063 L226.5372 125.7985 L226.9906 125.845 L227.2576 126.0531 L227.3702 126.3495 L227.6288 126.7107 L227.8052 127.2412 L227.8171 127.5025 L228.0353 127.5368 L228.1808 127.2152 L228.4663 126.8548 L228.8748 126.7069 L230.0337 126.6353 L230.7048 126.5256 L231.226 126.7138 L231.3774 126.8327 L231.4467 127.2267 L231.6365 128.584 L231.7869 131.1133 L231.7302 131.3762 L231.5847 131.6429 L231.6161 132.0049 L231.6753 132.3707 L231.7899 132.7358 L231.8403 133.8194 L231.773 134.0115 L231.4741 134.4542 L231.1293 134.5594 L229.1215 134.4733 L228.5654 134.3216 L228.4205 133.7455 L228.2511 132.469 L228.2287 131.1895 L228.0941 130.6035 L228.0074 129.3575 L227.9666 128.4232 L227.8067 128.2425 L227.6049 128.2265 L227.4913 128.5862 L227.4973 130.1256 L227.3737 130.6797 L226.8127 130.9853 L226.3289 131.1354 L225.7116 131.2131 L225.328 131.0058 L225.204 130.5654 L225.2747 130.1218 L225.3106 129.5106 L225.2622 128.7829 L225.2049 127.9857 L225.1501 127.5407 L225.0669 126.819 L225.0415 126.2832 M235.0478 126.8075 L235.4758 126.4722 L239.9199 127.104 L240.1322 127.2122 L240.1655 127.562 L240.7634 130.6622 L240.1067 130.4206 L239.5522 130.2346 L238.9708 130.211 L238.2698 130.3329 L237.8329 130.7475 L237.5783 131.1933 L236.9709 131.7321 L236.4657 131.3816 L235.7254 130.8047 L235.4808 130.1104 L235.1345 129.3803 L235.0792 128.7173 L235.1758 127.6687 L235.0478 126.8075 M240.2004 127.5528 L242.8579 128.1968 L244.4622 132.498 L241.7723 133.9315 L241.4529 132.9575 L240.7978 130.653 L240.2004 127.5528 M241.8256 133.9581 L244.5155 132.5247 L242.9112 128.2235 L243.6302 128.4513 L245.3764 128.5931 L246.4496 128.6373 L247.6493 128.587 L248.0185 128.6327 L248.4395 128.5809 L249.1515 128.2707 L249.5734 127.9552 L250.0821 127.892 L250.2974 128.0718 L250.4473 128.5016 L250.2909 128.6807 L250.0517 128.8072 L249.5246 128.9421 L249.1111 129.1045 L248.7509 129.4192 L248.6124 129.7477 L248.6697 130.0372 L248.9422 130.2933 L249.2875 130.6294 L249.9501 130.7536 L250.9112 130.0113 L251.4896 130.2095 L252.6724 133.8583 L253.4013 136.4204 L253.6374 138.3126 L253.7585 139.4199 L252.9977 140.5508 L250.8853 141.7686 L250.2391 141.5674 L248.0868 141.2046 L247.7231 141.2046 L247.5885 140.8556 L245.929 135.5737 L245.7272 135.0502 L245.23 134.9786 L242.3134 134.3986 L241.9517 134.202 L241.8256 133.9581 M271.1031 135.1523 L271.2246 134.7156 L272.0507 133.4521 L272.391 132.3349 L272.3666 131.3633 L272.9739 129.7111 L273.8483 128.9581 L274.4068 127.2335 L276.4958 125.9456 L278.0991 124.6828 L279.1683 124.4641 L280.3585 125.1683 L281.8647 128.4239 L282.0345 129.3712 L279.7756 130.0273 L276.6662 134.1327 L275.8646 134.9336 L274.3585 135.1279 L272.8523 134.8856 L271.1031 135.1523 M293.8877 314.2988 L294.229 312.0914 L294.0771 310.3798 L294.2235 310.0005 L294.524 309.7994 L294.8343 309.679 L294.9081 309.3979 L294.8762 309.2517 L294.806 309.0156 L294.7641 308.6812 L294.8827 308.5433 L295.2115 308.4618 L295.5169 308.736 L295.6405 309.0742 L295.7057 309.3789 L295.8343 309.5404 L296.1776 309.6836 L297.0649 310.1284 L297.1561 310.6121 L297.2702 311.5247 L297.9298 312.617 L298.2825 313.7169 L297.7061 314.0002 L296.599 314.5456 L294.4263 315.6531 L294.2938 315.3294 L293.8877 314.2988 M318.6224 327.726 L318.6483 326.8394 L318.8332 326.2537 L319.8675 325.5453 L321.531 324.8956 L322.2759 327.5874 L322.2734 327.7717 L322.2535 329.356 L321.122 329.2844 L320.2093 329.2623 L319.4923 329.3522 L318.9582 329.0841 L318.6653 328.4359 L318.6224 327.726 M321.8858 324.632 L324.7216 322.8901 L325.7749 324.8347 L324.1138 326.2925 L323.2629 326.8196 L322.534 326.9818 L321.8858 324.632 M322.6959 329.3309 L322.6959 328.1564 L323.2629 328.0345 L325.9772 327.9941 L327.557 327.5082 L328.813 329.858 L328.1648 330.2632 L327.0304 330.222 L322.6959 329.3309 M333.3812 326.8227 L333.6064 326.0648 L334.6328 322.1215 L335.1165 321.2037 L335.8056 320.9028 L343.0363 321.6691 L343.6301 321.9806 L343.8249 322.5138 L343.6565 324.2497 L343.2938 325.4524 L342.1106 326.5865 L341.3005 327.6316 L339.3758 328.6438 L336.8464 328.2318 L334.2277 327.7885 L333.597 327.5242 L333.3812 326.8227 M347.9104 207.1163 L347.9432 206.6561 L348.143 206.3376 L348.3343 206.01 L348.3886 205.6732 L348.6801 205.2915 L349.3168 204.9821 L350.6267 204.4633 L352.0755 204.0602 L352.5732 206.4199 L352.4736 206.8039 L350.5973 207.5574 L350.0995 207.6854 L349.8579 207.5148 L349.5455 206.9601 L348.8346 207.1452 L348.3084 207.2588 L347.9104 207.1163 M351.1802 313.0153 L351.4447 312.0464 L352.0904 311.1948 L353.8521 308.4054 L355.438 306.703 L356.7887 305.1171 L358.1687 303.5905 L359.0496 302.6506 L359.6365 302.1219 L359.6953 303.5608 L359.4018 303.7962 L358.9026 303.9135 L358.4034 304.0895 L358.0805 304.5298 L357.8454 305.0295 L357.8454 306.057 L357.6401 307.0259 L357.4343 308.0825 L356.8474 307.4662 L356.3188 307.2606 L355.8196 307.3489 L355.6138 307.7595 L355.5262 308.6111 L355.2028 309.1108 L354.5571 309.4627 L354.0873 310.197 L353.6763 311.1659 L353.2358 312.0464 L352.8248 312.8691 L352.208 313.4267 L351.65 313.5737 L351.1802 313.0153 M356.2092 223.2536 L356.2575 222.8124 L356.3318 221.0837 L356.4529 220.5648 L356.6342 220.1968 L356.9436 219.9713 L357.4692 219.7679 L357.9196 219.7945 L359.1562 220.5442 L360.1541 220.8749 L361.1032 221.2528 L361.6199 222.3065 L361.8815 223.137 L361.9452 223.3709 L361.9288 223.6284 L361.746 223.8722 L361.4092 224.1008 L357.3357 225.3907 L356.7717 225.1164 L356.3447 224.2859 L356.2321 223.8791 L356.2092 223.2536 M380.0501 216.2235 L380.1976 215.8601 L380.6001 215.5538 L380.9265 215.2437 L381.2548 215.0021 L381.5527 214.91 L382.748 214.2768 L384.0284 213.668 L384.6437 213.3008 L385.0089 213.1377 L385.2615 213.1202 L385.3985 213.2277 L385.408 213.4128 L385.0612 213.7808 L384.8136 214.1701 L384.4165 214.6273 L383.1535 215.6002 L380.9688 216.9092 L380.4337 216.9283 L380.1433 216.5846 L380.0501 216.2235 M447.438 247.9358 L447.4485 247.1999 L447.6358 246.8791 L447.8919 246.4434 L448.8295 245.9588 L449.687 245.7371 L450.0298 245.5055 L450.0198 245.9489 L450.0701 246.6247 L449.5858 247.7842 L449.2939 248.057 L448.8196 248.1575 L447.5391 248.1072 L447.438 247.9358 M449.7567 248.7281 L450.2619 248.1271 L450.7861 247.2502 L450.9171 246.6651 L451.2195 246.0906 L451.5727 246.272 L451.5727 246.6247 L451.5727 247.865 L451.5224 248.2688 L451.5513 248.6596 L451.5727 248.9437 L451.2195 248.9841 L449.7567 248.7281 M451.0496 245.3052 L451.1936 244.8587 L451.2733 244.3932 L451.2041 244.1121 L451.21 243.9384 L451.4636 243.652 L452.4451 242.7423 L452.9259 241.9568 L453.3379 241.1188 L454.0165 239.9288 L454.4176 239.3337 L454.9447 238.8675 L455.1973 238.9604 L455.8465 239.7002 L456.3751 240.9047 L453.1755 244.9082 L453.028 245.2717 L452.9075 245.4667 L452.7804 245.5512 L452.4561 245.488 L452.3136 245.5063 L451.6913 245.6526 L451.3909 245.6701 L451.1976 245.6114 L451.074 245.5025 L451.0496 245.3052 M452.0162 248.5103 L452.7122 248.3388 L452.6315 247.2403 L452.7321 245.8887 L452.8836 245.6564 L454.709 245.939 L455.6263 246.6148 L455.9491 246.7763 L455.6367 247.1389 L455.5256 248.1674 L455.432 248.5118 L455.3443 248.8333 L455.0115 249.3475 L454.2148 249.7711 L453.8416 248.9544 L452.7829 248.7929 L452.1577 248.8333 L452.073 248.6398 L452.0162 248.5103 M453.2064 244.9387 L456.406 240.9352 L456.9505 241.6612 L458.5907 243.3411 L461.2143 245.0637 L462.009 245.4751 L462.2382 245.7714 L462.284 246.0282 L462.2093 246.3687 L461.9701 246.6605 L461.6886 246.8891 L460.9293 246.9843 L457.7053 247.0209 L456.4732 247.2989 L455.6113 246.3436 L454.855 245.7958 L454.1381 245.4575 L453.7266 245.1917 L453.2064 244.9387 M457.1468 238.9719 L458.2285 237.3697 L460.2054 236.9689 L459.4441 238.8919 L457.8737 240.7699 L457.534 241.1759 L457.1468 238.9719 M459.6977 242.8055 L460.0804 242.3088 L461.2607 240.7752 L462.3961 239.8137 L463.3846 239.2659 L463.558 239.8274 L463.558 240.7622 L463.2376 241.8441 L462.3423 243.0729 L461.434 243.6474 L460.7664 243.7807 L459.6977 242.8055 M463.536 238.1491 L464.109 237.8161 L464.5703 238.3029 L465.6988 238.8759 L465.4766 239.7055 L463.8693 240.68 L463.8355 239.8762 L463.536 238.1491" stroke-dasharray="" fill="none" fill-opacity="1.0" stroke="#ff0000" stroke-opacity="1.0" stroke-width="1.0px" stroke-linecap="butt" stroke-linejoin="miter" stroke-dashoffset="0.0px"/>
</g>
</svg>