<?xml version="1.0" standalone="no"?>
<!DOCTYPE svg PUBLIC "-//W3C//DTD SVG 1.1//EN" "http://www.w3.org/Graphics/SVG/1.1/DTD/svg11.dtd">
<svg width="512px" height="512px" version="1.1" xmlns="http://www.w3.org/2000/svg" xmlns:inkscape="http://www.inkscape.org/namespaces/inkscape">
<g id="layer" inkscape:groupmode="layer" inkscape:label="layer">
<path d="M0.0 240.5445 L2.6689 242.6702 L4.3959 240.8482 L8.7917 244.9172 L7.6928 246.0711 L13.3053 251.2941 L14.1688 250.3831 L31.556 266.5378 L30.6925 267.4488 L36.3443 272.6717 L37.4041 271.4571 L45.8818 279.3522 L55.7332 268.7241 L59.5404 272.7324 L71.9037 259.5536 L70.9225 258.6426 L122.5346 203.6803 L123.5158 204.5912 L136.7034 190.5622 L141.0208 193.6595 L147.4968 186.7968 L140.8638 180.6021 L150.833 169.974 L151.5394 170.5813 L153.0309 169.2452 L153.6589 169.8525 L155.6998 167.8484 L157.2305 169.3059 L158.1725 168.2735 L176.6586 185.6429 L175.7167 186.6753 L182.703 193.2951 L183.6842 192.2626 L186.1176 194.6312 L187.0596 193.5988 L219.008 223.0538 L218.1053 224.0255 L225.1309 230.5238 L226.0336 229.5521 L258.0998 259.0678 L257.1578 260.1002 L264.1834 266.5985 L265.0861 265.5661 L297.2308 294.8388 L296.1319 296.0534 L303.2359 302.5517 L304.2563 301.3978 L336.1263 330.7313 L335.0666 331.8852 L344.6433 340.752 L345.7423 339.5981 L358.2234 351.4408 L357.1637 352.5947 L358.5766 353.87 L357.2814 355.2061 L358.3411 356.1779 L351.8258 363.0405 L350.8446 362.0688 L344.1723 369.2352 L345.1143 370.1461 L297.4271 421.0392 L296.5636 420.2497 L289.8128 427.416 L296.9168 434.2179 L297.898 433.1855 L333.3789 466.8307 L332.4762 467.8024 L339.541 474.4829 L346.2133 467.438 L345.232 466.5878 L376.5918 433.1855 L377.4945 434.0357 L383.8528 427.2338 L382.9501 426.3836 L396.3732 412.1117 L397.2759 413.0226 L404.5369 405.249 L403.5949 404.338 L435.7789 370.0854 L463.724 396.868 L462.8998 397.8397 L469.1404 403.8522 L475.4987 397.8397 L474.5959 396.868 L476.5976 394.8032 L504.1502 364.1337 L505.1315 365.0447 L511.1758 358.7893 L512.0 357.9391 L505.8379 352.0481 L505.053 352.8983 L481.7785 330.4883 L485.8603 326.1157 L477.9713 318.7064 L477.2649 319.4959 L417.5675 263.8656 L418.274 263.0761 L410.385 255.7275 L402.9277 263.6834 L403.9482 264.5944 L392.2521 277.1659 L391.3101 276.3156 L389.6224 278.0161 L387.6992 276.2549 L386.7965 277.2266 L373.9229 265.2624 L374.8256 264.2907 L369.0168 258.9463 L368.1141 259.8573 L355.2012 247.8931 L356.1039 246.9821 L350.2951 241.577 L349.3924 242.488 L336.5188 230.5845 L337.4215 229.6128 L335.1059 227.4265 L341.5819 220.4423 L331.966 211.0288 L331.3772 211.8183 L326.5104 202.4049 L317.0907 193.538 L307.4747 189.0439 L308.299 188.4973 L297.8195 178.6587 L291.265 185.7036 L289.4203 183.9424 L288.5568 184.8533 L275.7617 172.8891 L276.5467 171.9782 L270.7772 166.573 L269.9137 167.484 L257.0793 155.5805 L257.9428 154.6088 L252.1732 149.2644 L251.2705 150.2361 L238.4362 138.2111 L239.3389 137.2394 L237.3765 135.4782 L239.2997 133.4133 L238.3577 132.5023 L250.7995 119.0198 L251.82 119.9915 L259.4343 111.8534 L245.1085 97.8242 L245.5402 97.3384 L243.8133 96.2452 L242.989 76.2036 L244.2057 74.746 L243.5385 74.0779 L245.6187 71.8309 L221.52 49.0563 L219.5968 51.3033 L218.7726 50.2102 L216.9279 51.4855 L197.3427 52.1536 L180.6228 37.5171 L172.93 45.716 L173.9112 46.6877 L157.2305 64.543 L156.21 63.5713 L150.676 69.523 L151.5787 70.3733 L134.9372 88.1071 L134.0345 87.2568 L128.4219 93.2693 L129.3246 94.1196 L112.6439 111.9141 L111.7412 111.0639 L107.8163 115.3151 L101.772 109.9707 L96.3164 115.7402 L97.2192 116.6512 L80.2637 134.6279 L79.361 133.7777 L73.8662 139.5472 L79.4002 144.9524 L70.6085 154.4266 L71.5505 155.3376 L19.9776 210.1786 L19.0749 209.3283 L6.4368 222.8716 L10.4402 226.5155 L0.2747 237.265 L1.8447 238.6619 L0.0 240.5445" stroke-dasharray="" fill="none" fill-opacity="1.0" stroke="#ff0000" stroke-opacity="1.0" stroke-width="1.0px" stroke-linecap="butt" stroke-linejoin="miter" stroke-dashoffset="0.0px"/>
</g>
</svg>