<?xml version="1.0" standalone="no"?>
<!DOCTYPE svg PUBLIC "-//W3C//DTD SVG 1.1//EN" "http://www.w3.org/Graphics/SVG/1.1/DTD/svg11.dtd">
<svg width="512px" height="512px" version="1.1" xmlns="http://www.w3.org/2000/svg" xmlns:inkscape="http://www.inkscape.org/namespaces/inkscape">
<g id="layer" inkscape:groupmode="layer" inkscape:label="layer">
<path d="M32.7726 16.1056 L36.1056 17.1698 L36.0525 16.6998 L36.0259 16.4167 L36.1225 16.3775 L36.3133 16.3782 L36.6324 16.4266 L36.8655 16.6079 L37.3086 16.8103 L38.1003 17.0748 L38.5873 17.2219 L38.9922 17.2319 L39.6048 17.3982 L40.1297 17.6311 L40.5829 18.1247 L40.4613 18.2904 L40.2351 18.4885 L40.3547 18.5263 L40.6718 18.2662 L41.2156 18.7666 L41.2832 18.8231 L42.7378 20.0456 L44.2004 21.3121 L47.4747 22.4123 L48.2342 25.293 L50.0413 29.4843 L53.064 29.154 L53.1815 29.1584 L53.6416 29.3142 L54.1689 29.5184 L54.5673 29.8214 L54.7026 30.1771 L54.8136 30.4174 L55.0612 30.7769 L55.3172 31.0569 L55.4765 31.2804 L55.7088 31.5517 L56.0026 31.8726 L56.4204 32.3985 L56.8084 33.0063 L56.8691 33.4483 L56.8623 33.4613 L56.4377 34.2703 L55.2709 36.242 L54.8849 36.9206 L54.6543 37.2105 L54.4003 37.4923 L54.0658 37.8052 L53.5587 38.1771 L53.1333 38.4571 L51.6332 39.3337 L49.7668 39.646 L48.4974 40.2581 L48.1303 40.5114 L47.7975 40.841 L47.5346 41.3426 L47.5185 41.6853 L47.5684 42.128 L47.6413 42.3868 L47.8305 43.1237 L47.9701 43.7657 L48.0567 44.3343 L48.111 45.2159 L48.0889 46.5605 L48.1694 47.5743 L48.3275 48.1796 L48.7409 48.7172 L48.8343 48.9984 L48.8959 50.194 L48.8512 50.592 L48.6926 50.975 L48.2615 51.4232 L47.9681 51.6529 L47.6099 51.8056 L47.1805 51.9726 L46.7208 52.0694 L46.3372 52.0961 L46.0869 52.0117 L45.9331 51.9397 L45.9074 51.8584 L45.9613 51.7901 L46.1565 51.6336 L46.3461 51.376 L46.4608 51.1047 L46.3807 50.4181 L46.2475 50.7521 L46.0676 51.0427 L45.7951 51.309 L45.5113 51.476 L45.063 51.5722 L44.8613 51.5598 L44.7708 51.6852 L42.6875 51.2432 L38.2549 50.7788 L33.9398 50.1767 L36.395 53.1099 L37.5557 56.8116 L37.9023 59.3537 L38.0713 64.2944 L39.6793 66.3044 L44.0173 69.664 L44.8738 70.9551 L47.1668 67.8433 L50.7755 69.127 L52.088 71.5188 L54.7955 74.8367 L56.7206 78.5332 L57.1396 78.805 L57.0225 78.9925 L62.0697 78.3283 L65.2409 75.9738 L73.0612 80.5133 L74.8423 82.5828 L73.4601 84.5108 L70.2326 89.9954 L68.5824 91.3312 L65.3081 91.5931 L64.3651 91.5931 L61.9031 89.3406 L61.156 89.6441 L62.6235 91.3318 L63.2474 92.8712 L64.1751 95.02 L64.0403 95.8127 L62.2858 97.1782 L61.8334 98.0602 L62.0616 97.9597 L62.1828 97.9907 L62.3619 98.1391 L63.1967 98.7411 L64.0745 99.4729 L64.1932 99.5325 L64.3128 99.5468 L64.5965 99.1837 L64.6464 98.8299 L64.7342 98.4655 L64.8292 98.0677 L65.1858 97.6506 L65.6184 97.3657 L66.126 97.0503 L66.5731 96.7412 L66.9941 96.3508 L67.2686 95.9039 L67.4514 95.4396 L67.5134 95.2416 L67.6518 95.0803 L67.8873 95.0306 L68.0181 94.9989 L68.5184 95.1671 L69.0851 95.1758 L69.4199 95.0145 L69.5878 94.9617 L69.7898 94.9673 L70.0361 94.9673 L70.3758 94.7997 L70.7502 94.6898 L71.1985 94.6954 L71.5471 94.7569 L71.9794 94.8146 L71.3873 95.4769 L69.2251 97.1652 L68.5655 97.7232 L68.1915 98.3327 L67.7162 99.7634 L67.4771 100.8068 L67.042 101.6931 L66.5293 102.9469 L66.0604 104.061 L65.187 105.8039 L64.7909 107.2774 L64.6307 108.1439 L64.4017 108.4952 L64.1514 108.8607 L63.9453 109.3163 L63.5988 109.6701 L63.4353 109.762 L63.3508 109.8557 L63.2397 110.0146 L63.4293 110.2064 L63.835 109.9804 L64.5869 109.3958 L65.2735 109.0761 L65.8293 108.8701 L66.7112 109.5596 L67.4602 110.1933 L67.9521 110.6321 L68.229 110.8028 L68.3799 110.999 L68.53 111.0387 L68.6097 111.0163 L68.7691 110.9723 L69.0038 110.67 L69.8192 109.8532 L71.3998 107.6244 L71.5499 107.5176 L71.6368 107.5226 L71.7809 107.5306 L71.8973 107.5679 L71.9447 107.692 L71.987 107.8161 L70.6588 109.9494 L70.21 111.5693 L70.2153 112.406 L69.2666 113.4847 L68.0527 114.5783 L67.3238 115.2288 L66.3562 115.6074 L65.4083 116.1436 L63.2224 116.8741 L60.2589 117.861 L59.3284 118.1515 L59.0913 118.3358 L58.6759 119.0737 L57.9478 120.8941 L57.7434 122.7703 L58.0448 124.7129 L58.8993 124.9233 L60.0327 124.9122 L60.8638 124.9556 L61.1661 126.1863 L61.5332 126.0026 L61.5549 125.0096 L62.1164 124.8799 L62.9906 125.1716 L63.3577 125.485 L63.0775 125.1021 L62.3559 124.5485 L62.0347 123.9334 L61.9824 123.8279 L61.9554 123.7739 L61.9723 123.6262 L62.1317 123.4505 L62.341 123.3202 L62.5583 123.1607 L63.309 122.7095 L63.5026 122.5934 L64.1087 122.2099 L64.8742 121.7469 L64.8123 121.2429 L64.4613 120.7154 L63.926 120.585 L63.0542 120.5043 L62.2033 120.5559 L61.4358 120.603 L60.7737 120.1953 L60.5946 119.9966 L60.5547 119.7931 L60.5362 119.6267 L60.6815 119.425 L61.7091 119.2817 L63.1862 119.2041 L64.797 118.9918 L66.5244 118.4972 L67.6611 118.0478 L67.8704 117.9653 L68.4161 118.6337 L69.5061 119.4592 L70.4145 120.2008 L70.4185 120.2039 L70.953 120.621 L71.1559 120.8339 L71.7974 120.4634 L72.5038 119.4734 L73.4215 118.7181 L74.2591 118.1515 L75.0664 117.6618 L75.5498 117.249 L75.7672 117.0634 L75.8175 117.0206 L76.7947 116.1964 L77.5136 115.5701 L78.4804 114.9048 L78.9609 114.744 L79.3002 114.7726 L80.2984 115.4801 L80.5407 115.3455 L79.5147 114.389 L79.3332 113.7243 L78.5963 112.9485 L77.7583 112.0212 L77.2439 111.6804 L76.7645 111.2013 L76.4373 110.4857 L75.5329 109.8129 L74.709 109.2605 L74.09 108.8365 L73.7185 108.7211 L73.3828 108.6243 L73.7567 107.7168 L74.146 107.1452 L74.4184 106.9286 L74.6877 106.5841 L74.7746 106.3098 L74.825 106.0627 L74.7972 105.7176 L76.119 103.4279 L76.7251 102.1462 L77.1542 101.0811 L77.363 100.1476 L77.2632 99.6591 L77.0773 99.6014 L76.9203 99.8497 L76.4273 101.888 L75.7966 103.4478 L74.2047 105.6779 L73.4058 108.0321 L73.0528 108.9259 L72.7904 109.68 L72.1895 110.5626 L71.0255 112.5587 L69.2891 114.8955 L67.9315 116.2678 L67.612 116.7643 L67.6731 117.079 L67.7983 117.7207 L67.519 117.9063 L67.3395 118.0255 L66.5925 118.3103 L65.6732 118.594 L64.516 118.8739 L63.4076 119.0595 L62.279 119.0675 L61.2728 119.2066 L60.1595 119.3661 L59.363 119.3046 L59.1295 119.2692 L59.0369 119.1451 L59.0027 118.8404 L59.1706 118.5406 L59.429 118.2979 L59.7626 118.0981 L62.4259 117.2621 L64.3707 116.6259 L65.7649 116.2268 L68.2342 115.1773 L69.0018 114.3325 L70.2793 112.784 L70.6045 112.239 L70.6447 111.2783 L70.821 109.9475 L72.0876 107.9173 L73.5084 105.5606 L74.9155 103.0363 L75.4661 101.6093 L75.7499 100.3922 L76.059 98.3855 L76.3951 97.4209 L76.391 97.1348 L76.3005 96.8343 L76.4087 96.3968 L76.2763 96.2155 L76.1737 96.0026 L76.2164 95.683 L76.3657 95.4192 L76.7794 95.2149 L77.093 94.7637 L77.4403 94.4664 L77.7418 94.0611 L77.9217 93.5688 L78.422 92.8892 L78.9066 92.5143 L79.5172 92.0686 L80.2102 91.6589 L80.9637 91.5255 L81.5207 92.7774 L82.2336 93.5633 L82.6924 93.9562 L82.9536 94.2355 L83.0639 94.6048 L83.0035 95.3881 L82.9218 98.6244 L82.7938 99.864 L82.1084 100.5598 L81.7365 100.939 L80.4779 100.6038 L79.79 100.3164 L79.6435 100.5076 L80.0235 100.8968 L80.6602 101.1786 L81.0076 101.9489 L81.5216 103.0853 L82.3833 104.93 L82.9154 105.8883 L83.3468 107.4202 L83.3581 108.0464 L83.2712 108.5945 L83.2072 109.3486 L83.375 110.0462 L83.5618 110.3839 L85.3963 112.0609 L86.2182 111.8499 L86.5893 111.763 L86.8489 111.7785 L87.2176 111.9722 L87.3073 112.7685 L87.9255 113.7739 L88.8565 114.5392 L89.5234 111.5855 L93.3362 112.7163 L93.0569 114.8967 L93.4002 120.0004 L94.2386 123.3041 L96.8209 127.0881 L99.1646 129.7556 L100.1012 130.964 L101.0434 131.5511 L102.0203 132.3697 L103.4612 134.6058 L104.4771 135.5007 L106.6408 137.424 L106.8493 137.6362 L106.8699 138.8638 L107.48 139.109 L108.7467 138.8706 L109.3641 138.7838 L110.3413 138.0943 L111.9903 138.0576 L112.9354 138.057 L113.9613 142.2089 L114.4713 140.627 L113.9589 138.3599 L113.0738 137.1627 L112.9728 136.2901 L114.5397 134.6604 L115.2376 133.745 L115.4722 133.3422 L116.0816 133.1833 L117.7708 132.9344 L118.2554 132.7917 L119.0838 132.4398 L119.7608 132.2846 L119.9817 132.2089 L120.1701 132.2381 L120.3625 132.3064 L120.4679 132.4963 L120.4402 132.7973 L120.3359 133.318 L119.4472 137.7492 L116.4535 138.9817 L116.344 139.5502 L116.8427 141.1973 L117.0343 141.3593 L117.2247 141.6578 L117.7141 142.0742 L117.9367 142.459 L118.2088 143.7368 L118.4531 144.7496 L118.4945 144.7894 L118.4792 144.8564 L118.503 144.9557 L118.2989 146.1299 L118.0993 146.5103 L117.4964 149.1335 L117.2215 149.1348 L117.2017 149.1931 L116.8709 149.5655 L116.4644 149.3967 L115.8305 149.2576 L115.4839 149.599 L115.8796 150.2258 L116.1021 150.4498 L116.893 151.107 L117.6835 152.157 L117.8091 153.0097 L117.768 153.2164 L117.6469 153.8295 L117.1973 154.1907 L117.1265 154.231 L116.5537 154.5146 L115.4368 154.859 L112.7152 155.9879 L111.3302 156.2175 L107.8366 157.5921 L105.6451 154.761 L103.9478 152.6684 L101.3485 152.2303 L96.5026 153.7879 L99.9398 159.1931 L105.2446 162.1036 L105.4096 163.7667 L112.553 160.4591 L113.4393 159.8367 L114.5264 159.545 L114.9623 159.2378 L115.4239 159.0622 L115.7761 158.9548 L115.8381 158.9263 L115.8639 158.9362 L116.0603 158.8946 L116.3581 158.8046 L116.8673 158.7978 L117.0271 158.8754 L117.2649 158.899 L117.5008 159.007 L117.0528 159.3973 L116.338 160.0197 L114.6274 161.2149 L112.8259 162.7415 L110.9076 165.8704 L109.994 168.8366 L111.4631 174.8869 L112.6343 175.1476 L113.0621 178.635 L113.0931 178.6194 L113.2243 178.3917 L113.6763 178.2788 L115.0025 178.2242 L115.2722 178.3427 L117.9029 177.9275 L119.6537 180.1366 L121.6178 179.1872 L118.8849 175.3772 L119.6456 174.7386 L119.5925 174.563 L119.9109 174.2298 L120.1946 174.1187 L120.4257 174.0839 L121.4323 173.2388 L121.5003 173.1656 L121.5913 173.1054 L121.8473 172.8907 L121.9298 172.8025 L122.1962 172.4302 L122.4321 172.0386 L122.8152 171.6638 L123.3433 170.9304 L123.6005 170.6766 L123.8911 170.4519 L124.2054 170.6145 L124.3338 170.8038 L126.492 168.9918 L128.7459 173.7638 L129.2393 174.1063 L129.3376 174.0951 L129.8129 174.4575 L129.868 174.5425 L132.3514 176.2664 L134.1871 177.7966 L137.0529 175.6204 L139.5326 173.6831 L142.672 173.1184 L141.8787 172.0014 L141.405 171.5118 L140.5034 170.1646 L140.5456 170.1249 L139.8425 169.1345 L140.088 166.7826 L141.5611 168.998 L143.5132 167.0929 L144.4562 167.4485 L144.5975 167.4838 L144.7734 167.5539 L144.81 167.5819 L146.6836 168.2887 L146.9436 168.2297 L147.594 167.9877 L147.7542 167.9399 L148.2948 167.2852 L149.3211 164.0708 L146.6767 163.0841 L147.5864 155.3952 L147.8049 155.4331 L147.9172 155.3617 L148.4215 155.3667 L149.4571 155.3114 L150.2146 155.327 L150.9979 155.4684 L150.9596 155.9773 L151.5066 156.0716 L151.5066 158.9511 L153.354 158.6222 L153.519 158.7525 L153.8881 160.4851 L154.0821 160.5447 L154.2705 160.6062 L155.7488 159.3172 L155.1471 155.3704 L154.9479 154.1168 L156.1392 154.1416 L159.1338 157.7596 L160.7316 155.9475 L162.9369 157.8006 L163.9616 158.4187 L164.7135 159.0802 L165.1824 159.5015 L165.3534 159.7436 L165.5434 159.7895 L165.8074 159.2788 L165.4287 154.0982 L166.0964 153.8245 L167.6424 157.4866 L167.6552 157.4766 L167.6142 156.2876 L167.6653 156.0462 L167.7518 155.8172 L168.102 155.744 L168.6051 156.0859 L168.8539 156.058 L169.2398 155.7558 L169.7518 155.3276 L169.9997 155.0918 L170.4042 154.805 L170.6123 154.6443 L171.2495 152.6287 L171.1979 152.4971 L171.2104 152.0577 L171.526 151.7543 L171.7679 150.9891 L174.376 153.1922 L174.8151 155.8575 L174.9041 156.063 L175.0212 156.6773 L174.9648 156.7661 L176.0383 163.2827 L177.934 170.1274 L179.2123 170.2118 L180.0885 169.9964 L180.621 169.9486 L180.9048 169.9375 L181.1607 170.0213 L181.4533 170.1342 L181.75 170.3799 L181.8703 170.388 L182.0313 170.697 L182.8737 171.7147 L183.3314 172.4997 L183.4416 172.7343 L183.4762 172.8931 L183.3978 172.9918 L183.2766 173.0849 L183.5044 173.5217 L184.3911 173.0917 L184.435 173.0036 L184.761 172.5177 L184.8962 172.1199 L184.9055 172.1007 L183.4682 168.0609 L183.8554 167.9803 L183.8993 167.9381 L188.8004 166.2756 L188.9952 166.3017 L189.7494 169.1196 L189.964 169.9822 L189.9736 170.2676 L189.9587 170.5332 L189.8573 170.7808 L189.7293 171.0365 L189.6311 171.1879 L189.7229 171.3933 L189.2568 171.5912 L188.8362 172.0076 L188.6949 172.4445 L188.5009 173.5615 L188.4361 173.7749 L188.7488 174.4277 L188.9501 175.8239 L186.3214 177.6508 L184.2772 181.6296 L188.1351 179.7116 L188.9396 179.2673 L189.97 178.9713 L190.6365 178.7224 L191.3095 178.5847 L191.4846 178.5481 L191.7055 178.6691 L191.885 178.8732 L191.9229 179.0091 L191.9748 179.1717 L191.9128 179.3697 L191.7651 179.5999 L190.0783 181.1828 L189.6102 181.8027 L189.454 181.9467 L189.6866 182.3395 L190.8011 181.4813 L190.8857 181.3951 L192.0794 180.3054 L192.6095 180.0888 L193.0659 179.6663 L193.522 179.3814 L196.0496 177.5298 L197.4909 177.065 L201.0127 179.0755 L201.5641 181.508 L201.5049 183.1815 L202.0302 184.7018 L202.2085 186.4461 L202.5055 187.8416 L199.0328 189.2769 L198.6641 190.6407 L207.2066 191.0037 L213.9398 192.6071 L221.3182 192.702 L221.8692 190.436 L223.9662 190.2765 L224.2725 190.0841 L225.0291 189.8918 L225.4602 189.8434 L225.8591 189.8043 L226.2732 189.8024 L226.8741 189.8694 L227.4328 189.9073 L228.0341 189.8787 L228.8584 189.8421 L229.6082 189.8365 L230.0594 189.9147 L230.4873 190.1356 L230.9711 190.3317 L232.5492 190.3441 L232.7412 190.2635 L233.4991 190.184 L234.065 190.238 L236.0493 190.3063 L236.0448 190.372 L236.4236 190.3751 L235.7039 192.9645 L235.7611 192.9831 L235.7977 193.1085 L235.813 193.2444 L239.1444 192.5593 L238.3394 193.1488 L239.9011 193.1736 L241.4627 193.1984 L241.4627 195.3081 L239.8407 195.7363 L240.2633 199.9494 L242.2878 200.3279 L241.0482 203.6723 L245.6124 207.7116 L247.9154 208.2781 L248.7212 207.7718 L249.1378 207.4442 L249.4553 206.931 L249.7689 205.8291 L249.8192 205.3296 L249.8703 203.8864 L249.9617 203.3037 L250.1134 202.7583 L250.1979 202.4121 L250.4125 202.1298 L251.271 201.5447 L252.1415 201.1209 L252.6342 201.0204 L255.0527 200.8721 L256.6337 200.7889 L257.6021 200.7871 L258.1986 200.9484 L258.8059 200.9484 L259.9772 202.0156 L259.4793 203.4831 L259.5063 203.694 L259.493 203.9763 L259.4362 204.1172 L259.2443 204.1755 L258.975 204.9691 L252.3742 208.1397 L252.0602 213.4261 L248.72 212.7709 L248.594 213.0358 L248.0362 213.104 L247.2437 213.1258 L245.9122 213.0346 L244.9885 212.8856 L244.4754 212.7529 L243.8229 212.5593 L243.4671 212.2484 L243.247 212.0828 L243.1121 212.0753 L242.962 212.0865 L242.4661 212.1088 L241.4152 212.2218 L240.7419 212.1063 L240.3474 211.7353 L240.1361 211.7303 L239.0345 211.7092 L234.9702 212.1113 L234.7005 211.9494 L234.6124 211.9618 L232.6853 210.1147 L231.087 210.0787 L230.8729 210.0539 L228.3376 210.2431 L227.0098 213.4714 L226.85 213.9355 L226.7747 214.0428 L226.6713 214.2947 L226.6089 214.2804 L226.4833 214.4597 L226.2177 214.7365 L225.9166 214.7483 L224.2781 213.866 L223.9984 213.6811 L211.4492 210.8015 L211.5297 208.9339 L210.3311 208.1391 L210.022 208.1019 L209.5027 207.9635 L208.959 207.7556 L208.5315 207.5397 L208.0614 207.1439 L207.6251 206.4967 L207.5088 206.2777 L205.6268 206.1945 L205.5165 206.313 L205.5145 206.3124 L205.0383 206.7964 L204.2149 207.4876 L203.0501 207.0855 L201.4457 206.5587 L200.6371 206.336 L199.8768 206.2473 L199.1737 206.0183 L199.0509 205.9048 L197.5364 205.8353 L197.5336 205.8502 L197.4422 206.4706 L194.6992 205.741 L190.843 206.9527 L186.9348 208.458 L186.7525 209.4861 L186.1206 210.4168 L187.5696 211.149 L193.1641 211.5833 L192.649 215.2192 L191.3892 220.7784 L190.1656 220.2386 L189.9402 221.9945 L189.5256 224.7678 L187.5333 225.6923 L189.4017 226.5503 L188.3129 227.3581 L188.1185 227.5647 L186.9215 230.3331 L187.5945 233.4668 L187.8964 234.4254 L188.0441 234.8882 L188.4059 236.9864 L188.3625 237.041 L188.9018 239.5524 L188.4848 241.5359 L188.4957 241.7294 L188.3335 242.2549 L188.1974 242.8282 L185.706 244.6894 L184.2088 244.7204 L185.4887 246.5629 L186.7726 248.4055 L187.0363 252.7215 L179.5053 252.7097 L179.2662 252.7215 L178.6444 252.6539 L178.3445 252.4206 L174.6223 249.9869 L172.8063 248.8832 L171.98 248.8007 L170.9548 248.7777 L165.6211 247.3453 L163.5813 247.4873 L162.1995 247.0735 L161.1023 247.318 L160.3163 247.3539 L156.4584 245.8303 L153.3214 244.4648 L151.2007 248.1139 L149.8846 246.7925 L151.6414 243.6192 L151.2047 243.3543 L150.3527 242.4963 L150.444 242.3207 L149.3372 241.2399 L148.2787 244.1496 L149.6632 247.295 L150.2508 249.0631 L146.9746 251.6687 L151.4905 252.4442 L151.8407 255.1366 L144.7649 257.0908 L139.1381 259.1132 L138.2245 261.9979 L145.6762 259.8161 L146.8712 259.3061 L148.0911 259.0933 L148.135 259.0958 L148.7335 258.9209 L148.8788 259.2819 L148.9524 259.3241 L149.0442 259.6926 L149.9856 262.032 L150.0983 262.2119 L150.1563 262.4563 L150.8707 264.2312 L150.0267 265.5041 L149.9892 265.9849 L150.0544 266.416 L150.3233 266.7926 L150.1583 267.1034 L152.545 266.7188 L152.0097 270.1865 L148.7898 272.4321 L148.017 273.952 L155.133 272.1034 L155.9259 275.9184 L159.657 279.3302 L161.5326 278.8091 L161.9713 282.0844 L155.4993 295.3031 L152.6135 297.3253 L146.2984 301.5742 L149.8926 302.3247 L155.934 299.5521 L157.1414 301.4191 L162.2208 300.743 L161.605 303.1807 L163.8187 307.5412 L167.0024 306.7969 L165.6581 308.36 L167.2238 311.0891 L165.972 314.4571 L169.4133 316.5846 L173.2027 318.3498 L174.6384 316.0263 L177.1354 312.3935 L177.3274 312.1585 L177.6321 312.0288 L177.9948 311.9711 L178.2487 312.0201 L181.6586 307.5772 L182.0623 306.921 L182.4374 306.4241 L182.5079 306.3038 L182.6375 306.3019 L182.8524 306.0216 L184.1194 305.8839 L184.3416 305.3895 L184.5191 305.2239 L185.4734 305.0484 L187.2045 304.9659 L191.6713 304.8207 L192.5214 304.8145 L193.169 304.9007 L193.5304 304.8617 L193.9953 305.093 L194.1072 305.1296 L194.1064 305.1309 L194.4964 305.2599 L195.2764 305.6265 L196.7761 306.4787 L197.2896 306.7349 L197.7662 307.1015 L197.8576 307.1312 L198.3985 307.4128 L198.7917 307.6771 L199.1165 307.927 L199.1129 307.9314 L199.6985 308.4282 L200.3759 309.126 L201.8056 310.2084 L202.9527 318.5073 L203.6771 321.3108 L208.3782 318.8237 L212.2018 322.0799 L226.2648 320.3805 L237.4338 321.6333 L241.8733 317.0622 L241.1166 311.4365 L244.252 308.5895 L248.5908 309.6749 L250.72 313.9237 L249.267 317.8623 L249.0094 316.3427 L247.5524 317.8127 L246.0954 319.2888 L246.9285 323.0041 L251.2593 328.1582 L252.1246 332.1524 L256.391 334.3231 L259.4177 338.7762 L251.3036 340.612 L251.5692 343.3161 L247.5001 345.1518 L245.9867 345.4619 L243.0687 344.5564 L242.3241 343.1734 L239.1605 344.0975 L237.2527 344.3208 L237.8323 345.6666 L241.7606 344.8417 L240.1546 346.417 L242.8714 346.7271 L243.5267 351.6985 L244.52 351.7301 L245.5102 351.8771 L249.0569 352.6672 L250.6628 352.8675 L254.5794 352.8805 L257.6291 352.6616 L259.1613 352.7019 L261.0373 352.7156 L262.3756 352.9059 L265.5114 352.9165 L277.582 358.7064 L278.9956 361.0264 L278.2864 364.5569 L276.8857 365.9522 L271.1664 368.1228 L272.571 369.5057 L274.1287 370.7342 L275.2754 373.0547 L276.3955 379.4017 L272.9015 379.0284 L269.9146 379.855 L269.4345 381.1889 L273.2271 380.9904 L273.7552 383.4287 L273.3016 384.2293 L273.0617 384.6559 L271.6493 385.1638 L266.7945 385.7225 L262.6606 383.642 L260.6775 384.1778 L258.4679 384.2088 L253.9962 385.1762 L252.8974 385.2692 L252.4668 386.7264 L247.2304 383.2786 L248.7518 385.9079 L246.9969 387.3217 L244.582 387.3527 L241.7002 386.1559 L242.1107 389.2068 L240.4887 388.6488 L239.4744 391.8857 L240.541 392.698 L242.0665 392.8034 L242.3603 394.8993 L243.4148 401.0071 L231.7024 403.3944 L225.6168 398.471 L224.7353 398.5082 L225.8623 400.046 L223.3508 399.1841 L223.544 399.5933 L222.4049 402.9479 L220.5172 403.2456 L218.698 401.559 L213.3288 402.8549 L211.6705 400.4986 L210.8052 400.2196 L206.7481 392.977 L206.4503 397.7331 L212.0771 401.8938 L211.9684 402.8549 L211.7068 403.6238 L212.4876 407.7224 L211.5498 409.1672 L208.2413 413.0239 L209.6581 414.078 L211.0708 415.1259 L211.904 411.6536 L216.6091 408.3797 L232.1894 406.9102 L233.0105 405.6204 L232.0083 404.3245 L232.1049 403.4192 L243.0526 403.413 L243.8414 405.2732 L244.3767 405.6266 L243.2739 405.4158 L245.073 406.7427 L244.5377 405.7568 L247.5323 406.2529 L249.7661 402.8859 L244.8275 395.1287 L247.7536 389.6223 L252.9296 387.9294 L266.7108 387.3279 L273.2593 385.1762 L275.6823 384.6429 L281.8081 384.7607 L282.8908 385.108 L287.5034 385.4676 L279.3167 374.6404 L278.9424 369.4437 L280.6494 367.7736 L283.2096 366.867 L289.0236 365.6403 L292.78 366.5724 L292.5546 363.5709 L284.5165 356.9463 L283.9413 354.1692 L281.2487 353.27 L282.2509 353.1584 L285.986 354.194 L293.9874 347.614 L291.3813 341.4443 L290.2515 339.7474 L289.674 338.3873 L289.7839 338.2174 L289.8881 338.2509 L290.2805 338.8072 L289.8269 337.743 L289.6208 337.3603 L289.5943 337.1966 L288.9644 335.7186 L289.5625 332.9394 L289.839 331.7449 L292.3453 330.5646 L292.8432 330.5727 L293.426 330.4561 L294.2479 330.4989 L294.9731 330.4282 L295.5547 330.4753 L296.02 330.6223 L301.4295 330.7073 L300.0087 328.7412 L294.5228 327.7736 L285.3702 324.443 L277.5164 317.6471 L276.3895 318.0601 L281.3614 327.5131 L281.14 330.0436 L280.3874 330.6446 L273.9637 335.7744 L268.3006 333.7029 L264.3816 327.5051 L262.7769 321.536 L263.2828 314.7555 L263.6479 312.1498 L254.9823 305.9533 L253.9801 303.1559 L258.7697 298.6031 L256.709 296.5995 L249.7983 294.0998 L244.4814 298.9628 L237.7397 296.7608 L236.4035 293.7524 L236.4445 292.6563 L236.6892 286.1041 L237.5304 283.7097 L238.7459 282.8102 L238.9472 283.1576 L238.8345 282.4876 L241.3649 279.2657 L240.981 277.7738 L239.7739 274.8949 L240.8835 273.5791 L241.5634 272.519 L251.2875 266.5451 L253.481 263.8838 L254.1934 260.7261 L253.2355 260.9309 L252.2856 261.1294 L252.6318 257.8352 L250.7361 255.2917 L253.3361 253.8649 L252.4788 253.1576 L255.7953 249.9627 L258.1499 249.9627 L257.9527 253.0646 L258.0935 253.0646 L257.357 254.51 L258.7657 255.1366 L258.1781 252.8536 L262.8872 249.7083 L261.1243 249.1438 L268.6951 247.0841 L280.4196 252.2022 L291.6651 256.5573 L292.6472 254.3053 L290.0475 253.4238 L288.4391 252.1011 L288.516 250.6259 L288.3446 247.4873 L284.1305 252.5124 L281.0032 249.851 L283.3666 245.1739 L283.2941 244.9295 L283.2986 244.7154 L283.4954 244.525 L283.7373 244.3351 L284.3833 242.9541 L284.721 242.3716 L284.8936 242.1507 L285.1428 241.9888 L285.4277 241.985 L287.8455 239.6641 L294.5308 239.6455 L294.7924 248.2814 L301.6991 253.84 L302.323 253.9951 L303.0998 250.4714 L302.17 244.6521 L302.4477 238.8762 L298.0123 238.0945 L300.4273 234.7257 L303.0193 235.0297 L303.6484 232.8799 L306.6622 227.4748 L308.7358 224.5681 L305.6033 226.9269 L305.1605 226.6788 L302.8704 223.3222 L307.3138 223.1361 L308.6501 217.1984 L306.2633 215.9948 L312.1155 216.0692 L313.3902 213.8908 L314.2129 212.9905 L314.7293 212.3403 L314.1356 212.04 L315.4111 210.0663 L314.3352 208.9457 L316.4282 206.4955 L313.9589 204.0136 L310.7793 204.3734 L310.087 202.5678 L313.9227 200.6071 L313.6377 195.5408 L311.9654 196.0223 L310.6533 197.4457 L307.9196 197.5785 L306.6956 195.9876 L304.2585 196.0459 L301.3651 195.699 L299.3607 194.5257 L297.4452 191.4846 L297.0359 189.4934 L297.384 185.8622 L301.0551 180.0187 L297.3885 178.6846 L293.8224 183.2641 L291.8784 176.1776 L295.698 174.2726 L297.1808 172.5121 L300.7327 175.1339 L303.4668 171.1798 L303.5401 167.8053 L302.6651 167.3262 L295.9415 167.2499 L295.1418 163.9826 L296.8636 162.6335 L296.9985 162.2072 L296.9997 161.5023 L296.827 160.613 L296.7731 160.1457 L295.3281 157.422 L294.687 156.6103 L293.3463 155.5671 L289.5146 152.4046 L287.3307 150.8662 L286.4416 150.2425 L281.5864 147.8855 L280.2727 147.1569 L279.7885 146.7852 L278.1362 144.6491 L277.0761 142.8562 L275.5076 139.8282 L274.5175 137.7027 L273.1249 134.09 L272.4294 133.1219 L271.5109 132.3523 L266.1735 129.4949 L264.6074 128.9928 L262.4461 128.6707 L261.7566 128.6422 L261.598 128.636 L259.9712 128.7415 L257.6935 129.2212 L251.5342 131.1526 L249.696 131.9141 L248.7639 132.4913 L248.5522 132.9431 L248.3497 133.8039 L248.5803 136.5855 L248.497 137.6549 L248.0575 138.8042 L247.3523 140.1249 L247.0199 141.0701 L246.8585 141.9842 L246.7772 143.7269 L245.5234 147.4964 L244.7366 149.3197 L244.1055 150.2897 L242.9189 151.4167 L240.923 152.9297 L237.623 155.6465 L235.8931 156.8201 L234.705 157.4853 L233.3554 158.1065 L231.2544 158.8195 L227.9021 159.5133 L224.8545 159.8801 L223.6192 160.0265 L222.2282 159.9273 L221.09 159.6269 L217.1927 158.1177 L216.0134 157.3991 L210.6849 152.4164 L209.1759 150.4293 L208.1093 148.5309 L208.0385 148.3317 L207.63 147.1824 L207.5487 146.3167 L207.8421 143.542 L208.9658 139.392 L210.4373 134.6213 L210.9742 133.1672 L211.0133 132.6223 L210.9195 132.2002 L210.7875 131.584 L210.6893 131.327 L210.4756 130.7678 L209.9085 129.799 L209.2737 129.027 L208.0055 128.0116 L206.1041 127.1527 L205.3137 126.7995 L201.9573 125.3702 L201.0505 124.8073 L199.1721 123.7776 L196.9431 122.9087 L194.9254 122.411 L193.4531 122.4215 L191.9844 122.9249 L190.9468 123.5536 L189.8911 124.7024 L189.2918 125.4478 L188.3617 126.8647 L187.411 127.7994 L186.0155 128.968 L184.0643 130.2577 L182.7642 130.923 L180.9257 131.6578 L179.4067 132.0712 L178.2318 132.2232 L177.7762 132.181 L177.4413 132.0389 L176.3558 131.1917 L175.1182 130.9342 L173.0784 129.6681 L170.9082 127.8304 L169.4411 126.447 L168.5423 125.575 L167.8456 124.5336 L166.5548 122.5661 L165.5724 120.6272 L164.9521 118.2601 L164.3319 115.3206 L164.4056 113.5338 L164.6873 111.0287 L164.6676 109.1289 L164.4309 107.6821 L164.0208 107.1098 L163.5527 106.7374 L162.5042 106.5996 L161.1341 106.0845 L160.5855 106.0497 L159.8707 106.3489 L158.7973 106.4407 L157.8104 106.7858 L156.8818 106.9875 L153.2474 108.5411 L152.0009 108.5268 L151.6785 108.5951 L151.5195 108.9166 L151.4128 109.6862 L151.0035 110.2219 L149.7192 111.3558 L148.4831 112.0603 L146.3556 113.0869 L143.3659 114.2097 L142.2679 114.4604 L139.0331 114.9675 L138.2744 115.1841 L137.9347 115.2815 L137.1563 115.7961 L136.2761 116.5502 L136.1171 116.5651 L136.0382 116.5731 L135.9593 116.4986 L135.4353 116.0046 L134.5868 115.441 L134.1928 115.2815 L133.3946 115.1624 L132.737 114.9073 L130.89 113.8522 L129.7948 113.5207 L128.3716 112.9516 L127.3762 112.4972 L125.0313 110.3696 L122.8201 108.8539 L122.4671 108.4995 L122.193 108.039 L121.7945 106.9987 L121.5893 106.0187 L121.3518 102.7955 L121.0185 101.3542 L120.9847 99.6026 L120.7239 98.1173 L120.2663 95.7531 L120.131 94.1107 L120.3114 91.8011 L120.6841 89.5721 L120.7207 88.2804 L120.6346 87.5126 L120.1966 86.52 L120.1451 86.0607 L120.1576 86.0092 L120.2317 85.7032 L120.5283 85.2016 L120.9457 84.1638 L121.3172 82.8584 L121.4355 81.9329 L121.6005 80.6449 L121.6001 78.8255 L121.1469 75.764 L120.6889 74.2078 L119.3414 70.7279 L118.4704 69.479 L117.8324 68.2499 L117.0254 66.5943 L116.1975 65.3807 L115.1901 64.4018 L114.328 63.5395 L112.8786 61.861 L111.3669 60.3202 L110.6645 59.1749 L110.2206 58.1035 L108.8968 54.809 L107.9175 51.6256 L107.6201 50.6491 L107.4559 49.549 L107.4603 48.5111 L107.7634 46.7585 L108.452 45.1699 L110.4814 41.7046 L111.6603 39.7695 L111.9891 38.7731 L112.1944 37.7612 L112.1751 36.2321 L111.9734 34.9501 L108.8227 29.1807 L100.6925 19.1913 L92.4274 13.7836 L91.3926 16.8755 L88.0274 14.2163 L79.6468 7.0148 L79.3859 7.894 L81.1158 9.4275 L81.2495 10.2049 L84.5096 12.9876 L87.651 15.8119 L87.6116 16.3353 L87.449 17.4914 L87.3053 18.5127 L87.2844 18.6605 L87.5367 18.8306 L87.7158 19.2403 L87.3834 19.6569 L87.123 19.8047 L86.8779 19.9444 L85.9739 20.1257 L85.0147 20.1157 L83.5988 19.3322 L82.5032 18.9566 L81.0064 18.2997 L79.6681 17.659 L78.8756 17.4343 L78.3214 17.6373 L77.8678 18.088 L77.3848 18.8144 L76.3411 20.5019 L74.7581 22.8611 L73.2874 23.5335 L73.1828 23.4323 L72.4136 22.6885 L71.0883 21.2718 L70.5183 20.3355 L70.0792 19.1739 L69.5697 17.289 L69.3294 16.4924 L69.0517 15.7151 L68.5252 14.3753 L67.8112 13.4055 L66.8412 12.5549 L65.6667 11.6763 L64.9765 11.7155 L64.6521 12.1172 L64.5852 12.3103 L64.5357 12.4537 L64.2757 13.2049 L64.0137 14.51 L63.6825 15.6487 L63.1894 15.5977 L62.0608 15.2761 L61.5847 15.3749 L60.3088 15.4407 L58.5548 15.2352 L57.553 14.8484 L56.232 14.2616 L55.1228 13.7134 L55.0712 13.1068 L55.1884 12.5543 L55.9269 10.1012 L56.133 9.4021 L56.8997 7.5059 L57.654 5.9258 L57.8468 5.4129 L58.626 4.5909 L58.6771 3.5857 L58.7596 3.323 L57.8476 0.7761 L57.3203 0.0 L56.3906 1.9124 L51.4295 5.8842 L37.6266 12.07 L35.6906 11.6726 L35.59 11.952 L35.4693 12.8647 L32.7726 16.1056 M93.6292 115.9934 L93.7463 114.8961 L93.855 114.2661 L93.9339 113.5269 L93.9802 112.7412 L93.9403 112.2397 L94.08 111.8871 L94.3344 111.5104 L94.7026 111.0871 L94.8785 110.9207 L95.0363 110.7792 L95.2746 110.7072 L95.6533 110.7879 L95.9017 110.9059 L96.5682 110.9543 L97.8827 111.3391 L98.7827 111.4229 L100.1089 111.4129 L101.6858 111.3434 L101.9019 111.6202 L101.9217 112.0448 L101.9398 113.6492 L101.6637 116.6234 L101.0724 120.6272 L100.7935 122.4277 L101.0853 122.7821 L101.0434 123.1073 L101.0157 123.4077 L100.9412 123.7447 L100.8285 126.0082 L100.7766 127.108 L100.5524 127.6554 L100.6422 130.2794 L100.6583 130.6369 L100.6856 130.8305 L100.6188 130.9335 L100.4449 130.8802 L100.3379 130.774 L99.8191 129.8338 L98.9815 128.8724 L98.9396 127.8546 L98.4659 126.7797 L98.003 126.2987 L97.2826 126.1665 L96.8499 125.9573 L96.4724 125.3876 L95.3112 123.3655 L94.54 121.8996 L94.1645 120.2064 L93.9496 119.4393 L93.686 118.0422 L93.6534 116.8046 L93.6292 115.9934 M100.7822 131.291 L100.8325 130.9155 L100.8313 130.5835 L100.9585 130.0696 L100.9476 129.557 L101.0523 126.007 L101.2354 124.4938 L101.1791 123.4177 L101.1042 123.201 L101.2507 123.157 L101.3686 123.1601 L101.5127 123.2954 L101.6882 123.5623 L101.7426 123.7466 L101.8021 124.1779 L102.3419 124.9426 L103.5992 125.9908 L104.665 127.2743 L104.7991 127.5685 L104.2726 128.6161 L103.6528 129.8189 L103.2821 130.4637 L103.2036 131.0117 L103.0857 131.6479 L102.5 132.5217 L102.3588 132.5621 L102.2123 132.5056 L101.951 132.1251 L101.4902 131.7615 L101.1143 131.5064 L100.7822 131.291 M101.842 122.9379 L101.8645 122.6896 L101.9889 121.4198 L102.2296 119.8613 L102.5733 118.4245 L102.9613 116.0611 L102.9899 114.0247 L102.9464 112.2937 L102.9231 112.2347 L102.8373 112.02 L102.8832 111.8294 L103.4129 111.7078 L104.7222 111.2 L105.1754 110.9468 L105.6721 110.7333 L106.2919 110.5676 L106.5777 110.5186 L106.9101 110.3851 L107.7344 109.5509 L108.0371 109.1512 L108.4444 108.6901 L108.9849 108.1681 L109.6837 107.3587 L110.39 106.869 L110.9044 106.4122 L111.193 106.1887 L111.6007 106.0807 L112.204 105.9169 L112.4918 106.0863 L112.8086 106.4103 L113.3298 106.9131 L113.4795 107.1489 L113.5101 107.5213 L113.4598 108.1674 L113.232 109.1816 L113.3946 110.8767 L113.1716 111.8338 L112.2499 112.8479 L111.5613 113.2513 L110.2335 114.3903 L109.441 115.0643 L108.388 115.4131 L106.1583 115.3064 L103.8049 115.3926 L103.6298 115.9314 L104.5729 116.1238 L106.9222 116.4217 L108.7124 117.0008 L109.3741 117.11 L109.8342 117.2658 L110.3538 117.4545 L110.7341 117.4005 L110.8827 117.7257 L110.9507 117.9317 L111.1064 118.3693 L111.3701 118.7038 L111.7842 119.219 L112.9406 119.7906 L113.9174 120.2077 L115.6143 121.0046 L116.9003 121.6339 L117.9387 122.2521 L118.7239 122.7138 L119.3281 123.1564 L120.0594 123.7813 L120.7295 124.4138 L121.5615 125.1393 L121.9833 125.6532 L122.2811 126.159 L122.2191 126.5531 L121.8638 126.9807 L120.8165 127.5263 L119.5897 127.9738 L118.8624 128.1798 L117.832 128.577 L116.6052 128.9736 L116.0236 129.1803 L115.3515 129.3292 L114.3396 129.4943 L113.335 129.5737 L112.8589 129.5719 L112.4709 129.5123 L112.0781 129.4521 L111.6007 128.9897 L111.4953 128.7266 L111.4216 128.5435 L111.0408 127.8161 L111.0175 127.6777 L110.9314 127.1725 L111.0103 126.7821 L111.0429 126.6208 L111.2948 125.8226 L111.4345 125.5713 L111.7122 125.1523 L112.2499 124.6534 L112.5767 124.3747 L113.1676 124.4988 L114.4386 124.9451 L113.3064 124.3374 L112.8239 124.0327 L112.3743 123.7689 L112.126 123.404 L112.0398 122.936 L112.3864 121.6836 L112.7723 120.6347 L112.838 120.1723 L112.584 119.9544 L112.2696 119.7987 L112.0483 119.8235 L111.9931 120.1276 L111.8144 121.0294 L111.5697 122.1919 L111.2843 123.836 L111.0022 124.9122 L110.7478 125.8903 L110.6605 126.1081 L110.5015 126.2385 L110.2938 126.3347 L109.5673 125.7488 L108.6203 125.4962 L107.7437 125.5676 L106.8204 126.1212 L105.9691 126.5209 L105.3505 126.9354 L104.0009 125.9883 L102.5785 124.2822 L102.2799 123.9446 L101.9998 123.5436 L101.8887 123.3543 L101.8424 123.1402 L101.842 122.9379 M171.6069 287.8037 L174.6779 284.1811 L174.7584 284.057 L174.9998 283.7717 L176.2113 287.8037 L171.6069 287.8037 M180.1316 280.85 L185.215 277.6057 L187.0906 277.5871 L189.3606 277.9035 L187.9237 280.3972 L180.1316 280.85 M183.4537 254.0231 L183.568 254.0206 L184.7103 253.9989 L185.9302 253.8953 L186.8189 253.6322 L187.3011 253.3419 L187.6682 253.0702 L188.319 253.6217 L188.3588 254.087 L188.2498 254.8122 L187.1502 256.5362 L187.2617 256.9276 L187.4915 257.1119 L187.8775 257.1386 L187.9805 257.1268 L188.7331 256.6268 L189.2242 256.061 L189.4266 256.0213 L190.0859 256.329 L190.2348 256.7887 L190.1825 257.1938 L190.0654 257.7732 L190.1181 258.0424 L190.2296 258.2379 L190.5959 258.5611 L191.2938 258.9935 L191.4942 259.4308 L191.3537 259.7782 L190.9718 260.2646 L190.936 260.2708 L190.4779 260.3539 L189.7325 259.6467 L188.9247 259.0307 L188.2944 258.602 L187.5607 258.2974 L186.1029 257.0809 L185.1836 256.3705 L184.5831 255.7086 L183.7475 254.5454 L183.4537 254.0231 M203.4397 244.069 L206.0317 242.7909 L208.0172 237.301 L212.0795 239.3521 L213.2765 237.2073 L214.5604 238.3116 L215.8403 239.416 L218.5169 240.1667 L217.8648 241.5874 L216.1422 243.5478 L215.8967 249.6525 L213.0551 250.9913 L207.2641 248.31 L206.0905 249.2219 L203.8261 247.6672 L203.4397 244.069 M248.8081 304.0243 L249.754 303.9809 L250.9132 304.5329 L251.211 309.4454 L251.3639 310.6984 L257.4616 317.3351 L256.1535 319.0221 L256.556 323.1777 L257.196 323.5623 L257.9325 326.1983 L257.4938 330.5336 L260.4119 335.638 L262.372 338.8196 L265.7247 342.4974 L265.6402 343.3967 L265.4229 343.7254 L265.1975 343.4339 L265.4953 342.9749 L265.2965 342.4726 L265.0807 341.9268 L263.9739 341.0399 L262.8711 339.9732 L257.1557 330.422 L257.5341 325.8323 L257.0028 323.8662 L256.0972 322.8676 L254.7408 320.3246 L256.9223 317.3785 L255.8235 315.8651 L251.1184 310.6984 L250.6193 304.3965 L248.8081 304.0243 M210.4631 425.6727 L210.8817 427.5141 L211.9845 428.7852 L214.8583 436.1385 L218.1144 437.7939 L214.7174 425.9765 L217.076 424.0048 L217.6757 425.3007 L221.9501 423.8684 L221.5315 420.5822 L226.2648 419.5406 L229.6336 419.7452 L232.8841 424.5802 L233.413 428.1776 L236.5443 429.554 L239.237 430.1802 L239.5026 427.6505 L243.4148 438.8169 L245.0891 449.0033 L246.0322 450.1298 L247.0187 449.3294 L247.4457 442.6888 L248.0857 439.8083 L246.9655 434.661 L247.5789 433.1414 L248.4322 433.248 L250.5187 435.6983 L252.6237 441.1357 L253.353 444.9561 L255.4597 441.729 L256.7931 442.1289 L257.4065 441.7024 L258.0469 439.7016 L255.1272 435.2953 L255.739 434.7001 L254.8463 431.3279 L253.1429 429.2006 L251.3792 428.2873 L251.5125 426.4471 L252.0562 423.6576 L251.4859 423.2465 L251.4859 422.1267 L251.0057 421.3529 L250.6326 418.9794 L252.3927 414.4723 L252.286 413.4325 L252.3299 411.6288 L255.4065 406.8717 L256.1266 402.6311 L257.4335 400.6307 L258.2602 396.8706 L259.5143 396.5301 L267.6204 396.2449 L267.5037 397.7641 L267.1942 402.7111 L268.6077 406.4718 L270.1481 408.1441 L271.3282 407.3516 L271.6171 403.3138 L271.9416 400.2041 L273.6095 397.7331 L277.5422 395.6434 L279.3208 396.2077 L282.3161 398.1504 L286.37 401.5912 L293.7975 409.8052 L296.0108 411.139 L302.0211 398.9112 L303.4701 394.0126 L303.3449 392.1765 L301.7716 387.9629 L301.425 387.1363 L301.4335 385.449 L305.9321 387.5096 L306.8655 385.7225 L306.6256 384.9759 L308.1989 381.8288 L311.2924 381.5088 L314.0128 382.0155 L316.8399 384.9492 L317.96 388.4429 L317.1305 391.8671 L314.2797 395.8573 L316.5465 399.0043 L324.2747 415.8699 L325.6508 415.2207 L325.5349 415.0769 L325.3328 414.7687 L325.1924 414.5653 L325.1002 414.3905 L325.0507 414.1344 L325.2998 413.8746 L325.8223 413.5913 L326.1132 413.5417 L326.5588 413.5255 L327.2664 413.6477 L328.8023 413.7332 L337.4401 409.657 L338.1847 409.4772 L339.2513 409.3594 L336.4661 404.9756 L331.0445 401.6148 L329.3058 397.2742 L329.5722 396.9326 L329.5718 396.8265 L330.1071 396.0093 L330.8566 395.0549 L331.282 394.7399 L336.0797 388.5867 L336.6846 389.4295 L338.6435 391.8398 L338.7763 392.0277 L338.9973 392.1542 L339.0255 392.1566 L339.8671 391.309 L338.6194 386.4164 L339.2702 385.1272 L339.3688 384.9083 L339.9512 383.7605 L340.1726 383.3258 L340.2197 382.8098 L340.2663 382.5748 L340.3553 382.3683 L340.4563 382.1717 L340.6741 381.8164 L340.8238 381.5944 L335.6341 375.929 L337.1314 376.1988 L337.7045 376.2694 L339.4718 376.5646 L339.8365 376.6756 L340.3855 376.7724 L341.4585 375.8763 L341.2536 372.7763 L343.4098 371.9403 L343.5506 371.8027 L343.4049 371.6507 L343.2089 371.3438 L343.0962 371.27 L343.0137 371.0374 L342.6008 370.3608 L342.4985 370.0973 L342.3186 369.5398 L341.9335 368.0452 L341.9302 367.9869 L341.7173 367.3873 L339.8743 369.7215 L338.1613 371.7822 L334.7877 372.749 L318.9337 377.1147 L310.896 373.0466 L310.0226 366.9383 L306.8188 370.3491 L302.8502 369.053 L300.8297 364.0856 L302.2626 363.4406 L301.3852 360.098 L300.1495 359.9058 L299.6384 356.8174 L303.2398 352.6889 L303.2382 352.3496 L303.3473 352.0737 L303.5039 351.8206 L303.7353 351.6377 L303.9559 351.3096 L304.3914 350.6994 L304.5564 350.4736 L304.5999 350.3111 L304.6361 349.9874 L304.8196 347.2735 L304.8426 346.1764 L304.9709 345.5221 L304.9798 344.5502 L305.0704 343.659 L305.0494 343.2236 L306.6996 340.6647 L306.8514 340.5692 L306.9987 340.5357 L307.1581 340.5624 L312.6834 343.2354 L312.4202 343.9325 L312.7832 344.144 L312.8951 344.126 L312.9326 344.1297 L313.7335 341.716 L320.2941 341.3376 L320.7167 338.6646 L321.9242 341.0337 L323.0672 341.3004 L321.7189 340.06 L321.2689 338.6875 L321.1691 338.6001 L321.0161 338.1796 L320.9042 337.7324 L320.8849 337.506 L320.2422 335.2745 L319.9664 335.099 L319.8831 334.6537 L319.5454 334.0856 L319.1381 333.2446 L318.6688 332.1977 L318.0486 330.2527 L317.6501 327.8394 L317.3668 325.9576 L316.8959 323.9958 L316.4024 322.3342 L316.0973 321.655 L315.3475 320.9883 L306.3318 316.8389 L298.6644 318.1972 L293.2911 316.0077 L294.4342 308.8934 L287.2458 308.8934 L285.9779 304.6694 L274.5271 307.566 L271.2549 306.5674 L274.9658 304.8431 L277.586 304.1794 L280.4075 299.9615 L281.0032 299.0 L279.5985 299.304 L273.2512 292.8344 L266.9201 282.2085 L267.5721 277.9531 L274.3661 278.8464 L276.5798 282.376 L280.3632 283.8585 L284.3197 285.7133 L286.5986 281.9486 L290.4339 283.6551 L290.6673 276.6597 L291.5725 276.3154 L293.2831 276.9482 L298.612 296.8166 L302.4638 294.5278 L308.0423 302.3061 L312.3973 303.1559 L312.2685 306.0216 L313.5443 305.6928 L315.5769 305.1284 L319.155 304.1049 L323.7877 310.1711 L325.945 310.5309 L328.6047 308.2018 L328.6493 307.8309 L328.7089 307.5605 L328.8518 307.4376 L329.0852 307.4228 L329.4169 307.3855 L329.5416 307.3818 L330.1953 306.8093 L330.7789 306.2139 L333.1017 306.9538 L336.5369 307.6057 L336.2278 309.6904 L336.2962 311.0575 L336.231 312.1411 L336.2366 316.628 L337.812 321.4212 L338.1167 321.3927 L338.5892 321.8672 L338.8733 321.9528 L339.2968 322.2368 L339.6654 322.5321 L339.8131 322.7839 L339.9556 323.027 L341.0383 323.7024 L341.0894 324.0107 L340.2535 325.1426 L338.8918 327.0802 L339.042 327.4226 L341.2802 325.0161 L341.6763 324.7023 L341.9318 324.8362 L342.4156 325.4614 L342.6829 325.7002 L342.9473 325.8615 L343.2415 325.89 L343.6263 325.8305 L343.9785 325.5024 L344.1628 325.3212 L344.3383 325.2394 L344.5243 325.0502 L344.5887 324.7736 L344.5778 324.5782 L344.7513 324.1267 L344.9916 323.7242 L345.1852 323.5505 L345.5796 323.4277 L346.1048 323.5201 L346.3745 323.6299 L346.5914 323.718 L346.9754 323.7986 L347.2684 323.7657 L347.5317 323.6758 L348.3717 323.2211 L348.6542 323.1951 L348.8285 323.2032 L349.1988 323.414 L349.4382 321.3331 L349.4439 321.1477 L350.1752 321.4305 L350.3084 321.5366 L355.8217 322.8242 L359.2912 318.2654 L360.0776 317.8617 L360.1927 317.7748 L361.0355 317.3041 L361.5817 317.0901 L365.5901 315.0339 L367.8762 317.8375 L366.9505 320.5796 L366.9159 321.0906 L366.9091 321.3183 L366.604 321.6067 L366.4192 322.1543 L365.834 322.5724 L365.7551 322.8081 L365.5821 322.9898 L365.0665 323.2739 L364.7288 323.3619 L361.4002 325.7393 L359.8088 328.3374 L359.37 329.3558 L359.2288 329.5332 L358.8911 329.8352 L358.6295 330.2626 L358.7305 332.2777 L358.8001 332.9711 L357.9738 335.5964 L355.3782 343.7992 L355.3931 344.1049 L355.4305 344.6482 L355.8137 347.5023 L359.3435 353.0405 L356.9885 356.088 L356.7269 356.488 L356.4415 356.7956 L354.6947 359.0561 L354.3607 359.7755 L356.4737 367.9429 L353.1613 369.9832 L357.1741 378.3239 L356.0672 380.2215 L356.5293 387.8854 L356.5502 388.2333 L361.8264 389.3085 L361.9142 389.3005 L362.2197 389.2329 L362.2197 389.2317 L362.5883 389.1244 L362.8958 388.9718 L363.2106 388.7852 L363.9379 388.0212 L363.316 386.8877 L369.9048 390.2548 L371.8689 395.3644 L371.8653 395.4754 L371.9941 395.6484 L372.1378 395.9355 L372.3809 397.1595 L372.44 398.1405 L372.438 398.724 L372.4521 398.9522 L372.4062 399.0923 L372.2927 399.1779 L372.0943 399.2058 L371.7353 399.2498 L371.6842 400.7411 L373.2768 401.1578 L374.1043 401.3072 L377.3943 401.2254 L377.4768 401.9136 L377.5038 401.9186 L377.5038 402.1394 L377.5541 402.5598 L377.5754 403.0006 L377.5038 403.196 L377.5038 403.7106 L376.5953 405.9305 L375.769 407.1582 L375.1085 407.5054 L375.9763 408.0405 L375.9123 408.2842 L376.2359 408.4479 L375.6926 413.1045 L374.4585 416.9612 L371.8919 419.9436 L369.2576 417.8107 L365.6996 416.5464 L365.545 415.8309 L364.1878 411.4136 L362.3098 413.9986 L360.5626 417.1404 L359.2509 418.5082 L357.5484 419.6423 L354.3474 423.1237 L354.0065 423.9825 L354.3969 427.0051 L355.6064 428.3673 L361.5942 431.8462 L361.232 432.4594 L359.2239 433.4644 L357.4949 433.7595 L354.0991 435.3579 L353.771 436.3822 L353.0969 437.1088 L348.7162 435.7659 L348.7524 430.6626 L348.2505 428.172 L347.4077 427.6189 L346.7098 427.5724 L346.325 428.2141 L346.17 430.515 L346.104 431.4928 L346.0131 431.6323 L345.8758 431.7036 L345.5675 431.742 L343.514 431.0427 L343.2013 430.9496 L342.7529 430.843 L342.3879 430.8275 L342.0546 430.848 L341.6634 430.7519 L341.5346 430.5931 L341.6433 431.1747 L338.1263 434.5525 L338.4403 436.7957 L337.8349 437.4492 L336.6484 437.7393 L335.6426 438.7611 L334.7112 439.179 L334.2572 439.3197 L333.5154 438.7413 L333.4309 438.6638 L329.0607 439.3625 L326.9842 437.3531 L326.0299 437.6569 L322.833 436.3735 L326.104 438.8907 L319.3724 441.2597 L317.6783 441.5238 L315.4876 441.7061 L313.4075 443.2126 L310.904 444.5766 L311.713 448.7305 L313.1499 450.2308 L311.3669 451.3096 L311.9062 453.2315 L310.9926 452.8347 L310.1071 453.7523 L311.1455 456.1577 L314.615 460.1317 L320.451 456.3685 L324.6168 452.9153 L326.9472 447.2735 L330.2114 446.8706 L328.9717 448.2903 L329.4668 449.958 L319.5978 457.875 L314.7329 460.6109 L318.3299 464.4056 L320.707 463.8805 L322.5271 466.5041 L316.3899 466.7992 L317.5318 469.3223 L323.4162 468.9144 L323.7563 470.7823 L316.9345 470.357 L316.8922 470.9273 L319.5668 472.3929 L323.6323 473.6643 L330.76 475.1106 L335.55 476.808 L341.987 480.3111 L347.6951 483.5123 L351.8101 485.4966 L354.0669 486.3149 L356.1196 486.468 L368.8426 486.8685 L376.4738 490.2481 L381.2904 494.0722 L384.9763 498.6407 L389.9463 505.3998 L392.325 507.7398 L398.7749 512.0 L401.1459 506.6928 L399.2381 496.0807 L399.2381 495.2252 L399.7332 495.2252 L400.83 494.2923 L400.8336 494.1851 L400.964 493.8001 L401.0622 493.1269 L400.6577 491.3553 L400.3977 489.6233 L400.2206 489.2396 L399.9191 488.2279 L399.9541 487.3508 L399.8757 486.6472 L399.9344 486.2461 L400.2158 484.2432 L401.0626 483.3381 L404.2048 482.2074 L405.0742 480.8684 L404.4705 475.7169 L405.0247 473.5596 L405.3306 471.2472 L404.2612 468.7551 L404.2157 467.1228 L404.1686 466.0894 L403.2187 463.6096 L403.2948 462.0585 L402.1497 461.6164 L403.3274 459.4249 L407.1832 460.7578 L408.1854 455.0189 L408.9574 454.0127 L410.6744 452.1025 L411.3679 452.0052 L412.3725 451.3331 L412.5887 451.2854 L414.9593 449.0405 L415.4705 448.5569 L416.2123 447.6933 L418.2545 445.1427 L418.2062 444.0949 L417.9985 443.8029 L417.9393 443.4613 L419.738 442.7241 L423.1878 440.6081 L423.3331 440.4624 L424.1638 439.5014 L424.9756 438.5838 L425.463 437.8392 L426.2241 436.4863 L426.5956 436.1528 L426.8412 436.1478 L427.0996 436.159 L428.5554 434.4273 L429.6381 433.1377 L429.8373 433.0006 L431.2597 433.9052 L430.7618 437.451 L431.2963 438.0779 L432.8419 439.8957 L434.484 442.6733 L435.8042 443.7396 L437.7723 443.8698 L439.9096 441.8425 L442.1112 441.7389 L443.1274 440.8244 L442.3551 440.357 L439.1851 440.6415 L437.0615 442.318 L435.71 442.8568 L434.6611 442.4005 L434.0091 439.3935 L434.154 434.4211 L435.1912 431.3136 L435.3647 430.8163 L435.3139 430.5559 L434.9123 430.414 L434.4659 431.5418 L434.2747 432.0837 L434.2361 432.1233 L434.1439 432.3565 L434.0538 432.4507 L433.9322 432.5152 L433.8533 432.517 L433.7084 432.6658 L433.5684 432.4358 L433.5201 432.3819 L433.5184 432.354 L433.2005 431.8325 L433.4138 430.786 L432.4997 421.1403 L433.671 414.0098 L434.0533 412.4597 L433.7084 412.1007 L433.7784 411.3584 L433.3651 410.7948 L433.9789 409.2397 L434.0533 408.4541 L434.0533 405.7202 L433.8408 405.3147 L433.481 405.0431 L432.7231 404.7573 L432.6865 404.5031 L432.3677 402.8952 L432.3613 402.2844 L432.4044 401.466 L432.3846 400.7386 L432.0667 399.4383 L431.9487 399.0495 L431.3112 397.4423 L431.2106 397.1986 L431.18 396.8613 L431.0693 396.2635 L431.0552 396.1965 L430.8322 395.7904 L430.6386 395.6608 L430.5139 395.4952 L430.4076 395.3445 L430.3484 395.1659 L430.3166 395.0289 L430.408 394.8956 L430.5569 394.6767 L430.6048 394.6358 L433.7636 387.8178 L433.8328 387.7031 L433.8332 387.6727 L433.9487 387.5109 L434.511 386.5776 L434.5975 386.4331 L434.587 386.3538 L434.7014 386.2229 L434.7943 386.1057 L436.1064 384.0172 L436.7854 382.8043 L436.5121 382.1879 L436.5113 381.6775 L436.9038 381.1343 L437.0567 381.05 L437.1284 380.8906 L437.0044 380.6295 L437.2515 380.3883 L437.7273 380.1892 L438.0911 380.472 L438.1064 380.4447 L440.8956 381.0276 L440.8252 380.9253 L440.7588 380.7814 L440.7403 380.6146 L440.5994 380.356 L440.4968 380.1371 L440.4505 379.8227 L440.4416 379.5933 L440.3599 379.3614 L440.2867 379.207 L440.1036 379.0197 L439.8943 378.5943 L439.6266 378.1875 L437.9353 375.8583 L437.9245 375.3095 L437.8315 375.1445 L437.9192 375.0478 L437.8947 373.8057 L438.2199 373.1248 L437.5751 372.3025 L434.9207 368.1178 L434.7887 368.0676 L434.4482 367.8759 L434.3826 367.7376 L434.3854 367.6136 L434.424 367.5082 L434.5146 367.4772 L434.3588 367.2316 L434.7859 367.3842 L434.812 367.3749 L435.1872 367.378 L435.5699 367.4976 L436.1036 367.7693 L436.3801 367.8896 L436.7202 368.031 L436.9243 368.1035 L437.1891 368.2201 L437.5542 368.3714 L438.0062 368.5327 L437.1529 367.4555 L433.6778 366.1854 L429.9794 365.4133 L429.4919 364.3361 L430.6704 364.4986 L430.8012 364.9538 L434.81 365.2887 L442.2738 369.1218 L442.7109 370.199 L445.637 371.9261 L449.0102 374.2224 L449.8027 373.9278 L448.5707 372.1084 L448.4371 372.0327 L447.7846 371.5596 L447.5532 371.2532 L447.5484 370.8576 L447.6341 370.7255 L446.7547 369.4263 L444.8549 369.2551 L444.6448 369.2533 L444.6014 369.2322 L444.2753 369.203 L444.2653 368.7355 L444.2882 368.4626 L444.3599 368.253 L444.5909 368.031 L445.129 366.8663 L444.5193 366.3988 L444.2246 365.6775 L444.6328 364.8949 L444.6332 364.8273 L444.7471 364.2927 L445.0252 363.6726 L445.1624 363.4295 L445.4526 363.0413 L445.6325 362.6958 L445.9916 362.2518 L446.1964 361.9312 L447.0368 361.0177 L447.1612 360.8205 L449.7113 358.8496 L450.7063 357.5212 L450.9909 357.0512 L451.4433 356.4397 L451.7109 356.129 L451.9975 355.8896 L452.8004 355.8164 L452.9594 355.835 L453.3164 355.6886 L453.6992 355.7916 L454.0031 355.7097 L454.9807 355.7463 L455.7559 356.1761 L455.9527 356.3628 L457.9768 356.8756 L458.2562 356.9395 L458.3013 356.986 L458.3491 357.0022 L458.9734 357.2856 L459.4037 357.6806 L459.8681 358.2679 L460.4087 359.0772 L460.8542 359.3675 L461.4857 359.6366 L462.533 359.9355 L464.4428 360.2127 L466.3889 360.5687 L466.448 360.6016 L467.9831 360.743 L473.9762 358.7461 L477.3812 360.2034 L479.2274 360.16 L478.3641 356.6344 L474.1372 355.4455 L471.5157 355.7401 L468.3357 355.5572 L467.2788 355.6589 L464.7592 357.1727 L461.7007 356.5835 L458.8253 355.7811 L456.3351 354.3243 L455.1156 351.9986 L452.2547 346.8933 L449.5934 340.9717 L442.609 333.6415 L425.7017 318.4639 L417.7284 306.524 L418.7507 295.3466 L419.5839 293.3678 L416.5733 287.9464 L419.0003 280.9803 L419.1174 280.9834 L419.1029 280.8556 L419.1532 280.7036 L419.4523 280.7266 L419.8117 280.6689 L419.7932 279.6497 L416.7902 280.3178 L413.8203 280.5343 L410.9618 280.0628 L403.6277 275.3483 L397.117 266.3937 L395.0273 263.5196 L393.6798 261.674 L392.692 261.7274 L391.2769 261.5078 L388.9706 253.5485 L388.5722 253.3748 L385.2074 252.9033 L385.5334 254.2743 L380.0845 244.5374 L381.271 244.1087 L381.1704 243.7482 L379.8016 244.2086 L379.4715 242.6464 L379.1556 239.6778 L373.9522 236.5286 L370.3354 234.4341 L369.6564 233.8757 L369.5844 232.5672 L368.1588 232.3358 L365.1993 231.2091 L362.3199 230.0074 L368.6369 225.969 L368.6796 225.956 L368.8812 225.9671 L370.3089 227.3848 L370.6635 228.0183 L370.75 228.1058 L370.8925 228.4271 L372.6497 232.4984 L374.7145 234.7629 L375.6684 233.6399 L371.2076 226.5565 L367.8682 223.7503 L361.6606 217.1786 L361.8301 216.4576 L358.074 216.0984 L355.6949 216.2845 L354.4613 216.5718 L351.6523 217.4975 L348.9689 218.6217 L344.8181 220.9329 L342.0735 221.621 L339.591 221.9082 L339.1885 222.9332 L328.8586 219.9948 L326.236 218.3196 L322.9996 217.1792 L321.929 217.7767 L321.3176 219.5685 L320.7976 219.9073 L320.3146 220.0029 L318.1726 220.0792 L316.2402 220.6667 L313.81 223.7937 L311.7975 226.9021 L311.5879 227.4258 L310.6786 228.3601 L312.1703 231.6478 L310.7688 233.7671 L311.0924 233.9247 L310.0202 236.8884 L311.0022 237.9909 L311.6993 238.2949 L310.0922 240.9999 L311.7734 242.214 L310.4895 243.1384 L309.278 243.9945 L312.9406 244.7514 L312.7836 246.8235 L314.7679 249.1189 L313.7053 249.4415 L309.0284 244.9003 L311.2703 248.6537 L307.2333 250.2791 L307.7968 259.3986 L304.1784 266.117 L295.1869 264.2312 L280.6047 256.8302 L274.6197 256.0796 L263.2454 254.2743 L259.4419 257.5437 L254.3665 268.8342 L251.6256 270.6766 L242.8489 273.398 L245.3894 276.6039 L245.0413 278.9661 L245.0537 279.177 L244.9853 279.3445 L244.6987 281.2904 L242.8111 283.4305 L242.5837 283.5354 L242.5289 283.5931 L242.0544 283.9286 L241.3726 284.2363 L240.4187 285.088 L239.2539 285.6556 L238.5729 285.9465 L239.5147 287.6797 L244.5418 294.5712 L248.1561 292.0714 L251.0218 292.3815 L259.9893 297.3129 L259.3815 305.637 L261.1404 306.8775 L267.2542 312.9189 L267.8346 321.2959 L270.4419 329.7273 L277.7873 331.036 L278.8941 329.0265 L273.9874 315.9259 L274.7537 314.0037 L276.2301 313.0138 L278.9102 314.8665 L280.1761 317.5732 L282.3696 319.5574 L290.0109 323.8724 L296.7759 326.192 L296.8298 325.8646 L297.0468 326.0531 L297.4094 326.192 L297.9411 326.5915 L299.2641 327.0449 L299.3957 326.2888 L301.3304 327.177 L302.5335 327.6254 L303.3022 328.044 L303.7566 328.3573 L304.0344 328.6804 L304.6816 328.9024 L303.9933 332.6858 L298.8563 332.4774 L298.4345 332.6095 L298.063 332.5388 L297.9423 332.4519 L297.4979 332.4395 L297.4774 332.6045 L297.2637 332.6963 L295.533 332.8346 L294.3453 332.7211 L294.0478 332.7149 L292.3827 334.183 L292.4954 338.04 L297.2275 346.1875 L296.2333 349.2078 L288.7068 355.7879 L289.5842 356.6809 L292.9249 358.8453 L296.0031 364.0161 L296.0562 363.982 L296.2796 363.9287 L296.5585 363.92 L296.895 364.0279 L297.0057 364.1668 L297.2202 364.7826 L297.4827 365.8809 L297.6344 366.6381 L297.5953 366.6915 L298.2297 367.7569 L300.8982 369.9832 L299.9241 369.6793 L300.6969 372.2529 L296.8813 368.4328 L289.6607 368.3708 L283.4628 369.2942 L281.9329 371.0684 L282.9826 374.388 L287.8901 378.5484 L291.4904 383.8293 L290.2636 388.4962 L291.0638 390.5233 L290.2902 395.5101 L287.0634 392.1765 L286.3164 389.1095 L278.4554 388.9402 L253.8352 390.168 L250.5026 392.3321 L250.3577 396.4247 L251.5249 400.7405 L250.6797 404.7275 L247.8422 407.8092 L247.4755 409.3079 L243.8857 409.9794 L235.8343 411.8458 L219.4949 410.8351 L212.3105 415.4359 L212.878 417.2464 L213.9003 418.9701 L212.5922 422.1199 L213.9929 423.6018 L212.1254 423.0624 L210.4631 425.6727 M300.069 386.1063 L300.4071 386.1063 L302.8341 392.4623 L301.5502 397.082 L300.069 386.1063 M309.3963 285.2884 L309.4696 284.8926 L309.5895 284.6153 L309.7948 284.4466 L309.9831 284.33 L310.2355 284.1836 L310.6074 284.1079 L310.9209 284.1067 L311.1697 284.1792 L311.3669 284.2921 L311.5713 284.7685 L311.7231 285.9248 L312.2608 286.7753 L312.6428 287.2026 L315.3173 289.5393 L316.6278 289.981 L317.1527 290.3116 L318.5263 292.1403 L319.7527 295.9278 L320.0168 296.2348 L320.4784 296.4581 L322.067 297.2204 L324.7263 298.2644 L328.0363 300.289 L330.4082 302.2844 L331.7219 303.2099 L332.5213 303.8655 L332.6416 304.1887 L332.1228 304.4548 L331.2619 304.8151 L330.5865 305.1327 L330.1731 305.1904 L329.8987 305.1873 L329.5702 305.0502 L327.1235 303.3383 L324.3773 301.4018 L322.1407 300.4186 L320.2699 299.4113 L319.05 298.8016 L317.4895 299.1117 L316.3324 299.7245 L314.4882 300.5489 L313.8124 299.879 L312.8609 298.358 L311.8982 295.5531 L311.5947 294.1897 L311.1596 292.9026 L310.8871 291.3171 L310.4299 290.2291 L310.258 289.6423 L310.1099 289.12 L309.7855 288.2696 L309.6788 287.8664 L309.5396 287.5227 L309.3963 285.2884 M316.1001 455.0852 L318.1086 450.981 L319.0262 452.2519 L319.9439 453.5291 L318.338 455.9345 L316.1001 455.0852 M317.2617 445.6008 L317.4775 444.2071 L317.8244 442.8822 L318.9614 442.5083 L322.0779 441.5635 L326.3857 440.2658 L327.7969 439.7767 L328.5415 439.7829 L329.4406 439.7711 L330.1655 439.6 L330.9745 439.1784 L331.4345 439.3904 L332.225 440.1598 L333.3826 441.8394 L333.3649 442.0489 L333.3017 442.2219 L329.8165 442.7793 L329.3452 442.6249 L329.1005 442.2789 L328.5745 441.6323 L328.2255 441.4643 L327.7775 441.5145 L326.8695 442.9857 L326.4083 443.2864 L325.225 443.8463 L322.1918 444.7372 L317.7081 446.0094 L317.3708 445.8377 L317.2617 445.6008 M324.075 295.8905 L324.2139 295.2802 L324.3568 295.0563 L324.5299 294.9527 L324.7134 294.9942 L324.907 294.9725 L325.289 294.7331 L327.3376 294.6376 L328.013 294.668 L328.308 294.6072 L328.2311 294.3181 L327.6878 293.8628 L327.5566 293.3895 L327.3799 293.0614 L327.3936 292.6328 L327.4757 292.4163 L327.7461 292.3803 L328.0758 292.3766 L328.2851 292.2972 L328.2585 291.9579 L328.1551 291.6831 L328.0138 291.4846 L327.631 290.9505 L327.5437 290.7191 L327.555 290.1882 L327.5807 289.8228 L327.9164 289.1957 L328.1027 288.911 L328.2976 288.5016 L328.3161 288.4104 L328.3736 288.1281 L328.3986 287.8 L328.5491 287.3453 L328.7298 287.0103 L329.1186 286.681 L329.7296 286.5898 L330.6622 286.6698 L331.8906 286.8466 L332.1671 286.8658 L332.4247 287.0166 L333.2554 288.7919 L333.6249 289.8451 L333.8177 290.6335 L333.9175 291.2266 L333.9855 293.0329 L333.8921 294.5879 L332.799 297.0617 L332.9704 297.9673 L331.3432 299.379 L330.7761 299.954 L330.7527 299.9776 L330.401 300.7139 L330.339 301.8961 L329.5545 301.3534 L328.4751 300.2567 L325.914 298.7637 L325.4423 298.0101 L324.9356 297.2812 L324.3302 296.7211 L324.1495 296.2081 L324.075 295.8905 M324.6389 471.8932 L324.7432 471.6737 L324.9396 471.6799 L325.2551 471.8517 L325.9732 472.0686 L326.7391 471.9149 L327.5159 471.8107 L328.2545 471.7109 L329.0804 471.6967 L329.2849 471.6737 L329.5392 471.6961 L329.7067 471.7444 L333.7219 472.4394 L334.0918 472.2949 L334.4822 472.285 L334.7519 472.3947 L335.2574 472.714 L336.0112 472.8026 L336.4004 472.9328 L337.1153 473.1727 L337.5463 473.1244 L337.7689 473.1157 L338.1895 473.125 L338.5026 473.1231 L338.8629 473.195 L339.246 473.4213 L341.5829 473.8094 L341.3865 474.6562 L341.2637 475.2588 L340.889 475.6599 L340.6346 475.9859 L340.3436 476.0349 L338.5397 475.7107 L337.6409 475.3741 L336.5168 474.6754 L335.7311 474.4498 L334.8195 474.2495 L334.2842 473.9166 L333.9211 473.4697 L333.6462 473.063 L333.377 472.5044 L331.1335 472.1003 L329.9449 472.4245 L329.4768 472.5385 L328.2891 472.6718 L327.5377 472.807 L326.7979 472.6935 L326.306 472.5974 L325.9506 472.4189 L325.1714 472.2032 L324.8543 472.2168 L324.6735 472.1021 L324.6389 471.8932 M327.8995 467.6336 L327.9128 467.5537 L327.9872 467.416 L328.1023 467.3472 L328.2134 467.3404 L328.7858 467.5059 L329.3742 467.6646 L329.7791 467.7874 L330.0886 467.8531 L330.4271 467.9275 L330.6388 467.9207 L331.414 467.7496 L332.4424 467.4935 L333.3588 467.2338 L333.8245 467.0968 L334.0008 467.0713 L334.2081 467.0261 L334.3526 466.9647 L334.4782 466.8382 L334.58 466.6981 L334.5957 466.4384 L334.4492 466.1297 L334.322 465.891 L334.1586 465.7298 L334.0958 465.4682 L333.9968 465.1818 L333.9996 464.9065 L334.159 464.6808 L334.3852 464.6052 L334.6633 464.5401 L335.0477 464.4744 L335.1978 464.1663 L335.4083 463.9003 L336.0974 463.7565 L336.7587 463.6207 L337.3531 463.5817 L339.0037 464.9387 L339.5463 465.3888 L339.7544 465.6511 L339.8896 466.0119 L339.9476 466.5773 L340.051 467.0038 L340.3734 467.7861 L340.2804 468.1556 L339.9194 468.3311 L339.4972 468.3056 L338.9285 467.9207 L338.4185 467.6132 L338.2394 467.5605 L337.2883 467.4594 L336.6673 467.5574 L335.746 467.7229 L334.7643 467.7489 L333.7456 467.8407 L332.8441 468.0316 L331.8467 468.2672 L330.8976 468.486 L330.6167 468.5232 L330.3559 468.491 L329.0804 468.1407 L328.0033 467.762 L327.8995 467.6336 M342.6893 480.4103 L343.7728 480.0979 L344.3436 480.4493 L344.6253 480.67 L345.1868 480.8368 L345.879 481.0283 L346.4131 481.179 L346.9138 481.2261 L347.947 480.8634 L348.0843 481.1901 L348.6079 481.8212 L349.0128 482.2917 L349.5501 482.6463 L350.0202 482.8515 L350.4396 482.8496 L350.7053 482.8255 L351.1384 482.7938 L351.5038 482.7449 L351.8632 482.8676 L352.12 483.1652 L352.3168 483.6524 L353.798 485.0751 L353.5219 485.4594 L353.2957 485.4346 L352.9846 485.2561 L352.6799 484.9821 L352.1389 484.4273 L351.9715 484.0461 L351.4306 483.159 L351.2985 483.0784 L351.8186 484.4279 L351.4921 485.0094 L348.8752 483.9171 L349.3706 483.1435 L349.2503 483.017 L348.5886 483.7026 L347.716 483.3518 L342.6893 480.4103 M362.8049 456.7901 L363.316 456.7901 L364.2377 458.185 L371.0921 458.0424 L371.7119 461.4398 L369.8887 463.2004 L370.6977 465.333 L371.0639 466.7093 L368.5242 468.5691 L367.2323 461.7497 L364.4591 466.5047 L362.8049 456.7901 M380.2692 396.4073 L382.4 394.6395 L382.2672 394.6141 L381.8269 394.5508 L381.2952 394.5198 L381.2473 394.3412 L381.2763 394.1292 L381.9174 393.9239 L382.7276 393.6015 L383.523 393.4241 L384.5847 393.013 L385.3994 392.5907 L386.1806 392.1721 L386.8656 391.792 L387.4468 391.4349 L387.7789 391.2017 L388.0369 391.4082 L388.3975 391.7536 L388.5754 391.8404 L388.9718 392.0742 L389.124 392.1455 L389.6931 391.8813 L391.0849 391.81 L391.7253 391.7796 L394.1128 391.2005 L395.3424 390.4384 L397.862 390.5097 L400.646 390.7025 L402.0688 386.5367 L402.8794 386.4108 L402.9152 386.1547 L403.9955 386.2372 L404.619 386.1404 L405.7874 386.2725 L406.4072 386.293 L407.0271 386.2626 L408.0792 386.6588 L408.1794 386.6533 L408.6282 386.6644 L409.0588 386.7116 L409.3571 386.7791 L409.4887 386.8542 L409.5096 386.9416 L409.469 387.1314 L409.3909 387.5326 L409.3213 387.8544 L409.0854 388.5359 L409.093 388.6922 L410.2578 390.7329 L409.3124 393.3243 L408.5275 394.6327 L409.3647 394.9427 L409.9813 395.1709 L410.2116 394.7461 L410.7815 393.8935 L411.6215 392.9888 L412.098 392.4475 L412.4023 391.8131 L412.7915 390.6864 L413.0213 390.4421 L413.3868 390.0533 L413.6391 389.8127 L414.2018 389.5355 L415.1312 389.2143 L415.6657 389.1157 L415.9023 389.0624 L417.5533 388.3455 L419.3211 385.978 L419.8866 386.0301 L419.9864 385.7678 L420.9016 386.0462 L421.8873 386.4071 L425.255 387.4458 L426.7079 387.0179 L426.4061 387.3465 L424.6311 390.137 L423.3794 390.137 L423.645 388.4999 L423.0131 389.0766 L422.5828 389.9001 L421.1399 390.2629 L420.7455 390.6269 L420.5458 393.5103 L415.6938 393.6287 L414.4441 393.9233 L411.9628 395.174 L411.2077 395.8828 L410.6503 396.6504 L409.832 397.5148 L409.3804 397.766 L409.3486 398.0369 L410.4104 397.4317 L410.7034 397.2042 L411.1751 396.865 L411.5901 396.5822 L412.7766 395.9764 L413.7297 395.4382 L414.2855 395.1802 L414.4316 395.1387 L414.5661 395.0618 L415.7989 394.7753 L416.4783 394.5818 L416.618 394.5893 L418.6099 394.1372 L418.8663 394.1595 L419.7171 394.1031 L419.8797 394.1633 L419.9417 394.3133 L420.7334 394.4014 L421.3126 397.4187 L421.6736 398.4115 L421.7239 398.3984 L421.7702 398.5652 L421.7726 398.5659 L421.8668 398.7122 L422.0954 399.4321 L423.1862 401.9744 L422.3812 405.639 L421.5158 407.9147 L422.3888 408.6376 L422.9298 408.7214 L422.9954 409.1405 L423.2329 409.3371 L423.6893 411.3374 L417.4789 411.6846 L419.0977 414.2342 L418.3153 418.0246 L418.1027 418.2819 L415.074 418.7866 L412.8221 418.1951 L411.6702 415.9009 L410.5384 415.6573 L410.3742 415.6529 L410.0836 415.7131 L410.0651 417.3537 L409.6944 417.9595 L409.6416 418.1938 L409.4629 418.3377 L409.3434 418.5324 L409.1888 418.5156 L409.1373 418.5349 L408.8914 418.6421 L408.6245 418.6558 L408.2675 418.5665 L408.0377 418.3904 L407.6702 418.3501 L407.6014 418.1393 L407.2891 417.9694 L407.0512 417.5918 L406.9526 416.857 L406.6395 416.131 L404.7723 416.1737 L404.33 415.2313 L404.1078 415.1222 L403.4328 414.1884 L403.0513 413.5745 L402.6001 412.8398 L402.1034 412.0988 L401.9783 411.3777 L401.9187 410.8444 L401.3979 410.1803 L398.929 407.4267 L397.5275 406.1723 L398.1059 405.9751 L398.1156 405.7854 L398.4706 405.7066 L399.117 405.6303 L400.4786 405.1659 L400.7422 404.9774 L401.0288 404.7492 L401.1439 404.6041 L401.3254 404.5545 L401.2075 404.2588 L400.9897 403.2139 L400.6428 402.6627 L400.8159 402.1456 L400.8118 402.109 L400.8139 401.6848 L400.9016 401.265 L401.1878 400.8744 L401.259 400.8211 L401.3979 400.4062 L404.365 399.4916 L402.0382 398.9937 L400.5446 398.6074 L400.5281 397.9644 L400.4251 397.8962 L400.516 397.5061 L400.4532 395.0618 L400.4126 393.395 L398.7257 394.4826 L395.7791 393.3751 L393.1002 393.2809 L390.0735 393.8675 L389.4778 394.495 L389.0624 395.1368 L388.3174 395.8431 L387.4263 396.4756 L386.9083 396.7862 L386.4515 397.2023 L385.7177 397.5861 L383.7946 398.6502 L383.4409 398.7395 L382.9993 398.683 L381.0066 397.5998 L380.7281 397.3114 L380.2692 396.4073 M385.7286 405.9627 L385.8063 405.8591 L385.9717 405.7519 L386.4462 405.8467 L386.9598 406.1159 L387.898 406.4755 L388.1484 406.0917 L388.1089 406.0594 L387.9471 405.9906 L387.0234 405.4456 L387.0113 405.249 L387.0878 405.0524 L387.2363 404.8776 L387.4581 404.8329 L387.6923 404.8956 L388.7432 405.5597 L388.961 405.7432 L389.0024 405.936 L389.1224 406.0414 L389.7326 406.2008 L389.9414 406.3949 L390.0823 406.597 L390.3001 406.5133 L390.5536 406.4848 L390.6736 406.5009 L390.7714 406.584 L390.7356 406.7911 L390.5291 406.8835 L390.5174 406.8959 L390.4055 407.0156 L390.3657 407.1886 L390.4522 407.436 L390.6289 407.6542 L390.7613 407.7553 L392.3447 409.0952 L392.7255 409.4908 L393.1972 409.8399 L393.4858 409.9683 L394.2352 410.0185 L394.9416 410.5121 L395.2181 410.7055 L395.6982 411.3473 L396.0283 411.8991 L396.085 412.2073 L395.9099 412.4454 L395.3972 412.8621 L394.9323 413.1882 L394.7536 413.1783 L394.5966 413.0971 L394.4244 412.8788 L393.9188 412.0647 L393.3521 411.2276 L392.9287 410.8946 L392.6731 410.8109 L394.3197 413.1845 L394.892 414.8493 L394.9987 415.199 L394.9383 415.4223 L394.7757 415.5016 L394.201 415.5661 L392.9891 415.7614 L392.7359 415.7007 L392.5472 415.692 L392.3306 415.7856 L392.2674 415.855 L392.1901 415.94 L391.4894 416.028 L391.3691 415.9232 L391.264 415.6163 L391.1545 415.3181 L390.9263 414.6962 L390.6881 414.1865 L390.4603 413.6991 L390.1447 413.1709 L389.9648 412.9228 L389.8062 412.704 L389.4915 412.4008 L389.0403 412.2061 L388.6503 412.1608 L388.1999 412.1912 L388.0095 412.2358 L387.9499 412.2495 L387.7117 412.2364 L387.4839 412.1428 L387.3893 412.03 L387.3249 411.9531 L387.1695 411.5352 L386.7046 409.8455 L386.6515 409.6353 L386.045 407.2214 L385.7286 405.9627 M385.9238 339.905 L388.8217 337.4242 L388.4072 336.7419 L388.7074 335.3074 L388.9819 334.761 L389.0717 334.361 L389.0709 334.0019 L389.2162 333.8003 L389.3949 333.698 L389.6625 331.4565 L389.002 329.3837 L389.0532 327.8499 L389.8758 325.97 L389.7317 325.2747 L389.6166 324.9956 L389.5176 324.7091 L389.4275 324.3549 L389.541 324.2185 L389.737 324.1682 L390.0783 324.1186 L390.3423 324.1013 L390.7396 323.8972 L390.4856 322.2511 L392.5439 321.0882 L392.5826 320.8804 L392.8172 320.3774 L393.0559 319.9575 L393.1682 319.7013 L393.1783 319.4681 L392.8168 319.367 L392.3077 319.2671 L391.8786 319.2367 L391.2012 319.2845 L390.5142 319.3955 L389.9608 319.5022 L388.9598 319.4575 L388.55 319.2957 L388.222 319.0631 L388.4377 318.6407 L388.7356 318.6518 L389.0411 318.8311 L389.6239 318.9899 L390.2707 319.0184 L391.0169 319.0358 L391.8492 319.0718 L392.6542 319.0147 L393.0096 319.0606 L392.5971 318.6624 L392.645 318.0279 L392.6059 317.6793 L392.7118 317.1397 L392.7403 316.7638 L392.7218 316.5101 L392.7995 315.9755 L392.8426 315.4061 L395.8302 314.8342 L395.7409 314.5774 L395.6016 314.4304 L395.4753 314.1532 L395.3766 313.6495 L395.2511 313.3301 L395.2994 313.2054 L395.2499 312.8314 L395.3565 312.4828 L395.9912 312.1535 L396.5133 312.0332 L396.8405 311.857 L397.2221 311.3472 L397.662 310.9279 L398.2681 310.6915 L399.0558 310.1767 L399.3573 309.817 L399.5001 309.6948 L399.7195 309.7035 L399.9831 309.8089 L400.2214 309.8616 L400.2681 309.825 L400.3506 309.5937 L400.5337 309.6396 L400.671 309.5509 L400.9302 309.8592 L400.9644 309.8784 L401.1697 310.0124 L401.3548 310.1656 L401.2731 310.266 L402.937 312.2428 L403.5065 312.8035 L403.4485 312.8513 L405.5028 315.2914 L406.078 316.7682 L406.1617 316.77 L406.2652 316.7756 L406.4117 316.8271 L406.5453 316.9691 L406.7824 317.3915 L407.0625 317.8933 L407.2774 318.3182 L407.7544 319.0804 L407.6678 319.2274 L409.0488 320.3916 L411.5043 320.8915 L411.6227 320.7749 L411.8698 320.966 L411.9954 320.9914 L413.5502 322.4341 L415.1847 324.0523 L415.2266 324.8015 L415.9683 326.3564 L416.4763 327.2098 L415.6331 327.7277 L418.4678 330.3897 L418.5588 330.5789 L418.7898 330.7829 L418.7584 330.9547 L418.7564 330.9889 L420.6787 334.9806 L421.4836 344.7549 L420.209 343.5114 L420.1003 343.522 L418.6859 342.2772 L417.3114 340.9233 L416.8776 340.279 L416.9118 340.1196 L417.0643 339.7673 L417.0716 339.3908 L417.0844 338.9815 L417.0426 338.7564 L417.0209 338.5622 L417.0321 338.112 L416.9943 337.6549 L416.9883 337.6177 L416.9548 337.217 L417.1122 336.5714 L417.3006 336.1515 L417.3855 336.1162 L417.462 335.8154 L417.7779 335.0029 L417.7115 334.7994 L417.6028 334.294 L417.7248 333.528 L417.6532 332.8855 L417.3646 332.1542 L417.3247 331.7976 L417.2994 331.7337 L417.1907 331.6488 L416.4727 332.9897 L415.0434 336.8722 L415.2262 337.2201 L415.485 337.5333 L415.7124 337.867 L415.8504 338.7049 L415.6101 339.0572 L415.3195 338.9102 L414.814 338.7421 L414.7798 339.0882 L414.6953 339.5353 L414.581 340.2666 L414.5943 340.9891 L414.6264 341.5144 L414.6852 341.7333 L414.6381 341.9293 L414.527 342.1675 L414.4135 342.232 L414.1978 342.2512 L414.0372 342.3424 L414.0376 342.4298 L414.0376 343.0804 L413.9563 343.6801 L414.2103 343.8321 L414.129 344.1372 L414.2308 344.3084 L414.75 345.9599 L414.7878 346.0263 L414.8124 346.1596 L415.1859 347.3479 L411.2942 349.7561 L412.5645 354.501 L415.5518 357.4679 L417.3907 356.8273 L419.5718 361.0655 L419.2603 362.7411 L420.0729 362.9948 L417.7868 365.3011 L419.6282 366.467 L418.8675 369.3444 L417.1207 367.7631 L415.7144 365.7891 L416.4457 363.8282 L417.4922 361.4202 L415.8766 359.876 L415.6009 359.8555 L415.3002 359.9771 L414.3475 359.9659 L413.675 359.907 L413.159 360.8056 L412.9606 361.8165 L412.3588 362.1991 L412.2071 362.4 L411.442 362.8112 L411.064 363.0227 L409.2444 364.1799 L408.6974 364.7089 L409.374 369.345 L410.8169 372.6473 L412.1073 375.1774 L412.036 377.7379 L409.5861 377.8526 L408.5678 377.6604 L408.5972 377.1066 L408.5549 377.0725 L408.3392 376.693 L408.3436 375.8279 L408.6869 375.4149 L408.7449 374.3241 L406.2776 374.3241 L405.1474 369.7314 L406.2696 366.0205 L404.5606 365.6633 L404.4298 365.7631 L403.915 366.3349 L402.5768 368.3497 L402.4701 370.4173 L402.3099 371.0597 L402.4226 371.3971 L402.4769 371.6383 L402.8001 372.2814 L402.6403 372.798 L402.6504 373.2401 L402.5377 373.8869 L402.363 374.3272 L401.8881 374.7842 L401.5138 375.3424 L401.5915 376.3885 L401.4739 377.7937 L401.5057 379.3831 L401.4136 381.1163 L401.8072 382.1885 L401.653 382.3125 L401.5532 382.2759 L401.653 383.105 L400.8038 381.9206 L399.9513 378.7754 L399.8539 378.469 L399.8551 378.42 L399.214 376.0543 L398.8759 378.3549 L398.1365 378.3779 L397.73 375.8887 L399.2542 370.7273 L398.6139 370.2901 L396.5922 372.0073 L393.4016 373.3995 L392.8305 373.1397 L390.3435 373.704 L386.93 373.3071 L387.6787 368.7491 L387.7221 366.3578 L388.1282 365.5454 L389.2053 365.3216 L391.615 365.6484 L392.0098 368.573 L394.859 372.6187 L394.8852 372.1698 L395.5759 371.6011 L396.4195 371.2247 L398.0246 369.2539 L398.6851 365.7284 L395.7163 360.2965 L391.6552 359.4716 L390.7496 357.7011 L389.805 353.2204 L389.4798 350.8631 L389.4186 350.264 L389.7796 347.9365 L387.2077 343.3595 L385.9238 339.905 M388.245 261.7721 L388.4015 260.8521 L388.6917 260.6964 L389.3301 261.3924 L389.803 261.9576 L390.9259 263.5996 L391.7011 264.733 L393.6323 266.8863 L394.1112 267.5023 L394.4884 267.854 L394.8836 268.5395 L395.4664 268.895 L397.276 270.2188 L397.7075 270.6251 L398.1421 271.2107 L398.7435 272.5854 L399.0928 273.5624 L399.6108 274.3403 L400.5015 274.7516 L400.6227 274.9848 L400.5064 275.6492 L400.6714 275.9364 L400.9543 276.0412 L401.028 276.0685 L401.6265 276.1579 L402.3316 276.1572 L402.8633 276.2925 L403.0517 276.3402 L403.4373 276.6337 L403.6836 277.1392 L403.7842 278.0703 L403.8708 278.8451 L403.6925 280.7303 L402.6866 285.1959 L402.5997 285.5706 L402.4765 286.3057 L402.3485 287.2516 L401.9424 287.9762 L401.2381 289.0878 L400.7092 289.9667 L400.409 290.4884 L400.2717 290.6639 L400.0254 290.9797 L399.8342 291.1044 L399.7509 291.0374 L399.6841 290.9834 L399.3915 290.6981 L399.2896 290.2031 L399.154 289.1696 L399.2751 287.9495 L399.6724 286.895 L399.8169 285.8293 L399.734 285.0861 L399.4522 284.1637 L398.7926 283.2668 L398.0347 282.3152 L397.5279 281.7538 L395.1971 279.5405 L392.6256 276.7013 L391.4955 275.5983 L391.7156 275.1641 L391.9406 275.0717 L392.8305 275.9761 L393.817 275.7429 L394.9053 275.7609 L395.7787 275.6628 L396.5133 274.9234 L396.6034 274.6269 L396.2533 274.3967 L395.2579 274.5692 L394.9915 274.6337 L394.2493 274.7168 L393.4697 274.7696 L392.7383 274.6455 L392.0199 274.277 L391.6935 273.9092 L391.5031 273.3583 L390.9336 272.1145 L390.5721 271.2845 L390.416 270.7355 L390.0787 269.8193 L390.187 269.4868 L389.9845 268.4725 L389.972 268.4111 L389.7265 266.9619 L389.4335 265.5413 L388.6921 263.4477 L388.3307 262.4265 L388.245 261.7721 M409.0198 438.1616 L409.0612 437.983 L409.2154 437.8925 L409.4255 437.9284 L409.6199 438.0847 L410.1025 438.4455 L410.449 438.6439 L411.064 438.8721 L411.5844 439.1926 L412.0594 439.4871 L412.6631 440.0364 L413.7418 440.7798 L417.4169 442.6937 L417.6544 442.8599 L417.6837 443.1258 L417.6286 443.3844 L417.5461 443.5958 L417.3553 443.69 L417.0611 443.7117 L416.6027 443.7124 L415.9474 443.6063 L415.1589 443.4086 L414.5604 443.2064 L413.6456 443.0794 L412.9199 443.093 L412.2035 443.0391 L411.8493 442.9132 L411.6267 442.8345 L411.1147 442.6057 L410.7923 442.3217 L410.3291 441.8295 L410.0783 441.4878 L409.8368 441.0266 L409.737 440.6843 L409.729 440.259 L409.7362 440.1455 L409.7531 439.8746 L409.7157 439.6378 L409.3329 438.9378 L409.1607 438.6228 L409.0198 438.1616 M410.2719 287.9948 L411.3373 286.4074 L411.9024 287.0159 L411.1852 288.5816 L411.772 289.2559 L410.8153 289.5815 L410.2719 287.9948 M410.3548 436.4919 L410.5424 436.433 L410.9759 436.2972 L411.0689 436.2681 L411.5398 436.1267 L411.7144 436.1069 L412.1371 436.3264 L412.7456 436.7697 L413.196 437.097 L413.252 437.2892 L413.2761 437.4548 L412.9368 437.6215 L412.8599 437.7369 L412.8712 437.8367 L412.9831 437.9656 L413.9088 438.4902 L414.1632 438.634 L414.265 438.7561 L414.7939 439.6297 L414.6796 439.7729 L414.6023 439.8697 L414.2228 439.5758 L413.6975 439.1802 L412.9368 438.6762 L412.8177 438.51 L412.7444 438.2546 L412.6852 438.1268 L412.5279 437.9706 L411.8996 437.5025 L411.4488 437.2223 L410.7537 436.756 L410.5738 436.637 L410.3548 436.4919 M444.7789 346.5355 L444.8437 346.4207 L445.1202 345.9308 L445.6124 345.6287 L446.1803 345.4024 L446.518 345.3199 L446.8734 345.145 L446.8802 345.0786 L446.8827 345.0545 L446.906 344.833 L446.5442 344.6383 L446.4657 344.5961 L446.0201 344.5167 L445.5806 344.4876 L445.3625 344.4485 L445.3122 344.4392 L445.1077 344.26 L444.9097 343.8891 L444.8984 343.6255 L444.8924 343.4816 L444.9052 342.947 L445.1391 342.4831 L445.6627 341.9591 L445.8185 341.786 L446.2355 341.3221 L446.3172 341.0753 L446.361 340.9432 L446.3127 340.5109 L446.2834 340.3329 L446.2451 340.1034 L446.2254 339.6234 L446.2809 339.1682 L446.4999 339.0764 L446.8456 339.2978 L447.878 340.8074 L447.9432 340.8961 L449.5471 342.7287 L449.6449 342.8404 L450.0044 343.3669 L450.918 345.1605 L451.7403 347.1476 L451.7709 347.2419 L452.3267 348.9449 L452.4974 349.7232 L452.2635 349.9341 L452.0446 349.9713 L451.8679 350.001 L449.5632 346.799 L448.681 344.9081 L448.6749 344.8957 L448.5139 344.8008 L448.3284 344.8213 L448.2543 344.9013 L448.0937 345.0743 L448.0362 345.2318 L448.0515 345.4067 L448.1815 346.8778 L448.0748 347.2679 L447.7388 348.0065 L447.622 348.2627 L447.4944 348.396 L447.42 348.4742 L446.5707 348.9474 L446.1707 349.0677 L445.8611 348.9889 L445.5271 348.6863 L445.1367 348.1399 L445.1077 348.0686 L444.7817 347.2648 L444.7789 346.5355 M452.4628 351.335 L452.4853 350.9139 L452.9401 350.5263 L453.2987 350.6256 L453.6332 351.1341 L454.0465 351.4132 L454.2321 351.7605 L454.0256 352.1568 L453.6465 352.1903 L452.8455 351.8616 L452.4628 351.335" stroke-dasharray="" fill="none" fill-opacity="1.0" stroke="#ff0000" stroke-opacity="1.0" stroke-width="1.0px" stroke-linecap="butt" stroke-linejoin="miter" stroke-dashoffset="0.0px"/>
</g>
</svg>