<?xml version="1.0" standalone="no"?>
<!DOCTYPE svg PUBLIC "-//W3C//DTD SVG 1.1//EN" "http://www.w3.org/Graphics/SVG/1.1/DTD/svg11.dtd">
<svg width="512px" height="512px" version="1.1" xmlns="http://www.w3.org/2000/svg" xmlns:inkscape="http://www.inkscape.org/namespaces/inkscape">
<g id="layer" inkscape:groupmode="layer" inkscape:label="layer">
<path d="M32.5965 102.0238 L32.5981 102.2383 L32.6294 102.5402 L32.6652 102.8137 L32.8235 103.6696 L32.9865 104.5433 L33.0287 104.9192 L33.0416 105.2907 L33.0228 105.6561 L32.999 106.0339 L32.9039 107.0681 L32.796 108.1976 L32.7776 108.458 L32.7757 108.7371 L32.8014 109.0688 L32.8803 109.5485 L33.2172 111.5515 L33.5232 113.2989 L33.5999 113.7641 L33.6627 114.1968 L33.683 114.5508 L33.6646 114.9268 L33.5976 115.4092 L33.5483 115.781 L33.4863 116.1731 L33.4195 116.4384 L33.3257 116.7384 L33.4572 117.1291 L33.5553 117.9491 L33.5612 118.3636 L33.5631 118.4955 L33.5666 118.7421 L33.5899 119.1139 L33.6691 119.3652 L33.768 119.5938 L33.9923 119.9346 L34.2545 120.2501 L34.5975 120.544 L34.6754 120.5965 L34.8803 120.738 L35.2318 120.9082 L35.4652 121.0212 L35.6495 121.0906 L35.9408 121.2963 L36.9435 122.1005 L37.3102 122.5334 L37.5467 122.9255 L37.7385 123.2437 L38.0724 123.9196 L38.0756 123.9299 L38.3333 124.7585 L38.5126 125.3348 L39.778 129.4033 L40.0572 130.3013 L40.931 132.5093 L41.5665 134.1147 L41.6787 134.4365 L41.6947 134.7474 L41.6857 135.1839 L41.6315 137.8174 L41.737 141.4532 L41.7482 141.8405 L41.8275 142.5245 L42.6422 145.8533 L45.1462 151.9124 L45.7874 152.7798 L46.3213 153.4117 L46.5834 154.141 L47.0981 156.7056 L47.1977 157.2017 L47.3077 158.9987 L47.355 159.2631 L47.3673 159.42 L47.3768 159.6919 L47.498 161.3045 L47.5183 162.1116 L47.4964 162.606 L47.4745 163.0001 L47.4332 163.4485 L47.3794 163.7812 L47.1518 164.5928 L47.048 165.0064 L46.9843 165.4261 L47.0023 165.8222 L47.2458 167.1551 L47.2573 167.5058 L47.2494 167.8023 L47.2185 168.11 L47.0268 168.8218 L47.0078 169.0532 L47.0268 169.4017 L47.082 169.6381 L47.1537 169.8621 L47.4702 170.5102 L47.9884 171.3664 L48.4456 172.1399 L48.7605 172.6821 L48.8438 172.8861 L48.9143 173.2811 L48.9705 173.8167 L48.9899 174.0009 L49.0356 174.4372 L49.1542 175.5516 L49.1692 175.6926 L49.2758 176.4181 L49.3781 176.9527 L49.4065 177.2982 L49.3749 177.6354 L49.2995 177.9782 L49.13 178.3642 L48.9721 178.7304 L48.882 178.939 L48.5861 179.6487 L48.4657 180.0565 L48.3151 180.4774 L48.1717 181.3146 L48.4413 181.4401 L48.7439 181.585 L49.281 181.7818 L49.7899 182.041 L50.9877 183.0011 L51.5715 183.4828 L51.8332 183.7677 L51.9576 183.9806 L52.2502 184.8575 L52.5862 185.9246 L53.0044 186.7325 L54.2257 187.9733 L55.8544 189.7537 L55.9226 189.8902 L56.5541 190.5203 L57.1886 190.8593 L57.8238 191.1206 L58.0664 191.2683 L58.605 191.7695 L59.0451 192.32 L59.6419 192.8883 L60.7238 193.5188 L60.9167 193.6371 L61.1246 193.8281 L61.9068 194.7103 L62.7164 195.5184 L63.7032 196.3542 L65.2801 197.9981 L66.8769 199.4222 L68.3056 200.6006 L69.036 201.0397 L69.3249 201.2073 L69.5332 201.3469 L70.402 202.1936 L70.6047 202.3183 L70.7257 202.369 L70.8523 202.3713 L70.9587 202.351 L71.0755 202.2835 L71.228 202.0363 L71.3098 201.8759 L71.4156 201.6429 L71.5266 201.2677 L71.7027 200.8436 L71.8785 200.6022 L72.0783 200.5023 L72.2665 200.4603 L73.0747 200.3903 L74.1174 200.3719 L74.7227 200.3359 L75.0362 200.3505 L75.2914 200.3994 L75.6723 200.5127 L76.1753 200.7975 L76.7491 201.0916 L77.4998 201.3109 L77.9978 201.5629 L78.0714 201.6133 L78.4135 201.8475 L79.1347 202.321 L79.8042 202.6809 L80.4675 203.1223 L80.7316 203.3044 L80.9274 203.3827 L82.1586 203.8366 L83.052 204.1801 L83.5518 204.4463 L84.0354 204.7676 L84.5248 205.2664 L84.9822 205.7899 L85.7286 206.6396 L86.0467 207.0018 L86.3835 207.3085 L86.7148 207.5202 L88.8125 208.556 L89.3425 208.7909 L89.8514 208.9821 L91.3559 209.5161 L91.6512 209.6435 L91.763 209.7243 L91.993 209.8999 L92.2389 210.1164 L92.4952 210.3871 L92.9191 210.9901 L93.3982 211.8555 L93.5326 212.0981 L94.031 212.9073 L94.7088 213.8477 L97.5368 217.7134 L98.4705 219.0208 L98.5589 219.1595 L99.1403 220.0712 L100.1163 221.0552 L100.9268 221.7311 L101.8213 222.4453 L102.1522 222.8371 L102.2537 223.0166 L102.5875 223.3724 L103.0555 223.7781 L103.4791 224.2038 L103.8897 224.7386 L104.5591 225.6584 L105.484 226.603 L106.1205 227.429 L106.8068 228.6363 L107.2849 229.6381 L107.663 230.3472 L108.093 231.1559 L108.6493 231.8224 L109.7929 232.7769 L110.1851 233.2359 L110.2558 233.3187 L110.7664 233.9759 L111.126 234.7762 L111.254 235.3863 L111.3136 236.0811 L111.2052 236.7532 L111.1707 236.9673 L111.0853 237.2731 L111.0241 237.4921 L110.9673 238.007 L111.1074 238.7837 L111.168 239.1574 L111.2327 239.653 L111.2152 239.8087 L111.18 239.911 L111.1525 239.9826 L111.0391 240.0946 L110.9182 240.1651 L110.8374 240.2124 L110.5673 240.3659 L110.3827 240.497 L110.2153 240.6874 L110.1656 240.9497 L110.3798 241.5995 L110.3931 241.6344 L110.8516 242.839 L111.0087 243.3152 L111.0504 243.4413 L111.2939 243.9771 L111.3993 244.144 L111.7841 244.54 L112.4706 245.2838 L114.2935 247.2588 L114.8957 247.6613 L114.9944 247.7116 L114.9827 247.7802 L115.0043 247.9015 L115.0142 247.9507 L115.0405 248.0807 L115.1783 248.3291 L115.5795 248.9837 L115.9727 249.7325 L116.146 250.3216 L116.1458 250.8347 L116.0158 251.4247 L115.9621 251.877 L116.1358 252.784 L116.0421 254.0045 L116.1058 255.7982 L116.0653 256.2805 L115.982 256.6326 L115.873 256.8948 L115.228 257.6258 L114.9883 257.9765 L114.8558 258.2491 L114.688 258.7442 L114.4995 259.5691 L114.2863 260.2794 L113.9784 260.8756 L113.805 261.065 L113.1641 261.5276 L112.8865 261.6497 L112.4852 261.7275 L111.8861 261.6509 L110.7082 261.0817 L109.85 260.832 L108.0495 260.6435 L106.1996 260.3716 L104.192 260.2644 L103.6545 260.3043 L102.5579 260.8259 L102.1396 260.8811 L101.8589 260.8567 L101.1168 260.6973 L100.2413 260.4904 L99.3033 260.1378 L98.9471 260.0039 L98.7257 259.9344 L98.7029 260.056 L98.7123 260.5057 L98.8009 261.0555 L99.0522 261.2968 L99.4019 261.455 L99.5129 261.6659 L100.1687 262.5782 L100.5455 262.9379 L100.8006 263.2178 L100.9134 263.5539 L100.8362 263.8619 L100.7056 264.0487 L100.1063 264.6927 L98.3855 267.3247 L97.8099 268.3514 L96.4451 270.3207 L95.7271 270.8247 L94.3029 271.7114 L93.6265 272.2713 L92.9322 273.0552 L92.511 273.6433 L92.3744 274.1844 L92.3033 274.5672 L92.3418 275.2426 L92.4985 275.9555 L92.757 276.8055 L92.8373 277.3016 L92.7602 277.6561 L92.6831 278.1508 L92.6278 278.5564 L92.7844 279.5828 L92.8119 279.9039 L92.7602 280.0826 L92.5881 280.3065 L91.3597 281.417 L89.9747 282.2542 L83.5794 282.2844 L82.1615 282.258 L79.7669 282.0078 L79.8183 282.4062 L79.9251 283.4234 L80.15 284.3762 L80.2893 284.6577 L80.3395 285.0034 L80.2893 285.3545 L80.2001 286.1239 L80.1966 286.6997 L80.2812 287.2026 L80.4414 287.9396 L80.4739 288.361 L80.4829 288.7234 L80.3465 289.5074 L80.2302 290.1923 L80.305 290.7017 L80.477 291.7186 L80.6788 293.0716 L80.8801 295.2617 L80.8524 295.8194 L80.7493 296.0286 L80.4343 296.4448 L80.2699 296.8517 L80.0441 298.0251 L80.1445 299.2738 L80.2948 300.5493 L80.4903 301.7366 L80.6847 303.2692 L80.6268 304.0094 L80.4829 304.7619 L80.3939 305.3776 L80.3863 305.6343 L80.4387 305.9731 L80.3891 306.2278 L80.2313 306.4212 L79.966 306.6405 L80.0239 306.8634 L80.0603 307.3364 L80.4484 308.4282 L81.4432 310.3933 L82.0497 311.1212 L82.826 311.7278 L83.8936 312.395 L86.8171 315.3914 L87.0718 315.7188 L87.1633 315.8692 L87.1932 316.1192 L87.1633 316.3379 L87.0961 316.4711 L86.9646 316.6407 L86.7565 316.8834 L85.3493 317.5992 L85.0217 317.8781 L84.4609 318.6695 L83.2507 320.3771 L83.0168 320.7818 L82.826 321.2749 L82.7885 321.4778 L82.6703 322.1005 L82.6131 322.9092 L82.605 323.7179 L82.6684 324.8655 L82.8746 326.5396 L82.8746 326.9521 L82.6684 327.3038 L81.3947 328.2744 L79.9146 329.7178 L79.1019 330.7126 L78.6113 331.4858 L78.2407 331.9377 L77.7312 332.2654 L76.7024 332.6584 L76.0155 333.1455 L75.3293 333.5997 L74.4302 334.0174 L73.8246 334.2523 L72.2726 334.6487 L70.8149 335.191 L69.255 335.7972 L68.3904 336.0643 L67.8853 336.2652 L70.0024 337.2317 L70.023 337.2412 L72.4628 338.187 L73.5588 338.4587 L74.3518 338.7691 L74.5649 338.8526 L74.9764 339.0136 L75.5807 339.2501 L78.7265 340.4815 L81.2854 341.7147 L85.6668 344.6593 L86.7294 345.328 L86.9211 345.4861 L87.1233 345.6529 L87.2174 345.8233 L87.3784 346.1422 L87.2043 346.3042 L86.9191 346.5368 L86.0982 347.1745 L85.5915 347.6813 L83.2838 349.639 L83.1674 349.8494 L83.1726 350.0636 L83.392 350.7271 L83.5906 351.1346 L84.0033 351.5682 L84.1286 351.8607 L84.1547 352.5137 L84.3377 352.9891 L85.0847 354.4049 L85.1474 354.7392 L84.9332 355.366 L84.348 356.7401 L84.2272 357.1309 L84.1667 357.4882 L84.1437 358.4938 L83.9651 359.3582 L83.6481 360.2888 L83.4032 360.7555 L83.0456 361.1621 L82.6425 361.8073 L81.9066 362.5715 L81.6658 362.8444 L81.1471 363.4811 L80.5248 364.0229 L79.9608 364.8219 L79.3119 366.3056 L78.0007 368.0975 L76.7886 370.3544 L76.423 370.8403 L75.6393 371.6552 L73.6019 373.238 L70.9694 376.6182 L68.9094 379.2271 L68.0695 380.2908 L66.911 381.8641 L66.0425 383.0439 L65.0969 384.209 L64.7887 384.4388 L64.1505 384.7693 L62.4695 385.5222 L63.7842 387.3224 L63.8522 387.6258 L65.0195 395.2398 L65.6225 399.9142 L66.0327 402.84 L66.6086 407.1431 L67.0526 410.0817 L67.1571 411.1004 L67.4871 413.5804 L67.9195 415.1425 L68.252 415.8633 L68.7227 416.4369 L69.2875 417.0753 L70.12 418.0639 L71.2088 419.3667 L72.1642 420.4182 L72.8741 421.3174 L73.2542 421.6695 L73.5529 421.9889 L73.8236 422.3512 L74.0371 422.9435 L73.7256 423.0639 L73.8805 423.3445 L74.0449 423.8369 L74.6033 424.3551 L75.1917 425.1374 L76.5526 426.4581 L77.2179 427.0032 L78.1841 428.0563 L78.4549 428.568 L79.2976 431.7509 L79.6753 433.4762 L79.7151 434.2217 L80.2083 434.439 L80.8378 434.891 L82.3724 435.6583 L83.1642 435.8786 L84.0948 436.0092 L84.8049 436.2215 L85.9804 436.7767 L86.4802 437.101 L86.8946 437.4623 L88.0782 438.3194 L90.8617 440.9479 L91.6699 441.8703 L92.6075 442.5728 L92.7694 442.2958 L93.0986 442.1077 L93.5949 442.1496 L93.8457 442.1129 L93.9659 442.0137 L94.3367 441.857 L94.598 441.8517 L94.7808 441.7421 L94.8853 441.5645 L95.4077 440.9428 L95.5174 440.7233 L95.763 440.4674 L96.7138 439.9972 L96.7839 440.0013 L97.069 440.0182 L97.2362 440.3734 L97.5549 440.8226 L98.0146 441.1047 L98.6154 441.2509 L100.7677 441.2405 L101.3894 441.0629 L101.6897 440.8703 L101.7969 440.8017 L102.4865 440.4779 L103.5627 440.3524 L104.1979 440.3365 L104.2269 440.4803 L104.4271 440.7025 L104.6835 441.0533 L104.8766 441.1525 L105.3314 441.2201 L106.5192 441.2036 L106.6848 441.1531 L106.8198 441.142 L107.0697 441.1933 L107.3643 441.3138 L107.6318 441.4346 L107.7865 440.8733 L107.7999 440.8362 L107.8327 440.7102 L107.8674 440.5834 L107.9539 440.4216 L108.1903 440.0727 L108.3499 439.8608 L108.4591 439.6815 L108.5267 439.5478 L108.6326 439.2176 L108.6444 439.1644 L108.692 438.8634 L108.7126 438.5556 L108.7283 438.3934 L108.6946 438.114 L108.6721 437.9738 L108.5944 437.7473 L108.5701 437.6958 L108.4874 437.501 L108.4091 437.3162 L108.3042 436.9135 L108.1964 436.4002 L108.1858 436.1757 L108.196 436.0465 L108.2205 435.9111 L108.2902 435.7347 L108.4743 435.3197 L108.9626 435.0334 L109.377 434.3959 L110.3854 432.8445 L110.7169 432.498 L111.156 432.1688 L111.5396 432.093 L113.1805 432.6929 L114.2076 432.8613 L115.0099 433.101 L116.4049 433.5179 L117.2886 433.5927 L119.1916 433.7537 L119.7472 433.7117 L120.1093 433.5517 L121.3974 432.4908 L123.1485 430.2008 L126.0025 426.9596 L127.038 425.882 L127.779 425.3937 L130.2878 423.8194 L132.4766 421.942 L137.0923 419.322 L137.8311 418.9027 L138.3363 418.7343 L138.8161 418.6923 L139.6327 418.7595 L139.9358 418.7259 L140.0957 418.5828 L141.0808 416.4696 L141.2324 416.2929 L141.3923 416.2423 L144.7093 416.0571 L145.9644 416.1554 L145.9906 416.4581 L146.4773 418.7075 L146.8851 419.6677 L148.3058 422.0225 L149.6344 423.4827 L149.8712 423.9167 L150.108 426.8633 L149.9369 427.1 L149.5292 427.2449 L149.3582 427.3764 L149.2529 427.6527 L149.2924 428.3893 L149.516 428.5602 L149.7528 428.5602 L150.187 428.3893 L151.3578 428.4003 L151.5813 428.4024 L154.791 427.6789 L155.2251 427.7184 L156.6852 428.113 L156.8694 428.3104 L157.0736 429.0346 L157.2384 429.4743 L157.4215 429.8301 L158.619 430.7308 L159.9476 431.27 L162.6883 432.6735 L163.2252 433.4592 L163.7387 433.9572 L164.4545 434.3851 L165.1003 434.5018 L165.6059 434.5251 L166.9753 434.1984 L168.8504 433.9106 L170.2196 433.6071 L172.1492 433.078 L172.5304 433.0624 L172.8883 433.1325 L174.0086 433.5371 L174.6467 433.9106 L175.3936 434.6497 L175.5336 434.9452 L175.5725 435.3499 L175.0668 438.4854 L175.1601 438.9678 L175.3936 439.3722 L176.6384 440.477 L177.4631 441.4418 L177.9455 442.2898 L178.0778 442.8111 L178.0622 443.1847 L177.323 445.6821 L177.292 446.1567 L177.183 446.6857 L176.4594 447.6893 L176.3266 448.3765 L176.2226 448.4937 L176.3746 449.1916 L176.2895 449.5361 L176.3522 449.7466 L176.649 449.9122 L176.7225 450.0522 L176.8944 450.208 L176.9357 450.3684 L176.734 450.7329 L176.8522 451.1946 L177.058 451.3782 L178.4121 451.3272 L178.7412 451.3955 L179.3385 451.8138 L180.0446 452.5007 L180.625 453.1851 L181.8099 454.3336 L183.6694 455.8112 L184.5304 456.4093 L184.6006 456.5393 L184.6314 457.5643 L184.7793 457.7969 L185.0678 457.6245 L185.5838 457.5004 L186.246 457.5054 L186.6884 457.5927 L186.8248 457.6029 L187.7162 457.5927 L187.8942 457.6032 L188.1038 457.6157 L188.406 457.6099 L188.7838 457.5529 L189.2022 457.4397 L189.4983 457.2095 L189.5188 457.6578 L189.3757 458.1651 L189.2184 458.7294 L189.0699 458.8501 L188.7943 458.6988 L187.9969 458.8476 L187.826 458.9759 L187.826 459.2322 L188.2619 461.0767 L188.4316 461.7946 L188.6808 463.1323 L188.7342 463.5491 L188.606 464.0513 L187.8473 465.996 L187.5002 468.0911 L187.0139 470.5371 L186.6826 471.7233 L184.5563 477.5145 L183.9687 479.8012 L183.7549 481.3505 L182.4086 484.353 L182.2056 484.4811 L175.7304 485.6138 L175.2603 485.7633 L175.0252 486.0732 L174.615 487.4916 L174.5735 487.6353 L174.996 487.7825 L177.1109 488.1416 L178.8454 488.417 L179.4551 488.5691 L179.9593 488.778 L180.1842 488.9181 L180.5627 489.3008 L180.8199 489.6786 L180.7732 489.806 L180.9212 490.0065 L181.0248 489.9852 L181.236 490.4385 L181.2443 491.5499 L181.3019 491.8696 L181.2391 492.0348 L181.1803 492.9612 L181.1178 493.0766 L181.1104 493.2839 L181.2875 493.5945 L181.2025 494.1186 L181.2824 494.9691 L181.3574 495.208 L181.5499 495.5803 L181.7808 495.8693 L182.178 496.2849 L182.1719 496.4494 L182.2363 496.5048 L182.5065 496.5604 L182.6975 496.7123 L182.9813 496.8159 L183.0621 496.9402 L183.2392 496.9374 L183.8382 497.0621 L185.6713 497.2818 L186.1353 497.5104 L187.1172 498.2592 L187.2876 498.5207 L187.6187 499.1303 L187.6633 499.3023 L188.1178 499.9308 L188.3214 500.1237 L188.557 500.2909 L189.3543 500.8299 L190.67 501.6329 L190.7142 501.6979 L190.8087 501.7135 L190.8159 501.8193 L191.0279 501.8117 L191.5172 502.1222 L191.9067 502.482 L192.104 502.7329 L192.4409 503.2279 L192.524 503.5028 L192.6234 503.7353 L192.8366 504.417 L192.6868 504.7342 L192.5972 505.2469 L192.595 505.4578 L192.712 507.0147 L192.6907 507.6186 L192.6824 507.8566 L192.5922 509.0573 L192.6015 509.4443 L192.6945 510.0015 L193.0574 511.2206 L193.2257 512.0 L193.4382 511.7956 L193.5512 511.6826 L193.6869 511.5079 L193.7625 511.1546 L193.7811 510.7606 L193.7885 510.6035 L193.8571 510.4045 L193.9055 510.3304 L193.9895 510.2712 L194.4594 510.0177 L194.8436 509.8481 L194.9911 509.7783 L195.2135 509.6645 L195.3091 509.5016 L195.3273 509.2533 L195.2593 509.0268 L194.7661 507.8564 L194.5169 506.9053 L194.4867 506.6205 L194.5201 506.4352 L194.5465 506.2971 L194.6161 506.1727 L194.8374 506.0209 L195.1081 505.946 L195.2799 505.9204 L195.4281 505.9314 L195.8633 506.0959 L196.0718 506.1178 L196.2437 505.9935 L196.2931 505.7869 L196.251 505.6022 L196.2089 505.3572 L196.2748 505.1943 L196.4046 505.112 L196.7521 505.0261 L197.0904 505.0077 L197.7159 505.09 L198.5034 505.0497 L199.7398 504.9889 L200.1889 505.0166 L200.6077 505.1142 L201.1108 505.3532 L202.5696 506.2589 L203.4128 506.7856 L203.926 506.9859 L204.4771 507.1641 L204.8159 507.2512 L205.179 507.3012 L205.4656 507.2856 L205.7467 507.2241 L206.0638 507.1159 L206.5395 506.8388 L207.777 506.0437 L208.2777 505.7416 L208.895 505.5192 L209.7024 505.3762 L210.3703 505.3205 L212.2604 505.382 L214.3374 505.4415 L214.954 505.397 L215.5798 505.3519 L215.8008 505.4162 L216.0716 505.5892 L216.4809 505.9434 L216.9823 506.691 L217.2296 506.8403 L217.6987 506.7786 L218.1004 506.6332 L219.2786 506.2068 L219.5523 506.1459 L219.824 506.6631 L220.1097 507.2066 L220.9831 508.1289 L221.2807 508.2307 L231.7056 511.4061 L232.2617 511.4707 L232.844 511.225 L236.9575 507.2074 L238.822 505.4105 L239.093 505.2444 L239.5456 505.1288 L239.9774 505.0892 L240.3973 505.1216 L241.6814 505.3466 L241.9489 505.3479 L242.1602 505.3251 L242.4294 505.2238 L242.8443 504.4981 L243.3383 503.7728 L243.395 503.6996 L243.5451 503.5057 L243.7319 503.2973 L243.9702 503.0669 L244.436 502.6392 L244.7901 502.2961 L245.3062 501.7975 L245.995 501.1318 L246.6488 500.6664 L247.3276 500.4123 L247.2759 500.1412 L247.3342 499.903 L247.4876 499.7125 L247.8805 499.3764 L247.9269 499.3368 L248.2232 499.1303 L249.107 498.8181 L249.398 498.6065 L249.4361 498.4122 L249.4148 498.1613 L249.2961 497.9449 L249.0912 497.7465 L248.2386 496.9138 L247.0471 495.9737 L247.0471 495.6959 L247.3792 495.6177 L247.803 495.4253 L248.4497 494.782 L249.3359 493.8308 L249.6569 493.702 L249.9967 493.6087 L250.4744 493.6132 L251.8189 493.7219 L252.3667 493.7615 L252.6105 493.749 L255.2364 493.6135 L256.4059 493.4731 L257.0895 493.3388 L257.4072 493.2764 L257.8389 493.1061 L258.5351 492.8236 L258.8958 492.4829 L259.3209 491.9094 L259.6726 491.2843 L259.9609 490.4369 L260.144 489.7643 L260.0576 487.871 L260.067 485.4443 L260.2627 484.4712 L260.9483 481.4418 L262.0689 476.7148 L262.3156 475.6205 L262.4902 474.8707 L262.653 474.0944 L263.2333 472.3909 L265.4516 466.9173 L265.9012 466.3224 L266.4476 465.8016 L269.9686 463.188 L271.862 461.6936 L273.2117 460.3146 L274.1209 458.9428 L276.0376 454.139 L278.3032 448.8336 L279.1052 445.7931 L280.0486 442.0805 L280.3747 440.8014 L280.5609 440.0351 L280.7318 439.4033 L281.0737 438.0449 L281.5245 436.6068 L282.1543 434.7329 L282.8105 432.7458 L284.1598 428.7319 L286.7276 421.0098 L287.1477 419.7721 L287.3344 419.1883 L287.4991 418.706 L287.5999 418.3656 L287.658 418.1102 L287.9209 416.9296 L288.1447 415.7177 L288.4439 413.9303 L288.5385 413.5397 L288.6356 413.2174 L288.8173 412.8479 L288.9578 412.6691 L289.0801 412.5209 L289.3269 412.3264 L289.5469 412.2506 L289.8297 412.1982 L290.0334 412.1788 L290.304 412.2672 L290.486 412.3661 L290.5985 412.4281 L291.0823 411.8432 L291.2583 411.6731 L291.8756 411.2249 L292.8327 410.607 L293.2604 410.3671 L293.685 410.1193 L293.976 409.9049 L294.5774 409.3736 L294.7233 409.2246 L294.9721 408.8657 L295.0982 408.6603 L295.222 408.2873 L295.3094 407.6882 L295.3762 407.5225 L295.4463 407.4089 L295.5881 407.225 L295.732 407.1678 L296.2632 407.0334 L296.4903 406.9967 L296.6991 406.957 L296.9633 406.8777 L297.1419 406.8028 L297.2474 406.721 L297.3327 406.5694 L297.5746 405.9483 L297.7818 405.6592 L297.9966 405.4767 L298.1794 405.339 L298.3614 405.208 L298.511 405.0631 L299.0726 404.3853 L299.3435 404.0452 L299.4679 403.8023 L299.7274 403.2254 L299.7996 402.9722 L299.8754 402.8057 L299.9861 402.6285 L300.3237 402.1813 L300.4997 401.9555 L300.6614 401.7879 L301.0934 401.3343 L301.4478 400.9453 L301.7252 400.6826 L301.9185 400.5331 L302.1953 400.3454 L302.3876 400.2065 L302.6983 399.9366 L303.2433 399.3666 L303.8878 398.7074 L304.0878 398.4788 L304.3183 398.1935 L304.665 397.7117 L305.0505 397.1359 L305.1653 396.9496 L305.248 396.7837 L305.2937 396.6271 L305.2523 396.4443 L305.1533 396.2271 L305.0295 395.985 L304.943 395.8002 L304.902 395.616 L304.8542 395.3626 L304.8533 395.1493 L304.8725 395.0044 L304.9448 394.9265 L305.0925 394.8277 L305.2409 394.7647 L305.4894 394.7024 L306.3501 394.4809 L306.5155 394.3923 L306.6878 394.2733 L306.818 394.1451 L306.9564 393.974 L307.0816 393.7361 L307.3628 393.2714 L307.4722 393.1042 L307.5539 393.0058 L307.6737 392.915 L307.7897 392.8813 L307.9493 392.8769 L309.4815 393.0027 L309.8857 393.0469 L310.3668 393.1248 L312.0763 393.4112 L312.3287 393.4919 L314.4227 394.2337 L315.314 394.5419 L316.3913 394.8552 L316.9509 394.9915 L317.1554 395.0235 L317.3295 395.0279 L317.5629 394.9685 L317.8899 394.8804 L318.146 394.7884 L318.3399 394.6583 L318.6664 394.451 L318.9635 394.2919 L319.2372 394.2069 L319.4723 394.1488 L319.6904 394.1456 L319.9521 394.1579 L320.037 394.1641 L320.2247 394.184 L320.3254 394.2115 L320.4202 394.2531 L320.6368 394.4572 L320.9269 394.7809 L321.1756 395.1425 L321.2732 395.2874 L321.4359 395.4683 L321.6227 395.6157 L321.7752 395.6952 L321.8563 395.7255 L321.9505 395.7317 L322.0745 395.6812 L322.1227 395.6546 L322.1676 395.5973 L322.205 395.5343 L322.221 395.4508 L322.2302 395.3561 L322.1899 395.1929 L322.0486 394.8952 L321.754 394.3458 L321.5694 393.9871 L321.4365 393.6864 L321.3875 393.5491 L321.3435 393.2666 L321.3495 393.0989 L321.3389 393.0056 L321.2952 392.8669 L321.235 392.7859 L321.1664 392.7143 L321.0188 392.6322 L320.6557 392.4706 L320.2949 392.3784 L319.5532 392.2625 L318.8125 392.1336 L318.5229 392.0366 L318.3154 391.9115 L318.0651 391.7374 L317.8269 391.5389 L317.5267 391.2877 L317.1524 391.0293 L316.7433 390.8075 L316.4137 390.6569 L315.7422 390.4218 L315.3346 390.2616 L315.0582 390.1337 L314.6188 389.9433 L314.4286 389.6019 L314.5363 389.185 L316.2275 385.199 L317.0578 383.2851 L317.7812 381.5665 L317.9209 381.2938 L318.0816 381.0761 L318.3062 380.8248 L318.4894 380.6234 L318.7565 380.4132 L319.28 380.0373 L319.3928 379.9466 L319.6313 379.6773 L320.1025 379.0709 L320.4387 378.6359 L320.6496 378.323 L320.9686 377.779 L321.1167 377.4015 L321.3276 376.6011 L321.5547 375.8459 L321.6298 375.7214 L321.7118 375.6335 L321.7897 375.5665 L321.8556 375.5205 L321.9965 375.4765 L322.3236 375.3671 L322.6042 375.2019 L322.8925 374.9462 L323.1818 374.4559 L323.5908 373.8591 L323.7281 373.6988 L323.8883 373.5504 L324.0827 373.4063 L324.3921 373.1678 L325.921 372.1962 L326.3976 371.8613 L326.8459 371.6264 L327.0386 371.5437 L327.7857 371.2999 L327.9787 371.1929 L328.083 371.0972 L328.1454 371.04 L328.3047 370.7881 L328.4274 370.6144 L328.5357 370.5275 L328.6351 370.4693 L328.7144 370.4342 L328.8004 370.416 L328.9083 370.4198 L328.9814 370.4494 L329.0277 370.4902 L329.1265 370.5838 L329.272 370.8045 L329.3493 371.1699 L329.4082 371.4611 L329.4318 371.8216 L329.4943 372.0702 L329.5904 372.2811 L329.6939 372.5414 L329.7171 372.6625 L329.7091 372.7774 L329.6667 373.1235 L329.6314 373.4668 L329.5666 373.7515 L329.5218 373.9289 L329.5206 374.1352 L329.5324 374.2554 L329.5889 374.4284 L329.8576 374.9529 L329.9171 375.0312 L329.9778 375.0887 L330.0483 375.103 L330.1692 375.098 L330.2895 375.077 L330.447 375.0181 L331.594 374.5663 L331.7041 374.5505 L331.7884 374.5615 L331.8677 374.6048 L331.9111 374.6535 L331.9618 374.7217 L331.9901 374.8193 L331.9837 374.911 L331.9004 375.0942 L331.773 375.2685 L331.664 375.4885 L331.6096 375.6189 L331.5598 375.7826 L331.512 376.0032 L331.4898 376.2088 L331.486 376.2873 L331.4952 376.3735 L331.5141 376.4413 L331.5509 376.4874 L331.5929 376.5197 L331.7828 376.5926 L331.8238 376.6069 L331.9523 376.5712 L332.0475 376.5427 L332.1025 376.526 L332.2215 376.4903 L332.2522 376.4798 L332.7889 376.2947 L333.1305 376.0779 L333.5255 375.5308 L333.7835 375.0764 L334.0219 374.5388 L334.1961 374.1464 L334.4907 373.6214 L335.3592 372.9232 L335.8114 372.3973 L336.2934 371.5551 L336.526 371.0165 L337.0633 370.2752 L337.4646 369.9654 L338.1958 369.5008 L338.5131 369.1291 L338.669 368.6223 L339.1099 365.7587 L339.8789 363.5962 L340.5778 362.2614 L341.2338 361.2815 L341.6963 360.8169 L341.8629 360.3185 L341.7984 359.8032 L340.1477 357.2857 L339.5444 356.8154 L339.1987 356.546 L337.7456 355.8857 L337.0698 355.5177 L336.7024 355.2856 L336.3497 354.9642 L335.7245 354.269 L335.604 354.1005 L335.5145 353.9172 L335.4755 353.7516 L335.4491 353.5123 L335.4378 353.3888 L335.4496 353.2005 L335.473 353.0777 L335.4957 352.9894 L335.5385 352.9001 L335.6053 352.7664 L335.7642 352.5433 L335.8811 352.4617 L335.9642 352.4252 L336.3656 352.2821 L337.1151 351.9463 L337.6743 351.8788 L338.5278 351.9052 L339.0885 351.8154 L339.4971 351.5916 L339.852 351.245 L340.0132 350.8987 L340.0241 350.5522 L339.6476 350.1552 L339.1529 349.6989 L338.798 349.1919 L338.5776 348.9808 L338.0561 348.7527 L337.3624 348.3218 L337.029 347.9225 L336.6761 347.7564 L336.3878 347.8215 L336.1087 347.8047 L335.9267 347.6456 L335.8524 347.446 L335.9017 347.3388 L336.0438 347.1953 L336.5899 347.0046 L337.1062 346.8117 L338.0219 346.1082 L338.5883 345.7194 L339.3412 345.4914 L340.4037 345.3954 L340.5717 345.2584 L340.6967 344.9236 L340.6271 344.5204 L340.4466 344.1326 L340.2981 343.8292 L340.2695 343.6759 L340.345 343.5124 L341.1364 342.5489 L341.815 342.0041 L342.6337 341.8273 L343.5874 341.7073 L343.6639 341.6843 L343.7659 341.6421 L343.8368 341.5945 L343.9226 341.5151 L343.9796 341.3646 L344.0788 341.102 L344.2217 340.6612 L344.2844 340.4122 L344.3658 340.2193 L344.5088 340.0504 L344.8656 339.7739 L345.4435 339.3537 L345.8259 339.1035 L346.1196 338.9456 L346.3631 338.8313 L346.6292 338.752 L346.7441 338.7417 L347.0191 338.7963 L348.2845 339.2966 L348.7645 339.4707 L349.0929 339.5476 L349.8135 339.6425 L350.7875 339.7313 L351.373 339.7212 L351.9229 339.6464 L352.2673 339.5049 L352.5573 339.4243 L353.2073 339.4097 L353.582 339.4973 L355.2768 340.2667 L356.1898 340.7515 L357.2107 341.2632 L357.3209 341.3024 L357.4931 341.3563 L357.609 341.3687 L357.7173 341.3618 L357.7973 341.3594 L357.8274 341.3496 L357.9172 341.2926 L358.0148 341.2213 L358.0824 341.1481 L358.1651 341.0024 L358.196 340.884 L358.2119 340.761 L358.2021 340.6335 L358.168 340.5101 L358.119 340.3574 L358.038 340.2363 L357.9692 340.1337 L356.4586 337.9582 L356.3299 337.7051 L355.7997 336.3107 L355.7486 336.0209 L355.752 335.814 L355.7562 335.5317 L355.8448 335.2652 L355.9437 335.1006 L356.0295 334.9843 L356.1495 334.8734 L356.4085 334.705 L357.4237 334.1104 L357.5501 333.9758 L357.6732 333.7868 L357.6583 333.5504 L357.6147 333.4205 L357.3454 332.968 L357.2052 332.773 L355.8602 331.1521 L355.5803 330.7284 L355.3912 330.1728 L355.3973 330.0529 L355.4219 329.5723 L355.7707 328.5344 L355.3618 327.1493 L355.0568 326.0547 L354.6358 324.869 L354.4784 324.3878 L354.4172 324.0252 L354.4051 323.7365 L354.4511 323.2948 L354.6454 321.8221 L354.8749 321.1022 L354.8923 320.8177 L354.7659 320.6019 L354.0422 319.5536 L351.5406 315.9427 L350.4216 314.9818 L349.3544 314.3377 L348.1366 313.2427 L346.7401 311.4538 L345.382 310.343 L343.3278 308.9851 L341.9671 307.5063 L341.5781 307.0363 L341.5184 306.6065 L341.6079 306.0435 L341.6888 305.0399 L341.6489 304.6607 L341.3367 304.1424 L340.6392 303.0604 L339.5087 301.4772 L340.2738 301.1379 L340.8314 300.9629 L341.4456 300.7546 L341.5683 300.5988 L341.5622 300.3489 L341.3314 299.794 L341.3802 299.4915 L341.7049 298.9907 L341.8207 298.7203 L342.0133 297.9737 L342.2238 297.5292 L342.4687 297.0996 L343.7615 294.9422 L344.8894 293.276 L344.9656 293.015 L344.6041 291.906 L344.4029 290.7753 L343.9681 289.5902 L343.5577 288.4758 L343.2967 287.8261 L343.245 287.4673 L343.5603 284.9286 L343.4489 283.0803 L343.5385 281.7702 L343.5277 281.5283 L343.419 281.2836 L342.9896 280.6151 L342.8645 280.248 L342.7177 279.2994 L342.407 277.6472 L338.5274 280.5976 L337.6998 281.0137 L337.2557 281.4908 L335.6004 283.5441 L335.2173 283.7897 L334.7458 283.9763 L334.4315 284.1628 L332.7912 285.4692 L332.3787 285.6559 L331.9662 285.6559 L330.2474 285.4594 L329.6481 285.5085 L328.2632 285.8916 L327.9784 285.921 L327.5953 285.8326 L327.3563 285.7972 L327.2107 285.898 L326.3126 287.245 L326.0069 287.7957 L325.7038 288.1184 L324.7154 289.0951 L323.8893 289.5885 L323.102 289.8529 L322.5608 290.1419 L322.2286 290.2035 L321.8103 290.1605 L321.1769 290.0436 L320.8201 290.0128 L320.3465 290.0928 L318.6735 290.6402 L318.2614 290.6955 L317.794 290.7509 L317.2834 290.8986 L315.2169 291.9503 L314.3189 292.3317 L312.9104 292.8606 L311.5818 293.205 L311.2788 293.2662 L310.936 293.2727 L309.7735 293.2727 L308.8017 293.2174 L303.5613 292.8053 L302.5309 292.8924 L300.2892 293.0821 L298.6347 293.1066 L297.5521 292.8483 L296.0022 292.344 L289.3076 289.685 L287.2375 288.8627 L286.4933 288.6658 L284.9494 288.0385 L283.1719 286.1502 L282.2431 284.7601 L281.2098 283.5594 L281.4548 283.3066 L281.7767 283.0884 L282.4995 282.5556 L283.2366 281.999 L283.4344 281.7934 L283.8474 281.3575 L283.9534 281.2207 L284.0067 281.1103 L284.0008 280.9858 L283.9736 280.8247 L283.8876 280.6779 L283.8004 280.5644 L283.6126 280.407 L283.3302 280.2487 L283.2344 280.2005 L282.9853 280.1517 L282.4762 280.0377 L282.0912 279.9031 L281.6752 279.6809 L281.4831 279.5595 L281.3542 279.5004 L281.2629 279.4866 L281.1659 279.4856 L280.9924 279.52 L280.4434 279.6264 L280.2664 279.6407 L280.0426 279.6364 L279.3801 279.4794 L278.9732 279.3587 L278.6227 279.2901 L278.4681 279.1335 L277.5344 278.1274 L277.1207 277.5853 L277.0616 277.4933 L277.0037 277.3415 L276.9696 277.1982 L276.9598 276.9303 L276.9063 276.1254 L276.8823 275.6314 L276.827 274.8943 L276.6087 274.034 L276.4273 273.4072 L276.4643 273.0564 L276.6379 272.419 L276.9915 271.4675 L277.2294 270.3039 L277.3964 269.9052 L277.885 269.4038 L278.7272 268.7225 L279.2672 268.3945 L279.6208 268.0668 L279.9486 267.6104 L280.2508 266.8004 L280.5336 265.836 L280.8293 265.3925 L281.2215 265.0647 L282.1343 264.6339 L283.7543 263.5668 L285.0914 262.5767 L285.9658 262.0303 L287.4828 261.1881 L288.0422 260.8474 L289.1415 259.9667 L290.0543 259.3496 L290.6457 259.0218 L291.4365 258.7131 L293.1658 258.0382 L293.5451 257.691 L293.7186 257.2282 L293.7636 256.4375 L293.6286 255.4668 L293.6608 255.2031 L293.8086 254.8431 L294.04 254.3867 L294.6122 251.7767 L296.4074 246.6644 L296.4158 246.5575 L296.3511 246.3752 L295.8359 245.9949 L295.4141 245.5681 L294.9205 244.8892 L294.0924 243.4748 L293.3519 242.0092 L293.033 241.4897 L292.601 240.888 L292.2511 240.3581 L291.432 239.9002 L289.8525 239.2007 L289.1877 238.8598 L288.8711 238.6177 L288.4616 238.3882 L288.0789 238.2501 L286.9945 237.9294 L286.9223 237.8807 L285.4741 237.3462 L285.0618 237.2048 L282.959 236.1891 L281.8916 235.5549 L281.3823 235.4664 L280.8943 235.3818 L280.6412 235.367 L280.2951 235.3598 L280.0193 235.4028 L279.6877 235.4831 L279.3804 235.5872 L279.0203 235.7666 L275.2443 238.1013 L274.3062 238.6177 L273.0729 239.1975 L272.5986 239.2398 L272.061 239.1448 L271.7447 239.166 L271.0279 239.4084 L270.4061 239.4084 L269.9844 239.3241 L263.8919 236.7415 L263.5651 236.6677 L263.3207 236.7023 L263.2488 236.7732 L260.9145 239.531 L260.64 239.8515 L259.9828 240.5044 L259.8877 240.5652 L259.8082 240.605 L259.6877 240.5721 L259.6031 240.5155 L258.906 239.69 L258.7467 239.5561 L258.5876 239.4903 L258.4355 239.4421 L258.3398 239.4311 L258.1921 239.4447 L258.0404 239.4739 L257.2586 239.8753 L256.8838 239.9547 L256.095 240.0985 L255.3236 240.3039 L254.4596 240.5381 L253.762 240.6686 L253.3828 240.7483 L253.3075 240.7959 L253.212 240.8801 L253.1032 241.054 L253.0733 241.2052 L253.0877 241.3258 L253.2461 241.6801 L253.3354 241.8781 L253.3529 241.9666 L253.3689 242.1052 L253.3636 242.3794 L253.287 242.6008 L253.2107 242.7682 L253.0756 242.9598 L252.943 243.1059 L252.8007 243.228 L252.5926 243.3608 L251.8853 243.6474 L251.4266 243.7176 L250.9041 243.673 L250.6022 243.5564 L250.3306 243.4372 L248.9225 242.6471 L248.6364 242.5162 L248.3108 242.3921 L247.3393 242.0902 L245.9477 241.7369 L244.2462 241.172 L242.6527 240.6783 L241.9072 240.5572 L240.8686 240.4615 L240.1231 240.1302 L237.7847 239.3721 L237.3386 239.2701 L236.5804 239.3146 L235.0894 239.1617 L234.6125 239.1297 L234.3021 239.0992 L234.0583 239.0705 L233.8496 239.0034 L233.6176 238.9324 L233.2851 238.8076 L232.4516 238.4354 L232.1022 238.2714 L231.7252 238.1359 L231.5223 238.0705 L231.2415 238.0328 L230.8831 237.9982 L230.3616 238.0339 L227.3856 238.6427 L225.5286 238.963 L225.3288 238.9776 L225.1495 238.9706 L224.9074 238.8878 L224.4996 238.6711 L224.3933 238.6323 L224.2384 238.5947 L224.0737 238.573 L223.8817 238.5809 L223.633 238.604 L223.1488 238.7603 L222.7701 238.862 L222.625 238.9054 L222.3804 238.9159 L222.1357 238.8814 L220.2241 238.4927 L220.0575 238.4703 L219.9204 238.4964 L219.7947 238.5398 L219.7121 238.5914 L219.6306 238.6547 L219.3201 239.0184 L218.8136 239.5677 L218.6091 239.8568 L218.5042 240.0733 L218.439 240.3234 L218.415 240.6545 L218.4082 241.086 L218.4082 241.2707 L218.359 241.4008 L218.2808 241.5002 L218.0578 241.6404 L217.5919 241.6204 L216.5517 241.4771 L216.2928 241.4427 L215.7639 241.3282 L215.2479 241.0478 L214.8401 240.7483 L214.4068 240.3022 L214.2411 240.1877 L213.7633 240.1047 L213.5339 240.1557 L213.4522 240.2487 L213.4191 240.3406 L213.4828 240.933 L212.8075 241.7806 L212.128 242.1221 L211.514 242.4305 L210.7593 243.0044 L210.3989 243.2906 L210.1316 243.4396 L209.682 243.6021 L209.5275 243.6833 L209.4049 243.7662 L209.3212 243.8423 L209.2245 243.9579 L209.0151 244.2947 L208.8982 244.4147 L208.6569 244.3927 L208.5086 244.3994 L208.4213 244.4075 L208.1402 244.4569 L207.9322 244.476 L207.7687 244.4362 L207.2639 244.2542 L204.9603 243.1948 L203.8398 242.635 L202.7991 242.1348 L201.0052 241.104 L199.4431 240.1699 L199.2586 240.0607 L198.7506 239.6668 L198.5681 239.5465 L198.3244 239.4436 L198.1671 239.418 L197.9542 239.434 L197.7898 239.4631 L197.6371 239.5429 L197.4599 239.6619 L197.1422 239.9549 L196.5602 240.5957 L196.3399 240.7808 L195.5956 240.4564 L194.2447 239.8675 L194.129 239.8142 L193.4611 239.5068 L193.0603 239.2492 L192.7184 239.0296 L191.8638 238.3064 L191.7814 238.2329 L191.4249 237.915 L191.3265 237.8259 L191.1041 237.7032 L190.9723 237.5255 L190.7794 237.2657 L190.5484 236.9643 L190.3974 236.6872 L190.2493 236.3221 L190.0191 235.8294 L189.9265 235.5791 L189.7874 235.1843 L189.6789 234.7766 L189.456 234.2575 L189.4047 234.0882 L189.519 233.6263 L189.5206 233.5076 L189.471 233.2714 L189.371 232.8654 L189.2948 232.6199 L189.2875 232.5046 L189.28 232.4409 L189.2544 232.3749 L189.1862 232.2474 L189.1642 232.1395 L189.067 231.9983 L188.853 231.2944 L188.8777 231.007 L188.8777 229.4258 L188.8241 228.8598 L188.753 228.5019 L188.6603 228.2198 L188.588 227.9995 L188.4185 227.609 L188.3168 227.4386 L188.0205 227.1066 L186.9283 226.3065 L186.5883 226.0175 L186.3182 225.7233 L185.988 225.2604 L185.5354 224.5121 L185.0806 223.7601 L184.6378 223.1303 L184.2704 222.7139 L182.59 221.038 L182.0696 220.4478 L181.4858 219.7492 L181.0451 219.1745 L179.9562 217.5914 L179.6533 217.0993 L179.4652 216.7359 L179.2767 216.2563 L179.0432 215.5177 L178.6415 213.9978 L178.1063 212.3654 L177.8188 211.7476 L177.3781 211.0317 L175.5665 208.385 L174.049 205.7243 L173.8555 205.4266 L173.5679 205.0652 L172.9447 204.3837 L172.2942 203.7538 L170.4225 202.0826 L168.1155 199.8968 L166.7915 198.458 L163.5389 194.5165 L163.1836 194.0328 L162.8884 193.5491 L162.2138 192.2823 L161.8366 191.7056 L161.3381 191.0825 L159.9211 189.5419 L159.0137 188.2527 L158.8157 188.0528 L158.4998 187.7896 L158.2638 187.6099 L156.3831 186.1784 L156.1265 186.0207 L155.5816 185.6633 L154.5901 185.056 L154.0084 184.6842 L153.4491 184.328 L153.1243 184.0698 L152.7846 183.693 L151.8153 182.3189 L151.1636 181.4822 L150.9242 181.1242 L150.7055 180.6387 L150.6399 180.4063 L150.4781 179.4629 L150.3753 179.1788 L150.2431 178.955 L150.0561 178.7502 L148.5276 177.49 L148.3177 177.335 L147.8552 177.0733 L147.3807 176.8771 L146.6559 176.6343 L145.0662 176.0369 L144.5305 175.8734 L144.1708 175.7942 L143.6221 175.6487 L142.8694 175.2922 L142.6416 175.1844 L142.1156 174.9368 L141.8152 174.823 L140.4962 174.6032 L138.9412 174.2707 L138.7638 174.2543 L138.2442 174.2065 L136.8645 173.8136 L136.5942 173.6428 L136.3896 173.1463 L136.1884 172.5316 L135.8583 172.1305 L134.8283 171.063 L134.6097 170.7152 L134.4282 169.9232 L134.3068 169.071 L134.262 168.0327 L134.3025 167.5093 L134.5334 167.0363 L134.5783 166.8266 L134.5434 166.4969 L134.4036 165.8827 L134.3387 165.4283 L134.3786 164.929 L134.4485 164.6443 L134.6533 164.2946 L135.3424 163.5556 L135.5772 163.1062 L135.697 162.6867 L135.6869 162.0925 L135.8018 161.7329 L135.9916 161.4831 L136.2813 161.2933 L137.4798 160.744 L137.7544 160.4993 L137.9142 160.2097 L138.7032 158.1073 L139.0478 157.6329 L139.4224 157.2734 L140.9604 156.0349 L141.325 155.5754 L141.8044 154.3121 L142.144 153.7578 L143.6121 152.1998 L144.842 150.355 L145.26 149.2534 L145.7145 148.4494 L145.9991 147.7202 L146.09 147.3999 L146.1952 147.0289 L146.2738 146.6466 L146.3537 146.1074 L146.3288 145.9375 L146.1889 145.7877 L145.7344 145.483 L145.26 145.1536 L144.4461 144.3195 L144.3912 144.1698 L144.4416 143.3011 L144.4851 142.8354 L144.4687 142.5866 L144.3575 142.1199 L144.3467 141.9173 L144.2429 141.2813 L144.2792 140.9458 L144.3632 140.7067 L144.4358 140.5543 L144.756 140.1914 L145.0762 139.9068 L145.1293 139.8274 L145.1873 139.721 L145.1989 139.6218 L145.1967 139.5479 L145.1503 139.4366 L145.0051 139.2094 L144.6493 138.8749 L144.4642 138.5477 L144.3433 138.0923 L144.2366 137.0819 L144.3005 136.3417 L144.4074 135.8152 L144.4145 135.5093 L144.0694 134.246 L143.7314 133.2891 L143.3878 131.6443 L143.3773 131.4603 L143.3929 131.2684 L143.4426 131.0555 L143.589 130.8057 L143.7995 130.568 L143.9306 130.4357 L144.3646 130.1796 L145.12 129.8636 L145.5928 129.6843 L146.4118 129.4505 L150.8471 127.8313 L151.331 127.7458 L151.8576 127.7458 L152.8254 127.8811 L153.8296 128.0464 L154.4549 128.3152 L155.3372 128.8345 L155.6574 128.9484 L155.8922 128.9343 L156.0204 128.8345 L156.1132 128.7007 L156.0963 128.5525 L156.0772 128.2867 L155.8382 127.3522 L155.7886 127.1071 L155.6787 126.465 L155.7641 126.1875 L156.1342 125.5684 L156.2338 125.1985 L156.2125 124.0172 L156.2765 123.0494 L156.2231 122.6311 L156.2163 122.6115 L156.1735 122.4773 L155.934 121.8512 L155.4012 120.872 L155.096 120.5454 L154.9388 120.4024 L154.7474 120.2838 L154.544 120.1849 L154.3641 120.1183 L154.1789 120.0683 L153.9056 120.0389 L153.6081 120.0252 L152.8959 120.0116 L152.6332 119.9541 L152.4734 119.8743 L152.3486 119.7761 L151.6868 119.1642 L151.2797 118.8768 L150.9569 118.7173 L150.6333 118.5653 L149.6446 118.0684 L147.9866 116.9512 L147.1896 116.2326 L146.8836 115.7843 L146.3393 114.6905 L146.2023 114.3547 L145.9736 113.6406 L145.859 113.4075 L145.2217 112.5425 L144.8801 111.9335 L144.8507 111.8437 L143.2777 106.8496 L142.9638 105.8478 L142.6756 104.9123 L141.8119 104.9294 L141.136 104.9139 L140.9905 104.9106 L140.3565 104.9291 L139.9735 104.9403 L139.4425 104.8109 L139.1868 104.825 L139.0997 105.4107 L138.5035 106.9568 L138.3159 107.3823 L138.1748 107.5594 L138.0257 107.6559 L137.9738 107.6895 L137.8282 107.7756 L137.6014 107.864 L137.3204 107.9319 L136.8788 108.0007 L136.5467 108.0439 L136.2317 108.0193 L135.7029 107.8949 L134.5767 107.4345 L134.4388 107.3967 L134.3029 107.3597 L134.0416 107.3909 L133.7928 107.4967 L133.5687 107.6895 L132.2124 109.0149 L132.0173 109.177 L131.7309 109.3462 L131.3793 109.4765 L131.0799 109.5063 L130.6755 109.4503 L124.9016 108.6041 L124.0678 108.5793 L118.213 109.1269 L117.2414 109.3384 L116.7674 109.4921 L116.3511 109.6538 L116.1054 109.7372 L115.8312 109.8223 L115.5774 109.866 L115.2338 109.8822 L112.3947 109.9348 L110.843 109.9906 L110.224 109.9605 L107.284 109.6588 L106.9402 109.591 L105.7691 109.2139 L105.4315 109.1374 L105.1345 109.0833 L104.3878 108.9961 L102.9113 108.8801 L102.2102 108.8208 L100.7292 108.5917 L100.4617 108.4735 L100.0075 108.0441 L99.5347 107.7953 L99.3169 107.5651 L99.0369 107.1669 L98.8034 107.0256 L98.5768 106.989 L98.3502 107.0204 L94.1745 108.1087 L93.7109 108.1935 L92.9208 108.3055 L92.7932 108.3151 L91.0787 108.4611 L90.6088 108.4957 L89.5376 108.494 L88.9344 108.5429 L88.2419 108.5979 L87.8303 108.617 L87.3832 108.5669 L86.6615 108.4549 L84.6455 107.9883 L83.9611 107.9509 L83.1772 108.0939 L82.9716 108.2243 L82.7859 108.465 L82.6215 108.4285 L82.4934 108.2274 L82.3446 108.0708 L81.7181 107.7889 L80.7233 107.7627 L80.5797 107.6871 L80.2951 107.4443 L80.222 107.2746 L80.0053 106.4964 L79.8435 106.0214 L79.504 105.3555 L79.316 104.7445 L79.3082 104.1885 L79.1359 103.8176 L78.5615 103.1284 L78.0054 102.5592 L77.3944 102.0605 L76.5119 101.5149 L74.948 100.8074 L74.5385 100.6518 L74.0603 100.4653 L73.7314 100.2747 L72.2954 99.3087 L72.1621 99.2406 L71.9742 99.1755 L70.6635 98.3974 L70.4782 97.5568 L69.956 96.0634 L69.8385 95.6274 L69.7785 94.7266 L69.4547 94.0738 L69.204 93.2228 L68.8695 92.1293 L68.8675 91.2888 L69.0452 90.2422 L69.2455 89.3311 L69.247 88.8096 L69.3833 88.7079 L69.464 87.1285 L69.4178 86.4477 L69.3687 85.9002 L69.3003 85.4403 L68.9443 85.3152 L68.6789 85.2643 L68.3945 85.2223 L68.2627 85.2052 L67.8255 85.1807 L67.0447 85.173 L66.7125 85.1616 L66.3676 85.132 L66.0562 85.0777 L65.7528 85.0067 L65.4285 84.8938 L65.1396 84.7714 L64.8819 84.6339 L64.6082 84.4636 L63.4097 83.6332 L63.0951 83.4334 L62.8079 83.2681 L62.574 83.1533 L62.2756 83.0161 L62.0063 82.9182 L61.7334 82.8355 L61.4405 82.7564 L61.1876 82.7005 L60.8857 82.6505 L60.6197 82.6238 L60.3156 82.6049 L60.0607 82.6012 L59.7458 82.613 L59.5242 82.6361 L59.4075 82.6466 L59.2425 82.6671 L58.9026 82.7312 L58.5432 82.8191 L57.0192 83.2771 L56.6698 83.3651 L56.4085 83.4139 L56.2372 83.4343 L55.9304 83.462 L55.6314 83.4582 L55.3381 83.4322 L55.121 83.392 L55.0392 83.3763 L54.8249 83.3207 L54.5724 83.2317 L54.2959 83.1183 L53.2727 82.615 L52.9686 82.4833 L52.58 82.3613 L52.2855 82.2946 L51.9711 82.2577 L51.6636 82.2407 L51.3588 82.2563 L51.0593 82.2884 L50.7875 82.333 L50.51 82.4109 L50.2685 82.4932 L50.0295 82.599 L49.8069 82.711 L49.5857 82.8503 L49.3593 83.014 L49.1171 83.216 L48.8676 83.4506 L48.3386 83.9911 L48.0409 84.2769 L47.8091 84.4667 L47.5409 84.653 L47.2588 84.8169 L47.027 84.9248 L46.7379 85.0361 L46.4592 85.119 L46.2589 85.1633 L45.9784 85.2052 L45.7605 85.2226 L45.5238 85.2261 L45.2389 85.2097 L44.1031 85.1146 L43.7612 85.0972 L43.3919 85.1056 L43.0802 85.1442 L42.7846 85.2035 L42.4768 85.2931 L42.1918 85.4089 L41.8943 85.5522 L41.6211 85.7176 L41.368 85.9002 L41.1609 86.0806 L40.9639 86.2676 L40.7933 86.4541 L40.6082 86.7109 L40.4501 86.9731 L40.3085 87.2633 L40.2234 87.4675 L40.1366 87.7081 L40.0559 87.9897 L40.013 88.2481 L39.9719 88.5375 L39.9366 88.9056 L39.8451 90.1027 L39.8127 90.4793 L39.7762 90.803 L39.7228 91.0922 L39.6576 91.3588 L39.568 91.6321 L39.4532 91.9349 L39.2947 92.2861 L38.793 93.2979 L37.7043 95.4752 L37.4474 96.001 L37.2052 96.4587 L37.0259 96.7574 L36.8464 96.9969 L36.633 97.2587 L36.4095 97.4789 L36.157 97.6859 L35.9048 97.8468 L35.6226 98.0119 L35.0411 98.3338 L34.5887 98.5973 L34.3006 98.78 L34.0776 98.9506 L33.8813 99.1078 L33.6923 99.2961 L33.5506 99.4476 L33.3984 99.6344 L33.2084 99.9074 L33.0526 100.1751 L32.9237 100.4354 L32.8244 100.6864 L32.7311 100.9875 L32.6586 101.298 L32.6294 101.4664 L32.6032 101.7321 L32.5965 102.0238 M186.3669 95.2498 L186.4917 95.4701 L186.9924 96.0396 L187.5403 96.5485 L187.6578 96.6319 L187.9219 96.9097 L189.2854 98.2759 L192.4353 101.3419 L192.731 101.5754 L194.4244 102.366 L195.0573 102.6266 L197.0014 103.2199 L200.1594 104.1376 L202.3746 104.7659 L206.4214 105.9304 L221.2115 110.1907 L225.4348 111.4204 L226.9564 111.9931 L226.983 111.8453 L224.3407 109.6226 L224.3682 109.5106 L224.5058 108.6845 L224.5347 108.2801 L224.5989 108.1881 L224.6891 108.1389 L225.1855 108.3896 L225.8201 108.5374 L226.0866 108.5608 L226.6197 108.5267 L227.2277 108.6458 L228.0981 108.7199 L228.7315 108.9377 L231.1812 109.7008 L231.3189 109.8467 L233.071 110.6209 L234.3424 111.2507 L235.1383 111.7584 L235.3829 112.4793 L235.8532 112.6421 L236.3112 112.9666 L236.8868 113.2817 L237.2717 113.4443 L237.5455 112.9235 L238.4351 113.464 L238.9232 113.8165 L238.833 113.8952 L239.4401 114.5498 L239.8687 115.1392 L239.8669 115.2396 L240.2439 115.5542 L240.7159 115.8544 L240.6048 116.058 L240.7153 116.1183 L240.7922 116.0721 L241.2592 116.3423 L241.4078 116.1449 L242.5929 116.8595 L242.7579 116.7117 L243.0292 115.8799 L243.3787 116.0933 L243.8836 116.2846 L244.1738 116.4772 L244.3545 116.4011 L244.6245 116.1009 L244.6064 116.0756 L244.6453 116.0337 L244.6685 116.056 L244.7064 116.0074 L244.5354 115.8437 L244.8347 115.5732 L245.1269 115.8228 L245.3296 115.987 L244.971 116.373 L245.6296 117.1017 L245.469 117.2851 L244.7501 117.4291 L244.0938 117.9961 L245.3393 119.3651 L245.0595 119.824 L245.125 119.8438 L244.9963 120.1198 L244.9207 120.3681 L244.7684 120.6983 L244.5806 120.9986 L244.4428 121.103 L244.3121 121.2172 L244.0944 121.2948 L245.8737 122.4521 L245.3009 123.2579 L245.8328 123.6122 L246.0983 123.7666 L246.3446 123.8484 L246.3166 123.9082 L246.9101 124.1287 L247.8795 124.511 L248.1853 124.6891 L248.7116 125.2876 L247.7948 126.3551 L247.4993 126.6864 L247.0091 127.1637 L245.2312 127.4683 L244.5628 128.3126 L245.1925 128.843 L245.9506 129.4817 L246.8027 130.1752 L248.0969 131.2083 L248.2462 131.2908 L249.2924 132.1609 L250.5136 133.1596 L251.5114 133.9986 L251.8687 134.3058 L252.6817 134.8465 L253.4708 135.2921 L253.5064 135.2723 L255.2387 136.1642 L256.0818 136.5684 L257.8785 137.4004 L261.1934 138.9877 L261.5641 138.9538 L263.1214 139.5808 L264.6242 140.3174 L265.1965 140.1993 L265.4695 140.0494 L265.6109 139.8188 L265.8055 139.4184 L265.8886 139.3078 L266.0415 139.1705 L266.2783 139.0103 L266.7574 138.8095 L267.0795 138.7106 L267.8012 138.646 L268.4287 138.3691 L268.9426 138.1639 L269.2067 137.8835 L269.5558 137.3542 L269.6304 137.133 L269.6644 136.9151 L269.6561 136.7837 L269.553 136.3769 L269.5741 136.036 L269.6449 135.7446 L269.7045 135.5537 L269.9084 135.2094 L270.0478 134.9188 L270.1754 134.5071 L270.1536 134.431 L270.2225 134.4129 L270.3088 134.3621 L270.4782 134.3226 L270.7122 134.3538 L271.273 134.5273 L272.0196 134.8701 L272.624 135.1591 L273.2853 135.5162 L275.9045 137.3346 L277.2652 136.3655 L277.6274 135.9836 L279.1018 137.3725 L279.4369 137.6909 L281.7214 135.7907 L280.5367 133.137 L280.3931 132.8154 L280.0386 132.1526 L280.9306 132.0143 L282.7346 132.3056 L284.1238 132.1199 L284.5217 131.9908 L284.9192 131.8043 L285.2383 131.6575 L285.6191 131.5282 L286.5955 131.3407 L287.632 131.1377 L288.9566 130.8488 L291.5086 130.409 L291.9761 129.9761 L292.0103 129.5753 L291.9978 129.2709 L291.91 128.9861 L291.7435 128.6728 L291.544 128.3438 L291.5992 128.2573 L292.1524 128.6247 L293.2219 128.9756 L294.0035 129.301 L294.9752 129.6902 L296.1513 130.1132 L297.1473 130.4851 L298.0831 130.8751 L299.8581 131.5314 L300.6963 131.8959 L302.0952 132.3972 L303.8497 133.1045 L305.2406 133.6684 L309.4634 135.3992 L309.4191 135.5818 L308.9099 136.6234 L307.0479 135.7251 L305.5466 135.1641 L305.0114 135.3145 L304.8977 135.4578 L304.7842 135.5429 L304.1893 135.8371 L304.0757 135.9628 L304.0177 136.1824 L304.1067 136.685 L303.4952 136.8709 L303.1871 137.6319 L302.8649 138.4082 L302.397 139.5353 L301.8097 140.9778 L301.6742 140.9258 L301.3479 141.7229 L301.6888 141.8879 L301.4142 142.5951 L301.8047 142.8255 L301.9877 143.0067 L302.1885 143.2673 L302.3939 143.0152 L302.5389 142.9773 L303.5037 143.8288 L303.033 144.1221 L304.1104 145.2275 L303.6 145.754 L300.8565 144.0475 L299.1313 143.2089 L298.4805 142.938 L297.2246 142.391 L297.6557 141.3543 L297.549 141.2823 L296.0644 141.0047 L295.191 140.9091 L294.2391 141.0803 L293.2762 141.2673 L293.0126 141.3405 L292.3184 141.8653 L291.5768 142.4418 L291.4383 142.8502 L291.1415 143.6529 L291.131 143.8109 L291.1302 143.8775 L291.1963 143.9156 L291.1511 143.9881 L291.0889 143.9836 L291.1012 144.0689 L291.7072 143.8555 L292.1079 144.9335 L292.4391 145.7662 L292.5444 146.06 L292.7203 146.4112 L292.8735 146.5648 L293.1867 147.0117 L293.251 146.9764 L293.4041 147.2074 L293.3497 147.2453 L293.6977 147.5842 L294.1633 148.044 L294.1889 148.0278 L294.3666 148.135 L294.5414 148.3134 L294.6539 148.4854 L294.8161 148.2803 L294.908 148.3366 L294.9643 148.2546 L295.239 148.3809 L295.289 148.2822 L295.5887 148.4119 L295.762 148.4847 L295.9365 148.5409 L296.3417 148.6638 L297.0649 148.8533 L297.5332 149.0036 L297.2431 149.1337 L297.2987 149.2814 L297.0051 149.2568 L296.7972 149.1853 L296.7547 149.4486 L296.6391 149.402 L296.4671 149.3352 L296.2131 149.2756 L296.0394 149.2813 L295.7632 149.1598 L295.5948 149.1228 L295.5904 149.1791 L295.3486 149.0903 L295.1003 149.0496 L295.1067 148.8934 L294.9305 148.8958 L294.842 148.9659 L294.2482 149.1166 L294.2429 149.4063 L294.1576 149.7802 L293.896 150.483 L293.5425 151.2581 L293.5209 151.7377 L293.3872 152.0055 L293.3226 152.0123 L293.1746 151.9263 L293.1326 152.0028 L293.2707 152.0822 L293.2171 152.2167 L293.3251 152.2115 L293.7373 152.2988 L293.9072 152.438 L294.133 152.4321 L294.2363 152.3705 L294.2705 152.3083 L294.278 152.242 L294.3006 152.2451 L294.2955 152.5985 L294.3361 152.9773 L294.3817 153.365 L294.4207 153.3646 L294.4639 153.5513 L294.5926 153.5461 L294.5969 153.6176 L294.7899 153.6062 L295.0674 153.6868 L295.0958 153.7227 L295.5861 153.7203 L296.2182 152.8709 L296.4665 153.0361 L296.4268 153.3603 L296.5813 154.3092 L296.7023 154.5288 L297.2047 154.9786 L297.5459 155.4032 L297.6623 155.4342 L297.7752 155.5706 L298.032 155.717 L298.8675 156.1089 L299.9068 156.9803 L300.7409 157.6049 L301.6784 158.9794 L302.2209 159.4155 L302.3682 159.6966 L302.5411 159.5845 L302.5222 159.5473 L302.5608 159.5063 L302.6131 159.5707 L302.5588 159.6087 L302.5512 159.5993 L302.3855 159.7298 L302.5309 160.2032 L302.2793 161.3104 L301.8727 162.4198 L301.5266 163.4313 L301.5443 163.5136 L301.5211 163.6105 L301.4235 163.6971 L301.1829 163.7643 L301.0098 163.7872 L300.0615 163.7459 L299.417 163.6276 L298.0617 163.1243 L297.4232 162.8699 L297.0153 163.4221 L296.2985 163.0726 L295.9857 164.3933 L295.6813 165.0224 L295.8249 166.152 L294.3428 166.2365 L295.2879 167.7774 L296.0495 166.9755 L299.6858 171.7204 L299.9087 172.1635 L299.9243 172.6074 L300.5814 173.3396 L300.6625 173.2919 L300.7338 173.3723 L300.6634 173.4352 L300.8568 173.6332 L301.2452 174.7201 L301.9678 175.2512 L302.562 175.3209 L303.187 175.47 L303.8173 175.8896 L304.5093 176.3542 L305.0182 176.6929 L305.5636 176.033 L306.1767 175.6373 L306.2711 175.753 L306.1338 175.882 L306.0971 175.887 L306.0502 176.0771 L306.0321 176.1776 L306.0558 176.3064 L306.1243 176.4336 L306.2481 176.5495 L306.5607 176.3881 L306.7422 176.557 L306.6207 176.7142 L306.6512 176.7786 L306.5671 176.8303 L306.6918 177.041 L306.8471 177.1715 L307.0246 177.3485 L307.1072 177.4767 L307.2164 177.5284 L307.4429 177.6055 L307.9536 177.6919 L308.5226 177.6807 L309.4558 177.5285 L309.9675 177.3813 L310.1809 177.2619 L310.2488 177.2002 L310.5031 176.8454 L310.7046 176.5842 L311.1844 176.2026 L311.2342 176.1767 L311.4441 176.0159 L311.3302 175.8422 L311.3686 175.8176 L311.4534 175.9435 L311.7532 175.73 L311.782 175.7573 L311.8395 175.6794 L312.2419 175.5547 L312.2598 175.563 L312.3111 175.4972 L312.3097 175.4678 L312.3966 175.4514 L312.4275 175.5692 L312.3761 175.5828 L312.333 175.5747 L312.3234 175.5513 L312.305 175.5879 L312.4063 176.1256 L312.4487 176.1187 L312.4487 176.0989 L312.5137 176.0872 L312.5582 176.1661 L312.5308 176.1673 L312.5342 176.1981 L312.4904 176.2043 L312.4884 176.1735 L312.4623 176.1762 L312.4596 176.155 L312.426 176.1605 L312.4826 176.5056 L312.7352 176.4551 L312.7769 176.6615 L312.5425 176.7149 L312.5605 176.8084 L312.5962 176.8008 L312.5934 176.787 L312.6085 176.7831 L312.6085 176.796 L312.6533 176.7888 L312.6516 176.7748 L312.6694 176.7714 L312.6718 176.7841 L312.7139 176.7765 L312.7128 176.76 L312.7286 176.7581 L312.7297 176.7724 L312.7711 176.7628 L312.7693 176.7499 L312.791 176.7462 L312.7923 176.7631 L312.769 176.7679 L312.7718 176.7963 L312.7118 176.8091 L312.7101 176.7957 L312.5665 176.8278 L312.5665 176.8358 L312.5534 176.8382 L312.561 176.8826 L312.5777 176.8826 L312.5797 176.9287 L312.6368 176.9272 L312.8005 177.7659 L312.1959 178.0254 L312.0566 178.2826 L312.1152 178.786 L312.4058 179.4631 L312.1842 179.5653 L312.4002 180.2235 L312.7875 180.449 L313.337 180.2755 L314.0608 180.0195 L314.2981 180.0041 L314.4237 179.8928 L314.5357 179.9188 L314.5943 179.9029 L314.6373 179.7497 L314.693 179.7905 L314.6694 179.9205 L314.8158 180.4264 L314.6752 180.6859 L314.2879 181.2548 L314.2911 181.5852 L314.4266 181.9805 L314.7935 182.3 L315.6262 181.6076 L315.6741 182.3587 L315.4774 183.5308 L315.1802 183.4948 L315.2536 184.5943 L315.3267 184.5334 L315.6553 184.5293 L315.651 184.3983 L315.7846 184.4 L315.786 185.0312 L315.9492 185.4655 L315.9439 185.5485 L318.2831 186.7909 L318.148 186.4321 L318.2145 185.3912 L318.3608 184.521 L318.6196 183.8391 L319.0769 183.0807 L319.0607 182.2886 L319.4418 181.5971 L318.8904 180.465 L318.648 179.58 L318.2072 179.1893 L317.85 178.9509 L317.6401 178.6842 L317.3299 178.4572 L316.8591 178.3461 L316.4232 178.0593 L316.1559 178.025 L315.7846 178.1607 L315.6656 178.1178 L315.5309 178.28 L314.8612 177.3765 L314.5259 177.413 L314.4364 177.214 L314.6203 176.9206 L314.3652 176.8163 L314.3969 175.6456 L314.572 175.4492 L314.5472 175.126 L314.3325 174.4305 L314.339 173.8601 L314.3708 173.4006 L315.2631 172.0917 L316.41 170.9356 L316.7069 170.5157 L316.7793 170.4046 L316.9157 170.3129 L317.2236 170.2004 L317.8706 170.3032 L318.027 170.2414 L318.3071 169.9917 L318.9193 169.902 L319.258 169.665 L319.8192 169.79 L319.6928 169.7438 L319.7359 169.6223 L320.0499 169.7399 L320.017 169.834 L320.3817 169.9568 L320.7758 170.053 L321.175 170.0586 L321.2683 170.2292 L321.8604 170.4363 L322.1411 170.9897 L322.924 170.9261 L323.3537 171.3187 L323.9832 171.7498 L324.6939 171.9778 L324.7975 172.2593 L323.7967 172.2479 L323.563 172.2803 L323.5649 172.1913 L323.4567 172.0971 L323.3628 172.1887 L323.2553 172.7966 L323.5894 173.7137 L324.0197 174.1915 L325.2969 175.1916 L326.7603 175.8446 L326.7688 176.5996 L326.3751 177.3039 L326.6864 177.4232 L327.3925 177.8921 L327.5846 178.1178 L327.9121 178.3873 L328.1013 178.5121 L328.4761 177.5733 L329.0399 177.7938 L329.7481 178.2504 L329.9974 178.5815 L330.5394 178.8521 L331.2142 178.9716 L331.8775 179.1952 L332.4719 179.6898 L332.8441 179.9584 L334.0303 179.8986 L335.3279 180.752 L335.8001 181.4191 L335.9843 181.7529 L336.6184 183.1681 L340.5779 184.3261 L343.1845 182.8045 L343.7039 183.7756 L344.3329 184.5985 L343.2974 185.459 L341.7888 187.7793 L341.4122 188.101 L341.0079 188.4019 L340.3523 188.7278 L338.7411 189.5542 L337.0903 190.4863 L335.8001 191.2397 L334.3632 192.2191 L332.7443 193.3212 L332.3391 193.5619 L332.9579 194.0997 L333.5754 194.6247 L332.9634 194.9965 L332.8843 195.1067 L332.7521 195.145 L332.5777 195.2774 L332.7853 195.2297 L332.3892 195.6056 L332.7802 195.838 L333.6065 196.0053 L335.0607 196.3461 L335.2331 196.3785 L335.3442 196.4785 L335.5187 196.912 L335.4917 197.3537 L335.384 197.5735 L335.2176 197.8249 L334.7018 198.1027 L333.6665 198.9315 L333.1444 199.574 L332.8608 200.2703 L333.0258 200.93 L334.0957 202.9573 L334.266 203.4827 L335.4535 204.2068 L336.9991 205.4361 L337.4343 205.6846 L337.3861 205.7706 L336.9347 205.5176 L335.8668 206.4632 L332.9269 205.0495 L332.3246 207.0316 L332.1518 207.7635 L332.1933 207.7647 L332.4719 207.1028 L333.4021 207.5277 L333.4968 207.7737 L333.4203 207.9726 L333.4797 208.1468 L332.4818 210.537 L332.5643 210.8629 L332.9082 212.7724 L332.9212 213.2126 L332.6678 213.3626 L331.3781 212.1415 L331.315 211.675 L329.7878 213.0048 L329.7827 213.279 L330.5692 214.534 L330.7899 215.0407 L330.5221 217.6 L330.385 217.8852 L330.3742 217.8308 L327.8872 218.9016 L328.8788 220.9974 L329.7098 221.8503 L329.8742 221.9821 L330.1371 222.0689 L330.6714 222.0689 L330.8279 221.9109 L331.0981 221.537 L331.6503 220.9575 L332.2067 221.5461 L332.9347 222.5422 L333.1637 222.907 L333.318 223.0532 L333.3901 223.2642 L333.536 223.4934 L333.6288 223.6797 L333.8234 224.2117 L334.0671 224.7023 L335.306 226.0127 L335.4761 226.3344 L335.5583 227.2575 L335.8336 228.1991 L336.1985 228.6564 L336.6975 229.451 L336.8396 229.628 L337.3249 230.3707 L338.0525 231.1205 L338.7463 232.4012 L338.7947 232.6852 L338.7351 232.972 L338.7352 233.0536 L338.8707 232.9087 L338.7665 233.8405 L338.4773 233.9494 L337.9731 234.4461 L337.8337 235.1359 L337.923 235.2381 L338.0844 235.4014 L338.6962 235.8353 L339.1201 236.0649 L339.5359 236.2306 L340.259 236.4063 L340.7163 236.4551 L341.9906 236.0388 L342.6621 235.8291 L343.5668 235.4353 L343.452 235.1341 L344.1401 235.1267 L345.8179 233.707 L346.3065 233.3008 L348.7985 231.452 L350.3248 229.2495 L350.7465 228.4901 L352.693 226.0768 L353.9553 224.3215 L354.6834 223.0983 L355.2307 221.3415 L356.2108 221.807 L357.1887 222.0728 L357.8532 222.2726 L358.4762 222.7101 L358.7938 223.2213 L358.8536 223.334 L358.9959 223.4996 L359.108 223.6207 L359.7785 224.0944 L360.6145 224.8132 L361.2362 225.3895 L362.1422 226.2262 L362.7964 226.5278 L363.8923 227.2616 L364.852 227.8858 L367.3606 228.9326 L367.9871 229.3434 L369.5587 230.0889 L369.5953 230.1921 L369.5857 230.3707 L369.6413 230.5524 L369.7395 230.7971 L370.6313 231.734 L371.8893 232.8406 L372.1838 233.4121 L372.5983 234.007 L373.0067 234.3418 L373.0052 234.5237 L373.1116 235.1468 L373.1233 235.7733 L373.1513 236.0546 L373.2545 236.3646 L374.0134 237.345 L373.9867 237.9306 L373.8252 238.2931 L374.3063 238.7502 L374.6722 239.0504 L375.7138 239.5451 L376.3856 240.4146 L376.5762 240.7932 L376.7173 240.8075 L377.042 241.4937 L377.3508 241.9031 L378.3661 242.7088 L379.6858 243.3943 L379.8868 243.4735 L380.2024 243.5514 L380.5911 243.4655 L381.1119 243.5694 L381.3903 243.743 L381.6085 243.9763 L381.9491 243.9852 L382.3248 243.9952 L382.7737 244.5887 L382.9167 244.7571 L383.149 244.9167 L382.9013 244.4873 L382.8531 244.4189 L382.822 244.1648 L382.7643 243.7375 L383.0168 243.1757 L383.4453 242.29 L383.6127 242.0281 L383.8004 242.5208 L384.2817 242.9646 L385.1868 243.1922 L387.5544 243.3334 L388.6852 242.9803 L389.3798 242.5791 L389.8877 242.1869 L390.4061 242.5065 L391.2474 240.3425 L391.334 240.0155 L393.2367 240.2685 L392.9411 241.3213 L393.5259 241.5964 L393.5332 241.757 L393.4623 241.8442 L393.3421 241.9225 L393.1962 242.0591 L392.8623 242.5179 L392.7868 242.6417 L392.5205 243.373 L392.1064 244.0805 L391.74 244.6205 L391.5876 244.7856 L391.6059 244.858 L391.8097 244.8021 L391.9767 244.7636 L392.8361 244.4789 L393.5791 244.3561 L393.9341 244.4825 L395.2245 244.6277 L395.6203 244.7552 L395.8637 244.7794 L396.6319 244.7165 L396.8494 244.7323 L397.1333 244.8221 L397.4938 245.1355 L397.5908 245.1886 L397.7664 245.2003 L397.8399 245.1709 L397.8874 245.2058 L397.6617 245.3109 L397.0221 246.0683 L397.5469 246.3392 L398.0484 246.535 L398.424 246.7689 L398.7557 246.9559 L399.5596 247.3063 L400.0977 247.4652 L400.7009 247.4357 L401.0864 247.3266 L401.1205 247.3531 L403.8111 246.7098 L403.975 246.7187 L404.2639 246.7899 L404.8222 246.9031 L405.6785 246.921 L406.0272 246.9005 L406.4171 246.8107 L406.6984 246.7211 L407.0679 246.5582 L407.5496 246.236 L407.6088 246.191 L408.3294 245.6419 L408.5677 245.4425 L408.754 245.3438 L408.9467 245.2697 L409.1933 245.2284 L409.4437 245.2126 L409.6606 245.233 L409.8808 245.2671 L410.1264 245.4974 L410.3155 245.585 L410.7801 245.784 L410.7891 245.9342 L410.7643 246.0214 L410.7032 246.2359 L410.6811 246.266 L410.518 246.493 L410.3484 246.8869 L410.4248 246.9697 L411.6741 247.4754 L412.3716 247.6901 L414.2889 248.3581 L415.0688 248.6795 L415.6358 249.0052 L417.1954 249.4963 L417.6117 250.1229 L419.1791 250.6613 L419.5377 250.7786 L419.6583 250.9589 L419.7957 251.3971 L423.4431 252.7733 L425.064 253.3629 L425.0412 253.5917 L425.602 253.8851 L426.3414 254.247 L426.6438 254.4133 L426.9382 254.7312 L427.5136 254.9833 L427.959 255.1983 L428.2954 255.3115 L428.4964 255.4744 L428.5765 255.62 L428.5866 255.6386 L428.6625 255.8235 L429.1986 256.0999 L429.8333 256.2265 L431.6474 257.5501 L433.1875 257.8525 L434.1776 254.8803 L434.0584 252.6505 L439.5313 254.0322 L448.3051 256.7636 L448.242 256.2488 L448.3208 256.0225 L448.0614 253.2059 L449.0729 251.6058 L450.0241 250.835 L455.145 253.4278 L456.1208 252.8997 L456.5962 252.5494 L456.8773 252.4018 L457.1885 252.2384 L457.3269 252.3096 L457.7533 252.5986 L457.9419 252.6552 L458.1029 252.7043 L458.841 252.6992 L459.6317 252.4348 L460.2335 252.1386 L461.2087 251.4097 L461.3872 250.9778 L461.0556 249.4513 L461.8582 249.3812 L462.4539 249.4726 L462.405 250.5748 L465.8744 251.0141 L466.6596 249.9191 L468.3589 248.7378 L469.3842 248.3585 L470.6448 247.4916 L472.8238 244.611 L472.832 244.338 L472.7108 243.7633 L472.6626 243.4196 L471.8433 238.1452 L471.7812 237.7882 L471.7115 237.1315 L471.6954 236.8389 L471.715 236.5066 L471.7329 236.2077 L471.9377 235.0637 L472.786 230.0328 L472.8159 229.8599 L473.043 228.4746 L473.1644 227.6883 L473.2465 226.7893 L473.4312 225.874 L473.345 225.7713 L473.4887 225.4388 L473.5093 225.135 L473.6283 224.778 L473.4272 224.8026 L473.3672 224.4559 L473.6509 224.5388 L474.1831 221.0206 L474.3672 219.8478 L474.4629 219.345 L475.026 215.4992 L475.0506 215.3128 L475.2621 215.0564 L475.467 214.9151 L476.5797 214.3775 L476.6742 214.3385 L477.8051 213.9152 L478.5376 213.6173 L478.8278 213.369 L479.2173 212.8457 L479.2987 212.617 L479.4016 212.3282 L479.4035 211.7944 L479.1459 210.9326 L472.7913 193.2613 L472.6944 192.9336 L471.6594 190.8464 L469.909 186.0026 L468.6161 181.9353 L468.4848 181.4223 L465.9164 181.4805 L465.0355 181.563 L464.0131 181.5978 L463.6038 181.4771 L462.4993 176.5033 L461.3054 176.6596 L461.4574 175.1923 L461.6062 173.6137 L461.658 172.7136 L461.7737 168.5274 L461.8446 168.1658 L462.1162 168.0367 L462.1279 167.9664 L464.9781 167.4413 L464.9411 166.9418 L464.3631 167.0642 L462.143 166.7606 L462.61 165.5113 L462.9221 164.9004 L463.3468 164.4823 L463.5222 163.9008 L464.2963 163.2851 L464.6134 162.8524 L464.9476 161.9728 L465.1132 161.3603 L465.2124 160.7544 L465.3346 159.6311 L465.4792 158.418 L465.5858 157.0865 L466.0025 155.6399 L466.6012 154.6614 L466.7919 154.1771 L467.2109 153.0426 L467.4653 151.8395 L467.6735 151.487 L468.151 151.0155 L470.0956 149.7893 L470.5394 149.5962 L464.3745 143.845 L462.8618 142.2744 L461.5016 140.5618 L461.3834 140.5942 L454.591 132.8034 L447.73 122.1718 L440.5467 108.4886 L439.7469 107.0059 L439.1373 105.7725 L438.8237 105.2818 L436.6128 102.5172 L436.5051 102.7053 L436.2879 102.7968 L435.6218 102.7701 L435.1026 102.4272 L433.7483 101.1171 L432.7906 100.2773 L431.6415 99.4173 L431.3462 100.1403 L430.2395 100.337 L429.3992 100.0211 L428.4748 100.1307 L428.2277 100.5627 L426.2479 100.8832 L425.5725 100.8303 L424.8967 100.6682 L424.0608 100.3497 L423.9932 99.9111 L422.0329 99.6726 L421.9588 99.9608 L421.7147 101.9463 L421.9363 101.9694 L421.8421 102.8906 L421.6043 102.8839 L421.5384 103.418 L421.4103 103.5178 L420.9956 107.0481 L420.94 107.05 L420.6175 109.8493 L420.509 109.84 L420.2485 112.1907 L420.0137 112.3594 L418.9941 112.2634 L418.9649 112.4326 L411.7421 111.6433 L407.1738 110.5239 L407.507 107.1825 L407.5443 106.7998 L406.3216 106.6796 L399.289 107.4519 L399.1423 107.7312 L398.7077 107.7977 L397.8211 107.5935 L397.1049 107.7627 L396.8823 107.416 L396.1841 107.303 L394.5496 107.7451 L394.4547 107.7858 L391.5758 108.4705 L390.4853 109.0335 L390.0611 109.6739 L390.0488 109.3546 L389.7378 109.1622 L388.9158 109.3245 L388.6721 108.8901 L388.7248 108.1401 L389.0091 108.0973 L388.6441 106.9554 L388.0536 106.7936 L385.7814 106.8681 L383.9684 106.5081 L383.6351 106.7919 L383.5414 106.8851 L379.7846 104.582 L377.7298 103.2636 L377.5869 103.1839 L377.1848 102.9947 L376.8113 102.8578 L376.6312 102.7755 L375.8494 102.3217 L375.8488 102.0569 L376.0666 101.8749 L377.7721 98.4598 L378.4608 95.4487 L378.8079 93.0708 L379.0653 91.6898 L379.2143 90.9581 L379.4388 90.2816 L379.8415 87.867 L379.8038 87.2126 L380.2086 86.3464 L380.3435 85.73 L380.6836 84.5429 L380.7716 84.3379 L380.9829 83.5532 L380.8889 83.4556 L381.323 82.3523 L382.0313 81.0384 L382.2688 80.783 L383.1926 79.1907 L383.5759 78.537 L384.191 77.4901 L384.7656 76.1471 L385.0302 75.3893 L385.2164 74.8438 L385.3444 74.116 L385.4265 72.9876 L385.4068 72.3846 L385.2016 71.0141 L384.904 69.7467 L384.0029 66.0007 L382.2222 67.8841 L382.1365 67.8339 L381.7102 67.9367 L376.1272 67.6948 L375.1597 67.5708 L371.1899 66.3032 L370.7545 66.1644 L370.1015 66.1046 L369.2479 66.3144 L361.7874 69.1515 L359.4975 69.8162 L359.043 69.8714 L357.0225 70.1169 L352.1134 71.3146 L350.5304 71.7009 L349.8425 71.7837 L349.52 71.7518 L348.3238 71.6339 L347.5686 71.3148 L346.8179 70.848 L340.781 65.0849 L340.1052 64.1096 L339.707 63.3166 L338.9606 61.2869 L338.8007 61.0041 L338.0317 60.6112 L335.3683 59.5321 L331.9311 58.0592 L328.7972 57.8128 L327.9877 57.7714 L326.8499 57.5483 L325.888 57.2764 L324.914 57.0142 L324.9237 56.9509 L324.9684 56.9564 L324.2448 55.7131 L323.6098 55.3307 L321.1444 53.95 L318.4356 52.9425 L316.7225 52.0228 L315.0991 51.1672 L314.3273 51.0087 L314.2938 51.0506 L312.6683 50.5649 L311.2728 50.0456 L310.8601 49.7764 L310.731 49.7295 L310.7749 49.3758 L310.7235 48.936 L309.7417 48.4174 L309.439 48.3185 L308.8023 48.2862 L308.4664 48.3031 L308.5456 48.3969 L307.8621 48.8006 L307.835 48.7571 L307.6837 48.8118 L306.9895 48.6835 L305.9607 48.7061 L305.3967 48.8722 L304.9175 48.9058 L304.5593 48.6092 L304.2245 48.085 L304.1648 48.119 L304.2693 48.2817 L303.1313 48.9078 L302.1179 48.6451 L301.7216 47.905 L300.3568 47.952 L300.382 48.1476 L300.0379 48.2862 L299.307 48.191 L297.2978 48.1821 L297.2519 48.2483 L295.3511 45.5126 L294.1885 43.1093 L293.7987 43.1177 L293.5402 42.7982 L293.3937 42.7564 L292.0953 42.311 L291.9831 42.1987 L292.1933 41.8857 L292.5802 40.6936 L292.6385 38.4957 L292.6491 37.4686 L292.6375 36.5814 L292.6604 35.7798 L293.6955 33.9404 L294.0011 32.7205 L294.2754 31.9242 L294.6182 31.1835 L295.0503 30.6904 L297.6642 28.238 L298.3208 27.9222 L298.9242 27.5063 L299.7215 27.0912 L300.2559 26.843 L300.4789 26.6149 L302.5127 25.4479 L302.4628 24.6995 L292.7491 16.7856 L290.8066 15.1049 L288.0525 11.3478 L287.8065 11.034 L287.6369 10.852 L287.0593 10.2836 L286.6811 9.908 L286.273 9.4809 L285.8794 9.0485 L285.3769 8.2739 L285.0993 7.8588 L284.9714 7.3366 L284.7491 6.4611 L284.3539 5.4718 L283.8109 4.0443 L283.4385 3.225 L283.2649 2.8308 L283.1639 2.4307 L283.0236 1.9602 L282.8862 1.4961 L282.7126 0.9132 L282.6012 0.5509 L282.4677 0.5697 L282.2938 0.5457 L282.2726 0.4048 L282.2333 0.2091 L282.1993 0.0 L281.5327 0.2909 L280.9013 0.6154 L280.8191 0.6696 L280.593 0.7788 L278.2238 2.3228 L278.1036 2.4272 L277.4692 2.8161 L276.505 3.4472 L275.622 4.0292 L275.0099 4.4287 L274.4696 4.8062 L273.5858 5.4151 L273.5018 5.4572 L272.6559 6.0268 L271.7363 6.6857 L271.3986 7.0678 L271.1321 7.2209 L271.0896 7.2956 L270.2897 7.9494 L270.2209 7.9696 L270.1738 8.025 L269.4558 8.6226 L266.1196 11.4872 L266.1673 11.5434 L266.0608 11.6597 L266.0221 11.6069 L264.9655 12.7255 L264.6163 12.8024 L263.0556 14.1049 L261.3291 15.6327 L259.9247 16.674 L259.8552 16.6807 L259.6781 16.7526 L259.5108 16.8639 L259.3486 17.0419 L258.8889 17.3036 L258.832 17.4254 L257.0526 18.3764 L256.309 18.7179 L256.1682 18.7179 L256.0284 19.5657 L255.4914 19.5511 L255.3493 19.7254 L255.1872 19.4567 L255.1305 19.5838 L255.1196 19.7822 L255.124 19.9959 L254.9734 20.0137 L255.0084 19.8088 L254.999 19.6002 L255.1144 19.1793 L255.0141 19.2169 L254.6506 19.2823 L254.4109 19.3268 L247.5566 22.2669 L246.7816 22.7915 L245.9965 23.1761 L245.4089 23.503 L244.5858 23.7186 L244.3021 23.939 L239.1344 26.063 L236.9971 26.9744 L236.2617 27.2395 L235.1886 27.4585 L233.9342 27.9527 L232.7804 28.5453 L232.898 28.5655 L232.0235 29.1152 L231.473 29.6202 L231.1794 30.0498 L230.7572 30.5569 L230.5669 30.8925 L230.1877 31.9239 L230.0666 32.2279 L229.9921 32.4692 L229.8632 32.9808 L229.7818 33.7541 L229.7588 34.1546 L229.7815 34.9825 L229.9219 35.8405 L229.9582 36.0211 L230.3313 37.0586 L230.5841 37.8402 L231.0133 38.4804 L231.8906 39.4747 L233.2092 40.4468 L236.8249 43.0717 L237.6645 43.6531 L238.0485 43.2874 L238.2769 43.6981 L238.4617 43.8997 L238.7217 44.2181 L239.4968 44.8304 L240.1205 45.3322 L241.1676 46.4434 L244.4569 48.9091 L249.8627 52.6675 L257.731 58.3499 L259.4431 59.4837 L262.7651 60.9546 L264.018 61.5069 L265.1895 62.0861 L258.8617 64.9196 L255.4014 66.3387 L253.9312 67.0081 L252.4756 67.601 L249.8074 68.7905 L247.6604 69.9303 L247.3239 70.1076 L242.7797 72.4211 L241.9317 72.833 L241.302 73.1355 L241.2863 73.1875 L241.0589 73.2772 L239.8835 74.4154 L239.3752 74.8919 L238.9608 74.9148 L238.3809 74.9186 L238.0136 74.7498 L237.4321 74.338 L237.1565 74.0827 L236.6972 73.5701 L235.8846 72.5037 L235.6767 72.0545 L235.4647 70.6087 L235.3898 70.2725 L235.1846 69.7543 L233.1826 66.5547 L231.3343 63.9486 L228.9368 63.029 L227.7503 62.633 L225.6065 62.1098 L224.7913 61.9689 L223.8488 61.9775 L222.8073 62.3149 L220.2473 63.5954 L218.7546 64.492 L216.3498 65.464 L215.1269 65.5729 L214.4371 65.6169 L213.8702 65.5671 L213.5467 65.5636 L212.3163 65.9196 L211.3235 66.3761 L210.9314 66.5394 L211.3634 67.0843 L211.8219 67.5296 L212.1038 67.8791 L212.0717 67.9606 L211.996 67.973 L211.7117 69.8043 L211.6491 69.9953 L211.4553 70.8574 L211.1728 72.1279 L210.9808 72.9938 L210.8914 73.3311 L210.706 73.6938 L210.4664 74.1017 L209.5577 76.0154 L209.1796 76.7844 L206.694 81.3719 L206.8499 81.3916 L208.4049 82.5173 L209.4001 83.5894 L209.6024 83.7031 L210.617 83.9391 L210.5749 84.0277 L210.6847 84.0475 L210.4209 84.613 L210.324 85.1609 L210.2976 85.2195 L210.447 85.2707 L210.4911 85.2168 L210.579 85.3557 L210.6053 85.5463 L210.4957 86.2471 L210.3565 86.2555 L210.3334 86.4355 L209.3317 86.3073 L207.4492 85.956 L200.1144 83.7374 L198.9163 83.2104 L198.1629 82.7795 L197.3357 82.4737 L197.1177 82.4361 L196.0843 82.3465 L194.9056 82.2441 L194.4403 82.1459 L194.0063 82.1831 L193.8676 82.195 L192.3697 82.4609 L191.7066 82.8082 L190.7276 82.7877 L189.6051 82.7243 L188.9268 82.7548 L188.429 82.6736 L188.0547 82.6128 L187.673 82.5506 L187.6593 82.6074 L187.715 82.615 L187.7052 82.6891 L187.6403 82.6803 L187.5647 82.9501 L187.4988 83.1087 L187.4006 83.3448 L187.3232 83.34 L187.3178 83.5411 L187.31 84.0353 L187.2773 84.3534 L187.1912 84.6223 L187.1126 84.8152 L187.1086 84.8359 L186.9737 85.0779 L186.8271 85.3402 L186.7538 85.4634 L186.6175 85.739 L186.5544 85.8681 L186.7479 85.9062 L186.9143 85.4536 L187.382 84.8908 L187.6831 84.9455 L187.6874 84.9656 L188.2343 85.2083 L188.1607 85.4417 L188.9485 85.8457 L189.7543 86.1239 L190.2252 86.2425 L191.0568 86.8052 L191.2984 87.5111 L191.257 87.7667 L191.2594 88.1668 L191.2608 88.4163 L191.2079 88.7236 L191.0712 89.0447 L190.6734 89.4077 L190.3123 89.7303 L188.7188 91.089 L188.435 92.9064 L188.055 93.7129 L186.8943 94.3044 L186.3669 95.2498" stroke-dasharray="" fill="none" fill-opacity="1.0" stroke="#ff0000" stroke-opacity="1.0" stroke-width="1.0px" stroke-linecap="butt" stroke-linejoin="miter" stroke-dashoffset="0.0px"/>
</g>
</svg>