<?xml version="1.0" standalone="no"?>
<!DOCTYPE svg PUBLIC "-//W3C//DTD SVG 1.1//EN" "http://www.w3.org/Graphics/SVG/1.1/DTD/svg11.dtd">
<svg width="512px" height="512px" version="1.1" xmlns="http://www.w3.org/2000/svg" xmlns:inkscape="http://www.inkscape.org/namespaces/inkscape">
<g id="layer" inkscape:groupmode="layer" inkscape:label="layer">
<path d="M0.0 165.2607 L2.449 189.4829 L3.0559 189.5504 L3.2943 190.9355 L3.8794 190.868 L4.6597 197.5231 L4.0312 197.6583 L18.6603 313.2281 L17.4683 313.3632 L20.9143 347.078 L22.0847 346.9428 L28.9983 401.6363 L64.0867 397.4473 L63.8916 395.623 L124.8791 388.6977 L127.0247 404.1024 L127.935 404.0348 L128.0433 404.5415 L137.9262 403.3254 L138.3813 406.3995 L144.6881 405.6226 L150.9732 404.8793 L150.6698 401.7376 L161.6796 400.3863 L161.0295 393.6975 L382.2228 369.9148 L382.808 373.3606 L383.5232 373.2254 L383.6749 373.8673 L393.9045 372.4822 L394.2296 375.2524 L400.4497 374.5092 L406.6915 373.766 L406.3447 370.8269 L417.2245 369.3743 L417.1162 368.8337 L417.723 368.7324 L415.8808 352.9899 L476.9983 346.0307 L477.2584 347.6523 L512.0 343.4633 L509.2909 318.5319 L508.6624 318.7008 L507.427 311.3025 L508.2072 311.1336 L487.7481 139.4508 L487.0979 139.5521 L486.1659 132.6604 L486.7294 132.5253 L486.491 130.7686 L487.2279 130.6673 L483.8903 106.6815 L482.5466 106.8842 L482.3082 105.6005 L459.7467 108.3706 L459.8117 109.6882 L434.021 112.6948 L433.6742 109.7557 L430.2499 110.1949 L430.3583 110.9719 L423.9214 111.7489 L423.8347 110.9719 L420.8656 111.3097 L420.9523 112.053 L414.1036 112.8638 L414.0169 112.2219 L411.0694 112.5597 L411.1344 113.134 L404.6976 113.911 L404.6109 113.1678 L401.5334 113.5394 L401.8801 116.5799 L376.1544 119.7892 L375.981 118.5055 L353.723 121.073 L353.8314 122.3229 L352.4226 122.4918 L354.8717 147.1532 L355.4352 147.0857 L355.5435 147.8289 L356.5188 147.7951 L357.6241 155.0246 L245.9004 168.5714 L134.1768 182.1183 L133.1798 174.7874 L134.3718 174.6185 L134.2201 173.4361 L134.8053 173.3348 L131.8578 150.4301 L131.4026 150.4639 L131.1859 149.0113 L130.189 149.214 L129.7772 147.5586 L107.2807 150.4977 L107.4541 151.7139 L81.8584 155.1259 L81.4467 152.1868 L77.9357 152.6598 L78.1741 153.3692 L71.9106 154.18 L71.7155 153.1665 L68.5946 153.6395 L68.703 154.4165 L62.5696 155.3286 L62.3095 154.3827 L59.0152 154.8557 L59.0369 155.7002 L52.7735 156.4435 L52.6001 155.5313 L49.5875 155.9029 L49.9776 158.8082 L24.1869 162.1189 L24.0135 160.7339 L1.3004 163.6392 L1.4304 165.058 L0.0 165.2607 M39.1846 203.7054 L48.7856 202.4554 L49.2408 206.1039 L55.3308 205.3269 L56.4362 211.9145 L58.7985 217.7251 L59.6221 219.144 L61.7894 221.6439 L63.0681 222.6912 L64.4768 223.5695 L67.5544 224.7519 L69.0931 236.4744 L82.1402 234.7515 L81.0349 223.1979 L84.0257 221.2047 L85.3044 219.9548 L86.4314 218.5359 L88.1002 215.3266 L88.6204 208.9754 L87.6018 201.2054 L93.8869 200.3947 L93.4534 197.084 L99.912 196.2732 L112.8507 306.2014 L115.9932 305.8298 L121.173 348.2266 L113.7826 349.0711 L113.3925 345.6929 L64.2817 351.5372 L64.6935 354.9492 L58.1483 355.7262 L39.1846 203.7054 M138.8148 219.5494 L181.3369 214.3131 L182.659 224.887 L184.0244 224.7519 L187.1019 250.7982 L185.6282 251.0009 L186.7768 261.4735 L144.6448 266.507 L138.8148 219.5494 M149.0227 301.8772 L372.405 275.2567 L379.4487 334.6461 L156.3481 361.3679 L149.0227 301.8772 M320.7152 197.1515 L362.1754 192.0504 L368.0271 239.7175 L326.5669 244.6836 L325.2232 233.9407 L324.2262 234.0083 L320.9319 208.0633 L321.9722 207.8606 L320.7152 197.1515 M393.6661 160.7676 L400.6664 159.8893 L401.1216 163.5378 L445.6593 157.9975 L445.2259 154.4841 L455.1304 153.2341 L473.9424 305.6946 L466.0969 306.6405 L465.7501 303.7015 L416.7477 309.5796 L417.0945 312.4511 L410.1158 313.2957 L405.4995 271.3041 L407.5584 271.0677 L403.0721 235.4609 L397.0687 187.8275 L393.6661 160.7676" stroke-dasharray="" fill="none" fill-opacity="1.0" stroke="#ff0000" stroke-opacity="1.0" stroke-width="1.0px" stroke-linecap="butt" stroke-linejoin="miter" stroke-dashoffset="0.0px"/>
</g>
</svg>