<?xml version="1.0" standalone="no"?>
<!DOCTYPE svg PUBLIC "-//W3C//DTD SVG 1.1//EN" "http://www.w3.org/Graphics/SVG/1.1/DTD/svg11.dtd">
<svg width="512px" height="512px" version="1.1" xmlns="http://www.w3.org/2000/svg" xmlns:inkscape="http://www.inkscape.org/namespaces/inkscape">
<g id="layer" inkscape:groupmode="layer" inkscape:label="layer">
<path d="M77.4964 391.9873 L77.5784 393.4321 L78.7672 393.4321 L79.0747 408.8224 L77.6603 408.8224 L77.6808 410.33 L79.1362 410.4243 L79.1567 425.846 L77.7423 425.9088 L77.7833 427.2908 L79.1977 427.2594 L79.3002 442.8067 L77.8858 442.8067 L77.8653 444.2515 L79.2797 444.2201 L79.3412 459.7674 L77.9268 459.7674 L77.9678 461.1808 L79.2387 461.1808 L79.3207 476.7281 L78.0293 476.7281 L78.0498 478.1101 L79.3207 478.1101 L79.4231 493.6574 L78.1318 493.6574 L78.0908 495.0708 L79.3617 495.165 L79.4231 510.5552 L78.2138 510.5552 L78.1933 512.0 L80.4685 511.9686 L80.448 510.7437 L95.0423 510.618 L95.1653 511.8744 L96.5387 511.8744 L96.5387 510.5866 L112.0144 510.6494 L112.0349 511.7801 L113.4492 511.7801 L113.4492 510.4924 L128.9454 510.4296 L128.9454 511.7173 L130.3598 511.7487 L130.3393 510.461 L145.8355 510.3353 L145.856 511.6231 L147.2498 511.5917 L147.2498 510.3353 L162.7255 510.3039 L162.7255 511.4346 L164.1604 511.4661 L164.1399 510.3353 L179.5951 510.1155 L179.6156 511.4032 L181.0094 511.4032 L181.0094 510.1469 L196.5671 510.1469 L196.5671 511.2776 L197.961 511.2776 L197.9405 510.1469 L213.3957 510.0527 L213.4162 511.1834 L214.8305 511.2148 L214.8305 510.0527 L230.3677 509.9584 L230.3677 511.0892 L231.7411 511.0892 L231.7206 509.9584 L247.2168 509.7386 L247.2578 511.0263 L248.6311 511.0263 L248.6311 509.8642 L264.1068 509.77 L264.1273 510.9321 L265.5416 510.9007 L265.5212 509.77 L280.9764 509.5501 L280.9969 510.8379 L282.4112 510.8379 L282.4112 509.5501 L297.8254 509.5187 L297.8254 510.6494 L299.3627 510.618 L299.3422 509.4873 L314.7565 509.4245 L314.7565 510.5866 L316.1708 510.5238 L316.1708 509.3931 L331.7285 509.4245 L331.708 510.3982 L333.1223 510.3982 L333.1018 509.3931 L348.5776 509.079 L348.5981 510.3668 L349.9714 510.3353 L349.9714 509.2046 L365.4471 509.079 L365.4676 510.2097 L366.9024 510.1783 L366.8819 509.1732 L382.3577 509.0162 L382.3577 510.1469 L383.772 510.1155 L383.7515 509.1104 L399.2477 508.8905 L399.2682 510.0213 L400.6825 510.0213 L400.662 509.0476 L416.1583 508.8591 L416.1787 509.9898 L417.6136 509.9584 L417.6136 508.8277 L432.2489 508.7649 L432.2489 509.8014 L434.5036 509.77 L434.4011 508.3566 L433.4788 508.3566 L433.4173 492.8093 L434.4011 492.8722 L434.4216 491.5216 L433.2943 491.5216 L433.3148 475.9743 L434.2987 475.9743 L434.2577 474.5609 L433.2738 474.5295 L433.1713 458.9508 L434.1552 458.9508 L434.1347 457.5688 L433.1303 457.5688 L433.0688 442.0843 L434.0732 442.0843 L434.0527 440.6081 L433.0483 440.6395 L432.8433 425.1236 L433.9912 425.1236 L433.9707 423.7416 L432.8433 423.6788 L432.8023 408.1314 L433.8887 408.1 L433.8682 406.7494 L432.7818 406.7808 L432.6998 390.1656 L433.6632 390.1656 L433.1713 270.4346 L432.8843 204.3497 L416.0353 204.3183 L416.0353 203.2818 L414.9694 203.2504 L414.9079 188.0169 L415.8918 187.9541 L415.8713 186.4779 L414.8874 186.5093 L414.7644 170.9617 L415.7483 170.9617 L415.7688 169.5169 L414.7849 169.5169 L414.6824 153.9379 L415.6663 153.9379 L415.6663 152.5244 L414.6619 152.5558 L414.5594 137.071 L415.5433 137.0396 L415.5433 135.6576 L414.5389 135.6576 L414.4569 120.1414 L415.4408 120.1728 L415.4203 118.6966 L414.4364 118.6966 L414.3135 103.1803 L415.2974 103.1489 L415.3178 101.7041 L414.334 101.7355 L414.1495 86.2192 L415.1334 86.1878 L415.1334 84.8058 L414.129 84.8058 L414.006 69.2895 L415.0104 69.2581 L415.0104 67.7818 L414.0265 67.7818 L413.9445 52.2341 L414.9489 52.2655 L414.9284 50.8521 L413.9445 50.8521 L413.842 35.3358 L414.8464 35.3358 L414.8259 33.9538 L413.842 33.9224 L413.7395 18.3118 L414.7234 18.3432 L414.7439 16.9612 L413.6165 16.9298 L413.596 1.4134 L414.6209 1.4134 L414.6414 0.0 L412.3457 0.0314 L412.3662 0.9737 L397.7104 1.1307 L397.7104 0.157 L396.337 0.157 L396.3165 1.1622 L380.8408 1.2878 L380.8408 0.2827 L379.406 0.2827 L379.406 1.2878 L363.9303 1.3506 L363.9508 0.3769 L362.5364 0.3769 L362.5159 1.382 L347.0402 1.5077 L347.0402 0.5026 L345.6054 0.5026 L345.6054 1.5077 L330.1297 1.6019 L330.1502 0.5968 L328.7358 0.6282 L328.7154 1.6019 L313.2191 1.6961 L313.2191 0.7224 L311.8253 0.7224 L311.8253 1.7275 L296.3086 1.8532 L296.3086 0.8481 L294.8943 0.8481 L294.8943 1.8532 L279.439 1.8846 L279.439 0.9109 L278.0452 0.9109 L278.0657 1.8846 L262.549 2.1359 L262.5285 1.0051 L261.0937 1.0365 L261.1142 2.0416 L245.6384 2.2615 L245.6384 1.0993 L244.2241 1.1307 L244.2241 2.2615 L228.7689 2.3871 L228.7689 1.2564 L227.3751 1.225 L227.3751 2.3557 L211.8788 2.4814 L211.8583 1.3506 L210.4235 1.382 L210.4235 2.5128 L194.9478 2.607 L194.9273 1.4763 L193.513 1.4763 L193.5335 2.607 L178.0783 2.7012 L178.0578 1.5705 L176.6434 1.5391 L176.6434 2.7012 L161.1472 2.8583 L161.1267 1.6961 L159.7124 1.7589 L159.7329 2.8897 L144.2777 2.9525 L144.2572 1.8218 L142.8838 1.8532 L142.9658 2.9839 L127.3261 3.0153 L127.3261 1.9474 L125.9528 1.9474 L126.2192 122.2144 L178.6522 121.8689 L178.7752 137.1339 L177.3608 137.2281 L177.4018 138.5787 L178.8162 138.5787 L178.8367 154.1263 L177.4223 154.1577 L177.4428 155.4769 L178.8572 155.4769 L178.9596 171.0245 L177.5453 171.0245 L177.5863 172.4379 L179.0006 172.4065 L179.1031 187.9855 L177.6888 187.9855 L177.6888 189.3361 L179.1031 189.3361 L179.2056 204.8523 L177.7708 204.8837 L177.7298 206.2343 L179.2671 206.2971 L179.3286 221.8447 L177.8938 221.8761 L177.9143 223.2895 L162.4181 223.4151 L162.3771 222.0017 L161.0242 222.0645 L161.0447 223.4779 L145.487 223.4779 L145.487 222.0959 L144.1137 222.1273 L144.1547 223.5408 L128.679 223.3837 L128.6175 222.2216 L127.2236 222.253 L127.2646 223.635 L128.597 223.6036 L128.679 239.1197 L127.2851 239.2139 L127.3671 240.5645 L128.7814 240.5645 L128.9044 256.1435 L127.4901 256.1435 L127.5311 257.5255 L128.9454 257.494 L129.0069 273.073 L127.5926 273.073 L127.6131 274.4235 L128.9864 274.4235 L129.0889 290.0024 L127.7156 290.0339 L127.6951 291.4159 L129.1094 291.4159 L129.2734 323.9242 L128.0025 323.9242 L128.0025 325.2748 L129.2939 325.2748 L129.3759 374.7124 L128.0845 374.7124 L128.064 376.0316 L129.3554 376.063 L129.3964 391.6104 L128.146 391.6418 L128.1665 393.0866 L112.9368 393.3065 L112.9368 391.736 L111.5839 391.7674 L111.5839 393.275 L95.8008 393.3065 L95.8213 391.8931 L94.4889 391.8931 L94.4479 393.3065 L79.8126 393.4007 L79.7716 391.9873 L77.4964 391.9873" stroke-dasharray="" fill="none" fill-opacity="1.0" stroke="#ff0000" stroke-opacity="1.0" stroke-width="1.0px" stroke-linecap="butt" stroke-linejoin="miter" stroke-dashoffset="0.0px"/>
</g>
</svg>