<?xml version="1.0" standalone="no"?>
<!DOCTYPE svg PUBLIC "-//W3C//DTD SVG 1.1//EN" "http://www.w3.org/Graphics/SVG/1.1/DTD/svg11.dtd">
<svg width="512px" height="512px" version="1.1" xmlns="http://www.w3.org/2000/svg" xmlns:inkscape="http://www.inkscape.org/namespaces/inkscape">
<g id="layer" inkscape:groupmode="layer" inkscape:label="layer">
<path d="M0.0 387.5507 L3.0104 390.2046 L172.5693 428.5053 L172.2175 430.1941 L175.5797 430.9179 L175.4624 431.4005 L210.8833 439.3622 L209.8277 440.0256 L211.7043 443.0414 L212.2908 442.6192 L212.6426 443.2827 L215.4966 441.3526 L227.1472 443.8859 L236.7648 445.9969 L236.8821 445.5747 L237.7813 445.7557 L236.9994 446.2985 L238.7978 449.073 L239.4233 448.7715 L239.8143 449.3143 L242.7856 447.4445 L242.0819 446.3588 L277.4637 454.3205 L277.5418 453.9586 L280.9432 454.6824 L281.3341 452.9936 L453.5907 491.837 L453.6689 491.5355 L457.1875 489.8466 L462.6219 453.4158 L464.5767 453.6571 L465.0458 450.219 L465.515 450.2794 L466.1014 445.9366 L465.8277 445.9366 L466.2578 442.9208 L466.5315 442.9811 L466.8442 440.3272 L464.4985 440.0256 L466.6487 424.4038 L469.0336 424.7054 L469.4637 422.0515 L469.19 422.0515 L469.5809 419.0357 L469.8546 419.096 L470.4801 414.7532 L470.011 414.6929 L470.5583 411.3152 L468.5644 411.0136 L501.2877 177.8911 L503.0079 178.1927 L503.5162 174.6944 L503.829 174.6944 L504.4154 170.6531 L504.0244 170.5928 L504.8845 164.9231 L500.975 164.3199 L503.1643 148.6376 L507.0739 149.2408 L507.8558 143.5107 L508.2077 143.571 L508.7941 139.4695 L508.4032 139.4695 L508.9896 135.9711 L507.1912 135.7298 L512.0 101.7716 L508.4814 97.7303 L497.8864 95.4383 L498.121 93.9907 L495.4233 93.5082 L495.4233 93.2066 L492.0611 92.5431 L491.9829 92.905 L487.7605 92.1209 L487.7996 91.759 L484.8674 91.2161 L484.2028 94.8351 L468.5254 91.9399 L469.19 88.2606 L463.7166 87.2352 L463.7166 86.994 L459.4551 86.2098 L459.4551 86.4511 L456.0538 85.8479 L455.5064 88.5622 L355.6946 69.9243 L355.9682 68.4767 L316.9114 61.0578 L317.3806 60.8165 L314.292 56.3531 L313.9401 56.5943 L313.7447 56.2927 L313.4319 56.4737 L313.2364 56.1721 L309.0141 59.007 L309.405 59.6102 L308.3494 59.4292 L308.5449 58.3435 L298.4973 56.6546 L289.036 55.0864 L288.6842 54.5435 L287.6286 54.3023 L287.4331 55.388 L286.3384 55.207 L287.0031 54.7848 L284.1491 50.5626 L283.8363 50.8642 L283.6408 50.5023 L283.2889 50.7436 L283.0935 50.442 L278.6756 53.3975 L244.1539 46.8833 L244.0757 47.2452 L241.1436 46.642 L240.7917 48.4516 L141.6054 29.9946 L141.9572 28.3057 L131.7141 26.1343 L131.0495 29.693 L115.6066 26.8581 L116.2712 23.1185 L102.9004 20.6455 L102.6268 22.2137 L91.7972 20.163 L87.9267 22.9375 L79.3256 58.8864 L77.6054 58.4641 L74.8296 71.5529 L78.8564 72.4576 L75.1814 87.7781 L71.2327 86.813 L68.1051 99.8414 L69.708 100.2636 L14.27 321.7457 L17.6714 322.5298 L14.1136 338.0311 L10.7123 337.247 L0.0 387.5507 M95.2376 325.6663 L100.672 305.0381 L102.1967 305.4603 L107.0055 286.8226 L105.168 286.4004 L110.5241 266.0738 L111.8925 266.4357 L116.2712 249.728 L113.8864 249.1249 L119.438 228.0744 L120.5718 228.2554 L124.8723 212.0906 L123.504 211.7287 L129.0165 190.8592 L130.2676 191.1608 L134.5681 174.7547 L132.3787 174.1515 L137.5394 154.428 L139.2596 154.8502 L143.5993 138.1425 L141.449 137.5997 L146.7269 117.1523 L148.3299 117.5142 L149.4637 112.9301 L170.38 116.6698 L170.5754 115.4031 L191.4918 119.1428 L191.2572 120.5904 L205.7227 123.1237 L205.9572 121.9776 L226.9517 125.5966 L226.6781 127.2855 L264.171 134.3426 L263.8583 135.9108 L284.0709 139.7107 L305.6127 143.7519 L305.9646 142.0028 L343.653 149.0598 L343.9267 147.6725 L364.1002 151.5328 L363.8656 152.9804 L378.4875 155.6946 L378.7221 154.247 L399.3256 158.1073 L399.0128 159.4946 L421.9621 163.8374 L421.102 168.4817 L422.9004 168.8436 L419.7337 189.11 L418.2871 188.8687 L415.6677 208.4716 L417.3879 208.6525 L414.4948 229.5824 L412.7355 229.4014 L409.9988 249.8487 L411.9536 250.0899 L409.256 270.3562 L407.5748 270.115 L405.1118 288.8734 L406.4411 289.0543 L403.548 310.6475 L401.6323 310.4063 L399.1301 329.044 L400.8503 329.2249 L397.8009 351.8435 L395.4942 351.5419 L393.383 367.6464 L395.3378 367.8876 L392.6402 388.3951 L391.4282 388.2745 L389.708 396.1156 L369.2217 391.23 L369.4954 389.7824 L356.672 386.9475 L356.281 388.6364 L336.9676 384.3539 L337.3195 382.6651 L323.2059 379.4683 L322.854 381.2175 L302.6023 376.6938 L302.9933 374.9446 L264.3665 366.44 L264.6793 365.1131 L244.0757 360.6497 L222.6903 356.0656 L222.4557 357.091 L185.0409 348.6468 L184.7282 350.215 L164.0464 345.7516 L164.4765 344.0627 L150.402 341.2279 L150.011 342.8564 L129.6811 338.2724 L129.9939 337.0057 L116.4667 333.9899 L116.1539 335.5581 L95.8632 331.1551 L96.9578 326.0885 L95.2376 325.6663" stroke-dasharray="" fill="none" fill-opacity="1.0" stroke="#ff0000" stroke-opacity="1.0" stroke-width="1.0px" stroke-linecap="butt" stroke-linejoin="miter" stroke-dashoffset="0.0px"/>
</g>
</svg>