<?xml version="1.0" standalone="no"?>
<!DOCTYPE svg PUBLIC "-//W3C//DTD SVG 1.1//EN" "http://www.w3.org/Graphics/SVG/1.1/DTD/svg11.dtd">
<svg width="512px" height="512px" version="1.1" xmlns="http://www.w3.org/2000/svg" xmlns:inkscape="http://www.inkscape.org/namespaces/inkscape">
<g id="layer" inkscape:groupmode="layer" inkscape:label="layer">
<path d="M46.0243 51.3016 L46.2048 57.1446 L50.4806 61.6676 L55.4081 72.8626 L56.4824 75.7281 L60.2119 84.1476 L65.8479 85.9479 L70.07 94.4311 L73.9824 108.4304 L74.3958 111.3445 L74.1531 114.769 L72.885 117.3184 L72.8209 122.3691 L73.6294 128.6982 L74.558 132.6452 L76.2017 135.8176 L78.5136 139.2476 L80.7622 142.8158 L79.8598 150.0253 L81.2134 180.4506 L88.048 193.4867 L91.95 189.2667 L94.1571 185.0532 L95.7411 182.4573 L97.4982 179.0971 L100.0949 177.6488 L100.6772 177.6657 L101.2722 179.5107 L97.7116 189.2385 L95.5594 188.5618 L93.7352 192.8316 L90.2344 195.4661 L87.2115 198.5723 L86.725 199.155 L85.9464 200.3806 L85.3562 201.3289 L86.6091 201.5695 L89.0662 202.6785 L90.9684 209.8683 L92.6024 211.372 L91.7915 209.7085 L90.8221 206.6258 L91.6757 203.327 L94.1023 207.5093 L96.0447 209.1267 L96.2886 208.5826 L94.3559 205.2283 L94.4516 204.8693 L94.7918 204.5761 L95.4235 204.3091 L96.1057 204.1606 L96.8111 204.3279 L98.4042 204.2264 L106.1553 206.2396 L106.9802 205.8871 L107.8155 205.8524 L108.4312 206.0525 L109.5116 206.4717 L110.0518 206.7518 L110.2701 206.6587 L110.7377 206.8956 L111.1743 207.6211 L112.3363 207.0911 L113.7356 206.2537 L114.1178 206.1851 L114.3629 206.5507 L114.958 208.9604 L114.6843 209.4378 L114.3184 209.5816 L113.8624 209.9811 L112.918 210.2574 L112.1638 210.716 L111.4181 209.685 L110.945 208.9031 L109.9445 207.92 L109.3543 207.6465 L108.6129 206.9294 L107.9996 206.4454 L107.6362 206.5375 L108.0026 206.9304 L108.4922 207.2922 L109.1513 207.8815 L109.9457 208.388 L109.611 208.5741 L103.1995 211.5252 L104.0183 216.1971 L107.1314 216.2873 L107.4545 216.5204 L107.5643 216.5147 L110.6444 215.3719 L112.0796 214.9086 L112.5644 214.8456 L112.7686 214.9546 L113.4539 215.214 L114.3081 216.5946 L117.887 221.4431 L121.5835 229.9483 L122.1048 230.1541 L122.7535 230.9492 L123.2486 233.1652 L122.898 234.6613 L122.6755 235.1368 L122.1426 235.6265 L121.8006 236.7279 L121.1787 236.0071 L120.5404 235.7458 L119.9855 235.1021 L119.6941 234.2873 L112.771 226.2681 L112.2406 233.3071 L107.1131 233.9085 L104.7902 245.4207 L101.8088 231.7189 L97.2483 233.2883 L98.3823 239.1243 L93.7608 237.0944 L94.0065 239.239 L93.1085 250.5894 L96.224 252.9388 L94.9497 255.57 L100.315 268.4443 L101.9429 271.395 L110.4725 264.9109 L112.5613 264.6572 L117.198 259.593 L117.4925 259.3769 L118.0315 259.9539 L119.624 261.8014 L120.0282 262.4254 L120.1319 262.6669 L122.6615 264.1075 L127.1951 258.4607 L131.6593 254.5739 L134.598 254.4705 L149.8099 259.9868 L156.0043 268.059 L155.3459 279.3636 L149.7306 293.656 L135.2169 307.7677 L128.3212 314.5921 L125.3911 318.8383 L124.3906 324.3049 L125.2234 332.3487 L126.5928 334.4571 L130.4235 340.523 L138.5671 347.6805 L143.2093 351.325 L150.9975 358.5125 L159.443 365.572 L165.9972 379.937 L167.0763 382.436 L168.3433 384.4775 L169.8364 387.5862 L171.56 391.1571 L176.0083 386.1704 L179.5446 388.6835 L180.9176 389.8183 L183.7539 390.2984 L184.0167 390.2561 L184.0862 390.3031 L187.1023 390.2129 L187.5779 390.0532 L188.6717 389.9311 L189.9801 389.9818 L191.5567 390.2345 L192.2304 390.2496 L192.6243 390.4694 L193.1767 390.6066 L194.4857 391.2463 L196.6714 392.725 L199.195 394.1323 L201.2264 394.2507 L202.6385 394.0741 L203.6786 394.3935 L208.622 394.6819 L210.8212 394.7327 L210.9797 394.5476 L211.5406 394.3165 L212.5119 394.3973 L213.3551 394.6387 L213.6703 395.2118 L213.6636 395.9051 L214.8909 396.776 L215.2305 397.2269 L216.456 398.1607 L219.4886 394.5438 L220.6074 391.4173 L222.7687 390.4797 L224.7514 395.161 L221.1683 403.8368 L218.9612 405.0393 L217.0285 417.9187 L207.9136 429.8114 L210.1304 433.4215 L212.1509 438.7355 L213.4855 440.6405 L214.5897 444.2589 L216.7486 449.2497 L217.5589 451.1067 L215.3945 453.1451 L216.6565 453.6523 L216.5742 453.9285 L216.7492 454.2047 L216.8596 454.618 L216.7748 455.3488 L216.5889 456.2703 L216.1401 458.0014 L215.8975 458.0916 L215.2914 458.2287 L214.8403 459.7411 L214.2745 459.7326 L211.6705 465.5723 L209.2402 464.4921 L211.0718 459.6875 L210.7584 459.6828 L210.7541 459.7955 L209.8341 461.7399 L209.5451 462.4294 L209.4957 462.4792 L208.6836 464.7429 L207.9727 466.7211 L206.9844 468.1742 L203.4628 466.6807 L202.0727 467.5909 L201.3563 468.4053 L199.2925 470.2886 L198.4572 470.9545 L196.9245 472.6227 L195.7703 473.8081 L194.9545 474.1012 L193.8467 474.9785 L192.6975 473.1036 L189.2844 474.2317 L187.0011 476.6748 L186.1689 474.321 L185.2275 473.5958 L185.047 473.4493 L184.7209 473.4587 L184.6038 473.4408 L172.8014 475.7637 L168.8567 480.4507 L166.7166 482.7801 L161.8635 488.0147 L160.0167 495.4949 L160.5862 499.1119 L160.2935 505.5147 L162.0019 505.7298 L163.6182 501.7437 L163.9346 496.127 L166.4496 489.6903 L171.3863 485.9295 L176.2028 491.6552 L177.6606 493.3882 L181.9144 498.3972 L183.5435 499.2913 L184.794 498.4535 L193.1334 504.1876 L195.8075 507.9426 L199.2419 505.8594 L200.4052 504.5172 L201.6892 504.2289 L203.0641 504.1575 L204.42 504.443 L204.9084 504.5172 L208.0446 504.8544 L208.8622 504.8103 L210.684 504.8995 L211.6882 505.1841 L213.6337 505.2545 L214.6025 505.5034 L215.3402 505.5128 L216.184 505.2461 L218.9972 505.5973 L219.8818 505.7072 L230.2783 510.4249 L236.1423 512.0 L241.4503 511.6206 L246.6619 510.1807 L254.2837 508.0177 L259.5271 506.7573 L277.7508 504.7887 L280.4139 503.7555 L293.0205 496.406 L299.3632 491.334 L316.0998 483.3305 L316.1468 475.9065 L308.9737 477.3727 L305.7448 478.7018 L302.8244 479.9585 L302.6384 479.9182 L302.3763 479.6927 L302.1738 479.3931 L301.9287 478.4087 L301.8842 477.6996 L301.8391 476.9914 L301.7227 476.4005 L301.6629 475.7102 L301.5641 475.28 L301.5757 474.7681 L301.8922 474.2449 L303.1884 473.2389 L303.2219 472.6152 L303.1079 472.6979 L302.9774 472.7119 L302.7598 472.5372 L302.4836 471.8375 L302.433 471.3781 L302.5921 471.0278 L302.8091 470.6051 L303.5847 469.8537 L303.845 469.2262 L303.87 468.8552 L303.8121 468.3301 L303.9133 468.053 L303.9785 467.992 L303.9584 467.9769 L304.0425 467.2725 L304.0651 466.7258 L302.2616 465.5301 L299.7893 466.0626 L297.5829 466.2064 L295.1794 465.8992 L292.8705 464.6471 L291.742 466.0307 L291.0092 466.2186 L290.2391 465.4295 L289.8696 464.1352 L289.4587 463.178 L286.6511 460.2455 L284.9793 461.5981 L283.0088 461.4168 L278.1568 458.1827 L276.9033 457.3326 L276.2296 457.0001 L273.2531 455.453 L271.1856 454.0093 L267.9402 451.644 L265.2746 449.6216 L263.7382 447.9233 L262.7164 446.3424 L260.3898 445.1194 L258.3961 443.0096 L257.99 442.1585 L258.0449 441.8373 L258.3327 441.3713 L260.377 439.1798 L260.3709 439.177 L259.8033 438.9008 L259.5533 438.6735 L256.253 435.83 L255.561 434.0011 L255.9817 431.9438 L257.4041 428.207 L257.6736 427.0299 L257.9583 425.4245 L258.0211 423.9018 L258.0016 423.7289 L258.1101 423.6594 L258.2309 423.7035 L258.9631 424.0568 L259.0375 423.4424 L258.3638 423.0215 L257.9919 422.8008 L257.6578 422.1395 L257.4096 421.4678 L256.9505 419.6839 L256.7152 419.1287 L256.6676 419.0075 L254.7562 417.9375 L256.4439 416.8656 L256.742 416.2428 L257.0371 415.7731 L257.2273 415.1409 L256.2012 413.8135 L257.0523 412.4335 L256.9487 412.0596 L256.8755 411.557 L257.3005 410.6514 L257.7541 409.9534 L256.6829 408.3367 L260.9056 405.2056 L261.1165 404.9425 L261.7275 403.8838 L263.0206 402.7114 L263.965 401.9767 L264.3302 401.4741 L263.8163 400.8776 L267.072 400.22 L272.7361 402.2304 L274.4097 403.3239 L274.8864 402.7987 L272.1733 399.6168 L271.927 398.6661 L272.7757 397.6064 L276.0589 396.5355 L277.6575 392.7495 L280.7334 390.8978 L282.4192 388.5379 L283.2941 388.194 L284.0641 389.467 L286.1743 390.6733 L292.259 388.2363 L294.0332 386.9276 L296.2799 385.3324 L302.7098 383.6385 L302.9463 382.5581 L303.3249 382.1523 L303.3207 381.0145 L303.4274 380.2207 L303.709 379.1694 L304.3937 377.8522 L304.4913 377.127 L304.5803 375.791 L304.751 374.3526 L305.0571 373.9017 L306.4319 373.1538 L307.9202 372.1288 L308.5092 371.7061 L309.0426 371.1705 L309.9291 370.9103 L310.6644 370.9639 L311.3595 371.3227 L313.4245 373.3013 L315.617 375.9094 L320.7426 377.2885 L319.872 375.3184 L319.7903 374.9379 L319.8708 373.4601 L319.9439 370.9404 L320.1329 370.4349 L320.4597 370.1005 L321.4017 370.4114 L322.2193 370.7534 L322.6333 371.0475 L323.2125 371.3669 L331.055 377.282 L334.3504 380.5796 L332.5481 375.2029 L334.0406 373.3135 L334.2583 372.1044 L333.9919 371.0973 L333.7193 369.1365 L335.2198 368.7607 L335.7807 368.5493 L336.3117 368.8162 L336.5654 369.1412 L337.7293 369.6119 L336.7599 367.3383 L337.2415 367.5074 L339.8815 372.0452 L340.4607 372.515 L341.0204 372.8231 L340.7698 372.1871 L340.4546 371.3857 L339.2175 368.4347 L338.9968 367.4238 L339.0096 366.3744 L339.0188 365.6162 L339.3718 364.7002 L339.7339 364.2022 L339.9083 364.0679 L340.2455 364.0303 L340.4912 364.1938 L340.6698 364.7838 L340.7741 365.0384 L341.0491 365.122 L341.4563 364.6955 L341.702 364.1731 L341.9264 364.1477 L342.5093 364.2736 L342.8836 364.5752 L343.2165 365.1859 L343.5823 365.3681 L345.8522 364.8683 L345.8955 364.7105 L345.0944 362.3119 L346.7954 360.3765 L347.7563 362.8935 L348.1898 362.7309 L348.4617 362.2753 L348.4373 361.3254 L348.9202 361.2333 L349.4445 361.1751 L349.7689 361.3677 L350.1012 361.7548 L350.6615 361.4475 L350.6468 361.0792 L350.9005 360.6311 L351.4041 360.042 L351.5955 360.0589 L352.1278 360.6414 L352.8253 360.944 L353.171 361.5725 L353.4697 362.2912 L353.8361 362.1268 L353.5221 361.0248 L353.5014 360.8369 L353.7922 360.3849 L354.0453 359.5018 L354.4245 359.7912 L354.8257 360.0439 L354.8312 359.9255 L356.5273 359.2772 L356.8681 358.2099 L356.9285 357.3785 L357.5992 356.9294 L358.1717 356.8908 L358.7064 357.2056 L358.9972 357.7468 L359.277 358.2259 L360.0855 357.9168 L360.4196 357.2046 L360.8933 356.8664 L361.892 356.64 L363.4394 356.2388 L364.182 355.7559 L366.7147 353.9858 L367.1579 353.8796 L367.8005 354.0365 L368.2127 354.6773 L368.2383 354.7994 L368.4779 355.9382 L368.6943 356.9688 L369.0443 357.5588 L369.4065 357.7468 L369.4991 357.697 L369.6747 357.603 L369.843 357.0694 L370.0838 352.7776 L365.5264 350.532 L365.0295 350.6269 L364.3978 350.362 L364.2887 349.9223 L364.1223 349.2543 L363.9662 348.6464 L363.8406 348.1578 L364.1485 347.8769 L364.921 347.7998 L365.2593 347.6909 L365.8142 347.6288 L366.1568 347.7322 L366.6348 347.533 L368.609 348.0084 L368.7401 348.0112 L369.943 348.311 L370.0101 348.3448 L370.8197 348.5402 L370.8813 348.4876 L372.0672 347.8985 L372.8049 347.7143 L372.8049 347.4616 L372.5147 347.2671 L372.2671 346.9467 L371.9696 346.4779 L370.771 346.2205 L370.6685 346.1989 L369.5314 345.9583 L369.1394 345.8756 L368.1962 345.3307 L367.7444 345.0704 L366.3165 344.3461 L364.7545 343.1152 L364.2271 342.6999 L362.6852 340.5681 L362.0121 339.0112 L361.8932 337.2476 L362.3285 336.7403 L363.4376 336.1916 L364.3686 336.3344 L364.7698 337.3519 L365.6581 337.7202 L366.7391 337.9147 L367.1793 338.3676 L367.7133 338.4437 L368.4175 337.7616 L369.1412 337.2561 L370.2314 337.1546 L370.8746 337.2589 L371.5331 337.8208 L371.9769 338.9699 L372.3488 340.056 L372.547 340.6348 L372.5165 340.7466 L372.9658 341.1929 L373.2122 341.0952 L376.2905 339.5787 L376.7972 340.0231 L378.1293 340.1894 L378.7567 340.7231 L378.8037 340.7466 L385.8706 339.3495 L389.1203 339.0488 L392.7723 338.7012 L394.5276 338.6946 L395.0806 338.4108 L395.9159 338.2239 L396.4866 338.3225 L396.917 338.5377 L398.5083 339.6379 L399.3381 340.8039 L396.0281 343.5916 L396.5829 346.9693 L396.767 347.2014 L397.4859 347.6467 L398.0199 348.341 L398.5613 349.4628 L398.9613 350.4062 L399.4088 351.0018 L399.8643 351.5975 L400.3947 351.807 L400.4849 351.8427 L401.1635 351.9968 L401.9848 351.9902 L402.5896 351.9395 L403.0072 352.0381 L403.4596 352.2937 L403.8815 352.8922 L404.39 353.8035 L405.0662 355.5482 L404.768 356.8401 L404.3821 357.634 L402.6249 360.9195 L401.2166 363.5803 L400.8757 368.1453 L402.5548 367.0828 L402.6201 366.676 L402.8237 366.2964 L403.3858 365.7064 L404.7186 364.9632 L405.6539 364.4502 L406.4745 364.0528 L406.8282 364.3366 L407.3592 365.2253 L407.3013 365.3841 L405.9106 366.9973 L406.3252 370.5129 L403.6194 373.5512 L397.2578 377.0311 L393.3277 378.585 L381.44 389.5891 L382.2539 396.3335 L382.3435 396.3786 L385.7737 395.2108 L386.1267 395.2587 L386.4029 395.4025 L386.8071 395.9164 L391.7797 400.7893 L392.8089 401.5897 L393.7972 402.0321 L394.5319 402.298 L395.5086 402.6231 L396.3488 402.7846 L397.9736 403.3765 L399.2137 404.0125 L399.7283 404.2943 L399.9935 404.5057 L400.4471 404.6428 L400.7776 404.3103 L404.1998 401.0514 L405.8264 399.6713 L406.3429 399.3698 L407.8787 399.1593 L408.3292 403.3596 L408.442 403.7739 L408.5445 404.6673 L408.4018 405.7316 L407.9957 406.8411 L405.8356 411.6885 L405.4295 415.7355 L408.8487 422.053 L411.5429 420.1987 L412.1392 419.8783 L412.6635 419.9074 L413.0348 420.1282 L413.4653 420.9718 L413.8756 422.3236 L414.2798 424.1845 L414.2676 424.224 L414.9407 426.3921 L416.86 425.3681 L419.6768 423.0685 L422.2674 421.0873 L424.9141 419.1879 L426.5029 418.6129 L428.6527 418.1836 L431.3134 417.8257 L434.6454 417.4547 L437.756 417.2273 L438.9114 417.2978 L439.5815 417.3391 L439.7272 417.3476 L441.077 417.8267 L442.0812 418.2503 L443.0305 418.705 L443.3664 419.0 L444.5962 418.9896 L442.2159 412.8807 L440.1131 410.9013 L440.1997 409.6321 L441.6392 405.2741 L441.9312 405.2553 L442.2184 404.9425 L442.986 404.4202 L444.1407 403.4592 L440.0479 400.9706 L436.686 395.8515 L436.8769 394.6659 L437.4835 393.4851 L439.8674 388.1527 L440.4655 387.1954 L440.8423 387.1531 L444.4962 390.9908 L445.4394 391.6719 L446.1155 391.5094 L446.8581 389.5929 L447.944 389.2105 L448.3513 389.3881 L449.5774 390.1631 L452.6898 392.2722 L455.9858 395.2127 L461.8645 400.4952 L462.423 400.6502 L463.3156 398.7666 L464.0527 396.0676 L465.9757 388.1395 L464.2222 387.0582 L458.4947 382.4642 L453.5148 377.779 L450.8413 374.2568 L451.2046 372.3421 L447.8702 372.0058 L445.3955 370.5261 L440.3686 366.0502 L435.8636 360.4056 L433.0175 359.11 L429.3728 360.9317 L427.9693 360.8547 L427.9882 359.5121 L422.3192 353.3122 L421.5272 352.7963 L420.5841 352.3914 L419.6311 351.7497 L419.1958 351.6454 L418.8915 351.4246 L419.0043 351.0629 L419.714 350.5847 L420.5139 350.0792 L420.9669 349.5775 L421.476 349.2749 L421.9766 349.5079 L422.1607 350.2521 L422.2363 350.4165 L422.2753 350.3892 L425.2915 351.8427 L425.3073 351.7215 L425.3994 351.3288 L426.0652 350.532 L426.8822 350.1008 L427.3157 349.9589 L427.9272 349.8903 L428.0156 349.8706 L425.7872 346.3783 L426.2304 345.4388 L420.8291 343.0438 L420.2755 342.7948 L419.7439 342.8202 L419.0019 342.699 L418.519 342.3194 L418.2154 341.1121 L418.1002 340.7597 L418.3227 340.3943 L418.6824 340.3548 L419.0342 339.9329 L418.9043 339.1399 L418.4867 338.6589 L418.1477 338.1271 L417.7215 336.9592 L417.5423 335.7979 L417.988 335.0763 L418.1898 334.9758 L417.6148 333.2178 L417.5021 333.0647 L417.2118 332.5103 L417.0606 331.9832 L417.1112 331.6788 L416.9649 331.2315 L417.3698 331.0314 L417.4746 330.8238 L417.9788 330.2487 L418.3489 329.995 L419.2805 329.1438 L419.4012 329.0996 L417.8124 328.0651 L418.733 327.476 L418.7275 327.445 L418.6507 327.0541 L418.7464 326.3889 L419.2372 326.0816 L418.6842 325.4249 L436.219 321.2061 L438.798 321.0651 L436.2068 320.0128 L422.9521 314.7697 L402.375 314.61 L403.1188 316.8839 L393.4613 316.2637 L391.4981 312.8435 L339.9729 311.2283 L327.3468 301.2015 L327.6633 305.8527 L322.2346 311.0498 L321.4456 317.3762 L323.0796 325.4728 L311.5284 326.0694 L310.7955 320.7851 L310.5919 320.6742 L310.4071 320.6094 L309.8858 317.5143 L310.0645 317.069 L310.2815 316.1942 L310.6815 315.6736 L311.0808 315.0911 L311.4777 314.2022 L310.9333 314.3939 L310.1279 313.0512 L309.7706 312.9572 L308.9445 312.2459 L308.736 311.5891 L308.383 311.0845 L307.994 310.8647 L307.6416 310.7735 L307.2392 310.3732 L301.6434 311.7686 L299.7387 314.4644 L299.8351 317.2607 L298.9065 322.3655 L298.3108 323.4395 L292.1535 324.2541 L290.6964 324.2175 L288.7466 322.1165 L288.5222 321.9624 L286.8382 321.3 L282.6679 322.8692 L281.5601 324.6168 L281.6248 325.2022 L281.6065 325.4155 L281.4358 325.7735 L279.2317 328.3789 L278.6989 329.2396 L277.0076 331.6102 L275.726 333.8633 L275.0529 334.537 L274.7395 334.7897 L272.358 338.128 L260.3014 341.9746 L260.3514 342.1249 L260.2898 342.1804 L259.1076 343.6761 L255.3263 350.1919 L255.1367 350.5931 L254.8404 351.9695 L254.605 352.3783 L254.2258 352.3783 L254.0874 352.3266 L252.9271 354.3259 L252.6955 355.1715 L247.2753 356.5338 L246.0187 357.1041 L245.1402 358.3217 L244.8176 358.8235 L244.4189 360.555 L243.9409 361.4419 L243.6757 361.5471 L243.483 362.0376 L242.0429 361.6026 L237.6361 362.0582 L237.6019 361.6063 L237.4788 361.4165 L237.547 360.8904 L238.0305 359.0593 L237.7165 353.9435 L233.7712 354.0027 L233.6426 352.7475 L231.2934 350.7247 L232.283 349.6282 L231.0319 346.7541 L232.3555 345.5844 L233.1182 342.2057 L234.8949 337.8114 L233.5408 335.6109 L231.9708 335.4408 L230.6118 336.3212 L230.4618 336.4941 L229.704 337.6845 L228.8864 338.6429 L227.9109 339.2452 L226.7537 339.8925 L225.5081 340.2787 L224.1673 340.4967 L221.906 341.9614 L221.767 340.3266 L220.6208 339.9329 L219.933 339.4058 L217.315 338.3535 L217.9631 337.1161 L217.9662 337.009 L218.2844 336.5026 L218.888 335.3375 L219.0374 333.0806 L218.8886 333.0308 L218.6527 332.8035 L219.0898 332.2848 L219.1868 330.8181 L219.01 330.1886 L217.6077 322.8504 L217.765 322.7047 L217.815 322.6192 L217.921 322.56 L219.9288 320.7006 L220.4244 319.574 L220.6092 319.3419 L221.6024 318.8072 L222.0273 318.4624 L223.0943 317.0727 L223.265 316.7702 L223.2559 316.7392 L223.204 316.8096 L222.6498 315.4857 L221.9011 314.0904 L221.9395 312.6828 L222.3413 311.4143 L223.4564 309.8301 L224.0826 308.1454 L219.9184 299.341 L216.1322 297.5368 L215.0896 296.4374 L216.1285 295.8417 L214.9067 294.8851 L214.169 294.4454 L214.8153 296.0522 L215.7847 299.1154 L214.9336 299.699 L214.6092 300.0297 L214.1812 300.3915 L212.9216 301.1282 L210.9364 302.6372 L210.6102 302.9511 L212.4375 315.1832 L210.9437 315.7657 L211.2669 320.2101 L215.0957 325.6222 L215.5731 332.3102 L212.7606 332.2651 L213.0898 333.5053 L212.7728 334.4167 L212.7972 338.4005 L214.0593 340.523 L214.7439 340.6263 L215.1305 341.0228 L215.4256 341.5424 L215.4396 342.2039 L215.2945 342.6004 L215.3481 342.6905 L216.5791 349.1697 L217.943 353.5743 L218.2125 354.3757 L218.4265 354.5786 L218.8301 354.8558 L218.9179 355.645 L218.7271 355.9081 L218.8417 356.2501 L218.1259 357.3935 L212.218 358.2719 L209.122 361.3902 L209.0293 361.5453 L208.9348 361.5791 L208.0062 362.5139 L205.1151 362.2086 L203.361 364.5931 L202.4775 365.0976 L201.8361 364.8495 L201.8392 364.1947 L202.1501 363.7653 L202.1093 363.599 L202.2971 363.3275 L202.3001 363.0804 L202.0434 362.7525 L201.888 362.574 L202.383 361.4645 L202.4623 360.9543 L202.2891 360.3107 L201.9465 359.8222 L202.0861 359.0236 L202.3391 358.1075 L202.3422 357.774 L202.4836 357.697 L202.6781 357.1999 L202.8037 356.8608 L203.725 356.8345 L204.1341 356.6278 L204.6377 357.0383 L204.6157 357.9845 L204.4139 358.5341 L203.6122 358.7943 L203.4573 359.0424 L203.8506 359.7902 L206.2491 357.9431 L207.146 355.8 L207.1947 355.6168 L208.1044 352.5502 L208.1141 352.2345 L207.9062 352.0203 L206.054 352.553 L205.5809 352.9457 L205.0517 353.3713 L204.8639 352.5558 L204.5919 352.2655 L203.9481 351.8559 L203.3396 351.7629 L203.0634 351.7939 L202.9366 351.7281 L202.8421 351.4603 L201.7892 348.808 L201.3301 347.3263 L200.6168 346.1415 L200.2192 345.8954 L199.6827 345.7911 L199.415 344.456 L199.2858 343.9298 L197.5774 341.0914 L197.4854 341.0576 L196.5269 340.5953 L195.7051 339.9902 L194.4954 339.0206 L193.1858 338.0707 L192.5682 338.3864 L191.522 338.5038 L190.141 336.6924 L189.8118 335.8862 L189.5923 335.3488 L189.585 335.2689 L188.0662 334.2777 L188.0108 334.2974 L187.9766 334.2194 L186.5213 330.2468 L186.053 329.654 L185.7567 328.6665 L185.5775 327.896 L185.3952 327.3905 L185.572 327.3247 L185.5488 317.5792 L185.5214 316.7241 L185.4061 314.9708 L185.1909 314.112 L183.6953 309.9241 L183.4277 309.3115 L183.0527 308.7101 L181.8437 308.3615 L180.903 307.9819 L179.733 307.2969 L179.1178 306.719 L179.005 306.3864 L178.9288 306.1628 L178.4636 305.7127 L177.7691 304.804 L177.4564 303.5985 L177.5003 303.3993 L177.7435 302.2905 L177.4198 300.3718 L177.0534 299.3663 L176.4766 295.7054 L176.3388 292.2616 L176.2967 290.2282 L176.5449 287.0615 L176.59 286.7711 L177.0924 283.5659 L177.4228 282.1939 L177.5777 280.8417 L177.632 279.8071 L177.8539 278.6006 L178.3392 277.4748 L178.7855 276.7616 L179.3373 275.399 L179.4757 274.5843 L179.3952 273.6324 L179.0129 272.0264 L178.6282 269.8021 L178.4642 268.4772 L178.391 267.887 L178.5422 266.5009 L179.2245 265.783 L179.7903 265.3488 L180.1408 265.1863 L181.3401 264.9279 L182.9802 264.474 L183.9606 264.2024 L186.8042 263.8227 L189.5801 263.3886 L190.1093 263.2514 L190.5081 263.4027 L190.8092 263.2721 L190.8428 262.8266 L190.7318 262.8248 L190.0087 262.8802 L187.2169 262.6312 L186.0884 262.6218 L185.1915 262.7129 L184.716 262.7073 L183.8862 262.6387 L183.56 262.4536 L183.3533 262.12 L183.3393 261.7638 L183.785 261.2723 L183.9514 260.8626 L183.9758 260.6963 L184.0282 260.3354 L184.0075 260.2311 L183.9508 259.9445 L183.7106 259.2312 L183.3875 258.9954 L183.0564 258.8375 L182.4052 258.2464 L182.154 257.8921 L182.1236 257.7126 L182.0851 257.5764 L182.0827 257.3302 L182.137 256.9759 L182.3857 256.0126 L182.4436 255.9027 L183.2222 254.4649 L183.4204 254.0345 L183.7777 253.8926 L184.5331 253.8202 L184.655 253.7873 L184.8123 253.2075 L184.7532 252.3721 L184.5367 251.3421 L184.6934 250.5424 L185.0556 249.9071 L185.5232 249.5397 L185.9079 248.9608 L186.0957 248.4486 L186.217 247.1668 L186.4042 246.6349 L186.8225 246.2054 L187.2523 246.0306 L187.6321 245.9367 L188.0199 245.9188 L188.4101 245.994 L188.7954 245.9508 L189.0637 245.5467 L189.1838 245.0232 L189.2478 244.4547 L189.4179 243.9256 L189.6258 243.5111 L191.7049 241.8506 L192.367 240.8666 L192.6804 240.33 L192.9822 239.6938 L193.4943 239.1074 L193.662 239.0576 L193.6687 238.9927 L193.1767 238.7898 L191.5293 239.7295 L190.227 240.9869 L187.8815 242.8477 L185.9043 244.2761 L185.4647 244.3682 L183.2692 240.7877 L183.0954 240.0669 L183.1533 239.5162 L183.46 238.9974 L183.5057 238.9599 L183.8868 238.6441 L184.7087 238.7136 L185.4263 239.067 L186.8816 239.4222 L187.8169 239.7511 L188.3174 239.6788 L188.343 239.6525 L188.5912 239.3931 L188.6558 238.6798 L188.7387 238.3556 L188.9503 237.975 L189.3051 237.6545 L189.6392 237.5323 L189.9337 237.5164 L190.3562 237.4271 L190.3959 237.3754 L190.7635 236.8961 L190.7928 236.6997 L190.8074 236.6029 L191.0342 236.2026 L191.0891 235.9479 L190.8769 235.9319 L190.3032 235.6556 L190.2178 235.5851 L189.7155 235.1688 L189.2679 234.7224 L189.2326 234.338 L189.2984 234.0166 L189.3795 233.9602 L189.7789 233.6821 L190.1739 233.5016 L194.1144 231.42 L194.9673 231.0093 L195.7764 230.7405 L196.8452 230.3327 L200.8393 229.4323 L202.6007 229.0705 L203.0183 228.7764 L203.0092 228.6955 L197.9725 229.0527 L194.3461 229.5818 L193.6096 229.5827 L193.1102 229.5141 L192.8365 229.2566 L192.7956 228.891 L193.0017 228.5386 L193.5096 228.1204 L194.7088 227.2379 L196.2739 226.5951 L196.6013 226.4137 L196.7324 226.2211 L195.1289 226.5951 L194.5924 226.5707 L193.9406 226.3545 L193.373 226.0519 L192.8541 225.5829 L191.9939 224.1742 L191.5592 223.5548 L191.1001 223.3049 L188.8168 221.6047 L186.8438 219.649 L186.0488 219.0579 L185.4952 218.7863 L184.7928 218.4413 L182.7936 216.9301 L181.6279 215.6745 L181.2029 215.1351 L181.0011 214.6905 L180.7018 213.8306 L180.6688 213.5909 L180.517 212.7799 L180.4963 212.4425 L180.6499 212.0684 L180.9365 211.8231 L181.7541 211.4773 L182.5711 211.1981 L183.2198 210.9303 L183.8758 210.8062 L184.405 210.3044 L184.758 209.5168 L185.7086 208.6108 L186.6798 207.8899 L188.7009 206.811 L193.009 204.311 L193.2767 204.2011 L193.106 203.5319 L193.0425 202.6804 L193.0218 202.3862 L193.0931 201.968 L192.8584 201.1531 L192.5267 200.3778 L192.1512 199.3157 L191.9317 198.6964 L190.3129 194.9661 L189.7801 193.9115 L189.4307 193.1098 L189.0241 192.5431 L188.2754 190.1041 L188.1741 184.9367 L187.0804 185.0372 L186.9133 184.8183 L186.7664 184.8211 L183.4533 184.9968 L179.6811 184.8737 L177.1162 184.4592 L175.6401 183.9423 L175.1176 183.0926 L174.3988 183.0259 L170.9491 177.3518 L169.6749 176.5434 L167.6818 175.3206 L163.1365 172.6156 L162.0385 172.1015 L159.8198 171.124 L158.8595 170.6446 L158.5248 170.3852 L158.337 169.9895 L158.3443 169.763 L154.8093 167.6585 L156.5281 163.8603 L156.283 163.5773 L156.1635 163.114 L156.222 162.4193 L156.5 161.9456 L157.2951 160.6316 L158.0913 159.327 L158.9455 158.0148 L159.7808 156.4498 L160.1545 155.8473 L160.2722 155.5804 L158.8028 154.1799 L159.7478 152.0086 L155.0611 152.1787 L154.9014 152.2342 L154.5941 152.2172 L154.5655 152.1966 L154.2759 152.0998 L153.8539 151.5856 L153.6717 151.1645 L153.5107 150.4078 L153.304 149.6023 L151.7731 146.4534 L151.9389 146.3745 L151.8761 146.2372 L151.6755 145.7315 L151.5603 145.2258 L151.6304 144.7935 L151.9048 144.363 L152.2029 144.1421 L152.4736 143.8309 L152.8705 143.438 L153.0193 143.3318 L153.0089 143.2942 L152.9266 143.3299 L152.4456 141.8269 L151.9346 140.745 L150.989 139.3369 L149.5977 137.1966 L149.3093 136.8065 L146.487 133.8108 L147.0528 133.6256 L147.8777 132.9497 L148.5801 132.0972 L148.8441 131.1149 L148.8929 129.953 L148.785 128.9097 L148.81 128.2949 L149.0106 128.043 L149.2874 128.0881 L149.43 128.2648 L149.505 127.8042 L152.7974 131.6018 L151.7731 132.758 L154.1753 133.3408 L155.6952 134.0542 L155.7361 133.9828 L155.6702 132.6292 L155.5562 131.6817 L155.3892 130.8667 L155.1343 130.3337 L154.7343 129.7068 L154.2173 128.0383 L154.2179 127.5871 L154.4088 126.9366 L154.5795 126.2692 L154.7179 125.2944 L154.8618 124.6063 L154.8697 124.3431 L154.724 123.0008 L154.8203 122.8795 L154.777 122.6257 L154.8368 122.0241 L155.0154 121.493 L155.3075 121.0691 L155.6525 120.6649 L156.1409 120.0999 L156.6293 119.4588 L156.7293 118.8346 L157.1591 118.0469 L157.5292 117.5637 L158.0438 117.1567 L158.8406 116.9236 L159.6046 116.6247 L159.9295 116.4235 L161.4714 114.4758 L161.6147 114.2652 L161.7452 114.1298 L165.0046 108.8074 L176.1016 113.0751 L182.8649 117.5111 L183.7527 115.695 L179.8031 111.3859 L182.3717 110.6404 L184.5538 112.4359 L186.3493 111.4413 L187.1779 109.3695 L186.6591 109.0809 L185.1348 107.7291 L184.2264 106.3501 L183.5185 104.2519 L183.1924 102.3427 L182.5351 98.573 L181.5267 94.8899 L181.3249 92.0885 L181.6468 89.2626 L182.1559 87.2066 L183.7179 81.8096 L183.8691 79.2986 L183.6953 77.4908 L184.8733 70.1636 L185.4171 68.8775 L186.8633 67.5416 L189.149 67.8819 L191.3915 67.4522 L191.2507 65.5024 L192.1457 64.4758 L193.6187 64.0245 L195.4764 57.5103 L196.7208 56.9895 L206.974 57.6871 L208.1818 66.7274 L209.0592 68.4695 L209.136 68.6688 L216.8699 78.2541 L223.8082 83.8759 L226.497 80.5198 L225.9964 79.9614 L225.8672 79.8589 L224.232 78.6556 L222.798 77.1993 L222.1145 76.4679 L221.4932 75.7638 L220.247 74.2446 L218.9923 72.5731 L218.0832 71.2626 L217.9863 71.0247 L217.3882 70.3572 L218.7905 68.5334 L219.3166 67.8133 L220.2367 64.8801 L221.4195 62.165 L223.268 58.9384 L223.0644 55.2117 L222.7907 53.6134 L222.5218 51.0665 L222.2395 47.9932 L222.2127 44.4741 L222.5376 44.3444 L221.2512 44.1121 L220.7025 44.0134 L219.4672 43.9862 L218.7978 43.9711 L215.4811 44.1215 L214.9122 44.2015 L212.5923 44.7026 L211.0687 45.2526 L209.7323 45.6662 L208.9976 45.9267 L208.455 46.0047 L208.0349 45.8129 L207.8349 45.4613 L207.8197 45.3513 L207.1673 45.2554 L206.8368 45.5647 L206.2241 45.7772 L205.2047 45.8402 L204.4054 45.6662 L203.7872 45.3522 L203.6317 40.6655 L202.9939 39.9415 L201.1179 39.8221 L199.651 39.0766 L199.098 37.9465 L199.2663 36.4074 L200.0119 34.5317 L199.4108 34.1462 L198.1847 33.3047 L199.2181 30.6355 L202.441 24.3597 L207.7794 22.8929 L207.8995 19.6943 L207.0094 17.6023 L204.9657 17.9154 L197.3427 20.1992 L196.6214 19.0211 L194.5771 17.6982 L194.1443 16.1835 L194.9381 14.1874 L194.8417 12.3361 L188.4455 8.0561 L187.2669 7.7674 L185.6384 6.2188 L184.6392 4.706 L181.7645 1.7583 L181.1578 0.7475 L180.6627 1.6802 L179.9811 3.2467 L180.6749 5.3707 L183.2149 8.0128 L190.3282 12.9171 L190.4434 13.7972 L190.4044 14.5165 L189.2856 14.9452 L188.0955 14.6556 L187.1383 13.9034 L184.9239 11.5397 L180.0262 8.1576 L178.0258 6.263 L174.3335 1.8269 L173.536 0.0 L173.2019 1.0352 L173.7043 3.7516 L180.0287 9.7147 L184.5257 12.9858 L183.9728 15.5347 L183.0765 16.5878 L184.3294 20.8338 L182.7576 24.7686 L180.7883 23.9243 L179.9195 26.1761 L174.9572 37.718 L176.7918 42.8993 L166.4276 47.3021 L164.2266 48.9756 L161.7251 47.3773 L160.5648 48.325 L158.6217 49.8199 L157.9041 50.446 L157.4469 50.8447 L156.9567 50.4065 L156.7988 50.164 L153.8186 47.3642 L150.3244 46.755 L150.2214 46.6694 L150.1184 46.2811 L150.5671 44.444 L150.6933 43.5969 L150.778 43.281 L148.0296 39.8625 L146.4718 41.7899 L141.4741 45.6061 L138.4763 45.0617 L136.4484 46.0085 L136.8179 47.0248 L138.8177 47.195 L141.2687 50.8277 L141.437 51.4981 L140.1468 53.8278 L146.0438 55.38 L147.1528 57.6514 L147.3997 63.3373 L146.9431 66.169 L146.5687 68.4911 L145.7444 73.6016 L143.7727 74.6047 L137.505 73.3806 L144.5732 77.7032 L148.4765 80.6937 L152.6333 85.2964 L153.9545 76.6578 L153.0748 74.8481 L159.5216 70.424 L162.2159 71.8623 L161.2172 79.5233 L156.7597 87.9672 L157.8468 96.4927 L153.2833 94.0654 L139.7188 93.4205 L139.3713 95.9427 L136.0613 95.8196 L132.7946 98.0231 L128.5438 98.9002 L124.0193 101.2419 L122.0652 105.7663 L120.5123 105.7513 L117.0669 113.9061 L116.4475 116.8305 L114.1422 121.7628 L112.4564 123.3994 L112.1589 125.159 L111.7132 126.4976 L110.0274 128.4556 L107.3753 130.7361 L105.4169 130.7605 L104.9462 129.6457 L106.3589 128.5553 L106.607 127.6623 L107.549 125.1092 L110.1512 121.4159 L109.1848 120.4252 L106.4089 123.1756 L103.5336 125.0594 L99.6669 126.0267 L98.0805 125.7042 L96.4691 124.3159 L95.518 122.888 L95.874 122.8269 L96.185 122.7348 L96.7794 122.747 L99.2237 122.5308 L99.7742 121.6735 L99.6706 121.5955 L99.5773 121.2148 L99.8053 120.7466 L100.4443 120.1648 L101.1601 119.5133 L102.7788 116.9903 L102.6428 116.9076 L102.0252 116.62 L101.271 116.2449 L100.365 116.1086 L98.7195 116.2082 L98.0951 116.133 L97.6257 115.5737 L97.4379 114.4203 L97.3147 113.6579 L93.584 111.8897 L92.4585 108.3439 L90.4045 107.9519 L87.1005 108.28 L84.9178 108.4971 L84.8953 107.4998 L85.016 105.9421 L85.0514 104.0263 L85.0489 103.9445 L84.8368 102.6501 L84.5008 101.2334 L84.1783 100.6233 L84.2941 99.53 L84.485 98.8814 L84.7904 97.0586 L83.9478 94.8306 L83.6838 93.8314 L83.6405 93.3952 L84.3332 93.1122 L86.1622 92.8386 L87.5968 95.107 L89.3253 95.6194 L91.3172 98.4546 L91.5611 98.6041 L91.686 98.6623 L93.2786 97.1188 L93.0457 95.5009 L94.1535 93.1113 L95.3393 90.1942 L86.6677 82.2383 L87.5365 81.0453 L89.4412 79.935 L90.9904 78.1977 L93.2097 78.1564 L94.8839 79.056 L95.4076 78.5954 L94.3608 76.5441 L93.5237 74.2418 L93.7121 72.8805 L93.1048 72.3362 L92.6616 71.3763 L91.1818 64.1975 L94.1693 63.0995 L93.5352 60.5385 L84.5411 61.2765 L84.0564 61.1571 L83.9192 61.0988 L83.5186 60.7021 L83.4052 60.5517 L81.317 57.4614 L79.113 57.1691 L77.7375 56.1697 L77.3662 56.1095 L77.1559 55.52 L76.8772 54.6156 L76.312 53.3953 L76.2096 53.055 L76.3828 52.8378 L76.7224 52.6009 L76.915 52.331 L76.7522 51.5723 L76.4462 51.3862 L75.9206 51.2179 L75.7225 50.9565 L75.6011 50.1743 L75.2103 48.2611 L75.1506 47.0436 L75.2506 46.4193 L75.4761 45.6192 L72.2143 30.4005 L71.1699 30.1777 L68.0836 30.3036 L67.8952 29.984 L67.8422 29.6587 L67.8526 29.4706 L68.2665 27.4135 L69.7328 23.0293 L67.2453 22.3711 L62.9329 41.4618 L56.9153 45.2733 L51.364 47.0906 L46.0243 51.3016 M81.3365 70.8733 L81.4804 70.4146 L81.7535 69.9755 L81.9846 69.7631 L82.273 69.6879 L82.5931 69.6691 L83.051 69.592 L83.24 69.231 L83.3985 68.9066 L83.8155 68.5371 L84.2057 68.4591 L84.7593 68.4817 L85.0306 67.8734 L85.3934 67.3987 L85.8153 67.0706 L85.9598 66.9878 L86.0939 66.9117 L86.2494 66.8816 L86.4098 66.8506 L86.7506 66.8637 L87.1786 66.9775 L87.378 67.0912 L87.7596 67.2435 L88.1858 67.0348 L88.4321 66.5817 L88.7589 66.3156 L89.1985 66.1474 L89.6765 66.0251 L89.8576 66.0317 L90.0259 66.0374 L90.3526 66.2301 L90.5612 66.6578 L90.7404 68.1094 L91.1123 70.2284 L91.6324 72.6107 L92.1409 73.8497 L92.7195 75.1349 L92.8408 75.4611 L92.8426 75.7074 L90.1319 77.4146 L89.9015 77.3986 L89.7661 77.3921 L89.7393 77.3911 L89.5332 77.2181 L89.0589 76.3053 L88.4559 74.9751 L88.087 74.2183 L87.7755 73.7745 L87.3676 73.846 L86.9371 74.2436 L86.3622 74.3226 L86.1958 74.3452 L85.7629 74.2136 L85.3526 73.7999 L84.938 73.8892 L84.4709 74.4176 L84.0832 75.0484 L83.8423 75.322 L83.5064 75.4272 L83.2235 75.4479 L82.8589 75.4743 L82.4663 75.3332 L82.2821 74.3264 L82.1748 73.7407 L81.6499 72.3183 L81.567 71.5709 L81.3365 70.8733 M88.7839 125.3508 L88.9162 125.0895 L89.1887 124.7953 L89.9051 124.4512 L90.3405 124.0959 L90.588 123.8045 L90.7904 123.7218 L91.0148 123.7566 L91.2684 123.9746 L91.6147 124.2679 L92.0531 124.627 L92.6701 124.9833 L93.0469 124.941 L93.4657 125.0472 L93.8925 124.846 L94.1413 124.486 L94.201 124.0376 L94.1059 123.7161 L93.8669 123.4708 L93.4542 123.0412 L92.9951 122.5731 L92.4969 122.2892 L92.1586 122.1482 L92.1128 121.8897 L92.1317 121.8117 L92.5439 121.7995 L93.1572 122.0533 L94.1077 122.2873 L94.8461 122.3663 L95.257 122.6257 L95.2973 122.8786 L95.3387 123.1362 L95.8972 124.0339 L96.3258 124.7605 L97.1306 125.5886 L97.4263 126.3378 L97.6769 126.9902 L97.4178 128.3203 L96.5715 129.4784 L95.8972 129.8177 L95.1729 129.8647 L94.7802 129.8449 L94.3882 129.8252 L93.2694 129.6786 L92.7018 129.6062 L91.7409 129.3562 L91.1721 129.1992 L90.1222 128.6023 L89.7905 128.2911 L89.6777 127.8869 L89.6765 127.8597 L89.6521 127.354 L89.4631 126.5756 L89.2241 126.0239 L89.043 125.6958 L88.7839 125.3508 M95.3253 157.7075 L96.3252 155.399 L97.4391 154.7946 L98.6304 154.49 L99.2712 154.4468 L99.6218 154.4233 L100.565 154.2729 L100.8198 154.1253 L102.7556 152.5481 L103.6945 151.4559 L104.453 150.1973 L104.8109 149.9106 L105.2017 149.9181 L105.6145 150.0413 L106.3382 151.2106 L106.654 151.7623 L106.8741 152.2906 L106.9442 152.8433 L106.6583 153.6243 L105.9711 154.7645 L106.0644 155.2213 L106.0126 155.5926 L105.3358 156.4432 L104.5067 157.3014 L103.9787 157.6576 L103.9207 159.0168 L103.0044 160.5226 L102.8989 163.5783 L100.6961 166.6142 L96.9428 161.1222 L97.28 160.2312 L95.3253 157.7075 M97.3867 150.7575 L98.5237 149.5779 L99.6968 148.23 L101.7387 145.7814 L102.1301 145.1845 L102.3459 145.0811 L102.6855 144.9185 L103.0068 145.0613 L103.2909 145.4035 L103.3397 145.4655 L103.7263 145.9581 L103.8848 146.4675 L104.0165 147.3464 L104.0 148.0373 L103.8025 148.6971 L103.4586 149.4162 L102.819 150.8308 L102.2801 151.8525 L101.3247 152.5631 L100.2955 153.1469 L99.5895 153.4298 L99.0066 153.5294 L98.1896 153.4251 L97.8561 153.097 L97.5842 152.7107 L97.486 152.0584 L97.3867 150.7575 M106.993 132.1996 L107.1338 131.8142 L110.7475 128.8232 L112.9302 125.3461 L113.2423 124.8498 L113.7252 125.1064 L113.5161 125.7418 L112.5022 128.3645 L110.6694 130.9429 L109.383 132.0417 L109.2598 132.147 L107.8874 132.539 L106.993 132.1996 M114.4282 195.3429 L114.6282 194.9736 L115.2866 194.3805 L117.1779 193.4059 L119.3332 192.3354 L120.9543 191.2094 L122.0682 190.5487 L123.1797 189.872 L124.1375 189.3325 L124.5997 188.9133 L125.0216 188.5176 L125.4618 188.2808 L125.9154 188.2667 L126.2337 188.3353 L126.786 188.6548 L127.4835 189.3391 L128.256 190.3964 L130.0259 192.9717 L130.6131 193.5986 L132.3019 194.8307 L132.9397 195.2753 L133.6158 195.4802 L134.0987 195.7828 L134.2975 196.0413 L134.2956 196.3307 L134.0993 196.5488 L132.7543 197.4135 L131.1844 198.1108 L131.0033 198.3392 L130.7429 198.7697 L130.4472 199.0075 L128.8383 199.4849 L126.9165 200.7293 L125.9995 201.2377 L125.4533 201.5046 L124.4668 201.9558 L124.1705 202.0122 L123.5035 202.14 L122.6584 202.2434 L121.8628 202.3655 L120.7129 202.5422 L118.8021 202.7217 L118.5558 202.6804 L117.1419 201.1353 L116.2963 199.9379 L116.1378 199.5808 L116.1006 199.1691 L116.4737 198.7866 L116.9761 198.4247 L119.4514 196.9736 L119.6398 196.6118 L119.1234 196.5422 L118.3412 196.826 L117.9333 196.9736 L117.4645 197.1794 L116.4932 197.671 L115.7713 197.9642 L115.3866 197.9088 L115.3403 197.9022 L115.0665 197.1926 L114.8153 196.6512 L114.455 195.5826 L114.4282 195.3429 M120.2599 238.5605 L120.3385 238.3452 L120.6288 238.1338 L120.6788 238.1122 L121.1055 237.927 L121.6725 237.7616 L122.7005 237.7833 L123.0663 237.6263 L123.3724 237.4947 L123.6669 237.2495 L124.1607 236.5052 L124.2961 236.0973 L124.3637 235.7778 L124.9307 234.6745 L125.2368 234.3277 L125.3411 234.2112 L125.513 234.0194 L125.7782 233.3654 L126.0093 232.778 L126.1203 232.4002 L126.0831 232.0149 L126.1392 231.592 L126.0142 231.0864 L125.9758 230.7434 L126.1867 229.5414 L126.2916 228.0781 L126.6263 227.9644 L127.0427 228.1984 L127.7457 228.7999 L129.098 229.9069 L130.7088 230.968 L131.0179 231.3072 L131.113 231.6587 L131.1734 231.8946 L131.3325 232.0854 L131.4538 232.122 L131.5825 232.1615 L131.6435 232.3974 L131.3862 232.8767 L131.3307 232.9641 L130.3015 234.5927 L129.6028 235.3511 L129.1602 235.6387 L128.5767 235.8257 L127.6006 236.039 L126.5976 236.3247 L125.7691 236.6264 L124.8612 237.1433 L124.1479 237.7569 L123.7992 238.2043 L123.6809 238.5915 L123.8284 239.1083 L123.8449 239.1647 L123.7882 239.2747 L123.0809 240.0472 L122.8352 240.3178 L122.4645 240.3939 L122.025 240.1656 L121.4201 239.551 L120.858 238.9786 L120.5714 238.7785 L120.2599 238.5605 M129.3913 335.8956 L129.512 335.3807 L129.6979 335.1468 L130.0644 334.7831 L130.7545 334.2044 L131.185 334.0559 L131.6276 333.9028 L132.4903 333.7289 L133.186 333.5072 L133.8438 333.4753 L134.5432 333.5166 L135.3467 333.7374 L135.4443 333.7637 L136.093 333.9723 L137.3423 334.5971 L138.6799 335.3497 L142.1375 338.5038 L143.2813 339.9386 L143.4233 340.2871 L143.5087 340.5897 L143.4605 341.3498 L143.1697 342.1907 L142.9502 342.6314 L142.7313 342.8681 L141.8619 343.9693 L141.3644 344.1112 L140.5858 344.0942 L138.9317 343.6545 L137.744 343.2148 L135.5388 342.4716 L133.7993 341.7294 L133.1226 341.2323 L131.4788 339.4895 L129.6235 336.7807 L129.3913 335.8956 M131.1527 210.5365 L131.7227 210.0948 L132.4379 209.9876 L133.1555 215.2253 L133.3329 215.1247 L132.8452 210.0224 L133.1848 210.0299 L133.6548 210.0403 L134.7303 210.2705 L135.6936 210.217 L136.4881 214.6905 L136.6832 214.7497 L136.0692 210.2019 L137.6349 209.9989 L138.6629 209.8025 L139.8359 209.6982 L140.2706 209.9735 L140.2352 210.3824 L139.2043 210.795 L138.5726 211.6493 L137.7044 212.5562 L137.5044 213.9011 L137.6361 214.8578 L137.7233 215.0213 L137.8916 216.1322 L137.9629 217.1538 L137.6733 218.4357 L137.6739 219.3539 L137.6099 219.9225 L137.466 220.4572 L137.1045 221.5427 L137.052 222.3115 L137.0966 223.3049 L137.299 223.9796 L137.2526 225.0134 L137.2136 225.1713 L137.0331 225.8517 L136.5667 226.0848 L136.1765 225.9974 L136.0101 225.9607 L135.2913 225.1394 L134.4121 224.2522 L133.7713 223.4477 L132.3056 221.1781 L132.0331 220.8971 L131.5099 220.1208 L131.3667 219.6631 L131.2862 219.4065 L131.3411 217.0025 L131.3667 216.8953 L131.4349 216.6106 L131.4624 216.4959 L131.6685 216.0645 L131.6776 213.5552 L131.1527 210.5365 M141.5693 47.3285 L141.7509 46.629 L141.9503 46.2576 L142.3856 45.843 L142.6234 45.8167 L143.1734 45.9295 L143.8836 46.3206 L144.8945 47.2523 L144.3952 47.587 L143.7861 48.1079 L142.6161 49.4062 L141.7973 48.2085 L141.5693 47.3285 M144.3946 347.6101 L144.5244 346.9185 L145.086 345.9179 L145.87 345.5177 L146.6821 345.3749 L148.2728 345.249 L148.7051 345.4087 L149.1544 345.7234 L150.889 347.8205 L153.1016 350.4888 L153.5284 351.0667 L153.5119 351.3805 L151.8212 354.7985 L151.4469 355.1536 L151.1286 355.0851 L148.2795 352.2796 L145.1744 349.0335 L144.8329 348.6248 L144.4574 348.1757 L144.4238 347.875 L144.3946 347.6101 M145.5079 51.7989 L145.5652 51.4774 L145.7499 51.2273 L146.4748 50.73 L146.9894 50.6294 L147.3357 50.7694 L148.4198 51.5394 L148.9228 51.9954 L149.9611 52.4824 L150.7573 53.0061 L151.7219 53.9782 L151.6639 54.6739 L151.331 56.7864 L151.9188 59.1706 L152.2785 60.8065 L151.5109 61.5304 L150.6207 62.6755 L150.3964 63.5517 L150.7866 63.9333 L151.1097 64.3987 L151.6853 66.75 L151.6286 67.3093 L151.4493 67.9844 L151.1975 68.3867 L150.975 68.8286 L150.9884 69.482 L150.6317 70.0836 L150.2592 70.2444 L149.3032 70.3431 L148.7295 69.9906 L147.8899 69.6079 L147.0254 69.3137 L147.0693 68.2551 L147.2882 67.7869 L147.4339 66.1671 L147.9381 64.9412 L148.0485 63.798 L148.3131 62.3643 L148.2332 60.9616 L147.9857 59.5006 L147.8271 57.0854 L147.5528 56.1462 L147.1077 55.5755 L146.3566 54.7745 L145.9225 54.3806 L145.6524 53.7817 L145.5079 51.7989 M161.8818 68.3999 L163.0268 65.8813 L164.12 63.2226 L165.1095 61.6046 L165.6259 60.9945 L166.0009 60.6504 L166.6733 61.9628 L165.9283 62.6585 L164.6809 64.3291 L163.5048 66.1878 L162.5573 67.8847 L161.9019 68.5813 L161.8818 68.3999 M162.3793 70.2914 L163.1841 68.4478 L164.573 66.9089 L168.4073 61.7729 L169.3036 60.7501 L170.5723 60.6081 L171.0363 60.6485 L171.2985 61.3574 L168.5201 64.4363 L163.5682 70.251 L162.964 70.5951 L162.5915 70.5443 L162.3793 70.2914 M164.3748 80.9297 L164.8894 78.618 L165.3028 77.6168 L165.5375 77.048 L165.6448 76.891 L165.8588 76.5779 L166.2307 76.341 L166.8343 76.3504 L167.2727 76.4792 L167.7921 76.8045 L168.0872 77.9646 L168.1689 78.2842 L168.439 79.8702 L168.8634 80.563 L169.47 81.1327 L169.9931 81.568 L170.5162 81.5435 L170.9955 81.2766 L171.2814 81.0237 L171.5893 80.5893 L172.0838 80.611 L172.6416 80.7943 L173.1739 81.0462 L173.5232 81.3978 L173.694 81.8857 L173.75 82.7384 L173.511 87.2142 L173.7244 87.6569 L174.4183 86.9885 L174.7371 86.6285 L175.1883 86.6501 L175.6041 86.8372 L176.026 86.7545 L176.2681 86.3493 L176.6827 81.5511 L177.0936 80.8921 L177.5106 80.752 L177.9399 80.8742 L178.2264 81.0885 L179.2165 82.0089 L179.9323 82.8653 L180.528 84.032 L181.223 85.7495 L181.0999 86.0362 L180.3359 88.378 L179.1074 90.244 L178.8495 90.5073 L178.5044 90.636 L178.2148 90.6144 L177.91 90.4377 L177.4753 90.3418 L177.1064 90.6896 L177.043 91.1813 L177.3667 92.2295 L177.5637 93.3002 L177.871 94.3193 L178.3057 95.0901 L179.1068 97.2269 L179.6799 99.0732 L179.7994 99.0985 L179.9268 98.8504 L179.5507 97.3303 L179.0294 95.6203 L178.5611 93.6227 L178.4386 92.9477 L178.4361 92.4438 L178.7733 91.9202 L179.3501 91.7829 L179.6165 91.7538 L179.8256 92.1797 L180.8773 95.8873 L181.6321 99.6494 L182.8363 107.2713 L182.993 108.1465 L183.1375 108.7143 L183.8551 109.6778 L185.3866 111.0193 L184.9251 111.5626 L184.6916 111.7093 L184.441 111.7187 L184.0648 111.5626 L183.5893 110.836 L183.1442 110.4947 L182.5174 109.5942 L182.4071 109.7324 L182.2376 110.1469 L181.8553 110.4242 L181.4791 110.4299 L181.0712 110.3142 L178.266 107.5872 L178.9233 108.9164 L179.5226 109.6233 L180.9316 110.5098 L180.6542 110.9187 L179.3428 110.4007 L177.582 110.0924 L177.0558 109.8809 L176.754 109.5904 L176.2041 108.6429 L174.8457 106.4742 L174.5932 105.9797 L174.5061 105.3593 L174.1945 104.7595 L171.988 102.4639 L170.743 99.7368 L170.3656 99.0139 L170.4833 99.0008 L170.9973 99.1211 L172.8434 100.1655 L174.0829 101.0134 L174.7256 101.6047 L175.0121 102.0484 L175.3145 102.934 L175.62 103.2724 L176.337 102.5213 L176.679 101.8623 L176.6436 101.3133 L176.4626 100.5255 L176.012 99.7509 L174.9621 98.7037 L171.2704 95.8017 L170.2193 94.9115 L169.9297 94.7282 L168.675 95.2283 L168.0665 95.405 L167.555 95.3985 L166.7575 94.8673 L166.1484 93.9658 L165.2351 91.9334 L164.9991 91.0318 L164.7632 89.9235 L164.7077 89.4779 L164.6284 88.8452 L164.6156 87.5883 L164.4754 85.945 L164.3876 83.403 L164.3748 80.9297 M166.0441 60.6504 L166.399 60.3251 L167.0203 59.667 L167.1044 59.4367 L167.4288 59.07 L168.8402 58.2869 L170.0614 57.7792 L170.6565 57.532 L172.5014 57.0309 L174.1457 56.6999 L176.8083 56.3511 L178.0008 56.1951 L179.4245 55.8519 L179.9055 55.5774 L180.0524 56.1828 L179.6372 56.9519 L178.5751 57.4182 L175.9382 58.3189 L174.1945 59.0334 L173.1586 59.3276 L171.8777 59.5561 L170.0645 59.6482 L168.814 59.7714 L168.0086 60.6871 L166.7166 61.9628 L166.0441 60.6504 M172.0588 291.8914 L172.413 291.2655 L173.3489 290.4546 L174.0957 289.4764 L174.5506 288.8797 L175.506 287.5379 L175.7218 287.8724 L175.8163 288.019 L175.8315 293.1872 L176.1876 296.3858 L176.6534 299.2752 L176.7955 300.322 L177.2076 302.9624 L176.8247 302.6429 L176.2736 302.1834 L175.7017 301.8479 L174.9743 301.4787 L174.1116 300.8867 L173.5117 300.2223 L173.3476 298.7471 L173.2855 298.1899 L172.7398 296.5596 L172.5197 295.7252 L172.4179 294.5807 L172.174 292.9241 L172.0588 291.8914 M176.1455 76.6428 L176.1827 75.6012 L176.5534 74.2841 L177.0363 72.4518 L177.4009 70.3149 L177.6759 69.8881 L178.1435 69.6747 L178.8532 69.6465 L179.536 69.5356 L180.1274 69.2827 L180.7646 68.9132 L181.3072 68.5296 L181.7559 67.833 L182.2181 67.2623 L182.6497 67.0264 L183.1619 66.9775 L183.8313 67.1241 L184.3209 67.5622 L185.1678 68.3096 L184.8922 69.1144 L184.733 70.3488 L184.3587 72.3221 L183.6752 76.3194 L183.221 78.006 L182.6424 80.297 L182.5516 82.1527 L182.162 84.1354 L181.8858 85.1779 L181.6163 85.4806 L181.3395 85.5888 L181.1456 85.3716 L181.0517 85.0595 L180.7889 84.1448 L180.5054 83.2254 L180.0189 82.3436 L179.4769 81.6545 L178.7282 80.8498 L177.4539 79.559 L177.0619 79.3136 L176.7631 78.9902 L176.5991 78.6593 L176.4687 78.4017 L176.2242 77.5021 L176.1455 76.6428 M181.5974 42.323 L181.7955 41.8162 L183.1009 38.9901 L183.4728 37.8938 L183.9892 36.3735 L184.4904 35.5086 L184.791 34.8119 L185.3269 34.0625 L186.0658 32.704 L186.3426 32.75 L186.6389 32.9719 L186.4762 33.4157 L185.6177 35.9956 L185.13 37.8618 L184.8452 39.6463 L184.791 40.8347 L184.6879 41.5859 L184.5306 42.5392 L184.2057 43.8856 L183.7405 45.7245 L182.6125 45.655 L182.4089 45.4397 L182.19 45.2084 L181.9498 44.8784 L181.7376 44.1197 L181.609 43.266 L181.5974 42.323 M183.1003 51.0026 L183.4948 50.1377 L183.8014 49.1552 L184.1173 48.1426 L184.5788 46.6233 L184.7763 45.9727 L185.4946 42.967 L185.7073 40.422 L186.1652 37.7114 L186.3932 36.7233 L186.7633 35.4935 L187.1608 34.2609 L187.6724 32.5338 L187.9315 31.6274 L188.6217 32.2649 L189.0984 32.8158 L189.096 33.4796 L188.5948 34.999 L188.1589 36.9527 L187.9815 38.0273 L187.8041 39.0277 L187.8675 40.1061 L187.5401 40.9945 L187.3413 42.4584 L186.5505 44.9075 L186.2561 46.2256 L185.7214 47.5955 L185.4635 48.5591 L185.1653 49.3837 L184.4898 50.1743 L183.9051 51.3204 L183.1003 51.0026 M186.2 20.3139 L186.3182 18.3846 L186.4841 17.3738 L186.6853 17.0203 L187.3377 16.3894 L188.5192 15.8563 L189.8221 15.4144 L189.9087 15.8234 L189.9575 16.4618 L189.9953 18.3047 L189.9581 19.3013 L189.9898 20.0817 L189.4466 20.1945 L188.7698 20.2707 L188.3632 20.281 L188.2205 20.3318 L187.9193 20.3572 L186.514 20.3224 L186.2 20.3139 M197.4829 55.4204 L197.6311 55.1101 L197.8981 54.8065 L198.3176 54.1559 L198.4725 53.4724 L198.7706 52.7447 L198.9224 52.0753 L198.9883 51.1436 L198.9669 50.6181 L198.8547 49.2727 L198.631 46.9204 L198.717 46.8546 L199.323 46.7202 L199.7351 46.7672 L200.1948 46.9364 L200.6789 46.7888 L201.3325 46.9204 L201.4728 46.9994 L201.6977 48.011 L201.8489 49.3714 L201.9142 51.6457 L201.9215 52.7278 L201.5667 55.3311 L201.5026 55.7429 L201.3142 56.0211 L200.757 56.2665 L200.3357 56.4245 L199.9065 56.5091 L198.7865 56.181 L197.6354 55.8077 L197.5073 55.6385 L197.4829 55.4204 M201.8398 56.7648 L202.0026 55.1045 L202.3294 52.7804 L202.3641 49.5096 L202.4129 47.1987 L202.3343 46.5697 L203.0787 46.4015 L203.9134 46.8104 L203.7292 50.1903 L203.9188 53.8014 L204.0085 56.8203 L202.5196 56.9293 L201.8398 56.7648 M203.8524 488.1283 L203.8737 487.5563 L203.9719 487.2229 L204.1438 487.0162 L204.8236 486.4987 L205.654 485.9633 L206.9435 485.2805 L207.4228 485.0269 L208.0465 484.6934 L208.2873 484.5732 L208.6434 484.499 L208.6885 484.5187 L208.9019 484.6145 L209.0799 484.7648 L209.2634 485.0419 L209.4372 485.6177 L209.5183 486.2874 L209.7268 488.1593 L209.9005 488.3678 L210.1401 488.4928 L210.498 488.5238 L210.7072 488.5003 L210.923 488.4589 L211.1071 488.4383 L211.3961 488.3725 L211.4455 487.7244 L211.2297 486.8941 L210.7596 485.9492 L210.6212 484.8738 L210.4797 484.1186 L210.459 483.788 L211.5437 483.3644 L214.1294 482.5932 L217.6461 481.1552 L221.0488 479.7801 L224.21 479.2137 L227.1811 478.6839 L228.1785 479.3922 L227.7907 480.0468 L228.5919 481.4492 L229.3266 482.7332 L227.8127 483.5691 L226.9792 484.3252 L226.2055 484.5535 L225.3825 485.0241 L224.9923 485.3453 L223.2187 486.4029 L221.5902 487.6972 L220.9604 487.5065 L219.9592 488.18 L219.8599 488.2861 L220.1111 488.9389 L219.5349 489.897 L218.3759 490.9348 L219.5648 491.365 L220.6744 491.4918 L221.2067 491.4674 L221.5841 491.473 L221.3487 491.8891 L221.075 493.0162 L220.953 493.4802 L220.7549 493.731 L220.4805 494.6083 L220.3921 495.3108 L219.9336 497.0484 L219.0545 497.5472 L217.4004 497.2663 L215.6408 497.5124 L212.888 497.2353 L212.6198 498.0975 L209.4585 497.9219 L209.0878 497.8205 L208.7671 497.6993 L208.3653 497.41 L208.1702 497.2241 L208.0379 497.0973 L207.9227 496.9874 L207.552 496.9348 L207.0258 496.6962 L206.5277 496.3355 L206.3832 496.1928 L205.9979 495.834 L205.8565 495.431 L205.5388 494.5256 L205.3144 494.0325 L205.1065 493.6906 L204.6499 492.8575 L204.3023 492.0262 L204.2505 491.7041 L204.2408 491.3143 L204.2145 490.5441 L204.0176 489.4611 L204.0012 489.3268 L203.8725 488.5998 L203.8524 488.1283 M226.6311 427.5006 L228.765 427.5006 L235.6918 430.3394 L236.313 435.7502 L232.9475 436.5186 L229.5003 430.4267 L228.198 429.6874 L226.6311 427.5006 M226.8335 492.8857 L226.8573 492.4038 L227.1225 492.1145 L227.87 491.6083 L229.1235 491.4881 L230.474 491.6083 L231.1252 492.3559 L231.4142 493.175 L231.4385 493.8982 L231.1252 494.1396 L230.3295 494.2842 L229.6302 494.6223 L229.2924 495.0563 L229.0034 495.4179 L228.7864 495.6583 L228.5693 495.369 L228.5693 495.0074 L228.4248 494.7426 L228.1834 494.7426 L227.4603 494.5735 L227.2676 494.3331 L227.0024 493.8503 L226.8335 492.8857 M229.6229 485.8628 L229.7473 485.7473 L230.7337 485.3829 L231.8976 484.823 L233.3371 484.0228 L234.0572 483.5879 L234.6345 483.4808 L235.3546 483.9392 L235.8253 484.236 L236.1515 484.6089 L236.4728 484.9639 L236.7508 485.5303 L236.9453 485.9962 L236.4472 486.3775 L236.163 486.6264 L236.0917 486.6884 L235.5857 487.4173 L234.7412 487.8888 L234.2261 488.2354 L233.2487 488.7417 L232.6177 489.2301 L232.0665 489.772 L231.6227 490.1628 L230.7874 488.4392 L230.1027 487.0266 L229.6942 486.0939 L229.6229 485.8628 M231.2703 497.6336 L231.2794 497.1978 L231.366 496.7629 L231.4922 496.4783 L231.5904 496.3534 L231.8921 496.0782 L232.15 496.0519 L232.5854 496.2735 L232.7719 496.6201 L232.861 496.9667 L232.9408 497.2156 L233.1365 497.3668 L233.403 497.5443 L233.634 497.8825 L233.9895 498.4423 L234.6205 499.4548 L234.887 499.8727 L235.2064 500.1216 L235.7576 500.5922 L235.8552 500.8232 L235.8198 501.0721 L235.5802 501.2412 L235.2601 501.3295 L234.7979 501.3032 L234.4157 501.1783 L234.1815 501.0374 L233.945 500.8946 L233.6426 500.6636 L233.4206 500.4766 L233.1274 500.2193 L232.7634 499.6774 L232.5232 499.3571 L232.2476 499.1439 L231.9812 499.0189 L231.6794 498.8865 L231.466 498.4423 L231.3501 498.0421 L231.2703 497.6336 M232.2775 491.5237 L232.7567 491.2222 L233.7035 490.6333 L234.6669 489.9796 L235.7521 489.7626 L236.2405 489.88 L236.8715 490.1834 L237.6665 490.7413 L237.5288 491.1809 L237.4007 491.2861 L237.922 491.9417 L238.2415 492.108 L238.6445 492.1136 L239.7852 491.9859 L240.8498 492.0695 L241.7704 492.2188 L242.4874 492.3409 L242.7465 492.4123 L243.1599 492.6649 L243.3434 492.942 L243.1934 493.2717 L242.8245 493.5657 L242.4825 493.654 L241.8246 493.7244 L241.0424 493.7573 L240.3547 493.8005 L240.2492 493.8014 L239.9797 494.1104 L239.9096 494.3509 L239.9992 494.8092 L240.0876 495.0009 L240.2553 495.1399 L240.537 495.2789 L240.4041 495.525 L240.2864 495.7842 L240.2084 495.9673 L239.8596 496.6784 L239.5109 497.4542 L239.2164 498.0496 L238.8701 497.9228 L238.5939 498.2892 L238.275 498.3643 L237.7928 498.4131 L237.0764 498.3446 L236.0222 498.1642 L235.3119 497.9905 L234.4242 496.962 L233.4127 495.2188 L233.156 494.4505 L232.853 493.5685 L232.4762 492.309 L232.2775 491.5237 M240.4486 468.0418 L240.5108 467.3805 L240.9577 467.1353 L241.5735 467.0574 L242.0734 467.3993 L243.4617 469.2262 L244.7353 470.5553 L245.6925 472.0422 L246.2218 472.6471 L247.4759 473.8353 L248.1795 474.2223 L248.3679 474.135 L248.5343 473.8504 L248.3167 473.6757 L246.4095 471.9624 L245.4962 470.8691 L244.0451 468.5076 L243.1605 467.079 L243.1489 466.4149 L243.4647 465.903 L243.8659 465.4671 L244.3116 465.0689 L244.3976 464.9918 L245.0255 464.9148 L245.0841 464.9148 L246.1675 465.0294 L248.2118 466.196 L249.0599 466.6985 L249.3037 466.7371 L249.7988 466.815 L250.5091 466.6694 L251.0597 466.2759 L253.746 463.1198 L255.5196 461.2609 L256.6073 460.3976 L258.5003 458.7501 L260.205 457.0809 L263.3962 454.2253 L263.3059 454.0234 L262.0707 454.8068 L260.1813 456.3341 L256.9151 459.0234 L255.2025 460.2652 L253.0735 461.77 L251.8218 462.5553 L250.9621 462.8305 L250.0043 462.9798 L249.3019 462.9958 L248.0551 462.4707 L246.4565 461.4046 L246.3242 460.9772 L246.1443 460.0454 L246.1455 459.5184 L246.3169 459.0065 L246.5845 458.6129 L246.8924 458.1602 L247.3509 456.8686 L247.61 456.0871 L247.9502 454.9871 L248.3404 453.7482 L248.7422 452.2339 L248.7739 451.4919 L248.8221 450.3553 L249.0233 449.4995 L249.4928 448.8439 L249.6312 448.702 L249.9116 448.4146 L250.7493 448.0999 L250.9835 448.0351 L252.3498 447.6556 L252.9003 447.4771 L253.4381 447.3578 L254.0344 447.308 L254.4874 447.3428 L254.8806 447.3747 L255.2928 447.4226 L255.9 447.6265 L256.7883 448.0915 L257.0785 448.2427 L259.7703 449.6818 L260.4154 450.1411 L261.7781 451.1171 L262.2926 451.5914 L262.3871 451.846 L262.6774 452.6764 L262.8444 452.9901 L263.1413 453.2888 L263.5693 453.5734 L263.9608 453.5293 L264.015 453.4833 L264.165 453.1968 L264.2077 452.9835 L264.2089 452.6294 L263.8163 452.2884 L263.309 451.8808 L261.4531 450.6286 L259.5685 449.1135 L258.1114 447.8472 L257.5986 447.4837 L257.1042 447.1324 L256.9365 446.7679 L256.7682 446.4016 L256.756 446.3753 L256.6755 445.6538 L256.792 445.5082 L257.0956 445.2753 L257.6175 445.217 L258.3857 445.5956 L259.6649 446.55 L260.4733 447.154 L261.0458 447.5551 L264.2851 449.383 L264.7204 449.7325 L265.2131 450.0087 L265.9599 450.7883 L266.4959 451.4581 L267.1629 452.1137 L267.5183 452.3391 L268.2792 452.6529 L268.5688 452.8858 L269.1127 453.6213 L269.4248 454.648 L269.4181 455.1618 L269.4498 455.3131 L270.1997 455.6212 L271.5911 456.2627 L272.83 456.8385 L273.1635 456.8677 L275.0255 456.9917 L275.7644 457.1081 L276.4454 457.2979 L277.0765 457.6257 L278.294 458.4861 L279.6567 459.4621 L283.4106 461.7653 L284.7799 462.8643 L287.2925 464.9054 L286.0115 466.1246 L286.0987 468.8233 L284.083 469.5212 L279.4841 469.8161 L277.7282 469.7945 L276.8515 469.6264 L274.192 468.8608 L272.6592 468.1141 L271.688 467.6867 L271.2856 467.4941 L270.9765 467.078 L271.024 466.6647 L271.5295 466.2599 L272.1014 465.9161 L272.7361 465.3694 L273.0568 464.7467 L272.4233 464.4104 L271.8947 464.0525 L271.4149 463.7745 L270.5906 463.3734 L269.7559 462.7271 L269.3785 462.5318 L268.9895 462.312 L268.5176 462.1091 L267.7921 461.8339 L267.1623 461.6122 L266.2636 461.2477 L265.3795 461.0138 L264.7131 460.9556 L264.2059 461.1453 L263.4023 461.6338 L261.483 463.3753 L258.7247 465.8748 L258.2498 466.3698 L257.8583 467.0818 L257.309 467.7045 L256.7432 468.5584 L256.278 469.4094 L255.6665 470.4633 L255.2513 471.3763 L255.3324 471.8769 L255.6976 471.7341 L255.8835 470.8897 L256.4365 469.8415 L257.2017 468.6429 L257.8846 467.6998 L258.5619 467.0038 L258.9454 466.6901 L259.3728 466.3773 L262.9981 463.3039 L263.5888 462.8981 L264.0528 462.7271 L264.6881 462.7243 L265.3813 462.5618 L265.9209 462.4585 L266.6605 462.4782 L267.0659 462.5308 L268.9797 463.7106 L269.7699 464.2864 L270.0089 464.6574 L270.0235 464.7889 L269.9193 465.1139 L269.6248 465.5122 L269.3742 465.7019 L268.8163 465.7132 L268.3609 465.7301 L267.0897 465.7142 L266.6257 465.6991 L266.0916 465.7592 L265.974 465.7724 L265.7252 465.8353 L264.112 466.2458 L263.6791 466.4074 L263.3584 466.5952 L261.6329 467.7994 L261.1001 468.4964 L261.5171 468.7387 L262.3176 468.6232 L263.2779 468.3376 L264.5656 467.497 L265.3594 466.9343 L265.5472 466.8009 L266.1264 466.552 L266.3294 466.5952 L266.619 466.8282 L266.7934 467.2077 L266.8294 467.5355 L266.7574 468.0737 L266.591 468.3583 L266.2361 468.7293 L265.0265 469.7278 L264.5265 469.9824 L264.3168 470.0603 L263.5126 470.3609 L263.3596 470.4323 L263.1358 470.5365 L262.5853 470.9292 L262.4768 471.1405 L262.4335 471.3443 L262.5012 471.875 L263.5651 473.2098 L263.6462 473.3178 L264.4138 474.5492 L264.6729 475.635 L265.7459 477.5127 L265.9666 478.3543 L265.7593 479.0061 L265.3228 479.7613 L264.6424 480.7663 L263.7949 481.4586 L261.3543 483.8565 L259.8874 485.18 L258.8345 486.1305 L257.9724 486.6922 L257.034 486.9805 L256.9511 487.0059 L255.3501 487.4502 L253.5442 487.5864 L252.1711 487.7395 L251.8017 487.6963 L251.5218 487.1581 L251.2194 485.9596 L251.2834 485.8478 L251.3968 485.6505 L251.8858 485.5538 L253.1094 485.1105 L254.4422 484.6296 L254.5075 484.622 L254.9593 484.6643 L255.3842 484.7038 L256.3646 484.144 L256.5786 484.0181 L257.0505 483.7401 L257.3547 483.5071 L257.398 483.3033 L257.3895 483.2272 L257.3761 483.1061 L257.434 483.0328 L257.9193 482.6468 L259.7874 481.0434 L260.2843 480.5522 L260.6202 480.2197 L261.8439 478.7553 L262.1262 478.3251 L263.2358 476.7302 L264.2004 475.1184 L263.5425 473.6963 L260.7861 478.1495 L259.852 479.2494 L256.4487 482.4852 L255.761 482.828 L253.9136 483.4329 L252.1675 483.7607 L249.3568 484.6061 L248.6319 484.6211 L247.8082 484.3393 L245.3194 482.7332 L243.608 480.9983 L242.0051 479.2203 L241.6503 478.8267 L241.382 478.1927 L241.3326 477.9504 L241.2363 477.4779 L241.2143 477.2816 L241.4101 477.259 L241.8234 477.4122 L243.6501 479.0014 L244.8463 479.6646 L247.8259 481.5234 L249.2099 482.0992 L249.9494 482.2156 L251.9779 482.056 L252.2095 481.7638 L252.2382 481.4285 L252.0931 481.312 L250.9774 481.3703 L249.7238 481.3778 L248.9776 481.1956 L247.2235 480.2629 L245.1353 478.7027 L243.5403 477.4197 L242.3728 475.8238 L242.3185 475.2612 L242.2655 474.3999 L242.7459 473.8447 L243.2233 473.4859 L243.7543 473.3835 L245.1645 474.9428 L245.4962 474.6506 L243.7799 472.4715 L242.8002 471.4336 L241.354 469.9382 L240.5656 468.641 L240.4486 468.0418 M275.0675 469.4798 L276.8612 469.8546 L278.5574 470.0979 L279.4006 470.1317 L281.1663 470.0876 L284.5934 469.7447 L284.7226 470.6633 L284.8988 471.9126 L284.7915 471.9878 L284.7891 471.9812 L284.4489 471.8872 L280.8096 471.8281 L278.0044 471.5435 L277.638 471.5219 L276.4034 471.4477 L275.5406 471.396 L275.1706 470.808 L275.1681 470.7667 L275.148 470.3769 L275.0675 469.4798 M277.0009 485.1527 L277.7691 484.2088 L279.3738 482.9417 L280.1883 482.2645 L281.3742 481.4943 L282.0668 480.8649 L283.1295 479.9811 L284.4105 479.0728 L284.6964 479.364 L284.8299 479.5706 L285.1488 480.2309 L285.411 483.525 L285.3244 483.9336 L285.0921 484.2257 L283.6148 485.4927 L282.0479 487.1806 L279.2165 489.0009 L278.8964 488.8666 L277.2728 485.9971 L277.0009 485.1527 M284.7531 469.5381 L286.5852 468.997 L287.1937 470.3524 L287.8906 471.0964 L289.8263 470.3562 L290.2105 470.2472 L290.2428 470.2501 L290.544 470.2764 L290.6238 470.4003 L290.8555 470.7507 L293.1626 474.2355 L294.4551 476.1244 L294.6124 476.9312 L294.2887 477.2985 L294.1948 477.3614 L292.3639 478.5844 L290.6025 479.8177 L288.7801 481.1092 L288.1735 481.5131 L287.115 482.2184 L286.5047 482.6721 L286.3596 482.5556 L286.331 482.2936 L285.9828 480.3521 L285.5683 478.6633 L286.2846 478.1758 L287.3169 477.9006 L287.437 477.8686 L289.2173 477.3379 L290.0458 476.9397 L290.5641 476.7199 L290.6921 476.3714 L290.6848 475.7083 L290.75 475.7008 L291.0689 475.5984 L291.7847 475.2753 L291.8127 475.0677 L291.2286 475.2264 L290.7135 475.373 L285.9408 476.9754 L284.7531 469.5381 M382.018 333.1079 L382.1259 332.8138 L382.4027 332.4708 L383.3544 332.1833 L383.516 332.0593 L383.6239 331.7652 L383.8586 331.0333 L384.1165 330.8284 L384.4287 330.7937 L385.1841 330.8773 L388.7782 332.4821 L388.9514 332.3609 L384.3848 330.3201 L383.7031 330.0561 L383.2069 329.7724 L383.0416 329.6775 L383.0288 329.5656 L383.0026 329.3289 L383.4148 328.9305 L383.8537 328.7755 L384.3799 328.7858 L384.6628 328.7914 L385.6529 328.8572 L388.1521 329.7338 L389.0123 330.0354 L389.9482 330.3192 L392.2443 331.0154 L392.8565 331.4768 L393.3034 332.0264 L393.7466 332.8598 L393.6698 333.1154 L393.3253 333.8116 L393.0644 334.1386 L392.5156 334.3866 L391.0829 333.2375 L390.3921 332.9867 L390.2226 333.0402 L390.1342 333.1915 L390.311 333.5241 L390.5286 333.8154 L391.5865 335.2172 L391.3938 335.3798 L388.6788 336.2113 L387.9161 336.2968 L384.511 336.2874 L384.172 336.0788 L382.2618 333.9573 L382.1746 333.6265 L382.018 333.1079 M400.1996 318.2801 L400.3197 317.6797 L400.9654 317.5397 L401.644 317.8629 L401.7878 318.0011 L402.2158 319.263 L402.8408 320.3914 L403.2334 321.41 L403.7517 322.109 L404.1443 322.8222 L404.7351 323.7937 L405.2893 324.131 L405.8112 324.4045 L406.3709 324.7841 L406.6355 324.9165 L406.9001 325.0481 L407.3513 325.6015 L407.558 326.3184 L407.8134 326.6661 L407.925 327.1105 L407.6464 327.4215 L407.2202 327.9364 L406.9623 328.5951 L406.241 328.7426 L404.4431 326.9714 L403.3993 325.2764 L402.8426 324.8461 L402.1378 323.3249 L401.9738 322.9706 L401.7372 321.8741 L401.5196 320.8622 L401.2751 320.0306 L400.8733 319.5392 L400.1996 318.2801 M405.0473 392.7119 L405.2546 392.4423 L405.7996 392.2375 L406.3904 391.9847 L406.8379 391.9688 L407.3306 392.4404 L407.6433 392.8143 L408.45 393.0557 L409.3877 393.1506 L409.965 393.1929 L410.3235 393.3657 L410.5467 393.5255 L410.5906 393.5565 L410.6497 393.8712 L410.6308 394.7646 L409.9547 396.0836 L409.2761 396.6097 L408.3353 397.0719 L407.4811 397.396 L406.4739 397.4834 L406.0026 397.4796 L405.6935 397.4768 L405.432 397.1057 L405.31 396.6942 L405.2491 396.2931 L405.2265 395.7097 L405.3923 395.1385 L405.5173 394.7806 L405.5594 394.6613 L405.4771 394.1436 L405.3448 393.563 L405.2911 393.4099 L405.0473 392.7119 M413.2147 409.2968 L413.4513 407.6406 L413.4641 407.4978 L413.7829 403.8594 L414.1756 402.0472 L414.4225 401.4394 L414.5085 401.2289 L414.645 400.8982 L432.1761 417.2921 L430.4653 417.589 L428.7167 417.8426 L426.5907 418.1902 L425.4823 418.5857 L424.2355 419.2686 L423.3764 419.619 L422.3278 419.8717 L421.4565 419.884 L420.5682 419.5298 L420.3566 419.4453 L419.4732 418.8891 L418.7019 417.8191 L418.0788 416.937 L417.5313 416.0465 L416.4229 415.1493 L415.6254 414.7332 L415.2419 414.3546 L414.5231 413.3729 L413.611 412.0032 L413.5269 411.8774 L413.4446 411.2743 L413.2738 410.6843 L413.2147 409.2968 M413.739 392.0665 L413.9744 391.5902 L414.6347 391.2886 L415.0535 391.1543 L415.2846 390.9363 L415.3681 390.8574 L415.2005 390.4168 L414.9572 389.6699 L415.1828 389.42 L415.3572 389.2265 L415.9979 389.4266 L416.7405 389.9311 L417.3057 390.1396 L417.7307 390.9166 L418.2062 391.4164 L418.3446 391.562 L418.5782 392.369 L419.0702 393.2154 L420.4377 394.3099 L421.1895 394.9769 L421.6163 395.6176 L421.8675 396.2461 L422.0979 396.8304 L422.0619 397.2682 L421.7041 397.4777 L421.4004 397.3415 L419.1062 395.5612 L419.0452 395.5133 L418.6208 395.2033 L418.3166 395.2447 L418.2453 395.254 L417.9636 395.7698 L417.9087 396.0394 L417.6776 396.3288 L417.3179 396.4453 L416.7796 396.5505 L416.4412 396.6444 L416.14 396.7543 L415.7827 396.8962 L415.4334 397.1057 L415.0554 397.4411 L414.7011 397.6121 L414.489 397.381 L414.3896 396.635 L414.3841 396.0498 L414.3579 395.5086 L414.5402 395.0117 L414.8926 394.8285 L415.1066 394.464 L415.2297 394.1192 L415.1755 393.9858 L415.0547 393.688 L414.453 393.3047 L413.9841 392.6687 L413.739 392.0665 M414.2109 400.0715 L414.217 399.4421 L414.4286 398.4416 L414.678 398.0141 L414.981 397.6149 L415.3614 397.3002 L415.7626 397.0174 L416.2747 396.8248 L417.0228 396.6134 L417.6752 396.5326 L418.2081 396.5242 L418.808 396.5852 L419.5854 396.7957 L420.5365 397.1912 L421.3474 397.8573 L421.9985 398.4566 L422.4692 399.4919 L422.643 401.29 L422.9478 401.693 L423.4075 402.0735 L424.3788 402.3478 L425.2653 402.8523 L426.0829 403.5775 L426.4968 404.1008 L426.7316 404.5029 L427.387 405.0975 L428.996 406.4653 L430.2958 407.6857 L431.9249 409.1897 L433.1827 410.3593 L434.2979 411.0215 L435.8319 412.3349 L437.5091 414.1564 L438.5377 415.4828 L438.959 416.0737 L438.8968 416.4288 L438.7334 416.5209 L438.3304 416.7473 L436.2519 416.9615 L435.2904 417.0 L433.5321 417.1193 L432.1944 417.2856 L414.6487 400.8898 L414.2109 400.0715 M419.1653 374.8628 L419.2238 374.1676 L419.3836 374.1159 L419.7884 373.9853 L420.3469 373.8979 L422.4314 375.961 L432.6962 385.3822 L432.8718 385.1332 L422.2381 373.602 L421.7278 372.5197 L421.7681 371.0447 L421.7284 369.9952 L421.362 368.6452 L421.3413 368.5681 L421.237 367.6277 L421.5644 367.141 L422.0985 366.9108 L422.6594 366.8488 L423.2661 366.9681 L425.3305 367.436 L428.1436 368.0739 L431.6414 371.645 L436.2745 376.5952 L435.7398 377.1984 L431.7939 374.1704 L430.7525 373.725 L429.752 373.7936 L428.8533 374.2512 L429.0063 374.6354 L429.5362 375.2902 L429.6929 375.4838 L431.0183 377.313 L431.414 377.8588 L433.0175 380.7477 L433.2138 381.101 L435.8105 384.5658 L435.9587 384.764 L436.2111 385.696 L436.1288 386.084 L435.7111 387.3504 L434.5417 389.1213 L434.271 389.3195 L434.0089 389.2227 L433.137 388.1414 L432.7371 387.5552 L432.5828 387.1127 L431.9066 386.1338 L429.2496 383.7268 L427.6601 382.2293 L425.9676 381.2616 L424.2879 379.7143 L421.2206 377.4492 L419.8189 375.869 L419.2104 374.9323 L419.1653 374.8628 M434.546 390.3783 L434.6082 390.0992 L434.9825 389.2678 L435.3984 388.5068 L435.855 387.8868 L436.7909 386.6946 L437.1933 385.9092 L437.2024 385.8923 L437.5524 385.4536 L438.0761 385.4385 L440.0357 386.4522 L440.1058 386.9605 L439.5522 387.9047 L439.5199 387.9601 L437.6615 391.8758 L437.5347 392.1877 L437.3104 392.6123 L436.5415 392.477 L436.216 392.0627 L435.9581 391.7254 L435.663 391.4352 L435.2447 391.2529 L434.9771 391.1298 L434.7887 390.9635 L434.5936 390.6535 L434.546 390.3783 M447.8208 380.7496 L447.8318 380.4678 L447.8989 380.231 L448.5689 379.6974 L449.2933 379.1234 L449.8359 378.5108 L450.3236 378.0138 L450.648 377.8081 L450.9608 377.7987 L451.3485 377.8579 L451.9149 378.1519 L452.7746 378.7184 L453.8995 379.6138 L454.9353 380.6284 L455.8389 381.4373 L456.79 382.5299 L457.7363 383.3426 L459.1892 384.2943 L460.5329 385.2582 L461.8048 386.2559 L462.4968 386.9182 L463.5034 387.7412 L463.8826 388.0305 L464.4758 388.5679 L464.78 388.8657 L464.8264 389.4388 L464.7429 389.9837 L464.3764 391.6475 L464.2923 392.8039 L464.0698 394.7392 L463.996 395.0305 L463.7917 395.1714 L463.6564 395.178 L463.4985 395.1282 L463.0504 394.8294 L462.7717 394.5372 L462.3553 394.0656 L461.8804 393.5236 L461.4139 393.1412 L460.4976 392.2919 L459.9745 391.6954 L459.4739 391.08 L458.9416 390.3313 L458.5289 389.6633 L457.7204 388.8695 L456.4498 387.8041 L454.9597 386.8224 L453.6623 385.819 L451.7814 384.2182 L450.5882 383.2374 L448.9488 382.0602 L448.1202 381.3105 L447.9111 381.0286 L447.8208 380.7496 M449.7865 389.7779 L449.9225 389.5506 L450.2011 389.4679 L450.5108 389.4341 L450.8589 389.3608 L451.1876 389.1889 L451.6674 388.9315 L452.3466 388.8638 L452.9081 389.0395 L454.4202 389.9846 L455.7737 391.1101 L456.6144 391.3553 L457.1949 391.2397 L458.0655 391.6014 L458.1746 391.6897 L458.7642 392.1698 L460.4287 393.2765 L461.909 394.7777 L462.6528 395.2221 L463.5985 396.2499 L463.8265 396.5618 L463.4656 397.0522 L463.1558 397.7755 L462.9876 398.2443 L462.6772 399.8085 L462.4791 399.9334 L462.187 399.8977 L461.9175 399.9109 L461.2707 399.583 L459.352 397.9437 L458.9093 396.8887 L458.2387 396.155 L457.4753 395.4729 L457.0985 395.1178 L456.4382 394.5109 L455.9584 393.6974 L455.6743 393.2793 L455.0847 392.6987 L454.5134 392.5155 L454.0373 392.5005 L453.5757 392.2309 L453.2569 391.9744 L451.2339 390.7559 L450.0871 390.1039 L449.859 389.9743 L449.7865 389.7779" stroke-dasharray="" fill="none" fill-opacity="1.0" stroke="#ff0000" stroke-opacity="1.0" stroke-width="1.0px" stroke-linecap="butt" stroke-linejoin="miter" stroke-dashoffset="0.0px"/>
</g>
</svg>