<?xml version="1.0" standalone="no"?>
<!DOCTYPE svg PUBLIC "-//W3C//DTD SVG 1.1//EN" "http://www.w3.org/Graphics/SVG/1.1/DTD/svg11.dtd">
<svg width="512px" height="512px" version="1.1" xmlns="http://www.w3.org/2000/svg" xmlns:inkscape="http://www.inkscape.org/namespaces/inkscape">
<g id="layer" inkscape:groupmode="layer" inkscape:label="layer">
<path d="M0.0 339.7299 L1.5813 341.0579 L2.1068 341.4041 L2.3992 342.3219 L2.1264 343.1531 L2.3111 344.7166 L2.6356 345.1285 L3.1138 341.3924 L4.9777 341.3924 L7.9121 357.4849 L5.4015 356.0621 L7.5095 358.7363 L9.1381 359.8663 L13.0963 361.3291 L14.1815 361.6918 L15.6183 361.9381 L15.6944 361.9772 L15.9003 361.4938 L15.8525 361.4439 L16.29 360.5794 L16.509 360.0643 L16.7144 360.0884 L17.1257 359.8305 L18.6348 359.5168 L19.7809 359.4111 L19.0358 359.0076 L20.1477 358.3461 L19.8809 358.0915 L19.8086 357.5964 L20.0444 357.3318 L20.8106 356.9424 L26.3622 354.5627 L29.0249 353.0674 L32.043 350.8757 L32.8294 350.6228 L33.1146 350.6419 L34.0004 350.1161 L33.7483 349.943 L34.3281 349.2981 L35.6698 348.7789 L36.4773 348.9828 L36.6664 349.1467 L37.5582 349.0244 L37.1854 348.6649 L37.3951 348.2206 L37.8809 348.1032 L39.1922 348.0026 L39.8389 348.0458 L40.7779 348.1598 L40.998 348.1515 L42.1103 347.9418 L43.5683 347.5898 L45.9121 347.9809 L48.3053 348.6308 L49.2611 348.8072 L51.925 349.0751 L53.6726 349.14 L55.3892 349.6235 L57.408 350.2933 L62.0249 352.787 L64.2773 354.7457 L65.2767 356.013 L66.8374 357.8735 L66.9075 358.0033 L68.9159 359.9229 L71.4809 360.8797 L75.3663 356.1952 L72.9046 351.3775 L80.2896 351.3775 L80.144 348.7797 L80.2375 348.4452 L80.5945 348.2139 L80.9472 348.1981 L81.1814 348.342 L81.496 348.7955 L82.0834 348.9237 L83.4735 348.4702 L85.8634 348.0475 L88.9479 347.2736 L92.2105 347.7238 L93.0974 347.7338 L93.399 346.3708 L93.0447 346.137 L93.0729 345.597 L93.4473 344.7566 L93.5685 343.6366 L94.025 342.1405 L94.5613 340.7034 L94.9173 340.2216 L95.3134 339.7706 L95.6368 339.7948 L95.921 340.0386 L96.3198 340.2125 L96.5323 340.0777 L105.3563 341.1095 L105.6769 341.0404 L105.7106 341.1511 L105.6198 328.3856 L105.0998 325.3317 L105.1395 324.5753 L105.5144 324.3132 L95.7661 321.6878 L95.8226 321.2226 L95.7482 321.2268 L95.0031 320.735 L94.8119 319.9378 L95.8335 318.7378 L96.0693 317.2774 L96.4198 315.5757 L96.5171 315.5324 L96.5812 315.0056 L91.8263 313.8489 L88.0224 310.4621 L88.0496 309.1972 L91.5546 312.9918 L99.5102 313.0085 L99.57 309.4385 L93.8533 308.9475 L90.6199 304.7783 L89.4456 304.7783 L89.0142 305.0813 L88.0838 304.914 L87.6757 304.7783 L85.1097 304.7783 L85.3135 304.4089 L85.0396 304.398 L84.7728 304.0668 L85.0576 303.5734 L85.0777 301.8998 L85.6091 300.8305 L86.2395 299.8668 L87.2285 298.1109 L88.8131 296.1186 L91.2253 293.677 L91.4731 293.2276 L91.5193 291.7038 L91.5008 291.6755 L91.296 291.0472 L91.1003 290.2475 L91.1655 289.4028 L91.3047 288.5473 L91.5345 287.7916 L91.49 287.2291 L91.378 286.9794 L91.3345 286.6823 L91.4389 286.3627 L91.597 286.1497 L91.6883 286.1364 L91.6905 286.0623 L90.2015 285.5663 L90.1178 285.5838 L88.6278 285.4606 L86.5704 284.814 L85.0309 284.09 L83.6876 283.6797 L82.3128 282.9373 L79.3278 281.9428 L80.2217 281.8063 L79.2941 281.2488 L78.9914 280.7236 L81.3102 280.8393 L82.5774 280.7295 L85.1516 279.7441 L86.985 279.8922 L89.5576 279.933 L93.2376 279.5444 L94.1728 279.7491 L94.7814 280.057 L95.5351 280.0229 L95.4069 279.8822 L95.3151 278.9011 L93.7935 275.2434 L103.9554 273.7936 L105.5807 273.0571 L108.3674 271.8795 L110.6106 271.5549 L112.4517 271.5058 L114.8655 271.3901 L115.8806 271.2894 L116.5778 271.6914 L116.7952 271.9611 L117.1223 271.9144 L122.8983 276.451 L123.6993 276.9844 L123.9156 277.1717 L124.0123 277.3256 L124.9747 278.0813 L124.8279 279.9372 L127.0777 279.6625 L135.4735 278.8553 L134.6654 281.9761 L136.1603 281.8363 L136.9749 282.0727 L137.5422 282.5587 L137.5107 283.5598 L137.3341 284.0999 L138.8861 287.9015 L141.8042 287.1109 L143.028 286.8354 L143.0628 286.6748 L143.2812 286.3802 L144.4692 286.0565 L145.3114 285.9325 L145.8657 285.8884 L146.4526 286.0656 L146.5102 286.0623 L146.5624 286.1472 L146.9569 286.4418 L147.2536 287.2765 L152.2324 295.4079 L141.8879 296.6171 L142.859 304.5703 L142.9835 310.6035 L143.8415 314.0961 L145.2712 314.2692 L149.1061 313.6742 L150.8793 313.9213 L154.299 313.6501 L155.2157 313.2906 L156.2814 313.4628 L156.7607 313.928 L157.3035 316.1174 L157.4992 319.892 L157.6584 320.5594 L158.0453 320.933 L161.1085 321.2659 L163.4898 321.2218 L165.0016 321.1286 L165.476 320.8365 L162.7361 312.1239 L162.3399 310.8116 L162.485 310.7666 L162.4366 310.5053 L162.5323 309.8521 L162.8871 309.6715 L166.2096 308.4815 L167.4105 308.4349 L169.2369 308.5714 L170.6123 308.1603 L172.1812 307.2033 L174.6504 306.5334 L175.2623 306.3428 L176.3954 305.653 L176.9263 304.8191 L177.6756 304.3731 L178.8467 303.947 L179.3102 304.1334 L179.4276 304.4646 L179.6689 304.3564 L179.5743 304.0052 L179.8819 303.8097 L180.9638 303.6266 L181.6714 303.4535 L181.9626 303.322 L182.1398 303.3437 L182.9256 303.1523 L183.719 303.0191 L184.7971 302.9226 L185.5747 302.7711 L186.1372 302.3659 L186.1632 299.7936 L185.8698 296.6396 L186.2062 296.6263 L186.2067 296.5722 L186.3605 296.32 L186.6366 296.1261 L187.3919 295.824 L188.9151 295.5627 L189.5275 295.5877 L190.0715 295.6609 L190.9502 295.6859 L191.1474 295.7333 L191.3931 295.8507 L191.6121 296.0479 L191.9588 296.0745 L193.0874 295.9855 L194.2639 296.0604 L195.7056 295.973 L195.423 294.376 L192.5212 291.4608 L192.4669 290.215 L191.1681 288.3833 L188.4592 287.1725 L185.6742 288.2027 L183.25 290.1593 L177.4099 290.9807 L176.8056 289.9987 L174.5885 286.9361 L178.9467 280.9775 L178.3218 275.6778 L176.0883 275.7236 L173.1169 275.8301 L168.9658 276.0881 L167.4681 276.0057 L166.2047 275.3799 L164.2718 274.7682 L162.8208 274.4053 L160.5771 272.8357 L159.494 272.0784 L159.4207 271.2295 L159.4011 271.0048 L159.1381 269.6366 L160.4179 269.2571 L161.9025 268.9758 L163.8593 268.8809 L165.0673 268.4481 L166.2683 268.3999 L178.8413 265.7883 L180.1862 265.7325 L180.9117 265.9081 L181.4105 265.9098 L181.7757 265.4304 L180.9187 264.9926 L180.0102 264.8445 L178.8288 265.0642 L178.1299 265.0725 L177.5805 264.8254 L176.8752 264.7879 L175.1401 265.3705 L173.9717 265.6826 L173.0914 266.0454 L172.3806 266.291 L169.9722 266.7379 L169.0196 266.8261 L168.3197 266.7753 L166.3373 267.1299 L164.0071 267.2788 L161.1971 267.6267 L157.2068 268.5955 L155.3581 268.9941 L154.3838 269.7306 L154.0979 269.947 L152.1764 269.8447 L151.0086 269.2479 L150.7152 268.9958 L149.4827 267.9371 L147.9856 267.2614 L147.1297 266.6197 L146.689 265.3405 L146.3102 264.053 L145.8848 262.0048 L146.2532 260.6083 L146.326 259.8751 L146.382 259.31 L147.3743 258.2688 L148.6507 256.9946 L149.7843 255.6138 L150.9363 254.3571 L152.7394 253.6455 L154.4897 253.0047 L155.2179 252.77 L156.0363 252.7142 L156.7025 252.4886 L157.7394 251.3135 L159.6228 250.7175 L163.8099 249.7846 L168.1648 248.6984 L168.3349 248.993 L167.8719 251.0405 L168.505 250.9789 L168.8571 250.3746 L169.0772 248.3938 L168.6636 245.8586 L167.6453 245.8586 L167.704 246.105 L166.1156 246.8491 L165.0135 247.6181 L162.4133 248.9265 L160.2369 249.6938 L157.4302 250.9364 L156.5645 250.2315 L155.6548 249.6614 L155.3369 248.8025 L154.6452 248.4021 L154.0588 248.3622 L154.0773 248.0259 L154.3876 247.6705 L155.1032 247.1845 L156.0021 247.2444 L156.802 247.063 L157.5198 246.3181 L158.2029 245.7704 L159.3049 245.4808 L160.7787 244.6893 L161.1324 244.0617 L164.9499 241.9036 L166.4313 241.1487 L167.0481 240.566 L167.4415 239.9402 L167.0535 239.7695 L166.4905 239.3342 L166.2444 239.0596 L166.2601 238.6775 L166.584 238.3197 L168.1142 237.2493 L168.5713 236.8373 L168.981 236.3454 L169.1201 236.2389 L169.3032 236.1948 L169.5201 236.2663 L171.9556 236.0499 L172.2621 236.4969 L172.3708 237.2451 L170.658 237.9293 L170.9117 238.4969 L170.9471 238.854 L170.8433 239.5598 L170.6873 239.7895 L170.3852 239.9543 L169.4201 240.1824 L168.2762 240.2464 L167.9534 240.3122 L167.4757 240.9647 L167.1464 241.7096 L167.2377 242.3355 L167.2671 242.9706 L167.2627 244.2506 L167.5431 245.4283 L168.5723 245.3876 L168.2468 242.6942 L168.2979 241.8828 L168.5403 241.385 L168.8609 241.1994 L172.2621 239.9934 L173.7951 239.6505 L178.5989 242.8399 L181.1839 245.2927 L182.0159 246.1741 L183.8575 247.1429 L186.5241 249.3476 L187.9043 249.971 L188.1918 249.9294 L189.0711 250.3314 L189.5232 250.6185 L189.8568 251.0621 L190.053 251.127 L190.6736 251.2236 L191.0002 251.2227 L191.6735 251.3592 L191.7985 251.5756 L191.7496 252.5211 L191.8441 253.4924 L192.3223 253.891 L192.6875 254.5036 L192.9396 254.9272 L193.2217 255.261 L193.2488 255.4449 L193.2043 255.7795 L192.4886 256.635 L192.0897 257.9525 L191.7006 259.2375 L191.6925 259.3666 L191.6735 259.6587 L191.2398 260.9762 L191.0556 261.5371 L191.0062 261.6336 L189.5014 263.6502 L187.787 263.2466 L188.2005 261.1576 L188.557 260.4019 L188.7119 259.8626 L188.6059 259.4564 L188.4353 259.2467 L187.7152 258.789 L187.5446 258.5792 L187.362 258.6059 L186.5485 261.3532 L185.9046 262.0573 L185.3954 262.0847 L182.6555 261.2192 L181.1453 260.7839 L177.931 260.5043 L174.4929 259.647 L171.2552 258.2447 L170.652 257.6296 L169.8581 256.6667 L169.1533 255.2119 L168.8017 253.6314 L168.4865 251.579 L167.8904 251.6064 L167.998 254.0949 L168.9631 255.9085 L170.0667 258.4186 L171.7568 259.7669 L175.027 261.0702 L179.8977 262.4684 L180.559 262.1796 L180.1911 261.6245 L181.7513 261.6153 L183.163 261.9599 L184.3749 262.7189 L185.365 263.438 L185.5084 265.4063 L186.0839 265.4878 L186.1361 264.4367 L187.2289 264.2769 L188.4717 264.42 L189.114 268.1069 L189.615 267.3529 L190.0525 267.1457 L190.7665 267.0783 L191.305 267.824 L191.4143 268.315 L191.4648 268.92 L191.2018 269.2912 L190.5013 269.6582 L189.9427 269.8613 L189.2488 269.9628 L188.751 270.4755 L188.3086 270.4663 L188.5564 270.6519 L188.9069 270.7859 L189.896 271.0106 L190.9361 271.0805 L191.7327 270.7418 L193.2037 273.2652 L193.3303 274.134 L193.5184 274.9213 L193.6689 275.1951 L194.1634 275.3075 L194.4927 275.2967 L194.7345 275.1868 L194.9698 274.7823 L195.1682 274.124 L195.2372 273.3367 L195.1372 272.6485 L194.7008 271.6764 L194.3933 270.5737 L194.2465 269.818 L194.4302 269.3104 L194.5786 269.0665 L195.6942 268.6437 L196.368 268.4714 L197.0207 268.1535 L197.3598 267.9563 L197.4772 267.754 L198.8705 267.5768 L199.0889 271.0173 L199.1829 271.8112 L199.1628 272.1966 L199.0422 272.6743 L199.0911 273.0113 L199.3856 273.4657 L199.653 273.7329 L199.941 273.8819 L200.3312 274.2081 L200.4812 274.4536 L200.4828 274.9896 L200.867 275.2775 L202.4184 275.7394 L202.9575 276.0432 L203.1124 276.327 L203.1466 276.8196 L203.4487 277.9065 L204.6448 276.0939 L206.1642 273.9593 L206.3962 274.1473 L203.3243 278.6722 L200.4594 282.8782 L203.3243 286.1206 L208.2313 288.9584 L209.0101 288.8411 L209.8768 288.5781 L210.8555 288.5698 L216.3619 287.7592 L216.2983 287.4937 L216.3119 286.302 L217.3172 286.1996 L222.7128 286.0948 L224.8289 285.8384 L229.3322 285.0204 L231.7199 284.4603 L232.1009 284.1932 L229.9843 277.7318 L230.2663 277.7318 L230.2375 277.6277 L230.551 277.205 L231.07 276.9029 L231.5102 276.937 L231.8042 277.0185 L231.8389 277.0968 L233.116 278.0763 L234.2827 280.2118 L235.8314 284.1482 L235.9999 281.4934 L236.1357 281.5983 L236.5797 281.4926 L237.5731 282.0685 L238.655 283.0039 L239.6353 283.7296 L241.0558 284.1715 L242.0166 284.3213 L244.3179 284.2997 L247.1834 284.4553 L249.5146 284.8248 L251.2367 284.8448 L252.9707 284.6783 L253.4555 284.5344 L254.1021 283.911 L255.1194 283.5657 L256.7926 283.4874 L260.1389 282.8308 L262.1202 283.0489 L263.526 283.2794 L264.6069 283.2661 L266.0415 283.2011 L267.2935 282.8733 L268.2521 282.5154 L268.9971 282.3223 L269.5438 281.9628 L270.9062 281.4011 L271.4012 281.3287 L271.8354 281.3378 L272.2408 281.6416 L272.7467 282.076 L275.0274 282.1775 L276.1045 282.3881 L277.1342 282.7293 L277.5309 283.3518 L277.5163 284.0916 L277.2723 284.6059 L277.582 284.7474 L287.4396 284.2897 L288.6623 283.8819 L287.5754 277.84 L290.1697 277.3373 L289.786 274.1765 L289.6768 272.9597 L290.2273 272.9056 L289.7708 267.2788 L290.3506 266.5739 L290.236 266.5864 L289.6404 266.5897 L289.229 266.5007 L291.3038 265.4163 L292.2368 264.2827 L292.7471 263.1642 L292.9601 261.4813 L294.4817 260.6665 L297.6286 260.2063 L298.7681 260.3686 L299.0931 260.5051 L301.3423 260.977 L301.7673 261.6178 L301.3347 269.992 L302.34 273.3459 L304.3941 278.3559 L306.8161 280.8152 L306.7118 279.9155 L306.7466 278.6855 L306.6786 277.3789 L307.6927 276.1597 L308.3741 275.6004 L308.579 275.7544 L308.773 276.5991 L309.3827 276.1672 L312.1682 281.1148 L313.6268 279.6209 L314.7092 278.6023 L315.9928 277.1234 L316.4128 277.4388 L316.7139 277.7068 L316.8003 277.6319 L321.1498 281.3187 L326.4459 285.8459 L326.4459 287.2191 L326.0797 291.4775 L326.8845 292.9821 L326.7149 293.4223 L325.9362 293.1477 L325.4618 298.6635 L325.502 298.9755 L325.4129 299.2344 L325.2939 300.6174 L324.6798 300.6174 L325.1836 301.4813 L325.6324 302.405 L326.0541 303.4119 L326.2758 303.8546 L326.6519 304.2749 L326.6975 304.3473 L328.1664 303.8954 L329.2782 303.6932 L330.6655 303.4901 L331.8035 302.9284 L332.6061 302.494 L333.3783 302.4083 L333.6255 302.4474 L333.9108 302.648 L334.2488 302.9667 L334.4966 303.0491 L335.9008 302.9625 L336.0399 303.2363 L336.5741 303.8014 L337.7892 305.8319 L338.7054 307.4671 L339.1798 308.0621 L339.301 308.0837 L339.8465 308.3201 L340.6117 308.1694 L343.319 307.5761 L343.9461 307.2865 L344.2645 307.0419 L344.4683 306.9653 L344.7628 307.0735 L344.9916 307.2449 L345.7192 308.9617 L345.9437 308.9392 L345.9122 309.431 L345.9605 310.3847 L345.8594 310.4379 L342.8978 311.6071 L340.566 311.3849 L339.0314 311.5772 L339.045 312.401 L338.5782 314.052 L337.8973 316.1357 L337.931 316.3679 L337.6185 316.5626 L336.4611 320.8057 L336.7893 320.9688 L337.3843 321.0004 L337.8202 321.2934 L341.2616 322.8087 L341.5762 323.2697 L340.6182 324.3914 L340.5747 325.6488 L340.2324 330.1589 L339.5259 331.6151 L339.7107 336.6078 L345.4166 337.4565 L347.2913 333.9034 L357.2967 329.3609 L348.7423 340.3523 L345.5633 338.5965 L342.944 341.018 L341.379 342.2495 L338.0315 342.4242 L337.7267 342.5257 L336.5486 342.5657 L336.1345 342.5232 L318.4028 343.4502 L315.0603 344.5103 L313.1524 344.8198 L311.5656 344.7416 L309.4202 343.9195 L302.052 344.3047 L300.3174 345.1909 L300.0658 345.6061 L298.7785 346.0888 L298.5084 346.1162 L293.5693 348.6399 L294.5507 353.2846 L294.0872 356.87 L291.6836 358.2188 L287.8613 358.7147 L286.2142 358.7031 L285.699 358.7779 L285.5094 358.9901 L284.7768 361.8449 L281.7853 362.2202 L285.2545 368.429 L285.0208 368.9831 L283.6802 370.0614 L278.9574 372.9187 L282.4271 374.8448 L285.1735 377.3792 L286.5706 380.4577 L288.3145 388.0382 L289.1736 388.2387 L290.1523 388.7454 L290.5767 389.0798 L291.1114 391.3096 L287.5646 393.5368 L288.6584 395.1193 L290.0637 394.9878 L290.3131 396.1302 L290.3088 399.5438 L291.0728 399.865 L291.2174 399.8084 L293.1302 399.6952 L296.4999 400.0039 L298.0612 400.3725 L299.3746 400.7477 L300.5321 401.2435 L300.5424 401.469 L300.1403 401.6246 L299.0692 401.781 L298.4573 401.984 L298.2573 402.1645 L298.2427 402.5839 L298.9176 404.1122 L299.6132 405.5249 L299.8006 406.2928 L300.1435 406.3178 L300.8924 406.0191 L301.5972 405.1588 L302.6454 404.3244 L302.9943 404.2328 L303.0731 404.638 L304.0735 403.7952 L305.3918 405.1214 L305.8152 404.8959 L306.2939 404.2961 L306.6917 403.1396 L307.221 401.8509 L307.8296 400.5888 L309.9506 398.31 L310.6043 397.874 L311.1156 397.7609 L311.5428 397.8099 L312.3171 396.8315 L314.8223 395.943 L315.2912 395.5985 L316.1449 395.4737 L316.7177 395.2707 L317.2057 395.0161 L318.0442 394.398 L318.5398 394.1742 L318.9952 394.4629 L320.9775 393.7598 L322.2638 392.9869 L323.9565 392.1341 L329.0212 390.5699 L329.0157 390.6082 L329.2771 390.4393 L330.4878 390.0474 L331.1986 389.9434 L331.5932 389.995 L333.0457 389.48 L333.25 389.2138 L333.9266 388.7678 L335.0373 388.5898 L335.1123 388.747 L336.3633 388.3036 L337.5039 387.5348 L337.8419 387.2544 L337.9886 387.207 L345.4003 382.2016 L345.4796 381.9437 L346.0687 381.0626 L348.3825 378.2012 L349.1232 377.1845 L349.8378 375.9572 L349.3406 375.1685 L356.0072 369.0746 L361.0001 364.5674 L366.2109 359.8164 L367.0092 359.0883 L371.6483 354.4054 L369.8056 348.7739 L369.1638 346.3683 L368.5617 341.9125 L368.3025 341.662 L368.0878 341.3982 L368.5965 340.8507 L369.4208 341.2626 L369.6931 341.518 L369.8974 341.8126 L371.1402 342.2611 L371.4891 342.143 L371.7282 342.1671 L372.371 342.5457 L373.3764 342.9909 L373.6513 343.2447 L379.7441 345.5695 L386.3249 346.063 L386.5705 345.9714 L387.0308 345.904 L387.3992 346.1437 L389.2865 346.2851 L388.4094 348.1998 L388.4637 348.2863 L391.5906 349.0435 L391.7808 349.0535 L393.2866 348.8929 L394.0137 348.7864 L393.8256 349.5802 L402.6545 351.702 L406.0237 347.688 L409.0451 351.8934 L431.1778 335.8031 L429.9041 333.9758 L412.8821 328.6336 L410.5183 332.2242 L407.5175 330.9544 L399.5353 328.0952 L397.2258 327.1549 L405.0618 326.5308 L406.8714 325.0496 L406.8714 323.2838 L406.8008 323.1965 L406.7828 322.6764 L406.9513 322.2453 L407.136 321.9283 L407.3458 321.7818 L408.775 321.6886 L410.0993 321.8392 L412.9033 321.0304 L436.7386 319.2138 L437.9211 318.727 L439.2198 318.1312 L440.229 317.9257 L445.649 317.8899 L447.345 317.8416 L447.3309 317.6927 L446.9086 317.706 L446.9613 317.0303 L446.6739 315.4467 L446.6559 314.7235 L446.6679 314.6561 L434.3139 317.6768 L434.3139 316.8489 L434.2682 316.8497 L434.1058 316.5252 L434.0155 316.1024 L433.9259 315.8836 L433.8476 315.3435 L433.9118 315.1887 L434.3139 314.9832 L434.3139 314.9557 L434.5459 314.8725 L436.5457 314.0503 L438.365 313.4653 L439.3372 313.0043 L439.5948 312.7921 L439.8643 312.4626 L440.3067 311.7303 L440.5039 311.4989 L440.7414 311.3475 L442.2912 310.8989 L429.7057 309.6798 L432.1674 304.4122 L432.9847 295.596 L432.8608 295.3921 L432.838 294.7147 L433.3124 294.1388 L434.1726 293.9375 L435.1116 294.5899 L435.3964 295.0451 L435.824 295.1333 L436.4528 294.7921 L436.7533 294.8421 L436.4441 290.7892 L437.276 290.622 L437.276 290.5363 L437.7993 289.6733 L438.753 289.7532 L439.166 290.1543 L439.1986 290.2367 L440.6202 293.2384 L441.9706 293.6279 L446.2266 294.6773 L446.694 295.0335 L448.228 295.8099 L449.0127 296.4499 L450.4044 297.2912 L452.8938 298.1459 L453.153 298.3406 L454.3887 299.2535 L457.0151 297.8895 L457.2047 297.6332 L458.6094 297.3711 L459.5381 297.4094 L459.9653 297.173 L460.1104 296.9783 L460.4891 296.8069 L464.0963 295.8166 L465.5005 295.5536 L465.7912 295.5694 L466.1635 295.7475 L466.5025 295.6975 L466.9862 295.4529 L467.2122 295.4204 L467.8019 295.5086 L468.3105 295.4346 L469.1501 295.254 L470.5787 295.1616 L471.0879 295.0876 L471.621 295.1841 L472.4133 295.4745 L473.2463 298.8332 L473.4517 299.9359 L473.5756 300.0432 L485.8025 298.5203 L489.5287 297.322 L489.8689 297.0432 L490.5351 296.8127 L492.2382 296.3375 L493.2755 296.1178 L496.3121 295.1416 L498.4412 295.864 L498.8711 295.8548 L500.6084 296.0854 L500.8676 296.4182 L500.9105 296.7012 L501.1866 296.7952 L501.1801 296.7511 L501.6642 296.4008 L502.9913 296.5173 L503.1565 296.8476 L503.313 297.5159 L507.1804 298.8282 L507.463 298.2249 L509.0715 297.0981 L510.704 295.4529 L511.2104 294.4925 L511.2229 293.885 L510.5724 291.5948 L508.0646 288.3301 L507.5146 287.6235 L507.4239 287.4005 L507.4397 287.1034 L507.8657 286.8046 L512.0 284.8997 L510.3268 282.3115 L506.2268 282.3772 L504.697 280.32 L503.5814 278.6089 L502.1028 277.0119 L501.1475 273.7262 L501.8218 273.1578 L499.3449 270.3473 L498.7113 269.7198 L496.7034 268.1119 L493.7657 267.0483 L493.3391 266.7703 L493.1484 266.4482 L493.1283 264.1013 L493.0527 263.5811 L493.5929 258.0208 L493.9657 254.8665 L494.0885 252.8523 L494.1379 250.1225 L494.2852 249.2161 L494.8504 248.4329 L495.7138 248.199 L495.7638 248.1982 L489.9591 243.1986 L481.3139 235.752 L473.4512 236.7349 L471.7498 236.7616 L470.989 236.7674 L470.902 236.4087 L470.8466 236.3504 L470.4363 236.0175 L470.388 234.6933 L470.4092 234.5559 L470.1782 231.0102 L461.0842 231.7918 L462.0101 234.1714 L462.2308 234.6575 L462.4269 235.4382 L462.4666 236.1282 L462.3867 236.5626 L462.422 237.7978 L462.3384 238.884 L462.1482 240.0583 L462.1927 241.9568 L462.253 242.0426 L464.1381 241.9344 L468.1388 241.1312 L464.6696 250.4404 L461.2787 250.8207 L460.6347 251.9435 L460.2266 252.457 L459.0078 252.9972 L458.5491 255.8186 L458.0356 257.7586 L456.3977 257.7087 L453.009 257.35 L452.6259 256.9696 L453.1807 255.8252 L452.6645 253.4533 L449.8153 251.2427 L448.7182 262.5741 L439.3823 260.2421 L438.2917 263.7476 L438.5998 265.0883 L438.7215 265.3006 L439.0916 265.4154 L440.3545 265.7001 L440.6305 265.8865 L440.8897 266.2718 L440.9555 266.7237 L440.9272 267.3105 L440.9066 267.4295 L440.8343 267.8481 L440.7126 268.5538 L440.6235 269.1339 L440.1241 269.3728 L439.7567 269.4543 L437.1396 269.322 L436.5957 270.7177 L436.4104 272.9747 L436.4875 274.4278 L439.3225 275.0636 L439.4138 280.0737 L441.8809 279.4095 L439.9774 283.5856 L433.4477 286.3319 L428.8526 287.4097 L428.3993 287.3805 L428.3124 287.3747 L428.0776 286.6881 L428.1048 286.1006 L428.3836 283.8578 L428.5933 283.445 L428.7498 283.276 L428.9395 281.0607 L426.8854 281.0607 L426.4778 278.0813 L432.9673 278.6764 L432.6999 276.9869 L432.3956 275.3516 L426.9832 274.819 L428.1733 271.0739 L432.3685 272.1974 L433.2026 268.3491 L432.6119 265.2673 L431.4278 263.0701 L430.598 262.3211 L422.9244 258.7973 L420.4965 256.9139 L412.6115 265.1965 L412.4333 266.4066 L412.8582 268.7078 L412.5028 274.4553 L412.3871 276.0448 L412.0887 276.5725 L412.0453 277.0094 L412.0561 278.192 L412.0007 279.6526 L411.5535 280.8959 L411.2459 283.3243 L409.4537 282.6261 L408.9684 282.7318 L408.0164 282.4405 L407.6251 281.9595 L407.4556 281.848 L392.335 275.9591 L385.8342 272.6077 L378.5714 274.5335 L377.2824 274.8048 L377.1928 273.6846 L376.8885 269.426 L376.0054 270.4006 L365.4083 283.5715 L364.6703 283.4616 L364.184 283.0788 L364.36 282.6627 L364.447 282.3373 L364.6464 282.1284 L365.3001 279.829 L353.5265 277.9914 L352.0625 274.0441 L347.1805 275.2592 L347.5033 271.7813 L358.1923 262.8512 L357.8934 260.9121 L356.9169 257.439 L354.9932 257.9334 L352.5739 258.3362 L351.662 258.5742 L351.5495 258.5052 L351.5294 258.3687 L350.7078 258.5867 L350.0345 255.5481 L351.1289 255.1503 L351.0616 254.556 L354.353 253.6455 L356.4109 253.2302 L361.4473 251.3992 L363.7242 248.1866 L362.6526 244.0883 L362.4428 243.7546 L362.3972 243.4433 L362.201 242.636 L362.0554 241.8053 L361.775 240.2057 L361.4435 237.7354 L361.5593 237.0962 L369.5757 235.6679 L361.2511 233.3266 L360.3387 233.2092 L356.2957 233.0053 L350.9045 232.3253 L350.7404 232.6674 L350.4714 233.796 L350.3312 234.4794 L350.3057 234.8697 L350.2943 235.0412 L348.4945 234.9063 L347.8733 234.8314 L335.0857 233.5621 L334.9797 234.3287 L335.0884 234.3978 L335.7525 234.3404 L336.0019 234.4236 L336.1638 234.7182 L336.9376 237.8685 L336.7225 238.0192 L336.573 238.0408 L333.4565 236.5069 L325.3254 235.5456 L324.2853 231.3765 L325.9025 227.6951 L327.0736 226.0712 L329.6488 223.8897 L333.425 221.2703 L333.7576 221.0372 L333.8625 221.0455 L338.2652 218.7807 L342.694 217.5821 L340.9008 213.3205 L349.2694 207.8269 L355.2089 207.8252 L367.5227 207.8019 L387.4791 210.5246 L387.4986 210.4988 L390.3728 210.7701 L392.585 210.9441 L393.0078 211.2529 L393.0241 211.2812 L400.7091 212.33 L400.0787 205.5045 L407.3007 202.2583 L410.9959 199.2534 L405.9155 194.0942 L404.7928 193.2027 L403.1142 191.7685 L404.4429 190.062 L404.4858 189.9305 L397.4486 189.0731 L387.5068 190.7404 L387.7209 191.0026 L386.7514 193.0504 L386.0352 194.6627 L385.3397 194.6527 L384.0523 194.6352 L383.3084 194.4263 L377.9389 193.5365 L377.9079 193.9968 L379.7419 194.3913 L382.5568 194.6943 L384.1969 195.0906 L382.9095 198.2162 L382.1406 200.551 L381.8857 200.9856 L381.6374 201.1595 L381.5988 201.1862 L381.0559 201.2652 L378.9594 201.1545 L377.4656 201.0755 L375.7044 200.9356 L375.2158 200.8482 L374.4616 200.561 L372.7998 200.5652 L369.129 199.275 L366.2468 198.5059 L363.6405 198.0131 L361.8342 197.5619 L360.4822 197.5212 L359.2307 197.6244 L358.8313 197.6036 L358.2912 198.2387 L358.0809 198.4276 L355.9191 198.267 L354.8231 198.277 L354.1802 198.2828 L352.9717 198.1421 L352.1804 196.5106 L351.6789 195.2337 L351.7262 194.9357 L351.8859 193.9335 L352.5054 193.703 L352.9374 193.5415 L355.0633 192.9138 L356.4582 192.7099 L358.0977 192.5501 L358.7384 192.059 L359.5921 191.9341 L363.0259 191.592 L364.654 191.3539 L365.2192 191.4297 L365.5713 191.7377 L366.3076 192.3828 L367.0516 193.1477 L367.1189 193.6139 L367.0434 194.1808 L366.7788 194.537 L366.4136 194.7493 L364.1861 194.6777 L363.3226 194.7243 L360.8512 194.6086 L363.39 195.1904 L365.5517 195.9071 L366.7049 196.2151 L367.1934 196.3025 L367.4917 196.1802 L367.3776 194.8467 L367.6955 193.7679 L367.8373 192.5567 L366.6592 191.5379 L366.0038 190.8395 L365.781 190.395 L366.0234 189.8831 L366.3006 189.605 L367.1086 189.7249 L369.0752 191.0859 L369.573 191.4297 L373.4562 193.0853 L376.3896 193.6663 L376.5206 193.2202 L373.8644 192.6292 L371.0913 191.5254 L369.6377 190.7845 L369.423 190.6239 L369.2823 190.519 L369.2263 188.1916 L369.2198 187.9086 L368.3981 187.1544 L367.6993 186.7007 L366.0017 185.9166 L365.7109 185.0059 L365.3539 184.1852 L364.7437 183.7981 L362.1277 183.2271 L361.1631 183.1297 L361.1207 183.0448 L360.8284 182.4637 L361.1908 181.141 L361.2049 181.1077 L361.5435 180.2953 L361.0099 179.8965 L358.3814 178.6928 L356.6805 177.7822 L356.299 177.5774 L356.2191 176.9231 L356.6522 176.3762 L357.0842 175.9725 L357.2989 175.0634 L357.332 174.355 L357.1679 173.9921 L357.1429 173.9796 L357.3451 172.5828 L357.6901 171.7919 L358.0439 171.6945 L359.0742 172.1382 L360.4485 172.7301 L363.0786 174.057 L364.0655 174.6764 L364.5942 173.779 L365.4447 171.5822 L365.9799 170.5433 L365.9892 170.5466 L366.0365 170.4134 L361.5408 167.8411 L360.6583 167.4615 L360.0464 167.3658 L359.616 167.5673 L356.9337 169.9947 L356.3055 170.7339 L355.8257 171.5447 L355.5621 171.6288 L352.5842 170.1212 L349.0966 168.2715 L347.5891 167.7055 L347.1957 167.5315 L346.93 166.9687 L346.4659 166.6199 L345.7959 166.4401 L345.5002 166.6224 L345.7518 166.7706 L346.7767 167.176 L347.0028 167.4665 L347.062 167.8744 L347.2881 168.165 L347.3337 168.2083 L347.7272 168.3098 L348.0885 168.5804 L348.3282 168.9616 L349.2688 169.4261 L351.9691 170.604 L352.6266 171.0169 L353.201 171.4881 L353.8324 171.7195 L354.0123 171.6937 L354.3791 171.6862 L355.0106 171.9176 L355.3083 172.383 L355.4257 172.875 L355.2991 173.5875 L354.8443 174.2551 L354.1476 175.791 L353.6819 177.0155 L353.4216 178.071 L352.9282 178.7911 L352.5163 178.8052 L350.7067 178.3757 L350.3654 178.24 L350.1019 178.3249 L350.1345 178.5513 L350.5529 178.583 L351.1724 179.0475 L351.5468 179.4096 L351.8892 179.8682 L351.9288 180.1396 L351.5311 180.5683 L351.2039 180.8472 L350.8953 180.9387 L350.5219 180.9004 L349.7449 180.3777 L349.5514 180.3136 L348.9911 180.257 L348.5983 180.083 L347.6902 179.8458 L346.7941 179.3754 L344.828 178.1842 L341.2687 175.8376 L340.8557 175.5288 L340.6177 175.4705 L340.534 175.5296 L340.5541 175.6653 L341.0312 176.104 L343.4499 177.8771 L347.4408 180.3444 L348.0918 180.7115 L348.5102 180.7431 L348.6906 180.7165 L348.9803 180.813 L349.2194 181.1943 L349.259 181.4657 L349.0678 182.0484 L348.8504 182.4496 L348.3624 182.8908 L348.0603 183.0273 L347.6869 182.9898 L347.3843 182.8025 L347.0615 182.4804 L346.8805 182.1832 L346.4931 181.7312 L343.9917 180.3402 L342.7663 179.502 L340.6454 178.1942 L340.3041 178.0594 L339.9558 177.8787 L339.5243 177.7572 L339.3575 177.8737 L339.2162 178.0169 L339.1972 178.0361 L339.12 178.1393 L339.6792 178.5364 L341.5192 179.7767 L344.2395 181.4132 L346.5278 182.6044 L348.4939 183.7964 L349.1384 184.1178 L349.6085 184.1885 L349.6345 184.3691 L349.4248 185.1391 L349.1944 185.4505 L349.0205 185.522 L348.5189 185.5495 L347.894 185.3631 L346.8142 184.7454 L346.5452 185.9807 L347.037 186.3495 L347.3919 186.5751 L348.1331 186.9288 L349.3574 187.4433 L349.7688 187.4291 L349.9932 187.0728 L350.1057 185.9474 L350.2975 185.6877 L350.8311 185.5637 L351.4066 185.8775 L352.9065 186.5551 L353.5249 186.6958 L353.7243 186.8048 L353.9639 187.186 L354.3699 187.4508 L354.8915 188.2907 L355.2953 189.0715 L355.5089 189.595 L355.5072 189.6666 L355.5034 189.8739 L355.266 190.1394 L355.1687 190.122 L354.6997 190.037 L353.796 189.198 L353.0814 189.0257 L352.1538 188.6528 L351.8256 188.6078 L351.7164 188.8084 L351.956 189.1897 L351.9886 189.4161 L351.9185 189.5651 L352.0424 190.102 L352.5956 190.1136 L353.4004 190.2735 L353.6716 190.5573 L353.8275 190.9968 L353.764 191.1908 L353.308 191.5345 L351.9528 192.3337 L351.4517 192.6841 L351.2979 192.8914 L350.7192 193.022 L349.3645 193.2202 L348.5129 193.3442 L347.2196 193.3026 L346.492 193.0387 L345.7133 192.352 L344.9041 191.607 L344.6455 191.09 L344.4433 190.3334 L344.2933 189.6159 L343.7624 188.4921 L343.4043 187.2959 L342.9446 186.3461 L342.3696 185.552 L340.8339 184.1585 L339.6406 183.2237 L337.7924 181.9102 L337.1186 181.3733 L336.9311 181.0303 L336.9431 180.7981 L337.1936 180.6224 L337.4316 180.6799 L337.8316 180.8988 L338.3331 180.8721 L338.3701 180.878 L338.8032 180.9421 L344.5965 184.6522 L344.7416 183.5259 L343.7298 182.9665 L342.7625 182.3222 L342.162 181.6704 L339.0684 179.6293 L338.2994 179.1374 L338.6777 178.5738 L338.7336 178.0111 L338.6874 177.6948 L338.6298 177.6115 L338.513 177.4425 L338.163 176.6151 L338.2397 176.5119 L338.9602 176.4062 L339.089 176.3412 L338.9858 176.2638 L336.761 174.8786 L334.6944 174.1752 L334.1972 174.0054 L334.3434 173.4294 L334.4885 172.5295 L334.7879 171.4223 L334.6645 171.2092 L334.2015 171.1851 L332.3784 170.6656 L332.1589 170.4201 L331.8757 170.3693 L331.4312 170.157 L330.9807 170.2228 L330.5954 170.4176 L330.4998 170.7089 L330.4819 171.2201 L330.5215 171.5272 L330.8449 174.0329 L330.5215 174.1394 L328.4147 174.7113 L325.8775 176.238 L325.6982 176.5876 L325.8139 176.894 L326.003 177.1437 L326.9312 177.6248 L328.1267 177.9603 L328.9837 178.25 L329.2461 178.5813 L329.3896 179.1465 L329.3891 179.9648 L329.294 181.4424 L329.1505 182.1416 L328.7152 182.7293 L327.8718 183.2537 L327.4094 183.4443 L326.265 183.7964 L325.095 183.9679 L324.7092 184.0545 L324.0027 184.4665 L322.9572 184.8661 L321.5987 185.219 L321.0509 185.453 L320.3401 185.8342 L318.6555 186.2654 L316.7394 186.5767 L315.3353 186.7199 L314.1729 186.7357 L313.5507 186.6724 L313.2589 186.5609 L313.0524 186.4061 L312.9062 186.2429 L312.7366 186.1946 L313.5735 187.2909 L315.4222 187.1711 L318.4599 186.5018 L318.4186 186.7332 L317.679 187.2918 L315.8537 188.0842 L315.1032 188.5695 L314.875 189.054 L314.9114 189.8081 L314.9869 191.3656 L314.806 191.4921 L314.5587 191.6652 L314.9788 192.3195 L315.1684 192.615 L315.6548 194.4213 L315.6341 195.4593 L315.6189 196.2293 L314.9043 197.9856 L314.4777 198.649 L314.093 199.0802 L313.3208 199.419 L312.5682 199.6487 L310.6526 200.2322 L309.5332 200.5735 L309.0425 200.7949 L309.3816 199.0186 L309.4316 198.3352 L309.2387 197.79 L309.0338 196.0636 L308.8311 194.716 L308.8132 194.5953 L308.6176 193.9635 L308.2377 194.229 L307.2574 194.6727 L305.7527 194.5928 L304.8348 194.9524 L302.2775 195.456 L299.7354 196.0245 L297.3841 196.623 L294.9175 198.3069 L296.3097 204.0837 L293.6209 205.5578 L293.0052 205.8958 L292.7585 204.6555 L290.9468 199.4381 L290.7582 199.1651 L290.781 198.8097 L288.7291 197.532 L288.5346 197.1441 L288.3085 196.6929 L288.6742 196.6396 L290.6908 195.7656 L291.5527 195.3919 L293.3856 194.0426 L294.9702 192.7149 L295.1066 192.2013 L294.1725 189.6675 L293.9828 189.0848 L293.2313 189.0024 L292.5765 189.0848 L291.7489 189.1489 L288.1178 189.6758 L287.3537 189.8989 L287.3662 189.9946 L287.3803 190.1053 L287.0483 190.0387 L286.7369 189.9913 L286.2212 190.6397 L286.0457 191.453 L285.7153 192.5875 L285.6148 193.9901 L285.9033 195.5592 L287.163 196.8045 L287.8634 198.5375 L287.9422 198.7398 L286.9918 199.5797 L285.5338 198.5716 L284.8312 198.0855 L283.4476 196.2609 L279.6236 193.6488 L279.5258 193.9477 L279.4905 194.0551 L278.3819 193.6164 L278.2765 192.8939 L278.2178 192.8439 L276.0153 195.3095 L274.9416 197.0633 L274.3047 197.7417 L274.2715 198.1471 L274.1357 198.4751 L273.896 198.7256 L273.6694 198.8513 L273.1592 198.9262 L273.0179 199.0086 L272.8684 198.8313 L272.3652 199.3949 L271.8066 202.6844 L270.3383 204.4258 L266.6458 210.1575 L266.0209 210.9266 L265.8752 212.8793 L265.7296 215.0368 L266.0209 215.9407 L266.4583 216.7856 L266.7208 217.7186 L265.7296 220.1092 L265.9627 220.9257 L267.1017 221.2919 L267.838 220.8857 L269.121 221.3086 L269.5204 223.6949 L264.9873 229.5404 L262.7093 228.465 L258.8065 233.4981 L259.4146 235.3941 L258.0517 236.7874 L261.6762 242.4437 L261.7632 242.2598 L261.974 242.219 L262.2463 242.1066 L262.4387 242.1874 L262.6212 242.4512 L262.699 242.9847 L262.8739 243.7305 L264.8291 246.9581 L267.3615 250.5195 L268.3787 251.837 L269.69 254.3072 L269.0906 254.71 L269.0993 254.7283 L268.9814 254.7832 L267.6826 255.6563 L266.1801 256.4936 L265.7361 256.6675 L265.1302 256.7199 L262.2463 258.7332 L261.8393 259.1934 L261.4426 259.642 L261.0165 260.1247 L260.159 261.0952 L259.5319 261.8043 L258.6538 262.6149 L258.532 262.7264 L258.2929 262.2695 L257.9582 263.4288 L257.3844 264.5798 L251.5155 267.0849 L249.5217 266.271 L249.407 256.8348 L251.3677 251.0663 L243.6349 253.0804 L241.1574 254.1457 L241.1406 254.1973 L242.4937 256.3596 L237.954 258.645 L236.533 256.9446 L236.0254 254.407 L236.4563 248.6468 L236.7867 246.4637 L238.1061 242.9872 L238.5882 241.4391 L238.7659 239.9418 L238.6898 238.5211 L239.5272 237.3533 L240.9243 236.447 L240.1081 234.3196 L236.114 230.4418 L235.5021 229.3048 L234.4234 223.446 L234.6288 222.4622 L231.2678 215.0135 L229.2126 206.4851 L230.2619 204.6189 L227.9301 204.6772 L227.9301 203.1614 L229.2708 200.5377 L228.7464 198.2062 L224.2632 192.5251 L223.6192 190.1511 L226.7482 189.5942 L227.7334 186.9297 L228.7882 183.3977 L229.1115 182.2506 L229.2224 181.911 L228.6241 181.2859 L229.3762 177.4142 L233.386 174.5224 L240.7803 172.7917 L243.9989 175.9125 L244.9679 173.0123 L247.0078 171.2675 L247.9409 170.0496 L250.3243 167.7429 L251.3655 166.8147 L252.4724 165.581 L253.5674 164.4464 L256.0736 159.9045 L259.5129 160.3765 L260.2346 160.5488 L260.5905 160.503 L262.2843 160.6862 L265.3291 161.5203 L266.3855 161.9165 L267.331 160.5405 L267.5642 159.6897 L267.9369 158.8805 L257.4588 156.8177 L257.1605 156.6162 L257.1414 156.5305 L256.7649 156.1534 L256.7518 155.3225 L256.8779 155.3359 L256.7703 154.8472 L254.6472 154.4643 L254.6222 154.4018 L253.9472 154.4593 L253.7782 152.4297 L253.4169 152.2532 L253.35 152.4696 L252.6088 151.8578 L252.0301 151.5747 L248.5653 151.2792 L246.6916 149.8473 L247.0557 148.5877 L244.0343 147.5888 L242.9779 148.1623 L242.6062 148.2955 L242.3725 148.3039 L241.8231 148.2106 L240.6917 148.2572 L238.6409 147.7486 L235.6635 148.5977 L234.2338 148.7767 L229.1311 148.8783 L228.5176 148.7559 L228.298 148.7118 L228.0894 148.5328 L227.1726 146.9053 L226.5635 145.5725 L226.3939 145.0297 L226.5808 144.2005 L226.4303 143.8458 L226.9232 143.8109 L227.0694 143.6744 L228.4192 143.4512 L228.7072 143.4612 L229.5365 143.6019 L229.7153 143.6111 L235.8885 143.1707 L248.5886 142.2524 L249.0011 142.0635 L250.9248 141.8179 L251.1579 141.817 L252.5414 141.1902 L252.5414 136.7862 L260.1003 133.2563 L265.3117 133.5227 L265.4133 132.9682 L265.3448 132.9682 L264.9134 132.8742 L264.108 132.0883 L263.4826 131.8843 L262.9451 131.9026 L262.5876 131.9551 L262.2947 131.7353 L262.0691 131.3765 L261.3257 131.0751 L261.1019 131.0701 L260.5535 130.8886 L260.3927 130.8595 L260.0998 130.6397 L260.0476 130.6472 L259.9216 130.6655 L259.2227 131.6037 L259.0635 131.846 L255.2205 134.0847 L254.5374 134.5442 L253.1903 135.6856 L252.9349 135.7231 L252.8104 135.584 L252.7365 135.4375 L252.3442 133.8166 L250.6933 128.1829 L250.1683 126.8833 L249.8657 126.5336 L249.6575 126.4129 L249.4277 126.3222 L249.0114 126.3305 L248.6104 126.4421 L248.4359 126.6777 L248.0208 127.0531 L246.3329 127.7558 L244.3772 129.44 L244.4608 130.1968 L243.2224 131.0077 L241.2248 131.9817 L240.2266 132.6519 L239.7815 132.8226 L239.6799 130.6863 L239.7206 129.8937 L239.6598 129.1161 L239.3506 128.4268 L239.1479 126.6727 L239.2278 126.4462 L238.5143 127.6068 L238.5632 128.7515 L237.8192 129.0179 L236.5645 129.3592 L235.8097 129.5299 L235.032 129.7747 L234.187 130.2317 L231.4297 131.0027 L231.2852 130.9544 L230.0908 131.3307 L227.4775 132.3722 L222.0982 134.8098 L222.2346 133.7283 L222.8248 133.3795 L222.6536 133.2646 L217.3884 133.0257 L214.8746 134.471 L212.7439 136.1959 L211.7375 137.473 L211.8059 137.826 L211.4815 138.6793 L210.8511 139.1905 L209.8806 139.7841 L209.7893 139.8165 L208.021 141.9003 L207.8759 142.3016 L207.2271 142.687 L206.9 142.6379 L206.8587 142.354 L206.7223 141.8587 L206.6625 141.4482 L206.5315 141.2093 L206.1354 140.6873 L205.6958 140.1329 L205.3099 137.8718 L205.0056 136.6713 L205.1399 136.4906 L205.4175 136.4174 L205.6811 136.25 L205.7968 135.9428 L205.9322 135.5324 L206.3359 134.9771 L207.8857 132.2015 L208.2911 131.8776 L208.5889 131.9018 L208.7862 132.2206 L208.853 132.6802 L208.8106 133.5352 L208.7362 134.1263 L208.4395 135.1694 L208.2639 135.5424 L208.2775 136.1443 L208.4389 136.265 L208.9362 136.1601 L209.3405 135.7713 L209.6323 135.2202 L210.2648 134.5009 L210.6691 134.222 L211.0191 134.1787 L211.369 134.386 L211.7864 134.3894 L212.3548 134.1121 L212.5966 133.8307 L213.2601 132.4954 L214.7931 130.519 L214.8105 130.3525 L214.6208 129.4283 L214.6464 129.1669 L214.9442 129.0845 L214.9806 128.7357 L212.5406 128.7357 L212.4048 130.6813 L212.2727 130.6888 L212.1907 130.7837 L211.6445 130.9927 L211.1739 131.0618 L209.9333 131.1375 L208.6074 130.8978 L207.2206 131.0418 L206.8342 129.5124 L206.769 129.4184 L205.0899 127.5685 L204.9535 127.0731 L205.0241 126.676 L205.7925 125.3864 L205.4398 123.9902 L205.1464 123.9944 L205.2567 123.4308 L205.267 123.3059 L204.9165 121.9172 L204.2818 123.8537 L204.2823 123.9311 L203.8987 125.0234 L203.0526 127.5785 L203.0151 127.8157 L202.6684 127.064 L202.2755 126.5378 L189.9943 125.6636 L190.1872 124.1243 L189.8509 124.1035 L190.4003 121.4884 L190.3595 120.6759 L190.2236 120.1913 L187.6087 118.8035 L188.4934 118.5454 L188.2853 118.4063 L189.0656 118.378 L189.2335 118.3289 L183.9624 117.0718 L177.6479 117.5879 L159.5359 114.3243 L158.4273 112.118 L151.2178 110.2522 L150.9391 106.8145 L151.1347 105.6822 L143.8584 106.7146 L143.5236 109.0875 L143.5263 109.8643 L143.4111 109.8851 L143.1302 111.8766 L134.9681 113.6416 L130.0703 116.9885 L120.2942 125.0434 L120.047 124.9085 L119.8742 124.0568 L120.6806 121.9397 L121.111 120.0198 L112.3946 118.9533 L112.0919 125.7552 L112.3082 126.6011 L112.0544 126.5894 L112.0142 127.4952 L100.1134 127.4952 L100.1134 125.99 L99.557 125.3548 L95.152 125.6137 L80.2407 126.6543 L74.3555 132.2739 L75.4152 139.2338 L74.5789 139.9089 L74.5039 140.1379 L74.3724 140.0754 L73.9914 140.3826 L68.1171 138.8591 L64.3806 143.0466 L65.4913 144.0581 L66.3032 144.4877 L66.7814 145.1212 L68.3209 146.1677 L69.4941 147.5022 L71.7596 149.6866 L75.344 152.4946 L76.5645 153.1015 L76.8063 153.6401 L80.6157 156.6245 L82.2351 167.8711 L84.0827 180.1496 L83.4034 181.2234 L81.5938 184.0537 L81.8058 194.9582 L84.1577 198.5533 L88.0529 198.7231 L90.3238 198.6815 L90.5575 199.0411 L90.5803 199.161 L91.1036 199.2034 L91.3264 201.018 L89.0685 200.8798 L86.8557 201.4842 L84.5685 201.43 L81.7846 200.9597 L79.9565 200.3987 L78.5588 200.2381 L74.7087 200.0025 L73.1872 205.1133 L66.15 214.3859 L65.2593 220.2756 L65.2549 221.222 L65.0131 221.902 L64.123 227.7866 L58.8138 229.1683 L58.5313 234.3287 L54.673 236.7091 L61.3353 241.3035 L60.1751 242.8923 L59.5056 244.5095 L59.1225 245.2494 L58.9573 246.1849 L58.9725 246.2898 L59.6311 246.4596 L59.7822 246.4055 L59.754 246.4912 L60.2267 246.6135 L57.6727 256.8672 L55.3306 259.6637 L60.5799 264.4409 L67.9813 266.4632 L69.6822 266.5756 L70.5212 269.3187 L71.0119 269.8089 L70.7011 270.0061 L70.0691 270.5928 L69.6702 271.2212 L69.5104 271.083 L69.1768 271.6648 L70.8559 273.0713 L71.9183 274.0608 L72.428 274.4561 L73.1758 275.1202 L73.2551 275.3058 L74.2958 276.2754 L74.2979 277.7068 L74.3224 277.8017 L74.2985 278.0788 L74.3012 279.6958 L71.1293 279.8273 L70.0903 278.8187 L63.5894 279.5768 L55.3979 279.3438 L48.4602 279.6642 L40.6257 284.0816 L40.9355 287.5353 L35.0557 289.5077 L34.3112 289.3828 L33.3168 289.3745 L32.3223 289.3662 L31.9854 286.6948 L28.2902 284.1316 L28.4043 283.3659 L26.5839 284.273 L26.072 283.4833 L22.1116 286.6781 L12.8083 286.9611 L11.991 283.1004 L11.2998 283.0405 L11.6182 282.1159 L11.6269 281.3786 L11.5367 280.9525 L8.787 278.1479 L7.2057 277.6569 L9.3739 281.8929 L6.646 281.8929 L8.5045 282.7002 L8.8794 287.269 L4.4723 300.684 L4.13 303.4136 L6.4286 297.5467 L6.6422 297.3253 L6.9519 296.4232 L7.6535 295.4762 L9.1826 294.4434 L10.0961 293.7444 L10.7205 293.0978 L11.4677 292.0883 L12.0356 290.9773 L12.2165 290.2159 L12.36 288.9467 L12.7219 288.1786 L13.8201 288.1079 L15.1863 288.3659 L20.9106 288.1095 L19.5706 289.2738 L19.8232 289.2979 L20.2754 289.7881 L20.9106 289.7989 L21.8996 300.0682 L23.4446 302.9575 L24.2505 303.595 L26.4665 304.5187 L28.2685 304.8424 L37.3055 305.4641 L37.6272 305.4366 L39.5269 305.4541 L40.8453 305.2377 L41.343 305.2402 L41.7903 305.2044 L42.5663 305.1961 L45.9028 305.3267 L46.5604 305.6829 L46.8728 306.0308 L47.0592 306.1348 L48.5107 306.2346 L48.4308 308.2618 L47.1777 310.1858 L47.4108 310.6518 L46.7565 311.4373 L46.9745 311.5289 L47.6651 312.257 L47.9608 312.6124 L47.8244 313.2049 L48.5107 313.9654 L46.1251 319.8654 L41.9354 318.1012 L33.3766 325.6404 L29.8552 322.8112 L23.1875 324.8 L21.3073 325.6737 L6.7981 324.0261 L0.1304 329.9509 L0.0 339.7299 M78.7518 146.221 L79.6875 145.9862 L81.3716 146.2268 L83.9533 146.9685 L85.3412 147.8377 L86.4753 147.9642 L88.8087 147.6703 L91.3237 146.9602 L93.1436 147.1317 L94.1543 147.0809 L94.5804 146.6772 L94.6592 145.8855 L94.9624 145.3044 L96.1829 145.028 L100.1074 143.6719 L103.2864 142.523 L105.1541 141.0303 L106.2252 140.7265 L106.7963 140.9845 L106.9463 143.01 L106.9931 144.6609 L106.5279 145.4609 L104.4966 146.8312 L101.2519 148.5261 L94.0734 150.8471 L89.5543 151.1202 L85.977 150.8654 L83.9647 150.0388 L81.9644 148.626 L78.7518 146.221 M84.0653 175.0485 L84.5092 174.1061 L85.3765 173.7349 L86.6796 173.6899 L87.379 173.8306 L89.1364 175.5721 L90.9971 177.6881 L91.1405 178.6729 L91.171 178.881 L91.0324 179.9257 L90.4488 179.9132 L89.7086 179.8274 L89.4994 180.053 L89.7869 180.6932 L89.9831 181.8178 L89.9928 182.1949 L89.5174 182.1433 L88.3925 181.7753 L87.6991 181.3408 L86.4731 180.2528 L85.5439 178.5372 L84.4897 177.1162 L84.3364 176.9098 L84.0816 175.8259 L84.0653 175.0485 M119.1177 187.5365 L119.2661 186.7507 L120.754 186.6533 L123.9427 186.9763 L127.7841 187.1727 L138.6872 188.1566 L139.823 188.1799 L140.9804 188.3523 L142.8324 189.1439 L143.8339 189.3886 L144.4529 189.4943 L144.5757 190.0812 L144.5355 190.638 L144.4936 191.2174 L144.649 191.7643 L144.5778 192.5717 L144.2474 193.1519 L143.6301 193.3184 L138.1101 191.6727 L134.4181 190.9852 L127.1369 189.2046 L125.5665 189.0457 L121.4876 188.6336 L120.2785 188.0468 L119.1177 187.5365 M141.4586 204.3767 L141.5032 203.6866 L142.1477 201.7863 L142.7112 199.9958 L142.7547 199.9109 L142.8748 199.6762 L142.9003 199.6271 L145.9554 199.9592 L149.7707 200.9806 L151.9618 201.5674 L153.2795 201.9603 L153.7366 202.4297 L154.355 202.6811 L157.0096 202.9258 L158.5387 203.4336 L160.4918 204.8553 L161.9802 205.418 L165.871 205.8242 L167.1193 205.7384 L167.2252 205.6702 L168.0061 205.1641 L168.5702 204.688 L169.4201 204.4657 L169.4337 204.5149 L169.5668 204.9976 L169.6282 205.2215 L169.7575 206.411 L169.4538 207.5455 L169.2603 208.4287 L169.3201 209.038 L169.5347 209.5074 L170.8378 211.4085 L171.4421 211.9388 L171.779 212.037 L172.2833 212.0811 L172.5708 212.0386 L172.698 212.1086 L172.8751 212.3183 L172.7697 212.5988 L171.9203 213.8132 L171.7714 214.6015 L171.5975 215.2158 L171.1824 216.1904 L170.7417 216.7856 L170.2433 217.389 L169.5027 217.2867 L169.2277 217.1443 L168.7593 216.8305 L166.7573 216.7306 L165.2928 216.4085 L163.9881 216.3028 L161.8204 216.1305 L157.6165 215.1284 L154.2974 214.1928 L153.1432 213.621 L152.5025 212.5872 L152.34 211.6349 L152.7959 209.1195 L152.9165 208.4545 L153.0671 206.8222 L152.7921 205.9349 L152.1052 205.5478 L151.2352 205.2365 L150.4282 205.3547 L149.9544 205.7659 L149.7881 206.6199 L149.3632 207.3649 L148.9621 207.2775 L147.9209 206.4543 L145.5147 205.587 L144.1773 205.393 L142.8253 205.1033 L141.8629 204.8195 L141.6092 204.7446 L141.4586 204.3767 M153.8838 201.5441 L154.4533 201.3943 L156.827 200.7716 L157.5416 200.5261 L159.5516 199.8352 L160.7955 198.3843 L161.1118 197.8832 L162.0166 196.4482 L162.2535 194.413 L162.2301 191.254 L162.8105 187.6888 L163.53 183.5334 L163.4708 182.1274 L162.6453 181.1252 L161.3096 179.6135 L159.9331 178.1559 L158.9354 175.5071 L158.905 175.4272 L158.5197 172.1166 L158.5121 170.0679 L158.2132 169.0174 L158.066 167.6738 L158.3127 167.2684 L158.4572 167.0312 L159.963 166.7132 L161.1145 165.959 L162.4975 165.4637 L163.8794 165.2447 L166.4797 164.8318 L166.9883 164.6595 L167.1296 164.2974 L166.29 159.7588 L166.2161 159.36 L165.9563 158.9105 L165.3656 158.8506 L163.5246 159.1361 L162.2383 159.3575 L161.991 156.6637 L161.796 155.3259 L161.4069 154.6516 L160.72 154.2645 L159.6266 154.0838 L157.9393 153.9448 L157.7116 153.9256 L157.2617 151.5048 L156.8351 147.9093 L156.9693 147.4997 L157.2324 147.4214 L157.6204 147.3065 L160.2206 147.5105 L161.9177 147.5063 L164.2044 147.2191 L165.9966 147.2008 L165.8145 147.6179 L165.7564 147.6911 L165.1592 148.4454 L164.3179 148.666 L163.674 148.9066 L165.5091 149.5151 L166.8611 149.8048 L168.4131 150.326 L168.6088 150.1944 L168.7484 150.1012 L169.8586 148.6702 L170.0347 148.6743 L170.2069 148.6493 L170.289 148.6077 L170.7112 148.6926 L170.8389 148.7626 L170.9264 149.163 L169.6402 150.589 L169.2935 151.2292 L169.2772 151.3666 L169.2538 151.5597 L169.4152 151.8603 L169.6706 152.2066 L169.8195 152.3181 L170.2955 152.6744 L170.5009 152.88 L171.2709 152.5321 L171.5187 153.0266 L170.4536 153.3587 L170.4162 153.3645 L169.7081 153.4686 L169.3788 153.2222 L168.887 153.2647 L168.6457 153.4178 L168.4446 153.447 L167.5953 154.0372 L166.0047 154.5991 L165.32 155.1386 L165.2657 155.5123 L165.5156 155.7313 L168.3887 155.2543 L171.1226 154.4859 L171.2286 154.4559 L172.3295 154.1462 L177.4175 152.4571 L178.4571 151.951 L179.9645 151.4349 L181.6192 150.7214 L183.1821 149.784 L185.178 148.1948 L186.9289 146.9352 L189.0814 145.6174 L192.4348 142.886 L193.6776 141.7596 L194.4389 141.3533 L197.5739 139.5385 L200.8719 137.2266 L202.4266 135.4283 L202.8814 134.9272 L203.1178 134.5392 L203.3585 135.3884 L204.2497 139.0914 L205.4246 141.9269 L205.6164 142.8419 L205.5795 143.8375 L205.411 145.0538 L204.9143 146.0703 L202.1348 148.5445 L197.8494 152.294 L195.8143 154.4201 L194.6601 154.9438 L194.0857 155.0278 L192.4625 155.1477 L191.912 154.992 L190.8219 155.1519 L190.4943 155.3175 L190.1193 155.9627 L189.158 157.8133 L188.9472 157.9482 L187.168 159.0862 L186.048 159.8021 L185.2041 160.0435 L184.5732 160.1359 L184.0901 160.4422 L183.7472 160.9059 L183.3304 161.2614 L183.0283 161.601 L182.7664 161.8158 L182.0202 161.9257 L181.7485 161.6701 L181.5274 161.7617 L181.1193 162.1754 L180.2449 162.6108 L179.745 162.8023 L179.2385 163.3475 L178.3332 164.7777 L177.4436 168.3281 L176.6535 169.7416 L175.8699 170.7997 L175.3395 171.5855 L173.3539 173.645 L172.5213 174.7696 L171.8611 175.8684 L171.1096 176.745 L170.4335 178.1418 L169.7429 179.8349 L169.6423 181.5597 L169.6874 182.6735 L169.9706 183.8114 L170.4004 184.7512 L170.5574 185.0226 L170.8612 185.0959 L172.154 184.8586 L172.4594 184.8028 L173.2457 184.5698 L174.2201 184.0145 L174.3581 183.7582 L174.3798 184.951 L174.3994 186.0515 L174.6369 189.6916 L174.8613 190.8595 L175.1873 192.2637 L175.008 192.6441 L174.8798 193.3708 L175.0716 194.2856 L174.82 194.9715 L174.7358 195.0706 L174.0195 195.9138 L173.0946 196.4032 L172.5376 196.603 L172.4072 196.9168 L171.9513 197.8092 L171.4704 198.5283 L169.9336 200.0508 L169.8135 200.8349 L169.9341 202.468 L169.7956 202.7244 L168.6865 202.7927 L168.5278 202.8243 L167.2252 203.084 L166.8742 203.1539 L165.301 203.6766 L164.6886 203.1323 L164.4402 202.0951 L163.787 201.6057 L163.2365 201.4908 L162.7828 201.7039 L162.5127 202.1825 L162.1677 202.4772 L160.2336 202.5163 L158.6931 202.5962 L157.1851 202.2316 L154.794 201.8013 L153.8838 201.5441 M169.3777 224.1527 L170.3276 222.2882 L170.614 221.818 L170.9302 221.3002 L171.5084 220.1949 L173.0267 218.0358 L173.4153 217.389 L174.5749 215.6686 L174.9765 214.5957 L175.5128 213.6701 L175.9786 212.7778 L176.2475 212.3982 L177.1002 211.6757 L177.4115 211.347 L177.5012 211.1563 L177.4507 210.8101 L177.2855 210.4805 L177.2349 210.1342 L176.6844 207.5622 L176.1546 206.3427 L175.6672 205.4122 L175.9275 204.7845 L176.1236 204.5198 L176.46 204.4116 L177.0491 204.0304 L177.7533 203.6325 L182.0295 210.8467 L182.2061 211.2071 L181.9703 211.4535 L181.1709 211.5559 L180.6166 211.5833 L179.9737 210.8459 L179.6781 210.7834 L179.4167 211.0107 L179.8172 211.7606 L180.4128 212.2567 L180.8731 212.2043 L181.7806 212.3574 L179.5624 214.038 L177.3833 212.7653 L177.1621 212.8569 L176.8768 213.3113 L174.9151 216.8139 L173.2941 220.2357 L172.2589 222.1875 L170.9938 223.6508 L170.4401 224.2018 L169.9331 224.7062 L169.5641 224.7078 L169.3777 224.1527 M173.5479 232.3836 L173.5734 231.9857 L173.5815 231.86 L173.7141 231.508 L174.0842 231.2691 L174.9069 231.111 L176.1823 230.7764 L177.931 230.4093 L179.8863 230.1962 L180.1275 230.0872 L180.1199 229.274 L180.7014 229.2257 L181.2975 229.0276 L181.7752 228.7721 L181.9958 228.5183 L182.0001 228.2952 L181.8838 227.4987 L181.9241 227.2706 L182.0778 227.0633 L182.5767 226.9526 L184.2694 226.7046 L184.9123 226.5739 L184.9677 226.1952 L185.4921 226.0079 L186.1339 225.6517 L189.5922 223.8564 L192.0691 222.6794 L192.8907 222.3573 L193.426 222.1476 L193.0298 222.8501 L193.0168 222.8734 L192.8864 223.744 L193.0592 224.6804 L193.3863 225.4103 L193.6243 225.7824 L193.7336 226.0254 L192.8223 226.0845 L188.6276 226.0704 L187.1245 226.1053 L186.9996 226.1236 L186.8365 226.1469 L186.3638 226.4383 L186.1812 227.2057 L186.1681 227.8732 L186.2105 228.1637 L186.1448 228.4692 L185.8741 229.0435 L185.7513 229.304 L185.3704 230.7289 L185.3345 232.2512 L185.4769 234.4877 L185.9986 236.5576 L186.2681 238.4054 L186.3725 238.8706 L186.6681 239.3825 L186.8039 240.0658 L186.974 240.7259 L187.255 241.6464 L187.6223 242.1483 L188.1962 242.8041 L188.7276 243.1703 L189.3509 243.4117 L189.8253 243.6381 L190.0786 243.8603 L190.435 244.2889 L191.0958 244.7841 L191.5594 244.939 L191.7713 245.1296 L191.9213 245.4034 L192.8766 246.1516 L193.2842 246.4254 L193.651 246.9265 L194.4585 248.1774 L195.2616 249.6506 L195.5094 249.8362 L195.5812 249.8262 L195.5127 249.3551 L194.8372 247.4924 L194.2455 246.2099 L193.645 245.1137 L193.3651 244.7109 L193.1173 244.5253 L192.1995 244.0309 L191.4523 243.6963 L190.2671 242.884 L188.7233 241.3726 L187.1876 239.4158 L186.7034 237.8602 L186.7577 237.2235 L186.6436 236.9447 L186.3697 236.5776 L186.1306 235.9476 L185.9529 235.2334 L185.8426 234.4735 L185.7551 233.1177 L185.778 232.2646 L185.7225 231.1259 L185.7557 230.3444 L186.1176 229.2932 L186.2839 228.9477 L186.8278 227.8582 L186.9104 227.3805 L187.0561 226.9002 L187.2457 226.6871 L187.5256 226.6563 L188.2597 226.5756 L189.3558 226.5265 L192.8619 226.8628 L193.4184 226.8927 L193.47 226.9959 L193.8732 229.0077 L194.0966 229.5295 L194.3889 230.7805 L194.5666 233.0103 L194.8769 233.3715 L195.1861 233.4748 L195.4383 233.4373 L195.5344 233.0902 L195.0611 230.0905 L194.7041 228.1462 L194.7101 226.9252 L194.6595 226.5756 L194.6155 226.2735 L194.7329 226.0712 L194.9546 226.0762 L195.1627 226.276 L195.3421 226.4632 L195.9833 227.3305 L196.4425 227.7067 L196.6224 227.6801 L196.6164 227.3855 L196.5278 227.0284 L196.2474 226.3675 L196.293 226.1761 L197.1826 225.4528 L197.6793 224.8252 L197.9391 224.6238 L198.602 224.1518 L199.7932 223.1838 L200.629 222.359 L201.0898 221.7364 L201.5272 221.7089 L201.9337 221.7239 L202.6135 221.8463 L204.2025 221.6507 L204.8138 221.3019 L205.1062 221.0372 L205.0437 220.8616 L204.8312 220.4113 L204.5981 220.0759 L203.4102 218.9472 L203.4091 218.6933 L203.4053 217.7228 L203.0222 217.4556 L202.6738 217.2134 L202.6086 216.2612 L202.1733 213.1457 L201.9544 212.4215 L201.6321 210.8276 L202.5217 210.6136 L202.8379 210.9757 L202.9624 211.3128 L203.1732 211.6225 L203.3488 212.0511 L203.4254 212.6821 L203.5025 213.9872 L203.5161 214.0613 L203.6906 215.0185 L204.1639 218.2697 L204.5377 218.4037 L204.923 218.0449 L204.3372 212.8818 L204.0416 211.7615 L203.9759 211.5109 L203.5808 211.0565 L203.5145 210.7027 L204.3639 210.6403 L204.647 210.5612 L204.8323 210.5712 L204.8584 210.7526 L205.1127 211.1114 L205.3632 211.6424 L205.4719 212.4382 L205.4936 212.4781 L205.9224 213.2606 L206.0479 213.8707 L206.1234 214.8953 L206.3691 217.3383 L206.8869 218.3779 L208.6275 218.2896 L208.6987 218.2863 L209.2638 218.0541 L209.4991 217.8785 L209.6274 217.7486 L209.6361 217.3033 L209.5709 216.3511 L209.2095 214.8429 L208.8041 213.3563 L208.5547 212.6529 L208.5846 212.3524 L208.4395 211.7232 L208.4188 211.4926 L207.7108 210.6178 L207.489 209.614 L207.3999 208.5344 L207.6243 208.0574 L208.1487 207.8702 L208.4471 207.9001 L208.6378 207.9459 L209.516 208.4095 L209.6545 209.1528 L209.9225 210.4588 L210.5392 211.6624 L210.9414 211.8996 L211.7652 212.0012 L212.9846 212.0445 L213.3449 211.992 L215.1697 211.2404 L215.7125 210.9824 L216.4076 210.6519 L217.5531 210.1883 L218.4063 210.0043 L218.4291 209.9219 L218.6475 209.1237 L216.9863 207.8077 L213.8687 206.0822 L211.3924 205.4837 L210.3572 205.1916 L208.3868 205.0359 L207.6401 205.0734 L206.8543 205.1125 L206.3886 204.39 L206.5163 203.2438 L206.8407 202.7477 L207.1521 202.1109 L207.6243 201.947 L208.7242 202.4822 L209.9393 202.7477 L211.1044 202.6403 L211.8755 202.5496 L213.1368 202.2433 L215.1881 201.9428 L216.7863 201.4151 L218.391 201.4733 L218.9719 201.4251 L219.4534 201.2711 L220.8761 200.6926 L221.3874 201.2103 L220.575 201.8962 L220.5783 202.7502 L220.7772 203.2954 L220.8815 203.7615 L221.2233 204.3401 L221.3945 204.7587 L220.9777 205.9599 L220.7734 208.1299 L220.8619 210.8625 L219.3045 209.6448 L219.148 210.0901 L219.1024 210.2199 L220.3055 211.4127 L220.9435 211.5043 L221.6276 211.4044 L221.8542 211.4452 L222.1477 211.4393 L222.3802 211.7748 L222.4857 212.0328 L223.0438 211.7082 L222.9628 211.4818 L222.6079 210.0551 L222.2286 208.9647 L222.046 208.2156 L222.296 207.6612 L222.8345 207.0652 L223.4296 206.6083 L223.81 206.4418 L224.9876 206.1954 L227.4346 205.5786 L228.1486 205.1783 L229.0115 204.7929 L229.0844 205.0409 L228.9018 205.8075 L228.8431 206.6657 L229.5919 210.5487 L230.1076 212.3208 L230.7782 214.4042 L230.8369 215.0609 L230.7912 215.2524 L230.8385 215.5778 L231.0151 216.0323 L231.671 218.2655 L232.1503 220.0434 L233.3621 222.3057 L233.7974 222.7693 L234.13 223.7931 L234.4185 225.268 L234.631 226.7271 L235.0076 229.0651 L235.4472 230.0797 L235.8624 231.3274 L236.3319 232.0149 L236.1678 232.4393 L235.582 232.8205 L235.2467 232.8996 L234.9533 232.8522 L234.1843 232.0265 L232.9486 228.872 L232.5715 227.4221 L232.4644 226.2726 L232.3182 225.6817 L232.4209 224.9309 L231.9808 224.1818 L231.4232 223.8614 L231.058 223.6508 L230.4195 223.56 L229.9973 223.4369 L229.6566 223.1164 L229.2436 222.8068 L227.4471 221.3235 L226.8216 220.5644 L226.764 220.1666 L226.6749 219.8095 L226.7873 219.5715 L226.6933 219.1786 L226.4716 218.9156 L226.301 218.7558 L225.9614 218.6942 L225.3343 218.9339 L225.1017 218.5984 L224.8419 217.8235 L224.6952 217.0686 L224.1567 216.1497 L223.6497 214.3651 L223.2242 214.3884 L223.4622 215.1675 L223.6828 216.4302 L223.7209 216.9795 L223.923 217.32 L224.2241 218.1265 L224.3496 218.7366 L224.3333 218.8989 L224.3197 219.0371 L224.0839 219.1827 L223.2916 219.2984 L220.3082 219.514 L220.0191 219.2968 L219.7458 219.1894 L219.1649 219.2369 L218.2851 219.2552 L217.5439 219.2152 L217.4493 219.3434 L217.421 219.3817 L217.1901 219.5631 L216.2956 219.7313 L216.038 219.7321 L215.0642 219.3567 L214.6752 218.4519 L214.3719 217.1277 L214.0812 216.3935 L213.7236 215.706 L213.5286 215.1783 L213.3601 214.723 L213.1895 214.6797 L212.752 214.7064 L211.394 214.9794 L210.9685 215.3373 L210.7381 215.7776 L210.7604 216.1813 L210.8593 216.6108 L210.8984 216.6724 L211.2891 217.2867 L211.6641 217.7236 L210.6778 217.9434 L209.6833 218.263 L209.9784 219.7704 L210.3099 221.1662 L211.0288 223.6474 L211.1647 224.1352 L209.6681 224.8443 L208.1471 225.511 L206.2555 226.1578 L204.672 226.648 L204.6676 226.8711 L204.6828 226.9377 L205.2235 229.2732 L205.3784 229.9832 L205.2034 230.0456 L203.0645 230.5067 L202.9363 230.6365 L203.0151 231.1792 L203.1749 231.2674 L203.5661 231.1725 L206.0397 230.7364 L207.608 230.396 L208.7699 230.0406 L208.8671 229.9524 L209.2329 229.9365 L209.5421 230.0389 L209.654 230.1638 L209.7176 230.2345 L209.8833 230.6174 L210.0713 231.4031 L210.0871 231.5113 L210.0311 231.6312 L209.1541 231.7727 L207.7064 232.0823 L205.9169 232.4185 L203.777 232.6208 L202.1152 232.8272 L201.649 232.898 L201.4126 233.0428 L201.4251 233.6329 L201.7957 236.6842 L201.6989 237.0312 L201.818 238.6043 L201.8886 239.0879 L201.9761 239.6905 L201.7386 239.5773 L201.2164 238.7666 L200.6029 237.0812 L200.235 236.3213 L200.1638 236.0474 L200.2268 235.3075 L200.4496 234.3121 L200.4208 234.2138 L200.304 233.816 L200.1122 233.5105 L200.004 233.5264 L199.6372 234.5426 L199.5655 236.0707 L199.4867 237.0446 L199.8242 239.3634 L200.0687 240.0309 L200.3839 240.4287 L200.6214 240.5419 L200.942 240.9764 L201.6653 241.648 L202.4445 242.1999 L203.4161 243.316 L204.0041 244.0251 L204.2829 244.3613 L202.9238 244.4013 L202.5331 243.3634 L201.6984 242.3572 L200.1285 240.9214 L199.472 240.2032 L198.8966 239.0296 L198.5254 237.4923 L198.6026 236.0 L198.5808 234.3379 L198.4673 232.7997 L198.1754 231.8068 L197.5619 230.1197 L197.2614 229.572 L196.7984 229.6769 L196.6609 229.9931 L197.0174 230.4218 L197.3136 231.1925 L197.5239 232.3827 L197.6342 233.3924 L197.876 236.3179 L197.7576 236.2613 L197.5309 236.2206 L197.356 236.283 L197.1875 236.6409 L197.2201 237.117 L197.9988 240.4454 L198.2412 240.5943 L198.6227 240.6867 L198.7308 240.6709 L199.9443 241.6772 L201.4115 243.1653 L202.2646 244.2248 L202.3798 244.7625 L202.0723 245.9327 L201.8006 246.343 L201.9 246.7725 L202.2103 247.1337 L202.3 247.7504 L202.1788 248.4338 L201.9837 248.611 L201.8457 248.9273 L201.925 249.4708 L202.1527 249.7704 L202.2619 250.0134 L202.2478 250.4229 L201.8891 250.993 L201.7674 251.4183 L202.4967 253.9019 L202.4961 255.1603 L202.3635 255.5131 L202.0712 255.7778 L202.0 256.0475 L201.3919 256.2048 L200.1692 256.6117 L199.5791 257.1053 L198.6977 258.2105 L197.9141 258.2114 L197.8206 257.6587 L197.8755 257.2809 L197.1299 255.9468 L196.468 255.1919 L194.9975 254.1865 L194.6003 253.9851 L194.3569 253.5764 L193.9303 253.2202 L193.6031 252.9472 L193.4885 252.1591 L193.3972 251.534 L193.2467 251.2602 L193.0874 251.1969 L192.3978 250.9672 L191.8088 250.73 L191.5501 250.472 L191.4045 249.9751 L191.1355 249.6447 L190.5997 249.5007 L190.3475 249.5382 L188.0217 248.1682 L187.1963 247.5499 L185.678 246.219 L183.6184 244.7084 L181.5285 243.2394 L179.5711 241.4183 L178.1462 240.2215 L177.7381 239.9485 L177.5468 239.6439 L176.9187 238.1091 L176.5899 236.8623 L176.2997 236.1248 L175.7248 235.2101 L174.9129 234.1814 L174.0087 233.2783 L173.5479 232.3836 M174.382 151.8053 L174.5901 150.5416 L175.2189 149.8082 L179.2869 147.7819 L184.2444 145.1321 L184.9846 144.8257 L185.9866 144.9755 L187.1305 144.4128 L188.9368 143.0142 L189.8932 141.8379 L191.7066 140.4875 L196.2784 137.2033 L198.8585 135.395 L201.2213 134.1113 L200.9485 134.5958 L200.0258 135.6681 L198.9031 136.3749 L198.0287 137.4397 L197.0783 138.3197 L193.4162 140.7797 L190.3715 143.0999 L188.9151 144.546 L186.7996 145.843 L184.7803 147.1251 L183.3201 147.5363 L178.3739 149.5926 L177.1366 150.8588 L175.897 151.4357 L174.8977 151.7637 L174.5401 151.8811 L174.382 151.8053 M177.7392 220.6102 L178.638 220.2199 L180.9073 218.8898 L180.8704 218.6359 L180.7041 218.3163 L178.7847 215.1716 L179.2043 214.8046 L179.6977 214.3726 L180.4117 213.9731 L181.3698 215.7543 L181.9192 217.0045 L182.1327 217.712 L182.412 218.1148 L182.8392 218.2738 L183.5032 219.8028 L184.145 220.9282 L184.3205 221.1238 L184.4232 221.0722 L184.4172 220.7775 L184.276 220.0592 L183.9238 219.4083 L183.4934 218.4736 L183.3527 218.0133 L183.2897 217.5796 L183.1544 217.156 L182.7517 216.6607 L182.581 216.5009 L182.2691 215.6219 L181.9268 214.7854 L181.2752 213.8465 L181.0997 213.6501 L182.1099 212.7628 L183.9548 213.5644 L185.4829 213.71 L187.03 213.2248 L187.1115 213.0283 L186.7083 212.5331 L184.2493 210.3781 L183.4679 209.718 L183.745 209.604 L185.5677 208.4869 L186.667 207.9559 L187.5403 207.6437 L188.6043 207.3766 L188.8108 207.5314 L189.2085 209.2769 L189.4221 210.2133 L189.5254 210.3931 L189.6183 210.5545 L189.7905 211.2313 L189.8128 211.4052 L190.0394 213.1906 L190.2894 214.152 L190.497 214.5649 L190.8013 214.8895 L191.9349 215.3523 L192.1571 215.6153 L192.2245 215.8267 L192.381 216.3952 L191.6235 217.5039 L191.605 217.7611 L191.599 217.8402 L191.7311 218.2131 L192.0354 219.0704 L193.6912 221.8579 L193.3217 222.0968 L192.8543 222.2266 L192.1908 222.4106 L191.1578 222.6353 L188.8727 223.8572 L187.4805 224.394 L185.6459 225.3854 L185.2313 225.6101 L185.134 225.6983 L184.9628 225.2797 L184.6737 225.0641 L183.7418 224.7195 L182.6642 224.1385 L182.1686 223.4893 L181.9654 223.2229 L182.1871 222.2608 L182.2191 221.6507 L181.8192 221.3918 L181.4105 221.3302 L180.7666 221.6215 L180.3525 222.091 L179.8363 222.1209 L178.287 221.3427 L178.1723 221.192 L177.7392 220.6102 M189.5672 206.1347 L190.3867 198.1937 L190.4964 197.8075 L190.7355 197.8932 L190.8991 198.0356 L191.1344 198.2503 L191.2529 198.3918 L191.4463 198.8405 L191.5164 199.3216 L191.5403 199.901 L190.9795 205.7842 L190.5095 206.3902 L190.0057 206.6074 L189.6906 206.4118 L189.5672 206.1347 M191.3561 205.7293 L192.1468 200.5286 L192.2745 200.02 L192.5707 199.9309 L192.7869 200.1723 L192.95 200.4129 L193.0315 200.7109 L193.2298 201.0904 L192.6446 205.2532 L192.212 205.6494 L191.8642 205.7984 L191.6017 205.86 L191.3561 205.7293 M197.8717 265.9714 L197.982 265.5111 L199.3715 263.6677 L199.7231 263.3498 L199.9986 263.4205 L200.1567 263.5969 L200.2024 264.2111 L199.5106 265.6867 L199.1009 266.2127 L198.5113 266.5648 L198.1026 266.4915 L197.9689 266.3334 L197.8717 265.9714 M197.9929 204.7837 L198.3064 203.4061 L198.2455 200.7159 L199.203 200.9822 L199.491 200.9398 L200.0698 201.6315 L200.6991 202.1684 L200.7257 202.349 L200.6186 204.1403 L200.7067 204.2377 L200.9311 202.2449 L201.0593 202.1151 L201.4908 202.0527 L201.9185 202.2117 L202.2847 202.4539 L202.4706 202.7227 L202.6331 203.5859 L202.7054 203.5751 L202.8331 203.4461 L202.8608 201.1121 L203.1232 201.1479 L204.5785 201.0455 L204.9556 204.3925 L204.2052 204.539 L202.8325 204.703 L201.2332 204.8262 L199.3454 204.7329 L197.9929 204.7837 M201.2648 265.978 L201.3272 265.6501 L201.3001 265.2099 L201.3512 262.2786 L201.5376 261.0302 L201.8451 260.6149 L201.8853 260.3869 L201.843 260.0973 L201.894 259.9416 L201.9913 259.8534 L202.1353 259.8326 L202.5211 259.702 L202.7798 259.5405 L203.5015 258.6034 L204.3198 257.1511 L204.5801 256.4103 L204.5888 255.9642 L204.3687 254.9605 L204.2177 253.9243 L204.0297 253.137 L203.3259 250.5761 L203.0048 248.6243 L202.9488 244.4504 L204.347 244.4005 L204.9187 244.5395 L205.5936 244.2407 L206.712 244.3447 L207.388 244.2839 L207.5108 244.343 L207.6798 247.0721 L207.9145 248.6826 L208.2226 250.0151 L208.5867 252.2165 L209.3464 251.5831 L208.8546 249.0838 L208.5014 244.8474 L209.3453 244.3231 L210.0246 244.9498 L210.5534 247.6481 L210.4718 249.3692 L210.9647 251.4067 L211.1718 252.829 L211.0984 253.7246 L210.5832 254.0192 L209.8953 254.0067 L209.6236 253.4865 L209.1693 252.9556 L208.5666 253.0138 L208.9128 255.5373 L209.0405 255.633 L211.5473 255.3409 L212.5428 255.1195 L212.8944 255.1827 L212.9476 255.2901 L212.9917 255.5897 L213.0563 255.772 L213.1732 255.7928 L213.5459 255.7379 L213.716 255.5989 L213.7312 255.4432 L213.7149 255.3309 L213.8475 255.196 L214.2573 255.1361 L214.4768 255.0171 L214.3801 252.7675 L214.404 251.9776 L214.3377 251.1096 L214.8181 250.0559 L215.1958 249.8045 L215.9011 249.5723 L216.4516 249.4691 L216.9619 249.559 L217.4346 249.4342 L217.496 249.4175 L218.1405 249.9244 L219.1056 251.8503 L219.1448 252.3804 L218.5253 253.3201 L217.227 255.1494 L216.7064 255.494 L216.2614 256.0949 L216.1793 257.1019 L215.6658 258.0649 L215.5816 258.223 L214.4909 259.8759 L214.3801 260.1605 L213.8095 260.8996 L213.5476 261.2391 L212.8183 261.1925 L212.0238 260.9645 L211.6831 260.9762 L211.0082 261.3049 L210.3729 261.6711 L208.7655 262.6282 L208.2188 263.0535 L207.7678 263.6169 L207.5331 264.356 L207.4255 265.4437 L207.2988 265.8831 L207.0391 266.1894 L206.5397 266.4158 L206.3006 266.6039 L206.1001 267.0541 L206.1278 267.5094 L206.2892 267.8306 L207.2407 268.8776 L207.4168 269.0432 L208.8981 271.4484 L208.6911 271.9935 L208.371 272.2657 L207.739 272.8241 L207.0483 273.3076 L206.1082 273.9052 L205.9485 273.8519 L204.1079 271.4034 L203.6362 270.5154 L202.6597 266.9451 L202.4831 266.7795 L201.9201 267.0924 L201.4838 267.2322 L201.2648 265.978 M221.851 191.85 L222.0499 191.4513 L222.559 191.4138 L222.8009 191.5637 L225.0234 194.9707 L225.5255 195.5933 L226.996 197.4171 L227.5503 198.7031 L227.4128 199.0195 L227.0797 199.2525 L225.3576 199.2833 L225.2212 198.6008 L224.6985 197.532 L223.147 194.9499 L222.5395 193.6647 L222.2976 193.1527 L221.851 191.85 M225.0327 177.1154 L225.1457 175.6212 L225.5587 174.6747 L226.3064 173.342 L227.9541 171.603 L228.3872 171.8968 L228.9746 172.7093 L228.4567 174.4874 L227.7758 176.1614 L227.7568 176.2089 L227.8383 177.286 L227.9084 179.8399 L228.0443 181.4016 L227.2291 182.0117 L226.5347 182.0833 L226.1809 182.1199 L225.437 181.722 L225.0979 181.0528 L225.1201 178.7278 L225.0327 177.1154 M225.5853 251.4974 L226.8118 250.8565 L228.3959 250.1333 L229.8343 249.5873 L229.9305 249.7263 L229.8055 250.4337 L229.5881 252.3405 L229.5191 253.9584 L229.5691 254.5627 L229.6919 254.6218 L229.7924 254.6068 L229.8408 254.5993 L230.0424 254.417 L230.1109 254.1008 L230.1255 252.5769 L230.1342 251.648 L230.2734 250.2506 L230.3717 249.564 L230.6445 248.6918 L230.8173 248.358 L230.8858 248.2257 L231.1874 247.8112 L231.9558 247.3884 L233.1986 246.9648 L233.4181 247.2802 L233.4349 247.6031 L232.8904 249.1404 L232.8225 249.4566 L232.8307 250.2972 L233.0078 250.864 L233.0725 250.9123 L233.3333 250.874 L233.423 250.7076 L233.7648 249.395 L234.3897 248.1941 L235.5032 246.6918 L235.6896 246.6643 L235.9238 246.7059 L236.2493 246.8499 L236.4368 247.0904 L236.4433 247.3959 L236.0999 248.1433 L235.8048 250.7275 L235.5744 252.3039 L235.4869 253.3076 L235.3364 254.1782 L234.8505 255.2826 L234.5413 255.8294 L234.4995 255.9026 L234.3234 256.7149 L234.287 257.2418 L234.3707 257.608 L234.4071 258.2754 L234.5783 259.037 L234.6147 259.6795 L234.1783 259.8193 L234.0088 259.7968 L233.9066 259.7827 L233.6501 259.5904 L232.9986 259.0353 L231.3694 257.7819 L230.6978 257.6121 L230.3679 257.6987 L230.0016 258.0582 L228.9806 258.6292 L228.5871 258.8123 L227.6617 259.2425 L227.4748 259.002 L226.8694 258.4868 L226.8227 258.4469 L226.7102 258.1956 L226.4157 257.1993 L226.3423 256.655 L225.9766 253.941 L225.7011 252.8332 L225.5853 251.4974 M266.1703 211.3961 L266.2871 210.9774 L266.5822 210.7643 L267.0436 210.7576 L267.9206 210.9133 L268.4016 210.9924 L268.9243 211.0897 L269.3123 211.1888 L269.5253 211.5417 L269.3677 213.6717 L268.9928 215.2016 L268.4836 216.1214 L268.0407 216.4468 L267.7598 216.5392 L267.3962 216.5467 L266.9191 216.4485 L266.4594 216.113 L266.1784 215.1766 L266.1703 211.3961 M269.1308 220.249 L269.2194 219.0945 L269.5677 217.7045 L269.9003 216.1746 L270.1405 213.5094 L270.2051 212.4315 L270.9398 209.7663 L271.3778 208.7874 L272.6369 209.0413 L271.9669 212.4224 L271.6039 213.1407 L271.4795 213.6351 L271.5642 214.2203 L271.5566 214.415 L271.2719 216.9787 L270.6611 220.2448 L270.3937 220.5336 L269.502 220.5586 L269.2373 220.5661 L269.2172 220.5053 L269.1308 220.249 M269.4259 209.4325 L270.1084 206.982 L271.4338 207.2758 L270.7817 209.6331 L269.7498 209.48 L269.4259 209.4325 M313.355 261.7593 L316.0553 261.0069 L317.7866 260.3952 L318.4202 260.0848 L320.3352 259.1477 L320.5895 258.9912 L320.5895 258.9879 L321.2139 258.8497 L321.4595 259.2617 L321.5378 259.6637 L321.6171 260.074 L321.8008 262.1555 L321.828 263.7035 L322.0589 265.0218 L322.2491 265.5111 L322.4736 266.5123 L322.3817 267.2422 L322.3154 267.3313 L320.2575 267.8706 L318.6963 268.0195 L317.5116 268.0337 L316.5476 267.9355 L315.4401 267.938 L314.8647 268.062 L314.7913 267.556 L314.0778 264.2794 L313.4779 262.0598 L313.355 261.7593 M317.6415 212.1568 L317.6426 212.1161 L317.6502 211.724 L317.7491 211.4219 L318.568 211.1588 L319.1489 211.1272 L319.3478 211.1164 L320.2282 211.2754 L320.4847 211.3611 L321.5791 211.7248 L323.5289 212.2567 L327.2833 213.0774 L329.4972 213.6235 L331.2084 213.8807 L331.5078 214.177 L330.114 216.8314 L329.1934 218.2813 L328.6201 219.4241 L328.3897 219.9652 L327.9588 221.7222 L327.6338 222.9133 L327.4273 223.9504 L327.3692 224.533 L327.1404 224.9259 L326.5758 226.4458 L324.5983 227.0941 L323.5001 227.3988 L323.1229 225.298 L322.1698 221.197 L321.3003 218.1615 L320.7868 217.0869 L320.5466 216.9063 L319.8021 216.0739 L319.1821 215.3814 L318.6294 214.5274 L317.935 213.1915 L317.6926 212.5081 L317.6415 212.1568 M318.7278 270.4971 L319.4576 269.3977 L320.7123 268.7394 L322.8436 267.5069 L323.0479 267.4769 L323.8777 267.9138 L325.1705 269.1489 L325.2765 269.3986 L325.2694 269.7348 L324.8586 270.0744 L324.1359 270.5562 L323.4615 270.2225 L322.7594 269.9903 L322.335 270.1359 L322.3062 270.5171 L322.3904 270.8117 L322.1986 271.1188 L322.266 271.5982 L322.4909 272.4729 L322.4703 272.7109 L322.4513 272.9248 L321.972 272.8965 L320.7542 272.3381 L320.5097 272.2315 L319.306 271.5166 L318.8696 271.0056 L318.7278 270.4971 M319.1022 252.844 L319.1131 252.6443 L320.502 252.4013 L322.4111 251.9235 L322.9692 251.6822 L323.412 251.7229 L323.9201 251.4824 L324.5315 250.9697 L324.5652 250.0043 L324.4793 248.7916 L324.6527 248.2748 L325.3069 248.1566 L326.5801 248.4812 L327.7708 248.5062 L328.8429 248.4637 L329.8021 248.2631 L332.4496 247.4375 L333.6157 246.7733 L333.682 246.7359 L334.2841 248.6976 L334.4972 248.4013 L334.119 246.1849 L334.1597 245.1046 L334.2184 244.4196 L334.3374 243.6056 L334.5966 243.2103 L337.0181 242.1799 L337.5952 242.0575 L338.0044 242.4337 L338.4136 243.8861 L338.6277 245.0888 L338.6228 245.3285 L338.4924 246.0634 L338.5391 246.6576 L338.5782 246.9265 L338.6554 247.1021 L339.208 248.2673 L339.3156 249.008 L339.5053 249.4974 L339.7058 249.787 L340.1726 250.2756 L340.3671 250.5261 L340.4122 250.8374 L340.1639 251.033 L339.7433 251.1345 L339.7096 251.1329 L339.3444 251.1129 L338.9287 250.9747 L338.0538 250.9439 L337.1463 250.9564 L335.6938 251.2893 L335.4096 249.8969 L335.2259 249.4466 L334.9868 249.1628 L334.6596 249.0913 L334.2793 249.465 L333.8809 249.7221 L333.4609 249.8237 L331.2139 250.1516 L329.9129 250.1832 L328.2359 250.348 L327.429 250.4662 L326.8801 250.5469 L326.2095 250.8382 L325.4259 251.3642 L324.9863 251.6589 L324.2456 252.1557 L324.1071 252.2489 L324.2831 252.5794 L324.7977 252.7991 L325.9998 252.1233 L326.4709 251.8586 L327.3246 252.5178 L328.4674 253.3051 L328.8011 253.6938 L328.7185 253.9451 L328.4359 254.1732 L327.6643 254.8548 L327.0997 255.0562 L326.0932 255.4823 L323.9435 256.7507 L321.3443 258.4502 L321.0542 258.64 L320.8248 258.62 L320.5727 258.2863 L319.5962 254.8806 L319.3228 253.7537 L319.118 252.9089 L319.1022 252.844 M322.1144 259.6836 L322.2024 259.4714 L324.0359 257.9309 L326.5117 256.4553 L327.4464 256.0799 L328.0713 255.7503 L328.1484 255.7387 L328.3147 255.7936 L330.3232 258.7224 L330.3683 258.8089 L330.8633 259.7178 L330.9085 260.029 L330.7769 260.4859 L330.4607 260.9504 L329.851 261.7352 L328.9549 262.1047 L327.8925 262.4193 L327.0817 263.3731 L325.6178 264.4617 L325.2314 264.7971 L324.3315 265.6842 L323.9625 266.4141 L323.7077 266.2926 L323.5642 266.3925 L323.5033 266.5207 L323.455 267.005 L323.2398 267.1565 L322.8637 267.2905 L322.6915 267.1964 L322.6235 266.7295 L322.479 264.6423 L322.4638 263.4513 L322.2931 262.004 L322.2551 260.3786 L322.1812 259.8726 L322.1144 259.6836 M323.1686 186.5784 L323.2707 186.0864 L324.0044 185.7901 L325.0417 185.2981 L326.7328 184.688 L327.6692 184.5889 L328.7712 184.6472 L331.0747 184.5681 L331.8583 184.196 L332.6311 183.9621 L333.7809 183.7265 L334.3418 183.7423 L334.0815 184.4466 L333.469 185.4738 L333.2799 185.6794 L332.5767 186.4435 L331.8399 187.0812 L330.1281 187.5506 L328.9043 188.1075 L328.2495 188.4471 L326.9665 188.9957 L325.7504 189.2945 L325.2515 189.6999 L324.8798 189.8306 L324.6271 189.9197 L324.2196 189.8664 L323.7278 189.8548 L323.1686 186.5784 M324.7646 267.0325 L324.9347 266.5698 L325.4868 266.0113 L326.1661 265.5136 L327.4306 264.4134 L327.7898 264.162 L328.4701 263.9432 L328.8679 263.686 L328.8956 263.6028 L329.0668 263.418 L329.5162 263.79 L329.8216 263.9848 L330.2341 265.1483 L330.5704 265.8024 L331.141 266.7171 L331.1802 267.1423 L331.8382 267.7898 L332.3556 268.151 L332.499 268.2509 L332.5191 268.3916 L332.5496 268.6013 L332.3143 269.4319 L331.8257 270.6977 L331.0693 271.3635 L330.6693 271.6182 L330.3411 271.7497 L329.9298 271.8104 L329.8852 271.7788 L328.7364 270.9499 L325.5102 268.0778 L325.0276 267.7507 L324.7646 267.0325 M331.9361 278.678 L332.0225 278.4508 L333.8625 278.3801 L335.4932 278.4983 L336.6187 280.6479 L336.2339 282.413 L335.966 282.8533 L335.6123 283.1695 L335.0634 283.3326 L334.2032 283.3301 L333.168 283.678 L332.6572 283.3293 L331.9725 281.9012 L332.1752 281.5692 L332.1561 281.0732 L332.0676 280.4656 L331.9361 278.678 M344.6297 372.2239 L345.0552 371.0624 L345.5698 370.0107 L345.8801 369.3767 L346.5952 368.3266 L348.5939 367.542 L350.0503 367.1784 L350.8616 366.5294 L352.1478 366.5544 L352.9081 366.2423 L353.4923 366.2831 L353.696 366.3929 L354.1221 367.2408 L354.5584 367.9888 L355.2464 367.8881 L355.7268 367.5661 L356.1066 367.2466 L356.3892 367.205 L356.5794 367.4796 L356.5789 367.9073 L356.0555 368.4905 L355.5143 368.9565 L355.0622 369.4674 L352.976 370.9118 L352.137 371.3453 L351.167 372.0192 L350.4763 372.8754 L349.5308 373.8173 L349.1661 374.74 L349.1188 374.8174 L348.8053 375.3332 L348.295 375.1435 L346.5903 374.0469 L345.1606 372.8721 L344.6297 372.2239 M351.5588 300.4693 L352.4456 299.1703 L352.5157 299.0671 L353.4977 297.9861 L354.7943 296.7378 L355.5322 296.2143 L356.211 296.2135 L356.9234 296.7594 L357.6983 297.6823 L359.0248 299.4923 L360.993 300.8987 L361.9331 301.2982 L363.039 301.5903 L359.6975 307.6061 L358.4694 306.4693 L357.5369 305.653 L356.7663 305.1761 L354.6481 303.5725 L353.3613 302.6563 L352.6538 301.988 L351.6012 300.917 L351.5952 300.8563 L351.5588 300.4693 M352.8255 359.8039 L352.8527 359.3878 L353.3336 358.4634 L354.0281 357.8028 L354.171 357.5756 L354.2596 356.974 L354.3536 356.6121 L354.4661 356.1777 L355.2002 355.2275 L355.7355 354.8256 L355.9958 354.7582 L356.0653 354.7399 L356.3055 354.5252 L356.3664 354.3397 L356.8685 353.5592 L357.0511 353.0025 L357.0777 352.381 L357.3239 351.8518 L358.101 351.6479 L358.6955 351.7161 L358.8487 351.7419 L358.9036 351.6429 L359.1536 351.5472 L359.2084 351.5015 L359.2275 351.5081 L361.4114 349.2948 L362.0603 349.6334 L362.5532 350.3274 L361.8196 353.5176 L361.7717 353.6041 L361.9081 354.5044 L362.2331 355.1393 L362.5417 355.6386 L363.0151 356.2543 L363.615 356.7552 L364.1052 357.0156 L364.8888 357.5706 L365.3121 358.1406 L365.7093 358.8595 L366.3859 359.2639 L366.3299 359.5018 L366.0951 359.6108 L365.7392 359.8713 L364.7882 360.3963 L363.6742 361.1635 L362.5657 362.0696 L361.6348 363.2877 L360.4594 364.6539 L359.4535 365.2813 L358.4716 365.1532 L358.2966 365.2331 L357.5722 364.6789 L356.3724 363.5881 L355.1513 362.7485 L352.9211 360.2607 L352.8255 359.8039 M354.7236 282.7293 L354.8388 282.225 L355.0421 282.0826 L355.3355 282.0402 L359.4796 281.8829 L363.4666 281.9736 L363.8226 282.1409 L363.7873 282.418 L363.7101 282.6827 L363.6764 282.7975 L363.071 284.0808 L362.4689 285.0229 L356.4702 289.3936 L356.2408 289.5609 L356.0762 289.2388 L354.8943 283.3801 L354.7236 282.7293 M354.9415 293.5122 L355.0638 292.9488 L355.5833 291.2103 L355.6366 291.0164 L356.1197 290.4197 L356.3522 289.6824 L356.4963 289.5734 L359.6595 287.1725 L362.6716 285.0695 L362.8993 284.8697 L363.5981 283.8145 L363.9834 283.4034 L364.3698 283.4675 L364.8143 283.6747 L364.8154 283.9926 L363.1585 286.2912 L361.857 286.9877 L361.2261 287.7301 L361.5185 288.1337 L362.3809 288.2577 L362.9297 288.7146 L362.8037 289.6267 L362.9933 290.0053 L363.534 290.8492 L363.8758 290.9732 L364.0492 290.6345 L364.9333 288.8194 L365.342 288.4 L366.2223 288.4374 L367.0804 288.365 L367.2711 288.3376 L368.277 288.3317 L369.2877 288.4666 L369.9431 290.488 L370.5707 291.1221 L371.3146 291.2103 L371.7689 291.6614 L373.3128 293.1943 L373.785 293.5239 L374.2725 293.9366 L374.1855 294.8096 L374.3464 295.9156 L374.9838 298.8332 L375.0447 299.2543 L375.7679 300.9229 L375.8212 301.2915 L375.7995 301.5095 L375.3098 301.7659 L373.5628 302.5872 L373.0601 302.8652 L371.313 304.2316 L370.4979 304.7442 L369.5882 305.1794 L369.4018 305.7129 L369.3948 305.9492 L369.3768 306.5259 L369.2078 307.284 L368.8921 308.018 L368.5046 308.7253 L367.9705 309.0507 L367.8748 309.1256 L367.5314 309.3961 L365.0029 309.2746 L362.8173 308.8893 L361.8369 308.7636 L360.8941 308.5248 L359.8681 308.0837 L359.6231 307.9323 L359.7638 307.6726 L363.1053 301.6568 L363.8296 301.453 L364.2361 301.1892 L363.99 300.6358 L362.5983 300.2771 L362.0695 300.0382 L361.1941 299.5805 L360.1366 299.1037 L357.8428 297.6615 L357.0902 296.5314 L356.0632 295.6385 L355.4306 294.9669 L355.0453 294.2362 L354.9415 293.5122 M357.5641 312.3303 L357.7624 311.2185 L358.6976 308.3766 L358.8063 308.4199 L360.2572 308.9916 L361.638 309.312 L363.8161 309.6665 L366.5853 309.7838 L367.4298 309.9403 L367.4586 310.1408 L365.5626 312.6099 L364.2915 313.9297 L363.9541 314.1985 L358.314 312.852 L358.1075 312.7705 L357.6467 312.5882 L357.5641 312.3303 M362.8591 353.9861 L363.0439 352.4217 L363.214 351.5689 L363.4101 351.0871 L363.2857 350.1851 L363.4525 349.9763 L363.7019 349.6651 L364.2975 349.1841 L364.9105 348.7806 L366.951 347.827 L367.1265 347.9951 L367.5417 348.4094 L367.8036 348.595 L368.2177 348.5451 L368.6204 348.5675 L368.8291 348.7015 L368.9242 349.041 L369.1616 349.3472 L369.5132 350.0295 L370.8984 353.4618 L370.9598 353.7656 L371.1907 354.2024 L370.9957 354.4404 L369.5197 355.7309 L368.0455 357.1646 L367.0222 358.5841 L366.5994 358.763 L366.1332 358.1181 L365.643 357.3626 L365.2469 357.0656 L363.9584 355.4805 L363.2645 354.7541 L362.8591 353.9861 M364.5551 326.9044 L366.2582 325.8618 L367.9444 324.6477 L369.1279 324.2333 L369.7029 323.7257 L370.9473 323.6242 L372.6498 323.5734 L374.1143 323.6907 L375.0995 323.7057 L375.4772 323.7215 L376.8477 323.4894 L378.9469 324.2508 L380.7168 325.2635 L380.8668 325.3492 L381.5689 326.1064 L382.1601 326.3211 L382.9731 326.7938 L383.3622 327.0842 L383.4073 327.3954 L383.0432 327.7432 L382.3275 328.8383 L381.9895 329.266 L381.5928 329.5964 L380.9923 329.6155 L379.9039 328.9731 L377.7405 327.9887 L375.0408 326.8928 L373.3476 326.6032 L371.6108 326.2221 L370.1702 325.7519 L369.2431 325.8044 L366.3766 327.0392 L365.1284 327.4786 L364.7051 327.4195 L364.6007 327.1699 L364.5551 326.9044 M412.7131 273.1961 L412.8354 270.8192 L413.156 268.9941 L413.0788 267.819 L413.2587 267.0816 L413.4326 266.7212 L413.8173 266.6646 L414.4314 266.7187 L415.2846 266.6505 L415.6302 266.3409 L416.4649 265.6917 L416.9795 265.5935 L417.2691 265.6235 L418.4684 266.0221 L418.8716 266.3758 L419.0651 266.9301 L419.2319 267.5968 L418.9053 268.2359 L422.2006 269.3686 L422.7408 269.8646 L422.8212 270.2616 L422.6745 270.691 L422.6201 270.8508 L421.9159 272.3905 L421.2877 273.4116 L420.1503 275.1552 L419.7134 275.4614 L419.5558 275.4847 L419.2069 275.2933 L418.6222 275.136 L416.9012 274.3388 L415.3275 274.0034 L414.2042 274.0059 L413.6983 273.8378 L412.7131 273.1961" stroke-dasharray="" fill="none" fill-opacity="1.0" stroke="#ff0000" stroke-opacity="1.0" stroke-width="1.0px" stroke-linecap="butt" stroke-linejoin="miter" stroke-dashoffset="0.0px"/>
</g>
</svg>