<?xml version="1.0" standalone="no"?>
<!DOCTYPE svg PUBLIC "-//W3C//DTD SVG 1.1//EN" "http://www.w3.org/Graphics/SVG/1.1/DTD/svg11.dtd">
<svg width="512px" height="512px" version="1.1" xmlns="http://www.w3.org/2000/svg" xmlns:inkscape="http://www.inkscape.org/namespaces/inkscape">
<g id="layer" inkscape:groupmode="layer" inkscape:label="layer">
<path d="M48.0724 50.8479 L50.0132 51.6811 L60.8456 50.0661 L67.7602 52.9714 L68.4481 54.9568 L69.256 55.9151 L71.7664 70.5008 L69.2947 73.9484 L70.16 75.6358 L73.4556 76.4518 L72.6096 78.2247 L68.3049 80.8562 L63.612 79.1705 L62.6233 82.1677 L58.9987 83.6757 L61.769 87.499 L66.3253 90.2543 L68.7113 94.0305 L69.3555 94.5345 L75.9467 100.66 L78.31 106.2603 L78.0786 107.7848 L76.6852 109.7056 L78.542 109.9209 L79.4828 109.8803 L80.3438 110.0507 L80.8334 110.2438 L81.7278 110.6312 L83.1165 111.1707 L83.86 111.5261 L86.0381 112.9172 L87.8526 113.871 L89.2256 114.6949 L90.7575 115.4603 L98.7532 124.9294 L110.9403 134.9448 L110.7879 136.7603 L111.2685 137.2963 L110.7705 137.9514 L110.695 137.8694 L110.614 138.8354 L106.7212 142.5467 L98.2011 136.9943 L97.6678 137.0311 L97.4875 136.5848 L97.4015 136.4733 L96.8842 136.1363 L94.3738 136.1064 L93.0744 138.9422 L92.888 138.8615 L92.7031 138.9657 L92.4305 138.7163 L91.9784 138.554 L90.0566 137.6926 L86.8067 140.0569 L85.6098 141.2138 L85.6236 141.2655 L86.1791 141.7267 L85.7489 142.4412 L85.6999 142.5783 L85.6399 142.6278 L84.6117 146.5047 L84.6131 147.0249 L84.4834 147.1987 L84.4187 147.2333 L84.2741 147.7782 L81.9462 147.9063 L80.7214 147.381 L80.5088 146.8792 L80.161 146.5427 L80.0206 146.275 L79.9896 146.0157 L79.9666 145.5998 L79.8046 145.2137 L79.7225 145.2966 L79.7726 145.1667 L79.4731 144.6918 L79.537 144.6111 L79.3277 144.4736 L78.9907 143.9415 L81.1196 139.7229 L80.8605 139.263 L80.6316 138.9597 L80.0084 138.1931 L79.508 137.4214 L79.0443 136.5715 L78.636 136.0885 L78.4435 135.9364 L77.1007 135.0789 L76.6741 134.8632 L76.3517 134.5536 L75.9633 134.3255 L76.2339 133.8724 L76.2627 133.6746 L77.1546 132.2315 L77.2749 132.1311 L77.5945 131.5964 L81.0283 132.3694 L83.9562 130.1614 L86.0021 131.4896 L86.8647 135.0259 L88.1315 135.9211 L89.0105 136.4541 L89.0876 136.5544 L89.0898 136.598 L90.0138 137.251 L90.0226 137.2356 L90.0182 137.175 L90.0544 137.1801 L90.4022 136.5728 L90.4039 136.5254 L90.679 135.7233 L90.8073 135.4718 L90.9889 135.3146 L91.0777 135.3936 L91.0873 135.377 L91.0116 135.3082 L91.1725 135.0417 L91.3544 134.8188 L91.4896 134.5937 L91.6149 134.3507 L91.7738 133.9022 L91.9226 133.7259 L92.1402 133.5392 L92.8836 132.2413 L93.619 131.3145 L92.7689 131.5682 L92.5339 131.6959 L92.1703 131.7467 L91.7584 131.8697 L91.3544 131.4251 L91.1404 131.2321 L90.9228 130.9502 L90.47 130.4518 L89.9944 126.7318 L88.3826 125.301 L85.5327 124.1598 L85.2114 124.2482 L85.4685 125.7964 L84.4713 126.1531 L84.111 126.4367 L83.5313 126.4905 L82.957 126.4623 L82.5025 126.3175 L81.3076 126.3175 L76.0744 122.4778 L75.3301 122.2707 L74.7949 122.0345 L74.4709 121.7757 L74.5494 121.4818 L70.9281 119.0426 L71.8103 115.7311 L70.9414 114.114 L68.4863 112.9706 L65.9316 112.4854 L64.9858 115.0853 L65.526 115.5077 L65.7082 115.9695 L65.1365 116.5794 L61.5268 116.4538 L61.816 118.7107 L63.638 122.7939 L63.0601 122.9348 L63.6739 126.7164 L68.9441 128.5816 L67.7989 130.9344 L67.5003 131.9765 L68.0085 133.2099 L66.5244 138.639 L67.2847 141.0434 L68.2081 143.136 L69.3773 142.1448 L70.1269 145.3568 L72.546 150.127 L79.0045 153.1505 L77.8793 154.8032 L79.5492 156.127 L81.7278 157.6814 L81.9305 157.3368 L81.8542 157.2659 L81.8132 157.0502 L81.9949 156.4058 L82.565 154.8104 L82.8484 154.1114 L82.939 153.9341 L83.2752 153.7778 L83.7668 153.727 L84.2719 153.8252 L84.6631 154.0336 L85.7107 154.8019 L86.1727 155.381 L86.3328 155.8182 L86.6317 156.1377 L86.763 156.3597 L88.1111 157.3329 L88.8382 158.0171 L88.8551 158.0448 L89.183 158.304 L89.1899 158.2844 L89.2952 158.2143 L89.9986 158.7947 L90.4899 159.1654 L90.9339 159.6573 L91.7476 160.1441 L92.7061 160.0416 L92.9845 159.7141 L94.1178 157.3748 L94.2494 157.0707 L94.5704 157.1583 L97.0612 157.8309 L96.7371 158.6162 L95.0177 163.6205 L94.564 165.0605 L94.8372 165.5263 L94.3926 166.3535 L93.7645 168.7747 L93.1018 172.2954 L93.1065 172.8432 L93.0716 173.061 L92.8477 173.6934 L91.9547 178.524 L91.3434 179.7862 L91.313 179.9241 L91.0774 180.504 L90.1111 182.5697 L89.2806 184.2623 L89.0821 184.7153 L90.1686 185.3686 L89.3475 186.6367 L91.0699 189.57 L95.5212 183.7674 L101.9186 187.2772 L101.9965 187.2955 L102.0447 187.3463 L102.2302 187.5752 L102.9805 189.5999 L103.9758 190.9863 L104.2272 191.2557 L104.4456 191.5465 L104.4829 191.6929 L104.4937 192.2194 L102.941 192.8145 L101.1182 193.2099 L101.0789 193.4003 L101.5581 194.0045 L102.8968 194.2146 L103.7298 193.9383 L104.1672 194.0485 L104.5913 194.276 L109.1249 198.8355 L109.1064 199.5835 L109.2159 200.0762 L109.4409 200.2504 L109.5598 200.3755 L109.5267 200.6155 L109.3005 201.0484 L109.0309 201.4625 L113.3805 199.8632 L113.42 200.2914 L113.0902 201.6726 L112.4825 203.7573 L113.0443 204.8674 L113.9561 206.392 L115.0208 209.1192 L116.193 211.8546 L115.4117 214.0609 L115.6567 214.7888 L117.0512 215.7464 L120.5755 219.1173 L126.4202 225.8722 L131.358 240.9325 L125.6295 246.7677 L125.6737 249.1815 L122.0018 252.2595 L125.5169 252.7068 L130.1023 256.2479 L134.2022 253.7773 L137.8619 250.4663 L140.3573 247.7614 L141.9247 250.0348 L135.8779 258.9062 L136.5699 259.26 L136.9265 260.3544 L137.8884 263.3716 L139.0369 261.7437 L141.7848 262.8547 L144.6828 258.1887 L148.0163 255.7877 L149.6063 253.8149 L150.2986 253.8614 L150.9807 254.1517 L151.5433 254.5495 L151.8228 255.0954 L147.8305 262.4326 L149.2295 270.2732 L148.9281 273.8754 L145.6214 280.3626 L148.8651 283.4299 L150.2392 282.2613 L151.3492 283.7811 L154.1289 284.242 L155.7377 283.8344 L158.461 284.959 L160.0369 281.4936 L161.2128 278.8774 L161.6261 279.0626 L162.4848 280.0386 L163.1995 282.7534 L162.8866 283.4602 L163.4381 284.5344 L163.0701 286.7843 L163.0018 288.8968 L163.212 289.4542 L163.6687 288.6506 L164.2443 287.1411 L164.8097 285.9768 L165.3303 285.9901 L167.4219 287.1692 L169.3177 287.2469 L170.7794 287.7036 L172.6149 286.9076 L173.592 284.88 L174.1035 284.7951 L175.0454 285.2833 L176.4969 282.7146 L177.5448 282.9608 L178.6576 281.7778 L181.1934 283.8775 L183.1124 285.8066 L184.4348 287.4991 L185.3234 288.8554 L185.6303 289.0799 L185.8963 288.6638 L186.7824 287.523 L186.9436 287.4898 L190.3694 287.9575 L192.1037 287.558 L192.5154 287.6472 L193.1297 286.6742 L193.5585 286.5235 L194.9348 286.9691 L196.3009 287.3826 L196.8304 287.6835 L197.001 288.2025 L198.6695 289.315 L199.0165 289.6215 L199.6225 288.8814 L206.2278 290.2031 L208.5181 290.7037 L209.7219 291.1096 L210.2541 291.2329 L210.4631 291.3149 L210.6669 291.4104 L211.0573 291.9089 L211.321 292.0864 L211.5762 292.1914 L211.8101 292.2793 L212.0609 292.4773 L212.1936 292.7206 L212.5558 293.176 L212.8041 293.3552 L213.3435 293.5502 L214.9078 293.9398 L215.7104 294.2002 L215.8917 294.2441 L216.0197 294.1635 L216.4065 293.8084 L216.8644 293.3458 L217.4947 292.8751 L217.7909 292.6429 L218.2592 292.0732 L218.8592 291.573 L219.2415 291.2222 L219.8257 290.5578 L220.8224 290.7805 L222.6759 291.2316 L223.7179 291.7028 L223.7152 292.3643 L226.2618 293.0121 L226.8278 293.2037 L227.0542 293.3586 L227.2181 293.4743 L227.4382 293.8383 L227.6591 294.044 L227.6796 295.2628 L227.6409 296.0749 L227.5936 296.8495 L228.0122 297.7853 L228.5814 298.8846 L229.0349 299.7543 L229.699 300.6142 L229.6699 300.9232 L229.545 301.0708 L226.3799 303.19 L223.2772 303.0325 L224.3453 310.9377 L225.4998 311.7737 L227.1894 311.1263 L228.697 311.3235 L231.6194 311.8825 L234.0081 314.7671 L232.2221 316.3715 L236.6529 319.862 L237.2235 318.8507 L238.4143 318.4777 L239.0593 318.8507 L242.0989 321.7672 L242.5482 324.7686 L241.9012 329.6938 L241.4121 330.7554 L241.1465 331.689 L241.8294 333.5403 L241.6317 338.5729 L241.5496 339.5918 L241.7494 339.7454 L240.6447 342.1279 L243.5518 349.2913 L242.1133 352.4263 L227.6743 349.8366 L225.8305 351.3439 L223.0348 351.6063 L223.397 353.6243 L218.531 357.4298 L218.0046 357.4277 L215.74 352.5568 L213.5351 352.131 L210.5602 353.9784 L211.3288 355.51 L214.0548 358.2574 L211.55 361.6278 L208.6793 364.4327 L208.1452 364.9669 L205.802 365.9161 L203.2529 365.5099 L200.4204 365.0479 L199.1776 364.245 L197.2501 366.0236 L197.3183 367.9924 L197.375 369.9637 L196.2636 371.6104 L190.1819 379.1665 L189.6945 379.2207 L188.854 375.6161 L185.7022 377.9964 L186.5233 379.5023 L185.2128 382.13 L185.951 385.4956 L184.6936 386.7305 L186.7957 389.0685 L183.7721 391.4402 L186.5123 395.2766 L184.7207 400.2757 L187.7114 400.219 L187.6514 401.9904 L192.0725 400.9385 L194.3205 405.5242 L196.9282 400.4438 L200.878 402.8946 L201.9369 400.7577 L202.2355 400.344 L204.0746 402.6148 L205.4586 400.1166 L206.2914 399.3757 L207.0157 399.0686 L208.7299 399.6312 L211.4145 401.8283 L215.8837 395.6588 L216.1533 395.2455 L216.7104 395.6588 L217.2857 397.3304 L217.0339 399.9008 L215.1466 401.9499 L213.6318 402.5961 L214.5276 403.4406 L217.4295 405.7784 L218.5078 407.252 L216.6399 409.8641 L221.2404 411.4806 L227.0271 411.2375 L225.9903 417.1148 L225.9516 418.9274 L224.619 417.2896 L222.2634 417.2939 L217.5025 419.3496 L217.779 424.0581 L215.8989 424.1136 L215.3736 425.7683 L216.1063 431.206 L215.2133 434.3021 L216.2556 435.7692 L215.9376 437.5006 L216.7477 436.7927 L219.5125 434.4599 L220.7124 437.6925 L220.2534 442.1064 L222.4735 440.0415 L224.8844 440.2129 L227.8151 434.9205 L224.4089 432.4683 L222.9104 429.7815 L218.3734 428.4211 L218.4646 427.9988 L220.4608 424.6296 L219.7143 423.3587 L218.0776 422.4502 L219.3549 419.4392 L224.337 418.599 L226.3248 420.0107 L227.5856 423.2009 L228.4095 424.3652 L228.7871 424.9845 L229.196 424.6096 L230.6954 423.792 L231.8345 422.991 L232.6716 422.4972 L230.4911 421.1682 L227.1681 419.0767 L228.4205 418.4028 L227.8565 416.829 L230.9116 413.1312 L234.7574 412.3123 L237.0991 416.1807 L238.1166 420.3562 L240.0712 418.9146 L245.0285 423.3501 L255.6147 428.1311 L254.0015 430.2319 L255.8359 429.7645 L258.2404 429.1525 L259.126 430.0417 L256.6416 432.65 L258.0726 433.9439 L259.6596 434.3789 L262.3276 431.6239 L262.071 434.4987 L259.6394 435.9973 L259.4229 437.8128 L262.504 437.0801 L262.8695 437.7864 L262.4539 439.3783 L266.9008 435.4148 L267.8433 435.9995 L264.9021 439.2453 L266.4343 441.2437 L265.6978 444.7802 L267.094 443.0702 L271.3158 439.1297 L273.3709 439.1451 L275.8417 442.2172 L275.3828 442.5968 L273.704 444.6578 L275.4215 445.1555 L271.3048 449.1043 L272.0385 450.1871 L271.8273 450.7205 L268.6451 453.9913 L271.8107 456.827 L270.2481 458.0811 L268.4161 459.6968 L265.2519 462.3615 L266.1012 464.9762 L266.1178 466.9747 L268.4161 468.94 L269.0824 468.274 L268.3163 466.6584 L268.383 465.942 L269.965 465.2427 L270.2066 465.4926 L274.4035 463.2607 L274.7532 465.1263 L272.0219 467.4579 L270.1731 470.872 L273.5608 473.1327 L275.2031 474.2968 L276.1127 474.3138 L286.8952 479.1319 L285.1123 481.3308 L281.6035 483.8732 L277.1716 486.7981 L276.6518 487.2099 L276.978 488.4651 L277.6444 490.7461 L279.212 493.6879 L281.5344 492.2426 L284.1896 490.3633 L284.8126 491.2569 L284.5646 491.7259 L284.36 491.8964 L284.1556 492.2712 L283.2695 493.2595 L283.3204 494.8177 L282.1813 497.2564 L283.4116 500.4284 L276.09 504.102 L275.4602 504.3655 L276.4779 505.6398 L283.3287 502.2659 L286.0548 510.7241 L286.4385 512.0 L288.5762 511.7685 L293.0468 510.6388 L314.1743 505.8325 L322.6187 505.4974 L323.4012 501.507 L322.6685 495.9305 L318.2504 492.3407 L317.8103 491.3916 L318.1948 490.4941 L318.6872 490.1023 L320.3201 487.5629 L320.9795 487.5079 L321.2999 487.6849 L322.0326 486.5039 L322.5513 485.5036 L324.1593 485.4682 L326.0332 485.9965 L327.9561 486.888 L328.2729 486.8825 L328.5328 486.7004 L328.8906 485.9773 L327.2663 485.1267 L327.8718 483.3061 L330.3045 484.6424 L330.8837 483.7082 L329.7679 482.4939 L330.2862 481.8343 L331.1066 481.5239 L332.4198 481.3704 L333.1165 480.6012 L334.5089 480.0333 L334.7469 477.5786 L336.2767 476.0322 L337.3668 475.8932 L338.9004 476.8508 L338.4658 475.6552 L339.4736 475.3619 L340.3345 476.2232 L341.6431 475.1495 L345.0354 476.4415 L347.4159 474.4929 L348.1596 473.977 L347.3081 473.1498 L351.3087 468.4552 L351.8644 467.7389 L351.0128 466.933 L353.5647 463.2104 L359.0141 468.2377 L363.2386 469.3165 L364.3279 473.4355 L365.5278 472.749 L369.3432 474.8298 L373.9576 472.4761 L374.2728 470.0968 L379.0199 468.0842 L380.1838 465.9053 L379.7636 464.7924 L379.3434 463.6752 L381.6248 462.9716 L384.9779 464.5323 L385.7244 468.711 L389.7167 472.7319 L390.0015 475.4779 L392.6889 475.1368 L393.2169 478.3815 L394.826 478.3815 L393.9883 481.9844 L392.7746 482.2658 L393.1063 485.4721 L392.3764 487.9109 L394.7293 487.4973 L399.3215 490.4434 L400.9306 488.6058 L400.9306 486.9046 L406.1228 486.9046 L408.9927 493.7519 L409.7015 493.6901 L411.4688 494.2383 L412.3217 494.4362 L414.5155 495.3349 L416.0389 495.6244 L416.0845 496.9955 L419.7559 498.5342 L420.9337 497.2181 L421.4924 494.5125 L423.3252 491.5519 L423.1842 490.6353 L420.0758 489.9881 L421.6027 484.7771 L421.1355 476.4244 L423.8063 475.9085 L425.6835 473.4739 L425.2329 470.762 L419.2002 469.4231 L418.9264 467.4446 L420.9392 464.3276 L421.2958 459.9441 L424.044 455.8846 L425.537 449.8634 L429.239 448.8741 L430.3919 449.6715 L431.2048 453.181 L429.6233 454.4518 L430.9697 458.7715 L432.2996 459.2107 L433.4276 459.1638 L432.8277 457.667 L436.7979 456.3963 L439.394 452.7034 L442.8195 453.2834 L444.7659 443.2006 L448.6153 442.7691 L449.7452 442.5243 L451.241 441.6714 L451.0779 439.2534 L452.6206 438.4431 L454.1523 425.2736 L456.494 420.659 L450.7571 417.1873 L449.7563 414.5216 L450.2125 412.743 L444.8212 410.8024 L445.1474 408.4011 L451.4318 406.8272 L447.1961 406.469 L445.054 406.6831 L443.4692 405.987 L441.5146 405.6479 L441.214 405.1638 L441.2472 404.817 L441.381 404.4293 L442.0379 402.9283 L444.1731 401.8249 L443.2843 401.4909 L441.7648 400.9232 L439.1772 400.0386 L436.1371 398.9534 L431.2473 398.3379 L426.2887 398.5504 L424.8743 398.4731 L424.8635 399.1351 L424.7947 399.2264 L424.3689 399.7907 L422.3655 399.8099 L421.1012 399.7349 L420.3694 399.6031 L417.6842 399.3433 L417.3608 400.0522 L417.1841 400.2198 L416.452 400.5824 L415.6906 400.7202 L414.4699 400.8003 L414.0406 400.9339 L410.7978 404.097 L409.2664 405.2772 L408.5644 407.4222 L408.2069 407.6688 L403.0313 406.9283 L401.6536 404.3926 L395.1603 402.0062 L388.8597 402.997 L385.6277 402.3896 L385.1853 401.7259 L388.973 400.1563 L389.5232 399.589 L388.4892 399.4568 L389.5702 396.4027 L384.248 393.9842 L383.5292 393.7922 L383.0874 391.1664 L383.8494 388.1642 L381.2861 387.1251 L380.1084 387.2638 L379.1385 388.2103 L378.7459 388.6723 L378.6494 388.9124 L377.6983 387.1422 L376.9767 387.6583 L373.7558 388.8228 L372.354 387.9612 L373.9631 386.0032 L375.1492 382.1172 L373.8384 379.4809 L373.0071 376.7789 L370.4013 377.188 L369.5472 373.6811 L369.6354 370.3131 L368.0299 364.9937 L364.9694 362.6388 L363.1612 359.3539 L362.5889 358.7694 L361.1567 360.7191 L357.687 356.3974 L354.3471 355.638 L352.163 353.3853 L352.6261 351.9898 L353.5675 351.5977 L353.3629 348.1419 L356.3331 347.106 L358.0588 344.2624 L358.9947 343.6408 L362.2364 341.3402 L361.7761 340.5475 L361.9815 339.5359 L360.6619 338.7982 L357.5125 333.6227 L359.0395 331.3378 L367.2799 337.3586 L368.887 337.5831 L375.8921 338.5742 L377.8808 339.5496 L382.4733 340.862 L384.6108 341.5485 L386.8284 341.6035 L393.0262 340.4963 L392.445 338.8025 L396.5205 336.7131 L397.5875 335.8922 L398.274 335.5368 L398.9392 335.4621 L399.5994 335.7706 L400.1648 336.6504 L400.4775 336.7873 L401.9693 337.272 L403.3796 336.9955 L404.6415 336.4895 L404.7001 336.1908 L403.3572 329.9076 L403.0014 328.9378 L401.8814 327.4149 L400.4512 325.8541 L399.285 324.2531 L399.3221 323.9126 L400.3033 323.148 L398.6126 320.6219 L397.1069 317.4639 L395.5642 317.8181 L393.6731 321.2402 L392.4069 320.9159 L393.7367 315.5138 L391.0919 311.3495 L388.8735 308.9978 L389.7637 307.0776 L387.8616 304.7689 L387.5215 300.8045 L386.5715 299.8742 L387.4906 298.6252 L385.8378 297.5374 L387.245 296.4133 L387.0764 294.7874 L390.5832 295.7693 L393.3756 298.6409 L394.3256 294.3009 L396.6859 295.2094 L397.3464 294.5062 L398.4678 295.5205 L397.3862 298.1075 L396.8719 299.2171 L394.3643 297.6125 L393.8805 299.7676 L392.487 300.5468 L391.3405 300.5493 L391.8406 303.1968 L392.9128 302.6481 L393.3488 305.8068 L393.7771 306.653 L395.3834 307.9408 L400.1924 309.8129 L402.9351 308.0206 L403.5461 306.3393 L402.3727 304.3977 L404.2516 302.9886 L405.2497 300.9927 L406.7808 303.668 L408.3789 302.8486 L408.9152 302.8486 L409.1298 303.4354 L409.7087 304.3635 L411.3328 306.5049 L411.9534 307.4757 L414.1346 311.1886 L414.7804 313.4588 L417.246 313.3414 L418.89 311.8735 L419.4614 310.4679 L419.2358 309.6686 L418.7531 308.4879 L418.0484 307.6856 L416.2723 307.9225 L415.3571 306.3478 L413.9941 304.7305 L422.0692 300.3629 L424.4477 298.885 L425.4402 299.2213 L424.362 297.621 L428.1608 296.4603 L428.8547 296.4048 L430.3836 295.5939 L426.9885 289.8711 L426.6415 289.3014 L427.0341 288.8857 L427.5884 288.2853 L428.4889 287.8231 L429.0621 287.9251 L430.3062 290.0077 L432.7165 288.6429 L431.7577 285.9576 L431.9529 284.825 L433.1619 284.1251 L431.9651 281.9203 L433.019 279.9729 L436.606 275.3073 L437.5242 274.8899 L438.0417 275.7247 L439.781 279.0822 L442.4214 284.9249 L444.0554 284.9249 L445.1723 289.598 L449.5655 289.1541 L452.1202 292.15 L458.4294 295.547 L459.3003 292.1799 L462.9426 289.4333 L463.9276 288.3288 L462.8231 285.7912 L463.0321 283.4328 L462.5848 280.9729 L462.2561 279.3131 L460.196 277.6414 L458.9934 275.749 L456.7456 275.749 L455.1421 273.4101 L453.6546 276.1331 L452.5183 275.7277 L454.9458 270.5207 L451.7082 269.1293 L452.1719 268.4729 L452.7704 267.507 L454.6184 264.2837 L453.6444 263.3562 L452.3378 262.5683 L451.9822 262.5201 L451.7804 262.3857 L451.8282 262.2128 L451.9725 261.9823 L452.8855 260.3868 L452.9911 260.0795 L454.0262 262.1253 L454.8299 263.5125 L454.431 261.7552 L453.1108 259.5063 L453.2557 259.0923 L453.379 258.8614 L453.8432 258.1537 L452.1992 252.2501 L451.1514 253.1431 L449.6266 254.3186 L447.5992 254.6084 L446.6025 254.421 L446.2874 254.421 L445.3761 256.5164 L444.0471 256.6867 L443.4679 257.8028 L444.5447 259.6373 L444.4966 260.1179 L444.362 260.5601 L444.0258 261.0211 L442.7957 263.4045 L442.7833 263.5906 L442.767 263.8368 L442.7844 264.0729 L442.8054 264.3554 L442.8726 264.8266 L442.6805 264.9705 L442.2865 264.8552 L441.9782 264.4293 L441.7631 264.0677 L441.0559 263.2837 L440.5715 262.7843 L440.3716 262.5303 L440.0948 262.2922 L439.4338 261.6618 L438.9649 261.0851 L438.2267 260.4393 L437.8117 260.1167 L437.488 259.8559 L436.6361 259.4721 L436.105 259.0176 L435.8744 259.0714 L435.6132 258.9634 L435.4594 258.7252 L435.2211 258.6868 L434.7829 258.7098 L434.6436 258.6795 L433.9681 258.5331 L433.8354 258.5003 L432.5153 258.1716 L431.4774 257.8259 L430.9451 257.6445 L430.824 257.6031 L430.3858 257.4567 L430.1398 257.3798 L429.7016 257.3337 L429.1635 257.2723 L428.7098 257.1647 L428.3562 257.1186 L428.0488 257.1186 L427.7029 257.0725 L427.3493 256.9112 L426.9879 256.6265 L426.7267 256.3499 L426.4961 255.9576 L426.3037 255.681 L426.0963 255.5274 L425.7734 255.2738 L425.4352 255.0583 L425.2354 254.7894 L425.1046 254.5128 L424.9738 254.2435 L424.751 254.0744 L424.574 253.9438 L424.3741 253.9669 L424.2436 254.1666 L424.1283 254.4821 L424.0592 254.7894 L423.913 254.9661 L423.4902 255.1735 L423.0675 255.3199 L422.783 255.3353 L422.6061 255.2354 L422.5831 255.0199 L422.5986 254.7586 L422.6293 254.1436 L422.6216 253.9284 L422.5909 253.7364 L422.4449 253.3825 L422.2679 253.0906 L421.9912 252.9215 L421.6221 253.0368 L421.3146 253.1981 L421.1842 253.4056 L421.0995 253.721 L421.0763 254.0821 L420.9765 254.3587 L420.7305 254.5128 L420.3846 254.5358 L420.1891 254.4739 L420.0923 254.4432 L419.9309 254.2435 L419.7772 253.9361 L419.5773 253.5515 L419.4852 253.2442 L419.4236 253.152 L419.2314 253.0291 L419.047 252.7751 L418.87 252.5984 L418.7163 252.56 L418.4935 252.5293 L418.2167 252.3833 L418.0398 252.0525 L417.9629 251.8374 L417.875 251.7661 L417.7171 251.6376 L417.4404 251.4762 L417.0868 251.2837 L416.7699 251.0831 L417.0768 250.6093 L415.6972 249.2724 L415.1838 249.0919 L414.6319 248.8917 L414.3079 248.8938 L414.1158 249.097 L414.1835 249.3659 L414.6538 249.7928 L414.7561 249.949 L414.6906 250.0053 L414.5639 249.9477 L414.194 249.7625 L413.9117 249.9161 L413.8091 249.9644 L413.3508 250.1146 L412.8838 250.2299 L412.6615 250.4851 L412.4345 251.0059 L412.0422 251.4498 L411.5926 252.1007 L411.4776 253.0662 L411.5744 253.6869 L411.8874 254.2046 L412.056 254.6182 L412.0607 254.9674 L411.8802 255.3741 L411.2971 256.6478 L410.7005 258.4213 L410.3974 259.8307 L410.1843 260.8798 L409.9305 261.4829 L409.902 262.366 L410.3819 263.8996 L411.0084 265.772 L411.3214 266.4942 L411.5498 267.0094 L411.3463 267.7319 L411.4013 268.3039 L411.7986 269.0282 L411.8207 269.6901 L411.8252 269.8182 L411.6902 269.9155 L411.4179 270.1524 L410.8373 270.426 L409.4049 271.1127 L408.2995 271.7793 L407.9014 272.0128 L407.8403 272.0431 L407.0648 272.4302 L406.6716 272.6052 L406.378 272.6543 L406.143 272.5958 L405.1754 271.6423 L404.8057 271.3875 L404.4662 271.0679 L404.2962 270.6893 L404.3506 270.4251 L404.4441 270.128 L404.7225 269.5992 L404.9401 269.3875 L405.2544 269.1502 L405.3874 268.9953 L405.42 268.8587 L403.9882 268.3743 L403.2779 268.2842 L402.7476 267.746 L402.0094 265.6824 L399.5233 257.0759 L399.4598 250.7886 L399.71 250.276 L402.6226 250.3532 L403.5682 246.3494 L404.8013 245.5255 L404.1267 243.3742 L401.6909 243.7199 L400.8615 243.0967 L399.815 242.8346 L397.9477 242.4914 L396.7882 242.0979 L394.8155 242.4837 L394.1926 241.49 L393.1395 242.4539 L393.8514 244.6786 L391.8492 245.3757 L391.3015 242.999 L391.0187 243.2401 L390.5854 243.2901 L389.6003 243.1492 L388.6001 242.9362 L387.6802 242.555 L385.8168 242.444 L384.3459 242.2579 L383.2411 242.2037 L382.4103 241.9711 L381.8327 241.6936 L380.9887 241.1024 L380.1996 240.7349 L379.462 240.3183 L378.7326 239.8184 L378.2457 239.7031 L377.7755 239.73 L377.2535 239.8056 L376.666 239.6882 L375.8935 239.2178 L375.5448 239.0577 L374.2131 238.9557 L373.1409 238.8665 L372.453 238.6424 L371.497 238.5886 L371.0955 238.4025 L370.8718 238.1741 L370.6344 237.836 L370.422 237.4565 L370.3385 237.2042 L370.0419 236.7095 L369.808 236.5503 L369.7283 236.3005 L369.8552 235.8536 L369.7715 235.691 L369.5685 235.4272 L368.7007 234.9392 L368.2459 234.6609 L367.9788 234.576 L367.7977 234.3164 L367.2724 233.2629 L366.5422 232.6657 L365.9586 232.1615 L365.8447 232.048 L365.7388 231.9319 L365.2577 231.2954 L364.6533 230.7895 L364.1195 230.2922 L363.7213 229.7816 L363.5864 229.5217 L363.5861 229.47 L363.5303 229.3919 L363.3517 229.2412 L362.9149 229.0645 L362.3522 228.1484 L362.2209 227.9721 L361.6884 226.9108 L361.4573 226.565 L361.2151 226.0263 L360.272 224.2418 L359.836 223.5592 L359.5969 222.9705 L358.3779 220.874 L357.2977 218.742 L356.6676 218.0978 L356.5117 216.9998 L356.3007 216.6288 L356.0646 216.2121 L355.7505 215.5718 L355.7718 213.9533 L355.8479 212.7076 L356.1641 211.043 L356.737 210.2386 L356.7373 209.2144 L356.5551 207.8525 L356.648 206.9124 L356.8633 206.1273 L357.5037 204.4272 L357.9214 203.6843 L358.9084 202.4116 L359.2535 202.0146 L359.379 201.7908 L359.4841 201.6525 L359.9331 200.8994 L360.1758 200.4955 L360.4257 200.0643 L360.6641 199.5349 L361.3248 198.3424 L361.7282 197.7037 L362.1656 196.9996 L362.3019 196.6196 L363.0152 194.697 L363.579 193.2838 L363.8972 192.6796 L364.0985 192.4713 L364.1902 192.2159 L364.2619 192.0238 L363.645 190.6972 L360.7724 183.5838 L358.9754 182.7683 L357.04 183.8272 L351.3031 180.1252 L350.8884 180.3387 L342.8535 182.3293 L342.4255 183.4728 L341.8255 187.1491 L342.9948 187.3506 L344.4114 188.0654 L345.3943 189.4949 L347.2959 190.1968 L346.4919 191.4986 L346.3006 192.6476 L345.3177 192.3795 L344.0539 192.9922 L341.0398 192.4679 L340.4838 192.9973 L339.5402 192.9712 L339.2037 194.2304 L339.9825 195.9916 L341.233 197.9714 L339.1841 197.5576 L335.064 197.2519 L333.9003 196.4817 L333.9606 196.1043 L335.4489 196.603 L335.5047 195.992 L333.7057 195.3229 L333.4768 196.2033 L319.5968 194.8601 L313.3095 193.1446 L313.2915 194.7564 L311.5876 196.1252 L306.5129 191.9158 L305.9572 189.5013 L303.9757 188.8288 L301.0591 191.8616 L297.1061 188.8911 L296.709 187.2174 L298.1105 187.0107 L302.3627 188.421 L303.3884 186.7973 L300.1882 182.3037 L295.5647 177.8916 L297.2266 177.0457 L296.5506 176.0722 L297.3201 175.3886 L297.6499 176.5923 L299.0096 177.5594 L297.5288 172.271 L296.5014 172.3316 L296.1387 174.7792 L295.202 174.0538 L294.4298 175.6695 L293.0117 174.6934 L292.7972 173.1857 L295.0834 172.8987 L296.3225 171.9093 L294.1165 170.5045 L293.837 171.4183 L293.1873 170.5873 L294.2147 169.7414 L294.0676 168.7332 L293.941 168.5744 L293.8636 168.5411 L293.7673 168.5411 L293.6772 168.5633 L293.5191 168.6594 L292.618 169.3575 L290.6965 170.7837 L290.4762 170.9101 L290.273 170.9844 L290.0321 171.0015 L289.4557 170.9537 L289.2995 170.9029 L289.1903 170.8269 L288.9931 170.6258 L288.8665 170.4669 L288.6644 170.1274 L288.6033 169.9686 L288.6232 169.8422 L288.663 169.7218 L288.7366 169.5932 L289.2215 169.2922 L289.9851 168.9348 L290.6114 168.6209 L291.0946 168.3703 L291.2047 168.2567 L291.2752 168.1363 L291.3001 168.0522 L291.3299 167.9134 L291.3269 167.5269 L291.4228 167.0982 L291.7562 166.5251 L292.3056 165.853 L292.7242 165.4785 L292.9642 165.2915 L293.153 165.192 L293.401 165.0968 L293.0626 164.9473 L292.8199 164.8179 L292.2851 164.4366 L292.0532 164.1351 L291.9722 163.94 L291.934 163.6816 L291.965 163.3878 L292.1746 163.1696 L292.2998 163.0543 L292.401 162.8335 L292.4737 162.6008 L292.5685 162.3574 L292.9741 162.0273 L293.2525 161.7813 L293.4945 161.6097 L293.5464 161.4 L293.3955 161.2271 L293.1345 160.8444 L292.7499 160.2637 L292.3543 159.5565 L292.0902 159.0565 L291.5682 158.5128 L291.2683 158.2007 L290.8829 157.4726 L290.6968 156.9785 L290.6252 156.5288 L290.6335 156.3384 L290.691 155.7478 L290.5975 154.9855 L290.5699 154.7041 L290.0366 153.7795 L288.8654 153.8833 L288.2577 153.7629 L287.6108 153.066 L286.9445 152.7465 L286.6058 152.3729 L286.3307 152.0188 L285.6677 151.8958 L282.9826 152.0406 L282.1224 151.7442 L278.4702 153.2662 L277.1069 153.7236 L275.9305 153.6595 L275.2603 153.2931 L275.6855 152.4279 L277.5614 151.904 L277.544 151.3706 L276.5578 151.1161 L273.2677 151.9633 L270.4756 151.9898 L269.5527 152.0568 L266.2441 151.6879 L265.9721 153.8415 L266.2237 154.7297 L265.9107 155.8738 L266.6843 156.0407 L267.6287 155.9639 L269.0736 156.0207 L269.0191 156.3217 L267.232 157.7006 L264.7589 158.9296 L264.3436 158.7763 L263.3715 158.4176 L262.2767 158.1388 L261.4409 157.9304 L260.878 157.7352 L259.5222 157.1083 L258.5954 156.525 L256.0355 155.9741 L255.2824 155.7657 L254.9379 155.4275 L255.1558 154.8775 L254.7673 154.6443 L254.3933 155.0282 L253.9409 155.082 L253.4831 155.3528 L252.9042 155.7076 L251.1049 155.2947 L249.2522 155.0816 L247.9005 155.2264 L246.3204 155.495 L245.7008 155.8972 L244.9729 156.5241 L244.6508 156.9708 L244.3937 157.9295 L244.4285 158.5282 L244.4968 158.7772 L244.8123 159.1709 L245.2057 159.5928 L245.6168 159.791 L246.3002 160.139 L246.6066 160.4012 L246.8966 160.6147 L247.0183 160.8782 L247.6041 161.2108 L248.0855 161.4568 L248.5566 161.7463 L248.694 161.9475 L248.0957 162.0397 L246.9901 161.5665 L244.5208 159.8542 L243.533 158.9113 L242.6298 157.646 L242.442 157.0729 L242.1827 156.829 L241.1738 156.3994 L240.5777 156.0377 L240.5515 155.8165 L240.6839 155.6385 L241.0746 155.4642 L241.6029 155.521 L241.6986 155.1465 L240.7657 154.8553 L240.7309 154.5914 L241.2352 153.8637 L241.455 152.4706 L241.264 151.6751 L239.7845 151.3889 L238.3211 151.3253 L237.6529 150.5459 L237.0991 148.9953 L237.9313 148.2693 L238.7607 147.5476 L240.1605 146.6512 L237.1821 145.3525 L235.8329 145.0237 L235.1782 144.8405 L233.1787 143.5631 L230.7648 140.4758 L232.5019 138.8905 L237.1279 134.6697 L237.6529 133.7946 L235.537 133.3176 L232.9918 133.2697 L233.7316 132.3438 L238.1937 129.4836 L239.2205 129.0569 L238.5841 123.8305 L242.9494 122.9447 L242.6621 122.31 L243.2209 121.4895 L243.6168 121.4113 L244.6757 120.2778 L247.2701 120.5097 L248.1316 120.7826 L248.7484 121.8824 L249.0277 120.7404 L249.3711 119.9288 L251.4375 116.7216 L251.007 115.5385 L250.934 114.2063 L254.2019 110.5355 L253.5522 107.772 L252.8085 107.4772 L246.149 98.4255 L250.0233 95.605 L248.3133 93.1279 L250.2492 91.6178 L250.9445 91.3525 L251.9713 91.3205 L253.8431 89.4892 L255.6673 84.7821 L256.1262 84.6497 L257.8293 85.6322 L257.4146 84.1883 L254.8544 84.5685 L249.6981 76.9004 L250.5276 76.0161 L249.3968 72.9402 L247.6495 71.4278 L245.3989 72.325 L234.1657 58.5042 L237.9009 52.6125 L238.8852 51.3094 L241.0914 48.6177 L239.6482 49.2842 L238.0474 49.9422 L238.6584 50.566 L237.2291 51.9588 L236.6761 50.8821 L234.1851 52.4373 L227.9984 48.771 L223.8476 48.1434 L220.5188 45.7934 L219.6864 45.6918 L219.5014 45.2423 L217.9089 43.6229 L216.6758 45.1825 L213.0291 43.1444 L204.554 42.3347 L201.7082 42.063 L198.8956 41.7942 L195.5226 40.0295 L190.4714 32.8939 L189.9458 32.6721 L184.9336 30.5566 L182.191 27.0698 L177.1093 28.2748 L171.7291 29.4289 L170.4656 27.5274 L170.2356 27.4531 L164.2095 27.968 L162.2139 27.1783 L161.5216 28.3462 L159.0195 26.4929 L155.2956 20.4537 L154.2536 19.985 L151.4733 17.7317 L151.3572 16.2442 L150.7976 15.4049 L150.01 15.0319 L148.5698 15.5395 L147.5543 15.6536 L147.3572 12.8871 L146.904 12.5892 L145.4014 13.0554 L144.3248 12.7717 L142.0566 12.9392 L141.1229 12.5538 L140.6017 12.5213 L139.7875 13.2324 L139.2664 13.9003 L139.3369 14.4699 L138.0703 14.302 L136.007 18.8372 L129.8236 16.6006 L126.9187 15.2942 L123.8669 22.6715 L122.9664 23.1698 L119.6493 23.0574 L120.9459 19.9764 L123.437 13.8229 L121.9966 13.1435 L117.6116 23.3522 L116.2984 23.2497 L120.7137 12.5879 L114.5179 10.0966 L112.0296 7.4941 L115.7615 0.4577 L115.2718 0.0 L111.0481 7.0154 L110.8919 8.5834 L107.6226 10.5923 L100.8406 6.7932 L101.012 5.3872 L98.7974 0.9769 L95.6907 3.9667 L87.1174 8.615 L79.8948 14.2161 L77.5826 16.4591 L77.8436 16.8706 L67.5695 28.2363 L64.8683 30.3429 L60.931 31.9748 L51.7006 38.8609 L48.8741 48.3741 L48.0724 50.8479 M95.5359 165.1787 L96.0263 163.7585 L96.3971 162.93 L96.6318 162.082 L96.7529 161.745 L97.61 160.4148 L97.874 159.9473 L98.0783 159.5856 L98.5431 158.6679 L98.5898 158.5654 L99.09 158.8925 L99.6932 159.2533 L100.4038 159.7487 L101.0493 160.2188 L101.0748 160.2504 L101.2713 160.4956 L101.5202 161.2279 L101.513 161.3103 L100.3504 163.0688 L99.419 164.8043 L98.7037 166.3782 L97.8972 166.0802 L96.6017 165.7902 L95.5359 165.1787 M99.7148 170.753 L100.2476 169.0637 L100.5591 168.123 L100.7217 168.1926 L103.3507 170.168 L104.8614 171.136 L105.6554 171.5246 L106.1617 171.6963 L106.9645 171.8325 L108.4127 172.1233 L109.0392 172.3231 L110.8087 173.1865 L103.6137 175.5474 L102.9252 174.7041 L102.6612 174.3608 L102.4527 174.0683 L102.0505 173.6677 L101.837 173.4171 L101.7994 173.3731 L101.7776 173.3018 L101.7491 173.2087 L101.641 173.0366 L101.3327 172.4619 L101.2091 172.312 L100.8685 171.8987 L100.1193 171.1723 L99.85 170.984 L99.7693 170.8461 L99.7148 170.753 M100.68 167.8899 L101.0869 166.836 L101.3089 166.3962 L102.0798 164.8692 L102.8995 163.5095 L103.1483 163.0966 L103.2653 162.9027 L103.3701 162.8438 L103.513 162.8459 L103.9128 163.0962 L104.2954 163.2977 L104.5103 163.5992 L104.6692 164.212 L104.6742 164.2316 L104.7361 164.7688 L104.9692 165.0771 L105.1569 165.1629 L105.5587 165.0071 L105.8656 164.8499 L106.9292 164.3059 L108.7069 163.3319 L109.3707 162.9164 L109.7241 162.8703 L109.9856 162.9629 L110.1551 163.0714 L110.2651 163.1418 L112.2228 164.7569 L112.0487 164.9785 L111.2107 165.6818 L110.2283 166.5994 L109.3762 167.316 L107.8838 168.4839 L107.8711 169.1893 L107.7174 169.5826 L107.2211 171.347 L107.0724 171.5233 L106.8473 171.6083 L106.0718 171.4418 L105.3018 171.1587 L103.5749 170.0928 L101.7361 168.7307 L100.68 167.8899 M103.6731 175.5769 L110.8681 173.216 L111.5062 173.5683 L111.752 173.7527 L111.8634 173.9444 L111.8634 174.1067 L111.6077 174.5512 L111.2651 174.8164 L110.5925 175.1178 L109.2419 175.5551 L107.0033 176.2221 L105.1243 176.8229 L104.9189 176.8472 L104.8277 176.8284 L104.6598 176.6687 L104.3471 176.2874 L103.6731 175.5769 M105.3955 178.1653 L105.4177 177.3779 L105.4597 177.1136 L105.5656 176.9347 L105.8755 176.7507 L106.1506 176.6674 L106.6673 176.6418 L110.428 182.308 L110.2256 182.3793 L109.6193 182.5074 L109.0741 182.6201 L108.619 182.7145 L108.4749 182.6842 L108.3115 182.65 L108.0671 182.504 L108.0295 182.451 L107.6414 181.8622 L107.4603 181.3669 L106.5238 180.0326 L105.5614 178.5522 L105.3955 178.1653 M106.7146 176.5658 L116.7485 173.3923 L119.0291 172.7569 L119.2838 172.9854 L119.5998 173.6669 L120.6595 176.1661 L120.8243 176.7417 L121.8262 179.4681 L122.594 182.0407 L122.5932 182.6824 L122.4801 183.2567 L122.0013 184.6167 L121.6543 184.7781 L121.3184 184.7755 L120.5252 184.5855 L120.37 184.5484 L120.2149 184.5415 L119.2965 184.5022 L118.7554 184.1649 L118.4162 183.6137 L117.7175 182.2742 L117.5851 182.1662 L116.5823 182.8118 L113.5284 184.8891 L112.9378 185.0795 L112.4852 185.1645 L112.0741 185.0782 L111.8278 184.887 L111.6721 184.5501 L111.5347 184.0753 L111.1623 183.1453 L110.9582 182.8567 L110.5977 182.4164 L110.5258 182.308 L106.7652 176.6418 L106.7146 176.5658 M107.4149 171.3551 L107.8941 169.6428 L108.1672 169.8221 L108.4169 169.9865 L108.5955 170.0617 L108.9632 170.1249 L109.3395 170.1893 L109.9107 170.2256 L110.3049 170.0395 L110.7854 169.7747 L111.3799 169.4472 L111.5618 169.3251 L111.5762 169.2952 L111.6359 169.1692 L111.627 169.0659 L111.6121 168.8045 L111.5828 168.6572 L111.5842 168.5065 L111.2223 167.3881 L110.4064 166.6797 L112.347 164.9806 L113.8961 166.9005 L114.5593 167.8109 L114.9033 168.5317 L115.1604 168.7486 L115.3592 168.8639 L115.5093 168.9275 L116.4778 169.2256 L114.9616 173.7023 L112.9281 174.3394 L112.5203 174.2177 L112.0138 173.6865 L111.6041 173.353 L110.9552 172.9858 L108.9696 172.1092 L108.3386 171.9251 L107.711 171.803 L107.4699 171.5921 L107.4149 171.3551 M113.6033 200.9805 L113.7631 200.0241 L113.9547 199.6984 L114.2525 199.3747 L114.5538 199.0874 L114.7957 199.341 L114.9483 199.23 L114.8278 198.9273 L114.8607 198.587 L114.9389 198.2724 L115.1372 198.1558 L115.344 198.0461 L115.9213 198.7851 L116.5508 199.835 L116.7712 199.8397 L116.858 199.6941 L116.2359 198.7091 L115.7319 197.9688 L115.4985 197.6913 L115.5356 197.2887 L115.7687 196.9475 L116.0368 196.7379 L116.2179 196.7046 L118.2968 199.9942 L118.4557 200.1953 L118.5804 200.37 L118.7383 200.1078 L118.5898 199.8316 L116.3363 196.6286 L116.1928 196.2977 L116.206 196.1491 L116.347 196.0048 L116.5077 196.0283 L116.6127 196.1316 L118.5107 198.9708 L119.0197 199.8149 L119.3338 200.0907 L119.6147 200.5096 L119.9711 201.1398 L120.0189 201.4472 L119.8013 201.8212 L119.3482 202.0645 L118.7822 201.9736 L118.0518 201.2102 L117.892 200.9045 L117.9865 200.6611 L118.3363 200.3256 L118.1958 200.215 L117.9155 200.4186 L117.5821 200.5006 L117.0377 200.0707 L116.8845 200.0156 L116.8082 200.1522 L117.187 201.0697 L117.0313 201.3511 L116.7631 201.3639 L116.4759 201.2512 L115.678 200.2444 L115.292 199.8192 L115.2243 199.9622 L115.2655 200.1471 L115.5101 200.779 L116.1585 202.1824 L115.4148 202.5525 L115.0863 202.6926 L114.7587 202.7173 L114.0996 202.1324 L113.6835 201.5334 L113.6033 200.9805 M114.3196 184.7986 L116.1176 183.4783 L117.2461 182.7209 L117.4607 182.676 L117.6904 182.761 L118.594 184.3003 L119.1237 184.7358 L117.0333 186.7443 L114.7744 189.1208 L114.5007 186.7486 L114.3647 185.439 L114.3196 184.7986 M115.0595 173.6242 L116.5757 169.1474 L116.6282 168.7119 L116.5331 167.8455 L116.532 167.5794 L116.5306 167.3369 L116.5295 167.0687 L116.3249 164.92 L116.3697 164.7137 L116.545 164.5651 L116.7214 164.4964 L117.5622 164.1693 L117.6639 164.1492 L118.1005 170.1373 L120.0676 169.7517 L121.6012 170.7517 L121.7729 170.9323 L121.8097 171.1373 L121.6366 171.3863 L119.7314 172.0912 L115.0595 173.6242 M117.7225 164.0903 L118.1129 164.0014 L118.4292 164.0681 L118.5757 164.294 L118.584 164.3324 L118.714 164.9388 L118.8928 167.2963 L119.1124 168.0697 L119.3396 168.5569 L119.8608 169.2102 L120.406 169.6479 L120.1262 169.6927 L118.1591 170.0783 L117.7225 164.0903 M136.1154 165.5255 L136.4134 165.3013 L136.6379 165.1044 L137.8898 164.285 L138.6158 163.6257 L138.9741 163.3344 L139.9238 162.5526 L140.4312 162.2178 L141.3217 161.4401 L142.1807 162.0581 L142.7229 162.5935 L142.7834 162.746 L142.7862 162.8399 L142.763 162.9318 L142.6684 162.9996 L142.5935 163.0172 L142.4746 163.1683 L142.4793 163.2794 L142.5515 163.5279 L142.8053 164.2987 L142.9698 165.3987 L143.0231 165.9183 L142.9537 166.1699 L142.5857 166.4624 L141.5467 167.0013 L140.61 167.3783 L139.8804 167.7353 L138.6037 167.8497 L137.9561 168.0077 L137.6993 168.0039 L137.4355 167.9411 L137.2544 167.7827 L136.8865 167.2007 L136.6064 166.7109 L136.2445 166.3338 L136.1626 166.1558 L136.1154 165.5255 M146.2656 256.3281 L146.4326 255.4271 L146.5883 254.7245 L146.8211 253.9895 L147.1476 253.2971 L147.559 252.7034 L147.9223 252.4234 L148.1592 252.3035 L148.4022 252.2744 L148.5786 252.2996 L148.7805 252.376 L148.9765 252.4687 L149.1858 252.6411 L149.3293 252.7785 L149.5457 253.0773 L149.6154 253.4363 L149.4061 253.8823 L148.8341 254.5188 L148.3232 255.2175 L147.8568 255.8023 L147.1448 256.332 L146.7871 256.5637 L146.5852 256.5531 L146.4282 256.5292 L146.2656 256.3281 M150.0976 253.3979 L150.1153 253.3262 L150.1839 253.1008 L150.2707 252.8814 L150.334 252.8306 L150.4482 252.843 L150.5035 252.8712 L150.6514 252.9493 L150.8184 253.0423 L150.8875 253.1123 L150.8966 253.1896 L150.8394 253.292 L150.7103 253.447 L150.5742 253.5413 L150.4368 253.6271 L150.3514 253.6373 L150.2812 253.6284 L150.1969 253.5776 L150.1089 253.4922 L150.0976 253.3979 M155.6221 152.6573 L155.7889 152.3882 L156.312 151.9168 L156.3971 151.8903 L156.4748 151.9415 L156.4881 152.2388 L156.4165 152.5181 L156.2215 152.735 L156.062 152.7948 L155.8671 152.8157 L155.6293 152.7171 L155.6221 152.6573 M157.4463 146.0362 L157.5647 145.8727 L157.7438 145.7855 L158.0117 145.7364 L158.2398 145.7979 L158.3089 146.0106 L158.2531 146.1447 L158.1099 146.2391 L157.9512 146.3134 L157.733 146.3612 L157.5265 146.2476 L157.4519 146.1293 L157.4463 146.0362 M159.3175 149.3165 L159.3548 149.0538 L159.43 148.9095 L159.8376 148.6216 L159.9158 148.5721 L160.1157 148.6041 L160.2714 148.7523 L160.484 149.3352 L160.544 150.1684 L160.1525 151.8151 L160.1729 152.2776 L160.3994 152.5953 L160.7522 152.6739 L161.0546 152.5906 L161.5772 152.2183 L161.7726 152.0701 L162.2269 152.0632 L162.5631 152.1452 L162.8586 152.4873 L163.2996 153.042 L163.3574 153.2509 L163.3452 153.4738 L163.1014 153.8069 L162.4188 153.938 L161.2031 153.9166 L160.3247 153.9495 L159.8661 153.8492 L159.555 153.6284 L159.4607 153.3909 L159.4646 153.2094 L159.6128 152.1892 L159.4939 151.2668 L159.4121 150.6685 L159.3175 149.3165 M159.6836 142.7171 L159.7209 142.3806 L159.7947 142.1401 L159.879 141.9915 L160.0397 141.8117 L160.2083 141.6985 L160.2603 141.7169 L160.4041 141.7686 L160.6203 141.9198 L160.7394 142.132 L160.7627 142.6547 L160.6355 143.1258 L160.5694 143.2099 L160.4912 143.3099 L160.2465 143.391 L160.0112 143.2475 L159.7488 142.9413 L159.6836 142.7171 M162.6894 278.0784 L162.6894 278.034 L163.4163 277.3221 L163.6239 276.9662 L163.52 276.7289 L163.3273 276.2688 L163.1047 275.8685 L163.001 275.6756 L163.0602 275.5424 L164.6767 277.2778 L165.0478 278.1228 L165.7152 278.4787 L165.5816 279.3541 L164.9587 281.386 L164.484 281.4453 L163.8316 282.3497 L163.7276 282.1273 L164.0688 281.0745 L163.9056 280.1846 L163.6239 279.7544 L163.3718 279.5321 L162.823 278.6866 L162.6894 278.0784 M163.0237 275.3166 L163.296 275.186 L164.5352 275.1148 L164.9789 275.0892 L165.2308 275.1668 L165.1459 275.7981 L164.7367 277.1864 L163.0237 275.3166 M163.1072 145.6211 L163.142 145.4789 L163.1934 145.335 L163.2283 145.1932 L163.257 145.0002 L163.2396 144.7094 L163.3223 144.682 L163.5988 144.7649 L163.8122 144.8259 L164.2452 144.934 L164.7873 145.0894 L165.3945 145.215 L165.7638 145.3606 L165.7992 145.4426 L165.7959 145.6327 L165.6975 145.7898 L165.5631 145.8419 L165.3538 145.8142 L165.149 145.7527 L164.7542 145.6792 L164.5603 145.7108 L164.4365 145.8244 L164.3969 146.1439 L164.4774 146.4616 L164.8153 146.8476 L165.3267 147.2521 L165.7713 147.5267 L166.1468 147.6539 L166.3154 147.7718 L166.3843 147.9187 L166.4025 148.0716 L166.3696 148.2305 L166.2225 148.4376 L166.0284 148.6848 L165.5302 149.2609 L165.3588 149.2644 L165.1564 149.1503 L164.8913 148.9406 L164.6029 148.6823 L164.0726 148.2629 L164.4431 148.2014 L164.651 148.0733 L164.7666 147.8875 L164.8122 147.6924 L164.7669 147.4566 L164.713 147.2905 L164.6123 147.165 L164.4627 147.062 L164.2435 146.9501 L163.9963 146.8938 L163.789 146.8839 L163.6585 146.796 L163.5545 146.4983 L163.4188 146.2216 L163.2341 145.9679 L163.1232 145.7569 L163.1072 145.6211 M163.7716 156.376 L163.8468 156.1731 L164.0013 156.1274 L164.4909 156.3508 L165.1371 156.4511 L165.1749 156.5848 L164.8611 157.4734 L164.7243 157.5285 L164.5661 157.4978 L164.2833 157.2992 L163.9684 157.154 L163.8374 156.932 L163.7716 156.376 M168.1272 279.6891 L168.2029 279.2056 L168.4542 278.5829 L168.582 277.9154 L168.8524 277.4532 L169.12 277.0951 L169.4078 276.7793 L169.585 276.6542 L169.9149 276.5706 L170.1333 276.5445 L170.6262 276.5898 L171.0503 276.8339 L171.7548 277.2863 L172.0653 277.5454 L172.2644 277.7664 L172.3512 277.9478 L172.4388 278.3012 L172.4349 278.6426 L172.433 278.9986 L172.3149 279.2495 L172.2809 279.3268 L171.8607 279.748 L171.2959 280.0847 L170.4631 280.4313 L169.6973 280.6801 L169.1833 280.7492 L168.8507 280.6852 L168.6425 280.5469 L168.3962 280.3391 L168.2073 279.9908 L168.1272 279.6891 M168.9148 148.8177 L168.9599 148.4884 L169.0169 148.3744 L169.1471 148.2646 L169.3818 148.198 L169.8479 148.3142 L170.3075 148.2373 L170.4214 148.268 L170.5908 148.4414 L170.603 148.6831 L170.459 149.0602 L170.4084 149.0461 L170.1446 149.0466 L169.9386 148.9765 L169.5375 149.0675 L169.1341 149.085 L168.9641 149.0 L168.9148 148.8177 M171.8687 146.5197 L172.0111 146.2318 L172.1969 146.0755 L172.4833 145.982 L172.7675 145.9589 L172.8375 146.0392 L172.8975 146.2203 L172.7205 146.8707 L172.5696 146.989 L172.3506 147.004 L172.0661 146.8831 L171.8778 146.6901 L171.8687 146.5197 M172.7006 278.2146 L172.7656 278.1002 L172.8394 278.0409 L172.9428 277.9709 L173.1394 277.874 L173.2638 277.8168 L173.4029 277.7886 L173.7446 277.7438 L174.1861 277.7302 L175.346 277.7622 L175.6421 277.7886 L175.9669 277.8309 L176.046 277.8488 L176.1104 277.9376 L176.4718 278.938 L176.5622 279.279 L176.571 279.3861 L176.5251 279.4224 L176.4292 279.4262 L175.9675 279.2687 L175.6307 279.1578 L175.2954 279.1245 L174.8936 279.1181 L174.4493 279.0745 L173.9398 279.0344 L173.5212 279.0148 L173.0888 279.0084 L172.8497 279.0058 L172.7844 278.9751 L172.7493 278.8321 L172.7006 278.2146 M176.2285 277.9585 L176.417 277.8893 L176.6435 277.8821 L177.751 278.0904 L178.5221 278.2884 L179.1876 278.41 L179.9932 278.5731 L180.1688 278.6567 L181.0591 278.7553 L181.7447 278.8825 L181.9344 278.9875 L182.1517 279.1317 L182.5927 279.2764 L182.8315 279.3716 L182.9515 279.5764 L182.9999 280.1829 L182.8542 281.0305 L182.7124 281.1671 L182.1575 281.1018 L180.7511 280.7565 L176.8044 279.6985 L176.6581 279.1787 L176.2285 277.9585 M181.4981 284.0939 L181.9493 283.2673 L182.6585 282.3275 L182.8642 282.0573 L183.0005 282.0061 L183.1608 282.0569 L183.3751 282.1431 L183.5888 282.2221 L183.8249 282.3296 L184.0104 282.4312 L184.1578 282.6339 L184.267 282.7752 L183.8368 283.4717 L184.9936 284.455 L185.1929 284.6748 L185.1338 284.866 L184.2493 286.2897 L183.8857 286.7199 L183.1716 285.7963 L182.479 285.0554 L181.4981 284.0939 M184.8725 282.4218 L184.9828 282.1824 L185.1816 281.8107 L185.5283 281.3694 L185.8357 281.0369 L186.0539 280.9763 L186.225 280.9558 L186.4061 281.0215 L186.5784 281.1577 L186.671 281.3553 L186.6743 281.529 L186.6301 281.7428 L186.4675 282.1278 L186.2317 282.6254 L185.9958 283.1234 L185.7879 283.5656 L185.6079 283.6565 L185.4288 283.6082 L185.2698 283.4358 L185.1277 283.2613 L185.0118 283.0142 L184.8858 282.6813 L184.8725 282.4218 M186.5485 283.5447 L186.5535 283.4397 L186.6466 283.2024 L186.8355 282.7449 L187.0755 282.2814 L187.2261 282.0898 L187.3909 282.0176 L187.5681 282.0488 L187.7302 282.0992 L187.9345 282.214 L188.2173 282.4069 L189.3638 283.1576 L190.2276 283.7162 L190.6083 284.0013 L190.8076 284.2211 L190.8217 284.3414 L190.8361 284.4614 L190.7816 284.5898 L190.5809 284.9441 L190.3459 285.3025 L190.1419 285.4835 L190.0152 285.5855 L189.8333 285.6593 L189.6027 285.6175 L189.4429 285.5842 L189.1659 285.443 L188.687 285.2044 L188.0166 284.8143 L187.4376 284.4656 L186.8761 284.1148 L186.6234 283.8839 L186.5667 283.6992 L186.5485 283.5447 M196.9661 287.1232 L197.0043 286.763 L197.2307 286.4617 L197.5744 286.2752 L197.9877 286.2483 L198.3416 285.0443 L198.8868 283.1431 L199.735 279.943 L200.0485 279.8859 L200.4066 279.9473 L200.5758 279.8462 L200.8802 279.4237 L201.1802 278.897 L201.4456 278.5334 L201.5459 278.1117 L201.6068 277.9418 L201.7682 277.4822 L202.2067 277.7353 L202.7458 278.0639 L203.1329 278.0584 L203.3123 277.7664 L203.7351 277.005 L203.9383 276.606 L204.1318 276.0264 L204.5117 274.9377 L204.9284 273.6364 L205.0096 272.4981 L205.0279 272.1635 L205.2386 272.0226 L205.4136 271.971 L208.1504 274.0299 L208.8463 274.5386 L208.8853 274.9667 L208.7548 275.1989 L208.2292 275.7405 L207.6149 276.25 L206.7777 277.0567 L205.789 278.017 L204.8786 279.2969 L203.6994 281.3335 L202.3629 283.4905 L199.3789 288.2703 L197.7864 287.8282 L197.0468 287.3182 L196.9661 287.1232 M198.3576 369.4526 L198.4641 369.2645 L199.8879 369.2645 L200.027 369.5183 L199.3643 371.1629 L198.6194 370.7619 L198.3576 369.4526 M199.9291 288.7184 L199.983 288.3604 L200.2009 288.0834 L200.8932 287.0621 L200.8669 286.8411 L200.9634 286.6132 L201.0621 286.3426 L203.444 282.5618 L203.575 282.3996 L203.6685 282.3309 L204.0226 282.4325 L205.8341 283.2788 L205.6989 283.5818 L205.2941 284.2612 L204.7395 285.3602 L204.0931 287.1415 L204.4769 287.3613 L205.0013 287.8798 L205.1578 287.9652 L205.3207 288.1043 L205.5377 288.2447 L205.7028 288.4688 L205.9132 288.8456 L206.1526 289.1763 L206.2922 289.3799 L206.418 289.6279 L206.4553 289.8476 L206.2903 289.9834 L206.0077 290.0051 L205.7586 289.9189 L205.4498 289.9129 L204.9997 289.758 L204.7135 289.7145 L204.5877 289.5634 L204.5147 289.3709 L204.4608 288.9139 L204.4315 288.5038 L204.3842 288.266 L204.243 288.2443 L204.2092 288.3834 L204.0505 288.5725 L204.1351 288.9292 L204.1506 289.225 L204.0497 289.4456 L203.8506 289.5545 L202.374 289.2549 L200.5119 288.9544 L200.0555 288.8426 L199.9291 288.7184 M206.3235 278.1697 L206.4338 277.9943 L207.2344 277.2035 L208.3113 276.2407 L210.3232 274.5484 L211.6448 273.2399 L212.8549 272.1336 L213.8082 271.3632 L214.4452 270.851 L214.6846 270.691 L214.7023 270.5809 L214.908 270.3321 L215.1494 270.1566 L215.4344 270.1886 L215.5566 270.178 L215.7294 270.2386 L215.85 270.2471 L216.0059 270.2638 L216.1417 270.3018 L216.2431 270.3128 L216.2658 270.4067 L216.119 270.5672 L215.6023 270.9881 L213.0966 273.3956 L213.2754 273.5058 L213.5019 273.6295 L213.6517 273.7238 L213.8464 273.9018 L213.9453 274.0563 L213.9387 274.2023 L213.9556 274.4029 L213.9257 274.6227 L214.2896 275.2283 L215.0587 275.976 L216.4018 277.3968 L216.9645 278.0724 L217.1884 278.4433 L217.2606 278.7284 L217.1024 279.0216 L216.7555 279.5423 L216.0955 280.6408 L215.0684 281.9609 L214.84 282.2468 L213.328 281.6152 L211.2384 280.6268 L209.8358 280.0092 L209.1703 281.3557 L208.8117 280.9964 L208.2685 280.3771 L207.068 279.1864 L206.6066 278.7387 L206.4025 278.512 L206.3381 278.3264 L206.3235 278.1697 M240.0577 296.5345 L240.1893 296.3805 L240.4182 296.2721 L240.7375 296.246 L241.2595 296.197 L241.5567 296.179 L241.9822 296.415 L242.397 296.476 L243.1128 296.8046 L243.8744 297.2113 L244.4877 297.3347 L245.2162 297.6526 L246.0265 298.1805 L246.4349 298.4207 L246.9339 298.9473 L247.1833 299.4027 L247.5223 299.8363 L247.8834 300.3594 L248.2665 300.8869 L248.8861 301.5526 L249.3147 301.9734 L249.6948 302.1705 L250.4457 302.4859 L251.1637 302.6203 L251.7991 302.6374 L252.4646 303.0091 L252.8453 303.1141 L253.2951 303.3146 L253.5149 303.5199 L253.6031 303.6825 L253.5666 303.86 L253.3186 304.0388 L253.0026 304.1651 L252.6758 304.3362 L252.4084 304.3973 L251.9708 304.4954 L251.3092 304.5389 L250.6724 304.6477 L249.7673 304.9076 L249.1908 304.9989 L248.7291 305.1863 L248.5201 305.4598 L248.2851 305.8114 L248.0528 306.2634 L247.7907 306.676 L247.4277 307.1117 L247.261 307.4552 L247.1711 307.9626 L247.1609 308.6569 L247.1515 309.2586 L247.185 309.71 L247.0874 309.9093 L246.8737 310.1397 L246.4078 310.284 L245.796 310.4355 L244.9922 310.5554 L244.5886 310.651 L243.5814 310.6941 L242.8153 310.671 L242.4263 310.6279 L242.3126 310.5818 L242.2537 310.4999 L242.259 310.2289 L242.4102 310.0335 L242.5255 309.6738 L242.6198 309.1792 L242.7907 308.8724 L242.9106 308.5959 L242.9093 308.1273 L242.9129 307.8666 L243.0232 307.7151 L243.1081 307.5171 L243.0749 307.0268 L243.1329 306.8535 L243.2532 306.6611 L243.3218 306.4899 L243.4821 306.3867 L243.6148 306.1793 L243.7124 305.8366 L243.7815 305.6318 L243.8706 305.3839 L243.8493 305.2034 L243.8838 304.9123 L243.8476 304.5628 L243.7238 304.0981 L243.5322 303.6014 L243.376 303.3138 L243.0699 302.7663 L242.6895 301.9794 L242.4346 301.4784 L242.1396 301.0282 L241.7345 300.5216 L241.4777 300.1017 L241.0107 299.6331 L240.766 299.3156 L240.6629 299.0276 L240.6673 298.7728 L240.7146 298.4899 L240.6823 298.2163 L240.6032 298.0175 L240.5896 297.8233 L240.6764 297.5818 L240.7483 297.4115 L240.6742 297.2702 L240.2551 296.9386 L240.1033 296.7257 L240.0577 296.5345 M249.4618 166.0921 L249.4665 165.9585 L249.524 165.6694 L249.6185 165.2595 L249.7518 164.8346 L249.8577 164.3516 L249.9365 164.0681 L250.0479 163.5437 L250.1452 163.1944 L250.3852 162.4296 L250.5466 161.9124 L250.7139 161.5162 L251.0404 160.7975 L251.3987 159.9473 L251.5262 159.691 L251.5823 159.5616 L251.6443 159.4374 L251.7482 159.2819 L251.8646 159.1453 L251.9514 159.1043 L252.0797 159.0684 L252.169 159.0479 L252.2506 159.0483 L252.386 159.0731 L252.4914 159.1017 L252.5801 159.1628 L252.6512 159.2461 L252.712 159.331 L252.7463 159.4498 L252.7833 159.5885 L252.8373 159.7867 L253.2459 160.8325 L253.3526 161.0447 L253.4425 161.116 L253.5577 161.1429 L253.7256 161.1844 L253.994 161.2142 L254.1663 161.204 L254.3642 161.2416 L254.6131 161.2941 L254.8259 161.371 L255.1483 161.4248 L255.4018 161.4154 L255.6039 161.4013 L255.7903 161.3385 L255.9175 161.2928 L256.0319 161.2279 L256.1041 161.1476 L256.1674 161.0789 L256.2672 160.9751 L256.3811 160.8184 L256.445 160.6677 L256.4732 160.5622 L256.5069 160.4148 L256.518 160.25 L256.5384 159.9917 L256.5431 159.8584 L256.4522 159.1739 L256.3341 158.7785 L256.2824 158.427 L256.1461 157.9624 L256.1503 157.7369 L256.1785 157.6314 L256.234 157.5836 L256.2794 157.5375 L256.3073 157.5136 L256.3303 157.4495 L256.3698 157.353 L256.4057 157.2258 L256.4566 157.1382 L256.5044 157.1117 L256.5849 157.1023 L256.6565 157.1041 L256.7527 157.1438 L256.8752 157.2317 L256.9894 157.2488 L257.1539 157.2599 L257.2376 157.2804 L257.3336 157.4021 L257.4572 157.4999 L257.5849 157.546 L257.6866 157.5443 L257.8553 157.5038 L257.9645 157.4807 L258.1229 157.4414 L258.2236 157.4295 L258.3187 157.4594 L258.4577 157.5144 L258.5741 157.5516 L258.7143 157.6169 L258.8606 157.7322 L259.0403 157.8749 L259.4898 158.14 L259.5448 158.2464 L259.727 158.4091 L259.9969 158.6222 L260.0066 158.7029 L259.964 158.8613 L259.9546 158.9544 L260.0209 159.0142 L260.1395 159.0718 L260.3397 159.2115 L260.8241 159.4301 L261.0707 159.5339 L261.2789 159.5706 L261.4503 159.6423 L261.5703 159.7098 L261.6325 159.805 L261.7788 159.9203 L261.875 159.9601 L262.1252 159.9203 L262.4332 159.8529 L262.5537 159.8388 L262.6892 159.8636 L262.946 160.054 L263.2413 160.3973 L263.3555 160.4144 L263.4058 160.4084 L263.4874 160.4093 L263.5548 160.4627 L263.6632 160.6032 L263.7464 160.7057 L263.7484 160.8077 L263.7326 160.9324 L263.7124 161.1083 L263.692 161.3667 L263.5833 161.4816 L263.5396 161.6302 L263.5562 161.7715 L263.6386 161.8638 L263.8214 161.9445 L264.1009 161.9829 L264.3859 161.9799 L264.6646 162.0081 L264.4849 162.2135 L264.381 162.3689 L264.3829 162.471 L264.3898 162.5316 L264.4656 162.6555 L264.6212 162.8519 L264.7431 163.0214 L264.7935 163.1892 L264.7819 163.4361 L264.7506 163.6035 L264.7832 163.7939 L264.8479 163.9088 L265.0182 164.1445 L265.1733 164.4225 L265.1885 164.5515 L265.1106 164.9285 L265.1062 165.236 L265.1797 165.5135 L265.3 165.7552 L265.4318 166.0973 L265.4728 166.3582 L265.4612 166.605 L265.4128 166.8868 L265.5167 167.3348 L265.7307 167.7678 L266.0315 168.2435 L266.2831 168.7349 L266.42 169.1175 L266.4507 169.2059 L266.5632 169.2948 L266.6141 169.381 L266.5908 169.4451 L266.5438 169.5629 L266.506 169.5881 L266.4009 169.7333 L266.4415 169.8204 L266.5079 169.864 L266.5665 169.9284 L266.5986 170.0271 L266.5955 170.0886 L266.6865 170.1697 L266.7877 170.25 L266.8607 170.2619 L266.9433 170.2722 L267.0434 170.3422 L267.1723 170.3986 L267.2682 170.5203 L267.4319 170.6134 L267.5781 170.7291 L267.7302 170.8948 L267.7341 170.9716 L267.6865 171.0434 L267.5618 171.1091 L267.4772 171.1702 L267.3213 171.23 L267.1242 171.2018 L267.0255 171.142 L266.9834 171.0446 L266.9514 170.9464 L266.8994 170.8504 L266.8507 170.7846 L266.697 170.6902 L266.6409 170.6458 L266.5118 170.5895 L266.4178 170.5698 L266.3362 170.5694 L266.1742 170.6296 L266.0395 170.6454 L265.9118 170.5993 L265.8117 170.5292 L265.7647 170.4938 L265.8076 170.3892 L265.7785 170.2291 L265.6718 170.0164 L265.4747 169.8149 L265.1501 169.5672 L264.7796 169.1918 L264.5585 169.0441 L264.462 169.0044 L264.2563 168.9882 L264.1374 168.9305 L263.9729 168.7456 L263.8269 168.6299 L263.6732 168.5355 L263.5056 168.4121 L263.2297 168.3617 L263.0085 168.4305 L262.8103 168.3925 L262.6074 168.3143 L262.4874 168.2469 L262.4036 168.1329 L262.1821 167.9821 L261.8885 167.936 L261.7249 168.0201 L261.5689 168.0795 L261.3594 168.1862 L261.0193 168.3289 L260.8224 168.4032 L260.5249 168.3874 L260.3931 168.3929 L260.2761 168.4373 L260.1384 168.5663 L260.0176 168.7341 L259.849 168.8767 L259.5913 169.1116 L259.1898 169.2516 L258.9051 169.2546 L258.5495 169.2661 L258.2836 169.2568 L258.0939 169.2892 L257.9844 169.3127 L257.8254 169.434 L257.6612 169.5962 L257.2863 170.0805 L257.0825 170.3401 L256.6258 170.9259 L256.1834 171.4793 L256.048 171.4546 L255.9327 171.4272 L255.7239 171.35 L255.5528 171.2475 L255.1005 170.9537 L255.0925 170.8008 L255.1928 170.6151 L255.278 170.472 L255.3139 170.3452 L255.3311 170.2308 L255.341 170.0557 L255.3222 169.6385 L255.3546 169.3076 L255.3629 169.2042 L255.3786 169.0795 L255.4234 168.9416 L255.5055 168.8601 L255.589 168.7887 L255.6711 168.7076 L255.7018 168.6222 L255.6999 168.5202 L255.6905 168.4395 L255.6034 168.3067 L255.5561 168.2507 L255.4289 168.1226 L255.3153 168.0235 L255.1627 167.9394 L255.0538 167.8809 L254.9119 167.8873 L254.74 167.8976 L254.5229 167.8724 L254.336 167.8433 L254.1356 167.7853 L253.8718 167.6221 L253.5188 167.3083 L253.2077 167.0897 L252.9929 166.9103 L252.7455 166.7147 L252.587 166.5802 L252.412 166.4782 L252.2356 166.3663 L252.0493 166.2553 L251.8541 166.1558 L251.7327 166.0781 L251.6667 166.0349 L251.561 165.9692 L251.4784 165.9589 L251.3609 165.9487 L251.0977 165.9807 L250.8491 166.0665 L250.6771 166.1472 L250.4098 166.2659 L250.2348 166.3377 L250.0399 166.412 L249.9127 166.4577 L249.8109 166.4598 L249.6644 166.4261 L249.5743 166.3548 L249.5021 166.2612 L249.4626 166.184 L249.4618 166.0921 M254.944 307.4629 L255.1306 307.1625 L255.4486 306.7712 L255.8909 306.2894 L256.103 305.9382 L256.2603 305.5934 L256.487 305.2328 L256.7157 304.8876 L257.0494 304.4314 L257.3239 304.0725 L257.4793 303.9112 L257.7439 303.8719 L258.1323 303.7384 L258.4423 303.6142 L258.7373 303.4281 L258.9247 303.1354 L258.9855 302.7786 L259.0596 302.2721 L259.0198 301.935 L258.9117 301.6217 L258.8213 301.3943 L258.7826 301.2001 L258.816 301.0132 L258.9225 300.8412 L259.1437 300.5007 L259.1757 300.2348 L259.1285 299.9698 L259.0958 299.759 L259.1603 299.4334 L259.27 299.2217 L259.4271 299.0758 L259.6159 298.9977 L259.9159 298.7873 L260.1572 298.5518 L260.4605 298.4318 L260.7384 298.3823 L261.0903 298.3909 L261.523 298.3059 L261.8288 298.2778 L262.1656 298.3845 L262.2983 298.5035 L262.4868 298.9712 L262.8244 299.619 L263.3082 300.6321 L263.6945 301.4267 L263.82 301.7481 L264.3293 303.7183 L264.7716 304.8564 L264.8969 305.3898 L264.9093 305.7474 L264.7003 306.2616 L264.1426 306.8693 L263.3154 307.5858 L262.5634 308.1772 L261.7929 308.72 L261.1987 309.1254 L260.6297 309.5278 L260.0989 309.7066 L259.7525 309.7092 L259.1077 309.5445 L257.8404 308.9795 L256.7649 308.5267 L256.1439 308.2984 L255.5169 308.0868 L255.2639 307.9575 L255.0579 307.823 L254.9728 307.7057 L254.944 307.4629 M268.9934 175.2835 L269.4889 174.6195 L270.0625 174.5529 L271.3249 175.1499 L271.9362 174.2519 L273.2622 173.909 L273.5309 174.2386 L273.8276 174.5337 L273.9949 175.0073 L274.2968 175.1985 L274.7458 175.1866 L276.1282 174.9496 L276.5318 175.0726 L277.3289 174.6123 L277.8719 174.4748 L278.4912 174.1575 L278.9866 173.9496 L278.8011 173.5849 L279.0229 173.4389 L279.4011 173.5721 L279.502 173.5136 L279.048 173.3108 L279.0762 173.137 L279.5512 172.4222 L280.1857 171.6151 L280.5565 170.8397 L280.815 170.5877 L280.9192 170.5877 L281.0306 170.5877 L281.1539 170.5882 L281.2687 170.5882 L281.5435 170.4071 L281.7091 170.1385 L282.2261 170.2325 L282.7829 170.2094 L283.1208 170.6881 L282.7285 170.9934 L282.1423 171.6062 L282.1119 172.0699 L282.5319 172.1976 L283.0755 171.7851 L283.7274 171.9516 L284.0832 172.4948 L284.2436 172.7181 L284.2607 173.3125 L283.9621 173.333 L283.5441 173.2711 L283.1824 173.6067 L283.2997 174.0999 L282.9964 174.2088 L282.8313 174.6674 L282.9698 174.9539 L283.2665 175.4693 L283.6925 175.3702 L283.8673 174.7886 L284.0954 174.5081 L284.3906 174.8971 L284.4081 175.8706 L284.4523 176.8651 L284.358 177.5103 L284.4531 178.5236 L283.7238 178.3173 L283.9209 177.9279 L283.8897 177.6636 L283.4172 177.5731 L282.9571 178.0458 L283.2933 178.3626 L283.3948 178.8737 L282.8952 179.4988 L282.2648 180.2076 L281.8437 180.761 L280.1727 180.8353 L280.5443 179.8161 L280.6093 179.448 L280.8656 179.1961 L280.9181 178.7439 L280.8578 178.2439 L280.9336 177.4757 L280.4694 177.1179 L279.7823 177.0709 L279.4268 176.8199 L279.1417 177.2315 L277.4774 177.1055 L276.046 176.7379 L274.9081 176.5692 L274.5876 176.6055 L274.1384 176.4292 L273.7986 177.0547 L273.4756 177.1132 L273.2254 176.8455 L272.908 176.7217 L272.5066 176.7114 L272.1461 176.4462 L271.7878 176.5773 L271.1544 176.2255 L270.8784 175.5965 L270.4692 175.4253 L270.6313 176.2191 L270.2041 176.2635 L269.7966 175.9667 L269.0788 175.5884 L268.9934 175.2835 M269.3271 174.2754 L269.4626 173.9786 L269.8364 173.4333 L270.1311 173.0815 L270.6877 172.4431 L271.6581 171.651 L272.1757 172.3769 L272.5154 172.8377 L273.1677 173.7032 L273.2699 173.83 L273.1588 173.8748 L271.8735 174.1695 L271.2818 175.0487 L270.0919 174.5038 L269.3271 174.2754 M278.9908 298.5129 L284.9406 292.7816 L283.1877 286.6362 L282.3735 284.169 L283.7072 281.188 L287.9829 282.0902 L288.9047 282.2276 L289.2577 282.2472 L297.6911 282.0706 L299.5543 281.3254 L299.309 277.9854 L297.2399 276.7165 L301.0251 269.6167 L303.0525 266.6282 L303.0995 266.577 L312.6214 269.8335 L315.6562 271.6564 L318.5462 270.6189 L319.7356 271.1464 L320.5988 272.1071 L323.7716 273.9095 L322.7169 276.1084 L327.3177 280.7168 L327.9727 280.0596 L329.8453 282.0206 L329.7247 284.5049 L330.284 285.8258 L330.7424 286.7378 L330.8497 287.6485 L330.6844 288.3403 L330.4651 289.4529 L329.9166 290.2975 L329.3067 290.4558 L326.0664 293.4602 L324.9527 293.4854 L323.4703 294.1003 L321.0594 293.2724 L318.4804 292.8183 L317.9706 293.1124 L317.8921 293.4461 L320.5792 294.446 L320.3267 296.3749 L320.3632 296.9762 L319.7553 297.8195 L314.8522 300.0163 L313.4038 300.4077 L314.9659 302.0464 L314.2028 303.2754 L313.6438 303.9876 L312.6288 305.2806 L310.686 307.7561 L309.3479 307.7603 L311.0344 312.2623 L310.1248 313.2778 L306.9754 316.4086 L307.7957 317.9294 L309.861 321.7591 L311.6224 321.608 L312.547 324.3504 L311.1928 326.6042 L307.4421 322.0424 L305.7166 322.5835 L305.7224 323.724 L305.1759 326.7275 L302.5549 324.9994 L299.1791 322.1107 L299.8454 321.4365 L300.0776 318.1978 L299.8924 317.9128 L299.0077 316.5507 L294.0726 310.1372 L293.0828 310.5596 L288.6592 304.8799 L282.9997 302.7419 L283.7158 301.2526 L282.2892 299.6737 L278.9908 298.5129 M279.1796 393.2522 L279.2805 392.1282 L279.3723 390.4544 L279.5789 389.8321 L279.7055 389.6674 L280.7047 389.6516 L281.6336 389.937 L283.4329 391.0746 L285.0564 392.3876 L286.4736 393.7133 L286.6025 394.4227 L286.2641 395.3252 L285.8374 395.9292 L284.4108 395.6963 L283.6328 395.434 L282.9922 395.2122 L282.4926 395.0672 L281.9607 394.8897 L281.2352 394.7933 L280.784 394.8897 L280.4133 394.7609 L280.0265 394.2636 L279.7174 394.0946 L279.2045 393.8908 L279.1796 393.2522 M279.2709 487.0944 L279.4166 486.9268 L279.7569 486.7435 L280.3276 486.425 L280.6223 486.4442 L280.7788 486.3018 L280.9203 486.1308 L281.0132 486.0037 L281.1747 485.9385 L281.3784 485.7714 L281.457 485.5885 L281.6394 485.4047 L282.0865 485.1817 L282.8805 484.5358 L283.5352 484.1802 L284.0956 484.0476 L284.3688 484.3593 L284.7711 484.6679 L282.9895 485.8413 L282.7077 485.6179 L282.4949 485.374 L282.1302 485.6166 L281.836 486.0609 L281.4265 486.6036 L280.3936 487.3127 L279.8042 487.6026 L279.6427 487.6371 L279.3848 487.3434 L279.2709 487.0944 M279.9878 488.6723 L280.0375 488.3419 L280.2042 488.046 L280.288 487.8929 L280.4586 487.7015 L280.6906 487.4973 L282.5327 486.2242 L283.0387 486.5657 L283.2836 486.289 L282.9696 485.8758 L283.0025 485.8541 L284.7841 484.6807 L284.9776 484.5533 L285.8336 484.1149 L286.5438 483.6101 L286.9514 483.1113 L287.5181 482.2048 L287.8801 481.6181 L288.2104 481.3858 L288.5204 481.303 L289.9271 482.3745 L289.6467 482.6333 L289.3913 482.8439 L289.2268 483.0183 L289.0548 483.0998 L288.7432 483.2473 L288.1596 483.6003 L287.2046 484.4467 L287.0675 484.656 L286.8538 484.8666 L286.6807 484.9336 L286.0321 485.5335 L285.8145 485.5228 L285.668 485.5863 L285.5336 485.8494 L285.4764 486.0489 L285.2853 486.2975 L284.8803 486.6731 L284.4581 486.8181 L283.9065 486.8411 L283.572 486.6493 L283.285 486.4015 L283.0553 486.6028 L282.9881 486.7571 L282.8905 486.9422 L282.828 487.0965 L282.6939 487.2666 L282.4537 487.415 L282.1692 487.5489 L281.9402 487.8814 L281.3892 488.9345 L281.1199 489.0671 L280.9925 489.1285 L280.6696 489.1976 L280.5551 489.2381 L280.3378 489.1597 L280.2084 489.0744 L280.0768 488.9704 L279.9936 488.8181 L279.9878 488.6723 M280.8592 170.4746 L280.8609 170.4029 L280.8667 170.2794 L280.8725 170.156 L280.901 170.0506 L280.9452 169.9942 L281.0044 169.9767 L281.1047 169.9647 L281.209 169.9831 L281.3486 170.0228 L281.4318 170.0591 L281.5316 170.1291 L281.5576 170.177 L281.5626 170.2175 L281.5482 170.2701 L281.5117 170.3051 L281.3804 170.4024 L281.2004 170.516 L281.1318 170.5587 L281.0085 170.5583 L280.8971 170.5583 L280.8764 170.5339 L280.8592 170.4746 M286.9959 485.5343 L287.2782 485.134 L287.6779 484.6667 L288.2102 484.2224 L288.8004 483.8195 L289.0346 483.6434 L290.0078 483.9295 L289.2154 484.3593 L288.5654 485.2158 L288.8333 485.3655 L289.6506 484.4927 L290.2113 484.187 L290.5749 483.8736 L290.3838 483.7227 L289.5547 483.4157 L289.289 483.2848 L289.0697 483.133 L289.2304 483.0333 L289.4098 482.87 L289.6467 482.6444 L289.942 482.4005 L290.1068 482.3472 L290.3294 482.5429 L290.6396 482.7041 L290.9064 482.9476 L291.1126 483.145 L291.2802 483.3424 L291.4568 483.5965 L291.6819 483.7918 L291.8135 483.9316 L291.9619 484.1456 L292.0073 484.2369 L292.0999 484.3686 L292.0999 484.5 L291.9821 484.676 L291.7231 484.6991 L291.3672 484.7835 L291.3061 485.3122 L291.4209 485.9266 L291.4424 486.4165 L291.2362 486.7102 L290.9686 486.8577 L290.5237 487.0338 L290.2124 487.1366 L290.1624 487.9219 L289.9652 488.1309 L289.4032 488.3035 L288.9807 487.6781 L288.436 486.8603 L287.9829 486.4787 L287.4407 485.9014 L286.9959 485.5343 M288.6564 156.0296 L288.7067 155.8964 L288.8477 155.8298 L288.9857 155.8665 L289.1134 156.0254 L289.2141 156.6932 L289.2008 156.9546 L289.1444 157.0831 L289.0822 157.1105 L288.9901 157.0848 L288.835 156.9375 L288.7324 156.7684 L288.6744 156.5583 L288.6564 156.0296 M297.2739 487.2807 L297.445 487.2295 L297.8155 487.3668 L298.0862 487.5084 L298.4135 487.6397 L301.4285 488.8049 L302.4622 489.6926 L303.4733 490.3991 L303.4429 490.55 L303.1222 490.7841 L302.7702 490.903 L302.3843 490.9256 L301.8042 490.8054 L301.4802 491.1601 L300.658 492.0371 L299.7439 492.1727 L299.2136 492.0154 L298.784 491.7996 L298.2659 491.3554 L298.5294 490.7188 L298.5697 490.2426 L298.3756 489.9335 L298.0137 489.8026 L297.4981 489.4777 L297.5072 489.0211 L297.7431 488.4528 L297.2985 487.49 L297.2739 487.2807 M298.7989 486.8565 L298.8794 486.662 L299.0516 486.5218 L299.2731 486.4932 L299.4097 486.5154 L299.572 486.5606 L299.7329 486.5529 L299.9568 486.4608 L300.2186 486.2988 L300.4393 486.0668 L300.5991 485.9615 L300.7273 485.9944 L301.243 486.5286 L301.5977 486.8612 L301.878 487.1174 L302.0215 487.224 L301.9947 487.5207 L301.7177 487.9804 L301.5098 488.2728 L301.2543 488.4574 L301.0389 488.3969 L300.6533 488.2119 L300.275 488.0072 L299.9809 487.7058 L299.4431 487.5293 L298.9341 487.273 L298.8078 487.0957 L298.7989 486.8565 M330.6896 470.3736 L330.7914 470.157 L333.268 472.8718 L333.4995 472.9264 L333.8185 472.6833 L333.9955 472.9707 L334.4655 473.4905 L334.7112 473.667 L334.2111 474.6306 L333.4215 475.567 L333.0516 475.8983 L332.3424 476.4756 L331.5893 476.8525 L331.5193 476.7783 L331.6598 476.2658 L331.4176 475.3926 L331.1383 474.5829 L331.0372 473.7527 L330.9357 472.8599 L330.7057 471.078 L330.6896 470.3736 M353.4937 386.3825 L353.5125 385.9849 L353.6045 385.7435 L353.8218 385.1689 L353.9435 384.5286 L354.0179 384.1357 L354.176 383.524 L354.3563 383.1956 L354.6701 382.6973 L354.9501 382.3787 L355.7428 381.6701 L356.6607 381.0017 L357.28 380.5879 L358.1979 380.2927 L358.5745 380.2373 L359.1271 380.282 L359.6488 380.5278 L359.9549 380.7112 L360.5001 380.8776 L360.8864 380.8097 L361.0285 380.7163 L361.465 380.4232 L361.7661 380.0031 L361.8455 379.8401 L361.9292 379.8081 L362.2209 379.9715 L362.2693 379.9988 L362.3625 380.1123 L362.384 380.1387 L362.407 380.3337 L362.3365 380.5725 L361.7661 381.3097 L361.2853 382.1573 L361.0829 382.4755 L360.7495 383.0002 L360.2731 383.6055 L360.0182 383.7672 L358.6552 384.4663 L358.2054 384.7389 L358.1437 384.7649 L357.1517 385.1817 L356.7591 385.3817 L356.0502 385.8719 L354.8948 386.5684 L354.0107 387.2437 L353.829 387.3751 L353.7104 387.3892 L353.6714 387.3388 L353.4937 386.3825 M354.6137 270.6641 L354.6286 270.5361 L354.6618 270.4627 L354.6977 270.4345 L354.8514 270.3892 L354.9982 270.414 L355.1199 270.478 L355.2269 270.4955 L355.4226 270.475 L355.5446 270.4908 L355.6363 270.5826 L355.6637 270.79 L355.5299 271.0828 L355.3812 271.3231 L355.2335 271.5211 L355.1121 271.5869 L355.0237 271.5493 L354.9089 271.3641 L354.8138 271.1673 L354.6983 270.8741 L354.6137 270.6641 M367.477 459.8742 L367.5486 459.5083 L367.5525 459.4883 L367.6069 459.2111 L367.7562 458.3374 L367.754 457.4815 L367.8837 457.2794 L369.4403 457.392 L370.0814 457.2615 L370.474 457.0615 L370.8326 456.8543 L371.3889 456.3716 L371.5763 456.3827 L371.8799 456.5315 L371.9512 456.763 L371.8741 457.0304 L371.6482 457.6304 L371.3333 458.0521 L371.2915 458.1084 L370.9294 458.5928 L370.8533 458.693 L370.7173 458.8717 L370.5135 459.1395 L370.2047 459.484 L370.0325 459.8465 L369.8364 460.2797 L369.5096 460.3867 L369.171 460.2976 L368.9003 460.2541 L368.6542 460.2068 L368.3355 460.1019 L367.5735 459.9505 L367.477 459.8742 M367.7759 395.1947 L368.4192 395.1806 L369.0272 395.1401 L369.0775 395.5705 L368.1521 395.7262 L367.7759 395.1947 M373.7784 460.4149 L373.8282 460.2652 L373.9963 460.1889 L374.3286 460.0379 L375.4273 459.6158 L375.8083 459.3689 L376.505 458.8512 L376.7718 458.586 L377.0555 457.867 L377.1614 457.2163 L377.1539 456.9498 L377.1246 455.8923 L376.9333 454.3563 L376.8996 453.4164 L376.9643 452.8489 L376.9911 452.7683 L377.142 452.312 L377.1642 452.2958 L377.2125 452.26 L377.3267 452.3013 L377.9181 452.3998 L378.4008 452.5354 L379.4208 453.1657 L379.8817 453.5674 L380.5452 454.1567 L380.9527 454.5618 L381.2267 454.865 L381.4125 455.0411 L381.8676 455.5234 L382.1269 455.9609 L382.264 456.1665 L382.4009 456.4991 L382.5574 456.9298 L382.6658 457.598 L382.6152 458.1293 L382.4366 459.1467 L382.2029 459.9028 L381.7476 460.9662 L381.2754 461.4174 L380.8665 461.663 L380.6254 461.8152 L380.418 461.9466 L379.8518 462.1559 L379.5443 462.335 L379.2413 462.4941 L379.1617 462.5384 L379.1222 462.5602 L378.5283 463.0036 L378.2485 463.2254 L377.9402 463.3473 L377.8927 463.3661 L377.3834 463.462 L376.794 463.3908 L375.8559 463.0463 L374.518 462.3968 L373.9938 461.9888 L373.8661 461.7082 L373.8224 461.246 L373.8169 461.188 L373.7784 460.4149 M397.7083 300.2225 L397.7379 299.9152 L397.8388 299.6519 L398.2715 299.2973 L399.152 298.7173 L399.5217 298.5018 L399.8421 298.4246 L400.0675 298.4374 L400.3105 298.4882 L400.4183 298.6209 L400.4612 298.7613 L400.3138 298.9636 L399.843 299.4424 L399.4683 299.8431 L399.1659 300.1828 L398.721 300.6582 L398.3876 300.962 L398.154 300.9897 L398.0047 300.9543 L397.8457 300.7218 L397.7083 300.2225 M400.6597 301.591 L400.8264 301.4391 L401.4147 301.0657 L401.8869 300.6001 L402.0752 300.4064 L402.4275 300.3778 L402.8601 300.4721 L403.2063 300.6163 L403.6196 300.8848 L403.9995 301.0913 L404.3009 301.1882 L404.4084 301.3205 L404.4253 301.4639 L404.271 301.7203 L404.067 302.1142 L403.7979 302.5162 L403.5052 302.8281 L403.2856 303.0919 L403.0755 303.2092 L402.6536 303.4307 L402.1983 303.5903 L401.9818 303.6556 L401.7946 303.519 L400.6959 301.772 L400.6597 301.591 M401.41 278.9883 L401.4203 278.2641 L401.5673 277.3845 L401.6619 277.0716 L401.8347 277.0012 L401.9129 276.88 L401.9041 276.7379 L401.8151 276.6363 L401.8375 276.4908 L402.2829 275.6231 L402.6857 275.058 L403.2035 274.5424 L403.908 273.9475 L404.1463 274.1707 L404.7288 274.8011 L405.1571 275.1681 L405.2743 275.2817 L404.9489 275.9231 L404.7684 276.1916 L404.4927 276.5023 L404.2621 276.5718 L403.9254 276.8552 L403.6984 277.3183 L403.3818 278.0357 L402.7031 278.5564 L402.4645 278.7237 L402.125 278.8526 L401.8991 278.8398 L401.6492 278.8693 L401.41 278.9883 M402.1673 279.2179 L402.5295 278.8266 L403.4786 278.0336 L403.9287 277.0063 L404.5256 276.5757 L405.0833 275.8518 L405.3866 275.2646 L404.0559 273.924 L404.5353 273.7482 L405.3965 273.7187 L405.9542 273.6991 L405.827 274.7264 L405.2694 275.7635 L404.7311 276.752 L404.7604 278.1023 L403.733 279.8735 L402.686 279.6093 L402.1673 279.2179 M402.334 449.8851 L402.3633 449.2395 L402.5004 448.5743 L402.6276 447.9576 L402.7871 447.5777 L403.1999 446.9913 L403.5817 446.7926 L403.8662 446.7918 L404.049 446.8583 L404.477 447.0672 L404.6628 447.4391 L404.8195 447.9871 L404.8978 448.5939 L404.8488 448.9461 L404.5455 449.4058 L404.1532 450.0284 L403.9486 450.3355 L403.6061 450.7564 L403.2146 450.9713 L402.8527 450.8442 L402.5884 450.6485 L402.4924 450.2907 L402.334 449.8851 M404.2749 291.7058 L404.3321 291.3247 L404.4374 291.2099 L404.7139 291.1092 L405.1076 290.9948 L405.7228 290.5987 L406.3567 290.2176 L406.7336 289.8161 L406.965 289.3291 L406.9318 288.9553 L406.9127 288.7393 L406.8223 288.3881 L406.7643 287.9438 L406.9838 287.9238 L407.0792 288.2771 L407.4472 288.234 L407.6725 288.2754 L407.9462 288.5836 L408.2346 288.8729 L408.6448 289.3351 L408.7872 289.7584 L409.2125 290.8023 L410.0319 291.7233 L411.1442 292.686 L411.2 292.8977 L409.6338 294.0009 L409.4513 294.1289 L408.6457 294.6965 L408.3861 294.7955 L408.2108 294.7481 L408.0847 294.5416 L407.8497 294.1268 L407.2926 293.7158 L406.2818 293.0522 L404.509 291.9674 L404.2749 291.7058 M409.2152 407.0465 L409.7524 405.8727 L409.8948 405.2845 L409.9155 405.0 L410.0035 404.7658 L410.5954 404.3291 L410.7209 404.2834 L410.8683 404.4242 L410.8799 404.62 L410.8251 405.0742 L411.0336 405.8159 L411.0922 406.2361 L411.2816 407.0942 L411.4525 407.4721 L411.6142 407.731 L412.3599 407.8513 L413.4716 408.0718 L414.0585 408.3154 L414.5653 408.5645 L414.7688 408.6911 L414.9988 408.6835 L415.1705 408.5047 L415.2919 408.39 L415.6231 407.8645 L415.805 407.5459 L415.9729 407.136 L416.1208 406.5585 L416.3807 405.0644 L416.7456 403.7741 L416.9176 403.4333 L417.0909 403.2043 L417.3533 403.0111 L417.5601 402.8712 L417.9416 402.7099 L418.1429 402.6515 L418.3066 402.6362 L418.4481 402.6272 L419.6019 402.9433 L420.3774 403.1877 L420.6807 403.3105 L420.8391 403.4461 L420.9035 403.5353 L420.7133 404.245 L420.5496 404.6234 L420.2046 405.2934 L419.971 405.6338 L419.3359 406.1294 L418.8004 406.5035 L418.7351 406.7871 L418.6964 407.0469 L418.2372 407.3672 L417.8048 407.5882 L417.7133 407.792 L417.6898 408.1849 L417.8092 408.5453 L417.982 409.0349 L417.7625 409.2964 L417.5994 409.4503 L417.2148 409.7817 L416.8985 410.0082 L416.5073 410.0543 L415.9275 410.1997 L415.8136 410.3443 L415.792 410.4898 L415.9427 410.6267 L416.455 410.79 L416.6665 411.0511 L416.6886 411.307 L416.6475 411.513 L416.4089 411.7109 L416.2142 411.7919 L415.9939 411.7518 L415.7213 411.6606 L414.434 410.9351 L413.0356 410.3388 L412.5943 410.4117 L411.4768 409.5975 L410.9869 409.1138 L410.8956 408.9935 L410.8094 408.8489 L410.7928 408.7082 L410.7331 408.5918 L409.2152 407.0465 M418.6737 401.3463 L418.8004 401.0401 L419.0428 400.7782 L419.355 400.6869 L419.6013 400.6677 L420.0509 400.6903 L420.4399 400.6894 L421.0537 400.6289 L421.0763 400.7487 L421.1112 401.0853 L421.0224 401.6854 L420.9989 401.836 L420.9823 401.9277 L420.8529 402.379 L420.8029 402.5875 L420.2707 402.4242 L419.5778 402.0932 L419.0193 401.8475 L418.8015 401.7195 L418.7108 401.5822 L418.6737 401.3463 M442.4322 435.0033 L442.5513 434.4757 L442.7941 433.1613 L443.0125 431.6721 L442.9735 430.9778 L443.13 430.6699 L443.412 430.5129 L443.916 430.446 L444.4104 430.4575 L445.1555 430.5087 L445.6976 430.5684 L445.827 430.7194 L448.696 431.0533 L449.6985 431.3292 L449.4185 442.1614 L448.1624 441.2978 L446.3623 439.9963 L444.5962 438.6248 L442.8712 437.1752 L443.1106 436.7535 L443.2027 436.3564 L443.1364 435.8895 L443.0648 435.5734 L442.8314 435.1261 L442.4322 435.0033 M443.8381 439.351 L444.0062 439.2734 L444.7264 439.737 L445.5384 440.456 L447.5492 441.9145 L448.035 442.2471 L448.4588 442.645 L448.2009 442.7307 L446.7035 442.8659 L445.3852 442.9593 L445.1256 442.9486 L445.041 442.8151 L444.8829 442.4868 L444.5649 441.6786 L444.3811 441.1601 L444.1607 440.5605 L443.9409 439.8679 L443.8884 439.5498 L443.8381 439.351" stroke-dasharray="" fill="none" fill-opacity="1.0" stroke="#ff0000" stroke-opacity="1.0" stroke-width="1.0px" stroke-linecap="butt" stroke-linejoin="miter" stroke-dashoffset="0.0px"/>
</g>
</svg>