<?xml version="1.0" standalone="no"?>
<!DOCTYPE svg PUBLIC "-//W3C//DTD SVG 1.1//EN" "http://www.w3.org/Graphics/SVG/1.1/DTD/svg11.dtd">
<svg width="512px" height="512px" version="1.1" xmlns="http://www.w3.org/2000/svg" xmlns:inkscape="http://www.inkscape.org/namespaces/inkscape">
<g id="layer" inkscape:groupmode="layer" inkscape:label="layer">
<path d="M101.977 62.2565 L105.4725 63.1814 L104.6872 64.42 L103.9019 65.6585 L103.9019 68.7195 L104.0872 68.66 L104.1216 68.1896 L104.1724 67.6684 L104.3387 67.0938 L104.5563 66.6987 L104.738 66.4588 L104.9233 65.831 L105.6126 65.3826 L105.685 65.3058 L105.8821 65.0682 L106.2527 64.8785 L106.3749 64.8879 L106.8532 64.5767 L112.8828 65.0518 L113.604 64.681 L114.6505 63.9332 L115.3522 63.6557 L115.8942 63.4856 L116.4075 63.4887 L117.278 62.9698 L117.6076 63.6957 L118.0747 64.2467 L119.1674 66.9276 L119.4729 67.6292 L120.5323 69.5387 L120.9686 66.9911 L124.4076 66.9911 L126.0193 70.5734 L129.5743 69.9847 L129.8858 69.8107 L131.8954 69.1726 L132.134 69.1577 L132.0776 69.57 L132.6791 72.6397 L133.4157 80.1051 L134.8734 80.9282 L143.0398 82.0882 L146.9433 81.248 L151.6989 76.4994 L157.6684 76.4994 L166.6632 84.6248 L170.9342 84.0189 L173.5956 88.6435 L179.7971 89.4822 L183.6796 95.5576 L192.738 90.6407 L195.2202 99.5206 L200.5502 105.7769 L201.6127 106.8726 L201.9273 107.1674 L202.8204 106.4855 L203.0601 106.1876 L204.2119 104.9696 L205.1656 104.1317 L206.456 103.0359 L207.8178 101.7991 L208.9655 100.8444 L209.2416 100.6986 L209.7205 101.0725 L209.8078 101.1509 L210.2974 101.5922 L212.9008 103.9726 L213.1775 104.0572 L213.6482 103.9663 L214.1409 103.7766 L214.7204 103.344 L215.3009 102.9787 L215.4703 102.666 L215.7295 102.416 L216.3219 102.1777 L216.8998 102.0178 L217.5152 101.9543 L218.2559 101.5671 L218.7533 101.2175 L218.9365 101.165 L225.2946 99.4877 L226.8591 100.0065 L228.2552 104.2626 L229.6565 108.7224 L221.4388 113.7465 L222.4448 116.1762 L225.0164 116.5681 L222.8862 121.8585 L224.8398 123.314 L226.8365 124.5312 L229.2664 126.0203 L231.6614 127.3574 L233.2464 128.4076 L234.7313 129.9837 L236.6115 131.4807 L238.4603 133.0239 L240.8158 134.5483 L242.6005 135.8493 L243.0537 136.2529 L243.9335 137.0437 L243.9242 137.2843 L243.9489 137.5508 L244.7983 138.184 L237.3968 147.6749 L233.0698 143.0666 L230.8098 146.5691 L230.7118 146.939 L231.4042 149.6028 L231.4432 149.6577 L232.4349 150.2384 L232.461 150.3035 L233.5626 150.6687 L222.4859 168.333 L219.9451 170.1966 L219.8794 170.3463 L219.4703 170.6605 L219.4893 170.7961 L220.1761 171.648 L245.7633 162.6122 L248.068 166.4914 L252.4976 166.1387 L250.5728 170.3784 L248.4611 170.3659 L247.1749 170.6801 L246.4994 170.7083 L245.463 170.4967 L245.1623 170.3776 L240.1993 174.5162 L239.3986 182.1881 L238.7703 182.5063 L238.8776 182.8652 L238.6076 183.3855 L236.1629 184.2757 L235.8554 184.3886 L235.4935 184.4756 L239.5269 186.3492 L249.0945 183.5281 L249.4179 191.9992 L243.5562 194.0523 L242.7401 191.6309 L242.2299 191.8981 L238.5465 193.9347 L235.8775 195.549 L237.9871 195.4393 L238.5532 195.5192 L238.7816 195.5482 L247.5855 196.842 L246.8002 199.1693 L232.5052 203.487 L233.3778 208.3139 L248.0834 202.2175 L249.2516 202.2191 L250.2022 201.843 L252.4078 201.0382 L253.2218 201.2184 L253.653 201.3838 L254.1904 201.4762 L255.7277 201.8508 L256.6249 202.0161 L257.0427 202.1125 L257.2819 202.2332 L257.4559 202.2332 L263.2098 200.2899 L263.8622 201.3101 L264.0511 201.4324 L264.5962 201.8422 L264.9483 202.0647 L265.2655 202.5239 L265.361 202.8757 L265.3564 203.3647 L265.0926 203.7996 L264.7056 204.1178 L264.0983 204.3434 L263.7313 204.4978 L263.3674 204.6498 L261.3682 206.2875 L261.4072 206.4732 L261.2501 206.764 L261.109 207.0743 L260.5166 207.383 L258.9968 208.2301 L257.0761 209.8027 L253.3086 211.6755 L253.7346 212.3337 L253.1053 213.4315 L253.4195 213.7254 L253.5817 214.1062 L253.2814 214.5301 L252.9277 215.0582 L252.9036 215.1444 L257.3805 218.7363 L258.0267 218.8139 L258.1797 219.1743 L257.9528 219.7048 L257.4713 220.1342 L253.6597 225.0667 L252.6059 225.4256 L249.3994 225.2391 L247.1174 224.5707 L243.8257 225.3135 L242.1313 226.4011 L241.9332 227.6885 L242.0554 228.0239 L242.525 228.4548 L242.9531 228.429 L243.3704 228.4407 L244.2825 228.3851 L244.7342 228.3075 L245.9979 228.0858 L247.6168 227.8092 L248.9441 227.5882 L249.7885 227.4111 L250.3362 227.1486 L250.7406 226.8642 L251.1846 226.7028 L251.5655 226.6252 L251.78 226.7326 L251.7805 226.9731 L251.6071 227.2372 L251.6194 227.6039 L251.836 227.8883 L251.4274 229.4397 L250.4537 231.5177 L249.8465 232.943 L249.2454 234.3533 L248.3482 236.5794 L247.9489 238.1519 L247.8442 238.9394 L247.6563 239.52 L246.6564 240.0676 L246.1585 241.0267 L246.004 241.8823 L245.9014 242.6917 L245.9322 243.4102 L246.1616 244.1467 L246.7483 244.779 L247.2909 245.0759 L247.0989 245.7513 L246.9793 246.574 L246.9947 246.7432 L247.1569 247.0355 L247.5213 247.6835 L247.76 248.5845 L248.3975 249.8491 L248.4729 250.0873 L248.6264 250.5699 L248.6552 250.66 L248.6531 251.0988 L248.5792 251.912 L248.2117 252.7332 L248.0402 253.1155 L247.9812 253.8214 L247.9822 253.9288 L247.9843 254.2304 L248.0243 254.7154 L247.9951 255.553 L247.6342 256.0818 L246.9505 256.2699 L245.7366 256.624 L244.6397 257.1489 L243.7225 257.5877 L241.9625 258.401 L240.4857 259.3788 L239.8318 260.3299 L239.1615 260.4302 L238.3181 260.5971 L237.5723 260.8494 L236.5678 261.437 L236.3769 261.7778 L236.3132 261.8922 L236.3528 262.5534 L236.6792 263.174 L236.7968 263.3973 L237.3044 263.7044 L238.0102 263.7804 L238.9269 263.6252 L240.0068 263.351 L240.6715 263.1818 L241.6396 262.895 L241.9583 262.9859 L242.2663 263.1912 L242.5907 263.4881 L242.6595 263.5508 L242.97 264.0178 L242.8484 264.3045 L242.6384 264.6352 L242.0133 265.2024 L241.5913 265.7579 L241.5539 266.1339 L241.6586 266.5335 L242.1662 267.2614 L243.0742 267.5458 L243.7482 267.7455 L244.3723 267.7025 L245.1017 267.4228 L245.7572 267.1854 L246.3926 267.1133 L246.7642 267.1642 L247.1009 267.451 L249.3702 271.5939 L249.5606 271.7459 L249.6761 271.4662 L249.8465 270.7078 L250.2371 269.8868 L250.8038 269.2193 L251.2395 268.6622 L251.3412 268.073 L251.7318 267.4071 L252.3395 267.0334 L253.1777 266.8641 L254.2387 267.0498 L255.2426 267.382 L256.7887 268.0887 L258.2248 268.9043 L259.1652 269.4692 L258.8526 269.0594 L256.5084 267.6476 L255.5624 267.1752 L254.9465 266.7654 L254.8177 266.5931 L254.8228 266.416 L255.1903 266.2687 L255.5871 266.0556 L255.799 265.8307 L256.0819 265.6067 L256.4324 265.2698 L256.7343 265.023 L257.1474 264.8365 L257.4703 264.8208 L258.0118 265.1107 L258.6139 265.6004 L259.3433 266.0548 L259.9982 266.463 L261.5232 267.943 L261.6679 268.4468 L261.5817 268.6058 L261.4508 268.8487 L261.1357 269.1041 L260.7769 269.3493 L260.492 269.6298 L260.3396 269.8915 L260.3426 270.3091 L260.5577 270.7345 L260.7671 271.2461 L260.6439 271.5971 L258.8705 272.965 L258.117 273.4453 L257.5381 273.8143 L256.9863 273.7234 L254.9711 272.9744 L254.811 272.9266 L253.1577 272.4338 L251.5645 272.2904 L250.9906 272.3273 L250.2741 272.3735 L249.3727 272.4706 L248.3877 272.8091 L247.5547 273.3387 L246.234 274.7121 L245.0216 276.0338 L244.1644 276.1795 L242.7596 276.7585 L241.8541 276.5971 L241.7263 276.5744 L239.6932 276.2156 L238.4839 276.1325 L236.0689 276.6175 L234.3268 277.1941 L234.0656 277.5012 L233.8977 277.8209 L233.7956 278.0919 L233.7484 278.5072 L233.8875 278.7916 L234.1159 279.3572 L234.2616 279.8751 L234.3551 280.892 L234.1446 281.753 L234.0091 282.5223 L234.0189 282.9994 L234.4187 284.0555 L235.1548 285.7783 L235.9447 287.0138 L236.4349 287.6695 L236.5232 288.4749 L236.6089 289.415 L236.4195 289.9736 L235.8462 290.5604 L234.7585 291.0813 L233.8064 291.7104 L233.0452 291.9893 L232.5534 292.1225 L232.0566 292.1687 L231.9534 292.1507 L231.5551 292.0802 L231.0767 291.5584 L230.6035 290.7813 L230.1056 289.8725 L229.7617 288.3354 L229.6965 287.8873 L229.4876 286.4513 L229.4845 283.826 L229.7755 281.4459 L229.8546 277.9399 L230.3037 275.8599 L230.2909 274.557 L230.0835 272.4706 L229.8674 270.2997 L229.6724 269.5726 L229.3115 268.2258 L228.7731 267.3734 L228.558 267.0334 L227.9431 266.2374 L227.223 263.8603 L226.9504 263.4255 L226.0296 263.105 L223.6167 262.3043 L223.0864 262.186 L222.7518 262.1108 L222.6809 261.7081 L222.9032 260.9826 L223.5412 259.0058 L223.6834 258.1722 L223.4894 257.6739 L222.9545 257.2202 L222.3016 256.566 L221.8217 256.179 L221.4773 255.7293 L221.4147 255.5083 L221.5461 255.249 L221.7996 255.3171 L222.2493 255.531 L222.78 255.857 L223.8625 256.3514 L224.7459 256.7517 L225.8987 257.4028 L227.8841 258.2035 L228.5088 258.4002 L228.7957 258.3743 L228.9794 257.9959 L229.1509 257.478 L229.3613 257.1544 L229.6518 257.1701 L229.9023 257.1333 L230.0999 257.0024 L230.1887 256.9437 L230.4726 256.5002 L230.8981 255.676 L231.3354 254.8886 L231.9765 252.7394 L232.2727 252.2732 L232.4107 252.0061 L232.1746 251.8157 L231.5874 252.0319 L231.1568 252.0296 L230.798 251.963 L229.6878 251.4709 L229.5138 251.4944 L229.3198 251.6112 L229.2546 252.1338 L229.1858 252.6141 L228.7757 252.7598 L228.7551 252.7668 L228.3512 252.6697 L227.223 251.2531 L226.5049 250.5331 L225.9957 250.0559 L224.7828 249.1416 L224.0745 248.3369 L224.0206 248.2515 L223.245 247.1938 L222.4689 246.1352 L221.7919 246.5231 L221.0913 247.041 L220.5642 247.3724 L220.0996 247.6129 L219.418 247.9514 L218.3637 248.2256 L217.3243 248.0454 L217.1831 248.0705 L214.9709 248.467 L213.8884 249.0483 L213.2822 249.0922 L213.1806 249.0993 L211.7439 249.5145 L210.1245 249.9321 L206.2179 250.4195 L203.8593 250.2408 L199.7572 248.0501 L198.5237 247.2933 L198.1819 247.5651 L197.6121 248.0047 L197.5162 248.0791 L196.9633 247.714 L196.6903 247.533 L196.2483 247.0997 L196.197 246.6939 L195.77 246.1102 L194.9005 245.6314 L193.7307 245.032 L191.9768 243.8278 L188.6712 242.2498 L188.0127 242.0703 L187.2551 241.963 L185.1393 241.5853 L183.6062 241.3299 L181.7157 241.2563 L180.7882 241.2993 L179.524 241.5932 L178.6838 241.5853 L177.7316 241.2061 L176.9504 240.7619 L176.1759 240.4586 L179.6174 242.9996 L185.0469 243.4164 L187.1175 243.5982 L186.0227 246.136 L186.2085 246.2481 L186.4297 246.5818 L186.3589 247.041 L185.5176 248.7177 L185.1409 249.0711 L184.7426 248.8775 L184.3581 248.6903 L183.563 247.638 L181.5474 246.4298 L179.2361 246.0357 L179.0934 246.0553 L178.8778 246.3225 L178.6673 246.7378 L178.3558 246.9368 L177.8887 246.9235 L177.2507 246.8122 L176.4464 246.9642 L175.6687 247.1068 L174.8618 247.6905 L174.6499 247.6357 L172.2287 248.9708 L172.6676 249.3852 L172.995 249.6454 L173.0222 249.6971 L175.9567 252.0829 L175.7781 252.8977 L175.8083 253.016 L175.949 253.3216 L175.8936 253.6373 L176.0357 254.0353 L175.893 254.3244 L175.7734 254.6394 L175.4614 255.1565 L175.2766 255.1871 L174.9917 256.4861 L179.3598 259.6122 L178.6925 261.0147 L165.9138 254.1137 L165.2793 254.7577 L164.1809 255.9345 L163.8232 256.4979 L163.799 256.6342 L164.0778 257.5963 L164.6111 258.5483 L164.9806 260.0424 L165.1603 261.3296 L163.4392 264.9595 L158.3167 262.0489 L157.9522 262.0982 L157.0483 263.4764 L156.4231 263.6213 L154.6672 262.5895 L152.6613 261.473 L151.0655 261.3868 L149.7674 262.0183 L149.3912 262.2377 L150.6877 263.0596 L150.2766 263.6049 L150.7165 263.9755 L150.7211 264.2834 L150.0718 264.9478 L148.9508 266.0344 L148.6074 266.5508 L150.1026 267.6664 L147.6095 268.1937 L147.4022 268.3002 L147.3 268.2587 L145.3588 268.6693 L145.6637 268.8071 L146.0666 268.9678 L146.1369 269.3791 L145.9172 269.5695 L145.2818 269.6619 L144.6915 269.5898 L143.8189 269.3877 L142.9864 269.231 L142.5065 269.7136 L142.3663 270.0333 L142.4218 270.2668 L142.2888 270.5472 L142.141 270.8583 L141.9721 271.1082 L142.1929 271.5838 L140.2388 271.04 L139.8903 271.0095 L139.55 271.3887 L139.4648 272.2685 L139.5207 272.455 L139.6788 273.2431 L140.2906 274.5311 L140.1151 275.1563 L139.8677 275.6107 L139.7127 275.9218 L139.2153 276.109 L138.3037 275.939 L137.2638 275.6805 L136.344 275.4188 L135.882 275.6554 L135.5643 275.8896 L135.4242 276.2093 L135.514 276.8149 L135.5694 277.4237 L135.4545 278.0136 L135.3908 278.4288 L135.2717 278.801 L134.9489 278.8119 L134.935 278.9717 L126.3683 277.6007 L125.1149 278.3285 L137.0241 281.4866 L147.916 287.6758 L150.3541 285.2863 L154.4501 287.0255 L152.6382 290.9192 L156.2568 295.1731 L159.1425 296.8692 L160.5612 297.2547 L161.616 297.6808 L163.2411 298.4008 L164.6634 298.9437 L165.9487 299.7718 L166.4014 300.4016 L166.6283 301.2681 L168.8939 302.5999 L176.7317 304.0413 L176.6953 304.2693 L177.0135 304.3547 L177.2219 305.4741 L177.1044 306.6524 L177.0936 307.46 L176.7205 308.697 L176.2328 309.7679 L175.8391 309.8611 L175.7971 309.8627 L175.7873 309.9246 L175.4942 309.8705 L175.2833 309.8768 L174.9219 309.7656 L156.9385 306.4675 L156.8281 306.7816 L156.9123 307.4381 L157.8378 309.9324 L157.0129 311.2187 L157.3568 311.9324 L157.2203 312.8294 L156.5653 313.6825 L156.2435 313.9457 L155.3417 314.4173 L154.7324 314.7745 L154.0549 315.8313 L148.5832 313.5673 L148.3112 315.4866 L148.0443 317.5547 L151.1702 317.9464 L151.55 321.0485 L147.3206 320.0928 L141.4435 325.545 L140.8378 323.5318 L139.6182 323.8765 L138.9936 324.4499 L137.0739 324.8204 L133.9239 328.5217 L137.3937 331.3105 L138.0558 335.611 L142.4187 340.6635 L141.5343 341.5549 L141.4912 342.068 L141.3767 342.5881 L140.5858 343.4247 L139.5176 344.2378 L138.0332 345.083 L136.9779 346.1467 L130.721 338.5955 L129.2016 339.653 L133.6364 342.7706 L135.7614 346.8752 L130.8031 349.3504 L128.6216 354.4341 L137.8659 364.4523 L147.0229 374.345 L157.617 370.366 L158.9926 366.2147 L165.1418 362.5489 L168.8477 367.7264 L149.9691 393.0252 L133.8007 408.1724 L129.5045 416.0512 L125.2186 424.5642 L126.8713 425.3003 L134.4731 420.1707 L132.3686 417.4217 L140.1141 410.5063 L142.3879 413.1143 L137.6503 417.4217 L137.4912 421.5725 L139.6778 419.873 L142.1107 423.319 L139.8728 425.1359 L137.9172 423.0997 L137.5938 430.8685 L137.6708 437.0005 L138.0147 436.2174 L139.0413 435.2541 L142.0081 442.5607 L143.5479 449.8045 L146.2889 452.0755 L145.2007 452.0755 L146.1503 454.2133 L151.4371 461.5352 L156.8471 464.5814 L167.4208 458.9276 L173.2927 447.463 L173.6264 444.1661 L171.4039 439.3734 L174.7248 437.6192 L174.0267 435.0427 L177.8456 421.4864 L179.6113 420.946 L177.2758 419.7008 L181.146 412.8245 L178.0714 405.3059 L179.986 404.6245 L179.0723 403.6064 L180.7456 401.7893 L182.4651 401.1706 L186.8126 409.3942 L185.6988 408.611 L185.9093 410.8744 L188.2088 419.6694 L186.0735 420.946 L185.2574 425.6528 L186.3558 427.0389 L184.7338 427.36 L185.899 429.0751 L184.3797 429.2318 L185.5808 430.7511 L185.9247 431.7535 L188.2088 434.0637 L188.3628 430.2342 L191.6529 430.4143 L191.9301 432.4975 L188.6399 434.9722 L189.6819 438.2457 L194.553 450.1177 L196.0569 459.1312 L192.3766 459.1312 L192.7 462.0834 L195.1073 461.7545 L198.8492 461.4726 L199.4086 464.8711 L206.61 464.8476 L207.8419 466.821 L218.4068 464.5368 L236.7352 449.5923 L236.962 449.3244 L237.4081 448.4207 L237.7571 446.3737 L238.2227 445.1426 L239.3971 443.3368 L240.9102 441.6068 L241.7807 440.8629 L242.5378 439.5418 L241.9306 437.9692 L245.0262 436.4625 L245.5334 437.2848 L253.3753 435.2322 L258.0257 433.2093 L259.6323 433.2931 L258.3804 434.6699 L257.0658 437.3412 L255.3966 439.6154 L249.6381 442.0383 L248.2805 441.4314 L247.7379 439.3655 L246.8617 438.4681 L245.6181 439.4979 L245.887 439.9678 L246.1652 440.6992 L246.3372 441.4259 L245.7803 442.4244 L245.073 443.5576 L243.6121 446.2453 L241.9142 449.0386 L240.3086 450.8343 L236.3579 455.3629 L233.425 458.37 L229.2258 462.4968 L226.2169 465.2141 L224.3424 466.7654 L222.4992 468.3566 L220.9029 468.9415 L219.4118 469.3691 L217.3058 469.9305 L213.8802 471.3275 L210.4371 473.08 L208.6744 473.8506 L207.3122 474.4504 L206.0634 474.9821 L205.1523 475.1935 L204.5954 475.1951 L204.1888 474.9922 L203.8059 474.8153 L203.384 474.3666 L203.2116 473.8662 L201.1831 475.91 L200.1606 477.0368 L202.9985 478.0798 L203.6268 480.7265 L204.2751 485.7873 L204.6072 486.9736 L205.7462 488.5545 L208.1971 490.4996 L208.308 491.5277 L210.4586 493.3466 L213.0841 495.9556 L220.4061 500.6842 L223.2527 503.6737 L224.6442 504.7174 L228.2342 505.0964 L234.6076 505.9663 L235.066 507.0257 L238.7827 507.959 L243.7959 510.8529 L244.7044 512.0 L245.81 501.2675 L245.7915 499.4478 L246.0749 498.383 L246.658 492.7711 L246.7201 491.252 L246.5969 489.1355 L246.1072 487.488 L245.8783 485.135 L246.9582 483.2965 L247.2051 482.1423 L247.3684 479.992 L246.4593 478.7673 L247.0866 473.9625 L247.4253 472.268 L248.145 468.6698 L248.3595 466.543 L248.688 465.0387 L248.9873 464.5399 L249.4733 464.5148 L249.8193 463.8484 L249.5549 462.8046 L249.9461 460.6229 L250.7971 458.4264 L251.2816 458.1695 L251.9438 458.2431 L252.5854 458.778 L253.0206 459.4522 L254.3654 460.8986 L255.0137 462.2815 L256.0531 463.388 L256.2918 464.229 L255.6471 467.3574 L255.7734 467.8907 L256.0038 467.5579 L256.8677 463.738 L256.6085 462.6018 L255.3001 461.0959 L253.5806 457.4843 L253.3317 456.7647 L252.9734 456.1617 L253.132 454.8101 L253.596 453.6362 L254.6678 453.8696 L255.0728 453.1327 L256.3062 450.0418 L256.5613 448.5899 L256.647 447.2876 L257.1013 446.1638 L257.8173 445.589 L258.4825 445.3086 L259.0954 444.9132 L259.4588 444.5686 L259.7637 444.2005 L260.3991 444.2131 L260.6532 444.7558 L260.7502 445.8145 L261.2091 446.593 L261.2814 446.6493 L261.5016 446.8216 L261.9302 447.156 L262.7751 447.3682 L263.9408 447.2398 L264.1887 447.3299 L264.2975 447.6736 L264.4207 448.1717 L264.6291 448.7536 L265.0556 449.2516 L265.5171 451.0621 L266.344 451.5445 L267.3048 452.2626 L268.3021 453.1225 L269.1999 454.5438 L269.0413 456.3473 L268.7359 456.9847 L267.4049 459.6785 L266.7453 460.4107 L265.438 460.7647 L264.1476 461.5337 L262.4959 462.6754 L264.3827 462.7427 L267.8248 461.5039 L276.8011 458.7224 L278.7285 457.8414 L275.4352 457.8939 L272.2647 451.135 L270.5185 447.3776 L269.5402 444.0799 L270.7505 443.0494 L273.3939 441.3422 L276.3412 440.7251 L277.2687 441.3821 L278.2737 443.1997 L278.7511 445.5671 L279.0765 446.1168 L279.9511 446.2774 L280.4947 445.8944 L281.2405 445.2601 L281.8585 444.921 L282.691 444.6179 L282.4015 443.8458 L282.2809 443.2976 L282.0658 442.639 L281.1548 439.689 L280.6014 437.1861 L279.9506 436.1571 L279.6657 435.3559 L279.871 434.4389 L279.3511 433.9212 L279.4101 433.6393 L279.5893 433.3613 L279.7155 433.1232 L279.8336 432.5609 L279.5692 431.9062 L279.192 431.6368 L278.7495 431.7339 L278.4287 431.9266 L278.1387 431.4582 L278.4646 431.0886 L278.8794 430.838 L280.0887 431.0314 L280.7672 430.8983 L282.8358 432.5398 L284.2524 433.308 L285.0378 434.2611 L285.4679 435.5721 L286.1521 436.966 L286.901 437.8314 L287.3932 438.8965 L288.5332 440.8778 L288.8828 441.7721 L289.3401 441.6805 L290.0295 442.3594 L290.6562 443.5819 L291.2742 444.9468 L291.6658 446.2969 L292.1293 446.9759 L293.334 447.4238 L294.5109 448.037 L295.5267 448.658 L296.6688 448.9626 L297.1718 450.4584 L297.4223 451.59 L297.8719 453.2478 L301.1554 451.4983 L305.7339 447.2312 L310.7199 441.9577 L316.5924 438.2903 L324.6464 434.0716 L324.2152 433.4247 L323.2805 433.0887 L322.5373 434.4796 L320.4041 435.6778 L319.1111 435.1844 L315.1357 436.5956 L313.4306 437.5369 L311.7229 438.7618 L310.315 439.8667 L308.8875 441.2216 L307.3425 442.7635 L305.0687 445.8506 L304.6 446.4739 L304.0832 446.4504 L301.3012 442.0877 L300.018 439.6952 L298.9288 437.497 L298.1039 435.3379 L297.7385 434.1906 L297.2601 432.8131 L296.9172 432.3001 L296.6986 431.7613 L296.9511 431.2852 L297.5937 430.986 L298.0346 430.9453 L298.5854 430.8028 L299.1479 430.7863 L299.806 430.4997 L300.694 430.4958 L301.4608 430.6305 L302.0973 430.65 L302.4386 431.1419 L302.6136 431.5929 L302.9955 431.452 L303.1901 430.3376 L303.634 429.2506 L303.071 427.1799 L302.5377 425.3434 L301.7636 421.6743 L301.6728 419.3593 L302.4391 418.4305 L302.7522 418.0506 L303.7382 417.1891 L304.3239 417.2698 L304.9717 417.6418 L305.2719 418.23 L305.3022 418.295 L305.7806 419.3217 L306.1455 421.0776 L306.6342 424.5391 L306.9093 427.0742 L307.3107 428.5825 L308.1073 430.0995 L308.4487 431.4363 L308.6714 432.4317 L308.9327 432.4074 L308.9717 431.8741 L308.598 430.1864 L307.9041 428.3515 L307.5417 425.8243 L306.4499 420.3915 L306.4196 419.3045 L306.6568 419.0178 L307.2938 418.7821 L308.3188 418.9536 L309.7324 420.274 L310.5783 421.3564 L310.7733 422.1019 L311.0556 423.1091 L311.881 423.8366 L312.8803 424.2501 L313.4424 424.8414 L313.9362 425.1931 L314.3853 425.2855 L314.7487 425.1946 L314.6445 424.9573 L314.7543 424.5438 L314.0609 423.1944 L310.4166 416.5689 L312.0098 415.6377 L311.7121 415.0284 L314.4643 413.404 L316.3301 414.6822 L317.3916 416.8853 L319.9195 420.5372 L320.3091 422.2734 L321.54 424.5579 L324.0083 429.3524 L325.4702 432.4356 L327.7163 431.3627 L330.2335 428.8942 L332.127 425.1304 L333.0858 421.9664 L333.925 418.0592 L335.0994 414.8717 L337.4246 411.1798 L342.1945 407.5122 L346.5333 405.7625 L353.6762 403.6056 L357.1999 401.6155 L360.9155 399.2189 L361.7542 397.6368 L363.696 393.0346 L365.302 390.4453 L369.5449 384.0933 L371.2228 378.7241 L371.656 376.0462 L371.3609 376.5052 L370.766 376.5538 L370.1726 376.5827 L369.4047 376.5506 L369.1743 376.4237 L368.8601 376.0705 L368.9217 375.6616 L368.9695 375.1831 L369.0516 374.7656 L369.047 374.3277 L368.6215 374.3802 L368.392 375.1157 L368.0533 375.9608 L367.0128 377.0033 L365.4565 379.1972 L364.5604 379.6272 L364.1256 379.8356 L363.3813 380.8804 L363.0451 381.1373 L362.6022 380.9235 L362.6905 380.4974 L364.0989 379.1588 L365.338 377.673 L365.7671 377.0331 L365.5089 376.8569 L364.4844 377.1224 L363.8264 378.1022 L362.6756 379.3962 L361.5587 379.993 L361.2019 380.4152 L360.9935 381.1483 L361.148 381.601 L361.8153 382.0631 L361.8738 382.6028 L361.3995 382.7383 L360.6717 382.9537 L360.0583 383.0304 L359.3931 382.8511 L358.1192 383.4205 L357.8466 383.7573 L357.6341 384.1371 L357.4375 384.452 L357.1095 384.8005 L356.6809 385.2078 L356.357 385.6762 L355.7324 386.4829 L355.0163 386.6756 L354.3178 386.7469 L353.6736 385.8728 L353.321 385.254 L352.993 385.1358 L352.8385 385.3762 L352.454 385.489 L352.0552 385.4483 L351.7873 385.0621 L352.0224 384.2343 L352.3488 383.7165 L352.684 383.3672 L353.0027 383.1542 L353.4821 382.5307 L354.0154 381.8093 L354.6997 381.4992 L355.3674 381.4733 L357.0659 381.6926 L357.9826 381.5376 L359.3177 380.8867 L359.9582 379.9178 L360.1045 379.6962 L360.2067 379.5419 L360.9761 377.561 L361.4083 375.241 L361.2589 373.6902 L361.5807 372.6563 L362.9168 371.7634 L364.4423 369.8483 L365.436 368.2927 L365.9991 367.1233 L366.6638 366.9846 L367.1257 367.565 L367.3706 368.0867 L367.4779 368.7987 L367.9973 368.7721 L367.9932 368.6522 L367.7396 368.0319 L367.4378 366.6596 L367.2197 364.4938 L367.0662 363.8923 L367.1981 363.4066 L367.4158 362.6226 L367.2484 362.4894 L366.8758 363.351 L366.7824 363.9534 L366.4102 364.0513 L365.9498 363.9518 L365.7471 363.6596 L365.5423 361.4202 L366.0017 358.7265 L366.1587 357.9628 L366.6279 357.8672 L367.1699 358.2244 L367.6406 358.6693 L368.1893 358.9584 L368.9392 359.5263 L369.8934 359.0853 L370.6782 358.2565 L371.2736 357.438 L371.832 357.3722 L372.2776 357.3879 L372.9448 357.5657 L373.5002 357.6072 L374.3533 357.955 L375.0149 358.4813 L374.9826 359.4142 L375.4717 359.7393 L376.1719 359.7189 L376.4963 358.1813 L376.8078 355.1375 L375.1299 352.4045 L373.3801 349.7202 L372.7806 348.0901 L374.051 347.7063 L375.4892 348.4974 L376.9274 351.062 L378.5817 352.3325 L384.4065 348.665 L387.4508 346.3159 L388.601 344.8299 L391.2619 339.8684 L389.9674 338.214 L388.002 334.8825 L378.8933 351.7333 L377.431 351.1818 L386.7091 334.2597 L385.4567 332.0272 L385.102 330.3783 L385.8534 329.6897 L384.2884 323.6595 L383.3286 318.7141 L382.765 313.2461 L382.6572 308.8349 L383.2747 305.4561 L384.3285 302.2223 L386.5084 299.1701 L388.4337 296.7729 L391.9579 293.8656 L396.2454 291.5772 L399.6967 290.5235 L401.7678 290.4507 L405.9095 290.1968 L406.99 289.4181 L408.4744 287.9186 L408.7521 287.6421 L408.693 287.3593 L409.0205 286.926 L409.3618 286.8806 L409.5861 286.4779 L409.6411 286.3032 L409.7699 286.087 L410.023 284.9635 L406.5685 281.6887 L406.0106 281.0322 L403.6433 279.3885 L403.0869 278.9341 L399.7373 275.2668 L398.994 273.0253 L399.6089 270.5198 L399.3759 268.3958 L399.0736 265.7453 L398.877 265.2369 L398.705 264.8992 L398.6214 264.3688 L398.7877 263.9504 L398.8667 263.8619 L398.7836 263.5375 L399.439 263.0314 L399.5412 262.848 L399.9559 261.9823 L399.7147 261.0351 L398.3016 256.9836 L396.9624 254.1019 L396.3788 253.3318 L394.4576 250.7971 L393.5198 249.5607 L393.3407 249.3226 L392.9722 248.8337 L392.5795 248.3126 L391.3209 246.6422 L390.8092 246.0592 L390.453 245.3987 L390.4022 244.9999 L390.5623 244.7445 L391.2573 243.9406 L392.5379 242.4981 L394.7882 239.7871 L397.4069 236.8489 L401.6503 231.817 L402.1769 231.1291 L402.5773 230.5876 L399.8491 227.3257 L396.2982 223.7934 L396.2248 223.7214 L395.8758 223.1846 L395.8358 222.7443 L397.2981 220.5644 L398.6753 218.5624 L398.8729 218.053 L398.5854 217.4998 L398.2734 217.0681 L396.9768 215.8285 L397.7621 214.2065 L398.5475 212.5766 L395.5191 211.2053 L393.2221 214.266 L393.1205 214.4251 L389.0481 219.8286 L388.6313 219.5912 L387.7639 218.6658 L386.7948 216.1012 L386.3031 212.3893 L391.9153 202.8178 L393.4044 198.9107 L391.8912 197.9022 L391.7408 197.9461 L391.0817 197.9265 L390.1086 197.5159 L388.4809 197.0253 L387.1731 196.4588 L386.2384 195.9573 L385.5003 195.2888 L385.1636 194.4566 L384.6872 193.655 L384.3777 193.0453 L384.0261 192.3518 L382.6957 191.1435 L382.1896 190.2353 L381.4115 188.4744 L380.7591 185.8775 L380.6672 184.8345 L380.7042 184.003 L380.7021 183.3589 L380.5291 183.163 L379.9969 182.978 L379.518 182.9866 L378.8112 183.4404 L378.3384 183.8236 L377.1753 185.4653 L377.0116 185.7325 L376.2175 187.0326 L375.1037 188.9039 L374.8209 189.3098 L374.3302 190.0143 L372.8894 191.3143 L372.1138 191.9443 L371.2977 192.7413 L367.4306 195.7559 L365.3975 197.2941 L364.6553 197.8998 L363.8171 198.4578 L362.23 199.3887 L361.7173 199.7257 L360.7857 200.4975 L360.5372 200.5563 L360.315 200.2859 L359.6159 200.9018 L359.0621 200.8611 L358.4384 199.7507 L357.9308 200.2146 L356.8 201.3783 L354.2264 203.5402 L353.1357 204.5041 L352.7913 204.7478 L351.8853 204.5621 L351.5122 204.3411 L351.024 203.8623 L350.6801 203.2644 L350.5328 202.8883 L350.1304 202.1117 L350.1674 201.8962 L350.4317 201.7795 L350.693 201.68 L350.868 201.6126 L352.8395 200.2499 L353.7352 199.319 L353.7834 198.9961 L353.4801 198.6842 L352.9678 198.8151 L352.8801 198.8378 L351.2273 200.2138 L350.7956 200.5085 L350.2618 200.8399 L349.5098 201.2631 L349.2547 201.4065 L348.9693 201.6808 L348.2117 202.118 L347.4654 203.0638 L346.8151 203.2793 L346.2957 203.0787 L345.6099 202.7527 L344.5849 202.5004 L343.9233 202.129 L343.5214 201.8265 L342.8808 201.3759 L342.9275 200.6495 L343.2108 200.2201 L343.49 199.7774 L344.0156 199.2759 L344.3585 198.8551 L344.5551 198.6247 L344.802 198.3347 L345.3456 197.8473 L346.3691 196.9289 L347.5804 195.7363 L348.6978 195.1454 L348.956 194.8038 L348.5233 194.7223 L348.3462 194.6894 L347.779 194.5483 L346.7561 194.332 L346.3675 194.1628 L346.2726 194.1479 L345.9548 194.0985 L345.5483 194.1017 L341.1238 194.0288 L339.5111 193.8297 L338.368 193.5954 L337.5755 193.2647 L337.1074 193.003 L336.5237 192.5618 L335.8113 191.9475 L334.7406 191.6568 L332.671 191.634 L331.666 191.5988 L330.9818 190.7493 L330.4706 188.8569 L330.3828 188.0434 L331.1117 186.7599 L332.0012 185.9919 L333.4081 185.481 L334.6888 185.1299 L335.0429 184.8352 L335.2857 184.3251 L335.433 183.7734 L335.6804 183.3189 L335.7492 182.7986 L335.741 182.3582 L335.4197 181.6944 L335.0209 181.1952 L333.2937 181.4107 L332.8861 177.4509 L332.6007 174.908 L333.9743 173.8955 L333.4153 172.6432 L333.2634 172.05 L333.3378 171.1715 L333.6725 170.5109 L333.1612 167.9247 L333.1987 167.2492 L333.5975 166.4412 L333.7228 166.2853 L334.2838 165.587 L334.3705 165.4789 L335.1789 164.591 L335.9684 163.8104 L337.7669 162.1733 L338.0035 161.9374 L337.7546 161.729 L336.3549 159.3027 L337.441 157.8301 L337.5862 156.7126 L337.3948 155.4634 L336.4473 154.0504 L335.9766 153.1452 L335.2811 151.7862 L335.1025 151.0668 L335.1143 150.1169 L335.0244 146.1905 L335.1132 144.4554 L335.6081 143.4616 L336.3195 142.1301 L337.0755 141.2108 L337.5329 140.5039 L337.6093 140.2562 L339.1985 135.3649 L340.7245 130.8231 L340.7866 129.2541 L333.8167 128.6075 L330.9161 127.6889 L328.0987 126.1661 L326.8468 125.1433 L324.7393 121.8256 L321.5051 115.8156 L319.7522 113.9377 L318.5624 114.2089 L318.1246 113.6454 L318.3119 112.4556 L317.5194 110.8488 L316.9589 109.5375 L316.653 109.6653 L316.3804 109.775 L316.0109 109.8228 L315.6865 109.6692 L314.5377 108.6064 L314.2621 108.2466 L311.9934 106.7872 L310.2652 105.8702 L308.3475 105.1193 L307.2835 104.7493 L306.3719 104.4295 L305.8073 104.3543 L305.5163 103.5603 L309.2766 100.9926 L310.9535 99.8827 L311.9734 99.2227 L313.9793 97.8495 L313.1319 97.0712 L307.0664 101.1384 L306.4617 101.2363 L305.9931 101.3649 L305.5558 101.7513 L305.0856 102.2474 L304.5713 102.6417 L304.2089 102.3846 L303.2055 101.7482 L301.5332 100.8256 L300.1812 100.0865 L298.7501 99.4884 L296.5636 98.7266 L295.1058 98.1458 L294.4452 97.9443 L293.43 97.6488 L292.4901 97.4027 L291.907 97.2013 L291.228 97.108 L290.5376 96.8101 L289.7323 96.4167 L289.0978 96.2701 L288.5912 95.7504 L288.1601 94.969 L288.0528 94.4125 L288.2278 93.4695 L288.7211 93.0329 L288.7642 92.9781 L289.0573 92.6057 L289.7015 92.0594 L291.1094 91.0169 L294.2512 88.3887 L297.5367 85.8115 L298.2528 85.2659 L298.8564 84.8058 L299.3302 84.5072 L299.7716 84.3959 L294.6536 80.1177 L292.832 76.7134 L287.3188 70.4331 L283.9629 68.2759 L281.3262 67.6527 L277.1553 67.4128 L274.3019 68.2445 L273.7142 68.5831 L267.0395 72.5425 L264.8806 72.9289 L260.337 73.0982 L236.827 79.5956 L233.1211 77.0794 L248.7763 68.9586 L258.2721 66.3797 L242.3602 64.9452 L221.6708 47.4117 L205.7077 40.3933 L202.8174 36.6147 L200.0025 33.1034 L189.4227 19.773 L190.0648 21.0925 L190.9374 22.2159 L191.1622 22.7466 L191.1715 22.7913 L191.2623 23.2194 L191.0945 23.5463 L191.0678 23.5596 L190.7439 23.7274 L190.419 23.9555 L189.7574 24.4408 L188.9684 25.2286 L188.2524 26.0455 L187.9177 26.1678 L187.6252 26.2094 L187.4019 26.1592 L187.1925 26.0299 L187.0241 25.8111 L186.8799 25.4709 L186.8321 25.3337 L186.8419 25.0562 L186.9902 24.8233 L187.2818 24.4635 L187.5328 24.2001 L187.6442 24.0268 L187.5954 23.8826 L187.4933 23.765 L187.3927 23.6678 L187.2613 23.6231 L186.9933 23.7046 L186.6602 23.8418 L186.2378 24.008 L185.3811 24.2918 L185.0362 24.0692 L184.799 23.482 L184.8786 23.1982 L184.9674 22.9356 L185.2122 22.6016 L185.1599 22.259 L185.1229 21.8592 L185.202 21.3347 L185.1917 20.989 L185.1373 20.626 L185.0618 20.343 L184.9638 19.8914 L184.9089 19.6774 L184.8565 19.3348 L184.7518 19.04 L184.6476 18.6747 L183.8649 18.5273 L182.2121 18.8283 L181.3297 19.0581 L180.0619 19.628 L178.965 20.0623 L178.3275 19.7315 L177.3436 20.0059 L175.8977 20.1744 L175.4398 20.5711 L174.5647 21.3457 L173.301 23.0406 L173.0032 23.1033 L172.6737 23.8983 L172.6794 24.8821 L172.6578 25.028 L172.4966 26.1239 L172.6686 26.3842 L172.5177 26.8154 L172.6085 27.1893 L172.4561 27.6848 L172.3119 28.116 L172.203 28.6992 L172.0367 29.5004 L171.9156 30.7226 L171.487 31.1303 L170.8387 31.3741 L170.4512 31.5371 L169.4837 31.6053 L169.0617 31.6822 L169.0181 31.69 L168.6886 31.4799 L166.9239 31.7911 L165.2167 32.4935 L164.106 32.7805 L163.0763 33.4844 L162.2869 34.647 L162.0975 35.2028 L160.8492 35.9053 L159.3555 36.6304 L158.3495 36.9785 L157.2095 37.7067 L155.7333 38.5432 L154.8889 39.117 L154.2786 39.4635 L153.9091 39.5897 L153.5416 39.5882 L153.4943 39.5819 L153.1915 39.5427 L152.9667 39.0888 L152.7142 38.3402 L152.6577 37.7224 L152.6238 37.1243 L152.6536 36.9361 L152.7039 36.4579 L152.8666 35.6152 L153.2095 34.8117 L153.3424 34.6619 L153.5103 34.4722 L153.4908 34.172 L153.4579 33.6702 L153.6417 33.2853 L153.8639 32.9388 L154.1534 32.7068 L154.8987 32.2913 L157.2603 31.4862 L157.9029 30.9523 L157.9358 30.8135 L158.158 29.8806 L158.2196 29.3452 L158.2561 29.0293 L158.4783 28.6051 L158.33 27.7553 L158.5019 27.3218 L158.9506 26.7495 L159.3653 26.3434 L159.9309 25.739 L160.2594 25.4678 L160.8092 24.9213 L161.1839 24.6179 L161.8742 24.6038 L162.7222 24.0723 L163.1184 23.7744 L163.8391 23.4741 L164.4663 23.1543 L164.9457 22.7631 L165.6058 21.9517 L166.0411 21.5432 L165.8306 21.2516 L165.4369 21.3441 L164.9729 21.4437 L164.6398 21.6585 L163.6646 22.1877 L162.9054 22.4558 L161.8024 22.8195 L161.1366 22.8736 L160.7219 22.7349 L160.1634 22.2692 L159.7405 21.8129 L159.2329 21.1238 L158.9731 20.5241 L159.0265 19.9533 L159.3432 19.0957 L159.7384 18.4011 L160.6198 17.6963 L162.1093 17.1553 L163.506 16.2977 L163.9946 15.389 L164.2215 14.7093 L164.2071 14.2436 L163.9751 13.7905 L163.5008 13.1618 L163.1148 12.7227 L162.9932 12.0116 L163.0158 11.6416 L163.4326 10.8741 L164.6942 9.4692 L165.4354 8.5441 L165.7357 7.8157 L165.3373 7.321 L165.1567 6.5801 L164.7219 6.1529 L164.0834 5.6527 L163.4998 5.6001 L162.9865 5.0106 L162.8705 4.7448 L162.7509 4.5935 L162.64 4.2352 L162.4717 3.9396 L162.3736 3.8706 L161.8747 3.2011 L161.5124 2.8663 L161.2639 2.5425 L160.3179 2.7785 L158.6205 3.0482 L156.2332 2.7307 L155.5054 2.4155 L154.8356 2.0376 L153.828 1.2105 L153.0853 0.7338 L152.6017 0.3889 L152.2265 0.1474 L151.8318 0.0 L151.5798 0.0227 L151.3632 0.893 L151.0891 1.4488 L150.6656 2.2172 L149.8403 3.2278 L148.6079 3.9506 L147.0875 4.6923 L146.2632 5.2497 L145.539 5.5931 L144.1926 6.2266 L142.6984 6.7965 L142.0404 7.0843 L141.676 7.3438 L141.7391 7.5719 L141.869 7.8361 L142.1343 8.3426 L142.4079 9.0889 L142.5691 9.8455 L142.8514 10.7682 L142.972 11.6988 L142.8334 12.1151 L142.39 12.3613 L140.5442 12.7086 L139.6962 13.0065 L138.645 13.3233 L138.0476 13.5835 L137.3942 13.6933 L136.8224 13.6188 L136.4348 13.5483 L136.0355 13.1955 L135.6495 12.6083 L135.0844 11.4495 L134.7692 10.9337 L134.2785 10.2069 L133.8992 9.8384 L135.0443 13.1335 L135.8974 15.1107 L137.852 17.2972 L138.0424 17.3717 L138.1949 17.4211 L138.3258 17.3098 L138.4202 17.1812 L138.45 17.044 L138.3227 16.8151 L138.1138 16.4592 L138.0886 16.1848 L137.9901 16.0311 L137.8361 16.0452 L137.7026 16.0578 L137.5954 16.0397 L137.4696 15.9025 L136.9286 14.7768 L136.8706 14.6051 L136.8419 14.5227 L136.8845 14.4483 L139.4545 13.6023 L141.251 13.0261 L142.6512 12.5926 L142.8452 12.475 L143.0464 12.4358 L143.182 12.2954 L143.5536 12.2688 L143.6398 12.4373 L143.7024 12.736 L143.7368 13.1155 L143.8148 13.7309 L143.9011 14.2891 L144.3553 15.8547 L144.612 15.3428 L145.5456 15.6674 L145.4214 16.1597 L145.4214 16.5493 L145.249 16.9758 L145.0785 17.3529 L144.8009 17.5552 L144.5884 17.7802 L144.5088 18.1416 L144.593 18.2898 L144.8127 18.4536 L145.0513 18.4387 L145.423 18.4113 L145.7694 18.648 L146.042 18.8495 L146.1944 19.2815 L146.3597 19.7762 L146.3366 20.1391 L146.3125 20.4104 L146.217 20.6033 L146.1498 20.7938 L146.1349 21.0148 L146.2191 21.2406 L146.2293 21.4303 L146.3694 21.729 L146.7708 21.947 L147.1265 22.2825 L147.3262 22.767 L147.3041 23.2217 L147.2703 23.3879 L147.2923 23.5557 L147.3211 23.7156 L147.4597 23.9155 L147.7091 24.0198 L147.8883 24.0457 L148.0705 24.0362 L148.1747 24.0903 L148.2486 24.204 L148.2742 24.4847 L148.3784 24.7724 L148.4313 25.0436 L148.4031 25.2726 L148.285 25.6018 L148.1182 25.7092 L147.9319 25.7555 L147.6999 25.8401 L147.3606 25.9138 L146.9387 26.6257 L146.5917 26.9196 L146.3895 27.4128 L146.1303 27.8188 L145.9429 27.8502 L145.8526 27.7169 L145.7484 27.5774 L145.5959 27.4574 L145.4142 27.4739 L145.2669 27.488 L145.1581 27.4551 L145.0529 27.3869 L144.9518 27.361 L144.7624 27.4496 L144.6951 27.5617 L144.593 27.6064 L144.4919 27.5805 L144.4005 27.5037 L144.3789 27.4277 L144.3913 27.2497 L144.4185 27.0843 L144.4333 26.9416 L144.4179 26.773 L144.3569 26.5661 L144.3605 26.3748 L144.362 26.24 L144.306 26.0894 L144.1305 25.8723 L143.8405 25.5587 L143.4602 25.1056 L143.3395 25.0954 L143.1435 25.1918 L142.9879 25.2694 L142.8719 25.3862 L142.8822 25.4991 L142.9705 25.7664 L143.0162 25.9609 L143.1286 26.1843 L143.1409 26.3176 L143.0644 26.4869 L143.0429 26.6382 L143.0701 26.8546 L143.1732 27.0576 L143.3057 27.343 L143.3411 27.5805 L143.337 27.7648 L143.3601 28.0172 L143.4607 28.4617 L143.491 28.7486 L143.628 29.0904 L143.8076 29.4346 L144.0833 29.7011 L144.2989 29.9418 L144.3815 30.1464 L144.2845 30.6293 L144.2624 30.7736 L144.1613 30.9225 L143.8816 31.0848 L143.6932 31.1867 L143.5146 31.2384 L143.2697 31.2612 L142.9346 31.2282 L142.6081 31.131 L142.3006 31.0887 L141.9419 31.1005 L141.6267 31.1295 L141.4717 31.1295 L141.2289 31.1028 L141.0082 31.1585 L140.8845 31.3466 L140.8188 31.4799 L140.7829 31.6249 L140.6484 31.7794 L140.5858 31.8625 L140.4272 31.984 L140.152 32.0584 L139.9375 32.1071 L139.7943 32.1627 L139.6757 32.1807 L139.5253 32.1517 L139.2317 32.1078 L138.954 32.1619 L138.7508 32.1737 L138.5434 32.0726 L138.3786 32.0451 L138.1872 32.0349 L138.0081 32.1572 L137.7314 32.5296 L137.3208 32.5962 L137.0949 32.6731 L136.9712 32.706 L136.8347 32.6833 L136.6899 32.7177 L136.3989 33.007 L136.1551 33.2767 L135.8866 33.4288 L135.7475 33.4492 L135.6074 33.5401 L135.4334 33.8748 L135.3287 34.0403 L135.1845 34.0818 L134.933 34.1116 L134.5475 34.1406 L134.4289 34.0026 L134.3417 33.8976 L134.2231 33.7596 L134.0886 33.5244 L134.0296 33.4233 L133.8977 33.3716 L133.7848 33.3684 L133.6657 33.3794 L133.5389 33.4617 L133.4388 33.5205 L133.1637 33.6804 L132.808 33.7275 L132.5539 33.878 L132.4102 34.005 L132.2351 34.1767 L131.9795 34.3139 L131.7034 34.3813 L131.3841 34.5169 L130.8565 34.6157 L130.4381 34.8242 L130.2631 35.0735 L130.1959 35.264 L130.123 35.391 L130.0306 35.3855 L129.8181 35.3769 L129.6718 35.3973 L129.6477 35.5979 L129.6559 35.8378 L129.7693 36.153 L129.9551 36.483 L130.0922 36.9016 L130.2492 37.0004 L130.4623 37.0874 L130.6363 37.2129 L130.645 37.3109 L130.605 37.4135 L130.2569 37.8494 L129.7709 38.2484 L129.4552 38.5746 L129.0918 38.8489 L128.6945 39.1335 L128.2813 39.4761 L127.9836 39.4612 L127.8866 39.2503 L127.9364 39.1045 L127.9076 38.8662 L127.8661 38.6435 L127.7629 38.4405 L127.6099 38.3135 L127.4159 38.1261 L127.2234 37.8745 L127.0633 37.5139 L126.8036 36.8374 L126.7333 36.454 L126.7866 36.2651 L126.7538 35.9852 L126.686 35.7085 L126.6948 35.4953 L126.9411 35.0265 L127.4832 35.2381 L127.7111 35.3377 L127.9107 35.2836 L128.0847 35.1825 L128.2279 34.9716 L128.3172 34.7928 L128.3393 34.4934 L128.171 34.1978 L128.1961 33.8552 L128.1879 33.5378 L128.0375 33.127 L127.8922 32.3901 L127.9605 31.5199 L127.8717 31.1671 L127.671 30.9021 L127.5571 30.6583 L127.4139 30.4874 L127.3605 30.2867 L127.4334 30.0821 L127.6166 29.923 L127.8127 29.9049 L128.0698 29.7897 L128.3419 29.7505 L128.5801 29.8838 L129.0769 30.2201 L129.4152 30.2177 L129.854 29.9998 L130.4017 29.6588 L130.7097 29.3193 L130.8144 28.9979 L130.8164 28.4099 L131.1398 27.8565 L131.2229 27.4527 L131.2163 26.6884 L131.2804 26.541 L131.4734 26.4101 L131.7111 26.3881 L131.9087 26.4618 L132.1941 26.726 L132.3157 26.8209 L132.463 26.8138 L132.5924 26.7597 L132.6509 26.6272 L132.6396 26.4297 L132.4358 26.1302 L132.2203 25.7037 L132.0042 25.271 L131.8055 24.8782 L131.6012 24.4227 L131.4781 24.0025 L131.4103 23.725 L131.2825 23.5604 L131.1429 23.5024 L130.9966 23.3667 L130.7692 23.0485 L130.6239 22.8493 L130.4197 22.698 L130.2108 22.4981 L130.0532 22.2433 L129.9382 21.9924 L129.7986 21.5448 L129.6184 21.1222 L129.5917 20.9059 L129.738 20.7295 L129.9341 20.6401 L130.1163 20.4676 L130.1245 20.3257 L130.1317 20.176 L130.1173 20.0216 L130.1563 19.9047 L130.3262 19.7542 L130.5896 19.7017 L130.9037 19.588 L131.1321 19.3826 L132.1505 18.3831 L133.0051 17.2557 L132.655 15.2072 L129.0636 12.9109 L125.7631 15.6517 L124.2397 14.4992 L125.0897 13.1578 L126.278 13.2605 L126.9314 12.5667 L127.8789 11.8831 L126.2313 10.1356 L126.0988 9.0011 L127.208 8.0062 L126.3272 5.7162 L124.8346 6.2219 L123.7988 6.2971 L123.2229 6.8945 L122.0172 7.2183 L121.7323 6.2673 L119.0325 6.4673 L113.1836 10.2665 L113.9078 12.5479 L111.7418 15.792 L112.2597 17.0472 L109.8354 20.3689 L111.3419 23.5753 L113.1158 27.5539 L116.2915 36.4415 L119.2999 41.3614 L122.724 46.3041 L124.3095 48.5782 L124.6226 49.8066 L101.977 62.2565 M122.6403 64.6183 L122.7327 63.4879 L122.8718 61.7775 L122.841 60.9858 L123.1613 60.3924 L123.7013 59.6563 L124.3285 58.8003 L126.0532 57.1572 L126.6208 56.9793 L127.0792 57.0357 L127.1049 57.0389 L127.4323 57.1972 L127.9744 57.0538 L128.2274 56.429 L128.5785 55.8724 L128.7525 55.2265 L129.1873 54.811 L130.1086 54.0044 L130.7343 53.5905 L130.8806 53.4941 L131.6731 53.1304 L132.8906 52.9399 L134.1061 52.7219 L135.5458 52.3339 L136.6412 52.2688 L137.1606 52.5996 L137.484 52.7964 L137.7565 52.9626 L137.9239 54.7867 L138.3987 56.1013 L137.8556 56.4321 L137.4768 56.4533 L136.9009 56.4847 L136.6227 57.1478 L136.2352 57.3642 L135.5751 57.7326 L135.0746 56.9189 L135.0274 56.8421 L134.6004 56.2652 L134.3139 56.1021 L133.9079 56.1805 L133.3223 56.2558 L133.2304 56.7951 L132.9584 57.2301 L131.3903 58.6639 L130.0722 59.8405 L128.3788 61.54 L127.6792 61.9938 L127.0202 62.9682 L126.4402 63.7999 L126.2313 64.5979 L125.7837 65.4108 L124.7766 65.207 L123.9282 65.1153 L123.3112 65.0871 L122.9493 65.0643 L122.9262 65.0314 L122.6403 64.6183 M127.7182 45.4958 L127.7809 45.1007 L128.0185 44.229 L128.0642 43.6513 L128.2213 43.3612 L128.4096 42.8768 L128.7977 42.2559 L129.2725 41.7416 L129.9264 41.3277 L130.0486 41.1184 L130.0983 40.8942 L130.1728 40.5477 L130.258 40.0938 L130.76 39.4878 L131.5556 38.7705 L131.8923 38.4421 L132.6386 37.9082 L133.2196 37.2152 L134.1035 36.2275 L134.2441 35.8151 L135.2101 35.8276 L136.8059 34.8313 L138.5367 33.4609 L139.3657 33.2273 L140.5432 33.1183 L141.8577 33.0313 L142.4972 32.9725 L144.2008 32.5633 L144.5314 32.8581 L144.4677 33.1685 L144.6315 33.3371 L144.9487 33.4852 L145.3023 33.8772 L145.5502 33.8827 L145.7063 33.6632 L145.9958 33.3527 L145.9912 32.9694 L145.9978 32.8361 L146.064 32.4833 L146.1025 32.2105 L146.6071 32.4144 L147.0116 32.5782 L147.1856 32.8275 L146.757 33.9556 L146.8776 34.5036 L147.2025 35.4294 L147.0316 35.7994 L147.3724 36.8225 L147.6137 37.7216 L147.7969 37.8753 L147.9894 38.2382 L148.1726 38.4617 L148.5663 38.4468 L148.9934 38.4076 L149.2274 38.9595 L149.1622 39.3263 L149.2474 39.7928 L149.3727 40.1565 L149.7777 40.4168 L149.8439 40.6794 L149.8967 41.2548 L149.9342 41.7401 L150.0364 42.4668 L149.8274 42.5781 L149.7279 42.7215 L149.715 42.8932 L149.616 43.0437 L149.3255 43.1841 L148.865 43.3181 L148.5458 43.3056 L148.0705 43.2005 L147.3431 43.3526 L146.6707 43.5635 L146.3987 43.6732 L146.3659 43.9311 L146.4187 44.1248 L146.6328 44.3027 L146.6312 44.5152 L146.4808 44.5716 L146.295 44.4689 L146.0707 44.1781 L145.8054 43.8269 L145.6124 43.6466 L145.3362 43.6364 L144.9723 43.6701 L144.4836 43.7297 L143.9632 43.8269 L143.5946 43.8896 L143.3118 44.0362 L143.1368 44.2079 L142.9761 44.378 L142.7051 44.4242 L142.488 44.4446 L142.1538 44.4187 L141.7709 44.4752 L141.675 44.7394 L141.4388 44.7817 L141.2058 44.7825 L140.9641 44.6845 L140.7993 44.5794 L140.7151 44.3529 L140.5283 44.3207 L140.3389 44.3309 L140.2598 44.4728 L140.0571 44.6476 L139.8492 44.766 L139.6572 44.748 L139.4411 44.5489 L139.1537 44.4195 L138.816 44.3513 L138.5778 44.2957 L138.5218 44.1451 L138.4023 43.9225 L138.3073 43.7328 L138.0702 43.6842 L137.8782 43.7516 L137.7216 43.9641 L137.4178 44.2682 L137.1247 44.309 L137.0621 44.2369 L136.8306 44.1028 L136.7474 43.8128 L136.4877 43.674 L136.0802 43.8465 L135.6269 43.9876 L135.187 44.113 L134.7913 44.3403 L134.2657 44.4595 L133.8397 44.5841 L133.4342 44.784 L132.8547 45.0858 L132.5051 45.118 L132.1104 45.0482 L131.8646 45.0639 L131.3384 45.4096 L130.4443 45.7396 L129.101 46.0266 L128.3593 45.6346 L127.959 45.6573 L127.7182 45.4958 M183.9778 49.348 L184.0527 48.9302 L184.2467 48.6644 L184.6918 48.5884 L185.127 48.6401 L185.5248 48.5116 L185.8697 48.1964 L186.382 47.8523 L187.3116 47.5967 L188.6204 46.8599 L189.6106 46.188 L190.6002 45.8141 L191.696 45.5288 L192.3299 45.2795 L192.6569 45.2285 L193.4474 45.4598 L195.4907 45.3422 L196.5276 45.0984 L196.8787 44.6194 L197.4253 44.2651 L198.1891 43.8198 L200.6143 43.1715 L200.97 42.9685 L200.62 42.2292 L200.2663 42.4527 L199.8932 42.6925 L198.921 43.0226 L197.9797 43.1519 L197.6434 43.1833 L197.1866 43.126 L196.9192 42.4425 L196.7816 42.0944 L196.2412 42.1297 L195.5667 42.3194 L194.9518 42.3053 L194.1957 41.6813 L193.7271 41.1937 L193.1137 40.5069 L192.5974 40.1079 L192.7729 39.5607 L192.9315 39.44 L193.2112 39.4141 L193.5018 39.3452 L193.7225 39.2895 L193.6249 39.0724 L193.6727 38.9759 L193.4299 38.7925 L193.0608 38.8481 L192.7626 38.8333 L192.5963 38.4021 L192.409 37.8957 L192.8319 37.8141 L193.2118 37.8 L193.5531 37.9035 L193.8154 37.9145 L194.3204 37.8823 L195.5005 37.7381 L198.8687 37.5978 L199.75 37.6652 L200.099 37.5413 L200.2283 37.3383 L200.138 37.198 L200.0384 37.1149 L199.2911 37.2756 L198.4339 37.3195 L197.937 37.2168 L197.4217 37.0584 L196.3531 36.8742 L196.3315 36.4085 L196.8735 36.3944 L197.7589 36.5034 L198.2748 36.5834 L198.8199 36.6821 L199.1771 36.6492 L199.5323 36.6727 L199.8947 36.5473 L200.2797 36.512 L200.5409 36.5097 L200.7432 36.6398 L201.4269 37.3979 L202.1634 38.2712 L202.2014 38.5299 L202.1804 38.9211 L202.1891 39.168 L202.4211 40.4709 L202.4416 41.3113 L202.8045 42.651 L203.0442 43.188 L203.1063 43.4796 L203.0601 43.8237 L200.777 48.4159 L200.446 49.1191 L200.2432 49.9093 L200.1252 50.9331 L200.0882 51.5312 L200.137 52.4037 L200.041 53.6375 L199.791 54.8361 L199.7392 55.1426 L199.4656 56.7559 L199.2757 57.1486 L199.0303 57.3305 L198.3174 57.8596 L198.3005 57.9059 L198.0741 58.5197 L196.3628 58.5635 L195.1396 58.8465 L194.8738 58.6443 L194.8117 58.3527 L194.8635 58.1951 L194.8835 58.134 L194.6284 58.0438 L193.4417 57.6503 L191.6719 57.3603 L189.9555 57.5821 L187.7946 58.2625 L186.7629 58.3919 L186.5103 58.424 L186.033 57.5265 L185.9791 56.7096 L185.8071 56.2942 L185.7317 55.8552 L185.6187 55.4687 L185.3308 54.561 L185.2825 54.1902 L185.2589 54.0459 L184.9777 52.3284 L184.49 51.8236 L184.3617 51.6911 L184.1738 50.9103 L183.988 50.1374 L183.9778 49.348 M213.7303 479.0923 L214.2497 478.754 L215.0587 478.4251 L215.9112 478.2685 L216.9578 478.0665 L217.4998 477.9036 L218.0953 477.6296 L218.451 477.5121 L218.7943 477.4871 L219.1049 477.7204 L219.3564 478.0086 L219.7357 478.0657 L220.7484 477.4205 L221.9244 477.1707 L223.2989 476.1676 L224.7536 475.5741 L225.5009 475.3423 L226.0306 474.9688 L227.0115 474.2061 L228.0001 473.2954 L228.866 472.5859 L230.8037 471.3401 L231.5351 471.0112 L232.4077 470.6056 L232.7711 470.4944 L233.173 470.6478 L233.4296 471.2187 L233.4727 471.6102 L233.7242 472.0472 L234.1698 473.1442 L234.2683 473.6023 L233.9604 474.0126 L232.7233 474.9821 L231.9729 475.495 L232.0833 475.769 L232.304 475.8693 L234.4362 474.358 L235.0372 473.9915 L235.4484 473.5506 L235.9693 473.3893 L236.6972 473.6407 L237.0113 473.7597 L237.4163 473.56 L238.6928 472.3322 L240.4503 471.0394 L242.0066 469.7857 L242.6918 469.2563 L243.0316 468.9635 L243.0275 468.6878 L242.7775 468.4983 L242.0564 468.247 L241.773 468.308 L241.4425 468.395 L241.0827 468.626 L240.3179 469.1279 L239.7533 469.6612 L239.1979 469.9102 L238.3879 470.232 L238.022 470.4709 L237.3645 470.6799 L236.8604 470.6416 L236.5242 470.2829 L236.3481 469.6698 L236.5309 469.0449 L236.9035 468.6502 L237.4876 468.0943 L237.9968 467.7293 L239.3124 466.8445 L240.6387 465.8523 L242.217 464.0669 L243.7974 462.6135 L244.4924 462.1178 L246.1827 460.9369 L246.8258 460.5665 L247.2847 460.7294 L247.24 461.3982 L247.3376 461.7717 L247.6445 462.3512 L247.6897 462.998 L247.0075 463.7889 L246.4403 464.1382 L246.197 464.6409 L246.3454 465.1084 L246.6015 465.5164 L247.0861 465.9596 L247.1199 466.2533 L246.0662 467.2979 L244.6105 468.5704 L242.8812 470.1725 L240.7988 471.9195 L238.9135 473.2813 L238.1636 473.9437 L237.81 474.549 L237.3901 474.8145 L235.8995 475.6304 L234.7693 476.5333 L233.5574 477.3163 L231.8302 478.0133 L231.069 478.2458 L230.0276 478.8856 L229.1981 479.5277 L228.4908 479.9677 L228.1294 480.3334 L228.2531 480.8385 L228.5899 481.2809 L228.9723 481.2245 L229.5471 480.804 L230.0276 480.5049 L230.4926 480.194 L230.8986 480.1635 L230.8755 480.4485 L230.1831 480.9716 L228.8208 482.497 L228.1171 483.2056 L227.6228 483.6613 L227.0659 483.5071 L226.4063 483.002 L225.7221 482.8462 L225.4511 482.6591 L225.3675 482.3623 L225.331 481.9629 L225.4547 481.6192 L225.7673 481.4132 L226.0204 481.2488 L226.2775 481.0554 L226.4099 480.6545 L226.6163 480.0554 L226.9597 479.7266 L227.4745 479.2622 L227.647 478.978 L227.7378 478.8276 L227.686 478.6295 L227.6511 478.4964 L227.5848 478.4604 L227.2425 478.2724 L226.5896 477.8379 L226.5018 477.675 L226.2667 477.238 L225.7986 476.6218 L225.832 475.6445 L224.2105 476.1895 L219.8045 478.8934 L217.7493 479.7046 L215.865 480.2246 L214.878 479.9168 L213.7903 479.9771 L213.7303 479.0923 M232.3512 162.3614 L233.4445 161.178 L236.6063 156.4759 L232.7259 154.164 L237.8228 148.5056 L241.3337 150.4806 L242.0266 154.3834 L245.6966 154.2737 L251.7328 147.9649 L250.4393 145.7861 L251.4659 147.2439 L251.9227 147.91 L254.2941 151.7345 L253.1033 152.4555 L246.1585 157.4947 L245.1268 156.3348 L244.0951 155.175 L236.1392 161.7658 L232.3512 162.3614 M260.6357 264.1478 L260.7615 263.7467 L260.9596 263.5547 L261.4416 263.3691 L261.98 263.514 L262.7407 263.8438 L263.4783 264.4314 L264.0563 264.5646 L264.454 264.9948 L264.0681 265.4625 L263.9459 265.7728 L263.2997 265.497 L262.6806 265.146 L262.153 264.9008 L261.5499 264.556 L261.0746 264.4408 L260.6357 264.1478 M264.8056 429.5215 L265.0561 428.3531 L267.1426 426.8087 L266.809 422.593 L268.9371 422.0087 L269.8974 423.7199 L270.3147 425.6402 L270.0642 426.7249 L268.8539 427.8519 L266.7669 429.563 L264.8056 429.5215 M265.8122 300.1212 L265.9806 299.2641 L266.1479 298.8599 L266.3578 298.2958 L268.3242 296.9687 L269.7912 296.501 L270.3147 296.6726 L270.6386 296.5864 L270.8788 296.5143 L271.2566 295.7866 L271.7396 295.5155 L272.1933 295.3823 L272.6815 295.3228 L273.3806 295.3298 L273.7234 295.1426 L273.9832 295.1966 L274.4061 295.2852 L274.8604 295.2358 L275.7232 295.1073 L276.8683 295.2852 L277.7153 295.1363 L278.7593 295.5218 L279.2202 296.4767 L279.829 297.0361 L280.2853 297.5531 L280.3628 298.1689 L280.3972 298.7808 L280.679 299.3918 L281.0131 299.807 L281.0439 300.1431 L281.027 300.5763 L280.9628 300.8795 L280.8098 301.2117 L280.8001 301.5665 L280.8781 301.9559 L281.2087 302.3358 L281.2312 302.5811 L281.2487 303.0041 L281.5793 303.7656 L282.6115 304.6406 L282.7757 304.8161 L282.7403 305.6614 L281.954 306.632 L281.9011 307.4436 L282.2835 308.0734 L282.4775 308.6563 L282.3856 309.1177 L282.3045 309.4647 L282.5422 309.981 L282.4118 310.7142 L281.8867 311.2227 L281.609 311.6786 L280.9736 312.035 L281.222 312.6703 L281.993 313.1576 L282.8753 313.395 L283.0621 313.4349 L282.9918 313.6676 L282.8876 313.995 L282.3918 314.1259 L282.1285 314.5606 L282.4544 315.1952 L282.9846 315.6699 L283.5097 315.8626 L283.7474 315.9895 L283.8572 316.1916 L283.7987 316.4016 L283.4943 317.1583 L283.5374 317.7067 L284.2427 318.172 L284.4962 318.6295 L284.1934 319.4074 L284.2458 319.9824 L284.3736 320.8409 L284.0897 321.8225 L283.8233 321.9956 L283.4938 321.9408 L283.2936 321.987 L283.0873 322.1264 L282.8758 322.2807 L282.7968 322.493 L283.0714 322.7226 L283.2803 322.9999 L283.094 323.972 L282.9297 324.4115 L282.9646 325.2575 L283.2213 325.8278 L283.8285 326.1474 L284.5404 326.1388 L285.1589 326.1944 L285.6768 326.1474 L285.9139 326.2743 L286.013 326.5054 L285.858 326.8947 L285.3539 327.5567 L284.5825 328.0658 L283.1843 328.4348 L279.8741 329.1845 L274.5929 330.4409 L272.7497 330.4973 L272.5665 329.8777 L272.1215 329.0975 L271.8084 328.3768 L272.3135 327.729 L272.527 327.2073 L272.3874 326.9159 L272.0984 326.6096 L271.6174 326.0526 L271.3141 325.2035 L271.3023 324.2282 L271.1062 323.086 L270.6222 320.3364 L270.3902 319.8061 L270.5493 318.6099 L270.2177 316.7588 L270.2033 316.06 L270.0021 314.0906 L269.5587 311.478 L268.8057 308.7957 L268.2056 306.6908 L268.1938 305.576 L267.7303 304.0593 L267.7344 303.5595 L267.4609 302.5239 L267.2899 302.3202 L266.8377 302.3523 L266.596 302.3695 L266.269 301.1835 L265.8122 300.1212 M271.3967 428.6937 L272.471 427.5464 L276.4254 426.3255 L276.2899 425.439 L277.3334 424.6871 L278.6268 423.7904 L280.6097 422.5906 L286.3898 426.9097 L287.308 427.4524 L286.3584 427.7344 L285.8056 427.797 L284.3135 427.9638 L282.8004 428.0265 L280.7554 428.4643 L279.2007 429.195 L276.1128 429.4456 L274.558 429.2466 L271.7093 429.5599 L271.4907 429.3093 L271.3967 428.6937 M272.9977 331.8964 L283.5657 329.5041 L284.2868 328.6165 L285.7954 328.3713 L286.1085 329.0223 L286.4734 329.8519 L286.9503 330.126 L287.4964 330.2388 L287.6345 330.5161 L287.7623 330.907 L287.3722 331.5024 L287.1936 331.9426 L287.3198 332.3202 L287.3039 332.9939 L287.6432 333.6981 L288.1909 333.9809 L288.7052 334.4352 L288.95 335.2616 L289.2713 335.77 L288.6975 337.0539 L288.3972 337.6257 L288.0174 338.5665 L287.7084 339.4289 L287.2505 340.2851 L287.1284 340.5718 L287.2495 340.893 L287.5549 340.9925 L287.9091 341.2431 L287.8752 342.3351 L287.6494 343.2617 L287.3696 343.5986 L287.4153 344.0968 L287.9353 345.0038 L287.5323 346.7671 L287.5677 347.6193 L288.1898 348.9486 L288.1395 349.399 L287.6601 350.4048 L287.0888 352.0278 L287.2013 353.6445 L287.6319 355.2424 L286.6418 356.4761 L286.3749 355.0466 L286.2563 350.7886 L286.6638 350.2348 L286.6392 349.9614 L286.7049 349.6794 L286.4837 349.417 L286.1962 349.1319 L285.9232 348.3791 L285.6763 348.0689 L285.6429 347.7047 L285.7759 347.1548 L285.7615 346.3778 L285.4469 344.5534 L285.5952 344.172 L284.9007 343.0542 L284.7565 342.3876 L284.3587 343.5289 L282.8712 343.8492 L281.2318 344.1978 L275.8551 345.1801 L274.4836 339.5128 L274.2783 338.4208 L274.3106 337.3852 L273.7388 335.6055 L273.3267 333.1043 L272.9977 331.8964 M279.7032 419.6765 L280.296 419.4353 L281.7615 420.6625 L289.7815 427.3898 L290.4355 427.8894 L289.6907 428.3437 L288.0738 427.7438 L286.4206 426.8173 L281.3524 423.0934 L280.2078 422.0761 L279.7032 419.6765 M280.2996 419.4345 L280.95 418.8142 L281.5623 418.515 L282.1634 417.6105 L282.5961 416.9808 L283.1725 414.9994 L283.8803 414.0588 L284.7775 411.8447 L284.5963 410.7232 L284.8745 410.3669 L285.202 410.1225 L288.2016 409.7936 L288.8525 409.1811 L289.2842 408.5836 L289.508 408.2703 L289.0773 407.3445 L288.8525 407.1636 L288.6744 407.0383 L288.2078 406.4564 L287.9096 405.5299 L287.908 405.2566 L288.756 404.6645 L289.3786 403.7387 L289.5449 403.2649 L289.9432 402.0987 L291.8167 398.6197 L292.5096 397.6086 L293.7041 395.2088 L294.0782 394.1483 L294.0274 392.7315 L293.6301 391.8206 L292.4588 388.4543 L291.6868 387.2137 L291.4759 386.4477 L290.6023 384.8796 L290.1444 383.1597 L289.9453 381.2446 L290.1706 380.094 L290.6023 379.0797 L290.9831 377.72 L291.0493 376.9548 L290.8625 375.335 L290.9826 374.5251 L291.3152 374.1249 L291.4887 374.1084 L291.7341 374.2424 L291.9794 374.5894 L292.2987 375.3201 L292.3813 375.7995 L292.871 377.1185 L293.4777 380.9979 L293.7795 381.9636 L294.5197 383.6883 L296.1345 386.0529 L298.1183 388.2084 L299.0099 388.8279 L302.1142 390.2761 L303.1741 390.6074 L305.3761 391.5355 L306.6337 391.9068 L307.4236 392.2631 L308.2592 392.4785 L309.6205 392.9187 L310.1127 392.99 L310.6979 393.2288 L312.4687 393.6894 L312.4949 393.7646 L312.8942 393.8836 L314.0275 394.5979 L316.4241 395.7414 L317.2017 395.9623 L319.5818 396.0751 L320.8044 396.4894 L321.076 396.6977 L322.313 397.0517 L323.3847 396.8755 L324.2722 396.3852 L325.1037 396.133 L325.1863 396.1847 L326.0897 396.0821 L326.6169 395.6827 L327.6214 394.558 L328.0874 394.493 L328.5915 394.547 L329.0837 394.6833 L329.597 395.0757 L329.8008 395.4861 L329.9989 396.5231 L329.8331 397.2969 L329.4009 397.8819 L328.2578 398.98 L327.5089 399.9253 L326.7164 401.6734 L326.6538 401.8355 L326.0286 402.4378 L325.7889 402.5772 L324.6489 402.8568 L323.7086 402.9822 L319.0993 403.1325 L317.4547 402.9915 L315.6772 402.4535 L313.8099 402.0016 L311.1501 402.0118 L310.7974 401.7713 L310.722 401.5834 L310.354 401.169 L309.9808 400.9114 L309.678 400.9975 L309.5188 401.1683 L309.332 401.8865 L309.1113 402.2381 L308.9224 402.2945 L308.502 402.1574 L308.29 401.9624 L308.232 401.7533 L307.3333 401.057 L307.1793 401.0711 L306.8724 400.9043 L305.5553 400.7336 L304.6293 400.7986 L303.9425 400.9396 L302.6804 401.3672 L302.2338 401.5834 L301.2098 402.0674 L300.058 403.0691 L299.3004 403.9181 L298.4796 405.143 L297.9253 406.5183 L297.7544 407.4103 L297.7641 408.7927 L297.6635 409.8147 L297.5255 410.2173 L297.4854 410.8446 L297.2493 411.6646 L297.1677 412.4713 L296.869 413.6672 L296.6565 415.167 L296.6678 416.0097 L296.4737 416.9957 L296.2048 418.3059 L296.0251 418.6732 L295.8188 419.393 L295.5493 419.8464 L294.669 420.6288 L294.0459 421.0368 L293.2652 421.8482 L292.968 422.4215 L292.4542 424.0269 L292.332 424.1742 L292.0364 424.9808 L291.2701 426.1618 L290.5058 426.9332 L290.0295 427.2496 L289.7774 427.382 L281.762 420.6617 L280.2996 419.4345 M282.495 296.9538 L282.6782 296.4916 L283.1047 296.2966 L285.084 295.8743 L286.166 295.5977 L288.2838 295.1489 L292.7191 294.0481 L295.0458 293.4167 L295.8824 293.3117 L297.0758 292.9404 L297.5624 292.7046 L298.069 292.5377 L299.7028 292.041 L301.5126 291.542 L302.5428 291.4691 L303.3754 291.3924 L303.9533 291.3814 L303.9564 291.3461 L304.7705 291.3775 L306.0172 291.3547 L309.6051 291.8875 L311.5509 292.0849 L315.2825 292.4711 L320.536 293.1488 L322.5865 293.3572 L324.7844 293.94 L324.8178 295.5429 L324.9831 296.5042 L325.2993 298.4987 L325.3614 299.1795 L325.5759 299.5203 L325.79 300.3993 L325.6904 301.0095 L325.675 301.3785 L325.7592 302.3829 L325.4563 302.6939 L325.4081 303.0166 L324.7264 303.5102 L324.6633 304.0538 L324.7947 304.643 L324.5601 305.1671 L323.9894 306.2521 L323.7235 306.8216 L323.3349 306.8921 L322.7775 306.8866 L322.3284 306.914 L322.2996 307.6026 L323.5546 307.8275 L323.3765 308.9681 L323.3277 309.4397 L323.5623 309.9982 L323.2708 311.0581 L322.8971 311.4459 L322.8016 311.865 L322.6605 312.1753 L322.6502 312.8341 L322.2714 313.6323 L322.0348 313.9018 L321.9203 314.2661 L321.8289 314.8897 L322.3191 315.1004 L323.1455 315.0166 L323.4668 315.214 L323.5875 315.7616 L323.3272 316.1603 L322.9905 316.5661 L322.9104 316.9272 L322.8766 317.1708 L322.8586 317.3636 L322.8576 317.5986 L323.0377 317.7004 L323.2425 317.7028 L323.5187 317.7129 L323.7686 317.7466 L323.8128 318.2307 L323.6403 318.7415 L322.7339 320.8621 L322.0938 322.428 L321.9183 323.5968 L322.1595 325.2371 L322.3366 326.5579 L322.8991 327.1571 L323.7461 328.1692 L324.2275 329.1931 L324.8547 330.8115 L324.8116 331.2682 L325.0791 331.4139 L325.2987 331.5776 L325.348 332.1181 L326.2991 333.1129 L326.3725 333.608 L326.1898 333.8446 L326.0332 334.219 L325.9973 334.5974 L325.9737 335.1089 L326.2483 335.6502 L326.911 336.1828 L327.433 336.5737 L327.6188 337.1369 L327.6634 337.6281 L327.7261 337.9265 L327.5454 338.5798 L327.4391 339.1125 L327.278 339.7431 L327.4976 341.1444 L327.6783 342.274 L327.8883 343.4145 L328.1434 344.5871 L328.5109 344.9067 L328.9857 347.0209 L329.1515 347.5997 L328.9395 347.9797 L328.978 348.4011 L329.1448 348.7606 L328.5093 352.0795 L328.3733 353.8317 L328.2085 355.9693 L328.1197 357.3918 L328.168 359.4675 L328.053 359.7534 L327.8831 359.9633 L327.7548 360.1208 L327.0716 360.5931 L326.3756 360.7709 L324.3343 361.1273 L321.9496 361.7359 L320.1146 362.2646 L310.2159 364.2346 L309.9387 362.202 L309.5835 358.7751 L308.9358 353.6852 L308.4553 349.4288 L308.2228 346.8822 L306.4022 342.3335 L305.9669 342.4134 L304.3059 342.8419 L302.6465 343.1294 L301.334 343.4333 L300.5205 343.7129 L299.4831 343.5539 L295.6556 344.4289 L293.4772 344.9051 L293.5213 344.7266 L296.4737 339.2535 L296.6529 335.3462 L296.3351 336.345 L295.8788 338.1482 L294.7204 340.3697 L294.377 341.2431 L293.7518 342.4252 L293.1235 343.7349 L292.4999 344.8605 L292.119 346.0198 L292.3064 346.6042 L292.1047 348.7943 L291.9553 349.3246 L291.6535 350.5755 L291.1653 351.1019 L289.9771 352.9936 L289.3442 353.8435 L288.7652 354.1654 L288.5958 352.9294 L288.6 351.5852 L289.8057 351.2688 L290.0289 350.704 L290.0823 350.2105 L290.052 349.8737 L289.7774 349.4186 L289.4007 348.3071 L289.1902 347.3922 L289.3545 346.3308 L289.4849 345.3634 L289.2036 344.5268 L289.3622 343.5571 L289.4587 342.8411 L289.6204 341.9841 L289.6337 341.3606 L289.3032 340.9807 L289.1615 340.3572 L289.3334 338.9973 L290.013 337.8662 L290.2065 336.8941 L290.3508 336.392 L290.3569 336.0732 L290.3544 335.8899 L290.2866 335.535 L290.4509 335.2444 L290.6593 334.9773 L290.6161 334.1963 L290.2522 333.5367 L290.1357 332.8756 L289.9689 332.5152 L290.2984 332.1886 L290.881 332.0006 L290.7732 330.6658 L290.4919 330.4441 L289.8929 329.6012 L289.4115 329.4257 L288.854 329.8096 L287.6807 329.2456 L287.4779 328.5711 L287.7258 328.1168 L288.2165 327.7744 L288.6164 327.3585 L287.6683 327.4854 L287.6837 326.0338 L287.2813 325.1016 L286.9934 324.887 L286.0684 325.0288 L285.3909 324.7162 L284.8509 323.5138 L284.9839 322.7304 L284.8843 321.8765 L284.8186 321.3877 L285.1353 320.5307 L285.1502 319.6878 L285.4243 318.9828 L285.8195 318.4446 L285.9427 317.3228 L285.586 317.0439 L285.0311 316.5293 L285.1291 315.9825 L285.4633 315.5485 L284.7514 314.0859 L284.2699 312.6797 L283.6611 312.7291 L283.2572 312.2497 L283.2177 311.5814 L283.9091 311.1992 L284.0974 310.1706 L283.8942 308.3351 L283.6611 306.8639 L284.1719 305.6575 L284.2663 304.2975 L284.7087 304.1996 L285.3196 303.9387 L285.3991 302.9547 L284.2062 302.3288 L283.8716 302.2183 L283.2895 300.3264 L283.0529 299.3573 L282.6684 298.006 L282.495 296.9538 M283.0118 125.757 L283.4358 125.3 L284.0266 124.7365 L284.3361 124.5735 L284.9587 124.0491 L285.8621 123.35 L287.1073 122.2308 L288.0266 121.8632 L288.8694 121.1986 L290.8302 120.0276 L292.0544 119.1365 L293.393 118.2634 L293.6604 117.9412 L293.6219 117.5204 L293.3509 117.3401 L293.0609 117.2531 L292.5389 117.6411 L292.0364 118.2461 L291.2552 118.8841 L290.1521 119.7141 L289.0465 120.4321 L287.9122 120.918 L286.417 122.2449 L284.8684 123.0593 L284.311 122.7497 L284.1482 122.0498 L284.5301 121.5192 L285.0306 120.9705 L286.9852 119.3473 L287.4004 118.9484 L287.7258 118.4029 L287.7494 118.3637 L287.9188 118.243 L289.8303 116.8847 L292.7227 114.6298 L293.5388 113.6775 L294.0746 113.0136 L294.4771 112.5151 L295.1582 111.7807 L295.7269 111.2823 L296.4573 110.5502 L297.4023 109.8471 L299.3584 108.1596 L300.9665 106.9863 L301.0414 106.9479 L302.0788 106.4165 L302.919 105.8796 L303.8522 105.1992 L304.7083 104.9931 L305.5958 104.9751 L306.3416 105.5653 L306.8554 106.1688 L309.6328 108.144 L312.4707 110.0062 L314.2082 111.0291 L315.2127 111.5174 L316.3491 111.6749 L316.8419 111.8913 L317.0287 112.157 L316.9953 112.8749 L316.8994 113.139 L316.5421 113.632 L315.8425 114.241 L314.5177 114.5749 L312.421 115.5155 L311.378 115.4292 L309.7539 116.1166 L307.4057 116.9905 L307.0977 116.8628 L306.8785 116.4725 L306.8025 116.3855 L306.5397 116.0861 L305.4947 115.4598 L301.1349 118.9437 L300.194 117.6951 L299.7295 117.7868 L299.2788 117.8002 L298.9031 117.7006 L298.5243 117.884 L298.1701 118.1779 L297.8498 118.533 L297.5752 119.004 L297.1718 119.53 L296.3916 120.0331 L295.7459 120.5316 L293.8498 122.0286 L291.8105 123.4198 L290.6218 124.47 L289.7359 125.3369 L287.4718 127.2226 L287.0652 127.4859 L286.3451 127.482 L284.8689 127.0792 L283.9008 126.7939 L283.2254 126.3949 L283.0565 126.014 L283.0118 125.757 M302.5767 126.1676 L302.9514 125.7084 L304.037 125.0782 L305.314 124.2247 L306.1984 123.3226 L306.7214 122.5451 L306.9622 121.5607 L306.9381 120.9117 L306.7723 120.4101 L306.8241 119.74 L307.2722 119.1616 L307.8127 118.6655 L308.4066 118.1372 L309.4886 117.5423 L310.5947 116.9027 L313.1585 116.0727 L314.1451 115.8266 L314.6219 116.1009 L315.1234 116.416 L314.6999 117.8205 L313.8741 120.6601 L312.9656 121.6109 L311.8943 122.6368 L311.1567 123.2137 L310.8765 123.3688 L310.1291 123.7827 L309.3643 124.2208 L308.3342 124.9951 L307.4349 125.5798 L306.4304 126.1747 L305.9223 126.5611 L305.1811 127.018 L303.8712 127.9805 L303.4051 128.2078 L303.0094 127.4303 L302.7656 126.7657 L302.5767 126.1676 M315.5694 122.1509 L315.6156 121.8068 L315.686 121.6516 L315.8133 121.498 L316.2485 121.2386 L316.8373 120.6539 L317.0477 119.8701 L316.8439 119.6483 L316.5544 119.5691 L316.2347 119.3857 L316.0047 119.265 L315.7234 118.9656 L315.6536 118.7454 L315.7691 117.6873 L315.8122 117.1598 L315.863 116.4756 L315.9087 116.1245 L316.3491 115.6174 L316.6304 115.6832 L316.943 115.9379 L317.2315 116.003 L317.4819 115.8885 L317.794 115.5202 L318.1815 115.2012 L318.3699 115.0993 L318.6743 114.8798 L318.8262 114.3774 L319.1244 114.2442 L319.5736 114.2951 L320.0679 114.6815 L320.8942 115.6174 L321.2284 116.2663 L321.3921 116.4348 L321.4768 117.1285 L321.9896 117.2578 L323.0095 119.0754 L323.8959 120.6711 L324.2788 121.6203 L324.5683 122.1595 L325.1001 123.5828 L325.4307 124.2388 L325.8844 125.1386 L322.2026 128.3292 L320.3748 129.8771 L320.152 130.2228 L319.9478 130.4156 L319.7039 130.646 L319.4494 130.6413 L319.2872 130.6421 L319.0521 130.4657 L318.8447 130.2016 L318.6866 129.9398 L318.4515 129.5299 L318.218 129.3669 L318.0717 129.2321 L317.7191 129.0801 L317.369 128.957 L317.0179 128.6631 L316.9815 128.1145 L317.0508 127.4789 L317.8541 126.9232 L320.3286 124.8846 L321.8418 123.6839 L323.4673 122.317 L323.3318 122.0678 L323.0239 122.1744 L322.6153 122.2614 L322.4054 122.2802 L321.9793 122.6384 L321.8243 122.9495 L321.7109 123.2497 L321.2007 123.6933 L320.421 124.2741 L319.7081 124.8917 L318.9946 125.4246 L318.3027 125.9623 L317.8402 126.3871 L317.3741 126.6912 L317.0477 126.9835 L316.6632 127.2524 L316.1772 126.6457 L315.6613 125.8651 L315.7583 125.3039 L315.5869 124.5837 L315.7671 123.8524 L315.8405 123.4989 L315.8405 123.187 L315.7568 122.7348 L315.5694 122.1509 M317.2417 412.6185 L317.3649 412.1118 L318.566 411.5988 L319.5879 411.2785 L319.8785 410.6794 L321.0118 409.9596 L321.4758 409.4012 L322.0651 409.2125 L322.2745 409.2767 L322.6522 409.3918 L323.2009 409.8367 L323.7866 410.0732 L324.9276 409.5155 L326.022 409.2242 L326.4685 409.1686 L330.6759 407.2059 L331.3529 406.7485 L332.0438 406.281 L332.7373 406.2246 L332.9626 406.6475 L333.8352 408.2875 L334.1514 409.2845 L334.7832 410.1037 L335.4181 411.2613 L335.3473 412.1878 L335.2539 413.0164 L334.9367 413.4064 L334.6954 413.7659 L333.4851 416.9769 L332.6002 419.0241 L332.342 418.9771 L332.1916 419.1815 L332.2096 419.6115 L332.3241 420.1738 L332.4375 421.0259 L332.2948 421.9375 L332.1465 423.019 L330.8833 425.3646 L329.5616 427.4705 L328.9035 428.126 L327.1928 428.9334 L326.5994 428.2239 L325.7817 427.1556 L322.6517 421.903 L321.8536 420.2646 L320.9363 417.789 L320.4077 416.9393 L319.957 416.1741 L319.7378 415.5507 L318.7426 414.8427 L317.6092 413.7095 L317.2417 412.6185 M323.3293 322.5197 L323.7861 321.806 L324.0633 320.3584 L324.247 319.5139 L324.3769 318.9663 L324.458 318.7305 L326.3859 318.3725 L329.1556 317.8821 L331.1435 317.4027 L332.5022 317.1434 L334.1134 316.7901 L341.2393 315.337 L343.797 314.6852 L344.1486 314.6742 L344.3323 314.6789 L344.5515 314.8427 L344.6927 315.1482 L345.5196 319.2671 L347.0445 326.6691 L349.7809 340.0055 L352.433 353.3155 L351.6472 354.2171 L351.6225 354.2453 L351.042 354.3636 L347.7585 355.0317 L347.1626 355.3012 L346.6611 355.5283 L343.6384 356.18 L343.5121 356.184 L340.6778 356.2748 L339.9889 356.2255 L339.604 356.4871 L339.2498 356.7033 L338.5327 357.0377 L337.7505 357.2015 L337.1592 356.2866 L336.996 355.3466 L336.6649 353.3398 L335.7651 351.286 L334.8145 350.3766 L334.3762 349.7444 L334.2201 347.0287 L334.2884 346.3081 L333.7299 344.2863 L333.5816 343.0479 L333.3357 342.8231 L332.8717 343.0706 L332.4668 342.2661 L332.2927 341.4405 L332.1788 340.8139 L331.5588 339.5057 L330.4152 337.7926 L329.8896 337.1338 L329.5734 336.3771 L328.8286 334.9389 L328.4308 333.9002 L328.4955 332.5223 L327.8205 331.5439 L327.4458 331.0692 L326.8868 330.2012 L326.4608 329.4759 L326.0199 328.8938 L325.7258 328.5319 L325.4707 327.975 L324.9933 327.4603 L324.5658 326.8697 L324.1177 326.2884 L323.6516 325.2771 L323.436 324.3065 L323.3293 322.5197 M331.5659 131.1782 L331.606 130.9705 L331.8944 130.3701 L332.689 129.8724 L334.0092 129.4892 L334.7437 129.0323 L335.8416 129.0519 L338.4912 129.2799 L340.5079 129.4022 L340.2733 130.0041 L339.412 130.2322 L338.562 130.5857 L336.3328 131.215 L335.5552 131.5058 L333.8311 131.947 L332.5448 132.2354 L332.1773 132.2331 L331.9581 132.0693 L331.7025 131.5128 L331.5659 131.1782 M335.2292 407.4934 L335.3791 407.0297 L337.9189 402.8067 L338.638 402.3376 L338.892 402.0313 L339.082 400.9458 L339.7533 399.8023 L340.1214 398.5022 L340.6023 397.3548 L340.8389 396.9374 L342.4327 393.8335 L343.0599 393.2962 L343.584 393.1631 L343.992 393.232 L345.2439 395.4367 L345.2208 396.1886 L345.2568 396.9703 L345.6972 397.1567 L346.1406 397.2898 L346.0965 397.7496 L345.8599 398.6338 L345.9086 399.5556 L345.7588 399.8454 L345.537 400.2762 L345.0586 400.6733 L345.113 401.1142 L345.7244 401.2489 L346.3542 401.5802 L347.005 402.065 L347.449 402.6046 L347.836 403.2484 L347.7642 404.2024 L346.9239 404.8101 L345.0592 405.3983 L344.3524 406.0006 L343.4177 406.5739 L342.4696 406.9302 L341.7767 407.22 L340.4073 408.0526 L338.2771 409.8249 L336.9677 410.8579 L336.3231 410.9026 L335.8652 410.3645 L335.4212 408.8921 L335.2934 408.1959 L335.2292 407.4934 M336.6993 374.5024 L337.4256 373.7027 L338.734 373.7755 L341.6042 375.3013 L347.3807 377.554 L348.2164 378.8988 L350.3239 380.9697 L351.3048 382.75 L350.8685 383.5129 L348.1075 385.2564 L344.5105 384.2029 L342.9845 384.4935 L342.4399 383.4761 L342.2582 381.2963 L341.6766 381.4052 L340.5869 382.6043 L339.9325 383.8763 L339.315 384.4575 L338.8428 382.0232 L338.5522 380.2429 L338.3705 378.3897 L338.116 377.0817 L338.8217 376.2083 L338.4116 375.6499 L337.789 375.447 L336.8446 375.5919 L336.6993 374.5024 M346.1838 391.6663 L346.521 391.3452 L346.8151 391.2442 L347.9104 391.3342 L348.4458 391.3374 L349.9297 391.1384 L350.598 391.2786 L351.3289 391.7102 L351.9135 392.3219 L352.9986 392.8067 L354.0355 392.5318 L354.1771 392.4746 L355.3012 392.5059 L357.0058 392.3281 L358.9163 392.2451 L361.1773 391.2606 L363.3418 390.768 L364.2303 390.0975 L364.5681 390.0145 L364.8699 390.1085 L364.9617 390.5502 L364.5799 391.1674 L363.4116 392.8936 L362.2116 395.5926 L361.7121 396.9961 L361.2368 397.2734 L360.8272 397.6454 L360.742 398.4153 L359.4901 399.4476 L358.9358 399.4288 L358.6648 399.6167 L358.4389 400.0827 L354.9383 402.3572 L354.1448 403.1051 L353.5735 403.0887 L353.1798 402.7441 L352.529 401.8512 L350.9824 400.0373 L350.1309 399.4053 L348.8836 397.8404 L347.8001 396.7455 L347.4387 396.1902 L347.1231 395.6255 L346.7294 393.398 L346.2613 392.1785 L346.1838 391.6663 M360.8175 364.8549 L361.0264 364.2079 L362.0073 363.5194 L362.2783 361.4954 L363.0713 360.7231 L363.6349 360.0973 L364.2401 358.4069 L364.7616 357.0714 L365.1162 356.7377 L365.1162 358.3654 L364.8365 360.1654 L364.5947 361.6411 L364.7405 363.4983 L364.9078 365.3562 L364.8658 366.4199 L364.1564 367.8807 L363.1966 368.7157 L362.7166 369.6337 L362.1741 370.1553 L361.882 369.5295 L361.8399 368.7572 L362.2993 368.0272 L362.4872 367.3802 L361.9447 366.6079 L361.4647 365.8152 L361.0053 365.2936 L360.8175 364.8549 M367.2325 355.58 L367.3521 355.2722 L367.5492 354.9565 L368.1882 354.304 L368.6399 353.7675 L369.3021 352.5181 L369.5182 351.915 L369.861 351.5335 L369.9134 351.1043 L369.8189 349.9105 L370.5427 349.7241 L371.7982 348.951 L372.4141 348.6682 L372.7945 349.1288 L373.0839 349.5196 L373.1912 350.3868 L373.6855 351.0909 L374.2789 352.027 L374.7845 352.5463 L375.3593 353.5121 L375.5559 353.968 L376.3797 355.2652 L375.9871 356.3343 L375.5118 356.7307 L374.8907 356.4981 L374.4678 356.4236 L374.0135 355.8495 L373.1532 355.6952 L372.0199 355.5659 L371.7109 355.6576 L371.25 355.6294 L370.7737 355.5103 L370.3733 355.7586 L370.0202 356.3007 L369.9468 356.8098 L369.5654 357.6385 L368.9505 357.3323 L368.3936 357.0229 L367.9675 356.2975 L367.7094 355.9396 L367.2325 355.58 M370.2948 348.7849 L370.6802 347.9076 L370.9615 346.8916 L371.1073 346.0151 L370.7742 344.6028 L370.6453 343.8861 L370.6864 343.0189 L370.865 341.7296 L370.8748 340.9862 L370.5463 340.5562 L370.595 339.1579 L370.9184 338.9096 L371.6683 338.6284 L372.1108 338.2203 L372.4737 337.9461 L372.7683 337.6931 L372.9772 337.6665 L373.2441 337.9602 L373.1281 338.6997 L373.0511 339.8668 L373.1738 340.676 L373.4525 341.0254 L373.896 340.7802 L374.0659 340.0141 L374.0279 338.7443 L373.8308 337.9876 L374.2188 336.9732 L374.3199 335.8389 L374.4359 335.0219 L374.3661 334.4838 L374.2121 332.4886 L374.4051 332.2019 L374.7999 332.2795 L375.9358 332.8262 L376.0856 333.0738 L376.1457 336.2416 L376.1364 337.1158 L375.831 338.0205 L375.5328 342.3343 L375.1258 345.5067 L374.6628 347.1172 L373.9791 347.4995 L373.4848 347.5723 L372.4998 347.9295 L372.3448 348.3705 L371.3419 348.8233 L370.4113 349.3771 L370.2948 348.7849 M370.4703 323.0837 L370.4708 322.7798 L370.9513 322.4923 L371.5482 322.2917 L372.5214 321.828 L373.0624 321.4175 L373.453 320.7822 L373.4679 320.7579 L373.493 320.7704 L374.0951 321.0611 L374.0982 321.3297 L373.8647 321.6266 L373.741 322.1264 L373.6111 322.7962 L373.7599 323.1894 L373.8061 323.3218 L374.5915 323.7613 L375.6801 324.1726 L377.4068 324.7405 L377.8241 324.9849 L378.2666 324.9653 L378.574 324.8525 L378.6972 324.5016 L378.8907 323.5326 L378.9102 323.4354 L378.8815 322.497 L379.5221 322.099 L379.9312 322.1742 L380.1231 321.1096 L380.1822 320.6153 L380.2391 320.1375 L380.5902 319.1144 L381.2991 318.0662 L381.3314 318.0326 L381.6209 317.7255 L382.0408 318.154 L382.5946 318.3506 L382.8661 318.2339 L383.0709 318.6193 L383.3317 320.0944 L383.6607 322.2361 L383.9964 323.9031 L384.7078 326.3699 L385.4546 329.1523 L385.0265 329.5033 L384.7068 329.7657 L384.5122 329.6474 L383.9599 329.3106 L383.4271 329.4234 L382.8774 329.8895 L382.3734 330.3109 L381.0881 331.8259 L380.3433 332.5763 L379.3399 332.5638 L378.0977 332.3233 L375.7438 331.4922 L374.4416 330.5929 L373.4248 330.1911 L373.4884 329.0325 L373.4155 328.6996 L373.1132 328.3236 L372.719 328.2538 L372.6487 327.4047 L372.6846 326.326 L371.8084 325.1471 L371.0714 324.7264 L370.709 324.229 L370.5658 323.6626 L370.4703 323.0837" stroke-dasharray="" fill="none" fill-opacity="1.0" stroke="#ff0000" stroke-opacity="1.0" stroke-width="1.0px" stroke-linecap="butt" stroke-linejoin="miter" stroke-dashoffset="0.0px"/>
</g>
</svg>