<?xml version="1.0" standalone="no"?>
<!DOCTYPE svg PUBLIC "-//W3C//DTD SVG 1.1//EN" "http://www.w3.org/Graphics/SVG/1.1/DTD/svg11.dtd">
<svg width="512px" height="512px" version="1.1" xmlns="http://www.w3.org/2000/svg" xmlns:inkscape="http://www.inkscape.org/namespaces/inkscape">
<g id="layer" inkscape:groupmode="layer" inkscape:label="layer">
<path d="M0.0 176.5558 L4.9183 192.462 L4.5706 197.6431 L9.0062 205.6622 L12.7482 210.6814 L19.0307 216.49 L21.8467 220.533 L27.75 230.0086 L29.5743 233.9498 L30.9621 242.4049 L30.0351 246.8304 L30.8985 251.751 L32.5744 251.644 L34.235 251.3664 L35.2954 253.702 L38.5001 251.926 L39.3321 249.4923 L38.9603 248.9954 L39.0368 247.7825 L39.2022 247.7039 L39.9605 248.0504 L40.9708 248.6029 L41.7308 249.0777 L44.4765 250.2905 L45.6747 250.6282 L48.8373 251.2506 L51.4886 252.4078 L52.5889 253.1354 L52.8961 254.0698 L53.4158 255.3145 L54.3474 255.4046 L55.5152 255.303 L56.9278 254.8592 L59.3 254.053 L60.0279 254.1705 L60.3823 254.6682 L60.6265 256.1454 L56.943 257.4211 L55.8663 257.6253 L53.485 257.6704 L52.2874 257.3716 L47.112 256.553 L45.4323 256.0747 L44.6942 255.7017 L41.3876 256.0084 L39.4834 255.6062 L34.042 256.8164 L35.3696 271.1974 L40.9612 266.1524 L44.3185 268.274 L46.6001 268.8097 L50.188 270.865 L50.4873 273.3357 L58.8348 277.7106 L58.6429 277.2562 L58.7808 276.5693 L59.4907 275.1479 L59.3821 274.7696 L58.8168 274.2348 L57.888 274.0359 L55.8291 272.6462 L53.8181 270.9543 L52.5124 270.1684 L51.0318 269.0298 L49.9084 267.9947 L48.929 267.4298 L46.2907 265.599 L45.1797 264.9467 L42.8784 263.8638 L41.5165 263.3413 L41.0799 263.0496 L40.7126 262.3035 L40.6704 261.2188 L40.7008 260.196 L40.6552 259.4402 L40.9714 258.9708 L41.3162 258.8364 L41.665 258.862 L43.4516 259.1255 L45.011 259.716 L46.8611 260.2119 L47.5064 260.4294 L49.1484 261.1472 L49.338 261.56 L49.5968 262.5917 L49.6536 263.0735 L49.9737 263.4872 L51.4346 265.0138 L53.2876 266.369 L53.3748 267.4484 L53.7387 267.8179 L53.8152 267.8886 L56.4029 269.8908 L58.0354 270.7359 L59.9036 272.1989 L61.4011 273.2235 L63.1174 274.5061 L65.5717 276.0124 L65.8614 277.1952 L66.7638 280.0566 L67.3735 281.2279 L68.628 283.1832 L69.186 283.8214 L70.7139 284.99 L72.5168 287.5508 L73.8917 289.5212 L74.2202 292.7096 L75.9652 295.273 L77.7546 297.131 L81.6091 298.0945 L84.6373 304.8053 L86.7552 304.5586 L87.315 305.6052 L88.4322 309.8135 L90.1113 314.0474 L93.7572 315.4095 L92.9437 314.5335 L92.3947 313.7813 L91.6949 312.3671 L92.3187 310.8415 L93.2362 310.228 L94.3844 307.5304 L95.3227 307.0751 L96.9445 306.9443 L99.0743 307.0248 L103.2506 307.5746 L104.289 307.2095 L105.7719 306.2231 L106.9537 305.6777 L107.8684 305.1049 L109.0121 303.916 L112.5161 290.5209 L106.8862 288.5913 L105.0237 290.5589 L104.2631 290.7905 L103.5223 290.9311 L102.7038 291.4429 L101.172 292.0554 L100.6702 292.3189 L100.3614 292.874 L99.9102 293.384 L98.7525 293.757 L97.7838 293.8419 L96.0489 293.6899 L95.4808 293.0932 L95.5629 292.4568 L94.799 291.3571 L94.4817 289.7722 L93.9068 288.9439 L93.1395 288.4145 L92.3947 288.1157 L91.2454 288.0052 L90.5304 287.6843 L89.5977 287.1133 L89.1635 286.4424 L88.6161 285.9394 L88.2685 285.6733 L88.1171 284.9644 L88.3664 284.2006 L89.3154 282.9339 L90.994 281.2067 L91.9914 280.1176 L93.4916 280.4517 L96.2976 281.9342 L97.9863 282.6608 L99.3724 282.7509 L100.8215 283.0382 L101.1185 283.276 L101.406 283.4431 L101.9033 283.642 L102.4146 283.7401 L103.1577 283.7374 L104.1208 284.091 L104.8572 284.5472 L105.4754 284.5728 L105.998 284.5136 L106.5037 284.4216 L107.6884 284.0627 L109.5082 284.5348 L113.5827 285.6998 L116.8781 286.8136 L120.4873 288.1988 L124.4892 290.4369 L124.6827 290.7127 L124.7598 291.0168 L124.7542 291.3324 L124.6625 291.6161 L122.5749 292.6053 L120.2837 294.2087 L117.4507 298.9979 L117.0575 300.4148 L117.9424 304.1335 L118.5499 308.4037 L118.9184 311.8138 L118.7372 313.0813 L118.8132 314.3621 L118.6056 314.9817 L118.2411 315.405 L117.9081 315.6198 L117.5508 315.5588 L116.617 315.2124 L116.0044 315.832 L115.672 316.4657 L116.0011 316.9413 L116.0449 317.3576 L115.8711 317.6943 L115.5111 317.8711 L115.4188 318.7895 L115.6478 319.5143 L115.8801 319.6283 L116.1642 319.5894 L117.8867 319.0423 L119.4483 318.6056 L120.7044 318.4916 L120.7708 318.0841 L120.287 317.7147 L119.9906 317.2108 L120.0508 316.8529 L120.2966 316.7106 L120.9829 316.4366 L121.384 316.1042 L121.8734 315.3511 L122.0618 315.2274 L122.2992 315.3096 L122.5884 317.4398 L122.5496 318.5393 L122.2891 319.4259 L121.8481 319.8607 L120.8394 320.2991 L119.185 320.6315 L117.5373 321.1079 L116.2289 321.6842 L114.818 322.3939 L113.6091 322.9313 L110.9399 326.1893 L111.4771 327.2367 L116.0016 332.6945 L117.269 333.7295 L118.5482 335.0553 L120.4789 336.3016 L121.4937 336.7868 L122.9068 337.6618 L123.4682 338.2319 L123.8676 338.8629 L124.1404 339.4039 L124.2552 340.0773 L123.8738 340.6907 L123.8203 340.9585 L123.9047 341.2794 L124.7468 342.2481 L124.6968 343.3608 L124.5618 344.4373 L123.7421 346.5258 L123.1779 347.2302 L122.7065 347.5537 L122.0377 347.7296 L121.447 347.4971 L120.1683 346.1944 L120.6938 345.0489 L121.1612 343.7674 L121.4656 343.1169 L122.1113 343.6383 L122.4567 343.4713 L122.6019 342.9472 L122.243 342.5521 L121.9443 341.8008 L121.6962 340.8481 L121.1775 339.9642 L120.4282 339.9041 L119.7076 339.8582 L118.5173 339.867 L117.3883 339.9262 L116.7436 339.8343 L116.2874 339.6505 L116.0517 339.6672 L115.8227 339.7353 L115.5375 339.9898 L115.5386 340.3328 L115.8098 340.9082 L115.8824 341.3784 L115.9065 341.7381 L115.7023 341.9891 L115.2338 342.2693 L114.7235 342.393 L113.9157 342.0368 L113.3577 341.7513 L112.9662 342.1093 L112.659 341.9661 L112.5668 341.754 L112.6556 341.229 L112.645 340.7897 L112.5364 340.2833 L112.5414 340.0597 L112.7563 339.9563 L112.8852 339.9607 L112.9915 340.0305 L113.2058 340.2983 L113.4123 340.7252 L113.6091 340.7508 L113.8015 340.6351 L113.6541 339.2483 L113.5101 338.8055 L113.2199 338.4193 L113.6187 338.3035 L114.1481 338.0321 L114.2763 337.5098 L114.48 337.0281 L114.3449 336.6577 L112.902 337.4046 L112.1657 337.9959 L111.8585 338.3998 L111.6628 338.7189 L111.1908 339.2784 L110.6969 339.9996 L110.4966 340.1507 L110.3239 340.3301 L108.8113 339.6637 L107.4949 339.2059 L106.5363 340.3858 L105.5626 341.3112 L106.5363 343.1363 L107.3391 345.7887 L107.5731 346.9368 L110.5501 348.0212 L115.4711 349.7933 L117.7252 350.9458 L124.2467 352.443 L125.2447 351.1014 L135.448 353.5274 L142.95 355.334 L145.7548 356.246 L146.3607 359.6593 L148.1423 360.2347 L148.6362 362.5785 L147.5004 363.845 L147.866 367.122 L146.2392 369.5498 L143.175 368.6554 L137.4321 369.2122 L134.8028 369.6364 L132.7956 371.3828 L132.3265 374.947 L132.8159 377.2695 L134.8995 379.874 L134.3291 384.4253 L132.5734 385.5079 L131.6087 386.9086 L126.8142 385.3488 L126.988 382.5155 L120.8693 380.7949 L119.8274 382.9636 L119.7909 385.7872 L116.023 387.6528 L112.7636 380.6738 L113.9152 380.056 L115.0779 382.2734 L118.8706 383.158 L118.9308 382.3945 L115.9071 380.6022 L118.8582 374.9311 L119.0388 371.2175 L119.9034 368.773 L118.1387 367.8432 L117.9818 367.7663 L111.9035 364.1967 L105.6053 363.3783 L102.1474 361.8635 L94.2584 357.6319 L92.9584 358.0243 L90.4382 356.6614 L85.0873 355.5947 L84.7239 351.7298 L82.0744 350.3952 L82.2971 341.5339 L84.1726 336.4571 L88.8254 336.085 L94.8721 338.7286 L98.6434 339.0671 L97.084 337.3189 L98.4763 334.5224 L93.9045 331.6101 L90.2959 329.8326 L90.7729 329.244 L91.2224 327.2393 L91.6223 327.166 L91.934 327.0493 L92.1511 326.8929 L92.0437 326.5623 L91.0165 325.1181 L90.2357 324.2412 L90.1637 323.8426 L90.234 323.3706 L90.2576 322.5769 L79.3359 331.5579 L77.8536 330.2144 L76.2729 330.3125 L75.7942 329.9281 L75.4454 329.1936 L75.3773 328.6889 L75.4516 328.11 L76.3674 326.5985 L79.7736 323.3874 L80.7119 322.6352 L82.5255 321.7319 L84.4393 320.2329 L85.4164 319.6247 L87.5299 318.6551 L88.9407 318.1221 L89.5269 317.7023 L89.5089 317.3726 L89.1331 316.8591 L88.5098 316.7609 L87.1794 316.7406 L85.2499 317.1384 L83.5679 317.4141 L82.7027 317.8198 L81.2159 318.5977 L80.4126 319.0431 L79.3292 319.4303 L78.6344 319.3799 L77.8379 318.8063 L76.5643 316.357 L76.8068 315.6022 L76.6554 314.8933 L76.409 313.4189 L75.9444 311.3329 L75.3987 310.9661 L75.2148 310.5498 L75.7109 309.6005 L74.578 306.3539 L73.9851 305.8085 L73.5873 303.0321 L73.8759 302.5035 L74.0858 301.746 L73.9344 301.0362 L73.5913 300.802 L73.0501 300.8833 L72.5984 300.4961 L72.4403 299.7395 L73.1474 299.5875 L73.3466 299.0474 L72.8307 298.3632 L72.703 297.8276 L72.4769 297.4572 L72.2074 296.9401 L71.916 296.202 L71.0773 296.0111 L69.0612 295.1908 L67.1519 294.3572 L65.9177 294.0867 L64.3296 293.6863 L64.2706 293.8207 L64.0293 295.7141 L64.0821 296.8331 L64.4129 298.2041 L65.2286 299.6325 L65.7585 300.992 L66.4622 303.3309 L65.6482 304.5312 L64.405 305.9296 L59.88 310.122 L58.1181 311.9738 L57.6349 312.1691 L57.0588 311.8288 L56.7444 311.454 L56.3101 310.487 L55.5743 308.7015 L54.1545 302.7166 L53.8676 301.6682 L54.0296 300.6756 L54.6793 300.1549 L55.0134 299.5486 L54.9375 298.6284 L54.3103 296.6449 L53.1762 293.7111 L53.4592 292.9031 L54.1618 292.3056 L55.6086 291.8371 L56.3275 291.7611 L56.3365 290.8966 L56.1335 290.6155 L55.2283 290.5138 L54.3373 290.2495 L54.0926 289.583 L53.8726 289.1181 L54.0526 288.4922 L54.7879 287.5986 L56.4209 288.1245 L57.1365 288.2916 L58.9568 288.0927 L58.9484 287.3864 L58.3606 286.5087 L56.3354 286.1233 L55.9433 283.6491 L53.2071 282.6882 L50.4366 281.5965 L47.5671 280.6498 L43.3453 279.0604 L42.5161 278.5256 L42.6753 278.004 L42.1977 276.5932 L42.3676 275.0153 L43.1096 271.2504 L41.6751 270.621 L38.4011 274.3399 L37.1292 278.3541 L36.4711 281.1554 L36.5875 282.6625 L35.9856 287.0028 L39.5521 294.313 L36.8125 294.6047 L37.5888 296.6997 L41.6712 305.5495 L43.653 313.662 L42.1004 320.4485 L42.6342 322.462 L44.0276 323.9938 L47.0732 326.0408 L54.0763 329.5109 L57.8852 332.607 L65.0778 342.203 L66.9196 345.6932 L75.1264 362.5652 L78.1141 361.7707 L79.3399 366.5511 L81.0444 372.8233 L80.7912 373.9607 L82.5413 374.2064 L83.8081 373.738 L85.0299 374.118 L86.0104 374.0226 L86.6478 374.1401 L86.2118 374.9214 L86.1246 375.6735 L85.8265 376.5484 L85.9463 382.8142 L86.9926 387.2224 L87.9068 387.841 L88.0395 389.0641 L87.4792 389.9195 L88.0958 392.082 L89.5212 393.1301 L97.6224 392.31 L96.463 394.583 L99.9231 394.9206 L103.3248 395.5684 L105.2403 396.4768 L107.0466 397.0663 L109.8092 399.2985 L113.4826 401.4628 L116.1479 403.3309 L118.7974 405.1372 L120.4929 406.271 L124.2912 407.6575 L127.3182 409.9923 L131.7735 411.3973 L136.0162 406.4345 L139.8246 407.2917 L140.9384 407.9279 L139.464 404.6317 L141.7484 404.6317 L144.0323 404.6317 L142.9129 401.0969 L144.5949 401.0969 L144.5949 393.7355 L138.4064 393.4889 L141.4503 378.4379 L139.5658 375.7344 L140.4934 373.259 L144.4824 375.4242 L144.5549 379.5072 L150.0796 382.1585 L154.7093 380.1709 L161.3591 378.0517 L162.172 377.3482 L162.7654 376.2939 L161.7844 375.5188 L161.6629 373.2166 L160.2695 372.5626 L160.8511 371.084 L159.5427 370.9506 L158.7917 371.0231 L157.9799 369.4605 L157.9192 368.7332 L158.876 367.5825 L157.4101 364.3355 L156.9617 361.1856 L156.6557 358.6659 L157.4708 355.6725 L156.029 359.3314 L154.4905 358.5563 L155.5081 354.8001 L155.4294 351.9428 L159.5241 347.0809 L159.8234 342.9569 L157.7673 341.4049 L159.2034 337.9155 L161.4727 334.1388 L162.5956 333.7348 L163.054 334.1971 L163.0574 335.309 L167.1296 330.4557 L167.084 329.2387 L168.298 328.0826 L170.4717 327.7423 L170.6815 330.043 L167.6078 333.9823 L167.8457 338.9796 L166.022 343.1893 L164.2916 345.9814 L165.1281 347.1427 L163.0737 350.351 L160.9721 350.4412 L160.081 353.6742 L159.7778 355.2297 L158.6437 355.235 L157.8168 358.7216 L157.7617 359.9863 L157.9777 361.5462 L158.1616 362.9179 L158.8035 365.3536 L160.0636 367.4977 L163.094 373.3942 L163.5046 376.8992 L165.213 377.6752 L165.1523 379.4922 L164.5464 380.1223 L162.2569 379.1528 L160.1485 379.5532 L157.2886 380.8382 L153.6636 382.9159 L149.8934 385.7916 L147.0779 392.1501 L146.4614 395.0708 L146.5182 398.4184 L147.731 401.7288 L148.8015 402.5276 L149.4496 407.8219 L147.9155 409.0255 L148.0241 410.5949 L152.5571 412.2695 L152.7562 413.4669 L158.9092 416.4467 L166.7651 418.0108 L168.9618 417.9331 L170.0334 416.8603 L170.2168 415.6054 L169.5108 413.3565 L168.334 408.2841 L168.2558 401.59 L169.9811 393.3528 L173.3282 388.3589 L180.9112 386.8158 L181.4603 388.7778 L186.4809 390.2156 L188.4943 392.1766 L190.4035 392.8041 L204.6802 394.1376 L210.1036 393.7329 L215.0984 392.3993 L223.2563 392.3472 L229.9213 393.5535 L232.6147 393.344 L235.9877 391.3309 L232.0392 385.918 L231.6736 383.1722 L226.7576 374.9355 L215.9585 363.9537 L214.0493 360.5537 L214.128 359.456 L214.5201 358.6191 L214.9909 360.5802 L219.3315 364.4504 L219.75 366.6201 L220.8481 366.7252 L223.9595 369.7319 L226.8358 372.8701 L228.9278 373.8635 L229.2676 376.3734 L230.2093 377.9165 L232.6147 380.7666 L233.6605 382.4404 L235.9618 385.8137 L237.8705 386.7284 L240.3282 386.1796 L242.0805 385.6299 L241.4528 387.9311 L242.1852 389.3433 L245.0378 390.2032 L250.0849 391.4838 L252.1331 391.4086 L260.2871 388.9315 L261.9145 387.8215 L262.2656 387.0642 L262.3949 386.4535 L262.7465 384.9193 L262.5429 380.1303 L263.061 379.2059 L263.8637 378.6411 L264.7621 378.7622 L265.2054 379.3535 L265.5755 380.0189 L266.3704 383.2923 L266.8142 383.9207 L267.5354 383.9393 L268.7184 383.7722 L270.4567 383.3471 L271.3927 383.6167 L272.0982 384.5128 L272.0205 385.4991 L271.0788 387.2772 L270.6344 388.3235 L270.7897 389.0049 L271.2358 389.1083 L274.2802 384.2053 L274.5446 381.5151 L273.7228 376.9841 L272.704 373.5418 L272.8143 370.0783 L273.2992 366.7464 L273.1985 364.9771 L272.6005 364.0535 L270.8347 362.4106 L268.467 361.0875 L266.1679 359.1803 L264.3053 357.8776 L263.4818 358.6571 L260.232 358.1427 L259.1142 357.6133 L258.3199 356.0985 L259.1952 353.4638 L260.2905 352.892 L257.0497 348.2935 L256.967 346.6425 L258.3345 344.6715 L257.318 342.7085 L260.0846 341.1123 L261.1332 343.0789 L261.6586 343.1867 L262.7611 342.8226 L265.5536 341.2643 L271.8833 340.6121 L280.1155 336.8328 L278.8452 334.1105 L277.2325 333.9691 L274.6465 333.6898 L273.1175 333.6924 L271.5879 333.7905 L267.248 334.1892 L269.016 332.5469 L269.0835 332.2005 L269.0543 331.8858 L269.2455 331.6569 L269.4419 331.6048 L269.6174 331.352 L269.8221 331.1266 L270.3228 331.2185 L270.8595 331.1018 L271.2819 330.5609 L270.3166 330.2189 L271.2926 329.5542 L269.016 328.1444 L268.8023 328.0083 L268.3803 328.0932 L266.8969 328.2929 L265.7966 328.3495 L265.44 328.5881 L265.3674 328.878 L265.368 329.2988 L265.2594 329.6443 L264.905 329.6037 L264.3363 329.4119 L263.7096 329.0504 L263.4013 328.8029 L263.0492 328.7013 L262.4416 328.5855 L261.8898 328.3627 L261.3767 328.1135 L262.1485 327.5575 L263.1234 326.9512 L263.6061 326.3811 L264.1984 325.7969 L264.6361 325.3028 L265.0602 324.7132 L265.6875 323.9699 L266.2191 323.4484 L266.7293 322.8757 L268.1947 320.3495 L268.5935 320.1825 L268.9356 319.9058 L268.9614 318.6675 L269.1375 318.1646 L269.5307 317.7659 L269.9082 317.2789 L270.1073 316.9607 L269.9825 316.7265 L270.0426 316.4206 L270.5956 315.6729 L271.0923 315.1805 L271.3562 314.2975 L271.7691 313.8034 L272.2613 313.7937 L273.7914 309.4962 L272.6495 307.9767 L271.5075 303.3353 L262.3415 303.3919 L261.3807 301.5082 L270.0106 301.5683 L271.107 299.2719 L271.3067 296.065 L272.5842 295.2429 L276.6587 298.0494 L274.7353 300.3423 L274.9232 300.5766 L276.6198 299.7015 L281.6163 301.2006 L285.0945 300.5253 L287.2586 301.1989 L292.124 298.9829 L296.0775 298.2881 L299.0314 295.5947 L301.0368 295.0272 L300.1846 293.6624 L302.2176 291.861 L303.5463 291.7275 L307.4065 294.1283 L309.9047 295.128 L311.0044 294.6277 L312.2595 293.7482 L312.943 293.5166 L313.681 293.2523 L314.9242 292.7334 L317.9417 291.5171 L319.5398 291.4084 L320.9591 291.4835 L327.169 292.2649 L327.898 292.1049 L328.3633 291.8221 L328.9269 290.8259 L329.1396 289.9428 L329.1947 287.9133 L328.1163 283.2398 L328.4533 281.6 L328.8757 280.8584 L331.0235 278.934 L334.0848 277.9996 L335.7983 277.8591 L337.1332 277.9298 L337.8623 278.088 L339.3283 275.7632 L340.1811 275.9762 L341.3022 274.6962 L339.645 271.7083 L340.3819 269.1845 L342.7963 270.1711 L342.9606 270.7554 L342.2546 272.2414 L342.5516 274.0032 L343.7239 275.4776 L344.3377 277.4188 L345.9994 278.3435 L346.3937 279.3892 L347.8502 278.926 L348.078 280.7762 L349.6075 282.7121 L351.8262 283.71 L353.4874 284.0663 L356.9143 285.9686 L358.5935 285.5124 L360.7638 286.415 L362.2568 284.5551 L365.488 285.935 L365.6101 297.7427 L370.543 294.9062 L373.5463 291.6992 L376.9041 295.2703 L373.9238 299.4982 L375.1856 304.1131 L377.1646 304.2537 L384.9878 307.6621 L389.9792 309.8055 L389.4842 311.1394 L392.4724 312.5067 L393.6526 305.6715 L400.335 305.1243 L400.0329 303.109 L403.4571 303.5907 L407.1777 306.2381 L410.1125 300.1815 L409.0031 298.3119 L408.8321 297.9902 L408.9908 297.3838 L410.1001 297.7241 L413.5074 298.989 L413.8539 299.4876 L414.4519 299.8323 L415.0009 299.9198 L415.6338 299.9375 L416.0703 298.9572 L418.3779 299.4018 L418.9578 299.9234 L419.3319 300.3865 L419.094 301.0601 L418.7261 301.7186 L422.3657 301.9299 L421.3728 298.989 L421.8504 295.8802 L420.1273 294.1513 L419.9456 293.8551 L419.9226 293.6801 L420.1588 293.0596 L421.1022 291.7461 L421.5697 291.3916 L422.058 291.3262 L422.4563 291.3792 L423.1262 291.6099 L425.1789 292.8094 L426.0182 293.2258 L426.3507 293.5016 L426.7833 293.3867 L427.0657 292.8678 L427.9455 290.7843 L428.2313 290.5315 L428.5103 290.4944 L428.8827 290.6226 L429.2787 290.9258 L432.0616 293.3345 L432.8942 294.3236 L433.1152 294.6498 L433.2412 295.0608 L433.1844 295.5726 L433.2913 296.1923 L433.9495 296.6404 L435.8902 297.3414 L437.1019 297.5394 L440.1498 297.5889 L440.3939 297.5553 L440.48 297.4015 L440.3354 296.8508 L439.1265 294.9822 L438.7451 294.1035 L438.8042 293.6359 L438.8807 293.4114 L439.1411 293.2337 L440.2904 293.2222 L442.3054 293.4008 L444.8633 293.9259 L445.2357 294.1451 L445.5136 294.3723 L445.7437 294.7744 L446.0345 295.5143 L446.3006 295.654 L447.7035 296.0986 L448.6531 296.4469 L449.2584 296.2488 L449.3355 296.2241 L449.7754 295.867 L449.9514 295.387 L449.8958 295.136 L449.8086 294.2582 L449.6758 293.8048 L449.8198 293.3283 L450.2817 292.7131 L451.8044 292.8607 L452.2387 293.041 L452.92 293.2488 L453.5449 293.3805 L454.0327 293.62 L455.1729 294.9097 L456.3025 295.8086 L456.7914 296.278 L457.0569 296.6696 L457.0743 297.2919 L457.0383 297.6181 L458.0571 297.7038 L458.3721 294.6816 L461.1853 292.2773 L463.5986 294.4951 L470.294 287.7382 L468.4601 285.4895 L464.762 280.8168 L462.473 277.7406 L461.1921 276.031 L459.7644 273.6142 L457.4371 268.419 L456.5928 265.5743 L456.4758 265.1809 L455.938 262.5961 L456.3138 261.6334 L458.3738 259.236 L460.6656 257.8171 L462.1805 256.7943 L462.8043 256.3514 L463.9862 255.9943 L465.6378 255.7715 L466.7387 255.6937 L467.5133 255.9828 L468.1304 256.4513 L468.7048 256.881 L469.579 257.3168 L471.0455 258.1371 L471.2593 258.3016 L476.1494 258.9495 L477.9495 259.4808 L484.5284 260.1907 L491.1608 260.2181 L492.4147 260.3507 L492.5997 259.0433 L492.6931 257.948 L492.9434 257.3053 L493.8424 256.7917 L496.6658 257.7393 L497.8527 258.3528 L498.6172 258.6852 L500.5715 259.2917 L503.3161 260.4214 L512.0 247.7445 L507.0913 237.944 L501.7196 234.3175 L499.8154 235.4739 L500.3015 238.9969 L501.1756 239.8261 L501.5064 241.3211 L502.8649 243.7761 L502.8554 245.1835 L502.5117 246.5484 L501.6611 247.5642 L499.6332 246.4954 L496.5268 245.3965 L491.6637 244.2694 L485.8003 241.8922 L483.5862 241.0682 L482.2935 240.2531 L481.048 239.2992 L477.981 236.8539 L475.4744 234.993 L472.9868 233.4361 L467.0054 230.8334 L464.389 228.152 L461.6646 224.8252 L459.073 221.0192 L456.8409 218.6507 L455.2787 217.0664 L452.5819 214.7695 L450.9455 213.5167 L448.5305 211.3568 L447.5404 210.3472 L445.711 207.9777 L444.2006 205.6967 L443.1121 203.9523 L442.2407 202.3547 L442.1057 201.7818 L442.2351 201.4352 L442.9782 200.5334 L443.7241 199.4706 L443.6904 199.0984 L443.4502 198.6095 L441.3755 197.1957 L439.7577 195.5884 L437.9221 194.1233 L436.9574 193.7246 L436.1979 193.561 L435.8705 193.7369 L435.6185 194.4743 L435.1668 196.667 L434.7545 196.7006 L433.1743 196.034 L431.0631 195.3284 L427.9691 193.8324 L424.6541 191.9916 L422.4861 190.7008 L418.1045 188.5125 L415.0971 187.2534 L412.6146 185.7415 L410.733 184.4559 L406.8751 181.3471 L405.3877 180.2287 L401.6688 178.1561 L399.1469 176.1879 L396.7094 173.7016 L395.0466 171.9244 L394.0042 170.5264 L393.6728 169.3611 L393.3567 168.6342 L392.6175 167.7005 L391.1774 166.1142 L390.9383 165.3105 L391.0419 163.9559 L391.0784 162.588 L390.4473 161.6392 L389.8037 161.4182 L388.7754 161.2705 L386.0358 159.9689 L384.8404 159.5578 L384.0444 158.8513 L382.8372 157.6947 L381.6514 156.2057 L380.5708 153.8669 L380.4554 153.3328 L380.5325 152.926 L380.7963 152.6051 L382.3062 151.7642 L382.6448 151.345 L382.5121 150.681 L382.1369 150.0063 L381.6317 149.3643 L381.5524 148.2599 L382.345 146.4825 L382.4975 145.4948 L382.3776 144.4337 L381.7763 143.5468 L381.1974 142.9871 L380.7873 142.3831 L379.9576 140.9338 L379.1914 139.4421 L377.9105 137.6417 L377.2647 136.9988 L376.1993 135.7892 L375.4528 134.6361 L374.9184 133.4564 L374.1111 131.3669 L373.8794 130.2527 L373.9958 129.4727 L374.191 128.6503 L374.1786 127.5742 L373.4395 126.6403 L372.5771 125.7675 L371.816 124.9469 L369.3296 125.8197 L366.8971 128.3541 L366.3166 131.9549 L362.0025 131.7975 L357.8639 126.0275 L353.7579 122.485 L351.7019 120.7111 L350.0936 119.2175 L348.438 120.2672 L348.636 121.3425 L350.6865 123.578 L349.8342 123.8866 L348.784 122.6274 L347.4373 121.9721 L347.1408 122.4912 L348.8419 124.0856 L351.8492 128.5009 L353.8564 131.2466 L354.8127 133.131 L355.3927 134.056 L354.4414 134.8562 L354.3936 134.896 L354.3795 135.3311 L354.0634 136.1358 L354.3936 136.8689 L355.027 137.418 L358.135 139.1812 L361.3843 140.8145 L363.7137 142.3115 L364.0957 143.0145 L363.9224 143.8722 L362.8879 144.3877 L361.9282 145.287 L361.1227 146.4383 L360.7295 146.9088 L358.1716 146.1456 L356.3321 145.3109 L354.9398 145.7875 L353.084 145.7247 L351.0921 145.0058 L349.3347 143.9509 L346.6964 141.3954 L344.273 139.4836 L343.9349 138.6312 L341.7044 135.6583 L341.1031 135.3461 L339.8649 135.7777 L339.0515 136.5134 L337.5793 137.0484 L336.0217 137.8433 L334.8201 138.4871 L334.2862 139.4571 L333.7254 140.4068 L330.8097 141.1522 L329.2965 140.6022 L325.7531 139.7728 L323.0416 138.7585 L321.0469 138.2006 L318.9239 137.4604 L315.799 135.4505 L315.0378 135.561 L312.3905 134.0737 L310.4858 132.8136 L309.8434 131.8983 L308.1659 131.3218 L307.2624 130.609 L308.0281 128.7414 L307.8621 128.0985 L308.1839 127.5733 L307.2872 126.3149 L306.2189 125.9851 L305.1861 123.8469 L303.9305 119.1786 L303.1238 117.6355 L303.292 116.0879 L303.6718 114.2645 L304.5004 112.2111 L305.999 111.0951 L306.1824 110.4875 L306.6965 110.2709 L307.4593 110.3531 L308.635 110.9483 L312.2853 112.3977 L314.4798 112.8964 L315.5734 112.9972 L316.4504 107.3535 L311.8972 104.5015 L306.3247 102.1005 L306.0265 100.6413 L302.3346 96.4866 L299.478 96.6281 L300.0878 98.9018 L300.4495 103.1528 L298.3513 105.43 L296.4088 102.3888 L294.7792 102.0978 L292.7653 102.3331 L291.5929 102.0165 L290.1011 99.4306 L285.49 97.9785 L281.2912 98.1333 L275.3215 97.4488 L266.2472 97.195 L261.7812 96.4981 L259.9254 96.5972 L260.6893 96.8165 L261.2547 96.9244 L260.952 97.7477 L260.794 98.6206 L260.727 99.3192 L260.4176 99.7516 L259.5986 99.6323 L258.9044 99.588 L258.3604 99.6384 L258.0133 99.6163 L257.6887 99.5907 L257.3355 99.955 L256.0191 99.1574 L254.273 97.0446 L248.2842 95.7712 L242.1509 94.9133 L240.5994 94.5074 L236.6324 93.9892 L235.0933 94.0237 L233.6503 94.4791 L231.8435 95.3299 L232.608 95.604 L232.8634 96.2514 L231.884 98.6135 L230.9035 102.2756 L230.7167 104.5793 L230.4366 105.652 L229.5101 106.0172 L228.2219 105.224 L226.4988 104.5625 L224.904 104.6014 L225.2089 105.323 L226.2946 106.2029 L226.7306 107.3632 L226.0583 109.9242 L225.7962 111.3073 L225.871 113.5358 L226.0791 115.2646 L226.6715 116.2188 L227.2937 117.6355 L227.4658 118.9195 L227.2115 119.588 L226.8813 121.8943 L226.6456 123.9556 L227.0985 124.4393 L228.2747 124.5516 L229.4082 124.1033 L231.4525 127.071 L233.1733 126.8039 L233.4265 128.89 L234.6584 129.4232 L235.6108 131.0883 L236.5958 132.1106 L237.1015 132.8365 L236.9789 133.5908 L236.5964 134.6767 L236.6194 135.7405 L237.776 136.0739 L241.1372 136.5028 L241.8538 136.8954 L241.9174 137.3685 L240.9122 138.8196 L240.9909 139.6428 L241.7852 140.9719 L243.1207 141.7456 L245.6167 142.8766 L248.0271 143.5539 L250.6773 143.8705 L253.2959 143.7095 L255.348 143.9226 L255.6394 144.4841 L255.6996 145.5276 L255.4673 146.6576 L255.3874 147.7912 L254.9666 148.244 L254.7005 148.5172 L253.9591 148.4173 L252.3429 147.6966 L251.1565 147.4393 L249.4251 146.9353 L248.0952 146.708 L246.537 146.4587 L243.3215 146.2827 L239.5902 144.9413 L237.5521 144.1817 L235.9106 143.2771 L233.6323 142.5131 L232.5303 141.2734 L231.736 139.9452 L230.1339 139.2148 L227.1716 138.4199 L224.4152 137.6125 L223.4448 139.7967 L222.0446 140.0336 L219.808 140.1194 L218.2677 139.7896 L217.0825 139.0035 L215.6986 138.6445 L214.3266 138.9743 L212.6677 139.7834 L211.9566 142.5909 L211.726 143.9138 L211.3806 144.9148 L211.8525 145.6071 L210.7882 146.7973 L208.8385 147.0149 L207.7173 149.2679 L205.7265 153.026 L203.6175 156.3259 L203.0792 156.9042 L202.5723 156.8202 L201.7842 155.9563 L201.1564 156.7371 L202.9206 157.5913 L202.6742 158.0024 L201.0338 157.3074 L198.6998 159.7558 L194.4802 162.8524 L190.907 165.4812 L189.94 166.2186 L190.1712 166.452 L190.1824 167.8455 L190.2398 168.8084 L191.0561 170.6555 L191.5528 171.7351 L193.5037 173.156 L194.5494 173.5601 L195.2284 174.5035 L195.6694 175.4063 L195.5142 175.8608 L195.0799 176.1994 L194.5528 176.2631 L193.8598 176.1084 L192.8382 175.5885 L191.9494 174.8661 L191.0037 173.9014 L190.201 172.8085 L189.9209 172.9261 L189.868 173.5433 L188.5876 175.3285 L188.2096 175.4912 L187.8187 175.7927 L187.4828 176.0951 L187.0013 175.9032 L185.8183 174.836 L184.7208 173.813 L184.2893 173.5186 L183.014 171.8863 L182.501 171.4584 L182.0391 170.8226 L181.2752 170.3726 L181.2572 169.8217 L181.4569 169.3451 L181.3765 168.9234 L181.3528 168.453 L176.1899 169.9667 L173.9718 166.1496 L171.9804 164.7013 L172.6138 162.6941 L169.566 162.9656 L169.6717 164.8366 L172.2521 166.2708 L170.8637 167.01 L167.0014 165.0479 L166.4428 169.4389 L167.0615 171.0684 L170.3659 169.3186 L170.8486 170.2992 L170.9847 168.1409 L172.1913 167.1603 L173.308 167.025 L174.8651 169.9915 L173.1752 170.6856 L171.1681 171.8014 L172.2549 172.8581 L174.6086 174.2613 L175.1666 175.1817 L176.3288 174.9554 L173.8542 173.431 L172.6774 172.2241 L173.96 171.0021 L176.2832 172.5415 L177.1585 170.6856 L178.6825 174.4876 L179.8897 173.7785 L183.239 176.2224 L184.431 176.3285 L184.8085 175.302 L187.2499 177.0253 L186.5884 179.6681 L185.8582 180.997 L184.2117 181.8812 L181.7247 181.0271 L179.4245 178.3303 L179.4065 178.9103 L179.2816 179.3524 L179.1111 179.9289 L179.1387 180.4302 L178.9733 181.3427 L178.917 181.6955 L178.9519 182.0757 L178.926 182.4807 L178.6386 183.257 L178.6943 183.7309 L178.9407 184.1951 L179.0746 184.9546 L179.0599 185.6787 L179.0144 186.0624 L178.6746 186.3242 L178.962 187.5947 L186.1158 192.5442 L184.5469 195.8651 L181.7787 195.2595 L179.1539 195.652 L176.6759 194.7007 L173.2585 190.8077 L173.6089 189.4523 L176.9144 188.5682 L175.5019 186.8829 L173.5476 186.0704 L169.7792 185.0501 L167.1279 185.0271 L153.0892 180.3754 L152.9255 179.1111 L152.4384 177.7158 L151.9698 176.6504 L151.7037 175.6981 L146.8715 172.767 L145.0787 170.2895 L144.6044 168.6006 L143.2094 168.9198 L140.8478 168.8933 L140.3725 171.3266 L137.0332 172.5194 L135.2106 171.866 L134.7116 171.2126 L135.214 170.0101 L133.2687 169.1745 L131.3994 169.4389 L131.1367 167.8906 L132.1302 164.5465 L131.8765 163.237 L133.3762 160.8753 L134.6284 160.4004 L136.3222 162.3413 L135.9588 166.3645 L135.2072 167.697 L135.4739 168.9322 L139.4966 169.3204 L140.4659 168.9322 L141.5195 167.9994 L143.7978 167.7279 L140.3691 165.1284 L138.5746 164.9904 L138.8182 162.7047 L139.8116 162.099 L140.0158 158.7478 L140.7876 158.3375 L144.3766 158.1598 L142.3318 155.6088 L140.0676 154.431 L141.0003 152.7881 L141.4829 151.7456 L142.8161 150.9772 L143.8338 151.0497 L145.3363 154.1516 L148.5507 154.9483 L148.1659 152.4123 L147.0335 148.3306 L145.7312 141.7969 L143.8208 136.3701 L142.5129 132.7605 L141.8531 132.2016 L139.7256 132.3352 L137.9041 132.5332 L137.4551 131.7515 L137.2487 130.5763 L137.0574 129.8079 L137.5913 128.8378 L137.4833 128.3347 L134.346 125.9276 L133.6704 126.7022 L131.1277 132.2733 L131.0416 132.8215 L129.7416 131.5384 L127.3767 125.8949 L127.0504 123.3419 L124.2029 122.0951 L121.6889 121.7104 L114.9373 121.4699 L114.2403 122.997 L111.6858 125.4527 L108.3893 127.094 L107.7177 127.5795 L106.493 127.5087 L106.2658 126.7765 L105.8028 125.7817 L105.0242 123.9273 L101.4049 120.4211 L98.7677 119.6827 L96.697 119.3422 L94.0306 119.3908 L92.3902 120.0302 L92.0662 121.1329 L91.6808 122.9661 L91.8957 123.907 L92.807 125.6853 L94.2505 129.5169 L95.6135 131.442 L95.9027 132.3414 L95.4442 133.0373 L93.5845 134.2594 L92.6591 133.3256 L91.5188 131.748 L90.4652 128.6733 L88.3197 123.6691 L87.3482 122.4532 L86.5308 121.6732 L85.1807 121.4 L83.9549 121.461 L82.35 121.8368 L80.7636 122.2127 L79.5418 122.363 L77.2129 122.2622 L76.449 122.0181 L75.7908 121.5424 L74.3996 121.6449 L73.0327 121.4221 L71.9391 121.1444 L71.0694 120.2707 L69.015 117.7858 L69.8127 116.9961 L72.2147 117.7089 L75.7486 118.1431 L77.9543 118.5446 L77.0408 117.0218 L77.7136 115.3584 L79.7393 114.1203 L82.0659 114.1928 L83.1077 116.0101 L84.2176 116.7317 L86.7288 117.3242 L82.7888 112.7479 L81.1934 112.036 L80.2242 109.9277 L78.7458 110.1939 L74.6129 111.8034 L73.2875 112.1978 L71.5892 112.0006 L67.7263 112.9628 L65.3462 115.2823 L64.4669 117.6293 L64.7369 120.0744 L62.822 121.7608 L61.882 122.562 L60.5044 122.9696 L59.6325 123.0881 L58.072 123.1421 L56.7258 123.3649 L55.5974 124.1351 L55.0618 126.1009 L55.5704 131.7754 L55.2317 132.5279 L53.9351 133.559 L54.3941 136.6761 L54.2124 139.6393 L55.6812 139.7967 L54.483 146.9379 L52.6649 148.8532 L56.012 154.4505 L56.2477 155.5115 L57.5421 158.0404 L64.1463 169.4822 L67.8179 173.5106 L70.4849 175.5814 L72.5838 176.4611 L74.5414 175.9218 L75.7329 174.447 L75.8465 172.9721 L75.9033 171.2692 L77.4351 171.8651 L80.9808 171.6388 L83.5055 170.56 L82.8535 169.3973 L79.5908 169.3407 L77.605 169.568 L77.151 169.2558 L79.6194 167.7235 L82.1722 167.2416 L84.4134 167.2133 L86.6545 168.2063 L88.0165 167.6952 L89.6051 168.7165 L92.2147 169.1701 L93.6047 170.0216 L90.5693 170.9004 L87.9028 170.759 L86.5128 171.5247 L84.1012 175.1702 L80.7681 178.447 L80.5414 184.6593 L82.3568 188.9572 L85.548 195.3258 L90.1153 199.7226 L91.3067 200.0064 L91.988 200.7155 L92.101 202.0488 L95.6754 205.2829 L96.3848 207.2121 L95.3638 208.205 L93.7363 207.6665 L89.8599 205.0557 L90.5411 203.184 L85.0941 198.7297 L79.9311 193.851 L69.3784 188.9148 L71.2506 188.6026 L74.8249 189.737 L77.8323 190.0491 L78.5129 187.7936 L77.052 182.9006 L72.0589 178.3896 L67.8748 177.2269 L60.3435 171.0472 L54.4059 161.6728 L53.8856 160.198 L49.2829 153.4681 L47.6487 152.5467 L45.1235 152.5467 L40.2828 152.6758 L40.2446 150.5607 L35.0248 148.7736 L31.0105 148.0645 L30.358 150.1354 L28.1455 149.7666 L26.0748 149.8515 L25.0532 149.2989 L23.9613 148.5039 L21.1666 149.0858 L20.8122 149.9797 L20.9967 151.0576 L19.2945 151.185 L18.269 152.5149 L17.6918 153.5256 L16.699 157.4683 L14.2266 160.2864 L12.4293 161.71 L11.3087 163.9506 L8.883 164.4608 L7.5999 165.3874 L3.7347 166.6881 L1.3163 167.5104 L1.6781 169.766 L0.0 176.5558 M6.3049 179.4382 L6.3347 179.0094 L7.097 178.0155 L8.8009 177.6 L10.4098 177.6071 L11.167 177.3515 L11.3391 178.211 L11.5635 178.6301 L11.689 178.7892 L11.8285 178.9952 L12.7207 180.6867 L12.7499 180.9634 L12.8473 181.1509 L13.254 181.1438 L13.5037 180.9174 L12.7814 179.5956 L12.4794 179.4921 L12.1565 178.9342 L12.1508 178.7751 L12.7572 178.4682 L13.0875 178.7202 L13.2416 178.7954 L13.3867 178.9846 L13.7231 179.4603 L14.3408 180.2428 L14.761 180.6911 L15.7545 182.0085 L16.3474 183.3233 L17.7762 185.913 L17.7914 186.0235 L17.7402 186.119 L17.698 186.165 L17.5501 186.1924 L17.4432 186.1111 L17.1794 186.1703 L16.9026 186.1358 L15.3213 184.9705 L15.6858 184.5284 L15.2425 183.4329 L14.7222 182.7176 L14.0635 181.7486 L13.277 182.1438 L10.7619 183.3666 L11.3998 184.8361 L11.8206 185.9422 L13.2033 185.6345 L14.2317 184.8379 L15.0164 185.2605 L15.899 185.8706 L16.232 186.2667 L16.5336 186.6035 L18.7607 187.8175 L18.9575 188.3277 L18.8524 188.4948 L18.4726 188.5301 L17.7818 188.6239 L16.839 188.8714 L16.4475 189.2295 L16.0678 189.7945 L15.7471 190.5036 L15.6329 192.1472 L15.1289 192.5044 L14.5962 192.5283 L14.4646 192.6185 L14.4584 192.9324 L14.3363 193.3895 L14.0325 193.8077 L13.6258 193.935 L13.1516 193.9757 L12.6228 193.317 L12.359 192.9041 L12.1334 192.3568 L12.0349 191.9854 L12.0811 191.7299 L12.0659 191.6203 L11.9455 191.5557 L11.7166 191.5787 L11.4415 191.4956 L11.1456 191.1428 L11.0798 190.9519 L11.0038 190.9218 L10.8097 190.9642 L10.5453 190.9598 L9.8861 190.0465 L9.3702 188.7123 L9.508 188.012 L9.2335 187.3993 L8.8504 187.3471 L8.6665 186.4577 L9.0017 185.8591 L8.5916 185.0722 L7.8784 184.2304 L7.1859 183.6027 L7.1065 182.8352 L6.8399 181.5081 L6.8917 181.1234 L6.7133 180.7468 L6.4653 180.3312 L6.3049 179.4382 M51.3778 323.2999 L51.5145 323.0931 L53.2229 323.0507 L54.636 323.353 L55.7132 323.5845 L56.8721 323.9929 L57.4324 324.3173 L58.9523 325.6652 L60.6315 325.5794 L60.8087 325.6731 L60.9966 326.024 L61.0877 326.9963 L61.0787 328.2028 L60.9094 328.8621 L60.9314 329.3765 L61.2121 329.7159 L62.039 329.7106 L62.8547 329.7053 L63.0577 329.8194 L63.8813 331.4032 L63.8897 331.6375 L63.9972 331.74 L64.1851 332.6097 L64.2633 332.6698 L64.2391 332.8377 L64.3825 333.0304 L64.3932 333.2876 L64.4984 333.368 L64.4737 333.536 L64.9861 334.5498 L66.0685 337.1819 L66.1523 337.4302 L66.4965 338.4422 L66.9156 339.1184 L68.2354 341.2449 L68.9847 342.2737 L69.0308 342.5061 L69.0572 342.6405 L68.8643 343.0303 L68.5346 343.4642 L67.8061 343.9866 L66.9843 344.3339 L66.7272 344.3445 L66.2929 343.9088 L65.8485 343.0506 L65.5942 342.7324 L65.4789 342.3948 L63.8751 339.9041 L61.3864 336.5915 L61.1659 336.1734 L60.312 335.065 L59.9064 334.3191 L59.2021 333.4494 L59.1217 333.201 L58.1834 331.9857 L56.7123 330.4973 L56.381 330.111 L56.0181 329.3359 L55.2165 328.2664 L53.9688 327.0228 L53.6712 326.3802 L53.7449 326.2291 L53.9294 326.2043 L54.497 326.4103 L56.6156 327.8421 L56.705 327.8192 L56.8198 327.7909 L56.8439 327.6229 L56.5475 327.2712 L56.2015 326.8619 L55.2103 326.1248 L54.6686 325.9392 L54.4037 325.7164 L53.9834 325.5609 L52.8871 324.7442 L52.621 324.6858 L51.4537 323.6906 L51.3778 323.2999 M65.5582 151.1346 L68.6803 149.9939 L65.8001 139.9311 L68.7422 139.6216 L69.0685 139.6216 L71.2399 144.2816 L73.805 143.3974 L76.3871 151.9304 L79.2335 153.3629 L80.2686 154.981 L89.8318 152.1249 L94.799 154.6892 L92.5207 158.9512 L90.1468 158.8097 L87.1991 158.0404 L83.4807 158.2615 L78.2153 158.907 L74.8232 162.9656 L70.0417 160.1272 L69.2879 156.5196 L65.5582 151.1346 M73.2026 285.7918 L76.4355 280.0451 L77.5071 285.5743 L78.037 286.1842 L78.2879 286.6227 L78.7008 287.7294 L80.3052 289.9799 L83.438 294.8832 L84.6649 296.4751 L85.6088 298.167 L87.0073 299.4761 L87.9321 302.3055 L88.6178 303.6606 L89.0746 305.119 L88.2662 305.3276 L87.5591 304.7655 L86.9471 303.0684 L85.8001 300.2955 L84.59 298.4012 L83.1983 296.7836 L81.6975 294.7258 L80.4874 293.3575 L78.9883 292.7794 L77.2782 290.802 L75.9039 289.6829 L75.23 288.8184 L73.2026 285.7918 M73.3786 338.1965 L73.4461 337.7467 L73.7105 337.2137 L74.1696 336.2291 L74.8412 335.2807 L75.2654 334.6293 L75.8189 334.1061 L76.6279 333.4343 L77.3732 333.8312 L76.9485 335.2515 L76.2296 336.207 L75.5489 336.9724 L75.1039 337.4099 L75.1231 338.3212 L74.9352 339.0044 L74.3912 339.3022 L73.8084 338.7719 L73.3786 338.1965 M118.1646 327.9509 L118.3277 326.7435 L118.8402 326.1531 L119.8606 325.7739 L120.9891 325.8101 L121.8425 326.1239 L122.5282 325.75 L123.3956 325.575 L125.1941 325.461 L125.8584 325.3585 L126.4862 325.0951 L127.4538 324.4737 L127.4948 323.0931 L127.3621 322.1544 L127.2974 321.8981 L127.4791 321.6099 L127.7424 321.3837 L128.9738 320.8781 L129.3557 320.8586 L129.5475 320.9187 L129.6662 321.0328 L130.4431 323.0047 L130.7232 324.73 L131.8174 326.9238 L132.6595 329.1432 L133.5967 331.2256 L136.7047 335.6758 L135.5746 337.3206 L134.3938 339.2439 L133.7154 340.9789 L133.4651 341.3112 L133.1163 341.5171 L132.6094 341.5074 L132.043 341.3015 L131.6042 341.0964 L130.6383 340.3929 L129.124 339.0397 L128.6239 338.4926 L128.2965 338.0799 L127.7986 337.9464 L127.0606 337.8704 L126.3996 337.7104 L125.306 337.249 L125.2289 337.0661 L125.2897 336.8911 L125.5074 336.77 L125.778 336.7762 L126.3214 336.9521 L126.9503 337.0511 L127.4431 337.265 L127.8644 337.2482 L128.0208 336.8663 L127.9162 336.5031 L127.744 336.1743 L127.8768 335.7951 L128.9991 335.2188 L129.592 335.05 L130.0645 334.5215 L130.4504 334.3571 L130.8442 334.312 L131.2003 334.5842 L131.2481 335.1145 L131.1654 335.4548 L130.7362 335.9463 L130.262 335.5132 L129.6752 335.4318 L129.3715 335.8499 L129.2843 336.2706 L129.4288 336.6922 L129.4069 337.0634 L129.574 337.4744 L129.9942 337.8023 L130.3559 337.5204 L131.4652 336.3767 L132.5284 335.7191 L132.8637 334.8803 L134.0141 334.0433 L133.1703 332.6424 L132.4581 332.1607 L130.7187 331.2415 L129.16 332.1333 L127.9994 332.676 L127.2574 333.7463 L126.7928 334.1715 L126.5138 334.2828 L126.2117 334.2687 L123.853 333.3901 L122.5248 332.6221 L118.2934 328.985 L118.1646 327.9509 M150.5105 303.7658 L150.5235 303.2107 L150.8143 302.2817 L151.2441 301.1326 L151.5265 300.5571 L151.9242 300.3034 L152.7551 299.8226 L154.261 299.1853 L155.2522 298.9475 L156.0847 298.8352 L156.7873 298.8847 L158.862 299.446 L159.9471 299.5477 L161.1903 300.0533 L161.2528 301.2881 L161.3405 302.1924 L158.705 301.5896 L155.0969 321.1344 L154.7223 320.5245 L153.9448 319.7396 L153.2006 319.0219 L153.105 318.3696 L153.1067 317.8481 L153.1989 317.1622 L153.4875 316.6337 L153.811 316.2456 L154.6047 314.9516 L155.6977 312.4944 L156.0932 310.4366 L156.1714 308.7581 L156.0814 307.9122 L155.2865 307.114 L154.5243 306.6792 L153.3587 306.155 L151.9039 305.8067 L150.915 305.0501 L150.5105 303.7658 M151.9608 403.9566 L152.3343 403.5854 L152.5261 403.0464 L152.5475 402.4534 L153.4779 401.5069 L155.5368 400.0506 L156.2141 399.7377 L157.5783 398.353 L157.7858 396.9169 L158.4525 394.6369 L159.7412 394.3356 L160.567 394.218 L161.178 394.3143 L160.9934 395.4376 L161.0649 395.7186 L161.3332 395.8847 L161.6387 395.9104 L161.8052 395.8202 L162.3092 395.2484 L162.9201 394.4708 L164.1358 393.838 L164.7191 394.0156 L164.4784 394.7217 L164.8525 394.7668 L164.2612 396.6509 L163.4703 398.3971 L162.9663 400.2026 L163.2892 401.993 L163.4529 403.8231 L163.7696 406.1791 L163.8933 407.7618 L163.8511 409.6308 L163.6475 410.6108 L162.7114 411.0819 L161.5712 411.1269 L159.9826 411.0014 L156.4211 410.2565 L155.7185 410.3829 L154.8623 409.6653 L154.684 409.4762 L154.7009 409.2588 L155.5914 408.7127 L155.6195 408.4096 L154.207 407.3801 L153.3485 406.7137 L152.579 405.9414 L152.2527 405.2963 L151.9608 403.9566 M155.1757 321.1866 L158.7709 301.655 L161.3928 302.2711 L162.2749 302.4814 L162.7401 302.7784 L163.9355 302.7457 L166.0608 302.9711 L165.8088 305.3789 L166.1789 306.2911 L166.9845 306.619 L167.9993 306.863 L169.544 307.4084 L171.2688 307.9847 L173.4284 308.9437 L175.9288 309.52 L176.9133 309.764 L177.576 310.4119 L177.7571 311.1659 L177.8662 312.0966 L178.0164 312.8541 L177.6913 313.2351 L177.4573 313.6355 L177.4612 314.1402 L177.6575 314.4107 L178.1115 314.8137 L177.986 316.3225 L177.7425 317.7827 L176.9875 319.6 L173.9729 319.1253 L173.0666 320.0578 L172.2622 320.856 L170.1246 321.4897 L168.0646 322.0483 L166.1367 322.3975 L165.0718 322.5654 L163.7988 322.7935 L162.141 322.5362 L160.072 322.5513 L159.069 322.5265 L157.954 322.3807 L156.8773 322.3418 L156.1151 322.2605 L155.4395 321.5728 L155.1757 321.1866 M166.5277 217.5394 L168.6052 216.8083 L170.3642 216.0727 L171.0404 217.4377 L170.8081 223.3214 L169.5795 227.9009 L169.2824 231.1941 L170.2939 232.8076 L175.3145 232.9941 L175.4321 234.8268 L174.0702 235.6463 L172.3843 235.7365 L171.4285 234.4519 L169.5474 235.359 L168.7441 233.6686 L166.5986 228.5534 L166.5277 217.5394 M166.9063 352.9371 L167.1746 352.496 L168.4341 351.6325 L169.8669 350.99 L170.7546 350.6939 L172.2071 351.036 L173.1797 351.424 L174.1602 351.5804 L174.9405 351.0819 L175.346 350.6506 L175.7455 350.3484 L176.3941 350.2361 L176.9352 350.3961 L178.2336 351.0139 L178.8034 351.6246 L179.5583 352.2459 L184.4637 354.0613 L187.1177 355.1298 L189.2295 356.8002 L190.0052 357.281 L190.6651 357.9783 L191.2574 358.7596 L191.7671 359.5674 L193.0829 361.2572 L193.5807 361.8167 L197.6586 367.1627 L198.7561 368.2931 L199.5847 368.9135 L202.0723 371.0372 L202.3473 371.3677 L201.8714 372.0491 L201.2301 373.2908 L200.4955 374.544 L200.0994 375.5833 L199.857 378.0057 L200.1315 378.4414 L201.1564 378.7516 L206.7295 379.2271 L208.5887 379.5214 L209.3183 379.9403 L209.5034 380.3609 L209.5968 380.7356 L209.4269 381.3914 L208.8863 381.7369 L208.0655 381.8598 L207.6914 382.7038 L207.3905 383.4983 L207.1846 384.8248 L206.882 385.37 L206.1276 385.8252 L201.8894 385.2826 L197.6411 384.9025 L193.3523 383.5654 L190.3219 383.2057 L189.126 382.9344 L187.2257 382.0763 L185.3637 381.121 L184.4029 380.4749 L183.7599 379.5276 L183.5704 378.8824 L183.6401 378.817 L182.7834 377.8581 L181.4001 377.5329 L181.1734 377.2333 L181.0282 376.7932 L181.1711 376.3345 L181.1874 376.2691 L181.6397 375.7115 L181.17 374.1163 L181.1801 373.3385 L181.1379 372.5971 L181.5598 371.9625 L181.6122 371.4022 L181.305 369.1751 L180.7695 368.7588 L179.6213 368.9108 L178.0102 368.1746 L176.9718 367.6276 L175.9654 367.5153 L175.0457 366.6934 L174.7256 365.4296 L175.2105 364.8755 L177.5489 363.9501 L178.9255 363.7018 L180.4663 363.6514 L180.7571 362.7217 L180.9776 362.156 L180.8398 361.4852 L179.1432 360.8507 L176.7794 360.3027 L173.4492 358.7879 L171.2856 357.3243 L169.5722 356.353 L167.7158 354.5907 L167.0036 353.4726 L166.9063 352.9371 M167.8069 300.8214 L168.0612 300.0064 L168.2817 299.5698 L168.3486 299.2463 L168.1754 298.3491 L168.1602 298.2236 L168.451 295.6 L168.7987 294.3484 L168.8898 293.3266 L169.0895 292.5443 L169.3871 292.3516 L169.562 292.2172 L170.1544 292.0705 L170.9318 292.0828 L171.7666 292.1465 L172.3685 292.4842 L172.5553 292.8908 L172.6942 294.4925 L172.485 296.8375 L172.0653 298.7371 L171.7087 299.2507 L171.3183 299.6175 L170.2725 300.4033 L169.3353 301.3226 L168.6805 301.4676 L168.3458 301.4959 L168.0426 301.4428 L167.8986 301.1909 L167.8069 300.8214 M169.5558 231.1225 L169.8647 229.8388 L170.2213 227.7347 L171.1726 224.2037 L171.9928 217.3626 L172.6959 216.6571 L176.0329 220.052 L176.8548 221.097 L175.9862 225.1709 L175.5261 232.3461 L170.3125 232.2957 L169.5558 231.1225 M173.1859 340.1021 L174.7211 338.6517 L175.8265 339.1219 L176.2607 338.8249 L178.1739 339.7123 L179.3553 340.042 L179.9116 340.8869 L180.0849 341.3174 L180.4471 341.663 L181.8934 342.6104 L182.9668 343.7523 L183.3437 344.9393 L183.8044 347.6642 L183.783 348.3615 L182.8076 347.5979 L181.728 346.4065 L181.3393 345.6924 L181.2364 345.1276 L180.972 345.0118 L180.3757 345.1364 L180.05 345.3583 L179.4565 345.9018 L178.0901 344.8571 L178.6256 344.4108 L178.746 344.1183 L178.7933 343.8089 L178.7303 343.4695 L178.3196 343.0621 L177.707 342.7351 L177.005 342.5353 L175.256 341.29 L173.1859 340.1021 M176.9363 320.2903 L177.2812 319.2349 L177.8043 318.1345 L181.7629 321.8769 L184.6943 324.5895 L189.8359 329.4985 L192.1676 331.5438 L193.7591 329.7 L195.7538 331.9468 L196.3265 332.7591 L196.4058 333.6836 L195.7476 335.1543 L195.2228 336.1195 L194.2299 337.805 L193.0058 339.6823 L192.3797 340.9638 L191.7519 342.4858 L191.4723 343.2671 L191.3131 342.6095 L190.1222 338.9646 L189.7971 335.568 L189.041 334.4234 L186.7481 331.451 L182.1736 326.2591 L178.5919 322.3462 L177.437 321.2237 L177.0798 320.8312 L176.9363 320.2903 M186.0444 344.9208 L187.4794 342.7837 L189.5912 341.541 L190.6763 341.7036 L190.9824 344.4011 L190.7799 348.0053 L191.7553 348.1185 L192.4534 348.3014 L192.27 349.9091 L195.0602 350.1654 L197.4482 350.6029 L197.802 354.6243 L196.4502 357.0821 L191.7547 356.9513 L191.6428 353.7661 L188.456 353.6291 L187.3129 353.2278 L187.6505 349.0376 L186.068 345.1479 L186.0444 344.9208 M191.2721 347.5511 L191.3126 346.2783 L191.4892 345.0746 L191.5955 343.8726 L191.9061 342.8871 L192.6486 341.084 L193.201 339.8696 L194.2012 338.444 L195.0006 337.1023 L196.0514 335.1861 L196.682 333.6146 L196.6229 332.6884 L196.0452 331.8496 L193.9666 329.525 L195.364 327.8315 L196.5599 326.4421 L200.2794 329.8167 L201.0164 330.636 L201.6042 331.5464 L202.3046 333.4034 L202.7934 335.0491 L203.2755 335.5918 L203.4657 336.2733 L202.9976 336.9874 L202.0132 338.6897 L201.7539 339.4887 L201.5046 340.4698 L201.341 341.4535 L201.2059 342.0236 L201.3831 342.6078 L202.0053 343.146 L203.4285 343.8726 L204.9406 345.1532 L206.1118 345.9991 L207.1548 347.0994 L206.4032 350.0611 L205.6354 350.2211 L204.8484 350.2432 L202.9273 348.9608 L201.238 347.407 L199.8575 346.4763 L198.3629 346.2677 L197.6018 346.4843 L196.997 347.2302 L196.156 348.1079 L194.5697 347.9541 L192.4883 347.9894 L191.3778 347.9187 L191.2721 347.5511 M194.2614 360.3937 L194.5534 360.0658 L195.0895 359.593 L195.5834 359.411 L196.3023 359.6929 L195.7673 360.5351 L195.8399 360.8401 L196.0143 361.0115 L196.7203 361.0354 L197.1894 361.3085 L197.3762 361.6169 L199.6303 362.4963 L201.0046 363.2758 L202.2118 363.8096 L203.275 364.1074 L204.5283 364.2108 L206.6097 363.7963 L207.3134 363.875 L207.9114 364.5158 L208.5026 365.7027 L208.5729 366.286 L209.752 367.6258 L210.5272 367.5056 L211.4093 368.0041 L211.8036 368.6881 L213.1818 372.3266 L214.4284 374.4026 L214.551 374.8427 L214.0425 375.7618 L213.611 376.3566 L212.9011 378.2161 L212.6603 378.6261 L211.5814 378.3301 L211.371 377.8378 L209.374 376.5811 L209.2446 376.2886 L209.3419 375.7221 L209.9872 374.7941 L210.521 373.8882 L210.2887 373.4066 L209.7065 372.643 L208.1792 370.917 L207.6689 370.9859 L206.199 371.0566 L204.8765 371.2104 L202.9948 371.3076 L200.145 368.7447 L198.895 367.3925 L196.6882 364.7173 L196.0475 362.9187 L195.117 362.4194 L194.4639 361.7221 L194.4932 361.1087 L194.2614 360.3937 M197.0015 356.9018 L197.5213 356.3468 L198.0411 355.3764 L198.2492 354.7524 L198.2841 354.094 L198.2841 353.47 L198.4923 353.0537 L199.2545 353.158 L201.4731 353.4355 L202.4092 353.4011 L203.8994 353.4355 L205.3209 353.6088 L207.1582 353.6777 L207.7128 353.8165 L207.8169 354.5792 L207.782 356.0003 L207.7471 357.2138 L207.1582 358.323 L206.1529 358.878 L205.7366 359.2245 L204.8703 359.8484 L203.8994 359.8829 L202.1319 359.3279 L199.8784 358.4962 L198.4225 357.8033 L197.3132 357.1793 L197.0015 356.9018 M211.5814 342.5433 L213.0108 341.0248 L212.8437 339.2121 L213.0772 339.0512 L215.2092 341.3059 L218.4866 350.9732 L216.8574 351.1685 L216.0975 349.9303 L215.0528 349.6174 L213.6521 349.7809 L213.9255 346.8899 L212.6058 344.8571 L211.5814 342.5433 M216.3821 234.1726 L216.7815 233.5732 L217.2034 233.4361 L217.4127 233.5263 L220.5432 236.2554 L223.024 238.188 L225.6111 240.1285 L226.4701 240.4812 L226.6113 240.1294 L225.7079 239.5379 L224.054 238.2375 L222.6983 237.0732 L220.721 235.2149 L218.8494 233.9038 L218.0422 233.2505 L217.4374 232.6184 L217.9583 232.0915 L219.2325 231.8713 L220.155 231.8908 L221.7757 232.4663 L223.5944 233.2072 L224.517 233.7641 L225.8052 234.6004 L227.7859 236.3314 L228.6128 236.8681 L229.9033 237.8405 L230.3674 238.5 L230.6745 239.1799 L231.0239 239.8146 L231.5459 241.3741 L231.9644 242.5349 L232.1152 243.5966 L232.4482 245.3638 L232.0432 244.6769 L230.4399 243.0679 L229.0229 241.7684 L227.9968 240.9772 L227.6756 241.2044 L228.3304 241.6773 L230.2104 243.4693 L231.1319 244.4913 L231.9222 245.4354 L233.9176 248.9831 L235.2412 251.2179 L236.6706 253.0461 L239.4681 254.8822 L242.0957 256.0509 L247.1136 258.1433 L248.8085 259.0503 L250.0894 263.7692 L248.7883 264.266 L248.2673 264.4967 L247.8241 264.7089 L247.6165 264.8892 L247.4826 265.3798 L247.3718 266.3416 L246.8554 266.6678 L244.6198 267.0497 L242.525 267.9496 L240.2174 268.1114 L239.1233 267.9832 L238.7098 267.6464 L238.4359 267.154 L238.4128 265.9703 L238.6749 264.8848 L238.6164 263.9698 L238.6451 263.1327 L238.5832 262.2345 L238.5051 261.652 L238.779 260.5319 L239.4664 259.9573 L241.5878 259.2643 L241.612 258.9389 L241.3881 258.7542 L240.254 259.0097 L238.5433 259.0167 L237.137 259.7681 L236.2121 260.6539 L233.5215 260.1509 L231.6066 259.4711 L226.8223 256.8933 L227.2222 256.4787 L227.6329 256.1985 L228.5065 255.7361 L229.1973 255.2464 L230.1694 255.0784 L230.6768 254.5684 L231.2359 254.3252 L231.5588 254.4658 L231.7861 255.0289 L232.033 255.4365 L232.4358 255.9351 L232.7368 255.7344 L231.9897 254.67 L231.1561 252.7154 L231.9847 250.3109 L232.6007 249.3199 L232.4521 248.6675 L232.0657 248.1344 L230.8703 247.1646 L229.5382 248.0504 L227.3184 249.6549 L226.2457 248.6692 L225.6826 248.099 L226.2552 247.5474 L227.8151 246.4149 L228.7726 245.9199 L228.0137 244.7671 L227.6897 244.5867 L227.1907 244.4462 L226.5961 244.3657 L226.0707 243.9078 L225.4935 243.5002 L223.2248 242.221 L221.351 240.5351 L219.7911 238.6521 L219.2696 237.2712 L217.825 235.862 L217.4138 235.1238 L216.867 234.6844 L216.3821 234.1726 M217.0656 306.9647 L218.0967 305.1906 L218.1935 304.8159 L217.8835 303.5713 L217.8138 302.7059 L217.9409 302.5088 L218.2807 302.2454 L218.6154 302.2401 L219.0013 302.4646 L219.8968 303.3017 L221.4174 304.624 L221.9895 304.9767 L222.552 305.2331 L222.997 305.2985 L223.3497 305.234 L223.6743 305.2419 L224.0309 305.3356 L224.5158 305.6264 L221.2295 306.3645 L217.4076 307.2705 L217.0656 306.9647 M225.5025 305.7086 L225.6257 305.3506 L225.7928 305.0757 L226.1708 304.7849 L226.577 304.5931 L228.7799 304.2943 L229.0167 304.4207 L229.2119 304.4455 L229.3756 304.4013 L229.4859 304.3014 L229.514 304.0884 L229.6957 303.9275 L229.9922 303.8259 L230.1373 302.9747 L230.7454 301.7442 L230.7049 301.3633 L230.7488 301.0132 L231.0627 300.581 L231.3333 300.0109 L231.5093 299.8703 L231.8086 299.7899 L231.9245 299.8535 L232.0691 299.964 L232.2637 300.3211 L232.4943 301.8936 L232.0606 304.5144 L230.0495 305.2525 L225.8643 306.2063 L225.5481 306.0463 L225.5025 305.7086 M227.139 285.3118 L227.3432 284.6904 L227.7578 283.924 L227.8011 282.804 L227.967 281.692 L228.9335 279.7074 L229.3295 279.627 L229.9325 278.5106 L229.9601 277.7689 L231.007 275.9877 L233.7128 270.7854 L233.8754 270.3655 L235.7694 271.1116 L238.1647 271.9939 L241.1051 273.1475 L240.3513 274.0323 L239.4732 274.7448 L237.5431 277.1351 L237.5206 277.9784 L237.4289 278.492 L237.0588 278.8898 L236.2527 279.8807 L234.7659 280.8451 L233.1103 282.0703 L232.3194 284.6886 L231.8845 285.7997 L231.3766 286.4282 L229.5191 285.8634 L227.139 285.3118 M227.5125 341.3209 L227.6031 340.2108 L228.5836 337.8651 L230.117 334.9095 L231.4058 334.974 L238.1073 336.884 L241.0798 337.6989 L247.6244 339.7008 L252.9668 341.2573 L254.6128 341.8548 L255.2344 342.1809 L255.5494 342.6334 L255.4915 343.1257 L255.469 343.9707 L255.5112 344.4064 L256.0461 347.1401 L256.5327 348.0849 L256.5243 348.0813 L258.505 351.5433 L258.6636 352.6472 L258.5376 353.3136 L258.2693 354.2964 L258.2563 354.2919 L257.9199 355.3852 L257.3906 356.5952 L256.8821 357.6142 L256.6092 358.8382 L256.711 359.9138 L260.1279 359.9863 L261.6456 360.0941 L263.2866 360.0491 L264.4184 360.2011 L266.7164 361.2378 L267.0618 361.7283 L267.2733 362.293 L268.0867 362.6324 L269.1403 363.1556 L270.1838 363.5445 L271.4304 364.2577 L270.572 364.7102 L269.7653 364.4185 L269.1392 364.3425 L268.049 364.3213 L267.0618 364.2294 L265.4754 364.027 L263.0329 363.282 L261.5286 363.0363 L261.0049 363.3633 L260.5791 365.3129 L260.1813 367.4747 L260.3 371.8759 L260.2691 372.658 L260.1988 373.3244 L260.0289 374.0853 L259.2245 374.5864 L258.5202 375.6514 L258.1731 376.5802 L257.9683 377.5099 L258.1095 379.5629 L258.1303 380.5545 L258.4071 382.3768 L258.1084 383.1306 L257.2764 383.6034 L256.4647 383.6892 L254.2994 383.7342 L253.6508 383.219 L253.2976 382.6092 L253.1946 381.7811 L252.856 381.2261 L252.3739 381.1466 L251.2966 380.8673 L249.6962 380.5076 L248.7123 380.0127 L247.1659 379.1555 L246.0509 378.2956 L244.9039 377.1361 L243.3665 375.2113 L242.8147 374.5723 L241.2649 372.8967 L240.6573 372.362 L240.3187 371.6859 L240.1893 371.0778 L240.1842 370.4451 L240.3986 369.8954 L240.8441 369.1053 L241.1901 368.3452 L242.0181 367.6647 L242.4102 366.8339 L242.647 365.9767 L242.624 365.3297 L242.0738 364.7464 L241.3251 364.407 L240.5645 363.9245 L240.2714 363.632 L240.1229 363.2546 L239.9806 362.6616 L241.0427 358.4909 L241.4803 356.9858 L241.6941 355.8987 L241.7593 354.8965 L241.6013 354.4926 L241.1405 354.0975 L238.3757 352.8593 L237.0993 351.9445 L235.4741 351.0784 L232.2446 349.7102 L230.049 348.4835 L228.7748 348.046 L228.4649 347.0455 L228.6421 346.5806 L228.7771 345.8568 L228.7321 345.406 L227.7499 343.8063 L227.5254 342.7863 L227.5125 341.3209 M228.3546 228.45 L228.4154 228.206 L228.9098 228.2387 L229.7013 228.4128 L230.3494 228.6197 L230.9485 232.1312 L230.229 233.2522 L229.3807 234.2459 L228.9008 234.9603 L228.6843 233.7067 L228.5582 231.6751 L228.3642 229.4755 L228.3546 228.45 M230.3426 237.6611 L232.3576 236.2368 L234.7625 234.3617 L236.4383 233.5581 L237.4216 233.3778 L238.8145 233.7429 L240.9684 235.0752 L241.4798 235.6693 L241.3335 236.426 L241.14 237.1262 L241.163 238.1332 L241.3976 238.9279 L242.0052 239.5839 L242.6538 240.1302 L243.7175 240.0666 L244.4072 240.1983 L245.2988 240.5263 L245.7854 241.3511 L245.4665 241.9558 L243.7423 243.3508 L244.1918 244.2526 L244.9202 245.0367 L245.1773 245.4593 L245.5593 246.4582 L245.6594 247.383 L245.1323 248.1034 L243.5955 248.9282 L243.5336 249.4817 L244.0354 250.7776 L244.6108 251.5494 L245.8321 250.8157 L247.4399 248.6736 L249.02 247.0417 L249.5876 247.2778 L249.8605 247.9381 L249.636 248.7709 L249.0538 249.4348 L247.6007 249.8715 L246.7822 250.6875 L246.8317 251.9481 L247.2413 251.8447 L247.8708 251.4071 L249.4734 251.2541 L250.8556 251.5414 L251.921 252.6889 L252.9437 252.9753 L254.403 253.0655 L255.7649 253.5119 L256.7127 254.2174 L257.5408 254.9936 L257.9689 255.5611 L257.8277 256.6546 L257.4401 256.8977 L257.2938 257.0427 L256.886 257.6836 L256.4433 258.6136 L255.406 258.1981 L254.3118 257.9877 L249.0481 258.3369 L247.8488 258.0974 L246.7316 257.4626 L243.6005 256.0005 L241.8229 255.2057 L239.2065 253.9469 L237.4677 252.7305 L235.8544 251.0791 L234.6939 249.3437 L233.2723 246.6165 L232.6608 244.7423 L232.0893 241.3785 L231.2117 239.4283 L230.3426 237.6611 M230.4208 334.2652 L230.7167 333.6739 L231.1892 333.3831 L231.749 333.262 L234.3288 333.6597 L234.7991 333.4114 L235.298 332.7184 L235.4949 332.5735 L235.5585 332.3498 L235.3166 332.0414 L235.2716 331.5933 L235.5658 331.3829 L236.1705 331.4545 L236.4355 331.367 L236.5958 331.2097 L236.7167 330.7165 L237.056 330.8411 L237.1392 331.4607 L236.9907 331.8726 L237.2157 332.2853 L237.9116 332.5319 L238.7886 332.737 L239.332 332.6124 L239.5081 331.7709 L239.5632 331.1672 L239.9705 331.1637 L240.1494 331.2547 L240.281 331.4386 L240.4672 331.8293 L240.3294 332.2959 L240.2934 332.6875 L240.7777 332.8775 L241.248 332.7113 L241.6811 332.1421 L242.6459 331.4837 L243.2968 331.3962 L243.9375 331.397 L244.5242 331.7364 L245.1447 331.4784 L245.723 331.0585 L247.5765 329.4897 L248.624 329.1953 L249.186 329.2051 L248.9643 330.0863 L249.4296 331.1478 L250.1108 332.5549 L251.4147 334.1679 L253.1344 335.8428 L254.2786 336.5225 L254.5216 336.8142 L254.165 337.2261 L254.1228 337.5434 L254.3107 338.0286 L254.3698 338.0578 L254.3681 338.0613 L254.403 338.0737 L255.0375 338.3848 L256.2875 338.9098 L256.8539 339.5488 L257.0204 339.8767 L256.9861 340.2391 L256.7133 340.9356 L255.807 341.4022 L253.1052 340.9108 L247.7627 339.3544 L241.2182 337.3525 L238.2457 336.5375 L231.5442 334.6275 L230.4208 334.2652 M241.4348 271.8011 L241.6271 271.1496 L241.8561 270.5335 L242.0361 269.9076 L242.2369 269.112 L242.3742 268.4906 L242.5486 268.1229 L243.4301 267.6588 L244.3133 267.3874 L244.9259 267.2698 L245.2533 267.314 L245.3303 267.6694 L245.1689 268.1008 L244.9292 268.602 L244.7144 269.0705 L244.7093 269.6866 L244.6862 270.0562 L244.5422 270.3974 L244.1389 270.8765 L243.5617 271.3653 L243.007 271.7172 L242.5806 272.0557 L242.2426 272.3978 L241.8747 272.5755 L241.4696 272.3581 L241.4348 271.8011 M244.194 307.4588 L244.3453 307.1971 L244.6553 306.916 L245.939 305.4982 L245.7821 304.4455 L245.669 303.1391 L246.1449 302.8721 L248.3118 303.2955 L251.3877 304.0159 L252.1595 303.7569 L254.0795 304.3067 L254.4013 304.8548 L254.2342 305.1102 L253.7656 305.5999 L253.4455 307.0893 L251.0418 306.4122 L250.0585 305.9066 L249.2827 305.5601 L248.7253 305.9155 L248.6426 307.0318 L248.2162 306.7463 L246.7828 306.0065 L245.4895 307.2387 L244.5079 307.9007 L244.329 307.7124 L244.194 307.4588 M244.2756 185.9882 L244.6609 185.4152 L244.7931 185.1075 L245.2949 184.1128 L245.4215 183.745 L245.548 182.7822 L245.8799 182.0952 L246.4425 181.4665 L247.3183 180.5381 L248.2949 179.7079 L249.1089 179.0368 L249.447 178.8148 L251.3894 178.7123 L252.2833 179.3454 L252.4886 180.0129 L252.5055 180.9846 L253.751 182.9908 L254.5413 184.1747 L255.1916 184.6089 L256.8387 184.4267 L257.1161 184.1084 L257.6162 183.3029 L259.1046 183.2349 L259.4754 183.806 L259.9558 184.4073 L261.595 185.0598 L261.8662 185.4727 L262.5389 185.5982 L262.8005 185.9961 L262.7229 186.432 L262.584 186.8272 L262.1547 187.5027 L260.8868 189.195 L259.8945 190.2702 L258.9207 190.9085 L258.3193 191.1632 L257.6111 191.493 L256.3212 191.7803 L255.2355 191.8687 L253.5051 191.653 L251.6617 191.0765 L250.6812 191.0924 L249.4009 190.691 L247.3802 190.058 L245.0564 189.3683 L244.3307 188.1349 L244.2756 185.9882 M250.3516 259.1361 L250.6486 258.8187 L251.0716 258.6331 L251.6263 258.5341 L252.2788 258.5102 L253.1029 258.4554 L254.8912 258.5509 L256.1401 259.0963 L257.7731 260.0625 L259.0872 260.4382 L260.9959 260.7185 L261.838 260.9174 L263.2612 261.3912 L264.4178 261.8447 L265.6925 262.5227 L266.596 263.2989 L266.7085 263.5402 L266.884 263.8372 L266.884 264.1343 L266.8367 264.5577 L266.6922 264.8494 L266.3186 265.1641 L265.5851 265.1836 L264.2845 265.0863 L262.8101 264.7637 L260.817 264.5117 L259.5704 264.5188 L258.6001 264.3774 L256.7257 263.283 L255.9865 262.6606 L255.2214 262.4432 L254.2792 261.9773 L251.7326 260.3268 L251.0243 259.8901 L250.3696 259.4817 L250.3516 259.1361 M250.4551 192.3904 L250.5456 192.2171 L250.9973 192.18 L251.5143 192.2922 L252.5426 192.4744 L253.4438 192.5593 L254.2477 192.7706 L255.1202 192.813 L255.9612 192.7909 L256.9192 192.9589 L257.0913 193.0508 L257.5329 193.4487 L258.1264 193.9633 L258.5168 194.3223 L258.4037 194.4982 L257.9216 194.8147 L257.3495 195.1427 L256.2498 195.1083 L253.9242 194.782 L252.1517 194.1516 L250.9552 193.3974 L250.4618 192.7785 L250.4551 192.3904 M251.5475 110.2311 L251.5976 109.4705 L252.8262 108.8471 L254.7495 108.0989 L255.6225 107.7151 L257.1279 107.2809 L258.424 106.3595 L259.0445 105.2116 L259.2453 103.7171 L259.0259 102.5099 L258.6299 101.2692 L258.7126 101.0278 L259.814 101.5407 L261.271 102.326 L262.7955 102.9486 L264.0719 103.8152 L264.3312 106.0756 L264.7379 107.1147 L265.8056 108.7861 L266.0807 109.123 L266.8435 109.2503 L268.0434 109.6341 L269.4025 110.5821 L271.2538 112.1934 L272.2697 113.351 L273.2452 113.9956 L274.1604 114.1884 L275.2681 114.2919 L276.2407 114.9436 L277.0299 115.7669 L277.2926 116.5053 L277.0536 117.3649 L276.4983 118.3686 L276.2458 119.2573 L276.2401 121.3001 L276.0882 122.7318 L274.359 123.0209 L273.131 122.8741 L271.4439 122.4603 L270.0578 121.7882 L269.9937 120.7615 L270.0674 119.6013 L269.8863 118.6772 L269.6466 117.9609 L268.8214 117.1527 L267.7317 116.7919 L266.2129 116.3232 L264.3447 115.4601 L261.9179 114.1831 L260.8474 113.5411 L258.6254 112.3004 L256.6987 111.654 L252.8059 110.7838 L251.5475 110.2311 M252.119 293.6686 L252.1815 293.6129 L252.879 293.1418 L254.4136 292.5425 L256.0641 292.0307 L257.5875 292.4753 L258.4712 292.516 L259.3285 292.3781 L261.1641 291.5967 L264.3655 291.023 L265.2509 291.4367 L265.9676 292.1164 L267.2463 293.6015 L267.4398 293.9966 L267.5107 294.443 L267.7537 294.9327 L268.3162 295.4904 L269.0233 296.5662 L269.9645 297.7277 L270.8302 298.7053 L270.2941 298.89 L269.668 298.0238 L267.41 296.3956 L266.3243 295.7547 L265.0996 295.4224 L263.9239 295.06 L261.9562 294.58 L260.9672 294.5915 L258.6046 295.4082 L257.3214 295.6778 L253.9254 294.3298 L252.119 293.6686 M252.9364 180.6725 L253.2109 179.6203 L253.8055 179.4833 L254.6747 179.2543 L256.7324 178.7052 L259.4771 178.2021 L259.8888 177.6079 L259.5226 176.2817 L258.928 175.3205 L258.2878 174.2692 L257.7388 173.5831 L257.3732 172.4849 L257.5104 171.6158 L258.2423 170.3354 L260.529 170.0605 L261.8555 170.9296 L262.9535 171.4787 L264.6457 170.7015 L265.332 167.7739 L267.2463 168.3964 L269.4942 168.3681 L273.5838 169.9305 L274.251 170.7466 L276.9495 172.805 L277.0412 174.0862 L281.2951 175.5036 L282.1637 176.4187 L282.0725 179.2543 L278.4588 180.3984 L275.9892 178.4311 L271.4152 176.3268 L268.8534 180.9926 L264.7829 185.7954 L262.7702 185.2004 L259.1986 182.7397 L257.7849 182.959 L257.6932 182.959 L256.5496 183.7371 L255.132 183.9661 L253.4849 181.7698 L252.9364 180.6725 M254.6122 309.8975 L255.9494 308.6441 L255.4138 306.8489 L255.2743 306.0436 L255.0876 305.2286 L255.3278 304.5896 L255.919 304.6028 L257.1155 304.8459 L257.9599 305.2454 L258.1523 305.4063 L258.0178 306.14 L257.2618 306.0551 L257.0699 306.1276 L257.39 306.8939 L257.331 307.4932 L257.0356 308.1862 L256.3533 308.9941 L254.9481 310.3191 L254.6122 309.8975 M257.624 192.3364 L261.1703 190.7865 L261.6434 190.2604 L262.5361 189.394 L263.6922 187.844 L264.1388 187.2923 L264.5067 187.1871 L265.2684 187.6601 L265.8467 188.0801 L266.3192 188.8944 L266.3721 189.8926 L266.0829 190.6026 L265.715 191.2587 L266.0565 191.6265 L266.0565 191.9686 L265.6627 192.3364 L265.2425 192.4151 L264.9005 192.073 L264.559 191.8369 L264.244 191.8104 L263.745 192.126 L262.9828 192.4938 L262.1159 192.9138 L261.0915 193.3347 L260.4874 193.4655 L259.7257 193.492 L259.2262 193.492 L258.4645 193.5442 L258.123 193.4133 L257.8868 193.1508 L257.6499 192.9403 L257.624 192.3364 M259.4816 278.1941 L259.9496 276.8239 L260.4187 275.612 L260.6657 275.5386 L260.8885 275.5669 L261.0027 277.9236 L264.9219 273.128 L265.8962 272.0725 L266.8204 272.7002 L267.2249 273.9413 L267.1259 274.1243 L263.0008 278.3594 L261.9022 279.6668 L260.7985 279.3229 L259.89 278.7324 L259.4816 278.1941 M262.1947 157.2561 L262.5114 156.2755 L263.4823 155.676 L265.0113 155.3135 L267.2086 154.5787 L268.4822 154.0534 L270.0162 153.7431 L271.6329 153.2886 L273.2626 154.2595 L274.7854 155.5964 L276.608 156.9909 L277.6836 157.3145 L280.6172 157.1014 L283.0935 157.1925 L283.8457 156.7963 L284.1854 155.554 L284.735 153.8448 L285.4905 153.6529 L286.1026 153.6829 L287.2468 154.4239 L288.4804 155.3639 L289.6662 155.6212 L291.7386 156.845 L294.6897 158.6691 L298.7794 160.893 L299.3863 161.4571 L299.9241 163.4351 L300.467 164.1425 L301.8244 165.1673 L305.7745 166.551 L309.1413 167.4061 L313.928 168.8208 L315.102 169.5211 L316.2985 170.5706 L317.1609 171.874 L318.4845 172.4982 L320.1986 174.6654 L321.8356 176.2578 L322.4797 176.2693 L322.7733 175.409 L323.1345 173.3108 L323.4163 171.9252 L323.7769 170.5494 L324.2483 170.2904 L325.6231 170.3788 L327.1707 170.5255 L328.9882 171.0773 L330.5909 171.8775 L331.1788 172.1684 L332.4951 171.8218 L334.7481 171.0852 L336.5724 170.9111 L341.8456 171.1215 L346.4219 171.5901 L348.7317 172.0879 L350.5537 172.7016 L351.1416 173.072 L351.3233 173.8475 L351.1146 175.096 L349.7813 178.7609 L348.5004 182.1358 L346.8438 182.1243 L345.0813 182.8387 L342.2017 185.0925 L340.9585 186.5496 L339.3727 187.1429 L336.7788 186.3498 L332.067 183.8803 L328.1281 182.2667 L325.7323 181.2198 L324.1645 180.7079 L318.9351 179.7998 L316.0065 179.1128 L313.3024 178.4037 L311.702 177.5063 L310.4025 176.2366 L309.602 175.8122 L308.7937 175.4187 L308.2401 175.485 L307.1572 175.653 L306.4591 175.8696 L305.7273 175.8458 L302.4702 175.2976 L297.3876 173.4805 L296.1613 173.2754 L293.0027 173.3886 L290.8796 173.6751 L287.7845 173.9748 L283.138 175.0005 L281.7564 175.1976 L277.1796 173.6945 L277.3405 172.9032 L276.9101 172.454 L275.834 171.5441 L275.0087 170.9013 L274.5728 170.5415 L273.743 169.8933 L272.7198 169.2311 L270.8977 168.422 L269.4779 168.0365 L268.3989 168.2319 L267.2907 168.2452 L265.7944 167.6855 L265.4658 167.124 L265.5092 165.849 L266.5752 163.6358 L267.4038 162.1185 L267.8043 160.893 L267.8302 160.2855 L267.2851 159.9274 L265.4 159.518 L263.0233 158.7841 L262.5586 158.5153 L262.2521 157.9706 L262.1947 157.2561 M274.9919 286.0136 L276.1698 284.2289 L280.4237 282.5132 L283.3827 281.3985 L284.7407 280.7046 L286.1886 280.3722 L287.0037 280.9759 L286.8817 281.5178 L285.0405 283.1169 L285.3122 283.8709 L286.0081 285.3516 L285.3122 286.5873 L283.8637 287.07 L282.4759 286.6775 L281.2079 285.7723 L278.7339 286.0746 L277.3759 286.2249 L276.5023 286.9506 L275.0217 287.1911 L274.9919 286.0136 M346.1873 264.2067 L346.6441 261.2586 L347.3686 258.4262 L348.0769 255.8935 L348.5663 253.3254 L351.4487 252.551 L353.7928 251.6997 L354.8448 251.3682 L355.5974 251.6051 L357.1973 252.7004 L358.9305 252.9806 L359.6488 253.2688 L360.1613 253.7533 L360.1484 254.4923 L360.0443 255.4444 L359.6516 256.9331 L359.7135 257.2354 L360.1039 257.2796 L360.3098 257.7261 L360.4015 258.5323 L359.6083 261.149 L358.4023 265.0395 L357.6996 265.1102 L357.1658 265.0616 L356.6775 264.8786 L356.0154 264.952 L355.3651 265.2322 L354.2907 265.889 L353.2241 266.5626 L351.9437 267.032 L350.7039 267.0302 L350.138 266.7456 L349.7937 265.9659 L349.1789 265.7926 L347.462 265.4541 L346.99 265.2136 L346.5546 264.7283 L346.1873 264.2067 M350.7095 189.6981 L351.487 188.3259 L352.1733 186.7247 L352.0816 186.0845 L351.7615 185.3525 L351.3497 184.6204 L351.0752 183.8891 L351.0752 183.2941 L351.5787 182.791 L352.2188 182.608 L353.1796 182.745 L361.6869 187.3197 L363.0134 188.0969 L364.157 188.6919 L365.6207 189.4231 L365.9864 190.7954 L365.3918 192.2595 L364.3398 193.8598 L363.4252 194.2259 L362.3276 194.0429 L361.2296 193.8598 L360.4977 194.7749 L359.7658 195.461 L358.4394 195.7811 L356.7011 195.095 L354.9635 193.8148 L353.408 192.9456 L352.6306 192.5336 L351.5331 191.8935 L351.0296 191.3444 L350.7551 190.6123 L350.7095 189.6981 M358.2082 266.3964 L358.2875 265.8572 L358.4433 265.1871 L358.6126 265.0916 L361.9243 254.8548 L363.1765 255.2473 L364.0878 255.6062 L365.8435 256.6608 L363.4195 264.2147 L360.532 265.8351 L358.9772 266.3496 L358.4968 266.4618 L358.2959 266.4574 L358.2082 266.3964 M361.5536 153.2329 L363.0488 148.8965 L373.8884 153.0003 L373.728 151.7182 L375.1845 148.2281 L375.1271 144.2949 L375.7577 143.3744 L376.7916 144.4505 L376.7568 149.2626 L376.1216 152.934 L376.9975 155.6468 L376.5486 157.2703 L374.5623 157.3985 L372.8961 156.6292 L361.5536 153.2329 M384.3116 284.5728 L384.6188 284.122 L384.9968 283.9593 L385.3214 283.8524 L386.2923 284.1953 L387.5192 284.6824 L388.637 285.6769 L390.274 286.285 L391.2162 287.1716 L392.0595 287.8611 L392.7188 288.2262 L393.1109 288.8405 L393.8455 289.431 L393.3483 290.1956 L393.0344 291.0265 L391.5313 293.11 L391.5639 293.651 L391.4002 294.1619 L390.9125 293.6828 L390.7617 293.1683 L390.5193 292.7175 L389.9263 292.2923 L389.0403 291.2882 L388.0283 290.1019 L387.7651 289.0465 L386.5978 288.1537 L386.3193 287.5659 L386.0358 287.1787 L385.6702 287.0753 L385.232 286.91 L385.0716 286.2505 L384.6981 285.3701 L384.3319 284.9927 L384.3116 284.5728 M384.7786 256.0438 L384.7921 255.3931 L385.0874 254.7257 L385.6072 254.1246 L385.9261 253.816 L386.8886 253.4695 L387.4804 253.4837 L388.2742 253.7772 L389.0325 254.2448 L390.6745 254.9388 L392.163 255.6566 L393.4101 256.3585 L394.2922 257.2063 L395.8881 258.0063 L396.31 258.2529 L397.0222 258.077 L397.5786 257.0958 L398.3419 255.9271 L399.2274 254.236 L399.476 253.5853 L399.3787 252.8604 L399.013 252.2204 L398.8623 251.8906 L398.6693 251.5105 L398.1433 250.8077 L397.623 250.1535 L396.3207 247.4581 L396.0192 245.2056 L395.1523 244.0475 L393.1604 241.5739 L391.695 239.1878 L391.2483 237.7 L391.2078 236.6232 L391.3693 235.5588 L391.5661 234.6853 L391.9402 234.2486 L392.5686 233.9224 L393.5789 233.9312 L396.6234 234.1222 L402.755 235.7188 L405.237 236.5153 L406.5443 236.9653 L406.9893 237.4188 L407.162 237.9325 L407.2525 238.6105 L407.261 239.9879 L407.1254 241.1849 L406.7468 242.4235 L405.6127 245.3019 L405.0637 246.6987 L404.3988 248.1839 L403.5617 249.8759 L402.6459 251.2179 L401.6699 252.4723 L401.2227 253.0134 L400.7901 253.6649 L399.6695 255.6283 L399.0282 256.6927 L398.3937 257.6279 L397.3946 258.8567 L396.4985 259.182 L395.4201 259.4198 L393.7319 259.8433 L393.022 259.914 L391.799 259.7425 L388.7388 258.9831 L386.5016 257.9214 L385.5189 257.3318 L384.9304 256.6971 L384.7786 256.0438 M386.8043 264.479 L386.8133 264.1882 L387.1643 263.618 L388.5042 262.9683 L391.2269 262.0401 L393.5609 261.492 L395.3031 260.8714 L396.8939 259.8362 L397.857 258.9425 L398.887 257.8878 L400.3569 255.5894 L401.2092 253.8815 L402.017 252.5148 L404.0326 249.8052 L404.6086 248.5446 L405.134 247.2663 L405.3916 246.8737 L405.6414 246.7677 L406.2096 246.8844 L408.4445 247.4289 L412.3007 248.6003 L414.9008 249.3614 L415.3008 249.4003 L415.7896 249.3464 L416.9141 248.953 L420.0621 247.3467 L421.7491 246.4918 L422.4574 246.3964 L423.0582 246.5811 L424.1118 247.0921 L424.5821 247.4572 L424.86 247.9814 L424.9202 248.968 L424.8493 249.5524 L425.0394 249.7195 L425.4473 249.6823 L425.9564 249.5418 L426.8064 249.0184 L428.2425 248.16 L429.1212 247.9134 L430.0618 248.0681 L431.2324 248.2714 L432.7496 247.8347 L433.9917 247.7958 L435.0712 248.1591 L435.9004 248.4341 L437.3348 249.3871 L437.5171 249.5701 L441.2062 251.2966 L442.5068 252.0392 L442.8466 252.429 L442.9383 252.7543 L442.9034 253.2609 L441.8368 254.6152 L440.5289 256.1384 L439.2846 257.2354 L437.5132 257.5616 L436.0978 257.6359 L435.029 257.704 L433.4505 258.2202 L431.4147 259.9777 L430.199 260.2172 L429.2461 260.0289 L427.8217 259.4826 L426.2247 258.9602 L425.1294 258.9778 L424.3604 258.9513 L423.187 259.1502 L422.3274 259.7248 L422.0298 260.5425 L420.821 263.519 L420.2894 264.9864 L418.7919 265.0916 L417.4716 265.2605 L416.3015 265.2419 L415.2175 264.8503 L413.76 263.8196 L412.051 262.4352 L410.9028 261.8641 L410.4185 261.8332 L409.6849 262.3468 L408.8524 263.4774 L407.7808 264.5515 L406.5426 264.6222 L405.2336 264.5816 L404.6204 264.6001 L403.9009 265.9155 L403.2489 267.0214 L402.957 267.5262 L402.6217 268.0681 L402.0929 268.5401 L401.4826 268.4623 L400.4278 268.1069 L398.0111 267.4643 L393.2284 266.895 L388.259 265.8554 L386.9438 265.1668 L386.8043 264.479 M397.403 301.4844 L398.918 301.7186 L400.3102 301.837 L400.5915 300.7436 L401.1912 300.4343 L400.7473 298.304 L400.6174 296.1958 L402.0457 297.0983 L402.5317 296.2824 L403.4599 296.2038 L404.9641 297.5889 L405.026 298.1095 L404.7295 298.5824 L404.7205 299.5839 L405.1734 299.8853 L405.2752 299.9216 L405.363 299.9746 L406.0898 300.2115 L408.9559 301.5913 L408.1256 303.825 L407.4123 304.8627 L406.7941 304.6311 L406.3851 303.9125 L405.2527 303.1629 L403.7378 302.4399 L404.3622 301.4136 L402.9165 301.0415 L402.7016 301.7133 L402.2926 302.8041 L400.101 302.4487 L398.896 302.3453 L397.9054 302.0156 L397.5825 301.83 L397.403 301.4844 M405.8406 246.0489 L406.9353 243.1113 L407.4247 241.1531 L407.7386 238.9827 L408.228 239.2091 L417.862 242.5959 L418.4229 242.8407 L419.0242 243.0326 L419.3938 243.2881 L419.7454 243.4649 L419.5052 243.8185 L418.9674 244.043 L418.141 244.4426 L417.3625 244.7927 L416.5603 245.6573 L416.1721 246.3433 L415.9061 247.7251 L415.4144 248.9831 L414.8237 248.938 L411.7776 247.985 L405.8406 246.0489" stroke-dasharray="" fill="none" fill-opacity="1.0" stroke="#ff0000" stroke-opacity="1.0" stroke-width="1.0px" stroke-linecap="butt" stroke-linejoin="miter" stroke-dashoffset="0.0px"/>
</g>
</svg>