<?xml version="1.0" standalone="no"?>
<!DOCTYPE svg PUBLIC "-//W3C//DTD SVG 1.1//EN" "http://www.w3.org/Graphics/SVG/1.1/DTD/svg11.dtd">
<svg width="512px" height="512px" version="1.1" xmlns="http://www.w3.org/2000/svg" xmlns:inkscape="http://www.inkscape.org/namespaces/inkscape">
<g id="layer" inkscape:groupmode="layer" inkscape:label="layer">
<path d="M0.0 228.4282 L0.5641 233.9865 L1.9743 239.3986 L4.3246 244.5181 L7.4271 249.0525 L11.2817 253.0018 L15.7943 256.3661 L20.7771 258.8527 L26.1359 260.4617 L31.6827 261.0468 L37.2295 260.9005 L42.5883 259.5841 L47.289 260.1692 L115.0731 326.7228 L111.9706 331.1109 L109.7143 335.9379 L108.2101 341.0574 L107.646 346.3232 L107.928 351.7352 L109.1502 356.8547 L111.2185 361.828 L114.0389 366.3624 L117.6115 370.3117 L121.9361 373.676 L126.7308 376.3089 L131.9016 378.0641 L137.2604 378.7955 L142.7132 378.6492 L148.072 377.6253 L153.1487 375.7238 L157.8494 372.7983 L161.986 369.2878 L174.0198 377.9178 L171.4815 382.5985 L169.7892 387.5718 L169.0371 392.8375 L169.1311 398.1033 L170.1653 403.2228 L172.1396 408.196 L174.96 412.5842 L178.4385 416.5335 L182.8571 419.8978 L187.7459 422.5306 L192.9166 424.2859 L198.3694 425.0173 L203.9163 425.0173 L209.2751 423.9934 L214.4458 421.9456 L219.2405 419.1664 L223.4712 415.6559 L227.0437 411.414 L311.2802 458.806 L311.0922 464.5105 L311.9383 470.2151 L313.7246 475.7734 L316.451 480.8929 L319.9295 485.4273 L324.2541 489.3767 L329.0488 492.4484 L334.4076 494.7887 L340.0485 495.9589 L345.7833 496.3977 L351.5182 495.6663 L357.065 494.0573 L361.8597 491.2782 L366.1844 487.9139 L369.9449 483.8184 L372.9534 479.1377 L375.2097 474.0182 L376.6199 468.7524 L377.09 463.1941 L376.6199 457.6358 L375.3037 452.2237 L373.1414 447.1042 L370.227 442.4236 L366.5604 438.328 L364.6801 434.3786 L455.9677 310.9254 L461.3265 313.8509 L467.0613 315.7524 L473.0782 316.7763 L479.1891 316.9226 L485.112 315.8987 L490.9409 313.9972 L496.2997 311.218 L501.1884 307.5612 L505.419 303.3193 L508.4275 298.1998 L510.6838 292.6415 L511.812 286.7906 L512.0 280.7935 L511.2479 274.9426 L509.3676 269.238 L506.6412 263.9722 L503.0687 259.1453 L498.65 255.0496 L493.7613 251.8317 L488.2145 249.4913 L482.4796 248.0286 L476.5567 247.7361 L470.6339 248.3211 L464.899 249.9301 L396.1748 183.9615 L398.9952 179.4271 L401.1575 174.6001 L402.5678 169.4806 L403.0378 164.2148 L402.7558 158.949 L401.6276 153.6832 L399.6533 148.71 L396.9269 144.1755 L390.44 136.2769 L386.4914 133.2051 L382.1667 131.0111 L377.372 129.6946 L372.3893 129.2558 L367.5006 129.9872 L362.8939 131.5961 L358.6632 134.229 L354.9967 137.5933 L352.0823 141.5426 L337.3221 131.0111 L339.9545 126.9154 L341.8347 122.5273 L342.7749 117.7003 L342.8689 112.727 L342.0228 108.0463 L340.2365 103.3656 L337.6981 99.27 L334.4076 95.6132 L330.4591 92.834 L320.6816 88.2996 L314.9467 86.9832 L309.0239 86.6906 L303.195 87.422 L297.5542 89.031 L292.1954 91.6639 L287.4007 95.0281 L283.3581 99.27 L205.3265 55.5346 L202.8821 55.9735 L197.2413 36.0804 L195.173 31.3997 L192.2585 27.0116 L188.686 23.2085 L184.5494 19.9905 L179.8487 17.6501 L174.866 16.1874 L169.6952 15.6023 L163.8663 15.6023 L158.1315 16.7725 L152.5846 18.8203 L147.6019 21.892 L143.1833 25.8414 L139.6107 30.3758 L136.8843 35.6416 L135.0981 41.2 L134.3459 47.0509 L134.628 52.9017 L135.9442 58.6064 L138.2005 64.0184 L141.491 68.8454 L145.5336 73.0873 L147.5079 77.3292 L55.1862 203.4157 L50.4855 202.3918 L45.3147 199.6126 L39.8619 197.8574 L34.0331 196.9797 L28.2982 197.2723 L22.5633 198.4424 L17.2046 200.6365 L12.3158 203.7082 L7.9912 207.6576 L4.5127 212.3383 L1.7863 217.4578 L0.4701 222.8698 L0.0 228.4282" stroke-dasharray="" fill="none" fill-opacity="1.0" stroke="#ff0000" stroke-opacity="1.0" stroke-width="1.0px" stroke-linecap="butt" stroke-linejoin="miter" stroke-dashoffset="0.0px"/>
</g>
</svg>