<?xml version="1.0" standalone="no"?>
<!DOCTYPE svg PUBLIC "-//W3C//DTD SVG 1.1//EN" "http://www.w3.org/Graphics/SVG/1.1/DTD/svg11.dtd">
<svg width="512px" height="512px" version="1.1" xmlns="http://www.w3.org/2000/svg" xmlns:inkscape="http://www.inkscape.org/namespaces/inkscape">
<g id="layer" inkscape:groupmode="layer" inkscape:label="layer">
<path d="M15.6178 172.4792 L15.8576 173.7068 L16.7262 176.4891 L17.7396 177.7705 L19.3582 178.8563 L20.053 179.1601 L20.9788 179.4308 L22.417 175.9932 L23.9109 176.6529 L26.0213 177.5793 L24.1379 180.8994 L24.5917 181.2028 L25.0168 181.3458 L25.4345 181.4836 L27.2527 182.6347 L29.6514 183.8088 L31.1991 184.6972 L32.7496 185.8743 L33.6831 186.5755 L34.966 187.0109 L35.7527 187.5946 L36.7437 188.5285 L38.2695 189.6985 L39.4995 189.6169 L39.8396 189.4937 L40.5855 189.2526 L41.4421 188.9899 L42.0033 188.8393 L43.1316 189.1338 L44.0858 189.5771 L44.9438 189.0349 L46.7405 189.1806 L47.1306 189.1232 L47.523 189.155 L48.2459 189.0027 L48.8204 189.1267 L50.167 189.6323 L51.4349 189.9979 L51.6451 190.3136 L51.8798 190.662 L52.1389 190.7264 L52.5247 190.4522 L53.557 190.8576 L57.3351 191.4872 L57.6126 191.7278 L57.618 192.1062 L57.3799 192.7182 L57.3267 193.2516 L57.1998 193.4962 L56.4883 194.5708 L56.2958 194.8556 L56.0563 195.1294 L55.6191 195.5343 L54.2883 196.5043 L55.1845 196.9379 L55.3925 196.5215 L55.7033 196.2822 L55.9265 196.114 L56.8735 195.5665 L57.5051 195.1669 L58.0644 194.8494 L58.3617 194.6552 L58.8658 194.0785 L59.5299 193.5792 L60.1991 193.5015 L60.7509 193.5041 L61.0399 193.5487 L61.6914 193.667 L62.0958 193.6785 L63.5277 192.7919 L63.8109 192.557 L64.234 192.3394 L65.1322 191.9362 L65.6593 191.6073 L66.0591 191.2916 L66.5951 190.9384 L66.9536 190.3127 L66.9918 190.0884 L67.0021 189.8253 L67.024 189.6354 L66.9269 189.336 L66.8298 188.9797 L66.7235 188.7823 L66.5566 188.7417 L66.3441 188.7691 L66.0448 188.842 L65.7185 189.0649 L65.3025 189.3965 L64.9823 189.5731 L64.4747 189.7241 L63.7469 189.8116 L63.1034 189.7427 L62.7717 189.4998 L62.6866 188.9576 L63.0374 188.2008 L63.4556 188.2454 L63.8362 188.2578 L64.1863 188.169 L64.722 188.0286 L65.1348 187.814 L65.4628 187.2855 L65.6622 186.6484 L65.7136 186.3976 L65.7119 185.9887 L65.6162 185.6734 L65.3902 185.4204 L65.368 184.9617 L65.4531 183.9836 L65.6567 183.5487 L66.2036 183.2312 L66.2614 182.9637 L66.4297 182.602 L66.5391 182.1852 L66.7574 181.5741 L67.0205 181.2504 L67.329 180.9572 L67.907 180.445 L69.0301 179.5588 L70.0317 179.0753 L70.4117 178.8912 L70.7032 178.8263 L70.9215 178.806 L71.1686 178.7614 L71.3872 178.7212 L71.4883 178.636 L71.5911 178.477 L71.5428 178.254 L71.3969 178.0522 L71.2981 177.8593 L71.2297 177.7003 L70.9408 177.5868 L70.2821 177.9917 L69.9464 178.179 L69.1174 178.8166 L68.4438 179.3796 L67.8498 179.7792 L67.2311 180.2671 L66.8709 180.3965 L66.492 180.4945 L66.1956 180.6747 L65.9049 180.4649 L65.7719 180.1421 L65.5389 180.0282 L65.2359 180.287 L64.9199 180.5197 L64.662 180.2207 L64.506 179.9955 L64.2791 179.558 L64.0947 179.1782 L64.0206 178.908 L63.8669 178.6629 L63.8411 178.2947 L63.7799 177.9078 L63.8258 177.3298 L63.74 176.8834 L63.6449 176.5465 L63.534 176.2021 L63.4524 175.8784 L63.8029 175.6643 L64.398 175.6757 L64.6956 175.8188 L64.9082 175.6682 L65.2241 175.7747 L65.6036 175.923 L65.9032 176.2423 L65.9959 176.5606 L66.0887 176.7037 L66.3211 176.7346 L66.6075 176.7236 L67.1736 177.0207 L67.4597 177.2208 L67.6214 177.4195 L67.9515 177.5489 L68.1925 177.5701 L68.5035 177.6734 L68.6865 177.5449 L68.8523 177.4857 L68.9896 177.525 L69.2455 177.6129 L69.6591 177.9255 L70.0357 177.8191 L70.655 177.525 L71.004 177.3877 L71.1071 176.947 L71.2329 176.5518 L71.4989 176.0573 L71.8795 174.8981 L71.9427 173.9192 L71.9941 173.6503 L72.1518 173.422 L73.9399 172.8206 L75.721 172.0611 L76.704 171.487 L77.3908 170.7889 L78.9203 169.2933 L79.56 168.6737 L79.8289 167.9562 L79.9058 167.2991 L80.2396 166.9692 L80.6021 166.7957 L80.8474 166.8345 L81.6316 167.0977 L82.1868 166.9833 L82.4574 166.8447 L82.5145 166.5992 L82.5645 165.7928 L82.9701 165.0708 L82.8098 164.8032 L82.4729 164.8425 L81.4828 165.1004 L80.7273 165.1459 L80.1882 165.1318 L79.6057 165.0488 L78.8683 164.8633 L79.0059 163.6944 L79.7099 161.8247 L80.0078 161.1252 L80.368 161.1976 L80.9836 161.5734 L81.6327 161.9934 L82.8917 162.9088 L83.3004 163.2104 L83.71 163.4277 L84.0174 163.527 L84.2995 163.7558 L84.4942 163.9276 L85.0549 164.2883 L85.4231 164.5356 L85.6216 164.586 L86.0281 164.6089 L86.4911 164.6187 L87.0179 164.4941 L87.3787 164.2711 L87.8342 163.9117 L88.5276 163.5421 L88.7991 163.4211 L89.3023 163.1875 L89.807 162.9216 L90.3487 162.6341 L90.4975 162.5714 L90.6463 162.4398 L90.6808 161.8388 L90.6644 161.6066 L90.7041 161.3438 L91.0413 160.8316 L91.3047 160.5282 L91.4437 160.3462 L91.6077 160.0932 L91.6537 159.7329 L91.7051 159.5152 L91.6675 159.1416 L91.1272 158.4973 L91.0048 158.0301 L91.0726 157.4657 L91.2693 157.1844 L91.5078 157.0947 L91.7103 156.9194 L91.7913 156.7132 L91.7668 156.4579 L91.5905 156.174 L91.4991 155.9183 L91.5928 155.4908 L91.5353 154.5736 L91.6738 154.3903 L92.0139 154.2203 L92.705 153.9735 L93.4578 153.7999 L95.0083 153.3976 L95.3835 153.2965 L95.4722 153.3278 L95.5696 153.4281 L95.6836 153.5875 L95.7526 153.7743 L95.7692 153.9584 L96.097 153.8321 L96.4175 153.8149 L96.589 153.924 L96.9955 153.8379 L97.4355 153.9227 L98.0132 154.1285 L99.4563 154.8796 L99.9716 155.1084 L100.4237 155.3491 L100.9674 155.4895 L101.5339 155.4922 L102.2264 155.6692 L102.7635 155.6511 L103.1766 155.7646 L103.951 156.2438 L104.6553 156.4222 L105.0207 156.5039 L105.4558 156.6121 L106.1544 156.8497 L106.955 157.1495 L111.4658 158.2398 L115.5854 158.2831 L115.8402 158.1559 L116.5488 158.1665 L117.4875 158.4187 L117.777 158.5957 L118.444 158.7137 L118.9702 158.7428 L119.5447 158.93 L119.8302 159.2241 L120.1229 159.3774 L120.3294 159.4586 L121.1673 159.4816 L121.8349 159.38 L122.0017 159.4648 L122.368 161.293 L122.424 161.4683 L122.5627 161.7474 L122.5929 161.8649 L123.0433 161.7439 L123.3888 161.5686 L123.8326 161.2886 L124.364 160.8408 L124.742 160.5388 L125.1605 160.2888 L125.5003 160.1343 L125.86 160.1091 L126.1377 160.235 L126.5505 160.3127 L126.757 160.601 L127.0876 160.9512 L127.1566 161.7055 L127.0678 162.6946 L126.5617 164.3431 L126.3072 164.6067 L125.5469 164.9971 L124.3945 165.3433 L123.6109 165.9156 L121.3848 166.6009 L119.279 167.2955 L116.3348 168.7095 L114.6401 166.2852 L109.4037 169.1952 L105.7356 170.6392 L105.3134 169.5706 L103.6531 170.6966 L102.9609 174.5913 L101.2662 172.8647 L100.5509 170.6833 L99.9563 171.3192 L100.2953 171.9507 L100.1086 173.4608 L101.6798 174.4411 L101.7803 176.5077 L101.8837 178.5786 L103.1505 179.5014 L103.6847 179.4484 L101.1283 184.7338 L104.3052 188.902 L103.8772 193.5778 L102.5042 195.5956 L95.688 195.6045 L94.3006 197.0394 L92.9132 198.4744 L94.3552 198.4744 L94.5333 200.2139 L90.2247 205.6401 L81.4322 211.1323 L81.6189 213.2074 L83.5176 215.534 L85.4134 217.8694 L86.0769 217.2116 L90.6756 223.3349 L96.2423 228.0939 L97.1471 230.3939 L95.6391 232.4687 L99.7754 239.289 L101.6769 240.5912 L102.4008 239.4832 L109.823 243.2972 L111.5178 245.0187 L113.0545 243.4473 L113.4107 243.8799 L115.5248 246.6961 L114.2322 248.0778 L117.8715 250.0906 L119.7242 249.2829 L123.4871 244.1668 L125.7563 245.341 L127.4424 243.9417 L130.3061 248.1087 L129.7891 249.6978 L129.6081 252.5405 L128.1404 254.7431 L129.3238 256.9016 L133.5663 258.0713 L133.9024 260.0576 L132.4576 260.0576 L131.2885 258.5612 L127.1264 258.1198 L123.9696 255.9525 L122.3955 254.7872 L117.3717 259.8898 L112.8563 257.9168 L103.5354 266.6033 L96.8139 281.6009 L77.9451 285.4936 L74.4868 289.4524 L71.1232 287.1486 L73.4642 282.6778 L88.7626 276.7195 L88.3834 275.6294 L90.2132 273.7447 L93.6687 271.9219 L94.628 273.043 L96.0528 271.2996 L98.6954 266.0163 L81.9406 268.3865 L74.9004 269.9225 L72.0251 272.2309 L69.687 270.4521 L68.5064 266.6033 L73.4211 261.7613 L74.0444 258.1242 L73.1224 251.3178 L69.3997 246.2282 L71.7235 243.4384 L70.0259 241.2445 L67.8199 238.6136 L67.8199 237.1215 L70.9824 236.5432 L67.3575 233.0205 L65.7719 227.4802 L63.5285 225.9925 L63.632 223.2951 L62.5175 222.8449 L59.7485 222.7168 L58.3295 224.1339 L58.769 226.456 L57.1949 231.1487 L57.1518 234.6759 L54.4834 234.3272 L54.3053 235.7795 L52.622 236.04 L53.0357 241.6197 L55.4198 244.5773 L62.0062 248.0734 L64.2294 250.9691 L62.4715 260.4283 L62.9541 263.7299 L61.7534 265.0099 L61.9573 269.7989 L63.3562 274.9717 L65.9046 274.6403 L66.309 274.5878 L66.5273 271.7895 L67.2713 270.4301 L67.8917 270.4786 L67.1047 270.9553 L66.7428 274.7113 L64.0941 275.0035 L63.5429 275.0644 L63.0919 277.3948 L65.5306 282.2409 L64.8757 287.1619 L62.3882 290.4939 L61.874 292.8815 L69.9541 303.0936 L71.554 303.1466 L71.554 304.5631 L74.0013 305.8385 L74.2081 309.3601 L73.559 309.6028 L74.3518 310.5515 L75.1445 311.6768 L74.7079 315.5204 L76.7244 320.0876 L76.5434 323.7325 L78.7437 327.4082 L78.2783 331.9752 L76.9398 333.9828 L76.4687 336.9347 L76.2619 337.954 L77.6837 338.3952 L76.733 351.2965 L71.8298 358.5499 L70.5372 364.2015 L71.307 364.2191 L72.703 364.2059 L74.211 364.1794 L75.6472 362.0265 L78.5656 360.0102 L80.4843 360.9676 L80.1425 363.9588 L84.8992 367.7883 L84.612 368.6133 L78.0457 367.3383 L76.17 368.8824 L74.2943 370.4309 L75.0009 372.6897 L71.6488 374.8514 L68.5868 373.947 L63.9393 377.9527 L59.625 384.592 L58.1974 390.115 L59.2027 390.2297 L59.2027 391.7074 L56.4194 393.8469 L57.215 399.2373 L60.0702 403.0264 L61.6443 404.438 L62.5203 407.8124 L60.6389 412.7217 L53.3401 417.3883 L48.7184 430.5804 L48.7184 433.4516 L48.7184 436.3227 L47.5695 436.3227 L47.5695 438.1707 L50.8699 448.0804 L47.6304 454.7374 L44.4819 456.9212 L53.2896 464.4356 L53.7365 463.8875 L53.1069 462.8397 L53.497 462.2668 L54.3294 461.1265 L56.5897 460.674 L57.3345 460.4306 L58.6443 461.6424 L60.9641 460.6498 L62.4589 463.248 L65.4528 461.4149 L66.5486 460.8235 L66.6652 461.0392 L76.093 452.3203 L78.1344 450.4892 L80.0627 448.1523 L81.4414 447.3717 L81.8548 446.8218 L81.9668 446.5536 L82.501 444.8438 L83.3105 443.848 L83.4274 443.0528 L83.6247 441.7959 L83.1672 441.597 L83.1341 440.3635 L83.0896 439.9454 L82.1064 438.845 L82.3092 437.8946 L79.259 436.0444 L78.2085 435.988 L77.3428 437.2842 L75.1328 438.0119 L73.2378 437.7746 L69.3584 438.2646 L68.4961 439.0801 L67.8633 439.9238 L66.3561 439.7694 L65.6768 440.1831 L64.537 439.1542 L64.0427 436.6253 L63.7871 434.5846 L62.4655 433.1151 L62.8929 431.8903 L63.7589 429.4213 L65.2437 427.3091 L67.489 428.7606 L70.5105 429.2003 L74.593 427.7974 L93.6402 409.5291 L95.3582 410.3372 L94.5858 411.5581 L95.5386 413.5597 L101.9297 416.687 L103.4377 421.1771 L102.5875 421.5828 L103.1935 423.4926 L104.4833 423.8428 L104.7303 424.3174 L102.3347 425.4157 L99.942 426.5095 L100.0109 427.3859 L97.331 430.041 L96.2771 430.6386 L94.3853 431.2442 L92.1782 431.7006 L91.1352 433.2337 L90.6472 435.9545 L90.0288 437.4364 L89.2963 438.6598 L89.2894 439.0545 L89.1058 441.5723 L87.9015 441.4894 L87.7205 442.6431 L87.2664 444.304 L86.5692 446.1625 L86.0714 447.3823 L84.5698 448.3697 L82.8937 450.8839 L78.9505 454.3647 L73.06 458.8236 L67.4359 463.7838 L63.5943 465.9173 L58.6624 468.2253 L58.1712 468.8669 L57.6146 469.1844 L58.189 470.2154 L55.6168 471.5701 L53.8198 472.3761 L53.5576 473.2969 L52.8093 474.9244 L52.0389 476.6071 L50.9782 478.6911 L50.3184 481.3764 L49.9921 483.6759 L49.9717 485.1742 L50.3979 486.3343 L51.5136 488.0725 L51.8069 489.1065 L51.6446 490.1726 L51.2571 490.8622 L49.6928 492.4588 L43.0779 500.975 L42.8777 502.1496 L43.1167 502.62 L43.9241 502.9829 L47.5382 503.0345 L48.2448 503.2029 L49.1395 503.769 L49.3558 504.8611 L49.1961 505.8324 L49.7562 506.6613 L51.0098 506.3249 L51.8172 506.5233 L52.5364 506.9629 L52.9225 507.8879 L53.5602 510.5292 L53.9804 511.2774 L54.9174 511.463 L55.6119 512.0 L56.4759 511.8646 L58.1816 510.1245 L58.8767 509.4292 L59.575 509.099 L62.7886 509.1788 L63.501 508.8768 L64.0981 508.4033 L65.8842 506.3236 L67.1753 505.5749 L69.4836 504.4908 L67.1248 504.3418 L66.9352 504.0508 L64.8188 505.6636 L62.5672 501.4181 L67.2403 499.7185 L68.3605 501.1774 L68.5673 501.4975 L71.8757 500.6139 L68.9689 503.5217 L67.3891 504.2315 L69.1182 504.2315 L70.7575 503.9013 L72.5252 499.729 L71.6253 498.3173 L72.749 494.2318 L72.0372 492.271 L67.4798 489.7158 L65.154 486.9172 L65.1078 484.2509 L65.4077 481.697 L64.2877 479.214 L66.9036 475.727 L67.6102 475.7133 L71.0186 476.6018 L72.9135 478.494 L75.0161 478.2536 L75.3436 479.0906 L75.5837 477.6729 L74.8783 475.9523 L77.9954 474.6387 L78.4828 475.8359 L81.9395 473.8357 L83.0052 475.4439 L82.3299 476.0162 L82.8058 476.6411 L77.5467 481.4412 L77.8015 481.7005 L79.884 479.7515 L82.7027 479.4182 L82.6384 481.4536 L85.1422 482.7535 L86.2041 484.0481 L86.6522 482.1481 L85.9678 478.5963 L85.1261 477.538 L86.8783 478.1729 L88.3329 480.0673 L90.202 481.3098 L90.9965 480.215 L94.2767 481.816 L94.5996 481.1983 L93.1321 479.0963 L92.0719 477.3576 L92.3051 476.9431 L95.1833 476.3677 L96.2024 476.9872 L96.7085 476.7134 L98.3182 475.6013 L98.6419 474.8296 L100.9901 473.3445 L101.3385 473.5853 L102.2761 475.1947 L103.3963 475.5682 L104.4249 474.946 L103.9521 473.0292 L104.79 472.747 L107.9017 473.8922 L109.2374 473.494 L112.4237 471.7513 L113.577 472.0335 L113.9004 473.0623 L113.5936 473.7841 L114.3873 474.1382 L116.2946 476.5547 L117.7997 477.4939 L118.3478 476.705 L118.8855 475.372 L117.5199 472.717 L116.3635 472.7845 L115.7758 472.4401 L115.4354 472.3986 L114.6312 471.8968 L114.2865 469.6863 L115.3194 469.6937 L115.5768 471.212 L116.481 471.1789 L116.4031 469.8776 L118.7712 468.6319 L118.132 466.5492 L114.2575 467.3209 L113.436 467.2794 L112.5564 466.3252 L111.9176 466.8561 L110.756 467.9779 L109.8222 469.5315 L105.9631 468.4308 L104.281 469.1853 L102.2166 468.9459 L102.4065 467.0166 L103.1887 466.8808 L104.0122 466.3022 L104.1679 465.9517 L103.9688 465.4789 L102.5406 464.1203 L104.4307 462.2964 L104.8814 462.3008 L105.9269 462.0023 L106.2587 461.687 L106.1148 460.913 L104.84 459.8613 L102.8805 460.9862 L101.608 458.2058 L102.2907 457.5695 L103.2656 457.5562 L103.7792 456.168 L101.7585 455.1228 L98.5762 452.442 L97.8974 451.3201 L100.8158 448.2701 L101.2472 447.9547 L101.9555 448.4376 L104.0185 449.9962 L106.0975 452.1597 L109.03 452.8173 L111.5695 454.2457 L116.0246 456.2271 L118.7545 455.8372 L119.468 455.6048 L119.2606 453.8461 L121.9696 453.1366 L133.2455 450.9139 L136.1558 453.5736 L137.1086 457.7361 L137.3751 459.1231 L140.2122 458.6419 L144.0184 457.3587 L147.4963 456.6588 L149.7819 456.5239 L155.4589 456.6231 L152.8631 451.2513 L147.3895 447.6429 L146.987 445.2416 L141.9308 440.4817 L140.2943 439.7324 L137.6049 439.0571 L131.3985 440.6338 L129.8687 439.5043 L128.178 434.204 L129.7917 433.9799 L128.6229 431.78 L127.6581 429.843 L126.321 430.3841 L123.8682 426.8795 L123.7292 424.3836 L124.6645 422.9643 L130.8806 418.7468 L129.8695 417.2648 L129.4731 415.2667 L128.801 413.3215 L127.6693 412.7702 L128.4391 413.7185 L127.9795 416.3165 L122.5392 405.3422 L127.5486 402.9779 L137.5762 406.9654 L140.5635 410.1104 L136.3324 409.9384 L134.4367 408.7651 L135.0686 409.9781 L138.1765 412.4041 L142.264 412.7702 L144.8261 412.8231 L144.1138 415.4872 L144.6308 420.1141 L143.3842 422.5664 L142.7253 425.1788 L142.7916 428.5476 L142.9576 429.5682 L142.7669 430.7797 L142.3188 434.7125 L142.0948 435.3679 L141.1638 438.1045 L144.7026 442.5236 L145.8975 442.85 L147.2473 444.188 L147.2142 443.4414 L146.8225 441.6592 L146.6001 440.7697 L147.6009 437.5929 L147.6207 434.9198 L147.3303 433.7003 L148.1018 432.9532 L149.0727 432.7375 L149.4461 431.9079 L150.1099 430.8706 L151.2052 429.8006 L153.9348 428.0413 L155.7298 427.4445 L156.1586 425.9507 L156.6116 423.6691 L156.5404 422.1836 L156.2583 420.433 L155.4368 417.9687 L154.7761 416.5899 L154.1838 414.3259 L153.2296 412.2435 L152.6793 411.791 L151.1512 411.4028 L150.5336 409.0606 L146.8138 406.0347 L145.8401 402.9823 L144.3895 402.1839 L140.0608 406.1097 L138.7366 402.5809 L139.7362 400.4239 L144.4757 401.2841 L144.9439 397.9493 L146.8052 395.479 L148.4683 395.5408 L146.877 392.2633 L151.2804 392.4971 L154.0638 396.0834 L166.6679 391.0766 L169.6437 394.2483 L170.4796 392.8985 L171.5136 395.9202 L171.5136 397.7684 L165.5189 398.6639 L165.0507 403.0441 L164.5911 404.4115 L165.6223 403.4323 L169.9108 406.22 L167.4291 409.5282 L169.1468 409.6561 L172.1197 411.4734 L168.3253 415.8092 L167.2222 415.6416 L167.205 416.6561 L168.5292 416.043 L169.3593 420.1847 L171.594 421.3226 L172.5161 421.7593 L175.1702 423.0163 L176.8793 422.3547 L178.6444 425.9008 L178.8601 426.8465 L179.8091 430.7127 L178.221 430.9372 L177.8476 431.2525 L175.9199 433.2399 L175.5235 432.3666 L174.633 433.5883 L174.8312 434.563 L175.3741 436.7638 L176.5059 436.2169 L176.1095 434.219 L178.2638 434.3204 L179.1005 435.0362 L180.171 435.2435 L181.1333 435.0856 L182.2619 435.5421 L183.2327 435.2104 L184.7511 435.5589 L184.9751 435.6003 L185.7217 435.924 L185.8877 436.9278 L184.9918 438.9689 L184.4524 440.1222 L183.3571 442.7278 L184.1786 442.9183 L186.8999 442.0888 L187.4144 440.3793 L188.5013 437.94 L189.897 438.3074 L190.7084 437.9982 L191.1732 436.231 L191.4056 434.9282 L191.6627 433.7581 L192.2265 433.456 L192.6832 433.0943 L192.6775 432.4195 L195.9405 431.6521 L196.8735 431.8418 L197.4043 430.0992 L198.3171 431.1859 L198.3054 430.1914 L198.0986 429.2383 L197.9021 428.8713 L197.078 428.5251 L196.8982 426.6974 L196.4834 426.0914 L195.0932 426.9682 L195.5292 428.2075 L194.3509 428.5807 L193.364 429.5748 L193.5627 430.6386 L192.7694 431.6918 L191.8037 431.6755 L191.4636 430.8459 L191.0238 430.2567 L190.7251 429.5183 L190.2853 429.2859 L186.7172 428.0929 L182.5006 419.7524 L187.8921 417.0398 L187.5732 414.1464 L184.3245 412.1924 L185.0139 410.0751 L184.0574 409.6782 L183.7012 411.1823 L180.0906 413.1672 L178.5682 413.1672 L176.2387 410.0796 L172.8378 410.0796 L172.6626 408.7607 L173.1078 408.7607 L173.9781 408.0947 L173.2256 407.3227 L173.9839 406.1935 L179.9614 403.4631 L186.7373 403.9042 L186.9585 402.3427 L188.1735 400.5959 L188.1735 399.277 L187.0964 399.2638 L186.5392 398.611 L187.6422 398.611 L184.448 393.7543 L185.2782 393.097 L187.8834 397.6581 L188.7021 396.8289 L188.2568 395.0247 L190.4456 393.9528 L191.2729 400.8381 L192.0513 408.3328 L195.4982 406.9875 L198.1695 405.6686 L198.8158 407.7197 L193.3956 413.7758 L198.8704 419.5363 L201.1281 418.6277 L204.2245 424.9658 L204.8421 428.1502 L205.5918 427.6827 L206.349 426.6806 L206.8327 425.1202 L208.3206 423.3691 L209.336 423.5443 L210.4174 423.3515 L211.0442 425.2772 L213.6316 433.2267 L213.8959 434.7306 L211.1861 435.0027 L209.5017 435.4923 L207.7096 436.0317 L206.1548 436.7858 L204.7059 436.7867 L204.5069 435.9571 L204.2828 436.5878 L204.1501 436.1313 L199.5425 435.476 L199.126 438.1707 L198.6607 440.4111 L200.1658 440.9095 L202.4637 439.3482 L204.2495 440.0142 L205.038 438.9275 L206.548 438.9522 L208.3981 437.9568 L209.1616 438.5791 L209.8668 438.2139 L211.9079 436.878 L214.1113 436.2875 L214.5382 437.5501 L214.3724 439.2261 L215.4815 440.8477 L215.9985 439.8236 L216.8315 438.4397 L217.4505 438.1892 L217.6912 437.4756 L217.9983 437.4588 L218.3912 437.6811 L220.1434 440.4728 L220.7696 441.1926 L221.6074 442.0058 L222.0389 442.3291 L222.6447 444.4451 L224.0137 445.5984 L226.5445 445.5239 L227.4737 446.6524 L227.6065 445.1419 L227.6398 442.9183 L226.2705 440.5536 L225.416 438.7947 L226.8763 436.8198 L225.8307 434.7703 L224.1383 434.9613 L223.4329 434.4386 L223.1758 433.3435 L222.8604 432.5219 L221.2093 433.7418 L221.259 435.9487 L220.8356 438.7661 L219.9814 437.5916 L219.5499 436.8282 L219.1955 435.2246 L216.5793 434.754 L216.3469 434.3059 L214.9116 432.663 L215.0859 430.9041 L215.31 429.4517 L215.3183 428.1079 L215.8491 427.4772 L216.0416 426.289 L216.2111 425.0761 L215.177 424.4101 L214.5224 422.064 L214.4816 420.7267 L214.5876 419.4715 L214.1636 418.9902 L213.8945 417.5797 L214.1392 416.8299 L214.718 415.8842 L214.5143 415.354 L212.9977 414.392 L212.6102 412.5104 L212.5918 412.4217 L216.3937 408.9932 L216.8861 408.549 L217.9222 413.5685 L216.789 415.7126 L217.4086 415.7453 L217.7998 415.998 L219.0432 418.3939 L222.7257 417.7985 L223.4926 420.1979 L224.4663 419.7612 L225.8629 419.0392 L226.6784 419.0392 L227.9391 420.0038 L231.3084 423.0031 L233.4857 421.3006 L238.7996 422.7605 L248.1924 420.0038 L249.5855 421.7681 L251.4899 421.327 L252.7308 424.8467 L253.6701 423.9249 L248.8789 417.525 L249.1518 417.3001 L250.8025 418.2241 L249.057 415.5887 L248.4882 416.0562 L245.3343 410.4986 L245.3343 407.8697 L247.8187 407.4132 L250.2645 406.3126 L251.0228 404.7798 L253.1214 404.9717 L253.6031 407.7735 L254.6811 409.9296 L254.3683 410.8678 L251.4899 416.4444 L251.3865 418.5968 L254.5002 422.0676 L255.0928 422.6436 L256.5051 423.0472 L257.7425 422.7098 L259.1744 424.6271 L260.9171 425.817 L265.6178 426.9805 L266.7699 429.0297 L268.0243 429.6908 L271.7461 431.6521 L272.3579 429.9276 L273.6332 429.6881 L274.5714 428.717 L274.769 428.4042 L273.8719 427.3841 L272.3659 427.1371 L271.0823 426.3057 L270.0781 426.0592 L269.3459 425.2194 L269.7572 424.2733 L272.4096 423.6867 L274.769 423.2611 L276.3649 421.7549 L277.6822 422.1254 L278.9328 423.4009 L279.6736 424.0426 L280.7022 424.6765 L281.8914 424.8599 L282.2823 424.9481 L283.049 424.2336 L285.2036 425.8863 L285.4589 426.6431 L288.9087 428.7412 L288.9862 426.7344 L297.4434 420.4145 L300.5703 418.1447 L299.9588 417.3742 L301.981 415.1604 L302.9271 414.0895 L303.1374 414.0965 L303.6714 413.3361 L305.0803 411.888 L305.7524 410.9088 L306.1718 410.6706 L306.7204 409.0342 L310.6077 407.2963 L313.8253 406.3417 L314.9444 406.366 L316.9278 406.7775 L317.7424 405.3047 L318.3597 404.2183 L317.8002 401.9554 L316.2166 402.1861 L314.1298 402.4901 L313.8813 404.4953 L311.7155 404.5923 L311.5952 403.8892 L311.2166 403.4861 L308.9477 403.3577 L308.8877 403.3542 L307.5299 403.5271 L305.3492 404.2924 L304.2381 404.745 L303.0323 405.0423 L301.0503 407.0669 L302.2079 408.9504 L298.782 411.8633 L295.317 416.0342 L294.5242 416.0254 L292.6083 414.9888 L289.96 417.1898 L287.6305 416.4664 L286.987 415.7034 L290.0031 413.0789 L288.495 411.6498 L286.6438 412.637 L286.1417 413.1142 L285.4506 413.1552 L284.9238 411.9458 L285.2119 410.275 L284.0744 408.7916 L283.1216 407.403 L283.9739 406.9213 L283.3687 406.2756 L283.4425 405.1071 L285.9673 404.2836 L284.9792 402.0075 L284.6193 400.9268 L283.0722 401.5602 L281.0314 403.0498 L279.7477 404.1362 L278.5192 404.8746 L279.3608 406.7052 L277.4018 407.2213 L275.4429 407.7418 L275.9045 408.7858 L276.6435 410.256 L276.6452 411.5096 L275.6247 412.0772 L276.2089 414.1349 L275.9705 415.7065 L277.1718 417.3525 L275.5753 418.3891 L274.5139 418.6524 L274.426 419.3996 L274.0696 421.8043 L272.9749 422.693 L271.6829 422.7261 L271.0739 422.4628 L270.5965 421.8867 L269.5022 418.9161 L268.6875 416.8422 L267.9304 415.369 L266.3503 413.9205 L265.4615 412.6617 L265.4096 412.1306 L265.544 411.3367 L266.2351 410.7937 L267.4036 408.8842 L267.6834 407.1317 L268.778 405.6916 L270.2237 404.5129 L269.2816 403.5999 L268.5971 402.4901 L269.0989 401.9387 L269.5185 401.5439 L272.332 402.5456 L273.6993 401.6237 L269.2471 400.4724 L269.5918 399.7411 L270.0795 398.7062 L270.1111 398.6387 L270.1935 395.1826 L266.024 398.0618 L265.6919 398.1615 L266.6958 399.0666 L265.513 400.6842 L264.2577 402.0295 L267.9488 402.8632 L266.2828 404.9673 L263.0743 403.5116 L260.5733 404.4075 L259.6105 404.8028 L259.6929 403.8067 L260.0959 402.5478 L260.2766 401.7472 L261.2905 400.9135 L264.1244 399.5457 L265.82 397.948 L270.0864 395.1742 L269.4858 394.6312 L268.4859 393.8778 L269.0578 392.4997 L273.7321 388.4426 L273.946 387.9327 L275.9292 385.7601 L277.6402 384.8037 L275.8105 383.0877 L275.847 382.1966 L276.4476 381.489 L277.1226 380.7072 L277.962 379.6128 L278.5873 378.9299 L277.6805 378.2659 L276.2503 377.2839 L275.6577 378.0246 L274.0859 378.4194 L271.8805 378.4111 L271.543 376.9795 L272.0037 376.856 L273.4356 376.6336 L276.632 376.5542 L277.1088 372.8794 L276.655 370.4882 L272.835 369.1369 L271.7734 369.7047 L271.7734 371.334 L270.9587 372.1488 L269.8313 372.9963 L268.2432 374.2227 L267.7822 375.9754 L266.1679 377.3527 L268.7444 380.9658 L267.0928 381.8216 L265.6566 382.1083 L265.3004 380.3967 L262.9996 379.1129 L259.6964 369.1559 L263.8797 368.0759 L264.6217 368.7359 L264.956 368.9561 L265.4268 368.6706 L266.03 367.1353 L266.7337 366.3677 L265.8284 366.2494 L265.0821 365.5162 L260.2191 367.5589 L250.0738 369.7515 L247.7586 370.7088 L246.4804 371.225 L241.4675 372.2092 L237.7598 375.7954 L237.5559 374.0087 L238.3659 373.1485 L239.6613 370.4485 L238.4693 370.1265 L238.7163 368.0044 L236.6982 367.7005 L233.9263 365.8824 L232.8664 364.5209 L232.2276 363.8706 L225.9456 359.2778 L225.5521 357.6719 L226.2788 355.6102 L226.9567 354.9409 L227.5263 354.8354 L228.9473 355.8056 L229.6338 354.46 L232.5694 357.2484 L232.0495 359.1234 L230.6937 359.5381 L231.1274 360.3544 L234.2038 361.8059 L233.4397 361.0382 L233.8763 360.0102 L236.0191 360.3896 L235.5975 362.491 L242.5763 365.2387 L243.7422 366.6328 L246.7705 367.6912 L246.7705 366.6015 L249.5424 366.65 L251.8691 366.4074 L249.4993 363.9809 L245.6359 363.9809 L245.8514 363.1956 L245.8887 361.5588 L248.691 361.6757 L248.1447 359.5884 L247.9971 356.441 L248.5715 354.0805 L248.8378 353.4412 L250.3297 352.6669 L250.8677 351.5745 L247.4191 350.5796 L247.9818 348.4031 L248.2441 345.2519 L244.5821 344.9867 L242.8985 344.6342 L239.6088 346.0223 L238.3041 345.9406 L228.1539 348.1992 L225.7762 349.4611 L219.3489 346.0955 L217.2451 345.6446 L216.7318 344.6607 L216.6339 343.6414 L216.7238 342.3209 L218.8109 342.1413 L218.8677 341.212 L221.3383 341.5412 L221.6072 341.4159 L221.8599 341.269 L222.1615 339.7445 L223.2168 338.6114 L224.4933 338.7742 L225.8304 340.5273 L226.0749 339.3779 L226.0993 338.2443 L226.662 337.0543 L227.2572 336.9153 L227.5016 337.4779 L227.2 340.2338 L227.6978 340.8573 L230.1393 341.9207 L230.8287 341.2588 L230.2858 340.8044 L230.642 338.0996 L233.0548 335.9331 L234.0487 338.2364 L235.1083 338.8479 L236.2823 339.0597 L237.0044 340.1249 L238.2654 340.3984 L239.3804 341.3996 L239.674 342.549 L240.9539 342.2639 L241.5735 341.2853 L241.8507 340.5842 L242.6498 340.0543 L243.1858 339.6263 L245.1772 339.932 L244.8673 338.5377 L244.9569 337.7876 L245.7885 337.3393 L246.498 336.3691 L244.5789 336.542 L243.5058 336.6219 L241.7447 335.7253 L242.2925 335.3727 L243.1634 334.8283 L243.245 334.1518 L243.9461 333.7278 L245.0643 334.1682 L244.8862 332.9194 L245.5814 332.134 L247.2014 329.7822 L245.0629 330.1405 L244.1366 330.85 L243.496 330.3072 L245.0327 326.2565 L247.5949 325.6917 L247.7779 324.841 L247.6311 323.8874 L247.559 323.7947 L246.7705 322.7838 L246.4603 321.6806 L246.1556 321.2133 L245.2913 321.4821 L243.4127 323.5781 L242.2953 321.1908 L242.4935 318.755 L244.0245 320.0259 L244.1136 318.7726 L245.837 319.4257 L246.4115 319.3066 L242.1747 316.1073 L239.5887 315.8156 L236.3064 315.4454 L234.8759 313.6053 L233.2875 314.2363 L232.4803 314.0863 L231.656 313.2787 L228.4754 309.8534 L227.9477 309.285 L226.3564 310.8119 L225.7989 309.7422 L224.9116 308.0406 L223.0416 307.7273 L223.7195 306.8491 L222.6826 307.0741 L220.5599 305.5296 L219.9032 304.5159 L217.9546 303.5133 L215.9327 302.6165 L215.2887 301.0918 L215.5007 299.7957 L216.4383 298.4095 L216.0387 296.078 L216.0959 294.5206 L215.0767 291.4794 L214.18 289.4661 L214.8484 288.5693 L215.8233 288.9272 L215.0592 287.7224 L221.9415 283.3707 L218.3883 281.4729 L214.4474 274.3803 L213.6173 269.6577 L215.8175 268.0113 L216.4724 268.0069 L216.8258 267.9054 L220.9534 266.5504 L225.127 264.6745 L225.1129 263.5317 L225.5696 262.5695 L226.0505 261.037 L225.7489 260.7678 L225.1781 260.5069 L224.4281 260.3193 L223.621 260.0995 L223.6618 259.7649 L224.2977 258.7378 L226.3113 258.8111 L226.4483 258.292 L227.4608 258.0042 L229.8119 258.7201 L230.9149 261.1478 L237.194 264.9128 L242.8127 263.9881 L244.5413 263.9881 L246.1243 264.3699 L252.0127 266.1973 L260.8338 271.7851 L265.6566 271.7895 L274.1847 274.3803 L279.7687 284.6639 L279.5217 293.4111 L276.3276 300.6708 L276.6378 305.2516 L276.9451 307.8376 L280.5012 307.0609 L280.8229 308.804 L279.8032 309.0953 L281.0211 311.3326 L282.9973 314.3775 L285.4015 314.5628 L286.9554 319.3242 L292.9559 319.7743 L294.2485 321.1423 L299.3815 331.7634 L306.2637 322.2852 L308.1394 323.2515 L308.7828 320.6834 L311.4714 321.2482 L318.0636 328.3525 L325.3307 335.4433 L315.78 338.8982 L322.016 339.4983 L321.5248 341.2853 L327.2696 339.4939 L327.5252 336.4626 L332.7559 334.2211 L336.4613 337.5481 L340.6263 337.7025 L344.1622 344.6474 L335.8236 347.7051 L336.0304 354.632 L342.6369 355.3865 L342.5479 359.4631 L343.8548 359.3043 L344.1564 357.5837 L345.0383 357.5837 L343.987 367.6206 L343.5619 368.6133 L344.5207 368.7006 L344.8343 368.6133 L344.496 371.0296 L344.8909 375.4077 L345.1871 377.6951 L345.5082 379.4892 L344.7143 383.3629 L344.4351 384.7243 L345.7564 382.845 L354.0375 377.9086 L355.8299 375.5396 L355.655 374.4693 L356.7864 371.5073 L356.0511 360.9058 L356.3642 359.1278 L357.8291 359.1367 L364.6941 358.2455 L364.9699 362.6794 L363.5193 365.1103 L364.2575 367.7309 L360.0 377.4564 L359.0536 378.7649 L356.0005 379.0282 L355.0294 378.9299 L352.898 380.2957 L349.9932 382.0404 L350.9066 382.5671 L350.7337 383.3404 L352.4947 382.3117 L355.6713 381.3901 L355.9017 382.6245 L356.6095 383.9329 L357.0127 385.6529 L357.5045 387.7549 L357.4407 388.5331 L358.9384 392.4997 L359.5968 393.2324 L360.3703 392.9691 L360.6254 393.1909 L361.4153 398.4742 L360.7242 398.5814 L360.1442 398.5933 L359.7191 399.9828 L358.3789 401.618 L358.7885 403.397 L359.8268 403.1301 L366.317 401.4605 L367.2738 401.4058 L373.1005 401.0732 L377.6802 400.8121 L397.4338 392.8058 L403.101 389.4003 L415.6477 386.1712 L417.2619 385.086 L416.0986 383.2641 L416.834 377.6615 L419.2698 370.2632 L418.6378 366.3412 L420.1372 360.2308 L408.3546 357.2351 L410.5118 354.0761 L417.7503 355.5983 L421.4557 349.5405 L427.8726 337.8393 L427.2636 337.7201 L421.6998 336.7538 L420.479 335.536 L416.7133 335.5669 L424.7388 338.0422 L425.1553 339.2821 L426.5944 338.6158 L424.6814 342.5825 L423.7392 342.5825 L423.4807 344.2371 L418.8992 350.3347 L412.4995 351.4642 L409.0612 352.1834 L407.1769 355.8189 L395.6328 347.9301 L387.8313 352.351 L386.0274 350.1979 L384.7693 345.7372 L384.0627 345.9446 L386.0734 353.1408 L383.4078 353.8732 L384.5568 352.8981 L383.2096 349.6111 L383.8272 349.9156 L383.336 348.1639 L382.7529 346.1564 L381.4776 346.5579 L380.6158 342.1898 L379.5128 342.6972 L380.6245 350.2068 L381.0553 352.5099 L380.3372 352.5099 L380.343 354.1335 L377.8239 354.4953 L376.3388 350.8686 L372.9006 351.0053 L372.8 348.6052 L372.6966 346.2049 L371.7918 346.3594 L369.9535 342.8031 L368.1295 342.8031 L368.1295 341.4794 L372.6133 341.9207 L373.1562 340.3014 L375.7873 341.0823 L382.5375 336.7627 L384.2437 340.7514 L385.7948 341.1397 L384.649 338.3723 L385.7977 337.729 L385.2404 335.1565 L381.6011 335.5581 L381.9257 333.8902 L383.4251 333.3474 L389.9827 333.9078 L390.405 327.4744 L390.7066 326.4242 L400.122 328.8838 L401.8957 325.2747 L386.9584 323.7206 L384.5912 323.1147 L384.3672 319.7479 L380.3975 319.8847 L379.6162 316.6589 L377.2436 316.8001 L376.6088 314.7923 L374.5034 316.4957 L367.4286 317.8724 L367.285 316.9811 L366.251 313.1684 L366.5698 310.8119 L372.036 308.4598 L369.853 307.692 L369.1119 306.8358 L366.5238 306.5534 L365.6822 301.7653 L376.5658 304.5234 L377.9675 303.5128 L380.617 304.7767 L380.6963 303.3143 L385.7477 303.3359 L386.5968 303.4444 L389.4054 303.9321 L391.103 298.6717 L390.4509 296.1076 L386.375 296.0061 L385.025 292.4225 L387.0242 288.4108 L387.3028 287.2854 L389.7271 286.8044 L390.0402 285.5245 L391.3701 283.918 L386.6622 281.3317 L386.4497 281.0227 L390.3878 279.9812 L392.4128 277.7082 L399.7058 283.4104 L401.8156 286.3489 L403.4015 282.0635 L402.6184 279.4171 L401.1573 278.6699 L401.1205 274.1177 L395.5437 273.043 L396.0378 276.415 L394.142 275.8809 L394.5412 274.6893 L392.9787 274.0228 L391.6085 276.6268 L390.1177 274.9938 L387.8773 272.7075 L386.1883 273.2725 L384.5022 273.8418 L384.89 278.5026 L380.2654 279.2971 L380.0672 282.5675 L379.2026 282.5675 L378.6856 282.7131 L381.2219 284.3638 L381.7677 286.9235 L376.0143 290.6219 L371.8636 290.7764 L373.0126 294.7042 L370.8813 294.7042 L366.2739 293.8083 L363.3383 287.7665 L363.7175 284.5138 L364.7171 284.1166 L361.006 282.3468 L360.6613 282.8764 L361.0921 280.7226 L359.5468 280.8418 L357.2575 279.3015 L356.6485 280.6608 L356.3527 281.8128 L357.3235 281.9054 L357.6883 283.7238 L343.7112 281.0978 L342.9845 284.6903 L346.9456 286.2395 L348.1376 284.7565 L349.2435 286.2659 L353.8393 284.3064 L358.1192 286.4336 L359.0096 287.2943 L360.9227 286.0453 L363.4102 288.9051 L364.6625 292.4314 L361.0347 294.0466 L359.6559 295.3176 L362.3847 294.2629 L362.6691 294.6998 L362.7868 295.8031 L364.2317 294.8807 L365.5444 295.7722 L364.3006 297.6743 L361.8131 296.8446 L363.818 298.4334 L363.5681 298.6673 L362.9104 299.0159 L363.12 299.6073 L358.7684 296.9152 L363.278 301.0371 L362.2784 301.9859 L357.2862 298.2392 L356.4819 299.669 L353.1155 298.3098 L350.2115 298.1156 L351.6821 300.4413 L358.2197 302.6479 L358.2197 304.1924 L356.2435 304.2013 L354.2702 304.2057 L354.6493 305.1192 L353.3826 304.5146 L350.2488 303.7423 L351.3978 304.8544 L342.3497 303.8438 L342.2578 304.8588 L331.9602 303.9894 L325.0435 304.9206 L325.6151 300.3178 L321.7345 295.2691 L322.3664 294.7881 L331.9545 291.5664 L334.9332 292.7182 L335.5163 291.2574 L337.8285 289.4083 L336.5446 287.7753 L331.4949 289.1832 L328.4703 286.6499 L332.2245 286.4469 L331.3312 285.0567 L332.2676 284.5535 L333.5889 284.5447 L332.8708 283.9798 L332.1211 283.3663 L335.387 279.7825 L332.2044 279.1249 L330.9549 279.0411 L330.142 281.0625 L327.9618 280.8021 L327.6287 278.1539 L326.6405 278.1539 L325.6524 278.1539 L325.4858 279.4339 L314.8378 280.1974 L315.9954 276.2605 L315.2658 275.2763 L312.9076 274.6231 L312.1493 272.9679 L305.3273 274.2347 L305.8702 270.7346 L310.8337 268.2232 L313.5596 272.9988 L315.441 272.456 L317.3253 271.9131 L318.4714 273.2592 L318.0291 270.7787 L319.0718 269.3972 L317.3225 267.261 L317.4776 263.5887 L319.7238 260.1679 L318.8621 259.7706 L318.9511 257.8682 L313.2523 260.9756 L311.9741 259.5058 L311.0664 254.3194 L312.201 248.2411 L312.2354 245.3321 L315.6364 236.5653 L316.1218 236.168 L316.8658 236.3843 L316.3803 235.5588 L315.2658 236.4417 L310.7677 227.3964 L305.2555 227.6127 L304.033 224.6606 L305.0326 221.6538 L308.5194 222.4215 L309.1735 223.3084 L310.107 222.6771 L310.3914 218.514 L308.4238 213.6444 L309.297 211.7372 L310.4143 207.6887 L306.5843 201.4285 L305.7924 199.3331 L306.3844 196.6818 L307.6942 189.5378 L306.6113 187.2153 L304.289 186.7053 L301.0905 184.4512 L300.1064 182.2272 L299.9625 180.5475 L299.6371 177.0375 L297.5072 173.0462 L295.3543 170.2241 L294.8922 168.9435 L294.7741 166.4618 L294.1563 163.8172 L293.6685 162.7613 L295.7878 161.554 L298.0352 160.4505 L298.514 161.123 L304.3794 155.8503 L304.9424 155.285 L303.0926 153.9867 L302.9978 152.3307 L302.3917 149.1687 L300.4126 149.2526 L299.6428 147.5612 L300.2259 146.1524 L304.592 146.0155 L305.7582 145.6225 L305.6806 144.3417 L311.1095 143.0743 L311.3737 140.7248 L313.0828 138.309 L311.615 138.309 L311.098 135.8225 L314.5707 132.6294 L317.5666 132.6426 L318.0722 132.5543 L316.162 131.7417 L312.1119 131.1499 L311.5489 129.3656 L303.647 122.2017 L303.5033 118.1029 L291.5053 112.8027 L289.2907 117.6082 L292.1574 122.7229 L289.6814 122.5462 L282.4257 126.5212 L281.2623 124.3262 L282.4544 123.1248 L281.5065 121.9985 L282.0838 121.5259 L279.3895 116.4201 L284.4277 112.679 L283.724 108.1913 L284.8299 107.944 L284.5685 105.7619 L285.7232 103.7212 L293.6625 107.4669 L294.4151 105.2584 L294.6046 104.852 L295.294 103.4165 L287.7741 102.7097 L292.3355 99.9357 L299.1919 103.7654 L305.1521 103.0587 L309.972 100.5983 L309.837 101.9367 L308.7972 102.4668 L309.3142 103.0498 L311.2301 100.1036 L311.3622 93.6632 L313.9273 91.3839 L316.9807 91.6489 L317.7131 92.3734 L316.4378 95.6775 L320.0225 97.0204 L319.5141 98.8933 L320.4603 98.5315 L323.8514 96.4947 L328.2031 96.3489 L328.792 99.6795 L322.5933 103.5269 L321.4099 101.2962 L321.1629 101.5701 L321.7144 104.1144 L324.9286 106.3185 L331.8654 107.5244 L338.8741 104.6709 L340.5545 107.1092 L341.2007 105.3997 L339.7559 104.4633 L342.1946 104.3396 L347.0719 104.799 L350.8951 103.4297 L352.3543 102.6037 L351.4696 100.214 L353.305 101.8219 L356.999 101.5922 L364.9153 97.6299 L367.6958 94.1756 L369.109 95.1077 L368.8103 98.0098 L373.8571 99.9932 L373.1562 102.2018 L375.8965 106.3185 L374.4603 108.717 L375.5633 110.2806 L370.6429 111.4864 L369.7093 106.0181 L368.1353 109.8654 L368.322 114.0615 L366.6933 116.9501 L370.0081 114.2028 L368.862 116.0049 L371.1685 118.4298 L375.7615 123.2573 L375.0233 124.4498 L375.8793 124.5867 L377.6802 125.3243 L369.5743 125.8941 L374.1616 134.1134 L375.0491 134.1134 L375.9367 134.1134 L376.1895 135.6061 L374.0122 138.309 L374.6384 141.056 L376.5313 144.4345 L379.9782 146.7707 L380.771 145.618 L386.6881 147.782 L387.8055 147.7334 L387.096 146.8104 L391.755 148.8507 L397.7497 151.8935 L395.9918 153.2581 L398.1949 155.6869 L400.6968 156.6187 L408.3431 158.8311 L409.9948 158.968 L409.0986 158.3409 L408.0329 155.1261 L411.092 155.9342 L410.9312 156.9057 L412.4737 157.1707 L417.3826 158.5176 L417.9398 160.1162 L423.0699 162.5626 L429.1112 169.991 L429.6549 171.0869 L428.9911 171.9105 L427.6876 172.3741 L427.1717 173.3637 L431.5148 180.3404 L431.4864 179.796 L431.7742 179.3478 L433.0377 178.7561 L434.8212 177.9564 L436.2772 178.5212 L438.196 178.1635 L439.7011 180.2918 L443.9552 178.1679 L445.0295 177.2053 L443.8891 176.4679 L449.542 173.7169 L450.9983 173.7125 L449.0221 172.2333 L448.4045 171.0278 L449.1485 170.2771 L457.1969 169.756 L460.9512 169.6633 L461.4941 172.145 L461.7595 173.1491 L462.5109 173.1809 L464.0324 171.2578 L464.0304 170.7544 L465.0199 170.5668 L465.3439 171.2048 L466.1669 171.1307 L466.7293 171.0225 L467.6789 170.7642 L468.1299 170.4365 L468.6328 170.0201 L469.0522 169.7525 L469.284 169.6474 L469.3644 168.562 L468.939 168.3673 L469.1186 167.8338 L469.7131 167.9672 L469.9286 167.0752 L470.1647 167.2443 L470.2362 167.6956 L470.1184 168.1363 L469.9134 168.4799 L470.5117 168.6106 L470.9615 167.2964 L471.4567 166.0547 L471.5951 165.6493 L471.544 165.3928 L471.3593 165.1212 L470.8569 164.7313 L470.4723 164.6187 L469.9337 164.6853 L468.1646 164.0698 L467.2007 163.8547 L466.7491 163.9519 L466.4467 164.306 L465.2365 164.4085 L464.5902 164.4085 L464.3492 164.4751 L464.2725 164.7056 L464.2315 164.9163 L464.1441 165.1009 L464.1082 165.4546 L464.1186 165.6904 L464.0416 166.0339 L463.8827 166.2137 L463.5699 166.2649 L463.3442 166.306 L463.175 166.3828 L462.9802 166.5418 L462.4058 166.7056 L462.1237 166.6597 L462.0418 166.6239 L461.8982 166.5316 L461.8675 166.4852 L461.6262 166.4751 L461.4518 166.5828 L461.3444 166.7418 L461.1255 166.8403 L461.0365 166.8389 L461.0161 166.7056 L461.139 166.5722 L461.2212 166.3519 L461.1701 166.1571 L461.1494 165.9107 L461.0006 165.6957 L460.8621 165.6237 L460.7237 165.6701 L460.5752 165.7368 L460.4879 165.7981 L460.3032 165.8339 L460.1495 165.7368 L459.9596 165.5725 L459.7853 165.629 L459.7083 165.6851 L459.5391 165.8441 L459.334 165.716 L458.8675 165.7107 L458.6162 165.788 L458.3804 165.9827 L458.0518 166.1805 L454.1781 166.9078 L452.9372 168.8729 L449.6713 165.4064 L447.1407 165.5257 L446.3508 164.2583 L446.3307 159.838 L452.901 156.1554 L456.8761 155.1128 L456.8221 154.3422 L457.3796 154.0945 L458.9744 153.5954 L458.9778 153.1256 L458.6963 150.8778 L456.1859 150.0784 L447.0258 152.9931 L444.8054 147.9145 L450.7427 144.5626 L457.1136 146.0376 L458.3057 145.4856 L458.8974 145.5165 L456.2146 143.5203 L455.5941 144.1872 L455.7722 141.2901 L457.2774 141.2901 L457.8174 139.9431 L458.3603 138.5961 L457.1653 138.1986 L461.9881 129.4009 L463.4674 126.0089 L463.0739 124.8871 L461.9852 125.5982 L461.4653 124.5028 L464.8576 122.7803 L460.9713 122.9835 L458.8974 117.0473 L449.4903 119.1939 L447.172 118.5742 L445.2446 118.2778 L445.0556 118.1149 L445.1866 117.7553 L445.4684 117.7151 L445.9727 117.7536 L446.4901 117.6228 L446.694 117.3733 L446.781 117.0583 L446.9002 116.4811 L447.145 116.1083 L447.6922 115.9148 L447.9148 115.7355 L448.3413 115.573 L448.6653 115.5915 L449.002 115.5332 L449.085 115.2187 L449.0752 114.9762 L448.9733 114.8618 L448.848 114.618 L448.7159 114.2554 L448.6665 113.9246 L449.8275 113.7479 L450.1337 113.7921 L450.9305 113.7201 L451.6845 113.6158 L452.0347 113.5284 L452.7643 113.4621 L452.9556 113.2457 L453.5002 112.933 L453.8035 112.8141 L454.2941 112.7417 L454.9743 112.7002 L455.1377 112.7051 L456.9269 111.9193 L461.698 114.4104 L462.7464 113.5182 L460.0062 111.6984 L453.2101 110.3733 L452.604 108.4564 L445.4115 111.0491 L445.1242 110.2276 L448.8411 108.5712 L448.8411 105.6824 L452.0553 104.1895 L452.4066 103.8988 L452.5658 103.1788 L452.2182 101.8188 L453.7716 100.8876 L454.517 103.6417 L456.634 103.7698 L455.5683 101.5392 L455.5941 100.5409 L457.4871 101.5392 L462.149 108.5624 L464.1223 105.0331 L465.8745 105.3202 L466.3743 104.4722 L465.6016 103.6947 L467.1326 102.8732 L472.4034 97.7713 L472.5212 104.8211 L473.696 107.8777 L475.4482 108.7037 L476.4305 108.1648 L475.7096 107.0562 L478.7141 102.2768 L480.0038 100.9649 L478.9956 100.457 L477.7461 98.7828 L478.266 98.2528 L477.0855 96.3092 L479.5816 94.423 L480.4347 95.1077 L480.2508 96.6802 L482.2845 94.1094 L487.406 88.9455 L488.5291 90.4209 L485.8463 95.4125 L484.0884 96.9188 L481.8766 95.7791 L483.7006 99.2555 L484.7634 99.9534 L484.3411 98.964 L485.1454 98.3588 L485.9468 97.7536 L487.5726 99.5161 L489.0576 97.9259 L490.2066 94.5997 L488.8795 92.4529 L492.0622 91.8654 L491.6083 92.9255 L492.7659 92.1569 L494.9259 88.7202 L495.9485 86.2685 L496.118 85.7781 L496.3822 84.74 L495.7733 85.2436 L495.9686 84.7577 L493.6449 84.3601 L493.0273 86.0785 L491.2895 85.0183 L490.2583 86.0785 L489.2012 85.4071 L489.2012 86.2994 L488.5808 86.2994 L489.1007 85.4159 L488.0465 84.8195 L488.9427 81.8863 L486.3719 81.6301 L486.0617 80.4771 L485.7515 79.3241 L484.749 80.0309 L485.1799 81.4269 L481.417 82.655 L481.5607 84.3115 L479.4581 84.3115 L478.6452 86.3127 L475.2615 85.84 L475.5602 84.581 L475.8072 82.6373 L473.1819 82.2706 L472.4925 84.5324 L471.5475 84.2232 L470.028 83.0304 L468.497 84.3645 L467.8334 81.2192 L470.117 81.8421 L470.6857 80.3578 L471.0534 79.6687 L473.6616 73.8197 L473.8569 72.3883 L472.7194 72.2469 L473.1014 70.175 L476.9964 69.72 L476.7034 68.2842 L474.8737 67.4271 L469.2208 63.3494 L465.9348 61.6264 L453.0205 62.1168 L450.4784 62.3191 L450.221 62.7406 L447.8975 62.8546 L444.8344 62.8926 L444.7299 63.8124 L447.3469 65.3746 L448.5186 66.3112 L450.074 67.4492 L450.3965 68.0421 L450.7047 69.147 L450.9133 69.6162 L451.2071 69.9956 L451.5676 70.2704 L451.9945 70.4127 L453.273 69.4324 L454.9438 68.5824 L455.0671 68.2365 L455.0717 67.6056 L455.4117 66.8731 L455.4988 66.6169 L455.6275 66.2343 L455.6835 65.8862 L455.8966 65.7351 L456.1666 65.6869 L456.7865 65.7664 L457.3084 65.8667 L457.666 65.994 L458.0015 66.0112 L458.3807 65.9811 L458.869 65.8813 L459.5038 65.7757 L459.9777 65.6052 L460.389 65.5363 L460.7869 65.58 L461.1586 65.743 L461.5104 66.3465 L461.6526 66.7185 L461.6411 66.8987 L463.4102 66.699 L463.3304 66.2224 L464.2978 66.3116 L463.6084 68.0783 L468.1144 68.9535 L467.6151 74.151 L466.5093 74.151 L466.5093 76.5233 L462.7407 77.3936 L461.6319 77.5129 L461.8876 78.4582 L460.136 79.1319 L459.5339 79.4699 L459.2904 79.5476 L459.0996 79.6364 L458.933 79.6877 L458.7064 79.6881 L458.3057 79.6086 L457.9518 79.5211 L457.7036 79.5034 L457.4845 79.6311 L457.2409 79.7089 L456.852 79.6324 L456.4653 79.5317 L456.1772 79.5578 L455.8515 79.7389 L455.5864 79.7985 L455.2552 79.8286 L454.8462 79.8869 L451.5084 80.3768 L449.8175 81.5241 L449.0971 80.948 L448.3815 80.6021 L447.6893 79.4579 L446.6228 78.5236 L440.6462 78.9707 L438.6125 78.2815 L438.8136 79.2578 L433.0199 80.3357 L430.8768 75.6018 L430.2093 75.7418 L429.0339 75.9402 L428.7559 75.3707 L428.3922 74.4664 L428.0128 73.3881 L427.4886 71.7203 L427.097 71.1257 L426.9643 70.8907 L427.1479 70.3234 L427.0089 69.3944 L427.0703 68.9795 L426.9034 68.0977 L427.7902 67.8618 L428.2584 67.5632 L428.1986 67.2513 L428.626 67.06 L428.6545 66.7472 L428.6022 66.5873 L428.7099 66.3814 L429.9447 65.8703 L431.6171 65.4475 L432.2662 65.4073 L434.2373 65.2858 L436.4166 65.409 L437.8746 65.5358 L439.6426 66.0664 L441.954 66.6703 L442.9981 67.0339 L444.5291 66.8934 L445.9075 66.2599 L446.9224 65.9255 L447.157 65.9431 L447.3857 65.9608 L446.9051 65.4126 L444.544 63.9105 L443.3402 61.0012 L442.7582 60.661 L441.8224 59.1227 L439.4553 60.5736 L438.996 60.5992 L438.7518 60.4936 L438.541 60.1817 L438.3336 59.9131 L438.107 59.7341 L437.658 59.9069 L437.8321 60.1967 L437.5621 60.4857 L437.1114 60.6063 L436.8138 60.6133 L436.2456 60.5767 L435.4279 60.551 L434.6538 60.6628 L433.4252 60.8775 L432.4432 61.1369 L431.8741 61.3485 L431.1138 61.6052 L430.7973 61.6847 L430.5612 61.5429 L430.4494 61.3454 L430.4196 60.9173 L430.5023 60.6005 L430.6792 60.1711 L431.0908 59.428 L430.7677 59.4536 L430.479 59.6551 L430.1533 59.9201 L429.785 60.3628 L429.2491 60.7861 L428.8403 60.5638 L428.304 59.8764 L428.005 59.3524 L427.9243 58.4061 L427.8183 57.6091 L428.0478 56.2806 L429.3125 55.2759 L429.7695 54.8601 L430.3104 54.5248 L430.5658 54.2142 L430.7404 54.147 L430.6663 53.8744 L430.5442 53.4905 L430.2877 53.1145 L429.7578 52.2654 L429.2924 51.3817 L428.4471 49.6887 L430.2481 46.777 L429.9982 44.9346 L439.5949 48.2704 L447.3762 39.7651 L448.3902 38.4042 L449.5736 38.7665 L450.3118 37.0566 L452.9602 37.3217 L455.4448 33.2832 L459.6528 35.8724 L459.739 37.4852 L461.609 37.1361 L464.3636 37.3615 L458.8974 34.2464 L455.439 32.3994 L452.6298 13.5092 L451.9232 8.9444 L450.1136 8.8383 L448.304 8.7367 L448.1288 9.8149 L444.6991 10.1331 L444.5325 7.8131 L445.8854 6.3283 L446.1727 6.3459 L446.1009 4.2292 L445.94 3.1244 L440.2929 4.7816 L439.0549 9.2183 L434.9215 12.6254 L436.6363 13.0143 L434.0913 22.5679 L433.9477 22.3514 L433.8702 22.1746 L433.1636 19.7089 L433.1751 22.6784 L431.7159 22.6784 L432.0749 19.0196 L431.015 18.6351 L428.0306 18.2595 L428.0607 17.9047 L428.3121 14.9454 L428.9038 14.9454 L429.0991 15.5949 L429.2255 13.9113 L429.4553 10.058 L428.0909 9.6426 L426.0113 9.6426 L424.7905 13.2706 L423.5697 17.0532 L427.9473 18.3126 L427.5107 18.9312 L427.8755 21.8653 L428.5534 20.1375 L429.1537 24.4459 L426.7552 25.1131 L426.3646 28.0913 L421.7774 27.2252 L421.1253 30.5834 L424.1413 30.8971 L424.3166 33.2434 L421.5559 33.8523 L421.871 34.7453 L421.9618 35.3992 L422.1758 35.6113 L422.407 35.9254 L422.7402 36.9766 L422.4593 37.8753 L422.3923 38.7232 L422.4532 39.751 L421.3261 40.7067 L421.2213 41.1383 L420.8783 41.6968 L420.6436 42.8491 L420.5462 43.929 L420.3268 45.1573 L419.1267 45.4339 L418.9891 45.6738 L418.9492 47.5153 L416.4631 47.3059 L416.3827 47.0744 L416.4608 46.0599 L415.8881 45.3102 L416.0007 43.6144 L416.4537 41.6964 L417.2714 41.0195 L417.3398 39.6171 L417.5977 38.4294 L420.4877 33.3097 L420.6284 27.2076 L420.3986 27.4638 L411.3908 30.632 L411.2012 29.0855 L409.7075 28.4536 L405.9016 28.7143 L405.1815 22.2798 L402.2861 22.6876 L402.0764 22.8184 L401.3391 23.0747 L400.984 23.0442 L400.8749 22.9179 L400.49 22.9408 L399.842 22.9351 L399.4798 22.7994 L397.6098 22.738 L396.9791 23.1123 L396.5048 23.3306 L396.0639 23.6054 L395.7273 23.7336 L395.656 23.62 L395.7462 23.3447 L394.5028 23.0394 L393.6996 20.195 L396.4198 17.7116 L396.1153 16.0589 L397.833 16.3329 L399.3238 15.5066 L398.2466 6.8144 L394.6332 5.9659 L392.6627 0.053 L392.6426 0.0 L392.2519 1.0606 L390.2757 0.3403 L391.2523 5.6831 L392.5449 12.8729 L389.167 12.5591 L387.1879 14.5035 L386.0533 13.0319 L385.3926 13.3103 L386.0648 15.8291 L383.4251 16.0987 L382.5748 10.1419 L379.1538 10.5043 L380.0816 16.492 L379.0561 16.492 L377.4648 14.0616 L377.1833 10.9727 L378.473 8.529 L377.3442 8.9841 L376.7726 9.9652 L375.885 11.3925 L376.7295 11.6311 L376.5198 12.2409 L377.5079 15.6126 L376.2642 15.6126 L378.6856 18.0209 L379.7398 21.4588 L379.2572 22.369 L378.7746 23.2749 L379.7685 24.004 L378.4702 31.6174 L381.828 31.8471 L380.2195 33.5527 L370.8727 32.2978 L369.5944 26.1824 L370.2407 12.8375 L358.3835 11.8918 L353.239 12.294 L353.193 9.4879 L351.1278 9.2051 L339.6927 11.282 L340.6378 24.0128 L330.6217 24.6668 L330.7107 26.5448 L315.4324 31.339 L314.384 28.4139 L309.3429 28.1576 L308.0791 28.0913 L307.7344 26.7657 L306.3011 23.9731 L305.9506 25.6124 L303.285 24.3089 L303.354 22.5502 L299.91 21.4853 L299.1689 17.8176 L296.4832 17.8176 L296.6728 20.9727 L297.6207 28.648 L296.9026 29.7527 L298.2641 32.0769 L298.4824 33.2301 L300.2863 33.5041 L300.7717 35.3422 L287.8545 34.485 L287.6305 40.4013 L275.9829 48.8757 L273.1966 50.1349 L273.1966 52.0171 L272.6825 52.2821 L272.6222 49.4103 L268.8564 49.8521 L269.2385 51.7255 L269.9192 54.4956 L259.4235 42.0096 L254.3422 52.0833 L251.9696 54.7607 L247.8477 50.8816 L243.3438 44.6386 L242.3815 45.235 L245.9347 50.4044 L248.1349 53.3955 L250.3524 53.8771 L251.0791 54.7828 L245.7681 56.4794 L245.8686 58.8563 L243.97 58.6265 L243.1628 57.0979 L243.6827 56.5103 L238.5497 56.3733 L239.1587 58.0257 L240.0204 59.7929 L238.2625 62.6513 L240.9941 70.175 L240.8534 71.222 L237.7684 71.0586 L236.5908 70.8642 L235.7836 67.352 L233.8735 67.5685 L234.8156 73.0156 L232.0007 73.9787 L233.1266 77.4643 L228.8008 78.8779 L227.2669 81.5682 L227.6633 82.7963 L225.802 84.9344 L220.5312 87.0946 L219.7872 87.7572 L220.7179 88.2873 L220.7179 89.8643 L217.7248 90.8096 L216.5615 92.9299 L211.1786 92.2673 L208.3349 94.8471 L207.1687 96.4594 L206.5569 101.5392 L208.7083 105.2717 L211.9025 110.8901 L210.7391 134.4623 L219.6263 133.5613 L219.6263 138.1367 L214.8869 139.3778 L214.8869 140.0844 L214.8582 142.3632 L215.4614 139.9916 L217.4002 139.1437 L218.7445 139.126 L220.0859 139.1039 L219.4712 147.4552 L216.9952 153.6378 L217.6875 159.5068 L216.1048 165.6007 L216.4581 167.7513 L217.1963 167.2346 L217.0153 165.168 L220.4565 162.8938 L220.7839 166.0247 L223.843 169.4823 L227.738 175.598 L225.7561 168.5991 L226.9969 168.078 L226.0117 165.614 L234.6749 164.6381 L242.821 169.3763 L248.4767 169.31 L249.0685 173.4917 L238.7996 176.1765 L229.6596 181.0955 L228.459 179.3204 L226.7643 180.0181 L225.0695 180.7113 L227.017 181.4973 L227.6719 182.4422 L224.4089 184.8663 L225.937 195.5117 L225.6153 198.5847 L224.0527 192.7345 L224.1762 198.364 L224.2739 202.9999 L221.0223 204.9381 L219.882 208.2317 L217.0469 209.7196 L214.2205 219.6751 L208.8721 217.2381 L207.5422 218.8098 L202.4218 224.1869 L200.3462 227.2569 L197.5379 230.4142 L196.596 230.8499 L190.121 232.9499 L187.9093 235.5588 L186.2979 227.9217 L196.627 223.719 L202.9664 217.2381 L202.3977 211.6445 L198.6865 210.1787 L183.3278 215.1322 L177.8616 205.331 L177.5141 197.1056 L179.9585 197.7017 L181.6733 197.556 L182.3483 195.3351 L186.6512 197.2778 L197.934 194.8759 L198.3936 194.0944 L196.0813 189.1007 L202.1621 183.9258 L206.6632 186.5398 L206.8384 183.9788 L206.8442 182.3141 L208.1138 182.4687 L208.1626 181.091 L206.6977 174.6796 L205.0374 175.0726 L204.1384 172.2686 L204.5491 168.6344 L204.1154 164.4747 L205.092 164.4747 L205.1868 163.2029 L206.1634 159.5288 L204.1182 157.5991 L199.3759 148.8551 L198.0115 147.2521 L197.2274 151.8449 L195.6504 151.9995 L194.0706 152.1584 L193.4444 153.7703 L193.3151 153.1874 L184.764 150.785 L184.1034 148.0293 L183.4054 150.3125 L182.7074 152.5956 L186.2979 162.1652 L184.6347 166.6605 L182.0008 164.9516 L178.2523 165.8569 L175.8423 164.4261 L167.4779 155.3866 L165.7688 155.5323 L164.1172 152.1275 L160.3773 158.9857 L155.2845 154.5387 L155.5718 153.077 L152.2858 152.2379 L151.6624 149.0671 L152.2398 143.2818 L149.083 145.4856 L145.2225 145.2294 L144.4297 144.2004 L142.7149 140.3935 L142.4823 139.3203 L139.5754 139.1923 L139.021 137.0724 L138.4638 134.9525 L135.4994 135.5487 L135.4133 133.5613 L137.8261 129.9441 L138.7855 128.5264 L137.3062 128.3718 L136.3267 130.0325 L135.0571 130.0325 L135.284 128.6545 L131.0128 128.4027 L131.4436 124.5647 L126.0435 126.4373 L126.7042 121.2433 L120.9823 121.0843 L121.7062 116.557 L113.652 117.5332 L112.9655 120.4218 L111.7418 120.5587 L111.9199 119.7018 L110.4435 120.2407 L107.2953 122.078 L100.7089 122.078 L100.7089 120.753 L99.7639 121.8307 L99.4623 123.4296 L97.5206 122.8775 L96.8427 122.5595 L95.6679 130.4697 L88.3174 128.5176 L87.3781 134.2458 L85.9769 134.5705 L86.2139 135.7042 L86.6746 137.0079 L88.0543 139.225 L86.6896 140.2385 L85.9396 140.1652 L84.8705 140.6974 L84.4974 140.8038 L84.0125 140.6417 L83.3725 140.844 L83.1379 141.1191 L81.851 141.3704 L80.6231 141.676 L80.6156 141.086 L80.7055 140.3639 L80.8158 140.0332 L81.0218 139.6039 L81.1708 139.1689 L80.8141 138.9904 L80.5378 139.0699 L80.3648 139.3676 L80.2273 140.1974 L80.0141 141.2565 L79.7246 141.5912 L78.4435 142.1159 L77.9782 142.4153 L77.4117 143.0226 L77.0082 143.746 L76.7439 144.6977 L76.4851 145.1429 L75.8856 145.7722 L75.1414 146.341 L74.6919 146.579 L74.3523 146.0932 L73.8181 145.7616 L73.4653 145.138 L72.9719 144.3824 L72.5364 144.0101 L72.1584 143.7265 L71.7014 143.432 L71.4061 143.1617 L71.1335 142.7903 L70.6601 143.2544 L70.6418 144.2609 L70.3462 146.6475 L70.1029 148.5482 L69.8407 149.2795 L69.1998 150.1279 L68.1465 150.9338 L67.182 151.5565 L66.4572 151.6837 L65.7084 151.7292 L65.2796 151.6612 L64.8122 151.4748 L64.1039 150.7987 L63.767 150.2891 L63.3967 149.8466 L62.9756 149.2725 L62.2756 147.8924 L61.8399 146.8745 L61.4512 145.9444 L60.4663 145.8879 L60.1604 146.1215 L59.8039 146.5115 L59.5164 146.6735 L59.3024 146.6841 L59.1401 146.5168 L59.035 146.3233 L57.4678 139.9651 L55.3077 142.2087 L48.3916 143.5097 L48.1468 143.5556 L48.8362 147.1461 L42.0056 150.445 L42.6146 151.8935 L43.0656 153.7527 L40.8021 155.6957 L41.3909 156.6673 L38.6564 160.1692 L29.5452 166.612 L20.6407 168.0824 L18.1274 170.2727 L17.6997 170.6489 L15.6178 172.4792 M66.5049 465.2055 L67.3951 464.4404 L68.1362 464.3408 L84.2917 472.2677 L83.802 472.9287 L75.638 469.0173 L69.7984 466.297 L69.2443 466.6431 L66.5049 465.2055 M85.6931 475.8152 L85.802 475.6181 L86.0916 475.7865 L86.3547 475.9735 L86.4971 476.0118 L86.6201 476.0524 L86.7493 476.0326 L86.8826 475.9285 L86.9013 475.8275 L86.7462 475.6943 L86.5859 475.6375 L86.3437 475.5083 L86.1691 475.421 L85.9298 475.2358 L86.3061 474.5787 L86.5836 475.0038 L86.7195 475.2172 L86.8723 475.2966 L87.0317 475.3892 L87.3698 475.4814 L87.6981 475.6322 L88.359 476.0952 L88.1706 476.3792 L88.0471 476.5022 L88.3806 476.7623 L88.3418 476.8175 L88.2915 477.3484 L88.3337 477.4233 L88.4834 477.7562 L88.5564 478.1196 L88.6985 478.5006 L88.9637 478.7947 L89.3885 479.0544 L90.1827 479.4032 L90.4533 479.5694 L90.6455 479.6872 L90.6983 479.8622 L90.794 480.1793 L90.2195 481.148 L89.8662 480.928 L89.1125 480.5492 L88.679 480.1947 L88.5018 479.9923 L88.384 479.7044 L88.2887 479.3988 L88.1841 479.1254 L88.0798 478.725 L87.9172 478.684 L87.7323 478.7012 L87.5286 478.7757 L87.4169 478.7263 L87.3749 478.6148 L87.3913 478.49 L87.4333 478.255 L87.3267 477.6557 L87.1569 477.4921 L86.9906 477.5393 L86.8576 477.1733 L86.5896 476.716 L86.3771 476.4329 L86.0157 476.0445 L85.6931 475.8152 M88.6557 477.0353 L88.8022 476.7712 L89.107 476.5 L89.3474 476.4819 L89.6961 476.2588 L89.9388 476.1327 L90.1457 476.2253 L90.3209 476.3602 L90.5102 476.5181 L90.74 476.6883 L90.7222 477.056 L90.6084 477.1142 L90.4789 477.2178 L90.4139 477.3753 L90.0305 477.7408 L89.8926 477.9688 L89.7134 478.0049 L89.2997 477.7805 L89.1725 477.6927 L89.107 477.583 L88.9579 477.4295 L88.7939 477.2456 L88.6557 477.0353 M91.0019 400.2708 L92.1003 395.8099 L96.1849 394.9276 L98.8763 391.1428 L105.8505 392.8764 L110.2999 389.568 L110.2022 387.2211 L112.2703 384.0935 L115.1427 382.9509 L117.8026 379.832 L116.0418 378.9012 L116.4037 371.2426 L115.6282 369.9941 L117.432 368.2647 L117.5441 368.1897 L119.5117 370.7529 L121.6085 372.1029 L130.0304 370.3427 L131.5327 371.8735 L136.1429 368.6133 L136.1831 374.5161 L139.1273 374.8028 L140.776 376.8983 L139.8942 379.9776 L142.5024 381.8525 L140.4917 383.3656 L142.1697 385.0547 L145.1501 391.3598 L135.1777 388.4034 L135.1433 390.0091 L133.1222 390.085 L130.6629 389.5724 L129.9436 387.8709 L127.2585 392.872 L120.6089 399.7137 L118.5896 395.9996 L98.0858 406.2619 L91.0019 400.2708 M101.6424 331.3839 L125.3398 327.0729 L123.3291 327.9686 L110.8341 332.8753 L101.6424 331.3839 M102.5271 427.0829 L104.9457 426.0552 L105.5202 425.9405 L105.0204 426.558 L105.5202 427.2416 L108.6396 425.5568 L108.7057 425.5348 L108.8953 426.7477 L103.0643 428.825 L102.5271 427.0829 M128.9619 347.608 L129.7403 340.469 L132.7276 338.1702 L134.655 338.1702 L136.5823 338.1702 L140.4716 341.8765 L144.0822 342.1942 L143.7949 344.1268 L143.6599 345.3666 L141.1121 346.1123 L138.211 345.2563 L135.0715 347.4712 L132.6529 347.3256 L133.664 350.3479 L132.087 350.9656 L131.0616 350.9656 L128.9619 347.608 M141.0259 232.8174 L143.005 230.0451 L146.6673 228.4205 L146.6673 225.4142 L145.9406 225.1361 L147.4056 212.9645 L154.8709 209.3222 L154.8968 209.3134 L158.1512 214.3067 L166.754 225.6702 L172.0996 227.9438 L170.9535 230.3409 L169.8505 232.7998 L169.4857 233.9475 L161.9629 234.208 L153.4117 236.6624 L145.6103 234.7819 L141.0259 232.8174 M147.0781 347.4845 L147.8335 343.7915 L151.2632 341.9207 L151.6567 341.7221 L149.2611 346.002 L148.9653 350.5244 L147.6669 348.7728 L147.0781 347.4845 M153.2739 333.2151 L157.2004 331.578 L157.4274 329.4953 L164.2981 326.5831 L163.5341 323.0574 L160.8857 319.1433 L160.8857 317.0296 L161.6412 316.6501 L161.9629 316.5751 L163.9736 317.1267 L165.2058 316.7295 L166.3031 318.2387 L167.4003 319.7479 L166.3318 321.2438 L166.2112 330.4705 L165.8981 332.5841 L156.7926 337.2436 L155.3018 337.398 L154.0178 334.7682 L153.2739 333.2151 M174.2367 360.372 L179.5305 356.366 L179.1255 354.8659 L180.7254 354.46 L181.0356 352.9511 L183.4686 352.2628 L184.1436 353.2378 L184.0229 348.4287 L183.0176 346.1873 L185.0139 343.8532 L184.4681 342.8119 L184.2929 343.1384 L182.9889 343.465 L181.86 343.465 L181.2568 341.8898 L180.2113 339.8204 L180.2227 339.7807 L180.3865 339.9351 L186.1542 339.6572 L185.8756 341.1794 L189.4288 342.6752 L188.8141 344.14 L188.1678 345.5519 L189.2507 346.0329 L189.6615 344.8063 L190.1153 343.5047 L191.0057 344.2371 L190.4715 347.1447 L191.7526 348.7596 L195.298 348.1013 L196.0235 348.0603 L197.2417 348.7287 L199.0645 347.2943 L200.5076 348.2725 L201.0784 348.3294 L201.8002 348.0227 L201.1137 346.6815 L202.2035 346.5764 L203.0514 346.4705 L204.9254 347.1183 L205.4565 349.7805 L205.7498 350.6122 L206.2881 350.8161 L206.924 348.5906 L207.6088 348.8187 L210.8713 351.5304 L211.8881 353.7232 L210.8971 353.8555 L209.4523 353.957 L209.1495 353.8736 L208.8721 353.8246 L208.106 355.39 L207.674 356.1154 L206.4277 356.2954 L204.845 356.996 L204.1519 357.1182 L203.6058 355.7161 L202.6927 356.3113 L201.274 355.9362 L199.1869 355.5528 L197.5807 356.0395 L195.1268 356.2296 L193.9069 358.5455 L193.7575 359.9043 L196.0399 362.214 L198.5084 365.7897 L199.5129 368.0349 L199.9332 369.8265 L198.158 370.5677 L197.2791 370.3828 L197.1843 368.2471 L195.4284 368.2308 L191.6089 369.9985 L187.5962 366.8397 L182.8912 365.6971 L182.2248 364.303 L181.5584 362.9132 L178.5826 364.2015 L177.8903 365.3089 L176.7845 363.3588 L174.2367 360.372 M197.4095 334.6001 L197.6553 333.8681 L200.3784 332.8356 L201.0456 333.948 L203.0839 334.3394 L204.8478 333.9167 L204.7617 332.1031 L202.1219 331.1924 L200.63 331.4858 L199.7436 331.203 L202.1219 330.1162 L203.2715 329.6189 L206.3214 329.7557 L207.144 328.9826 L211.7666 329.4962 L212.3649 328.5069 L212.5746 328.4937 L213.2424 328.2978 L215.1012 328.7871 L215.3867 329.6432 L214.6611 330.1894 L212.4453 330.7794 L211.6606 330.4096 L210.8374 330.5235 L209.076 332.5444 L213.2324 333.4313 L214.082 332.6353 L215.1095 332.3908 L219.2098 332.1164 L222.5938 332.3908 L223.9306 331.7303 L224.5439 332.6238 L224.1265 333.3691 L221.2323 334.2008 L218.3542 334.4616 L217.1638 337.4863 L212.7613 335.6679 L213.4277 333.7446 L208.9611 333.7578 L207.1929 335.7985 L204.9053 336.4847 L202.9047 336.2226 L201.1436 336.9564 L200.4301 337.0715 L199.0169 337.3054 L197.5726 335.4725 L197.4095 334.6001 M213.7868 384.0714 L214.1401 378.7379 L213.854 377.647 L214.0984 376.8075 L214.8892 376.4078 L218.2726 376.147 L220.2152 380.9393 L220.4794 381.5172 L220.8244 383.2725 L221.7376 384.7481 L222.6481 385.7345 L221.2435 386.1271 L215.898 386.9123 L214.8869 385.9948 L214.703 382.7039 L213.7868 384.0714 M227.2669 324.7033 L228.5127 323.5613 L230.7058 322.6073 L230.9585 322.7379 L231.2194 323.8627 L232.0753 325.4446 L232.1012 328.957 L228.6431 328.0533 L228.2191 326.9855 L227.2669 324.7033 M237.2916 416.2547 L237.2916 414.7815 L240.4398 413.767 L239.5895 412.113 L239.5272 412.0115 L239.3968 412.0605 L239.3641 411.7504 L239.107 410.2119 L240.318 408.6606 L240.6279 410.177 L242.2953 409.9075 L242.4849 409.8767 L242.5826 411.4557 L241.8995 412.1421 L243.0246 412.1337 L245.4751 414.9447 L243.1054 416.365 L242.0138 415.8595 L239.3885 415.77 L237.2916 416.2547 M254.8707 398.0701 L254.9362 396.5942 L255.2866 395.73 L256.1518 395.3379 L258.4785 395.9422 L258.1883 398.2228 L254.8707 398.0701 M279.5217 96.2385 L282.914 93.1066 L284.1347 90.7036 L284.6058 91.1542 L285.6083 91.6003 L284.8327 92.8107 L284.0572 94.0166 L284.9534 96.6802 L283.6177 98.2263 L282.417 99.7767 L280.639 97.5902 L279.5217 96.2385 M282.9168 100.267 L284.4593 97.5902 L285.255 98.7475 L286.0506 99.9048 L287.4265 100.6999 L287.0588 101.6584 L286.0506 102.6214 L282.9168 100.267 M322.7456 91.6577 L331.8022 84.2364 L329.6537 77.0843 L336.22 70.6742 L336.3062 70.63 L341.6 74.7739 L336.3119 75.9755 L334.307 78.7763 L335.4416 78.392 L336.1913 80.0309 L336.6939 81.661 L335.2147 81.9481 L335.4014 83.481 L334.3587 83.2955 L334.8125 88.0885 L331.2364 90.9112 L330.2741 90.1647 L329.3147 89.4225 L322.7456 91.6577 M345.7248 360.8926 L346.282 359.1278 L346.0867 358.8411 L346.9886 358.166 L347.4425 356.7013 L347.6493 356.7013 L348.2985 356.966 L347.2816 360.8926 L346.5003 360.8926 L345.7248 360.8926 M351.7387 373.2786 L353.3536 368.4505 L353.6417 368.6834 L353.9758 369.159 L353.9376 369.8358 L353.8746 369.8415 L353.7641 370.4582 L353.4938 371.9035 L353.3407 372.5317 L353.3763 372.8983 L352.9328 373.572 L352.5769 373.7198 L352.4005 373.9668 L352.3023 374.0237 L352.144 374.0299 L352.0214 373.9457 L352.1343 373.5689 L351.7387 373.2786 M363.0537 81.0125 L363.2031 80.7801 L363.4558 80.8217 L363.7169 80.8217 L363.899 80.6852 L364.0941 80.747 L364.0151 81.0496 L363.9987 81.3977 L364.0484 81.6049 L364.1104 81.8907 L363.6753 81.9614 L363.3771 81.9614 L363.1864 81.638 L363.1034 81.3023 L363.0537 81.0125 M364.3509 79.0087 L364.3612 78.7931 L364.587 78.6376 L364.7363 78.4304 L364.7757 78.1653 L364.8421 77.9082 L364.8771 77.5601 L364.8027 77.4152 L364.7777 77.0755 L364.7487 76.7791 L364.703 76.609 L364.8854 76.4787 L365.2172 76.2339 L365.7951 75.9459 L366.1185 75.8094 L366.1993 75.9998 L365.7414 76.2362 L365.4119 76.5697 L365.2812 76.7398 L365.1382 77.1104 L365.0575 77.55 L364.9478 78.3557 L364.8357 78.646 L364.67 79.2075 L364.3509 79.0087 M375.5145 362.3243 L375.5558 361.7256 L376.0691 360.6424 L377.5154 358.8989 L379.146 357.2916 L379.618 356.9664 L380.1083 356.5874 L380.3206 355.7275 L380.5142 355.4946 L381.292 355.6631 L381.9986 356.0571 L382.5438 356.2424 L383.0683 356.7727 L384.7894 357.8087 L385.2146 360.0676 L382.9396 361.3911 L383.9335 362.4368 L383.4624 363.5441 L383.789 367.7053 L383.6468 367.8897 L383.5296 368.2625 L383.2645 368.5378 L383.0812 368.7536 L382.9 368.8577 L382.5154 368.9962 L382.1184 369.6575 L382.0308 370.1834 L381.8995 370.49 L381.5738 370.6669 L381.2587 370.6956 L380.8683 370.5954 L380.5257 370.4512 L380.2338 370.2985 L379.8435 370.1547 L379.4451 369.9641 L379.1052 370.0268 L378.5897 365.7677 L378.4429 364.2315 L378.4426 363.7453 L379.1653 363.4766 L379.3551 363.204 L379.3551 362.9927 L379.0805 362.8471 L378.7031 362.8453 L376.0338 362.8885 L375.6374 362.8091 L375.5145 362.3243 M390.4306 97.6286 L390.5075 97.5058 L391.8803 97.0857 L392.1773 97.1423 L392.8123 99.5545 L392.7046 99.7339 L392.3154 99.8518 L391.4908 99.9746 L391.24 99.8925 L390.4306 97.6286 M398.2581 120.4116 L398.3233 120.0733 L398.4776 119.8838 L398.7327 120.121 L398.9047 120.1744 L399.2491 120.1682 L399.516 120.0083 L399.7354 119.8361 L399.8305 119.5808 L399.7532 119.3021 L400.8094 118.9165 L401.0113 119.0707 L401.3968 119.6877 L401.6996 120.1386 L401.9546 120.5066 L402.1031 120.6907 L401.8834 120.8091 L401.5809 121.1236 L401.4502 121.5092 L401.296 121.889 L401.0113 122.15 L400.5305 122.4111 L400.3228 122.6072 L400.139 122.779 L399.8661 122.2865 L399.5516 122.0966 L399.1658 121.9782 L398.9047 121.6695 L398.6083 121.2247 L398.3055 120.7323 L398.2581 120.4116 M402.268 357.3366 L404.1063 355.4041 L404.4826 355.3909 L407.6968 358.3866 L419.4737 362.172 L418.5402 362.4941 L418.0203 365.6353 L415.9832 363.8115 L414.0994 363.3941 L412.692 363.1382 L404.2589 360.9583 L402.268 357.3366 M409.8081 375.6763 L409.9976 375.6763 L411.6636 376.1969 L411.5028 379.1262 L412.8586 379.5364 L411.902 380.4893 L410.4314 381.1599 L409.8081 375.6763 M409.9959 68.5267 L410.0427 68.2612 L410.2406 68.2404 L410.4256 68.0319 L410.6181 67.9824 L410.6936 68.0995 L410.7927 68.1857 L410.9045 68.2793 L411.2848 68.1751 L411.6231 68.2245 L411.8524 68.3703 L411.834 68.7922 L411.8027 68.9747 L411.5867 69.154 L411.3681 69.1178 L411.217 68.946 L411.0946 69.0264 L410.9358 69.1465 L410.7692 69.0785 L410.6988 69.037 L410.4411 68.9641 L410.3917 68.7715 L410.2148 68.6257 L409.9959 68.5267 M410.7471 132.2902 L410.7761 131.9532 L411.0768 131.9859 L411.2035 132.243 L411.3342 132.8158 L411.653 132.9099 L411.95 132.939 L412.1712 133.0803 L412.1965 133.3047 L412.1821 133.6889 L412.037 133.8665 L411.7435 133.783 L411.4718 133.7689 L411.2833 133.6819 L411.1021 133.4354 L411.2471 133.2795 L411.1963 133.0945 L411.0116 132.8304 L410.8737 132.6634 L410.7471 132.2902 M416.4491 146.9385 L419.4679 145.0439 L423.7019 144.7613 L423.5669 144.4256 L423.857 144.5405 L424.0695 145.9448 L422.2025 145.8168 L422.0589 147.3625 L416.4491 146.9385 M420.2291 139.3292 L420.9329 138.1986 L422.8459 138.6093 L424.779 137.3815 L424.9657 137.3418 L425.2903 137.7172 L426.7983 137.8983 L427.5911 139.6913 L428.1282 142.1733 L435.9153 140.8484 L433.3101 144.8629 L433.7581 145.6269 L430.9489 146.3644 L427.5767 145.7638 L421.0909 140.0844 L420.2291 139.3292 M424.1416 77.2169 L424.3461 77.1025 L424.5306 77.03 L424.7652 76.9408 L425.0665 77.0212 L425.1162 77.4395 L425.3383 77.4753 L425.5572 77.5813 L426.2416 77.8362 L426.3835 80.1608 L425.579 80.1497 L425.4135 80.1648 L424.3769 80.1829 L424.1988 78.073 L424.1706 77.4934 L424.1416 77.2169 M425.477 149.5255 L427.1574 148.7977 L426.9339 147.9662 L426.6222 147.3863 L427.3398 146.5892 L427.8037 146.5896 L428.1311 146.7089 L428.5792 147.9591 L428.7495 148.2488 L428.695 148.5425 L428.6516 148.7235 L428.724 148.894 L428.8653 148.977 L429.0503 149.0026 L429.2677 148.9338 L429.5989 148.5769 L437.6761 151.1162 L439.3071 153.7425 L439.4668 153.8295 L440.1823 153.6224 L440.3785 153.7712 L441.3442 155.4219 L441.5949 157.0691 L441.6096 158.0354 L442.5052 158.5154 L443.549 158.5547 L444.2826 158.1078 L445.2081 157.6004 L445.6263 157.051 L445.4994 156.8474 L445.3176 156.7967 L445.2486 156.5789 L445.4592 156.3171 L445.6772 156.4769 L445.7318 156.6589 L445.8734 156.7348 L446.0512 156.7167 L446.1457 156.6695 L446.3091 156.5352 L446.4108 156.3608 L446.567 156.219 L446.6216 156.0667 L446.6107 155.8631 L446.5016 155.8017 L446.3999 155.758 L446.3565 155.6198 L446.7704 155.4312 L447.5141 155.5721 L447.8671 155.493 L448.0998 155.1804 L448.2557 155.1186 L448.4301 155.2714 L448.4557 155.4347 L448.2922 156.1104 L447.6841 157.4555 L445.5295 159.6145 L444.4843 160.0764 L443.4238 160.0543 L443.1167 159.9236 L442.8861 159.9435 L442.7717 159.9837 L442.6264 160.0998 L442.5104 160.1979 L442.3486 160.2977 L442.2016 160.2831 L442.0617 160.1926 L441.9637 160.0928 L441.7259 160.0128 L441.4553 160.0508 L440.9558 160.2487 L440.5982 160.3758 L440.4692 160.5339 L439.8499 160.6139 L439.7336 160.7516 L439.5159 161.1583 L439.8063 161.2891 L440.097 161.6017 L440.3584 161.9068 L440.5591 162.216 L441.2838 162.9335 L443.3166 167.4015 L443.6869 167.7795 L444.5297 167.7574 L445.0889 167.7504 L445.5608 167.7795 L445.8734 167.8665 L445.9532 168.0771 L443.5125 168.6437 L442.8263 168.8075 L440.6671 169.2553 L440.7697 170.1535 L441.4476 171.7564 L442.1387 171.9984 L441.4588 172.3582 L440.755 172.6461 L439.1396 171.7263 L438.6837 169.919 L437.4842 167.7358 L437.0603 166.3603 L437.3323 165.6484 L436.6604 164.1771 L436.1807 166.744 L434.5173 165.6246 L433.3098 162.7057 L431.6061 162.2177 L431.2063 161.1703 L430.5497 158.2173 L431.3425 160.1692 L431.2649 158.6412 L432.5431 158.2747 L431.466 157.2369 L433.2612 156.9013 L431.9054 155.8106 L432.9682 152.5206 L432.5736 152.0171 L430.6195 150.8694 L429.4211 150.5064 L427.1258 150.6808 L426.1816 150.7095 L425.477 149.5255 M425.5718 85.2525 L429.5185 82.359 L429.5472 83.6931 L430.4023 84.4312 L429.8681 85.2958 L430.6761 86.4098 L428.2403 86.5424 L427.9157 85.8577 L425.5718 85.2525 M426.5829 33.2699 L427.3441 30.4376 L429.2772 30.5878 L429.9264 28.6436 L434.3384 29.6776 L434.3384 29.4036 L430.498 28.3697 L432.0089 24.5298 L435.7229 25.2633 L436.26 22.6784 L437.1361 22.6784 L438.3425 23.1865 L440.8214 23.0937 L440.5025 24.004 L443.0561 24.004 L444.0327 25.6124 L444.8226 28.3343 L436.9149 29.1606 L435.2633 32.5099 L433.4767 32.5099 L430.1016 34.6529 L426.5829 33.2699 M427.5882 89.3386 L427.6371 87.8853 L428.2948 87.8764 L431.038 88.729 L433.4976 88.8182 L434.7411 88.388 L436.2023 89.101 L436.5616 89.6571 L439.8919 90.2164 L440.0909 90.2186 L440.6384 90.6435 L440.9624 90.5781 L441.3674 90.5658 L441.7991 91.4356 L442.1967 92.3168 L442.4658 92.7873 L442.3777 93.0903 L442.1275 93.3165 L441.7374 93.5311 L441.4232 93.4618 L441.0868 93.3306 L441.1873 93.4733 L440.776 93.6884 L439.6966 93.9115 L438.1865 94.139 L437.8189 93.8315 L437.6747 93.5956 L437.0784 93.3748 L436.6125 93.2811 L435.6175 93.1778 L434.7391 92.9958 L434.2344 92.9299 L433.6398 92.6848 L433.2156 92.4401 L433.0688 91.1917 L433.7964 91.0676 L433.7409 90.9368 L433.0886 90.9059 L432.5805 90.7168 L427.5882 89.3386 M441.9847 140.5216 L444.1534 139.2762 L448.5826 140.3185 L449.9499 136.0522 L450.1969 136.008 L452.2622 136.7809 L451.8543 140.6276 L448.597 142.3632 L442.0278 141.6169 L441.9847 140.5216 M443.9738 91.3384 L444.1083 91.0194 L444.4222 90.9311 L444.8442 91.0243 L445.1179 91.1471 L445.5255 90.7716 L445.7343 90.31 L445.6358 90.0079 L445.7596 89.8806 L444.5498 88.6362 L445.489 87.8058 L445.7246 87.6467 L446.644 88.4587 L446.2 89.6933 L446.6325 89.6381 L447.1748 89.9204 L447.4871 90.2508 L447.9243 90.6462 L448.3003 91.2023 L448.4057 91.6675 L448.0843 92.2028 L447.7312 92.6137 L447.5106 92.7692 L447.4558 93.0417 L447.9702 93.0148 L448.2488 93.1053 L448.4126 93.3779 L448.5533 93.6601 L448.8483 93.801 L449.089 94.222 L449.3481 94.5374 L449.6954 95.128 L450.0688 95.4332 L450.5605 95.9032 L451.0454 96.1228 L451.2534 96.1798 L451.3737 96.1007 L451.0555 95.7469 L450.8231 95.5525 L450.2882 94.9986 L449.9484 94.6704 L449.5719 94.154 L448.906 93.1614 L448.7343 92.7546 L448.7814 92.5708 L448.9328 92.4851 L450.2911 94.0572 L451.2637 95.0101 L451.6532 95.6289 L451.7632 95.8948 L451.8256 96.1802 L451.5564 96.5535 L451.4768 96.8971 L451.6391 97.1529 L451.6535 97.3371 L451.7345 97.4652 L451.854 97.52 L451.935 97.5085 L451.9608 97.3874 L451.9281 97.2744 L452.0979 97.1608 L452.1771 97.0429 L452.1022 96.754 L452.1823 96.6445 L452.1806 96.3534 L452.1082 96.1382 L452.1648 95.9218 L452.1134 95.5512 L453.1793 95.6625 L453.8362 95.8608 L454.1057 95.9739 L454.3222 96.0154 L454.4762 96.0322 L454.9522 95.9607 L455.2704 96.0517 L455.3939 96.3193 L455.9495 96.6599 L456.1916 96.8777 L456.4765 97.2585 L456.7609 97.5478 L456.9749 97.9794 L456.9743 98.3261 L456.7736 98.7033 L456.5914 98.9352 L456.1861 99.1592 L456.0606 99.2224 L455.9222 99.0991 L455.7737 98.8177 L454.8404 98.8063 L454.5104 99.13 L454.4452 99.6354 L454.2671 99.7723 L452.1171 100.9627 L452.1165 100.4685 L452.1432 100.2348 L452.0114 99.9198 L451.8833 99.5126 L451.6661 99.2648 L451.3079 98.7312 L450.9549 98.3667 L450.4744 98.0845 L450.3793 97.7342 L450.1731 97.5217 L449.7979 97.4599 L449.3596 97.5831 L449.158 97.2426 L449.0425 96.921 L448.7216 96.5919 L448.7196 96.2173 L448.9463 95.9496 L449.0342 95.8069 L448.9138 95.5896 L448.8127 95.4832 L448.4019 95.3807 L448.0397 95.2022 L447.8384 95.0847 L447.6057 94.8426 L447.3501 93.9883 L447.1088 93.6513 L447.184 93.1619 L446.9778 92.9891 L446.4464 93.4481 L445.9555 93.6517 L445.6312 93.8925 L445.2906 93.8638 L445.0286 93.6919 L444.9091 93.4675 L444.8103 93.1654 L444.5802 92.2011 L444.1554 91.7209 L443.9738 91.3384 M444.0695 99.2016 L444.093 98.2007 L444.1241 97.599 L444.2326 97.3534 L444.4464 97.2103 L444.7531 97.3137 L445.078 97.3327 L445.5206 97.3044 L446.0282 97.1109 L446.5352 97.0888 L446.96 97.5213 L447.3101 98.2236 L447.5023 98.7767 L447.7008 99.2131 L447.8878 99.7025 L447.8815 99.8505 L447.9231 99.9627 L447.9337 100.1248 L448.0153 100.2335 L448.0351 100.411 L448.0561 100.5568 L448.1902 100.764 L447.9386 100.8863 L447.8315 101.1721 L447.9056 101.6792 L448.0748 101.9778 L448.1029 102.2892 L448.449 102.6572 L448.6128 102.8992 L448.6067 103.0949 L448.3247 103.1885 L448.0469 103.3692 L447.7022 103.6952 L447.4641 103.5653 L447.2202 103.5075 L446.9379 103.4655 L446.6337 103.397 L446.4042 103.765 L446.1118 104.0066 L445.8501 104.1899 L445.6103 104.0879 L445.3319 104.1329 L444.9769 103.913 L445.005 103.5967 L444.8953 103.0074 L444.8034 102.6161 L444.8545 101.7437 L444.4047 100.8479 L444.0695 99.2016" stroke-dasharray="" fill="none" fill-opacity="1.0" stroke="#ff0000" stroke-opacity="1.0" stroke-width="1.0px" stroke-linecap="butt" stroke-linejoin="miter" stroke-dashoffset="0.0px"/>
</g>
</svg>