<?xml version="1.0" standalone="no"?>
<!DOCTYPE svg PUBLIC "-//W3C//DTD SVG 1.1//EN" "http://www.w3.org/Graphics/SVG/1.1/DTD/svg11.dtd">
<svg width="512px" height="512px" version="1.1" xmlns="http://www.w3.org/2000/svg" xmlns:inkscape="http://www.inkscape.org/namespaces/inkscape">
<g id="layer" inkscape:groupmode="layer" inkscape:label="layer">
<path d="M0.0 298.8959 L15.3541 317.4442 L22.0064 316.8757 L26.117 328.2949 L30.0754 335.0952 L32.0546 347.1229 L32.6637 349.6606 L38.2967 354.278 L43.3211 359.7082 L49.411 365.6972 L56.922 372.0911 L59.3581 380.3126 L68.2011 388.9177 L76.1653 396.4684 L79.3484 396.5069 L101.5058 396.6512 L109.5418 393.1923 L112.2637 390.8164 L113.2848 389.5516 L114.5818 388.3742 L114.9445 388.2607 L116.3607 386.7919 L122.2402 399.0847 L113.7455 416.773 L113.5045 421.8909 L113.9839 421.5215 L116.3625 418.8448 L117.7363 417.4492 L120.0051 416.2411 L121.0006 412.6891 L121.425 411.5204 L121.7327 410.9876 L122.1422 410.6769 L122.2651 410.0402 L127.0012 408.5695 L128.33 408.1338 L128.7682 408.0415 L129.3555 407.8664 L138.2185 403.9902 L137.9407 404.7183 L138.2765 404.6644 L139.2496 403.8151 L139.747 402.9985 L138.993 401.3508 L138.8414 400.1927 L138.6473 399.6378 L138.945 399.0991 L139.6166 398.3335 L140.6558 397.4639 L141.4971 396.881 L141.4584 395.7749 L142.4839 395.469 L142.6462 395.4373 L143.2616 393.7175 L148.3734 392.746 L150.0898 392.1996 L150.1803 391.7552 L150.2197 391.2656 L150.1641 390.9222 L150.2234 390.473 L150.4225 390.3528 L151.3026 390.3865 L151.6833 390.3701 L151.5316 389.6295 L167.4943 392.5468 L168.0922 392.2891 L168.7382 392.2285 L169.2557 392.4526 L169.3849 392.8922 L170.0065 393.0057 L171.9227 395.6027 L171.2111 401.2777 L161.5305 399.4213 L165.3647 408.9985 L165.9296 409.8632 L165.9576 410.0344 L165.8927 410.1768 L166.6536 410.6673 L167.3064 411.3935 L167.7852 411.4339 L167.802 411.4079 L167.9655 411.5137 L168.355 411.5839 L168.1896 411.4348 L168.013 411.1559 L168.1066 410.9203 L168.3556 410.8366 L174.8587 411.8523 L174.6864 412.6323 L187.2206 414.5416 L188.2667 413.7009 L188.3572 413.144 L188.047 411.2146 L188.2037 411.1011 L188.3747 411.0742 L189.6005 411.3589 L189.9544 411.6541 L190.1254 412.2072 L190.5598 411.8581 L191.83 415.8275 L192.7693 416.4633 L194.9033 416.9548 L195.6479 416.9663 L195.8533 417.1529 L196.1416 417.5896 L196.3364 418.5264 L196.46 419.2978 L196.5161 421.0041 L196.4581 421.1897 L196.2796 421.4379 L195.9032 421.5427 L195.907 422.0582 L197.3881 422.5815 L198.2494 422.6978 L198.3062 422.9046 L198.4934 422.971 L199.0739 423.3172 L199.5564 424.5185 L198.7662 424.5503 L198.4167 424.9013 L198.3237 426.5124 L198.3549 426.4999 L199.4091 427.1356 L199.6132 429.3093 L199.5245 429.7537 L199.5795 431.1281 L200.5276 433.9115 L200.5906 434.0327 L201.5661 434.2491 L204.084 433.3431 L205.0427 433.2758 L205.7736 433.5095 L209.1721 432.7583 L221.5084 427.9387 L223.6099 426.9846 L223.8527 424.8119 L223.6973 424.6609 L223.5076 424.2964 L224.1561 421.9159 L225.6622 407.5298 L226.0885 407.5298 L226.1696 407.399 L226.7388 407.1306 L228.0021 407.1027 L230.6117 407.2826 L235.0182 392.8037 L232.428 383.6465 L228.0464 380.5973 L194.1924 379.8759 L194.7229 366.2359 L198.2556 360.8779 L201.0581 359.4831 L198.4179 362.1958 L202.0817 362.5036 L211.1893 363.3934 L212.5387 361.862 L214.184 361.6532 L217.4283 361.4368 L219.993 361.0664 L222.4702 360.9731 L224.4432 361.0068 L225.1279 361.2579 L225.3432 361.382 L229.8502 361.3204 L231.4917 360.9549 L231.9536 360.2623 L232.2657 359.79 L232.6158 358.8059 L234.4671 356.1759 L235.5169 354.8186 L235.789 354.3347 L236.3514 352.66 L236.7246 351.7201 L237.1135 350.6014 L237.8731 349.0709 L238.32 347.3163 L238.3524 346.8824 L238.5484 345.9262 L238.8268 345.3269 L240.2236 339.8398 L252.2835 332.064 L254.1104 333.2607 L253.2996 335.8187 L255.0997 334.6883 L255.9566 333.8985 L256.6969 333.6032 L257.0445 333.5907 L257.2286 333.6484 L257.4833 333.8716 L259.9574 337.2992 L262.7106 341.6435 L268.0152 348.0733 L268.1994 348.1031 L268.5832 348.0416 L269.4083 347.6 L270.2703 346.9767 L271.0199 346.1965 L271.875 345.5039 L271.9493 345.198 L274.5089 341.3607 L276.1935 342.2062 L278.207 340.0216 L280.5339 340.8277 L287.246 340.9287 L288.6148 341.4184 L289.7744 342.9248 L298.6817 351.4123 L302.0396 357.867 L309.8166 358.4827 L323.0798 358.0883 L337.3167 349.5557 L332.4958 342.6718 L324.4217 340.4458 L325.7262 339.9552 L324.4405 336.7133 L319.9235 332.6912 L309.2673 338.4151 L303.4178 341.225 L302.3361 341.7676 L301.6776 341.909 L301.2919 341.7753 L299.4613 337.4521 L298.7834 336.7701 L296.7387 330.8451 L294.8744 324.6796 L294.8082 323.7224 L295.0267 322.6315 L296.9416 318.2437 L299.3807 310.1327 L301.4011 308.4588 L302.866 305.4023 L304.5743 301.2289 L315.9021 299.1461 L358.2364 284.609 L360.6644 283.1716 L362.9881 281.3013 L364.7382 279.5743 L364.8418 277.3451 L369.5117 273.9373 L370.7257 272.7337 L371.5053 272.038 L372.2698 271.7398 L373.0619 271.8831 L374.1454 271.5599 L374.7209 271.4492 L377.3723 270.643 L378.1806 270.2956 L378.2555 270.3745 L378.9483 270.1638 L378.9558 270.0657 L381.6802 269.1266 L381.7638 269.3075 L386.5623 267.8489 L382.7394 266.2528 L378.3247 259.7333 L381.2639 254.9495 L381.2108 254.7522 L368.8052 237.0116 L369.1179 236.9134 L368.7265 236.4237 L368.7215 236.1167 L368.8645 235.9176 L369.2989 235.628 L371.205 234.9679 L375.116 233.7218 L381.5285 231.9831 L385.3533 231.0142 L392.2489 229.287 L396.1724 228.3902 L396.3403 228.372 L406.0046 225.34 L398.6496 224.5664 L399.0422 223.7447 L399.5222 221.8645 L399.0129 219.8024 L397.4594 218.8315 L397.7265 217.2294 L398.0629 216.3037 L398.0941 215.0682 L398.2882 214.641 L398.9268 213.9299 L399.4136 212.5904 L400.2999 204.7 L396.9107 203.7473 L394.9759 210.3099 L393.1409 202.583 L394.0521 199.2247 L397.4662 202.1885 L396.4177 198.7628 L394.695 197.685 L403.6971 164.7481 L403.6659 163.6135 L403.8307 163.2786 L404.111 163.2333 L404.282 162.6088 L407.6986 163.524 L408.4376 163.6365 L411.2806 164.4536 L411.3218 164.495 L413.2579 165.0137 L413.4714 165.0242 L414.6129 165.3245 L414.6935 165.3976 L415.4543 165.6017 L441.5813 183.9147 L452.5664 173.8777 L456.9167 163.6385 L460.1685 165.005 L459.5151 175.5137 L464.5819 175.9111 L460.0187 205.7777 L480.2101 215.2943 L486.851 216.5645 L491.3337 220.7473 L492.9409 221.9405 L493.8253 222.5457 L494.1168 222.4553 L494.5943 222.1579 L495.6797 221.0158 L496.3575 219.914 L496.9249 219.0057 L497.2351 218.207 L498.5296 216.984 L499.492 216.6973 L507.0055 214.8738 L509.8011 213.9857 L509.8155 212.3701 L509.3043 209.7249 L509.3367 206.3753 L509.1682 198.0459 L509.441 196.1983 L509.7418 193.2999 L509.9397 192.8996 L509.9877 192.8419 L510.1088 179.0588 L510.2262 171.8674 L511.1387 166.0886 L512.0 165.4592 L507.6103 165.6498 L507.5148 165.6652 L507.2546 164.0369 L508.2414 158.8392 L508.5422 155.5297 L476.4464 145.8829 L476.4889 145.6182 L476.1206 145.573 L477.7909 136.3042 L477.696 134.4323 L471.9401 137.6448 L465.0744 140.9554 L464.7436 135.0944 L464.419 129.243 L464.9183 125.7205 L462.9523 118.3964 L460.1436 116.2021 L458.9702 109.9654 L456.4548 110.3311 L456.6608 106.8567 L450.1415 106.9712 L447.8709 113.6131 L448.3783 115.6631 L448.9856 117.7006 L449.4387 119.0162 L447.723 125.735 L447.4876 126.7686 L446.896 127.1719 L446.1282 127.2951 L443.7952 126.6589 L441.243 125.2701 L433.1709 124.4309 L432.566 126.4279 L430.796 133.3332 L429.8285 133.134 L429.6157 133.1687 L429.3567 133.0445 L425.2123 132.2553 L422.2357 132.1581 L420.4363 131.6558 L418.6699 131.2804 L417.4759 131.4729 L416.139 131.8646 L407.7697 133.9617 L405.4479 133.9396 L405.2444 133.9174 L403.3445 134.3082 L402.917 134.5237 L401.8191 135.3168 L400.5052 136.6728 L400.2206 136.8066 L399.4036 136.8941 L391.6535 137.3955 L390.9888 137.1511 L390.3759 135.3158 L370.5154 139.2135 L371.7637 137.818 L377.6432 136.5092 L374.2603 132.5152 L367.0026 134.4872 L366.165 134.7865 L366.0857 134.7364 L364.1677 135.258 L364.898 132.7654 L350.143 139.098 L341.4111 130.9561 L334.0056 132.442 L333.7597 132.5248 L333.5512 132.6971 L327.9501 140.4357 L327.5768 141.2673 L323.5947 146.7076 L322.4619 148.3735 L319.5771 151.6562 L316.5374 154.523 L315.7073 154.78 L315.59 154.8907 L315.2916 154.908 L314.2387 155.2333 L313.0472 156.2495 L311.249 156.9694 L310.8758 156.2755 L310.9706 155.1592 L310.4532 155.189 L315.4533 142.6387 L315.6761 141.7148 L315.2885 139.8756 L314.9983 138.0644 L314.4166 136.105 L315.2117 131.2371 L315.1837 127.0554 L315.7136 125.1084 L316.0731 124.5685 L316.3277 123.9227 L316.4632 123.8207 L316.5761 123.1509 L317.4968 123.2298 L317.9593 123.0902 L318.8655 123.3462 L321.5194 123.5262 L323.8163 121.2164 L324.428 113.7382 L344.613 99.2916 L349.8472 98.8595 L349.9595 98.8027 L352.6971 98.4466 L355.8103 98.129 L361.1443 97.6535 L365.8074 97.1453 L368.9543 96.9682 L369.39 95.2319 L368.9943 95.4783 L368.269 95.5957 L365.7961 95.4812 L364.1321 95.1154 L362.794 94.407 L360.6962 93.6014 L359.7169 93.4956 L355.4727 94.3118 L355.3959 94.1039 L355.497 93.6476 L357.1922 91.3935 L357.6085 90.9171 L356.628 89.7726 L359.9141 85.6252 L359.3967 85.2277 L355.8846 81.8772 L354.9203 80.7107 L353.8243 79.853 L353.5347 80.0196 L353.2707 80.2823 L352.385 81.3055 L352.1609 82.0899 L351.8869 82.8388 L351.5942 83.1939 L351.3358 83.0342 L351.1604 83.3431 L349.7561 82.4384 L343.2274 85.528 L345.7053 88.0979 L345.4307 88.5695 L344.4664 88.0931 L344.5169 88.1643 L344.678 88.6234 L344.668 89.1085 L344.633 89.1971 L344.8003 89.378 L344.4901 89.5628 L344.1718 90.3771 L343.7498 91.0172 L343.4072 91.3367 L342.8236 91.5186 L342.4828 91.5744 L341.6958 91.3049 L341.634 91.2645 L339.5824 92.4869 L336.7993 90.5908 L336.2688 91.5638 L335.3706 93.6014 L334.8688 94.563 L337.0358 95.6246 L335.9242 97.0135 L335.9848 97.1559 L335.6764 97.6901 L334.1916 99.3378 L333.5025 100.0395 L329.9642 104.4601 L329.3038 104.2561 L328.7808 104.771 L328.332 104.975 L327.5662 104.8345 L326.3335 104.2416 L325.8311 103.8384 L325.6925 103.2445 L325.7056 103.1454 L324.8212 102.872 L328.6497 90.7053 L328.6179 90.6687 L328.4775 90.3396 L328.7746 89.4454 L329.2651 80.6288 L329.8188 80.0061 L330.016 78.4815 L329.9018 77.7509 L320.4034 94.1481 L319.9135 95.1645 L319.3792 95.7709 L318.1964 96.6246 L315.9582 97.8806 L314.7068 98.487 L314.2961 98.6102 L312.7357 98.5448 L312.0429 98.5765 L311.4968 98.7517 L311.1473 98.9461 L298.2136 110.9182 L273.7375 132.2034 L269.781 137.513 L266.0136 138.996 L264.6142 141.0661 L264.4975 143.0477 L262.2762 145.827 L251.0545 143.9494 L248.5585 143.5077 L248.0374 143.6193 L245.9608 142.7801 L240.2242 140.2442 L241.4295 134.2841 L238.4829 132.7442 L233.7287 138.5697 L230.5811 137.0298 L229.1449 132.9675 L225.5373 134.2475 L221.6314 141.8062 L218.6536 148.8634 L217.1369 151.1336 L216.18 152.2557 L215.182 153.1218 L214.1721 153.373 L209.4804 154.5269 L204.6476 155.4844 L202.307 156.4353 L200.0775 157.8076 L198.0272 158.9316 L197.5959 158.7478 L173.528 148.4803 L152.7687 151.9632 L122.5678 200.1773 L93.3713 225.2217 L34.2372 259.7833 L14.5234 297.3104 L11.6535 296.9824 L4.5395 299.5886 L0.0 298.8959 M29.6204 322.315 L29.7309 321.7974 L30.4748 322.0725 L31.2538 322.9085 L32.8061 323.8667 L33.8871 324.2871 L35.5517 324.5873 L36.7663 325.0731 L39.5313 326.9846 L42.1053 329.1193 L42.5466 329.8216 L42.6227 330.2929 L42.8611 330.9586 L43.4472 331.6118 L44.4883 332.1025 L45.5032 332.1583 L46.299 331.9418 L46.578 331.5003 L46.744 330.9019 L46.9213 330.9173 L49.4229 331.7869 L50.5482 332.5286 L51.3309 333.279 L51.3552 333.6869 L51.7204 333.9466 L52.2659 334.0438 L52.7096 334.0399 L53.2408 333.9726 L53.8007 333.7177 L54.2856 333.1991 L54.6938 332.4728 L55.5576 331.3213 L56.1256 331.8995 L56.5039 332.8365 L56.5825 333.4897 L56.9458 334.2804 L57.0051 335.1385 L57.6155 335.5657 L58.2434 335.937 L58.8376 335.937 L59.3612 336.2044 L60.1427 336.1659 L60.7113 335.8975 L60.8829 335.6061 L60.7718 335.1837 L60.6389 334.6335 L60.3212 334.2891 L59.5647 333.6638 L59.6802 333.303 L59.8986 333.2501 L60.2063 333.2617 L60.8342 333.3088 L61.4908 333.1318 L62.912 332.7258 L64.307 331.8841 L65.3312 331.4541 L66.4472 331.0529 L66.8305 330.9914 L67.3004 330.6508 L67.4789 330.4026 L67.4596 330.0091 L67.454 329.7023 L67.5045 329.4743 L68.1231 328.8903 L68.8502 328.2448 L69.7821 327.7859 L69.7459 327.3848 L69.3558 326.8586 L69.068 326.0091 L68.7447 325.5185 L68.2392 325.3107 L67.5482 325.0894 L67.1238 324.9846 L66.8816 324.7085 L66.7568 324.4689 L66.5983 324.3275 L66.215 324.2419 L65.9111 324.2044 L65.1321 323.7147 L64.963 323.4781 L64.8999 323.3568 L64.9792 323.0355 L65.2826 321.9311 L65.5759 321.3116 L65.3874 320.6824 L65.2551 320.1312 L65.0504 319.6155 L65.1153 318.8777 L65.6876 318.3639 L66.3467 318.2225 L67.1126 318.0984 L67.5694 318.4813 L67.7742 318.6679 L67.8297 319.0104 L67.9202 319.3038 L68.1668 319.7483 L68.8895 320.1591 L69.4407 320.5978 L69.5168 321.0692 L69.4937 321.4684 L69.4706 323.4963 L69.5898 323.6964 L69.6959 323.8119 L69.9874 323.7205 L70.0742 323.4425 L70.1041 321.4578 L70.4636 320.4313 L70.6134 320.2755 L70.8762 320.2774 L73.2055 320.0754 L73.1681 320.39 L73.2729 320.769 L73.2399 321.1817 L73.1294 321.477 L71.4785 324.6229 L71.7506 324.8364 L71.569 325.1837 L71.8443 325.2982 L72.836 323.5887 L73.0401 323.6656 L73.6343 324.0976 L73.4246 324.3044 L73.2935 324.6854 L72.4023 325.8812 L72.3935 326.6181 L72.8573 328.2689 L73.9289 329.1482 L74.6779 329.9716 L75.0443 330.4036 L75.5105 330.9673 L76.1029 331.607 L76.6571 332.4459 L78.1338 334.5238 L81.5586 339.024 L81.7658 339.7465 L81.7964 339.935 L81.8544 342.7411 L82.0204 343.7695 L82.2252 345.5847 L82.6128 347.7212 L82.7601 348.8371 L82.8581 349.3037 L83.431 350.3599 L84.2555 351.6778 L85.5644 354.3742 L86.02 355.5757 L86.1767 357.0898 L86.176 360.345 L86.5087 362.139 L87.2671 363.8638 L88.9804 367.9847 L89.6482 369.8066 L91.7659 374.6825 L90.6493 374.8922 L89.5933 375.2452 L88.1852 376.0004 L86.0768 377.574 L84.2537 379.013 L82.3999 380.808 L80.93 382.5423 L79.5089 384.5757 L79.0663 385.0874 L78.5533 385.4337 L77.5228 385.8204 L75.9381 386.2975 L74.1686 386.7159 L72.9353 387.3142 L71.8574 387.8375 L69.8588 388.733 L69.2909 388.7378 L69.1136 388.6089 L68.8951 388.4492 L68.5712 387.798 L68.4689 386.891 L67.8859 384.0823 L66.9846 382.0161 L66.7693 380.9513 L66.5346 379.493 L66.3605 378.686 L65.8262 377.5404 L65.7226 376.8978 L65.5341 374.6412 L65.3381 373.8534 L65.7906 373.2252 L65.4792 372.3605 L65.1384 372.3912 L64.7514 371.9526 L61.3847 366.8429 L60.1252 365.1431 L58.4262 363.4982 L56.4783 361.4464 L53.6933 358.7943 L52.1641 356.6078 L51.5706 355.364 L50.1812 356.2192 L48.1839 357.3216 L47.1566 357.3254 L46.3358 356.8425 L45.3796 356.3375 L43.9022 355.0379 L42.7719 354.4559 L42.6027 348.3282 L42.3849 346.1638 L41.8519 343.1269 L40.8869 339.8523 L39.3671 337.4319 L38.5451 336.1178 L37.2862 331.835 L37.0047 331.4406 L35.302 331.1886 L34.749 331.0144 L34.4875 330.7489 L34.4682 330.3564 L34.2653 329.6407 L34.3171 329.1491 L34.2716 328.3208 L34.0812 327.9553 L33.6206 327.81 L32.9465 327.6994 L32.7705 327.4194 L32.2674 327.2809 L31.6988 326.5959 L31.3206 325.4386 L31.0347 324.6969 L30.3837 324.1803 L29.7714 323.0355 L29.6204 322.315 M34.8757 272.6144 L35.1866 272.318 L35.3526 271.9938 L35.6965 271.7379 L37.4959 270.9624 L38.4727 269.9685 L38.8166 269.3845 L39.5469 269.2806 L40.4444 268.9005 L40.6766 269.2594 L40.8688 269.7328 L40.6679 270.0022 L40.4438 270.1869 L40.3845 270.5208 L40.4307 271.4598 L40.1773 271.8947 L39.9164 272.6827 L39.1137 273.7612 L38.7442 274.3683 L38.7211 274.5347 L37.5459 276.3791 L36.526 275.5363 L35.6946 275.0928 L35.4512 274.2856 L34.8757 272.6144 M35.7115 281.9767 L35.89 281.1858 L36.3269 280.0457 L36.7445 279.6012 L37.6045 277.9993 L37.73 276.4975 L37.5715 276.3791 L38.7211 274.579 L39.1699 274.5636 L39.1874 274.5396 L39.6624 273.8237 L40.2603 273.4629 L40.7746 272.851 L41.0692 271.9678 L41.4275 271.2058 L41.9143 270.4226 L42.3481 270.1321 L42.526 270.1475 L42.7731 270.3274 L42.9067 270.6141 L42.7987 271.0278 L42.6939 272.2767 L42.6277 272.6827 L41.9424 273.5861 L41.3931 274.2471 L41.1922 274.6319 L41.1684 275.2948 L41.0118 275.4084 L40.8258 275.6152 L40.6186 275.9568 L40.608 276.0828 L40.6036 276.1347 L40.6523 276.4349 L40.7084 276.5138 L41.0923 276.4513 L41.4836 276.1684 L42.7463 274.7753 L43.3935 273.6044 L43.4441 273.513 L43.7868 273.2561 L44.0183 273.4985 L44.1244 274.6406 L43.7524 275.342 L42.3281 277.8791 L41.3145 279.7109 L42.1939 280.3036 L44.0913 278.236 L44.8884 277.651 L45.3197 277.6164 L45.4401 277.8771 L45.4557 278.1898 L45.3503 278.5141 L45.4077 279.0788 L44.4977 280.3786 L43.4297 282.0498 L42.3743 283.3602 L41.6316 284.6629 L42.0884 285.1189 L42.7975 285.826 L43.3286 285.1747 L43.964 284.2357 L44.2386 283.2236 L45.2672 281.7371 L47.2377 279.3059 L47.679 279.0586 L48.9323 280.624 L49.5227 281.5793 L51.9763 282.933 L51.7815 282.2653 L49.7405 279.912 L49.411 279.3107 L49.4335 278.8181 L50.1631 278.3919 L50.4945 277.8993 L51.5731 277.1642 L52.1741 277.2075 L52.5236 277.3691 L52.8569 277.272 L53.2757 277.4846 L53.8743 277.8791 L54.0915 278.415 L54.0828 278.9008 L53.9536 279.1856 L53.9798 279.6214 L54.2126 279.9793 L54.7874 280.0188 L55.1145 279.8774 L56.663 278.0869 L56.9476 277.9531 L57.2104 277.9541 L57.6148 278.0205 L57.8127 278.1648 L57.7902 278.7681 L58.4032 279.5887 L58.7196 280.4142 L59.1178 281.0415 L59.4492 281.9084 L60.0078 282.5607 L60.1445 283.6825 L60.1502 283.9894 L59.8868 284.252 L59.624 284.2511 L59.3406 284.1202 L58.7196 283.2534 L58.1323 282.8647 L57.0887 282.9013 L56.8328 282.9426 L56.2255 283.7893 L55.9771 283.8739 L55.0321 283.9827 L53.6708 283.6748 L52.0118 283.1524 L52.0112 283.1476 L49.5883 282.2249 L49.685 282.8252 L50.7804 283.923 L51.3889 284.4406 L51.7996 284.5503 L52.7858 284.6985 L54.1196 284.8341 L54.6302 285.0159 L54.7281 285.3517 L54.6345 285.5865 L54.0678 285.8732 L53.795 286.2936 L54.1159 287.2547 L54.6027 287.2413 L55.2131 286.5813 L55.7967 286.0146 L56.4364 285.7693 L56.8933 285.5114 L57.2566 285.6548 L57.5381 285.828 L57.7628 286.2474 L57.9026 286.6275 L57.8732 287.7454 L59.0086 288.7931 L59.526 289.0173 L60.1008 289.0558 L60.514 288.6373 L60.559 288.1014 L61.1937 287.908 L62.2567 288.8133 L62.7953 289.4454 L64.8188 290.8876 L66.9197 292.8348 L69.2503 294.8158 L69.8651 295.3757 L70.0829 295.9125 L70.2183 297.2989 L70.2302 297.9127 L70.292 298.2985 L70.5111 298.5707 L71.1271 298.8671 L71.7388 298.5919 L72.0577 298.6727 L72.348 298.8449 L73.1069 300.5699 L73.3972 302.3709 L73.5051 303.585 L73.7173 303.8149 L73.7804 303.9371 L73.8216 304.194 L73.6712 304.6144 L73.037 305.0252 L71.6614 304.8934 L71.2538 304.6972 L70.9037 304.473 L70.5598 304.0737 L70.3769 303.1684 L70.4767 302.976 L70.4424 302.7615 L70.0461 302.4738 L69.6142 302.2362 L69.4519 302.0419 L69.3321 301.8418 L69.2946 301.3367 L69.3601 300.9307 L68.8621 299.7358 L68.3122 298.7689 L67.4084 297.7713 L65.0597 295.952 L63.0799 294.2491 L60.4366 291.6852 L58.5386 289.1327 L57.5556 288.3227 L56.7947 288.6998 L55.6294 289.7648 L54.4067 292.0469 L54.4073 292.0479 L53.6977 292.6886 L54.398 293.8335 L54.4679 294.378 L56.7279 296.2021 L57.4969 296.6379 L58.2902 297.3864 L58.9256 298.2379 L60.177 298.9556 L62.3203 301.9033 L63.8532 303.2839 L64.5411 303.5937 L64.4243 304.0064 L64.0467 304.3749 L63.6598 304.0343 L63.1929 303.2512 L62.6636 303.2752 L62.0395 303.3589 L61.8822 303.9015 L62.0638 304.6519 L62.3478 305.1666 L62.8278 305.9219 L64.0099 306.2643 L63.5312 306.5183 L64.0099 306.2672 L64.5205 306.83 L64.8226 307.4563 L64.6253 307.9701 L64.6035 308.429 L64.9674 309.4997 L65.0435 309.9711 L65.2613 310.5079 L65.2432 311.1554 L64.7651 311.7673 L63.6548 311.8154 L62.8496 311.4815 L62.2598 311.1833 L61.19 311.2987 L60.8011 311.0544 L60.2694 310.2703 L59.7956 309.6633 L59.7407 308.9975 L60.0259 308.1442 L61.3822 307.4169 L61.1095 306.9705 L57.4139 306.5876 L56.5176 306.2336 L53.9392 304.0054 L51.2791 301.9745 L49.4328 300.7537 L48.795 300.593 L49.3236 299.8031 L53.5079 294.5493 L53.1097 293.2255 L51.4763 293.4015 L50.844 293.5477 L50.0532 294.0721 L49.1732 295.6662 L48.6545 297.3345 L48.5266 297.3547 L48.2507 297.2681 L47.9892 297.0026 L47.5847 296.2156 L47.4755 295.9857 L46.6747 295.6316 L46.1922 295.622 L43.8273 294.2453 L41.8843 292.2278 L41.8369 291.664 L41.8588 291.5283 L43.3361 289.837 L43.4578 289.5089 L43.509 289.2809 L45.3428 287.0922 L45.3808 286.5139 L45.1343 286.0704 L44.9926 286.005 L44.8222 286.0329 L44.1313 286.4052 L42.7207 287.8426 L42.0254 288.6825 L41.5461 289.3386 L40.6791 290.1006 L40.6298 290.1439 L40.4182 289.914 L40.1885 289.4387 L39.9744 289.0615 L39.947 288.8903 L41.7583 287.1008 L42.4498 286.2522 L41.7814 285.5297 L41.2614 284.9688 L40.6348 285.2536 L40.1611 285.6038 L39.9551 285.6817 L39.7635 285.5807 L39.4664 285.3652 L39.1356 285.0708 L39.0657 285.0083 L38.6444 284.507 L38.7062 284.43 L41.0093 281.639 L40.4238 281.0059 L39.4739 282.8224 L38.3623 283.9172 L38.3354 283.9442 L37.803 283.7854 L37.348 283.1841 L37.1339 282.781 L37.388 282.2403 L38.062 281.4908 L37.7 281.3042 L37.1202 281.8805 L36.8062 282.3163 L36.3569 282.5126 L35.7115 281.9767 M35.9449 320.896 L35.9911 320.0965 L37.3586 319.0826 L38.5127 318.1042 L38.9483 317.5501 L39.4608 317.2028 L40.1511 316.8709 L40.8027 316.3783 L41.7108 315.6943 L42.388 315.0122 L44.3229 317.2509 L44.5495 317.3019 L45.3147 317.3451 L46.1486 317.6395 L46.2309 317.9849 L45.6342 317.9156 L44.7661 318.1023 L43.6501 317.9127 L42.9785 318.2014 L42.8262 318.2735 L42.4299 318.6362 L41.9855 319.3009 L41.1747 319.6963 L40.2772 320.3698 L40.2397 320.4082 L39.864 320.7892 L39.7485 321.1596 L39.683 321.5656 L39.8209 322.4237 L39.8914 322.5882 L41.1235 323.1798 L43.2806 324.898 L43.4803 324.7777 L43.4815 324.5141 L43.2219 323.7205 L43.2038 323.0634 L43.3698 322.4641 L43.6494 321.7589 L44.0208 321.3472 L44.419 321.1067 L45.0513 320.9604 L45.761 321.0211 L46.5699 321.1538 L46.9163 321.4059 L47.0848 321.9061 L47.5835 323.1019 L47.9137 323.7955 L48.0104 324.3958 L47.9711 325.2385 L47.684 325.9004 L47.4056 326.342 L46.289 326.7422 L45.8483 326.9904 L45.6199 327.203 L45.6093 327.9524 L45.6867 328.1602 L46.5792 328.543 L48.843 328.748 L50.424 329.0645 L51.0207 328.9673 L52.2578 328.5036 L53.9249 328.164 L54.4304 327.1799 L54.2987 326.0361 L54.8524 325.8408 L55.0296 326.4516 L55.0015 327.6186 L55.5857 327.1722 L55.9846 326.9317 L56.2473 326.9336 L56.4027 327.0837 L56.3066 327.8475 L56.3828 328.3189 L56.1606 328.8384 L55.5108 329.6917 L53.4436 333.1501 L52.8126 333.5589 L53.1465 333.81 L52.5055 333.7552 L52.2652 333.6946 L52.244 333.5647 L52.2421 333.5647 L51.7048 333.2117 L49.65 330.773 L47.6047 329.4772 L45.8621 328.7037 L44.9833 328.4064 L43.7605 328.6922 L43.215 328.5604 L42.7126 328.1582 L42.4236 327.7205 L42.1633 327.1914 L41.6896 326.696 L40.8183 326.4411 L40.3421 326.4747 L40.1567 326.6806 L40.0637 326.9153 L39.8789 326.8576 L37.1115 323.5223 L36.3088 322.0687 L36.1596 321.5877 L35.9449 320.896 M83.8898 345.6049 L84.2405 344.4813 L85.4358 343.6473 L87.4568 343.3202 L91.0582 343.2173 L96.9539 343.1692 L98.4325 342.77 L101.7661 342.3371 L102.7648 342.922 L102.6555 343.8993 L102.8228 344.9392 L103.8651 345.4635 L104.7801 345.5289 L104.6216 342.568 L106.695 342.2322 L112.8155 342.2553 L113.2405 343.5732 L111.8306 346.4649 L111.1396 347.7001 L111.2245 351.2064 L113.3298 361.6398 L113.2274 362.9894 L113.5538 365.0171 L114.6798 366.0608 L114.9557 367.2132 L115.3308 368.7821 L115.6654 370.8618 L115.6036 370.8762 L114.281 371.1927 L110.0661 371.7679 L108.0351 371.6775 L107.2274 371.641 L104.9106 371.7977 L99.3875 372.1633 L96.879 373.1031 L92.7871 374.3882 L92.6772 374.4228 L91.8046 374.5286 L90.0782 370.3231 L90.4665 369.6074 L90.4964 368.8023 L89.5402 366.8236 L87.503 363.4203 L86.9587 361.6956 L86.9132 360.9087 L87.2028 360.6711 L86.8401 359.6341 L87.1304 356.8137 L86.7203 354.2664 L85.9008 352.4791 L84.9408 351.141 L84.2961 348.7919 L83.8898 345.6049 M84.1132 290.1381 L84.1475 290.0275 L84.1706 289.9534 L84.3491 289.7042 L85.2124 288.8162 L87.4275 287.0941 L88.1502 286.7352 L90.1251 285.7529 L90.7105 285.2113 L91.7734 284.7062 L92.9731 284.2848 L94.1939 283.7546 L94.5072 283.5285 L94.9148 282.8022 L95.4141 282.3692 L95.8129 282.1287 L96.537 282.0113 L98.7939 282.1739 L99.531 282.4067 L101.4372 283.11 L102.1032 283.442 L102.663 283.6594 L103.3864 283.8066 L104.1304 284.0818 L105.4817 285.1391 L106.8648 286.3975 L107.3591 287.0219 L107.4902 287.4452 L107.7205 288.7229 L107.6462 289.3511 L106.441 292.1854 L104.9562 295.4613 L104.0199 298.2629 L103.4519 298.8594 L102.5419 299.1826 L101.0296 299.2952 L100.1084 299.121 L99.9018 299.0826 L98.8969 298.5419 L97.5119 297.2739 L96.2218 296.6245 L95.5976 296.5504 L93.6303 296.8246 L91.696 297.5779 L89.9472 298.1243 L86.8426 298.6718 L86.5168 298.5486 L86.2772 298.1474 L85.819 295.8452 L85.7654 295.2381 L85.7341 294.2318 L85.6717 293.846 L85.193 293.0436 L84.7898 292.7127 L84.1132 290.1381 M88.4642 334.2054 L88.5316 333.2136 L89.783 333.3348 L90.4839 333.2386 L90.9639 332.8547 L91.1774 332.4132 L91.4832 332.1429 L91.6773 331.7157 L91.9451 331.6792 L92.2952 332.0611 L92.4244 332.2679 L92.6148 332.7451 L93.1135 332.7595 L93.4761 332.5681 L94.046 332.0361 L94.247 331.6522 L94.0254 331.1414 L93.7046 330.8865 L93.483 330.4844 L94.6689 330.3622 L95.2506 330.2333 L95.9003 329.8735 L96.3597 329.633 L96.2817 329.0789 L96.2705 328.4651 L96.0389 327.8427 L95.5683 326.9403 L95.6875 326.6489 L96.1731 326.518 L96.6599 326.3429 L97.3028 326.1861 L99.9773 326.5007 L101.8086 326.468 L104.7346 326.1707 L106.7855 326.1467 L108.6243 326.1573 L110.043 326.2794 L113.3629 326.798 L116.5048 327.3011 L117.491 327.4492 L117.5103 327.8417 L117.3006 328.7114 L117.0859 330.6383 L116.0255 332.8894 L116.1828 334.0813 L116.0848 335.2876 L116.2333 335.3954 L116.3532 335.5955 L116.415 335.9812 L116.4418 336.417 L115.6685 337.8619 L115.2846 337.9245 L114.4557 337.6628 L114.4532 337.6647 L114.3734 337.8225 L112.9971 337.4993 L113.014 337.354 L111.3668 336.999 L109.764 336.4872 L108.2348 336.7778 L104.5155 336.7643 L103.3446 336.6594 L101.5058 337.0702 L100.6289 336.8884 L99.8649 336.9153 L99.0648 337.2116 L97.6823 337.304 L94.3081 337.4031 L93.6484 336.9933 L93.0948 337.1356 L92.337 337.4771 L91.819 337.6224 L91.2797 337.9389 L90.8478 337.7013 L90.8491 337.4367 L91.0494 337.0529 L91.3915 336.7335 L91.6417 336.3843 L91.3203 335.8283 L90.6443 335.7013 L89.9072 335.6272 L89.4647 335.3752 L88.9117 334.9221 L88.4642 334.2054 M90.6312 319.3789 L90.8385 319.0374 L91.3297 318.8267 L95.4079 316.4505 L96.3578 315.0209 L96.9633 311.5652 L99.0791 305.9834 L100.3056 302.9106 L100.3524 302.0621 L100.197 299.2317 L101.1182 299.4058 L102.6306 299.2933 L103.5406 298.97 L104.1086 298.3735 L105.0448 295.572 L106.5296 292.2961 L107.7349 289.4618 L107.8092 288.8335 L107.5788 287.5559 L107.763 287.2124 L107.1457 285.699 L106.6414 284.1962 L105.3912 282.9474 L103.3577 281.9998 L103.2522 281.8853 L103.3465 281.3859 L103.6829 280.7596 L103.7834 278.9393 L104.2964 276.9651 L105.0067 275.3978 L106.0859 273.2186 L106.5034 272.0063 L106.6208 271.1077 L106.6844 269.6019 L107.127 269.0901 L108.1568 268.9669 L110.5005 268.8524 L115.221 268.8361 L117.0816 268.711 L118.2912 268.075 L119.1912 266.8733 L119.5058 266.3826 L119.5363 266.0257 L119.1587 264.7672 L119.1113 264.2024 L119.3541 262.4475 L120.4788 260.197 L120.7578 259.7564 L121.093 259.3936 L121.8338 258.8346 L122.8618 257.6117 L123.2076 256.4995 L123.2182 255.75 L123.32 255.2939 L123.4779 254.9167 L125.8565 251.7599 L126.0612 251.6714 L126.1836 251.6185 L126.3115 251.5982 L126.4888 251.6127 L128.3631 253.2022 L130.1101 254.5473 L130.7817 255.1861 L131.0638 255.5806 L131.1905 255.8241 L131.1674 256.2234 L131.0438 256.816 L130.8947 258.3362 L131.1843 260.1364 L131.5769 261.2169 L132.3533 262.2358 L132.7621 262.8737 L133.1116 263.9609 L133.8119 264.3169 L134.3593 264.4574 L135.2019 264.645 L135.9465 264.8076 L136.4278 265.0818 L136.4115 265.5244 L135.7549 266.3345 L135.6326 266.6626 L135.8723 267.0638 L136.5176 267.3813 L138.6491 268.2857 L139.7033 269.1276 L140.1752 269.8867 L140.222 269.9849 L141.0065 271.2481 L141.3242 271.5926 L141.8198 271.9524 L142.854 272.4008 L143.1443 272.5739 L143.1212 272.9742 L143.1942 273.9738 L142.8153 274.6069 L142.9889 275.4151 L143.1979 275.5825 L143.2135 275.596 L143.4913 275.8182 L144.0368 275.9491 L144.9818 275.8403 L147.1638 275.2679 L147.9309 275.1438 L148.6855 274.6694 L149.9613 272.6105 L150.2452 272.1294 L152.7974 269.7809 L153.2468 269.3123 L153.7555 268.3935 L154.2679 268.0471 L154.766 267.8788 L154.9145 267.9865 L154.9052 268.4714 L154.1 270.5381 L153.7655 272.2641 L152.8373 274.9215 L151.2714 278.7825 L150.4843 280.1419 L150.1984 280.5403 L149.6929 280.9299 L148.4352 282.629 L148.1937 282.756 L144.6666 280.9511 L139.2489 278.2639 L136.9489 276.7447 L136.3741 276.7053 L135.9615 276.8602 L135.783 277.1094 L135.8448 277.4952 L137.1406 278.2091 L138.553 278.2889 L141.5489 279.784 L144.5861 281.536 L147.7081 283.2746 L147.7961 283.5468 L146.1196 286.7217 L145.7139 286.919 L145.38 287.0171 L145.061 286.9363 L144.7639 286.7208 L144.4519 286.6833 L143.9388 287.0306 L142.1687 289.076 L141.1214 289.9053 L140.7001 290.5461 L139.7351 292.6222 L138.9119 294.1414 L140.1346 295.2978 L139.8138 296.231 L139.2358 296.942 L139.3107 297.6779 L139.6546 298.4582 L139.9162 299.2365 L139.2957 301.0365 L137.7872 303.3484 L134.4492 306.7925 L132.7509 308.7387 L132.5942 308.8523 L132.4525 308.7868 L132.427 308.0874 L132.6891 306.7252 L132.6423 304.5326 L132.4607 303.4013 L132.6011 302.1025 L132.2559 301.5859 L131.8733 301.3838 L131.3759 301.5531 L130.7985 302.0419 L129.7762 303.5715 L129.5565 303.5629 L129.4092 303.1906 L129.3536 302.8481 L129.6732 301.3001 L130.1794 299.2827 L131.6605 296.7996 L134.8387 292.6338 L134.8686 292.2768 L134.8343 292.0623 L134.4242 291.689 L128.4892 288.7777 L128.2333 288.8191 L126.324 291.8997 L125.7591 292.7386 L124.9914 294.4906 L124.0727 298.2908 L123.5247 300.0514 L122.7813 301.1395 L122.1834 301.5002 L121.7215 301.6195 L121.4094 301.582 L120.8851 301.3146 L120.123 300.3823 L119.9689 299.9677 L120.0575 299.1605 L119.9832 298.4255 L119.336 297.1219 L118.567 296.1463 L118.293 295.5316 L117.8567 294.7215 L117.4879 294.606 L116.6559 294.8725 L115.6167 295.4806 L114.7978 296.0973 L114.379 299.0903 L114.2623 299.7252 L114.07 299.8878 L112.8698 300.0389 L111.1303 300.1004 L110.6185 300.1832 L110.3975 300.4391 L110.3026 300.9374 L110.5236 302.3103 L110.674 305.1455 L110.5716 307.2293 L110.0068 311.3238 L110.0361 312.5956 L110.1947 313.5817 L110.7083 314.5985 L111.7032 315.8886 L111.9554 316.64 L114.8246 317.0777 L114.995 317.0498 L116.938 317.4394 L118.2487 317.9753 L118.871 318.5785 L119.3017 319.0806 L120.1237 319.299 L120.3852 319.5645 L120.3771 319.7858 L120.1255 320.3986 L119.8896 320.8325 L119.6543 321.0028 L119.0551 321.6281 L118.9471 322.0408 L118.8729 322.669 L118.9709 323.0047 L118.7749 323.961 L117.7538 326.8538 L117.6327 326.9173 L117.3768 326.9586 L111.6315 326.0409 L108.6243 325.7484 L105.0535 325.8427 L102.2991 325.8485 L99.0442 325.1876 L96.8085 325.1539 L92.1791 325.4637 L91.364 325.2876 L91.0457 324.9432 L90.9346 324.5209 L90.6312 319.3789 M98.058 243.3976 L98.6173 242.2517 L98.9811 241.7966 L99.1515 241.7687 L99.463 242.0708 L99.7164 242.5577 L100.305 242.6827 L100.481 242.8107 L100.9416 243.1071 L101.24 243.059 L101.2793 243.0339 L101.3467 242.9906 L101.5177 242.8819 L101.6525 242.904 L102.0832 243.4063 L102.4358 243.9653 L102.8116 244.1241 L102.982 244.0971 L102.8278 243.6815 L102.2161 242.3287 L101.8435 241.734 L101.5258 241.227 L100.7444 240.8681 L100.0447 240.5467 L100.4835 239.6384 L100.8442 238.8917 L101.3617 239.1592 L102.2143 239.6009 L102.7535 239.6903 L103.0993 239.3921 L103.4563 238.8936 L104.5386 238.2788 L104.9755 237.46 L105.8581 236.9654 L107.0527 236.5074 L107.0471 236.2005 L106.8929 235.7858 L106.4703 235.0622 L106.3942 234.5907 L106.4104 234.1481 L106.2413 233.9114 L105.5522 233.9787 L105.1478 233.9124 L104.7733 233.489 L104.6616 233.0666 L104.6915 232.7106 L105.2564 231.8706 L106.4011 230.0135 L106.6289 229.8894 L107.205 229.5757 L107.9727 229.4506 L108.7042 229.3765 L109.1086 229.4429 L109.455 229.695 L109.4538 229.9596 L109.2753 230.2079 L109.2316 230.4792 L109.3776 231.1152 L109.6036 231.4308 L109.6928 231.9889 L109.6978 232.5595 L109.8177 232.7606 L110.2565 233.0416 L110.86 232.9877 L111.3081 232.7827 L111.5435 232.6134 L112.1239 231.5713 L112.1876 231.453 L113.3273 230.6524 L114.6374 229.8239 L115.4057 229.4362 L115.9188 229.0888 L116.2333 228.5981 L116.3844 228.1776 L116.6634 227.7359 L117.026 227.5454 L117.579 227.7196 L117.8692 227.8928 L118.2425 228.5808 L118.3392 229.1812 L118.1869 229.8653 L118.1682 230.8371 L117.9622 230.9141 L117.6427 230.8333 L117.4024 230.6967 L116.9424 230.2868 L116.5242 230.1347 L115.8351 230.2021 L115.3296 230.5918 L114.5044 230.9016 L113.8141 231.2336 L113.4296 231.5598 L113.1862 231.9514 L113.223 232.3122 L113.2611 232.6875 L113.4933 233.0454 L114.3946 233.208 L114.5288 233.1926 L115.3395 233.0983 L116.1216 232.7962 L117.3799 232.4604 L118.2899 232.1371 L118.7106 231.7609 L119.3098 231.1364 L119.8871 230.6466 L120.2279 230.5918 L121.1154 230.6678 L121.4057 230.841 L121.4824 231.0479 L121.3177 231.3827 L120.8957 232.0235 L120.701 232.7144 L120.7859 234.329 L120.7066 234.6504 L120.5125 235.0776 L120.2747 237.4042 L120.2104 237.5466 L119.9545 237.5879 L119.693 237.3224 L119.6306 236.9356 L119.6449 236.7759 L119.8178 234.838 L119.7061 234.4156 L119.5301 234.1365 L119.1837 233.8844 L117.9922 233.5496 L116.9499 233.3216 L116.048 233.4236 L115.3008 233.6766 L115.2784 233.6978 L114.8446 234.1029 L114.6567 234.837 L114.8446 235.7309 L115.402 236.4766 L116.9536 237.1492 L118.0084 237.7265 L120.0038 239.2516 L120.3983 239.8039 L120.7578 240.4052 L121.3476 241.8937 L121.7408 242.7106 L122.2121 245.6347 L122.767 245.8329 L125.6181 245.6867 L126.1386 245.9888 L126.4089 246.4179 L126.5212 246.9519 L126.216 247.4484 L125.9732 248.0565 L125.977 248.5116 L126.4407 248.5453 L126.4632 248.5472 L126.882 248.4799 L127.0337 248.4548 L127.4406 248.1614 L127.6216 247.764 L127.4406 246.8028 L127.6016 246.0667 L127.689 246.0417 L128.2863 245.8685 L129.0615 246.0148 L129.3574 246.1687 L129.4092 247.6322 L129.1951 248.4202 L128.8312 248.8214 L128.3294 251.6185 L127.6684 251.5857 L127.1635 251.1066 L126.628 250.4562 L126.0244 249.6489 L125.6518 249.1515 L124.816 249.4449 L124.4278 249.9635 L124.22 250.6274 L123.7032 251.0527 L123.192 251.1354 L122.8319 250.0376 L122.2595 250.2262 L121.4313 251.9206 L119.7604 252.4536 L117.9685 252.6124 L118.6657 254.1201 L120.2728 255.0563 L119.9233 255.3334 L119.1001 255.3786 L118.2057 255.2593 L113.9265 253.3994 L113.3185 252.8827 L112.8036 252.1294 L111.6908 251.7378 L111.0622 251.0912 L110.4674 250.6601 L110.1335 250.7583 L110.0405 250.993 L110.1435 251.6358 L110.3832 252.037 L112.6988 253.3782 L115.5667 254.8946 L117.9891 256.0858 L119.1581 256.5572 L119.5463 257.0662 L120.3534 259.0915 L120.3452 259.3128 L120.2516 259.5476 L119.874 259.9171 L119.2168 260.7272 L118.9465 260.9466 L118.783 261.0178 L117.7413 260.5261 L110.5754 258.1217 L109.3808 256.9517 L107.8659 255.9645 L106.612 255.5075 L105.8493 255.1813 L105.3438 254.9649 L104.0074 253.7294 L103.6773 253.0348 L103.5306 252.3988 L102.9401 251.1739 L102.987 250.9036 L103.1661 249.8615 L104.1566 250.5812 L104.9767 251.3288 L106.2388 253.1926 L106.514 253.5437 L107.7617 253.9575 L108.1512 254.2028 L109.1973 255.265 L110.8051 256.0165 L112.0471 256.1243 L112.2107 256.0531 L112.2257 255.8751 L111.9385 255.4507 L110.2065 253.9267 L105.4723 250.6014 L103.2747 248.3615 L102.3004 247.1992 L98.3158 244.456 L98.0911 243.8768 L98.058 243.3976 M113.1893 222.7295 L113.1975 222.5082 L113.2992 222.0521 L113.4353 221.8096 L114.153 221.6499 L114.5157 221.4584 L114.8939 221.0899 L115.211 220.0699 L115.3795 218.9431 L115.5524 218.387 L116.1921 217.4209 L116.4387 217.0995 L116.8718 217.0735 L117.1839 217.111 L117.6008 217.5277 L118.2057 218.8373 L119.022 220.3778 L119.4939 221.137 L119.9689 221.368 L121.3164 221.5902 L122.35 222.3032 L123.3462 223.3299 L123.7413 223.8823 L124.0877 224.1334 L124.4428 224.1642 L124.9265 223.9102 L125.1905 223.6475 L125.1219 223.2183 L124.8959 222.9027 L122.4112 221.3247 L121.224 220.1969 L117.9803 216.8936 L117.8973 216.3797 L117.8642 215.9006 L118.2456 215.1308 L122.9492 219.2164 L123.2138 218.9624 L118.7043 214.5043 L119.3709 212.4884 L119.492 212.4249 L119.6899 212.5693 L120.1193 213.3362 L120.6286 213.7817 L121.513 214.386 L122.0429 214.9604 L122.5017 215.634 L122.8749 216.322 L124.0346 217.2785 L124.7842 217.8606 L126.6498 218.3071 L127.2003 219.0105 L127.3682 219.5109 L128.1746 220.1719 L128.7495 220.2114 L128.9985 220.1267 L129.0846 219.8496 L128.9866 219.5128 L128.6565 218.8181 L127.674 217.877 L126.196 216.576 L124.2038 214.5226 L120.359 210.7449 L119.8091 209.977 L119.2299 209.1677 L119.2667 208.8531 L119.4321 208.5192 L119.8528 208.1429 L120.457 207.9745 L120.52 207.9572 L120.6898 207.9101 L121.1492 208.32 L121.9225 208.5028 L122.1278 208.6895 L122.7595 209.6007 L123.3624 210.3821 L124.3111 210.844 L124.4241 211.0018 L124.4659 211.2597 L124.1582 211.7937 L123.9778 212.3066 L123.9616 212.7492 L124.1245 212.9426 L124.5864 212.8243 L124.7786 212.6607 L124.9584 212.1478 L125.4177 211.5522 L125.5014 211.4434 L126.0544 211.6186 L126.5774 212.1497 L126.686 212.4827 L126.7728 212.8223 L127.1185 213.3381 L128.0666 214.0646 L128.6652 215.0682 L129.1096 215.6561 L129.7331 215.9958 L129.9566 216.8397 L130.1819 218.7824 L129.7131 220.2229 L129.7468 220.7011 L130.0496 221.2246 L130.1738 221.9963 L129.9903 223.302 L129.5178 224.17 L129.2619 224.2113 L128.9648 223.9958 L128.6053 223.3944 L127.1579 221.7365 L125.6318 220.1353 L124.6325 219.6369 L124.0221 219.6475 L123.9828 219.9487 L124.3791 220.2364 L125.6524 221.3506 L126.613 222.4274 L127.9824 224.1421 L128.1727 224.4278 L128.6165 225.0947 L128.6939 225.3025 L128.0666 225.7557 L127.5505 225.9125 L127.4412 225.9453 L127.1853 225.9866 L126.1798 225.4459 L125.4989 225.2919 L124.8884 225.3025 L124.3479 225.4776 L124.1557 225.6412 L124.1544 225.9048 L124.1956 226.1627 L124.4216 226.4783 L124.6481 226.5293 L125.5076 226.4341 L125.8627 226.4649 L126.4214 226.946 L126.5562 226.9681 L127.1479 226.8728 L127.2808 226.8517 L127.3083 227.0229 L126.3833 228.6982 L124.7174 231.578 L124.504 231.6127 L124.2774 231.5617 L124.0365 231.4241 L123.6757 231.0864 L122.8606 230.9103 L122.1091 230.5918 L121.7558 230.2973 L121.3401 229.6171 L120.0051 228.117 L113.429 223.1308 L113.1893 222.7295 M130.836 317.4529 L131.0763 314.5985 L131.2848 313.9925 L131.5925 313.4595 L132.377 312.4657 L133.0867 311.9212 L135.0172 313.4932 L135.5508 312.6273 L135.308 311.5008 L134.8025 310.8552 L134.0535 310.6542 L134.383 309.9856 L135.0771 308.8609 L135.4135 308.2346 L135.24 307.4275 L134.9648 307.0754 L137.3546 304.5336 L137.4963 304.5981 L137.6723 304.878 L138.2022 305.4524 L138.8183 305.7487 L139.606 305.7525 L140.8143 305.3812 L141.5914 304.7722 L141.841 304.423 L142.2917 303.6908 L142.4646 303.1348 L142.8946 302.2728 L144.5343 300.7758 L146.657 299.2884 L147.0265 299.1412 L148.2024 299.655 L149.7703 299.8849 L151.991 301.2058 L154.6724 302.0688 L156.0873 302.8298 L157.4511 303.7563 L175.162 314.0867 L178.1074 314.9074 L178.7521 315.4952 L178.7247 315.8155 L178.7883 316.208 L178.5274 316.3812 L178.0331 316.5669 L176.7979 316.9238 L172.5593 317.7848 L171.8615 318.0638 L169.3 320.0638 L166.8639 321.6502 L163.6439 320.1822 L160.4495 318.8074 L154.6399 318.0888 L154.1868 318.109 L152.7731 318.1706 L150.885 318.1244 L149.3396 317.7588 L146.9254 316.3456 L146.6133 316.3081 L146.2862 316.4485 L145.2214 317.9849 L143.8845 320.0052 L142.7354 321.2904 L142.4153 321.4742 L142.1169 321.5223 L141.7337 321.5848 L140.1683 320.8258 L138.9094 319.7974 L136.1906 318.3899 L134.3893 318.0657 L131.2429 318.3553 L130.9889 318.1321 L130.9252 318.0099 L130.836 317.4529 M137.6829 226.8218 L138.0287 224.4086 L138.4563 223.6994 L139.36 223.3963 L140.9997 223.5233 L141.3842 224.8252 L141.9265 225.749 L142.8734 226.74 L143.5406 226.8084 L144.3008 226.6409 L145.7813 225.7855 L146.7013 224.9763 L147.215 224.3653 L147.4447 223.888 L147.4391 223.5811 L148.0145 221.8991 L148.3035 220.705 L148.7978 220.2479 L149.3895 219.9593 L149.9344 219.7899 L150.2041 219.8342 L150.3969 220.0853 L150.6441 220.2643 L151.096 220.4817 L151.0922 221.2746 L151.0479 221.545 L150.9686 221.8664 L150.7321 222.3004 L150.3102 222.9412 L150.0948 223.5041 L150.1841 224.0612 L150.5436 224.6636 L150.7389 225.3352 L150.5086 226.0771 L149.809 227.8918 L149.4151 229.0696 L149.2329 230.1107 L148.9607 230.5947 L148.7947 231.1941 L148.8353 231.7156 L148.6562 232.189 L148.7598 232.2882 L149.1417 232.6538 L149.5412 232.7462 L150.0493 232.3748 L149.9619 230.5648 L150.1803 229.4737 L150.9899 226.3513 L152.5415 221.0398 L152.9497 218.6853 L152.4092 218.2003 L151.1796 216.9263 L150.1616 216.0343 L149.8533 215.2049 L149.8982 214.6689 L150.1129 214.3706 L152.4148 213.1254 L153.3092 213.1466 L153.527 213.5238 L153.9483 214.0136 L154.0407 215.4069 L154.2436 216.1219 L154.8808 216.5472 L155.6535 216.73 L156.9312 216.7877 L157.5653 216.3769 L158.1414 216.1517 L158.7943 216.1344 L160.0101 215.8053 L160.6748 216.4019 L161.4956 218.513 L161.8913 218.8017 L162.1609 218.846 L162.4181 218.54 L162.5566 217.7692 L162.4312 217.2621 L162.043 216.7531 L161.5056 216.4 L161.1941 216.0978 L160.6811 215.0807 L160.6118 214.6525 L160.6848 214.2888 L161.0649 213.391 L161.4319 212.4076 L161.7421 211.3453 L161.8102 210.41 L161.729 209.6315 L161.5249 209.1802 L161.0506 208.9493 L160.4189 208.8309 L158.5277 209.2447 L157.7413 209.0821 L157.3213 209.4044 L156.8844 210.2724 L156.7115 210.7737 L156.0355 210.9479 L155.5243 211.0306 L154.4889 212.2104 L154.2966 212.3739 L154.1905 212.2585 L153.4459 210.6188 L152.6364 209.1225 L152.4972 208.5288 L152.5552 208.2238 L152.5921 208.0294 L152.8873 207.1451 L153.0521 206.8112 L155.4775 204.0283 L156.7027 203.2142 L158.353 202.5955 L159.1132 202.175 L159.4777 201.9729 L160.1892 201.1588 L160.4214 200.1533 L160.0089 197.6629 L159.743 196.8257 L159.3922 196.4321 L159.263 196.2868 L158.549 195.8933 L158.3985 195.8105 L156.2515 194.9704 L154.6811 194.0216 L154.0825 193.2335 L153.748 192.5503 L153.7049 192.4618 L153.8404 191.8161 L154.3128 189.5595 L155.279 183.7559 L155.9812 180.7814 L156.1684 180.3108 L156.7595 179.9076 L157.1802 179.5313 L157.4892 178.7336 L157.5653 177.5769 L159.5501 176.86 L160.7666 176.2672 L162.1622 175.4251 L165.3603 172.5054 L166.7366 171.9319 L167.8576 172.2158 L168.3681 172.3967 L168.5373 172.6334 L168.976 172.9144 L169.6214 173.1184 L170.1039 173.1281 L170.5527 172.9241 L170.8092 172.618 L171.0445 172.4477 L171.8122 172.3236 L173.0368 172.798 L173.126 173.1338 L172.8926 175.4328 L172.9887 176.2498 L173.322 177.3604 L173.2921 177.7174 L173.3538 178.1033 L173.4587 178.4824 L174.1384 178.901 L175.343 179.3225 L178.7203 179.9201 L183.8159 180.6803 L185.5117 180.8901 L186.1927 181.0441 L186.34 181.4165 L186.5503 182.7252 L186.3768 184.9097 L185.9842 186.8218 L185.3288 188.7319 L184.4563 190.1051 L182.4864 192.2722 L180.7682 193.8263 L179.0093 194.8588 L178.2616 195.3756 L177.349 196.2272 L175.6145 199.0428 L174.0023 203.704 L173.5442 204.8674 L172.6542 206.1443 L171.8877 207.632 L170.5876 210.7025 L170.2531 212.4288 L170.0614 213.9559 L170.0178 215.5907 L169.8374 217.7317 L169.6208 221.8241 L170.0458 223.3222 L170.6962 225.0831 L171.336 226.4523 L172.0282 228.0929 L172.1592 229.2899 L171.9926 230.534 L171.8309 232.138 L171.3828 234.0769 L171.1593 235.8396 L170.2805 238.4366 L169.6926 239.6759 L168.9492 240.7641 L168.3943 242.4816 L168.1877 242.5586 L167.8413 242.3075 L167.3695 241.5474 L165.8709 240.1175 L165.4196 239.4873 L164.2749 238.3519 L163.408 236.1167 L162.8862 235.321 L160.3746 233.5708 L159.6974 232.6249 L159.6281 232.1958 L159.6618 231.0469 L160.0775 228.7357 L160.05 228.5634 L159.8147 228.7338 L158.4248 231.5107 L158.2862 232.2814 L158.2606 233.209 L158.1177 233.4082 L157.6333 233.6622 L156.9724 233.9018 L156.4112 233.948 L154.4882 233.6872 L152.4504 233.7969 L150.3982 233.8209 L148.8234 233.5477 L146.5116 233.0416 L145.4817 233.1647 L144.9481 233.3831 L144.1673 233.4216 L140.2994 233.0348 L139.4312 232.5326 L139.2414 232.1679 L139.2658 231.504 L139.3862 231.2826 L139.5023 231.069 L139.7732 230.8497 L139.9792 230.7727 L140.2351 230.7313 L141.5758 230.6524 L143.7478 231.0864 L145.742 231.248 L146.0266 231.1143 L146.1833 231.0007 L146.2763 230.765 L146.6483 228.7251 L146.7306 226.9527 L146.4741 226.9335 L145.6259 230.255 L145.3413 230.3888 L144.1186 229.8903 L140.5191 229.2331 L139.2976 229.2543 L138.807 229.466 L137.9875 228.7184 L137.839 228.1728 L137.7441 227.5829 L137.6829 226.8218 M148.962 297.7655 L149.0787 297.1305 L149.3527 296.1184 L151.3706 290.345 L153.5227 285.6817 L150.0536 283.5901 L150.4993 282.2865 L153.3036 277.6972 L154.7679 274.6704 L156.1853 269.0737 L156.5654 268.1761 L157.144 267.4227 L157.7887 266.2624 L158.5065 263.1104 L158.6445 262.3407 L158.9759 261.8462 L159.4995 261.7355 L160.4358 261.9607 L161.4644 262.3811 L162.9967 263.8686 L164.9771 265.1521 L166.8221 265.052 L168.4711 266.0613 L172.9113 268.3791 L174.6502 269.9454 L175.4004 270.5285 L175.8236 270.9874 L176.5895 272.7558 L176.9889 273.8795 L177.1187 274.1441 L177.2486 274.4087 L177.5307 274.8032 L178.3358 275.7287 L178.3595 275.8759 L178.4463 276.4147 L178.3196 277.0613 L178.0331 278.1975 L178.1305 278.5343 L179.674 279.4281 L180.1203 279.6157 L181.034 280.0005 L181.4235 280.2449 L181.6863 280.2468 L181.964 280.0698 L182.2786 279.5791 L182.8678 278.0763 L182.7985 277.6472 L182.3891 277.2729 L182.0726 276.6649 L181.9896 276.1501 L182.057 275.4795 L181.9796 275.2717 L181.2868 274.8253 L180.212 273.8545 L178.3446 272.573 L177.2149 271.2597 L175.9378 269.575 L173.8881 267.7065 L170.0858 265.5494 L168.8375 265.3993 L167.3158 264.3699 L166.9357 263.6396 L166.7428 262.4388 L166.3727 259.5947 L166.5019 259.3099 L167.0861 258.8635 L167.347 257.7647 L167.0593 257.0633 L167.2471 256.3292 L168.189 255.3853 L172.5986 253.7044 L173.586 253.588 L175.4579 254.0777 L178.3196 255.2862 L179.9243 256.8314 L180.4386 257.5838 L181.3748 260.8965 L183.0469 264.0697 L184.3439 265.8843 L187.0209 267.7826 L188.8603 269.7366 L190.3058 271.0307 L193.0552 273.4918 L194.4246 273.1147 L194.7854 273.4524 L194.9052 273.6525 L194.9039 273.9171 L194.1768 274.5626 L193.5689 275.4084 L192.9741 276.6043 L192.4648 277.7867 L192.3343 278.3005 L192.197 278.8421 L192.1995 279.0326 L192.2126 280.0275 L192.0959 280.6624 L191.8643 280.8529 L189.4776 282.8147 L188.3404 282.5337 L187.2974 282.8426 L186.2376 284.3463 L187.3923 284.7899 L188.2705 285.3055 L189.3265 286.1156 L188.5975 287.7387 L187.7474 290.0429 L186.594 291.5081 L186.1696 292.6193 L186.089 293.6401 L185.9112 294.5454 L185.5398 295.0217 L185.2689 295.241 L184.9774 295.3324 L184.2684 295.2708 L182.7823 294.1914 L180.3581 293.5275 L176.5352 292.8704 L170.9633 292.7598 L168.6215 292.6107 L168.287 292.7088 L166.7878 294.5348 L166.56 294.7475 L162.9442 296.7399 L162.694 297.0882 L162.7064 297.4384 L162.8032 298.0387 L163.1789 298.1984 L164.2674 297.626 L167.058 295.9433 L169.8979 294.2953 L170.9721 293.9018 L171.5257 293.8123 L173.1017 293.8219 L174.8618 293.8893 L179.7077 294.3809 L181.6445 294.7273 L183.3372 295.4661 L184.6373 296.7515 L184.9275 296.9246 L186.1483 296.9025 L186.3811 297.2614 L186.3568 297.9252 L185.5267 301.4685 L184.7565 303.7486 L183.4426 305.3687 L182.6687 305.4504 L181.6195 305.1801 L181.0447 305.1407 L180.5965 305.3456 L180.3038 305.7006 L180.2089 306.1999 L180.2851 306.6713 L181.2456 308.6175 L181.3711 309.8855 L181.7081 310.786 L181.1501 311.393 L180.5254 311.9058 L180.6633 313.649 L179.9018 314.08 L179.1909 314.283 L178.5874 314.3369 L178.0057 314.2551 L176.1295 313.1949 L173.5711 311.5585 L171.2242 309.4747 L168.8287 308.7176 L166.442 307.4765 L159.9009 303.7832 L153.9877 300.7364 L150.6815 298.9392 L149.3845 298.489 L148.9963 297.98 L148.962 297.7655 M152.8405 364.0648 L153.0109 361.8716 L154.2298 361.0895 L154.6592 357.9699 L156.1903 357.7631 L162.6784 358.6991 L162.6652 361.2762 L160.8209 364.717 L160.4782 372.7972 L160.0394 374.9557 L159.5863 375.6906 L158.5608 376.6237 L158.3224 375.7801 L158.7449 371.968 L158.9191 366.2744 L158.5571 364.5467 L158.172 364.3197 L152.8405 364.0648 M153.21 259.3744 L153.4921 257.4491 L153.6394 256.8853 L153.7211 256.5717 L154.1662 256.4254 L154.7123 256.7573 L155.1492 257.478 L155.2141 257.682 L155.397 258.2535 L155.8826 258.8183 L156.7489 259.2965 L157.6346 258.9799 L158.4734 258.5229 L159.5526 257.2606 L157.8075 255.7615 L155.9912 254.9033 L155.1754 254.5184 L155.2328 254.3327 L155.3976 253.9979 L155.6398 253.6986 L155.7259 253.5928 L156.1828 253.1675 L156.9 251.6059 L157.2514 250.4311 L157.433 249.824 L158.2644 247.0472 L159.3766 245.3249 L159.8996 244.7341 L160.5693 244.2742 L161.1373 244.3743 L162.7757 245.1084 L164.0134 245.5645 L164.8217 245.6982 L165.5176 245.857 L165.9445 246.34 L166.5075 246.6864 L166.3465 247.5629 L165.2611 248.9706 L164.2606 250.3647 L163.7026 251.2471 L163.3425 252.2727 L162.6035 253.9325 L161.6341 256.333 L161.5624 256.4331 L160.0114 257.6396 L158.8941 259.2955 L158.1208 260.1624 L157.6539 261.4007 L157.0666 262.8064 L155.5274 264.7364 L153.9808 265.0857 L153.7368 264.3343 L153.8728 262.7294 L153.7717 261.4844 L153.2274 260.707 L153.21 259.3744 M155.5874 172.8942 L155.6822 172.3948 L156.1653 171.4074 L157.2607 168.8823 L157.3356 167.9902 L156.659 165.415 L155.9001 161.784 L156.0124 160.5772 L156.2209 159.9719 L156.3089 159.4292 L156.194 158.1714 L156.2427 156.8433 L156.5642 156.3948 L157.0691 156.2697 L157.893 156.2245 L160.1281 156.5228 L160.995 156.4709 L163.1265 156.1263 L165.6362 155.4123 L166.8233 155.1755 L167.5055 155.0658 L167.5761 155.0706 L168.0804 155.1043 L168.8419 156.3015 L169.5453 157.6844 L170.0958 158.3879 L170.4191 159.0394 L170.509 159.5966 L170.5052 160.3896 L170.3536 162.4384 L169.9784 164.4584 L169.6632 166.5775 L169.6545 168.428 L169.7194 169.6492 L169.6745 170.1843 L169.4529 170.4403 L168.1909 170.6886 L167.5417 170.7935 L165.6918 171.2592 L164.6301 172.0031 L162.443 173.6333 L161.1323 174.4618 L160.3996 174.8006 L159.1182 175.5358 L157.4885 176.2835 L156.8631 176.4721 L156.0754 174.84 L155.7946 174.1809 L155.5874 172.8942 M158.3261 380.0875 L158.4291 378.8563 L161.1954 375.5598 L161.676 373.7466 L161.7758 368.3233 L162.3881 368.2011 L165.1993 369.5199 L165.027 371.4832 L165.3372 371.8651 L172.437 376.564 L172.3739 377.9877 L172.0032 379.2218 L158.3261 380.0875 M164.881 252.7827 L165.203 251.5203 L166.0918 249.7047 L168.3107 245.8262 L168.9542 244.9304 L172.1224 238.5222 L172.6804 237.6399 L172.7391 237.1906 L172.7235 236.0051 L173.5823 231.554 L174.0922 230.3714 L174.056 229.0571 L173.792 227.6878 L173.1916 226.9488 L170.9846 223.8293 L170.8672 223.1009 L170.8385 221.5652 L171.8915 213.6951 L171.7385 213.0158 L171.643 212.1507 L171.6387 211.5801 L171.6836 211.0441 L171.9364 210.1675 L172.6398 208.5577 L175.202 204.8568 L175.7412 203.0766 L176.6194 200.6459 L177.545 198.5164 L177.8958 197.9756 L178.4881 197.3078 L179.1809 196.4475 L179.5692 196.1714 L180.9517 195.7643 L181.6569 195.2543 L182.9196 194.0322 L188.1993 196.5823 L188.1356 196.6717 L187.8735 198.0343 L187.8211 199.1188 L187.8023 199.4979 L187.4759 201.0029 L186.9847 202.8418 L186.5734 203.5 L185.7701 204.7866 L185.4187 206.2319 L184.3545 207.504 L183.1874 211.1249 L182.4346 214.0627 L182.1694 214.589 L181.8479 215.0374 L181.6126 215.2068 L181.1083 215.3328 L180.448 215.3078 L179.297 215.4935 L179.0549 215.6205 L178.8751 216.1344 L177.5606 219.3829 L176.7442 220.8349 L176.112 221.2535 L175.7063 221.4517 L175.2937 221.6056 L175.1152 221.8548 L175.1071 222.0762 L175.6226 222.565 L176.9184 223.2799 L180.0797 224.4403 L182.1138 225.1235 L182.806 225.8914 L183.193 226.665 L183.3515 227.6513 L182.869 229.0051 L182.1132 229.7431 L181.3155 230.2242 L180.5759 230.5196 L178.9725 230.3387 L176.7605 229.6411 L175.0946 229.0744 L174.9735 229.1379 L174.9947 229.2668 L175.2494 229.4891 L176.077 230.0154 L179.3151 231.3837 L181.2119 232.573 L183.2523 233.5631 L185.3994 234.404 L187.1969 234.1568 L188.4246 234.1789 L189.6242 234.2924 L192.2906 234.8293 L193.5839 234.7081 L194.3428 234.8053 L194.7117 234.7783 L189.4289 244.6196 L194.296 247.0934 L193.8516 247.1742 L193.4447 247.636 L192.6014 248.4953 L192.1714 248.4866 L191.7245 248.7512 L190.9961 248.7291 L190.2684 248.9869 L189.2997 249.5373 L188.4296 249.6345 L187.6213 249.5007 L187.074 249.6335 L186.4042 250.0934 L185.5192 251.1172 L184.6123 252.2756 L184.2709 252.3305 L184.1298 252.265 L183.7828 252.0139 L183.608 251.4703 L183.2554 250.9113 L182.5707 250.1858 L182.1388 249.9472 L181.0671 249.8134 L180.1858 250.0434 L179.3388 250.4879 L179.0243 250.9796 L178.822 251.6281 L177.6955 252.7779 L177.3965 252.826 L176.9927 252.7596 L175.6033 252.2804 L173.993 252.0572 L172.0044 252.2025 L170.6113 252.5162 L169.4797 253.0944 L167.8164 253.6274 L165.2392 253.6486 L164.9915 253.4687 L164.9003 253.1752 L164.881 252.7827 M183.0195 193.9341 L184.0587 193.3259 L185.0779 192.5888 L186.2326 191.6101 L187.3991 189.6172 L188.062 188.3499 L188.7461 186.3464 L189.1174 184.3063 L189.1461 182.8494 L188.8909 181.2625 L188.5145 179.7382 L187.9746 178.2861 L187.9222 177.4142 L188.5495 175.3328 L189.0712 173.1483 L189.6929 169.3952 L190.0499 168.8977 L190.7983 168.3799 L192.1595 167.3242 L193.4865 166.053 L194.4858 164.9232 L194.9339 164.7192 L195.6355 165.0021 L196.0617 164.9328 L198.9666 160.7399 L200.1818 159.0471 L200.766 158.6006 L201.3215 158.2464 L202.2315 157.9231 L203.1134 157.6921 L203.8961 157.3899 L204.871 156.9241 L205.909 156.5806 L210.4709 155.8434 L212.0213 155.4161 L213.7209 154.8339 L214.6621 154.472 L216.0671 154.2093 L215.6863 154.7377 L214.9236 155.6663 L214.2346 156.6537 L214.1522 157.2282 L214.1609 157.8432 L213.9244 158.2772 L213.5449 159.4292 L214.6864 159.5976 L214.639 161.0065 L214.1147 161.8331 L213.2852 162.8724 L213.0674 164.6951 L211.0039 164.0119 L209.77 163.5105 L208.4474 164.7519 L207.2253 166.4023 L205.8865 168.6869 L205.7673 169.0699 L205.7423 169.1498 L205.8472 169.529 L206.5406 170.0332 L207.1704 170.4153 L207.5736 170.7463 L207.8064 171.1053 L208.3869 171.4507 L209.0391 171.698 L210.2874 172.4496 L210.9759 172.8634 L211.6268 173.3744 L212.085 174.049 L213.1517 175.2404 L213.2134 175.6263 L213.0406 176.1825 L211.8047 177.7462 L209.1683 180.3955 L208.5242 181.556 L208.5061 182.2633 L208.6097 182.9062 L208.9773 183.2872 L209.368 183.268 L209.78 183.1131 L210.4722 182.5174 L212.7909 178.7095 L213.7128 177.3729 L213.9836 177.1525 L214.2327 177.0688 L214.7358 177.2073 L217.6368 180.8314 L218.216 181.4415 L218.8614 181.6455 L219.465 181.5916 L219.9905 181.5955 L220.5641 181.8986 L221.1227 182.3798 L221.5396 182.7965 L221.9509 182.9062 L222.5907 182.8032 L223.1668 182.578 L224.2491 181.9631 L224.8102 181.9159 L225.0574 182.0959 L225.1897 182.6473 L225.2827 184.0398 L225.2833 185.4043 L225.0492 187.7619 L224.6105 190.4727 L224.0656 193.069 L223.7797 194.8319 L223.6231 194.9454 L223.1556 194.7568 L221.8486 193.4279 L219.1972 191.0838 L218.4544 190.5439 L217.7317 190.1321 L216.9864 190.1205 L216.2549 190.1956 L213.7583 189.6307 L212.8439 189.3824 L212.1699 189.2708 L211.8784 189.3622 L211.4646 189.7818 L210.7587 191.3417 L209.182 195.237 L207.6822 197.1683 L205.6219 195.9327 L204.4366 195.7383 L202.6559 195.9125 L201.93 195.9433 L201.6229 195.9568 L201.1686 195.2639 L199.816 193.1989 L199.2992 193.1941 L198.9659 193.0285 L198.4504 192.5397 L198.0029 192.48 L197.7114 192.5705 L197.526 192.7764 L196.832 193.9013 L196.5105 194.3488 L195.8271 194.7241 L195.0169 194.855 L191.4936 195.2485 L189.447 195.5796 L188.8709 195.8047 L188.4927 196.1733 L188.2861 196.4957 L183.0195 193.9341 M189.4763 244.5965 L194.7367 234.7783 L194.8184 234.7726 L195.0469 234.5599 L195.97 232.9588 L197.9205 230.3993 L200.7267 225.4353 L200.8515 225.0504 L201.3845 223.4069 L202.2471 220.7454 L203.4392 216.4615 L203.4623 216.0612 L203.3163 215.4252 L203.3824 215.0182 L204.5627 213.112 L204.9709 212.3855 L205.4633 211.9101 L206.9794 211.277 L210.044 210.2012 L215.6108 208.6414 L215.8455 208.472 L216.4671 207.7109 L217.399 205.8884 L217.9058 205.5015 L218.0874 205.363 L218.6766 204.9136 L219.6541 205.2648 L220.2114 205.6978 L220.6502 205.9788 L221.2663 206.2752 L221.5633 206.4917 L221.5652 206.5379 L221.5758 206.842 L221.2794 207.9899 L220.056 209.9029 L219.0992 211.0258 L218.8626 211.4598 L218.8683 211.7677 L219.0636 212.4394 L219.2041 212.7685 L219.5224 213.1139 L219.7989 213.2005 L220.0841 213.1947 L223.8983 214.3995 L223.6349 215.7447 L223.0707 217.3429 L222.4846 218.4803 L219.7645 226.1319 L219.1061 227.1548 L216.5358 233.1233 L215.4379 235.5442 L214.0717 237.6572 L213.3651 238.4318 L213.0019 238.6223 L212.1499 238.7599 L210.8292 238.7099 L210.6232 238.7868 L209.5984 240.844 L209.6258 241.0162 L209.682 241.0951 L213.8782 242.4403 L215.5952 243.1494 L219.3127 244.686 L219.6166 244.9448 L219.7639 245.3172 L219.6147 246.033 L219.3145 247.1492 L218.4538 249.137 L217.8883 249.976 L214.4711 253.4754 L213.6104 253.8353 L213.0137 253.9315 L209.5615 252.8616 L200.3734 249.111 L196.7096 247.8111 L194.3179 247.0568 L189.4763 244.5965 M193.9658 277.1979 L194.1231 276.332 L194.7797 275.2034 L199.0639 275.7576 L200.3971 275.6258 L200.5251 276.4205 L200.2773 277.3663 L198.0434 279.2732 L198.7069 280.4344 L196.4812 280.5479 L195.6592 279.6849 L195.075 278.4592 L193.9658 277.1979 M208.0686 265.8333 L208.7489 264.215 L209.0472 260.7512 L212.6817 261.4594 L216.5283 262.9603 L211.8097 265.7168 L208.0686 265.8333 M212.0026 173.1011 L212.0407 172.5228 L212.9451 170.5279 L213.3308 169.3298 L213.3695 169.2095 L213.5286 168.7167 L214.1178 165.8499 L214.468 163.9445 L215.3262 162.0997 L215.7706 161.324 L217.5163 158.9624 L219.1853 156.0089 L219.7034 154.6048 L220.247 153.3595 L220.7114 152.7119 L222.9515 150.5898 L227.8979 143.8051 L229.4002 141.4491 L230.93 139.2655 L231.3313 138.9537 L231.6534 138.8093 L232.0223 138.9575 L232.3699 138.971 L232.7063 139.1548 L232.7819 139.6264 L232.7369 140.1624 L232.4355 140.7389 L232.1209 141.2297 L231.8406 141.9352 L232.0372 142.3432 L232.8474 142.5174 L235.1343 143.141 L237.7645 144.499 L239.4728 145.0591 L239.6918 145.3314 L239.6326 145.7818 L237.845 151.2635 L235.6748 156.2707 L232.4561 164.8231 L228.3404 172.6921 L226.6914 176.0401 L225.6316 177.8829 L224.8782 179.4572 L224.734 179.9201 L224.5911 180.1193 L224.1717 180.2319 L223.3216 179.8412 L222.371 179.642 L221.9378 179.668 L221.4685 179.744 L220.5042 179.4601 L219.9805 179.1926 L218.628 178.3987 L216.0409 176.4529 L213.2097 174.6216 L212.5874 174.0182 L212.1568 173.5159 L212.0026 173.1011 M212.3733 258.0976 L214.0067 256.8632 L214.7751 255.8654 L216.9633 254.555 L217.3503 253.5928 L219.3844 251.7243 L221.0565 251.7782 L222.542 249.7249 L223.8534 247.4176 L226.3575 248.1633 L226.6015 251.5646 L225.5735 253.9171 L224.8183 254.835 L223.4308 255.9126 L222.1956 255.9318 L219.2421 257.02 L218.4076 258.0861 L212.3733 258.0976 M220.0841 213.111 L220.0904 213.1101 L220.2826 212.9465 L221.0079 211.201 L221.3062 209.7893 L221.6027 208.6414 L222.3023 207.8244 L222.8522 205.9865 L222.5364 205.8662 L222.0383 205.6757 L222.5626 203.9985 L222.9115 203.4048 L223.1612 202.9785 L224.0194 202.4762 L224.4057 201.8853 L224.548 200.3226 L224.4519 199.7222 L224.6236 199.4296 L224.8657 199.3026 L225.3413 199.2699 L225.9106 199.0024 L226.3025 197.8582 L225.8831 196.7814 L223.917 197.1972 L224.744 193.6454 L225.2577 191.6708 L225.7427 188.9735 L225.9099 186.7467 L225.8232 184.0321 L225.7102 182.5097 L225.7963 182.2316 L225.8531 182.1912 L226.913 182.8494 L228.0882 182.6098 L230.2584 183.0515 L231.7895 183.5961 L234.6949 184.799 L239.3816 187.5618 L240.5806 188.4904 L240.962 188.9571 L241.0887 189.2006 L240.1525 190.4525 L238.926 192.8948 L238.7019 193.6791 L238.5184 194.9849 L238.3955 196.9412 L238.3699 199.2333 L238.4173 201.1617 L238.5241 202.6407 L239.137 204.4382 L239.8086 205.3033 L239.7992 205.7883 L239.6413 206.1664 L238.5528 208.1015 L237.4093 209.7124 L236.7458 210.0694 L236.1635 210.1146 L235.2903 209.9837 L234.2393 209.4679 L233.7268 207.8629 L232.4248 206.7159 L231.9424 206.7063 L231.5723 206.8545 L231.1447 207.1874 L229.575 208.8492 L228.6887 211.5002 L228.2586 212.3614 L227.5015 214.7276 L227.1302 215.1394 L223.9152 214.2792 L223.9152 214.2821 L220.0841 213.111 M225.5804 180.2001 L226.6271 178.2697 L227.4491 177.1246 L227.5296 177.0543 L228.1862 175.9939 L231.3575 178.034 L232.3968 179.054 L233.5689 180.3618 L234.6081 181.3819 L235.9251 182.2258 L237.5566 182.578 L239.9502 182.4991 L240.6306 182.7397 L241.1567 182.6569 L241.628 182.0526 L245.0833 176.8879 L245.836 176.9264 L246.4371 177.4017 L247.1461 177.728 L248.4668 177.778 L248.6715 177.9657 L248.684 178.315 L247.573 180.3878 L245.9396 183.292 L244.4385 185.3831 L243.3163 186.841 L242.5324 187.4078 L241.9344 187.7687 L241.2741 187.7436 L240.9545 187.6628 L240.1113 187.3145 L234.9901 184.5777 L232.7794 183.6144 L230.8876 182.731 L229.8746 182.1469 L228.8703 181.3405 L227.1283 180.3022 L226.6596 180.3772 L226.516 180.5764 L226.0254 180.7881 L225.6004 180.5928 L225.5804 180.2001 M227.7743 175.0489 L228.0751 174.4724 L230.8988 169.1739 L233.4147 164.4093 L234.4571 161.9082 L235.6467 158.1511 L237.2608 154.6212 L238.9279 150.5658 L240.3023 146.8664 L241.0556 143.9273 L241.2984 142.1719 L241.2897 141.0286 L242.0324 141.5685 L242.9393 142.0381 L243.2726 142.2046 L243.0498 142.7253 L241.7466 144.9609 L240.9439 147.8634 L240.2336 150.7948 L239.9453 153.0862 L239.3461 155.0764 L237.5647 159.2376 L237.038 161.1008 L236.8663 162.757 L236.739 164.1418 L236.47 165.4621 L235.8939 167.0519 L235.1081 169.5116 L234.4964 171.1505 L233.4141 173.13 L231.8113 175.6782 L231.1016 176.9812 L231.1004 177.2458 L231.5254 177.4412 L231.7676 177.3142 L232.8212 175.4271 L233.9727 173.6121 L235.1798 170.7761 L236.4675 167.355 L237.3613 164.7461 L237.757 163.6693 L237.8681 162.7271 L238.4186 160.4377 L239.1482 157.898 L240.2536 154.9734 L240.8116 152.7263 L241.2285 150.15 L241.726 148.617 L242.8588 145.0446 L243.7988 142.9996 L244.0353 142.5655 L244.2556 142.5742 L245.092 142.8793 L245.1981 142.9938 L245.1388 143.4432 L244.2001 145.2236 L243.0354 148.053 L242.4225 149.9566 L242.0986 152.2981 L241.3995 154.4797 L240.1156 158.4726 L239.2549 161.2711 L238.6214 164.4112 L238.2388 167.202 L237.365 170.2045 L235.2722 174.0634 L234.4465 176.0016 L233.416 177.4845 L232.7875 178.2014 L232.6377 178.3583 L232.7082 178.5228 L233.0203 178.5604 L233.4191 178.3198 L234.3553 177.0678 L236.0661 174.3714 L237.6646 171.2515 L238.6539 167.8785 L239.8304 164.035 L240.2367 160.8438 L240.5594 158.7671 L241.7478 156.4006 L242.8532 154.0217 L243.2308 152.2875 L243.8256 149.7266 L244.5334 147.3235 L245.4684 144.9715 L246.0083 143.4317 L247.1224 143.5683 L247.206 143.8185 L247.1405 144.2256 L246.2629 146.392 L246.0956 147.2552 L246.1162 147.7768 L246.5388 147.874 L247.231 147.2783 L248.1934 145.0985 L248.7389 143.8657 L248.8326 143.6299 L251.253 144.1342 L256.5427 144.9301 L261.5871 145.8319 L261.1777 147.3688 L261.1408 149.0472 L261.3836 150.2838 L261.7263 151.329 L261.8299 151.9718 L261.7968 152.8582 L261.3462 153.5905 L260.5335 154.2497 L259.9568 154.4749 L259.2459 154.678 L258.6904 155.0321 L257.992 155.5845 L257.1575 156.3794 L256.5851 157.1763 L255.9704 157.9798 L255.5803 159.3628 L255.5135 160.0335 L255.7594 160.4781 L256.1913 160.7168 L256.7967 160.3992 L257.321 160.6658 L257.3759 161.0093 L257.16 161.5723 L256.4703 162.3056 L256.3161 163.2545 L256.2007 163.626 L256.0222 163.8742 L255.7525 163.83 L255.4055 163.5778 L254.0448 163.0052 L253.0518 162.7339 L252.5612 162.9456 L252.7354 163.2603 L253.3995 163.6471 L254.8762 164.3679 L255.4292 164.5421 L255.7113 164.9367 L255.6801 165.5583 L255.207 166.4273 L254.6696 167.4378 L254.297 168.1143 L253.945 168.9198 L253.5873 169.4173 L252.9326 169.6993 L252.457 169.732 L252.0513 169.9302 L251.5932 170.6202 L250.7175 172.5218 L250.4741 172.9135 L250.1826 173.0049 L249.8137 172.8884 L249.3238 172.8355 L248.9393 173.1617 L248.8731 173.5688 L248.3807 174.0442 L248.0118 173.9278 L247.8576 173.512 L248.0517 173.0848 L248.3457 172.465 L248.2047 171.341 L247.6061 172.7614 L245.0833 176.8705 L241.628 182.0362 L241.1567 182.6406 L240.6306 182.7233 L239.9502 182.4827 L237.5566 182.5617 L235.9251 182.2095 L234.6081 181.3655 L233.5689 180.3455 L232.3968 179.0377 L231.3575 178.0176 L228.1862 175.9775 L227.8573 175.5637 L227.7743 175.0489 M234.2798 225.034 L234.4103 224.4846 L234.9857 222.896 L236.5705 219.6918 L240.6836 209.083 L242.2752 205.922 L242.1579 205.1936 L241.8651 204.4209 L241.3933 203.6213 L240.6268 202.1163 L240.2904 201.1146 L240.11 200.2639 L240.1156 199.2064 L240.1837 198.272 L240.9832 195.8981 L242.6247 192.7726 L245.3492 188.7675 L247.6916 186.0038 L248.4793 184.645 L251.2642 176.9341 L252.3365 174.076 L252.995 173.002 L254.1722 171.8876 L255.2457 170.1294 L258.5107 162.244 L259.4001 160.4281 L260.3775 159.434 L261.4822 158.6833 L262.3785 158.2743 L263.5326 157.5603 L264.2391 156.7856 L264.7765 155.7751 L264.9756 154.8329 L264.8009 151.2962 L264.5375 147.2023 L264.7902 146.3256 L265.7883 144.0957 L267.1832 141.8899 L268.3236 141.0892 L268.7998 141.0565 L269.8259 141.7273 L270.8576 142.7051 L271.1809 143.3566 L271.2696 144.1785 L272.3918 145.7 L272.9123 146.5094 L273.2263 147.6469 L273.2525 148.0829 L273.1782 148.7113 L272.961 149.538 L272.0872 150.7005 L271.2315 151.8419 L270.7447 152.6253 L270.1785 153.7291 L270.0631 154.0996 L269.9682 154.5991 L270.0868 155.0639 L270.4532 155.5278 L271.2302 156.4632 L271.9012 157.1031 L272.8917 157.823 L274.6799 158.8777 L274.8984 159.1501 L275.0101 159.5725 L273.5321 162.627 L273.1583 163.5682 L272.8793 164.009 L272.7607 164.0946 L272.5659 164.2361 L271.0499 163.5124 L268.9465 162.3999 L264.711 160.2674 L264.1717 160.1788 L263.7373 160.4685 L263.4583 160.9102 L262.7549 162.2286 L262.7224 162.2816 L262.6126 162.4548 L262.6238 163.0688 L263.0832 163.4787 L265.8663 165.0098 L269.5076 166.7103 L270.98 167.3204 L271.5698 167.5648 L272.4473 168.1278 L272.574 168.3713 L272.438 169.9774 L272.3512 170.2555 L272.267 170.2892 L271.9817 170.4028 L271.1947 170.1343 L265.5111 167.9719 L263.7598 167.4186 L262.695 167.3262 L262.1532 167.766 L261.7669 168.3568 L260.6821 169.5001 L260.219 169.8831 L258.8171 171.7491 L256.313 178.4324 L252.5787 187.6339 L250.8042 191.7564 L249.3506 194.8059 L249.1303 197.1943 L249.6864 198.0237 L251.4889 200.7123 L254.4555 204.3391 L255.7981 205.463 L255.8736 205.6391 L255.8955 205.7767 L255.74 206.281 L255.6914 206.3945 L255.3262 207.0354 L251.0371 214.4505 L250.7787 215.0201 L250.926 215.3925 L251.145 215.6658 L252.7017 216.6453 L256.9715 218.9922 L258.0588 220.5857 L258.653 221.0177 L258.9295 221.1043 L259.2141 220.9706 L259.6179 221.037 L260.5235 221.7711 L260.6359 221.9289 L260.5067 222.2138 L260.4699 222.2542 L259.9499 222.8315 L257.4065 226.0588 L255.8 228.0342 L253.6342 230.892 L250.8067 234.252 L250.3361 234.5926 L249.2969 235.1998 L247.0125 236.2293 L245.0177 237.6957 L243.9011 238.096 L243.4255 238.1287 L242.7664 237.8391 L241.8558 236.798 L239.542 235.1921 L237.571 234.6311 L236.0555 233.9075 L235.696 233.3062 L235.6274 232.877 L235.6573 232.52 L236.196 231.2451 L236.1847 230.6312 L235.8377 229.0147 L234.7648 227.5079 L234.3185 225.8202 L234.2798 225.034 M277.1197 134.133 L282.0406 129.4672 L283.061 130.2689 L283.8069 130.2805 L284.8187 129.5009 L286.992 126.6849 L294.7271 117.6467 L295.4904 116.9508 L296.3237 116.4205 L298.4664 113.9615 L298.8927 113.8932 L299.113 113.9018 L302.0334 114.9259 L303.032 115.4254 L303.2717 115.8267 L303.4178 116.4629 L302.8442 117.5245 L301.1159 120.9276 L300.0061 124.0998 L299.1155 126.1806 L295.991 129.0611 L295.2876 129.9292 L295.2776 130.4142 L296.215 131.086 L296.285 131.1524 L296.8866 131.726 L297.0327 132.2823 L297.0165 132.725 L296.9509 132.8232 L296.5228 133.4641 L295.8243 134.6739 L294.606 136.7844 L292.482 139.8997 L290.3655 142.7946 L289.3438 144.0591 L288.7664 144.549 L288.347 144.6606 L287.9575 144.4152 L283.7301 140.4348 L281.495 138.7698 L279.2044 136.7632 L277.1197 134.133" stroke-dasharray="" fill="none" fill-opacity="1.0" stroke="#ff0000" stroke-opacity="1.0" stroke-width="1.0px" stroke-linecap="butt" stroke-linejoin="miter" stroke-dashoffset="0.0px"/>
</g>
</svg>