<?xml version="1.0" standalone="no"?>
<!DOCTYPE svg PUBLIC "-//W3C//DTD SVG 1.1//EN" "http://www.w3.org/Graphics/SVG/1.1/DTD/svg11.dtd">
<svg width="512px" height="512px" version="1.1" xmlns="http://www.w3.org/2000/svg" xmlns:inkscape="http://www.inkscape.org/namespaces/inkscape">
<g id="layer" inkscape:groupmode="layer" inkscape:label="layer">
<path d="M146.305 298.5338 L147.9674 300.6495 L150.5797 301.0143 L152.7646 299.4093 L152.9071 298.3149 L182.8304 302.9841 L182.2604 307.7262 L181.2155 307.5802 L179.0781 309.3312 L178.6981 311.9576 L180.3605 314.0733 L182.9729 314.438 L185.2053 312.833 L185.3478 311.8116 L195.0847 313.1248 L185.7752 381.4837 L182.1654 381.7026 L182.3079 380.6083 L180.5505 378.5655 L177.9382 378.2008 L175.8483 379.8058 L175.4683 382.5051 L177.1307 384.6938 L178.1282 384.7667 L173.3309 423.3599 L172.3335 423.214 L170.1961 424.9649 L169.8161 427.5913 L171.431 429.707 L174.1384 429.9988 L176.2758 428.3938 L176.4183 427.3724 L179.9806 427.8101 L171.6685 500.5461 L260.251 512.0 L269.1805 440.7232 L276.4951 441.2338 L276.3051 442.547 L278.0625 444.3709 L280.6749 444.7357 L282.7647 443.1307 L283.0972 440.5043 L281.4823 438.3156 L280.4849 438.1697 L281.0548 433.5006 L283.2397 433.7924 L290.6018 427.4454 L292.7392 411.906 L286.707 405.34 L284.6646 405.1212 L285.2821 400.5979 L285.2821 399.9413 L286.3745 400.0873 L288.4644 398.3363 L288.7969 395.71 L287.182 393.5943 L284.5696 393.2295 L282.3373 394.9075 L282.2423 395.9288 L275.7351 394.2509 L283.8097 327.57 L296.7764 329.2479 L296.6814 330.3422 L298.3913 332.4579 L301.0512 332.8227 L303.1411 331.1448 L303.4736 328.5184 L301.8587 326.2568 L300.8612 326.1108 L309.0782 262.8587 L310.1707 262.9317 L312.3081 261.2537 L312.6405 258.5543 L310.9781 256.3657 L308.3183 256.0739 L306.1334 257.6789 L305.9909 258.7732 L301.2887 257.6059 L310.5032 191.8732 L348.406 196.3964 L348.311 197.4907 L350.0684 199.6065 L352.7283 199.9712 L354.8656 198.2933 L355.2456 195.5939 L353.5357 193.4052 L352.4433 193.2593 L353.1082 189.6845 L355.7206 189.9034 L361.5153 183.6292 L365.695 167.2872 L359.4254 159.2621 L356.7655 158.8244 L357.098 154.4471 L358.0005 154.593 L360.1853 152.915 L360.5178 150.3615 L358.9979 148.2458 L356.3381 147.954 L354.2007 149.4861 L354.0582 150.5075 L341.8514 148.6836 L345.9362 118.1152 L305.326 112.2788 L306.1809 106.2235 L298.5338 96.0097 L284.1422 94.1858 L285.0446 87.7657 L291.2193 88.5682 L292.5017 80.1054 L286.137 79.3028 L288.9394 57.9998 L306.0384 60.2614 L307.3683 49.8288 L309.4582 50.1206 L312.6405 24.1484 L291.9317 21.376 L291.3617 19.6981 L287.087 20.7194 L279.1074 9.2654 L281.1973 5.7635 L275.4501 2.5535 L273.4078 5.9094 L259.776 4.2314 L258.4461 0.0 L252.319 1.8969 L253.1264 5.0339 L242.582 14.81 L238.7347 12.9132 L235.6474 17.7282 L239.5897 20.9383 L238.0698 33.049 L227.5729 31.8087 L226.5279 40.1986 L232.5601 41.0011 L228.7603 70.9129 L222.6806 70.0375 L221.5882 78.2085 L227.5729 79.011 L223.8206 108.9228 L217.6934 108.1203 L216.601 116.4372 L226.9079 117.9693 L224.723 132.8522 L214.7486 131.4661 L214.8911 130.0799 L212.8487 127.5265 L209.5239 127.2347 L207.0065 129.2774 L206.674 132.5604 L208.6689 135.1138 L209.9989 135.2598 L205.6766 173.7073 L204.5842 173.5614 L202.5418 175.3123 L202.1618 178.0117 L203.8717 180.2003 L206.5316 180.4192 L208.7639 178.7412 L208.8589 177.7198 L212.4687 178.2305 L203.4917 245.7872 L194.0398 244.8388 L194.1823 243.8174 L192.3299 241.7017 L189.67 241.4828 L187.5801 243.1608 L187.2951 245.8601 L189.005 247.9758 L190.0975 248.1217 L188.8626 252.9368 L159.2242 249.6538 L159.3667 248.6324 L157.6568 246.5167 L155.0445 246.152 L152.9546 247.757 L152.6221 250.3834 L154.237 252.645 L155.2345 252.7179 L149.8198 294.3024 L148.8223 294.2294 L146.6849 295.9074 L146.305 298.5338" stroke-dasharray="" fill="none" fill-opacity="1.0" stroke="#ff0000" stroke-opacity="1.0" stroke-width="1.0px" stroke-linecap="butt" stroke-linejoin="miter" stroke-dashoffset="0.0px"/>
</g>
</svg>