<?xml version="1.0" standalone="no"?>
<!DOCTYPE svg PUBLIC "-//W3C//DTD SVG 1.1//EN" "http://www.w3.org/Graphics/SVG/1.1/DTD/svg11.dtd">
<svg width="512px" height="512px" version="1.1" xmlns="http://www.w3.org/2000/svg" xmlns:inkscape="http://www.inkscape.org/namespaces/inkscape">
<g id="layer" inkscape:groupmode="layer" inkscape:label="layer">
<path d="M30.6772 117.3627 L30.7836 117.6889 L31.9993 118.4685 L33.4489 119.888 L33.9657 120.0986 L34.5876 120.7359 L35.1064 119.9563 L33.7394 119.4821 L34.4182 119.24 L35.1021 119.0931 L35.8226 119.1882 L37.2942 119.8193 L38.0044 120.5905 L38.307 120.9116 L37.8095 121.3708 L38.5543 122.4792 L38.6178 122.953 L38.6549 123.2289 L40.1529 123.2691 L39.9198 122.0484 L38.4693 119.4951 L41.0643 118.1657 L41.3741 122.0848 L40.9484 122.8095 L42.6864 124.7447 L42.9441 126.5202 L41.269 127.1942 L40.4642 126.3544 L39.5192 124.8498 L38.4793 125.3378 L37.6881 125.6516 L38.0712 126.6901 L38.6888 127.2226 L39.4008 126.8536 L40.7244 128.2846 L40.5954 128.3494 L40.763 130.568 L40.0791 130.9566 L39.5473 130.3516 L38.8762 129.5885 L39.2191 130.8994 L40.4494 134.1277 L41.3831 136.4851 L42.2376 138.5643 L43.2792 140.8311 L44.4769 142.3552 L47.0315 145.3946 L48.6125 147.1472 L51.2439 149.7442 L53.1979 151.5019 L54.6462 152.4248 L56.6248 153.3477 L58.8879 154.6439 L61.9219 156.7551 L63.3654 157.9381 L64.5683 159.151 L65.4667 160.1866 L67.1506 162.5433 L69.2323 165.0718 L70.2927 166.3629 L71.1863 167.8603 L72.3499 170.4969 L73.5723 173.0989 L74.564 175.2591 L75.8553 177.7774 L77.0078 179.4412 L78.8685 182.0826 L80.7831 184.7435 L82.0891 186.4817 L82.9188 187.8021 L83.4147 189.4075 L83.4679 190.4089 L83.4082 191.1027 L85.1723 191.5384 L85.1723 191.7788 L85.9764 191.9813 L85.8444 192.2732 L85.4415 192.5159 L85.0043 192.3633 L84.3864 192.384 L84.1363 192.8772 L83.1074 193.5483 L82.484 195.0897 L82.0912 195.7478 L81.7919 196.0177 L81.2811 196.3123 L80.9572 196.44 L80.2894 196.4546 L79.391 196.2778 L77.9428 196.3418 L77.1377 196.5282 L76.2589 197.1372 L73.4115 199.9954 L72.037 201.3994 L71.2809 202.681 L70.9618 203.9772 L70.9766 204.8853 L71.227 205.6366 L71.821 206.5496 L73.6619 208.6507 L74.0204 209.3874 L74.2462 210.1237 L74.2903 210.7667 L74.1248 211.7178 L73.0949 214.1885 L72.4813 215.725 L72.2701 216.7853 L72.1888 218.3709 L72.0561 219.1949 L71.6151 219.7095 L70.8544 220.1267 L69.6427 220.1563 L68.5956 220.3304 L67.8272 220.7019 L66.2783 222.0225 L65.6749 222.6702 L65.2347 223.6955 L65.0897 224.918 L65.3089 225.6005 L66.3834 225.4299 L66.9167 227.02 L67.3643 226.9828 L67.8485 227.7842 L68.002 228.0384 L70.4615 225.8536 L70.7947 223.8071 L74.3169 222.189 L77.0424 220.8289 L79.1866 220.2073 L79.0782 219.9542 L77.2243 220.4508 L76.0116 217.9525 L79.7543 217.2297 L83.9057 216.6775 L85.2609 217.3363 L86.3444 217.2869 L86.516 218.2513 L81.4825 219.8265 L81.4785 220.1927 L84.6583 219.2563 L85.8695 219.5619 L85.7784 219.9346 L85.0958 220.2483 L84.421 220.514 L84.0775 220.1475 L83.6315 220.1877 L83.3134 220.6966 L83.8377 221.7012 L85.4152 221.5973 L85.8695 221.9451 L85.1289 222.8029 L84.8768 223.8899 L84.5454 224.2009 L82.5056 223.1204 L81.7653 222.8029 L81.53 222.0502 L81.169 221.9692 L79.9349 222.1464 L79.4967 222.0643 L77.9834 223.0924 L77.4812 223.7841 L78.1349 224.1108 L81.8541 224.5081 L82.3603 224.5621 L82.4459 224.1185 L82.9516 224.2197 L84.7316 226.7179 L85.5765 226.0913 L86.0547 226.9594 L88.5543 224.4693 L88.5739 226.288 L86.2393 227.7374 L86.1698 229.0331 L85.2152 230.0001 L84.7858 230.3862 L84.2878 230.8122 L85.0943 232.8356 L86.5343 232.4345 L87.733 229.6565 L88.3847 227.7014 L89.0322 226.9483 L89.7011 224.7293 L91.5246 222.8903 L91.7376 222.0544 L92.6949 221.7963 L92.9511 223.1844 L92.6435 224.1963 L92.8462 225.0426 L93.4127 225.2665 L93.1051 226.5461 L93.8043 226.5603 L93.7903 227.2244 L93.2797 227.8609 L93.1889 229.3226 L93.6435 229.4552 L93.1051 231.0917 L92.8811 231.854 L94.1121 232.2386 L94.3647 233.6216 L89.6276 236.6361 L88.0905 235.2558 L87.4806 234.7082 L88.2332 233.5319 L88.0719 232.4706 L86.516 232.6596 L85.1217 233.6446 L83.695 234.3471 L81.9198 234.5399 L81.618 235.0039 L80.8358 234.153 L78.948 234.7136 L78.0067 235.1477 L78.5574 236.8228 L79.4633 236.9451 L80.8503 240.0451 L83.0389 243.6438 L81.4166 244.8067 L81.1767 245.279 L82.2853 246.6259 L83.3581 246.5707 L84.5672 245.8024 L86.2631 248.2354 L86.4744 248.0698 L84.8736 245.6306 L84.498 244.6775 L85.8474 243.5709 L87.6126 242.2374 L88.255 242.6212 L88.2131 242.9379 L86.9811 243.7124 L86.8452 244.0663 L87.0381 244.299 L86.6256 244.8354 L87.093 246.7317 L86.2983 247.7025 L86.4693 247.944 L87.3015 247.4284 L88.6497 246.8111 L90.5651 248.2761 L93.0575 246.5174 L94.9199 244.8948 L95.1367 243.9601 L94.0424 242.3065 L96.1459 240.6773 L97.0701 241.5661 L96.3667 245.0256 L95.666 245.8514 L96.5089 246.32 L96.2907 246.7145 L95.9467 247.3364 L95.6151 248.3121 L95.5215 248.9428 L95.6071 251.1546 L97.817 252.4616 L98.2171 253.1298 L98.2154 253.629 L96.5814 253.3668 L96.0491 253.9127 L96.5614 254.7849 L97.1737 255.8277 L95.5313 256.3836 L94.665 257.0806 L94.0464 257.2888 L92.719 256.9265 L90.8664 256.9829 L90.1549 256.6704 L89.2936 257.1397 L87.9979 258.35 L87.4906 259.8172 L87.7265 261.6773 L85.4049 263.9131 L84.1423 261.9062 L83.7918 262.0664 L81.2437 263.2319 L80.967 261.0969 L82.1245 260.523 L79.5802 258.598 L78.3429 258.3124 L79.0596 260.0476 L73.754 263.1027 L72.3436 261.5753 L70.2232 264.1044 L71.0885 265.0398 L70.8165 265.544 L72.4901 267.9741 L70.2716 270.4559 L69.7952 272.0415 L68.5976 273.3893 L71.1861 275.3877 L73.3456 276.3798 L74.8337 274.0939 L75.709 273.4031 L78.8702 272.0219 L75.6312 278.1209 L74.2979 277.6721 L73.4948 278.5925 L72.9013 279.0413 L72.2079 279.3108 L70.4259 282.0336 L70.2034 284.0231 L69.2905 284.3972 L69.656 284.9757 L70.2957 284.7932 L71.301 284.6713 L70.1911 286.7003 L69.5647 290.0324 L68.3653 290.7519 L67.3482 291.21 L66.9012 290.7914 L68.565 287.6371 L69.4428 286.3771 L69.3818 285.1585 L69.0296 284.3486 L68.0201 284.7905 L67.1054 285.9612 L66.2748 286.7121 L64.6672 286.4902 L63.8343 288.426 L63.9234 289.7821 L63.9595 291.2583 L63.7799 291.7558 L63.7503 292.1729 L64.0204 292.7739 L64.2196 294.1492 L64.5837 294.0595 L65.1509 293.1802 L65.6644 292.4814 L67.0507 292.4929 L67.3648 292.8942 L67.9012 294.4562 L68.489 295.5425 L69.8386 296.8254 L72.9459 297.9523 L73.7379 296.0029 L73.2505 296.0335 L71.9407 295.3938 L71.5762 294.9457 L72.2154 293.378 L71.9409 292.711 L73.4331 291.7382 L75.2 289.8496 L76.1749 290.5503 L75.2 291.6167 L74.0402 293.6532 L73.3418 295.485 L73.8496 295.6824 L75.0194 293.133 L75.6769 292.2875 L77.4199 293.5432 L78.1954 293.5532 L78.8554 292.4695 L79.8607 292.8046 L80.9239 292.059 L81.0182 290.1241 L81.6883 289.0274 L82.9557 286.8961 L81.5964 285.4617 L82.3478 284.3497 L82.8036 283.6793 L82.9988 283.2247 L82.5051 282.5285 L82.6233 282.1153 L82.6837 281.9033 L82.3621 281.3571 L81.91 280.4056 L84.6026 278.346 L85.145 278.8386 L83.79 280.6805 L84.7567 281.4257 L85.5185 280.166 L86.4019 279.0436 L87.8667 277.6985 L90.3077 275.5257 L92.0979 274.2162 L94.4618 272.4578 L95.8441 271.1165 L96.3554 270.8784 L96.7668 270.5671 L96.6725 270.2485 L96.3276 269.0858 L97.1196 267.9925 L97.2846 267.7648 L97.9783 268.9881 L98.47 269.6421 L99.3322 270.5223 L99.4336 270.6269 L99.8177 270.3639 L100.271 269.2863 L100.6159 269.317 L104.0092 270.4464 L104.4051 271.0382 L105.2006 270.5978 L107.558 269.3484 L109.1418 267.3534 L109.5299 266.298 L110.0938 264.7642 L112.0737 261.7179 L113.9776 259.2429 L114.7906 259.4698 L113.673 261.8322 L113.5859 262.2512 L113.9818 263.1989 L113.0531 264.3981 L113.5802 265.6486 L110.4365 267.3914 L108.4185 270.3616 L105.258 273.484 L105.6178 273.9302 L105.2829 275.3417 L105.1823 275.3686 L104.8948 275.0419 L104.1216 274.6674 L100.7833 278.1715 L99.7627 279.4672 L98.8052 279.6846 L97.2834 281.5625 L92.2752 286.0386 L92.1598 286.6922 L91.3979 287.8012 L89.0751 290.4667 L88.0074 289.8534 L87.7992 290.4376 L87.6449 291.624 L86.0223 290.8711 L85.224 291.4101 L84.582 290.4284 L82.9657 286.9061 L81.8513 288.787 L82.6022 289.6974 L81.8004 291.4105 L81.3543 292.3867 L81.7056 293.493 L81.5515 294.897 L81.8593 294.8008 L82.0325 293.7766 L82.0375 293.1369 L82.124 292.7091 L83.1626 292.685 L83.6774 292.6263 L83.3598 296.5514 L82.2924 296.0707 L82.0856 296.6729 L81.4843 297.3935 L80.5553 298.272 L79.7525 299.0892 L80.2869 299.6005 L81.0744 299.318 L81.821 300.3943 L82.3212 300.8704 L81.9878 301.2632 L80.1946 302.2678 L79.4731 302.2487 L78.8446 302.0459 L78.167 302.8527 L77.5893 303.622 L77.2702 304.471 L76.711 305.1222 L76.9162 307.8994 L75.7494 308.6625 L74.7163 309.6763 L75.3909 310.4647 L73.7269 313.3212 L73.8521 313.437 L75.9007 311.5708 L76.7223 311.442 L77.5935 310.0224 L77.5263 309.5701 L77.1957 309.2846 L79.3604 306.5127 L80.0463 307.0463 L80.7206 306.5687 L81.6574 305.3475 L82.1827 305.6645 L80.5295 307.4759 L80.9301 307.7741 L81.5503 307.7733 L82.0475 306.9478 L82.7346 306.0647 L82.702 305.8474 L83.3658 305.1548 L84.7604 304.6642 L85.7544 302.6799 L86.0125 301.0405 L85.6904 301.0106 L85.1879 301.837 L84.3224 302.5147 L83.9333 302.8366 L83.5294 302.7309 L83.5131 302.3633 L83.4514 302.2314 L84.3713 299.5894 L85.2019 297.4893 L84.4644 297.1512 L84.8149 295.3861 L83.7838 295.0021 L83.7687 292.0586 L85.9262 291.8574 L86.3025 292.2411 L86.2431 292.5784 L86.4739 293.0786 L86.9929 293.2465 L87.6439 293.9725 L88.4377 295.2202 L86.946 296.2386 L87.4593 296.9807 L86.3878 297.6967 L85.8821 298.2084 L85.8703 298.5365 L86.1334 298.5288 L86.5604 298.2785 L87.3399 297.5571 L88.2729 296.9239 L88.7134 296.6871 L89.0937 296.2811 L89.9585 297.4629 L90.2269 297.8262 L90.5081 298.4016 L90.7482 299.0451 L91.1258 299.4092 L91.135 299.9248 L90.6406 300.0666 L90.7612 300.74 L91.0452 301.4951 L91.493 302.1318 L93.1904 300.08 L93.4591 300.4549 L95.8883 302.6864 L97.9499 304.7477 L100.425 306.41 L100.1287 306.7745 L99.0038 307.947 L96.5092 310.5594 L95.4302 311.7705 L94.5589 313.2595 L94.1518 312.9514 L92.3761 311.8031 L90.694 311.0074 L89.6797 310.6142 L88.5034 310.2217 L87.0401 310.1435 L86.1497 309.996 L85.205 309.5621 L84.938 310.1849 L84.2863 310.774 L83.5768 311.3581 L82.9509 311.9162 L82.3684 312.048 L81.6022 312.7011 L81.8777 313.3274 L82.3729 313.7183 L82.0638 314.2867 L82.5339 315.3495 L83.5673 314.8815 L83.9759 314.7535 L83.4697 315.6419 L84.1132 315.8561 L84.3974 315.7814 L84.5462 315.8899 L84.7564 316.1486 L85.3081 316.3417 L85.5803 315.9953 L86.0042 315.993 L87.4756 317.1048 L89.0398 318.191 L89.7166 316.1152 L91.1897 316.2425 L91.6977 315.7078 L92.0261 315.6886 L92.6064 315.7427 L93.13 314.9635 L94.365 315.8496 L94.8163 315.9163 L94.8299 316.2984 L95.172 316.2996 L96.0526 316.3153 L96.8722 316.1735 L97.0513 315.9316 L96.8423 315.0421 L96.7214 314.3177 L98.0513 313.9042 L98.5254 314.5358 L98.4324 314.6305 L97.1549 315.3303 L97.2869 315.8703 L97.5586 315.6909 L98.0425 315.5392 L98.6978 315.297 L99.3955 314.7723 L100.847 313.0361 L102.0163 311.1891 L102.3364 309.2221 L102.7717 309.1501 L103.1638 309.0347 L103.5479 308.3816 L105.9151 303.6231 L107.0972 302.2747 L108.93 303.0704 L108.3796 303.9834 L107.9203 304.8033 L107.8152 305.1751 L107.8661 305.4694 L108.6947 305.0831 L110.2893 304.0444 L110.929 304.471 L111.7443 303.8056 L112.0258 301.3334 L113.0614 299.7189 L114.0056 301.0287 L115.0718 302.1862 L115.9346 302.499 L117.2981 303.5231 L119.228 304.6638 L119.0318 305.5982 L118.3618 307.3345 L118.1789 308.766 L120.4939 310.0151 L121.4688 309.2536 L124.8804 305.8416 L126.1598 304.8976 L127.6829 305.6285 L126.8302 306.6948 L125.7333 307.2429 L124.8804 308.7051 L123.8144 309.7714 L121.8343 311.6295 L119.7019 313.1219 L121.1946 314.2491 L123.388 314.645 L123.769 315.185 L123.6539 316.4513 L122.7786 316.5947 L121.4078 316.5947 L121.4389 317.4221 L120.4101 318.0231 L119.7325 318.0875 L117.0214 319.8543 L116.0467 321.0727 L117.1736 322.4738 L118.7273 322.3826 L119.5366 321.1278 L120.4796 318.1496 L121.4693 317.6364 L122.474 317.3869 L125.4075 316.2386 L126.3731 316.4425 L125.0894 317.5402 L126.1262 317.718 L127.015 319.7504 L127.8045 319.45 L128.7563 320.7005 L129.9808 321.5793 L130.239 321.4241 L131.0887 319.7719 L133.0334 320.7032 L132.703 320.0199 L130.9068 318.2465 L131.0957 317.9392 L131.1035 317.5222 L131.3794 317.0377 L131.8573 316.9044 L132.321 316.8695 L132.905 316.3023 L133.3488 316.0175 L134.8181 315.9393 L136.3068 315.8374 L136.8296 315.9872 L137.5243 316.2643 L138.5295 316.6916 L139.1873 317.0504 L138.8591 317.833 L139.402 320.3579 L141.5527 321.9342 L141.0056 322.6206 L143.0645 326.1323 L139.8513 328.3735 L140.4155 328.196 L143.2331 326.3017 L144.3494 327.6461 L144.5341 329.6749 L145.1939 329.5473 L150.6443 327.2763 L150.3759 325.4026 L149.8059 325.2152 L148.4033 325.8456 L148.2216 325.5283 L147.6203 325.6594 L147.532 325.5513 L147.8112 324.2371 L147.6602 322.9119 L146.7455 321.71 L146.0787 320.3422 L148.1215 320.1479 L149.3235 320.625 L149.9155 319.7133 L149.2926 318.373 L149.6087 317.5172 L152.0118 315.5622 L151.4867 314.6876 L150.9398 314.9432 L150.349 315.5085 L149.5292 315.008 L149.9348 314.3955 L148.69 312.2048 L147.2924 311.4321 L146.8539 311.8242 L147.6148 313.0583 L146.8052 313.9183 L146.3938 312.9924 L145.4869 313.0173 L144.5323 312.936 L143.3555 313.2994 L143.8274 312.0465 L145.7305 312.3719 L146.6733 311.4754 L147.2595 310.2957 L149.4293 309.8779 L150.0505 309.2352 L150.988 309.106 L151.7303 310.2321 L151.7762 311.099 L153.1793 312.0936 L153.9859 312.4991 L154.8195 312.6379 L155.1896 313.0947 L154.6181 313.9946 L154.8614 314.3959 L156.1745 314.6998 L156.6291 315.0888 L155.8652 315.5664 L153.8928 318.2818 L152.2092 320.5553 L152.2431 323.0514 L152.864 323.9566 L154.3281 325.9257 L156.3255 325.6632 L156.3819 325.0787 L156.7889 325.1274 L157.0809 324.8093 L158.199 323.7726 L159.1834 322.0043 L161.8665 319.9256 L162.1572 319.5607 L162.4615 319.5948 L162.75 320.9573 L163.1567 321.7207 L163.8105 321.577 L163.6956 322.3907 L163.6379 323.2656 L162.9397 323.6247 L163.1715 324.2026 L161.9761 324.8212 L161.4821 325.1918 L161.1284 325.8211 L160.941 325.846 L160.581 325.4463 L158.2467 325.5957 L156.3468 325.7805 L154.3619 326.0361 L152.8866 326.4753 L151.126 327.2582 L149.83 327.7794 L148.1875 328.4812 L145.5456 329.5791 L146.9442 331.8617 L147.1191 333.3674 L147.8295 334.3687 L148.2374 337.5418 L149.4323 337.8392 L149.4055 339.2111 L152.8376 339.7993 L153.8278 338.109 L153.8183 336.9812 L153.4696 335.592 L153.7616 333.969 L155.0152 332.484 L155.7651 332.4173 L156.3842 334.0403 L157.3393 335.259 L154.6043 338.048 L153.9121 339.1287 L154.4247 339.1034 L154.5937 339.551 L156.7036 339.843 L156.7939 341.5046 L157.2186 341.6407 L160.1698 340.8662 L161.1407 342.2071 L158.8149 343.3253 L155.4051 344.952 L153.2099 345.1742 L149.4308 343.7261 L147.4392 343.6606 L147.3112 344.6282 L146.6161 347.2282 L146.9929 348.1766 L145.371 348.5839 L144.9623 351.2571 L146.4427 354.2567 L145.6778 356.0692 L143.7471 358.7943 L146.4016 359.796 L147.2563 360.5884 L148.6328 360.593 L151.6683 357.0417 L151.4604 352.8692 L152.283 352.1158 L153.1003 352.3166 L157.4454 350.5612 L157.8179 349.1844 L158.257 348.382 L160.1987 346.7086 L161.7701 346.0169 L162.5441 345.2474 L163.228 346.2579 L164.2252 345.2957 L165.0576 344.7929 L166.2083 344.9696 L166.7775 344.1338 L166.6925 342.7861 L166.6481 342.0795 L166.8342 341.4633 L167.2976 340.3167 L167.1721 339.0678 L165.9035 339.0398 L166.7489 336.6117 L168.213 336.109 L169.0958 334.327 L169.1395 331.7521 L168.4277 330.7798 L167.3345 330.2609 L166.2384 330.5897 L164.2066 332.3349 L163.3607 331.4206 L161.9904 328.498 L163.2957 327.3606 L164.6253 326.6658 L164.9286 327.7158 L165.4283 328.6601 L166.0678 329.1691 L166.9747 329.0947 L167.8201 328.5076 L168.2888 327.5637 L171.2362 327.1425 L172.7778 325.9288 L172.5531 325.5268 L172.8268 325.2259 L173.3283 325.4961 L173.386 325.8008 L172.7844 326.3561 L173.2841 326.6803 L174.2537 327.7039 L173.5412 330.3199 L173.9537 330.6813 L173.6474 331.7413 L173.3568 331.7927 L173.1604 331.3684 L173.0937 331.1167 L172.4035 331.8567 L172.2814 332.4066 L172.6479 333.6061 L172.2028 334.3109 L174.203 335.9833 L175.0916 335.8388 L176.7396 337.661 L177.4977 338.7286 L178.2516 338.3872 L178.8203 337.103 L178.935 339.0076 L179.5501 339.8476 L179.0092 340.816 L177.9729 341.1437 L176.8535 341.5798 L176.2644 341.8898 L175.0221 342.4266 L175.0409 342.7528 L175.6227 343.1934 L175.8385 343.5291 L175.5399 344.3814 L175.2966 344.3343 L175.3006 343.8277 L175.116 343.6315 L174.2928 344.2775 L174.5633 345.1049 L174.5648 345.685 L173.6428 345.7739 L173.2329 346.4173 L173.5207 348.2176 L174.7296 350.2256 L177.1074 352.404 L182.852 345.6218 L184.9847 346.1422 L186.3878 344.3806 L187.0471 344.5301 L187.4866 346.2602 L187.806 346.3863 L188.2172 345.6988 L188.5594 345.1631 L190.6785 344.4067 L191.3317 344.4519 L191.6255 346.2541 L191.1448 346.9205 L190.8593 347.3799 L191.0086 347.524 L191.5251 346.8036 L191.8106 346.5672 L192.1124 346.5426 L192.344 346.7289 L192.4556 346.9707 L191.8277 347.6148 L191.7705 348.4196 L192.3929 348.5851 L192.5261 348.3893 L192.8149 348.0053 L192.6077 347.5133 L192.9393 346.9408 L193.1681 346.563 L195.1146 347.1818 L195.7024 346.7772 L197.5716 345.1217 L197.4954 344.0468 L198.335 344.0354 L198.9574 344.6696 L198.4585 348.2165 L197.3075 349.9661 L194.8758 350.8095 L194.6151 351.3372 L195.084 353.3823 L196.1738 353.808 L197.1712 355.5664 L196.4086 357.7471 L195.2962 358.4966 L192.7469 360.2596 L192.5121 360.1067 L192.1641 360.5849 L192.3001 361.3405 L192.5414 363.2548 L192.4782 366.8524 L192.9631 368.9069 L195.953 368.1846 L196.7809 367.9877 L197.3887 367.7566 L197.5641 367.6072 L199.6702 366.9056 L199.909 367.1987 L199.8174 367.4279 L200.6079 367.4332 L201.3003 367.6578 L202.7709 369.6398 L205.0634 367.9543 L206.1341 367.8677 L205.9923 368.9153 L203.581 373.2418 L203.3788 374.6507 L203.8459 375.0702 L202.7125 375.7434 L203.16 376.4775 L202.7699 376.643 L202.5983 377.0273 L204.8858 377.8549 L205.0521 376.8146 L205.6374 376.9326 L205.6078 376.2349 L204.52 375.4426 L205.6665 374.9219 L208.0146 374.297 L208.6864 372.4606 L208.4898 372.1675 L208.492 372.0525 L209.9009 372.1414 L211.2825 372.3284 L213.1351 372.2851 L213.4886 372.0456 L213.4108 371.5054 L213.6379 370.1364 L213.9753 369.9471 L214.3789 369.8862 L214.6261 370.0337 L214.8511 371.6859 L215.115 372.1564 L215.6258 372.1702 L217.8322 372.1092 L218.5687 373.3598 L220.0383 372.0376 L220.9151 370.1816 L221.0411 369.9816 L221.7312 370.2161 L221.6098 370.4897 L220.9851 370.4797 L220.2102 372.1 L218.5933 373.4457 L217.0342 373.9215 L217.7484 374.6181 L217.8801 374.5127 L218.8668 374.0097 L219.0344 374.1989 L218.4165 374.7495 L218.3826 375.2763 L219.518 374.4702 L220.6432 373.3514 L221.1823 373.1437 L221.2779 373.569 L221.1785 374.7671 L220.5326 374.9334 L215.9185 376.8733 L215.4015 377.7139 L214.4158 378.2001 L212.1041 380.118 L210.9194 381.1257 L211.4172 381.613 L213.6351 380.4035 L215.9175 377.9238 L218.9287 376.6143 L221.4297 377.2667 L221.7638 377.3238 L221.827 377.9395 L221.8712 378.438 L222.0869 379.2476 L222.101 379.2974 L222.2578 379.9004 L222.2711 380.8418 L223.839 382.3605 L224.0327 382.5099 L224.1892 382.7153 L224.6634 385.4113 L222.3077 387.4905 L222.3737 390.2264 L218.9945 389.9229 L216.2068 386.986 L212.5386 389.4594 L211.93 389.0215 L210.8003 390.9439 L210.6881 391.46 L210.634 392.4465 L209.3824 392.6346 L210.7102 394.2536 L211.2491 393.6763 L212.2398 394.357 L211.8003 395.7826 L211.0792 396.345 L209.9754 396.1297 L208.331 395.0937 L207.3566 394.7922 L206.4994 395.2516 L206.2006 395.001 L206.0513 394.105 L203.5825 394.4582 L201.6508 395.2539 L200.9391 394.3555 L199.9057 395.0508 L198.9589 396.1591 L198.0302 398.1593 L196.9761 399.4442 L197.0077 399.6748 L197.5405 400.1116 L198.0029 399.5147 L198.623 399.889 L198.1549 400.8371 L199.0319 401.8209 L197.8278 403.1813 L197.3787 402.9139 L197.5824 402.2178 L197.2716 401.8906 L196.2779 401.8048 L195.6738 402.2186 L193.4074 400.9616 L193.8229 401.7723 L194.6422 402.8288 L194.017 403.1736 L192.9391 403.6264 L192.2276 403.5831 L192.0337 404.3378 L193.1545 404.3592 L194.3404 404.1869 L195.2458 404.0574 L194.9056 404.257 L191.7401 406.4447 L190.472 406.6003 L189.0164 406.3819 L188.4342 405.9939 L185.9837 405.1204 L185.001 403.3494 L181.835 403.5069 L180.8283 404.6228 L182.0169 406.1394 L184.5886 406.1149 L184.5886 407.6798 L184.0063 408.0801 L183.8731 408.8202 L180.9201 409.6304 L181.752 410.2659 L184.71 411.3795 L186.651 413.0294 L187.597 412.6655 L188.673 413.7898 L191.4787 415.9652 L195.6607 420.3826 L195.1542 421.39 L197.0847 423.306 L198.0924 423.655 L197.9911 424.4211 L197.0869 425.5982 L197.1785 426.0333 L197.9452 427.2751 L197.3047 427.4433 L197.9487 428.1469 L199.0756 428.7579 L198.0413 430.6803 L199.6759 431.9435 L201.0234 431.4314 L201.5745 431.2368 L202.358 432.3442 L203.1495 431.698 L203.6475 429.103 L206.4994 429.3504 L206.9755 428.4644 L207.6195 427.7509 L207.3962 426.4133 L208.1676 425.6418 L206.6248 425.0194 L206.3002 424.3223 L208.5419 423.6971 L209.5798 423.6017 L210.1588 422.8621 L210.1583 421.8922 L210.7509 421.5138 L211.6332 420.9449 L212.2669 420.6871 L213.7864 421.0955 L214.3501 420.9476 L215.2455 420.8614 L216.7151 421.0392 L217.2527 421.2682 L217.3234 421.5375 L217.6907 421.6635 L217.7582 422.1163 L217.5969 422.7472 L216.8234 422.8318 L216.8249 423.6316 L217.0402 424.2552 L217.0171 425.5882 L216.4062 426.5569 L214.6155 428.2955 L214.393 429.8261 L214.9454 431.8236 L216.3169 433.2225 L216.2218 433.6304 L215.6233 434.3907 L214.893 434.0437 L213.4726 433.4327 L212.885 434.0257 L213.1311 434.9917 L213.9437 435.647 L217.3001 436.282 L219.3833 436.6938 L220.3875 434.9748 L222.9873 434.3014 L225.2431 434.3723 L226.7584 434.5366 L228.1011 434.2344 L228.3464 433.4779 L228.9307 433.715 L230.026 433.2772 L231.3835 432.0136 L233.9601 430.467 L233.2675 432.767 L231.8109 434.3853 L231.4863 435.285 L231.6057 436.2162 L233.2206 434.7921 L233.8959 434.2628 L234.3706 434.2444 L234.2976 434.8469 L234.9546 434.6645 L235.4109 433.8977 L236.0399 434.113 L238.3436 436.806 L240.4002 441.1379 L241.5129 442.67 L242.6122 443.403 L243.7647 443.8293 L245.7551 445.256 L244.9475 445.7673 L246.2771 446.4425 L247.0533 447.3265 L246.4038 448.0879 L245.8286 448.5548 L244.4059 449.5942 L245.8391 449.3897 L246.8832 449.2016 L248.2098 447.8363 L249.5239 447.4644 L252.5492 450.2526 L254.7716 451.8653 L256.5947 449.914 L257.49 448.9703 L257.8972 447.9087 L258.8242 447.4559 L258.8242 447.1541 L257.8972 446.572 L257.84 445.8481 L258.9167 444.2062 L260.6124 445.5521 L259.9438 449.4161 L264.4344 453.1932 L265.2881 454.5639 L266.0181 455.3934 L266.845 455.2084 L267.2604 455.8591 L267.3957 456.6852 L266.697 456.9774 L266.4526 457.9169 L266.641 458.3354 L266.1037 458.8134 L265.6667 458.9758 L265.5026 458.4469 L265.3137 458.4331 L264.2608 459.1362 L263.4051 459.1167 L263.1396 458.8088 L262.9595 458.733 L262.816 458.7471 L262.0607 459.0137 L261.6964 459.1872 L261.3813 459.0524 L261.1864 459.3109 L261.0903 459.4036 L260.4636 459.3821 L259.6992 459.7433 L259.9433 459.7647 L260.6653 459.6797 L260.7973 459.667 L260.856 460.6486 L261.3798 460.4709 L261.6211 460.2587 L262.0308 460.3932 L262.0777 460.338 L262.8634 459.839 L263.5749 459.6157 L264.5518 459.6479 L264.8917 460.3265 L265.1998 459.9183 L265.4692 459.7674 L266.0101 459.6031 L266.6757 459.3293 L267.3553 458.9892 L267.3342 458.7242 L267.414 458.5966 L267.7456 458.4216 L268.0545 458.2343 L268.1586 457.3255 L268.9197 456.2233 L268.9925 455.2927 L268.5198 453.1101 L268.7223 452.6589 L268.8851 451.4299 L269.6297 451.2012 L269.9435 450.0362 L270.4061 448.9424 L271.7177 449.0197 L271.821 448.8903 L272.956 446.14 L278.2852 442.318 L281.3536 440.0299 L282.5648 439.5185 L282.9145 440.3799 L284.3681 440.4067 L284.6909 441.3758 L283.5876 443.0177 L283.776 445.7091 L284.3949 446.5436 L284.8257 448.482 L284.0452 448.7509 L284.0587 449.8481 L284.3851 450.6922 L284.2032 451.9936 L283.5264 452.0454 L282.8824 453.3758 L282.7532 455.9909 L282.5573 456.6756 L282.6085 457.4879 L283.0156 457.6779 L283.6639 457.576 L284.0979 458.5725 L283.414 458.7288 L283.57 459.2691 L283.111 460.2549 L284.0685 461.3337 L286.9249 463.797 L289.6579 464.9363 L291.9945 466.6734 L293.3241 466.6539 L294.4849 467.4673 L295.724 467.869 L296.4756 467.8793 L296.7142 467.434 L296.2724 467.1651 L295.8517 466.1534 L293.8991 464.8161 L293.3216 464.1585 L292.2055 462.4769 L292.7782 461.8481 L292.262 460.9278 L291.2454 459.6471 L290.5111 458.3902 L291.1699 458.4231 L291.9679 458.6637 L293.5013 460.2427 L294.3136 460.7175 L294.8284 461.0044 L294.8948 460.6999 L295.443 461.1105 L296.4287 461.5287 L296.8012 461.94 L296.7149 462.2065 L297.0215 462.2322 L297.9873 461.7324 L298.839 461.2889 L298.988 461.0086 L301.3512 461.4969 L302.9332 461.8791 L303.2285 461.8933 L303.358 462.0422 L304.1803 461.5183 L305.82 460.9734 L307.9762 460.2005 L309.3407 460.2706 L310.6774 460.7336 L312.371 460.1649 L313.6627 461.7799 L312.4758 463.4523 L312.0193 464.214 L312.0303 464.6659 L312.237 464.8088 L313.7242 464.0199 L313.2049 463.4753 L313.9685 462.8449 L314.6115 462.8905 L315.4452 464.2167 L315.9471 464.3638 L316.1719 464.6085 L314.7134 465.2611 L315.3631 466.0664 L315.7798 466.4881 L316.0018 466.1648 L315.4083 465.5421 L315.7735 465.3637 L317.0302 466.336 L317.6751 465.8922 L317.6741 465.5092 L316.4133 464.3588 L315.0789 462.1372 L315.2512 461.5647 L317.0668 461.0396 L317.777 461.4513 L318.5083 462.8124 L319.7973 462.8694 L320.216 460.8397 L320.6931 460.9079 L321.0571 460.7719 L321.1264 460.4793 L319.5032 457.7977 L320.4199 457.0682 L321.0777 456.2946 L322.4161 455.2042 L323.5623 454.5589 L324.2856 455.4275 L324.2944 456.2655 L323.8842 457.3213 L323.1863 459.7647 L323.6137 459.6513 L324.4777 457.522 L324.8704 456.082 L325.4589 455.6358 L326.6854 455.2008 L328.1515 455.1659 L329.4558 454.8745 L331.3197 455.3203 L331.4118 453.8684 L331.4181 453.8684 L332.0874 452.8577 L333.1242 451.2227 L332.4765 450.914 L331.8611 451.7393 L331.2485 452.3579 L329.9465 451.634 L330.9231 450.3866 L332.0189 449.2656 L332.7512 448.6153 L333.1789 448.4667 L333.4276 448.9251 L333.1265 449.261 L333.1265 449.5096 L332.6684 450.0201 L333.112 450.2039 L333.6137 450.2706 L335.0883 450.3299 L335.0464 451.1097 L334.6159 452.9113 L334.503 454.1307 L334.863 454.2724 L334.9549 453.6765 L335.4017 453.9055 L335.5986 454.8408 L335.6636 455.2931 L335.2795 455.9303 L334.407 455.7293 L333.9842 457.5565 L333.0758 460.8386 L333.493 464.9233 L335.8234 467.3405 L335.8823 467.6335 L335.4992 467.663 L335.492 468.0567 L335.2291 468.3014 L334.4185 473.6569 L333.5096 474.3221 L331.8977 473.9617 L331.6444 474.5293 L333.2193 475.6291 L335.4669 476.3222 L336.7506 476.2988 L337.1221 475.9565 L337.6236 475.7608 L338.167 476.0001 L338.0606 477.1532 L341.0904 477.3642 L341.5477 476.6638 L343.4318 477.9558 L342.5106 479.8536 L341.7856 480.0681 L341.6865 480.4506 L342.4692 480.667 L343.8424 480.3966 L344.0138 480.7891 L343.1776 481.3444 L346.5807 482.6406 L350.1837 482.7918 L353.2019 482.075 L353.6756 482.1983 L353.7666 482.5663 L352.8673 483.5091 L351.7459 485.5883 L350.0542 488.2672 L349.9451 489.8536 L349.5287 489.7292 L349.4808 489.022 L347.8087 488.3342 L346.7184 488.3913 L345.2245 487.511 L344.5557 487.619 L346.5082 488.6796 L345.9432 489.2444 L345.4159 490.0646 L346.7197 490.5364 L347.5603 491.5063 L350.0349 491.1908 L350.6466 490.5888 L351.6784 491.1337 L352.9789 490.9917 L355.3012 489.4772 L357.0902 489.9992 L359.0964 489.558 L360.9804 491.1456 L361.2847 491.6809 L361.0266 492.2162 L360.4754 492.578 L359.1616 493.0414 L357.7951 493.7915 L357.8478 494.1258 L358.1295 494.2785 L359.8018 493.6383 L359.9546 493.2753 L360.4561 493.3998 L360.1628 494.3834 L362.0032 495.8561 L361.9994 496.1915 L361.2925 497.1518 L360.9057 498.3174 L361.3068 498.3507 L361.6412 497.8299 L362.076 497.9494 L363.0506 498.1117 L362.9264 498.8048 L362.892 501.1676 L358.5244 501.9058 L356.6235 502.3457 L355.9025 502.5257 L355.2676 502.438 L354.6999 502.2588 L354.7583 502.5292 L355.4618 505.2369 L355.9944 507.4327 L356.5224 507.3048 L357.764 507.0253 L358.5547 506.8775 L360.0384 506.7397 L361.2428 506.7596 L363.1703 506.9771 L364.7287 507.2198 L365.1855 507.3672 L366.0355 507.0908 L366.9501 507.2363 L368.0264 507.8451 L369.0665 508.5247 L370.5065 509.2008 L372.5656 510.0723 L373.7364 510.5401 L375.6272 511.0547 L377.7534 511.4046 L379.3986 511.6133 L380.4959 511.7343 L382.6318 511.8959 L383.3764 511.9675 L384.4925 512.0 L385.6633 511.9364 L387.3369 511.8155 L390.1313 511.6772 L391.9413 511.5831 L392.9034 511.4284 L393.8771 511.2063 L396.4201 510.0723 L398.6195 508.0671 L399.475 507.5024 L400.5021 506.9392 L401.437 506.5954 L402.8748 506.0792 L403.2541 505.8147 L403.6685 505.0604 L403.9861 504.5401 L404.4889 503.7594 L404.9829 502.335 L405.0049 502.0394 L404.9299 501.678 L404.7315 501.2675 L404.4272 500.8575 L402.3324 499.0448 L400.9561 497.5075 L398.6486 494.2781 L396.4094 490.8538 L395.7047 489.9494 L393.4511 487.9207 L391.8327 486.4767 L391.0997 485.8028 L390.3059 485.2824 L389.6002 485.0618 L388.6918 484.8811 L386.9106 484.5966 L386.3058 484.4158 L385.7943 484.0976 L385.4669 483.7017 L385.3234 483.2962 L385.3078 482.8439 L385.4794 482.4262 L385.6881 482.1206 L386.1031 481.7556 L386.6061 481.5879 L389.0119 481.6067 L391.5254 481.7438 L393.3653 481.9808 L394.4568 482.2676 L395.6545 482.7417 L397.6439 483.7898 L401.0617 485.6431 L402.3715 486.2171 L403.1199 486.2542 L403.9432 485.9862 L404.5917 485.5807 L405.3903 484.6077 L406.2011 483.2606 L406.3802 482.6188 L406.5265 481.8747 L406.9191 481.3206 L407.2525 481.0832 L408.6027 479.9563 L409.2888 479.6319 L410.1493 479.4447 L411.1349 479.4385 L412.1329 479.6568 L418.779 482.5652 L422.8453 484.4438 L423.983 484.7172 L425.3591 484.6555 L427.4937 484.0291 L429.6018 482.8738 L431.1808 481.7713 L433.4298 479.5572 L436.353 476.2678 L437.085 475.1565 L437.7862 473.6876 L438.2714 472.2216 L439.7362 465.2645 L440.2226 464.6284 L440.89 464.2355 L441.5447 464.1168 L442.1498 464.1979 L443.7466 464.8838 L445.1811 465.6448 L446.6281 466.125 L447.8599 466.4459 L448.0345 466.3016 L448.5224 466.3471 L448.7487 464.7965 L449.3144 464.8034 L449.826 463.7537 L450.418 464.3458 L450.768 464.3458 L451.1879 463.7388 L452.3291 464.2114 L453.1096 464.2382 L453.7288 464.8842 L456.2588 464.561 L456.9048 464.9918 L457.0362 465.2028 L464.4728 463.8295 L466.689 463.1088 L467.7085 462.4983 L468.9175 461.4482 L469.4486 460.7156 L470.2606 459.3358 L470.8346 458.2003 L471.0604 457.3209 L471.1399 456.6737 L470.9751 455.8005 L470.6941 454.958 L469.2471 451.6428 L468.3681 449.8171 L466.9454 447.2223 L466.634 446.5754 L466.5548 446.0503 L466.6217 445.2748 L466.9883 444.5543 L467.4521 444.1085 L468.13 443.7056 L469.1618 443.3942 L470.7124 443.0464 L472.599 442.6677 L475.8846 441.8342 L477.515 441.1908 L478.8966 440.5002 L479.9412 439.7143 L480.4723 439.0754 L480.9861 438.2121 L481.31 437.163 L481.3228 436.2303 L481.2711 435.4099 L481.0724 434.5205 L480.5057 433.057 L479.9445 431.5808 L479.599 430.3547 L479.3055 429.1198 L478.9212 427.0847 L478.1751 421.9259 L477.6954 419.2442 L477.134 417.1374 L476.7456 414.8922 L476.5555 412.9842 L476.7456 410.5751 L476.6764 409.7894 L476.3397 408.6926 L475.8302 407.389 L475.1137 406.2406 L473.8531 404.5481 L471.4237 401.2903 L469.8668 399.1898 L468.131 396.2055 L467.5206 394.9355 L466.33 391.9622 L465.4459 389.2521 L464.9969 387.7327 L464.7638 386.0316 L464.6908 383.9026 L464.5872 381.0272 L464.5749 378.4338 L464.2769 376.3702 L464.1833 375.7415 L463.7849 374.9292 L463.0815 374.3506 L462.9794 374.4537 L461.9425 373.9702 L460.7313 372.8043 L460.4762 372.6656 L460.1184 372.9706 L458.8355 372.9518 L457.7605 372.6502 L457.8082 372.3472 L457.3403 372.7257 L456.6268 373.1081 L455.6552 373.5039 L453.1653 373.7028 L451.9832 373.7242 L449.8029 373.8445 L448.3551 373.7618 L447.7375 373.7694 L447.5491 373.9081 L447.3351 373.9173 L447.2611 373.6809 L446.7094 373.8372 L445.7752 374.3116 L445.794 375.307 L445.2385 375.8621 L444.4982 376.6395 L443.6465 377.1951 L443.0542 377.5529 L441.9682 377.2323 L441.1536 376.8618 L440.8024 378.2349 L440.8468 379.6069 L439.7796 379.1456 L438.1851 378.6127 L437.8956 377.7874 L437.7844 377.0346 L437.7104 376.2694 L437.6858 375.8254 L438.3276 375.5292 L438.2656 375.0357 L438.105 373.8744 L437.9856 372.1131 L438.0945 371.4441 L437.7937 371.0192 L437.2493 370.8583 L437.1818 370.7337 L438.5579 369.7988 L438.9103 368.9927 L440.2284 367.6827 L441.2309 367.4654 L442.2238 367.6033 L443.219 368.2064 L444.5273 368.5394 L445.2059 368.5766 L447.0935 368.6521 L448.458 368.8398 L449.9639 368.7352 L451.7 369.1088 L454.0484 369.9019 L455.3667 370.4253 L457.1837 371.0606 L457.7171 370.9015 L458.0507 371.0303 L458.2587 370.5257 L458.1172 370.3199 L458.6272 369.5165 L459.86 367.57 L460.8557 366.3263 L462.231 364.4154 L462.6394 363.3165 L462.518 362.731 L463.161 361.6835 L463.3755 361.329 L463.9728 360.4964 L464.691 359.9561 L464.8659 359.981 L467.776 357.867 L469.2396 357.2762 L471.0233 356.7405 L471.9505 356.3263 L473.0817 355.4185 L473.469 354.8928 L473.6614 354.4257 L473.75 353.2692 L473.602 352.5316 L473.4105 351.8656 L473.1165 351.3671 L470.4483 348.2582 L468.5597 345.9387 L466.3232 343.5533 L465.9627 343.1839 L462.151 340.7309 L459.9285 339.2552 L459.2336 338.5888 L458.8071 337.9017 L458.0957 336.46 L457.7437 334.8938 L457.6534 334.217 L457.6338 333.3651 L457.7693 332.5438 L458.4393 330.2866 L458.6207 328.9774 L458.5786 328.447 L458.2384 326.5496 L457.5922 323.783 L457.2497 321.5076 L456.7693 319.586 L456.4615 318.5393 L455.5837 316.6595 L455.0473 315.9163 L454.1582 314.7106 L453.1786 313.5688 L452.5494 312.9272 L451.7035 312.2983 L451.0156 311.8828 L449.5031 311.3524 L448.7961 311.2864 L444.8354 311.0814 L440.7545 310.6839 L439.0039 309.9327 L437.5734 308.6737 L436.6954 307.3816 L436.1212 305.9455 L435.8725 304.6534 L435.6131 303.0298 L435.2873 301.3288 L434.8841 300.0643 L434.2492 298.4847 L433.4649 297.1152 L432.62 296.022 L431.6105 294.9729 L430.0443 293.8759 L428.1169 292.7992 L425.2562 291.3522 L424.8962 291.2552 L424.5342 291.3553 L423.7429 290.8098 L422.5719 290.4587 L422.5252 290.5296 L422.6522 291.1471 L424.4574 293.9694 L425.704 296.6322 L426.1164 300.755 L425.5623 303.97 L425.6757 307.8511 L425.2507 308.9845 L425.2223 310.5992 L424.2274 312.3853 L421.2623 316.1946 L419.8018 317.5482 L418.0377 318.1856 L415.9599 318.8781 L413.4492 319.2894 L411.794 319.077 L411.0798 319.0127 L406.527 319.6347 L405.6858 321.9415 L405.8476 323.2265 L405.6512 323.7339 L406.537 324.0934 L406.1828 324.1202 L405.8388 323.9118 L404.7084 323.3813 L404.4548 323.7048 L404.3918 323.906 L403.453 322.9138 L401.4039 321.5624 L398.6321 321.3812 L399.4193 323.3089 L400.1313 325.8958 L398.9554 326.2089 L397.5533 325.1217 L396.9731 323.3679 L395.8863 322.414 L395.0988 322.4052 L395.1051 323.2269 L396.0293 324.5104 L395.5704 325.557 L394.3607 325.1381 L392.7216 324.7706 L392.1395 322.0457 L390.8987 321.8096 L390.4452 320.287 L389.4951 319.6324 L389.7247 318.7612 L390.3681 317.7709 L391.5001 316.4475 L391.9855 314.6128 L393.0316 312.8107 L393.9403 314.2464 L395.3105 314.4457 L395.9776 315.0114 L396.3258 314.5369 L396.1944 313.7689 L395.6221 312.9326 L393.9726 311.4455 L392.9491 310.6874 L391.1052 309.8403 L391.0136 309.418 L391.3553 308.8661 L391.4205 308.2555 L390.9178 307.6223 L390.6747 306.7864 L391.4205 306.2214 L391.4888 305.3472 L391.264 303.9175 L391.8711 303.0509 L392.2248 302.0777 L393.3043 300.9279 L394.1259 299.5342 L394.6525 297.9496 L394.9658 289.6177 L394.3735 283.6946 L397.2139 268.806 L398.2053 265.4347 L400.3302 264.3582 L400.8259 263.5646 L399.636 261.7517 L401.4611 258.5148 L402.4987 256.5983 L405.6038 252.1852 L407.7738 249.662 L410.1801 247.2075 L412.312 247.2708 L412.8025 247.285 L413.9492 247.2309 L414.2884 246.3012 L415.0834 243.0441 L415.8696 241.3288 L416.8402 240.4086 L417.2622 239.9258 L417.28 239.4493 L415.9577 237.8815 L417.0505 236.753 L415.7482 235.8374 L415.6752 234.9295 L416.8854 234.1588 L417.1092 233.6787 L418.6545 235.0062 L418.7338 234.9368 L416.8613 233.2389 L416.3408 232.7478 L416.7813 231.7562 L421.5664 231.5143 L419.7002 224.566 L419.4498 223.4053 L419.3066 222.7051 L419.2095 221.6314 L419.1154 218.224 L419.0539 216.7005 L418.9721 215.9286 L418.8801 215.2077 L417.7775 212.0675 L417.3545 210.8603 L417.2201 210.1168 L417.2354 209.4675 L417.6443 208.2304 L418.2986 207.2234 L419.2034 206.119 L419.9551 205.4341 L420.7473 205.0863 L421.6931 204.8309 L422.5418 204.7185 L423.1449 204.6978 L424.2798 204.8462 L425.4095 205.0402 L426.58 205.5158 L429.0356 206.6102 L430.3223 207.1018 L431.826 207.5068 L433.5394 207.6828 L434.6026 207.6878 L436.0341 207.5141 L436.939 207.289 L437.5062 207.1103 L438.4673 206.6501 L440.911 204.9888 L443.4875 203.0818 L445.2947 201.6602 L446.1587 200.8721 L448.0305 198.5166 L449.5053 196.807 L450.2048 195.8271 L450.4722 195.3247 L450.7216 194.6091 L451.3136 191.5775 L451.8761 188.4487 L452.3771 185.5911 L452.6224 184.5383 L453.021 183.7306 L453.2511 183.3061 L453.8238 182.7388 L454.524 182.2019 L455.8413 181.3784 L456.3117 180.7751 L456.741 179.9471 L457.0631 178.8072 L457.1602 177.7233 L457.2216 175.4689 L457.1908 174.7378 L456.8995 172.7648 L456.3396 170.2667 L456.0378 169.1828 L455.3062 167.0878 L455.0604 166.0829 L455.0024 165.0994 L454.9545 163.2165 L454.8624 162.322 L454.6562 160.9568 L454.3742 159.9592 L452.8198 154.9565 L452.4144 152.9284 L452.1024 149.5168 L452.1445 147.9954 L452.3894 147.1887 L452.786 146.3774 L453.4315 145.7156 L455.5114 144.0477 L455.1058 143.1155 L453.7059 141.6444 L452.4744 140.9991 L451.7376 140.3102 L451.5489 140.0156 L450.203 139.7463 L448.8305 140.0961 L447.1961 140.5948 L446.4081 140.4191 L446.7849 138.8582 L446.2734 137.593 L445.3635 136.7989 L447.0541 135.4129 L447.1346 134.6594 L446.4116 134.3176 L445.5817 134.5762 L445.9101 133.459 L445.8158 132.7482 L445.2506 132.5329 L445.1161 132.0216 L446.8067 130.08 L447.7104 130.6217 L448.8854 131.6901 L449.5395 132.312 L450.0979 132.6952 L451.8894 135.6618 L452.8999 136.8438 L454.1028 139.5119 L455.8019 138.6871 L457.5347 137.9482 L457.4321 137.7886 L457.0322 137.0567 L456.4346 136.1218 L455.1778 134.5482 L454.1314 133.2488 L453.2549 132.3611 L451.059 130.2146 L450.3046 129.5011 L448.8872 128.3567 L448.3142 127.8595 L447.177 127.1144 L444.6267 125.4759 L443.2276 124.5705 L441.6594 123.7756 L439.7016 122.8314 L436.1342 121.1403 L434.4363 120.4823 L432.0046 119.8397 L430.8167 119.6578 L429.5263 119.5427 L428.1859 119.5147 L426.8317 119.8301 L425.6869 120.2724 L424.774 120.8759 L423.9203 121.6451 L422.8792 122.8222 L421.8313 124.0368 L421.0044 124.6426 L419.8116 125.2177 L418.3038 125.7928 L417.2607 126.1787 L416.5706 126.2144 L415.7934 126.1174 L414.9552 125.9179 L414.3007 125.5703 L413.7691 124.9875 L413.226 124.2014 L411.5416 121.4464 L410.5288 119.3938 L408.6739 115.1237 L408.6757 114.2432 L409.0299 113.576 L409.6357 112.9149 L410.799 112.1376 L412.4952 111.6192 L413.7217 111.2927 L414.744 110.9236 L416.35 109.8746 L416.7379 109.5274 L417.6169 108.5744 L420.2538 105.5129 L423.3079 101.4251 L425.9975 98.9982 L428.1979 97.8893 L428.7072 97.4097 L428.944 96.7723 L428.7734 95.904 L427.1854 93.0381 L426.0635 91.5186 L423.4743 89.4845 L419.3427 86.6734 L416.5731 83.6695 L414.3481 81.5578 L411.6783 79.4488 L409.2145 77.4395 L407.6963 76.5615 L406.2851 76.1298 L403.9066 75.621 L400.1227 74.2686 L395.0396 71.628 L393.0452 73.0717 L392.0018 73.8181 L391.1202 74.6869 L392.0876 75.6413 L391.8962 76.278 L391.3099 76.9929 L390.7873 76.9326 L389.5363 76.3052 L388.5566 75.9057 L386.8529 76.4142 L385.2551 76.9675 L384.4832 77.0539 L383.4742 76.5124 L383.2783 75.9901 L383.4326 74.5768 L384.8635 72.1158 L387.009 72.4911 L388.1833 71.9343 L388.4001 71.838 L388.2322 71.4603 L388.1818 71.1077 L388.2154 70.801 L388.4422 70.5616 L389.1474 70.156 L389.5543 70.7028 L389.811 71.917 L390.4564 72.3315 L390.7349 72.0475 L390.3676 71.3011 L390.6047 70.4422 L390.5385 69.6344 L391.4057 69.3113 L392.1441 69.928 L392.334 69.7968 L392.0502 69.36 L391.5229 68.0725 L391.0633 66.1967 L390.7327 65.6022 L390.2475 65.2791 L389.8508 65.1743 L389.2089 65.1705 L388.5521 65.2979 L385.2827 66.1073 L383.2504 65.7411 L381.8757 65.3416 L377.6342 64.0169 L373.2184 62.7792 L369.4332 61.1704 L368.6219 60.7467 L367.8104 60.3154 L367.0322 59.8095 L366.346 59.1671 L366.1177 58.6762 L365.7204 57.9624 L364.9324 56.2212 L363.5182 54.4423 L362.9359 53.7027 L362.3133 53.1459 L361.9729 53.0307 L361.6294 53.058 L361.3359 53.1881 L361.0494 53.4448 L360.5321 54.2685 L360.0384 54.6334 L358.5061 55.4425 L355.589 56.8629 L354.5616 57.2773 L354.1422 57.66 L352.5913 60.0659 L351.491 60.8419 L349.9005 61.2464 L347.746 61.1186 L345.378 60.8124 L342.8206 60.3829 L341.9017 60.3791 L340.1486 60.8857 L338.7646 61.0403 L334.5803 60.9382 L334.8159 62.0984 L336.8058 62.6952 L337.3597 61.9614 L340.2282 62.1206 L343.9982 64.4175 L347.5511 66.9615 L347.1788 67.7214 L345.6888 66.8571 L345.4056 67.2298 L346.5082 68.2728 L345.0687 69.9207 L345.2895 71.4914 L345.2062 72.594 L344.3848 73.254 L339.1672 77.359 L335.1831 78.8398 L334.856 79.7009 L336.6379 79.8356 L337.6796 80.399 L335.1347 85.6864 L336.4869 86.47 L334.5156 89.9312 L335.3394 90.5923 L335.0329 92.0746 L334.4837 93.5803 L333.7386 94.6336 L333.2507 94.0684 L331.478 97.6134 L330.3795 98.5639 L326.9137 99.6367 L325.7584 98.8942 L321.0905 101.2417 L320.9771 101.8506 L323.043 104.401 L319.1912 106.6433 L317.3721 105.9404 L316.2331 104.5952 L315.4374 104.1482 L315.1958 102.7887 L313.53 102.2516 L314.1075 100.6055 L315.3937 99.7552 L316.7891 100.7855 L318.2529 99.3631 L320.6781 97.4392 L321.2995 97.4009 L323.3488 95.2721 L324.7484 92.8723 L325.1516 91.5888 L324.6717 91.2281 L323.1664 91.8954 L322.6652 91.9576 L322.0937 92.3367 L317.2439 95.015 L313.2385 96.5337 L310.8745 96.7179 L310.5692 96.7432 L310.6204 97.8057 L306.9635 97.8417 L303.1946 99.3278 L300.3473 99.8964 L299.6822 98.7818 L299.0174 98.6183 L297.7856 99.2096 L297.4532 100.1961 L295.9666 100.7248 L299.2683 106.71 L300.19 110.8876 L301.647 110.5729 L301.7978 110.909 L302.4794 112.4288 L303.0562 113.7145 L302.7847 114.3349 L302.8499 114.8655 L302.8173 115.4379 L303.6038 115.5634 L304.1625 115.4145 L304.3813 115.1352 L304.4603 114.6418 L304.0647 114.265 L303.8524 113.7287 L304.4219 112.9935 L307.3435 113.109 L308.0078 113.3005 L310.5898 114.0187 L311.3075 113.9673 L312.2513 114.1614 L312.7907 114.2604 L312.6497 114.5397 L312.0474 114.7404 L310.6723 114.5497 L309.6428 114.2965 L309.5276 114.4971 L309.7888 114.8375 L309.8447 114.6211 L310.2446 114.7143 L311.5308 115.0957 L312.1921 114.984 L313.1906 114.839 L314.8867 114.6253 L315.9986 114.204 L317.3954 114.2282 L317.2459 113.9243 L317.7722 113.6546 L318.3249 113.6811 L319.2855 112.977 L321.5885 110.713 L321.8393 107.8254 L324.4775 105.3518 L327.3329 103.944 L329.5764 103.0493 L330.0895 102.4964 L330.6685 100.2989 L331.971 100.7728 L333.2871 101.9964 L332.6948 103.4307 L331.3594 104.9175 L330.0172 106.1545 L330.2934 107.1543 L331.1815 106.1479 L332.5106 105.0951 L332.7738 105.2332 L331.8659 106.7465 L331.9908 107.2399 L331.1685 107.4375 L330.7671 107.9704 L331.3855 108.8782 L330.3195 109.5481 L329.1224 109.6678 L325.5301 110.6021 L324.2276 111.135 L323.3656 111.4113 L322.2801 110.6612 L322.017 110.8914 L322.8606 111.5797 L320.8464 113.8591 L318.5487 114.6479 L317.8635 115.238 L320.0516 114.9848 L322.5232 114.0314 L322.0646 115.9037 L320.3414 116.8778 L321.3153 117.7207 L317.0818 119.0133 L315.981 120.7961 L318.1122 123.9586 L320.1914 124.6702 L322.6266 124.7266 L329.0516 123.9398 L327.5344 123.4341 L322.1208 124.1458 L319.4608 123.6213 L317.138 121.0175 L317.925 119.7065 L318.9927 121.0927 L320.8283 121.6732 L322.252 122.7409 L322.2332 121.7856 L325.2484 122.2068 L327.1214 121.7453 L327.936 122.2087 L329.9374 122.0883 L329.3705 121.6114 L329.1053 121.0152 L329.1979 120.3948 L330.1941 120.1159 L331.6406 119.4783 L331.4344 118.7079 L330.7319 118.3518 L331.8935 116.6756 L332.9855 117.5922 L333.9381 117.7798 L332.3312 119.2346 L332.392 119.8558 L334.5509 120.7102 L334.9285 121.0482 L335.0873 121.5182 L333.776 121.0347 L333.7986 121.268 L335.5936 122.3649 L336.4483 123.0505 L337.3324 123.8864 L338.181 123.2672 L339.6298 124.1753 L341.2833 123.3934 L342.0013 125.042 L343.2639 125.4859 L344.6836 126.1212 L348.3589 129.8575 L351.1837 131.9851 L353.9169 132.4439 L355.1876 133.2473 L359.2529 134.3874 L362.2079 134.7499 L363.0749 134.7427 L363.1264 133.6021 L363.3396 132.8709 L364.6185 131.9188 L365.7926 132.854 L365.6326 133.8104 L363.6765 134.4419 L363.019 136.1356 L361.5113 137.7092 L360.7009 138.0322 L357.9895 137.1614 L359.6004 137.99 L360.9909 138.7051 L362.0403 138.5428 L362.3542 137.3344 L363.3705 136.4329 L365.0924 135.6384 L365.2021 134.4285 L366.6157 133.9436 L367.7017 133.6317 L368.7439 133.4671 L369.6445 133.9148 L369.951 133.8266 L370.5872 134.051 L370.4648 134.7242 L369.3397 135.6595 L369.1683 136.4452 L368.2388 137.0809 L367.699 137.779 L367.0811 138.5102 L366.1925 139.6849 L361.596 141.0544 L362.9257 144.8993 L362.8138 147.8235 L360.3545 151.8943 L358.8357 151.3511 L353.302 149.132 L351.9912 148.5328 L350.9953 147.311 L350.7697 147.494 L350.3565 147.3958 L350.0693 147.1522 L349.0264 147.0122 L347.3401 145.8104 L344.5301 141.5888 L342.9937 141.6555 L342.2115 142.1312 L342.0966 142.0898 L340.4025 140.1755 L338.1306 137.395 L337.7626 137.5661 L338.8321 139.4881 L338.3569 139.8364 L337.9683 139.246 L337.1715 140.0497 L337.5328 141.1353 L336.8294 141.3083 L336.2258 142.379 L335.1465 141.6114 L332.4303 140.2081 L331.4713 140.6692 L330.7214 140.014 L330.0099 138.969 L329.8579 137.8117 L330.7377 137.4131 L331.1326 136.9961 L331.3147 136.4237 L329.7939 133.1199 L330.2809 132.1654 L331.2196 130.7843 L330.833 130.3612 L330.0017 130.5749 L329.1733 130.5496 L328.1728 131.6253 L325.1641 131.4039 L323.4474 130.9735 L322.4821 130.5868 L321.6043 130.3727 L320.8692 130.5097 L318.5035 130.2292 L316.131 129.765 L314.7164 128.7787 L311.9415 128.8328 L310.9611 127.8096 L310.4418 126.8612 L310.1806 124.328 L308.567 123.8918 L307.6107 124.4588 L307.9291 123.2972 L307.8352 122.7002 L307.3124 122.0269 L306.7038 121.4564 L305.6278 121.1729 L303.8411 120.6047 L303.3364 119.6402 L303.4606 118.9265 L303.5446 118.4504 L303.0981 118.633 L302.9714 119.5366 L302.9092 120.475 L303.3866 121.1564 L304.449 121.5323 L305.8797 121.8209 L307.0437 122.8299 L307.0701 125.6182 L306.5561 126.3947 L305.4951 124.5221 L304.2664 123.1537 L303.4109 121.4077 L302.37 121.0021 L301.5682 120.4573 L301.1415 119.1828 L301.2446 118.0549 L301.7148 117.896 L301.5524 117.4322 L300.6912 117.5461 L300.0319 117.644 L299.3458 117.7399 L299.3568 116.7458 L298.7593 117.2607 L298.3428 118.0077 L298.4093 119.0232 L300.138 121.921 L301.219 122.785 L302.0233 124.4715 L302.4174 125.4065 L303.3216 126.1177 L304.161 127.5579 L305.3561 128.7457 L303.743 130.2891 L302.6693 128.8516 L302.2057 129.4278 L301.3633 129.2793 L300.9037 128.753 L300.0517 127.9934 L297.9186 126.125 L295.085 127.589 L293.8981 129.1332 L292.8635 130.3635 L291.057 129.4079 L290.2894 127.8226 L288.4369 124.4884 L289.0205 124.1101 L292.1661 124.3004 L292.6644 123.2979 L293.7391 124.5789 L295.1081 123.3221 L296.9811 126.2067 L297.6509 125.8181 L296.8454 124.6614 L296.4472 123.2753 L297.177 122.5049 L297.5435 120.8759 L298.105 120.1378 L298.4702 119.9973 L298.0583 118.1615 L295.363 120.742 L292.9596 121.9935 L292.3345 120.9741 L292.3154 119.3282 L292.9325 118.5935 L293.138 117.3954 L293.2203 116.2555 L293.0587 111.0748 L292.0899 110.7176 L292.0562 111.4316 L291.4027 112.0934 L290.9125 113.4547 L289.3719 113.3937 L289.332 112.3705 L287.377 112.4441 L287.3015 113.5491 L287.2814 117.0562 L286.8519 117.4571 L286.8324 118.7742 L287.9603 118.7524 L288.0523 119.7046 L285.572 120.3304 L285.1302 122.188 L284.6734 122.6557 L282.4808 121.461 L283.5414 119.8243 L283.8663 119.3271 L284.1651 118.8763 L285.3939 118.8379 L285.4872 117.555 L283.8357 117.4345 L283.1697 116.1742 L282.4911 120.0081 L281.7916 121.0267 L278.0865 120.6346 L277.8299 121.6985 L277.9744 123.6869 L277.6069 123.7733 L277.224 123.436 L276.643 122.8111 L274.9802 119.2937 L271.8622 119.0984 L273.46 122.343 L273.4294 122.3737 L273.8731 122.2463 L274.4752 122.7462 L274.3069 123.2565 L274.1027 123.6904 L275.704 127.1678 L274.9599 127.5783 L274.3082 128.1303 L274.1639 128.4714 L273.8016 128.3797 L273.7457 128.0221 L274.1283 127.6243 L274.0814 126.0602 L273.269 123.4568 L271.457 122.9047 L272.3007 125.1229 L271.9848 125.8753 L271.6595 125.9578 L270.8426 126.1642 L269.2448 124.6161 L268.3583 122.3718 L267.343 121.0117 L267.2499 119.9705 L266.4286 120.2103 L266.0201 120.0012 L266.056 119.4806 L266.4245 118.775 L267.2875 118.0357 L269.3346 118.3231 L270.3065 119.0006 L274.9845 119.2914 L276.496 118.0825 L277.2775 115.9869 L279.391 111.6242 L277.9495 110.9094 L277.0527 113.1466 L275.8894 112.786 L275.2369 111.7781 L273.0352 110.22 L269.4786 107.1283 L269.2097 110.0926 L270.4179 111.755 L271.9276 113.0143 L270.9264 113.6707 L270.1864 113.0081 L268.4092 114.4503 L266.7968 115.0588 L264.1557 117.6639 L264.4926 118.9611 L261.8948 119.3417 L262.0341 118.0798 L262.9247 116.5359 L263.9437 115.9635 L264.7768 115.1198 L265.0465 114.191 L265.4329 113.6742 L265.7771 112.809 L266.4007 112.5853 L266.7956 111.8333 L266.9032 110.3704 L266.2843 108.4907 L265.5197 106.4906 L265.8804 105.384 L266.5068 104.9735 L266.7873 103.7702 L266.1855 103.1935 L265.2086 102.039 L264.6426 105.1922 L263.5719 107.7395 L262.9879 109.4027 L262.6462 109.6325 L262.4844 107.4072 L261.0875 108.0387 L258.5848 107.4356 L255.8862 105.5425 L255.446 104.9247 L256.4542 102.0425 L257.539 98.0428 L257.4115 97.5375 L257.8488 96.1435 L257.625 95.9447 L257.0987 97.4983 L257.1065 98.5055 L256.1735 101.4201 L254.9683 102.9798 L254.2573 102.7734 L253.4011 104.4367 L251.8254 104.985 L250.2795 105.4228 L248.5691 105.8617 L248.3925 105.5198 L245.9016 105.7934 L245.6334 104.7525 L246.4016 104.165 L244.1874 102.8309 L242.561 101.4911 L242.2567 100.7728 L242.7943 100.0545 L242.7025 99.3217 L242.8525 98.2719 L243.1275 97.3725 L243.1024 96.5978 L242.2527 96.9891 L241.0608 96.6695 L239.751 94.1578 L238.7989 92.408 L240.0796 91.8156 L242.6087 93.5603 L243.3224 92.9345 L244.1472 93.2929 L244.955 93.515 L245.3394 93.5062 L245.882 93.449 L246.3913 93.3174 L247.036 93.0784 L247.6083 92.8704 L247.5832 92.7779 L246.5935 92.5185 L246.2282 92.1064 L247.253 88.1054 L245.9485 85.4796 L244.4513 84.9051 L244.1683 86.9159 L243.6924 87.0659 L242.0971 86.4105 L241.0099 86.5513 L238.9367 84.7885 L237.3512 84.1381 L238.4783 85.6492 L238.5333 87.0613 L238.3614 87.6123 L239.1434 87.1457 L240.0621 88.1894 L239.6685 89.2355 L238.8019 89.7842 L237.8604 90.082 L236.1798 91.4929 L234.4019 91.6959 L234.208 91.1943 L234.3711 89.7462 L234.1935 88.7485 L235.3086 86.0444 L236.0278 84.5306 L236.8309 83.7524 L236.0843 82.648 L236.152 80.9504 L234.1543 80.1887 L233.3781 81.0237 L230.2967 79.0716 L231.0611 78.1541 L232.99 78.5539 L234.5188 79.3774 L234.5542 79.0716 L234.487 78.0769 L233.4847 77.2665 L232.8277 77.6821 L231.8255 77.2484 L229.5845 75.8608 L228.0544 74.2475 L228.5117 73.0334 L229.5263 71.894 L230.3496 70.2722 L230.8817 69.5653 L232.2216 68.9022 L233.2818 67.9409 L234.5329 66.4899 L235.287 65.5569 L233.3611 64.3634 L233.5126 61.2234 L231.6391 59.7393 L231.2575 61.776 L230.9098 61.8474 L229.5534 60.637 L228.798 60.6535 L228.1048 61.0131 L227.6826 60.0897 L226.7489 60.1998 L225.3297 59.5758 L224.0244 58.7004 L224.8749 58.4368 L226.7905 59.2047 L228.2503 56.9715 L227.2466 55.9383 L225.9734 57.1292 L224.7043 58.1593 L221.7026 57.2355 L219.6164 58.9149 L218.9285 59.4687 L218.1947 60.3722 L215.7472 56.9857 L215.6336 56.1502 L215.6253 55.497 L216.7457 54.6991 L217.9822 54.4208 L219.073 54.1752 L218.4476 51.1616 L219.0539 50.7103 L218.6723 49.5025 L216.7946 49.6268 L215.8704 50.3284 L216.2718 52.2938 L215.1313 52.0428 L214.1451 51.9952 L213.7661 50.0747 L212.3522 49.423 L213.3707 47.7569 L213.5355 47.9481 L214.2485 47.6219 L214.9825 47.1728 L216.0523 45.8663 L217.6011 44.5449 L218.1688 44.4313 L218.6272 44.6209 L218.8535 45.0077 L218.8495 46.2935 L218.9591 46.9943 L219.3459 46.987 L220.149 45.8993 L221.533 46.6566 L221.9176 46.5453 L222.4133 45.9738 L222.5904 45.6522 L222.1845 44.9686 L221.2759 43.5232 L219.4588 40.9934 L218.3437 39.6823 L216.691 39.2459 L214.8772 37.5502 L211.5837 35.2468 L208.1087 32.9638 L206.5124 33.7514 L206.3513 35.9819 L207.6042 37.0428 L207.538 38.7588 L210.2667 41.259 L207.5021 46.4378 L206.4662 45.2449 L206.1236 44.1664 L206.5463 42.1886 L204.6319 41.796 L204.0318 39.6743 L202.7674 39.9314 L202.7764 41.5757 L197.0571 43.9734 L200.3528 48.0206 L199.8475 49.6065 L196.248 49.3225 L195.6908 50.9014 L191.9905 50.044 L191.047 50.87 L190.4617 50.0505 L188.5942 50.7613 L187.097 52.655 L185.9889 52.48 L185.1365 50.2847 L184.1782 48.0122 L183.0299 47.4465 L182.6032 46.059 L182.9128 43.6137 L183.7906 42.3552 L184.6004 42.1034 L185.5665 41.4525 L186.5629 42.0025 L187.5488 43.4921 L187.6344 45.1559 L187.656 46.4704 L188.1745 46.8976 L188.3278 46.7901 L190.3892 44.0405 L190.7236 41.1408 L190.3699 39.3123 L189.9592 38.9231 L189.6271 34.6788 L190.1263 32.3792 L187.731 32.897 L187.0607 36.6459 L186.506 38.0365 L180.1424 42.437 L178.6673 40.7198 L178.9099 39.6589 L176.2246 40.1844 L174.7966 40.0615 L173.1589 36.51 L168.3931 35.8268 L167.7464 32.6475 L168.0243 30.8677 L168.9694 30.7675 L172.6241 27.0826 L176.5384 28.0568 L177.7549 29.1258 L178.7463 29.2421 L179.5483 28.1198 L180.8897 28.8049 L181.0064 27.638 L183.4805 28.5082 L183.5432 29.1838 L182.9308 29.2129 L184.0683 31.0208 L185.3851 32.4391 L188.0157 29.8279 L188.3745 30.4658 L189.4698 31.078 L190.9815 29.7772 L191.3081 29.1247 L190.837 27.4661 L189.2387 27.0888 L186.0271 24.5653 L186.4375 23.1881 L184.5469 23.0411 L183.1912 22.4822 L182.176 22.306 L179.9221 20.9018 L179.6008 21.9667 L177.3098 22.2964 L174.5149 21.25 L172.9863 19.1107 L172.0794 19.4009 L172.2608 21.1064 L174.1438 24.8559 L171.6733 25.7084 L169.1492 26.052 L168.8949 24.8141 L169.1307 24.6436 L168.2308 21.8903 L167.639 19.4508 L166.6388 19.029 L165.6122 18.6666 L164.4449 19.1956 L164.2859 20.2458 L163.2581 19.1468 L162.4109 19.1511 L162.4299 18.3868 L164.8631 18.0931 L164.5995 17.4774 L163.5292 17.5841 L161.944 17.5258 L161.2549 15.783 L159.6159 15.1646 L158.5224 14.7827 L150.6207 15.2176 L149.4276 15.3919 L148.4311 15.8314 L147.3719 17.6989 L146.5666 17.7787 L143.4706 15.7228 L136.5963 16.0494 L135.9588 16.75 L136.3938 18.6609 L134.99 18.4674 L134.2085 19.0355 L133.3305 20.4347 L132.0049 21.62 L131.6888 21.85 L131.6918 19.0378 L131.8345 17.1814 L131.0375 17.2237 L130.3002 17.9734 L129.3406 17.3104 L128.1319 17.2966 L127.6645 20.3449 L126.4014 23.1132 L125.2462 23.4648 L125.8257 20.3656 L127.1192 17.5415 L127.4016 16.8168 L126.7622 16.6563 L126.1122 16.6287 L125.1553 16.2302 L124.2956 16.117 L124.5505 15.8226 L126.0525 15.7988 L125.5422 15.3124 L127.2381 14.3688 L127.5353 13.8203 L127.0334 13.8786 L125.3352 14.4556 L124.5844 15.0187 L123.4474 14.4395 L118.1683 14.0141 L118.6563 12.5159 L118.6851 11.7167 L117.8284 12.6314 L115.1326 12.747 L110.9443 11.8514 L105.7349 10.851 L100.8768 7.6168 L102.7348 5.4985 L100.3568 4.8536 L99.3749 6.5385 L98.3476 6.1358 L97.4851 7.745 L97.1303 8.4068 L90.336 3.8121 L84.2554 2.0769 L83.4107 0.2818 L82.336 0.6699 L80.1918 0.0825 L80.3265 2.9648 L78.4588 1.5974 L76.6964 0.0 L75.8257 0.2856 L75.4882 0.0476 L75.3593 0.6453 L74.7331 1.1041 L74.4905 1.465 L72.8556 2.756 L73.2603 2.8339 L74.1857 2.0082 L74.7565 2.3072 L75.3116 0.9912 L78.5481 3.0516 L77.4302 4.9465 L77.286 5.5438 L78.1909 6.1312 L78.0639 6.6502 L83.5329 10.0598 L84.1056 10.2859 L85.1104 10.3685 L87.093 10.681 L93.5615 12.5604 L93.3648 13.8859 L91.6634 13.8441 L88.6529 20.3625 L80.5149 15.74 L77.6653 15.1055 L76.2928 15.0157 L75.5738 14.231 L74.8465 13.8552 L74.6014 13.3163 L73.5801 13.504 L74.6423 15.6936 L73.536 16.436 L78.3564 18.4133 L77.9317 18.9852 L77.0645 19.2512 L76.2429 19.4566 L74.2068 18.5369 L73.7141 18.5641 L71.6145 19.0754 L70.8956 17.1135 L69.0552 18.1104 L69.6108 20.5656 L70.1565 23.0956 L71.2327 24.8663 L71.2129 26.0666 L70.5085 26.1506 L71.2069 27.1222 L71.9705 28.4165 L72.1509 28.395 L74.2045 28.6568 L75.2835 31.2684 L75.5525 32.5758 L75.5976 33.8585 L75.8859 34.597 L76.1648 35.6894 L76.1518 35.8452 L76.0617 37.7916 L75.3608 39.2317 L74.2482 40.0995 L74.0334 42.0558 L73.6998 44.8396 L73.4489 46.6758 L72.9033 48.6581 L72.1439 50.8373 L72.1893 51.39 L72.4083 51.7185 L72.6986 51.9615 L73.0187 52.0789 L73.5101 52.0148 L73.9185 51.6825 L74.0909 51.3758 L75.0741 49.4848 L78.4197 45.514 L78.8524 45.0116 L79.7987 44.4481 L80.7819 44.2102 L81.5643 44.1768 L82.2241 44.2869 L82.5854 44.6673 L82.7376 44.8561 L82.7251 45.5094 L82.2921 45.9968 L81.4813 46.4071 L80.7693 46.7909 L80.034 47.6764 L78.9372 49.4725 L78.8464 50.1219 L78.4337 52.7314 L78.1229 54.7981 L78.1179 55.4551 L78.5441 56.1978 L79.7029 57.2612 L80.0985 57.8442 L80.5937 58.0165 L82.1958 58.9457 L84.9425 58.9959 L85.1598 60.1983 L86.9054 62.1371 L86.7649 64.3826 L92.421 69.4491 L92.4017 72.0694 L91.7299 74.7276 L91.1684 75.9832 L90.3042 77.9937 L90.7826 78.3106 L91.5304 77.5854 L92.7228 78.3648 L92.7108 80.1695 L91.9393 81.8318 L90.399 79.7662 L89.8227 80.1104 L92.215 83.711 L91.6034 83.9638 L86.1502 80.666 L86.2433 78.4902 L86.1114 77.9779 L85.3005 78.1575 L85.3214 81.4911 L84.6051 82.2716 L80.0937 80.4619 L80.8142 77.8256 L84.0251 79.0279 L84.915 78.3241 L84.6044 76.918 L82.4444 76.6698 L80.6635 76.2718 L79.0453 76.3796 L77.5991 76.6245 L75.6588 76.2745 L74.5048 75.6966 L73.8167 76.8401 L72.8094 78.5854 L71.8729 79.7984 L70.8266 80.5006 L69.3334 81.1426 L68.1274 81.3199 L65.8458 81.0778 L64.3845 81.0636 L63.4444 81.0993 L62.0895 81.5674 L61.5408 81.9435 L61.5434 83.7701 L60.9829 84.0007 L60.3693 82.9293 L59.4727 83.6665 L57.6067 85.5425 L57.1501 86.1899 L55.6401 89.2646 L54.7673 90.8149 L53.729 92.2292 L52.1038 93.9797 L50.1476 95.6101 L47.6695 97.0248 L46.0895 97.6971 L44.5494 98.1383 L44.0677 98.324 L43.6214 98.6602 L43.3304 99.2119 L43.3354 99.6532 L43.5311 100.0745 L43.9375 100.5361 L45.8938 100.6615 L48.2713 100.4708 L51.1508 100.195 L54.035 98.9909 L58.0279 97.1603 L60.7817 95.9765 L63.0541 94.642 L63.5207 94.3861 L64.0222 94.3312 L64.5691 94.5568 L64.835 94.9329 L64.9203 95.5199 L64.8501 95.9213 L64.3483 96.3476 L63.2999 97.0448 L62.3369 97.9327 L61.4741 99.4525 L60.4709 101.3637 L59.0379 103.1272 L55.4863 106.5635 L53.8762 108.0383 L51.639 109.3525 L49.6576 110.416 L48.6594 110.7418 L47.1745 111.7903 L45.8351 112.954 L43.2067 115.6677 L41.0698 117.5388 L39.6501 118.4017 L38.172 119.0934 L37.5052 119.2423 L36.6113 119.1717 L34.8733 118.714 L32.9755 118.15 L32.0889 117.7207 L31.1843 117.0328 L31.0495 117.0328 L30.8085 117.1107 L30.6772 117.3627 M107.6325 54.8649 L108.0472 53.9062 L109.0083 53.3209 L109.8362 51.8314 L111.3394 52.2535 L113.6943 52.8526 L116.2266 53.9618 L116.707 55.3035 L117.3733 55.8032 L119.4478 56.6882 L122.0069 58.4636 L122.3406 59.0151 L122.3062 59.7493 L122.4392 60.7912 L122.9602 62.5869 L123.6363 62.7865 L123.7582 61.9882 L123.5365 60.6139 L124.8555 59.6276 L124.4785 59.0401 L124.7888 58.7407 L127.227 59.9523 L127.9408 59.9903 L128.6071 60.3376 L129.1256 60.8565 L129.4633 61.5365 L129.2776 61.8808 L128.8564 62.5236 L129.0782 63.5099 L128.5629 63.9225 L127.8193 63.8112 L127.0186 63.7102 L126.9445 64.2183 L128.6126 64.5073 L129.311 64.2859 L129.9317 64.0752 L130.9991 64.9375 L130.4143 67.1453 L130.2811 68.4156 L129.967 69.5623 L128.5825 71.237 L129.2671 72.46 L129.9096 73.4156 L130.2899 73.4524 L130.8584 73.0387 L131.2588 73.079 L131.5179 73.5802 L132.2833 76.4882 L132.117 76.7212 L130.9753 75.923 L130.4101 76.6544 L130.4766 77.641 L130.172 78.1748 L128.3153 76.3666 L128.8805 75.2468 L129.5012 74.5818 L128.7255 73.4071 L128.0303 72.5483 L124.8997 70.3352 L124.7841 68.9793 L124.276 68.4877 L123.4896 68.9517 L121.8441 67.7137 L122.9023 66.5843 L121.4134 65.1298 L117.2858 63.645 L117.1069 62.9765 L117.576 62.2316 L117.481 60.8661 L117.1859 59.5674 L112.3697 56.9477 L107.6325 54.8649 M137.0872 86.0793 L137.4021 84.8503 L137.94 83.7129 L137.8163 82.5663 L138.4251 81.572 L138.9979 80.229 L138.7124 79.5674 L138.7676 76.9718 L139.2673 76.7051 L139.9334 76.8946 L140.4564 77.5585 L141.8796 79.5781 L143.3021 81.039 L144.073 82.2616 L144.1159 80.9961 L144.5943 79.1173 L144.7827 78.8648 L145.2807 78.8817 L151.2577 82.9166 L153.4851 83.8775 L154.2734 86.5709 L156.1619 86.8813 L157.0242 87.7735 L156.7269 91.0152 L156.3104 91.6694 L152.9024 91.5715 L152.7739 92.1567 L154.5677 92.5515 L156.3998 93.1379 L156.8192 93.0289 L157.2196 92.2718 L157.5141 91.0029 L157.5653 90.24 L157.4941 88.7508 L157.8365 88.1131 L160.4516 86.3391 L161.8371 85.6899 L162.883 86.6434 L162.8411 88.4124 L166.2735 88.4872 L169.9611 89.3498 L170.0504 90.6583 L171.084 91.3973 L168.5635 93.2457 L168.3831 96.3177 L167.5452 96.3614 L166.9913 99.0646 L165.4231 99.2388 L165.2487 102.4334 L163.9587 102.5098 L161.8798 99.0063 L158.6466 100.1623 L153.8416 94.9747 L150.1059 94.0073 L148.9848 94.4175 L146.6033 94.4759 L144.6864 93.9529 L143.0994 92.4529 L140.4916 92.8217 L140.2465 91.9852 L140.482 91.4299 L140.97 90.8375 L141.5314 90.5044 L142.1784 90.2523 L142.2592 89.4576 L141.2221 89.61 L140.6225 89.648 L139.7136 89.0152 L138.1815 87.8779 L137.5476 87.1077 L137.0872 86.0793 M149.9055 75.639 L151.4867 73.2671 L151.8302 73.4559 L154.1224 74.7165 L153.077 77.3874 L152.9362 77.7473 L149.9055 75.639 M187.8562 260.6633 L188.23 259.5093 L188.2756 257.8842 L188.4971 254.9628 L188.3353 253.739 L188.5122 252.582 L188.7392 251.7109 L189.1918 251.1523 L190.0593 251.3233 L191.5695 252.8193 L191.9516 253.7344 L190.9677 254.8608 L190.8395 255.2852 L190.4273 256.2245 L190.6479 257.1903 L190.8393 258.6824 L190.4971 259.9939 L187.8562 260.6633 M189.3488 86.4984 L189.9389 72.8749 L190.9602 72.579 L197.0992 75.8355 L198.336 74.9199 L206.0347 76.3152 L205.7144 83.4769 L202.1074 83.3702 L198.0147 88.8602 L194.8284 88.6587 L189.3488 86.4984 M189.8503 98.1172 L190.3985 95.574 L191.3656 93.8661 L192.5873 93.9694 L193.0381 93.7092 L195.2882 95.1573 L195.6449 96.2171 L195.9377 96.9205 L197.5977 97.6802 L203.1337 101.178 L204.0042 100.3929 L206.2929 100.9593 L207.9343 102.1771 L206.959 103.6712 L206.5784 105.8602 L205.2555 105.4078 L203.0431 109.0194 L202.1866 109.181 L190.2382 101.7171 L190.6777 99.3612 L189.8503 98.1172 M209.0482 58.1804 L210.7985 57.1112 L213.2904 60.7448 L214.4668 59.0819 L215.9675 61.4748 L211.8707 66.6664 L210.656 64.5173 L209.8939 62.8686 L210.2835 62.5148 L210.7654 62.9799 L211.4631 62.4649 L209.0482 58.1804 M224.8142 361.5555 L225.4183 360.1144 L224.907 359.1721 L225.5946 356.2531 L226.2406 356.7378 L228.2446 353.2508 L229.4435 353.5616 L229.3358 355.4457 L228.6362 357.4107 L227.425 358.5679 L227.0256 359.0154 L227.5456 359.0185 L229.0667 357.8414 L230.2242 355.5266 L230.2094 353.3585 L229.9818 351.543 L230.4126 350.224 L230.9454 349.6776 L231.4622 349.1476 L232.0543 347.6401 L232.539 353.5884 L232.9158 353.4808 L233.1042 352.1622 L233.6962 352.1082 L233.6962 351.5698 L233.0354 351.3667 L233.0354 349.2944 L233.427 350.224 L233.6423 349.4975 L233.2778 348.5406 L233.6423 347.99 L235.5534 348.9323 L234.0191 350.1163 L234.773 351.0854 L238.8102 349.632 L239.3754 349.955 L237.8951 353.5348 L232.835 354.0463 L230.3318 356.9532 L231.3814 361.6632 L232.4582 362.5513 L230.3318 365.5661 L228.083 361.6486 L226.6982 362.2283 L224.8142 361.5555 M226.9696 257.5767 L227.3801 256.0087 L228.7458 254.484 L229.0499 253.2828 L230.5237 252.9355 L230.8546 253.3376 L232.5954 251.9747 L231.5317 254.017 L231.5862 254.461 L231.1627 255.1798 L231.8518 255.4992 L231.4065 256.1686 L230.4181 256.4638 L229.7761 257.1826 L229.029 257.4253 L226.9696 257.5767 M229.37 372.0663 L229.4901 370.7855 L231.0664 369.9372 L232.4845 369.6234 L232.8443 368.5045 L233.1692 367.8172 L234.2098 367.3539 L235.6708 366.4278 L237.4232 365.3799 L239.5127 364.4863 L241.2768 364.1135 L243.0851 363.8204 L246.8674 365.194 L250.0884 367.0757 L250.1727 370.0057 L250.0289 372.4625 L248.3523 371.8659 L246.4507 371.3893 L244.4388 371.0789 L240.4662 370.2739 L238.0699 369.6919 L237.3529 370.8376 L237.7297 371.7276 L237.6171 376.1361 L237.4575 376.7008 L234.8344 376.13 L234.217 375.1031 L233.0688 374.5955 L231.843 374.2204 L231.7738 374.3759 L233.6977 375.1779 L233.5766 375.9917 L231.4171 375.1978 L231.6958 374.451 L231.8739 374.0595 L232.9095 374.4257 L232.6268 374.1173 L231.9715 373.8096 L229.6472 373.0889 L229.37 372.0663 M235.4119 254.8298 L236.2892 254.2351 L237.7117 254.0511 L239.8135 255.1974 L245.3331 259.2854 L242.9105 260.932 L241.6222 260.0625 L241.7991 260.6449 L241.185 261.3357 L240.3277 259.8379 L239.1996 259.8651 L238.5749 258.9933 L235.4403 256.0302 L235.4119 254.8298 M258.565 438.9915 L258.565 438.5878 L259.5341 437.646 L259.7494 437.9957 L259.7494 438.5342 L259.9902 439.0268 L258.9421 439.6108 L258.565 438.9915 M262.7611 121.7882 L263.6243 120.3634 L264.5741 120.277 L265.3082 123.2991 L263.4086 124.7669 L262.7611 121.7882 M267.273 300.1835 L267.2938 297.9209 L267.6285 295.7196 L268.1267 294.8997 L269.9001 294.2757 L270.6023 296.1608 L269.6889 298.0972 L270.5694 299.0654 L270.6221 299.7523 L269.6849 300.7366 L268.6498 300.3863 L267.273 300.1835 M275.2559 299.3414 L276.1847 297.5196 L276.4232 295.4678 L277.3645 294.3746 L276.988 293.2431 L278.1678 292.8789 L278.2556 292.3419 L278.7325 292.1886 L279.5107 292.8981 L278.8078 294.0679 L280.2134 295.5444 L280.3893 296.8868 L280.113 298.4974 L277.5652 300.9328 L275.2559 299.3414 M277.6698 234.2796 L279.0157 232.6646 L279.0694 231.8571 L280.0385 230.9422 L281.8686 229.0043 L283.6451 229.2194 L282.8378 231.2114 L282.7838 232.9878 L282.2994 234.1182 L280.6845 235.7331 L279.7694 235.6254 L277.6698 234.2796 M290.9848 286.0053 L291.4424 285.351 L292.5796 285.0589 L293.6671 285.2126 L296.1364 285.1585 L297.1875 285.8098 L296.8737 287.6003 L292.0741 286.8091 L290.9848 286.0053 M291.048 429.7664 L291.3864 429.111 L291.4833 428.4396 L292.2406 428.5843 L292.2514 429.4439 L293.3741 430.11 L294.5291 429.6856 L294.7546 431.4962 L293.8146 432.1569 L292.629 430.1368 L292.1162 430.2203 L292.0136 430.6497 L291.0911 430.701 L291.048 429.7664 M304.019 302.8527 L306.4953 298.7883 L305.7146 295.8277 L305.8494 292.7862 L309.1598 291.4407 L312.0938 289.4759 L314.9738 289.1527 L318.5266 290.2563 L321.1911 293.2979 L324.5555 294.0783 L326.4935 294.186 L326.5474 295.37 L323.9903 295.9622 L320.599 297.9002 L320.2491 300.1613 L323.4251 299.7036 L325.0939 299.9727 L326.5474 299.1923 L329.2659 299.2728 L330.45 298.0347 L330.9076 296.743 L331.3115 295.0205 L334.272 294.3205 L334.9719 292.2748 L333.626 291.7098 L335.564 289.8255 L337.2059 290.4986 L339.8975 288.8836 L341.7815 289.7986 L342.5083 292.5711 L342.8851 293.9169 L344.6076 293.6474 L345.8456 292.9211 L346.1148 294.5087 L346.4379 299.1382 L345.8456 301.9374 L345.4151 305.1674 L344.1769 306.4326 L345.2804 308.9895 L345.8996 310.6851 L339.978 311.6003 L334.0028 309.8775 L332.9802 310.766 L331.7959 310.9273 L329.9655 310.6583 L329.2388 313.1074 L331.1767 314.9915 L334.6759 315.9876 L335.1485 316.1267 L337.6096 316.3375 L340.4627 316.6602 L343.3156 317.091 L344.3116 317.4946 L342.4004 323.5239 L342.4596 325.2194 L340.8987 326.673 L340.0588 324.9772 L337.9327 325.0849 L335.3219 324.2774 L333.9223 325.1389 L333.5184 326.673 L328.3238 325.9192 L327.1934 329.3913 L321.9179 329.0414 L313.1974 327.1034 L313.0626 324.2506 L320.303 323.2545 L320.7606 323.2008 L320.5722 318.5715 L316.7502 318.8674 L316.0503 318.2753 L316.2387 315.7182 L314.2738 314.4266 L310.9634 316.3375 L307.7873 315.7454 L307.3026 313.3228 L305.6341 309.7698 L308.3254 307.9129 L308.5678 305.2751 L305.5802 305.5173 L304.019 302.8527 M308.4012 165.3257 L310.4526 163.7765 L311.5567 162.0239 L313.6916 161.7462 L313.807 160.5629 L315.3895 159.7601 L316.2728 159.4571 L317.1117 158.6189 L320.7285 157.3351 L322.2106 157.1751 L323.1742 158.1529 L324.1479 157.6788 L324.7901 158.622 L326.2649 157.7463 L327.1031 157.958 L328.9585 158.663 L328.6971 161.8456 L329.6226 162.9787 L328.075 166.5501 L327.3753 170.9817 L327.5381 174.6204 L327.0642 174.6362 L326.3254 171.254 L325.7813 171.2928 L325.8202 173.5477 L324.5565 173.8004 L322.9266 174.5487 L323.2821 173.1764 L323.0209 172.1093 L325.6511 171.1006 L324.7316 169.0378 L324.3428 165.0338 L323.9479 164.9149 L323.9063 163.8064 L322.9065 163.6449 L321.3933 163.6319 L320.5692 163.1114 L317.9386 162.6308 L317.2329 162.4931 L317.6353 163.1662 L319.0494 163.5306 L318.8999 164.1393 L316.5673 165.2279 L314.4861 165.8332 L313.1818 165.8079 L311.8524 166.985 L308.8696 167.0552 L308.4012 165.3257 M315.5718 402.4672 L316.339 401.6719 L316.9714 401.498 L317.5098 400.5291 L318.2767 400.4337 L318.3038 403.0177 L317.3214 403.9742 L317.0522 403.1131 L316.5407 402.9786 L315.7602 403.2475 L315.5718 402.4672 M334.9998 365.4998 L336.7892 362.1475 L336.6482 357.8755 L338.6723 356.3014 L339.5139 356.5562 L339.9595 358.1069 L341.912 360.2807 L342.6199 360.7071 L344.2709 358.4127 L344.7631 358.8989 L343.4912 360.6727 L344.3627 364.6542 L344.4899 367.1478 L342.2389 367.8087 L341.6069 368.4996 L341.8232 369.7379 L341.0342 369.6663 L340.0982 368.6111 L338.4053 368.0329 L336.2453 367.3953 L334.9998 365.4998 M335.008 315.5564 L335.3414 315.4652 L335.0156 315.2226 L335.2431 315.1241 L335.2506 314.9424 L335.5007 314.9877 L335.728 315.0107 L335.8191 315.3211 L336.1982 315.4273 L336.4862 315.7381 L336.7212 315.814 L336.4332 316.0413 L336.2132 315.9884 L335.6979 316.0263 L335.3111 316.1171 L335.0763 315.8975 L335.008 315.5564 M336.5479 328.2734 L337.6306 326.6301 L340.3197 327.6357 L339.3644 331.3328 L336.647 330.8679 L337.1848 329.3653 L336.5479 328.2734 M338.2826 97.2259 L338.2826 96.0656 L338.8649 94.9954 L338.7189 94.3105 L339.3092 93.9836 L341.5154 96.1899 L340.8937 96.6872 L342.7587 98.5523 L343.7531 99.3811 L343.0053 100.3197 L344.002 101.5364 L341.6097 103.334 L338.7801 99.5127 L339.1115 98.3037 L338.2826 97.2259 M339.0455 278.0508 L339.1163 276.2955 L340.1386 274.9967 L341.5272 275.5434 L342.556 276.5462 L341.3601 278.1148 L339.9198 279.1372 L339.0455 278.0508 M340.899 315.4928 L341.3102 315.3115 L343.9064 315.6741 L345.0306 315.6074 L346.8446 315.74 L347.3172 315.2805 L347.2861 314.8918 L349.1556 313.7305 L350.27 313.5857 L350.7577 314.9781 L351.5948 315.3077 L353.3657 316.4525 L352.8284 317.0036 L351.349 316.5226 L349.3112 316.1206 L347.2455 316.6729 L343.8891 316.5426 L343.1691 316.2432 L341.0854 316.0884 L340.899 315.4928 M343.4533 282.6136 L343.7416 282.1425 L344.2682 282.9628 L344.063 282.9686 L343.5697 282.9295 L343.4533 282.6136 M347.4663 100.1297 L350.4702 97.2052 L352.3133 94.7978 L353.5278 93.5262 L355.4924 93.0761 L355.6532 92.3869 L357.1185 91.1521 L358.5189 90.6951 L359.4333 89.8237 L362.7623 88.166 L363.0556 88.5812 L364.9055 90.0094 L365.6433 90.1169 L366.5199 88.5663 L367.7594 88.0632 L369.6776 89.595 L370.5092 91.0198 L368.363 92.3954 L367.0914 91.0524 L366.0199 91.0524 L365.0483 91.7097 L366.1343 92.4384 L366.12 93.2526 L365.5628 93.6954 L361.4556 96.3065 L360.1761 97.9534 L360.1204 99.7061 L358.5302 100.353 L358.2339 101.7716 L357.4105 105.7155 L359.3548 106.3501 L356.3737 109.6901 L353.6522 106.3198 L350.5013 102.628 L347.4663 100.1297 M349.6937 85.757 L352.5572 82.1818 L351.8246 81.6308 L352.014 79.6894 L354.15 77.2224 L355.1825 78.4534 L356.8109 80.2685 L356.7199 81.4373 L359.6084 82.1192 L353.7298 88.8993 L349.6937 85.757 M350.3136 284.9512 L350.3164 284.4229 L350.3889 284.5046 L350.5086 284.5433 L350.6889 284.5034 L350.7968 284.3417 L350.8949 284.9814 L350.8134 285.257 L350.5279 285.257 L350.3136 284.9512 M352.4952 263.289 L352.8602 261.458 L354.5423 260.7384 L354.9738 261.292 L354.1715 263.8533 L352.4952 263.289 M356.0054 264.9528 L356.0741 264.3275 L356.1296 263.2303 L356.4366 261.0467 L356.6313 259.9514 L356.8165 258.8894 L357.4256 258.128 L357.8799 257.9287 L358.3187 258.0337 L358.7978 258.0628 L359.4039 257.5499 L359.7609 257.6722 L360.4563 257.4214 L361.2127 256.9023 L361.6751 256.923 L362.0689 257.2098 L361.9889 257.5702 L363.2192 258.7242 L363.5122 260.9328 L363.3431 261.6236 L363.4806 263.5635 L363.5047 264.4165 L363.2829 265.3691 L362.7019 266.9298 L362.4568 269.4577 L362.9869 273.5143 L362.8057 277.1545 L361.9784 277.1576 L361.3254 276.6041 L360.5743 276.4703 L360.2065 275.7465 L359.5984 275.8849 L359.0296 275.2585 L357.9649 274.9124 L357.4921 274.3209 L357.2904 273.3759 L357.2143 271.5424 L357.5525 270.781 L357.633 269.7659 L357.0495 269.0452 L357.1413 268.507 L356.7956 268.1048 L356.5287 267.7303 L356.5508 266.3559 L356.2736 265.4914 L356.0054 264.9528 M361.7654 225.1078 L364.3662 225.9226 L365.2374 223.8497 L375.4852 223.7926 L380.746 222.5674 L383.5374 221.4704 L384.0801 220.6912 L379.961 221.8695 L378.4202 218.4683 L382.6067 218.3809 L381.618 213.4967 L383.9729 213.5258 L389.9083 220.7242 L391.8317 221.0528 L391.8824 222.9003 L391.0979 223.2293 L391.0979 223.5076 L392.3126 224.0644 L396.893 223.8366 L396.9184 223.1786 L398.0571 222.4953 L398.7658 223.0774 L399.2464 222.9003 L398.9429 221.9133 L399.778 221.7108 L402.2328 224.6718 L400.1323 225.5576 L398.9176 225.1526 L395.7945 225.6615 L395.3306 226.4794 L393.3169 226.5035 L392.4993 226.1373 L391.5352 224.1725 L388.9058 224.161 L389.1451 224.745 L390.465 224.921 L391.4481 226.5001 L393.8038 228.3923 L390.9253 229.043 L388.2194 229.8437 L387.4952 227.5764 L383.5159 228.5798 L383.5093 227.4295 L383.5623 227.2742 L383.7411 227.1634 L387.1161 226.1389 L386.4827 223.9202 L385.3841 224.1564 L384.2093 225.0453 L383.0899 226.6818 L382.5314 229.2217 L379.8875 233.5618 L377.9209 232.4594 L379.083 230.9993 L377.8316 230.6121 L375.6568 232.6745 L373.9938 233.7428 L372.4387 232.7275 L372.4387 231.2973 L370.5614 229.6884 L370.0549 230.8502 L367.5224 229.6585 L367.5821 228.8839 L363.0233 227.3939 L361.7654 225.1078 M368.4807 118.818 L372.5671 115.6681 L371.0757 110.8453 L369.8675 110.4214 L368.6222 107.736 L371.6968 105.6729 L373.1757 106.6851 L375.0031 105.8901 L378.4691 105.4005 L380.2982 105.6342 L381.0766 106.2957 L383.4509 105.4005 L385.1633 105.1281 L385.9749 106.1303 L386.4729 105.9707 L387.0868 106.3049 L387.8908 107.5461 L383.8425 110.1355 L384.3605 110.6934 L388.238 108.4362 L388.4327 109.2926 L386.6813 109.9932 L386.7135 110.9313 L384.4644 111.132 L384.2336 111.5325 L387.6477 112.6325 L386.6329 115.642 L380.5318 112.9901 L379.7719 113.0419 L379.533 113.1789 L379.9342 117.9306 L371.2317 120.663 L370.8795 119.1395 L368.4807 118.818 M370.8035 388.7686 L376.2943 387.961 L378.0168 388.9839 L377.8555 390.5987 L377.2632 392.4289 L373.7562 393.4062 L370.8035 388.7686 M371.9889 165.17 L372.7623 164.6825 L374.3307 165.6786 L374.5116 163.844 L375.3706 163.1869 L374.3601 161.7723 L377.6947 159.347 L379.9665 160.7865 L380.4402 161.1095 L380.0957 161.5832 L378.7609 161.5403 L378.3301 161.8199 L378.6101 162.5736 L379.9686 164.0964 L381.4339 163.2882 L382.6142 164.5183 L381.5854 164.8543 L380.9612 166.2885 L380.597 167.1031 L380.5518 169.4801 L377.9902 167.8937 L374.2954 167.6394 L374.0372 167.209 L372.2299 167.1227 L371.9889 165.17 M379.6926 157.3949 L382.8726 156.2227 L386.0512 155.3968 L395.1389 151.7869 L396.3321 152.2176 L397.5894 151.6733 L398.4886 152.2315 L399.8112 152.1693 L402.0898 154.001 L402.0743 155.3109 L402.4152 156.7678 L401.3819 156.3646 L399.8939 156.3029 L399.6872 156.9227 L399.6253 157.894 L399.482 159.1295 L398.3335 158.2764 L397.3933 158.6278 L396.5355 159.8679 L394.663 159.3247 L392.7075 162.103 L386.4267 162.5007 L382.5064 160.2568 L379.6926 157.3949 M380.6742 358.7453 L382.5483 358.6855 L385.0381 360.5075 L384.841 361.2106 L386.7972 364.625 L384.3477 365.8807 L382.3094 364.7005 L383.4273 362.5916 L380.6742 358.7453 M392.0949 450.2296 L394.2692 449.3997 L398.6955 450.7183 L399.4915 452.2893 L401.0156 452.4375 L400.6468 453.3563 L399.5402 453.0599 L398.4045 453.282 L395.2787 454.7937 L393.7255 453.2376 L392.0949 450.2296 M415.9469 388.1805 L415.978 386.1481 L417.0407 385.1554 L418.5469 385.447 L418.9802 386.5496 L420.4375 387.2549 L422.2199 388.1177 L422.5603 388.913 L422.4675 390.9221 L420.4919 390.9535 L418.8771 390.6938 L416.8084 389.6065 L415.9469 388.1805 M457.0769 358.2905 L458.0146 357.4501 L460.0351 357.5678 L461.3387 356.2006 L463.0054 355.5749 L465.986 354.6529 L467.8086 354.2199 L469.8091 356.063 L467.8856 357.3337 L466.9296 358.031 L465.9439 358.7219 L463.3562 360.4853 L461.9307 363.2491 L459.7075 361.7976 L458.6787 359.968 L457.0769 358.2905" stroke-dasharray="" fill="none" fill-opacity="1.0" stroke="#ff0000" stroke-opacity="1.0" stroke-width="1.0px" stroke-linecap="butt" stroke-linejoin="miter" stroke-dashoffset="0.0px"/>
</g>
</svg>