<?xml version="1.0" standalone="no"?>
<!DOCTYPE svg PUBLIC "-//W3C//DTD SVG 1.1//EN" "http://www.w3.org/Graphics/SVG/1.1/DTD/svg11.dtd">
<svg width="512px" height="512px" version="1.1" xmlns="http://www.w3.org/2000/svg" xmlns:inkscape="http://www.inkscape.org/namespaces/inkscape">
<g id="layer" inkscape:groupmode="layer" inkscape:label="layer">
<path d="M80.9143 439.5988 L83.5092 442.4511 L88.8885 443.1968 L89.8854 445.7556 L97.3845 448.0839 L103.9148 450.1405 L108.0101 451.2297 L107.967 453.8885 L109.4468 456.4114 L112.3486 455.9766 L114.5249 455.9038 L116.919 455.9766 L119.241 455.2516 L122.7232 454.3809 L125.8428 454.7429 L128.5996 455.469 L130.1233 457.4277 L131.8647 458.4429 L134.0411 460.6202 L134.186 461.5626 L135.2742 463.7398 L136.725 464.1745 L138.031 465.843 L141.0784 470.0507 L144.7784 476.0006 L147.6073 479.4821 L151.2352 482.82 L154.2098 486.3025 L158.5964 489.8774 L162.3763 491.1295 L168.9555 489.7231 L173.0931 486.8873 L178.2334 485.771 L179.5288 485.4895 L181.3134 485.2298 L182.6914 485.0971 L184.5552 485.2645 L187.242 485.77 L187.5758 485.946 L196.9336 486.4112 L204.258 492.6382 L204.8958 493.4457 L205.2189 494.2598 L206.3339 496.1424 L208.0309 496.4141 L211.236 498.602 L213.3402 500.353 L215.7321 501.8616 L215.8806 502.1203 L218.6926 503.2028 L224.9465 506.1602 L223.2474 509.5448 L219.5205 510.6414 L223.5649 511.1957 L231.2294 510.5653 L234.2344 509.8263 L233.7889 512.0 L236.6016 509.4698 L239.3775 505.5331 L240.6495 503.1822 L241.0666 502.0366 L241.6797 500.0443 L244.0907 500.0443 L243.32 494.9142 L239.9559 468.4441 L243.3349 466.143 L247.3573 462.3463 L248.729 461.4582 L253.1057 460.5234 L258.4864 459.806 L259.349 462.98 L258.2318 467.4365 L259.7096 465.0343 L260.4732 462.6104 L257.8995 451.2623 L258.5359 439.9031 L254.0248 438.5226 L253.9188 436.0007 L252.2289 433.6419 L245.9764 435.7561 L238.9695 440.5651 L236.0586 443.4218 L234.088 444.9219 L221.4154 457.3712 L222.8932 459.2082 L224.9019 473.9713 L225.3304 474.7126 L225.6578 475.543 L225.8395 476.2778 L226.1159 477.0365 L225.9342 477.3332 L225.6309 477.5571 L225.2746 477.7267 L224.8468 477.8723 L224.2811 477.893 L223.1619 477.7375 L219.027 475.556 L213.6767 472.6017 L212.6105 471.5148 L211.9854 469.5409 L208.2536 466.8409 L205.8369 466.4093 L199.0294 463.9061 L190.1777 463.6539 L187.6769 467.968 L186.9274 468.2246 L180.0902 468.1083 L180.0018 469.568 L182.6122 471.9148 L182.7635 472.8713 L182.8802 473.1191 L182.8123 473.1811 L182.328 473.6191 L175.8669 476.1441 L172.8443 474.5843 L167.4346 475.2528 L155.124 475.6202 L152.5963 473.6061 L150.251 470.8637 L148.8468 468.2387 L148.762 466.5093 L149.1388 465.9072 L148.9698 464.793 L147.6802 462.2137 L144.1908 463.618 L140.6252 462.6691 L140.208 459.7484 L142.6353 457.7766 L143.9632 455.3114 L141.4977 455.8038 L128.4878 451.2525 L128.526 448.522 L128.7537 446.5871 L131.9772 447.422 L134.2914 447.8763 L135.5428 448.1046 L136.2633 445.7154 L136.7569 442.7946 L137.2879 440.5945 L141.9148 439.8357 L142.6735 441.7706 L140.3975 445.1838 L142.1043 446.0186 L145.5562 446.2839 L146.814 447.8165 L151.086 444.9577 L153.0008 447.0556 L152.9336 449.0307 L153.302 448.8829 L154.1554 448.6753 L154.697 448.9448 L155.1007 449.1927 L155.7448 449.7242 L156.2963 449.9797 L156.8881 450.4764 L157.1717 450.8036 L156.8712 450.9732 L156.9574 450.9645 L157.212 450.9373 L157.8893 450.9558 L158.3305 451.0732 L158.3595 451.1449 L159.0291 451.821 L159.4286 451.7602 L159.727 451.9199 L159.9652 452.183 L160.0169 452.6504 L160.0784 452.8798 L160.6511 453.458 L159.2108 454.8103 L160.9403 455.7766 L161.0499 455.8005 L166.6469 450.871 L165.5156 448.2405 L167.2621 447.8818 L171.2407 447.2306 L171.3029 447.1872 L171.4599 447.1948 L180.7732 445.8556 L185.7735 450.1449 L187.2406 448.2666 L188.5678 445.7654 L178.8952 441.9956 L178.4731 441.7587 L178.4406 441.1728 L178.7538 440.6249 L178.9355 440.1368 L179.1356 439.7466 L179.5896 439.5683 L180.1453 439.6564 L182.1845 440.3575 L183.1142 440.5782 L183.7739 440.6282 L184.8416 440.8564 L185.526 441.4032 L186.1977 441.7184 L190.6529 441.8391 L199.6968 443.9664 L200.5538 442.3424 L204.1534 441.4782 L212.4146 441.3989 L215.8085 435.3703 L214.2452 431.6744 L218.9761 429.2068 L226.5275 422.8802 L232.7283 421.6844 L235.8111 424.9456 L237.3475 423.7748 L237.6508 423.2998 L237.962 422.9487 L238.7729 421.9442 L240.0548 420.8387 L240.7994 420.4093 L241.353 419.918 L242.637 419.1657 L242.6639 418.9581 L238.109 413.2597 L240.011 411.2704 L240.938 410.5725 L241.6698 409.9093 L241.9109 409.8398 L249.1815 404.3674 L250.8869 406.9405 L251.3373 407.3699 L252.6121 409.543 L253.071 410.2355 L253.4344 410.716 L253.4203 410.7627 L254.6265 412.5825 L254.6654 412.5694 L254.8662 412.9445 L256.5915 412.0063 L256.4104 411.5008 L258.6568 410.1235 L261.4928 408.5548 L264.0785 406.9753 L266.5645 405.8176 L268.004 405.1197 L264.8569 402.0193 L266.6281 401.1257 L267.3111 400.6669 L269.3128 399.5168 L270.9178 398.746 L271.5634 398.521 L271.6107 398.6123 L273.0446 397.8883 L274.178 398.6591 L274.3053 398.6504 L275.5328 398.6982 L277.1604 398.8471 L277.8887 399.008 L278.4303 399.1559 L279.0299 399.8484 L279.3212 400.5974 L280.4602 401.8508 L281.7273 403.4553 L281.5088 403.6412 L281.6495 403.7369 L282.9172 407.3525 L283.3691 408.0689 L284.2621 410.1974 L284.7146 411.8835 L284.6368 412.2553 L285.3969 414.4229 L285.0016 419.981 L286.3344 420.4158 L287.2508 421.1877 L288.5737 421.7627 L289.437 423.0509 L290.1801 424.339 L290.0529 426.5305 L290.1221 429.5177 L289.9751 433.7201 L289.746 434.9289 L289.7792 436.1203 L289.8231 436.2312 L290.0034 436.9073 L290.2607 438.3759 L289.9581 442.5076 L289.9715 442.9902 L289.8704 443.7066 L289.8266 444.3023 L289.7623 444.4718 L288.2039 455.4907 L294.2139 455.4907 L295.3169 447.1317 L295.8224 446.648 L295.8189 446.448 L296.0628 445.5621 L296.2134 444.499 L296.649 443.6653 L297.3044 442.7826 L298.3905 441.7576 L299.5147 442.2011 L300.1143 443.587 L300.1744 443.8316 L301.3622 445.7947 L301.5673 439.0335 L304.544 436.7073 L304.247 426.8805 L316.1185 426.6631 L318.6829 437.1888 L320.4584 437.0301 L321.5904 437.3628 L321.7077 437.5443 L322.0577 437.5443 L322.4706 438.8215 L323.1416 440.1879 L324.2319 442.8881 L325.3971 446.5524 L325.6807 447.7633 L325.5103 448.2176 L325.7917 449.0872 L326.1311 448.1829 L326.7808 440.8053 L350.1844 444.5664 L350.4623 444.0305 L349.7785 443.637 L350.2912 442.8468 L352.1861 440.3368 L352.3798 439.9716 L342.7674 435.3703 L342.8621 434.4343 L342.6726 434.4376 L342.148 434.0419 L341.8404 433.4419 L341.6743 432.6712 L341.897 431.9744 L342.2272 431.0624 L342.4329 429.9808 L343.1852 427.1795 L343.6441 426.3924 L343.6823 426.3468 L343.9977 423.2389 L344.8737 420.693 L344.9324 420.2724 L345.0837 419.768 L345.1883 419.7788 L350.6652 403.8673 L355.2257 402.9433 L355.1649 402.5324 L354.9584 402.0802 L354.7675 401.5866 L354.5943 400.7289 L354.5455 399.0743 L354.5448 398.9254 L354.3631 397.8666 L350.7995 397.8666 L349.3621 386.9955 L349.1047 385.8583 L348.9555 384.1689 L348.9244 383.2144 L349.4172 383.1318 L350.6843 383.4025 L352.8606 383.895 L353.113 384.8212 L355.6641 384.8212 L359.2898 380.3053 L359.4553 380.0117 L359.526 380.0117 L362.9962 375.6892 L366.8002 373.3519 L367.6154 372.2865 L369.9607 369.1555 L367.4365 367.8726 L375.1788 357.3705 L367.1184 357.3705 L367.1184 362.4803 L361.8367 366.8615 L362.2326 356.8269 L358.679 354.6917 L358.4053 354.9613 L357.8496 355.5408 L357.4416 356.0474 L357.0937 356.4671 L356.6059 356.7682 L355.99 356.9726 L355.1861 357.1813 L354.3624 357.1661 L353.4856 357.2053 L352.7213 356.978 L352.3748 356.4888 L352.1507 356.0572 L351.9789 355.5527 L351.875 355.0418 L351.7378 354.3764 L351.771 353.6469 L351.9612 353.1403 L352.2356 352.7032 L352.7369 352.5021 L353.4326 352.2923 L354.0548 351.9128 L353.8172 349.7721 L346.6427 346.1148 L343.5557 344.1926 L345.7087 340.6331 L348.3277 337.2638 L353.3838 340.4374 L353.9176 340.0699 L354.2181 340.4482 L353.9191 340.0666 L354.7138 339.6654 L355.9759 339.111 L356.8943 338.6467 L357.6205 338.0031 L357.6976 337.2214 L357.3801 336.9452 L357.139 336.7702 L356.3061 336.6473 L355.3049 336.6092 L354.245 336.5755 L353.2976 336.2679 L352.9483 335.7493 L353.2841 335.3361 L353.7593 335.0686 L354.6897 335.0741 L356.5557 335.2611 L357.209 335.5666 L358.1819 335.9417 L359.1626 336.5212 L359.7162 337.0224 L360.3738 337.1616 L363.5993 335.4503 L363.8306 335.3111 L369.8398 343.4305 L370.2124 343.6164 L370.8269 344.4742 L371.5318 344.696 L372.6914 345.8386 L373.1425 346.1289 L380.5411 342.9586 L389.6635 333.2965 L392.1835 331.1579 L405.6041 318.4805 L405.976 318.1293 L405.6345 317.8554 L404.7026 317.6042 L403.4377 317.7956 L402.0207 318.4903 L401.0252 318.9828 L400.2892 319.3688 L398.8715 319.6254 L397.7332 319.7929 L397.625 318.1826 L396.9144 317.8847 L396.2278 317.4509 L395.1602 316.5669 L394.1187 316.7061 L393.121 316.7942 L391.8646 316.9388 L390.36 317.1562 L390.3671 316.4147 L390.6364 315.5862 L390.7863 314.6207 L391.0508 313.9597 L390.9341 312.593 L391.019 311.4752 L390.9242 310.6435 L391.0487 310.4728 L391.2297 310.2238 L391.8066 310.1129 L392.6537 310.1466 L393.0461 310.1618 L393.3593 310.289 L393.4696 310.7631 L393.0143 315.1394 L393.2865 315.1154 L393.7744 311.2143 L393.9356 309.6106 L394.0692 309.4986 L394.4418 309.1865 L395.1149 309.0202 L395.8022 309.0126 L396.1451 309.3007 L396.4456 309.9955 L396.1444 311.7993 L395.0541 315.8515 L395.3129 315.8972 L396.5481 311.3796 L396.8642 310.1933 L397.118 309.5334 L397.5599 309.4257 L397.9071 309.4823 L398.1814 309.5953 L398.4225 309.6628 L398.7393 309.9291 L398.757 310.7185 L398.7739 311.5155 L398.2394 313.5759 L397.4857 315.5667 L396.5757 316.7855 L396.785 317.3857 L397.2573 317.6379 L397.8979 315.6058 L398.6841 313.3312 L399.6811 310.4021 L399.5552 308.9767 L398.9253 307.2229 L398.716 306.9185 L397.9736 305.4441 L395.6113 300.8633 L395.1178 299.4705 L395.2104 298.5626 L395.6587 297.7667 L396.1444 296.949 L396.9526 296.239 L397.9983 295.5573 L398.723 294.7864 L399.761 292.9075 L401.2508 291.2733 L401.9974 290.6372 L402.5037 290.4947 L403.2051 290.461 L403.6258 289.7728 L403.7304 289.029 L403.5466 288.8746 L402.8423 289.0116 L400.6667 290.1957 L399.271 291.793 L397.3598 294.2003 L396.1041 295.0582 L395.0902 296.3162 L394.1583 297.6253 L393.7835 297.8156 L393.4145 297.6232 L392.1312 295.6105 L391.1993 294.0437 L389.5037 292.2247 L387.2433 289.3911 L385.6786 286.6565 L385.166 285.0516 L385.4375 284.3611 L385.7309 283.849 L386.6197 283.5391 L388.5506 284.4318 L389.5688 284.1621 L391.6023 281.7548 L393.3225 279.5768 L392.409 278.3938 L391.6794 277.9263 L389.5843 276.6541 L388.3244 276.404 L388.009 276.4953 L387.3366 276.691 L386.7399 277.0096 L386.1869 277.6196 L385.8914 277.2869 L385.3569 276.5486 L385.1582 275.8157 L385.062 275.3188 L384.9729 274.326 L384.9652 274.2423 L385.0974 273.0821 L385.1872 272.0904 L385.0507 271.1694 L384.9779 270.3789 L385.6934 269.8342 L386.4881 269.0665 L387.169 268.6 L387.3119 267.4452 L387.6802 266.3742 L387.5572 265.5858 L387.1676 264.7692 L386.7689 263.8471 L386.2661 263.1175 L386.4931 262.2846 L387.1259 261.8985 L387.9136 261.8289 L388.6857 262.1856 L390.0065 262.7608 L391.6185 263.0435 L393.1649 263.1719 L395.1121 263.0522 L396.2865 262.5749 L398.1348 261.9322 L399.4145 261.4451 L400.2114 261.481 L401.1497 261.5114 L402.3764 262.5412 L403.584 263.7895 L404.3689 265.377 L405.6331 268.3456 L406.2496 269.9407 L407.2933 270.965 L407.8907 271.7001 L408.1354 272.3655 L407.9699 272.9299 L407.0253 273.9857 L405.498 275.9766 L404.3215 277.4576 L403.6958 277.5663 L403.3281 277.599 L402.5305 277.5065 L401.3363 277.1705 L400.1287 276.7117 L400.7792 275.6961 L401.8645 274.8012 L402.0709 274.1444 L402.2824 273.5399 L402.1827 273.0169 L401.506 272.5439 L400.6582 271.9273 L400.1704 272.3971 L398.2769 274.3217 L397.8124 275.0546 L397.4963 275.6689 L397.0381 275.869 L396.2844 275.7233 L395.764 275.8222 L395.448 276.4355 L395.4176 277.2902 L395.921 278.2035 L395.9818 278.8896 L396.2759 279.8226 L397.3202 280.2619 L397.4843 280.4239 L398.1312 281.0621 L398.4409 281.5667 L399.7228 282.305 L401.2161 282.4376 L402.8706 283.1955 L403.584 283.5043 L404.301 283.8142 L404.506 284.0545 L405.1862 284.8537 L405.247 285.5398 L404.6036 287.2469 L404.6694 287.9863 L405.2697 288.1994 L407.3753 285.5702 L408.7915 282.9345 L410.265 281.085 L410.1533 280.2369 L409.9016 279.4605 L409.9327 277.9915 L410.7727 276.6214 L411.0138 275.1633 L410.7833 273.7465 L409.6739 272.5667 L409.0765 271.4967 L409.0043 270.678 L409.0057 269.4808 L408.2471 268.6652 L406.6675 267.8845 L405.5808 266.7123 L404.3844 264.8399 L404.1971 263.8765 L404.4297 262.9196 L404.9218 262.5031 L409.3352 261.8942 L404.4184 251.9011 L402.2619 248.4932 L400.8173 244.9221 L396.8875 239.8852 L396.5121 235.8487 L396.2116 236.1412 L395.6459 237.5222 L395.286 238.2671 L395.5462 240.7671 L396.1267 242.4624 L395.6318 244.2838 L394.8972 245.1635 L394.0699 245.6789 L392.9945 246.0693 L391.8653 246.0106 L391.5394 245.9943 L390.6315 245.4147 L390.9744 244.4774 L391.3477 243.7488 L391.4375 243.5737 L392.2627 242.9104 L392.7534 242.0492 L393.2292 240.7801 L394.287 239.3676 L394.4291 238.552 L394.1986 238.7467 L392.7831 240.0972 L391.4637 241.3325 L390.4533 243.0724 L389.0717 244.2066 L387.2284 244.9025 L385.2989 245.8192 L384.8888 246.0541 L384.8732 246.4858 L385.3965 247.0143 L385.6687 247.2894 L385.3957 248.7465 L383.9095 251.863 L382.7719 251.179 L382.2939 250.8583 L382.7471 249.4533 L383.1728 248.2344 L383.4266 247.508 L383.4591 247.1024 L383.5355 246.8273 L382.7973 246.2542 L382.6114 245.9519 L382.0386 246.0552 L381.1322 245.9769 L380.5362 245.817 L379.5746 246.2314 L378.8576 247.757 L377.9455 247.956 L377.5085 247.9951 L375.9643 246.9153 L374.3954 246.3281 L373.4246 246.5326 L372.7692 246.8653 L371.4759 246.8523 L370.2443 246.0987 L369.2996 244.5959 L369.0677 242.8767 L369.3223 241.1944 L369.1377 239.5905 L367.8374 238.813 L367.1056 238.6064 L366.0698 239.124 L365.314 239.0653 L364.9307 239.0348 L363.6001 237.9876 L362.3917 236.3043 L361.4732 234.895 L361.4089 234.6731 L361.2753 234.2153 L361.1487 233.7825 L361.353 232.6646 L361.527 231.9089 L361.843 231.2956 L362.3556 230.9672 L362.3938 230.9432 L363.0768 231.0933 L364.071 231.3597 L365.2793 231.6599 L366.5916 232.1623 L367.6586 232.0154 L369.3965 232.0774 L370.1389 232.06 L370.9909 231.9556 L371.8443 231.8969 L372.6065 231.9654 L373.3016 231.848 L374.2582 231.8219 L377.7277 232.0927 L379.3405 232.283 L380.6479 232.1275 L381.625 231.8839 L382.4014 231.5979 L383.5567 231.4946 L384.6929 231.6011 L385.4516 231.6512 L386.0095 231.7686 L386.8162 231.8154 L387.4929 232.0252 L389.1813 232.5668 L391.3555 233.2258 L393.1062 233.8684 L393.7277 234.0381 L394.2764 234.1131 L394.2926 234.1153 L394.7798 233.7575 L394.866 233.4063 L394.859 233.1899 L394.8392 232.545 L394.6476 231.5489 L394.3131 230.9128 L393.6471 230.4136 L392.3928 229.9928 L391.6857 229.7677 L391.2176 229.5589 L390.7213 229.3675 L390.0227 228.9978 L388.9699 228.4921 L390.1309 226.6707 L390.9143 225.3451 L391.7508 223.5138 L392.6494 221.7978 L393.0991 220.9398 L394.5182 217.6132 L396.3997 214.2518 L396.8918 213.8973 L398.238 214.2888 L399.1056 214.9087 L400.3945 216.4235 L400.9863 217.8046 L401.0853 217.996 L401.5315 218.7779 L401.9196 219.6163 L402.8777 221.2682 L402.7257 221.763 L402.1148 223.3778 L401.8673 224.6262 L401.6403 225.8453 L401.9493 226.0726 L401.9656 226.0117 L401.9932 226.0519 L402.7306 224.8155 L403.2185 221.9511 L403.4822 221.3421 L403.9743 220.9256 L404.8278 219.1998 L404.9642 217.7502 L404.972 216.0462 L405.3842 215.3176 L406.6279 213.8223 L407.0394 212.4923 L406.903 211.5462 L406.4745 211.3037 L406.3741 211.2471 L405.684 211.0351 L405.6331 211.0231 L403.3352 210.4881 L399.831 211.1623 L396.2646 212.1182 L395.4876 211.9605 L395.163 211.7245 L396.4682 210.2369 L397.6589 208.4012 L398.3547 206.8569 L399.5786 204.7548 L400.2998 203.8272 L402.3722 200.4722 L405.6522 195.1641 L406.8224 193.7841 L407.8928 193.3751 L408.6642 193.4165 L409.0503 194.3865 L408.8523 195.9874 L408.4132 198.2091 L408.2386 199.8219 L408.6034 200.9605 L408.6826 201.8588 L408.4415 203.3182 L407.8978 205.5487 L407.7239 206.845 L408.1283 206.9657 L408.392 206.3567 L408.9322 205.8825 L409.2921 205.1583 L409.2744 204.3611 L409.5042 203.9686 L409.8938 203.887 L410.3873 203.7837 L411.3044 203.7391 L411.7385 203.8609 L412.1776 204.0349 L412.3671 204.6102 L412.4668 204.9136 L413.1682 205.0648 L413.7444 205.0136 L414.0082 204.9897 L414.6275 205.2714 L414.8899 205.391 L416.0098 206.0892 L416.1725 206.1283 L416.6448 206.0859 L416.707 205.8804 L416.7268 205.8129 L416.8562 205.4824 L417.5152 205.1572 L418.0221 204.8995 L418.7186 204.9973 L418.8267 205.627 L418.6493 206.0152 L418.5284 207.0375 L418.3459 207.9868 L419.0297 208.0825 L419.205 207.5094 L419.4122 206.2664 L419.4398 204.7733 L419.7431 203.4161 L420.1475 201.4097 L420.4593 200.743 L420.6375 200.1264 L420.6064 199.226 L421.3905 200.0101 L422.3309 200.7898 L423.5103 201.4021 L424.5539 201.9088 L426.803 203.1029 L430.1927 204.7951 L431.0857 194.7465 L430.6459 192.0853 L423.3293 178.8142 L414.2224 156.3036 L414.0541 156.0611 L413.4892 155.4335 L412.9978 155.3009 L412.6598 155.3509 L412.3282 155.4781 L412.1748 155.8457 L412.1755 156.5222 L411.9704 157.6348 L411.3157 158.0122 L410.3697 158.6822 L409.5898 159.4435 L408.4705 160.5539 L407.9409 160.5485 L407.3831 160.2244 L406.9475 159.5098 L406.4632 158.3461 L405.6239 157.1639 L404.6764 155.7457 L404.1299 154.7636 L403.893 153.6673 L404.4438 152.1142 L404.9635 150.3501 L405.5468 148.9721 L405.631 148.7394 L408.4599 142.8499 L403.4737 140.5333 L402.1176 136.4525 L401.074 134.4284 L399.6571 133.331 L398.4268 131.5037 L397.7763 127.8492 L397.0056 126.2613 L395.0994 114.5514 L392.2351 111.358 L392.7138 108.0754 L390.6492 109.237 L390.57 109.3447 L389.8276 110.2322 L389.1241 111.6887 L388.7507 112.7829 L388.5605 113.1886 L388.3442 114.0576 L386.4747 113.9141 L383.7342 112.9047 L383.6988 112.8971 L383.0639 112.6893 L376.3624 110.6858 L377.3579 113.4648 L378.3146 117.1934 L376.9182 125.6282 L374.1592 124.6994 L374.7433 119.3687 L371.6994 116.1481 L371.3748 114.0576 L367.1983 109.8874 L367.9796 105.7314 L361.3863 104.0106 L360.7655 102.899 L360.5109 102.1333 L360.6297 100.8726 L360.5562 100.4441 L357.624 100.4582 L356.8512 104.9417 L347.6227 103.9921 L345.515 112.0063 L341.3561 114.5319 L339.6563 121.1166 L339.5078 121.8019 L337.7614 127.1096 L341.6644 128.839 L340.9502 132.0519 L340.9594 135.181 L339.8529 139.437 L338.9945 140.8487 L337.7544 146.426 L336.9038 150.1978 L335.8425 150.9766 L333.6089 150.1706 L332.6282 153.3214 L332.5921 153.3628 L332.5907 154.2807 L331.6765 157.2281 L331.3548 157.7969 L330.9072 157.935 L330.314 157.5359 L330.2702 157.5413 L329.4563 158.208 L328.4813 158.1079 L327.6576 153.7565 L327.9786 152.112 L327.8322 150.9537 L327.5961 149.6094 L327.0368 147.878 L326.7971 146.7632 L325.9253 145.0556 L325.8949 142.3616 L325.8907 138.8453 L321.4553 141.1358 L318.6327 147.047 L313.4041 151.0483 L308.8273 149.4343 L313.4041 135.4388 L309.3491 131.3384 L303.3052 147.3711 L299.4482 144.2627 L299.3761 144.1398 L299.0706 143.3415 L299.1095 143.0022 L299.4468 141.4284 L300.1475 140.6649 L300.6127 138.2688 L302.0283 133.7465 L309.0677 119.471 L299.241 118.9522 L288.2329 118.3202 L289.939 106.3013 L289.391 107.6686 L289.0 108.666 L288.9597 109.4752 L288.7802 110.39 L288.6211 110.9545 L288.3241 111.5092 L288.0003 111.7006 L287.581 112.1074 L287.7026 112.7209 L287.8596 113.4431 L287.5004 116.5626 L287.1115 118.2604 L287.2416 119.9648 L287.1766 121.1155 L287.4445 124.9952 L287.7662 128.6247 L288.38 129.5819 L289.1238 130.2083 L289.8315 131.0502 L289.7665 131.8507 L289.6477 132.2792 L289.1075 132.798 L288.3015 133.4767 L287.6284 133.6431 L286.8782 133.8639 L287.1992 135.9707 L287.3632 139.0237 L287.2826 142.7444 L287.272 143.2393 L286.478 147.3831 L286.3945 147.6757 L285.2915 151.553 L284.5944 154.8408 L284.0464 157.5783 L282.9752 161.4001 L282.1218 164.9684 L282.3134 167.4905 L282.744 170.9696 L283.7629 176.0714 L284.1489 180.1355 L283.922 183.2448 L283.1131 184.2747 L282.1437 184.6804 L281.7188 184.6651 L280.2361 185.1545 L279.464 185.1643 L278.7096 184.775 L278.3765 184.6032 L278.2231 184.3269 L277.7939 183.5559 L277.2346 183.6276 L276.8288 183.8234 L276.3515 183.8125 L275.5596 183.8299 L274.9388 183.9909 L274.0126 184.2867 L273.3897 183.9158 L272.8523 181.9409 L272.5568 180.9001 L272.018 180.8859 L271.8207 181.6494 L271.8674 182.1769 L271.4707 182.4781 L270.9503 182.5782 L270.4024 182.3606 L270.0976 181.9093 L270.1266 180.5477 L270.2857 179.247 L270.0701 178.6108 L269.9322 178.2508 L269.3404 178.1431 L268.8391 178.4542 L268.5463 179.3318 L268.4898 181.6798 L268.4728 182.874 L268.9204 184.5031 L269.1544 185.5917 L268.1773 186.8272 L267.1322 188.2953 L266.7674 189.1523 L266.4068 190.1659 L265.9755 191.2643 L265.6354 192.504 L264.5932 192.6737 L264.3061 191.87 L264.292 191.0413 L264.4801 189.7385 L264.4009 183.7668 L264.0304 182.7152 L263.5425 181.9844 L262.9896 182.3128 L262.7039 183.0643 L262.9832 184.0333 L262.8022 186.9337 L262.156 189.0327 L261.6851 191.3426 L261.6724 193.2316 L261.3188 193.8874 L260.9073 194.6519 L259.9196 194.8466 L259.0704 194.8161 L258.4022 194.4496 L258.1986 193.9352 L258.1611 193.5143 L258.1279 193.1435 L257.505 191.3828 L256.8771 191.3339 L255.8922 191.7982 L255.0267 192.2648 L254.186 192.5736 L253.3284 192.7237 L252.4969 192.4866 L251.8407 191.8711 L251.7071 191.746 L251.1068 190.9478 L250.6027 189.6678 L251.1019 188.4987 L251.5608 185.1295 L251.7799 183.1024 L251.8422 182.5238 L251.8407 180.7141 L251.7566 179.7614 L251.6534 178.601 L251.7432 177.8952 L252.0479 175.5037 L251.9617 172.1105 L251.9221 170.552 L252.4559 168.6401 L253.4889 167.7493 L254.5601 166.6944 L255.2233 166.0951 L255.3442 165.9864 L256.2273 165.3676 L256.3567 164.7955 L255.8681 164.1288 L254.838 163.262 L254.1281 162.7639 L253.088 162.033 L252.3442 161.4066 L252.231 160.7247 L252.2402 159.6795 L253.1891 157.811 L254.1959 155.4325 L254.4116 154.9539 L255.0904 153.4443 L254.8146 152.2327 L254.6965 151.8314 L254.1387 150.0086 L253.6119 148.2456 L252.8278 144.6108 L252.6008 142.0266 L252.6751 140.6638 L253.117 140.3745 L253.4217 140.8715 L253.7484 141.4197 L254.9532 142.1473 L256.3447 142.0396 L257.6499 141.2315 L258.3817 140.5268 L258.7063 140.6051 L258.6822 140.9259 L258.5663 141.4153 L258.5995 141.7851 L259.0244 141.8004 L259.1248 141.7384 L259.7131 141.2076 L260.0744 139.3119 L260.9109 136.2034 L263.1133 130.5771 L264.608 127.7285 L265.5081 126.531 L265.9423 126.6517 L265.9112 130.4378 L265.3519 133.8378 L264.8428 137.1018 L264.4447 141.424 L263.4449 145.0795 L263.423 145.8789 L263.5079 145.8855 L264.4164 145.9594 L264.5769 145.9725 L264.869 144.4204 L265.7825 140.9857 L266.614 135.429 L266.7292 132.7143 L266.737 132.5392 L266.9116 131.966 L267.4688 130.1355 L267.6321 129.0 L267.7205 128.3876 L267.7516 128.0515 L267.9369 126.0709 L268.0663 122.5306 L268.3074 120.3455 L268.5973 118.5291 L268.7931 116.8149 L268.7535 115.8186 L269.1403 114.3285 L271.1716 112.5827 L272.2541 111.5647 L272.9626 110.8544 L273.2355 110.3508 L273.9956 109.9636 L274.8363 109.8885 L275.1177 110.0767 L275.2464 110.3312 L275.245 110.9175 L275.0011 111.1524 L274.9289 111.532 L275.2676 111.7681 L275.6926 111.7833 L276.1748 111.8464 L276.5085 112.0302 L276.6895 112.2804 L277.6603 112.1346 L277.9325 110.9382 L278.2146 109.1902 L278.262 106.7364 L278.2662 105.7466 L278.5194 105.3126 L279.2349 105.1592 L280.6349 104.8221 L281.4989 104.5893 L281.8475 102.8903 L281.6297 99.6663 L278.3115 98.3524 L275.8241 104.7524 L273.7022 107.8959 L268.2282 112.177 L266.7723 113.2169 L265.9515 115.7424 L266.3552 117.6916 L264.999 119.4645 L263.2533 121.3081 L261.4793 122.3729 L260.5616 124.6483 L259.7393 127.611 L257.8995 132.2618 L257.9448 133.8781 L255.0755 138.9399 L254.4802 139.3249 L252.673 137.6696 L254.9094 122.8884 L256.8729 100.456 L252.4672 100.4223 L253.3157 94.913 L248.0071 92.7789 L238.5439 92.1208 L238.4965 90.4914 L238.488 89.6702 L238.5559 89.2253 L231.5893 95.1262 L228.0137 101.7362 L226.9764 110.9338 L224.6212 114.9822 L224.4176 115.5282 L223.8626 116.4299 L222.2427 116.3526 L221.5074 116.7768 L221.5554 116.32 L221.5222 116.3189 L221.2196 114.6961 L218.9987 114.2088 L217.7727 113.4594 L217.6886 112.5077 L218.0866 111.6038 L218.4889 108.0971 L218.4416 107.8002 L218.4599 106.2589 L218.7152 104.7557 L218.4359 103.6756 L212.6225 103.1622 L209.0561 102.3628 L207.8909 105.1342 L207.1881 109.0162 L207.0325 111.8148 L206.0907 121.1514 L205.8885 124.2828 L205.4911 127.6861 L205.3285 129.5558 L205.32 131.1176 L204.9531 134.7047 L203.9505 138.3645 L203.8437 138.755 L202.6827 141.001 L202.1355 143.5797 L201.3365 144.1094 L201.0678 143.981 L198.3527 142.69 L197.1903 141.5165 L196.3143 139.9971 L195.714 139.1988 L194.8132 138.5875 L193.4966 138.0655 L193.1636 137.4738 L193.1226 137.3998 L193.0441 136.7298 L193.3658 135.7629 L193.8686 134.2511 L194.2362 132.3488 L194.594 131.6005 L194.8443 131.184 L195.3555 130.9784 L196.0569 131.1296 L196.7852 131.1894 L197.4929 131.1981 L198.2205 131.4298 L198.7331 131.0698 L198.8681 130.1224 L199.158 128.7389 L199.3355 128.1211 L199.5038 127.6274 L200.1055 127.2543 L200.3834 126.8029 L200.5509 126.3091 L201.393 125.0627 L202.1206 124.7364 L201.9297 123.9456 L201.4114 123.8086 L200.6422 123.9652 L199.817 124.2643 L197.9907 124.6537 L194.5636 124.8712 L193.6423 124.2067 L192.6934 123.6531 L191.8167 122.7198 L191.2454 121.6528 L190.9661 120.2944 L191.3514 117.027 L191.6512 113.1026 L192.1497 109.1728 L193.0399 107.8698 L193.5341 106.2817 L193.4726 105.2909 L193.8332 104.8264 L194.1966 104.5099 L194.9207 104.3957 L195.8879 104.4762 L196.7335 103.5277 L197.6096 101.5013 L198.113 100.0198 L198.2608 97.5051 L198.2785 95.322 L197.9985 91.5683 L198.1314 89.4809 L198.6977 87.5143 L199.1446 85.8925 L199.3935 85.1735 L199.904 84.8526 L200.9476 84.3675 L201.1816 83.8062 L201.2764 82.8849 L199.0824 81.448 L198.6009 77.7431 L200.7843 75.3424 L201.9354 72.8895 L199.0322 67.3843 L198.1314 62.5796 L206.79 58.7266 L197.4809 59.6774 L194.3812 58.7158 L195.7126 56.7012 L193.0547 57.3212 L189.0167 58.384 L184.6033 59.363 L179.7932 60.0461 L178.2221 60.1081 L175.6067 58.8779 L174.3729 57.8738 L174.129 57.6748 L173.9204 57.5823 L173.2621 57.2908 L173.0062 56.9394 L172.2242 56.4771 L171.672 55.9288 L171.585 55.8418 L171.3333 54.8606 L171.3298 54.5462 L171.3241 54.0948 L171.5249 53.7141 L171.9088 53.5248 L172.6116 53.0897 L175.0948 52.4413 L178.9179 51.3514 L179.6433 51.1806 L180.2068 50.9706 L180.3751 50.4768 L180.2669 49.2617 L180.5406 48.1717 L181.3777 47.4581 L183.5653 46.4638 L185.4836 45.7121 L186.3731 45.9166 L186.7407 46.3061 L187.4237 46.5008 L187.988 46.2343 L188.2524 45.4641 L188.6462 44.7124 L191.7792 44.187 L194.8931 43.4832 L197.5438 42.341 L203.0907 39.8226 L207.7042 38.1332 L211.4445 36.7343 L216.7156 34.6326 L221.46 32.6114 L225.4916 31.5061 L225.8154 31.3919 L229.1365 30.2224 L230.89 29.6938 L232.763 28.7277 L233.9438 28.261 L232.4971 26.9393 L232.5629 25.2553 L234.8085 23.1753 L235.6513 23.7562 L237.8092 22.6901 L239.1639 22.0592 L241.7638 20.9223 L243.9564 20.5677 L246.0429 20.807 L249.605 20.9691 L251.8217 20.8777 L255.0685 21.0681 L258.1236 21.488 L260.529 22.3376 L262.2599 23.0056 L264.84 23.1786 L267.5848 23.679 L270.3635 23.964 L272.7095 24.137 L272.8884 24.15 L273.8832 23.6496 L274.2042 23.0894 L274.1964 23.0404 L274.0861 22.354 L274.0048 21.6164 L274.0112 21.5098 L273.7255 21.2683 L273.005 20.9071 L272.8954 20.8636 L272.5999 20.5176 L272.286 19.9596 L272.1537 19.0664 L273.0206 17.4988 L273.5445 15.6418 L273.4003 15.1218 L273.3861 15.0706 L273.442 14.9923 L273.9009 14.357 L274.8469 12.1029 L276.1387 7.2661 L276.2158 6.4023 L276.2815 5.6593 L276.3777 4.5823 L277.9968 3.6608 L280.0014 3.0701 L281.472 3.3127 L282.8359 3.564 L284.0436 4.2613 L284.7436 5.1686 L285.3757 6.9223 L285.551 7.7056 L285.2237 8.799 L284.4551 9.5953 L284.1567 9.9054 L284.0132 10.0783 L282.8352 11.7265 L281.5993 13.9131 L280.8908 14.8814 L280.555 15.4264 L280.4744 15.5569 L280.5684 16.028 L281.337 16.3315 L282.4683 16.5502 L283.2319 16.8015 L283.8039 17.2834 L284.3929 18.3528 L284.4579 18.4714 L284.7217 20.2587 L284.7994 21.2041 L284.6927 21.8807 L284.6757 22.4617 L284.9083 22.5672 L285.2371 22.7162 L286.5635 23.2069 L293.1109 24.7299 L292.9178 22.5193 L292.1783 20.832 L288.8219 16.5643 L286.4511 12.5065 L286.1096 8.8838 L285.8445 6.8223 L285.9958 3.7827 L285.1049 1.089 L284.5668 0.0 L284.0825 0.1229 L282.428 0.6419 L280.2729 1.3544 L279.003 1.8538 L275.8672 3.3159 L270.3458 5.7017 L269.095 6.4524 L266.4789 7.0877 L264.7275 7.6066 L259.2061 9.839 L255.1469 11.7428 L250.2407 14.2254 L244.5263 17.0723 L242.1795 18.1113 L237.9464 20.2283 L235.215 21.6327 L230.2126 24.595 L229.6682 24.9311 L225.5948 27.443 L219.8422 30.6935 L215.8219 32.5602 L212.9548 33.8874 L209.6458 35.1569 L205.7209 36.446 L195.1391 39.6214 L186.9627 42.218 L185.135 43.0067 L182.2297 44.3154 L177.1891 46.2201 L170.8787 48.683 L166.6073 50.0297 L164.3759 50.4713 L163.1831 50.5486 L160.6624 50.2984 L156.1026 49.2214 L151.6199 47.7975 L148.1956 46.5661 L144.6745 45.3347 L141.3273 43.9694 L138.422 42.8338 L134.0934 41.0639 L129.2833 38.8893 L124.8585 36.3884 L120.2796 33.4447 L117.3934 31.5213 L115.9122 30.3476 L114.7766 29.1933 L113.3915 28.0 L112.391 27.0187 L111.2562 25.0954 L109.852 22.8054 L108.3 20.0912 L107.3066 20.72 L108.1727 21.9819 L109.2057 24.0151 L112.1902 28.6342 L111.9908 28.9518 L111.4506 28.8518 L110.3512 28.8681 L108.9413 28.1479 L107.6382 27.1319 L105.2908 23.9063 L104.2344 22.5552 L104.4868 21.8351 L100.4397 21.4293 L99.0446 22.2811 L100.4206 23.2417 L102.097 24.212 L103.0501 25.1041 L103.8505 27.4898 L104.9903 28.9595 L105.5715 29.6644 L105.72 29.8286 L106.1944 30.3519 L106.1689 30.6228 L106.0968 31.3843 L106.6794 32.3242 L107.5293 32.8453 L108.7865 33.2662 L110.5732 33.6927 L111.6246 33.9744 L113.0055 35.5203 L113.6156 36.2643 L113.9091 36.6222 L114.2428 37.7318 L114.3503 38.9393 L114.4521 41.1063 L114.3927 41.3565 L114.1671 42.3105 L113.9112 42.9523 L112.4872 42.6423 L111.7384 42.5912 L111.223 42.5194 L110.7365 42.3268 L110.4601 42.155 L110.3193 44.0782 L110.0287 44.9974 L109.3677 46.5889 L108.7999 50.4496 L108.5149 52.7535 L108.6139 54.8563 L108.7497 55.3936 L109.5586 55.7929 L110.8751 56.2584 L110.9338 56.2791 L111.0985 57.3636 L111.0278 58.1066 L110.8291 58.8507 L110.6453 59.4718 L110.5131 59.92 L110.2366 61.4374 L110.4996 61.5168 L111.5447 61.8312 L114.428 62.6536 L114.9682 63.4553 L115.1082 64.7932 L115.1521 64.8726 L115.8202 66.0844 L116.5987 67.0264 L117.0399 68.2796 L116.6107 68.8126 L109.6236 66.5446 L108.8112 66.3509 L108.7341 66.6773 L116.1547 69.0519 L117.1431 69.4424 L118.3225 70.1897 L119.8886 71.7017 L121.1719 72.5393 L128.782 75.4229 L130.1756 75.6818 L131.3755 75.6242 L132.1186 75.0661 L132.5152 74.2351 L132.6722 73.5966 L132.815 72.4316 L132.7217 71.7126 L131.4228 71.0925 L127.5736 69.4239 L127.5856 68.4601 L127.6995 67.9782 L127.9491 67.5932 L128.4094 67.3745 L128.8103 67.368 L137.2186 70.417 L137.9044 70.6411 L139.6388 71.321 L140.0242 71.6886 L140.1415 72.1303 L140.3911 72.6187 L140.307 73.0473 L139.5179 74.8072 L138.8476 75.4175 L138.7981 76.2899 L138.7366 77.3624 L138.6228 78.1249 L138.1667 81.1826 L137.5021 84.4404 L137.582 85.3399 L137.8493 85.9556 L138.3421 86.7061 L138.8872 87.659 L138.5669 88.4628 L137.0941 91.2855 L136.4401 92.8464 L137.249 93.5795 L137.9829 93.7883 L139.3214 93.7579 L139.8559 93.9352 L140.2624 94.2136 L140.5884 94.5769 L141.1809 95.1817 L141.5698 96.2303 L141.3718 97.5801 L140.7871 98.6831 L136.3058 100.2624 L136.5737 106.4732 L136.8035 107.2977 L137.2016 108.803 L137.2956 109.5318 L137.3331 110.068 L137.1988 110.7576 L137.0199 111.1666 L136.5405 111.6114 L135.7062 111.8137 L133.9986 111.4363 L131.0163 110.1605 L128.0219 108.8574 L125.2538 107.3325 L120.3475 104.5762 L118.4003 103.5255 L116.5959 102.8881 L115.5742 102.713 L115.2779 102.9523 L115.4632 103.2558 L116.8335 103.7724 L120.2697 105.4877 L124.3452 107.8393 L127.0653 109.2468 L129.2239 110.7043 L131.8315 112.2782 L133.0802 113.3343 L133.6013 113.9064 L132.6425 118.764 L128.5225 117.3022 L122.2552 114.4786 L120.6233 113.6389 L119.8116 113.4202 L119.3626 113.4409 L118.6506 113.5834 L118.3077 114.2425 L118.4929 115.0017 L118.7863 115.9872 L117.0053 122.1651 L118.7439 123.0015 L116.6454 129.1392 L117.677 128.7324 L117.6819 129.3404 L117.602 130.2018 L117.0434 132.4021 L117.1085 134.3501 L116.9275 135.8619 L116.4057 137.1334 L115.4794 138.3645 L117.2096 144.6314 L118.7015 149.9499 L121.6853 148.362 L127.3417 148.6991 L127.6083 148.7252 L127.6981 148.623 L127.8133 148.7459 L142.2337 150.1609 L143.1034 150.0053 L143.1501 150.2511 L144.695 150.4023 L147.7806 149.4115 L150.2022 148.6632 L150.857 150.4067 L160.3534 150.2925 L163.0671 149.8563 L167.4049 149.9161 L169.2779 150.0543 L169.2644 150.1859 L177.0972 150.0913 L187.1197 146.7512 L189.9154 147.4255 L189.1822 152.2273 L187.8353 154.2002 L185.3606 164.5791 L185.2298 165.5285 L185.2128 165.6677 L188.2164 171.0969 L189.931 172.0681 L190.609 172.5281 L191.2291 173.6983 L191.8662 174.7141 L193.0491 175.557 L193.9873 176.3987 L195.2226 177.8691 L195.4326 180.8903 L195.7097 183.7864 L195.7302 184.676 L195.2636 189.4612 L193.2704 197.6632 L186.6403 197.8601 L187.1692 208.5447 L183.3285 209.7584 L183.0867 211.3733 L182.7084 214.8652 L182.6243 214.9663 L182.4779 215.7699 L175.7333 217.1054 L171.4761 220.8354 L178.9497 244.8134 L183.8142 253.6072 L184.003 253.8627 L184.0122 253.965 L184.8324 255.4482 L189.2324 257.3576 L192.347 257.2293 L206.6974 259.5639 L215.6303 263.846 L213.3614 272.7439 L216.8097 273.1843 L233.7564 268.8762 L243.955 268.8936 L241.9738 265.6337 L241.0475 263.6101 L248.6159 262.5597 L281.518 275.5123 L283.1386 273.0778 L283.6582 272.5319 L284.0125 272.5591 L284.4204 272.6308 L284.6969 272.8461 L286.5402 273.2474 L286.9772 273.3159 L292.7432 274.4489 L291.9852 276.666 L291.8905 277.1879 L291.5624 277.9045 L291.4514 278.4145 L290.5824 278.2166 L289.8011 278.0219 L289.0906 277.8393 L288.223 277.662 L287.6467 277.5653 L287.0868 277.4293 L286.2991 277.3935 L286.5147 277.4783 L287.301 277.6555 L287.3272 277.6359 L287.3505 277.6414 L287.4056 277.8295 L287.5407 279.3452 L287.8221 283.0454 L287.3547 284.0991 L288.9916 285.5637 L289.5148 286.0563 L289.9136 286.8065 L289.9821 287.36 L289.7722 287.9678 L289.2595 288.9257 L288.889 289.2726 L288.7052 289.4411 L286.7785 292.739 L286.927 294.1981 L287.6354 295.6769 L288.6826 296.5554 L289.6604 297.4296 L290.6701 298.9584 L290.458 300.6861 L289.9779 300.9057 L289.4978 300.7916 L289.0517 300.7231 L288.8219 300.8905 L288.5433 301.0623 L288.2343 301.0025 L287.7903 301.071 L287.5117 301.0177 L287.3837 301.1167 L287.3816 301.5396 L287.074 301.7136 L286.741 301.93 L286.3012 302.1561 L285.9046 302.3181 L285.5906 302.317 L285.1954 302.2735 L284.7231 302.1289 L284.337 301.7516 L284.0846 300.9981 L283.8251 300.0598 L282.3212 298.9638 L282.1876 298.9203 L281.5788 298.68 L281.25 298.5028 L280.6115 298.2549 L279.9087 297.945 L278.0746 296.8033 L275.6989 295.8367 L274.311 295.2887 L271.1448 294.5972 L270.7509 294.5602 L270.4299 294.4406 L261.5309 292.4976 L260.8734 292.9934 L260.2844 294.1101 L259.7767 294.9527 L258.7409 295.205 L257.4675 294.9777 L253.4217 294.3297 L248.2079 293.7067 L248.0234 293.7121 L247.9583 293.8176 L247.1417 299.203 L247.4506 299.4629 L249.0733 301.8767 L248.8414 303.5598 L248.3677 305.3158 L247.7723 309.9813 L247.5602 310.6652 L247.6027 311.5437 L247.947 311.6253 L247.9788 311.6547 L251.42 314.9654 L250.3411 317.2682 L250.1099 319.0796 L252.54 322.4871 L251.4476 327.3971 L246.4282 334.0369 L237.5667 338.8391 L228.1834 346.9226 L227.9366 349.4927 L228.824 352.0944 L230.3484 357.2661 L230.2911 359.2687 L229.6576 359.634 L227.9373 358.2174 L226.6498 356.8302 L224.3646 353.5936 L221.2252 351.3573 L211.8865 352.6402 L212.1042 349.2992 L218.6021 342.8782 L218.3581 342.4552 L217.5054 341.7866 L216.5558 341.2321 L215.8219 340.7124 L215.7364 340.3471 L216.2907 340.0307 L217.5372 339.76 L218.9499 339.5806 L220.229 339.6796 L220.6539 339.6948 L220.9551 339.5089 L221.0937 339.2838 L221.0563 338.8609 L220.5168 338.7489 L218.8368 338.8989 L216.5976 339.3121 L214.0713 340.0699 L211.1539 340.7918 L209.5949 340.9799 L207.4971 341.1354 L205.3582 341.4854 L202.7096 341.4572 L201.106 341.281 L199.4409 341.2571 L198.9714 341.5583 L200.5842 341.966 L201.1328 342.1823 L201.3711 342.4813 L200.4915 343.3043 L200.3374 343.9567 L200.6464 344.8014 L202.3186 344.4557 L203.1069 343.8556 L203.0978 343.4446 L205.2889 343.2978 L209.1523 342.6096 L209.9124 342.091 L211.9939 341.6931 L212.5765 341.6942 L212.6048 342.0106 L212.165 342.4226 L211.7486 343.0989 L212.0144 343.7131 L212.4627 343.9926 L212.7335 344.6601 L212.4825 346.5986 L212.5709 347.6021 L211.6142 348.7513 L209.6903 350.3342 L207.0346 352.6184 L203.9766 355.7397 L202.6283 357.2444 L202.2267 357.4934 L201.6723 357.8097 L201.0077 358.6675 L200.5304 358.9861 L198.3626 358.6904 L196.3772 358.3881 L194.4109 358.2979 L193.2464 358.2946 L192.5973 357.9391 L192.2643 357.3705 L192.6376 356.8052 L193.2159 356.1681 L193.5617 355.2842 L197.8217 347.4966 L197.5905 347.2042 L193.0653 355.0624 L192.0712 355.7908 L191.3005 357.2433 L189.75 359.459 L188.345 360.3298 L186.4515 362.2563 L184.5057 364.1871 L183.1326 366.0136 L182.649 367.1214 L183.0556 367.5095 L182.3294 369.1381 L181.8196 370.2818 L181.6747 371.0395 L181.0588 371.2537 L178.775 370.5242 L176.6539 369.9447 L174.2294 369.4686 L172.927 369.9078 L171.0823 370.1796 L169.3762 369.5958 L168.6684 368.8478 L166.5494 368.2379 L163.1456 368.0629 L160.6971 367.9096 L158.6155 367.7226 L157.4842 367.5041 L157.4036 367.192 L157.8017 366.3049 L159.1323 364.0045 L161.419 361.1387 L163.9884 357.875 L164.9592 355.0037 L166.7487 350.5843 L166.2347 350.631 L164.6035 354.4177 L163.9813 356.5997 L163.0395 357.3227 L162.2448 358.5121 L160.0678 361.4235 L158.163 364.4165 L156.2638 366.8757 L155.1976 367.9835 L154.2756 368.3314 L153.3048 368.326 L153.1627 368.3249 L152.911 367.8672 L152.8643 366.7528 L152.9576 365.4134 L153.0828 364.4437 L153.1393 364.2545 L153.4094 363.3489 L153.7863 362.0313 L154.5414 359.9993 L155.8862 357.8554 L157.3371 356.1518 L158.4663 354.5601 L159.0659 352.9609 L159.681 350.3494 L160.2608 349.1253 L162.3275 348.1826 L165.5064 349.1546 L165.9773 349.2796 L166.2142 349.1894 L168.8939 347.2911 L171.4358 347.5945 L173.3915 347.5771 L173.779 347.1987 L174.0887 346.828 L174.269 346.4388 L173.8744 345.7223 L171.638 345.5744 L169.7304 345.2537 L167.2317 344.996 L165.1692 346.7899 L162.1691 345.5168 L160.7112 344.8623 L158.4826 344.2263 L157.3428 345.0645 L154.9254 344.397 L153.9461 341.0886 L156.442 340.4243 L156.9094 341.0592 L157.0819 341.8986 L157.13 343.3272 L157.3739 343.8643 L157.8186 343.6968 L158.1948 343.5261 L158.0597 342.8803 L157.7642 341.9845 L157.3831 340.9973 L156.8174 339.8013 L156.5396 339.1001 L156.5431 338.5891 L158.6105 337.8454 L159.4993 337.7171 L159.8825 338.8315 L160.5175 340.2569 L160.7133 343.7816 L161.0414 343.9491 L161.4133 344.0632 L161.1326 341.9975 L161.1001 340.2047 L160.685 338.6119 L160.2184 337.653 L159.2624 336.6973 L157.487 336.8756 L155.9287 336.8484 L155.0774 337.4051 L153.9581 337.5834 L152.7193 337.5182 L150.8357 337.4703 L151.5096 335.6916 L153.5749 332.8279 L154.3632 332.2277 L155.9711 332.3691 L156.9687 332.3582 L159.3529 333.7553 L160.3365 333.3628 L162.3106 334.4326 L162.9285 334.6729 L165.7737 336.1852 L165.6189 335.7569 L162.7411 333.8847 L163.0317 332.8572 L161.1906 331.5199 L160.1109 330.8208 L160.9629 330.7154 L162.1698 330.7556 L163.2828 330.6164 L163.888 331.9168 L164.2861 332.9812 L165.5878 333.316 L166.7735 333.4454 L168.7235 330.7099 L166.2071 329.4922 L166.5175 329.0008 L166.7141 328.2375 L168.1452 325.875 L169.5748 324.0962 L170.5414 323.0677 L171.5298 322.8731 L172.3218 322.8557 L172.9185 323.0155 L173.1228 323.5298 L171.5928 325.3694 L169.9906 327.5885 L169.9849 328.1223 L170.161 328.3191 L170.791 328.2625 L172.0389 326.7132 L172.6951 325.2715 L173.9056 323.4069 L174.5073 323.034 L175.8818 323.0177 L177.8092 323.271 L179.7416 323.5776 L180.1842 324.318 L182.9721 324.629 L185.5699 324.6812 L186.6792 324.2365 L188.2418 323.9397 L189.3003 324.5376 L190.4203 325.2357 L191.1273 326.2077 L193.0385 325.2422 L197.2455 322.8176 L197.8705 322.7078 L198.1045 322.9535 L198.4135 323.458 L198.7465 324.2267 L198.6977 324.8693 L198.3817 325.4825 L198.3421 326.2316 L198.3852 327.0416 L199.0937 328.1854 L199.7258 329.5727 L200.9886 330.4109 L202.1701 331.7961 L202.5328 331.7102 L202.7626 331.3166 L203.6599 331.2905 L204.7247 331.3547 L205.0195 331.7015 L205.3335 332.2582 L206.3438 333.4987 L206.2328 334.0401 L205.8553 334.5533 L205.8729 335.3492 L205.6092 335.958 L204.9403 336.1776 L203.7094 336.0211 L202.8842 335.6688 L202.2691 335.2981 L201.7975 334.7555 L201.4687 334.6251 L201.1767 334.9175 L201.3139 335.8623 L201.5797 336.4777 L202.5144 336.8724 L204.8244 337.2518 L206.6281 337.304 L208.2748 337.6823 L210.4653 337.7715 L212.2428 335.5557 L212.3432 333.9042 L211.342 331.7026 L209.2399 331.0513 L208.1886 330.2011 L206.988 329.2498 L205.6361 327.3482 L205.9868 323.745 L206.6875 322.8437 L210.2906 321.3422 L211.3922 319.6406 L211.3159 317.1334 L209.5362 316.7029 L206.9547 316.069 L204.9304 316.6202 L202.2295 315.2394 L197.2285 314.4359 L197.4286 310.8327 L191.1224 310.3314 L190.1714 312.1331 L190.1714 314.2859 L188.8202 315.3362 L182.8145 313.8847 L181.6634 309.9813 L181.6634 305.8279 L180.1347 305.8594 L179.2113 312.8844 L177.409 314.636 L173.5054 315.6373 L169.5515 313.6846 L170.2091 309.4986 L165.3976 311.2328 L160.6433 313.9347 L158.9344 315.2611 L158.9223 316.6659 L154.9232 317.6162 L155.5384 320.692 L154.8377 324.4452 L153.0856 325.3966 L151.687 323.284 L147.2863 330.0532 L147.2679 332.7148 L147.432 334.562 L144.7317 342.889 L144.2757 343.6109 L143.4449 343.7349 L142.0958 344.6492 L144.0784 345.7386 L146.9802 345.2657 L149.6734 345.5103 L150.712 345.8821 L151.0366 346.7856 L151.675 347.7989 L151.1914 349.0785 L150.6866 351.4399 L153.8867 353.0881 L155.8368 347.6032 L156.6873 347.0476 L159.4873 347.6119 L159.804 348.8589 L159.3148 350.9539 L158.4988 353.1174 L157.7062 354.4449 L156.8698 355.6615 L155.9704 356.8606 L154.8264 358.2935 L153.6965 360.4722 L151.8567 362.9651 L146.9172 362.8869 L142.7492 362.2541 L143.5128 364.4372 L145.3525 368.9543 L144.8562 369.0968 L133.783 365.0895 L132.6043 366.2462 L129.366 368.6543 L125.0127 371.6331 L124.7256 373.4062 L120.8863 373.4062 L122.7883 368.1314 L116.4955 373.8085 L112.2249 375.1892 L110.3582 379.2551 L115.6053 381.8109 L116.1752 381.7979 L117.141 382.0936 L117.8559 382.7567 L118.4604 383.2014 L118.6379 383.2883 L124.8918 385.9986 L124.4103 390.2938 L128.3068 391.2341 L127.0723 398.8656 L124.9851 400.9887 L120.088 425.0097 L113.9925 424.3151 L116.545 415.6078 L115.2298 414.1294 L114.9159 415.4599 L114.9265 415.973 L114.7872 416.9373 L114.6182 417.9047 L114.2732 419.0831 L114.0081 419.6277 L113.9084 419.7353 L113.3597 422.0638 L113.4721 422.403 L113.3201 423.4476 L112.7969 425.9283 L112.548 426.3131 L112.2482 426.4674 L112.1153 426.7349 L112.0325 427.1251 L112.2298 427.4708 L112.3776 428.1437 L111.7052 430.0492 L111.2809 429.9003 L111.1827 429.8971 L110.938 430.7286 L109.5685 430.5493 L107.605 431.2276 L106.7735 435.5931 L97.212 434.1376 L92.9753 432.4038 L92.2315 432.5657 L91.5315 433.393 L91.0097 434.892 L90.4285 435.7301 L89.2145 436.1616 L87.3309 436.3301 L86.6181 436.341 L86.1578 436.3475 L85.5158 436.6105 L85.1185 437.0877 L84.9636 437.6606 L84.6504 439.0922 L84.1229 439.4335 L82.6848 439.5075 L80.9143 439.5988 M117.4019 137.7609 L117.7908 134.9766 L118.0821 133.3625 L118.1373 132.5892 L118.2667 131.2688 L118.1769 130.266 L118.5848 129.584 L119.1003 128.9978 L119.6157 128.8444 L120.245 128.7683 L120.8128 128.8749 L121.4314 128.8977 L122.183 128.9782 L122.7197 128.9597 L123.1665 128.9195 L123.4904 128.8336 L123.5872 128.6193 L124.9575 127.9993 L125.999 128.3419 L126.5378 129.0391 L127.0999 131.097 L127.1169 133.2701 L127.4874 133.3636 L127.9024 133.406 L128.2496 133.3451 L128.5225 133.1885 L128.2439 131.7724 L128.0657 129.7657 L128.164 129.1827 L128.239 128.7389 L128.526 128.3941 L129.371 128.3724 L131.2036 128.74 L132.0967 129.112 L132.8553 129.4285 L135.7118 129.9484 L136.5695 129.2436 L140.3529 129.8385 L142.8439 130.4672 L142.957 131.1492 L142.9224 131.9508 L143.1225 132.4119 L143.4506 133.1276 L142.4621 136.3024 L142.6092 136.7679 L142.9478 137.0039 L143.2922 137.042 L143.7496 137.092 L148.0358 137.6674 L148.3837 138.0089 L148.3879 138.06 L148.4678 138.9584 L147.8329 141.9428 L147.3259 142.7857 L145.8545 143.5025 L143.768 143.8484 L141.4043 144.0594 L139.8 143.9745 L139.5427 143.9604 L139.3298 143.4351 L139.2719 143.2926 L139.0491 142.5671 L138.2282 142.268 L137.5268 142.1179 L136.5292 142.2071 L135.8801 142.0527 L135.2112 141.3925 L135.0536 140.6116 L135.6015 139.8361 L135.6864 139.4185 L135.9529 138.1079 L135.9254 137.4216 L135.726 136.6145 L135.5605 136.0696 L135.4262 135.8782 L135.1907 135.5432 L134.2942 135.2333 L132.5237 134.622 L131.8244 134.4589 L131.3889 134.5176 L130.8289 134.4991 L130.1593 134.4512 L129.6326 134.4784 L129.2204 134.4665 L128.8251 134.423 L128.1881 134.0869 L127.6995 133.9836 L127.3997 134.3631 L126.3129 139.0171 L126.2408 139.3858 L125.9545 139.5783 L124.6224 139.0617 L123.5017 138.4233 L122.7041 138.259 L122.0593 138.2775 L121.5665 138.5038 L120.9018 138.4396 L120.4345 138.2852 L119.0091 138.1079 L118.285 138.0306 L117.66 138.0219 L117.4422 137.9926 L117.4019 137.7609 M120.8092 43.2188 L120.9139 42.8566 L121.1649 42.7065 L121.7355 42.7337 L123.098 42.8153 L123.9747 42.9719 L124.3905 43.332 L124.6542 43.7301 L124.9356 43.5963 L124.9639 43.2504 L125.3153 43.3472 L125.6299 43.4756 L125.6936 43.6366 L125.69 44.0206 L125.3245 44.7799 L125.2326 45.1704 L125.3429 45.2922 L125.5041 45.4706 L125.8859 45.6915 L126.7994 45.9438 L127.7433 46.3213 L129.0994 46.9272 L130.0412 47.4798 L130.358 48.2935 L130.3502 49.4216 L130.0469 51.0848 L129.7132 51.9584 L129.2783 52.5773 L129.3087 53.8022 L129.3618 56.1246 L129.5074 56.7208 L129.5774 57.0068 L129.3731 57.3245 L128.9312 57.5964 L128.2482 57.5105 L127.65 56.4521 L127.3608 54.8008 L127.2618 53.874 L127.0483 52.933 L126.9882 52.2608 L126.781 50.1482 L126.1729 49.476 L125.6504 49.5423 L125.3513 49.7066 L125.0749 49.7904 L124.592 49.7555 L124.2512 49.8839 L123.998 50.4561 L123.8022 51.2295 L123.8001 51.8909 L124.201 53.7902 L124.2646 56.81 L124.2837 57.9946 L124.3926 58.8235 L124.2448 59.9428 L124.1727 60.5607 L123.5894 60.2691 L122.4552 59.7013 L122.0346 58.7517 L121.9836 57.5344 L122.036 54.4832 L121.8606 51.7593 L121.6768 48.906 L121.8019 46.9305 L121.4357 45.4217 L121.3395 45.2759 L121.0624 44.856 L120.9499 44.5819 L120.9619 44.1674 L120.8891 43.791 L120.8092 43.2188 M121.4166 443.6751 L121.4307 440.1314 L123.262 432.6896 L135.1971 437.7726 L133.0547 441.1749 L134.0587 444.1751 L132.0295 446.773 L121.4166 443.6751 M127.0327 423.8118 L127.1975 422.9139 L127.4662 421.5257 L128.1605 420.0897 L128.9686 417.9569 L129.349 417.1666 L129.5852 416.41 L129.6121 415.7208 L129.3469 414.9392 L129.1348 414.0946 L129.0337 413.1814 L131.4893 402.265 L131.6908 401.5605 L132.2946 401.2018 L132.8624 401.092 L133.6628 400.9615 L134.3472 400.842 L134.8747 400.6082 L135.4078 400.5506 L135.6885 400.0745 L135.8363 399.4842 L135.8136 397.6296 L135.2579 392.5854 L135.6128 389.423 L136.2563 387.4086 L136.0915 387.2118 L135.6029 386.7748 L135.0295 386.4921 L133.981 386.0366 L133.1184 385.7996 L132.2197 385.5952 L131.7566 385.3419 L131.0092 385.3006 L130.293 385.5017 L129.5124 385.5224 L128.5197 385.4735 L127.6274 385.5637 L127.037 385.0865 L128.275 383.9352 L130.1254 382.1806 L132.2727 380.1335 L132.9048 379.9791 L133.5779 379.7323 L134.0149 379.3692 L134.49 378.767 L134.7524 378.194 L135.1101 377.4852 L135.5655 376.7677 L136.421 375.4936 L136.9301 375.0554 L138.8179 375.486 L140.3508 376.772 L142.5498 377.0656 L143.7581 377.0069 L144.7296 377.146 L146.4591 377.3352 L148.4254 377.5515 L149.2314 378.2549 L148.7407 379.0061 L147.9934 379.7399 L147.8746 380.938 L147.3288 382.2817 L146.2972 383.5623 L145.9387 384.7027 L145.5505 385.5126 L145.4657 385.8735 L145.3009 386.0062 L145.8164 386.4117 L146.5531 386.1105 L146.8741 385.8659 L147.0198 385.4115 L147.468 384.9875 L147.917 384.4972 L148.4098 384.4233 L148.7924 384.5462 L149.0547 384.9647 L149.4174 385.305 L149.8544 385.2658 L150.2383 385.1821 L150.6958 385.3767 L150.9722 385.8431 L151.3363 385.9779 L151.7429 386.1475 L152.2286 386.104 L152.6062 385.9518 L152.9449 385.6474 L152.9689 385.6257 L153.6505 385.4767 L154.5428 385.4952 L155.2216 385.4246 L155.8184 385.4202 L156.0574 385.6474 L156.2242 385.8061 L156.3126 386.141 L156.3755 386.852 L156.6067 387.8032 L157.2325 388.3522 L157.4594 389.7165 L157.8151 390.7178 L159.2469 391.4483 L160.0084 391.8375 L160.1024 392.231 L159.8995 392.7474 L159.8818 392.8376 L159.1847 396.4446 L158.5992 396.5914 L157.3159 395.8533 L156.3239 395.4097 L155.1587 395.4075 L154.4842 395.7456 L153.5388 395.8989 L152.5532 396.1533 L152.2159 394.9966 L151.8574 394.2628 L151.4587 393.965 L150.9913 393.4377 L150.6965 393.317 L150.4688 393.3953 L150.1966 393.5279 L149.9597 393.7258 L149.8833 394.0758 L149.9908 394.3531 L150.1591 394.7585 L150.1322 395.3391 L149.8176 395.7598 L149.1685 395.838 L148.5711 395.8326 L147.7735 395.7761 L147.1569 395.8087 L147.0424 395.813 L146.522 395.912 L145.9154 396.2327 L145.4367 396.8077 L145.0287 396.9338 L144.649 396.8784 L144.3443 396.4262 L143.4569 395.9728 L143.0758 395.6554 L142.6664 395.0151 L142.4324 394.5737 L142.3023 394.2237 L142.303 393.791 L142.4154 392.8496 L142.9429 391.9712 L143.1557 390.1948 L143.2441 388.2163 L142.8064 387.3183 L143.2017 387.1074 L142.257 386.6606 L141.5592 386.4095 L141.0706 386.5215 L140.8472 386.8748 L140.7376 387.0716 L140.2221 387.1259 L140.7051 387.477 L141.1095 387.951 L141.5069 388.1315 L141.8668 388.325 L142.0633 388.6261 L141.8342 391.4874 L141.8236 392.2441 L142.0697 393.1453 L141.2332 397.1676 L140.9334 399.0406 L140.973 399.6418 L141.3216 400.9159 L141.6094 401.8421 L142.0534 402.44 L142.6579 402.8444 L143.3212 402.278 L145.4183 402.7476 L146.7638 402.9129 L148.9727 403.8728 L148.8977 404.1891 L148.6736 405.3251 L149.0497 405.9839 L150.0785 406.8557 L151.2515 407.8309 L151.3957 409.1234 L151.4346 412.8684 L150.8315 414.125 L150.3705 414.8773 L149.9951 414.9501 L149.6536 415.4023 L149.3721 416.9677 L149.4068 417.7993 L142.8694 420.4343 L139.3553 421.2355 L139.351 421.2583 L130.6663 424.2825 L128.7205 424.9391 L127.3353 425.4358 L127.1225 425.3739 L127.0716 425.2413 L127.1204 424.9032 L127.2463 424.5586 L127.0327 423.8118 M147.0671 443.8338 L147.6059 435.3703 L160.3308 437.6019 L159.2914 441.1358 L152.848 444.0457 L147.0671 443.8338 M150.473 417.2427 L150.7806 415.9382 L151.4184 414.1794 L152.346 413.101 L153.2836 411.9378 L154.9148 409.8485 L155.8431 408.7353 L156.4073 407.7743 L156.7135 407.0547 L157.5464 406.7579 L158.0916 405.2827 L158.4811 403.1194 L158.636 401.8812 L159.9356 401.4812 L163.5635 400.3517 L164.2592 402.0171 L165.7101 404.8022 L165.7822 405.3947 L165.9512 406.0861 L165.9073 406.872 L165.5446 407.5645 L164.9648 408.1809 L163.6228 408.1885 L163.6547 410.1974 L164.6672 410.3616 L164.6778 411.5052 L164.9217 411.8998 L164.7923 412.2053 L164.4946 412.4259 L163.6023 412.5053 L162.8189 412.6292 L161.4783 413.2369 L160.4496 413.9576 L159.3466 414.0565 L158.7788 414.2131 L158.3899 415.3773 L157.8674 415.66 L157.3633 415.8578 L157.1872 415.9361 L156.244 416.2263 L153.0304 416.9557 L150.8393 417.5145 L150.473 417.2427 M152.3453 406.6101 L152.6493 403.4238 L153.6732 401.1474 L153.5211 396.824 L157.125 396.1794 L159.8938 400.6169 L158.2627 401.5649 L156.7835 404.9403 L155.3418 407.2547 L152.3453 406.6101 M154.726 81.1086 L154.9586 80.4201 L155.0618 79.9295 L155.3482 79.403 L155.7816 78.8831 L156.5933 78.5361 L158.1022 78.6568 L159.5 78.6296 L160.5054 78.4915 L161.513 78.163 L161.6664 78.1129 L162.1147 77.5669 L162.1706 77.4984 L162.5651 76.6477 L162.6174 75.474 L162.7815 74.0164 L162.9257 72.6578 L163.9523 72.7536 L168.7023 74.5288 L171.7674 75.6024 L172.8443 76.0136 L172.7502 75.6796 L170.5004 74.6038 L168.4796 73.5661 L166.28 72.722 L165.0476 71.9682 L164.3023 71.6234 L163.5521 71.2024 L163.1512 70.9718 L162.9497 70.6237 L162.5502 69.8111 L162.0638 68.0315 L161.4423 66.761 L161.0315 65.7135 L160.9106 65.4046 L160.9226 64.6573 L161.0074 63.8545 L161.2521 62.634 L161.5731 61.2297 L162.0482 60.5813 L162.8903 60.4856 L163.7833 60.9762 L164.8164 61.9552 L166.5713 63.1017 L169.3366 64.8716 L171.5998 65.5569 L173.376 66.0714 L174.1219 66.3096 L174.4769 66.9492 L175.162 69.3782 L175.3883 71.3275 L175.3769 72.3935 L174.45 73.3181 L174.042 74.0132 L173.9409 75.3805 L173.634 75.8635 L173.4778 76.5248 L173.569 77.3635 L173.8087 78.1673 L173.7182 79.5074 L173.4156 81.0803 L172.5777 81.9005 L172.1605 82.5694 L171.6776 82.6717 L170.8327 83.209 L169.3627 83.3504 L167.3568 83.4135 L165.1437 83.1634 L164.2649 83.0067 L161.5137 82.6728 L159.2603 82.5499 L157.3442 82.5836 L156.3041 82.3236 L155.4252 81.8124 L154.726 81.1086 M155.3475 89.3602 L155.677 88.1778 L156.4611 86.8301 L157.2742 86.0926 L157.8109 85.7076 L158.7512 85.8207 L160.2056 86.1035 L161.6721 86.296 L163.0706 86.7214 L164.0457 87.3011 L164.8164 87.6655 L165.4782 88.3649 L166.0558 88.9806 L166.7897 89.1285 L167.395 89.1753 L169.0007 89.6582 L169.9489 89.5495 L170.8518 89.457 L171.042 89.7115 L169.7353 93.078 L167.8567 96.7317 L165.9278 100.9727 L165.3014 100.7105 L164.2818 100.3603 L163.0897 99.6217 L162.8274 98.9778 L162.493 98.1925 L162.1479 97.1722 L161.2047 96.029 L159.541 94.1364 L157.9063 92.4189 L156.8584 91.1887 L155.5264 90.0542 L155.3475 89.3602 M156.454 323.4819 L156.5558 322.8937 L157.1165 321.7934 L158.5278 320.0484 L159.3056 319.2971 L160.0734 319.3808 L161.0188 319.5515 L162.773 319.7972 L163.859 319.9059 L165.0681 319.9646 L166.2397 319.9288 L167.2416 320.3006 L168.8699 321.0095 L169.4737 321.5249 L169.3175 322.0783 L168.1742 323.7516 L166.782 325.1606 L165.8331 326.8165 L164.8906 327.8918 L165.2689 328.6235 L164.6389 329.3009 L163.9806 329.041 L162.8571 327.7048 L161.8368 326.9448 L160.8215 326.237 L159.5912 325.4955 L158.7866 325.1682 L157.8837 324.8073 L157.0578 324.4398 L156.5389 324.1027 L156.454 323.4819 M161.9563 437.1671 L162.2024 435.9399 L162.6259 433.3777 L163.8972 429.684 L164.0443 429.2296 L165.049 426.1174 L165.6641 424.0488 L166.3903 424.4847 L167.2868 425.0228 L170.3165 426.937 L172.1775 428.2089 L173.6439 429.2459 L173.9911 430.4025 L172.7729 431.7765 L171.2767 432.9788 L169.2772 434.9159 L167.3709 437.1758 L166.357 439.0118 L165.9462 439.1553 L165.1034 438.752 L162.1797 437.5606 L161.9563 437.1671 M162.1253 108.1232 L162.3176 107.3074 L162.6719 106.5297 L165.978 101.0227 L167.9069 96.7817 L169.7855 93.1281 L171.0922 89.7616 L171.6698 88.3486 L172.5268 86.6746 L173.359 85.3225 L173.7981 84.523 L174.2428 84.2826 L175.99 84.1891 L177.7039 84.052 L179.9516 83.7344 L180.5915 83.4777 L180.9804 82.8838 L181.8967 80.457 L182.6165 79.5292 L183.3674 78.9734 L184.3983 78.9625 L185.8173 79.3736 L186.9125 79.4683 L188.4193 79.564 L191.5515 80.7671 L192.8433 78.5502 L193.7293 78.7449 L193.9463 78.9233 L195.3626 80.0894 L196.3192 81.8602 L196.356 82.1594 L196.549 83.7235 L196.4684 84.5785 L196.4316 84.9712 L195.9233 86.4005 L195.3435 87.6242 L194.734 89.7017 L194.4116 91.4345 L193.7173 93.7492 L193.6006 93.995 L193.1375 94.9718 L192.3632 95.7865 L191.7707 96.2651 L191.1393 96.9079 L190.5723 97.0961 L189.8716 98.0848 L189.1016 99.1714 L188.2736 100.5409 L187.6613 101.696 L186.8829 103.8464 L185.427 105.3159 L183.3525 106.9735 L181.522 108.4147 L179.7444 109.8516 L177.7534 111.3091 L175.0114 113.5073 L174.0661 113.8869 L173.3102 114.0816 L172.6187 114.124 L171.9633 114.025 L170.9062 113.6976 L169.0467 112.7143 L166.526 111.1905 L164.3129 110.1104 L162.4965 108.7291 L162.1253 108.1232 M166.1322 423.7737 L166.7933 423.6694 L167.5703 423.5466 L168.7306 423.6107 L169.794 424.0162 L170.1652 424.0118 L170.6036 424.1009 L171.3672 424.1009 L171.9916 423.8585 L171.742 423.3607 L171.9166 423.0117 L172.2475 422.7758 L172.5558 422.503 L173.0069 422.4041 L173.6114 422.5954 L174.1714 422.7324 L174.8042 423.0291 L175.8662 423.3063 L176.2098 423.4052 L178.2462 423.9879 L179.0883 424.8738 L179.183 425.2847 L179.3584 426.0468 L179.1335 426.9305 L179.0055 427.3697 L178.7432 428.2708 L178.3876 428.5578 L178.0977 428.7111 L177.8877 428.7296 L177.8064 428.7372 L177.3977 428.5426 L176.9685 428.5567 L176.5464 428.3198 L176.1964 428.0176 L175.4597 427.6512 L175.0913 428.0273 L174.6748 428.9579 L174.3185 429.3524 L173.7769 428.9785 L166.5303 424.2879 L166.5041 424.2542 L166.1322 423.7737 M183.1411 78.2348 L183.3151 77.2079 L183.9627 74.7126 L184.6266 71.4765 L184.9293 69.7024 L185.6031 69.4032 L186.6022 69.5131 L188.1386 69.5359 L189.3257 69.7894 L190.2484 69.9721 L190.6727 70.0559 L190.8332 70.1016 L191.5084 70.2941 L192.0055 69.5642 L192.9847 68.5482 L193.4111 68.1066 L194.4427 67.2233 L194.6534 67.7455 L195.5096 69.8677 L196.1255 72.3957 L195.7797 73.4247 L194.6739 75.1825 L193.4952 76.9262 L192.9975 76.7652 L192.3038 76.5118 L191.169 76.2083 L190.7059 76.3725 L190.0554 76.8196 L188.8159 77.8889 L187.7186 78.5187 L186.6191 78.659 L185.3365 78.5187 L183.7902 78.3903 L183.1411 78.2348 M184.6097 395.6445 L186.0316 390.0916 L190.9824 388.3163 L191.9079 387.9065 L191.9503 387.2585 L192.0649 385.4985 L192.5195 384.6603 L193.6692 384.8484 L194.7679 384.6429 L194.8719 384.6233 L196.2966 383.1003 L196.5271 382.1219 L196.9817 380.9608 L197.0546 380.7923 L201.8173 384.8625 L203.7108 386.615 L206.1466 388.3272 L204.2488 392.8159 L203.1784 393.8693 L201.3839 393.9226 L200.8769 394.7662 L200.0419 397.2872 L199.9867 397.497 L199.3695 399.8473 L198.7727 400.2734 L196.4875 400.1582 L194.688 400.1593 L192.7373 399.6418 L192.0804 398.796 L191.5961 397.5089 L190.9477 396.7501 L184.6097 395.6445 M187.0228 253.2603 L187.1834 252.5927 L188.1251 251.8706 L189.0556 251.6281 L190.2414 251.5792 L191.2807 251.378 L191.8853 251.2454 L191.7827 250.7463 L191.6307 250.2276 L191.3656 249.0271 L191.2532 247.7602 L191.2447 247.0697 L191.5664 246.5424 L191.9369 245.6452 L192.441 245.0406 L192.9819 244.8438 L193.3701 244.7025 L194.1415 244.523 L194.775 245.1059 L195.6037 246.0954 L196.9817 246.7174 L199.0421 247.8636 L200.5813 249.1097 L201.5019 249.3468 L202.2366 249.2815 L202.5286 248.989 L202.9436 248.8988 L203.2773 249.0814 L203.6443 249.6338 L203.9243 250.407 L203.7893 251.2704 L204.0601 251.9381 L204.818 252.7221 L205.5965 252.9765 L208.2402 254.3118 L210.5812 255.0817 L212.421 256.1419 L214.9049 257.3043 L216.9794 258.0242 L219.179 258.3602 L219.727 258.5777 L219.8359 259.2062 L219.2808 259.2758 L218.4112 259.0681 L217.2961 258.9713 L215.9973 258.7832 L214.7635 258.6679 L213.7446 258.5429 L212.7809 258.7169 L211.8971 258.7951 L210.7092 258.8626 L210.0962 258.4657 L208.9896 258.1318 L207.2192 258.0351 L206.2413 257.9361 L205.7033 257.7186 L205.3257 257.7621 L204.999 258.0557 L204.4928 258.308 L202.6247 257.9927 L202.0252 257.3011 L201.1088 257.2347 L200.5785 255.9962 L200.8854 255.4884 L200.5644 254.9577 L197.4038 257.2913 L196.491 257.4805 L194.0651 256.7248 L192.2275 255.9853 L191.5077 254.9306 L190.4365 254.3292 L189.4961 253.8834 L188.2185 253.7127 L187.3106 253.9606 L187.0228 253.2603 M197.0793 380.7401 L197.2016 380.577 L198.5662 378.7528 L199.1884 377.4211 L201.4079 374.4032 L202.3327 372.2995 L202.6594 371.8396 L203.1791 371.1069 L206.4131 373.8737 L207.14 374.4956 L207.2121 376.0132 L207.6583 377.4635 L208.3434 378.6256 L208.5817 379.2746 L207.2567 383.6699 L206.1996 388.2206 L203.7638 386.5084 L201.8703 384.756 L197.0793 380.7401 M203.5467 357.4194 L203.6358 356.953 L206.6224 353.6371 L210.6873 350.1342 L211.0479 350.3016 L211.2664 350.4495 L211.2685 350.9104 L211.3201 351.9367 L211.2749 353.0783 L210.3932 356.4942 L209.5037 358.8208 L208.3929 359.9798 L206.2625 361.3376 L205.8136 361.3018 L205.5866 361.1387 L205.2401 360.3157 L205.0733 358.8534 L204.4207 358.224 L203.5467 357.4194 M204.3195 147.4745 L205.0118 144.0311 L206.7334 144.5716 L208.7874 145.0447 L210.2475 145.4352 L212.4585 146.0312 L213.3875 145.7582 L213.7488 144.3563 L214.2141 143.2306 L214.4375 142.6911 L214.4941 141.9646 L214.7415 138.7746 L215.4345 134.9853 L215.9365 130.4944 L218.7251 129.6961 L220.1965 128.9304 L221.5286 128.4387 L221.1637 129.8516 L220.5804 132.1128 L220.3499 134.5578 L220.9863 134.9472 L221.3695 135.0614 L221.8163 135.1941 L223.2948 135.2865 L225.4584 136.0185 L226.5918 136.3546 L227.9932 136.7701 L228.3637 136.8799 L228.7773 137.9219 L228.8876 139.2401 L228.9039 139.4359 L228.568 140.5355 L228.9512 141.4599 L229.635 141.771 L229.8061 141.7753 L230.1843 141.7862 L230.4785 141.4947 L230.535 141.4393 L230.5322 141.3533 L230.4997 140.4724 L230.8886 139.7186 L231.1629 139.6773 L231.5023 139.6262 L231.7399 139.5903 L233.4078 140.2494 L234.7236 140.4191 L235.3458 140.4887 L235.7489 140.4854 L235.9235 141.572 L235.3614 144.1224 L234.491 147.6909 L233.7083 148.5164 L233.5096 149.5311 L233.6616 150.4164 L233.656 150.908 L230.5266 150.0575 L230.5259 150.0575 L230.4254 149.9901 L229.8153 149.6725 L228.8176 149.7617 L227.5668 149.9792 L226.4214 150.188 L225.6592 150.5491 L225.2229 150.7569 L223.6002 150.9396 L222.0122 150.9842 L221.1644 150.6764 L220.3011 150.299 L218.9004 149.7226 L217.796 149.9673 L217.1554 151.3344 L217.0727 153.1333 L217.0748 153.7054 L217.0798 155.0855 L216.4215 155.9806 L216.2935 156.1546 L215.4019 157.0138 L214.5542 157.2085 L213.0199 156.8866 L211.8949 156.5657 L211.774 155.5227 L212.2647 154.2198 L212.445 152.2795 L212.3687 151.5889 L212.3354 151.2844 L211.6298 150.3686 L210.6427 149.6062 L208.8603 148.9406 L206.1296 148.1542 L204.3195 147.4745 M230.0203 372.1799 L231.9414 362.4748 L240.7322 365.2417 L260.0058 370.5927 L264.8994 369.0511 L264.7714 368.8576 L264.9976 367.8269 L267.2553 365.2308 L269.1035 362.1932 L270.1153 359.8678 L270.8605 359.322 L271.6715 359.5166 L272.1007 359.8156 L272.2457 359.6319 L275.1997 360.7614 L276.3148 360.5396 L278.0428 360.332 L280.0968 359.6166 L283.2736 358.4294 L286.4363 357.0835 L288.5192 356.0996 L290.3265 355.0168 L291.1226 355.1679 L290.6991 354.6417 L290.1872 353.7795 L289.5841 352.3966 L288.7802 351.9248 L287.4283 352.2042 L286.8987 352.2792 L286.7226 351.3497 L287.4367 350.5158 L288.8593 347.6554 L290.1702 345.3016 L291.0774 343.3848 L291.105 343.0749 L290.1186 340.6722 L290.8412 339.2816 L292.1783 336.1254 L293.2947 334.0053 L294.2301 332.1386 L295.5891 329.3172 L297.3327 330.0793 L298.9653 330.9839 L299.8682 332.2429 L299.9057 332.256 L300.0018 332.4397 L300.9663 333.8792 L301.7589 335.185 L302.2078 336.045 L303.2472 335.7319 L303.9599 337.2812 L304.4018 338.4477 L304.843 339.211 L305.0771 339.7513 L305.1244 340.2591 L305.2694 341.3474 L305.2729 342.4824 L306.4106 344.6503 L307.0632 345.1711 L306.9352 344.9417 L305.9772 342.2671 L306.0599 341.4789 L306.2713 340.6102 L306.6616 340.2362 L307.071 339.8937 L307.9725 339.7459 L310.7321 339.6915 L312.4693 338.4695 L312.5372 338.3205 L312.7472 337.9085 L313.6735 337.6225 L319.3709 333.615 L319.9733 335.6514 L320.3488 335.5285 L323.6656 334.4576 L327.4837 333.5922 L327.7566 333.5172 L329.9838 332.5821 L332.4585 331.484 L333.6676 335.3763 L335.8312 334.7675 L338.6594 335.6808 L340.0028 342.8238 L341.3462 345.6505 L340.1096 347.2683 L340.3627 347.3705 L341.4098 348.1402 L341.7916 348.8034 L341.6926 349.4601 L341.3009 350.0831 L340.6596 350.6115 L339.9908 350.5734 L339.4668 351.0713 L337.584 352.9076 L337.1633 353.1316 L337.2248 353.7143 L336.575 354.1731 L334.6009 355.1353 L334.0918 355.1363 L333.3565 356.0985 L334.7175 357.2433 L335.9379 357.9706 L337.6921 359.11 L338.8093 360.2178 L341.7909 362.8477 L344.0323 364.5133 L346.2751 366.0799 L347.8667 367.7052 L347.7394 368.0302 L347.8235 368.2716 L348.0986 368.5032 L349.2603 371.3983 L349.7934 374.2173 L348.8579 376.235 L342.6069 376.1067 L341.016 372.6898 L334.3541 373.0225 L330.7644 370.3394 L320.3961 365.9375 L317.681 365.8298 L311.9518 367.5932 L305.9736 370.7068 L303.3434 371.7288 L301.0879 373.8781 L297.0824 377.3254 L294.5158 381.3076 L293.1554 385.1963 L291.817 388.5609 L289.9468 391.8494 L288.3524 395.725 L289.4554 398.8015 L293.4319 402.7889 L289.1726 407.1927 L282.7037 401.0029 L278.9676 397.7459 L278.9196 397.7187 L278.6714 397.5644 L278.5759 397.3763 L278.7499 397.1263 L282.0094 394.5977 L282.7497 393.5084 L279.3876 390.9058 L279.2985 390.3938 L281.9422 383.5634 L280.5041 380.5053 L279.3523 380.464 L278.88 381.0293 L277.7586 380.4053 L276.6153 380.364 L268.873 388.1913 L255.2268 377.9505 L252.3562 382.3425 L247.9937 388.7892 L245.9863 391.5157 L245.8979 391.7016 L243.1652 395.8707 L242.362 396.4392 L241.2335 397.0589 L240.1029 397.0958 L238.8712 396.8914 L238.0107 396.6121 L237.5349 396.0163 L237.6452 395.4739 L237.9464 395.288 L238.3671 394.6651 L238.5156 394.3835 L239.7048 392.131 L240.5667 390.3318 L241.8642 387.5955 L242.9106 384.9223 L235.7899 378.1364 L230.0203 372.1799 M230.8864 103.8551 L230.9621 102.9588 L232.244 100.6224 L234.0781 97.467 L235.0651 96.3379 L235.4151 96.1857 L236.055 95.9061 L236.7352 95.5232 L237.3093 93.821 L238.0298 93.226 L238.6626 92.7778 L239.649 92.9345 L240.8482 93.028 L241.7857 93.0683 L243.3759 93.015 L244.5878 93.4174 L245.7346 93.7046 L246.7528 93.8786 L247.2703 94.07 L247.4478 94.5856 L246.9797 98.2023 L246.3816 103.2732 L243.3554 103.0415 L241.7115 102.8348 L240.0895 102.5379 L239.4991 103.4102 L239.2078 104.6078 L238.7496 105.3387 L237.5858 105.776 L236.7423 105.9641 L235.0609 105.59 L232.6909 105.1168 L231.848 104.6698 L231.4542 104.4609 L230.8864 103.8551 M234.0922 506.7776 L235.8146 504.3582 L236.2777 503.6202 L236.5351 502.9887 L236.4722 502.2779 L236.7366 501.5094 L237.2648 498.8618 L237.4451 496.9227 L237.6926 496.7336 L237.9634 496.4739 L238.3629 496.4576 L238.6987 496.4967 L239.0247 496.8597 L239.369 497.3205 L239.275 497.8097 L239.2955 498.3661 L239.1802 498.9465 L239.0112 499.2454 L238.6938 501.5812 L238.4689 502.0268 L237.9704 503.5604 L237.2089 505.1179 L236.4962 506.032 L236.4672 506.3004 L236.1406 506.9286 L235.8867 507.5993 L235.6866 507.7645 L235.1125 508.247 L234.7031 508.2644 L234.4613 507.9623 L234.0922 506.7776 M236.8646 182.514 L237.1934 180.2486 L237.3645 179.1698 L237.5328 178.1094 L237.7923 177.3307 L237.689 176.4281 L237.9683 174.6641 L238.4399 173.322 L238.4032 172.6466 L238.814 171.0751 L238.8465 169.049 L238.925 167.5514 L239.5033 166.118 L240.2514 165.2022 L241.8189 163.7797 L243.5024 161.3979 L243.8885 160.6061 L244.9632 159.1596 L245.9559 158.32 L246.5336 158.4614 L248.0078 158.9693 L248.3599 159.3641 L248.4532 160.1015 L247.9668 161.1075 L247.6253 162.7748 L247.3488 163.9787 L246.5484 166.4888 L246.0521 167.5275 L245.2072 168.6912 L245.1018 169.769 L245.3599 172.0887 L245.1442 173.9865 L245.0417 175.9496 L244.9625 177.4634 L245.0763 179.0349 L244.8904 181.1176 L244.6811 182.5597 L244.486 183.7723 L244.2123 184.8076 L243.95 187.2263 L243.5774 191.9766 L243.3038 193.0663 L242.8965 193.8471 L242.6229 194.9368 L242.567 195.2924 L242.4539 196.0167 L242.1718 196.4137 L241.6231 196.7464 L240.938 196.8237 L240.5858 196.6214 L240.3249 196.4724 L239.9629 195.9721 L239.9191 195.871 L239.7628 195.511 L239.3506 193.8439 L239.4475 190.8575 L239.4956 189.3687 L239.2297 188.5444 L239.3718 187.7831 L239.4927 186.825 L239.0268 186.279 L238.7581 185.9647 L238.6358 185.6189 L238.2222 184.452 L237.6042 183.3579 L237.0859 182.7663 L236.8646 182.514 M252.0486 254.3716 L253.2987 253.0102 L254.8097 251.5455 L255.5599 251.0529 L256.3807 251.3519 L257.4102 252.2186 L258.4008 253.2473 L260.1296 255.458 L261.1477 256.7606 L262.3009 258.2873 L263.3665 259.4878 L263.7143 259.9869 L263.9915 260.4632 L264.2524 261.0873 L264.77 261.954 L264.8923 263.3371 L265.2253 263.8971 L264.9595 264.431 L265.2069 264.8997 L265.3158 265.2433 L265.3802 265.974 L265.1921 266.1937 L264.9722 266.4514 L264.42 266.4024 L263.2151 266.2839 L262.1376 266.0567 L260.7199 265.2998 L258.9643 263.2665 L257.2971 260.5785 L256.0654 259.8249 L253.9584 256.964 L252.9254 255.5623 L252.0486 254.3716 M269.9894 229.0119 L270.1174 227.7744 L270.355 225.7898 L271.0635 223.5214 L271.6807 220.3253 L272.4168 216.9727 L272.8976 215.5318 L273.9737 214.1137 L274.4241 212.7761 L274.8999 209.7105 L275.269 204.0327 L275.4189 202.7408 L275.8071 202.334 L277.1463 201.3096 L277.7861 200.5038 L278.1467 200.0492 L278.3384 200.0198 L278.711 199.9633 L279.1246 201.0638 L279.9193 209.9008 L279.534 214.6716 L279.5877 216.5323 L278.5901 220.3688 L277.7975 223.7356 L277.1434 226.6924 L276.6372 229.4948 L273.5834 229.846 L270.6696 229.8395 L270.1606 229.2196 L269.9894 229.0119 M297.8884 297.6938 L298.109 297.1589 L300.2613 295.1571 L301.2561 294.7494 L302.1386 294.4645 L302.765 293.7099 L303.5498 292.9434 L303.7308 291.8136 L303.7506 291.6897 L304.7907 290.0217 L305.9927 289.7575 L306.7733 289.5281 L307.0604 289.4433 L308.2312 288.9638 L309.516 289.1758 L310.2874 289.4226 L310.5829 289.7684 L310.9775 290.6383 L311.1535 290.8351 L311.6965 291.0862 L312.1165 291.2743 L312.5351 291.0188 L312.8236 290.5361 L313.4628 290.311 L313.4826 290.2729 L313.899 289.4792 L313.9252 289.1867 L313.9867 288.5049 L314.4152 287.1925 L314.6075 286.016 L315.0953 285.1157 L315.3329 284.6775 L315.8399 283.6022 L316.0039 283.2531 L316.3405 282.4539 L316.6007 281.2057 L317.5333 280.3771 L318.1541 280.2151 L318.8519 280.1597 L319.6339 280.351 L320.6075 280.151 L320.7178 280.0748 L321.3549 279.6334 L322.8319 280.0803 L322.7436 280.2738 L321.1647 283.7283 L319.7881 285.8834 L318.7423 287.4589 L317.0709 290.1892 L316.5059 289.838 L316.1595 289.6227 L315.516 289.3269 L315.2085 289.0377 L314.8203 289.066 L314.5523 289.3443 L314.3013 289.9282 L314.488 290.2262 L315.0098 290.4251 L315.3202 290.4088 L315.5401 290.5969 L315.9841 290.9982 L315.7868 291.3222 L315.5394 291.731 L315.2961 292.0637 L313.9761 294.2721 L313.1891 295.2659 L312.4305 295.977 L311.4809 296.1586 L310.3347 295.6975 L309.1476 295.3311 L308.4603 295.3387 L308.2192 295.6801 L308.5438 295.915 L308.8761 295.915 L309.1928 296.064 L309.2197 296.3651 L309.1398 296.5685 L308.343 296.986 L307.9279 297.1458 L306.6821 297.7786 L302.7869 300.8742 L300.8418 302.6584 L300.7718 302.7226 L300.0754 302.6247 L297.9231 299.5933 L297.9167 299.253 L297.8884 297.6938 M303.8963 203.328 L304.4174 201.6989 L305.2991 199.7045 L306.3286 198.1765 L306.4636 197.313 L306.4325 195.0923 L306.8723 192.4431 L307.7328 190.1224 L308.3804 188.4672 L309.3774 185.7897 L309.4113 183.9604 L310.0159 182.2769 L309.7698 180.266 L310.1375 178.4129 L311.6265 176.0986 L312.5867 173.1926 L313.4833 171.3557 L314.0468 169.4198 L314.225 168.0006 L314.3543 164.7998 L314.558 162.0407 L314.384 158.6767 L314.2334 156.5918 L314.6803 153.9925 L314.7758 152.7156 L315.0748 151.7118 L316.245 151.2245 L317.2158 150.7536 L318.4199 150.3577 L319.2359 150.2631 L319.8736 150.1891 L320.971 150.0902 L321.1824 150.461 L321.3471 150.7493 L321.5974 152.3774 L321.2474 155.6043 L320.9038 158.2972 L320.7652 159.4261 L320.4435 162.0472 L320.7758 163.188 L320.7956 163.2566 L321.9262 164.2028 L322.9776 165.3567 L323.4591 166.1473 L324.1322 166.677 L326.078 167.9766 L329.3199 170.093 L330.8952 171.1904 L332.4578 172.5825 L333.6796 174.5553 L334.4934 177.0056 L334.8788 178.9251 L335.0166 180.1497 L335.122 180.3465 L335.9747 181.135 L336.3742 181.0012 L335.6742 179.8365 L335.5349 178.8185 L335.3553 176.5662 L335.3108 174.4009 L335.2613 173.5113 L335.5964 172.3171 L336.3077 172.1888 L336.3805 172.1757 L337.7006 172.316 L338.1906 172.6064 L338.5427 173.4253 L338.5484 173.5569 L338.5965 174.6967 L338.4734 176.2889 L338.513 176.9621 L338.2055 177.9126 L337.1081 180.3367 L337.1166 180.9838 L337.4411 181.6624 L337.0155 183.4971 L337.0791 184.5412 L337.0091 186.0789 L336.6471 187.7407 L336.5573 188.8293 L336.2024 191.8939 L335.1595 201.7946 L334.7048 205.8401 L334.002 210.6142 L333.2681 213.2818 L332.2117 216.8313 L331.2501 219.0008 L330.8033 220.5298 L330.3366 222.4339 L330.2992 222.5905 L330.1231 223.3191 L329.2548 223.4648 L327.1697 223.131 L326.6437 222.7156 L326.5921 222.1316 L326.6288 221.4411 L326.9795 220.6701 L327.4483 219.6402 L327.384 218.9725 L327.1273 218.4625 L325.7485 217.8405 L324.514 217.4566 L323.5333 217.1032 L322.4784 216.7943 L321.736 216.3691 L321.0261 215.8733 L320.6047 215.2034 L319.7216 213.6331 L319.226 212.7837 L318.2043 211.6375 L316.6155 210.6109 L315.7381 210.2075 L315.3577 209.878 L315.6942 208.3055 L315.6674 207.4029 L315.2813 207.2245 L315.0374 207.4594 L314.3805 209.0069 L313.8043 210.7045 L313.2789 211.7321 L312.9233 213.0208 L312.7783 213.918 L312.352 214.4737 L311.7708 214.9456 L309.2586 213.9397 L307.4287 212.4531 L306.6602 211.7082 L305.5699 210.6501 L304.6281 208.8644 L304.2795 207.2713 L304.1148 205.6694 L304.0702 205.2388 L303.8963 203.328 M305.1287 421.1779 L305.5565 420.1397 L306.1666 417.6362 L306.4113 412.6901 L306.8383 410.9192 L309.6475 408.3537 L312.2735 406.4003 L313.5561 407.7439 L314.4724 412.2629 L314.594 417.5145 L316.0598 417.8808 L316.5483 420.3234 L316.8538 421.7888 L313.1283 421.667 L307.3269 422.278 L305.1287 421.1779 M316.5568 296.1912 L320.0992 288.4386 L321.8498 287.4589 L321.8449 287.1838 L322.4558 287.1208 L324.6668 285.8834 L325.5018 282.2756 L326.4485 279.8421 L326.6684 277.1053 L327.9312 273.2648 L328.7394 270.4637 L331.4121 267.1375 L330.3515 261.4505 L333.2858 256.7748 L334.9261 257.9513 L345.7547 273.9933 L346.3168 274.1542 L347.5852 275.5482 L348.6826 277.002 L348.4401 277.6207 L349.6103 279.2017 L350.8731 280.625 L351.5285 281.471 L351.8573 282.2365 L353.0126 283.7631 L357.0145 287.6992 L356.7536 288.0754 L356.8866 288.1983 L357.2507 288.4408 L357.2252 288.8159 L357.0626 289.1932 L356.4736 289.7271 L355.7503 290.4001 L355.0588 290.9916 L354.7979 290.8992 L354.1298 291.8637 L351.6162 295.492 L351.928 295.666 L352.1451 296.0466 L353.3704 297.3231 L357.4063 300.7154 L358.7327 302.3105 L360.6912 303.9545 L361.3226 306.5162 L361.9767 307.7981 L361.7037 308.0601 L361.283 308.7821 L354.3984 303.2804 L351.648 303.5522 L350.8943 308.757 L351.1651 308.6124 L351.9817 308.4417 L352.4229 308.5592 L352.6746 309.0767 L352.6626 309.2398 L352.8358 309.2605 L353.6673 315.3557 L353.866 315.8026 L354.1595 316.9051 L353.9183 317.1932 L353.9813 317.6542 L348.7066 321.2857 L348.1092 320.4909 L347.861 320.4985 L347.0281 320.0418 L346.3804 319.7091 L346.0849 319.5569 L345.6599 319.5754 L343.3684 322.4599 L341.0655 320.5724 L340.5677 320.5876 L339.7539 320.7877 L339.1352 320.2136 L339.2717 319.1024 L330.6131 312.0113 L325.3738 302.9216 L321.8173 297.1589 L316.5568 296.1912 M327.2701 232.1231 L327.6343 230.4811 L328.1045 228.8292 L329.4238 226.8729 L330.2299 226.0562 L331.3909 225.4212 L332.5525 225.2233 L333.587 225.1199 L335.4479 225.22 L336.4548 225.2885 L337.5486 224.6023 L340.1682 222.1207 L342.0292 220.1394 L342.9441 219.0193 L343.4971 218.3494 L343.6371 218.1809 L344.214 218.1689 L345.0116 218.5017 L347.6157 218.6778 L347.9727 219.0715 L348.1035 219.2161 L348.1431 219.7631 L346.8669 222.3796 L345.8537 223.815 L344.4678 224.8959 L343.2977 225.4255 L342.2654 226.3161 L340.6137 229.1783 L338.6954 231.7762 L338.5158 232.0894 L337.2905 234.2316 L337.1095 234.547 L336.0709 236.7784 L334.6108 239.0805 L333.4441 240.2484 L332.4224 240.6594 L332.2931 240.99 L332.397 241.5663 L332.6289 242.3971 L332.7731 243.129 L332.2938 245.1885 L332.0025 246.3347 L331.9148 246.376 L331.3824 246.6261 L330.5841 246.5989 L330.1217 246.202 L329.5461 245.2266 L328.8285 243.6466 L328.3031 241.9459 L328.091 239.8776 L327.9143 238.1486 L327.4243 234.9983 L327.2701 232.1231 M332.1941 221.3062 L332.204 220.0611 L332.8325 218.4255 L334.2318 216.877 L334.5528 216.0733 L335.5922 213.1045 L336.2646 210.3054 L336.5927 207.2626 L336.8232 205.8869 L336.9335 202.1568 L337.1866 199.3673 L337.876 195.7938 L337.9976 192.9771 L337.6405 190.043 L337.591 187.6493 L337.8519 186.1475 L338.3865 184.2106 L339.0341 182.5553 L340.1986 178.5303 L340.7339 178.2769 L341.4558 178.4683 L341.9437 178.7783 L342.3926 179.2089 L342.86 179.8452 L342.3764 182.676 L342.3241 183.6331 L342.8487 183.533 L343.4299 182.576 L343.485 181.0991 L343.7417 180.2911 L344.1977 180.0474 L345.0003 180.0018 L345.5115 180.3748 L346.058 180.9153 L345.6635 182.7108 L344.5067 186.6629 L343.4603 186.9588 L342.2922 189.0261 L341.2444 191.348 L341.4643 192.0821 L342.0815 192.2996 L342.3453 193.0696 L342.0695 195.3294 L341.0096 198.2896 L340.5868 201.501 L339.9038 207.3126 L340.1279 208.2609 L339.8628 209.5474 L340.0275 209.6648 L340.514 208.7687 L341.3073 207.3343 L341.3172 207.3256 L341.5138 206.236 L341.786 203.3356 L342.1006 201.9132 L342.7433 200.109 L342.9576 194.6171 L343.3627 192.6106 L344.0231 190.4541 L344.7104 189.9832 L345.5503 190.304 L346.5459 190.8564 L347.4325 191.36 L347.8136 191.2447 L347.9119 190.3616 L348.4648 188.6433 L348.3043 187.1045 L348.8176 184.4389 L349.3522 182.8903 L350.2565 183.1143 L352.6548 183.4406 L355.3353 184.4194 L357.4649 185.2513 L358.2434 185.2024 L358.3346 185.7984 L358.0829 186.4966 L357.6728 187.4634 L357.3023 189.0936 L357.2408 189.3633 L356.521 191.4372 L355.5729 192.9358 L354.7838 193.4556 L354.3949 193.7123 L353.3965 194.5964 L352.1055 195.722 L351.5822 196.554 L351.7498 197.6948 L351.8269 198.7703 L352.4102 198.8366 L352.4194 197.9025 L352.4222 197.6371 L352.4328 197.5284 L352.4943 196.9052 L352.7984 196.8954 L354.2415 196.8476 L356.5726 196.9737 L356.6667 197.3174 L356.7749 197.7122 L356.8102 198.2102 L356.8144 198.2679 L356.7282 198.953 L356.5408 199.8241 L356.2389 200.4472 L356.1159 200.9888 L355.879 201.6402 L354.0145 202.3656 L351.771 203.4487 L351.2259 203.8033 L350.8264 204.0621 L350.791 204.8059 L350.6129 205.7803 L350.4304 206.7776 L350.4743 206.9646 L350.6192 207.5856 L351.3079 209.1733 L351.3645 210.3663 L352.1076 212.2346 L352.3791 213.5352 L352.0157 214.6281 L351.1269 215.6492 L349.9659 216.5768 L347.6878 217.163 L345.58 217.5741 L344.2593 217.8013 L343.7466 217.7589 L343.6059 217.5425 L343.3047 217.0814 L343.1725 216.3572 L343.5055 215.4731 L343.9071 213.7233 L344.3158 211.7985 L344.5251 210.2869 L344.5039 209.0526 L344.2352 208.4479 L343.9156 208.0445 L343.5501 207.7922 L342.6557 207.6367 L341.9635 207.6682 L341.9196 207.6508 L341.5329 208.2272 L341.0471 209.505 L340.8293 211.2275 L340.7212 212.1084 L340.8612 212.3607 L341.4827 213.0806 L341.5039 213.6787 L341.646 215.9233 L340.8732 217.9155 L340.4185 219.0856 L338.764 220.1948 L337.1625 220.6809 L334.859 221.4161 L333.6237 221.7314 L333.0192 221.7564 L332.4161 221.5738 L332.1941 221.3062 M334.4114 377.4406 L334.6398 376.0795 L334.4524 374.5901 L336.1875 373.7389 L337.6462 373.1877 L340.1039 373.204 L340.7657 373.2736 L341.0676 373.9639 L341.0563 375.0294 L341.3957 377.0743 L341.9147 377.5602 L342.1544 377.2732 L342.2746 376.8384 L342.7327 376.6362 L343.0042 377.009 L343.1937 377.6592 L343.6441 379.1616 L343.9284 382.9231 L343.8499 383.3623 L343.4801 383.4927 L342.5192 383.3634 L340.975 383.1666 L339.5333 383.1275 L337.8929 383.0579 L335.4508 383.1079 L335.1446 383.0764 L335.0067 382.8437 L334.6539 378.6311 L334.4114 377.4406 M335.8898 257.5262 L336.0977 256.6639 L336.3339 255.6809 L336.7107 254.7446 L337.5458 253.8943 L338.0287 253.2603 L338.1948 253.0418 L338.5166 252.1697 L338.8906 251.6249 L339.358 251.1693 L339.9073 251.1443 L340.1562 251.1323 L340.8908 250.7865 L341.3427 250.3396 L341.6361 250.0373 L342.1438 249.8013 L342.6274 249.4131 L342.9081 249.6078 L343.4603 250.1504 L344.0493 250.6114 L346.063 252.0316 L346.5027 251.9631 L346.7919 251.7086 L347.5195 251.0692 L347.7924 250.5755 L349.3048 247.8429 L350.0635 245.792 L350.1823 245.1439 L350.318 244.7981 L350.5966 244.411 L350.5719 243.3519 L351.1658 243.478 L351.3199 243.5106 L351.9089 243.9695 L352.1033 244.5111 L352.3543 245.0287 L352.961 245.3582 L353.2742 245.4669 L353.5281 246.0139 L353.9601 246.4662 L354.356 246.961 L356.5748 248.4725 L357.081 248.6628 L357.7633 248.9879 L357.6615 249.2968 L357.5752 249.5588 L355.7411 251.4422 L353.6292 253.132 L350.3046 255.4982 L348.6953 256.4464 L347.4559 257.5968 L346.0743 259.1235 L344.477 261.9844 L343.2595 262.6032 L341.8277 264.1244 L340.5663 263.1381 L339.1699 262.0747 L338.1574 261.9094 L336.3042 259.4432 L336.1119 258.3711 L335.8898 257.5262 M336.2059 152.7091 L336.7171 152.5036 L337.1788 152.2523 L337.5033 152.0468 L337.8003 151.6378 L338.4565 151.6378 L339.0978 151.8662 L339.7051 152.2534 L340.2467 152.2937 L340.6681 152.1871 L340.9517 152.1816 L341.4593 152.1664 L341.6488 152.1621 L341.8892 152.1577 L342.213 152.3839 L342.6953 152.41 L342.8628 152.4459 L343.2142 152.521 L343.7 152.5949 L344.0054 152.7254 L344.2416 152.6254 L344.6538 152.422 L345.2117 152.7069 L345.1919 153.0811 L345.0717 153.5183 L344.7316 153.8674 L343.7933 154.644 L342.7306 155.8033 L341.8461 155.9882 L340.2941 155.8066 L339.2872 155.2041 L337.8986 154.4754 L336.9066 153.4454 L336.2059 152.7091 M340.9 341.8257 L341.1291 341.3147 L342.5284 339.9829 L343.2623 339.3664 L343.8216 338.8968 L345.2343 337.6149 L345.6338 337.1626 L346.1619 336.5647 L346.635 336.4657 L347.6185 336.2331 L347.9508 336.3407 L348.1078 336.6799 L348.1551 336.9898 L348.0774 337.3301 L347.4735 337.94 L347.2239 338.1922 L346.1669 339.1827 L343.1895 343.0325 L342.7207 343.5011 L342.1628 343.6077 L341.5654 343.2587 L341.2536 342.727 L341.2005 342.6009 L341.0931 342.3487 L340.9 341.8257 M347.9635 366.967 L348.2506 366.6224 L349.6612 365.2199 L350.1766 364.8296 L350.5867 365.233 L352.7383 367.3508 L353.3082 367.5943 L353.5422 367.778 L354.904 368.85 L356.5818 370.8656 L356.8448 371.7157 L357.0966 372.5278 L357.4126 373.0681 L357.5321 373.7541 L357.431 374.1901 L357.0966 374.6434 L356.5691 375.0185 L355.6867 375.4599 L354.6841 375.6273 L353.1045 376.0328 L351.9683 376.347 L351.1269 377.0069 L350.7281 376.085 L350.2402 374.1596 L349.7213 371.2798 L349.1379 369.2403 L348.7823 368.4281 L348.5171 367.9541 L347.9635 366.967 M350.154 255.7863 L353.2778 253.5855 L355.9907 251.4987 L357.8722 249.4392 L357.9719 249.3294 L358.5722 249.4816 L359.0516 249.6947 L359.3613 250.0993 L359.4313 250.4461 L359.5903 250.9224 L359.6674 251.4563 L359.7388 252.8243 L359.5317 253.6866 L359.2693 253.7257 L359.2029 253.7355 L358.7334 253.5115 L358.4343 253.2342 L358.1515 252.9156 L356.164 254.3488 L354.7201 255.2829 L351.8877 257.35 L350.154 255.7863 M358.8996 184.3193 L359.7445 182.5847 L360.6297 180.7489 L360.6707 180.6554 L360.8673 180.2095 L361.2003 179.4515 L361.008 178.7119 L361.0009 178.0561 L360.7542 177.0665 L360.4381 175.6994 L360.7223 174.7119 L361.242 173.1643 L361.4782 172.0833 L361.8296 170.6673 L362.1294 168.6705 L362.3846 167.3709 L362.9736 166.2528 L363.4848 166.0484 L364.2774 166.031 L364.8303 166.3007 L365.2821 166.1582 L365.5833 165.0217 L366.0069 162.7269 L366.9536 159.2651 L367.409 158.3526 L368.0496 157.8165 L368.8796 157.4641 L369.3753 157.4195 L369.5188 157.8295 L369.1554 158.9215 L368.9652 160.3962 L368.5275 161.1184 L368.0453 161.8677 L367.0491 164.2147 L366.1674 166.7575 L366.0429 168.6422 L365.5155 169.8603 L365.029 171.4917 L364.7412 172.5488 L364.7808 172.9968 L364.9696 173.2633 L365.4236 173.0099 L365.8874 172.2769 L366.5478 169.0696 L367.1332 168.2714 L368.1075 167.223 L369.3428 164.0298 L369.4269 162.2158 L369.4615 161.163 L369.6772 160.2799 L370.6671 158.4146 L371.1344 156.2819 L371.0397 155.8675 L370.1509 155.5641 L368.8231 155.1921 L368.3373 154.8713 L368.2624 154.4656 L368.3833 154.0621 L368.4872 153.3562 L369.0062 152.6906 L369.4163 152.4296 L369.5252 152.3611 L370.2139 151.7673 L370.9174 151.1658 L371.7673 150.6981 L372.7727 150.1174 L373.1884 149.9433 L373.6897 150.076 L373.9754 150.3153 L373.5038 151.2996 L373.04 152.3622 L372.9749 153.0658 L372.9289 153.54 L372.8943 154.0338 L372.8186 154.5124 L372.6702 155.0094 L372.4375 155.9599 L372.4276 156.755 L372.4665 156.8409 L372.1901 158.2493 L371.7114 159.7263 L371.3621 160.5126 L370.8799 161.6948 L370.1014 164.1984 L369.2742 166.4617 L368.7015 167.5851 L368.2306 168.6161 L367.6416 169.968 L367.3001 171.4895 L366.4947 173.1589 L366.3166 173.8712 L366.1073 174.9403 L365.9729 175.6298 L365.6654 177.1393 L365.5254 177.7005 L365.333 178.4749 L364.9194 179.6603 L364.7002 181.0545 L363.5534 186.2421 L362.8223 186.0615 L361.1105 185.2872 L359.7763 184.7173 L359.461 184.5825 L358.8996 184.3193 M365.3613 183.2057 L365.5918 182.0148 L365.9065 180.3889 L366.4537 176.4009 L367.2937 173.93 L367.8381 173.5091 L367.8579 173.135 L367.7356 172.3465 L369.166 168.1735 L370.4755 165.0228 L371.389 162.9727 L372.1052 160.7105 L373.0329 157.4336 L374.0235 153.6716 L374.8847 150.2413 L375.3124 148.499 L375.5776 147.3048 L375.6744 146.6033 L375.6278 146.0758 L375.8632 145.1491 L375.9368 144.1844 L376.0145 142.6705 L376.6346 137.6337 L377.348 132.0095 L377.4428 131.3134 L378.2071 132.1465 L378.1569 133.8182 L378.0671 134.9831 L378.6236 135.8858 L379.2437 136.6863 L380.2399 137.1834 L381.4794 138.0317 L382.2366 138.8159 L382.7026 139.9525 L382.9112 140.4604 L383.5574 142.9793 L383.2166 144.3715 L383.0837 144.9142 L382.9804 146.6859 L382.9748 146.7871 L382.6015 148.0259 L382.2168 148.6882 L381.8824 149.1635 L381.7763 149.3136 L381.3224 150.2055 L380.9356 151.0386 L380.2951 151.5747 L379.793 151.8858 L378.9142 152.1229 L378.3075 152.4437 L378.2877 152.8179 L378.4093 153.8185 L378.4708 154.2927 L377.7405 154.4101 L376.8616 154.6483 L376.2733 155.1801 L376.0485 155.6261 L375.9177 156.5429 L376.016 157.6522 L376.3285 158.7953 L376.2549 159.76 L376.1906 160.8302 L376.6191 161.4849 L377.8493 162.2277 L378.9644 162.8737 L379.4084 163.1 L379.9861 163.0488 L380.7023 162.7726 L380.807 162.7628 L381.1223 162.7345 L381.2411 162.8835 L381.4412 163.3457 L381.0474 163.9254 L380.9286 164.1364 L380.0681 165.1816 L379.0535 166.8684 L378.4687 168.0386 L377.7157 169.7026 L377.2165 171.2372 L376.945 173.5515 L376.6283 174.1649 L375.9502 174.278 L374.7857 174.2758 L373.6834 174.3737 L373.2294 174.6271 L372.9749 175.3416 L372.142 176.6934 L371.4151 177.4504 L370.7887 178.1442 L369.8617 178.4401 L369.0649 179.3373 L368.239 179.8343 L368.3628 181.235 L367.8353 182.4531 L367.2859 182.8218 L366.3067 183.1219 L365.7 183.4417 L365.4914 183.2959 L365.3613 183.2057 M371.4088 298.6855 L371.4689 296.2879 L372.388 295.3692 L372.912 294.4395 L373.1531 293.5055 L373.2719 291.5309 L373.0697 289.9098 L373.0046 288.954 L372.6108 288.7039 L372.0911 288.2505 L371.6386 287.4459 L371.5078 286.688 L372.5139 285.9454 L373.6678 285.381 L374.809 284.7787 L375.8385 284.4448 L377.5192 286.1868 L380.1105 285.6333 L383.4902 288.6506 L386.4153 293.9557 L388.6185 295.7421 L389.0024 296.326 L389.2407 296.6881 L390.0885 297.9776 L391.8123 298.8746 L393.3848 299.166 L393.6662 299.4868 L394.0819 299.9609 L395.1397 304.1926 L390.4561 305.4408 L390.7107 309.1865 L390.7531 309.8139 L390.0255 309.7802 L386.3764 310.0172 L386.1431 310.4597 L386.561 311.2176 L387.0658 312.1733 L387.4455 313.3671 L388.0324 314.761 L388.3067 315.957 L388.1695 316.6887 L388.0168 317.4237 L387.6138 317.7097 L386.9272 317.9075 L386.0074 317.9108 L384.4836 317.8401 L383.1296 317.6857 L381.2552 317.1856 L379.255 317.2552 L378.2863 318.3914 L376.9344 318.7469 L375.5486 318.1739 L375.2806 317.7292 L375.275 317.0693 L375.3181 316.5648 L375.5175 315.7482 L375.8781 314.8164 L376.1397 313.7922 L375.7699 311.7058 L375.7607 309.7236 L375.4906 308.6027 L375.4425 308.4026 L375.4206 308.3113 L374.9108 307.748 L374.5368 307.2805 L374.2419 306.4922 L373.5144 305.3495 L372.8971 304.7308 L372.3428 304.347 L372.0373 304.1361 L372.0176 302.9379 L371.9772 300.4708 L371.8026 299.9358 L371.4088 298.6855 M371.8033 143.583 L372.2374 134.3088 L372.6497 133.4974 L372.8688 132.8013 L372.8328 132.0715 L372.3378 131.2416 L372.3718 129.4067 L373.0194 128.7607 L373.4508 127.8786 L373.2846 126.7735 L372.7988 125.7446 L373.1962 125.1888 L373.7908 125.1083 L374.0885 125.1986 L374.0807 125.2269 L375.9735 125.8088 L375.9785 125.8121 L376.9372 126.1057 L376.9507 126.0666 L376.8545 127.065 L376.6212 127.5273 L376.5717 127.9645 L376.6976 128.3952 L376.817 128.7476 L376.8227 130.2497 L376.3412 134.5491 L375.714 140.4441 L374.6308 141.2359 L372.8399 144.0963 L372.1547 144.3095 L371.8033 143.583 M372.2092 190.9087 L372.2382 190.2474 L373.5603 189.0979 L375.2856 188.6085 L377.6139 189.6145 L380.143 190.8216 L381.5515 191.6841 L382.6149 192.1441 L383.621 192.7476 L384.5699 193.4665 L386.783 196.8302 L387.5593 197.7502 L388.0769 198.2668 L388.738 198.8138 L389.6289 199.4456 L391.0373 200.3657 L391.9862 201.0845 L393.5672 201.9175 L394.8321 202.3775 L396.2116 202.9235 L396.8444 203.2399 L397.3612 203.8729 L397.7353 204.3894 L397.8788 205.0506 L397.8788 205.5976 L395.3497 206.6895 L394.2283 207.5801 L393.3657 208.6437 L392.3313 209.3919 L391.7564 209.2472 L391.2961 208.7883 L391.2389 208.213 L391.9862 206.9189 L392.7908 205.5683 L392.9351 204.4188 L392.9061 203.7859 L392.6473 203.154 L391.0663 203.7282 L390.5778 204.9364 L390.319 205.7988 L390.0029 206.8624 L389.6289 207.4659 L389.2266 207.4366 L388.9105 206.8047 L388.767 205.913 L388.1632 204.7918 L387.186 203.8729 L385.1737 202.8658 L383.679 202.2623 L382.098 202.1187 L380.4018 202.234 L379.1369 202.2623 L377.3551 201.5728 L376.0329 201.0845 L375.7451 200.5092 L375.5154 199.9633 L375.4291 199.4739 L375.3138 198.468 L375.2276 197.549 L375.4864 196.8302 L376.1765 196.2832 L375.8314 195.3642 L375.0551 194.7889 L374.394 194.3583 L373.5031 193.6971 L372.6695 192.9206 L372.4397 192.4605 L372.2954 191.7417 L372.2092 190.9087 M380.3354 131.1057 L380.3594 130.0202 L380.5461 128.74 L383.416 116.7812 L384.5254 117.2619 L385.6743 117.523 L386.8777 117.8482 L386.7384 118.5476 L384.7764 128.4257 L384.6385 129.5808 L384.6145 130.6652 L384.49 131.6005 L384.3048 132.2738 L384.3217 133.2353 L384.4935 134.0445 L384.3401 135.0201 L384.3323 135.7966 L384.3026 136.3492 L384.0672 136.6069 L383.9484 136.7375 L383.8925 136.7984 L383.2428 136.8625 L382.4487 136.6918 L381.9298 136.2567 L381.1958 135.4192 L380.814 134.9798 L380.7143 134.5176 L380.5362 133.3734 L380.452 132.4184 L380.3354 131.1057 M384.9369 281.6439 L386.3899 278.6722 L387.5452 278.0774 L390.3847 278.7048 L391.0126 280.9502 L388.3046 283.426 L385.5273 283.1248 L384.9369 281.6439 M385.8638 178.2389 L385.9069 177.8517 L386.0151 176.8816 L386.3383 175.8908 L386.5999 175.1915 L386.8728 174.688 L386.8495 174.4205 L386.742 173.2089 L387.1577 172.7554 L387.8273 172.3139 L388.8391 172.3845 L389.2138 172.7587 L389.6847 172.7663 L389.7441 172.7141 L389.8841 172.5912 L389.9471 172.1931 L389.8658 170.6096 L390.0708 169.4916 L390.1245 169.099 L390.2603 168.105 L390.0213 166.2768 L390.0312 164.9108 L390.1641 162.8226 L390.4477 161.8384 L391.0699 160.4104 L391.2876 159.5566 L391.1653 158.58 L391.5747 156.6277 L392.0845 154.7244 L393.0821 152.1272 L393.4032 151.5671 L394.0664 151.8804 L394.8639 152.2773 L395.0782 153.2605 L395.1849 154.1339 L395.3292 155.1029 L395.0513 155.8392 L394.7444 156.5592 L394.666 157.4706 L394.2651 158.2417 L393.3049 160.0058 L392.0944 161.7035 L391.948 163.2577 L391.9077 165.4611 L391.9841 167.5449 L392.1481 169.0718 L392.9436 169.124 L393.7793 168.9957 L394.4814 168.5607 L394.9304 167.7646 L395.5264 167.2012 L396.0221 166.8271 L396.8048 166.7042 L397.2205 166.6139 L397.8781 166.7542 L398.0153 166.7836 L397.3761 169.7363 L396.7871 170.6988 L397.3874 171.0903 L397.4122 171.1012 L398.2133 171.4449 L399.9851 171.8995 L400.2863 173.2089 L400.9531 173.7038 L402.4648 174.154 L402.7688 174.6162 L402.9979 174.9653 L403.1662 175.2209 L403.4349 176.0387 L404.0875 177.2579 L404.9437 181.1839 L405.0667 181.7495 L405.5405 183.5178 L405.9463 184.39 L406.0644 184.6434 L406.2567 185.3818 L406.4059 186.1833 L406.355 186.7456 L404.9953 187.0642 L402.6946 186.6107 L400.9488 186.3541 L399.0476 186.1105 L397.5444 185.7135 L395.8291 184.5803 L393.7751 183.9245 L392.3348 183.2002 L391.9735 182.7 L391.615 182.8381 L391.4036 183.4428 L390.9115 183.8593 L389.9188 184.0007 L388.7175 183.6516 L387.5021 182.1888 L386.7738 181.9593 L386.7201 181.9419 L386.3022 180.8087 L385.8638 178.2389 M391.1526 198.5832 L392.8198 197.4338 L395.2917 193.9559 L398.0223 193.5524 L401.2706 195.4501 L397.7636 202.5211 L391.1526 198.5832 M408.7632 193.4002 L409.0779 193.1468 L409.0588 191.5046 L410.0239 191.124 L411.2415 191.0555 L412.4102 191.3241 L413.5245 191.746 L414.2832 191.5655 L414.4218 191.3404 L414.0704 190.3605 L413.9141 189.7885 L413.2749 189.7396 L412.5106 189.3524 L411.9238 188.3638 L412.2257 187.2502 L412.5566 186.776 L412.8274 186.7652 L414.6459 186.689 L415.2144 187.2785 L415.4032 187.4742 L416.3931 189.0892 L417.8736 190.8749 L418.7674 192.6052 L419.8046 194.3583 L420.1072 195.2348 L420.1348 196.0961 L420.1426 196.2984 L420.1673 196.9085 L419.9983 197.66 L419.7014 197.7926 L419.4772 197.6523 L419.0339 197.4261 L417.7202 196.8019 L415.2349 196.2571 L412.9617 195.7829 L409.7474 194.7367 L409.1493 194.3539 L408.7632 193.4002 M422.8831 200.7311 L423.2989 200.1155 L423.5831 199.4522 L423.7988 198.903 L423.8589 198.3668 L423.8214 197.3892 L424.0865 196.2016 L423.9769 195.7057 L423.8384 195.4469 L423.7768 195.3316 L423.3943 194.8031 L423.5025 194.4377 L423.9352 194.1299 L424.38 194.1777 L424.8318 194.305 L424.9873 194.517 L425.1768 194.7748 L425.8422 195.6578 L426.3265 196.8226 L426.5817 197.4968 L426.9713 198.5822 L427.3093 199.8578 L427.4917 201.0388 L427.4146 201.8305 L427.1247 202.2003 L426.5216 202.5776 L423.5569 201.0443 L422.8831 200.7311" stroke-dasharray="" fill="none" fill-opacity="1.0" stroke="#ff0000" stroke-opacity="1.0" stroke-width="1.0px" stroke-linecap="butt" stroke-linejoin="miter" stroke-dashoffset="0.0px"/>
</g>
</svg>