<?xml version="1.0" standalone="no"?>
<!DOCTYPE svg PUBLIC "-//W3C//DTD SVG 1.1//EN" "http://www.w3.org/Graphics/SVG/1.1/DTD/svg11.dtd">
<svg width="512px" height="512px" version="1.1" xmlns="http://www.w3.org/2000/svg" xmlns:inkscape="http://www.inkscape.org/namespaces/inkscape">
<g id="layer" inkscape:groupmode="layer" inkscape:label="layer">
<path d="M24.1232 44.3644 L30.6447 53.7028 L28.3447 61.0071 L28.8474 62.7526 L30.3825 66.2751 L32.9646 71.0866 L35.6155 72.6949 L46.8456 74.201 L47.0559 74.196 L48.2409 74.1377 L52.7053 73.9461 L53.4969 74.0212 L54.7154 75.1521 L54.8072 75.2693 L57.2547 77.6619 L61.3679 79.9914 L62.0986 80.6052 L65.4444 80.0819 L66.5247 81.2487 L64.6448 82.0052 L67.7997 85.6353 L66.9006 86.5715 L66.8341 86.9547 L66.6198 87.3986 L66.5384 87.8748 L66.5207 88.5307 L66.6069 89.4136 L66.7544 90.1942 L66.8692 91.4937 L66.8696 92.7163 L66.8007 93.2569 L66.3938 93.2892 L66.3882 93.495 L66.6633 93.4851 L66.9364 93.5279 L67.1294 93.6525 L67.3018 93.8968 L67.4681 94.2935 L67.4927 94.5155 L67.5455 94.7393 L67.5781 95.0388 L67.5773 95.3357 L67.5882 95.5875 L67.5181 95.864 L67.4988 96.0965 L67.6115 96.4598 L67.8508 96.652 L68.1038 96.8144 L68.2939 97.0686 L68.4857 97.3389 L68.5344 97.7314 L68.5992 98.0159 L68.5469 98.2515 L68.4256 98.3588 L68.3076 98.4636 L68.0905 98.7283 L67.8162 98.8765 L68.0168 99.1238 L68.4075 99.1703 L68.6097 99.1759 L68.8305 99.303 L69.1213 99.4053 L69.2736 99.6688 L69.2542 100.0017 L69.1539 100.0792 L69.0427 100.1654 L68.9231 100.4481 L68.9215 100.45 L68.9255 100.5485 L69.0794 100.6998 L69.4206 100.954 L69.5584 101.0513 L69.8266 101.2398 L70.0143 101.3706 L70.1154 101.4772 L70.1082 101.6632 L70.0196 101.8747 L69.8311 102.1425 L68.6508 102.4469 L67.8033 102.675 L67.4222 102.8182 L67.1064 103.0495 L66.9783 103.3613 L65.6232 104.1059 L64.3113 104.7389 L63.303 105.1816 L62.5429 105.5325 L67.448 108.269 L106.19 144.1048 L108.9763 148.4222 L113.458 161.7908 L122.9576 171.8192 L127.8845 177.7658 L130.8774 176.0737 L132.0774 176.6842 L132.5491 177.772 L131.8925 190.0193 L129.6528 195.8143 L130.2989 196.0287 L134.6308 195.166 L135.6242 195.0656 L135.6479 194.3311 L135.3394 193.6283 L135.5206 190.988 L138.3214 189.0214 L138.6707 188.5473 L139.0219 188.2932 L141.2056 184.8564 L147.7755 180.1892 L148.3757 176.4704 L149.0774 176.6947 L149.1132 176.6172 L149.3167 176.533 L149.5999 176.6197 L150.2355 176.7883 L151.9245 177.4552 L153.087 177.8023 L154.492 178.3001 L154.6918 178.4879 L155.2928 178.6794 L155.5656 178.4879 L155.6586 178.1953 L155.9869 177.4695 L156.4803 173.1791 L159.6868 171.2762 L159.2799 169.9932 L165.3181 170.6998 L166.2208 174.8879 L166.3006 174.9134 L166.788 174.9908 L167.7544 175.0361 L168.4262 175.046 L168.9036 174.8086 L169.4659 174.9425 L169.7257 175.116 L169.9461 175.46 L170.6703 175.6931 L171.3833 175.8022 L172.5334 175.8883 L172.9881 175.8549 L173.515 176.0718 L174.4939 176.8522 L174.9986 177.0524 L175.5859 177.3071 L179.6261 178.4042 L181.8243 186.2646 L181.927 186.5484 L182.0044 186.9085 L182.646 189.203 L182.2489 191.3029 L182.4652 193.2763 L182.5151 193.4182 L187.8786 194.8369 L193.3581 183.5982 L193.6538 183.7011 L193.6651 183.667 L193.8141 183.4941 L194.0083 183.3267 L194.3068 183.4005 L195.2514 183.8566 L195.9023 184.3345 L195.9297 184.4957 L196.0848 184.5502 L196.1114 184.5074 L196.3954 184.6357 L196.4252 184.6357 L196.8719 184.7659 L197.2743 184.9679 L197.7343 185.0857 L197.8511 185.1291 L197.8395 185.1632 L197.9744 185.2097 L197.2344 187.1323 L196.8751 189.027 L196.863 189.1156 L196.8803 189.0276 L196.9863 189.0419 L197.4721 188.7518 L197.6187 188.6198 L197.7778 188.4394 L198.0397 188.2256 L198.378 188.0992 L198.6189 188.1004 L198.8505 188.1612 L199.1655 188.4655 L199.4402 188.7971 L199.5039 189.6536 L199.698 191.5991 L199.657 192.9732 L199.5615 193.7486 L199.4447 194.3615 L199.5687 194.7793 L199.783 195.2546 L200.1951 195.854 L201.0277 196.6144 L201.5591 197.2286 L201.7045 197.4424 L204.21 199.4648 L204.104 201.197 L208.8262 203.2206 L209.3124 209.4956 L209.3439 209.4956 L209.3487 209.9635 L209.4627 211.4323 L208.8665 213.4961 L209.7568 213.8617 L211.743 214.5769 L211.7475 214.5459 L212.5934 214.8676 L213.4179 215.1465 L214.4435 215.527 L214.4403 215.5487 L214.6953 215.6404 L214.232 219.7678 L216.4314 219.2844 L216.663 219.4586 L217.374 219.3638 L217.55 219.44 L217.946 220.1477 L218.6864 220.8338 L219.2894 221.2831 L219.9754 221.6282 L220.5679 221.9833 L220.8946 222.3118 L221.2096 222.5349 L221.716 222.8268 L221.8469 222.9588 L221.9327 223.2129 L221.9766 223.5661 L221.6165 224.4133 L221.1911 225.1718 L221.1174 225.2629 L220.5079 226.6529 L215.4929 226.6467 L213.8574 223.6269 L213.5376 223.2432 L213.0957 222.6161 L212.8697 222.111 L208.3227 221.094 L203.8676 220.7098 L203.149 221.6933 L203.1582 221.7156 L203.2001 222.0974 L202.9818 222.5027 L202.3977 222.8361 L202.2777 222.8863 L201.1635 224.4114 L199.6022 224.1245 L199.3822 224.2131 L198.9826 224.2862 L198.6028 224.2695 L198.2096 224.1369 L197.3903 223.9212 L197.0358 223.6529 L195.3065 223.335 L195.2965 223.3474 L195.2453 223.4174 L195.2135 223.5116 L195.2062 223.5922 L195.1567 223.7204 L195.1885 223.9627 L195.2413 224.1065 L195.8262 224.8762 L196.0397 225.2332 L195.9466 225.5375 L195.8971 225.7482 L195.947 225.8058 L195.8552 225.926 L195.8246 226.0555 L195.599 226.2607 L194.1827 228.1111 L192.8852 227.5639 L192.9142 227.7151 L193.1632 228.1328 L193.2683 228.2351 L194.1948 229.1337 L193.1475 231.5629 L197.9611 239.7987 L209.5916 250.0587 L210.0105 252.0912 L197.5434 253.7457 L199.3842 255.5799 L199.0096 256.1562 L196.6451 254.3344 L195.0318 255.179 L195.5724 255.9598 L195.773 256.4648 L196.2612 257.201 L197.0463 257.9929 L197.9619 259.4435 L198.1625 259.9479 L198.5549 260.6072 L199.3786 261.2188 L200.1411 262.0714 L200.888 263.043 L201.1381 263.3349 L200.6809 263.6385 L201.1417 263.3392 L201.4628 263.8789 L201.7842 264.3201 L201.9792 264.5035 L202.1379 264.6844 L202.3538 264.8177 L202.5862 264.8988 L202.8376 265.1696 L203.1747 265.7812 L203.5333 266.2056 L204.0364 268.1432 L204.2607 268.5795 L204.5298 268.9512 L204.6922 269.0665 L205.1699 269.4581 L208.2261 270.6744 L208.4694 275.0985 L208.8029 275.1605 L208.9906 275.14 L209.2412 275.0787 L209.5332 275.0409 L209.8659 275.0155 L210.1817 274.9919 L211.1304 275.285 L211.4168 275.4498 L211.4929 275.5818 L212.0528 275.6128 L212.0528 278.6384 L212.0693 278.6514 L212.2897 278.7728 L212.5446 278.9073 L212.91 279.1303 L213.0115 279.3249 L214.5865 280.3033 L216.6526 279.434 L217.1529 278.9321 L217.5706 278.0448 L217.8654 276.0279 L222.1675 275.6066 L225.5471 278.5993 L227.5975 280.1422 L230.6387 275.6872 L227.9761 272.0872 L229.2329 272.0159 L229.2152 271.8969 L229.2768 271.7904 L229.4029 271.721 L229.541 271.6819 L229.7739 271.7135 L229.9463 271.6943 L230.3088 271.6838 L231.9483 271.804 L233.0073 271.7408 L233.9015 271.4273 L234.4667 271.3771 L235.0036 271.5592 L236.1223 271.6249 L236.4514 271.5977 L236.633 271.6671 L236.8667 271.6863 L237.9486 272.0227 L240.0964 272.9881 L241.2626 273.433 L241.6541 273.5582 L243.3576 273.9157 L243.8362 274.1939 L244.1206 274.4578 L244.2829 274.5849 L244.8581 274.8073 L244.2777 276.0385 L244.2374 276.1574 L244.1709 276.2653 L243.5611 277.5584 L240.6648 276.9822 L240.6845 277.0336 L240.7063 277.3291 L240.6096 277.7678 L240.3913 278.2065 L240.3546 278.3701 L240.9589 279.9997 L242.3965 279.9055 L242.637 279.7741 L243.1192 279.7382 L243.6553 279.7351 L244.5604 279.7308 L245.4317 279.6236 L246.5604 279.4154 L247.4124 279.5399 L247.5828 279.5653 L248.6083 279.4978 L249.0474 280.2698 L249.3475 280.5208 L250.3566 282.2872 L250.8601 283.4546 L253.7563 288.5439 L259.0815 288.9529 L259.5851 290.4956 L257.8127 291.9331 L259.8872 293.062 L259.9432 293.0756 L260.4813 293.2968 L260.7295 293.4814 L260.8052 293.562 L262.002 294.2131 L262.6021 294.2131 L262.7492 296.9324 L262.8132 296.9696 L262.9917 297.14 L263.0235 297.2974 L262.8998 299.3853 L262.8914 299.5551 L262.9002 299.7211 L264.0197 299.6926 L265.1838 299.4993 L265.6422 299.5501 L265.9777 299.6431 L266.3322 299.6344 L266.327 299.8636 L266.3769 299.8996 L266.3959 300.174 L266.3822 300.5768 L266.296 302.086 L266.271 302.2657 L266.244 303.4156 L266.2557 303.5234 L266.3665 303.6678 L266.6227 303.8642 L267.0867 304.0711 L267.813 304.3214 L268.3967 304.4478 L268.7813 304.5401 L269.4279 304.6262 L269.9318 304.6882 L270.3515 304.7427 L270.9706 304.6801 L272.6572 304.467 L273.9426 304.2297 L275.2554 304.0519 L275.881 303.8431 L276.7776 303.6101 L277.1192 303.5166 L277.3158 303.5228 L277.4874 303.6108 L277.5329 303.8747 L277.4947 304.1318 L277.5144 304.1262 L277.3589 305.0401 L277.1265 306.5983 L276.9678 307.3405 L276.8707 307.9111 L276.8103 309.0907 L276.7039 309.3076 L276.6193 309.3893 L275.9595 313.2708 L274.312 313.4566 L273.8488 317.1429 L272.3797 317.3857 L272.4522 317.4142 L272.3833 317.6224 L271.5467 317.7475 L270.4329 318.0226 L269.1616 318.631 L267.1894 319.6228 L265.3071 320.1383 L265.0239 320.1823 L264.9264 320.5936 L262.1027 321.1884 L258.895 328.197 L258.2119 330.4241 L257.4981 332.8897 L256.9063 332.7417 L256.8201 332.7305 L254.8842 336.9611 L252.133 333.8388 L252.1229 333.8772 L252.1608 334.0178 L252.1841 334.392 L252.1616 334.7389 L252.0041 335.0691 L251.7213 335.7214 L251.5296 336.1111 L251.3515 336.7814 L251.0236 337.1388 L250.57 337.6177 L248.2047 336.1223 L246.8134 335.3281 L239.255 334.6689 L239.3399 334.0104 L239.1373 333.6722 L239.0974 333.2893 L239.3412 331.5045 L239.7428 330.1701 L239.8825 328.8437 L240.0686 328.3562 L236.6326 325.0728 L237.0854 324.4031 L237.7496 323.2446 L237.8826 322.8766 L237.802 322.5997 L237.4975 322.3971 L237.3222 322.1239 L237.0592 321.5366 L237.1039 321.1983 L236.3104 319.8378 L235.6437 319.2809 L235.4709 319.1706 L235.2538 318.9581 L233.1281 317.1986 L231.5853 318.7722 L234.3688 331.844 L233.4665 332.5936 L229.0899 325.4432 L229.1213 325.6186 L229.446 326.1594 L228.7548 326.4822 L228.1107 326.5193 L228.0172 326.2542 L228.0011 325.8936 L226.7302 326.839 L226.7528 327.0788 L226.7266 327.5056 L226.5228 327.7367 L226.2658 327.7875 L225.7542 327.7596 L225.529 327.7317 L220.4475 331.5095 L217.1202 326.4667 L214.7033 325.8342 L214.5325 325.828 L213.4586 325.7264 L212.5289 325.6093 L211.6657 325.4618 L210.8423 325.1378 L209.7568 324.6689 L209.5517 324.5642 L205.5232 324.0506 L204.7578 335.7283 L187.481 337.2956 L186.4293 336.1941 L186.0676 336.1861 L185.9173 336.1923 L185.7973 337.3699 L185.5318 338.1876 L185.5648 338.6411 L185.3445 338.765 L185.0964 339.5133 L178.6554 343.54 L180.6082 351.4896 L180.8692 351.992 L181.0432 352.251 L181.1065 352.5656 L181.1182 353.5655 L182.6513 359.8814 L179.1552 358.6933 L178.8813 358.7199 L176.0588 360.6253 L175.1811 361.5031 L174.1781 362.26 L173.0602 362.7488 L172.8641 362.8051 L170.2043 364.6263 L163.5256 380.4772 L153.3263 391.9979 L153.4314 403.5925 L153.9579 403.7405 L154.7333 404.1592 L155.1623 404.3883 L155.3678 404.5531 L155.3879 404.7748 L156.4957 405.3855 L157.3355 405.4573 L157.9756 405.3793 L158.2112 405.1346 L158.5371 404.698 L158.7933 404.4769 L159.3295 404.4063 L160.1564 404.659 L161.0519 405.0566 L161.7214 405.8116 L161.9474 406.291 L162.1705 406.8998 L162.3679 407.4077 L162.2817 408.6241 L162.1673 410.0263 L161.8652 411.5505 L161.5526 412.5705 L161.5051 412.8504 L161.607 413.7472 L161.9047 414.151 L162.5488 414.3839 L163.0342 414.2452 L163.4386 414.0563 L164.1878 413.6246 L164.6478 413.5905 L164.8565 413.6067 L165.132 413.8792 L165.3705 414.2576 L164.4569 418.2405 L164.3578 418.5099 L164.1673 418.5309 L163.3475 418.2262 L162.9427 418.0578 L162.6011 418.012 L162.2728 420.0793 L163.1308 422.9095 L169.9908 426.5945 L170.7686 427.6225 L170.9406 427.9192 L174.3734 432.8866 L169.9948 443.4144 L172.0089 442.2873 L175.9565 444.5477 L175.0099 446.6966 L176.7178 448.9259 L184.0652 453.8304 L182.615 456.1093 L187.0218 464.4009 L189.334 473.7945 L190.7358 476.067 L189.8818 476.9834 L188.0732 476.5562 L183.8154 469.9739 L186.0591 468.4197 L182.611 461.5338 L181.4215 462.7104 L179.8356 465.4784 L174.3251 468.0729 L176.7529 470.7412 L176.8975 470.8607 L178.7984 472.8161 L180.2654 474.5264 L181.2088 475.9989 L181.9746 476.854 L182.236 477.1178 L182.3464 477.3574 L182.3621 477.6528 L181.9874 478.0584 L181.575 478.6243 L181.575 478.9327 L181.782 479.3414 L182.0801 479.6664 L182.3073 479.9556 L182.3278 480.0627 L182.3592 480.2243 L182.4889 480.4832 L183.6885 482.4132 L184.1953 483.0634 L185.1922 484.0064 L185.707 484.2182 L187.1032 484.3668 L187.9092 484.0262 L190.2987 483.8634 L192.4993 483.7606 L193.8939 483.2807 L191.9523 479.8875 L193.6401 478.1537 L194.0614 477.7221 L194.1283 477.5259 L193.9442 477.0701 L192.8429 475.584 L192.3088 475.0936 L191.4653 474.3295 L190.9005 473.4063 L190.5384 472.4991 L190.2722 471.5988 L190.2287 471.0997 L190.2907 470.5944 L190.5868 470.0854 L191.7839 469.0847 L193.8193 467.2698 L194.4063 466.7119 L194.2769 466.4016 L193.8995 465.9106 L193.4335 465.3291 L192.7753 464.4721 L192.7193 464.2145 L192.6814 463.9724 L192.8369 463.7594 L193.3058 463.3488 L194.0735 462.7599 L194.708 462.2813 L194.8949 462.0478 L194.9928 461.5159 L194.8312 459.6346 L194.8739 458.3417 L194.6419 457.9583 L194.1396 458.2153 L192.9122 458.894 L191.6631 459.6761 L191.0709 458.4023 L190.7559 457.5688 L190.7124 457.1707 L190.7793 457.0171 L190.9376 456.8821 L191.276 456.6542 L193.3468 455.3674 L195.2365 454.3128 L196.0397 453.9952 L196.6221 453.4991 L199.3923 452.068 L199.5405 451.738 L199.5345 451.481 L199.1043 450.7664 L198.4707 449.9793 L198.513 449.599 L198.7043 449.3092 L199.4886 448.7686 L200.7603 447.9846 L201.8451 447.2824 L203.1184 446.6154 L203.9381 446.1442 L204.554 445.9027 L204.6913 445.8797 L205.213 445.5943 L208.5282 454.4683 L211.8462 452.9257 L212.0157 452.8223 L212.7227 452.4922 L213.5803 452.112 L214.5652 451.5163 L215.5525 450.9422 L215.9694 450.5657 L216.8826 450.4375 L217.084 450.4914 L217.7607 450.1768 L218.4991 451.5887 L222.0781 449.9143 L224.8309 448.4992 L225.2209 448.3395 L225.7316 448.2243 L226.3286 448.3989 L226.7564 448.5859 L226.965 449.0306 L227.0911 449.0547 L226.3451 447.6205 L226.2243 447.0483 L226.1546 446.4123 L226.3725 445.7447 L227.3316 444.6158 L231.0979 438.0019 L231.7618 437.901 L232.0683 437.7449 L232.5279 437.6941 L233.0866 437.6991 L239.9961 436.6475 L240.202 436.5218 L238.6266 433.8836 L248.3707 436.6581 L254.9889 442.374 L265.8287 463.1005 L268.0804 472.4446 L270.445 475.9803 L274.6757 479.1135 L274.6858 478.9606 L275.1922 478.3277 L275.5313 477.2317 L276.2463 477.0088 L276.7768 477.0063 L277.0403 477.0163 L277.3488 477.0776 L277.8048 477.0615 L278.7011 477.1364 L279.3794 477.132 L280.807 477.493 L281.3029 477.6342 L282.0376 477.8491 L282.6181 478.3698 L282.9371 478.6274 L283.4032 478.6349 L283.6807 478.4324 L283.9675 477.6522 L284.7369 475.7698 L285.1683 476.1605 L285.329 475.9933 L285.6533 476.1475 L286.0283 476.3085 L286.79 477.0423 L287.3721 477.667 L287.8337 478.2064 L288.3054 478.7977 L288.701 479.2225 L290.3852 480.2658 L290.6788 480.2918 L290.991 480.3036 L291.7136 479.0763 L291.7966 478.9005 L292.8133 476.9339 L292.8456 477.0231 L293.4236 476.4645 L294.1209 475.7413 L294.7078 475.1853 L296.4427 471.2186 L295.2705 468.7169 L296.0669 466.91 L296.0185 466.8357 L296.1644 466.4413 L296.3182 466.0171 L296.6647 465.2858 L296.9869 464.4492 L297.3462 463.4467 L297.8763 462.5197 L298.1241 462.2515 L298.2715 461.9178 L289.9235 458.8327 L288.9544 460.7412 L289.3975 460.9951 L287.6774 464.8468 L284.0795 463.9229 L282.8444 463.7414 L281.4543 463.3897 L280.7309 463.0634 L268.4309 459.9052 L268.8498 458.5677 L267.6091 458.7597 L266.0825 456.9886 L266.1828 456.7397 L266.0567 456.5688 L266.0805 455.8659 L266.4019 454.7717 L267.2974 453.3065 L268.9405 449.7731 L269.1338 449.36 L269.7682 447.4954 L269.9797 446.5746 L270.2355 446.1206 L256.6928 435.4442 L254.8915 432.4475 L254.1833 432.0833 L253.5529 431.2597 L253.4131 430.8683 L253.37 430.3691 L253.2117 429.7925 L253.1025 429.4711 L251.9356 427.5296 L252.5128 426.4186 L254.5257 422.6309 L252.7372 421.6647 L253.5469 418.6486 L253.7185 418.6356 L253.9046 418.5359 L254.1346 418.5105 L254.3275 418.5879 L258.5176 418.264 L258.5619 417.8813 L258.6626 417.3716 L259.0928 417.0669 L259.722 416.9467 L260.3057 417.0731 L260.9349 417.5642 L261.2894 417.9958 L261.4944 418.3879 L261.4126 419.1137 L261.3534 419.6525 L261.5681 419.982 L261.8811 420.34 L262.3053 420.4892 L263.1625 420.3053 L264.4112 419.9771 L264.4426 419.9542 L264.3181 417.5958 L264.9167 417.506 L265.1161 416.258 L265.4299 415.8592 L265.7445 415.5724 L265.4299 414.4 L266.4325 414.257 L266.4571 414.2167 L266.8233 413.8352 L267.6313 413.4896 L267.4521 411.6811 L270.2919 410.9813 L270.5811 411.2389 L271.3126 411.1089 L271.8234 410.8921 L271.7582 410.5973 L271.8709 405.6549 L274.2476 406.5406 L274.822 406.1188 L274.776 405.9454 L274.9287 405.5032 L275.234 405.2288 L276.5045 404.4837 L277.8133 403.5844 L279.1297 402.0069 L279.0531 398.4703 L285.5784 401.4309 L286.0049 401.5108 L287.078 401.6514 L287.2372 401.6619 L289.6702 401.5176 L291.5541 401.1931 L292.0029 401.1658 L292.3497 401.3237 L292.3634 401.3442 L292.5515 401.3318 L292.6776 401.8013 L292.7287 401.8762 L292.9749 402.5941 L293.1384 402.918 L293.4486 403.0914 L294.3279 403.219 L297.1875 403.7727 L297.6113 403.816 L303.6881 403.0741 L303.863 402.9997 L305.2225 402.7105 L305.8569 402.4336 L306.8192 401.678 L307.7872 401.1286 L308.7898 400.3352 L309.6224 399.8738 L311.3352 399.5456 L311.481 399.5524 L312.7205 398.9039 L313.8121 396.9479 L313.9217 396.6785 L313.9922 396.6259 L314.5875 395.5587 L314.5783 395.485 L314.1787 394.3391 L320.3663 391.9558 L320.4594 391.8815 L321.2308 391.5278 L321.6827 391.215 L322.1665 391.2627 L322.67 391.0688 L323.5981 391.9236 L323.8898 391.7291 L323.5691 391.2484 L323.6537 390.8979 L323.9635 390.6619 L324.245 390.429 L324.4279 390.4655 L324.6003 390.7152 L324.6777 391.1159 L324.7047 391.2615 L324.871 391.1283 L324.6769 390.595 L324.672 390.5492 L324.3538 390.2017 L323.6448 389.4213 L324.7888 388.7053 L324.8992 388.4358 L325.3355 388.1354 L325.7258 388.1187 L327.2416 387.1698 L327.5703 386.7022 L328.2051 386.3751 L329.5678 386.3708 L329.8575 386.486 L331.1856 386.4606 L329.2198 385.6306 L313.2603 388.3559 L299.6048 395.9123 L292.0963 394.9957 L275.0935 394.0047 L275.8669 390.7096 L259.4159 387.5817 L254.1229 381.2515 L258.9526 384.3361 L260.5115 382.7628 L263.7139 385.5315 L271.0049 385.2218 L277.4097 389.093 L292.4347 391.9979 L293.619 389.6504 L297.3772 392.3324 L303.9149 391.0379 L307.218 385.2961 L321.3931 380.0251 L324.1927 378.3031 L324.5351 375.937 L324.2813 373.2735 L327.2017 368.219 L328.0839 363.1211 L329.9046 361.5291 L336.9434 355.6035 L338.7041 354.3249 L342.4052 353.3263 L344.3343 353.2929 L345.411 352.99 L352.9811 354.8409 L352.5102 355.8166 L352.0953 356.1975 L345.3437 356.2873 L344.2332 356.2427 L343.011 356.5004 L340.8531 357.3354 L333.3084 362.1238 L327.0486 372.7284 L325.2158 381.1462 L322.2551 382.354 L322.6217 383.9644 L323.0487 385.4943 L327.4595 384.3485 L329.3004 383.9582 L329.0667 382.5336 L329.8643 382.1434 L334.7062 383.0725 L339.0646 379.6906 L335.7293 378.4642 L337.7313 377.8819 L333.9046 376.2962 L334.4685 376.2962 L340.9337 375.8317 L341.3567 374.3141 L341.5621 373.5274 L343.1774 365.5183 L343.7055 365.2878 L343.7204 365.2674 L343.8513 365.1361 L344.356 364.8617 L344.9631 364.7396 L345.1866 364.6653 L345.6434 364.6734 L346.3065 364.6089 L347.7477 364.591 L349.3441 364.5625 L350.0047 364.7533 L350.988 364.7688 L350.6013 366.5403 L348.4837 372.1523 L348.2311 373.2227 L348.2202 373.3162 L348.2835 374.6542 L348.4104 375.338 L348.7387 377.2743 L348.9864 378.3688 L349.4331 377.758 L349.5157 380.5831 L349.5676 380.7745 L349.5805 382.3193 L350.2351 382.7033 L350.4273 382.7089 L350.756 382.7566 L351.0919 382.6693 L352.1066 381.3264 L352.1763 381.127 L352.4196 380.4394 L352.8035 380.1675 L353.2486 380.253 L353.6341 380.5076 L354.022 381.0421 L354.8953 381.8263 L355.4552 382.2301 L353.8439 376.1414 L355.717 371.0374 L360.0231 366.8067 L358.8993 371.5639 L356.6516 372.8956 L357.2316 374.6176 L357.6292 374.757 L357.7799 374.7242 L358.2528 374.8072 L358.7301 375.0853 L359.1365 375.1751 L359.6489 375.3652 L359.9845 375.4198 L361.669 374.9577 L364.1762 373.9802 L364.697 373.6891 L365.0853 373.3682 L365.3355 373.0492 L365.727 372.7433 L366.1508 372.5847 L366.5576 372.4726 L366.9894 372.5376 L367.5107 372.6541 L368.1423 372.9656 L368.6313 373.2549 L373.4091 375.1001 L374.0951 375.2934 L374.6586 375.3888 L375.3958 375.4371 L376.2538 375.7741 L377.49 376.2999 L378.4129 376.7057 L380.5659 376.3551 L380.8342 376.2752 L382.2489 376.0807 L387.1246 375.3052 L386.5647 376.6307 L392.615 378.427 L395.6884 378.1606 L396.3128 374.1345 L401.2755 374.7972 L401.779 376.3706 L397.8032 376.6493 L395.6498 379.563 L395.7384 379.589 L397.9635 380.6785 L399.6429 381.6318 L400.4876 382.1558 L401.3375 382.8247 L401.553 383.2658 L401.6086 383.5736 L401.578 383.9075 L401.5969 384.079 L401.5454 384.4265 L401.3258 384.6693 L401.1442 385.0025 L401.1228 385.3191 L401.2026 385.5897 L401.3009 385.9595 L402.0976 387.1302 L402.299 387.4981 L402.2737 387.8821 L402.0843 388.1435 L401.543 388.4618 L401.7468 389.2169 L394.9191 389.6133 L395.9221 390.852 L396.1154 393.311 L391.7852 392.1032 L387.0642 398.6438 L384.4459 399.5295 L373.2798 397.052 L373.3515 397.1251 L374.3066 397.7525 L375.5722 398.9596 L376.2006 399.3882 L376.8101 399.6428 L377.3563 399.8032 L377.9013 399.9227 L381.3015 400.2913 L381.697 400.4529 L382.4342 400.8109 L382.5115 400.8543 L386.4438 401.0964 L386.6078 402.2478 L387.9056 402.6139 L388.2847 402.5581 L388.2847 400.7682 L394.057 399.9382 L395.5515 398.6623 L397.908 398.2845 L398.1738 399.9258 L399.3379 401.3813 L402.7901 402.3909 L402.9722 404.1517 L403.2759 404.3115 L403.4769 404.3766 L405.3935 402.3073 L405.6984 401.7827 L406.6366 400.6486 L406.985 400.5898 L407.1123 400.4523 L407.3036 400.5434 L407.6492 400.5099 L408.0682 400.6982 L407.064 399.5542 L407.4466 397.6652 L407.4507 398.012 L412.5225 402.8944 L413.2875 403.9765 L413.8635 407.2219 L413.7064 409.1109 L413.7362 409.104 L414.68 408.743 L415.1102 408.5392 L415.567 408.5788 L415.8558 408.6141 L416.3674 408.8495 L417.3756 409.2323 L418.4616 409.8696 L419.4111 410.4827 L420.2691 410.7695 L420.7504 411.1374 L421.2737 411.5783 L421.747 412.49 L421.9762 413.1595 L421.8948 413.5385 L421.4549 413.8612 L421.148 413.9851 L421.3075 414.7654 L420.8024 415.4126 L420.7782 415.5099 L420.6638 416.1886 L420.5889 417.6032 L420.406 417.976 L420.1144 418.1197 L419.7059 418.1141 L418.8894 417.9011 L418.8673 417.8918 L418.5523 418.2956 L406.6168 415.0689 L404.8001 417.4843 L405.3278 414.4867 L402.6934 413.9975 L398.7418 413.2419 L396.9734 417.1932 L389.191 418.1655 L368.7622 418.4659 L365.6263 418.5124 L362.6866 416.5955 L360.4304 416.559 L360.1782 416.961 L363.4716 417.7066 L364.2164 418.7229 L367.4349 420.6924 L372.873 419.9678 L373.5658 420.4508 L372.9857 424.3773 L374.3755 421.5842 L383.9222 420.135 L393.6341 421.7266 L396.5541 423.7345 L396.8232 423.7413 L397.2558 423.8676 L398.629 424.1655 L400.0683 424.7136 L400.2507 424.791 L402.5282 425.3187 L402.5266 425.7943 L402.7611 426.3065 L402.5967 426.8471 L402.5117 427.0236 L402.4698 430.4385 L402.5536 430.4583 L402.7796 430.6794 L402.8187 431.3476 L402.7293 433.1386 L402.4831 434.9302 L402.4098 435.3767 L402.3836 437.5065 L402.3792 437.8409 L408.4214 438.9804 L408.1306 439.7991 L408.1975 439.9564 L408.0585 440.7837 L407.6915 441.6198 L407.331 442.0477 L407.0277 442.9004 L400.0227 440.157 L399.1752 440.0678 L398.3418 440.3471 L397.8999 440.2388 L397.5309 440.0833 L397.3086 439.8715 L386.5445 438.7389 L380.4298 445.1979 L381.9081 446.164 L376.1116 450.0158 L375.942 449.8492 L375.8425 449.9564 L375.4671 450.3589 L375.2109 450.4778 L375.1187 450.4573 L374.991 450.1099 L374.5571 448.4893 L372.5426 446.5108 L370.5084 450.6165 L370.2945 451.4153 L370.1411 452.1547 L369.9316 452.769 L368.7473 457.1911 L368.7989 457.7757 L370.8508 458.0971 L370.6651 458.811 L370.7356 458.8847 L370.823 459.2278 L370.6293 459.5517 L370.4089 459.8836 L370.3783 459.9133 L370.2385 460.4502 L372.2647 461.3047 L371.928 461.7246 L371.9251 461.8168 L371.6387 462.3029 L371.0051 462.8757 L369.6142 464.6114 L370.0573 468.4259 L369.3527 468.211 L368.9113 468.4333 L368.1354 468.3336 L367.6662 467.6964 L366.581 467.3652 L365.7588 467.3961 L365.6775 467.5113 L365.702 467.7553 L367.045 470.6241 L367.5489 471.3554 L367.5969 471.6415 L367.5699 471.7455 L367.6162 471.844 L367.5518 471.8167 L367.5417 471.8551 L367.2086 471.9251 L366.9266 472.0006 L366.0372 471.7344 L363.951 470.9381 L363.2247 470.2724 L362.8114 469.9145 L362.7611 469.6105 L361.5192 468.5188 L361.4729 468.5491 L360.8272 468.1237 L360.6535 467.902 L360.4566 467.7429 L360.2725 467.7026 L359.713 467.8797 L359.2803 467.8543 L358.8215 467.5404 L358.4558 467.463 L357.7094 467.1751 L357.0798 466.936 L356.6838 466.5818 L356.4558 466.227 L353.9793 465.3842 L348.1663 460.5753 L347.7546 460.4725 L347.3079 460.2204 L346.8712 460.0576 L346.4607 459.5907 L345.5709 458.4284 L342.7669 456.1087 L342.412 455.9229 L342.002 456.0436 L341.5158 455.9768 L341.3844 455.8709 L341.2366 455.6157 L341.0235 455.308 L340.7017 455.1024 L340.4749 454.9463 L340.4471 454.8955 L336.2026 452.6761 L334.0693 449.5879 L330.4077 449.0145 L328.1153 447.6137 L328.1801 448.1017 L328.3642 448.2583 L328.7912 448.7438 L329.3511 450.3911 L330.1435 450.7911 L330.8838 451.1045 L332.7984 451.9838 L333.9267 452.3925 L334.3589 452.7201 L336.0516 454.82 L336.3182 455.1668 L339.1194 458.0896 L339.3917 458.3045 L340.2425 459.1764 L340.6872 459.9139 L343.2342 462.8776 L344.1727 463.747 L344.4942 464.2969 L344.5461 464.4046 L346.5494 466.7354 L354.4067 473.0843 L356.9956 473.3703 L366.7868 481.0894 L368.1822 481.0429 L370.1403 483.4609 L371.07 481.1147 L375.1106 481.0956 L376.4113 483.6931 L374.7569 485.0733 L378.0367 485.9488 L379.4852 488.5438 L380.0584 490.1041 L381.1093 489.6614 L382.1546 489.2206 L382.2872 489.1648 L383.0505 489.0168 L383.8473 488.8621 L382.3552 486.5525 L380.4378 483.2237 L380.8431 481.8683 L380.8886 479.3537 L383.5439 479.8528 L385.5439 481.0386 L387.5085 480.7259 L391.0573 481.6237 L391.1052 481.6194 L391.303 481.6863 L392.7169 482.0435 L392.5803 481.7909 L392.3487 481.4076 L392.1336 481.0219 L392.0619 480.825 L391.7505 480.6256 L391.4484 480.5129 L390.8615 480.4219 L389.7997 480.1575 L388.8083 479.7228 L388.3314 479.2429 L388.1663 479.0423 L386.0905 479.3147 L383.6785 476.2156 L383.8924 474.2484 L386.0684 472.1406 L387.5701 471.8743 L391.3944 465.7434 L391.5342 465.4264 L392.1557 464.261 L392.4196 464.0188 L392.4756 464.0108 L392.7261 463.6089 L394.4812 464.5861 L397.2767 464.1724 L400.1557 462.3079 L401.6336 462.3265 L408.3812 466.6859 L413.2593 469.5591 L412.6067 472.0855 L413.2254 472.9338 L413.5618 473.1573 L414.135 473.4979 L414.4198 473.732 L414.7191 474.0793 L414.9386 474.4942 L415.1569 475.5822 L417.3688 478.615 L418.2179 479.3463 L420.8866 481.1878 L421.3361 481.5773 L421.8529 481.7841 L422.4209 481.9265 L423.0239 482.1234 L423.2503 482.2194 L424.1353 482.1785 L424.5905 483.7141 L425.9238 481.5346 L424.6855 484.3525 L424.6348 485.5946 L424.1051 487.5692 L424.1856 487.7327 L424.5099 487.7364 L424.7907 487.6497 L425.1439 487.454 L425.6946 487.3828 L426.2195 487.5382 L427.011 487.7704 L427.6345 488.1562 L427.8565 488.3717 L428.238 490.9029 L429.8053 491.1567 L430.0837 491.327 L430.1727 491.483 L431.3094 489.8565 L432.9126 490.5252 L437.8753 482.2547 L438.0973 481.7742 L438.7273 481.2516 L439.3923 481.3581 L439.9676 481.5135 L440.7273 481.464 L441.0983 481.586 L441.3234 482.0144 L441.3645 482.4918 L440.8735 483.9853 L440.7112 484.703 L440.9045 485.5556 L440.8529 486.2107 L440.6262 486.5383 L440.1351 486.8497 L439.6389 486.9091 L438.8896 486.594 L438.2354 486.5314 L437.549 486.5314 L436.9791 486.5903 L436.9323 486.5965 L433.9036 490.327 L433.7094 496.2587 L435.0943 496.5633 L435.2691 496.837 L435.3847 497.546 L435.9821 497.5466 L434.6246 500.9272 L439.5688 504.8062 L440.3853 504.7387 L440.7812 504.2589 L440.7418 504.179 L441.1764 503.7803 L445.0668 499.0685 L446.9226 496.8036 L448.8762 499.0449 L445.0914 504.4236 L445.8007 504.3858 L446.2249 504.5443 L446.6611 505.0811 L446.6982 505.1752 L447.5195 504.0477 L447.3854 504.057 L447.3129 503.6465 L449.466 500.4566 L449.8575 500.0845 L450.2087 499.6201 L450.4283 499.4152 L450.7465 499.2759 L450.9121 499.3415 L451.9175 497.9057 L453.1259 498.6796 L452.7191 499.8437 L453.9517 499.8622 L454.9652 500.0635 L455.4981 499.8313 L456.1837 499.2524 L457.1605 498.7669 L457.5134 498.7428 L457.8949 498.9143 L458.0056 499.3669 L458.3706 498.6053 L458.149 501.9983 L456.5217 505.1189 L455.0409 505.0879 L454.9998 505.1059 L454.6897 505.2346 L453.7044 505.1077 L453.4647 505.0551 L448.5379 504.9517 L447.6356 506.8401 L446.7159 508.8864 L447.0785 509.4522 L447.6855 510.1023 L450.5237 512.0 L451.2835 511.3982 L451.9723 510.3376 L451.967 510.0336 L451.5308 509.9048 L451.957 509.4126 L451.9529 509.1761 L452.848 508.0685 L454.2522 506.263 L454.8431 506.0804 L454.8983 506.0166 L454.9837 506.0371 L456.3847 506.4748 L458.7899 507.0271 L460.4515 504.883 L461.4183 503.4793 L461.9226 503.1722 L462.1111 503.0763 L462.2135 502.9394 L462.3226 502.9685 L462.3633 502.9481 L462.9635 502.8534 L463.6656 502.8936 L464.4978 503.3289 L465.1737 503.5561 L465.7594 503.8911 L468.1429 504.5307 L467.218 505.4612 L467.4907 505.7219 L469.6333 506.2024 L476.0623 506.2581 L480.4328 506.159 L483.18 500.1223 L485.0289 499.7879 L486.0642 500.2647 L487.8768 495.3919 L482.1448 491.2496 L475.0834 494.2402 L477.9112 491.0948 L476.8034 488.6676 L474.5445 486.8064 L473.51 486.1698 L472.3793 485.0225 L467.0795 480.6553 L460.8628 470.1263 L460.7303 469.9832 L459.8272 468.8018 L458.5768 466.2549 L458.2135 465.6394 L454.137 462.89 L454.8508 462.7383 L454.0947 462.3296 L453.6141 461.8893 L453.6158 461.7295 L456.7642 462.355 L458.2743 463.4615 L458.2506 463.8083 L459.5186 464.8591 L465.1415 475.2986 L465.6221 475.5574 L467.4138 474.9277 L464.002 472.1784 L462.4189 467.9553 L458.3666 462.5556 L453.5731 461.1313 L441.7585 464.4566 L443.5997 462.8113 L443.5115 462.8039 L443.5268 462.5333 L443.5011 462.3457 L443.7363 462.0961 L444.007 461.932 L444.2084 461.714 L444.6342 461.5927 L445.006 461.0112 L445.8692 460.7034 L446.2479 460.4446 L446.8174 459.9356 L448.1463 457.7466 L437.1946 443.9594 L432.542 428.57 L415.0478 419.912 L429.1987 425.0895 L431.1966 425.3063 L432.3124 423.244 L432.9227 421.5601 L434.0566 418.4319 L433.541 416.5181 L426.2903 412.0899 L408.7276 397.9934 L409.6339 398.1792 L417.6459 403.8278 L416.9813 397.6528 L409.8353 387.7551 L411.1243 386.4854 L413.2311 390.1831 L411.9501 384.6644 L405.2029 379.4924 L410.4839 379.1021 L413.4043 383.5804 L414.9068 391.4343 L417.2753 391.6882 L419.7889 398.012 L418.2179 398.9906 L419.7003 400.155 L421.3156 403.6482 L425.5935 403.9455 L431.6075 411.3529 L430.4418 411.3275 L428.0374 410.8847 L428.7959 411.8731 L432.969 415.2919 L433.5088 415.8802 L434.8623 414.1833 L433.9471 413.5168 L432.8083 411.3777 L432.0103 409.0985 L433.618 408.6569 L435.8073 409.973 L435.8327 407.6065 L439.2207 407.3705 L437.4818 405.4065 L436.4453 404.2366 L434.2637 403.4432 L432.9348 402.9242 L432.8546 401.4328 L432.8252 401.4061 L432.8417 401.1869 L432.8208 400.7985 L432.9316 399.9828 L432.9775 399.3666 L433.0371 399.2055 L433.0613 399.0265 L434.6568 391.4343 L436.7434 391.5334 L443.8974 390.468 L444.7756 386.7765 L448.2358 387.1977 L449.126 383.0911 L446.5157 381.8027 L446.6567 380.227 L447.2972 373.5089 L447.893 373.3447 L447.9324 373.2406 L448.4883 372.2217 L448.7812 369.9057 L448.9761 369.3872 L449.0837 367.6033 L449.2621 366.9108 L449.2847 366.7782 L449.3028 366.7534 L449.364 366.5156 L449.4954 366.4895 L449.563 366.3966 L450.1262 366.147 L450.7215 366.2232 L450.7533 364.9979 L440.6386 361.368 L440.1452 361.0088 L436.747 359.4725 L435.9285 359.1139 L431.8895 358.023 L426.8422 356.8832 L426.4873 357.1124 L426.5131 357.1255 L426.7226 357.3516 L426.2501 357.7201 L425.753 358.059 L425.3961 358.2721 L424.7661 358.5601 L424.0185 359.0464 L422.5699 360.1725 L421.6125 361.2621 L421.26 361.7304 L421.1428 361.9924 L421.1665 362.0798 L421.3583 362.2644 L421.5057 362.8188 L421.5077 363.3372 L421.6725 363.9449 L421.9041 364.2218 L421.867 364.4219 L421.6201 364.508 L420.4753 364.4386 L420.0805 364.3816 L419.3861 364.4826 L418.8971 364.6393 L417.9291 365.0425 L417.0083 365.6632 L415.7748 366.5831 L415.3898 367.1883 L415.2431 367.5853 L415.1291 367.5897 L414.945 367.8727 L413.2891 367.0371 L413.0256 366.9182 L413.3072 366.129 L413.3153 366.0665 L413.5211 365.2829 L414.2006 363.4797 L414.651 362.3653 L415.2814 360.5999 L414.7058 359.6993 L414.5753 359.6063 L414.189 359.1895 L414.0355 358.9088 L413.7664 358.5409 L413.3068 358.2213 L413.0607 358.1184 L412.6494 357.8279 L412.2615 357.652 L411.6214 357.6216 L411.2637 357.6421 L410.7739 357.4847 L410.5117 357.2834 L410.0404 356.7525 L409.443 355.8816 L409.182 354.9103 L408.4899 354.3621 L408.9612 351.4444 L405.7838 352.2113 L405.3206 352.7137 L404.8021 353.6001 L404.461 354.3658 L404.1903 355.5719 L403.976 356.2737 L403.665 356.7501 L403.1107 357.3039 L401.4922 359.0166 L399.2961 361.2689 L398.5972 361.8277 L398.4518 362.0494 L391.769 360.8105 L391.7602 359.6782 L391.6901 359.6008 L391.564 359.2694 L391.45 358.6834 L391.5455 357.4674 L391.6494 356.7779 L391.6313 356.4608 L391.6377 356.0563 L391.4758 355.6487 L391.4585 355.5359 L389.0903 354.6408 L389.1258 354.263 L389.0033 354.2518 L388.8031 353.9247 L388.7366 353.4118 L388.735 352.531 L388.7451 351.0418 L388.9965 350.1702 L389.2236 349.4312 L389.363 348.738 L389.6462 348.1798 L389.7191 347.9717 L390.1215 343.701 L389.5737 342.0854 L389.3018 341.4406 L389.2539 341.1426 L388.4579 338.7947 L388.7125 338.0805 L388.7278 337.9677 L388.7246 337.4876 L388.9791 336.9809 L389.2382 336.393 L389.4549 335.9488 L389.4839 335.9141 L389.6825 335.3566 L392.7684 335.9835 L393.3259 335.7747 L394.2125 334.7024 L394.2226 334.6677 L394.4675 334.3648 L394.8345 333.9138 L395.3082 333.3513 L395.6981 332.8687 L396.2794 332.15 L395.7356 332.0199 L395.3456 331.9722 L394.6991 331.9004 L394.0506 331.691 L393.7739 331.59 L392.3612 331.2803 L392.1356 324.1063 L393.5455 321.1946 L396.0389 319.9308 L388.4881 318.8831 L388.2041 318.9761 L387.326 319.305 L386.1739 319.652 L385.4231 319.7207 L384.8644 319.6978 L384.4068 319.7554 L383.9774 319.9171 L383.0537 320.5174 L382.6006 320.8706 L382.5873 320.8644 L382.5969 320.8755 L382.4656 321.0527 L381.7913 322.0929 L382.5043 324.2736 L372.6434 318.9519 L369.2545 317.4266 L368.6369 316.7817 L368.2502 316.4632 L367.6146 315.8363 L367.3028 315.573 L365.3403 314.832 L365.2972 314.6685 L364.5923 314.4566 L364.492 314.1834 L364.6322 313.9975 L364.8883 313.951 L365.4289 313.9485 L366.0243 313.7144 L367.4934 313.9393 L370.129 312.9523 L370.3421 311.8533 L368.6998 310.5076 L369.0502 310.0213 L369.041 309.994 L369.8804 308.5003 L369.6694 308.1069 L369.333 307.7481 L367.2154 307.027 L363.145 305.3666 L361.4692 304.7582 L357.2558 300.3035 L357.6127 300.0191 L357.6014 299.8376 L357.8238 299.4157 L358.2894 299.0731 L359.1249 298.8135 L359.3383 298.6431 L357.456 297.2732 L356.8953 296.2193 L356.5589 295.7701 L357.8238 293.6555 L358.3921 290.8891 L358.0928 290.7689 L357.6477 290.42 L357.402 290.1945 L355.7215 289.1988 L355.6002 289.1201 L352.849 289.2391 L352.6609 289.3042 L351.4565 289.5979 L350.0796 289.8017 L349.848 289.7261 L349.5991 289.5966 L349.2974 289.4101 L349.274 289.3934 L348.708 289.4176 L347.3087 288.0712 L345.3405 286.1604 L345.007 285.8741 L344.4998 285.389 L344.3093 285.156 L342.3178 283.2166 L341.9484 282.9422 L341.0727 282.2488 L340.6646 281.7085 L340.4773 281.4241 L339.6447 280.6131 L336.12 282.3418 L339.0485 286.0594 L348.8087 295.1425 L352.2286 293.228 L353.715 294.3432 L352.2891 295.2602 L350.6093 298.0855 L358.2789 312.1556 L355.4371 316.6082 L352.9014 319.9308 L350.8277 320.7355 L347.6406 322.6876 L344.9337 322.0929 L346.8241 319.4234 L350.847 315.8233 L354.7785 313.8655 L354.565 310.0553 L349.0786 301.7471 L348.7532 300.5706 L348.2597 300.8283 L348.5401 302.8022 L350.9288 307.9055 L351.5342 308.8695 L352.9138 309.6997 L354.4602 312.8061 L354.0816 313.8841 L352.0728 314.2645 L350.5811 311.7071 L348.9884 310.2381 L347.6986 309.3633 L346.8015 308.9705 L345.3659 308.4774 L345.007 308.7128 L340.2449 306.0778 L338.7267 304.9447 L332.4685 303.1839 L331.4031 302.4658 L331.3463 302.4354 L330.9076 302.319 L330.5922 302.2471 L330.2756 302.0581 L330.1874 301.8159 L329.6198 301.5123 L329.1715 301.109 L329.1026 301.0941 L327.9489 301.008 L327.182 300.5687 L326.2817 300.1821 L324.8734 299.7162 L324.0686 299.438 L323.0926 299.3928 L323.1623 299.0408 L323.0777 298.8593 L323.2299 298.236 L323.3637 298.0248 L323.4096 297.793 L323.2948 297.7459 L321.7246 298.4733 L321.6815 298.4876 L321.3399 298.5545 L321.2658 298.5489 L320.0695 298.7249 L319.9631 298.8141 L319.6223 298.8228 L319.4523 298.7943 L316.7563 299.0229 L316.1392 297.8903 L316.0977 297.7546 L315.9309 297.5186 L315.6566 296.8482 L315.7577 296.6388 L315.7021 296.4659 L314.795 296.202 L310.3197 298.9033 L307.5822 298.6976 L305.3167 297.0756 L299.9935 294.5787 L299.9609 294.588 L299.782 294.6567 L298.6864 298.0111 L284.761 295.9665 L284.9906 294.5663 L292.1406 296.2887 L291.7523 294.1165 L291.652 294.0774 L291.4019 293.4269 L291.1058 292.1983 L290.5286 290.4963 L289.8345 288.4931 L289.5018 287.7911 L289.1215 287.1083 L285.7278 284.3679 L287.758 283.9403 L287.7914 283.6721 L287.6287 283.6113 L287.6412 283.2588 L288.0778 280.8622 L288.2285 279.8367 L288.2837 279.1638 L288.3409 278.9215 L288.4049 278.7741 L288.4106 278.7295 L288.4267 278.7239 L288.6249 278.6725 L288.7973 278.6539 L289.2585 278.6749 L290.9064 279.1273 L292.3859 279.3181 L292.6675 279.2871 L292.9934 279.2462 L293.0957 279.118 L293.3132 278.7134 L293.7458 277.6123 L294.288 276.8781 L294.9515 276.0905 L296.9301 272.467 L296.9551 272.3716 L297.0594 272.1869 L297.1698 272.1312 L297.3712 272.1089 L297.8981 272.1386 L298.9905 272.4992 L299.6535 272.7043 L302.0741 271.734 L297.349 270.2593 L302.1224 269.714 L304.9131 266.5997 L305.4178 265.4782 L306.0233 263.6837 L304.8346 262.6855 L303.9355 260.9703 L303.2221 260.4312 L302.5305 260.0873 L302.0998 259.9324 L300.3351 259.2297 L299.3917 258.7755 L299.1786 258.6181 L298.0741 258.1515 L296.1724 254.7663 L296.0294 254.7143 L295.4912 254.3419 L295.2318 253.9217 L295.1626 253.0716 L295.4006 251.8737 L295.4083 251.6909 L292.8133 249.7613 L292.8133 249.4843 L292.7871 249.4428 L292.7968 249.0233 L292.8133 248.7977 L292.8133 247.8651 L287.1779 244.0231 L287.48 237.882 L289.3515 239.0935 L290.6236 239.7126 L292.5789 240.9606 L292.6401 240.9972 L293.9614 239.4002 L294.1064 239.0086 L294.112 238.7837 L294.1515 238.4372 L294.5176 237.6118 L294.831 236.7963 L294.9664 235.6939 L295.283 235.1324 L295.6278 234.7302 L295.9541 233.8131 L295.9263 233.6705 L296.4173 232.4336 L296.5132 232.244 L296.8133 231.403 L296.6864 230.9581 L296.4822 230.5714 L296.178 229.9374 L296.1225 229.736 L296.1289 229.4888 L296.1627 229.4107 L296.0399 229.1504 L296.3255 229.1504 L296.4802 228.9682 L297.1569 228.7141 L297.9355 228.6286 L299.0199 228.5765 L299.689 228.509 L299.8014 228.4631 L299.2624 222.6991 L299.9254 222.5405 L300.4124 222.2907 L301.1516 222.0974 L302.9643 221.8371 L303.8251 221.6382 L303.8666 221.7522 L304.0309 221.7417 L304.18 222.0844 L304.2686 222.3831 L304.2875 222.8125 L304.2815 222.8937 L304.3633 223.1187 L304.5111 227.9977 L305.127 229.3481 L305.181 229.402 L305.4545 229.3499 L307.4138 228.8945 L308.1546 229.05 L308.2529 228.9694 L308.611 229.076 L309.0404 229.1182 L309.2877 229.1244 L310.8716 228.4997 L311.0657 228.6732 L311.191 228.6782 L311.4001 228.8219 L311.6824 228.9248 L311.9322 229.081 L312.1791 229.2948 L312.536 229.3902 L312.7189 229.4764 L312.9328 229.5371 L313.1789 229.6561 L313.3734 229.8395 L313.4657 230.1518 L313.5785 231.9837 L313.9052 232.4454 L314.2057 232.7751 L314.5678 232.987 L314.7479 232.9672 L314.8884 232.9226 L315.0616 232.7757 L316.1807 230.08 L317.0367 230.2064 L317.1664 230.3799 L317.2409 230.3929 L317.4471 230.5045 L317.6385 230.6594 L317.7948 230.7592 L318.0372 231.113 L318.1742 231.5666 L318.2088 231.8845 L318.2064 232.0519 L318.2366 232.1132 L319.3355 232.6288 L320.973 233.8403 L322.005 235.3208 L322.633 236.6104 L323.4072 237.033 L325.4901 237.8628 L326.1455 238.0468 L327.4913 238.4465 L327.7584 238.4949 L329.0667 238.4459 L328.9967 238.8667 L329.2569 238.9782 L329.3826 239.1549 L329.2774 239.9834 L329.0688 240.7382 L328.5205 241.7253 L328.4384 242.2198 L326.9592 243.5348 L326.4964 244.0944 L326.295 244.38 L326.0106 244.4402 L325.9312 244.4488 L325.3649 244.9526 L322.2229 244.9526 L321.7919 244.4271 L321.4217 244.046 L320.345 243.9339 L318.6632 243.6222 L318.2983 243.5807 L318.119 243.5261 L316.9915 243.3396 L315.4105 246.8389 L316.5307 247.2182 L317.4979 247.3458 L319.4592 247.388 L321.6682 247.6123 L321.9143 247.6736 L322.148 247.6966 L322.6451 247.7096 L322.8557 247.774 L322.9186 247.8434 L323.6448 246.5018 L323.2622 247.5986 L325.1538 247.6222 L325.4249 247.5497 L325.5345 247.5503 L326.4013 247.2758 L328.162 246.9734 L330.3968 245.5673 L330.7586 245.1354 L330.817 245.0902 L332.7376 242.42 L332.7976 242.4107 L332.8758 242.3078 L333.2729 242.2967 L333.4792 242.3041 L333.9602 242.2291 L334.8093 242.6778 L335.0478 242.7652 L335.803 242.8222 L336.5039 242.7397 L337.2101 242.7577 L338.1523 242.4801 L339.0054 242.4596 L341.8561 242.5005 L344.4442 242.5631 L345.6197 242.6629 L346.5933 242.635 L346.2831 239.2205 L347.2575 238.9225 L347.8581 238.5538 L351.0738 237.4482 L352.6186 237.377 L354.4973 237.5697 L354.8711 237.5337 L354.9895 237.4966 L355.2445 237.3478 L355.5728 237.069 L356.3458 236.0948 L356.7495 235.8816 L356.4099 235.6201 L355.8419 233.6495 L355.858 231.6292 L356.998 231.6292 L358.3531 231.9335 L359.3827 232.1808 L360.1581 232.7435 L360.3285 232.5724 L360.4964 232.5266 L360.6628 232.5879 L363.603 235.244 L373.7708 242.6239 L375.3088 243.5274 L377.0969 244.9061 L377.1444 245.0512 L377.1384 245.0679 L379.8739 247.0533 L376.2413 247.4555 L375.221 247.3768 L374.746 247.3353 L374.6067 247.3433 L374.1773 247.2851 L364.8932 246.469 L364.5073 246.4882 L366.0916 253.0858 L365.8922 254.0742 L362.6938 255.1772 L361.5877 254.7998 L361.4044 254.8481 L361.0564 254.8574 L360.9029 254.7862 L360.7768 254.5228 L358.8928 253.8796 L358.347 254.0983 L357.798 254.4788 L357.089 255.0291 L356.5992 255.6599 L356.6044 256.2758 L356.66 256.7331 L356.5025 258.2711 L356.2717 259.2749 L356.2612 261.2274 L356.3112 261.1996 L356.5903 261.1989 L357.0653 261.3842 L357.7291 261.6017 L361.2678 262.3899 L361.0173 263.092 L361.0394 263.1081 L361.1599 263.2909 L361.1111 263.509 L360.9927 263.7574 L360.5178 264.4911 L360.3289 264.804 L360.2423 264.8939 L359.7661 265.5903 L359.9547 267.2788 L358.4429 269.1793 L359.2719 269.0411 L359.6147 268.9029 L359.8809 268.8341 L360.198 268.766 L360.8537 268.7288 L361.1462 268.7406 L361.4149 268.7083 L362.5363 268.2876 L363.0007 267.971 L363.4954 267.7368 L363.8652 267.5372 L364.1568 267.5998 L364.3574 267.8477 L364.3474 268.3279 L364.2841 268.831 L365.4861 270.2332 L365.5534 270.9291 L368.7159 270.0542 L365.8338 267.8111 L365.217 266.8804 L365.6908 267.0 L368.7385 266.6784 L370.5552 269.9532 L371.1159 266.7119 L372.8053 266.5985 L373.2025 266.4987 L373.6302 266.5303 L374.0097 266.4987 L375.221 266.5663 L375.3354 266.855 L375.8308 266.9727 L376.4161 267.1667 L376.4806 267.4226 L376.4101 267.5769 L376.2627 267.8272 L376.0258 268.0577 L375.6967 268.2405 L374.933 268.4413 L374.2393 268.7517 L374.1285 268.976 L373.9992 269.499 L374.0101 269.5994 L374.3275 270.5623 L374.4202 270.8492 L374.4383 271.2736 L374.4548 271.7309 L374.46 272.19 L374.4512 272.7235 L374.6421 276.9846 L374.6905 278.8943 L374.717 279.2481 L374.7626 279.3943 L375.7346 279.6421 L376.9269 279.7946 L377.8308 279.8863 L379.264 279.908 L379.5806 279.8906 L380.0064 279.8999 L380.4507 280.0833 L380.6102 280.2128 L380.6106 280.4167 L380.6457 280.7376 L380.6598 281.2023 L380.6425 282.1113 L380.6578 282.7829 L380.5035 283.239 L380.0781 283.4286 L379.6072 283.721 L378.9273 284.3561 L378.6481 284.7681 L378.4507 285.1597 L378.3428 285.3505 L378.3613 285.6232 L378.5031 286.0507 L378.6973 286.4231 L379.405 286.9937 L379.8892 287.2831 L380.2372 287.6034 L380.3355 287.8395 L380.2405 288.197 L380.2779 288.4807 L381.9073 290.0006 L382.0745 290.0297 L387.2225 289.9777 L387.8521 289.7335 L389.9241 288.5439 L390.0853 283.7545 L391.2514 283.5376 L391.7187 283.4193 L392.0748 283.2005 L392.2552 282.8721 L392.3567 282.633 L392.4828 282.3071 L392.5098 282.102 L392.5292 281.9291 L392.6009 281.8281 L392.7555 281.7767 L392.8901 281.7321 L393.029 281.6868 L393.162 281.6224 L393.2864 281.6044 L393.4121 281.566 L393.5596 281.496 L393.7102 281.4167 L393.8153 281.1348 L394.2979 279.9011 L395.2828 280.2766 L395.7783 280.473 L396.8437 280.6075 L398.2342 281.1905 L398.9613 282.2674 L400.1839 282.8895 L400.2628 283.2675 L400.2592 283.5017 L400.1154 283.7489 L399.2574 284.6442 L399.0483 284.8295 L398.8868 284.9875 L398.6524 285.4992 L398.4711 285.9726 L398.378 286.1876 L398.4159 286.4026 L398.5335 286.6821 L398.5782 286.9553 L398.5218 287.1077 L398.4211 287.2508 L398.2483 287.4014 L397.8999 287.5414 L397.2542 287.7589 L396.7277 287.9987 L396.2073 288.2756 L396.2701 288.4559 L396.3487 288.4157 L396.5879 288.2546 L396.7632 288.2186 L396.8373 288.9262 L396.8776 289.5848 L397.0274 290.6313 L398.9754 296.2268 L399.8902 296.8655 L402.7554 298.7992 L405.3508 300.5904 L405.7419 300.8797 L408.4214 296.3755 L410.0214 296.6338 L411.5356 296.4994 L412.5012 297.031 L414.7376 298.2837 L415.281 298.6146 L416.5901 299.3599 L417.1243 299.7354 L417.936 300.2292 L417.5662 300.6592 L417.5972 300.8593 L417.5356 301.249 L417.7362 301.8679 L417.8244 302.6777 L417.8554 303.2303 L417.8038 303.5581 L419.0131 304.6572 L420.4282 305.7464 L422.3726 307.439 L423.001 308.2054 L423.0082 308.2264 L423.2104 308.3987 L424.1675 310.6997 L423.0356 310.1235 L422.3033 310.9382 L421.9879 311.3985 L419.9629 313.5874 L419.4892 314.0681 L418.9071 314.7155 L418.7702 314.9101 L418.6385 315.0142 L418.4544 315.2192 L418.4665 315.3425 L418.5933 315.9397 L419.5432 317.3932 L419.7381 317.4248 L419.7873 317.4117 L420.2441 317.4514 L420.7065 317.5406 L421.1279 317.5914 L421.2983 317.6788 L421.4046 317.6961 L422.7617 317.9092 L423.1319 317.3975 L423.2124 317.2315 L423.3019 317.1193 L423.4537 317.0444 L423.6519 316.9936 L423.8388 316.9731 L424.5538 317.0716 L425.243 317.0128 L429.6357 318.2004 L429.7892 318.1769 L430.1848 318.2178 L430.3064 318.3819 L431.2466 318.6366 L431.4283 318.6031 L431.8702 318.657 L432.1972 318.7877 L432.2569 318.8206 L432.3467 318.6812 L432.872 318.4674 L434.055 316.3598 L434.482 315.4931 L436.5456 312.6147 L435.9781 311.5608 L438.262 306.6478 L440.5379 303.7223 L441.1055 304.239 L441.261 304.3573 L441.3379 304.4509 L441.8487 304.9162 L442.0819 304.9676 L442.4827 304.6578 L442.5677 304.3951 L443.5325 301.5241 L443.9808 300.7273 L444.8892 300.6492 L445.1373 300.368 L445.806 299.0793 L446.0183 298.7199 L446.2189 298.6642 L446.674 298.6239 L448.3767 296.6914 L449.2931 296.6914 L450.1181 296.4944 L450.8484 296.4256 L451.0309 296.7571 L451.0402 297.6555 L451.0756 298.7094 L450.9676 299.4758 L451.8128 299.3829 L453.4353 299.3228 L453.6206 299.4194 L453.6746 299.6474 L453.8224 300.6455 L453.764 301.5402 L453.6641 302.7874 L453.6407 303.9106 L453.5767 304.7582 L453.5835 306.3009 L453.5924 306.6509 L453.6891 306.8696 L453.8446 306.9142 L454.1285 306.7488 L454.4939 306.5629 L454.7316 306.4867 L454.7787 306.2036 L454.5438 300.793 L454.7855 298.9529 L457.3716 298.3953 L455.7523 294.9009 L455.7523 293.0979 L450.4315 289.3612 L444.7151 285.3468 L434.5042 287.3029 L433.7976 287.4485 L431.0609 289.0861 L431.3525 287.6957 L433.1245 285.5197 L431.9596 285.8487 L431.672 286.0321 L431.367 286.2056 L430.6661 286.5253 L430.503 286.612 L429.9459 286.7589 L429.3675 287.135 L426.3951 289.8699 L424.0555 288.2155 L423.8642 288.1914 L423.6567 288.0241 L423.5061 287.8271 L422.829 287.3481 L422.6944 286.5625 L421.979 286.0637 L421.7675 286.0179 L421.0094 285.7812 L420.7202 285.643 L420.3835 285.6498 L420.2393 285.6616 L419.5887 285.853 L418.9825 286.047 L417.289 286.9553 L414.8999 288.2112 L414.8431 288.0823 L414.5032 288.1307 L414.4186 287.1189 L414.1487 286.5067 L414.2631 285.9763 L414.2474 285.6814 L414.282 285.4869 L414.3976 285.2762 L414.4838 284.8264 L416.1555 283.234 L417.3531 282.1032 L417.9521 281.4068 L412.5503 281.9204 L408.929 278.4444 L407.8793 279.2506 L401.1841 276.9066 L401.2876 276.3997 L401.9724 275.1109 L389.4931 268.388 L390.0732 266.1883 L390.3548 264.286 L374.8266 262.204 L366.4319 263.183 L367.3383 262.6501 L368.1105 261.9122 L372.1237 259.9733 L375.4469 260.1964 L375.4562 261.5757 L379.3478 262.1811 L382.0733 258.6931 L384.2827 260.0167 L385.7856 259.6579 L388.8249 260.0055 L388.847 258.1998 L385.3143 257.6614 L383.612 256.6705 L384.0591 253.9378 L388.6617 254.2991 L389.0621 259.4404 L391.0395 261.9326 L391.301 262.0051 L391.2655 260.2211 L393.8516 260.9709 L411.4788 265.9218 L411.8252 262.4581 L403.0277 261.2621 L402.4114 259.2731 L399.06 258.8207 L395.5636 257.2716 L394.5179 253.9719 L394.2721 253.9193 L393.7666 253.4731 L392.739 252.9104 L391.9209 252.2747 L391.2405 251.7343 L390.7 251.5038 L390.4458 251.2739 L390.4011 251.1971 L390.1175 251.0378 L389.9918 250.5043 L389.9133 250.3717 L389.6885 249.5791 L389.6164 249.1113 L389.4766 248.4966 L389.3602 248.2103 L389.2954 247.8447 L389.3405 247.7331 L389.0903 246.6691 L393.1024 246.1238 L393.7279 248.1384 L393.8021 248.1774 L394.0353 248.1811 L394.5211 248.0987 L398.977 247.3675 L399.4886 247.1494 L400.0896 246.9653 L400.7784 246.86 L401.2102 246.8426 L401.6328 246.8947 L402.5395 246.8705 L403.5305 247.0465 L404.7437 247.1246 L404.9754 247.1878 L406.8706 247.1835 L408.4214 247.9457 L410.7376 245.5785 L413.0538 243.2051 L410.0085 241.8542 L410.5685 239.9828 L414.6369 242.8209 L416.5221 244.9526 L417.6218 243.9487 L434.5078 258.0276 L443.269 252.6489 L442.2096 254.4522 L446.0485 253.5165 L449.8833 252.587 L449.416 249.123 L448.5177 248.5963 L449.1381 246.7497 L450.705 246.9852 L451.7564 241.8046 L453.0937 227.4462 L439.9136 213.3226 L434.7285 208.8306 L433.9769 208.5499 L424.9772 203.5242 L419.7365 201.0204 L419.7116 201.057 L419.7458 201.0743 L419.9661 201.2262 L420.151 201.3904 L420.1744 201.6928 L419.917 202.1682 L419.3261 202.8072 L418.9096 203.2832 L418.4564 203.805 L417.4836 205.0123 L416.8298 206.0492 L416.4697 206.4377 L416.1869 206.6348 L415.8606 206.6993 L415.7164 206.8957 L412.2035 205.4715 L411.5864 205.347 L410.5556 205.2125 L409.2218 205.0389 L408.2124 204.8078 L407.4837 204.5053 L406.1608 203.8769 L404.5198 203.2243 L403.9715 202.9813 L403.441 202.6299 L402.6849 202.0783 L401.8684 201.4084 L401.4954 201.1313 L399.8125 200.449 L399.5261 200.5085 L399.1885 200.6721 L398.8264 200.9646 L397.45 202.1614 L396.0683 203.3953 L395.7758 203.6445 L392.1376 207.2329 L391.7199 207.7715 L391.3352 208.0243 L390.3995 208.9471 L377.8115 196.7687 L377.026 193.0501 L377.2165 191.7752 L377.1178 190.5994 L376.8918 189.9083 L376.6526 189.1906 L376.3823 188.3458 L376.2336 187.6089 L376.2876 187.3374 L376.3815 187.1199 L376.5966 186.828 L376.8351 186.6519 L376.9623 186.5949 L376.8206 186.158 L375.3124 186.6991 L375.2826 186.6197 L373.8075 187.0691 L371.9183 182.5879 L370.5688 181.4289 L372.5749 185.8915 L371.2859 196.3039 L369.8559 197.5621 L370.0617 200.3182 L369.5461 201.4734 L369.8825 204.0864 L368.3735 205.4728 L368.3932 205.9419 L368.4521 207.0011 L368.4174 208.1272 L368.1661 208.4284 L368.0992 208.4687 L368.0875 209.2818 L366.8424 208.3745 L366.7788 208.3472 L366.6406 208.2276 L365.8672 207.6642 L365.1385 208.1241 L363.9494 207.6531 L362.2898 205.1858 L361.9196 203.9073 L362.8259 203.1115 L362.0352 201.1586 L361.6771 200.2729 L360.3277 196.7303 L359.8676 194.2283 L359.7798 193.6903 L359.4459 191.9276 L358.9138 189.777 L358.5279 187.8221 L358.2604 186.0824 L358.2669 185.8233 L358.3039 185.6287 L358.395 185.5313 L358.6157 185.4192 L358.8018 185.3838 L358.7663 185.1396 L358.5754 185.1942 L358.4413 185.165 L358.341 185.0442 L358.3297 184.5328 L358.4437 182.9102 L358.4099 182.5718 L358.1948 181.5937 L358.2487 181.4995 L358.4791 181.0991 L358.8904 180.8878 L359.3879 180.6993 L360.285 180.9113 L360.662 181.0093 L360.9875 180.9466 L361.2658 180.8772 L361.52 180.6572 L361.8559 180.3504 L362.1589 180.0021 L362.4106 179.7963 L362.5315 179.6531 L362.577 179.5992 L362.8227 179.262 L362.8485 179.2267 L362.9371 178.9155 L363.064 178.4885 L363.0982 177.8377 L363.0712 177.2191 L362.9601 176.841 L362.7067 176.0235 L362.3188 174.9809 L362.0513 174.658 L361.2473 173.6867 L360.3897 172.7898 L360.1045 172.3268 L359.9289 171.4932 L359.8395 170.9818 L359.8878 170.6564 L360.0469 170.37 L360.2249 170.2609 L360.4127 170.1804 L360.4179 170.1785 L360.6257 170.1518 L360.9444 170.2089 L362.577 169.2184 L360.7845 168.5242 L353.9003 167.0614 L341.5379 172.4415 L331.2218 171.958 L330.2309 173.4394 L327.7858 174.9208 L333.1271 181.2925 L333.0607 181.4004 L333.1138 181.4375 L333.283 181.6532 L333.1098 182.1993 L332.2808 183.6217 L331.2146 184.9159 L330.2708 186.3173 L329.9638 186.4158 L329.9167 186.5051 L324.9379 186.6972 L324.2414 184.9023 L323.9155 184.1194 L323.6892 183.5114 L323.3754 179.3649 L323.0189 177.6902 L322.7292 177.4825 L322.8731 179.474 L322.9544 180.3535 L322.9025 180.9442 L322.7409 181.1958 L322.7276 181.3439 L322.718 181.5206 L322.6104 182.0003 L322.5444 182.3294 L322.4706 182.4546 L322.3188 182.5296 L322.0614 182.573 L321.8362 182.5098 L321.7186 182.4925 L321.659 183.0218 L320.8271 183.6422 L320.8513 183.6577 L321.4596 184.0606 L321.928 184.4901 L322.3357 184.7572 L322.5814 185.5878 L321.8966 187.3511 L321.9119 187.5364 L321.9486 187.7477 L322.1995 188.2374 L322.776 188.7152 L323.1619 189.1857 L323.4201 189.7801 L323.4966 189.8879 L323.5554 190.0912 L323.8164 190.7407 L323.8841 191.1033 L323.8837 191.4566 L323.9171 191.7026 L323.8261 191.8006 L323.6996 191.844 L323.1824 191.9487 L322.9218 191.8898 L322.4001 191.9964 L320.8944 191.2341 L319.0789 190.7228 L318.434 190.786 L317.6534 190.9422 L317.2453 191.5006 L319.3532 192.2921 L320.4489 192.7278 L320.8703 192.9893 L321.0604 193.2608 L321.1192 193.4009 L321.1188 193.5329 L320.925 193.8911 L320.8811 193.9233 L322.9238 195.9258 L323.205 195.9221 L323.53 196.4936 L323.7415 196.8487 L323.8688 196.9528 L324.3421 197.743 L324.444 197.9339 L324.3699 198.2289 L324.2402 198.2785 L324.4384 198.8698 L320.716 198.4297 L319.6904 198.4149 L316.8937 197.9785 L314.7362 197.7232 L313.363 197.6079 L312.5271 197.5819 L311.9628 197.5317 L311.5439 197.3464 L310.5896 197.2336 L309.4879 195.7703 L309.3187 195.5825 L307.2007 194.4303 L307.1262 194.3919 L306.9022 194.3188 L306.6396 194.1427 L304.4197 193.0061 L303.6813 192.0336 L302.4326 192.4365 L302.644 191.0593 L302.5752 190.9428 L302.5655 190.7246 L302.6376 190.4717 L302.7911 189.7261 L302.8857 189.4819 L302.928 189.2074 L294.7307 189.1392 L295.7055 188.0979 L295.2343 184.8378 L294.0943 187.3232 L289.329 184.5341 L289.329 187.3294 L292.7126 191.4386 L298.8233 193.3599 L297.8808 195.1697 L292.1769 193.5149 L284.894 183.2449 L277.8125 178.4104 L239.4942 170.3192 L239.4539 170.3744 L238.6693 170.4605 L237.746 170.3948 L236.7088 170.4692 L234.5545 170.5777 L233.5793 170.6961 L233.139 170.7209 L230.0224 171.2204 L229.8154 170.618 L229.7876 170.6062 L229.5181 170.2213 L229.4424 169.7328 L229.4424 169.532 L228.2822 166.1564 L228.7934 163.5022 L228.6174 163.3758 L228.337 163.3169 L226.1997 163.5221 L225.5173 165.7523 L225.3953 166.2202 L225.3679 166.2506 L225.2772 166.5531 L225.0114 166.5822 L224.8438 166.6956 L224.1711 166.938 L223.32 166.9758 L223.1451 166.8097 L223.1113 166.7911 L222.325 166.8779 L222.1208 166.9002 L221.4706 166.9622 L221.4839 166.7905 L221.3611 166.7539 L221.202 166.3733 L221.2173 165.9512 L221.3284 164.1617 L221.3284 163.5351 L221.954 160.7141 L223.7486 159.3858 L224.2239 159.2135 L224.5912 159.1701 L225.0021 158.9538 L225.693 158.8248 L225.875 158.4585 L225.9568 157.5622 L225.9274 156.4774 L226.0478 155.1243 L225.9628 154.3488 L225.4726 154.0606 L224.4881 153.5951 L224.1494 153.4804 L224.1518 153.2895 L224.0249 153.1674 L223.8319 152.793 L223.6736 152.1334 L223.7957 151.565 L224.1743 151.614 L224.1776 151.3728 L225.9471 151.9022 L226.4595 152.0057 L226.7113 152.1303 L236.5964 155.0858 L237.5591 156.8524 L237.2244 155.3307 L236.8771 155.0381 L227.4363 149.1971 L218.4761 146.2049 L214.7517 146.5502 L215.0647 147.7801 L215.4284 147.909 L215.8179 148.5127 L215.9674 149.3725 L215.803 150.5329 L215.7853 150.6123 L215.8796 150.9823 L215.6971 150.9606 L215.5142 151.4063 L214.6316 150.8528 L214.5793 150.8274 L212.4959 150.5794 L212.5765 150.0649 L212.6176 149.892 L212.2365 149.7153 L211.6701 149.3446 L211.48 148.9411 L211.7608 148.9429 L212.0065 148.6479 L212.4395 147.5643 L212.889 147.1087 L210.0065 146.6308 L210.1052 145.5386 L210.0979 145.4741 L210.1153 145.4257 L210.2683 143.7297 L207.3197 140.5063 L208.707 140.2565 L208.7457 140.1573 L208.9572 139.9435 L209.1823 139.8375 L209.472 140.0389 L208.7336 137.0287 L221.8473 137.4533 L227.5612 139.4959 L226.9489 138.659 L227.0275 138.1786 L226.785 137.8612 L226.5211 137.6529 L225.9975 136.8998 L225.7908 136.6499 L223.4887 135.7393 L223.5886 135.6705 L223.4585 135.6581 L223.1959 135.4697 L222.6751 134.8485 L222.1582 133.8065 L222.2231 133.07 L222.3685 132.3323 L222.3488 132.305 L222.4708 131.811 L222.5752 131.2816 L222.6787 130.971 L223.3034 128.4448 L223.3345 127.7493 L223.7316 125.9112 L224.1155 123.6479 L224.4281 122.1105 L224.4688 121.1632 L223.78 120.5123 L222.9586 120.2742 L222.5949 119.6791 L222.178 119.4875 L222.0112 119.2377 L221.9597 119.048 L221.8352 117.6599 L223.1963 112.7977 L224.6658 112.3005 L228.642 111.5659 L231.1861 111.6707 L231.4999 111.6744 L231.8069 111.719 L233.4343 111.8473 L234.5827 111.3532 L237.2127 111.9403 L237.9861 110.0867 L241.1724 110.1239 L245.5328 107.0433 L245.6231 106.9454 L246.7381 106.0991 L248.1169 105.1047 L249.1207 104.4376 L249.6403 104.1419 L250.3525 103.6391 L251.4232 104.1549 L251.7825 103.8344 L251.7894 103.7364 L251.6693 102.1636 L251.3241 98.8411 L249.0043 98.1517 L244.2781 98.6731 L243.271 96.4102 L236.5617 92.8236 L233.6204 89.2952 L231.6941 89.1358 L229.8492 88.9405 L229.4375 88.7533 L229.2047 88.7533 L229.1668 88.6318 L228.7374 88.4402 L228.5828 87.6385 L228.4188 87.1128 L228.414 86.7092 L228.5473 86.6372 L227.9197 84.6179 L221.2853 86.9863 L213.0598 75.4416 L211.9521 73.8916 L212.4717 73.563 L207.9844 73.5506 L204.6007 72.0129 L203.955 68.8674 L202.2479 65.5825 L202.0537 64.1136 L203.7991 63.8035 L200.3031 57.9763 L197.9909 55.124 L199.5534 53.7214 L202.4859 51.6565 L205.727 50.0673 L206.4416 50.497 L211.6903 50.0009 L211.4405 48.4507 L229.023 49.353 L229.3739 49.3809 L229.4355 49.415 L229.8347 49.4751 L231.015 50.1944 L231.3602 50.4803 L231.6027 50.6148 L232.3495 50.9397 L232.7499 51.0749 L233.8451 51.6274 L234.0425 51.9653 L235.545 52.7975 L238.6064 56.1893 L240.7385 64.0082 L241.7202 64.0373 L242.1798 64.077 L249.8224 62.1183 L249.8965 61.9366 L250.5588 58.8909 L250.7827 56.286 L249.6907 55.1327 L249.2822 52.1272 L249.7435 51.2343 L249.9654 51.0135 L250.1942 50.9831 L250.456 50.9993 L250.7328 51.176 L250.8637 51.3707 L253.0675 52.2245 L253.4679 51.1778 L253.6637 49.8496 L253.766 49.5074 L254.0443 48.4724 L254.2441 47.334 L254.6212 46.9638 L255.0743 46.996 L256.0141 47.3024 L256.9595 47.8152 L257.1581 48.1078 L257.4554 48.243 L257.482 48.1444 L257.5819 47.29 L257.6387 47.05 L257.579 46.5967 L257.7667 46.3865 L257.8026 45.86 L258.2501 45.452 L259.2129 45.4074 L260.1921 45.9227 L261.4791 46.5384 L264.47 47.8877 L265.067 48.1934 L265.8597 48.1661 L266.9195 48.0657 L270.159 47.5206 L271.3324 48.3329 L271.9241 48.5524 L273.0294 49.3511 L273.9305 50.2781 L273.3847 51.6789 L272.4703 51.6584 L272.2375 52.103 L262.9562 57.4027 L262.5176 58.8685 L261.5299 60.7572 L261.2233 62.1238 L260.7991 63.1624 L260.4189 64.6344 L259.7704 63.6702 L259.5403 63.6349 L259.3583 63.2455 L259.2274 62.8623 L257.8767 60.8546 L257.6471 61.1169 L257.397 61.497 L257.1202 62.1679 L256.7299 62.9181 L256.0479 63.8718 L255.1235 64.9506 L254.3847 66.0729 L252.8049 68.3038 L252.7388 68.4836 L252.4504 69.0423 L252.0073 69.418 L250.5128 71.5206 L250.5334 71.8951 L250.3839 72.3799 L250.0182 75.1626 L254.9487 77.3451 L254.9487 80.0732 L259.7369 81.6462 L263.925 81.6158 L265.3727 83.926 L264.8777 80.7211 L274.2898 78.1059 L274.888 77.7525 L275.4951 77.4722 L275.9096 77.4772 L276.0228 77.7959 L276.2334 79.5604 L276.2338 79.602 L277.8044 79.9901 L278.9698 80.124 L279.75 80.904 L281.0197 81.6784 L281.9127 81.9996 L284.9737 83.7641 L284.9882 83.7703 L286.183 85.1027 L289.9763 86.1375 L290.1503 85.0699 L294.541 86.1939 L295.3595 86.2646 L294.9313 84.9893 L295.4844 81.5185 L297.9154 81.3975 L299.7716 81.5271 L299.9021 81.9072 L300.4064 81.9859 L300.5708 82.1583 L300.8878 82.929 L301.3558 83.5081 L302.3834 83.9055 L303.8654 83.9185 L305.5254 84.1287 L306.5228 84.3947 L310.82 84.9025 L311.5165 84.8628 L312.7269 82.8533 L313.5704 81.9766 L313.6603 81.9258 L313.9418 81.8948 L314.7168 82.2302 L315.1325 82.454 L315.1708 82.4683 L317.7956 81.0107 L318.6882 81.4744 L318.9903 81.3715 L319.2538 81.3796 L320.1069 81.9134 L320.6507 82.3356 L321.1035 83.1385 L321.1567 83.6996 L320.836 84.9545 L320.7647 85.6365 L321.0455 86.0743 L321.1744 86.4556 L321.2058 86.7451 L321.1031 87.4005 L320.9266 88.5338 L320.8892 88.6355 L322.3828 86.6639 L325.0144 87.7514 L327.0136 88.3429 L328.071 88.571 L328.537 88.6299 L335.7744 87.9659 L336.0056 87.8958 L336.9635 87.6559 L339.0646 87.4234 L340.4491 87.2101 L341.1033 87.2579 L341.4892 87.4116 L341.689 87.6032 L341.8227 88.0595 L341.7989 89.9406 L341.8678 91.3399 L341.8763 91.9543 L342.5393 95.5968 L342.8527 96.9297 L343.3707 98.0531 L343.1234 98.0829 L343.1307 98.1133 L343.2124 98.5944 L343.1568 98.9502 L342.6062 99.1399 L341.7728 99.2218 L341.5105 99.3036 L341.173 99.577 L340.9119 99.9211 L340.9273 100.161 L341.0803 100.6638 L341.4787 101.6453 L341.7172 102.4977 L341.8509 102.9224 L341.9081 103.1797 L341.7792 103.8672 L341.5967 104.3266 L341.1041 105.1983 L340.4491 106.6782 L340.2384 107.0545 L339.6757 107.0712 L339.2584 106.9931 L339.067 106.9082 L338.8793 107.2597 L354.5489 116.125 L371.0643 117.619 L387.3784 125.4302 L390.2504 125.8083 L391.3703 122.3553 L392.4861 118.8961 L392.7721 118.7746 L392.9179 118.2929 L393.6985 116.187 L394.219 113.7171 L393.5459 112.8758 L394.2641 112.0718 L394.1638 111.9354 L394.3265 111.5808 L394.6431 111.3055 L395.2606 110.8672 L395.4596 110.7339 L396.5424 109.5225 L396.0804 107.5263 L396.6749 105.8778 L395.0041 104.3744 L393.5459 103.7463 L394.028 101.1896 L395.7529 98.7351 L395.2284 93.6643 L395.7005 91.8099 L394.9815 89.1892 L393.5684 87.3502 L393.5507 86.7575 L393.5177 86.6583 L393.5467 86.6199 L393.5346 86.2063 L393.9491 86.2132 L394.1622 86.0358 L393.3235 83.65 L393.2389 83.5868 L392.9638 83.1906 L392.0095 82.0789 L392.7378 81.3194 L392.7793 81.2475 L393.2498 80.7565 L393.3372 80.6951 L394.1291 79.8692 L393.5213 79.3279 L393.454 79.3007 L392.418 78.4481 L391.0122 77.112 L390.6694 76.7871 L389.2954 75.5632 L389.587 74.6883 L390.8655 74.0261 L392.623 74.2165 L393.6687 74.1904 L395.1293 73.9908 L395.4347 73.9933 L395.5088 73.9815 L395.5362 73.9939 L395.7505 73.9957 L395.9241 74.0224 L396.563 74.2741 L397.4862 74.8935 L398.548 75.3834 L400.4993 77.0996 L400.917 73.3398 L398.3233 67.8221 L398.177 67.5716 L398.1513 67.4569 L397.8918 66.905 L398.3067 65.0877 L398.0493 64.206 L397.858 63.4954 L398.2137 63.2932 L398.2648 63.2449 L398.8377 62.889 L399.1079 62.7414 L399.1817 61.7797 L397.9144 61.802 L397.7315 61.6265 L397.6312 61.6414 L397.0512 61.6042 L396.0244 61.2564 L395.9394 61.2762 L395.456 61.5937 L394.9851 61.7351 L393.9841 61.7382 L393.6188 61.8132 L393.5443 61.6514 L393.5096 61.6445 L393.4927 61.5391 L393.0339 60.5421 L393.4508 59.3571 L394.9424 58.6614 L395.8947 58.7917 L397.5217 59.0205 L399.0592 58.7203 L399.6626 58.5194 L399.9869 58.5393 L400.7406 58.3923 L401.9204 58.4624 L402.0316 58.4531 L402.0791 58.4723 L403.1852 58.538 L403.8148 58.4227 L404.0892 58.3371 L404.6402 58.1592 L405.4479 58.1245 L405.8277 58.055 L406.6358 57.789 L407.0482 57.8157 L407.0603 57.8299 L407.6658 57.7196 L409.4772 58.8859 L411.395 58.2578 L411.9445 56.6431 L408.5342 55.922 L407.5425 55.7118 L403.3536 56.6989 L401.6715 56.273 L399.2264 56.5867 L397.8358 56.4075 L396.1758 56.8558 L392.7217 56.5532 L391.6897 57.1138 L391.4432 59.0316 L389.9628 59.3348 L388.4096 59.5928 L385.1008 59.5252 L383.4565 60.1787 L383.4795 60.1862 L383.9081 60.4255 L383.9391 61.0666 L384.358 61.5763 L384.5325 62.1517 L384.5055 62.4686 L384.4914 62.4766 L384.6187 62.7439 L384.0877 62.5876 L383.8372 62.6484 L383.1282 62.6087 L382.5985 62.7693 L382.2747 63.013 L380.7605 62.9572 L380.1152 62.7495 L379.9198 62.7172 L378.6989 62.4549 L377.5613 62.2819 L376.8882 61.7499 L376.421 61.5602 L374.9918 61.1001 L374.5946 60.6382 L374.4786 60.5787 L373.9549 60.3945 L373.71 59.6362 L373.1948 59.1637 L372.4186 58.8809 L372.3489 58.8995 L370.9048 58.5808 L369.0301 58.1586 L367.6956 57.6656 L367.3922 57.585 L365.2287 57.3072 L364.7969 57.3438 L364.0803 57.3891 L363.0986 57.2607 L362.2165 57.146 L361.4225 56.7659 L360.9657 56.4739 L360.0147 56.2141 L358.9923 56.0733 L357.8596 56.0969 L356.915 55.9989 L355.85 56.082 L354.8216 56.1893 L353.5604 56.6245 L352.8216 56.9805 L351.7831 57.4089 L351.05 57.8144 L350.0559 58.3384 L349.3417 58.7644 L348.9546 59.0093 L347.929 60.1707 L347.4855 60.41 L346.329 60.5663 L343.8573 61.2527 L341.3675 61.4765 L338.4515 63.6299 L334.2345 64.5718 L331.969 65.8168 L329.9952 66.1758 L326.9334 67.858 L321.9772 67.592 L329.3721 64.9438 L329.2996 64.9413 L328.8625 64.782 L328.6897 64.2735 L328.9938 64.139 L330.4142 63.8823 L331.302 63.5103 L331.8945 63.0465 L332.6401 63.0099 L333.5694 63.031 L334.2208 62.9373 L334.8709 62.6831 L335.8332 62.1672 L336.2433 61.6538 L336.9925 61.4833 L338.091 61.0933 L339.5323 60.823 L340.8036 60.3244 L341.9947 59.9636 L342.6863 59.3354 L343.5721 59.1798 L344.2968 59.0211 L345.1379 58.9398 L345.8662 58.9498 L346.1091 58.8673 L346.4833 58.4556 L346.8088 58.0556 L347.2954 57.5925 L348.2581 56.5222 L349.2768 55.7093 L349.9165 55.0421 L350.6387 54.9045 L350.9312 54.675 L351.8178 54.3929 L353.0448 54.1573 L354.2343 53.4988 L356.0212 53.5502 L356.4872 53.3084 L357.0495 53.3363 L358.0884 53.2731 L359.1744 53.3841 L360.1609 53.5056 L360.7361 53.6501 L360.8674 53.6743 L364.0191 53.802 L370.6607 55.7062 L371.0264 55.7465 L371.793 55.8532 L372.6377 55.8501 L374.027 56.3877 L375.3523 56.9997 L376.0979 57.1702 L377.055 57.6377 L379.115 58.5275 L379.4755 58.6007 L381.1258 59.2214 L381.7156 59.4799 L381.3724 53.0455 L381.9383 52.6728 L382.5599 52.8427 L382.5941 52.8347 L383.6144 53.0864 L384.176 53.252 L384.9421 53.0678 L385.4396 52.8719 L385.3981 52.1005 L383.8058 52.2239 L383.5419 51.4277 L382.4519 49.5235 L381.2193 45.1643 L380.3549 43.1689 L380.1889 42.7813 L379.2052 43.2606 L378.6409 42.7025 L377.6036 42.5004 L369.938 40.9526 L369.0518 39.7639 L364.434 33.1282 L358.3474 31.3981 L354.0413 25.4077 L355.5559 23.9752 L355.908 23.9733 L355.9865 23.8834 L356.3615 23.5535 L360.9081 19.8891 L361.002 19.6907 L361.4604 19.4786 L361.6892 19.3186 L361.8032 19.3205 L361.9168 19.2677 L362.5194 19.3304 L362.5947 19.3403 L363.4253 19.7471 L364.3514 20.2314 L365.3903 20.7542 L365.6158 22.1601 L365.7911 22.6041 L366.5351 24.3187 L366.7365 24.7448 L367.0889 25.4399 L367.2295 24.96 L366.1306 22.0441 L366.152 21.8655 L366.0408 21.5697 L366.1919 20.8206 L366.5089 20.5223 L366.8005 20.4448 L367.0503 20.2271 L367.5659 20.7207 L368.7997 22.1452 L368.8444 22.0441 L368.9117 21.9207 L368.2051 20.4175 L367.8712 19.9332 L367.8462 19.7018 L368.1149 19.4966 L368.1886 19.496 L368.3175 19.2963 L368.4839 19.4929 L368.6966 19.491 L369.281 20.0423 L370.139 21.2373 L370.533 21.8512 L370.6732 22.0087 L371.4224 22.5904 L372.3324 23.1938 L373.3197 23.7005 L374.2014 24.0434 L374.7916 24.4837 L375.2939 24.6263 L375.5887 25.0784 L375.913 25.3202 L376.6735 26.2467 L377.7269 26.6089 L380.2505 28.6162 L378.6916 25.936 L376.2131 22.9749 L380.8447 25.0275 L382.4708 24.9041 L381.5399 24.1414 L376.4427 21.6962 L374.8391 20.3505 L364.72 13.6374 L365.5256 10.2948 L363.8769 9.883 L363.383 9.9711 L362.7252 9.6839 L362.4573 9.5363 L359.7492 8.8746 L337.2157 7.8328 L332.7243 0.1488 L332.5753 0.0 L334.5249 4.1924 L335.2782 6.7537 L319.2018 19.7955 L321.2642 22.1644 L322.9742 24.1296 L323.3323 23.7631 L323.6247 23.1138 L324.0191 22.7287 L324.4464 22.7486 L325.0861 23.1225 L325.5465 23.3358 L326.6305 23.9002 L327.4942 24.2766 L328.1697 24.782 L328.9378 25.0604 L325.7649 28.5337 L325.8825 28.5765 L326.0932 28.7607 L326.0928 28.7719 L328.2651 29.3021 L327.9066 30.5485 L325.5332 30.0251 L325.1441 30.7234 L324.805 32.8615 L324.5516 33.8773 L324.5516 34.2146 L324.3752 34.7498 L324.3155 34.8025 L322.2636 42.8427 L322.2648 43.1006 L321.7532 45.617 L322.5528 46.5967 L322.2596 47.8133 L322.6003 49.9092 L318.3398 50.4759 L316.797 49.4119 L315.8705 49.9017 L314.0018 48.0632 L312.1432 46.4857 L312.3579 44.7923 L307.7215 42.3119 L306.4386 41.7538 L300.2586 37.4534 L298.2707 37.6698 L302.1168 46.3133 L299.9992 47.977 L295.9053 44.6267 L295.4687 44.5907 L293.1291 45.8042 L289.4526 44.3849 L288.9338 44.3092 L288.1979 43.8999 L287.2436 43.5316 L283.6908 41.2875 L282.2434 39.6331 L282.7546 38.3538 L282.7413 38.3209 L282.718 38.1932 L281.0431 38.8331 L281.3653 36.2721 L281.8096 35.399 L282.488 34.5321 L283.0656 33.4897 L283.4926 33.3012 L283.9824 32.1211 L284.4597 31.5308 L284.3087 30.7054 L284.129 30.3457 L284.0408 30.1659 L283.3673 29.521 L283.0281 29.2196 L280.3027 27.926 L279.0721 26.8712 L278.2306 26.2808 L277.9039 26.3813 L277.9792 27.3989 L278.5444 28.579 L278.7329 30.2372 L278.921 31.656 L279.0092 32.3847 L279.2626 32.2228 L277.7359 36.8798 L275.6614 39.3044 L274.4973 41.729 L276.4228 40.3524 L278.0139 43.1614 L280.9101 47.3656 L306.8108 59.8191 L306.9393 59.4663 L308.3109 60.2972 L309.1241 60.8304 L309.5205 61.1218 L314.6669 63.5748 L313.5728 65.4634 L309.9411 65.4095 L305.6068 60.3003 L296.0673 56.805 L277.8729 47.5516 L270.5618 37.872 L264.1087 36.0055 L256.2618 37.3263 L251.424 39.1494 L249.0917 37.686 L259.005 31.7081 L262.002 33.8785 L269.0512 34.4366 L269.4258 32.9359 L275.3472 36.9418 L278.0985 34.8521 L277.4701 27.9812 L275.7944 25.817 L273.8834 26.0384 L275.4894 31.8191 L274.4449 32.9297 L266.2235 29.9284 L264.9667 29.3641 L262.3947 28.4761 L261.0183 28.5939 L260.4813 28.4767 L260.41 28.0265 L260.4108 27.7952 L260.033 27.6656 L259.9629 27.8739 L259.4235 27.456 L257.0232 26.6293 L257.1271 26.1022 L257.092 26.0749 L256.9168 25.5001 L257.0171 24.7764 L257.0997 23.9988 L257.1645 23.3631 L257.3796 23.1318 L257.6983 23.058 L257.7265 23.0624 L257.7603 22.89 L255.6536 21.9287 L252.8246 21.935 L252.765 22.0112 L252.7046 22.0435 L252.2989 30.3972 L249.5509 30.3873 L248.6083 33.5623 L243.7745 31.8693 L244.8501 30.3315 L233.6586 27.2154 L231.1173 25.9174 L228.967 23.5969 L225.8887 19.9629 L225.2072 19.4898 L225.0448 18.967 L224.1828 17.9493 L223.7703 18.3673 L223.2914 17.9338 L222.4144 17.1754 L220.5196 15.5556 L219.8686 14.7692 L219.0131 14.4381 L218.7246 14.1639 L218.5857 14.1311 L218.0133 13.8892 L217.4916 13.5717 L216.5378 13.1897 L214.9861 12.1981 L213.6886 12.6427 L213.3454 13.2151 L213.3454 13.8892 L213.4216 14.7413 L213.7906 15.5686 L214.7062 16.1918 L216.6078 17.2597 L216.6884 17.1301 L216.6824 16.9372 L216.806 16.9416 L217.0908 16.4839 L217.167 16.3568 L217.3337 15.9884 L217.3941 15.994 L217.4215 15.95 L218.2356 15.937 L218.7061 16.5732 L219.1641 16.9422 L219.8384 17.5146 L220.3891 18.2997 L221.4892 19.4643 L221.639 19.8184 L222.2295 20.1862 L222.754 20.1731 L222.9582 20.4534 L223.1882 20.7145 L223.2237 21.2435 L223.1262 21.4785 L222.9933 21.7458 L223.2261 21.9275 L223.5645 22.2103 L223.5411 22.6109 L223.4263 23.605 L223.7147 24.7063 L223.4162 25.0424 L223.177 25.0319 L223.2048 25.4182 L221.8859 24.0136 L220.6267 22.7163 L219.7873 21.597 L219.7055 21.4512 L218.8189 20.8144 L218.6328 20.3412 L218.3911 19.6758 L218.0443 19.2808 L217.4924 18.7902 L216.4983 19.1015 L216.7496 19.4377 L217.6177 20.4193 L218.4149 21.2119 L218.831 21.486 L218.7758 21.8512 L218.5329 21.8779 L218.1091 21.4816 L217.8759 21.3948 L217.3587 20.8627 L217.2471 20.6618 L216.8842 20.3598 L214.2477 17.8451 L213.938 17.571 L213.6226 16.8876 L213.1819 16.3357 L212.9958 16.2724 L213.0212 16.0517 L212.5124 15.6957 L212.0415 16.8659 L212.0927 17.4377 L213.4208 20.0014 L213.5243 20.0739 L214.3617 21.081 L214.993 22.0788 L215.5267 22.7033 L216.0101 23.174 L216.5442 24.0899 L218.8334 24.2555 L219.6858 24.0775 L220.3089 24.4589 L224.2122 26.1537 L226.5542 27.8634 L229.4061 32.6383 L226.0507 36.0551 L225.5834 41.7166 L212.0125 43.0002 L209.6254 44.538 L209.5404 44.7687 L208.4448 45.5047 L207.841 45.803 L207.6657 45.8005 L206.8243 46.3425 L201.3782 43.7257 L201.9784 39.3726 L201.3017 39.6783 L201.1486 39.9574 L201.0136 41.1151 L200.8537 41.2497 L200.5468 41.1077 L199.3387 40.7139 L199.0241 40.7071 L195.3198 42.3801 L195.5535 44.0047 L191.908 46.3301 L187.187 47.2912 L185.1959 47.8809 L184.9872 48.0086 L184.6549 48.0409 L181.5109 48.9716 L181.2221 49.2258 L179.7087 49.5055 L177.573 50.1411 L175.0775 44.685 L176.4044 43.2792 L176.5188 43.1143 L177.7845 41.7011 L179.119 40.4547 L181.2535 38.2192 L182.5727 38.4586 L183.7586 37.57 L184.2053 37.3139 L184.8869 36.2101 L185.1685 35.7084 L185.096 35.3302 L185.8561 33.9461 L186.2923 32.9266 L187.1624 31.7311 L188.9288 28.961 L189.2377 28.3874 L185.467 26.3193 L187.3731 24.1104 L187.7344 23.5281 L188.5324 22.1328 L188.9219 21.3495 L189.5684 20.9192 L190.1042 20.5012 L190.677 20.0113 L191.1257 19.5846 L185.0964 14.5019 L182.611 14.1026 L182.0914 9.6932 L183.5536 9.6498 L191.5104 12.3072 L183.9701 7.8222 L180.8878 3.1815 L176.116 2.2971 L170.9229 2.983 L168.9962 3.6597 L167.8961 3.8314 L167.2456 3.7124 L167.19 3.4767 L165.5276 3.6962 L149.2417 1.9288 L142.6678 1.5256 L134.5631 5.4947 L134.5587 6.1143 L134.7388 6.2427 L134.8217 6.4678 L134.8918 6.8411 L134.8874 7.3304 L134.547 7.8607 L134.5309 10.177 L132.4967 14.6297 L132.6063 17.3844 L132.632 17.5593 L132.6135 17.5661 L132.7505 21.0109 L124.0335 24.6511 L123.7004 22.7107 L122.6414 22.6679 L120.3832 23.8344 L115.489 23.7482 L113.1777 20.3784 L110.6439 20.7319 L106.213 23.7271 L102.4184 29.2338 L96.2231 30.84 L92.4407 34.8087 L86.6361 36.3589 L80.9363 35.0071 L79.897 33.7111 L84.1548 30.9702 L79.9317 25.5416 L77.2344 26.3131 L77.1667 26.3726 L76.6121 26.6194 L76.0558 26.7478 L75.7009 26.6752 L72.1094 24.9364 L69.8226 25.5751 L68.76 24.0074 L68.1549 18.9508 L63.8992 18.1397 L63.8718 18.1608 L63.6853 18.4833 L62.6283 20.8063 L61.4078 23.4915 L65.2063 25.9348 L67.2957 27.7177 L67.4218 27.8324 L65.7223 29.485 L63.3643 31.7937 L62.161 32.9731 L60.157 32.4802 L59.8666 32.6966 L58.6686 33.4016 L57.8719 33.1251 L56.2187 32.3884 L55.3208 32.0051 L53.8099 30.9324 L53.7833 30.9125 L51.144 30.2632 L48.558 33.6491 L45.6778 32.9049 L43.9433 34.7845 L43.8567 35.3258 L40.6338 38.9783 L39.6283 40.0206 L38.8126 40.335 L37.6755 40.3208 L35.8519 40.1695 L34.7462 39.7149 L29.3896 39.6591 L28.2625 40.7412 L26.596 42.2908 L25.5483 43.1682 L25.2692 43.3171 L24.1232 44.3644 M38.9347 52.103 L42.2096 49.0708 L47.3978 49.9203 L49.6536 45.9642 L50.2216 44.4078 L51.2689 46.3797 L52.9809 47.409 L62.8579 44.0543 L69.2103 40.7741 L69.4037 40.7244 L69.4158 43.4777 L66.6565 46.4975 L59.2849 48.5252 L53.6254 52.3882 L45.8027 52.9153 L38.9347 52.103 M73.2828 39.5897 L73.6413 37.7294 L77.2062 36.6132 L79.3814 35.0133 L79.5023 34.9823 L76.1226 40.8919 L81.2706 40.3524 L81.0773 44.1288 L77.1216 44.4884 L74.3986 41.1337 L73.2828 39.5897 M145.5922 162.0096 L146.3938 160.3546 L151.7311 153.8585 L152.9074 153.8523 L155.3525 156.214 L151.7271 155.4702 L149.6164 157.1128 L153.2095 160.1687 L153.0121 165.0345 L148.8268 162.2576 L146.7483 164.9973 L145.5922 162.0096 M197.3259 128.7777 L197.4797 127.1139 L197.4785 126.3873 L197.5957 125.8592 L198.0429 121.0225 L199.2312 120.8055 L199.7629 120.7373 L200.2334 121.5184 L200.3099 121.6561 L201.1446 123.0497 L202.1214 123.6938 L203.0632 124.173 L204.8376 125.3626 L205.2045 125.6868 L211.2311 129.5836 L207.679 130.0324 L208.05 130.5941 L208.624 131.5965 L209.0333 132.2189 L209.244 132.7117 L208.8867 133.2275 L208.0029 133.0223 L206.5878 132.3534 L203.3455 131.2345 L203.2497 131.1173 L203.2211 131.0007 L203.207 130.9307 L201.0056 130.1248 L200.718 130.1236 L200.3949 130.0362 L200.3659 129.8905 L197.3259 128.7777 M207.3963 85.8889 L209.938 83.8181 L210.941 83.9917 L214.8403 86.7383 L212.6852 88.6231 L213.9662 90.9233 L216.0608 88.3813 L217.6922 89.6833 L215.7265 91.9339 L213.7648 93.0809 L210.5624 94.017 L207.3963 85.8889 M208.8222 155.5507 L210.0625 155.0226 L210.139 154.9544 L210.6832 154.5007 L211.2254 153.9769 L211.4953 153.5647 L211.7438 153.1295 L212.1994 152.4892 L212.3219 152.2289 L212.8524 152.0882 L213.4131 152.0101 L214.1676 151.8849 L214.889 151.8167 L215.5251 151.7758 L216.1257 151.6803 L216.5317 151.6648 L217.8207 151.4819 L218.5901 151.3592 L218.8 151.5935 L218.9079 151.6915 L219.3478 151.6766 L218.6952 156.6851 L218.0717 156.6132 L217.8993 156.938 L217.5625 157.1413 L216.8697 157.1444 L216.1809 156.987 L215.3551 156.6553 L214.3408 156.4142 L212.0174 155.9177 L208.8222 155.5507 M210.647 171.6977 L215.9843 168.8093 L216.1333 168.7535 L217.4908 171.208 L215.5331 172.6522 L210.647 171.6977 M241.1546 354.5553 L241.5977 353.8182 L246.2023 357.1738 L248.7316 358.588 L249.59 360.6997 L250.9475 361.7942 L250.9761 365.6731 L252.0717 369.0007 L250.9418 368.7257 L251.1646 369.4882 L253.7442 372.3629 L254.6167 375.4891 L252.8862 373.3044 L250.131 369.8729 L249.1795 366.7782 L249.6242 362.6732 L249.0861 361.005 L241.1546 354.5553 M347.2615 330.784 L347.5532 329.5165 L348.8877 329.9093 L349.9447 331.7387 L359.2618 341.0249 L363.1208 348.0436 L371.901 351.6104 L373.8075 352.3507 L375.8038 353.3381 L376.9575 354.87 L377.7889 355.334 L378.518 355.4127 L378.8185 355.793 L381.3845 358.7726 L385.6462 364.744 L382.0854 363.2883 L375.592 356.524 L365.7995 351.655 L358.4763 344.5188 L349.7111 336.1185 L347.2837 332.3204 L347.2615 330.784 M364.1403 360.1453 L365.5868 360.3026 L366.4956 360.123 L368.1326 360.336 L385.2354 370.6719 L373.8639 366.2554 L365.385 362.5344 L364.2749 362.4669 L364.2861 360.6947 L364.1403 360.1453 M427.1 475.5593 L438.7482 470.7764 L440.0227 470.0588 L440.5275 469.8637 L441.4286 469.2148 L441.7428 468.9293 L442.0892 468.7392 L443.4197 467.7813 L443.7637 467.4816 L444.5963 466.9342 L446.6507 465.5031 L446.838 465.3471 L446.9189 465.3161 L447.5389 464.8839 L448.7538 466.0357 L449.9179 467.2754 L449.9477 467.4785 L449.9425 467.5875 L450.0468 467.7354 L449.9292 467.8642 L449.9123 468.2178 L450.1729 467.9175 L450.4363 468.4123 L450.5725 469.1287 L450.2728 470.917 L449.9457 471.6545 L449.4208 472.4434 L448.7058 472.9679 L447.7153 473.0032 L447.4454 472.8601 L445.9441 472.1734 L442.0465 475.7165 L439.895 477.0707 L435.972 478.8807 L433.9398 478.5129 L427.1 475.5593 M435.1765 365.7537 L435.392 365.6192 L435.4411 365.5362 L435.5434 365.5251 L435.6816 365.439 L437.2292 365.3715 L438.7933 365.4514 L439.0914 365.4501 L439.2143 365.4724 L439.4274 365.4836 L440.5601 365.6855 L440.6109 365.7295 L440.8304 365.7698 L441.1365 365.9661 L441.3754 366.1588 L441.4104 366.4202 L441.4564 366.4598 L441.4749 366.9052 L441.6775 368.4228 L441.8237 371.8693 L441.951 374.119 L441.7843 374.28 L441.7907 374.438 L439.3939 374.6362 L439.0777 374.669 L437.8753 374.8344 L437.6054 372.9514 L437.5603 372.8932 L436.9489 372.4088 L436.7462 371.9826 L436.5138 370.9265 L436.3978 370.1157 L436.1646 369.1549 L435.9793 368.7889 L435.8081 368.3423 L435.4 367.4682 L435.3791 367.2892 L435.1765 365.7537 M442.6201 488.745 L443.0418 488.1556 L443.8443 487.3172 L447.1212 483.251 L447.7995 482.6559 L448.2398 482.5965 L448.7203 482.6504 L449.4055 482.8993 L449.4466 482.9086 L451.1614 481.2237 L451.4804 480.6572 L451.4941 480.0881 L450.9427 479.6336 L451.8691 477.8689 L452.1068 477.6274 L452.3876 477.8769 L452.4005 477.8732 L453.1267 478.337 L455.0159 479.7884 L455.2991 480.1488 L455.5211 481.1445 L456.083 482.3042 L457.1452 483.5996 L457.3442 483.9921 L457.2737 484.42 L457.0469 484.8869 L457.2065 485.0578 L455.7281 487.355 L455.4743 487.641 L455.2959 487.9073 L454.9829 488.1946 L453.0804 490.3388 L452.9044 490.667 L452.5624 491.119 L452.0355 491.5121 L451.4184 491.6787 L445.2307 494.2526 L444.4654 493.8563 L446.9105 491.392 L443.6759 489.8292 L443.5933 489.8373 L443.0362 489.6459 L442.8803 489.4453 L442.8219 489.4168 L442.8429 489.3964 L442.7442 489.2695 L442.6201 488.745" stroke-dasharray="" fill="none" fill-opacity="1.0" stroke="#ff0000" stroke-opacity="1.0" stroke-width="1.0px" stroke-linecap="butt" stroke-linejoin="miter" stroke-dashoffset="0.0px"/>
</g>
</svg>