<?xml version="1.0" standalone="no"?>
<!DOCTYPE svg PUBLIC "-//W3C//DTD SVG 1.1//EN" "http://www.w3.org/Graphics/SVG/1.1/DTD/svg11.dtd">
<svg width="512px" height="512px" version="1.1" xmlns="http://www.w3.org/2000/svg" xmlns:inkscape="http://www.inkscape.org/namespaces/inkscape">
<g id="layer" inkscape:groupmode="layer" inkscape:label="layer">
<path d="M18.167 338.3194 L18.6829 345.6504 L27.895 345.5765 L27.8351 346.8361 L32.9779 346.831 L33.0303 345.5261 L39.4575 345.4539 L48.0992 345.3313 L55.9264 345.0542 L64.5798 344.5957 L65.7004 344.8744 L66.1628 345.432 L66.1028 349.5451 L65.861 350.3596 L65.1738 350.766 L64.5145 350.939 L62.8341 351.0012 L52.9659 350.7375 L49.6897 350.714 L49.0518 350.9306 L48.7039 351.463 L49.0132 352.1533 L49.5998 352.605 L52.3226 352.9073 L60.3735 352.5983 L61.2201 352.9779 L61.6461 353.601 L61.7146 354.607 L60.9482 356.4359 L60.2461 356.844 L48.6001 357.6501 L40.576 358.1388 L40.1939 358.3908 L40.165 358.9769 L40.7687 359.2557 L44.7395 359.558 L48.5616 359.4706 L52.5849 359.6134 L58.3763 359.3598 L58.8558 359.5193 L59.4348 360.045 L59.8009 360.6782 L60.0417 362.7489 L60.153 364.2419 L60.0032 365.1958 L58.9692 365.6224 L56.2796 366.3815 L52.5774 367.2901 L51.1185 367.8242 L50.1424 368.2272 L49.6437 368.6672 L49.7143 369.0535 L50.3115 369.8042 L51.7308 370.7984 L54.7094 371.4803 L56.6295 372.5417 L58.281 373.5359 L59.4851 374.3806 L59.9892 375.1313 L60.1252 376.0583 L59.6639 376.9652 L59.0067 377.4724 L52.1525 377.9964 L37.4561 378.3608 L36.9594 378.5388 L37.4111 379.2341 L38.5745 379.4894 L48.0489 379.444 L57.0331 380.3257 L59.5601 380.5356 L60.4152 381.0814 L60.8166 382.7927 L61.0521 384.9239 L61.1045 386.123 L60.9696 387.3926 L60.2525 388.0022 L58.8686 388.3263 L45.5818 388.6253 L42.4062 388.8621 L41.1411 389.2886 L41.1358 389.7505 L41.7726 390.0376 L43.4113 390.2257 L48.8987 390.0779 L53.2784 390.0343 L59.8747 390.4222 L61.8548 390.9562 L62.6993 391.9471 L62.7892 393.5055 L62.5216 394.5971 L62.1363 395.2941 L61.3464 395.8214 L59.1405 395.8248 L52.2884 395.4402 L46.9593 395.6719 L44.6967 395.9121 L42.9853 396.2849 L43.9068 397.2791 L46.2251 397.7325 L49.0293 397.8702 L54.0683 398.0936 L57.6431 398.3942 L57.8593 398.8359 L57.824 399.1146 L57.6677 399.5042 L56.8629 399.516 L55.3784 399.5647 L53.9709 399.6184 L53.0933 399.961 L52.5913 400.3859 L51.9908 400.9619 L50.9965 401.0308 L49.0561 401.3918 L48.5819 401.5833 L48.5701 402.0283 L49.01 402.4364 L50.4656 402.9251 L52.0583 403.3013 L57.1272 403.8403 L57.4483 404.2669 L57.4901 404.6582 L57.3766 405.0243 L57.1775 405.3282 L56.5921 405.5969 L55.7904 405.7313 L51.9009 405.9798 L51.5381 406.4148 L51.6676 407.0983 L53.2431 407.676 L56.6092 408.2201 L57.748 409.2428 L57.9696 410.1412 L58.6578 412.986 L58.7017 413.8039 L58.1986 413.8005 L56.3609 413.1993 L52.9124 412.9273 L51.8228 412.8584 L51.2866 413.0431 L51.2052 413.7417 L51.2812 414.264 L51.7543 414.7896 L53.2699 414.751 L55.2628 414.7493 L57.7459 415.3925 L58.8761 415.8375 L58.9393 416.3766 L58.7199 416.8518 L54.9192 417.1944 L54.5307 417.3439 L54.2074 417.5286 L54.2235 418.0593 L54.7597 418.5009 L56.5482 418.9711 L57.8989 419.1542 L60.2911 419.4901 L61.8409 419.5841 L65.6694 419.9535 L67.171 419.7184 L67.7104 419.8679 L68.358 420.5514 L68.4222 421.4112 L68.3312 422.1417 L67.856 422.7462 L67.0822 423.0737 L65.9691 423.2668 L65.1471 423.2652 L59.8854 422.5565 L57.6217 422.6892 L64.598 425.2367 L70.8753 431.4585 L74.707 436.451 L76.0246 439.0085 L79.3757 441.5493 L81.2327 439.6584 L81.5634 426.8824 L121.9365 429.8447 L123.7228 411.0414 L127.7237 411.572 L131.9385 413.8542 L133.7206 416.9442 L137.3917 420.9376 L137.8541 422.8772 L139.6576 428.8757 L142.4811 434.0479 L149.4413 432.7566 L152.0143 429.0621 L161.3923 417.7352 L165.0485 422.1299 L164.6439 427.1175 L162.3781 439.9691 L158.0497 452.2898 L146.6959 467.4113 L151.6183 472.5615 L153.8092 480.0188 L150.884 487.8404 L150.9033 493.2087 L178.0324 488.3341 L179.868 489.2224 L180.7274 497.2169 L180.8676 511.5785 L189.185 511.3737 L193.2019 512.0 L201.2324 498.1102 L201.683 492.8359 L202.3273 492.0786 L222.4287 485.8775 L224.4762 486.3426 L226.5216 490.2248 L244.4236 500.9664 L256.4089 493.6738 L265.5086 503.8293 L264.6738 496.8021 L266.6185 490.3726 L267.7755 483.7667 L271.5002 482.242 L284.8501 481.9196 L288.5331 481.609 L290.0272 480.2068 L294.9795 466.5079 L295.7309 465.6045 L307.0119 462.466 L313.6093 444.8406 L318.1656 435.8431 L321.9802 421.3894 L321.231 417.5706 L320.5577 415.5386 L311.9332 407.1705 L309.388 404.8244 L309.6074 403.1804 L307.0965 399.5563 L306.2317 396.2295 L297.5247 382.0018 L302.2715 374.2463 L304.3415 373.7911 L299.6932 366.9928 L292.6762 351.7687 L294.7408 346.8949 L303.771 349.3855 L304.1167 345.5949 L305.1068 343.5241 L308.5821 342.3653 L314.9311 339.7587 L325.3998 333.501 L332.8588 322.7017 L347.1313 314.87 L350.0897 316.2624 L366.277 299.7272 L365.2324 291.1983 L341.1933 308.0813 L325.3741 316.9577 L327.2889 323.5717 L316.8459 331.5779 L308.6655 328.968 L305.5328 326.0087 L286.5605 330.0126 L281.3395 326.531 L269.1551 316.0877 L273.6868 313.1788 L276.262 317.0199 L288.5994 308.869 L294.6938 309.0655 L318.9255 296.1228 L319.0454 291.2453 L329.3803 282.288 L356.4805 270.3459 L360.1174 274.2712 L365.7814 265.5237 L364.7486 251.9739 L370.9489 247.0356 L361.4178 240.0313 L367.8482 224.1832 L378.5277 215.1126 L380.4864 215.887 L383.2414 218.4335 L385.2353 218.9374 L393.5548 222.4615 L386.3763 217.2056 L383.8429 215.331 L383.4436 214.6574 L385.1165 213.1641 L386.8943 212.9457 L398.3648 220.681 L400.6199 223.4206 L428.5164 236.6198 L425.3665 233.6921 L422.5859 229.2157 L419.3632 226.7414 L419.4691 223.8657 L421.66 218.8181 L423.2441 213.0028 L427.6152 195.2107 L428.5817 189.6069 L427.7822 188.2882 L424.5916 180.7879 L427.8058 177.4484 L430.199 176.2137 L435.0646 175.656 L436.6229 171.8545 L437.9202 170.8231 L439.3501 170.9911 L444.387 173.9291 L450.6611 180.5527 L461.971 194.9251 L462.9386 195.1603 L462.9386 155.0408 L464.5922 153.7356 L469.2042 156.0857 L475.7266 165.2326 L477.9315 174.5624 L480.1973 188.0598 L488.8721 191.9401 L489.3067 197.1609 L493.833 199.773 L490.3877 195.298 L490.8233 193.0354 L491.8669 190.598 L493.0859 183.2018 L491.884 152.1901 L486.5763 151.4845 L481.2301 149.0453 L479.1923 148.0139 L476.4255 145.825 L473.3163 143.6058 L471.9731 142.109 L471.8264 141.0725 L469.8239 123.7407 L468.3511 118.842 L462.8465 110.076 L462.3831 107.8198 L462.5255 103.0402 L461.5975 102.627 L459.672 104.2515 L458.7847 103.8013 L451.1224 96.0061 L443.4344 90.2302 L438.9412 86.4737 L437.6504 85.0356 L435.7592 77.8417 L432.4809 76.2289 L431.783 75.0948 L431.7787 68.719 L419.2337 66.456 L412.0016 64.2467 L403.1705 60.9874 L398.1818 59.6551 L392.1848 57.9834 L391.7471 57.0694 L392.0553 50.7053 L391.1392 45.2365 L386.3592 38.4253 L371.1223 32.2559 L369.5082 31.6897 L372.381 28.1211 L375.7749 20.4629 L400.8383 28.1211 L402.7295 27.1886 L408.583 25.1623 L406.0592 22.5514 L383.0872 14.001 L371.5108 11.1514 L373.1559 5.8857 L371.2989 0.9325 L367.8696 0.0 L363.5049 3.3974 L358.1823 2.4077 L354.5582 7.0249 L345.8245 5.3598 L337.1957 1.277 L334.5766 2.7606 L331.6643 1.9961 L329.3664 2.9437 L327.9718 6.9627 L325.4159 8.7572 L324.1336 12.1461 L326.8447 20.1319 L329.5794 21.3467 L332.5709 19.769 L334.156 17.6386 L336.9944 16.3197 L340.8989 15.7971 L343.2333 11.6572 L346.9258 15.1452 L353.0341 17.1597 L352.79 20.0446 L350.5766 24.5424 L347.5755 25.0918 L348.7593 28.3798 L350.9662 31.6158 L356.2942 31.1218 L356.9482 37.5802 L353.6559 38.8924 L350.7854 42.755 L344.4053 44.9223 L350.475 44.5359 L361.041 45.7691 L358.7121 53.8655 L354.5946 65.0128 L347.6151 76.1096 L346.5159 82.5072 L344.7906 86.4569 L334.0586 77.0706 L325.1857 69.7674 L322.8118 69.1743 L318.9576 80.1921 L314.5897 93.135 L312.8526 101.0864 L311.9814 101.9029 L311.1604 102.0238 L302.0703 100.2867 L301.4934 99.9877 L303.2851 92.6511 L303.1941 91.7691 L302.8409 91.4382 L302.4042 91.5776 L301.9804 92.3302 L299.7981 99.8533 L297.2946 111.9811 L295.3852 124.5219 L294.9817 125.5668 L294.1211 125.7802 L293.1728 126.0725 L292.3851 126.4169 L291.8863 127.1796 L291.5492 128.5319 L291.2142 129.5987 L289.8667 130.6957 L287.4328 130.9141 L284.4102 130.1195 L284.4498 128.957 L284.4263 121.1268 L284.0924 120.7336 L283.8462 120.616 L283.4427 120.9806 L282.3542 130.2606 L282.2065 130.8183 L282.1112 130.8519 L281.256 130.6268 L280.7541 130.2639 L280.2467 128.3455 L280.1001 122.049 L280.0102 116.5069 L280.5871 111.2637 L281.7741 104.359 L283.6385 92.7889 L283.5519 92.1874 L283.2393 91.6213 L282.7598 91.46 L282.3874 91.5154 L282.1209 91.7842 L281.7516 92.9115 L280.1194 101.456 L279.1508 107.5661 L278.4529 107.7895 L277.6116 107.761 L276.688 107.4838 L276.2224 107.1091 L275.8745 106.076 L277.4597 95.0989 L277.693 93.2475 L277.0176 92.8376 L276.5478 92.7519 L276.2598 92.8712 L275.6712 95.1039 L272.8552 107.7005 L272.4731 108.2162 L271.9615 108.3674 L271.4702 108.1322 L271.1598 107.5644 L272.4314 99.146 L272.5694 96.8511 L272.2483 96.7873 L272.1681 96.6882 L271.7089 96.6781 L271.2947 96.9687 L270.6236 103.7761 L268.3353 114.3397 L268.1555 114.6724 L266.8979 114.9328 L266.3542 114.8588 L266.2996 114.1314 L266.1808 113.6308 L266.7213 110.6505 L266.8604 101.4577 L266.6367 100.5622 L266.1454 100.3287 L265.7933 100.532 L265.2368 100.443 L264.7904 100.6143 L264.1879 100.2447 L263.8743 99.3442 L263.9716 96.873 L264.6128 94.7948 L265.317 93.0426 L265.4187 90.6015 L265.0077 88.8459 L264.5282 88.6863 L263.6955 88.3805 L263.2053 88.3604 L262.7023 88.1873 L263.5146 82.2434 L263.5232 81.7831 L263.4044 81.6823 L263.1315 81.6218 L262.8307 81.731 L262.5556 83.2665 L261.8235 86.8584 L261.4307 87.3003 L261.1011 90.1193 L260.5103 93.2727 L260.1025 104.354 L259.958 105.488 L255.6564 98.7294 L255.5869 98.2506 L255.6736 98.2338 L256.046 87.6984 L256.442 75.9785 L252.4487 97.5047 L250.9043 97.5635 L240.4399 84.8525 L237.748 83.2229 L231.1261 80.597 L215.9684 72.5025 L210.5719 72.3295 L206.7252 74.9705 L204.9453 83.0095 L198.9162 82.7793 L196.8495 92.5402 L196.3325 100.5202 L195.1734 107.9021 L200.6383 109.7652 L205.8186 111.5964 L219.5988 112.5691 L226.8181 114.3364 L231.8924 117.278 L233.5953 120.9033 L234.2396 125.7651 L235.1996 129.6088 L236.7206 131.5844 L240.533 133.6221 L247.1689 140.6895 L244.7254 141.2624 L236.6135 142.0654 L221.6934 143.3841 L208.4098 146.638 L197.2679 148.6522 L190.7626 156.8702 L196.6707 151.1737 L197.9893 157.5069 L199.0575 166.3917 L207.0217 181.065 L218.018 208.4557 L222.6171 213.8545 L215.019 213.6546 L199.4246 216.6529 L198.7032 219.8041 L194.8105 222.3321 L196.2233 225.8646 L192.7448 227.9004 L192.1936 227.8618 L189.2663 222.7605 L186.0822 214.2324 L186.1806 212.3477 L185.5288 208.9546 L175.8318 209.7559 L174.7326 215.1529 L173.033 223.4508 L168.9348 225.2498 L161.737 203.6566 L150.4409 203.7574 L146.7473 197.7186 L147.5158 203.9775 L141.0276 204.5738 L139.1834 185.3452 L138.5348 184.4482 L137.1531 185.4141 L136.908 188.6393 L138.6322 211.6624 L128.688 212.7139 L128.1989 212.4032 L127.181 206.2922 L124.3768 176.9058 L125.308 175.782 L116.7851 174.7556 L107.6436 173.526 L99.3819 172.293 L90.9864 172.2409 L83.0608 172.5903 L75.4038 173.5545 L74.4063 175.1991 L74.4234 187.6869 L76.8113 219.9536 L74.7177 235.5667 L74.4919 239.2486 L75.8608 240.589 L76.883 238.5162 L78.0282 231.6479 L78.8812 230.5007 L80.4685 230.2218 L83.2631 231.8478 L89.8123 243.4747 L93.1356 254.0432 L95.4592 272.1347 L81.7636 270.7356 L77.5648 281.4314 L55.0723 283.63 L54.1732 290.6289 L51.4739 294.2266 L44.2568 295.4963 L37.9152 296.4251 L35.9416 302.6933 L37.5267 318.9967 L36.8963 321.6436 L36.9519 322.4649 L49.7828 322.7387 L51.064 324.0151 L51.1175 333.9561 L50.0258 335.6809 L44.7566 337.6711 L18.167 338.3194 M60.1498 407.456 L61.2415 399.9123 L61.3121 398.2027 L63.5726 394.0379 L63.6904 389.8781 L62.8416 383.3201 L62.1127 379.0477 L62.0389 371.4433 L62.3536 370.4659 L62.1213 366.4722 L61.7767 355.4752 L62.8395 352.9241 L66.4528 353.1122 L67.8014 345.9644 L66.9462 340.0997 L66.6187 339.0198 L66.2398 336.3561 L74.5872 335.3618 L78.9497 334.4935 L83.4397 335.3316 L87.1098 338.3799 L91.9818 338.704 L96.0629 339.1441 L99.7051 338.0306 L105.2515 337.4478 L113.5496 332.2632 L124.6497 338.5546 L129.4212 349.7029 L126.2584 354.5011 L131.3713 364.5862 L137.5031 367.9283 L127.5321 377.0005 L124.4218 376.977 L115.4954 378.0434 L114.8093 383.1773 L106.7103 381.7263 L105.6785 382.8364 L105.7171 384.7476 L104.3974 390.4524 L100.3195 401.8352 L95.6337 400.8444 L90.7777 398.6797 L86.5607 397.62 L84.9563 398.0936 L83.232 402.6598 L79.9087 409.3771 L80.75 421.7151 L79.9612 426.1452 L79.4025 428.8623 L79.5149 437.8062 L77.5391 438.4477 L73.9332 433.9774 L72.3877 431.5693 L70.8357 427.4819 L69.3823 422.4238 L68.3334 418.5026 L64.5584 415.5688 L61.5262 412.0926 L60.5811 409.5753 L60.1498 407.456 M76.8006 174.9018 L77.066 174.633 L77.8644 174.3642 L89.8979 173.2908 L95.547 173.3445 L98.9356 173.3059 L102.0909 173.7595 L105.0149 174.2953 L106.6793 174.4297 L108.41 175.6358 L108.7439 176.3548 L109.6997 176.9999 L110.0293 184.4801 L110.2883 190.3846 L110.9284 204.9585 L111.8167 210.7503 L113.4297 222.1776 L113.7026 223.6255 L111.4678 225.1709 L108.6679 227.3058 L105.0289 230.2873 L104.1501 230.7375 L103.0274 230.6569 L102.1465 229.5197 L100.5946 221.5813 L99.3038 212.7206 L97.8589 204.1555 L96.6965 188.9719 L96.4311 187.0418 L95.8231 186.2154 L94.3204 186.3447 L92.7417 188.3605 L92.5705 189.9714 L92.6368 196.9392 L92.3949 200.8212 L92.1798 202.165 L91.3664 204.3067 L90.4662 205.9714 L90.1869 207.5453 L90.3838 216.27 L89.6507 218.7593 L88.6007 219.4934 L87.1569 220.0242 L84.0894 222.1675 L82.4903 222.8915 L81.6619 222.3254 L81.116 221.3982 L80.5145 219.1826 L79.1585 207.2765 L78.9744 204.1908 L78.5634 201.5804 L78.1791 193.7157 L77.6493 192.5869 L77.4128 188.6679 L76.9568 179.7061 L76.8006 174.9018 M82.4197 423.3458 L83.0041 418.6454 L84.1407 407.723 L84.2039 407.4341 L84.6309 407.4694 L84.8514 405.8455 L85.2314 405.8875 L85.3898 404.8815 L85.7986 404.9218 L85.9581 403.8622 L86.3638 403.9512 L86.611 401.8604 L88.0859 400.4699 L89.8519 400.8964 L91.969 401.5531 L91.0528 409.5585 L90.1098 416.5093 L89.2515 424.0326 L82.4197 423.3458 M91.924 424.2408 L93.0917 418.5261 L93.5188 418.5731 L94.3622 414.4924 L94.7485 414.5629 L96.3508 407.1201 L96.5017 407.0025 L96.8185 407.0664 L97.419 404.198 L103.8526 405.3366 L106.2907 405.6775 L109.811 406.3375 L105.6775 426.34 L103.1708 425.8748 L101.2892 425.633 L96.2609 425.0234 L93.2212 424.5834 L91.924 424.2408 M100.9874 400.6344 L101.3438 399.3162 L101.7826 398.8594 L103.2628 396.7165 L105.0353 393.0084 L106.964 389.4297 L108.091 386.7158 L108.6422 386.1163 L108.517 384.625 L107.2818 383.5686 L107.3482 382.9355 L113.4939 385.0549 L107.6051 403.0225 L103.539 401.9662 L100.9874 400.6344 M109.8281 401.5766 L111.3651 397.9105 L112.7351 394.2613 L112.8346 392.7515 L113.799 391.9538 L114.1596 390.0393 L114.8393 389.695 L115.4772 388.4271 L116.2136 386.4874 L116.8129 383.9129 L117.4915 380.4265 L118.5201 379.3785 L119.7488 379.1988 L121.0824 379.7396 L121.7599 380.7976 L121.8798 381.6205 L120.3353 386.8921 L117.119 393.4636 L117.4744 394.4628 L118.4708 394.8423 L119.3474 394.399 L122.9019 385.0465 L123.8984 381.115 L124.6551 379.8471 L125.3572 379.6405 L126.4125 379.9294 L127.0044 381.7952 L126.9798 383.4007 L127.3886 385.6914 L122.583 398.6562 L122.7178 399.5832 L123.3921 399.9056 L124.1617 399.6823 L124.7097 398.4278 L130.3202 384.2757 L131.0801 383.7433 L132.0017 383.6089 L133.6874 384.4134 L134.6592 385.2514 L132.4212 392.6591 L130.5172 396.829 L128.7726 401.2508 L128.5671 402.9738 L129.2424 403.9579 L130.7066 404.1863 L131.5693 402.7941 L132.4769 400.3574 L133.2036 397.1985 L133.6714 395.3915 L134.2279 394.268 L134.7213 391.4953 L135.4695 386.9509 L135.5562 385.3488 L135.8077 384.0456 L138.6568 385.07 L138.4203 386.9694 L138.355 388.7143 L137.5202 391.7926 L136.5344 394.7013 L136.4756 394.6895 L136.011 396.0599 L134.656 400.5874 L134.4784 402.292 L134.6164 403.6606 L135.432 404.4567 L136.2112 403.533 L138.6568 396.2933 L138.9233 395.2017 L144.0244 396.8962 L144.0351 397.4907 L143.6145 397.9962 L142.6437 400.6613 L140.9548 403.4323 L140.8724 405.0209 L142.1931 405.8472 L143.7151 406.3711 L145.1547 404.7573 L145.6952 405.5482 L145.1975 408.6114 L145.1386 411.3352 L145.3441 411.305 L146.0334 411.7299 L146.5033 412.0825 L146.2432 413.1708 L144.9717 413.7787 L143.424 414.7141 L142.0048 414.3732 L141.1753 414.6318 L140.5716 415.0869 L140.9238 416.0424 L139.4767 417.1843 L138.537 416.788 L137.579 417.0047 L136.9294 416.2003 L136.2979 413.8509 L136.3589 412.096 L133.4337 408.5291 L128.7404 405.7464 L126.1086 402.7085 L123.6747 401.8755 L122.2501 402.1291 L119.92 403.3567 L118.1786 403.2139 L114.9859 402.3995 L110.3579 402.339 L109.8281 401.5766 M109.9491 176.8991 L110.3922 176.9679 L110.892 176.7412 L111.3822 176.3783 L112.1978 176.1213 L112.9331 176.3649 L113.6759 177.0234 L114.0483 179.3264 L114.4133 183.704 L114.987 191.4043 L115.6324 203.9926 L116.5582 213.06 L117.377 219.4514 L117.2646 220.4256 L116.7958 221.1328 L115.7865 222.0483 L113.952 223.5248 L112.0661 210.6495 L111.1821 204.851 L109.9491 176.8991 M115.0523 179.4188 L115.2824 178.0414 L115.855 177.267 L117.0227 175.8693 L117.3513 175.3855 L117.8105 175.1134 L119.8515 175.3016 L122.4706 175.7333 L122.5862 176.4203 L123.1492 179.3583 L123.482 193.8568 L124.1285 202.726 L124.1242 204.0044 L124.8863 208.3634 L125.4567 212.5376 L125.6505 213.8679 L125.4268 214.4206 L122.7863 216.9889 L121.0085 218.3629 L119.2971 218.8736 L118.702 218.7056 L117.0152 206.6886 L116.0916 196.8132 L115.5639 188.3957 L115.0523 179.4188 M119.8505 223.2644 L122.1837 220.2661 L125.3187 217.3349 L126.5431 216.1339 L131.0341 239.0252 L131.3702 242.3795 L132.9136 247.128 L135.082 258.15 L135.204 264.9694 L135.9233 270.5307 L135.2854 270.7255 L134.5758 270.6617 L133.7163 268.1019 L132.4095 267.0723 L131.1625 255.9009 L130.2838 255.5415 L129.7497 255.6204 L128.9588 256.0252 L129.5036 258.6153 L130.9035 269.1634 L130.9538 272.6302 L130.4476 273.3575 L129.4511 273.1979 L128.0351 271.4209 L127.7825 270.1007 L127.3009 269.3012 L126.4061 266.7145 L126.4596 265.4094 L126.1599 262.6162 L125.8806 259.2384 L125.5199 252.1637 L123.0164 238.0006 L120.9839 227.5998 L119.8505 223.2644 M129.54 381.0059 L129.9734 379.1417 L130.6274 378.7773 L133.6478 379.4491 L134.0823 380.2401 L134.64 381.0428 L136.6596 381.8456 L138.8302 383.1807 L138.5273 383.7382 L137.381 383.7702 L135.1944 383.0682 L133.3449 383.0178 L131.9396 382.519 L130.7697 382.0521 L130.0195 381.7045 L129.54 381.0059 M136.1962 331.6703 L136.5644 320.5452 L140.5577 317.8025 L142.4222 326.4991 L142.7401 332.149 L146.8254 333.4523 L150.213 334.8882 L158.4244 334.4851 L171.055 328.6304 L183.4449 320.5519 L188.6627 312.5002 L204.1265 307.0417 L205.6196 317.0316 L203.8974 323.3466 L198.3853 334.601 L197.1224 337.4713 L195.8584 341.2619 L194.0217 344.2463 L192.5286 347.2324 L192.6432 349.8742 L194.0217 351.94 L194.711 354.2375 L194.5954 356.189 L193.7916 358.3706 L192.8733 359.7494 L191.1511 361.7009 L189.0833 362.5054 L185.9024 360.5774 L181.6639 357.2941 L177.5122 356.4258 L172.9677 358.2127 L169.624 361.1031 L167.8505 362.9034 L163.9289 366.709 L159.6895 367.4127 L157.4172 365.1035 L153.3522 365.1136 L151.3261 363.6625 L148.4641 356.4644 L153.3725 350.8433 L149.2936 351.2682 L146.5579 349.4225 L141.9909 347.2056 L145.1119 342.1251 L138.2865 340.3566 L136.7421 336.0454 L136.1962 331.6703 M138.7104 391.9085 L139.6169 382.4283 L140.1703 380.7388 L140.4271 379.3601 L140.7878 378.6933 L141.0533 378.4246 L141.3626 378.4565 L149.97 381.2964 L157.1314 383.886 L161.2307 384.8181 L162.5386 385.1641 L163.3767 385.4244 L163.6924 385.7619 L163.7523 386.1734 L163.5147 388.4691 L163.5864 389.2248 L163.9279 390.5146 L164.6139 391.5642 L165.0645 392.3031 L165.2422 393.0051 L165.1801 393.3578 L164.7167 393.5794 L162.2239 394.5199 L160.8754 394.9464 L159.394 395.2403 L157.9438 395.4906 L155.0764 395.949 L151.7767 396.5838 L148.5882 396.6678 L147.3927 396.5754 L146.0794 396.1925 L140.0632 394.6609 L139.5077 394.2445 L139.1214 393.6869 L138.7617 392.7817 L138.7104 391.9085 M140.1553 424.3483 L140.2901 423.0771 L140.7761 421.1895 L140.8874 418.9006 L141.2545 418.1835 L143.5845 416.9644 L146.4572 415.6897 L149.3845 414.269 L152.0004 412.5897 L153.9901 411.9314 L158.19 414.0927 L158.6416 415.2598 L158.0904 416.0038 L156.5128 417.4665 L155.5677 418.7428 L154.6269 421.3457 L154.1453 423.2165 L153.4389 424.837 L152.2819 425.9537 L150.0588 427.5121 L148.5058 428.4979 L147.4655 429.1242 L146.1597 429.22 L143.3951 427.3677 L141.2074 426.345 L140.4303 425.0855 L140.1553 424.3483 M142.252 213.6092 L145.2863 213.4967 L148.3677 213.6277 L150.0396 214.1098 L151.0681 214.1031 L151.8858 213.4665 L152.4456 213.7285 L152.6704 214.9732 L153.212 218.9945 L154.5466 227.8148 L154.903 232.6759 L155.542 235.8421 L156.2848 240.075 L157.0041 243.342 L158.8953 250.3748 L159.53 253.8988 L160.368 256.771 L166.0578 278.9876 L166.1027 280.4371 L164.8826 281.3642 L161.4191 283.1614 L159.1629 283.9743 L157.4472 284.1809 L156.3822 280.2574 L156.3244 276.6193 L154.5959 268.5084 L151.7349 259.314 L148.4705 250.0691 L147.5961 246.0463 L146.6713 241.6808 L146.4519 239.0269 L146.4551 237.1271 L142.252 213.6092 M150.6443 403.7614 L150.6646 400.0887 L151.1045 398.7485 L151.5112 397.311 L152.5848 396.7417 L153.6304 397.0221 L158.0658 395.9238 L159.8992 395.3864 L161.7188 394.9918 L161.6267 396.3487 L160.3959 398.9702 L160.8315 399.9745 L160.5971 401.5044 L159.7034 402.3675 L159.8693 402.8092 L160.6131 403.2878 L162.0013 403.7245 L163.9546 405.8018 L164.5915 406.9051 L165.209 408.9674 L165.5804 410.4284 L166.2387 411.1304 L167.0489 411.2513 L168.603 411.0229 L169.3479 411.2328 L169.8841 412.1917 L169.9772 413.3756 L169.3201 415.9433 L168.4007 419.9871 L168.0271 421.2382 L167.3507 421.4968 L166.7503 421.1862 L165.1844 418.0643 L165.0688 416.7259 L165.2005 415.9887 L165.1983 415.4311 L165.1405 415.0399 L163.3788 412.7459 L162.6114 412.3798 L162.0013 412.5477 L161.3377 413.4428 L160.7277 413.6124 L160.0609 413.3907 L156.8649 411.0666 L155.4746 410.2336 L154.1635 409.9464 L152.4542 410.1967 L151.1538 409.9884 L150.6721 408.8616 L150.6443 403.7614 M152.6404 488.2501 L153.9943 484.1764 L155.1203 482.7139 L156.4336 481.965 L165.1759 481.5468 L170.8731 480.7593 L177.5101 479.6342 L178.5675 479.374 L179.458 479.5335 L179.9397 480.2253 L180.2661 481.7332 L180.3325 485.5383 L179.4088 486.1931 L177.4972 486.6549 L170.765 487.9613 L163.1155 489.0343 L156.699 489.2727 L154.7725 489.3097 L153.5459 489.2459 L153.0782 488.9638 L152.6404 488.2501 M153.289 463.5978 L154.0222 462.3333 L154.263 461.9186 L156.0686 459.0051 L156.9484 457.9035 L160.8518 451.116 L162.5236 448.9347 L163.7877 448.5602 L164.6289 448.6945 L167.6761 449.8364 L169.6583 449.8247 L171.7026 449.5258 L174.4479 449.2756 L176.4387 448.8322 L178.5579 447.7256 L181.2818 446.0766 L181.7485 445.8566 L186.3893 444.2697 L195.6314 442.2546 L196.7221 442.3402 L197.9465 443.1026 L201.745 456.0513 L201.1906 457.7373 L198.9002 458.7364 L197.5537 459.5761 L194.6286 461.0135 L191.0612 463.0521 L189.535 463.7775 L187.373 464.2561 L185.4079 464.7934 L175.0345 466.251 L170.7768 466.8286 L166.3714 466.9512 L156.79 466.6087 L155.7282 466.4861 L155.0208 466.1704 L153.8263 465.6129 L153.38 464.7011 L153.289 463.5978 M153.4025 469.5473 L153.8809 469.1711 L163.7416 468.8806 L170.3048 468.9109 L175.3844 468.2744 L178.392 467.9252 L186.6473 466.5197 L193.0028 465.3593 L194.057 465.2821 L200.2102 469.3609 L200.5848 469.8428 L194.2422 473.433 L188.7665 475.1189 L175.9185 477.7418 L163.6881 478.9962 L157.2085 478.9491 L156.0772 478.5025 L155.2969 477.8493 L154.1196 473.4263 L153.4025 469.5473 M162.544 403.2173 L163.4131 401.8251 L167.2704 396.3319 L169.3897 392.283 L170.3519 391.4567 L171.3151 391.6011 L176.5982 393.5761 L177.341 394.7953 L177.8611 396.7501 L177.6203 398.7536 L176.5286 400.223 L176.4676 401.7479 L176.5789 403.1535 L176.1454 404.6145 L175.3834 406.0688 L174.5796 407.9715 L173.6912 409.8104 L172.9238 410.42 L172.6466 410.4603 L171.892 409.8121 L166.8252 405.434 L163.2846 403.7732 L162.544 403.2173 M164.6557 388.7193 L164.6632 387.9384 L165.8191 387.0987 L166.7974 385.9786 L167.1185 384.9474 L167.4181 383.7651 L167.9533 382.3158 L168.3076 381.4543 L170.8057 379.9596 L172.4165 379.4188 L175.3448 378.8378 L176.4869 378.077 L176.6153 377.0156 L175.8094 376.6596 L169.8691 377.7008 L167.3507 378.8025 L165.9186 379.1031 L165.6061 378.4381 L165.3535 378.0014 L165.7474 377.469 L167.1024 376.4177 L169.3693 375.8014 L173.4557 375.1615 L176.2846 374.9466 L178.5247 374.1304 L179.6742 372.7768 L180.2843 372.9414 L180.3496 373.5308 L181.0389 374.5704 L181.4927 378.1055 L180.9843 381.7801 L180.0082 385.5705 L177.9104 389.1509 L177.0734 391.1678 L176.717 391.3156 L175.8864 391.4366 L170.5905 389.3692 L169.532 388.8738 L168.5355 388.8218 L168.01 389.7068 L167.4663 389.9201 L166.9247 390.0947 L166.5961 390.3416 L165.9486 390.3903 L165.3995 390.5935 L164.736 389.9402 L164.6557 388.7193 M172.1671 436.943 L172.5556 434.3133 L172.8906 432.4341 L172.2987 430.8724 L172.516 427.0335 L172.2666 423.9906 L172.2474 423.7471 L172.2228 423.4532 L172.3298 421.5758 L172.7954 420.4859 L173.7576 420.0258 L176.5404 421.0199 L180.1088 421.7034 L183.202 421.4179 L187.3194 420.6001 L194.9432 417.93 L197.7004 416.8065 L198.5577 416.8703 L201.9495 429.1713 L201.6123 430.7364 L199.7468 432.812 L197.8127 434.4207 L195.0738 435.6752 L190.6042 437.6685 L185.547 438.2075 L179.8883 438.1823 L174.2831 438.5283 L172.9623 437.8683 L172.1671 436.943 M175.3705 415.2867 L175.4893 414.3228 L176.7373 411.7148 L177.9446 409.4477 L178.148 407.0832 L178.8137 404.0251 L180.9425 398.8174 L181.5194 396.6863 L182.6775 396.7014 L183.5958 396.9482 L182.9954 401.5984 L182.6657 411.5636 L182.5705 414.6754 L182.1135 417.1827 L181.3503 417.5857 L179.9547 417.9266 L178.0859 417.4228 L176.3349 416.4723 L175.3705 415.2867 M180.8633 395.1043 L180.9329 393.5996 L181.2893 391.9756 L181.3814 389.2618 L182.6818 382.9221 L183.0596 377.7478 L182.6807 375.1481 L182.9151 374.1656 L183.1249 373.6618 L183.5798 372.2746 L184.4617 371.8615 L186.0822 371.3392 L186.6901 371.6297 L186.8688 373.4989 L186.3337 382.7726 L185.8585 388.8654 L184.1631 394.9884 L180.8633 395.1043 M181.7549 508.0624 L182.7942 499.519 L182.3393 491.5379 L182.3832 486.4584 L181.7881 481.2211 L181.9561 479.7619 L182.1606 478.9693 L182.5833 478.526 L183.3336 478.1414 L184.5976 477.8342 L186.4097 477.2196 L187.8268 476.8132 L189.4098 476.3984 L190.9767 475.8796 L194.2807 474.7041 L200.6351 472.318 L201.8596 472.3482 L202.7576 472.773 L204.545 475.1172 L205.2214 476.5261 L204.9495 476.9626 L204.5707 477.5974 L201.7921 480.4604 L200.3804 482.0842 L198.502 485.2444 L198.0257 487.6171 L198.0814 491.7596 L198.2302 495.1851 L197.969 498.1992 L197.2176 501.1612 L195.3425 504.4993 L193.6685 507.0214 L191.8115 509.1085 L190.434 509.6761 L186.0308 510.3662 L183.4299 510.5795 L182.1327 509.8222 L181.771 509.1136 L181.7549 508.0624 M184.7464 415.8997 L185.4325 408.3108 L186.1924 399.2893 L187.7294 385.8862 L188.1746 385.0633 L188.9377 384.4772 L190.6781 384.1279 L191.7216 384.8282 L192.9856 391.5642 L195.3178 398.5218 L197.6661 406.2368 L199.1624 411.9885 L199.8613 413.243 L198.2719 414.5596 L188.667 416.9408 L185.8467 417.6344 L185.212 417.1592 L184.7464 415.8997 M188.0976 382.7088 L188.2592 379.2207 L188.4047 376.6663 L188.5225 374.5435 L188.6295 371.9337 L188.1714 370.4608 L188.8093 370.2442 L189.3926 371.0134 L190.2724 371.099 L191.3074 371.2065 L191.7858 372.2965 L192.1315 373.8331 L192.4291 375.2539 L192.793 376.4983 L193.7413 376.5269 L193.9842 375.3765 L193.9982 374.1085 L194.8202 373.5913 L195.9247 374.0279 L200.6234 368.1701 L203.8172 366.9576 L204.5525 364.514 L203.6117 361.968 L204.4711 360.5505 L204.3919 359.3195 L204.8853 358.2631 L204.7323 357.63 L203.8396 357.0438 L202.7822 357.0909 L202.1314 356.9112 L202.0094 355.8615 L200.7229 352.8754 L199.5434 350.2101 L202.2385 349.1756 L203.2841 351.2346 L203.8268 352.0407 L204.2185 352.5328 L204.7804 352.6336 L204.8093 352.6151 L206.4383 355.4568 L206.3056 355.4769 L205.504 356.7684 L205.672 357.2941 L206.3163 357.2235 L210.817 355.6197 L215.3551 354.7816 L222.4737 352.6991 L224.4752 352.7579 L226.2048 352.7176 L227.2109 352.4186 L227.989 353.3726 L228.3829 354.8253 L227.944 355.6835 L227.2462 356.5333 L225.9329 357.3361 L223.1833 358.1036 L218.6912 358.5016 L215.6301 358.6897 L213.2744 359.3396 L212.0628 361.3634 L213.3782 362.1477 L213.5826 363.5517 L211.0974 366.3429 L208.9546 369.213 L209.2169 370.5163 L207.9485 371.6717 L202.0512 375.7644 L195.9311 380.4937 L195.0353 380.717 L193.7991 380.8984 L191.9742 381.7448 L190.9371 381.8355 L188.0976 382.7088 M194.6179 384.3059 L206.2382 380.5356 L206.6374 376.4093 L208.7299 374.6124 L210.5269 373.6954 L213.3482 382.4989 L209.3667 382.8918 L205.443 383.8474 L202.0565 385.0448 L198.1392 386.5647 L195.1027 387.5572 L194.6179 384.3059 M196.0746 104.9352 L196.3989 103.3544 L196.7863 102.2422 L197.9412 95.0972 L198.8167 84.2594 L198.821 84.2494 L199.339 83.8142 L199.9052 83.6983 L202.7469 84.1082 L203.2595 84.4913 L203.5945 85.1146 L203.0797 92.72 L202.8485 100.2296 L202.9288 100.9335 L203.2221 100.4178 L203.8514 97.6727 L204.7055 92.4462 L206.4555 78.3776 L206.7851 78.0232 L207.3706 77.8602 L210.4862 77.9845 L213.6383 78.9287 L216.4414 79.9821 L222.6942 82.6315 L223.9507 83.0515 L225.1473 83.747 L225.9832 84.5702 L226.2476 85.6623 L226.36 86.7442 L225.8398 90.9106 L226.6811 91.46 L227.8424 91.8094 L229.497 92.211 L230.0204 92.8645 L229.9145 97.9935 L230.2067 100.2313 L231.1143 100.3825 L232.5207 100.9386 L241.6611 106.7463 L246.7697 108.8983 L247.6184 109.4006 L248.2017 109.0882 L249.0291 107.2704 L248.9948 103.4266 L250.1304 102.8252 L251.5432 102.5833 L253.5404 102.0675 L254.4962 101.9533 L259.4828 109.1302 L260.2812 110.5397 L260.7682 113.567 L260.9962 114.6169 L261.831 116.6614 L261.9616 117.5619 L260.3722 125.3065 L260.1078 125.9045 L259.7653 126.222 L259.2088 126.3934 L258.0882 126.0221 L247.1079 120.1944 L246.0194 120.0465 L244.293 120.1289 L240.8915 118.6119 L229.4596 111.9189 L227.0171 111.4519 L211.5009 109.3267 L209.2961 108.7186 L207.2411 107.304 L205.5436 106.9344 L204.2132 107.052 L202.2973 107.4737 L198.8552 106.6639 L196.3175 105.3048 L196.0746 104.9352 M196.2886 463.0369 L196.3507 462.4156 L196.8024 462.1822 L196.8741 462.157 L203.0305 458.9648 L205.9835 457.5106 L210.0046 456.3368 L210.1705 456.2277 L210.1791 456.2243 L213.3911 454.1118 L217.4143 452.4494 L221.5843 451.1227 L224.9226 450.0866 L226.086 449.5577 L227.213 448.7819 L235.8932 442.3167 L242.9572 438.1555 L244.9073 437.4888 L246.8307 436.5534 L249.4765 434.7969 L252.8608 432.4896 L253.9108 432.3351 L254.7991 432.5215 L255.7784 434.5114 L257.0093 436.8775 L258.6897 439.0337 L259.7889 439.9489 L260.7993 440.2428 L262.2163 440.0144 L262.6252 440.2294 L263.0009 440.6374 L263.5671 442.2193 L265.2624 447.3663 L266.626 450.2462 L268.0249 452.9279 L268.4081 453.9691 L268.5033 454.629 L268.4006 455.655 L268.3524 455.7894 L267.8162 456.8557 L266.3563 459.079 L263.3123 460.1369 L247.3583 463.5424 L234.2396 467.0704 L223.6553 469.6917 L214.8242 472.7025 L208.8583 474.7679 L207.8148 474.9207 L206.8215 474.3767 L203.9927 470.1165 L202.1956 468.2358 L198.9098 465.8715 L196.5145 463.5407 L196.2886 463.0369 M196.3914 392.1772 L196.6365 391.6162 L198.1991 390.664 L200.7689 389.8932 L209.1997 387.1474 L215.1646 386.3396 L219.9702 386.0978 L220.849 386.2976 L221.2321 388.4775 L221.9054 389.8915 L223.2411 390.0779 L224.168 389.7589 L224.6935 388.8738 L224.9675 387.9334 L224.0417 384.3915 L223.8041 381.0848 L228.5691 379.6405 L229.313 379.2106 L229.2905 377.9023 L228.5744 376.9535 L228.1891 372.0076 L228.7371 371.7305 L239.7645 370.6422 L242.9947 370.3685 L243.6198 371.0654 L243.4977 386.8636 L242.8588 395.504 L242.238 396.1875 L240.8305 396.8525 L228.614 397.8517 L226.7474 398.0583 L223.787 397.0457 L222.3217 396.866 L219.3291 396.9751 L207.5226 400.3456 L201.6787 401.9897 L200.3526 402.3155 L199.8859 402.2517 L196.4117 392.7666 L196.3914 392.1772 M199.6847 438.3855 L199.8495 437.1093 L200.7486 435.7558 L202.155 434.4241 L205.1497 432.8741 L208.1305 432.1134 L215.9512 429.7993 L220.378 427.7741 L225.0788 424.481 L229.998 420.0845 L231.1143 419.3843 L232.4457 419.1139 L235.7166 421.8932 L237.6785 423.3189 L238.8344 423.5943 L239.8062 423.1913 L241.9533 421.5338 L245.6277 418.1046 L246.3587 416.8485 L246.6113 412.8282 L246.9859 411.4058 L247.9095 410.4267 L250.0908 409.1891 L251.9007 408.5408 L254.2543 407.9682 L257.2169 407.9178 L259.6701 408.5543 L261.7005 409.9431 L263.9042 412.5309 L266.9439 417.2834 L267.7616 421.7722 L267.9125 425.4281 L267.5668 427.2401 L266.6035 428.9899 L265.3909 429.5625 L265.2464 429.5777 L263.8999 429.0957 L262.1746 428.1956 L259.7857 427.4651 L256.8905 427.0705 L255.6029 427.1931 L254.4855 427.586 L249.6434 430.0042 L242.664 433.8582 L239.955 435.1092 L233.4764 440.137 L225.5637 445.6736 L220.5461 448.8155 L206.281 455.2117 L204.9998 455.5963 L204.1811 455.3393 L199.6847 438.3855 M200.2659 487.8505 L200.8727 484.6987 L202.0479 482.3042 L203.4693 480.5645 L205.2621 479.6326 L207.7152 478.709 L209.2115 478.7493 L216.6277 476.2641 L222.0434 473.71 L254.3293 465.3106 L258.5045 464.6994 L265.4883 463.6028 L266.2557 463.6448 L266.6207 464.5869 L267.0413 469.0452 L266.8914 475.3473 L266.7566 478.4471 L266.26 478.7946 L265.3438 479.1876 L264.5796 479.3756 L262.1511 478.9978 L260.2266 478.5327 L257.7114 478.8098 L256.4859 479.0902 L255.4777 479.6695 L255.8705 480.4822 L256.0963 483.7415 L257.523 483.4745 L259.6455 482.9053 L261.1428 482.3193 L262.3127 482.5141 L263.2674 483.3066 L263.3444 483.8305 L263.2117 485.5366 L262.8007 487.1268 L262.165 488.7153 L260.0286 489.8202 L258.771 490.2802 L256.6743 490.4028 L255.5933 491.4456 L251.3228 494.5117 L247.4932 497.0557 L246.5866 495.0054 L245.6972 495.1666 L246.9035 497.4922 L245.2263 498.4091 L244.232 498.4997 L243.7846 498.5652 L243.0172 498.5249 L233.5332 492.8124 L230.0515 490.5405 L228.0115 489.0763 L226.4039 486.4014 L224.6667 483.362 L223.5151 483.2999 L203.0444 490.2013 L201.2773 490.6144 L200.5078 490.0368 L200.2659 487.8505 M200.9338 217.0258 L202.0276 216.6983 L210.8138 216.312 L223.3 216.3472 L224.4142 217.0998 L225.127 217.8204 L226.2166 220.6457 L226.3696 222.5959 L226.2198 223.5516 L223.4252 223.4878 L220.3095 223.7297 L216.8952 224.1076 L209.9019 224.6871 L205.8336 225.1759 L203.2767 225.5959 L202.0897 222.8596 L201.1574 220.4979 L200.9466 218.4738 L200.9338 217.0258 M201.0493 419.1055 L201.471 417.5303 L202.9791 415.0835 L203.1514 414.9995 L203.9167 414.62 L207.9004 413.5335 L210.9861 412.578 L218.8807 410.9188 L222.6021 410.462 L225.3314 410.0556 L231.8721 408.9455 L237.016 407.6575 L238.9971 407.1369 L240.2975 407.1772 L241.5776 407.6021 L242.391 408.4787 L242.5109 409.3049 L242.3215 410.0976 L241.3989 410.7391 L235.2029 414.1078 L233.044 414.9021 L230.7033 416.0877 L226.2048 419.1962 L223.225 422.1988 L221.9118 423.4096 L219.1482 425.5641 L217.7665 426.0998 L212.0468 427.7892 L207.5643 429.5138 L206.4212 430.0042 L204.835 430.6843 L204.1682 430.5735 L203.6684 429.7876 L203.0915 427.8547 L201.0493 419.1055 M201.8895 410.6803 L202.1143 409.8003 L202.3626 408.2688 L202.1732 406.2368 L202.1582 405.2023 L203.1375 404.5994 L206.3227 403.0662 L221.093 400.2868 L223.1394 400.218 L225.0488 400.7806 L226.2636 400.7554 L239.6404 399.0458 L240.762 399.5378 L241.4438 402.4448 L240.8455 403.1417 L239.7485 403.7614 L236.3727 404.3005 L228.7361 405.5701 L218.2117 406.8665 L213.01 408.1311 L208.6924 409.8306 L202.5628 411.1186 L202.1047 411.1085 L201.8895 410.6803 M203.2681 340.8672 L203.6962 340.2122 L207.042 336.2352 L209.5743 335.2073 L222.4234 331.3529 L226.4852 330.4963 L226.7699 330.6525 L227.0953 331.986 L227.6187 335.1334 L227.0996 336.0639 L225.6653 336.9977 L213.6105 340.0124 L205.3145 342.3435 L204.3448 342.4207 L203.6202 341.9337 L203.2702 341.3274 L203.2681 340.8672 M203.8107 227.7006 L204.1051 227.0001 L204.9495 226.6339 L208.5843 226.2997 L218.8657 225.7269 L223.2775 225.2952 L225.5091 225.0449 L225.95 225.1474 L226.2958 225.3254 L226.6779 225.7588 L226.8587 226.2661 L227.2312 228.4094 L227.335 229.5382 L227.2644 230.3125 L227.1467 232.0426 L210.3107 234.3119 L208.0256 234.5924 L207.0506 233.4368 L206.5165 232.0661 L206.3559 231.28 L205.8732 230.5729 L205.2867 229.7885 L204.4326 229.0443 L203.8814 228.2851 L203.8107 227.7006 M205.6506 353.2315 L207.2561 351.9685 L210.5012 349.095 L212.3347 348.2284 L215.0265 347.4054 L218.0544 347.1333 L219.7476 347.0578 L222.1547 346.6194 L231.5189 344.2211 L241.5252 341.5592 L242.3718 341.5205 L242.8502 341.8783 L244.1474 344.9433 L243.8991 345.5798 L243.4945 345.7243 L230.2302 347.6641 L223.6682 349.9952 L217.546 351.8325 L213.269 352.8872 L210.3503 353.9133 L209.6364 354.2744 L208.7085 354.9244 L207.9946 355.2855 L207.59 355.4316 L207.1116 355.0722 L205.748 353.9016 L205.6506 353.2315 M205.9984 346.8428 L206.2778 344.6612 L207.0977 343.855 L220.6081 340.6791 L221.3124 340.8336 L221.6603 341.4685 L221.9043 343.1446 L221.8112 343.6719 L220.3641 343.8516 L216.4339 344.1372 L211.8755 346.2399 L210.3514 346.8915 L208.793 347.8891 L206.448 349.3452 L205.9984 346.8428 M206.4244 331.7492 L207.8715 329.0217 L210.7399 320.2311 L211.6347 319.6886 L213.6126 319.5543 L214.9655 319.3561 L216.2199 319.173 L216.8781 318.7683 L217.8864 317.952 L219.6192 317.5456 L220.6392 318.2174 L221.4847 320.8677 L220.8714 321.5731 L219.0958 322.3977 L217.5781 322.8764 L216.7261 323.3618 L217.2838 325.0765 L218.3284 326.62 L220.0452 328.2172 L220.6863 329.4584 L209.0788 332.7485 L206.8868 333.1718 L206.4244 331.7492 M207.9881 234.8578 L210.2733 234.5773 L224.2108 232.7044 L227.1092 232.308 L227.9783 233.1227 L228.9373 233.9592 L229.755 235.397 L229.3451 235.7162 L227.548 236.0252 L221.8336 236.6098 L217.5417 238.0325 L213.2969 238.9193 L211.5095 239.5005 L211.0118 238.9731 L207.9881 234.8578 M209.6899 306.1582 L215.4268 302.3154 L217.0633 303.8203 L218.1882 310.4377 L219.4704 314.9137 L220.4968 316.2137 L220.1608 317.04 L217.2185 316.7998 L214.4453 318.2526 L212.7275 318.3416 L212.7574 314.2369 L209.6899 306.1582 M210.9979 298.7782 L212.3935 298.1635 L213.6511 296.9525 L216.2327 294.9824 L220.4722 291.383 L221.4119 291.5023 L221.7876 292.3202 L222.5358 293.2373 L223.1052 294.6952 L223.9165 294.9874 L224.7609 294.4533 L225.8687 293.2642 L226.8855 293.2171 L227.2473 294.2954 L227.8509 294.3828 L228.1495 293.8033 L229.1599 293.7059 L230.7279 292.0851 L232.0347 291.6501 L233.8778 291.9894 L235.1451 296.4772 L235.8033 298.5397 L236.2025 301.0507 L235.585 302.3188 L234.1315 302.9251 L229.9198 303.8673 L225.6728 304.5912 L224.0503 304.0067 L223.5954 303.308 L223.1876 303.0023 L222.3399 302.9419 L221.3231 302.5069 L220.4851 302.3288 L219.5004 302.045 L217.8521 302.2247 L217.2634 301.7141 L216.4735 300.3822 L215.5756 300.6761 L214.5042 301.2808 L212.8409 302.7135 L212.0189 302.2751 L212.0714 301.3009 L211.8413 300.5552 L211.3446 299.7541 L210.9979 298.7782 M214.1071 240.6158 L214.4571 240.3253 L218.764 238.7295 L226.7496 237.3774 L229.1931 237.0801 L231.7297 236.939 L233.7601 236.3511 L235.3377 235.5868 L237.7084 235.0409 L241.5915 234.5336 L242.2637 234.757 L242.8748 235.6137 L243.6187 238.664 L243.3276 240.851 L242.3814 241.6791 L241.583 241.9495 L219.631 247.6134 L219.3216 247.5815 L217.4133 244.4136 L216.0101 242.6264 L214.7065 241.5145 L214.1467 240.8846 L214.1071 240.6158 M214.1135 373.0572 L214.5449 372.461 L216.1749 370.528 L218.8882 381.4996 L216.5399 382.3007 L214.44 374.5653 L214.1328 373.4972 L214.1135 373.0572 M217.4614 324.9926 L218.9417 323.093 L224.381 321.6906 L227.8787 322.915 L230.8713 323.7145 L232.7433 322.3557 L236.1843 321.6234 L238.9735 320.263 L239.7142 318.8186 L240.883 320.384 L239.0699 322.265 L237.3734 324.3678 L235.9071 324.0302 L233.8211 324.3359 L232.2938 325.7416 L226.7988 327.9418 L225.4716 327.495 L223.407 328.4624 L221.5093 328.4255 L220.4594 326.4118 L217.4614 324.9926 M217.531 365.5636 L220.1982 363.7314 L223.803 369.69 L225.7745 376.4329 L224.4035 375.793 L220.8447 367.9686 L220.1929 367.0415 L219.8814 368.2457 L222.2083 375.138 L221.8155 376.2028 L220.9089 375.9391 L218.6259 368.6857 L217.531 365.5636 M218.2695 303.4827 L220.8725 302.9385 L222.4812 304.8398 L224.2472 305.6023 L225.5722 305.5267 L229.5773 304.9086 L230.9709 304.2267 L234.0373 303.0729 L235.1986 305.1068 L235.5207 306.7948 L232.8236 307.7421 L228.9276 309.7306 L226.8095 310.206 L223.4305 310.777 L221.2332 311.7562 L219.8975 311.9225 L218.9299 310.1757 L218.5285 307.9453 L218.2695 303.4827 M220.2228 249.0596 L220.85 248.6615 L231.08 245.7624 L235.5668 244.8016 L241.8698 243.4528 L245.8053 242.1746 L247.1122 242.3493 L247.8956 243.0279 L248.1482 244.029 L248.1857 245.23 L248.5186 246.6812 L248.6598 247.6571 L249.5942 251.1424 L250.6784 254.0986 L250.4836 255.1636 L250.0973 255.7548 L241.507 257.1321 L223.4391 260.6947 L222.8622 260.3957 L222.7744 259.7961 L221.8433 255.4877 L221.2043 252.6692 L220.2464 249.7449 L220.2228 249.0596 M220.2731 313.3635 L222.905 312.5892 L225.8323 313.8203 L227.4752 313.4995 L228.8367 312.4414 L230.1275 312.2516 L231.6462 311.3682 L234.824 310.1942 L236.5086 309.467 L238.9596 308.6457 L239.6382 310.7804 L240.3617 313.5936 L240.7481 316.7696 L239.7463 316.3632 L234.3991 318.5667 L233.3865 319.1915 L230.3041 319.6416 L229.8898 318.434 L229.4189 315.1942 L228.598 314.9137 L227.9034 316.6739 L228.3261 319.0638 L228.3786 320.3856 L226.5077 320.8122 L225.0478 320.3252 L222.1858 320.7115 L221.2578 317.8865 L220.6574 315.122 L220.2731 313.3635 M222.8665 341.4164 L223.1844 340.9092 L225.2683 339.9452 L227.121 339.5673 L231.003 338.6335 L234.6998 337.8945 L237.9578 337.0665 L241.1002 336.0723 L242.4189 335.5298 L242.3611 334.6816 L241.7264 333.9192 L240.4623 333.7764 L230.6198 335.8086 L229.9958 335.5701 L229.8567 335.0646 L228.6975 330.2125 L229.298 329.4214 L229.8556 329.2081 L242.5066 326.2388 L243.7889 326.5125 L244.7404 327.7268 L248.1536 334.0317 L250.7448 339.7067 L252.5964 342.9884 L252.681 343.5678 L252.4262 344.0649 L251.1729 344.4462 L248.8974 345.1096 L247.6623 345.0928 L246.7343 344.9635 L246.4133 344.5503 L246.2645 343.9793 L245.6737 339.9217 L245.2306 338.6704 L244.4214 338.5025 L229.9969 342.0764 L223.7431 343.6484 L223.0998 343.027 L222.8665 341.4164 M223.0345 263.6408 L223.0634 262.7926 L224.3735 262.371 L248.5346 257.2279 L251.3452 257.1136 L257.6932 255.9715 L258.5056 256.3259 L259.0868 256.9726 L259.1467 257.9098 L258.0197 259.5945 L257.1624 261.5597 L256.7118 263.6945 L256.1798 264.232 L254.8066 264.7393 L227.2044 270.309 L226.4788 270.0318 L226.1898 269.6153 L225.8419 267.7509 L224.9322 266.7347 L224.0117 265.6429 L223.4766 265.1088 L223.0345 263.6408 M224.8937 364.6819 L225.2222 364.2386 L227.2515 363.3501 L231.6676 361.7832 L237.3114 360.5623 L241.7585 360.1088 L242.192 361.046 L242.2712 363.2611 L242.7528 366.9912 L243.0 367.9619 L241.3528 368.0341 L236.9657 368.7378 L233.8789 369.1744 L230.0247 369.3558 L228.4364 369.3138 L226.9968 369.2416 L224.9236 365.3352 L224.8937 364.6819 M225.645 212.7391 L225.9019 211.9597 L226.5558 211.2156 L227.2911 210.7268 L230.532 209.5661 L237.0149 207.8863 L240.0032 207.295 L242.6586 207.1354 L244.9491 208.1282 L245.4061 208.444 L246.3779 210.2094 L248.4436 214.3634 L252.0259 215.5493 L252.8768 216.1725 L255.3803 219.2549 L255.619 219.8461 L255.7774 221.1177 L255.2304 221.5477 L251.8718 221.9693 L251.57 222.4313 L252.0527 222.7302 L254.2244 222.4128 L255.239 222.4044 L256.0043 223.0561 L256.183 224.3579 L256.0653 226.0527 L255.4681 226.518 L252.0377 226.4408 L249.4594 226.98 L249.3181 226.9783 L248.7851 226.859 L248.0219 227.153 L247.6901 227.5981 L246.9955 227.541 L246.1318 227.0337 L245.6865 226.8993 L245.3355 227.1043 L244.9673 227.7073 L242.178 229.046 L241.3293 229.1703 L240.9354 229.1821 L240.6411 229.1485 L239.5333 228.4413 L238.0509 224.6871 L237.5939 224.3142 L237.1968 224.2034 L236.7655 224.4805 L235.8076 226.1619 L235.5454 226.765 L234.1796 227.5695 L232.9927 228.574 L232.6074 228.7269 L230.6937 228.5421 L229.1385 228.6496 L228.2887 226.2997 L227.6765 223.8405 L227.6336 222.4346 L227.7856 220.7129 L227.9986 219.873 L226.3311 215.2168 L225.645 212.7391 M229.4639 353.2634 L229.9476 352.6134 L231.1806 351.7771 L234.4783 350.1799 L238.0381 349.0177 L246.0536 347.5247 L251.3827 346.2886 L252.5568 346.2466 L254.0445 345.8687 L254.1334 348.2502 L254.0028 349.7651 L253.7491 351.0532 L253.1969 351.547 L252.4262 352.3162 L249.8607 352.5681 L248.5678 353.0938 L247.3755 353.7874 L246.4871 354.4356 L245.0208 356.493 L243.8916 357.3478 L243.2109 357.5477 L242.3429 357.8718 L241.1902 358.0397 L237.6196 357.9608 L232.5603 358.9735 L232.0487 359.0491 L231.4611 358.6074 L231.43 357.4939 L231.2684 356.4627 L230.425 355.4735 L229.725 354.4306 L229.4639 353.2634 M229.634 144.555 L240.5244 142.8263 L245.7133 168.6931 L242.0047 170.556 L240.7567 169.4087 L240.0877 164.8176 L238.2939 161.1236 L234.0202 161.8796 L232.1354 158.0545 L229.634 144.555 M231.8806 282.5819 L241.6739 279.557 L244.1324 278.9842 L252.8362 276.1541 L253.8262 275.8971 L254.5679 275.9172 L255.4841 276.0415 L256.6582 276.3959 L257.0328 276.7722 L257.1987 277.5767 L257.2844 278.4803 L257.2116 279.3453 L256.8081 281.7992 L256.9932 284.7486 L257.386 286.5072 L257.9041 288.1364 L259.7878 291.818 L260.5028 293.3918 L260.674 294.1443 L260.1977 295.0042 L259.9237 295.7332 L260.0329 296.4839 L260.8431 297.2935 L264.6406 300.4074 L266.2118 301.7863 L266.7363 301.8182 L267.7477 301.2438 L268.9357 300.4141 L269.4955 300.179 L270.0146 300.0883 L270.492 300.1252 L270.9629 300.7517 L271.2583 301.4168 L272.9933 306.2288 L273.8142 308.8405 L273.9116 309.4065 L273.6376 309.8936 L273.0372 310.4041 L272.0653 311.4623 L270.6183 312.8177 L269.1819 314.0202 L267.1023 315.127 L266.4986 315.3756 L265.5771 315.3 L263.5307 313.3316 L260.9127 310.9366 L258.664 308.5482 L256.4549 305.6006 L255.2786 303.9227 L254.7049 303.2274 L254.2158 302.3792 L254.3689 301.573 L255.0057 299.8968 L254.8644 299.6163 L253.7759 299.4568 L251.2757 298.4793 L250.1358 297.0281 L248.2638 294.2047 L246.7451 291.1916 L246.6027 290.4189 L246.5877 289.7958 L246.8275 289.349 L247.1796 288.9459 L247.6762 288.4925 L250.2385 287.6896 L251.6 287.3235 L251.8932 287.0362 L251.9617 286.4618 L251.7584 286.1091 L251.3666 286.0302 L250.3102 286.0923 L243.9227 287.4847 L243.212 287.4058 L243.0182 286.9153 L242.9422 286.4988 L243.151 286.2552 L244.4803 285.8773 L246.6188 285.0913 L247.7629 284.5874 L248.7722 283.7845 L248.7722 283.158 L248.5121 282.8305 L248.2189 282.5987 L247.6163 282.6407 L246.8253 282.9548 L245.968 283.4469 L239.666 285.4356 L238.3795 285.7211 L236.9913 285.1719 L235.9285 284.4782 L236.103 284.2212 L239.665 283.5292 L241.9715 282.7499 L243.2088 282.157 L243.4699 281.858 L243.4153 281.4852 L243.0107 281.3155 L241.9972 281.4633 L238.5454 282.5332 L236.9282 282.8154 L232.7112 283.0002 L231.8806 282.5819 M232.5678 89.7649 L233.2196 86.9693 L234.0844 82.3224 L237.8818 84.0881 L245.7754 94.0086 L246.8061 96.6143 L247.6516 101.671 L246.5406 101.9869 L245.5859 100.448 L239.5173 97.0309 L238.4031 96.2783 L236.7891 95.2316 L234.291 93.3382 L232.9499 92.0698 L232.5678 89.7649 M236.9635 287.5569 L237.1016 287.3537 L237.4184 287.3369 L237.8797 287.7887 L238.9543 289.0047 L241.0168 290.5197 L242.4638 291.7878 L244.0607 293.7664 L244.6729 294.6229 L250.5971 303.8589 L252.3899 305.9315 L253.6935 306.8401 L255.695 308.1485 L255.6982 308.5919 L255.2765 308.8153 L254.3057 308.4206 L253.6121 308.3685 L253.0909 308.4441 L251.9842 309.2201 L251.5497 309.8952 L251.1494 311.3329 L250.6399 312.0215 L250.1925 312.087 L249.8286 311.6806 L247.5071 307.7286 L245.2274 303.5616 L244.5188 302.4598 L244.3219 301.526 L244.2384 300.3184 L244.2181 299.2367 L243.9558 298.4826 L243.4378 297.6428 L242.8331 297.0449 L242.192 296.1917 L241.8013 295.1806 L239.909 291.1412 L236.9635 287.5569 M244.8592 359.7158 L245.0657 359.1415 L245.9327 358.7283 L247.4964 358.9114 L249.3909 359.5143 L250.0619 359.4152 L250.1679 359.0944 L249.5493 355.8901 L249.7815 355.3963 L250.4622 354.837 L251.2425 354.5331 L252.179 354.2744 L253.0213 354.2123 L254.2982 355.9757 L254.6525 359.7713 L255.2444 365.2798 L255.8373 368.2239 L256.2537 371.6113 L256.3297 375.2774 L256.3029 376.453 L256.3853 377.8587 L256.4024 379.3365 L256.2847 380.7221 L256.2697 381.1469 L256.38 384.9054 L256.5748 387.2364 L256.9012 389.5237 L256.7182 392.7448 L256.3297 393.0555 L255.8437 392.8439 L255.3107 392.8455 L252.2389 392.031 L250.8465 391.5625 L249.2196 392.0915 L247.3284 392.9396 L246.5278 393.3544 L246.4004 392.0613 L246.4593 389.1828 L247.0479 388.9208 L252.0752 387.8796 L252.4048 387.5253 L252.4209 386.0676 L251.9286 385.2967 L251.2243 385.1691 L248.2938 385.4445 L247.4547 385.1926 L247.2181 383.5653 L247.3658 382.2772 L247.5317 380.2417 L247.1346 378.9083 L247.2588 375.2254 L245.2049 360.5858 L244.8592 359.7158 M244.9159 402.1509 L244.9234 399.7998 L246.349 398.5084 L248.8161 397.5814 L252.1811 396.342 L255.011 396.127 L255.8512 396.0498 L256.3425 396.604 L256.8284 399.3094 L257.6119 401.4523 L259.4988 404.7018 L259.6744 405.5919 L258.4778 405.7111 L253.2397 404.2568 L251.524 404.507 L246.4892 406.5458 L245.3761 405.7296 L244.9159 402.1509 M245.5955 322.7454 L246.3426 320.478 L253.9343 329.2988 L265.0976 339.6832 L271.7164 346.208 L264.9082 349.0966 L257.1591 351.3035 L256.3789 351.374 L255.3075 351.725 L256.0492 344.8425 L246.637 327.1407 L246.1264 325.2966 L245.5955 322.7454 M247.7511 318.3803 L248.1975 317.7001 L250.6238 315.122 L251.2457 314.6517 L251.5689 314.5543 L251.966 314.8516 L264.0787 326.9475 L266.2707 328.926 L272.0279 332.374 L274.1674 334.512 L275.7964 337.3386 L278.0687 340.9142 L282.0566 346.9755 L286.4749 351.6914 L287.4895 352.4371 L287.8513 352.3061 L288.106 351.9635 L288.0514 351.5873 L287.8374 351.159 L281.1051 341.7674 L276.3861 333.8453 L272.0996 329.9287 L266.702 327.1776 L264.0102 325.4259 L260.4696 322.0366 L257.2598 318.2913 L253.5683 314.388 L253.0213 313.2426 L252.9122 312.4918 L253.2921 311.4404 L254.249 310.688 L254.995 310.5788 L255.5612 310.8022 L269.3649 323.4928 L278.1329 331.4049 L283.7274 337.4058 L287.2251 341.3559 L289.4728 343.0287 L290.5923 343.5174 L290.3173 344.7922 L290.0818 349.8356 L290.8963 354.3903 L292.0929 358.4277 L295.1262 363.5769 L296.4009 366.9425 L296.6267 369.1207 L295.9867 371.2267 L292.3102 375.5142 L289.7746 379.0259 L285.4913 384.6653 L282.6539 388.2138 L281.59 388.5615 L278.0173 388.1685 L272.4228 385.0935 L277.0112 375.1128 L282.899 364.9288 L282.975 364.0488 L278.743 360.7252 L276.963 359.0961 L275.3768 356.2125 L275.1146 355.22 L275.2548 354.0511 L275.7536 352.3397 L275.4989 349.3973 L274.7357 344.9551 L274.2819 344.1943 L272.9911 343.1261 L272.9772 343.1194 L272.9505 343.0203 L271.0079 342.2309 L269.1723 340.5061 L259.8991 332.1322 L256.1349 329.4114 L252.7741 325.5586 L247.9459 319.1949 L247.7511 318.3803 M249.7194 139.2179 L251.3795 138.7459 L254.8623 137.113 L257.4813 135.5423 L259.7653 133.822 L261.2135 132.6847 L264.1472 132.2547 L266.839 131.7473 L268.681 131.0317 L268.483 132.4949 L268.8308 133.528 L269.6882 134.2874 L271.0164 134.0018 L272.7278 133.0039 L274.7315 131.8095 L276.262 131.5558 L277.45 131.4584 L279.4836 131.3139 L280.9788 131.5272 L281.4219 133.4407 L282.503 134.3831 L283.7156 135.2869 L284.6842 135.6061 L287.1406 135.1844 L287.4842 136.2949 L287.2251 137.1264 L286.0746 137.1718 L284.9775 137.79 L283.9361 138.5846 L282.9086 138.5359 L281.955 139.8193 L279.6709 141.5395 L277.9798 142.5962 L276.1592 142.7457 L272.6636 144.0661 L267.1901 146.8312 L265.6756 147.5149 L261.6437 147.5267 L258.0785 146.7775 L257.7863 146.3575 L260.0907 145.5579 L263.764 144.6742 L266.5029 143.6965 L266.9182 142.5962 L264.0519 143.4765 L261.4896 144.0829 L258.3964 144.9968 L256.2686 145.4252 L254.5262 145.3328 L255.5066 144.1484 L257.0039 143.3522 L262.0151 142.1577 L263.1582 141.296 L259.7397 141.5664 L256.4709 142.8515 L254.2308 143.295 L252.7784 142.8146 L250.9193 141.1229 L250.3691 140.5114 L249.7194 139.2179 M256.8884 352.9947 L257.0254 352.3632 L257.6526 351.9652 L260.6933 350.9844 L264.8868 349.6845 L270.2255 347.2912 L271.1534 347.3853 L271.7517 347.8337 L272.0953 348.6264 L272.1402 349.4628 L271.8876 350.3428 L270.9201 354.1266 L270.4641 356.0093 L270.2073 359.1599 L268.7142 363.5651 L266.4986 369.2399 L265.5793 372.9598 L265.3909 376.846 L266.7363 381.1217 L266.9471 383.3587 L265.4251 383.8894 L264.5186 383.9448 L262.9442 384.635 L260.0029 384.8349 L259.3404 384.4721 L259.5802 380.8866 L259.5609 377.9292 L259.273 372.8137 L258.7732 362.0536 L257.7136 355.0822 L256.8884 352.9947 M258.8524 198.4493 L259.1617 197.8547 L260.6291 196.9526 L261.0433 196.4504 L263.7212 195.4022 L267.5401 193.9273 L272.0974 191.9788 L273.8206 191.3757 L274.7068 190.7727 L275.0215 190.4216 L276.3936 189.8085 L277.3227 189.3986 L278.0216 189.4204 L279.0405 189.7581 L279.6046 190.6013 L280.9424 192.8371 L282.2461 196.0472 L281.8351 196.5495 L279.7833 197.292 L270.3988 201.226 L262.9677 204.6544 L260.5509 204.5805 L259.7921 202.5127 L259.0183 199.5849 L258.8823 198.9633 L258.8524 198.4493 M259.6679 387.663 L259.6851 386.9442 L261.4693 387.0366 L265.9046 387.1541 L269.4002 387.1021 L271.0539 387.4732 L273.7125 388.9998 L275.9002 389.905 L279.5671 389.9822 L281.636 390.3433 L281.1683 390.5146 L280.2061 391.6028 L276.5189 392.9346 L274.5474 393.168 L270.979 393.7658 L266.0727 394.3402 L264.7123 394.7231 L263.5788 395.0875 L263.5114 395.5695 L264.0487 396.5435 L265.591 396.5788 L269.2226 396.1237 L276.1314 395.7072 L279.4215 394.2176 L284.3075 392.2007 L286.1613 391.853 L291.0793 393.2016 L292.1903 393.969 L292.4525 395.3512 L289.3636 397.8618 L286.5337 401.2205 L284.5686 403.9193 L284.1362 403.8756 L282.5929 400.2717 L281.6788 399.6419 L280.4319 399.2288 L278.15 399.6117 L273.6033 400.8141 L272.8895 401.1483 L272.4228 401.5984 L272.2858 402.2315 L271.9454 402.512 L271.3493 402.5993 L270.3785 402.2046 L268.8009 402.3575 L268.1844 402.831 L267.5882 402.9184 L266.6389 402.6749 L264.6781 402.8075 L264.0498 403.2055 L263.3905 403.3802 L262.5695 403.4994 L260.9074 399.8418 L259.943 395.7257 L259.8938 391.8262 L259.6679 387.663 M263.3081 404.9689 L264.0765 404.9537 L265.6478 405.1385 L270.6996 404.7455 L278.2603 404.4751 L279.7854 404.628 L280.7359 404.8765 L281.6884 407.8641 L282.6742 410.6652 L281.9742 411.2849 L281.6414 411.3588 L273.4396 412.321 L268.6104 413.201 L267.9735 413.2732 L265.6306 408.2285 L264.2992 406.4249 L263.3081 404.9689 M264.3099 259.0268 L265.1565 256.6232 L266.7138 256.6366 L269.2333 259.1477 L271.0935 259.5962 L271.4745 258.0996 L270.5294 255.7162 L268.879 252.5987 L269.7138 251.7572 L271.5109 253.4133 L273.0768 255.9446 L274.4992 255.8573 L280.434 252.2292 L280.22 242.178 L283.4748 235.78 L292.6334 231.3573 L303.5645 218.8165 L309.6031 216.8041 L316.2176 220.9497 L311.8861 224.7577 L307.4604 229.4945 L304.6337 233.1899 L301.7214 235.6607 L299.2404 238.1752 L286.6515 248.5154 L281.2721 262.7019 L288.1531 258.1097 L300.6168 259.5676 L302.4963 258.4691 L303.5163 259.534 L305.4225 258.6556 L310.0206 255.7027 L315.1816 250.8686 L318.1421 249.8356 L319.7914 252.115 L315.8965 257.5789 L310.0548 264.2925 L310.5825 264.9929 L312.9468 262.7254 L315.5722 259.015 L316.9979 259.9204 L316.6019 261.4606 L312.8644 266.2073 L312.7563 269.5834 L314.2654 270.0822 L318.8281 266.8959 L322.5688 262.9891 L324.9267 261.9242 L327.8219 261.2607 L328.8548 259.309 L330.4848 259.6264 L333.9195 259.9036 L336.1564 261.0575 L337.0084 262.6263 L331.3507 266.0024 L337.5093 269.4204 L330.9312 273.9991 L329.7035 274.4526 L326.1415 276.8662 L321.2716 277.9378 L318.095 279.9617 L315.0799 279.8022 L312.0702 281.3239 L311.6431 284.1456 L310.1115 287.609 L309.9317 288.8368 L308.8796 289.8294 L305.278 289.7555 L303.4424 291.944 L301.5897 294.0149 L300.4499 293.5816 L297.681 291.8264 L294.3181 286.7977 L293.0594 286.3829 L289.4642 287.9886 L284.7774 288.6738 L282.1936 287.3722 L282.1016 284.2649 L282.9482 281.8614 L281.9485 277.4474 L280.4565 277.0661 L280.7006 274.629 L279.414 275.6586 L277.7925 276.8545 L275.8146 276.4245 L274.4478 278.5442 L272.0214 279.1387 L269.7727 277.6674 L267.3239 276.4665 L265.0494 271.52 L266.8015 269.5817 L270.4684 263.5266 L269.0749 262.1694 L267.92 262.4583 L266.6678 263.7231 L265.6445 263.2713 L264.7027 261.7293 L264.3099 259.0268 M265.3609 174.6498 L265.8672 173.9493 L266.732 173.8233 L267.5454 173.872 L270.0446 178.2665 L270.9886 179.3684 L275.2356 184.255 L276.8485 186.3968 L277.7123 187.3879 L277.4147 187.828 L276.8763 188.2127 L276.0436 189.0828 L274.8267 189.5044 L273.5734 189.6724 L271.6843 190.2402 L269.4955 191.5655 L268.4744 192.0812 L267.631 192.1434 L266.6506 191.9972 L266.4612 189.7514 L266.6089 187.7305 L266.2204 184.5355 L266.5436 182.3669 L266.9899 180.6232 L267.1398 179.1366 L266.732 177.5928 L266.1925 176.6034 L265.6103 175.5283 L265.3609 174.6498 M267.9446 437.4451 L268.1769 434.0244 L268.8801 430.382 L269.2836 427.9269 L269.3178 425.8916 L270.5069 424.6439 L272.1873 423.6329 L274.8288 422.9394 L283.402 421.1492 L290.2605 419.1995 L299.3346 415.8879 L304.7429 412.3613 L309.8707 409.3889 L310.59 409.0547 L312.4694 410.3679 L318.0671 416.0055 L319.6426 418.4556 L320.0547 420.7697 L319.1192 426.3769 L316.3653 436.2478 L312.3431 444.7248 L309.1493 449.4452 L307.9088 451.3881 L307.8799 452.2361 L308.3562 454.4644 L308.277 456.5434 L307.728 458.0026 L306.5185 459.6348 L304.2848 461.0336 L297.8394 463.0537 L294.2046 464.3182 L291.6862 463.9488 L284.5826 462.2292 L279.0437 461.3476 L274.0432 460.859 L272.4431 460.4207 L272.0182 459.3846 L272.5159 458.3267 L272.8573 455.4418 L272.3115 451.8818 L270.9394 449.5644 L270.6943 448.9397 L271.4606 448.4813 L282.9375 444.6593 L287.8213 442.1068 L294.7954 439.8196 L299.8398 437.8213 L303.8085 435.7843 L306.0005 434.6273 L306.5335 433.6936 L305.9994 433.0555 L304.8017 433.1881 L302.0243 434.5131 L297.7152 436.8288 L290.6234 438.8624 L279.8058 443.781 L270.2565 446.8574 L269.0128 446.3117 L268.6617 443.734 L267.996 439.7877 L267.9446 437.4451 M269.0513 478.4017 L270.0242 469.91 L270.3828 462.4274 L270.9779 461.8044 L271.9251 461.5122 L273.3004 461.5424 L283.5583 462.953 L292.0801 465.0 L292.9663 465.3308 L293.3409 465.811 L291.683 473.7906 L289.8132 478.7359 L289.2213 479.6477 L288.4699 480.4436 L287.3322 480.7778 L285.6796 480.714 L283.0199 480.4167 L280.1633 480.133 L270.9832 479.8878 L269.5983 479.5486 L269.1498 479.0768 L269.0513 478.4017 M270.0478 415.5185 L276.1732 414.9139 L280.2885 414.8098 L284.8394 414.1313 L285.1595 413.9399 L285.625 413.8862 L288.3372 412.1111 L292.0255 409.1958 L294.2175 407.3199 L294.7569 406.2217 L294.5867 405.1385 L292.3476 402.0636 L292.2898 401.4859 L292.825 400.5152 L294.8629 398.8123 L296.7038 397.5024 L297.7548 397.3866 L298.6742 397.6855 L300.7474 399.2674 L303.2348 401.5178 L306.2477 404.3777 L308.688 406.9908 L308.7758 407.5903 L308.1058 408.2234 L301.9151 411.7332 L297.2422 413.6426 L289.2812 417.0282 L281.7848 419.4262 L272.6101 421.5052 L270.8313 421.8042 L270.964 419.1827 L270.6975 417.626 L270.0478 415.5185 M280.845 189.6472 L304.6283 179.9732 L305.3562 179.958 L305.8924 180.6115 L306.3676 181.9923 L306.8139 184.7506 L296.9724 188.7687 L284.1362 194.4917 L280.845 189.6472 M287.2819 199.8923 L300.1844 194.69 L309.3324 190.603 L316.5944 199.2539 L312.6642 202.8789 L295.2685 214.5213 L288.1124 203.0973 L287.2819 199.8923 M291.5717 341.9102 L291.8467 341.1796 L294.5996 337.5536 L295.4205 336.8969 L304.6176 338.2371 L305.0351 338.484 L305.1004 338.9341 L302.3218 347.6288 L302.1303 347.8874 L301.5437 348.0503 L296.0113 344.6376 L291.5717 341.9102 M292.2481 379.2895 L297.5975 372.4963 L298.9504 369.8814 L301.1584 373.3142 L299.9565 375.8064 L295.4109 380.4853 L292.2481 379.2895 M315.097 116.307 L315.1623 115.2906 L317.2141 101.2947 L317.7963 94.8167 L318.3722 91.4365 L319.6662 87.0046 L324.0277 74.5976 L325.3142 70.0446 L328.2094 72.4757 L335.5763 78.5423 L344.554 86.4804 L344.4224 91.124 L344.3742 92.2664 L344.2886 97.9515 L343.1294 106.9428 L343.0652 107.2452 L342.27 110.9764 L341.738 112.8714 L341.1537 113.8727 L340.4077 114.7144 L338.2114 115.9357 L334.7982 118.2204 L332.1845 118.8773 L329.9144 119.0705 L326.6018 118.8991 L316.2176 117.7299 L315.3924 117.2864 L315.097 116.307 M346.0985 86.3158 L346.2547 85.0877 L346.9076 83.9234 L347.9672 83.4631 L350.3369 85.2087 L352.455 86.1646 L356.3456 88.4326 L359.9975 90.7258 L362.5277 91.7238 L362.8231 91.8397 L363.095 91.9707 L364.6073 92.6931 L365.4678 92.9972 L365.7472 93.8758 L365.8242 94.4 L366.368 94.4739 L366.9909 95.0619 L367.5539 95.2686 L368.1993 95.4198 L368.9624 95.5508 L369.7459 96.7352 L372.077 97.6911 L374.9037 99.2014 L378.9302 101.2174 L380.9488 101.9953 L383.5635 102.6858 L384.7805 103.1965 L387.0024 104.3271 L389.2886 105.372 L392.6119 107.7979 L396.2349 110.3717 L400.4701 113.6459 L401.5629 114.4624 L403.1662 115.2352 L404.6571 116.4834 L407.8584 118.3767 L408.8699 119.1797 L409.9573 119.7542 L410.8403 120.1742 L411.7886 120.2549 L414.9813 121.7819 L416.6489 123.3006 L418.2864 125.1301 L419.7089 126.5328 L422.8823 128.4446 L428.2125 131.5743 L429.8244 132.1824 L430.8155 132.1908 L431.722 132.1354 L433.5704 133.3214 L436.5609 135.0299 L437.0982 137.7127 L436.0493 139.9352 L435.7977 139.7387 L433.5651 138.5325 L431.4919 136.8425 L429.3556 135.7758 L426.1297 134.0236 L422.71 131.4584 L418.8494 128.4681 L414.9642 126.3816 L413.7537 124.873 L412.5881 123.6635 L411.2203 122.637 L405.1195 119.8198 L403.2604 118.5581 L401.5169 117.0495 L400.5118 115.8937 L399.707 114.5548 L397.8789 112.9823 L394.2677 110.6757 L391.593 108.9437 L389.1784 107.5325 L386.7423 105.9735 L385.291 105.4191 L382.0908 104.8899 L378.4517 103.9659 L375.5148 102.632 L370.4929 99.5341 L367.6074 97.503 L366.7254 96.4127 L365.7739 95.6331 L364.1621 95.0267 L362.4849 93.9699 L359.9643 92.883 L357.9564 92.179 L356.0566 91.6918 L354.0166 90.7645 L350.1817 88.4897 L348.3975 87.7556 L346.5373 87.0298 L346.0985 86.3158 M354.1322 67.5413 L354.3409 66.5434 L356.2825 62.1853 L358.8169 56.1958 L359.7813 54.0654 L360.1142 52.5786 L361.5826 48.2893 L362.0461 47.3215 L362.3361 46.5537 L362.6283 46.3488 L362.9644 46.542 L366.3744 50.171 L369.7566 53.5513 L374.2583 58.2354 L376.0639 59.4115 L383.7701 61.8862 L393.984 64.9591 L402.8515 66.8391 L413.6638 68.8921 L429.165 72.6185 L429.8939 73.0233 L430.2728 73.7878 L431.2414 77.9257 L431.3752 78.7893 L431.9307 80.2139 L432.2828 89.0089 L432.4691 91.9522 L432.2989 92.1656 L431.9928 92.2462 L431.1858 92.0715 L429.6531 91.3004 L410.1414 85.2927 L409.3804 85.0138 L409.4286 84.2393 L409.3258 83.905 L408.9716 83.6311 L401.9268 81.2354 L397.8543 79.599 L388.838 74.8563 L386.7541 73.6282 L385.0791 73.1057 L380.3226 72.8822 L375.9568 71.6793 L369.5061 71.8557 L367.6181 71.4424 L360.8912 68.6703 L356.1112 67.7597 L354.1322 67.5413 M394.2505 117.8223 L394.2976 117.2662 L394.5609 116.8563 L394.9858 116.6816 L395.4825 116.6581 L396.0369 116.7656 L401.0823 119.645 L403.8512 121.5148 L404.9065 121.8659 L408.4129 123.6887 L410.4636 125.0225 L411.2395 125.7483 L411.7597 125.9767 L412.7818 126.5143 L414.7833 128.038 L417.0695 129.5214 L418.0949 129.8742 L419.543 130.731 L423.8456 133.6288 L429.1897 136.6107 L431.3067 138.1562 L433.9226 140.4459 L435.01 141.4303 L436.259 142.8045 L436.4463 143.2514 L436.4196 143.5907 L435.8673 144.4038 L434.7435 145.3613 L433.6464 146.087 L432.9818 146.1223 L432.4819 145.5091 L431.9125 144.523 L429.1543 141.474 L426.0237 138.7912 L424.2973 137.4725 L423.0183 136.4209 L418.4181 133.0476 L416.6478 131.8565 L415.6289 131.6549 L413.7911 130.5344 L412.0316 129.7381 L407.4656 126.9091 L404.8102 125.4056 L401.0898 123.1544 L395.6377 119.5711 L395.0565 118.9227 L394.5716 118.4876 L394.2505 117.8223 M406.39 167.9103 L408.4792 163.0303 L409.1792 161.337 L409.694 160.3761 L409.7475 160.3879 L413.5514 154.7603 L415.4255 153.3122 L416.2025 153.9455 L419.2401 159.1347 L420.9301 161.1304 L423.1381 164.8076 L424.4792 166.9158 L426.0098 168.646 L430.5736 173.0304 L432.3845 175.3385 L431.4641 175.7098 L430.3499 175.5821 L429.4808 175.572 L428.5903 176.2507 L427.7972 176.5497 L427.2449 176.6773 L420.244 167.5373 L417.4548 163.5292 L413.7505 159.9057 L412.5432 160.9204 L420.7 170.5946 L424.8164 176.1465 L426.1725 177.7339 L425.3697 178.384 L424.4803 178.8662 L422.6437 176.3867 L420.7 174.3205 L416.8437 168.7334 L413.0184 163.9811 L411.9877 162.4373 L411.3327 161.6948 L410.5032 160.9439 L410.4079 161.0951 L409.9787 161.7082 L410.2474 162.6187 L414.8079 168.3134 L417.7813 172.6709 L419.6061 174.8614 L420.6475 176.3733 L421.385 177.7759 L421.9961 178.7402 L422.5634 179.8169 L420.8862 180.2151 L418.7071 180.8231 L416.3406 183.0758 L414.6902 182.1468 L411.2502 177.0587 L406.9572 169.7194 L406.4638 168.6309 L406.39 167.9103 M417.9215 119.3309 L419.4392 116.1659 L419.802 115.4082 L420.0 115.0453 L420.1316 114.5497 L419.6372 113.6593 L419.4723 112.8345 L419.4723 112.4061 L419.5044 111.8786 L420.4281 111.6148 L422.6704 113.4947 L426.6937 115.5392 L427.6827 116.1003 L428.6727 116.727 L430.123 117.6173 L431.1783 118.1768 L432.2004 118.8034 L433.2236 119.4972 L433.5201 119.8265 L433.8166 120.6832 L434.081 121.6072 L434.4106 122.3649 L434.6407 122.8924 L434.9383 123.8819 L435.0699 125.1687 L435.2679 125.9264 L435.4328 126.6857 L435.7956 127.7743 L435.9604 128.7957 L436.0589 129.8507 L436.1905 130.9074 L436.4217 131.5004 L436.5866 132.0615 L436.6197 132.589 L436.6197 133.0173 L436.5866 133.5112 L435.9936 133.7095 L435.1363 133.5448 L434.7403 133.2475 L434.081 132.9837 L433.0909 132.4562 L431.4427 131.4012 L430.7833 129.7196 L428.0123 126.1246 L427.2545 125.6626 L426.4957 125.5971 L425.5399 125.6626 L424.8795 125.6962 L424.187 125.5316 L423.4946 125.1032 L422.6372 124.4766 L421.6483 123.7172 L420.3618 122.7277 L419.5044 122.1347 L418.9115 121.3435 L418.1526 120.1557 L417.9215 119.3309 M418.5604 152.8839 L418.6343 152.0338 L419.3225 151.2157 L420.2408 150.6244 L421.0264 150.4783 L421.7607 150.8142 L423.1221 152.432 L424.9223 155.8169 L425.8835 157.401 L426.7579 158.708 L429.2689 161.7435 L432.0377 164.774 L436.152 168.3705 L437.3454 169.2491 L437.6718 169.7194 L437.4888 170.2352 L436.8434 171.3523 L435.6147 173.0573 L435.1652 173.5209 L434.8141 173.7242 L434.2768 173.6956 L433.3532 173.2941 L429.6552 169.9597 L427.7084 167.959 L426.3373 166.0792 L425.1664 164.1743 L424.0211 161.977 L423.0536 160.455 L422.649 159.5513 L421.8035 158.0276 L418.812 153.6717 L418.5604 152.8839 M418.5818 134.5998 L419.1416 134.2706 L423.5277 137.501 L429.4637 143.4042 L431.8376 146.6364 L431.7723 147.4931 L430.915 148.879 L430.4526 149.2419 L429.728 149.8029 L428.3099 150.7588 L427.947 150.957 L427.551 150.9889 L427.155 150.9234 L426.5289 150.7588 L426.2324 150.1977 L426.0344 149.8029 L425.7047 149.1092 L425.2424 148.1533 L424.6162 146.801 L423.7589 145.0203 L423.1328 143.8007 L422.4392 142.5139 L422.0443 141.2943 L421.3518 139.8428 L420.989 138.8534 L420.3949 137.9966 L420.0 137.4355 L419.6372 136.8761 L419.1095 136.0513 L418.7467 135.5893 L418.6803 135.0282 L418.5818 134.5998 M430.8197 159.7965 L432.0699 157.1474 L433.9183 153.4987 L434.3186 152.6487 L434.7681 151.8491 L435.1684 151.2493 L435.6179 151.6995 L435.5184 152.3984 L435.3182 153.8481 L435.8684 154.898 L436.7674 154.6477 L437.1677 153.6482 L437.5177 152.8486 L437.9169 152.348 L438.5174 152.2489 L438.4168 153.0485 L438.3675 154.0984 L438.7668 155.6473 L438.9669 156.8971 L438.7175 158.246 L438.6169 159.1464 L438.5677 160.1963 L438.5174 161.0951 L438.5677 161.9955 L438.6672 162.8959 L438.7668 163.5443 L438.7668 164.5942 L438.7668 165.8944 L438.7668 166.6436 L438.3675 167.0938 L437.7179 167.0938 L437.0682 166.6436 L436.3179 165.844 L435.6682 165.0444 L434.9179 164.1944 L433.6689 162.696 L432.4691 161.6965 L431.5197 161.1959 L431.1194 160.7457 L430.8197 159.7965 M438.1064 88.1386 L438.3857 87.9605 L438.8074 88.142 L439.973 89.0408 L440.8614 89.8119 L442.2635 90.7662 L442.896 91.4533 L443.0362 91.8901 L443.0587 99.3812 L442.6445 100.0986 L442.4133 101.1234 L442.4208 103.2754 L443.1347 109.5787 L444.1076 120.4716 L446.2161 131.9187 L446.0813 133.5112 L445.5365 134.2622 L445.2164 134.9946 L445.469 135.4767 L446.1369 135.8833 L446.5051 136.3184 L446.4366 137.9462 L446.2557 138.9038 L446.3082 139.8882 L446.884 140.918 L447.371 141.5496 L447.9468 141.9528 L448.1448 141.6353 L448.3739 140.7013 L448.4584 139.4985 L448.7056 137.9513 L448.5612 136.8576 L448.1576 136.1689 L447.9382 135.3911 L448.0388 135.0416 L448.4391 134.8602 L449.0353 134.7729 L449.5929 134.7376 L450.2565 135.008 L450.6793 135.5103 L450.8034 136.3621 L451.2476 139.9453 L451.6982 142.0015 L452.0814 142.8599 L452.3104 144.7498 L453.1025 152.4034 L452.9944 153.3458 L453.2673 155.229 L453.385 161.473 L452.897 169.9781 L453.186 170.3947 L453.4525 170.7425 L453.6751 172.1754 L453.4257 173.4941 L453.2031 174.5792 L453.1249 175.9349 L453.0415 177.3509 L452.8113 177.9641 L452.6016 178.5134 L451.9744 178.9098 L451.4842 178.7838 L450.4353 177.6399 L448.4691 175.6812 L446.7042 174.0232 L444.2553 171.8528 L442.1436 170.8533 L441.6598 170.5577 L441.1354 169.6724 L440.5724 168.5184 L440.4043 167.0468 L440.2887 165.4157 L440.2834 162.4406 L440.4461 160.3106 L440.6131 158.4241 L440.8924 153.2249 L441.3558 152.6386 L441.9424 152.2774 L442.8457 152.0994 L443.3466 152.4085 L443.6078 152.8435 L443.8604 158.0411 L444.1151 161.5755 L444.2596 162.3634 L444.5389 162.2928 L444.3987 154.6209 L444.2714 152.0271 L443.7405 147.6812 L443.5799 144.056 L443.565 141.0204 L443.5992 139.5808 L444.2778 136.5972 L444.3591 136.1134 L444.3367 135.6431 L443.6281 132.9686 L443.3316 131.0283 L442.8072 129.303 L442.4069 127.8045 L441.4565 122.6807 L441.024 119.2301 L440.9416 114.7849 L441.1311 113.6745 L441.1054 112.9756 L440.978 112.4145 L440.7383 112.0231 L440.5702 111.3897 L440.4161 110.1163 L439.942 106.5363 L439.7836 102.4086 L439.3694 97.8743 L438.8406 94.8687 L438.7539 92.5923 L438.8214 91.5894 L438.6041 90.7208 L438.3119 89.9698 L438.1064 88.1386 M452.7996 142.8784 L453.0393 142.1107 L453.6708 141.2237 L454.3044 140.9785 L455.1168 141.1196 L455.7975 142.1342 L456.0993 142.8532 L456.125 143.4227 L457.3098 149.514 L457.5346 151.3753 L457.5742 152.6957 L457.7262 153.7423 L457.6331 159.4942 L457.5014 161.3151 L457.4929 162.9345 L457.7176 164.7941 L457.6095 168.0295 L457.5079 169.0055 L457.7337 169.8286 L457.7733 170.4166 L457.723 171.4329 L457.7208 172.3635 L457.6063 173.2505 L457.7808 176.338 L457.7604 178.295 L457.449 180.766 L457.4201 182.3434 L457.3848 182.9431 L457.3034 183.321 L457.0251 183.7124 L456.6645 183.5361 L456.11 183.1749 L454.9252 181.6227 L454.2252 180.7795 L453.9898 180.4166 L453.7618 179.9009 L453.7093 179.1148 L454.0283 172.6121 L454.2113 171.1507 L454.6651 170.1848 L454.9145 169.491 L455.0451 166.6184 L454.6373 160.665 L454.5388 156.0084 L454.4339 154.8644 L454.2498 153.9136 L453.8239 152.862 L453.6483 151.9717 L452.8756 145.0791 L452.7996 142.8784 M460.2853 155.8572 L460.6952 154.5873 L460.9532 152.1733 L460.676 150.2599 L460.8911 149.5409 L461.4626 150.8613 L462.1487 156.4234 L461.3417 163.6535 L461.9689 169.3314 L462.1466 172.8624 L462.1476 193.205 L460.7134 191.2934 L460.7937 170.5224 L460.3688 164.1239 L460.2853 155.8572 M470.648 145.1412 L470.7443 143.1875 L471.7012 142.3308 L471.7986 142.5189 L471.8757 142.8835 L472.3466 143.5638 L473.0466 144.2845 L473.693 144.639 L474.2753 144.6003 L474.6734 144.733 L474.5825 145.405 L474.576 146.9337 L475.6838 157.3943 L475.7416 159.049 L475.7941 160.3039 L475.0266 158.6341 L473.5764 155.3516 L472.6645 152.3245 L471.135 148.1835 L470.648 145.1412 M475.7052 146.1257 L477.8747 148.0542 L478.487 148.3918 L479.0745 156.6669 L480.2251 162.2559 L480.2241 164.0264 L478.0289 164.317 L477.483 162.5498 L476.9767 160.6382 L476.9767 157.2818 L475.7052 146.1257 M485.4461 151.7718 L486.7722 152.2035 L488.4151 152.6201 L489.5304 152.8536 L489.8226 159.5882 L489.7027 160.1241 L489.1536 160.1124 L487.6445 162.5162 L487.2089 161.9232 L487.0408 161.2916 L487.2228 160.6549 L486.7155 155.7984 L486.114 153.0166 L485.4461 151.7718" stroke-dasharray="" fill="none" fill-opacity="1.0" stroke="#ff0000" stroke-opacity="1.0" stroke-width="1.0px" stroke-linecap="butt" stroke-linejoin="miter" stroke-dashoffset="0.0px"/>
</g>
</svg>