<?xml version="1.0" standalone="no"?>
<!DOCTYPE svg PUBLIC "-//W3C//DTD SVG 1.1//EN" "http://www.w3.org/Graphics/SVG/1.1/DTD/svg11.dtd">
<svg width="512px" height="512px" version="1.1" xmlns="http://www.w3.org/2000/svg" xmlns:inkscape="http://www.inkscape.org/namespaces/inkscape">
<g id="layer" inkscape:groupmode="layer" inkscape:label="layer">
<path d="M0.0 213.9849 L6.085 237.1289 L6.533 237.0118 L11.0874 253.5725 L10.6394 253.6895 L11.1621 255.6792 L11.6287 255.5621 L14.5592 266.2709 L14.0926 266.4172 L14.6526 268.3483 L15.1005 268.2313 L18.0311 278.9108 L17.5831 279.0571 L18.1057 280.9882 L18.5537 280.8712 L21.5402 291.6678 L21.0736 291.7848 L21.5962 293.6867 L22.0442 293.5696 L28.6705 317.7083 L11.4794 322.536 L11.3487 322.0386 L8.2316 322.9164 L19.2443 359.4022 L23.8548 380.293 L34.7369 418.6513 L91.3686 403.2027 L96.5576 420.992 L96.259 421.109 L96.763 422.9816 L98.4802 422.5427 L98.3495 422.0746 L109.5676 419.0024 L109.6983 419.4705 L111.6582 418.9146 L111.5089 418.4465 L122.223 415.5206 L122.335 415.9887 L124.2389 415.4328 L124.1269 414.994 L135.345 411.8925 L135.4943 412.3607 L137.3982 411.834 L136.8755 409.9029 L136.4276 410.02 L132.0598 392.2891 L155.0186 385.5596 L155.1493 385.9985 L157.1278 385.4718 L157.0158 385.0037 L167.8793 382.0486 L167.9913 382.4874 L169.9138 381.9608 L169.7832 381.4926 L180.4973 378.6253 L180.6093 379.0349 L182.6065 378.5082 L182.4572 378.0694 L193.2833 375.1142 L193.3953 375.5824 L195.3365 375.0557 L195.2058 374.5876 L197.7817 373.9146 L206.1999 371.6032 L206.3306 372.042 L208.2158 371.5154 L208.0852 371.1058 L218.4633 368.2384 L218.5939 368.7065 L220.4978 368.1799 L220.3485 367.741 L231.1373 364.7858 L231.2866 365.254 L233.1532 364.7566 L233.0225 364.2884 L243.774 361.3626 L243.886 361.8307 L245.7712 361.304 L245.6592 360.8359 L256.448 357.91 L256.56 358.3782 L258.4452 357.8515 L258.3332 357.3834 L269.066 354.4575 L269.2153 354.9256 L271.1005 354.399 L270.9699 353.9601 L281.7027 351.0342 L281.8333 351.4731 L283.7746 350.9757 L283.6439 350.5075 L294.3953 347.5816 L294.5073 348.0498 L296.4112 347.5231 L296.2992 347.055 L307.088 344.1291 L307.2 344.568 L309.0479 344.0706 L308.9172 343.6024 L319.7247 340.6473 L319.8553 341.1154 L321.7592 340.5888 L321.6099 340.1499 L332.38 337.1947 L332.492 337.6629 L334.4146 337.1362 L334.3026 336.6973 L345.054 333.7714 L345.166 334.2103 L347.0699 333.7129 L346.9393 333.2448 L357.7094 330.3189 L357.8214 330.787 L359.7439 330.2604 L359.6133 329.7922 L370.3834 326.8663 L370.5327 327.3345 L372.3806 326.8078 L372.2686 326.3397 L383.0574 323.4138 L383.1694 323.8819 L385.0173 323.3845 L384.8866 322.9164 L395.6941 319.9612 L395.8247 320.4294 L408.3681 316.655 L408.4614 316.9768 L410.3653 316.4794 L410.2346 316.0113 L421.0794 313.0561 L421.1914 313.495 L423.0766 312.9976 L422.9273 312.5294 L433.6787 309.6035 L433.7907 310.0717 L435.732 309.545 L435.6013 309.0769 L446.3714 306.151 L446.4834 306.6191 L448.35 306.1217 L448.238 305.6536 L459.0268 302.7277 L459.1388 303.1666 L461.0053 302.6692 L460.856 302.201 L471.7008 299.2751 L471.8314 299.714 L473.698 299.2166 L473.586 298.7485 L484.3748 295.8226 L484.4868 296.2907 L486.428 295.7348 L486.316 295.2959 L497.1421 292.3407 L497.2728 292.7796 L499.1207 292.2822 L499.0087 291.8141 L509.9654 288.8297 L510.1148 289.2978 L512.0 288.7711 L511.4774 286.8108 L511.0107 286.9278 L510.0214 283.1827 L510.4507 283.0656 L509.9841 281.3393 L509.5361 281.4564 L508.5282 277.7112 L506.6429 270.6891 L507.0723 270.572 L506.5496 268.6117 L506.1016 268.7287 L504.6084 263.228 L503.2085 258.0199 L503.6751 257.9028 L503.1525 256.001 L502.7045 256.118 L501.1739 250.471 L499.774 245.3507 L500.2406 245.2337 L499.718 243.3026 L499.2513 243.4196 L497.8514 238.2115 L496.3395 232.5937 L496.7875 232.4474 L496.2835 230.6334 L495.8168 230.7504 L494.3423 225.2497 L492.905 219.9245 L493.353 219.8075 L492.849 217.8764 L492.3824 217.9934 L489.4518 207.1968 L489.9185 207.0797 L489.3958 205.1194 L488.9292 205.2364 L486.0734 194.6153 L486.5213 194.4983 L486.0174 192.6549 L485.588 192.772 L482.6202 181.9168 L483.0868 181.7998 L482.5642 179.8687 L482.1162 180.015 L480.4176 173.7535 L479.1857 169.2183 L479.6524 169.072 L479.1297 167.1994 L478.7004 167.3164 L475.7326 156.3442 L476.1805 156.2272 L475.6952 154.4716 L475.2286 154.5887 L474.202 150.7849 L472.2981 143.7042 L472.7647 143.5872 L472.2794 141.7438 L471.8128 141.8609 L468.8449 130.9471 L469.3116 130.8301 L468.8449 129.0453 L468.3783 129.1623 L467.1837 124.7441 L465.4478 118.3363 L465.9144 118.2193 L465.3918 116.2882 L464.9438 116.4345 L463.9172 112.6893 L464.3651 112.543 L457.6828 89.0184 L381.9934 109.4415 L381.9001 109.0026 L379.9962 109.5293 L380.1082 109.9682 L369.3568 112.8941 L369.2261 112.4552 L367.3035 112.9819 L367.4155 113.4208 L356.6454 116.3467 L356.5334 115.9078 L354.6295 116.4052 L354.7415 116.8734 L343.9714 119.77 L343.8594 119.3604 L341.9182 119.8578 L342.0302 120.2967 L331.2787 123.2226 L331.1481 122.7838 L329.2442 123.2812 L329.3562 123.7493 L318.6047 126.6753 L318.4741 126.2071 L316.5328 126.7338 L316.6822 127.2019 L305.9307 130.1279 L305.7814 129.6597 L303.8588 130.1864 L303.9895 130.6545 L293.2194 133.5805 L293.1074 133.1123 L291.1848 133.639 L291.3155 134.1071 L280.5454 137.0331 L280.4334 136.5649 L278.4922 137.0916 L278.6042 137.5597 L267.8527 140.4564 L267.7221 140.0175 L265.8182 140.5442 L265.9301 141.0123 L255.1787 143.909 L255.048 143.4409 L252.8642 144.0553 L252.9762 144.5234 L242.2434 147.4201 L242.0941 146.952 L240.1902 147.5079 L240.3022 147.9468 L229.532 150.8727 L229.4201 150.4046 L227.4788 150.9312 L227.6281 151.3994 L216.858 154.3253 L216.746 153.8572 L214.8048 154.3838 L214.9168 154.852 L204.1654 157.7779 L204.0347 157.3098 L202.1308 157.8364 L202.2428 158.3046 L191.4914 161.2305 L191.3607 160.7624 L189.4381 161.289 L189.5501 161.7572 L178.78 164.6831 L178.668 164.215 L176.7455 164.7416 L176.8761 165.1805 L166.106 168.1064 L165.994 167.6676 L164.0528 168.1942 L164.1648 168.6331 L153.432 171.5298 L153.2827 171.0909 L151.3788 171.6176 L151.4908 172.0564 L140.7393 174.9824 L140.6087 174.5435 L138.6674 175.0701 L138.8168 175.509 L128.0653 178.435 L127.9347 177.9961 L125.9934 178.4935 L126.1241 178.9616 L115.354 181.8875 L115.242 181.4487 L113.3194 181.9461 L113.4501 182.4142 L102.68 185.3401 L102.568 184.872 L100.6268 185.3987 L100.7388 185.8668 L89.9873 188.7635 L89.8567 188.3246 L87.9528 188.8512 L88.0647 189.3194 L77.2946 192.2161 L77.1826 191.7479 L75.2414 192.3038 L75.3721 192.7427 L64.6206 195.6686 L64.49 195.2005 L62.5674 195.7272 L62.6981 196.1953 L51.928 199.1212 L51.816 198.6531 L49.8747 199.1797 L50.0241 199.6479 L39.254 202.5738 L39.142 202.1057 L0.0 213.9849" stroke-dasharray="" fill="none" fill-opacity="1.0" stroke="#ff0000" stroke-opacity="1.0" stroke-width="1.0px" stroke-linecap="butt" stroke-linejoin="miter" stroke-dashoffset="0.0px"/>
</g>
</svg>