<?xml version="1.0" standalone="no"?>
<!DOCTYPE svg PUBLIC "-//W3C//DTD SVG 1.1//EN" "http://www.w3.org/Graphics/SVG/1.1/DTD/svg11.dtd">
<svg width="512px" height="512px" version="1.1" xmlns="http://www.w3.org/2000/svg" xmlns:inkscape="http://www.inkscape.org/namespaces/inkscape">
<g id="layer" inkscape:groupmode="layer" inkscape:label="layer">
<path d="M0.0 200.0673 L4.1921 201.8939 L11.5587 203.1537 L10.297 214.6174 L10.5412 222.9948 L11.6808 231.4351 L13.6343 239.7495 L16.4426 247.7489 L19.9428 255.2444 L24.1348 262.488 L29.1002 269.2906 L34.676 275.4004 L40.9437 281.1322 L47.9033 286.1712 L55.1479 290.3284 L63.0436 293.8557 L71.2242 296.5012 L79.7304 298.2018 L88.1959 298.9577 L96.4986 298.9577 L104.9641 298.0759 L113.1447 296.2492 L121.1625 293.7297 L129.0582 290.1394 L136.5062 285.9823 L143.2623 280.9433 L149.5707 275.2114 L154.9838 269.2276 L159.8677 262.6769 L166.0134 251.8431 L168.9844 252.6619 L169.5135 265.3224 L170.938 273.6997 L173.1358 281.6361 L175.9847 288.9427 L179.6884 296.2492 L183.9618 303.2408 L188.9679 309.4136 L195.0728 315.7123 L201.5033 321.1922 L208.3409 326.0423 L215.6261 329.8215 L223.1148 333.1598 L230.807 335.3644 L238.9469 337.0021 L246.6798 337.8209 L254.8604 337.6949 L262.9189 336.9391 L271.0181 335.3014 L278.9545 332.7819 L286.7688 329.4436 L293.932 325.4754 L300.5253 321.0033 L306.386 315.7753 L312.1653 309.8545 L317.4156 303.1149 L324.131 291.3992 L326.6137 292.0291 L326.8986 303.8077 L328.0789 311.4292 L330.1952 319.5546 L333.0035 327.554 L336.7479 335.1124 L341.3062 342.104 L346.3936 348.7807 L352.1323 354.7015 L358.4814 360.1184 L365.3189 364.9054 L372.4413 368.6847 L380.0114 371.96 L387.6223 374.3535 L395.8029 376.0542 L403.6172 376.873 L411.9199 376.81 L420.0598 376.0542 L428.2404 374.4795 L436.0954 372.149 L443.5434 369.1256 L451.1135 365.0314 L458.1545 360.2444 L464.3002 355.0164 L469.9981 349.0326 L475.3297 342.419 L482.2893 330.5773 L504.0229 335.9943 L512.0 304.4376 L490.3072 299.0207 L489.7781 290.0135 L488.8013 281.5102 L486.8884 273.1958 L484.1208 265.1964 L480.58 257.134 L476.2658 250.0164 L471.3819 243.3397 L465.6432 237.104 L459.3348 231.4351 L452.8636 226.711 L445.7412 222.5539 L438.0897 218.9006 L430.4789 216.4441 L422.0134 214.5544 L413.5479 213.5466 L405.3672 213.4836 L396.9017 214.2395 L388.6804 215.9402 L380.7033 218.3967 L372.9297 221.672 L365.5631 225.7662 L358.6035 230.5533 L352.2544 235.9702 L346.3529 242.08 L341.2655 248.8827 L334.5094 260.2834 L331.6197 259.4646 L331.4162 245.4813 L330.1952 237.8598 L327.9568 229.9864 L324.9043 221.987 L320.7529 214.4285 L316.1539 207.5628 L310.7816 201.0751 L305.0022 195.2172 L300.6067 191.564 L298.6124 189.9893 L291.6121 185.3282 L284.0827 181.5489 L276.1056 178.3366 L268.1692 176.069 L260.0293 174.7463 L252.2963 174.2424 L243.9936 174.4313 L235.7316 175.6281 L227.8766 177.5177 L219.9809 180.2262 L212.5736 183.6905 L205.5733 187.7847 L198.98 192.5718 L192.6308 198.3036 L187.055 204.4764 L182.2525 211.1531 L176.6766 221.1681 L173.6242 220.4753 L173.2579 208.6966 L171.9962 200.3822 L169.8798 192.3198 L166.7459 184.4464 L164.5075 179.4703 L163.2865 176.8878 L159.1758 170.2741 L154.1291 163.6604 L148.2684 157.4876 L142.0413 152.1337 L135.0003 147.1576 L127.7558 143.1264 L120.5113 140.04 L112.4528 137.4575 L104.3536 135.8828 L96.0916 135.127 L87.7889 135.19 L79.4048 136.0088 L71.387 137.7725 L63.3285 140.355 L55.5548 143.8193 L48.1475 147.9135 L41.4321 152.7636 L35.1237 158.3695 L29.2223 164.5423 L27.228 167.1877 L24.2162 171.2189 L20.0649 178.2106 L15.3437 189.0445 L3.5816 186.21 L0.0 200.0673" stroke-dasharray="" fill="none" fill-opacity="1.0" stroke="#ff0000" stroke-opacity="1.0" stroke-width="1.0px" stroke-linecap="butt" stroke-linejoin="miter" stroke-dashoffset="0.0px"/>
</g>
</svg>