<?xml version="1.0" standalone="no"?>
<!DOCTYPE svg PUBLIC "-//W3C//DTD SVG 1.1//EN" "http://www.w3.org/Graphics/SVG/1.1/DTD/svg11.dtd">
<svg width="512px" height="512px" version="1.1" xmlns="http://www.w3.org/2000/svg" xmlns:inkscape="http://www.inkscape.org/namespaces/inkscape">
<g id="layer" inkscape:groupmode="layer" inkscape:label="layer">
<path d="M0.4298 28.8994 L0.4876 28.982 L9.6493 42.0005 L14.0581 44.8958 L27.6548 34.0649 L28.117 33.7084 L32.8047 38.7863 L30.2086 43.4701 L25.3232 38.9282 L21.797 42.0718 L23.6262 44.0892 L31.4595 51.2241 L32.5286 50.2586 L35.1792 47.4722 L40.4124 52.6249 L37.6564 54.5258 L39.7849 56.977 L37.7138 58.928 L44.3003 64.3681 L44.8007 64.3806 L38.3413 70.5959 L44.9073 76.3922 L45.301 78.6682 L52.3551 83.2701 L48.8649 84.5832 L48.139 85.4272 L50.0584 84.3643 L53.4132 84.3581 L59.9911 83.7728 L60.7071 86.1494 L62.0995 87.1779 L59.0113 90.3792 L58.8473 92.1111 L63.2683 88.1721 L65.809 88.6104 L66.861 88.8098 L68.0339 87.2655 L71.5651 83.3389 L70.548 80.6941 L81.3677 81.2949 L83.6488 85.1459 L74.8296 88.6035 L79.546 96.3752 L80.3867 98.3447 L82.0559 97.6632 L83.6513 100.658 L81.9903 101.4082 L82.7326 102.7275 L85.1605 103.0151 L85.5784 103.8566 L86.3363 105.2677 L86.461 105.5403 L86.5262 105.666 L85.1933 106.7538 L85.5542 107.1227 L86.7477 109.5547 L92.272 113.2997 L91.6568 115.7754 L93.5475 116.2068 L97.1032 115.6567 L97.3698 115.7942 L96.5496 117.8136 L99.8633 119.0264 L102.2174 120.2393 L104.4731 116.5132 L114.9693 120.7238 L116.5388 121.3458 L116.6331 121.4021 L114.8409 127.1474 L121.9073 127.6351 L129.0269 127.8664 L128.5348 123.7528 L131.8034 123.1276 L132.435 123.4402 L132.7057 123.5277 L133.9053 124.8556 L134.2207 124.9894 L135.0774 123.7734 L135.9473 121.961 L136.4788 120.0892 L136.7323 117.526 L136.4148 115.6779 L138.2054 109.6423 L144.4597 110.2925 L145.1877 110.9639 L145.9977 112.7933 L146.058 116.892 L148.1008 119.8085 L148.3936 120.5475 L148.4584 122.5962 L143.8856 122.1523 L136.6962 126.6723 L130.5157 127.8726 L130.7781 128.9854 L131.0693 131.0235 L128.2518 135.1807 L117.2893 133.7491 L113.791 134.6556 L108.5743 140.1819 L107.549 141.5822 L105.8277 142.6468 L100.4949 145.9457 L108.5743 159.6669 L110.551 171.1561 L114.2745 171.5962 L114.8286 170.5623 L135.7447 178.6632 L140.9819 181.2822 L159.0887 189.7516 L163.5303 202.6335 L164.4531 206.171 L166.9343 207.3148 L168.7347 211.1836 L166.2904 222.3333 L167.7299 227.3644 L164.1578 230.4829 L163.6328 244.6254 L160.7415 248.2313 L158.5268 247.4751 L151.887 244.413 L145.0339 244.7129 L145.7176 250.181 L143.1629 252.9557 L142.5182 254.3298 L141.7185 254.1174 L141.406 254.8673 L139.7274 254.7992 L140.2695 257.0738 L139.419 258.2918 L140.3065 268.9212 L138.7419 268.9406 L141.2838 275.1618 L141.9802 276.2266 L143.7187 276.9571 L146.1847 279.231 L178.1289 285.2802 L182.5541 286.8479 L187.428 300.3456 L172.1797 322.0136 L175.318 323.1881 L190.3931 330.0981 L197.2627 335.7333 L199.3256 343.0053 L209.0372 353.0946 L209.96 371.1858 L213.4091 376.5205 L214.0776 388.67 L207.1802 391.1249 L205.3342 397.205 L206.8976 398.1857 L207.5874 399.7029 L206.0548 401.6648 L201.8244 398.6916 L200.4321 400.7479 L199.2743 405.2058 L195.5196 403.0109 L191.8089 403.2295 L190.0872 404.5387 L187.8073 409.1957 L180.9194 409.9471 L178.4701 419.0418 L184.1962 422.0566 L184.1962 422.0741 L180.8415 428.6696 L180.8415 428.6677 L180.7886 441.2798 L172.4106 453.6404 L164.3054 461.4218 L155.209 484.107 L170.7074 490.8635 L176.6295 501.1853 L175.4156 512.0 L179.525 511.0509 L188.2728 504.3136 L192.1854 503.7454 L196.02 500.8419 L197.0084 498.0819 L202.8239 498.9249 L207.3475 503.6267 L211.8346 503.2246 L215.9707 500.0563 L221.4285 497.4082 L219.154 496.1793 L219.5838 492.8286 L220.5821 491.719 L230.4032 488.6161 L231.9178 487.9161 L231.1016 484.6003 L235.7114 479.1551 L239.6362 478.3121 L245.8914 471.8082 L257.508 481.6642 L263.8439 486.9445 L268.8601 490.9921 L282.0549 496.2211 L282.8083 496.6713 L293.3307 502.9549 L298.2546 502.0095 L304.5668 495.3938 L308.9793 493.1864 L306.2909 486.7878 L306.1412 486.4318 L310.5984 483.1897 L311.0778 486.9014 L310.9052 487.7457 L311.8046 490.1591 L312.2533 490.5407 L313.1485 491.1345 L313.128 491.6821 L310.2728 493.6803 L315.5076 497.5899 L314.9445 498.5171 L317.8932 500.0645 L317.2793 500.8687 L323.9548 506.9286 L327.7308 504.0951 L322.8483 496.5546 L318.839 489.2318 L317.6795 490.3446 L316.4156 487.9867 L312.4189 481.8659 L321.4809 475.6849 L322.911 474.0301 L325.3393 472.2841 L327.0746 470.6642 L331.7462 461.3387 L334.1516 456.1104 L336.0082 452.6162 L338.8577 446.4578 L359.6508 438.8691 L370.1322 428.5141 L376.3139 424.415 L378.602 413.7059 L390.2527 417.5147 L395.9493 411.0564 L410.0123 405.4225 L426.7205 407.034 L438.2654 396.834 L454.7071 402.8241 L476.2876 403.7236 L482.2647 404.4138 L484.6914 400.7854 L487.2161 397.4817 L488.5395 395.8471 L489.9688 394.6466 L490.6594 394.3499 L492.0058 394.4167 L493.7673 394.5497 L495.3122 394.5803 L500.7865 394.4348 L501.8918 394.2893 L502.1297 394.0269 L496.6984 393.8439 L494.1147 393.7246 L492.1945 393.3623 L491.8188 392.8888 L491.7565 391.9456 L491.9488 391.5022 L492.968 390.5702 L494.5301 389.0642 L495.9291 387.8349 L494.8472 387.1028 L494.6269 386.8654 L494.2857 386.3988 L493.7103 385.6849 L493.1899 384.7373 L492.4221 382.2755 L490.9252 377.302 L490.5286 375.0082 L490.7197 373.8775 L491.0507 373.0623 L491.3357 372.5445 L494.7783 369.7515 L496.4839 368.7102 L498.3291 367.4302 L499.1797 366.7874 L500.1074 366.4432 L500.8521 365.8891 L506.3198 365.8941 L503.933 362.2515 L503.3912 360.1788 L501.0375 358.8451 L496.2428 355.6972 L498.918 348.4211 L497.8496 347.6021 L496.9863 346.9536 L498.0362 339.4006 L499.3466 335.7927 L501.834 329.0547 L508.3225 333.5936 L511.5702 326.7118 L510.7541 325.6185 L505.0411 317.6526 L505.3298 315.6658 L506.4437 307.9495 L506.1283 300.4893 L502.2158 301.081 L498.5284 300.1706 L482.2548 305.8546 L465.9891 298.786 L462.7947 297.4152 L463.2335 295.7594 L458.7017 293.9349 L459.1405 292.304 L460.5312 287.7396 L461.6139 280.7038 L461.8313 279.8977 L463.304 280.4294 L464.269 281.1312 L464.9392 282.4115 L464.8736 284.3535 L467.7259 284.889 L473.1059 282.3921 L468.5121 280.4794 L462.9239 272.458 L458.5089 271.8713 L458.5089 269.7342 L456.5608 269.503 L458.9527 264.5064 L456.7569 264.7257 L451.1292 265.3294 L451.81 255.5815 L451.7223 251.1734 L452.1316 246.4315 L452.9399 245.5991 L455.2386 244.7154 L458.4425 243.06 L458.5245 243.0319 L459.273 242.9162 L460.2515 244.4786 L460.2716 245.3847 L460.1006 247.2001 L459.8377 248.7075 L459.9062 249.598 L461.6418 251.0484 L463.2179 252.8413 L464.2112 254.143 L464.8506 254.6111 L464.942 254.0055 L464.0398 252.7613 L463.1379 251.5852 L462.2812 250.066 L461.8477 248.6962 L461.8817 247.6682 L462.0835 245.5966 L463.8072 245.8647 L464.7649 245.884 L468.5228 239.7197 L470.3888 241.6264 L471.198 240.9321 L469.7503 226.3519 L470.9396 222.0459 L471.1004 221.4584 L472.3381 217.4135 L474.3198 218.3403 L479.7502 222.8039 L482.204 224.6095 L484.1988 226.3457 L486.1715 226.1332 L488.5174 225.3457 L488.4276 224.8032 L488.4981 224.5326 L489.1342 221.7315 L489.8859 220.6122 L490.2509 219.6728 L487.2952 218.921 L484.2132 215.7529 L478.4817 209.9773 L476.3491 209.6648 L472.3422 204.7479 L474.8879 202.1997 L473.7038 200.5834 L473.8884 198.6083 L474.7948 197.202 L471.7197 196.622 L471.2809 196.372 L474.5282 190.8142 L465.6655 186.4139 L468.9842 178.4588 L469.0441 178.3069 L471.9395 177.9113 L482.3492 182.5823 L480.4872 180.7884 L481.1557 178.7632 L483.2022 179.5008 L480.1017 176.288 L470.9392 172.7694 L470.6177 171.7981 L470.1863 170.5591 L467.7218 169.2671 L467.8966 167.5244 L472.2807 168.9996 L471.7845 164.3927 L471.4359 161.6047 L471.2841 160.2545 L479.2487 161.4547 L478.9944 159.3856 L483.0833 155.5975 L482.8897 154.8724 L481.6942 153.8284 L473.5029 154.0285 L473.5857 139.2061 L473.5972 135.162 L472.2315 132.2988 L474.3896 124.5105 L478.1069 122.9569 L475.6228 121.0601 L473.3758 119.9955 L462.9005 117.8473 L453.2061 120.0767 L449.1787 117.1946 L452.1767 116.807 L450.9873 115.2128 L451.7091 108.2043 L450.8183 107.9705 L448.666 107.4103 L448.666 103.4777 L445.1841 96.0063 L446.2135 94.7058 L442.2272 95.3873 L439.8485 93.3241 L442.3707 92.0611 L441.6325 91.3108 L439.9961 89.1662 L443.355 87.7157 L442.2887 86.8466 L440.7544 85.6204 L437.6953 84.0642 L432.979 79.7624 L428.8819 81.0342 L431.0268 79.5104 L424.1142 78.9152 L421.7852 77.7253 L421.4628 78.4244 L415.1757 83.8078 L408.663 84.9333 L406.6288 87.6156 L405.4599 94.2619 L413.9084 96.7441 L411.7483 100.8318 L408.9029 100.0353 L401.8099 94.6496 L399.5542 94.2994 L397.7087 94.2119 L396.5398 99.0199 L390.0722 106.8789 L388.116 109.0296 L383.6621 105.3721 L383.9902 95.3061 L381.8165 94.3557 L381.5561 94.0281 L383.8967 91.1082 L381.1698 90.483 L380.1379 89.9303 L378.5983 90.1147 L377.5078 89.7902 L376.2713 89.3782 L374.6932 89.7683 L373.3152 90.5568 L372.4006 91.6559 L372.1213 92.3487 L369.3448 95.6874 L358.6284 90.2166 L349.7247 88.8286 L342.9577 91.861 L335.8626 92.2799 L340.8046 86.809 L338.9713 86.5277 L337.1217 86.9341 L334.6774 93.1177 L333.2543 93.1177 L329.272 97.288 L329.5181 99.9953 L321.6151 98.4322 L315.168 89.8352 L309.9882 89.6477 L306.982 85.2834 L306.781 81.6132 L313.9499 78.1117 L316.4024 79.6311 L316.1153 77.599 L315.9923 76.9425 L315.5371 75.248 L314.8071 77.08 L311.645 77.4802 L307.9663 74.1288 L297.053 62.5797 L298.3613 52.7874 L285.0898 41.8817 L281.0952 44.2705 L277.884 45.121 L277.0843 47.6285 L278.979 54.1069 L274.681 51.6056 L271.8552 53.7692 L269.8128 53.0251 L270.1614 46.6968 L262.0247 42.7509 L256.123 34.1149 L251.8906 34.7278 L249.3027 31.5947 L247.5392 32.7829 L245.3492 30.9006 L243.4011 32.1513 L244.246 35.3469 L232.1064 32.7141 L232.7585 30.0438 L225.5507 28.0245 L219.8611 25.4124 L215.2013 20.9072 L211.5676 13.7027 L212.7939 9.1561 L210.0666 7.9303 L206.3632 6.3167 L204.7691 11.7152 L196.1197 13.3337 L184.5694 12.6083 L184.9468 18.9247 L181.473 20.0379 L170.5105 12.6083 L174.501 21.1261 L174.3985 21.495 L174.3985 27.0546 L178.9672 36.1786 L180.7184 45.8213 L179.5783 48.0975 L175.8339 51.1366 L171.663 52.7874 L169.5533 53.2439 L169.4524 55.9203 L169.3417 56.9958 L167.5167 67.4007 L163.6615 67.7947 L163.4032 69.5392 L163.6944 83.8329 L164.0216 86.1206 L164.312 88.1808 L164.4777 89.3726 L169.2925 89.3726 L178.1634 94.6496 L181.4812 83.7141 L182.1702 70.2958 L183.8698 66.7467 L189.5389 63.8116 L200.9435 67.0131 L207.6182 72.2029 L212.232 77.0175 L218.7939 86.3339 L218.7939 90.6105 L214.9347 94.8809 L213.0154 102.7837 L208.5409 107.6354 L207.1876 109.9505 L207.3315 110.7633 L206.6515 118.6351 L202.7714 121.2965 L202.1841 121.5709 L201.8765 126.0034 L205.4076 130.7546 L203.3324 133.8367 L198.3905 133.1177 L202.7501 138.3502 L215.5212 145.083 L215.7168 147.3309 L215.5171 152.3844 L216.9484 156.1163 L207.8232 168.0244 L207.5411 168.0344 L203.9435 168.0869 L203.8615 169.9935 L192.9236 178.1757 L186.0869 178.2944 L175.5796 169.1058 L175.0547 167.1556 L174.6322 167.2118 L174.985 168.337 L173.0656 171.2561 L173.8858 173.2126 L170.855 181.1697 L166.963 178.9445 L169.5747 171.9212 L170.0102 170.7248 L165.6342 177.8319 L163.0636 171.8674 L164.5408 168.0707 L162.423 166.1698 L150.3039 161.4547 L144.4597 155.9976 L150.267 155.1537 L153.9622 155.3099 L154.0935 154.9599 L154.0209 154.0816 L153.7325 149.9152 L172.9549 158.5355 L176.5229 156.8852 L180.2304 145.8581 L176.2891 127.36 L167.1189 125.0594 L163.2391 124.1716 L162.6937 129.5418 L149.7708 133.4678 L149.1064 122.2273 L148.4953 115.6292 L148.2533 113.2122 L149.0055 109.576 L150.3626 106.8757 L152.7798 104.278 L156.0169 94.562 L153.0271 93.446 L152.104 92.5557 L151.8087 87.8507 L152.9324 83.0088 L153.9606 81.0036 L154.7989 79.3085 L153.7449 73.4285 L155.4181 73.1908 L153.4496 67.0881 L143.0448 65.7562 L128.9162 60.4037 L125.7337 51.3805 L125.139 49.5045 L126.3078 48.06 L125.7255 46.3466 L128.1124 42.6321 L125.2907 41.6253 L122.0549 41.7754 L121.1567 38.8676 L118.8109 37.8858 L123.6831 51.5368 L120.2873 53.4815 L111.9824 54.4008 L111.2318 52.1621 L108.8655 54.976 L105.6747 54.976 L102.2789 42.2694 L99.6214 39.7556 L102.4758 34.5714 L94.9747 30.2815 L93.2809 31.2883 L92.2597 36.3724 L91.3 38.1609 L84.4838 32.6704 L81.7811 32.6016 L80.4154 33.2519 L80.7481 34.4113 L75.0716 38.4592 L71.3723 37.5481 L63.5595 30.3002 L64.4126 32.8392 L63.1904 41.1688 L60.8979 41.6066 L50.3947 27.8363 L49.0868 27.0684 L45.0279 21.1448 L37.9045 19.1667 L39.1143 16.4275 L39.7279 11.2418 L34.601 11.8328 L34.4451 10.8884 L32.6037 8.9497 L31.7646 6.4874 L28.904 3.3341 L25.0247 1.5073 L23.7369 0.1814 L23.4621 0.0 L17.5728 1.0194 L21.5346 10.263 L26.3399 13.39 L14.6569 17.5426 L0.4298 28.8994 M74.8915 46.8982 L74.8993 46.5004 L75.1015 45.9989 L75.4522 44.3487 L75.5174 43.8828 L75.5145 43.6427 L75.5863 43.4913 L75.8151 43.4457 L76.676 43.7315 L77.2883 43.799 L77.7279 43.8365 L77.9564 43.9854 L78.0142 44.2511 L77.8079 45.3305 L77.746 46.2747 L77.819 47.1333 L77.9986 47.7067 L78.1877 48.2107 L78.4973 48.604 L78.4711 48.8836 L78.2849 49.1056 L77.91 49.2819 L76.92 49.6533 L75.6195 50.0298 L75.3763 50.0654 L75.1618 49.9122 L75.1081 49.5389 L74.9239 49.1424 L74.917 48.5759 L75.0031 47.7242 L74.8915 46.8982 M74.9252 41.3158 L74.9424 41.0419 L75.3702 40.0451 L75.7905 38.785 L76.1838 38.2404 L76.692 37.8833 L77.5122 37.6 L78.7536 37.2498 L79.6165 37.2273 L80.1714 37.318 L80.3117 37.7276 L80.3055 38.2641 L80.0824 39.0377 L80.0004 40.0057 L79.286 41.7041 L79.101 42.6471 L78.932 42.8779 L78.6519 42.9623 L78.1467 42.8673 L76.6903 42.422 L75.7179 42.0306 L75.2049 41.7279 L75.1569 41.4978 L74.9252 41.3158 M74.9338 75.777 L75.0736 75.3568 L75.4083 75.0773 L75.7343 74.8547 L75.795 74.5458 L75.8237 74.1575 L76.0448 73.7242 L76.2827 73.481 L76.5328 73.4053 L76.774 73.5216 L76.986 73.9018 L77.0619 74.457 L76.9159 75.1004 L76.8212 75.5875 L76.8138 76.3241 L76.8946 76.8737 L77.0623 77.1288 L77.0078 77.4139 L76.8614 77.6078 L76.6063 77.6346 L76.4086 77.5502 L76.0112 77.2864 L75.1688 76.5179 L74.9502 76.1378 L74.9338 75.777 M79.4279 73.6429 L80.2485 69.7012 L80.3285 69.4417 L80.6193 69.1947 L81.2271 68.9521 L81.5154 68.8645 L81.8591 68.6332 L82.0465 68.44 L82.4349 68.1855 L82.7068 67.8785 L82.9262 67.5608 L83.4089 67.312 L83.6697 67.3182 L83.9814 67.4145 L84.4986 67.881 L84.7475 68.1492 L84.9838 68.4481 L85.1974 68.7476 L85.3033 69.1322 L85.6227 69.6474 L85.5969 69.9794 L85.5063 70.3308 L84.3924 72.3667 L83.4142 73.8436 L82.9639 74.5514 L82.1761 75.2261 L81.6409 75.4656 L81.0114 75.6319 L80.7013 75.6432 L80.3773 75.5425 L79.9721 75.2011 L79.6452 74.2794 L79.4279 73.6429 M79.731 77.9048 L79.9811 77.5302 L80.3662 77.1294 L81.7192 76.2672 L82.165 75.8664 L82.8532 75.5463 L83.1998 75.4512 L84.3497 73.7386 L84.6163 73.0583 L84.951 72.7156 L85.2631 72.615 L85.5858 72.6913 L85.9627 72.8151 L86.9208 73.5779 L87.344 74.1932 L86.9437 74.634 L86.6333 75.1555 L86.0357 76.0721 L85.7946 76.8781 L85.528 77.4821 L85.0482 77.6634 L84.588 77.7778 L84.3793 78.1249 L84.2689 78.5532 L84.1664 79.0859 L83.9511 79.5098 L83.3794 79.6918 L82.3672 79.446 L81.9973 79.4254 L81.3641 79.1709 L80.7956 78.5444 L80.2781 78.5507 L79.8314 78.2918 L79.731 77.9048 M81.4469 55.5213 L81.5334 54.9998 L81.8144 54.6971 L82.9861 54.0449 L84.9255 53.0482 L85.2881 52.7618 L85.6838 52.5805 L86.4376 52.3603 L87.3875 52.1865 L87.8485 52.2528 L88.6867 52.9857 L89.1235 53.1914 L89.336 53.4834 L89.5632 53.4284 L89.8945 53.1876 L90.6229 52.8275 L91.3669 52.5448 L92.4303 52.0627 L93.1197 51.8839 L93.7517 51.6556 L94.6642 51.5837 L95.4722 51.6275 L97.6524 51.8357 L98.0797 52.2171 L95.669 57.7812 L96.5315 58.6966 L98.845 53.2533 L99.2375 52.4316 L99.525 52.2478 L99.8158 52.4879 L100.1147 52.9256 L99.9052 54.0568 L98.3619 58.1545 L97.962 58.8761 L97.6979 59.4201 L97.1118 59.2256 L96.4733 58.948 L95.5107 58.0057 L95.4689 56.9226 L95.3135 56.0585 L95.1207 55.652 L95.1469 55.3712 L95.0707 55.0404 L94.9595 54.7884 L94.5621 54.4652 L94.0322 54.3857 L93.2161 54.6296 L92.6108 54.7647 L91.2418 55.5663 L90.8481 55.7508 L90.876 55.9246 L91.0864 56.1979 L92.2273 57.5267 L92.2851 57.8643 L92.0432 58.1889 L91.106 59.1881 L90.73 59.5408 L90.4728 59.6521 L90.2956 59.6846 L89.9819 59.6646 L88.1942 59.0943 L87.3366 58.9643 L86.4139 58.3865 L86.1276 58.3565 L85.8426 58.4059 L85.3037 58.5434 L84.6959 58.5197 L83.9125 58.2702 L83.4696 57.9819 L82.8639 57.4585 L82.3889 57.0371 L81.8607 56.3949 L81.5203 55.939 L81.4469 55.5213 M87.9682 48.9398 L88.0211 48.6253 L88.1606 48.3827 L88.323 48.3251 L89.2437 48.6084 L89.7863 48.7116 L90.1283 48.7097 L90.2423 48.8198 L90.3986 49.0637 L91.111 49.6934 L91.1729 50.1811 L91.3792 50.9084 L91.2918 51.6838 L91.1023 51.8538 L90.6672 52.1803 L89.8014 52.8356 L89.5312 52.9882 L89.3126 53.0057 L89.1719 52.8525 L88.8491 52.0202 L88.6035 51.2273 L88.316 50.2193 L88.1483 49.7403 L87.9682 48.9398 M110.9394 160.6471 L110.9731 160.2445 L111.1223 160.0833 L111.3705 159.7557 L111.8327 159.4813 L112.1911 159.3675 L112.86 159.2919 L113.344 159.315 L113.4801 159.4969 L113.6487 159.9301 L113.8246 160.6471 L113.7844 161.6735 L113.8829 165.8148 L113.7836 168.1851 L114.1092 169.5403 L114.2393 170.6185 L114.2384 170.8323 L114.204 171.0073 L114.1125 171.1755 L113.9423 171.2824 L113.7369 171.3374 L113.2254 171.3174 L112.5061 171.1111 L112.422 171.008 L112.3777 170.7723 L111.813 167.5025 L110.9394 160.6471 M193.8357 64.2605 L194.0621 64.083 L194.4948 63.9985 L195.0345 64.1061 L195.1181 64.2243 L195.1313 64.637 L194.9073 64.9634 L194.4952 65.0159 L194.1125 64.9196 L193.946 64.747 L193.8357 64.2605 M213.0806 471.0807 L213.1568 470.5555 L213.4316 470.0946 L213.909 469.5414 L214.4594 469.0006 L215.1217 468.4004 L215.7262 468.0994 L216.4247 467.7859 L216.9496 467.6067 L217.3573 467.4431 L217.9544 467.4562 L218.6012 467.4856 L219.1589 467.8815 L219.6355 468.3167 L220.2942 468.8151 L220.7486 469.2048 L221.2608 470.237 L221.3289 470.5867 L221.0832 471.0882 L221.0275 471.5884 L221.0676 471.7177 L221.2645 472.1404 L221.5651 473.0765 L221.5955 473.3569 L221.4921 473.583 L221.4876 473.5855 L220.5312 474.0388 L220.2158 474.3486 L219.9127 474.6108 L219.1446 474.9655 L215.5733 476.1308 L215.4158 476.1302 L214.9716 476.0783 L214.6895 475.8698 L214.3852 475.349 L213.8692 473.9139 L213.3525 472.6587 L213.1261 471.8138 L213.0806 471.0807 M243.381 464.2776 L243.6095 463.3415 L243.8605 462.5078 L244.1803 461.8339 L244.4428 461.4118 L244.6483 461.4798 L244.8197 461.7428 L245.2307 461.6741 L245.859 461.3087 L246.3954 461.0346 L247.1947 460.5437 L248.0055 459.9273 L248.3939 459.5389 L249.3302 458.5228 L250.4261 457.7347 L251.2484 457.1296 L252.1162 456.239 L252.8015 455.5427 L253.1095 455.0287 L253.3039 454.4236 L253.4634 453.9552 L253.5893 453.5899 L253.7603 453.0759 L254.4456 451.6713 L254.8111 451.2261 L255.222 451.1461 L255.4619 451.3172 L255.7588 451.6832 L256.0668 452.1966 L256.4323 452.6194 L256.9236 453.2358 L257.2775 453.7041 L257.403 453.9321 L257.5531 454.669 L257.54 455.2111 L257.2316 455.7251 L256.9921 456.239 L257.1401 456.6731 L257.54 456.9129 L257.9509 456.7755 L258.4993 456.7068 L258.8302 456.9353 L259.1042 457.1983 L259.3896 457.5517 L259.6866 458.0776 L259.9605 458.4541 L260.1549 458.6708 L261.4222 459.9729 L262.3815 460.7148 L262.9868 461.423 L263.6947 461.7771 L264.2426 462.0169 L264.471 462.2448 L264.8135 462.7476 L264.8295 463.2153 L264.8934 463.8323 L265.4073 464.5517 L265.9097 465.0426 L266.5835 465.248 L267.0515 465.3511 L267.2799 465.5109 L267.257 465.7164 L267.04 466.1385 L266.6861 466.7668 L266.3436 467.2351 L265.9897 467.4294 L265.2019 467.4749 L264.4255 467.4063 L263.6717 467.3032 L263.0664 467.2807 L262.3585 467.3032 L261.6277 467.2464 L260.9198 467.1096 L260.3604 467.0634 L258.6818 466.5501 L257.7799 466.1617 L256.9691 466.0474 L256.2727 466.0705 L255.6104 466.2303 L255.2105 466.3328 L254.5256 466.961 L253.8288 467.1665 L253.0869 467.0978 L252.2646 466.8124 L251.7963 466.5382 L249.2043 466.1385 L246.4754 465.3735 L245.7331 465.2368 L243.5652 464.6866 L243.381 464.2776 M252.5575 378.5981 L252.7432 377.4944 L253.0422 376.5068 L253.5901 375.6841 L253.9006 375.3005 L254.1979 374.6896 L254.6741 373.9412 L255.0149 373.7994 L255.5292 373.865 L255.8774 374.0187 L258.0846 374.9788 L259.438 375.2318 L260.8255 375.4967 L263.2472 376.375 L264.7355 376.7904 L265.4032 377.2945 L265.8843 378.0028 L266.8895 378.7256 L267.8307 379.4839 L270.1134 380.5021 L272.2805 381.1261 L273.8824 381.2817 L276.0171 380.8782 L277.5079 380.4802 L278.6009 380.0948 L279.5934 379.5595 L281.0099 379.4115 L281.5537 379.3252 L282.5905 378.8824 L283.1183 378.7987 L283.453 378.6088 L284.0145 377.5056 L284.0739 377.0727 L284.5353 376.2119 L285.1132 376.007 L286.2713 376.1376 L287.596 376.0339 L288.577 375.6197 L289.1508 375.5135 L290.9127 375.3874 L291.639 375.3274 L292.7964 374.8033 L293.6921 374.1486 L294.0649 374.0031 L295.255 373.91 L295.6426 374.0081 L295.7857 374.3666 L296.0314 374.6296 L298.2214 375.8234 L299.9972 376.448 L300.7847 376.6098 L302.2271 376.4093 L302.5478 376.2375 L302.6794 375.7297 L302.6872 374.6321 L302.4723 373.7101 L302.3882 372.9187 L302.5461 371.5893 L302.9255 370.7223 L303.6785 369.9721 L304.2543 369.8821 L305.086 370.2669 L306.0994 370.9234 L306.8667 371.1858 L307.6624 371.3726 L307.908 371.9367 L308.1459 373.2978 L307.7719 374.8458 L307.7575 375.5023 L308.4186 380.7132 L309.0174 384.7941 L308.9182 386.322 L308.44 387.9542 L307.7231 388.7331 L306.863 389.1541 L305.976 389.2341 L303.6895 389.8175 L302.6593 390.0467 L300.8228 391.0006 L299.3464 391.3204 L298.0061 391.4253 L295.1336 390.5152 L293.8705 390.0711 L292.951 389.9574 L292.1467 390.3053 L290.2815 391.8039 L289.0384 393.1899 L287.5612 395.0476 L286.5404 397.2894 L285.4897 399.365 L284.9627 399.7366 L283.6622 399.8759 L280.9993 399.9702 L279.3858 400.1108 L278.1949 400.3544 L276.5892 400.6823 L275.0907 401.0858 L273.0491 401.8372 L272.5836 401.766 L270.4301 400.0683 L270.3185 399.5749 L270.4149 398.7935 L270.4739 397.3293 L270.0581 396.3674 L269.3018 395.6784 L268.6694 395.5791 L268.0399 395.8883 L267.3849 395.6122 L266.4843 395.0288 L265.858 394.2081 L265.3392 393.7184 L264.9689 393.3723 L264.2196 392.0931 L263.5409 391.2354 L262.4807 390.2092 L260.8058 388.066 L259.4708 386.5381 L258.7544 385.7786 L257.727 385.0096 L256.6246 383.8984 L255.4439 382.6909 L254.4571 381.3435 L253.99 380.7488 L253.6435 380.2035 L253.3002 379.547 L252.8966 378.9598 L252.5575 378.5981 M264.2299 372.2215 L264.2906 372.0828 L264.3521 372.0148 L264.4878 371.9404 L264.6027 371.7905 L264.6425 371.7461 L264.7417 371.6606 L264.9267 371.6668 L264.9771 371.6968 L265.0825 371.8261 L265.1334 372.1066 L265.2002 372.3677 L265.4315 372.7175 L265.4652 372.7875 L265.6132 372.993 L265.822 373.1554 L266.3621 373.4796 L266.7086 373.6327 L266.951 373.7401 L267.179 373.7932 L267.3792 373.9138 L267.3866 373.9163 L267.542 374.1399 L267.4801 374.4023 L267.4551 374.5972 L267.4169 375.0532 L267.4366 375.2399 L267.4087 375.4642 L267.4469 375.7647 L267.3439 376.0214 L267.3431 376.1913 L267.444 376.3656 L267.4657 376.8197 L267.4579 376.8797 L267.0019 377.1071 L266.846 377.0815 L266.5909 376.7085 L266.4699 376.5936 L266.3736 376.5293 L266.2956 376.488 L266.1656 376.4131 L266.1041 376.3756 L265.8646 376.2769 L265.735 376.1532 L265.6112 376.0158 L265.3118 375.6535 L265.0173 375.3105 L264.9677 375.2481 L264.7573 374.9326 L264.5555 374.6634 L264.4362 374.3666 L264.4325 374.168 L264.5883 374.0631 L264.7454 374.0543 L264.891 374.1774 L265.0497 374.361 L265.2236 374.3954 L265.3938 374.1811 L265.4311 374.0287 L265.2507 373.7214 L265.1617 373.5146 L265.1157 373.4465 L265.0046 373.231 L264.9582 373.0917 L264.8405 372.8768 L264.7208 372.7456 L264.6113 372.6875 L264.4952 372.6644 L264.2565 372.547 L264.2475 372.4252 L264.2397 372.3571 L264.2299 372.2215 M268.0157 358.9762 L268.1203 358.5552 L268.119 358.0117 L268.2076 357.5982 L268.6264 357.4257 L269.4273 357.9973 L270.6335 359.0044 L271.5062 359.476 L272.9527 360.062 L273.7012 360.5349 L274.4041 360.7623 L275.2059 361.3245 L276.0467 361.7443 L277.2015 362.2209 L278.2457 362.4839 L278.6366 362.8931 L278.7169 363.3922 L278.8412 363.7046 L279.2296 363.8308 L279.6122 363.6858 L280.1027 363.4591 L280.5055 363.2036 L280.6531 362.8113 L280.8951 362.537 L281.1875 362.6182 L281.2043 362.9275 L281.0501 363.3154 L281.0419 363.6958 L281.1891 363.9188 L281.6374 363.9826 L282.0779 363.6259 L282.3518 363.2061 L282.6098 362.8787 L283.111 362.7807 L283.8693 363.2386 L284.5193 363.7789 L285.0168 363.7833 L286.4936 364.6541 L287.3988 365.2463 L288.1817 365.8997 L288.5807 366.3302 L288.6558 366.9205 L288.5639 367.7988 L288.3498 367.4921 L287.9573 366.4432 L287.0575 365.7598 L286.6556 365.2619 L286.3238 365.4512 L286.2348 365.7742 L285.9502 365.8897 L285.6488 365.826 L284.9458 365.2707 L284.7473 365.3525 L285.4228 366.0928 L284.7826 366.8093 L284.0288 366.8543 L283.4563 366.7468 L283.0006 366.5963 L282.7259 366.3745 L282.3666 366.392 L281.9684 366.6987 L281.733 367.0573 L281.6218 367.4477 L281.6993 367.7382 L281.8781 368.0274 L281.9475 368.6571 L281.4442 369.0469 L280.4489 369.2837 L279.8481 369.5685 L279.1217 369.253 L278.5697 368.6434 L278.0973 368.0074 L277.8294 367.5258 L278.2945 366.5607 L278.5016 366.0584 L278.3355 365.638 L277.2311 365.077 L276.2784 364.468 L274.8577 364.7509 L275.0853 365.3019 L276.1225 366.6587 L276.3214 367.2091 L276.401 368.1049 L276.5814 368.6365 L276.3136 369.1519 L275.5754 369.2974 L274.3779 368.9801 L273.2964 368.4216 L272.6656 367.8331 L271.6781 366.5269 L271.1978 365.5812 L270.8837 365.1782 L270.0089 364.7584 L269.5528 364.3368 L269.1562 364.0513 L268.8732 363.5103 L268.8872 362.642 L268.8084 361.9329 L268.6399 361.3595 L268.571 360.9497 L268.8552 360.6529 L269.2247 360.3169 L269.2473 359.8271 L268.6555 359.6134 L268.1736 359.3748 L268.0157 358.9762 M285.9502 403.2033 L285.9502 403.1295 L285.958 403.0621 L286.0015 403.0021 L286.0552 402.9353 L286.1229 402.9147 L286.1832 402.8934 L286.2324 402.8872 L286.2767 402.8997 L286.3337 402.9721 L286.3657 403.0552 L286.4055 403.1252 L286.4325 403.1751 L286.4563 403.2139 L286.4789 403.2732 L286.5223 403.3463 L286.5584 403.4119 L286.5929 403.4956 L286.6474 403.6093 L286.6897 403.6723 L286.7467 403.7367 L286.809 403.786 L286.8406 403.8385 L286.8853 403.9066 L286.9665 403.9359 L287.0034 403.9722 L287.0694 403.9846 L287.1884 403.9697 L287.2618 403.9509 L287.3295 403.9409 L287.3938 403.8978 L287.4701 403.8472 L287.5156 403.8179 L287.5677 403.7766 L287.6252 403.7467 L287.7047 403.7535 L287.7613 403.771 L287.799 403.7717 L287.8331 403.7791 L287.8938 403.7454 L287.9746 403.7048 L288.0345 403.6848 L288.0964 403.6392 L288.1624 403.588 L288.2469 403.5243 L288.3178 403.4475 L288.3892 403.38 L288.4413 403.3469 L288.4626 403.2963 L288.5016 403.2232 L288.5656 403.1676 L288.639 403.1402 L288.7497 403.1283 L288.8252 403.1464 L288.8928 403.1658 L288.9617 403.2001 L289.0343 403.2132 L289.1086 403.2201 L289.193 403.2276 L289.2677 403.2457 L289.3436 403.2788 L289.4166 403.3088 L289.4457 403.365 L289.4965 403.4212 L289.5835 403.4662 L289.6716 403.5049 L289.7799 403.5256 L289.8636 403.5399 L289.9354 403.5537 L289.9846 403.5374 L290.0572 403.4956 L290.1326 403.4893 L290.2278 403.4575 L290.2971 403.4918 L290.3549 403.5399 L290.4275 403.5843 L290.4788 403.6573 L290.5407 403.7504 L290.6002 403.7829 L290.6666 403.7798 L290.7203 403.7623 L290.7732 403.7348 L290.8393 403.6986 L290.9082 403.6536 L290.9541 403.5974 L290.966 403.548 L290.9972 403.4956 L291.0312 403.4437 L291.0648 403.3838 L291.0952 403.3094 L291.1456 403.2332 L291.2006 403.1801 L291.2662 403.1333 L291.3244 403.0946 L291.3909 403.0415 L291.4512 402.9921 L291.5209 402.9315 L291.5832 402.881 L291.641 402.8385 L291.7087 402.8079 L291.7801 402.781 L291.8633 402.7666 L291.9429 402.7698 L292.0438 402.7798 L292.1176 402.7898 L292.2029 402.8147 L292.2862 402.8503 L292.3518 402.8878 L292.4149 402.9209 L292.4412 402.9547 L292.4842 403.0209 L292.5347 403.1058 L292.5667 403.1939 L292.6134 403.262 L292.6581 403.3157 L292.7373 403.3257 L292.8058 403.3407 L292.8706 403.3594 L292.9497 403.3731 L293.0432 403.3975 L293.1454 403.3938 L293.2368 403.3894 L293.3102 403.3969 L293.3849 403.3875 L293.4612 403.3838 L293.5313 403.3619 L293.5981 403.3188 L293.6494 403.2726 L293.6982 403.2332 L293.7335 403.1814 L293.7692 403.1114 L293.8249 403.0346 L293.8996 402.9784 L293.9886 402.954 L294.0739 402.9453 L294.1477 402.9615 L294.2232 402.9909 L294.2941 403.0165 L294.37 403.0259 L294.4495 403.0371 L294.5295 403.0471 L294.6054 403.0565 L294.6706 403.0515 L294.7518 403.0302 L294.8154 403.0127 L294.8724 403.0071 L294.9167 403.029 L294.9478 403.0708 L294.9815 403.1177 L295.0204 403.1695 L295.0495 403.2382 L295.0676 403.3069 L295.0881 403.3713 L295.0918 403.4256 L295.0967 403.4793 L295.1061 403.5256 L295.1098 403.5855 L295.1102 403.6399 L295.093 403.7036 L295.0598 403.7704 L294.9991 403.8098 L294.9298 403.8247 L294.84 403.8197 L294.7666 403.801 L294.6784 403.7798 L294.5865 403.7642 L294.5111 403.7623 L294.445 403.7654 L294.3733 403.7754 L294.2994 403.7698 L294.2318 403.7916 L294.1723 403.8185 L294.11 403.8322 L294.0484 403.8429 L293.9808 403.8572 L293.916 403.8885 L293.8311 403.9253 L293.7421 403.9565 L293.6584 403.9684 L293.5629 403.9465 L293.4907 403.9103 L293.4107 403.8953 L293.3365 403.8797 L293.2659 403.8653 L293.2372 403.8585 L293.2241 403.8247 L292.9772 403.7154 L292.9251 403.7048 L292.832 403.7036 L292.7279 403.7054 L292.6762 403.6923 L292.6319 403.7023 L292.6147 403.7036 L292.4744 403.688 L292.4035 403.7192 L292.2246 403.7335 L292.1631 403.7773 L292.1045 403.7879 L292.0397 403.8035 L291.9646 403.7991 L291.8924 403.8135 L291.8117 403.8116 L291.7456 403.8316 L291.6837 403.846 L291.605 403.8778 L291.5697 403.9353 L291.5131 404.0015 L291.4454 404.0477 L291.3864 404.0615 L291.3412 404.0459 L291.2654 404.0796 L291.2002 404.0908 L291.1317 404.1114 L291.0308 404.1327 L290.9623 404.1358 L290.9028 404.1514 L290.8081 404.1552 L290.7375 404.197 L290.6654 404.2189 L290.6063 404.2501 L290.5464 404.282 L290.4734 404.3094 L290.409 404.3369 L290.3557 404.3638 L290.2823 404.3788 L290.2032 404.3769 L290.122 404.375 L290.0645 404.365 L289.9915 404.385 L289.9194 404.4044 L289.8394 404.4225 L289.7533 404.4381 L289.6499 404.4369 L289.5568 404.4269 L289.4998 404.4531 L289.4313 404.485 L289.3345 404.5043 L289.241 404.5243 L289.134 404.5374 L289.0265 404.5099 L288.9548 404.5405 L288.8748 404.5643 L288.7735 404.6055 L288.68 404.6155 L288.5918 404.623 L288.525 404.6261 L288.4626 404.6167 L288.3896 404.598 L288.3137 404.5749 L288.2522 404.5499 L288.1665 404.5393 L288.098 404.5162 L288.0148 404.5362 L287.9323 404.5699 L287.8384 404.6111 L287.7572 404.6324 L287.6731 404.6767 L287.5776 404.7242 L287.4992 404.7435 L287.3959 404.7623 L287.3151 404.7766 L287.2323 404.781 L287.1457 404.816 L287.0571 404.831 L286.9837 404.8422 L286.9132 404.841 L286.8336 404.8091 L286.7614 404.7854 L286.6798 404.7573 L286.6261 404.7311 L286.5925 404.6811 L286.572 404.6199 L286.5617 404.5355 L286.5716 404.4606 L286.5781 404.3944 L286.5564 404.3119 L286.5301 404.2495 L286.5072 404.1883 L286.4456 404.1258 L286.3817 404.0758 L286.3263 404.0365 L286.2668 403.9921 L286.2098 403.9316 L286.1688 403.8553 L286.127 403.7654 L286.0909 403.6861 L286.0368 403.6155 L286.0179 403.5218 L286.0023 403.4 L285.9752 403.3144 L285.9502 403.2033 M286.4694 371.0415 L286.7426 370.7604 L286.8726 370.761 L287.8433 371.6043 L289.3333 372.6563 L289.2849 372.6138 L289.9345 372.4895 L289.928 372.2603 L289.5863 371.8848 L288.8826 370.3862 L288.6086 370.0008 L288.6431 369.834 L288.7522 369.8234 L289.0737 369.8759 L289.6475 370.6886 L290.1745 371.8642 L289.9961 372.2496 L290.2487 372.7388 L290.4062 372.8643 L290.9262 372.8018 L290.9328 372.5826 L290.6596 371.9067 L289.969 370.8647 L289.5449 370.0008 L289.4563 369.7828 L289.5384 369.5535 L291.5615 372.7812 L291.7534 373.4571 L291.0488 373.489 L290.9873 374.0087 L290.7622 374.113 L290.5842 374.3323 L288.9302 374.5503 L288.5881 374.6958 L288.3146 374.9463 L288.0755 374.9357 L287.9254 374.3529 L287.1187 372.9999 L287.4742 372.6869 L287.6518 372.7806 L287.7679 373.0617 L288.0139 373.301 L288.349 373.0936 L288.431 372.7075 L287.5148 372.0728 L287.1662 371.7187 L287.0502 371.4588 L286.5789 371.1883 L286.4694 371.0415 M287.5743 399.9284 L287.6461 399.3818 L287.961 399.285 L291.025 398.6054 L293.275 398.2275 L295.5618 397.4717 L298.0988 397.1313 L302.0277 396.8621 L310.0484 397.2637 L313.2511 397.5717 L314.3321 397.7734 L317.7435 398.9409 L322.8122 400.7579 L323.135 400.7679 L323.7641 400.6536 L324.1459 400.3725 L324.9538 399.7491 L326.4627 399.4037 L328.0027 398.8622 L329.5771 398.2769 L331.8845 397.6829 L332.5447 397.6379 L332.5652 397.6491 L334.1869 398.5667 L334.3312 398.6835 L335.1457 399.3619 L335.1588 399.7341 L335.2187 400.0265 L335.0194 400.4143 L334.41 400.9959 L333.965 400.9165 L332.9967 401.2045 L332.8384 401.3869 L332.6813 401.5674 L332.2634 401.6542 L331.4284 401.4381 L331.0158 401.4337 L330.6246 401.5967 L330.5548 401.6767 L330.4519 401.7947 L330.3822 402.0921 L330.5499 403.8147 L330.319 404.3988 L329.9376 404.776 L329.5911 405.1602 L329.119 405.4013 L328.626 405.618 L328.0359 405.6299 L327.5212 405.5312 L324.6635 405.0346 L324.6319 405.2314 L324.6713 405.4075 L325.0428 405.7567 L325.1167 405.7916 L325.6871 406.0615 L325.9377 406.1801 L326.2059 406.4687 L326.402 406.8572 L326.4114 407.187 L326.4184 407.4325 L326.3179 407.9322 L326.1903 408.4862 L326.0111 409.0302 L325.7458 409.4774 L325.3028 409.9471 L324.6643 410.1189 L323.794 410.1564 L318.2525 408.3488 L316.7867 408.7223 L311.2333 407.0864 L305.125 405.3513 L302.072 404.3813 L300.8704 404.0309 L300.3741 403.8566 L300.1199 403.5437 L300.0358 403.3582 L299.9333 403.1427 L299.583 402.6492 L299.4358 401.9771 L299.1475 401.3519 L298.5606 401.0415 L295.4564 400.826 L294.1071 401.0939 L291.4909 400.7198 L288.9445 401.1183 L288.2957 401.0764 L287.9299 400.9084 L287.7601 400.5505 L287.5743 399.9284 M289.6343 395.0738 L289.6413 394.7278 L289.7492 394.4648 L290.0543 394.1543 L290.6477 394.0275 L294.4508 393.8776 L296.8758 393.8108 L297.5045 393.6909 L297.6374 393.5834 L297.6878 393.3673 L297.7071 393.2855 L297.7641 392.7577 L297.8786 392.5447 L298.2144 392.3435 L299.8447 392.3335 L300.1752 392.2686 L300.5534 392.1355 L300.9052 391.9263 L301.885 391.4616 L303.3848 390.9987 L304.066 390.9856 L304.4942 391.1124 L304.7944 391.0737 L305.2673 390.8831 L306.952 390.9912 L308.255 391.6521 L308.636 391.7164 L309.1404 391.8676 L309.4997 392.1611 L309.854 392.8183 L310.215 393.1287 L310.2437 393.1681 L310.8428 393.9832 L311.0315 394.18 L311.3157 394.195 L311.3391 394.0669 L311.1919 393.2193 L311.2731 392.8357 L311.376 392.5334 L311.5556 392.2561 L311.8087 392.1162 L312.008 392.1305 L312.1072 392.1518 L312.3217 392.198 L312.4985 392.4191 L312.9587 392.9944 L313.295 393.2405 L313.5685 393.2617 L314.2481 393.679 L314.4605 393.9751 L314.6873 394.0706 L314.9867 394.1181 L317.5032 394.5041 L318.0934 394.7521 L318.6048 395.1338 L318.9768 395.6641 L319.021 396.8727 L319.0247 396.977 L318.8832 397.5561 L318.5486 397.9889 L318.1717 398.3993 L317.7402 398.4755 L314.7903 397.4205 L312.2151 396.8827 L310.5894 396.6597 L306.2688 396.363 L303.1342 396.3699 L301.7456 396.4624 L299.5719 396.4624 L298.2698 396.3449 L297.7686 396.265 L296.8295 396.1151 L295.1377 395.952 L293.9808 396.1332 L292.4555 396.26 L290.6568 395.9683 L290.2306 395.8583 L289.9218 395.6485 L289.7582 395.3811 L289.6343 395.0738 M302.8791 432.0778 L303.9836 431.4838 L305.6975 431.2428 L308.4855 430.9267 L310.4647 431.3539 L310.6956 431.2171 L311.4244 429.9293 L311.7246 427.6209 L311.9801 427.0107 L312.7237 426.7746 L315.1626 426.4636 L315.8114 426.2844 L317.6008 425.9714 L318.7803 426.546 L318.9177 426.4717 L318.9649 425.4187 L319.4488 425.0059 L320.8313 424.4675 L321.1397 423.8279 L321.5552 423.407 L322.4669 423.0753 L325.1667 422.1934 L325.3508 422.1534 L327.1886 421.755 L328.9316 421.2097 L329.9659 420.8631 L331.0072 420.3509 L331.5412 420.384 L331.8065 420.5551 L332.2831 421.196 L332.411 421.6269 L332.4328 422.1116 L332.3569 422.625 L332.0243 423.4394 L331.9862 423.5325 L332.7129 424.5893 L332.8072 424.6892 L333.5208 425.4431 L333.7981 425.5667 L335.4956 426.3237 L336.048 426.4517 L337.2722 426.4842 L338.9447 426.5467 L339.3929 426.6541 L339.4864 426.7353 L339.7227 426.9401 L340.07 428.0794 L340.3797 428.3854 L341.4763 429.697 L342.0099 430.3346 L342.3856 430.3153 L346.1771 429.587 L346.36 429.5596 L346.7792 430.0611 L344.7991 431.3664 L342.8769 432.6811 L339.808 433.9439 L335.9631 434.7396 L334.7852 434.8446 L334.4219 434.7827 L334.0552 434.6091 L333.7329 434.4236 L333.4556 434.017 L333.3896 433.3631 L333.9006 433.1626 L334.2878 432.9659 L335.9073 432.6068 L337.8554 432.1209 L341.1335 430.7687 L335.5817 432.3538 L334.3177 432.3563 L331.7803 432.7817 L330.974 433.014 L330.7238 433.0858 L329.5915 433.3719 L328.6543 433.5024 L327.091 433.6848 L324.9227 433.6779 L321.7369 433.6198 L319.3701 433.7403 L316.5673 433.6729 L316.0846 433.7853 L315.9111 434.062 L315.8902 434.3074 L315.8574 434.709 L315.9279 435.2205 L315.4895 436.2161 L315.2209 436.5902 L314.7205 436.7844 L313.4939 437.0367 L312.576 437.4389 L312.7011 437.908 L313.329 439.2994 L313.3729 439.781 L313.2162 440.3274 L311.8903 440.5529 L310.621 440.4717 L308.232 440.5498 L306.1453 440.8327 L305.417 440.8745 L304.9269 440.6597 L304.6537 440.2868 L304.6505 439.059 L304.7694 438.4376 L306.0198 437.8823 L306.0453 436.7919 L306.0961 436.4796 L305.9214 436.3941 L304.5512 435.9182 L304.0459 435.6259 L303.6625 435.0519 L303.2023 434.1819 L302.9886 433.3881 L302.9747 432.6992 L302.8791 432.0778 M304.9129 355.7984 L305.2398 355.3486 L305.4198 355.3148 L305.6093 355.2792 L305.9034 354.8794 L306.4689 354.8863 L306.813 355.0181 L307.5459 355.0025 L308.0257 355.4104 L308.4244 356.1039 L308.8517 357.8724 L308.9711 358.5027 L309.27 358.9463 L309.6252 359.3429 L309.8307 359.9845 L309.8627 360.5923 L309.5354 360.9509 L309.2069 361.2533 L309.0998 361.6125 L309.3504 362.1185 L309.6937 362.4202 L310.8802 361.4932 L311.5294 360.5555 L311.8923 360.2713 L312.1487 360.097 L312.1622 359.8009 L311.9625 359.6915 L311.4277 359.396 L311.255 359.1918 L311.1 358.5939 L311.2161 358.1716 L311.1607 357.6463 L310.4352 354.9525 L310.0037 354.4865 L309.98 354.3978 L309.8438 353.8955 L310.1321 353.4963 L310.5812 353.2071 L311.8173 352.7154 L312.5629 352.6711 L312.8959 353.0703 L313.0214 355.0875 L313.3433 357.6288 L313.5636 358.92 L313.7334 360.2575 L313.8236 360.7042 L313.6833 361.1133 L313.6001 361.4351 L313.2785 361.7393 L313.1194 362.3103 L312.8045 362.6032 L312.6133 363.0049 L312.3952 363.2873 L312.0187 363.4372 L311.7312 363.3498 L311.4904 363.188 L310.8178 363.4491 L310.3511 363.554 L310.0238 363.5103 L309.1761 362.8825 L308.2858 362.0504 L306.8815 360.1907 L305.8029 358.0929 L305.2734 357.1284 L304.974 356.4587 L304.9261 355.9414 L304.9129 355.7984 M313.4139 352.8635 L313.4278 352.4887 L313.5509 352.3325 L315.0683 352.4362 L315.2324 352.5199 L315.7249 353.1658 L315.7725 353.447 L316.2376 353.7481 L316.6821 353.7656 L317.194 353.873 L317.5085 353.7275 L317.8776 353.7906 L318.1647 354.529 L318.5404 355.0394 L318.6175 355.3386 L318.629 355.3829 L318.2123 357.2577 L317.7476 358.9644 L317.7345 359.1943 L317.5979 359.4304 L317.351 361.5775 L317.4195 361.7443 L318.5199 362.3384 L318.4858 362.5252 L318.1577 362.7126 L317.9966 362.7257 L317.333 362.7788 L317.1119 362.7963 L316.4422 363.0768 L315.362 363.286 L314.7939 363.2817 L314.4531 363.1923 L314.3301 362.7444 L314.6442 361.7593 L314.6853 361.6306 L314.6648 361.0365 L314.3026 359.163 L313.8995 357.7468 L313.9056 356.9235 L313.7764 356.6636 L313.6189 355.2786 L313.6259 355.0812 L313.8585 354.7582 L313.961 354.3834 L313.7699 353.2802 L313.4139 352.8635 M315.9132 326.5813 L316.5345 325.4529 L319.8753 321.6568 L320.5537 320.6622 L320.8617 318.8066 L320.4913 316.8354 L320.9379 316.5655 L323.0439 317.2971 L323.6669 318.1555 L324.1 319.2814 L324.3903 320.7784 L324.8899 322.3628 L324.6262 323.3506 L324.1705 323.8791 L322.7712 324.3665 L320.3785 325.6291 L318.1672 326.2739 L315.9132 326.5813 M317.9617 423.7411 L322.957 417.4591 L323.0656 417.4185 L323.6439 417.985 L323.7649 418.1037 L323.8125 418.2717 L323.4758 419.6214 L323.5697 420.0655 L323.8871 420.4565 L324.5974 420.7656 L324.798 420.9917 L324.6655 421.5507 L324.6134 421.5732 L322.4652 422.5007 L318.2303 423.9122 L317.9617 423.7411 M318.4858 398.2669 L318.5547 398.0895 L318.6979 398.0164 L319.5727 397.9746 L319.6682 397.8503 L319.5185 397.3506 L319.4053 397.1351 L319.108 396.5692 L319.0534 396.0901 L319.1285 395.9758 L319.4156 395.8621 L319.9692 395.8933 L320.2699 395.7465 L320.276 395.3568 L320.3359 394.8964 L320.7124 394.3898 L320.9502 394.3086 L321.1344 394.3361 L321.3772 394.5285 L321.7123 394.4036 L321.8968 394.4354 L322.1905 394.6847 L322.2126 394.9576 L322.1023 395.3824 L322.1699 395.6435 L322.0625 395.9108 L322.0129 396.1438 L322.0399 396.3505 L322.3 396.3712 L322.6486 396.1844 L322.772 395.9139 L322.936 395.9027 L323.1612 396.0695 L323.5512 396.601 L323.9408 396.6735 L324.2435 396.6404 L324.4875 396.4655 L324.5831 396.2056 L324.4531 395.8508 L324.173 395.4767 L324.1623 395.2412 L324.2345 395.0807 L324.3805 394.9133 L324.5285 394.8939 L324.9243 394.7927 L325.998 394.7577 L326.0386 394.9002 L326.0628 395.18 L326.1231 395.3424 L325.8011 396.012 L325.834 396.2462 L325.7778 396.4055 L325.8893 396.5723 L326.0907 396.6485 L326.2289 396.5798 L326.2441 396.4442 L326.9179 396.1806 L327.3223 396.1182 L327.4953 396.2375 L327.5552 396.3999 L327.5036 396.5254 L327.4666 396.8128 L327.7131 396.9652 L327.8366 397.1832 L328.0757 397.2256 L328.5887 396.9752 L328.6568 396.5279 L329.5964 395.7996 L330.2432 395.9245 L330.4408 396.2775 L330.7558 396.3712 L330.7759 396.5585 L330.584 396.9652 L330.0955 397.2875 L328.8139 397.736 L328.0966 397.8184 L327.6262 398.0726 L327.3174 398.1201 L327.0573 398.37 L326.4762 398.5992 L326.2371 398.548 L326.0599 398.4224 L325.5399 397.3393 L325.3008 397.2356 L325.1298 397.2775 L324.727 397.8084 L324.4199 398.9227 L324.1541 399.0983 L323.8039 399.2351 L323.1374 399.6835 L323.1128 399.7004 L322.738 399.776 L321.9649 399.9109 L320.0993 399.3387 L319.012 398.9015 L318.9234 398.4643 L318.5814 398.4537 L318.4858 398.2669 M327.5351 410.7591 L327.8333 410.3169 L328.1302 410.1139 L328.5231 409.9178 L330.1837 409.3869 L332.5911 408.538 L333.0455 408.6817 L334.2636 408.3488 L335.3135 407.959 L336.2588 407.3163 L337.0606 406.8023 L338.0568 406.3419 L338.6039 406.0465 L338.8975 405.8822 L339.2801 405.9291 L339.8063 406.45 L340.3522 406.6149 L341.7039 405.7117 L342.1346 405.3244 L342.459 404.6967 L343.0262 404.3151 L343.5778 404.157 L344.0794 404.1814 L344.5235 404.4481 L344.6322 404.7286 L344.6474 405.0796 L344.5539 405.3875 L343.1254 407.0434 L342.0115 408.3038 L341.3287 409.137 L340.9264 410.1757 L340.9485 411.8447 L340.7332 412.9346 L340.0926 414.8945 L340.3013 416.1937 L341.0642 417.1961 L341.6839 418.0906 L343.6885 420.6457 L344.5075 421.3746 L345.0419 421.8043 L346.7218 422.8954 L347.2553 423.2833 L347.7409 423.9878 L347.9361 424.8329 L347.9677 426.3037 L347.5732 427.0526 L346.0524 427.8695 L344.1286 428.6696 L343.2624 428.812 L342.0562 428.7664 L341.5641 428.0575 L341.181 426.5023 L341.1687 425.6417 L341.2364 424.2608 L341.0465 423.4226 L340.182 422.0548 L339.0985 420.7238 L337.6585 419.4534 L336.1136 418.3604 L334.2336 416.7677 L333.4306 416.2499 L332.0752 415.1413 L329.726 413.19 L327.7074 411.1395 L327.5351 410.7591 M332.0616 393.1531 L332.0866 391.4341 L332.4492 388.6813 L332.3918 384.9746 L332.7789 378.5076 L332.8696 377.0259 L333.2251 372.9661 L333.4294 369.9446 L333.4503 369.879 L333.4675 369.8234 L333.7718 368.8589 L334.1344 367.7088 L334.3165 366.1171 L334.6216 365.3588 L334.225 363.6252 L334.2164 363.5871 L334.3423 362.2628 L334.2271 360.9528 L334.2455 360.8691 L334.517 359.6303 L334.7643 356.9035 L335.0182 354.8944 L335.475 352.9734 L335.5398 352.0588 L335.9606 350.9237 L336.7735 349.6312 L337.2 348.7616 L337.5658 348.3068 L338.2737 348.0288 L340.7976 348.5523 L340.727 348.7197 L340.5765 349.3851 L340.2369 350.4146 L340.1233 350.9612 L340.378 350.9112 L340.6442 350.1966 L340.9145 349.7867 L341.8918 349.1914 L342.0083 348.6704 L341.624 348.0388 L341.2762 348.0394 L341.0006 348.2343 L341.4406 347.0542 L341.6777 346.8887 L341.8864 346.3976 L342.1014 345.5549 L342.3269 344.3029 L342.5808 343.4551 L343.011 342.7942 L343.8862 342.5693 L345.2261 342.7611 L346.9539 343.0734 L347.2566 343.2783 L347.3451 343.7088 L347.1368 344.5166 L346.4765 345.8579 L346.1501 346.67 L346.2706 348.5117 L347.2004 346.938 L347.4694 346.5638 L348.1301 346.4745 L349.8895 347.1279 L351.2675 348.1668 L352.7554 349.5025 L353.1188 349.7255 L352.3982 352.0695 L350.9919 355.476 L349.2924 359.7584 L347.3492 364.5498 L347.257 364.7778 L347.1147 366.2364 L346.9646 367.0142 L346.8239 367.4627 L346.4343 367.9087 L345.913 368.2067 L345.1719 368.2842 L344.672 368.4385 L344.357 368.3266 L344.1458 368.2511 L344.042 368.0687 L343.9411 367.8919 L343.926 366.3089 L343.9592 364.9508 L343.8476 364.0332 L343.5483 361.5712 L343.4732 358.9775 L343.4096 357.8918 L343.2993 358.8919 L342.8051 363.3704 L342.8876 364.4811 L342.9429 365.2163 L343.045 366.0241 L343.1119 367.4877 L343.1759 368.1417 L343.1878 368.2654 L343.0262 369.1294 L342.6579 370.4112 L342.5 370.8272 L342.3068 371.3389 L342.2814 371.5868 L342.2535 371.8555 L342.0484 372.0629 L341.7322 372.0635 L341.6941 372.031 L341.4476 371.8224 L341.1564 371.8423 L340.9702 372.2003 L340.8476 372.6931 L340.6745 373.3872 L340.4465 373.9937 L340.1086 374.1786 L339.7907 374.0774 L339.4983 373.5939 L338.7868 371.0515 L338.5362 370.0733 L338.4624 369.7847 L338.1494 369.8983 L338.247 371.1352 L338.2704 371.4344 L338.8159 372.888 L340.0348 376.2719 L340.1832 376.8641 L340.1537 377.0277 L340.0774 377.455 L339.8301 378.0416 L339.5426 378.8087 L339.3269 379.329 L339.2018 380.3016 L339.1399 381.326 L339.1251 381.5684 L339.1669 381.7221 L339.1751 382.7684 L339.8576 382.8964 L340.4182 382.8646 L340.6389 382.4236 L340.7381 382.1143 L341.065 381.0943 L341.2122 380.6345 L341.254 380.5046 L341.4472 380.0667 L341.5543 379.9993 L341.6617 379.9318 L341.7737 379.9412 L342.0952 379.9674 L342.5701 380.286 L342.8736 380.5421 L343.0893 381.7089 L343.1574 381.9088 L343.3407 382.4473 L343.9584 383.2687 L344.3148 383.8065 L344.5407 384.3119 L345.1297 385.6961 L345.2761 386.5831 L345.2367 387.5226 L345.0575 388.1566 L344.8049 388.7044 L344.8315 389.1822 L345.1395 389.562 L345.4758 390.0324 L345.6883 390.3297 L346.2226 391.519 L346.1419 391.9481 L345.9717 392.193 L345.8695 392.3398 L345.3187 392.7608 L344.8455 393.0819 L344.2951 393.2817 L343.5478 393.4448 L342.9593 392.9875 L342.4495 391.6371 L342.3277 391.1205 L342.4487 390.8731 L342.7584 390.4653 L342.6374 390.0449 L342.2445 389.8856 L341.8208 389.973 L341.1659 388.9924 L340.9239 387.036 L340.5925 385.8891 L340.5814 383.2175 L338.9885 383.1656 L339.3093 385.9672 L339.333 386.5987 L339.4996 388.3608 L339.5664 391.6533 L339.6103 392.2648 L339.2617 392.7227 L338.9098 392.9319 L338.7265 393.3117 L338.722 393.8558 L339.0743 394.5866 L339.63 395.2749 L340.0208 395.5535 L340.4051 395.6004 L341.092 395.4961 L341.6227 395.5417 L342.1042 395.8202 L342.3306 396.0913 L342.377 396.4592 L342.0087 396.8059 L341.4878 396.8384 L340.9805 396.977 L341.4349 398.1588 L341.1794 398.5936 L340.8082 398.7822 L340.4404 398.6873 L339.8535 397.7422 L339.639 397.3968 L338.1478 394.7159 L337.8164 393.5691 L337.3009 392.842 L336.9326 391.8532 L336.1833 388.7231 L336.1419 388.5507 L335.9024 386.124 L335.5895 385.9716 L335.5173 387.1409 L335.7289 388.6169 L335.8146 389.2666 L336.1846 390.8044 L336.5541 392.1162 L337.2279 394.2274 L338.0453 396.2237 L338.4911 397.4243 L338.747 398.6429 L338.7302 399.3131 L338.594 399.4081 L338.1334 399.7285 L337.5621 399.8978 L337.3559 399.8597 L336.8567 399.7666 L335.3057 398.0395 L334.8041 397.5236 L333.7013 396.4261 L332.0616 393.1531 M334.3378 403.1908 L334.4506 402.9665 L334.7471 402.5437 L335.0604 402.2551 L335.3647 402.1595 L335.9184 402.2076 L336.2953 402.0633 L336.4278 401.6842 L336.2469 401.192 L336.2096 400.9871 L336.2272 400.7697 L336.3806 400.5974 L336.7821 400.558 L337.1377 400.8691 L337.4781 401.3294 L337.4375 401.7654 L336.73 402.6873 L337.9698 404.0071 L337.9218 404.2969 L337.1008 404.7242 L336.6574 404.9222 L336.3986 404.8872 L335.674 404.177 L335.3336 403.7866 L334.7865 403.6442 L334.4342 403.4162 L334.3378 403.1908 M339.5676 325.8584 L339.6546 325.4679 L340.556 319.8643 L340.8484 315.0697 L341.129 312.9598 L341.1208 312.4487 L340.9542 311.1335 L340.9953 307.8864 L341.0465 307.624 L341.2093 307.3472 L341.3623 307.2141 L344.6219 306.4625 L345.58 305.7796 L345.881 305.0629 L346.0709 304.3275 L346.4642 303.9708 L346.8817 304.0382 L347.0273 303.7383 L346.755 303.4734 L346.3851 303.4628 L344.9722 303.3385 L344.5412 303.186 L344.9652 301.6246 L345.0829 301.439 L345.3228 301.3234 L345.6218 301.2284 L345.8265 301.0597 L345.9544 300.7311 L346.1529 299.3977 L346.1074 299.2609 L345.9401 299.0547 L344.6498 298.806 L343.5204 298.3905 L343.3251 298.0075 L343.262 297.642 L343.4691 296.9584 L344.5129 294.3885 L345.039 292.5077 L345.2371 291.8704 L345.3171 291.7992 L345.395 291.7654 L347.1479 292.2972 L347.3041 292.1922 L347.3976 292.0379 L347.4387 291.6911 L347.4973 291.4849 L347.7639 290.9107 L347.8385 290.5564 L346.5614 289.8978 L346.5257 289.6179 L347.2574 287.136 L348.1375 284.0374 L348.3696 283.6381 L350.1463 281.8191 L350.8615 282.2959 L351.3631 282.5321 L354.3508 284.4404 L359.6623 287.8996 L361.3269 288.75 L367.441 292.5627 L371.6944 295.3482 L371.9597 295.6556 L372.0577 295.9843 L372.3063 296.6073 L372.5605 296.8309 L372.8357 296.9947 L373.2983 297.0778 L374.1108 297.1515 L374.7498 297.377 L374.8055 297.5801 L374.9212 297.8382 L374.6021 299.7845 L374.0759 302.5531 L374.0484 304.1232 L373.6178 307.4197 L372.8283 308.9992 L372.1041 310.2001 L370.8655 311.5809 L370.4738 312.2844 L369.9932 313.3978 L369.3513 314.1338 L367.8232 315.2384 L366.7401 316.0588 L365.2411 317.6145 L364.7424 318.5879 L364.5222 319.9293 L364.2084 322.5852 L364.3163 325.671 L364.297 326.4132 L363.7614 329.3446 L363.4657 329.7957 L362.8637 330.0081 L359.399 330.2911 L357.8393 330.1049 L355.8617 329.6008 L353.7053 329.1422 L349.7866 328.2307 L345.3897 327.4666 L343.5159 326.8224 L342.0029 326.5157 L340.9682 326.5294 L339.5676 325.8584 M340.4683 413.9539 L340.9883 412.6529 L341.3705 411.2688 L341.9927 411.4149 L341.9521 412.1326 L341.6921 413.3918 L341.8967 415.0888 L342.0813 415.6409 L342.7034 416.4423 L343.3083 417.0968 L344.6379 418.6489 L345.0276 419.0343 L345.5332 419.3984 L346.0393 419.9299 L349.771 422.9279 L350.127 424.1814 L350.2496 424.6136 L350.2078 425.0421 L350.1881 425.5199 L350.1061 425.7797 L349.9346 425.9671 L349.7095 426.0195 L349.4708 425.9571 L349.1562 425.0721 L348.9992 424.9153 L348.3426 425.0308 L348.2195 424.8322 L348.2536 424.3432 L348.4865 424.197 L348.5205 423.5837 L348.3085 423.407 L348.1449 422.5107 L347.9665 422.2933 L347.5773 422.0223 L346.7505 421.9704 L345.7797 421.5226 L344.6925 420.1167 L344.583 419.8463 L344.672 419.5864 L344.843 419.4715 L344.7815 419.326 L344.0642 418.5971 L343.6467 418.316 L343.2091 418.1805 L342.9015 417.817 L342.2182 417.3685 L342.2863 416.8582 L341.8077 416.5691 L341.4931 416.6715 L341.1503 416.551 L340.8874 416.2561 L340.8099 416.0051 L340.6737 415.318 L340.8858 414.714 L340.4683 413.9539 M341.9377 377.8717 L342.0103 377.4694 L342.2379 376.9934 L342.6349 376.8104 L342.8675 376.726 L343.1742 376.4949 L343.6692 376.3012 L344.1142 376.1594 L344.4189 376.0601 L345.1818 376.1651 L345.477 376.5355 L345.6128 376.9372 L345.6017 378.9336 L345.598 379.3171 L345.523 379.6607 L345.2392 380.9119 L345.1436 381.0581 L345.0378 381.3135 L344.9591 381.584 L344.9759 381.9838 L345.0374 382.8258 L345.0066 383.2087 L344.8701 383.3793 L344.6347 383.2562 L344.5079 382.927 L344.6388 382.531 L344.5387 382.1868 L344.2898 381.9319 L343.9264 381.9419 L343.6947 381.6715 L343.4896 380.8144 L343.4416 380.3603 L342.8613 379.9543 L342.6624 379.6001 L342.3347 379.0273 L342.3208 378.7356 L341.9451 378.0909 L341.9377 377.8717 M342.3466 413.8733 L342.4434 413.5211 L342.6197 413.0857 L342.8482 412.7503 L343.3104 412.325 L343.5056 412.1457 L346.1074 410.1782 L346.4671 409.7385 L347.2561 408.7754 L348.6854 407.4437 L349.0594 407.1427 L350.3964 406.0652 L350.6487 405.7841 L351.0153 405.6917 L351.4923 406.0277 L351.8077 406.0665 L352.6816 406.6798 L353.0109 406.8304 L353.4961 406.5099 L353.5162 406.1833 L352.2457 405.0202 L352.1809 404.8597 L352.089 404.6324 L351.8802 404.3644 L351.998 404.1345 L352.4626 403.8828 L352.7222 403.6117 L352.7919 403.5593 L352.9851 403.4144 L353.321 403.3488 L354.3164 403.2732 L354.7002 403.4375 L356.0032 404.1114 L356.6795 404.395 L357.4222 404.7061 L357.8668 404.9915 L358.2027 405.207 L359.5097 406.167 L362.9838 408.0577 L363.1438 407.8959 L360.7926 406.0989 L360.4062 405.8041 L358.9314 404.8991 L357.2245 404.2164 L356.1274 403.6648 L355.6661 403.4056 L355.0898 403.0496 L354.8528 402.959 L354.8229 402.9478 L354.6395 402.6598 L356.6581 401.1233 L357.5403 400.6885 L358.0185 400.4974 L358.9675 400.3256 L359.4687 400.3125 L359.8111 400.3288 L360.1159 400.3431 L360.7364 400.5099 L362.7431 401.0733 L362.8247 401.1395 L364.2732 402.0565 L364.7354 402.4506 L364.8901 402.6455 L364.9372 403.019 L364.9581 403.4974 L365.0152 403.8129 L365.2391 404.0221 L365.488 404.1152 L365.7513 404.0989 L366.1668 403.8135 L366.4374 403.7229 L367.9049 404.8322 L369.3493 405.7642 L369.6479 405.9309 L369.8275 406.0202 L369.531 406.6186 L369.3468 407.1289 L368.8559 407.5312 L368.2096 407.7773 L367.528 408.6842 L367.5415 409.0115 L366.2508 410.4556 L364.7953 412.3337 L364.2207 412.7922 L363.9222 412.6123 L363.2012 412.1694 L362.7496 411.879 L362.5602 411.7578 L362.4925 411.6854 L361.2675 410.3769 L360.5186 409.8672 L360.2742 409.7104 L358.7465 408.9253 L357.7138 408.2926 L357.2471 408.0065 L357.1716 408.132 L357.0888 408.2701 L358.6062 409.5549 L359.7439 410.8709 L360.9894 411.3462 L363.0121 412.4305 L363.7528 413.0489 L363.8894 413.1626 L363.3214 414.0276 L362.6426 414.7134 L360.7528 416.7371 L360.2668 416.3892 L357.2143 414.205 L356.2944 413.5011 L356.0909 413.9008 L357.82 415.4754 L359.5995 416.7321 L359.6455 416.8851 L359.8042 417.4135 L357.8536 419.4852 L357.2032 420.236 L356.3149 420.9774 L355.9987 421.1991 L354.7138 421.9286 L352.9769 422.4782 L351.1018 422.8299 L350.549 422.8779 L349.3933 422.0854 L349.2198 421.2522 L348.5255 420.6726 L348.2162 421.0186 L348.1252 421.1204 L347.0388 420.3865 L346.125 419.637 L345.3167 418.9131 L344.5001 416.4729 L344.4718 416.3879 L344.1975 416.1818 L343.9079 415.9645 L343.6984 415.8071 L343.0299 415.4629 L342.6411 415.2624 L342.3872 414.3718 L342.3466 413.8733 M344.2545 402.6736 L344.414 402.3219 L345.0276 401.3856 L345.4274 401.1714 L345.7916 401.0365 L346.1738 401.0465 L346.3941 401.1658 L346.7214 401.5505 L346.8395 402.0209 L346.7792 402.5874 L346.4273 403.3969 L346.0225 403.7866 L345.0636 403.1589 L344.2545 402.6736 M346.0512 382.9401 L346.1718 381.396 L346.3814 379.8856 L346.8075 378.3027 L347.2697 376.9584 L347.6786 376.4418 L348.338 376.5674 L349.9174 377.4475 L350.6806 378.0809 L350.9267 378.016 L351.0994 377.8635 L351.3266 377.1608 L351.5878 375.7909 L351.7785 374.2661 L352.0025 374.0281 L353.2492 373.7051 L353.4551 373.549 L353.8107 371.6293 L353.987 370.2138 L354.3738 369.7453 L354.9291 369.403 L355.8346 369.2424 L356.7033 369.3699 L358.621 369.8902 L358.8658 369.6835 L359.5901 368.0905 L359.9252 367.7932 L360.3972 367.642 L361.3909 368.0424 L361.5853 368.063 L361.7272 367.7563 L362.5048 365.29 L362.8862 364.6472 L362.9723 363.7639 L363.4957 362.3665 L364.993 359.5653 L365.6574 358.6601 L367.0699 355.4111 L367.8372 353.2183 L368.7349 350.8556 L368.9695 350.6108 L369.3682 350.5483 L369.9317 350.8506 L370.3947 351.0293 L370.6933 350.98 L371.7038 348.6466 L379.5215 350.5589 L378.349 354.632 L377.7071 356.5618 L377.53 357.1315 L377.7732 357.4913 L379.1938 358.0523 L380.156 358.474 L381.0586 359.3611 L381.5934 360.2388 L381.1173 362.4571 L381.4343 364.7378 L381.8666 365.6567 L382.4981 366.4545 L383.3225 367.0798 L384.2674 367.7182 L386.2188 368.2561 L389.3012 369.2993 L389.5112 369.9002 L389.0568 370.9003 L388.6791 372.0666 L388.5146 372.9536 L388.6368 373.6514 L389.0428 374.2592 L389.1072 374.3791 L389.8122 374.8214 L389.8376 375.3786 L389.2852 377.9291 L387.7542 381.4022 L388.0032 381.7214 L388.3706 381.9919 L389.1478 382.2443 L390.0058 382.1974 L390.5533 381.975 L390.7822 381.6396 L391.1119 380.9013 L391.2329 379.8044 L391.0307 378.9186 L391.1385 378.3445 L391.499 377.8454 L393.4807 376.1495 L393.7666 375.6435 L394.0902 375.5679 L394.465 375.6735 L394.6586 375.9995 L394.7447 376.3231 L393.258 379.0773 L392.1401 381.4841 L390.9815 382.8602 L390.678 383.6747 L390.3638 384.6717 L389.8545 385.4669 L389.0162 385.8904 L385.8956 387.2583 L378.746 390.4553 L373.77 391.3129 L373.1622 391.3279 L372.5482 391.0262 L370.8245 389.3603 L370.8282 389.3484 L369.9415 388.3627 L369.7332 387.9198 L369.7803 387.3727 L369.7836 387.3358 L370.0793 386.8623 L370.4123 386.4575 L371.2436 385.4456 L371.7399 384.6454 L371.8953 384.3943 L371.9987 384.0458 L372.602 382.0181 L372.7681 381.4747 L372.9038 380.5814 L373.0514 379.6101 L372.9251 379.3259 L372.6692 379.2222 L372.4929 379.3465 L372.4436 379.5239 L372.2989 380.0061 L372.1455 380.4384 L372.1135 380.5914 L372.0471 380.91 L371.8014 381.3317 L371.6443 381.3404 L371.5447 381.1774 L371.6189 380.7507 L371.6361 380.6508 L371.858 379.9487 L371.9901 379.3883 L372.0056 379.1853 L371.9978 379.0929 L371.9675 379.101 L371.8453 379.1347 L371.6607 379.6851 L371.2465 380.6039 L370.2339 382.4204 L369.8008 382.4754 L369.4961 382.3442 L369.5101 382.3117 L370.1445 380.8632 L370.3656 380.201 L370.3365 380.0174 L369.2619 382.0119 L368.8801 382.0263 L368.6886 381.807 L368.7399 381.3092 L368.785 381.0081 L369.0803 380.3534 L369.3079 379.7844 L369.4793 379.3115 L369.611 378.6013 L369.6671 378.2964 L369.6495 377.891 L369.5585 377.7954 L369.3472 378.1228 L368.5508 379.4239 L368.0578 380.6589 L365.7345 385.054 L364.6136 387.66 L364.0321 388.4639 L362.9687 390.0093 L362.6652 390.1473 L362.5175 390.2366 L362.1784 390.1892 L361.9073 389.963 L361.8375 389.4115 L363.0335 387.0397 L363.3533 386.2233 L364.4672 384.9434 L364.9561 384.032 L367.2359 378.5382 L366.953 376.9265 L366.6782 375.914 L366.5843 375.1725 L366.1828 375.5242 L365.2075 376.6954 L364.8778 376.9497 L364.3897 377.3263 L363.843 378.8967 L363.2114 380.9981 L363.1376 381.1418 L362.5544 382.2768 L361.1153 383.8865 L360.8385 384.7435 L360.6991 385.1189 L360.0831 386.6568 L359.3194 388.1641 L358.653 389.8569 L358.2789 391.0936 L358.1555 392.0375 L358.3692 392.118 L358.7772 390.3903 L360.4993 386.377 L360.9082 385.5493 L361.1822 385.4412 L361.3548 385.5999 L361.475 386.1908 L361.459 386.555 L361.1042 387.5913 L360.7011 387.8124 L360.6084 387.8636 L360.1491 388.517 L359.869 389.2035 L359.3178 390.825 L359.0307 391.8101 L358.68 393.0131 L358.6677 393.0481 L357.713 393.0906 L357.2832 393.1281 L357.1249 393.0544 L357.0072 392.9994 L356.7566 392.669 L356.7439 392.1274 L356.7147 390.9131 L356.8247 389.7725 L357.1072 388.6607 L357.3996 387.848 L357.9857 386.0122 L358.4184 385.1789 L358.8392 384.3693 L359.8903 382.5029 L360.4169 380.1535 L361.0768 378.2746 L361.2539 376.5911 L361.3782 375.4323 L361.3963 375.2668 L361.331 375.263 L361.1518 375.2531 L360.8405 375.9152 L360.6162 376.776 L359.6077 379.334 L359.8157 380.2641 L359.7103 380.6027 L359.5105 381.243 L358.6419 381.1611 L358.3261 381.0812 L357.9746 381.0193 L357.4472 381.1774 L356.9866 382.3117 L356.8189 383.2618 L356.9075 383.7372 L357.2823 384.7822 L357.252 385.9697 L356.5351 387.352 L355.9913 388.9642 L355.8289 389.4465 L355.7325 389.8469 L355.6218 390.3047 L355.5705 391.9538 L355.4216 392.4254 L355.0595 392.8226 L354.462 392.9613 L354.341 392.9238 L353.9682 392.8089 L353.9403 392.7945 L353.5511 392.5903 L353.3153 392.5578 L353.1274 392.9438 L352.7673 393.3579 L352.5754 393.4523 L352.2678 393.6028 L351.6678 393.634 L351.5144 393.5628 L351.2839 393.456 L351.2442 393.4073 L351.1035 393.2355 L350.9874 392.8089 L350.8365 391.7526 L350.3796 390.2979 L350.2709 389.9524 L350.0327 389.1935 L349.9744 388.1535 L350.1007 387.367 L350.0499 386.6093 L350.0134 386.4707 L349.8219 385.7436 L350.0384 381.3448 L350.296 380.5252 L350.6105 379.1772 L350.6273 378.3708 L350.2529 378.4014 L349.9383 379.9761 L349.6754 380.8875 L348.9778 381.8426 L348.7519 382.5566 L348.9163 384.4774 L349.219 386.1096 L348.97 386.8661 L348.8847 387.0422 L348.7691 387.2821 L348.4451 387.5782 L348.0095 387.6619 L347.3989 387.655 L346.8165 387.2021 L346.4991 386.4782 L346.1628 385.3376 L346.1242 384.097 L346.0512 382.9401 M346.196 375.7928 L346.3727 374.5953 L346.6709 372.6119 L347.0265 371.2477 L347.3107 370.2825 L347.4998 369.4998 L347.6064 369.4523 L347.6974 369.4579 L347.8541 369.4886 L348.0715 369.5573 L348.3032 369.6922 L348.3147 369.9171 L347.7536 372.6213 L347.8385 372.7125 L347.9222 372.7512 L347.9976 372.675 L348.0489 372.2328 L348.1617 372.0091 L348.2884 371.4038 L348.6333 368.7777 L348.635 368.1211 L348.4201 368.0743 L348.4151 368.7945 L348.1391 368.8864 L347.9013 368.837 L347.6786 368.7296 L347.5194 368.5859 L347.4961 368.4016 L347.533 367.8025 L347.8078 365.5137 L347.8877 365.0283 L347.9591 364.9227 L348.1047 364.9152 L348.3893 365.0208 L348.4213 365.0958 L348.4299 365.6542 L348.4074 366.2358 L348.4258 367.717 L348.4972 367.7626 L348.6354 367.6788 L348.6731 366.2358 L348.676 365.0577 L348.5287 364.9184 L348.3126 364.6454 L348.1916 364.3112 L348.1744 363.9951 L348.4274 363.5834 L349.6225 361.2021 L349.9556 361.3114 L349.9104 361.6156 L348.977 364.0432 L349.073 364.541 L349.1858 364.8578 L349.4003 365.1907 L349.6877 365.7329 L349.6857 366.184 L349.5549 368.2529 L349.4507 368.9182 L349.2748 369.2056 L349.1817 369.5404 L349.2998 369.8484 L349.2473 370.37 L348.5837 373.5308 L347.9546 375.5004 L347.7036 376.0595 L347.4743 376.1676 L347.3263 376.1132 L347.2672 376.0014 L347.2873 375.7609 L347.868 372.973 L347.7655 372.9368 L347.6552 373.0024 L346.9744 375.9652 L346.7956 376.0676 L346.5684 376.0433 L346.4576 376.0314 L346.2842 375.9514 L346.196 375.7928 M347.0166 391.7907 L347.1872 391.6452 L348.2195 391.9681 L348.7453 391.8638 L349.4158 392.2486 L349.983 392.9576 L350.1676 393.5291 L350.2771 394.0394 L349.8395 394.4254 L349.1394 394.5335 L348.8154 394.784 L348.4996 394.8314 L348.0354 394.383 L347.6659 393.634 L347.0166 391.7907 M351.4295 356.2132 L351.4865 355.8152 L351.8753 355.0518 L352.7173 353.0934 L352.8555 352.4924 L353.4457 351.4885 L353.8156 349.8617 L354.5309 347.8845 L355.2461 347.1991 L356.1717 346.3957 L356.7693 345.8953 L357.3882 345.6123 L358.4647 345.6848 L359.2616 345.6911 L360.8852 345.9372 L361.8531 346.3127 L362.7997 346.4751 L363.9091 346.8549 L364.2769 347.3066 L364.3036 347.9201 L363.6002 349.8105 L362.7656 351.2473 L362.4285 352.6892 L362.465 353.913 L362.2259 355.7728 L361.4976 357.287 L360.4333 358.2491 L358.1198 358.617 L354.7777 358.3522 L353.5371 357.74 L352.5327 357.2564 L351.8191 356.7467 L351.4295 356.2132 M354.6231 282.0709 L354.6527 281.6235 L354.6559 281.1362 L354.665 280.4426 L354.6986 279.8546 L354.8036 279.2353 L354.9496 278.5999 L355.0316 278.4818 L355.1924 278.4718 L355.3851 278.6311 L355.6718 278.7679 L356.0663 278.9017 L356.3694 279.0791 L356.4957 279.2253 L356.7283 279.4447 L356.9362 279.7209 L357.243 279.5465 L357.4878 279.4828 L357.7798 279.5703 L358.6804 279.8427 L359.059 280.0458 L359.1865 280.2026 L359.2825 280.3632 L359.3899 280.3607 L359.5528 280.1989 L360.2721 280.1726 L360.7889 280.4207 L361.3134 280.5594 L362.052 280.8543 L362.7919 281.0743 L363.307 281.1387 L363.6736 281.308 L364.197 281.5229 L364.7998 281.7204 L365.2854 281.9235 L365.8055 282.2159 L366.5027 282.4809 L366.7791 282.5783 L367.2314 282.5752 L367.9409 282.8095 L368.6582 283.0345 L369.0032 283.1932 L369.2509 283.3307 L367.8019 286.593 L367.4303 286.6117 L366.7241 286.4905 L365.4954 285.9781 L361.7937 284.7247 L360.9878 284.376 L360.5916 284.1455 L360.316 283.9136 L359.8427 283.8318 L359.2985 283.8124 L358.726 283.6362 L358.3966 283.5918 L358.0698 283.395 L356.305 282.8539 L355.8026 282.6133 L355.2957 282.6127 L355.0103 282.4871 L354.722 282.3396 L354.6231 282.0709 M356.385 423.7598 L356.4957 423.5188 L358.4249 421.2803 L358.8617 420.449 L360.9591 417.7083 L361.2281 417.6908 L362.7431 418.9587 L363.1987 418.7651 L365.8711 419.9737 L367.0042 419.0843 L367.4406 419.0512 L368.8371 420.2722 L369.2812 420.4814 L369.6466 420.5352 L369.6495 422.1659 L368.687 425.1089 L368.0468 424.9134 L363.9017 423.3882 L361.0911 421.9604 L360.5022 422.0354 L360.2434 422.5326 L359.6889 422.8804 L359.107 423.4132 L357.7942 424.322 L356.9214 424.3426 L356.385 423.7598 M357.5091 142.7531 L357.5879 142.3974 L357.7962 142.158 L358.2683 141.841 L358.8154 141.5585 L359.7488 141.1834 L359.7504 141.1828 L360.236 140.9877 L362.2969 140.592 L364.1272 140.4463 L364.8942 140.0412 L365.3847 139.7306 L365.7296 139.101 L365.8908 138.7697 L365.9182 138.359 L365.7283 137.9752 L365.0824 137.34 L363.1631 136.1303 L361.2195 135.0282 L360.51 133.8717 L358.1104 131.8018 L357.6502 131.0985 L357.6441 130.7715 L357.763 130.3839 L357.9406 130.0426 L358.1235 129.8119 L358.215 129.6975 L358.5439 129.5049 L359.9588 129.378 L360.3947 129.4731 L361.128 129.76 L363.1733 130.8653 L364.5386 131.5686 L365.2362 132.0556 L366.8939 133.0946 L368.9765 134.0873 L370.1814 134.6919 L371.0734 135.0432 L372.0914 135.2683 L372.9165 135.2576 L373.5551 135.1876 L374.0882 135.1201 L374.6279 134.9182 L375.2595 134.4168 L375.5671 134.2449 L375.9329 134.3424 L376.1015 134.4649 L376.0937 134.7763 L375.7045 136.166 L375.3092 137.7889 L375.0233 138.8772 L374.566 141.3122 L373.9529 143.0763 L373.8192 143.1376 L373.6658 143.1351 L373.4033 143.0132 L372.4486 142.2599 L370.8983 141.766 L369.4202 141.8129 L367.9939 142.198 L367.019 142.5881 L363.5104 144.1778 L363.143 144.2072 L362.4831 144.0871 L361.8601 143.9096 L359.9994 144.0046 L358.3167 143.829 L357.8795 143.6539 L357.6662 143.4332 L357.5337 143.0869 L357.5091 142.7531 M359.6963 285.7913 L359.9879 285.427 L360.4312 285.164 L360.9049 285.1096 L364.4951 286.5774 L367.124 287.3484 L368.5795 287.942 L369.0032 287.9639 L369.5367 288.0908 L369.9325 288.2982 L370.3004 288.3288 L372.6163 289.0724 L373.019 289.2698 L373.6642 289.426 L374.4081 289.6772 L374.8195 289.7766 L375.0508 289.9853 L375.8107 290.0765 L376.1052 290.219 L376.3152 290.4302 L376.6543 290.5133 L376.9459 290.7932 L376.7655 291.7142 L376.2262 293.8161 L375.7414 295.187 L375.4289 296.3273 L375.3268 296.5929 L375.1915 296.5591 L374.8301 296.1924 L374.1953 295.6538 L373.9882 295.7344 L373.8331 295.9343 L373.5858 295.9093 L372.3128 295.0846 L372.264 294.9065 L372.3141 294.6878 L372.1467 294.5085 L371.9154 294.5266 L371.7058 294.6309 L371.582 294.4885 L371.1419 294.2192 L371.1124 293.9249 L371.2469 293.8186 L371.5562 293.7674 L371.9482 293.8305 L372.5929 294.1311 L372.7619 294.0411 L372.5007 293.6581 L372.2911 293.4356 L371.8108 293.3613 L371.3064 293.2219 L370.9086 293.5275 L370.5948 293.4856 L370.2594 293.2201 L369.8181 293.2407 L368.2813 292.4046 L367.3631 291.7967 L367.3721 291.6117 L367.2679 291.2999 L366.9698 291.1962 L366.72 291.3162 L366.5129 291.2993 L366.0158 290.9513 L365.7874 290.382 L364.7494 290.1471 L363.8492 289.6241 L363.6757 289.3342 L363.597 289.0093 L363.4157 288.7293 L362.8669 288.3907 L362.8354 288.2088 L362.6635 287.8002 L362.3518 287.6802 L361.8868 288.012 L361.5591 288.072 L361.3794 288.0126 L361.2388 287.8833 L361.1293 287.5728 L361.2179 287.4522 L361.1986 287.3003 L360.4723 286.961 L360.1007 286.568 L359.9211 286.5086 L359.8062 286.0944 L359.6963 285.7913 M360.8057 400.1689 L361.1449 399.686 L362.0024 399.3669 L362.4601 398.7485 L363.5801 398.3781 L364.5985 397.9777 L365.6812 397.6135 L366.2049 397.6904 L366.6552 397.756 L365.721 399.3975 L366.2225 399.7472 L366.3029 400.5618 L367.0256 400.8341 L367.2003 401.1401 L367.2064 401.4562 L366.9768 401.8703 L366.6339 402.197 L365.9334 402.3713 L365.4786 402.3444 L363.6224 401.2838 L362.746 400.9428 L362.4769 400.8378 L361.0226 400.3694 L360.8057 400.1689 M364.4037 330.0181 L364.6141 328.0201 L364.7342 324.5089 L364.9007 322.6964 L365.0262 319.8937 L365.2296 319.0434 L366.1758 317.1828 L366.9804 316.2906 L367.9344 315.484 L368.6632 314.9491 L369.8513 314.2094 L370.2155 313.8739 L371.6209 311.5484 L371.8871 311.464 L372.216 311.2972 L372.6171 310.903 L373.0428 309.7084 L373.6732 308.7493 L374.3031 307.4747 L374.4331 306.4912 L374.7457 304.8699 L374.8818 304.7849 L375.0885 304.7474 L375.2595 305.0029 L375.5134 305.0892 L375.6286 305.3747 L375.8198 306.1264 L375.9161 306.8899 L375.8919 307.1879 L375.9444 307.4247 L376.0691 307.6521 L376.1491 308.1064 L376.3422 308.7387 L376.4124 309.2054 L376.3394 309.5209 L376.4202 309.7658 L376.5961 309.9864 L377.0153 311.5584 L377.4233 313.2228 L377.9848 314.5786 L378.4642 316.1993 L378.3707 316.4668 L378.611 316.6923 L378.6217 316.776 L378.691 317.0372 L378.4084 317.2602 L377.1477 317.8282 L375.4059 318.5067 L375.1041 318.801 L374.7904 319.4139 L374.5504 320.0618 L374.5205 320.7621 L374.1924 322.276 L373.9238 323.0526 L373.7245 323.8873 L373.5026 324.5445 L372.5011 326.0877 L372.0249 327.1448 L371.817 327.9133 L371.7735 329.2215 L371.7834 329.5658 L371.5127 329.6114 L370.9438 329.4458 L370.5932 329.1284 L369.857 328.9785 L369.4711 329.1409 L369.3112 329.4839 L369.3341 329.6676 L369.1672 329.8194 L368.8075 329.8763 L364.9454 330.1018 L364.6834 330.0393 L364.4037 330.0181 M368.0636 286.6505 L369.6015 283.1413 L371.0148 280.0277 L371.4479 279.3434 L371.746 279.2884 L372.0704 279.3097 L372.1008 279.5496 L372.1258 280.192 L372.0385 280.7525 L372.7197 281.2268 L373.6391 281.2624 L374.1087 281.1799 L374.3647 280.8362 L374.7346 279.0729 L375.4072 279.0779 L378.7521 280.9356 L380.5894 281.0431 L380.8663 281.2211 L380.9713 281.4961 L380.9946 281.7704 L380.9032 282.2978 L380.6251 283.0014 L380.5361 283.6812 L380.5263 283.7649 L380.3909 284.2773 L380.0977 284.994 L379.9127 285.6751 L379.7557 286.0406 L379.6978 286.3874 L379.6769 287.0248 L379.549 287.4428 L379.2135 287.7352 L378.7583 288.2457 L377.7457 289.2586 L377.2568 289.5016 L376.7011 289.5273 L374.1342 288.7893 L372.5544 288.2651 L370.3016 287.5553 L368.0636 286.6505 M372.9776 327.5484 L373.1884 326.9867 L373.9271 325.864 L374.696 324.8675 L375.8546 323.5599 L376.1856 322.6383 L376.2049 321.9067 L376.1126 320.4398 L376.2906 320.0805 L376.9148 320.0012 L378.5745 320.0755 L379.4784 320.1973 L380.8167 320.1723 L381.8243 319.8262 L382.3353 319.7019 L383.0251 320.0224 L387.9527 324.7126 L390.3281 327.1011 L390.7912 327.9945 L390.9294 328.1669 L391.287 328.9685 L390.9495 330.3392 L390.913 332.1385 L391.0003 334.4514 L391.2357 336.7748 L391.2521 337.8319 L390.4627 338.0793 L389.4308 338.0343 L388.677 337.6882 L387.6652 337.5738 L386.2774 337.9056 L384.892 337.8469 L383.7121 337.7906 L383.1314 337.437 L382.8246 337.3633 L381.3658 337.089 L380.3225 336.7217 L378.8481 335.4972 L377.3483 334.0703 L376.3267 332.6577 L375.7726 332.156 L374.5361 331.3095 L374.3199 330.526 L374.2379 330.133 L374.2449 330.0949 L373.9664 329.5701 L373.5686 329.209 L373.113 328.6199 L372.9776 327.5484 M375.0967 299.6133 L375.189 299.1684 L375.4248 298.6817 L375.5478 297.9094 L375.6635 297.7076 L375.8534 297.652 L375.9637 297.7476 L378.1423 299.0853 L378.7968 299.5746 L378.8021 299.7039 L378.5807 299.8282 L378.3244 299.9151 L378.3354 300.1731 L379.0203 300.1294 L379.3189 299.9951 L379.551 300.0444 L381.0147 301.0366 L383.5398 302.6918 L383.2782 303.1004 L383.19 303.4103 L383.3167 304.077 L383.3069 304.3344 L383.1666 304.5656 L382.948 304.8492 L383.0112 305.0117 L383.272 305.0642 L383.8565 304.9898 L387.2994 304.3813 L388.823 304.042 L389.2253 304.1526 L389.7396 303.8346 L389.8299 303.4434 L389.7384 302.9904 L389.3828 302.7505 L389.2262 302.5143 L389.0379 302.3681 L389.0166 302.2 L392.4345 299.5271 L393.2023 299.0497 L393.6083 298.6698 L394.2432 298.2431 L394.6184 297.9069 L397.5873 295.5694 L398.3001 295.0427 L398.2107 294.8727 L397.4138 295.4045 L397.2809 295.382 L397.2559 294.9152 L397.1037 294.9171 L397.1402 295.1164 L397.0865 295.3614 L397.0828 295.5994 L396.1576 296.3236 L395.9509 296.3836 L395.786 296.2855 L395.5194 296.1893 L395.3698 296.2536 L395.3242 296.4748 L395.2738 296.6116 L395.2922 296.8922 L395.0855 297.0884 L394.6496 297.3933 L394.3764 297.377 L393.5377 297.3983 L392.7938 297.9463 L392.3357 298.3505 L392.1946 298.4755 L391.9124 298.568 L391.9198 298.448 L392.1265 298.2068 L392.284 297.6657 L392.5182 297.3752 L392.6773 297.2458 L392.9484 297.0259 L393.3491 296.8447 L393.9003 296.5142 L393.8617 296.3886 L393.7387 296.263 L393.6296 296.2486 L393.1235 296.6697 L392.804 296.999 L392.7577 296.9859 L392.6519 296.9565 L392.9792 295.9787 L393.0862 294.8134 L393.2367 294.3248 L393.582 293.9099 L393.7974 293.7418 L394.1632 293.4562 L395.5957 292.9514 L396.0653 292.8227 L396.4131 292.8676 L396.9684 292.7764 L397.31 292.4971 L397.2666 292.1897 L397.0619 292.1303 L396.7937 292.1029 L396.5587 292.0354 L396.352 292.2091 L396.0965 292.4728 L395.7672 292.5146 L394.805 292.2816 L394.5466 291.8442 L394.4794 291.6323 L394.4015 291.3868 L394.2854 290.8807 L394.522 289.9778 L394.7086 289.6928 L395.1577 289.4685 L395.33 289.2992 L396.2195 288.4257 L396.4229 288.102 L396.7387 287.917 L397.3461 287.7646 L397.6918 287.6309 L397.9728 287.579 L398.2234 287.4784 L398.6142 287.2153 L398.8172 287.1466 L399.0473 287.2885 L399.2314 287.6159 L399.3992 288.5863 L399.6444 289.0168 L399.9053 289.273 L400.5934 289.0524 L400.4782 288.5613 L400.1193 286.6923 L399.8097 286.5824 L399.4882 286.5774 L399.2126 286.3631 L399.0756 285.9044 L399.1125 285.5714 L399.4078 285.4039 L399.7872 285.412 L400.1846 285.4745 L400.4782 285.607 L400.7251 285.6832 L400.9531 285.6545 L401.134 285.4783 L401.2808 285.2108 L401.1594 284.9203 L400.9371 284.501 L400.6833 284.1936 L400.3355 283.8524 L400.1021 283.6612 L399.8893 283.5412 L399.7133 283.49 L399.6854 283.3413 L400.3445 282.7189 L401.0056 282.1872 L401.4916 281.876 L401.5921 281.9541 L401.7578 282.3296 L402.3545 282.4459 L402.8458 282.4009 L403.6431 282.1859 L403.7809 281.936 L403.6804 281.5867 L403.4237 281.4298 L402.9963 281.4486 L402.6547 281.5254 L402.3319 281.5086 L402.1884 281.1512 L402.3607 280.9462 L402.6613 280.725 L403.3199 280.4244 L403.8986 280.2657 L404.2587 280.4751 L404.7262 280.4782 L405.4296 280.3663 L405.8327 280.2082 L406.1128 280.1445 L406.5168 280.1314 L406.7506 280.1876 L406.8634 280.6325 L406.8002 280.935 L406.6784 281.2674 L405.6949 284.3885 L405.8249 284.4348 L406.6189 282.1815 L406.6788 281.896 L406.913 281.2036 L407.1094 281.0143 L407.3551 280.9493 L412.2482 280.4744 L416.3338 279.8696 L424.0461 279.4047 L424.5141 279.4872 L424.909 279.8421 L427.6162 279.6571 L427.9927 279.7983 L428.345 280.7456 L428.4434 281.6211 L428.4689 282.9832 L428.507 283.37 L428.4172 283.5519 L428.3245 283.6756 L428.117 283.7299 L427.8623 283.6831 L427.4149 283.6718 L426.8969 283.6031 L425.1961 284.0336 L424.2073 284.1192 L422.6411 284.3717 L417.9432 285.2246 L417.7278 285.3089 L417.6511 285.3758 L417.6618 285.4595 L419.8769 285.0927 L422.2346 284.7359 L424.5407 284.6422 L426.0709 284.4473 L426.6586 284.401 L426.798 284.611 L427.1918 284.8172 L428.4299 284.7734 L428.5796 284.8397 L428.6325 285.0321 L428.5271 285.502 L428.2995 285.6663 L427.9554 285.7151 L423.6434 286.2631 L419.9117 286.7092 L418.9242 286.9485 L418.8795 287.0398 L418.9143 287.0923 L419.0603 287.1304 L421.9574 286.7842 L423.463 286.6324 L428.3221 285.9357 L428.4504 286.055 L428.5821 286.2481 L428.7461 287.1447 L428.749 287.569 L428.5915 287.799 L428.3163 287.9014 L426.5581 287.8552 L425.7514 287.9577 L425.5115 288.0733 L425.418 288.2276 L425.4635 288.3638 L426.0848 288.5838 L426.3965 288.4857 L426.9219 288.4869 L427.6466 288.6412 L427.7393 288.9205 L427.8373 289.786 L427.7274 290.0778 L423.9264 290.5214 L423.595 290.5782 L423.4699 290.7076 L423.4634 290.8794 L423.8148 290.9769 L428.1289 290.752 L428.7961 290.7576 L429.2264 290.8107 L429.4544 290.8719 L429.5889 291.2231 L429.7895 292.1828 L429.4359 292.509 L429.1021 292.5515 L428.8581 292.4115 L428.6214 292.3278 L428.3512 292.4228 L428.1494 292.5671 L425.2076 292.8845 L422.5832 293.0763 L421.9619 293.0895 L420.2853 293.2457 L419.9597 293.5318 L419.6968 294.1336 L420.0499 296.7054 L420.1742 297.2508 L420.2411 297.7807 L420.2275 298.6998 L420.1488 299.0153 L420.1533 299.2753 L420.2513 299.6483 L420.3973 300.9829 L420.4674 301.2691 L420.5097 302.0051 L420.4006 302.7949 L420.3805 303.3459 L420.2796 303.892 L420.4953 305.2866 L420.545 306.3051 L420.6196 306.8024 L420.6208 307.2185 L420.3854 307.724 L419.9835 307.8489 L418.8364 307.9327 L417.4879 308.0758 L416.4967 308.3207 L415.701 308.2351 L414.9357 307.9014 L414.2726 307.7484 L414.072 307.7227 L413.894 307.7452 L413.5951 307.9702 L412.8343 308.1632 L412.3889 308.1239 L411.7266 308.0208 L411.5896 308.1007 L411.0121 308.355 L410.5462 308.5106 L409.9872 308.7349 L408.8971 308.913 L408.4497 308.0526 L407.3633 306.9723 L407.3637 306.9673 L404.1783 303.3609 L403.2682 302.2113 L402.9143 301.5277 L402.7293 300.8229 L402.6506 300.0469 L402.0637 299.489 L402.295 299.9582 L402.3787 300.6186 L402.4443 301.8945 L402.9004 302.9292 L402.8024 303.3634 L402.2294 303.8202 L401.7217 304.0382 L402.0629 304.32 L401.323 304.8699 L401.0438 304.9505 L400.7805 305.1029 L400.3584 305.4284 L399.4677 305.7515 L398.7163 306.1563 L398.3181 306.3963 L397.6238 306.7106 L397.3412 306.798 L396.7309 307.1073 L396.0165 307.5328 L394.9412 308.0939 L392.9423 308.7049 L391.9973 309.9252 L393.0653 312.2369 L394.1542 314.0238 L395.4583 315.9782 L395.3718 316.4867 L394.3859 317.9 L391.547 321.5675 L389.6248 323.1344 L389.1921 323.4031 L388.7332 323.4612 L388.3674 323.2519 L386.3164 321.1582 L383.288 318.9159 L379.6634 317.1796 L379.3726 316.9335 L379.1401 316.7023 L379.0006 316.1369 L378.6303 315.0853 L378.1648 313.8589 L377.7034 312.3544 L377.3987 311.8214 L377.0189 310.295 L376.0613 305.6259 L376.6461 305.6515 L377.322 305.3753 L377.8298 305.2872 L377.8072 305.1192 L377.6858 304.9948 L377.5336 304.9161 L377.2642 305.0042 L376.7872 305.0773 L376.3685 304.9992 L376.0277 305.1823 L375.8116 303.4109 L375.4699 301.4421 L375.3567 301.1735 L375.2144 300.5399 L375.0967 299.6133 M376.2959 296.2217 L378.3301 290.7195 L380.6313 289.3523 L384.4659 289.2523 L384.7993 287.1516 L382.3316 286.2512 L383.6325 281.5823 L384.7661 279.8821 L390.9019 280.082 L394.0697 281.2824 L396.4373 286.2512 L393.5029 290.1527 L393.5697 293.1538 L392.569 295.0214 L391.1685 298.0225 L388.4342 301.0235 L386.0998 301.4902 L384.1657 300.4231 L376.2959 296.2217 M378.9289 164.8965 L379.7446 162.3149 L382.2754 163.5844 L381.4011 166.7124 L378.9289 164.8965 M381.6689 168.2001 L381.7173 167.9094 L381.9925 167.6181 L382.1881 167.5931 L382.6421 167.5925 L383.3094 167.7069 L390.6587 168.1382 L391.0397 168.232 L391.2665 168.3301 L391.5085 168.5426 L391.9416 169.1108 L392.396 168.8564 L392.804 168.7189 L393.2544 168.4626 L394.0401 168.3914 L401.9797 169.0039 L402.5038 169.1077 L402.7839 169.3002 L402.8717 169.7728 L402.6071 170.1485 L402.2827 170.5023 L402.0461 170.8742 L401.6626 171.2074 L401.0864 171.3661 L400.4962 171.413 L399.8396 171.3824 L399.0325 171.2861 L398.3062 171.1505 L397.5163 170.9661 L395.8984 170.5173 L395.2098 170.2347 L394.4864 169.9003 L393.8642 169.694 L393.5012 169.7403 L393.1555 169.9266 L393.0025 170.2879 L392.948 170.978 L392.6708 172.1518 L392.2057 173.8621 L391.9362 175.3197 L391.7722 175.5973 L391.4584 175.8079 L391.0918 175.8254 L390.1096 175.7979 L389.1097 175.6641 L388.732 175.4916 L388.6274 175.2891 L388.5901 174.9941 L388.6487 174.2102 L388.9145 171.9781 L389.2188 170.3185 L389.3902 169.7078 L389.4886 169.5478 L389.6391 169.489 L390.2314 169.3909 L390.2215 169.3127 L389.8143 169.3077 L389.3299 169.4096 L389.1864 169.9716 L388.969 170.2204 L381.9773 168.8445 L381.8059 168.6101 L381.7288 168.4489 L381.6689 168.2001 M382.4756 319.1215 L382.8496 319.0502 L384.1915 320.4029 L386.4136 322.3116 L389.5157 325.3261 L390.7863 326.5856 L392.1839 328.3781 L392.1392 328.548 L391.992 328.5237 L390.0218 326.0683 L382.4756 319.1215 M382.6126 260.2327 L382.6265 258.9573 L382.8131 256.1915 L382.7664 255.5784 L382.8004 255.176 L383.7625 252.9488 L384.1181 251.7377 L385.3661 248.1944 L385.4805 247.8538 L385.7143 247.6488 L386.0252 247.5582 L389.5038 247.2945 L396.5374 265.0144 L396.3536 265.0956 L396.0723 265.1481 L395.8705 265.3837 L395.8086 265.6974 L396.9417 268.2719 L397.0266 268.5544 L397.2694 268.65 L397.8739 268.3807 L398.5806 270.1616 L398.4059 270.3778 L398.1963 270.5565 L397.7493 270.3447 L396.5452 269.438 L394.1816 267.4665 L393.1662 266.6872 L392.6359 266.2461 L392.5018 266.0673 L392.6203 265.8693 L393.2371 265.1756 L393.539 264.5189 L393.0735 263.994 L391.8308 263.1247 L388.9145 261.1594 L388.88 261.2132 L389.0244 260.5077 L388.9333 260.2346 L388.6819 259.8115 L387.9696 259.2685 L387.7378 259.2779 L387.6964 259.3966 L387.908 259.9446 L388.5765 261.3894 L388.6385 261.5887 L386.8278 264.2608 L390.8888 267.6152 L391.1677 267.6014 L391.369 267.4365 L391.9157 266.6947 L392.1425 266.5254 L392.3086 266.5579 L392.7085 266.9072 L393.4713 267.4815 L394.2382 268.0001 L398.1754 271.0545 L396.2761 273.6359 L395.7754 274.1864 L394.8669 275.6674 L394.3494 276.0841 L393.9774 276.2972 L393.8581 276.3603 L393.2236 277.5388 L392.6125 277.9819 L391.8325 277.6169 L391.2189 277.2933 L390.55 276.7365 L390.0185 275.6449 L389.6314 275.0956 L389.4448 274.2789 L389.3927 273.9502 L389.2434 273.6703 L389.0547 273.4953 L388.7389 273.4978 L388.5925 273.7634 L388.6311 274.1608 L389.0387 275.0887 L389.3726 276.0948 L389.5883 276.5215 L389.6121 277.1295 L389.4968 277.4276 L389.0732 277.82 L388.9407 278.0531 L388.7984 278.1656 L388.3268 277.9887 L387.6935 277.4464 L387.235 276.7559 L386.4197 274.9194 L385.8714 273.316 L385.152 271.7875 L383.8655 268.445 L383.9483 268.022 L384.6316 267.7083 L385.0639 267.6383 L385.346 267.5033 L385.3103 267.1184 L384.7612 265.733 L383.6452 263.3928 L382.7975 261.3731 L382.6126 260.2327 M386.8663 167.4862 L387.7829 164.7702 L389.7925 165.1153 L389.8684 164.7452 L392.4329 165.174 L391.8275 167.8982 L386.8663 167.4862 M389.3734 324.1034 L389.4115 323.956 L389.5813 323.7354 L390.445 323.0851 L391.6557 322.076 L392.3414 321.3825 L393.0386 320.4522 L394.5897 318.531 L395.8086 317.2721 L396.263 316.9816 L396.7961 316.7779 L398.8037 316.353 L400.502 315.5821 L401.2238 315.2184 L402.1646 314.8892 L404.0585 314.906 L405.1257 314.8136 L405.7003 314.8923 L406.1711 315.0872 L406.1653 315.354 L405.9303 315.6845 L405.9558 315.8851 L406.1674 316.0844 L407.0717 316.2699 L407.8066 316.2781 L408.325 316.3143 L408.8397 316.1862 L409.014 316.0906 L409.1777 315.8663 L409.1896 315.6495 L409.1104 315.2803 L409.2072 314.6617 L409.0017 313.9095 L409.0001 312.8717 L409.1863 312.1776 L409.1465 311.6415 L409.313 310.9954 L409.208 310.2557 L409.1945 310.0139 L409.3339 309.8202 L411.0872 309.5747 L411.3132 309.7102 L411.5793 310.3844 L411.7389 311.4684 L411.8311 311.842 L411.9911 312.2575 L412.6456 313.1029 L412.7904 313.9345 L412.7527 314.3975 L412.505 314.7898 L412.151 315.1191 L411.0503 315.5371 L410.6557 315.5877 L410.4704 315.5489 L409.961 315.2284 L409.6608 315.131 L409.4898 315.1634 L409.4734 315.3015 L409.7444 315.7033 L410.3022 316.3256 L411.6761 317.7463 L412.2925 318.1512 L412.3528 318.6266 L412.4959 318.8647 L412.2642 319.064 L412.2503 319.3789 L411.5998 319.3764 L411.3123 320.0105 L410.6943 320.4872 L410.552 320.704 L410.5142 320.8509 L410.5676 321.4981 L410.6799 321.9392 L411.1142 322.4672 L411.6728 323.533 L411.9136 323.8723 L412.0395 324.1978 L412.1482 324.6101 L412.1424 325.2368 L411.8344 325.9296 L411.5777 326.1333 L411.2336 326.3189 L411.0322 326.515 L410.8813 326.5282 L410.7 326.6138 L410.472 326.5975 L410.3875 326.3307 L410.0779 325.8971 L409.774 325.2818 L408.0088 322.7196 L406.8055 321.252 L406.5545 320.6678 L406.2687 320.4154 L406.0858 320.7559 L406.726 321.7105 L407.134 322.6615 L408.0765 323.906 L409.6682 326.0883 L410.2001 326.8587 L410.3506 327.2866 L410.3235 327.5222 L410.1825 327.8802 L409.904 328.0007 L409.6567 328.0095 L409.4918 327.4185 L409.046 326.8862 L406.3154 322.4515 L405.74 321.6999 L405.3672 321.435 L404.1992 320.0193 L403.9482 319.8237 L403.4475 319.4945 L400.8674 318.4811 L398.8898 317.1859 L398.7463 317.1165 L398.6975 317.2552 L398.8057 317.4402 L399.4377 317.83 L399.4714 317.8819 L400.0201 318.248 L400.5688 318.8035 L402.9873 319.9212 L404.702 321.4244 L406.7251 324.384 L408.5613 326.9368 L409.1391 327.8883 L409.3269 328.4362 L408.9648 329.9912 L408.7671 330.2155 L408.7114 330.5366 L408.7142 330.9152 L408.679 331.3051 L408.4415 331.5731 L408.2639 331.7318 L407.8444 331.6718 L407.5278 331.3682 L407.2583 330.5779 L405.8557 326.8605 L404.6278 325.1968 L403.6029 324.2465 L400.2063 322.1323 L400.1001 321.8286 L400.1087 321.5837 L400.0455 321.4394 L398.969 320.5622 L397.6713 320.0361 L397.0841 319.8562 L397.064 320.0568 L397.1817 320.2292 L397.7001 320.8427 L398.5445 321.7605 L399.1359 322.2853 L399.3114 322.4672 L400.0787 322.9076 L403.0234 325.2511 L403.4631 325.6935 L403.55 326.0221 L403.5024 326.2264 L402.6609 327.0755 L402.4763 327.0873 L401.7894 326.6669 L399.1371 324.2459 L397.9937 323.0263 L397.6467 322.877 L396.7412 321.7462 L396.4816 321.4788 L396.4881 321.2176 L396.3881 320.9639 L396.2019 320.9202 L396.0284 321.0214 L395.9743 321.0845 L395.9775 321.1976 L396.0485 321.4038 L396.2929 321.6843 L396.5058 321.8043 L397.0976 322.5109 L397.3625 322.862 L397.4622 323.1607 L397.6086 323.4256 L398.1643 324.1134 L398.8447 324.8938 L399.0846 325.1406 L400.8211 326.6806 L401.3025 327.0049 L401.4436 327.3154 L401.3472 327.5372 L401.1766 327.6609 L400.8395 327.6752 L400.6086 327.5459 L400.0972 327.073 L399.7137 326.765 L399.5903 326.5938 L399.5542 326.4851 L399.6379 326.2539 L399.6682 326.0915 L399.3422 325.7478 L399.167 325.6566 L399.067 325.6691 L398.8353 325.9821 L398.711 325.9809 L398.5043 325.7297 L397.575 325.0775 L396.7277 324.319 L395.8799 323.1075 L395.7352 322.8539 L395.6445 322.8089 L395.4813 323.1238 L395.5153 323.2612 L395.6388 323.4324 L396.3286 324.1547 L396.6493 324.6801 L397.1107 325.0687 L397.5664 325.5035 L397.6082 325.9228 L397.5692 326.1939 L397.1714 326.5806 L397.0357 326.6263 L396.8269 326.5388 L395.8693 325.521 L395.7475 325.4517 L395.6142 325.5142 L395.6609 325.661 L395.8279 325.8659 L395.978 326.1583 L396.3372 327.0361 L396.6604 327.3572 L398.0413 328.32 L399.3774 329.4639 L400.5077 330.5435 L400.931 330.909 L401.2369 331.1933 L401.8923 331.6243 L403.2133 332.9176 L402.6793 333.3818 L402.3401 333.7366 L402.2093 333.6848 L401.9128 333.4105 L400.0021 331.5025 L398.2878 329.7326 L397.5885 329.1141 L396.9192 328.6436 L396.427 328.1913 L395.1069 327.0848 L394.9002 326.8793 L394.8108 326.9755 L394.835 327.0342 L395.5641 327.5759 L397.2473 329.2309 L397.3519 329.3871 L397.5864 329.6351 L398.0831 329.9906 L398.4727 330.3036 L398.8804 330.5804 L399.4529 331.1758 L400.3088 332.0073 L402.0457 333.8647 L401.638 334.2558 L401.1492 334.5451 L400.8592 334.3495 L399.9003 333.5086 L398.3694 331.8518 L397.3834 331.3426 L397.0316 330.9627 L396.9766 330.794 L397.0004 330.6272 L396.9134 330.5192 L396.8154 330.5035 L396.6501 330.581 L396.5439 330.7247 L396.5246 330.7953 L396.5964 330.9165 L396.7125 330.9409 L396.8023 330.9352 L397.153 331.2982 L397.349 331.6868 L397.5528 331.7799 L397.5245 332.0042 L396.8187 332.7627 L396.6005 332.8239 L396.3877 332.7039 L395.3279 331.7343 L393.8191 330.4311 L393.2359 329.8825 L392.6872 329.2503 L392.5592 329.0853 L392.4489 328.3462 L392.1573 327.8733 L391.9358 327.4597 L391.529 326.4757 L391.2247 325.8116 L391.985 324.6788 L391.7254 324.4571 L391.5433 324.537 L391.2554 324.8507 L390.8613 325.0825 L390.2441 324.9794 L389.4575 324.3202 L389.3734 324.1034 M389.5223 247.0152 L391.0561 245.7684 L400.5081 245.516 L411.7795 243.4437 L408.0392 249.9636 L405.1581 253.1481 L402.9849 257.4444 L401.4178 261.4881 L399.6994 264.6213 L399.0928 267.7045 L398.4202 269.2961 L389.5223 247.0152 M393.5213 310.813 L393.653 309.559 L394.1591 308.8767 L395.5231 308.3051 L396.8872 307.6228 L399.4615 307.7327 L401.5072 307.9527 L403.4873 307.0067 L404.6754 306.2151 L405.9734 308.4481 L406.4245 310.1089 L406.9856 312.32 L408.3935 315.0591 L407.8657 314.9491 L406.0616 314.5749 L403.6415 314.3331 L401.7053 314.663 L399.9893 315.5652 L397.9433 315.7851 L396.249 315.0591 L395.2151 314.2231 L394.335 312.5293 L393.5213 310.813 M393.596 279.5496 L400.0131 269.5792 L400.511 266.0555 L403.4606 260.1565 L405.8737 254.0274 L409.3598 250.0817 L413.6882 242.9956 L416.9055 242.5357 L417.7869 244.183 L418.6678 245.7534 L421.2725 248.5112 L412.8835 249.9286 L412.7305 250.6566 L422.8814 249.1243 L424.1072 252.5332 L424.2988 257.36 L423.1496 257.6281 L413.4581 258.5855 L413.1517 259.5816 L418.0166 258.6242 L421.5169 258.4949 L424.115 258.5236 L425.0444 258.7267 L425.5086 260.2946 L425.8281 262.5155 L425.9294 268.5681 L426.3071 270.6727 L426.641 273.7065 L426.757 275.5205 L427.1052 276.6965 L426.6849 277.9656 L419.3367 278.1856 L405.5645 278.8898 L403.0123 279.6377 L397.0722 283.5537 L395.268 281.5298 L393.596 279.5496 M425.9253 262.5698 L432.0796 262.328 L431.5206 263.5653 L431.8401 265.0263 L432.6168 265.8943 L433.2902 266.4423 L432.2969 267.3215 L431.4062 268.395 L431.3377 269.343 L431.9496 273.9833 L428.7137 277.5076 L426.9297 275.4393 L426.4507 270.6902 L426.1082 268.5431 L425.9253 262.5698 M431.9561 263.7409 L431.9856 263.1703 L432.112 262.741 L432.2617 262.4049 L432.4757 262.0887 L433.0138 262.0093 L433.7787 261.9855 L435.557 262.1561 L436.6278 262.1843 L438.4824 261.8906 L441.151 261.978 L443.3349 262.1193 L443.5904 262.493 L443.6942 263.7559 L443.7343 264.7501 L443.7077 265.4362 L443.768 266.3067 L443.8361 266.8478 L443.8549 267.5758 L443.8738 268.3157 L443.6585 268.615 L443.3255 268.9287 L441.7801 269.6636 L439.9576 270.1216 L438.8117 270.2159 L437.6039 269.5542 L437.4136 269.1193 L437.4989 268.4969 L437.569 267.8027 L437.5998 267.3284 L437.6601 266.8222 L437.6691 266.5379 L437.6117 266.1261 L437.4944 265.7786 L437.4132 265.9874 L437.3143 266.3679 L437.3517 266.8122 L437.197 267.1815 L437.1113 267.7983 L437.1109 268.1551 L437.0785 268.6125 L437.0957 268.8368 L437.0166 269.0168 L436.8726 269.063 L436.6056 268.9843 L436.2858 268.685 L436.0799 268.3088 L435.8769 267.8645 L435.3798 267.6839 L435.078 267.5752 L432.7624 265.4737 L432.2395 264.9569 L432.0066 264.4539 L431.9561 263.7409 M432.6484 270.2603 L432.8166 269.8416 L432.8678 269.7279 L433.2697 269.5386 L433.8972 269.3411 L434.334 269.433 L434.2462 270.2459 L434.1745 271.0714 L433.7623 271.1164 L433.1902 270.9389 L432.8071 270.7446 L432.6943 270.4965 L432.6484 270.2603 M442.2386 184.8256 L442.294 184.6125 L442.4548 184.42 L442.887 183.9868 L443.1298 183.9006 L443.4559 183.9831 L443.7614 184.1781 L443.8988 184.45 L443.8344 184.8638 L443.6519 185.2107 L443.4387 185.4232 L443.1983 185.5295 L442.8694 185.4751 L442.5507 185.2888 L442.3453 185.0738 L442.2386 184.8256 M448.9835 284.9272 L449.976 278.6867 L450.3721 278.4655 L451.2067 278.3593 L454.2068 279.0591 L455.3272 279.2016 L457.6653 279.3597 L460.6223 279.4959 L460.9426 279.569 L460.9983 279.7896 L460.7162 282.9251 L460.354 286.3268 L460.0403 287.8708 L458.7234 292.2184 L458.5565 292.2397 L457.3413 291.5692 L457.2642 291.4087 L458.2391 288.3838 L458.951 285.9619 L459.2119 284.2223 L459.5523 280.4251 L459.524 280.2014 L459.3152 280.1139 L459.1516 280.1633 L459.0269 280.2926 L458.9473 280.5588 L458.844 281.0837 L458.5036 284.8809 L458.3137 285.6157 L457.8556 287.8071 L456.5826 291.3812 L455.9891 292.0541 L455.6762 292.2641 L455.4088 292.3834 L455.2173 292.2084 L455.2234 291.8098 L456.0359 289.2892 L456.3861 288.9318 L456.407 288.8724 L456.7803 287.574 L457.4623 284.2454 L457.7047 280.1195 L457.5997 279.9621 L457.4328 279.9833 L457.3393 280.1376 L456.9107 285.0265 L456.4345 286.8498 L456.1138 288.3407 L454.5791 291.408 L454.4044 292.9376 L454.1342 293.4812 L453.8282 293.52 L453.5009 293.3906 L453.2778 293.1913 L453.2171 292.4884 L454.8703 287.6715 L455.4187 285.2983 L455.9494 282.7852 L456.1663 280.0277 L456.0162 279.734 L455.8739 279.7234 L455.7381 279.769 L455.6204 279.9546 L455.5343 280.392 L455.1861 283.9061 L454.9253 285.6451 L454.5148 287.3184 L453.9135 289.2717 L452.8242 292.5096 L452.7037 293.1226 L452.5581 293.3113 L452.0922 293.4275 L451.9527 293.2176 L451.9203 292.7383 L452.0914 291.4087 L453.0613 287.674 L453.8282 285.0171 L454.4631 280.6419 L454.5312 279.8371 L454.4856 279.7009 L454.2597 279.7009 L454.1067 279.834 L454.1284 280.2295 L453.4448 284.4398 L452.4748 288.1751 L452.2497 288.63 L452.1037 288.8193 L451.8047 288.9137 L451.5475 288.8899 L451.3273 288.4913 L451.4093 287.7983 L451.9749 285.3377 L452.5326 284.1573 L452.5995 282.6702 L452.9325 280.6088 L452.983 279.664 L452.9161 279.3597 L452.7143 279.3284 L452.4916 279.3566 L452.3497 279.574 L451.2502 284.7472 L451.0074 286.8542 L450.8003 287.6765 L450.5719 288.1039 L450.3283 288.1914 L450.0674 288.1395 L449.7992 288.0314 L449.7328 287.7271 L450.8208 283.5843 L451.4495 279.6084 L451.2711 279.091 L451.062 279.0035 L450.8778 279.1122 L450.7396 279.5853 L449.9214 284.2961 L449.971 284.9153 L449.9095 285.3214 L449.7254 285.4302 L449.1266 285.1646 L448.9835 284.9272 M457.5554 241.637 L457.5763 241.5858 L457.6046 241.5176 L458.5918 241.1827 L458.814 241.4127 L458.8423 241.8932 L458.7931 241.9645 L458.5975 242.2469 L458.1997 242.2813 L457.5554 241.637 M482.1749 353.7312 L482.2401 353.4813 L482.4414 353.2945 L482.756 353.2383 L482.9028 353.3814 L483.0439 353.7343 L482.9631 354.1154 L482.8093 354.2959 L482.6412 354.3659 L482.3619 354.3209 L482.2233 354.1123 L482.1749 353.7312" stroke-dasharray="" fill="none" fill-opacity="1.0" stroke="#ff0000" stroke-opacity="1.0" stroke-width="1.0px" stroke-linecap="butt" stroke-linejoin="miter" stroke-dashoffset="0.0px"/>
</g>
</svg>