<?xml version="1.0" standalone="no"?>
<!DOCTYPE svg PUBLIC "-//W3C//DTD SVG 1.1//EN" "http://www.w3.org/Graphics/SVG/1.1/DTD/svg11.dtd">
<svg width="300px" height="300px" version="1.1" xmlns="http://www.w3.org/2000/svg" xmlns:inkscape="http://www.inkscape.org/namespaces/inkscape">
<rect x="0" y="0" width="300px" height="300px" fill="#000000"/>
<g id="frame" inkscape:groupmode="layer" inkscape:label="frame">
<path d="M40.0 300.0 L260.0 300.0 L260.0 0.0 L40.0 0.0 L40.0 300.0" stroke-dasharray="" fill="#808080" fill-opacity="1.0" stroke="none" stroke-opacity="1.0" stroke-width="0.0px" stroke-linecap="butt" stroke-linejoin="miter" stroke-dashoffset="0.0px"/>
</g>
<g id="bug" inkscape:groupmode="layer" inkscape:label="bug">
<path d="M250.0 190.0 L50.0 190.0 L50.0 290.0 L250.0 290.0 L250.0 190.0 M70.0 210.0 L130.0 210.0 L130.0 270.0 L70.0 270.0 L70.0 210.0 M170.0 210.0 L230.0 210.0 L230.0 270.0 L170.0 270.0 L170.0 210.0" stroke-dasharray="" fill="#800000" fill-opacity="1.0" stroke="#ff0000" stroke-opacity="1.0" stroke-width="2.0px" stroke-linecap="butt" stroke-linejoin="miter" stroke-dashoffset="0.0px"/>
<path d="M50.0 10.0 L50.0 110.0 L250.0 110.0 L250.0 10.0 L50.0 10.0 M70.0 30.0 L130.0 30.0 L130.0 90.0 L70.0 90.0 L70.0 30.0 M230.0 90.0 L170.0 90.0 L170.0 30.0 L230.0 30.0 L230.0 90.0" stroke-dasharray="" fill="#800000" fill-opacity="1.0" stroke="#ff0000" stroke-opacity="1.0" stroke-width="2.0px" stroke-linecap="butt" stroke-linejoin="miter" stroke-dashoffset="0.0px"/>
</g>
</svg>