<?xml version="1.0" standalone="no"?>
<!DOCTYPE svg PUBLIC "-//W3C//DTD SVG 1.1//EN" "http://www.w3.org/Graphics/SVG/1.1/DTD/svg11.dtd">
<svg width="512px" height="512px" version="1.1" xmlns="http://www.w3.org/2000/svg" xmlns:inkscape="http://www.inkscape.org/namespaces/inkscape">
<g id="layer" inkscape:groupmode="layer" inkscape:label="layer">
<path d="M0.0 214.1806 L0.9579 214.6017 L2.3749 215.2254 L7.1728 218.4338 L11.8401 224.0008 L12.6856 225.6841 L13.8335 225.1459 L14.1205 227.7489 L16.1214 226.7775 L14.8735 230.2416 L15.0364 232.0794 L15.8097 237.2346 L23.3365 247.7558 L25.0542 249.7465 L28.8613 252.9418 L30.9179 253.9273 L34.9239 255.0797 L35.0659 255.5007 L32.1246 254.7605 L28.8104 253.6219 L26.4819 251.8369 L24.1379 249.6357 L23.032 249.0495 L22.0459 247.4861 L21.6043 247.656 L23.3378 249.9333 L24.2723 254.3695 L25.4622 255.44 L26.3004 259.8276 L25.7 260.3352 L26.7218 262.3865 L27.4508 266.1308 L27.9051 269.7379 L30.6959 270.4359 L31.3269 269.5818 L30.8385 268.1172 L31.485 266.6236 L31.6496 266.2437 L31.4805 265.3421 L31.1447 265.0419 L30.9653 264.6963 L30.9798 264.395 L31.0647 264.1866 L31.2461 264.0932 L31.2131 263.8991 L32.0229 263.2301 L32.0435 263.17 L32.0816 262.875 L32.4879 262.4851 L32.8044 262.2646 L33.0519 262.2176 L33.3241 262.1301 L33.2966 261.8372 L33.7031 261.5254 L34.4019 261.2458 L34.4129 261.2548 L36.7049 259.3612 L38.9647 259.0842 L39.8785 258.1857 L38.4955 256.9738 L36.9603 256.605 L35.3996 255.5418 L35.4728 254.8454 L35.9203 253.7015 L37.9834 251.6517 L38.0628 251.5494 L39.4043 249.3112 L41.6699 247.5732 L43.1264 246.4303 L43.9777 245.6959 L44.6036 245.0738 L44.7318 244.6976 L44.7225 243.836 L44.5641 243.36 L44.2802 242.8145 L43.9736 241.5186 L43.7591 240.343 L43.7994 239.4001 L43.5481 237.022 L45.0109 236.6558 L46.1976 237.1017 L46.3925 237.3238 L46.5733 237.3032 L49.9723 242.9385 L48.3467 246.5422 L49.4912 249.7502 L52.0207 252.3514 L50.9725 252.7049 L51.6774 255.0016 L52.8621 255.6896 L53.026 255.7497 L53.2405 255.7476 L53.4017 255.6521 L53.4972 255.5028 L53.4842 255.2633 L53.3632 254.3199 L53.4828 253.6055 L53.7412 252.8774 L53.9825 251.4718 L53.9743 251.1526 L53.6646 250.5337 L53.1793 249.8589 L53.0903 249.6563 L53.6704 248.7176 L53.9681 248.3414 L54.1193 248.0797 L54.1585 247.8676 L54.109 247.6133 L54.0097 247.2724 L53.876 247.054 L53.8821 246.9089 L54.0605 246.8218 L54.3279 246.9374 L53.6773 246.157 L53.8217 246.0119 L53.7003 245.8842 L53.4343 245.5323 L53.5756 245.1619 L53.987 244.7847 L54.2451 244.8511 L54.8651 245.5123 L58.0958 247.9631 L59.5575 244.839 L62.7899 243.827 L62.6668 242.7823 L62.519 242.3734 L60.0493 241.9412 L60.8473 241.5286 L60.7181 241.507 L60.6875 241.1814 L60.8353 240.9171 L60.8841 240.7646 L61.3502 240.3625 L62.7613 239.302 L64.4475 238.9548 L64.7853 238.7564 L65.6738 237.8916 L66.2316 237.605 L66.4567 237.5417 L66.8158 237.5713 L67.2156 237.8077 L67.4905 238.0562 L67.5104 238.0826 L69.4251 237.0922 L69.763 237.328 L69.7894 237.2916 L69.8877 237.2193 L70.073 237.1808 L70.5865 237.1201 L70.9662 237.3702 L71.4127 237.7238 L72.1925 238.7991 L72.396 239.0418 L72.4008 239.1669 L73.1215 239.6692 L73.3669 239.3653 L74.0326 237.7924 L74.3406 237.3249 L74.8372 237.0019 L76.4006 234.294 L76.3807 234.1357 L76.5732 233.703 L76.6385 233.6133 L76.4793 233.2403 L76.4178 233.3015 L76.4154 233.3026 L76.4127 233.3026 L76.0126 233.1342 L75.8119 232.6752 L75.7452 232.0124 L75.8215 231.7497 L76.0549 231.441 L76.6821 230.9766 L77.3231 230.4511 L78.7869 229.1842 L81.1294 226.549 L81.3037 226.2656 L81.3085 226.2667 L81.6031 225.739 L82.1265 224.9322 L82.4348 224.5217 L83.2768 224.8335 L83.2517 224.9185 L85.1214 225.758 L85.9249 229.4675 L86.2673 229.2274 L86.5972 229.21 L87.9682 229.7831 L89.7017 230.6875 L90.3974 230.7603 L91.2167 230.7249 L94.1123 226.2698 L94.3398 226.2577 L94.4532 226.1527 L94.6605 226.0804 L95.0495 226.025 L96.0204 226.1701 L98.8586 226.0218 L98.8758 233.9685 L100.9483 237.5512 L99.522 238.2108 L97.3258 233.4619 L94.5797 234.8549 L89.7921 237.1871 L90.263 239.1711 L83.1727 244.3947 L82.0076 246.7849 L67.5709 249.4299 L67.6194 249.6563 L67.5421 249.8277 L67.4458 249.9449 L69.1674 251.6813 L66.9574 254.5779 L65.2301 256.2167 L65.2239 256.2736 L68.1363 258.5561 L65.7373 265.7842 L67.4352 272.6692 L68.9924 271.5117 L72.6974 270.3573 L74.8066 262.339 L75.6115 260.2507 L76.2625 259.9337 L76.5426 259.5664 L77.9438 259.6129 L77.9943 259.1243 L79.4234 258.7645 L80.0778 258.5941 L80.428 258.7782 L83.061 256.9041 L85.9308 254.351 L87.1368 252.8784 L86.8742 252.2105 L88.9216 251.113 L95.4283 248.581 L101.2751 245.7376 L100.0894 243.1242 L101.9484 241.5824 L104.2752 244.5161 L105.9283 243.1126 L105.2616 241.1023 L106.3029 240.7488 L101.4775 230.4015 L102.4983 229.4042 L101.4363 228.9768 L100.852 226.6234 L99.3879 218.9509 L98.9277 217.438 L98.9147 217.4365 L98.7648 217.3599 L98.7957 217.1811 L98.8408 217.152 L98.7689 216.9167 L97.9939 217.0418 L97.4182 215.8138 L97.1433 215.0054 L97.1618 214.8465 L97.9097 214.7669 L99.069 214.7104 L99.9732 214.8254 L100.4138 215.018 L101.0627 215.4391 L101.924 215.6012 L101.9302 215.5811 L102.145 215.3985 L102.3725 215.3093 L102.6791 215.3484 L103.1496 215.5093 L104.3632 216.0866 L105.1794 216.3816 L106.6999 216.7447 L106.8776 216.6819 L107.0016 216.5684 L107.3086 216.6075 L107.7595 216.7352 L108.7301 217.0497 L109.005 217.2956 L109.5508 217.4259 L109.9735 219.6053 L111.2101 219.8269 L111.1771 219.6675 L111.2307 219.5599 L111.4569 219.3335 L111.7569 219.086 L112.0367 218.9277 L112.2034 218.9119 L112.4134 218.9388 L112.535 219.123 L112.5859 219.2612 L112.7052 219.8264 L112.7687 220.0496 L112.8217 220.1155 L113.6641 220.6327 L113.6036 219.5863 L113.7328 219.0422 L113.7971 218.3604 L114.0645 218.1483 L114.424 217.2169 L114.8756 215.189 L115.1268 214.8096 L118.4156 215.4381 L118.6829 215.6866 L119.0424 218.7657 L118.9043 219.1989 L118.609 219.3836 L118.1482 219.3098 L117.6505 219.4295 L117.1649 220.0216 L115.1921 220.9656 L115.1034 221.2363 L114.4432 222.6658 L113.5046 224.1169 L113.6596 224.2504 L114.8237 222.46 L115.2849 221.8579 L116.0764 221.021 L116.5909 220.3725 L116.9483 220.3298 L117.0119 220.3936 L117.1339 220.5155 L117.1016 220.8912 L116.3899 222.1666 L116.3496 222.2152 L115.5605 223.3856 L115.5622 223.6093 L115.7887 223.3882 L116.2297 222.7344 L116.3541 222.621 L116.6875 222.5793 L116.7933 222.9508 L116.8006 223.3835 L116.6256 224.3628 L116.4758 224.6916 L116.3197 224.8013 L115.455 225.6182 L114.991 226.7796 L114.1583 227.7631 L114.1514 227.8924 L114.3233 227.9526 L114.5082 227.7394 L115.9685 225.7733 L116.3813 225.8023 L116.4304 225.967 L116.2946 226.3184 L115.6667 227.5837 L115.8506 227.6191 L116.7036 226.0139 L116.8672 225.9601 L117.1102 226.0387 L116.8404 227.1141 L115.7774 229.0765 L114.845 230.5914 L114.9151 230.7329 L115.0835 230.755 L117.6124 226.1764 L118.2358 225.1696 L118.396 225.0499 L118.6149 225.158 L118.6541 225.7311 L118.5747 226.1005 L118.3695 226.3485 L118.1358 226.3896 L117.945 226.5358 L117.9419 226.9078 L117.8437 227.2318 L117.7512 227.4645 L117.9883 227.6091 L118.4506 227.8275 L118.5235 228.1019 L118.6884 229.4116 L119.1727 229.7403 L119.3727 229.7218 L119.5277 229.8121 L119.7147 229.9203 L119.9309 230.6516 L119.9405 230.7144 L120.0144 231.1856 L119.89 233.4661 L119.3421 234.7795 L120.6004 234.4539 L122.0026 232.6388 L121.7614 227.7325 L120.0158 228.7509 L119.8236 226.8133 L120.8925 221.9746 L120.5007 214.4666 L121.5273 213.4825 L122.2766 212.0297 L122.8711 212.741 L123.5241 215.8159 L124.57 213.3257 L127.3728 212.7653 L125.4051 208.74 L126.8555 201.3942 L127.9588 207.2941 L128.8902 207.2941 L129.7872 206.3653 L128.4674 200.3915 L128.2887 199.3413 L129.1995 199.5049 L130.9832 206.397 L130.1893 206.8983 L131.5331 210.6714 L133.4818 217.3784 L133.011 217.8217 L131.1688 215.2624 L127.158 217.0829 L125.4636 222.5233 L124.0304 226.4704 L128.4537 228.1325 L129.0036 232.7496 L130.3818 232.6651 L133.6863 233.2028 L134.2565 232.3443 L134.4809 232.2683 L135.0319 232.1164 L135.5275 232.1232 L135.7832 232.1443 L136.4492 232.2177 L136.6029 232.3549 L137.1676 232.8741 L137.4456 232.7617 L137.4325 232.8604 L138.985 232.2383 L138.8839 231.2457 L138.7715 231.2742 L137.8969 230.8194 L137.2748 230.7819 L136.984 230.8168 L136.452 231.0289 L136.2667 231.0241 L135.8956 231.0663 L135.8454 230.9967 L135.7674 230.7978 L135.712 230.5149 L135.5512 229.8955 L135.5051 229.4554 L135.6027 229.0269 L135.8378 228.7425 L135.9863 228.6523 L135.921 228.1578 L135.7684 228.0249 L135.7141 227.8581 L135.0796 227.8988 L134.8439 228.0734 L134.8123 228.0829 L134.8123 228.0903 L134.5964 228.4254 L134.46 229.0528 L134.1647 230.0121 L133.8516 230.5081 L133.7588 230.7054 L133.5829 230.9603 L133.4196 231.0421 L132.9233 231.1223 L132.4631 231.0795 L131.8304 230.9719 L131.6469 230.784 L131.597 230.4553 L131.7596 230.059 L131.8249 229.7382 L131.939 229.3319 L131.8387 228.7747 L131.8235 228.695 L131.9469 228.0919 L132.1535 226.6862 L132.4319 225.6973 L132.5735 225.3791 L132.7735 224.7216 L132.8288 224.3971 L132.9017 224.2008 L132.8818 224.2014 L133.1086 223.575 L133.3127 223.2178 L133.9383 222.3297 L134.2211 221.7455 L134.3857 221.3535 L134.3716 221.3529 L134.4273 221.2543 L134.6071 220.8268 L134.7195 220.6174 L134.8583 220.2902 L135.0546 219.8279 L135.068 219.7187 L135.1003 219.4517 L135.0893 219.1288 L134.8353 218.5953 L134.5342 218.2232 L134.4552 218.0349 L134.4455 217.8312 L134.5308 217.6755 L134.6335 217.351 L134.8549 217.0882 L134.8776 217.0613 L135.2261 216.8681 L135.2707 216.8433 L135.5687 216.7774 L136.0598 216.6935 L136.706 216.6423 L137.4435 216.6491 L138.8839 216.8101 L139.1348 217.0534 L139.1902 217.0903 L139.2919 217.1578 L139.3259 217.2687 L139.3483 217.4576 L139.3108 217.7705 L139.2228 218.1504 L139.2685 218.2845 L139.3342 218.3599 L139.5916 218.4876 L139.9054 218.4391 L140.6237 218.448 L141.0097 218.3552 L141.6871 218.1293 L142.3184 218.0702 L142.0744 218.8702 L142.028 219.2364 L141.2042 219.371 L140.767 219.3736 L140.557 219.6696 L140.5635 220.0343 L140.7247 220.2712 L141.0468 220.8295 L141.2251 221.0464 L141.5128 221.2342 L141.8431 221.3804 L141.9703 221.5461 L142.0008 221.7973 L142.0105 221.878 L142.2686 222.1529 L142.3225 222.4278 L142.3026 222.6162 L142.0978 222.7196 L141.7225 222.8341 L141.7001 222.841 L141.1781 222.9365 L140.7783 223.0394 L140.5247 223.1249 L139.9745 223.3011 L139.5768 223.3386 L139.4823 223.2167 L139.4682 222.7698 L139.2737 222.4801 L138.6083 222.0289 L138.5664 221.8838 L138.7843 221.3735 L138.8406 221.2321 L138.852 220.9514 L138.609 220.7403 L138.5176 220.4981 L138.476 220.5672 L138.2577 220.4189 L138.2725 220.3899 L138.2151 220.3419 L137.8996 220.3715 L137.7236 220.4738 L137.6044 220.6707 L137.5418 220.9197 L137.5769 221.2453 L137.6384 221.439 L137.6363 221.439 L137.6931 221.6252 L137.7322 221.8405 L137.6786 221.9793 L137.5762 222.1556 L137.4459 222.1867 L137.2387 222.154 L136.9778 222.059 L136.7754 222.078 L136.7489 222.3044 L136.7369 222.3054 L136.8651 222.4795 L137.1084 222.6948 L137.1315 222.8405 L137.0517 223.6452 L137.1201 223.8378 L137.1432 223.8705 L137.3033 224.0209 L137.6264 224.0716 L138.0673 224.1111 L139.251 224.4198 L139.4087 224.3718 L139.4431 224.3612 L139.761 224.4499 L139.8988 224.5385 L140.0377 224.5201 L140.2608 224.2795 L140.3185 224.2172 L140.4814 224.0948 L140.5952 224.1064 L140.702 224.232 L140.9144 224.2742 L141.0674 224.2314 L141.1482 224.3085 L141.3107 224.3607 L141.4695 224.3802 L141.8575 224.6145 L141.9929 224.6188 L142.1301 224.5892 L142.3329 224.6488 L142.4456 224.8356 L142.3456 224.9069 L142.3665 225.0124 L142.6521 225.2894 L142.6525 225.2778 L142.892 225.1892 L142.9371 225.1702 L143.1759 225.3865 L143.3808 225.6482 L143.3433 225.9089 L143.2735 226.0123 L143.1721 226.1633 L142.8171 226.435 L142.1445 226.6598 L141.231 226.903 L139.5122 227.226 L139.1548 227.4165 L138.7007 227.6977 L138.2588 228.7156 L138.1698 229.4438 L137.7099 229.4058 L137.5123 229.4242 L137.4085 229.4865 L137.4219 229.5129 L137.4411 229.6369 L137.569 229.7503 L137.7453 229.8226 L137.9989 229.7841 L138.1591 229.9978 L138.2732 230.1936 L138.321 230.3962 L138.1838 230.4236 L138.0721 230.5672 L137.9783 230.7455 L138.7001 230.9972 L138.785 230.9096 L139.3414 230.774 L139.617 230.707 L140.0783 230.3065 L142.0397 229.8168 L142.36 229.1388 L140.546 229.3936 L139.8033 229.4395 L139.6751 229.2728 L139.815 229.0617 L141.7379 228.571 L142.4332 228.4343 L143.023 228.4887 L143.7189 228.4554 L144.0228 228.562 L144.0973 228.7705 L145.0085 228.8528 L145.7976 229.2501 L145.413 228.171 L144.6555 227.8143 L144.8414 226.816 L145.2436 225.8794 L145.5549 225.5195 L146.8582 225.4414 L149.1609 224.328 L147.8618 223.7687 L148.3189 222.8136 L158.0281 225.4256 L164.231 224.6546 L163.0896 226.2213 L158.3305 233.0609 L149.563 237.7623 L146.164 241.0601 L144.2427 242.1787 L137.369 240.9282 L132.9457 241.9518 L132.6364 242.3844 L134.726 242.3422 L141.2698 243.0387 L144.119 242.8593 L148.1298 244.6269 L153.3917 242.8751 L154.4778 245.0912 L155.8628 248.5525 L156.808 248.1884 L157.5813 247.397 L156.1619 247.3917 L155.2476 245.5503 L155.4642 243.4397 L157.6741 243.4397 L163.1662 246.2889 L162.5064 245.4817 L159.0042 242.8593 L158.9241 242.8445 L158.5364 242.509 L158.3546 242.3844 L147.714 242.089 L147.7209 239.8096 L152.0823 236.6437 L152.4232 236.5898 L152.5744 236.3482 L152.7298 236.2337 L153.1676 235.983 L153.3673 235.8833 L153.5608 235.8174 L153.8677 235.8981 L153.9488 235.9524 L154.0114 236.0136 L154.1097 236.2817 L154.1066 236.3239 L154.4537 236.269 L155.5625 235.7868 L155.3978 235.6453 L155.1961 235.4163 L156.3564 234.9647 L157.9985 234.4344 L158.8224 234.0951 L159.396 233.827 L160.2208 233.4973 L160.3061 233.4941 L160.4129 233.5221 L160.4999 233.6381 L162.936 232.5754 L164.3313 235.1346 L170.1981 236.8072 L170.3727 237.8662 L170.3885 237.8778 L170.4841 237.7797 L170.9522 237.1961 L171.3357 237.3317 L171.5983 237.3977 L171.7213 237.3861 L174.1677 236.0105 L175.6494 238.3105 L175.6779 238.2931 L176.5488 237.6446 L176.988 237.4605 L177.1819 237.5043 L177.3345 237.6615 L177.4077 237.7042 L178.8556 237.1397 L181.0896 238.8651 L183.8735 237.5829 L184.9045 235.9999 L183.7669 236.8706 L183.182 236.3007 L181.8784 235.6306 L181.4316 235.1198 L181.4055 234.8871 L181.346 234.6085 L181.3941 234.4085 L181.6887 233.9226 L181.888 233.8096 L181.9296 233.8123 L181.3817 231.1877 L184.4749 225.7211 L183.2342 229.7102 L186.3687 227.5204 L187.4499 225.5548 L187.3729 225.4287 L187.5678 225.1723 L187.6901 224.9559 L187.6379 224.7512 L187.5097 224.5486 L187.4214 224.3138 L187.4867 224.0657 L188.7707 222.3281 L188.9776 222.1904 L189.1842 222.2141 L189.4708 222.4389 L191.0146 223.4014 L191.1404 223.375 L191.4099 223.3597 L191.6501 223.2848 L191.744 223.0183 L192.0608 222.746 L192.3825 222.6774 L192.6582 222.6806 L192.7001 222.7075 L193.404 222.2753 L195.7754 225.6261 L185.4373 230.2432 L187.1076 231.9423 L186.5061 233.0873 L188.1009 232.3169 L183.9938 239.2133 L186.3329 238.1332 L187.3533 237.2774 L188.2029 236.6025 L189.0326 236.0195 L189.7643 235.4554 L190.1919 235.0924 L190.3482 235.0971 L190.8187 235.2475 L191.5405 235.2417 L192.553 235.1947 L192.7767 235.1583 L193.2734 234.9288 L199.0686 233.8724 L199.1006 233.8107 L199.5972 233.0556 L199.4013 230.5651 L197.8166 230.8975 L197.7716 230.9138 L197.5891 230.945 L197.1577 230.7518 L197.1698 230.5218 L197.2162 230.326 L197.3887 230.068 L197.5152 229.9614 L197.8764 229.9588 L198.1775 229.8311 L198.2149 229.734 L198.1861 229.619 L198.1957 229.525 L198.4809 229.334 L199.5251 229.1773 L201.4752 228.4449 L201.9175 227.9346 L201.9312 227.7019 L201.9536 227.322 L202.774 227.6207 L203.2919 227.5626 L203.2678 227.5442 L202.3794 227.3189 L200.9187 226.531 L199.8062 225.6055 L199.1979 225.043 L198.6201 224.2963 L198.3008 223.7011 L198.061 223.5154 L197.9788 223.1592 L197.5526 222.4753 L196.7824 220.8363 L196.7907 220.6717 L200.5183 218.4006 L200.7744 218.4443 L201.5009 218.5304 L201.757 218.5874 L202.045 218.8021 L202.221 218.8121 L202.6165 218.6549 L202.7255 218.5742 L202.788 218.4961 L202.7623 218.4312 L202.6733 218.2903 L202.5667 218.0037 L202.6908 217.7826 L202.8135 217.6829 L202.9152 217.5921 L203.2372 217.5578 L203.7304 217.4576 L203.914 217.6491 L203.914 217.8016 L203.8597 218.0876 L204.0886 218.9726 L204.1659 219.7762 L203.9538 219.9055 L203.4204 220.0332 L203.1664 220.057 L202.9513 220.1314 L202.7698 220.305 L202.7568 220.448 L202.7351 220.6833 L202.71 220.7641 L202.4767 221.4959 L202.5447 222.002 L202.8503 222.6769 L203.1599 222.9998 L203.4335 222.9502 L203.6923 222.9824 L207.6131 224.6715 L207.7007 224.709 L207.9338 224.7106 L208.4768 224.5903 L210.0942 224.1718 L211.7363 223.7571 L212.853 223.6389 L213.0393 223.7085 L213.1283 223.833 L213.085 223.9576 L212.865 224.6019 L212.2879 225.4382 L211.8803 225.9707 L211.4803 226.7569 L211.4713 226.912 L211.4129 227.035 L211.2091 227.1009 L211.128 227.4835 L211.1823 227.6613 L211.5116 227.846 L212.5234 228.5019 L213.6345 229.4237 L215.2471 230.4279 L216.3411 230.8579 L216.4631 230.9708 L216.483 231.4378 L216.4686 231.5328 L216.0235 231.8045 L214.3381 231.709 L214.0696 231.8647 L213.8177 231.8768 L213.3204 232.0905 L213.0434 233.0751 L212.9922 233.339 L213.1008 233.4445 L213.3176 233.5184 L213.4101 233.5094 L213.4857 233.5727 L213.5235 233.6593 L213.4905 233.8117 L212.776 234.4856 L212.7127 234.4893 L212.5632 234.4328 L212.4392 234.3505 L212.2058 234.3489 L212.1092 234.5156 L212.0742 234.8053 L212.1336 235.0845 L212.0487 235.419 L211.5841 236.1656 L211.1971 236.7882 L210.0839 237.8536 L209.5525 238.2424 L207.9956 238.9627 L207.2629 239.8861 L206.8993 240.2074 L206.3641 240.468 L205.8469 240.6522 L205.3162 240.8944 L203.8933 241.9676 L203.0341 241.9359 L200.8276 246.8271 L195.8545 250.2989 L194.2701 246.0832 L198.4115 241.1234 L200.3451 240.3377 L201.2225 239.617 L202.2656 238.4187 L202.4131 238.1918 L202.6148 237.4404 L199.0473 237.8942 L194.3285 242.9068 L192.0316 244.848 L191.8065 245.1049 L191.3116 245.4563 L190.8435 245.8563 L192.0361 249.4969 L187.9977 249.7818 L190.9638 252.2564 L191.5549 254.7837 L187.1935 256.6989 L184.0632 251.9303 L184.0374 251.9129 L182.7417 252.1709 L182.4681 252.3445 L182.0145 252.3202 L181.104 251.7995 L180.8789 252.0643 L180.4421 252.402 L179.1952 253.4272 L178.5735 254.1933 L177.8318 255.2754 L178.4559 258.2184 L178.7731 259.089 L180.8958 261.4247 L181.7502 264.1492 L181.2099 267.1454 L181.9261 269.1565 L181.2996 269.3491 L180.1994 268.6754 L178.2851 265.705 L177.7283 264.7348 L178.659 263.4865 L177.5823 262.5189 L175.462 262.903 L173.6553 264.1328 L172.4053 263.6891 L171.9251 263.1077 L173.5958 261.6225 L176.1233 261.8747 L175.5322 260.065 L178.4556 258.2184 L177.8294 255.2754 L177.362 255.3978 L177.1461 255.3788 L176.5429 255.4659 L176.3178 255.6199 L176.1013 256.0019 L175.7284 256.3897 L175.6274 256.4826 L175.4589 256.4704 L175.3985 256.4414 L175.1898 256.4172 L174.9386 256.4003 L174.475 256.3296 L174.0488 256.3723 L173.7223 256.4066 L173.4439 256.4293 L173.1146 256.453 L172.784 256.4762 L172.662 256.3876 L172.6386 256.2014 L172.6593 255.9497 L172.6232 255.6147 L172.7359 255.3503 L172.9758 255.1076 L173.2703 254.8581 L173.5965 254.5404 L174.3213 253.8862 L173.0937 253.5406 L170.0881 255.1488 L169.3547 255.8505 L164.563 255.583 L161.3275 255.4959 L160.7604 257.0999 L159.0409 257.8744 L159.0213 257.9261 L158.8296 258.1556 L158.5247 258.3065 L157.8418 258.5276 L157.3046 258.6563 L155.8044 259.3317 L150.115 259.2958 L149.55 259.4899 L149.0942 259.5944 L148.6787 259.7242 L148.3378 259.7891 L147.6954 259.9827 L147.039 260.0255 L146.2966 259.9616 L145.611 260.0497 L145.5288 260.083 L145.724 260.3236 L138.1838 263.9418 L136.1489 266.9607 L135.1556 265.7631 L135.1556 267.1454 L130.2787 272.0957 L129.5115 271.2479 L133.0935 265.0667 L135.0697 265.9319 L133.4097 263.6844 L127.1233 266.6568 L126.6892 265.8238 L126.3503 265.6713 L126.3207 265.6771 L124.1847 267.8397 L124.1249 268.3003 L123.574 268.8579 L123.3272 268.8046 L123.2616 268.7746 L123.2406 268.7957 L123.3626 269.4282 L123.9328 269.4652 L124.2057 270.3689 L123.7008 270.4792 L123.9452 271.6108 L124.2572 272.5246 L125.366 272.8596 L125.8427 273.623 L126.3802 273.4194 L126.9449 274.5041 L125.8385 275.1825 L124.6037 276.1269 L125.4464 277.1799 L124.3706 277.201 L122.4907 275.2754 L122.6006 277.201 L121.085 277.201 L113.2764 274.9747 L119.1122 270.2159 L112.8193 273.3392 L110.6093 275.5708 L110.3928 274.2519 L109.2965 275.3334 L106.3957 276.8528 L102.0309 278.1981 L98.8311 281.4901 L98.1231 282.8037 L98.6387 283.0622 L103.0379 281.6853 L106.6363 285.605 L104.8251 286.2065 L103.3706 285.4262 L103.3489 285.7295 L103.3338 285.7485 L103.7803 286.2592 L106.2961 288.8811 L105.7152 289.8623 L102.0271 288.4322 L101.6896 288.468 L101.6209 288.3868 L99.2917 289.9046 L93.064 293.5868 L90.8369 296.0187 L91.703 299.3263 L88.2421 300.4183 L86.8501 302.465 L84.8265 304.276 L89.4897 305.0288 L90.1324 306.4398 L85.2486 309.9652 L86.5559 308.331 L85.0702 305.513 L83.4703 307.5919 L82.5155 309.0705 L79.2979 308.9814 L78.8494 307.3319 L79.1103 305.7409 L77.9012 307.0449 L78.5253 309.2008 L77.9685 309.4287 L76.9852 307.7285 L75.0341 310.4779 L74.2127 309.9873 L74.821 310.7153 L76.0274 313.0732 L74.366 312.8327 L74.5547 311.5888 L73.3116 310.508 L73.27 310.5507 L72.9297 310.6288 L72.7225 310.3924 L72.5231 310.2484 L72.1743 310.2347 L71.7749 310.1793 L71.4505 309.9309 L71.1635 309.301 L71.0872 308.6754 L70.384 311.9691 L70.0146 311.8953 L68.4044 311.574 L67.9586 309.9224 L66.9798 306.9594 L66.3079 305.8242 L64.1529 307.6779 L65.0019 312.4085 L68.0761 312.7862 L70.7659 312.2877 L74.987 313.5574 L76.8144 315.8425 L83.8903 324.864 L88.9295 324.7148 L90.839 325.3187 L91.294 325.9596 L93.1445 329.7373 L98.4617 329.3158 L99.026 329.5717 L99.4979 329.3881 L101.3775 328.531 L101.536 327.9059 L101.802 327.5499 L102.1037 327.0936 L102.6237 327.0245 L102.83 327.0662 L103.0224 327.3948 L103.0685 327.4513 L103.2974 327.4882 L103.5342 327.4803 L103.9229 327.3173 L103.7012 325.1789 L105.1172 323.3644 L106.9683 324.9532 L107.1048 324.8155 L107.5938 324.9036 L107.6777 324.8371 L107.6619 324.4726 L107.6739 324.3476 L107.7464 324.3123 L107.92 324.3387 L108.0025 324.3075 L108.1183 324.1203 L108.4011 324.1509 L108.4445 324.2332 L112.654 320.9148 L112.323 320.6263 L112.6175 320.3589 L113.0928 320.0566 L113.2767 320.4237 L114.2971 319.6193 L114.7834 319.977 L114.8041 319.9675 L115.0491 320.1721 L123.7279 326.5503 L125.034 328.2646 L124.1747 329.6888 L122.69 330.2004 L118.8967 327.1459 L115.7303 328.7003 L114.028 327.1891 L112.8963 328.3379 L110.2962 329.0247 L114.657 332.7633 L113.7448 335.4808 L115.0615 335.9861 L115.8145 335.5667 L117.8533 334.7534 L118.5565 335.9265 L119.9439 338.1755 L121.7926 340.5474 L122.8423 340.4635 L124.9546 340.5627 L124.6415 329.9398 L126.6617 329.1249 L124.7164 325.3741 L125.5399 323.1128 L127.1397 323.5084 L128.1447 324.6451 L127.357 325.257 L128.4922 326.7925 L128.9163 327.3917 L130.2024 328.5837 L129.8442 326.956 L129.7006 326.5382 L131.683 326.639 L135.4254 326.495 L135.4752 326.5535 L135.8808 326.5292 L141.0705 325.3055 L139.9707 324.3086 L134.4352 325.2243 L133.8351 324.633 L133.7331 324.604 L133.1705 324.1145 L132.724 323.8613 L132.3099 323.4952 L132.1961 323.2916 L132.2449 323.1118 L132.0834 322.9683 L132.0208 323.1983 L131.5802 322.7489 L128.9366 320.4812 L128.4791 320.1099 L128.2612 319.9632 L127.5635 320.6289 L127.2992 320.4965 L127.2219 320.38 L126.1142 319.1372 L123.6145 320.1816 L120.5423 317.7404 L119.1277 316.7656 L118.8555 316.5483 L118.5111 316.1501 L118.3014 316.1094 L118.1148 316.0414 L118.0873 315.8489 L118.1382 315.8304 L116.6517 314.6493 L120.6901 312.4856 L119.2724 311.6959 L119.1407 311.7101 L117.3652 310.853 L117.0068 310.7881 L114.1222 312.7941 L113.9765 312.581 L113.7912 312.6211 L113.4379 312.4497 L111.1029 309.9293 L110.5117 309.089 L110.2196 308.6068 L110.0182 308.13 L110.0619 307.2211 L110.0165 306.798 L107.8117 303.5781 L110.9585 302.1174 L110.8403 301.7645 L110.8499 301.5635 L110.9788 301.5176 L111.0885 301.5134 L111.2819 301.5888 L111.3761 301.8046 L111.4139 302.0061 L111.4156 302.042 L111.6095 302.5183 L111.6975 302.6032 L111.9418 302.9804 L112.2384 303.3528 L112.2883 303.9964 L112.2601 304.1177 L112.6564 305.0921 L113.3788 306.616 L113.5905 306.5438 L115.587 305.5848 L116.4734 306.2542 L119.7638 308.3637 L122.1126 309.6814 L123.2265 310.1493 L128.2268 312.2503 L128.2488 312.2429 L128.3413 311.9523 L128.464 311.6885 L128.3437 311.4991 L128.2306 311.4749 L128.1529 311.4316 L128.0388 311.3092 L128.111 311.064 L128.0553 310.8218 L128.0313 310.6145 L128.1114 310.3017 L128.3038 310.2268 L128.4217 310.2157 L128.5678 310.2542 L128.6819 310.5106 L128.8716 310.5591 L129.3589 310.5375 L129.6232 310.5697 L129.8559 310.672 L130.4165 310.8239 L130.8107 311.0254 L131.0822 311.1383 L131.2331 311.2633 L131.4991 311.1763 L132.0194 310.4879 L132.1263 310.5275 L132.0624 309.2752 L135.7564 312.5125 L135.8217 312.5473 L136.5029 313.079 L138.3076 314.748 L138.7678 315.1515 L146.4248 319.9801 L146.4038 318.865 L146.4585 317.9171 L146.7984 316.6353 L147.0029 315.718 L147.2074 314.4594 L147.782 314.3239 L149.4451 314.546 L149.7586 315.9396 L150.2466 317.4904 L149.6689 321.0968 L150.9948 321.6971 L150.9653 329.2457 L149.1918 328.3875 L148.7423 328.2008 L147.2466 327.85 L147.0675 327.7619 L146.9943 327.5404 L146.9744 327.3252 L145.6381 326.6822 L146.0196 324.4141 L144.8803 326.2813 L144.8926 326.294 L145.0916 326.5941 L145.3769 326.7487 L146.0615 327.0609 L146.709 327.4861 L146.7654 327.6169 L146.7018 327.868 L146.675 327.8991 L146.8754 328.022 L146.0423 330.308 L146.487 330.8212 L149.0867 332.6257 L150.2257 337.3479 L150.7075 337.6639 L144.2805 343.3866 L142.7168 348.4183 L141.7716 348.4288 L142.3284 349.1461 L142.8817 349.8634 L142.1875 351.5248 L138.3705 352.2399 L142.1304 352.5263 L144.0809 352.5981 L144.4318 351.0501 L145.8959 351.0079 L143.5347 349.8634 L146.6932 348.6029 L154.8404 348.355 L162.3249 345.0717 L168.9732 344.1429 L174.2853 342.2468 L174.8516 341.5564 L182.584 341.1503 L183.7374 340.3412 L185.4019 339.1739 L197.7527 335.3241 L202.677 335.2471 L200.6592 340.3485 L200.8737 340.531 L201.7044 341.2668 L202.8795 342.5374 L267.0943 316.1063 L267.2489 316.85 L255.3109 321.7767 L255.1226 321.8516 L251.8259 323.2642 L264.1681 362.2179 L266.2234 362.5396 L265.1064 366.1997 L277.9926 362.98 L278.3587 366.0521 L278.2195 372.4782 L277.9583 372.436 L277.618 363.4283 L264.9325 366.3448 L265.9952 362.6725 L263.3274 363.2173 L260.413 366.1444 L259.296 373.4011 L256.1237 379.6029 L258.5718 387.3798 L258.7282 395.4755 L260.7292 403.6547 L270.0706 419.21 L272.7029 423.831 L275.3084 430.8468 L276.4021 433.6844 L277.4486 432.3595 L277.1259 431.5897 L277.2857 431.1942 L277.9215 430.4112 L278.5824 429.4933 L278.9948 429.1321 L279.8283 428.7989 L281.5663 429.0868 L282.1423 428.8152 L282.2753 428.6966 L282.5933 428.6549 L282.873 428.5479 L282.9449 428.53 L283.1741 428.3628 L283.3899 428.1287 L283.5339 427.8387 L283.7298 427.5445 L283.6721 427.1786 L284.5286 426.6846 L284.9283 426.6946 L285.218 426.5918 L286.6357 425.6501 L286.9423 425.6263 L287.1492 425.5024 L290.6782 422.9747 L292.7335 423.5231 L293.2239 424.4347 L293.2717 424.499 L293.349 424.6678 L293.4988 424.6968 L293.7865 424.8797 L293.9989 424.9694 L294.1491 425.1239 L294.0443 425.5098 L294.0202 425.9016 L293.9989 425.9501 L294.2216 427.119 L293.8738 429.1717 L296.1308 430.1497 L298.472 431.8153 L299.424 431.9951 L300.3554 431.7094 L300.397 431.664 L300.451 431.5301 L300.53 431.2559 L300.8541 430.7545 L301.0112 430.7065 L301.0731 430.5794 L303.9205 431.4932 L303.8982 433.4045 L303.1208 433.134 L303.0596 433.1556 L303.9886 434.8164 L305.882 438.9727 L304.634 442.2843 L305.0519 443.509 L304.5268 446.7937 L305.6362 447.2444 L306.2947 442.1778 L307.8973 443.0667 L309.1931 438.5731 L309.2281 438.3843 L309.2515 438.3743 L309.3646 437.991 L313.2926 436.6149 L313.3049 436.8289 L313.4654 436.8131 L313.318 437.5845 L313.3094 437.6151 L313.3163 438.8673 L314.6 439.4145 L314.844 438.9427 L315.221 438.1407 L315.4692 437.537 L315.6994 436.8964 L315.9507 436.5353 L316.2772 436.2142 L316.3517 436.1799 L316.7707 435.7107 L317.62 435.7344 L317.1096 438.6785 L318.0269 438.9964 L318.0386 438.9833 L318.5084 438.1112 L318.673 437.6815 L319.4223 436.4409 L320.4121 434.9161 L320.6726 434.46 L320.9781 433.7867 L321.57 432.0658 L321.9917 432.1765 L322.6794 431.7252 L323.0715 430.8378 L323.6562 430.9338 L323.6613 431.3825 L327.5247 430.5642 L327.8282 430.7561 L328.6348 430.5172 L330.2797 430.9738 L329.7989 431.9561 L326.1194 436.0233 L325.8455 437.14 L327.081 436.9402 L325.5911 438.5514 L325.3351 439.9808 L325.9242 440.8054 L329.593 440.1068 L328.1537 442.9692 L327.6533 442.0997 L327.6148 442.0639 L327.3378 441.7375 L327.0697 441.6621 L326.9013 441.64 L326.6951 441.7212 L326.3954 441.6036 L326.1489 441.63 L326.9418 444.6452 L327.0755 445.1355 L326.7793 447.8397 L325.9214 450.5396 L324.9983 451.8676 L322.9354 454.8015 L322.3429 455.3203 L322.2732 455.411 L322.1405 455.498 L321.2637 456.2661 L320.521 456.7675 L320.4822 456.835 L320.2681 456.9831 L320.045 457.0886 L319.9914 457.1244 L316.1744 462.7612 L317.5797 463.456 L321.5892 457.6126 L323.5716 456.0442 L324.8144 454.7868 L325.9733 452.9869 L327.953 449.7382 L328.5627 448.4059 L329.0675 448.9627 L330.5952 447.3267 L330.577 447.2497 L330.6684 447.1079 L330.7815 447.0973 L330.9905 447.285 L331.3758 447.3436 L331.4816 447.275 L331.6156 446.8248 L331.626 446.1146 L331.5211 445.2911 L331.7267 444.7385 L331.7799 444.7201 L331.7981 444.4855 L333.4111 444.0257 L334.0163 445.0454 L334.637 445.2658 L334.8449 445.1914 L335.1697 445.009 L335.3436 445.018 L336.2015 444.7201 L336.2194 444.4971 L336.3854 443.9292 L336.6603 443.6182 L337.0576 443.4663 L337.8832 442.2273 L338.5317 440.9256 L336.0623 440.9646 L337.3817 440.44 L337.7453 439.6892 L337.8179 439.4968 L338.2341 438.611 L338.2272 438.4302 L338.4746 437.9741 L338.6028 437.8191 L338.7582 437.4954 L338.6695 437.2033 L338.2368 437.0963 L337.9031 436.9797 L336.7081 437.3072 L336.3266 437.5402 L335.7623 437.953 L335.2161 440.1337 L334.7996 440.14 L334.7357 440.207 L334.5281 440.1442 L333.6541 440.1574 L333.2379 440.2845 L333.0787 440.1664 L332.9485 440.1685 L332.9523 440.0725 L332.9241 439.4609 L332.9756 439.0423 L333.078 438.5562 L332.8835 438.1982 L332.7526 437.2961 L332.834 436.8938 L332.9619 436.5295 L333.2757 436.2764 L333.7506 436.1752 L334.0802 436.249 L334.4418 436.3586 L334.7532 436.3913 L335.3055 436.2021 L338.7369 435.0643 L338.9747 434.9087 L339.2424 434.6994 L340.145 433.5953 L340.2443 433.1287 L340.2591 432.7755 L340.2412 432.4291 L340.3484 432.2524 L340.8018 432.0199 L341.1159 431.9767 L341.4613 432.0157 L341.6816 431.7326 L340.9361 428.1087 L340.3196 428.4108 L340.1972 428.7667 L340.0116 429.1221 L339.8573 429.1464 L339.6947 429.0325 L339.5133 429.0209 L339.2431 429.1268 L339.0352 429.294 L338.7819 429.3794 L338.4279 429.4506 L338.2708 429.4147 L336.3544 430.3538 L336.2582 429.7095 L336.1671 429.3936 L336.1108 428.9898 L336.1482 428.9681 L335.9936 427.9242 L335.8925 427.553 L335.8959 427.3811 L335.909 427.3194 L335.8846 427.1438 L336.6899 426.674 L337.4357 426.2142 L337.6745 426.1146 L337.9839 425.9385 L338.1653 425.909 L338.2399 425.8779 L338.5468 425.8061 L338.7214 425.7951 L338.7836 425.8088 L339.0153 425.7713 L340.4739 427.6452 L341.1908 425.9928 L343.2041 423.9713 L345.179 421.4261 L342.8849 421.7514 L339.2156 422.6541 L335.5224 423.7081 L333.0921 424.8898 L332.889 425.1086 L332.6911 425.2267 L332.3742 425.2462 L330.2615 427.0125 L329.8615 427.3848 L329.7525 427.438 L329.426 427.7112 L329.2267 427.6584 L328.8778 427.6858 L328.5025 427.5303 L327.8794 427.4122 L327.677 427.331 L327.4945 427.205 L327.0851 427.0906 L326.7968 427.1032 L326.6002 427.1359 L326.064 427.138 L325.9383 427.0115 L325.8949 426.9013 L325.8781 426.722 L326.0723 426.3566 L326.2854 425.8889 L327.1663 424.6309 L327.5746 424.1004 L328.2379 423.0185 L328.1739 422.9172 L326.5813 424.1632 L325.2794 425.6132 L324.0555 426.3434 L323.4537 426.8949 L323.2259 427.0494 L322.6282 427.2625 L322.5199 427.2598 L322.2006 427.4502 L321.9223 427.1233 L321.1527 426.2469 L319.2975 428.2121 L316.6542 428.6755 L316.5528 428.3839 L316.4126 428.2832 L316.0974 427.9031 L315.8781 427.4328 L315.8448 426.9171 L315.8943 426.684 L315.9445 426.6318 L315.8744 426.4299 L319.8203 424.3409 L321.1369 424.2222 L323.342 423.2241 L323.8033 422.323 L324.1146 421.4625 L324.2882 420.9378 L324.7185 420.7016 L324.9453 420.5329 L325.3708 420.3078 L325.6197 420.2234 L326.3146 419.8548 L327.7206 420.864 L328.1939 420.6721 L329.8388 419.6397 L330.0103 419.5954 L330.2051 419.5965 L330.4038 419.6202 L330.5894 419.6993 L338.4733 416.4992 L337.4848 415.819 L333.1911 415.3687 L329.2772 412.6394 L328.9631 411.7652 L328.9961 411.2426 L330.3079 408.9879 L330.1117 408.9811 L329.1315 408.4437 L328.684 408.1759 L327.8581 408.024 L327.004 407.3654 L326.3342 407.1039 L326.0108 406.7384 L325.752 406.6625 L325.0182 406.2739 L323.9854 405.6838 L323.5517 405.5625 L323.2853 405.5588 L322.9867 405.6153 L322.5003 405.746 L322.0955 405.7835 L321.7903 405.6691 L321.5597 405.6907 L321.0644 405.6749 L320.6781 405.7582 L320.3378 405.7281 L320.0677 405.6817 L319.9546 405.5557 L319.4587 405.5583 L318.7813 404.9071 L318.3723 404.8586 L318.263 404.4088 L316.6614 402.869 L316.3284 402.6771 L315.9348 402.1709 L313.794 400.1017 L321.6696 397.8142 L321.8174 397.3259 L323.4891 396.5713 L324.3545 396.5539 L327.2027 395.0183 L327.3089 393.2839 L330.1763 393.3756 L330.7238 393.923 L332.591 393.9162 L334.3542 394.6165 L333.7637 397.8405 L335.3691 398.0214 L337.2446 400.7703 L337.7464 404.5301 L337.4938 404.5164 L337.4749 404.5965 L337.3044 404.6508 L336.6541 404.5538 L335.5086 404.4889 L334.9422 404.4225 L334.6102 404.4399 L332.6264 404.6835 L332.5587 404.75 L333.0337 406.5075 L334.4672 406.7284 L334.5164 406.7005 L334.8257 406.6572 L334.9941 406.7321 L335.0763 406.8223 L336.1187 406.9826 L338.1505 405.9216 L338.2042 405.7814 L338.2344 405.4165 L338.2897 405.2446 L338.4159 405.1713 L338.4334 405.1802 L338.5795 404.7974 L339.0283 405.0521 L339.6545 406.5249 L337.2037 407.8004 L337.0143 407.8674 L336.4204 408.1901 L336.0492 408.2819 L335.7207 408.3267 L335.2986 408.4849 L335.0903 408.5945 L334.8278 408.681 L334.4638 408.7527 L333.5561 408.8993 L333.2351 408.9194 L332.7488 408.7037 L331.6414 408.7274 L331.3637 408.8076 L331.0606 408.8693 L330.8654 408.8635 L330.8111 408.8403 L330.8032 408.8076 L330.8214 408.7453 L330.6733 408.7485 L329.1679 411.5643 L329.6439 412.4164 L331.759 414.0136 L332.5381 414.5646 L333.8249 415.0544 L337.9543 415.5211 L339.8838 414.4686 L340.9781 415.9946 L344.417 414.9411 L349.6827 416.8003 L350.9206 416.6526 L351.0282 416.5899 L351.896 416.2714 L352.227 416.2023 L352.7336 416.2408 L353.1319 416.3895 L353.2536 416.3837 L353.2887 416.4064 L353.5636 416.4354 L353.8148 416.409 L354.9205 414.7913 L355.7608 415.973 L360.1865 413.9593 L360.1253 413.8517 L360.2219 413.6988 L360.4425 413.7963 L360.5374 413.7415 L360.5446 413.5089 L360.8557 413.2168 L361.0041 413.0165 L361.1595 412.9026 L361.2344 412.8282 L361.3482 412.8076 L361.5602 412.7976 L361.7193 412.7354 L361.8084 412.6663 L362.073 412.8562 L362.3256 413.1151 L362.383 413.2685 L362.3854 413.3961 L362.4232 413.4214 L363.0608 413.2152 L364.5276 414.2514 L364.8679 414.4828 L364.8885 414.5092 L366.5358 415.6856 L369.0502 417.6155 L369.0296 417.5801 L368.7567 416.9912 L368.2556 415.6761 L368.1515 415.626 L367.9783 415.616 L367.7016 415.6418 L367.5662 415.5928 L367.3686 415.5817 L367.3235 415.5053 L367.1342 415.2042 L367.1593 415.1636 L367.2954 414.8414 L367.5167 414.5635 L367.7641 414.5409 L367.8707 414.4312 L368.5086 414.6326 L368.7443 414.6421 L374.0808 411.9587 L374.2977 411.7968 L374.8503 411.4604 L375.3363 411.3666 L375.7298 411.3602 L376.6581 411.1045 L377.3905 411.5021 L379.0272 411.1525 L379.1612 410.9832 L379.3863 410.8482 L379.5685 410.8519 L379.8372 410.6362 L379.8775 410.5118 L380.0514 410.4385 L380.0833 410.4396 L380.194 410.351 L382.7039 409.6281 L382.5373 408.7401 L381.3158 407.1339 L380.7401 406.4579 L380.4658 405.9992 L380.1105 405.6016 L378.0233 405.0785 L377.2183 404.1884 L375.3793 401.4453 L375.8085 400.1718 L376.8557 398.1559 L374.5166 396.7411 L371.9946 396.4679 L368.9987 395.8029 L368.712 394.2737 L368.4718 393.3946 L368.0941 392.6579 L367.9714 392.6305 L367.8428 392.5451 L367.0012 392.7502 L363.3646 393.6578 L362.7277 393.325 L362.3428 393.044 L363.279 391.8685 L363.9502 390.9056 L364.6837 390.3857 L365.5845 390.3988 L365.8584 389.3231 L367.263 388.9866 L368.7055 388.5959 L369.6565 389.2951 L371.0364 389.9986 L372.7713 390.1895 L373.7749 391.4113 L374.4554 391.7219 L375.647 390.2691 L377.0149 389.8388 L377.8463 389.6142 L377.9617 393.1573 L378.7161 393.4975 L379.0048 387.952 L378.7093 386.7544 L374.7338 370.2754 L374.2386 369.912 L373.3439 366.7514 L371.124 365.1012 L369.5609 362.97 L369.5953 360.9516 L367.1926 359.2587 L361.6674 355.9698 L361.7998 355.4703 L366.0866 357.8289 L366.7585 356.0911 L367.3026 355.0706 L372.0125 358.5963 L376.888 355.6038 L378.113 353.732 L378.6237 354.8227 L379.8596 353.7631 L380.594 352.5121 L381.8489 351.0912 L392.0794 345.4299 L393.8374 343.923 L395.2967 340.7399 L395.8796 337.6501 L398.5257 339.0959 L402.2633 339.492 L402.7042 339.3875 L406.4979 337.8643 L412.4207 337.7393 L412.6018 342.9683 L415.5218 338.7156 L421.1967 339.8865 L422.2787 340.4039 L424.4178 341.29 L425.2086 341.7062 L426.3847 341.3322 L426.4572 341.2753 L426.3689 341.1007 L426.9425 340.7288 L427.1481 340.6903 L427.4684 340.3512 L427.5357 340.4261 L430.5382 338.0631 L434.2882 337.5062 L434.7092 336.8184 L435.1034 335.8911 L435.4481 335.1975 L436.009 334.4306 L436.1091 334.0693 L436.14 333.89 L436.0671 333.6157 L435.8688 333.5244 L435.7554 333.3256 L435.102 332.8809 L434.8292 332.806 L434.624 332.7011 L434.4477 332.6367 L434.2449 332.3936 L434.0706 332.0476 L434.0229 331.4283 L433.8765 330.9177 L433.2355 329.3486 L432.9365 329.1381 L432.1023 329.1381 L431.9858 328.9946 L431.88 328.9925 L430.7314 327.6079 L430.8382 327.4265 L431.8428 326.4712 L432.9055 325.5297 L432.999 325.4891 L435.1749 324.5692 L443.5296 324.3123 L445.7839 327.2872 L445.8413 328.1417 L446.2407 329.9931 L445.1522 330.7157 L444.2452 331.048 L443.4056 333.6948 L443.5125 334.0603 L443.3877 334.3531 L443.0059 334.9549 L442.5656 336.3542 L441.9205 338.6486 L441.6627 340.4287 L445.4426 337.2635 L449.1191 326.9808 L448.973 324.6272 L448.5918 321.9592 L445.6932 318.1028 L443.4561 313.9056 L445.2821 307.9712 L443.7606 306.1703 L444.5501 304.9312 L446.6081 307.4506 L446.0884 308.485 L445.4773 308.8432 L443.8823 313.8745 L446.4397 318.519 L448.8647 321.5499 L449.6177 326.7587 L448.1038 331.2664 L445.8736 337.6132 L441.2994 342.1033 L440.4643 343.8813 L441.1314 345.2785 L440.8836 345.4452 L439.8673 345.2996 L436.1269 346.4251 L433.8768 346.7548 L425.2626 346.4462 L424.2875 348.2679 L415.7177 344.6192 L412.1203 345.3238 L412.1021 345.385 L411.7745 345.4974 L410.8806 345.8887 L410.3437 345.9383 L408.7738 346.3745 L407.5028 346.4968 L406.7099 346.5232 L407.1852 351.8043 L406.2401 352.8169 L397.9916 357.4159 L391.5642 358.2487 L389.354 360.1463 L388.4779 359.1664 L387.0461 359.5794 L382.4098 361.2934 L378.7708 363.6878 L377.8222 366.3189 L377.7947 367.9079 L380.2332 375.0307 L380.2411 377.3084 L378.7464 382.4433 L379.0736 384.7399 L381.2996 388.9276 L379.9201 390.4057 L379.8448 390.9752 L381.4196 391.1303 L383.6206 391.1055 L385.1331 390.8444 L389.5949 390.3055 L394.4275 387.2654 L393.2473 387.7658 L393.1645 387.7859 L393.0394 387.8956 L392.9376 388.029 L392.7318 388.0622 L392.5125 388.0538 L391.7498 388.2294 L391.6258 388.2225 L389.4158 389.332 L388.8684 388.9022 L387.0609 389.6822 L386.0958 389.9169 L385.5164 389.8989 L385.2675 390.026 L384.7571 390.0018 L382.3276 390.2797 L382.0186 390.2749 L381.8251 390.0308 L381.9018 389.6237 L381.9839 388.9207 L382.1956 388.6918 L382.2173 388.6892 L382.2816 388.3058 L385.6772 388.2357 L389.0557 387.8982 L388.6302 385.0969 L390.4734 384.694 L397.1268 384.1335 L399.7464 383.2691 L399.7633 382.7318 L403.1572 382.4465 L402.652 381.6385 L406.1731 380.4214 L413.1575 379.7095 L417.5818 379.7084 L420.728 379.5017 L421.315 379.353 L420.9888 377.07 L423.9322 375.133 L426.116 376.7937 L428.7651 378.6922 L430.3729 378.2334 L431.0537 378.6985 L432.7059 379.2227 L434.0332 379.1742 L436.9425 378.5894 L439.9216 378.6379 L444.4896 379.3182 L445.9554 378.6189 L448.5502 377.4898 L451.4726 375.866 L451.5912 375.9088 L453.0003 377.6475 L453.2932 372.6913 L454.1792 370.3471 L454.339 369.6188 L455.2041 367.9897 L455.7571 366.0405 L455.6536 364.6139 L455.6601 363.8402 L455.5783 362.9521 L455.3921 361.8514 L454.0678 361.9184 L451.2334 362.0138 L449.0056 361.7554 L446.0073 361.7559 L443.4045 361.0033 L443.4303 361.6114 L443.0801 361.6251 L442.7079 361.5545 L442.4037 361.4495 L441.3916 360.7191 L440.6495 360.1104 L440.0711 359.7365 L439.151 359.2835 L438.6527 358.9771 L438.6561 358.9612 L437.2869 358.2466 L439.2466 356.3369 L439.2889 356.2414 L440.5227 355.0938 L441.0489 354.5811 L444.6133 350.7911 L445.0711 350.7595 L445.1278 350.6909 L445.6567 350.6561 L447.0171 350.6255 L449.3888 350.4583 L452.6123 345.3001 L452.9993 344.7843 L451.2262 344.116 L451.2437 342.8565 L451.2156 342.8312 L451.0788 342.6339 L451.0819 341.6861 L451.2602 341.6534 L451.2709 340.8765 L451.141 340.8327 L451.1059 337.8685 L451.3125 337.8627 L451.32 337.3163 L453.9169 337.7319 L455.0068 338.349 L455.7846 339.1808 L455.6636 340.1239 L455.5697 341.0136 L455.4934 341.2916 L455.4629 341.501 L457.945 340.8612 L462.0108 343.3159 L462.4377 343.2109 L462.6411 343.1271 L462.6504 343.1587 L462.8326 343.1139 L462.7721 342.3697 L462.5291 341.6513 L462.3518 340.9293 L462.3294 340.3696 L462.3545 339.8491 L462.2995 339.4893 L462.3325 339.0558 L462.4456 338.34 L462.4339 338.1992 L462.3847 337.9635 L462.3555 337.6449 L462.3683 337.3885 L462.3232 336.8938 L462.8095 336.8426 L463.1917 336.6654 L463.5069 336.5789 L463.7863 336.572 L463.8544 336.7334 L466.2997 336.4771 L466.4733 336.1907 L467.0472 334.9464 L467.9137 333.4712 L468.4663 331.7859 L469.0056 331.0364 L469.3963 330.5854 L469.9218 329.5843 L470.1342 329.3122 L470.3356 329.232 L470.4078 329.2678 L471.067 329.8502 L471.4224 330.308 L471.7059 330.6007 L471.7461 330.6667 L471.9259 330.8655 L472.0403 330.8239 L472.6435 330.7389 L474.4338 330.5807 L474.641 330.48 L476.8056 336.2719 L476.9011 336.9724 L476.2715 337.9787 L477.6157 337.2498 L478.7285 336.4597 L479.0454 336.3479 L480.105 335.8109 L481.5076 334.7845 L483.8605 333.7723 L485.1098 333.3963 L486.3519 332.9833 L487.8944 332.6214 L502.1293 309.7605 L498.4071 309.6444 L495.8862 309.3881 L495.4277 309.4661 L493.8333 309.3796 L493.2263 309.118 L492.3857 309.0325 L491.0429 308.2386 L490.626 308.3325 L490.3627 308.0524 L490.1744 307.9169 L489.6888 307.8525 L487.7026 306.3449 L487.0819 305.897 L482.0544 302.9187 L481.499 302.1607 L481.3591 302.0288 L480.9085 301.4654 L480.4521 300.7886 L479.7263 300.1265 L479.6128 299.8227 L479.6537 299.6423 L479.542 299.4898 L479.6891 299.0309 L479.6555 298.7851 L479.6723 298.0402 L479.7424 297.2526 L480.8725 295.3334 L481.2364 294.2409 L481.3399 294.194 L481.3849 294.0853 L482.5747 293.3325 L482.8676 293.3673 L483.2865 294.5374 L484.7778 296.7013 L484.8187 296.7171 L485.2174 296.9709 L485.482 297.433 L486.2292 298.1114 L486.5392 298.2253 L486.9444 298.5023 L487.2094 298.8019 L487.6541 298.9897 L488.303 299.4867 L488.4704 299.8095 L490.0898 301.1747 L490.6013 301.6928 L490.7442 302.1195 L490.6143 302.3601 L490.2909 302.6665 L490.0338 302.8665 L489.919 303.0348 L489.6011 304.0328 L491.048 305.015 L491.2546 304.7829 L491.523 304.2913 L491.7512 303.9321 L491.899 303.6277 L492.2042 303.4853 L492.4778 303.6029 L492.6208 303.3803 L496.1322 305.9456 L498.5738 305.2408 L499.2392 304.9892 L500.6352 304.1552 L501.6618 303.5934 L502.6221 303.3428 L503.1779 303.2394 L504.2364 303.1798 L504.8227 303.2542 L505.7909 303.6446 L507.0182 303.7131 L507.4499 303.7564 L508.206 303.9495 L509.1302 307.7454 L512.0 305.8517 L508.9669 303.9025 L496.7701 301.8631 L495.9473 300.9062 L495.9164 299.8005 L496.2883 298.1937 L496.2986 296.1532 L495.8494 294.6345 L495.3259 293.8964 L494.7695 293.6269 L493.7776 293.668 L492.8115 293.8231 L492.1001 293.6237 L491.2048 292.9036 L491.1635 292.0617 L491.2615 290.9612 L490.8212 290.095 L490.2758 289.4899 L488.0171 289.4836 L485.1143 289.3269 L483.6412 288.6516 L483.2951 288.171 L483.2951 287.4288 L483.5274 286.6264 L484.3647 284.9266 L487.2932 279.6711 L487.9789 278.6756 L490.1936 276.4012 L492.4623 274.6782 L493.812 273.6478 L494.3969 272.7467 L494.3932 271.5866 L492.9132 268.9935 L492.2015 266.4542 L492.6063 262.6603 L493.4642 259.1022 L495.1283 255.7566 L496.7839 252.3556 L496.8117 250.2926 L495.0575 251.0977 L493.325 252.3424 L492.4266 253.042 L486.9691 255.3851 L479.6176 264.0115 L479.2619 264.0115 L479.396 264.5702 L479.5183 265.6713 L479.485 266.1852 L479.3458 266.6014 L479.3771 266.7602 L479.2554 266.8409 L479.2406 266.88 L479.064 267.1116 L478.5907 267.5685 L478.1831 267.8122 L477.3967 268.0771 L475.9027 269.0705 L476.1206 269.3829 L476.2333 269.6773 L476.2901 269.9537 L476.2931 270.1568 L476.1949 270.3352 L476.9541 272.3262 L463.4643 281.5007 L459.6232 281.5735 L458.9039 281.7064 L458.4646 281.7312 L457.7295 281.669 L456.6338 281.6299 L450.1085 281.7539 L450.1907 280.8064 L450.1398 280.6508 L450.1958 280.4703 L450.134 280.3785 L450.0233 280.3395 L449.9154 280.3796 L449.7315 280.5964 L449.605 280.6471 L449.3906 280.5352 L449.2734 280.4239 L449.239 280.3152 L449.2933 280.1638 L449.2847 280.0187 L449.185 279.8869 L449.4407 279.707 L449.4366 279.5883 L449.3696 279.3577 L449.3108 279.2464 L449.2964 278.9847 L449.3239 278.8602 L449.2548 278.6376 L449.0318 278.2736 L448.7461 277.918 L447.8175 276.8607 L447.4927 276.4139 L447.1528 276.0826 L432.1886 277.1535 L410.1925 284.5183 L406.4119 285.4784 L405.9373 284.9904 L405.8163 285.0944 L405.3321 284.944 L404.8516 284.6787 L404.5217 284.552 L404.0377 284.149 L403.6229 283.5634 L403.5067 283.2311 L403.4535 282.9124 L403.4669 282.6966 L403.4559 282.4213 L402.763 281.6384 L402.3062 279.7043 L401.7196 278.2182 L401.4993 278.148 L401.2573 278.2039 L401.1085 278.1369 L401.0507 278.023 L401.0257 277.8536 L401.0349 277.7006 L401.1033 277.4084 L401.0635 277.2949 L397.3626 277.4965 L387.5527 278.9452 L388.6962 282.6423 L386.8148 283.3197 L386.7643 283.3682 L386.4962 283.5508 L385.902 283.6483 L385.3253 283.862 L385.0905 284.0714 L384.8087 284.2598 L384.5881 284.3421 L384.432 284.2471 L384.3647 283.8246 L384.3248 283.3424 L384.2021 282.5769 L383.9725 281.4785 L382.85 278.3717 L382.6943 277.8716 L382.5709 277.2021 L382.5799 276.5046 L382.7569 275.6125 L382.7933 275.3376 L383.0225 274.7826 L383.1586 274.6307 L383.1741 274.5447 L383.2566 274.522 L383.3583 274.4086 L383.5924 274.215 L383.6989 274.1865 L383.9203 274.3384 L384.0619 274.2994 L391.1178 276.4413 L393.9955 275.823 L394.178 275.6679 L394.3385 275.6056 L394.7344 275.6262 L395.2235 275.5186 L396.446 275.1767 L397.5352 275.0327 L397.6774 275.0316 L399.0226 274.7425 L415.7259 276.7262 L417.3138 273.8668 L425.5726 272.321 L429.2411 270.5842 L429.2253 270.2033 L431.0001 269.7147 L435.2784 270.3705 L437.8584 271.5375 L439.4604 271.7032 L444.417 270.4496 L446.34 269.3343 L446.6376 269.1666 L447.1229 268.8838 L447.7783 268.888 L449.7999 269.3327 L454.2593 266.6732 L455.411 265.4228 L457.9299 263.8289 L458.4509 263.2797 L458.8231 262.8951 L458.9592 262.7568 L460.5357 261.365 L471.266 258.0939 L473.9062 262.0657 L476.0034 261.1582 L481.3897 254.895 L482.85 252.7835 L482.7672 251.3378 L484.3379 250.8698 L485.7556 250.5569 L487.4788 250.2799 L488.1508 250.2155 L489.9599 249.3455 L490.8862 248.9033 L486.4622 248.3456 L479.0567 246.4594 L478.0387 246.1586 L476.1058 246.1185 L474.8328 246.5633 L473.9482 247.1859 L472.7559 248.4269 L471.5764 249.7555 L469.9992 250.8213 L467.6339 251.8976 L466.6705 252.1493 L465.6732 252.2759 L461.2454 252.7228 L456.9497 253.6145 L454.3122 254.1922 L452.9708 254.5515 L450.269 255.1736 L448.2736 255.6168 L447.4776 255.7001 L447.0542 255.5012 L446.0128 255.363 L445.4357 255.2997 L444.6831 255.7466 L442.9605 256.4852 L433.7352 256.4931 L424.2838 260.3921 L415.2344 259.0045 L397.3042 245.2864 L385.6463 244.7535 L388.5436 243.6983 L379.5217 236.7967 L375.6518 231.7259 L377.041 214.5315 L376.7623 213.7162 L375.9969 212.4872 L375.592 211.7279 L374.929 211.1959 L373.7698 210.3859 L373.268 209.4846 L373.0521 208.178 L373.025 206.6133 L373.5086 205.4819 L374.1025 204.6323 L375.4336 203.4444 L375.8412 202.8291 L375.9628 202.4211 L375.3968 202.1441 L375.3576 201.7098 L375.6453 201.0744 L375.5274 200.4401 L375.1535 199.3894 L374.8029 198.4052 L374.2183 197.2193 L373.822 196.2963 L373.5495 195.3501 L373.3725 194.169 L373.0126 192.4597 L372.4352 189.4521 L372.6514 188.8568 L372.5954 188.0947 L373.4817 186.8096 L374.8685 185.3267 L375.737 184.2949 L375.4958 183.9819 L375.2555 183.8141 L375.0287 183.0531 L374.2544 183.1412 L372.6445 183.5112 L371.3261 183.707 L369.9136 183.9524 L368.3195 183.9925 L366.598 183.9439 L364.1736 183.8875 L363.6928 183.831 L359.5125 186.8081 L357.7126 184.506 L361.6279 181.4202 L361.6468 181.2888 L361.9637 180.4718 L355.5144 174.7354 L358.6585 171.0822 L364.1795 175.952 L364.7954 174.5734 L364.9734 174.0884 L365.1617 173.302 L365.17 173.0677 L365.2281 171.8928 L365.5013 170.775 L365.5525 169.8429 L365.6188 169.6001 L366.0158 167.8442 L365.9873 167.0752 L365.4879 164.5249 L365.0397 161.9782 L364.9273 160.5838 L364.8992 158.994 L365.0999 158.0894 L365.6817 156.6289 L365.5907 155.8752 L365.0432 155.6482 L364.4544 155.4978 L362.7803 155.9744 L361.3911 156.5096 L359.5386 156.7535 L357.9958 157.1541 L357.8343 157.4803 L357.5353 157.5183 L357.1634 157.2538 L355.888 157.3256 L355.1913 157.5953 L354.1328 158.3723 L352.879 159.4052 L351.5977 160.2122 L350.9444 160.2676 L350.0948 160.7564 L349.2933 161.2763 L348.4646 161.9983 L348.0388 162.5562 L347.813 162.6121 L347.0181 162.5018 L346.5091 162.6449 L345.2508 163.189 L343.5832 163.5231 L342.5999 163.8783 L341.2908 164.091 L339.7446 164.5518 L338.3275 164.8664 L337.0346 164.7149 L335.0288 164.5645 L332.1535 164.6932 L331.6002 164.5455 L330.8685 164.6368 L329.8398 164.9492 L329.6515 165.0754 L329.0648 165.0991 L326.6359 166.4714 L323.8524 167.9983 L321.5005 169.246 L320.9414 169.4919 L318.905 170.8404 L318.1894 171.7234 L317.9355 171.9013 L317.4155 171.8079 L316.4363 172.1736 L315.8159 172.2507 L315.3121 172.2121 L314.7323 172.0052 L314.2209 171.6939 L313.3816 170.8563 L312.8911 170.2097 L312.0938 169.2771 L311.2177 168.3419 L310.6843 167.8896 L307.9575 166.5527 L304.8114 165.6106 L303.6047 165.3504 L302.5997 165.3799 L301.2047 165.6 L299.8179 165.581 L298.3899 165.8428 L297.6252 165.8417 L296.7233 165.6998 L295.9693 165.4469 L295.3451 164.6457 L294.6887 163.6292 L293.869 162.6322 L293.0545 161.1359 L291.8581 159.3983 L291.1515 158.6995 L290.1362 157.9337 L289.2399 157.485 L287.8758 157.2607 L286.8282 157.2554 L286.0147 157.0939 L284.8967 156.6843 L284.4255 156.1887 L283.0325 154.9172 L282.3217 154.6939 L281.7505 155.0555 L281.1364 155.7855 L280.2204 156.1898 L279.3585 156.3486 L278.636 156.9081 L277.6204 158.0155 L276.6639 159.1666 L276.3897 159.743 L276.0474 160.9337 L275.6346 161.6547 L275.1926 162.8243 L274.9943 163.8071 L273.7257 165.03 L273.2724 166.0476 L272.9562 167.1829 L271.6571 169.8076 L271.2797 171.0837 L270.8608 172.1393 L270.0232 173.6218 L269.4509 174.1702 L268.7845 174.6426 L266.8832 175.7741 L266.1783 176.0633 L265.6185 176.1699 L264.9517 176.2222 L264.1688 175.934 L263.657 175.6269 L263.2261 175.3197 L260.656 172.922 L259.5946 172.0543 L258.8512 171.2843 L257.2345 169.8799 L257.8525 172.4576 L256.9933 175.0859 L257.6806 180.3108 L255.6151 190.0057 L259.619 197.5893 L262.5645 199.4786 L262.8635 197.9218 L263.6883 199.5049 L263.4821 200.687 L261.5059 200.2754 L258.1962 197.2252 L255.2336 190.4543 L253.8966 190.3434 L255.4604 188.2272 L257.3369 180.6644 L257.1342 177.255 L255.3607 176.0939 L256.9898 172.5895 L255.6587 168.4543 L253.3392 166.6076 L251.6152 164.6516 L249.9775 162.2896 L247.7522 157.4966 L245.1058 154.9198 L243.3516 153.6489 L241.2248 152.2053 L239.6528 151.8078 L238.6393 151.64 L237.7728 151.4251 L233.3214 152.1097 L224.9271 148.5743 L207.1622 148.6482 L206.4256 148.5743 L205.6981 148.3189 L204.734 147.5836 L203.7043 145.59 L203.6476 146.3897 L202.7781 146.8863 L202.3344 146.5337 L201.745 145.4432 L200.9548 141.8022 L200.5149 143.6233 L199.5972 142.8473 L200.862 139.997 L200.0049 137.1571 L192.3537 126.924 L191.401 125.7019 L189.4835 124.2133 L187.5015 122.646 L186.778 122.0928 L185.5472 121.0788 L184.1598 120.0235 L182.8139 118.6267 L182.5585 118.6547 L181.3941 118.7835 L180.44 118.6637 L179.7901 118.8896 L179.6196 119.1662 L179.532 119.332 L181.6783 119.6582 L181.9337 120.0372 L182.9521 121.5211 L183.6666 122.0928 L186.0081 123.033 L188.2112 123.8676 L190.516 126.0889 L191.5944 127.0987 L191.5233 127.3901 L190.6689 128.4258 L188.9192 126.7767 L188.4799 126.0324 L188.1579 125.646 L187.2925 124.8262 L186.5412 124.3928 L186.2659 124.2841 L185.241 123.9478 L184.4622 123.8391 L183.5807 123.6633 L183.2157 123.4331 L182.3444 123.1354 L179.9499 121.3754 L178.5814 120.2516 L178.3497 119.6566 L178.9491 119.2628 L179.2488 118.9171 L180.5486 118.3918 L180.6414 118.2276 L180.4287 118.1104 L178.7969 118.4055 L178.2954 118.2419 L173.9924 109.1425 L174.1237 107.9425 L174.5148 104.3701 L171.157 92.5128 L168.6515 88.8699 L167.6029 87.9576 L167.2249 87.9143 L166.7987 87.5759 L166.6994 87.163 L166.5254 86.935 L164.9813 84.216 L163.1312 80.9648 L162.6751 81.4626 L161.0433 80.0567 L160.5872 80.4257 L160.2322 80.0245 L160.3061 79.4991 L159.3369 78.4015 L159.0712 77.3181 L159.1674 76.9918 L159.3606 75.9131 L158.1528 75.1697 L155.9948 74.354 L153.6942 72.4501 L152.7322 70.9892 L150.7952 69.0895 L149.4981 68.0847 L148.4399 67.4379 L145.0934 65.743 L138.2124 69.2637 L134.106 66.7858 L131.2128 72.7706 L129.3693 73.3683 L125.1405 74.7326 L119.6147 74.9892 L119.6123 74.5393 L120.3636 73.3735 L118.3929 72.7922 L118.9087 70.4078 L119.3696 67.5171 L119.5566 66.469 L119.2459 66.3977 L119.0352 66.0788 L118.807 65.0561 L118.6035 64.7129 L118.3839 64.5476 L118.1726 64.4241 L118.0196 64.1094 L118.1165 63.6189 L118.2389 63.197 L118.7252 61.9356 L118.8407 61.491 L117.9811 61.0945 L118.1021 60.406 L118.0701 60.0612 L117.9619 59.7185 L117.7196 59.4645 L117.6216 59.3304 L117.5048 59.2507 L117.3542 59.0648 L115.8338 58.7443 L116.2672 57.7506 L116.0427 57.3942 L115.8788 56.7943 L115.8362 56.0161 L115.3323 56.4115 L115.0168 56.8376 L114.6044 57.6941 L113.9129 59.4877 L113.5895 59.5897 L113.297 59.4598 L113.1884 59.2121 L113.2334 58.626 L113.7483 56.3461 L114.5422 53.6917 L114.8536 52.7993 L115.1285 51.8727 L115.3801 51.2052 L115.4351 50.5705 L115.3804 49.8841 L115.2835 49.7595 L115.2839 49.5594 L115.3464 49.4152 L115.222 49.0783 L115.0488 48.9278 L114.6484 49.986 L114.3425 50.6825 L114.1463 51.2829 L113.6775 52.4757 L113.4853 53.3237 L112.7117 55.2752 L112.3897 55.5963 L112.0401 55.6718 L111.6686 55.6639 L111.284 55.3661 L111.2658 55.2198 L111.162 55.0772 L111.1187 54.8666 L111.1434 54.4684 L111.2589 53.7186 L111.4823 52.8009 L111.65 52.4561 L111.704 52.2222 L111.6679 51.8346 L111.4655 51.5485 L111.2276 51.2939 L109.9491 54.3375 L108.9053 57.5563 L108.2805 60.9102 L107.5615 62.7815 L106.6621 63.7356 L105.7269 63.989 L105.0079 63.8047 L104.888 63.4821 L105.1832 63.4177 L105.5461 63.1616 L105.6681 62.9061 L105.6544 62.6664 L105.5554 62.4314 L105.4169 62.3184 L105.2165 62.2999 L104.9986 62.2149 L105.3066 60.7117 L105.6867 60.5601 L105.8341 60.3341 L105.9586 60.0849 L105.986 59.6979 L105.7926 59.3848 L105.6204 59.1815 L105.9723 57.2321 L105.9723 56.8588 L106.0785 56.4575 L106.2627 56.2225 L106.3181 55.7478 L106.8298 53.48 L107.1247 52.5998 L107.3642 51.8114 L107.4704 50.9222 L107.2536 50.7099 L105.4746 50.2859 L105.3743 50.5716 L104.1528 50.3319 L103.7242 49.9358 L103.6737 49.2214 L102.2165 48.6633 L101.5243 48.544 L100.3984 52.6652 L99.3446 56.3909 L99.1807 56.826 L98.6534 57.0378 L97.9176 57.202 L96.3748 56.9749 L96.1799 56.7875 L96.0851 56.543 L96.25 55.742 L96.2311 55.4078 L96.2607 55.0925 L96.1139 54.7916 L95.9521 54.7398 L95.7754 54.7636 L95.6273 54.9801 L95.5486 55.1543 L95.3472 55.2879 L94.7904 55.1828 L94.3591 55.0466 L94.0267 55.0017 L93.6909 55.0192 L93.3603 54.9405 L93.1245 54.9627 L92.7506 55.1834 L92.3822 56.1671 L92.0148 57.5943 L91.4817 59.2179 L91.3064 59.6689 L91.0703 59.8357 L90.528 59.851 L89.8179 59.3742 L89.0986 59.1076 L88.6933 58.6355 L88.0565 57.9845 L87.8393 57.9687 L87.8702 57.5637 L88.2201 56.9301 L88.7384 55.045 L89.9172 51.3335 L90.03 50.7464 L90.044 50.5399 L89.9832 50.3979 L89.8619 50.2711 L89.499 50.324 L89.3625 50.523 L88.2359 54.0434 L88.1084 54.687 L88.096 54.9415 L88.0517 55.2351 L87.8901 55.4315 L87.6898 55.5947 L87.4853 55.883 L87.0405 56.2632 L86.9268 55.554 L86.8814 54.9669 L86.7639 54.9199 L86.4821 55.6813 L85.9868 56.5911 L85.7002 56.7801 L85.1107 56.4253 L84.1948 55.7341 L83.9529 55.4849 L84.0061 54.884 L84.2914 53.7065 L84.2275 53.4324 L83.9336 53.1885 L83.6487 53.1436 L83.4249 53.141 L83.1002 52.971 L82.929 52.5675 L82.7747 52.3912 L82.552 52.4503 L82.5018 52.6446 L82.5286 52.9319 L82.874 53.5502 L82.8988 54.4299 L82.8988 55.3571 L82.6049 56.3054 L82.4069 57.1608 L81.9289 58.2274 L80.3623 60.7243 L80.1042 61.2207 L79.9458 61.4076 L79.7361 61.5037 L79.5584 61.4345 L79.4502 61.2444 L79.2326 60.7449 L79.025 60.1541 L79.0278 59.8769 L79.2777 59.0384 L79.2969 58.8362 L79.4251 58.1228 L79.6726 57.108 L79.6705 56.779 L79.5035 56.6185 L79.333 56.6771 L79.1715 56.9359 L78.8941 57.5293 L78.6996 58.0436 L78.4305 58.2163 L78.2383 58.2966 L78.1112 58.2084 L77.9799 58.0252 L77.8716 57.7464 L77.7403 56.7838 L77.5575 56.5578 L77.4114 56.4712 L77.2688 56.5705 L77.0636 56.8714 L76.9 56.9697 L76.6862 56.9897 L76.4536 56.4469 L76.3711 56.0731 L75.3263 55.6438 L74.6251 56.5868 L76.8866 59.209 L75.4242 62.0639 L75.1785 64.5624 L77.4159 65.4278 L76.7388 67.8619 L74.9327 73.2817 L77.2853 73.7965 L73.8941 77.9136 L73.7965 79.9479 L81.8436 79.4247 L84.3034 78.9738 L85.4039 78.8872 L86.0195 78.8392 L86.5773 78.939 L87.5131 79.214 L89.1883 79.7937 L91.9464 80.6221 L96.6996 82.2176 L97.2911 82.3232 L97.8386 82.3375 L98.439 82.2293 L99.0061 82.0038 L100.5623 81.1585 L101.1421 80.7129 L102.7203 79.3122 L103.7015 79.0266 L104.0119 79.0145 L104.7206 79.167 L107.1161 79.2605 L108.9222 79.61 L111.4445 80.1158 L114.6508 81.3391 L116.8487 81.9009 L120.0718 82.5349 L120.7746 82.7572 L121.3527 83.0418 L121.782 83.4425 L122.3972 83.8644 L122.8189 84.6199 L123.3987 84.9065 L123.7414 84.9599 L124.6401 84.4615 L125.4639 83.8591 L126.374 83.5771 L128.3303 83.1379 L129.1208 83.1965 L130.368 83.0756 L132.4824 82.5603 L133.7826 82.8644 L134.5205 82.9409 L134.7432 83.3506 L135.9615 83.4969 L136.7053 83.6553 L136.8376 83.4198 L139.0362 84.0771 L139.903 84.5924 L140.6412 84.9498 L141.8874 85.9271 L142.404 86.5723 L143.1601 87.7971 L143.4007 88.5447 L143.554 90.4047 L143.8155 91.0525 L144.2895 91.8639 L145.2741 93.2809 L146.5602 94.6314 L150.1521 96.7563 L151.2423 97.5947 L151.9335 98.3433 L152.3404 99.2519 L152.5146 100.3695 L152.3957 101.6223 L151.9331 103.0635 L151.055 104.1869 L149.7136 105.1562 L148.7413 105.4956 L147.7765 106.0616 L147.4353 106.7843 L147.2476 108.1489 L146.961 108.5396 L146.9376 109.342 L146.7035 110.619 L146.3946 111.3269 L145.7488 111.8021 L143.5935 112.7565 L141.9359 113.6233 L135.7663 117.8227 L134.3455 118.755 L133.6166 119.4544 L130.1047 121.5116 L129.4047 121.8025 L128.0553 123.0288 L127.2167 124.1299 L126.9985 124.7639 L126.2809 126.2314 L126.0668 127.8451 L126.0045 128.6945 L125.7976 129.1664 L125.7602 130.3842 L126.2737 132.2074 L125.897 133.7387 L125.6615 134.4065 L125.5327 135.3292 L125.2508 136.6625 L125.1512 137.3503 L124.6992 138.1579 L124.1105 138.9745 L123.1811 139.3535 L121.4486 140.7043 L119.991 142.5897 L118.8809 146.9164 L118.0945 148.8208 L116.2991 151.3444 L114.9488 152.5119 L117.3931 158.1617 L117.1635 158.2878 L114.8608 153.2509 L110.906 152.4898 L110.6228 152.0511 L111.7205 152.21 L114.7329 152.3874 L114.9354 152.096 L116.1039 151.071 L117.8533 148.6424 L118.6654 146.7269 L119.6532 142.4921 L120.2849 141.4095 L121.2792 140.3406 L122.2955 139.7484 L122.4343 139.5784 L118.6761 141.1155 L117.5024 142.2773 L115.7554 144.1337 L113.5627 145.6934 L112.7189 145.865 L112.6316 145.6998 L110.4712 145.2501 L109.0442 144.5829 L107.6526 143.5013 L106.2459 141.7763 L104.4508 138.1664 L104.1174 136.0719 L100.1726 131.8701 L96.5927 131.2884 L95.8771 129.9117 L98.0654 127.8652 L100.2341 125.5473 L100.8005 121.9704 L99.3604 121.2313 L99.8766 120.8354 L100.8757 119.1641 L103.9658 120.9463 L110.2553 112.8272 L115.7956 108.5881 L117.5223 108.6372 L119.4384 108.8532 L121.0145 109.1879 L121.5472 110.4527 L121.196 114.1359 L119.2981 118.0445 L118.4633 120.4849 L118.0169 120.9832 L116.3775 122.2792 L115.0292 124.3363 L112.1663 135.0668 L109.5205 134.2713 L107.5271 131.4658 L104.4408 131.528 L104.4525 133.5936 L104.8996 136.501 L105.4506 137.2173 L105.2595 137.7932 L105.8276 139.277 L106.4029 140.3897 L107.0656 141.409 L108.3888 142.983 L109.7824 144.1046 L110.577 144.4393 L111.5218 144.5855 L112.3295 144.5644 L112.4371 144.8294 L113.254 144.7871 L115.3189 143.6021 L117.059 141.646 L118.298 140.4208 L118.9311 140.0545 L119.9642 139.5984 L122.7354 138.6921 L123.5489 138.301 L124.1789 137.6692 L124.4999 137.1513 L124.7662 135.9668 L125.0178 134.0982 L125.1879 131.8421 L125.056 130.0194 L125.3058 127.1636 L125.5285 125.8825 L125.7966 125.1609 L126.2596 124.2455 L127.5742 122.3684 L128.6389 121.3918 L131.3472 119.6783 L133.6901 118.0576 L137.228 115.2429 L138.1557 114.5677 L139.573 113.9168 L141.5434 112.5279 L143.0429 111.9013 L143.3825 111.5033 L143.9155 111.5909 L145.3491 110.7008 L145.5673 110.2204 L145.9536 109.7638 L146.2231 108.4752 L146.3925 108.2191 L146.2932 106.5499 L146.5097 105.806 L147.0771 104.9286 L148.1292 104.1368 L148.9874 103.7445 L150.2834 103.3676 L150.8649 102.959 L151.3447 101.9865 L151.5698 100.9075 L151.5554 100.2027 L151.1997 99.1326 L150.5278 98.2799 L149.3915 97.4954 L147.9621 96.7336 L146.7675 95.9782 L144.6424 94.2259 L143.4419 92.7524 L143.0618 92.1041 L142.8491 91.3687 L142.6147 90.1819 L142.5074 88.8551 L142.2469 88.0658 L141.2678 86.7945 L140.4536 86.1736 L139.4369 85.6135 L137.8302 84.9831 L136.3836 84.6373 L135.0656 84.4731 L132.7704 84.3907 L127.1999 84.5787 L126.198 84.8363 L124.9508 85.6916 L124.0455 86.2254 L123.0646 86.2069 L122.0748 85.926 L121.0967 84.8305 L120.2474 84.028 L118.1038 83.3311 L116.7628 83.0149 L115.7025 82.6754 L114.5858 82.1807 L111.1751 80.8301 L108.8617 80.2214 L107.2333 79.9226 L103.9971 79.6913 L103.4558 79.8698 L102.2257 81.0588 L100.0526 82.4737 L99.06 82.9827 L98.0699 83.2604 L97.5695 83.4599 L96.9721 82.8332 L95.7946 82.5466 L94.3597 82.0429 L90.0843 80.6427 L89.3288 80.4611 L87.8176 79.9109 L85.6304 79.4991 L84.4381 79.6179 L80.7775 80.1918 L74.9929 81.4368 L79.3921 84.3453 L76.3367 88.2976 L77.6792 88.7458 L77.7778 93.0296 L77.8008 93.5422 L82.7431 94.8304 L83.781 97.4965 L84.0549 98.4959 L84.5976 100.4777 L84.4811 102.9431 L84.71 105.0374 L82.1117 107.3576 L78.9164 106.6301 L77.0736 104.8199 L76.1185 102.6808 L78.5844 99.8347 L77.7417 98.923 L73.9068 102.1993 L70.3909 105.3045 L69.7461 107.1586 L69.0663 108.7354 L68.093 109.1319 L66.9712 109.2591 L66.5316 109.8393 L62.9772 109.6112 L63.8711 109.8646 L64.3189 110.241 L64.2072 110.7827 L63.192 114.0103 L61.9581 113.598 L61.6358 113.3525 L60.5452 116.078 L59.1739 115.5238 L57.7459 115.5143 L58.6003 117.5625 L61.0017 120.3482 L59.009 123.9911 L55.1108 121.2018 L52.0369 122.1108 L50.2645 125.6127 L48.9543 127.7015 L48.2962 129.1563 L58.0834 134.407 L76.89 136.946 L72.2984 140.6621 L59.1145 142.9793 L52.892 147.8211 L51.9376 148.2413 L50.5453 149.3682 L47.1208 146.6135 L42.6793 144.2197 L48.4601 152.9817 L46.563 153.0503 L42.3528 144.2197 L41.3286 144.2197 L41.3286 147.1756 L39.4039 148.6641 L38.5791 148.5796 L39.2286 148.9702 L39.0087 151.8785 L38.555 153.5887 L37.5411 153.5887 L36.7781 159.2891 L39.2664 161.2525 L41.6991 162.4469 L41.8517 162.5356 L43.3938 163.0945 L45.0514 163.872 L46.2323 164.432 L46.698 166.5696 L46.111 168.772 L46.9994 169.5917 L42.8958 170.3464 L38.9245 171.6712 L39.4977 168.981 L38.3416 169.046 L38.5131 166.0988 L37.8126 165.9098 L36.8352 165.7942 L36.8366 167.9714 L37.5586 168.9921 L37.0589 172.0374 L34.472 173.1384 L34.4857 174.7006 L38.9228 174.9064 L48.0374 170.6103 L53.3749 171.402 L52.4572 173.2492 L44.3496 176.3578 L39.607 180.1984 L39.1757 180.6264 L38.9124 180.761 L37.981 181.4983 L33.9564 186.8286 L35.5305 188.2325 L33.4437 189.7181 L33.1123 190.0817 L32.6277 190.7013 L32.293 190.5377 L29.5194 192.5125 L23.7592 188.0319 L22.302 184.9551 L18.5592 183.071 L10.3107 180.0469 L13.6953 182.5105 L15.3182 183.3444 L18.2671 185.2971 L17.989 185.6206 L20.2395 187.2508 L20.4388 187.2234 L20.4615 187.4123 L22.3776 188.8024 L22.0957 193.6788 L25.5223 198.212 L18.8201 199.3076 L18.5932 199.4553 L18.2729 199.5123 L18.0485 199.4601 L18.011 199.4395 L17.8447 199.4669 L14.0947 197.1038 L8.7943 200.5504 L8.6898 201.4264 L8.4327 202.5657 L5.09 207.6054 L3.9937 213.8218 L0.0 214.1806 M39.021 156.716 L40.4302 149.8596 L41.286 149.8596 L42.1383 149.9493 L41.2756 155.6181 L39.021 156.716 M70.549 225.9459 L71.2343 225.281 L71.2697 225.2261 L72.9064 223.6584 L73.338 223.1112 L73.3659 222.9608 L73.5315 222.7133 L75.1125 221.4463 L75.5541 221.2358 L76.8887 221.106 L77.8651 221.334 L78.1816 221.7234 L78.4037 221.868 L78.7092 222.8648 L78.9336 223.9212 L79.1395 224.4451 L79.3942 224.8836 L79.278 225.2731 L79.2089 225.3491 L79.2629 225.4873 L76.8296 228.828 L76.0758 228.0275 L75.5005 227.8465 L75.1307 227.4803 L74.918 227.217 L74.1584 226.9548 L73.8855 227.1753 L73.0789 227.5252 L72.9277 227.4761 L72.7524 227.2946 L72.6761 227.131 L72.553 227.1595 L72.5297 227.2603 L72.5719 227.4888 L72.3107 227.703 L71.7333 227.6766 L70.8556 227.0798 L70.7593 226.4983 L70.7858 226.3147 L70.549 225.9459 M77.4784 215.3125 L77.5719 214.9896 L77.7259 214.808 L77.9782 214.303 L77.9641 213.9996 L77.7506 213.3679 L77.7434 213.3268 L77.5245 213.0751 L77.673 212.9579 L77.5461 212.6804 L77.487 212.4049 L77.7104 212.0978 L78.0486 211.6988 L78.9426 210.9432 L79.4313 211.3405 L79.9221 211.9136 L80.5356 212.4281 L80.8761 212.3579 L81.6457 211.9474 L81.8629 211.8841 L82.0938 212.1674 L82.5633 212.6666 L82.5942 212.6914 L82.8104 212.5843 L84.223 213.8772 L82.8207 217.4074 L81.7484 219.2966 L79.6279 218.8955 L77.9232 219.2543 L77.6245 216.5621 L77.5499 216.3832 L77.4784 215.3125 M91.9261 210.1289 L91.9694 209.7769 L92.4616 208.8392 L92.7331 208.2772 L93.4232 207.4292 L93.4778 207.54 L93.936 206.8576 L93.9198 206.2022 L93.9374 206.0318 L94.3381 205.675 L94.8155 206.1167 L99.6202 208.7585 L102.3869 213.2967 L102.222 213.3183 L102.3165 213.7621 L102.2378 214.1553 L102.0374 214.1737 L101.1019 213.7331 L100.2021 213.5801 L99.17 213.7136 L98.4868 213.3511 L97.4296 213.2867 L96.8102 213.016 L96.2143 212.3859 L95.6097 212.2434 L95.5678 212.1569 L95.4063 211.7152 L95.3241 211.6714 L95.2547 211.7057 L95.3826 212.2302 L94.8632 212.2693 L94.4769 212.4059 L94.07 212.73 L93.6143 213.397 L93.2153 213.654 L93.0324 213.6803 L92.2815 213.2218 L92.2502 212.8867 L92.1928 211.5009 L91.9732 210.6529 L92.0261 210.5347 L91.9261 210.1289 M101.8793 188.5 L102.4876 187.7374 L103.6875 186.5859 L104.2353 185.8006 L104.3456 185.6423 L104.4016 185.6481 L104.6096 185.6697 L104.9801 185.5684 L105.2059 185.1324 L105.2591 184.8622 L105.2767 184.773 L105.5413 184.3482 L105.8609 184.1561 L106.1538 184.0421 L106.9752 183.7223 L107.1618 183.7334 L107.3625 184.0009 L107.6399 184.183 L107.7921 184.1682 L107.9949 184.1007 L108.1736 183.9339 L108.1513 183.6932 L107.8915 183.3555 L107.7636 183.0525 L107.9124 182.6098 L107.9458 182.1015 L107.8911 181.6682 L107.9025 181.3331 L107.2663 181.0354 L106.8645 180.4486 L106.6538 179.2579 L106.7006 178.5861 L107.2085 177.3089 L107.5643 176.789 L108.0853 176.1589 L108.4427 176.0158 L108.8517 175.9156 L109.2343 175.4838 L109.6013 175.392 L109.9244 175.648 L110.5028 175.8844 L110.8046 175.8607 L111.2545 175.4849 L111.6325 175.259 L111.9628 175.3329 L112.5512 175.4253 L113.0726 175.3097 L113.562 175.4068 L113.6661 175.8116 L113.7459 176.5146 L113.839 176.9225 L113.5218 177.9322 L113.3276 178.7032 L113.1636 179.0378 L113.0877 179.3165 L112.9028 179.5012 L112.6553 179.6907 L112.4976 180.0491 L112.511 180.7193 L112.2907 180.9331 L112.1477 180.9463 L112.0003 180.9119 L111.6267 180.5124 L111.4225 180.3863 L111.1754 180.2924 L110.9365 180.229 L110.5812 180.3958 L110.1378 180.4802 L109.8182 180.7832 L109.2982 181.275 L109.1377 181.427 L108.4905 182.1311 L108.4091 182.3295 L108.473 182.557 L108.5458 182.6657 L108.7655 182.9919 L108.938 183.4146 L108.8796 183.8584 L108.5125 184.3551 L108.2719 184.6385 L107.9451 184.9994 L107.001 185.7314 L105.8362 186.5938 L104.8697 187.4424 L104.0872 188.1691 L103.2963 188.8151 L102.9173 188.757 L102.5059 188.6937 L101.8793 188.5 M104.2016 279.7096 L107.3498 279.3456 L109.5425 277.5677 L110.0512 278.0267 L110.8486 279.2928 L108.099 282.8064 L104.6347 281.6457 L104.2016 279.7096 M112.9753 169.6276 L113.1681 168.0088 L113.3678 167.452 L113.4187 167.3106 L113.5726 166.881 L114.0249 166.4081 L114.6989 165.838 L115.953 165.4116 L116.1242 165.3535 L118.5176 164.0763 L118.8369 164.0361 L119.1541 164.3449 L118.8617 165.0616 L118.7599 165.6528 L118.9562 165.9726 L120.024 166.721 L120.986 166.9453 L121.7146 167.726 L121.9243 167.8822 L122.0855 167.9292 L122.3247 167.8621 L122.3401 167.8579 L122.6367 167.6726 L123.0364 167.6732 L124.1493 168.9499 L123.918 169.1536 L123.8936 169.1753 L123.1316 170.5866 L122.6756 171.6062 L122.3748 172.0538 L121.9146 172.4686 L121.4489 172.827 L121.2207 173.1822 L120.8293 173.5717 L120.355 174.1454 L120.0821 174.6853 L120.0759 175.382 L120.0275 176.1874 L119.9216 176.4787 L119.6099 176.503 L119.3442 176.4565 L119.1105 176.5499 L118.984 176.9764 L119.1944 177.4477 L119.1256 178.0356 L119.0878 178.2441 L118.9964 178.8632 L118.8943 179.2252 L118.9885 179.421 L119.9384 180.4855 L119.3566 181.0217 L118.7476 181.474 L118.4754 181.6144 L116.8212 180.0981 L116.272 179.5946 L115.599 178.9049 L115.3392 178.6674 L115.2203 178.5465 L115.2491 178.3132 L116.2238 177.3975 L116.5469 176.9906 L116.6081 175.6965 L116.3761 173.6794 L115.9864 172.5051 L114.9024 170.3617 L114.6762 169.978 L114.8109 169.8529 L115.0563 169.6181 L115.011 169.284 L114.8367 169.2001 L114.5968 169.2275 L114.3882 169.4413 L114.2521 169.8989 L114.2401 169.9395 L113.6345 170.205 L113.209 170.1691 L113.0571 170.0867 L112.9753 169.6276 M114.3514 304.0602 L114.4308 303.7907 L114.7164 303.6973 L114.9941 303.7184 L115.8626 303.7089 L116.1561 303.759 L117.048 303.7358 L117.5721 303.8055 L117.9701 303.7923 L118.3887 303.6852 L118.2588 303.5528 L119.4686 303.2927 L119.8828 303.0601 L120.3113 302.5099 L120.8588 302.4207 L121.3424 302.4054 L121.6369 302.3094 L122.102 302.3516 L122.4346 302.3606 L121.1867 300.8957 L123.4155 299.7256 L123.3523 299.6618 L123.2059 299.4661 L123.0842 299.2345 L123.6946 298.6959 L123.8709 298.4981 L124.2627 298.1663 L125.0917 297.8814 L125.1842 297.873 L125.3247 297.883 L125.4213 297.921 L125.6808 298.2016 L125.7794 298.2623 L125.9368 298.2011 L126.1458 298.0323 L126.2187 297.8972 L126.4338 297.758 L126.7043 297.6836 L127.1583 297.8049 L127.4625 298.1948 L127.5522 298.3915 L127.5051 298.7006 L127.4982 298.726 L127.8886 298.9438 L127.3016 300.2352 L129.6078 301.4337 L129.8446 301.5783 L129.914 301.8146 L129.8838 301.8531 L130.5316 302.1881 L129.4476 302.8855 L129.7989 303.0258 L130.2804 303.3017 L131.5795 303.6261 L132.2257 303.8846 L132.6611 304.0202 L133.0519 304.0835 L133.134 304.2523 L133.044 304.3562 L132.8436 304.6511 L132.5504 304.8689 L132.2226 305.0235 L131.9586 304.9438 L131.5537 304.8816 L131.1619 304.8563 L130.4158 305.0071 L128.6894 305.4429 L127.5896 305.1474 L129.3493 307.1203 L127.4418 307.1784 L120.8362 305.2952 L117.9059 305.0077 L117.4123 305.235 L117.3872 305.2719 L117.9182 306.4187 L116.4857 305.7034 L115.6485 305.5394 L115.3663 305.3178 L114.5628 304.4928 L114.3514 304.0602 M114.8797 277.4511 L117.4577 277.9686 L117.7326 277.9845 L123.2303 278.7521 L123.4447 280.7594 L121.1523 285.9348 L120.0099 279.2248 L117.0425 280.636 L115.6764 280.0119 L114.8797 277.4511 M130.1707 198.5207 L132.6144 196.8425 L133.4427 196.8373 L134.1575 197.6869 L133.2055 200.7741 L133.4976 208.0461 L130.1707 198.5207 M135.3639 283.3445 L139.4228 280.6592 L141.1069 278.4487 L141.2684 278.3749 L142.8666 280.0103 L137.1992 283.7823 L135.3639 283.3445 M137.0847 188.5729 L137.5889 188.3739 L138.8712 187.7 L139.4249 187.5195 L140.9973 187.1036 L141.5173 186.9231 L142.4236 186.7526 L142.4755 186.959 L142.6346 187.5907 L142.8584 187.8984 L143.1261 187.9163 L143.4471 187.8435 L144.9906 187.2176 L145.8134 187.0028 L145.9323 186.9717 L146.0306 187.0603 L146.2086 187.2208 L146.2437 187.2524 L146.2272 187.2809 L146.0189 187.6456 L146.0117 187.8224 L146.1626 188.2705 L146.2976 188.5438 L146.7053 188.8257 L148.4261 188.9006 L148.6289 188.8621 L148.8238 188.7148 L148.7763 188.5037 L148.8842 188.2588 L149.0767 188.0156 L149.0252 187.7575 L148.8925 187.4414 L148.8217 187.1854 L148.8829 186.9358 L149.2114 186.7447 L149.4424 186.7141 L149.5957 186.9532 L149.9153 187.1669 L149.9734 187.1574 L150.4312 187.0814 L151.5623 186.6661 L152.7085 186.2112 L153.9231 185.7874 L154.818 185.3019 L154.8854 185.2654 L154.8912 185.2871 L154.9871 185.6502 L155.1792 186.008 L155.37 186.2001 L155.7161 186.5489 L156.1739 187.3416 L156.3705 188.1491 L156.4894 190.0242 L156.4042 190.7176 L156.1436 191.239 L155.7786 191.8459 L155.3607 191.9789 L155.0267 191.9066 L154.9799 191.8734 L154.6115 191.6127 L154.5355 191.5588 L154.1506 191.144 L153.7309 190.5551 L153.1381 190.0189 L152.8676 189.8685 L152.4871 189.6574 L151.9537 189.6605 L151.6468 189.7635 L151.255 189.8949 L150.3614 190.0537 L148.6285 190.2347 L147.7827 190.3983 L147.7319 190.3857 L147.7243 190.3931 L147.3174 190.4759 L146.9455 190.5519 L146.4606 190.7546 L146.3361 191.0522 L146.4396 191.2617 L146.4709 191.3256 L146.6028 191.5979 L148.5646 193.9036 L148.8351 194.2545 L148.8378 194.2614 L148.9392 194.3121 L149.0135 194.4408 L149.1644 194.6145 L149.2166 194.8393 L149.4042 195.0614 L149.5744 195.3274 L149.6445 195.5396 L149.6613 195.5902 L149.7263 195.6646 L150.1129 196.1011 L150.435 196.2779 L151.6929 195.8029 L152.8923 195.2092 L153.2068 194.9126 L153.5381 194.796 L153.9471 194.7596 L154.0959 194.881 L154.1128 194.8947 L154.2867 195.3834 L154.3118 195.7385 L154.3018 195.8805 L154.2846 196.1269 L154.175 196.4431 L154.0416 197.4331 L153.6959 197.9302 L153.3443 198.4996 L153.124 199.069 L153.0436 199.1097 L152.749 199.259 L152.4559 199.2981 L152.1125 199.1872 L151.1722 199.1677 L150.9938 199.2907 L150.8924 199.3609 L150.6701 199.6137 L150.3446 199.9846 L149.7552 200.8026 L149.6888 201.381 L149.7136 202.2602 L149.3963 202.6961 L149.1458 202.952 L148.7526 203.1858 L148.1869 203.3705 L147.6239 203.446 L147.1521 203.3594 L146.7506 203.1346 L146.707 203.085 L146.488 203.3362 L145.5646 203.1256 L145.1099 203.1399 L144.197 203.2069 L143.7633 203.084 L143.6292 202.8454 L143.5433 202.4903 L143.687 201.981 L143.8482 201.686 L143.8042 201.2116 L143.6567 200.7831 L143.5595 200.4216 L143.5877 200.3377 L143.9124 199.9551 L143.9753 199.8759 L144.0602 199.8823 L144.0582 199.7509 L144.0166 199.5282 L143.9578 198.7339 L143.7853 198.7693 L143.643 198.8733 L143.5234 199.0178 L143.2807 199.0168 L142.9357 198.6294 L142.6301 198.1529 L142.2074 197.5967 L141.7455 196.8726 L140.168 195.0377 L139.1908 193.9854 L138.6942 193.3505 L138.3598 193.0766 L137.7546 192.447 L137.2229 191.6866 L137.1885 191.4427 L137.5205 191.106 L137.6381 190.9424 L137.9268 190.5197 L137.8941 190.1698 L137.5023 189.4822 L137.1706 188.9845 L137.0847 188.5729 M137.3401 179.5535 L139.4022 179.1524 L139.7906 178.994 L140.1274 178.9149 L141.8046 180.3398 L138.3643 182.8045 L137.6528 180.6354 L137.3401 179.5535 M137.4281 124.017 L139.6535 121.036 L142.1308 119.248 L143.4667 118.2055 L145.4175 117.3445 L147.9154 116.825 L149.9294 116.2549 L150.4484 116.2121 L155.5522 114.0557 L156.3234 114.5392 L157.0496 114.5751 L158.2755 116.7142 L159.5754 116.8155 L159.4094 115.9487 L161.0213 115.4636 L161.6784 116.4486 L162.5187 117.9901 L161.9121 118.3464 L160.7185 118.4657 L160.073 118.0598 L159.5108 117.6913 L158.8629 118.1791 L158.3979 117.3888 L157.7734 117.0019 L156.9613 116.947 L155.9037 117.0151 L154.9119 117.2225 L154.1423 117.4669 L150.1707 119.5009 L150.2483 122.2105 L149.4073 123.5266 L145.8124 127.8129 L143.7492 128.9769 L142.4456 128.8903 L140.4154 126.9277 L139.4916 126.4098 L138.6317 125.3747 L137.4281 124.017 M141.9208 271.183 L141.962 270.9123 L142.0631 270.7219 L142.1847 270.6533 L142.3573 270.6179 L142.5741 270.7023 L143.1484 271.0711 L143.445 270.7994 L143.1092 270.4554 L143.8104 269.9959 L144.8669 269.2489 L145.2652 269.1301 L145.6106 268.9439 L146.0519 269.1185 L146.7255 269.548 L147.2912 269.682 L148.0243 269.5865 L149.2224 269.0758 L150.2078 269.0009 L151.8688 269.2773 L153.4605 269.6197 L154.6208 269.7896 L155.5332 269.6076 L155.7979 269.5559 L156.2804 269.4704 L156.5382 269.4082 L157.2156 269.29 L157.8208 269.1729 L158.1253 269.0368 L158.5797 268.8183 L158.9959 268.5815 L159.9833 268.0201 L160.5793 267.7458 L161.1873 267.3126 L161.5684 267.1148 L161.8788 267.1786 L161.9276 267.3031 L162.0327 267.665 L162.606 268.2591 L163.7687 269.013 L164.6193 269.3718 L166.3179 270.161 L167.1496 270.6264 L167.2063 270.7208 L168.4199 271.0627 L167.8047 274.1754 L166.0312 275.5524 L163.7471 274.6286 L163.2195 274.6339 L161.1594 280.0092 L161.2794 280.0958 L161.4127 280.2298 L161.6423 280.3543 L162.7779 280.589 L162.8325 280.6566 L162.8676 280.7753 L162.7968 281.0501 L163.8041 281.44 L163.1236 283.5766 L164.8249 283.9353 L164.7314 284.2171 L164.7802 284.4191 L164.3973 285.9875 L165.3198 286.1511 L165.7047 283.1335 L166.7598 282.78 L166.4952 286.2618 L165.5226 286.2618 L163.5601 286.7419 L161.5976 286.6575 L163.4364 288.8996 L166.6399 290.1135 L167.5428 290.3466 L168.5766 290.833 L168.5914 290.8578 L170.0146 291.4001 L169.2973 292.2927 L168.9931 292.8857 L168.2415 293.6337 L167.8404 293.6205 L167.2726 293.2054 L163.1511 292.9616 L162.1716 292.7243 L162.0651 290.746 L159.6902 289.1475 L156.0814 287.1165 L154.8442 288.1083 L155.236 285.8082 L153.8062 285.4916 L150.4862 284.5895 L147.393 282.0625 L145.7089 283.3234 L145.1075 282.1839 L146.5716 281.3556 L153.2357 284.906 L155.5016 284.9409 L157.1771 283.1646 L157.1751 283.0148 L156.4148 281.9306 L156.8152 281.0 L156.6196 280.2039 L156.7155 279.8552 L156.8619 279.6706 L153.4591 280.4587 L148.7677 278.4223 L144.5132 276.8607 L144.273 276.952 L143.7602 276.7521 L143.8117 276.1701 L143.8286 275.9866 L143.8523 275.9301 L143.531 275.5508 L143.3763 274.7657 L143.0154 273.3962 L142.8525 273.1777 L142.7116 272.9577 L142.4311 272.3141 L142.215 271.9274 L142.0318 271.6108 L141.9208 271.183 M146.1179 292.7348 L146.4513 290.8726 L148.8674 287.5385 L149.0736 287.0373 L149.3829 286.5309 L153.5931 288.6147 L151.2217 289.4852 L154.2943 290.7829 L152.6102 291.7114 L149.1802 290.6141 L150.9536 293.0091 L148.8262 294.175 L147.0974 293.3098 L146.1179 292.7348 M156.5093 293.5108 L156.5354 293.2317 L156.652 293.0555 L156.7884 292.5792 L156.7042 291.5721 L156.9053 290.6721 L157.0919 290.5307 L157.3496 290.4448 L157.6363 290.4606 L157.7078 290.5212 L157.738 290.4822 L161.9104 293.7793 L158.8859 296.2851 L158.27 295.6225 L158.1319 295.6916 L157.9899 295.7291 L157.7889 295.6505 L157.5559 295.4658 L157.3775 295.2828 L157.362 295.0649 L156.818 294.1201 L156.6736 293.9049 L156.5867 293.811 L156.5942 293.7862 L156.575 293.7572 L156.5093 293.5108 M161.7447 228.942 L161.8863 228.7763 L162.2077 228.5029 L162.3957 228.2528 L162.4235 228.2159 L162.6493 227.7848 L162.7971 227.3473 L162.8744 227.0392 L162.9363 226.5284 L163.2711 226.4492 L163.6574 226.5136 L164.3083 226.3622 L165.251 226.0735 L165.7192 225.844 L165.8807 225.7854 L166.7437 225.4804 L167.3943 225.2583 L169.9046 224.3043 L170.506 224.3517 L171.2175 225.5865 L170.9721 225.5411 L171.0099 225.6108 L170.8174 225.6862 L170.1548 225.815 L169.8685 225.9559 L169.4963 226.369 L169.3712 226.6788 L169.0711 226.836 L168.6367 227.1722 L168.2405 227.3252 L168.1642 227.3542 L167.7139 227.4682 L167.1128 227.5642 L166.4918 227.6634 L165.118 228.5262 L164.8854 228.7087 L164.498 229.0127 L163.8055 229.6876 L163.1484 229.1641 L163.3573 229.6722 L163.4467 229.8168 L163.4642 229.9166 L163.5381 230.0859 L163.1707 230.2991 L163.1501 230.2822 L163.0212 230.3519 L162.8067 230.2912 L162.7053 230.1719 L162.3276 229.8928 L162.0266 229.468 L161.8021 229.0987 L161.7447 228.942 M168.1435 281.3408 L168.3456 280.9546 L168.6398 280.6529 L169.0708 280.7726 L169.4533 281.0179 L169.7912 281.2063 L170.0981 281.278 L170.6738 281.0237 L170.8686 280.6671 L171.0219 280.2488 L171.0261 279.8679 L171.3447 279.4168 L172.0138 278.2308 L172.418 277.6315 L172.5342 277.506 L173.6852 274.9351 L174.1766 274.9298 L174.4825 275.6579 L177.7166 275.1778 L176.8815 279.9312 L172.9359 278.4656 L172.7067 279.0085 L172.6252 279.6378 L172.6771 280.4149 L172.5156 280.8312 L172.2159 281.2606 L171.9193 281.7296 L171.732 282.2883 L171.1501 282.4835 L170.4933 282.5711 L169.4104 282.4856 L169.0784 282.3564 L168.656 282.1153 L168.415 281.8969 L168.1435 281.3408 M169.5049 227.8201 L169.5506 227.5964 L169.665 227.4476 L169.8537 227.3822 L170.0843 227.3389 L170.128 226.8107 L171.4581 226.1353 L173.7058 225.5865 L174.2901 227.465 L175.3658 226.5152 L176.7131 223.0273 L180.0468 221.9772 L180.4077 221.9244 L181.8753 222.2305 L181.645 225.2593 L182.9063 225.6234 L181.7687 228.837 L178.5587 230.784 L180.8511 227.2328 L180.473 224.6631 L174.7162 227.7236 L174.0289 227.5231 L172.6878 227.913 L172.2077 228.2676 L171.5701 228.618 L171.1329 228.6681 L170.6184 228.5045 L169.9733 228.6892 L170.008 228.2681 L169.8891 228.2222 L169.6839 228.0602 L169.5049 227.8201 M177.3626 210.9326 L177.795 210.6482 L177.7998 210.5833 L178.3308 210.0091 L179.4547 209.4181 L180.0561 209.1611 L180.5074 208.864 L179.8784 208.1569 L186.4017 207.8402 L187.7695 204.6106 L189.8385 204.0143 L191.6498 203.9827 L194.6021 205.7505 L196.9632 206.1146 L196.6058 207.1384 L195.561 207.4603 L195.9528 209.9247 L191.6326 211.0487 L187.8451 216.3573 L184.7416 215.6027 L184.9719 217.6713 L184.4461 217.2053 L184.4299 217.3879 L184.046 217.4876 L183.8267 217.5446 L183.4638 217.3652 L183.3208 217.1631 L183.2462 216.6697 L183.2112 216.2914 L183.0985 215.8444 L183.0046 215.5531 L182.8297 215.2027 L182.5413 215.0149 L182.441 214.9985 L182.52 214.9589 L181.4182 215.0803 L181.3439 215.0043 L181.2102 215.0054 L181.0226 214.9727 L181.1092 214.8212 L181.0435 214.6972 L180.9521 214.5115 L180.5882 214.2318 L179.7186 213.5347 L179.0072 212.6144 L177.3626 210.9326 M178.0156 221.7292 L179.0708 217.6818 L179.442 217.4233 L181.9853 219.4865 L181.7241 221.059 L178.0156 221.7292 M186.4419 235.8042 L186.634 235.3673 L187.0248 234.6111 L187.3492 234.2186 L187.5836 234.0297 L187.8603 233.8893 L188.4222 233.7463 L188.6958 233.7257 L189.4216 233.7147 L189.5901 233.8376 L189.6385 233.9373 L189.6303 233.9764 L189.6258 234.0793 L189.4931 234.1568 L189.3278 234.2202 L188.6178 234.4138 L188.4201 234.5315 L188.3559 234.6064 L188.3308 234.7077 L188.3377 234.8206 L188.4026 234.9272 L188.6394 234.905 L188.846 234.7694 L189.4959 234.4444 L190.0716 234.2961 L190.1733 234.3357 L190.2568 234.4186 L190.2709 234.5695 L189.0127 235.3974 L188.1194 236.0622 L187.5441 236.4162 L187.0048 236.6848 L186.734 236.7809 L186.6161 236.7682 L186.5615 236.6795 L186.5429 236.3809 L186.4474 236.1181 L186.4419 235.8042 M189.2508 173.5844 L190.031 169.7052 L191.9282 162.1313 L197.1041 155.5706 L199.3793 151.232 L200.4379 147.6533 L200.053 144.1854 L200.3863 145.4364 L200.541 148.7142 L201.4975 149.4996 L201.6958 149.8491 L200.2695 149.8596 L198.3242 154.4728 L195.2448 158.5528 L192.4162 162.031 L191.4195 165.0289 L189.8454 172.4655 L189.2508 173.5844 M190.6565 324.1108 L195.066 321.3837 L195.1417 321.3521 L201.3521 324.3218 L207.9681 322.9029 L209.3807 324.9917 L206.4525 327.0013 L193.492 328.8264 L190.6565 324.1108 M252.3658 216.3573 L254.7957 214.5526 L260.2947 214.2835 L267.1685 212.3891 L269.0072 211.0065 L270.0039 207.2281 L268.2752 200.9535 L268.8148 194.9427 L268.2683 193.5178 L267.4297 192.246 L263.9035 192.684 L263.278 193.6392 L262.7109 195.1116 L262.4428 194.9533 L263.6904 192.6523 L265.1064 191.581 L266.1924 191.6918 L267.8353 192.3251 L269.0622 194.7844 L269.4094 197.0906 L268.478 200.5894 L270.657 207.2492 L271.6365 208.6371 L275.149 210.0513 L285.7277 210.6002 L286.5904 212.0249 L287.453 213.4497 L288.3054 213.4708 L287.484 214.1199 L286.8447 212.8957 L282.9782 211.3231 L278.3968 211.1595 L273.8154 210.9959 L273.4477 209.7558 L272.8188 209.7558 L271.0694 208.6951 L270.8907 209.4867 L268.8801 211.5078 L267.739 212.7321 L252.3658 216.3573 M269.3258 331.8614 L269.7314 330.7184 L270.2476 329.52 L273.9168 325.6299 L280.683 322.5511 L280.6463 322.2193 L276.4612 322.6982 L275.4102 322.1454 L276.4612 322.0347 L281.1257 321.7398 L281.1807 322.9013 L275.1335 325.7591 L273.5848 326.736 L270.5796 330.1471 L270.0266 331.806 L270.3683 333.8741 L275.5944 339.8818 L277.9981 345.1034 L281.734 357.0093 L280.6463 359.2218 L281.1625 357.1385 L277.1802 344.9699 L274.8018 340.1397 L270.0899 334.6442 L269.3258 331.8614 M291.1408 305.7805 L298.3926 303.2115 L297.9768 299.3184 L297.585 298.659 L296.956 294.4387 L297.6812 292.6346 L297.4922 291.5109 L296.602 288.8468 L296.8288 285.5866 L296.4611 284.2202 L295.43 281.5139 L295.7497 281.5139 L297.1863 285.2278 L296.9526 288.831 L297.8737 292.7981 L297.2825 294.539 L297.499 297.7147 L298.3342 299.656 L298.5679 303.011 L300.2692 307.057 L301.9876 307.421 L301.613 309.1407 L301.7986 309.4572 L301.2212 309.2673 L295.6706 307.421 L291.1408 305.7805 M309.9749 195.7712 L310.1743 195.7712 L314.2539 199.5498 L317.0824 201.3124 L327.1422 202.0301 L330.3763 203.8771 L334.9474 206.9379 L332.7409 207.3864 L326.9704 204.5315 L317.6839 202.6845 L315.2849 202.2834 L309.9749 195.7712 M335.4629 195.5074 L336.1675 195.5074 L338.3293 196.0721 L340.1439 201.666 L339.3981 203.8666 L337.5628 206.0619 L338.2949 202.9642 L335.4629 195.5074 M340.7141 360.8947 L344.7178 358.3489 L347.5827 355.7615 L348.7874 352.7742 L347.7635 352.3713 L345.8114 349.8027 L345.667 351.2742 L345.6395 348.1097 L345.8423 348.9378 L346.0451 349.7711 L347.8185 352.2025 L353.7746 354.5389 L352.9189 354.6022 L349.6236 353.1075 L348.1931 355.8448 L345.5165 358.744 L341.1131 361.4189 L340.7141 360.8947 M158.0556 234.5863 L158.1034 234.6808 L158.9011 234.3341 L158.854 234.2307 L158.0556 234.5863 M478.8375 264.0115 L478.8756 264.2062 L479.0774 264.0115 L478.8375 264.0115" stroke-dasharray="" fill="none" fill-opacity="1.0" stroke="#ff0000" stroke-opacity="1.0" stroke-width="1.0px" stroke-linecap="butt" stroke-linejoin="miter" stroke-dashoffset="0.0px"/>
</g>
</svg>