<?xml version="1.0" standalone="no"?>
<!DOCTYPE svg PUBLIC "-//W3C//DTD SVG 1.1//EN" "http://www.w3.org/Graphics/SVG/1.1/DTD/svg11.dtd">
<svg width="512px" height="512px" version="1.1" xmlns="http://www.w3.org/2000/svg" xmlns:inkscape="http://www.inkscape.org/namespaces/inkscape">
<g id="layer" inkscape:groupmode="layer" inkscape:label="layer">
<path d="M0.0 242.996 L0.1745 243.2597 L0.7975 244.2019 L1.8283 244.9994 L2.9954 245.0965 L3.7734 245.0381 L3.8706 244.9021 L4.6099 244.8048 L4.9795 245.1354 L6.4771 246.069 L8.0721 245.505 L8.5 245.5634 L9.0253 246.4775 L9.3559 247.7226 L9.666 247.6632 L11.3495 247.3408 L11.7095 247.8196 L11.904 248.1311 L10.6786 248.5588 L9.6866 248.9478 L8.7529 249.2201 L7.8192 249.9398 L6.9439 249.5121 L6.1464 249.9011 L5.882 250.4974 L6.7654 250.5766 L6.9245 251.2821 L7.6561 250.7869 L8.6557 252.7604 L9.9754 251.6853 L11.1065 251.3986 L11.2038 250.3483 L11.8067 249.9593 L12.3172 249.6893 L12.6857 249.7194 L12.7209 250.5819 L13.3096 252.4184 L13.7129 252.5852 L14.8921 252.5086 L14.5883 254.9389 L14.6856 255.639 L15.5413 256.3198 L16.7279 257.2535 L16.864 257.9732 L17.4087 258.8874 L16.2221 261.0077 L14.4909 260.0934 L13.7519 260.813 L13.7324 261.7662 L14.4132 262.7388 L13.1683 264.47 L12.5711 264.422 L11.9598 261.4422 L9.2602 261.7988 L9.5404 263.4542 L7.2482 265.2879 L8.8273 265.9499 L8.2415 266.5358 L8.5591 266.8914 L8.8781 267.2488 L9.4506 267.4171 L9.7441 267.5036 L10.7628 268.1402 L10.0242 269.2354 L12.3927 271.9095 L13.0294 274.4818 L13.6917 278.4803 L14.2519 282.1984 L14.7104 284.8727 L14.2773 288.8203 L13.5389 295.1363 L12.3673 304.7885 L11.8833 309.3474 L11.0174 316.6057 L10.61 319.3818 L10.1515 323.8896 L9.9733 325.6977 L9.9733 328.2447 L10.3807 332.9052 L12.0617 335.4521 L12.1825 335.7211 L12.6219 336.6999 L12.5965 338.4828 L11.8579 340.0871 L10.7628 341.5898 L10.4572 342.634 L10.6865 345.5628 L10.8917 348.7744 L13.1331 348.7257 L13.3071 352.4388 L12.9936 352.6317 L13.0722 354.643 L13.8348 354.6955 L13.9473 358.1839 L14.0674 360.7229 L14.9478 360.369 L15.5682 361.4853 L19.3394 362.3385 L19.7631 357.949 L20.6717 360.144 L23.3465 359.5995 L24.7305 361.0105 L24.556 362.2104 L25.6644 362.5001 L26.3609 363.0913 L31.8259 363.1845 L31.7876 361.7205 L30.9054 356.8797 L32.8424 355.1165 L33.7107 355.6361 L33.4707 356.6789 L34.2972 356.836 L34.2997 358.3577 L33.2305 358.5749 L33.1843 359.5568 L34.3049 359.4566 L34.6307 359.8357 L34.6138 360.9858 L34.967 361.6048 L35.0877 362.5211 L35.7742 362.2708 L38.5268 366.627 L39.2898 366.7335 L40.3063 367.175 L42.1492 367.65 L42.0433 368.518 L41.366 368.5981 L39.9512 369.2839 L39.5526 368.5811 L35.4377 370.4077 L35.1137 377.0298 L35.2378 378.6216 L35.9421 378.3709 L36.3626 378.7987 L36.271 379.5486 L36.7296 380.636 L36.9662 381.1968 L38.1419 382.171 L38.1169 382.5631 L37.8035 382.8752 L36.3851 383.5118 L36.6245 384.3537 L37.9637 386.5416 L38.4679 386.4626 L39.1524 386.2439 L39.5935 387.6554 L39.6223 388.4058 L39.6759 389.4281 L37.2449 389.5155 L37.2457 391.0206 L35.7906 391.0423 L34.3062 390.0457 L32.952 390.803 L33.6568 391.5993 L34.8511 391.6589 L34.2872 392.8653 L34.9392 393.0234 L35.3743 391.8177 L36.0351 391.9445 L36.3027 391.6935 L36.6784 392.6348 L36.2724 392.9809 L36.3674 393.24 L36.7339 393.1557 L37.4279 393.8237 L39.2523 392.6171 L39.6664 393.1774 L38.9054 393.7134 L39.5419 395.1778 L39.6187 396.0355 L38.8987 396.7341 L37.6343 397.1762 L37.6987 396.471 L37.4435 395.7212 L36.6654 395.6598 L36.9633 396.0794 L36.9089 396.5389 L35.9677 398.4042 L35.7172 400.6841 L35.3804 402.3852 L35.4667 402.9293 L37.4411 405.7097 L37.9904 406.7278 L38.3547 407.3514 L38.5326 407.9818 L38.2217 409.0456 L36.8539 410.2349 L33.3683 413.0073 L32.8329 414.0436 L32.3527 416.2605 L31.5774 419.3324 L31.3906 420.1319 L31.5548 420.8657 L32.3665 422.852 L33.1956 424.3804 L35.0955 425.7622 L35.7085 427.5326 L37.0385 429.6483 L37.2222 431.1489 L37.0126 431.056 L36.2267 433.9662 L36.2698 438.1028 L37.0644 446.8249 L37.5652 448.7764 L38.4323 450.9148 L39.5255 454.9424 L41.7276 459.1653 L43.2217 463.4917 L43.4375 465.2535 L43.3683 471.5872 L46.2143 471.6117 L49.3984 469.3002 L52.4395 466.9285 L50.872 464.659 L49.5436 458.1975 L51.357 457.786 L52.6544 462.6257 L52.9511 462.6391 L53.3009 463.4869 L53.8853 463.1142 L53.6045 460.4538 L53.8935 453.3988 L56.6815 462.4193 L57.8134 465.3618 L56.8116 465.7246 L57.088 467.0718 L58.9359 469.8351 L60.7667 469.5762 L62.9329 471.2849 L63.5356 472.3634 L63.8528 472.596 L64.6351 472.945 L65.3203 472.5942 L67.4898 472.6275 L68.9765 472.2185 L68.55 471.4588 L67.9728 470.6826 L67.9992 469.227 L70.345 469.0332 L71.6536 468.8939 L75.6115 466.9268 L75.3541 465.2202 L78.4359 463.5149 L81.1924 461.3607 L82.9032 463.3385 L81.6527 466.2376 L80.717 467.9749 L80.4944 474.1626 L84.3401 476.6351 L85.9676 473.7784 L86.5203 469.0804 L87.3493 464.659 L90.6654 464.9353 L96.4686 468.5278 L101.4428 471.8438 L104.2774 480.6435 L105.4087 476.4968 L104.4826 472.1201 L107.246 474.3309 L107.246 477.3708 L110.2859 479.0287 L112.4528 480.8014 L115.2238 482.3669 L127.4942 491.8288 L132.6451 489.5527 L137.6866 486.8651 L140.5501 480.8993 L142.6723 476.4779 L148.7397 474.2815 L144.6344 469.2638 L142.3082 462.3761 L133.3679 457.1306 L122.3136 455.9491 L113.8204 453.641 L111.8499 451.853 L109.8939 446.2353 L103.4605 419.9329 L103.0328 418.7334 L98.5857 414.4379 L98.8829 414.293 L100.8382 414.5205 L101.4639 415.0279 L107.0719 414.09 L108.747 414.0083 L110.5623 411.6009 L112.3839 410.7325 L114.9836 410.7719 L116.9181 411.3248 L118.5761 413.5354 L123.274 412.43 L122.2043 413.593 L120.5106 416.0225 L121.0633 419.3387 L120.8155 419.7724 L120.5761 420.1912 L118.8525 423.2074 L117.4708 423.2074 L114.9836 421.8256 L111.3912 422.1021 L107.5224 420.7203 L104.759 420.4439 L113.5359 449.8455 L114.2136 451.1618 L116.3953 452.7853 L120.5425 453.4995 L124.6902 454.0991 L132.5933 454.9631 L134.7206 455.568 L137.9015 456.4596 L141.964 459.697 L143.1974 460.1118 L145.6323 463.7128 L145.5156 467.4496 L146.6608 470.0841 L147.844 471.6193 L148.3588 471.941 L147.0396 469.9095 L146.4966 468.0098 L146.845 464.1216 L145.9737 461.4717 L145.7645 460.0369 L144.9988 457.4198 L142.7121 454.3353 L139.5052 452.3487 L141.9798 451.4278 L144.6648 453.6208 L147.6062 458.7744 L147.5298 460.9395 L148.1449 462.7246 L148.6684 464.793 L148.4588 465.2434 L148.1449 467.146 L149.5266 470.7384 L151.3417 470.7026 L153.0878 472.0628 L156.867 472.1893 L158.361 468.1306 L161.1331 466.5934 L163.7915 464.766 L164.4491 464.3825 L165.8017 465.603 L166.9363 466.3169 L166.3836 468.8041 L169.9761 469.3567 L175.5029 469.0804 L179.0954 467.146 L179.7981 467.4471 L181.2134 468.0537 L182.4232 468.2141 L183.2672 468.3426 L183.2856 467.9999 L182.4115 467.146 L181.5824 463.2772 L181.6376 460.1555 L179.0954 458.8557 L179.0954 455.8158 L180.7534 456.0922 L183.2405 456.0922 L187.662 456.9214 L190.0642 455.4396 L191.0087 455.9617 L193.4877 455.086 L194.1203 454.7103 L194.8991 455.5557 L196.6905 454.9538 L196.2028 453.9441 L200.0671 451.3831 L201.6353 450.6581 L201.7148 450.3005 L201.5794 448.7976 L201.4896 448.3128 L203.4474 447.1754 L203.9832 451.2151 L205.6241 450.0491 L205.2998 448.8443 L206.2569 448.751 L206.5885 449.4011 L207.4229 450.594 L208.7189 452.3141 L210.7343 453.0639 L211.4276 454.4342 L213.4484 453.0374 L212.0181 450.4007 L212.6153 449.7332 L211.1591 448.8991 L211.5179 448.3727 L209.7671 447.5747 L209.0163 446.5649 L211.1269 444.6244 L210.0686 438.391 L208.8543 438.8059 L208.7767 438.5689 L211.0252 437.6883 L210.0517 434.9779 L210.3222 433.1558 L209.8073 429.1074 L209.7695 423.867 L208.6159 423.6431 L206.9081 417.4311 L205.8803 414.7845 L205.4005 414.9814 L204.7804 412.9581 L205.5631 412.7392 L205.0716 411.3248 L204.984 410.2862 L204.7076 409.6384 L206.2276 408.1532 L204.8349 405.7804 L202.8444 403.7596 L201.2856 402.6023 L198.4395 401.929 L195.2575 400.9921 L192.7956 407.7152 L190.4295 407.4216 L190.844 399.7272 L186.7058 398.1179 L181.5824 396.1256 L177.8542 394.3358 L174.1212 392.5333 L171.6801 392.045 L167.2125 391.1517 L165.2782 388.6646 L169.7873 389.9518 L171.0441 389.2408 L173.7222 389.77 L180.0165 391.1825 L180.5764 391.1911 L179.899 387.9856 L179.6481 384.5193 L180.7439 383.2896 L180.8029 382.3071 L181.1342 382.1046 L181.4512 382.5232 L184.2217 382.4838 L184.0696 383.6903 L183.4174 388.4091 L184.8497 390.6527 L186.1105 388.5111 L188.3126 390.6439 L190.1491 392.8098 L194.847 396.6786 L199.2685 398.6128 L204.5189 401.3764 L207.0061 403.587 L207.5587 399.9946 L208.7663 405.3938 L209.0902 405.6917 L210.1567 406.2833 L212.2565 408.8376 L213.6384 411.6009 L215.849 414.3644 L216.9544 411.0483 L220.2705 407.4559 L222.4813 408.8376 L222.6587 409.3698 L223.863 412.9828 L224.1833 413.8639 L225.335 414.785 L224.9684 416.0225 L224.8443 417.2385 L224.9132 418.4729 L226.0737 420.1677 L227.4817 420.6655 L228.233 421.5164 L229.2599 420.1066 L229.9428 419.0017 L227.8257 416.5602 L228.969 415.7895 L229.3066 414.8332 L230.4182 411.7872 L231.1847 410.9287 L232.1534 410.7719 L232.6798 410.9976 L233.0256 410.1723 L234.3562 407.0025 L235.5506 404.1209 L235.7811 403.7617 L239.748 405.8712 L241.0244 403.7607 L242.6544 402.2052 L245.9704 403.0343 L245.6942 402.2052 L243.6811 400.5422 L242.5008 398.2139 L242.5951 397.5176 L242.5945 397.5176 L243.0232 393.701 L243.2307 388.4745 L242.604 387.9753 L241.2439 385.5384 L240.7546 385.8833 L240.0935 385.0867 L240.441 384.5993 L239.5106 383.3411 L239.427 383.2656 L240.2054 382.5265 L240.4581 382.0417 L241.609 382.8959 L244.5747 385.5328 L245.2183 386.3075 L245.3226 387.6034 L247.9848 388.3414 L248.0159 389.4064 L245.3647 389.6519 L246.6712 389.9061 L246.9651 390.0149 L249.2867 390.8752 L248.7929 396.7987 L249.0188 398.3848 L250.6294 398.9506 L254.3421 400.0431 L255.3211 400.1261 L256.2879 399.8325 L256.7765 398.5918 L258.372 394.9551 L260.8052 391.1706 L261.7447 389.9455 L263.8045 387.2595 L263.4223 385.9808 L262.454 385.0018 L261.9364 382.4081 L262.0132 377.9315 L261.6977 373.1156 L259.876 368.4844 L262.1903 368.4844 L265.1255 373.849 L266.1975 372.6818 L266.0233 371.2168 L265.82 370.0527 L265.4959 368.1985 L265.0052 367.2856 L263.9234 366.2883 L263.1581 365.218 L263.1346 365.0395 L263.4577 364.3745 L263.8896 364.0586 L264.1427 364.0303 L264.3264 364.0566 L264.497 364.3404 L264.7324 365.0488 L265.3285 365.3569 L267.1468 365.5658 L268.8154 366.7404 L270.6815 368.4347 L270.5651 370.1494 L269.6826 372.1487 L269.8695 376.229 L269.8081 379.4514 L269.657 380.4476 L269.6956 381.6533 L270.0 383.3815 L272.5878 383.5383 L273.4254 384.1327 L273.2092 385.9576 L273.9058 386.3141 L274.7562 385.5566 L275.8222 385.8268 L277.756 383.5898 L280.0361 382.3301 L281.5015 384.7309 L282.9642 383.8186 L285.0164 384.8508 L284.3594 386.5979 L286.9916 386.0033 L289.3658 383.0474 L292.8179 376.0045 L293.7699 371.9833 L293.0281 370.3014 L300.1044 369.4347 L307.3528 371.2466 L320.5402 370.4166 L328.0549 363.4275 L333.5007 364.0515 L336.526 366.7388 L344.21 365.6681 L345.9188 362.0591 L347.571 360.9858 L354.6814 364.6758 L359.5917 365.8322 L361.2691 364.3308 L367.2507 364.443 L375.864 360.0933 L393.8116 354.6407 L397.8421 351.8781 L402.4716 344.9134 L407.9949 345.367 L420.2931 343.4597 L422.9096 343.9134 L428.78 348.7827 L434.8067 348.2228 L439.7178 346.5479 L441.5636 343.4933 L446.0991 341.9313 L447.3415 335.9116 L451.331 332.5948 L455.2134 331.027 L457.4903 327.9418 L460.0956 327.2061 L462.0652 324.4808 L461.7975 323.2398 L466.342 323.8542 L468.1458 323.1143 L470.2017 324.094 L471.529 323.0931 L478.1613 321.8756 L483.6466 326.2489 L493.0103 328.5882 L496.2132 331.5479 L502.3252 333.3584 L504.9487 335.9133 L512.0 288.1842 L507.7003 285.9288 L508.0405 284.5861 L508.6617 283.9558 L508.9357 283.4441 L508.8971 282.7306 L508.0223 280.0733 L507.6934 278.2461 L507.4796 277.8558 L507.3372 278.6754 L506.9717 278.5842 L506.4693 278.0909 L505.4735 277.1773 L505.0741 276.2823 L505.4817 272.1766 L504.823 271.2925 L502.8487 268.7216 L495.3254 262.5581 L492.7643 256.8981 L490.7977 257.0933 L489.4867 255.545 L487.7552 253.0516 L488.9147 252.5046 L489.4159 251.5028 L488.591 249.5078 L487.0193 250.2181 L486.3205 250.3427 L484.1307 246.786 L481.8465 243.3411 L481.0146 242.591 L479.1604 243.4078 L478.3643 242.6964 L480.0334 240.8208 L481.338 238.876 L481.3042 237.8273 L482.1437 237.9423 L482.905 237.7472 L483.4652 236.8383 L483.1944 235.8667 L482.5284 235.3838 L481.7517 235.7234 L480.6449 234.7947 L480.9927 234.0393 L480.1657 233.2022 L480.2985 232.5115 L480.6757 231.8698 L480.5873 231.2539 L480.6588 229.8095 L481.1804 228.7691 L484.0834 229.4214 L484.3227 227.957 L483.7042 227.091 L484.5793 226.3328 L484.8374 220.2106 L485.0465 218.7891 L485.4372 217.5959 L485.4036 216.5129 L485.151 214.1451 L484.5523 212.8855 L483.7298 202.4596 L485.0644 196.8691 L479.6151 171.7086 L470.3849 170.8349 L464.8248 165.929 L464.5799 167.1811 L461.9334 170.0343 L460.6888 170.4585 L459.4137 169.9483 L456.6282 168.0065 L454.8534 168.7718 L453.0338 168.6966 L450.9451 168.6101 L449.4404 169.7264 L447.3372 164.611 L447.6297 162.8149 L445.7668 158.7468 L446.5245 158.5831 L446.0933 155.9685 L446.7712 155.3497 L446.5245 153.6233 L447.8452 153.0302 L447.6136 151.3868 L441.703 152.4046 L440.6754 149.3375 L439.3166 147.781 L439.0851 150.0383 L438.3328 150.8137 L440.325 153.1922 L441.2712 156.0644 L439.62 156.3136 L438.1726 154.57 L436.3711 152.3909 L435.1388 146.4598 L434.582 145.1257 L433.9118 145.5505 L432.8857 144.4701 L431.6669 145.2937 L431.0709 143.5626 L428.6266 143.0558 L427.1794 142.6087 L426.7547 142.8453 L426.43 143.0042 L426.657 143.6003 L426.8909 143.9246 L427.1361 143.5337 L427.5606 143.5547 L427.3294 144.4575 L427.0335 145.7248 L426.8787 146.6503 L426.6642 147.1194 L425.9379 147.2047 L425.6357 147.0974 L425.5964 146.6827 L426.0731 145.6431 L426.4139 144.6958 L426.4556 143.9558 L425.9738 143.3925 L425.174 145.282 L424.4757 145.9275 L423.8324 146.0646 L423.0988 146.3672 L424.2786 149.5928 L424.449 151.2097 L424.2241 152.1703 L422.7256 150.9349 L420.7998 150.5053 L420.9711 147.1578 L420.7613 145.7997 L421.1368 145.4685 L420.8056 144.5521 L419.7956 144.6634 L419.5825 146.035 L419.9885 147.6325 L419.9223 149.1229 L418.8072 147.9417 L417.2837 147.8091 L417.8577 144.5964 L419.5248 144.5081 L419.8796 142.3648 L418.5094 141.88 L416.9939 141.3441 L416.632 142.6353 L415.4642 142.6133 L415.3738 140.7918 L414.829 140.6215 L414.3469 142.1674 L414.7112 145.3139 L413.9872 144.9296 L413.2647 145.071 L412.4589 145.7337 L412.3043 144.0443 L411.1008 141.6265 L411.8296 141.2621 L411.8523 139.9113 L411.0015 140.1139 L410.1845 139.4624 L408.4622 140.434 L409.6105 141.0744 L410.1182 144.0886 L405.9779 143.4943 L405.1786 141.7138 L402.0503 145.2666 L400.011 143.5165 L400.341 141.6219 L400.9513 139.8154 L405.1083 138.6914 L406.9209 137.6039 L406.0085 136.3289 L407.5325 135.085 L405.9219 133.4975 L403.4206 134.3401 L402.5368 131.83 L403.5492 130.5418 L408.6719 128.2122 L412.876 127.1917 L411.8457 124.725 L410.9352 123.9175 L411.9643 122.6 L410.6482 122.6587 L409.5882 121.6761 L411.1119 120.4397 L410.9022 119.5785 L407.5567 119.539 L403.8106 122.1124 L403.0706 123.4468 L404.5262 124.0936 L405.5505 124.3363 L405.0653 126.7623 L403.0976 130.0506 L401.1299 129.2151 L400.3753 130.6437 L400.9682 132.1531 L398.5423 131.1559 L396.9311 133.164 L396.3129 132.7776 L395.4957 133.9588 L395.021 133.6387 L395.3191 132.3027 L398.8118 127.6786 L399.5127 127.8134 L400.6447 126.1423 L400.8178 124.1966 L402.4157 120.9083 L402.3125 119.3264 L402.4164 119.0554 L401.4894 118.8312 L401.2289 119.4317 L400.3043 119.4178 L401.0681 116.7932 L401.1599 116.4781 L400.6655 113.6187 L401.8471 111.2071 L402.0641 110.8449 L402.4522 110.7239 L403.1152 111.347 L403.5109 112.2336 L404.0173 113.0505 L404.6303 113.3205 L405.334 113.0462 L405.9349 110.8477 L406.8044 110.3921 L407.3537 111.6813 L406.5333 112.9197 L408.4775 114.4391 L409.2078 114.6846 L410.0266 113.8722 L413.6489 113.7427 L414.2991 112.5355 L412.6302 111.5629 L411.7726 111.0544 L412.228 110.4749 L411.4276 108.8602 L411.8969 108.4186 L408.971 103.685 L406.9258 104.2177 L406.3076 102.4291 L406.9232 101.669 L407.2331 101.1507 L406.6057 99.9228 L403.7131 100.2542 L404.2372 101.1919 L404.436 101.7204 L406.0745 103.9279 L406.977 105.2524 L407.5604 106.3063 L408.3847 107.4351 L408.5725 107.5434 L408.5923 107.9696 L408.7917 108.3763 L408.834 108.5618 L408.7758 109.0546 L408.51 109.4625 L407.966 109.3137 L407.7267 109.1902 L407.4873 108.9667 L407.0924 108.6635 L406.6985 108.4889 L406.1909 108.4363 L405.8239 108.4522 L405.457 108.5241 L405.2654 108.7554 L405.0341 109.1065 L404.819 108.1485 L404.83 107.4318 L403.5849 105.141 L402.7939 104.2096 L401.9233 103.4369 L400.0776 101.8183 L399.6048 101.5182 L399.4805 101.1362 L399.1384 100.6055 L398.9424 100.3443 L398.863 100.4989 L398.8783 100.8274 L398.7152 101.0021 L398.5521 100.5078 L398.2791 100.1263 L397.5916 99.8823 L396.8548 99.753 L396.0271 99.751 L395.0653 100.0021 L394.4426 100.4316 L393.0517 102.7847 L392.3719 103.4483 L391.3848 104.0922 L389.9197 104.7102 L388.3485 104.9287 L386.9766 104.9036 L385.2869 104.4017 L383.7322 103.772 L382.7442 103.3645 L382.0229 103.3367 L381.4895 103.4734 L378.6706 104.8869 L376.4049 105.5055 L375.6008 105.5644 L374.5134 105.4055 L373.5813 105.1286 L371.7297 103.7956 L369.4109 100.8636 L368.56 100.0825 L368.0802 99.8337 L367.3341 99.5941 L366.5202 99.5872 L365.6465 99.4877 L365.1917 99.8003 L364.8221 99.9851 L364.1468 99.899 L363.7278 99.7436 L361.8802 100.6604 L360.9421 101.1223 L360.537 101.4349 L360.0833 102.0051 L359.8903 102.4794 L359.6844 103.5706 L360.0498 103.6528 L360.0255 104.06 L360.0086 104.4015 L359.5542 104.4465 L359.4555 104.6379 L359.3285 104.958 L359.2324 105.487 L359.0743 106.1053 L358.6353 108.0556 L358.1291 109.0374 L356.5238 111.4189 L356.0348 112.3333 L355.7325 113.3605 L355.4953 114.5059 L355.1858 116.3483 L354.8227 117.6182 L354.122 118.8676 L353.1099 120.0697 L351.0843 121.2619 L350.0116 121.9651 L349.2201 122.8053 L349.3788 123.5789 L348.6109 124.6255 L348.3236 125.496 L348.0 125.5899 L347.6333 125.6159 L346.8047 125.765 L346.5745 125.9462 L346.2799 126.2058 L346.0587 126.6497 L345.7851 127.1454 L345.632 127.5219 L345.557 127.986 L345.6006 128.6627 L345.7258 129.2897 L345.9227 129.9555 L346.4541 131.2035 L347.1935 132.4267 L347.9868 133.6767 L348.5316 133.3588 L349.1201 134.3221 L348.4432 134.7518 L349.021 135.9618 L348.9192 136.5202 L348.8316 137.1303 L348.1908 138.4318 L347.5518 140.1243 L346.6191 143.6304 L346.222 145.6686 L345.8937 146.9813 L345.0475 149.2436 L342.8539 151.2471 L341.6622 152.2318 L339.7106 153.7687 L334.3391 150.4008 L334.719 149.8136 L337.258 149.5201 L338.726 148.2592 L341.9931 141.0114 L343.2293 139.3417 L344.1402 137.1078 L344.5523 136.1971 L344.9777 135.746 L344.6659 134.2708 L344.2978 133.1303 L343.4544 131.8118 L342.7662 130.9998 L342.0234 131.1898 L341.6731 130.1956 L341.3267 129.3163 L340.5894 127.5396 L340.6694 126.7046 L340.6515 125.8607 L340.6782 124.7325 L340.33 124.3256 L340.1462 123.9397 L339.4477 123.8479 L338.6529 123.2314 L338.2896 123.241 L337.3152 123.3698 L336.9652 122.8938 L336.5248 122.469 L335.3667 121.5498 L335.1459 121.2373 L334.5394 121.4395 L334.922 123.4002 L335.6949 124.6883 L336.4588 124.0485 L337.0006 123.7909 L337.5425 123.9243 L338.0399 124.2173 L338.5019 124.626 L338.8395 125.2478 L339.2339 125.8571 L337.6136 126.3334 L335.0833 127.7757 L335.5598 128.5576 L336.8817 130.5261 L337.1233 130.917 L337.2938 131.4712 L337.2014 132.1961 L338.1111 132.8642 L338.0472 133.4682 L337.777 133.9444 L337.706 134.2002 L337.7699 134.6336 L337.8432 134.7667 L339.4363 134.3616 L339.7251 134.0175 L340.1008 133.8234 L340.2801 133.9287 L340.2945 135.1518 L339.7487 135.0137 L339.2476 135.1943 L339.0143 135.9496 L339.0477 137.1376 L338.2692 138.0209 L337.9707 137.6928 L337.4599 138.2479 L336.9491 137.6705 L335.8166 136.6156 L334.1842 137.5817 L333.5957 138.1813 L333.1902 138.0875 L332.7629 136.9377 L331.6803 134.9752 L330.6372 136.6288 L327.1551 136.1936 L326.6508 135.8785 L326.551 134.79 L326.027 134.4345 L325.9914 134.0969 L328.2121 134.0704 L329.3314 133.9016 L330.3236 133.2467 L328.4786 133.4752 L326.6398 133.1554 L324.2504 133.2265 L322.7388 133.7743 L319.7289 134.248 L318.9475 134.2278 L318.2211 132.7619 L317.4074 131.6789 L319.4987 129.1581 L319.7247 127.5214 L319.9098 126.1803 L319.5935 125.7779 L318.0402 123.8031 L317.7258 123.4032 L315.6408 122.5292 L314.8062 119.8366 L315.5577 118.0489 L315.7736 118.2046 L316.2053 117.7382 L315.808 117.1855 L311.732 113.9902 L310.428 112.5309 L309.7371 112.7726 L311.3348 114.6811 L310.7561 115.0437 L310.2252 115.2773 L309.9013 115.562 L308.9945 114.8969 L308.485 115.3548 L308.2374 115.747 L308.4091 116.0821 L308.7977 116.3929 L309.2419 116.3708 L309.7194 116.3263 L312.0534 117.2143 L312.6285 118.0586 L312.4602 120.2881 L313.1948 121.001 L313.9054 122.1114 L314.78 123.6512 L310.815 126.0396 L309.686 126.7638 L308.7866 125.7645 L307.762 124.0442 L307.4777 124.0301 L307.0086 123.1206 L306.6403 122.3882 L305.5126 121.3818 L304.6971 120.74 L304.0031 120.1848 L303.7601 120.6186 L303.8991 121.3299 L302.5652 122.2002 L303.0315 122.8392 L302.858 123.0474 L303.7775 123.8628 L303.6561 124.314 L304.6929 125.3748 L302.1466 126.3786 L299.8008 127.2028 L297.7438 125.2424 L296.804 124.2484 L294.73 121.8879 L293.2089 120.0889 L293.7743 119.6752 L293.6975 119.0453 L293.5177 118.6307 L291.53 118.3977 L289.8454 118.5968 L288.2151 118.3587 L287.5024 117.9409 L286.7632 117.5658 L286.5757 117.2118 L287.3775 116.4414 L287.6066 116.0978 L287.6483 115.8062 L287.742 115.4833 L287.4504 115.3793 L287.2943 115.1189 L287.2845 114.9147 L287.4549 113.728 L288.4427 113.3228 L288.5136 113.1236 L288.4777 112.9088 L288.4992 112.7582 L288.714 112.4074 L288.888 111.9741 L288.6459 111.2083 L290.0009 111.1595 L289.8549 110.6728 L288.6135 110.7862 L288.1185 110.3724 L288.0905 109.7857 L288.0618 109.3502 L288.7595 109.2773 L288.5242 109.0095 L287.4219 109.005 L286.4005 108.0771 L284.7572 108.4148 L284.3219 108.4325 L284.0111 110.218 L284.6585 110.9393 L285.0325 111.5325 L285.2102 112.643 L284.7661 113.6733 L284.0376 115.3968 L283.0207 116.9377 L282.2356 117.6329 L281.6813 117.825 L281.1057 118.3509 L280.8111 118.9499 L280.6913 119.3813 L280.6039 120.0072 L280.7117 120.6629 L280.3711 120.4149 L280.1889 120.1415 L280.1179 119.6939 L280.2032 119.0686 L280.4803 118.4645 L280.8569 117.8958 L281.9571 116.8565 L281.3425 116.4662 L279.0535 113.7875 L278.5655 113.1727 L271.4572 104.898 L267.447 105.4371 L267.5462 103.814 L267.5549 103.6715 L268.3215 102.5161 L268.9721 100.9709 L268.2785 98.2338 L269.0589 95.9586 L270.917 96.1138 L270.8458 95.5205 L270.8334 94.9656 L270.6214 94.3422 L270.4406 94.0304 L270.2722 93.6813 L270.4105 92.8615 L270.2214 91.5194 L268.1162 92.1656 L268.0397 91.9368 L266.4629 87.7529 L269.4771 86.839 L270.2286 86.5614 L270.9971 86.2173 L272.2113 85.7632 L273.5268 86.2933 L273.8323 86.4305 L274.1814 86.6236 L274.8485 86.8044 L275.2809 87.0236 L275.8709 86.4467 L276.0985 86.2958 L277.0653 85.4625 L278.372 84.3001 L280.2719 86.1655 L281.0791 86.3406 L281.8703 86.3019 L282.758 86.6975 L283.1735 85.8374 L285.2281 86.3695 L285.3825 86.1282 L285.9034 86.0414 L286.1351 85.202 L287.4859 84.8932 L291.2628 84.9593 L290.8674 84.0366 L291.2102 82.6132 L292.5066 81.693 L293.0703 81.9185 L292.1592 79.9506 L290.5775 80.9523 L289.705 82.761 L288.5279 83.224 L287.3411 83.4652 L285.778 83.967 L284.4618 83.7465 L289.0075 80.0202 L285.8501 74.6057 L288.17 76.6933 L287.2267 75.7406 L287.2096 74.6012 L285.9399 74.3579 L284.6735 70.3437 L289.1087 69.5173 L289.4482 70.432 L291.5461 70.3389 L291.4116 69.7467 L291.9896 69.6525 L293.0458 69.4796 L294.2943 69.9214 L295.7754 70.2923 L295.5502 69.2953 L295.5538 68.0646 L296.1929 67.5826 L296.8719 65.5954 L297.6383 62.6663 L297.582 62.103 L297.5287 61.5703 L297.5105 61.388 L297.4851 61.2698 L297.4023 60.8864 L297.6876 60.7391 L298.1103 60.7487 L298.9447 60.7239 L299.247 60.715 L299.4112 59.3387 L300.0376 57.2582 L299.5811 55.1181 L295.5412 47.3038 L295.7452 46.0689 L295.2267 45.687 L294.6043 45.0433 L294.685 43.2037 L293.3108 44.0682 L292.9042 46.3335 L291.8808 46.271 L290.932 46.1638 L289.8021 45.8585 L288.6968 45.3966 L289.1275 44.8585 L289.3183 44.5169 L289.3896 44.1923 L289.0762 43.8788 L288.0705 43.6504 L287.0633 43.6271 L286.3855 42.8238 L285.5293 42.328 L284.127 41.899 L283.3428 41.0616 L281.8668 39.6389 L280.8109 38.5171 L279.1317 37.9848 L276.9174 39.1935 L275.8074 38.0342 L274.9542 38.5171 L274.2284 38.1704 L273.3121 36.6401 L272.0342 36.2402 L271.2257 36.1909 L269.6246 36.9536 L268.7791 35.403 L268.1737 35.1019 L267.3982 35.5638 L265.8509 36.6814 L263.4883 37.8572 L263.5049 36.5044 L263.8347 35.0361 L264.6598 34.7225 L265.6001 34.5574 L265.5671 34.0132 L264.1318 32.9242 L263.5411 33.687 L262.1026 34.8051 L261.4261 29.7897 L263.3801 29.6943 L260.893 25.8255 L260.2373 23.6124 L261.0506 22.0143 L260.1673 20.1712 L256.517 23.9209 L253.9762 23.5501 L252.0501 22.2329 L246.9772 23.1548 L247.6285 28.8651 L243.7693 28.2935 L238.4973 29.1315 L238.6009 30.5599 L239.7714 30.7301 L239.9294 31.4493 L238.6889 32.5168 L240.7013 33.8967 L242.5818 32.6538 L243.746 34.3432 L241.5682 36.0288 L243.6132 37.3945 L244.209 38.2411 L243.0961 39.4039 L243.5667 40.8448 L245.3094 41.7078 L246.6528 41.5939 L247.5035 42.7539 L247.0176 43.0965 L247.4413 43.7101 L246.6433 44.2695 L247.2224 45.6508 L242.9495 47.8034 L242.4736 47.1906 L244.2128 45.939 L243.8518 45.3011 L239.3383 44.0644 L235.6552 40.8628 L234.1318 42.9823 L238.7855 49.5911 L237.6802 50.6967 L231.3243 55.3944 L227.1792 59.2632 L224.9684 63.9611 L223.0339 63.6846 L223.4497 60.1585 L221.0991 59.5969 L221.4499 57.8251 L221.0893 57.2848 L222.0463 54.6674 L222.124 52.6578 L220.9576 49.9211 L222.205 47.6568 L220.2309 46.5589 L218.5499 48.8102 L216.7712 51.4841 L215.7975 52.7059 L214.768 53.2579 L212.4981 54.0408 L210.9632 54.5145 L209.4939 55.4881 L209.3495 55.9821 L208.3448 56.3543 L208.7231 56.9435 L207.7424 57.3663 L207.3337 57.1668 L206.4778 57.5015 L206.6701 58.4257 L205.3242 58.0722 L205.1691 57.2597 L203.2898 56.8318 L203.0107 56.5961 L206.8186 55.9312 L206.9493 55.0207 L209.1826 54.6459 L209.6124 54.7601 L212.4148 53.5495 L214.5589 52.9358 L214.2408 52.4453 L214.4888 51.7817 L213.8066 51.5523 L213.267 50.7397 L214.3028 50.3429 L214.7432 51.2793 L216.0146 50.9258 L216.5171 51.2236 L218.08 48.5193 L217.3519 48.0455 L218.8217 45.7531 L217.9739 45.1034 L215.234 46.7873 L216.0586 47.831 L213.8219 49.5063 L213.357 48.8748 L208.8221 50.208 L208.3134 49.0941 L209.5063 48.6555 L208.1466 46.0679 L208.7344 45.217 L207.331 44.5154 L204.6031 44.0943 L202.9452 45.6207 L201.2347 43.5592 L203.1382 42.1295 L202.7523 41.0332 L203.6557 40.1735 L202.0768 38.3753 L198.1487 42.0857 L197.4032 41.2789 L196.1401 41.5331 L195.077 40.5103 L193.3775 39.9768 L191.9261 40.287 L191.8642 38.7921 L193.5015 38.9474 L195.025 37.358 L195.4635 35.4985 L194.9899 33.8671 L191.2661 33.5029 L188.0906 31.3321 L185.2135 27.7984 L185.1546 27.5902 L186.1763 27.4783 L186.265 26.7902 L186.0915 25.7682 L185.3396 24.9586 L184.6069 25.132 L183.3539 25.672 L181.8115 26.6167 L180.9246 27.5998 L179.016 28.2745 L177.8592 29.3736 L176.5482 29.6241 L175.4685 30.2026 L175.0636 31.0317 L175.4493 31.4556 L176.8953 31.8029 L178.0134 31.7256 L178.1677 30.9737 L179.5365 30.7425 L179.3052 32.0533 L181.2909 32.9017 L183.4229 34.5625 L182.971 35.2366 L181.2138 34.0005 L180.7318 33.6344 L179.4209 33.1137 L179.2858 33.9428 L177.2808 33.7501 L175.7 33.7308 L174.9673 33.8851 L174.1808 33.4153 L173.5175 33.3538 L173.4441 33.5764 L173.0779 35.1381 L172.7115 36.7191 L172.2682 37.7022 L172.2682 36.8926 L172.1911 35.1381 L172.1333 34.5405 L172.7308 33.6151 L173.2128 32.2268 L172.8079 31.1087 L171.8826 30.2026 L171.0342 29.3544 L169.7618 28.8337 L168.4701 28.4287 L166.9856 28.2553 L166.2529 28.2745 L164.2865 28.6602 L162.5516 28.9256 L161.875 29.0394 L161.2018 28.9687 L159.4088 29.0264 L157.9905 29.0908 L154.3594 29.7353 L154.2918 29.0981 L152.775 29.555 L152.933 30.6262 L151.8954 30.863 L151.7432 31.0661 L151.3315 31.2295 L151.2526 31.7935 L151.7773 32.1508 L151.7153 31.6995 L151.7491 31.4346 L151.9634 31.4291 L152.2736 31.4853 L152.6738 31.5136 L153.2152 31.5022 L153.4351 31.4572 L153.4576 31.2599 L153.4971 31.0342 L153.6212 30.9441 L154.2865 30.9271 L155.2619 30.6792 L155.3013 30.2504 L155.042 30.2504 L154.8615 30.2167 L154.9293 30.0531 L155.2225 30.0081 L155.5665 30.025 L157.8106 29.4838 L158.1939 29.5064 L158.4984 29.5626 L158.7465 29.7543 L159.2201 29.6641 L159.4062 29.5795 L159.8685 29.5514 L160.9624 30.0306 L162.5243 30.3125 L163.4827 30.2899 L164.0748 30.0701 L164.4865 29.9516 L164.8345 29.9837 L165.5443 30.1831 L166.0984 30.1633 L166.8201 30.0316 L167.4101 29.9399 L168.2394 30.0238 L168.9053 30.0435 L169.5192 29.9997 L169.8262 29.9837 L169.9499 30.0754 L169.9418 30.2828 L169.6907 30.5062 L168.7935 30.9765 L166.84 31.8576 L166.7882 32.0093 L167.3582 33.7394 L167.3981 34.0904 L167.6419 34.1614 L168.3074 36.6107 L168.4746 38.1365 L169.7812 37.7602 L171.0342 37.4325 L171.4006 37.9144 L172.3646 38.647 L172.2488 39.5338 L172.4417 40.5556 L172.943 41.3655 L172.3453 42.0981 L172.6344 42.5992 L172.2875 43.1198 L171.4969 43.1198 L171.0669 43.5169 L171.2221 43.8836 L171.6279 43.9173 L172.9361 43.8413 L173.8384 43.8187 L173.9821 43.8777 L174.1766 44.9408 L174.3994 45.9273 L174.2048 46.0656 L173.6467 45.9359 L173.3026 45.8597 L173.235 45.9613 L173.4887 46.0826 L174.0047 46.2912 L174.7405 46.4799 L176.0372 46.6209 L176.4743 46.8802 L176.8887 46.9339 L177.2694 47.2722 L178.0906 48.0169 L178.5919 49.3663 L179.5751 50.6967 L180.8282 51.9113 L181.8886 53.1259 L182.1199 54.0319 L183.2767 54.6682 L184.2214 54.5332 L184.5685 55.9213 L184.8962 55.8443 L184.954 56.3454 L184.6456 57.2131 L184.6069 57.9648 L185.0698 57.9843 L184.6069 60.2593 L184.3651 61.4161 L184.3073 62.502 L184.0374 63.3375 L181.6766 61.3196 L183.1996 60.9918 L183.2189 60.1243 L183.2961 58.6976 L183.3345 57.7337 L184.26 57.9648 L184.1443 57.5023 L183.1418 56.8275 L182.5248 56.0755 L181.9464 54.649 L181.2138 53.8392 L180.4233 53.1064 L179.0352 52.2774 L179.3245 51.6221 L179.1509 51.2365 L177.6279 49.7327 L177.5158 48.8654 L176.6815 48.6431 L175.7962 48.5565 L175.16 48.7302 L174.2539 49.3278 L174.0032 48.8072 L173.789 48.598 L173.4828 48.7687 L173.1296 49.9355 L173.131 50.4364 L173.0557 50.9846 L172.8838 51.457 L172.8958 52.1387 L171.5206 52.0908 L171.3804 53.1662 L173.2708 53.2609 L175.8156 53.1259 L176.6831 52.8173 L177.3193 53.5501 L178.1147 54.0684 L178.7567 55.1842 L179.3052 56.6153 L179.7293 57.2708 L180.2884 58.4469 L180.6162 60.5292 L180.462 61.3196 L178.6883 61.1075 L176.4711 60.6062 L176.124 61.7052 L177.0302 62.939 L178.2063 64.0766 L177.6857 64.7128 L176.9917 66.3322 L176.0855 65.7539 L175.3143 65.7924 L174.3118 66.5636 L174.1383 67.6434 L174.1576 68.9928 L175.0829 68.6652 L175.43 70.111 L175.2565 71.1328 L174.7359 72.6174 L174.3889 73.8705 L175.3143 73.9283 L176.0612 74.0012 L174.1381 77.8441 L183.2405 81.3707 L181.8588 83.0288 L188.4911 85.5159 L193.1889 86.8975 L197.1413 84.3127 L200.7436 82.4261 L200.6303 79.1038 L201.0655 78.3099 L202.2536 78.9152 L202.6311 80.6895 L205.5379 81.7464 L209.8238 83.5921 L210.535 82.0216 L213.5564 77.4244 L213.3092 75.4151 L216.829 75.1885 L218.3733 75.2533 L219.3548 75.7062 L222.4504 76.5745 L222.7524 75.7439 L223.4319 75.8573 L223.4697 76.5368 L224.9419 76.9897 L224.7909 77.6317 L227.1343 78.4879 L227.4455 78.2896 L227.7423 78.4709 L227.9583 78.722 L227.8832 79.462 L227.4063 80.1713 L226.3765 81.048 L225.9045 82.0674 L225.3005 81.9162 L224.4512 82.4448 L223.5264 83.0488 L223.5829 83.8227 L223.6584 84.2945 L224.47 84.3135 L224.5735 83.5151 L225.1307 83.5964 L225.3572 84.5211 L226.3387 84.6909 L227.358 84.7099 L228.0891 85.4131 L228.0796 91.8335 L229.9115 93.7173 L228.1131 93.7892 L226.5131 93.535 L225.3384 93.7702 L224.923 94.2987 L224.9684 95.1879 L223.3754 96.394 L222.4692 96.7337 L220.7636 98.7183 L220.1287 97.9982 L218.87 98.2103 L217.6937 97.7152 L216.5612 97.0923 L215.2965 96.6392 L214.1452 96.4127 L212.5208 97.2543 L211.4455 97.8112 L210.3391 96.9792 L207.5116 95.9315 L205.0684 98.5619 L203.6731 99.5981 L202.951 97.8595 L203.6538 96.5501 L203.7309 95.6131 L205.009 94.8317 L205.6442 94.6822 L204.4487 94.2486 L203.78 95.1314 L200.9181 95.5326 L200.9983 96.8698 L200.0087 97.0303 L199.5357 97.7375 L200.6238 102.4068 L201.8275 101.4172 L202.3082 101.8201 L203.2987 103.4232 L205.6244 104.3071 L208.1616 105.3597 L211.666 107.084 L214.7492 108.1721 L215.3825 108.5618 L216.5612 109.2482 L217.2597 109.5501 L218.4865 109.399 L221.4819 108.862 L222.3655 112.3745 L220.8082 112.004 L220.894 111.616 L220.223 110.4749 L217.5744 111.0218 L217.1916 111.6715 L218.5111 112.4365 L217.9152 113.3709 L214.7752 112.1619 L215.5727 110.1104 L212.9814 108.639 L210.3222 107.6234 L204.8233 107.3017 L201.9878 106.5444 L200.0889 106.9808 L198.9921 108.1758 L200.4145 108.2639 L200.6444 109.3593 L204.2633 108.5676 L204.8592 109.5866 L206.9283 109.1485 L206.4229 111.9142 L207.032 111.8803 L207.5391 112.2103 L207.3689 112.7038 L206.9061 112.765 L206.3649 112.4927 L206.2427 114.1567 L209.4931 115.9135 L211.6498 117.7167 L211.2736 119.6784 L211.0261 121.1105 L209.7499 123.4339 L209.9004 124.4352 L210.2734 124.3894 L210.4239 126.2352 L209.25 126.3645 L209.1723 127.3099 L208.6325 127.1588 L208.693 126.6061 L208.4037 126.576 L207.7733 125.7685 L207.2682 125.1683 L206.1101 124.7847 L203.7731 125.1759 L200.8972 122.5595 L201.403 118.32 L195.73 117.35 L195.6527 118.6348 L200.3476 124.0961 L204.167 128.4167 L204.1704 129.1642 L203.7073 129.8272 L199.6071 130.4352 L199.0996 131.2156 L199.7983 131.5129 L199.605 132.293 L199.4665 132.5967 L200.1847 132.8356 L201.9777 133.3232 L204.3237 133.182 L206.7701 134.9292 L210.0459 136.9157 L208.8812 138.2899 L208.4871 137.8549 L207.2925 138.0736 L207.732 139.6459 L206.857 140.6782 L205.348 143.5479 L202.0319 141.3373 L200.5042 135.8004 L198.0325 136.5281 L197.6643 134.3808 L196.6155 136.1263 L196.8494 138.4222 L196.5896 139.6367 L195.5907 141.4648 L195.9732 143.1011 L197.7379 143.3774 L198.0978 144.5177 L200.3738 146.035 L200.2653 148.3396 L199.6927 148.2235 L199.3796 149.296 L198.6418 148.9658 L197.8863 150.159 L194.549 148.7133 L193.314 150.689 L192.337 154.0366 L195.3154 155.2176 L198.4404 155.1546 L197.4616 157.5777 L193.231 159.3848 L195.9075 162.8786 L196.2688 162.6214 L196.8483 163.2346 L199.4598 163.0193 L200.7062 163.441 L200.9611 164.5844 L202.4014 164.5938 L205.239 162.695 L207.1001 162.4944 L207.0927 163.0534 L205.9277 163.2151 L204.2773 164.4339 L204.1358 165.6944 L206.1514 165.9611 L206.7468 164.8862 L207.482 165.8915 L205.5334 167.2659 L200.9125 166.5991 L200.3307 167.5899 L203.6044 170.3105 L204.3053 169.9359 L207.622 168.1634 L214.0038 168.964 L214.2904 171.1984 L213.5861 171.2937 L213.5836 171.8477 L213.0172 171.784 L211.0836 173.975 L211.3412 174.9034 L210.8734 175.256 L210.0028 175.8231 L209.9967 176.3039 L208.6507 176.5098 L208.628 177.0511 L206.2195 177.5143 L212.569 178.4438 L212.5271 177.9397 L216.5596 178.6629 L216.7619 178.6925 L216.6994 179.1116 L222.6959 179.5613 L239.664 182.835 L242.6829 183.6161 L245.9165 183.4952 L248.6236 184.9027 L250.3124 186.5832 L251.249 188.8286 L256.4911 189.9736 L258.0695 189.795 L262.2262 187.4709 L266.9895 190.4291 L269.4768 189.4998 L271.3668 187.8268 L272.3619 188.3551 L273.3285 188.8683 L272.864 190.1779 L268.7128 193.3628 L267.5745 194.4106 L267.0053 195.7826 L267.6882 196.1357 L268.2959 197.9692 L271.7037 198.366 L274.7102 200.1983 L280.3603 203.0777 L280.6098 204.0331 L283.0762 204.3641 L283.0598 205.0676 L283.1527 206.723 L286.4697 206.3012 L286.4945 206.7225 L284.8958 208.7334 L283.5102 210.5794 L278.1478 205.7289 L276.8873 205.1486 L276.2498 206.0536 L275.5281 206.0749 L273.1334 205.4978 L272.0364 206.0164 L271.6997 207.1122 L271.2475 207.7702 L270.789 208.9827 L270.8814 209.935 L270.9691 210.8381 L270.4883 212.5753 L271.3653 212.9273 L272.7758 214.2917 L272.8104 214.7112 L273.3414 216.5399 L272.4218 216.8135 L271.5142 217.1235 L270.96 217.5031 L270.5842 218.0427 L269.7199 218.2227 L267.7967 217.9744 L266.0825 218.1698 L265.3351 218.3026 L264.8803 218.5453 L264.3888 218.6116 L263.572 218.2672 L262.8148 218.4634 L262.181 219.1982 L262.7251 219.9102 L265.5624 223.4784 L267.6341 224.9166 L270.3825 225.6193 L270.5082 225.9715 L270.1945 226.3034 L268.7315 226.4546 L266.1582 225.5791 L263.3399 224.4549 L261.4458 222.0294 L260.6648 220.7335 L259.5674 221.4587 L259.1977 220.4979 L259.3926 218.7299 L257.9536 217.9663 L256.9694 217.4148 L256.5154 216.239 L255.8967 216.7346 L253.9844 217.608 L249.7371 219.047 L247.1099 219.8387 L243.7597 222.8585 L242.6544 227.0036 L243.2761 228.558 L244.3984 228.8601 L248.0279 230.0884 L251.5468 231.7538 L253.9055 233.1949 L257.9088 236.0085 L259.2905 238.3501 L261.7935 240.8398 L261.874 241.0024 L262.2516 241.8022 L262.3083 242.4744 L263.9328 244.6895 L267.5252 244.6895 L269.8868 245.28 L271.9468 245.795 L273.031 248.5338 L271.9468 248.5583 L268.6307 247.4531 L263.7035 249.7833 L261.8139 246.2981 L261.2925 245.0326 L260.27 246.1327 L259.211 247.2721 L258.5882 250.1365 L257.0046 248.2499 L255.1871 246.6462 L252.4575 246.5519 L249.0103 244.4132 L248.5157 244.2231 L244.5887 243.0316 L243.4792 242.3063 L239.1113 239.4514 L236.8173 239.8791 L236.4827 240.0495 L235.5311 240.5337 L235.0552 241.7529 L233.1769 242.2088 L233.003 240.3774 L232.0289 240.1319 L231.5085 239.5371 L231.6051 238.3028 L230.7419 238.1019 L228.6878 238.1271 L227.8717 238.2776 L226.6264 236.6757 L226.3497 236.9336 L225.254 237.0317 L223.4415 238.6573 L223.0758 240.3853 L222.686 242.0735 L224.0745 243.9038 L224.1698 246.1449 L224.415 247.6273 L224.0333 248.7608 L223.8382 249.0012 L223.6827 248.89 L223.4365 248.1763 L223.1033 247.832 L222.8085 246.2124 L222.192 244.8394 L221.348 244.825 L220.9603 244.2638 L218.761 245.2424 L218.25 245.4643 L217.7978 246.2655 L217.1595 248.3614 L216.968 249.8827 L217.2156 250.0442 L217.3825 250.4416 L217.0179 251.6431 L217.0164 254.5526 L216.8915 255.7361 L216.2128 257.4603 L215.8528 257.8051 L215.3285 257.8314 L214.9309 258.7216 L215.0201 259.2666 L215.0201 261.2703 L214.7437 263.4809 L216.1935 266.2062 L215.881 266.6556 L214.4991 268.643 L214.0585 269.334 L213.5389 270.1964 L213.537 272.4885 L211.718 272.8176 L211.3951 274.726 L211.1963 275.6566 L211.1216 276.3546 L212.6356 278.5468 L214.1044 280.4182 L216.7423 282.3159 L217.8975 282.6387 L220.8452 282.8512 L222.205 282.2722 L222.8367 281.7284 L223.2276 280.5059 L223.9943 279.6891 L224.7608 280.0045 L225.1078 282.7817 L226.9028 284.2068 L228.1182 285.7258 L229.1136 286.9702 L230.3267 289.7144 L231.1471 290.244 L232.607 290.3972 L235.6866 293.2939 L236.5334 293.2128 L237.2615 292.812 L239.3835 289.7298 L238.2027 288.3874 L240.1672 286.4175 L241.4589 284.3993 L242.9417 285.2657 L243.5079 286.8992 L243.0227 287.6919 L243.7597 288.6282 L242.958 289.8915 L244.0163 291.6938 L244.8651 291.9442 L245.4352 291.78 L246.272 291.8702 L246.8594 291.9126 L247.0788 291.7357 L248.1413 290.8586 L249.0769 289.4306 L248.7277 288.9191 L248.5186 288.4589 L250.9155 290.4414 L252.492 291.0368 L252.8791 291.3916 L254.1341 291.8484 L255.2071 292.5426 L255.7654 293.3709 L256.644 294.6749 L258.6803 295.4658 L261.6666 295.4986 L262.308 295.8595 L263.9675 296.4667 L264.3692 297.0383 L267.396 298.6941 L268.2006 299.548 L268.8889 300.4559 L269.3476 301.4105 L269.0092 301.7066 L265.683 301.1801 L262.9144 300.5501 L261.4379 300.5903 L261.1389 300.6921 L260.9865 300.6509 L260.4775 300.4789 L258.3776 299.6187 L256.1268 298.4976 L253.9885 298.3828 L251.5014 299.7628 L252.646 300.9382 L250.7358 302.6448 L249.573 303.7687 L248.7338 303.2745 L242.378 299.6819 L240.4834 299.7251 L239.891 301.34 L237.5736 302.1913 L236.8511 300.2345 L234.5475 300.4207 L234.0877 299.1293 L233.7791 298.5974 L234.0138 297.8813 L234.3704 297.6862 L235.0003 298.1241 L235.4694 297.7476 L233.2587 294.4315 L231.905 293.2213 L230.3697 292.1919 L228.9067 291.6389 L228.182 290.3881 L227.3543 289.3848 L225.7424 288.2749 L225.4618 287.7389 L225.4551 286.7448 L224.9953 286.3829 L221.7198 283.805 L219.8982 284.8494 L217.4036 284.44 L216.7865 286.0407 L214.8195 285.6164 L213.0856 286.4175 L211.1203 288.8741 L210.421 290.4621 L210.1184 290.6342 L209.7695 290.5627 L209.6394 290.0714 L209.7557 289.2471 L210.2726 287.7958 L210.6626 284.647 L210.4307 283.2399 L208.6673 281.9219 L206.6849 280.3376 L201.7071 283.5929 L199.8212 283.1014 L197.6751 282.6728 L197.6144 282.2725 L196.4858 281.6439 L198.163 280.6144 L201.2029 277.2981 L201.3795 274.5632 L198.5705 275.4293 L197.9324 273.2669 L199.938 272.324 L199.8318 272.0886 L198.7955 269.7942 L197.1255 270.4456 L196.545 271.0304 L196.53 270.5904 L196.4394 267.9252 L196.427 267.5374 L196.4125 267.3074 L196.3382 265.6026 L194.3397 264.2625 L197.2015 262.3483 L198.8822 261.3292 L202.2179 259.3065 L203.2974 258.0887 L203.8032 257.5182 L204.1216 257.159 L207.0594 258.6354 L207.6318 258.2171 L208.58 257.5245 L210.4625 258.4451 L211.3362 257.4264 L212.6377 257.5114 L212.7546 258.1964 L212.6966 258.5644 L213.5564 258.3705 L213.3272 257.1137 L214.5004 248.4521 L213.927 248.1923 L213.5477 248.3427 L213.3369 248.4028 L213.111 248.4675 L212.525 248.6925 L212.1685 248.9302 L211.7716 249.0624 L211.2414 248.8288 L211.1889 248.212 L211.7317 247.5383 L212.1496 247.5633 L212.5376 247.1338 L212.7551 246.8868 L212.9867 246.6785 L213.3732 246.4988 L213.6089 246.514 L214.1629 246.2771 L214.8161 245.7409 L215.5882 245.1842 L215.9358 244.7257 L215.7205 244.6703 L214.5824 245.4487 L214.3105 245.1023 L213.2683 244.1945 L212.1583 243.4116 L211.5781 242.7182 L213.234 241.2579 L215.1368 239.2152 L217.0678 237.9385 L217.4234 237.7211 L216.9512 236.5172 L215.9715 237.0486 L213.9626 237.2226 L213.8604 236.2629 L210.4084 236.9326 L208.9334 236.9296 L206.7173 236.6793 L204.4314 235.8892 L203.3724 235.5942 L203.0332 235.5433 L201.7777 236.8173 L199.8804 236.2745 L199.1788 235.4013 L197.9464 234.7942 L197.0336 233.5648 L195.5482 233.406 L193.274 231.4802 L192.3448 230.9139 L189.4111 230.2924 L188.38 229.9433 L185.3486 229.1147 L182.9818 229.7157 L180.6935 230.4363 L176.7117 229.9033 L175.5177 230.9748 L174.6517 232.87 L174.4274 233.202 L172.5502 236.3005 L169.8895 238.0169 L161.2329 238.319 L162.2258 240.1352 L162.6373 241.0729 L163.3099 242.1258 L163.6552 241.9206 L165.2281 241.0107 L165.9456 242.1344 L165.8947 242.7298 L164.5563 244.2077 L165.2825 245.4676 L166.7671 244.9474 L168.6812 246.0043 L169.6062 246.5686 L169.0798 247.8042 L169.5814 248.1018 L169.4233 248.5583 L168.866 250.547 L167.7729 249.962 L167.4906 250.9419 L168.0632 251.475 L167.469 252.4237 L166.9875 253.1924 L165.9331 255.0463 L165.8133 255.2429 L166.8498 256.7235 L168.1105 257.8458 L167.7314 258.6981 L166.5506 259.1796 L165.3812 259.6566 L164.6957 261.6103 L165.1022 263.6619 L165.8062 267.2154 L167.5229 269.9431 L169.2193 272.2517 L172.7799 271.663 L173.2997 272.3217 L174.1108 272.2287 L173.7788 270.8388 L174.5889 270.6788 L175.2014 272.861 L174.9503 275.0874 L172.1867 274.5347 L170.1855 276.9263 L166.3836 275.3636 L166.5728 277.3064 L165.8308 278.9562 L162.7912 280.0616 L159.1987 285.5884 L157.817 288.3518 L155.0534 288.9044 L154.6101 288.5499 L153.9264 288.4367 L153.3605 288.1536 L153.0679 287.8511 L152.9117 287.5487 L152.7451 286.9995 L150.6321 283.1014 L146.2105 284.483 L145.6579 287.7991 L143.7234 286.4175 L140.96 286.4175 L140.96 283.9303 L138.7492 285.5884 L135.9858 288.3518 L132.7602 287.7943 L127.7662 287.5696 L127.3659 286.7493 L125.761 286.9702 L123.1188 286.9338 L123.4789 282.6159 L125.7164 279.6555 L126.9713 280.6634 L130.0774 278.2003 L129.2563 277.1537 L126.6543 277.5821 L125.3158 278.9168 L124.5083 278.355 L122.445 280.3379 L120.08 282.2636 L115.8127 284.7595 L114.7357 289.1256 L115.8769 289.9312 L116.5212 289.2006 L120.2587 289.1331 L117.5255 291.9028 L116.9676 292.958 L114.794 292.2914 L113.6475 293.2517 L112.2202 297.195 L109.6266 302.1011 L109.1405 303.3688 L109.1579 304.1978 L108.1931 303.9663 L106.8606 303.2652 L105.3432 306.2358 L103.633 307.3963 L103.3104 307.0065 L102.7854 306.8518 L103.8596 305.3242 L97.9983 300.6537 L96.0398 299.0679 L85.5256 298.0581 L76.9045 295.4893 L66.8849 292.6391 L63.6396 285.8674 L55.8832 271.7108 L40.389 259.9321 L39.0967 260.2686 L38.5131 260.6381 L38.6298 261.0855 L38.0852 261.1631 L36.7626 261.63 L36.0234 260.9103 L35.2259 260.852 L34.5256 261.3383 L33.4947 261.883 L32.6584 260.3267 L31.7247 259.4708 L31.3357 260.7546 L30.9272 260.0739 L29.7213 260.7352 L29.021 260.9298 L27.9511 258.7707 L27.7372 257.7982 L28.1845 257.4482 L28.6126 256.7283 L28.6903 256.1059 L27.7122 255.1851 L29.1174 255.0877 L31.4895 255.0903 L31.9877 254.857 L33.6233 254.1211 L35.61 253.6873 L36.736 253.3413 L38.2214 252.7632 L37.988 252.5073 L37.2682 251.6711 L37.8713 251.2237 L38.8243 250.4456 L39.7385 249.9398 L40.3221 249.551 L40.8084 249.6091 L41.2168 248.306 L41.0418 248.2865 L39.6413 248.3644 L37.9101 249.0841 L37.1905 249.551 L35.6732 250.1564 L34.7202 250.1539 L33.9032 249.8427 L33.1835 248.2476 L33.806 247.7226 L33.203 246.8666 L32.6194 247.1973 L31.399 245.9065 L31.5302 245.077 L30.9222 244.5398 L30.5548 244.7454 L30.2715 243.852 L32.4399 242.9705 L34.0333 241.9302 L35.3031 240.3999 L35.8176 239.8829 L36.7001 238.9379 L37.45 237.9024 L38.8578 237.3573 L39.3631 236.3109 L40.7192 235.2056 L39.2754 234.3144 L37.1528 233.2659 L34.8255 232.243 L32.7286 231.3735 L32.0893 231.169 L31.2145 231.6688 L31.1941 231.6805 L31.5777 232.3709 L32.1659 232.064 L32.7541 233.1635 L33.0866 234.6213 L33.2912 236.0791 L33.5724 236.744 L32.7946 237.4134 L31.394 238.3666 L29.799 239.3975 L29.2934 238.2887 L29.3516 237.1996 L29.624 235.196 L29.7213 234.0679 L30.013 232.8035 L28.807 231.5391 L28.243 232.6478 L27.8539 233.426 L26.9981 233.426 L27.1148 231.7143 L27.0953 230.1971 L25.8894 230.5473 L25.5198 230.2166 L24.4889 230.2555 L24.7588 231.2732 L23.9217 231.6567 L23.7108 230.9556 L23.3073 229.8454 L22.8037 229.566 L21.299 230.3652 L19.2925 231.129 L18.0766 231.3558 L16.1896 231.2689 L14.4198 231.1624 L13.5455 231.0039 L14.245 231.5376 L16.9673 233.455 L17.7722 234.1576 L18.109 234.4175 L18.3159 233.4452 L20.2248 234.348 L20.8629 233.0836 L21.501 232.6364 L22.0382 232.5095 L22.4104 233.2197 L21.7074 234.6903 L21.9574 235.6124 L21.474 236.966 L21.3378 237.8996 L21.1239 238.9695 L20.9981 239.3047 L20.832 239.7477 L21.3961 240.4672 L21.7462 242.0621 L21.9796 242.7819 L22.5827 243.6184 L23.244 244.4157 L24.4306 243.4043 L25.1891 243.2099 L26.1616 243.3653 L26.3368 242.4512 L27.5232 242.9181 L27.9706 243.9491 L28.3402 245.0381 L27.7566 245.6802 L26.9591 246.1469 L26.9591 247.1194 L25.3836 247.5474 L24.4306 247.781 L23.4969 248.0532 L22.8356 247.7615 L22.1353 247.9948 L21.6879 248.1116 L20.7542 247.742 L20.054 247.6252 L19.4511 247.7615 L17.6032 247.1973 L16.8834 247.0418 L17.2498 246.1904 L15.7018 244.5924 L15.6569 244.2633 L16.486 244.1705 L16.7279 244.0656 L16.7585 243.6702 L15.5732 242.8221 L14.4554 242.0998 L15.4765 242.1562 L15.1242 241.778 L14.1975 240.9124 L13.5386 240.8997 L13.6672 241.5674 L13.4602 241.4202 L13.2641 240.5324 L12.8837 239.8154 L13.28 238.9369 L14.3034 238.8669 L14.7429 238.9961 L15.6228 239.7904 L15.7126 240.293 L16.2619 240.4813 L17.3941 239.822 L17.6227 239.2223 L17.669 238.6583 L17.1066 237.8427 L17.1859 236.7685 L17.1099 235.5077 L16.8202 234.7644 L15.4433 234.4428 L14.21 234.7947 L13.5616 235.2278 L13.9428 236.2763 L14.3935 237.4433 L12.3698 237.9886 L10.6758 238.0574 L9.3793 238.5721 L8.3274 239.6 L7.6849 239.8776 L5.6996 240.157 L3.6231 240.6917 L1.6995 241.9029 L0.0 242.996 M12.7287 246.724 L13.8771 246.6722 L14.6458 246.8451 L15.2329 246.9917 L17.1243 247.2941 L17.5127 247.7519 L17.5992 248.2094 L16.1743 248.3303 L15.7942 248.2785 L13.8771 247.605 L13.3245 247.5272 L12.8236 247.579 L12.7287 246.724 M22.4135 265.9731 L22.7305 265.8291 L23.0186 265.8723 L23.3356 266.1748 L23.7247 266.42 L23.6959 266.7081 L23.8399 266.9098 L24.2146 266.5929 L24.3874 266.737 L24.2722 267.0683 L23.8976 267.3421 L23.5661 267.4141 L23.2491 267.2844 L23.1141 267.1014 L23.0043 266.9531 L22.5288 266.8522 L22.4423 266.5497 L22.4257 266.2173 L22.4135 265.9731 M36.9009 397.9084 L37.171 397.4527 L37.9993 397.5367 L38.7705 397.1613 L39.5529 397.0363 L40.1664 395.8974 L40.9705 396.058 L40.9027 396.7548 L40.5949 397.1393 L40.5569 398.3853 L40.8258 399.0738 L41.2704 399.5745 L40.989 399.8249 L40.6389 400.1728 L40.1389 400.1625 L39.2702 399.8249 L38.001 399.0715 L37.5157 398.6057 L36.9009 397.9084 M43.835 389.3822 L44.1787 388.7315 L44.7648 388.8676 L45.1439 389.0239 L45.4949 389.543 L45.4218 389.8503 L44.5589 389.843 L43.835 389.3822 M63.3138 374.2172 L64.8682 373.8889 L65.2309 375.9442 L64.2119 376.2379 L63.3138 374.2172 M64.7459 422.6377 L65.5427 421.9036 L67.0737 423.0676 L65.9518 423.9589 L64.7459 422.6377 M68.777 412.5284 L70.2864 410.8764 L72.7137 412.4062 L71.3471 414.242 L70.0927 413.5892 L68.777 412.5284 M82.7432 350.7094 L84.092 350.3702 L84.6331 349.9971 L84.9357 349.9166 L86.0913 351.7945 L87.7222 350.3192 L90.1424 347.7131 L91.4236 343.5805 L92.7524 338.9266 L95.671 341.049 L99.942 341.7562 L103.0265 341.4211 L106.9427 339.5109 L107.5316 338.3146 L109.976 336.9591 L109.1931 335.6241 L106.1681 334.7503 L104.3986 335.9997 L101.2522 331.6864 L98.4965 332.4718 L98.487 331.6336 L95.9248 332.2123 L96.9211 327.7685 L99.1929 328.2803 L99.6161 327.46 L104.4396 328.513 L104.7135 326.9682 L106.3209 325.0431 L107.6485 324.4209 L109.131 322.4044 L109.3837 322.0714 L108.5101 320.9257 L107.5929 320.0195 L106.5904 319.4818 L105.9513 319.2944 L105.8249 318.7239 L106.5326 317.6795 L108.3822 317.9736 L108.593 317.6252 L106.757 313.2232 L110.3786 311.3503 L110.5726 310.8177 L114.2729 308.3936 L113.8276 304.9323 L113.84 303.7066 L114.8975 303.8789 L117.4735 304.3395 L116.9273 306.9089 L117.6368 309.9662 L118.0854 310.6527 L118.659 311.4463 L119.3163 312.0989 L120.2233 313.0006 L126.5901 314.3281 L131.0116 313.2227 L131.5643 314.6045 L129.6299 317.6444 L127.8744 318.5137 L129.5381 318.4986 L129.9189 318.9399 L128.3197 319.7171 L128.494 320.4429 L125.7927 321.9314 L124.2241 319.7923 L124.6675 319.6304 L124.1882 318.7047 L123.6964 318.5564 L121.6982 319.0867 L118.3359 318.5496 L117.654 318.9071 L117.81 320.4068 L117.9104 322.1303 L118.5983 323.4515 L119.0257 323.7486 L119.1363 326.1112 L119.0228 326.5988 L117.999 328.5226 L118.3185 331.0255 L119.8206 331.3117 L119.1202 332.1244 L119.4579 333.6085 L121.6677 333.2804 L121.5098 332.7168 L123.6877 331.5191 L124.0266 332.2285 L124.5405 333.2165 L123.6462 333.3963 L123.3181 333.8167 L124.0073 335.9997 L124.7771 337.5641 L126.202 339.0593 L129.1732 341.0184 L130.369 340.762 L130.5634 341.122 L129.9235 341.8553 L129.3714 343.827 L129.9029 346.9758 L130.7849 348.0725 L130.8567 348.7918 L131.3398 349.4389 L131.3308 350.9486 L131.8753 352.0281 L130.7004 352.1066 L129.4404 352.7997 L129.3459 353.7471 L126.8884 355.0946 L126.2259 356.0929 L126.3652 356.1983 L126.2284 356.5708 L125.5885 356.735 L123.7558 358.8757 L122.7663 359.2151 L122.7334 358.707 L122.5129 358.2561 L122.8333 357.65 L123.6264 356.587 L123.9878 355.8247 L124.0512 354.5159 L123.6718 353.3152 L123.1842 353.2528 L123.0655 352.6057 L123.3733 351.9326 L121.8923 348.3182 L120.7598 346.7904 L119.8255 347.9666 L117.4653 347.3284 L117.9998 345.8768 L116.4143 346.1556 L114.8305 347.4572 L112.0497 348.3725 L112.4966 351.6346 L110.2028 351.4351 L109.3253 351.0004 L109.3707 349.6218 L108.2364 349.6031 L105.794 349.5627 L103.5501 348.8418 L100.9607 348.445 L97.7814 348.2435 L95.2801 349.0919 L93.5244 349.6188 L92.5473 350.304 L93.0111 351.2315 L92.3473 351.9051 L91.4908 351.3264 L90.0839 352.1407 L88.5308 352.9962 L85.9324 354.5841 L84.5573 355.2317 L83.2578 354.8352 L83.9578 353.7638 L84.9526 352.7434 L84.0998 352.2625 L83.7583 352.3554 L82.7432 350.7094 M132.0353 289.6949 L132.1884 288.8635 L133.0057 289.0374 L132.8492 289.9314 L132.0353 289.6949 M174.601 39.3796 L176.2204 38.9747 L178.4568 38.859 L179.9992 38.9939 L181.985 39.5146 L182.8141 40.3629 L182.3706 40.8833 L181.368 40.3242 L179.5365 39.9388 L179.5172 40.4979 L179.98 41.5004 L176.741 41.4809 L175.4685 41.4617 L175.1794 40.1507 L174.7359 40.2087 L174.601 39.3796 M180.222 70.7812 L180.3428 70.1077 L184.4189 70.3667 L184.7299 72.0247 L185.5071 73.5791 L180.6193 72.8019 L180.222 70.7812 M181.3427 328.1396 L181.5106 327.43 L183.0417 326.8699 L182.7711 325.3761 L182.939 324.6758 L185.4785 324.0222 L185.8425 325.0866 L186.5801 325.852 L187.1121 325.4506 L187.8871 326.3469 L188.5218 327.8407 L188.2232 328.158 L187.9058 328.3263 L185.6559 328.8209 L185.8611 329.5025 L188.2699 328.9798 L188.5127 329.7452 L189.0634 330.1654 L188.4401 330.7466 L188.3726 330.8095 L187.8971 330.6688 L187.5059 330.7577 L185.8162 331.6828 L181.8654 332.6299 L181.6693 331.3044 L182.2482 331.1549 L181.5317 328.7691 L181.3427 328.1396 M182.7177 41.404 L183.2767 41.4232 L183.7972 40.5941 L184.3563 41.2497 L185.0698 42.1366 L183.643 42.8691 L183.0454 42.1366 L182.7177 41.404 M184.3067 67.1456 L184.7125 67.1198 L184.8594 66.2301 L184.704 64.8657 L184.8249 64.5118 L185.7834 64.5032 L185.2307 65.9711 L186.1116 67.776 L188.0719 68.1819 L189.229 68.0955 L189.255 70.2285 L188.0373 70.6171 L187.3897 70.6518 L184.7471 70.3409 L184.3067 67.1456 M195.7773 322.1876 L196.9739 320.0336 L198.2949 318.2532 L199.147 318.186 L201.071 319.019 L201.9901 319.7656 L202.4783 320.8186 L203.0144 322.1492 L202.4973 322.6853 L201.6071 322.0345 L201.2243 321.6803 L200.8221 321.8718 L201.1093 322.8195 L199.5967 323.231 L199.099 324.3512 L197.663 323.5566 L195.7773 322.1876 M197.9425 66.7226 L198.098 65.9106 L199.0306 65.3235 L201.0686 66.3425 L200.9823 67.6897 L197.9425 66.7226 M201.604 76.1872 L201.9149 75.1163 L201.7423 72.6812 L202.3468 72.4219 L202.8822 73.3893 L203.2103 75.79 L203.1412 76.5672 L202.623 78.2079 L202.1741 77.9836 L201.604 76.1872 M206.6473 63.7345 L206.7165 62.8365 L210.7579 62.3354 L210.637 63.4064 L209.9807 64.1837 L207.321 64.2009 L207.2864 63.8553 L206.6473 63.7345 M210.8832 148.4945 L211.2977 147.4926 L212.8175 147.7689 L215.0974 145.9037 L218.9318 147.2854 L218.6554 147.6998 L219.968 148.7017 L219.1044 149.3233 L216.8591 147.8726 L211.7468 148.7361 L210.8832 148.4945 M217.0319 139.4442 L217.7917 138.8051 L218.2417 137.3638 L218.8453 135.6961 L219.467 135.2644 L220.728 136.0243 L222.2823 135.938 L222.5759 137.2507 L223.5087 137.8552 L223.4914 139.0123 L222.8523 139.6858 L221.5051 140.4631 L221.0389 140.2387 L219.4326 139.8068 L218.1718 139.6686 L217.4118 140.4112 L217.0319 139.4442 M217.0663 144.7983 L217.4118 144.1764 L217.8954 143.0021 L219.5879 142.6565 L221.2807 143.5891 L222.0405 142.8637 L222.8696 143.0021 L222.9042 143.6238 L222.1442 145.3165 L221.4188 144.5911 L220.8315 145.4546 L219.9334 145.1436 L219.7262 145.6274 L219.0008 144.7636 L217.0663 144.7983 M224.5399 332.3389 L224.6334 332.2335 L225.5695 332.0112 L226.2012 331.6603 L228.436 332.8302 L229.2082 330.6658 L230.0389 331.0167 L230.7878 331.6485 L231.9109 331.4964 L232.5193 330.8881 L233.467 331.672 L233.0459 332.7016 L233.8297 333.2397 L233.4552 334.3161 L232.7183 334.1405 L232.7416 333.8247 L231.6535 333.5087 L230.5069 335.9191 L229.0561 335.3222 L227.8041 335.1234 L226.7629 335.0065 L226.3183 334.866 L225.4994 334.328 L224.5399 332.3389 M239.3219 81.4183 L240.5586 81.0578 L241.7516 80.8247 L242.5116 81.0664 L242.4597 81.8092 L241.9071 82.4481 L241.3802 83.8989 L241.0262 83.8989 L239.3219 81.4183 M243.2845 167.2856 L245.3571 166.9057 L247.1187 167.4584 L245.4262 168.3911 L243.699 168.1839 L243.2845 167.2856 M245.7536 343.0286 L247.9885 340.078 L248.5915 339.2821 L249.0867 339.2674 L249.8796 335.2015 L249.5201 333.7447 L249.4035 333.1566 L249.0753 331.4992 L249.6004 331.3426 L249.9509 331.9696 L250.6792 331.8036 L250.6054 331.2966 L251.2508 331.1581 L251.1771 330.4943 L251.6565 330.3285 L251.3707 329.4709 L252.4495 329.6462 L253.1777 330.3101 L253.27 330.6234 L255.6763 332.1449 L256.829 332.4859 L258.2854 332.426 L260.4955 332.765 L262.3165 332.7201 L262.9989 332.8676 L263.8286 333.4946 L264.2583 336.4339 L264.7725 337.4706 L265.6883 337.5207 L265.3288 338.9221 L262.1422 340.7936 L258.8493 341.9101 L258.5832 342.0003 L255.8053 343.7664 L255.2576 344.9008 L251.7241 346.5567 L251.0758 349.2212 L250.1305 348.7388 L249.9101 348.462 L249.4929 348.3119 L249.0169 347.7449 L248.4148 346.2428 L246.4069 343.7914 L245.7536 343.0286 M248.891 282.7494 L249.1489 282.4115 L249.9477 282.2282 L250.8002 282.3359 L251.5744 283.0905 L251.9567 284.041 L252.096 284.9508 L250.8765 285.4461 L249.2979 285.7862 L249.0429 283.8292 L248.891 282.7494 M251.9694 349.178 L253.3373 348.1081 L253.8536 348.9702 L252.5335 350.0562 L251.9694 349.178 M252.5074 165.6623 L255.8235 162.8642 L257.5507 162.4152 L258.2416 163.3823 L258.276 165.1786 L255.5126 164.8678 L252.5074 165.6623 M255.9346 137.6604 L256.6353 136.2834 L258.5178 134.9363 L259.2606 135.2126 L259.8651 133.8826 L261.5923 134.3836 L261.9894 135.1263 L261.5058 135.748 L261.2986 136.6979 L262.0931 137.6652 L263.1428 139.7304 L262.628 139.8898 L261.6267 139.0814 L261.0913 138.5288 L260.0032 138.3734 L260.2624 139.8758 L259.2606 139.5305 L259.5542 139.3577 L259.3124 138.6841 L258.6906 138.8397 L257.6543 137.648 L256.7739 138.5201 L255.9346 137.6604 M263.3021 135.3335 L263.3539 134.729 L264.6665 136.7844 L265.3056 138.546 L265.8755 140.5322 L265.5646 141.8276 L264.3038 141.8276 L264.4938 138.7188 L263.3021 135.3335 M264.8375 129.938 L266.2512 128.2573 L266.3981 128.6201 L266.0362 129.4638 L265.2512 130.3912 L264.8375 129.938 M271.5342 253.8681 L272.2417 252.932 L273.691 251.3726 L274.2575 250.7975 L275.8738 249.213 L278.1446 246.9867 L282.0687 242.6325 L284.5792 242.367 L286.1824 242.1974 L289.9275 244.9742 L293.2886 243.1583 L297.0707 245.4603 L297.9698 246.1618 L300.6865 248.282 L300.5159 248.6657 L300.32 249.1066 L299.5811 250.7692 L297.3703 253.5326 L298.4758 257.4014 L298.4758 259.8884 L300.2715 263.7575 L300.795 264.7665 L302.4076 266.4996 L304.6843 267.5887 L306.388 268.1736 L306.3668 269.2607 L308.9768 270.666 L308.8167 270.6654 L305.8684 270.3106 L305.3033 270.2461 L304.542 270.1589 L304.3257 270.1809 L302.017 269.8706 L299.3048 269.5604 L295.6085 265.2126 L293.778 263.4809 L289.0801 265.139 L288.2357 264.4634 L285.5489 262.2768 L289.4347 257.3989 L293.7395 257.1307 L292.9903 253.0033 L291.3409 251.3023 L290.1094 251.1575 L288.3119 250.6532 L286.5678 249.733 L285.3046 249.9393 L283.5685 251.8569 L284.2487 257.0776 L283.3214 258.0394 L280.2043 262.7234 L278.1446 261.9924 L277.737 263.8768 L274.4201 261.1914 L274.1044 259.353 L273.4634 255.6196 L271.5342 253.8681 M275.8736 140.7323 L275.8952 140.538 L276.042 140.4861 L276.4003 140.4689 L276.5385 140.4861 L276.6421 140.62 L276.6352 140.6891 L276.9634 141.121 L276.8944 141.3282 L276.368 141.4162 L276.3572 141.272 L276.1542 141.043 L275.9124 140.8963 L275.8736 140.7323 M277.9461 142.9776 L277.9936 142.7099 L278.0972 142.658 L278.2656 142.6148 L278.542 142.4205 L278.7191 142.3557 L278.8485 142.3127 L278.8832 142.5199 L279.4142 143.7592 L279.9022 144.4889 L280.2433 145.1191 L280.3986 145.3524 L280.9428 145.2443 L283.3348 144.709 L283.6155 144.7393 L283.7709 144.7953 L283.948 144.9984 L283.9264 145.2271 L283.7796 145.4516 L283.6328 145.5163 L283.3694 145.5854 L282.7736 145.6244 L282.1345 145.6676 L281.2018 145.8878 L280.7138 145.8921 L280.5411 145.8964 L280.3858 145.7367 L280.1612 145.5986 L280.0359 145.4905 L279.8547 145.1796 L279.4963 144.8775 L279.2933 144.6528 L278.935 144.4585 L278.7061 144.2037 L278.6499 144.0269 L278.6888 143.7721 L278.3564 143.9145 L278.1706 143.3576 L277.9461 142.9776 M284.423 133.1845 L284.5439 132.9168 L285.727 133.2882 L286.0378 133.7718 L286.3833 134.1863 L287.0741 135.2313 L287.6959 136.0691 L287.7919 136.4868 L287.8168 136.5956 L287.9722 137.252 L288.4126 139.2382 L288.4817 140.7839 L288.7409 141.9845 L288.9394 142.7013 L289.4576 143.3576 L290.4938 144.057 L290.0535 144.437 L289.7253 144.1951 L289.3367 144.2384 L288.9394 143.7374 L288.6026 143.5388 L288.1277 143.5821 L287.929 143.2453 L287.6785 142.7443 L287.5923 142.0189 L287.264 140.7581 L287.1259 139.8774 L287.1605 139.1864 L287.1518 138.4265 L286.8497 138.0293 L286.5473 137.4076 L286.8841 137.0448 L286.7028 136.4489 L286.4783 136.0691 L286.2624 135.6285 L285.8823 135.4557 L285.727 135.0241 L285.8564 134.8082 L285.7701 134.5491 L286.0465 134.4628 L285.727 133.979 L285.1138 133.5301 L284.6215 133.8323 L284.5006 133.6336 L284.423 133.1845 M288.7322 164.187 L288.9049 163.4701 L289.0171 163.2543 L288.7916 162.8969 L289.2763 162.952 L289.9584 162.3821 L289.9067 162.0193 L290.6147 161.8812 L290.8652 162.4597 L290.1829 162.9173 L290.4334 163.0211 L290.8048 163.3666 L291.5043 163.4873 L291.7892 163.4096 L292.0223 163.6947 L292.2815 163.6257 L292.4715 163.8847 L292.5061 164.23 L292.9897 164.4114 L293.3437 164.3856 L293.1278 164.0142 L293.4127 163.7552 L293.6891 163.781 L293.905 163.4873 L294.0259 163.3924 L294.0172 163.1852 L294.3627 163.142 L294.6217 163.4357 L294.3021 163.8933 L293.8791 164.679 L293.8963 165.3527 L294.1296 166.3112 L294.164 167.0453 L294.2764 167.339 L294.9412 167.7189 L295.2349 168.0817 L296.2194 168.6688 L296.1935 169.092 L296.9965 169.6791 L297.6184 170.4132 L298.2919 171.1819 L299.1556 172.106 L299.38 172.5894 L299.7047 173.5043 L299.7221 174.0659 L299.9465 174.6097 L300.4647 175.2833 L300.6978 175.4389 L301.1642 175.7583 L301.7376 176.3373 L301.8982 176.6651 L301.159 175.9832 L301.6392 176.9846 L302.2178 177.7272 L302.9984 178.2632 L303.7722 178.5822 L304.869 178.7635 L306.9846 178.9535 L308.2282 179.083 L309.7308 179.3337 L310.4338 179.7313 L311.8327 180.4567 L311.3491 180.7415 L310.6635 180.7585 L310.0193 180.5602 L309.7429 180.4997 L308.9882 180.5685 L308.1591 180.5771 L307.4165 180.4648 L307.0744 180.4221 L306.2679 180.5857 L305.6755 180.6206 L305.3526 180.5081 L304.9466 179.9984 L304.6824 179.7657 L303.8931 179.7654 L302.1521 179.7227 L301.323 179.7571 L300.0502 179.6185 L299.8117 179.6708 L299.2557 179.23 L299.4491 178.9712 L299.9639 178.893 L300.8533 178.5994 L301.1988 178.4094 L300.9224 178.0642 L300.9344 177.814 L300.589 177.7363 L300.102 177.4768 L299.7686 177.1146 L299.3541 176.3459 L299.1348 176.0953 L298.8843 176.0606 L298.6287 176.3548 L298.361 176.89 L298.228 177.5287 L297.8256 178.1509 L297.684 179.0744 L297.4767 179.5062 L296.8756 180.3963 L296.5994 180.1198 L296.4007 180.6381 L295.7151 182.2179 L295.3437 183.1504 L295.0505 184.04 L294.829 184.4118 L294.3337 185.0418 L293.876 185.3355 L293.7033 184.8949 L294.4317 184.1354 L294.9469 182.9347 L295.0932 182.7015 L295.114 182.3393 L294.9068 181.7434 L294.8031 181.5016 L294.9815 181.4839 L295.4854 181.0524 L295.7323 181.173 L295.8532 180.8966 L295.7272 180.7071 L295.7236 180.37 L295.4767 180.2235 L295.2746 180.1021 L295.3868 179.9812 L295.5855 179.9468 L295.8445 180.0244 L296.2418 179.774 L296.2159 179.4632 L296.095 179.3509 L296.5095 179.0314 L296.4318 178.2195 L296.9844 177.5201 L297.2729 176.9937 L297.3938 176.3115 L297.2211 175.5342 L296.9015 174.8867 L296.4438 174.0489 L296.6856 173.7638 L296.2452 172.9954 L295.2521 171.7863 L293.9481 170.2232 L293.6717 170.0937 L293.1365 169.5671 L291.8929 169.1611 L291.2366 168.686 L290.7356 168.3147 L290.7271 167.8656 L290.7356 167.2525 L290.5543 166.6653 L289.9584 165.845 L289.0776 164.8432 L288.7322 164.187 M296.4525 157.8871 L296.4654 157.8138 L296.5475 157.7791 L297.0398 157.7662 L298.4603 157.4727 L299.2246 157.3475 L299.5183 157.408 L299.6133 157.6627 L299.881 157.9562 L299.8507 158.1808 L299.6434 158.4095 L299.3368 158.6989 L298.8145 159.1738 L296.8886 159.5712 L296.8152 159.3812 L296.6987 158.8414 L296.5432 158.3061 L296.4525 157.8871 M300.6236 159.4156 L300.7272 159.2947 L301.0553 159.0617 L301.4871 158.85 L302.5451 158.388 L303.6072 157.9562 L304.6434 157.4553 L305.6971 156.9804 L306.9622 156.5875 L307.2861 156.4405 L307.0831 156.1729 L306.09 156.4537 L306.0382 156.3285 L305.7143 155.5166 L305.5071 154.9381 L306.1116 154.787 L306.6643 154.6747 L307.5796 154.4285 L308.02 155.672 L308.0806 155.8751 L308.1712 155.9095 L308.4389 155.8491 L308.6894 155.7238 L308.7023 155.4951 L310.192 154.8862 L310.9477 154.6185 L311.047 154.0528 L311.0727 153.5909 L311.2326 153.0641 L311.2154 152.5675 L311.1721 152.3041 L311.0945 151.9284 L310.9692 151.6132 L311.5565 151.5312 L311.7896 151.7731 L311.7809 152.0926 L311.565 152.5589 L311.5391 153.2238 L311.4097 153.539 L311.7125 153.5418 L311.2714 154.3896 L311.2801 154.6486 L311.1938 154.9813 L310.1315 155.5295 L309.2334 155.9829 L308.4908 156.3242 L308.1971 156.3758 L308.0806 156.5271 L307.4933 156.6348 L306.9233 156.9718 L305.369 157.6238 L304.4622 158.047 L302.7955 158.6342 L301.6642 159.0961 L300.6236 159.4156 M310.7706 150.9225 L310.844 150.754 L310.9951 150.6589 L311.0642 150.5339 L311.0686 150.3654 L311.0211 150.0069 L311.2239 149.994 L311.5047 149.5234 L311.6946 149.3549 L311.8284 149.3767 L311.9709 149.5624 L311.9408 149.8862 L311.8976 150.4259 L311.7593 150.603 L311.6125 150.8403 L311.5521 151.0131 L311.4485 151.134 L311.198 151.108 L310.7706 150.9225 M314.0391 154.0227 L314.0866 153.7032 L314.1774 153.5909 L314.3156 153.457 L314.4408 153.3794 L314.6177 153.3619 L314.9503 153.388 L315.4424 153.4613 L315.831 153.6081 L316.5954 153.9795 L316.781 154.2213 L316.9149 154.4199 L317.3985 154.7438 L317.5593 154.8085 L317.6889 154.9381 L317.8486 155.1582 L318.7165 155.5943 L319.0576 155.8058 L320.4393 157.1833 L320.9878 157.831 L320.9348 158.0599 L320.707 158.2324 L320.0507 158.0943 L319.7604 157.9 L319.2822 157.6023 L318.4953 156.9501 L318.0991 156.6695 L317.9782 156.5658 L317.8874 156.3846 L317.0585 155.9181 L316.5004 155.508 L316.4486 155.3785 L316.5738 154.9338 L316.3708 154.8733 L316.1074 155.2447 L314.9978 154.6099 L314.0607 154.1348 L314.0391 154.0227 M315.965 316.2687 L316.5885 314.9254 L318.5745 315.6646 L320.1041 316.1467 L320.6119 315.9024 L321.6211 316.1467 L322.3988 316.1596 L323.08 316.8086 L323.6456 317.1686 L324.1597 317.1686 L326.1099 316.6696 L326.3708 316.603 L326.7757 316.2753 L328.556 315.8574 L328.8839 316.1467 L329.6487 316.873 L329.3273 317.6956 L329.2246 318.1135 L329.2695 318.8717 L329.6101 319.039 L329.6101 319.4631 L329.1924 320.1251 L328.8775 320.2537 L327.984 320.4722 L327.0521 320.665 L326.3964 319.5339 L326.3027 319.5826 L325.7923 319.8487 L325.7795 320.4722 L325.2652 321.0313 L324.8668 321.2948 L323.7998 320.6071 L323.2729 319.8873 L322.3217 320.6521 L322.0651 320.3236 L321.9553 320.1829 L321.5053 319.2383 L320.9718 318.8846 L320.085 318.6469 L319.3844 318.6661 L319.0887 318.107 L318.3303 317.2265 L317.559 316.8344 L317.154 316.9501 L316.4666 316.5562 L315.965 316.2687 M398.8055 266.51 L399.3242 266.0151 L400.4306 264.9593 L400.9814 264.4338 L405.7052 261.8668 L411.2678 261.2693 L413.37 261.0623 L415.5927 260.7589 L417.2482 260.1475 L417.7708 259.5002 L418.3242 258.5717 L419.6092 256.0556 L421.6807 252.6047 L429.5653 261.5814 L435.9698 269.1586 L439.1978 272.9775 L439.7152 273.7519 L442.2426 272.8122 L442.5988 273.3294 L442.6731 273.3814 L442.8827 273.7299 L440.6167 274.7032 L441.5248 275.8769 L442.1536 276.2116 L442.4055 276.6463 L442.109 276.9185 L443.0481 279.5479 L443.1112 279.7427 L443.0101 279.8261 L441.9807 280.1852 L440.0294 280.6462 L438.9602 278.3825 L437.469 278.979 L438.5072 281.5194 L438.452 281.8176 L438.0102 280.7129 L437.5794 280.8898 L438.0292 281.7195 L437.7671 281.4971 L437.3695 281.3427 L437.1045 280.4369 L436.5302 279.5532 L436.2871 280.238 L436.7399 281.3978 L436.3202 281.5636 L436.6074 282.5798 L436.3202 282.9 L435.8798 283.1411 L434.4367 283.9303 L433.5068 284.1583 L430.7585 284.7989 L428.0031 285.5067 L427.328 285.7306 L426.247 286.0892 L424.7439 286.6331 L423.2978 286.8211 L421.2985 287.274 L418.8465 287.8041 L416.9136 288.4999 L416.6484 288.025 L416.3392 287.2186 L415.8974 286.9204 L415.9195 287.5059 L415.7648 287.9366 L415.3231 287.4064 L415.1463 286.7327 L413.8094 286.7319 L413.9534 287.7048 L414.2627 288.4448 L414.9509 289.0336 L415.301 289.6709 L416.0299 290.1457 L417.2687 290.5796 L419.1116 290.3997 L421.4486 289.7336 L422.7749 289.7755 L423.6378 290.4831 L423.8794 291.2253 L424.121 292.1916 L423.9357 293.326 L423.0854 293.7278 L423.0338 294.3491 L422.654 295.2465 L421.7598 295.7021 L421.7334 296.515 L422.717 297.4848 L423.7833 297.6195 L424.287 297.0716 L424.1721 296.7181 L425.0645 296.5238 L425.628 295.4966 L426.072 296.3204 L426.7167 296.8566 L427.3532 296.8505 L427.9274 297.0805 L428.5461 297.3102 L429.088 297.5775 L429.3048 297.4082 L429.4083 297.2351 L429.4321 296.8073 L429.3544 296.4116 L429.1564 295.8461 L428.6615 295.6834 L428.3859 295.5633 L428.7534 295.1249 L429.1282 294.8563 L429.7148 295.0686 L430.0048 295.0756 L430.4925 294.8563 L430.7041 294.9478 L430.45 296.6165 L430.0189 297.4648 L429.3919 298.2873 L429.739 298.6444 L431.3454 299.0216 L432.2485 299.3691 L433.1144 299.3956 L433.353 299.9169 L433.4944 300.4028 L433.2896 301.0765 L434.2189 301.4545 L437.7528 302.169 L439.3617 302.444 L440.8462 302.5324 L443.1966 302.5589 L443.8825 302.8925 L445.5421 302.4356 L446.5699 302.099 L447.1202 302.0301 L447.2375 302.3689 L449.2284 306.891 L450.2968 310.1956 L450.4544 311.1014 L450.1717 311.5079 L449.7337 312.1535 L449.2352 312.9395 L448.5743 312.5322 L449.0437 311.5519 L448.2569 311.3311 L446.8302 311.4271 L446.1701 311.4127 L445.0813 310.5165 L444.53 309.9935 L443.2788 309.5763 L442.9182 308.6786 L442.3669 308.6291 L441.7307 308.1768 L441.4338 307.1942 L440.3474 306.3455 L437.666 306.2682 L435.444 306.0933 L434.218 305.8356 L433.5892 305.7676 L433.1186 305.3922 L432.8607 305.2428 L432.6366 305.2797 L433.0233 305.8098 L433.5977 306.1522 L434.6027 306.3622 L435.2986 306.6823 L436.0607 306.7707 L437.5298 306.9585 L438.5128 307.058 L439.5291 307.1462 L439.8052 307.7539 L439.7831 308.4608 L439.9043 308.737 L440.2157 308.878 L440.592 308.9505 L441.2265 309.119 L441.7807 309.5657 L442.194 310.1913 L442.2766 310.6499 L442.0549 310.9748 L441.1094 311.2222 L439.9253 311.514 L438.4054 311.9026 L437.8753 312.2561 L437.3805 312.1767 L436.5409 312.5476 L435.6089 313.0598 L435.0654 313.8379 L434.7119 314.4653 L434.279 315.4195 L433.9784 316.5064 L433.7841 317.5491 L434.3319 317.655 L434.8886 317.6992 L435.3392 317.9822 L435.8959 318.4768 L436.0382 318.8742 L436.1013 319.3793 L435.8077 319.8863 L435.1592 319.7653 L434.217 318.7861 L433.7399 317.7257 L433.678 319.0602 L433.5456 319.8376 L433.2097 320.9421 L432.8562 321.9762 L432.8298 322.5858 L433.0859 323.1246 L433.3954 324.1498 L433.4749 325.0158 L433.678 325.4221 L433.84 326.4897 L433.0595 326.0496 L432.2996 325.9081 L431.6281 325.7315 L430.3417 325.2217 L430.2216 325.1899 L430.0629 325.2217 L429.6057 325.3223 L429.3069 325.1967 L428.6656 325.2094 L428.0316 325.3549 L427.0041 325.5057 L425.7553 325.4357 L424.1362 325.39 L423.3779 326.14 L424.0914 324.5429 L425.3189 324.0349 L426.6356 323.443 L427.5966 322.6229 L427.8726 321.9936 L428.2879 321.4193 L428.1907 320.8716 L428.8504 320.5109 L429.2741 320.2696 L429.4423 319.9849 L429.5717 319.5238 L429.5856 318.9394 L429.5509 318.5352 L429.4843 318.2767 L429.3895 318.0749 L429.1483 317.8536 L428.968 317.7161 L428.6882 317.5635 L428.4028 317.514 L427.8814 317.558 L427.1951 317.4928 L426.7239 317.063 L426.3793 316.5153 L425.9029 316.1211 L425.1157 315.7376 L424.6474 315.508 L424.0376 315.2515 L423.3926 314.9953 L422.4737 314.9423 L421.5194 314.7834 L420.9273 314.5977 L419.356 314.4675 L418.4126 313.9072 L417.9672 313.3253 L417.7972 312.746 L418.0997 312.2295 L418.2146 311.6376 L418.1253 311.1252 L418.727 311.2487 L419.1778 311.2222 L419.6726 311.0721 L419.6902 310.5243 L419.9642 309.994 L420.4943 309.6582 L420.4679 309.1989 L421.1216 308.9161 L421.9523 308.1473 L422.4826 307.9881 L423.2247 307.9264 L424.2025 307.1308 L425.2316 306.5375 L426.1982 305.83 L427.5382 304.5232 L426.5606 304.6218 L426.1119 304.4838 L425.0072 304.0697 L422.8155 303.2068 L420.5719 302.1711 L419.1345 300.6487 L417.1354 298.6499 L415.7601 298.0837 L415.2477 298.6229 L414.3849 298.2183 L413.441 297.5442 L412.4703 296.7623 L411.931 296.115 L414.1558 294.8694 L413.5128 292.9411 L413.4941 290.9582 L412.827 289.5504 L412.6202 289.1139 L411.9214 286.7908 L411.1697 286.6591 L410.4867 284.7731 L410.3328 283.7691 L408.514 284.0703 L407.9561 282.8095 L407.7832 282.4858 L407.3097 280.9358 L406.9253 279.4478 L405.5349 279.5403 L405.1443 277.8508 L404.5389 275.4018 L404.4774 274.6704 L404.3547 273.6948 L405.8572 273.3263 L405.7915 272.8342 L405.4515 272.6141 L404.5529 271.9191 L403.8335 271.3835 L403.5487 271.1717 L402.3136 269.8167 L401.8281 269.2842 L400.87 268.2532 L400.469 267.8018 L398.8055 266.51 M449.3073 284.737 L449.4224 284.4575 L454.7921 281.0245 L458.0165 277.6334 L458.3596 277.9466 L458.4753 278.2804 L458.9258 279.6381 L460.0187 282.276 L460.5105 283.3814 L460.9403 284.1067 L461.1887 284.2657 L461.4271 284.4345 L461.5041 284.5687 L462.9295 284.7102 L462.5516 288.2987 L462.2043 290.568 L462.1156 291.0603 L461.2336 291.0479 L460.486 291.5722 L459.85 292.5095 L459.6903 293.7113 L458.7677 294.2167 L458.2298 294.8889 L458.0399 297.5141 L450.741 297.7476 L457.2858 293.0814 L456.5249 291.1929 L456.3419 288.8064 L454.2797 289.0348 L454.227 288.8028 L454.199 288.4448 L454.227 288.1741 L454.3782 287.8544 L454.5257 287.5628 L454.6591 287.3066 L454.9473 287.1203 L455.1087 286.9833 L455.0175 286.8112 L454.7821 286.7726 L454.4906 286.6672 L454.4378 286.5512 L454.4484 286.3298 L454.3957 286.1191 L454.1251 286.07 L453.8371 286.0804 L453.4928 286.1261 L453.2223 286.207 L453.0327 286.2808 L452.836 286.3826 L451.9401 286.2421 L450.2047 285.7291 L449.7411 285.5641 L449.3073 284.737 M451.0757 273.5184 L451.0977 273.4188 L451.645 273.2116 L451.7114 273.4272 L451.6948 273.6013 L451.6312 273.7395 L451.4543 273.8611 L451.2526 273.8722 L451.1198 273.7231 L451.2222 273.5406 L451.1945 273.4909 L451.0757 273.5184 M466.5692 299.0057 L466.5975 298.6378 L466.5787 298.4867 L466.8995 298.2507 L467.9282 297.7979 L468.6359 297.5525 L468.7774 297.7979 L468.9 298.1471 L468.9662 298.5905 L468.6547 298.6944 L468.551 298.7697 L468.4284 298.7697 L468.2395 298.7887 L468.1169 298.9868 L468.1924 299.2511 L468.3622 299.4964 L468.3434 299.7511 L468.1452 299.9682 L467.8149 300.0627 L467.4469 300.072 L467.192 300.0531 L466.9279 299.7607 L466.6165 299.317 L466.5692 299.0057 M468.3707 228.0232 L468.3707 227.6885 L468.5605 227.3315 L469.0068 226.9967 L470.435 227.4766 L471.8856 228.0344 L471.9413 228.358 L474.2623 229.3286 L474.0056 229.563 L474.0279 229.9536 L474.4296 229.9203 L475.1326 229.8533 L475.1326 230.4891 L475.0767 231.1811 L475.1661 231.75 L476.1479 232.6427 L476.9625 233.2229 L477.4646 233.9483 L477.4759 234.1268 L477.074 234.1045 L475.7798 233.3011 L475.3222 233.0333 L474.6862 232.7767 L474.4296 232.5535 L474.4966 232.0736 L474.8982 231.8281 L474.8201 231.4041 L474.5635 231.2034 L474.1171 230.7124 L472.7671 229.8978 L471.5842 229.7081 L470.714 229.63 L470.2677 229.4515 L469.2857 228.9605 L468.7391 228.5143 L468.3707 228.0232 M486.6953 290.8851 L487.3041 290.8851 L487.5601 292.349 L486.9369 292.441 L486.99 292.842 L487.6617 292.7983 L487.8886 293.4265 L488.1592 293.6537 L488.1448 294.1369 L488.0433 294.3638 L487.6084 294.3736 L487.1784 294.4267 L487.0866 294.4219 L486.6953 290.8851" stroke-dasharray="" fill="none" fill-opacity="1.0" stroke="#ff0000" stroke-opacity="1.0" stroke-width="1.0px" stroke-linecap="butt" stroke-linejoin="miter" stroke-dashoffset="0.0px"/>
</g>
</svg>