<?xml version="1.0" standalone="no"?>
<!DOCTYPE svg PUBLIC "-//W3C//DTD SVG 1.1//EN" "http://www.w3.org/Graphics/SVG/1.1/DTD/svg11.dtd">
<svg width="512px" height="512px" version="1.1" xmlns="http://www.w3.org/2000/svg" xmlns:inkscape="http://www.inkscape.org/namespaces/inkscape">
<g id="layer" inkscape:groupmode="layer" inkscape:label="layer">
<path d="M0.0 399.9451 L3.9 401.7656 L6.0925 403.1326 L6.8228 403.2755 L6.81 403.1249 L8.532 403.163 L11.7213 403.5908 L14.9564 404.3757 L17.8902 405.2607 L18.7769 405.234 L18.9706 405.657 L20.0865 405.8761 L26.8243 400.4653 L33.2798 390.8248 L48.2576 393.1587 L49.6136 394.5257 L49.8232 394.5953 L51.3057 395.7851 L52.6868 397.3798 L53.0174 397.9561 L53.6315 398.5753 L54.1338 398.7306 L54.5811 399.0506 L54.9735 399.5698 L55.1904 400.0518 L57.0634 401.7827 L57.9599 402.6829 L58.2764 402.9535 L58.4548 403.1792 L61.4663 406.2028 L62.7318 407.7974 L63.0093 410.7628 L65.1847 414.2779 L68.2096 411.6297 L68.4565 411.9764 L68.6313 411.9231 L69.0609 411.9593 L69.496 412.368 L70.0221 413.2481 L71.1288 414.9123 L71.8089 416.2792 L72.6736 417.2794 L73.6966 418.6273 L74.0694 418.9674 L73.872 419.3627 L73.8488 419.5513 L75.2653 421.5403 L76.9677 422.4747 L77.4988 422.9977 L77.4847 423.4597 L77.1694 423.6569 L76.7698 423.654 L77.9082 425.2534 L79.0002 427.2814 L78.5321 431.7183 L77.1278 438.4785 L77.9076 445.5786 L66.5658 454.7893 L62.4837 464.1141 L63.6631 468.2669 L67.5765 473.234 L70.2116 475.2103 L84.3729 480.5821 L89.2482 482.0498 L89.756 481.9003 L90.0511 481.5507 L91.8282 481.2545 L91.8703 481.2774 L99.5401 479.0201 L111.3225 485.6567 L118.8199 486.6301 L136.5965 478.9153 L151.452 481.0012 L171.3625 486.0386 L172.4331 486.0281 L172.8768 485.9091 L173.6577 485.5443 L174.6281 485.2271 L175.6438 485.0338 L177.9146 484.0928 L180.4787 478.8963 L174.3495 466.7715 L173.1029 455.818 L175.0522 443.4354 L188.4302 431.7012 L189.1788 431.2297 L191.9837 429.3608 L196.5772 423.6759 L200.3268 424.5847 L214.6874 417.4785 L223.6398 416.4974 L224.0719 414.9866 L223.9002 414.7694 L223.1809 414.2064 L222.9799 413.8559 L222.9059 413.6597 L223.1485 413.2748 L223.4883 413.0138 L224.0639 412.8804 L224.576 412.9481 L224.6567 412.9414 L224.7704 412.5442 L220.299 413.3967 L218.4444 412.5813 L219.2418 410.0332 L221.7149 405.0187 L220.8722 401.174 L220.2263 399.5508 L218.2861 397.9809 L217.7954 397.8161 L217.4306 397.2493 L217.3811 397.154 L216.4333 396.028 L216.2701 394.1494 L218.6473 394.1494 L219.1575 394.6686 L219.2693 394.7334 L219.7509 395.2735 L223.0899 398.7887 L235.4399 398.4076 L238.0065 397.3693 L251.2305 405.5712 L252.3671 409.5654 L252.3323 412.6166 L251.206 414.0902 L246.236 414.1521 L246.2403 414.2912 L246.115 414.7103 L245.804 414.9323 L245.4404 414.9285 L244.7431 414.1702 L236.8454 414.2684 L236.4482 418.4216 L238.8743 422.7272 L254.6727 421.6298 L259.1007 424.0627 L266.3384 431.2335 L264.5008 435.3932 L253.3204 448.5151 L247.028 454.7036 L247.1667 458.8812 L247.4607 459.8803 L249.2291 461.9682 L251.1474 464.057 L252.9165 465.8133 L253.75 465.9676 L254.1466 464.7561 L255.7391 464.6542 L256.9081 464.516 L257.9543 464.4084 L258.6491 464.2998 L259.7282 464.2227 L261.8292 463.9512 L263.7303 464.2751 L265.2048 464.7704 L266.1618 464.978 L271.1733 466.4058 L272.2977 466.7772 L273.515 467.1334 L275.1051 467.5982 L276.0834 467.9449 L277.0153 468.2983 L277.8091 468.6736 L278.8639 469.0565 L279.734 469.467 L280.5969 469.8318 L281.6541 470.3794 L282.5933 470.7795 L283.2478 471.1767 L284.0288 471.6253 L284.9631 472.1453 L286.1602 472.9806 L287.5419 473.7873 L288.9217 474.4274 L290.2851 474.8093 L291.6246 474.8855 L292.7893 474.7503 L293.5966 474.9103 L293.9443 475.1646 L294.3549 475.6713 L297.0034 480.204 L299.372 483.5432 L302.0852 486.6624 L303.85 488.4082 L306.3359 490.8322 L309.1732 493.4351 L311.7068 494.8809 L314.0338 496.2485 L316.1995 497.1809 L318.9066 498.3324 L321.9957 498.941 L325.3059 498.1362 L326.0814 498.1314 L328.076 497.8438 L331.0147 497.0752 L334.0683 495.6714 L335.5019 494.8285 L338.2304 492.857 L339.5137 491.6579 L340.6088 490.4645 L344.4177 484.6138 L346.2956 481.1345 L347.4432 479.6706 L349.0681 477.9191 L350.0037 477.2257 L352.6136 475.8675 L355.2291 475.1493 L357.341 473.1787 L358.1629 472.6701 L359.0062 472.3006 L359.9412 472.0596 L360.6769 472.0634 L362.3262 472.3053 L364.3691 472.1767 L367.6134 471.6938 L369.7852 471.0224 L370.9615 470.8147 L372.353 470.7642 L374.1428 470.8414 L378.4999 472.1824 L379.3304 472.3377 L380.4847 472.4425 L381.6721 472.3053 L383.0323 471.9024 L384.9872 471.3595 L387.1572 470.8309 L389.1298 470.4042 L390.3373 470.2394 L391.0156 470.1804 L392.2103 470.0889 L393.8132 470.0299 L395.1349 469.9899 L395.7081 469.867 L396.1267 469.6746 L396.6785 469.6318 L398.8815 470.8509 L401.3882 470.7852 L402.5114 470.789 L403.5068 470.4661 L404.7535 470.248 L406.0276 469.907 L407.9061 469.3279 L409.6892 468.5983 L410.8155 468.0659 L411.4987 467.5782 L413.8403 466.1667 L415.1688 465.258 L419.9769 461.5596 L424.8026 457.9763 L429.7763 454.2759 L431.1317 453.2319 L432.3184 452.167 L433.5186 451.1945 L434.7585 450.1697 L435.6922 448.9295 L436.1353 448.4209 L436.6742 447.5398 L437.5646 445.8672 L438.6609 443.2592 L439.0544 441.9923 L439.4492 440.4816 L439.4999 439.7749 L439.7511 437.605 L439.1693 437.1878 L438.5387 436.8201 L440.8296 435.4885 L442.0983 433.9549 L442.6122 433.1033 L443.0277 432.3975 L443.3956 431.5945 L443.9829 430.621 L444.4974 429.5256 L444.6477 428.3311 L444.3593 427.3547 L443.2459 426.0087 L442.4001 424.6885 L440.0597 422.6719 L439.5855 421.9842 L438.0309 420.0629 L437.5695 419.457 L436.0681 417.4204 L435.911 417.1709 L435.0873 416.063 L434.3173 414.9228 L433.9952 414.6037 L433.4251 413.9083 L432.6301 413.1405 L431.7617 412.4318 L430.7278 412.0336 L430.1368 411.8174 L428.8095 411.6669 L428.3048 411.4725 L427.9669 411.0496 L428.094 410.4942 L428.5144 410.0722 L429.1676 409.6969 L429.7127 409.1596 L430.0006 408.7224 L429.8423 408.0099 L429.5117 407.2526 L428.8872 406.2085 L427.9406 404.692 L427.4786 403.6222 L427.2892 403.3183 L426.8241 401.9285 L426.7068 400.8644 L426.5332 399.2869 L426.1281 398.4191 L425.8727 397.335 L426.1177 395.6803 L426.2081 394.7467 L426.2424 392.7119 L425.8837 391.4402 L425.4614 390.5638 L425.0697 389.7816 L423.8964 387.4134 L423.63 386.7656 L423.2541 386.0988 L422.6095 384.7717 L422.3815 384.2964 L422.1792 383.7572 L421.9 383.2532 L421.5022 382.9827 L421.0414 382.8407 L420.448 382.8379 L420.2225 382.6826 L420.0343 382.4625 L419.8101 382.01 L419.7862 381.8585 L420.4633 381.0698 L420.5898 380.4477 L420.3619 379.7713 L419.9036 379.0587 L419.5338 378.3109 L419.0774 377.1534 L418.5793 376.5589 L418.3826 376.2093 L415.6125 373.6028 L414.2938 372.4406 L413.9131 372.0481 L413.621 371.7728 L411.7663 370.1361 L410.7941 369.372 L410.1439 368.6166 L409.6128 367.7963 L409.4032 367.4362 L408.7958 366.5797 L408.3925 366.1196 L407.9446 365.6776 L407.3023 365.2069 L406.7389 364.7839 L406.3203 364.3019 L405.917 363.8417 L405.7422 363.4054 L405.8082 362.99 L406.0814 362.6861 L406.5519 362.4346 L407.254 362.3727 L407.8437 362.3517 L408.4383 362.366 L409.0537 362.2822 L409.6636 362.0078 L410.2007 361.4962 L410.2734 361.1733 L410.164 360.6302 L410.2331 360.2539 L410.1909 359.9043 L410.2117 358.6124 L410.2135 358.1856 L410.3211 357.7598 L410.5704 357.5121 L410.9957 357.4778 L411.4907 357.7998 L411.9136 358.5476 L412.8638 360.3292 L414.0267 362.3251 L416.1087 364.964 L418.2695 366.8074 L420.4425 369.2472 L421.7771 370.259 L422.7225 370.8782 L424.4476 371.9471 L425.2255 372.5654 L425.9478 373.4066 L426.1788 373.7305 L426.9726 374.7994 L427.7139 375.6558 L428.4551 376.4942 L428.9495 377.101 L429.4781 377.885 L429.9193 378.3842 L430.4314 378.9549 L431.0675 379.5084 L431.7214 379.9018 L432.2701 380.1171 L432.8537 380.1895 L433.4899 380.4705 L434.0765 380.7354 L434.7426 381.1307 L435.0323 382.0348 L435.3977 382.9608 L435.8309 383.6857 L436.0803 384.2754 L436.3791 385.0328 L436.5777 385.7234 L436.659 386.4303 L436.7402 387.1867 L436.9211 388.1126 L437.1533 388.7528 L437.5536 389.3263 L438.3065 389.8159 L439.5109 390.4094 L440.4654 390.9648 L440.7636 391.1325 L443.6205 392.7329 L446.6197 394.4886 L447.2479 394.64 L447.7826 394.4971 L448.2098 394.3476 L448.4994 394.4571 L448.7805 394.6629 L449.1563 395.0201 L449.4063 395.4098 L449.6739 395.606 L449.9996 395.947 L450.4335 396.0699 L450.8228 396.0566 L451.2988 395.9947 L451.7168 395.7794 L452.4831 394.7772 L452.6628 394.6819 L453.2109 394.2571 L453.7688 393.4216 L454.1245 392.8072 L453.7627 391.4554 L455.6491 384.5364 L455.6357 384.4821 L452.1757 385.0804 L451.6288 385.1585 L449.9379 386.2255 L448.819 386.3036 L447.5699 385.913 L446.847 386.4017 L442.5755 387.623 L441.8752 387.7316 L441.6241 387.7278 L441.4591 387.3896 L441.1657 387.0019 L440.3078 386.095 L440.0511 385.9197 L439.8531 385.7853 L439.638 385.4024 L439.4504 384.9718 L439.2286 384.3221 L438.8363 382.9093 L438.1665 381.2107 L437.7932 379.9171 L437.5481 378.0794 L436.332 374.6222 L435.5254 373.0712 L434.951 371.4574 L434.921 370.9859 L434.9956 370.823 L438.6377 368.104 L440.5229 366.8351 L441.2855 366.3216 L441.544 366.1472 L441.9296 366.1215 L442.2626 366.0367 L443.5044 360.3368 L443.8307 358.7601 L444.5115 355.5381 L447.5461 348.0793 L450.2233 345.2202 L450.7916 344.6371 L451.1674 344.197 L447.8083 340.9891 L443.6785 344.8801 L441.5538 343.2004 L437.8604 351.7415 L428.9611 348.447 L430.1264 343.6482 L432.6851 339.2237 L434.2971 337.6812 L441.6638 332.5869 L446.6637 323.4652 L450.0968 321.1823 L451.407 321.2119 L458.7987 321.2586 L459.7092 318.5146 L453.6203 315.9163 L452.7495 315.9306 L452.2081 315.842 L451.5457 315.6934 L450.7348 315.317 L450.827 315.1293 L451.0287 314.8311 L450.9315 314.7901 L450.7604 315.036 L450.5044 315.2237 L447.9562 314.0689 L446.0777 313.4238 L445.304 312.9131 L444.4913 312.5196 L444.3128 312.0966 L444.3128 311.9813 L441.3094 308.3235 L429.5667 306.7047 L426.5638 304.7496 L425.6796 304.114 L426.2534 302.741 L426.8003 302.0321 L427.2702 301.913 L427.5354 301.5262 L427.6882 299.0298 L436.2068 297.572 L434.4896 291.007 L435.7882 289.4224 L435.4588 286.3371 L434.2378 286.1265 L433.1 286.4057 L432.3716 286.3895 L431.0461 285.5968 L423.5591 285.107 L415.6889 284.8469 L415.7964 279.4299 L416.105 278.4675 L416.2914 277.7052 L417.9163 277.7862 L418.4767 277.6776 L420.6857 277.8558 L421.1184 277.9444 L424.6682 278.1207 L423.5854 276.6323 L423.3269 276.4655 L422.7298 275.7375 L422.5111 275.1563 L421.7038 274.0471 L421.2015 272.6083 L417.1103 271.7402 L412.8687 271.1113 L412.7367 271.5744 L412.8632 272.6121 L413.5641 272.898 L414.1654 273.3649 L414.9482 274.2082 L415.1181 275.303 L413.9901 276.0406 L414.2125 276.4722 L414.4306 277.2793 L414.0212 277.8424 L413.665 278.1473 L413.0221 277.811 L412.3517 277.2926 L411.4369 276.9991 L410.307 277.7357 L409.6232 277.5318 L408.2086 277.2231 L408.0228 276.2235 L408.0863 274.0329 L407.9934 273.2372 L408.3534 272.4092 L407.6011 272.1328 L406.9962 271.2991 L407.1202 270.2595 L407.0243 269.3094 L407.8395 262.4058 L397.6838 258.3712 L397.6532 255.5696 L403.3608 253.2636 L406.3673 252.4822 L405.6096 250.2648 L408.5563 249.1555 L408.2715 246.5236 L408.1609 246.1548 L408.1426 245.5335 L408.1603 245.4954 L408.0277 244.267 L410.2355 240.1418 L414.9104 224.5418 L424.755 220.0695 L435.5278 218.8725 L435.8389 217.4783 L434.6503 217.526 L433.1214 217.8166 L432.6814 217.7632 L432.4315 217.4383 L432.418 216.9027 L432.7523 216.4948 L434.2727 216.0936 L435.1416 216.0097 L436.2715 215.539 L436.5123 214.4592 L441.0338 214.5021 L442.4613 214.14 L442.6379 214.5174 L444.6092 214.5355 L442.8921 212.7724 L444.597 212.3817 L451.5335 211.6698 L453.5727 211.401 L454.4331 211.3191 L454.5394 211.362 L454.0976 210.1936 L454.0835 210.5148 L453.7584 210.591 L451.5194 210.8188 L448.511 211.2714 L447.4166 211.4068 L445.6854 211.564 L444.8274 211.4983 L444.3801 211.2905 L443.6657 211.2552 L443.1218 210.7587 L443.1579 210.1545 L443.1261 209.8391 L443.3229 209.7123 L444.1735 209.6237 L445.1488 209.4455 L445.7513 209.2034 L446.4309 208.7336 L446.8556 208.5725 L447.2546 208.3019 L446.7682 207.8397 L446.3704 207.8416 L445.9328 207.9178 L445.3871 207.5785 L444.9337 206.8857 L444.6648 206.6255 L445.6957 205.6039 L450.7531 205.3342 L450.7183 205.1112 L446.9967 205.1836 L445.4489 205.4038 L444.4895 206.4559 L443.3797 205.3418 L442.8346 205.3399 L441.8117 204.9882 L440.5131 204.8701 L440.0951 204.6833 L440.0976 204.3621 L440.2277 203.978 L440.5644 203.6388 L441.0435 202.8792 L441.332 202.2883 L441.6668 201.768 L442.16 201.4888 L443.3938 201.3572 L439.0459 201.5364 L437.2505 201.6755 L435.9367 201.6651 L427.5049 202.0129 L422.9174 200.0478 L414.6928 199.17 L412.8559 199.2291 L410.0925 198.9756 L407.2993 198.4743 L406.8868 198.0445 L406.5598 197.3326 L406.3001 196.1156 L403.7397 194.3315 L403.3357 193.0411 L402.8035 192.7418 L402.3812 192.1919 L402.3403 191.4266 L402.6562 190.9005 L402.7363 190.8348 L402.9611 190.3802 L402.9721 189.8712 L403.1952 188.6914 L403.9725 187.3476 L404.9576 185.39 L405.2393 185.1984 L405.5234 185.1365 L405.9243 185.2127 L406.9729 185.7093 L407.2388 185.7302 L415.5349 190.2601 L416.5841 190.607 L417.3859 190.7986 L422.2935 185.0717 L425.0666 185.106 L426.1678 185.0717 L434.4878 185.4529 L442.0488 188.8038 L442.6415 184.9916 L450.9523 177.8818 L453.5067 165.8062 L460.3447 164.0239 L460.3447 166.1683 L471.2704 165.9482 L471.4421 165.6889 L471.4782 165.0847 L471.2832 163.9352 L470.3421 159.1821 L478.989 157.3521 L479.7364 159.7311 L480.4422 159.9722 L480.2051 156.6373 L478.9829 153.959 L486.646 156.399 L484.7883 145.0472 L486.8171 145.0015 L487.378 144.9138 L488.0466 144.9309 L489.7448 144.8918 L491.4473 144.6612 L493.8079 144.584 L494.5412 142.3346 L494.3817 140.76 L488.3876 136.6214 L485.8577 126.6131 L477.8286 126.146 L476.5624 126.1927 L475.7704 126.1603 L475.1294 126.0431 L474.9497 125.9783 L472.4259 125.8315 L469.3754 115.0299 L468.7985 114.1072 L468.1282 112.5725 L467.5977 112.3867 L466.323 112.1426 L465.8323 112.1588 L464.5612 111.7146 L463.6636 111.3343 L463.7601 111.1217 L463.4326 111.0483 L463.347 111.2447 L462.5416 110.8482 L459.9842 110.2753 L457.3901 108.915 L454.9042 108.1725 L452.5173 107.6253 L451.9313 107.1935 L450.9762 105.5511 L449.0946 104.5645 L445.2863 103.8267 L443.6541 103.8992 L443.3217 103.76 L442.4173 103.2415 L442.226 103.2024 L440.3988 94.2038 L442.0977 58.2173 L453.7755 65.8915 L465.3862 77.5884 L482.4967 86.7589 L465.7895 87.1593 L465.8268 87.9953 L465.9203 88.0668 L466.1232 88.5234 L465.9631 91.0648 L466.1867 96.1103 L467.0032 99.1225 L474.7566 99.2579 L478.3352 99.1702 L480.367 109.4355 L480.8687 110.6213 L481.2776 111.1379 L483.6614 112.5106 L485.3468 113.1082 L492.7813 113.5067 L492.807 113.9938 L493.2341 114.2273 L493.3789 114.7163 L493.3557 115.3445 L493.1828 115.8487 L492.9328 116.4054 L493.0379 118.4252 L487.8559 118.2288 L478.5246 117.8914 L491.7302 125.7076 L494.5638 125.2605 L496.9294 124.9002 L497.7604 124.7687 L497.8191 124.7792 L500.5733 124.7153 L501.6647 124.9755 L502.346 125.0279 L503.8738 125.3968 L504.7097 125.6999 L505.3025 125.841 L505.1069 122.8766 L510.5395 120.1791 L512.0 119.0257 L511.8289 109.0552 L510.2138 106.8494 L507.9845 105.962 L504.0638 105.3576 L503.501 105.186 L503.5163 105.0621 L502.0515 104.0927 L498.1405 103.0213 L498.7651 102.1853 L498.7657 101.9251 L499.0443 101.3789 L500.3123 100.1158 L500.5073 99.8556 L500.8226 98.7861 L500.932 97.7623 L501.3658 97.157 L501.6708 97.0054 L501.936 97.0426 L502.3668 97.3686 L502.5587 97.1112 L500.6888 95.872 L500.6723 95.3963 L500.4804 95.239 L500.3074 94.8501 L500.3533 94.1399 L500.1443 92.9589 L500.1864 92.1715 L500.5207 91.0876 L500.5024 90.5576 L501.5932 86.349 L502.0234 84.0306 L502.0717 82.6637 L502.7261 81.3205 L504.164 77.4502 L504.0455 75.1604 L503.3574 74.8696 L502.5599 74.4187 L502.324 74.3367 L500.3252 71.2938 L493.8018 60.5911 L491.7791 54.8521 L493.4101 49.235 L493.349 49.112 L491.011 46.1671 L483.2666 40.4756 L484.9551 38.3754 L484.4515 38.259 L482.031 37.4306 L480.5192 36.7203 L475.1545 35.4838 L473.8767 35.1101 L473.0156 34.9671 L475.5731 40.4279 L475.4337 40.5347 L475.4398 40.7826 L475.2596 41.184 L474.6149 41.6482 L472.9661 42.7417 L471.6596 43.4139 L469.7005 44.9087 L469.1359 44.8839 L469.0723 44.9068 L468.2705 44.9278 L467.9638 44.8334 L466.3762 44.7648 L465.8708 44.903 L464.799 44.9659 L462.8496 44.6113 L457.8264 44.4044 L454.2027 44.3548 L451.4913 44.5846 L450.6376 44.9621 L448.1004 46.4512 L447.6909 46.4884 L447.3292 46.3893 L447.0768 46.2119 L446.9228 45.7763 L446.8073 43.5387 L446.2524 43.4739 L446.2396 44.9554 L445.7733 47.641 L444.8274 50.9253 L444.2438 52.239 L443.4793 53.9578 L442.3708 55.8559 L441.4792 57.2516 L440.7881 57.9837 L439.6949 59.0219 L439.0092 59.9523 L438.4849 60.2774 L437.0513 60.0829 L432.5702 59.9981 L429.8105 59.878 L427.4597 59.6568 L427.3093 59.6568 L427.3105 59.6397 L427.291 59.6377 L426.2161 59.6234 L425.1271 59.2984 L424.7293 57.7912 L424.505 55.7348 L424.2514 54.5432 L423.432 53.6127 L423.0122 53.6489 L422.1462 53.8568 L420.7059 54.6099 L419.2081 54.8902 L415.4114 56.8826 L414.5131 63.2794 L414.4814 63.2899 L414.4453 63.8714 L414.0695 65.1317 L413.2121 65.4082 L409.9502 65.5702 L407.3469 65.5426 L404.583 66.4158 L401.9284 64.9792 L400.0353 64.5588 L399.305 64.1431 L398.6261 63.6159 L398.0327 62.9715 L397.9325 62.8171 L397.5005 62.5835 L397.6716 62.4157 L397.465 62.0973 L397.1124 61.2755 L396.9242 60.6197 L396.9254 60.1258 L397.0495 59.5338 L397.7779 59.0991 L398.3847 59.1087 L401.0692 60.0162 L401.3986 59.9514 L400.3726 57.9408 L400.4007 57.7301 L399.9986 56.5747 L400.2693 55.0837 L400.9372 54.485 L401.4365 54.4679 L403.1646 55.1419 L406.6203 55.5194 L406.9882 55.4584 L407.3439 55.1857 L407.5364 54.5317 L407.4606 51.3686 L407.7521 46.9088 L407.6091 45.9898 L407.1673 45.4836 L406.4761 45.0603 L402.7741 43.1641 L401.8752 41.3527 L399.8476 38.4335 L399.2677 36.7022 L399.3893 36.2074 L398.0199 33.373 L394.1823 33.64 L392.8727 32.3319 L392.814 32.3567 L388.2565 35.6535 L387.079 36.7108 L385.6454 38.1894 L384.9707 38.6385 L385.1504 39.8655 L384.0437 39.3506 L383.908 39.4641 L383.1674 39.7101 L381.6507 39.2315 L381.1563 39.1476 L379.078 40.0256 L375.2666 41.0467 L373.5501 40.713 L371.8323 40.9208 L370.6101 40.7454 L370.1964 40.8083 L368.4102 38.4774 L368.4952 35.9938 L369.2095 32.8229 L369.1692 32.4044 L369.3354 31.1898 L370.2074 29.3974 L370.5943 28.322 L371.0135 26.9596 L375.6412 23.7267 L377.7165 17.397 L372.7655 13.3822 L370.689 13.2726 L366.2494 13.059 L367.8486 16.7678 L370.1457 17.6697 L370.384 20.1877 L370.0773 24.6791 L368.9651 26.1349 L368.5593 26.8738 L367.6684 29.0075 L367.5327 29.4012 L367.3176 30.6893 L367.042 33.1042 L366.9809 35.3475 L366.9442 35.4952 L366.9271 36.8767 L367.2681 39.0713 L367.4967 39.7997 L368.4445 41.0638 L370.8259 42.3566 L371.0006 42.8981 L371.3373 43.1927 L371.8238 44.3195 L371.8861 45.6409 L372.221 46.6781 L374.372 45.5761 L375.7091 44.8916 L377.491 46.3254 L378.0239 46.4531 L378.7052 46.7306 L379.7563 47.3817 L378.1937 50.0072 L377.4721 51.1131 L376.9325 51.7385 L376.1301 53.1427 L374.207 54.7224 L372.9537 55.6853 L371.2603 57.1 L371.0067 57.8913 L369.9019 58.2078 L367.2864 58.6158 L366.6087 58.3012 L363.9016 58.7578 L364.5323 59.8999 L364.9515 60.0038 L365.6719 60.531 L366.5489 63.7189 L365.3322 64.9096 L364.8103 65.1536 L363.7654 66.2614 L362.8298 67.3329 L362.8884 68.2557 L362.0641 74.1385 L364.041 74.1413 L364.5989 76.9926 L364.7095 77.3977 L364.5084 79.0021 L363.0412 90.7149 L361.0857 90.3527 L361.5471 93.1133 L361.5746 93.2792 L363.7929 95.8529 L364.7394 103.7381 L365.235 107.8636 L360.8902 112.6107 L362.3262 117.7961 L364.4284 119.1401 L364.0312 121.6089 L356.8387 123.0291 L355.5432 124.0776 L357.3459 125.1357 L355.5309 131.9318 L355.5859 132.1586 L357.4436 139.8316 L357.9936 142.102 L358.5198 143.7042 L362.1765 154.0562 L351.3969 159.1058 L349.4873 160.6022 L344.8063 161.2885 L346.4807 164.5385 L346.9207 166.6163 L337.5381 178.1724 L336.4369 180.7076 L336.2866 181.1346 L336.2096 181.2318 L336.0476 181.6044 L334.4912 184.5151 L334.6317 185.7083 L334.8383 185.917 L334.7301 186.5422 L334.7998 187.1341 L336.6196 189.6654 L336.7938 189.6683 L337.51 189.512 L339.8419 189.1546 L340.2904 189.0316 L340.6338 189.2394 L340.8612 189.734 L342.307 189.7569 L343.0159 194.0456 L344.623 194.0456 L344.2014 198.9918 L334.8817 201.7909 L333.3931 202.6505 L330.7532 203.3767 L328.1047 204.0514 L326.1449 204.4155 L325.1617 204.7109 L323.1683 206.5483 L321.5043 207.6233 L320.0328 209.9229 L318.1788 211.1142 L312.5104 214.7546 L318.4538 216.5263 L325.8828 217.526 L328.0393 221.3522 L334.6085 223.3277 L338.9191 226.8137 L339.3451 227.0338 L340.8459 228.0011 L341.1673 228.7339 L341.4368 230.4683 L341.721 231.6262 L341.5462 232.176 L340.7677 233.3377 L340.8771 234.1858 L336.7064 239.4137 L336.4968 239.7463 L335.9327 241.0947 L335.6431 243.5161 L335.5465 244.7883 L335.736 245.8422 L335.8985 246.3454 L338.4217 251.9895 L339.0138 252.3859 L339.3707 253.0092 L340.4896 255.865 L341.2547 257.182 L341.93 258.8534 L342.816 260.5438 L343.4974 261.5872 L344.0486 262.1275 L344.5063 262.7355 L345.1956 265.7133 L344.8998 265.9238 L344.6652 265.9534 L344.3273 267.0282 L344.1763 267.7743 L344.1598 267.8573 L343.6734 268.4042 L343.0 269.0836 L340.8178 269.6773 L335.0479 271.5239 L333.9406 273.5736 L334.0219 276.5703 L334.0335 277.0363 L334.05 277.6661 L333.9852 279.4004 L334.1368 280.1827 L329.633 280.8401 L329.2377 283.5996 L329.2157 284.0732 L329.3428 285.35 L333.0105 283.6348 L333.0851 283.3242 L333.4548 282.3656 L334.3378 281.5938 L334.468 282.9526 L334.5645 282.9078 L336.8928 291.3596 L337.0846 291.4586 L337.2973 292.239 L337.4647 293.9065 L336.9245 294.7745 L336.8231 295.2957 L339.7478 297.3138 L340.3515 297.1118 L340.6607 297.4291 L341.9581 298.4286 L342.2324 298.8555 L342.582 299.5977 L342.4213 300.178 L342.3143 300.9926 L342.0638 301.2061 L341.4814 301.6015 L336.4638 301.167 L335.9884 303.2889 L337.4861 304.0388 L339.3218 303.8549 L340.6259 304.2255 L341.3451 304.8448 L341.5493 305.4918 L341.5114 305.9158 L341.2339 306.3703 L337.8607 306.6647 L332.1458 307.1783 L332.6604 310.2958 L327.6653 311.5878 L325.0829 312.2938 L323.6212 312.5673 L323.117 312.6616 L321.0332 312.8827 L317.2976 313.38 L317.1479 311.4401 L316.7599 311.3315 L312.1999 311.4544 L307.9419 313.1513 L306.9684 312.8398 L306.5406 312.7026 L305.8617 309.8899 L305.1834 308.0815 L314.3705 305.5471 L314.4176 305.4194 L315.4454 305.0773 L317.0721 304.6409 L317.9655 304.4923 L319.5024 303.8101 L319.4902 303.6243 L318.4807 302.5171 L314.1548 300.6382 L309.4977 300.7354 L307.7072 300.2904 L305.8318 300.4667 L304.6426 300.7115 L304.0945 301.5281 L303.3923 301.6901 L302.6242 302.0455 L300.816 302.2942 L296.2823 302.7801 L295.846 302.8077 L294.6324 302.7982 L293.475 302.8487 L293.3815 302.135 L292.8425 300.1522 L293.1419 299.288 L293.1554 298.6411 L293.3784 297.4453 L293.7555 296.7011 L294.0879 296.5544 L294.2462 296.0961 L292.5644 294.5801 L285.042 290.8793 L282.6153 290.9479 L276.3052 291.9189 L265.478 299.6187 L264.8162 300.9097 L257.6884 307.345 L252.911 318.7528 L251.8965 326.4988 L249.9056 326.535 L244.5494 325.2354 L240.8572 325.2354 L239.2794 325.0458 L239.1578 325.0754 L237.3563 325.1668 L233.9807 324.72 L232.9369 324.2846 L230.6044 324.0044 L229.5643 326.0843 L240.2767 329.5162 L239.7481 333.7807 L242.6642 334.3276 L243.9701 334.4495 L244.8269 333.1566 L244.0661 331.9 L243.5369 331.717 L242.319 331.1702 L242.6929 330.8519 L244.2304 330.9301 L244.3759 330.8691 L244.9136 330.7128 L245.7893 331.2245 L246.5446 331.4893 L246.9498 331.6885 L251.4138 330.9558 L256.4406 332.2382 L261.8487 337.2134 L262.1781 338.1319 L268.1026 341.3807 L268.7259 345.5536 L261.1906 341.9952 L260.7066 341.9409 L260.2776 342.1295 L259.2687 341.1015 L255.282 339.2466 L235.1588 341.7427 L234.8991 343.4643 L235.355 343.5386 L239.4328 344.4618 L241.1218 344.8734 L242.2591 345.6232 L242.4497 346.1053 L243.1335 346.2968 L243.0486 347.5258 L243.2173 347.8926 L243.8241 348.2394 L244.957 348.6871 L244.9369 350.5021 L244.8012 351.9626 L244.5317 352.8133 L244.137 354.2853 L242.773 356.1973 L241.6309 358.2047 L240.4221 360.1177 L239.9987 360.6617 L231.8284 376.3922 L234.3217 378.1451 L225.1187 386.1378 L222.6737 382.2472 L219.5535 383.096 L215.9157 380.984 L218.0667 379.374 L217.0749 377.8612 L216.1143 377.0543 L214.9618 376.3017 L210.972 375.2109 L205.1233 373.2675 L204.7413 373.1808 L202.8347 376.6304 L201.9224 376.7819 L201.7507 376.9295 L200.4387 377.221 L199.8245 377.2744 L199.3558 377.2087 L198.1202 377.3916 L198.0139 377.4192 L197.4584 377.6269 L196.5277 377.5907 L193.8835 377.2687 L190.2213 376.3417 L188.0525 375.9654 L182.5265 375.1709 L182.4464 375.1728 L192.621 379.374 L189.8167 379.1787 L188.3092 379.0225 L183.7621 378.0546 L183.6001 378.349 L183.2286 378.5719 L182.4733 378.5509 L180.5453 378.1594 L175.8778 376.6104 L174.8897 376.2198 L174.2028 376.0779 L172.9458 375.452 L172.3586 375.2195 L172.1594 375.0595 L166.497 372.2386 L168.2105 374.0649 L170.0102 375.4681 L171.8385 377.2001 L175.3865 378.3814 L176.3746 379.6465 L175.3688 383.8248 L174.069 393.4626 L175.0394 400.552 L174.6239 404.972 L173.4102 408.5081 L171.5037 416.7593 L168.7299 414.5265 L168.6028 414.7218 L168.0577 414.4436 L165.6293 412.1708 L164.6008 411.5602 L163.7025 411.9002 L162.7388 412.7623 L162.1357 413.9588 L161.4904 415.2371 L161.3034 416.0906 L161.5582 417.1689 L164.789 419.7657 L164.1058 420.9306 L163.0761 424.9647 L159.53 430.0323 L157.9558 432.508 L154.7397 438.8347 L152.7634 438.7985 L149.5473 439.2729 L148.8622 440.2206 L146.0109 443.9002 L144.9391 445.6871 L143.9595 446.7292 L143.148 447.2093 L142.1555 447.495 L141.0843 447.6112 L139.6745 447.2169 L132.9911 448.3789 L134.4381 446.5768 L134.542 445.8967 L134.8592 445.4919 L135.6719 445.0375 L146.0225 437.3002 L148.7082 434.1482 L148.7437 433.2262 L148.4974 433.1328 L148.2163 433.1881 L146.1123 433.8644 L145.7799 434.0244 L135.2399 437.444 L123.8852 440.4902 L123.4092 440.6893 L123.1544 440.6864 L122.6698 440.816 L121.5765 441.8161 L121.7941 442.1381 L122.0783 442.4762 L123.0303 442.8067 L123.0047 443.4859 L123.6249 444.0755 L123.4783 444.4641 L123.925 445.3338 L123.9775 446.0053 L123.5473 446.9073 L122.8745 446.9502 L122.8714 447.0264 L122.6472 446.9645 L120.4289 447.1369 L119.6088 446.5892 L119.3644 446.9054 L119.3687 447.0521 L120.5218 452.0508 L121.073 453.5834 L121.5338 454.2797 L122.4626 456.639 L121.3431 459.6508 L120.4112 461.6672 L119.8142 461.0776 L119.6632 461.7329 L113.1399 455.9399 L112.5318 455.6465 L111.5315 454.9893 L111.4019 454.3959 L110.1608 453.2939 L107.0186 452.8614 L106.7949 452.8881 L106.512 452.7919 L105.2477 452.6176 L104.8883 451.3393 L104.4392 449.7915 L103.7071 448.7571 L101.9796 447.455 L97.0774 444.9213 L96.4119 442.5353 L96.4278 441.3456 L96.2439 440.3788 L97.7288 437.0944 L98.9657 436.8677 L101.2939 434.8627 L99.1649 432.2108 L98.486 432.026 L98.0423 430.8877 L97.1226 430.5572 L95.719 432.0822 L94.9472 430.1838 L94.6404 429.8932 L92.4423 425.1191 L92.1282 423.3482 L91.97 421.666 L91.992 420.1448 L91.2782 414.7923 L91.4102 414.4227 L91.533 412.8747 L92.1906 412.1565 L92.5713 411.8478 L94.682 409.9531 L97.8511 407.7803 L98.7274 405.1168 L98.6889 404.6529 L98.9914 403.7651 L99.3207 403.3126 L99.8029 401.8465 L99.2285 398.1104 L98.7634 397.9228 L96.1064 395.2754 L95.6359 395.103 L94.4559 394.9144 L94.3514 394.0199 L94.4986 393.8132 L94.5225 393.0977 L95.7941 392.0251 L96.1363 385.2804 L96.4358 384.9413 L96.4792 384.6536 L96.6313 384.3002 L97.0145 384.2849 L99.8053 381.1193 L99.8212 380.9135 L100.8753 379.9056 L101.5958 379.0882 L102.4794 377.8346 L103.2195 377.2458 L103.7627 376.6304 L103.4413 371.6384 L102.5051 367.2533 L98.5874 368.4146 L98.3888 370.6496 L98.3882 371.445 L98.2672 372.0176 L98.1542 373.2856 L97.4123 373.8448 L96.3826 375.6606 L95.9457 376.2408 L95.2717 376.5199 L94.2249 376.7361 L93.5258 376.8019 L93.5142 376.7809 L92.5248 377.5259 L90.9421 375.049 L90.3713 373.9391 L90.1171 374.3459 L89.9503 375.8283 L88.7452 376.5809 L88.2423 376.9895 L87.5567 378.269 L86.2642 379.3655 L86.2233 379.7589 L86.4488 380.6515 L86.5044 381.2298 L86.6645 381.3937 L86.5319 381.5146 L86.5465 381.6671 L86.0131 382.7912 L85.2462 383.3628 L84.588 383.9077 L83.991 384.626 L83.6268 384.9518 L82.2628 385.5205 L82.1742 385.4834 L81.5497 386.0521 L80.6367 384.8318 L79.5135 384.3564 L79.6333 383.4914 L77.6082 380.784 L74.9267 381.1374 L73.8689 381.086 L74.7361 383.5466 L75.561 383.7362 L76.4605 383.4047 L77.2708 383.5028 L77.7347 383.8124 L77.8514 384.1754 L77.6931 385.4195 L76.9268 385.5081 L75.1296 385.9025 L73.2474 386.1435 L72.5691 387.3258 L72.5355 388.3508 L72.7635 388.5556 L72.8197 388.8309 L72.9755 389.2225 L73.0556 389.3301 L74.4592 390.3989 L74.5912 390.4342 L74.6707 390.5599 L76.0707 391.625 L75.4871 392.2423 L75.7498 392.931 L74.6945 393.0806 L74.2851 393.514 L72.9682 393.3083 L72.6254 393.3302 L72.211 393.1901 L71.5321 393.0834 L70.481 393.7922 L69.8681 394.1304 L69.2521 395.224 L68.5518 396.1661 L68.4461 396.2138 L67.0975 398.4934 L59.4576 390.861 L59.0775 390.7009 L58.0014 389.4597 L57.9709 389.3758 L56.8037 388.2098 L52.7393 381.9433 L51.9009 380.8668 L51.9504 380.7268 L48.1195 374.1001 L47.6074 374.0049 L47.3605 374.2621 L45.911 374.3935 L45.1441 373.3008 L44.7353 372.4539 L42.6417 369.09 L42.4083 368.9548 L41.9414 368.7309 L41.873 368.6432 L41.1507 368.2241 L41.1146 368.2879 L41.1109 368.3965 L40.1705 370.5695 L39.6242 370.9449 L38.9202 372.2005 L36.3163 372.1919 L36.0792 372.2634 L35.682 372.19 L27.3767 372.1624 L23.2275 352.0226 L19.9031 351.0318 L19.9661 349.7932 L19.9184 349.7142 L19.9178 348.2146 L20.0755 347.6344 L20.0926 347.2971 L20.7574 344.8572 L21.539 342.7574 L21.5891 342.6211 L22.8027 340.7319 L23.5574 340.4146 L23.6271 340.3489 L24.3567 340.0793 L25.0363 339.7944 L25.3394 339.6086 L25.9523 338.733 L26.4479 336.8257 L27.1506 335.6709 L28.0337 335.0097 L28.6692 334.7534 L29.5962 333.0404 L30.2672 331.6818 L30.6497 330.8072 L32.3987 329.5314 L34.4959 326.5369 L34.7507 326.4388 L35.3013 326.0024 L36.0805 325.6708 L36.7826 325.5089 L37.9534 325.6908 L40.3709 326.2577 L40.7101 324.9334 L40.5176 324.7457 L40.0672 323.4633 L40.0366 323.2765 L38.204 319.0815 L41.7232 319.6188 L38.9202 311.8165 L35.7254 308.2654 L26.729 308.5389 L21.8892 310.0633 L23.4169 325.4793 L20.6181 331.6913 L7.6142 342.5907 L3.8254 349.3836 L4.1988 350.4296 L5.08 351.4795 L5.9104 353.4212 L6.2264 354.7235 L6.5545 355.3313 L6.5393 356.062 L6.7024 357.1634 L6.7831 357.3387 L7.3453 360.634 L7.4858 361.2971 L7.9637 362.8614 L8.2228 364.3552 L8.5552 365.8205 L8.6774 366.7722 L8.3951 366.7817 L8.653 368.2946 L7.7132 373.8229 L5.6678 378.9539 L4.2984 384.6041 L5.1392 388.1955 L3.1893 390.1513 L0.0862 393.9818 L0.0 399.9451 M262.1158 453.0748 L262.318 452.1956 L264.7251 451.0564 L265.0802 451.0793 L265.2219 450.9097 L265.1394 450.7145 L265.3881 450.3097 L266.3256 449.3276 L266.6012 448.7628 L266.7264 447.6979 L266.8499 447.1569 L267.7335 446.4968 L267.9871 446.4568 L268.7485 447.3074 L268.9294 447.5103 L272.0698 446.7616 L273.947 446.4939 L277.14 446.4025 L280.2529 446.6349 L280.4215 446.5663 L281.5355 446.1139 L281.8502 445.8034 L282.11 445.1366 L282.0831 443.6192 L282.3354 443.0163 L282.9331 442.0828 L284.151 441.3113 L285.0126 440.7655 L286.6204 440.254 L288.0552 440.134 L289.9325 440.5188 L291.6448 440.1825 L294.8896 439.6491 L295.2178 439.4243 L291.1235 439.4977 L290.8888 439.3253 L290.8876 439.3034 L290.7532 437.3592 L290.6432 435.7618 L290.5576 434.5207 L290.8723 434.2102 L293.1218 433.6491 L294.0781 433.4605 L298.1583 432.6537 L298.2451 432.6451 L300.7671 432.4022 L304.0981 432.4565 L310.8079 432.8699 L310.9881 433.3643 L310.8806 434.0073 L310.5891 434.4712 L310.3434 434.5616 L306.8877 434.3702 L305.7646 434.494 L305.1027 434.9103 L304.6811 434.8722 L303.9826 434.7198 L303.0862 434.9646 L302.5166 434.9446 L300.8942 434.8893 L299.2516 434.676 L298.8855 434.9941 L298.9332 435.2999 L299.394 435.5932 L302.9804 436.2867 L304.865 436.723 L305.9546 436.7963 L307.9076 436.9268 L308.1851 437.0401 L308.1472 437.464 L307.7653 437.6802 L307.6033 437.6841 L303.8848 437.7641 L303.5029 437.9803 L303.3905 438.2594 L303.4809 438.5061 L303.883 438.7566 L306.5981 438.8547 L308.7791 439.1929 L310.363 439.3624 L311.1537 439.0814 L311.5399 438.9176 L311.9708 439.0433 L311.9604 439.2052 L311.9384 439.5596 L312.6246 440.9169 L315.3843 440.7712 L315.9337 440.6331 L317.1277 440.9693 L318.3273 441.6694 L320.2675 442.4629 L324.3013 444.527 L328.9266 446.3701 L328.9541 445.2652 L326.701 444.005 L318.5998 440.3216 L318.1415 440.033 L317.6044 439.6939 L317.4748 439.1919 L318.7428 439.7129 L319.0893 439.8549 L319.4554 439.4853 L319.5122 439.3024 L319.6191 438.9614 L319.9326 439.0795 L320.5016 439.2929 L321.4817 439.9234 L322.3947 440.1006 L323.5093 440.1521 L324.5891 440.2606 L325.3591 440.0444 L325.741 439.9368 L329.5848 442.5924 L335.0644 444.2355 L335.1145 444.2508 L335.1982 444.2041 L335.3932 444.0945 L335.4133 443.5535 L335.4164 443.4668 L335.208 443.3554 L334.5828 443.0211 L331.9735 441.6266 L329.7436 440.3035 L328.5575 440.0187 L327.9794 439.6396 L327.3696 438.9042 L327.2125 438.7147 L326.6741 438.4727 L326.2635 438.288 L325.7251 438.1632 L325.32 438.227 L324.4913 437.5736 L323.7898 437.7345 L323.3144 438.0184 L323.1952 438.1184 L322.2089 438.9223 L321.5105 438.7699 L321.1139 438.4499 L320.2638 437.7631 L319.3802 436.7525 L318.5338 435.318 L317.8659 434.6912 L317.869 434.3778 L318.5375 433.3338 L318.9665 433.4234 L319.7096 434.1949 L319.8153 434.2378 L321.0955 434.7617 L321.8637 434.6941 L322.5175 434.2264 L322.369 433.9358 L321.5239 433.0785 L321.0748 432.6232 L320.0946 431.3449 L318.8119 429.7694 L318.8797 428.7626 L318.8926 428.574 L318.8651 427.7291 L319.3496 427.0642 L319.3985 425.9897 L318.8822 425.0571 L318.4685 424.4542 L318.0474 423.3578 L317.5262 422.5643 L317.2408 421.4469 L316.824 421.105 L316.6334 421.0926 L315.9581 420.9802 L315.377 420.6896 L314.2238 420.4448 L313.7997 419.899 L313.4692 418.6473 L312.2995 415.5715 L311.9396 415.159 L311.8467 415.0523 L311.6915 414.7675 L311.4721 414.3655 L311.0315 414.1236 L309.7336 413.4672 L309.1084 412.8957 L308.3018 412.2079 L309.8619 410.9305 L311.0175 410.7505 L314.0332 409.0806 L316.1671 407.8041 L317.5078 407.1487 L318.0486 406.8839 L319.8153 406.5553 L320.0371 406.5391 L322.2798 406.379 L326.9589 405.7522 L327.1221 405.4664 L326.987 404.5996 L326.6705 404.2309 L321.4512 404.3881 L318.2485 404.1576 L314.1915 404.1128 L313.7735 403.7603 L313.7924 403.5479 L313.8651 403.4946 L315.1435 402.5534 L316.3474 401.9475 L317.5641 401.758 L320.3689 402.1028 L320.6653 402.0037 L321.2214 401.2388 L322.1338 399.4241 L322.5591 398.1266 L323.6132 394.9106 L323.6126 394.6219 L323.6114 394.2323 L323.4146 393.636 L322.8634 393.0958 L322.4454 392.7434 L322.3049 392.7014 L321.5202 392.47 L321.3485 392.3585 L321.0008 392.1327 L320.2877 390.8867 L319.3613 389.935 L318.2118 387.9231 L318.166 386.1788 L321.1957 385.1737 L323.6548 384.6422 L325.2039 384.8537 L327.7338 385.3338 L328.4622 385.35 L332.8639 384.0211 L336.132 383.8572 L338.4095 384.2735 L339.3848 383.3752 L338.9026 382.775 L336.088 383.3532 L330.2649 384.3754 L327.2577 384.405 L320.7387 384.546 L318.8754 384.1258 L315.2566 383.478 L312.3729 383.1141 L307.8966 382.01 L304.8491 381.4965 L298.5299 380.4324 L295.5337 380.1962 L293.4169 379.858 L290.9548 379.4655 L288.1579 379.4541 L287.6592 379.4522 L287.6892 379.3559 L288.2227 377.6507 L288.6119 376.4075 L288.3492 375.27 L288.3553 373.8639 L288.3101 372.5187 L288.1231 370.8144 L288.0846 369.1215 L290.502 368.7985 L291.6209 368.6499 L295.6798 368.1078 L296.7999 368.1564 L297.1525 368.1717 L297.9023 367.7087 L297.9762 367.2981 L297.6811 366.9541 L296.6361 366.4064 L295.5826 365.6347 L295.879 365.0945 L298.9191 365.5642 L299.7301 365.4375 L300.3925 365.0212 L301.4851 364.2647 L301.658 364.1447 L302.7843 363.7074 L302.8949 363.7122 L303.3611 363.7322 L303.8299 363.7522 L304.7123 364.0847 L305.5788 364.3152 L306.1422 364.24 L307.9186 364.0018 L308.3085 363.836 L309.0223 363.777 L309.4677 363.0834 L310.5494 362.4203 L311.2436 362.3813 L313.4942 361.8992 L314.4671 361.3609 L314.959 361.0894 L315.3776 360.3911 L315.2676 360.0014 L314.9773 359.4718 L314.3412 358.8963 L314.0399 358.6239 L312.8697 357.1891 L310.8904 354.8245 L311.5913 354.2729 L313.2339 353.1496 L316.4366 350.9584 L318.8119 350.1105 L318.8553 350.0857 L319.7499 349.5827 L319.1865 348.1326 L318.6414 346.9646 L318.0554 346.534 L316.6358 346.755 L315.4668 347.2514 L315.1203 347.3581 L314.2611 347.179 L313.119 347.5134 L312.6503 347.1695 L312.3949 346.5302 L312.9351 345.8966 L313.4899 345.4631 L314.3913 344.9753 L317.3123 343.7997 L317.3447 343.6615 L317.5463 342.8003 L317.2408 341.6694 L316.612 340.0164 L316.4299 339.4552 L319.9522 338.4196 L323.4519 338.0204 L323.0388 336.4198 L322.9288 335.267 L321.7647 334.1742 L320.9947 333.6702 L306.507 334.0094 L309.3999 329.6562 L310.0477 327.8298 L309.6199 326.7055 L310.3825 326.1606 L310.1943 325.9538 L310.6948 324.8314 L311.3646 324.1778 L312.481 323.0898 L312.877 322.2961 L312.5617 320.9356 L312.4181 320.4649 L312.349 320.2372 L312.5898 319.7818 L313.2571 319.7294 L314.8319 319.8037 L316.0816 319.8627 L317.5781 319.596 L318.4569 319.4397 L321.8533 320.3153 L322.4179 320.4611 L324.1534 321.6111 L325.125 320.2715 L325.8761 319.2358 L325.4856 318.6117 L327.1924 316.508 L329.4057 313.138 L329.754 312.6073 L330.9084 311.4439 L331.9497 310.9694 L335.5044 315.1579 L337.6401 317.5408 L339.0132 319.3635 L342.0974 323.5042 L342.0516 323.8768 L341.7613 324.1254 L341.4558 324.3875 L340.2965 324.9067 L338.239 325.688 L336.8976 326.0205 L335.9749 326.2501 L333.9773 326.9694 L333.6485 327.341 L333.3008 327.7336 L332.6787 328.0575 L332.7685 328.6358 L332.8687 329.2808 L333.0802 329.6581 L334.1618 331.5865 L334.6507 331.6837 L334.7509 331.7037 L335.6987 331.4512 L338.3728 330.6157 L341.0867 330.0345 L342.1163 329.9783 L342.4017 330.1431 L342.0308 336.7818 L342.2337 338.4215 L342.7232 340.9043 L342.6333 341.6656 L343.4772 343.6568 L341.3885 343.0089 L340.5312 343.5091 L340.4688 343.7816 L340.4077 344.0502 L340.6314 344.4856 L342.9444 347.6763 L343.2817 348.5109 L343.608 351.2804 L343.8696 352.9639 L344.2509 354.4186 L345.016 356.3364 L346.4832 359.7633 L347.6131 363.3625 L352.6619 377.1467 L352.7407 377.6564 L352.5934 378.0451 L352.5824 378.0489 L352.6234 378.3823 L352.9943 378.429 L353.6977 378.9453 L354.6192 381.2041 L358.4018 392.5214 L358.0566 393.3064 L357.9435 393.8294 L357.9796 394.8953 L357.9912 395.2278 L357.8702 395.425 L357.7425 395.6327 L357.0489 395.8451 L356.7427 395.8689 L355.7405 395.9451 L353.2106 396.7063 L352.8825 396.6005 L352.5085 395.9766 L352.2525 395.5498 L351.8736 395.4526 L351.5503 395.7117 L351.1653 396.7225 L351.0737 396.9873 L350.6997 397.255 L350.1503 397.3931 L349.3687 397.5007 L348.6721 397.5712 L347.9565 398.0504 L347.4493 398.3895 L346.5339 398.8458 L345.8287 399.3212 L345.6466 399.8194 L345.6857 400.0718 L345.7896 400.7377 L345.6655 401.2788 L345.2115 402.0285 L345.2127 402.7077 L346.5767 405.4712 L346.727 406.44 L346.5021 406.9973 L346.0236 407.5945 L345.3221 407.7565 L345.0263 407.7631 L344.546 407.7736 L343.3452 408.3995 L342.9926 408.4623 L340.9706 408.8224 L338.7321 408.9148 L337.8522 408.9005 L337.9634 409.7845 L339.5663 411.0915 L340.6271 411.9574 L342.1585 413.1281 L344.5314 413.6978 L346.1092 414.496 L347.0625 415.2867 L347.0582 416.5936 L346.3133 418.4854 L345.5439 419.5456 L345.2243 419.7914 L345.0337 419.9381 L345.1131 420.4486 L345.4058 420.6639 L345.6075 420.7287 L346.408 421.0773 L348.1508 421.9585 L347.9388 422.931 L348.1038 423.6626 L348.2431 423.7512 L351.3303 425.7182 L351.5497 426.064 L352.2934 427.2385 L352.6704 428.3282 L352.9234 431.1373 L354.0906 430.9944 L353.9861 429.9656 L354.1927 425.8163 L354.4285 424.9962 L354.8276 424.6571 L359.8367 429.6246 L361.5777 431.2078 L363.5594 432.7461 L363.7623 432.7147 L363.9334 432.4794 L363.593 431.9574 L363.9853 431.4783 L366.1095 432.4527 L368.0142 433.6053 L370.2924 434.9846 L370.5509 435.3103 L370.6218 435.7695 L370.3969 436.3267 L369.9074 437.1859 L369.4992 437.6174 L369.3562 437.7679 L368.7806 438.7938 L368.7769 438.8804 L368.7402 439.8139 L368.299 440.2559 L367.7784 440.8607 L366.5305 440.8464 L366.2574 440.495 L364.5885 438.347 L363.9108 439.2157 L364.9429 440.4073 L362.0097 442.2257 L361.2452 442.0333 L360.5822 443.3849 L360.9165 445.4062 L361.0014 445.9196 L360.6494 447.1016 L359.7548 448.5761 L359.5708 448.6533 L357.498 449.5172 L355.3238 451.2698 L354.266 451.747 L354.1951 451.8442 L353.3445 453.0272 L353.0371 453.4644 L354.5746 453.7358 L355.1808 455.0798 L355.4979 456.5638 L357.2194 465.5333 L357.0214 465.9295 L356.6712 466.3496 L356.073 466.2772 L355.702 466.0057 L354.4848 466.0133 L353.0982 466.1 L351.3511 466.1476 L349.3302 466.602 L348.3458 466.4439 L347.3845 466.8191 L346.2552 467.5068 L344.4843 467.4992 L344.3095 467.4982 L344.0553 467.2325 L342.2862 465.379 L341.237 465.7714 L340.211 466.1543 L338.5818 465.8447 L336.1643 464.8618 L334.7045 464.977 L334.0573 465.7295 L332.7936 467.2001 L333.8929 470.6595 L334.5602 473.5111 L334.7442 474.0655 L335.0528 474.997 L335.505 476.3618 L336.1381 478.7677 L336.641 481.506 L335.9193 482.4965 L334.4894 484.4595 L333.5953 485.3795 L332.7306 485.9157 L330.978 487.0015 L329.9135 487.4358 L328.6376 487.9558 L327.4735 488.1987 L325.5791 488.1311 L320.1587 487.5653 L317.2799 487.2263 L315.1221 486.5234 L314.9199 486.0005 L314.9107 485.5643 L314.9058 485.3519 L315.0305 484.3185 L315.0048 482.7108 L315.9667 482.7251 L316.791 482.8565 L319.1425 482.9746 L321.5263 482.6279 L323.546 481.8879 L326.4902 480.9774 L329.1979 478.7687 L329.0611 478.5563 L327.3066 479.5582 L325.1996 480.4592 L322.2077 481.3945 L319.0392 481.7507 L316.7482 481.8574 L314.4891 481.5603 L314.0631 481.5593 L312.1217 481.5536 L311.5833 480.7145 L310.3673 479.9478 L310.4394 479.2468 L310.4058 477.9029 L310.4027 477.7876 L310.3245 477.5524 L309.9316 476.3704 L310.3428 474.5893 L310.4382 474.1769 L313.9757 471.0243 L318.5503 469.2603 L318.7832 468.6336 L318.6768 468.284 L318.4 468.1707 L317.231 468.3536 L316.2209 468.5117 L315.6232 468.344 L315.3067 467.9754 L315.3385 467.0325 L315.347 466.7791 L314.6516 464.6951 L313.7423 461.1795 L313.1496 460.7928 L312.8642 460.6071 L312.7365 459.8813 L312.5696 458.042 L312.7847 456.0561 L312.932 454.6959 L313.0121 453.3634 L313.0182 452.4042 L313.0224 451.706 L314.0503 451.2593 L315.3287 450.1411 L317.6588 449.0057 L317.9967 449.0676 L322.4894 449.8896 L328.4212 451.2936 L334.1734 452.268 L335.0595 452.2252 L336.9771 452.148 L337.9603 452.1089 L341.0622 450.8793 L344.3193 449.0876 L346.8553 447.2188 L349.4653 444.8785 L351.9781 442.4143 L353.5406 440.5664 L354.5526 438.6232 L354.7756 437.3316 L354.6779 435.1456 L354.1578 431.6583 L352.976 431.7536 L353.8871 437.164 L353.6971 437.6107 L353.163 437.8507 L352.6625 438.167 L352.5947 438.2013 L352.0954 438.3308 L351.1672 438.3718 L350.4607 438.1689 L350.0733 437.8679 L349.3394 437.2992 L348.8756 437.3192 L348.7191 437.3611 L348.7161 437.3869 L348.5749 438.6099 L347.9822 438.8071 L346.0896 439.9911 L344.6884 441.1484 L344.3884 441.4056 L343.6441 442.3467 L342.662 442.9239 L344.0474 443.3316 L344.5032 443.2192 L345.4248 442.9906 L345.8452 442.8867 L347.7713 442.1304 L349.6168 440.2968 L349.7054 440.2092 L349.8924 440.1073 L350.5322 439.7577 L352.3857 438.7461 L353.0683 438.7966 L353.1868 438.9061 L353.3102 439.0195 L353.1868 439.5615 L351.367 441.8818 L346.7545 445.9443 L343.1332 448.599 L341.0457 449.8649 L338.6417 450.7631 L337.4085 450.8526 L334.5987 451.0574 L332.3475 451.0145 L329.1986 450.4621 L325.2088 448.84 L324.3612 448.398 L324.2879 448.2799 L322.8591 445.9834 L320.6568 444.767 L319.0459 443.8574 L317.0434 443.0953 L316.4042 442.5772 L314.4622 441.0027 L313.5767 441.0893 L309.9212 442.2057 L308.6232 442.7553 L306.5095 442.9477 L303.3899 442.62 L301.2022 442.5029 L298.4058 442.862 L296.9184 442.7477 L295.4164 442.7048 L295.2917 443.3487 L299.3402 443.9812 L303.0807 443.9078 L306.4105 443.925 L309.1286 443.8383 L311.0242 443.8536 L312.7536 444.3984 L313.3054 444.5727 L312.9571 445.2252 L311.9561 446.0015 L310.6386 447.0483 L309.5631 447.5236 L306.5626 448.1827 L304.939 448.1942 L303.5964 447.836 L302.5356 447.6884 L300.5049 448.3189 L298.3844 448.7028 L295.1817 448.4723 L290.5521 448.4123 L284.7804 448.6228 L281.4182 448.4028 L280.5883 449.2391 L277.7095 450.1792 L274.4903 450.9336 L272.7261 451.2612 L270.6961 451.3793 L268.3672 450.964 L267.5086 450.9945 L266.3469 451.0364 L266.2021 451.1517 L266.8816 451.1965 L267.5361 451.2841 L270.9417 451.7918 L272.9057 451.8051 L276.2313 451.2336 L277.5604 451.9451 L281.7262 451.8308 L281.7415 451.2041 L277.8898 451.3384 L278.0872 450.7183 L280.6941 449.8601 L282.8164 449.5019 L287.1691 449.48 L291.0453 449.2819 L293.1988 449.4572 L298.0954 449.7058 L300.1933 449.2943 L300.6626 451.3098 L300.8331 452.5195 L300.9131 453.2548 L300.4126 454.3778 L298.5391 455.3493 L296.2346 455.9608 L296.146 455.9847 L293.7555 456.3056 L288.4689 456.2285 L287.7442 456.4028 L291.6203 457.0962 L297.9536 457.7096 L298.3252 457.7477 L299.2846 458.1354 L298.7597 459.1526 L297.3719 461.3462 L293.6314 462.0244 L291.8238 462.352 L292.2778 463.1045 L294.347 462.7292 L296.7755 462.2892 L295.8222 463.9208 L295.6981 464.3436 L295.2453 465.8905 L293.1694 468.565 L290.3554 470.8328 L289.3465 471.3557 L288.4372 471.3452 L288.0986 471.3414 L287.0867 470.508 L286.2165 468.9203 L285.9995 467.9621 L285.8853 467.4582 L285.5571 463.5921 L285.477 462.6473 L285.4477 462.3044 L285.0267 461.8691 L282.3593 461.0452 L281.2098 460.6899 L281.5331 459.5736 L281.6773 459.0755 L281.6565 457.7182 L281.5019 456.3904 L281.123 455.5656 L281.068 455.1579 L280.0848 455.0607 L279.8972 455.075 L279.4358 455.1093 L277.7401 454.9026 L274.7946 454.4864 L274.5887 454.8321 L274.6791 455.0788 L275.5212 455.3141 L276.0412 455.4589 L276.6077 455.7684 L277.7694 456.0113 L277.7627 456.6371 L271.9916 456.4295 L268.435 456.2437 L266.0579 456.0618 L263.4492 454.6416 L262.2294 453.4748 L262.1824 453.3081 L262.1158 453.0748 M333.3485 311.5478 L335.0283 311.806 L336.3752 311.7955 L337.5173 311.6421 L338.7211 311.4811 L340.7597 311.1219 L341.0781 311.6726 L343.1772 314.7425 L345.3912 317.9648 L346.5528 319.8208 L347.533 321.1757 L348.0524 321.6311 L348.2645 322.3295 L348.7479 323.0412 L348.589 323.1736 L343.985 327.0009 L343.861 326.737 L343.7437 327.6516 L343.7247 327.8012 L343.531 329.3085 L343.8433 328.9826 L344.4874 328.833 L345.6771 328.8045 L347.082 329.1589 L347.9693 329.8563 L348.7564 330.8338 L349.736 331.799 L353.6286 333.3948 L355.0189 333.8607 L355.8768 334.9316 L356.1781 335.2574 L358.678 335.7691 L361.5239 335.0574 L361.6608 335.0231 L362.2749 336.4836 L362.1075 336.6323 L362.0818 337.4726 L361.7005 338.9731 L361.5984 339.3761 L361.3644 340.8748 L361.3357 342.0285 L361.797 343.7787 L362.391 345.4831 L362.5261 346.3501 L362.1185 347.4067 L362.16 348.3403 L361.9058 349.1816 L361.6797 349.9295 L361.9639 352.094 L362.1154 353.0687 L362.2975 355.9582 L362.7644 355.9563 L362.8677 355.9553 L364.3532 354.2757 L365.1421 353.6755 L366.1871 353.001 L367.8193 352.6952 L372.1256 352.216 L375.7518 351.813 L378.9918 351.4529 L379.3817 350.4754 L379.6518 349.798 L374.6415 349.3235 L373.5623 349.1101 L373.4627 347.4095 L377.0535 346.2596 L378.5665 346.8208 L380.3099 347.3028 L383.5988 347.7173 L382.7769 356.789 L382.8289 357.4597 L382.7323 357.8407 L382.4726 358.5076 L382.208 360.4816 L381.9037 360.5292 L378.3972 360.0939 L377.26 360.8427 L376.6471 360.1882 L376.3684 359.89 L376.1564 359.1383 L375.8716 358.1285 L374.8016 356.8147 L375.1157 353.9909 L375.0576 353.6193 L373.7817 355.9249 L373.9577 357.1738 L374.2626 358.0332 L374.3268 358.2132 L373.9021 358.4876 L371.7211 358.2571 L369.7895 358.0856 L368.5838 358.1523 L367.317 358.2104 L363.3798 357.937 L363.1139 357.5606 L363.1249 357.1176 L363.128 356.9843 L363.0571 356.5251 L362.3152 356.6527 L362.0568 356.6965 L362.0073 356.7051 L361.7427 357.0233 L361.5832 357.9246 L361.2758 359.1774 L361.5428 359.7252 L362.4038 359.9814 L364.2078 360.1901 L367.9256 360.393 L370.1799 360.1977 L374.4447 360.5769 L374.837 360.6359 L376.1393 360.8312 L376.435 360.876 L376.6624 362.0354 L376.7125 362.3851 L380.4817 363.151 L381.9049 363.4397 L382.3815 363.8351 L383.0831 365.3451 L383.886 366.8379 L384.7416 367.3314 L385.063 368.065 L385.0758 368.4803 L384.7764 368.8928 L384.5087 369.5092 L384.7605 370.4628 L384.8283 371.2355 L384.744 372.0319 L384.711 372.8207 L384.9689 373.1456 L385.4571 373.278 L385.6295 373.7219 L385.7407 374.4355 L385.4413 374.848 L384.0266 375.4339 L383.5383 375.3014 L382.5502 374.6203 L381.6794 374.5374 L381.2351 374.5117 L379.9408 374.8708 L379.2185 375.1862 L378.8226 375.3586 L378.363 375.7435 L376.699 376.1617 L375.5606 376.738 L375.461 377.8203 L375.8215 378.249 L376.3428 378.7139 L376.5267 379.2835 L376.93 379.6294 L377.2087 379.9142 L377.2802 380.3734 L377.2893 381.1031 L377.158 381.5937 L376.8854 381.8452 L376.6911 381.9281 L376.5841 381.9338 L375.8716 382.0034 L375.1224 383.5304 L375.1505 384.0487 L374.9953 384.3859 L373.6919 385.6863 L372.5357 386.5979 L372.1428 387.0771 L371.8733 388.6861 L371.9399 388.9767 L371.1601 388.6642 L368.8936 387.0457 L368.3613 386.4665 L370.2154 383.8753 L370.623 383.3056 L371.3905 382.2329 L373.4768 378.6167 L373.8569 378.0565 L373.8825 377.2163 L374.6525 374.7298 L373.61 375.8845 L373.0539 376.4999 L372.9078 376.7619 L372.5497 377.1315 L371.9142 377.3868 L370.7672 377.3573 L367.9806 376.8 L366.1938 376.6609 L365.5051 377.2391 L364.982 378.8872 L364.6233 379.8866 L364.5317 380.1419 L363.7684 380.4353 L362.8053 380.5849 L360.3231 379.9809 L356.4897 378.6986 L354.4988 377.9127 L353.7686 377.1601 L352.2195 373.5371 L350.9667 369.815 L349.9322 364.4924 L349.1909 362.728 L348.3641 361.0818 L347.0099 359.446 L345.5562 356.3183 L344.6169 352.9972 L344.2875 350.6564 L344.0957 347.8078 L344.928 347.4877 L345.3661 344.2979 L345.0917 343.4214 L344.3951 342.8822 L343.5451 341.4217 L342.9065 338.6483 L342.772 336.1102 L342.8386 332.8613 L343.2676 329.6076 L343.6661 326.1539 L343.4357 324.6714 L342.6407 323.2289 L339.5101 319.1205 L338.4541 317.3312 L337.037 315.8877 L333.3485 311.5478 M342.0051 208.4858 L345.1027 207.994 L348.6085 207.225 L348.7943 207.5995 L348.8848 207.6357 L349.1078 207.7234 L349.4182 207.7186 L350.509 207.3927 L353.0896 206.2043 L354.739 205.3351 L355.8988 205.623 L356.4622 205.4657 L356.4048 204.425 L356.1463 203.7312 L356.0632 203.5073 L356.3535 203.3147 L357.4119 202.4465 L357.8873 202.2731 L358.4923 202.052 L358.9041 203.2023 L359.5366 203.5978 L359.9748 205.8622 L360.0982 207.0344 L360.5138 207.8854 L362.0195 208.8384 L364.3642 213.1898 L365.8657 215.2874 L366.918 216.2156 L367.0677 217.181 L365.4116 218.0768 L363.8008 218.0072 L361.852 216.7874 L361.1053 215.1463 L359.7383 215.2559 L358.1372 212.9554 L357.2243 212.0415 L356.6828 211.1714 L356.1426 210.956 L354.9315 210.4738 L353.1294 210.1745 L350.0073 209.5436 L349.4091 210.2174 L345.7053 210.3708 L345.0966 210.1278 L345.0435 208.948 L344.5259 208.847 L342.4048 209.1091 L342.0051 208.4858 M353.1495 406.7 L355.38 404.4291 L357.3624 404.1814 L358.023 403.6441 L358.601 402.8592 L362.4839 405.255 L364.0532 411.6983 L359.0966 414.0521 L353.6036 410.0455 L353.1495 406.7 M354.1212 378.1785 L354.5257 378.2804 L355.5358 378.8853 L356.5484 379.2702 L358.6817 379.9371 L360.5559 380.5372 L363.1035 381.6937 L364.3771 382.5397 L365.5809 383.6047 L366.8795 385.2823 L367.2632 386.1559 L367.3818 386.7532 L367.4197 387.7573 L367.3097 388.2898 L367.3659 389.1567 L367.3647 389.9284 L367.0768 390.7448 L366.6527 391.2439 L365.9048 391.4916 L364.4553 392.4547 L363.645 393.0834 L363.2496 393.4312 L361.178 394.119 L360.5174 393.7627 L359.9913 393.3245 L359.0893 392.1908 L358.9219 391.6717 L358.5797 390.5809 L358.1103 388.7814 L357.7547 387.4934 L357.0764 386.4112 L355.9495 383.4409 L354.9767 380.482 L355.028 379.6236 L354.7799 378.9168 L354.1212 378.1785 M364.5372 400.2776 L364.8616 399.6375 L366.0197 398.9106 L366.9583 398.5562 L367.4459 398.9135 L368.2727 400.5615 L368.9902 400.0595 L368.706 399.0116 L369.3452 398.7296 L370.6529 398.8839 L370.8827 398.6906 L370.7336 398.401 L370.4323 398.0485 L370.1084 397.7437 L369.7705 396.8796 L369.6214 396.59 L367.8548 396.2576 L367.0518 395.204 L367.705 394.0104 L369.9789 393.8455 L372.0835 393.7598 L372.4715 391.3068 L371.971 389.8074 L371.8415 391.7002 L369.8237 392.4566 L369.135 393.4226 L367.1752 393.6588 L366.6864 393.1292 L366.7908 391.9079 L367.7515 390.5628 L368.1909 388.6204 L368.3137 387.4972 L368.6559 387.2067 L370.095 388.4461 L371.6447 389.2377 L372.0236 389.3387 L372.0315 389.372 L372.5161 389.8188 L373.0294 390.7829 L373.2482 391.5754 L373.5434 391.9717 L375.5636 397.0721 L375.299 397.375 L372.7789 397.194 L372.2876 397.375 L371.8837 398.1171 L371.8189 398.701 L371.9753 399.043 L372.3701 399.2421 L374.2229 399.4755 L377.2484 400.5691 L377.3572 400.7949 L379.0053 400.6196 L379.6237 400.5539 L380.2024 400.934 L380.5238 401.6665 L380.6075 402.542 L381.0494 403.0468 L381.7527 403.5641 L382.0375 404.3643 L382.5258 405.7351 L382.5807 405.8894 L383.0103 405.9789 L383.5799 405.9284 L383.3379 406.5781 L380.8691 407.5564 L379.6426 407.5841 L379.3285 407.5907 L379.386 407.4593 L379.4715 407.2621 L379.4795 406.9077 L379.5033 405.7951 L379.2894 404.4186 L377.8839 400.7768 L377.6383 400.8673 L378.9075 404.5672 L379.1373 406.0456 L379.037 406.7401 L378.7333 406.7877 L377.4103 406.6286 L375.5428 406.9725 L374.171 407.4993 L372.9781 407.8422 L372.0419 407.8317 L370.9841 407.3707 L369.4509 407.1925 L369.0073 407.6793 L369.0549 407.9851 L369.5077 408.228 L371.8959 408.4204 L373.7102 408.8777 L375.153 408.8091 L378.0379 407.9927 L378.5922 408.2194 L378.5158 409.0672 L378.9912 410.4552 L379.499 412.7261 L379.6952 414.9933 L379.3994 416.7632 L379.5229 417.8929 L379.8993 418.0796 L379.8651 416.5469 L379.9408 415.7544 L380.0912 414.9942 L379.9702 412.146 L379.1085 408.8901 L381.4563 408.4652 L381.9257 408.3804 L382.1316 408.7938 L383.3813 411.3001 L384.9084 412.2841 L385.4101 409.7788 L388.5505 408.2918 L390.1191 407.4783 L390.8225 407.1135 L391.1219 406.7677 L391.7605 406.0304 L392.0269 404.3509 L397.6263 405.7303 L402.0091 406.6762 L400.76 404.7558 L401.1413 404.1509 L402.6269 403.8061 L404.935 405.8122 L406.8122 405.0425 L407.9849 406.1942 L409.6501 407.0096 L409.6538 407.9794 L409.8157 408.8558 L409.5254 409.4387 L409.212 409.8693 L408.8184 410.2856 L408.4799 410.72 L408.1102 411.2887 L407.5859 411.6526 L406.6429 412.307 L406.0924 412.548 L403.4714 413.6968 L403.1707 413.8283 L401.3668 414.1798 L399.1516 414.6113 L394.2134 414.8704 L389.7348 415.4219 L385.9448 414.5055 L383.5609 416.6888 L380.2061 416.8489 L380.214 417.9567 L390.4937 416.023 L395.8328 415.8915 L395.6874 417.2404 L394.7108 419.1351 L395.9776 419.1112 L398.6206 415.5867 L400.2406 415.3343 L402.0555 415.1638 L402.3226 417.9996 L401.2281 419.1322 L400.9018 419.7037 L409.8713 419.3551 L414.8065 420.0476 L422.7121 421.4774 L423.927 421.4765 L422.9498 420.6401 L419.5277 419.7523 L419.3713 419.0227 L423.2566 419.7171 L425.1186 420.241 L426.298 420.7678 L429.4469 423.6835 L429.6119 423.1892 L427.3998 420.4058 L426.4544 419.3827 L426.5907 418.5902 L427.1266 418.6454 L428.4013 418.6721 L429.846 420.7954 L431.1353 422.31 L431.832 423.4368 L432.5775 424.6428 L433.6891 426.6269 L433.5925 427.509 L431.9713 427.5881 L431.6499 427.0404 L431.1372 426.1669 L430.135 424.0522 L429.725 424.1951 L430.3275 425.6258 L430.5475 426.545 L430.2175 427.4804 L429.4029 427.7967 L427.613 427.971 L425.1045 427.5271 L420.9992 426.4964 L416.2822 425.8744 L411.6251 425.5048 L402.0903 424.8571 L399.0887 424.9533 L396.2593 425.8135 L394.0215 426.1107 L389.8808 426.8613 L386.708 427.3566 L386.5375 427.7271 L391.876 426.9984 L397.4002 426.8679 L400.2039 426.5346 L404.8121 425.9202 L410.6169 426.5288 L418.605 426.9518 L425.6307 428.9388 L426.5015 429.5332 L426.815 430.2162 L426.54 431.9117 L425.3416 437.0039 L423.9795 440.9265 L422.8838 442.8305 L421.9947 444.7899 L421.0304 446.132 L420.4028 446.4387 L419.939 446.4587 L418.1809 445.1661 L417.4011 445.3757 L416.6012 446.9054 L415.3228 448.1361 L411.1876 450.3411 L406.8868 452.3128 L406.7065 452.93 L407.2534 453.3386 L407.7735 453.3701 L410.4237 452.3814 L418.2469 448.6028 L420.6974 447.3321 L422.3736 445.4204 L424.4366 441.6523 L426.1153 436.8468 L427.3393 430.5476 L427.4407 429.3293 L427.6198 429.1445 L428.4704 429.2731 L431.4873 430.3171 L434.9137 430.9839 L435.3745 431.2773 L435.4454 431.7364 L435.3995 432.1089 L435.2015 432.5051 L434.6723 433.11 L433.4318 434.8179 L432.9802 435.2541 L432.0996 435.5999 L431.1207 435.6485 L430.0452 436.0771 L428.7161 436.5458 L428.4863 436.7382 L428.6672 437.2326 L429.0931 437.6364 L430.1161 438.207 L430.8384 438.5128 L431.4439 439.0081 L430.545 442.1295 L428.9269 445.2938 L428.0219 446.2691 L426.3133 448.1113 L424.9634 449.1438 L420.1205 452.8481 L415.9052 455.1912 L414.768 455.8237 L409.1814 458.6278 L404.2365 460.548 L401.5899 461.2224 L401.134 461.2929 L399.8256 460.5575 L399.1608 460.5566 L397.52 461.0224 L395.0793 461.351 L393.8932 461.0652 L392.7193 461.1967 L391.4336 461.6062 L388.6696 462.1939 L386.0291 462.2406 L384.5423 461.69 L384.3932 461.3995 L384.777 460.2699 L384.6646 458.7983 L384.8173 458.0325 L385.0997 456.6143 L384.8088 454.4064 L383.9667 451.5013 L383.8231 451.006 L383.468 448.4161 L383.5298 448.1456 L385.2561 447.5626 L386.9971 446.4034 L388.3653 444.5184 L388.4814 443.9259 L389.0962 443.2144 L389.2935 442.5943 L389.6932 441.8818 L391.0009 440.5083 L393.306 438.9871 L391.4244 437.1659 L390.5145 435.9819 L389.0351 435.1189 L388.0958 433.751 L386.1911 428.1186 L385.7651 428.5492 L386.8504 431.6993 L386.2711 433.2548 L386.2485 435.4513 L386.6035 437.1811 L386.6158 439.8749 L385.9711 440.6778 L385.283 441.0884 L384.7636 441.0312 L384.345 441.1732 L384.0082 441.2875 L383.4424 441.2246 L383.1289 441.1903 L382.593 440.4073 L382.4506 438.6013 L381.3665 429.7818 L382.7757 427.6119 L384.9854 428.0272 L384.9579 427.6395 L384.6126 427.5852 L384.1366 427.3557 L382.9095 426.2993 L378.6973 425.059 L377.6248 424.7752 L376.476 424.6866 L375.3565 424.4961 L373.4413 424.5342 L370.8509 423.8483 L371.5824 422.1566 L373.8061 420.6134 L374.4453 416.7689 L375.1016 416.3193 L377.6193 416.3335 L378.9423 416.726 L378.737 415.9601 L374.0219 415.5658 L373.4444 415.4429 L372.4929 415.1057 L371.5054 415.1476 L370.7165 415.1323 L369.1881 414.9199 L367.8682 413.8778 L366.8452 413.2491 L366.8214 412.2032 L365.9989 411.7107 L365.4953 411.4763 L365.0205 410.2913 L365.188 409.7541 L366.313 408.9282 L367.0982 408.0918 L367.3121 407.7974 L367.361 406.4933 L368.5019 406.3247 L370.2337 406.2876 L370.2417 405.5588 L365.6719 405.414 L365.1 403.5098 L364.6655 401.436 L364.5372 400.2776 M373.4639 391.242 L373.5843 391.0143 L373.9785 390.6552 L374.683 391.464 L375.3779 391.8755 L377.4727 392.8405 L378.2872 393.1292 L378.9093 392.9548 L379.331 392.8367 L381.2431 394.0151 L381.4527 394.1437 L380.9125 395.285 L381.8872 395.827 L382.7995 395.4679 L384.4061 395.0697 L386.5382 396.0537 L388.9556 396.8644 L390.806 397.4855 L390.7999 398.561 L390.1246 398.5229 L389.1451 398.4676 L385.7419 398.2762 L383.1906 397.6513 L382.175 397.4026 L380.1945 397.8418 L379.3756 398.0818 L378.7223 398.36 L378.6955 398.4029 L378.6221 398.52 L378.14 399.2869 L377.6963 399.7737 L377.2295 399.4574 L373.5024 391.4583 L373.4639 391.242 M374.0255 220.89 L374.2492 219.7112 L374.7283 218.6209 L375.6082 218.215 L376.4528 217.9186 L377.3944 218.1359 L378.6521 219.2747 L382.2746 220.9376 L383.3746 221.174 L384.6261 221.2121 L385.7413 220.9348 L387.0747 220.2753 L387.9644 219.7112 L388.9819 219.5263 L389.6993 219.0765 L391.128 218.6267 L391.0889 218.2312 L389.706 218.2559 L387.7811 219.3071 L386.8419 219.7254 L384.898 220.3487 L383.9337 220.4993 L383.3446 220.3992 L382.6999 220.3563 L382.2251 220.2706 L380.9553 219.7979 L380.4578 219.6673 L379.4428 219.1861 L378.6771 218.7782 L377.0608 217.4964 L376.1295 216.6349 L375.0864 215.5666 L374.672 214.9443 L375.483 214.5145 L377.1372 215.5313 L379.4025 216.2528 L379.9317 216.2651 L380.2934 216.4777 L380.8453 216.5215 L382.4035 216.9808 L385.8672 217.7328 L389.86 217.465 L389.2905 216.9141 L388.0488 216.8198 L387.5299 216.6616 L385.0734 216.8531 L383.688 216.654 L382.1475 216.3824 L381.306 216.0984 L380.0203 215.9316 L379.0157 215.721 L377.6493 214.9271 L377.7299 214.4192 L378.569 214.5621 L381.2956 214.5783 L383.0983 214.9386 L384.4348 214.9119 L386.5822 215.0968 L389.5606 216.289 L391.3217 217.384 L391.9524 217.4936 L392.5348 218.0882 L393.3377 217.3382 L395.1496 216.5873 L397.2383 215.4456 L398.2332 215.1692 L398.9921 215.6581 L399.1614 216.7502 L399.536 217.099 L399.6142 218.1625 L399.4651 218.5933 L397.8347 219.2899 L395.8572 220.4221 L395.6104 220.7814 L394.8141 221.1654 L394.7267 221.4399 L396.0082 221.1702 L396.5808 221.2369 L396.9493 221.4399 L397.0531 221.8306 L396.9908 222.6559 L396.4445 223.4259 L395.9122 225.7902 L395.6043 227.8153 L395.0512 229.2104 L394.445 229.1494 L394.0753 228.9989 L393.1703 228.125 L391.6261 227.1434 L390.2432 226.3715 L389.0082 225.7664 L388.6507 225.8045 L386.6475 227.7733 L385.8262 229.8356 L385.5879 229.8032 L385.2341 229.4772 L384.7006 228.6586 L384.1134 227.8829 L383.7626 228.2412 L383.6135 228.672 L383.9899 229.4286 L384.0504 229.9823 L383.8182 230.9381 L383.4076 231.245 L381.9855 231.163 L380.5868 230.2892 L379.4 229.9976 L378.9338 229.7231 L378.6056 229.28 L378.0251 228.044 L378.066 226.9195 L378.6405 226.0494 L378.946 225.2899 L379.3206 224.8067 L379.6157 224.3102 L379.598 223.5841 L379.7581 222.9437 L379.3786 222.3957 L378.9625 222.6082 L378.3777 223.8004 L377.7464 224.1339 L377.2612 223.9062 L375.4188 222.2861 L374.2168 221.2855 L374.0255 220.89 M376.1417 306.92 L376.3635 306.7905 L376.7088 306.9534 L377.5894 308.2807 L378.0648 308.6961 L378.558 309.0562 L378.6081 309.0496 L379.6469 309.061 L380.2238 309.3783 L380.6607 310.5235 L380.9559 311.0323 L381.8725 311.644 L382.2636 312.8836 L382.2905 313.3905 L382.6694 313.9383 L382.8557 314.5748 L383.0806 315.0274 L383.6282 315.4361 L384.8027 315.9287 L385.3771 316.3422 L386.4037 318.1668 L386.408 318.5832 L387.3234 318.969 L388.5596 319.7465 L388.779 320.3801 L389.989 320.5983 L390.1112 320.9956 L390.6056 321.1176 L390.9991 320.9784 L391.6939 320.22 L392.2103 320.0962 L393.0713 320.6288 L393.9403 321.3253 L394.0545 321.8369 L393.6268 322.5362 L393.708 323.226 L394.0295 323.6262 L393.8113 324.9524 L394.0613 325.2259 L394.1639 325.1058 L394.7322 325.4241 L395.3482 326.8227 L395.5297 326.999 L396.4103 327.5468 L398.301 329.2018 L398.6108 330.1936 L397.9563 330.7119 L397.1161 330.8691 L396.263 330.387 L393.4007 326.8713 L392.6759 325.8233 L391.9933 325.2707 L390.8249 324.6466 L389.6498 323.5385 L388.7338 323.0307 L387.332 322.2533 L386.9121 321.33 L385.9851 320.261 L384.5081 318.1354 L383.7754 317.052 L383.3678 316.1526 L381.9562 314.0755 L381.1875 313.0256 L380.3484 312.411 L379.793 311.726 L378.7559 310.8389 L377.6652 309.0496 L376.9893 308.314 L376.4845 307.6823 L376.3208 307.4041 L376.1417 306.92 M378.044 295.1709 L378.1803 294.8803 L378.6716 294.6478 L379.8914 295.2633 L381.3464 297.1175 L383.3599 298.6153 L383.399 297.976 L382.2263 297.1623 L381.6941 296.5163 L382.9596 296.7611 L383.5298 296.6459 L384.6688 295.9046 L385.0165 295.4167 L385.6246 295.1575 L385.9417 294.6402 L386.5149 294.1514 L386.9861 293.957 L387.6033 294.1218 L387.6809 294.1428 L387.9919 295.2566 L387.8172 296.4724 L387.8062 297.349 L387.3246 298.9241 L387.1566 299.127 L386.1678 300.3266 L385.5995 300.7887 L384.9817 301.1536 L383.7577 301.6224 L384.0987 302.3142 L384.1225 302.6924 L383.4619 303.1679 L382.9877 302.4533 L383.1979 301.4147 L383.0861 300.0798 L382.3687 298.9688 L381.9018 298.7468 L379.8791 296.6878 L379.5241 296.9079 L378.9326 296.7745 L378.1944 295.5806 L378.044 295.1709 M383.0336 307.4832 L383.077 306.4274 L383.7149 305.7471 L384.2863 305.5566 L385.0361 305.307 L385.1351 306.9305 L388.4136 311.2524 L390.2945 313.4438 L390.3733 313.5506 L391.0816 315.1046 L391.4965 316.2193 L392.3184 317.3912 L392.1858 317.6552 L391.3211 317.6513 L389.8429 317.9858 L389.1994 317.4617 L389.0546 317.0863 L388.4845 316.5337 L387.4102 315.8515 L385.9491 313.7907 L385.459 313.4162 L385.1473 312.3548 L385.5671 311.3277 L385.1045 310.9656 L384.4488 310.2529 L383.5554 310.0109 L383.1093 309.6994 L383.0873 308.2206 L383.0336 307.4832 M385.14 305.3851 L385.7755 305.1726 L387.7322 304.7457 L389.2386 304.7334 L389.7873 304.7286 L390.4357 305.1736 L390.1931 306.7285 L390.3697 307.8109 L390.6318 308.8885 L390.7626 309.8995 L390.938 310.5836 L391.3908 311.4925 L391.4195 312.1814 L391.2075 312.7083 L390.7485 313.0923 L390.3984 313.522 L388.5175 311.3306 L385.239 307.0087 L385.14 305.3851 M392.9369 124.6924 L392.9485 124.3817 L392.968 123.8679 L393.009 122.7813 L393.3713 122.4391 L393.6744 122.4429 L394.4652 122.6326 L394.9541 122.6078 L395.369 122.4391 L396.3113 122.2656 L399.9955 121.2057 L403.3651 120.6795 L407.8156 120.4879 L410.3125 120.8616 L412.9756 121.0789 L414.4331 121.0512 L414.8162 120.8444 L415.233 120.7443 L416.4601 120.8482 L417.0101 121.1408 L417.7886 121.4382 L419.1941 122.0778 L420.0979 122.2751 L420.4175 122.3809 L420.7927 122.6269 L421.031 122.8232 L421.2761 123.1759 L421.7802 124.476 L421.7154 124.8935 L421.6433 124.9955 L420.481 126.6388 L419.5424 127.7483 L418.7895 130.1722 L418.583 130.6812 L418.275 130.9291 L417.9603 131.0739 L417.5765 131.1073 L417.2789 131.0844 L416.9667 130.9681 L417.1781 130.38 L417.2282 130.1741 L417.4091 129.1905 L417.2123 128.9264 L416.4497 128.8635 L415.7255 129.0456 L415.2795 129.0113 L414.6849 129.4164 L413.7267 129.7652 L412.5076 130.1551 L411.3819 129.871 L410.4647 128.9217 L409.897 128.6634 L408.8697 128.2859 L407.3579 128.4089 L402.493 129.4974 L399.5531 130.3381 L398.5686 130.6822 L397.4736 131.2608 L396.5093 131.9575 L396.1897 132.294 L396.3198 132.9679 L396.6015 133.4435 L396.8552 134.1327 L397.1564 134.3462 L397.4314 134.39 L399.0875 134.0793 L399.5513 133.9458 L400.163 133.8772 L400.8095 133.7495 L401.5526 133.7466 L402.0366 133.801 L402.4442 133.9201 L402.9355 134.1298 L404.3556 135.0877 L405.1024 135.7769 L406.456 137.6994 L407.4019 139.233 L408.4444 141.2651 L408.6883 142.3298 L408.6974 142.6148 L408.6498 143.1419 L408.5074 143.3449 L407.0762 143.83 L401.7885 144.9071 L396.1726 145.3284 L396.1115 145.3332 L396.0418 144.8842 L396.2288 141.2384 L396.1677 140.1204 L395.8799 138.2141 L395.4484 136.0437 L395.1398 135.4499 L395.3036 135.225 L395.4081 134.6712 L395.5108 133.8172 L395.5175 133.7609 L395.468 133.6608 L395.3152 133.3501 L394.7542 132.6305 L394.3974 131.949 L393.9659 131.0625 L393.6671 130.0664 L392.9369 124.6924 M394.3008 316.2412 L394.6283 315.843 L396.1567 315.2608 L396.5954 315.0941 L397.6978 315.7887 L397.8702 316.6204 L397.7431 317.5847 L397.8732 317.9439 L398.2374 319.433 L398.0792 321.0871 L398.4098 323.9397 L398.7214 324.6114 L398.59 324.8981 L398.4049 325.3021 L398.6426 325.9414 L399.2518 326.6846 L399.6924 327.3029 L399.613 327.5706 L399.539 327.8212 L399.6527 328.107 L399.8672 328.1928 L400.1966 328.3252 L400.0359 328.6072 L399.9246 328.8016 L399.4205 328.672 L397.7455 326.7922 L397.7394 326.1949 L397.077 325.769 L396.8307 325.4088 L395.864 323.3575 L396.5741 321.9722 L396.7439 321.452 L396.7207 320.5792 L397.1809 320.2562 L397.2847 319.7294 L397.3501 319.3978 L397.1735 319.2882 L396.824 319.0719 L395.1026 318.5088 L394.7695 318.1449 L394.8141 317.6523 L394.3008 316.2412 M407.1135 285.7607 L407.1312 284.7611 L407.2278 283.6015 L407.2828 283.0641 L407.6512 282.4857 L408.1181 282.318 L411.0012 281.955 L413.1034 281.5138 L414.298 280.7982 L414.647 280.8744 L415.1719 281.1393 L415.3968 281.4166 L415.2238 282.7525 L414.6898 283.3823 L413.4957 283.9321 L412.5161 284.7525 L412.1085 284.7992 L411.0354 285.7387 L409.2755 286.8802 L407.6751 287.0946 L407.2901 286.6782 L407.1135 285.7607 M408.6125 99.6583 L408.6907 99.3046 L411.6826 95.2934 L412.0156 95.2924 L412.2509 95.3115 L417.0919 98.5487 L417.5032 98.5878 L417.8362 98.3714 L418.0312 97.4668 L418.2463 97.1722 L418.4809 97.054 L418.7358 97.054 L419.147 97.2694 L419.2063 97.7994 L419.2662 98.3695 L419.5008 98.4877 L423.4002 99.7212 L423.655 99.8584 L423.6941 100.1921 L423.4992 100.8012 L422.9119 101.3321 L421.8511 102.11 L419.5852 103.7724 L418.6264 104.6379 L418.0984 105.3853 L417.8637 106.2098 L417.8259 107.2126 L417.9047 107.939 L414.3781 106.3909 L412.9665 105.4301 L412.0645 104.4483 L408.7304 100.031 L408.6125 99.6583 M411.2548 306.4341 L411.6508 306.0863 L413.6656 305.7329 L413.9399 305.6852 L414.4728 305.4756 L414.8529 305.326 L414.9104 305.3355 L416.1313 305.5432 L416.8872 305.3994 L417.5661 305.3717 L418.5237 305.4127 L419.1159 305.0516 L419.6206 305.0163 L420.676 304.5742 L421.6415 305.004 L421.925 305.5499 L421.8438 306.3074 L421.9849 306.659 L422.9779 307.4317 L425.4101 307.8929 L425.8238 307.8281 L426.5161 307.5194 L427.6992 306.9896 L428.1856 306.9486 L428.8737 307.2049 L428.9605 307.486 L428.6006 307.6728 L426.7508 307.9529 L426.045 308.253 L425.1247 308.2845 L423.6935 307.9176 L422.5991 307.2735 L422.2764 306.9772 L421.5737 306.74 L421.1105 306.7085 L420.3814 306.9696 L418.173 306.7762 L416.8047 306.8162 L415.076 307.3202 L413.8807 307.4203 L412.8663 307.344 L411.9863 307.1344 L411.297 306.7047 L411.2652 306.4999 L411.2548 306.4341 M413.2671 131.0358 L413.3117 130.8061 L413.3087 130.5964 L413.3509 130.5392 L413.8049 130.1989 L414.5571 129.8863 L414.9403 129.7691 L415.9345 129.5927 L416.7204 129.5555 L416.8084 129.5946 L416.8884 129.7147 L416.8915 129.7767 L417.1249 130.0769 L417.1665 130.1951 L417.1164 130.401 L416.9049 130.9891 L417.2172 131.1054 L417.3077 131.1121 L416.8683 131.4686 L416.124 131.8594 L415.7372 131.9823 L415.0961 132.07 L414.6506 132.0681 L413.7915 131.9613 L413.6014 131.8679 L413.4902 131.7621 L413.3331 131.5134 L413.2885 131.3656 L413.2671 131.0358 M415.3919 113.0634 L415.4121 113.011 L415.4371 112.8585 L415.5758 112.5802 L416.369 111.6946 L416.7998 111.2857 L417.2533 110.9511 L417.5093 110.8501 L418.2585 110.7128 L419.7954 110.5584 L421.592 110.3468 L422.4805 110.3344 L422.981 110.4145 L423.6263 110.6547 L423.916 110.8243 L423.718 111.6346 L423.9239 111.8366 L424.656 112.3094 L424.9322 112.4219 L425.3037 112.5611 L425.4596 112.664 L425.6154 112.8528 L425.814 113.3265 L425.8684 113.7888 L425.8384 114.0138 L425.7401 114.2502 L425.6655 114.3588 L425.5323 114.4875 L425.3593 114.5552 L425.0923 114.5952 L424.9652 114.6305 L424.3517 114.9632 L423.2902 115.5084 L422.7237 115.8172 L421.9091 116.3158 L421.5132 116.5121 L421.3084 116.556 L420.918 116.5226 L420.4028 116.3844 L420.1651 116.2805 L419.7862 116.0155 L419.3139 115.5932 L419.059 115.414 L418.5891 115.1824 L417.6034 114.7964 L415.6663 113.9947 L415.3919 113.0634 M445.7012 206.2024 L446.8085 207.0963 L448.3344 207.0668 L450.1261 206.9086 L450.3803 207.3765 L450.9847 207.651 L451.6141 208.0293 L452.2277 208.4715 L453.2628 209.2377 L453.7719 209.7304 L454.0456 210.0564 L453.2561 207.9693 L449.9012 201.0885 L447.5638 201.1847 L448.4407 201.3963 L448.907 201.28 L449.3439 202.0358 L449.8096 203.1422 L450.1512 203.7827 L451.2707 205.3685 L451.0929 205.6744 L450.6621 205.9927 L449.5633 206.3806 L448.2385 206.4483 L446.4523 206.25 L445.9078 205.9193 L445.7012 206.2024" stroke-dasharray="" fill="none" fill-opacity="1.0" stroke="#ff0000" stroke-opacity="1.0" stroke-width="1.0px" stroke-linecap="butt" stroke-linejoin="miter" stroke-dashoffset="0.0px"/>
</g>
</svg>