<?xml version="1.0" standalone="no"?>
<!DOCTYPE svg PUBLIC "-//W3C//DTD SVG 1.1//EN" "http://www.w3.org/Graphics/SVG/1.1/DTD/svg11.dtd">
<svg width="512px" height="512px" version="1.1" xmlns="http://www.w3.org/2000/svg" xmlns:inkscape="http://www.inkscape.org/namespaces/inkscape">
<g id="layer" inkscape:groupmode="layer" inkscape:label="layer">
<path d="M0.0 168.4773 L3.839 196.6162 L4.468 201.109 L5.5091 208.7771 L6.0513 212.6956 L7.5262 223.5727 L9.8036 240.2263 L17.807 239.1453 L19.2385 249.6172 L19.8892 254.4815 L20.5399 259.2782 L27.0033 306.6377 L64.8079 301.4694 L65.1767 304.1042 L84.0898 301.537 L79.817 270.223 L65.3935 272.216 L62.7041 252.4885 L62.3136 249.6847 L61.7497 245.4622 L56.2623 205.3315 L55.8068 202.021 L54.7224 193.9814 L54.1801 190.0967 L50.2543 161.3159 L49.2349 153.8505 L47.8685 143.784 L50.8833 143.3786 L48.3457 124.7657 L104.1959 117.1314 L108.8591 116.4895 L112.0908 116.0504 L131.2426 113.4493 L134.9081 112.9426 L138.1615 112.5035 L138.9423 118.1786 L175.901 113.1453 L184.7937 111.9292 L211.6452 108.2472 L210.4956 99.8021 L216.2216 99.0251 L274.5444 91.053 L281.1163 90.1747 L319.4198 84.9387 L324.6686 84.2293 L328.7246 83.6551 L348.9825 80.9189 L352.6913 80.4121 L355.6194 80.0068 L410.7539 72.4738 L413.1397 89.9382 L418.9958 89.1275 L419.6682 94.0594 L420.2105 98.0793 L424.9387 145.2366 L425.7629 154.1883 L426.8908 162.5658 L432.465 199.7578 L433.3109 203.9465 L433.3109 207.0205 L439.1887 246.4081 L439.7309 250.5968 L440.5768 257.8595 L441.4227 262.8927 L450.337 318.6634 L450.7925 322.0414 L451.9204 330.3174 L452.4192 334.0332 L460.119 390.4117 L460.5961 393.891 L461.0733 397.4041 L464.0664 419.3271 L451.248 421.0836 L447.4957 421.5903 L442.2252 422.2997 L397.4366 428.4138 L393.359 428.9881 L388.5873 429.6299 L369.9127 432.1971 L364.6422 432.9065 L359.2415 433.6497 L343.1046 435.8453 L341.2177 421.8606 L309.2475 426.2519 L311.8502 445.3374 L316.2532 444.7632 L321.3935 482.3598 L364.8808 476.4146 L370.6285 475.6377 L376.875 474.7932 L394.2266 472.4286 L399.779 471.6517 L404.5073 471.0099 L418.497 469.0845 L422.1408 468.6116 L427.6933 467.8346 L449.2309 464.8958 L453.2 464.3553 L457.3644 463.7811 L475.475 461.3152 L474.9328 457.363 L501.4373 453.7485 L497.338 423.6847 L493.7375 424.1914 L492.6314 416.0505 L500.3962 415.0033 L497.7718 395.8164 L512.0 393.891 L511.3276 389.0267 L510.8288 385.2772 L502.8688 327.0746 L502.3482 323.1899 L501.3505 315.9272 L500.8083 311.8398 L493.0435 255.0895 L492.5663 251.6102 L491.2216 241.6789 L490.7227 238.0644 L486.9704 210.635 L476.9065 212.324 L475.7353 202.1899 L475.1931 198.1701 L474.4773 193.0017 L469.5972 157.1948 L468.4043 148.4457 L467.1246 139.0885 L462.0276 101.6938 L458.9043 102.1329 L457.7331 93.5189 L457.0174 88.283 L456.5185 84.6009 L454.0242 66.3595 L450.2286 66.9 L447.474 46.7331 L443.3314 47.2736 L440.9238 29.6402 L423.5289 32.0048 L424.0061 35.5517 L406.8064 37.9164 L406.3943 34.9437 L387.698 37.511 L387.2209 33.9303 L351.9973 38.7271 L346.0327 39.5378 L342.7576 40.0108 L322.1093 42.8145 L317.3376 43.4564 L313.4335 43.9969 L276.3013 49.0639 L268.1244 50.1787 L262.9189 50.9219 L216.6337 57.2388 L210.8427 58.0157 L207.2856 58.4887 L187.7218 61.1573 L184.0996 61.664 L178.6556 62.4072 L134.7779 68.3863 L129.8544 69.0619 L124.8659 69.7713 L105.1068 72.44 L101.745 72.9129 L97.6023 73.4872 L60.4267 78.5542 L61.381 85.5805 L42.5329 88.1478 L38.1083 88.7559 L33.727 89.3639 L8.2203 92.8433 L10.6495 110.578 L6.702 111.1185 L9.1963 129.4612 L5.0536 130.0354 L7.5479 148.2768 L8.9577 158.7149 L10.1073 167.0924 L0.0 168.4773" stroke-dasharray="" fill="none" fill-opacity="1.0" stroke="#ff0000" stroke-opacity="1.0" stroke-width="1.0px" stroke-linecap="butt" stroke-linejoin="miter" stroke-dashoffset="0.0px"/>
</g>
</svg>