<?xml version="1.0" standalone="no"?>
<!DOCTYPE svg PUBLIC "-//W3C//DTD SVG 1.1//EN" "http://www.w3.org/Graphics/SVG/1.1/DTD/svg11.dtd">
<svg width="512px" height="512px" version="1.1" xmlns="http://www.w3.org/2000/svg" xmlns:inkscape="http://www.inkscape.org/namespaces/inkscape">
<g id="layer" inkscape:groupmode="layer" inkscape:label="layer">
<path d="M0.0 189.8794 L6.5041 189.8254 L6.0042 192.6261 L13.1859 195.181 L18.1613 199.9197 L25.0837 204.4184 L28.684 208.058 L29.1723 211.6296 L36.0233 212.336 L36.8534 211.3415 L38.7349 210.2261 L40.4907 210.4995 L40.1755 211.382 L46.309 215.4046 L54.0658 221.6392 L61.4606 224.9741 L71.4648 225.4816 L86.8342 234.9059 L99.6657 236.2107 L110.6853 234.9786 L128.7367 240.6331 L158.8951 258.6121 L168.934 264.7672 L174.4092 280.796 L178.6138 286.523 L197.1729 282.4631 L208.4097 281.1585 L212.7595 281.1585 L216.3117 272.3863 L225.8814 268.399 L231.3186 268.9065 L237.4807 268.6888 L240.8878 263.977 L248.2826 265.3544 L257.272 262.8166 L281.4856 263.3968 L287.3217 264.5566 L292.8808 265.1444 L298.1674 260.2189 L299.7489 256.5013 L297.9373 252.9075 L299.6092 250.4728 L298.7856 247.9619 L300.5138 245.8475 L299.2533 243.8751 L299.5141 242.4917 L300.836 242.6953 L302.6251 245.9279 L304.089 249.8316 L304.0075 250.6858 L304.5768 251.9665 L303.5887 252.6153 L303.9756 255.0001 L303.3004 256.8093 L301.949 261.1939 L302.5385 264.3137 L306.0609 266.9876 L308.0735 267.908 L307.7429 272.3646 L306.7715 276.6322 L305.3281 276.9778 L306.3853 279.9055 L308.1251 281.223 L308.9079 283.2257 L308.8877 284.7098 L311.6017 288.0135 L313.5942 289.2236 L313.5841 290.8297 L315.2412 292.3343 L317.2946 296.2075 L318.8195 297.9455 L320.6191 299.1145 L320.6086 299.755 L321.2086 301.0056 L321.9304 302.2356 L323.5977 304.6652 L325.0107 305.6617 L327.4604 308.9757 L329.3648 308.9036 L330.4359 306.6149 L332.1536 306.7979 L336.7995 309.4913 L337.6025 310.6404 L339.5037 311.4738 L337.5012 315.6318 L348.48 320.0947 L349.456 316.6888 L350.2081 316.5773 L352.77 317.9698 L353.8679 318.1832 L354.7624 318.7727 L355.6368 319.6373 L355.7486 320.2267 L356.2469 321.5077 L357.5986 323.0221 L360.4045 319.6167 L362.1098 320.8191 L361.7935 321.3546 L362.0955 321.9405 L362.7533 322.4403 L363.4686 322.5013 L363.9358 323.2379 L366.0901 324.4532 L366.0292 326.1817 L366.9187 326.7201 L367.9964 327.0661 L370.1259 327.4626 L370.0906 328.4386 L369.4553 328.4128 L366.9187 331.0204 L367.6103 332.2514 L368.6888 332.8702 L369.4145 334.1711 L374.4897 330.3183 L376.0137 331.7054 L377.7982 330.9289 L380.5878 331.9781 L398.7118 345.1724 L417.9085 349.1311 L427.7828 348.5792 L446.5592 364.1661 L448.7092 363.9198 L468.4143 368.7596 L474.7907 368.8224 L478.3674 361.6262 L480.3284 356.5082 L481.0933 352.2036 L481.4054 351.0753 L480.8085 348.5446 L479.9248 345.2627 L479.8619 341.4131 L480.8085 338.005 L485.3208 328.3805 L488.6658 321.5018 L489.2538 320.8349 L489.9958 319.283 L490.0781 317.7445 L489.5425 315.7116 L490.0917 314.1186 L489.7622 313.5144 L491.1985 311.0703 L494.2101 308.8971 L494.4577 305.9814 L492.7234 301.1974 L488.0775 294.9956 L487.6009 295.2813 L487.3382 296.7624 L478.7368 292.0862 L478.2121 291.2796 L477.7041 290.7188 L477.3684 290.249 L476.9124 289.8331 L476.5053 289.5011 L476.0287 288.359 L475.1776 287.2738 L473.678 284.3837 L474.1876 284.1901 L474.7915 285.331 L475.3348 285.0741 L475.4714 285.3973 L480.524 279.279 L480.7763 279.1072 L480.8399 278.4038 L481.677 275.8139 L482.043 274.2089 L482.0993 272.7876 L482.1136 272.3933 L482.0081 271.8724 L481.9658 271.2887 L482.1346 270.1765 L482.0783 269.4725 L481.8955 269.381 L481.1725 269.4403 L480.5651 269.2754 L480.3924 268.6079 L480.1976 268.5862 L479.4075 267.3278 L478.9282 267.3572 L478.7027 267.1859 L478.6549 267.1448 L476.6811 267.0509 L472.2316 264.5894 L472.1509 262.3209 L471.9013 262.281 L471.278 262.2669 L470.3451 262.1255 L469.813 261.6193 L469.5755 261.0555 L469.1016 260.1802 L469.1292 259.8024 L469.2999 259.5478 L469.8875 259.2439 L472.57 258.7905 L473.2484 258.7435 L475.2409 258.273 L471.9425 252.8793 L471.0704 251.9078 L471.0118 251.6755 L471.1255 251.5435 L471.391 251.361 L472.0457 251.2173 L472.3616 251.0595 L472.5673 251.1129 L473.4413 250.9387 L474.8345 250.755 L476.3248 251.5464 L478.6774 250.904 L479.2627 250.0117 L483.3101 249.5031 L483.2535 249.408 L483.2209 248.4711 L483.3517 248.1285 L483.3606 247.2884 L483.3466 247.2028 L483.3513 246.8543 L483.3128 246.1913 L483.2492 245.5325 L483.0594 245.1969 L482.8413 244.6578 L482.6333 243.8452 L482.199 243.2398 L481.4143 242.4436 L480.9365 242.1004 L480.8756 241.8528 L481.3165 241.7754 L481.8979 241.7959 L482.0756 241.8341 L482.0426 241.1342 L481.5823 241.2433 L481.5338 240.893 L481.6188 239.827 L481.8967 239.9438 L481.9906 240.0388 L481.9367 238.8989 L479.5204 238.3028 L479.3131 238.2494 L478.7989 238.169 L478.3274 237.9966 L477.2916 237.7308 L477.205 237.5589 L477.011 237.529 L476.3939 236.294 L476.0477 235.5964 L475.7438 235.0907 L475.7877 234.7539 L475.7175 234.592 L475.8898 234.2658 L476.5484 233.7624 L477.3401 233.1581 L480.6412 232.491 L484.7686 232.3473 L487.722 231.7113 L491.0456 231.276 L491.9033 231.2947 L494.2971 231.872 L495.0861 230.3572 L493.6028 227.9587 L492.4668 227.233 L492.0566 226.2232 L490.7627 224.8034 L489.3112 223.6358 L490.5597 222.7246 L489.9322 222.8156 L489.6423 222.6419 L489.416 222.6853 L489.0636 222.7528 L488.2742 222.1919 L487.6964 221.8557 L487.1216 221.5219 L485.3647 221.3124 L484.1438 221.2819 L484.2416 221.4485 L484.4112 221.6586 L484.5905 221.8099 L484.6611 221.8698 L484.8287 221.9689 L484.8807 222.0364 L484.7593 222.2341 L484.3619 222.2418 L483.8585 222.2107 L483.2678 222.4688 L482.348 222.0393 L481.5816 221.6809 L481.0774 221.6251 L480.3571 221.5453 L480.2384 221.5324 L480.0269 221.5799 L478.7857 221.8944 L477.9296 222.1948 L477.1355 222.5187 L476.5057 222.5322 L476.2154 222.3914 L475.688 222.3051 L475.1035 222.0053 L474.9599 221.932 L474.2528 221.817 L473.9411 221.6163 L473.6446 221.9378 L473.5581 222.0317 L473.0446 222.0446 L472.5339 221.6151 L472.5192 221.2543 L472.5122 220.846 L472.4431 220.3472 L472.2999 220.3513 L471.3949 220.4775 L470.4615 220.6077 L469.9942 220.8096 L468.9778 221.2479 L467.7937 219.2184 L467.4848 218.3295 L467.6432 218.1318 L468.1768 218.0731 L468.705 218.3653 L469.4676 218.4996 L470.153 218.4574 L470.805 218.3665 L472.1792 218.309 L474.8644 218.5049 L476.7738 218.6809 L477.4864 218.7255 L478.2086 218.7261 L480.1464 218.7971 L481.9122 218.7449 L482.7171 218.6058 L482.7055 218.7144 L482.2859 218.9837 L481.3456 219.402 L480.0952 219.8268 L479.7078 219.9072 L478.0945 220.085 L478.1182 220.2569 L479.1269 221.0589 L479.6469 221.1728 L480.8054 221.2936 L482.0271 221.2936 L482.2995 221.0003 L482.7443 220.8747 L482.7726 220.7926 L482.7699 220.7908 L482.5673 220.4986 L480.3474 220.7808 L480.061 220.6336 L480.1204 220.18 L481.1678 219.7676 L481.849 219.3416 L482.416 219.0218 L483.1324 218.8071 L483.8643 218.8012 L484.467 218.9725 L485.0973 218.8845 L485.3977 218.7525 L486.2003 218.7085 L487.5458 219.0388 L488.131 219.4314 L489.3749 219.8603 L490.094 219.723 L490.595 219.7752 L491.4683 219.6062 L494.0464 219.2207 L495.3484 219.0494 L495.9379 218.5237 L494.4865 217.4823 L493.8236 216.5992 L494.0448 215.2738 L495.3069 215.4316 L504.2373 215.6839 L505.4047 215.2104 L505.8149 214.4219 L505.3554 212.4803 L504.887 212.532 L505.0745 210.1175 L504.814 208.254 L504.8684 205.7122 L506.2252 205.7439 L507.6138 204.5446 L509.6648 204.6731 L509.8212 203.4761 L511.4136 203.5694 L512.0 202.9668 L510.4853 200.5687 L509.7277 200.4425 L507.4558 196.9084 L507.6138 196.1509 L506.7301 195.0149 L502.5647 191.6386 L501.4287 191.8275 L499.9454 191.7014 L499.0621 190.6604 L498.4311 188.7669 L498.936 187.2524 L498.1784 184.7274 L499.2197 184.0649 L498.0208 181.8245 L497.011 173.9355 L496.1273 174.6297 L495.0546 175.9236 L496.9163 179.4896 L497.011 181.5405 L495.6632 181.929 L495.7769 182.3679 L495.8855 183.3426 L495.4233 184.454 L494.8839 185.083 L493.7801 185.3594 L492.6131 184.2967 L492.201 183.9652 L491.7846 183.4535 L491.45 183.3772 L490.859 184.2855 L489.3105 183.9575 L486.1195 183.582 L485.7493 183.6336 L485.3593 183.3097 L485.1474 183.0462 L484.8707 182.9248 L484.6785 183.1114 L484.1915 182.8543 L483.8628 182.8203 L483.4766 182.8315 L483.3901 183.0885 L482.9232 183.1695 L482.4047 183.183 L480.6168 180.7049 L480.3501 180.0442 L480.212 179.7754 L479.9845 179.5143 L479.2363 179.0965 L477.9141 178.9451 L477.687 179.1845 L477.9339 180.354 L478.0996 181.013 L478.53 181.5493 L478.5893 182.0581 L478.4807 182.6537 L478.1198 183.8812 L477.9308 183.9341 L477.7608 184.3202 L477.4728 184.7702 L477.0742 185.1135 L476.7315 185.3641 L476.1424 185.4034 L475.2933 185.1006 L475.0123 184.7614 L474.7158 184.5742 L474.3455 184.6253 L474.1038 185.181 L473.8399 185.3054 L473.2453 186.0031 L472.7408 186.9666 L472.787 187.6825 L472.9263 188.3045 L473.2748 188.7105 L474.0219 189.1148 L474.6475 189.2152 L475.1652 189.116 L476.2542 188.7235 L477.0451 188.2927 L477.5361 188.3843 L478.8893 189.3619 L479.1478 189.6559 L479.2316 190.2614 L479.0263 191.2713 L478.9968 192.4366 L479.2429 192.9506 L480.7406 194.5584 L480.6986 194.985 L480.1541 195.3488 L479.652 195.5946 L478.8614 196.2237 L477.9486 197.0622 L477.5306 197.7463 L477.1949 197.8197 L476.5693 197.5738 L474.4453 196.1175 L473.3679 195.5483 L473.1246 194.789 L472.7485 194.4522 L472.3139 194.5343 L471.6103 194.8987 L471.2885 194.725 L470.3707 194.4639 L468.0673 193.5286 L467.5845 193.1143 L467.2135 192.7382 L466.7932 192.5827 L466.3426 192.5921 L465.8998 192.4771 L465.3103 192.2078 L465.0693 191.8099 L464.9676 191.4989 L464.9731 191.2378 L464.9766 191.0665 L466.0834 188.8948 L466.5926 187.8955 L467.08 187.348 L467.368 187.5106 L467.7774 187.8579 L468.3091 188.0516 L468.3592 188.0698 L468.4376 188.1255 L469.6019 188.9517 L469.7905 189.0479 L469.9562 189.0937 L470.0191 189.0344 L470.1343 188.9253 L470.0439 188.6929 L469.8359 188.4183 L469.8324 187.9765 L469.8304 187.7635 L469.8693 187.3339 L469.8995 186.9977 L470.1984 185.6293 L470.3753 185.2772 L470.6051 184.8213 L470.694 184.6441 L470.9691 184.4833 L471.2462 184.7092 L471.2928 184.7474 L471.7647 185.0319 L471.8602 185.0895 L472.3643 185.0454 L472.8479 184.8929 L473.3819 184.6852 L474.2749 184.1658 L474.6944 183.9217 L474.9405 183.6542 L475.0686 183.3831 L475.2265 183.0486 L475.4691 182.3063 L475.4683 182.2558 L475.4539 181.1632 L475.1341 180.0037 L475.2319 179.5577 L475.5024 178.3201 L475.5863 177.9381 L475.6577 177.8988 L475.9119 177.7591 L476.338 177.8155 L477.1006 178.333 L477.6342 178.6112 L478.3227 178.6751 L478.875 178.4809 L479.2018 178.2333 L479.3081 177.968 L479.3939 177.6259 L479.4909 177.1007 L479.6442 176.8243 L479.7245 176.6794 L479.9772 176.3907 L481.4155 174.7241 L481.6957 173.9971 L481.2598 172.0629 L481.1244 171.2795 L480.8007 170.4515 L480.7006 170.3611 L480.0905 169.8095 L478.5556 168.9633 L478.0088 168.6617 L477.2178 168.2814 L476.6225 168.0872 L476.3349 168.1142 L475.9911 168.1465 L475.9251 168.1529 L475.7291 168.1958 L475.5339 168.3565 L475.6181 168.5696 L475.771 168.8031 L475.719 169.1564 L475.1202 169.7514 L475.0554 169.8136 L475.0072 169.8277 L474.1371 170.0853 L472.5917 169.9703 L470.328 169.5026 L470.0012 169.235 L469.7047 168.9927 L469.2161 168.0402 L469.1082 167.8296 L469.0876 167.3366 L469.1579 167.1929 L469.2324 167.0397 L469.7059 167.0057 L469.8642 166.9728 L470.3253 166.8766 L471.0848 166.6858 L472.7978 166.6354 L473.5131 166.7815 L473.9563 166.8836 L475.6243 166.6964 L475.5874 166.0521 L473.7036 165.4635 L472.6092 163.0422 L472.471 162.6678 L472.0527 161.301 L470.7964 160.8644 L470.231 160.7529 L469.1587 160.2952 L468.4686 160.0716 L467.8919 158.6649 L469.3104 158.8046 L469.3616 158.7324 L469.6787 158.5282 L470.1759 158.6297 L471.0087 158.8116 L472.0426 158.8756 L476.0547 158.3304 L476.4867 158.25 L476.5837 158.2588 L477.4557 158.2653 L477.5714 158.3011 L480.4246 158.4237 L480.6738 158.3498 L480.8597 158.4296 L481.1764 158.1902 L481.2831 158.0194 L481.6204 157.6526 L482.1191 157.4185 L482.303 157.3398 L482.6632 157.0681 L483.0268 157.1896 L483.3579 157.2348 L483.9823 157.5077 L484.944 157.8281 L485.2378 157.8093 L485.2114 157.9173 L485.9449 158.162 L487.1495 158.3797 L490.8593 159.0112 L492.6411 155.8756 L491.1089 155.111 L490.3971 154.9461 L490.3711 154.9367 L489.3244 155.8111 L488.296 155.2231 L488.296 154.1456 L487.8927 153.9138 L485.343 152.6221 L484.4146 152.1884 L482.4431 151.7172 L482.3845 151.8568 L482.1292 151.8551 L481.9037 151.6837 L481.8524 151.4672 L481.4845 151.1884 L481.0611 150.9331 L480.5609 150.6808 L479.2185 150.5211 L478.9064 149.0111 L478.9091 148.9249 L478.6604 147.9431 L478.5936 147.0839 L478.646 145.9266 L478.9747 143.4998 L478.9479 143.1776 L472.3034 143.5216 L471.2978 143.6841 L471.0343 143.7205 L470.7269 144.5521 L470.6664 144.9547 L470.562 144.9993 L470.5294 145.0873 L466.3469 146.7816 L464.6777 149.9525 L464.1072 150.4454 L463.0163 151.8868 L462.6771 152.2377 L462.315 152.0 L461.7934 151.6585 L461.1228 151.2183 L460.7168 151.1632 L460.2034 150.8604 L459.5238 150.6749 L459.317 150.5335 L458.5392 150.5417 L457.5834 151.1896 L456.9434 151.7811 L456.3601 152.0323 L455.9472 152.4936 L454.5702 152.7043 L437.9726 149.3592 L433.9224 150.1045 L433.1121 152.3721 L431.1359 153.2471 L428.479 152.7935 L427.2476 151.1086 L427.0326 151.1321 L422.124 151.6685 L407.5731 153.6679 L406.4209 153.0939 L406.3871 154.7207 L405.5391 155.2935 L403.523 154.6749 L401.9423 153.7583 L395.7103 153.5065 L396.3976 152.7272 L400.2696 152.8651 L402.9044 152.9566 L400.5219 151.9026 L396.0541 151.307 L393.3673 151.7043 L393.9743 151.7899 L394.2929 151.9801 L394.5673 152.3821 L394.0523 152.6955 L393.0922 152.9361 L392.8558 153.7207 L392.7821 154.3756 L392.9459 154.9437 L393.4779 154.9496 L393.6437 155.8745 L393.5055 156.3733 L393.5144 156.8569 L393.3887 157.0235 L393.3076 157.2054 L393.2591 157.4678 L393.0316 157.8193 L392.876 158.3962 L391.5809 158.0687 L391.1983 157.8011 L390.9709 157.8862 L391.0108 158.1749 L391.0178 158.4149 L390.7524 158.6121 L390.3639 159.0681 L389.8411 159.5153 L389.3863 159.4155 L389.051 159.6808 L388.3423 160.6215 L386.7352 162.9982 L386.0968 163.5692 L385.359 163.6185 L384.6492 163.1026 L378.5903 155.6562 L378.7141 155.3985 L379.1406 154.8305 L379.3944 154.554 L379.2659 154.0106 L379.3447 153.8123 L379.767 153.4056 L380.0375 153.1826 L380.1911 152.9103 L380.7131 152.5394 L378.9392 152.4754 L377.5874 152.9108 L377.4271 153.7354 L378.3205 154.8351 L377.7023 155.2248 L376.2586 153.8498 L373.8303 153.1626 L372.1805 153.5523 L371.0348 155.1104 L369.4083 157.1491 L368.3543 158.3404 L368.0741 159.3715 L368.3267 159.2031 L371.0833 159.4296 L371.9321 159.6056 L372.3233 159.5511 L372.5434 159.4132 L372.7087 158.8815 L373.1709 156.9067 L373.4414 156.4056 L373.8706 155.9777 L374.6631 156.1074 L375.5208 156.1949 L377.0425 156.3657 L377.4822 156.6614 L379.6261 158.9402 L379.9416 159.493 L380.7768 160.5745 L381.0717 160.9771 L384.0209 164.7915 L384.024 165.0052 L383.9118 165.1548 L383.7329 165.2064 L382.9625 165.0198 L379.6921 164.9412 L377.7881 165.207 L377.2742 165.1454 L376.649 165.0456 L375.7486 164.6894 L375.2949 164.4735 L374.7411 164.119 L373.6529 163.5521 L372.7397 163.4401 L371.0504 163.1326 L370.2777 163.0005 L369.8197 162.9154 L369.564 163.0633 L368.8673 163.1713 L368.3287 162.3139 L368.043 161.6719 L367.8754 161.0282 L367.2315 160.9296 L367.1954 160.3374 L366.8675 160.4636 L365.8763 160.6021 L365.3877 160.9114 L364.6216 161.7136 L363.677 162.568 L363.0727 162.8127 L362.1824 162.9107 L361.752 162.5029 L361.1439 162.0234 L360.1348 162.0258 L359.6443 161.6308 L358.9884 160.4654 L358.5452 160.1808 L358.0903 159.429 L358.109 158.7236 L358.3736 158.1057 L358.7711 157.4108 L359.3016 156.6385 L359.4607 155.9132 L359.933 154.0734 L360.4286 152.5476 L360.4589 152.3833 L359.6707 151.878 L359.548 151.7612 L358.6399 152.5212 L358.8463 153.6209 L359.373 154.5147 L358.5483 156.3246 L357.1737 157.3786 L356.4406 158.0429 L356.2345 160.2424 L355.0888 161.8233 L352.7059 161.8004 L350.4608 162.9231 L349.5899 162.9917 L349.8193 158.7758 L350.1856 153.7125 L350.644 152.2465 L350.7585 150.4818 L351.4 150.253 L353.0727 150.8028 L353.6684 150.0927 L352.5914 149.3134 L350.5524 148.6033 L349.4296 147.8932 L349.0171 147.8245 L348.1695 149.4513 L347.9405 150.7342 L349.0171 150.253 L349.0862 152.4296 L348.9713 157.1262 L348.811 159.2342 L348.6965 162.2816 L347.8718 164.4582 L347.9176 165.6953 L349.2007 168.1007 L349.3838 168.6734 L347.7344 169.9339 L347.0009 169.407 L346.4514 168.2151 L346.1413 167.2533 L345.7113 167.4405 L345.2017 167.8261 L343.5426 167.3924 L342.9791 167.045 L343.245 166.2087 L341.9348 166.0667 L340.6517 165.6055 L339.9605 165.4353 L339.1797 165.254 L338.3425 164.9917 L337.7616 165.4523 L337.6424 165.8355 L337.396 165.8596 L336.6377 165.5233 L335.8091 164.9893 L335.2785 164.7651 L334.8641 164.3808 L334.7647 164.6613 L335.0209 165.0515 L334.878 165.322 L334.1306 164.9148 L332.6966 163.8849 L331.1853 162.6044 L330.2492 161.7247 L330.3214 161.5305 L330.1235 161.5381 L329.6935 162.1901 L334.2893 165.5585 L335.7283 167.238 L336.6171 168.0514 L337.6013 168.596 L337.7744 169.0778 L338.7365 169.2738 L339.2259 169.5296 L339.2185 169.5314 L339.0178 169.8471 L338.6608 170.1417 L338.0926 170.2215 L337.5303 170.188 L337.0087 169.9521 L336.7424 169.2966 L336.5604 168.7896 L336.1976 168.2808 L335.6694 167.9974 L335.093 167.5191 L334.4469 167.3431 L333.8263 166.7369 L332.9973 165.8942 L331.8171 164.8549 L330.9505 163.8573 L330.2069 163.0557 L329.704 162.4947 L329.4703 163.3033 L329.2681 163.7593 L328.679 164.5586 L328.9351 164.72 L328.7163 165.1343 L328.4535 165.4212 L328.0891 165.1313 L327.2586 164.7358 L326.17 163.9717 L325.7046 163.5621 L324.833 163.4876 L322.6523 162.0557 L322.3507 161.6238 L321.6611 162.3274 L320.3784 163.1519 L319.4847 164.389 L318.1787 163.5874 L318.66 161.8691 L317.4456 162.8544 L316.598 163.2435 L316.2084 160.3339 L316.6209 159.2571 L317.056 158.2717 L316.9415 157.2635 L315.7729 158.1573 L315.0856 157.4701 L315.6126 155.2935 L317.056 155.3621 L317.4914 154.6292 L317.3998 153.7354 L317.1479 152.7043 L317.1018 151.7653 L315.842 151.4901 L314.3067 151.0088 L311.5803 149.9091 L308.9227 148.6491 L306.8378 148.5804 L304.4549 149.3134 L303.2794 149.6626 L301.1561 150.0787 L297.5752 151.2448 L292.0375 151.4531 L273.8832 150.7447 L269.3444 151.6192 L262.4329 154.3469 L259.6428 156.2829 L259.2241 157.3392 L259.2742 157.8827 L258.4262 157.7676 L256.9371 158.5012 L256.2039 158.1344 L254.669 158.3862 L252.3548 158.3862 L249.7429 159.2113 L248.4599 159.6467 L246.6727 159.8985 L245.5275 160.1737 L242.6175 163.4272 L240.2808 166.1994 L238.7913 168.353 L233.8427 170.4151 L229.902 170.7813 L225.2049 170.9879 L221.5394 171.3312 L212.581 171.7437 L210.1523 171.1938 L209.0757 170.5067 L204.5393 166.7492 L203.7371 166.7492 L203.1852 166.9306 L201.5839 167.1612 L200.1837 166.3425 L196.9082 166.7222 L195.0213 165.9981 L192.3993 164.7786 L190.994 165.3884 L187.0347 163.6942 L175.8995 160.8955 L174.044 158.1444 L169.5378 154.6198 L167.8535 155.8891 L162.3771 154.8457 L155.0561 150.2477 L152.5405 151.3351 L148.7476 152.7553 L143.1474 161.0446 L137.2003 166.2481 L133.246 171.1152 L129.4954 171.5841 L121.3808 169.0555 L120.1462 168.6922 L117.8464 168.8471 L113.3693 169.7995 L112.1247 170.1117 L109.8544 170.6769 L104.1808 172.3616 L96.5513 174.0035 L90.3685 175.9248 L87.1388 174.1174 L84.8704 175.1554 L82.77 173.0312 L76.9886 175.6173 L75.7195 177.1553 L72.6908 176.9135 L70.0766 179.6434 L61.733 177.0679 L61.1179 176.3754 L52.5821 174.7412 L52.0811 176.0691 L44.7081 175.7329 L32.9015 171.8241 L28.3177 170.3523 L16.8596 172.0242 L10.4386 176.0996 L11.4344 178.7679 L5.6778 181.172 L0.0 189.8794 M53.2908 190.7895 L53.3994 190.4275 L53.5442 189.8835 L53.8345 189.4487 L54.0879 189.0861 L54.4143 188.6513 L54.6681 188.1801 L54.8855 187.5998 L54.958 186.9114 L54.958 186.3675 L54.8494 185.7514 L54.7042 184.9903 L54.6902 183.9135 L54.6681 183.4676 L54.8494 182.9242 L55.1032 182.4166 L55.7556 182.0903 L56.3719 182.0903 L56.9156 182.1267 L57.6405 182.2353 L58.5654 182.7927 L58.8366 183.0691 L58.8727 183.5403 L58.9814 184.0837 L59.5251 184.4099 L60.1053 184.7726 L60.8303 185.0988 L61.7726 185.3887 L62.86 185.7877 L63.4763 185.7877 L64.1287 185.5337 L64.5998 185.0988 L65.4339 184.664 L66.231 184.5549 L67.3549 184.6998 L68.2611 184.9539 L68.9496 185.4615 L69.4933 186.114 L69.7111 186.9836 L69.7836 187.7447 L69.6024 188.4336 L69.0948 189.0861 L68.2972 189.4845 L67.0285 189.9921 L65.9776 190.1734 L64.9623 189.9921 L64.2374 189.8471 L63.7662 189.8471 L63.1499 189.5937 L62.3528 189.0497 L61.8091 188.7235 L61.3014 188.7962 L60.7577 189.0497 L59.8876 190.0285 L59.4165 190.7173 L59.1626 191.1522 L58.728 191.6961 L56.9878 193.1097 L55.7556 193.8707 L54.6619 193.4441 L53.363 191.6597 L53.2908 190.7895 M73.3145 206.519 L73.3987 206.2086 L73.6114 205.907 L74.2339 205.7609 L74.8545 205.9452 L75.6582 206.3752 L76.4084 206.8605 L77.0208 207.8175 L77.7101 208.9434 L78.1719 209.6869 L78.4381 210.6779 L78.3423 211.1813 L78.4831 211.6835 L78.8235 212.1787 L79.9591 213.4256 L80.0619 214.0076 L79.9622 214.7786 L79.7856 215.4187 L79.4573 215.7326 L78.7529 215.7367 L78.227 215.6616 L77.4819 215.5748 L76.8861 215.2269 L76.037 214.5104 L75.1288 213.5247 L74.9748 212.0438 L74.7206 211.1367 L74.3387 210.0025 L74.0375 209.3682 L73.5567 207.7623 L73.3417 207.016 L73.3145 206.519 M74.3771 198.623 L74.6701 196.5041 L75.4968 194.9334 L76.8904 194.833 L76.6688 194.3102 L75.9629 194.3137 L76.9444 193.2804 L77.1784 192.7893 L77.3317 192.4055 L77.6883 192.1045 L78.1831 191.9607 L78.6601 191.7231 L78.9939 192.0499 L79.0932 192.571 L79.5931 194.0514 L80.2373 195.8059 L81.0636 197.4371 L82.3156 200.9677 L82.8667 201.7434 L83.6894 201.6653 L84.2262 201.2857 L84.6449 201.5468 L84.5859 202.3384 L83.5474 203.2302 L83.7317 204.057 L84.2172 205.058 L84.3135 205.3654 L84.284 206.0296 L84.0376 206.8476 L83.618 207.4179 L83.1337 207.9072 L82.4568 208.4981 L82.5643 208.9998 L83.1131 209.3307 L83.1539 209.4316 L83.2548 209.8347 L83.4399 210.0964 L83.443 210.6497 L83.3417 211.0264 L83.063 211.4653 L83.0475 211.9006 L83.0099 212.2005 L83.1162 212.9609 L83.1073 213.6573 L83.0134 214.1255 L82.9563 214.6683 L82.6951 214.8924 L82.5352 214.8883 L82.3307 214.7569 L82.1968 214.5615 L82.1413 214.3555 L82.1805 213.9654 L81.7571 213.7107 L81.4998 213.7307 L81.1571 213.635 L81.2262 213.1404 L79.824 211.5856 L79.2232 210.8228 L78.6698 209.2973 L78.1354 208.2112 L78.0489 207.4402 L78.0741 206.5577 L78.2014 206.2145 L78.4769 205.755 L78.8809 205.224 L79.0234 204.2289 L78.872 203.4139 L78.1758 203.0695 L77.202 203.097 L76.4127 202.8436 L75.7995 201.9922 L74.5704 199.5864 L74.3771 198.623 M79.767 192.0411 L79.9552 191.7912 L80.3204 191.4039 L80.8521 191.2314 L81.5561 191.4643 L82.3272 191.5852 L83.0879 191.4778 L83.8012 191.4051 L84.3965 191.628 L84.7815 191.9079 L85.1879 192.0992 L85.4056 192.2119 L85.6283 192.3621 L85.893 192.1526 L86.3067 191.9742 L86.5287 191.8492 L86.9502 191.5359 L87.4113 191.0301 L88.3031 190.2913 L88.7851 189.6377 L88.9008 188.6037 L88.9675 187.8967 L89.2854 187.3169 L89.8605 186.6145 L91.0159 186.026 L91.7358 185.8552 L91.9007 185.5178 L92.1949 185.1141 L92.9366 184.6048 L93.7279 184.4135 L94.2056 184.4475 L94.5596 184.7168 L96.4441 188.0404 L96.8093 189.356 L96.7876 189.8436 L96.8093 190.0748 L96.7822 190.377 L96.644 190.6792 L96.6231 190.9485 L96.6432 191.5476 L96.4659 191.878 L96.2392 192.3944 L95.9796 192.9154 L95.9998 193.2962 L96.1333 194.0127 L96.0584 194.1899 L95.753 194.3835 L95.1223 194.6224 L94.1113 195.0976 L93.2168 195.5448 L91.2887 196.9659 L90.9452 197.362 L90.743 197.8185 L90.3623 198.3267 L89.6346 199.0179 L88.5678 199.9438 L88.1905 200.4783 L88.1673 200.8826 L87.7225 201.2945 L87.2397 201.6026 L86.7301 201.4359 L86.2493 200.4842 L86.1744 199.4562 L85.893 199.0003 L84.7493 197.7287 L83.5451 195.2391 L83.3021 195.3646 L83.1678 195.3564 L83.3887 195.7936 L83.7554 197.3139 L83.4938 197.8355 L83.0506 198.3132 L82.4293 198.39 L82.0536 198.0966 L81.7587 197.2804 L80.8125 195.1493 L79.767 192.0411 M81.1459 186.8985 L81.4734 186.7331 L81.5992 186.7331 L81.7101 186.7876 L81.787 186.905 L81.8363 187.128 L81.7808 187.2952 L81.4474 187.4824 L81.2964 187.1837 L81.1459 186.8985 M91.6186 176.548 L92.0459 176.3332 L92.406 176.055 L92.9843 175.791 L93.5028 175.5105 L94.2588 175.1801 L95.4196 174.7822 L97.5677 173.9789 L99.6785 173.5546 L102.3863 173.0887 L103.464 172.8944 L104.0811 172.8234 L105.59 172.2272 L107.0321 171.891 L108.9105 171.4397 L109.2753 171.3945 L109.5823 171.4045 L109.9176 171.5178 L110.0775 171.6158 L110.107 171.732 L110.0752 171.7901 L109.8792 171.9109 L108.9319 172.2214 L107.5859 172.5864 L106.892 172.753 L106.6045 172.9003 L106.4178 173.2131 L105.5989 173.8228 L105.4107 173.9965 L105.0785 174.2171 L103.8207 174.5411 L102.4491 174.9818 L100.7151 175.9928 L100.355 176.1131 L99.023 177.2645 L98.2096 178.5883 L97.3216 180.1744 L97.0519 180.3018 L96.8284 180.4502 L96.2043 180.6609 L95.0284 180.6075 L93.9091 180.4667 L93.2839 179.9849 L92.8787 179.482 L92.6187 179.066 L92.4239 178.7737 L91.7765 176.9575 L91.7342 176.6917 L91.6186 176.548 M117.7439 169.7033 L118.3245 169.3342 L118.9544 169.1658 L120.6674 169.069 L124.6516 170.3999 L128.1775 171.6979 L129.6456 173.3692 L130.0838 173.7659 L130.0236 174.1262 L128.8217 174.2113 L127.8239 174.5604 L126.327 175.5269 L124.9233 176.1395 L124.4972 176.2346 L124.2612 176.5397 L123.7225 177.0949 L122.6362 177.7216 L121.3485 177.9346 L119.4263 177.9011 L119.5625 176.7099 L119.3918 176.2862 L118.4363 176.0263 L118.2252 175.6589 L118.3478 173.5423 L118.1095 172.7366 L117.775 170.8394 L117.7439 169.7033 M131.153 174.5745 L131.3063 174.4149 L131.5993 174.3609 L131.9059 174.4061 L132.2249 174.5369 L132.1698 174.7711 L132.018 175.1191 L131.7669 175.2928 L131.5232 175.2511 L131.2345 174.9776 L131.158 174.7875 L131.153 174.5745 M136.5199 167.9282 L136.6166 167.5174 L136.8401 167.1717 L137.5771 166.6066 L138.5706 165.4805 L140.4734 163.9753 L142.3181 162.3521 L143.0877 161.5727 L143.8588 162.7359 L144.5089 163.9289 L145.3724 164.8626 L146.4858 165.2287 L147.5507 164.7646 L148.2493 164.3725 L148.5268 164.0697 L149.2013 166.7169 L149.8552 168.7573 L148.7511 168.9369 L147.6105 171.2531 L145.8571 170.2872 L145.1566 168.8823 L144.595 168.3871 L144.2558 168.5461 L142.4155 168.1494 L141.4251 168.2087 L140.104 168.4105 L138.5943 168.9369 L138.0956 168.9674 L137.4758 169.2966 L136.5199 167.9282 M139.3519 198.0696 L139.5257 196.8415 L139.8634 195.8317 L140.0803 195.2432 L140.0101 193.6765 L140.8456 193.1167 L141.5667 193.0316 L142.476 193.2288 L142.8261 193.673 L143.5406 194.0808 L144.0261 194.8418 L144.323 195.2549 L144.427 195.4274 L144.5721 195.5143 L145.2637 195.5806 L145.9421 195.9115 L146.4365 196.1087 L146.7117 196.1767 L146.9573 196.2225 L147.2554 196.2606 L147.4044 196.1867 L147.8503 195.3505 L148.7127 193.1196 L149.8607 191.5253 L150.2647 191.1568 L151.7387 191.4309 L152.5471 191.3687 L153.3256 191.2325 L154.2461 190.9697 L157.0757 189.5285 L158.1197 189.0075 L158.8501 188.9048 L159.6616 189.0051 L161.3176 189.4411 L164.4724 190.1939 L164.4313 190.2802 L162.6779 191.6233 L159.4831 194.64 L157.6303 197.1742 L157.5775 197.369 L157.607 197.5791 L157.737 197.7481 L157.9416 197.8795 L158.2163 198.1354 L158.4022 198.3231 L158.5761 198.8072 L158.6832 199.1933 L158.8978 200.2125 L158.7368 200.4273 L158.0662 200.2964 L157.8872 200.3486 L157.5151 200.3475 L154.753 199.7988 L154.5077 199.7372 L154.3443 199.7478 L153.9229 199.8833 L153.6764 199.9819 L153.397 200.6444 L153.0512 201.0604 L152.7236 201.4723 L152.1687 201.4969 L150.7517 202.204 L150.2655 201.8038 L149.525 201.4066 L148.7038 201.1173 L147.933 201.9499 L148.2788 202.204 L148.2035 202.4281 L148.1697 202.5666 L147.5274 203.8768 L147.137 204.5815 L147.6547 205.244 L148.5342 205.4188 L148.9013 204.7763 L149.2723 204.0476 L150.2076 203.8311 L150.9268 203.8369 L151.2803 203.8944 L152.1609 204.2917 L153.6861 204.933 L154.8989 205.4317 L156.7893 206.022 L158.717 206.6874 L160.0939 207.0295 L160.9497 207.2571 L161.2027 207.3551 L161.5637 207.4648 L162.2704 207.767 L163.026 208.0352 L163.409 208.115 L163.7257 208.0974 L164.1654 208.3432 L164.5729 207.8756 L165.1725 207.8715 L165.5909 208.0146 L165.7438 208.2335 L166.0586 208.4711 L166.3042 209.3958 L166.3419 209.8165 L166.4125 210.3235 L166.5569 210.8251 L166.6648 211.4441 L166.9725 211.7845 L167.7429 212.1664 L168.9685 212.3342 L169.0942 212.664 L169.1121 212.9826 L168.9025 213.0154 L168.6712 213.2237 L168.3588 213.2677 L167.8974 213.0448 L167.5725 213.0002 L167.2271 213.381 L166.9993 213.3469 L166.8817 212.5056 L166.4176 212.7573 L165.575 212.3906 L164.7371 211.981 L163.3819 211.1379 L163.0582 211.9769 L162.7279 211.0968 L162.412 212.2169 L161.8873 211.9229 L162.0496 211.4846 L161.9622 210.6714 L161.755 210.5564 L161.1088 211.1003 L160.2507 210.8533 L159.773 210.7019 L159.6201 210.3293 L159.1156 210.0272 L158.6052 209.8699 L158.1473 209.6728 L157.7316 209.5877 L157.1006 209.4046 L156.8813 210.4578 L156.6422 211.1414 L157.5709 212.0872 L157.3276 212.3612 L155.6677 211.6565 L154.7425 211.3444 L153.723 210.9284 L152.2537 210.4473 L150.5495 209.8077 L152.1943 209.2996 L151.3801 209.1371 L151.6284 208.5961 L152.4213 208.9112 L152.8106 208.8455 L153.1211 208.1789 L153.4335 207.9061 L153.7587 207.5722 L153.6085 207.3322 L153.0477 207.0066 L152.5471 207.3375 L152.0437 207.3874 L151.7907 206.9808 L151.8066 205.9927 L151.5392 205.6735 L151.3145 205.3214 L150.7913 205.075 L150.2286 205.4951 L149.61 205.2094 L148.762 205.6799 L148.8097 206.4404 L148.9999 206.7384 L148.6106 207.2196 L148.0056 207.5282 L147.3097 207.3011 L146.4808 206.3095 L145.7438 206.546 L145.0394 207.7594 L142.2606 206.8898 L141.2822 206.3588 L140.9923 206.1857 L140.6582 205.6975 L140.5324 205.3672 L140.4967 204.7306 L140.3508 203.9103 L140.3671 202.8483 L140.2216 201.8085 L139.9208 199.7678 L139.5362 198.8189 L139.3519 198.0696 M147.6334 157.5106 L147.7522 156.8011 L147.8643 156.2741 L148.2831 155.0482 L148.4857 154.7377 L148.6347 154.4959 L149.6433 154.1004 L150.5992 153.8058 L150.6815 153.8211 L150.9889 154.0341 L151.9195 155.7524 L151.8842 156.3392 L151.7907 156.4326 L151.2407 156.6837 L150.2565 156.9689 L149.7629 156.8973 L149.277 157.2829 L148.9118 157.5734 L148.6064 157.6696 L148.0362 157.7764 L147.7048 157.689 L147.6334 157.5106 M148.5346 164.0592 L148.7107 163.8086 L149.1947 163.1202 L149.3329 162.9671 L151.5128 162.3931 L151.9521 162.3327 L151.9929 162.3321 L152.1644 162.3292 L152.3041 162.3767 L152.4446 162.7177 L152.7058 164.2053 L152.8114 164.3913 L153.038 164.5867 L153.4176 164.7334 L153.7265 164.9441 L154.0459 165.2334 L154.4798 165.3866 L154.8128 165.3936 L155.2455 165.2522 L155.6852 165.1636 L155.7818 165.1906 L155.8765 165.2974 L156.012 165.599 L156.4315 166.8906 L156.775 168.2063 L157.5077 169.7878 L157.9777 170.6029 L158.0937 171.3224 L158.4457 171.5976 L159.3108 172.9625 L159.8883 174.2664 L159.9306 174.5698 L159.1233 175.646 L158.2187 175.9453 L157.4681 174.6479 L156.4951 171.8681 L156.1944 171.4286 L156.0232 171.3458 L155.5237 171.3893 L153.8584 171.6498 L153.501 171.5665 L152.6383 170.9116 L152.0666 170.0554 L151.4977 169.6 L150.992 169.2162 L150.5864 168.9792 L149.8867 168.7573 L149.2327 166.7169 L148.5559 164.1267 L148.5346 164.0592 M151.4096 203.479 L151.892 202.5555 L152.1155 202.4434 L152.2459 202.4252 L152.3802 202.4334 L152.8265 202.5848 L153.0089 202.559 L153.1583 202.4845 L153.8953 200.6385 L154.4324 200.5663 L154.6222 200.5933 L155.2067 200.7787 L156.9139 201.5826 L157.2112 201.8079 L157.4716 201.9587 L157.7584 201.9182 L158.1465 201.6501 L158.9429 201.2188 L159.5246 201.4295 L160.5259 201.7528 L161.2687 202.4956 L162.4547 203.3722 L164.0579 204.453 L164.3754 204.8614 L164.1821 205.0826 L164.2376 205.2886 L164.1736 205.5919 L163.8022 206.7408 L163.4696 207.2155 L163.0035 207.4953 L162.7353 207.4795 L159.5801 206.3975 L156.376 205.5368 L153.1575 204.3838 L152.3914 204.0364 L151.6246 203.8768 L151.4759 203.7642 L151.4096 203.479 M152.9348 178.7332 L152.9631 177.9088 L153.2577 177.1265 L154.0362 176.6923 L154.4157 176.3302 L154.7895 176.2927 L156.1501 174.4084 L156.6283 174.4847 L156.9628 174.8268 L157.4487 175.6801 L157.3358 175.8984 L156.9283 176.0627 L157.0063 176.3179 L157.6129 175.9823 L158.1317 176.4635 L158.7511 177.0954 L159.773 177.5273 L160.1591 176.4875 L161.5427 176.315 L162.4862 177.1876 L163.1188 179.2062 L163.6411 180.7565 L164.5396 184.0543 L164.8178 185.4204 L165.3476 186.7067 L164.5547 187.3005 L164.3164 187.1591 L163.5751 186.868 L163.1222 186.7559 L162.7563 186.4907 L162.6744 186.1721 L162.2902 186.3481 L161.696 185.9468 L161.1884 185.4468 L160.6741 185.2121 L160.4122 184.5907 L160.2919 183.7293 L159.2161 182.7845 L158.2241 182.6789 L156.5289 181.9524 L156.2735 181.4554 L155.1399 180.9437 L154.3963 180.4514 L153.5243 179.6093 L152.9348 178.7332 M156.3783 164.9723 L156.3795 164.7158 L156.3826 163.9383 L156.6713 163.4178 L157.0839 163.1443 L157.1285 163.1144 L157.7231 163.4858 L157.8267 163.6584 L157.9967 164.3033 L158.1764 165.5891 L158.6561 167.5015 L159.0115 168.5373 L159.7641 170.117 L160.9652 172.4361 L161.332 173.3475 L161.4049 173.8727 L161.3937 173.9812 L161.2555 174.1344 L160.7595 174.3914 L160.4576 174.5141 L160.3757 174.4988 L160.1677 174.3404 L159.5417 172.9038 L158.97 171.8916 L157.602 169.6652 L157.2123 168.2439 L156.9108 167.4921 L156.4105 165.964 L156.3803 165.4036 L156.4152 165.1965 L156.3783 164.9723 M156.7874 154.584 L156.7916 153.7412 L157.085 153.4443 L157.5209 153.4472 L158.0999 153.7119 L158.7527 154.1638 L159.5044 154.3727 L161.1239 155.0135 L161.7387 155.4601 L162.1885 156.1696 L162.6953 157.4038 L164.4736 161.4272 L163.8406 161.8785 L163.6334 162.2963 L164.6203 164.1132 L165.6111 166.2275 L166.742 167.6676 L167.5512 168.7474 L167.2962 169.3125 L166.9392 169.8893 L166.3326 169.6235 L166.0508 169.0326 L165.7384 169.0021 L165.8894 169.5132 L166.6555 170.3224 L166.6927 170.9298 L165.9045 171.5712 L165.3456 171.9573 L164.8174 172.2513 L164.1165 172.8757 L163.3124 173.3839 L162.6884 173.2982 L161.7849 173.2172 L161.2854 172.2272 L161.1189 171.8346 L160.9415 171.4761 L160.723 171.0166 L159.9756 169.5501 L159.6236 168.2826 L159.1419 167.3407 L158.5625 165.129 L158.7298 163.8162 L158.5823 161.9988 L158.5788 160.1761 L158.1053 157.9736 L158.7903 156.9854 L157.5977 156.0898 L157.0804 155.3897 L156.7874 154.584 M161.9521 173.4654 L162.3732 173.4754 L163.992 174.6068 L164.9401 175.3104 L165.6639 175.8907 L166.5014 176.5239 L166.9333 177.5238 L167.6129 178.7943 L168.2544 179.6258 L168.8168 180.2055 L169.2382 180.7172 L169.3403 181.449 L169.1548 182.0023 L168.719 182.3268 L167.4507 182.0223 L166.7401 181.946 L165.7683 182.4982 L165.9123 184.1694 L165.8618 184.728 L165.509 185.3582 L165.2719 184.7632 L165.1104 183.8748 L163.7777 179.6932 L163.1137 177.6764 L162.0286 174.223 L161.9521 173.4654 M171.8194 164.5779 L172.1897 163.8814 L173.6357 161.4513 L174.1069 160.5645 L174.3576 160.4976 L174.4705 160.6737 L174.677 160.7248 L175.138 161.0745 L175.5808 161.2934 L176.4447 161.4794 L176.9139 161.507 L177.0125 161.5469 L177.1507 161.7283 L177.3168 162.3468 L177.4577 162.5944 L177.6956 162.7752 L177.9855 162.9483 L178.1787 163.1889 L178.658 163.5762 L179.0302 163.7646 L179.2941 163.9418 L179.7144 164.2839 L180.3272 164.8667 L180.7689 165.5538 L181.0177 165.8132 L181.3254 166.4922 L181.8583 167.4528 L182.1691 168.1582 L182.5297 168.4557 L183.1793 169.2385 L183.8752 169.7115 L183.8558 169.9545 L183.7553 169.9955 L183.3156 170.0842 L181.417 169.9333 L179.6116 169.6699 L178.6142 169.5648 L177.8015 169.4404 L177.1802 169.1799 L176.8158 168.8565 L176.5041 168.3384 L175.5572 167.2674 L175.2894 167.0643 L175.1295 167.0602 L174.9727 167.082 L174.5256 167.3055 L174.1193 167.4429 L173.8325 167.4828 L173.5678 167.4933 L173.3481 167.444 L173.0994 167.1846 L172.8917 166.839 L172.4074 166.467 L172.0857 165.8285 L171.9568 165.2851 L171.9646 165.1501 L171.8194 164.5779 M179.952 163.2094 L180.1561 162.6971 L180.1906 162.4507 L180.9668 162.5833 L182.4416 163.0322 L183.8496 163.2493 L184.9828 163.4706 L186.3947 163.9629 L187.7391 164.4653 L190.3998 165.7047 L190.6211 165.9189 L190.1685 166.7498 L189.77 167.8554 L189.1269 169.0695 L188.2362 170.681 L187.3712 170.8024 L186.3699 170.7461 L185.4124 170.4703 L184.5613 170.1205 L184.1209 169.3993 L183.9361 168.9886 L183.6059 168.6775 L183.177 168.0027 L182.9923 167.2879 L182.1245 166.3602 L182.168 166.0069 L181.4857 165.0662 L180.7545 164.271 L180.2977 163.7129 L179.952 163.2094 M243.7469 244.3632 L244.395 244.0687 L246.1018 243.3483 L246.7845 242.9048 L247.4346 242.4454 L249.3952 240.2981 L251.2779 237.9749 L251.808 237.3923 L252.682 236.7938 L252.9296 236.8179 L254.2301 237.9191 L255.2884 238.8842 L255.2244 239.4011 L255.2426 239.5325 L254.4598 241.3225 L253.3274 242.957 L250.7241 246.023 L248.9827 247.9994 L247.393 249.3723 L246.594 250.3133 L246.1407 249.8815 L245.5682 249.0508 L245.1211 247.4034 L244.4509 245.8728 L244.0504 245.0931 L243.7469 244.3632 M246.1764 256.993 L246.4081 255.612 L246.389 253.7611 L246.3475 253.3088 L246.37 252.7092 L246.7709 252.2322 L247.18 252.0046 L248.2678 251.4262 L249.0234 250.4464 L249.0704 249.2203 L249.9754 248.0657 L254.6504 242.8907 L255.0323 242.8027 L255.4289 242.5985 L255.4662 241.3413 L255.9979 240.5891 L256.8656 239.3712 L257.5324 238.5216 L258.2131 237.766 L258.7456 237.3559 L259.0762 237.1388 L259.3293 237.1247 L259.6359 237.0391 L259.9382 237.2262 L260.4012 237.651 L260.6554 238.1057 L260.9496 239.9127 L261.0749 240.8115 L260.7481 241.5173 L260.3538 242.8033 L260.5207 244.3081 L259.984 246.4025 L259.6976 246.9041 L259.932 247.059 L260.2036 247.1007 L260.334 247.0825 L261.158 246.8871 L264.0962 245.8329 L266.2319 245.5073 L267.104 245.4656 L267.5767 245.6135 L267.7179 245.6739 L267.9485 245.8018 L268.1712 246.0652 L268.7922 246.5134 L269.4061 246.9088 L269.5916 247.0972 L269.7333 247.1576 L269.8412 247.1693 L270.2324 247.1148 L270.4788 246.9728 L270.9189 246.697 L271.6062 246.0928 L272.1736 244.7375 L272.7282 243.685 L273.0127 243.3254 L273.478 243.343 L273.8044 243.2978 L275.3149 243.3536 L276.0441 243.7748 L276.6309 243.5648 L277.676 243.4821 L278.4095 243.715 L279.0181 243.5073 L281.0241 243.4451 L281.7537 243.5302 L283.0923 244.172 L287.8251 248.3303 L288.0285 249.0807 L288.0164 249.3764 L287.751 249.7612 L286.3744 250.7562 L282.7915 252.515 L281.4891 253.6596 L280.8122 254.7173 L280.5239 255.3192 L278.1026 254.9004 L274.6058 254.5378 L272.8287 254.3237 L270.9205 254.1964 L268.0897 254.3853 L265.3055 254.1841 L264.1971 254.4246 L263.32 254.7232 L261.8616 255.0019 L256.7651 257.3778 L255.0288 257.6852 L254.1214 257.6524 L252.4278 257.7298 L251.796 256.817 L251.3109 256.8422 L250.9084 257.1543 L249.7263 257.2828 L248.7331 257.3209 L248.1064 257.2435 L247.7202 257.3919 L247.0313 257.4083 L246.5326 257.4517 L246.3316 257.3461 L246.1764 256.993 M259.8388 156.3968 L260.7796 155.7049 L263.3639 154.4091 L265.5295 153.7319 L267.199 153.3111 L270.4606 152.2941 L271.6194 152.0253 L273.2553 151.743 L274.6706 151.598 L275.5943 151.5487 L275.7616 151.6051 L275.8023 151.706 L275.5485 151.9818 L274.6796 153.2078 L273.2448 153.959 L273.4656 154.5229 L273.79 155.2131 L274.0637 155.6116 L274.7847 155.5235 L274.7921 155.9995 L275.4589 156.6679 L275.2442 157.0711 L274.6023 157.4595 L274.3753 157.6614 L273.7365 157.8416 L273.374 158.0423 L272.8885 157.9361 L272.0029 157.8146 L271.392 157.8199 L270.9857 157.9566 L270.721 158.1538 L270.426 158.3287 L269.599 158.4977 L269.3122 158.5382 L268.9882 158.5035 L268.8547 158.3087 L268.6331 157.6726 L268.3664 157.2829 L268.1068 156.7811 L267.5402 157.0787 L267.1754 157.1297 L267.0593 157.253 L266.9095 157.5141 L266.9351 157.6972 L265.9505 158.2342 L265.5128 158.5247 L264.5744 159.0346 L264.4063 159.2764 L263.7504 159.4108 L263.1481 159.6655 L262.1267 159.5 L261.8193 159.4683 L261.5224 159.51 L261.2391 159.7488 L261.0606 159.6139 L260.8157 159.3815 L260.7718 159.0675 L260.6725 158.7348 L260.4466 158.2594 L260.7415 157.7172 L260.3414 157.1315 L259.8388 156.3968 M263.6367 160.9613 L263.6934 160.7564 L263.8513 160.5957 L265.0921 160.2007 L265.7088 160.1408 L266.9402 160.1015 L268.4825 160.0992 L269.6208 160.0599 L270.8561 160.0869 L271.335 159.9935 L271.5333 160.4466 L272.117 160.402 L272.3242 160.7089 L272.6782 160.7336 L272.913 160.6637 L273.9709 160.4918 L274.184 160.5346 L274.0788 160.9448 L273.8584 161.0874 L273.0418 161.2019 L272.7527 161.6508 L271.8818 161.7723 L271.7883 161.8967 L272.0056 161.9959 L272.3863 162.0727 L273.0201 162.3732 L273.8646 162.3292 L275.7957 161.9841 L276.1528 162.1572 L276.8024 162.3069 L277.2693 162.2054 L278.1103 161.7347 L278.7561 161.4589 L278.9199 161.1244 L279.4003 161.0551 L279.9064 161.4853 L280.5836 161.7312 L280.5922 162.0228 L280.3842 162.3984 L275.9843 162.9612 L274.9008 163.3027 L274.3361 163.355 L274.1347 163.4365 L274.0784 163.5111 L274.0652 163.6061 L274.13 163.6906 L276.2242 163.4113 L281.0381 162.8984 L281.2054 163.1466 L281.2939 163.4007 L281.2783 163.6689 L280.277 163.7669 L277.5903 164.0791 L276.2281 164.2722 L275.7142 164.3203 L274.6539 164.5357 L273.0725 164.5944 L271.491 164.683 L271.0951 163.9764 L266.6759 164.1689 L265.8908 164.0257 L264.5522 162.5316 L263.7757 161.3468 L263.6367 160.9613 M274.742 158.5 L275.3979 157.7952 L275.8772 157.8786 L276.1993 157.7283 L276.6794 157.6327 L277.1606 157.4584 L277.4929 157.1708 L277.6054 156.834 L277.8146 156.6174 L278.1798 156.5664 L278.6121 156.4255 L278.9075 156.0634 L279.228 155.8844 L280.3322 155.6127 L281.0459 155.7641 L281.328 156.395 L281.6443 156.2418 L282.143 156.3862 L282.8229 156.8792 L283.2848 156.9484 L286.3329 156.3076 L286.9104 156.2536 L287.6714 156.2495 L287.2263 157.0077 L287.0299 158.0411 L286.7547 157.9795 L286.5013 158.0681 L286.199 158.3398 L285.9948 159.0076 L286.1408 159.5628 L286.3236 160.0434 L286.2005 160.0604 L286.0647 160.2412 L286.3612 160.828 L286.5157 161.9383 L286.5568 162.4066 L286.1788 162.3544 L285.3747 161.5768 L284.5705 161.3327 L283.7493 161.5011 L282.9262 161.6162 L281.9358 161.446 L281.6525 161.0915 L281.3936 160.6426 L281.6167 160.4519 L282.07 160.3509 L283.2359 160.3691 L283.5627 159.8914 L284.6792 160.0892 L284.9435 160.0792 L285.0444 160.0381 L283.7171 158.7512 L283.1295 158.956 L282.301 159.0716 L281.3672 158.5845 L280.2347 158.2048 L277.8732 158.5352 L276.2044 158.9061 L275.2512 158.8738 L275.1759 158.7635 L274.742 158.5 M281.0354 154.8827 L281.7266 154.6022 L282.2517 154.2143 L282.9044 153.6755 L283.3019 153.4015 L283.6174 153.1497 L283.9057 152.8533 L284.0714 151.8627 L284.3062 151.8299 L285.0215 151.8099 L285.9335 151.8692 L289.2727 151.8357 L291.2345 152.6104 L293.7385 152.1268 L296.6597 152.1603 L297.4557 152.236 L297.914 152.0916 L301.1099 150.6638 L304.427 149.7893 L304.8329 149.8392 L305.3239 150.1186 L305.4422 150.3961 L305.4896 150.7371 L305.3138 151.0024 L305.0639 151.118 L304.0998 150.878 L303.3927 150.7629 L303.2173 150.841 L303.2988 151.044 L303.3244 151.2277 L302.882 151.449 L302.4698 151.7753 L301.5353 151.696 L301.0281 151.9232 L300.6442 152.0306 L299.8952 152.189 L299.6527 152.3569 L299.5246 152.7759 L299.3267 153.0711 L298.9649 153.1485 L298.5749 152.8287 L298.1802 152.8569 L297.2806 153.4643 L296.9667 153.8827 L296.8506 154.2594 L295.7888 154.2641 L295.4651 154.1732 L295.0623 153.929 L294.5158 154.1186 L293.9065 154.2506 L293.9671 154.5699 L293.5871 154.7037 L293.062 154.5628 L292.0767 154.5758 L291.4472 155.2817 L290.9388 155.2947 L290.3256 155.3909 L289.1528 155.4009 L287.8041 155.7119 L286.322 155.6139 L285.6215 155.7383 L285.1926 155.9056 L284.4176 156.0675 L283.5871 156.0235 L282.9091 156.118 L282.0425 155.6245 L281.4728 155.5435 L281.0377 155.2835 L281.0354 154.8827 M305.2051 160.5487 L305.5249 157.4249 L305.4776 156.8932 L305.4609 156.0857 L305.4714 154.939 L305.7205 154.0939 L306.043 153.2448 L306.0329 152.4842 L305.925 151.6068 L306.5153 150.8827 L306.7059 150.7219 L307.0486 150.7007 L307.4126 151.0247 L307.7949 151.4789 L308.0495 152.3533 L308.4639 153.2313 L308.9281 153.7013 L309.1322 154.0206 L309.1978 154.493 L308.7092 155.2635 L308.5028 156.2248 L308.2986 156.5147 L307.7673 156.7436 L307.4634 156.8498 L307.3424 157.0106 L307.3858 157.2072 L307.7002 157.4824 L307.5011 158.1497 L307.1471 158.7377 L307.007 159.4871 L306.8052 159.9842 L306.7214 160.4114 L306.3446 160.6825 L305.9289 160.8633 L305.3949 161.034 L305.2051 160.5487 M413.7167 335.8907 L413.8851 335.1822 L415.4778 335.1083 L416.9122 335.3071 L418.1002 335.3974 L418.5116 335.3705 L419.4698 334.7898 L420.768 334.5194 L423.2545 334.6831 L426.1054 334.6972 L427.6073 334.398 L428.4976 334.0579 L429.3177 334.1001 L429.717 333.9851 L430.3706 334.8467 L430.9904 334.5406 L431.5938 334.676 L431.8671 334.9359 L432.4907 334.9376 L433.1955 334.2444 L433.9422 334.7054 L432.4577 335.5499 L430.7882 336.5745 L429.3398 337.0443 L428.9428 336.5341 L428.011 336.6637 L427.6819 336.859 L424.6132 336.9892 L423.3546 336.6889 L421.1561 336.4596 L419.4857 336.1863 L419.1935 336.4355 L419.1089 336.8936 L420.2844 338.3076 L421.1219 338.9944 L422.1748 339.741 L422.729 339.4554 L424.4719 339.1821 L425.6715 338.6273 L426.0061 339.117 L424.7991 339.6126 L423.0383 340.1856 L421.2686 340.9087 L416.3728 342.8423 L415.7293 342.4852 L416.0561 341.3046 L415.7743 340.1938 L415.4107 337.7634 L415.6319 337.2895 L416.0577 336.9329 L416.7058 336.9018 L417.409 336.8332 L417.3644 336.5124 L416.9134 336.0045 L415.5046 335.7294 L413.7167 335.8907 M414.8534 344.651 L414.9516 344.4399 L415.1394 344.3021 L415.6362 344.3232 L416.1551 344.2775 L416.5707 344.1343 L417.4994 343.7121 L418.7797 342.9156 L420.5716 342.2078 L421.7366 341.843 L423.2025 341.3134 L423.8855 341.4524 L425.0906 340.8635 L425.5112 340.8313 L425.7352 340.7198 L426.2707 340.6242 L429.1143 339.3868 L430.2041 338.4789 L432.2618 337.2015 L433.0302 336.961 L433.8176 336.5159 L434.4576 336.4584 L434.9396 336.1833 L435.5334 336.6531 L436.4276 337.544 L436.8809 337.7481 L438.0956 337.7346 L440.9135 337.4531 L442.6813 337.5546 L444.5345 337.6971 L445.4244 337.5997 L445.7849 337.7094 L446.9018 338.568 L447.0695 338.2507 L447.1603 337.8707 L446.2219 337.2296 L446.2949 337.0279 L446.5071 336.9129 L447.6559 336.391 L448.2648 336.5722 L448.8741 336.2954 L450.1789 336.3264 L450.8142 336.4666 L451.9754 336.3792 L453.0031 336.364 L453.5689 336.615 L454.1879 336.1405 L454.3432 336.0584 L454.3366 335.8748 L453.6139 335.6397 L452.0445 335.3576 L451.9393 334.6819 L451.8951 334.2497 L452.0309 333.6514 L452.9456 332.8192 L453.5852 332.4796 L454.4289 332.4872 L455.0941 332.6561 L455.3829 332.9652 L455.8327 332.9189 L456.4773 332.6268 L457.1576 333.0162 L458.1147 332.5289 L458.6172 332.5124 L460.6035 332.8503 L460.9485 333.2303 L461.3052 333.5013 L461.5085 333.8203 L461.6972 334.2221 L461.4255 334.3165 L460.9924 334.5634 L460.2011 334.8279 L459.2661 335.0543 L458.5881 335.2555 L458.1438 335.3065 L457.8445 335.4068 L457.5465 335.5922 L457.2935 335.798 L456.8192 335.9757 L456.3085 336.1218 L455.2948 336.2361 L455.1197 336.3663 L455.1915 336.3798 L455.3569 336.6332 L455.3499 336.9792 L455.2346 337.3733 L455.247 337.6167 L455.4224 338.1405 L455.495 338.6648 L455.62 339.1821 L455.9382 339.7527 L456.2495 340.7509 L458.0444 342.7479 L458.7962 343.7291 L458.8757 344.8411 L459.1253 345.6052 L459.5793 346.0105 L460.0462 346.238 L460.6089 346.1225 L461.1399 346.048 L461.6052 345.7653 L461.8373 345.3337 L461.774 344.1126 L462.6503 343.6552 L463.3745 343.6341 L463.4176 344.5167 L463.3326 345.0932 L463.1455 345.6568 L463.4234 346.092 L463.7498 346.4193 L463.9481 346.7002 L464.0513 346.9471 L464.1693 347.4151 L462.9348 348.0614 L462.5141 348.0931 L462.2956 347.6069 L462.0014 347.0943 L461.7538 346.953 L461.5734 346.4937 L461.3483 346.248 L460.8635 346.353 L460.2779 347.6432 L460.1719 347.9881 L459.8751 348.2209 L459.447 348.3499 L459.1148 348.4866 L458.8346 348.7663 L458.7632 349.0168 L458.3685 349.2619 L458.155 349.2912 L457.6691 349.1194 L457.075 348.8138 L456.8836 348.4303 L456.5041 347.9136 L456.2603 347.5324 L455.9759 347.2046 L455.6433 347.065 L455.3437 347.1224 L455.0316 347.3987 L455.0716 347.6872 L455.19 347.9646 L455.8237 348.7047 L456.0946 348.9346 L456.0236 349.3117 L456.1028 349.615 L455.7244 349.795 L455.5082 349.9956 L455.292 350.0847 L454.8407 350.158 L454.4813 350.1334 L452.0856 349.7756 L451.6494 349.7299 L451.2636 349.8208 L451.018 349.924 L449.7555 349.8929 L448.3716 348.3716 L448.1694 348.1758 L447.985 348.34 L447.921 348.6045 L447.5686 348.5523 L447.25 348.6291 L447.0148 348.9599 L446.8557 349.344 L446.7276 349.724 L446.5506 349.9404 L445.5171 349.7223 L445.2819 349.6325 L445.1158 349.432 L445.3541 348.4303 L445.2819 347.6415 L445.1837 347.0486 L444.7188 346.4527 L444.6621 345.7741 L445.0192 345.2504 L445.4352 344.5748 L445.8594 344.2651 L446.3061 344.3467 L446.872 344.5238 L447.3272 345.4715 L447.4378 345.9993 L447.3121 346.6433 L447.3373 346.8269 L447.4634 346.97 L448.1123 346.9594 L448.7686 346.7559 L449.0111 346.1683 L449.036 345.6967 L448.793 345.0915 L448.4523 344.7026 L447.8884 344.0036 L448.2427 343.4593 L448.899 342.718 L449.1404 342.3919 L449.5261 342.3004 L449.6717 341.9345 L449.8552 341.4189 L449.759 341.033 L449.0565 340.7345 L448.9972 341.138 L448.6677 341.6383 L448.0452 341.9391 L447.5045 342.2547 L447.0381 342.4664 L446.3709 342.5168 L445.1372 342.3855 L444.5993 342.2957 L444.2026 342.3943 L443.9675 342.6148 L442.9848 344.1525 L442.7329 345.0164 L442.6945 345.3155 L442.6891 345.634 L442.6153 345.9049 L442.4648 346.1231 L442.1702 346.3243 L441.7677 346.4545 L441.4076 346.4621 L440.1311 346.2515 L438.8369 345.8539 L438.2598 345.9073 L437.7428 345.8193 L437.0807 345.6439 L435.2796 344.7982 L432.9126 344.3273 L429.384 344.2716 L427.4995 344.6686 L425.9812 344.6399 L425.4119 344.5584 L424.742 344.5185 L423.7811 344.6792 L422.4694 345.183 L421.7386 345.5695 L420.9597 345.8111 L420.7128 345.9841 L420.6313 346.1606 L420.6084 346.265 L420.2083 346.0973 L419.8629 346.4286 L419.1372 346.37 L418.0719 346.7324 L417.5965 346.7066 L417.1536 346.5764 L416.3868 346.5981 L416.013 346.5442 L415.3637 346.1747 L415.1716 345.7466 L414.8534 344.651 M428.746 211.4048 L430.4187 209.2867 L430.5235 209.1987 L432.6072 209.9092 L432.887 206.3747 L435.8167 207.0776 L437.5639 208.4095 L438.4588 209.9755 L440.1172 211.8801 L441.8058 213.8445 L442.4046 214.0921 L443.2041 214.1883 L444.1153 214.2106 L445.2808 214.3837 L447.5503 215.468 L447.9598 215.6845 L447.836 215.9427 L447.6435 216.5998 L447.4778 216.7084 L447.2756 216.6673 L445.8132 216.0776 L445.3107 216.1345 L444.7285 216.5364 L443.6791 217.041 L443.3535 217.3743 L442.946 217.4999 L442.6371 217.3408 L442.464 217.088 L442.6029 216.7488 L442.341 216.5846 L439.2141 216.784 L439.1458 216.9137 L438.7961 216.8697 L438.0059 216.9161 L437.7987 216.8744 L436.3488 216.9671 L435.8217 216.5816 L434.9908 216.6972 L434.836 216.5376 L434.7948 216.2401 L434.7611 215.8054 L428.746 211.4048 M444.5814 328.7265 L444.9435 328.1295 L445.1884 327.4796 L445.9727 327.0843 L446.4466 326.672 L446.7703 326.1946 L447.6027 325.5899 L448.5214 324.0989 L449.1264 322.8397 L449.1687 321.4526 L449.7574 320.7212 L450.3982 320.73 L452.3833 322.6233 L453.6108 323.7558 L454.6319 323.8649 L454.7118 324.1036 L454.451 324.4808 L451.6595 325.6737 L449.7939 326.3864 L448.2159 327.7576 L447.4879 327.7471 L447.1172 328.1389 L446.0263 328.7699 L445.1054 329.9001 L444.8034 329.4462 L444.5814 328.7265 M455.4597 222.9417 L455.5435 222.3069 L455.6992 221.6621 L456.3108 220.2604 L456.3826 220.1648 L456.7455 219.7593 L457.1836 219.659 L457.6012 219.8732 L457.7301 221.1775 L457.8356 223.4316 L457.8566 224.6426 L457.4658 224.6673 L457.2314 224.6708 L456.7074 224.6907 L456.2755 224.6403 L455.8261 224.5223 L455.5746 224.361 L455.4717 224.0882 L455.4667 223.61 L455.4597 222.9417 M456.2025 336.4983 L456.787 336.3223 L457.3652 336.1012 L457.6959 335.8989 L457.966 336.1581 L458.1624 336.225 L458.7531 336.0954 L459.1066 335.7171 L459.5308 335.1734 L460.0295 335.0567 L461.1371 334.7142 L461.7049 334.506 L461.7104 334.6872 L461.838 335.1488 L463.2705 335.9869 L464.3114 336.8695 L464.668 337.3364 L464.9932 337.8073 L465.0747 338.1258 L464.8989 338.7363 L464.9742 339.2794 L464.9506 339.8735 L464.8962 340.2858 L464.4647 340.3515 L463.1727 339.4935 L462.2921 338.6947 L461.722 338.2953 L460.9346 337.6332 L460.6152 337.3956 L460.189 337.6144 L459.8366 337.5252 L459.4699 337.1769 L458.2738 336.7423 L457.0765 336.4138 L456.2025 336.4983 M456.3632 218.6146 L456.3636 218.4275 L456.4622 217.4265 L457.2709 216.5359 L457.4239 216.4877 L460.1188 217.3696 L462.8153 218.0631 L463.2794 218.3459 L463.7634 218.3852 L464.3443 218.3577 L465.9072 218.1341 L466.2708 218.1153 L466.5479 218.0449 L467.0036 218.0555 L468.7438 221.4186 L468.2909 221.6322 L467.5714 221.8123 L466.86 221.8581 L466.6853 221.8322 L465.2152 221.6128 L464.4433 221.3687 L462.3918 219.977 L460.8562 219.2724 L460.6109 219.1597 L459.7656 218.9338 L459.2498 218.7959 L458.5815 218.617 L456.4854 218.7314 L456.3632 218.6146 M458.2649 216.2167 L458.4298 216.1028 L459.7967 216.3493 L460.3396 216.1668 L460.4685 215.6006 L460.7913 215.3636 L461.2214 215.1705 L461.3785 214.9247 L461.6001 214.761 L461.6129 214.7428 L461.642 214.7011 L461.9517 214.213 L461.9455 214.1414 L461.918 213.7207 L462.0313 213.7266 L462.4186 213.7465 L462.3173 214.7246 L462.5327 214.8226 L463.2348 214.6489 L464.8167 213.787 L465.3495 213.6057 L466.0865 213.7436 L467.3102 214.1343 L470.9388 215.7684 L471.5672 216.0817 L471.6506 216.3534 L471.7857 216.6755 L472.171 216.8509 L472.5351 217.3109 L472.4183 217.6213 L472.1272 217.8226 L471.4783 217.9065 L468.8354 217.8531 L467.0284 217.8713 L466.8184 217.5439 L463.6916 217.1695 L463.1106 216.963 L462.4745 216.9718 L461.9793 217.3819 L459.8642 216.7975 L458.2905 216.2877 L458.2649 216.2167 M459.3267 196.2859 L459.3348 195.9966 L459.35 195.4568 L459.9131 193.5034 L460.3454 192.6385 L460.5635 192.4484 L460.8274 192.321 L462.3329 192.6003 L462.7838 192.9858 L462.6247 193.5251 L462.2312 194.5173 L462.3581 195.9326 L462.5762 196.7383 L462.8913 197.0158 L463.94 198.1888 L464.5745 198.6277 L464.9568 198.4933 L465.4892 198.4992 L466.5064 198.3578 L466.8631 198.3941 L467.0812 198.5127 L467.4305 198.6558 L467.8089 198.9334 L468.8804 199.3746 L469.4067 200.104 L469.8995 200.4155 L470.392 200.5974 L472.0643 200.439 L473.2678 200.8838 L473.5864 200.7248 L473.9287 200.6321 L475.8684 198.7755 L476.2072 198.728 L476.9741 198.8888 L478.6282 200.8515 L481.0355 203.6451 L482.1272 204.1749 L485.9965 206.2033 L490.7231 208.0856 L493.3653 208.5468 L495.0663 208.7381 L495.494 208.9458 L495.5231 209.1558 L495.0756 210.1627 L495.0162 210.2959 L494.7403 210.4144 L494.3825 210.3604 L494.0332 210.2994 L493.0373 209.992 L492.6205 210.1674 L491.8253 210.4801 L491.6883 211.027 L491.8249 211.4359 L492.4595 211.9892 L492.6624 211.9182 L492.8941 211.6724 L493.099 211.6167 L493.3618 211.7575 L493.3443 212.0156 L493.0983 212.5402 L493.0078 213.2607 L493.066 213.6808 L493.805 214.2194 L493.8151 214.3315 L493.838 214.4559 L493.5209 215.9004 L493.4875 216.7242 L493.5453 217.1443 L494.0588 217.599 L495.4323 218.4856 L495.4544 218.6434 L495.1222 218.6815 L494.927 218.5753 L494.3623 218.5636 L494.1636 218.6604 L493.191 218.5032 L492.697 218.5026 L492.2231 218.5689 L491.9386 218.7854 L489.8057 218.5472 L485.9084 218.2344 L482.702 218.0396 L481.724 217.9164 L481.6588 217.4465 L482.4746 217.1249 L482.6007 216.6374 L482.3772 216.4678 L481.9371 216.2959 L481.4682 216.3945 L480.9206 216.2865 L480.649 216.0078 L480.6528 215.7033 L481.1818 215.2368 L481.4799 214.974 L481.7803 214.7182 L481.7822 214.6859 L481.8171 214.1432 L481.75 213.6573 L481.4919 213.2513 L480.8368 212.5859 L479.9081 211.9006 L479.4816 211.4271 L479.1238 211.4131 L478.4128 211.4964 L478.2498 211.5457 L478.0293 211.4893 L477.6991 211.4043 L477.335 210.9595 L477.0176 210.4913 L476.5736 209.8353 L476.7412 209.4334 L476.7564 209.1224 L476.5744 208.7269 L476.855 208.2247 L476.7599 207.6145 L476.9683 207.2765 L477.2128 206.5501 L477.0149 205.9651 L476.7816 205.4329 L476.1688 205.2223 L475.7935 205.0069 L475.0049 204.6889 L474.8594 204.7898 L474.7197 205.3173 L474.7173 206.0666 L474.5668 206.5155 L474.4177 206.5894 L474.1053 206.4457 L472.23 204.9031 L471.8253 204.5704 L470.8709 203.8211 L470.0602 203.3388 L468.9809 203.2285 L468.0522 202.5695 L466.6337 201.8971 L464.9432 201.0956 L463.2604 200.0306 L462.9185 199.2103 L462.4664 198.8201 L461.937 198.4522 L460.359 197.1807 L459.3267 196.2859 M460.1522 210.2912 L460.2065 210.1081 L460.2798 209.9861 L460.4921 209.8711 L460.862 209.7027 L461.0145 209.6528 L461.3192 209.5537 L461.7022 209.2497 L461.769 209.0848 L461.8706 208.8325 L462.0313 208.6495 L462.2288 208.5421 L462.4136 208.599 L462.5025 208.6266 L462.558 208.9118 L463.5391 211.1244 L463.8026 211.6841 L463.9085 211.8379 L463.6023 211.8877 L463.168 211.8578 L462.8463 211.9135 L462.3069 211.7757 L462.1248 211.6888 L461.8609 211.5075 L461.2423 210.9918 L460.7048 210.6808 L460.255 210.4209 L460.1522 210.2912 M461.6832 244.602 L463.5689 244.1849 L464.141 245.3888 L464.6253 246.2735 L466.104 246.6912 L466.9027 247.0449 L467.7316 247.8058 L468.2726 248.3544 L469.8433 249.056 L471.129 249.655 L472.5867 250.0968 L470.9423 250.9915 L469.433 250.1367 L468.4143 249.4157 L467.6626 249.3552 L462.5937 245.3172 L461.9894 244.8719 L461.6832 244.602 M462.4815 332.1306 L462.5079 331.8602 L462.4889 331.533 L462.6232 331.2749 L462.6134 330.6315 L463.3272 330.3406 L464.1876 330.6896 L464.3257 330.6016 L464.6265 330.4098 L464.9913 330.1301 L465.2195 329.6292 L465.2478 329.567 L465.2723 329.5723 L465.7395 329.6691 L466.4762 330.1201 L467.3563 330.4556 L468.6394 331.5171 L468.4244 331.7652 L468.7981 331.974 L469.3387 331.9682 L471.4519 333.3506 L472.7986 333.9881 L473.6466 335.0895 L473.7828 335.6508 L473.9625 335.913 L474.0486 336.3059 L474.3436 336.7863 L474.4185 337.3299 L474.5237 337.6666 L474.2369 337.9727 L473.973 338.595 L473.7564 338.9874 L473.7875 339.4038 L474.0665 340.1152 L474.0242 340.1838 L473.8759 340.4243 L473.7991 340.7116 L473.3757 340.9146 L472.2638 340.9867 L471.6533 340.7814 L471.2078 340.5938 L470.9288 340.3838 L470.4079 339.9914 L469.0834 339.3181 L468.7873 338.9017 L468.7201 338.8073 L468.4329 338.2279 L468.086 337.6883 L467.8838 337.3733 L467.3059 336.6519 L466.2891 336.0877 L465.6057 335.6619 L465.3189 335.4831 L462.7023 333.6491 L462.5758 333.3101 L462.5653 333.1781 L462.5304 332.5547 L462.5277 332.4649 L462.4815 332.1306 M462.7186 361.4643 L462.7322 361.2174 L462.8382 360.9471 L463.2402 360.2996 L463.4153 360.2216 L463.4905 360.4462 L463.8266 360.879 L464.2597 361.1324 L464.7103 361.011 L465.2789 361.0544 L465.6868 360.9336 L466.0194 360.6069 L466.5014 360.57 L466.7435 360.6691 L467.0373 360.4896 L467.7312 360.75 L467.6855 361.2989 L467.2791 361.5845 L467.0839 362.629 L467.2112 363.2395 L467.349 363.7362 L467.3284 364.2399 L467.1902 364.4294 L466.8965 364.6088 L466.574 364.5789 L466.2833 364.359 L465.19 364.2077 L465.0111 363.8752 L464.8985 363.253 L464.5772 362.5791 L464.3331 362.3891 L464.0118 362.4818 L463.657 362.4513 L463.4556 362.1868 L463.2852 361.9124 L462.9612 361.6807 L462.7186 361.4643 M462.9185 208.6008 L463.2627 208.4412 L463.3109 208.3649 L463.4482 208.4365 L463.6749 208.714 L463.8383 208.9147 L465.2315 210.1158 L466.3485 211.8513 L466.761 212.2439 L466.9539 212.4046 L467.1456 212.5637 L468.3584 212.8758 L471.4729 214.2265 L472.225 214.7874 L472.4676 215.0414 L472.6065 215.3325 L472.4978 215.5085 L472.3189 215.5601 L471.4721 215.4463 L470.016 214.7117 L468.2133 213.939 L467.1933 213.5816 L466.4385 213.1915 L465.7298 212.715 L464.9195 212.5777 L464.4441 211.8291 L463.874 210.7049 L462.9185 208.6008 M465.0084 344.7742 L465.0158 344.4059 L465.1159 344.1314 L465.3445 343.7907 L465.3732 343.4617 L465.5238 343.2441 L465.693 343.0869 L466.0395 342.9057 L466.4777 342.8124 L466.5289 342.8887 L466.7587 343.2312 L467.42 342.7931 L467.7324 342.5209 L467.9711 341.9444 L467.9614 341.5667 L467.9575 341.4242 L467.8481 340.9392 L467.1627 340.4143 L467.0323 340.1105 L467.3113 339.9011 L467.5954 339.846 L467.9486 339.6741 L468.3701 339.4982 L468.5598 339.636 L469.5747 340.3721 L470.0129 340.6589 L470.1052 340.9398 L469.8409 341.4922 L469.7881 341.8776 L469.7602 342.3661 L469.9372 342.5702 L470.3175 342.6341 L471.7907 342.7696 L473.2053 343.3232 L473.1677 344.1643 L473.033 344.8006 L472.7031 345.3097 L472.4489 345.251 L472.0694 345.1642 L471.5641 345.1173 L471.2264 345.0581 L470.8383 344.8991 L469.9395 344.8111 L469.4835 344.7372 L468.3472 344.5531 L467.9265 344.5848 L467.6175 344.6546 L467.3563 345.2182 L467.0265 345.9307 L466.8115 346.2163 L466.6562 346.2855 L466.4428 346.0867 L466.2278 345.9513 L466.1339 345.8099 L465.922 345.5841 L465.8579 345.5571 L465.632 345.4434 L465.341 345.1061 L465.0084 344.7742 M465.0169 274.1949 L465.0697 274.0001 L465.2634 273.8664 L465.7702 273.6886 L467.3071 272.8861 L468.2785 272.4239 L468.5785 272.2813 L469.0092 272.2966 L469.3182 272.4186 L469.44 272.5981 L469.6449 272.9002 L469.9325 273.1372 L470.352 273.1372 L470.921 273.1806 L471.1814 273.1442 L471.3731 272.9946 L471.4682 272.7635 L471.3727 271.4853 L471.3708 271.4084 L471.5765 270.901 L472.0849 269.0508 L472.2941 268.6806 L472.4322 267.9162 L472.6045 267.0504 L473.0016 266.889 L473.3012 266.8685 L473.3179 266.8708 L474.2276 267.0005 L474.5862 267.1366 L474.8955 267.2216 L475.7958 267.3994 L476.3617 267.5337 L477.4297 267.7308 L477.5784 268.0775 L477.491 268.521 L477.0606 269.2467 L476.9396 269.828 L477.186 270.7631 L477.7538 271.4137 L478.0394 271.6348 L478.2917 271.9616 L478.3996 272.1652 L478.5793 272.3904 L478.9767 272.5371 L479.2553 272.4397 L479.3958 272.2661 L479.449 271.7311 L479.4152 271.294 L479.5386 271.1116 L479.6593 270.9884 L479.8382 270.9737 L480.0482 271.2271 L480.4336 271.5275 L480.477 271.5615 L480.5787 271.6032 L480.9501 271.7563 L481.02 272.2097 L481.3503 272.8456 L481.3708 273.6522 L481.1054 274.067 L480.8011 274.2482 L480.7576 274.2523 L480.0563 274.3521 L479.9054 274.5275 L479.9353 275.0085 L479.9403 275.0871 L479.5402 275.3024 L479.2142 275.1722 L479.1765 274.9006 L479.1226 274.0881 L478.8773 274.0048 L478.7163 274.1069 L478.2234 274.9962 L478.0068 275.0947 L477.734 275.2185 L477.5508 275.0419 L477.3292 274.8278 L477.0156 274.924 L476.9171 274.9545 L476.0085 274.836 L474.7072 274.5644 L472.6236 274.5914 L471.9669 274.6002 L471.7406 274.3069 L471.4434 274.1362 L471.2559 274.0283 L470.3078 274.4336 L470.1281 274.5105 L469.2351 274.619 L468.3134 274.7475 L467.8283 274.7551 L466.3741 274.778 L465.478 274.6859 L465.3398 274.6718 L465.1908 274.4518 L465.0169 274.1949 M468.8462 350.5967 L469.1478 350.0882 L470.0338 350.1041 L470.6194 351.9825 L470.8756 353.1595 L472.0775 352.4317 L473.1677 351.9069 L473.7584 352.4781 L472.7241 353.7419 L472.0115 354.3078 L471.6541 355.757 L469.3422 355.5189 L468.8753 353.1584 L468.9716 351.8382 L468.8462 350.5967 M470.0412 280.1672 L470.0947 279.9044 L470.2216 279.6897 L470.314 279.533 L471.6134 279.7513 L472.1093 279.9255 L472.4741 279.8744 L473.189 279.8551 L473.569 279.8815 L473.699 279.8909 L473.7323 279.9372 L473.9811 280.2839 L475.0984 280.017 L475.6197 279.9442 L476.3353 279.7378 L476.4207 279.997 L476.7141 280.1589 L477.0246 280.7919 L477.172 281.4741 L477.5489 282.391 L476.5585 283.6739 L475.9336 284.1561 L475.8005 284.2587 L475.4283 284.1772 L475.1411 284.02 L474.8823 283.6463 L474.623 283.5384 L474.3653 283.404 L473.9792 283.4152 L473.6186 283.3806 L473.1258 283.3108 L472.858 283.0233 L472.2611 282.8561 L472.1082 282.293 L472.034 282.0197 L471.8423 281.7481 L471.2641 281.4078 L471.0467 281.1403 L470.7995 280.5461 L470.6742 280.5162 L470.5744 280.4921 L470.281 280.4798 L470.243 280.2827 L470.0412 280.1672 M470.6971 328.5893 L470.8585 328.3007 L471.0401 328.0784 L471.2777 327.838 L471.8978 327.4849 L472.8785 327.4392 L473.9567 327.5177 L474.5245 327.6304 L475.19 327.3776 L475.79 326.9324 L476.2658 326.523 L475.8727 325.8661 L475.7807 325.4321 L475.9154 324.9869 L476.1506 324.7306 L476.6283 324.6538 L477.1899 324.5717 L477.4398 324.4567 L478.1318 323.5048 L478.3821 323.2027 L478.8556 322.9763 L479.6376 322.8672 L480.7433 322.7933 L481.0464 323.0614 L481.0456 323.2491 L480.992 323.6303 L480.0532 324.6984 L479.8549 324.9922 L479.5953 325.6086 L479.258 326.1242 L478.9448 326.8831 L478.5769 327.8702 L478.2439 328.3441 L478.0452 328.8262 L477.9715 329.6386 L477.4945 330.523 L476.8619 331.7822 L476.6178 332.0133 L476.1024 332.0479 L471.9685 329.8438 L470.7716 328.9359 L470.6971 328.5893 M471.2109 364.9073 L472.022 363.5028 L472.067 363.4248 L472.2564 363.1058 L472.4924 362.8172 L473.0481 362.2472 L473.2298 361.8948 L473.782 361.2057 L474.0913 361.2157 L473.718 362.2877 L473.3396 363.0084 L473.5433 363.3274 L473.8961 363.572 L474.0859 363.599 L474.0774 363.2618 L474.455 362.6929 L474.4445 362.1194 L474.703 361.7229 L474.8714 361.4057 L475.1792 360.9864 L475.3658 360.9905 L475.5137 360.8315 L475.5285 360.6321 L475.4644 360.2844 L475.0138 360.1301 L474.9847 359.9202 L475.209 359.7273 L475.2874 359.6598 L475.4757 359.6815 L475.7264 359.7103 L476.0861 360.0076 L476.4389 360.2521 L476.6209 360.414 L476.6108 360.6679 L476.3054 361.2215 L476.0206 361.8842 L476.0283 362.4789 L476.2026 362.4707 L476.5433 362.402 L476.8973 362.2355 L477.148 362.2062 L477.285 362.1229 L477.368 362.2232 L477.4119 362.3504 L477.3544 362.6243 L477.1751 363.0166 L476.7781 364.0194 L475.7539 365.6691 L475.2397 365.9054 L473.841 365.7706 L473.4995 365.6797 L473.1188 365.882 L472.8172 366.1207 L472.5541 366.1734 L472.256 366.1295 L471.9813 365.8697 L471.5225 365.6621 L471.3739 365.4328 L471.235 365.1595 L471.2109 364.9073 M474.2679 230.1084 L474.4422 230.0175 L475.4291 229.5065 L475.757 229.3809 L476.1669 229.27 L476.3446 229.0952 L476.7052 228.7402 L477.3315 228.4656 L477.7755 228.2169 L478.0546 228.3119 L478.2622 228.5754 L478.3771 228.7214 L479.199 230.0509 L479.5309 229.9512 L479.8336 229.6414 L480.4631 228.4304 L480.5349 228.3665 L480.6051 228.3043 L480.6851 228.309 L480.8729 228.3201 L481.1605 228.204 L481.8816 227.9135 L482.9927 227.8789 L485.0822 227.8138 L485.5017 227.4354 L485.7466 227.2148 L486.0648 227.0587 L486.359 226.8047 L486.7358 227.0347 L487.1135 226.9232 L487.3133 226.949 L487.5229 227.1966 L487.6319 227.213 L488.1171 227.3057 L488.8428 227.2952 L490.1658 227.3773 L490.2698 227.2717 L490.3055 227.2353 L490.3164 226.9302 L490.2593 226.5172 L490.4068 226.4327 L490.8985 226.455 L490.9599 227.0839 L491.0181 227.6824 L491.8218 230.031 L491.8688 230.3718 L491.6452 230.4833 L490.1782 230.4469 L488.4089 230.6417 L488.2719 230.6746 L486.6869 231.0518 L485.0884 231.2425 L484.6238 231.2208 L482.2339 231.2249 L482.1928 231.1827 L481.9312 230.9157 L481.4329 230.4628 L481.0953 230.2492 L480.7654 230.5132 L480.6199 230.8799 L480.3237 231.2724 L480.1312 231.3546 L480.0078 231.4074 L478.6188 231.6168 L476.4793 232.1173 L475.7202 231.9301 L475.197 231.6409 L474.7461 231.0994 L474.684 230.6535 L474.2679 230.1084 M475.9134 341.7216 L475.9243 341.2618 L476.1215 341.0377 L476.3764 340.8477 L476.6283 340.7116 L476.8561 340.6319 L477.5019 340.6964 L477.6028 341.6119 L477.8205 342.223 L478.015 343.0511 L478.4361 343.9819 L478.568 344.5994 L478.7283 345.1413 L478.8641 346.1143 L478.802 346.4404 L479.0 346.7588 L479.3721 346.8779 L479.6574 346.9072 L479.8922 347.0134 L480.0587 347.2573 L480.4666 348.2262 L480.7196 349.7088 L480.9579 350.7773 L480.7359 351.8201 L480.2271 353.0886 L479.1804 354.343 L478.8199 354.5782 L478.719 354.8855 L478.8005 355.0919 L478.9875 355.252 L479.0461 355.4843 L478.8133 357.2542 L478.8113 357.8911 L478.1302 359.6416 L477.6354 359.7103 L477.2248 359.1983 L478.0456 357.843 L477.8023 357.5791 L477.5822 357.5245 L477.3606 357.5105 L477.1821 357.5621 L476.8771 357.4706 L476.7381 357.0243 L476.7754 356.3376 L476.9108 355.9358 L476.9978 355.4497 L476.978 355.1312 L476.8845 355.0872 L476.685 354.9928 L476.4222 354.6304 L476.3854 354.3049 L476.3194 354.0199 L476.671 352.7854 L476.9702 352.3766 L477.1996 351.8494 L477.4189 351.4406 L477.9412 350.8102 L477.9921 350.7486 L478.3549 349.727 L478.5975 348.9129 L478.4535 348.737 L478.4058 348.6784 L477.9187 348.496 L477.6152 348.4109 L477.302 347.991 L477.0828 347.021 L476.9372 345.8539 L476.6357 345.1718 L476.4793 344.4645 L476.5262 344.0745 L476.293 343.7344 L476.1878 343.2429 L475.9356 341.8441 L475.9134 341.7216 M476.4634 320.3417 L476.5313 319.6361 L476.8138 318.9833 L476.9392 318.0929 L477.1274 317.8067 L477.7767 317.6331 L478.0945 317.6096 L478.4066 317.992 L478.8346 318.6912 L478.9301 319.1563 L479.0085 319.8725 L478.835 320.5622 L478.0654 321.8854 L477.8209 321.9922 L477.264 321.5605 L476.69 321.0795 L476.4634 320.3417 M481.0014 202.1553 L481.0747 201.8414 L481.2365 201.5151 L481.3588 201.4025 L481.4061 201.3585 L481.679 201.1819 L482.0162 201.1243 L482.4722 201.1942 L482.896 201.4547 L483.1114 201.5867 L483.484 201.5879 L484.2839 200.6479 L484.6165 200.3604 L485.0488 200.2201 L485.4994 200.2108 L485.9387 200.3099 L486.1502 200.4948 L486.1587 200.5347 L486.227 200.8585 L485.8688 202.1119 L485.9018 202.3477 L485.9946 202.4416 L486.4964 202.2955 L486.7382 201.6695 L487.0517 201.4389 L487.5322 201.4523 L487.9374 201.69 L490.1088 203.7407 L491.7811 204.6848 L493.3105 204.9799 L494.1539 204.8626 L494.3797 204.8309 L495.6511 204.8943 L498.5797 205.2616 L498.8712 205.3021 L499.8612 204.3885 L500.635 203.4514 L500.9855 203.2959 L501.3503 203.4321 L501.8735 203.9478 L502.8468 204.3609 L502.728 209.3489 L502.7191 209.3853 L501.7508 209.2069 L498.7101 208.7475 L493.5558 207.8075 L489.8014 206.9931 L488.2133 206.4656 L486.0578 205.4564 L482.2545 203.5735 L481.4391 202.8512 L481.0017 202.4639 L481.0014 202.1553 M481.8532 325.6268 L483.0381 324.3248 L484.41 323.7664 L485.8098 321.7611 L484.7903 320.1645 L484.6735 319.5129 L484.4861 317.4143 L484.6735 316.6219 L484.9743 315.9192 L485.6263 314.8811 L486.3291 314.0077 L487.278 312.8886 L489.9194 314.0593 L489.5484 314.6007 L489.3594 315.8412 L489.6202 318.744 L489.7168 319.2836 L489.6411 319.6953 L489.1509 320.7605 L488.3193 321.5182 L487.1655 323.9206 L486.1219 326.4667 L485.7349 326.8937 L485.3325 327.4767 L483.3486 326.9494 L482.8048 326.7799 L482.3628 326.5007 L482.0302 326.1365 L481.8637 325.8925 L481.8532 325.6268 M484.9514 188.0821 L486.2402 186.601 L486.3718 186.3522 L486.4801 186.1469 L486.449 185.6933 L486.345 184.9187 L486.4506 184.5297 L486.4832 184.5132 L486.8235 184.3436 L488.2176 184.0426 L490.2679 184.4528 L491.5505 185.0765 L493.0012 185.5695 L493.8449 185.6751 L494.372 185.8364 L494.7919 186.337 L495.0314 186.7243 L495.1699 187.2271 L495.192 188.0017 L495.4086 188.3637 L495.9174 188.7739 L496.7576 189.0849 L498.4807 189.4335 L498.6585 189.7562 L498.688 190.3113 L498.7706 191.0242 L499.1005 191.2185 L499.9935 192.0687 L500.5314 192.0787 L500.9137 192.0417 L501.2727 192.1074 L502.1967 193.0615 L503.3661 193.8736 L503.9595 194.3982 L504.2781 194.86 L506.5977 196.4226 L506.3792 197.2623 L505.7272 197.886 L504.1232 196.9524 L501.8905 195.418 L499.7851 193.6518 L497.2978 190.5906 L495.9872 189.3718 L495.1738 188.7129 L494.7434 188.6343 L494.3794 188.6906 L493.7386 189.0667 L493.7014 189.0884 L493.3563 189.3355 L493.0637 189.545 L492.7358 189.6705 L491.3825 189.5232 L491.0825 189.6981 L490.7542 190.5108 L490.7429 192.2706 L488.9348 194.4322 L488.4838 194.9715 L488.157 194.921 L487.8609 194.9304 L487.4511 194.8864 L487.4045 194.7655 L486.6109 192.7717 L486.4634 192.3551 L486.158 191.8381 L486.0477 191.6984 L485.8937 191.5025 L485.6697 191.1128 L485.7485 190.9239 L485.7974 190.8071 L485.8688 190.4779 L485.5983 190.2115 L484.9642 188.5474 L484.9514 188.0821 M485.6368 222.2664 L485.7532 222.1379 L487.0246 222.2746 L488.0507 222.7211 L488.3371 222.9024 L488.5478 223.2421 L488.5909 223.6135 L488.4477 223.9943 L488.2552 224.1862 L487.9591 224.4807 L487.3762 224.8732 L487.0634 224.9741 L486.7199 224.9154 L486.4603 224.8216 L486.2515 224.6039 L485.9988 224.2349 L485.8894 223.4428 L485.6368 222.2664 M486.3175 195.8035 L486.4032 195.5665 L486.8395 195.2326 L487.2093 195.3353 L487.9719 195.8775 L488.1819 196.0799 L488.2436 196.4361 L488.1349 196.7723 L487.9556 196.953 L487.6506 196.9172 L487.2423 196.8591 L487.0987 196.7541 L486.6345 196.4654 L486.4122 196.2636 L486.3237 196.0652 L486.3175 195.8035 M493.3268 229.6414 L493.3924 229.5158 L493.5488 229.5106 L493.831 229.571 L494.0413 229.7746 L494.1356 229.9776 L494.0064 230.1201 L493.8077 230.1231 L493.5865 230.021 L493.3924 229.8151 L493.3268 229.6414 M493.9889 214.9141 L494.11 214.3063 L494.1415 214.149 L494.5074 214.0105 L494.7321 213.564 L494.8804 213.1574 L494.8978 213.1093 L494.8583 212.6053 L494.8559 212.2046 L495.0962 211.974 L495.5386 211.6407 L496.229 211.257 L496.7223 210.9014 L497.866 210.7154 L498.4062 210.5423 L499.7028 210.07 L499.7878 209.9908 L500.2966 209.5196 L500.3281 209.4903 L500.585 209.4275 L504.7931 210.1287 L504.6406 211.5985 L504.6662 212.6035 L504.6809 212.7086 L505.1944 212.7197 L505.3512 214.8126 L504.6103 215.1394 L503.6742 215.2286 L501.3398 215.0725 L497.2563 214.7586 L495.6407 214.609 L494.9813 214.6472 L494.7981 214.8601 L494.8272 215.0702 L493.9889 214.9141 M495.8429 187.4718 L495.9647 186.3874 L496.1332 185.9931 L496.3648 185.7789 L496.7689 185.7784 L497.0176 186.4901 L497.134 186.8223 L497.3704 187.3691 L497.5249 187.8708 L497.4837 188.1079 L497.1732 188.3092 L496.8364 188.4171 L496.3695 188.4166 L495.8716 188.2335 L495.8429 187.4718 M503.1154 197.7381 L503.2166 197.4741 L503.5966 197.5328 L504.0452 197.9059 L504.2463 198.0116 L504.5059 198.3865 L504.8435 198.792 L505.5774 198.9134 L506.4402 199.5442 L506.6501 199.8722 L506.8473 200.0682 L507.1488 199.9837 L507.2261 200.2342 L507.3918 200.4719 L507.5451 200.429 L508.8658 201.6207 L508.8727 201.8607 L508.2165 202.6317 L507.9037 202.6752 L507.5703 202.3378 L507.2171 202.2809 L506.857 202.1711 L505.9888 202.116 L505.3038 201.7322 L504.6444 201.2675 L504.143 200.9143 L504.0138 200.5581 L504.0227 200.3604 L504.0662 199.4004 L504.0076 199.1681 L503.8434 198.8565 L503.713 198.5285 L503.81 198.153 L503.1154 197.7381" stroke-dasharray="" fill="none" fill-opacity="1.0" stroke="#ff0000" stroke-opacity="1.0" stroke-width="1.0px" stroke-linecap="butt" stroke-linejoin="miter" stroke-dashoffset="0.0px"/>
</g>
</svg>