<?xml version="1.0" standalone="no"?>
<!DOCTYPE svg PUBLIC "-//W3C//DTD SVG 1.1//EN" "http://www.w3.org/Graphics/SVG/1.1/DTD/svg11.dtd">
<svg width="512px" height="512px" version="1.1" xmlns="http://www.w3.org/2000/svg" xmlns:inkscape="http://www.inkscape.org/namespaces/inkscape">
<g id="layer" inkscape:groupmode="layer" inkscape:label="layer">
<path d="M0.0 230.3206 L3.1445 239.0096 L2.7032 239.0956 L3.9168 243.225 L4.5237 242.9669 L4.7995 243.7412 L5.9028 243.311 L13.571 264.5604 L12.4125 264.9905 L75.6884 440.3184 L158.6036 409.5199 L164.9477 425.4353 L300.1056 376.5707 L434.4911 328.0501 L428.9193 312.0487 L512.0 281.6802 L450.7101 111.6855 L451.1514 111.4274 L449.6067 107.212 L449.1654 107.4701 L448.8344 106.6098 L447.3449 107.1259 L439.6768 85.9626 L441.1663 85.4464 L440.9456 84.5861 L441.4421 84.5001 L440.0078 80.2846 L439.4009 80.4567 L436.2564 71.6816 L431.0708 73.5743 L430.9053 72.9721 L426.823 74.3485 L426.9885 75.0368 L426.2713 75.2949 L426.6575 76.4133 L405.639 84.414 L405.1425 82.9515 L385.8895 90.006 L385.6688 89.3177 L381.6416 90.6942 L381.9175 91.4685 L380.9245 91.7266 L381.421 93.1031 L360.3474 100.7597 L359.8509 99.3832 L358.913 99.8134 L358.7475 99.1252 L354.7756 100.6737 L354.9962 101.2759 L347.3281 104.0289 L346.9419 102.9965 L343.0251 104.2869 L343.4113 105.4053 L330.9988 109.9649 L330.5575 108.8465 L109.8916 190.3168 L109.5054 189.1984 L105.4231 190.6609 L105.8093 191.7793 L93.2313 196.3388 L92.8452 195.3065 L88.818 196.683 L89.2042 197.8014 L80.543 200.9845 L80.3224 200.3822 L77.0676 201.7587 L77.1779 202.1889 L76.2952 202.447 L76.7917 203.6514 L55.663 211.4801 L55.1665 210.1896 L33.2654 218.1044 L33.0447 217.5022 L31.8862 218.0183 L32.1069 218.5345 L31.2242 218.8786 L31.7207 220.2551 L10.6471 227.9978 L10.1506 226.5353 L9.268 226.8794 L9.0473 226.2772 L5.0201 227.9117 L5.1856 228.3419 L0.0 230.3206 M88.7628 271.7868 L108.2366 265.2486 L114.1394 281.2501 L125.945 287.2722 L138.854 282.8847 L143.819 270.4964 L138.9092 255.0971 L140.0125 254.667 L139.5712 253.4625 L157.3348 246.6662 L157.7761 247.8706 L162.4653 245.978 L161.9688 244.8596 L180.1737 237.8912 L180.6702 239.2677 L185.4697 237.461 L184.9732 236.0846 L202.7368 229.3742 L203.2333 230.5787 L204.2814 230.2345 L209.3016 244.1713 L282.6178 217.7602 L277.4873 203.5653 L278.37 203.2212 L277.9838 202.2749 L294.2579 195.9087 L294.7544 197.1991 L301.8158 194.7043 L301.3193 193.3278 L320.0207 186.7035 L320.462 187.8219 L327.4682 185.327 L326.9717 183.9506 L341.9769 178.5307 L342.4183 179.8211 L345.7834 178.5307 L350.8036 191.2631 L352.3482 193.758 L354.3894 195.9087 L356.7616 197.6293 L359.4095 198.8337 L362.2782 199.5219 L365.202 199.694 L368.0707 199.3499 L370.8842 198.4896 L373.4218 197.0271 L375.6837 195.2205 L377.5593 192.9837 L378.9936 190.4028 L379.9315 187.6498 L380.3728 184.7248 L375.9595 167.6049 L393.8886 161.4108 L394.2748 162.4431 L395.5436 162.013 L402.4946 181.0256 L401.2257 181.4557 L403.0462 186.3594 L404.1496 185.9293 L411.4315 205.544 L410.1627 206.0602 L411.928 210.7058 L413.252 210.1896 L420.3133 229.7184 L419.0997 230.1485 L420.8098 234.9662 L422.0787 234.536 L428.7538 253.1184 L358.1407 279.9596 L358.7475 281.5942 L340.7081 288.4766 L339.9909 286.842 L335.2466 288.5626 L335.9086 290.2832 L315.9935 297.5097 L315.497 296.1332 L310.9182 297.8538 L311.4147 299.2303 L294.4786 305.5964 L293.9821 304.306 L290.948 305.5104 L286.4243 293.0361 L284.99 290.4552 L283.0592 288.1325 L280.7973 286.2398 L278.1493 284.8633 L275.3358 283.917 L272.3569 283.5729 L269.3779 283.7449 L266.5092 284.5192 L263.8612 285.8097 L261.4339 287.6163 L259.3927 289.767 L257.8481 292.2619 L256.7447 295.1008 L256.1931 298.0258 L261.8752 316.6942 L122.8557 366.4192 L88.7628 271.7868" stroke-dasharray="" fill="none" fill-opacity="1.0" stroke="#ff0000" stroke-opacity="1.0" stroke-width="1.0px" stroke-linecap="butt" stroke-linejoin="miter" stroke-dashoffset="0.0px"/>
</g>
</svg>