<?xml version="1.0" standalone="no"?>
<!DOCTYPE svg PUBLIC "-//W3C//DTD SVG 1.1//EN" "http://www.w3.org/Graphics/SVG/1.1/DTD/svg11.dtd">
<svg width="512px" height="512px" version="1.1" xmlns="http://www.w3.org/2000/svg" xmlns:inkscape="http://www.inkscape.org/namespaces/inkscape">
<g id="layer" inkscape:groupmode="layer" inkscape:label="layer">
<path d="M0.0 246.1405 L0.7142 248.95 L2.1087 248.5259 L3.4011 253.7208 L2.0066 254.0389 L2.6528 256.7954 L4.0473 256.4773 L10.9175 284.2011 L9.5911 284.5722 L10.2373 287.2756 L11.6317 286.9046 L16.3592 306.1469 L15.8491 306.2529 L16.4953 308.7444 L17.0054 308.5853 L18.5019 314.6284 L17.1075 314.9464 L17.8217 317.7559 L19.2162 317.4378 L26.0864 345.1616 L24.6919 345.5327 L25.4061 348.2361 L26.7326 347.9181 L28.025 353.0599 L26.6645 353.431 L27.3448 356.1875 L28.7392 355.8164 L29.9296 360.6402 L130.1257 335.673 L131.146 339.8607 L160.3614 332.4924 L159.6471 329.789 L161.0416 329.4179 L160.8035 328.4637 L174.2038 325.1242 L174.4419 326.0783 L175.8363 325.7073 L176.4825 328.4637 L181.074 327.2975 L180.3598 324.5411 L181.7542 324.223 L181.5502 323.3219 L194.8824 319.9293 L195.1205 320.8304 L196.5149 320.5124 L197.1952 323.2688 L201.8206 322.1557 L201.1064 319.3462 L202.5009 319.0281 L202.2628 318.074 L215.6631 314.6814 L215.9012 315.6355 L217.2956 315.3175 L217.9418 318.074 L222.5673 316.9078 L221.8531 314.1513 L223.2475 313.8332 L223.0094 312.8791 L236.4097 309.4865 L236.6478 310.4406 L238.0422 310.0696 L238.6885 312.8791 L243.3479 311.7129 L242.6337 308.9034 L243.9942 308.5853 L243.7901 307.6842 L257.1564 304.3446 L257.3604 305.1927 L258.7549 304.8747 L259.4351 307.6842 L264.0606 306.518 L263.3464 303.7085 L264.7408 303.3904 L264.5027 302.4363 L277.869 299.0967 L278.1071 300.0509 L279.5015 299.6798 L280.1477 302.4893 L284.8072 301.3231 L284.093 298.5666 L285.4874 298.1955 L285.2494 297.2414 L291.7114 295.6511 L298.6157 293.9018 L298.8197 294.856 L300.2142 294.4849 L300.8944 297.2414 L305.5199 296.0752 L304.8056 293.3717 L306.2001 292.9476 L305.996 292.0995 L319.3283 288.7069 L319.5664 289.608 L320.9608 289.29 L321.607 292.0465 L350.6523 284.7842 L343.34 256.4773 L439.4208 232.6231 L440.067 232.3581 L439.7609 231.0859 L484.3151 219.9009 L491.3214 217.5685 L496.5931 214.759 L501.4566 210.7303 L505.64 205.5354 L509.0751 200.2874 L510.9117 195.2516 L512.0 188.3603 L511.6939 180.78 L510.2314 174.4719 L507.1024 167.8987 L502.681 162.0677 L497.9535 157.9859 L490.7092 153.7982 L484.2131 151.8899 L478.0231 151.3598 L472.6834 151.7308 L468.194 152.526 L421.9392 163.711 L421.531 162.1737 L325.7563 185.7629 L318.6821 157.3498 L289.6028 164.6121 L290.283 167.3686 L288.8885 167.7397 L289.0926 168.6408 L275.7263 171.9274 L275.5223 171.0263 L274.1278 171.3973 L273.4476 168.5878 L268.8221 169.754 L269.5363 172.5105 L268.1419 172.8286 L268.346 173.7828 L254.9117 177.1223 L254.6736 176.1682 L253.3131 176.4862 L252.6329 173.7828 L248.0074 174.896 L248.6877 177.6524 L247.2932 178.0235 L247.5313 178.9247 L234.165 182.2643 L233.9269 181.3631 L232.5325 181.6812 L231.8863 178.9247 L227.2268 180.0379 L227.941 182.8474 L226.5466 183.1654 L226.7846 184.1196 L213.4184 187.4592 L213.1463 186.505 L211.8198 186.8231 L211.0716 184.0666 L206.5141 185.2328 L207.1604 187.9893 L205.7659 188.3603 L206.004 189.2615 L192.6377 192.5481 L192.3996 191.6469 L191.0052 192.018 L190.359 189.2085 L185.6995 190.3747 L186.4137 193.1312 L185.0193 193.4492 L185.2573 194.4034 L171.8911 197.743 L171.653 196.7888 L170.2585 197.1069 L169.5783 194.4034 L164.9528 195.5166 L165.6331 198.2731 L164.2386 198.6442 L164.5107 199.5453 L151.1104 202.8849 L150.8723 201.9307 L149.4779 202.3018 L148.8317 199.4923 L144.2402 200.6585 L144.8864 203.468 L143.492 203.7861 L143.73 204.7402 L130.2617 208.0798 L130.0577 207.1257 L128.6632 207.4437 L127.983 204.6872 L99.822 211.6845 L100.8423 215.8722 L0.2041 240.9986 L1.3944 245.8224 L0.0 246.1405" stroke-dasharray="" fill="none" fill-opacity="1.0" stroke="#ff0000" stroke-opacity="1.0" stroke-width="1.0px" stroke-linecap="butt" stroke-linejoin="miter" stroke-dashoffset="0.0px"/>
</g>
</svg>