<?xml version="1.0" standalone="no"?>
<!DOCTYPE svg PUBLIC "-//W3C//DTD SVG 1.1//EN" "http://www.w3.org/Graphics/SVG/1.1/DTD/svg11.dtd">
<svg width="512px" height="512px" version="1.1" xmlns="http://www.w3.org/2000/svg" xmlns:inkscape="http://www.inkscape.org/namespaces/inkscape">
<g id="layer" inkscape:groupmode="layer" inkscape:label="layer">
<path d="M0.0 301.9798 L6.3062 304.0359 L6.9678 300.3981 L15.6724 303.4982 L14.3491 307.1993 L20.9655 309.5401 L22.2474 305.839 L39.3464 311.9126 L45.5906 295.1154 L53.22 300.8726 L54.9982 302.5176 L71.8491 284.8662 L71.1875 284.3284 L71.601 283.3794 L79.2305 265.6964 L211.6396 320.9914 L217.5116 306.9778 L223.9418 309.635 L227.5808 300.9043 L232.7912 288.3775 L226.5057 285.5621 L230.4961 275.9772 L257.7678 287.5866 L268.4159 292.1418 L281.173 261.4891 L289.919 265.6964 L309.5405 246.2102 L320.871 234.9804 L318.8034 223.624 L421.5631 199.0764 L490.5797 235.2651 L491.3447 240.9274 L446.9533 377.0137 L442.6527 375.3056 L372.0441 347.4051 L362.3471 343.704 L280.8836 312.7351 L278.9814 312.0075 L272.5098 325.8945 L274.3293 327.4129 L456.3195 397.3538 L457.6221 405.1988 L464.838 408.6785 L472.3227 405.1988 L474.4937 397.3855 L469.3454 390.2997 L512.0 259.9707 L509.9944 254.0869 L509.7463 252.3787 L511.6072 244.6602 L506.7276 243.8377 L507.1618 218.4044 L507.4306 218.4361 L507.4306 215.937 L507.7201 215.9054 L507.7201 214.7666 L506.5209 214.7982 L499.9252 214.8931 L499.7185 212.7104 L497.6095 212.742 L497.6715 214.9248 L475.3001 208.946 L463.0392 203.7898 L413.3134 176.5217 L412.6725 174.1808 L392.9682 103.3215 L373.8222 108.1931 L377.3578 122.6181 L340.5545 130.6846 L338.4456 131.602 L343.139 151.8475 L309.7886 159.1549 L304.661 157.415 L262.4199 155.2956 L262.4613 152.1006 L240.8548 150.8985 L241.2063 147.2606 L164.2916 146.1851 L164.6017 150.2026 L125.8342 149.9811 L123.7459 146.881 L119.1558 143.9708 L114.7518 144.3504 L110.8027 147.6719 L108.8178 152.322 L110.3272 156.814 L91.9255 181.6147 L91.0778 184.177 L95.7713 190.0292 L90.8297 194.0783 L89.0929 191.9272 L86.6532 194.015 L88.3693 196.1028 L80.7191 202.3979 L78.9617 200.2785 L76.5839 202.0499 L78.4034 204.2959 L69.9263 211.2869 L68.2102 209.1675 L65.8324 211.1287 L67.5485 213.2165 L59.2161 219.9545 L57.5 217.8034 L55.1429 219.8279 L56.8383 221.9157 L49.1262 228.1475 L47.3894 225.9965 L45.053 228.1159 L46.6658 230.1404 L41.3934 234.4426 L27.8713 225.3322 L24.5424 222.2953 L19.1667 218.6575 L4.8589 243.8377 L19.6836 253.4859 L17.3265 257.5666 L19.8696 259.1166 L16.3134 265.6015 L13.5428 264.0831 L12.4056 266.8668 L14.8661 268.227 L12.3229 275.2496 L9.511 274.2374 L8.4151 277.2742 L11.2477 278.2864 L8.8287 285.0243 L5.9754 284.0121 L4.9002 286.9223 L7.7535 287.9662 L5.3137 294.7674 L2.8326 293.5337 L0.0 301.9798 M83.8205 251.4297 L111.7952 224.9526 L131.2927 205.1184 L143.3468 182.5321 L214.3482 183.7341 L208.6003 203.6 L200.8261 230.3935 L181.6387 278.666 L177.2968 289.5795 L83.8205 251.4297 M213.976 235.0753 L221.5434 207.2378 L227.7462 184.3984 L245.0727 185.4107 L244.6799 192.1487 L264.9837 193.3824 L265.1078 186.8026 L298.5822 189.4282 L305.0538 231.0578 L296.4319 239.6621 L276.3969 259.6228 L268.8501 256.6492 L213.976 235.0753 M311.4014 168.9613 L337.4118 162.9825 L339.5621 174.5288 L345.6822 173.2002 L346.84 178.1034 L352.8981 176.7431 L356.8679 194.1732 L317.6455 202.651 L311.4014 168.9613 M380.3145 135.0817 L388.6676 133.0572 L386.7654 124.864 L395.9662 122.6497 L404.4848 151.0567 L410.8116 176.8697 L410.0673 177.2493 L411.7214 183.829 L405.2498 183.6392 L405.0844 184.1454 L390.5078 175.5727 L380.3145 135.0817" stroke-dasharray="" fill="none" fill-opacity="1.0" stroke="#ff0000" stroke-opacity="1.0" stroke-width="1.0px" stroke-linecap="butt" stroke-linejoin="miter" stroke-dashoffset="0.0px"/>
</g>
</svg>