<?xml version="1.0" standalone="no"?>
<!DOCTYPE svg PUBLIC "-//W3C//DTD SVG 1.1//EN" "http://www.w3.org/Graphics/SVG/1.1/DTD/svg11.dtd">
<svg width="512px" height="512px" version="1.1" xmlns="http://www.w3.org/2000/svg" xmlns:inkscape="http://www.inkscape.org/namespaces/inkscape">
<g id="layer" inkscape:groupmode="layer" inkscape:label="layer">
<path d="M133.3108 88.7466 L134.9387 94.7291 L134.4866 94.8425 L135.1015 97.1392 L135.5537 97.0258 L138.9 109.4445 L138.4478 109.558 L139.0627 111.7979 L139.4969 111.6561 L142.8974 124.2734 L142.4632 124.3868 L143.1144 126.7401 L143.5304 126.6267 L146.8586 138.8753 L146.4064 139.0171 L147.0214 141.3137 L147.4735 141.2003 L150.856 153.7041 L150.4219 153.8175 L151.0187 156.0858 L151.4709 155.944 L154.8714 168.5329 L154.4192 168.6463 L155.0342 170.9146 L155.4864 170.8011 L158.8688 183.2766 L158.4166 183.4183 L159.0316 185.715 L159.4838 185.6015 L162.8662 198.077 L162.414 198.1904 L163.029 200.487 L163.4812 200.3736 L166.8455 212.849 L166.3933 212.9624 L167.0083 215.2023 L167.4424 215.0889 L170.8429 227.6493 L170.3907 227.7627 L171.0057 229.9743 L171.4398 229.8609 L174.8403 242.3929 L174.3881 242.5347 L175.0031 244.7746 L175.4372 244.6612 L178.8377 257.1933 L178.3855 257.3067 L179.0005 259.5466 L179.4527 259.4048 L182.8532 272.0786 L182.401 272.192 L183.016 274.4603 L183.4682 274.3469 L185.6387 282.3708 L186.7963 286.6237 L186.3441 286.7371 L186.9591 288.977 L187.3751 288.8636 L190.7756 301.3956 L190.3415 301.5091 L190.9384 303.7773 L191.3725 303.6639 L194.773 316.2243 L194.3208 316.3377 L194.9358 318.5492 L195.3699 318.4358 L198.7704 330.9961 L198.3182 331.1095 L198.9332 333.3211 L199.3854 333.2077 L202.7678 345.7113 L202.3156 345.8531 L202.9306 348.0929 L203.3828 347.9795 L206.729 360.4548 L206.2768 360.5682 L206.8918 362.8364 L207.344 362.6947 L210.7264 375.255 L210.2923 375.3684 L210.8892 377.6083 L211.3414 377.4949 L214.7238 390.0268 L214.2897 390.1402 L215.0132 392.8621 L215.4654 392.7487 L218.7031 404.7702 L218.2871 404.8837 L218.8659 407.1235 L219.3 406.9818 L222.6824 419.4853 L222.2483 419.5987 L222.8452 421.8386 L223.2974 421.7252 L226.6979 434.2571 L226.2457 434.3705 L226.8426 436.582 L227.2586 436.4686 L230.6591 449.0005 L230.225 449.1423 L230.8219 451.3538 L231.2741 451.2404 L234.6565 463.8289 L234.2224 463.9424 L234.8193 466.1539 L235.2714 466.0121 L238.6539 478.5723 L238.2197 478.6857 L238.8166 480.8972 L239.2688 480.7838 L240.5712 485.6605 L240.119 485.7739 L240.7339 487.9854 L241.1681 487.872 L243.7003 497.285 L245.274 503.0689 L244.8399 503.1824 L245.6176 506.046 L247.8243 505.4789 L247.6977 505.0253 L266.4366 500.1486 L266.5452 500.5739 L268.7519 500.0352 L268.6433 499.5816 L276.403 497.5402 L276.5296 497.9938 L278.5554 497.4551 L278.4469 497.0015 L296.5346 492.2666 L296.6432 492.7203 L298.7775 492.1532 L298.669 491.7279 L306.5733 489.6582 L312.5061 512.0 L314.55 511.4329 L314.4415 510.9793 L322.3458 508.8529 L322.4544 509.3065 L324.5345 508.7395 L324.4259 508.2858 L332.8006 506.046 L332.9272 506.4713 L335.0253 505.9042 L334.8987 505.4789 L342.8573 503.2958 L343.002 503.7494 L345.0821 503.1824 L344.5214 501.141 L344.0873 501.2544 L338.7876 481.6911 L339.2398 481.5777 L338.6248 479.3095 L338.1726 479.4229 L336.4724 472.76 L334.0124 463.0634 L323.8471 424.6739 L378.6892 409.6469 L365.0691 354.3589 L348.5007 359.0939 L347.9038 356.8823 L348.3379 356.7689 L347.6687 354.2455 L347.2165 354.3873 L343.7979 341.8553 L344.2501 341.7419 L343.6532 339.502 L343.201 339.6154 L339.8186 327.1401 L340.2346 327.0267 L339.6196 324.7585 L339.2036 324.8719 L335.785 312.3115 L336.201 312.1981 L335.6042 309.9582 L335.17 310.0717 L331.7334 297.5113 L332.1675 297.3695 L331.5887 295.1863 L331.1546 295.2998 L327.736 282.711 L328.152 282.5976 L327.5732 280.3577 L327.121 280.4995 L323.6662 267.8824 L324.1184 267.7406 L323.5035 265.5574 L323.0874 265.6708 L319.7412 253.394 L320.1934 253.2805 L319.5784 251.069 L319.1443 251.1824 L318.1133 247.4398 L315.7076 238.622 L316.1598 238.5086 L315.5448 236.2687 L315.1107 236.3821 L311.6922 223.8216 L312.1263 223.6799 L311.5294 221.4967 L311.0772 221.6101 L307.6948 209.078 L308.1289 208.9646 L307.532 206.7247 L307.0798 206.8664 L303.6612 194.2776 L304.1134 194.1642 L303.5165 192.0661 L303.0824 192.1795 L299.6276 179.4772 L300.0798 179.3638 L299.4829 177.209 L299.0488 177.3507 L295.6122 164.7619 L296.0643 164.6485 L295.4675 162.4936 L295.0514 162.6071 L291.6329 150.1316 L292.085 149.9898 L291.4881 147.8066 L291.036 147.92 L287.6535 135.4162 L288.0696 135.3028 L287.4546 133.0629 L287.0205 133.1763 L283.6381 120.7008 L284.0722 120.5874 L283.4572 118.2908 L283.0231 118.4042 L279.6045 105.8437 L280.0386 105.7302 L279.4236 103.462 L278.9895 103.6037 L275.5167 90.8731 L275.9689 90.7596 L275.3539 88.5481 L274.9198 88.6615 L271.5374 76.2143 L271.9715 76.1009 L271.3384 73.8043 L270.9043 73.9177 L267.5219 61.4705 L267.956 61.3571 L267.3229 59.0605 L266.8888 59.1455 L263.4883 46.7267 L263.9405 46.5849 L263.4702 44.7419 L263.3255 44.2883 L262.8733 44.4017 L259.4548 31.8694 L259.907 31.756 L259.292 29.4594 L258.8398 29.6012 L256.9587 23.1649 L255.4755 17.1539 L255.9096 17.0405 L255.2765 14.8006 L254.8605 14.914 L253.5582 10.2357 L254.0103 10.1222 L253.3411 7.5988 L251.3153 8.1658 L251.4238 8.6195 L249.9406 9.0164 L241.982 11.1713 L241.8735 10.7177 L239.7753 11.3131 L239.8838 11.7667 L224.8167 15.878 L224.6901 15.4244 L222.5377 15.9914 L222.6824 16.4451 L212.9693 19.1103 L210.9615 11.5399 L208.5016 2.2683 L208.9357 2.1549 L208.375 0.0 L206.1683 0.5954 L206.2949 1.0491 L198.4629 3.204 L198.3363 2.7503 L196.1477 3.3457 L196.2562 3.7994 L188.2795 5.9826 L188.171 5.5573 L185.8919 6.1527 L186.0004 6.6064 L178.2227 8.7613 L178.1142 8.3076 L175.8351 8.9314 L176.3958 11.0296 L176.848 10.9161 L179.3442 20.4713 L181.2795 27.8432 L171.892 30.3951 L171.7835 29.9414 L169.5587 30.5652 L169.7034 30.9905 L154.7267 35.0734 L154.6001 34.6197 L152.4296 35.2152 L152.5381 35.6688 L143.2772 38.1923 L143.1687 37.7386 L140.9077 38.3624 L141.378 40.2621 L153.135 83.6713 L133.3108 88.7466" stroke-dasharray="" fill="none" fill-opacity="1.0" stroke="#ff0000" stroke-opacity="1.0" stroke-width="1.0px" stroke-linecap="butt" stroke-linejoin="miter" stroke-dashoffset="0.0px"/>
</g>
</svg>