<?xml version="1.0" standalone="no"?>
<!DOCTYPE svg PUBLIC "-//W3C//DTD SVG 1.1//EN" "http://www.w3.org/Graphics/SVG/1.1/DTD/svg11.dtd">
<svg width="512px" height="512px" version="1.1" xmlns="http://www.w3.org/2000/svg" xmlns:inkscape="http://www.inkscape.org/namespaces/inkscape">
<g id="layer" inkscape:groupmode="layer" inkscape:label="layer">
<path d="M0.0 413.0756 L0.1935 416.0882 L0.774 419.0405 L1.7802 421.8723 L3.1734 424.5233 L4.9149 426.9333 L7.0047 429.1024 L9.3654 430.9099 L11.9583 432.4162 L14.7447 433.5007 L17.6859 434.1634 L20.6658 434.4044 L30.689 445.3098 L30.7664 448.2621 L32.1209 453.986 L34.8299 459.2278 L36.6875 461.5173 L41.1767 465.2529 L43.7696 466.6989 L49.3424 468.4462 L52.2836 468.8077 L62.3069 479.6528 L62.3069 482.4846 L63.4679 488.0277 L64.5902 490.6184 L66.0608 493.0887 L67.8023 495.2578 L69.8534 497.246 L72.1367 498.933 L77.2837 501.2828 L80.0314 501.9456 L85.759 502.1866 L88.6615 501.7648 L91.4866 500.9816 L94.1569 499.8368 L98.917 496.523 L100.9294 494.4142 L104.0641 489.4737 L105.109 486.7021 L105.7669 483.8704 L106.0378 480.9783 L117.106 470.6152 L120.0085 470.7357 L122.8723 470.4344 L125.6974 469.7717 L128.4063 468.6269 L130.8831 467.1809 L133.1664 465.3131 L135.1401 463.2043 L136.7655 460.7943 L138.0426 458.2035 L138.9327 455.432 L139.4358 452.5399 L139.4745 449.6479 L150.5427 439.2848 L153.3678 439.2245 L156.1929 438.8027 L158.9406 437.9592 L161.5335 436.8145 L163.9716 435.3082 L166.1775 433.5007 L168.1512 431.4521 L171.1311 426.5718 L172.7565 421.1492 L172.9887 418.2572 L184.0181 407.894 L190.4423 406.8095 L193.5383 405.6648 L199.1885 402.4715 L201.704 400.3627 L203.9486 398.0129 L207.5477 392.53 L209.831 386.4447 L210.4115 383.1911 L217.5323 376.5033 L220.3574 376.443 L223.1825 376.0213 L225.9302 375.238 L228.5231 374.0932 L230.9224 372.587 L233.1283 370.7794 L235.102 368.6707 L236.7274 366.3811 L238.0819 363.8506 L239.0494 361.1393 L239.9395 355.5359 L250.969 345.1728 L253.8328 345.1125 L256.6579 344.6907 L259.3669 343.9075 L261.9985 342.7627 L266.6425 339.4489 L270.2416 335.0506 L271.5574 332.52 L272.5636 329.8087 L273.1828 327.0372 L273.415 324.2054 L281.1163 316.915 L286.302 322.5183 L319.0422 291.7903 L313.8951 286.3074 L321.2481 279.3785 L324.0345 279.3785 L326.8209 279.017 L329.5299 278.2337 L332.1228 277.089 L334.5221 275.6429 L336.6893 273.8354 L338.6243 271.7869 L340.2497 269.4973 L341.5268 266.9668 L342.4556 264.3157 L343.0361 261.5442 L343.2296 258.7726 L354.6848 248.0479 L357.5486 247.9876 L360.335 247.5659 L363.0827 246.7224 L365.6756 245.5776 L368.1137 244.0713 L370.3196 242.2638 L372.2546 240.2152 L375.2732 235.3349 L376.2407 232.6838 L377.1308 227.0202 L388.1989 216.657 L391.024 216.5967 L393.8491 216.1749 L396.5968 215.3917 L399.1897 214.2469 L401.6278 212.7406 L403.8337 210.9331 L407.4328 206.5347 L408.7486 204.0042 L410.3353 198.5213 L410.5675 195.6895 L421.6357 185.3263 L424.4608 185.266 L427.2859 184.8442 L430.0336 184.061 L432.6265 182.9162 L435.0646 181.4099 L437.2704 179.6024 L439.2441 177.4936 L440.8695 175.204 L442.224 172.6735 L443.1915 169.9621 L444.0816 164.3588 L455.1111 153.9955 L457.9749 153.9353 L460.8 153.5135 L463.5477 152.67 L466.1406 151.5252 L468.5787 150.0189 L470.7846 148.2114 L472.7583 146.1628 L475.7382 141.2824 L477.3249 135.7996 L477.5571 132.9677 L488.6252 122.6045 L491.7599 122.4237 L497.7971 120.8572 L500.5835 119.4714 L503.1764 117.7241 L505.4984 115.6153 L507.5495 113.2052 L509.2136 110.5542 L510.5294 107.7224 L511.9226 101.6369 L512.0 98.5039 L511.6904 95.5515 L510.9938 92.6595 L509.9102 89.9481 L508.4396 87.3573 L506.6594 85.0075 L502.1702 81.1514 L499.5773 79.7656 L496.8296 78.7413 L493.9658 78.0786 L491.0246 77.8376 L480.8853 66.932 L480.7692 63.9797 L480.2661 61.0274 L479.376 58.1955 L476.5896 53.0139 L474.6933 50.7243 L470.1654 46.9887 L467.5725 45.6029 L464.8635 44.5184 L459.0972 43.5544 L448.9578 32.7091 L448.8417 29.6965 L448.3386 26.6839 L447.4098 23.7918 L446.1327 21.0805 L444.4686 18.5499 L442.4949 16.2603 L440.2116 14.2118 L437.6961 12.585 L434.9485 11.2595 L432.0847 10.3557 L429.1048 9.8134 L426.0475 9.9339 L420.0877 11.38 L417.3013 12.6452 L414.7084 14.272 L412.309 16.2001 L410.1805 18.4294 L408.3616 20.8395 L405.6913 26.3826 L404.5303 32.4078 L393.4621 42.7109 L390.637 42.7711 L387.8119 43.1929 L385.0642 44.0364 L382.4714 45.1812 L380.072 46.6875 L377.8661 48.495 L374.267 52.8934 L372.9512 55.424 L371.3645 60.9069 L371.1323 63.7387 L360.0641 74.102 L357.239 74.1622 L354.4139 74.584 L351.7049 75.3673 L349.112 76.512 L346.6739 78.0183 L344.468 79.8259 L340.8689 84.2242 L339.5531 86.7548 L337.9664 92.2377 L337.7342 95.0695 L326.6661 105.4328 L323.841 105.493 L321.0159 105.9148 L318.3069 106.6981 L315.714 107.8429 L313.2759 109.3491 L311.07 111.1567 L307.4709 115.5551 L306.1551 118.0856 L304.5684 123.5685 L304.3362 126.4003 L293.3067 136.7636 L290.4429 136.8238 L287.6178 137.2456 L284.9088 138.0289 L282.3159 139.1736 L279.8779 140.6799 L277.672 142.4875 L274.0729 146.8858 L272.7571 149.4164 L271.1704 154.8993 L270.9382 157.7311 L259.5217 168.4559 L253.9102 168.8776 L251.2399 169.6609 L248.647 170.8057 L244.0804 173.999 L240.5587 178.3973 L239.2816 180.8676 L238.3141 183.5187 L237.7336 186.2903 L237.5401 189.0618 L230.1872 195.9907 L225.0401 190.4476 L192.3773 221.0553 L197.5244 226.5984 L189.8618 233.8286 L186.998 233.8888 L184.1729 234.3106 L181.4639 235.0939 L176.433 237.7449 L174.2271 239.5525 L172.2534 241.6612 L169.2735 246.5416 L168.306 249.1927 L167.6868 251.9642 L167.4546 254.8563 L156.4638 265.1592 L153.6387 265.2195 L150.8523 265.6412 L148.182 266.4245 L145.5891 267.509 L143.1897 268.9551 L140.9838 270.7626 L139.0488 272.7509 L137.3847 275.0404 L136.0689 277.5107 L135.024 280.1618 L134.0565 286.1869 L123.0658 296.4899 L120.202 296.5501 L114.6679 297.8154 L112.075 298.9602 L109.6369 300.4664 L107.4697 302.274 L105.496 304.3225 L102.5161 309.2028 L101.5486 311.8539 L100.9294 314.6254 L100.6585 317.5175 L89.6677 327.8807 L86.8426 327.8807 L81.2698 329.146 L78.6769 330.2907 L76.2776 331.797 L74.0717 333.6045 L72.098 335.7133 L70.4726 338.0029 L69.1181 340.5334 L68.1506 343.1845 L67.2605 348.8481 L56.2697 359.2112 L53.4446 359.2112 L47.8718 360.4765 L45.2789 361.6213 L42.8795 363.1276 L40.6736 364.9351 L37.0745 369.3334 L35.72 371.864 L34.7525 374.515 L33.8624 380.1786 L22.833 390.5418 L19.8531 390.602 L16.9119 391.1443 L14.0481 392.048 L11.3778 393.3133 L8.8623 394.9401 L6.6177 396.8681 L2.9799 401.6279 L0.774 407.171 L0.0 413.0756" stroke-dasharray="" fill="none" fill-opacity="1.0" stroke="#ff0000" stroke-opacity="1.0" stroke-width="1.0px" stroke-linecap="butt" stroke-linejoin="miter" stroke-dashoffset="0.0px"/>
</g>
</svg>