<?xml version="1.0" standalone="no"?>
<!DOCTYPE svg PUBLIC "-//W3C//DTD SVG 1.1//EN" "http://www.w3.org/Graphics/SVG/1.1/DTD/svg11.dtd">
<svg width="512px" height="512px" version="1.1" xmlns="http://www.w3.org/2000/svg" xmlns:inkscape="http://www.inkscape.org/namespaces/inkscape">
<g id="layer" inkscape:groupmode="layer" inkscape:label="layer">
<path d="M91.0979 392.5311 L158.1056 443.172 L167.1017 430.6577 L170.7547 433.3274 L161.6495 445.8416 L182.3679 461.5261 L191.8002 448.6782 L195.9984 451.765 L186.5116 464.6964 L210.6649 482.9671 L215.79 476.5431 L262.2428 512.0 L265.0234 508.6629 L261.0433 505.2423 L262.2973 503.6572 L215.1902 466.5318 L228.3846 447.2599 L216.6078 437.9994 L228.3846 422.8155 L230.2383 424.3172 L236.8355 415.8076 L243.3781 420.9801 L236.781 429.4063 L240.2159 432.1595 L272.1113 391.2797 L255.482 379.266 L268.2402 362.1633 L273.0382 365.9175 L277.3999 359.577 L285.8508 366.0844 L281.2165 372.3415 L284.9785 374.9278 L302.9163 354.321 L306.0785 357.1576 L303.2979 361.8296 L305.7514 363.8318 L308.8047 360.0776 L314.7476 365.0833 L311.6943 368.7541 L314.8566 371.3404 L307.2235 380.6009 L295.7193 371.0901 L256.7906 420.8132 L259.2441 422.7321 L262.7335 418.1435 L268.84 422.9824 L265.296 427.4041 L268.5128 429.9903 L260.2255 440.6691 L248.5032 431.4086 L221.6238 464.8632 L225.713 467.7832 L228.9298 463.6952 L233.0189 466.9489 L229.8021 471.0369 L249.9208 485.3865 L260.2255 471.9546 L269.7123 479.2963 L266.9317 482.8837 L261.4249 478.5454 L253.7919 488.3899 L265.7867 499.1521 L271.8932 491.2265 L268.6219 488.7236 L273.5834 482.2997 L276.8002 484.8025 L289.6674 468.1169 L286.3961 465.6141 L291.2485 459.1901 L294.5744 461.693 L305.1517 448.0108 L293.2659 438.9171 L298.1728 432.4932 L310.0041 441.5868 L334.7572 409.467 L331.4858 406.9642 L336.4474 400.5402 L339.7187 403.0431 L351.7135 385.6066 L302.9708 346.3954 L337.8104 300.4264 L296.101 266.8048 L420.9021 106.7889 L280.5622 0.0 L251.5019 20.4401 L226.5853 44.3842 L212.0824 66.9934 L151.9991 259.9636 L148.4006 258.7956 L129.9722 317.3623 L108.2178 370.4227 L91.0979 392.5311 M144.0389 322.7852 L169.4462 282.9899 L227.6758 278.735 L268.5673 311.4389 L281.271 293.4184 L307.7687 313.1075 L288.686 340.3051 L262.1337 320.5326 L264.1511 317.696 L225.0587 287.7453 L175.8798 290.4984 L150.7451 327.2069 L144.0389 322.7852 M152.926 411.9699 L155.5976 408.4659 L169.8823 419.3115 L167.1562 422.8989 L152.926 411.9699 M174.1896 383.938 L176.9157 380.434 L191.255 391.2797 L188.4744 394.8671 L174.1896 383.938 M179.0421 181.4575 L179.6418 174.366 L182.2589 166.5238 L185.3666 161.4346 L189.4013 156.846 L193.9266 153.2586 L199.0517 150.5889 L205.3217 148.8369 L210.6649 148.2529 L218.3525 149.0872 L225.0042 151.2563 L230.4564 154.51 L235.1998 158.6815 L239.0709 163.9375 L242.0151 170.278 L243.5417 176.8689 L243.4327 185.0449 L241.4153 192.8872 L237.8714 199.3946 L233.3461 204.6506 L227.1851 209.0723 L220.4243 211.9089 L212.6822 213.1603 L205.5943 212.6597 L198.8336 210.6574 L192.1819 206.9032 L187.5475 202.8152 L184.2217 198.3935 L181.3865 192.9706 L179.5873 186.8803 L179.0421 181.4575 M195.7803 355.6559 L198.5064 352.0685 L212.7367 362.9976 L210.0651 366.585 L195.7803 355.6559 M196.1075 467.6164 L199.8695 462.9444 L204.5039 466.6986 L200.7964 471.3706 L196.1075 467.6164 M200.2512 330.7943 L201.0145 326.0389 L202.432 322.2846 L204.6674 318.5303 L207.7207 315.2766 L210.3923 313.1075 L214.9176 310.9383 L219.3339 309.8538 L223.8047 309.6035 L228.5481 310.4378 L232.3101 311.8561 L236.3448 314.3589 L239.7252 317.6126 L242.5603 321.8675 L244.3595 326.7897 L244.9593 331.4617 L244.5231 336.4674 L242.7239 341.8068 L239.8887 346.2285 L235.7996 350.1496 L231.1107 352.7359 L225.0042 354.321 L218.5706 354.1542 L212.8458 352.2353 L208.4295 349.3988 L204.722 345.4776 L202.1049 341.1394 L200.5783 335.7165 L200.2512 330.7943 M200.4692 384.6889 L211.4282 369.505 L215.0812 372.1747 L204.0677 387.3586 L200.4692 384.6889 M208.4295 452.349 L212.1915 447.6771 L216.8804 451.4313 L213.0638 456.1033 L208.4295 452.349 M227.8393 404.3779 L239.1254 389.3609 L242.7239 391.9471 L231.4378 406.9642 L227.8393 404.3779 M228.1119 144.9992 L243.4872 120.9717 L250.466 125.5603 L235.1453 149.5043 L228.1119 144.9992 M240.4885 412.5539 L244.196 407.9653 L248.8849 411.6362 L245.0683 416.3916 L240.4885 412.5539 M242.942 154.5935 L258.3717 130.6495 L264.7508 134.7375 L249.4301 158.6815 L242.942 154.5935 M246.7585 441.0028 L249.9753 436.9149 L254.119 440.1685 L250.8477 444.2565 L246.7585 441.0028 M253.8464 396.0351 L257.6084 391.3631 L262.2428 395.1174 L258.4262 399.7894 L253.8464 396.0351 M267.2588 93.6071 L273.3653 85.014 L296.5917 101.5328 L290.4852 110.126 L267.2588 93.6071 M271.2389 457.6884 L273.965 454.101 L283.4519 461.4427 L280.6713 465.0301 L271.2389 457.6884 M271.2934 409.8007 L274.5648 405.6293 L278.6539 408.883 L275.4371 413.0544 L271.2934 409.8007 M274.1286 174.6998 L290.3217 149.4209 L298.0093 154.4266 L281.8162 179.622 L274.1286 174.6998 M292.9932 382.2695 L296.21 378.0981 L300.3537 381.3518 L297.0824 385.5232 L292.9932 382.2695 M295.7739 428.2383 L301.008 421.3972 L296.3191 417.7264 L298.9907 414.139 L310.931 423.3161 L308.1504 426.9035 L304.5519 424.1504 L299.3178 430.9915 L295.7739 428.2383 M306.0785 197.6426 L322.2171 175.534 L328.269 179.9558 L312.6757 201.3969 L306.0785 197.6426 M311.3672 400.4568 L315.1837 395.618 L326.3608 404.5448 L322.5987 409.3002 L311.3672 400.4568" stroke-dasharray="" fill="none" fill-opacity="1.0" stroke="#ff0000" stroke-opacity="1.0" stroke-width="1.0px" stroke-linecap="butt" stroke-linejoin="miter" stroke-dashoffset="0.0px"/>
</g>
</svg>