<?xml version="1.0" standalone="no"?>
<!DOCTYPE svg PUBLIC "-//W3C//DTD SVG 1.1//EN" "http://www.w3.org/Graphics/SVG/1.1/DTD/svg11.dtd">
<svg width="512px" height="512px" version="1.1" xmlns="http://www.w3.org/2000/svg" xmlns:inkscape="http://www.inkscape.org/namespaces/inkscape">
<g id="layer" inkscape:groupmode="layer" inkscape:label="layer">
<path d="M51.5818 250.2325 L53.992 256.211 L53.0204 256.7537 L53.5958 258.7675 L52.6468 259.4204 L54.8501 260.8284 L60.342 269.1742 L64.1379 270.9754 L64.89 273.6143 L63.0501 277.5982 L65.7077 281.8455 L65.2837 283.3595 L63.9435 284.0084 L64.3978 284.6573 L67.8656 287.3314 L67.0756 292.479 L67.7722 293.3441 L74.3619 299.8285 L79.2481 302.1642 L77.2439 306.5261 L78.4657 309.2577 L83.6852 313.9384 L87.9859 315.4278 L91.4304 316.467 L91.7436 317.2616 L90.5604 317.5058 L86.2606 317.7948 L82.9182 317.4606 L79.1373 318.0162 L73.2618 318.0114 L71.8527 318.5175 L70.898 320.6611 L71.0597 321.6401 L72.1147 320.9473 L73.233 319.9239 L75.0504 319.6734 L77.0117 319.9412 L78.5225 319.7619 L80.6872 319.1768 L90.4665 318.4624 L92.6017 318.0173 L93.6892 316.868 L97.0343 317.1759 L98.0398 318.7357 L98.2655 319.9876 L98.2246 321.116 L96.4531 322.5082 L96.0904 322.8192 L97.4243 328.1137 L96.5944 330.3008 L99.2505 329.899 L103.0471 332.6696 L105.8584 332.6079 L106.084 333.6136 L103.5075 339.3524 L106.9962 335.8101 L108.3807 337.0002 L111.3892 340.3773 L110.7582 343.0938 L107.5984 347.607 L107.4747 350.6772 L113.5117 354.1484 L115.5484 358.1621 L119.6648 360.7801 L122.5069 362.1147 L123.8733 363.3285 L125.8109 364.2727 L127.4824 364.4119 L130.5852 365.5495 L134.7543 366.0243 L134.8442 366.2991 L135.0988 367.7134 L135.0723 368.8569 L134.8048 370.132 L134.3089 371.3443 L133.0311 372.4307 L132.7403 373.0942 L131.6647 373.5871 L129.3493 373.5742 L129.1277 373.2365 L128.8004 373.4342 L128.5538 373.9173 L128.0465 375.0647 L128.7597 375.3351 L126.9802 376.5536 L125.8717 377.098 L124.9434 377.3484 L124.1141 377.6314 L124.2332 378.9478 L124.7249 378.8931 L126.7717 378.2524 L126.9658 378.8047 L127.6904 378.6027 L128.7408 378.5964 L130.299 378.581 L130.6132 378.9796 L130.8878 380.2692 L131.8575 380.6501 L131.4156 381.7605 L126.3825 383.0171 L125.5754 383.2729 L123.4163 384.6698 L122.9375 384.6419 L122.6482 384.0968 L122.2364 384.4529 L121.4406 385.4602 L120.6958 385.6839 L121.0178 388.2898 L121.1037 390.218 L120.687 391.0658 L118.7502 393.8905 L116.7256 395.3812 L114.3501 396.6039 L110.4937 397.4906 L109.4915 398.3733 L109.6379 399.9037 L112.7879 402.7177 L117.3959 404.6249 L122.3565 411.2163 L124.8286 414.1433 L126.5721 415.2613 L129.9999 416.8297 L130.5718 416.9138 L131.7227 418.5038 L134.2039 419.577 L133.3728 417.4616 L135.6463 418.0366 L136.7926 418.3765 L138.5878 419.2968 L140.6859 419.7826 L142.2701 421.1552 L144.1814 422.1832 L145.3519 423.5228 L144.5771 424.4145 L144.9383 425.3352 L144.5784 426.6206 L144.3876 427.1129 L143.7296 427.9708 L142.4763 428.7146 L141.49 429.1795 L140.7946 429.3131 L140.0105 429.798 L139.4994 430.5482 L139.0688 430.5085 L136.9241 429.9261 L135.8979 429.7654 L135.9209 429.6196 L133.6918 428.8078 L133.4162 429.1064 L132.0526 428.6164 L131.0448 427.8906 L129.0883 425.9576 L128.5702 425.8276 L128.018 426.1286 L128.3191 427.0387 L128.238 427.2454 L129.0883 429.1449 L129.368 430.4216 L129.2347 430.9093 L129.6352 432.017 L129.6368 433.2509 L129.4881 434.2214 L129.7102 434.5877 L130.3492 434.8285 L130.9191 434.9232 L131.6326 434.8647 L133.5396 434.7543 L133.769 434.9782 L134.3043 435.5008 L137.2966 435.4867 L137.9457 436.205 L138.8419 439.4593 L139.0083 440.655 L138.9273 441.5961 L138.7516 442.8966 L138.4119 443.666 L137.6128 444.3269 L135.5529 445.3744 L132.1631 446.5445 L129.8705 447.6529 L129.0227 448.2396 L128.4261 448.8726 L127.6394 449.9212 L126.4216 451.496 L125.7778 452.0343 L124.4884 452.639 L123.287 453.0433 L122.6747 453.3879 L122.9958 453.9713 L122.4587 454.4141 L122.7553 454.9795 L121.7306 458.0386 L122.7646 458.6252 L122.8676 459.1352 L122.1074 459.145 L121.0774 458.7772 L120.6166 458.815 L120.3223 458.7898 L120.3887 459.2444 L120.7112 460.1359 L121.3495 460.6887 L122.0622 460.5739 L122.9281 460.1669 L124.2269 459.6471 L125.4 459.1611 L126.0115 458.91 L126.8744 459.0106 L127.285 459.1528 L127.1008 459.3371 L127.285 459.5131 L127.7527 459.2908 L128.8508 460.2243 L129.1221 460.3956 L130.1928 461.1919 L130.7212 461.6516 L131.1263 462.0877 L131.5587 462.3624 L132.0049 462.8185 L132.1694 463.2475 L132.4819 463.488 L132.5677 463.7143 L132.7701 464.0439 L133.182 464.61 L134.3899 466.4805 L135.0867 467.5719 L135.4504 468.4229 L135.8176 469.0374 L136.8458 469.2354 L142.9018 476.5312 L144.9411 479.839 L146.7456 485.9949 L144.8956 490.7049 L145.2086 495.2891 L148.4265 500.3356 L150.8317 501.4602 L151.7706 501.2795 L153.6882 503.7172 L154.6997 505.6816 L155.8148 507.4256 L156.7771 508.3432 L156.7377 509.1782 L158.2606 510.2011 L159.7676 511.2651 L161.2556 511.8248 L162.1062 512.0 L161.8646 511.1374 L161.7811 510.1995 L159.7918 507.3828 L158.4368 506.5359 L157.0509 506.3741 L156.7781 505.2629 L157.0683 504.7687 L157.6163 504.8893 L158.6763 505.2939 L160.2221 505.7056 L162.2046 505.5928 L163.4935 505.2405 L163.2843 504.2766 L164.2749 502.8782 L163.124 502.0219 L162.3934 503.4203 L162.9221 504.1442 L160.6537 503.9046 L158.8956 502.7289 L156.7834 500.5446 L156.4498 498.1685 L157.063 497.5596 L157.6763 496.9429 L157.2801 495.682 L155.1146 492.4255 L155.839 491.9423 L154.7361 491.467 L154.0521 489.9468 L156.2504 488.8154 L153.5701 488.6308 L156.1696 486.7491 L156.5532 484.6199 L156.8056 483.1861 L154.4938 479.729 L160.604 479.3794 L158.5773 477.1676 L154.466 476.5312 L153.4035 473.8598 L154.0647 470.8151 L164.4907 467.731 L166.4706 465.6174 L165.5754 463.7198 L165.1424 462.6633 L165.1499 462.0276 L165.2266 461.4457 L165.4793 459.952 L165.6249 457.7997 L165.5174 457.0524 L164.4682 454.4907 L163.9397 451.2123 L163.7941 450.6379 L162.5325 448.9095 L162.2379 448.506 L160.3592 446.5952 L159.2656 444.6915 L157.9459 442.2982 L157.6218 442.2287 L155.9354 442.8558 L154.0016 443.5159 L153.8295 443.2727 L154.2893 442.2 L154.4801 441.6499 L154.5142 441.2188 L154.0715 441.1772 L152.4197 442.1591 L151.3521 442.4884 L151.0909 443.3135 L150.4435 443.3689 L149.3419 442.9882 L147.8558 443.1929 L146.7741 443.3902 L145.6 443.4208 L145.382 443.7571 L144.671 443.888 L143.265 444.1992 L143.3263 443.4742 L143.1029 442.4302 L143.2208 441.2907 L142.5156 440.0903 L142.4031 439.6459 L142.576 439.2632 L142.5114 438.8306 L142.424 438.4278 L142.4397 438.0542 L142.5477 437.5221 L142.9813 436.8581 L143.4929 436.5048 L143.9999 436.3504 L144.2276 436.0128 L144.2372 435.5731 L144.2783 435.3771 L144.2177 434.9138 L144.326 434.7028 L144.5138 434.6788 L144.6268 434.7857 L145.2729 434.3102 L145.1735 433.9464 L146.8329 433.6462 L148.0194 433.0709 L149.1826 432.2477 L149.4315 431.8127 L147.7771 432.6504 L147.7862 432.6689 L146.9293 433.0795 L146.8536 433.1247 L145.0665 433.4878 L144.6872 433.2567 L144.2934 432.2638 L145.2671 431.6036 L146.7133 430.6 L147.2425 429.9214 L147.3753 428.7276 L148.2632 428.4333 L148.7579 426.8465 L148.0613 426.6862 L148.0227 425.9325 L148.9116 425.3992 L150.1291 425.5167 L150.3272 424.9088 L150.8271 424.0227 L150.3284 423.4384 L150.5281 422.1129 L153.4383 423.4309 L154.6099 423.9009 L153.5589 424.7398 L153.3732 426.219 L153.5269 426.7424 L153.7106 426.483 L155.1045 428.2509 L154.7287 428.6282 L154.1197 429.0765 L154.7764 430.0699 L155.2153 429.3748 L155.6903 428.8691 L156.0222 427.7067 L156.2022 426.0975 L156.0222 426.0162 L154.8721 425.8956 L155.0632 425.2189 L155.0086 424.9092 L155.737 424.2125 L155.7915 423.8313 L155.8541 423.3924 L155.7128 423.1566 L156.3014 422.9695 L156.8541 422.8713 L158.0948 423.2163 L158.2598 423.0973 L158.3828 422.2799 L157.6458 421.4778 L157.6266 421.0672 L158.4787 420.7143 L158.8317 420.7563 L158.7664 421.7466 L158.5461 423.2937 L158.169 425.672 L159.4107 426.1349 L160.5772 426.5117 L160.4518 428.0164 L162.8136 428.2792 L162.9388 427.3703 L164.7009 427.9138 L164.5018 429.6593 L164.9937 431.3698 L164.5159 432.7581 L162.909 432.6265 L162.9085 432.6335 L162.885 432.6312 L162.8219 433.4351 L162.8452 433.4375 L162.7992 434.0238 L162.7758 434.0222 L162.6652 435.4282 L163.4226 435.5912 L164.2729 436.0152 L165.0093 436.1956 L166.0656 437.9842 L165.8569 441.3371 L165.6961 443.8432 L165.2832 445.5009 L166.4441 446.1925 L168.7373 445.6432 L168.7613 444.978 L169.5876 444.9811 L170.7145 444.633 L171.0663 444.9618 L173.7653 444.6011 L175.9466 444.3725 L175.933 444.6644 L176.0095 444.6601 L175.6208 450.8131 L174.9091 451.6893 L174.4482 453.723 L174.4455 453.7874 L174.421 453.8432 L174.2201 454.7304 L174.1961 454.7371 L174.285 454.8432 L173.8678 455.1905 L173.9215 455.6777 L173.6762 455.7264 L173.5407 455.3119 L173.1454 455.5622 L173.0059 455.3936 L172.7802 455.5052 L172.5735 455.3237 L172.9213 453.9737 L172.752 453.5977 L172.1957 453.2095 L172.0567 452.9726 L171.2988 453.9407 L170.2097 453.6146 L169.185 453.5478 L169.344 457.2253 L171.4514 461.0992 L169.1749 461.8418 L169.6446 463.8333 L169.7196 463.9673 L171.5928 465.3699 L171.6112 465.4693 L172.0057 466.1356 L172.1609 466.7473 L172.2777 467.4156 L172.2452 468.034 L172.3676 468.5286 L170.4192 468.7486 L170.2642 468.8936 L169.6949 470.1107 L169.5848 470.0443 L168.8476 470.2733 L168.7126 470.346 L166.1842 472.7126 L165.2716 473.8586 L167.8305 476.0248 L172.7315 475.2529 L174.7761 475.7404 L176.4683 478.7324 L176.3325 479.7762 L175.6425 481.3319 L176.7391 480.2621 L179.7852 483.7007 L180.6382 487.5599 L180.1375 489.4416 L182.2224 489.4553 L183.2378 493.0736 L183.1898 493.9406 L182.94 494.2431 L181.8941 494.9439 L181.6359 495.5928 L182.2595 496.957 L180.5983 497.967 L179.7082 498.1531 L178.2928 500.0268 L177.8077 500.1262 L177.0304 499.1163 L176.0496 498.0349 L174.5722 498.1331 L173.2088 498.0408 L172.5839 497.7682 L172.2078 496.1871 L172.302 495.3626 L171.9355 494.6111 L171.912 494.0801 L172.7154 493.2673 L172.4055 493.023 L171.6067 493.7843 L170.9489 494.4843 L170.6014 494.9776 L170.8316 495.3489 L171.4048 494.9494 L171.4938 495.513 L171.215 495.8022 L170.791 496.2413 L170.2047 496.9649 L169.9631 498.0714 L169.7933 498.5338 L169.1093 498.0086 L168.9261 498.6697 L168.7007 499.6961 L169.0601 500.446 L169.4033 500.803 L169.901 500.8671 L171.2965 500.9103 L171.3828 501.7611 L171.8224 501.798 L172.0443 501.2673 L173.3961 500.8839 L174.4649 500.1561 L175.3634 500.4075 L175.1161 501.798 L173.7481 503.5774 L175.3583 504.4612 L178.9523 504.1705 L183.5204 500.8671 L185.8222 498.9855 L187.1219 493.7179 L185.5453 486.6607 L187.0773 485.3204 L180.3707 474.7634 L179.4545 472.1115 L178.7022 469.7021 L178.5159 469.2196 L178.7961 466.1022 L177.8865 465.151 L177.0407 462.5949 L176.4749 460.5213 L176.4128 460.5319 L176.3439 460.0416 L175.6688 457.5679 L175.3139 456.0321 L177.7383 449.603 L177.867 432.0626 L177.8292 431.1847 L177.7679 430.9431 L177.6909 430.444 L177.7976 430.4495 L177.756 429.4809 L176.9837 429.5163 L176.7767 429.8955 L176.6687 430.1607 L176.4345 430.9116 L176.0574 431.7639 L175.6085 432.3235 L175.4807 432.2681 L175.4492 432.3259 L174.0434 431.7207 L172.514 428.3295 L173.0574 424.6432 L173.0503 424.3237 L173.0768 424.0526 L173.226 423.4985 L173.474 421.7883 L173.4645 421.571 L173.1795 421.4594 L173.1477 421.5423 L172.7209 421.3395 L172.7257 421.2295 L172.4761 421.0204 L173.2863 410.4217 L173.6015 409.9819 L173.5859 409.113 L173.5856 409.1012 L173.683 409.0706 L174.4122 409.1582 L174.3852 408.1639 L174.4972 408.1686 L174.4775 408.0048 L174.6683 407.1386 L174.6769 406.7499 L174.8389 405.9906 L174.6989 405.9765 L174.738 405.7595 L174.7668 405.765 L174.85 405.7812 L174.8637 405.7081 L174.8897 405.5709 L174.7743 405.5485 L174.8263 405.2754 L174.9863 405.2541 L175.086 405.2408 L175.3238 404.1604 L175.8182 402.1576 L176.3209 400.4484 L177.0332 399.0076 L179.4545 396.2927 L180.6862 395.0322 L180.8179 394.7685 L181.5137 394.2721 L181.887 393.9734 L182.0811 393.8339 L182.9301 392.926 L184.1297 391.785 L186.8277 389.2967 L188.5118 388.0398 L190.489 386.624 L192.4412 385.2834 L194.9633 383.8841 L199.1861 382.8704 L203.8739 381.4496 L207.2546 380.7503 L207.9249 380.9013 L208.6074 379.9001 L210.7579 379.6462 L210.9149 379.208 L214.207 381.3202 L218.0723 385.8953 L219.7044 387.8248 L220.2024 387.8126 L221.9946 390.22 L222.9006 389.3329 L224.1388 392.8336 L225.7006 393.6401 L225.5449 393.8681 L229.9934 395.8053 L232.3882 396.7627 L232.1548 394.5126 L232.6368 390.6885 L233.0078 390.8056 L233.0457 392.2606 L233.9785 392.4701 L234.6307 394.9615 L235.22 397.217 L235.5345 397.6022 L235.778 397.5315 L235.5423 396.9498 L235.3931 395.4724 L234.8273 394.2855 L234.1378 391.2466 L234.2501 388.6655 L234.8187 386.5529 L234.7841 384.3074 L234.8823 383.7163 L235.6483 382.1457 L235.8143 381.3772 L235.8143 380.0566 L234.3076 378.4883 L235.8449 377.7446 L235.1135 376.646 L233.8087 375.4562 L231.889 374.4322 L231.0877 373.6815 L231.0269 372.9402 L230.3568 373.2519 L229.6521 373.9008 L228.7138 375.1421 L229.8185 375.7997 L230.7122 376.5116 L231.7676 377.1519 L230.4588 376.9176 L228.5109 376.4408 L228.3791 377.1409 L229.6092 377.2867 L231.1586 377.7088 L230.9989 378.2072 L232.1346 379.1352 L231.8042 382.8394 L229.2276 386.5014 L228.9402 387.3877 L229.211 388.8777 L228.9604 389.6465 L226.3505 387.9435 L225.5966 386.6162 L225.4106 385.746 L224.6966 385.6316 L224.9805 385.0534 L223.9152 384.1915 L222.6677 383.9069 L221.9676 383.278 L221.3386 382.365 L220.7198 382.0505 L219.9997 382.0101 L219.3718 381.7888 L219.2287 381.0463 L217.9403 380.61 L217.1185 379.3117 L216.4918 378.7831 L217.5019 377.5634 L217.433 377.1204 L216.3172 375.9943 L214.4677 373.1709 L214.5432 372.472 L215.0505 371.1328 L215.2839 370.9402 L215.6103 369.1124 L217.8605 366.9532 L220.214 365.2896 L222.6805 363.5137 L223.4261 362.457 L226.147 361.2184 L226.5256 360.0847 L228.921 360.1496 L228.8642 359.3296 L227.4026 359.0292 L224.7768 358.782 L224.5959 357.6003 L224.7998 357.1573 L226.6026 357.1801 L228.0551 357.4156 L229.5421 357.9899 L230.6332 358.5697 L231.411 359.6362 L231.5001 360.2003 L231.4481 360.8941 L233.0732 360.2176 L234.5201 359.9129 L235.5809 360.0996 L235.7154 357.9545 L237.8486 357.5842 L241.6083 351.857 L241.9955 348.9723 L244.4928 348.7863 L244.2697 351.6703 L250.3648 351.1867 L254.1104 351.6644 L255.4256 351.7131 L257.2445 351.112 L258.0915 351.8181 L258.5948 354.1909 L259.9549 354.4865 L261.1688 354.9425 L262.5012 355.6784 L265.5429 354.571 L269.8584 354.117 L273.1873 355.8545 L274.6183 357.8161 L273.2242 358.8472 L272.1811 361.676 L272.8971 363.8462 L274.5426 365.4422 L273.4776 368.0955 L271.7008 367.3054 L270.3859 367.4351 L272.2535 368.7205 L271.8043 370.2614 L271.143 372.1992 L269.3915 371.8612 L267.5037 377.6039 L266.988 379.8836 L266.7316 380.9476 L264.4894 380.2826 L263.307 381.6355 L262.5494 383.991 L261.7531 384.4548 L260.8728 384.0834 L259.8244 384.2387 L258.7273 384.9776 L257.8333 386.2978 L256.5527 386.8799 L255.894 387.8106 L254.8764 390.4236 L253.6935 391.0426 L250.6167 395.1847 L242.871 397.0162 L242.4283 396.5843 L239.0444 392.6858 L237.7726 390.5312 L238.0126 388.7193 L238.319 387.7218 L238.6643 387.3185 L239.0799 387.0662 L239.7821 386.773 L240.8931 386.637 L241.7194 386.5604 L242.6926 386.3029 L239.4247 386.5525 L238.6622 386.749 L237.7978 387.3461 L236.9725 388.2265 L236.1142 389.4893 L235.5599 389.7452 L234.4868 389.1006 L234.4522 391.3609 L235.086 394.0453 L235.6074 395.2555 L235.8595 396.8 L236.6505 397.5472 L237.2093 397.0752 L243.8704 400.5887 L246.7375 401.9879 L248.4055 401.7992 L248.5252 402.3801 L253.1329 400.8285 L253.5443 401.6734 L254.251 400.7931 L254.6656 399.8377 L254.8236 399.1896 L255.5041 398.8948 L255.8647 398.1717 L256.3205 396.6821 L254.6296 395.8843 L255.0788 394.9568 L255.8511 395.566 L256.6234 396.1712 L260.5808 392.2971 L261.6158 391.3212 L262.4461 390.6609 L263.0564 390.9141 L264.2156 389.9378 L265.2579 389.8501 L266.9595 388.5067 L268.362 387.8452 L269.607 386.6665 L270.5694 385.4834 L271.2831 383.8149 L272.5342 379.5582 L271.7841 378.5394 L271.7404 377.5225 L272.5814 376.7289 L273.9801 376.2651 L276.5791 375.4027 L278.1767 375.4872 L280.2339 376.2753 L280.5683 376.5548 L280.275 377.9785 L281.0102 378.2642 L282.0276 376.0136 L283.1673 374.5832 L284.3982 371.6725 L285.0042 368.0562 L284.9827 364.7519 L283.7723 363.8089 L283.7572 363.0325 L285.7889 360.1441 L290.171 356.7249 L291.392 355.3482 L291.6073 354.8034 L291.3304 354.2695 L289.4482 352.9605 L288.8697 351.2992 L287.363 350.0345 L285.8411 349.7699 L284.2486 348.837 L285.6321 347.9486 L288.3758 346.117 L291.7148 343.6403 L291.2658 342.354 L293.3629 342.8977 L292.4619 346.9504 L288.8859 348.8756 L288.6489 349.2699 L288.7746 349.6862 L289.1127 350.0247 L293.7415 352.859 L292.9894 355.3325 L292.3965 356.7984 L291.7474 356.1828 L289.7384 358.4207 L289.1519 359.6511 L287.3186 360.5466 L285.8737 363.108 L286.0829 364.8317 L285.9983 367.0342 L287.0609 367.9736 L287.874 369.1104 L288.7973 369.6643 L290.3921 369.3144 L291.6409 369.917 L291.2557 371.8238 L288.719 371.358 L287.5407 370.9292 L286.648 372.6206 L286.8845 373.7817 L286.6449 375.1983 L284.3755 379.2862 L281.9564 380.5951 L278.0212 381.3879 L276.6505 380.5369 L275.4714 380.6599 L271.9178 388.3106 L265.4061 393.0518 L264.0152 393.2168 L262.2561 394.9131 L260.5873 396.6696 L262.6907 397.9319 L262.3146 401.8031 L263.5236 406.59 L260.7372 404.9197 L259.4829 404.1243 L257.326 405.4534 L253.1657 409.113 L253.7031 410.2955 L254.7277 410.081 L255.1671 411.5633 L256.2271 412.1611 L257.3397 414.6522 L260.1742 416.5106 L261.2034 418.1831 L261.927 419.8627 L261.7412 421.6613 L262.3654 423.0485 L262.5478 424.1724 L263.2697 425.8012 L263.6975 425.4503 L264.6759 426.8854 L265.3397 426.542 L265.633 427.309 L266.1372 427.8576 L266.1789 428.5708 L266.2407 429.6004 L266.4921 430.3709 L266.2677 430.8602 L265.9878 431.2665 L266.1698 431.918 L266.0042 432.7294 L265.8589 433.7314 L265.6411 434.0379 L265.843 435.0097 L265.8773 435.7515 L266.5572 436.7956 L266.9335 437.675 L266.9204 438.1622 L265.9543 439.3308 L265.767 439.9025 L265.8329 440.3772 L266.9005 440.165 L268.0337 438.4204 L268.5806 437.8007 L270.7728 438.0125 L271.0269 435.7405 L273.2913 433.6819 L273.4735 433.0713 L273.1623 430.387 L273.8309 429.5371 L274.4361 428.2737 L275.6377 427.4642 L275.8028 427.1365 L275.5504 426.3832 L274.9553 424.9662 L274.2484 423.5547 L272.1912 421.692 L271.7233 420.3991 L272.2096 420.3956 L273.599 420.3862 L275.1095 420.1268 L275.7669 420.014 L276.8863 420.1264 L277.6581 420.2038 L278.4003 418.7254 L279.3306 417.9069 L280.5774 417.4601 L281.2475 415.5435 L281.759 414.9945 L282.8801 414.3976 L283.3968 413.0072 L283.955 411.5185 L284.2155 409.3225 L284.6064 407.5827 L284.5244 406.7696 L282.4422 403.2923 L282.9104 402.8112 L285.2477 402.9558 L294.6029 403.6593 L307.4951 404.3259 L307.3323 404.9747 L307.6486 408.5502 L307.4727 410.6964 L306.609 411.4187 L304.28 411.998 L302.3528 413.2748 L301.6921 414.9069 L301.3895 415.8807 L299.9158 416.8938 L299.7331 417.9395 L300.046 419.9515 L298.7992 421.8849 L303.0797 423.0442 L303.649 422.9357 L304.1715 423.1656 L304.6248 423.5071 L304.5816 423.8066 L304.488 426.6909 L305.1568 427.6497 L307.0951 430.0782 L308.1276 429.7788 L306.9916 427.1546 L306.9729 424.4919 L307.1044 423.6891 L308.8931 423.232 L310.2625 422.1129 L311.0197 421.7867 L312.9807 420.7689 L316.3154 419.3864 L323.4887 417.2852 L323.9018 412.8846 L324.555 410.312 L326.1501 407.4742 L329.3942 403.1406 L331.7166 400.9169 L334.2756 398.0204 L338.5704 394.19 L340.944 392.158 L343.7387 390.8614 L348.2957 388.7056 L352.8823 386.7215 L353.6369 382.8787 L354.1616 380.2959 L357.2412 379.864 L358.7454 379.864 L358.4628 374.8564 L367.8994 372.553 L371.7129 371.7197 L369.6131 369.2433 L369.1664 367.6985 L369.5139 362.9913 L371.2914 338.9069 L374.2791 304.4783 L375.5605 286.3553 L372.9789 281.7947 L372.4509 278.1126 L373.42 265.4698 L374.1656 257.8318 L374.2834 256.6527 L374.3263 256.2239 L374.6012 254.1602 L377.2426 245.3473 L379.7072 240.0521 L381.9095 233.0181 L385.7046 233.0889 L384.5966 230.9911 L384.0116 227.0916 L366.5693 221.4497 L362.8762 209.9271 L364.288 208.7929 L366.646 207.4734 L369.3867 206.4009 L369.6166 205.9327 L370.3998 205.5838 L370.8253 204.4771 L371.8724 203.9751 L372.7484 203.7528 L372.5703 203.5494 L368.7994 204.4771 L366.7992 201.4469 L369.5316 198.4336 L370.6807 197.7526 L372.1493 200.6357 L378.9712 198.3569 L385.7631 196.2052 L396.4379 192.722 L397.1529 191.4539 L398.7533 191.1557 L398.619 191.9556 L402.2084 206.8907 L404.5243 206.3049 L409.6517 204.3209 L417.1806 201.3234 L415.9553 195.9404 L426.0693 193.4704 L426.0842 193.119 L424.4414 187.9494 L424.5409 185.4829 L424.1986 184.6888 L421.2982 182.3796 L420.0419 180.6282 L419.1896 179.495 L418.7519 177.2668 L417.254 174.2039 L416.6433 171.856 L416.0863 170.1651 L416.6852 169.9334 L436.9642 161.804 L437.2284 155.7025 L440.1367 154.4101 L441.2111 153.5546 L447.403 151.4874 L447.1226 148.4552 L448.0852 148.1789 L454.1412 147.2088 L455.7527 147.8853 L457.4073 148.0144 L457.4073 145.6965 L460.4182 144.9094 L459.5235 118.2222 L456.9689 117.829 L445.1644 112.0882 L442.4535 109.6994 L436.5437 113.0294 L429.8119 115.4756 L425.4959 118.5714 L423.2875 118.7209 L421.4704 118.1108 L420.1292 118.2616 L419.9752 118.3297 L417.5251 120.0615 L412.9564 121.1908 L405.1487 123.7015 L404.2053 123.9691 L400.4614 125.1916 L397.7624 126.0894 L397.6047 125.8855 L397.403 125.1719 L397.5138 124.974 L398.1367 123.7845 L398.1789 123.7039 L398.1509 123.6854 L398.2397 123.5197 L398.2657 123.5346 L398.3227 123.4264 L398.7409 122.6337 L398.6392 122.5731 L398.8694 122.1271 L398.9484 122.1653 L399.094 121.8744 L399.2121 121.6387 L398.9151 121.4938 L398.0966 121.2746 L398.9587 118.9311 L398.9191 118.48 L398.8896 118.173 L398.9587 117.4854 L399.3628 117.0351 L400.1013 117.0772 L400.8044 117.1272 L401.152 117.2721 L402.105 115.0675 L402.9848 113.0321 L404.0801 110.4984 L404.4067 109.7427 L404.4652 109.1038 L404.1533 108.8515 L402.8159 107.9895 L400.5427 106.422 L397.4858 105.6867 L396.6315 105.4415 L392.2262 105.0778 L389.8911 104.8869 L382.1987 105.6293 L372.911 109.921 L372.9112 110.4055 L375.4969 119.0893 L366.7508 119.4955 L365.6542 119.59 L365.451 119.8813 L365.1532 120.3075 L353.3366 125.6757 L343.5373 125.2062 L326.0254 124.382 L323.4392 121.5627 L322.7404 120.7598 L320.7188 114.777 L318.8059 109.5884 L312.3699 109.053 L305.9947 108.5842 L303.5357 108.2449 L301.3781 107.6021 L301.3574 107.7332 L300.9397 109.8796 L300.7307 110.9432 L300.4059 112.5232 L298.744 111.5104 L297.923 111.9414 L294.3295 113.7819 L294.1677 113.4635 L294.1168 113.3868 L293.4686 112.2 L293.5936 112.128 L293.2894 111.6175 L295.8325 110.5224 L296.5225 110.2059 L296.4251 110.0024 L296.2961 110.0603 L296.1747 109.7659 L295.3711 108.5815 L296.2348 107.7824 L296.8241 107.9407 L296.9268 108.052 L297.4467 106.3047 L292.3226 102.5546 L290.8363 101.8319 L290.432 101.3438 L256.9692 100.1617 L254.8062 99.768 L254.786 99.5082 L254.1753 98.4257 L255.8241 98.3482 L251.9164 93.6138 L249.4279 89.5961 L248.2594 90.2181 L247.5502 88.8914 L247.6948 86.9377 L246.2916 85.028 L243.0106 81.316 L237.0596 79.1822 L236.3148 78.3968 L234.582 76.7721 L232.6187 73.956 L228.1194 72.5851 L224.5224 74.2812 L222.3562 75.7028 L217.2114 74.8497 L215.0063 74.5438 L209.3252 74.1902 L203.1256 71.7859 L198.8591 68.8391 L197.421 65.4449 L194.5923 52.9512 L194.4509 48.166 L195.0349 46.6662 L197.1555 44.3045 L199.3886 39.951 L199.6134 39.1155 L197.2519 37.6054 L198.7942 34.8584 L200.1323 32.1299 L200.755 30.3291 L199.699 29.7605 L199.8547 29.2714 L201.3824 28.932 L202.1951 24.0371 L202.7579 19.3922 L200.6497 18.0883 L197.5681 16.6501 L193.111 14.4439 L187.8945 11.9159 L184.661 10.3706 L180.6145 8.3967 L178.2474 7.021 L176.3717 5.3417 L174.7193 3.0551 L172.8613 0.0 L172.7542 0.4025 L172.9738 0.7712 L173.0521 0.9303 L172.6139 1.7266 L172.4632 2.0917 L170.9966 3.4879 L170.6862 3.5001 L169.732 2.2308 L168.8526 2.391 L167.8212 1.3304 L161.4699 4.7844 L161.2435 5.465 L161.4545 6.1105 L162.5986 6.0514 L163.892 5.7919 L164.6792 6.1282 L165.002 7.2794 L165.348 7.4511 L165.5782 7.7433 L165.7622 8.0257 L165.9916 8.4195 L166.1738 8.6196 L166.3906 8.9646 L166.6859 9.6187 L167.0741 10.1693 L167.4249 10.4296 L167.6962 10.6971 L167.9956 10.9838 L168.2288 11.3414 L168.6351 11.9896 L168.8191 12.3318 L168.9362 12.6729 L168.9655 13.0226 L169.2671 13.6728 L169.9692 14.512 L170.3026 14.918 L170.3927 15.0728 L170.427 15.2363 L170.4076 16.2373 L170.4785 16.5059 L170.6183 16.8328 L170.9018 17.1636 L171.2531 17.5956 L171.4204 17.8898 L171.486 18.195 L171.5244 18.4364 L171.4517 18.7223 L171.2435 19.0102 L170.8192 19.58 L170.6764 19.9088 L170.6307 20.1436 L170.7251 20.4665 L170.8442 20.8894 L171.2445 21.5361 L171.3359 21.7479 L171.3477 21.9468 L171.3253 22.0614 L171.2031 22.2496 L170.9956 22.4304 L170.7077 22.5241 L170.3195 22.4906 L169.7388 22.4032 L169.0334 22.2914 L168.0975 22.1799 L167.4194 21.8751 L166.7475 21.4384 L161.3306 17.9725 L161.9535 19.1094 L161.9333 20.3322 L163.23 21.4159 L163.6533 21.7696 L163.6177 22.2772 L161.5053 26.6279 L160.7019 28.4681 L161.3071 28.7764 L162.0756 29.9664 L171.0953 33.2581 L172.5985 35.2207 L174.7476 38.7709 L175.324 42.1057 L175.6342 44.825 L172.5334 46.5839 L166.0191 51.4298 L163.6901 51.5333 L161.2281 51.2128 L157.6771 52.2917 L155.3504 53.5568 L153.5085 53.4729 L150.5195 52.6126 L146.8738 55.877 L144.8631 55.3246 L143.2468 57.5665 L143.0133 58.0977 L142.8109 58.8997 L142.998 60.7541 L143.3715 63.635 L144.3288 65.0177 L144.5632 65.6878 L144.6384 66.078 L144.5698 66.6638 L144.2871 67.2965 L143.8785 67.5052 L143.0184 67.4615 L142.1032 67.4808 L142.2537 67.5698 L142.3965 67.6926 L142.4967 67.8934 L142.6413 68.2946 L142.7728 68.8076 L142.952 69.3544 L143.3455 70.0592 L144.4547 71.6517 L144.702 72.0418 L144.774 72.2674 L144.7944 72.4828 L144.7041 72.7214 L144.563 72.8312 L144.3555 72.9257 L144.038 72.9025 L143.5534 72.7788 L143.1262 72.7698 L142.688 72.9131 L142.3741 73.0674 L142.0237 73.2844 L141.7802 73.4564 L141.7416 73.6048 L141.7355 73.7777 L141.7779 74.0816 L141.8395 74.2875 L141.9051 74.4792 L142.0041 74.5481 L142.1128 74.4611 L142.2898 74.3127 L142.5732 74.0686 L143.2117 73.7733 L143.7281 73.6466 L144.3187 73.5895 L144.5718 73.6391 L144.7858 73.6966 L144.966 73.817 L145.072 73.984 L145.1296 74.2084 L145.1359 74.4005 L145.0624 74.608 L144.885 74.7548 L144.2773 74.8481 L143.3851 74.9733 L142.768 75.141 L142.2941 75.4154 L141.6315 75.917 L141.0122 76.326 L140.7283 76.5024 L140.1241 76.8355 L139.8442 76.9583 L139.8628 77.0642 L140.2636 77.9886 L140.6485 78.7622 L140.9976 79.5232 L141.3282 80.307 L141.8617 81.4176 L142.2108 82.1156 L142.6123 82.747 L143.5822 83.8832 L144.857 85.1787 L145.7353 86.0448 L147.0974 87.4203 L147.4412 87.8037 L147.8414 88.271 L148.1337 88.654 L148.3682 88.9808 L148.6001 89.3189 L148.7609 89.6571 L149.06 90.3862 L149.2414 90.9499 L149.3752 91.5341 L149.5834 92.3521 L149.7628 93.3972 L149.9665 94.1074 L150.0957 94.6188 L150.3332 95.6686 L150.4884 96.7909 L150.6424 97.4373 L151.024 98.0722 L151.6166 98.989 L152.105 99.6531 L152.4227 100.0003 L152.9315 100.342 L153.481 100.6608 L153.8782 100.8604 L154.5935 101.2009 L155.263 101.615 L156.214 102.1492 L156.5699 102.3405 L156.7302 102.4912 L156.823 102.6121 L156.8985 102.8361 L156.9467 103.0628 L156.9954 103.4088 L156.9891 103.7351 L156.9083 103.9666 L156.7019 104.089 L156.397 104.1539 L156.1254 104.1756 L155.9606 104.1709 L154.991 104.1972 L153.1503 104.2681 L149.466 104.363 L148.1483 104.4271 L146.7219 104.4519 L146.4024 104.4626 L141.6121 104.7633 L138.5557 100.9765 L123.3262 118.7965 L109.6225 134.8304 L121.3101 140.4733 L121.7104 139.9321 L124.0586 138.8821 L126.9739 137.2311 L129.3697 136.7592 L132.8612 136.3629 L136.2086 136.3456 L130.3608 146.5347 L129.4396 151.2296 L133.4727 158.6673 L134.2675 163.8306 L137.574 164.8848 L142.5686 169.0126 L150.0745 169.5753 L150.9503 170.5433 L143.4083 170.7821 L142.1636 170.1734 L136.2651 171.1131 L134.7735 171.2299 L133.6608 172.1145 L132.7572 172.5713 L131.759 172.7268 L130.3831 172.5233 L130.0984 172.4041 L129.6029 172.9884 L129.2751 173.3131 L128.8205 173.5267 L126.8396 173.7852 L126.5551 174.9767 L124.7274 176.1277 L123.5768 175.8565 L120.0295 177.5355 L119.0142 176.6286 L117.5304 177.2809 L116.1933 177.5029 L115.8637 177.6433 L115.4535 178.3394 L115.0977 178.6963 L112.591 179.8114 L111.1724 180.3662 L105.8127 181.6753 L104.7086 181.8401 L104.1182 182.5606 L103.2152 183.2425 L101.9333 183.9357 L98.7538 185.3467 L96.3789 186.3516 L98.1004 189.2396 L97.3064 189.9281 L94.6995 190.61 L89.4855 193.7438 L89.3704 195.0599 L85.0622 197.714 L84.114 197.594 L82.0967 195.8802 L81.1972 195.5005 L79.2516 195.6862 L75.6854 198.5713 L59.2171 211.4456 L58.9044 211.697 L53.0885 216.3797 L57.3942 242.3028 L54.4145 245.2297 L53.9017 247.3867 L51.5818 250.2325 M74.6592 250.3694 L74.7683 250.2864 L75.0772 250.1814 L75.6153 250.0519 L76.1211 249.9155 L76.7096 249.7971 L77.3413 249.6972 L77.5369 249.709 L77.6656 249.8309 L77.7048 250.3391 L77.682 250.4677 L77.3746 250.6301 L76.2745 250.8889 L75.53 251.0349 L75.3896 250.9932 L75.1378 250.852 L74.9709 250.675 L74.6592 250.3694 M127.1096 187.0091 L127.8668 186.2304 L129.3791 185.0709 L129.687 184.7805 L130.0575 184.3894 L130.379 184.0243 L130.8333 183.4687 L130.8883 183.2318 L130.9625 183.1071 L133.421 185.2499 L133.1406 185.4872 L131.6144 184.306 L131.3085 184.3115 L130.3523 185.0469 L131.0617 186.4586 L129.7874 187.1767 L129.4833 187.4954 L129.4109 187.9951 L128.1871 188.6238 L128.1368 188.4857 L127.1096 187.0091 M129.2817 428.0647 L129.7632 427.7381 L130.4058 428.7826 L131.0943 429.3654 L131.89 429.6734 L135.1397 431.7211 L135.9572 431.7184 L136.2638 432.0044 L136.523 432.0323 L136.8693 431.6614 L137.1391 431.6586 L138.4386 432.0044 L139.9156 432.3683 L139.7213 433.1876 L139.3041 433.2332 L139.2122 433.6025 L139.3788 434.2497 L138.7471 434.1778 L138.0964 434.1625 L138.1009 433.6517 L136.9503 433.6281 L135.4706 433.9468 L133.9028 434.0238 L133.5684 433.7876 L131.3757 434.0599 L131.1889 434.2151 L130.8421 434.2529 L130.482 433.9181 L130.5552 433.4092 L131.1892 433.1212 L131.1927 432.1608 L130.9128 430.5647 L130.6955 430.1823 L129.9414 428.8526 L129.2817 428.0647 M129.508 181.5206 L129.6108 181.1417 L130.8492 179.6595 L132.2762 178.0541 L132.5712 178.3323 L133.3607 178.9827 L133.8649 179.4384 L130.3952 182.3619 L129.508 181.5206 M129.8308 396.0093 L130.5554 393.999 L131.7146 392.8725 L133.1593 391.5952 L133.8188 390.8893 L134.1426 390.4228 L134.2844 390.5446 L134.4025 390.4298 L134.2387 390.2891 L134.3286 390.1441 L134.5989 390.1472 L134.6965 390.1437 L134.7094 390.1311 L135.382 390.1178 L138.5636 389.9578 L139.1168 389.9409 L142.1063 389.9228 L143.4363 389.8654 L144.0373 389.8517 L145.094 389.8045 L145.6374 389.7491 L147.0174 389.6725 L147.6335 390.0533 L152.8697 392.0169 L153.2076 392.0747 L157.2369 389.8045 L157.2334 390.0042 L157.3684 389.9268 L157.3816 389.7208 L158.4895 389.0743 L160.9457 387.6876 L161.2657 388.0213 L162.3454 389.8918 L162.6362 390.6287 L162.8997 391.131 L164.1025 392.8981 L165.3776 391.5425 L168.2989 392.9743 L168.8188 392.415 L169.0851 392.5349 L169.1144 392.4885 L170.3887 393.0223 L170.4343 393.1429 L170.4876 393.1669 L170.4618 393.2153 L170.4687 393.2333 L170.2642 394.0701 L169.9639 394.6097 L169.8011 395.0326 L168.3693 396.216 L167.4898 397.4253 L166.906 398.7761 L165.9671 399.9658 L165.5482 400.8957 L165.5684 401.0702 L165.603 401.203 L166.0567 402.1451 L166.2089 402.2807 L166.2877 402.7428 L166.0025 402.6768 L166.0575 402.8411 L166.3116 402.8768 L166.3475 403.0741 L166.0229 403.611 L165.9841 403.846 L165.9507 404.6666 L165.7806 405.0749 L165.6976 405.5764 L165.6915 405.8833 L165.5785 407.1673 L165.48 407.9651 L165.5212 408.4571 L164.9092 408.4488 L164.6338 407.758 L162.7682 405.1586 L155.0263 402.6371 L152.8662 402.3031 L151.5989 402.3765 L149.4209 402.9201 L149.2366 402.8576 L149.0448 402.9205 L148.9855 402.7723 L148.5817 402.6351 L148.534 402.1254 L147.1166 401.2069 L147.0845 401.2199 L148.2107 402.0688 L146.5311 401.6361 L146.1745 401.5823 L145.7843 401.7379 L145.0253 401.4832 L144.7306 401.3649 L144.4729 401.326 L143.6312 400.9963 L142.4871 400.4638 L140.3451 399.6109 L131.0668 400.9869 L131.0481 400.8599 L130.8916 400.8965 L130.585 400.777 L130.7021 398.8202 L130.4732 397.9929 L130.2132 397.2964 L130.0774 396.8012 L129.8412 396.411 L129.8308 396.0093 M131.5306 182.9167 L131.6026 182.6987 L134.7783 180.1596 L134.9959 180.0073 L136.2199 181.8999 L136.7328 182.653 L133.5002 184.9501 L131.989 183.7186 L131.832 183.545 L131.7964 183.3499 L131.8522 183.2669 L131.7835 183.1622 L131.6311 183.0449 L131.5306 182.9167 M132.9882 459.3359 L134.0954 459.1139 L134.1052 459.011 L136.4935 458.6063 L136.1667 457.7663 L135.8656 456.667 L136.6722 456.3896 L139.6009 454.9045 L149.1685 449.4662 L149.9383 448.9162 L149.9617 448.8946 L150.0114 448.8651 L149.8138 450.2356 L149.2036 451.718 L148.668 453.8853 L147.8682 455.1712 L147.766 455.5182 L147.6216 457.9459 L147.479 458.2146 L147.4207 458.7784 L146.4642 459.2393 L145.8774 459.5795 L145.6028 459.6542 L144.0436 460.4054 L142.6668 460.3441 L140.8933 460.1421 L139.9648 460.1861 L138.9656 460.3358 L138.5883 460.3716 L137.9611 460.6761 L137.4793 460.9283 L136.7035 461.2238 L136.1808 461.2556 L135.4779 460.933 L135.1973 460.7448 L134.881 460.6128 L134.3553 460.3472 L133.9843 460.2769 L133.9949 460.1653 L133.7403 460.0365 L132.9882 459.3359 M134.3321 177.0252 L134.4111 176.8316 L134.6776 176.6278 L134.9835 176.4247 L135.4971 176.178 L136.9009 175.9545 L137.4523 175.9659 L138.1078 176.1257 L138.6062 176.0643 L139.0136 175.9683 L139.4651 175.7806 L139.7861 175.7413 L140.2091 175.3623 L140.6856 175.0999 L140.9307 175.0405 L141.2669 174.9696 L141.7651 174.8225 L142.1133 174.7709 L142.5692 174.5998 L142.8872 174.6434 L143.1236 174.5824 L144.4057 174.5443 L144.9744 174.5706 L145.3052 174.4581 L145.5824 174.3385 L145.9872 174.2216 L146.2799 174.1803 L146.5455 174.1378 L146.7335 174.0095 L147.2594 173.8824 L147.8551 173.7034 L148.7503 173.4587 L149.0521 173.3032 L149.2803 173.2418 L149.624 173.3138 L149.9077 173.4264 L150.2545 173.483 L150.5768 173.3933 L150.7418 172.9932 L151.2052 172.8177 L151.5941 172.7335 L152.0527 172.6548 L152.4416 172.6575 L152.7821 172.7189 L153.0966 172.8405 L153.3275 172.7464 L153.4509 172.5245 L154.224 172.4088 L155.1848 172.2979 L156.4119 172.2054 L156.7024 172.2416 L156.8945 172.4356 L157.0249 172.7453 L156.9444 172.9538 L156.6794 173.1175 L156.2032 173.3009 L155.1159 173.6951 L153.2541 174.4546 L151.3405 175.1715 L146.6285 177.1539 L145.9705 177.4997 L145.3116 177.9247 L144.8295 178.3445 L144.4158 178.69 L143.7031 179.6764 L143.3803 180.1309 L143.0716 180.6011 L142.0195 182.6027 L141.6891 183.3629 L141.3542 183.6525 L140.9292 183.5128 L140.5597 183.1079 L140.0822 182.6412 L139.905 182.3524 L139.8273 182.1112 L139.8656 181.802 L140.0663 181.2495 L140.222 181.002 L140.7386 180.5488 L141.1548 180.2238 L140.9658 179.4097 L140.3623 178.5495 L140.2169 178.655 L140.1215 178.7384 L139.2824 179.3786 L138.9406 179.5686 L138.7826 179.3416 L138.6014 179.0988 L138.4439 178.9029 L138.341 178.6487 L138.1913 178.5483 L138.0623 178.5877 L136.9087 179.4848 L136.7462 179.2936 L136.3327 178.8883 L136.1495 178.692 L135.6046 178.0085 L135.0441 177.6579 L134.7609 177.4989 L134.432 177.2467 L134.3321 177.0252 M135.0958 179.896 L136.3383 179.1083 L137.0407 179.6131 L138.1603 178.847 L138.9853 179.7902 L139.8575 179.1653 L140.6354 180.2143 L139.5865 181.4164 L139.8813 182.548 L137.736 183.9389 L135.0958 179.896 M139.1062 301.6153 L139.3634 297.5997 L139.3603 290.7129 L151.7226 281.98 L152.0507 281.2878 L149.0473 275.3613 L155.5134 273.5089 L165.0096 265.069 L165.9671 264.2903 L166.1766 264.4672 L171.375 268.871 L187.5232 268.589 L192.8839 271.6173 L195.2134 278.1574 L194.9221 278.8158 L194.007 279.2704 L187.6822 285.3502 L185.2467 287.8159 L185.7338 288.5041 L191.8213 284.5008 L200.5589 286.7069 L204.0592 287.5559 L206.4689 288.6881 L203.7911 293.0838 L206.9207 292.1156 L210.4296 293.5848 L212.8222 304.3945 L215.0881 305.3127 L217.1884 306.4117 L209.1934 315.103 L201.8435 320.5825 L200.8539 321.4337 L193.3634 321.9114 L186.9024 322.7292 L186.1349 322.3978 L185.9332 319.0962 L186.0064 316.8169 L186.1268 312.793 L183.8054 312.8252 L181.7159 312.4631 L180.6998 311.729 L179.2981 308.4615 L178.9313 306.2296 L179.8869 305.247 L179.7958 304.5105 L177.7078 306.696 L176.2202 307.4749 L170.2168 308.0113 L168.5919 307.9727 L167.2985 308.2059 L166.0053 308.268 L164.5538 309.0147 L168.9276 312.1603 L172.6225 317.0753 L175.7899 325.3753 L170.0179 334.2646 L163.784 326.7671 L150.3375 311.2918 L139.5115 303.5283 L139.1062 301.6153 M140.8078 76.7827 L140.886 76.6292 L141.1505 76.4217 L141.546 76.1638 L142.0149 75.8386 L142.3352 75.5524 L142.821 75.232 L143.2963 75.0776 L144.3492 74.932 L144.6596 74.8796 L145.0357 74.7489 L145.1165 74.8599 L145.1069 75.154 L145.0458 75.3749 L144.8477 75.565 L144.3878 75.6847 L144.2008 75.6194 L143.5416 75.6131 L143.2382 75.6308 L142.9964 75.7079 L143.6274 75.6827 L144.2642 75.7619 L144.9118 75.7213 L145.3858 75.6505 L146.3203 75.5627 L147.1479 75.4875 L147.612 75.4792 L147.8003 75.4371 L148.2475 75.3686 L148.2576 75.2099 L147.8758 75.1639 L147.4634 74.8863 L147.181 74.595 L146.8016 74.2808 L146.5624 74.158 L146.4046 74.1694 L146.2126 74.2265 L146.0134 74.5233 L145.5453 74.68 L145.4519 74.6769 L145.3312 74.6898 L145.2139 74.6698 L145.1715 74.6544 L145.1662 74.5359 L145.1745 74.2828 L145.1286 74.0296 L145.1303 73.6903 L145.3078 73.5477 L145.916 73.4021 L146.2156 73.3812 L145.8557 72.9151 L145.4751 72.4052 L145.072 71.8131 L144.8608 71.5111 L144.6692 71.1741 L144.4613 70.8214 L144.2891 70.5926 L143.9575 70.2726 L143.6799 69.7584 L143.5875 69.5395 L143.4399 69.1603 L143.343 68.8595 L143.1832 68.3962 L142.9316 67.6709 L142.9389 67.591 L143.0237 67.6146 L143.5595 67.719 L144.1925 67.9276 L144.2321 68.2257 L144.2854 68.6438 L144.3179 68.9182 L143.9398 69.5096 L144.093 70.0383 L144.2967 70.3072 L144.5923 70.6166 L146.6845 72.0863 L147.2491 72.5371 L148.2056 73.2816 L148.5269 73.9214 L148.514 74.6497 L148.4348 75.1867 L148.3603 75.5611 L148.2437 75.9123 L148.1925 76.4201 L148.0817 76.6654 L147.693 76.8398 L147.2769 76.9217 L146.7549 76.7902 L145.6654 76.6804 L144.8603 76.415 L144.2811 76.406 L143.8803 76.4465 L143.5027 76.5729 L143.2435 76.7788 L143.1532 77.0174 L143.166 77.3768 L143.2604 77.735 L143.372 78.037 L143.6582 78.5354 L144.1995 79.5657 L144.5304 79.9787 L145.4698 81.1475 L146.0796 81.7136 L146.5197 82.1679 L147.2314 83.0694 L148.3879 84.6288 L149.0405 85.6393 L149.3038 86.1767 L149.5185 86.6105 L149.6258 86.9239 L149.4918 87.0483 L149.3583 86.9235 L149.1412 86.7298 L148.8916 86.5086 L148.591 86.1802 L148.2649 85.6767 L148.0441 85.3586 L147.795 84.9441 L147.5714 84.6548 L147.348 84.3938 L147.2034 84.404 L147.1383 84.5209 L147.4533 84.9473 L147.8768 85.533 L148.3823 86.1676 L148.59 86.4952 L148.749 86.7794 L148.9726 87.0687 L149.2722 87.3652 L149.4194 87.7155 L149.6775 87.825 L150.1106 88.0738 L150.2699 88.2651 L150.4481 88.4674 L150.6005 88.7564 L150.816 89.1363 L151.0265 89.6063 L151.1522 90.0067 L151.3266 90.5964 L151.3501 91.0794 L151.1918 91.4494 L150.8107 91.3687 L150.5849 91.0156 L150.4279 90.6448 L150.2494 90.2988 L149.8895 90.5728 L149.9186 90.8727 L150.1 91.2148 L150.3221 91.6904 L150.5942 92.1907 L150.8627 92.8135 L151.101 93.1292 L151.4001 93.6437 L151.5245 94.0369 L151.6249 94.2617 L151.8884 94.531 L152.028 94.8542 L152.1368 95.3104 L152.007 95.5474 L151.5351 95.7277 L151.2254 95.6682 L150.8786 95.4147 L150.6341 95.1533 L150.5526 94.8864 L150.4854 94.3487 L150.437 93.7909 L150.2489 93.6445 L150.1205 93.4732 L150.0268 93.1996 L150.0344 92.9552 L150.1659 92.632 L150.1813 92.3761 L149.858 91.5179 L149.7096 91.1534 L149.6359 90.7672 L149.6849 90.5633 L149.8618 90.3803 L150.1323 90.1551 L149.1869 88.5757 L148.1173 87.1971 L147.1338 85.8948 L146.1916 84.6835 L145.4054 83.7359 L144.9292 83.0824 L144.8838 82.8175 L145.0044 82.5171 L145.1218 82.2675 L145.2 81.9951 L145.0821 81.7227 L144.906 81.566 L144.8045 81.4054 L144.6859 81.029 L144.563 80.9684 L144.3512 81.0349 L144.1776 81.2388 L143.978 81.7329 L143.7362 81.836 L143.481 81.8482 L143.0709 81.2817 L142.9621 80.7755 L142.7367 79.3669 L142.5984 78.7791 L142.524 78.3642 L142.3907 78.3799 L142.5161 78.9267 L142.5712 79.3303 L142.6688 79.7846 L142.8127 80.3609 L143.0166 81.3758 L143.1663 81.5471 L143.4737 81.9459 L143.7377 82.3651 L143.9315 82.6447 L144.2051 82.984 L144.4777 83.3379 L144.931 83.8836 L145.0428 84.0391 L145.2275 84.3304 L145.1553 84.4981 L144.9358 84.5087 L143.8954 83.358 L143.109 82.5069 L142.7642 82.1207 L142.5214 81.7731 L142.2635 81.1991 L142.0354 80.7066 L141.8324 80.1172 L141.6379 79.7594 L141.4665 79.4121 L141.4304 79.1385 L141.4602 78.7763 L141.1926 78.1358 L140.8577 76.9933 L140.8078 76.7827 M147.5507 466.4236 L149.3477 465.7792 L150.0796 465.7596 L150.6136 466.044 L150.9473 467.7275 L150.3067 468.4712 L148.1478 469.1481 L147.5507 466.4236 M152.0976 105.9351 L152.2054 105.6698 L152.5741 105.497 L154.1049 105.2569 L155.4599 105.4887 L155.9296 105.4517 L156.2451 105.3384 L156.956 104.9491 L157.3851 104.3913 L157.43 104.3327 L157.4666 104.2736 L157.509 104.0 L157.5345 103.68 L157.4679 103.3257 L157.3699 103.1179 L157.133 102.516 L156.9598 102.2751 L156.5865 102.0055 L155.8405 101.6284 L154.6692 100.8616 L154.3741 100.6136 L153.7601 100.2369 L153.5849 100.0822 L153.4734 99.9428 L153.4302 99.7614 L153.4994 99.6086 L153.8999 99.1815 L154.2129 99.1044 L156.9278 99.7342 L157.5163 99.8802 L157.715 99.9294 L158.0708 100.1286 L158.3896 100.3065 L159.1583 100.9277 L159.7227 101.4418 L160.311 101.9716 L160.4203 102.1535 L160.8695 102.629 L161.6327 103.6265 L162.1107 104.4712 L162.4752 105.3179 L162.6508 105.9186 L162.6856 106.0375 L162.6258 106.7755 L162.4739 107.016 L162.2258 107.3089 L161.7279 107.6769 L158.7212 109.584 L158.4686 109.7442 L157.0704 110.8105 L156.3458 111.4636 L155.8001 111.9272 L155.3128 111.2034 L153.5516 108.5394 L152.0976 105.9351 M156.9462 414.7237 L157.1824 414.2007 L157.2198 413.8006 L157.1862 413.5463 L157.0444 413.2925 L158.3951 410.6614 L159.0685 409.5736 L160.1075 409.4455 L160.7148 409.2278 L161.105 409.2635 L161.2516 409.4306 L161.6963 409.3767 L163.0577 409.3708 L163.6197 409.3064 L163.5758 409.3689 L159.3219 415.3847 L159.2494 415.4869 L159.146 415.45 L158.9653 415.5172 L158.7785 415.3191 L157.9724 415.0318 L156.9462 414.7237 M165.843 5.6595 L166.2889 5.168 L166.5552 4.7234 L166.7478 4.6198 L166.9699 4.6537 L167.085 4.7317 L168.0099 5.4492 L168.7247 6.0175 L169.097 6.5031 L169.1436 6.6953 L169.177 6.9269 L169.3029 7.0789 L169.5091 7.1345 L169.7471 7.1471 L169.948 7.2313 L170.1322 7.4606 L170.2501 7.6894 L170.3934 7.9619 L170.4482 8.2096 L170.3468 8.4231 L170.0262 8.6873 L169.662 8.9772 L169.1727 9.3131 L168.9645 9.5707 L168.7532 9.677 L168.5326 9.7188 L168.2154 9.6794 L167.9287 9.655 L167.618 9.5297 L167.4708 9.2954 L167.3169 9.015 L167.192 8.607 L167.1026 8.251 L167.014 7.5728 L166.9842 7.2361 L166.9797 6.8773 L166.8134 6.3807 L166.5991 6.2034 L166.406 6.1085 L166.2102 6.0613 L165.9828 5.9238 L165.8455 5.773 L165.843 5.6595 M165.9116 433.1573 L166.3258 432.4457 L166.5724 432.443 L166.533 432.5058 L166.5494 432.516 L166.3523 432.832 L166.506 432.9263 L166.5224 432.9 L166.6688 432.9915 L166.8326 432.7286 L166.8969 432.7687 L167.0302 432.5534 L166.8482 432.4394 L168.7865 432.2681 L168.8115 433.1224 L165.9116 433.1573 M166.4452 432.2673 L166.8164 431.5753 L168.7719 431.3769 L168.7916 432.2115 L166.4452 432.2673 M168.3797 308.504 L168.542 308.3946 L168.9087 308.3199 L170.0517 308.1682 L171.4318 308.0054 L172.6091 307.9932 L173.0384 307.9558 L173.8824 307.8548 L174.1164 307.8957 L174.4427 308.0588 L175.0552 308.5024 L175.6857 308.8716 L176.7911 309.4811 L177.2994 309.9686 L178.1151 310.5506 L178.5596 310.6402 L178.8501 310.7515 L179.1855 311.0189 L179.4891 311.477 L179.8346 312.191 L179.9994 312.4281 L180.2293 312.6117 L180.8447 312.9448 L181.6609 313.4154 L182.2807 314.008 L182.5447 314.4983 L182.7454 314.9725 L183.0682 315.9547 L183.3546 317.0414 L183.4112 317.6241 L183.2665 317.9379 L182.7709 318.3763 L182.5682 318.6134 L182.1306 319.4308 L182.1066 319.7092 L182.2252 320.4063 L182.4905 321.2894 L182.5318 321.7651 L182.4019 322.7634 L182.5861 323.7031 L182.6136 324.0078 L182.4771 324.2956 L181.857 324.8303 L180.4613 325.9749 L178.7057 327.2055 L177.5478 327.9698 L177.0493 328.1734 L176.5594 328.3091 L176.1579 328.3889 L175.9631 328.3626 L175.8298 328.2155 L175.8482 327.9316 L175.9646 327.6529 L176.1647 327.2994 L176.4295 326.9487 L176.7386 326.6751 L176.9766 326.4038 L177.1283 325.9831 L177.098 325.5235 L176.9075 324.962 L176.3454 324.0644 L175.7215 323.1979 L175.0121 322.0364 L174.8561 321.5481 L174.7211 320.9289 L174.7276 320.2192 L174.7981 319.6919 L174.8405 318.6787 L174.8026 318.4774 L174.8907 318.2674 L175.0605 318.0614 L175.0608 317.9328 L174.8528 317.8231 L174.5775 317.7551 L174.344 317.3863 L174.0152 316.8032 L173.5389 316.2028 L172.437 315.0208 L172.2343 314.7558 L171.7652 314.0921 L171.4012 313.5377 L170.4603 311.8945 L169.9609 311.361 L169.7514 311.0696 L169.4192 310.5463 L169.0876 309.9105 L168.8287 309.3678 L168.3981 308.7186 L168.3797 308.504 M169.233 438.2718 L169.5333 436.8966 L169.3647 436.8443 L169.4374 436.5901 L169.3743 436.5901 L169.3218 436.3799 L169.4627 436.4054 L169.6747 435.5095 L170.3485 435.6431 L170.8177 436.2199 L170.6085 437.1363 L171.1006 437.2306 L170.8281 438.598 L169.233 438.2718 M171.3187 20.789 L171.3338 20.7142 L171.4767 20.4842 L171.8338 20.4771 L172.3911 20.5378 L173.4306 20.7614 L176.6291 21.4317 L177.9821 21.8082 L178.6873 21.9157 L178.5088 22.378 L178.3367 22.7899 L177.098 23.9808 L175.6854 25.8494 L175.5052 26.0793 L175.1996 26.6314 L175.027 27.5797 L174.8046 27.6726 L174.5823 27.7502 L174.3905 27.7274 L173.7108 27.5852 L173.6447 27.3773 L173.4781 26.7244 L173.6177 25.5501 L173.5884 24.9133 L173.4844 24.6266 L173.2749 24.3053 L173.0394 24.1883 L172.6647 24.0977 L172.2972 24.1391 L171.7954 24.3198 L171.4159 24.4746 L171.3333 24.4128 L171.3336 24.2348 L171.4103 24.0623 L171.5847 23.7977 L172.1733 22.7494 L172.1336 22.4741 L171.9774 21.9236 L171.5769 21.3183 L171.376 21.0406 L171.3187 20.789 M171.666 52.2621 L171.7253 51.8991 L172.1069 51.2321 L172.5016 50.6317 L172.7462 50.4068 L172.9448 50.3025 L173.1343 50.1706 L173.3092 50.0237 L173.5043 49.9056 L173.6391 49.5327 L173.9796 48.9279 L174.345 48.4964 L174.7438 48.2735 L175.0408 48.433 L175.5767 48.6582 L175.9209 49.037 L178.4816 50.8762 L178.4316 51.3148 L178.4965 54.421 L178.2774 55.0789 L177.9269 55.7629 L177.0985 55.468 L176.01 54.8896 L174.9825 54.4202 L174.5058 54.1316 L174.1282 54.0426 L173.0922 53.8595 L172.1586 52.8846 L171.9979 52.6429 L171.666 52.2621 M173.5702 20.0372 L173.862 19.0547 L174.3475 18.3328 L174.7751 17.7866 L174.899 17.6184 L174.9911 17.4751 L175.373 18.0394 L176.1826 19.133 L176.6505 19.506 L177.2431 19.7852 L178.3193 19.9695 L178.3519 20.1664 L178.4182 20.8 L178.4256 20.967 L178.365 21.0418 L178.0775 21.0367 L173.5702 20.0372 M174.7016 38.0306 L174.8929 37.9216 L175.7271 37.4238 L176.3373 37.149 L176.5274 37.0994 L176.6776 37.1139 L176.8661 37.2333 L176.9622 37.3553 L177.4968 38.3909 L178.2779 39.8936 L178.3877 40.1353 L178.2784 40.3212 L177.8655 40.6716 L177.0107 41.2068 L176.2485 41.6399 L175.8437 41.7687 L175.6329 41.7009 L175.5206 41.6076 L175.3927 41.1355 L175.3344 40.6075 L175.3442 40.1086 L175.2942 39.5652 L175.0714 38.9958 L174.7844 38.2834 L174.7016 38.0306 M175.274 35.1608 L175.2937 34.9375 L175.4277 34.8257 L175.6355 34.7836 L176.0244 34.9186 L176.7777 35.8172 L176.8396 35.9645 L176.8424 36.1846 L176.7611 36.2602 L176.4963 36.5071 L176.2619 36.4426 L175.7957 36.0933 L175.4219 35.5042 L175.274 35.1608 M176.0875 32.5595 L176.116 32.3374 L176.2374 32.1909 L176.377 32.1547 L177.174 32.4327 L177.4559 32.4752 L177.6341 32.4496 L177.7613 32.3165 L177.783 32.1705 L177.6863 31.9633 L176.5988 31.3675 L176.4295 31.1592 L176.4123 31.0671 L176.4062 30.9734 L176.4108 30.8548 L176.3969 29.9412 L176.4004 29.6502 L176.3159 28.8056 L176.2758 28.183 L176.246 27.8144 L176.406 27.2619 L176.7295 26.4523 L177.0743 25.8218 L177.3181 25.5154 L177.6694 25.2 L177.9584 25.0011 L178.2544 24.855 L178.5308 24.7026 L178.7615 24.4722 L179.1206 24.032 L179.504 23.5287 L179.6716 23.3613 L179.9391 23.2389 L180.1228 23.2263 L181.1117 23.8993 L182.2292 24.6199 L183.1027 25.0456 L183.7991 25.3622 L184.3664 25.6091 L185.3225 25.9104 L186.4564 26.2707 L187.0021 26.4168 L188.4111 26.7259 L190.3323 27.076 L192.5896 27.4359 L193.3245 27.7561 L193.7607 28.0325 L194.1864 28.2893 L194.5865 28.4889 L195.1589 28.6988 L197.9119 29.4931 L198.7987 29.7912 L199.3295 29.9783 L199.646 30.0972 L200.0243 30.2504 L200.1409 30.3657 L200.2197 30.5654 L200.1831 30.7568 L200.0801 30.9576 L199.2099 32.1464 L198.5034 33.2329 L198.142 33.8432 L197.9164 34.3804 L197.6643 34.932 L197.2996 35.6432 L196.9404 36.2315 L196.6782 36.4689 L196.413 36.417 L196.2148 36.3453 L195.2331 35.8361 L194.3944 35.4097 L193.7054 35.084 L192.9737 34.7903 L192.1939 34.528 L191.2522 34.2819 L190.2046 34.0189 L189.7899 33.9161 L188.7226 33.7369 L187.6335 33.6802 L186.4968 33.7369 L185.4524 33.9184 L184.2163 34.2784 L183.7223 34.4111 L183.13 34.463 L182.7335 34.3847 L182.4587 34.252 L182.0922 33.9948 L181.7815 33.7216 L181.3845 33.5672 L181.0448 33.4495 L180.5226 33.4038 L179.9868 33.3991 L179.4152 33.4932 L178.9175 33.7011 L178.3536 33.9862 L177.9612 34.0909 L177.5672 34.0819 L177.3138 34.0039 L176.9963 33.8621 L176.7361 33.6176 L176.4628 33.2813 L176.1508 32.7718 L176.0875 32.5595 M176.5806 13.9201 L176.6917 13.7248 L176.8676 13.535 L177.3428 13.1939 L179.6408 12.1589 L180.0295 12.0132 L180.3598 12.0483 L181.3721 12.5224 L182.0662 12.8147 L183.7115 13.4822 L185.5824 14.1903 L186.2093 14.332 L186.4665 14.334 L187.6969 14.2304 L189.903 13.9674 L190.992 13.8736 L191.5028 14.1501 L191.7524 14.2962 L191.9119 14.4128 L192.0985 14.5431 L192.259 14.6912 L192.3925 14.8259 L192.3925 14.931 L192.2289 15.0338 L191.9962 15.1677 L191.626 15.3257 L190.9953 15.6411 L189.6294 16.3409 L188.3453 16.9411 L188.0845 17.0147 L187.6325 17.0675 L187.3014 17.225 L186.5753 17.4093 L185.3341 17.5609 L183.9374 17.7708 L182.0839 17.8827 L180.7498 17.9335 L179.6198 17.9993 L179.2758 17.9433 L179.1295 17.5196 L178.8579 17.0884 L178.285 16.259 L177.6348 15.4273 L176.9971 14.6038 L176.7608 14.3769 L176.6092 14.1662 L176.5806 13.9201 M177.254 37.1084 L177.2926 37.0498 L177.3943 36.982 L177.5478 36.9773 L178.1187 36.9651 L178.7118 36.9848 L179.235 36.9178 L179.7496 36.7899 L180.1839 36.6253 L180.618 36.337 L180.7503 36.278 L180.8527 36.2854 L180.9436 36.3957 L180.9903 36.5965 L181.2068 37.0907 L181.3227 37.1525 L181.7389 37.0533 L183.6994 36.502 L184.0721 36.5245 L184.1524 36.5922 L184.2387 36.7032 L184.3026 36.871 L184.3538 37.1328 L184.3972 37.3738 L184.3801 37.6503 L184.323 37.8353 L184.1378 37.9857 L183.8541 38.1177 L181.9642 38.5225 L181.3204 38.7308 L180.749 39.0434 L179.1234 39.9121 L178.8753 39.9692 L178.7198 39.9152 L178.5576 39.79 L178.4326 39.5963 L178.231 39.2368 L178.0445 38.8442 L177.8935 38.5185 L177.3519 37.4845 L177.28 37.2592 L177.2595 37.1781 L177.254 37.1084 M177.548 10.8014 L177.5513 10.6399 L177.6338 10.4174 L177.78 10.2182 L177.967 10.18 L178.0316 10.2044 L178.1949 10.2662 L179.3357 10.6683 L180.7349 11.1996 L185.5009 13.4042 L185.7109 13.4074 L186.0483 12.9454 L186.6997 11.8277 L186.7479 11.8214 L187.0864 11.7785 L187.2865 11.8258 L187.5114 11.9081 L188.083 12.1755 L189.5749 12.9308 L190.6026 13.4255 L190.5932 13.5094 L190.0405 13.4857 L189.2263 13.5275 L186.9072 13.7047 L186.2394 13.67 L185.9378 13.6303 L185.5953 13.585 L185.3472 13.507 L185.034 13.4089 L183.8682 12.9092 L183.2395 12.665 L182.5884 12.3799 L180.8987 11.6997 L180.3121 11.4867 L178.8546 11.0346 L178.446 10.8786 L178.0296 10.7612 L177.8029 10.7479 L177.7855 10.7514 L177.548 10.8014 M179.1524 310.052 L179.2774 309.8479 L179.4124 309.8125 L179.4563 309.8011 L179.7884 309.9596 L179.8594 310.0217 L179.9924 310.2297 L180.0042 310.3107 L179.951 310.4425 L179.8518 310.4995 L179.6554 310.5372 L179.3334 310.4495 L179.1845 310.2749 L179.1524 310.052 M179.3889 18.6746 L179.4046 18.4301 L179.5012 18.1324 L179.6953 18.0938 L180.2889 18.1139 L181.2104 18.1028 L183.5482 17.967 L185.382 17.7437 L186.6222 17.4901 L187.0316 17.4204 L183.8988 18.714 L183.133 19.0815 L183.2592 19.3544 L182.4947 19.5946 L180.6493 20.2566 L180.1259 20.3452 L179.8414 20.2999 L179.5946 20.1499 L179.4654 19.7214 L179.4212 18.9952 L179.3889 18.6746 M179.7163 42.0199 L179.772 41.7958 L179.9124 41.7442 L179.8939 41.6509 L179.8248 41.5852 L179.9396 41.1249 L180.0401 40.5551 L180.0855 40.3708 L180.1635 40.2204 L180.2695 40.1023 L180.7298 39.9912 L180.8823 39.8967 L181.1301 39.7719 L181.3446 39.7242 L181.6533 39.4462 L182.8905 38.893 L183.4869 38.6863 L184.0166 38.7237 L184.5401 38.8158 L184.909 39.0233 L185.0486 39.3179 L185.1019 39.5715 L185.1433 40.0995 L185.0905 40.4893 L185.011 40.6283 L184.8719 40.7673 L184.3412 41.0197 L183.3776 41.3387 L182.4147 41.786 L181.5773 42.212 L180.8066 42.6314 L180.5143 42.7562 L180.2167 42.7456 L180.0345 42.6023 L179.8404 42.314 L179.8215 42.2416 L179.7163 42.0199 M180.4184 20.9123 L180.747 20.8437 L181.176 20.6008 L181.9567 20.2645 L182.8458 19.9266 L184.7811 19.3138 L186.3161 18.84 L187.1674 18.6183 L188.1196 18.4179 L188.9699 18.1714 L189.4512 18.004 L189.9767 17.7642 L190.2929 17.7 L190.5902 17.5755 L190.7156 17.47 L190.8012 17.3467 L191.4392 17.0907 L191.9559 16.867 L192.5495 16.4969 L192.9409 16.1928 L193.2213 15.9113 L193.3889 15.5568 L193.45 15.3075 L193.4661 15.2107 L193.9154 15.4403 L194.5892 15.584 L195.0009 15.7423 L195.3948 15.9499 L196.0033 16.3638 L196.7408 16.947 L197.21 17.3034 L197.3849 17.5251 L197.3283 17.6362 L197.0853 17.7303 L196.5104 18.1032 L195.9635 18.46 L195.1611 18.8782 L194.616 19.2291 L194.1574 19.6107 L193.7092 20.0156 L191.9432 21.3273 L190.8799 22.2276 L190.2745 22.8399 L189.5893 23.6547 L189.0194 24.3029 L188.8611 24.4187 L188.6196 24.4002 L188.0437 24.1198 L187.5311 23.7567 L187.3466 23.5653 L187.2088 23.3279 L187.1376 23.1306 L187.1924 22.7687 L187.4127 22.3178 L187.977 21.3844 L188.504 20.7051 L189.2483 20.2054 L190.353 19.5548 L191.18 19.1055 L191.8544 18.6605 L192.185 18.4553 L192.2443 18.247 L192.1833 18.1855 L191.7863 18.5096 L190.6808 19.1567 L190.0287 19.4335 L189.3773 19.5926 L188.0005 20.0644 L186.5869 20.5775 L183.8907 22.2642 L183.6815 22.3481 L183.4606 22.3016 L183.2802 22.2134 L182.0866 21.5817 L181.5889 21.4392 L180.8431 21.297 L180.6498 21.1793 L180.5585 21.095 L180.4749 21.0024 L180.4184 20.9123 M184.299 35.4932 L184.4315 35.3668 L184.9043 35.4199 L185.1309 35.5554 L185.3641 35.6708 L186.2318 35.5656 L186.7689 35.5444 L186.9695 35.5416 L187.0144 35.7279 L187.0336 35.9306 L187.0826 36.5052 L187.072 36.9517 L187.0313 37.1549 L186.9314 37.2529 L186.7053 37.3884 L185.4292 37.998 L185.3247 37.842 L184.5999 36.2701 L184.5173 36.0767 L184.4262 35.8712 L184.299 35.4932 M186.7661 353.5399 L186.8067 347.0554 L192.1848 346.6957 L192.2731 346.6918 L194.2089 347.1203 L193.4593 349.9704 L193.8303 353.0682 L192.5406 353.1468 L192.846 355.2617 L191.2409 355.4032 L189.6332 355.5526 L189.2849 353.5399 L186.7661 353.5399 M190.1114 24.4376 L190.1687 24.2734 L190.2805 24.1281 L190.7527 23.6228 L192.5136 22.0543 L192.867 21.7192 L193.7097 20.9288 L194.3919 20.3373 L195.387 19.5288 L196.8458 18.1414 L197.0591 17.9874 L197.3109 17.8543 L197.5984 17.7697 L198.1006 17.8138 L200.2626 18.5569 L200.9533 18.7975 L201.7536 19.1197 L202.2145 19.4004 L202.5547 19.7261 L202.4578 21.2395 L201.8377 25.1819 L201.5273 26.9886 L201.2214 28.511 L201.0765 28.7252 L200.9188 28.891 L200.2603 28.9198 L199.6793 28.8981 L198.83 28.8969 L198.1193 28.689 L196.9107 28.1877 L194.6584 27.1949 L192.3506 25.8375 L191.6825 25.476 L190.1846 24.6876 L190.1296 24.549 L190.1114 24.4376 M190.3573 35.9645 L190.3785 35.1246 L190.4335 34.9293 L190.5079 34.8352 L190.6944 34.7978 L191.4751 34.9458 L191.7133 35.0336 L191.7754 35.6393 L191.7232 35.7641 L191.6467 35.8027 L191.5604 35.8058 L191.2759 35.8153 L191.234 35.655 L191.1232 35.4124 L190.915 35.392 L190.7644 35.4487 L190.7497 35.7566 L190.7702 35.9133 L190.3573 35.9645 M201.8203 321.1557 L201.8677 321.0558 L202.1802 320.8192 L202.9181 320.4331 L203.4444 319.9648 L203.6932 319.8759 L203.9431 319.8916 L204.0816 319.999 L204.806 321.1931 L204.9213 321.4305 L205.0006 321.6869 L204.9867 321.8571 L204.9635 321.9 L204.9142 321.9672 L204.2866 322.2228 L203.534 322.4917 L203.5072 322.4949 L202.6509 322.601 L202.3303 322.5865 L202.0727 322.5861 L201.9185 322.4253 L201.87 322.1552 L201.8261 321.8277 L201.8256 321.5226 L201.8203 321.1557 M202.9749 236.9671 L203.0736 236.8856 L203.5663 237.2412 L204.3812 236.9887 L204.989 237.2353 L205.1492 237.8977 L205.1757 238.7246 L205.099 239.6135 L205.2845 240.1878 L205.5346 240.0647 L205.5119 238.4858 L205.6618 238.594 L206.0989 239.1124 L206.4919 239.1584 L206.6559 239.5856 L206.6777 240.4997 L206.8399 241.7895 L206.8836 242.0916 L207.087 243.7637 L206.9146 245.3658 L206.9863 245.9172 L207.3364 246.6898 L207.7821 247.4532 L208.0118 248.2261 L208.8572 249.329 L209.2699 249.6161 L209.6419 249.7912 L209.6555 250.3985 L208.8348 251.4133 L207.3672 252.8442 L207.1355 253.0699 L206.3041 251.6245 L205.5752 249.5233 L204.4254 246.8542 L204.2391 246.272 L204.1773 245.953 L204.2341 245.0904 L204.2989 244.4481 L204.489 243.962 L204.7103 242.8736 L204.676 241.716 L204.6149 240.9021 L204.5748 240.3503 L204.2762 239.4283 L203.6927 238.4453 L203.8224 238.1416 L203.8585 238.0098 L203.7843 237.8781 L203.6728 237.8151 L203.3384 237.7372 L203.0022 237.3191 L202.9749 236.9671 M205.7398 255.691 L207.8931 254.3549 L208.5142 254.1063 L209.1217 254.41 L209.5503 256.0355 L209.4019 256.681 L207.5395 258.0485 L207.2458 257.8401 L205.7398 255.691 M208.121 248.2005 L208.6791 246.6138 L210.9616 246.759 L210.4604 248.221 L209.9783 248.3646 L209.3524 249.2983 L209.0241 249.0419 L208.121 248.2005 M208.3674 252.0481 L209.0753 251.3507 L209.7628 250.4476 L210.6908 252.1307 L211.0366 255.243 L210.5939 255.8755 L209.7423 254.0284 L209.4652 253.0743 L208.7674 252.5307 L208.5213 252.2841 L208.3674 252.0481 M208.9213 258.2353 L209.4344 257.5789 L209.8282 257.6529 L209.9677 258.0564 L210.5414 258.6224 L212.3038 259.7551 L215.7428 261.9655 L217.3081 262.6301 L217.8482 263.2016 L218.7921 264.1251 L218.4842 264.5353 L217.5814 264.6073 L216.2884 263.6221 L214.493 262.555 L210.5119 261.0569 L209.5677 260.6263 L209.1369 259.6615 L209.2908 259.446 L208.9213 258.2353 M218.6172 265.0741 L218.6528 264.4106 L220.1928 265.8269 L221.357 267.0343 L221.8924 267.6868 L221.9936 268.1752 L222.0615 268.5256 L221.9761 268.8572 L221.856 269.1069 L221.7084 269.4479 L221.7172 269.8707 L221.7798 270.5401 L222.0085 272.9882 L221.8459 273.3489 L221.6662 273.5577 L221.5118 273.6501 L221.3707 273.6887 L221.0562 273.7453 L220.3377 273.7984 L220.139 273.6902 L220.1072 273.6733 L219.9578 273.3662 L219.8978 273.2718 L219.7433 272.8651 L219.5 272.0479 L219.2358 271.5382 L218.9859 271.13 L218.7217 270.5589 L218.6366 270.3753 L218.6242 270.096 L218.6391 269.6493 L218.7401 269.0082 L218.8385 268.3451 L219.1522 268.0734 L219.7042 267.8964 L220.0883 267.5338 L220.1133 267.5106 L220.1393 267.4858 L220.1257 266.6811 L219.6731 266.0605 L219.1038 265.4702 L218.6172 265.0741 M221.8767 275.2496 L222.282 273.6124 L222.5067 273.2494 L223.1321 273.4578 L224.6211 272.9367 L225.5206 271.0234 L227.5841 268.7081 L229.1176 268.3361 L229.746 267.7485 L230.2493 267.7107 L231.1791 267.8409 L232.0064 268.2763 L233.5994 270.1523 L234.3291 271.165 L234.7162 271.3734 L234.7311 272.1329 L234.4674 273.0177 L234.3043 273.7492 L232.867 275.7078 L232.2565 277.05 L232.0405 278.1869 L232.309 278.6872 L232.8776 279.1347 L236.1099 279.6821 L237.5207 279.377 L238.3104 279.2401 L240.2687 279.377 L242.5429 279.8611 L245.6066 281.1352 L251.134 282.3142 L251.5974 282.3249 L252.187 281.9143 L252.4187 281.851 L252.6082 282.409 L254.0084 283.0933 L257.2407 285.6833 L257.6513 285.7887 L259.5149 284.8307 L260.1992 284.778 L260.2729 284.9361 L259.7704 285.8622 L258.9663 286.7742 L258.6089 290.7794 L258.646 291.8144 L259.0407 292.1939 L263.8055 293.4149 L264.3413 293.2065 L264.8773 293.0354 L265.0934 293.2363 L265.339 293.9957 L269.2625 295.3284 L269.925 296.0727 L271.4214 297.0928 L272.5978 299.423 L273.2752 299.9665 L273.9972 299.974 L275.2332 299.8399 L276.7593 300.4726 L278.8289 300.6515 L280.4817 300.6291 L281.6803 301.2248 L283.2587 302.1925 L284.3306 303.8452 L284.9113 305.9001 L284.8518 307.7537 L285.1496 309.0564 L285.038 310.4189 L284.7778 311.359 L285.0135 311.5768 L285.7765 310.4377 L287.3511 308.7183 L289.3091 307.7203 L290.1442 307.4026 L290.9741 306.6512 L291.7474 305.7362 L292.895 305.2175 L294.2571 304.1271 L296.1108 302.1693 L297.4586 300.7175 L299.5801 296.9953 L300.6671 296.035 L302.2604 293.8089 L302.8038 293.2879 L303.2876 292.1486 L303.3919 290.5776 L302.9378 289.193 L302.9305 288.2028 L302.475 286.2621 L301.841 285.6943 L301.1388 284.3442 L300.3534 283.6187 L300.5137 283.0658 L300.4264 282.2301 L300.7885 281.8581 L301.1734 281.9717 L300.9995 282.6646 L302.6698 284.2424 L303.9759 286.3483 L305.5434 289.543 L306.0944 290.7043 L306.4444 291.0169 L306.7279 291.2528 L306.8195 291.8022 L306.6529 294.114 L301.1436 298.983 L300.6151 300.39 L300.3395 303.2337 L299.863 304.3434 L295.2411 308.1104 L293.2372 311.3563 L290.7507 313.9246 L290.4827 314.7212 L290.7507 315.9794 L292.0757 316.8504 L292.2325 317.3646 L291.7118 317.5608 L290.8792 317.6937 L289.2765 317.2302 L288.1078 321.079 L288.212 322.3522 L289.9542 323.8112 L291.2444 325.4633 L291.4309 326.241 L291.2106 326.4958 L289.5607 327.1174 L289.5082 326.9778 L289.1511 327.1123 L289.2079 327.2625 L286.6116 328.2446 L284.8863 326.7785 L282.8226 325.5679 L280.2591 323.7515 L279.7115 323.5883 L279.2168 323.1145 L278.927 321.3248 L277.7426 320.3245 L276.674 320.1244 L276.095 318.3873 L275.0159 317.1661 L274.5775 313.9038 L275.2998 311.1341 L277.63 308.7517 L277.7863 308.2531 L276.9971 306.3696 L273.863 305.8781 L271.086 304.5754 L270.1181 304.4413 L269.1651 305.1338 L268.4635 304.7838 L266.8598 303.6513 L264.9367 301.806 L263.8496 299.4832 L258.8095 298.3142 L254.6692 293.4845 L253.6354 292.6933 L251.8188 292.6634 L251.8962 292.4164 L252.4924 292.0381 L253.613 291.5246 L253.9779 290.7503 L251.9008 287.6979 L248.3561 285.9939 L241.8705 284.336 L236.0165 282.3355 L234.3424 282.3355 L233.9003 282.4932 L231.0049 280.4085 L230.0946 279.189 L229.689 277.608 L230.1652 275.8568 L231.1523 274.0812 L231.3209 273.3123 L231.226 272.9017 L230.805 272.4703 L229.6572 271.8804 L228.4675 272.2174 L227.0357 273.6073 L225.6458 274.9759 L223.256 275.4918 L221.8767 275.2496 M263.5208 126.5216 L268.8458 126.0237 L269.315 131.0434 L263.99 131.5409 L263.5208 126.5216 M269.5129 126.6325 L270.3076 126.5357 L270.7667 130.2972 L269.972 130.3944 L269.5129 126.6325 M273.9427 215.7751 L274.9987 215.3085 L277.2883 215.1751 L280.7225 215.253 L282.3007 215.6197 L282.7343 220.3986 L285.4961 219.5729 L286.6629 218.7062 L287.341 216.0776 L287.0788 215.6806 L286.2108 215.2562 L285.9148 214.9906 L285.8328 214.7994 L285.1571 214.6326 L283.3286 214.4162 L282.6396 214.6267 L282.3943 214.6956 L281.9877 214.7569 L281.5872 214.7853 L281.2823 214.6708 L280.9618 214.452 L280.745 214.1424 L280.6407 213.9446 L280.7134 213.8588 L280.4449 213.5189 L279.3336 212.2517 L279.0447 210.6734 L279.3336 207.7173 L278.7557 204.7387 L277.2442 201.7156 L277.9776 201.4489 L278.9334 203.3605 L279.9782 206.6059 L280.1115 209.3842 L280.4063 211.0967 L285.7795 210.2257 L289.3631 206.8305 L289.3003 200.6691 L294.33 194.5708 L296.2789 190.547 L295.3373 186.0388 L295.5218 184.0404 L293.0772 180.9655 L292.7236 178.0903 L290.5251 176.6915 L286.3855 174.1201 L290.202 168.6455 L285.9161 166.0204 L278.948 162.2581 L280.5476 160.2909 L277.4044 157.569 L279.0288 154.5766 L282.6616 156.4506 L282.9826 157.469 L287.5808 159.585 L291.2699 161.1079 L293.8747 162.4395 L293.7453 162.6823 L294.0898 162.8968 L294.3278 163.0266 L295.885 164.492 L297.1774 165.6348 L296.602 169.4069 L297.7417 170.1167 L296.7804 171.7304 L298.5822 172.4926 L297.8541 175.2864 L297.6877 175.925 L299.9647 176.5695 L300.1621 173.1513 L300.5947 167.9281 L300.1868 165.4884 L295.4403 160.4743 L295.6916 160.0186 L300.7613 165.0949 L301.2504 166.5619 L300.6462 177.3293 L313.0536 181.3215 L316.0989 182.7664 L317.0991 184.6778 L314.7893 186.9253 L310.2282 191.1856 L304.5624 198.1928 L301.7282 196.2252 L301.2171 197.0145 L301.2948 199.0041 L303.0509 200.771 L302.6839 201.9049 L300.1278 205.6503 L296.9379 210.5849 L294.0484 214.6637 L291.9478 213.9524 L293.3927 216.8199 L295.9599 222.777 L297.2827 226.1782 L299.8055 231.7129 L300.6169 233.3021 L300.6512 233.5228 L299.8499 233.4689 L298.0827 230.5458 L295.9155 224.6664 L295.0152 224.6999 L294.5708 225.2443 L292.9369 224.9776 L292.6257 223.4997 L293.3371 222.9104 L294.3707 221.9549 L290.6475 213.4969 L287.7355 214.2636 L288.2246 214.9418 L288.3246 216.5422 L288.5025 218.576 L289.3916 220.1319 L289.936 221.7326 L290.3474 224.5445 L290.4474 226.5783 L289.6581 227.8453 L287.8801 229.6124 L287.4132 230.8015 L286.5907 230.9793 L286.7131 229.2343 L286.046 227.5228 L281.4004 221.866 L279.9 222.5548 L284.1678 228.1899 L282.4117 229.2123 L278.233 223.4218 L275.9767 224.2774 L274.5876 221.9104 L275.51 219.3872 L275.61 217.4867 L274.6542 217.4647 L273.9427 215.7751 M295.8744 148.8491 L296.1209 148.3639 L296.4013 147.8204 L298.5592 148.9318 L298.0322 149.9605 L295.8744 148.8491 M296.7098 250.1023 L297.0694 249.5501 L297.1986 249.2248 L297.4462 248.8861 L297.6999 248.5125 L297.8031 248.3126 L298.028 248.2049 L298.1842 248.3909 L298.1897 248.8271 L297.7004 249.7031 L297.4502 250.0217 L297.1083 250.3859 L296.9117 250.3041 L296.7875 250.1758 L296.7098 250.1023 M301.4409 154.2374 L302.7808 151.4504 L315.5898 155.0055 L314.786 158.3639 L301.4409 154.2374 M301.9992 234.4374 L302.1895 234.284 L302.6047 234.2261 L302.8427 234.068 L303.1279 233.878 L303.0857 233.4174 L303.0345 232.4281 L303.2225 232.6173 L303.3515 232.7349 L303.6869 233.4158 L304.1001 233.7828 L305.5359 234.5538 L307.4628 235.3783 L309.7209 235.9746 L310.6105 235.8515 L311.8755 235.938 L313.3532 236.0175 L314.9281 236.0419 L315.0795 236.2633 L314.8667 236.4746 L314.3658 236.7865 L313.8052 237.1067 L313.6008 237.3498 L312.4408 238.6774 L311.1812 239.3606 L310.8135 239.1923 L309.939 238.7902 L309.9046 237.9253 L309.4349 237.587 L308.4471 237.1724 L306.8995 236.6866 L305.8814 236.3609 L304.673 235.5734 L303.7924 235.0164 L302.5232 234.5558 L302.3104 234.5011 L301.9992 234.4374 M302.4646 246.9576 L302.7498 246.5796 L303.5486 245.9019 L303.8083 245.4189 L303.9721 245.2651 L304.1599 245.2065 L304.2527 245.2403 L304.411 245.2918 L304.435 245.3866 L304.4279 245.8893 L304.4627 246.2992 L304.3633 246.6835 L304.1402 247.1181 L303.2624 247.7742 L302.9966 247.8981 L302.7972 247.8713 L302.555 247.5338 L302.4646 246.9576 M305.7062 113.3911 L305.9664 111.3455 L308.3361 111.647 L308.0759 113.6926 L305.7062 113.3911 M307.0835 290.3578 L307.6405 290.2442 L307.931 290.1396 L308.3333 290.1769 L308.4915 290.322 L308.6167 290.6288 L308.5142 290.893 L308.2815 291.0826 L307.8028 291.2965 L307.4593 291.3527 L307.3927 291.2694 L307.2983 290.95 L307.0835 290.3578 M309.8774 114.5963 L314.4183 114.422 L314.2923 115.3127 L315.7349 115.8063 L315.1638 116.9103 L315.1928 117.8011 L315.7834 118.2077 L317.4971 118.2655 L317.8262 118.9823 L318.8428 119.6404 L319.8304 124.0266 L318.1167 124.6752 L317.6326 123.6488 L316.829 122.39 L314.6313 121.151 L312.54 120.4634 L313.3338 118.9339 L313.3338 118.7304 L309.8872 118.6528 L309.8774 114.5963 M312.01 152.5822 L312.1092 152.4893 L312.2917 152.3205 L312.6412 152.071 L313.0158 151.9947 L313.3136 152.1505 L313.5531 152.5133 L313.8464 152.8683 L314.078 153.1772 L314.3602 153.1473 L314.7178 153.1839 L315.3056 153.4413 L315.8054 153.6231 L316.2602 153.6923 L315.9023 154.4578 L315.7943 154.6785 L315.719 154.7073 L315.5618 154.6852 L314.792 154.3881 L314.527 154.3822 L314.2598 154.1339 L313.9112 153.9304 L313.3128 153.8293 L312.9797 153.6565 L312.879 153.3397 L313.0127 153.0442 L313.0261 152.7554 L312.912 152.6503 L312.6702 152.8069 L312.4716 152.9568 L312.1445 152.8278 L312.01 152.5822 M315.5459 158.3379 L316.1327 157.822 L316.6405 157.338 L316.7907 157.1857 L317.2298 157.0224 L317.5074 156.9602 L317.6162 156.9991 L317.7962 157.0511 L317.7626 157.4316 L317.3903 158.1376 L316.6296 158.977 L316.46 159.1009 L315.9444 158.6767 L315.5459 158.3379 M316.1203 154.8202 L316.4896 154.2476 L316.931 153.4106 L317.5741 152.5995 L318.0872 152.3374 L318.9599 152.3547 L319.3519 152.5523 L319.5222 153.1241 L319.6582 153.4578 L319.8003 153.6026 L319.76 154.5475 L319.526 155.8296 L319.2754 156.2302 L317.9988 156.0783 L317.3262 156.0043 L316.6675 155.7131 L316.5421 155.3778 L316.2271 155.1027 L316.1345 154.9949 L316.1203 154.8202 M317.2598 169.2825 L317.4802 169.0236 L317.7851 168.8213 L318.2025 168.8568 L318.3176 168.9209 L318.4794 169.4191 L318.7625 169.8334 L318.9067 170.1069 L319.1313 170.2891 L319.5273 170.4614 L319.6845 170.7329 L319.523 171.0088 L319.2554 171.1925 L318.9493 171.2882 L318.5513 171.1032 L318.1876 171.167 L318.0367 170.7475 L317.4259 169.885 L317.2598 169.2825 M339.616 379.4839 L339.9085 378.7898 L340.6498 378.8762 L341.0145 378.5052 L342.8031 378.2489 L344.6447 377.2717 L346.5116 376.0529 L347.235 376.9966 L348.379 377.5846 L349.9733 377.9124 L350.3567 377.9396 L350.814 378.0606 L350.3837 380.4618 L350.2088 381.0133 L349.5496 381.5918 L348.8972 382.1504 L348.1976 382.4998 L348.0126 382.5906 L347.4096 382.4511 L345.4736 381.8815 L344.5521 380.5903 L343.745 379.6081 L342.9783 379.3526 L342.3256 379.4536 L341.1222 379.6619 L339.616 379.4839 M342.7837 358.0095 L344.6927 357.8153 L346.4743 358.5131 L348.2137 359.4058 L351.447 359.736 L351.6333 359.9137 L351.4144 360.7781 L350.8867 360.9149 L350.0213 361.1252 L349.486 361.5223 L348.9042 361.674 L348.4217 361.9834 L348.0757 362.3902 L347.6279 363.1662 L347.188 363.588 L346.2004 363.6843 L345.8504 364.1273 L345.1854 363.9834 L345.0004 364.1984 L344.6193 363.5392 L344.3288 363.073 L344.2551 360.6744 L344.0776 359.1322 L342.8728 358.9239 L342.7837 358.0095 M348.8858 221.3679 L348.9893 221.2652 L349.1283 221.2066 L349.3643 221.2133 L349.537 221.327 L349.6566 221.5564 L349.6907 221.8758 L349.5112 222.0678 L349.1995 222.0811 L349.0741 221.8825 L348.8858 221.3679 M349.7956 204.0262 L349.8423 203.874 L349.9352 203.5706 L350.4029 203.6383 L350.8393 203.6481 L351.1353 203.7087 L351.7261 203.9385 L351.8273 204.1663 L351.7375 204.3032 L350.7693 204.3823 L350.279 204.2631 L349.9042 204.136 L349.7956 204.0262 M359.5528 205.0015 L359.5642 204.6533 L359.5591 204.4299 L359.6237 203.7229 L359.6593 203.6835 L359.7923 203.5923 L360.1017 203.5498 L360.5881 203.5553 L361.1282 203.6025 L361.5297 203.5226 L362.1294 203.2941 L363.201 203.1457 L363.972 203.2826 L364.5245 203.5958 L365.0066 203.7481 L365.4508 203.9786 L365.7963 204.1985 L366.0936 204.5955 L366.4434 204.6691 L366.4358 204.7918 L366.3028 204.8831 L366.1706 204.8917 L365.9898 204.902 L365.613 204.8079 L365.2191 204.7651 L364.2105 204.4908 L363.2671 204.3437 L363.1016 204.3748 L362.4386 204.9264 L361.984 205.1424 L361.6004 205.2553 L360.4606 205.2423 L360.2358 205.2171 L359.6757 205.1549 L359.5528 205.0015 M382.152 139.1115 L383.0427 137.9305 L383.9141 137.9887 L389.0953 138.8113 L390.5945 138.4728 L391.2335 139.1891 L390.2848 140.8349 L389.9943 145.2695 L385.8118 146.3537 L382.152 139.1115" stroke-dasharray="" fill="none" fill-opacity="1.0" stroke="#ff0000" stroke-opacity="1.0" stroke-width="1.0px" stroke-linecap="butt" stroke-linejoin="miter" stroke-dashoffset="0.0px"/>
</g>
</svg>