<?xml version="1.0" standalone="no"?>
<!DOCTYPE svg PUBLIC "-//W3C//DTD SVG 1.1//EN" "http://www.w3.org/Graphics/SVG/1.1/DTD/svg11.dtd">
<svg width="512px" height="512px" version="1.1" xmlns="http://www.w3.org/2000/svg" xmlns:inkscape="http://www.inkscape.org/namespaces/inkscape">
<g id="layer" inkscape:groupmode="layer" inkscape:label="layer">
<path d="M64.2858 366.325 L65.7112 367.4125 L65.2606 370.0222 L67.5346 371.3012 L72.7088 378.494 L67.635 381.8623 L67.8949 382.4069 L71.5999 389.7673 L71.6497 389.9326 L72.8807 389.7436 L74.4238 389.1428 L74.6483 389.1297 L75.0515 389.3898 L76.5094 391.5209 L77.2115 392.4885 L77.928 393.3345 L78.1304 393.4667 L78.3915 393.5796 L79.1771 394.3226 L79.4442 394.6495 L79.118 394.7762 L86.1281 397.7937 L86.7908 399.9459 L90.6625 398.0682 L92.2128 397.3508 L89.5178 394.0194 L91.0119 393.7013 L90.2207 390.9314 L90.6805 390.6644 L90.5809 390.5346 L90.2693 390.2433 L90.2737 390.2389 L90.6163 390.1222 L91.0091 389.9182 L91.4449 389.5277 L91.6489 389.1671 L91.8372 388.9843 L92.2831 388.9138 L92.5722 388.955 L93.3916 389.4597 L94.9856 390.5702 L95.1202 390.9582 L95.384 391.4099 L95.8242 391.7948 L96.4845 392.1417 L97.5986 392.632 L99.5935 393.0363 L100.0425 393.3345 L100.8526 394.1261 L103.6259 398.3882 L103.664 398.6933 L104.8705 400.4962 L105.2079 400.6983 L105.3758 400.8648 L105.5256 401.1306 L105.6139 401.5897 L105.9083 402.0233 L105.6967 403.1412 L105.8216 403.3321 L107.2405 404.2566 L108.0261 404.4076 L108.2386 404.329 L108.6438 404.2416 L108.9896 404.2435 L109.3604 404.4406 L110.1789 405.1792 L110.5239 405.4256 L110.9106 405.546 L111.6673 405.9908 L113.4795 407.3988 L113.4606 407.5847 L113.9209 407.8872 L113.3341 408.861 L114.1719 409.3844 L114.3522 409.594 L114.4558 409.9639 L114.4145 410.3114 L114.5731 410.6869 L115.278 411.2022 L116.0294 411.6532 L117.0981 412.1398 L117.397 412.2496 L118.3316 412.146 L118.7107 411.9408 L118.9874 411.8971 L119.2304 412.0013 L119.9252 412.632 L120.506 413.4916 L120.5943 413.922 L120.4224 414.1104 L120.2746 414.0811 L121.4309 415.4852 L121.9041 415.4322 L122.2808 415.6674 L122.831 416.1764 L123.4592 416.8551 L124.0825 417.6136 L125.6087 419.6429 L126.7083 421.3028 L126.8316 421.6521 L126.8658 421.8342 L126.8831 422.337 L126.9308 422.7493 L126.9212 423.0269 L126.8541 423.3226 L126.5124 423.4349 L126.3678 423.4517 L126.3433 423.6257 L121.1341 424.4554 L119.8087 424.8041 L119.7148 424.9563 L119.6842 425.3031 L119.867 426.1065 L120.1329 426.7515 L120.3301 427.0328 L121.0924 428.3016 L121.3084 428.9516 L121.2032 429.4094 L121.0663 429.6527 L120.6506 429.7469 L120.602 429.7712 L119.7658 429.9895 L115.9668 428.8773 L114.9374 429.7668 L113.1931 429.1075 L110.16 427.5668 L95.1567 429.4893 L95.8676 439.825 L94.0281 441.4655 L91.4738 443.4739 L90.2359 443.429 L89.9496 443.5263 L89.4259 443.7964 L89.1491 444.1245 L89.1238 444.1644 L89.0037 444.9085 L88.435 445.8049 L88.4238 446.0225 L88.5158 446.5028 L88.5302 446.796 L89.0491 448.0846 L89.4114 448.7277 L89.6331 449.0558 L89.7492 449.145 L89.7994 449.1556 L91.2127 445.3514 L91.2766 445.3065 L91.3352 445.163 L91.5806 444.8574 L91.8874 444.6834 L92.4284 444.49 L94.8687 442.776 L94.9487 442.6986 L95.3009 442.2395 L95.5142 441.831 L95.8724 441.5191 L96.3628 441.0382 L96.6608 441.1324 L96.8444 441.836 L96.8195 442.5227 L97.442 443.4926 L95.5021 445.2017 L94.9663 445.7861 L94.9856 445.836 L95.1752 445.9421 L95.5322 445.7468 L97.0681 445.0713 L98.2284 444.737 L98.9597 444.6397 L99.1256 444.7451 L99.2027 444.8842 L99.418 444.8275 L101.5667 447.6468 L102.4431 447.6854 L102.7841 447.6312 L103.4235 447.6611 L104.1074 447.7403 L107.0269 447.6711 L108.2418 447.6848 L109.1435 447.8757 L110.0419 448.4844 L110.8267 449.2554 L112.2099 450.1479 L112.5513 452.3746 L112.7164 452.5 L112.8224 452.5249 L113.3337 452.7507 L114.1301 453.2672 L114.7876 453.9277 L115.6583 454.7323 L116.2901 455.2119 L116.8062 455.5612 L117.2572 455.7278 L117.6873 455.9436 L118.7432 456.6415 L118.9641 456.6066 L119.1473 456.4968 L119.3348 452.2 L121.584 450.1978 L125.2709 451.4203 L129.7652 452.1501 L132.191 449.5679 L134.1991 452.4931 L136.6089 451.7447 L134.2658 458.8719 L134.3606 459.016 L134.5088 459.1601 L137.4801 459.7351 L137.7981 459.5436 L137.8672 459.81 L138.1552 459.8655 L138.3681 461.7379 L138.3946 461.983 L138.8681 461.9181 L139.0058 461.9543 L139.0838 462.0896 L139.1581 462.4863 L139.2035 463.4219 L139.4055 464.7747 L139.5348 465.8106 L139.5569 466.4543 L139.5408 466.962 L139.4826 467.5277 L139.3203 467.8994 L139.0677 468.1969 L139.1191 468.6721 L136.2756 470.2813 L134.1734 471.0228 L131.3295 472.0569 L130.4881 475.1585 L126.1774 482.0057 L126.0649 482.2271 L125.9878 482.5147 L125.1581 488.0964 L125.0195 488.5361 L124.7299 489.078 L124.7054 489.1011 L124.4114 490.8872 L121.9414 496.157 L123.5198 497.267 L131.1564 500.1563 L131.4399 500.1114 L131.8572 499.9942 L132.0661 499.9898 L134.9132 500.634 L137.1965 501.1859 L139.0693 501.8258 L140.5778 502.523 L142.4631 503.3486 L143.6334 503.918 L144.0106 504.3577 L144.4572 504.7979 L144.8516 505.0362 L145.707 505.4346 L147.8264 506.357 L158.1114 512.0 L188.6409 494.5218 L185.431 490.9371 L185.9692 489.3219 L189.5236 486.372 L193.6323 478.6573 L194.8444 475.547 L199.4981 466.9726 L209.1075 460.1212 L204.0908 456.2043 L204.9278 451.1153 L198.2406 445.2903 L198.3318 442.7292 L199.4439 442.1111 L200.264 442.0761 L200.2488 441.6601 L202.365 441.4143 L202.6935 440.3128 L202.5537 437.7822 L202.1031 437.877 L202.1163 438.8682 L201.6609 440.2554 L199.7126 440.1394 L196.5522 441.7337 L190.5546 441.9401 L189.3883 441.7168 L191.4294 440.8904 L195.1216 439.815 L199.211 439.0578 L199.211 438.459 L196.4879 433.3504 L201.3259 431.4036 L203.8072 435.5167 L208.4609 434.4395 L209.1469 436.5185 L228.3946 433.9012 L232.7422 433.6423 L236.4697 435.4306 L237.3959 436.6582 L240.4768 436.7231 L243.8597 436.1199 L244.8076 437.5414 L242.1576 438.2313 L241.8126 438.7915 L252.5072 437.4048 L250.7541 433.7284 L250.7923 431.1516 L249.0608 425.9974 L245.9727 423.2764 L235.5384 420.2573 L235.0347 422.0326 L233.7527 423.6588 L231.8141 424.9014 L229.4175 425.5532 L228.3813 421.7481 L229.8513 418.3422 L231.9799 417.444 L235.1086 417.4065 L234.3335 416.8514 L231.6305 415.6849 L228.6058 414.2083 L224.943 412.9588 L223.7795 412.4847 L222.8746 412.0106 L222.8292 410.4262 L225.0169 410.1741 L227.7829 410.778 L230.2722 410.778 L234.8853 411.5983 L235.442 412.1105 L235.6026 412.3556 L236.1786 412.03 L236.0304 410.5765 L237.3939 410.3326 L243.0364 409.8423 L250.087 410.4106 L254.1539 410.7942 L261.6162 407.8249 L264.3782 407.1318 L264.4003 406.8049 L264.2862 406.5105 L264.1991 406.138 L264.2003 406.1118 L264.2778 404.9004 L268.6178 403.5099 L268.8058 403.3832 L269.0391 403.2834 L269.2978 403.2709 L269.5861 403.3053 L269.7134 403.3857 L270.5308 403.2934 L270.4649 403.1318 L270.4593 402.9172 L270.8894 402.1225 L271.0408 402.0414 L271.5477 401.9503 L271.8626 401.7925 L272.1542 401.775 L272.4289 401.9016 L272.6265 402.0408 L272.8084 402.2279 L272.9405 402.4519 L272.9225 402.664 L272.6582 403.0532 L273.6008 402.9466 L277.4806 400.9877 L279.9747 399.2036 L282.1286 392.9271 L282.2893 391.9339 L282.4732 391.3032 L282.7174 390.9464 L282.8371 390.864 L283.0793 390.1578 L283.7279 389.9432 L283.8842 389.6887 L284.1155 389.2152 L284.3745 388.8446 L284.5974 388.6786 L284.8537 388.542 L285.7055 388.2139 L286.5136 387.9431 L287.4004 387.7759 L287.7334 387.7691 L287.9306 387.8003 L288.4676 388.0448 L288.5973 388.0411 L288.7627 387.9412 L290.0672 386.5482 L290.5717 385.9405 L291.0376 385.2649 L293.4036 382.989 L293.4196 382.9603 L293.1008 380.6489 L292.5602 380.5041 L292.518 380.4143 L292.4786 380.1654 L292.4762 380.0406 L292.5156 379.8584 L292.5224 379.8434 L292.4935 379.8578 L292.5473 379.7879 L292.7292 379.3818 L294.0084 377.6461 L294.496 377.2169 L294.5771 377.0853 L294.6486 376.8183 L294.7201 376.7334 L294.8061 376.6685 L295.2306 376.4876 L295.6322 376.2312 L296.0808 376.0241 L296.2716 375.9773 L296.5973 375.9598 L296.7504 375.9242 L297.0664 375.772 L297.499 375.4994 L297.6866 375.4301 L297.9295 375.3914 L298.0227 375.3983 L295.0117 372.2027 L295.4322 364.6336 L295.478 359.3896 L295.5085 359.0783 L295.584 358.7314 L295.621 358.2085 L295.5672 357.5072 L295.5897 357.2876 L295.6969 356.7822 L295.786 356.5926 L295.9338 356.416 L296.0451 356.3299 L296.2033 356.2937 L296.6512 356.2232 L296.8857 356.2369 L297.354 356.4559 L297.6251 356.5121 L298.3075 356.5632 L298.6416 356.4934 L298.8047 356.3767 L298.8894 356.2326 L298.9035 356.0317 L298.6453 354.5679 L298.1729 352.5352 L298.034 351.6149 L297.8601 350.1486 L297.6982 348.1807 L297.7211 348.001 L297.7946 347.7851 L297.9127 347.6697 L298.1014 347.5655 L298.0239 347.2273 L294.2446 345.8983 L294.9956 343.2028 L299.2328 344.326 L298.5099 339.821 L298.7115 339.3212 L298.7336 338.5837 L298.9814 337.42 L299.5702 335.3278 L300.7341 332.9636 L301.9675 330.8315 L302.2543 330.5376 L302.3053 330.4116 L302.3784 330.4278 L302.5852 330.3311 L302.8531 330.3398 L304.2086 330.8377 L322.147 334.853 L322.3611 334.8293 L322.5948 334.7301 L323.0892 334.4537 L323.2302 334.3401 L323.3475 334.2933 L324.3323 334.4331 L325.6199 334.6633 L329.9254 334.1679 L331.3994 332.2024 L343.6933 334.7794 L343.6021 335.5387 L343.6776 335.7983 L343.8651 336.9552 L344.0439 337.1205 L344.9367 337.1442 L345.8287 337.3782 L346.8726 337.8948 L347.1886 338.1407 L347.5658 338.3422 L347.8389 338.7609 L349.7418 339.5714 L346.9589 341.2836 L345.3178 342.6506 L344.8447 343.1617 L344.854 351.3141 L339.8697 350.7526 L339.6328 353.4979 L337.6246 354.8331 L333.2067 354.5149 L333.2067 356.0934 L343.0627 356.3305 L355.5293 356.6737 L350.1113 350.0101 L349.8422 347.7826 L351.1636 346.3912 L351.1595 345.3804 L354.8023 342.2669 L356.5775 346.3164 L353.7983 349.4361 L353.6577 350.8711 L355.3124 350.7276 L360.3167 355.4383 L361.3569 361.3843 L357.2643 368.1037 L361.5216 379.3899 L355.7984 375.4407 L353.7942 376.3454 L349.9466 378.4541 L340.9983 381.5235 L339.0665 383.4014 L355.3445 377.5183 L360.0918 383.364 L357.5334 388.0492 L356.3004 389.0723 L357.1278 389.4653 L357.6539 389.6275 L363.098 389.9151 L363.8442 389.761 L365.4355 389.5102 L366.7922 389.2052 L367.7934 388.9107 L368.1826 388.8589 L368.5349 388.8733 L369.1072 388.97 L369.5241 389.2227 L369.8024 389.5539 L369.8072 389.5758 L370.4056 389.5215 L369.7068 394.3626 L367.1444 396.3838 L367.1444 397.6689 L371.5623 396.7394 L371.1165 394.6745 L371.8395 394.6745 L373.8556 395.2983 L376.0807 396.8642 L375.9441 398.4487 L370.1566 398.8043 L368.3373 404.4999 L365.7238 405.7126 L366.9745 405.7351 L367.136 405.9035 L368.3493 405.9035 L369.8474 409.1411 L371.5623 408.9789 L372.1045 412.6157 L370.3856 409.9146 L369.3132 413.9943 L363.4052 416.8264 L362.9554 415.4328 L362.8928 415.3143 L362.7209 414.7966 L362.6381 414.4497 L361.0477 409.5216 L360.2906 409.7038 L360.1569 409.7843 L359.8572 409.8597 L359.5845 409.8735 L357.9069 410.2764 L357.8909 416.8139 L357.3808 417.0485 L357.1804 417.4477 L357.0402 417.5999 L356.8539 417.6929 L356.437 417.7977 L356.0855 418.0459 L355.9582 418.1738 L355.8763 418.3741 L355.8936 419.2405 L356.1357 420.8499 L355.0011 420.5081 L354.7152 420.5729 L352.0749 420.785 L346.7778 421.2865 L348.4807 423.5634 L357.531 422.0207 L357.6447 422.8691 L367.8593 421.7082 L372.6146 420.1076 L377.255 418.7277 L377.7033 415.7722 L378.97 413.4491 L382.32 412.0998 L384.5149 412.3993 L389.0622 416.5881 L390.5795 418.5699 L396.5317 417.9717 L398.6205 415.3468 L399.1808 413.4298 L395.2858 411.6008 L392.9467 411.1629 L394.2544 405.7413 L383.9325 403.7201 L389.1055 395.9222 L391.443 396.5023 L388.2019 384.0502 L387.1946 382.9354 L388.9272 381.2029 L389.5927 380.4623 L388.6826 378.9245 L387.9689 379.4273 L385.9206 375.0352 L382.8602 375.0851 L381.0332 373.5011 L380.599 371.1858 L379.5572 369.6504 L381.5637 366.1509 L386.401 362.3894 L382.2108 363.5305 L380.8368 362.1897 L377.4061 363.2186 L365.3371 368.4718 L366.4215 366.1135 L366.5283 364.0665 L368.7349 361.6962 L366.6544 355.0577 L368.314 351.4451 L367.1002 348.0634 L370.8796 343.1405 L371.0402 340.0831 L375.5136 332.49 L380.1263 328.8179 L380.836 325.9126 L385.3262 323.1733 L385.8523 318.094 L386.2339 312.1784 L385.3824 307.5544 L388.0597 300.0759 L391.1334 293.0173 L379.0166 282.8407 L378.4109 281.4327 L379.3857 280.8374 L382.0565 280.4099 L381.9746 279.7446 L380.3239 279.2572 L377.0229 277.3437 L376.8353 270.6665 L371.9479 261.2356 L369.5662 257.7467 L368.2453 261.2512 L371.9587 267.8911 L372.709 270.4419 L373.4592 278.8447 L372.9343 280.345 L363.8936 276.7065 L362.1441 273.3121 L360.0785 270.1716 L359.5753 266.8988 L366.4861 262.5019 L365.7749 257.0415 L365.1166 254.8002 L365.96 253.972 L363.8848 253.1743 L360.295 250.639 L358.5387 248.9794 L358.162 248.2236 L355.3445 241.675 L348.3943 236.1735 L345.1612 232.8429 L343.4306 230.7856 L342.549 228.9567 L338.3447 223.9626 L338.5178 223.1723 L338.6901 222.1586 L340.8738 218.7736 L342.0554 218.0014 L343.5936 219.2323 L344.1487 219.3397 L345.0243 219.09 L343.9832 215.5607 L347.563 214.4346 L354.367 212.9977 L355.4457 210.1038 L357.6057 209.1231 L367.7589 206.2142 L365.554 199.7314 L366.3845 199.1047 L367.0882 199.0978 L371.3535 200.8145 L371.9575 200.365 L373.3753 200.2146 L374.3922 200.7321 L379.6873 199.4224 L384.2615 199.2982 L386.766 203.3664 L389.034 209.2536 L388.9316 210.9034 L389.4674 211.8716 L389.0838 214.2892 L389.6987 216.5926 L391.9531 209.9284 L394.309 208.6119 L397.5092 209.7224 L398.0217 212.7686 L398.6197 213.7717 L399.4033 218.4084 L402.0814 214.6207 L405.0205 214.4902 L405.6736 215.6656 L406.1306 219.1269 L403.9377 221.1081 L404.955 222.7192 L404.8245 224.6785 L407.3957 226.1891 L411.5514 227.3563 L421.9231 225.2004 L423.0633 224.9657 L424.157 225.4625 L424.5253 227.6559 L423.569 229.1197 L418.4092 230.3605 L416.6461 230.6876 L417.2337 234.4102 L416.2075 236.8876 L414.4885 238.498 L416.5609 240.1083 L420.1154 239.8399 L422.2199 241.0383 L423.6738 240.6888 L423.5734 238.1547 L425.1036 237.5617 L429.1765 234.8053 L433.9262 237.8114 L433.5772 238.9361 L423.7501 242.3428 L425.7382 247.5171 L423.3204 257.1101 L420.8379 260.104 L419.396 263.1841 L420.0551 266.035 L422.7987 268.4566 L424.4236 270.0693 L430.8188 271.0591 L432.2165 272.2624 L432.3611 278.1863 L431.5879 279.45 L419.837 282.4987 L434.407 289.5968 L445.412 288.9784 L447.7142 284.6848 L442.0484 279.216 L437.5019 276.6884 L437.53 274.6289 L440.0402 273.4307 L439.2209 269.6736 L438.8771 266.5518 L436.1818 253.306 L433.476 191.4138 L422.9404 170.2541 L407.3909 160.5772 L389.324 159.1412 L381.2894 157.8819 L381.1541 158.6817 L380.9159 158.9002 L380.7428 159.0594 L379.7082 159.4721 L378.4599 159.6407 L377.8105 159.6101 L376.2743 159.341 L371.1117 156.1456 L369.9361 155.7092 L369.0622 153.5559 L368.8393 151.9226 L369.0128 149.299 L369.7305 145.7602 L372.0322 141.7755 L370.8213 142.2781 L369.6 142.6777 L368.7088 142.1644 L368.5437 141.8329 L369.3409 140.5929 L369.4293 139.8917 L368.275 138.3857 L366.742 136.472 L363.6318 138.3957 L366.1042 140.9831 L364.5511 142.599 L362.3413 143.8509 L360.4079 144.0769 L354.4228 142.5447 L345.6038 144.0482 L345.0544 139.2774 L346.9509 136.4583 L347.0979 135.576 L346.2199 135.8988 L344.6375 136.4652 L338.8624 138.5656 L332.3918 140.2345 L330.9186 140.5117 L315.6354 145.0203 L312.9907 145.0734 L312.3244 145.2157 L311.2098 145.335 L310.1572 145.4898 L309.3262 145.5017 L308.596 145.4012 L305.5754 145.2931 L305.3914 145.2251 L303.7512 145.2576 L304.0885 142.1545 L304.4958 142.2475 L304.5094 142.1482 L304.7834 141.5482 L305.0083 141.1773 L305.0581 141.0275 L305.1565 140.7315 L300.8996 140.3563 L300.8727 140.1621 L300.8418 140.159 L300.6924 139.7843 L300.6076 139.2811 L300.5257 138.3439 L300.3871 137.4798 L300.4658 137.2063 L300.4257 136.916 L302.8836 135.9419 L303.4548 133.8459 L303.3977 133.6286 L303.4704 133.3332 L303.6018 133.051 L303.6913 132.9786 L303.7311 132.8325 L309.3258 131.5525 L312.2456 133.5443 L312.077 135.3238 L311.0167 135.5111 L312.6232 136.7224 L316.219 136.1761 L317.0921 135.7278 L317.6158 135.8214 L318.8946 138.2284 L319.089 138.668 L320.2501 140.4936 L322.8165 139.632 L326.567 136.9203 L328.0345 135.8657 L327.9618 135.4099 L327.3887 134.6819 L327.267 134.3978 L326.2665 132.5521 L316.1342 133.2333 L314.1381 130.0514 L313.1509 129.9734 L311.2355 130.5984 L310.6913 130.8113 L310.4491 130.9293 L310.2664 130.6683 L310.1254 129.6618 L310.1234 128.9631 L310.3604 128.8164 L304.8717 126.8133 L304.6512 126.4212 L304.6151 126.4062 L304.044 125.7206 L303.8737 125.0388 L303.517 124.0335 L286.5325 121.4078 L285.1886 120.4668 L282.7046 120.3763 L282.5523 120.3151 L282.2326 120.1215 L282.0981 119.6994 L281.8732 118.5186 L281.8419 117.9948 L282.064 117.5839 L281.9909 117.2661 L282.3371 117.2523 L282.4282 117.1462 L282.9712 116.9245 L285.9232 116.5205 L291.6501 116.8752 L296.7319 116.6697 L296.8793 115.4034 L297.2251 115.4396 L297.2721 114.5049 L296.3303 111.901 L295.7788 111.1042 L296.0154 111.0312 L296.0077 111.0093 L296.9492 110.3449 L296.8765 110.2356 L294.0289 108.2999 L292.8505 107.5043 L292.7782 107.4463 L292.5686 107.1559 L292.6096 106.9498 L292.7465 106.7406 L293.5409 106.3479 L294.8723 105.7684 L295.9467 105.1383 L296.6435 104.8117 L297.2154 104.5907 L297.654 104.6069 L297.9878 104.6737 L298.7039 105.1171 L299.036 105.1833 L299.6811 104.9934 L299.6911 104.7287 L300.3723 104.4102 L300.8775 104.4502 L301.5916 103.945 L301.7494 103.7046 L301.8679 99.1611 L302.817 98.5154 L303.8596 98.8263 L305.9525 97.6049 L306.4349 97.144 L307.6337 96.4771 L308.1615 95.7228 L308.8804 95.3194 L309.662 95.0995 L310.9512 94.4295 L312.3701 94.1884 L313.3569 94.2659 L314.7357 94.2752 L316.8057 94.3689 L318.2761 94.0873 L318.5336 92.0727 L318.7834 91.4252 L318.7922 91.3327 L318.9488 91.314 L319.2806 91.0911 L321.012 90.8912 L322.343 90.8862 L323.8853 90.6708 L324.6781 90.4148 L325.146 90.5228 L325.877 90.3398 L326.7987 89.8446 L326.8441 89.4818 L327.526 88.9141 L328.4177 88.4208 L329.2101 88.1248 L329.6908 87.7932 L330.5511 86.1695 L330.9664 85.5619 L331.7082 84.8999 L332.109 84.7157 L332.3633 84.2511 L333.2762 84.3454 L334.4811 84.4397 L335.4004 84.3741 L336.149 84.2673 L336.87 84.1306 L337.2648 83.8296 L338.3793 84.0688 L338.9817 84.3317 L339.8011 85.038 L340.6067 85.8717 L341.6409 85.8748 L342.2964 86.2014 L343.0772 86.6978 L344.0945 87.8975 L349.0912 93.2149 L349.9057 93.3448 L350.7182 92.9495 L351.9002 92.1377 L352.4468 91.8635 L352.6877 92.0646 L354.1063 94.7817 L354.4875 95.7309 L353.7758 96.9742 L344.0001 103.9069 L341.2795 103.8345 L340.9686 103.0089 L340.8172 102.9958 L340.7047 102.6424 L339.8846 100.809 L339.5247 100.2432 L339.436 100.1377 L340.8377 103.8594 L340.8377 105.0709 L340.4882 106.6819 L339.4681 110.0164 L342.4847 107.9858 L344.2093 106.5146 L344.7889 105.8377 L345.3199 105.4299 L346.0954 105.5561 L346.3135 105.4093 L346.6517 104.9241 L347.4935 104.0755 L348.41 103.5953 L348.8823 103.4642 L349.0225 103.5766 L350.4679 103.4205 L350.827 104.1717 L345.1447 107.8621 L346.8103 108.5802 L357.4973 105.1583 L363.498 105.8352 L365.907 103.102 L366.7074 102.1697 L367.6352 101.1524 L368.4501 99.6494 L368.6758 99.1049 L369.2136 98.7345 L369.6494 98.5853 L369.9952 98.4673 L370.7715 98.2262 L371.5302 98.112 L372.2724 98.0745 L372.5423 98.1107 L374.436 97.8472 L375.7313 96.9267 L376.0992 96.8518 L377.0149 96.7637 L377.5498 96.8499 L378.7941 97.2265 L382.1951 97.6293 L385.4937 53.8138 L382.4903 53.8213 L382.4782 53.6214 L382.3059 53.6433 L382.4465 53.0931 L382.4272 52.7683 L382.5855 52.5503 L382.659 52.2637 L382.6517 51.2719 L382.3843 50.8309 L381.6597 50.6211 L380.4263 50.4918 L380.2504 50.2014 L380.1616 49.8173 L380.0817 49.307 L380.6183 48.8242 L380.8223 48.1728 L380.7428 47.4858 L380.4508 47.1054 L371.5101 46.9917 L369.3855 49.4837 L368.614 49.1284 L368.5513 49.1246 L366.097 48.2952 L363.4048 47.1791 L361.465 45.9787 L360.4661 45.4653 L358.6403 44.6677 L357.6322 44.0694 L355.2321 42.9633 L352.6693 44.7289 L348.5566 47.7824 L347.9369 48.0154 L346.7135 48.8654 L346.2436 48.6531 L345.6713 48.8686 L344.3182 48.5538 L342.6876 47.2303 L340.3384 45.1568 L340.0975 44.8139 L340.0593 44.1381 L340.1702 43.6884 L340.5609 43.3592 L341.2003 42.9914 L341.3493 42.7859 L340.7979 41.5486 L340.4143 40.0059 L340.4284 39.0484 L340.6449 37.8261 L340.8336 37.3564 L340.2127 32.9817 L339.5641 32.0961 L338.3564 31.2291 L337.3752 30.7925 L337.1334 30.3503 L336.4278 29.9281 L337.0856 28.8069 L337.2953 28.3322 L337.413 28.2498 L340.8104 22.4596 L340.2079 21.8475 L339.3838 21.6332 L341.6409 16.7549 L341.4867 16.5463 L341.3646 16.6044 L340.5268 16.6687 L339.4532 16.6312 L335.1907 16.4832 L331.0756 15.7268 L323.2587 17.6588 L322.1498 16.0678 L319.442 15.3189 L318.7095 15.4676 L316.6792 14.8154 L315.5165 14.2907 L314.8615 13.9953 L313.6979 13.0702 L310.1596 10.2556 L308.0382 9.5472 L303.5399 6.8681 L302.1422 7.098 L301.4984 7.2079 L299.4473 7.1498 L298.8312 6.4359 L298.4609 4.878 L297.3797 3.3476 L295.4282 2.463 L295.1768 1.839 L294.2631 0.7427 L289.6869 1.2412 L287.6619 0.0 L286.4341 2.3519 L290.7219 4.1877 L290.6123 9.1318 L294.2723 8.2804 L295.2314 8.4385 L296.1001 10.11 L296.2612 13.4569 L292.9433 14.981 L289.3648 15.5675 L289.1961 15.6999 L288.731 15.6712 L288.1001 15.7742 L288.2025 16.9204 L288.1912 17.4964 L287.3964 17.8149 L287.3611 18.1316 L287.2313 18.2091 L287.6374 18.482 L290.2191 18.171 L293.1445 18.1347 L295.0298 18.1691 L296.6082 18.462 L297.2279 18.7925 L297.7255 19.4558 L298.2488 19.572 L298.1416 21.063 L298.187 21.4665 L298.5328 22.0405 L298.6894 22.3853 L298.9995 22.622 L299.3999 22.8381 L299.9377 23.2173 L300.2775 23.3915 L300.4265 23.597 L300.704 23.8488 L300.7554 23.9618 L301.4779 24.5127 L297.2954 29.231 L297.1166 29.4634 L296.311 31.018 L296.3387 31.5564 L296.3431 32.6688 L296.5283 33.6669 L296.47 34.0186 L296.3985 34.2871 L296.4146 34.5701 L296.3254 34.8818 L296.5849 35.2328 L296.8419 35.3015 L297.7601 36.2702 L299.12 37.7998 L301.9555 40.405 L303.0576 41.1064 L303.6484 40.8597 L304.4388 39.4669 L304.8392 39.3469 L305.2047 39.3632 L307.9602 43.8308 L307.6542 44.0057 L307.7875 44.075 L306.0887 45.0306 L295.8792 50.1146 L294.7651 44.659 L294.2719 42.4249 L294.1815 41.7934 L294.0116 40.9584 L294.0382 40.7891 L293.8815 39.5312 L293.8896 39.0884 L293.4225 38.9559 L293.0859 39.5549 L292.2754 40.8603 L291.675 42.7846 L291.7942 42.8233 L291.8714 42.9539 L291.879 43.1806 L291.4095 43.7877 L291.2894 44.0194 L290.2002 47.5101 L290.1769 47.517 L290.1556 47.6069 L289.8841 47.9342 L289.5507 48.0154 L289.3535 47.9498 L289.1584 47.8274 L289.1455 47.8112 L281.8021 49.9085 L281.5029 50.1845 L280.1952 51.641 L277.8914 53.7745 L276.6938 54.82 L275.7435 55.502 L272.4602 58.5335 L272.2381 58.2781 L272.1855 58.2862 L271.8714 58.0913 L271.177 57.6042 L271.2316 57.1195 L270.7842 56.6049 L270.5492 56.7142 L270.0014 56.545 L269.9552 56.3251 L269.8496 56.194 L269.709 55.8748 L269.7472 55.5757 L269.791 55.462 L268.4696 53.9412 L267.5278 53.5477 L266.894 52.9451 L266.1783 52.0026 L265.9349 51.3556 L266.0899 51.2456 L266.2301 50.9846 L266.4771 50.6785 L266.8093 50.4837 L267.035 50.2607 L267.3888 49.7723 L267.9888 48.7193 L268.0049 48.4595 L267.1655 46.8006 L266.9884 45.8906 L267.8571 45.3572 L268.9789 43.5316 L268.7234 43.1025 L268.0515 41.4749 L267.5033 40.8584 L266.9864 40.7572 L266.5574 40.3332 L266.4639 39.9197 L266.496 39.4013 L266.7201 39.0228 L268.2467 38.46 L269.1829 37.5619 L269.8813 36.9648 L270.922 36.5432 L272.6441 35.9842 L274.9848 34.309 L275.1286 33.8799 L275.2712 33.6563 L273.2976 32.2154 L270.6918 33.7544 L269.346 34.2728 L268.8287 34.0817 L268.2431 33.547 L267.727 32.9718 L267.3555 32.8824 L267.531 32.6638 L267.4631 32.557 L267.3507 32.2035 L267.3768 31.8281 L267.6202 31.3903 L268.1334 30.8631 L269.4753 29.652 L270.2657 28.2941 L268.5849 27.7357 L267.6965 27.0486 L266.5442 26.9175 L265.8815 25.7744 L255.7243 29.0349 L254.2587 29.3697 L254.5122 29.3865 L255.262 29.5408 L255.7416 29.9593 L256.2552 30.0886 L256.7316 30.4852 L257.5051 32.0105 L260.6965 36.5238 L258.2706 46.261 L255.7785 47.2103 L254.905 44.7933 L254.4656 45.1842 L253.7515 44.5953 L253.3595 43.0014 L252.4442 42.0501 L248.1636 41.433 L245.3124 37.6443 L243.1493 38.1477 L238.9884 39.2158 L237.9457 40.3444 L237.8875 40.6573 L237.126 41.3075 L236.4706 42.0108 L236.2738 42.1544 L234.0202 44.5934 L234.8391 45.3472 L234.895 45.3429 L235.2347 45.5178 L235.5131 45.8444 L235.6629 46.1049 L235.7171 46.2404 L235.8151 46.682 L235.6528 47.1429 L235.6127 51.3456 L235.8215 52.3155 L235.7693 53.0662 L235.591 53.5615 L235.5773 54.9867 L235.6207 55.2228 L235.8376 55.4495 L236.5943 55.6825 L237.3023 56.0029 L237.965 56.4319 L238.4895 56.5593 L239.4141 57.1139 L239.5161 57.583 L240.0531 57.8128 L240.0294 57.8727 L239.5623 59.4997 L238.5908 62.3495 L238.7542 63.2994 L239.0398 64.1637 L238.9611 64.5022 L238.3273 68.2325 L234.9343 68.7165 L234.4158 68.8114 L233.0691 68.9101 L229.7822 69.268 L229.8517 69.6358 L232.6478 72.4786 L232.6257 72.9776 L233.0218 73.802 L233.8069 74.8655 L234.7592 75.2908 L234.8407 75.4488 L234.7998 75.6205 L236.2131 75.7742 L236.9023 76.0077 L237.232 76.2981 L237.5164 77.0794 L237.8313 77.9443 L238.0972 79.8147 L238.0787 81.2379 L238.0602 82.6462 L238.004 83.5517 L237.8618 85.1722 L237.3449 86.3956 L236.7734 87.3798 L235.3219 89.227 L234.3708 90.0344 L232.7667 90.0882 L232.1093 90.4141 L230.7939 90.0875 L228.9886 89.7085 L228.2363 89.503 L227.6869 89.7503 L226.2298 90.0082 L225.498 89.8964 L224.2719 90.318 L221.7609 89.9932 L221.2841 90.1712 L220.5098 90.7257 L218.3085 90.8925 L217.898 89.6897 L214.1934 89.8496 L213.3696 90.702 L209.4597 91.1785 L208.2958 91.9597 L207.7287 91.8848 L206.9114 91.2297 L206.7234 91.4414 L206.8986 92.0503 L206.3037 91.9791 L206.021 91.9841 L206.062 92.2451 L208.2773 92.3094 L208.3617 93.1643 L208.238 93.6402 L208.2605 93.7376 L208.4151 94.2915 L208.4352 94.3514 L208.3709 94.8123 L208.793 95.5129 L208.8629 95.8489 L208.5336 96.2417 L207.7536 96.5814 L207.1592 96.6582 L206.9592 96.9348 L207.0158 97.6193 L207.366 98.0807 L207.5496 98.3817 L204.4217 99.4677 L204.1743 99.5788 L203.3839 99.9335 L203.0919 99.0874 L203.1228 98.491 L202.7919 97.7142 L202.722 97.2683 L202.6373 96.9105 L202.6863 95.8258 L202.8076 95.335 L203.2309 94.8928 L203.0987 93.7132 L203.0762 93.5134 L202.9136 92.9139 L202.9586 92.4068 L203.3433 91.7543 L203.4827 91.5963 L204.4655 90.707 L204.2566 90.5696 L203.653 90.3017 L203.218 90.1656 L203.1345 90.3554 L203.3626 90.9043 L203.1875 91.1598 L202.9015 91.216 L202.6706 91.3321 L202.1798 91.0973 L201.9436 91.0723 L201.5476 90.7538 L200.8355 90.6964 L201.0918 89.9451 L201.6549 89.7422 L202.9361 89.5623 L204.4522 89.5442 L204.4699 89.2226 L204.0153 89.0734 L203.5096 89.1021 L203.118 89.1695 L202.7385 89.2807 L202.2272 89.345 L201.1838 89.6292 L200.5568 89.9333 L200.3636 90.3617 L199.9279 90.7264 L199.6519 90.4859 L199.4315 90.6346 L199.7451 90.9712 L199.5154 91.2747 L199.1017 90.988 L198.4631 90.9637 L197.8133 91.1916 L197.6727 91.4526 L196.3152 91.3265 L195.7682 91.2372 L194.985 91.304 L195.0199 90.2643 L195.1798 89.8409 L195.6614 89.7303 L196.0453 89.6129 L196.3887 89.3088 L196.1309 89.0765 L195.632 88.9678 L194.9834 89.2414 L194.5123 89.6342 L193.3789 89.5973 L191.9615 89.6342 L191.0314 89.5942 L190.1446 89.5068 L189.6538 89.6304 L188.7911 90.125 L188.1264 90.4404 L187.2838 90.7045 L186.6287 91.1891 L186.0905 91.4789 L184.9374 92.3269 L186.7552 92.9657 L187.45 93.3442 L189.0144 94.1366 L190.263 94.7236 L190.6032 94.6449 L190.7723 94.7155 L190.8956 94.4688 L190.9486 94.4332 L191.2033 94.0348 L191.976 93.6851 L192.3009 93.4803 L193.2319 93.4178 L194.1842 93.7045 L194.7822 94.1897 L195.3011 94.5001 L195.6385 94.3383 L196.1003 93.5265 L197.004 93.0026 L197.7077 92.8627 L198.2844 92.8171 L198.7615 92.8945 L199.5688 93.3067 L200.0841 93.6633 L200.6592 94.0042 L200.9769 94.2946 L201.344 94.896 L201.4476 95.1239 L201.399 95.3537 L201.2838 95.6672 L200.993 96.2548 L200.738 96.7712 L200.74 97.3963 L200.2966 98.3249 L198.9644 99.5476 L197.5876 100.6985 L197.1434 100.9027 L195.0693 101.8543 L194.2456 102.2327 L193.4094 102.4276 L191.97 102.8997 L191.3258 103.4511 L191.2503 104.5545 L190.7723 105.5511 L190.3402 106.3354 L190.0787 106.4734 L189.4104 106.1187 L190.588 103.7327 L191.09 102.6018 L191.086 101.9655 L190.8189 101.1325 L189.8273 100.4256 L186.2917 98.0957 L185.7756 97.756 L182.8474 95.6616 L182.6409 95.4186 L182.42 95.3119 L182.2148 95.1495 L182.075 95.3893 L181.7461 95.8295 L181.5738 96.0937 L179.2307 98.6365 L176.5426 101.83 L175.7076 102.3945 L175.3421 102.5731 L174.8031 102.663 L174.3388 102.6287 L173.693 102.2359 L172.4612 101.3966 L172.3066 101.0631 L171.8644 100.6635 L171.6045 100.4287 L169.939 99.2041 L169.2691 98.9806 L167.5641 97.6936 L165.4162 96.5046 L164.0085 95.7253 L161.2899 94.6399 L160.7537 94.4751 L160.5766 94.4657 L160.2962 94.4507 L159.944 94.5519 L159.542 94.8435 L158.2877 95.8776 L156.8916 96.454 L148.8847 98.5791 L148.5598 98.5965 L147.7879 98.6384 L147.5312 98.451 L147.3867 98.0739 L146.6404 95.7852 L146.2304 94.8903 L145.2223 92.9951 L145.1403 92.9114 L145.0532 92.8221 L144.4375 92.8396 L140.0308 93.1718 L137.5676 93.3579 L136.6234 93.3079 L136.3788 93.3754 L136.1748 93.5215 L135.3281 94.0311 L133.4461 94.7498 L130.623 95.7209 L130.7431 96.3553 L130.7588 96.4384 L130.9435 97.0341 L131.2436 97.3557 L132.4014 98.4061 L132.7167 98.8963 L132.1079 99.6937 L132.3476 100.1377 L132.2577 100.3588 L132.4284 100.1764 L132.7244 100.0721 L133.0376 100.0796 L136.7214 102.6505 L143.3724 107.0941 L139.0219 110.4866 L134.9819 113.8049 L133.5654 114.7365 L129.5001 117.903 L112.5633 131.49 L112.3063 132.077 L120.5116 142.7776 L121.3394 143.6192 L121.7723 144.4328 L122.6149 145.5391 L124.3857 145.7009 L125.3187 145.7608 L125.3649 145.7377 L127.3895 145.9412 L128.0819 146.1136 L132.1231 146.9764 L132.8999 147.4753 L134.0465 147.6863 L133.4638 159.2392 L133.5055 159.3909 L133.4264 159.9803 L133.3609 161.2764 L132.8432 161.3888 L132.6621 161.543 L131.842 161.7353 L131.2934 161.7584 L130.1483 162.0624 L127.7446 165.4575 L122.4647 169.7016 L121.0012 170.9465 L118.883 172.5809 L114.3426 176.2306 L113.7522 177.8163 L113.0666 187.1962 L113.0903 187.21 L113.1541 187.9728 L113.206 189.0216 L113.0329 189.9586 L113.2501 190.4568 L114.1538 191.9344 L114.8514 193.2729 L115.6033 196.029 L116.0178 197.8942 L116.2065 199.3313 L116.0603 199.7533 L116.1419 200.596 L116.8929 200.9331 L118.5436 204.0293 L119.7967 205.7398 L119.6686 205.1068 L119.4529 204.7778 L119.5726 204.6336 L119.4995 204.2728 L122.7909 205.2104 L127.118 206.4707 L127.5072 206.7367 L128.604 207.0107 L129.4776 207.5063 L130.4298 208.1986 L130.8399 208.5288 L132.2826 209.9989 L133.1658 210.6025 L133.7192 210.8341 L135.7153 211.4402 L138.0853 212.1406 L140.4694 212.3154 L140.8811 212.449 L141.3839 212.7611 L141.8185 212.9309 L141.6389 213.1169 L142.778 213.4303 L146.1512 207.0831 L146.1263 206.9252 L146.1275 206.4632 L146.2677 205.9982 L146.5175 205.575 L147.0641 204.7791 L147.9831 203.6354 L148.2682 203.0992 L150.9684 202.5062 L151.0596 202.342 L151.0584 202.2627 L151.2186 202.0555 L152.4151 199.8975 L153.9485 198.8319 L154.075 198.692 L154.2003 198.6565 L154.5537 198.4111 L158.0479 198.4111 L158.4873 199.0198 L159.3372 202.3813 L167.3938 203.0493 L170.7475 203.505 L170.4173 203.9351 L170.5434 203.9557 L170.8065 204.2578 L170.7535 204.7834 L170.3691 205.4008 L169.908 205.9027 L168.3441 207.1 L167.6545 207.5376 L167.2332 208.0869 L166.2372 208.4371 L166.1267 208.507 L164.1748 209.1874 L164.0491 209.2055 L162.6145 209.7099 L160.5003 209.444 L158.6692 209.346 L154.3553 208.8023 L153.6348 208.9159 L153.487 208.9583 L149.0611 212.356 L149.3715 212.5389 L149.5992 212.8029 L152.9753 213.1806 L153.5778 213.3304 L154.5955 213.8154 L155.1257 213.3791 L155.9847 213.5439 L155.9807 214.022 L156.6097 214.1668 L156.9736 214.8591 L157.1523 215.017 L161.6417 217.3928 L162.1598 218.2779 L162.4389 219.4084 L162.5321 219.7854 L162.5076 220.2111 L162.353 220.4246 L162.2638 222.2897 L162.3482 222.3203 L162.2413 222.7629 L162.1325 225.0406 L161.4039 226.5049 L161.3879 226.6198 L161.1642 227.0704 L161.0862 227.1435 L157.1696 235.0163 L157.2254 235.4782 L157.3435 236.0063 L157.8688 237.1148 L157.9057 237.7627 L157.5117 238.2995 L157.2668 238.8506 L157.2599 239.4729 L157.378 239.9435 L157.378 240.2213 L157.3129 240.5565 L157.178 240.7787 L157.3254 242.0725 L155.9012 244.8232 L155.9671 245.3163 L156.7097 246.637 L157.9812 249.6854 L157.9941 249.6972 L158.0696 249.6161 L158.1913 249.4101 L158.2467 249.2035 L158.1315 248.9807 L158.0849 248.6867 L158.2632 248.4957 L158.6692 248.4314 L159.0721 248.6455 L159.1809 249.1854 L159.3612 249.5967 L159.3837 249.588 L159.6753 249.9388 L159.6701 249.9419 L159.7946 250.2933 L160.0014 250.7239 L159.6946 250.9811 L159.5874 251.2763 L159.9958 251.6508 L160.3577 252.1601 L161.5148 253.0451 L162.1245 253.7423 L163.5233 254.8445 L164.2868 255.1048 L164.9029 255.6665 L165.0636 256.3012 L165.8395 258.1736 L166.3621 260.6595 L166.389 261.9596 L166.2902 262.2248 L166.287 262.2891 L166.2737 262.5687 L166.6902 263.0811 L166.7163 263.1941 L166.8798 263.3938 L168.0911 264.6695 L168.4047 265.6337 L168.3802 266.0294 L168.1172 266.5649 L167.6625 267.307 L167.8236 268.0072 L167.2493 269.8115 L167.1633 270.2191 L166.9344 270.8013 L166.3247 272.7336 L166.7818 273.621 L166.8179 274.0267 L166.6822 274.5416 L165.8817 274.9734 L165.4299 274.7694 L165.1371 274.7132 L164.121 274.9291 L164.0286 275.4265 L163.3173 279.216 L163.0273 283.0179 L161.1365 285.4331 L160.6649 290.0131 L161.2557 290.1598 L162.8044 290.1616 L163.8916 290.2646 L165.4821 290.6222 L167.2043 290.9011 L169.798 291.4472 L170.2217 291.4528 L169.3578 288.1777 L169.6438 286.2581 L169.645 285.1741 L170.4185 285.053 L171.3611 285.0686 L171.5282 285.3033 L171.5214 285.6958 L172.6391 285.8312 L172.2218 288.4298 L172.3102 288.7712 L172.2833 289.429 L172.2849 290.0686 L172.0351 290.7501 L171.8479 290.7564 L171.7202 291.5508 L172.1058 292.5892 L172.4632 292.6766 L172.8813 293.0647 L172.5592 293.5016 L172.7026 294.1949 L173.1135 294.9706 L173.6565 296.1513 L174.0621 296.8939 L174.1697 297.757 L174.0529 297.8818 L174.534 299.1954 L177.792 299.7727 L179.8163 298.899 L182.4947 296.5857 L182.4489 296.3635 L182.518 296.1114 L182.5313 295.2358 L181.0573 295.8287 L180.8613 295.8418 L180.8059 295.863 L180.2119 295.9273 L179.8665 296.0615 L179.5897 296.0658 L179.2014 295.9079 L178.9222 295.4081 L177.6515 294.4246 L177.4129 291.6812 L177.382 291.2431 L177.4005 291.2244 L177.3984 291.147 L177.6812 290.8044 L177.8655 290.7501 L178.484 290.1192 L178.527 289.8458 L178.5792 287.6972 L177.2109 286.4291 L177.0908 286.4272 L176.9004 286.1414 L175.9325 285.2446 L176.9205 284.7141 L180.1858 281.1444 L180.1858 278.3048 L176.9727 278.3048 L177.6475 274.2482 L178.7881 274.2482 L181.1216 274.0548 L182.712 271.7955 L183.3747 269.3553 L180.7882 267.8387 L180.8802 267.41 L180.7392 267.3201 L180.6669 267.1129 L180.7508 266.7022 L181.3396 265.2699 L181.6087 264.0148 L183.1658 261.4603 L183.4269 259.6129 L180.0291 261.1981 L179.3865 259.7689 L179.5733 259.2184 L179.5709 259.005 L179.6668 258.5331 L180.6392 255.5267 L180.844 254.7309 L181.028 253.4539 L181.3055 253.0844 L181.2838 252.9328 L181.5067 252.1532 L181.8204 251.7875 L182.2554 251.7188 L182.559 251.7519 L182.6112 251.7107 L185.1463 251.3805 L185.1772 251.4136 L185.3186 251.4124 L185.6796 251.6932 L186.1311 252.3573 L186.2122 252.5071 L187.0677 253.3915 L187.25 253.4221 L194.45 253.0863 L196.7723 252.964 L197.7297 253.2392 L196.5674 258.0681 L200.7576 256.2101 L201.1994 255.9667 L201.683 255.6503 L202.6951 255.2333 L205.3699 253.771 L206.9263 252.7842 L206.9251 252.5115 L207.4154 252.147 L208.8734 250.4462 L209.4369 250.3151 L209.9268 250.8082 L209.9662 250.8562 L212.3884 249.3209 L214.493 254.7821 L217.8434 256.6994 L217.9747 256.5877 L218.1466 255.7888 L218.1872 255.4243 L218.147 254.3745 L218.3125 252.3885 L218.5346 252.0652 L218.8507 252.1869 L218.8627 252.1214 L219.478 252.4285 L220.4463 252.8959 L220.799 253.1625 L220.8363 253.1525 L220.8885 252.9446 L221.0881 252.7705 L221.3821 252.8379 L221.8958 253.0807 L222.1524 252.9877 L222.7236 252.7093 L223.2228 253.1637 L222.7368 253.879 L222.2573 254.2653 L222.5396 254.4788 L222.8617 254.3814 L223.0991 254.1661 L223.3794 254.2266 L223.7811 254.3926 L224.4144 254.3764 L225.3265 254.671 L226.0129 254.5942 L226.6897 254.8507 L226.9563 254.9231 L227.8243 254.9799 L228.1785 255.0711 L228.4143 255.2077 L228.3757 255.6765 L227.7026 256.0784 L227.0897 256.2819 L226.9355 257.0851 L229.1729 264.4617 L229.4874 265.0439 L229.5665 265.0283 L231.7643 264.5696 L232.2506 264.1477 L233.5186 263.7901 L233.617 264.0772 L233.8499 264.2969 L234.1431 264.5297 L234.2491 264.5184 L234.3158 264.6196 L234.4431 264.642 L234.6046 264.5883 L234.6889 264.4036 L234.756 264.1078 L234.7849 263.39 L234.7544 263.1354 L234.1162 259.616 L235.4669 259.3913 L237.5674 264.3431 L240.3535 267.6515 L242.3689 274.6589 L244.6558 282.4812 L244.8176 282.9942 L250.8686 293.1165 L250.8477 293.2432 L250.8368 293.3088 L250.4927 293.6139 L247.4599 293.4248 L246.6282 293.4411 L242.9404 293.6133 L242.338 294.1937 L248.3769 294.2823 L247.6531 293.9228 L247.6957 293.6383 L248.4933 293.7019 L249.6597 293.8835 L250.273 293.8885 L250.7389 294.2536 L250.9606 294.3197 L252.0096 294.3353 L252.1558 294.1762 L252.5739 294.3434 L253.4229 294.3559 L255.507 295.3357 L259.8261 297.6871 L265.0674 299.3608 L267.9491 299.6385 L268.3736 300.1933 L267.8844 300.3986 L267.3081 300.1128 L266.345 300.2837 L266.2377 301.666 L266.2377 301.7072 L266.1847 301.6916 L265.0722 301.3727 L265.0706 301.958 L265.2714 302.0142 L265.9032 302.2988 L266.1751 302.6364 L266.4675 303.8476 L266.4044 304.174 L266.2257 304.6582 L265.9855 305.0501 L265.9369 305.482 L266.0325 305.9057 L266.6595 306.2745 L269.1608 307.8483 L269.8793 308.3001 L269.9287 308.3313 L270.0942 308.642 L270.0564 309.4227 L269.9388 310.7138 L269.6741 311.4433 L269.4576 311.8283 L269.2379 312.0092 L269.1785 312.0404 L268.8447 312.262 L265.4265 310.491 L263.8721 309.9762 L262.6869 310.0536 L261.7789 310.2052 L261.1917 309.9032 L260.5716 309.8545 L260.4085 309.9281 L260.7928 310.3125 L261.1085 311.598 L261.0226 312.4448 L257.1509 310.7768 L255.3937 309.8857 L246.9688 306.8636 L245.4803 305.2635 L244.4895 305.9743 L243.2722 308.3768 L243.8429 310.003 L246.2237 311.7702 L244.5646 317.3502 L243.6814 319.634 L242.7336 320.4471 L240.2559 321.9553 L238.9337 323.9009 L239.1799 324.5923 L239.0209 325.054 L238.3012 326.1878 L238.0052 326.7014 L237.8851 327.0408 L237.8389 327.4851 L237.7232 327.8532 L237.5634 328.0847 L236.5304 329.6565 L236.1456 331.4854 L230.6686 334.9179 L230.1642 335.2261 L226.1185 337.5155 L224.265 338.2948 L219.7154 339.8984 L216.2798 341.8114 L213.4837 343.186 L212.094 345.2338 L211.4815 346.5135 L209.3858 348.8078 L208.136 349.6008 L206.6548 350.1174 L205.3463 350.6309 L204.9061 351.1581 L205.125 353.3051 L207.3905 357.6021 L202.3533 361.7037 L201.3175 361.476 L201.1243 361.1472 L199.9945 359.2255 L199.9741 358.6484 L199.6568 357.959 L199.6001 357.6233 L196.5068 358.6372 L196.3437 358.6908 L195.0457 356.3736 L194.501 355.2031 L191.5623 350.1717 L191.4683 350.1049 L190.7265 349.5789 L184.2559 352.9432 L183.8864 353.1354 L183.2209 352.4528 L182.9763 351.739 L182.5718 350.8917 L182.1939 350.2728 L181.9316 350.075 L181.669 349.325 L181.5991 347.7851 L181.8248 346.1423 L182.0232 344.1288 L182.1469 343.6246 L181.7991 342.6039 L181.3433 341.4333 L179.9126 339.5901 L178.2648 338.8657 L177.6784 339.0916 L176.947 339.1827 L176.3795 339.0535 L176.0321 338.7322 L176.0241 338.185 L176.0948 337.9123 L175.2136 337.5248 L168.6951 340.7632 L160.1043 337.45 L159.8328 336.2257 L159.7332 336.0223 L159.097 333.2943 L158.8873 331.9653 L158.4592 330.0353 L158.758 329.923 L159.3665 329.2597 L160.3131 328.9215 L161.2859 328.6931 L162.0393 328.5696 L163.1474 328.0648 L163.3603 327.7085 L163.8864 326.9466 L164.7523 326.4474 L169.7104 325.2525 L170.0044 325.1071 L170.5478 324.4151 L170.8362 323.9009 L171.5824 322.9836 L172.0953 322.6673 L172.3921 322.3696 L172.7484 322.2504 L173.3838 322.4158 L173.8436 322.359 L174.1966 322.0208 L174.6734 321.4754 L175.1453 321.1965 L176.0152 321.5603 L176.3554 321.6757 L179.4785 320.8265 L180.0171 320.3778 L181.0858 319.7232 L181.6284 319.4218 L183.6868 317.9792 L184.2876 317.4294 L184.8406 317.1742 L186.9653 315.6915 L191.6623 314.1715 L192.0294 313.9942 L192.4788 313.6722 L192.4993 313.6498 L192.07 312.3843 L188.7923 309.5768 L188.7549 309.5762 L188.4838 309.5406 L188.0625 309.5444 L187.4725 309.0739 L186.7295 307.8102 L186.0014 307.1862 L186.5114 305.4077 L173.0633 308.6801 L173.8259 308.8417 L173.6488 309.2423 L173.3645 309.6604 L172.9179 309.9325 L169.5478 310.4236 L166.9231 311.1737 L165.8524 311.5955 L165.1708 311.7802 L164.4985 311.7447 L164.1053 311.6093 L163.7258 311.56 L163.439 311.6823 L163.2611 312.149 L162.7643 312.3262 L162.3337 312.2301 L162.0405 311.4102 L161.9457 311.2511 L155.0923 312.8323 L147.6871 316.592 L145.6014 319.2047 L143.7178 322.7303 L147.0955 327.9281 L143.4366 332.2835 L143.0149 337.5498 L148.0554 346.1354 L151.1881 355.3634 L159.5219 365.4397 L160.1444 369.8756 L164.0306 379.2289 L172.6251 385.2412 L172.3957 386.5438 L171.2113 386.9917 L171.1623 387.0192 L169.645 386.5457 L169.259 386.288 L169.2907 385.9586 L168.8397 385.7159 L155.7028 382.08 L154.6999 381.8885 L147.4505 380.5041 L137.5845 378.8914 L130.7949 380.7668 L124.0801 377.1283 L108.9254 376.5656 L100.1409 374.979 L73.051 365.0279 L66.0847 364.4782 L64.416 364.1607 L64.2858 366.325 M136.3639 435.3963 L136.6692 435.2217 L139.5207 436.4255 L150.1519 440.6983 L142.1313 439.8999 L136.3639 435.3963 M159.9251 246.8648 L159.9633 245.7925 L160.8384 245.3294 L161.0971 245.7981 L161.1043 246.2837 L161.1758 246.7362 L161.31 247.2942 L161.6136 247.7561 L163.0378 249.455 L163.145 249.5537 L163.7009 249.558 L164.0603 249.6404 L164.2318 249.8451 L164.076 250.4724 L164.141 250.7402 L164.3041 251.0391 L164.5415 251.3724 L164.388 251.7213 L164.3909 251.883 L164.87 251.9922 L165.0431 252.3592 L165.4166 252.23 L165.7464 252.2706 L166.2464 253.0957 L165.466 253.4277 L165.3078 253.4408 L165.1443 253.6262 L165.5158 254.0787 L165.4773 254.3003 L165.3925 254.5755 L165.1005 254.4825 L164.3527 254.1374 L164.0101 253.8671 L163.8117 253.3422 L163.8969 253.0045 L164.0117 252.7081 L163.8567 252.4547 L163.4105 252.4091 L162.3731 252.1332 L161.2943 251.4461 L160.9003 250.9986 L160.536 250.4537 L160.2766 249.6835 L160.2272 249.6479 L160.2316 249.2921 L160.187 249.0843 L160.2027 249.0693 L160.2392 248.2754 L160.1075 247.439 L159.9251 246.8648 M164.2631 217.5426 L164.2989 217.3803 L165.2917 216.7967 L165.6042 216.6693 L166.1813 216.4271 L166.3797 216.3716 L166.55 216.3816 L166.6946 216.4178 L166.9846 216.5813 L167.3657 216.8054 L167.4163 216.8329 L167.5412 216.9752 L167.6412 217.1625 L167.6702 217.316 L167.6657 217.4627 L167.5894 217.6724 L167.4886 218.0882 L167.2223 218.8859 L167.0573 219.3116 L166.8926 219.5388 L166.8043 219.6287 L166.7167 219.6674 L166.6151 219.6724 L166.0918 219.2286 L166.0544 219.1874 L165.6925 218.8503 L165.2969 218.5364 L164.8491 218.2542 L164.5029 217.9365 L164.3378 217.7136 L164.2631 217.5426 M172.3391 203.053 L172.3737 202.4644 L172.4676 201.8726 L172.7592 201.096 L172.952 200.6778 L173.197 200.2602 L173.4737 200.0204 L173.7617 199.8013 L173.9191 199.7164 L174.1456 199.6365 L174.4264 199.624 L174.7537 199.6559 L175.1525 199.7383 L175.1694 199.742 L175.2582 199.7913 L175.3746 199.8569 L175.5742 200.0373 L175.8441 200.3357 L176.0815 200.7571 L176.2084 201.0804 L176.2389 201.4793 L176.1827 201.9812 L176.0819 202.5043 L175.7441 203.6436 L175.7309 203.9132 L175.7473 204.0943 L175.7212 204.206 L175.6317 204.2684 L175.3433 204.2822 L174.9381 204.2453 L174.7738 204.2303 L174.2537 204.1654 L173.352 204.0006 L172.6946 203.7434 L172.3644 203.4401 L172.3391 203.053 M174.7123 374.2054 L178.576 374.956 L185.7407 375.0308 L186.1536 381.9709 L185.9628 382.2597 L185.3379 379.4803 L184.4547 379.4803 L181.2011 379.9975 L180.1456 379.9545 L179.3267 380.3638 L177.7973 379.5022 L176.3968 377.4983 L174.7123 374.2054 M176.947 443.6879 L177.1739 443.3161 L177.7181 442.9531 L178.8756 442.7697 L180.0327 442.4298 L181.0248 442.0325 L182.0557 441.8809 L182.8108 441.4249 L183.3016 441.347 L183.6277 441.4761 L183.5932 443.2369 L183.6659 444.0933 L183.6458 444.5823 L183.6418 444.6815 L183.4265 445.216 L183.3217 445.4319 L182.9638 445.6689 L182.2473 445.6863 L181.1412 445.284 L179.2267 444.7701 L177.194 443.9617 L176.947 443.6879 M179.7548 380.6988 L179.8074 380.6264 L180.1725 380.6089 L180.3336 380.5671 L180.4605 380.4511 L180.6966 380.2851 L180.9023 380.2209 L181.3774 380.1934 L181.7176 380.0874 L182.9349 379.942 L184.2531 379.6463 L185.2214 379.5845 L185.3105 379.7948 L185.6198 381.405 L185.7772 382.1012 L185.8186 382.3109 L185.7925 382.4512 L185.1399 382.5978 L183.9888 382.7894 L183.4048 382.7912 L182.4754 382.8174 L182.0762 382.9035 L181.8365 382.7014 L180.9155 381.7051 L180.3207 380.9939 L179.8243 380.7842 L179.7548 380.6988 M185.7644 441.3894 L186.4729 441.2135 L186.8303 441.748 L186.5279 441.9645 L185.9793 442.2202 L185.825 441.9071 L185.7644 441.3894 M187.381 117.5033 L187.4565 117.0157 L187.6677 116.7447 L188.238 116.6036 L188.6915 116.5823 L189.4044 116.8096 L189.8956 117.2411 L189.761 117.5677 L188.9525 117.9167 L188.0147 117.9804 L187.7067 117.961 L187.381 117.5033 M188.8332 395.9721 L188.9007 395.6608 L189.0349 395.5541 L189.2409 395.39 L190.555 395.2821 L192.2037 394.6539 L192.6282 394.6034 L193.405 394.7805 L194.6826 395.4961 L195.7702 395.9584 L198.2173 396.7057 L198.4294 396.8885 L198.4454 397.0601 L198.4543 397.1518 L198.0832 397.8611 L197.3683 399.6602 L197.0253 399.9141 L196.7196 399.9796 L196.2369 399.8723 L194.3167 399.0919 L191.684 398.2235 L190.0743 397.5105 L189.6441 397.2117 L189.0521 396.6215 L188.8332 395.9721 M199.4543 206.9982 L201.4701 195.361 L205.4157 192.834 L208.0882 192.6561 L210.3823 193.3022 L212.0523 196.353 L210.8052 201.3414 L210.9165 203.8577 L211.5719 205.2029 L211.2414 207.0294 L199.4543 206.9982 M202.1404 366.3244 L202.1718 366.0923 L202.4429 365.7997 L203.9642 364.9225 L206.0073 363.7988 L206.6664 363.49 L207.1729 363.3246 L207.507 363.2884 L207.7347 363.2978 L207.9227 363.3758 L208.1733 363.4213 L208.5095 363.2891 L208.6605 362.9883 L208.6814 362.546 L208.5569 362.151 L208.3802 361.8878 L208.2018 361.6226 L209.1786 360.8733 L209.3164 361.0835 L209.43 361.2576 L209.5891 361.5777 L209.8284 362.1716 L209.9361 362.6608 L210.469 364.4595 L210.8972 364.7933 L211.0197 365.2768 L211.1936 366.2376 L211.2711 366.373 L211.3574 366.524 L211.6302 366.6001 L211.9892 366.6513 L212.6218 366.5677 L213.3331 366.4098 L213.813 366.3281 L213.9612 366.1915 L214.2516 364.5369 L214.5681 362.8866 L214.7175 362.7207 L215.003 362.5903 L215.2504 362.3638 L215.301 362.0381 L215.3428 361.3668 L215.4537 360.6337 L215.5288 360.3891 L215.7059 360.293 L215.8573 360.2462 L216.1232 360.2437 L216.4365 360.2568 L216.6919 360.2955 L216.9027 360.376 L216.9935 360.5208 L216.8401 362.9422 L216.8212 363.2398 L216.8216 364.3584 L216.763 364.8844 L216.7614 365.4871 L216.7156 365.9806 L216.7003 366.6837 L216.5039 368.0264 L216.2943 369.7521 L216.0882 370.9263 L215.877 371.5271 L215.7653 371.6812 L215.6207 371.8066 L212.9656 372.783 L210.4208 373.9584 L208.6424 374.8929 L206.4572 376.1925 L205.3214 376.6392 L204.5775 376.8426 L204.2759 376.8332 L204.1466 376.6517 L204.0667 376.238 L203.9835 375.5505 L203.9466 375.2847 L203.9088 375.2242 L203.7767 375.0121 L203.6112 374.956 L203.4393 374.9722 L203.2144 374.8037 L202.8774 374.3177 L202.726 373.9665 L202.5726 372.6675 L202.6521 372.2745 L202.7176 372.2271 L202.914 372.2059 L203.1762 372.0118 L203.2176 371.9775 L203.4325 371.693 L203.5381 371.6668 L203.6992 371.8016 L203.7887 371.7972 L203.8522 371.7573 L203.5369 371.2763 L203.4381 371.2214 L203.3297 371.2288 L203.2618 371.1796 L202.9517 369.8588 L202.5369 367.511 L202.2308 366.7062 L202.1786 366.5683 L202.1404 366.3244 M209.4927 411.0874 L210.561 410.4262 L211.0108 410.2952 L215.2802 412.6095 L214.2199 416.4584 L209.4927 411.0874 M226.5876 179.9689 L226.6591 179.7129 L227.1748 178.9725 L227.4777 178.4194 L227.4829 178.41 L227.7584 177.8257 L228.1207 177.2919 L228.3914 177.0172 L228.8291 176.8068 L229.4681 176.6932 L229.9818 176.7282 L230.5533 176.8137 L230.9578 176.9173 L231.3433 177.031 L231.696 177.1446 L232.8105 177.6128 L234.8006 178.4188 L236.9473 179.2247 L239.1173 180.1268 L239.9945 180.502 L240.7238 180.9378 L241.4158 181.4765 L242.2219 182.2151 L242.8239 182.8906 L243.1721 183.3182 L244.3995 184.8733 L245.3337 185.5756 L246.1069 186.2554 L246.3543 187.0682 L246.3735 187.2586 L246.2526 187.8817 L246.0888 188.3093 L245.8799 188.7425 L245.5775 189.0509 L245.01 189.4349 L244.4284 189.7688 L244.116 189.9761 L243.618 190.2252 L243.3681 190.2645 L243.0958 190.1596 L242.8645 189.9156 L242.6111 189.6696 L242.3303 189.3562 L241.8528 188.6296 L241.4102 187.9703 L241.0556 187.5652 L240.5407 187.0632 L239.9683 186.8135 L239.4968 186.5832 L239.0739 186.5176 L238.6482 186.5844 L238.1156 186.7417 L237.3441 187.499 L236.9573 187.8498 L236.5681 188.2656 L236.3087 188.6633 L236.1251 189.0734 L235.8946 189.8931 L235.834 190.031 L235.7396 190.0872 L235.5179 190.0435 L235.3163 189.918 L235.0584 189.7227 L234.7002 189.1514 L234.5375 188.7219 L234.466 188.3474 L234.4407 187.8174 L234.474 187.2961 L234.3833 186.1918 L234.2524 185.4395 L234.0792 184.8127 L233.717 184.269 L233.2073 183.8132 L232.341 183.2164 L231.6655 182.7557 L230.8746 182.3237 L228.8886 181.4385 L227.913 181.0127 L226.7037 180.2592 L226.5981 180.1393 L226.5876 179.9689 M233.958 216.3029 L234.3977 213.0495 L236.8597 213.1806 L240.5989 213.7673 L240.7355 218.2867 L233.958 216.3029 M237.8116 263.1317 L237.902 262.9251 L238.0052 262.7822 L238.2329 262.7509 L238.6205 262.8159 L239.2398 263.0287 L239.5912 263.2939 L239.994 263.6085 L240.1519 263.8119 L240.1752 264.1434 L240.1463 264.3905 L239.9575 264.5759 L239.5663 264.8399 L239.3832 264.8948 L239.0735 264.9584 L238.7719 265.0402 L238.4883 264.9928 L238.345 264.8505 L238.1743 264.6245 L237.965 264.1577 L237.8493 263.4525 L237.8116 263.1317 M250.4927 52.6115 L250.6063 52.5591 L251.4136 51.9177 L252.7466 51.1838 L253.4784 50.4656 L253.0808 49.5962 L252.9868 49.4713 L253.1948 49.3526 L253.5507 49.2677 L253.6716 49.1346 L253.7282 48.412 L253.9378 47.5795 L254.2523 47.4152 L254.7463 46.7663 L254.8993 46.657 L255.2026 46.6638 L255.2925 46.9474 L255.4347 48.3395 L255.3881 48.3745 L254.8479 48.5775 L254.6005 48.8779 L254.2334 50.761 L254.0804 51.1944 L254.0105 51.7034 L253.8824 52.1519 L253.8796 52.4947 L253.5141 53.757 L253.1314 54.3515 L252.3667 54.8593 L251.8032 54.1048 L250.4927 52.6115 M252.8619 211.4228 L258.8739 213.4958 L260.7378 214.2093 L262.5885 214.6537 L263.9734 215.1519 L264.3726 215.6025 L264.428 215.665 L264.3513 216.0064 L264.4027 216.3335 L264.2698 216.7124 L263.9236 217.1419 L263.5946 217.9327 L262.7584 218.3834 L262.1953 219.0039 L262.6263 219.8285 L262.6677 220.7292 L263.0625 222.236 L263.3195 223.5057 L261.9507 224.0899 L261.6471 222.7335 L261.5371 221.4839 L261.2258 221.0575 L261.0664 220.5201 L261.1812 219.7692 L261.0141 218.8884 L260.4382 218.3316 L259.9245 217.894 L259.2414 217.6325 L258.6052 217.8148 L257.8658 217.5863 L257.3352 217.2917 L256.9999 217.2143 L256.8159 217.1188 L256.144 217.1381 L255.5452 217.0744 L254.2684 216.7149 L253.247 216.1569 L252.9129 214.3953 L252.9253 213.4715 L252.8691 211.6568 L252.8619 211.4228 M259.096 212.7224 L259.7711 210.7717 L265.8859 212.3092 L265.3606 214.5976 L259.096 212.7224 M260.1374 297.5404 L260.2691 297.2627 L260.7993 297.2871 L261.1282 297.1236 L261.5274 296.8502 L261.813 296.5775 L262.4022 296.2349 L263.4103 296.0346 L263.9685 296.1494 L264.428 295.468 L264.4866 295.116 L264.4907 295.0923 L264.8794 294.9712 L266.2153 294.9013 L266.8338 295.1416 L267.4547 295.5716 L267.1081 295.8568 L266.4884 295.7781 L265.9727 295.8462 L265.6759 295.6652 L265.4799 295.5454 L264.9208 295.7688 L264.8344 296.2337 L264.7967 296.4384 L265.1794 296.5538 L265.8205 296.4253 L266.3257 296.5963 L266.7715 296.9788 L267.3362 297.1929 L268.8588 297.2041 L271.1677 297.1205 L271.3015 297.1155 L271.3372 297.1448 L271.8835 297.586 L271.8983 297.5979 L272.0807 297.8543 L272.1606 298.1838 L270.4689 299.3539 L270.4328 299.3789 L270.0858 299.5143 L269.5375 299.5467 L267.3884 299.3589 L266.3964 299.231 L265.1959 299.1505 L264.8051 298.982 L264.1738 298.4859 L263.4986 298.2275 L262.8323 297.8025 L262.3881 297.7139 L261.7993 297.7401 L261.3712 297.722 L261.1322 297.6459 L260.5358 297.8431 L260.2691 297.6921 L260.1374 297.5404 M265.3052 290.8681 L265.5341 289.6218 L265.7076 289.3291 L265.916 288.9772 L266.4092 288.8817 L268.0543 289.0414 L269.4307 289.1063 L270.0958 289.1744 L270.4729 289.3634 L272.6269 289.5176 L273.8988 289.6443 L274.094 290.3819 L273.9928 290.7289 L273.7446 290.6596 L273.5161 290.6241 L273.2197 290.6128 L272.5943 291.3136 L272.3505 291.5864 L271.0473 292.1174 L269.9681 292.2878 L269.4476 292.3702 L268.3298 292.8956 L265.7988 294.0863 L265.7277 293.8617 L265.4702 293.0491 L265.459 292.9449 L265.3634 292.0494 L265.3052 290.8681 M267.5704 221.4264 L267.6013 220.7442 L267.8009 219.9109 L268.3696 218.8597 L268.666 218.188 L268.9724 217.9009 L269.5074 217.8709 L269.838 217.9571 L270.2071 218.007 L270.7199 217.63 L271.0384 217.5751 L271.187 217.5432 L271.3131 217.5164 L274.6149 218.4327 L276.4303 219.1799 L277.3573 219.5613 L278.8959 220.0188 L280.9735 220.8984 L282.9102 221.4633 L283.8231 221.5819 L284.3653 221.5875 L285.1055 221.595 L286.2698 221.6836 L286.7229 221.9364 L287.1281 222.0694 L287.8265 222.2161 L288.3077 222.6461 L289.0166 223.0288 L289.4122 223.0912 L289.7624 223.2092 L290.5548 223.7404 L290.7339 224.0437 L290.7597 224.2466 L290.7906 224.4913 L290.6552 225.3608 L290.413 226.915 L290.213 228.0117 L290.164 228.4892 L289.7761 228.4842 L287.484 228.4568 L286.7197 228.508 L285.6658 228.9099 L284.3408 229.3406 L280.2349 229.9754 L279.4867 230.0385 L277.9308 230.2288 L274.1233 230.305 L273.1193 230.1458 L272.0084 229.9205 L271.5352 229.7189 L271.5079 229.0179 L271.0934 228.7514 L270.2765 228.4655 L270.0492 227.8101 L269.4632 226.4512 L268.7379 224.8589 L268.4351 224.2079 L267.9286 222.7391 L267.5704 221.4264 M277.2075 101.5627 L277.3898 101.1362 L277.7115 100.8746 L278.3372 100.5998 L278.6834 100.1702 L278.859 99.665 L279.892 99.6719 L282.429 99.8392 L283.3347 99.9747 L285.0882 100.1696 L286.3996 100.508 L287.8177 100.5848 L288.4475 100.8777 L289.5283 101.554 L290.0524 102.1472 L291.0263 103.0233 L291.8424 103.6552 L285.1746 105.8058 L281.7049 106.9904 L280.4221 107.267 L278.9232 107.6461 L278.726 107.623 L278.1959 107.5618 L277.842 107.0778 L277.4906 106.105 L277.4525 104.7805 L277.389 104.2678 L277.3814 103.3543 L277.3267 102.4307 L277.2075 101.5627 M287.8482 1.6822 L287.9864 1.3768 L288.194 1.2262 L288.6957 1.2806 L288.9354 1.6322 L288.9712 2.2931 L288.8736 2.5311 L288.6784 2.6967 L288.1495 2.6436 L287.931 2.3219 L287.8482 1.6822 M297.3604 15.164 L297.5086 14.8954 L298.1099 14.7324 L298.4444 14.8816 L298.6999 15.2083 L298.7661 15.6574 L298.5448 15.9623 L298.3123 16.0672 L298.0111 16.011 L297.4098 15.4682 L297.3604 15.164 M297.3837 125.9741 L297.75 125.6719 L298.2376 125.6088 L298.3444 125.5951 L302.6475 126.7965 L304.6858 127.3953 L305.1637 127.5932 L305.7585 127.8398 L306.0348 128.0459 L306.1726 128.3824 L306.2838 128.9107 L306.2208 129.3752 L305.8449 129.5082 L302.7375 129.4252 L300.7193 129.0618 L299.9847 128.7858 L297.6625 128.0384 L297.4335 127.8417 L297.3922 127.0756 L297.3837 125.9741 M301.335 179.0231 L301.4763 178.7272 L302.0836 178.7584 L303.3174 178.5636 L304.3223 178.1485 L305.1332 177.624 L305.6103 177.2133 L305.5738 177.1852 L305.7605 176.9991 L305.4541 177.0915 L305.4027 177.0509 L304.9139 177.2545 L303.67 177.5566 L303.5359 177.3219 L305.8959 175.7786 L306.6313 175.4303 L306.7783 175.5052 L307.0148 175.6263 L308.0827 174.9939 L309.2113 174.206 L309.4595 174.2085 L309.5969 174.2097 L309.7784 175.1793 L309.8471 175.5451 L309.5354 175.7281 L308.1317 176.18 L307.2891 176.7176 L307.4899 177.0266 L309.1776 176.4191 L309.7527 176.4129 L310.1552 176.3249 L310.3524 176.2818 L310.6042 176.8025 L310.6058 176.9554 L310.6102 177.325 L309.7636 177.5803 L308.2912 178.1803 L306.8281 178.6185 L306.5794 178.8164 L306.2405 178.9794 L306.3501 179.2915 L306.6461 179.3178 L307.4988 179.171 L309.1933 178.317 L310.5439 178.0436 L310.8765 178.1497 L311.5131 178.9613 L311.162 179.0574 L310.7355 179.4089 L310.0399 179.5987 L309.6712 179.8184 L308.1619 180.0663 L307.0325 180.3054 L306.7224 180.5008 L306.9554 181.2081 L306.9056 181.667 L307.5996 181.3623 L308.3016 181.2637 L308.9426 181.0889 L312.4328 179.8815 L312.6577 179.7816 L313.0662 179.5993 L313.2144 179.6336 L313.6204 180.0288 L314.4859 179.7679 L315.141 180.5351 L315.9463 180.6188 L317.6877 183.1384 L316.4708 184.2016 L314.7173 182.6184 L314.1767 182.1133 L314.1208 181.7968 L314.0072 181.1544 L313.7915 180.8154 L313.4465 180.7455 L313.3618 180.7517 L313.1268 180.7686 L312.3059 181.0576 L311.6279 181.4909 L312.1376 181.7668 L312.9344 181.8855 L313.5931 181.6963 L313.7939 182.4754 L313.4501 182.6721 L312.6119 183.0947 L311.5797 183.5192 L310.611 183.9774 L309.388 184.4581 L307.9667 184.9763 L307.6992 184.5368 L307.4381 183.9924 L307.3867 183.6653 L307.2658 183.2926 L307.2265 183.5486 L307.2871 183.8632 L307.6542 184.7197 L307.704 185.0724 L304.8123 185.7966 L304.4436 185.9308 L304.1829 186.0188 L304.2954 185.6393 L304.2275 185.2847 L304.015 184.9401 L303.9901 184.5543 L304.0761 184.3938 L304.3444 183.8944 L304.7295 182.4991 L304.8143 180.351 L305.0906 179.7098 L305.6232 179.5406 L305.5517 179.1617 L304.8777 179.0793 L304.4845 179.1417 L304.2709 179.2984 L303.9885 179.5063 L302.3647 179.5431 L301.6555 179.3621 L301.335 179.0231 M302.5555 16.58 L302.8359 16.1609 L303.5138 16.7243 L304.2267 16.7143 L304.2504 17.2621 L304.454 17.5482 L305.532 17.264 L306.7501 17.5832 L307.4743 17.5032 L308.2743 18.77 L308.3438 19.0236 L308.0639 19.2347 L308.2012 19.5314 L308.5129 19.8918 L308.9374 19.8137 L310.0519 19.8362 L310.6492 20.3902 L311.5167 21.0036 L313.1023 22.038 L313.5517 22.6264 L313.9313 23.0218 L314.6008 23.5296 L314.5261 23.9568 L314.1285 24.236 L313.2758 23.6857 L312.8152 23.2816 L312.4525 23.0274 L312.2742 22.4702 L311.7143 22.0811 L311.1464 22.364 L310.764 22.0948 L310.3704 21.7188 L309.8957 21.3159 L309.7499 21.1104 L308.7153 20.8456 L307.7767 19.968 L307.2024 19.8862 L306.4055 19.6507 L305.5681 19.2997 L305.483 19.3165 L305.2986 19.3534 L304.7605 19.319 L304.1914 19.0167 L303.4082 18.5432 L303.3134 18.2284 L302.676 17.7437 L302.6628 17.6144 L302.5555 16.58 M303.1519 33.4808 L307.9779 29.6027 L309.874 30.0767 L310.8219 31.8437 L310.3909 34.4289 L306.7714 37.3589 L303.1519 33.4808 M304.1829 186.0438 L304.4436 185.9558 L304.8123 185.8216 L307.704 185.0974 L307.7956 185.6093 L308.008 186.0244 L308.2647 186.8647 L308.5655 187.5901 L308.7266 187.8199 L308.6832 187.293 L308.333 186.3254 L308.1819 185.5082 L307.9667 185.0013 L309.388 184.4831 L310.611 184.0024 L311.5797 183.5442 L312.6119 183.1197 L313.4501 182.697 L313.7939 182.5004 L314.1433 182.496 L315.4165 183.6066 L315.9274 184.0498 L316.1607 184.5724 L316.1447 184.6092 L315.9519 185.0481 L315.7205 185.2691 L315.0406 185.9196 L314.0441 186.537 L313.522 186.6968 L312.8545 186.9009 L311.554 187.243 L310.6102 187.8355 L309.2957 188.486 L306.5698 189.3144 L306.0834 189.4261 L305.7003 189.5141 L305.1424 188.4148 L304.2171 186.3104 L304.1829 186.0438 M309.8704 18.9324 L310.6459 17.7243 L311.2902 17.9854 L311.6287 18.3596 L311.7231 18.6276 L311.848 19.2278 L312.6465 19.6769 L312.5175 19.9755 L312.1677 20.3834 L311.497 19.3977 L311.2797 19.6026 L310.8596 19.7431 L310.3672 19.6045 L310.17 19.2153 L309.8704 18.9324 M313.4144 287.2104 L313.9646 286.9982 L314.5831 286.9795 L315.3462 287.3914 L316.1575 287.0232 L316.6073 287.3477 L317.4267 287.46 L318.1616 287.641 L318.6235 288.3025 L318.0251 288.8018 L317.768 289.145 L317.2258 290.025 L317.6757 290.6927 L317.744 291.2232 L318.1938 291.4104 L319.5633 290.9049 L320.5272 290.6178 L321.2341 290.3994 L322.3631 290.6609 L323.4551 290.9174 L323.9491 290.8362 L323.9813 290.3744 L324.3267 290.0437 L325.877 290.468 L326.9132 290.5929 L327.3951 290.9673 L327.4272 291.3729 L327.4915 292.4713 L327.2746 293.2014 L327.7044 293.9191 L327.4152 294.4932 L326.7364 294.6243 L326.138 294.3497 L325.9372 294.5993 L325.9814 295.0923 L326.3147 295.3731 L326.4914 295.9909 L326.3268 296.434 L326.9332 297.1829 L326.1822 297.4574 L325.6882 296.8396 L325.2062 295.9223 L324.3347 295.5728 L323.5997 295.7164 L322.4189 296.1157 L321.4992 296.5963 L320.724 296.3466 L319.8123 295.9785 L319.246 295.6103 L318.989 295.2171 L318.5633 294.3746 L317.9729 293.9004 L317.7078 294.0876 L318.2942 294.824 L319.1095 296.2156 L319.4308 297.108 L319.736 297.083 L320.1015 296.7585 L320.8566 296.6836 L321.4671 296.9457 L324.8769 297.8069 L324.8207 298.3374 L323.4069 300.6213 L322.2422 301.7571 L320.1216 303.0801 L319.724 303.1674 L319.5392 302.3375 L319.0492 301.1955 L318.7038 300.2656 L318.4227 299.236 L318.3986 298.4497 L318.3825 297.1267 L318.2058 295.3918 L317.8564 294.8676 L317.3825 294.7553 L317.0451 294.7054 L316.9246 294.3622 L316.6194 293.6507 L316.4105 293.2326 L315.9527 292.3652 L315.6715 292.0469 L314.9848 291.6974 L314.8482 291.2169 L314.3823 289.8814 L314.1012 289.2823 L314.1293 288.7269 L313.575 288.2152 L313.4144 287.2104 M318.7701 153.2056 L318.7757 150.4603 L318.7769 149.7298 L318.7773 149.6068 L318.9059 148.8364 L319.2179 148.2988 L319.7043 147.9317 L320.3124 147.6882 L320.4774 147.6557 L320.8959 147.5727 L321.3209 147.6145 L321.6157 147.8686 L321.9386 148.3007 L322.1655 148.1571 L322.2631 147.7325 L322.8487 146.4463 L323.0708 146.1273 L323.5515 145.8694 L323.7246 145.6721 L323.5057 144.6382 L323.5234 143.9932 L323.5559 143.9002 L323.7226 143.4219 L324.0335 143.0205 L324.3355 142.8138 L324.4773 142.7763 L324.8689 142.6727 L327.3321 142.2531 L328.5076 142.0983 L328.759 142.1726 L328.9948 142.2425 L329.2233 142.4342 L329.2703 142.7332 L329.2225 143.0423 L329.1213 143.4444 L328.6683 144.8917 L328.159 146.3752 L327.8694 149.3309 L327.7843 150.5946 L327.6646 153.9835 L327.5847 154.9463 L327.7582 155.6892 L328.1907 156.469 L328.5691 157.074 L328.8109 158.3258 L328.8301 158.7373 L328.6671 158.962 L328.4546 159.1119 L328.116 159.3504 L326.0316 160.0771 L323.6503 160.7751 L323.5294 160.8107 L323.5126 160.8157 L323.0748 160.8793 L322.729 160.7351 L322.5302 160.4423 L322.4527 159.9497 L322.4004 159.6163 L322.1643 158.8353 L321.4723 157.6035 L320.859 156.7281 L320.4803 156.2655 L320.0618 156.1269 L319.0858 156.1906 L318.9569 156.1993 L318.7701 153.2056 M324.5279 271.0522 L324.5974 270.8806 L324.7833 270.641 L324.9829 270.5093 L325.1444 270.4874 L325.2942 270.498 L325.4609 270.596 L325.5492 270.699 L325.6641 270.963 L325.73 271.2139 L325.7424 271.4467 L325.7191 271.6264 L325.6408 271.7868 L325.5054 271.8879 L325.3307 271.9154 L325.099 271.8829 L324.8183 271.7618 L324.6889 271.637 L324.597 271.4897 L324.5468 271.2594 L324.5279 271.0522 M324.5419 186.718 L324.9436 186.3878 L325.9111 185.8372 L325.899 185.3278 L325.9565 185.0799 L326.1075 184.7778 L326.726 184.3376 L327.4734 183.8064 L328.1747 183.2395 L328.3381 183.1072 L329.0161 182.6596 L329.631 182.1957 L332.3139 179.7011 L334.1076 178.3707 L334.0967 178.0617 L333.6372 177.8788 L331.8416 177.3781 L331.4917 177.1714 L331.5018 176.9086 L332.0833 176.6064 L332.6621 176.2144 L333.5292 175.4577 L333.3513 175.1799 L333.2991 174.8578 L333.9353 174.1099 L334.2196 173.5024 L335.0245 172.9998 L335.9836 172.2863 L337.9315 170.6887 L338.611 170.2523 L339.8995 169.5087 L340.1657 169.9782 L339.6806 170.424 L338.4857 171.3685 L337.9399 171.888 L337.7303 172.3687 L337.7564 173.3644 L337.3917 174.5413 L337.6206 175.0619 L337.8278 175.444 L338.0745 175.4278 L338.2805 175.2592 L339.0829 175.4621 L339.4926 175.4371 L339.8742 175.1949 L340.0332 174.8166 L340.3055 174.7448 L340.7702 174.8141 L341.1112 175.2442 L341.4947 175.4846 L341.8883 175.6101 L342.1727 175.5083 L342.2691 175.3628 L342.1341 174.6112 L341.8614 174.103 L341.7397 173.5424 L341.9646 173.0279 L342.3217 172.772 L342.8446 172.4898 L343.2876 172.4199 L343.5455 172.4361 L344.2925 172.3181 L345.8311 172.0278 L345.9167 171.4628 L345.5307 171.3523 L344.8929 171.539 L343.1318 171.7881 L342.3422 172.0384 L341.6369 172.0927 L340.834 171.9978 L340.775 171.6208 L340.9827 170.9234 L341.2811 170.1149 L341.6835 169.7909 L342.0217 169.5949 L342.5751 169.5075 L344.1925 169.6379 L345.5797 169.3795 L347.2095 169.1847 L348.0019 168.8894 L348.5955 168.4717 L349.3847 167.0121 L350.5675 165.126 L353.822 161.558 L354.2513 160.8625 L354.4232 160.6927 L354.8023 160.5759 L355.3963 160.5797 L356.1426 160.172 L356.3362 159.7437 L356.5583 159.3903 L357.1414 158.2303 L358.1495 156.6732 L359.215 154.8688 L361.0312 151.1665 L361.6598 151.1983 L361.3473 152.1342 L359.7135 155.1192 L359.2893 155.4139 L359.2399 156.2568 L358.958 156.8411 L359.5396 157.5504 L360.5219 158.5038 L361.8284 159.9684 L361.6433 160.27 L361.3348 160.1826 L360.9151 159.9247 L359.8492 158.6954 L359.3034 158.8265 L358.6945 158.485 L358.4523 158.603 L358.2672 159.0132 L358.6516 159.5545 L359.4026 160.3624 L361.2417 161.4643 L362.3927 162.0843 L364.2177 162.5919 L365.0612 161.7122 L365.1423 161.3282 L365.4258 160.8669 L365.5262 160.3849 L365.7114 158.9639 L365.662 158.4931 L365.5588 158.3171 L365.3114 158.2197 L364.7925 158.2734 L364.3206 158.1547 L363.688 157.8794 L363.2707 157.6041 L362.9297 157.2713 L362.9064 157.2401 L362.91 157.2357 L362.5658 156.6133 L360.8449 155.0718 L360.7083 154.8145 L360.2472 155.7061 L360.9955 156.5371 L362.0582 157.4942 L363.6936 158.8902 L362.9381 159.6738 L359.4942 156.5408 L360.2938 155.0618 L360.5733 154.4612 L360.8802 153.9242 L361.526 152.3334 L361.7778 151.5548 L362.1879 151.2795 L362.7928 151.7752 L362.8526 151.9763 L362.5827 152.098 L362.0742 152.1785 L361.9694 152.5588 L362.3714 152.8816 L362.2951 153.1894 L362.0819 153.3479 L361.7698 153.7781 L363.1337 154.995 L364.1466 156.2499 L364.8599 156.7512 L365.0957 156.6289 L365.505 155.5188 L365.2359 155.0668 L364.8403 154.7484 L364.6194 154.533 L364.527 154.1952 L365.1664 154.1171 L365.7785 154.4068 L366.2741 154.5673 L366.6765 154.6403 L367.4219 154.7334 L367.2312 155.1779 L367.3219 155.6124 L367.9955 155.7167 L368.6871 156.0794 L369.314 156.2474 L369.7136 156.1562 L370.0253 156.2923 L371.8989 158.6355 L372.507 159.4771 L373.0299 160.9686 L373.2319 162.4495 L373.2243 163.8493 L373.0568 164.5891 L372.0527 167.23 L371.6692 168.0822 L371.0483 169.254 L370.551 170.2754 L369.9317 171.3848 L369.3859 172.6015 L368.2738 174.6861 L366.9866 176.8836 L365.6716 180.4315 L365.1571 182.3961 L364.6318 184.0168 L363.645 186.5863 L362.9735 188.0739 L362.3249 188.5965 L361.5216 188.8936 L360.3175 189.2033 L355.3232 190.0535 L353.6806 190.3813 L353.2665 190.5598 L352.5733 191.0555 L351.615 191.6616 L351.3825 191.7103 L350.7704 191.8402 L350.2406 191.7871 L349.6269 191.5087 L349.2028 191.1672 L349.1791 191.1422 L348.4955 190.415 L348.2441 190.2214 L347.191 190.189 L345.4785 190.1809 L343.8041 189.6215 L343.0639 189.2532 L342.5992 189.0216 L341.1035 188.1551 L340.7421 187.8373 L340.1681 187.1781 L339.9625 187.1307 L338.3532 187.8167 L336.592 189.1021 L336.396 189.2451 L334.7859 189.5722 L333.5139 189.227 L332.3352 188.3724 L331.8207 187.3498 L330.1728 187.6819 L329.284 187.9416 L327.3859 188.7351 L326.6846 189.1758 L325.5279 189.7845 L325.248 189.3737 L325.4328 189.1802 L325.8284 188.9929 L326.0641 188.6539 L326.3926 188.2556 L327.1614 187.8105 L328.0437 187.0064 L328.1357 186.6169 L328.1048 186.0594 L327.7188 185.7679 L327.1586 185.987 L325.9147 186.979 L325.1396 187.3117 L324.6343 187.3061 L324.5419 186.718 M326.0215 275.5401 L326.134 275.1532 L326.5236 274.735 L327.3309 274.3419 L327.8369 274.1796 L327.9486 274.1939 L329.8933 274.4854 L331.7448 275.1657 L333.5039 275.3467 L334.8172 275.4153 L335.6325 275.3966 L336.3997 275.5526 L336.9218 275.8709 L338.1708 276.4263 L339.2673 276.8819 L340.4079 277.5247 L341.5485 278.4983 L342.8257 279.6529 L343.2756 280.2707 L343.7334 280.2645 L344.7415 280.2145 L345.6653 280.3394 L346.4043 280.3893 L347.6051 280.5203 L347.8541 280.0835 L348.2517 278.698 L348.8582 277.9117 L349.5329 277.5559 L350.9668 277.3937 L352.4407 277.7307 L354.3083 278.4796 L356.0193 279.5655 L357.7985 280.8449 L359.1319 282.2366 L360.3649 283.0416 L361.5256 283.7967 L362.0638 284.3147 L362.598 284.7204 L362.5899 285.3445 L362.3971 285.7813 L362.0879 286.1121 L361.3328 286.4615 L358.8869 287.304 L356.3968 287.9281 L353.9107 288.4898 L351.1515 288.9391 L350.2519 289.0202 L349.1193 289.0577 L347.316 289.3322 L345.6452 289.7379 L343.8017 289.9001 L341.3678 290.0811 L338.8616 290.2871 L337.729 290.3994 L336.3515 290.4618 L334.8413 290.3994 L333.2228 290.2371 L331.2267 289.8939 L329.2988 289.7691 L328.351 289.7941 L327.7164 289.5195 L327.2626 288.8143 L327.379 287.9156 L327.624 287.0357 L327.3951 285.7064 L327.3068 284.3771 L327.2746 282.9355 L327.0256 281.6874 L326.624 280.3955 L326.2304 278.8603 L326.2585 278.0614 L326.6641 277.2064 L326.5396 276.7134 L326.2746 276.1829 L326.0215 275.5401 M327.1859 272.2137 L327.4188 271.7394 L327.9088 271.2463 L328.8285 271.1777 L329.6961 271.4336 L330.9009 271.7331 L331.5235 271.9204 L332.1299 271.8455 L332.877 271.677 L333.4995 271.8392 L334.0939 271.8517 L334.7365 271.4897 L334.8128 271.9953 L334.7847 272.4945 L334.7325 273.6366 L335.3871 274.1796 L336.0619 274.5353 L337.2507 275.0471 L338.0901 275.303 L338.8773 275.3841 L339.2227 275.434 L339.6725 275.6774 L340.0701 276.4138 L340.5079 276.8882 L341.0983 277.2127 L341.4919 276.9131 L342.0783 277.0317 L342.5321 277.1378 L342.8414 276.626 L343.231 276.1517 L343.9178 275.7835 L344.3676 275.5027 L344.9299 275.4902 L345.4721 275.484 L346.0544 275.7273 L346.3677 276.0956 L346.5725 276.5761 L346.4721 277.2439 L346.0665 277.7993 L345.6849 278.3236 L345.2672 278.7791 L344.3395 279.2847 L343.3836 279.5905 L343.0703 279.5905 L342.6526 279.191 L342.5522 278.8977 L342.3032 278.3111 L341.8012 278.0552 L341.1505 278.0552 L340.1023 277.2876 L339.532 276.9381 L338.9938 276.4575 L338.1785 276.0144 L337.1945 275.6774 L336.343 275.3467 L335.5839 275.1033 L334.8048 275.3903 L333.4915 275.3217 L331.7725 275.1345 L329.8808 274.4604 L327.9361 274.169 L327.8526 273.9986 L327.9128 273.3932 L327.2541 272.6693 L327.1859 272.2137 M327.4232 308.2096 L327.6722 307.3671 L328.1381 307.0239 L328.7928 306.8055 L330.4194 306.7244 L331.1825 306.4935 L331.5038 305.857 L331.7407 305.0083 L331.9215 303.0551 L331.8653 302.3063 L330.6644 301.6947 L329.4916 301.3016 L329.3591 300.5964 L329.4675 299.7227 L330.0017 299.2921 L330.7809 299.0675 L331.7126 299.3733 L332.4516 299.211 L333.3071 298.6431 L334.3433 298.3061 L335.8253 298.0128 L337.1427 297.7944 L338.4038 297.5511 L339.7412 297.289 L340.3919 297.1517 L340.4682 296.7398 L340.3035 296.2655 L339.6087 295.7413 L338.958 295.1235 L338.3596 294.0689 L338.1749 293.4635 L338.4399 292.9019 L339.1026 292.4276 L339.9219 292.0407 L341.91 291.4229 L343.9182 290.9174 L345.6693 290.4743 L347.5288 290.1435 L348.5048 290.1123 L349.6093 290.337 L350.2639 290.2808 L351.2118 289.9563 L352.6536 289.5569 L353.8946 289.5694 L354.5051 289.4633 L355.8426 289.0265 L356.8386 288.8018 L358.0073 288.5522 L359.7584 288.0841 L361.7023 287.5349 L364.092 286.7174 L365.8994 286.0372 L367.2729 285.8187 L368.9276 285.669 L370.1366 285.6939 L371.8395 285.6815 L373.1287 285.7251 L373.6829 286.0497 L374.5665 286.992 L375.8558 287.9468 L377.0687 289.2636 L379.0768 291.1545 L380.4544 292.4276 L381.101 293.1952 L381.1292 294.2748 L380.6633 295.5915 L379.9725 296.7086 L379.4463 298.7742 L379.1009 300.4404 L378.876 303.0863 L378.4704 305.9631 L378.4623 306.637 L378.6792 306.9553 L379.3098 307.0801 L379.9765 307.2985 L380.4584 307.9787 L380.6914 308.8274 L380.6673 309.6324 L380.607 311.0489 L380.346 312.3843 L379.9805 313.7946 L379.4865 315.2485 L379.0286 316.4154 L378.5226 317.3701 L377.9242 318.3186 L377.1329 319.0986 L376.4261 319.7101 L375.5545 320.3029 L374.8276 320.5276 L374.2412 320.4215 L373.6829 320.1157 L372.9038 319.4044 L372.5303 318.8303 L372.3817 317.7258 L372.5022 317.1143 L372.3536 316.6962 L372.0282 316.5964 L371.3294 316.5402 L370.6105 316.4341 L370.0602 316.2469 L368.9317 315.2048 L368.1083 314.1003 L366.6584 312.5403 L366.1363 312.1721 L365.6744 312.4404 L365.819 313.0707 L366.1765 313.7696 L366.6986 315.1237 L367.8714 316.8834 L368.4176 317.4575 L369.5381 317.6509 L370.004 318.0378 L370.3173 318.7242 L370.1165 319.6727 L369.4538 321.345 L368.7831 322.593 L367.7991 324.3651 L367.2448 324.8831 L365.7387 325.9376 L363.6462 327.3166 L362.5096 328.0092 L360.9473 328.5022 L359.2403 328.8641 L358.1238 329.1886 L356.8988 329.1886 L355.7863 328.7331 L354.726 328.1153 L354.1678 328.1777 L353.2641 328.5833 L352.3805 328.6956 L351.4688 328.6457 L350.4527 328.2838 L349.3281 327.8657 L348.0911 327.1294 L347.32 326.3994 L347.1272 325.7067 L346.9224 324.2216 L346.5609 323.9845 L346.2195 324.1093 L345.7737 324.5149 L345.3158 325.3199 L344.6491 325.7317 L343.8539 325.5507 L343.2635 324.9455 L342.8016 324.2154 L342.4321 323.3356 L341.7052 322.8551 L340.3477 320.9394 L339.689 319.4543 L339.3316 318.4122 L339.0584 317.7071 L338.5564 317.47 L337.1989 317.9817 L335.8253 318.2999 L334.6084 318.6181 L333.9577 318.5495 L333.6043 317.9567 L333.6766 317.2391 L334.2148 315.9287 L335.3835 314.1128 L336.4318 311.9911 L336.7692 310.7993 L336.5402 310.4249 L334.5321 310.6183 L332.8292 310.5621 L331.311 310.2564 L329.1141 310.6682 L328.1622 310.4997 L327.5397 309.8196 L327.4353 309.2642 L327.4232 308.2096 M328.2562 153.4922 L328.3839 152.5001 L328.394 151.5892 L328.5687 150.067 L328.7723 147.1768 L329.037 145.5972 L330.8805 142.8088 L331.3339 142.4136 L331.8492 142.3711 L332.1396 142.707 L332.1335 143.1397 L331.3231 144.7624 L330.9833 145.3468 L330.8552 145.7951 L330.8399 149.4813 L330.6379 153.9998 L330.8078 153.9429 L330.9435 153.8974 L331.0977 152.4976 L331.2496 149.9777 L331.2737 147.8786 L331.5195 146.033 L331.6841 145.5498 L331.8773 145.3681 L332.1179 145.4087 L332.3874 145.7514 L332.2838 146.6961 L332.146 149.6443 L332.2994 150.1144 L332.7079 150.4079 L333.0902 150.4616 L333.2212 150.6451 L333.1593 152.8148 L332.7276 153.0245 L332.2846 153.3548 L332.0018 153.4179 L331.8922 153.7307 L332.0637 154.0884 L332.201 154.8133 L331.8082 155.068 L331.3275 155.216 L331.2218 155.3053 L330.9058 155.2828 L330.7989 155.0586 L330.9801 154.8376 L331.2741 154.719 L331.4423 154.5717 L331.4668 154.4237 L331.0435 154.1839 L330.7825 154.3151 L330.6162 154.4836 L330.5696 154.699 L330.5033 155.0037 L329.9676 155.3608 L329.1101 155.3995 L328.561 155.0324 L328.443 154.8226 L328.2562 153.4922 M328.992 156.7481 L329.1229 156.4453 L329.1378 156.411 L329.6479 156.1475 L330.6013 155.8322 L331.7102 155.5325 L334.6477 154.7502 L334.818 154.8258 L334.2051 155.7579 L333.6766 156.7225 L333.5674 156.7706 L331.2853 157.7702 L330.2001 158.186 L329.7017 158.151 L329.49 157.9231 L329.102 157.2907 L328.992 156.7481 M331.2251 162.6986 L333.8124 161.4856 L333.9441 161.352 L334.257 161.0348 L334.3369 160.5672 L334.6216 160.2157 L334.7714 159.7999 L335.2912 159.5358 L335.7731 159.1755 L336.2105 158.6411 L335.2891 158.9452 L334.6341 159.1399 L334.3088 159.1449 L334.1485 159.1474 L334.0742 159.1487 L334.5638 157.719 L334.9345 156.7225 L335.4783 155.5288 L335.9707 154.6953 L336.1816 154.4012 L336.4679 153.9854 L336.7065 153.607 L338.5524 152.5488 L339.4376 152.1248 L339.9653 152.0924 L340.1766 152.2129 L340.2573 152.2591 L340.4774 152.6056 L340.7477 153.032 L341.1983 154.2795 L341.324 154.8276 L341.106 155.1411 L340.6887 155.7972 L340.3007 156.1425 L340.1906 156.416 L340.4445 156.4441 L340.5252 156.3929 L341.5313 155.7155 L342.3213 155.2609 L342.7024 155.4507 L342.9551 155.7236 L343.276 156.145 L342.6836 156.4828 L341.9968 156.8749 L341.7795 157.1877 L341.808 157.335 L341.8674 157.6397 L342.0245 158.0979 L342.3916 158.628 L342.5691 158.8571 L343.2189 159.2211 L343.3948 159.3198 L344.1242 159.1649 L344.558 159.1131 L344.7178 159.1743 L344.8897 160.0883 L345.0283 161.1509 L345.1235 161.4631 L345.3596 162.1636 L345.6789 162.2835 L346.0171 162.128 L347.0722 160.8 L348.363 159.4902 L349.0759 159.2261 L349.2004 159.1799 L350.4161 158.8877 L350.7692 158.9345 L351.0728 159.2448 L351.2318 159.464 L351.1535 159.7474 L351.1451 159.7786 L350.8712 160.1626 L350.3571 160.8238 L350.5635 160.9842 L351.1423 160.9156 L351.6648 160.742 L351.9604 160.3256 L352.5399 159.4221 L352.8528 158.6342 L353.1167 158.1491 L353.2769 157.7258 L353.5043 157.6222 L353.8428 157.7221 L353.8517 158.3914 L353.7448 159.2392 L353.7127 159.4927 L353.3846 160.579 L352.6729 161.7141 L348.4678 166.532 L347.1641 167.8112 L346.7203 168.1252 L346.385 168.2595 L345.9697 168.3244 L342.0317 168.689 L341.3293 168.4861 L341.0513 168.1452 L340.5891 167.1157 L340.528 166.8154 L340.0533 166.6262 L339.3552 166.4352 L338.7588 166.2847 L338.2877 165.9557 L337.9676 165.6486 L337.719 165.3639 L337.5744 165.0573 L337.3804 164.7239 L337.1523 163.8193 L336.9603 163.1307 L336.5643 162.9184 L336.4125 162.846 L336.3438 162.8135 L336.051 162.8254 L335.5438 162.9509 L335.1723 163.2125 L335.0233 163.3173 L332.4155 164.9075 L331.3917 164.4186 L331.2251 162.6986 M338.2994 229.9654 L338.4279 229.5035 L338.6086 229.129 L339.0022 228.9418 L339.3637 228.9917 L339.6328 228.8606 L339.9862 228.9917 L340.2192 229.2851 L340.5525 229.6034 L341.0425 229.8968 L341.4803 230.1777 L341.7775 230.5771 L342.0948 230.8331 L342.4683 231.0078 L342.8418 231.2762 L343.0185 231.5571 L343.0587 231.8505 L342.9261 232.019 L342.7093 232.1126 L342.4 232.2437 L341.8859 232.2812 L341.5325 232.1563 L341.171 231.8068 L340.8216 231.1701 L340.2513 230.4211 L339.689 229.9717 L339.2512 229.4224 L338.9339 229.2227 L338.7572 229.3912 L338.7853 229.5972 L339.0906 229.928 L339.8055 230.4461 L340.424 231.3761 L340.926 232.1001 L341.2594 232.587 L341.8176 233.6668 L342.6972 236.0387 L343.0788 237.2621 L342.882 237.6179 L342.6329 237.9549 L342.7374 238.4355 L342.9583 238.8725 L343.4402 238.9349 L343.7053 239.1845 L343.9382 239.9897 L343.9704 242.2117 L343.87 242.7298 L343.6009 243.1168 L343.2233 243.4788 L342.6972 243.51 L342.0988 242.942 L341.5164 242.4115 L341.3277 241.6874 L341.1469 240.9322 L340.5846 239.559 L340.42 239.1845 L340.0786 238.8662 L339.2994 237.8551 L339.1589 236.9625 L339.1107 235.6517 L339.1548 234.4096 L339.0303 233.7854 L338.7773 233.0676 L338.5966 231.9441 L338.2994 229.9654 M343.1591 254.5574 L343.8619 252.3167 L343.87 251.4991 L344.3037 251.0185 L345.0307 250.8687 L345.7295 251.1434 L346.4966 251.2682 L347.0027 250.9624 L347.9545 249.3958 L349.043 248.2473 L352.0472 245.6384 L354.6136 242.9857 L355.2843 242.5425 L355.7462 242.6736 L356.9671 245.4574 L357.2121 246.25 L357.5093 247.2736 L357.8989 248.5032 L358.6901 249.3271 L359.7584 250.3881 L362.2847 252.2855 L362.9032 252.6101 L363.1361 252.9658 L361.7023 254.6385 L360.0356 256.7543 L357.8828 259.7377 L357.0314 260.4117 L355.6096 261.0546 L353.7059 261.2418 L349.5892 261.3729 L344.9785 261.6163 L344.7576 261.479 L344.5768 261.2231 L344.5246 260.3181 L344.0467 258.9326 L343.7575 258.2211 L343.7093 257.2849 L343.5527 256.1801 L343.3197 255.2564 L343.1591 254.5574 M350.7909 194.1724 L350.8776 193.7155 L351.1885 193.1324 L351.6519 192.8715 L352.0415 192.6111 L352.5632 192.4326 L352.9524 192.2403 L353.2436 191.9669 L353.4131 191.6392 L353.495 191.3308 L353.4641 190.9887 L354.0565 190.8276 L354.8622 190.6547 L355.1887 191.1828 L355.357 191.3152 L355.4863 191.3464 L355.6373 191.2596 L355.8088 191.0904 L355.8317 190.729 L355.8626 190.5654 L356.0398 190.503 L357.9953 190.1834 L358.7443 189.9742 L359.2054 189.8787 L359.4596 189.8725 L359.8139 189.9642 L360.5729 190.5036 L361.4694 191.2328 L361.4955 191.3994 L361.0549 192.9276 L360.8541 193.9595 L360.9123 194.331 L361.1344 195.1313 L360.8071 195.2849 L360.3998 194.9627 L359.5524 194.4377 L358.7407 194.1393 L358.2073 194.2068 L357.6242 194.4977 L356.9274 195.3292 L356.5635 196.7668 L356.1309 197.5852 L355.7373 198.0366 L355.461 198.0534 L354.6802 198.0528 L354.0445 197.7557 L353.6268 197.2794 L353.1954 196.7874 L352.5544 196.2406 L352.0484 195.9054 L351.5921 195.381 L351.4315 194.969 L351.2467 194.8048 L350.9443 194.6082 L350.7909 194.1724 M360.0701 146.7379 L360.1412 146.3233 L360.438 146.1573 L360.777 146.1148 L361.5855 146.2091 L361.6116 145.762 L361.7003 145.2819 L361.9152 145.1683 L362.4425 145.0628 L363.1317 145.1926 L364.9676 145.4087 L366.2223 145.4948 L367.6689 145.6871 L369.3421 145.9856 L369.2923 146.3177 L368.5493 148.9862 L368.381 151.1665 L368.3626 151.8058 L368.0666 152.0518 L367.389 151.8851 L365.8516 150.7188 L365.5118 150.0339 L365.1969 149.6175 L364.7632 149.4526 L364.0981 149.1486 L363.0377 148.5317 L360.0701 146.7379 M361.9746 193.9133 L361.9787 193.0718 L362.3253 191.5536 L364.2583 186.8373 L365.4431 184.9969 L365.8218 184.2328 L366.1391 182.6427 L366.8054 180.6793 L367.387 179.1105 L367.9433 177.7439 L370.2358 172.7358 L370.6892 171.8786 L370.9495 171.5877 L371.3382 171.4641 L372.0885 171.5502 L372.7805 171.9523 L373.4195 172.4142 L375.3449 173.5992 L377.6253 174.1205 L379.2182 174.3065 L379.8817 174.3103 L380.6086 174.3546 L381.2621 174.4389 L382.0541 174.6836 L384.9398 175.9953 L385.6375 176.215 L386.7431 176.3648 L387.701 176.3673 L387.938 176.5059 L388.0934 176.8449 L388.3673 177.762 L388.8646 179.2672 L389.167 179.7897 L389.283 180.1687 L389.2758 180.3603 L389.2646 180.6662 L389.0818 181.0177 L388.7561 181.2705 L387.6781 182.0752 L387.5054 182.3468 L387.4191 182.6277 L387.4082 182.9193 L387.4605 183.3257 L387.5042 183.4643 L387.5954 183.7533 L387.5785 183.7777 L386.7688 184.9975 L386.5853 185.515 L386.601 186.0463 L386.5885 186.5826 L386.5351 186.6781 L386.362 186.9896 L385.8081 187.1712 L384.3844 187.4128 L382.8297 187.5446 L380.211 187.6107 L379.4311 187.4784 L379.0676 187.2574 L379.0531 187.1644 L379.0009 186.8304 L378.974 186.1187 L379.0459 185.6355 L378.9471 185.3671 L378.6989 185.1224 L378.1334 184.8758 L377.2261 184.7634 L376.204 184.5324 L375.2352 184.3901 L374.2749 184.1547 L374.146 184.1735 L373.8536 184.2159 L373.505 184.3701 L373.3556 184.4363 L372.9158 184.7828 L372.0845 185.6143 L372.0459 185.6767 L371.7314 186.1811 L371.6242 186.6188 L371.6334 187.1113 L371.9005 187.5127 L372.4644 187.7475 L374.1014 187.8186 L374.687 187.9023 L374.7754 187.9747 L375.0642 188.2125 L375.1111 189.1252 L375.0899 189.2008 L374.9979 189.5241 L374.693 190.1459 L374.4585 190.5635 L374.1139 191.264 L373.7882 191.9251 L373.3151 192.7497 L373.0672 193.1811 L372.4495 193.3977 L371.4394 193.4601 L370.8711 193.339 L370.584 193.1112 L369.1895 191.8533 L368.2385 190.9369 L367.2782 190.9518 L366.6364 192.0986 L366.0893 193.6368 L365.9476 194.0351 L365.9532 194.434 L366.2512 194.989 L367.6348 195.2137 L370.1787 195.6819 L371.4049 196.0227 L371.3435 196.6058 L370.9507 197.0259 L370.5735 197.1876 L370.153 197.1801 L366.9219 196.7356 L365.6973 196.4797 L364.5539 196.1601 L363.0008 195.8311 L362.4337 195.2162 L361.9746 193.9133 M374.3484 161.1016 L374.4404 160.7863 L374.7139 160.5441 L374.9316 160.521 L375.0802 160.5372 L375.1449 160.5441 L376.7651 161.0104 L378.476 161.4056 L379.7986 161.6741 L380.0062 161.661 L380.6456 161.6204 L381.446 161.5286 L382.4939 161.4081 L383.2381 161.4556 L383.6016 161.5349 L384.9888 162.3159 L385.6395 162.6399 L387.2488 163.1475 L388.8907 163.5708 L390.9386 164.0547 L392.1314 164.1452 L393.5186 164.2107 L394.6954 164.3088 L395.5798 164.3456 L395.969 164.4436 L396.1164 164.807 L395.9734 166.9659 L395.9409 168.3119 L395.9525 168.3587 L396.2369 169.5156 L396.1818 170.3934 L394.7416 173.9194 L394.3199 174.8178 L394.2131 175.7611 L393.7865 176.2394 L393.613 176.2793 L392.9768 176.4273 L392.184 176.4447 L390.9205 176.2287 L389.4638 176.1176 L388.5746 176.1214 L385.9668 176.004 L384.6318 175.5738 L383.459 174.9751 L381.6477 174.2247 L381.5637 173.8345 L381.6288 172.6596 L381.5738 172.3443 L381.438 171.9847 L381.3075 171.7668 L381.1063 171.5315 L380.8625 171.3486 L380.4785 171.1762 L379.2507 171.0795 L378.9069 170.9122 L377.4434 168.8419 L376.8867 168.1115 L375.9256 167.0414 L375.7493 166.7112 L375.5935 166.2242 L375.5666 165.4388 L375.516 164.935 L375.3694 164.0721 L375.2859 163.8343 L375.0931 163.2855 L374.8501 162.3865 L374.3484 161.1016 M375.3606 280.6932 L375.3822 280.4504 L375.4148 280.3075 L375.5304 280.2251 L375.6803 280.1877 L375.7662 280.2083 L376.022 280.2601 L376.6594 280.6102 L376.996 280.7687 L377.2386 280.9422 L377.4306 281.2018 L377.4912 281.4402 L377.4623 281.5788 L377.3956 281.7086 L377.2575 281.8222 L377.0486 281.8646 L376.7088 281.8627 L376.3273 281.7991 L375.8863 281.5881 L375.6055 281.3472 L375.4594 281.1769 L375.375 280.9304 L375.3606 280.6932 M379.0869 304.9902 L379.1684 304.3113 L379.2182 303.847 L379.2945 303.6904 L379.3953 303.5556 L379.4929 303.4769 L379.6941 303.296 L379.9825 303.1269 L380.1893 303.0826 L380.4022 303.09 L380.9488 303.1936 L381.4272 303.5425 L382.1561 304.4617 L382.5031 305.0676 L382.5112 305.354 L382.3742 305.4938 L381.7609 305.9219 L381.7473 305.9275 L381.1448 306.1728 L380.2729 306.3412 L379.5122 306.3824 L379.3813 306.3213 L379.2483 306.1104 L379.1178 305.6292 L379.0869 304.9902 M382.0067 295.3257 L382.2023 294.8102 L382.6662 294.4246 L383.1731 294.2255 L383.9145 294.0645 L384.2844 293.8467 L384.6137 293.335 L384.688 292.6878 L384.7246 292.2173 L384.9961 291.9215 L385.2503 291.9202 L385.6166 292.2167 L387.1741 293.4766 L387.6657 293.9834 L387.9018 294.296 L388.1191 294.706 L388.2003 295.2352 L388.185 295.9404 L388.0513 296.4902 L387.7621 297.1192 L386.7343 298.4578 L386.423 298.6756 L386.209 298.8141 L385.7997 298.9926 L385.4872 299.0144 L384.9985 298.9976 L384.5294 298.9221 L383.9221 298.6512 L382.9421 297.6472 L382.7425 297.4425 L382.467 297.1111 L382.2698 296.7598 L382.0919 296.3878 L382.0646 296.2112 L382.0103 295.8593 L382.0067 295.3257 M394.3862 176.4323 L394.7609 176.004 L395.9164 176.2537 L396.1686 176.2581 L396.5642 176.2656 L396.8927 176.1569 L397.2586 175.9965 L398.4784 174.7417 L398.7185 174.4657 L399.8138 173.6448 L400.113 173.4556 L400.454 173.2827 L400.8307 173.1553 L401.975 173.2246 L403.0401 173.4774 L406.7905 173.9432 L407.8215 174.0137 L408.7215 174.0081 L409.4517 173.8932 L410.0927 173.7184 L410.7321 173.6404 L411.653 173.5861 L412.5896 173.3813 L413.3322 173.0205 L414.805 172.4835 L417.0361 171.6695 L417.5795 171.71 L418.7474 171.8942 L419.5254 172.2769 L419.6294 172.3281 L419.888 172.7582 L420.1242 173.1509 L420.1575 173.882 L419.9977 174.6237 L419.7531 174.8216 L418.9165 175.4983 L416.0874 176.8986 L415.4858 177.0272 L415.2211 177.084 L415.2062 177.1721 L415.0737 177.9655 L414.9038 178.2046 L414.4713 178.2271 L414.0431 178.028 L413.6957 177.9805 L413.4527 178.1666 L413.4539 178.5355 L413.7307 178.7815 L414.1978 179.123 L414.4122 179.3334 L414.4938 179.7935 L414.6026 180.4059 L414.346 181.3573 L413.9455 182.5035 L413.8503 182.5466 L413.5065 182.7033 L413.0254 182.7794 L412.5969 182.466 L411.6711 181.5496 L411.6382 181.5071 L411.4414 181.2562 L410.5734 180.1487 L409.1159 179.452 L407.9693 179.1155 L406.4214 178.5299 L405.8133 178.41 L403.7975 177.8413 L401.2902 177.3156 L399.1559 177.2357 L397.1273 177.182 L395.5854 176.5278 L394.3862 176.4323 M395.4031 197.4872 L395.4473 197.2438 L395.7364 197.0939 L396.2063 196.9504 L396.7847 196.813 L397.4795 196.7194 L398.0177 196.5384 L398.7406 196.0827 L399.3672 195.6394 L399.9696 195.2274 L400.7608 195.0027 L401.1785 194.6843 L401.6364 194.2224 L402.0661 193.6543 L402.4276 193.2985 L403.0983 193.0113 L404.3474 192.7803 L405.6125 192.5493 L406.1105 192.6367 L407.0062 192.7116 L407.0785 192.849 L406.9299 192.9551 L406.2109 193.1674 L405.6768 193.4171 L404.7289 193.7042 L404.0221 193.5919 L403.5883 193.6106 L403.2509 193.6668 L403.014 193.8915 L402.9377 194.4596 L402.6565 194.9403 L403.0662 196.4073 L403.1063 197.2188 L403.0863 197.7557 L402.8935 198.2863 L402.287 198.7919 L401.5601 198.8668 L400.3471 198.6733 L399.4836 198.5172 L398.584 198.4486 L397.7847 198.2301 L396.7405 198.0366 L396.0055 197.7994 L395.5798 197.7244 L395.4031 197.4872 M395.6521 194.2673 L395.8533 193.6337 L396.2469 193.1455 L397.0289 192.6754 L398.7615 192.2715 L399.9154 191.9706 L400.5303 191.7715 L400.597 191.5449 L400.3761 191.3295 L399.0615 191.4743 L398.3466 191.6835 L397.6936 191.9288 L396.8421 192.1367 L396.6204 191.7684 L396.5999 191.1691 L396.6911 190.6659 L398.5406 190.9712 L398.4715 190.7015 L398.1663 189.3768 L398.9724 188.7725 L402.1665 187.8598 L403.2537 187.3136 L403.996 186.7705 L405.6169 185.9071 L407.3777 185.3908 L408.644 184.6117 L409.8686 184.0037 L410.5345 183.7683 L411.2847 183.6384 L414.6769 184.2065 L416.4654 185.1692 L417.1489 185.6237 L417.2244 185.6742 L417.2935 186.0781 L417.1582 186.6618 L416.8658 186.9297 L415.7099 187.3616 L415.0817 187.8018 L413.3407 189.2014 L412.7768 189.7614 L412.7013 191.068 L412.6563 191.8489 L412.6655 192.0231 L411.9627 192.123 L410.4116 192.2765 L409.7352 192.382 L408.4107 192.3976 L408.2609 192.3995 L407.4905 192.2934 L406.6812 192.0462 L405.096 191.6198 L403.9124 191.3345 L402.8099 191.0255 L402.3103 191.053 L402.2272 191.6797 L401.9649 192.284 L401.8729 192.7809 L401.3922 193.6181 L400.5612 194.2835 L399.5206 194.7998 L398.392 195.0458 L397.5711 195.1581 L396.2718 195.1469 L395.7923 194.7623 L395.6521 194.2673 M400.7166 212.6625 L401.2749 211.6824 L402.2228 211.1893 L403.7851 210.7711 L405.2189 210.6712 L406.9379 210.2842 L408.0745 209.9221 L408.8617 209.4727 L409.0906 209.017 L408.9822 206.3328 L409.5766 205.6461 L412.5406 205.1218 L415.6693 204.6598 L415.5649 203.7297 L415.6332 202.9494 L416.3722 202.4126 L417.3843 202.3376 L420.3202 202.4812 L421.5612 202.8683 L422.2962 203.1929 L421.9709 204.5599 L422.3163 204.9595 L423.3244 204.7035 L423.9991 204.7035 L425.6016 204.1792 L427.0957 203.5549 L428.0957 203.6923 L428.8548 204.2104 L430.0155 205.6586 L431.108 207.0444 L430.0999 207.2504 L426.6378 208.1306 L424.2281 208.5863 L421.1717 208.9296 L417.5409 209.5476 L415.1673 210.1219 L413.3198 210.6213 L410.7012 211.5638 L406.5122 212.9434 L404.5643 213.2805 L402.4316 213.2742 L402.042 213.3179 L400.9134 213.5364 L400.7166 212.6625 M400.7877 166.5195 L401.5207 165.3014 L401.9067 164.2576 L402.2685 162.7348 L402.3368 162.3371 L402.5168 161.8602 L402.7035 161.7609 L402.9204 161.6454 L402.9875 161.6098 L403.4252 161.6204 L404.5169 162.0393 L405.3225 162.4064 L405.6226 162.4789 L406.0033 162.811 L406.5981 163.2056 L412.582 165.7847 L413.8106 166.6144 L414.2158 167.2056 L414.4435 167.5378 L414.5122 168.7552 L414.5452 170.2641 L414.2632 170.7998 L414.0427 170.9421 L413.8323 171.0776 L413.2499 171.1581 L411.7032 171.1232 L409.6433 170.8516 L407.8331 170.5457 L406.1611 170.1443 L403.8863 169.3327 L402.8975 168.1927 L402.1035 167.6813 L401.6436 167.386 L401.2066 167.3111 L400.9881 167.1145 L400.8014 166.9459 L400.7877 166.5195 M402.8999 182.3068 L402.9975 181.7743 L403.4268 181.3317 L403.6317 181.2968 L403.9072 181.2499 L405.4836 181.5471 L406.8475 182.0084 L408.7557 183.0828 L409.1232 183.4393 L409.3184 183.9256 L407.3411 184.7603 L405.5462 184.5149 L404.2815 184.254 L403.5518 183.9712 L403.1678 183.5829 L403.1565 183.5392 L402.9911 182.8887 L402.8999 182.3068 M415.1986 183.5205 L415.3324 183.1091 L415.9661 182.2363 L416.4164 181.6832 L416.6505 181.3954 L417.9076 180.1974 L418.5269 180.1737 L418.5092 180.2049 L423.1866 182.9343 L423.1898 182.9374 L423.9521 183.8195 L424.3345 184.367 L424.4112 184.5174 L424.5305 184.7503 L424.1469 184.9076 L423.6095 185.1286 L422.1384 185.5762 L420.4395 185.6168 L419.8965 185.5381 L419.1639 185.4314 L417.5413 185.1299 L416.5609 184.6935 L415.6862 184.1385 L415.1986 183.5205 M424.3726 283.8404 L424.6056 283.3911 L425.3767 283.3849 L426.5254 283.7468 L427.6017 283.8904 L428.899 283.7905 L431.2566 283.7406 L432.8109 284.0214 L434.2849 284.1088 L435.8311 284.1962 L437.1565 284.6392 L438.8795 285.4381 L439.2771 285.5192 L441.2652 285.4755 L442.6428 285.5254 L443.9119 286.2369 L444.3336 286.7985 L444.5907 287.2167 L444.6429 287.691 L444.6389 288.1777 L444.3618 288.4336 L443.446 288.5272 L441.7431 288.4773 L438.4939 288.4898 L436.546 288.1964 L432.8229 287.4288 L429.7826 286.7486 L428.4773 285.9748 L426.7302 285.332 L424.6337 284.2211 L424.3726 283.8404 M156.9744 248.4764 L158.207 252.3704 L158.2487 252.3929 L158.2909 252.4291 L159.2006 253.2061 L159.6323 253.4084 L161.3525 254.6729 L161.5682 255.2277 L162.4056 255.943 L163.4053 259.9574 L164.07 261.6681 L165.2347 261.8828 L165.3042 260.3581 L165.3833 259.6834 L165.1102 258.1206 L164.5676 257.0596 L163.9322 256.1864 L163.7446 256.0722 L163.3024 255.4998 L162.941 254.8445 L161.9851 254.3733 L161.0674 253.3772 L160.5051 252.8785 L159.8689 252.5346 L158.9994 252.504 L158.7431 252.2999 L158.719 252.1738 L158.4696 252.0097 L158.1387 251.6683 L158.06 251.3181 L157.7134 249.9968 L157.7278 249.9818 L157.6599 249.6641 L156.9744 248.4764 M234.9295 265.3928 L234.9339 265.5557 L235.8316 266.915 L236.1127 266.603 L236.6107 270.41 L238.9667 269.7298 L238.9727 269.6599 L237.7995 264.9179 L235.8677 266.603 L235.6548 266.2909 L235.1849 264.9553 L235.1588 264.8455 L235.0693 265.1994 L234.9295 265.3928 M253.182 29.6158 L253.4061 29.6839 L253.629 29.5133 L253.182 29.6158" stroke-dasharray="" fill="none" fill-opacity="1.0" stroke="#ff0000" stroke-opacity="1.0" stroke-width="1.0px" stroke-linecap="butt" stroke-linejoin="miter" stroke-dashoffset="0.0px"/>
</g>
</svg>