<?xml version="1.0" standalone="no"?>
<!DOCTYPE svg PUBLIC "-//W3C//DTD SVG 1.1//EN" "http://www.w3.org/Graphics/SVG/1.1/DTD/svg11.dtd">
<svg width="512px" height="512px" version="1.1" xmlns="http://www.w3.org/2000/svg" xmlns:inkscape="http://www.inkscape.org/namespaces/inkscape">
<g id="layer" inkscape:groupmode="layer" inkscape:label="layer">
<path d="M0.0 171.8475 L0.5201 173.7007 L0.8294 174.8533 L5.3727 174.8132 L9.3976 174.4972 L11.8388 173.8809 L14.8716 174.39 L16.2934 175.9443 L19.1597 177.3557 L22.7741 177.3314 L23.4352 177.8833 L23.4886 178.7127 L25.8376 179.6307 L25.8131 180.3342 L26.468 180.7703 L27.1717 180.4071 L28.7238 181.4267 L28.5058 182.1302 L30.7589 183.154 L33.0608 183.47 L33.7491 183.9719 L33.475 184.9629 L34.7088 185.2574 L34.9819 186.1197 L38.5492 188.183 L41.6001 189.0853 L46.0546 189.204 L54.1534 190.8141 L62.6339 194.0828 L71.3821 198.281 L75.7589 200.4029 L77.5787 200.5488 L79.4465 199.1175 L80.6142 198.9502 L80.8539 199.8939 L89.1634 200.5416 L96.5015 200.5245 L96.9139 198.9473 L96.5738 197.7348 L98.1268 197.516 L98.855 200.1127 L101.4255 201.2165 L107.3698 201.7127 L112.0035 201.544 L113.0952 202.2475 L122.6782 202.5377 L123.8767 202.2046 L137.2658 205.7378 L140.4369 206.1525 L141.9646 205.8865 L145.1366 206.8645 L159.3353 209.404 L163.0473 209.4283 L163.9201 210.1318 L180.6667 213.2131 L182.8917 214.5229 L184.4954 214.7945 L184.8047 214.214 L185.616 214.3256 L185.8132 215.0119 L189.0847 215.8383 L199.0965 218.169 L200.8204 218.5736 L201.3541 217.9188 L202.4702 218.2348 L202.785 219.8119 L210.1122 222.407 L211.2039 221.582 L212.4648 223.1105 L214.3335 223.8626 L219.0884 224.8821 L220.1068 224.7362 L226.1235 225.9001 L228.3069 225.8043 L231.8172 226.8838 L233.2544 227.9005 L234.2548 227.839 L234.1915 227.4115 L233.4263 227.0097 L233.9192 225.2524 L233.6207 222.6987 L233.1043 221.9924 L232.4802 222.2912 L230.4152 220.145 L231.3387 217.7272 L230.9037 216.2873 L231.6915 214.52 L230.143 213.7865 L229.0838 212.238 L230.0616 207.538 L232.2079 207.5652 L232.4802 205.7178 L231.5287 203.9791 L232.8058 201.0993 L232.2351 198.953 L230.8765 198.8715 L229.4918 200.5831 L227.861 199.2247 L227.7524 201.0178 L226.3939 203.4085 L224.6283 202.7022 L225.7698 200.2571 L225.579 198.3553 L222.6448 199.279 L222.9713 197.486 L222.482 196.8883 L221.8027 194.9593 L220.5808 193.9541 L220.6622 193.3293 L221.8299 193.1934 L222.292 192.0524 L221.857 191.2373 L220.0914 191.4547 L221.4771 187.2178 L219.2494 186.1039 L220.01 184.5825 L222.3463 185.2617 L224.8183 182.7079 L225.1177 181.8928 L223.3241 180.5072 L224.6012 179.3933 L226.0855 177.0568 L225.3691 176.1288 L224.357 177.6817 L222.7262 177.573 L222.9668 175.8485 L222.0695 175.7885 L220.9064 178.1436 L217.4558 174.992 L216.5594 175.155 L216.0429 179.1216 L216.3152 180.9691 L214.4673 181.2136 L214.0332 179.176 L214.9295 178.7141 L215.4189 177.1111 L213.0545 175.7255 L211.6969 175.6984 L212.1853 174.5301 L212.4304 172.5196 L212.0768 171.7045 L209.3054 170.7808 L207.5127 173.0087 L207.5941 174.1769 L209.7405 174.2041 L208.6262 176.7036 L206.2627 177.4372 L206.5621 175.8342 L203.6822 173.7694 L202.6764 173.8509 L203.2743 176.0516 L203.1386 177.6817 L200.7752 177.1111 L199.906 177.8719 L200.1231 178.7141 L199.0097 179.339 L198.7103 181.1864 L198.9002 182.572 L197.3517 183.2513 L197.4331 184.5825 L199.1725 185.5606 L199.4167 187.2993 L195.9932 187.5167 L192.9776 187.1635 L193.5212 185.6964 L191.0493 185.0715 L191.8913 184.1206 L193.7383 184.5282 L195.559 183.4958 L197.3517 181.2136 L197.2432 177.084 L195.3148 175.807 L190.8042 174.2856 L190.4243 171.1883 L189.6093 170.3189 L187.7072 172.0577 L187.0551 171.1883 L188.5221 169.2865 L188.5764 168.2541 L186.838 168.2541 L186.3487 165.5372 L189.0115 164.233 L193.467 164.9938 L194.7712 165.8632 L194.0106 167.0043 L194.8255 169.2865 L191.8913 170.645 L192.217 171.8947 L193.0319 172.6555 L198.5203 170.1559 L201.1822 169.3952 L200.7219 168.0138 L200.1502 166.2979 L199.1345 165.091 L198.4118 164.233 L199.4257 161.5662 L197.8139 158.609 L195.749 156.9802 L194.2819 157.9312 L190.995 157.6866 L191.4292 155.6761 L192.4349 155.7576 L193.0871 156.5184 L193.902 156.4368 L194.717 154.4806 L193.7654 153.8286 L192.5435 153.9372 L192.1401 151.4534 L190.9814 151.3146 L190.5373 149.673 L191.7946 148.3231 L191.6254 146.7587 L190.9 147.0261 L190.1719 147.9956 L186.2148 148.6935 L181.62 149.7102 L180.9724 147.1505 L182.5453 146.2568 L182.8809 143.2466 L180.2723 141.4205 L177.3626 141.1059 L177.6782 140.0877 L180.2985 139.6501 L181.9963 139.7474 L182.2459 138.3846 L179.688 137.0575 L177.7045 139.1339 L175.2533 138.9637 L171.0004 135.6504 L169.4293 135.3086 L167.9966 132.4943 L165.0634 134.4349 L161.393 136.0837 L158.0274 136.8359 L156.8606 141.1645 L154.1942 141.6164 L148.9943 144.5894 L146.7466 147.182 L140.086 148.4775 L136.7864 147.7368 L132.2115 148.8165 L128.4308 153.8114 L126.7204 155.5074 L118.0708 155.1985 L115.7282 152.0225 L112.0894 151.4062 L109.1435 150.3251 L108.6098 150.8585 L108.731 151.635 L110.9868 153.8186 L110.0407 154.6193 L108.2833 154.2962 L104.9838 153.1679 L101.3278 151.5921 L97.8437 150.0806 L94.8255 151.0186 L87.1645 158.9793 L81.099 159.6614 L76.5367 165.0038 L76.4915 167.5463 L79.1797 169.2136 L80.559 173.5649 L78.3747 176.2475 L77.3861 178.5153 L75.7372 175.4338 L74.7911 175.0706 L74.9548 180.563 L76.0212 182.7079 L77.4883 183.9033 L75.6413 187.1635 L73.0328 186.6201 L71.4029 186.4571 L71.1306 184.501 L73.7934 184.3923 L73.6306 180.154 L71.9257 178.9515 L69.811 177.4558 L68.8224 178.4424 L68.4344 180.3599 L67.1789 180.9033 L65.265 180.8933 L65.5527 184.3895 L66.5404 185.4033 L66.0339 187.9857 L65.426 187.5296 L65.7299 185.6306 L65.0462 185.1745 L64.4383 185.1244 L63.8558 185.9853 L63.8052 187.1249 L64.4383 188.0615 L64.0838 188.745 L63.3747 188.4418 L62.7668 187.5296 L63.0708 185.4533 L62.6004 180.6431 L61.014 179.9839 L63.2155 174.4729 L63.8739 172.378 L65.0869 171.48 L64.3877 169.2193 L55.8756 163.1134 L51.4029 161.3989 L50.2876 161.3388 L49.8815 162.1153 L51.1614 163.5467 L49.9729 165.1725 L47.9342 164.5905 L46.6245 164.1773 L46.3504 166.152 L44.6355 166.6525 L44.0286 168.327 L42.888 168.7631 L42.112 167.04 L43.2001 164.2988 L43.286 160.0275 L41.5295 159.4713 L39.7531 158.8878 L37.6972 160.1748 L36.9691 163.887 L35.7562 163.5953 L35.7073 162.3097 L36.6055 162.1882 L36.3622 159.4469 L36.0709 159.2282 L35.9262 158.1857 L34.2809 156.9588 L34.119 152.6617 L33.2942 152.5173 L29.2818 152.2456 L28.2109 151.2474 L27.386 152.3871 L26.2699 152.0482 L23.7952 152.2899 L22.8491 150.98 L23.8929 149.5486 L18.5555 144.6237 L17.9007 145.9579 L19.0096 148.4961 L14.6246 149.101 L9.9548 150.8799 L9.2393 152.2413 L10.2515 153.5855 L15.3663 155.6246 L18.7364 156.1809 L18.7979 157.3849 L18.3457 158.2272 L16.9781 158.6219 L14.6735 160.3693 L12.9758 161.2659 L13.1458 159.3497 L14.5767 157.8211 L14.0919 157.0446 L12.3933 156.9245 L10.7191 162.018 L8.0282 163.1477 L7.0523 166.0362 L2.9079 170.0487 L1.2581 170.655 L0.0 171.8475 M8.3719 166.4352 L8.5492 166.1063 L10.9542 164.815 L11.714 165.5743 L12.4738 165.2712 L12.803 165.6001 L12.8283 166.3594 L12.0179 166.5367 L11.1062 167.2202 L10.7525 167.9295 L9.0557 167.449 L8.3719 166.4352 M38.9011 179.6021 L40.1927 177.8561 L40.7996 178.564 L41.3685 180.0597 L43.1295 180.1083 L43.4072 181.0191 L44.2809 181.604 L44.7739 184.2093 L45.6603 184.032 L46.1288 185.4533 L45.8376 187.4995 L45.4324 187.8799 L44.015 186.2341 L43.4072 185.3747 L44.015 184.6654 L44.015 182.8166 L43.3059 182.9181 L41.2672 181.7813 L40.218 182.8938 L39.9503 182.0344 L40.5472 181.3237 L39.4944 180.6159 L38.9011 179.6021 M40.4206 186.5644 L40.521 185.5005 L41.2799 185.1459 L42.1165 185.5763 L41.9003 187.6568 L41.3821 187.7026 L41.2925 186.8975 L40.4206 186.5644 M49.9023 179.9839 L50.2569 178.8943 L51.042 179.1988 L51.6751 180.9963 L51.3459 183.3771 L50.9407 183.4529 L50.3075 180.3128 L49.9023 179.9839 M56.3676 187.2221 L57.178 186.0324 L57.2278 185.1702 L59.0512 185.4247 L59.1525 186.8418 L60.6965 187.4495 L60.8231 188.8665 L60.1583 191.0757 L59.7848 190.6382 L59.8354 188.2088 L58.7654 187.8584 L58.3349 188.5677 L56.8479 187.8541 L56.3676 187.2221 M77.3255 180.5344 L78.5746 180.5887 L80.3682 177.9262 L82.7587 177.9805 L82.813 179.4477 L85.2578 179.3933 L85.095 181.5125 L81.8895 181.7842 L81.1831 182.2188 L79.3352 182.6535 L77.4883 182.5992 L77.3255 180.5344 M96.6037 166.0491 L97.1102 164.2759 L97.6674 164.2259 L97.9206 165.9476 L98.731 166.1492 L99.9973 165.1883 L99.7947 163.0605 L102.226 162.4027 L103.1377 165.643 L105.7716 166.9099 L105.2144 168.3284 L102.9351 167.5177 L101.9727 169.4924 L100.1493 169.797 L99.3389 168.9362 L100.4025 168.1754 L99.6934 167.0114 L97.8193 167.0114 L96.6037 166.0491 M99.896 175.7227 L99.896 173.645 L103.3403 173.1903 L103.8468 174.1526 L105.3157 173.1388 L106.6824 170.1516 L107.6954 170.7079 L109.063 173.5449 L108.5565 173.9996 L107.3915 172.8356 L104.8092 176.7351 L103.239 177.6474 L102.7325 179.0144 L104.1001 179.5721 L103.391 182.3575 L101.7195 180.4329 L102.5299 176.3804 L99.896 175.7227 M111.6462 173.4434 L111.9501 170.2017 L112.7099 168.0239 L114.0268 167.0615 L116.6607 166.8584 L117.6221 168.5301 L112.5579 171.0625 L112.3047 173.3919 L111.6462 173.4434 M120.8638 177.1912 L121.2184 176.2289 L123.1938 175.7227 L124.6627 176.482 L125.8783 177.3428 L126.3342 179.2675 L126.0303 180.6345 L122.3327 177.6474 L120.8638 177.1912 M122.8392 169.3909 L123.3457 168.2269 L124.4601 167.9738 L126.2835 168.9362 L127.0939 170.6063 L126.4355 171.114 L122.8392 169.3909 M128.6126 177.5458 L133.0699 178.3552 L134.8427 180.1798 L134.5388 180.9391 L133.4751 179.7236 L130.2334 180.2298 L128.6126 177.5458 M129.7269 171.6202 L132.3608 169.8971 L135.0959 170.5563 L134.6898 168.4915 L133.3231 168.0739 L133.5764 167.163 L134.2683 166.5696 L134.3226 165.7002 L135.8448 165.2655 L136.1162 165.9719 L135.5997 166.5424 L136.8769 166.7598 L138.5881 165.9175 L138.8333 166.9771 L137.936 167.6564 L137.4747 167.3575 L136.6661 167.9223 L137.4214 169.2036 L138.287 169.1893 L139.4085 169.2651 L139.4239 168.5058 L140.4858 169.2336 L141.0927 170.5549 L140.0462 170.6764 L139.8788 170.1144 L138.3367 169.9943 L138.4389 171.6702 L139.7558 172.278 L135.9063 174.6588 L133.5764 172.2279 L132.4114 172.0249 L131.8542 173.1388 L132.5634 174.1526 L132.1075 174.6073 L129.7269 171.6202 M161.2193 173.9052 L161.8163 170.7536 L163.0663 170.8623 L164.9141 167.7107 L165.5663 167.765 L166.109 169.3952 L167.2504 168.6888 L170.3474 168.5258 L171.4879 167.6564 L172.0858 170.9166 L170.7824 172.9271 L170.5645 177.6002 L172.3581 178.1979 L173.9337 176.0244 L174.5858 176.8938 L173.9337 178.4152 L175.1285 179.2846 L177.7913 178.7956 L179.584 176.2961 L179.9105 179.3933 L178.6062 182.0015 L176.7593 182.9252 L177.2477 186.3485 L175.6178 186.6745 L173.7709 190.2607 L175.5636 191.9437 L172.9007 192.1067 L173.8251 198.1923 L175.02 198.301 L177.8456 193.4108 L179.584 194.6605 L180.3447 193.7911 L178.6605 191.4547 L180.4541 189.0109 L182.7361 188.4132 L184.0395 189.4456 L182.7904 190.2063 L182.2468 193.6281 L182.7361 194.1171 L182.1383 195.6385 L179.2041 195.8559 L176.8678 202.5392 L177.1934 203.6802 L174.205 203.0825 L174.7486 201.6698 L175.8349 201.9415 L176.3785 199.605 L175.8349 199.3877 L173.9879 199.605 L172.7379 200.8548 L170.0218 200.9634 L169.8581 202.5392 L168.7175 202.2132 L167.9026 201.2351 L168.7718 199.9311 L169.5324 199.7137 L171.2166 197.3773 L170.4017 196.5622 L169.2602 196.2362 L169.7495 194.0628 L168.826 193.0847 L167.3047 194.8235 L166.1632 193.8454 L166.2175 192.324 L164.9141 192.161 L163.8269 189.337 L167.7388 189.8803 L168.2824 191.0214 L169.2602 191.1286 L169.4239 189.7173 L166.8154 187.1092 L169.3154 183.5229 L169.9666 183.6859 L170.891 181.2408 L170.1846 179.3933 L167.6846 178.0892 L167.9026 174.9376 L166.0547 174.9376 L164.8599 173.5792 L164.4248 175.644 L163.2291 175.2637 L161.2193 173.9052 M194.5813 189.7173 L194.7984 188.7936 L198.6831 189.5271 L199.7703 188.4404 L201.0737 186.6201 L202.0795 186.6745 L203.2472 184.1478 L201.7258 183.9576 L201.9981 182.0015 L204.6057 181.9472 L205.9914 183.0339 L203.9807 184.501 L203.1386 187.3537 L201.6716 188.0329 L202.5679 190.2879 L203.845 190.641 L205.5563 189.663 L206.3441 190.1248 L205.4207 191.5905 L206.2085 192.4327 L204.5243 193.7368 L203.1929 193.6281 L202.813 195.8287 L202.5408 192.0524 L200.3673 190.9671 L199.4709 190.3965 L197.4874 190.9671 L194.5813 189.7173 M196.2383 202.3218 L197.2161 202.3218 L197.3517 203.5444 L198.3033 203.7345 L199.2267 204.7397 L201.563 204.9571 L202.2423 207.4022 L201.3731 207.9999 L200.0145 206.6143 L196.809 206.3155 L196.3468 205.0658 L196.2383 202.3218 M216.7222 213.868 L217.4015 212.2108 L218.0536 211.4773 L219.1951 209.3311 L220.1728 209.4669 L220.0643 210.2004 L220.9606 210.4178 L221.042 211.0426 L219.575 210.9883 L219.1951 211.7761 L219.0585 214.2755 L219.168 215.0362 L218.6515 215.661 L217.4286 215.498 L216.7222 213.868 M218.9228 205.3374 L219.3036 204.2779 L220.6079 204.1964 L221.857 205.0386 L222.6991 204.7126 L223.2155 206.5328 L221.6128 206.9132 L222.7533 208.4345 L222.5634 209.4126 L220.3628 208.6247 L220.6079 206.4513 L220.01 205.5548 L218.9228 205.3374 M25.4758 142.0697 L25.7851 143.3867 L26.2699 145.3759 L26.1975 148.6992 L28.0653 148.7721 L29.8888 149.673 L31.8759 148.0657 L30.2243 147.6324 L28.8567 146.0637 L27.8229 145.9579 L27.7741 145.1814 L29.4483 143.9931 L29.4971 142.6589 L27.7741 142.6589 L26.6824 141.5192 L25.4758 142.0697 M166.0547 171.5144 L167.1419 173.3618 L168.5547 173.6879 L170.076 172.3838 L169.7495 170.2103 L168.9346 169.6125 L167.8483 169.6669 L166.0547 171.5144 M169.7224 192.4327 L171.5974 192.4327 L171.516 193.4923 L171.3251 194.3073 L171.8687 194.8507 L172.3309 194.579 L172.7108 192.7044 L172.1401 191.9437 L170.076 191.1558 L169.8309 191.5633 L169.7224 192.4327 M169.8309 185.2889 L170.2117 185.9953 L170.891 186.1039 L171.8687 184.9357 L172.8193 185.1802 L172.955 184.012 L171.4065 183.5501 L170.9995 184.0935 L170.4831 184.0663 L169.8309 185.2889 M171.8687 180.8061 L172.4666 182.7079 L173.6614 183.7403 L174.6401 183.5773 L173.6072 182.5449 L173.6072 180.4257 L173.3358 179.176 L172.4666 179.176 L171.8687 180.8061 M175.9715 179.991 L175.9986 181.1049 L177.3291 182.083 L177.927 181.7298 L178.3078 180.7789 L177.6014 179.8008 L176.677 179.665 L175.9715 179.991 M201.5223 163.1005 L203.078 163.794 L203.8794 161.5576 L204.1381 161.3917 L203.5167 160.0204 L201.6471 161.1701 L201.5223 163.1005 M201.6444 170.0472 L202.2152 171.7317 L203.5466 172.574 L205.095 172.9543 L206.9691 172.1392 L206.7792 170.0744 L206.4536 169.3952 L205.8286 169.2593 L204.9313 169.9114 L205.0679 171.1068 L203.0301 170.7265 L203.22 169.9386 L202.4594 169.4495 L202.1066 169.5582 L201.6444 170.0472 M202.6177 154.6193 L202.6421 156.4383 L204.025 156.8515 L204.3163 156.5112 L204.2186 154.5707 L203.8062 154.2547 L203.1757 154.2547 L202.6177 154.6193 M206.5721 155.9049 L206.7177 156.5598 L207.9306 157.7481 L208.6831 157.4092 L209.7984 155.7104 L209.6772 155.0312 L207.9062 154.6437 L206.5721 155.9049 M207.7606 165.4642 L207.8338 166.8956 L210.3809 167.113 L211.0131 165.8174 L209.0847 164.479 L207.7606 165.4642 M212.8646 163.907 L213.6795 164.5319 L214.631 163.5538 L215.3646 164.3145 L214.6039 165.2383 L215.0381 165.7545 L219.8472 166.3251 L220.2271 165.6458 L219.3579 165.0209 L217.9179 164.233 L216.1795 163.9885 L215.9615 162.4942 L214.1788 161.4289 L212.8754 161.6934 L212.8646 163.907 M223.1341 186.3756 L224.5469 188.0329 L226.4482 188.2502 L226.8018 187.1635 L226.9104 183.7946 L227.7253 183.4143 L227.8338 181.7026 L228.5402 180.2355 L228.486 179.2846 L227.2369 179.4205 L227.0189 180.2899 L226.0683 181.431 L225.8783 182.8981 L225.1991 184.4738 L224.0576 184.4467 L223.1341 186.3756 M235.9163 228.0777 L236.2157 228.8656 L238.7691 228.7297 L239.0404 229.3002 L241.1868 228.9199 L242.056 230.0609 L243.5502 230.1152 L246.3179 229.6992 L246.838 231.5808 L262.8103 233.3695 L265.1647 233.0035 L265.4071 232.1542 L266.45 231.3049 L266.62 233.0035 L268.2517 232.9949 L270.4713 232.7247 L273.4426 232.5488 L275.7174 229.316 L273.4399 228.4452 L273.2988 229.8979 L271.1262 229.3817 L272.3481 227.5887 L272.2125 224.7091 L272.946 224.5732 L272.946 223.6224 L270.7454 222.4542 L270.7997 220.7699 L272.7832 219.493 L273.8966 220.6612 L274.7658 220.4439 L274.7658 219.4387 L273.8695 217.1838 L275.2009 216.9937 L274.821 214.7917 L273.6795 214.4385 L272.7832 215.6067 L272.8917 218.026 L271.9411 218.1347 L271.5332 216.559 L270.7454 216.4775 L269.4683 216.8578 L268.1378 212.9715 L269.3597 211.1513 L270.1475 212.2651 L270.1475 213.4333 L271.5332 213.1345 L272.321 211.5044 L270.474 209.1681 L266.7249 208.7605 L266.6978 210.0917 L261.2908 212.9443 L261.3451 214.683 L260.3944 214.8189 L258.7103 215.7154 L259.1173 217.2382 L257.6774 219.1399 L257.8954 222.1826 L258.8731 224.6819 L257.3536 225.7128 L257.2966 229.2273 L254.0043 230.4441 L252.1302 230.038 L252.4341 226.442 L250.6622 224.8721 L248.0283 225.1252 L248.1803 220.8199 L246.9194 216.9937 L248.1423 217.1023 L247.6529 214.0582 L246.5667 213.7593 L247.3545 211.9935 L246.3758 210.6351 L244.4203 212.9715 L242.7353 213.216 L242.1383 212.6726 L241.1325 212.7541 L240.6983 216.2601 L239.7197 216.2873 L239.8554 213.0258 L237.3834 211.9663 L236.7855 212.5096 L238.0627 217.4827 L238.8505 218.1347 L240.1005 217.7815 L241.1325 218.189 L240.6983 220.0907 L241.5947 220.471 L242.7624 223.2692 L242.681 224.5732 L238.6063 226.3934 L238.6334 227.1269 L237.5462 227.7246 L236.2157 227.5616 L235.9163 228.0777 M243.4417 198.5998 L245.0724 204.5767 L245.7508 205.7721 L249.0658 208.2715 L251.2935 209.2224 L251.3206 212.6183 L249.9892 213.379 L250.0706 214.031 L251.3749 214.7102 L251.5649 216.396 L253.1676 217.1295 L251.81 218.841 L253.5213 222.6444 L253.9825 222.8346 L256.6996 218.2705 L256.6996 215.661 L257.3518 213.8408 L257.1889 213.1345 L255.2868 213.4605 L255.2325 212.5096 L253.1133 210.9883 L254.1191 210.6079 L254.5533 209.3039 L254.7161 206.8588 L256.374 206.397 L255.7761 205.3918 L254.0377 205.0929 L254.4447 203.164 L256.8624 202.023 L257.4332 203.001 L257.9768 203.0825 L259.2268 201.6155 L258.3566 200.8819 L260.2316 198.627 L262.7036 199.7409 L263.41 199.4692 L261.6716 196.0732 L260.3402 194.8235 L260.0146 191.9437 L257.9225 189.6358 L255.673 189.7545 L255.7002 192.1439 L254.4619 192.4899 L252.435 192.0066 L251.7078 190.9856 L249.2557 190.8856 L249.1698 191.406 L249.9078 191.509 L250.5057 192.5414 L247.245 194.0085 L246.213 192.5414 L245.0345 192.294 L244.3109 198.0565 L243.4417 198.5998 M258.8731 205.2016 L259.4981 208.2172 L260.5301 208.6247 L260.9923 208.2987 L260.7481 206.886 L261.5088 206.886 L262.7307 208.2444 L265.4207 209.1409 L266.6435 208.4074 L266.2085 207.2392 L265.6106 206.8045 L265.91 205.9351 L267.4856 205.6363 L267.2405 205.0658 L265.5835 204.3594 L266.0999 203.1369 L265.0942 200.4201 L264.1707 200.3386 L263.8722 201.0178 L260.313 202.7565 L260.503 203.8432 L258.8731 205.2016 M260.0779 189.2941 L261.7883 193.1233 L262.7579 193.3021 L264.3064 194.742 L262.9487 196.1004 L264.035 198.5183 L264.6871 198.7085 L268.5719 205.1744 L269.7134 205.0386 L270.664 208.0814 L272.4567 209.3039 L272.7289 211.0154 L274.4131 210.9068 L275.011 212.3195 L276.7222 212.6455 L278.4064 212.0206 L279.385 213.0802 L279.2213 213.8952 L277.9994 214.4385 L276.1515 213.5963 L274.4402 213.6507 L277.2116 216.7492 L278.543 216.3688 L279.1671 218.9225 L277.5915 220.96 L275.418 222.6987 L276.3966 225.4154 L275.6631 225.9587 L276.5911 229.0972 L277.9008 230.5771 L280.1041 230.1896 L287.6086 226.3448 L307.7497 221.5205 L318.3657 219.9063 L341.2139 217.8273 L341.5414 216.9679 L341.3107 216.6147 L340.6803 215.9241 L340.6441 215.4752 L341.2212 214.9433 L341.1533 214.1897 L341.9782 213.6678 L342.1962 213.3275 L342.1356 212.9286 L342.8275 212.807 L344.8075 214.48 L344.5027 215.112 L344.9015 215.4508 L344.623 217.2467 L343.8225 216.7849 L343.7004 217.537 L344.1372 218.3749 L343.979 218.7681 L353.7366 223.9656 L359.2919 230.1796 L374.2747 249.978 L380.2217 255.883 L395.5582 268.2718 L400.4415 271.2027 L400.7301 269.9031 L404.3507 270.658 L404.651 270.0761 L407.2351 270.7667 L407.0226 269.6157 L404.8464 268.785 L405.0047 266.5175 L404.0486 265.4566 L400.6857 263.7738 L399.7966 264.1698 L394.6655 261.3918 L396.5929 258.7139 L392.9886 256.2847 L392.0868 254.4332 L391.1108 253.7826 L390.3845 254.183 L388.7348 253.4395 L385.7292 249.5262 L384.2024 245.8474 L382.5499 244.9452 L380.0463 242.343 L378.695 238.2623 L376.1651 236.3578 L375.541 231.6795 L376.8923 230.1524 L375.9797 227.2799 L374.9151 226.9725 L374.5397 224.0442 L376.8254 221.8723 L378.1188 218.2362 L377.0931 217.6357 L376.3668 218.7867 L375.5157 218.2119 L375.5998 215.7468 L372.9876 210.6265 L373.6407 208.18 L373.5882 205.4204 L377.6937 205.8465 L378.1939 202.9667 L380.172 203.643 L381.0521 205.1701 L382.0994 207.3721 L383.751 207.548 L384.8536 210.8024 L386.4301 208.7691 L385.9137 206.9132 L385.0372 204.9142 L381.1072 203.1912 L382.9261 198.6313 L385.1828 195.4526 L384.4059 194.1915 L383.3386 193.8269 L385.6921 186.4757 L389.0396 185.4576 L389.7677 183.031 L391.0294 183.3227 L391.4898 187.1077 L392.3147 187.714 L394.1345 186.3313 L395.2986 183.7103 L397.094 184.4867 L396.1968 187.7869 L396.8272 189.2912 L400.636 186.307 L400.2724 184.6569 L398.5502 183.613 L396.1235 178.5682 L396.1733 178.4138 L396.706 176.7723 L395.8332 173.8609 L400.0544 174.686 L398.259 177.6946 L401.4853 185.8694 L402.2858 185.9424 L404.6393 181.7942 L406.9927 180.7503 L408.2056 181.0906 L408.4236 183.3471 L410.0978 184.6812 L407.1139 186.7188 L403.5231 187.1077 L402.9171 189.9704 L403.1595 191.2559 L402.2614 191.7406 L400.2724 191.8622 L399.7632 189.6301 L397.9922 191.2559 L399.1807 192.8331 L395.7843 195.0651 L394.4602 196.7539 L395.7798 200.8848 L397.6042 200.6446 L396.7548 202.5606 L395.5419 203.337 L397.2641 204.2865 L399.1364 202.1774 L400.9517 205.2545 L398.6344 209.3182 L400.7029 211.1927 L404.0568 211.0769 L408.6904 215.4194 L409.7822 214.6187 L411.3831 215.3465 L410.6803 218.2576 L413.0817 220.9014 L416.7386 222.4599 L417.3943 222.5329 L417.473 222.8903 L418.5891 223.1706 L419.7532 223.7525 L420.5781 224.3945 L421.1479 225.3654 L421.5848 225.2924 L421.8643 223.9098 L422.8466 223.1706 L423.9627 222.7616 L426.7892 222.8674 L428.3775 223.122 L429.1174 223.122 L430.6215 223.4494 L431.4229 223.3765 L431.7983 223.4365 L432.199 223.7396 L432.587 223.8369 L432.8538 223.631 L433.6905 223.8984 L434.6248 224.3702 L437.4459 225.2567 L438.7972 225.923 L440.2172 226.9425 L441.0539 227.8647 L441.7693 228.5067 L442.5879 228.9242 L444.0984 230.4484 L445.0445 230.8359 L445.3846 230.7515 L448.4463 233.3795 L450.9725 234.9023 L453.4264 235.7973 L456.2167 236.5137 L457.3446 236.3921 L457.9533 236.6967 L460.4018 239.3876 L460.8983 239.1945 L462.1963 239.3146 L464.1671 240.2912 L464.7442 241.2677 L465.1783 242.1285 L465.9444 244.3733 L466.3813 246.8354 L465.8061 247.1714 L465.9571 249.1888 L465.6541 250.5957 L464.8898 251.5794 L465.1802 252.1484 L464.5868 252.2771 L463.4463 253.7984 L463.0582 253.6897 L462.6458 253.8598 L462.2569 254.4046 L459.8799 254.9836 L458.2183 255.5698 L456.981 255.8243 L455.5374 255.4726 L453.8062 255.6013 L452.3346 256.8066 L451.9222 256.7094 L451.2556 257.45 L450.0788 258.152 L449.6782 257.8861 L449.5208 257.5472 L448.647 256.6608 L448.004 256.8066 L447.6648 256.3705 L446.4519 256.2976 L444.329 254.6591 L443.2491 254.6233 L442.3762 254.4046 L441.6735 253.8212 L440.4714 253.8827 L439.9133 254.4175 L439.1373 254.5633 L438.0456 253.6168 L437.0868 253.2894 L435.4696 252.1041 L435.134 252.4758 L433.8487 251.7609 L433.3151 252.2342 L432.89 252.1613 L431.5134 251.0732 L429.2395 249.7593 L428.1478 248.7398 L425.7011 247.3872 L424.0477 245.9861 L423.4291 245.8288 L423.6832 245.4527 L423.3314 245.0524 L423.1622 244.592 L422.7371 244.0458 L422.3853 242.9663 L421.4681 241.4651 L420.9906 240.6258 L420.0445 240.5157 L419.5352 239.5091 L418.7348 238.5869 L418.4064 238.6727 L418.1867 238.1007 L416.8417 236.9383 L416.005 236.6709 L414.6583 235.6644 L413.4073 235.3169 L409.8066 239.8494 L413.4453 242.2028 L411.7232 244.7979 L409.7098 245.8173 L408.1089 245.6715 L406.3858 248.0492 L404.3824 249.4776 L409.3218 253.9442 L411.4808 252.9977 L413.0094 253.7984 L412.1601 258.1649 L413.4625 258.8998 L415.4352 255.0351 L418.1279 253.7498 L418.2491 257.3399 L417.861 258.651 L416.1868 262.3383 L417.4947 265.7526 L419.5832 265.3222 L423.0528 265.541 L424.3625 263.4049 L427.0072 261.4647 L428.4869 262.8716 L427.3464 265.8312 L428.8415 266.6176 L430.5492 265.4923 L432.369 267.118 L432.1022 268.7665 L435.4985 268.4033 L437.5526 266.1772 L443.316 267.1151 L444.159 268.1846 L446.706 264.5459 L448.4046 265.3951 L447.6042 268.6221 L446.9249 271.6788 L447.8113 276.2754 L449.8491 278.2313 L449.6139 281.3595 L447.1854 282.8864 L444.8419 282.1115 L444.0758 283.6027 L442.0289 283.6627 L442.3292 280.2858 L437.1474 280.2085 L437.6232 282.762 L435.721 283.3368 L434.1192 279.7081 L432.1917 279.558 L431.1326 279.924 L427.1809 279.6967 L432.113 286.9553 L433.8903 294.6656 L434.3806 299.8225 L438.6823 306.1731 L442.4766 315.4801 L442.8366 320.8841 L448.6063 321.7075 L448.6877 322.8126 L449.6112 322.4495 L450.1991 322.2122 L450.0725 323.8434 L450.958 324.8255 L451.952 322.9828 L451.7702 322.6611 L450.0779 321.3144 L450.3819 319.992 L451.4428 320.4409 L452.0922 320.1021 L452.0307 319.5188 L450.6604 319.1671 L450.3629 318.518 L453.8207 318.8826 L454.4267 318.325 L454.0875 317.5488 L453.5955 317.3172 L453.1957 316.7539 L452.7525 316.7239 L451.7341 316.9412 L450.5012 317.3372 L449.0125 316.305 L449.1382 315.4786 L453.3006 313.7845 L453.9817 313.6687 L455.2028 314.2248 L455.7554 313.3756 L454.4086 312.9382 L453.9944 312.2762 L455.4207 309.8959 L453.7248 307.3011 L454.9956 304.3645 L451.905 294.2124 L450.1648 293.9251 L450.7002 291.2115 L453.1179 287.317 L457.4233 283.6184 L458.818 284.1545 L457.6051 285.1968 L456.9502 289.8304 L457.9207 289.4673 L459.6673 291.9178 L456.7802 292.0865 L456.2465 293.1059 L456.3442 293.7006 L455.8703 296.2712 L454.9613 298.5401 L455.882 298.7102 L457.7507 296.9145 L456.4889 296.1625 L457.0959 294.7557 L458.9392 295.6779 L460.2742 294.3926 L461.3904 294.6585 L463.2093 292.4268 L462.9913 290.1221 L464.301 290.1464 L465.3448 291.2144 L465.9752 290.4381 L465.4171 290.0492 L466.0964 288.1577 L468.657 286.6837 L468.6199 288.5208 L473.8072 290.8355 L477.6684 289.4058 L478.1288 288.2664 L478.8334 288.7639 L478.5168 290.4252 L480.2643 291.2501 L479.2938 292.5111 L479.3788 294.0995 L480.7373 294.587 L480.9553 293.7306 L482.7136 294.4226 L483.3404 294.6514 L484.1689 294.9559 L485.0915 294.3125 L486.668 294.7128 L486.8869 295.6593 L486.971 297.0418 L487.9171 297.1519 L487.1538 298.3528 L487.748 298.7774 L488.998 298.4557 L490.3565 298.1641 L490.5989 296.8302 L488.3667 296.7816 L488.4155 294.2582 L490.1865 294.404 L491.157 292.5111 L493.1704 292.9972 L492.3455 294.3311 L492.8547 294.6942 L495.8631 294.3554 L495.8151 295.8351 L492.2731 296.8302 L493.0492 298.4314 L492.0063 300.25 L493.1704 302.5188 L495.9237 302.5489 L496.8806 303.3724 L497.9018 302.862 L499.9613 302.4474 L500.3629 301.1692 L499.7107 300.1656 L500.2878 299.1377 L504.5 300.7932 L507.0579 300.3157 L508.0727 298.9232 L510.1829 298.9533 L511.0114 297.0489 L510.438 296.357 L510.4262 295.7265 L511.4085 294.8172 L511.1633 294.4183 L510.4434 294.0981 L510.2987 293.6706 L510.2182 292.8943 L510.9173 292.4568 L511.8471 291.8806 L512.0 290.2994 L509.7931 291.7791 L508.8153 291.4031 L509.2169 289.6732 L507.9398 288.8711 L504.4267 289.3729 L502.2207 288.1434 L497.5599 287.2184 L497.1212 286.4221 L495.9535 286.7609 L496.4437 288.661 L494.1825 288.7382 L492.2903 289.3572 L490.9345 288.5623 L490.4081 288.2549 L490.1051 287.1269 L489.6881 285.5785 L488.9908 285.3912 L489.2097 284.2389 L491.2348 284.0802 L492.739 284.2389 L492.909 283.4497 L492.7878 282.2487 L494.6556 281.4367 L493.8334 280.3215 L495.3638 279.1806 L496.1986 276.5099 L494.2965 274.6527 L493.1315 272.764 L494.8726 266.4274 L495.6505 259.3316 L495.7328 254.3517 L493.7466 251.2491 L491.4627 251.1561 L490.134 253.1378 L488.3974 251.9182 L486.9168 252.6159 L486.8924 253.3551 L487.3175 253.5982 L488.7122 253.9742 L488.9184 254.762 L489.6221 255.5513 L489.8157 256.0846 L490.883 256.9095 L489.8157 258.0734 L489.6465 257.6973 L489.0279 256.1332 L487.9723 256.1932 L485.9345 258.5595 L484.0903 257.3213 L483.5322 258.438 L482.1737 259.0199 L481.6644 260.3052 L480.9852 260.9 L479.2024 260.8886 L479.2504 259.8091 L481.7983 259.2257 L481.3976 258.0862 L482.1981 256.9581 L483.6055 256.9639 L483.5087 255.4898 L484.3815 253.744 L485.8006 253.501 L486.0801 252.8819 L484.3091 252.36 L484.2549 251.4221 L483.4454 251.0689 L483.5774 249.8379 L482.6422 249.0944 L480.2145 249.9265 L479.206 249.2145 L480.0535 247.5331 L478.5277 246.7238 L481.7865 241.6595 L482.9009 240.1311 L482.5635 237.3973 L480.9083 235.7416 L479.4041 235.6415 L476.4455 236.8954 L476.4455 234.7393 L475.4171 233.1336 L472.9633 232.0469 L469.737 231.2291 L468.8325 230.0409 L466.9032 230.4756 L466.6689 227.8247 L469.8256 226.9382 L469.3824 224.9879 L467.4432 223.0019 L464.9947 223.4351 L465.1594 217.5928 L467.8158 212.2923 L469.093 211.8433 L470.9417 210.9239 L470.8278 210.0846 L469.7967 208.9679 L469.1988 206.2282 L469.2992 205.183 L467.9298 204.6039 L468.0781 202.8309 L469.1002 202.1002 L470.1964 201.8957 L470.6089 200.7561 L469.8573 199.6379 L468.6452 199.6823 L467.331 200.6617 L466.9584 200.004 L465.939 200.1613 L465.2977 199.9153 L465.6966 199.3848 L465.8422 198.5241 L465.1232 197.6046 L463.9256 198.1852 L461.5803 198.5498 L459.6194 199.2161 L458.1975 200.932 L456.829 200.8162 L454.8699 201.1994 L453.5747 200.8691 L453.5747 199.7223 L451.7114 199.3891 L448.1089 190.2092 L447.1972 189.2912 L446.1887 188.7507 L444.7125 189.1568 L444.4927 190.4823 L444.8618 191.4203 L443.9229 191.5247 L443.0501 190.8341 L443.1713 189.0867 L441.9909 188.6806 L441.8245 190.4938 L442.5282 191.3074 L442.3582 191.6949 L441.4238 191.4647 L440.7635 192.9275 L439.2313 192.3126 L439.0007 193.0333 L440.2353 194.0728 L440.3656 195.4655 L434.6103 197.1742 L434.0152 198.78 L433.022 199.3148 L432.0542 198.78 L431.3506 197.2872 L429.4059 197.1785 L428.9374 195.7029 L431.062 194.5504 L432.3591 193.0733 L432.8276 191.5962 L430.9906 191.1644 L430.6803 189.3384 L428.9736 188.2474 L427.7489 188.8951 L426.0204 190.7683 L424.8319 189.2555 L425.5157 187.5982 L426.0204 186.5186 L425.0119 186.1583 L422.8511 186.8789 L420.7979 187.5982 L418.9609 186.9862 L417.0886 187.3108 L415.6478 186.6988 L416.0077 185.0773 L417.3039 182.808 L418.0247 183.2041 L418.6977 183.4043 L418.4987 184.3566 L420.0635 184.8299 L420.9128 184.1578 L422.1736 183.0468 L425.6568 182.6407 L426.1543 181.4596 L424.045 180.7417 L424.5162 179.6593 L426.2899 179.2703 L427.3048 179.941 L429.1074 177.114 L428.6552 175.7727 L427.814 175.7441 L427.246 177.2055 L426.2248 176.4477 L426.3605 175.1407 L425.655 174.1426 L426.943 172.8156 L428.3603 172.5782 L429.5244 172.4209 L429.2331 171.5344 L428.4815 171.2198 L427.0986 171.6445 L428.2436 169.7713 L429.0513 170.0186 L429.1725 168.1626 L428.4752 168.0281 L427.0298 166.6125 L425.2208 166.3823 L424.102 167.3503 L423.2861 167.2746 L423.1577 166.3637 L424.8392 165.0324 L426.5712 164.6249 L426.2909 163.4022 L423.922 163.0719 L422.5219 162.9446 L422.9913 161.4117 L425.6794 160.0676 L425.2724 158.2844 L423.382 157.7338 L422.1365 158.0642 L421.3759 159.3025 L418.9817 159.8116 L418.0365 160.5023 L417.5146 160.9627 L417.6241 161.5218 L418.2672 161.4847 L418.1125 162.0924 L417.8194 162.3841 L417.634 163.651 L414.0513 163.7612 L414.6194 162.4527 L414.4819 162.0752 L413.5005 162.1095 L413.4318 161.283 L416.4428 160.6295 L416.9321 160.9627 L417.4178 160.7082 L417.5146 159.8716 L418.0003 159.956 L418.7031 159.2653 L418.8017 158.1914 L418.3033 158.0885 L418.316 155.8234 L418.6669 155.3229 L420.5039 155.8691 L420.4262 155.044 L419.9775 154.5836 L420.3411 153.504 L421.5423 154.146 L422.4703 155.1885 L422.4079 152.3514 L420.0137 152.144 L417.4793 151.5163 L411.877 150.9057 L412.1166 148.0829 L407.5445 144.6695 L405.0544 141.7651 L400.229 139.663 L396.1217 140.3265 L393.3277 140.4395 L390.2498 138.273 L390.5121 134.6065 L388.619 131.0686 L386.2556 134.0702 L384.9603 132.5844 L383.571 128.4287 L386.0765 126.1836 L391.431 128.8177 L391.6463 127.8395 L389.0215 125.7974 L388.5602 123.6152 L387.0542 121.7004 L384.8265 118.3312 L385.3701 115.2608 L382.8981 113.2787 L380.4524 115.3967 L380.4795 122.0264 L378.6932 125.7946 L372.085 127.4592 L369.5859 126.0205 L368.4715 126.6726 L370.1602 128.5145 L368.6325 131.1143 L366.1081 132.0238 L361.1968 132.1482 L359.7026 133.2465 L358.7845 134.8681 L357.1799 133.7313 L355.8449 134.4349 L354.8753 136.4054 L351.8426 135.5746 L351.1696 133.3638 L350.2154 133.3552 L348.316 134.2332 L348.0962 135.9635 L346.1651 137.5151 L343.9147 136.241 L341.3451 137.2263 L340.5627 141.1817 L337.6258 142.4401 L337.3111 143.2423 L338.8596 144.9269 L339.1788 145.7648 L338.8596 147.1276 L337.6503 147.365 L337.0397 147.182 L334.3769 144.6552 L332.4829 145.1342 L330.9887 144.3591 L329.4746 145.5461 L327.5734 144.9655 L325.5618 144.0245 L322.416 142.4015 L320.4496 142.6589 L318.7103 143.9487 L317.9098 146.7086 L316.3107 146.2582 L315.8494 144.8454 L312.9723 145.772 L310.0164 145.8192 L309.8925 148.4346 L307.8836 148.0686 L306.829 146.8416 L304.0784 147.5209 L305.1123 149.9433 L302.9931 149.9976 L302.6132 150.7856 L301.3415 150.3065 L299.9558 149.9261 L299.2222 151.1502 L300.0227 152.0969 L299.9232 153.6655 L300.4107 153.9401 L300.8476 154.9583 L300.8232 156.9002 L301.8181 156.414 L303.5891 156.9731 L303.2734 158.3559 L299.7071 157.2634 L296.3107 156.6571 L297.2568 153.697 L296.8199 152.3385 L295.4379 152.2098 L293.9446 154.7595 L292.6747 161.0914 L291.6155 162.2054 L291.7512 165.1668 L293.2454 168.0739 L292.4657 170.0687 L293.7022 170.6721 L294.6528 172.5196 L295.115 173.0358 L296.772 172.6555 L296.7449 174.7746 L295.4949 174.666 L295.1964 175.2908 L296.3369 177.3013 L296.6092 178.0892 L295.7526 178.2966 L294.5886 177.4729 L293.6904 179.6564 L292.8348 179.8909 L292.7904 176.9267 L291.7946 176.5306 L292.2351 174.0997 L291.1488 174.0139 L290.3058 178.2522 L291.3387 179.3118 L291.8009 179.4033 L291.1488 180.8604 L288.8116 177.7089 L286.5567 175.8614 L285.3212 175.338 L284.8536 173.808 L283.3069 173.8337 L283.7926 175.4338 L284.3018 176.6965 L284.9811 177.5458 L284.423 178.564 L283.6226 178.7584 L282.4332 180.5444 L282.8465 181.6454 L283.7908 182.8208 L283.1857 183.4157 L280.9299 182.8094 L280.1539 182.9309 L280.2371 185.4219 L279.2069 185.818 L279.1906 188.9337 L279.1589 191.203 L275.0589 191.0343 L275.1312 189.1168 L274.404 188.8022 L273.6759 190.3064 L270.0996 190.1706 L269.139 188.6077 L266.384 188.449 L265.2823 186.2298 L266.2763 185.745 L265.4053 184.6883 L263.8261 185.4061 L263.8749 187.3222 L265.209 189.6272 L264.5053 190.5724 L263.1956 191.1072 L261.3035 186.8375 L260.503 187.9771 L260.0779 189.2941 M277.3472 225.4154 L278.8143 223.8126 L280.7155 222.2912 L280.7155 219.8462 L281.6671 219.3572 L281.7756 218.3792 L282.9433 219.2485 L281.9384 222.1282 L283.704 222.5901 L284.1662 223.4322 L285.7146 222.7531 L285.8232 223.8669 L281.8027 224.5732 L279.7378 224.4374 L278.6244 225.4426 L279.0585 226.9096 L278.4878 227.6702 L277.6186 225.6871 L277.3472 225.4154 M293.5448 169.6612 L294.6121 168.0596 L295.2923 168.0839 L296.3595 169.8056 L296.5052 170.6307 L298.9066 172.062 L300.2651 171.0925 L301.1389 171.5287 L299.7803 173.858 L298.931 173.7122 L298.7365 172.9114 L296.3351 171.4557 L295.6803 171.5773 L293.666 170.0244 L293.5448 169.6612 M297.1112 169.4424 L297.16 169.0305 L298.6153 166.2636 L300.5564 165.3913 L301.2601 163.9356 L301.9637 164.3474 L301.5025 166.9185 L300.872 168.4714 L298.1785 169.7098 L297.1112 169.4424 M297.6204 185.9881 L298.5909 184.7984 L299.8527 184.1192 L300.6287 184.1192 L301.0177 186.5701 L302.691 186.0853 L303.7103 186.3999 L303.2734 188.5834 L302.861 189.0924 L301.1624 188.8265 L300.7988 187.2493 L297.6204 185.9881 M303.609 203.4943 L303.761 202.8881 L307.0234 200.3086 L307.5996 201.1279 L308.5403 201.4925 L307.7814 202.7965 L306.9022 203.1311 L307.6457 203.9347 L306.5377 204.9056 L305.9001 204.1321 L305.3691 204.2993 L305.0661 203.8432 L303.8523 203.8589 L303.609 203.4943 M308.2065 203.6773 L309.6781 203.0697 L309.5569 201.5525 L311.1199 202.3876 L313.4715 203.1154 L313.8207 204.1921 L313.0772 205.3003 L313.3503 205.9223 L313.1079 206.5743 L311.7422 206.9232 L311.3478 205.8922 L309.2991 205.7249 L308.6316 206.0138 L308.495 204.8599 L308.2065 203.6773 M340.3556 145.2057 L341.3017 144.8053 L341.3379 143.6542 L341.592 143.3381 L342.9026 143.3867 L343.4118 144.2119 L343.0962 144.7338 L343.5213 145.6919 L344.0188 145.8006 L344.0911 144.0546 L344.0794 142.8534 L342.2839 142.3915 L342.3934 141.4462 L343.4245 141.4462 L346.1289 140.4638 L346.1172 140.9371 L345.2678 141.9196 L345.5709 143.2294 L345.6315 143.617 L344.9766 144.0789 L345.0499 145.1571 L344.6374 147.4508 L344.2973 147.4622 L342.3934 146.2367 L342.4658 145.6061 L341.9439 145.0856 L341.289 145.5818 L340.5736 145.5089 L340.3556 145.2057 M344.7586 140.185 L344.8066 138.2187 L345.1711 137.7825 L346.8444 138.6077 L348.0093 137.8798 L349.7315 137.1762 L350.484 138.2916 L348.9799 139.214 L348.6886 138.7535 L347.4024 139.0438 L346.0195 139.1167 L345.4135 140.4023 L344.7586 140.185 M363.2201 136.1566 L364.1662 135.5503 L364.2033 134.8839 L364.0577 134.4349 L364.7125 133.767 L364.8455 133.1249 L365.1973 133.1249 L365.513 133.8285 L365.1973 134.6165 L365.6468 135.4058 L365.901 136.4841 L364.8581 137.4307 L363.7782 137.1633 L363.2201 136.1566 M375.1928 129.8259 L375.3384 129.4984 L377.7398 128.9636 L378.4191 129.4369 L378.7103 128.576 L379.3534 128.516 L379.4746 128.4916 L379.9233 128.9636 L379.8021 130.5538 L379.3896 130.6739 L377.0976 130.3106 L375.1928 129.8259 M380.5184 134.871 L381.6825 134.3376 L381.5613 133.634 L380.5663 132.8332 L380.6152 131.8637 L382.1193 132.47 L383.3078 132.4943 L383.3078 132.8332 L382.4341 135.3572 L380.5663 135.3086 L380.5184 134.871 M393.5457 145.5461 L394.3462 144.7209 L396.3116 145.23 L397.1845 146.6858 L396.9421 147.0261 L395.7536 146.5413 L395.0255 147.2435 L393.5457 145.5461 M396.9421 142.0282 L397.2333 141.4219 L399.7804 141.0086 L402.7407 141.931 L404.4385 142.9749 L404.1716 144.8668 L403.4924 145.1099 L402.0615 144.0417 L401.3334 142.7561 L398.5186 142.513 L397.5001 142.7075 L396.9421 142.0282 M404.4231 200.5373 L404.983 199.698 L405.8486 198.8572 L406.5486 199.2419 L406.46 200.9205 L405.6197 202.4991 L404.9323 202.5249 L404.4737 201.9644 L404.4231 200.5373 M404.5841 146.7101 L405.3366 145.5461 L404.9965 144.1146 L405.2633 143.6785 L405.7002 143.8958 L406.3062 145.3273 L407.3744 146.1038 L407.0588 146.517 L406.3306 146.8559 L406.2094 147.8755 L404.5841 146.7101 M415.3737 178.8914 L415.9598 177.6688 L416.5939 177.1869 L417.0705 177.9205 L418.8415 178.0363 L418.0175 180.4129 L415.8829 179.6293 L415.3737 178.8914 M418.7357 196.4893 L419.4991 195.4183 L420.645 194.426 L419.5244 193.5595 L419.9323 192.2869 L421.2818 192.6429 L421.46 193.7125 L422.7082 194.0942 L424.0577 195.6743 L422.8357 197.3029 L422.6829 199.3405 L420.2887 199.6208 L420.4415 200.6646 L419.5759 200.1298 L419.1427 199.1117 L419.3978 198.2967 L420.8232 197.8892 L420.3909 196.5136 L418.9645 197.0999 L418.7357 196.4893 M418.8867 174.0454 L419.3426 173.6164 L420.5808 174.1455 L421.2565 175.9114 L423.3196 176.7265 L425.0002 177.9233 L424.2359 178.4067 L422.8357 177.5416 L420.2127 178.3566 L419.5244 176.8538 L419.0441 176.2918 L419.1526 175.2093 L418.8867 174.0454 M420.5094 170.1287 L421.5025 168.194 L424.4312 170.1287 L424.7623 171.4286 L423.1577 172.0649 L423.0049 170.562 L422.6485 170.5363 L421.5278 171.9376 L420.6622 171.1226 L420.5094 170.1287 M423.7266 193.5595 L423.7266 193.1019 L425.2037 192.9746 L425.2805 191.4461 L426.7069 191.7263 L428.515 191.9294 L428.515 192.5671 L427.2921 194.0442 L424.1346 193.9412 L423.7266 193.5595 M424.7451 199.7009 L425.7644 197.8577 L426.3587 198.7671 L425.5094 200.8047 L426.1036 202.4906 L426.346 202.492 L427.2749 203.3156 L427.9289 200.4101 L429.0749 200.7418 L430.5266 200.7418 L430.9598 201.4296 L430.2462 202.6521 L430.7554 204.3322 L430.0933 205.7592 L428.846 206.0895 L428.3621 204.867 L427.9542 203.9505 L426.5794 204.867 L426.1208 203.1612 L425.1458 202.7822 L424.7451 199.7009 M430.0933 207.8726 L430.8576 206.5986 L431.9014 205.5548 L431.8761 204.714 L432.5128 204.0019 L433.022 203.2627 L432.3853 202.1174 L431.5703 200.207 L432.615 199.9782 L433.022 201.2251 L433.9898 202.4734 L434.0667 203.8747 L433.3784 205.5805 L432.4368 206.956 L430.0933 207.8726 M434.7053 296.8316 L435.0309 296.5228 L435.0797 295.7022 L436.5432 296.3927 L437.6331 295.5635 L437.9822 295.7922 L437.9904 296.4013 L437.5599 296.7587 L437.1773 298.0197 L435.5347 298.9132 L435.3077 297.9225 L434.7053 296.8316 M438.8686 301.2064 L439.121 301.1335 L440.1693 301.4423 L440.8938 301.3365 L441.5116 299.6138 L442.1293 299.2392 L442.8692 299.5237 L443.5195 300.3858 L443.373 301.3451 L442.3572 301.2722 L441.8851 302.1257 L441.6337 302.2558 L441.3569 301.9627 L440.5763 302.0442 L439.1373 301.5238 L438.8686 301.2064 M443.0564 317.8676 L443.6905 316.2163 L444.3733 316.7696 L445.1132 316.0705 L444.983 315.5415 L444.5036 315.3142 L443.4218 314.8753 L443.9265 312.5822 L443.5439 311.9317 L443.4055 310.8008 L443.1867 310.452 L443.5846 310.1832 L443.9591 310.452 L444.3733 311.6057 L445.1132 312.1018 L445.8775 312.0203 L446.1787 312.8581 L445.8368 314.5408 L445.2516 314.8096 L445.4388 315.3471 L446.138 315.6802 L446.195 316.2006 L446.0078 316.9083 L446.4057 317.0941 L446.8942 317.8018 L447.17 318.7854 L447.0488 319.6803 L446.5278 319.9319 L446.024 318.6481 L445.2597 317.4844 L444.2268 317.29 L443.259 318.0791 L443.0564 317.8676 M444.9784 193.5509 L445.1603 192.58 L446.4338 192.0709 L447.0407 193.1391 L446.6888 193.8183 L446.2402 194.2673 L444.9784 193.5509 M453.9057 214.9247 L454.112 214.3899 L454.7795 213.8937 L454.6338 212.8256 L454.9495 211.8433 L456.138 211.2242 L455.2281 208.8349 L456.9267 208.2286 L456.8661 207.7797 L456.5143 207.5738 L455.8223 206.4699 L456.6843 205.4633 L459.2793 205.6935 L459.935 206.6872 L458.9763 208.0342 L457.994 208.4946 L458.1396 209.72 L459.074 209.9874 L459.6917 211.6617 L458.4553 212.3895 L458.3703 213.675 L460.6993 216.2101 L459.7162 216.8893 L458.5883 216.1014 L456.2592 216.2101 L456.3804 215.7011 L457.9207 215.3851 L457.8122 213.3475 L456.6717 213.0072 L456.4292 213.8694 L455.447 214.317 L454.7306 215.5181 L453.9057 214.9247 M457.2541 203.4972 L458.079 202.6007 L459.074 203.2184 L460.3954 203.2427 L460.6143 202.6121 L460.2136 201.727 L460.7473 201.5683 L461.6816 202.2603 L463.1975 203.4243 L462.8095 204.0191 L462.7371 204.807 L463.3187 205.7535 L462.9434 206.2511 L462.4577 206.081 L461.5242 205.0143 L461.5722 203.8132 L460.8929 203.6802 L459.6311 204.9771 L458.6615 204.2493 L457.3021 204.1764 L457.2541 203.4972 M458.629 280.1628 L459.0414 279.8468 L459.3327 280.3086 L460.3276 279.8468 L460.1331 279.2892 L461.3949 277.6637 L462.0742 277.9553 L462.2442 279.3622 L462.9479 278.5615 L463.3359 278.6344 L463.8451 281.2308 L463.1414 281.2065 L462.3166 280.5989 L459.3091 281.3266 L458.629 280.1628 M460.2489 287.6359 L461.1226 286.931 L460.9526 285.9617 L462.36 284.9423 L462.6992 283.9229 L465.8775 281.5939 L466.6554 281.2823 L465.9625 279.4108 L466.5694 279.0962 L467.1275 279.6781 L467.5888 278.999 L467.6123 279.7996 L469.0197 280.576 L467.36 282.3388 L470.9969 284.1545 L470.5239 286.3134 L469.5172 283.9601 L468.0664 285.0152 L467.4721 286.5064 L466.9213 286.119 L466.3388 284.9795 L463.6217 284.1059 L462.918 284.4333 L462.8692 285.1611 L461.6319 286.0832 L461.7295 287.1255 L461.2438 288.2664 L460.7834 288.2421 L460.2489 287.6359 M462.4821 209.9144 L462.9063 209.3196 L464.1925 209.4783 L465.5148 208.2043 L465.9517 208.3616 L466.4853 209.0165 L467.407 208.9807 L467.577 209.271 L467.104 210.6909 L466.5704 211.2128 L465.6234 211.5516 L464.6167 211.5273 L462.5309 210.6179 L462.4821 209.9144 M462.7055 268.0573 L463.2147 266.6018 L464.3544 266.0671 L464.452 264.9033 L466.1263 264.0054 L467.4359 266.5289 L468.4065 266.9407 L468.382 267.4268 L466.1018 267.208 L465.9806 269.051 L465.3493 269.2697 L465.665 271.8904 L464.9369 272.6182 L464.1852 271.939 L464.112 269.6586 L462.7055 268.0573 M470.1964 279.2535 L470.9001 277.4092 L471.3171 277.4449 L472.2632 274.2681 L471.5839 273.6361 L471.9729 272.6668 L472.7977 272.8355 L472.5544 275.602 L473.525 274.7041 L474.2286 275.845 L473.5738 276.0138 L472.312 277.4692 L472.3726 278.1011 L473.0836 278.307 L473.1315 281.0006 L473.496 281.2908 L475.0137 280.5188 L475.3755 280.9949 L474.0297 282.6748 L474.2721 284.1059 L473.0103 285.6829 L472.4767 285.3669 L472.3554 284.1545 L471.3849 283.5469 L471.3849 283.1595 L470.8024 281.9943 L471.6038 280.0298 L470.1964 279.2535 M474.7985 272.388 L475.1141 271.5745 L476.0846 272.0834 L476.7395 271.7074 L476.7106 270.6051 L475.9336 269.9746 L477.123 269.61 L477.9235 270.119 L479.0152 269.2712 L479.6736 269.6472 L480.3493 268.4462 L481.1498 267.7899 L482.3148 266.9907 L484.0857 265.8012 L485.201 266.6018 L485.1286 268.349 L485.6623 268.4219 L485.8079 266.3588 L486.972 266.2144 L487.2632 266.456 L488.4038 266.3102 L488.6217 265.8012 L489.4222 266.2144 L489.689 267.4997 L490.1503 267.5726 L492.0181 266.4803 L490.854 268.2031 L489.8835 268.9309 L490.854 269.5614 L490.684 269.926 L489.0098 269.8774 L488.7429 271.0412 L488.9862 273.5403 L491.8725 275.2875 L492.5526 275.4562 L491.4844 277.5679 L490.5383 277.6408 L490.3204 276.4513 L489.9803 276.2325 L488.5494 276.4513 L487.9669 276.0881 L486.8028 275.4562 L486.2203 276.4026 L485.4443 276.2082 L485.4922 274.6083 L484.1093 273.5889 L483.2608 274.3653 L484.1581 274.8743 L483.7456 275.602 L482.5174 274.4568 L482.2343 275.1888 L481.7133 275.2017 L481.7133 275.9537 L480.4651 277.1761 L480.257 277.5064 L481.7494 278.8889 L481.422 279.8954 L482.6232 280.2958 L485.1702 277.9668 L486.2737 279.8597 L485.7283 280.5502 L484.7822 280.0899 L482.9985 282.346 L482.3437 281.4853 L480.7428 280.7933 L480.0508 281.3151 L479.2259 280.5388 L479.8084 279.2535 L478.5837 278.1984 L479.954 277.6036 L480.0345 277.0474 L480.0997 276.5971 L479.348 277.046 L479.0441 276.3412 L478.1342 277.1061 L477.7344 279.0705 L476.2547 279.6653 L475.5998 279.3379 L474.9079 278.0282 L475.7446 277.5307 L476.8128 277.8338 L477.2976 276.6085 L476.792 275.9923 L476.0123 275.0444 L476.1208 273.7333 L475.5447 273.1472 L474.7985 272.388 M484.1581 263.545 L484.2314 262.8659 L485.0798 261.9437 L485.7835 262.8902 L485.4922 263.2291 L484.1581 263.545 M485.2064 283.0251 L485.6306 281.7026 L486.8318 280.5388 L487.8511 280.4058 L488.7239 278.5501 L489.2947 278.2942 L488.8451 280.6846 L490.1069 280.5502 L490.1431 281.3023 L488.8578 282.5761 L488.1541 282.8078 L487.8629 282.0429 L485.8368 283.2324 L485.2064 283.0251 M490.3864 264.2113 L491.223 263.3377 L491.1136 262.4656 L492.0968 262.5256 L491.9141 263.1204 L492.691 263.2291 L494.0007 263.7624 L493.5159 265.0005 L491.3804 265.4738 L490.5799 265.7769 L490.3864 264.2113 M305.6287 144.0746 L306.9059 144.618 L307.2857 143.9931 L306.7702 141.8738 L308.2092 142.064 L308.5086 142.8519 L309.4592 142.7976 L309.405 141.3304 L306.2266 140.8685 L305.8313 142.9892 L305.6287 144.0746 M306.2809 134.023 L308.2581 134.3319 L307.9325 132.9777 L306.6725 132.4428 L306.2809 134.023 M384.3091 202.1488 L385.4008 203.1669 L386.5649 205.9823 L388.3603 204.235 L386.6137 200.4258 L387.3898 197.4659 L388.7004 199.0431 L390.0834 199.2376 L390.6894 193.7053 L387.8267 193.997 L387.3663 196.1562 L386.1045 196.7867 L384.3091 202.1488 M385.2308 230.946 L387.2451 231.7224 L389.3308 230.3626 L392.6792 229.9265 L393.3097 229.5147 L394.5958 227.7189 L394.2069 226.8452 L391.9023 227.5973 L391.611 226.3362 L390.4225 227.6216 L385.2308 230.946 M385.8133 225.3897 L386.0557 227.9619 L387.8511 227.8647 L392.7027 223.3522 L394.3769 221.4591 L394.159 220.4653 L392.4848 220.2709 L393.164 217.6514 L395.6387 217.5542 L396.2691 216.8021 L396.3668 215.661 L397.4821 214.1082 L397.4748 215.1763 L397.4585 217.4569 L399.0839 217.1895 L399.9323 214.836 L399.5687 213.5749 L399.7876 211.7561 L394.717 209.9845 L389.234 211.1241 L387.8022 215.661 L389.6221 217.4812 L391.005 217.5542 L391.7331 219.3729 L389.7188 220.4167 L388.8216 220.441 L386.8326 221.5806 L387.123 223.0119 L388.6271 222.1625 L389.6953 222.5758 L388.8704 224.3459 L385.8133 225.3897 M389.5009 188.7807 L390.3746 192.2983 L391.9267 191.3288 L392.5336 188.5391 L390.6414 187.98 L389.5009 188.7807 M394.1345 240.2855 L398.7927 244.2403 L399.9088 243.8271 L401.7521 241.5223 L401.6554 239.9466 L403.6199 239.5091 L405.5853 235.9189 L408.8605 233.1779 L408.6054 232.8376 L408.9093 232.5831 L407.8538 231.6981 L407.5137 231.0175 L406.8227 230.6543 L405.2217 228.5196 L402.9895 231.3821 L400.418 231.9397 L398.9862 234.948 L398.0645 234.9237 L398.1378 232.6675 L396.6572 233.3466 L394.717 236.0161 L394.1345 240.2855 M396.1724 225.3654 L396.5124 226.6994 L396.9484 227.2828 L399.0595 225.73 L398.0645 224.4674 L396.1724 225.3654 M397.5553 228.3008 L398.2102 229.2717 L400.5392 228.6654 L404.0568 226.4091 L402.9171 226.1661 L402.4441 225.7057 L402.492 224.4803 L401.9095 223.8741 L401.6915 224.0313 L399.1083 226.7723 L397.5553 228.3008 M403.6199 241.8625 L404.3969 242.8577 L409.3941 239.266 L410.6803 237.0584 L412.0506 235.6029 L411.2619 234.5605 L409.8798 233.6254 L409.4059 234.2088 L408.9582 234.2188 L407.8176 235.5056 L405.4886 238.5869 L403.6199 241.8625 M438.0003 278.3256 L440.5618 277.901 L442.4893 277.0246 L442.9397 276.9488 L443.515 277.4749 L445.1051 274.8328 L444.4747 272.5281 L443.4309 272.6239 L442.6792 274.2981 L440.8115 273.11 L439.8654 274.9043 L438.0003 278.3256 M452.4378 320.4866 L453.2916 319.8733 L452.5345 319.4216 L452.4378 320.4866 M453.2862 321.1629 L453.657 321.5631 L454.3236 321.393 L454.4936 320.9984 L454.3299 320.4466 L453.6262 320.2808 L453.2862 321.1629 M454.6456 335.7306 L456.4356 335.8307 L455.9345 338.0465 L457.2731 338.0966 L457.3238 337.083 L458.0998 337.133 L458.25 336.92 L457.7742 335.4933 L459.8636 335.143 L459.7134 333.5662 L460.74 332.3281 L461.5658 332.3396 L461.9783 333.0401 L462.3536 334.6055 L464.1807 334.6798 L465.8947 334.3038 L466.318 333.5319 L465.295 332.8071 L465.39 332.3296 L466.1199 332.9043 L466.9692 332.7842 L467.6006 332.1766 L468.5837 332.1494 L468.837 331.7163 L469.2178 331.2988 L468.6923 330.7456 L469.405 331.1687 L470.9236 331.0372 L471.0937 330.4539 L471.8815 330.2595 L471.8942 329.509 L472.4522 329.3145 L471.7413 329.193 L470.627 328.8599 L469.9468 328.3767 L468.9455 328.0779 L466.6708 327.6934 L463.4245 331.1316 L461.2294 330.2552 L459.7758 331.6519 L458.4996 330.0122 L458.2997 329.0486 L459.301 329.3488 L459.7134 328.7241 L457.862 327.8978 L457.7742 326.3467 L457.2487 326.0078 L456.1724 327.7977 L456.5224 328.148 L456.3976 328.837 L457.1863 330.2123 L457.5237 332.94 L456.5731 333.0029 L454.9332 334.3925 L454.6456 335.7306 M454.9169 345.1115 L456.4048 347.3988 L456.9502 347.4846 L457.0959 348.2852 L456.5857 349.0857 L455.6152 349.11 L455.8205 350.0664 L456.9421 350.3023 L458.6597 348.1865 L457.5789 346.5111 L455.8097 345.1558 L455.9797 344.6955 L457.0226 345.2773 L457.3383 344.5254 L455.7844 343.376 L455.0436 344.208 L454.9169 345.1115 M456.3189 302.9306 L456.5007 303.7927 L456.9864 303.8899 L457.6413 304.2287 L458.1387 303.9142 L458.5222 303.9542 L457.985 303.3295 L457.435 302.4216 L456.962 302.3001 L456.3189 302.9306 M456.3316 300.2743 L458.1387 301.7068 L459.5696 302.0213 L461.0259 302.8948 L462.36 301.754 L463.3305 301.1964 L463.6461 300.1542 L463.0148 299.3536 L460.6858 300.2142 L459.0604 300.2628 L459.036 299.8254 L457.9307 298.3013 L456.8408 298.7102 L456.3316 300.2743 M457.3627 317.0384 L459.1572 318.9555 L459.6673 319.077 L459.7885 318.6639 L459.3516 318.2278 L459.7641 317.1842 L458.988 316.3593 L458.6235 316.9169 L457.7507 316.6266 L457.3627 317.0384 M458.2075 358.9811 L458.2256 359.633 L458.7863 359.7045 L460.8477 358.7638 L461.517 357.3714 L460.9743 356.5409 L458.8949 357.8789 L458.2075 358.9811 M458.5439 361.9803 L459.1581 362.6865 L459.5181 367.0094 L460.8585 369.0336 L460.7319 370.6604 L461.6536 370.1357 L463.0827 371.854 L462.6548 373.0319 L462.956 373.6438 L464.8907 372.0527 L465.4696 372.9748 L464.3299 373.8253 L464.8545 375.5793 L464.8184 377.3691 L463.7511 378.617 L463.733 379.9736 L462.5038 380.281 L462.113 381.7362 L463.2274 382.6854 L465.8676 381.8177 L465.8857 382.6139 L467.6973 382.0278 L467.2017 381.0186 L467.1338 380.0222 L467.3147 377.086 L466.3732 376.6458 L466.3171 374.1727 L467.6937 373.9969 L468.505 372.8618 L468.4707 371.368 L468.2427 370.5489 L468.0401 369.8413 L467.4685 369.7355 L466.5658 370.0185 L466.5903 369.5782 L467.0986 368.2059 L466.4419 368.0358 L465.8404 368.832 L465.4687 369.0808 L464.7967 366.2489 L466.7078 365.6999 L466.3714 366.6377 L467.4522 366.8936 L467.6449 365.9815 L468.4517 365.2825 L469.2205 364.0288 L469.9884 363.3698 L471.4039 363.1611 L472.0968 361.8659 L472.2569 359.0054 L473.1668 359.7016 L472.4586 361.0468 L473.7149 360.6036 L473.2192 361.5057 L474.2395 362.0532 L473.4987 363.68 L472.8475 363.843 L472.5581 365.3797 L475.6686 366.3203 L477.6033 366.3203 L477.4975 365.7471 L476.1507 365.4197 L476.7386 364.6621 L478.5611 364.5306 L478.8144 363.3726 L480.2498 363.6214 L481.0385 366.2489 L481.848 367.5183 L481.3822 368.9793 L480.4063 369.937 L480.5329 371.3294 L479.6465 372.6503 L479.2485 372.2514 L476.7603 373.568 L476.9982 374.3442 L477.899 374.2942 L478.3368 373.5809 L478.9871 374.3685 L479.4891 374.5029 L480.1033 374.247 L481.5866 374.7331 L481.8417 372.7375 L482.814 371.4595 L483.6832 371.561 L483.8623 372.1499 L484.604 372.2514 L484.9821 371.1321 L484.1445 369.5311 L484.6782 368.9978 L485.3574 370.3559 L486.5731 368.5433 L486.829 364.9895 L488.0058 364.6792 L486.8381 363.2125 L485.3213 362.8852 L483.9871 363.0782 L482.7381 362.5807 L481.4157 363.2854 L480.8703 363.1396 L479.8871 361.733 L479.8147 361.174 L481.2212 360.9196 L481.877 360.2277 L481.8887 359.5601 L482.701 359.7673 L482.9922 360.495 L483.6715 360.3978 L484.0116 361.2827 L486.1344 362.6536 L487.0561 362.4849 L487.4929 361.2355 L488.9727 361.1011 L489.2277 361.1497 L488.5358 362.0718 L488.7909 362.848 L489.604 362.9095 L489.3851 363.9645 L488.6941 363.5756 L488.7248 364.4891 L489.7478 364.2189 L489.6926 366.5748 L488.4653 367.2395 L488.2645 368.6605 L488.6317 368.7391 L488.8072 369.1522 L489.1264 369.1794 L489.4548 368.3803 L489.9405 367.7384 L490.4578 365.4355 L491.1299 363.8344 L489.898 361.357 L490.2688 360.4321 L489.7795 359.2098 L488.7122 359.44 L488.4698 360.4464 L488.1297 360.2405 L487.4993 359.3671 L485.8495 359.4514 L485.4244 358.8939 L484.3209 359.743 L483.2292 358.7724 L483.4354 357.3414 L485.182 356.8682 L485.3403 357.3042 L485.0364 357.7045 L485.1702 358.2263 L486.953 357.7903 L486.8924 356.8439 L486.1163 357.0383 L486.1036 355.7031 L487.293 355.5459 L487.8385 353.7018 L488.6353 353.5145 L488.7845 352.7068 L489.2703 352.2222 L490.9562 347.9035 L488.8696 345.5876 L489.3915 343.0158 L489.9495 342.3967 L488.9546 340.4925 L489.585 338.8299 L488.6272 338.564 L487.9298 338.8728 L487.8574 339.9164 L486.6934 339.6248 L486.3533 340.401 L485.9345 341.742 L486.0702 342.5254 L486.3225 343.9736 L487.1447 345.619 L487.7534 346.837 L487.8385 348.1837 L487.5843 348.7412 L486.4076 348.4867 L486.347 349.4803 L485.3403 349.9535 L485.5582 348.7655 L484.9513 347.2373 L485.4244 345.8049 L484.5271 345.9164 L483.572 348.6769 L482.7579 349.7562 L481.8553 350.0921 L481.2239 349.8262 L482.3256 348.3895 L482.9153 346.0836 L483.6281 344.2938 L484.3734 342.7684 L483.1243 342.4168 L482.2587 343.0415 L481.2655 344.4024 L480.769 345.1716 L479.661 345.4918 L479.4548 344.4997 L480.561 343.8421 L480.8649 342.9772 L480.7455 341.7349 L480.3366 340.1895 L479.4068 338.8442 L478.4942 337.3703 L478.6217 336.4096 L478.174 335.8164 L477.4206 334.8228 L476.4365 333.9336 L475.2724 333.5462 L474.481 333.8507 L473.9772 333.5076 L473.3983 334.2395 L471.555 334.4325 L473.5231 333.0329 L473.4472 332.1766 L473.127 331.955 L472.4767 331.8378 L471.3967 332.4354 L469.7306 333.4933 L468.0808 334.1666 L467.3763 334.0537 L466.5921 335.0186 L465.0562 335.1559 L464.5307 335.7191 L462.9298 336.4697 L462.3536 337.4204 L461.6409 337.4575 L461.365 338.1466 L463.0049 338.3582 L464.9938 337.3074 L467.3961 335.2059 L468.4354 335.256 L469.2232 336.0937 L469.8862 335.7692 L470.3366 336.1066 L470.4244 337.3575 L468.3477 337.2074 L467.8348 337.8707 L468.1975 339.2974 L467.4549 339.3331 L467.2885 341.6434 L465.6812 341.5447 L465.7871 343.7577 L464.0704 343.8806 L463.7348 345.5804 L465.1494 345.7391 L466.9692 343.8463 L467.6268 344.2066 L466.2782 347.5775 L464.8826 347.6304 L464.9558 348.5282 L465.911 349.9692 L464.708 353.3487 L464.3182 353.1185 L464.0704 352.0206 L461.1154 351.7032 L460.7789 354.7997 L462.4396 353.7675 L463.0447 356.8697 L464.1237 356.3393 L465.2389 353.7561 L466.6545 354.2865 L466.1561 355.7603 L467.0425 355.706 L467.0787 356.9354 L466.4636 357.2242 L465.5058 362.7579 L463.5168 363.7715 L461.2737 362.342 L462.3772 359.956 L461.4546 359.9017 L460.2616 362.4506 L459.1943 361.0411 L458.5439 361.9803 M475.9625 354.4451 L477.0769 353.5074 L478.3513 353.3129 L478.6344 352.9941 L478.8117 350.8712 L477.0244 352.6053 L478.6344 349.6861 L478.2455 349.0657 L478.581 348.5525 L480.3158 347.8634 L480.2453 348.8012 L481.006 347.792 L481.1471 348.5182 L480.8115 349.0843 L479.0948 349.6147 L479.5723 350.8355 L478.9175 352.3751 L479.6076 352.145 L479.112 353.8433 L477.8909 353.7904 L477.113 354.498 L475.9625 354.4451 M478.2455 361.5057 L478.9709 358.1977 L479.7144 357.9676 L480.5103 354.7639 L481.4835 354.924 L481.9258 353.9148 L481.3424 353.4016 L481.7314 352.9055 L481.3307 352.9012 L480.6396 353.3387 L480.3972 353.15 L481.1064 351.1543 L481.6708 350.9184 L482.0769 350.9613 L481.9918 351.5188 L482.89 351.6275 L482.8348 350.8884 L483.5023 350.8512 L483.3866 351.8891 L483.9691 351.5246 L484.2721 351.9005 L483.8786 352.9684 L483.4417 353.2286 L482.6159 352.8884 L481.7847 355.047 L483.023 355.3829 L482.1963 357.969 L481.7494 359.3656 L480.8468 360.1962 L481.4483 358.7281 L480.9354 358.1262 L481.2357 357.6488 L481.9439 357.1527 L482.4215 355.9319 L481.3777 355.8261 L480.9707 357.33 L478.2455 361.5057 M458.5512 306.7764 L459.3272 307.1409 L460.6252 307.2982 L461.2438 305.6369 L461.2194 304.6533 L458.9971 304.5704 L458.5512 306.7764 M458.5756 314.2735 L460.4189 316.771 L461.4862 317.0141 L462.2388 316.1163 L462.1176 314.7095 L462.7968 313.1083 L464.8826 311.2397 L465.3683 309.8087 L466.2411 309.8945 L466.2954 308.8637 L466.8779 307.8744 L466.5061 307.6828 L466.1688 307.6499 L466.5079 307.0866 L467.0298 307.1109 L467.454 306.449 L467.6693 306.8836 L468.0248 306.043 L467.6485 305.7084 L466.7259 306.6306 L465.1494 306.6792 L463.7185 307.9172 L464.3363 309.0395 L463.6461 309.274 L462.9777 308.705 L460.6858 309.6028 L460.1639 310.6036 L460.9282 311.041 L461.3759 310.1875 L462.4947 310.758 L461.8752 312.1619 L461.195 311.823 L458.988 312.6236 L458.5756 314.2735 M459.6917 321.9634 L460.1033 322.9099 L460.807 322.1336 L460.1096 321.0599 L459.6917 321.9634 M460.9897 297.7523 L461.5532 298.2856 L462.5779 297.9696 L462.4323 296.9031 L463.8397 296.6844 L464.5922 297.4607 L465.5863 296.976 L465.6595 296.3198 L464.4783 295.7165 L464.2666 295.309 L463.9564 295.0903 L463.3667 295.8837 L462.2768 296.2097 L461.2628 297.0789 L460.9897 297.7523 M461.8987 322.328 L462.1727 323.7648 L463.6217 323.3216 L464.1554 324.1465 L465.3194 323.2973 L465.8531 323.5889 L464.5922 325.506 L464.907 325.7963 L466.0231 324.6812 L466.9213 324.6569 L467.2116 326.1122 L469.0061 326.4038 L468.1767 325.5632 L469.7107 326.451 L471.0937 327.9321 L471.7241 327.4217 L472.4034 327.6162 L473.2283 328.198 L475.8242 326.8399 L475.8187 326.5568 L475.5302 326.4281 L474.6167 326.4281 L473.5114 326.268 L473.4065 325.0657 L472.2342 325.3602 L472.7317 324.664 L473.6896 324.7769 L473.7863 324.2194 L474.1219 323.9692 L474.5561 324.0564 L474.6809 323.5932 L472.5924 323.1314 L474.8744 323.2415 L476.2031 322.9356 L476.536 322.4266 L476.8128 321.7704 L475.7726 321.546 L473.8569 321.6203 L473.2608 321.7147 L474.2087 322.4867 L473.6896 322.7883 L471.5396 321.3458 L472.2415 320.957 L472.9669 321.5346 L472.9741 320.6139 L473.2011 320.0063 L473.3929 318.9841 L473.8958 318.0334 L475.0155 317.4058 L475.4814 316.7625 L474.2078 316.4508 L473.8614 316.0734 L474.0722 315.7274 L474.7777 315.054 L475.4606 313.8503 L474.0089 314.2277 L473.0103 314.7338 L471.3469 315.4629 L470.5212 316.1863 L470.4624 317.4944 L470.0382 317.8332 L470.0508 319.077 L467.7941 319.7075 L467.5029 321.1142 L465.3927 322.4967 L465.1982 321.769 L466.3632 320.9441 L464.2766 319.2457 L464.2277 321.0656 L463.4273 321.8176 L463.3784 320.022 L462.5544 320.4838 L462.7724 320.9198 L461.8987 322.328 M462.3455 385.0955 L462.7796 385.8546 L464.2992 385.9632 L464.5515 386.6322 L464.2151 388.0588 L466.1127 388.6978 L467.7806 388.1846 L468.7664 387.2183 L469.5226 385.3514 L470.7192 384.9168 L470.9001 383.6532 L470.2272 383.2357 L469.8365 383.5402 L469.3634 383.3101 L468.0718 383.4259 L467.3428 383.8862 L466.1027 383.9505 L465.5781 384.5895 L464.7216 384.3593 L463.5195 385.177 L463.3658 385.167 L462.3455 385.0955 M462.9605 314.0033 L464.9314 312.8896 L467.4549 312.8896 L467.7787 312.2348 L467.4549 311.337 L466.9213 310.6336 L465.8658 310.3805 L464.3734 312.169 L462.9605 314.0033 M464.131 317.6202 L464.1798 318.4208 L465.1982 318.3493 L465.3683 317.6688 L465.0526 316.9412 L464.7134 316.9898 L464.131 317.6202 M466.1923 392.2701 L466.8634 392.5603 L467.7281 393.6495 L469.8319 393.1521 L471.8616 393.5209 L474.4095 392.9648 L475.8024 392.0471 L477.0841 390.6376 L477.0579 389.6656 L477.6738 390.1101 L478.9627 388.6835 L478.3368 388.5091 L477.6865 388.1961 L477.1981 386.8566 L477.8113 386.8452 L477.8692 387.3741 L478.4119 387.4327 L478.6244 386.9953 L478.7058 386.0876 L480.0011 385.3557 L479.3128 385.1184 L479.3507 384.4551 L479.9387 382.7154 L481.1651 383.1657 L482.2542 382.1336 L483.4788 379.7964 L485.8061 377.5706 L484.4765 375.8066 L484.8337 374.4 L484.5271 373.3007 L483.5295 374.1956 L483.3766 375.8324 L481.1769 375.9853 L480.2534 375.2191 L479.9477 375.7123 L480.2507 376.4756 L479.8265 376.5128 L479.0622 375.3964 L478.8777 374.8531 L477.4975 374.6073 L477.1329 374.6201 L477.0787 377.6407 L476.1923 377.7136 L475.8495 377.189 L475.343 377.7851 L475.5962 379.5762 L477.0606 379.5033 L477.4586 378.4183 L478.2183 379.196 L477.8204 382.1436 L476.3551 382.4695 L476.9701 380.7513 L475.6505 380.6426 L475.2706 382.0536 L474.1255 383.1471 L473.0745 384.1235 L472.8864 384.6995 L473.3368 385.0869 L476.2276 385.8632 L476.0403 386.2005 L474.4747 385.9403 L474.1671 386.8995 L474.8184 388.4362 L472.1058 388.2018 L470.4244 388.0931 L469.0134 388.8165 L468.5973 389.8471 L467.8927 390.1001 L466.8435 391.7269 L466.1923 392.2701 M466.678 315.5344 L467.4785 316.2864 L468.9591 315.4615 L468.7628 314.9583 L468.401 314.0304 L466.8725 314.1033 L466.678 315.5344 M466.6897 292.6884 L467.284 294.241 L467.7815 294.0466 L468.0845 293.4762 L467.7941 292.6398 L467.1266 292.3481 L466.6897 292.6884 M467.9289 307.1795 L468.5702 307.2853 L468.2735 307.6013 L469.2802 309.8387 L470.4018 308.9966 L470.5836 306.9222 L472.2822 304.6776 L473.0836 303.6111 L474.32 304.0229 L475.8486 302.7004 L476.5523 302.3373 L475.3394 301.8269 L474.7813 302.3859 L473.3495 302.2401 L472.2089 301.9012 L470.5356 302.2887 L469.5651 303.8899 L468.8858 303.308 L468.5467 304.0843 L468.6434 305.9515 L468.2554 306.2431 L467.9289 307.1795 M468.449 296.7516 L468.5702 298.1641 L469.6619 298.3828 L469.2983 296.7816 L468.449 296.7516 M470.172 292.4025 L470.7545 293.6163 L471.4094 293.4218 L472.4043 291.8449 L471.9674 290.6068 L470.8513 290.8012 L470.172 292.4025 M470.4985 311.4656 L470.8992 314.0061 L471.3117 314.0547 L472.8403 312.6236 L472.8647 313.327 L473.6651 313.0597 L475.5944 311.214 L476.8553 309.3683 L476.574 308.6264 L475.4832 308.7093 L474.5986 309.1167 L472.4586 310.1747 L470.4985 311.4656 M471.3849 295.0474 L471.5432 296.6072 L471.896 300.0956 L472.6702 300.493 L472.4124 301.1607 L473.0582 301.4881 L473.9546 301.2007 L474.5389 300.6145 L475.6306 300.4687 L476.4193 301.4023 L477.862 301.8755 L478.0881 301.1993 L478.345 300.4272 L478.5657 299.7653 L480.021 299.2077 L481.0648 297.6794 L479.1717 296.6658 L478.9048 298.0125 L477.7037 298.207 L477.4739 297.5879 L478.2373 297.1633 L478.4933 295.1446 L477.7417 294.2954 L473.6661 294.028 L473.326 295.2161 L471.3849 295.0474 M474.5145 312.9139 L476.4066 313.1569 L475.8214 314.4236 L475.8097 315.4729 L476.5685 316.0848 L475.8667 317.1384 L476.2366 317.7904 L477.8864 317.2814 L477.4251 315.6502 L478.6986 315.0197 L480.627 315.1641 L481.5369 314.8367 L483.3205 312.921 L483.7447 314.8739 L484.8971 314.8124 L484.9703 316.1348 L483.7936 316.4994 L483.3983 317.3029 L484.2187 317.5488 L485.0436 318.2764 L483.7574 318.9555 L483.345 318.6153 L480.4578 319.2214 L480.3855 319.9262 L483.5874 320.4838 L482.6657 321.4788 L479.415 321.769 L478.9971 324.1565 L478.0302 325.4417 L476.7712 326.6998 L478.1288 326.4996 L478.0808 327.01 L475.2417 328.1251 L475.7997 329.4847 L477.2804 329.2173 L476.2746 330.1466 L478.8569 330.5268 L478.8451 329.5132 L479.5371 328.5011 L480.8839 327.5675 L481.4157 325.852 L483.6172 324.6869 L484.3146 323.7776 L485.1639 325.2201 L485.722 325.3416 L486.6463 324.7198 L486.9349 323.4445 L485.9861 321.1271 L487.9316 320.5138 L491.0231 320.6239 L491.3144 319.5674 L492.4179 319.6046 L492.9153 319.1557 L494.5769 319.6889 L494.5443 318.611 L494.481 317.1628 L495.7174 317.5059 L495.8386 315.9047 L495.22 315.3099 L494.7469 315.6745 L494.4557 316.5351 L492.454 317.4944 L492.2116 316.5351 L493.1939 316.0133 L493.2672 315.0069 L492.5752 314.8496 L492.3934 315.6016 L490.6713 316.4136 L490.3918 315.1041 L489.0939 314.9339 L489.0821 312.9453 L492.0714 311.7101 L491.6726 310.5063 L490.6107 310.0703 L489.9676 310.7494 L488.3422 310.5306 L488.6814 309.3426 L489.7976 307.9959 L489.2033 307.0008 L488.4028 307.5355 L487.5291 307.1838 L487.3111 305.9701 L487.9786 304.782 L488.2572 303.4839 L489.3978 303.5925 L490.6234 304.8106 L491.5939 304.1072 L491.2203 303.7655 L489.2648 301.9727 L488.8524 300.5416 L488.9736 299.3536 L488.4879 299.1777 L487.6386 299.4322 L487.3473 300.706 L486.498 300.8762 L485.2607 299.2135 L484.339 298.9475 L485.7102 297.455 L486.0376 296.3512 L485.3457 296.1811 L484.3634 297.5765 L482.2171 296.9517 L481.6228 297.5822 L481.5251 300.0813 L481.8182 301.2507 L482.0353 302.1185 L480.9191 303.7684 L479.9486 302.4831 L477.0371 304.3088 L475.5808 306.7592 L475.8504 308.4376 L476.6735 308.3047 L476.9946 307.82 L478.9835 308.4262 L479.4692 307.8686 L480.3665 307.6499 L480.6089 308.3047 L481.9674 309.5671 L482.8656 309.2025 L482.9868 310.6336 L480.8757 311.4828 L480.4153 313.1812 L479.1047 313.0597 L479.0324 312.139 L477.5707 309.2754 L476.9159 310.1489 L475.3394 312.2591 L474.5145 312.9139 M477.6856 275.2131 L478.4255 275.2374 L479.2865 273.0542 L479.2712 272.112 L478.9908 272.1578 L478.5105 272.3265 L478.1225 273.333 L477.9551 274.0536 L477.6856 275.2131 M478.7267 333.7534 L479.377 334.88 L481.4039 336.281 L483.7818 337.3932 L485.504 337.0043 L486.195 337.5362 L486.8562 335.2031 L489.4521 335.3732 L488.761 337.2774 L490.2037 338.5998 L490.7618 337.7992 L491.9385 337.6777 L492.2415 338.8914 L491.6472 341.1716 L490.7382 340.99 L490.5682 341.742 L491.4899 341.9479 L492.0968 343.0158 L491.8906 343.9135 L492.2053 344.7012 L493.9519 343.4761 L494.9957 344.1794 L495.3837 342.93 L497.8584 340.5769 L498.3558 340.88 L496.0629 345.7563 L492.5816 345.1873 L492.436 345.9149 L493.2853 346.1808 L493.4065 347.0672 L494.7406 347.6376 L495.1657 346.5211 L495.456 346.3996 L496.1353 348.2308 L495.8811 348.9714 L494.6682 351.0943 L493.6127 350.5725 L492.4477 350.694 L491.9991 350.2208 L491.9747 349.2744 L491.3081 349.263 L490.9806 351.1057 L491.8716 351.1128 L491.6898 351.6218 L490.7798 351.5617 L490.3068 352.9198 L490.5863 354.3022 L491.508 354.8368 L490.3556 356.1706 L488.7547 356.4494 L488.4815 357.1227 L488.6633 358.142 L489.7433 358.5665 L489.7731 357.796 L490.1494 357.5115 L491.0837 357.7846 L491.1018 357.014 L492.3509 356.8196 L492.303 356.4065 L493.3576 356.4923 L493.6923 357.7831 L496.3678 358.801 L497.2632 357.5473 L498.1614 358.415 L499.6004 358.345 L500.1702 355.6131 L499.9224 353.7018 L499.1445 351.2958 L497.587 351.3487 L496.5894 351.8062 L496.4618 346.411 L499.3896 339.7849 L498.562 338.1995 L498.5856 337.3389 L496.9141 335.3146 L497.0335 331.9164 L498.392 331.286 L497.5888 329.2073 L495.7111 330.4125 L495.0436 329.4661 L492.2044 329.1673 L492.3392 328.4468 L491.7784 327.862 L490.5275 328.8213 L490.3149 330.0179 L487.7869 329.752 L487.2849 331.2502 L488.1107 331.8764 L488.1107 334.0036 L486.5342 333.7534 L486.2258 334.464 L481.8942 333.6076 L481.7295 332.3267 L480.0526 332.351 L478.7267 333.7534 M478.9835 275.2374 L479.0568 275.9165 L479.7361 275.8694 L479.907 275.4719 L480.2697 274.6312 L480.1729 274.1465 L479.5172 274.3167 L478.9835 275.2374 M479.8681 272.0148 L480.2209 273.1886 L481.9068 272.6911 L482.0714 272.2307 L483.2844 272.7154 L483.6733 271.8418 L482.994 270.6537 L481.1009 270.9926 L481.0774 271.8175 L479.8681 272.0148 M480.371 270.0446 L480.7129 270.2405 L482.0959 268.9552 L482.6784 268.5906 L483.7212 268.4948 L482.7028 267.9844 L482.521 267.5197 L480.371 270.0446 M480.6216 397.0488 L483.5593 395.615 L482.7281 394.6073 L481.8544 393.7253 L481.0874 394.826 L480.6216 397.0488 M483.7683 332.2538 L485.2589 332.6798 L485.9237 331.6148 L485.9508 329.5661 L485.1521 329.3002 L484.6727 330.5769 L483.8216 331.296 L483.7683 332.2538 M485.6216 328.0936 L487.8565 328.0136 L487.1076 326.2609 L485.8486 326.5068 L485.6216 328.0936 M485.807 397.6863 L487.35 398.7213 L487.8502 398.5969 L489.0894 396.9201 L488.9392 396.5356 L487.8773 395.9338 L486.4618 396.1282 L485.807 397.6863 M485.8314 388.6306 L486.1507 389.4297 L486.8924 389.5069 L487.6856 391.2194 L488.1713 391.2451 L489.0921 390.2988 L488.9003 389.2982 L488.4146 388.339 L488.1387 388.1932 L487.5065 388.5863 L486.2022 388.4577 L485.8314 388.6306 M486.1109 392.9777 L486.2366 393.5166 L486.8869 393.7296 L487.625 395.0433 L488.8135 395.3935 L488.7511 395.8066 L489.5651 395.7194 L490.3701 394.826 L488.8506 393.8997 L488.6914 394.43 L488.0365 393.6695 L487.6114 392.9605 L486.4618 392.6775 L486.1109 392.9777 M486.394 374.0426 L486.7892 374.2013 L487.4956 373.2964 L488.0456 372.3129 L488.6561 370.1829 L488.7022 369.8684 L487.9416 369.168 L487.3916 369.218 L486.7775 370.0271 L486.6246 371.1264 L487.4568 371.6182 L487.3347 372.443 L486.4492 372.879 L486.394 374.0426 M496.9674 319.9319 L497.9524 320.6239 L498.4843 321.7947 L500.9598 322.1407 L501.9177 324.2966 L502.4495 324.4567 L502.6585 320.6982 L501.8272 318.7882 L500.6387 318.9984 L499.4141 321.1443 L498.2817 319.2243 L497.5798 319.1599 L496.9674 319.9319 M498.7511 333.5304 L499.0966 334.4354 L499.9215 334.3825 L500.7093 334.188 L501.8254 333.306 L502.369 332.2624 L504.2748 327.8749 L505.4144 325.7005 L503.9401 325.2544 L502.2903 327.0643 L500.5067 329.2202 L498.7511 333.5304" stroke-dasharray="" fill="none" fill-opacity="1.0" stroke="#ff0000" stroke-opacity="1.0" stroke-width="1.0px" stroke-linecap="butt" stroke-linejoin="miter" stroke-dashoffset="0.0px"/>
</g>
</svg>