<?xml version="1.0" standalone="no"?>
<!DOCTYPE svg PUBLIC "-//W3C//DTD SVG 1.1//EN" "http://www.w3.org/Graphics/SVG/1.1/DTD/svg11.dtd">
<svg width="512px" height="512px" version="1.1" xmlns="http://www.w3.org/2000/svg" xmlns:inkscape="http://www.inkscape.org/namespaces/inkscape">
<g id="layer" inkscape:groupmode="layer" inkscape:label="layer">
<path d="M0.0 403.1111 L0.0963 403.8411 L0.9913 405.3541 L4.3912 408.1047 L4.6528 408.4322 L4.9151 408.6648 L5.2167 408.5397 L4.8029 407.9455 L5.1684 407.7696 L5.9443 408.7109 L7.0948 409.0248 L7.5087 409.2624 L7.4785 409.548 L6.5001 410.2544 L6.4455 410.2362 L6.3718 409.7647 L5.7584 409.0845 L5.3255 408.7899 L5.1022 408.847 L6.0579 409.9737 L6.0342 410.4635 L5.0521 411.1861 L4.8196 411.073 L4.4918 410.8822 L4.0208 410.5842 L3.6275 410.3755 L3.1922 410.2564 L2.6259 410.2086 L2.1014 410.2445 L1.6663 410.3218 L1.4278 410.6735 L1.5471 412.5215 L1.7199 412.9565 L2.5007 413.5435 L2.0877 413.7707 L141.5051 460.1343 L150.9447 451.875 L153.8999 454.0845 L155.5371 455.6362 L156.7883 456.5544 L157.5477 456.9564 L158.2911 457.4844 L158.8152 456.7451 L157.7102 456.5461 L157.2514 455.7825 L156.045 454.7668 L156.2604 454.1253 L157.813 452.424 L159.3391 453.987 L160.9416 455.3121 L162.8996 456.0223 L163.738 456.2392 L164.0688 456.3159 L162.3275 457.5969 L162.0297 457.8864 L161.7282 458.316 L165.7664 459.2882 L169.0089 458.988 L170.5656 458.6328 L172.4983 459.4779 L175.0964 460.0013 L175.6387 460.1934 L176.5285 461.0823 L177.9169 462.4312 L178.7827 463.1006 L181.4401 464.699 L182.9864 465.6227 L182.5749 463.1722 L183.0215 462.7646 L184.8347 462.4435 L180.5799 447.4941 L179.0705 444.3428 L177.6103 441.8051 L172.4548 441.8317 L172.4548 440.6938 L173.2984 440.1033 L176.4692 441.0123 L177.5296 440.8358 L183.6693 439.8147 L184.1275 440.7164 L183.2244 441.3881 L183.7402 443.1725 L184.481 444.7339 L185.1873 450.0185 L186.2578 454.1814 L189.2081 454.8647 L189.28 454.8411 L190.7924 454.3472 L191.1928 454.3174 L190.011 453.6938 L188.0305 450.652 L187.5552 449.1129 L189.5763 447.8988 L190.8138 451.614 L194.2566 455.0737 L202.0446 459.0056 L203.1051 459.996 L202.2769 461.2567 L201.6462 461.4733 L201.8436 462.3745 L201.9324 462.9245 L202.4133 464.2429 L202.3347 464.9935 L202.2313 466.227 L202.2581 467.4456 L201.7425 468.0718 L200.5307 469.0539 L199.5444 469.9951 L198.4317 471.1394 L197.9857 472.4186 L197.5939 472.5583 L197.4137 473.6169 L198.8085 475.0829 L200.8604 477.0174 L201.8001 478.2757 L203.0068 479.8487 L203.5369 480.9737 L203.7739 480.8616 L203.9334 480.4735 L204.2695 480.6676 L204.7738 481.3139 L204.6875 481.8917 L205.1529 481.8442 L205.4417 481.5079 L205.0643 480.3472 L206.0459 478.8362 L206.5688 477.6552 L207.0552 475.8632 L205.3084 475.6278 L203.405 475.389 L202.8227 476.6625 L202.3516 477.3189 L201.3073 476.6088 L200.9581 475.8991 L201.5314 474.9522 L200.8647 474.9333 L200.2291 474.8212 L199.9238 474.6156 L199.2819 473.924 L199.5309 473.2339 L199.1254 473.0674 L198.9181 472.3961 L199.4902 471.2611 L200.1524 470.8963 L201.4903 469.5179 L202.5126 468.4953 L202.6589 468.1205 L203.4855 467.2535 L204.1415 467.0973 L203.7354 466.763 L203.8169 466.0005 L203.1764 465.5335 L203.4624 464.5859 L203.7304 463.6976 L203.6973 462.8379 L204.0332 462.6787 L204.8061 462.9082 L204.8825 463.351 L204.9979 463.3162 L208.3702 463.3882 L213.3075 462.073 L217.9182 460.5924 L219.9271 463.7208 L220.7149 463.5948 L229.887 461.87 L232.5002 460.8362 L235.3176 459.3568 L238.0095 458.3465 L239.3253 458.2178 L240.7375 457.7272 L240.8711 457.6791 L241.119 458.0991 L240.612 458.8016 L240.1629 459.2862 L240.3286 459.6756 L241.0908 460.1691 L241.425 460.2478 L241.3391 460.6726 L241.3391 461.1499 L241.4021 461.4763 L233.6016 463.548 L233.0261 463.9925 L232.949 464.7563 L233.259 465.031 L234.4539 465.2167 L235.0315 465.1364 L235.5803 465.2522 L235.7952 465.4897 L238.4066 465.9371 L238.5152 466.895 L241.5085 466.5288 L242.5595 466.5899 L242.9128 466.5574 L243.1406 467.3308 L243.2748 468.3557 L244.9448 466.4058 L246.03 466.2777 L246.8629 465.7378 L247.8544 466.1358 L248.4324 466.6257 L249.8014 466.9965 L251.7563 467.5988 L253.8971 468.2787 L258.3251 469.9139 L258.8075 470.1666 L260.07 471.3016 L260.4327 472.341 L261.6043 470.8999 L262.4422 469.8734 L262.1239 469.4681 L261.5886 469.3381 L261.169 468.7882 L260.5757 468.0791 L261.1833 467.8041 L261.7188 467.4714 L262.7174 467.5146 L263.8026 467.6449 L264.0195 467.8764 L266.8191 464.3444 L268.5858 463.225 L269.8372 462.5444 L268.5509 460.8169 L266.162 458.0602 L268.5509 456.8108 L269.3596 458.0971 L269.4761 458.7246 L271.1435 460.8511 L271.4693 460.2945 L271.9821 459.3021 L271.4122 458.6032 L271.4618 458.0141 L271.8519 457.6672 L272.7608 458.0055 L273.3767 456.761 L272.856 455.61 L273.2934 454.9708 L279.9643 448.0395 L290.492 434.3378 L294.8019 428.4525 L292.1642 426.0042 L294.6498 423.6984 L294.6107 422.0403 L293.7607 421.3283 L294.2604 420.7255 L295.0528 421.0068 L295.3744 420.7885 L296.8904 421.3512 L297.4646 422.6892 L297.143 423.2807 L296.1267 422.81 L295.7591 423.3209 L295.7362 424.2399 L297.1205 425.1781 L298.3109 423.6852 L301.9172 418.8543 L303.0845 417.4953 L304.5759 416.0902 L304.1147 415.5368 L305.148 413.7034 L306.296 412.6423 L305.8468 411.8802 L306.5662 411.1161 L307.6153 410.8331 L308.9737 410.4217 L310.2802 409.7677 L311.2993 409.3928 L313.2506 408.7806 L314.9424 407.9219 L315.6735 407.324 L315.7089 406.9169 L314.9829 406.4199 L314.8508 405.6411 L315.8333 405.3106 L314.9561 404.3879 L314.8829 404.2572 L314.1095 404.225 L313.8342 403.6841 L312.5721 402.7859 L307.6872 403.9479 L307.3367 403.795 L306.3337 405.313 L306.2131 405.6527 L305.6999 405.6534 L304.9936 405.9709 L303.3468 406.2274 L302.3167 406.1614 L300.8431 405.7785 L299.5195 405.5193 L298.2234 405.2911 L295.831 404.8521 L293.3974 403.1025 L292.3894 401.749 L290.8868 399.7535 L289.9883 398.4216 L290.2317 397.0764 L290.0073 396.5173 L289.5228 396.2236 L289.1588 394.6395 L290.4738 394.4895 L291.8687 394.6133 L292.4628 394.8443 L292.0935 394.1952 L294.9802 393.3079 L295.6341 392.999 L296.3571 393.3962 L298.2662 393.1838 L299.3234 392.7531 L301.0002 391.3982 L301.8791 390.3768 L301.1495 389.7072 L303.2875 387.236 L303.3722 386.9586 L304.283 387.0615 L304.4173 385.7995 L304.392 385.3133 L304.0297 384.5451 L302.867 382.9695 L302.7591 382.4916 L302.7556 380.8951 L302.3936 379.7518 L301.7532 379.2142 L301.4993 378.5529 L301.142 378.1852 L300.1888 378.0793 L300.0499 377.5155 L301.1779 377.2682 L300.9174 376.5222 L301.3353 376.6254 L301.5376 376.4638 L301.7175 376.5132 L301.7577 376.8906 L302.2176 377.1023 L302.7466 377.3535 L303.1781 377.9333 L305.5698 379.4359 L305.4122 380.2427 L305.5494 380.6087 L303.369 379.5265 L301.9207 379.1708 L302.6542 379.6788 L303.0652 380.1451 L304.2683 380.8646 L305.4098 381.2084 L306.4756 381.9673 L307.1738 381.7801 L308.8009 383.1265 L308.5706 383.681 L310.4026 385.7026 L310.5011 385.2659 L309.288 383.7035 L309.0628 382.5733 L307.4408 381.3876 L306.5677 381.5027 L306.3739 381.2568 L306.6951 380.9216 L308.1938 380.7358 L309.5319 381.9106 L309.8558 383.4729 L310.5422 383.4414 L311.4046 384.2385 L311.4733 383.8333 L311.6789 383.4809 L311.893 383.4477 L312.158 383.4556 L312.4387 383.6368 L312.589 383.7337 L312.6248 383.752 L313.3585 384.1197 L313.8879 384.4452 L314.296 385.1394 L314.7767 385.6554 L315.0494 385.7205 L315.1295 385.8011 L315.419 386.2319 L316.2638 387.1713 L317.3242 388.2763 L317.7533 388.7674 L318.1888 389.0717 L318.6125 389.0299 L318.6784 389.0989 L318.7555 389.2436 L318.8463 389.5187 L318.7716 390.0304 L318.8118 390.2484 L318.997 390.6708 L319.4558 391.0687 L319.8153 391.4961 L320.4402 391.9799 L320.7312 391.8001 L319.8425 390.9224 L320.3257 390.1854 L321.0969 389.6471 L322.2943 388.9357 L323.1413 388.7605 L323.6853 388.7804 L324.8014 389.1225 L325.2785 389.2483 L325.3213 390.0772 L326.6776 389.1819 L327.5171 389.0067 L330.37 388.3145 L331.5229 387.6956 L334.7656 383.9481 L335.1082 383.3906 L331.4385 381.5389 L334.4203 378.3882 L332.7632 377.1219 L333.055 375.9969 L335.1994 375.3693 L336.8891 375.4516 L337.7127 374.981 L338.1677 374.4271 L339.1337 374.767 L339.54 375.0759 L339.6274 375.286 L339.5743 375.6053 L337.9902 377.169 L337.8594 377.395 L337.8542 377.6545 L338.1803 378.1642 L338.5411 378.4616 L338.9363 378.4626 L342.2762 374.3243 L345.4171 370.1493 L346.0893 369.2566 L342.3008 367.8746 L340.6833 367.4478 L339.3431 367.8959 L339.4608 368.3937 L338.1231 370.2233 L335.8025 369.5679 L334.4209 368.938 L334.4209 368.0187 L335.8702 367.0984 L339.251 366.3095 L341.2181 366.6407 L347.9349 366.8206 L350.2771 363.4287 L373.2671 331.199 L377.2042 325.7356 L377.2433 325.2483 L377.1027 324.9153 L376.7826 324.6979 L376.1187 324.6916 L375.0655 324.92 L373.8933 327.495 L371.5609 331.5698 L368.2591 330.3748 L365.4598 329.3314 L364.5545 328.7485 L362.5784 328.8498 L361.5205 329.1256 L360.7952 329.4065 L360.0514 329.6873 L359.3335 330.082 L354.9635 331.6976 L351.5754 333.0859 L349.9022 333.6635 L348.3761 334.0943 L345.6761 334.9534 L344.8253 333.7833 L341.3625 336.3483 L339.2795 336.8296 L339.3227 337.3839 L338.8757 337.4526 L338.801 338.1261 L338.3252 339.4552 L338.1173 340.465 L337.1682 341.0137 L336.5745 341.5534 L336.1384 342.7676 L335.4143 344.105 L333.6318 343.1878 L333.6515 342.0141 L332.748 342.0583 L332.3001 341.8525 L332.1922 341.2251 L331.3103 341.3828 L329.7146 341.5086 L330.0702 340.6393 L330.4085 340.0414 L330.9217 339.1342 L331.3925 338.2317 L329.4945 338.4488 L329.3142 337.5801 L332.0339 336.7858 L332.2251 336.415 L332.5199 336.0223 L333.0976 335.1635 L330.6025 335.7113 L328.8665 337.0586 L326.7748 336.9438 L324.9286 337.3474 L324.2902 337.9044 L321.9925 340.696 L321.2324 341.0014 L321.9882 341.4694 L321.7321 342.3666 L321.4786 343.2519 L322.0909 343.398 L318.4234 349.5684 L318.1335 349.4459 L317.8387 349.3215 L317.4172 349.1436 L316.2163 346.3584 L315.0437 345.7961 L312.808 343.47 L312.7447 342.9678 L312.7173 342.75 L314.165 341.7283 L314.035 341.3911 L313.9526 335.776 L313.0896 334.6636 L312.6928 334.5727 L311.3905 333.2565 L310.4773 332.3864 L308.71 332.4269 L307.5363 331.6558 L307.0025 331.1416 L306.3694 330.9335 L305.9536 330.4594 L305.3295 329.5778 L304.8553 329.1482 L304.6819 328.953 L304.1055 328.3044 L303.7531 327.6896 L303.286 326.8782 L303.1181 326.2186 L302.4583 325.9278 L302.2576 325.4442 L302.4174 325.0797 L302.0568 324.4443 L301.7986 324.1126 L300.4656 322.7983 L299.123 321.4532 L298.6107 320.851 L298.1397 320.3182 L297.1726 319.1054 L296.45 318.1341 L296.648 318.0275 L296.8242 317.8678 L297.0251 317.831 L297.2422 318.1095 L297.3077 318.4989 L297.5413 318.8309 L297.6847 319.2445 L298.0658 319.5559 L298.4428 319.8388 L298.8813 320.2567 L299.3155 320.6418 L299.5041 320.9001 L299.8647 320.9984 L300.3031 321.5475 L300.5449 321.8711 L301.2784 322.629 L301.6102 323.1456 L301.9913 323.6904 L302.2821 324.092 L302.3681 324.3828 L302.6591 324.9811 L302.8272 325.3416 L303.032 325.7064 L303.4581 325.8292 L303.4827 325.9849 L303.5442 326.3989 L303.79 327.0011 L303.9786 327.4887 L304.2653 327.7921 L304.6382 328.1895 L305.0889 328.5869 L305.5929 328.7057 L306.1093 328.6035 L306.4739 328.4149 L306.8509 328.0707 L307.0147 327.6282 L307.0558 327.2102 L307.2033 326.9685 L307.6088 326.9194 L308.0966 327.0954 L308.3916 327.0177 L308.6498 326.4892 L308.8463 325.9564 L308.9611 325.2148 L309.0656 324.8874 L309.084 324.8297 L309.0759 324.6574 L308.7194 324.256 L308.3383 324.1126 L307.818 324.1166 L307.3262 324.2109 L306.9903 324.3994 L306.5478 324.3994 L305.9494 324.4034 L305.3799 324.7517 L305.1503 324.3828 L305.0315 323.9363 L305.0602 323.5961 L305.2857 322.8628 L305.7241 322.2768 L306.2281 321.736 L306.6092 320.9901 L306.9779 320.1093 L307.228 319.2897 L307.5433 318.8266 L308.3835 318.3064 L309.2152 317.9661 L309.756 317.8761 L310.4198 318.1015 L310.8993 318.2449 L311.3421 318.2582 L311.508 317.9468 L311.6091 317.6553 L311.7684 316.7948 L311.9745 316.0841 L312.1246 315.7228 L312.4406 315.1289 L312.7573 314.4128 L312.9881 313.6771 L313.1273 313.2947 L313.3073 312.9202 L313.7207 312.0929 L313.3039 311.5318 L312.5038 311.0647 L312.8519 310.1756 L313.0078 309.2347 L311.7326 308.0152 L312.3304 307.823 L312.7185 307.8104 L312.5931 307.6583 L311.6086 307.743 L308.1929 308.5647 L304.7228 309.7048 L302.3379 311.8429 L301.0917 313.2123 L299.7193 314.4301 L298.7642 315.268 L297.6235 315.9775 L296.7729 317.0461 L296.2055 316.8682 L296.0753 317.3257 L295.9888 317.7012 L293.2539 316.2866 L292.4513 315.5439 L292.7868 314.7631 L293.5233 314.3796 L293.6913 314.439 L296.678 315.4526 L297.3164 315.4848 L299.2232 314.1665 L299.0432 313.9716 L296.8977 303.2957 L296.8437 303.0265 L295.2185 303.1752 L294.9462 301.6772 L296.4132 301.4119 L295.2857 296.3057 L295.5448 294.4228 L294.3949 292.7218 L293.0612 292.3987 L291.2692 288.7628 L292.2903 287.4503 L293.2042 287.4479 L293.726 287.0063 L294.1467 286.7091 L294.2163 286.3203 L294.3088 285.6708 L294.2112 285.2219 L295.3607 283.3836 L294.0332 282.0322 L294.4721 281.6835 L297.4802 280.6176 L296.7287 279.482 L295.0631 277.277 L297.3897 276.2031 L296.1665 274.9824 L295.9293 274.4717 L296.0661 274.0503 L296.718 273.2354 L296.6339 270.3988 L293.5616 267.953 L293.0422 267.5392 L291.4127 266.2421 L290.5719 265.636 L289.3483 264.8533 L286.4122 263.058 L285.2856 262.77 L285.2055 262.328 L284.4375 261.9813 L284.5234 261.5376 L283.9036 261.4928 L283.6062 261.7661 L283.4368 261.4928 L283.5548 260.8196 L283.9969 260.4955 L284.8811 260.6482 L286.893 259.8369 L287.9475 258.4743 L288.0442 258.2229 L288.3275 257.8695 L288.1551 256.376 L287.6434 255.7211 L286.5451 254.6972 L286.355 254.2435 L286.9827 253.8301 L287.916 253.8712 L288.7647 253.6391 L290.4015 254.1522 L291.8068 255.1814 L295.4754 244.1589 L297.1653 239.4511 L297.6986 237.9654 L297.4554 237.533 L296.8773 237.3695 L296.65 236.7876 L297.8234 235.9038 L298.6663 236.0054 L299.1327 235.449 L298.6933 235.3919 L299.3617 234.3732 L299.4861 234.4984 L299.7666 234.6695 L300.1241 234.7502 L300.6562 234.8568 L301.4173 234.9854 L302.1176 235.0774 L302.8025 235.2747 L303.2275 235.5278 L303.8086 236.1057 L304.3485 236.3934 L305.6693 235.5706 L309.1613 233.5029 L314.5247 230.5251 L317.3617 229.3074 L319.7226 226.1478 L321.1403 224.2504 L321.6531 223.9139 L322.0518 224.07 L322.3701 224.7241 L322.4935 225.3861 L326.6314 230.2365 L328.5709 229.6831 L329.2016 229.7203 L332.2405 230.7709 L332.9704 231.6502 L331.5047 233.4295 L331.118 234.4433 L330.6389 235.74 L330.7339 236.6026 L330.8682 237.4443 L330.8898 237.892 L330.8898 238.087 L330.9425 239.1578 L331.0313 240.961 L331.3486 244.122 L331.4205 244.8647 L331.1276 248.0657 L330.9799 248.9153 L330.8926 249.2949 L330.8431 249.5092 L330.3697 250.8214 L331.4702 250.2202 L332.8308 249.2614 L333.3083 249.0256 L334.0096 248.8927 L334.4132 248.8861 L335.1375 248.5367 L336.029 248.1146 L336.5163 247.8695 L337.0184 247.7775 L337.3958 247.7814 L337.8159 247.7363 L338.2225 247.717 L338.8389 247.4978 L339.6141 247.2025 L340.7471 246.4825 L341.1072 246.3699 L341.2216 246.5702 L341.4027 246.7415 L341.587 246.8528 L341.8294 246.8651 L342.3867 246.6675 L342.4854 246.344 L342.6858 246.1108 L342.9798 245.7687 L343.2043 245.2566 L343.2163 244.8703 L345.3072 240.4848 L346.026 239.6942 L346.357 239.099 L346.8729 238.1714 L347.3322 237.6881 L347.7128 237.2131 L348.2466 236.3927 L348.4382 236.4269 L349.4194 236.5647 L350.1033 236.6983 L350.3478 236.7438 L349.9759 235.8041 L350.26 235.3524 L352.3068 235.3082 L352.4806 236.022 L354.3844 235.5879 L355.7137 236.2316 L356.0638 237.1374 L356.1008 237.2174 L358.0596 236.6866 L356.1392 231.2094 L357.002 230.937 L355.18 225.9409 L355.8893 225.4642 L356.4323 225.146 L357.2846 224.8782 L358.2074 227.7947 L358.9353 227.6618 L360.07 231.6229 L360.1942 232.0564 L360.2863 232.0368 L361.6374 231.6299 L363.0982 231.0227 L363.4828 230.6646 L364.2255 230.9201 L364.9836 231.0367 L365.916 232.92 L367.8986 232.0059 L368.2794 232.0846 L370.1635 231.3751 L372.0746 229.8608 L374.1235 234.5542 L375.592 232.3208 L376.2574 231.3004 L377.065 230.0624 L377.612 229.3685 L379.3449 227.3167 L380.3696 226.1694 L381.1081 225.6353 L381.9165 225.245 L384.0174 224.3056 L385.9503 223.3758 L386.1856 223.2702 L387.53 222.6071 L388.5232 222.1338 L389.3183 221.7192 L389.9953 221.3691 L389.8228 221.0014 L389.4502 220.7456 L388.5891 220.5127 L387.0722 219.9321 L387.4253 217.4519 L387.3672 216.3348 L387.9374 214.1934 L388.333 212.9251 L388.8021 211.9594 L389.3888 211.5292 L390.2417 211.0943 L391.3808 211.0342 L392.6272 210.7372 L393.3873 210.5638 L394.1422 210.2396 L395.0237 209.5964 L395.3326 209.0592 L395.9222 208.3124 L396.2295 208.041 L396.9032 207.7168 L397.9363 207.0813 L398.9631 206.0514 L400.9951 205.1624 L401.2291 205.0418 L401.4124 204.9474 L405.1951 202.999 L404.8891 202.1691 L403.8024 200.9053 L404.2389 199.4641 L404.7091 198.588 L405.6498 198.0438 L406.7471 197.9425 L408.2513 199.5884 L409.7064 198.4412 L409.1176 196.7026 L408.2214 195.3002 L409.1219 194.6564 L410.1624 194.253 L410.7681 193.544 L411.3429 192.8709 L412.6164 191.0193 L412.941 190.9455 L413.3795 191.2406 L413.9614 191.4615 L414.1476 191.8429 L414.1217 192.626 L414.9961 192.2616 L414.5075 191.321 L413.6556 189.8438 L413.5602 189.6784 L413.5283 189.0946 L413.603 188.5932 L413.6895 188.0141 L414.0419 186.8349 L414.4617 185.3521 L414.615 184.546 L414.7456 183.7792 L414.7467 183.213 L414.6739 182.7296 L415.9219 181.5587 L416.2013 181.2932 L416.5655 180.9473 L417.697 179.6963 L418.5583 178.963 L419.009 178.6224 L419.559 178.2067 L421.0487 177.4265 L422.137 177.1345 L423.5149 176.5646 L424.5623 177.0391 L425.1286 177.2956 L427.0 177.2355 L427.7768 177.2106 L428.4058 176.6191 L429.1476 177.4246 L429.7608 178.0678 L429.8056 177.9957 L430.1758 177.5678 L429.8636 176.957 L430.3967 176.1676 L430.8054 175.6136 L430.6669 175.0249 L430.9992 174.7617 L431.3664 174.568 L431.7404 174.7826 L432.1097 175.2309 L432.4142 174.7946 L432.628 174.3666 L432.8768 174.0695 L437.641 175.29 L437.2239 175.813 L437.4444 175.7509 L437.6703 175.7871 L437.9097 175.8818 L438.0075 175.8017 L438.2402 175.6409 L438.5821 176.1154 L438.95 176.5397 L439.3516 176.8351 L439.5895 177.0295 L439.4144 177.4136 L439.4775 177.7253 L439.7802 178.3174 L439.9158 178.4755 L440.1553 178.647 L440.2481 178.8284 L440.6454 179.1191 L440.9235 179.3521 L441.1445 179.6225 L441.1449 179.6232 L441.2393 180.0419 L441.2398 180.0432 L441.2849 180.4545 L441.3618 180.6622 L441.4521 180.8792 L441.6149 181.1324 L441.7007 181.1865 L441.8583 181.1912 L442.0169 181.1456 L442.2156 180.9154 L442.2141 180.9177 L442.4824 180.5223 L442.6766 180.2376 L442.8303 179.8986 L442.9793 179.3022 L443.379 178.5111 L443.7329 178.3144 L444.2346 178.0359 L445.2974 176.8398 L446.0127 175.7924 L447.3895 173.7363 L448.3855 172.0356 L449.8431 171.5804 L450.8511 171.5498 L451.7754 171.7725 L452.1477 172.1237 L454.0517 168.9979 L454.5173 168.2372 L454.6571 168.0086 L455.4491 166.9729 L455.2928 166.9795 L455.1879 166.9838 L452.15 164.4863 L450.251 163.3967 L453.1141 160.3474 L453.9286 158.2499 L454.4323 157.4038 L454.5304 156.7707 L453.6654 156.0778 L452.2841 155.0337 L452.6705 154.5798 L452.162 154.167 L453.5862 152.7649 L455.2168 151.2844 L458.0615 148.9867 L461.5126 147.777 L461.3206 147.1329 L461.561 146.6281 L462.901 145.4842 L464.1846 144.5214 L465.4505 143.4659 L465.2998 142.8936 L465.2137 142.6589 L465.0652 142.3459 L465.0592 142.2458 L465.1114 142.1391 L464.4595 142.4705 L464.0634 142.514 L464.0555 142.5061 L463.8677 142.2478 L464.4156 141.6921 L465.0103 140.5535 L465.2217 140.5495 L465.2998 140.5964 L465.6507 140.4096 L465.3559 138.7784 L465.3129 137.6045 L465.0465 137.2659 L464.8917 137.1542 L463.0901 136.0511 L463.0815 135.1168 L462.9484 134.8689 L458.7064 134.3783 L458.129 134.2879 L455.997 133.9546 L456.0878 133.5458 L456.2396 133.3899 L456.7879 132.8268 L458.8663 130.8705 L460.6127 129.0897 L461.3289 128.1225 L462.3307 126.3044 L462.97 124.9403 L463.981 122.9476 L465.8477 120.819 L466.5326 120.2995 L467.4397 119.3634 L467.5937 119.2042 L468.1593 118.5474 L468.9127 117.8055 L471.1276 115.854 L471.8463 115.0885 L472.4272 114.7414 L472.8967 114.4609 L473.7184 113.8616 L474.6472 113.0389 L475.4599 112.2863 L476.5535 110.9227 L477.5726 109.8577 L478.4468 108.777 L479.1388 107.3685 L480.2681 105.1224 L480.8066 104.1371 L481.3001 103.5317 L481.8495 103.177 L482.4543 102.9626 L482.7829 102.4616 L482.9339 102.1355 L483.3914 101.5029 L483.7926 101.1339 L484.1046 100.6944 L484.3097 100.2948 L484.4698 99.9478 L484.6711 99.7393 L484.8764 99.7098 L485.0824 99.76 L485.3907 99.2457 L485.3153 98.7726 L485.4219 97.9515 L485.4172 97.1048 L485.6437 96.6111 L486.2252 95.7258 L486.2475 95.5553 L486.3044 95.3059 L486.4271 95.2062 L486.4021 95.0991 L486.288 94.8784 L486.1955 94.9033 L486.0146 95.044 L485.8356 95.0991 L485.6538 95.0849 L485.5148 95.149 L485.2369 95.4126 L484.77 96.0543 L484.5349 96.2501 L484.5127 96.4259 L484.6422 96.5572 L484.6824 96.7035 L484.5163 96.7085 L484.3399 96.7487 L484.1936 96.7993 L484.1988 96.9705 L484.1433 97.142 L484.0476 97.283 L484.1339 97.5951 L483.856 97.4794 L483.5092 97.3797 L483.2634 97.2833 L483.0247 97.2477 L482.7877 97.3534 L482.3183 98.1067 L482.0721 98.3162 L481.6388 98.3966 L481.2162 98.3547 L480.8526 98.3361 L480.3936 98.626 L480.075 98.6842 L479.8825 98.5559 L479.4409 98.4349 L479.0418 98.5702 L478.915 98.5243 L478.4074 98.1782 L478.3789 97.9359 L478.4074 97.6792 L478.2365 97.3883 L477.7518 97.1447 L477.5095 96.8598 L477.5165 96.6673 L477.3455 96.3465 L477.0733 96.0828 L477.089 95.7195 L477.1887 95.5699 L477.317 95.3774 L477.1104 94.8927 L476.8543 94.6287 L476.9145 94.3152 L476.5861 93.5463 L476.3523 93.3415 L476.1521 93.5214 L475.2899 94.1839 L474.4988 94.7684 L474.0428 95.0679 L473.6508 95.3528 L473.4797 95.4133 L473.4075 95.3216 L473.323 94.9751 L473.1269 94.3551 L473.1179 94.0692 L473.1485 93.8501 L473.1534 93.6587 L473.1838 93.4017 L473.1485 93.024 L473.2643 92.515 L473.5315 91.6583 L473.5717 91.1693 L473.6827 90.8518 L473.728 90.1968 L473.728 90.0506 L473.7831 89.9332 L472.9464 89.0878 L472.5524 88.8474 L472.2045 88.6014 L471.5374 88.0209 L473.175 85.9483 L473.9229 86.4969 L474.1318 86.2097 L474.9572 86.9873 L475.4025 86.5205 L477.7144 83.2996 L476.4385 82.8288 L475.5624 82.355 L475.4766 81.3051 L475.2745 80.3166 L476.0846 80.182 L476.029 79.9692 L475.7322 77.9644 L475.5843 76.9649 L475.4712 76.8595 L475.4877 75.7896 L478.7761 75.7184 L482.5005 76.0908 L482.5556 75.9834 L483.1028 75.9449 L483.215 75.5585 L482.9403 75.5525 L483.1371 74.9168 L483.7487 75.1452 L483.5055 75.5728 L485.7416 75.7218 L485.7632 75.7956 L486.5023 75.911 L486.5843 76.8715 L486.9046 76.9949 L487.1692 77.1641 L487.212 77.317 L487.2163 77.4686 L487.2947 77.6166 L487.4253 77.6472 L487.6081 77.6425 L487.7126 77.8733 L487.7909 78.3131 L487.8963 78.3328 L487.8029 76.9463 L488.7677 76.8343 L488.8882 78.1053 L488.8978 78.242 L489.7491 77.9544 L491.2825 77.3499 L491.6265 77.5893 L492.754 76.9759 L493.0377 76.9061 L493.4136 76.8941 L493.6934 76.8519 L494.1553 76.7501 L494.759 76.4173 L495.9451 77.6405 L494.4631 78.378 L494.613 78.5678 L495.2703 78.3328 L496.1714 78.089 L497.0813 78.8508 L498.4989 79.7767 L499.3868 80.3133 L499.7201 80.5437 L499.9432 80.6953 L500.0402 80.6039 L501.4314 80.5351 L502.476 80.3609 L502.688 80.3236 L502.8241 80.3 L502.9211 80.1946 L503.1087 80.0314 L503.2909 79.8651 L503.663 79.5553 L503.8439 79.4662 L504.0828 79.4775 L504.4115 79.5739 L504.6363 79.6214 L504.8632 79.6214 L505.4601 79.4961 L505.3766 79.3179 L506.1279 77.4384 L506.5107 76.432 L507.3241 75.3524 L508.237 74.6023 L508.7703 74.8829 L508.8026 75.6576 L510.0894 75.6446 L510.4842 75.6633 L510.8342 75.6972 L510.6105 75.4937 L510.2878 75.4634 L510.0763 75.4029 L509.996 75.0555 L509.8746 74.3346 L509.637 73.8239 L509.2848 73.5583 L508.2306 73.5117 L507.1545 73.3378 L506.3101 73.0004 L505.5092 72.7783 L505.3402 72.4707 L505.9395 72.2599 L507.198 71.4563 L507.8876 71.3093 L508.6262 71.3113 L509.0003 71.2079 L509.6685 70.8096 L509.9774 70.52 L510.0564 70.3368 L510.0159 70.1243 L509.2246 68.9822 L508.5588 68.0362 L508.2404 67.853 L507.9118 67.4354 L507.7685 67.0912 L507.748 66.7052 L507.6868 66.4525 L507.8231 66.3228 L508.0347 66.4731 L508.1098 66.7461 L509.5406 68.8069 L510.0258 68.8452 L510.4503 69.1268 L510.8749 69.5225 L511.0766 69.587 L511.7146 69.2232 L511.9604 68.9007 L512.0 68.6862 L511.8979 68.4222 L511.6985 67.84 L511.5348 67.0487 L511.3134 66.3624 L511.323 65.9727 L510.8734 65.5544 L510.484 65.1923 L509.5758 63.8337 L508.9388 62.3793 L509.656 61.8482 L510.3431 61.133 L510.5662 60.7619 L510.6036 60.475 L510.4169 60.031 L511.8257 59.0468 L509.4021 55.0299 L505.3835 51.6148 L506.4454 49.992 L506.4279 48.7197 L503.5165 46.3011 L503.7756 45.4794 L503.7165 45.3999 L503.1269 44.6081 L500.7525 42.7691 L498.443 43.1579 L498.2112 38.682 L499.652 35.7488 L501.2835 33.9097 L501.1184 33.19 L501.0972 33.0982 L500.8865 32.7556 L500.9996 32.0506 L501.9014 31.0013 L502.5317 30.268 L502.4289 30.1083 L501.0908 30.5297 L500.0053 31.5584 L497.3655 32.9552 L497.249 32.4706 L496.6033 33.5538 L495.5379 35.1635 L494.149 36.6341 L489.1802 36.7541 L486.5738 37.6743 L483.7914 38.6075 L483.9986 39.1233 L482.1132 39.4994 L481.2269 40.2287 L475.6102 41.8742 L473.5227 41.6747 L472.4619 41.0761 L470.7435 40.6065 L470.6176 41.7106 L466.8906 41.3159 L463.5506 40.3654 L461.6212 40.7695 L460.537 42.6624 L461.4006 44.0039 L460.8127 46.3926 L462.1862 49.8833 L459.4896 51.5566 L457.5783 52.659 L451.3305 57.051 L450.6505 55.6544 L448.6108 56.3527 L445.0458 57.4001 L444.8619 56.1322 L443.3825 55.7648 L439.3253 54.9967 L438.6509 54.8826 L437.6217 54.5886 L435.7106 54.46 L434.78 54.5777 L434.0649 53.4205 L435.0497 52.8352 L434.2276 51.6481 L433.4054 50.4609 L434.2062 49.5963 L436.1517 49.0573 L437.4012 48.0467 L439.321 47.1455 L443.862 42.9088 L443.0763 42.3235 L441.3657 43.5473 L439.8969 43.8533 L438.8134 44.663 L438.7695 45.4139 L438.1683 45.9516 L436.5071 45.802 L432.7008 47.9516 L428.8012 51.1649 L424.3548 54.7596 L419.8703 57.7822 L419.2545 59.5336 L417.6182 60.4942 L416.528 61.8433 L416.7509 62.6709 L417.3998 64.7225 L415.8988 65.1088 L413.3538 64.1083 L409.4454 65.3196 L407.0201 66.3976 L403.7805 68.5865 L402.9453 69.0224 L403.2162 69.4886 L402.855 69.7745 L402.6143 70.8428 L403.3622 72.1924 L401.9607 73.78 L400.8174 75.1732 L400.2502 74.202 L399.5591 74.4547 L399.6977 76.1972 L399.186 77.7133 L398.7079 76.7678 L398.1645 75.7524 L397.4978 74.575 L397.2734 74.0819 L397.4271 73.8585 L397.0514 73.4868 L396.7067 72.6396 L394.4651 71.8915 L393.6755 72.2991 L394.0219 72.8458 L394.5501 72.895 L394.7177 72.9648 L394.8224 73.1533 L394.3775 73.4602 L395.4026 74.7383 L395.3138 75.4215 L395.6075 76.1783 L395.2778 76.1241 L394.9618 76.3116 L394.8727 76.7196 L395.8111 78.6323 L396.6703 79.3136 L396.927 79.6098 L396.8309 80.1637 L396.3562 80.8918 L395.7357 81.3104 L392.5767 82.2137 L391.9447 82.4445 L390.9078 82.8235 L390.485 81.5461 L389.0083 81.1332 L387.5319 80.7745 L388.0018 83.0143 L388.5191 85.191 L388.5602 86.3277 L387.1964 86.7333 L386.5432 83.3684 L386.3505 82.2107 L385.0644 82.366 L385.4356 85.0331 L385.9912 87.2017 L384.2806 87.5468 L381.6375 87.8434 L379.3783 88.3939 L377.6514 88.1143 L377.7503 89.7573 L377.4784 91.4509 L378.66 91.5004 L379.0688 93.0054 L378.6074 94.0087 L377.6673 95.0084 L376.4923 95.3581 L375.6898 94.5263 L374.7163 93.4615 L374.2509 92.0968 L372.6479 91.4941 L371.9384 91.0137 L371.6566 90.405 L369.0864 89.8059 L366.7101 90.2663 L366.7082 92.03 L366.3904 92.5612 L365.9858 92.28 L365.6625 91.6367 L365.0007 91.8096 L363.8031 90.9512 L362.6651 90.7823 L362.842 92.4854 L361.3178 92.7487 L361.3966 93.907 L362.9687 93.6404 L363.1102 94.9316 L363.8146 97.8072 L364.0007 98.4761 L364.2475 98.5057 L363.9808 97.3209 L364.1388 96.5306 L364.4944 96.0666 L365.2416 96.393 L365.7486 97.8641 L366.0436 98.2853 L366.5795 98.2294 L366.7266 98.766 L366.3874 98.869 L366.0534 98.9535 L366.0558 98.9501 L365.8263 99.0914 L365.8286 99.0971 L366.0171 99.2164 L366.7103 99.5093 L367.0308 100.4035 L367.2261 100.5192 L368.2799 101.1442 L367.5654 101.962 L366.8441 102.4214 L365.4805 100.8902 L364.6072 100.237 L363.978 100.1506 L363.4132 100.4072 L363.1261 100.368 L363.0601 100.0947 L362.2324 96.6603 L361.9402 95.6926 L361.6321 95.3063 L361.3638 95.2667 L360.957 95.6882 L360.9253 96.6054 L360.3141 97.4558 L359.371 96.91 L360.0246 95.8099 L360.5057 95.8894 L360.8147 95.4612 L360.8236 95.2803 L359.9846 94.7085 L359.9045 94.8146 L359.147 94.1803 L358.7818 93.8349 L358.1393 93.277 L357.8699 93.0433 L356.9756 92.5642 L356.705 91.6666 L356.583 91.2005 L354.9166 91.5267 L354.5272 91.4263 L353.9112 91.6906 L351.8991 92.8824 L350.3101 95.3102 L349.8104 96.9096 L350.8676 98.629 L350.5 99.6948 L349.1437 100.4361 L348.4487 101.9228 L346.962 102.7635 L346.3552 102.5135 L345.8615 101.8729 L346.2683 99.6187 L346.1456 98.9734 L346.1092 96.7444 L345.8626 96.7883 L345.4629 96.8594 L345.2385 98.5399 L344.8632 99.0798 L344.8129 99.3959 L344.7418 99.8437 L344.6632 101.0428 L344.1736 101.9254 L343.2784 103.7129 L342.9142 104.284 L342.8757 105.1107 L342.6858 106.3899 L342.486 107.0394 L341.9848 107.7495 L341.4862 109.133 L341.2984 110.4833 L340.2309 111.652 L340.0245 112.5236 L339.8781 113.5331 L340.0562 114.4293 L340.3224 115.0273 L340.8161 115.503 L340.8197 115.9933 L339.4422 118.1858 L339.1703 118.6907 L338.9059 120.1057 L338.7725 121.5828 L338.8954 122.2396 L339.0129 122.4976 L339.1529 122.5232 L339.536 123.062 L339.6792 123.998 L339.5167 125.4392 L339.0253 126.7458 L338.9007 127.8556 L338.3899 129.6477 L338.2803 130.8642 L337.66 132.8109 L336.3005 134.7566 L335.4726 136.1063 L334.4787 138.237 L334.1974 138.4424 L334.0283 138.5235 L333.8463 138.4707 L333.708 138.2337 L333.377 137.568 L333.2275 137.5324 L332.5782 137.7265 L332.4456 138.0157 L332.5082 138.463 L332.6007 138.7758 L332.6632 139.2231 L332.6424 139.4215 L332.5467 139.6631 L332.1943 140.0384 L331.6751 140.5236 L330.7399 141.1531 L329.4836 141.8729 L329.1901 141.9437 L329.0312 141.966 L328.8927 142.0178 L328.068 142.6736 L326.5575 143.7979 L326.1282 144.086 L325.1307 144.9425 L324.9492 145.0332 L324.5925 145.4549 L324.8548 146.2961 L324.7925 146.7969 L324.6698 147.4024 L324.4831 147.5241 L324.4685 147.7085 L324.5178 147.9731 L324.6088 148.1715 L324.7346 148.3832 L324.7402 148.6387 L324.6353 148.8557 L324.5625 149.0894 L324.412 149.4755 L324.2668 150.5789 L324.0936 150.9265 L324.0255 151.0468 L323.9996 151.0751 L323.9311 151.1502 L323.6365 151.1272 L323.3974 151.1086 L323.0341 151.1126 L322.7401 151.0797 L322.0625 151.2804 L321.4215 151.6141 L320.6383 152.0258 L320.3129 152.31 L320.3092 152.5124 L320.3441 152.7144 L320.5103 153.0119 L321.0472 154.2714 L321.0562 154.3362 L321.001 154.4099 L320.8907 154.4418 L320.0339 154.492 L319.9769 154.5871 L319.9217 154.6608 L320.008 155.1597 L319.9412 155.2617 L319.8354 155.3006 L319.5136 155.3461 L319.0805 155.3677 L318.7728 155.3501 L318.4491 155.3793 L318.1875 155.383 L317.8558 155.3557 L317.5642 155.3803 L317.2358 155.4926 L316.1433 156.0951 L315.8172 156.2374 L315.5357 156.0539 L315.3188 155.8449 L315.237 155.7399 L315.2124 155.591 L315.2496 155.5056 L315.2104 155.4331 L315.0152 155.3138 L314.928 155.3786 L314.7658 155.1414 L313.445 155.7319 L312.2518 156.999 L310.87 158.6041 L309.1512 161.126 L306.4152 162.4662 L304.55 162.7061 L301.5845 163.7788 L299.0802 163.6552 L297.1891 163.3415 L297.1229 163.517 L296.7395 163.9523 L296.8557 164.9066 L296.1181 165.1 L295.9509 168.3479 L294.9631 170.5171 L294.2473 171.801 L293.7361 171.6263 L292.6332 171.1737 L291.7794 170.7693 L290.4852 172.4327 L284.6236 177.7289 L282.0715 175.0474 L277.4782 178.1154 L274.347 179.6445 L272.965 180.4522 L271.7425 181.4307 L267.8099 184.4151 L258.5005 190.601 L258.3881 190.6758 L256.8095 191.9968 L255.2821 193.5507 L253.7205 195.1192 L252.5046 196.6063 L251.3956 195.3345 L247.4236 193.2025 L247.1628 193.2297 L249.4244 196.7777 L249.4817 197.0521 L247.8424 197.6129 L247.1618 197.8518 L247.6788 199.9555 L247.5653 200.7382 L247.0158 201.1877 L246.8528 201.2933 L244.3198 202.8548 L244.2532 202.8957 L242.6072 203.8249 L241.7596 204.2893 L241.5641 204.4116 L241.3849 204.5581 L239.8447 205.3159 L238.3454 206.0494 L238.166 206.0903 L237.9542 206.0903 L237.9133 206.2451 L236.7236 206.9052 L235.2673 207.6739 L232.3399 208.8636 L231.9177 209.3233 L230.6706 209.3635 L229.7707 209.225 L227.1169 208.8161 L225.6951 208.4686 L224.5942 207.9138 L223.7044 207.2822 L223.179 206.8653 L222.1524 206.4677 L221.1108 206.2693 L220.8061 206.1331 L220.3598 205.9335 L219.4959 206.9733 L219.2424 207.2949 L218.1183 206.9783 L217.4178 206.6095 L218.4299 205.075 L217.9325 204.8209 L218.4361 204.0608 L218.8416 203.5511 L218.627 203.104 L218.2477 203.5152 L216.6042 203.3036 L216.6657 202.095 L217.3951 201.7369 L218.1552 201.8634 L218.5221 202.2435 L220.0073 201.9203 L220.3189 201.7644 L220.4355 201.5133 L219.5427 200.195 L218.9171 199.5073 L218.1714 198.88 L217.2467 198.497 L216.1172 198.4767 L215.037 198.5146 L213.2341 198.7661 L211.6864 198.8628 L211.6525 198.0667 L211.5804 197.8156 L211.4973 197.8222 L211.022 198.1584 L210.8621 199.1525 L210.9081 199.4791 L210.7621 200.01 L210.9798 200.8136 L210.8253 201.2977 L212.1289 202.6591 L210.5324 203.7817 L209.965 204.092 L208.13 205.0886 L206.1386 206.4225 L202.4416 208.8632 L199.6157 210.616 L198.9723 210.9309 L196.1357 212.6108 L195.8987 212.1487 L195.8636 211.878 L195.4005 210.7532 L194.5989 209.5788 L194.0232 208.4849 L193.8555 208.1663 L192.3104 207.1225 L191.7822 206.6235 L190.582 207.3148 L190.1107 207.5862 L190.5835 207.647 L191.8612 207.8111 L192.684 208.2646 L193.8112 209.9695 L194.4 210.2917 L194.8395 212.0707 L194.3612 213.8596 L189.7483 216.8424 L189.5352 217.0048 L174.5078 226.6959 L174.3106 226.8234 L170.596 229.225 L170.4755 229.3031 L166.6088 231.8029 L166.6675 232.1381 L167.3402 232.7629 L167.9097 233.6481 L167.9904 234.2662 L168.1643 234.3277 L168.3824 234.0092 L168.5856 234.1384 L168.9708 234.1805 L169.5133 234.6638 L173.0173 237.1713 L173.2986 237.6984 L172.6368 238.8024 L170.5793 237.3676 L169.7972 237.8621 L168.5792 239.8151 L168.3983 240.1088 L168.2955 240.5934 L168.5756 240.9783 L169.4024 241.1906 L171.4458 244.6548 L171.9977 245.5678 L172.2232 247.2198 L171.437 247.8761 L171.2721 248.0136 L169.2821 249.3275 L168.6798 249.6068 L168.2349 249.5723 L167.4824 248.5028 L165.4262 245.5804 L164.956 244.8158 L164.8892 244.5883 L164.5573 244.023 L164.4824 243.4989 L164.6404 243.2571 L164.6635 242.9914 L164.3002 241.6087 L164.5552 241.256 L164.6982 239.6687 L164.6109 239.2688 L165.105 239.1289 L165.2782 239.1289 L165.3786 239.0253 L165.4277 238.4145 L164.8451 237.3938 L164.5781 237.1304 L164.6162 236.2186 L163.4719 234.2194 L161.7329 233.103 L161.2296 232.8901 L159.5382 230.8706 L158.5876 229.5253 L158.3307 229.5253 L156.6226 227.4499 L155.3307 226.5763 L154.8965 225.8704 L154.8858 224.2139 L153.3229 222.9084 L152.4901 222.6659 L149.7817 218.7661 L148.4684 216.4786 L147.9828 216.3806 L148.8161 219.0046 L150.0119 220.9838 L150.539 221.2326 L151.8713 223.0702 L152.5374 223.231 L153.8849 224.4408 L154.369 225.1101 L154.5129 226.2401 L155.1053 226.7955 L156.3597 227.6393 L158.5319 230.1514 L160.0488 232.3045 L160.3702 232.7642 L160.4944 233.3129 L160.0493 233.8965 L160.2636 234.4506 L160.3201 234.5964 L161.6974 237.1088 L162.3296 238.653 L163.2967 239.9284 L163.446 242.6981 L163.2486 243.5587 L162.7606 243.8297 L162.6307 243.9021 L162.1965 243.8566 L161.6137 243.9101 L160.989 244.2482 L160.5777 244.6441 L160.8828 245.2818 L160.6922 245.5708 L159.1672 246.5017 L155.5123 248.5776 L155.3922 248.6456 L150.2086 251.5587 L149.9361 251.6965 L148.9469 252.196 L144.4102 254.8606 L140.951 256.9748 L137.8493 257.1558 L136.4493 257.1638 L136.2549 257.1648 L133.1389 255.8427 L130.7068 255.1359 L127.9618 254.855 L125.2421 254.8981 L125.0854 254.9008 L122.6624 255.7268 L121.451 256.2651 L121.3566 256.3275 L120.7621 256.7208 L120.473 256.9121 L119.2124 257.4873 L115.8376 258.9469 L112.7143 260.271 L107.7061 262.3615 L99.5108 265.7828 L96.8093 267.0065 L96.6106 267.0942 L94.9946 267.8321 L94.3097 268.136 L94.0298 268.2422 L92.9638 268.8211 L92.2691 269.0914 L91.609 269.4324 L88.1601 271.2519 L91.825 279.3624 L96.5481 289.4303 L96.5466 289.6484 L95.3123 291.0795 L95.0579 290.9742 L94.7366 291.5181 L94.3236 291.9259 L93.6537 292.0786 L93.4605 293.0315 L93.0272 293.2198 L92.8028 293.9513 L91.2898 295.553 L90.4524 296.7619 L87.044 301.4285 L83.5606 308.1095 L83.0956 308.6387 L81.563 311.0593 L78.9902 314.7468 L74.9339 321.2782 L72.2022 325.3804 L71.2501 326.8796 L69.9709 328.7761 L69.672 329.3653 L69.4878 330.0176 L68.743 331.4029 L64.4567 338.7177 L69.7251 342.4739 L70.6868 343.1885 L67.8438 346.3425 L65.4968 348.8445 L64.7113 348.9627 L64.1212 349.0168 L63.3689 349.2445 L63.0336 349.4327 L62.8077 349.7666 L62.2992 350.2857 L61.7 350.4078 L61.4099 350.3793 L60.6822 350.138 L59.4935 349.6468 L59.1747 349.6182 L59.0111 349.6584 L58.7112 350.0079 L57.1761 351.6512 L60.4481 353.6715 L60.9838 354.2474 L61.4311 353.6659 L63.0148 355.2488 L63.9001 356.1336 L63.5134 356.4795 L63.0829 356.8648 L61.3771 358.0208 L60.0981 359.1765 L57.8781 362.0553 L57.6846 362.3302 L57.3469 362.8781 L55.3663 366.0808 L53.6987 368.6094 L53.1623 370.1161 L52.4648 373.4329 L51.9326 375.8283 L51.4857 378.1606 L49.8303 382.6439 L49.4758 383.6348 L48.9617 385.0717 L48.3798 385.5138 L47.7392 388.6951 L46.306 393.1433 L45.9414 394.2748 L41.8885 395.3566 L40.7671 394.1428 L38.5591 395.1037 L37.3265 398.2384 L37.1255 403.0003 L34.6794 402.5749 L33.7592 400.9908 L32.481 398.7657 L32.1145 398.0848 L29.8497 395.778 L26.604 395.4296 L26.3727 393.4884 L23.8742 389.4666 L22.6603 389.4666 L22.0223 386.5564 L20.4625 384.6131 L16.7483 384.2401 L13.9616 386.0208 L12.4891 387.4792 L10.2554 388.8249 L9.9402 389.3634 L9.4448 391.4662 L9.3818 392.045 L9.6946 392.4488 L9.4169 393.2147 L8.7335 394.7082 L7.9399 397.0028 L8.1488 397.7663 L9.9244 399.1894 L10.8966 399.7107 L11.076 400.2449 L9.958 401.7321 L9.3082 402.1077 L9.0699 402.3818 L8.7716 402.7634 L8.564 403.569 L13.1585 406.5652 L11.3494 408.6953 L8.3349 409.1532 L4.541 406.9103 L0.0 403.1111 M48.2554 391.5134 L49.0285 390.8918 L49.2426 390.7847 L49.534 390.6818 L49.8108 390.6221 L49.9928 390.6473 L50.0905 390.7253 L50.2594 390.9108 L50.3857 391.1178 L50.4433 391.2731 L50.4818 391.3647 L50.5152 391.5286 L50.5882 392.2597 L50.5715 392.5381 L50.5187 392.6681 L50.4152 392.7289 L50.211 392.763 L50.0005 392.7879 L49.7308 392.7547 L49.4833 392.6625 L49.2272 392.5099 L49.0589 392.3648 L48.2554 391.5134 M50.4733 394.3764 L50.5441 394.324 L51.0276 393.9825 L51.2945 393.7937 L51.4335 394.1368 L51.4114 394.4484 L51.2526 394.604 L50.9359 394.6989 L50.7017 394.6704 L50.5221 394.4663 L50.4733 394.3764 M61.7569 352.6864 L61.7619 352.5988 L61.867 352.4448 L62.5881 351.5022 L62.699 351.3472 L62.7501 351.2589 L62.8174 351.0813 L62.8735 350.7431 L62.9171 350.5227 L62.9503 350.3906 L63.0437 350.1918 L63.2329 349.9797 L63.3834 349.819 L63.4862 349.7291 L63.605 349.6716 L63.7498 349.6335 L64.0669 349.5074 L64.2692 349.4669 L64.4818 349.5004 L64.667 349.5435 L64.7023 349.6312 L64.6822 349.7732 L64.6132 349.8987 L64.4927 350.0666 L64.1835 350.4118 L63.3595 351.4444 L63.2203 351.6031 L62.9664 351.848 L62.5067 352.232 L62.031 352.5835 L61.8272 352.6937 L61.7569 352.6864 M63.0569 397.085 L67.6406 392.9472 L68.9019 393.5508 L69.7 394.4189 L70.1593 394.9186 L68.9732 396.3892 L66.8373 397.8194 L65.0684 397.7533 L63.6247 398.0636 L63.0569 397.085 M100.4423 288.8923 L101.5972 287.7475 L101.7871 289.6172 L101.8821 289.8822 L100.9373 289.6521 L100.5573 289.1772 L100.4423 288.8923 M100.5192 265.9223 L100.5449 265.8233 L101.0195 265.5968 L101.804 265.2076 L101.9519 265.1521 L102.0468 265.1332 L102.1427 265.1442 L102.2131 265.189 L102.2716 265.3235 L102.4223 265.4929 L102.5807 265.6609 L102.6212 265.7453 L102.6259 265.8133 L102.5861 265.8705 L102.4818 265.9133 L102.1735 265.9173 L101.8098 265.8658 L101.5691 265.9 L100.9347 266.0617 L100.7872 266.078 L100.6476 266.0471 L100.5192 265.9223 M135.6702 273.2278 L135.6925 273.1521 L135.7741 273.0757 L135.8432 273.0657 L136.0096 273.1175 L136.0577 273.1461 L136.0791 273.2029 L136.0699 273.3569 L135.959 273.4413 L135.8901 273.442 L135.8081 273.443 L135.7019 273.3782 L135.6702 273.2278 M142.1471 400.1736 L142.1506 400.0422 L142.191 399.8965 L142.2934 399.728 L142.4736 399.643 L142.8811 399.5982 L142.9804 399.6503 L143.029 399.7618 L142.9654 399.9158 L142.7541 400.1424 L142.6182 400.2486 L142.47 400.2984 L142.3002 400.3007 L142.1966 400.2456 L142.1471 400.1736 M143.1378 269.5317 L143.184 269.3544 L143.4589 269.3976 L143.53 269.4783 L143.6146 269.5925 L143.5885 269.6895 L143.6007 269.7233 L143.5047 269.7974 L143.4001 269.7914 L143.22 269.6785 L143.1628 269.6071 L143.1378 269.5317 M161.2701 234.8236 L161.7863 234.5509 L161.949 234.5343 L164.0043 236.9856 L163.3738 237.6137 L162.7172 237.6758 L161.2701 234.8236 M167.6421 439.971 L167.705 439.8791 L167.7881 439.834 L167.8889 439.8463 L168.2536 440.0171 L168.3049 440.0994 L168.3118 440.1481 L168.2713 440.2135 L168.212 440.2616 L168.1309 440.2732 L167.987 440.2374 L167.7121 440.1169 L167.6521 440.0426 L167.6421 439.971 M167.9928 400.7261 L169.3975 400.3667 L170.1351 401.6442 L170.5536 402.8029 L170.7213 403.5912 L171.0987 404.7579 L170.845 405.0741 L169.8993 405.3242 L169.1892 405.3584 L168.883 405.094 L168.9108 404.6212 L169.0778 404.148 L168.9665 403.3274 L168.8415 402.5205 L168.285 401.394 L167.9928 400.7261 M171.6669 365.5903 L173.6279 364.0165 L174.3119 363.8486 L180.7653 368.7458 L178.7671 371.6716 L174.4376 367.933 L174.086 367.4273 L173.1534 368.4773 L171.6669 365.5903 M184.6893 298.0711 L185.8499 296.0773 L186.0555 296.241 L187.0412 294.5984 L189.9063 289.8324 L193.2805 295.6167 L193.729 295.9929 L194.0046 295.6712 L193.6941 295.4248 L186.9159 283.9564 L191.2934 279.6726 L205.1617 269.9936 L206.6137 269.0997 L215.1843 265.6274 L220.2677 269.4656 L220.9286 274.1529 L222.2535 284.58 L220.9719 287.4938 L217.6328 291.5294 L214.1367 295.3883 L211.5508 297.59 L207.1926 298.9579 L203.9484 300.2445 L203.8557 300.7598 L203.4005 301.1486 L202.6925 301.1104 L201.3878 302.2406 L198.3176 304.4186 L197.7134 304.8652 L197.4982 304.5803 L197.0835 304.0564 L196.2194 304.7224 L194.2 304.9827 L191.5872 303.5567 L189.9737 306.3778 L186.9652 304.7224 L187.5066 303.744 L187.1527 302.5158 L188.277 300.4235 L184.6893 298.0711 M188.4009 242.8645 L189.1242 242.171 L190.2743 241.433 L190.4841 241.3334 L190.9744 241.8681 L190.4948 242.7616 L191.2913 243.9138 L192.3596 243.2664 L195.2757 247.531 L192.548 248.8728 L191.6039 249.268 L191.09 246.4383 L190.7089 245.3821 L189.6697 243.7925 L188.912 243.5348 L188.4009 242.8645 M198.0508 454.2544 L201.7976 452.1172 L201.8076 453.8464 L201.6858 455.0819 L198.0508 454.2544 M200.4622 457.8228 L200.7059 457.5587 L201.0617 457.1438 L201.3214 456.9706 L202.4758 456.7202 L204.055 456.4575 L206.3793 456.1331 L207.6399 455.8774 L209.7822 455.5015 L210.2573 455.3884 L210.3521 455.3015 L209.7079 453.3946 L209.7897 453.1276 L209.7946 452.9494 L209.6186 452.017 L209.5156 451.7845 L209.3777 451.5636 L209.1821 451.4083 L208.932 451.126 L208.8267 450.8763 L208.79 450.6169 L208.8397 450.2215 L208.9778 449.8314 L209.1007 449.7083 L209.4522 449.5879 L210.1673 449.434 L210.9559 449.428 L211.3832 449.3501 L211.8771 449.2449 L212.6297 448.9046 L213.3495 448.613 L213.8385 448.4734 L214.18 448.4073 L214.5656 448.4057 L215.3787 448.4495 L215.7545 448.5022 L216.6383 448.8008 L217.0408 448.8651 L217.4506 448.9659 L217.7531 449.1195 L217.7653 449.2061 L217.4259 450.5349 L216.9372 452.298 L216.9509 452.9942 L216.9145 453.5093 L216.7971 453.5767 L216.7539 454.0955 L216.5702 454.3827 L216.1692 454.4182 L215.5545 454.5589 L214.9876 455.0919 L214.123 456.2661 L214.0676 456.426 L214.0149 456.3371 L212.9095 457.0327 L212.0784 457.5199 L210.5628 457.7548 L209.1429 457.8118 L206.1701 458.25 L204.987 458.438 L204.35 458.5853 L203.8927 458.6427 L203.6816 458.7883 L203.4354 458.8838 L203.2046 458.8636 L201.8935 458.3963 L200.5384 457.8649 L200.4622 457.8228 M203.0982 450.6106 L203.6088 449.699 L204.6611 448.6273 L205.5777 447.6935 L208.0754 446.7912 L209.1056 449.4075 L208.039 450.0181 L207.082 450.5741 L206.1793 450.8113 L204.5569 451.0026 L203.9004 451.0663 L203.3626 451.0026 L203.0982 450.6106 M204.3162 422.1026 L213.0151 416.4044 L213.8334 415.2528 L215.9249 413.0703 L216.622 413.0703 L216.622 414.1314 L215.9855 415.1921 L215.8339 415.5862 L215.1974 416.2833 L214.9852 416.5862 L214.6821 416.8593 L214.3791 416.5258 L214.0759 416.2226 L213.7728 415.9801 L213.4705 416.3739 L213.5884 416.8145 L213.5 417.1927 L213.6818 417.6167 L213.5304 418.0109 L213.5 418.4352 L213.7426 418.7079 L213.7728 419.0719 L213.3484 419.6475 L212.9847 420.0115 L212.5907 420.2235 L211.924 420.2537 L211.1965 420.6478 L210.651 421.0722 L210.2266 421.3147 L209.5901 421.5572 L208.6203 421.951 L208.0745 422.2241 L207.62 422.5575 L207.1956 422.8909 L206.8319 423.224 L206.3774 423.3756 L205.9832 423.4665 L205.6194 423.4363 L205.1951 423.2847 L204.9527 422.9818 L204.7406 422.7695 L204.3162 422.1026 M206.7021 424.2336 L207.629 423.7465 L208.0073 423.6702 L208.249 423.7621 L208.2824 423.9983 L207.7484 424.1888 L207.5446 424.4472 L207.2175 424.643 L206.977 424.6423 L206.785 424.4973 L206.7021 424.2336 M209.8291 422.3286 L210.6623 422.1481 L210.9274 422.1945 L211.2464 422.3558 L211.6742 422.6832 L211.842 423.0306 L211.4939 423.8978 L211.3654 424.0076 L211.1578 423.9983 L210.9216 423.8202 L210.3891 423.2744 L210.1678 422.9642 L209.8291 422.3286 M211.6847 200.6465 L211.7455 199.2096 L213.3617 199.1259 L213.8871 200.4578 L214.2483 200.7744 L214.8649 201.6957 L214.9972 202.1402 L214.1609 202.4594 L213.1964 202.5787 L212.4892 202.0003 L212.0354 201.302 L211.6847 200.6465 M212.1968 421.9815 L213.0757 421.3449 L213.4698 420.7994 L213.7122 420.4962 L213.9849 420.0417 L214.2577 419.6173 L214.5305 419.193 L214.9246 419.1628 L215.5138 419.2152 L215.7898 419.4249 L215.7429 420.0417 L215.7429 420.4962 L215.7429 420.9511 L215.7429 421.4056 L215.8035 421.7997 L215.6217 422.1633 L215.2884 422.4968 L214.5609 422.7088 L214.1061 422.9818 L213.6818 423.1029 L213.3182 423.1636 L213.3182 422.7393 L213.0455 422.4968 L212.8029 422.3451 L212.1968 421.9815 M213.3549 447.7718 L213.4069 447.6338 L213.4917 447.4636 L213.761 447.1329 L214.2286 446.4555 L214.3622 445.7231 L214.3288 445.5181 L214.3511 445.3274 L214.4495 445.123 L215.2025 444.5777 L215.5442 444.4523 L215.8095 444.3667 L215.9028 444.175 L216.2439 444.1312 L216.3704 444.023 L216.507 443.9779 L216.7166 443.9172 L216.8008 443.9454 L216.8006 444.0393 L216.7607 444.1783 L216.7674 444.3886 L216.8509 444.5544 L216.9624 444.7074 L217.0478 444.7876 L217.3093 444.8241 L218.0284 444.4772 L218.3172 444.4095 L218.4926 444.3266 L218.6487 444.233 L218.8349 444.2101 L218.894 444.2383 L218.9289 444.3275 L218.9206 444.5223 L217.9432 448.3068 L214.9537 448.067 L213.5411 448.0169 L213.4071 447.9207 L213.3549 447.7718 M215.777 411.8002 L215.9671 411.6078 L216.2495 411.5016 L216.5325 411.4661 L216.8008 411.561 L215.8814 412.2402 L215.7939 412.0205 L215.777 411.8002 M217.1977 411.858 L218.198 410.8881 L218.8041 410.282 L219.3194 409.7969 L219.6832 409.6456 L220.1985 409.6456 L220.6531 409.6456 L220.8046 409.2514 L220.8046 408.8271 L220.8652 408.4332 L221.0168 408.0692 L221.2592 407.6147 L221.7139 407.1601 L222.1383 406.7055 L222.6536 406.2204 L223.1081 405.675 L223.3203 405.2808 L223.5931 405.008 L224.1084 404.6142 L224.7751 404.1291 L225.5936 403.432 L226.2603 402.8563 L226.5635 402.553 L226.9272 402.4923 L227.2908 402.7956 L227.7759 402.8865 L228.1093 403.2199 L228.2305 403.6138 L227.8061 404.4324 L227.9273 404.796 L228.3821 404.6444 L228.867 404.1291 L229.2609 403.8563 L229.6551 403.8563 L229.8974 404.1593 L229.5337 404.5233 L229.2913 405.0386 L229.1397 405.7357 L229.4125 406.1295 L230.0794 406.3114 L230.4734 406.5841 L230.7461 406.9481 L230.8067 407.5845 L230.8067 408.039 L230.3218 408.1601 L229.3215 407.9481 L228.473 407.5543 L227.6849 407.4328 L227.2908 407.3117 L226.7453 407.3721 L226.4119 407.5845 L226.0482 407.827 L225.745 408.1907 L225.351 408.7059 L225.3209 409.3121 L224.9873 409.6758 L224.5629 409.5547 L223.4415 409.494 L222.987 409.5547 L222.5626 409.8274 L222.0777 410.4031 L221.8351 410.7972 L221.5623 411.1307 L221.1986 411.0398 L220.8956 410.7972 L220.5319 410.8274 L220.2287 411.2216 L220.0771 411.5852 L219.865 412.4641 L219.8044 412.8281 L219.7438 413.4947 L219.5014 413.7677 L219.0771 413.3434 L218.6829 413.222 L218.289 413.3434 L217.8646 413.2827 L217.6525 412.9492 L217.5313 412.5551 L217.3797 412.343 L217.1977 411.858 M218.3975 448.3158 L218.4087 448.2196 L218.6003 447.6384 L218.7705 446.9276 L218.8724 446.3354 L219.1 445.2899 L219.3922 444.3342 L219.4903 443.6299 L219.5783 443.3795 L219.8309 443.1692 L219.8909 442.927 L219.7885 442.6059 L220.0146 441.6658 L220.1182 441.2836 L220.1893 441.0673 L220.3953 440.7635 L220.719 440.2161 L220.8231 439.7623 L221.0616 439.2024 L221.2701 438.7578 L221.5561 438.1299 L221.6947 437.7258 L221.9079 437.2567 L222.0327 436.9446 L222.1689 436.7455 L222.2644 436.5236 L222.3402 436.0529 L222.4108 435.7895 L222.419 435.2683 L222.3691 434.6025 L222.3025 434.1238 L222.2759 433.5611 L222.4093 433.2997 L222.5688 432.9716 L222.823 432.6913 L223.0664 432.5414 L223.4764 432.3091 L223.9194 432.1423 L224.1688 432.1068 L224.53 432.1393 L225.0475 432.1585 L225.5114 432.1234 L226.0173 432.1645 L226.2241 432.2153 L226.31 432.1532 L226.5543 432.2541 L227.0823 432.4943 L227.328 432.6396 L227.7014 431.8918 L227.9142 431.6705 L228.0742 431.5886 L228.3309 431.5302 L228.6737 431.3401 L229.2402 430.6998 L229.6043 430.3747 L229.7968 430.2483 L230.006 430.2337 L230.1494 430.2981 L230.2289 430.4205 L230.3304 430.4523 L230.5965 430.4696 L231.1557 430.6949 L231.8941 430.9612 L232.1868 431.1281 L232.2763 431.2598 L232.144 431.5319 L231.8308 432.2886 L231.0891 433.5336 L230.9851 433.6232 L230.8799 433.5482 L230.6731 433.5276 L230.5293 433.6026 L230.4607 433.7171 L230.5781 434.0548 L230.6307 434.2562 L230.3935 434.6181 L229.6048 435.7075 L229.1507 435.9805 L228.8466 436.2313 L228.6407 436.366 L228.3754 436.3942 L228.0785 436.0864 L228.0294 435.743 L227.8738 435.7457 L226.416 436.2041 L225.8516 436.3431 L224.7937 436.6968 L224.1082 437.055 L223.5573 437.5251 L222.9137 438.3617 L222.8936 438.6789 L222.7885 438.73 L222.4301 438.7446 L222.3686 439.214 L222.5947 439.3686 L223.1086 439.9252 L223.2075 440.1793 L223.2193 440.4337 L223.4175 440.8186 L223.6181 441.0703 L223.5931 441.3842 L223.6537 441.5802 L223.9845 441.5819 L224.3204 441.4309 L224.986 440.9977 L225.2434 440.8116 L225.5375 440.7449 L225.9786 440.6882 L226.3233 440.4941 L226.517 440.3425 L226.8472 440.1949 L227.014 440.0622 L227.158 440.0546 L227.3861 440.0197 L227.7153 439.8486 L227.8329 439.9066 L227.8922 440.2224 L227.8355 440.5479 L227.637 440.6729 L227.373 440.7595 L226.8118 440.8866 L225.688 441.1917 L225.3172 441.3125 L225.0601 441.3138 L224.7779 441.3729 L224.406 441.7175 L224.0468 442.3422 L223.7367 442.7044 L223.7811 443.1871 L223.4162 443.9112 L222.9872 444.4937 L222.7652 444.9492 L222.6498 445.1549 L222.0987 445.6889 L222.0186 445.5257 L221.9415 445.404 L221.8516 445.3204 L221.6827 445.2298 L221.4082 445.1993 L220.9941 445.2458 L220.6306 445.267 L220.2521 445.2451 L219.771 445.1777 L219.2462 445.1194 L219.1784 445.2132 L220.1737 445.3287 L220.6683 445.3642 L220.9136 445.3565 L221.2455 445.3035 L221.4499 445.3048 L221.5833 445.3131 L221.7186 445.3572 L221.8233 445.4388 L221.9374 445.5672 L221.9976 445.7606 L221.9768 446.2966 L221.897 446.709 L221.1089 446.5869 L221.0348 446.4751 L220.9524 446.4021 L220.8524 446.4164 L220.1615 446.9687 L218.4896 448.332 L218.3975 448.3158 M218.6264 450.7758 L218.6953 450.2832 L218.87 449.8198 L219.1779 449.4171 L219.4817 449.2297 L219.6121 449.2293 L219.632 449.2874 L219.5627 449.3617 L219.2833 449.5342 L219.0069 449.8961 L218.8401 450.3379 L218.7825 450.7754 L218.8518 451.2687 L219.0103 451.5991 L219.2372 451.7815 L219.671 452.0008 L220.0643 452.0489 L220.476 451.9961 L220.779 451.89 L221.0819 451.5583 L221.1318 451.5281 L221.1945 451.5433 L221.2112 451.605 L221.1958 451.6631 L220.8929 451.9948 L220.5137 452.1477 L220.0647 452.2051 L219.6254 452.1514 L219.1676 451.9202 L218.8863 451.6986 L218.702 451.3141 L218.6264 450.7758 M219.1706 450.5625 L219.2732 450.0762 L219.4941 449.8476 L220.1185 449.6002 L220.3456 449.6436 L220.6064 449.9359 L220.7291 450.4756 L220.6085 451.0667 L220.0919 451.4093 L219.7995 451.4587 L219.507 451.3828 L219.2507 451.1227 L219.1706 450.5625 M221.5756 452.1348 L221.9289 449.7664 L222.751 449.7664 L223.5732 449.7664 L224.0592 451.7102 L221.5756 452.1348 M224.2872 446.9614 L227.1784 445.8896 L227.6695 447.0596 L224.6332 448.0932 L224.2872 446.9614 M227.9547 401.2095 L228.4497 400.5502 L228.9543 400.088 L229.9923 399.3388 L231.4642 398.2212 L232.2973 397.7294 L233.3474 397.1833 L233.8831 396.8272 L234.1107 396.7137 L234.428 396.6839 L235.0536 396.668 L235.324 396.5183 L235.7083 396.0385 L236.3459 395.494 L236.542 395.3277 L236.7486 395.2594 L237.1578 395.1983 L237.7024 395.0762 L238.5385 395.268 L239.5328 395.6496 L240.0096 395.9283 L240.1038 396.1712 L240.0136 396.8558 L239.7948 397.3296 L239.6032 397.4411 L239.0318 397.4796 L238.8721 397.5838 L238.7669 397.7129 L238.6926 397.9103 L238.644 398.1641 L238.5419 398.5281 L238.3409 398.701 L238.2066 398.7713 L237.8904 398.8523 L237.4417 399.0361 L236.6148 399.5236 L235.7087 399.7904 L235.0061 400.007 L234.4237 400.0531 L232.256 399.9111 L231.922 399.9247 L231.2728 400.381 L230.568 400.8064 L230.2075 401.2278 L229.8272 402.1067 L229.706 402.3589 L229.4825 402.4146 L228.305 401.8821 L227.9776 401.4925 L227.9547 401.2095 M243.6212 257.8951 L243.7011 257.7606 L243.812 257.7005 L243.9676 257.8024 L244.0276 257.8828 L244.1355 258.2106 L244.1186 258.7825 L244.0432 259.0322 L244.0004 259.0737 L243.8167 259.1176 L243.813 259.1375 L243.6317 259.1564 L243.6266 258.5507 L243.6428 258.4776 L243.6236 257.9589 L243.6212 257.8951 M245.7536 366.7569 L246.2334 366.4369 L246.5734 366.0168 L247.0733 365.737 L247.3534 365.657 L247.8332 365.417 L248.3132 365.2169 L248.493 365.2571 L248.973 365.2372 L249.3329 364.9172 L249.6928 364.7772 L250.1129 364.817 L250.4328 364.897 L250.7927 365.197 L250.7529 365.4771 L250.4529 365.7569 L249.813 365.7768 L249.4531 365.897 L249.233 366.037 L249.0531 366.2969 L249.033 366.657 L249.0929 367.3566 L248.6131 368.1966 L248.1732 368.9765 L247.8533 367.8567 L247.1534 368.1966 L246.7933 368.2165 L246.2536 368.0167 L246.3135 367.3566 L245.9136 367.1166 L245.7536 366.7569 M246.3754 435.5174 L249.6472 434.1453 L250.8081 435.7812 L251.4151 437.0212 L250.0429 437.6545 L250.3596 438.8948 L248.3014 439.8446 L246.3754 435.5174 M247.7289 359.7557 L247.8375 359.4307 L248.0267 359.1788 L248.4423 359.0076 L249.7474 358.8808 L249.0034 359.8353 L248.3821 360.5466 L248.0552 360.8602 L247.9021 360.5572 L247.7512 360.1138 L247.7289 359.7557 M248.346 440.1972 L248.3742 439.975 L249.2212 439.5639 L250.5544 439.0262 L250.1951 437.8568 L250.5597 437.5885 L251.3547 437.2385 L251.6264 437.0554 L251.0078 435.6458 L251.0562 435.4763 L251.4275 435.3393 L251.9036 435.2 L252.9763 434.9249 L254.3337 434.5584 L254.7544 434.3245 L255.0203 434.1002 L256.8842 437.0842 L258.178 439.1967 L259.341 440.8912 L259.9347 441.8791 L259.9797 442.0602 L259.9229 442.2184 L259.501 442.3176 L257.3084 442.647 L254.8715 443.0706 L253.7031 443.2156 L251.9769 443.4793 L251.0969 443.7029 L250.5141 443.7852 L250.1898 443.7318 L249.8851 443.3974 L249.5269 442.6172 L248.9099 441.5175 L248.346 440.1972 M248.389 336.4027 L248.4053 336.0903 L248.6052 335.8035 L248.817 335.7823 L249.0548 335.8264 L249.252 335.764 L249.449 335.8225 L249.5376 336.0253 L249.6213 336.2546 L249.3479 336.5086 L249.0075 336.7117 L248.9208 336.7668 L248.7515 336.9594 L248.5262 337.0911 L248.392 336.7297 L248.389 336.4027 M248.693 375.2754 L248.973 375.0155 L249.5329 374.8954 L249.753 374.6555 L250.1729 374.5556 L250.5728 374.3956 L250.6927 374.1155 L250.6927 373.9556 L250.4927 373.6356 L250.4728 373.2759 L250.7529 373.0157 L251.2127 373.4359 L251.3528 373.9356 L251.8925 373.8358 L252.5924 374.0558 L253.4323 373.6957 L253.8123 373.9758 L253.8723 374.6757 L253.5323 375.2754 L253.0125 375.9355 L252.3126 376.0553 L251.2127 375.5356 L250.2529 375.4154 L249.173 375.4954 L248.693 375.2754 M249.4265 196.7734 L308.5708 233.8391 L307.8945 234.2413 L249.5051 197.1402 L249.4265 196.7734 M250.1448 363.4802 L251.5519 362.9876 L253.4905 363.6989 L255.7921 365.0825 L256.7658 365.661 L258.6118 365.7904 L260.1195 367.2089 L261.0549 367.5165 L261.7922 368.0376 L262.1746 368.7223 L261.8841 368.9098 L254.0256 365.4718 L250.1448 363.4802 M251.5367 458.6639 L251.5534 458.5478 L251.5666 458.5386 L251.6193 458.524 L251.7236 458.59 L251.9469 459.0089 L251.954 459.1107 L251.8705 459.1664 L251.7737 459.1286 L251.5367 458.6639 M254.1722 372.1761 L254.3322 371.976 L254.8522 372.0559 L255.132 372.1359 L255.132 372.5159 L255.1121 373.0157 L254.6722 373.3157 L254.1913 373.2829 L254.1722 372.1761 M254.9494 374.6336 L255.641 373.7773 L256.2668 372.9868 L256.8928 373.2832 L257.1232 373.6124 L257.6503 373.5796 L258.2761 372.8551 L258.5067 372.3609 L258.4737 371.5704 L258.4407 371.3398 L259.1325 370.8127 L259.2644 371.3069 L259.7583 371.8339 L260.2524 372.3609 L261.0099 372.3609 L261.7017 372.8219 L261.3724 373.7773 L260.9442 374.5347 L259.9229 373.7442 L259.1325 373.4478 L258.408 374.1066 L257.7162 374.7325 L257.0574 375.3912 L256.4646 376.0171 L255.8058 375.5887 L255.2457 374.9299 L254.9494 374.6336 M256.6417 379.7694 L257.0041 379.1436 L257.597 378.7155 L257.7051 379.5813 L257.4651 379.9672 L258.0911 380.5271 L260.8249 379.572 L261.0226 378.4848 L261.4837 377.925 L264.4811 378.0239 L264.7447 379.7037 L263.1635 381.4493 L262.178 380.8599 L261.1213 380.2964 L260.1002 380.1318 L257.9263 381.2847 L256.9712 381.5153 L257.3004 380.5931 L256.6417 379.7694 M256.9326 212.6145 L258.7724 210.4748 L259.5016 210.6678 L260.9249 211.3302 L261.3291 211.1365 L261.8451 211.4647 L262.1633 212.4092 L261.7344 212.8494 L261.8451 213.3596 L262.6144 214.5891 L259.8281 215.9023 L259.5048 215.8564 L259.2183 214.0353 L258.475 213.3085 L258.1491 213.1341 L257.0048 213.1178 L256.9326 212.6145 M258.0954 451.9377 L258.7452 447.5598 L264.5798 447.7844 L266.1352 448.0816 L266.5566 450.656 L266.2723 451.0484 L265.7404 451.3888 L265.2572 451.5201 L264.397 451.4037 L264.0103 451.1539 L263.6588 451.1522 L263.5926 451.2372 L263.7174 451.4843 L263.9827 451.941 L263.9369 452.4933 L263.5885 452.7285 L263.2177 452.8682 L262.8253 452.7458 L262.2939 452.5557 L260.9241 452.2973 L259.6735 451.9046 L258.0954 451.9377 M258.4388 363.067 L258.7413 362.7334 L259.7778 363.3341 L261.0718 363.7433 L262.5833 364.3178 L262.6229 364.6477 L262.5437 365.0636 L262.8013 365.6381 L263.046 365.9059 L264.1989 366.4333 L265.2821 366.8863 L266.4022 367.0356 L267.0347 367.2796 L266.9998 367.6158 L267.2494 368.1806 L266.7033 368.1806 L265.1512 367.7721 L262.864 366.8292 L262.1592 366.4744 L261.6178 365.6341 L261.4124 365.3447 L261.2551 364.9205 L261.0491 364.817 L260.9129 365.3401 L260.4648 365.0228 L259.5031 364.0985 L258.5557 363.431 L258.4388 363.067 M260.1328 441.2382 L260.1454 441.0594 L260.3899 440.734 L260.4976 440.7376 L260.6845 440.8567 L260.8581 441.0156 L260.9671 441.2531 L261.0138 441.765 L260.9489 441.9322 L260.7774 442.0134 L260.6117 441.9547 L260.4372 441.7454 L260.2383 441.4508 L260.1328 441.2382 M263.2136 410.0185 L263.2515 408.5862 L263.6742 407.3104 L267.4862 407.679 L269.5533 404.2207 L270.3586 404.3667 L270.6088 405.0903 L270.8799 405.2994 L270.5457 408.9953 L270.3586 409.2869 L269.4902 409.0573 L267.9455 409.1824 L267.4023 408.4727 L265.0639 408.2016 L264.3208 410.3643 L263.2136 410.0185 M263.5539 363.7735 L264.577 363.4038 L265.2373 363.8924 L266.0558 364.1761 L266.3067 364.2027 L266.2802 364.8429 L265.3692 364.9683 L264.4648 364.658 L263.8377 364.3411 L263.5539 363.7735 M266.4453 402.493 L266.5078 402.122 L266.7653 401.7563 L266.9893 401.6087 L267.2689 401.5367 L267.6359 401.4501 L267.8778 401.4972 L268.185 401.6239 L268.3111 402.6814 L267.9654 402.9538 L267.5449 403.0653 L267.0302 403.0809 L266.745 402.9406 L266.5716 402.7511 L266.4453 402.493 M267.0073 370.3485 L267.1319 370.0385 L267.4507 369.8417 L267.5438 369.7182 L268.0011 369.9369 L268.443 369.9801 L269.2311 369.8148 L269.4795 369.8324 L269.8338 369.8261 L270.2023 369.9037 L270.4406 370.0601 L270.6838 370.3139 L271.1951 370.5111 L271.5943 370.4878 L272.1003 370.5701 L272.6659 370.8974 L272.7809 371.1489 L272.7997 371.4539 L272.6381 371.6935 L272.0887 371.955 L271.1077 372.0619 L270.6146 371.9033 L269.5075 371.6524 L269.2825 371.5538 L269.0354 371.4184 L268.8875 371.284 L268.5944 371.0484 L268.488 370.8682 L268.1448 370.7374 L267.498 370.7192 L267.1903 370.669 L267.0073 370.3485 M268.015 386.6898 L268.2017 386.0361 L268.4449 385.8297 L269.3253 385.6392 L270.4376 386.0221 L274.0364 386.9699 L272.9513 388.2169 L268.015 386.6898 M268.5884 328.9377 L268.6616 328.4431 L269.138 328.1868 L269.6692 328.1868 L269.7242 328.5165 L269.3395 329.0111 L268.8997 329.3776 L268.5884 328.9377 M268.7336 319.9742 L268.7483 319.6313 L268.7607 319.3186 L268.8787 319.2339 L269.1102 319.5576 L269.333 319.7807 L269.5405 319.9324 L269.5491 319.9726 L269.6064 320.2016 L269.524 320.3115 L269.2898 320.3995 L269.0744 320.3985 L268.8466 320.3089 L268.7336 319.9742 M268.8402 200.4372 L269.8107 199.4179 L272.0425 197.2956 L272.7625 196.8524 L273.2314 197.096 L274.4539 197.8182 L274.6136 198.4349 L270.778 201.5611 L268.8402 200.4372 M270.2222 459.4308 L270.3868 459.32 L270.5069 459.1482 L270.8998 458.721 L270.9503 458.6775 L270.9929 458.651 L271.0572 458.6427 L271.1272 458.6527 L271.2302 458.6898 L271.3113 458.7558 L271.3216 458.7973 L271.312 458.8331 L271.2696 458.8736 L271.2023 458.8951 L271.0443 458.9071 L271.0026 458.9256 L270.9606 458.9704 L270.9467 459.0364 L270.9662 459.1193 L270.9964 459.187 L271.0373 459.2232 L271.131 459.2305 L271.2484 459.2603 L271.2848 459.2868 L271.3045 459.33 L271.2841 459.4049 L271.2546 459.4603 L271.2559 459.4968 L271.3141 459.5578 L271.3199 459.5857 L271.312 459.6039 L271.2454 459.6428 L271.2098 459.6902 L271.1861 459.734 L271.1786 459.9001 L271.1612 459.9751 L271.1246 460.0202 L271.0809 460.0481 L271.0026 460.0663 L270.954 460.0607 L270.9094 460.0335 L270.8403 459.9688 L270.7915 459.8928 L270.7213 459.722 L270.6692 459.6862 L270.5902 459.6683 L270.4575 459.6766 L270.4057 459.6603 L270.3524 459.6242 L270.2222 459.4308 M286.8243 398.8526 L287.0776 398.5424 L287.9096 398.3317 L287.8471 399.275 L287.2298 399.2259 L286.8243 398.8526 M291.0934 314.3378 L291.1797 314.2103 L291.2598 314.1499 L291.4739 314.1442 L291.6636 314.1864 L292.3425 314.6532 L292.2896 314.8607 L292.204 315.0237 L292.1466 315.1986 L291.9284 315.2069 L291.5105 315.0061 L291.3668 314.8972 L291.1397 314.6037 L291.1011 314.4713 L291.0934 314.3378 M291.8901 318.9155 L293.4794 317.98 L294.2221 319.1599 L294.5972 319.7555 L292.9398 320.8344 L291.8901 318.9155 M294.4392 374.4384 L294.4531 374.2151 L295.0277 373.5268 L295.1179 372.8481 L295.0952 372.0234 L295.8445 371.7722 L297.3982 371.5183 L297.7164 371.8017 L296.0415 373.2855 L295.8148 374.1331 L295.7122 374.4517 L295.5955 374.6701 L295.3637 374.7962 L295.0333 374.7975 L294.7597 374.6883 L294.5507 374.6336 L294.4392 374.4384 M308.5575 407.2344 L308.5828 407.0649 L308.6335 407.0334 L309.0818 406.9086 L309.2062 406.9219 L309.3176 407.0168 L309.3655 407.0961 L309.3576 407.1711 L309.3103 407.2268 L309.336 407.2786 L309.4525 407.3681 L309.5529 407.0207 L309.7515 407.0012 L309.898 407.0184 L309.9714 407.1999 L309.6948 407.3963 L309.4874 407.4491 L309.433 407.6644 L309.3606 407.7179 L309.2011 407.7165 L308.9966 407.7023 L308.8046 407.6853 L308.6847 407.5732 L308.6093 407.4302 L308.5575 407.2344 M323.8526 178.6274 L323.8793 178.5858 L324.294 178.6028 L324.4938 178.6832 L324.6115 178.8792 L324.5704 178.9896 L324.5715 178.9906 L324.4846 179.2178 L324.3229 179.2062 L324.1572 179.0816 L323.996 178.8274 L323.8526 178.6274 M325.4061 155.3986 L325.554 155.3202 L325.8574 155.2663 L325.8764 155.273 L326.0051 155.824 L326.3727 156.4122 L326.3909 156.8531 L326.0601 156.7245 L325.9317 156.4304 L325.6191 155.824 L325.4061 155.3986 M329.6604 342.1705 L330.5307 342.1522 L330.5417 342.6773 L329.6716 342.6956 L329.6604 342.1705 M339.0116 139.9842 L340.0224 138.8127 L341.0674 139.5708 L351.1973 149.207 L359.8917 156.8445 L360.9943 157.7634 L364.8992 158.5789 L383.3674 162.2426 L399.8486 165.4011 L402.5936 166.0212 L403.2483 166.2508 L404.7872 166.4116 L407.2451 166.917 L411.9195 167.5833 L421.4523 169.2255 L426.678 170.3742 L447.0204 174.2849 L446.0287 175.7622 L437.9302 174.3078 L437.7035 173.8768 L428.949 172.1828 L420.4017 170.1672 L418.7951 170.9251 L417.3707 171.2129 L415.249 170.3038 L412.1878 169.1065 L408.5507 168.5609 L405.3983 167.6212 L402.2311 166.924 L398.0634 166.621 L392.8805 165.1509 L388.7585 164.8176 L385.3485 164.1812 L381.8024 163.4083 L360.3107 159.5937 L358.752 157.8162 L354.9329 154.6183 L350.9472 150.966 L341.7179 142.4795 L339.2932 140.3122 L339.0116 139.9842 M340.5142 113.5228 L340.7418 112.1653 L341.3256 111.3934 L341.4631 111.1102 L341.6678 110.8533 L341.9519 110.8559 L341.7508 111.3372 L341.6046 111.9279 L341.8065 113.1997 L342.3426 113.8233 L342.3691 114.2478 L342.0833 115.0037 L341.7236 115.1666 L341.3792 114.887 L340.666 114.2006 L340.5142 113.5228 M343.1975 347.8773 L343.2161 347.1371 L343.8197 346.8072 L346.6257 346.4776 L350.2092 346.1105 L348.884 347.9646 L348.156 348.0764 L346.6319 348.2507 L345.0328 348.3191 L343.3343 348.6985 L343.1975 347.8773 M344.711 111.4253 L345.0377 110.6528 L345.3667 110.1429 L346.1262 108.7627 L347.0905 107.3675 L347.2891 107.208 L348.0017 105.9867 L348.5446 104.9831 L349.4438 103.417 L349.8851 102.1651 L349.9714 102.0265 L350.1407 102.0664 L350.2715 103.427 L350.3005 104.4592 L350.1962 105.5399 L350.2643 106.8144 L350.1968 106.9597 L349.5699 107.2818 L348.799 107.8884 L348.0749 108.5463 L347.1894 109.2786 L346.6558 109.8221 L346.1917 110.343 L345.9662 110.7256 L344.815 111.5769 L344.711 111.4253 M345.5757 111.9821 L345.6061 111.7564 L345.8087 111.5756 L347.0708 110.5331 L348.0972 109.7799 L348.3286 109.6572 L349.2026 108.9598 L349.2805 108.9489 L349.404 109.0915 L349.3982 109.1639 L349.0163 109.4914 L348.693 109.6476 L348.6101 109.9428 L349.1002 109.9431 L349.5055 110.1768 L349.965 109.9707 L350.0384 109.9843 L350.0562 110.0538 L349.5449 112.4831 L349.2 113.7834 L349.1015 113.933 L348.9842 113.9496 L348.3509 113.7652 L347.8454 113.7047 L347.0256 113.4919 L346.7458 113.2433 L346.7385 113.0435 L346.2947 112.7324 L346.0846 112.6323 L345.9416 112.4774 L345.7575 112.3681 L345.6928 112.3361 L345.5973 112.2218 L345.5757 111.9821 M352.0359 97.8521 L352.2381 96.5659 L353.8367 96.8046 L353.6714 98.0359 L352.0359 97.8521 M353.327 232.6407 L355.3012 232.0421 L355.8011 233.6909 L354.3294 234.1374 L353.8269 234.2895 L353.327 232.6407 M369.7925 192.4247 L370.924 192.2636 L373.1973 192.9274 L373.7435 194.5208 L370.3189 194.654 L369.7925 192.4247 M380.0333 108.2873 L380.0588 108.2232 L380.8413 107.8366 L380.9269 107.8333 L381.0678 107.9775 L381.0832 108.0879 L381.0398 108.1461 L380.2669 108.5397 L380.1112 108.4752 L380.0498 108.406 L380.0333 108.2873 M381.4684 111.1554 L381.4977 111.056 L381.626 110.9257 L381.7467 110.9261 L381.7951 110.9626 L381.8309 111.0959 L381.8124 111.2109 L381.6647 111.3266 L381.5416 111.3093 L381.4778 111.2232 L381.4684 111.1554 M394.2831 191.0346 L394.3011 190.7229 L394.6503 190.5874 L394.9592 190.7356 L396.0229 193.0729 L396.4247 193.7075 L396.9902 193.4038 L397.631 192.8221 L397.8134 192.6566 L398.306 192.535 L398.9935 192.3709 L399.7645 192.4543 L400.3898 192.4762 L401.1321 192.7337 L401.7042 192.4878 L402.2195 192.3984 L402.5105 192.7682 L402.6434 193.0556 L402.4696 193.3058 L402.0549 193.5161 L401.4578 193.9939 L401.285 195.0467 L400.6596 195.3125 L400.1967 195.7514 L399.341 195.8501 L399.0134 196.3119 L399.013 196.3122 L399.2251 197.2355 L398.5437 197.9797 L398.4621 198.2658 L398.2583 198.499 L398.118 198.5967 L397.9016 198.496 L397.8418 198.5013 L396.9508 198.5777 L396.7773 198.1425 L395.4876 194.0444 L395.4362 193.8812 L394.2831 191.0346 M427.9622 175.5183 L427.9772 175.3492 L428.3165 174.9132 L428.4353 174.7813 L428.6676 174.5862 L429.22 174.231 L429.532 174.0815 L429.7591 174.0127 L429.8375 174.0692 L429.8608 174.1686 L429.7495 174.5407 L429.1941 175.0342 L428.7914 175.3362 L428.3923 175.5721 L428.2525 175.611 L428.0793 175.5997 L427.9622 175.5183 M475.6798 71.2362 L475.6924 70.7101 L476.0262 70.7487 L476.103 70.4535 L476.2444 70.5948 L476.628 71.1128 L477.1027 71.42 L477.0414 72.2077 L477.438 72.1518 L478.0466 72.3194 L477.9295 72.6991 L478.3038 73.8106 L478.5997 74.2296 L479.6051 74.1009 L479.7057 74.1737 L479.6776 74.5424 L479.7894 74.8327 L479.6832 75.2516 L479.8117 75.3969 L479.689 75.6762 L479.5436 75.5811 L479.3985 75.7208 L479.0465 75.6762 L478.8958 75.5422 L478.7617 75.6313 L478.6568 75.4325 L478.4515 75.0861 L478.0409 75.0219 L477.7199 75.2014 L477.5531 74.7778 L477.6559 74.1747 L477.2067 73.6101 L477.0271 73.1995 L476.424 72.5452 L475.6798 71.2362 M476.3893 67.0886 L476.5413 66.6756 L477.0303 66.5562 L477.4868 66.6214 L477.6172 66.8821 L477.8235 67.2409 L477.9756 67.6754 L478.1169 67.9361 L477.8017 68.0229 L477.302 67.8384 L477.0087 67.697 L476.6826 67.6429 L476.6066 67.4364 L476.3893 67.0886 M482.4342 43.1749 L483.7323 42.5719 L485.6371 42.0984 L486.1993 41.8453 L486.3543 41.5926 L486.2912 41.248 L486.2567 40.7711 L486.452 40.1396 L490.3687 39.274 L490.4712 39.2716 L490.6599 39.2673 L491.7304 39.2607 L490.4672 41.7485 L491.573 43.1532 L490.8438 43.9244 L489.6243 43.261 L487.5758 47.1811 L487.3129 47.193 L483.8237 44.0495 L482.4342 43.1749 M499.4497 68.2224 L499.827 68.1396 L500.0017 67.7991 L500.2226 67.045 L500.4249 66.0694 L500.471 65.6096 L500.6917 65.7569 L501.0505 66.1157 L501.1794 66.4651 L501.0782 66.7045 L501.2621 67.1737 L501.6301 67.5601 L501.8234 67.9281 L501.7774 68.0292 L501.7682 68.2041 L501.8695 68.4066 L501.8695 68.6457 L501.5843 69.2897 L500.7746 69.0965 L500.4894 69.6761 L500.149 69.7865 L499.7625 68.7837 L499.4497 68.2224 M501.6057 69.3233 L501.9039 68.6596 L501.9039 68.4206 L501.8027 68.2181 L501.8119 68.0432 L501.8579 67.9421 L501.9866 67.8686 L502.0878 67.7765 L502.1615 67.9421 L502.5664 68.3378 L503.0447 68.899 L503.2196 69.3772 L503.3206 69.7728 L503.1551 70.1961 L502.8055 70.2699 L502.5479 70.2699 L502.3178 70.1409 L501.95 69.8743 L501.8027 69.7176 L501.7324 69.6661 L501.6265 69.4892 L501.6057 69.3233 M501.9082 79.0875 L502.0975 78.8983 L502.3056 78.7234 L502.457 78.5578 L502.5278 78.501 L502.6177 78.4395 L502.84 78.624 L502.6603 78.7942 L502.6158 78.8212 L502.3717 78.9691 L502.1874 79.0639 L501.9082 79.0875 M503.1806 78.5296 L503.19 78.2077 L503.5589 78.0046 L503.7623 78.0472 L503.9467 77.9996 L504.0698 77.858 L503.9893 77.73 L504.292 77.5694 L504.5142 77.3895 L504.5757 77.3233 L504.6324 77.3423 L504.8075 77.5125 L504.6183 77.6449 L504.4611 77.7456 L504.2115 77.9052 L504.046 78.0472 L503.6345 78.3544 L503.524 78.3969 L503.1806 78.5296" stroke-dasharray="" fill="none" fill-opacity="1.0" stroke="#ff0000" stroke-opacity="1.0" stroke-width="1.0px" stroke-linecap="butt" stroke-linejoin="miter" stroke-dashoffset="0.0px"/>
</g>
</svg>