<?xml version="1.0" standalone="no"?>
<!DOCTYPE svg PUBLIC "-//W3C//DTD SVG 1.1//EN" "http://www.w3.org/Graphics/SVG/1.1/DTD/svg11.dtd">
<svg width="512px" height="512px" version="1.1" xmlns="http://www.w3.org/2000/svg" xmlns:inkscape="http://www.inkscape.org/namespaces/inkscape">
<g id="layer" inkscape:groupmode="layer" inkscape:label="layer">
<path d="M0.0 343.38 L0.6729 344.3817 L1.3315 343.9142 L6.815 351.8162 L6.1421 352.2613 L6.815 353.2407 L7.4879 352.7956 L12.814 360.4749 L12.141 360.9201 L12.8283 361.9217 L13.4869 361.4543 L19.314 369.8682 L18.6411 370.3133 L19.3283 371.2927 L19.9869 370.8476 L25.6566 379.0611 L25.0123 379.5063 L25.6995 380.5079 L26.3581 380.0405 L32.1423 388.4098 L31.4694 388.855 L32.1709 389.8344 L32.8152 389.3892 L38.5135 397.6027 L37.8406 398.0479 L38.5278 399.0496 L39.1864 398.6044 L44.9849 406.9515 L44.3263 407.4189 L45.0135 408.4205 L45.6578 407.9531 L51.3561 416.1666 L50.6975 416.6118 L51.3704 417.6134 L52.0433 417.146 L56.7394 423.9349 L56.0664 424.3801 L56.768 425.3818 L57.4123 424.9366 L62.0367 431.592 L61.3781 432.0371 L62.0654 433.0165 L62.7097 432.5713 L67.0192 438.8038 L66.3749 439.249 L67.0478 440.2284 L67.6921 439.7832 L72.0302 446.0156 L71.3716 446.4831 L72.0445 447.4625 L72.7174 447.0173 L77.0412 453.2497 L76.3683 453.7172 L77.0412 454.6966 L77.7142 454.2291 L82.0666 460.5061 L81.3937 460.9735 L82.1955 462.131 L83.1547 461.4632 L84.7439 463.7336 L96.6416 465.8704 L98.1735 457.9909 L105.9335 459.3709 L107.3652 451.6026 L115.254 452.9604 L116.5856 445.5482 L124.1021 446.8392 L125.4623 439.2935 L132.9788 440.6513 L134.3819 432.8607 L135.4987 432.0594 L143.0152 433.4172 L144.5758 426.0273 L148.2554 426.6283 L103.9434 331.3602 L117.1869 322.9017 L158.9217 383.0899 L155.2851 385.5829 L168.6718 404.8146 L182.2732 395.3991 L183.7479 397.536 L217.236 374.2086 L215.7756 372.0495 L219.2261 369.6678 L226.6567 371.0479 L228.0312 363.5244 L235.4762 364.9044 L236.822 357.3809 L244.2813 358.761 L245.6271 351.2597 L253.0864 352.6397 L254.4466 345.1385 L261.9059 346.4963 L263.266 338.995 L270.711 340.3751 L272.0711 332.8515 L279.5304 334.2538 L280.8763 326.708 L288.3212 328.1103 L289.6957 320.5868 L293.7045 317.7822 L314.6793 321.5662 L316.2972 312.529 L314.5362 312.1951 L314.9514 309.9915 L311.6011 309.3905 L312.045 306.942 L311.143 305.6287 L313.3478 304.0929 L320.8071 305.4952 L322.1673 297.9494 L329.6266 299.3517 L330.9724 291.8281 L338.4317 293.2304 L339.7918 285.7069 L347.2511 287.0869 L348.597 279.5633 L356.0563 280.9434 L357.4021 273.4421 L364.8471 274.8222 L366.2072 267.3431 L373.6808 268.7009 L375.0266 261.1996 L382.4716 262.5574 L383.8318 255.056 L402.2867 242.1457 L409.8176 243.5258 L411.2207 235.9354 L414.1844 233.8653 L421.7153 235.2231 L423.1041 227.6995 L426.082 225.5849 L433.6272 226.9427 L434.9874 219.3746 L444.1075 213.0307 L451.667 214.3885 L452.9985 206.8649 L462.1473 200.4764 L469.6925 201.8343 L471.024 194.3106 L512.0 165.8187 L429.1173 46.1296 L390.4893 72.9523 L383.0014 71.5945 L381.6412 79.1182 L362.4704 92.4739 L354.9538 91.1161 L353.608 98.6398 L334.4229 111.9955 L326.9349 110.6154 L325.5891 118.1613 L290.2827 142.7135 L282.8091 141.3557 L281.4633 148.8348 L273.9897 147.4993 L272.6581 154.9784 L265.1845 153.6206 L263.8387 161.0997 L256.3794 159.7642 L255.0336 167.2433 L247.5886 165.8855 L246.2141 173.3646 L238.7692 172.0291 L237.409 179.5082 L229.9497 178.1504 L228.6039 185.674 L220.5003 191.3279 L195.846 186.9651 L194.2138 196.2249 L197.7645 196.8482 L197.3493 199.1409 L199.411 199.4303 L198.0652 206.9094 L190.5915 205.5516 L189.26 213.0529 L181.7864 211.6951 L180.4406 219.1742 L172.9956 217.8387 L171.6355 225.3178 L164.1762 223.9822 L162.816 231.439 L155.371 230.1035 L154.0252 237.5826 L146.5516 236.247 L145.1915 243.7039 L137.7465 242.3683 L136.4007 249.8474 L112.1329 266.8311 L104.4016 255.5457 L74.8937 276.1577 L82.2098 287.1537 L80.4201 288.3779 L79.9477 287.7324 L78.9741 288.4225 L79.4322 289.0902 L71.9872 294.2543 L71.5291 293.5866 L70.5555 294.2766 L71.0137 294.9221 L63.5687 300.1085 L63.1249 299.4407 L62.1513 300.1307 L62.5951 300.7985 L55.1072 306.0071 L54.649 305.3394 L53.6611 306.0516 L54.1193 306.6972 L48.0345 310.9264 L47.5763 310.2809 L46.5884 310.9486 L47.0609 311.5942 L33.8317 320.8094 L33.3736 320.1416 L32.4 320.8316 L32.8581 321.4772 L26.7447 325.7509 L26.2722 325.1054 L25.2986 325.7732 L25.7568 326.4409 L18.3118 331.605 L17.8393 330.9595 L16.8657 331.6495 L17.3096 332.3173 L9.8646 337.5036 L9.4064 336.8359 L8.4329 337.5036 L8.8767 338.1714 L1.446 343.3355 L0.9879 342.69 L0.0 343.38" stroke-dasharray="" fill="none" fill-opacity="1.0" stroke="#ff0000" stroke-opacity="1.0" stroke-width="1.0px" stroke-linecap="butt" stroke-linejoin="miter" stroke-dashoffset="0.0px"/>
</g>
</svg>