<?xml version="1.0" standalone="no"?>
<!DOCTYPE svg PUBLIC "-//W3C//DTD SVG 1.1//EN" "http://www.w3.org/Graphics/SVG/1.1/DTD/svg11.dtd">
<svg width="512px" height="512px" version="1.1" xmlns="http://www.w3.org/2000/svg" xmlns:inkscape="http://www.inkscape.org/namespaces/inkscape">
<g id="layer" inkscape:groupmode="layer" inkscape:label="layer">
<path d="M0.0 165.2539 L1.4681 166.2134 L5.5424 166.9461 L5.319 167.75 L3.8268 168.0179 L2.6115 167.3839 L0.7891 167.8216 L2.6029 168.6971 L5.3546 168.5901 L9.6253 167.509 L11.1309 166.9373 L11.4971 166.7763 L11.783 166.7135 L12.3847 166.4593 L15.4969 166.2257 L17.2272 167.4899 L18.0551 170.3323 L19.159 173.6537 L20.2055 178.0375 L20.4443 178.6176 L21.0944 180.3739 L21.5976 181.3215 L22.4824 182.9041 L22.8886 183.5936 L23.06 184.2104 L23.6132 185.2007 L25.8628 179.2776 L27.4038 181.2906 L28.0116 181.7568 L28.0703 181.7666 L28.4336 181.533 L29.437 180.3695 L29.7435 180.2193 L30.1279 180.5442 L30.6228 182.4016 L30.9838 183.1146 L31.496 183.6294 L32.3123 184.0637 L33.5026 184.5368 L34.137 184.7311 L36.9344 185.3764 L39.1614 185.7366 L39.9306 186.0477 L39.9573 186.0732 L39.9826 186.0791 L41.2361 186.5487 L41.1417 187.5189 L41.1539 187.541 L41.1109 187.8354 L40.912 192.8377 L41.4601 194.8403 L41.8407 195.967 L43.5992 194.3673 L44.0389 192.9369 L43.8688 192.878 L43.7953 192.4923 L43.2719 191.8745 L43.4898 190.8867 L43.3313 190.0529 L43.4523 189.3262 L43.8762 188.8325 L43.9747 188.6893 L45.2359 182.9728 L46.5901 181.2896 L49.1285 181.2945 L51.8176 182.6637 L54.4908 184.4646 L58.2743 184.1604 L59.5675 182.4428 L63.2836 181.427 L64.9267 181.4123 L66.8842 177.614 L69.5894 175.391 L72.6412 175.4597 L75.5551 182.7176 L77.7372 183.8807 L78.9634 186.0938 L78.9872 185.9535 L79.1649 185.7209 L79.628 185.6635 L81.2146 186.4849 L81.5409 186.6223 L81.7036 186.8918 L81.7915 187.1204 L81.7845 187.25 L82.0717 187.3349 L82.2415 188.4071 L81.9825 190.712 L81.9741 190.8131 L81.5685 191.1698 L81.213 191.266 L80.7916 191.2503 L80.4993 191.3823 L78.0424 190.9622 L77.6493 191.4804 L80.7316 192.6243 L83.0636 193.562 L86.0567 193.6072 L89.8585 192.7582 L94.3971 191.7395 L98.1468 192.164 L97.6526 199.132 L90.9265 200.2802 L91.5683 205.2214 L89.6813 206.8063 L87.9966 206.8063 L88.6897 207.9741 L90.8411 210.2877 L92.3423 211.8338 L93.1635 211.7896 L93.3724 211.7671 L93.4218 211.7754 L93.995 211.7445 L100.3418 213.5443 L100.6082 213.3504 L100.8354 213.4716 L101.0485 213.7165 L101.0462 213.744 L105.287 214.9466 L109.7325 215.7385 L109.9209 215.6242 L110.314 215.71 L110.6782 215.8131 L111.2045 216.001 L113.1476 216.4868 L112.0286 220.1534 L108.7233 225.0423 L108.8956 226.4882 L111.7533 230.5163 L113.913 232.5264 L119.086 236.1865 L120.0166 236.2189 L120.1664 236.1551 L121.2697 236.0074 L123.026 236.1624 L125.4585 236.0079 L126.9944 236.4823 L127.5264 236.5638 L129.1852 236.0825 L129.7651 235.8445 L129.8601 235.8215 L130.3241 235.529 L130.6973 235.6164 L131.1726 235.5001 L131.8057 235.5997 L132.4048 235.8362 L134.6804 236.0408 L135.8876 236.4028 L135.9759 236.7428 L135.9653 236.8488 L136.1742 236.8979 L135.7872 237.7486 L135.7538 237.8634 L135.6068 238.145 L135.0927 239.2577 L134.6008 240.1144 L134.6274 240.3013 L135.7984 242.3196 L135.9913 242.561 L140.3684 246.8376 L136.7213 249.6664 L136.2865 250.1025 L135.9403 250.5048 L135.6052 250.8561 L134.5575 251.5252 L134.0909 251.6984 L132.9459 252.5825 L128.8986 257.4319 L123.7776 263.5812 L123.0309 263.3904 L120.0564 258.5371 L118.1755 261.5188 L115.7514 263.6901 L118.4907 267.2521 L115.4501 270.503 L114.1071 268.557 L108.0015 265.5302 L107.0099 266.6781 L108.3517 270.709 L109.3208 275.2269 L109.892 278.3762 L111.9105 281.133 L115.3416 283.852 L115.6555 283.7529 L115.908 283.8402 L117.6797 284.938 L118.3228 285.2465 L119.0516 285.532 L119.5782 285.791 L133.2058 286.5239 L136.0054 284.5529 L143.2951 279.421 L148.0573 281.3145 L149.2158 278.3566 L155.4071 281.8977 L155.6821 282.0552 L162.4083 282.8695 L165.6302 285.0817 L166.0868 286.1256 L167.3021 288.9029 L165.9382 296.2212 L162.4609 302.6599 L157.0395 310.1118 L159.2794 315.8895 L160.0034 317.3162 L160.9026 318.665 L161.0823 323.7607 L158.5644 328.7662 L154.0387 331.4037 L157.0421 332.7607 L160.0307 333.9686 L162.6136 336.2967 L164.3176 341.0929 L164.231 345.8743 L165.7072 344.4031 L168.13 345.6733 L168.3033 347.5907 L170.3411 348.0909 L170.2127 350.6557 L171.7659 352.1612 L178.167 354.6793 L178.4449 354.4322 L178.8447 353.8569 L179.0732 353.1111 L179.2038 352.9747 L179.5222 353.0218 L179.6037 353.19 L179.3531 353.702 L181.9675 351.3913 L185.7445 351.2294 L185.9435 348.0728 L196.1868 351.4403 L195.4969 352.8379 L194.685 354.4856 L194.2485 355.3781 L195.7096 354.8598 L196.0873 354.7259 L196.6865 354.748 L198.6485 354.518 L199.4822 352.7016 L204.3346 354.2394 L207.7154 355.4463 L206.4478 357.6265 L206.1246 358.2169 L206.6262 358.8598 L206.296 359.7263 L206.1349 360.9193 L206.6259 361.753 L213.5767 362.7827 L217.2447 367.6863 L216.5396 369.4168 L216.4584 370.8099 L215.1042 375.8653 L215.9771 377.2579 L218.339 374.4482 L220.5596 372.8497 L222.1353 372.8497 L226.5641 374.7243 L227.4498 375.9752 L227.9385 377.2319 L227.815 378.2449 L222.8974 381.8033 L220.8115 383.6596 L220.2888 384.6349 L219.8151 386.0906 L220.025 387.9274 L220.352 389.996 L221.0602 391.9087 L232.5583 406.2635 L233.6876 411.8143 L233.0076 415.5501 L230.1688 418.3711 L227.0907 419.7732 L227.0596 421.0439 L227.2849 421.3562 L227.2021 421.9053 L227.014 422.8995 L227.0066 423.2275 L228.2903 423.6687 L227.8381 425.6997 L234.1978 425.3316 L234.2106 425.5693 L234.3907 425.561 L237.757 452.8854 L247.9554 451.6501 L246.1647 456.9098 L243.9729 457.5372 L246.5434 463.6104 L252.7722 463.2476 L253.8296 465.7842 L253.9191 465.8342 L254.2272 466.1538 L254.3135 466.2185 L258.035 465.7181 L258.7073 467.1841 L259.2952 467.6101 L260.2788 468.7178 L261.4 470.2632 L261.7392 471.1171 L261.8195 471.6661 L261.7871 472.4973 L261.4681 473.2046 L262.2809 474.977 L262.8069 475.4485 L266.4331 478.3344 L266.462 479.3735 L268.1914 479.0931 L269.8511 478.6981 L270.2359 478.6917 L270.7724 478.7275 L271.2252 478.9897 L271.3751 478.9863 L271.4271 479.271 L271.4637 479.3294 L271.7226 480.8958 L272.0984 482.7397 L272.7768 486.2774 L272.7601 486.5744 L272.8962 487.3184 L274.8056 490.4355 L275.1329 493.1506 L276.1309 493.3271 L285.0521 497.1155 L288.1296 490.5188 L289.84 490.5041 L290.7867 488.6564 L290.1962 483.8826 L291.6531 483.8826 L293.3604 479.7166 L295.6452 478.1481 L300.1218 481.1869 L302.167 476.8081 L302.4577 475.9273 L302.8114 475.0784 L303.2343 474.5231 L304.5953 471.6097 L305.0003 472.1474 L305.6007 472.016 L306.0028 471.9062 L306.4341 472.0185 L306.8111 472.6071 L307.3846 474.6187 L307.8287 475.6475 L308.0675 476.2896 L309.0462 477.2737 L312.4896 481.1433 L313.3014 482.2275 L313.3582 482.6598 L313.2905 482.9279 L313.1875 483.1818 L315.0526 483.0234 L320.3052 482.3927 L327.7807 482.0118 L329.3169 482.3147 L332.7968 485.4927 L340.7059 485.253 L344.9957 486.2372 L343.5539 489.1558 L343.7997 489.7523 L346.4029 488.6662 L381.9548 471.0901 L389.1566 467.3851 L394.3212 464.9044 L446.7691 438.9961 L452.2987 438.3128 L452.1379 435.7308 L460.3309 435.194 L462.2766 434.2248 L467.1653 430.1962 L468.5253 429.0432 L468.3189 428.8882 L464.2906 428.802 L463.5849 429.0946 L463.1164 432.0713 L461.4583 434.1886 L457.5968 433.5072 L459.6294 424.1565 L460.8733 415.8737 L461.6364 413.4817 L466.717 417.1337 L466.8973 416.7606 L466.7783 416.4086 L467.0725 415.2726 L467.1399 415.1109 L465.8024 415.0305 L459.7286 407.1288 L456.9999 408.8482 L450.0299 401.6215 L452.4235 399.6775 L452.6382 399.1136 L453.5082 398.3409 L455.621 396.698 L455.8697 396.5675 L456.1489 396.6514 L456.8331 396.0959 L456.2811 394.1739 L456.9197 394.0297 L456.9633 393.9778 L457.1299 393.8626 L457.7508 393.8425 L461.9355 392.8991 L462.2978 392.9266 L462.6755 392.8349 L463.2839 392.853 L464.0242 393.0575 L465.2953 393.1541 L467.991 396.0616 L469.5948 397.2201 L469.7502 397.2628 L469.8641 397.0833 L470.408 395.6821 L470.425 395.3403 L472.1377 395.6193 L475.099 394.8338 L477.9708 394.0116 L478.1566 394.1592 L479.3542 393.6836 L479.3125 395.1643 L479.9607 395.6546 L483.7474 396.3802 L486.6869 400.0035 L488.7696 398.719 L487.6144 398.2728 L487.0239 396.6009 L487.2793 396.2518 L487.2983 395.9694 L487.7681 395.1687 L489.1261 393.1854 L490.5041 390.8604 L491.2021 388.8918 L491.8734 388.4819 L492.3798 389.2316 L493.0839 389.4037 L496.2467 390.1063 L497.5307 390.4314 L497.8811 390.577 L498.7947 390.8006 L498.5958 393.4139 L500.7875 393.2325 L502.7393 394.1705 L503.0419 394.1641 L505.9987 392.6486 L506.217 392.2901 L506.8379 391.9965 L507.7695 391.4561 L508.3128 390.6927 L508.8718 389.5729 L509.1529 388.0499 L509.1106 387.6126 L508.7884 386.4932 L508.9061 385.4949 L508.7428 383.9411 L505.011 380.3465 L510.6297 375.9879 L509.6863 372.2319 L510.5591 368.8043 L512.0 364.1803 L508.3449 368.1031 L503.5313 370.6137 L499.854 371.5689 L499.3204 371.7509 L496.1886 372.6913 L494.0684 373.0723 L484.9412 375.4436 L481.134 376.2483 L480.3478 376.4885 L480.2281 376.5562 L477.7144 377.432 L477.0495 377.3996 L476.7758 377.1696 L476.4369 377.2412 L476.9003 377.6149 L476.9112 377.8669 L476.7405 377.9517 L476.4122 377.9502 L476.0698 377.8752 L475.0127 377.5423 L474.2935 377.6943 L472.8504 377.2682 L472.0113 377.1485 L466.1968 379.4865 L461.1682 381.9724 L459.1375 383.5665 L457.98 383.7753 L458.2075 380.2455 L464.565 378.6137 L464.6978 378.2533 L459.2325 372.0666 L461.32 369.9984 L457.0705 366.2251 L450.7365 360.4515 L449.8598 364.9256 L449.3871 370.5314 L442.3836 373.4921 L436.3946 388.045 L424.8355 386.0838 L423.4685 384.7991 L422.1046 383.5096 L423.0994 382.0386 L421.6072 380.4009 L414.3076 376.5915 L410.7307 373.5784 L410.122 367.044 L417.9768 370.0361 L419.305 370.2067 L420.9561 370.0361 L423.1004 369.5237 L424.8082 368.7269 L425.795 367.7398 L426.3265 366.6394 L427.6168 364.2671 L427.1236 361.4774 L427.0475 358.5361 L424.96 352.6535 L423.9909 350.1589 L422.0186 348.649 L420.4276 349.1433 L419.4119 348.6441 L418.8782 347.1121 L419.0502 345.9587 L419.5329 340.7736 L419.4568 339.4834 L418.6029 336.2952 L413.9915 332.9172 L411.7522 332.1585 L407.8811 331.2855 L406.2679 330.109 L404.9204 329.3875 L403.2886 328.211 L402.5261 327.9741 L401.9443 328.0364 L401.4193 328.4111 L399.7192 329.9667 L398.365 331.207 L397.1953 332.8132 L396.5191 333.1374 L395.7862 332.8132 L394.6588 331.8691 L393.8132 330.1923 L393.0241 328.1207 L391.4918 327.0241 L390.6427 326.6553 L389.5295 326.6553 L387.9512 326.4018 L386.3024 325.4577 L385.1568 325.0089 L384.3577 324.8657 L382.9204 325.1614 L380.8348 325.5705 L378.411 325.7534 L378.0025 325.7392 L377.3633 322.8274 L375.3675 311.3154 L374.9594 309.9416 L375.2068 308.8424 L375.2844 308.0381 L375.563 307.0782 L375.9808 306.521 L377.1104 306.0104 L378.008 305.9177 L378.3176 306.1345 L378.1617 306.9031 L378.333 307.682 L379.0294 308.5486 L380.3079 309.1245 L381.1602 308.7674 L386.3275 304.3757 L389.3212 300.4277 L391.0438 297.7388 L391.8217 296.4238 L392.5476 295.2294 L393.9708 293.1988 L397.1401 289.0996 L396.7794 286.0446 L396.7604 284.7163 L398.4683 284.2415 L400.5179 283.4635 L404.1047 279.1179 L405.49 275.8539 L405.1483 274.032 L405.3761 271.8118 L405.7554 269.6293 L404.579 268.1871 L403.7703 268.138 L403.0149 265.8731 L398.4022 265.5631 L397.788 265.4718 L397.373 265.5798 L396.4771 265.41 L395.9415 265.6229 L395.1408 265.5057 L394.3122 265.0725 L392.512 263.7259 L390.1376 262.3528 L393.7888 258.9424 L395.3192 256.5812 L397.0669 253.6878 L395.8179 251.7745 L397.89 248.6705 L401.7367 251.0911 L401.8314 250.938 L401.7666 250.6334 L401.7964 250.4307 L405.4332 244.3709 L406.4338 242.3726 L406.5641 241.9924 L406.5121 241.7918 L406.369 241.6814 L402.7209 239.9323 L399.9339 238.7068 L399.922 238.6739 L399.8241 238.6298 L399.8806 238.5576 L399.8639 238.5115 L400.0305 238.1362 L400.4954 237.5563 L401.599 236.366 L401.8115 236.0952 L402.1074 235.3868 L401.8699 233.856 L397.0499 233.1848 L395.2939 232.4617 L395.1424 231.8238 L395.0227 231.6026 L394.9563 231.0952 L394.9637 231.0526 L394.6415 229.6611 L386.7215 224.3917 L385.0849 222.5076 L384.8763 219.863 L385.2537 219.8036 L385.3862 219.5274 L386.1484 219.1358 L387.2013 219.4974 L388.6213 219.2742 L389.4319 218.521 L390.3102 217.3837 L390.9815 216.4436 L391.6632 215.582 L392.4596 215.0285 L393.267 214.7479 L393.8091 214.452 L394.2275 214.0634 L394.4345 213.4868 L394.2304 212.7283 L395.5089 210.4923 L396.1273 208.769 L398.3059 206.1483 L398.4763 205.2533 L398.2748 204.0237 L395.8096 202.5693 L395.755 202.1537 L395.8413 201.6924 L395.9691 201.3926 L392.6711 198.1702 L391.564 196.9974 L390.152 198.7689 L389.5802 198.7056 L389.4316 198.7757 L389.016 198.8253 L387.8919 198.3302 L383.4643 197.2673 L383.2538 197.071 L382.5677 196.9086 L381.4224 196.23 L381.0694 195.646 L380.5797 194.7696 L380.2097 193.9482 L379.8403 192.7308 L379.7848 192.1409 L380.0098 192.111 L379.8192 191.3735 L379.7781 191.345 L379.2508 190.234 L378.5853 188.1588 L378.6061 187.9183 L380.237 186.3466 L385.3577 179.8714 L384.2345 174.5616 L385.8198 170.3362 L390.7235 171.6937 L395.8256 171.5131 L395.8702 171.4777 L396.4623 170.9148 L396.9831 169.9113 L397.2286 169.1089 L397.4626 168.0498 L397.6683 167.0123 L397.8605 166.7513 L398.1201 166.6325 L398.3377 166.7017 L398.3935 166.7307 L398.7555 166.7586 L398.8563 166.6359 L398.75 166.4961 L398.9346 166.0755 L401.0612 163.5034 L403.5887 160.6181 L403.4276 160.5539 L403.1567 160.0886 L402.7774 159.3642 L402.7858 159.2248 L402.8044 159.2057 L399.3524 154.5727 L398.6047 154.2635 L397.0759 153.4523 L392.9952 152.7946 L391.7899 152.4692 L390.6959 152.2704 L390.3744 152.0869 L388.2587 151.5347 L389.033 147.5927 L388.4833 146.3961 L388.0632 145.3934 L388.0581 145.3055 L388.0411 145.282 L387.7083 144.6317 L387.5341 143.9784 L387.5456 143.4022 L387.8328 141.9926 L388.4082 140.7827 L388.5122 140.6694 L388.586 140.4377 L389.489 139.6131 L390.4793 138.6855 L388.0501 136.0301 L388.5732 135.3626 L390.8323 133.3748 L390.2804 132.7514 L388.3261 130.847 L384.5108 131.4384 L384.2554 131.5297 L379.8959 133.8303 L377.5982 136.7566 L376.5998 140.2075 L374.9266 142.0893 L374.4729 144.4849 L374.3442 144.8957 L374.2142 145.3104 L373.6308 146.2577 L373.0233 147.0233 L372.781 147.2015 L372.5927 147.148 L372.343 147.0768 L372.2018 146.9851 L369.7527 145.6373 L367.2974 144.48 L365.0514 143.7281 L363.3962 143.5121 L359.9102 142.9948 L360.0738 143.5617 L362.4841 144.1624 L362.8686 144.3048 L363.0268 144.5006 L363.1144 144.7495 L362.9539 145.4901 L362.8724 145.6201 L362.6821 145.6574 L361.9681 145.3782 L361.636 145.2182 L361.1655 145.1573 L360.155 146.0717 L359.0145 146.9483 L358.6894 146.9733 L357.2819 146.1124 L356.901 146.0967 L356.5763 146.2597 L356.3157 146.7058 L356.1928 147.094 L356.2217 147.2383 L356.541 147.7453 L357.7527 148.5615 L357.9083 148.7681 L357.9151 148.9188 L357.8608 149.1323 L357.6077 149.4032 L357.212 149.5873 L356.6892 149.6035 L355.8266 149.4273 L351.5291 147.9254 L352.0999 149.9976 L354.4166 152.3868 L355.6498 153.3458 L354.7574 155.2966 L353.097 154.347 L352.4311 155.5288 L352.3563 155.9067 L352.098 156.3057 L351.7986 156.6968 L351.7649 156.7111 L351.6369 156.9383 L351.3609 156.8794 L350.2278 156.9712 L349.2262 156.983 L348.948 156.8239 L348.2074 156.4897 L347.5655 156.1599 L347.1663 160.8331 L347.244 160.9264 L348.293 161.4534 L348.2032 163.5932 L346.0457 162.5106 L344.851 161.9643 L344.206 161.5869 L342.6098 160.786 L340.1164 161.0117 L340.7517 163.3625 L340.3721 164.8289 L340.1215 165.9975 L339.2958 168.9754 L339.1347 169.2301 L338.8587 169.4936 L338.4772 169.5972 L337.9823 169.4445 L337.2706 169.0264 L335.5223 168.1907 L335.0284 167.8717 L333.1922 167.0369 L331.9143 166.3292 L331.5947 165.8365 L331.5389 165.6137 L329.0708 170.086 L320.8331 164.1085 L319.2799 165.625 L311.566 159.6489 L311.1867 159.348 L311.2114 159.2641 L311.0461 159.0845 L310.8334 158.4435 L311.0259 157.4423 L311.4319 156.6335 L311.9033 155.8331 L312.7164 154.8162 L312.8554 154.6969 L316.9168 149.52 L317.4148 148.4138 L317.6144 148.2013 L318.6715 145.8439 L322.7602 143.8449 L317.4829 139.8045 L318.513 137.159 L320.355 130.2187 L322.5333 125.6726 L317.5021 125.3398 L312.5274 135.5575 L310.6668 139.3824 L306.1067 142.5825 L293.2352 152.2709 L296.5437 161.7872 L296.5469 171.357 L295.7158 172.4563 L295.3981 172.2826 L294.0856 175.3757 L292.7012 178.4473 L289.9151 177.1066 L292.4079 170.986 L293.714 171.3619 L286.3518 167.3377 L281.8334 167.3868 L282.0292 169.2713 L278.8573 170.9811 L278.7312 171.1396 L278.4462 171.302 L277.8035 171.5494 L277.2316 171.8576 L276.7878 172.2654 L275.4342 173.6395 L273.0332 177.5767 L271.2544 178.3688 L266.1193 178.5935 L265.9755 180.794 L268.3907 184.3567 L269.2629 185.0751 L269.5418 185.0192 L270.5658 184.9102 L270.5876 184.9205 L271.3642 185.2032 L273.3249 188.4409 L275.087 193.7318 L273.9744 196.8699 L273.8554 197.2266 L272.2576 200.2458 L270.99 201.8995 L267.8002 196.5509 L264.7134 197.7134 L264.9422 198.2242 L264.7718 198.4641 L265.05 198.9161 L264.1168 199.8631 L264.8164 200.5726 L266.7566 202.6036 L266.799 202.6556 L266.8012 202.7214 L266.5788 202.7763 L267.6709 203.1635 L266.4344 204.0654 L265.4563 204.2823 L263.3605 203.4888 L263.2783 203.5026 L262.728 203.4638 L261.5961 203.0055 L261.2823 202.7852 L261.0201 202.5379 L260.3552 202.2675 L258.1762 196.9876 L251.6747 194.0974 L252.8396 191.1924 L252.9756 189.1441 L252.956 188.4022 L251.6875 186.3834 L252.801 183.4096 L249.8744 181.0197 L239.1744 175.0749 L239.1375 175.2403 L237.5044 179.3596 L236.783 181.6444 L236.4528 182.142 L234.3904 182.353 L232.9649 182.4414 L227.1684 183.3021 L225.8013 183.6603 L224.6053 183.8453 L221.8805 184.5235 L220.611 184.6388 L217.2822 184.448 L215.5285 184.4695 L213.9037 184.2453 L216.0329 179.8464 L217.9337 175.734 L215.4957 174.0512 L221.9844 160.575 L221.2897 159.0864 L220.9239 158.5068 L220.6742 157.7672 L219.7927 155.8782 L219.4053 153.9156 L219.1409 153.0989 L218.9734 151.9279 L218.9747 151.734 L218.1451 147.5313 L218.0867 147.4449 L217.8387 147.3821 L217.6792 147.4651 L216.8872 147.3164 L216.5403 147.1755 L216.4729 147.0356 L216.4286 147.0243 L216.4055 146.8952 L215.988 144.1816 L215.4771 141.009 L212.3043 139.9866 L210.3904 139.86 L210.0618 139.9901 L209.9742 140.0868 L208.0635 144.9188 L207.7603 145.1053 L207.7256 145.1657 L207.2773 145.6035 L206.8717 145.7659 L206.693 145.763 L206.5023 145.8803 L205.1799 145.6839 L204.2692 146.9424 L204.231 147.0764 L203.8786 147.9377 L203.5683 148.3436 L203.0061 149.0872 L199.7088 149.2074 L198.2066 148.668 L195.7584 146.6759 L195.5851 146.509 L195.2148 146.3981 L194.9295 146.2224 L194.7427 145.9534 L194.658 145.6015 L194.4895 147.7836 L194.4167 148.0658 L194.366 148.7195 L194.2335 149.3654 L193.1581 151.8361 L192.7862 152.5374 L192.5943 152.5733 L192.5542 152.6587 L191.939 152.4908 L190.0312 152.0098 L189.1869 151.706 L188.2489 151.1161 L186.4845 149.1343 L185.7391 148.2101 L185.6723 148.0864 L185.6794 147.8337 L185.622 147.5068 L186.6854 147.042 L186.7746 146.9806 L188.5509 146.0545 L189.3175 145.735 L189.512 145.6069 L190.5485 144.3936 L189.0582 143.4935 L188.0345 143.8915 L186.8902 144.5104 L185.7741 145.1387 L184.4872 146.479 L182.2983 147.2653 L181.2621 146.8005 L181.2679 146.268 L181.1809 146.2032 L180.9903 145.7311 L181.1841 145.0827 L181.4726 144.5423 L181.9052 143.0841 L183.3994 140.66 L183.8894 139.4595 L184.2552 137.9463 L184.4901 136.6005 L184.4882 136.493 L184.5078 136.4999 L184.5376 136.3295 L184.6647 134.3093 L185.1512 132.3028 L185.4913 130.7292 L185.6823 129.6091 L185.7275 129.2258 L185.8556 126.7667 L185.8707 124.7012 L185.9698 124.5711 L186.0064 123.8658 L186.5869 123.7224 L187.007 123.5438 L186.989 122.9361 L186.0943 122.6401 L183.7421 122.6401 L181.3898 122.6401 L180.6068 124.039 L178.6108 124.201 L178.1795 124.0891 L177.6882 121.0331 L175.7255 121.5784 L175.4868 121.6761 L175.0157 121.8022 L173.3816 122.6951 L172.5457 130.2924 L170.6908 129.831 L165.1956 136.3727 L162.0026 136.7384 L160.0881 135.5771 L159.2762 134.2975 L156.9464 133.4435 L156.0896 132.2115 L155.8563 129.6371 L156.9554 127.5289 L154.8198 128.0468 L154.1587 128.2524 L153.7746 128.8513 L152.6129 129.6999 L151.9666 129.2901 L151.923 129.2802 L151.6768 129.1065 L149.8791 127.9668 L148.3561 127.5191 L147.7839 127.3768 L147.3908 127.6718 L149.7809 129.6106 L151.4872 131.0939 L152.345 133.631 L153.8728 133.3095 L154.0525 133.39 L154.0769 133.3782 L154.3914 133.3605 L154.6741 133.4695 L155.2212 133.739 L155.3884 133.9859 L156.0351 134.2745 L156.0376 135.2399 L156.0601 135.29 L156.1711 136.1303 L156.0854 137.1443 L156.0428 137.2086 L156.0447 137.8953 L155.7225 137.694 L155.6169 137.854 L155.4879 137.7942 L155.3907 138.0813 L155.5553 138.1608 L155.6327 138.3287 L155.34 138.8808 L154.7832 140.2016 L154.538 140.5987 L154.4893 140.743 L154.2813 141.0144 L154.0031 141.4655 L153.5137 142.0961 L152.7991 142.8363 L152.4797 143.0081 L152.1887 143.1892 L151.8456 143.2481 L151.2266 143.4257 L150.6146 144.2164 L150.3631 144.9276 L150.1217 144.8535 L149.9147 145.121 L147.0734 144.0491 L147.0824 144.9693 L146.2336 147.337 L144.3843 147.3188 L143.4716 147.8538 L137.8487 146.3897 L136.9999 145.6393 L137.8397 143.3786 L137.5894 142.235 L136.5272 142.4009 L135.5324 142.2242 L135.2323 142.8544 L135.2532 142.8888 L135.3825 143.33 L134.8447 144.1988 L134.3964 144.6101 L133.9664 145.5127 L127.5065 146.936 L125.7107 148.4894 L124.7548 148.3019 L124.1206 148.8913 L123.8995 150.3421 L122.691 149.1951 L122.3245 148.9541 L121.8647 146.9438 L121.1856 146.4879 L120.0686 146.0594 L115.4257 143.2461 L108.4803 139.4227 L107.9964 139.0634 L107.8636 138.9648 L107.8655 138.7802 L108.7037 137.1993 L108.7393 137.2106 L108.8282 137.0245 L110.735 132.3504 L111.709 129.8138 L114.1247 123.9448 L114.2457 123.7455 L114.5323 123.0426 L115.3249 121.4964 L114.0381 120.8485 L113.5407 118.2224 L111.6698 119.6705 L97.5853 113.6427 L91.1286 109.5193 L91.3597 108.4198 L91.5054 107.8528 L90.9309 106.9992 L88.9118 104.4579 L88.3855 104.1717 L80.8388 101.92 L79.6505 101.6873 L79.1858 101.1066 L78.5337 99.6324 L75.3497 96.8593 L75.0849 96.2236 L84.2786 90.6798 L88.3351 87.8648 L90.8491 87.9709 L90.8549 87.8933 L90.6229 87.4289 L90.567 87.1068 L90.9573 86.5202 L90.9967 85.9929 L96.3016 81.7734 L100.638 82.7548 L102.9787 83.0498 L106.6496 83.4436 L119.403 84.7764 L122.4766 85.2413 L123.3521 85.4107 L129.5475 85.367 L133.1834 76.2504 L133.4786 73.7711 L131.5788 68.1938 L131.0047 65.549 L131.1209 64.1017 L130.558 61.6625 L129.9907 59.5096 L129.267 57.4185 L128.3197 56.6771 L126.2261 53.3418 L118.0494 48.9474 L120.2059 46.6496 L124.1691 41.6904 L123.8289 40.7182 L117.0867 38.8503 L115.4276 34.6098 L115.1334 31.6268 L112.9181 31.8159 L112.5555 30.0482 L111.7725 26.7435 L107.2124 22.0687 L97.3093 14.9287 L97.2643 14.8845 L94.3284 15.8735 L94.1009 15.9501 L94.1233 16.0002 L94.0569 16.1337 L90.9717 17.355 L90.9666 17.244 L91.0083 16.9921 L90.6518 17.1124 L90.6023 17.4174 L90.4714 17.5514 L90.1415 20.5636 L89.7166 22.9717 L89.5212 23.7893 L89.4506 23.8571 L89.3556 24.4719 L80.9235 24.602 L79.0648 24.1075 L78.1621 23.864 L78.0816 22.9378 L77.9878 22.6108 L77.9609 21.5536 L77.9298 21.0767 L76.7232 20.9196 L75.2579 21.1641 L74.4958 21.2658 L73.9775 21.2923 L73.6376 21.281 L73.3151 21.0104 L73.1162 21.0178 L73.1133 19.5564 L73.052 19.0958 L72.8591 18.8105 L72.4352 18.6971 L71.2472 18.4594 L69.8728 18.3032 L68.112 18.2124 L67.7785 18.1437 L67.6502 17.9202 L67.4159 17.4282 L67.2369 17.1409 L66.9513 17.0093 L66.1118 16.9514 L65.5242 16.7751 L64.8528 16.4971 L64.2794 16.1067 L63.8757 15.9344 L63.3825 15.8303 L62.9852 15.8126 L62.1511 15.5842 L61.3816 15.4178 L60.6342 15.4182 L59.7639 15.6618 L58.1334 15.8082 L56.9711 15.5528 L56.6701 15.1973 L56.6085 14.9689 L56.4226 14.9591 L56.5334 15.4654 L56.5465 15.6328 L56.3212 15.7428 L56.1367 15.7586 L55.8973 15.7281 L55.7834 15.5386 L55.6858 15.3063 L55.621 14.9174 L55.5276 14.9129 L55.545 15.2228 L53.4151 15.4256 L52.8429 15.6412 L52.7887 15.9275 L52.9116 18.2021 L52.5881 18.5434 L48.7527 19.3978 L47.8496 19.6561 L47.7178 19.9012 L47.8063 22.0097 L47.7222 22.5823 L46.8847 23.314 L46.1646 23.4564 L43.7568 23.6273 L43.5501 23.9445 L43.5351 24.1787 L42.9966 28.4798 L42.7588 29.3686 L42.2158 29.5596 L40.3873 29.6715 L40.1258 29.9426 L40.0346 30.2264 L39.9894 31.1589 L39.7509 31.8056 L39.387 32.0098 L38.6923 34.8765 L38.4433 35.0616 L38.1503 36.1762 L39.0616 36.6034 L38.9474 37.1843 L39.096 37.3179 L38.8986 38.4089 L38.3743 41.0535 L38.4487 41.381 L39.5815 41.6658 L40.2243 42.8884 L40.516 43.133 L40.5901 43.3976 L40.5827 43.5714 L41.3465 45.0243 L41.909 45.4446 L42.487 45.7117 L43.2514 46.2514 L43.8942 46.7443 L44.7442 47.5633 L45.9194 48.4417 L52.3003 50.6905 L52.8503 46.8136 L55.0042 46.6937 L55.6079 43.5169 L56.328 43.9019 L56.4743 43.9809 L57.6713 46.7649 L57.8574 47.146 L57.8898 47.5245 L57.6135 48.3229 L56.3017 50.9556 L55.9528 51.8193 L58.0477 52.2617 L58.4456 52.8494 L56.6168 56.0506 L55.5369 56.8578 L51.2458 59.0338 L46.85 58.6263 L44.6242 60.5254 L42.7841 65.6948 L36.8416 66.555 L35.2403 67.6867 L34.4435 67.2011 L33.9689 65.5672 L33.0864 64.762 L29.1777 62.2286 L23.2914 61.4966 L21.2953 62.0283 L20.8631 64.0796 L24.0166 65.8191 L24.2541 65.9064 L24.6141 66.1485 L26.0268 66.9242 L31.5284 68.4246 L31.4661 68.7692 L30.298 72.283 L30.0275 73.259 L29.8048 73.3867 L29.6026 73.4358 L29.1219 73.3263 L28.0286 72.7808 L24.316 71.5913 L22.9297 76.1227 L22.3752 77.0074 L25.8008 79.2971 L25.4809 80.7425 L34.2063 88.3666 L37.7812 89.3877 L37.4443 90.7328 L36.3936 91.3322 L35.8394 90.7338 L34.8212 90.3764 L33.8113 90.3317 L33.7936 90.966 L35.9296 91.6557 L35.9655 91.7107 L35.997 91.7195 L36.1494 91.8638 L36.1793 92.0391 L36.8538 93.0744 L36.8342 93.2251 L37.0999 93.392 L37.1972 93.5722 L36.5217 96.8151 L36.1651 96.9599 L35.4601 97.6605 L35.3192 98.2922 L35.2855 99.5701 L36.1167 99.7846 L38.5199 101.1336 L42.9783 102.8846 L43.863 103.2935 L45.6017 103.9837 L46.8045 104.3558 L46.7098 105.2079 L42.8323 106.3188 L46.9899 107.8523 L45.739 109.9341 L41.4148 107.7541 L40.4319 109.7451 L43.6394 111.4617 L42.0762 114.5154 L41.3455 115.9429 L47.8198 119.6209 L49.5508 120.4956 L50.3919 121.9495 L52.3876 123.1496 L53.5124 124.258 L53.8256 125.1258 L53.7607 125.7756 L52.9431 128.0625 L53.8785 128.92 L57.6742 131.2593 L57.3918 134.6656 L52.9793 132.2851 L52.2316 133.0312 L52.3426 133.9078 L48.959 138.121 L48.5489 138.5687 L47.5881 139.6033 L45.5003 152.1085 L40.7143 153.5887 L39.7503 157.9959 L36.925 157.7672 L33.9188 153.8311 L31.9218 152.8672 L29.7756 147.6953 L27.7895 148.4334 L27.164 148.2724 L26.3153 153.3296 L25.7078 156.1796 L23.8225 156.2154 L22.0356 158.6992 L20.1699 158.2241 L16.5543 158.5741 L14.8477 158.4136 L12.6816 157.8384 L12.3574 157.9351 L11.664 158.1756 L11.2205 158.4043 L10.4208 160.4326 L8.9196 166.2757 L5.9355 165.5523 L5.215 165.5572 L4.9403 166.0848 L4.6621 166.0951 L3.6753 165.9508 L1.8045 165.5018 L1.0571 165.3879 L0.1479 165.2245 L0.0 165.2539 M24.8144 161.3528 L25.0018 160.9151 L26.476 157.8772 L26.6191 157.484 L26.8781 156.9751 L27.0389 156.2424 L27.0835 155.5185 L27.8967 151.7124 L27.9682 151.4086 L28.1916 150.7387 L28.3344 150.1399 L28.397 149.604 L28.6829 149.041 L29.1119 149.0945 L29.5227 149.2108 L29.7104 149.5058 L29.9518 150.1222 L30.2553 150.8192 L30.6395 151.6143 L30.988 152.3823 L31.1487 152.8383 L31.1487 153.3472 L31.3185 153.7408 L31.6044 153.6604 L31.7386 153.6334 L32.2032 153.4012 L32.6053 153.5617 L33.1948 153.7315 L33.7041 153.9995 L34.0796 154.4108 L34.5709 154.9737 L34.9909 155.5096 L35.2319 156.3047 L35.4107 156.6713 L35.7146 157.3142 L36.2239 158.0293 L36.7421 158.5029 L37.4298 158.6187 L37.7693 158.842 L39.2202 158.7895 L39.5119 158.8872 L40.9771 158.7262 L41.5846 158.7797 L44.3007 158.8155 L44.6849 158.896 L45.3103 159.0118 L45.9178 159.0835 L46.7576 159.0477 L47.669 158.9318 L48.6696 158.6011 L49.4827 158.4847 L50.26 158.3243 L50.8854 158.4313 L53.1549 157.5287 L53.6285 157.4036 L54.0842 157.2789 L54.5755 157.0551 L55.1564 157.0374 L55.5941 157.1984 L56.1576 157.621 L56.559 157.8418 L56.7198 157.9488 L56.8806 158.2256 L57.0057 158.5564 L57.0863 158.9225 L57.1309 159.3696 L56.9967 160.093 L56.6393 160.6383 L55.3974 160.9239 L54.8525 161.0132 L53.8695 161.1472 L52.9941 161.2723 L52.0201 161.3528 L50.7692 161.3617 L49.8848 161.4333 L48.4106 162.3623 L48.0265 162.7201 L47.7405 163.417 L47.7405 164.0957 L47.678 164.8643 L47.5352 165.1857 L47.2759 165.597 L46.9633 165.8919 L46.4271 166.2222 L45.6052 166.5795 L44.8367 166.9461 L44.0328 167.2945 L43.1034 167.9556 L42.7995 168.0361 L42.1654 168.4915 L41.4594 168.9293 L40.6999 169.3582 L39.9852 169.8053 L39.1634 170.0104 L38.0553 170.2877 L37.2424 170.2788 L36.5634 171.2971 L36.2685 171.4493 L36.0182 171.7795 L35.8574 172.4499 L35.6697 173.0393 L35.4376 173.4412 L35.1068 173.8078 L34.696 174.3619 L34.4903 174.8261 L34.1421 175.5053 L33.8649 176.077 L33.7577 176.4701 L33.4631 176.9618 L33.1056 177.0688 L32.9359 176.8279 L32.7661 176.131 L31.7565 174.1651 L31.4796 173.3701 L31.0775 172.5122 L30.7826 171.6009 L30.4787 170.6003 L30.1482 169.7606 L29.9607 168.9028 L29.1476 167.2052 L28.9598 166.8656 L28.6113 166.3474 L27.7985 164.9983 L27.432 164.4265 L26.9227 163.8101 L26.476 163.2737 L25.9937 162.6661 L25.5021 162.2554 L24.9928 161.7194 L24.8144 161.3528 M49.3666 178.8737 L49.3666 178.6681 L49.5453 178.3732 L49.8938 177.721 L50.3585 176.9976 L50.6621 176.4794 L51.0911 175.7826 L51.5824 174.8978 L52.0471 174.1921 L52.333 173.6468 L52.7082 173.2361 L53.2444 173.084 L53.7177 173.1914 L54.2716 173.2719 L54.7809 173.3342 L55.2276 173.4505 L55.5761 173.7185 L56.1033 174.0846 L57.9171 174.0758 L58.0959 173.9776 L58.5066 173.6203 L58.7123 173.2538 L58.8641 172.3871 L59.0072 171.2613 L59.0964 168.9204 L59.177 168.0361 L59.159 166.7135 L59.0964 165.0876 L58.8997 164.1674 L58.203 161.2635 L58.1761 160.522 L58.2746 159.9502 L58.5066 159.1193 L58.7213 158.4313 L58.8195 158.0916 L58.9087 157.5287 L58.9177 157.1714 L59.159 156.6978 L59.6503 156.6173 L60.5437 156.5727 L61.3835 156.662 L62.0716 156.662 L62.5006 156.7606 L62.7121 156.8063 L63.412 156.957 L63.9569 157.0821 L64.1446 157.1984 L64.4305 157.2431 L64.9844 157.1179 L65.4491 157.0551 L66.003 157.1268 L66.3781 157.4487 L66.5299 157.7878 L66.7086 158.6727 L67.0482 159.2356 L67.5574 159.7804 L67.8613 160.227 L67.9595 160.7899 L67.6646 161.585 L67.1467 162.3717 L66.959 162.6396 L66.8608 163.3989 L67.0036 164.0869 L67.37 164.641 L67.7452 164.9713 L67.888 165.2397 L68.0577 165.6417 L67.9416 165.9366 L67.6646 166.1241 L67.2805 166.1059 L66.7356 166.0882 L66.3335 165.9184 L65.6635 165.6863 L64.9398 165.7575 L64.5733 166.0436 L64.2784 166.9461 L64.4572 167.348 L64.7341 167.8486 L64.9844 168.4115 L65.1988 169.1884 L65.1808 169.8852 L64.9398 170.8682 L64.7251 171.5293 L64.8683 172.3066 L65.2614 172.6016 L65.8152 172.6644 L66.6104 172.5657 L67.2805 172.5034 L67.8344 172.4764 L68.308 172.4229 L68.6476 172.3336 L69.005 172.1103 L69.4428 171.9763 L69.6571 172.0657 L69.5589 172.4499 L69.2461 172.8788 L67.6736 174.6833 L67.4236 174.9066 L66.8608 175.5323 L66.1281 176.5329 L65.6009 177.0423 L64.7787 177.7392 L62.5362 178.3644 L62.1521 178.4272 L61.6249 178.4002 L60.8566 178.5611 L60.2491 178.7574 L59.5342 178.9989 L58.9446 179.4543 L58.3994 179.8743 L57.8009 180.1781 L57.1485 180.3209 L56.4608 180.2316 L55.8084 180.1869 L53.3246 180.1246 L52.8689 180.1423 L52.1899 180.0711 L51.5468 179.9372 L50.8142 179.758 L50.1797 179.5529 L49.6705 179.4008 L49.4738 179.1598 L49.3666 178.8737 M57.7554 45.5757 L57.8109 45.2399 L57.9742 45.0931 L58.3012 45.0494 L58.79 44.9688 L59.2948 44.7607 L59.8486 44.6713 L60.2 44.687 L60.4086 44.7528 L60.5187 44.9576 L60.5001 45.3199 L60.3303 45.9214 L60.1256 46.5121 L59.8743 46.7492 L59.5553 46.8543 L59.1407 46.8627 L58.824 46.7325 L58.2804 46.3982 L57.9514 46.0505 L57.7554 45.5757 M58.5564 51.6789 L59.4706 49.7546 L60.7093 47.6301 L62.0401 45.0233 L62.4563 44.9286 L63.0997 45.0783 L64.1619 45.4461 L65.3669 46.3044 L67.3594 47.4656 L67.5735 47.8068 L65.6227 51.888 L65.3332 52.2518 L64.6613 52.5106 L58.8907 52.1438 L58.6253 51.9047 L58.5564 51.6789 M63.7704 60.5794 L63.8641 60.0826 L63.8725 59.1148 L64.0618 58.2581 L64.3362 57.5152 L64.7954 56.7719 L65.2941 56.277 L65.5665 56.1523 L66.7715 56.2991 L67.9586 56.5779 L68.9791 56.9138 L70.109 57.5506 L71.0845 58.207 L72.0225 59.2361 L72.3499 59.4723 L72.9984 59.6309 L73.0664 60.1464 L72.6717 60.9496 L71.7254 61.0409 L71.1442 61.2584 L69.0885 61.392 L67.1752 61.42 L64.4572 61.2923 L63.9806 61.1809 L63.8285 61.0753 L63.7704 60.5794 M74.3793 172.4406 L74.3793 172.1638 L74.7724 171.9852 L75.2281 172.0922 L75.8801 172.2978 L76.4786 172.5839 L77.7029 172.682 L78.1316 172.6285 L78.8466 172.5034 L79.1681 172.4318 L79.6238 172.1726 L80.9639 171.7884 L81.4552 171.5293 L81.9289 171.2436 L82.6169 171.3241 L82.6705 171.6544 L82.7331 172.3066 L83.019 172.8072 L83.6265 173.1375 L83.5238 173.5217 L84.0957 173.7185 L84.5959 173.9776 L85.1408 174.2279 L85.6501 174.3884 L86.2399 174.6656 L86.901 175.309 L87.0082 175.97 L86.7223 176.4701 L86.1504 177.0065 L85.6235 177.5959 L85.5786 177.9536 L86.6241 179.4189 L86.8384 179.5083 L87.3387 179.5794 L87.8839 179.4278 L88.3932 179.2492 L88.8845 178.9096 L89.2241 178.4625 L89.2956 178.0694 L89.0899 177.6945 L88.822 177.3726 L88.4019 176.9795 L88.6432 176.4971 L88.9917 176.5417 L89.4384 176.8813 L89.9657 177.5512 L90.3588 178.2485 L90.5911 178.9361 L90.8411 179.5171 L91.154 180.2409 L91.3504 180.7498 L91.0288 181.4378 L90.1264 182.6352 L89.7779 182.9748 L89.2776 183.5735 L88.822 184.0917 L88.5896 184.3596 L88.1609 184.6457 L87.5531 184.9048 L86.7313 184.9671 L85.9094 185.4137 L83.604 184.7885 L83.2915 184.7797 L82.7196 184.7169 L82.0226 184.6722 L81.4151 184.4219 L80.8343 184.154 L80.3786 183.8684 L79.8783 183.1981 L78.0469 181.7416 L77.761 181.4378 L76.9568 180.6428 L76.4565 179.4724 L76.3583 179.0165 L76.2957 178.6505 L76.1706 178.0341 L76.0499 177.2209 L75.9158 176.8009 L75.487 176.1712 L75.3173 176.1398 L75.067 174.7815 L75.0403 174.1651 L74.9331 173.665 L74.7098 173.2003 L74.5846 172.9142 L74.3793 172.4406 M75.8307 59.0206 L76.2354 57.5069 L77.6442 54.8845 L78.6332 54.8094 L79.0677 54.5099 L79.7121 54.7495 L79.982 54.2399 L80.369 54.0297 L81.2373 53.6507 L81.8413 53.086 L82.3182 52.2685 L80.5317 51.4255 L79.5003 53.5073 L78.9018 52.6383 L78.8495 52.1163 L81.0673 48.7766 L82.245 49.2946 L84.0581 50.3733 L84.2381 51.5723 L84.163 52.4865 L83.3839 53.5505 L81.4806 56.0536 L79.8321 58.316 L78.663 61.0139 L76.5351 60.4744 L75.9806 59.9799 L75.8307 59.0206 M83.8001 185.9672 L84.8222 186.1964 L86.5811 186.3019 L87.1962 186.2077 L88.0444 185.8804 L88.71 185.5025 L89.1088 185.1973 L89.7689 184.4926 L92.9141 180.7503 L93.064 180.7429 L93.2649 181.2194 L93.3422 181.612 L93.4058 182.1857 L93.5829 182.8364 L94.1057 183.8694 L94.9545 185.5153 L95.628 187.1749 L96.3023 188.0145 L96.0889 188.7354 L95.3761 189.2496 L93.2081 189.6108 L91.9649 189.547 L89.8171 189.2202 L87.4902 188.7113 L85.678 188.3943 L85.6524 188.3894 L85.058 188.1666 L84.656 187.8801 L84.4621 187.5537 L84.1746 186.7107 L83.8001 185.9672 M94.3906 181.8505 L94.4811 180.291 L94.6788 178.9449 L95.0251 178.3918 L95.6332 177.3976 L96.6232 176.5354 L96.9759 176.5202 L97.609 176.7287 L98.1834 176.6527 L99.4699 175.9136 L100.6162 175.5701 L101.7031 175.497 L103.1488 175.6152 L104.8932 176.3106 L105.9047 176.7425 L106.4634 176.9922 L107.07 177.136 L108.0667 177.641 L108.1777 178.3374 L105.5495 178.8306 L104.5422 179.3233 L103.0153 182.0135 L102.9851 182.6872 L103.5137 184.3385 L103.1353 184.7237 L101.2866 185.161 L99.6201 185.2316 L97.2826 184.841 L96.0703 184.0956 L95.1204 183.227 L94.4096 182.3256 L94.3906 181.8505 M95.3806 154.3175 L95.7554 152.3499 L97.7274 152.0599 L100.9544 152.6714 L104.1487 154.3563 L104.8535 154.3995 L107.1117 154.0716 L109.6064 153.6319 L110.0788 153.2402 L110.005 151.5789 L111.7735 149.9735 L112.99 149.7021 L116.0226 147.2987 L117.0139 147.3006 L117.647 147.466 L118.113 147.0778 L118.4945 146.9723 L119.1209 147.5986 L120.2184 149.0695 L120.3978 150.4251 L120.127 152.1227 L118.9919 153.6712 L118.4149 154.5973 L118.5253 155.8704 L118.8963 157.5744 L118.6059 158.4622 L117.9968 159.5846 L117.4663 161.0721 L117.1865 162.0409 L117.105 162.5699 L117.871 163.6845 L117.8989 164.1002 L117.768 164.428 L117.6679 164.8132 L117.4346 165.1617 L117.1329 165.3281 L116.6987 165.2986 L115.6853 165.7285 L114.6164 166.3523 L113.8741 167.162 L113.7236 168.3089 L113.2455 169.6197 L112.8883 169.8205 L111.9631 169.4882 L110.7909 169.104 L109.5615 168.6412 L108.6016 168.409 L107.836 168.3462 L106.5764 168.2947 L105.7844 168.1136 L105.2745 167.9203 L104.9956 167.5738 L104.7424 167.3628 L104.2514 167.0153 L103.8086 166.0878 L102.4999 164.5634 L102.016 163.9549 L101.3761 163.0813 L100.4214 161.8112 L100.0254 159.6994 L99.1535 157.7334 L97.3542 156.9044 L95.4121 155.6559 L95.3806 154.3175 M117.6493 166.3081 L117.785 165.8635 L118.0315 165.3133 L118.1386 164.9821 L118.3386 164.7264 L118.5963 164.3019 L118.7612 164.1571 L119.0596 164.0319 L120.3378 165.307 L121.1134 165.8718 L122.0505 166.3145 L123.57 166.9765 L124.0282 167.3785 L123.6874 167.4727 L122.9327 167.616 L121.6529 167.8697 L120.8647 167.8825 L120.2457 167.883 L118.9043 167.3093 L118.3559 166.949 L117.9763 166.635 L117.6493 166.3081 M119.9251 195.4615 L120.7707 195.1087 L120.9334 195.0646 L121.5534 195.254 L122.1525 195.5572 L122.6974 195.7829 L123.4114 196.0484 L123.7959 196.1156 L124.1065 196.1696 L126.8313 197.7791 L127.9314 198.7811 L128.7064 199.6443 L127.9898 199.8626 L126.8679 200.1271 L125.8141 200.3322 L123.7766 200.7042 L123.1509 201.1669 L122.2719 201.8165 L122.0322 201.2743 L121.2938 199.4308 L120.9296 198.3601 L120.256 196.4788 L119.9733 195.8247 L119.9251 195.4615 M131.1899 225.8189 L135.2664 224.4402 L139.2228 225.0997 L141.2012 224.8597 L145.7571 223.0615 L152.4711 220.4836 L157.6864 217.6663 L158.1059 217.1266 L166.0788 224.2602 L157.5664 225.3994 L152.1714 224.9196 L148.1549 225.6389 L145.2176 229.6552 L142.2201 231.0943 L140.182 232.8326 L135.2063 228.0366 L132.8085 227.1378 L131.2499 226.5981 L131.1899 225.8189 M135.9945 190.6477 L136.2666 189.3154 L137.678 186.9865 L138.7305 185.5163 L139.6246 185.2665 L140.6563 185.4338 L141.558 186.2043 L145.5103 188.5793 L148.205 189.2182 L151.3588 190.5554 L152.7163 190.895 L153.9338 192.4918 L155.1317 194.7274 L156.9083 196.9032 L157.9063 197.9813 L159.1838 198.7198 L160.7607 198.7998 L162.8168 198.6001 L164.2538 198.8793 L165.7909 200.2566 L168.845 204.269 L170.2223 206.5448 L170.8612 208.0217 L171.2203 209.3191 L171.2004 210.7764 L170.9209 212.4133 L171.2803 213.8902 L172.3182 217.5235 L172.3782 218.3218 L171.8394 219.4798 L168.8649 222.4737 L168.1464 223.771 L167.6275 223.5316 L165.5114 221.7353 L160.521 217.7826 L157.2077 214.8484 L154.1934 213.531 L150.8399 212.3137 L149.0833 211.1356 L147.127 209.5787 L145.4503 208.2813 L144.8913 206.5247 L144.3258 202.6821 L144.4529 202.2587 L145.9493 202.1178 L146.1749 201.398 L146.0058 200.6075 L145.2716 199.9298 L144.2697 199.365 L143.4087 198.7016 L141.9406 198.3351 L140.0633 197.234 L139.4423 196.7118 L139.5129 196.0906 L139.4705 195.2579 L138.7931 195.0037 L137.6638 194.8486 L137.1276 194.1003 L136.4871 192.6552 L135.9945 190.6477 M158.369 154.4751 L158.541 153.8719 L159.1427 153.6873 L159.7518 153.9092 L160.1131 154.1865 L161.6971 154.5928 L162.2985 154.9315 L163.0729 155.1779 L164.1155 155.1317 L165.4549 154.6513 L166.0605 154.2336 L166.9289 154.0486 L167.9375 154.0648 L168.9971 154.6228 L169.2205 154.8809 L169.4486 155.9469 L169.0561 156.7253 L168.9647 157.0252 L168.8835 157.2097 L168.5382 157.7795 L167.0861 159.2867 L166.0608 160.039 L165.0564 160.5097 L164.4296 161.0216 L163.8905 161.5933 L163.2449 161.795 L162.4885 161.8254 L162.1166 161.6419 L161.5004 161.1889 L159.765 160.9543 L159.0095 160.465 L158.4428 159.7725 L158.4553 158.4209 L158.369 154.4751 M165.0073 342.5533 L165.1048 342.3135 L165.2855 342.2071 L165.6183 342.392 L165.8837 342.7946 L165.9382 343.0952 L165.8625 343.3189 L165.6491 343.3968 L165.4598 343.3144 L165.0811 342.8505 L165.0073 342.5533 M167.1317 343.1585 L167.3329 343.0619 L167.761 343.0638 L167.9731 343.1752 L167.9962 343.3841 L167.872 343.5351 L167.614 343.5704 L167.3162 343.4993 L167.1426 343.3027 L167.1317 343.1585 M168.1358 253.649 L168.2157 253.4071 L168.3617 252.9882 L168.3428 252.6752 L168.1743 252.37 L168.5526 251.6253 L168.6537 251.4026 L169.0048 251.3315 L169.1948 251.436 L169.3071 251.7789 L169.4518 252.1768 L169.6912 252.4848 L169.955 252.45 L170.5596 252.2857 L171.1391 252.2719 L171.7351 252.3818 L172.2405 252.6516 L172.589 253.0888 L172.9564 253.5028 L173.2504 253.6951 L173.7943 253.7491 L174.4178 253.7295 L175.1296 253.5298 L175.6376 253.4837 L176.4591 253.4376 L176.9893 253.388 L177.4867 253.259 L178.2617 252.8616 L179.0918 252.373 L179.6441 251.984 L179.9493 251.5856 L180.2519 251.3354 L180.5651 251.1676 L181.12 251.1357 L181.9152 250.9812 L183.2578 250.8492 L184.4224 250.863 L186.0789 250.8747 L187.9277 250.9871 L189.4189 251.2726 L190.3226 251.3423 L191.853 251.2441 L193.342 251.173 L194.2704 251.0916 L194.7431 250.9449 L195.0951 250.73 L195.5014 250.7599 L196.2539 251.0391 L197.0391 251.3977 L197.7288 251.5375 L198.3247 251.6474 L199.1623 251.8942 L200.1975 252.1144 L200.9805 252.1159 L201.2157 252.1826 L201.424 252.7439 L201.5995 253.0569 L201.9099 253.205 L202.5664 253.0971 L203.5997 252.7915 L204.7948 252.528 L205.7813 252.3759 L206.589 252.3951 L207.501 252.3583 L208.4733 252.4397 L208.8828 252.3225 L209.1136 252.2077 L209.6629 252.3028 L210.3356 252.4873 L210.6539 252.8655 L211.0162 253.2384 L211.4748 253.493 L212.2135 253.5004 L212.9227 253.2801 L213.5905 252.918 L214.1296 252.2577 L214.6023 251.9423 L215.0532 251.7985 L215.479 251.8054 L215.8795 252.1306 L216.3243 252.4505 L216.7222 252.7552 L217.0082 252.7174 L217.3817 252.4996 L218.0713 252.6394 L218.862 252.8709 L219.6197 253.3596 L220.6742 253.7246 L221.7508 254.0866 L222.6818 254.1945 L223.4536 254.2819 L223.8711 254.3947 L224.3078 254.3157 L224.5337 253.8232 L225.2295 253.7054 L225.8591 254.1671 L225.9281 254.824 L225.8135 254.8769 L225.4807 254.8024 L225.1348 254.8519 L225.0895 255.0266 L224.8604 255.21 L224.6807 255.3322 L224.6101 255.9631 L223.8271 255.5564 L223.6143 255.5677 L222.4103 255.9287 L221.9533 255.9184 L221.1963 255.63 L220.5076 255.5054 L219.8228 255.6535 L218.5979 256.0337 L217.8489 256.1706 L216.8952 256.1946 L214.7641 255.4941 L213.6216 255.4774 L212.1573 255.3979 L210.5339 255.6776 L209.1903 256.0028 L208.4592 256.226 L208.0664 256.2991 L207.5061 256.1211 L207.0363 256.1206 L206.4125 256.4767 L205.0409 257.2685 L204.2923 257.3033 L201.2366 256.1323 L200.0707 254.8902 L199.4424 254.667 L198.6026 254.4855 L197.7159 254.5904 L195.5508 255.3984 L194.9375 255.1281 L192.1543 255.9508 L190.3518 256.695 L189.349 256.723 L186.7483 256.6627 L184.4866 256.7495 L183.6949 256.9977 L183.3958 257.3657 L181.2342 259.0478 L179.6993 261.3182 L178.477 262.3268 L177.1664 263.0671 L176.4842 263.1441 L175.4547 263.802 L174.9746 264.5432 L174.698 265.7225 L174.6325 266.9985 L174.8154 267.4493 L175.4877 267.7063 L175.8744 268.2651 L176.2582 269.9227 L176.5827 271.0063 L176.5625 271.2952 L176.2396 271.5532 L175.5612 271.4826 L175.1415 271.0127 L174.7798 269.9668 L174.3659 268.865 L174.3091 267.9261 L174.0786 267.5361 L173.7305 266.8606 L173.3245 266.0585 L172.8201 264.9474 L172.2524 264.1336 L171.523 262.5746 L171.0952 261.538 L170.4431 260.4523 L169.8725 259.3505 L169.379 258.3223 L168.9105 256.9752 L168.5735 255.7786 L168.2478 254.4967 L168.1358 253.649 M169.5455 344.4948 L169.8902 343.6729 L171.7065 343.8451 L173.682 344.5875 L173.9339 345.33 L173.8014 345.8739 L173.0986 346.1387 L172.356 345.7944 L171.521 346.1519 L169.7179 345.4497 L169.5455 344.4948 M170.9325 267.7672 L173.2481 267.2545 L173.9554 269.1152 L171.454 269.8177 L171.0519 268.4476 L170.9325 267.7672 M172.8547 281.1188 L172.864 280.0028 L173.003 278.7201 L173.0964 277.9455 L173.4599 276.8035 L173.8177 275.9564 L174.0433 275.6321 L174.3014 275.5556 L174.7301 275.5831 L175.043 275.7518 L175.1636 275.9883 L175.2535 276.6701 L175.3607 276.9718 L175.7695 277.3593 L176.4232 277.3986 L177.2389 277.3112 L177.5139 277.1906 L177.7389 277.2028 L178.14 277.3598 L178.5408 277.3485 L178.8213 277.1013 L179.08 276.52 L179.4208 276.3905 L179.8989 276.1168 L180.4159 275.6272 L180.722 275.3378 L181.2458 275.1386 L181.867 274.7619 L182.3728 274.5264 L182.8673 274.3768 L183.771 274.2777 L184.3916 274.4058 L185.0783 274.525 L185.93 274.3695 L186.6633 274.3356 L187.5779 274.4877 L188.4151 274.6275 L188.8355 274.8674 L189.2556 275.3378 L189.7273 275.8642 L190.0813 276.3429 L190.1772 276.73 L190.1602 277.1106 L190.2571 277.3279 L190.4371 277.5153 L190.4397 277.8729 L190.2221 278.596 L189.7597 279.4985 L189.4847 279.7875 L188.4735 280.2579 L188.1244 280.6621 L187.2855 281.7619 L186.7573 282.6733 L186.6469 283.0245 L186.5503 283.6469 L186.3799 283.8799 L185.888 284.0507 L185.2478 284.2827 L184.9015 284.371 L184.8107 284.5299 L183.9452 285.0866 L182.9668 285.637 L182.5628 285.9642 L182.3234 286.3537 L181.8009 286.9697 L181.3834 287.1934 L180.6168 287.4843 L179.6521 287.9699 L178.8858 287.9248 L177.4661 287.6712 L176.6064 287.4279 L175.7252 287.0193 L174.9403 286.4925 L174.2211 285.7886 L173.6977 284.6246 L173.2398 283.2285 L173.0014 282.1803 L172.8547 281.1188 M174.0655 345.1417 L174.191 345.0107 L174.7744 344.9789 L175.3989 345.1441 L175.7185 345.3678 L175.7233 345.5271 L175.62 345.6228 L175.386 345.6233 L175.1932 345.5664 L174.8495 345.383 L174.3947 345.3202 L174.2163 345.3217 L174.0706 345.2623 L174.0655 345.1417 M174.1159 274.1713 L175.4223 272.7585 L175.491 272.5339 L175.4598 272.24 L175.9473 271.9398 L176.4097 272.5898 L176.091 272.7835 L176.9723 274.0276 L175.8786 274.7835 L175.0722 275.1588 L174.1159 274.1713 M176.2217 347.4858 L176.7518 345.5232 L180.7028 346.0009 L181.3789 347.8168 L182.2143 348.3077 L182.0817 350.8666 L181.2994 351.304 L180.3581 352.3515 L179.2975 352.2715 L179.3771 351.5693 L177.6003 349.7396 L176.2217 347.4858 M178.4173 290.4352 L178.4256 290.0948 L181.1338 290.008 L181.9132 291.6443 L183.9366 290.9753 L184.2202 291.1734 L184.492 291.8224 L184.7574 293.1267 L185.0909 294.3769 L185.0312 294.9626 L184.3505 295.8538 L182.0435 296.1599 L179.8007 295.0347 L179.5517 294.0532 L179.1801 293.0212 L178.7443 291.4996 L178.4173 290.4352 M183.4337 222.2112 L183.5364 221.1244 L183.727 219.8581 L183.9449 218.9665 L184.226 218.0456 L184.5617 217.3699 L184.8367 217.081 L185.0674 216.8371 L185.5982 216.5805 L186.3623 216.2684 L186.8433 216.0152 L187.2724 215.5378 L187.438 214.9265 L187.4055 214.3421 L187.2907 213.6419 L187.4283 213.3288 L187.3985 212.9334 L187.2586 212.5521 L187.0667 212.2832 L186.6245 211.9839 L186.155 211.8151 L185.7593 211.6993 L185.3803 211.7072 L185.078 211.7896 L184.7318 211.7092 L184.5341 211.5673 L184.4462 211.2813 L184.3521 210.8819 L184.2976 210.4687 L184.4798 209.4766 L184.7504 207.9678 L184.8335 207.4369 L185.0928 206.3235 L185.432 204.8269 L185.6935 204.0978 L185.9881 203.6169 L186.4088 203.2454 L186.6809 203.1041 L186.9585 203.1728 L187.3568 203.3092 L187.7987 203.7764 L188.29 204.2793 L188.8721 204.7911 L189.193 205.1905 L189.5665 205.4776 L190.0087 205.6081 L190.9342 206.0114 L191.8158 206.4202 L192.6039 206.7995 L193.4222 207.2381 L194.3779 207.7003 L195.1965 207.9702 L195.9821 208.1606 L196.9105 208.4162 L197.7458 208.4737 L198.5452 208.4305 L199.3089 208.4555 L199.9847 208.6606 L200.8416 209.0517 L201.5501 209.5046 L202.1345 210.0374 L202.5546 210.5075 L202.8482 210.6998 L202.9826 210.8716 L202.9024 211.6184 L202.6813 212.9942 L202.3748 214.2341 L202.2064 215.3293 L202.0119 215.9019 L201.8261 216.5157 L201.5193 216.8871 L201.269 217.0255 L200.7414 217.0952 L200.2989 217.3013 L199.6667 217.5957 L198.6716 218.1903 L197.9926 218.6383 L197.4868 218.8738 L196.8273 219.1294 L196.2199 219.4415 L195.5408 219.7207 L194.7514 220.0612 L194.2684 220.2472 L193.7322 220.5921 L192.9848 220.8595 L192.3911 220.938 L191.6576 221.1406 L191.1351 221.5886 L190.5 221.8624 L189.7966 222.1239 L189.1259 222.4654 L188.6805 222.8191 L188.2929 223.27 L187.6879 223.6027 L186.9707 223.9295 L186.4014 224.3627 L185.9865 224.6071 L185.3598 224.7744 L184.8543 224.8416 L184.2992 225.0413 L183.8817 225.0967 L183.692 225.0167 L183.554 224.8352 L183.495 224.3701 L183.4655 223.4693 L183.4337 222.2112 M183.9619 286.463 L186.6739 285.9681 L187.0763 288.3604 L185.8594 288.5718 L184.3127 288.4433 L183.9619 286.463 M187.3658 286.3335 L187.7836 285.9352 L192.2121 283.5547 L194.4507 282.3632 L195.9535 281.6476 L197.3225 280.9942 L197.9685 280.7798 L198.6045 280.6238 L199.0775 280.6459 L199.7039 280.8519 L200.0306 281.1423 L199.9793 281.5941 L199.7351 282.0979 L199.3651 282.6232 L196.9718 284.7604 L195.6089 286.1648 L194.1677 286.6411 L191.2519 287.3082 L188.8548 287.733 L187.97 287.5834 L187.7354 287.3523 L187.385 286.8157 L187.3658 286.3335 M191.3963 155.3374 L191.4541 154.9973 L191.7375 154.5472 L192.6135 154.6944 L193.737 154.1335 L195.4019 153.4793 L196.6156 152.7225 L198.593 151.2835 L199.642 150.376 L200.7575 150.1276 L201.1307 150.0849 L201.7549 150.5752 L202.9903 150.1591 L203.4438 150.1335 L203.7146 150.2808 L203.8196 150.8167 L203.9158 151.8925 L204.1016 152.349 L204.8831 152.8182 L205.1661 153.1745 L205.3859 154.2341 L205.8339 155.0336 L205.8333 155.7212 L205.633 156.6119 L204.9094 157.5326 L202.2439 158.9156 L200.3772 159.6562 L199.5923 159.6798 L198.3664 159.1282 L197.5658 158.9672 L194.7716 158.0911 L192.8818 158.7429 L192.4977 158.5991 L191.7214 156.7003 L191.3963 155.3374 M195.3361 233.622 L195.51 232.3223 L196.5478 232.3307 L203.2554 232.2983 L203.1136 235.6365 L195.528 235.7675 L195.3361 233.622 M197.0064 291.6434 L197.0889 289.5503 L197.4419 287.6167 L206.2581 286.4473 L209.3728 285.9058 L209.8552 285.9706 L210.4578 286.2688 L211.1266 286.696 L212.2167 287.4946 L212.8187 288.1225 L213.4208 288.8298 L212.1381 289.387 L211.117 290.0536 L210.2858 290.8703 L209.637 291.4138 L209.2246 291.5178 L208.5674 291.5114 L207.6656 291.066 L207.2026 290.7492 L206.51 290.5117 L205.7742 290.9875 L204.8795 291.6713 L203.6142 292.4041 L202.0016 292.9918 L200.9921 293.1747 L200.485 292.8637 L200.3031 292.5586 L199.5605 292.2791 L198.781 292.0529 L198.2467 291.9372 L197.2789 292.0657 L197.0064 291.6434 M201.2135 286.6803 L201.2623 286.3448 L201.7654 284.8453 L202.4596 282.5173 L203.3982 282.6453 L204.1187 282.8597 L204.0227 284.0232 L204.7213 284.5171 L205.0502 284.9179 L208.3931 285.5163 L208.3116 285.6365 L206.9766 285.894 L206.8772 285.4222 L206.168 285.4938 L206.2122 285.972 L201.2135 286.6803 M208.1563 232.3596 L218.7077 232.2369 L218.9153 235.3289 L208.2911 235.5884 L208.1563 232.3596 M210.195 167.7603 L210.2374 166.9804 L210.5098 165.7378 L213.0389 167.0423 L213.6541 166.4951 L213.9294 166.4279 L214.3174 165.9356 L214.714 165.647 L215.1418 165.3899 L216.2213 164.8594 L217.2476 164.5944 L217.5235 164.6169 L217.778 164.7465 L217.8659 165.011 L217.8367 165.1259 L217.6529 165.3462 L217.3573 165.6304 L217.037 166.501 L216.6099 167.9728 L216.7043 168.1828 L217.7514 168.7207 L216.0942 171.9474 L215.2968 171.7319 L213.8235 171.6681 L213.2789 171.5224 L211.3865 170.5919 L210.4354 170.0742 L210.195 167.7603 M211.1571 161.9805 L211.1632 161.6792 L211.4161 161.1487 L211.6147 160.8213 L211.8323 160.7232 L212.6233 160.9538 L212.8813 161.1624 L212.9439 161.3739 L212.6031 162.4595 L212.5248 162.8281 L212.3525 162.9204 L211.7132 162.7044 L211.2578 162.2215 L211.1571 161.9805 M216.6812 370.0925 L216.6966 369.7144 L216.7941 369.6188 L217.0739 369.8302 L217.1766 370.0587 L217.418 370.4259 L218.2514 372.457 L218.5357 373.1405 L218.7465 373.5607 L218.5475 373.8211 L218.2292 374.0579 L217.5518 373.193 L217.3425 372.6359 L217.2219 372.1647 L217.0117 371.16 L216.8743 370.5103 L216.6812 370.0925 M220.2246 385.6405 L220.3989 384.7805 L221.1427 383.5724 L221.8237 382.9599 L223.0954 381.9994 L223.7549 381.7621 L224.9897 381.2026 L225.2959 381.5615 L226.1614 381.4242 L227.28 380.9599 L228.4093 380.9599 L228.5043 382.0156 L227.143 383.1026 L226.5095 383.7253 L224.1666 387.0816 L223.5967 386.4903 L223.2588 387.1659 L220.7682 387.6724 L220.8157 386.0102 L220.2246 385.6405 M220.2355 364.5186 L221.8336 364.5578 L222.8349 361.5323 L222.023 359.5071 L222.1609 358.1389 L227.3917 356.0205 L229.3971 356.1068 L230.7728 356.0651 L232.5968 356.9081 L226.6568 359.6885 L227.4193 361.9736 L227.4825 363.789 L228.0736 363.8944 L229.2645 363.9591 L230.6338 364.7653 L233.2617 367.1612 L235.8476 370.2641 L236.2802 372.0583 L236.2593 373.7049 L235.9942 374.8121 L234.805 377.1745 L233.6038 379.0981 L231.9909 380.7093 L229.975 381.8489 L229.6608 381.1727 L229.3313 379.5272 L228.9009 379.0197 L228.1516 379.2624 L228.7055 376.9916 L230.8979 374.8214 L229.4198 373.2709 L229.9391 372.6982 L228.0659 370.7344 L227.8179 372.1608 L223.727 369.9125 L223.0499 368.9465 L220.9094 367.7059 L220.566 367.0734 L220.2355 364.5186 M235.5536 422.5146 L235.76 422.294 L236.1098 422.1832 L236.905 422.2068 L237.6735 422.5132 L239.1009 423.2696 L239.9853 423.9687 L240.5976 424.5536 L241.07 424.7629 L241.2776 425.0703 L241.3938 425.5159 L241.1377 425.4767 L240.821 425.5978 L240.5264 425.637 L240.0803 425.5027 L239.4802 425.1742 L238.5355 424.5045 L237.6649 423.9109 L237.1197 423.5103 L236.0719 423.198 L235.741 422.9627 L235.5536 422.5146 M258.0533 350.2006 L258.155 348.7618 L258.4037 348.7285 L258.5257 347.8516 L258.9227 347.6579 L259.3488 347.5368 L260.1142 347.4162 L260.9514 347.3053 L261.4119 347.553 L261.9674 347.4922 L262.4192 347.2269 L264.4775 346.7301 L266.3664 346.4996 L266.9068 346.274 L267.495 344.9043 L267.7886 344.6974 L268.2649 344.6969 L269.381 345.3727 L270.2535 345.5394 L271.0291 345.8488 L272.2479 346.5589 L273.1943 346.89 L273.5081 347.2122 L273.9035 347.4627 L274.2806 347.4613 L274.5691 347.4441 L274.8957 347.3799 L275.1457 347.4098 L275.5684 347.5638 L276.0459 347.627 L276.5651 347.6633 L276.7615 347.7354 L276.8144 347.8614 L276.9146 348.2199 L276.9014 348.5916 L276.6781 348.9879 L275.3758 349.137 L273.8656 349.4626 L273.0493 349.5141 L272.3506 349.0497 L271.8163 348.9638 L269.5466 349.9 L268.7433 350.2653 L268.2321 350.3791 L267.5813 351.0809 L267.2627 351.3756 L266.8477 351.6198 L266.4164 351.7399 L265.7794 351.6561 L265.0901 351.684 L264.629 351.5771 L264.3768 351.3579 L264.1242 351.3074 L263.3197 351.3089 L262.5919 351.3844 L261.6141 351.5977 L260.7159 351.7375 L260.1366 351.7512 L259.5215 351.6644 L258.8793 351.5394 L258.4759 351.3614 L258.2179 351.1015 L258.0658 350.5395 L258.0533 350.2006 M259.7557 352.2225 L261.6407 351.7478 L263.253 351.6458 L264.0687 353.2307 L260.8709 354.5484 L260.0356 352.4476 L259.7557 352.2225 M267.0849 180.8583 L267.1061 180.7748 L267.6516 180.2959 L268.2267 180.0991 L268.7093 180.0098 L269.2927 179.9882 L270.2943 180.3401 L270.8632 180.3283 L271.3035 180.2066 L272.1568 179.8518 L272.8455 179.1878 L273.5826 178.4826 L273.9433 177.9973 L275.3354 175.0366 L277.4075 173.2199 L278.1908 172.5059 L278.831 172.3518 L279.8387 172.4808 L280.6743 172.7763 L281.0035 173.0722 L281.1582 174.6671 L281.4525 175.6564 L281.4939 176.4932 L280.8043 177.6336 L279.4728 179.1211 L278.6728 180.451 L278.6279 181.3652 L278.4549 182.037 L277.4819 182.8806 L276.5927 183.0278 L275.0418 183.3963 L269.3871 184.236 L269.3986 183.839 L269.3101 183.1672 L268.3226 182.2156 L267.4129 181.6979 L267.1529 181.2263 L267.0849 180.8583 M268.228 214.4564 L268.6904 213.8568 L269.3104 213.3073 L269.7359 212.3254 L270.0764 211.9143 L268.6281 210.4717 L273.031 210.5355 L276.7673 208.6994 L276.7779 208.6591 L277.5269 207.7435 L277.7111 207.5654 L278.5942 206.4231 L279.1378 205.7121 L281.6993 204.5325 L283.6295 202.502 L286.8309 203.0722 L286.6749 202.399 L286.5013 201.8318 L286.3826 201.3646 L286.1278 200.6198 L285.8954 199.7041 L285.7096 198.971 L285.6252 198.3302 L285.5931 197.7453 L285.7247 196.8281 L285.992 196.5224 L286.1108 196.1176 L286.4612 195.0508 L286.7176 195.0042 L287.0382 195.5391 L287.4085 195.597 L288.2987 195.5234 L288.7769 195.253 L289.2194 195.0091 L290.0258 194.7441 L290.5961 194.168 L290.8762 193.9404 L292.2706 192.1777 L292.8909 191.1821 L293.1591 190.7851 L293.549 190.4504 L294.6119 189.577 L295.4485 188.9611 L295.9039 188.5842 L296.8342 187.5788 L297.5889 186.5183 L298.4255 185.1487 L298.628 184.1049 L298.8366 183.071 L298.8007 181.3667 L299.3956 179.6967 L299.852 178.1627 L300.5117 176.9849 L301.2745 175.52 L301.7748 174.063 L302.8338 172.792 L303.8155 172.6408 L304.2172 172.6133 L304.3777 172.4224 L304.2083 172.0401 L304.0388 171.7948 L304.0655 171.3987 L304.2618 171.1941 L304.4493 171.2623 L304.5564 171.5082 L304.6992 171.8355 L304.7795 172.1903 L304.7885 172.4087 L305.1007 172.4637 L305.4043 172.4637 L305.8324 172.4499 L306.1003 172.6133 L306.2967 172.8592 L306.4215 173.5281 L306.1805 174.1013 L305.8949 174.6332 L305.3327 175.6569 L304.9759 176.394 L304.6097 176.9535 L304.3421 177.4992 L303.7744 178.3668 L303.733 180.3504 L303.6438 181.2199 L303.5206 182.9768 L303.6261 183.5102 L303.9246 184.5697 L304.0247 184.8391 L304.0253 184.8533 L303.8902 185.3671 L303.5806 186.1954 L303.1868 186.9055 L303.0578 188.3884 L302.8088 189.8704 L302.7847 190.581 L302.7687 191.0525 L302.7568 191.4029 L302.6153 192.1792 L302.4449 192.7013 L302.3104 193.1606 L302.0906 193.856 L301.4315 194.91 L301.1953 195.2878 L300.5095 196.3855 L304.259 196.3659 L304.672 199.7905 L300.7707 201.4932 L300.6777 201.7989 L301.6814 202.3411 L303.3437 205.771 L307.4122 202.1384 L307.7418 201.5697 L307.7594 201.395 L307.9407 201.3808 L307.3872 201.0408 L307.984 199.7797 L311.5268 193.0325 L314.6659 194.2726 L317.1587 194.8467 L319.0681 195.6887 L320.3572 196.3841 L320.9936 196.8502 L321.8225 197.7011 L322.0115 197.9931 L329.228 205.3343 L329.9212 205.8152 L329.2697 205.825 L321.9787 212.0124 L320.328 216.5299 L319.9192 218.4249 L319.8312 219.073 L319.8277 219.6324 L320.6406 223.9893 L320.9201 224.9407 L322.0009 225.7581 L325.1721 224.7572 L326.4108 225.0089 L327.1363 225.9863 L327.7846 227.1088 L328.849 228.6279 L329.2457 229.721 L328.5779 230.9692 L327.2041 232.1594 L322.6854 231.4142 L321.2198 230.504 L320.2279 229.9825 L319.0957 229.092 L317.8018 228.7535 L317.6934 228.8457 L317.5361 228.9801 L316.0673 229.668 L315.4483 230.0566 L315.1303 230.2008 L315.0677 230.1817 L314.2744 230.6669 L314.2552 230.8019 L312.5884 231.6973 L312.0807 232.0078 L311.7393 232.3223 L311.1084 232.6196 L311.0448 232.6407 L306.5207 235.4064 L304.868 234.9992 L304.0716 234.6469 L303.7673 234.6312 L303.2253 234.6587 L302.6641 234.6081 L301.9032 234.3569 L302.0547 233.7549 L301.7617 233.6254 L301.7617 235.5683 L297.8306 234.7342 L295.9501 232.3007 L295.5297 230.8485 L296.3769 230.3873 L295.3179 227.046 L290.6246 224.3406 L293.4223 215.9426 L289.652 221.2113 L283.8728 219.968 L282.5234 218.7247 L283.5085 217.2085 L281.2317 215.0123 L279.5296 214.3848 L278.6577 214.0148 L276.809 213.5904 L272.7068 212.7582 L272.1369 213.1277 L271.5837 213.4157 L271.4633 213.7832 L271.334 214.4191 L271.4197 215.004 L269.8405 216.4833 L269.4047 216.6963 L269.0504 216.2213 L268.6066 215.3764 L268.228 214.4564 M269.9586 209.4653 L269.9641 209.2023 L270.3703 208.9526 L270.69 209.1547 L271.2188 208.8579 L271.3103 208.2362 L271.5718 208.1346 L272.032 208.0561 L272.7473 208.0281 L273.6368 207.9418 L273.736 208.2578 L273.6644 208.5566 L273.667 208.7789 L273.9006 208.9349 L274.0627 209.087 L274.2793 209.4187 L274.2774 209.6415 L274.1734 209.8289 L273.598 209.8735 L273.2071 210.3083 L272.8574 210.4167 L272.101 210.401 L271.8446 210.3417 L271.6305 210.1655 L271.3456 209.8201 L270.5651 209.9947 L270.3578 209.902 L270.1736 209.6817 L269.9586 209.4653 M273.2662 202.899 L273.2838 202.6964 L273.4372 202.4805 L273.6513 202.2518 L273.9221 202.2204 L274.5174 202.4265 L275.3441 202.6375 L275.7433 202.6694 L275.8148 202.2013 L274.1785 201.8749 L273.6981 201.7032 L275.4025 200.0604 L275.6191 200.3298 L276.4788 201.2101 L276.9929 201.8808 L278.7132 203.9275 L278.7447 204.0099 L278.3955 204.5428 L277.9023 205.0325 L277.2117 205.5193 L276.5888 205.8063 L276.3488 205.8559 L275.9948 206.1341 L275.8626 206.3019 L275.3566 206.7062 L275.1566 206.7435 L273.7293 205.0364 L273.6288 204.8137 L273.6782 204.6159 L273.8271 204.3647 L273.8929 204.1557 L273.9189 203.9476 L273.8756 203.7886 L273.6458 203.3917 L273.3413 203.134 L273.2662 202.899 M274.1756 218.6805 L278.9703 215.6958 L281.0687 218.6584 L276.0253 221.7108 L274.1756 218.6805 M274.5742 196.8595 L274.6496 196.7285 L275.2943 196.1549 L276.1794 195.5616 L276.8465 195.2373 L277.3667 194.9061 L277.7139 195.1176 L278.1683 195.6887 L278.4308 196.1137 L278.6333 196.5313 L278.9173 197.4239 L278.9607 197.8969 L278.8856 198.1992 L278.8098 198.3385 L278.6815 198.4367 L278.5262 198.4298 L278.3718 198.3959 L278.1975 198.2855 L277.937 197.9592 L277.4367 197.1579 L276.7211 196.1044 L276.6075 196.017 L276.7435 196.3414 L278.6199 199.3376 L279.0983 200.0 L279.4494 200.6835 L279.4972 200.9799 L279.4991 201.4333 L279.4629 201.7989 L279.2171 202.2641 L279.0582 202.3328 L278.7132 202.3225 L278.5165 202.2719 L278.2643 202.1664 L277.8927 201.7037 L277.5079 201.1404 L277.3359 201.1144 L277.1841 201.0408 L276.8757 200.7213 L276.5786 200.2488 L276.2952 199.6811 L275.7044 198.6997 L274.6387 197.1765 L274.596 197.0234 L274.5742 196.8595 M275.9371 185.8357 L276.2336 184.5505 L277.1434 184.0166 L284.4995 190.8783 L283.0163 193.0335 L281.3947 192.5394 L279.7337 191.5506 L277.1036 193.2907 L276.1149 193.35 L276.016 188.4066 L275.9371 185.8357 M280.2523 203.3455 L280.2712 203.187 L280.2639 202.9967 L280.3422 202.715 L280.4086 202.6124 L280.528 202.5079 L280.6798 202.4122 L280.8408 202.3553 L280.9968 202.3254 L281.619 202.3323 L281.9297 202.3666 L282.1829 202.4711 L282.4473 202.6581 L282.5298 202.7459 L282.5423 202.8068 L282.4582 202.9113 L282.3263 203.0222 L282.3552 203.1738 L282.5628 203.5026 L282.153 203.7867 L281.2333 204.2258 L281.1021 204.2744 L280.974 204.2778 L280.7147 204.1964 L280.3646 203.7621 L280.2523 203.3455 M281.8819 182.0998 L283.1376 179.7703 L283.1828 179.337 L283.1382 178.729 L283.1527 178.1303 L283.2149 177.5139 L283.9264 175.8689 L284.2187 175.2344 L284.4385 175.018 L286.3556 175.9264 L283.2261 182.9056 L281.8819 182.0998 M281.9242 198.5902 L282.1957 197.4886 L282.7143 196.2658 L282.9643 195.7491 L284.4607 196.6284 L283.9466 198.3007 L284.0627 198.3513 L283.7572 199.1565 L283.445 200.0707 L283.1312 200.1016 L282.7579 199.5132 L282.4521 199.103 L281.9242 198.5902 M281.9682 187.5361 L283.7678 184.6889 L288.7903 187.3383 L287.5844 190.6605 L286.0617 191.0761 L284.6972 190.2061 L281.9682 187.5361 M283.4787 183.0366 L284.8316 180.0628 L286.5953 176.0279 L289.531 177.3578 L287.8835 181.1635 L286.3049 184.7193 L284.9032 183.9479 L283.4787 183.0366 M284.3538 174.6779 L285.7972 171.1082 L286.5491 169.1305 L287.9784 169.502 L288.9277 169.8352 L286.4644 175.6049 L284.3538 174.6779 M286.4801 184.9362 L289.822 177.4796 L292.603 178.8831 L291.0283 182.4654 L289.1944 186.4737 L286.4801 184.9362 M286.6271 175.6947 L289.084 169.8769 L292.1133 170.9404 L289.616 177.0261 L286.6271 175.6947 M287.2741 193.671 L290.6022 185.9756 L292.9072 187.2019 L292.0071 189.3684 L290.4051 192.8117 L290.2126 193.0684 L288.8673 193.7401 L287.2741 193.671 M290.8942 185.4294 L292.0941 182.9429 L293.6347 179.3031 L298.0549 181.2911 L297.4012 183.7457 L297.0119 184.972 L296.6179 185.8563 L296.2649 186.2101 L294.5519 187.1891 L294.197 187.2583 L293.8796 187.2068 L292.5199 186.4162 L290.8942 185.4294 M293.7624 178.9925 L294.5846 176.9741 L296.7899 171.6706 L298.044 171.5224 L298.7496 171.7584 L300.7534 173.3274 L300.8384 174.1754 L300.6385 174.8825 L299.309 177.9031 L297.9374 180.8705 L293.7624 178.9925 M297.4975 340.8737 L300.169 341.0733 L301.3442 340.6746 L302.5081 339.6766 L304.0157 338.8233 L305.1023 337.659 L306.0554 336.8165 L307.1641 336.1069 L308.5164 334.8656 L309.215 334.7435 L309.6361 335.4531 L309.725 335.741 L308.45 337.5041 L306.5878 338.7674 L305.6674 340.1199 L304.8915 341.2067 L304.3706 341.1954 L301.8984 342.2262 L299.7477 342.7363 L298.7946 342.7475 L297.5418 343.0354 L297.4975 340.8737 M297.6903 149.4238 L300.7508 147.3453 L305.6209 154.2733 L302.8569 156.8824 L297.6903 149.4238 M300.9761 147.1019 L304.7631 144.4918 L309.0093 150.6361 L305.7781 154.0525 L300.9761 147.1019 M304.6832 197.5455 L304.7301 196.5838 L304.8228 196.1034 L304.9743 195.4076 L305.1338 194.908 L305.5731 192.903 L305.8551 192.5256 L306.6661 192.5463 L307.7953 193.1253 L308.425 193.2023 L308.6932 193.3564 L308.8107 193.5448 L308.6618 193.9546 L308.5293 194.3403 L308.4384 194.7466 L308.329 195.1818 L308.2899 195.4105 L308.0758 196.1372 L307.9661 196.6368 L307.6628 196.9866 L307.108 198.0161 L306.1558 198.8675 L305.5885 199.1334 L305.1806 199.238 L304.9592 199.0054 L304.8584 198.1992 L304.6832 197.5455 M304.9216 144.2611 L309.7128 140.9967 L311.4627 143.6721 L310.6707 144.9075 L310.128 145.8116 L309.3354 147.4121 L309.7875 147.7129 L308.7135 149.6712 L304.9216 144.2611 M304.9707 181.4221 L307.9552 172.7802 L308.0065 172.7066 L310.2143 173.8696 L307.8236 183.9935 L305.6414 183.8316 L304.9707 181.4221 M308.2026 186.6415 L308.5989 185.8485 L309.4618 184.2281 L309.9743 184.0353 L311.0265 184.235 L311.2871 184.4529 L311.3635 184.6462 L311.3548 184.7743 L311.0606 185.0422 L310.903 185.2915 L310.8494 185.6546 L310.9036 186.0673 L311.6863 187.2038 L312.6548 188.4925 L312.8413 188.8492 L312.8191 188.9214 L312.7877 189.022 L312.4061 188.9312 L308.4298 187.2264 L308.2026 186.6415 M320.2317 431.1595 L326.9701 429.6236 L326.7869 429.0559 L329.8268 428.2936 L329.9273 428.8794 L331.5113 429.6854 L331.8408 429.5662 L332.5552 431.4708 L330.5043 432.2943 L328.4716 435.7739 L326.9701 436.3965 L326.8787 434.7484 L321.3485 434.6018 L320.2317 431.1595 M341.4626 205.2852 L341.8159 204.7484 L342.0732 204.4937 L342.7317 203.9609 L343.1489 203.9138 L343.6431 204.0924 L343.9685 204.7062 L343.9614 204.9913 L343.9659 205.5369 L343.7484 205.9241 L343.7204 206.0536 L343.5789 206.167 L343.2914 206.3628 L342.8216 206.4565 L342.3524 206.3686 L341.7411 206.0463 L341.4709 205.664 L341.4626 205.2852 M343.0167 245.0955 L343.0944 244.4965 L343.2169 243.3862 L343.5122 242.5689 L343.9066 241.6544 L344.1347 241.411 L344.4309 241.3522 L344.8455 241.7275 L346.2444 243.346 L346.4132 243.7846 L346.0114 244.4283 L345.1555 245.0459 L344.197 245.5547 L343.3261 245.6891 L343.0963 245.5208 L343.0167 245.0955 M349.4477 240.0815 L349.4534 239.7861 L349.5471 239.6478 L349.8494 239.5658 L350.4624 239.4638 L350.9761 239.2906 L351.2759 239.1881 L351.6 239.2715 L351.8881 239.4226 L351.9976 239.7449 L352.0547 240.0108 L352.0435 240.2645 L351.9963 240.418 L351.7133 240.4764 L351.4931 240.6737 L351.2621 240.9567 L351.0612 241.1304 L350.7229 241.2805 L350.1761 241.3738 L349.8822 241.5175 L349.7474 241.5146 L349.646 241.4223 L349.5613 241.1181 L349.4554 240.3116 L349.4477 240.0815 M368.4305 449.3766 L368.5406 448.6953 L368.9696 447.6075 L369.5056 446.9276 L370.3367 445.7286 L372.0003 443.8982 L374.7681 441.7462 L376.3839 440.5231 L378.307 439.881 L382.1146 438.8574 L386.1522 437.875 L388.9422 438.2451 L389.1627 438.377 L389.2182 438.675 L389.7942 441.7751 L389.9678 442.9305 L383.1476 445.0791 L377.43 446.8114 L371.4936 449.0036 L368.9918 449.8717 L368.4305 449.3766 M369.8204 310.5723 L369.8335 309.6198 L370.0293 309.1112 L370.5642 308.2372 L370.6685 308.1195 L370.786 307.9763 L370.9426 307.8066 L371.0729 307.6893 L371.2035 307.5589 L371.3338 307.4544 L371.5687 307.3499 L371.7253 307.3239 L371.9339 307.3239 L372.0645 307.4544 L372.2211 307.7153 L372.3777 308.0415 L372.6254 308.4849 L372.756 308.6026 L372.9514 308.6938 L373.1081 308.6806 L373.2255 308.5109 L373.3038 308.3152 L373.4081 308.0807 L373.4996 307.8198 L373.6039 307.5456 L373.6953 307.3239 L373.901 307.087 L374.0345 306.6456 L374.1911 306.2669 L374.3082 305.9668 L374.4129 305.7191 L374.5431 305.3537 L374.6738 305.0015 L374.804 304.7013 L374.8955 304.4796 L374.9478 304.3232 L375.0521 304.1015 L375.1304 303.9578 L375.2479 303.8013 L375.4041 303.6841 L375.5479 303.5664 L375.7433 303.4491 L375.9262 303.3706 L376.1608 303.2534 L376.3829 303.149 L376.5523 303.0577 L376.7221 302.9405 L376.9047 302.836 L377.0613 302.7448 L377.2699 302.6403 L377.4133 302.5618 L377.5959 302.4706 L378.0006 302.3794 L378.118 302.5098 L378.1832 302.7183 L378.1963 302.914 L378.2092 303.1749 L378.2615 303.5011 L378.2743 303.7493 L378.3266 304.023 L378.3398 304.2447 L378.3789 304.4669 L378.4181 304.6493 L378.4701 304.8058 L378.5092 305.0148 L378.5355 305.2757 L378.5484 305.4454 L378.5224 305.6538 L378.3918 305.7451 L378.2092 305.7843 L378.0134 305.7843 L377.7917 305.7583 L377.5568 305.7583 L377.335 305.7583 L377.1264 305.7583 L376.9567 305.8103 L376.8004 305.8628 L376.6438 305.9668 L376.422 306.0972 L376.2719 306.2517 L375.9654 306.3974 L375.7956 306.6064 L375.6782 306.7496 L375.5739 306.88 L375.4696 307.037 L375.4805 307.2356 L375.3262 307.3499 L375.1766 307.5451 L375.1696 307.8326 L375.1304 308.0283 L375.1304 308.2112 L375.1041 308.3937 L375.0649 308.6154 L375.0521 308.7718 L375.0129 308.9675 L374.987 309.1632 L374.9215 309.3069 L374.8432 309.5546 L374.7912 309.7636 L374.6888 309.8808 L374.2039 309.9592 L371.947 310.2982 L369.8204 310.5723 M381.1143 165.7432 L381.1419 165.4404 L381.2542 164.905 L381.4673 164.0383 L382.0469 162.3893 L382.6518 161.0657 L382.827 160.9362 L383.3799 161.3047 L383.4476 161.3465 L384.0018 161.4682 L384.221 161.5261 L384.4777 161.6542 L384.8176 161.8902 L384.7467 162.4286 L384.3276 163.5132 L384.1642 164.4059 L383.8754 165.8429 L383.2638 165.9675 L382.6451 166.0136 L382.1204 166.0156 L381.2411 165.9773 L381.1143 165.7432 M382.9903 301.908 L383.197 300.4964 L385.7447 298.8783 L387.466 298.9474 L387.5694 301.3915 L384.9873 304.4904 L383.7823 303.6983 L382.9903 301.908 M383.249 160.4238 L383.2538 160.3153 L383.4034 160.0538 L383.4894 159.934 L383.8639 159.4776 L384.0939 159.2248 L384.6308 158.3841 L384.8051 157.9734 L385.0185 157.1817 L385.1488 156.9167 L385.3468 156.9285 L385.419 156.9952 L385.514 157.1866 L385.9398 157.4885 L386.8069 157.619 L386.985 157.4355 L387.1817 157.5591 L386.9394 157.9002 L386.9474 158.123 L387.4249 158.3581 L387.9458 158.3851 L388.3764 158.1044 L388.7968 158.2305 L388.99 158.4077 L388.8876 158.762 L387.4885 160.202 L387.2263 160.4272 L386.2142 161.0952 L385.8082 161.5114 L385.6731 161.5928 L385.5319 161.6306 L385.1026 161.4515 L384.9697 161.4053 L384.8343 161.3406 L384.402 161.1011 L383.9726 160.863 L383.8976 160.8218 L383.2901 160.495 L383.249 160.4238 M385.0926 154.8108 L385.4764 153.9028 L385.9491 153.4459 L385.9719 153.4238 L386.3175 153.2064 L386.5582 153.1048 L386.8541 153.0837 L387.1865 153.0601 L387.5755 153.1234 L388.4374 153.3782 L389.4348 153.8954 L389.8067 154.1629 L390.0201 154.293 L390.3163 154.3931 L391.0464 154.8441 L390.8118 155.8807 L390.609 156.5103 L390.3086 157.1979 L389.9229 157.9542 L388.9807 157.8404 L387.939 157.4708 L387.5154 157.2367 L387.1127 156.9466 L386.3611 156.7817 L385.9375 156.5471 L385.4796 156.2645 L385.1327 155.545 L385.0926 154.8108 M389.7441 438.8285 L389.8279 438.6701 L389.8934 438.5461 L390.1498 438.4059 L390.6953 438.5427 L392.3242 438.5236 L392.5588 438.5579 L393.3996 438.6799 L398.3855 438.4981 L399.2096 438.2838 L399.74 438.1461 L401.0205 437.6662 L401.2002 437.7848 L401.2512 437.9079 L401.4203 438.3162 L401.8211 438.2275 L401.8054 437.8025 L401.7929 437.4711 L402.883 437.0931 L404.3579 436.9152 L405.3931 436.5607 L405.6794 436.5455 L406.6341 436.5573 L407.1719 436.5 L408.4032 436.2887 L409.3095 436.1691 L409.8332 436.2735 L410.4612 436.2622 L410.8023 436.0896 L410.9849 435.9975 L411.8343 435.8141 L412.4165 435.7837 L413.0628 435.7504 L413.7928 435.5229 L414.2768 435.3725 L417.9437 434.4979 L422.2185 433.5925 L422.6123 433.4831 L422.6081 433.8528 L422.6065 433.9817 L422.0841 435.3396 L421.6765 436.2558 L420.5335 436.4647 L418.3596 437.1642 L417.9662 437.2073 L417.4139 437.222 L414.5595 436.9892 L413.8249 437.1348 L413.0008 437.5103 L405.9858 439.6971 L405.4688 439.7957 L405.1341 439.9819 L400.2269 441.2163 L398.63 441.9207 L396.6972 442.8688 L395.3982 443.5781 L395.0022 443.7016 L394.5224 443.6266 L394.1088 443.4457 L392.3162 442.8595 L391.3252 442.6389 L390.4668 442.5835 L390.3093 442.3286 L389.7441 438.8285 M425.9452 433.8287 L425.9982 432.8414 L426.1512 432.4149 L426.5559 432.2179 L427.2324 432.3345 L428.2991 432.5081 L430.4148 432.565 L431.6878 432.5297 L432.0129 432.8807 L432.1233 433.2375 L432.4436 434.4312 L432.2106 434.8857 L431.3891 434.9778 L431.0768 434.8156 L429.4383 435.5014 L428.0051 435.9308 L427.2154 436.575 L426.8014 436.4235 L426.3014 435.4832 L425.9452 433.8287 M433.1255 431.1472 L433.4849 430.9119 L438.7128 431.582 L439.2753 431.6218 L439.6957 431.6134 L439.9512 431.658 L440.3192 432.2046 L440.7971 433.7077 L440.73 434.0297 L440.2705 434.2155 L440.0497 434.2597 L439.8193 434.3405 L438.4689 434.4057 L437.1378 434.6121 L436.1773 434.7857 L435.1527 435.1867 L434.79 435.5161 L434.3064 435.5176 L434.0224 434.792 L433.5671 432.8826 L433.1255 431.1472 M437.4949 398.7405 L437.8274 397.1598 L438.5061 396.5288 L438.4131 395.7963 L438.5838 395.0692 L440.9238 396.0071 L441.5011 396.7205 L442.8964 397.9585 L443.6416 396.9304 L446.7579 399.071 L445.2259 401.3901 L444.7118 402.7119 L445.8764 403.6772 L445.4252 405.8913 L442.3089 404.0655 L437.7969 401.2219 L437.4949 398.7405 M446.8147 434.3494 L446.9017 433.4841 L447.0287 433.0865 L447.2043 432.7419 L447.408 432.6855 L448.3252 433.0934 L449.2138 433.6425 L448.7347 433.8033 L448.7571 433.9763 L448.4898 434.6734 L448.252 434.8685 L447.917 434.9161 L447.134 434.8126 L446.9283 434.6146 L446.8147 434.3494 M457.6697 385.4223 L457.7762 385.1958 L459.0772 383.9278 L460.1493 382.9707 L461.4361 382.1798 L464.3435 380.7736 L464.8451 380.472 L465.1558 380.3735 L465.2472 380.4946 L465.2944 380.7025 L465.3512 380.9525 L465.544 381.5453 L465.7087 381.8802 L465.9009 382.272 L467.1338 383.564 L467.0578 383.6513 L465.9583 384.9149 L464.6651 386.5878 L464.2062 387.0129 L463.616 387.3326 L462.5458 387.2669 L461.2442 387.0468 L459.0608 386.7604 L458.3375 386.374 L457.8423 386.0225 L457.687 385.7504 L457.6697 385.4223 M465.2665 387.7685 L465.2803 386.9811 L465.4584 386.4824 L465.8027 386.1029 L466.4182 385.2463 L467.4323 384.0254 L468.2413 383.7616 L469.0191 383.7871 L469.2595 384.0509 L469.3965 384.8393 L468.9537 385.5233 L468.7448 386.476 L468.7258 387.5312 L468.542 388.0578 L467.9284 388.5148 L466.8938 388.8943 L466.2119 389.0036 L465.6278 389.336 L465.4115 388.8825 L465.2665 387.7685 M465.6509 380.3617 L465.7497 380.2685 L465.9022 380.2484 L466.9807 380.3911 L468.1135 380.5093 L468.2984 380.6005 L468.4328 380.6451 L468.6655 380.6279 L468.9062 380.6716 L469.1626 380.7667 L469.3545 380.8442 L469.4751 380.8859 L469.9093 380.8819 L470.0743 380.9226 L470.2578 381.0055 L470.3814 381.2026 L470.554 382.5584 L470.5704 382.6496 L470.5216 382.7849 L470.3381 383.009 L470.1247 383.0727 L469.2909 383.1379 L468.3468 383.2443 L467.6187 383.3046 L467.2163 383.313 L467.0196 383.1301 L466.604 382.5976 L466.192 381.9891 L465.7956 380.9251 L465.665 380.6044 L465.6509 380.3617 M468.6578 380.2146 L469.5181 378.2861 L470.4809 377.9321 L471.9265 377.4702 L472.863 377.5413 L475.2656 378.1964 L476.4924 378.4239 L476.7401 378.5465 L477.2048 380.6225 L477.1836 381.0526 L476.986 381.312 L476.6063 381.362 L475.3814 381.4453 L474.0227 381.3904 L470.8785 380.6775 L468.6578 380.2146 M470.6997 381.6719 L470.7138 381.5414 L470.7771 381.3816 L470.9016 381.2811 L471.0989 381.2992 L471.527 381.283 L471.8521 381.2938 L472.6627 381.4228 L473.4858 381.5811 L473.6919 381.6297 L473.8282 381.7233 L474.0461 381.7302 L474.2948 381.6973 L474.4877 381.7474 L474.6427 381.8802 L474.6398 382.1529 L474.5329 382.8398 L474.4543 383.0193 L474.4011 383.1198 L474.2573 383.1742 L474.0567 383.0982 L473.7718 382.9536 L473.3809 382.8133 L472.6139 382.8477 L471.9917 382.6672 L471.8043 382.6917 L471.6336 382.7766 L471.3589 382.9148 L471.1217 382.8305 L470.9237 382.7055 L470.7905 382.5005 L470.6997 381.6719 M481.0743 377.1505 L481.09 377.0951 L481.1625 376.8411 L481.453 376.6562 L483.2857 376.2238 L484.7795 375.984 L485.2223 375.8864 L487.6343 375.3544 L491.8776 374.1364 L494.0495 373.6176 L495.6672 373.2886 L495.8671 373.3401 L496.0487 373.5494 L496.1318 373.8878 L495.9717 375.6187 L496.0799 375.9247 L496.1553 376.1384 L496.4085 376.6469 L496.627 377.0868 L499.6506 381.3129 L499.993 382.1617 L500.0966 383.5469 L500.0475 385.5346 L499.683 385.6994 L498.5425 385.9583 L497.772 385.6597 L495.0417 383.7327 L494.1105 383.2453 L493.5819 383.0428 L493.2302 383.0114 L492.1773 383.2277 L491.2682 383.6577 L490.3129 384.3275 L489.6675 384.4123 L489.4926 384.5515 L489.4515 384.829 L489.3777 385.1497 L489.1062 385.5444 L488.7266 385.8298 L488.2713 385.9073 L487.3252 385.5704 L487.0669 385.4787 L486.1507 384.8477 L486.0875 384.7923 L484.4887 383.3944 L482.9763 382.17 L482.9169 381.8842 L483.4339 381.1585 L483.9268 380.2484 L484.6777 379.3447 L485.1068 378.7593 L483.8463 378.8181 L482.8374 378.6975 L482.1612 378.3415 L481.4234 377.8875 L481.1086 377.4481 L481.0743 377.1505 M487.2851 392.4372 L487.3509 391.1561 L487.4173 390.5952 L488.0286 389.4346 L489.7574 387.6807 L490.0632 387.5954 L490.1027 388.0392 L490.0102 388.9026 L490.1062 389.7788 L490.2551 390.3348 L490.2111 391.0703 L490.0231 391.2728 L489.37 391.1247 L487.8573 392.0347 L487.2851 392.4372" stroke-dasharray="" fill="none" fill-opacity="1.0" stroke="#ff0000" stroke-opacity="1.0" stroke-width="1.0px" stroke-linecap="butt" stroke-linejoin="miter" stroke-dashoffset="0.0px"/>
</g>
</svg>