<?xml version="1.0" standalone="no"?>
<!DOCTYPE svg PUBLIC "-//W3C//DTD SVG 1.1//EN" "http://www.w3.org/Graphics/SVG/1.1/DTD/svg11.dtd">
<svg width="512px" height="512px" version="1.1" xmlns="http://www.w3.org/2000/svg" xmlns:inkscape="http://www.inkscape.org/namespaces/inkscape">
<g id="layer" inkscape:groupmode="layer" inkscape:label="layer">
<path d="M0.0 387.8273 L7.7639 388.0381 L8.9709 392.8405 L20.0104 395.4446 L27.6926 399.3322 L40.7891 411.0504 L47.8607 410.8238 L53.3584 408.1486 L60.9163 414.2211 L73.6958 402.018 L86.0098 395.6093 L103.7973 394.5932 L107.4174 395.463 L110.5436 403.5019 L114.6116 402.951 L121.5556 407.0614 L134.9457 408.7429 L148.2089 413.0865 L150.6396 414.1302 L155.4349 417.5235 L157.8638 415.6246 L159.5137 409.6153 L163.0328 405.0372 L163.2197 419.922 L169.282 423.2573 L179.56 420.6981 L188.983 426.2711 L193.5481 427.2397 L202.7034 418.9257 L210.9928 416.2044 L215.6639 418.8506 L210.1795 425.6794 L213.8513 431.4658 L221.3934 433.7667 L225.5289 440.0419 L218.5516 456.2488 L222.059 457.5665 L230.6979 460.3548 L222.8289 466.3847 L223.4211 472.7373 L226.7417 478.1649 L237.8905 474.5795 L252.5534 470.0769 L258.2288 475.2159 L247.427 482.753 L239.0708 494.4986 L243.8069 503.3426 L249.6841 499.5281 L258.3939 497.1893 L254.8306 488.5429 L267.6459 477.7775 L274.5224 471.305 L284.6719 466.4111 L287.2093 452.9097 L289.5648 444.6633 L278.8723 431.7953 L286.5745 413.2182 L305.2228 388.759 L318.4227 390.4248 L338.5432 396.3209 L354.6909 402.4081 L367.442 404.0092 L373.9139 400.8056 L380.2573 403.3055 L388.9713 406.0598 L413.1899 394.9846 L439.336 382.992 L424.7265 383.8895 L423.5729 380.7503 L418.2546 371.3945 L418.3831 364.7311 L420.3691 358.7069 L426.7768 353.4535 L438.7588 348.5837 L449.3963 351.4028 L459.52 354.4789 L466.1203 344.0974 L465.4155 342.7517 L453.4326 327.5026 L443.4366 316.4814 L433.3771 307.7019 L430.8781 308.8552 L421.7145 298.2185 L409.604 285.0839 L400.3128 274.8949 L398.4552 275.152 L383.0766 257.2095 L368.7874 242.1521 L363.5975 241.319 L354.0494 239.3325 L340.1289 244.0859 L327.2818 250.6227 L321.3087 262.117 L318.1533 272.3734 L313.5323 276.88 L307.6726 278.1204 L303.6155 272.148 L304.0659 263.132 L301.023 252.7634 L311.0533 247.579 L311.0533 237.549 L309.7012 223.5746 L318.9423 221.7713 L318.6037 214.1084 L309.0247 208.0233 L299.6709 210.2762 L292.2331 232.5912 L290.881 240.7047 L290.5424 252.3126 L286.4852 264.5964 L276.7937 258.6239 L264.9601 251.6364 L250.5349 254.2292 L240.1668 253.665 L235.9971 251.8618 L233.9685 259.1868 L231.9399 248.7061 L237.35 247.9178 L239.9416 244.9875 L237.0114 241.8318 L229.9114 238.4506 L233.4055 229.9983 L240.3929 232.027 L246.8164 225.7167 L249.0702 226.2796 L255.6063 226.6184 L257.6349 218.6168 L256.7332 207.4591 L250.6483 201.0352 L252.7895 196.528 L253.8038 192.9212 L263.0449 190.5549 L260.3399 183.9053 L258.5365 176.3553 L261.5794 174.3264 L264.8475 179.2847 L276.5684 174.5519 L289.3029 165.0849 L294.8247 160.0145 L296.1777 156.8583 L297.9802 152.4629 L302.4886 149.7589 L305.9819 152.3508 L307.56 160.1265 L313.1945 165.0849 L320.5197 171.6212 L323.3373 170.8329 L319.0549 158.0989 L324.9154 152.1254 L321.3696 145.0311 L323.3348 141.7141 L327.5596 139.478 L327.0775 138.6211 L325.3992 138.9349 L325.6862 137.6507 L327.9049 136.5182 L328.4871 136.832 L329.4038 136.6975 L329.3905 135.5914 L328.1485 133.4305 L329.6599 132.2545 L331.6743 133.2617 L332.626 132.2545 L331.8419 131.0231 L334.6404 128.3928 L336.9859 131.2525 L336.0959 131.8075 L334.8648 131.0231 L333.9689 131.8075 L336.2077 133.9341 L338.2638 132.3573 L339.248 133.6546 L340.4617 133.3184 L342.3084 131.4713 L344.8833 133.5426 L346.8994 132.8491 L349.8088 131.8286 L350.3001 130.5221 L349.7529 129.6242 L348.1297 130.2966 L347.4015 127.4409 L348.6335 127.0493 L348.2415 124.4757 L349.9206 124.6986 L350.2559 126.042 L352.5514 125.1468 L352.719 121.4249 L356.133 122.3478 L357.2808 121.173 L358.4836 121.9008 L359.1834 121.4802 L359.7431 120.0537 L356.3849 117.815 L356.4133 117.0872 L354.3697 116.4438 L349.2766 113.3375 L347.7093 111.4626 L348.9129 109.9794 L350.6479 110.6228 L352.2436 113.141 L355.2939 115.8834 L360.9742 118.374 L363.5492 115.9401 L364.6402 115.8281 L365.4518 117.8993 L368.0826 117.927 L368.1385 118.7379 L366.0365 119.4775 L366.9348 120.7248 L367.9525 121.4842 L369.2945 121.2601 L370.7409 123.5792 L372.3824 122.1553 L372.4425 120.7591 L375.2743 120.9489 L376.5747 125.6597 L375.0224 127.1218 L374.6195 126.1818 L373.2591 127.106 L373.9873 128.6723 L375.7573 129.8497 L377.7516 130.2544 L377.9752 129.6717 L377.036 128.8898 L376.9909 127.6584 L379.7519 127.0493 L380.8712 128.6169 L382.4052 126.6525 L381.9573 126.4956 L379.4741 126.2266 L379.3623 125.3538 L380.1456 124.5707 L379.9203 123.3564 L379.8086 119.8296 L382.5503 119.6621 L384.2294 116.9197 L385.2929 113.2254 L387.5875 112.106 L387.8119 114.1773 L389.2107 113.7291 L389.4351 109.9227 L391.8799 107.3596 L385.6607 104.364 L384.9868 102.7818 L385.8809 102.8148 L386.0769 100.8001 L385.1252 99.2891 L383.2785 101.3038 L382.3268 103.71 L380.088 102.3678 L380.5226 100.0776 L383.0191 97.6133 L382.2709 97.2745 L379.8645 98.7288 L379.3665 95.9613 L377.0093 94.4199 L372.048 94.8379 L371.6367 97.1624 L370.1103 99.421 L368.0542 99.9049 L366.4661 98.5046 L368.8358 95.7793 L370.293 95.0357 L369.5381 93.8873 L368.4187 94.3355 L368.558 92.9643 L367.271 92.516 L366.7672 90.0544 L365.9889 90.2943 L364.4166 90.7809 L364.0246 89.4386 L362.122 89.7181 L362.122 87.5914 L361.0577 87.6375 L359.5471 87.7035 L358.9315 84.7091 L358.3718 83.6174 L355.7969 83.4499 L353.6707 82.1063 L355.0979 81.6027 L356.0772 80.0349 L355.9095 79.0276 L356.581 78.5806 L358.1483 80.9302 L359.603 81.2111 L360.161 82.7577 L360.8341 84.6247 L362.0661 84.7368 L363.6326 86.6961 L364.6961 86.6394 L364.752 84.7368 L366.6245 83.4987 L370.4815 83.024 L370.0961 85.5147 L370.7409 86.0237 L372.1405 85.6888 L372.1964 83.9536 L373.5394 84.0657 L373.6511 86.3045 L376.7157 85.7639 L378.1854 87.8709 L381.2074 88.4867 L380.4617 90.5514 L381.5994 92.1244 L383.1667 89.9977 L384.2861 94.1958 L385.2929 94.7548 L385.7408 93.468 L386.972 93.8042 L386.7935 96.6073 L384.6773 96.8816 L386.0769 98.8408 L387.0278 97.4973 L388.8754 97.7781 L391.5621 100.6327 L394.5282 102.4786 L394.8076 100.3518 L395.927 100.5206 L397.169 103.503 L399.3894 103.1286 L402.8085 100.7579 L402.7034 99.4236 L405.5677 99.0782 L407.3661 98.2594 L409.4197 100.1145 L410.6341 101.5846 L412.1806 101.8945 L414.416 102.1687 L415.1959 101.2682 L417.1477 102.6974 L416.1401 104.3271 L415.3819 104.4985 L414.7305 105.453 L416.7482 107.9647 L414.6412 109.7869 L413.1865 111.4811 L413.2616 112.2906 L411.6267 112.996 L411.3265 114.3 L411.6568 114.6309 L412.1214 114.6006 L412.7661 114.9447 L412.7661 115.2005 L412.0204 115.5696 L412.2148 116.6389 L413.0222 118.8776 L411.9412 118.875 L411.2764 119.7241 L411.1163 122.8185 L411.8361 123.2984 L412.8971 123.3762 L413.6962 123.1019 L413.9364 125.4553 L415.1859 126.4165 L415.5254 127.6624 L416.1852 127.5121 L416.0659 126.7171 L417.7466 126.5193 L417.4906 127.317 L417.3262 129.818 L416.6957 130.3164 L416.4196 131.2037 L416.1702 132.2808 L415.4211 131.3368 L416.4704 128.8477 L415.6305 128.4719 L415.241 129.2972 L414.5061 130.0316 L413.9214 129.3724 L413.546 129.6875 L413.2616 130.5115 L412.4984 129.0968 L412.1556 128.787 L411.8703 129.1074 L411.2364 130.6618 L411.8219 131.5161 L412.3866 133.147 L410.8318 133.8115 L410.6066 134.3666 L408.704 135.6678 L408.9275 136.4958 L409.5164 137.2275 L411.7744 136.0739 L412.5418 136.4655 L412.0013 137.3646 L412.1589 138.2361 L413.3542 138.8307 L411.3898 141.3594 L411.0053 144.0015 L412.9271 144.956 L411.3565 146.4537 L411.7769 146.9032 L413.0064 146.6027 L413.1223 147.7167 L414.3109 149.2421 L415.4211 149.9026 L415.7206 149.0483 L417.1603 149.4372 L417.4455 150.7569 L416.3804 150.952 L416.8458 152.4075 L417.6849 152.1966 L417.8651 151.3277 L419.53 152.5275 L416.9801 153.5017 L414.3259 151.8076 L411.5817 153.1115 L411.2514 152.3614 L410.2471 152.5565 L410.2171 151.5967 L409.1069 151.4925 L408.372 151.9566 L408.327 151.0272 L408.7774 150.7569 L409.1519 149.3779 L411.1163 149.5572 L411.3865 148.7477 L410.9644 148.3284 L408.3203 148.9467 L406.6629 149.7523 L407.3377 150.7279 L406.0448 153.1827 L404.6977 152.3469 L404.3382 153.3818 L403.5583 153.3963 L403.7385 154.1609 L402.4039 155.4806 L401.7291 154.8518 L401.3087 155.3158 L400.4354 154.8597 L397.4092 155.8208 L396.3516 157.1655 L397.1532 159.1074 L398.4177 159.6163 L396.4483 162.4508 L397.0247 163.3631 L397.9856 163.0269 L398.3218 161.9696 L399.6188 162.3546 L399.9074 163.0757 L401.3963 163.7955 L400.9159 165.8139 L399.0725 165.8429 L396.2949 166.4085 L396.5893 167.0518 L397.2274 167.7453 L397.5736 171.0003 L398.1332 171.5263 L397.652 172.813 L396.7745 172.109 L395.7752 172.78 L395.4733 175.5011 L397.8413 176.4318 L399.955 175.6632 L398.8156 172.4663 L399.1384 172.2514 L401.2987 172.2975 L401.4105 171.7056 L403.696 171.7913 L401.4931 174.0773 L404.7119 175.327 L406.7296 173.5012 L408.1743 171.1638 L407.7756 170.0603 L408.6931 170.0946 L408.94 170.8579 L409.1369 172.7616 L409.8901 174.5571 L412.0271 175.6883 L411.7243 176.9183 L411.3782 176.9512 L411.0195 177.6223 L411.0754 178.3829 L409.8584 178.5095 L409.9794 179.2899 L411.3331 178.9762 L411.6459 179.58 L409.3713 180.7467 L408.9617 183.1262 L409.6549 184.6818 L409.0076 184.6831 L408.0267 186.3772 L408.3462 187.4213 L409.036 187.8669 L408.7957 188.443 L406.9699 188.7317 L405.5761 190.2648 L405.6244 192.6707 L407.7715 193.5118 L410.5749 194.4227 L409.775 196.9064 L411.0011 197.4956 L408.6114 203.503 L406.1591 202.9058 L406.22 203.88 L405.5694 204.2544 L405.3625 205.2893 L404.8562 205.2207 L404.5426 204.0712 L405.0556 203.8023 L405.2316 203.1669 L404.8871 202.7384 L404.3574 202.5816 L401.9735 203.3844 L401.4447 204.9399 L401.5673 205.8574 L400.2252 206.5614 L399.0424 208.8143 L398.3309 209.596 L398.1599 210.354 L398.788 210.4964 L398.8948 210.0165 L399.4503 209.7648 L399.7039 210.4265 L399.3277 211.2926 L398.7839 211.4073 L398.4469 211.1397 L397.7112 211.8634 L397.7079 212.5911 L398.5653 213.1171 L397.6495 213.4743 L395.5392 215.1089 L395.3398 215.0246 L394.3647 215.5163 L394.0986 215.8669 L394.2288 216.4733 L394.4281 216.7027 L394.3822 217.5147 L392.9109 217.4462 L392.5322 217.553 L392.1293 219.8322 L392.8033 220.0049 L392.865 219.3774 L393.3396 219.4156 L393.4781 219.852 L394.2363 220.051 L394.2521 220.5111 L393.7917 220.6337 L393.8609 221.6144 L394.459 221.7753 L395.0871 221.4075 L395.9679 223.3848 L396.4433 223.568 L396.6043 223.1923 L397.8071 223.7526 L397.8455 223.2003 L399.14 224.1507 L399.1634 224.5791 L397.9055 225.9514 L399.1859 227.876 L399.5721 228.6261 L399.3035 229.9957 L400.0083 230.0853 L400.126 229.5712 L401.7041 229.1402 L403.3815 230.1011 L403.213 228.7539 L402.7768 228.5971 L402.655 225.9633 L403.9971 225.1578 L406.0774 230.0576 L406.7588 230.2646 L407.9041 230.1486 L408.0901 229.4592 L407.8223 228.5971 L408.392 228.1726 L407.6764 226.8188 L407.3519 226.1359 L406.3676 226.3047 L406.1891 225.8565 L406.4686 225.051 L407.1842 225.2857 L407.5087 224.2351 L407.2176 223.3954 L406.8489 223.9108 L405.8196 223.4296 L405.4184 222.3605 L404.0071 220.5994 L404.6677 220.3199 L404.6343 218.1093 L401.5898 215.4438 L401.0076 214.3246 L400.1935 213.535 L402.2046 212.4013 L402.9094 212.4237 L402.8201 212.077 L402.127 211.6064 L403.0328 209.5037 L403.4916 209.6936 L403.3256 210.615 L405.2049 213.3899 L404.9371 215.3581 L406.1666 215.2909 L406.446 213.9766 L407.7439 214.4472 L408.5046 213.7538 L408.5605 212.6122 L409.4564 212.6293 L411.962 215.3133 L415.3177 214.1506 L416.5255 215.0008 L415.2176 216.7673 L415.2943 217.8245 L416.0551 218.1831 L415.462 219.3352 L415.452 221.3099 L413.6278 221.7067 L413.2808 222.2327 L412.1956 222.2327 L411.9495 221.7291 L411.3798 221.8464 L411.6484 223.278 L414.8055 223.5601 L415.5179 222.9814 L415.4512 222.3223 L416.1418 222.379 L416.6923 223.0724 L417.6691 222.9973 L418.8602 223.8225 L419.3707 223.5193 L419.5683 222.876 L419.1863 222.3368 L417.5998 221.9058 L418.3605 217.0586 L419.1087 216.4272 L418.7401 214.8492 L419.9028 214.7596 L420.948 213.9186 L420.5084 211.8687 L420.3958 210.6098 L420.6752 210.2736 L421.9164 210.3527 L421.3909 211.874 L423.5062 212.2708 L424.548 211.1437 L425.6757 211.1911 L425.2729 209.2783 L426.3464 209.9493 L426.7601 211.5378 L428.1597 211.779 L429.0931 211.4205 L429.2608 210.6823 L430.3076 211.1067 L430.2625 212.7414 L430.9165 213.2555 L431.789 213.2107 L431.4645 214.2059 L430.8489 214.0833 L430.7263 214.3523 L431.236 214.7543 L431.3744 215.515 L431.1625 215.9289 L430.4969 216.0014 L430.1166 217.3658 L429.7471 217.433 L428.9196 216.8859 L427.3098 217.1034 L427.4207 217.7138 L426.816 218.1607 L426.2346 218.1158 L425.8542 218.7196 L425.3955 218.5403 L425.9218 217.3658 L425.3846 216.7291 L424.8817 216.7554 L424.4896 217.3776 L424.4896 217.9932 L424.3103 218.5298 L422.9248 218.7591 L421.6269 221.041 L422.4644 223.4718 L421.2808 223.3123 L421.2174 224.1112 L422.4319 224.3036 L422.592 225.7418 L422.0165 226.4774 L421.9848 227.4397 L424.0634 227.6611 L426.0119 229.1402 L426.504 227.0811 L428.3833 227.6189 L428.4283 228.9609 L429.7254 229.0057 L430.2025 227.3092 L431.2576 226.861 L430.7138 224.91 L431.3369 224.3524 L433.0368 225.6943 L433.7083 225.3806 L434.1378 224.1402 L432.885 223.5021 L433.5565 222.1602 L434.4173 223.4692 L435.1671 223.1778 L434.9319 222.2722 L435.1338 221.5222 L435.7043 221.3547 L435.8378 220.9738 L435.424 219.9337 L436.3925 219.8322 L437.4443 220.4254 L438.1199 219.2508 L438.8923 218.8593 L438.9031 220.9738 L439.4353 221.1531 L439.8766 220.7721 L439.8832 219.5198 L440.7782 219.3405 L441.3596 220.7602 L442.1136 220.5823 L442.5165 219.8665 L442.4556 219.5079 L441.5623 218.5245 L442.705 215.6455 L442.7467 212.7348 L444.2081 212.3195 L444.2957 213.1434 L444.943 213.4835 L446.2367 212.9866 L446.9081 214.6871 L445.2975 216.6104 L447.0424 217.64 L447.4453 215.5822 L449.7717 216.298 L449.4138 219.7874 L450.5774 220.2356 L450.7559 218.9819 L452.2265 218.7697 L452.4275 217.7639 L453.1723 217.8192 L453.7137 218.4797 L454.6204 218.1211 L454.4636 216.6341 L455.593 216.9017 L456.3537 216.5221 L456.4212 217.2379 L455.8682 218.8145 L458.0494 219.1493 L458.1028 217.93 L459.6876 216.9017 L460.2465 216.8016 L460.2248 217.2709 L460.6719 217.5727 L461.6119 216.6117 L462.8089 217.1588 L463.5579 217.2656 L464.2135 218.3795 L465.5773 218.3782 L466.328 217.8865 L467.3948 218.1106 L467.0704 219.3748 L467.771 220.0009 L467.8937 222.8312 L469.7662 223.4903 L470.3701 223.1884 L470.6279 222.5741 L472.216 223.2899 L472.3954 223.8383 L471.5229 223.9266 L469.7437 224.9904 L469.7437 225.5269 L468.1889 225.0234 L467.686 224.185 L466.9252 224.3629 L466.6859 224.8889 L467.1154 225.9514 L464.4079 226.534 L464.1735 225.6271 L463.4303 225.2026 L462.5019 225.1802 L461.3609 224.8889 L460.6894 226.679 L458.8552 226.4549 L458.318 228.1528 L458.7259 229.094 L459.3623 230.2356 L460.747 230.8156 L460.1572 231.8253 L460.8846 232.3724 L461.2649 231.7687 L461.6895 230.2923 L461.5669 229.2852 L463.5804 228.3123 L465.0618 228.4876 L464.8108 230.9527 L463.6255 231.2651 L462.8531 230.2026 L462.4619 230.8064 L462.7188 231.277 L462.1708 231.8478 L462.3718 232.843 L461.8021 233.6484 L461.1415 233.0328 L459.8886 233.0658 L459.5083 232.1378 L458.8377 232.5741 L459.7485 233.6616 L461.3525 234.1599 L460.063 236.0251 L459.6201 240.2948 L460.2465 240.9644 L462.1658 244.6988 L462.5511 244.745 L463.0608 244.3983 L462.8372 241.5339 L466.6408 242.1165 L466.7192 242.9852 L467.3056 243.6931 L468.319 243.6377 L468.6702 243.034 L468.5359 242.0941 L468.5251 241.6802 L469.3859 241.087 L469.028 239.778 L468.4016 239.5434 L468.9388 238.593 L469.5043 238.8052 L470.265 238.7604 L471.6522 242.2048 L471.4553 242.7097 L471.8757 243.5481 L472.9501 244.3086 L471.9925 245.3605 L471.3436 244.9242 L470.8022 245.1589 L470.773 248.1221 L471.0224 248.681 L471.5029 248.6652 L473.0877 247.434 L474.0686 249.4983 L479.125 250.1706 L480.6464 252.2282 L481.3171 251.1987 L479.9441 250.5265 L479.2143 248.5598 L482.3914 244.5775 L483.6684 245.7995 L485.702 244.4879 L487.5813 248.4253 L487.1342 250.0361 L488.8641 251.9606 L489.4422 251.8591 L490.0085 249.9755 L491.0295 251.3147 L491.9812 250.6596 L491.9228 249.6565 L492.6452 249.0818 L492.2465 248.3489 L491.6885 248.2315 L491.3023 247.0215 L491.3356 246.2767 L491.5108 242.4025 L491.0545 240.8155 L491.9595 236.3586 L493.7604 232.5846 L493.4293 231.7041 L491.5058 231.8899 L491.2138 229.0597 L490.539 228.5733 L488.8416 228.9345 L488.4321 228.0052 L487.5863 223.8594 L486.5194 221.8293 L483.8703 220.3898 L483.047 218.3861 L483.0762 217.1206 L482.8068 216.0673 L483.2539 215.7878 L484.3057 216.559 L484.9096 216.3349 L485.0522 215.6033 L485.7529 215.3291 L485.2791 214.434 L485.1331 213.941 L484.5626 213.8632 L484.2807 214.0873 L484.0254 215.1274 L482.8493 215.0338 L482.6608 214.2653 L482.2313 214.0636 L481.8401 213.9726 L481.1794 213.8685 L480.7924 215.1959 L480.0742 216.4733 L479.5963 217.1535 L478.5561 218.6853 L476.6786 218.8541 L475.334 217.5464 L474.8944 217.3789 L473.9226 217.1983 L473.0585 216.5405 L472.4004 216.0752 L471.3627 214.4709 L472.7707 213.7327 L473.6507 213.8817 L475.4457 212.4105 L476.4967 210.764 L475.5859 208.2277 L477.2991 205.951 L476.9855 205.2168 L475.8228 205.0348 L475.8378 204.3929 L475.3381 203.8339 L473.7158 204.2004 L473.8959 202.0977 L473.5131 201.2738 L473.5131 200.6252 L474.308 200.3906 L474.6024 198.2418 L476.0254 197.8555 L476.0513 197.0224 L475.8761 196.5768 L473.8959 196.1813 L471.6889 195.8293 L471.517 195.4536 L472.2185 194.6811 L472.7482 194.5335 L474.4256 192.444 L474.308 189.7072 L472.9626 188.7132 L473.2186 187.2354 L472.6598 186.8228 L471.9825 186.5881 L472.5121 184.8176 L472.8366 181.9674 L472.9259 174.7602 L472.3745 173.9494 L471.6588 171.2745 L471.774 168.7406 L471.774 167.301 L471.4528 166.0328 L471.8565 165.9326 L472.5764 165.1547 L472.5005 164.659 L471.5104 164.4349 L470.7905 164.7236 L469.9598 163.7586 L469.0381 161.6268 L468.1447 159.9855 L468.5484 159.6981 L467.9145 158.6025 L467.0504 158.1134 L465.5531 153.9368 L464.7632 152.7542 L466.0461 150.0278 L466.1095 143.5137 L467.741 143.2539 L462.4202 142.4945 L462.0882 137.511 L458.5891 128.9281 L454.622 123.0716 L454.17 118.316 L452.5309 111.2055 L447.9825 104.5117 L447.3477 104.9112 L445.9439 104.1596 L444.41 102.7554 L442.8894 101.8747 L441.8351 103.8537 L439.8182 102.675 L439.6338 101.6822 L438.7622 101.6295 L438.1583 102.021 L436.7052 101.7929 L435.6518 103.0785 L436.0296 103.9539 L434.7025 104.331 L434.1178 103.1971 L431.5738 102.435 L431.3352 103.2947 L431.678 104.0779 L430.3451 106.0081 L428.7745 105.6614 L428.7561 103.2301 L425.4747 103.2617 L425.3971 101.3961 L423.3235 96.6785 L418.8201 93.9756 L404.6769 82.5507 L399.1926 77.1051 L385.3755 58.8471 L380.2523 53.1165 L371.2539 48.3234 L370.8852 48.1388 L369.8117 48.094 L368.704 47.4558 L347.6334 49.373 L337.8434 50.8617 L319.2693 55.3107 L312.3487 58.8563 L312.0175 60.2421 L313.4939 60.0641 L313.2612 61.6214 L312.1343 62.0789 L309.5277 65.8434 L307.4132 64.5657 L307.6768 62.3901 L308.5718 61.6741 L308.3708 61.0702 L305.9376 61.7282 L301.7262 61.951 L301.7687 62.2503 L303.3144 65.8131 L302.8222 66.2614 L302.0165 65.0747 L300.8754 64.538 L300.249 65.4782 L300.5851 66.9325 L298.5265 68.9236 L296.9384 67.133 L295.1709 67.514 L294.969 66.7308 L295.8048 63.8234 L296.1151 62.7079 L293.0931 61.8455 L289.4072 61.6055 L288.8416 61.7651 L282.5382 61.4064 L281.8901 62.1251 L280.5555 62.0156 L279.5045 60.763 L278.4077 60.4267 L278.1174 60.9199 L276.0588 60.5388 L275.1188 59.5327 L273.956 59.2071 L273.0843 59.3376 L271.0249 58.3684 L268.1172 57.5839 L266.0845 56.7426 L261.3876 56.4486 L260.3057 55.9699 L259.2664 55.8684 L256.9609 55.817 L252.0855 54.8333 L250.2613 56.8389 L249.8693 59.4576 L249.5414 60.3344 L248.9542 59.9138 L248.5222 58.6467 L247.7631 57.7883 L245.5268 58.7627 L245.4551 57.0011 L246.7822 55.2922 L247.7348 55.1696 L247.3769 53.6479 L246.4811 52.3926 L245.4268 52.1724 L243.5508 52.9768 L243.5959 53.5134 L244.4684 54.2742 L244.088 56.0649 L243.2714 56.467 L243.1296 54.7964 L241.2779 54.4536 L239.4203 55.2236 L238.6979 54.6408 L238.808 52.9992 L237.667 51.5448 L239.2301 51.372 L239.3177 50.7998 L239.11 49.5563 L237.6261 48.661 L235.7385 48.0887 L234.4723 48.8535 L232.92 48.8707 L228.3824 46.1926 L227.6668 47.585 L227.8011 49.5339 L227.1246 50.3752 L226.3522 46.807 L225.2562 46.302 L224.6348 46.4774 L224.5747 47.3714 L223.8899 47.676 L222.22 44.7447 L220.0555 44.1263 L214.18 42.9765 L211.1171 43.2455 L208.9901 42.7827 L206.5411 41.8517 L204.1422 41.2926 L202.8744 40.9419 L201.0009 41.1753 L198.1524 40.2021 L191.8907 39.349 L190.8965 39.6259 L189.7245 39.0984 L186.5115 38.4154 L185.3446 38.7596 L185.2695 39.5151 L187.3782 41.1238 L188.8913 41.5629 L191.0041 43.2152 L191.2218 44.0723 L194.7467 46.2994 L195.6551 47.8672 L194.9853 48.0215 L193.1269 47.0286 L191.7539 45.8445 L189.4051 44.8028 L188.1873 42.9857 L187.037 42.9554 L186.5232 41.9743 L184.6931 40.6162 L182.5553 39.4703 L180.2823 37.433 L176.4629 36.6735 L174.431 35.6634 L172.4617 35.5725 L171.2489 34.8485 L167.0958 34.7364 L163.7101 34.0653 L162.298 34.3646 L160.1918 33.8609 L157.0255 33.8266 L155.3515 34.3013 L153.8834 33.7949 L149.7687 33.9756 L147.0712 33.0657 L144.2085 32.8679 L139.2881 32.8824 L132.7253 33.0855 L131.8636 33.1053 L130.9711 33.369 L130.4198 32.8917 L126.6004 32.8442 L126.4369 33.5906 L124.7194 33.1185 L124.3049 32.6293 L121.6924 32.0332 L118.4711 30.5551 L110.5378 26.4185 L105.6432 24.7121 L101.365 23.5992 L94.4677 22.0155 L93.2257 22.4111 L90.1604 21.9548 L88.4863 21.4762 L85.2332 19.5153 L84.3466 19.3057 L83.6534 20.0665 L83.1571 19.6591 L83.5867 18.7017 L81.7583 17.474 L81.4072 18.3734 L80.9709 18.62 L80.0867 18.1716 L80.7023 16.8859 L79.1726 15.7439 L78.2634 15.4868 L78.1291 15.8903 L76.3391 16.0908 L73.6774 15.98 L72.9834 15.107 L74.4823 14.9501 L75.3056 13.518 L73.6098 12.8692 L72.1343 11.6152 L68.6919 10.5985 L65.3805 9.0319 L63.0925 8.7062 L59.9962 8.7009 L54.7338 9.0121 L51.2464 8.6574 L49.6123 9.2323 L48.734 9.2007 L48.4855 10.733 L47.7247 12.1202 L46.919 15.14 L44.8837 15.9233 L45.4201 17.176 L44.7711 18.4063 L43.7644 18.2283 L42.8919 16.6617 L41.941 16.6644 L38.5295 18.2732 L37.0973 18.2283 L36.3591 20.354 L38.3501 20.5993 L39.4695 19.481 L40.9234 21.9192 L43.384 22.0762 L44.5034 22.5232 L43.9887 23.5979 L43.0937 23.8656 L41.1244 23.8656 L41.0351 25.051 L41.5923 31.0298 L43.1721 30.5775 L43.5408 31.2935 L41.9635 36.1711 L39.7256 36.8647 L40.2394 37.9104 L39.7156 38.9613 L39.502 39.7854 L40.3412 39.7578 L40.8099 38.2506 L41.6432 38.1728 L41.8342 36.9359 L42.6517 35.7333 L43.0212 35.8269 L42.147 38.2506 L41.7917 39.2738 L42.2746 39.5375 L43.1605 38.844 L43.5683 38.0304 L43.4474 37.3328 L43.8177 35.699 L44.5142 36.2674 L44.8128 36.1817 L45.2249 35.492 L45.4309 34.6178 L44.8479 34.4332 L44.7061 33.8714 L45.7863 33.7501 L45.9431 33.0394 L45.0114 32.8759 L45.0689 32.5778 L45.6945 32.6767 L45.4735 31.8882 L45.7938 31.3555 L45.2749 31.184 L45.0831 30.7581 L46.2342 30.9493 L46.3051 31.788 L46.8314 32.0728 L47.3928 31.995 L47.8549 31.4254 L48.1043 31.3199 L48.538 32.0372 L48.9501 32.7203 L49.8809 32.8548 L50.6842 33.3519 L49.6749 34.6112 L48.8433 35.0516 L48.1535 35.6766 L48.4096 36.2595 L49.2912 36.481 L49.5331 37.2128 L48.3103 38.3429 L47.3294 38.0159 L47.251 37.2128 L46.064 37.2049 L45.9923 37.5253 L46.9307 38.6844 L46.8247 40.0281 L45.7154 40.1837 L45.3383 39.2817 L44.0104 39.7947 L42.9928 41.6302 L42.8719 42.5229 L41.066 42.424 L41.3096 43.4842 L43.0996 43.2771 L44.3216 44.1527 L45.2241 44.1092 L45.2391 43.703 L44.656 43.3048 L44.2014 41.9968 L44.4575 41.1937 L45.9639 41.5709 L46.391 42.8209 L47.0591 42.9211 L48.1535 42.1669 L48.1818 43.405 L48.9359 43.6885 L47.8549 44.456 L47.3294 43.8455 L46.3768 44.3716 L45.7679 44.3769 L45.6586 45.2959 L46.9415 46.1266 L48.2744 46.0067 L48.4296 45.4779 L49.2128 45.466 L50.308 46.931 L51.1755 46.9732 L51.3315 46.1768 L51.9654 46.2677 L52.2557 48.2667 L51.339 48.5937 L48.6014 47.527 L48.694 48.3089 L50.1654 48.7784 L50.6633 49.2333 L51.2956 50.5136 L51.1429 52.3003 L50.1162 53.0018 L49.0635 53.1297 L48.0684 53.1719 L48.0259 54.1674 L48.8933 54.4087 L49.1778 53.5411 L49.8601 53.6703 L49.3621 55.0206 L48.4237 55.0061 L48.2252 55.6891 L47.4428 56.9404 L46.974 58.4897 L47.4712 59.8967 L46.4619 59.9402 L45.8363 61.0768 L46.3485 61.6886 L47.5713 61.0346 L48.538 59.869 L49.0493 59.8123 L48.5947 61.2759 L47.5563 62.0011 L47.9691 62.5839 L49.0919 63.764 L50.5566 65.2712 L51.9787 66.3234 L52.8028 65.8975 L54.0398 66.835 L54.3952 66.0676 L53.315 64.8162 L52.6327 65.1433 L52.2773 65.1156 L52.3482 64.3904 L51.5233 64.0198 L51.4099 64.7029 L50.997 64.5183 L50.1162 63.437 L50.5849 61.802 L50.6992 60.4228 L49.5615 59.8123 L49.8743 58.3328 L50.67 57.9346 L50.841 55.6601 L50.3572 55.4188 L50.1729 54.5221 L52.1489 54.2096 L52.2056 55.5032 L53.5852 56.2152 L53.2441 57.1962 L53.8697 58.7034 L54.3952 58.5174 L54.9782 57.8357 L55.4195 58.1482 L55.2059 59.1148 L56.4004 59.1002 L57.936 57.0538 L58.3622 56.6701 L58.675 55.2052 L57.5515 55.0773 L57.6799 54.2808 L58.2771 54.1252 L59.7694 54.0105 L59.0729 57.2384 L59.7126 57.4652 L60.3808 56.3141 L61.3192 55.1195 L61.9881 55.134 L61.732 56.2007 L61.8738 57.1817 L63.2076 57.2279 L62.4569 58.3328 L62.6129 59.0159 L63.4236 59.1293 L63.0258 60.0391 L62.1583 59.4853 L62.1583 60.2527 L62.6704 60.4518 L62.2859 60.8645 L61.2483 60.6219 L61.1632 58.8023 L60.6085 58.7034 L60.2815 60.7643 L59.3857 60.4228 L58.0352 60.5375 L57.8926 61.9734 L58.6325 61.7308 L58.7884 62.5127 L59.6985 62.9109 L60.1539 63.5649 L58.8452 63.6361 L57.3955 64.3904 L56.8566 63.9236 L56.699 66.2957 L55.4478 66.4513 L54.4235 67.7883 L53.4993 67.8305 L53.6987 68.6691 L52.8028 70.0483 L51.9787 69.5367 L51.8503 70.3476 L51.8219 71.0728 L52.5326 71.2719 L53.5994 70.4188 L55.9591 70.4887 L55.6889 71.7835 L55.1492 72.0815 L54.8931 72.6933 L56.1443 72.721 L57.3813 71.7835 L57.3246 70.134 L56.4713 69.4233 L56.8408 68.8827 L57.4806 68.3711 L57.4806 67.3901 L58.6608 67.162 L58.8602 66.1388 L60.9638 66.3234 L60.9213 68.4133 L61.8029 69.0251 L62.5703 68.2142 L63.8524 69.542 L63.0825 70.3331 L62.4711 72.067 L61.5469 72.1817 L61.6319 71.0728 L60.2815 70.4887 L61.0781 73.0058 L60.7369 74.3995 L59.8978 74.2281 L59.4566 74.8821 L58.8452 73.7165 L58.2488 73.6321 L57.936 74.4562 L56.528 74.4272 L56.528 75.6363 L57.8784 76.2336 L58.8935 76.5342 L61.3192 76.1202 L62.4143 75.3093 L63.6372 75.3515 L63.9967 76.0424 L63.2118 76.7346 L64.3078 78.8825 L65.4489 79.6209 L65.1578 80.3145 L63.95 80.114 L63.4128 80.9408 L66.0077 82.105 L67.6192 82.0154 L68.581 81.3666 L69.028 80.4714 L69.8321 80.6546 L69.9681 82.5744 L70.9707 91.2858 L67.8236 102.1582 L71.4653 108.1665 L72.6489 114.5399 L76.9271 114.5399 L85.0297 109.9873 L88.5805 103.7061 L99.7777 103.1602 L111.3527 120.1987 L95.135 144.0357 L101.8713 146.5842 L107.8803 144.3087 L110.8848 156.2347 L116.0738 155.4147 L118.8047 139.8472 L123.9028 129.0138 L125.0356 113.4957 L128.231 89.2567 L152.9025 75.6956 L179.2764 77.0247 L196.7328 88.9574 L209.2053 100.8832 L205.6545 100.8832 L189.9965 91.9622 L181.5294 89.9594 L176.2953 97.8375 L165.2341 118.6364 L166.0532 134.385 L171.0604 146.2203 L181.9848 155.2328 L175.7031 165.7019 L181.5719 180.3841 L189.6628 208.461 L189.3592 238.6233 L211.0262 252.7344 L197.4509 268.51 L190.5169 295.0894 L185.9643 312.0159 L170.1754 316.8531 L175.296 336.9091 L190.5169 331.6464 L206.8748 306.3272 L222.0949 311.0208 L228.4967 332.6428 L235.4641 329.5679 L236.0054 324.5187 L240.3328 320.9126 L243.218 324.2485 L251.6184 322.2372 L263.0524 325.6904 L267.1096 324.5187 L266.9294 315.7736 L275.5842 316.4946 L277.0022 321.9736 L282.8869 318.7484 L289.8292 316.7648 L291.9929 313.5198 L301.6853 305.4191 L301.7295 308.5613 L295.779 316.4049 L292.9338 323.6804 L297.2895 328.4938 L301.7904 327.3405 L301.7904 323.9928 L297.0585 322.5509 L302.4936 317.9932 L304.5021 319.3771 L305.5406 313.6068 L313.2912 299.9136 L316.2448 290.7095 L318.2534 280.4376 L319.8515 291.5214 L323.4574 293.2349 L319.3102 304.0536 L321.911 313.9771 L318.1191 317.8772 L316.2623 321.8312 L331.1288 322.0434 L336.5463 326.3546 L330.3672 326.5497 L324.671 334.8636 L317.8713 337.7685 L304.4237 328.4595 L295.7047 332.3818 L292.2798 341.0397 L287.0541 336.8221 L278.0048 343.615 L263.6013 356.3003 L243.6659 348.1527 L233.2011 353.7119 L220.1272 354.8624 L190.5411 363.5595 L182.7955 361.7684 L182.2117 365.622 L176.9184 366.712 L170.3013 363.9101 L167.9658 367.9192 L164.2006 370.6894 L160.6698 369.1 L158.0407 353.8674 L152.3453 355.2209 L154.8485 347.0562 L152.3186 347.0562 L150.0615 353.8674 L148.8546 354.2562 L150.2725 346.0097 L133.9247 358.898 L124.3165 360.3134 L118.5353 361.1648 L100.7478 356.1369 L98.363 359.835 L84.2874 367.1376 L60.5259 376.9613 L40.9501 370.9332 L35.7544 365.456 L26.6633 363.7058 L26.6633 367.9969 L8.6781 367.7847 L10.2947 376.2971 L7.9591 380.8517 L8.8933 384.0437 L16.7949 382.2922 L16.9117 384.6657 L9.3654 387.3489 L1.2962 382.1696 L0.0 387.8273 M52.5534 29.2984 L53.0723 26.4317 L53.7988 26.2009 L53.7988 23.855 L53.2733 23.1219 L53.6003 22.3359 L54.2609 22.7658 L56.1401 21.765 L56.9809 19.9914 L58.1011 19.8977 L57.8209 22.1381 L59.6176 25.4031 L59.3139 27.422 L58.6617 29.0109 L57.2996 28.6114 L58.8785 26.015 L58.323 25.2752 L57.101 26.8615 L55.7139 26.5635 L55.5821 27.7529 L54.5912 26.5306 L53.9856 26.7429 L53.8864 28.1696 L55.3511 30.3283 L56.0117 30.2953 L56.1768 30.9889 L58.0895 32.7756 L57.6299 34.325 L58.323 35.0516 L59.3139 35.0186 L59.7435 34.2921 L61.6495 35.1175 L60.6343 37.2418 L59.6776 38.0238 L60.1072 38.8163 L61.194 39.4901 L60.3049 39.7419 L58.8518 40.6663 L57.6457 40.3129 L57.2003 40.7652 L56.8041 39.9727 L57.4647 39.6747 L58.0261 37.8589 L58.8477 36.4256 L57.4647 35.943 L56.7707 32.6082 L54.8881 32.3655 L52.5534 29.2984 M55.0783 12.0662 L56.8533 10.8754 L57.2503 11.5756 L55.9191 12.2297 L55.9424 13.2807 L55.2418 13.4903 L55.0783 12.0662 M58.2313 13.6539 L58.5115 12.8139 L60.8003 12.9062 L60.777 13.2569 L59.3523 14.1444 L58.2313 13.6539 M58.7451 9.6609 L60.2165 9.6134 L61.501 10.3374 L61.174 10.8754 L59.8194 10.104 L58.7684 10.431 L58.7451 9.6609 M62.5136 73.3618 L63.0683 72.4375 L63.623 72.721 L63.7222 73.2049 L64.4045 73.7732 L63.9358 74.2149 L62.5136 73.3618 M64.2561 18.3246 L65.9844 17.1101 L66.5682 17.8103 L66.5215 18.3707 L67.9929 18.885 L68.8337 18.5342 L68.9505 19.5628 L68.6001 20.5426 L67.736 19.4217 L67.1288 19.3294 L67.2923 19.9821 L66.615 19.8661 L66.2413 19.0485 L65.4238 18.1611 L64.4896 18.6516 L64.2561 18.3246 M64.6298 67.8344 L65.8209 67.1804 L66.0311 66.293 L65.1903 65.8487 L65.7742 65.5217 L69.3008 66.9695 L67.7594 68.1839 L68.0863 69.211 L66.7784 69.3745 L65.8909 70.3331 L65.1436 70.403 L64.6298 67.8344 M65.8042 56.4539 L65.8209 55.0825 L66.8085 54.4931 L68.4133 54.0791 L68.3666 52.6537 L67.4791 52.9583 L67.2689 51.9298 L68.933 51.0384 L69.0439 49.4785 L69.7446 49.642 L72.0834 47.3503 L73.2945 46.5354 L75.1646 43.1716 L75.6292 42.7523 L77.8947 42.308 L79.5296 40.7902 L79.5996 39.2488 L78.899 39.0154 L75.2556 41.3282 L75.2088 42.0983 L73.4347 41.9348 L73.458 40.8839 L71.4728 40.7902 L71.4728 40.2298 L72.8775 39.109 L73.0843 39.5995 L73.8084 39.5758 L74.2988 38.6422 L75.2822 38.1991 L76.5167 37.7785 L77.8497 35.7241 L78.6421 35.9799 L79.7631 35.0226 L79.4128 34.1114 L80.1835 33.8319 L81.3046 34.6257 L81.7016 36.005 L79.3427 38.1517 L80.2769 39.4123 L82.3088 38.0818 L82.3322 36.0036 L83.1029 36.5641 L83.173 37.2181 L85.6003 36.448 L86.6504 35.0714 L87.9583 32.3629 L89.4522 32.3168 L90.2721 32.9444 L89.3379 33.3176 L89.4047 34.2077 L90.2955 35.256 L93.3033 36.4718 L92.9813 37.3579 L94.3543 39.109 L95.643 38.2453 L96.1568 38.9455 L96.1335 39.4597 L94.7563 39.6233 L94.8264 40.9076 L96.9509 40.7678 L97.8793 40.2061 L97.9318 42.1682 L97.4414 42.5651 L97.7858 43.8244 L97.7216 46.5829 L98.6792 46.3482 L99.3965 49.6605 L98.7025 49.828 L99.0762 50.9962 L98.0953 51.9773 L98.2821 52.5139 L99.7235 51.9483 L99.9404 53.4013 L98.6024 55.8012 L97.4647 56.6002 L96.5714 54.8201 L97.8317 53.5358 L97.4647 51.4169 L96.5539 52.3043 L95.2001 52.0234 L93.9389 52.7012 L91.7927 51.8599 L91.5508 49.9638 L92.0705 49.0816 L90.6225 47.9595 L89.8959 49.05 L91.0429 50.0389 L90.3605 50.3831 L89.4981 52.2054 L90.5958 52.8594 L91.2764 51.8362 L91.389 54.7503 L92.3507 55.0127 L92.0938 55.6904 L92.3507 58.2827 L93.7003 57.8555 L94.2425 59.3099 L93.7003 60.3753 L94.079 60.9674 L93.4718 62.8133 L92.4166 62.6644 L92.6077 60.8751 L91.253 60.2672 L91.253 61.7387 L91.8603 62.0657 L91.2764 62.8595 L92.0238 63.4199 L91.2764 64.3548 L91.0629 65.6522 L88.5413 64.3442 L88.7307 63.3737 L89.7783 63.855 L90.1987 63.0375 L88.9876 60.4544 L89.2679 59.8703 L90.5023 60.0022 L90.806 57.3413 L89.0084 56.1269 L87.8173 54.12 L85.2966 52.9293 L84.6444 53.2141 L83.9662 54.3758 L83.1263 54.6619 L83.5233 55.8064 L82.8694 56.4367 L82.6825 55.4095 L81.5615 55.7062 L81.2111 55.2935 L79.2043 55.9633 L79.0157 56.7176 L79.4136 57.5984 L78.9707 58.8339 L76.8437 60.9212 L77.4509 61.8785 L78.3401 61.6833 L79.3427 62.7659 L78.9707 63.7377 L79.7398 64.5407 L78.5486 65.3344 L76.8696 64.4378 L75.8394 63.3263 L75.4691 61.5436 L74.182 61.3418 L73.8818 62.3835 L74.0653 63.4199 L76.1689 65.2303 L76.4233 66.4091 L75.9796 67.0868 L76.5426 68.826 L79.4828 69.211 L79.2043 69.9468 L76.5893 69.7595 L74.7918 67.9386 L72.8508 68.3948 L72.6665 69.3389 L73.8317 69.8887 L74.4189 71.1124 L73.9018 71.384 L72.0133 70.3661 L70.9824 70.0285 L71.3836 68.4515 L72.9442 67.7408 L73.1578 66.0939 L71.874 65.9779 L69.4876 64.6106 L68.7219 62.336 L70.4269 62.0103 L73.4614 59.091 L74.3247 55.5678 L75.746 54.5696 L75.2789 54.0092 L75.7227 52.8172 L73.7642 51.7373 L74.9286 50.2723 L76.1197 49.9915 L76.9863 48.0492 L78.2217 46.7451 L77.8972 45.739 L74.7417 47.1657 L74.2521 49.4785 L73.2278 50.805 L71.9166 50.5057 L71.1926 51.0424 L70.0248 51.1835 L70.3751 52.2568 L71.8273 52.5548 L72.7807 52.3043 L73.6716 53.6057 L71.9399 54.8491 L71.8932 55.9475 L71.0566 56.2205 L70.3284 57.2542 L71.613 59.0066 L70.8464 60.0259 L66.715 60.4689 L66.1946 60.1736 L66.3347 59.6369 L67.409 59.4734 L68.1856 58.3684 L68.9271 58.6559 L69.3058 56.6411 L68.0863 56.1809 L67.7126 55.2698 L66.3814 55.7128 L65.8042 56.4539 M65.8909 48.8469 L66.1011 45.6717 L66.4281 45.0177 L67.7126 44.0828 L68.7403 41.7475 L69.2774 40.7902 L69.6044 41.795 L70.2817 41.5616 L70.2817 42.5427 L69.3709 42.962 L69.4643 43.9668 L67.736 45.9051 L66.5449 45.8814 L66.5215 48.5911 L67.3156 48.8245 L67.736 49.4548 L66.9419 49.9216 L66.358 49.7119 L65.8909 48.8469 M66.7901 73.5345 L70.0598 71.5857 L70.6537 72.0815 L70.6537 73.1719 L71.2818 73.6005 L71.975 73.4027 L73.4939 71.8178 L74.8151 73.5016 L73.1644 75.1867 L72.9993 76.2428 L72.3387 75.7141 L71.7773 74.9546 L71.0499 74.8227 L70.6537 75.3515 L70.7196 75.8473 L69.2007 76.3417 L67.9128 75.8802 L67.8795 74.9876 L66.7901 73.5345 M74.9052 70.6364 L76.3299 70.8697 L77.1006 71.6635 L77.521 70.846 L77.6378 72.4111 L77.4042 72.9254 L77.521 73.3447 L78.3618 73.4857 L78.4319 72.5272 L79.3194 72.3175 L79.8799 73.4159 L79.1559 73.9288 L77.4276 73.7415 L76.1898 72.9478 L76.0263 71.6174 L74.9052 70.6364 M78.1975 24.9284 L79.1634 23.4199 L78.5036 21.368 L78.9457 19.8898 L79.1792 20.4503 L79.0157 21.0806 L79.4128 21.641 L80.0767 21.7702 L80.4171 22.7157 L81.1878 22.8555 L81.2503 23.3764 L79.6914 23.8168 L80.9459 28.5705 L80.0876 28.7353 L79.8565 26.6229 L78.1975 24.9284 M81.9477 25.0128 L84.3699 22.2054 L87.2735 23.4687 L87.9366 22.6682 L88.7515 22.9452 L89.8267 24.6423 L90.1103 27.3046 L92.6986 28.0747 L92.8879 28.7169 L92.1781 30.054 L92.611 31.8355 L91.9228 32.2759 L91.4774 31.3766 L91.6092 29.9564 L90.454 29.6927 L89.0668 28.5375 L89.0009 27.5802 L89.6282 26.1271 L89.091 24.3561 L87.7031 23.9526 L86.5912 24.7741 L86.019 25.6471 L85.994 23.8774 L85.4401 23.4199 L82.9202 25.8093 L82.2338 25.6985 L81.9477 25.0128 M83.4999 27.8993 L84.8546 27.4325 L85.461 28.4136 L86.3952 28.5995 L87.4695 30.4456 L86.4652 31.9396 L87.236 32.0095 L87.2593 32.384 L86.7455 32.5699 L86.0215 32.3128 L85.3442 32.6636 L85.3442 33.1303 L84.9705 33.2714 L84.8078 32.4763 L85.2741 31.8935 L85.6011 31.8935 L86.3251 29.5107 L85.8813 28.8567 L85.1807 28.6707 L84.4809 28.974 L83.4999 27.8993 M95.2226 27.058 L95.7806 26.28 L96.5614 26.6888 L97.5848 27.6461 L97.5848 28.5705 L96.6606 29.2641 L96.1318 28.8342 L96.231 27.9428 L95.2226 27.058 M99.6718 99.0268 L100.2006 89.9159 L103.2376 80.4081 L104.558 73.673 L107.4632 68.6546 L115.1221 59.5433 L122.1212 57.1659 L122.9136 60.7313 L117.8955 65.221 L119.0841 72.8805 L124.4984 75.9171 L122.6492 82.2566 L117.1031 82.3885 L114.9903 78.955 L112.3495 80.8036 L112.8775 88.066 L114.1979 100.7434 L119.8766 99.4236 L123.8378 101.1403 L123.706 108.0069 L121.4605 114.0811 L122.7818 123.1929 L120.8008 128.2109 L118.5561 133.8893 L115.2547 141.4161 L107.8595 141.9448 L101.7854 141.4161 L106.6708 136.7938 L113.8017 132.1727 L118.9515 126.4943 L120.2728 120.0234 L112.7457 113.6842 L111.4253 110.3841 L106.0111 101.7995 L112.6131 105.2329 L114.8585 104.8373 L109.3116 101.404 L109.5761 97.1782 L104.9542 96.3858 L99.6718 99.0268 M136.6473 71.1638 L138.2313 66.0135 L141.7971 59.6751 L147.2113 58.8827 L152.3612 61.5238 L153.6816 66.1454 L152.493 70.635 L148.0038 72.2199 L143.6455 74.4654 L142.8531 79.0869 L137.7033 75.5216 L136.6473 71.1638 M196.1272 78.2865 L196.8279 76.9324 L202.0119 78.6135 L201.3588 79.3612 L203.6935 82.163 L205.4685 82.2105 L207.0566 80.9025 L205.8889 79.4548 L206.4027 78.8008 L208.7382 80.4819 L207.5237 81.6027 L205.3283 83.144 L201.4989 83.5185 L202.2921 84.779 L201.5456 85.1996 L198.0423 81.3693 L199.3969 80.2024 L198.8364 79.7343 L197.2015 79.5945 L196.1272 78.2865 M196.4075 55.8671 L198.3226 54.1859 L199.3502 55.0272 L198.6029 57.129 L196.4075 55.8671 M196.968 60.1643 L199.1634 59.931 L198.3693 63.7614 L198.6963 64.6013 L198.8364 68.4779 L197.5285 70.0667 L197.3417 67.638 L197.8555 63.7614 L196.968 60.1643 M210.2021 71.86 L211.0612 68.0955 L212.2481 69.0501 L214.0332 71.9932 L215.6188 73.3803 L216.8074 73.3143 L217.2003 71.5607 L218.7893 67.2371 L221.5635 67.7659 L222.4886 69.4826 L218.7893 68.822 L218.6575 73.5121 L219.3123 76.0503 L223.2735 78.1626 L220.1105 79.4561 L219.2472 81.0673 L212.0488 75.4556 L212.118 72.6537 L210.2021 71.86 M223.1701 63.855 L224.7582 62.8265 L225.4589 60.3516 L224.0108 59.931 L224.9918 58.8563 L227.1872 60.6311 L226.8602 61.1928 L225.7858 60.9581 L225.3187 62.6868 L226.3931 63.2946 L225.3187 64.9283 L223.1701 63.855 M224.8516 84.125 L225.5056 82.3964 L227.2339 82.2566 L226.7201 83.7044 L227.6075 84.125 L228.9622 83.6121 L229.5694 82.5836 L231.2043 83.471 L230.0832 86.6935 L224.8516 84.125 M226.0194 54.7001 L228.1681 53.2523 L230.2233 54.7463 L232.6056 54.2334 L234.5199 55.3067 L233.3062 56.1018 L231.9049 56.6622 L232.4187 57.9689 L230.0832 58.0625 L226.0194 54.7001 M230.27 60.8184 L233.1194 58.3895 L234.4732 58.2498 L235.2672 60.2118 L233.3062 62.4534 L235.5008 64.509 L235.1271 64.8347 L232.7457 63.6678 L230.27 60.8184 M234.006 73.1957 L238.6771 70.4399 L239.2376 68.8049 L240.9659 68.7126 L241.2462 70.0667 L244.0947 69.7397 L247.8315 68.619 L248.2986 66.8442 L249.7466 68.4317 L248.7657 70.0667 L245.9164 71.794 L244.048 70.8144 L240.8725 71.0478 L240.3587 69.9731 L239.4245 70.1129 L239.4245 71.467 L234.0995 73.9433 L234.006 73.1957 M236.5284 65.7234 L237.1356 63.5742 L239.2843 63.7139 L244.0947 65.0219 L244.9822 63.528 L245.7295 64.4616 L244.8887 66.2838 L244.048 66.0491 L241.106 67.7316 L239.5179 67.4046 L238.2567 65.1617 L236.5284 65.7234 M257.6866 93.2333 L258.9945 89.3094 L262.0307 90.6174 L264.0859 89.4492 L265.2528 89.8698 L263.0116 91.6445 L262.8714 94.2604 L261.9372 94.5412 L262.2642 91.2252 L261.1432 91.2713 L259.3682 94.4002 L257.6866 93.2333 M259.1988 88.4075 L260.2882 83.057 L261.5761 82.7603 L262.1708 79.3915 L263.9216 78.7309 L264.8792 78.9946 L264.9451 80.416 L266.3656 81.5051 L269.4701 80.7786 L271.1542 78.9287 L272.3428 79.4244 L273.1027 77.5745 L273.961 77.7736 L274.4565 76.881 L273.3012 75.8248 L273.7959 74.5366 L276.5042 75.428 L276.9672 76.5843 L278.7171 77.0801 L278.6512 77.7736 L277.6603 77.5416 L277.4952 78.7639 L276.8345 77.2449 L275.6126 76.6173 L275.1171 78.0044 L276.1414 79.9532 L275.8436 80.3158 L274.8201 79.5563 L273.433 79.3256 L272.9375 80.1839 L273.9285 81.0423 L273.73 81.6699 L272.0792 81.0093 L270.1299 81.7029 L270.0315 83.8507 L268.5117 85.2708 L266.0352 86.9875 L265.4405 89.167 L263.1951 88.8044 L264.5814 87.6151 L265.4739 87.4833 L266.7284 85.1376 L266.6959 84.2793 L267.8186 83.7505 L268.1814 82.8922 L267.7852 82.3305 L265.0443 81.6369 L264.483 82.8592 L263.6897 81.9349 L263.1283 82.1327 L263.0299 83.2231 L261.1473 83.9167 L260.6844 85.2708 L261.7412 86.294 L262.6004 86.4258 L262.8648 87.0205 L261.4109 88.3746 L259.1988 88.4075 M265.1594 72.6353 L265.1594 71.3748 L267.0745 71.5607 L268.3824 69.8334 L267.8686 73.0084 L270.2976 75.0179 L269.9706 75.7642 L266.9811 74.9243 L265.1594 72.6353 M270.5136 71.4446 L270.8356 69.4708 L272.3186 69.5406 L273.046 68.3658 L273.4522 69.625 L272.8083 69.7793 L273.0885 71.024 L272.4029 71.1783 L271.6747 70.1986 L270.5136 71.4446 M276.2273 68.4898 L277.4785 67.3861 L279.0916 68.2366 L279.4687 69.6949 L280.7282 69.4009 L281.1945 70.4083 L282.8452 70.1445 L282.3831 68.5583 L283.1138 67.4138 L283.605 66.6438 L285.1548 66.4157 L285.6361 66.3445 L286.5445 67.7988 L285.3559 69.2848 L286.6104 69.2848 L287.6672 67.0064 L288.6581 67.2042 L288.9042 69.3495 L292.0596 70.1445 L291.9737 72.4507 L294.5036 72.8199 L297.7408 73.8431 L301.4493 73.8391 L302.7939 70.5401 L303.2118 70.8394 L304.7749 71.9602 L307.3915 71.4275 L306.6984 76.5448 L304.7674 76.045 L303.9733 77.68 L302.572 76.2323 L299.2556 77.7736 L299.9095 79.9215 L296.2661 82.3964 L295.4728 80.5755 L294.2584 80.3883 L293.6511 81.6501 L289.634 82.7709 L289.4939 83.5646 L291.5025 84.2186 L293.6044 83.3312 L299.9095 85.4791 L301.3108 82.0707 L302.7121 81.9297 L303.1325 80.1549 L304.4696 80.7984 L305.5615 81.3231 L305.2812 82.8645 L306.4998 83.0807 L310.8581 86.613 L310.3902 87.747 L312.4371 88.7055 L311.7106 89.8935 L309.2007 89.432 L309.5377 87.4714 L308.7711 87.3184 L308.1772 89.3331 L307.3515 89.7287 L306.6575 87.9131 L307.6484 86.9545 L306.9553 85.2708 L306.1754 85.0414 L303.8916 84.3689 L302.0006 86.0962 L300.6802 85.9973 L299.7327 87.8023 L298.8151 87.3198 L297.1127 86.4258 L296.4529 89.6957 L294.9006 88.7055 L295.9241 86.0303 L295.1108 85.2932 L295.0658 84.1144 L293.9097 83.8178 L293.1256 84.241 L291.4657 85.1376 L291.3665 87.2525 L287.5496 86.911 L287.1884 86.2175 L284.0346 87.4173 L284.827 89.7617 L284.8762 91.8634 L282.6475 94.4186 L282.9778 94.9473 L285.1907 94.1549 L285.6194 94.9473 L283.5392 95.9375 L283.605 97.3905 L282.5816 96.929 L281.5907 93.7251 L282.7134 89.8935 L281.921 89.167 L282.6308 88.0001 L282.0369 84.5337 L285.0255 82.5625 L285.4876 83.4868 L284.4308 85.1376 L285.3225 85.5345 L286.4452 84.1804 L286.6104 82.3964 L287.9975 82.9581 L288.3762 81.7279 L287.7006 80.416 L285.9656 79.4825 L285.1573 77.9055 L283.3581 76.7096 L282.7793 77.9714 L283.2264 80.9368 L281.5573 81.0766 L282.0202 79.1937 L280.005 78.9287 L281.016 77.0405 L278.9157 74.7014 L279.2126 73.7771 L276.6227 73.6743 L276.2273 68.4898 M287.7006 92.7349 L290.7392 91.2476 L291.168 89.6957 L291.9937 89.498 L292.1264 88.8703 L293.2816 89.5639 L292.4233 91.9082 L291.2672 92.2721 L290.7718 93.3282 L289.2854 94.1879 L289.2695 94.8115 L289.2528 95.4431 L288.0634 95.277 L287.7006 92.7349 M292.4675 114.681 L292.5793 113.3929 L293.6153 113.3375 L293.4192 112.3856 L294.5103 111.8819 L294.175 110.2035 L295.266 110.2866 L296.1059 111.6855 L295.6297 114.681 L293.2516 115.2123 L292.4675 114.681 M294.2867 107.9647 L294.9865 107.7683 L295.1826 106.0055 L296.4696 105.2777 L298.6241 107.4598 L297.0009 110.7625 L295.0141 108.9997 L294.371 108.8877 L294.2867 107.9647 M296.5188 97.7544 L296.8158 96.0034 L298.2029 95.9375 L299.7552 93.6921 L300.8779 93.6921 L300.284 96.2685 L298.3022 96.7299 L297.1127 97.9851 L296.5188 97.7544 M297.197 101.4435 L297.6165 100.5206 L298.8201 100.4639 L299.4082 98.8408 L301.5627 99.7928 L300.4433 101.5556 L300.9471 102.3388 L302.6546 102.8148 L302.5144 104.5222 L303.5496 104.6896 L301.7304 107.5165 L298.9603 106.4525 L298.3447 103.4582 L298.7084 101.9472 L297.197 101.4435 M297.8684 115.2123 L299.2122 113.2808 L300.6952 113.058 L302.1224 111.3229 L300.807 109.9227 L300.9755 109.0841 L304.5855 109.5034 L303.9691 111.5457 L302.8222 111.4336 L302.2625 113.5893 L300.0238 115.8281 L299.7435 117.4234 L298.6241 117.1426 L297.8684 115.2123 M302.6946 95.9375 L305.7992 89.6957 L306.9553 90.0596 L309.5193 91.8001 L307.6818 93.4943 L305.7992 92.4699 L304.905 93.944 L303.3552 96.4992 L302.6946 95.9375 M323.4749 103.2631 L323.5308 101.8074 L324.0905 101.5002 L326.6654 102.2267 L327.0007 101.8351 L327.7006 101.8351 L331.7302 103.7667 L330.7793 105.7537 L329.5473 105.5295 L328.9042 104.2981 L328.6239 104.7173 L326.245 104.3824 L324.6502 103.234 L323.4749 103.2631 M332.8779 104.4378 L333.1573 103.5703 L333.8013 103.5149 L334.5286 103.8498 L335.3127 104.774 L336.5997 104.7173 L339.4541 105.4741 L337.9427 106.3404 L336.9918 106.9561 L335.8724 106.4248 L334.1933 105.697 L334.361 104.9415 L332.8779 104.4378 M335.0883 111.3229 L336.0684 111.1818 L335.6764 108.8877 L337.971 108.8323 L340.7695 109.8396 L339.9295 112.0494 L338.9227 112.4423 L339.062 113.3375 L337.6349 113.2808 L336.488 112.0784 L335.4245 112.1904 L335.0883 111.3229 M337.9985 129.5121 L340.3499 127.6097 L340.2373 127.2735 L339.2864 126.3215 L339.6501 124.1949 L342.5328 122.1803 L342.5044 120.6971 L340.7411 120.7815 L340.8537 119.2982 L342.3643 116.0522 L343.512 115.9401 L342.8965 118.403 L343.6797 119.8862 L346.5624 118.7946 L347.6259 122.3201 L343.5396 124.4467 L342.8406 125.7625 L342.0849 125.7902 L342.029 126.4626 L342.7847 126.6024 L343.6238 128.1977 L340.8537 129.6809 L339.9579 129.1483 L338.2788 130.6315 L337.9985 129.5121 M338.8944 106.6766 L340.1539 105.9778 L344.9667 107.7406 L345.0793 108.86 L346.1704 108.9997 L346.2546 110.2589 L344.5197 110.1191 L344.5472 111.3783 L345.3312 111.8265 L344.4354 113.8135 L343.5396 113.1133 L343.7639 112.2458 L342.5603 111.7975 L342.3927 110.6781 L343.8474 110.6781 L343.4003 109.5878 L339.3139 107.7406 L338.8944 106.6766 M345.051 81.9389 L345.6666 81.3785 L348.9413 80.9025 L348.9972 77.4611 L351.2635 76.1176 L350.2283 74.8583 L349.1365 75.0825 L349.0806 74.298 L351.6272 73.7943 L352.915 75.7536 L353.5022 75.9501 L354.5099 78.272 L351.5437 77.7407 L350.1725 78.16 L349.7804 80.5953 L350.6204 80.9592 L350.2842 81.4629 L348.269 82.2461 L347.7093 85.044 L345.8067 84.1777 L345.051 81.9389 M349.8088 70.101 L351.7114 69.9046 L351.5996 68.8695 L350.4802 67.3017 L351.2076 65.7353 L351.7398 66.9668 L352.4946 66.9668 L352.6906 66.3511 L351.8791 65.0918 L352.2436 64.6712 L354.5382 65.5678 L354.6775 64.7833 L355.741 65.1195 L353.3905 70.3529 L353.6707 71.8362 L351.8791 71.4723 L349.8363 72.1435 L349.8088 70.101 M356.0488 96.49 L356.5526 93.3836 L357.4201 93.4957 L357.3642 95.2031 L361.3104 94.4476 L361.5898 96.3779 L360.4704 96.3225 L360.4988 98.3939 L361.2261 98.6457 L361.1703 100.7724 L359.7431 100.5483 L359.603 99.065 L358.2317 96.9383 L356.0488 96.49 M360.2185 79.9795 L360.7507 78.636 L362.102 78.2061 L362.5974 78.0479 L362.7651 75.7813 L361.282 74.7186 L362.7376 72.9834 L362.8777 74.0461 L367.3828 77.6563 L368.3345 77.713 L369.3696 76.0332 L369.9293 76.0332 L370.293 77.9925 L368.2227 78.2444 L368.5021 79.3915 L365.5635 82.0786 L363.6893 78.9155 L363.0554 79.1106 L360.2185 79.9795 M376.5338 63.3843 L377.3454 59.327 L378.9403 59.0752 L379.3882 57.8713 L380.48 58.263 L379.7802 61.9009 L378.6892 62.4046 L377.8776 64.6435 L378.5491 65.0074 L378.9686 67.9742 L377.8209 68.3091 L376.5897 66.798 L377.2895 64.9231 L376.5338 63.3843 M382.1307 81.4352 L383.4745 78.8034 L384.146 78.748 L385.3771 81.0423 L386.8327 81.3231 L387.0003 83.3932 L384.146 82.8895 L382.1307 81.4352 M389.4626 90.1664 L389.4626 88.2625 L391.3661 85.0163 L392.3737 84.7922 L393.4363 83.8415 L394.5557 83.8415 L394.836 82.6654 L393.4931 82.7221 L393.996 80.5386 L395.3957 80.8195 L396.6268 80.147 L396.7953 83.1691 L395.1154 84.1777 L394.4998 85.2405 L394.9478 86.2478 L389.4626 90.1664 M394.3881 93.3559 L397.6344 92.2932 L397.5786 90.6701 L396.963 90.1664 L397.355 89.047 L399.3135 90.2772 L399.7614 92.2365 L403.5116 93.4126 L403.1196 97.1624 L401.7199 97.6661 L401.5523 96.6587 L399.5938 94.4199 L398.8097 94.7548 L398.6979 96.602 L396.2915 95.3152 L396.123 94.2512 L394.4998 94.532 L394.3881 93.3559 M398.3618 87.1431 L399.5938 84.2885 L398.6421 79.9228 L400.4888 80.8748 L401.0485 84.9609 L400.0968 85.1284 L399.985 87.2552 L401.3846 87.5347 L403.9587 83.9536 L405.918 84.5693 L406.366 85.8008 L409.3321 88.4313 L404.4066 88.5433 L403.6793 90.5013 L399.4812 89.1578 L399.7614 88.4313 L398.3618 87.1431 M399.7147 167.6873 L402.0694 166.8225 L402.4056 163.7481 L403.7026 163.4119 L404.1355 167.7835 L405.5285 168.1197 L407.3544 168.5047 L406.1533 171.0029 L403.7151 171.0451 L403.6309 169.9469 L403.8745 169.3168 L402.635 168.5455 L402.5974 170.4255 L400.9642 170.2343 L401.0126 168.5047 L399.7147 167.6873 M403.9737 206.974 L404.656 206.8738 L405.2266 207.2878 L405.5402 206.8171 L406.2108 206.6616 L406.3568 207.4894 L406.2333 207.6226 L406.0323 208.5296 L405.2599 209.1887 L405.3717 210.3751 L406.4686 210.296 L406.6471 213.0142 L405.8864 213.0367 L405.2382 210.7442 L404.1305 209.9493 L404.4659 209.223 L404.1864 208.5968 L404.1414 207.8691 L403.9737 206.974 M409.6115 209.9348 L409.8184 209.5973 L411.3064 209.2731 L411.8661 208.6469 L411.2055 205.5371 L410.6241 205.7942 L410.5908 205.4026 L411.2839 204.9558 L411.8544 205.1337 L412.4583 205.0335 L412.4925 204.7422 L411.1388 204.4403 L411.0378 203.5228 L411.7535 203.5228 L412.4925 204.0936 L413.2866 204.1938 L413.6336 204.787 L413.1073 206.1079 L413.2191 207.5171 L412.4709 209.0885 L411.7101 209.4906 L410.8377 209.5802 L410.3455 210.0284 L409.6115 209.9348 M410.6733 173.1703 L411.9595 172.2079 L411.0537 168.6009 L412.2548 168.2159 L412.9755 166.4388 L411.6784 165.6702 L411.5341 163.988 L413.6478 163.0757 L413.2157 161.2498 L417.8284 160.4812 L418.645 158.944 L414.1282 159.2314 L414.3685 156.6368 L415.618 154.4272 L419.0771 155.8682 L420.6627 152.0726 L422.3443 152.9863 L423.2093 150.4879 L425.1311 152.3126 L425.7533 153.5466 L424.3587 153.5321 L424.3737 154.3561 L427.1179 155.0311 L426.5182 156.0515 L424.4546 155.7693 L423.5187 157.3224 L423.789 157.851 L427.7252 157.7416 L428.3015 156.3007 L429.2624 156.4931 L429.3108 159.2802 L429.0222 161.9221 L427.7252 161.9221 L426.524 160.145 L425.7074 161.7297 L426.62 163.5081 L422.5845 164.9003 L422.5361 169.0333 L424.6506 170.3306 L422.3443 172.5876 L422.5845 173.8848 L424.1301 174.2104 L425.1261 175.563 L426.2221 176.4595 L427.1997 175.7568 L427.1488 174.7984 L428.782 174.0298 L430.9924 175.3745 L430.3201 177.8253 L431.6647 179.17 L432.578 179.17 L432.9142 180.516 L430.7522 183.4466 L426.6884 182.732 L426.2329 183.5402 L425.3496 183.7076 L425.227 183.0616 L425.6399 181.8686 L425.0702 181.3702 L423.6605 182.5106 L422.2592 180.686 L420.6402 181.5601 L419.6309 180.0994 L415.5221 181.7644 L413.4076 179.6511 L414.1282 178.7863 L412.4742 175.7542 L413.4918 174.9157 L412.5017 174.159 L411.0979 173.9758 L410.6733 173.1703 M413.662 202.6949 L414.0899 201.4927 L414.3776 200.6819 L416.2577 200.0557 L416.5705 200.6371 L415.6755 202.0687 L418.3605 202.1584 L420.1506 199.071 L420.636 199.0829 L420.6026 198.3222 L420.0204 198.2431 L418.9695 199.3847 L418.2755 199.4401 L417.75 200.0557 L417.8059 200.3906 L417.3696 200.4354 L417.1236 199.5403 L417.9735 197.729 L418.343 197.6393 L418.1303 196.8668 L418.4656 196.2301 L419.54 196.1405 L419.7969 195.5472 L420.2782 195.7041 L419.9979 196.5649 L420.8929 196.5425 L421.1949 195.1003 L422.18 196.6889 L422.884 196.7561 L422.8397 197.6275 L421.6987 197.7171 L421.7162 198.5793 L422.8397 199.3505 L422.6045 200.38 L422.0231 199.6299 L421.7771 199.5746 L421.4526 200.4802 L421.0898 200.3682 L420.5084 201.084 L423.0858 202.0912 L423.5112 200.9509 L424.2152 201.3424 L424.714 200.3682 L423.3269 199.3834 L424.0434 198.2207 L425.0276 198.6228 L427.9804 195.9388 L427.0854 194.3278 L427.7569 192.3596 L425.4305 189.2273 L425.8326 184.1703 L427.4441 184.9758 L426.8176 188.7343 L428.8312 189.1377 L428.4283 187.7508 L429.9047 187.8392 L430.3076 189.0929 L431.4712 189.048 L432.0075 191.5093 L431.4261 193.4327 L430.084 192.27 L428.6068 194.954 L429.7863 197.1582 L430.8381 198.5226 L432.1576 197.8859 L432.583 197.1133 L433.388 197.1252 L434.1045 198.5345 L434.7309 198.4105 L434.7818 200.525 L433.4664 200.3906 L432.3929 199.5298 L432.0234 198.5793 L431.1959 198.9141 L430.889 200.2785 L428.3499 200.3576 L427.359 201.0734 L427.354 202.6053 L428.2048 202.4721 L427.5333 205.2009 L426.7718 206.0684 L425.3621 205.6096 L425.116 206.2806 L424.8875 206.4928 L424.709 206.9186 L424.9993 206.9186 L425.2236 207.6569 L425.4697 207.6793 L425.8042 208.1433 L425.7758 209.2005 L425.1719 209.0213 L424.9259 208.0484 L424.5622 207.7847 L424.2436 207.881 L423.9475 208.3555 L423.2927 208.4346 L423.1867 208.0141 L424.1201 207.3998 L424.3336 206.3874 L425.3296 203.3778 L424.8149 202.4945 L424.1326 202.4721 L423.3719 204.6644 L421.7654 204.2953 L421.6428 204.5853 L422.0674 205.3249 L420.0096 204.9663 L418.539 204.0817 L417.9185 204.5576 L417.9518 204.9043 L417.4881 205.1785 L416.7666 204.435 L416.6439 204.116 L416.2577 203.59 L414.8706 203.2763 L414.2884 203.59 L413.662 202.6949 M414.1257 206.8119 L414.4836 205.8838 L414.3718 205.1113 L414.718 204.5748 L415.2551 204.5075 L415.9933 205.0559 L415.6472 205.5371 L415.3444 206.2859 L415.603 208.0813 L414.9765 208.1262 L414.9865 207.852 L414.4719 207.852 L414.1257 206.8119 M414.5061 210.3132 L414.7755 209.4233 L415.2001 209.223 L415.7147 208.8644 L416.0058 208.3055 L416.7098 209.4299 L416.6197 209.9783 L415.8932 209.8887 L415.0766 211.2307 L414.5061 210.3132 M415.5629 213.585 L415.7306 212.6227 L416.2678 212.4105 L416.7932 213.0261 L417.3079 211.9412 L416.9834 210.644 L417.3029 210.1167 L417.4372 210.8563 L417.9076 210.6322 L418.1762 210.1616 L418.8919 209.8043 L418.8694 209.223 L418.8243 208.9092 L418.0636 208.7748 L419.1872 208.2936 L420.138 206.9859 L420.0154 205.8785 L420.8762 206.1356 L420.4959 208.0484 L419.9812 208.3055 L419.9479 209.099 L419.4449 209.8715 L418.8402 210.1958 L418.3255 211.315 L417.7558 211.5378 L417.6215 212.69 L417.9794 213.5073 L417.5314 213.5969 L416.9834 213.4176 L416.5021 213.8869 L415.809 213.966 L415.5629 213.585 M417.2795 116.1919 L418.0077 114.9605 L420.1906 114.5689 L420.8621 111.4903 L422.0932 111.4903 L421.4217 114.0086 L422.8764 114.1773 L422.4294 116.6956 L423.492 117.7583 L424.332 115.7437 L426.1787 116.304 L426.9628 114.9038 L427.8019 115.5195 L426.9069 117.1426 L427.746 118.4861 L429.7612 118.4307 L426.5149 122.1803 L425.0593 121.061 L421.6453 119.997 L419.8544 120.3899 L418.5107 122.3478 L417.7275 121.1164 L418.6233 119.7175 L417.7833 118.9343 L417.2795 116.1919 M417.3137 192.6272 L418.5441 188.6565 L419.0028 188.8015 L419.3381 188.2426 L418.846 187.739 L418.5332 185.9382 L417.8284 185.9382 L417.3805 184.6067 L417.9176 182.0676 L418.8235 182.2799 L418.5441 182.7953 L418.2087 182.7729 L418.0186 183.3648 L418.645 184.6291 L419.1596 184.5289 L419.4949 182.359 L419.9762 182.235 L420.3674 184.6291 L422.0565 184.4841 L421.9898 183.6456 L423.4103 183.4663 L423.6447 183.9699 L424.4279 183.8131 L424.518 185.6363 L424.1034 185.6363 L423.7681 184.6186 L422.4369 185.0997 L422.4035 185.7141 L423.4887 186.016 L423.0633 186.7212 L421.6878 186.6659 L420.9488 186.0608 L420.1439 186.8887 L420.088 187.8181 L420.9605 188.3546 L420.0204 189.1034 L419.8753 189.9089 L419.1813 189.7309 L418.3989 192.1685 L417.8843 192.7287 L417.3137 192.6272 M420.8062 128.3374 L422.8764 126.2108 L422.8206 125.1468 L424.4996 123.3564 L426.6266 123.3564 L425.7875 125.5951 L421.0856 129.4568 L420.8062 128.3374 M429.2716 208.8921 L429.5961 208.2659 L430.6204 208.3331 L431.784 208.4676 L432.2319 209.0489 L433.3104 208.378 L434.3005 208.8143 L435.8895 211.174 L437.1248 211.0962 L438.1091 209.6316 L438.9031 209.8096 L438.5678 210.5597 L437.8855 210.9617 L438.0482 211.4759 L439.3953 210.5373 L441.7174 211.957 L441.0176 213.0432 L439.2118 213.9265 L438.7196 217.3275 L436.1964 219.2284 L435.0996 219.5198 L435.0328 220.4926 L433.3996 220.9856 L432.7457 220.9738 L433.3212 219.2403 L433.1377 218.278 L435.1396 217.8641 L435.9003 216.3876 L434.2454 215.4477 L433.7525 212.7625 L433.1603 212.7282 L432.4821 212.9866 L431.487 211.3651 L431.2852 210.6269 L430.8156 209.161 L429.8421 209.6422 L429.2716 208.8921 M436.0063 206.5548 L436.7111 206.5324 L437.1356 205.7493 L438.1199 206.5324 L438.5228 207.181 L439.4353 206.4981 L441.2136 206.0183 L441.1628 204.8991 L438.7463 205.6597 L438.5453 205.168 L440.3912 204.261 L440.3754 203.0983 L441.8517 202.3825 L444.5368 203.6124 L445.2074 204.1714 L444.1789 206.767 L445.2524 207.3484 L447.4386 207.2825 L448.5639 207.036 L448.5347 206.4322 L447.472 205.6149 L448.2886 204.9663 L449.3513 205.5819 L450.4431 205.0217 L450.1745 204.0817 L447.9975 204.6077 L447.7072 204.0831 L446.5503 204.6196 L445.3867 203.3659 L445.8788 202.3825 L445.7896 200.0557 L442.2096 200.9944 L441.6724 198.8021 L442.7467 198.0414 L443.0153 197.2359 L445.3417 198.7572 L446.1474 197.3256 L448.3395 197.9966 L447.5788 199.6075 L448.4738 200.2785 L449.0109 198.1759 L450.4873 199.2055 L453.7988 199.8316 L453.6645 203.0535 L455.3202 203.2328 L454.7063 205.1456 L454.6854 205.8799 L456.0359 205.6478 L455.9917 209.1834 L454.9448 209.7423 L455.4028 210.5821 L456.5438 209.944 L456.4996 211.286 L455.2802 212.5054 L454.0832 212.2378 L454.3359 210.0785 L453.9589 208.7075 L452.5509 208.9488 L452.5284 211.4429 L452.0471 211.7224 L451.3315 209.2955 L450.353 209.3627 L449.1719 208.49 L448.4004 208.5796 L447.422 207.9087 L444.8946 207.9311 L443.5075 208.6469 L442.2988 207.3932 L440.0617 207.9746 L439.3511 207.6397 L437.7621 207.8296 L436.3975 208.4795 L436.0063 206.5548 M450.5582 128.435 L451.6226 128.0526 L451.9829 127.6031 L451.6676 127.2049 L451.6601 126.2609 L451.9153 125.9458 L452.1622 126.5378 L452.5151 126.4929 L452.4625 125.8706 L454.1199 125.1205 L454.1124 125.7652 L453.737 125.6083 L453.1373 125.9682 L452.9872 126.3571 L452.3274 127.1377 L452.4475 127.8272 L453.737 127.4448 L453.3025 128.9676 L452.1848 129.0191 L452.2448 128.5101 L451.9304 128.4047 L451.4574 129.0942 L450.5582 128.435 M452.2323 194.5967 L454.8723 193.6568 L455.678 195.625 L457.6465 194.5519 L458.0494 195.6698 L457.0201 196.4753 L457.3788 197.4601 L461.2266 198.4448 L458.7209 199.742 L458.7659 200.7267 L457.1995 201.084 L456.4838 200.5026 L456.8858 197.729 L456.2594 196.6994 L453.1723 197.3704 L452.2323 194.5967 M455.8515 139.4042 L456.3095 139.0074 L456.744 139.1722 L456.3837 139.8775 L457.0368 140.1096 L457.2086 139.4504 L457.7116 139.4952 L458.6033 138.0924 L459.2631 137.7628 L459.4432 137.4174 L459.736 137.5228 L459.5408 138.2045 L459.0237 138.2796 L458.5507 139.4042 L458.9336 139.7496 L459.7585 138.7081 L460.4709 138.8426 L460.9805 139.4345 L459.3982 140.1016 L459.6534 141.2197 L460.2381 141.7668 L459.9012 142.2388 L459.0687 142.1715 L459.0837 142.6145 L458.6183 142.6369 L457.9735 142.1715 L457.936 141.6771 L457.1936 140.9573 L456.1143 140.6198 L456.1969 139.9975 L455.8515 139.4042 M462.6587 204.3507 L462.9715 203.6348 L466.9536 203.9486 L469.0572 201.7102 L469.8622 200.0109 L470.8022 200.7716 L470.4444 202.1584 L468.8329 203.4556 L468.6994 204.932 L469.3258 205.0217 L471.6071 208.5572 L466.8418 210.2525 L467.0879 208.9593 L465.6132 207.6991 L464.3487 207.9891 L464.9851 205.4251 L462.6587 204.3507 M34.122 38.3416 L34.9945 39.9068 L35.6885 39.6615 L35.7327 38.6092 L36.1806 38.2519 L36.9188 36.059 L36.113 35.9918 L35.867 36.9992 L34.6592 36.8871 L34.122 38.3416 M35.3523 28.2514 L35.6209 28.8105 L35.5091 30.6447 L36.5835 31.5625 L36.7169 32.6807 L37.7687 32.9945 L38.798 36.1039 L39.2676 35.8124 L39.5137 34.2472 L38.9098 33.5088 L39.4245 31.5625 L38.5745 29.7718 L36.6502 29.727 L36.4709 29.1678 L37.0305 25.924 L36.2248 25.3873 L35.957 25.6115 L35.8228 26.6848 L35.3523 28.2514 M41.272 52.5179 L41.5281 53.3855 L42.3389 53.3565 L42.7793 52.6603 L43.2631 51.579 L43.8886 51.5659 L44.244 52.1052 L45.6086 52.2331 L46.1775 51.8494 L46.8172 50.598 L46.0498 50.1431 L45.3242 49.9018 L45.5944 50.8551 L44.7269 50.925 L43.3056 50.9962 L42.8935 50.329 L42.3105 50.2578 L41.8693 50.6415 L41.7416 51.438 L42.4239 52.063 L42.3814 52.4612 L41.272 52.5179 M42.5374 54.8491 L42.7367 55.5612 L43.505 55.9159 L43.9028 55.2342 L43.746 54.6078 L42.9219 54.5657 L42.5374 54.8491 M43.8177 53.5701 L43.9737 53.9973 L45.6653 54.3942 L45.9639 53.9538 L45.7512 52.9451 L45.3817 52.9016 L44.9688 53.5134 L44.073 53.3855 L43.8177 53.5701 M79.5763 42.0746 L81.3279 43.3826 L81.2812 43.9193 L84.0838 43.2429 L83.7101 41.7014 L81.725 42.9857 L80.6973 41.7251 L79.5763 42.0746 M80.2769 50.0613 L81.398 51.7201 L80.9542 53.4251 L80.3003 54.149 L81.3046 54.592 L81.9585 54.0791 L81.9118 51.8836 L83.0328 51.7201 L83.4999 52.5139 L84.6444 52.7236 L85.1106 51.6265 L84.1072 50.5993 L84.4342 48.8707 L83.3907 47.8303 L82.2705 47.196 L82.6825 49.2913 L81.7016 49.7581 L81.071 48.5674 L80.6273 48.5436 L80.2769 50.0613 M85.1106 36.9834 L85.2741 38.8993 L86.8389 43.5461 L91.183 44.9478 L92.7711 44.1303 L93.3784 47.1433 L93.7521 47.3529 L94.4761 49.3612 L93.7053 49.3849 L95.0099 51.736 L96.0901 51.579 L97.5114 50.482 L97.2779 49.969 L96.0634 49.4785 L96.6706 47.0259 L96.3437 45.9051 L97.3246 45.9513 L97.3246 44.4573 L95.9933 44.3874 L95.97 42.3554 L95.4094 41.7251 L94.1725 41.5616 L92.631 43.0319 L91.3465 42.5651 L90.7626 43.3127 L88.8942 42.7985 L87.0958 36.4005 L85.1106 36.9834 M87.1192 50.7628 L88.4037 52.2568 L89.1744 51.2995 L88.2402 49.8978 L87.1192 50.7628 M88.6606 52.8409 L89.0109 54.5221 L89.6649 54.4984 L90.1554 53.3776 L89.9218 52.9108 L88.9642 52.7473 L88.6606 52.8409 M282.4823 74.0409 L282.5149 75.0654 L284.3975 75.2631 L287.6672 76.9482 L288.2619 76.7821 L289.3187 76.0556 L290.7392 75.9237 L290.8051 74.1727 L289.418 73.6783 L286.5778 73.942 L285.0914 73.7442 L283.8036 72.6867 L283.3081 73.3803 L284.3316 73.909 L284.1664 74.5037 L282.4823 74.0409 M337.0752 110.3143 L337.1035 111.4903 L339.0904 111.9663 L339.5383 111.1541 L338.4465 110.0347 L337.0752 110.3143 M361.0026 123.86 L361.9535 124.5311 L363.017 123.8033 L363.4649 121.9562 L362.9611 121.3405 L361.7858 122.2357 L361.0026 123.86 M363.59 131.7535 L363.7685 132.5801 L365.0214 132.8267 L365.4017 131.8866 L364.5067 130.8358 L364.1714 130.8134 L363.59 131.7535 M364.5292 127.2339 L364.5968 128.1291 L365.9164 128.4192 L366.9907 127.0322 L365.4693 126.2714 L364.5292 127.2339 M364.7086 121.3497 L365.1782 122.7591 L366.0732 122.7591 L366.6996 121.7518 L365.6928 120.9028 L364.7086 121.3497 M373.4276 132.8702 L373.7079 134.1016 L378.2413 133.9341 L376.674 131.1351 L375.6664 131.1351 L375.3302 133.0389 L373.4276 132.8702 M379.4724 137.9632 L379.8086 139.0271 L380.5359 139.0271 L381.7112 136.9006 L383.6697 136.1728 L384.7332 135.1655 L383.7823 134.0462 L381.6553 134.2703 L381.3083 137.101 L379.8086 137.1247 L379.4724 137.9632 M380.9505 124.6155 L381.0406 125.2431 L382.2484 125.1086 L384.0617 123.2997 L382.7747 122.5719 L381.1732 122.9318 L380.9505 124.6155 M387.4257 226.8583 L388.5476 227.2999 L389.2082 226.8412 L391.1434 226.886 L391.1876 226.1135 L392.0842 226.6118 L392.3403 226.9532 L394.0853 225.9013 L395.9195 226.4049 L396.244 227.0877 L395.6284 227.7244 L396.8145 228.721 L396.289 229.3695 L395.047 228.485 L394.4098 227.7468 L393.4589 228.4626 L392.8433 227.9261 L391.7915 228.4415 L392.5522 229.3577 L393.1244 229.2746 L393.0902 230.8064 L394.1971 230.7457 L394.454 230.3424 L394.4098 229.5712 L396.1097 230.1077 L396.3841 230.6785 L398.1291 230.2527 L398.1349 228.4468 L397.2616 228.2121 L397.0939 227.4792 L397.5027 227.0877 L397.3008 226.0252 L396.7645 225.8182 L396.4191 225.1591 L397.2474 224.5488 L396.7728 224.036 L396.0763 224.1626 L395.4474 224.4644 L395.1179 224.1586 L394.1979 224.3194 L393.7917 223.4995 L392.5046 223.0012 L392.045 222.495 L392.2978 220.9553 L391.5012 220.8024 L391.3327 221.9664 L391.8532 222.5332 L391.4245 222.9933 L391.0374 222.963 L390.6813 223.2543 L390.6195 223.8211 L389.1865 224.8559 L387.4257 226.8583 M389.2749 228.6419 L389.8788 229.1454 L391.311 228.9886 L391.1317 228.34 L390.5953 228.3176 L390.5278 227.8364 L390.069 227.6466 L389.2749 228.6419 M389.883 129.1759 L390.0507 132.3112 L391.0024 134.3257 L390.778 136.0607 L391.6739 136.2849 L392.6256 135.333 L392.7415 133.565 L392.2044 132.9163 L391.5112 132.6922 L392.1151 131.2155 L391.5062 128.8964 L392.8491 128.7844 L393.0168 127.7217 L391.9533 127.0493 L389.883 129.1759 M392.8308 111.551 L393.0994 112.7139 L394.0169 112.7811 L394.3747 110.8786 L394.8894 110.2075 L393.6807 110.1191 L392.8308 111.551 M393.5656 179.2187 L393.7124 180.3934 L394.2846 180.6649 L393.8826 181.7051 L394.464 182.2074 L395.1897 182.2126 L395.5834 181.0446 L395.1012 179.5246 L394.4298 178.5939 L393.5656 179.2187 M395.3248 151.5822 L396.5401 151.9421 L397.0948 149.2724 L396.465 149.0628 L395.6251 150.368 L395.3248 151.5822 M396.3432 177.9584 L397.5627 179.1106 L398.1775 179.1106 L398.5136 178.5398 L396.9697 177.3204 L396.5109 177.4324 L396.3432 177.9584 M397.2916 144.484 L397.6945 146.0028 L398.5194 146.2282 L399.1192 145.6284 L399.4945 146.8281 L400.6281 147.4266 L399.4645 148.5974 L398.8347 149.7971 L398.8347 150.248 L399.6739 150.2177 L400.3495 151.5967 L401.2036 151.627 L400.8742 152.6316 L398.939 152.0476 L398.3218 153.2262 L399.0291 154.041 L401.0718 153.1221 L402.1453 153.6151 L402.8685 153.6072 L403.1538 152.3772 L404.0079 152.422 L404.7128 150.8175 L403.8736 150.3073 L403.8436 148.6725 L404.6235 149.4227 L405.9731 148.9428 L406.6779 148.2981 L406.6329 147.6982 L405.823 146.7226 L405.4176 146.6936 L405.2833 148.5222 L404.6977 148.7332 L403.1988 146.9784 L403.6484 146.4985 L404.2632 146.8136 L404.8754 146.749 L405.2833 145.958 L405.0689 145.4359 L404.113 145.1788 L403.6034 145.6139 L402.0811 145.4095 L401.8034 144.339 L402.5382 143.8736 L402.3213 143.3766 L400.3787 143.6336 L400.5138 144.9388 L399.1792 145.2684 L398.3693 144.339 L397.2916 144.484 M398.5019 131.9196 L399.789 133.0943 L399.6772 134.886 L401.1678 134.153 L401.1286 133.5412 L400.0492 132.5959 L400.6698 131.8431 L400.7015 131.0428 L399.9441 130.0474 L398.8381 130.4074 L398.5019 131.9196 M403.3715 122.9081 L403.7068 125.1468 L404.9947 125.2022 L405.4426 124.1949 L404.2181 122.1777 L404.4458 121.5317 L403.3907 121.6622 L403.3715 122.9081 M404.5935 130.7963 L405.0581 131.5768 L405.853 131.8167 L406.3326 131.321 L406.0632 130.5563 L405.3283 130.0764 L404.6535 130.2267 L404.5935 130.7963 M405.5385 187.0192 L405.9522 187.6797 L406.5228 187.4331 L406.9257 186.7173 L406.6904 185.867 L405.9297 185.7101 L405.561 186.2809 L405.5385 187.0192 M406.366 181.9569 L406.9065 182.7307 L407.9308 182.7255 L408.2194 181.7644 L407.9791 180.5634 L407.4503 180.4672 L406.6904 180.922 L406.366 181.9569 M406.441 113.7634 L406.8556 114.1615 L407.9975 112.7112 L408.5071 112.6057 L409.212 114.6309 L408.5972 114.8709 L408.6881 115.5195 L409.3321 115.9203 L410.0319 115.6883 L410.0069 115.0053 L409.272 113.6552 L410.0369 113.2056 L410.4231 111.994 L411.9003 112.0164 L412.4667 111.6314 L412.4175 110.8706 L411.6509 110.2154 L410.6366 110.2365 L410.5015 109.5166 L410.0469 109.3439 L408.8008 111.4903 L407.3452 111.2662 L406.441 113.7634 M406.562 107.4044 L409.0802 108.6912 L412.4942 107.8527 L412.5501 105.1102 L409.4163 104.774 L407.849 103.5979 L406.562 107.4044 M406.9173 146.4682 L407.7423 147.5624 L407.9374 148.1175 L408.2669 148.103 L408.7924 147.5783 L408.2519 146.6936 L407.4278 146.1531 L406.9173 146.4682 M406.9607 221.5169 L407.095 221.7397 L407.2068 221.6948 L408.7057 221.4721 L408.5605 220.2857 L408.0342 220.0062 L407.296 219.8388 L406.9607 221.5169 M407.4845 195.3086 L407.7314 195.9796 L408.2452 196.2037 L408.6256 195.8676 L408.7941 195.3983 L408.4354 194.7932 L408.0551 194.8156 L407.4845 195.3086 M407.6905 177.5853 L408.9843 178.1153 L409.6123 178.0177 L410.449 176.996 L410.1362 175.8662 L408.2194 176.1919 L407.6905 177.5853 M408.5155 226.8306 L408.885 227.0982 L409.624 226.7357 L409.1978 226.0476 L409.4997 224.8059 L410.0511 224.2693 L409.5573 223.6471 L408.9517 223.8884 L408.5263 225.0181 L408.9067 225.5665 L408.8174 226.1359 L408.5714 226.4049 L408.5155 226.8306 M408.8583 129.698 L409.227 130.1213 L410.0369 129.9485 L409.8718 129.1166 L409.272 128.6525 L409.8567 127.9498 L410.6366 127.5872 L411.8703 128.3519 L412.4383 128.1977 L412.4967 127.5424 L412.0463 127.2128 L412.0605 126.2213 L412.631 126.133 L412.8821 124.7249 L413.3659 124.5575 L412.8112 124.0486 L411.7468 124.1237 L411.1438 124.4401 L409.3604 124.9411 L408.8583 129.698 M409.0076 229.0558 L409.4889 229.4816 L410.5065 229.2799 L410.7643 229.5936 L411.4249 229.587 L411.771 229.2351 L411.7377 228.7816 L409.9819 227.9551 L409.1311 228.5298 L409.0076 229.0558 M411.2814 151.8221 L412.661 152.302 L413.531 151.1023 L412.7811 150.277 L413.3058 149.482 L413.1115 148.8821 L412.4216 148.7477 L411.3114 150.832 L411.2814 151.8221 M414.3685 165.6214 L415.618 165.7651 L416.5789 164.6129 L419.8937 166.0539 L420.9989 164.5641 L422.7764 164.0355 L423.3052 161.2498 L422.7764 159.4239 L419.173 160.1925 L417.1552 161.6334 L415.5221 163.1232 L414.3685 165.6214 M415.0416 172.3002 L416.2294 173.3996 L417.2287 173.2705 L417.8117 172.8354 L416.2427 171.1466 L415.618 171.3866 L415.0416 172.3002 M415.497 255.4946 L415.8098 256.5241 L418.987 254.1976 L419.7477 252.4523 L419.1213 251.9593 L417.5106 252.3627 L416.3019 252.4971 L415.497 255.4946 M416.9042 175.2479 L419.5575 177.1042 L419.9904 176.4793 L418.7943 175.5525 L419.0629 174.4121 L418.8852 173.7411 L418.2913 173.7068 L418.0895 174.457 L417.3479 174.4622 L416.9042 175.2479 M417.3312 249.0514 L419.1655 250.6622 L423.7297 252.3627 L425.2061 250.8415 L424.6248 248.6046 L424.1326 246.5456 L422.6562 246.2767 L421.4476 250.0809 L417.6891 248.3357 L417.3312 249.0514 M417.8234 262.6983 L417.8684 263.7278 L420.0163 264.4435 L421.2241 263.1017 L420.9113 262.6983 L417.8234 262.6983 M423.6405 254.5548 L423.6847 255.3602 L425.7433 256.4345 L424.4905 258.1797 L425.0718 258.5369 L428.249 255.2705 L423.6405 254.5548 M426.3247 281.9389 L426.8618 282.7443 L428.7862 283.1028 L428.8754 284.7583 L431.2918 285.3844 L429.5469 277.0171 L430.7997 276.0325 L429.5018 275.1375 L428.249 275.094 L426.459 277.1067 L428.8312 279.3436 L429.0989 281.4024 L426.3247 281.9389 M436.3925 225.0682 L437.8138 226.6685 L438.416 226.3179 L437.6011 221.6672 L436.3925 221.7568 L436.3925 225.0682 M438.1266 227.5253 L438.225 228.4178 L438.9482 228.692 L439.7089 227.9089 L440.4696 228.7592 L441.4539 228.7592 L441.4939 228.2003 L440.5539 226.9915 L438.1266 227.5253 M438.18 230.5875 L438.8097 231.7463 L440.9117 231.824 L441.2704 231.2203 L441.096 230.4373 L440.2452 230.3925 L439.5521 229.6094 L438.18 230.5875 M441.8009 205.4356 L442.449 205.8271 L443.5567 204.3058 L443.2439 203.859 L442.7067 203.8814 L442.6175 204.6974 L441.946 204.7541 L441.8009 205.4356 M442.2371 221.7238 L442.9369 222.6743 L444.0555 222.7639 L444.3124 221.5775 L443.4674 220.9962 L442.5499 221.1636 L442.2371 221.7238 M444.9838 225.4254 L446.0582 227.3948 L446.9131 227.3039 L447.0016 226.3561 L446.084 225.8578 L446.1232 225.2791 L447.1817 223.742 L446.371 223.1884 L444.9838 225.4254 M445.7896 232.2274 L447.6238 233.3452 L448.2052 232.9432 L449.1452 230.5717 L448.6531 229.2298 L447.4003 228.7816 L445.7896 230.9738 L445.7896 232.2274 M447.6805 227.354 L448.4304 228.1225 L449.6991 225.1921 L448.5589 224.62 L447.6805 227.354 M449.7358 232.5438 L450.1554 234.5791 L450.5149 234.7188 L450.9936 234.38 L450.7542 233.6221 L451.173 232.644 L450.3747 232.0653 L449.7358 232.5438 M450.8735 228.1528 L451.3131 228.9319 L451.7719 229.1112 L452.5501 228.5325 L451.7919 226.8952 L451.4324 226.596 L450.9336 226.8952 L450.8735 228.1528 M451.0695 238.7156 L454.4252 239.8334 L454.9173 238.4018 L451.3381 237.0151 L451.0695 238.7156 M452.2481 206.4098 L453.345 206.9911 L454.3626 206.1514 L454.0048 205.3578 L452.998 205.5819 L452.2481 206.4098 M452.8596 222.1707 L453.0089 222.7415 L453.3333 223.2451 L455.2309 223.1106 L455.3202 221.4997 L453.3517 221.3205 L452.8596 222.1707 M454.0715 227.8536 L455.1909 227.9538 L455.3252 228.2899 L455.8507 228.514 L456.332 228.1001 L456.0851 227.5517 L454.7205 226.824 L454.3067 226.9256 L454.0715 227.8536 M456.5555 230.0352 L457.4163 230.37 L458.2888 230.4715 L458.7476 230.1921 L458.6133 229.7439 L458.2221 229.5541 L457.4947 227.9538 L456.9359 228.3795 L457.1928 229.3867 L456.5555 230.0352 M462.0482 222.0363 L463.1325 223.0658 L463.4912 223.0882 L463.6588 222.8193 L462.7188 221.5775 L462.1483 221.567 L462.0482 222.0363 M462.7305 223.8712 L462.7413 224.2957 L463.7481 224.9232 L464.8216 225.1578 L465.4489 224.7439 L465.1803 223.4349 L463.7706 224.1507 L462.9982 223.6814 L462.7305 223.8712 M463.5579 219.7096 L463.7481 220.6271 L464.8783 220.6389 L465.0118 219.8111 L464.7657 219.5303 L464.6323 219.4868 L463.5579 219.7096 M465.4489 219.6094 L465.8626 220.7167 L466.4998 220.9738 L467.1154 220.5717 L466.7017 219.3181 L466.1529 218.9384 L465.4489 219.6094 M467.7594 246.5456 L468.1172 249.0514 L469.1265 248.6705 L469.9639 246.2965 L468.3174 246.166 L467.7594 246.5456 M498.6158 231.1794 L500.0696 234.3642 L499.2847 235.2421 L499.585 236.2334 L500.8078 238.0802 L503.5079 238.6114 L504.9851 235.6336 L506.3922 236.0726 L506.8543 234.641 L508.0538 234.6648 L507.9153 236.0265 L509.6236 235.8182 L511.4695 233.0025 L511.0541 231.8267 L512.0 229.9337 L511.2618 229.4948 L510.8464 230.0721 L509.5544 230.0959 L509.3 230.9949 L508.6135 232.9695 L506.9578 233.4836 L505.75 233.5285 L506.1637 232.0073 L504.6982 229.2786 L504.8566 227.8852 L504.2894 227.2103 L504.0759 226.9559 L503.6697 226.4721 L503.0658 225.49 L502.6771 224.8573 L502.1466 225.6416 L500.9922 225.0181 L499.7001 227.7877 L501.0389 229.7716 L499.3999 230.2567 L498.6158 231.1794" stroke-dasharray="" fill="none" fill-opacity="1.0" stroke="#ff0000" stroke-opacity="1.0" stroke-width="1.0px" stroke-linecap="butt" stroke-linejoin="miter" stroke-dashoffset="0.0px"/>
</g>
</svg>