<?xml version="1.0" standalone="no"?>
<!DOCTYPE svg PUBLIC "-//W3C//DTD SVG 1.1//EN" "http://www.w3.org/Graphics/SVG/1.1/DTD/svg11.dtd">
<svg width="128px" height="128px" version="1.1" xmlns="http://www.w3.org/2000/svg" xmlns:inkscape="http://www.inkscape.org/namespaces/inkscape">
<g id="layer" inkscape:groupmode="layer" inkscape:label="layer">
<path d="M0.0 75.9009 L0.2661 75.9009 L0.1157 76.7733 L0.6594 76.8492 L0.4165 78.4992 L12.1706 80.4336 L10.5163 90.5232 L8.8619 100.6696 L7.7628 100.4989 L7.5546 101.8075 L7.4042 102.7937 L9.047 103.0403 L8.7115 105.2592 L11.0832 105.6575 L11.4765 103.742 L62.5076 112.3712 L62.2878 113.8884 L65.0412 114.4384 L65.5618 112.466 L71.8207 113.4522 L71.7397 114.078 L73.4056 114.3435 L73.7758 112.4281 L73.3941 112.3712 L73.9494 109.4505 L85.1135 111.3281 L84.8706 112.978 L86.5944 113.2056 L86.8952 111.5746 L96.0926 113.0729 L95.8033 114.9125 L98.6725 115.4056 L99.0542 113.566 L110.4497 115.3677 L110.1721 117.1883 L111.4794 117.3969 L112.509 115.9177 L114.1866 116.1642 L114.4989 114.0401 L112.7983 113.7746 L115.0542 99.7403 L116.8012 100.0058 L117.0441 98.0524 L115.2625 97.7869 L116.1302 93.33 L124.1706 94.7714 L125.0846 95.1128 L128.0 80.2629 L121.7643 79.0681 L122.2965 75.9009 L119.5893 75.5026 L119.2191 77.9302 L113.7238 76.944 L114.0824 74.6682 L111.4678 74.232 L111.086 76.6595 L105.3362 75.8251 L105.7064 73.3785 L103.1265 72.9803 L102.7448 75.4647 L97.0181 74.5544 L97.3883 72.1079 L94.7621 71.6906 L94.3919 74.1751 L88.4685 73.2458 L88.8388 70.8182 L86.2242 70.401 L85.773 72.8096 L84.188 72.5441 L82.8923 72.3165 L81.9552 71.8613 L82.1403 70.4768 L80.8561 70.2493 L81.3651 67.2148 L82.5915 67.4045 L82.8923 66.0579 L83.3897 66.1338 L83.7484 64.1614 L83.355 64.0665 L83.598 62.5683 L82.5799 62.4166 L83.1931 59.2493 L84.2111 59.42 L84.4541 58.0735 L84.778 58.1304 L85.1482 56.0252 L84.8012 55.9494 L85.0788 54.508 L83.7831 54.2994 L84.2574 51.1132 L85.4953 51.3218 L85.7383 50.0132 L86.1663 50.0891 L87.9364 39.9426 L87.4273 39.8478 L87.6471 38.5771 L86.4902 38.3685 L87.034 35.1633 L88.214 35.334 L88.4338 34.0823 L88.9313 34.1392 L89.3131 32.015 L88.6884 31.8823 L89.0354 30.5547 L87.867 30.3461 L88.3066 26.9892 L89.6139 27.2168 L89.8453 25.8134 L90.3774 25.9271 L90.7014 23.9547 L89.8684 23.784 L91.3608 15.9703 L88.4454 15.1548 L88.1446 16.8806 L80.243 15.6289 L80.4049 14.3203 L77.2003 13.922 L76.8185 14.5668 L73.7296 14.1875 L73.5676 13.4858 L69.1367 12.9358 L68.697 13.5806 L65.6312 13.1824 L65.3999 12.4806 L50.2791 10.6031 L48.7983 19.3272 L60.8764 20.8444 L59.7542 27.1789 L58.0651 26.8944 L57.8221 28.4306 L59.4649 28.6771 L59.3377 29.5875 L55.624 29.1702 L55.2307 32.7357 L58.8286 33.2478 L58.4816 35.6754 L57.5098 36.0926 L56.1215 35.884 L55.8554 37.5909 L57.1511 37.7995 L55.8438 45.215 L54.4787 44.9874 L54.039 46.7512 L55.462 46.9977 L53.9581 54.9252 L52.6276 54.7166 L52.269 56.5373 L53.5994 56.7649 L52.2111 64.1803 L51.0311 63.9717 L50.7187 65.8872 L52.0376 66.0958 L49.8973 75.332 L48.8677 75.1423 L48.3702 77.0009 L48.9487 77.0957 L47.9769 82.1026 L42.4469 81.2871 L42.5163 80.8319 L41.4056 80.6802 L41.3362 81.0974 L29.6399 79.2009 L29.7209 78.7836 L28.7028 78.575 L28.5987 79.0492 L16.6479 77.1147 L16.7983 76.2802 L16.5206 76.2233 L16.6479 75.3699 L16.1504 75.294 L17.0065 69.5286 L17.4808 69.5665 L17.6312 68.751 L17.8858 68.7889 L18.2907 66.532 L18.013 66.4751 L18.1287 65.5838 L17.6312 65.489 L17.7007 64.9769 L17.1453 64.8821 L17.2379 64.4459 L16.3818 64.2941 L16.4512 63.9907 L14.739 63.6872 L2.9038 63.1183 L2.8576 63.5355 L2.3832 63.5355 L2.3022 64.2372 L1.7007 64.1803 L1.5503 66.2476 L1.9205 66.3234 L1.7007 68.0682 L2.0477 68.1251 L1.3304 71.9372 L1.0644 71.8803 L0.7289 73.5871 L0.3702 73.5303 L0.0 75.9009" stroke-dasharray="" fill="none" fill-opacity="1.0" stroke="#ff0000" stroke-opacity="1.0" stroke-width="1.0px" stroke-linecap="butt" stroke-linejoin="miter" stroke-dashoffset="0.0px"/>
</g>
</svg>