<?xml version="1.0" standalone="no"?>
<!DOCTYPE svg PUBLIC "-//W3C//DTD SVG 1.1//EN" "http://www.w3.org/Graphics/SVG/1.1/DTD/svg11.dtd">
<svg width="512px" height="512px" version="1.1" xmlns="http://www.w3.org/2000/svg" xmlns:inkscape="http://www.inkscape.org/namespaces/inkscape">
<g id="layer" inkscape:groupmode="layer" inkscape:label="layer">
<path d="M105.7377 254.5169 L107.6909 257.572 L116.1646 264.2276 L116.7391 264.5917 L117.0271 264.905 L118.7561 266.263 L121.871 277.8024 L121.1697 277.5674 L121.3947 279.002 L121.4397 283.0791 L123.2525 285.668 L123.848 286.1421 L124.4435 286.6161 L122.0775 286.7563 L121.744 288.5289 L123.7421 291.3733 L125.0823 291.6973 L125.3518 291.4619 L125.8837 291.7698 L126.363 291.9673 L126.386 292.0122 L127.1826 292.0122 L125.8991 289.7986 L126.2114 289.6007 L130.6734 299.2672 L132.4493 301.8847 L131.8697 302.5154 L131.9199 304.1724 L132.4466 305.1906 L133.0447 303.5583 L146.4918 307.8822 L149.0086 312.9521 L148.8297 313.1557 L149.0677 313.6701 L149.3866 314.0711 L150.5013 314.6997 L149.1886 313.018 L157.5252 317.2222 L158.4012 319.3243 L157.2976 322.2795 L153.999 324.2723 L154.1331 324.4334 L152.5971 325.6365 L151.8254 326.141 L148.6164 327.5353 L142.8872 331.013 L141.6039 331.9131 L141.7582 331.9704 L142.1716 331.8842 L142.7395 331.592 L143.1 331.4544 L143.3837 331.4523 L143.5242 331.7606 L143.8122 331.9337 L144.2856 332.0223 L144.636 331.9419 L144.78 332.3941 L144.8933 332.406 L144.8814 332.1847 L144.7165 331.787 L144.6043 330.9985 L144.6599 330.6528 L144.7893 330.4929 L144.7874 330.4566 L144.8234 330.4508 L144.861 330.4042 L145.8055 329.9484 L146.1475 329.8919 L146.5 329.875 L146.6768 329.9307 L147.1018 333.0819 L147.254 333.9948 L147.5306 334.9238 L147.7436 335.326 L148.2104 335.9937 L148.8475 336.435 L149.2055 336.6498 L149.7222 336.7779 L150.7564 337.5227 L151.5541 338.2929 L153.3569 339.4658 L153.4696 339.4386 L153.5586 339.4044 L153.7436 339.3723 L159.7536 337.9888 L160.1381 338.1277 L160.7778 339.0166 L161.21 338.7446 L162.3581 337.8165 L166.033 338.0687 L166.9593 338.8353 L167.4206 338.1553 L168.1219 338.0728 L168.6592 340.9495 L168.286 344.5473 L164.936 350.2286 L164.2591 351.9973 L164.9051 352.0113 L164.976 352.8491 L165.5794 353.4739 L165.6861 353.846 L171.2237 356.593 L172.5499 358.9571 L172.4173 361.3402 L171.9936 362.2394 L170.8902 363.0091 L168.85 363.3108 L166.9204 363.0091 L163.2878 360.9566 L163.802 360.1134 L166.276 361.0497 L167.3941 361.142 L167.8626 361.252 L168.4229 361.7033 L168.9522 361.6991 L169.2716 361.9332 L169.726 361.6954 L170.127 361.4968 L170.7436 360.7777 L171.3835 361.1029 L171.6604 360.5634 L171.7403 360.078 L171.582 358.932 L170.66 357.6191 L163.9828 354.031 L163.468 353.4566 L163.2658 352.8545 L163.2245 352.2615 L163.4836 351.4987 L164.4321 349.8985 L165.2973 348.6663 L164.5094 348.2901 L164.7757 347.0014 L165.5244 347.4592 L166.0674 346.5258 L165.3079 346.1924 L165.0985 345.9616 L164.953 344.8967 L164.3782 344.6804 L164.1011 345.2376 L163.7178 346.1994 L163.1412 347.7523 L161.7073 350.7054 L161.7986 353.6486 L162.547 355.3275 L162.6291 356.2852 L162.3263 357.0278 L160.3387 356.3157 L160.2961 356.6684 L158.9935 356.4224 L159.0999 356.0923 L157.879 356.6956 L157.6731 357.2173 L157.3609 357.5334 L156.9633 357.6966 L156.9491 357.5936 L156.2962 357.6966 L156.3173 357.8383 L155.4355 358.2381 L154.6995 358.4598 L153.711 358.9559 L152.0265 359.9783 L150.4709 361.5722 L147.5186 363.9857 L147.0955 362.2942 L146.6321 362.3865 L146.7493 363.7772 L146.8763 363.9103 L147.3718 364.5824 L146.7017 365.0559 L145.9485 365.6377 L144.7213 366.44 L146.0382 368.3949 L141.1963 371.6794 L140.7133 371.1598 L139.7124 371.3588 L138.9812 372.2674 L138.1152 373.8217 L137.5973 375.3459 L138.387 376.0422 L138.2806 377.6463 L138.7157 377.8573 L138.7374 377.8079 L138.919 377.5796 L139.8029 376.2709 L140.1263 376.015 L140.4008 375.7394 L140.5561 376.0389 L140.4114 377.0246 L140.3764 378.3864 L140.7993 379.0749 L141.2138 379.5133 L141.7582 379.5537 L142.2242 379.7667 L142.9888 380.564 L143.4562 380.5409 L143.8669 379.9773 L144.0403 379.7391 L144.207 379.7754 L144.6974 379.8817 L145.6597 380.3337 L146.9176 381.6695 L148.2329 382.6708 L148.2827 382.7186 L148.5868 382.7853 L148.9181 382.8018 L150.7813 383.1565 L151.3312 383.3082 L152.0609 383.3613 L152.9837 383.1895 L153.4943 382.8599 L153.8208 382.7923 L154.1522 382.7964 L154.4846 382.7865 L154.8562 382.7973 L155.164 383.3197 L155.3537 383.4367 L155.6978 383.5599 L156.9004 382.8207 L157.6679 382.2904 L160.0791 380.3839 L160.3821 380.5088 L160.393 379.7441 L160.6285 379.6303 L161.0631 379.927 L163.869 378.3048 L165.9783 378.5767 L168.6513 382.0214 L171.0337 384.7103 L179.6767 383.7379 L179.9866 383.4351 L180.5459 380.9835 L181.0238 379.7284 L181.7818 378.7617 L182.8605 378.5096 L185.1762 379.2195 L186.7978 380.0263 L187.8162 380.7226 L188.3942 381.9118 L188.9899 382.9897 L189.9392 385.5624 L189.8985 386.9934 L189.4745 387.9237 L188.2348 389.1713 L186.9335 390.4638 L185.483 392.1618 L185.226 392.5589 L185.0593 393.0233 L184.8285 400.9305 L184.0448 403.086 L180.7486 410.0914 L178.5625 411.727 L177.0733 410.6229 L175.9443 408.7101 L175.0029 406.1364 L174.6033 406.9324 L174.7772 408.1073 L175.0718 411.3397 L175.6222 414.5696 L177.9697 415.2864 L178.499 416.617 L179.2366 422.651 L180.6197 424.0211 L185.651 427.0127 L187.5192 428.0537 L188.9989 430.1632 L189.019 431.3413 L188.1906 433.4438 L186.6742 435.9661 L182.3153 439.6404 L181.18 443.1416 L181.0397 449.9092 L182.8393 452.3764 L183.5274 453.1631 L183.5274 450.8607 L184.7846 451.6185 L191.2262 449.1101 L192.4595 446.7458 L194.5873 446.3215 L193.497 447.8044 L193.055 450.6547 L190.9325 454.1558 L189.4822 454.1558 L189.4822 453.4103 L189.2837 453.056 L188.6697 454.7736 L189.9188 454.7736 L191.1707 454.7736 L191.4882 455.9722 L192.9227 456.1122 L192.4913 455.1731 L195.9609 456.7053 L195.5718 457.3767 L199.7102 458.3627 L202.7614 459.9229 L204.4616 461.9815 L206.8514 464.3538 L206.3221 469.3126 L204.3689 472.0967 L201.4011 474.207 L197.4956 474.7741 L195.8815 476.4005 L192.8194 485.5637 L185.3959 496.2666 L185.4573 496.6471 L185.7463 496.6867 L186.0197 497.7195 L185.858 499.134 L185.8625 499.1389 L185.9517 499.6763 L186.2664 499.6071 L186.8526 500.2664 L187.285 500.7017 L187.8847 501.3778 L188.3021 501.6656 L188.3907 502.0268 L188.2798 502.3282 L193.4967 505.4911 L195.6023 508.026 L197.0806 510.6515 L197.6351 510.3603 L197.8664 510.3076 L197.9958 510.2735 L198.1596 510.196 L198.4926 510.175 L199.4196 510.3377 L200.1437 510.4147 L200.9808 510.2492 L202.0291 510.2389 L202.7535 510.5633 L203.4707 511.3346 L203.8113 511.8468 L204.0265 512.0 L207.9285 510.5185 L208.9395 509.6949 L209.0613 509.3161 L208.9514 509.1242 L207.8783 507.249 L208.1045 506.7969 L207.9889 506.6111 L207.8055 505.9461 L206.7154 504.6054 L206.3221 504.6054 L204.1705 502.3447 L204.4166 500.7387 L205.3175 500.0613 L205.9757 499.5622 L206.0032 499.5206 L206.5206 496.419 L204.0699 494.8295 L205.0967 487.3839 L205.2579 487.3798 L205.2571 487.3358 L205.4358 487.0125 L205.7131 486.8725 L206.0154 486.7963 L206.8342 486.7044 L207.7742 486.5492 L208.8363 486.4578 L209.5069 486.5195 L210.0394 486.7761 L210.3051 486.7831 L210.6359 486.5751 L210.8514 486.4936 L211.219 486.5533 L211.6609 486.9536 L212.159 487.4766 L212.9678 488.0531 L213.1703 488.1652 L216.949 489.3771 L217.1446 489.3574 L217.8165 489.4121 L218.2858 489.5423 L218.5091 489.6633 L218.5398 489.8655 L218.538 489.8865 L218.5676 489.896 L218.5195 490.0879 L218.4951 490.3531 L218.2024 491.3497 L218.3353 491.535 L218.5666 491.533 L218.8336 491.5935 L219.0093 491.8439 L219.2277 492.3422 L219.5156 493.0809 L220.0018 494.703 L220.2214 495.1152 L221.1938 494.9023 L221.5942 494.9798 L221.8194 495.6008 L221.7752 495.6296 L222.9238 495.8713 L222.6856 494.5824 L228.291 492.1021 L228.562 491.8509 L229.4608 488.5659 L229.6691 488.3048 L229.8808 487.7328 L230.1192 487.262 L230.6239 486.578 L231.1927 485.9475 L231.8045 485.427 L232.4744 484.9686 L233.4446 484.3744 L234.63 483.5001 L235.1818 483.1496 L235.6894 482.9256 L236.4818 482.7332 L240.0813 482.1176 L243.6356 480.8318 L238.9936 479.4645 L238.8083 478.4593 L238.7395 478.1508 L238.9288 478.1261 L238.9346 478.11 L239.2159 477.921 L241.0306 477.6957 L242.5334 477.4581 L243.9172 477.3477 L245.4382 477.1299 L245.9074 477.1216 L246.0826 477.1434 L246.224 477.2217 L247.0955 478.4988 L247.5189 478.4757 L247.9021 478.3052 L248.3092 478.3592 L249.3503 477.7657 L248.4576 474.6567 L248.4346 474.581 L248.4015 474.553 L248.1721 474.5571 L247.3485 474.8697 L246.9017 475.1559 L246.7186 475.2593 L246.3806 475.3713 L246.0969 475.4438 L245.1701 475.34 L244.803 475.2288 L244.6993 474.9018 L244.6082 474.3277 L243.61 470.0749 L243.4469 469.5045 L243.4671 469.4922 L243.398 469.2928 L243.3869 469.2949 L241.7989 469.605 L241.6851 467.8011 L244.5548 466.9564 L244.5191 466.6409 L244.5595 466.2999 L244.7493 465.9263 L245.213 465.7092 L245.5901 465.6104 L245.8227 465.47 L246.0345 465.3139 L246.1268 465.1619 L243.4448 466.021 L243.1598 466.1845 L242.8393 466.215 L242.6194 466.2772 L242.595 466.1804 L242.5169 466.0845 L242.2907 465.2611 L241.9511 463.7661 L241.9728 463.6985 L241.9048 463.4271 L245.2799 461.0799 L245.5859 460.7631 L246.2412 459.9625 L246.4399 459.551 L246.2412 459.3665 L243.9246 459.5007 L243.6666 459.2553 L246.8014 452.923 L245.9429 451.5946 L245.8982 451.5403 L242.1271 451.116 L242.1081 451.0658 L242.0914 451.0637 L241.8288 450.8953 L241.3305 450.0855 L241.303 450.008 L240.9581 448.4535 L241.0119 448.164 L240.96 448.0268 L237.8582 448.8671 L236.5905 447.8291 L236.3076 447.8423 L235.9998 448.0326 L235.6164 448.1887 L235.2051 448.2744 L234.8399 448.241 L234.1137 448.4729 L233.7529 448.5965 L232.8552 448.7666 L232.3042 448.8354 L231.0974 448.9367 L228.6972 449.4561 L228.6456 449.4643 L228.5903 449.4141 L228.4535 449.3601 L228.0774 449.073 L227.6921 448.8247 L227.2821 448.5129 L226.9077 448.1533 L226.3778 447.3999 L226.2294 447.2648 L226.2145 447.168 L225.9139 446.7404 L225.7845 446.3071 L225.6868 445.7152 L225.7405 445.3322 L225.8932 445.0677 L225.8721 444.9293 L226.1677 444.8436 L226.5329 444.6229 L227.5831 444.1586 L229.3449 443.5103 L231.0865 443.1462 L231.1572 443.114 L231.5706 443.0667 L231.4287 441.7436 L230.0986 439.7969 L228.5477 440.1512 L228.0899 437.7703 L225.1186 438.6073 L225.1205 438.791 L224.9781 438.9265 L224.2799 439.1065 L222.5059 439.2145 L220.8675 439.5951 L220.674 438.9998 L220.5202 438.7997 L220.3038 438.361 L220.2302 437.8028 L220.2516 437.7002 L220.0682 437.1359 L221.0535 436.7438 L221.802 436.2507 L222.2013 436.0509 L222.692 435.8635 L223.5455 435.7514 L223.7548 435.6612 L226.0867 434.8081 L226.123 434.7422 L226.4247 432.0251 L226.3662 431.9473 L226.2791 431.6948 L226.3045 431.2973 L226.3797 431.1774 L226.5342 431.0386 L226.5443 430.9488 L222.896 432.3654 L222.9148 433.1324 L223.0916 433.5312 L222.2966 433.8879 L220.1619 435.0083 L220.1603 434.9387 L220.0859 434.9754 L219.7591 434.1227 L219.7858 431.8295 L220.0891 431.8917 L220.0812 431.5456 L220.6195 430.873 L221.382 429.231 L222.2521 428.1455 L223.9353 427.748 L225.4243 427.5894 L227.5558 427.7966 L227.5772 427.0868 L227.8914 426.0553 L230.1984 425.4901 L231.3303 426.7993 L231.5627 426.5431 L231.7437 426.2609 L231.8847 425.9095 L231.9538 425.6516 L231.9832 425.355 L231.9268 425.3134 L231.1387 425.1762 L231.0154 425.1144 L230.3145 424.8726 L230.12 424.6996 L229.7776 424.1937 L229.7424 423.963 L229.7688 423.8218 L229.7572 423.8036 L229.8236 423.7188 L229.8652 423.6471 L229.9197 423.5956 L230.1431 423.3101 L230.8608 423.2924 L231.5515 423.1037 L232.0306 422.8673 L232.1145 422.6819 L232.0142 422.3676 L231.8554 422.2572 L231.6942 422.2291 L231.5195 422.2497 L231.0879 422.541 L230.9775 422.5645 L230.7825 422.6947 L230.5424 422.7878 L229.5979 422.8912 L229.1061 422.8018 L228.6128 422.581 L227.7853 422.4063 L227.4481 422.2613 L227.2059 422.2135 L227.2004 422.1303 L227.0575 421.9124 L226.9868 421.5713 L227.0209 421.0827 L227.2022 420.1142 L227.298 419.9107 L227.3515 419.3525 L228.4249 418.3535 L228.6218 418.1125 L228.8433 417.5176 L228.8182 417.3528 L228.892 417.0043 L229.2583 416.4564 L230.1409 414.1988 L231.0778 413.1359 L230.6702 410.491 L234.6136 410.7465 L234.3172 409.733 L232.3238 408.9708 L232.4381 407.1705 L232.3561 405.8192 L227.7246 403.8375 L227.7246 403.0753 L229.1802 402.6221 L233.2162 401.5345 L237.0934 401.2213 L237.2681 399.2314 L238.8428 398.7741 L241.9498 399.9524 L240.6265 398.3373 L244.6625 397.8924 L245.34 398.5433 L246.3563 397.0354 L246.9862 396.1331 L248.103 393.9989 L246.9226 391.1313 L246.089 391.1313 L244.2311 392.6475 L244.5566 396.232 L243.2731 396.4215 L240.7059 395.5934 L238.752 393.6553 L238.7292 393.7719 L238.92 395.197 L238.9356 395.4912 L239.1048 396.0713 L238.2446 396.0713 L238.157 395.8653 L237.9977 395.7425 L237.8167 395.0652 L237.2945 393.8382 L236.563 393.4658 L236.4191 393.4472 L235.0474 392.8815 L234.6112 392.6187 L234.4998 392.4147 L233.1421 391.7234 L233.1231 391.7786 L232.9531 391.9883 L232.576 392.1131 L232.2193 392.1267 L231.2448 391.6426 L230.363 391.0543 L229.1442 390.0942 L228.2892 389.2517 L227.3197 388.7581 L227.6214 388.4297 L227.6177 388.2892 L227.7276 388.0288 L227.993 387.8063 L228.7594 384.7408 L226.0362 384.0198 L226.0679 383.7767 L226.1103 383.5995 L226.0891 383.5764 L225.9568 383.2484 L225.9374 382.8014 L225.9642 382.3098 L225.708 382.2686 L225.8721 380.5957 L225.5915 379.545 L225.8731 379.023 L225.8527 379.0069 L225.8289 378.8495 L225.8273 378.6435 L225.8549 378.5042 L225.9496 378.3176 L226.2518 378.215 L226.7354 378.1523 L227.1157 378.1466 L227.3631 378.1012 L227.3925 377.9018 L227.5955 376.9121 L225.7265 376.9121 L227.46 375.4699 L228.8444 375.9252 L231.0987 376.446 L233.0717 376.8474 L233.9149 377.2265 L234.4307 377.5425 L234.7308 377.8161 L234.8711 378.0666 L235.651 378.3501 L235.4949 376.294 L235.7908 375.7336 L235.8156 375.6553 L235.8601 375.6026 L236.9113 373.6132 L236.8933 373.5839 L236.8549 373.2036 L236.58 373.2036 L237.6492 368.877 L234.9312 367.7685 L235.3837 366.895 L229.4714 370.5252 L230.4135 369.2726 L230.0007 367.9251 L234.2489 366.1409 L234.2566 366.1269 L234.2653 366.0309 L234.3579 365.8248 L234.3579 365.749 L234.3405 365.653 L234.3579 365.5982 L234.4241 365.55 L234.6403 365.543 L234.874 365.4882 L235.1609 365.461 L235.4872 365.3373 L235.7254 365.2821 L235.8445 365.2343 L236.3518 365.1313 L236.4709 365.0695 L236.8237 364.9595 L237.1765 364.8152 L237.3266 364.8565 L237.4411 364.7946 L237.525 364.7122 L237.7852 364.6574 L239.3644 363.9911 L239.5584 363.8539 L239.6026 363.7921 L239.6113 363.783 L239.3909 363.5036 L239.2982 363.4624 L239.2276 363.4142 L239.1879 363.3112 L239.1773 363.2403 L238.9063 362.9061 L240.7229 361.5528 L240.798 361.4498 L240.8552 361.3196 L240.9743 361.2166 L241.0097 361.1408 L241.2964 360.8729 L241.389 360.7633 L241.5126 360.7357 L241.6536 360.5296 L241.7772 360.4266 L241.989 360.2824 L242.2271 360.2 L242.5799 359.9939 L242.699 359.9803 L243.0211 359.8567 L246.5151 357.2111 L243.1365 355.1486 L242.9367 355.1412 L242.749 355.0872 L242.2176 355.0336 L241.8453 354.8956 L241.5213 354.683 L240.9584 354.0797 L240.5654 353.5794 L237.3445 351.6133 L237.159 351.5873 L236.3198 351.2551 L235.2477 350.7445 L234.779 350.4639 L234.5138 350.3712 L233.8204 349.9657 L234.3058 349.5931 L234.8314 349.2729 L235.14 348.9923 L235.7722 348.2863 L237.6018 342.6519 L237.334 342.1636 L237.141 342.0828 L226.8873 330.966 L226.44 329.5499 L220.9654 323.4995 L219.5455 320.3934 L218.7251 318.8148 L218.4985 318.103 L214.6481 309.6793 L213.5154 305.9094 L213.8859 303.1213 L213.4087 297.2808 L213.3293 296.4415 L213.3346 296.3756 L213.256 295.413 L213.6136 294.7205 L213.735 294.326 L214.0444 293.5556 L214.4705 293.0609 L215.1536 291.7319 L211.1441 289.341 L207.4786 290.1819 L208.3914 289.4436 L211.7792 286.7027 L216.5907 284.287 L215.7755 279.138 L215.9502 272.2575 L216.1931 272.2711 L216.3858 276.8204 L220.7444 277.0591 L220.7404 279.7795 L220.8548 280.1893 L223.5741 281.3786 L224.5334 282.9872 L224.6467 283.1368 L226.5337 281.9042 L227.9231 276.4708 L229.9795 275.8977 L230.3712 277.6251 L226.8664 286.9154 L225.14 289.0339 L225.7027 289.8439 L227.4309 290.2644 L227.2006 291.3939 L223.379 291.2125 L221.807 291.4804 L222.0108 291.5794 L223.6675 291.703 L222.9397 295.4501 L225.6895 296.0726 L227.6585 293.4385 L232.0914 296.472 L235.8098 299.0075 L235.7802 299.0867 L235.8413 299.1254 L234.4572 303.0294 L233.8741 304.8897 L233.6764 305.4313 L233.5722 305.6798 L233.4091 305.7388 L233.2816 305.731 L233.2519 305.8097 L232.5922 305.5574 L231.7389 306.6827 L233.1924 307.8904 L235.9183 309.7494 L237.7259 309.491 L238.003 309.343 L238.5434 309.3739 L240.2504 309.1295 L241.086 308.916 L241.3107 309.2379 L243.5152 312.2258 L243.3596 312.4302 L244.3978 314.0279 L243.5801 314.8316 L246.0572 316.5215 L246.3166 316.6159 L246.5206 316.158 L246.8964 315.5954 L247.2842 314.8687 L249.6909 316.1753 L248.8917 317.4942 L249.5321 317.5231 L251.0803 317.1769 L249.9556 318.3145 L251.1783 318.6813 L254.1742 319.5674 L257.1674 325.2676 L263.4688 325.1728 L263.2142 326.7815 L266.6446 326.3817 L266.882 326.6751 L267.0813 326.6607 L266.0995 341.1885 L265.5596 345.6971 L266.3641 355.9872 L265.463 356.096 L265.4468 356.2032 L266.1127 357.957 L265.7414 362.7623 L265.7623 362.869 L267.0096 365.299 L267.161 365.4676 L268.0833 366.8632 L268.2328 367.0351 L268.2199 367.0483 L268.479 367.5971 L268.7891 368.7657 L269.0345 369.2437 L268.9074 372.9976 L270.6589 375.4382 L278.173 374.3528 L283.9834 373.6334 L284.0798 373.6556 L284.2301 373.7834 L284.4871 374.1204 L285.3954 375.7934 L285.6333 376.4242 L286.1184 378.3307 L286.2875 378.8837 L286.2714 378.901 L286.4079 379.4573 L286.4916 379.7107 L286.4728 379.7148 L286.6699 380.564 L286.3995 380.6011 L286.404 380.6143 L286.4926 380.6023 L286.6427 380.632 L286.7046 380.7688 L286.8256 381.6341 L286.883 381.8809 L286.8917 382.0391 L287.0177 382.4128 L293.986 385.4948 L308.9072 375.5111 L315.6559 374.8559 L319.1626 374.2255 L322.6692 373.5909 L327.2107 370.6859 L329.2326 370.4222 L328.6266 369.1572 L328.0205 367.8922 L325.7127 368.9388 L324.0692 368.98 L324.2095 369.8577 L321.3989 371.4895 L322.3622 365.9925 L325.411 364.2247 L326.0541 357.6562 L328.6742 352.0847 L327.9573 349.4489 L328.6607 346.7488 L327.8395 346.6519 L326.1714 339.7819 L328.5152 338.8666 L328.2981 338.4108 L329.1154 338.0564 L329.3253 338.5192 L330.0652 338.1235 L329.8914 336.3077 L330.8605 335.9265 L331.3327 334.0764 L334.0173 334.1935 L333.5761 336.7598 L334.4463 337.1868 L335.5952 337.4101 L338.1875 338.0102 L342.1292 338.5142 L343.8161 328.9968 L343.5112 325.5326 L337.8241 325.9093 L337.2728 325.2965 L339.1145 324.8608 L339.1415 322.4946 L337.6545 321.8381 L338.2004 317.359 L340.3515 317.3174 L341.5893 309.7412 L342.4944 310.1158 L343.7161 310.2411 L345.3405 310.0083 L346.4468 305.0562 L350.3753 297.6204 L352.1887 292.2183 L352.8107 289.947 L352.1173 283.3924 L353.5808 278.1693 L359.1068 271.165 L362.5298 264.2074 L363.4794 261.2942 L364.1831 258.2828 L364.7203 254.3334 L364.6748 253.9702 L364.6521 253.1604 L364.8111 252.1771 L364.1982 247.4631 L363.6244 248.1303 L362.8318 248.1781 L362.7503 248.2399 L362.1947 248.2956 L361.7229 248.2449 L360.5412 248.3158 L358.8315 246.8686 L358.8389 246.8166 L358.7924 246.803 L358.732 246.735 L358.8313 246.1672 L358.8379 246.1301 L358.962 245.9973 L359.3799 243.0377 L359.4201 242.4196 L359.4511 241.0865 L359.5921 240.7703 L359.7096 240.7328 L359.7605 240.3786 L359.6387 240.193 L359.4558 240.0046 L359.3537 239.8739 L359.1084 239.4389 L358.9853 239.2702 L358.7431 238.8307 L358.4393 238.3862 L358.4057 238.3581 L358.3043 238.3029 L358.2646 238.241 L358.2337 238.1107 L358.2337 237.8563 L358.3305 237.6295 L358.4102 237.2927 L358.5203 236.9698 L358.6174 236.75 L358.6791 236.6469 L358.7278 236.4886 L358.7101 236.3719 L358.732 236.2618 L358.7056 236.2482 L358.8643 235.9596 L358.8776 235.8429 L359.0099 235.4099 L359.0231 235.2998 L359.1158 234.9629 L359.1377 234.812 L359.1512 234.805 L359.1952 234.5988 L359.2526 234.5094 L359.2968 234.2966 L359.3849 234.0834 L359.3982 233.9185 L359.4466 233.7053 L359.4995 233.6162 L359.5217 233.5197 L359.5747 233.4307 L359.6009 233.3276 L359.6697 232.9812 L360.5809 231.8266 L360.6905 231.8291 L360.7127 231.8015 L361.0919 231.8291 L361.1308 231.8394 L362.7492 231.8765 L360.5399 230.0985 L360.0063 229.75 L359.8266 229.6168 L359.0721 229.1076 L359.0081 228.9171 L358.7312 228.626 L358.4158 228.1856 L358.3131 227.9761 L358.2088 227.5608 L358.258 226.6833 L358.2308 226.6021 L358.1413 224.7415 L358.618 222.3358 L359.9118 220.0203 L360.8956 217.5461 L364.9106 214.2062 L364.3731 213.1884 L364.2143 213.1216 L364.0471 212.95 L364.0121 212.7781 L364.0542 212.5843 L363.9023 212.2968 L364.9133 210.7545 L372.9402 216.2598 L373.2178 216.5794 L373.4134 216.6669 L373.9382 216.7745 L374.2481 216.7716 L374.7393 216.7048 L375.3327 216.5242 L375.7191 216.5555 L375.533 217.9848 L375.4068 218.5683 L375.3912 218.6937 L375.3168 218.7535 L375.026 218.6591 L375.5772 219.29 L375.6712 219.3436 L376.7923 219.2562 L376.6216 218.5609 L378.3286 218.7465 L379.1376 219.4075 L379.9379 218.9824 L379.8196 218.7886 L379.772 218.5481 L379.7614 217.8112 L379.7678 217.7283 L379.6976 217.41 L379.8114 217.3415 L379.8278 217.2384 L380.0499 217.0735 L380.3709 216.972 L380.4241 216.9407 L380.4392 216.744 L380.6417 216.9733 L384.8761 216.9733 L384.9981 217.5778 L385.0733 217.6471 L385.1527 218.3436 L385.1937 218.5238 L386.2955 219.3848 L387.3472 219.5209 L389.3067 219.1048 L390.9563 218.318 L390.9653 218.323 L391.0134 218.2727 L391.2675 218.245 L391.5258 218.2471 L391.7047 218.2685 L391.8643 218.3341 L392.0305 218.6166 L392.1141 218.8719 L393.7028 219.1275 L393.7674 219.1209 L394.5328 218.9696 L396.3303 218.3465 L396.1845 215.1324 L396.2258 214.4111 L396.4203 211.6205 L396.7644 209.575 L394.4539 209.2946 L394.4021 208.8026 L394.1416 208.7243 L394.0681 208.5102 L394.0763 208.243 L394.2726 208.1077 L394.3296 208.1135 L394.2581 207.4347 L401.0253 207.9432 L401.2177 207.7415 L401.3712 207.6124 L401.783 207.5584 L402.4057 206.9872 L402.4285 206.9377 L402.5553 206.7872 L402.7508 206.6709 L403.1955 206.2511 L403.5583 204.9788 L403.4868 204.8374 L399.8979 203.3849 L399.6173 201.5703 L402.3962 201.0341 L401.9992 199.1123 L402.8543 195.7898 L403.0679 194.5443 L403.147 193.7796 L403.1846 192.7853 L403.1182 192.0986 L403.2063 192.0784 L403.1637 192.0775 L403.0626 192.1002 L402.3787 192.1786 L400.5494 192.111 L399.9945 192.019 L399.1309 191.9691 L398.1776 186.852 L401.6321 186.7006 L406.2623 186.9266 L406.0802 186.4585 L405.8968 185.865 L405.1497 183.7751 L405.1232 183.4715 L402.9017 177.884 L401.7804 177.8308 L400.7842 178.0374 L399.6054 178.108 L398.5682 177.8976 L398.3475 177.7557 L398.2906 177.6646 L397.6986 177.6365 L396.7064 176.0894 L396.3547 175.7672 L396.2284 175.4286 L395.7981 174.9254 L395.2979 174.1912 L395.0415 173.8955 L394.0371 172.5789 L393.8336 172.1012 L393.8317 171.6062 L393.8055 171.5691 L394.2105 170.5998 L391.7201 172.9303 L385.1884 178.7296 L383.9816 176.824 L390.6456 172.5384 L390.0898 171.7688 L389.9125 171.6801 L389.908 171.5171 L389.5552 171.0288 L391.0822 168.7271 L389.2323 167.7867 L387.4221 166.6565 L385.3154 170.2286 L372.358 169.6882 L371.9187 167.6341 L375.2692 167.8651 L375.1803 167.5095 L374.9725 167.5111 L374.5586 166.3269 L373.8067 162.8533 L373.7882 162.485 L373.8504 162.2717 L373.8652 162.2466 L373.5622 161.0342 L374.3895 159.2378 L374.4781 158.9998 L374.7168 158.4738 L374.7608 158.4322 L375.0575 157.7879 L377.479 158.4066 L377.4023 156.3276 L379.8159 155.8285 L378.6462 154.6281 L378.7496 154.5534 L378.7301 154.5332 L378.639 154.303 L378.3537 154.2989 L377.4613 154.3405 L375.3936 154.1656 L373.3613 154.2366 L372.6147 154.1046 L371.9044 153.9788 L371.8001 153.8822 L370.6518 153.5997 L370.3593 153.0176 L370.3638 152.9714 L370.3982 152.8538 L370.8802 152.5552 L372.6909 151.0359 L372.8981 150.8775 L373.9832 150.0479 L375.0633 149.6667 L376.1134 149.6832 L377.9054 149.8305 L378.1462 149.9889 L378.2193 150.1502 L378.1989 150.3371 L377.8376 151.0074 L377.9395 152.2726 L378.5734 151.9339 L378.9918 152.3926 L379.1278 152.7717 L381.4991 151.9426 L381.2821 150.1853 L378.6435 149.9378 L376.4257 148.8776 L374.634 147.2605 L374.4919 142.7346 L379.4518 141.7326 L380.3492 143.9627 L386.0274 143.4528 L386.3174 143.5151 L386.3531 143.5089 L387.2135 143.4829 L387.687 143.6418 L388.0273 143.881 L391.1722 144.5543 L391.0293 143.6013 L390.7514 141.3406 L390.292 139.3675 L388.536 139.2825 L388.0803 138.2631 L388.5895 136.886 L385.407 137.6051 L384.9952 136.9594 L383.9736 134.9792 L379.6466 135.0989 L379.605 134.544 L379.4613 133.8736 L379.3157 132.8253 L379.2917 132.0872 L379.3242 130.7889 L379.1993 129.1209 L381.7744 129.1209 L381.3562 123.7575 L382.2878 123.3614 L382.6795 120.5229 L379.8821 118.394 L380.3744 114.0246 L384.0239 111.3799 L385.0614 110.9755 L386.4508 109.7253 L385.1858 108.9579 L391.6089 106.1687 L391.4157 105.0835 L387.9609 104.9106 L387.0926 104.2838 L386.9478 104.0033 L386.8785 102.1374 L386.8306 100.2385 L386.9317 99.1273 L386.9661 97.3283 L387.0828 97.0043 L387.0807 95.4652 L390.2692 95.4916 L390.5786 95.4141 L390.8176 94.1489 L391.5409 94.0846 L391.6161 93.9822 L393.1413 93.9426 L392.0906 92.9647 L389.8834 90.1339 L389.3594 82.0789 L389.9628 78.8643 L386.9404 77.9523 L385.4716 70.6726 L384.143 70.3177 L384.0133 70.0 L381.1233 68.8321 L380.4051 67.5535 L383.4152 66.9832 L383.2564 65.4769 L391.1511 63.5083 L389.8725 59.5414 L389.7547 59.4972 L386.9616 59.86 L385.0706 59.2492 L384.9899 59.2748 L384.4265 59.1617 L384.4476 59.0478 L383.9472 58.886 L384.4405 58.7122 L384.4619 58.6796 L384.5882 58.574 L384.8605 58.4271 L385.0931 58.3973 L384.2251 58.2587 L379.3845 58.139 L374.8381 52.3023 L374.444 50.5879 L364.3035 47.0875 L356.3107 44.829 L345.6557 41.5209 L345.3405 39.8517 L344.4407 38.4442 L341.1601 40.7911 L334.711 40.3957 L317.31 37.3331 L315.1663 36.9616 L312.6124 36.6438 L310.6963 35.6408 L311.1356 36.2434 L309.4577 35.8183 L306.0807 31.9672 L304.7045 30.2047 L290.0692 22.9976 L286.7372 20.0462 L279.5121 18.1679 L278.6176 18.9234 L270.9162 16.2195 L269.3899 17.3535 L267.96 18.4156 L266.8484 22.8531 L260.2109 20.558 L258.7341 23.1297 L257.7523 22.7375 L255.9341 24.7602 L255.381 27.5753 L253.3855 28.8756 L253.6864 24.8328 L253.8169 23.0802 L253.9254 21.0369 L250.3261 20.5333 L250.4849 18.7294 L252.041 18.7294 L252.8826 11.464 L252.1284 10.2628 L241.3781 7.9304 L234.6165 9.8367 L234.4654 10.4683 L234.1997 10.9856 L233.01 12.0989 L232.0134 12.9085 L230.0115 14.4878 L229.7095 15.034 L229.6622 15.1198 L229.6495 15.5595 L229.6188 15.9384 L229.5349 16.5209 L227.1503 17.0864 L225.3737 17.4092 L225.2057 15.7717 L225.5495 14.3615 L226.8841 14.0206 L227.0879 11.4174 L226.6764 11.6643 L226.2714 11.9214 L225.7858 12.0742 L225.6564 12.0808 L225.2996 11.9652 L224.0258 11.1689 L222.9318 12.6835 L222.1801 12.7095 L221.5524 13.6255 L221.2364 13.782 L217.4137 15.6747 L216.85 11.6085 L216.6542 6.4442 L216.7116 6.3043 L216.7103 6.237 L216.7611 5.8039 L216.9106 5.5682 L217.302 5.3857 L218.4379 4.6897 L217.1747 3.7691 L215.4788 3.2106 L211.1568 2.2569 L207.8756 0.8917 L207.738 0.2105 L207.4363 0.0 L206.2215 0.5615 L200.5817 0.9784 L196.3473 4.2191 L196.1485 5.3701 L196.9189 6.9602 L199.0827 7.8763 L200.8623 8.6322 L199.9492 11.2411 L198.4645 12.5002 L195.4707 13.6102 L195.9024 16.8392 L197.0248 19.3031 L199.6978 20.9956 L201.598 20.6612 L205.7346 20.17 L206.8646 22.8242 L206.3988 24.4382 L203.9084 24.9459 L202.5614 23.1586 L199.0759 22.9563 L197.8929 21.6684 L196.8827 22.7136 L197.0208 22.7528 L202.8181 23.8314 L203.1118 25.4949 L206.4015 25.4784 L206.9811 29.0448 L205.4408 31.9837 L204.3557 31.8269 L204.1705 30.2047 L201.7753 31.3357 L201.6377 31.8929 L200.992 35.422 L201.9392 36.4345 L201.986 36.4494 L203.5326 32.3924 L204.3954 32.3098 L205.1311 32.4501 L204.0566 34.5676 L204.3292 40.6145 L212.2874 43.2891 L219.2795 46.7891 L221.4021 49.2449 L220.047 51.3044 L220.8913 52.5219 L220.2482 53.0584 L216.7831 52.7881 L216.6356 52.8661 L216.8826 53.1538 L216.9945 53.134 L217.1872 53.1455 L217.5315 53.3407 L218.0388 53.7473 L218.6505 54.3156 L218.7558 54.5013 L218.7489 54.6041 L218.7039 54.6788 L218.6753 54.7849 L218.7444 54.9442 L219.4463 55.6396 L219.4852 55.7469 L219.6244 55.997 L219.6286 56.002 L219.757 56.309 L220.0005 56.6883 L219.9999 56.7849 L220.2164 57.037 L220.4093 58.6198 L220.782 59.198 L221.03 59.4947 L221.045 59.5946 L221.0678 59.6701 L221.1583 59.7469 L221.4444 60.1443 L221.7922 60.6569 L221.8155 60.7271 L222.0203 60.9256 L222.2325 61.0412 L223.0196 61.6334 L223.8247 62.2681 L224.6083 62.8546 L224.9918 63.1575 L225.2192 63.3944 L225.2536 63.5475 L225.2745 63.7592 L225.3698 64.1628 L225.7861 64.7555 L226.5512 65.6448 L226.7497 65.8405 L226.8357 66.1104 L226.8222 66.169 L226.7806 66.2655 L226.6777 66.3266 L226.4392 66.3856 L226.2503 66.5313 L226.4014 66.913 L224.6668 67.504 L224.3461 67.7549 L223.9975 67.8424 L223.6111 68.0372 L222.3212 68.4272 L221.8702 68.4565 L219.7744 69.1705 L225.3941 69.3372 L225.663 69.2613 L226.0346 69.2043 L226.1166 69.2204 L226.3106 69.1568 L226.7653 69.0417 L227.0728 68.9947 L227.2213 68.9134 L227.4539 68.8667 L227.6151 68.7706 L227.8609 68.688 L228.1089 68.695 L228.3138 68.7256 L228.5737 68.6728 L228.6438 68.667 L228.7938 68.601 L229.6963 64.5235 L229.5772 62.5054 L230.6358 62.5054 L232.8642 66.4013 L233.4359 69.6574 L231.4616 72.3812 L230.9794 71.9784 L230.951 72.0522 L230.7308 72.2677 L230.8873 72.7402 L229.7238 74.2939 L229.9851 75.8642 L230.0258 76.8575 L229.8392 77.663 L229.5627 78.1582 L229.5772 78.3443 L227.5031 81.5862 L227.3872 82.1941 L227.3311 82.3505 L227.2761 83.0532 L227.2914 83.1539 L227.2565 83.3054 L227.2377 83.5439 L226.7542 84.453 L225.518 86.7832 L225.3459 87.4798 L225.2499 88.6451 L225.3475 89.2859 L225.2324 89.711 L225.1596 89.7485 L225.1363 90.0349 L224.918 90.7343 L230.8087 92.9391 L231.5478 96.4551 L231.6534 96.5331 L234.3746 97.3039 L235.3824 97.6959 L236.7202 97.8214 L236.7755 98.2377 L236.8436 98.2641 L236.9402 98.4056 L236.9256 99.365 L237.4914 103.6216 L237.841 104.694 L238.1848 107.0739 L238.3256 109.1064 L238.4924 110.0798 L238.9018 112.7683 L238.8764 112.8475 L238.7747 112.9197 L238.7295 112.9333 L238.8401 113.7647 L234.6427 114.4413 L234.526 115.9242 L234.6176 116.211 L234.8642 116.8488 L235.4822 118.3263 L235.5388 118.5074 L235.8019 118.9056 L235.8638 119.8215 L235.9514 120.3034 L235.9541 121.1554 L236.0612 122.7426 L236.482 125.3583 L238.1202 125.6553 L237.6492 130.6969 L236.4826 133.1182 L234.6006 138.9834 L234.6528 140.8638 L233.8789 142.6938 L234.3069 144.2861 L232.8086 148.6185 L233.1548 149.6057 L233.994 150.2735 L234.1364 150.5974 L233.1106 151.3218 L232.6427 152.3324 L232.5673 153.0869 L233.0257 153.2305 L233.8045 153.7808 L234.7774 155.1726 L234.6647 155.5463 L234.1817 155.7575 L233.7895 155.9836 L233.8127 156.3994 L234.2118 157.1002 L234.061 159.4993 L233.1752 160.4939 L232.6501 161.0837 L234.1907 162.3988 L234.7509 163.1066 L236.9994 164.7405 L235.7233 166.6623 L236.0387 166.8829 L235.2898 167.9438 L233.758 166.8149 L231.3358 168.5316 L230.5784 167.5821 L230.2902 167.7529 L230.4056 168.8261 L230.8952 172.8519 L229.9742 176.7539 L228.6324 177.4221 L229.0982 180.3959 L227.6717 181.2992 L226.8645 181.295 L227.0897 177.8287 L226.9198 177.8613 L226.3963 177.8143 L226.015 177.8597 L223.6357 182.1076 L221.8837 189.1398 L220.1873 189.1398 L219.1128 186.7641 L218.9408 185.9153 L218.2132 185.8126 L217.8594 185.747 L215.1975 185.1704 L214.2612 185.7536 L213.2497 186.9967 L212.6505 187.4335 L212.3228 187.4199 L211.5289 187.1926 L209.7584 186.4057 L205.8865 190.1325 L205.2553 189.8842 L204.7532 189.5699 L204.0474 188.7178 L202.5934 186.885 L202.0103 186.2506 L201.7155 186.0118 L200.8157 185.2624 L200.6106 182.2222 L199.0057 178.7613 L196.6813 181.3243 L196.4127 181.7289 L195.7317 182.3171 L195.2834 182.5658 L194.4505 183.1515 L194.1136 183.5709 L193.6158 184.0444 L193.1828 184.4936 L192.5791 184.9011 L192.1538 184.9894 L189.2175 187.3663 L188.8335 187.7218 L191.2686 188.6366 L191.678 188.5776 L194.1401 193.3012 L197.6324 197.7331 L191.5975 194.6647 L190.4659 191.8486 L189.254 190.048 L185.3755 193.147 L184.2817 193.8786 L182.2703 194.8808 L176.182 197.3022 L175.7951 194.793 L171.4971 194.8317 L170.344 196.7079 L169.284 197.119 L167.1507 196.3656 L168.5015 198.8063 L166.5552 197.7967 L164.8331 196.8002 L162.5883 197.0011 L158.1874 196.8304 L157.5231 196.3157 L157.603 194.6713 L157.3497 194.4775 L156.9766 194.5101 L155.5488 194.4127 L153.9018 194.562 L153.3199 195.8278 L153.2555 195.9296 L153.0099 195.9857 L151.9926 196.0129 L151.2407 195.9717 L150.1006 196.0014 L141.3236 195.8632 L136.6962 196.0311 L137.3186 194.6474 L134.6078 195.5279 L130.1335 197.4337 L126.873 200.7867 L125.1448 206.5604 L125.3115 213.3113 L124.4911 215.299 L126.0552 216.6599 L135.1434 222.3795 L135.7839 223.3444 L136.7631 222.3341 L138.4701 223.2084 L139.6669 226.1918 L140.0043 226.6512 L140.4598 227.8697 L140.527 228.3361 L142.1409 232.3586 L138.9333 237.4304 L139.7643 239.0674 L140.3889 238.5519 L141.4951 239.8137 L156.0643 245.7718 L157.9195 248.4312 L159.8303 247.4953 L162.2202 250.1011 L171.4989 253.9933 L170.8902 254.8591 L165.875 255.7332 L165.2425 257.8936 L162.461 260.1076 L158.4568 263.4266 L157.4961 263.1173 L156.5354 262.804 L156.0487 263.2328 L155.8407 263.4818 L155.286 264.0132 L154.4468 264.6634 L153.5141 265.6351 L152.2485 266.6283 L152.1728 266.6481 L152.1421 266.6753 L152.1154 266.6634 L147.9977 264.9438 L142.7919 260.4787 L141.5136 259.448 L140.156 257.8071 L139.668 258.1311 L139.9228 258.6593 L139.958 258.7182 L140.9984 259.7667 L141.1283 259.8627 L142.3116 260.6007 L142.4844 260.9005 L142.567 261.1285 L142.6173 261.3981 L142.5426 261.6533 L142.6183 262.2635 L141.9127 261.939 L140.685 261.5886 L138.5363 260.9693 L133.2432 257.0567 L130.0629 255.1523 L128.8862 254.4324 L128.4345 254.157 L128.218 253.9636 L128.0197 253.7241 L127.9512 253.4334 L127.9922 253.1431 L128.1703 252.9279 L128.4167 252.8178 L128.8383 252.751 L129.3319 252.7391 L127.0106 252.4348 L114.2384 251.4123 L111.5686 251.1088 L108.8911 251.0144 L107.4024 251.4246 L105.7377 254.5169 M133.5875 270.8624 L133.641 270.3779 L133.8546 269.9496 L134.0422 269.6041 L134.2552 269.4326 L134.4839 269.3374 L134.7242 269.2603 L135.2035 269.3728 L136.2277 269.6882 L136.8407 269.9166 L137.619 270.1693 L139.4126 270.7148 L142.4778 271.5822 L144.3828 272.1783 L145.4938 272.6227 L145.6965 272.7592 L146.1583 273.3566 L146.2888 273.4271 L146.4391 273.3335 L146.7964 272.5395 L147.2381 271.8151 L148.1014 270.0098 L148.3579 269.7793 L148.5722 269.6152 L148.8104 269.5336 L149.0724 269.4858 L149.3577 269.4944 L149.8357 269.5373 L151.7555 270.0362 L152.9726 270.3528 L154.1662 270.7313 L154.3118 270.8088 L154.4867 270.9023 L154.8146 271.1567 L155.2166 271.6881 L155.3812 271.952 L156.0815 273.0931 L156.1805 273.5808 L156.252 274.4223 L156.3965 274.9965 L156.6958 275.9105 L157.0443 277.0619 L157.3124 278.1651 L157.8309 279.5759 L157.9796 279.8327 L158.1482 280.0372 L158.3528 280.2466 L159.1237 280.8011 L159.3063 280.9697 L159.4138 281.0451 L159.8772 281.2912 L160.2403 281.5258 L160.3864 281.6499 L160.5221 281.9026 L160.5325 282.0778 L160.4936 282.2493 L160.2355 282.6817 L159.7382 283.23 L159.1592 283.7412 L158.5949 284.1773 L158.1556 284.4638 L157.5339 284.7619 L157.0086 284.9561 L156.2348 285.1127 L154.4192 285.2323 L153.544 285.2356 L151.6549 285.0587 L151.5308 285.0323 L150.7276 284.8612 L149.6274 284.5347 L148.1665 284.0042 L147.3022 283.6905 L146.3603 283.3059 L145.3162 282.9505 L138.987 280.7017 L137.3297 279.9885 L136.9897 279.6472 L136.7599 279.1463 L136.6872 278.4488 L136.8179 277.5175 L136.9732 276.6497 L137.0032 276.2589 L136.9052 275.9761 L136.8338 275.699 L136.6739 275.4921 L136.4778 275.2855 L136.1121 274.9005 L135.1736 274.0937 L134.5392 273.4675 L134.2039 272.9389 L133.9329 272.4541 L133.8858 272.3024 L133.6008 271.327 L133.5973 271.2066 L133.5875 270.8624 M135.9223 302.4639 L136.6895 302.3823 L137.7272 302.2978 L138.165 302.0055 L138.4003 301.9544 L138.8946 302.4746 L139.2747 302.5904 L139.4329 302.6386 L139.4896 302.5933 L139.9186 302.2499 L140.4624 301.6452 L140.6001 301.7668 L140.6038 301.7945 L140.6345 302.0162 L140.6485 302.4754 L140.4616 303.0401 L140.2123 304.1745 L140.2425 304.7087 L140.2565 304.9573 L140.418 305.3979 L140.3579 305.5681 L139.6955 305.3925 L138.3158 305.1955 L138.1864 304.8142 L137.8905 304.44 L137.6523 304.1757 L137.09 303.5603 L136.8896 303.4391 L136.8459 303.4383 L136.5403 303.4321 L135.9758 302.9115 L135.9398 302.6094 L135.9321 302.5451 L135.9223 302.4639 M141.7076 300.3781 L141.8021 300.1386 L141.9053 299.6877 L142.324 299.4436 L142.7856 299.2825 L143.8235 298.7334 L143.8114 298.4576 L143.9305 298.2107 L144.2142 297.9383 L144.6736 297.714 L144.8173 297.6019 L145.0812 297.4939 L145.2704 297.289 L146.3814 296.6794 L146.9375 296.5005 L147.2593 296.5033 L148.298 296.7676 L148.5712 296.7931 L148.9287 296.7832 L149.3323 296.5866 L150.2451 296.7123 L150.5987 296.6769 L150.8967 296.5714 L151.4866 296.4807 L151.5361 296.4732 L151.5708 296.4485 L152.1924 295.9971 L152.4423 296.0417 L152.0323 297.0306 L152.0884 297.2507 L152.3602 297.3401 L152.4915 297.2449 L152.9181 297.1983 L153.0766 297.2338 L153.2262 297.3797 L153.3413 297.7313 L153.174 298.132 L153.1224 298.1881 L151.7671 299.6609 L151.5001 300.1081 L151.1068 300.4457 L150.5055 300.8418 L150.062 301.4387 L149.828 301.7034 L149.4721 302.1065 L148.9197 302.4313 L148.6524 302.5175 L148.3269 302.515 L147.5972 302.2668 L146.8602 302.0426 L144.9867 301.9927 L143.6433 302.0344 L142.4222 302.2405 L142.2372 302.0389 L142.0583 301.8654 L142.058 301.8274 L142.0572 301.663 L142.1647 301.3126 L142.1726 301.1201 L142.0617 300.9086 L141.75 300.679 L141.7381 300.5949 L141.7264 300.5117 L141.7076 300.3781 M145.584 228.8948 L145.8302 228.7299 L146.2377 229.9422 L147.5425 232.4781 L148.4529 233.0802 L149.3527 237.1088 L145.8804 231.2164 L145.584 228.8948 M147.2492 368.1258 L147.4218 367.886 L147.7695 367.544 L147.9392 367.8963 L148.2459 368.0928 L148.7294 367.9062 L149.1656 367.6779 L149.322 367.2831 L149.1502 366.8183 L149.0068 366.6378 L148.8604 366.5369 L149.2145 365.9913 L150.3523 364.8985 L150.9483 364.6158 L151.6697 364.0776 L152.5497 363.6239 L153.9185 363.0165 L155.81 362.4302 L155.8216 362.4487 L157.7478 361.4754 L158.1514 361.3254 L158.1808 361.4816 L158.7177 361.2924 L158.8866 361.5005 L158.9152 361.9085 L158.4901 362.7986 L157.5895 363.3866 L155.8793 363.8625 L155.1174 364.3043 L154.2895 364.5903 L153.9839 364.7518 L153.4739 365.0126 L153.403 364.9541 L153.2624 364.8272 L151.62 366.2171 L151.7835 366.6354 L150.867 367.6828 L150.6648 367.8505 L150.0509 368.3594 L149.3575 368.6417 L148.604 368.8964 L147.9169 368.7629 L147.5337 368.5379 L147.2492 368.1258 M156.4044 272.2661 L156.4332 271.9845 L156.4425 271.8959 L156.5486 271.6036 L157.0639 271.073 L159.2214 269.6078 L160.3401 269.001 L161.2079 268.6827 L161.806 268.5627 L162.307 268.3483 L163.1965 267.8915 L164.6746 266.9672 L164.8365 266.9272 L165.071 266.8691 L165.3899 266.8275 L165.6988 266.9153 L165.9224 267.1057 L166.0248 267.2426 L166.101 267.3444 L166.2376 267.7122 L166.3207 269.0249 L166.3337 270.2881 L166.2932 270.7127 L166.2837 270.7284 L166.1082 271.0186 L165.1853 271.4902 L164.859 271.705 L164.7796 271.9198 L164.7749 272.2319 L165.0451 272.8017 L165.0766 273.0066 L165.0501 273.202 L165.0419 273.5145 L164.9543 273.8241 L164.7934 274.2388 L164.705 274.5764 L164.6656 274.7273 L164.4538 275.3366 L164.158 276.735 L163.8528 278.0072 L163.7115 278.3713 L162.4046 280.6506 L161.8827 281.3114 L161.6935 281.4681 L161.6109 281.4899 L161.3158 281.567 L160.5198 281.5035 L160.3128 281.4248 L159.8626 281.182 L159.5787 280.9519 L159.4868 280.8295 L159.2965 280.6259 L158.7262 279.6171 L158.3425 278.5737 L158.1469 277.9269 L157.8558 277.0999 L157.4016 276.101 L156.9133 274.9421 L156.6688 274.2903 L156.4369 273.3652 L156.4044 272.2661 M174.331 254.9395 L174.4951 254.5841 L175.0837 254.4307 L175.6823 254.4699 L175.9462 254.6299 L175.992 254.6575 L176.0883 255.0133 L176.0171 255.2162 L175.7622 255.3931 L174.8518 255.56 L174.435 255.4029 L174.404 255.2652 L174.331 254.9395 M184.9201 197.5579 L190.0734 196.1552 L190.8562 199.4822 L185.6375 200.5912 L184.9201 197.5579 M188.9793 229.2412 L192.224 228.3464 L192.3669 228.334 L193.7034 230.6638 L189.6118 231.6617 L188.9793 229.2412 M203.5088 12.1865 L204.65 9.3715 L209.292 9.7463 L212.4666 10.0729 L212.7638 13.8212 L205.4461 13.7716 L203.5088 12.1865 M206.2715 8.171 L206.3581 6.9446 L206.3748 6.3084 L206.3835 5.979 L206.5314 3.966 L206.681 2.5979 L206.7291 2.5455 L206.8196 2.4749 L207.8875 2.1756 L208.8413 1.9391 L209.1819 1.8866 L209.3553 1.9168 L209.4381 2.0171 L209.4929 2.1558 L209.5469 2.3626 L209.5951 2.4572 L209.6398 2.5294 L209.7126 2.5637 L209.8258 2.5686 L210.1302 2.4997 L210.4996 2.4881 L210.6444 2.5534 L210.7235 2.7028 L210.7622 2.9571 L210.7889 3.7225 L210.7172 4.8759 L210.6219 7.2034 L210.6219 8.6061 L210.6465 9.2113 L210.6222 9.2716 L210.5798 9.2894 L209.6051 9.1663 L208.9255 9.1345 L208.2559 9.1696 L207.3402 9.1403 L206.5566 9.0586 L206.4645 9.0202 L206.4033 8.962 L206.2909 8.7651 L206.2715 8.171 M206.5489 309.7877 L207.4244 309.5631 L207.7311 309.5186 L208.0016 309.5462 L208.1821 309.6278 L208.398 309.8636 L208.398 309.972 L208.3798 310.1257 L208.1445 310.5235 L207.9185 310.7947 L207.6835 310.9843 L207.521 311.0655 L207.3857 311.056 L206.5489 309.7877 M212.3938 9.0433 L212.4451 7.6975 L212.6124 5.2363 L212.6341 3.9772 L212.6677 3.2366 L212.7082 3.0607 L212.8418 2.9047 L212.9281 2.8799 L213.1623 2.8939 L213.437 2.9988 L213.7665 3.2155 L214.0936 3.3691 L214.4107 3.4562 L215.0194 3.4649 L215.9248 3.5751 L216.367 3.6061 L216.6364 3.6779 L216.9114 3.7778 L217.0445 3.8761 L217.1332 3.9809 L217.1914 4.137 L217.2118 4.3215 L216.9286 4.7438 L216.4901 5.1595 L216.0754 5.6867 L215.5053 6.374 L215.4206 6.4095 L215.1062 6.4124 L214.773 6.4409 L214.429 6.618 L214.2479 6.7588 L214.1879 6.881 L214.1339 7.1023 L214.1619 7.9143 L214.1736 8.2499 L214.1429 8.7865 L214.0913 9.111 L214.0471 9.265 L214.0209 9.3009 L213.9634 9.3798 L213.8806 9.4264 L213.4069 9.5668 L213.057 9.6316 L212.7489 9.6535 L212.6891 9.6539 L212.5454 9.5969 L212.5356 9.5816 L212.4417 9.4318 L212.3993 9.3026 L212.3938 9.0433 M220.2222 14.4515 L220.5276 14.3669 L220.9794 14.4069 L221.478 14.338 L221.8766 14.1266 L222.1907 13.7068 L222.2717 12.861 L222.539 12.8296 L222.6743 12.8313 L222.7089 13.1248 L222.8291 14.1427 L222.9188 14.5167 L223.0752 15.1681 L223.6037 16.1279 L223.6069 16.4441 L223.275 17.2189 L223.5667 17.7015 L223.5299 18.3942 L223.0988 18.1283 L222.999 18.2113 L223.0093 19.5326 L223.0098 19.6123 L222.3905 19.8051 L221.5053 20.0693 L220.9995 17.9294 L220.2222 14.4515 M223.7697 222.4413 L223.8221 222.2945 L223.9652 222.2277 L224.6618 222.1849 L225.085 222.1387 L225.5426 221.975 L226.3868 221.5758 L227.0511 221.4199 L228.3172 221.3964 L228.6406 221.4368 L229.054 221.3811 L229.0858 221.3205 L229.1702 221.1609 L229.3406 220.7333 L229.3978 220.4207 L229.4449 220.3069 L229.709 219.664 L229.8636 219.4269 L230.0224 219.1436 L230.2174 218.9407 L230.2807 218.8752 L230.5874 218.6294 L231.1239 218.5172 L231.5944 218.4867 L232.1039 218.5172 L232.3132 218.5061 L232.5231 218.4945 L232.5292 218.4611 L232.6493 217.8001 L232.8301 217.1197 L232.9508 217.0038 L233.1919 216.9667 L234.7531 217.0504 L235.7831 217.0533 L237.2794 217.0611 L237.8204 217.0273 L237.8897 217.0104 L238.3542 216.8966 L238.5945 216.8788 L238.8057 216.9625 L238.8086 217.0013 L238.8134 217.0628 L238.7734 217.219 L238.1017 217.9407 L237.4049 218.9663 L236.8306 219.8867 L236.4185 220.8649 L236.1615 221.977 L236.1846 222.9634 L236.2465 223.7642 L236.2936 223.9745 L236.1306 224.1081 L235.2482 223.8158 L234.554 223.8244 L234.079 223.8747 L232.0009 224.4252 L230.8079 224.7894 L230.4217 224.911 L229.7919 224.9737 L229.5396 224.9774 L229.384 224.9609 L227.7172 224.7848 L226.7759 224.7193 L225.6797 224.8446 L224.8227 225.0298 L224.1598 225.1407 L224.1341 225.1444 L224.0039 224.9939 L223.9528 224.3077 L224.0534 224.2059 L224.0655 224.0653 L223.9795 223.7222 L223.8168 222.9968 L223.78 222.7061 L223.7697 222.4413 M225.1461 212.4882 L225.1726 211.8655 L225.2012 211.5632 L225.2176 211.5409 L225.2808 211.5166 L225.3594 211.4828 L225.4518 211.463 L225.4971 211.4658 L225.9438 211.6275 L226.1161 211.6535 L226.2021 211.6523 L226.3564 211.5937 L226.4048 211.5945 L226.4996 211.623 L226.6769 211.7553 L226.7915 211.8217 L226.9423 211.9112 L227.0032 211.9686 L227.0874 212.0923 L227.1683 212.2811 L227.1916 212.3768 L227.2472 212.5595 L227.2604 212.7521 L227.2533 212.8445 L227.225 212.9632 L227.2086 212.9917 L227.1517 213.0391 L227.0741 213.0738 L226.9095 213.1063 L226.7891 213.0857 L226.625 213.023 L226.5416 213.0057 L225.311 212.9979 L225.202 212.9678 L225.1702 212.9323 L225.1488 212.8078 L225.1485 212.5311 L225.1461 212.4882 M229.2181 85.5832 L229.2398 82.2816 L229.2877 82.1045 L229.3626 81.9803 L229.5312 81.8206 L231.0437 80.0276 L231.4721 79.4131 L232.147 78.53 L232.2709 78.3534 L232.4426 78.1545 L232.5758 78.119 L232.7012 78.0588 L232.8452 78.0443 L234.5141 78.3654 L235.2136 78.5234 L235.6714 78.6683 L235.7468 78.7413 L235.7759 78.8379 L235.7339 79.723 L235.7886 80.066 L235.8363 81.077 L235.8445 81.2483 L235.9419 81.4038 L236.2153 81.8408 L236.5974 82.2853 L236.8793 82.9327 L236.8401 83.4865 L236.5977 84.4649 L236.7351 85.3674 L236.4339 87.2037 L236.4217 87.2499 L236.1134 88.4214 L236.0247 88.4536 L235.7503 88.2506 L234.661 87.9564 L232.8063 87.7402 L232.5948 87.8293 L232.468 87.9803 L232.441 88.173 L232.503 88.3331 L232.548 88.3827 L232.7057 88.4342 L233.0916 88.5069 L234.3855 88.5164 L234.8163 88.6385 L235.7834 89.2067 L235.903 89.3771 L235.9869 89.6825 L235.9358 90.1595 L235.8151 90.448 L235.9032 90.979 L236.1777 91.1816 L236.355 91.362 L236.3989 91.4445 L236.4648 91.5683 L236.4807 91.8699 L236.436 92.141 L236.395 92.1703 L236.2671 92.2611 L236.0446 92.2764 L234.4948 91.8241 L232.2129 91.4787 L230.0647 91.213 L229.8019 91.1404 L229.7328 91.0566 L229.6598 90.8226 L229.5883 90.4756 L229.3684 88.2931 L229.3184 87.6729 L229.2181 85.5832 M230.0467 178.221 L230.0697 177.9859 L230.1661 177.9496 L230.2463 177.9426 L230.26 177.8997 L230.2849 177.8296 L230.3646 177.7867 L230.4839 177.7685 L230.7631 177.8683 L230.8155 177.9776 L230.7237 178.1088 L230.7216 178.1958 L230.8113 178.2841 L230.9415 178.3051 L231.0275 178.2358 L231.1069 178.1575 L231.2104 178.2028 L231.2572 178.3435 L231.203 178.52 L231.0519 178.5637 L230.9587 178.685 L230.8563 179.0471 L230.81 179.1767 L230.8394 179.3355 L230.8918 179.4806 L231.0201 179.5883 L231.1363 179.7182 L231.0937 179.9389 L230.9524 180.0119 L230.8042 179.9731 L230.6819 179.7368 L230.2876 178.9816 L230.1618 178.8578 L230.0732 178.7267 L230.0467 178.221 M238.9354 171.7865 L239.0661 171.294 L239.3459 170.771 L239.552 170.5029 L239.9241 169.9732 L240.0221 169.3879 L240.228 169.1425 L240.644 169.0753 L240.8782 169.1145 L240.7594 169.2675 L240.22 170.9764 L241.4806 171.3258 L243.4162 171.7217 L243.813 171.7415 L243.6327 171.8744 L243.4252 172.1573 L243.1 172.4283 L242.9049 172.6721 L242.8038 172.8676 L242.8213 173.1538 L242.9012 173.483 L243.3662 173.8097 L243.5385 173.8357 L243.868 173.714 L244.125 173.5845 L244.3319 173.4442 L244.6487 172.9942 L244.8046 172.8391 L244.9721 172.7834 L245.1865 172.6193 L245.3088 172.1693 L245.231 171.9523 L245.8614 172.0134 L246.1824 172.029 L246.7509 172.0575 L246.73 172.4357 L246.6416 172.9856 L246.6302 173.6253 L246.5487 174.1702 L246.5468 174.6507 L246.5802 174.9683 L241.2691 177.0154 L240.4503 176.454 L239.8117 175.4789 L239.5015 174.5962 L239.4231 174.2028 L239.2591 173.9128 L239.0868 173.0012 L238.9354 171.7865 M240.2446 170.9516 L240.784 169.2427 L240.8613 169.1598 L242.0313 169.4985 L243.4115 169.9625 L243.9842 170.0887 L244.7398 170.1605 L245.8661 170.3111 L246.6736 170.33 L246.866 170.3907 L247.0108 170.481 L247.1055 170.6617 L247.0163 171.1814 L246.7715 172.0286 L246.207 172.0043 L245.1982 171.9362 L243.8378 171.7168 L243.4409 171.697 L241.5052 171.301 L240.2446 170.9516 M240.8009 177.2534 L240.9356 177.189 L241.2834 177.0224 L246.5945 174.9753 L246.7374 176.0865 L246.6326 176.7374 L246.627 176.772 L245.8701 177.2187 L244.2025 178.056 L243.9527 178.3654 L243.3501 179.2187 L243.0799 179.3066 L242.6427 179.1218 L241.8897 178.494 L241.3956 178.082 L240.8009 177.2534 M242.0996 194.5905 L242.2788 194.3533 L242.3113 194.3104 L242.5349 194.2803 L242.7205 194.3682 L245.15 194.2325 L245.4988 194.4342 L246.0564 194.4127 L246.5733 194.3674 L247.1876 193.8943 L247.3569 193.4934 L247.4437 193.0562 L247.6322 192.7213 L247.7492 192.4096 L247.7174 191.9159 L247.701 191.8701 L247.6181 191.6375 L247.5766 191.5203 L247.4623 190.9417 L247.521 190.2158 L247.6758 189.247 L247.8058 188.8973 L247.76 188.3264 L247.8127 187.8121 L247.7248 187.3564 L247.4054 186.8313 L246.997 186.4589 L246.609 186.3418 L246.3446 186.1822 L246.1927 186.0906 L245.8733 185.6629 L245.8849 185.1733 L246.2181 184.8561 L246.7091 184.6648 L246.9576 184.3294 L246.9925 183.7405 L246.8975 183.585 L246.7713 183.3783 L246.8139 182.9758 L247.182 182.5625 L247.9458 181.677 L248.2054 181.6411 L248.6326 181.8217 L249.0751 182.0705 L249.5276 182.2903 L250.0006 182.4243 L250.2186 182.1847 L250.6011 182.141 L250.997 181.6452 L251.159 181.5285 L251.3045 181.4295 L251.6613 180.8372 L251.8309 180.4635 L251.8288 179.8613 L251.8275 179.4324 L251.9447 178.8694 L252.0371 178.4252 L252.0183 178.2375 L252.0114 178.1678 L251.7626 177.6303 L251.7367 177.4905 L251.6348 176.9374 L251.7338 176.3331 L251.9024 175.1069 L251.9058 174.4535 L251.9069 174.251 L251.5403 173.9318 L251.5139 173.8319 L251.4379 173.5445 L251.426 173.4991 L251.5152 173.3675 L251.6642 173.1477 L252.0847 172.7645 L253.0727 172.5195 L253.5533 172.5809 L254.3597 172.7162 L255.1481 172.5883 L255.5421 172.5615 L256.7913 172.7645 L257.5776 173.1052 L257.7724 173.3609 L258.2421 173.6942 L258.6357 173.8967 L259.1957 173.8897 L259.4254 173.9243 L260.0728 174.0221 L260.4118 174.3079 L260.8937 174.9683 L261.1735 175.3808 L261.6046 175.9038 L262.1275 176.2927 L262.7503 176.5988 L263.6893 176.7357 L264.7394 176.7147 L265.6609 176.4763 L266.5213 176.0333 L267.1713 175.5099 L267.8533 175.1733 L268.281 175.2051 L268.6118 175.3647 L268.8611 175.6753 L269.1795 175.5293 L269.5013 175.4315 L269.3476 175.1584 L269.0633 174.913 L269.0056 174.4115 L268.7934 174.2939 L268.4803 174.4506 L267.9213 174.39 L267.6805 174.1603 L267.5529 173.985 L267.3153 173.7998 L267.242 173.4657 L267.4124 173.1848 L267.8581 173.113 L268.8156 173.2854 L270.6285 173.7659 L271.2176 174.0246 L271.4709 174.1887 L271.613 174.4106 L271.6622 174.6358 L271.6389 174.9506 L271.3221 175.1304 L270.9725 175.2174 L270.5721 175.29 L270.2405 175.3968 L270.1905 175.6596 L270.3924 175.7565 L270.9095 175.8126 L271.2626 175.747 L272.5602 175.6691 L273.2186 175.5717 L273.6193 175.6233 L273.7342 175.493 L273.8231 175.1683 L273.9636 174.9592 L274.2558 174.9369 L274.6232 175.1395 L274.7785 175.2508 L275.0514 175.1754 L276.0039 175.5099 L276.2029 175.6633 L276.4787 175.6551 L280.5326 177.05 L280.7682 177.2463 L280.7753 177.4406 L280.6724 177.625 L280.4035 177.8011 L280.0208 177.8671 L279.4407 178.0119 L278.4628 177.929 L277.1752 177.5557 L275.4809 176.7943 L274.2847 176.1855 L273.7358 175.9957 L273.433 176.1207 L273.1509 176.7753 L272.638 177.0673 L271.8665 177.1853 L270.6676 177.1737 L269.8006 177.3024 L269.1377 177.7153 L268.7714 178.0865 L267.6913 178.4879 L267.423 178.739 L267.2774 178.9638 L267.0829 179.1849 L266.9646 179.6118 L266.5266 180.054 L266.1439 180.1686 L265.369 180.4598 L265.157 180.5671 L264.7937 180.5889 L264.0219 180.4334 L263.0104 180.4978 L262.8895 180.6627 L264.3167 180.6508 L265.0835 180.6986 L265.6546 180.69 L265.8967 180.758 L266.1021 180.9028 L266.1984 181.1919 L266.1373 181.5277 L265.753 181.9764 L265.7268 182.247 L266.0071 182.4668 L266.24 182.4235 L266.4684 182.1298 L266.8103 181.7475 L267.269 181.5648 L267.9359 181.519 L268.8098 181.5128 L269.5879 181.5363 L269.8927 181.9174 L269.916 182.7844 L269.875 183.4245 L269.6482 183.9995 L269.7594 184.4363 L270.0767 184.9729 L270.3376 185.6794 L270.3842 186.4791 L270.4284 186.8924 L270.6473 187.3238 L270.9765 187.495 L271.3706 187.4797 L269.5707 188.7607 L269.4227 187.9049 L269.4807 187.4987 L269.8774 187.2054 L269.7276 186.8346 L269.2401 186.8264 L268.3588 187.0099 L268.0545 186.9514 L267.6665 186.6882 L267.315 186.3929 L267.0935 186.2655 L266.8048 186.2609 L266.5724 186.4053 L265.7178 187.8715 L264.9135 189.0259 L265.1496 189.3678 L264.7259 189.831 L263.8258 189.4512 L263.3698 189.1571 L263.3648 188.8053 L263.7485 188.3264 L264.4591 187.3176 L265.341 186.3273 L265.8771 185.6225 L265.9383 185.3845 L265.7464 185.1061 L265.0935 184.6846 L264.9236 184.4932 L264.9014 184.249 L264.9736 183.9863 L265.7348 182.8648 L265.2383 182.8731 L263.6879 183.0088 L263.4111 183.1074 L263.572 183.5256 L263.8031 183.7417 L264.0849 183.7999 L264.3482 183.9318 L264.4266 184.1525 L264.3133 184.4886 L263.8023 185.4336 L263.4032 185.6633 L262.9945 185.6909 L262.9501 185.3651 L262.9252 184.93 L262.7579 184.3476 L262.4843 183.8757 L261.8094 183.2026 L261.6506 182.8966 L261.4079 183.1214 L259.4863 183.7677 L258.4785 184.2746 L257.6983 184.6301 L256.9856 185.3057 L256.6084 185.8023 L256.5785 186.0733 L256.8122 186.4276 L257.1126 186.7307 L257.174 187.1337 L256.9813 187.4409 L257.0483 187.7833 L257.3458 187.9441 L257.3712 188.1841 L257.2357 188.9661 L257.0761 189.737 L257.1409 189.9552 L257.7443 190.4414 L257.5257 190.7751 L257.1978 190.9302 L256.4608 190.2661 L256.0378 190.0422 L255.6901 189.9939 L255.6001 190.2628 L255.8926 190.6608 L256.2175 190.9038 L256.343 191.1397 L256.153 191.2663 L255.9894 191.6177 L255.8219 191.6734 L255.2439 192.0281 L254.7384 191.9027 L254.4282 191.7814 L254.0858 191.5711 L253.7605 190.8596 L252.9014 190.5969 L251.9357 190.201 L251.3979 190.182 L250.758 190.2533 L250.2927 190.7862 L250.0845 191.8008 L250.0268 192.8975 L250.175 193.9211 L250.3925 194.5146 L250.3208 194.7806 L250.2231 194.9493 L250.8617 195.1893 L251.3379 195.2702 L252.1056 195.2763 L252.8337 195.0936 L253.7189 194.9134 L254.0053 194.9031 L254.2832 195.0334 L254.4253 195.4504 L254.4608 195.8801 L254.4049 196.3499 L254.1723 196.6893 L254.4968 197.6412 L254.7974 197.7979 L255.4035 197.3562 L255.8277 197.0213 L256.3073 197.0267 L256.7344 197.449 L257.4178 197.8099 L257.9677 197.9583 L258.3163 198.3811 L258.1823 198.878 L258.2263 199.2653 L257.7613 199.749 L256.7892 200.3178 L256.0855 201.0032 L255.3063 201.5612 L255.0203 201.694 L254.6077 201.8853 L253.9987 201.388 L253.9082 200.976 L254.005 200.8601 L254.479 200.3037 L255.1865 199.9627 L255.8203 199.408 L256.4809 198.5609 L256.2737 198.2322 L256.0196 198.4062 L255.684 198.93 L255.1462 199.4513 L254.1276 200.2559 L253.5731 200.5504 L253.5324 200.5722 L253.1229 200.5858 L252.7164 200.3334 L249.6708 197.9332 L249.598 197.7616 L249.3328 197.1372 L249.232 196.5977 L249.3731 196.2719 L249.6205 195.8818 L249.412 195.5197 L248.9351 195.4087 L248.4118 195.485 L247.8203 195.4821 L245.073 195.8162 L243.6814 195.89 L243.1669 195.9626 L243.0846 195.9742 L242.7038 195.4623 L242.1742 194.8829 L242.0996 194.5905 M245.1635 211.8321 L245.277 211.5949 L245.5724 211.3096 L245.8714 211.1137 L246.713 210.8151 L247.3432 210.6984 L247.5814 210.8221 L247.7015 211.1677 L247.895 211.8341 L247.8606 212.3298 L247.6793 212.4473 L246.5794 212.5558 L245.882 212.4923 L245.6158 212.4568 L245.345 212.3047 L245.1701 212.0712 L245.1669 211.9562 L245.1635 211.8321 M245.6076 238.1977 L245.6129 237.9396 L245.6962 237.7438 L245.8405 237.6011 L246.0038 237.5322 L248.1784 237.5537 L248.7323 237.6262 L249.0253 237.7652 L249.123 237.8794 L249.2672 238.1021 L249.3297 238.6447 L249.5432 239.3403 L249.801 239.5519 L249.7004 239.9415 L249.183 240.2681 L248.9658 240.3633 L248.8014 240.4103 L248.3793 240.5163 L246.9724 241.042 L246.4817 241.2853 L246.0667 239.9188 L245.8823 239.3647 L245.7486 238.8096 L245.6076 238.1977 M246.3613 210.0542 L246.8035 208.1646 L247.6068 207.904 L248.3608 207.885 L249.4448 207.7032 L250.1067 207.5778 L249.7068 208.7255 L249.5488 209.5977 L247.5467 210.2155 L246.3613 210.0542 M255.8378 167.5796 L255.838 167.4802 L255.8396 167.0504 L255.946 166.2984 L255.9794 165.412 L256.0887 164.5582 L256.2009 164.1626 L256.2154 163.9877 L256.2631 163.8829 L256.4269 163.8276 L256.614 163.8293 L256.8233 163.9246 L257.0004 164.0326 L257.143 164.1832 L257.4151 164.2995 L257.9801 164.4719 L258.6958 164.6514 L259.9508 164.9319 L260.3107 165.0606 L260.5121 165.1051 L260.687 165.0746 L261.3037 164.8976 L261.6985 164.9121 L261.9981 165.1105 L262.1831 165.367 L262.9609 167.7504 L262.3617 167.4031 L261.621 167.0587 L257.2796 165.7193 L257.0943 168.0705 L256.0378 168.2553 L255.9907 168.2652 L255.978 168.1319 L255.8378 167.5796 M256.0225 195.7362 L256.7839 195.2974 L257.661 196.7206 L256.8334 197.1096 L256.0225 195.7362 M256.1892 168.2586 L257.0943 168.087 L257.2796 165.7358 L261.621 167.0752 L262.3617 167.4196 L262.9781 167.8337 L262.931 168.2103 L262.8376 168.65 L262.7283 169.5096 L262.3617 169.7307 L262.042 169.6218 L261.2166 169.3842 L260.2763 169.277 L258.163 169.1574 L257.7496 169.0967 L256.1903 169.1252 L256.2313 168.7061 L256.1892 168.2586 M256.2988 172.4201 L256.9938 169.6565 L259.6088 169.9543 L263.4654 171.1162 L264.5017 171.6095 L264.1384 173.6356 L262.9506 173.4137 L262.2816 172.7447 L258.9964 171.8504 L258.7516 173.2112 L256.2988 172.4201 M256.5002 160.1329 L256.9281 158.1781 L258.3869 158.5262 L257.8843 160.6325 L256.5002 160.1329 M257.0644 194.8511 L257.0785 194.8235 L257.1425 194.6965 L257.3976 194.6371 L258.0675 194.6981 L258.5391 194.8602 L258.9173 194.8342 L259.2738 194.9208 L259.879 194.7695 L260.3049 194.8891 L260.249 195.3448 L260.0524 196.0752 L259.7734 196.5322 L259.3418 196.7396 L258.8516 196.8708 L258.497 196.9879 L258.2924 196.9784 L258.0434 196.8291 L257.697 196.3788 L257.4101 195.7877 L257.1084 195.1402 L257.0644 194.8511 M258.4907 194.1319 L258.7087 193.4625 L261.0599 194.2288 L260.8418 194.8981 L258.4907 194.1319 M259.052 201.1269 L259.0888 200.8774 L259.1899 200.6819 L259.3915 200.1689 L259.4363 200.0629 L259.332 199.7226 L259.3177 199.5812 L259.31 199.5045 L259.4826 199.2607 L260.0717 198.6829 L260.9437 198.0957 L261.1719 197.9971 L261.7591 197.8247 L263.7176 197.3715 L264.5451 197.0572 L264.5999 197.2857 L263.9065 198.1761 L263.7382 198.3922 L263.4182 198.5468 L263.1597 198.6718 L262.9689 198.8925 L263.0737 199.3049 L262.8945 199.7742 L261.4847 200.2534 L261.4582 200.1998 L261.2034 200.3442 L261.0642 200.5116 L260.9353 200.6964 L260.9289 200.9747 L260.5838 201.7554 L260.4255 202.0421 L260.1604 202.3481 L260.1519 202.358 L259.7824 202.1666 L259.666 202.0301 L259.0949 201.3603 L259.052 201.1269 M260.1723 202.5064 L260.2882 202.4306 L260.4226 202.3427 L260.5277 202.1728 L261.0631 201.6107 L261.1316 201.3488 L261.0832 201.1277 L261.0644 200.9055 L261.1639 200.6988 L261.3158 200.6155 L261.5067 200.3256 L261.4913 200.2683 L262.89 199.801 L262.6852 200.3235 L262.7174 200.4613 L262.8466 200.6217 L262.9488 201.0486 L262.9937 201.5892 L262.7746 202.0429 L263.0311 202.3262 L263.4386 202.6953 L263.6578 203.1271 L263.5964 203.3387 L262.5322 203.2764 L262.4988 203.8443 L262.4115 204.1313 L262.2718 204.3928 L262.0722 204.4835 L261.6527 204.3074 L261.4603 204.0744 L261.318 203.8224 L261.2965 203.7845 L261.3574 203.4438 L261.3759 203.3407 L261.332 203.3102 L260.1723 202.5064 M261.3426 195.7502 L261.5278 195.3205 L261.6297 194.8849 L261.6109 193.9236 L261.7885 193.1989 L262.4814 192.7853 L263.0808 192.6187 L263.4746 192.577 L263.8282 192.3691 L263.9611 192.0862 L263.9915 191.7439 L264.764 190.1102 L264.7548 189.8549 L265.1965 189.3617 L265.5638 189.1703 L266.4125 188.9954 L267.0866 189.0494 L267.7509 189.3835 L268.023 189.2223 L268.5099 189.1039 L269.2144 188.995 L269.4865 188.8354 L271.3581 187.4966 L271.6879 187.212 L271.83 187.0569 L272.0131 186.7365 L272.196 186.3632 L272.1958 186.018 L272.0235 185.5981 L272.0129 185.2962 L272.1709 185.0549 L272.5612 184.8293 L273.1056 184.6709 L274.3016 184.4169 L274.6113 184.2647 L275.1149 183.9591 L275.5352 183.5008 L275.6265 183.1416 L275.6283 182.7852 L275.4441 182.3856 L274.8579 182.2688 L274.0298 182.433 L272.991 182.8092 L272.6526 183.1424 L272.3029 183.9422 L271.9682 184.1772 L271.7509 184.0267 L271.7347 183.5264 L271.8843 183.1812 L271.9367 182.8129 L271.7363 182.5283 L271.7276 181.3895 L271.7591 180.8331 L271.7292 180.2676 L271.9324 180.0787 L272.1764 179.9364 L272.5573 179.957 L273.0662 180.2771 L273.5537 180.8026 L274.0343 181.2806 L275.1858 182.141 L275.4656 182.1571 L275.5889 181.9979 L275.8284 181.6889 L275.9255 181.6052 L276.3508 181.2377 L276.8034 180.9659 L277.4732 180.4512 L277.9607 179.9414 L278.7806 179.3548 L279.5587 179.0104 L280.0255 178.4891 L280.4217 178.1661 L280.7346 177.9607 L280.9696 177.9059 L281.076 178.1637 L281.5878 179.267 L282.6771 181.5351 L283.5899 183.481 L283.7879 184.0436 L283.8442 184.6128 L283.6923 185.5812 L283.474 186.5076 L283.3165 187.0718 L283.2448 187.6826 L283.4348 188.5879 L283.5256 189.3542 L283.6653 190.1053 L284.071 190.2649 L284.6168 190.5565 L284.6964 190.8592 L284.4895 191.0972 L284.1539 191.2275 L281.0916 191.4329 L280.8057 191.2514 L280.775 190.9747 L281.1188 190.4311 L281.4219 190.1857 L281.6463 189.7428 L281.7508 189.2726 L281.7418 188.8201 L281.5992 188.152 L281.6608 187.0322 L281.7437 186.0027 L281.5253 185.6237 L279.9694 185.3548 L279.5328 185.4105 L278.8357 185.7722 L277.0781 186.8099 L275.6355 187.6307 L274.0282 188.2774 L273.1263 188.7682 L272.5382 189.2293 L271.9089 189.4945 L271.4304 189.6198 L271.221 190.1292 L271.1932 190.7817 L271.3891 192.1481 L271.5624 193.0525 L271.6363 193.1486 L272.0094 193.0352 L272.2646 192.8422 L272.6486 191.9732 L272.9008 191.762 L273.2975 191.6152 L273.8239 191.6585 L274.3209 191.9014 L274.7047 192.2854 L274.8886 192.6587 L274.6758 192.9585 L273.9263 193.3474 L272.2048 193.9925 L270.2725 194.503 L269.5529 194.7645 L268.0653 195.1646 L266.3128 195.7176 L265.4831 196.1412 L264.9379 196.3932 L264.3017 196.5878 L263.9042 196.4089 L263.5294 196.3309 L262.9922 196.3643 L262.1783 196.3276 L261.6287 196.2542 L261.3939 196.0876 L261.3426 195.7502 M262.9204 239.0538 L262.9437 237.6741 L262.9895 236.4173 L263.7504 235.5093 L264.1384 234.6966 L263.7705 232.6967 L265.107 232.2802 L267.0257 232.2555 L271.1279 232.9359 L271.5593 235.3233 L272.7502 235.3233 L272.6814 236.2593 L272.0039 238.989 L273.0429 239.9596 L273.7564 241.2692 L274.9177 242.5713 L276.4212 243.7098 L277.6439 244.5526 L277.3205 245.4098 L275.2832 244.6091 L271.0842 242.3829 L268.2439 241.7986 L266.7899 241.9335 L266.7905 241.6547 L266.7709 240.5208 L267.3367 240.6264 L267.3039 239.7246 L266.7905 239.7263 L264.8916 239.6681 L263.3717 239.4302 L262.9204 239.0538 M270.4578 173.5436 L271.301 172.0385 L272.1426 171.1546 L272.8476 169.6276 L273.0207 169.1207 L273.0112 168.9412 L273.4005 168.0074 L273.4613 167.8325 L273.8721 166.7101 L273.8872 166.6313 L273.9049 166.6202 L274.1706 165.8938 L274.2024 164.3577 L273.8932 163.5896 L274.1264 162.4078 L274.6293 161.5948 L275.2692 161.1254 L275.536 160.6452 L276.9955 160.1758 L277.8615 160.8482 L280.0909 161.6695 L282.2246 162.235 L282.9285 162.075 L283.2427 162.4429 L283.2752 163.1751 L282.7856 163.2258 L282.8034 163.2914 L282.7727 163.4638 L282.6684 163.6082 L282.1811 163.7014 L281.8641 163.536 L281.4107 163.654 L280.6573 164.0689 L280.4461 164.151 L279.7 164.594 L278.3842 165.0618 L276.3892 166.5125 L276.196 166.9576 L276.2825 167.8671 L275.9732 169.7022 L275.664 170.2249 L275.6373 170.7355 L276.0052 170.9397 L278.9815 171.3344 L281.9808 171.1113 L282.1817 171.2915 L282.1605 172.9451 L282.3929 173.1448 L284.5146 173.3704 L287.1373 173.8018 L288.8478 173.7342 L288.8158 173.318 L288.2076 173.0408 L287.4793 172.8272 L286.9703 172.6778 L286.2981 172.2831 L284.7621 172.3153 L284.6874 171.2272 L287.6505 170.997 L289.1998 167.1523 L288.9708 167.1065 L288.5241 167.1589 L288.3195 167.0438 L288.2142 166.7938 L288.2065 166.4721 L288.2155 166.4474 L288.0578 165.8026 L288.1054 165.2417 L288.1097 163.7996 L287.8077 163.8033 L287.5489 163.6466 L287.5293 163.1417 L287.6058 162.6661 L288.1539 161.8171 L288.3346 161.6253 L288.5474 160.7785 L290.9293 160.5916 L290.848 160.5161 L290.1496 160.1375 L288.8491 159.5864 L290.5376 154.1289 L290.8769 154.3508 L290.9415 154.1615 L290.9415 153.893 L289.6695 151.6002 L291.5883 151.4847 L292.8321 150.7752 L294.0638 151.5507 L294.1872 151.516 L294.6328 151.568 L295.2749 151.7062 L295.3183 151.7017 L295.5978 151.2496 L294.8859 150.9856 L293.8484 150.4039 L295.2114 149.2777 L294.4068 145.8496 L293.073 146.4437 L292.4405 143.6467 L291.1092 142.7061 L293.7505 134.8554 L294.5423 133.5621 L294.591 133.3884 L294.9663 132.5097 L295.9725 130.8326 L296.4301 130.1832 L296.7887 127.9533 L295.7407 122.1031 L296.921 120.659 L301.2685 119.6321 L304.6016 118.7517 L305.7946 118.5136 L307.955 118.613 L308.3533 118.2846 L308.6902 118.1918 L307.9486 119.7741 L307.7208 120.8018 L307.6202 122.0222 L307.9158 123.3486 L308.7138 125.1569 L310.6198 128.7632 L312.1543 130.9704 L312.9948 132.3372 L314.181 133.1615 L315.3298 134.1978 L316.0076 133.9532 L316.1714 133.8451 L316.8053 133.8047 L317.1943 133.8538 L317.5693 133.7366 L318.1775 133.8241 L318.7095 133.8517 L318.7312 133.8612 L319.7003 133.6256 L324.3032 131.6214 L325.0773 131.1231 L325.5865 130.6243 L326.0676 130.9391 L324.8653 132.1623 L323.3274 133.7956 L320.552 135.7466 L320.0783 136.5127 L320.0981 136.9112 L319.5802 137.7635 L319.1872 138.2808 L318.9339 138.3629 L318.1436 139.641 L326.4352 137.1121 L325.9218 135.99 L326.5308 135.4553 L326.6883 135.2189 L327.0508 134.9986 L328.4254 133.7911 L325.9324 126.3319 L324.0481 124.1123 L319.2287 123.4852 L319.1488 122.8453 L319.0511 122.8148 L318.6846 122.495 L318.5512 122.2339 L318.3974 122.035 L318.5578 121.6876 L319.5373 121.5832 L320.7325 121.5432 L322.2601 121.5242 L323.6887 121.5688 L324.354 121.662 L325.0408 121.8724 L325.5214 122.1295 L325.6603 122.2974 L327.0598 122.9323 L327.3332 123.4625 L327.5531 123.5603 L328.0343 124.0422 L328.489 124.5476 L328.6332 124.6124 L329.0167 124.673 L329.5251 124.6441 L329.8368 124.8252 L330.2005 125.1751 L330.7012 126.0328 L332.0856 127.9245 L332.3407 128.1328 L333.6232 127.6728 L333.4941 129.6403 L334.2309 130.7022 L334.2719 130.8244 L334.7906 131.1878 L334.8674 131.1981 L334.8679 131.2419 L335.7034 131.8273 L334.093 133.4618 L334.134 133.565 L334.0385 133.8237 L333.6222 134.0147 L333.5386 134.0246 L333.1429 134.426 L332.9145 135.6385 L332.8274 135.8072 L332.779 136.0972 L332.2669 136.3885 L332.151 136.4751 L332.0157 136.5312 L323.5743 141.3291 L321.2441 141.6315 L320.4138 141.8708 L318.5398 143.2416 L318.1055 143.8984 L318.2884 145.1405 L318.7343 145.8162 L318.8669 146.3166 L319.0241 146.6875 L319.2568 146.8133 L319.5021 146.6058 L319.586 146.2374 L319.2756 145.216 L319.6037 144.8233 L320.9421 144.1533 L322.3278 144.0164 L322.9042 144.3546 L323.885 146.2568 L324.2624 146.7407 L323.7607 147.4469 L323.1453 148.2774 L322.8463 149.2088 L322.6298 150.0776 L322.2902 151.9645 L322.499 153.3781 L323.0763 153.5555 L324.1725 153.4326 L324.3781 154.159 L324.5321 155.458 L325.194 157.1233 L325.3099 157.2235 L325.2922 157.3275 L325.2901 157.365 L325.5222 157.9487 L325.8099 157.9859 L326.9537 157.7491 L327.4089 157.7173 L327.7384 157.7681 L328.0036 157.938 L328.0787 158.0877 L328.0883 158.2697 L331.1381 156.3853 L336.1507 156.1296 L340.8589 155.5727 L342.1213 155.6676 L341.9228 155.9357 L339.8823 155.9559 L337.7545 156.2286 L334.3079 156.684 L333.3856 156.6465 L331.1593 156.5928 L329.9485 157.9698 L327.1842 159.8957 L324.0923 162.2808 L323.9343 162.5893 L325.3819 164.6147 L325.3512 166.4853 L325.4296 166.6891 L325.3435 166.9605 L325.3158 168.6529 L327.3221 169.9881 L330.2674 171.9321 L329.881 174.2254 L335.3858 174.5554 L335.5817 175.8629 L332.1835 176.2465 L330.5506 176.4363 L329.1876 176.6095 L328.3884 178.6099 L319.6029 179.9112 L318.5279 180.8987 L318.3297 181.8667 L318.909 182.499 L319.5415 184.3055 L320.4813 185.1844 L321.6376 186.2263 L321.6911 186.7216 L320.9066 187.8571 L320.7163 188.764 L320.7079 189.3662 L321.2266 190.2632 L321.2666 190.7565 L320.8907 190.799 L320.6086 190.1511 L320.0214 188.9896 L319.351 187.3844 L318.467 184.8619 L318.1561 183.8003 L318.0603 183.7718 L317.7954 183.9958 L317.4966 183.6291 L316.986 183.5194 L316.769 183.4435 L316.6378 183.3495 L316.3284 183.2513 L315.8131 183.2595 L315.5694 183.1317 L315.4323 183.0174 L315.2134 182.9795 L314.701 183.0541 L314.4988 182.9539 L314.3268 182.7588 L314.2342 182.5666 L314.2405 182.4115 L314.3699 182.3018 L314.6057 182.1798 L314.7627 182.1294 L314.9397 181.99 L315.0369 181.8176 L315.0808 181.6382 L315.1586 181.4518 L315.445 180.2973 L315.0604 179.9178 L314.727 179.9636 L314.2683 180.9053 L313.7345 181.1466 L312.5129 180.3076 L311.8806 180.2845 L310.3718 181.1144 L309.7033 180.9094 L308.8411 181.168 L308.7963 182.6071 L309.3585 182.8067 L310.3501 182.0952 L311.5898 183.3346 L311.2441 185.1143 L310.7812 187.4413 L311.7123 188.9467 L311.9346 189.306 L312.2273 190.917 L312.0823 192.0235 L311.6832 192.7213 L310.2532 192.9168 L310.4951 193.4415 L308.6966 192.876 L307.5837 193.1354 L306.7881 192.855 L305.5334 191.6973 L303.3423 191.183 L302.9221 191.6639 L302.682 192.3931 L302.2461 192.5267 L301.6949 191.6284 L302.0961 190.2694 L303.1023 187.9676 L303.6512 186.2774 L303.4104 185.5309 L302.7821 184.8264 L297.4469 184.7666 L296.5095 184.6982 L295.2138 184.0197 L294.2152 183.8139 L293.4684 183.9054 L292.7977 184.2408 L291.769 184.3872 L291.3019 185.4991 L290.3283 187.8154 L289.6537 188.8263 L289.1905 189.5761 L288.509 189.6838 L288.071 189.3588 L287.935 189.1493 L288.1943 188.8445 L288.9219 188.1747 L289.9546 185.5622 L290.1988 185.0174 L290.8163 183.6407 L286.2124 182.0065 L286.7242 180.6462 L291.4856 182.1162 L291.633 181.809 L292.1083 181.6114 L292.0644 179.995 L291.9109 179.0513 L291.7021 178.6248 L281.1776 177.0723 L280.1055 176.6817 L274.9016 174.9984 L270.4578 173.5436 M272.4133 179.2344 L273.2456 177.142 L273.7667 177.0253 L273.8056 176.7918 L273.6267 176.3872 L273.8292 176.294 L274.6382 177.0096 L275.2062 176.9551 L275.4394 177.2509 L275.4862 177.9587 L276.0618 177.9199 L276.1552 179.1647 L276.5131 179.0554 L277.7268 178.7444 L278.5123 178.6355 L278.6745 178.9114 L276.801 180.5258 L276.972 180.7828 L276.1163 181.335 L275.929 181.5734 L275.8072 181.6959 L275.5746 181.9908 L275.3928 182.0742 L274.0391 181.0628 L273.7747 180.7671 L273.1213 179.8024 L272.95 179.8881 L272.4522 179.5689 L272.4133 179.2344 M273.3512 193.9273 L273.911 193.6819 L274.9767 193.3202 L275.1242 193.2431 L275.126 193.2328 L275.1411 193.2352 L275.2909 193.1635 L275.4219 192.9672 L275.5188 192.9148 L275.6725 192.7939 L275.9642 192.7193 L276.1976 192.7061 L276.3339 192.8389 L276.5088 193.2022 L276.7526 193.6015 L276.7946 193.8489 L276.9971 194.3306 L277.0027 194.3385 L277.1249 195.4714 L277.1456 195.6624 L275.352 195.0029 L274.896 194.8202 L274.1807 194.5505 L274.1179 194.527 L274.0962 194.503 L273.9631 194.3566 L273.7853 194.2341 L273.4153 194.1166 L273.3512 193.9273 M281.1715 177.8663 L281.2705 177.613 L281.9747 177.2282 L285.8995 177.9525 L285.465 178.9251 L284.7618 181.0038 L283.0137 181.4485 L282.0626 179.8354 L281.1715 177.8663 M287.3745 179.5574 L287.534 178.8896 L287.7606 178.8059 L289.3575 178.9325 L291.3374 179.0393 L291.6023 179.135 L291.6878 179.3404 L291.5901 180.2008 L291.3734 180.6871 L291.1431 180.7543 L288.7851 180.7494 L287.5719 180.6784 L287.4546 180.407 L287.3745 179.5574 M307.0449 267.405 L307.0496 266.9363 L307.2515 266.1925 L307.468 265.7951 L307.6583 265.5618 L307.8986 265.4608 L308.1956 265.4105 L308.5838 265.509 L308.7603 265.6694 L308.8654 265.8112 L308.9178 266.4143 L309.002 267.8111 L309.0184 268.2139 L308.989 268.4852 L308.8538 268.6312 L308.7744 268.6431 L307.0449 267.405 M329.8612 111.4273 L329.9419 111.0486 L330.1928 110.8819 L330.4627 110.8406 L330.661 110.7808 L330.8192 110.5881 L331.2212 110.5072 L331.5216 110.4713 L331.6865 110.258 L332.1107 110.1932 L332.3079 110.1928 L332.5559 110.4618 L332.6488 110.8138 L332.5117 111.3399 L332.4516 111.854 L332.3413 112.1675 L332.152 112.2855 L331.9393 112.2488 L331.5409 112.2897 L331.1032 112.2822 L330.7586 112.3994 L330.5773 112.635 L330.4061 112.6115 L330.2751 112.3346 L329.9464 111.9885 L329.8612 111.4273 M334.4262 323.8853 L334.4416 323.7406 L334.5413 323.3391 L334.5921 323.0581 L334.6125 322.7737 L334.6985 322.2321 L334.7189 321.8727 L334.7864 321.3076 L334.8571 321.0834 L334.9155 320.9507 L335.0264 320.8699 L335.1794 320.8431 L335.4083 320.8493 L335.6087 320.9123 L335.8268 321.0442 L336.0054 321.2116 L336.264 321.5846 L336.3224 321.7276 L336.4336 322.0384 L336.4982 322.3397 L336.6112 323.0123 L336.7062 323.4401 L336.7464 323.7303 L336.7483 323.9397 L336.7343 324.1181 L336.7057 324.25 L336.6189 324.3193 L336.5344 324.3378 L336.4452 324.3572 L336.1038 324.2257 L335.9064 324.1317 L335.4975 323.9994 L335.3276 323.9879 L335.0712 323.9969 L334.562 324.0411 L334.4445 324.0064 L334.4262 323.8853 M335.3533 336.0085 L335.5491 334.4156 L335.5526 333.8316 L335.7042 331.7421 L335.7421 330.1368 L335.8432 330.0226 L336.1435 329.8833 L336.4339 329.8503 L336.4595 329.8771 L336.5516 329.974 L336.5805 330.004 L336.572 330.3915 L336.5141 330.9264 L336.4775 331.4927 L336.0242 333.5072 L335.9517 333.7764 L335.7299 334.5978 L335.8 335.0593 L335.9498 335.2724 L335.7675 335.2831 L335.6351 335.4892 L335.6177 335.5902 L335.6288 335.7901 L335.6031 335.7831 L335.588 336.2018 L335.6849 336.3596 L335.9588 336.4519 L336.1332 336.5904 L336.0665 336.9642 L335.9083 337.0784 L335.5637 337.1719 L335.3581 336.9749 L335.4202 336.4074 L335.3533 336.0085 M338.2515 334.2895 L338.3005 333.6503 L338.464 333.0263 L338.702 332.4658 L338.9547 332.1752 L339.304 331.2961 L339.7259 330.356 L339.8614 330.1776 L340.0123 329.9204 L340.3587 329.5577 L340.631 329.413 L340.852 329.1826 L341.0611 328.9646 L341.3795 328.9069 L341.7344 328.7087 L341.8884 328.7688 L342.1742 329.0924 L342.2608 329.4341 L342.3873 329.9645 L342.3798 330.8555 L342.4791 331.4231 L342.491 332.113 L342.563 333.1104 L342.5111 333.7335 L342.3939 334.3307 L342.0853 335.1459 L341.7905 335.9932 L341.402 337.0318 L341.1656 336.996 L340.9565 336.7433 L340.7371 336.5208 L339.7764 336.1762 L338.8528 335.8 L338.4675 335.5209 L338.2647 335.1756 L338.2579 334.836 L338.2515 334.2895 M340.9526 306.9222 L341.5951 304.6976 L342.5593 302.9919 L343.1524 301.6819 L343.1029 300.792 L343.1029 300.1493 L343.5973 299.754 L347.4781 300.1741 L347.4286 301.4593 L347.3633 302.0863 L345.9209 304.9202 L345.5501 306.9717 L345.4019 307.5648 L345.0558 306.848 L344.8086 306.9222 L344.3637 307.8121 L344.0916 308.8999 L343.3008 309.8887 L342.3121 309.6661 L341.6274 309.0916 L341.249 308.3805 L340.9526 306.9222 M343.7174 39.3019 L343.8201 39.046 L344.03 38.8504 L344.188 38.8153 L344.3253 38.8599 L344.5032 39.0291 L344.7218 39.4654 L344.8589 39.6515 L344.9298 39.9029 L344.8951 40.1047 L344.8213 40.1922 L344.4833 40.1893 L344.0035 39.9677 L343.7878 39.6949 L343.7174 39.3019 M365.2809 88.6175 L365.3402 88.5659 L365.6871 88.3901 L366.2008 88.2386 L366.5568 88.1805 L366.6306 88.1916 L366.6335 88.2589 L366.5409 88.6468 L366.3535 89.1163 L366.1815 89.4172 L366.159 89.4374 L366.1257 89.439 L366.0942 89.4242 L365.8361 89.2439 L365.4518 88.8667 L365.2925 88.6781 L365.2809 88.6175 M377.2022 140.9364 L377.3856 139.6047 L377.4041 139.4706 L378.86 139.2487 L379.1638 139.3015 L379.239 139.3728 L379.3253 139.4549 L379.338 139.9739 L379.3425 140.155 L379.0116 141.0964 L378.8224 141.2144 L377.6069 141.0061 L377.2022 140.9364" stroke-dasharray="" fill="none" fill-opacity="1.0" stroke="#ff0000" stroke-opacity="1.0" stroke-width="1.0px" stroke-linecap="butt" stroke-linejoin="miter" stroke-dashoffset="0.0px"/>
</g>
</svg>