<?xml version="1.0" standalone="no"?>
<!DOCTYPE svg PUBLIC "-//W3C//DTD SVG 1.1//EN" "http://www.w3.org/Graphics/SVG/1.1/DTD/svg11.dtd">
<svg width="512px" height="512px" version="1.1" xmlns="http://www.w3.org/2000/svg" xmlns:inkscape="http://www.inkscape.org/namespaces/inkscape">
<g id="layer" inkscape:groupmode="layer" inkscape:label="layer">
<path d="M61.9658 463.5775 L62.1458 464.2197 L63.5284 466.5441 L66.1331 469.8954 L65.9973 470.1465 L66.4607 470.8279 L66.5293 470.6478 L67.6079 471.0748 L67.3863 471.9496 L67.5214 472.4895 L66.4871 473.8713 L66.0655 474.9834 L66.0057 476.4807 L67.2096 478.627 L67.7369 479.2067 L70.4649 480.9593 L72.7814 482.6441 L74.922 484.8725 L75.7347 486.1886 L76.1593 487.8368 L76.618 488.9372 L79.7652 491.912 L84.4527 495.3382 L85.9518 496.2484 L89.1202 498.8559 L91.2841 499.6464 L92.9163 499.9356 L92.3073 503.1773 L90.4568 508.2769 L92.5603 509.4376 L93.1321 510.0447 L92.6923 510.9834 L92.8173 512.0 L93.1176 511.6488 L99.8946 511.4522 L101.6745 510.8435 L102.725 510.7138 L104.6206 511.056 L106.2491 510.9649 L106.5643 509.071 L108.3714 506.8396 L109.351 505.3218 L110.8836 503.5593 L111.1214 502.913 L111.1133 502.6391 L111.3308 501.8476 L112.2638 501.9461 L112.8866 501.7178 L114.0726 501.952 L115.0775 500.0787 L115.1718 499.1383 L114.0338 498.7187 L113.7504 498.5487 L114.1814 497.6931 L115.8325 493.5369 L114.7293 493.0866 L116.0112 489.876 L121.0679 483.166 L122.7646 479.9903 L124.2613 477.579 L125.8398 476.0579 L129.6984 478.484 L130.5138 478.8305 L132.1281 475.8417 L133.4144 474.5691 L134.1528 474.7302 L134.98 475.4534 L136.2916 476.3848 L136.3508 476.5337 L137.8157 477.8238 L140.4532 478.6403 L141.0007 478.644 L142.8015 480.306 L143.627 482.3617 L143.9821 482.7702 L144.5539 484.4948 L145.7021 480.1466 L145.8348 479.9405 L145.9781 478.8188 L146.2317 477.7226 L147.7785 477.8614 L148.0443 477.7449 L149.3428 477.9308 L150.6551 478.0209 L151.9724 478.7425 L156.2259 480.5561 L158.361 482.1588 L159.0001 482.7321 L160.3641 482.4121 L159.8753 480.8793 L158.4982 477.4376 L157.1028 476.0579 L154.268 474.372 L156.1391 471.6338 L153.3067 470.0056 L152.9672 469.3799 L153.6725 467.3617 L154.9152 464.2626 L155.0527 463.6924 L153.5644 462.699 L153.808 461.4289 L154.238 460.2627 L153.3739 459.7217 L152.4129 458.7637 L151.5681 457.3728 L152.8987 452.7428 L153.9512 450.22 L157.4986 454.7377 L158.7552 450.7493 L160.2199 452.1631 L161.6639 453.3246 L165.1897 454.7134 L166.2065 455.1934 L167.7461 456.3682 L167.0999 458.68 L167.8995 459.0413 L167.3884 460.9123 L172.1972 466.5351 L172.8488 466.5944 L173.5554 467.0628 L174.1465 467.9636 L175.1707 468.6979 L175.5038 468.8813 L175.849 467.3691 L178.3037 467.9763 L179.4485 464.1513 L182.0281 464.8894 L180.7449 468.9284 L180.981 469.2861 L181.1854 469.9039 L186.2302 471.0324 L187.828 472.2399 L188.0695 471.5485 L188.2907 470.013 L189.0491 470.3669 L190.109 470.5725 L191.9057 471.4706 L192.9525 472.4709 L191.4409 478.2864 L195.4657 479.702 L196.1028 480.7442 L195.9893 481.0955 L194.9887 482.3204 L194.931 482.4894 L195.0924 483.583 L195.0543 484.6903 L195.5927 484.8052 L195.9663 483.8002 L196.3571 483.2232 L197.9407 483.2365 L200.4244 484.4577 L200.8794 484.9472 L200.976 485.3642 L200.6646 487.1867 L202.1603 485.5443 L203.1031 485.3271 L203.7878 485.8135 L204.0634 484.8757 L203.9198 484.2097 L203.5587 483.2243 L200.5534 480.3262 L200.1457 478.9969 L201.9654 479.3683 L205.4608 480.8745 L208.6266 482.4412 L209.3342 483.3128 L210.1064 483.2751 L211.0124 482.9371 L212.4058 483.2317 L215.3212 484.2738 L215.9708 483.5268 L215.7934 483.4033 L217.2746 481.9654 L217.5212 481.6094 L216.697 481.5601 L211.4333 480.2997 L211.4599 480.0003 L210.73 479.3603 L209.0522 478.4114 L208.3101 477.6792 L207.0826 476.7303 L205.7365 476.0934 L205.6473 476.2264 L204.56 476.2126 L203.6854 476.0897 L200.7977 475.3532 L199.936 475.0263 L199.103 474.1182 L199.4962 473.235 L200.3238 473.6297 L201.431 474.2856 L202.7622 474.7715 L204.5596 475.2181 L204.5231 474.5511 L203.2787 474.3709 L202.1816 473.8882 L200.9868 473.0829 L199.1432 470.607 L197.5704 468.3339 L195.3245 466.5457 L194.1078 465.371 L193.4396 463.5987 L192.8303 461.4829 L193.6572 460.1837 L194.8165 460.1101 L196.3699 460.5827 L196.8476 459.7922 L198.039 459.337 L200.0971 458.876 L200.6622 459.2459 L200.9946 459.1309 L203.1743 459.6025 L203.7651 458.8241 L205.0606 458.5226 L207.6781 458.3207 L209.0188 458.557 L209.4309 456.8678 L209.6805 456.862 L213.1222 454.929 L212.807 453.7294 L211.164 454.0362 L211.0029 454.184 L208.8512 454.7414 L208.579 454.8898 L207.7507 454.7372 L207.3899 455.4287 L205.2406 455.3858 L204.8562 455.1171 L204.844 454.9232 L204.1397 454.6561 L202.5346 454.316 L201.6269 454.3976 L197.891 455.1839 L196.984 455.168 L196.2649 454.7907 L195.0272 454.387 L194.1152 455.0551 L193.0502 455.3116 L192.4857 454.8437 L191.8159 454.9349 L188.9494 453.944 L187.7236 453.217 L186.947 453.2387 L186.4093 453.3818 L183.8853 452.2171 L182.2339 451.018 L184.2234 448.0517 L178.5847 442.8995 L176.7668 440.3693 L176.2911 439.5262 L176.1871 439.0657 L176.6019 438.4234 L176.7063 437.9635 L175.8551 437.1162 L176.0567 435.2901 L175.0846 434.3993 L176.3128 432.3925 L175.1211 431.8684 L174.8218 430.6247 L176.0635 429.5796 L176.6789 430.2553 L177.2001 430.9871 L178.1493 431.2229 L178.8681 431.1546 L181.0955 430.3994 L181.642 430.4561 L181.1874 430.1096 L178.9631 429.2728 L178.2949 428.8245 L178.1287 427.4891 L178.5114 426.7657 L179.2036 425.8537 L179.8339 425.885 L180.2858 425.4584 L179.4366 424.3476 L178.5523 424.1611 L177.9889 424.1939 L177.4579 423.7112 L177.4116 423.0461 L180.3169 421.0593 L186.1272 417.5103 L187.4811 418.8007 L188.2499 419.7477 L187.479 420.3879 L187.0149 421.0498 L187.3125 422.2793 L188.1296 423.2634 L189.2825 425.0047 L190.6032 426.1017 L191.2693 427.0996 L191.8017 428.2389 L193.5302 428.5299 L194.8985 429.1758 L197.6698 431.1498 L199.435 432.6612 L199.7694 433.5212 L199.6262 434.7231 L199.8036 435.6043 L200.3748 436.1687 L202.2559 437.052 L204.662 438.6958 L206.9238 438.8415 L208.9816 439.5251 L209.9713 439.5225 L213.3657 440.1854 L214.6912 440.2972 L217.4658 441.2198 L218.3539 440.5743 L219.1767 440.1997 L218.869 438.7817 L222.2492 439.1256 L222.4063 439.4255 L222.7286 439.4398 L222.7968 440.1605 L223.5876 440.3014 L225.8788 441.4211 L227.1266 441.8212 L227.1043 441.5467 L227.6153 440.5865 L228.4791 441.0534 L229.6269 442.0072 L229.7393 442.4322 L229.9326 442.2451 L232.3197 443.1036 L232.467 443.3319 L232.9149 443.1979 L234.7984 447.3363 L234.8187 447.9176 L235.1267 447.9219 L235.4247 448.4534 L235.8452 448.4062 L235.9793 449.0738 L236.9035 450.2041 L237.8571 449.8263 L239.0468 449.7966 L242.754 451.0291 L246.673 452.5271 L245.8647 454.52 L248.8146 456.2071 L248.4045 457.5911 L249.7526 458.1962 L253.2811 459.3439 L255.2339 459.5754 L257.7862 460.1488 L260.0585 461.023 L260.2298 461.3208 L263.5198 463.1186 L263.6357 462.9416 L264.7224 463.3348 L267.068 463.9945 L267.173 463.5859 L267.3433 463.4461 L268.2428 463.7476 L268.7687 461.6032 L269.1504 461.3033 L269.3913 459.9569 L271.6345 461.1565 L272.9566 461.999 L274.0382 463.3268 L274.3301 463.5499 L274.8665 462.2364 L275.7113 461.3775 L277.2499 461.884 L280.8875 463.2739 L282.056 463.5128 L283.2521 463.9637 L284.3867 464.4957 L285.2832 464.6663 L287.1457 465.202 L292.8912 467.3283 L293.5894 466.4599 L293.5769 465.9364 L293.7522 465.1829 L293.5117 465.1278 L293.3469 464.5513 L292.2109 462.6036 L291.7062 461.8835 L290.3291 460.5228 L289.2532 459.2384 L288.7712 458.2524 L288.1986 457.8921 L287.4964 456.5716 L286.9802 456.3056 L286.634 455.6809 L284.8332 454.5655 L283.8381 454.2036 L280.8521 453.5429 L280.3498 453.0564 L280.2761 451.9712 L280.1302 451.86 L279.7286 451.7974 L279.3327 452.0995 L277.5212 451.5129 L276.5223 451.6629 L275.5711 451.1934 L273.9332 449.7367 L277.0999 447.5266 L279.5249 447.1541 L280.8818 446.3131 L282.5954 444.9857 L283.4338 444.1861 L283.4939 443.9652 L279.3756 440.8658 L276.497 438.2857 L276.2521 438.3047 L275.7582 437.7727 L275.7187 437.5883 L275.6187 437.6021 L275.2978 439.0032 L274.6901 439.7864 L273.9352 440.3412 L272.3469 440.4397 L269.0504 438.9889 L266.5988 436.139 L264.7315 435.5556 L262.6061 435.4496 L261.6948 437.0038 L261.2658 437.0621 L260.5868 437.5337 L259.2313 437.6302 L258.5267 437.4776 L256.7262 437.2984 L256.1638 437.9879 L255.1052 438.7737 L253.6669 438.4722 L252.7194 438.0318 L251.3612 437.1358 L251.4128 436.7638 L251.1855 436.59 L251.3284 436.0304 L249.7185 435.2122 L249.7773 435.0002 L249.2132 434.2737 L246.2021 432.7841 L245.1266 432.4179 L244.4595 432.4354 L243.5816 432.1895 L243.5184 431.9352 L243.1921 431.8917 L242.5804 432.1063 L241.6754 431.9807 L237.9675 430.0751 L237.9263 429.0153 L237.7551 428.7175 L238.6407 427.6189 L239.4676 427.2729 L239.9584 427.6735 L240.4408 427.2575 L240.2442 427.0948 L240.8999 426.4509 L241.0894 425.9141 L241.8426 425.885 L242.3648 426.1934 L243.5197 425.3651 L243.7505 425.3487 L243.9477 424.8691 L243.8254 424.2872 L244.0231 422.9465 L244.7324 419.6677 L245.1678 418.5723 L246.2815 417.559 L246.8193 417.682 L246.4744 416.1875 L246.7581 415.5871 L244.5135 415.9443 L243.2843 416.4896 L242.5513 416.3672 L242.0443 416.7625 L241.5059 417.5018 L241.1981 418.1187 L240.1628 420.8717 L239.7098 420.894 L237.247 420.4054 L236.0283 420.2999 L234.8369 419.2819 L233.8539 417.8145 L232.5741 419.8171 L231.6725 419.5082 L228.6125 419.0355 L228.6557 419.1955 L228.8172 419.4907 L228.7753 420.4907 L228.9405 421.8516 L228.4007 423.5448 L223.595 421.9719 L217.8489 419.9623 L210.9796 417.0413 L213.1357 411.9801 L215.9069 412.3946 L219.1554 413.1031 L221.1055 413.0735 L221.6145 412.4036 L221.1406 408.5094 L221.3017 407.6773 L222.5772 406.7992 L223.2643 406.4833 L225.365 405.8325 L227.8305 404.5049 L229.2634 403.827 L230.6605 403.4137 L232.0464 402.677 L234.1654 401.7749 L235.0072 401.5433 L236.6728 401.2386 L238.0915 401.2291 L240.1121 401.334 L240.2267 401.122 L241.6484 401.7129 L241.5768 401.2789 L241.6562 400.9021 L242.1203 400.3816 L241.1262 398.2304 L240.8816 397.9633 L240.6671 397.8223 L240.1763 397.2753 L237.8915 396.2678 L237.6726 395.5857 L235.1308 394.7865 L232.2701 394.187 L231.8475 393.5648 L228.903 393.807 L227.7586 393.6862 L227.1539 393.9014 L220.5353 394.6264 L218.9139 394.8887 L218.4745 395.4511 L216.8912 395.5825 L215.7965 395.8374 L215.1128 393.241 L214.6713 390.8994 L215.9944 390.901 L216.7497 391.1337 L217.6462 391.2773 L217.6928 389.1488 L217.6205 388.0972 L218.7629 387.9981 L219.9732 387.6801 L220.6789 386.9715 L214.7068 382.2394 L213.1053 381.3119 L215.4806 378.1354 L217.7739 375.4333 L219.9945 371.6042 L220.2502 371.397 L222.8934 372.0988 L223.6524 371.8422 L225.2224 373.0534 L226.5574 373.5564 L229.0827 374.1071 L229.5951 373.6746 L230.7767 371.3917 L231.9877 369.9425 L233.4057 368.6889 L234.1083 368.426 L234.4137 368.0078 L234.4761 366.407 L234.7207 365.0199 L233.6324 364.6674 L233.9867 363.9475 L235.5429 363.824 L237.6382 363.9189 L237.343 363.5648 L238.1438 362.5948 L238.7461 362.3086 L238.3381 361.9842 L238.1611 361.6428 L238.6806 361.4997 L238.4195 361.1843 L237.8665 361.1864 L237.2727 360.3473 L237.497 360.0685 L237.0332 359.8687 L235.0764 358.104 L233.1257 355.5215 L232.2951 353.575 L231.7607 351.0178 L231.2722 349.5792 L231.0844 348.3011 L231.23 347.6607 L232.6291 347.0209 L232.9325 348.2364 L234.1546 347.7758 L236.5059 347.084 L237.5851 348.0859 L239.744 350.5545 L240.1243 350.7358 L240.7962 350.7841 L242.1527 350.6314 L244.1355 349.9587 L244.9243 349.3253 L246.2288 349.1328 L251.0592 350.184 L251.1237 349.9736 L252.7451 350.0637 L252.5525 348.5227 L252.2462 347.7419 L253.828 347.8845 L255.4403 348.1537 L256.5719 348.3812 L258.6513 348.9987 L260.373 349.0289 L261.7201 349.2654 L262.7514 349.6841 L263.5296 349.7181 L264.136 350.0854 L265.3243 349.8315 L263.9005 348.2248 L262.7264 347.2049 L260.8797 344.5432 L260.121 343.0478 L257.3349 340.0585 L255.7085 338.5572 L255.6686 337.8023 L255.9183 336.3254 L255.8406 335.0637 L256.18 333.4505 L257.19 332.0297 L258.6651 330.548 L257.9906 329.0 L256.8593 328.2154 L255.0664 327.1981 L254.0996 327.1912 L254.0837 325.825 L254.9839 324.9953 L255.421 324.2595 L255.3893 323.9106 L255.0968 323.6731 L254.4762 323.619 L254.1324 323.9117 L253.772 324.4222 L251.8695 324.5261 L251.3835 323.9928 L250.4302 325.3367 L249.7276 326.4924 L249.3419 326.3604 L248.7892 327.2659 L248.5943 327.1843 L247.6418 329.8965 L247.6053 330.1939 L248.1606 330.3333 L247.3543 331.2886 L246.6872 333.5008 L245.9241 333.5274 L245.2989 333.2125 L243.3779 331.4747 L242.4236 331.2197 L241.187 331.3724 L240.5398 329.9839 L239.5298 328.5966 L238.7725 327.8692 L237.8844 327.6519 L236.4134 328.1125 L235.4878 327.7308 L235.1277 327.3343 L234.9372 326.6446 L234.7525 326.3705 L234.569 325.5806 L234.0073 324.8267 L232.5572 324.1932 L229.9258 324.3506 L227.3606 324.8834 L226.7246 325.1692 L226.5881 324.7265 L226.8611 324.1365 L224.5475 324.3734 L222.8765 324.2621 L223.2281 321.4162 L223.317 320.0145 L226.6141 319.9048 L228.447 318.7183 L229.3732 317.8546 L226.6726 317.4984 L226.3888 317.2142 L225.9359 317.1527 L225.1684 316.5801 L224.429 315.7584 L223.0998 315.339 L223.3616 314.7807 L222.5185 313.9881 L223.6429 313.0052 L223.321 312.6648 L219.7689 309.7494 L218.5971 308.9297 L220.743 307.5618 L219.934 306.7952 L219.3929 305.8541 L219.3824 305.2099 L219.8611 303.5303 L219.4915 302.612 L218.8143 301.7965 L218.74 301.3607 L217.9965 299.6015 L217.2942 298.6047 L217.1 297.8471 L217.276 296.9929 L217.7762 296.1563 L218.717 295.6287 L219.6104 295.4304 L220.8265 295.4654 L220.8684 296.2284 L221.8655 296.2315 L222.9089 296.3508 L223.6629 297.2787 L225.5038 297.398 L227.3894 297.8492 L230.5318 299.1291 L232.5585 300.2102 L233.7529 300.0755 L234.9261 299.4467 L236.4346 298.9197 L236.3634 301.3544 L240.4138 302.5452 L242.2922 302.4598 L244.0207 302.1338 L246.4372 301.401 L248.977 299.5533 L250.7846 298.4584 L252.5951 297.6769 L254.7444 297.477 L256.7229 296.9733 L257.2262 296.6478 L257.9987 296.6048 L257.9399 296.1684 L268.0448 295.1674 L268.4526 294.7082 L268.5782 294.7454 L268.6346 293.9707 L268.8751 293.1266 L269.4156 292.1033 L271.874 290.9851 L271.8716 289.7258 L271.2184 288.5635 L271.2609 287.6834 L271.517 286.5996 L272.406 285.6319 L273.6528 285.826 L274.0051 285.9527 L275.2026 285.9787 L275.4731 286.9914 L276.7854 286.4771 L278.0346 286.6855 L278.1927 287.1616 L278.4379 287.2899 L279.4391 287.1542 L280.1049 287.6155 L280.619 287.7475 L281.5689 287.4305 L282.7508 287.2433 L283.298 287.7205 L282.0664 290.2274 L283.3808 291.6521 L283.6615 292.4941 L283.7337 293.2385 L283.3247 294.4389 L283.2538 295.0492 L286.2509 296.5147 L286.7583 295.2167 L287.5839 293.6939 L287.9274 291.9018 L288.5043 291.7396 L289.1823 291.913 L289.64 292.3122 L289.9578 292.3949 L290.1801 291.8758 L292.0545 292.8647 L292.6669 293.4803 L292.4936 294.4675 L292.5571 294.836 L292.4821 296.2427 L295.0703 298.1965 L297.5956 299.9769 L298.4552 300.154 L299.8179 300.8963 L303.9156 302.6735 L305.7818 304.9485 L304.5543 305.9442 L305.1701 306.6096 L304.7702 308.6052 L304.6486 309.9763 L304.502 310.5409 L305.3819 311.1098 L305.2383 311.9878 L306.0842 311.9475 L306.3841 311.4868 L307.6238 311.0663 L310.292 310.8166 L311.5161 309.7711 L312.3937 308.1159 L313.5395 308.3518 L317.1673 309.7462 L319.4393 309.7594 L319.7903 310.0892 L321.338 310.103 L325.1972 310.9354 L327.9583 310.5473 L328.9149 310.516 L330.1478 310.8797 L330.4961 310.7769 L331.1119 310.3861 L331.1399 309.5585 L332.7323 308.3513 L334.7201 307.4956 L336.1932 307.0587 L336.8185 307.2533 L338.3909 306.1049 L339.8542 304.6638 L340.7676 302.8034 L341.2101 302.1571 L342.137 301.1799 L343.1145 300.4748 L348.6042 297.3858 L349.519 296.7315 L350.7796 295.5412 L351.7376 295.1043 L353.0158 295.1828 L353.6457 293.9665 L353.1488 294.1033 L350.4185 291.3811 L349.773 290.309 L349.0538 289.6245 L349.066 289.0922 L347.6828 285.9548 L347.8996 285.1855 L347.2933 285.3371 L346.8829 283.1165 L347.4868 281.4982 L347.9476 278.7303 L347.9972 274.097 L348.6941 273.6166 L348.2246 272.3153 L348.2888 271.3863 L348.5999 269.4742 L348.8042 268.9354 L348.638 267.7015 L347.6463 267.9089 L347.5939 268.6024 L345.5598 271.5656 L344.0107 274.1272 L343.6205 273.0694 L341.9731 270.137 L340.1244 270.7967 L341.0354 273.9814 L341.4519 276.8612 L340.9398 282.3646 L340.8469 282.7565 L340.4761 282.9235 L340.5514 285.3239 L340.1595 288.8149 L341.1374 291.4283 L340.147 291.7523 L338.1088 292.0863 L337.8768 293.0672 L336.5263 293.2062 L335.1643 293.4782 L333.6696 293.52 L332.94 293.6187 L333.8071 294.7576 L333.7666 295.7559 L331.548 297.5608 L328.2748 298.6758 L326.8622 299.9769 L325.2894 300.0877 L325.0983 299.7484 L322.2419 299.5071 L322.1602 300.0877 L320.3179 299.9281 L318.0807 299.3258 L317.5605 299.5713 L316.3897 299.4234 L314.7903 298.4711 L312.2451 296.2305 L312.4285 295.7528 L311.2668 294.6982 L307.8842 292.5121 L307.4833 292.888 L305.7656 291.6309 L305.8822 290.8324 L307.1593 290.6887 L307.2823 290.0874 L307.3749 287.8546 L306.6263 286.4076 L304.5493 284.6149 L304.6682 283.766 L302.9046 283.4357 L302.1043 283.432 L301.8956 284.2003 L300.335 284.2523 L298.6018 283.5301 L296.818 281.9266 L296.9234 281.3195 L295.1625 280.4674 L295.6205 278.5532 L296.9193 277.7054 L296.2768 275.7472 L295.7279 274.9157 L295.8185 273.7497 L296.9642 272.309 L297.1578 271.5815 L297.4935 271.4775 L297.2054 266.6373 L297.0024 265.6716 L297.1818 264.4531 L297.6499 262.5276 L298.6045 260.1939 L298.6643 258.3389 L299.4331 255.084 L300.4634 255.3794 L302.2526 256.5958 L302.1851 257.474 L302.8005 258.1358 L307.0756 261.3748 L307.6434 261.4527 L308.5328 261.1616 L309.2594 261.1563 L310.3646 261.317 L310.9997 261.0916 L312.2809 260.949 L313.4307 261.2125 L314.5501 262.0541 L315.1041 261.9167 L314.6076 261.3324 L313.9644 260.3487 L313.9421 259.8396 L311.0456 256.17 L310.3484 254.3241 L309.7032 253.5578 L310.0289 252.9861 L310.4994 252.6897 L311.9904 252.6117 L312.3505 251.4923 L311.8752 250.377 L310.9797 248.8996 L308.8358 248.3825 L305.9156 247.8469 L304.7516 247.1353 L302.4942 245.2855 L303.2234 243.8659 L301.1477 241.725 L301.4024 240.8669 L302.3651 240.72 L302.583 241.1427 L303.2136 240.4437 L304.7702 236.9387 L304.3631 236.7839 L304.1929 235.9995 L303.6484 235.7826 L303.4815 233.1086 L304.3571 233.3934 L305.7035 232.6297 L305.92 232.084 L306.2774 232.0501 L307.7326 230.7507 L307.6417 230.581 L307.918 229.427 L308.2882 229.3082 L308.5493 229.7287 L311.1128 228.0804 L311.8779 225.7479 L312.1566 225.3067 L310.9696 224.9529 L309.4806 226.3849 L307.6775 224.8877 L307.486 224.2274 L311.8671 221.8418 L311.3878 221.0346 L307.2715 221.2992 L306.3027 222.2375 L305.8899 222.5196 L302.964 221.7209 L301.0437 221.3353 L300.309 220.902 L299.6054 218.4294 L300.3428 215.5357 L299.5885 214.1201 L299.6395 213.6608 L300.4543 211.5801 L300.385 211.186 L300.0084 210.5426 L299.7513 210.7871 L300.0759 211.1632 L299.8638 212.3385 L299.1153 214.7019 L298.5893 215.1909 L297.529 215.4848 L296.6626 215.1135 L296.7001 214.9151 L295.6229 213.4942 L295.2787 211.5387 L294.82 210.9638 L294.9926 210.2743 L294.8737 209.607 L293.5975 209.1016 L293.4212 209.1095 L293.2435 209.3434 L294.29 209.4601 L294.5399 210.1204 L293.8326 212.6387 L293.1435 213.6205 L292.7875 215.6391 L293.8397 215.7547 L294.9885 216.9343 L294.8017 217.4387 L294.9578 217.4636 L295.1746 217.698 L295.3091 218.0051 L295.5013 219.2037 L295.1354 219.4705 L295.1307 219.7813 L295.7104 222.9969 L294.3883 222.3287 L294.0109 222.6623 L294.4426 224.2984 L298.9126 225.5989 L298.7386 226.3987 L299.9591 226.8336 L299.9084 228.2878 L297.6033 228.4236 L295.759 227.0144 L295.7215 226.737 L294.1089 226.0025 L292.5878 226.2088 L292.5747 226.6341 L292.2605 227.0043 L292.3842 227.0483 L293.1354 226.876 L293.892 227.2674 L293.8745 227.6583 L294.9486 228.4564 L295.1672 228.8149 L295.4563 229.0085 L295.0344 230.537 L294.6747 232.258 L294.6615 232.8498 L294.8747 233.054 L294.7548 233.4268 L294.7301 234.3926 L294.4784 234.9388 L294.6781 235.5021 L294.9172 235.4384 L294.8598 236.1602 L294.4703 236.6009 L294.7811 236.8385 L294.7284 237.4818 L294.2781 237.931 L294.1609 238.7848 L294.1626 239.1417 L294.3646 239.9526 L294.1538 242.294 L293.6576 242.5162 L293.2094 242.9808 L290.8922 240.1435 L290.0568 238.8856 L288.0784 234.6578 L287.8561 234.5018 L287.6163 235.248 L286.985 236.0785 L286.6235 237.416 L286.4181 238.7631 L286.511 240.8308 L286.8894 243.4718 L286.6215 245.6191 L287.0562 246.0879 L287.1765 247.096 L286.5627 248.5141 L287.0393 248.6047 L287.5274 249.4697 L287.5788 249.851 L287.4018 250.0302 L287.5217 250.2312 L288.1257 250.1182 L288.4553 251.8741 L288.1953 252.1265 L288.3746 252.7698 L288.7722 253.3054 L288.4462 254.7934 L289.2573 256.1684 L287.5852 260.3434 L286.7195 260.8604 L285.3997 260.8546 L284.028 262.0557 L283.9084 262.5329 L283.9216 263.085 L284.2884 263.7579 L284.5286 265.5396 L284.8528 265.5571 L285.4872 267.5318 L284.9369 268.1141 L284.8059 267.824 L284.1496 269.5527 L283.4905 270.4356 L283.3602 270.7627 L283.1129 270.917 L282.6288 271.0098 L282.2546 271.8137 L281.9235 271.0512 L281.0716 269.6068 L280.3174 269.3862 L279.6908 269.7128 L279.7492 269.9472 L278.9692 270.9886 L278.0815 271.3577 L278.5565 271.8439 L278.3707 272.5555 L278.1167 272.563 L277.8383 272.8886 L277.0797 272.5847 L276.3899 272.6892 L275.6306 271.9314 L275.6174 271.1398 L274.9982 271.2034 L274.3672 269.2812 L274.3845 268.2164 L273.64 266.4745 L273.7676 265.7305 L274.4942 265.8472 L275.1688 262.3929 L274.0004 260.9914 L271.7713 261.1722 L269.9662 262.2111 L269.722 262.1904 L269.7041 263.0531 L268.8515 263.6937 L268.2016 263.3512 L267.8513 263.9371 L267.3321 263.9668 L266.7606 264.5019 L265.5594 265.2336 L265.0189 265.9776 L264.062 267.8675 L263.2307 268.6226 L263.6364 268.945 L263.5688 269.8899 L263.3006 270.4849 L262.8003 270.8041 L262.8203 271.0528 L263.6185 271.0841 L263.6425 272.8133 L263.5023 273.3212 L263.6225 273.6177 L263.632 273.974 L263.459 274.6538 L262.953 274.7227 L261.7593 274.5493 L261.3935 274.4173 L260.8814 273.7184 L260.422 273.5153 L260.1784 272.9479 L260.3081 272.5672 L260.7625 272.6308 L260.7047 271.9961 L260.0227 271.7957 L259.6133 270.4122 L259.4961 269.646 L259.5958 268.8363 L260.3855 268.7011 L260.0001 267.4963 L259.8336 267.2953 L259.2877 266.9644 L259.0458 266.9273 L258.5462 267.149 L257.5214 269.2573 L257.2657 270.5634 L254.2759 273.2873 L253.348 270.7452 L252.5789 269.383 L251.9786 268.752 L251.6854 268.2334 L250.8883 265.9389 L249.7016 264.0601 L249.2138 263.0086 L248.9338 263.1709 L249.0993 263.5352 L249.0784 263.9992 L248.2302 264.6307 L248.3761 264.9881 L247.6989 266.2677 L247.3449 266.3297 L246.3805 267.648 L246.3031 268.105 L245.0219 269.7595 L244.5304 271.521 L244.0453 271.3964 L243.8231 272.1754 L243.9562 273.001 L244.3406 273.4745 L245.4647 274.14 L245.5698 274.272 L245.5867 274.5032 L245.2651 274.6877 L244.5149 274.7657 L243.3907 274.6405 L242.506 274.4539 L242.4044 275.2127 L241.3856 276.3002 L241.4349 275.1543 L241.3309 275.139 L240.9039 276.8331 L240.5844 276.7308 L240.1787 277.1799 L238.6117 277.8745 L238.0081 278.9064 L236.2492 279.0426 L230.828 277.4121 L230.6254 276.6656 L231.2567 276.0536 L230.9844 275.0096 L231.1456 274.4767 L231.7847 274.4629 L231.9238 273.4761 L232.0897 273.0148 L232.367 272.7332 L233.432 272.7215 L233.5357 271.6557 L232.9473 271.7209 L233.0345 270.9642 L232.7423 270.4191 L233.3013 269.9196 L233.9499 269.7584 L233.2854 269.0452 L233.1696 268.4036 L232.9004 267.8123 L232.2657 266.6712 L231.8076 266.1929 L231.3668 265.3031 L231.934 264.5395 L231.3871 263.9419 L232.1528 262.2747 L232.8727 261.563 L233.1719 261.9464 L233.6155 260.9755 L233.404 260.8424 L233.5357 260.1451 L234.337 259.3894 L234.7427 258.3315 L235.349 258.2816 L235.4088 258.7266 L235.956 258.717 L236.1033 258.3734 L237.0883 258.5807 L237.2673 259.2574 L237.6274 259.1211 L237.9199 258.8034 L238.1141 258.7334 L238.459 258.8034 L238.7725 259.1847 L239.8855 259.4424 L240.2638 259.654 L240.3857 260.0173 L240.2861 260.791 L240.6769 261.2051 L240.9309 261.6818 L240.9792 262.0408 L240.7556 262.7578 L241.9723 263.8926 L241.8386 264.846 L242.48 265.3869 L243.1553 265.748 L243.7146 264.6058 L244.1936 264.4822 L244.4213 264.3348 L244.8 263.9032 L244.8064 263.3034 L245.0712 262.5663 L245.6012 262.7138 L245.4039 263.4127 L245.4147 263.6009 L245.8978 263.725 L246.2504 262.9906 L246.0711 262.7657 L246.1488 262.6687 L246.0842 262.5165 L246.4808 262.2142 L246.8818 261.2995 L247.5786 260.9569 L246.9328 260.4892 L246.9182 259.9505 L247.5796 259.671 L248.1008 259.3226 L247.9394 257.7397 L248.7835 257.3017 L250.1417 257.0848 L250.3853 258.0048 L251.0072 257.6946 L251.1176 257.1468 L251.9242 256.9077 L251.6324 256.6563 L252.0347 256.0518 L252.4566 256.511 L252.9754 255.9293 L253.37 255.8354 L253.4136 254.9641 L253.6281 254.3946 L253.8773 254.0833 L253.723 253.1542 L253.8368 252.9198 L253.3159 251.8656 L253.6487 250.7684 L255.4379 248.8863 L256.0304 247.6205 L256.6999 245.2638 L256.7235 243.7752 L256.8634 243.0359 L256.3087 242.5862 L255.7625 242.4202 L252.9376 242.4435 L246.8905 242.8736 L247.0486 241.052 L247.8228 238.1405 L248.0893 238.1198 L248.823 233.7997 L249.4945 233.8564 L252.3722 231.3946 L254.1513 230.6351 L254.7492 228.5408 L255.7737 227.6296 L256.8124 226.44 L257.7926 225.8609 L258.9077 225.9404 L259.1968 226.9937 L261.1401 224.0688 L261.7174 224.483 L264.2079 220.9932 L265.7043 219.3586 L266.5032 218.343 L267.1835 216.4511 L268.0475 213.6518 L268.1992 211.3976 L267.9307 211.282 L268.1844 209.869 L268.3938 207.8663 L267.1609 203.7562 L269.8966 206.2586 L269.7885 205.0074 L269.8473 204.4075 L269.98 203.9588 L270.2128 203.6045 L273.6623 204.6595 L274.2534 204.6637 L271.5389 202.4291 L277.3789 191.1583 L277.51 190.1133 L277.9677 190.5196 L278.8169 190.6093 L279.3705 190.5164 L279.909 190.2109 L280.5987 190.4979 L280.7987 190.3032 L282.0411 189.9096 L283.5777 189.5537 L283.977 188.9564 L283.5138 186.7832 L283.5223 185.9282 L282.7035 183.4155 L283.1321 183.2643 L281.4942 181.2199 L281.3017 179.6779 L281.7948 178.7416 L281.6979 178.3666 L282.5555 178.2966 L283.4912 178.8064 L283.6179 178.1374 L284.7103 178.3152 L286.2324 179.0403 L286.255 180.3569 L288.7043 183.5958 L289.1532 184.5129 L290.98 186.0045 L291.9629 186.2905 L293.8275 185.8587 L294.2737 185.1702 L294.4622 184.0419 L294.2501 183.3879 L294.2021 181.997 L294.8358 180.2656 L294.7581 179.3442 L295.0307 178.4679 L296.9183 179.3766 L297.4091 179.3416 L298.2549 178.8387 L300.6917 178.5395 L302.8015 179.0297 L302.6627 179.6079 L307.1266 181.0215 L308.4095 181.8103 L309.304 183.7385 L311.1331 186.0523 L313.3483 187.7163 L313.9036 190.0009 L313.1916 190.3456 L313.3919 192.5231 L313.5405 192.3629 L314.4775 192.9967 L315.4355 194.823 L316.5485 196.5352 L316.6836 196.5018 L316.9295 196.9494 L317.3021 197.8771 L317.5392 198.947 L318.6137 201.1853 L318.839 202.6296 L319.6984 202.9166 L320.0902 203.8729 L320.6597 204.3078 L323.3455 204.7003 L323.916 205.4439 L324.4625 207.2547 L325.002 207.6096 L325.1303 207.2972 L326.1714 207.3274 L329.1497 209.4389 L329.3176 209.8818 L327.9711 210.5766 L326.8244 214.1312 L327.5847 215.41 L328.0208 216.0029 L328.6555 216.693 L329.2389 217.0022 L329.8682 217.5378 L333.3926 218.7179 L333.8875 218.7132 L336.9735 219.4445 L338.423 219.9776 L338.803 221.0749 L343.9218 223.2229 L344.8592 221.7919 L345.4493 220.4241 L344.667 217.4875 L343.4368 213.866 L343.201 213.4948 L342.8835 212.1715 L343.3196 211.2788 L343.2675 210.3506 L343.0453 210.3225 L342.7325 209.8388 L342.5261 208.5224 L342.2731 208.4837 L342.0566 207.7384 L340.5031 206.5901 L338.7618 204.9114 L338.3608 203.1245 L339.6238 203.3043 L339.0857 202.8805 L339.3431 202.6264 L339.5282 202.7039 L339.7295 202.5739 L340.1457 202.6349 L339.9322 201.1588 L340.5477 201.0755 L340.7054 202.2111 L341.0824 201.9088 L341.5168 202.1051 L343.7989 201.6287 L341.8164 200.7573 L341.1986 199.8476 L339.3901 198.0702 L338.8939 198.0612 L338.2034 198.1774 L337.5539 198.6208 L336.7577 198.8584 L334.9887 197.848 L333.2406 196.9887 L332.7106 196.6216 L331.5828 195.6054 L331.2713 194.6978 L330.3363 193.0561 L330.2448 192.4843 L330.4856 192.2181 L331.2088 192.1783 L333.2592 193.4587 L333.5507 193.8024 L333.9882 193.6067 L334.5442 193.7123 L334.884 193.3908 L335.4515 193.7086 L335.7886 194.4809 L336.1017 194.4241 L336.782 193.8497 L337.1363 192.9103 L337.7336 192.8005 L338.2578 191.8234 L338.1034 191.5036 L337.5505 190.3557 L337.1394 189.9001 L336.6209 189.079 L337.8498 188.357 L338.3699 187.8924 L338.8864 187.807 L339.3255 186.7392 L339.9582 186.7854 L340.6402 186.5467 L341.7931 186.4491 L342.3187 186.8893 L342.6295 187.3588 L343.3385 187.3216 L343.9401 186.9185 L345.8401 187.0325 L346.2904 187.2787 L346.8231 186.4814 L347.2088 186.5201 L347.1761 186.2761 L347.981 185.9902 L348.2739 186.0793 L348.4178 186.2984 L348.6272 186.1865 L349.315 186.3955 L349.7764 186.7233 L350.2307 185.9648 L350.5793 186.2804 L351.0134 185.5797 L351.4434 185.6184 L352.1588 185.0763 L352.6094 183.8753 L352.6347 183.521 L353.492 182.5285 L353.9538 182.4951 L354.1609 181.8681 L354.4635 181.8416 L354.6598 181.0263 L355.786 180.4062 L355.3522 180.2163 L354.5081 180.55 L354.3227 180.2534 L354.7533 179.7713 L354.4091 179.6721 L354.0497 179.7888 L353.9041 179.4668 L353.5089 179.3151 L352.0318 179.9935 L350.5722 180.2932 L350.0267 181.1839 L349.493 181.0077 L349.9912 179.7272 L350.6134 178.5035 L350.8968 177.2521 L348.8079 176.6723 L347.7942 176.7222 L347.5919 177.2755 L345.5216 176.4013 L345.4628 176.0729 L344.6281 175.718 L343.957 175.064 L344.7731 174.4125 L346.2215 173.6455 L348.6931 173.6031 L350.0784 173.2842 L350.8164 173.4619 L352.4638 173.5755 L352.908 172.4339 L352.857 171.6223 L352.3608 171.6164 L351.8328 170.1826 L351.3559 169.2389 L351.1096 168.0591 L352.582 168.0076 L352.2422 166.6199 L354.8651 166.0751 L355.1087 165.2173 L355.562 162.5537 L355.7806 161.7935 L357.1229 159.6392 L358.1478 158.9161 L359.0064 157.28 L359.457 156.8392 L360.6211 157.149 L362.3779 162.0847 L360.9724 162.3627 L361.528 164.6279 L360.5785 164.8295 L360.1096 165.7844 L361.0369 166.9902 L362.7866 169.5434 L362.9028 169.3232 L365.0197 167.6193 L365.6041 168.388 L365.6139 169.2198 L367.0566 169.6526 L367.6085 170.3964 L369.5782 172.1469 L370.7919 173.3712 L370.6135 173.9945 L370.1065 174.5595 L370.7381 175.5143 L370.9553 175.3971 L371.5238 175.8315 L372.8155 178.609 L374.7467 180.2911 L375.351 181.1011 L376.3312 181.8888 L376.5143 182.2734 L376.1242 182.5163 L375.379 182.719 L374.49 183.5847 L374.7957 183.9088 L375.678 184.1841 L376.8241 184.6864 L377.5851 185.7966 L379.8365 188.5077 L381.3001 189.6396 L383.2363 191.6866 L383.6558 192.6382 L383.2255 192.7984 L383.0677 193.1415 L383.141 193.6868 L383.2849 193.5648 L383.9862 194.7705 L386.0926 197.7589 L386.1967 197.6406 L387.1746 198.1795 L387.3178 198.1042 L387.7312 198.6908 L388.1592 199.3878 L388.1224 200.5658 L387.659 200.6427 L388.4791 202.3899 L389.661 204.0325 L389.7641 203.8649 L389.055 199.2106 L389.4087 199.1485 L389.8546 199.5633 L390.5291 199.7097 L391.4324 199.5877 L391.3868 199.1623 L392.3366 199.0594 L392.5238 198.8955 L392.8511 201.4362 L393.3037 200.2433 L393.2284 199.8041 L393.3419 198.7831 L392.8957 198.1588 L392.2748 197.8931 L392.1715 197.6416 L391.7073 197.09 L391.2003 196.0127 L390.5031 195.4918 L390.14 194.7588 L389.4955 194.0077 L388.5372 191.7481 L388.19 190.2019 L388.2521 189.5229 L387.8954 188.9426 L388.0001 187.5449 L387.8866 187.3227 L385.6616 185.2046 L384.8192 184.0329 L384.5652 183.8769 L382.8114 181.9954 L382.5347 182.1058 L382.125 181.2258 L381.3048 181.6289 L381.0799 180.6073 L381.0593 180.1277 L380.3523 179.6392 L379.8993 178.5459 L379.4943 178.1332 L379.8314 177.8245 L380.7373 177.9502 L381.0238 177.3709 L379.2007 176.6065 L379.3129 176.3578 L379.7331 176.4469 L380.1604 176.3747 L380.4455 176.0002 L380.0537 175.6878 L379.8645 174.281 L379.8243 172.8986 L378.8123 171.983 L378.3046 172.6509 L377.3845 172.5267 L376.6184 172.0313 L376.0674 171.4987 L376.6879 170.1571 L375.4594 169.198 L374.8933 169.824 L374.495 169.5709 L374.4403 169.2717 L373.6941 168.8171 L371.1975 166.831 L372.2133 164.9971 L372.5298 164.0831 L371.6755 163.2847 L371.0205 163.1829 L369.3769 164.3993 L368.7624 165.1398 L368.4287 165.4279 L368.5543 165.6629 L367.8585 165.5817 L366.3415 165.2465 L365.8091 165.4061 L364.9501 164.7621 L364.4884 165.0146 L363.8452 164.2396 L363.5142 163.5818 L363.3007 161.4927 L362.1441 158.9601 L363.2355 158.0816 L363.0906 157.5458 L363.3186 155.557 L363.5848 155.4768 L364.7958 153.9686 L365.1974 153.8121 L366.6317 152.9644 L369.8427 153.9766 L370.3453 153.7039 L370.5061 153.4922 L371.6556 153.5851 L373.0618 154.3384 L374.7818 155.7761 L375.2871 156.0355 L375.7766 156.6848 L374.1691 157.8636 L374.5305 158.3845 L374.9575 158.6339 L376.5785 157.8302 L377.1598 156.8286 L377.6814 156.9018 L377.706 157.3909 L377.2879 158.0832 L376.7471 158.628 L377.1054 159.1882 L376.8575 160.4079 L377.2308 161.7755 L377.6155 161.9277 L379.2754 160.5044 L379.219 159.9405 L380.0476 159.9665 L380.6076 160.1866 L380.8535 159.3851 L381.3964 159.3315 L381.5389 159.0758 L383.2225 159.6164 L382.1783 161.0577 L381.2822 164.0348 L381.6207 164.0682 L381.268 165.1892 L381.2065 165.709 L381.5686 165.9085 L382.0476 165.7849 L383.6778 164.4688 L383.9926 164.4263 L384.5253 163.185 L384.679 163.1351 L385.2195 162.4922 L385.5029 162.5415 L385.8626 162.2036 L386.4179 162.2922 L386.5172 163.9261 L386.1085 164.9881 L385.7386 165.2719 L386.271 165.8719 L385.9477 166.7196 L386.0639 167.7997 L385.8265 168.6357 L386.2139 170.0006 L386.3581 170.0982 L386.7324 171.0414 L387.232 171.9379 L386.6713 172.8615 L386.729 173.2922 L387.0276 173.237 L387.5955 172.6609 L388.0407 172.209 L388.6389 171.2366 L389.6881 168.5774 L389.6161 167.6082 L389.2371 167.4984 L389.2918 167.0384 L388.5723 166.3462 L389.1834 165.2555 L390.0616 164.8969 L390.3106 164.2141 L391.0656 164.2486 L390.8521 163.4226 L390.8615 162.2248 L392.0826 161.9235 L392.185 161.6699 L391.6685 161.1246 L391.9729 160.0917 L392.642 159.4885 L393.2575 157.2174 L393.6881 156.697 L394.3668 157.2562 L395.4565 155.6036 L396.8701 157.1225 L397.2119 157.0615 L397.5778 156.749 L397.8017 156.3538 L398.403 155.7315 L399.0296 155.2965 L399.6873 155.3097 L400.7398 155.8365 L401.6204 155.557 L401.9754 155.5967 L402.2771 155.4535 L402.5524 155.767 L402.678 156.3787 L403.0466 156.7426 L403.661 156.8599 L404.1484 155.9315 L404.2281 154.8981 L404.6061 154.131 L405.4256 154.5898 L406.7602 154.7607 L407.7448 153.9554 L408.2789 153.3718 L408.4451 152.7649 L409.1527 152.3914 L409.7929 152.4455 L409.5571 151.3871 L409.728 150.7065 L410.0918 150.1601 L410.0932 149.7362 L410.4708 149.5102 L411.0332 148.9224 L413.3521 147.8496 L413.5467 147.56 L413.3521 147.0894 L413.0039 147.2098 L412.9187 146.8995 L413.5332 146.6995 L413.4055 146.2931 L413.8841 145.9509 L414.3307 146.005 L415.9609 146.7302 L415.7916 147.5006 L415.8295 148.2735 L416.0956 149.3935 L416.2078 150.6646 L415.6764 153.2206 L415.5214 154.2349 L415.5626 154.4344 L415.3643 155.2355 L415.519 155.3023 L416.0227 153.627 L415.9338 153.5071 L416.4334 152.3437 L416.6628 151.2312 L416.4925 151.1972 L416.7993 149.7516 L417.5015 149.576 L418.3085 149.8322 L418.2028 149.4815 L418.3014 148.7308 L418.572 147.7802 L419.7579 145.866 L419.8606 145.5456 L419.8035 145.0124 L420.0609 142.4786 L421.0574 139.2603 L421.304 138.0581 L420.8534 137.9579 L420.4183 136.6724 L420.2052 135.2287 L419.5532 133.9294 L418.9881 133.1177 L418.069 132.5686 L417.9819 131.9213 L417.7626 131.5876 L417.3458 131.482 L416.4892 131.5976 L416.095 131.2607 L415.3647 131.3191 L414.1567 131.1185 L412.1077 130.197 L409.1561 128.6583 L409.6993 127.4985 L408.3106 127.0534 L408.2911 126.7064 L407.554 126.4156 L407.4155 125.8824 L407.074 125.7402 L407.3513 124.0074 L409.3838 125.0515 L412.2337 125.9854 L413.0447 122.9287 L413.9274 121.2081 L410.6644 119.2428 L410.5674 119.6614 L408.2151 118.0225 L408.6559 117.3619 L409.198 116.003 L409.7628 115.2278 L410.5728 114.6155 L410.4363 113.6 L410.4792 112.881 L411.5676 112.3711 L412.1138 111.9758 L412.4398 111.4983 L412.4121 111.0828 L412.7924 110.9056 L411.5325 108.6861 L412.8005 107.4387 L411.5939 106.0347 L410.5762 103.8522 L409.1044 101.5069 L406.4971 96.5201 L405.6614 95.2774 L406.7271 94.9096 L407.5996 94.9738 L410.6444 95.8483 L412.3553 96.1343 L414.68 96.4214 L420.118 96.561 L424.8592 97.0953 L427.342 97.627 L433.7018 95.5804 L435.4384 95.1224 L437.5553 90.4342 L437.5492 89.4414 L439.4483 89.2955 L440.0816 89.0285 L439.4699 87.3782 L440.1006 87.4048 L441.1281 86.9585 L442.5218 86.8545 L443.8581 86.6321 L444.8951 86.6741 L445.2407 86.9627 L446.1804 87.4233 L446.4706 88.0267 L447.1323 87.868 L447.6994 88.0431 L450.0342 86.1206 L449.1681 85.0227 L447.5413 84.1646 L445.3991 83.5729 L443.7642 83.5421 L441.3524 84.2484 L437.5877 85.1755 L433.1411 84.448 L432.6253 84.4474 L430.101 84.9558 L428.8806 85.8839 L427.3237 86.2808 L426.3938 86.309 L425.0305 86.2272 L421.7404 85.7879 L416.9394 85.8489 L413.8602 86.3764 L411.5919 86.6125 L408.9207 86.4422 L408.4839 86.3053 L406.0904 86.1577 L403.3607 85.9672 L401.6167 85.6435 L397.5062 83.8924 L396.1256 83.5761 L395.0261 83.4869 L393.5632 83.6981 L392.5795 84.0547 L391.3412 85.0052 L391.0051 85.5119 L390.693 86.197 L390.1154 88.5393 L389.4594 90.7102 L389.4313 93.5098 L389.6033 94.8194 L390.1613 97.1059 L390.823 98.9175 L391.1135 100.4117 L389.9742 100.4855 L389.4908 100.6208 L387.6076 100.6096 L386.6192 100.3098 L384.7205 100.0774 L383.6693 99.828 L381.8409 99.083 L379.9462 98.0531 L378.8474 97.6567 L377.2622 97.2699 L376.4214 96.6146 L376.5744 96.1449 L376.67 93.2249 L376.6285 92.2941 L376.2302 90.0861 L375.8489 88.5701 L375.9286 86.8815 L376.1438 85.3713 L376.8747 83.4015 L377.5294 81.8976 L378.1931 80.7174 L378.8805 80.0238 L381.0025 78.4929 L383.1323 77.2267 L384.93 76.4944 L385.2249 75.9934 L385.3076 75.6745 L384.3422 75.4415 L383.9909 74.1753 L382.3554 70.72 L383.5096 70.2844 L382.8191 69.0659 L382.4388 67.9987 L382.003 64.5492 L381.3531 64.4834 L381.2349 63.6045 L381.268 62.6073 L381.648 60.0398 L382.8624 58.9115 L383.2778 58.2683 L384.0649 58.8329 L384.2845 58.705 L383.9328 58.4731 L384.6608 57.3544 L385.1779 57.676 L385.5066 56.9043 L385.1668 56.8667 L383.1562 58.0889 L382.2354 58.912 L381.6325 59.301 L380.7039 60.07 L379.9567 60.0732 L379.2957 59.9251 L378.1269 59.9432 L377.2804 60.2813 L375.3395 61.6059 L376.3583 61.8097 L376.4843 62.7458 L377.3946 63.587 L377.1717 64.14 L377.0119 64.8188 L377.4986 65.5357 L377.8972 67.0477 L377.3014 68.1526 L377.2382 68.6578 L377.5071 69.0309 L377.8192 69.0765 L378.4911 70.1697 L377.7574 72.5201 L375.7073 71.8032 L375.5124 71.6541 L374.0718 71.1324 L373.4388 71.0868 L371.6421 71.2651 L371.6944 71.7756 L370.5655 72.1619 L368.3307 72.6034 L368.1804 72.7478 L368.0477 73.2774 L368.1693 73.6409 L368.2892 74.5314 L368.1571 75.1778 L368.4412 75.987 L368.9306 76.5936 L369.1914 77.2304 L369.0999 80.0207 L369.0272 80.4542 L368.4145 81.2094 L367.7217 82.2388 L364.4546 81.7358 L364.1982 81.2746 L363.9131 80.1576 L363.0572 80.1379 L360.5609 80.2802 L360.5633 79.9649 L359.2469 79.5271 L357.23 79.0044 L357.4607 77.1566 L357.6958 77.1248 L357.7114 77.0176 L357.0169 76.7512 L358.1603 74.3446 L356.6635 72.0096 L355.2401 71.5564 L355.0523 70.606 L354.7273 70.3045 L354.7915 70.1156 L353.5258 70.3592 L352.4118 71.2003 L351.5633 71.3452 L349.9875 70.8464 L349.8544 70.2684 L348.4097 69.3227 L349.2474 68.2035 L347.3737 67.6314 L347.2571 67.7673 L346.2999 67.7763 L345.0524 68.1855 L343.0645 66.8779 L343.5604 66.0001 L342.6828 66.0436 L342.2498 66.9527 L340.6574 67.5587 L340.1764 68.6599 L339.3451 68.7125 L339.3134 66.0293 L338.701 65.151 L337.998 63.2643 L338.2848 61.7916 L338.602 61.3448 L337.7714 60.2871 L337.1698 60.4882 L336.5891 59.0665 L336.8084 58.9163 L336.5526 54.5442 L336.8705 53.5709 L337.2019 53.5858 L337.4316 52.6246 L337.9707 52.2876 L338.4851 50.9741 L338.7611 50.5766 L341.8657 49.946 L343.4814 49.4875 L344.3187 49.479 L344.4086 49.2566 L344.2718 49.0199 L342.2305 47.3141 L340.1609 47.0684 L336.7016 47.9574 L334.9931 49.0592 L335.3984 49.2895 L333.3315 52.5126 L333.1336 53.1548 L332.7282 53.7052 L332.8474 54.5899 L332.488 56.8162 L331.6672 56.9208 L331.1615 56.0053 L330.2343 54.9837 L328.5518 56.7303 L331.2889 62.3388 L330.8798 62.6524 L329.3186 62.4274 L329.1727 62.0596 L327.3148 62.0193 L323.9677 62.2947 L318.8904 62.2873 L318.2577 62.6153 L316.7819 64.4202 L317.5227 64.8156 L315.7885 67.0519 L315.3088 68.7512 L315.674 69.024 L316.3854 67.9753 L317.4416 66.8465 L317.9226 67.1851 L318.4584 67.0965 L319.3538 66.6847 L320.1429 65.9635 L321.2715 65.4874 L321.5272 65.7114 L321.4954 66.3137 L321.9798 66.4422 L322.6341 65.7215 L323.1181 65.5548 L324.1214 65.8589 L324.677 65.5973 L324.6841 65.9014 L324.3311 66.9139 L324.5466 66.8848 L325.4158 66.4453 L326.2089 66.6937 L327.5043 67.788 L327.9999 68.584 L327.9705 69.0234 L329.2047 71.4195 L329.4976 73.7253 L330.3694 74.7304 L330.4708 75.2552 L329.8178 75.9902 L328.6312 75.6119 L327.5722 75.7244 L326.2298 76.0141 L324.7307 76.8478 L321.4201 78.0195 L322.9442 78.167 L324.6216 78.0434 L326.1687 78.4186 L327.933 78.6149 L328.5819 78.9885 L328.9784 79.4274 L329.779 79.9039 L329.8827 80.4436 L329.3368 82.3179 L328.9852 83.012 L328.2488 83.1272 L327.4317 83.099 L326.3075 82.7281 L322.7381 82.8884 L321.742 83.4694 L320.8556 83.497 L319.2819 84.0022 L317.1754 84.0877 L316.3016 84.4368 L315.4277 84.5552 L314.5383 85.245 L313.7793 85.1935 L313.6233 84.2606 L314.8025 83.332 L315.548 82.5997 L316.8056 80.9987 L314.4488 80.3635 L314.1505 79.4035 L314.3846 78.0641 L314.0175 77.3907 L313.4902 76.8924 L312.4403 76.6191 L312.7244 75.6729 L311.6404 74.8965 L310.2971 74.5632 L309.3073 73.6797 L308.6622 73.6749 L308.3423 73.5794 L308.7892 72.7955 L307.6258 73.0455 L306.3439 72.7573 L305.5616 72.4172 L304.882 71.817 L305.5413 71.1271 L306.0173 70.4473 L306.375 70.3682 L306.5172 70.0562 L305.1002 69.448 L303.193 69.214 L302.2469 69.5727 L301.7524 69.5478 L301.1221 69.31 L298.6363 69.2002 L297.9013 69.6693 L296.1704 71.2889 L296.1329 72.2633 L296.6177 72.2951 L296.3853 73.3549 L296.5484 74.0103 L296.7994 72.3461 L297.2044 71.4046 L298.7021 70.1315 L299.1595 70.6967 L299.3983 71.6668 L299.8874 72.1088 L300.2198 72.5254 L300.5411 72.7435 L299.6976 75.0276 L299.9398 75.4564 L300.6046 77.2023 L300.7407 78.5534 L301.2123 78.7508 L301.3345 79.0883 L301.267 79.4974 L300.914 80.0684 L298.6694 80.8342 L298.138 80.537 L297.425 81.2799 L296.3468 81.9337 L296.3153 81.8148 L296.4859 81.7151 L296.4697 81.5941 L296.5717 81.4418 L296.3353 81.1658 L295.7185 80.8034 L295.3091 80.7535 L294.9946 80.242 L294.5143 79.7532 L294.1704 79.1382 L293.181 78.287 L291.5316 76.5257 L291.1789 75.9579 L290.3699 75.4208 L290.0321 74.8514 L290.044 74.1419 L290.6665 73.7497 L291.2083 73.7842 L292.776 74.5118 L292.3041 73.5417 L291.415 72.5865 L290.3416 71.2237 L291.4522 70.8119 L292.2855 70.391 L292.9172 69.9516 L293.6171 68.4885 L293.183 68.3325 L292.471 67.4903 L292.3565 67.1145 L292.6466 66.1736 L292.2892 65.9146 L291.8866 65.9996 L291.1472 66.8014 L289.4734 65.4036 L288.6293 63.8099 L290.1007 63.2256 L290.5327 62.6747 L290.6074 61.8511 L290.8303 61.339 L291.6464 60.9054 L291.4694 60.1597 L292.2207 59.8116 L292.526 59.232 L293.5647 58.9677 L294.164 58.5172 L294.6815 58.9396 L295.2287 58.558 L295.4881 58.0915 L295.5084 57.6733 L297.4351 57.166 L298.4995 56.4065 L299.2017 55.6959 L299.3284 54.5856 L299.2375 53.798 L299.6203 52.4224 L300.1455 51.2246 L300.1293 50.5341 L299.4885 49.6515 L298.0631 49.5257 L297.6344 50.1902 L297.1767 50.6424 L296.5758 50.3605 L296.1495 46.8567 L296.4214 45.3425 L296.7268 44.1929 L295.8752 42.7689 L294.5751 40.2983 L294.2305 38.7718 L293.8404 38.0399 L292.877 36.816 L292.855 36.3107 L293.4668 34.2423 L293.104 33.8299 L291.5968 34.0343 L290.1744 34.073 L289.2495 34.0444 L288.5989 33.8862 L287.4467 32.6267 L286.863 31.5975 L286.4421 30.3486 L286.5837 27.5281 L285.822 25.8615 L284.9339 23.4883 L284.1219 21.905 L283.954 21.2245 L283.12 19.9257 L282.3471 18.3036 L282.3009 17.5138 L282.0526 15.8959 L281.731 14.8428 L281.2301 13.9048 L280.6511 13.2774 L278.4572 12.2232 L276.6257 12.081 L275.4542 11.8342 L274.1429 11.7715 L273.2684 11.9504 L271.695 12.3888 L270.5266 13.3884 L270.0807 14.8152 L271.116 15.0498 L271.5963 16.1055 L271.0133 16.4007 L270.4823 16.1273 L268.613 14.0381 L268.6103 13.6649 L268.4647 13.382 L266.5525 11.9743 L266.2157 12.9212 L265.1284 12.0773 L265.1551 11.608 L264.3697 11.1138 L263.4584 11.1324 L261.7546 11.6038 L257.6552 10.8819 L256.9235 11.9727 L253.4575 11.3113 L251.5652 10.5613 L250.417 9.6297 L249.8401 9.8319 L249.4587 9.8399 L242.026 11.9483 L238.5853 12.4 L236.411 13.3942 L235.0061 13.0879 L233.5513 14.097 L232.4278 12.5258 L231.9708 11.2051 L228.2666 6.379 L227.2671 5.2871 L225.5913 6.4156 L224.938 6.629 L223.4899 6.9188 L219.5111 5.7966 L217.963 4.8879 L217.6911 4.9404 L219.3446 7.2017 L220.3306 8.0776 L222.2273 9.1562 L223.2197 11.8028 L222.6718 11.9053 L219.4635 13.8475 L218.5434 14.9516 L217.8769 14.0322 L216.8723 15.4272 L215.9755 14.5232 L214.6162 13.6362 L213.4208 13.1612 L212.9989 13.5917 L213.2675 12.4833 L209.9801 11.547 L210.3365 13.6113 L209.7393 13.3199 L208.9873 12.8002 L207.8091 11.7641 L205.6345 11.0342 L205.5314 11.763 L206.0459 14.1941 L205.7561 14.9171 L205.0511 15.4325 L204.2259 15.7467 L203.1159 15.7887 L202.4066 15.6984 L201.0878 15.2467 L199.2523 15.0768 L195.5086 14.2031 L194.506 14.6963 L192.6235 13.4919 L192.8559 12.5746 L193.6325 11.444 L194.1895 10.9795 L195.1789 9.5867 L194.9529 8.7162 L195.0029 8.3987 L195.1951 8.2172 L196.0521 8.0229 L196.7689 6.2165 L195.3701 5.9564 L194.2713 5.9655 L192.5428 6.2473 L189.4216 4.8226 L189.2382 4.3815 L189.1129 5.1751 L189.1548 5.7133 L189.856 6.6592 L190.008 7.5553 L189.8155 8.0786 L188.2434 9.8611 L186.8396 12.771 L187.2666 14.0959 L184.315 13.5805 L184.119 13.9643 L183.3002 13.9823 L182.596 12.5555 L182.7983 12.1272 L182.1531 11.2519 L181.0955 10.075 L180.2304 8.9492 L178.4243 8.8844 L177.4369 9.7178 L175.7943 8.3409 L174.4357 7.0027 L174.5174 6.8052 L172.5508 5.7834 L171.6462 5.6263 L168.4974 4.4542 L165.9748 4.3624 L164.7047 4.0226 L164.3723 3.3994 L163.5663 2.6313 L162.5982 2.9185 L161.8679 3.0178 L160.4026 2.6112 L159.8706 2.9164 L159.171 2.6701 L158.5492 2.195 L157.704 1.9062 L154.7791 0.6726 L150.1325 0.0 L143.0285 1.6658 L142.7566 3.3188 L144.7161 3.487 L150.8905 3.7933 L151.9437 4.132 L153.304 4.9102 L154.2191 4.8008 L155.5216 5.1522 L156.543 5.0285 L157.2514 5.9851 L156.5157 6.0854 L155.9806 6.2547 L156.2421 6.4681 L157.2514 6.828 L157.22 7.2829 L155.658 7.4284 L157.2294 7.7718 L157.1352 8.7947 L156.3498 9.6318 L152.2082 10.0554 L152.1873 10.2449 L151.762 11.1107 L151.8471 11.3941 L151.5127 11.6728 L149.8224 12.1203 L148.8097 12.8793 L146.4341 13.1872 L146.6435 13.3608 L147.0002 14.5084 L148.7486 14.4882 L151.0631 13.2721 L152.5099 12.8575 L153.0936 12.9335 L154.4822 12.7758 L154.8855 13.4664 L152.6044 14.243 L151.5343 14.8083 L150.8993 14.9256 L150.8875 15.0673 L151.2276 15.2881 L151.4989 15.2324 L152.6041 14.5848 L155.3652 13.805 L155.6786 14.2907 L156.9004 14.3889 L157.704 14.7143 L158.1175 14.5652 L158.6302 15.148 L157.7685 16.337 L157.4787 18.3184 L158.1867 18.6263 L158.5995 18.5854 L161.0589 16.837 L163.0141 16.5031 L162.9678 15.7016 L163.5234 16.0302 L163.8247 16.424 L164.7695 16.9946 L165.0533 17.7176 L165.6806 18.3466 L165.7829 18.6438 L168.4133 18.5032 L168.4251 18.362 L171.4368 18.061 L172.9599 17.2945 L173.979 16.5811 L174.4137 15.9007 L174.9778 15.3736 L175.7841 15.2637 L176.5273 18.5807 L175.2693 18.6741 L175.2926 19.6497 L175.1106 20.2495 L174.8454 20.5807 L172.947 21.5531 L172.1961 21.8418 L170.8876 22.0197 L168.0761 22.8838 L167.0523 23.6757 L166.0785 24.1497 L165.0979 24.0037 L164.9415 23.4188 L161.5707 23.6253 L158.3316 24.2272 L157.825 24.6518 L157.0545 25.0313 L157.2527 25.4246 L159.5578 25.9029 L159.3234 27.6109 L159.3007 29.7202 L159.217 30.0546 L159.5967 30.3587 L161.0836 28.9601 L161.3633 28.0493 L162.0118 27.7187 L163.0205 27.5493 L164.2193 27.9522 L165.8143 29.552 L167.5911 30.6517 L168.0079 31.1124 L168.8551 32.3709 L168.0826 33.2392 L167.0722 34.6823 L168.0329 35.0725 L168.8257 35.2519 L168.9486 35.445 L170.2252 35.7078 L172.5113 33.4255 L173.8442 32.4362 L175.5095 31.7568 L176.3374 31.5636 L176.8593 32.2037 L177.4518 33.3676 L177.6011 34.5916 L176.937 34.9244 L176.9265 35.4429 L177.3602 35.4328 L177.1762 36.5729 L177.3609 36.6286 L177.6244 35.4774 L178.0406 34.7423 L178.2564 34.5512 L178.9762 34.9865 L179.6636 35.5395 L179.9271 35.3421 L180.1027 35.6903 L179.3522 36.0989 L178.7958 36.8696 L179.1242 37.1074 L179.7619 36.2874 L180.4439 36.2858 L180.6787 36.0034 L180.5233 35.4551 L180.8884 34.8235 L181.2063 33.9563 L182.0183 33.167 L182.5872 33.2026 L183.6005 32.7095 L183.3942 31.5413 L183.5566 30.5981 L184.1359 29.5175 L185.4148 27.889 L185.6641 27.1115 L186.4136 27.1714 L187.2632 26.5387 L187.5797 26.4957 L188.0428 25.7495 L190.1932 25.8726 L192.8235 23.8678 L197.1735 24.4777 L197.6414 24.6449 L193.3055 25.9575 L192.1405 27.3317 L200.0782 33.7031 L200.4278 34.1325 L207.8311 28.94 L208.6192 29.4336 L210.0071 31.1156 L210.3574 32.0381 L210.0784 32.4797 L209.4251 32.8921 L207.7622 34.1845 L206.0469 34.6112 L205.2017 34.6776 L204.0452 35.3033 L202.3376 35.9073 L202.6305 36.643 L201.9063 37.4853 L200.9973 38.8238 L200.0451 40.414 L198.2619 42.9578 L197.965 43.7417 L197.4144 43.962 L197.4846 43.6452 L196.9675 43.6345 L196.7273 43.409 L196.1821 42.5943 L195.4826 42.1883 L194.5003 42.7901 L192.8066 43.5687 L190.4455 45.3255 L188.6826 45.8212 L188.0823 45.4343 L187.9486 46.1147 L188.1107 47.4341 L188.7346 47.398 L190.4691 46.7579 L190.7816 47.2812 L190.8684 47.803 L189.6213 49.427 L189.1822 49.8744 L187.9084 50.8233 L186.5065 51.6603 L185.7026 51.3169 L184.7092 51.2421 L184.1849 51.2973 L185.3364 52.0668 L185.7661 52.6225 L186.5849 53.4324 L187.127 53.391 L187.6179 52.3709 L188.6687 52.2765 L188.9187 52.6952 L189.9841 52.4697 L191.5639 51.3981 L193.9315 50.6726 L194.6861 52.0881 L196.2142 56.0016 L196.3993 56.6549 L194.9002 59.7516 L193.6031 59.8148 L193.4339 59.1588 L190.9599 59.9315 L185.0155 62.0968 L184.2471 62.8477 L183.2989 64.0593 L183.6208 64.2636 L183.9214 63.8969 L184.5916 63.3386 L185.4955 62.8085 L187.2139 62.9778 L187.5733 63.2521 L187.6709 64.0954 L190.0165 64.2774 L192.4675 64.1358 L192.1537 64.425 L193.5474 64.4048 L194.934 63.647 L195.3157 62.61 L195.9531 62.2157 L196.5807 61.9763 L197.3691 62.7002 L197.3728 63.4076 L199.0226 62.7835 L199.0016 61.4934 L200.2602 60.5838 L201.1442 62.6954 L201.2702 63.4013 L201.9005 63.4082 L202.6258 63.6634 L202.9778 62.8615 L203.5959 61.9084 L203.9992 61.107 L204.5275 60.0191 L204.8744 59.0643 L205.1896 57.4207 L205.269 55.9634 L205.6193 55.3769 L205.067 55.0362 L204.8589 54.3813 L202.9734 53.3512 L203.655 52.1369 L204.7724 51.5197 L206.3219 49.859 L208.3293 52.5965 L208.9005 52.3821 L207.8372 51.3769 L208.181 50.8923 L208.1641 50.5665 L207.5467 49.2274 L208.256 48.4197 L209.1268 48.6022 L209.8126 48.4271 L211.2022 48.8129 L211.9987 48.0338 L213.862 49.4429 L214.0971 49.3649 L212.7402 46.9325 L212.5159 45.8398 L213.2452 45.2172 L214.168 45.2305 L214.9128 45.7448 L215.1412 46.2989 L216.0154 46.7494 L216.2032 47.001 L216.4058 47.4813 L216.5423 48.2631 L217.4766 49.9524 L218.0032 49.419 L218.338 48.6044 L219.9202 49.0666 L220.3806 49.635 L220.6471 51.7229 L220.5444 51.983 L221.3277 52.2154 L221.9722 50.8504 L223.6217 48.8565 L224.2067 47.9611 L224.304 47.3168 L224.8853 46.9612 L228.0734 46.9283 L227.8883 47.8306 L227.0546 50.0681 L226.0581 51.8959 L225.439 53.3347 L224.1902 55.5664 L222.9606 58.4296 L222.9116 58.7146 L222.9866 59.0548 L223.9132 59.7628 L224.1121 59.3992 L224.5823 59.1015 L224.5384 58.669 L225.5471 57.9323 L225.9764 57.3332 L226.9523 57.7561 L229.8789 61.0725 L231.0449 62.5813 L230.0846 63.1354 L228.8685 63.4177 L227.6964 64.132 L227.0742 65.1377 L226.7823 65.3526 L226.0804 65.7698 L224.9451 66.2166 L224.3533 66.6916 L223.3379 67.2419 L221.3183 68.1855 L220.7765 69.3557 L221.3933 69.3886 L221.4108 69.1964 L221.5946 68.9375 L225.5167 67.4255 L228.6567 66.7064 L229.5019 67.1002 L229.6627 67.736 L226.328 68.8048 L225.9048 68.7024 L225.519 68.7093 L225.495 69.3737 L226.0504 69.2755 L226.1189 69.9506 L226.683 69.8508 L227.0333 69.4156 L227.8119 69.2872 L228.3811 69.4607 L230.4585 68.6769 L231.0868 68.6148 L232.1886 67.8496 L233.2635 67.7264 L233.5344 68.2614 L234.0211 68.3197 L234.2279 67.4584 L235.2115 67.1655 L236.2245 67.028 L236.7525 67.5338 L237.1845 67.2525 L236.9771 66.5791 L237.7084 66.0558 L237.855 65.8457 L238.3195 65.505 L238.9474 65.4052 L239.1393 64.8819 L239.6007 64.6293 L241.0829 64.8081 L242.5685 65.1186 L244.0994 65.8754 L244.196 66.915 L244.8087 67.2414 L244.5331 68.3314 L244.6682 69.1174 L245.1317 69.7415 L245.7802 69.9017 L245.5992 70.6139 L246.6092 71.0761 L246.8983 70.408 L247.3827 70.1087 L247.4627 69.5127 L247.4168 69.0659 L248.4177 69.1349 L248.7126 67.1066 L249.4371 66.9644 L250.6984 67.451 L251.2618 68.6026 L251.751 68.229 L252.6873 68.4678 L252.5448 69.4666 L252.9146 69.5042 L253.6318 70.0647 L253.8128 70.4351 L253.5412 70.6909 L254.3492 70.8448 L254.3607 71.7936 L255.2349 72.1131 L255.8595 72.2038 L256.1878 70.8002 L257.9605 69.5764 L258.2666 69.9044 L257.7984 70.5815 L257.8436 70.8092 L258.7864 70.4473 L258.7895 71.169 L258.3314 71.7989 L258.5834 72.6172 L257.8565 73.3554 L257.0323 72.4962 L256.1902 72.3583 L255.6028 72.9569 L255.5173 73.7285 L255.9297 74.8424 L253.6078 75.7859 L252.283 76.4482 L250.5035 76.6605 L247.7711 76.1829 L246.6453 76.1606 L246.1238 75.0026 L245.9569 73.6515 L245.0847 73.8866 L244.0774 75.2807 L243.4924 76.4567 L243.0826 76.8775 L243.0158 77.3546 L243.2279 77.9542 L243.2647 79.6306 L243.9646 80.0621 L244.572 79.7272 L245.9123 79.966 L245.8623 81.0767 L246.418 81.3022 L247.6519 80.8087 L248.1876 80.8867 L248.7274 81.3648 L248.7176 82.2192 L247.3607 82.7292 L246.2477 83.0056 L245.6867 83.4832 L245.8366 83.8871 L244.0734 84.4331 L243.1239 85.7168 L242.7452 85.2211 L242.3969 85.4764 L242.0328 85.4483 L241.7825 85.1208 L241.7531 84.7117 L241.1292 84.0988 L240.5756 83.8122 L240.6002 83.3808 L239.4224 82.9706 L237.1578 81.6408 L236.6907 81.5288 L236.9086 81.09 L234.1529 80.4404 L234.519 79.265 L235.0838 78.5889 L234.7136 77.25 L234.4289 76.7624 L233.7621 76.8971 L233.1834 77.4724 L230.7058 77.9113 L230.1629 78.1018 L229.5441 78.0545 L228.8145 77.8317 L227.2826 77.1773 L227.137 77.5042 L226.7253 77.37 L225.4876 77.5966 L224.3854 77.4246 L224.2165 77.5791 L222.8654 77.397 L222.4087 77.795 L221.9182 77.8327 L220.9248 78.4674 L219.372 78.4865 L218.1887 79.222 L218.2819 78.4982 L217.9198 77.8359 L217.5013 77.8232 L217.1213 77.9792 L217.0753 78.3947 L216.8203 78.8824 L214.8449 78.91 L214.8993 78.2456 L213.1908 78.953 L210.8354 79.092 L209.1502 79.7431 L207.8706 79.9729 L207.7122 79.023 L208.9877 78.9668 L208.9826 78.2806 L209.4822 77.0139 L210.3159 75.848 L211.2981 74.8079 L209.7362 75.225 L209.0502 75.9759 L209.0566 75.3757 L210.5162 73.0137 L210.8384 73.1309 L210.684 73.824 L210.881 73.9875 L211.0894 74.0177 L211.4529 73.8012 L211.9339 73.6696 L212.9134 74.247 L213.2131 73.3666 L213.4417 73.4058 L214.1883 72.4564 L213.4553 71.7809 L214.6129 71.0682 L216.3248 70.8235 L217.2838 70.7641 L218.3751 70.2063 L218.4069 70.0121 L217.508 70.2658 L214.2416 70.6946 L211.5103 71.7384 L210.6371 72.3981 L210.128 73.3284 L209.3815 74.4136 L208.004 76.1945 L206.538 76.8908 L205.2859 77.119 L205.7284 76.0794 L206.84 74.3786 L206.5637 74.1679 L206.8789 73.2625 L207.697 72.3031 L206.3688 70.5683 L205.9506 71.0347 L206.2121 72.2123 L206.1685 72.8619 L205.9189 73.495 L204.7011 75.7074 L203.758 75.3094 L200.9784 75.1311 L200.9237 75.3725 L197.662 75.4065 L197.5762 74.3149 L197.2894 73.9636 L196.2548 73.1739 L196.2004 72.5509 L195.8038 72.2744 L194.7634 72.3981 L193.4275 73.5258 L191.9355 73.2753 L191.7953 73.7476 L195.1032 76.064 L197.0925 77.3408 L198.5358 77.7733 L198.0677 79.3844 L200.3194 80.2425 L201.5884 80.4648 L201.6003 81.9544 L202.4167 83.2471 L202.2593 83.9046 L199.3607 85.9869 L198.5166 86.8614 L198.9753 86.6969 L199.1449 86.9808 L202.1748 85.3411 L202.5548 85.0264 L202.921 85.254 L203.6327 84.9091 L204.459 84.2267 L207.3126 82.9032 L208.7505 82.9711 L210.7148 82.8613 L211.3826 82.6204 L213.0516 82.5694 L214.4112 82.6352 L216.0809 82.9605 L215.8404 84.2734 L215.3445 84.6178 L214.999 85.1909 L214.3453 87.1511 L213.8224 88.2453 L213.8224 89.1081 L213.0026 91.1341 L212.7135 92.1238 L213.4934 93.0413 L213.9505 92.8624 L215.6252 91.5528 L216.6984 91.1877 L217.331 90.4735 L217.9519 90.2135 L218.4055 89.9036 L218.8683 89.2265 L218.9558 89.01 L218.9784 88.422 L218.8237 86.6305 L219.3115 85.5995 L219.8874 84.7902 L219.1811 84.959 L218.342 85.4387 L218.517 84.1428 L219.6172 83.4381 L220.6572 83.1505 L222.3158 83.2322 L223.2265 83.0651 L223.7956 83.1776 L224.2125 83.998 L224.806 84.181 L225.6025 83.9263 L227.0593 83.9189 L228.2659 84.6464 L228.7996 85.1442 L228.7493 85.8531 L228.4679 86.3589 L229.3502 88.0983 L230.6507 88.2225 L231.6077 88.7213 L233.7178 87.9375 L235.2838 88.6316 L235.9371 89.5804 L236.4745 90.1073 L236.0759 91.2578 L235.6888 91.9535 L234.6987 92.9357 L234.6967 93.4621 L234.3583 94.517 L233.0659 95.7449 L230.5632 97.4004 L228.6909 97.2449 L228.6476 97.0316 L227.7586 97.0353 L224.2239 95.9072 L224.1321 96.1975 L226.4973 97.4116 L230.3312 98.7036 L231.1064 98.832 L230.8824 99.8715 L229.9403 99.9113 L226.8536 98.9711 L225.7781 98.5614 L225.6251 99.0501 L226.3655 99.7829 L227.9018 100.4807 L228.0278 101.5637 L228.4628 101.8699 L229.2445 100.8574 L229.3924 100.7646 L231.3185 100.5614 L232.5818 100.2 L233.6975 100.4722 L234.0853 101.6183 L233.1713 102.2981 L233.4229 103.0823 L235.6483 104.1255 L235.9597 104.5946 L236.4373 104.3542 L236.6525 104.5447 L237.622 101.3578 L238.3594 99.6933 L238.9758 98.6447 L239.4122 97.6647 L240.7607 95.6976 L240.686 95.2837 L241.1988 95.0248 L241.5454 95.1856 L241.8082 95.6329 L242.326 95.7878 L242.5824 96.38 L242.3297 96.8915 L243.0543 98.077 L243.8423 98.4086 L246.1896 98.7334 L246.2038 99.5935 L245.5137 100.0965 L245.0813 100.7837 L245.1303 101.3621 L245.5661 101.5658 L246.3876 102.3607 L248.2322 104.4089 L248.8484 103.3991 L249.4077 102.9804 L249.7779 102.1755 L251.1926 102.7724 L252.1566 103.3275 L252.6133 103.1624 L252.893 102.9534 L253.5014 103.6596 L253.7385 104.6561 L254.3918 104.802 L254.6499 106.2676 L256.0844 106.2045 L257.1627 104.3627 L257.3468 104.3229 L258.2649 103.6724 L258.9158 102.6631 L259.3725 102.2652 L259.6761 101.2734 L259.8643 100.9413 L260.1842 100.8245 L260.5341 101.2597 L260.7115 102.1415 L261.183 102.5018 L261.0773 103.2325 L260.7449 104.0082 L262.0065 104.3929 L261.6488 105.5232 L262.3585 106.786 L262.9334 106.942 L263.7438 107.87 L260.6895 109.5414 L261.004 110.9019 L259.9416 111.4553 L259.5235 110.8398 L259.966 110.6626 L259.8677 109.7293 L259.2431 108.9774 L257.9845 107.8615 L257.2282 107.6573 L256.3408 107.9968 L255.2366 107.5915 L254.6485 107.5543 L254.1705 107.7947 L253.5433 108.6543 L252.8045 108.7986 L252.5829 111.1529 L252.4404 111.9604 L252.3066 113.6536 L252.3262 114.3412 L253.0248 114.6553 L253.8321 114.5901 L254.1033 115.5181 L254.4364 116.0428 L254.5789 116.6663 L252.3857 117.9142 L249.1047 118.9881 L248.4494 118.7292 L245.9106 117.4627 L245.5569 117.7593 L245.0631 117.4462 L244.7111 116.6753 L243.8136 116.5044 L243.1414 116.4938 L242.2666 116.817 L242.3784 118.2925 L241.8974 119.2646 L241.9605 119.8402 L242.8469 120.6849 L242.202 122.2777 L241.5498 122.0888 L240.709 123.3139 L241.164 123.6615 L242.5148 125.0271 L242.3848 125.4686 L241.7602 125.6999 L240.229 125.8055 L239.1961 126.2522 L238.1249 125.2282 L237.6612 125.2473 L236.5471 124.3125 L236.4184 123.2142 L236.4323 121.0494 L236.1796 119.2858 L235.9715 118.3928 L234.1336 115.2512 L233.7124 114.7238 L232.7379 113.8764 L229.4735 112.6969 L229.333 112.95 L226.5763 113.5873 L225.5849 113.3713 L225.4214 113.6711 L226.1007 114.3831 L227.4363 114.45 L228.398 115.6353 L228.2784 116.046 L229.2718 116.8175 L229.8329 118.0569 L229.3823 119.0391 L229.7647 120.1416 L230.1677 122.5865 L229.0087 122.101 L226.5368 121.8225 L225.7629 121.4893 L223.6389 121.0903 L223.7419 120.9889 L223.7159 120.9046 L222.0148 118.8974 L220.2536 118.9176 L220.1641 119.1197 L219.7104 118.0267 L219.7493 116.9103 L219.3882 114.9928 L219.145 114.5949 L218.4238 113.4652 L217.8029 112.8625 L216.8757 111.7164 L216.2613 109.6513 L215.7806 108.8978 L216.5345 107.7501 L216.3109 107.064 L215.9941 106.7706 L215.8346 106.2368 L216.3305 105.4828 L216.187 104.4205 L215.1229 103.6793 L214.5558 103.1359 L213.9494 103.0722 L213.4137 104.8265 L212.9178 105.5805 L211.8251 104.3988 L211.6896 103.6129 L211.8862 101.613 L212.0504 100.6696 L212.0588 99.7622 L211.8714 99.671 L211.9666 98.649 L211.5569 97.9884 L211.8528 97.4805 L210.8708 96.1497 L208.3145 93.9534 L204.4012 93.4764 L203.0288 93.6775 L202.2745 93.7067 L200.3207 93.4897 L200.6318 94.2808 L198.6105 93.7804 L198.3713 95.0253 L199.5995 95.4371 L199.5323 95.9587 L197.5421 95.4753 L197.4796 95.6594 L198.1636 95.9757 L198.0457 96.5031 L198.5521 96.7997 L198.7007 97.4667 L197.8876 98.0308 L197.9288 98.5513 L198.2595 98.8427 L198.4541 99.3568 L198.3832 99.7734 L197.6934 100.0058 L197.1695 99.8768 L196.8233 101.0628 L196.9915 101.1381 L196.9803 101.2124 L196.5584 102.0184 L195.8187 102.6509 L194.7134 102.2572 L194.279 101.655 L194.6199 101.2236 L194.477 101.0739 L193.9311 101.5791 L194.0368 102.1341 L194.5746 103.0457 L195.1309 103.4161 L195.9535 103.597 L198.1305 102.3315 L198.5487 102.4748 L199.6583 103.4166 L199.4046 104.2667 L198.2514 104.931 L196.0278 105.8489 L197.0148 107.9305 L198.0335 109.2783 L199.3496 111.3524 L199.4766 111.1375 L200.7247 112.3605 L201.0395 113.4408 L202.06 113.6101 L203.1024 113.3761 L203.651 113.6859 L204.0212 114.4972 L205.0288 115.2533 L205.1741 115.9871 L205.1528 116.852 L204.9146 118.2692 L204.0073 117.9153 L203.8394 118.2612 L201.1882 117.6059 L200.8085 118.6576 L200.5632 118.0909 L200.0458 120.0541 L200.0485 120.2997 L200.1812 120.374 L200.4731 121.9652 L199.7519 122.6481 L199.2905 124.3416 L198.1525 124.096 L197.8846 124.2711 L196.6631 125.4527 L196.3105 125.4543 L195.9592 125.2404 L195.6994 125.8145 L195.4431 125.849 L195.2397 125.7073 L195.1053 125.2797 L194.932 125.1338 L194.198 125.8336 L194.554 126.3085 L194.5226 126.7589 L194.3794 126.9478 L194.1534 127.0741 L192.8468 126.6051 L191.5028 126.6496 L190.9427 127.0486 L189.0048 127.6964 L186.6879 127.8116 L186.1968 128.2631 L185.127 128.9777 L184.4808 129.7582 L182.7584 129.9423 L181.0854 129.7274 L180.805 129.242 L180.4476 129.3215 L179.768 129.6293 L179.2343 129.9943 L178.9266 130.3285 L179.1161 130.5949 L179.1792 131.0634 L178.7347 131.2931 L178.6729 132.4248 L180.6949 135.3502 L179.8862 135.3831 L178.8931 136.5493 L179.669 137.1822 L180.5243 138.1738 L182.1163 141.8557 L182.1166 142.9375 L182.5497 145.8167 L182.3862 146.1164 L182.4831 147.6963 L183.1959 148.3303 L183.6772 148.4401 L184.6109 148.9855 L185.1456 149.5998 L185.3364 149.5006 L185.4455 149.6614 L186.4001 150.1457 L187.9513 150.6216 L187.7354 151.3962 L189.622 151.4423 L189.551 152.0758 L189.9104 151.8222 L191.0825 151.7314 L192.0317 152.3898 L192.175 152.8954 L192.5908 152.6514 L193.1211 152.8996 L193.0147 154.192 L194.1888 153.9299 L194.9266 154.21 L195.4934 155.1702 L196.6986 154.9193 L197.4313 155.2726 L197.843 155.9474 L198.5906 155.9771 L198.9145 156.9707 L199.1834 157.3437 L198.519 158.2524 L197.5785 160.7983 L196.6895 161.3219 L196.8175 161.4068 L196.4017 162.1065 L196.677 163.0624 L198.8996 165.5138 L200.8085 166.2629 L201.1098 166.6602 L200.2586 168.0182 L199.9927 169.1794 L200.6207 169.9417 L200.5389 171.0637 L201.4334 173.1341 L201.5354 175.3005 L201.5104 175.9886 L199.4546 175.5515 L197.8052 174.8841 L195.8926 173.5659 L195.5228 172.9877 L194.1443 172.7071 L193.9598 172.2063 L194.2551 171.4791 L193.7298 171.2584 L193.1005 172.4254 L190.9643 172.3649 L190.2151 172.8615 L188.6667 173.1596 L187.1179 173.2386 L186.9609 172.0758 L186.0765 172.3278 L187.3817 174.6497 L187.2132 176.2071 L187.3959 176.9556 L187.1041 178.0329 L186.5214 178.1417 L186.3339 178.9124 L185.4905 178.9246 L185.5371 179.81 L185.4351 181.5334 L185.9786 180.9192 L186.1579 181.2746 L186.874 181.0751 L187.4692 181.2719 L187.3034 182.7413 L187.8867 183.173 L188.0566 183.6764 L188.0411 184.4238 L188.3154 184.6201 L189.144 185.5744 L189.8915 187.0071 L190.3266 186.9917 L190.8643 186.3345 L190.9724 186.378 L191.3004 186.2167 L192.0125 187.172 L192.4384 186.9827 L193.1218 186.2183 L193.6957 185.7367 L194.3104 186.9657 L195.2684 187.136 L195.4832 187.894 L194.63 188.4976 L194.4216 189.3389 L194.2625 190.4602 L194.0044 191.1386 L193.2633 191.3704 L193.0404 191.9852 L193.847 192.0218 L193.9791 193.5383 L194.5621 194.5111 L194.2561 195.05 L193.1306 196.2111 L192.4786 196.5628 L191.0099 196.9086 L190.4009 196.933 L189.4787 196.7951 L188.7207 196.5766 L186.3937 195.5337 L184.041 195.8101 L183.8569 197.2523 L183.6901 197.7429 L183.7748 198.4765 L182.3869 200.0683 L182.2862 201.0076 L181.8792 202.5246 L181.3026 202.3543 L180.6993 202.4217 L181.3877 203.3075 L182.8483 204.9496 L182.7189 205.07 L182.8115 205.5394 L183.2482 205.8598 L183.534 205.602 L183.9015 205.6248 L184.4619 205.7823 L185.3314 206.1759 L186.3478 206.7975 L186.695 207.391 L187.7371 208.4497 L188.1445 208.0148 L188.663 208.0758 L189.2615 208.6226 L189.8378 209.4357 L189.6469 210.3968 L189.6868 211.1218 L188.9298 213.6067 L188.5295 213.9254 L188.6447 214.4839 L188.3357 214.8907 L187.9648 215.0583 L188.49 216.1414 L189.4821 216.4739 L188.8852 215.7224 L188.7937 215.3691 L188.9673 214.8197 L189.2723 214.7051 L189.4068 214.1901 L190.4847 213.6491 L191.1616 212.9432 L192.7215 213.5934 L193.7014 214.7682 L194.1557 214.3566 L195.0843 213.8772 L195.6174 212.8403 L196.5858 213.1267 L196.403 214.3625 L196.523 215.7362 L197.0263 215.9016 L197.6481 215.437 L198.3274 215.2864 L198.2089 214.7327 L198.4504 214.3641 L199.3367 214.3455 L199.4783 214.8525 L199.7421 215.0795 L200.1164 215.2625 L201.5631 215.7234 L202.1519 216.1986 L201.278 217.0626 L200.4014 217.6932 L200.2353 218.6219 L199.5229 219.7124 L198.977 219.9463 L198.2349 219.3464 L198.2085 219.9054 L198.3055 220.6098 L197.5542 222.6405 L197.0769 222.7339 L196.5513 223.1698 L196.6767 227.3273 L196.9199 228.7858 L196.8972 229.8656 L196.1031 233.2958 L196.1639 234.0871 L195.9943 234.6482 L195.9589 235.4071 L195.3488 236.5664 L197.438 234.7755 L199.9893 232.4293 L200.9409 230.7311 L201.3726 230.1801 L202.213 229.5893 L203.7759 228.6696 L204.8586 228.1685 L205.1747 228.1255 L205.4254 228.2035 L205.7409 228.3196 L205.9172 228.3801 L206.0864 228.4018 L206.8424 228.7757 L207.9247 229.5208 L208.127 230.1085 L207.0738 230.3747 L207.3383 232.4457 L205.4652 234.3613 L205.3784 235.291 L205.7432 236.2875 L205.4936 236.5983 L207.3855 241.6316 L208.529 241.3532 L208.9843 241.6396 L208.6992 242.5395 L208.4033 242.7548 L209.6673 245.2654 L209.2258 245.871 L209.5352 245.9357 L209.8882 246.9979 L210.3375 247.4465 L211.9501 247.9153 L212.8736 248.33 L213.4732 249.4479 L213.5843 250.4783 L214.218 251.4228 L214.2477 252.0454 L214.019 252.8233 L213.4086 253.9544 L213.6765 254.1109 L213.7762 254.3538 L214.2146 254.716 L214.342 255.6588 L214.2612 256.2702 L213.1928 256.2066 L212.0004 256.6913 L211.7643 256.6468 L211.3036 256.1865 L211.0661 256.9262 L211.6177 257.6045 L211.313 259.7405 L210.8665 261.4315 L211.34 262.2126 L212.6588 263.2329 L212.7388 263.4837 L212.473 264.5809 L212.3909 265.7915 L212.4193 266.3414 L212.8999 267.0604 L212.0659 267.3579 L211.6488 267.6761 L211.9332 268.7599 L212.373 269.1772 L212.7932 269.9042 L212.851 270.5575 L212.6361 271.1249 L211.8643 270.8608 L210.5597 269.3772 L210.0139 269.0823 L209.8041 268.665 L208.8566 268.0096 L207.8986 267.955 L205.8875 269.0738 L205.0244 270.4059 L204.9454 270.9552 L204.5981 271.1101 L204.3678 271.7872 L204.2016 273.0551 L204.2418 273.4649 L204.4556 274.2115 L202.6636 273.9469 L201.5604 273.7375 L200.1174 273.072 L199.2479 272.5296 L199.0236 272.1324 L199.002 271.468 L198.1629 269.803 L197.1577 268.2975 L195.5072 266.4352 L194.7823 267.5085 L194.6094 267.6177 L193.8926 267.2709 L193.4727 267.5355 L189.8739 267.5912 L190.4688 269.9313 L191.6051 272.7258 L191.5244 277.0516 L188.7738 277.6582 L188.4596 278.1974 L189.9145 280.6737 L190.9792 280.8609 L191.472 281.3619 L191.6358 281.8768 L191.2734 282.5735 L192.1368 283.135 L192.4378 283.6149 L193.467 284.1223 L194.1196 284.1759 L194.2128 284.4002 L194.6928 284.5715 L195.3535 283.5189 L196.149 284.2788 L196.5743 284.0476 L197.2887 284.44 L197.8234 283.3885 L198.5537 283.4309 L200.5271 284.8785 L200.9676 284.9925 L201.1888 285.2311 L201.4418 285.3541 L201.3364 285.8578 L201.1527 286.2459 L200.6517 286.2666 L198.8513 286.5747 L198.7301 286.8435 L198.2578 286.8446 L197.5816 287.3154 L197.2914 287.15 L196.8523 287.7465 L196.2632 288.0471 L195.8511 288.6086 L195.3725 288.9103 L195.5501 289.6441 L195.4985 290.0773 L195.8802 291.2083 L196.2335 291.0985 L196.6385 291.3716 L196.7787 291.8037 L196.5263 292.2072 L196.8695 292.3244 L197.053 293.0789 L197.991 293.3615 L197.4147 295.2756 L197.3492 298.284 L197.509 298.7675 L197.765 299.0326 L197.8596 299.3831 L197.736 300.6704 L198.596 302.7827 L198.9888 304.2922 L199.4539 304.3553 L199.6046 304.887 L199.3729 305.5026 L198.3994 305.2879 L194.8178 303.8325 L193.8332 302.9561 L189.2987 301.7886 L186.2829 300.7934 L186.495 300.0676 L183.8444 299.5549 L182.1869 299.5766 L180.4365 299.9165 L179.9626 300.4228 L177.2201 300.6937 L177.0127 301.1635 L175.193 301.2414 L174.2506 301.5394 L173.7297 301.9498 L172.288 302.3161 L171.7719 302.7599 L171.0855 304.4507 L171.9141 304.8139 L173.1386 303.5934 L174.3931 302.8453 L175.9189 303.3516 L175.9216 303.6231 L177.2542 303.9518 L178.6557 304.5424 L182.2707 306.4638 L181.9292 307.204 L183.0256 307.9367 L183.5141 309.84 L183.71 311.535 L184.5089 311.7609 L184.2883 313.1817 L181.0225 312.7152 L179.8926 313.1499 L178.1199 313.59 L175.8372 316.1183 L175.1612 317.4681 L175.0423 317.931 L175.0038 318.5089 L175.2004 319.4658 L175.5865 320.1248 L176.0692 320.2743 L178.5418 321.5933 L179.9592 322.063 L180.8101 322.7416 L181.4289 323.899 L182.3166 324.6062 L185.963 325.1612 L187.2101 325.8706 L190.1057 325.8891 L188.6103 331.5547 L188.4846 332.9453 L189.5622 334.9343 L190.615 336.4955 L190.9765 336.7283 L192.6583 338.1914 L195.4863 339.3296 L197.4397 340.4709 L198.5166 340.6225 L199.5289 342.0077 L199.7296 343.3706 L200.2744 343.8594 L200.8385 344.8586 L201.3412 346.379 L201.5921 350.069 L201.8891 350.7703 L202.4826 351.5554 L203.2034 352.0441 L203.6172 352.8392 L203.5844 353.8279 L203.5621 354.4947 L203.7746 356.1692 L203.1017 356.1353 L202.0833 355.813 L201.8715 354.0404 L201.1571 353.495 L200.3673 353.4207 L199.1513 353.6975 L197.6356 354.4343 L196.8138 354.4343 L196.0112 353.9567 L195.4218 353.716 L194.3608 353.5946 L193.439 353.6778 L193.1431 353.8581 L193.0187 354.0701 L193.0238 354.7258 L190.9988 354.8896 L189.1251 354.6272 L188.6677 356.9098 L186.14 357.4769 L185.7854 356.6034 L185.7327 355.4934 L185.0419 355.7409 L180.5675 355.0964 L178.729 354.5779 L178.0537 354.0134 L176.3607 351.6884 L175.5869 351.5283 L173.8652 351.8739 L170.1772 354.2609 L169.7833 354.7476 L169.9066 355.2474 L167.3583 358.2328 L166.9986 358.9696 L168.0397 361.6847 L165.4809 363.8998 L163.1444 361.3937 L162.3881 361.0507 L158.3739 357.8024 L158.1769 356.8992 L158.6921 354.8493 L158.7262 352.9999 L158.9069 352.3452 L163.6511 352.2546 L164.6628 352.1024 L164.5878 351.4377 L164.8381 348.846 L164.2044 346.2798 L163.6484 345.349 L163.2329 343.1448 L163.639 340.9464 L163.6011 340.1348 L161.9855 336.8104 L159.9979 333.662 L157.3179 334.5622 L157.5615 335.7836 L157.5132 337.1624 L157.1403 337.4874 L155.7823 339.2013 L151.7289 338.237 L149.9211 335.8562 L147.7004 334.3003 L147.4089 330.7988 L147.2752 325.3802 L147.1532 323.9986 L147.6268 322.8758 L146.8039 322.4776 L146.556 322.9558 L146.9286 323.891 L146.2061 325.1771 L145.2643 327.6206 L144.3607 329.572 L144.0503 331.3241 L144.8454 331.2679 L144.8107 331.8293 L145.695 334.0882 L146.9073 333.9743 L146.9093 334.3676 L145.2795 336.4362 L143.7449 335.431 L141.0578 334.2775 L141.1048 333.9912 L140.6586 333.7988 L140.6521 333.6154 L139.3334 333.1966 L137.7225 332.5095 L137.5502 331.9264 L136.8402 331.5351 L135.5928 330.5077 L135.5485 330.3084 L134.2815 330.0195 L134.3963 328.6013 L134.1592 328.3601 L133.3205 327.9609 L132.0115 326.4808 L131.4917 326.2947 L131.1765 326.6112 L131.818 326.8148 L132.8911 328.1905 L132.3348 328.4889 L134.7344 331.6088 L135.4891 331.7254 L136.752 332.1575 L137.5263 332.8912 L137.9367 333.1117 L137.9238 333.337 L139.959 334.4439 L141.0122 334.5399 L141.6854 334.9783 L143.524 335.5832 L144.1439 336.5077 L145.5011 337.2419 L142.26 340.8775 L142.9886 341.5995 L143.4818 342.849 L143.6122 343.686 L143.1396 343.597 L143.0129 343.9219 L144.1878 345.8446 L145.4926 348.5153 L145.7983 348.9457 L146.2104 349.7955 L146.4283 350.3992 L146.8215 352.0526 L147.5109 353.6439 L146.7249 354.1448 L145.0751 352.3828 L143.9338 351.3592 L142.7279 350.4061 L142.03 350.7369 L140.947 351.7907 L140.7086 352.1332 L140.6373 352.9829 L140.4133 353.4271 L143.4598 354.4401 L143.8392 354.7735 L144.0645 355.5247 L144.5303 355.821 L145.0518 356.4979 L144.7049 356.6887 L144.0236 357.2824 L144.6836 358.3998 L145.2309 360.0632 L145.0147 361.2097 L144.6404 361.3725 L144.3959 361.3094 L145.3278 362.7931 L145.6301 363.7451 L144.5431 364.4018 L143.2227 365.3771 L144.0364 366.0699 L146.0943 369.0001 L146.8408 369.9409 L147.5491 370.6014 L147.1438 370.992 L144.0435 370.0363 L142.9903 368.8389 L142.5184 369.1018 L141.8263 369.89 L141.8077 370.3024 L142.3441 371.247 L142.2908 371.6763 L141.5469 372.3982 L140.7552 372.4936 L139.7077 372.9834 L136.7466 372.4412 L136.3991 374.0546 L141.1622 373.5797 L141.5372 374.0626 L142.6056 373.5447 L143.4568 372.8827 L144.5479 373.1689 L145.0711 373.47 L147.2934 374.4336 L147.3346 374.6308 L147.4316 375.0967 L147.4201 375.8292 L147.6623 376.0937 L148.6543 376.0879 L149.0438 376.2029 L149.0104 376.337 L150.5179 376.998 L150.5601 376.9275 L151.5566 378.5759 L153.0398 379.9126 L153.888 380.0817 L154.5839 379.5087 L154.9335 379.9004 L155.4246 379.4329 L155.4868 378.0798 L156.188 378.0236 L157.0616 378.1889 L160.457 378.4121 L161.5491 378.5737 L162.3165 378.9935 L164.8536 379.7345 L167.8765 380.254 L169.3709 380.723 L170.9149 381.3665 L173.2352 381.8393 L178.4864 383.2974 L179.1313 383.5846 L180.397 384.3161 L181.3114 385.0708 L181.8701 385.7705 L180.9303 386.5448 L181.6015 387.6944 L181.6691 388.8615 L181.3353 390.3031 L181.6441 390.5846 L182.7115 390.6593 L183.89 390.6026 L184.6571 390.9376 L184.3832 391.8672 L183.7377 393.48 L183.8329 393.8033 L183.4735 395.4596 L183.6755 396.2853 L183.2131 397.5377 L183.3597 398.2415 L182.6098 398.4625 L182.473 398.241 L182.1555 398.1906 L181.4232 398.2903 L179.3721 398.021 L178.0406 398.7577 L176.4094 399.4711 L174.4711 400.6779 L172.9552 402.2419 L172.4944 403.5064 L171.9002 403.5886 L171.405 403.0851 L171.1645 401.8338 L169.508 402.0352 L168.8095 400.2035 L167.5722 399.6698 L166.5723 398.7588 L166.3669 398.3862 L166.7709 397.7491 L166.8125 397.2006 L166.4662 397.1185 L166.0639 397.2896 L164.4469 397.5864 L163.5971 397.4402 L163.5319 398.1864 L164.3044 398.462 L164.3537 399.5257 L164.7054 399.8272 L165.2239 400.8946 L165.4346 403.0247 L165.8981 404.9268 L166.0974 405.3518 L166.5125 405.9417 L166.5223 406.5866 L166.0592 406.6884 L165.687 407.4632 L165.7937 407.9656 L165.4755 408.4744 L164.2899 409.0494 L163.4853 409.722 L162.0297 410.4909 L161.8196 410.0352 L160.961 409.8174 L160.2803 409.4506 L159.0714 408.4734 L158.5789 407.9444 L157.5216 407.3562 L157.0396 407.8188 L157.2078 409.3351 L156.9335 410.3277 L157.1423 411.2302 L157.6402 410.9764 L158.0276 412.1026 L158.0432 412.8572 L157.1656 413.5976 L156.7423 413.7661 L154.9683 412.8631 L152.6463 412.3273 L152.2531 411.703 L152.2721 411.1417 L145.4099 412.4916 L146.0676 413.7582 L145.6511 414.1 L144.5256 413.6707 L144.282 413.799 L146.2358 417.0174 L146.858 417.6703 L147.6268 418.0058 L148.423 418.718 L149.51 419.2787 L151.9248 420.7339 L156.162 422.7737 L156.1941 423.8876 L155.5172 423.9677 L153.6678 423.8707 L152.3491 423.7801 L150.2335 423.4854 L150.2582 423.7557 L148.626 423.7875 L148.6104 423.4091 L146.7712 424.0159 L142.7221 424.2332 L141.0761 424.5999 L140.8457 428.3301 L140.5643 428.6178 L139.1916 432.6437 L138.7089 433.58 L137.3692 431.7767 L137.2695 431.303 L136.6244 431.7947 L136.4075 431.6819 L135.9018 432.2383 L135.3685 432.4179 L134.7152 432.9346 L134.8402 433.8572 L135.0807 434.1455 L134.4659 436.5242 L134.5456 437.025 L134.9125 438.0689 L135.0979 439.3518 L135.2732 439.9464 L136.4974 441.0163 L136.8595 442.42 L136.9976 443.6144 L136.9733 444.2238 L136.7166 445.567 L132.4632 446.1224 L131.0242 446.0922 L127.9375 446.4175 L127.0224 446.4027 L127.1714 447.0709 L127.1953 448.1534 L126.8913 448.8725 L125.7246 449.5894 L124.8548 450.7223 L123.5493 453.217 L122.1684 454.6498 L120.8027 455.3704 L120.3889 456.9828 L118.7753 457.3754 L116.828 456.9145 L116.0098 457.1529 L115.7778 458.0717 L115.6633 459.5166 L115.2059 460.2129 L113.5926 460.3517 L111.7686 461.2074 L109.6696 460.7327 L108.3326 460.7883 L107.9478 461.4284 L106.7227 462.3101 L105.7144 462.7583 L104.4669 464.1497 L101.9751 465.9623 L100.252 467.5159 L99.994 467.892 L100.022 468.2142 L99.6126 468.5024 L98.9134 470.1767 L97.6852 473.6816 L97.5538 476.1342 L96.079 476.5528 L95.697 477.6129 L94.9626 477.5578 L94.2259 477.8286 L93.5783 478.4135 L93.2348 478.2742 L92.8227 477.9738 L92.3089 479.6173 L91.5827 482.8179 L90.0056 482.7072 L89.0574 482.5572 L88.4568 482.5774 L88.2859 483.4844 L90.6001 484.5806 L90.9662 484.8874 L89.1695 492.6225 L82.7509 488.6749 L82.4455 489.2747 L81.7537 489.307 L80.9552 489.121 L78.995 487.6673 L79.9314 486.0196 L77.6996 483.3615 L78.3026 481.9925 L76.766 480.6976 L75.8279 480.2827 L73.5262 478.4485 L72.9733 478.4771 L72.295 478.1513 L71.005 478.2185 L69.8099 478.645 L68.6624 478.1661 L69.8994 475.314 L70.1693 475.1376 L70.7942 475.0677 L71.4607 471.6582 L70.2774 467.9498 L70.3831 467.7024 L70.1723 465.8082 L70.3048 464.1614 L66.959 464.6955 L66.757 463.7767 L67.1951 461.7627 L67.3089 459.9792 L68.0048 457.6971 L65.7058 458.538 L65.0923 458.5756 L65.1011 458.8686 L64.3131 460.357 L62.2911 462.8971 L61.9658 463.5775" stroke-dasharray="" fill="none" fill-opacity="1.0" stroke="#ff0000" stroke-opacity="1.0" stroke-width="1.0px" stroke-linecap="butt" stroke-linejoin="miter" stroke-dashoffset="0.0px"/>
</g>
</svg>