<?xml version="1.0" standalone="no"?>
<!DOCTYPE svg PUBLIC "-//W3C//DTD SVG 1.1//EN" "http://www.w3.org/Graphics/SVG/1.1/DTD/svg11.dtd">
<svg width="512px" height="512px" version="1.1" xmlns="http://www.w3.org/2000/svg" xmlns:inkscape="http://www.inkscape.org/namespaces/inkscape">
<g id="layer" inkscape:groupmode="layer" inkscape:label="layer">
<path d="M35.748 326.1483 L37.2522 326.7767 L38.5947 327.0372 L41.0231 327.1107 L41.6042 326.9454 L45.6703 326.6337 L47.4786 325.8655 L50.1501 325.0751 L50.6206 324.7256 L51.3892 322.3304 L51.82 321.4298 L53.1585 320.1279 L54.4238 319.8284 L55.0231 320.2848 L55.4896 321.1437 L55.8555 322.8659 L55.8504 324.5258 L57.0309 324.445 L57.8003 324.4178 L58.6014 325.5338 L59.3034 326.6643 L60.4376 328.0714 L60.4293 330.1069 L60.1857 332.4586 L57.5971 332.8126 L54.84 332.7046 L53.7218 333.3425 L53.1519 334.2325 L53.7859 337.6701 L54.1383 337.8582 L52.5661 343.5922 L53.4279 344.2384 L54.7424 344.643 L55.0898 344.8768 L55.2988 345.1289 L55.3596 345.2942 L55.3763 345.5842 L54.9125 347.9279 L55.0319 353.1068 L56.2819 356.75 L56.5208 357.7774 L57.1176 359.983 L57.3062 360.0537 L60.9849 359.3135 L62.6526 359.0308 L64.0603 358.4865 L64.9018 358.3173 L65.5204 358.2889 L65.8142 358.3217 L66.3218 358.3345 L68.0773 358.024 L68.5237 358.0273 L68.934 358.1292 L68.9697 358.3523 L69.1591 358.319 L70.1538 361.2141 L65.6344 363.0496 L65.8201 364.1627 L69.5996 366.9398 L69.6677 367.2554 L70.0501 367.9872 L70.3585 368.6623 L70.6243 369.6273 L70.7546 370.7009 L70.9061 372.981 L71.0135 374.6021 L70.9793 379.4961 L70.7794 381.7566 L72.0007 384.6933 L74.4002 380.8072 L76.3559 382.9437 L77.9963 387.3918 L77.1297 392.9678 L77.563 394.7652 L75.9652 398.5915 L73.183 404.9642 L71.9264 410.753 L72.5097 413.0861 L73.901 411.695 L76.6833 407.3425 L78.9794 405.3771 L78.0294 408.24 L75.5162 415.6441 L75.4216 419.4212 L76.2343 420.8946 L77.76 420.2213 L79.4586 419.5464 L80.5874 421.1639 L79.5103 427.6256 L76.1447 428.2543 L73.2725 430.0042 L69.8625 434.0226 L69.225 439.6466 L70.4455 445.127 L71.2979 448.2683 L74.0354 448.1337 L74.6638 451.5442 L74.9377 454.5569 L76.7051 455.0254 L79.1294 455.9561 L84.3691 458.5193 L84.6335 458.8264 L84.612 463.0947 L86.4778 463.0752 L87.3964 463.2549 L88.527 463.1792 L89.6445 463.2349 L90.1299 463.2299 L90.8265 463.1241 L91.2299 462.9906 L91.3231 462.8065 L91.2226 462.5528 L91.1134 462.2779 L90.6783 461.8785 L89.895 461.2248 L89.4486 460.5399 L88.7998 459.2292 L88.6006 458.3835 L88.9494 457.934 L89.3503 457.7053 L90.3003 457.164 L93.1164 456.3067 L94.1822 455.8048 L95.0994 455.0048 L96.2868 454.2504 L97.1942 453.7608 L97.8128 453.4742 L98.1606 452.7298 L98.1591 452.2597 L97.6366 451.6677 L97.1338 451.2877 L96.7096 451.3161 L96.0665 451.5676 L94.9166 452.0772 L93.88 452.5668 L93.048 452.9913 L92.2371 453.2183 L91.6384 452.978 L91.3093 452.7777 L91.1651 452.1985 L91.0114 452.0015 L90.8203 452.1 L90.7828 452.2892 L90.7966 452.5996 L90.5716 452.7665 L89.3922 452.9073 L88.6829 453.1999 L87.7311 453.9221 L86.6107 454.6682 L86.1362 454.7956 L85.7553 454.7411 L85.3814 454.6003 L84.8873 454.3505 L84.4216 454.0873 L83.0255 453.5944 L81.4882 452.559 L79.6104 452.6797 L78.8629 452.564 L77.3813 451.9342 L75.6229 451.6171 L75.2439 451.2605 L75.2625 450.7614 L75.521 450.1538 L75.8698 448.882 L76.1451 448.6427 L76.728 448.5331 L78.4671 448.7518 L79.1556 448.9337 L80.5812 449.1212 L81.7773 449.1095 L82.4047 449.2264 L83.4767 449.3215 L84.0218 449.4267 L85.2499 449.1657 L86.0674 449.1852 L87.2927 449.2147 L87.8516 449.228 L89.0703 448.867 L89.9518 448.4241 L91.4425 447.7097 L91.8252 447.6741 L92.1985 447.7559 L93.0003 447.9156 L93.9004 447.7909 L94.9698 447.3286 L95.4504 447.1628 L95.8535 447.2963 L96.112 447.3269 L96.3269 447.2118 L96.4816 447.0332 L96.656 446.7132 L96.9102 446.5385 L97.3588 446.4562 L97.8868 446.5324 L98.7545 446.3755 L99.0505 446.3221 L99.6553 446.4634 L99.8326 446.5052 L100.1975 447.0243 L101.2851 450.6807 L102.8177 457.1479 L103.8034 456.9559 L106.231 456.4836 L106.5798 456.5793 L106.7101 456.7584 L106.9537 457.0939 L106.4746 457.273 L106.4261 457.6625 L106.5601 457.7354 L109.279 457.1523 L110.9857 456.917 L111.5471 457.8845 L111.6928 458.5371 L111.644 458.9254 L111.1055 459.5329 L110.7362 459.8295 L108.8428 460.1026 L107.71 460.314 L107.4034 460.4637 L107.3321 460.9984 L107.9012 461.0751 L108.5657 461.0106 L110.5218 460.699 L110.6882 460.7636 L110.7985 460.9294 L110.6394 461.3722 L110.8054 461.7845 L111.0399 462.0187 L111.3348 462.0599 L111.522 462.0549 L111.7099 462.0498 L112.0263 462.1461 L112.1894 462.1956 L112.3548 462.3558 L112.6806 462.7503 L112.9974 462.9639 L114.7113 462.6424 L115.2302 462.7297 L115.6632 463.0707 L115.8474 463.33 L116.2822 463.8018 L116.4784 464.2407 L116.4289 464.7832 L115.9952 465.1854 L114.3687 465.7401 L111.5748 466.243 L111.4069 466.0989 L111.2697 465.9804 L110.722 464.9595 L110.651 464.8271 L110.4748 464.7631 L110.0524 465.1247 L109.9723 465.6127 L109.8962 466.3504 L109.0318 466.6975 L107.8659 466.9829 L107.1868 467.0613 L107.0029 467.2394 L107.0415 467.6527 L107.4042 467.9404 L107.7282 468.4077 L107.722 468.475 L107.9369 468.5857 L108.687 468.574 L109.3722 468.4984 L110.3098 468.4811 L111.2027 468.3621 L111.6065 468.1595 L112.1021 468.0655 L112.6533 468.0611 L113.0007 468.1345 L113.3244 468.3398 L113.615 468.8066 L113.619 469.1009 L113.4202 469.3662 L113.1507 469.4975 L112.4258 469.7774 L112.1563 469.9086 L111.9029 470.3326 L111.798 470.7192 L111.762 471.2049 L111.7521 471.3273 L111.7507 471.3473 L111.6808 471.7306 L111.5162 472.0989 L111.2391 472.278 L110.9576 472.4104 L110.6689 472.3314 L110.398 472.1918 L110.3907 472.1746 L110.2188 471.6555 L110.1951 471.626 L110.0327 471.4263 L109.8052 471.2472 L109.5969 471.0413 L109.5561 470.7637 L109.4349 470.5523 L109.2976 470.5885 L109.0726 470.8216 L108.4153 470.9423 L106.4822 471.359 L106.18 471.3874 L105.9648 471.3484 L105.6866 471.3863 L105.2904 471.5415 L104.958 471.631 L104.457 471.6666 L104.1937 471.6088 L103.8871 471.3434 L103.4476 471.0313 L103.0402 470.7103 L103.0187 470.7187 L102.5752 470.8004 L102.2347 471.018 L102.1743 471.6566 L101.8233 473.107 L101.5163 474.5423 L101.1304 475.9904 L100.8489 476.4087 L100.5955 476.4326 L100.3544 476.2646 L100.1283 475.8835 L99.8982 475.2972 L99.5952 474.6274 L99.0184 473.7412 L100.0784 480.4503 L100.7214 486.2191 L101.6194 493.6962 L102.364 495.2894 L103.4356 501.8912 L104.4198 504.8183 L103.831 506.0821 L105.8006 507.9244 L107.8542 506.5949 L108.7336 506.8452 L109.0962 506.8313 L109.4574 506.8931 L109.7757 507.1417 L115.5736 508.7921 L127.4651 504.1852 L130.7716 502.5743 L132.022 502.3362 L134.762 501.311 L134.8979 501.311 L135.8824 501.2409 L136.0616 498.9686 L136.1868 497.8916 L136.3059 497.6647 L136.4541 497.4533 L137.2941 496.0648 L137.6007 495.8601 L137.8764 495.809 L138.55 495.9925 L139.0856 496.4192 L141.6512 498.1486 L141.9574 498.2104 L142.8841 498.3144 L143.7027 498.4991 L144.2427 498.6493 L144.5973 498.7973 L145.0656 498.879 L145.4144 499.017 L146.6721 499.6127 L147.136 499.7001 L147.6872 499.7034 L148.2633 499.7001 L149.0396 499.9137 L149.6761 500.08 L150.1673 500.1345 L150.6694 499.9999 L151.2596 499.8163 L151.5477 499.6789 L151.8149 499.5933 L152.0975 499.6673 L152.5552 499.7952 L153.0784 500.0327 L153.8209 500.5812 L154.0426 500.9728 L154.1391 501.4712 L153.6891 502.2366 L153.2314 502.9676 L152.7474 503.4198 L152.1139 504.2025 L151.9267 504.4511 L151.6926 504.6291 L151.3791 504.7037 L149.9149 504.3132 L149.5639 504.2002 L148.7082 503.9438 L147.0624 503.3742 L146.8217 503.1055 L146.5282 502.6961 L145.9253 502.1393 L145.3904 501.612 L145.1825 501.37 L145.0852 501.0774 L144.9836 500.7403 L144.9887 500.4182 L145.0186 499.9888 L145.0029 499.764 L144.8205 499.6906 L144.6847 499.7385 L144.5842 500.2703 L144.6304 500.7687 L144.68 501.0301 L144.8631 501.4901 L145.2007 501.9963 L145.7986 502.3373 L146.2107 502.8363 L146.2734 503.0816 L146.234 503.1956 L146.0826 503.451 L146.5297 504.0022 L147.176 504.6497 L147.3155 504.8577 L147.444 505.1626 L148.1686 505.627 L148.7862 505.8557 L149.7882 505.968 L150.976 506.2934 L152.6994 506.9415 L155.2457 507.8732 L156.0984 508.316 L156.2892 508.5346 L156.3227 508.7031 L156.3297 508.8071 L156.2747 508.9178 L156.1793 509.0736 L156.2394 509.2371 L156.4553 509.4585 L156.6967 509.6315 L157.0091 509.7583 L157.5283 510.1166 L158.2296 510.4581 L160.1883 511.1384 L160.8699 511.2507 L161.3338 511.4432 L161.7256 511.6179 L161.9936 511.8036 L162.1876 511.9511 L162.3675 512.0 L162.7054 511.9733 L162.9559 511.9193 L163.1802 511.7981 L160.3892 508.623 L157.8389 507.6407 L155.9532 506.2907 L156.2805 506.0031 L159.4684 505.177 L162.5867 504.4628 L164.3192 504.4155 L167.932 505.3028 L169.469 506.0203 L170.0902 506.2912 L170.8596 504.9334 L170.7095 504.0189 L169.1973 502.3345 L164.2253 497.8232 L164.0545 496.9098 L163.6554 496.2328 L162.9905 495.5981 L162.8594 494.8872 L163.3641 494.5907 L163.8957 494.4694 L165.3755 493.9777 L166.2097 493.1533 L167.605 490.7924 L171.0849 490.7869 L171.7986 486.7766 L174.2783 484.6254 L159.472 481.9518 L160.5243 478.5806 L167.4499 475.137 L169.6456 474.0911 L170.68 473.3657 L167.2664 472.722 L167.1685 471.5454 L171.1388 471.3495 L170.4037 467.2811 L168.63 467.2761 L170.7998 464.8115 L171.5791 462.0521 L168.4003 459.3037 L165.1924 451.6037 L167.5337 450.8248 L166.5469 449.1279 L165.5601 447.431 L159.2681 448.7774 L158.1284 445.8008 L163.0004 444.4766 L162.3631 441.6001 L165.7313 440.237 L165.1061 438.3213 L162.7018 438.9628 L159.5121 439.0741 L163.39 436.9209 L161.4965 434.3781 L151.9857 440.3649 L148.8907 440.7322 L148.075 439.3968 L153.8646 436.7039 L151.5269 430.1884 L153.5332 429.3983 L153.2274 426.7498 L154.6256 425.6147 L151.6442 418.4196 L151.5764 416.807 L156.5776 416.5778 L161.0119 392.6573 L162.7163 391.6572 L164.2092 390.285 L165.9294 389.1241 L166.2727 387.8097 L166.2458 385.9009 L170.2646 385.7946 L171.164 391.5599 L170.25 398.833 L167.9233 404.9208 L167.2526 405.9808 L167.1867 406.9797 L166.6033 410.8398 L165.63 412.5586 L163.2148 414.2808 L163.5036 417.97 L163.0717 422.6367 L165.7258 432.1025 L167.7776 433.4896 L173.2424 446.938 L177.8824 452.8934 L179.739 451.4257 L180.8423 451.1809 L183.1909 454.8585 L187.8953 450.2796 L188.2048 447.6424 L191.5322 446.592 L193.4911 444.0582 L187.5895 440.5374 L188.6272 438.6179 L193.4154 439.7307 L193.6936 437.8935 L196.4682 430.8984 L197.7044 428.6321 L198.133 422.5065 L200.8832 413.5914 L204.1679 403.5185 L207.6318 394.187 L209.034 392.4842 L211.529 387.1714 L211.4157 387.182 L211.1685 387.0456 L210.9253 386.8842 L210.4293 386.1441 L210.2025 386.0244 L210.0652 386.0172 L209.9349 386.0484 L209.7615 386.2298 L209.3479 386.9132 L209.0824 387.4557 L208.9674 388.1925 L208.4755 389.1208 L208.0902 389.5587 L207.5753 390.3306 L206.9633 391.1319 L206.4353 392.1358 L205.9863 392.8615 L204.4432 392.433 L203.9982 392.2822 L203.6563 392.1664 L203.6723 392.1214 L204.5754 389.5693 L204.8368 389.5192 L205.0829 389.4391 L205.1277 389.3078 L205.1081 389.0935 L205.3608 388.8793 L205.5439 388.8047 L205.5239 388.724 L205.4216 388.7145 L205.2359 388.7635 L205.0687 388.9444 L204.8739 389.0323 L204.705 389.0546 L204.4235 389.1636 L203.6549 388.9433 L203.538 388.8459 L203.4921 388.6912 L203.4677 388.3628 L203.6345 387.6989 L203.8333 387.2476 L204.1191 386.7061 L204.6864 385.7707 L205.1113 384.897 L205.3924 384.8513 L205.5334 384.8001 L205.6389 384.7078 L206.1935 383.76 L206.5482 383.4256 L206.6108 383.1607 L206.5416 383.0973 L206.1906 383.0032 L205.6564 382.996 L205.6142 382.9425 L205.6091 382.8858 L206.0235 380.6898 L206.298 380.2975 L206.4906 379.8923 L206.6366 379.5217 L206.6891 379.0598 L206.6647 378.4187 L206.8442 377.708 L207.0958 375.8298 L207.4614 373.6421 L207.5317 373.5508 L207.6183 373.5297 L208.2967 373.7334 L208.3702 373.7072 L208.4227 373.5881 L208.4962 373.562 L209.1163 373.5486 L209.6679 373.4685 L210.1599 373.4512 L210.2921 373.3755 L210.3987 373.0221 L210.4148 372.5118 L210.5207 372.0822 L210.6365 371.9636 L210.9635 372.0031 L211.1317 372.1078 L211.2763 372.3677 L211.3415 372.5908 L211.5847 373.0583 L211.8148 373.3855 L211.8742 373.6855 L212.1039 373.9755 L212.239 373.9949 L212.874 374.3706 L212.8784 374.4624 L212.7717 374.5426 L212.5736 374.6628 L212.2008 374.8119 L212.1057 375.0178 L212.1385 375.1675 L212.2481 375.2527 L212.5267 375.182 L212.7153 375.0946 L212.8973 374.8742 L212.7637 375.4146 L212.5795 375.4764 L212.5088 375.6734 L212.5103 375.8259 L212.5751 375.9088 L212.6516 376.1871 L212.4768 376.6239 L212.2547 376.7592 L212.0442 377.1537 L211.699 377.9429 L211.6499 378.3035 L211.7369 378.5556 L211.6415 378.8951 L211.458 379.1032 L211.316 379.4154 L211.3549 379.8378 L211.1918 379.8528 L210.9813 379.8406 L210.8146 379.8879 L210.7021 379.9747 L210.6026 380.4739 L210.2586 380.7983 L210.0685 381.1406 L210.0554 381.5424 L209.9447 381.9214 L210.0237 382.0916 L210.1821 382.09 L210.3671 381.9642 L210.8073 381.3131 L210.9376 381.2819 L211.0261 381.553 L210.9333 381.8479 L210.4727 382.7622 L210.291 383.1924 L210.2524 383.3232 L210.3124 383.6293 L210.1715 384.0238 L209.8198 384.1963 L209.645 384.2253 L209.1713 383.9008 L208.8745 383.8457 L208.5425 384.163 L208.4343 384.2937 L208.6044 384.4879 L208.8567 384.5408 L209.1389 384.7812 L209.456 384.8536 L209.7881 384.8797 L210.0252 384.9721 L210.1712 384.9771 L210.2578 384.8936 L210.5083 384.3522 L210.7057 383.7005 L211.628 381.086 L211.8545 380.4973 L212.0453 379.7454 L212.219 378.865 L212.2306 378.6179 L212.2874 378.4092 L212.4837 377.9907 L212.5835 377.6095 L212.6293 377.1053 L212.7182 376.7664 L212.889 375.8732 L213.0383 375.2299 L213.0128 375.0223 L213.0157 374.7807 L213.051 374.5481 L213.1672 374.3656 L213.2181 374.094 L213.3405 373.9109 L213.374 373.7935 L213.3201 373.6905 L213.1588 373.5909 L212.9327 373.4863 L212.7018 373.1757 L212.6122 372.7917 L212.7044 372.2107 L212.8019 371.8968 L213.3186 371.1171 L213.485 370.6947 L213.4322 370.5261 L213.4632 370.4532 L213.6511 370.3592 L213.9373 370.3007 L214.0494 370.3475 L214.2624 370.7526 L214.2355 371.0554 L214.2897 371.1583 L214.3749 371.1884 L214.4558 371.1745 L214.6608 370.9903 L214.9936 370.8188 L215.2259 370.6575 L215.4873 370.5078 L215.8915 370.4849 L215.7553 370.3631 L215.381 370.2913 L215.0023 370.249 L214.8097 369.9262 L214.3571 369.3162 L211.3374 369.9707 L212.1276 364.0736 L211.1954 361.1629 L198.5058 351.7738 L198.5022 347.4715 L200.1407 347.1654 L206.2874 348.5067 L210.0335 346.5893 L210.6875 346.2738 L210.4821 343.0823 L211.1095 342.7896 L212.1017 342.769 L213.0758 344.8189 L214.3014 345.2341 L218.3577 346.1858 L219.0896 347.7609 L219.2644 350.1932 L217.4947 350.2711 L217.1779 352.4695 L216.8211 355.3915 L216.7446 362.4541 L215.4411 362.827 L216.2567 364.4187 L219.0495 367.9249 L218.3005 368.787 L221.0963 371.9825 L221.6177 373.7512 L221.6279 376.3468 L227.5714 375.5243 L227.4869 374.2476 L227.2033 372.7561 L226.9531 370.8144 L226.9648 369.7525 L227.0016 369.6652 L226.9459 367.0099 L226.3979 366.9404 L226.0891 366.6376 L225.9409 366.3349 L225.3663 365.8156 L225.2061 364.9508 L224.8755 364.4137 L224.8573 364.003 L224.6402 363.7169 L224.5634 363.4826 L224.4848 363.1737 L224.1043 363.3952 L223.8985 363.7158 L223.9426 364.1388 L223.94 364.486 L223.8953 364.7615 L223.4467 364.4115 L223.0942 363.9067 L222.2553 363.0196 L221.0253 362.5114 L219.3838 362.3779 L219.2571 362.0378 L220.0388 360.849 L220.5395 359.7114 L222.0714 357.6861 L222.3689 357.3628 L222.5367 357.2259 L222.5975 357.099 L222.7865 356.9181 L222.9606 356.6354 L223.3349 356.3994 L223.8239 356.1078 L224.3591 355.8261 L224.7793 355.4955 L225.0182 355.2067 L225.1926 354.9796 L225.4049 354.777 L226.124 354.3468 L226.7918 353.9004 L227.5099 353.1875 L228.1511 352.6176 L228.5997 352.2129 L228.9565 352.0599 L229.3673 351.7849 L230.042 351.4961 L230.9443 351.2256 L231.5032 351.2 L231.8247 351.264 L232.8253 350.9072 L233.3784 350.7703 L234.4176 350.9017 L234.6263 350.8822 L234.9605 350.7553 L235.5286 350.0189 L235.7915 349.828 L237.0266 349.1451 L237.5451 348.8451 L238.096 348.5173 L238.5919 348.2452 L239.1294 347.9335 L239.7196 347.5416 L240.2421 347.2316 L240.6612 346.886 L241.2697 346.3111 L241.6127 346.0127 L242.5219 345.3298 L242.8077 344.9174 L243.1536 344.5773 L243.2621 344.3408 L243.3754 343.4001 L243.4234 342.7829 L243.5316 342.0588 L243.4835 341.5406 L243.3277 341.1577 L243.4325 340.7207 L243.1777 340.2421 L243.1857 339.9499 L243.4307 339.7256 L244.2176 339.1845 L244.5573 338.9569 L244.6385 338.4265 L244.6789 338.0007 L244.4932 337.5654 L244.4761 337.3812 L244.4801 337.1547 L244.6021 337.0077 L244.7437 336.9693 L244.9353 336.9259 L245.3314 336.8741 L245.7116 336.8636 L246.0553 336.9526 L247.0166 337.0489 L248.3562 337.0595 L249.6798 337.1725 L250.9036 337.1791 L252.0782 337.2554 L253.4419 337.4196 L254.7003 337.5287 L255.1576 337.5966 L255.7934 337.7485 L256.2092 337.9105 L256.652 338.1459 L256.9698 338.3825 L257.4137 338.7382 L257.733 339.0454 L257.9781 339.2586 L258.6095 339.7979 L260.6952 338.6747 L261.4285 338.658 L279.9564 338.7087 L280.48 338.9513 L281.6824 340.0167 L283.5117 342.1139 L276.9004 342.0248 L274.7105 345.9203 L287.8939 346.3751 L287.7701 344.6864 L287.1398 343.5198 L291.332 341.225 L291.7998 339.7467 L292.0558 335.5773 L291.6039 332.6518 L291.0851 332.2933 L292.1629 326.4327 L290.2589 322.6483 L290.8506 320.8826 L291.8847 319.2462 L290.3881 317.7321 L292.243 314.7057 L293.86 313.1192 L295.9698 311.6263 L297.1896 309.958 L300.2737 307.0417 L303.2354 308.6616 L305.1806 313.161 L308.4558 312.5047 L308.8658 307.1525 L309.3935 307.2304 L316.8634 309.3992 L319.7327 310.98 L321.2365 304.6063 L322.2961 304.6063 L322.4017 306.5046 L324.0876 307.4286 L328.6573 320.8826 L336.5041 320.0533 L335.6302 316.4407 L338.1244 315.3831 L337.2433 312.7224 L339.956 311.7037 L340.768 311.0747 L339.144 310.6572 L332.7136 302.3185 L336.231 301.194 L333.2853 300.4536 L330.2048 295.7386 L332.6808 294.5195 L331.5812 292.6045 L331.7924 292.0756 L337.9751 290.567 L340.6915 292.1814 L347.4532 301.7896 L348.0722 305.0906 L350.0836 310.6616 L350.3822 311.0107 L351.5969 309.555 L349.867 305.7792 L350.5147 304.0603 L352.5538 302.7014 L353.4554 302.078 L354.0292 301.7835 L353.6396 300.3968 L353.6415 299.7066 L354.4553 298.989 L355.461 298.6483 L355.4999 298.1958 L355.856 298.11 L356.7066 299.2679 L357.2539 299.6314 L358.1897 300.9607 L358.383 302.3708 L357.8434 303.9829 L357.3748 304.1766 L357.433 304.6503 L358.008 305.4185 L361.7523 306.2374 L362.8701 306.1205 L365.1095 305.9201 L364.7016 301.6282 L382.052 303.6266 L381.398 300.0695 L380.55 298.6417 L379.6554 298.6494 L376.6375 298.5231 L375.0063 298.1713 L376.3754 297.0579 L375.5925 295.36 L379.0553 295.7553 L379.2446 294.4304 L371.9149 294.0184 L373.0072 292.9162 L378.3853 292.9106 L375.8984 291.1459 L370.0542 290.9622 L369.4643 286.7314 L380.1695 288.0006 L381.5641 288.3625 L381.6697 286.0633 L382.5108 285.5901 L383.3519 285.1169 L384.2149 285.9798 L383.9891 284.6159 L391.4645 278.6035 L395.2539 280.8298 L398.0653 279.6072 L400.1466 281.9304 L405.9387 280.0504 L407.6246 282.4999 L410.3988 284.4656 L396.5997 288.844 L395.4375 290.8871 L395.6112 292.0823 L411.2436 289.0138 L412.3105 291.8184 L410.172 291.9938 L414.445 301.1506 L410.9643 303.5125 L411.0171 304.284 L413.8463 305.1023 L416.0074 307.3702 L412.7656 307.4397 L409.699 310.2803 L405.3547 313.3937 L400.0771 314.5365 L396.8827 315.8006 L395.8908 317.4176 L395.5158 320.8342 L397.4798 321.8567 L399.3558 322.2998 L399.6718 323.2483 L399.4479 326.0092 L400.2839 327.4001 L396.362 330.3452 L395.3279 331.1801 L395.1276 332.644 L401.9039 335.9502 L399.9122 338.555 L393.6711 336.1283 L393.1067 339.0226 L398.5977 340.5699 L398.1789 341.338 L393.1322 339.7461 L392.5678 341.0597 L393.4891 341.1933 L392.2547 343.8927 L391.6903 344.4604 L391.3335 347.3212 L392.8045 347.8889 L389.9716 351.4955 L389.1305 351.7293 L390.1712 352.0554 L391.3735 352.799 L392.9938 351.9129 L393.3689 353.6255 L395.0883 352.5307 L395.7473 352.0282 L396.2731 351.7888 L396.591 352.7823 L396.7865 352.7205 L396.8208 353.6528 L399.8663 353.5737 L398.7167 355.6575 L399.2695 356.2925 L396.5753 360.5034 L394.8447 363.4347 L396.1227 364.4788 L398.4302 364.2133 L400.9153 362.3495 L402.6405 364.8022 L403.1208 366.5074 L399.8539 371.7649 L397.9495 371.3976 L396.8572 371.8929 L396.3875 371.6815 L394.4321 372.5163 L393.2815 373.2898 L394.2137 376.2616 L394.0243 377.3079 L392.9028 378.3486 L394.0352 380.4577 L392.9684 386.596 L396.402 391.9049 L395.8813 393.5465 L391.3335 397.3584 L389.9935 400.8586 L385.8425 402.6226 L384.3605 401.7211 L384.5899 402.8285 L383.0206 405.0766 L382.0374 406.5512 L382.2814 410.0457 L382.2596 413.8295 L382.8647 413.2286 L383.0388 412.996 L382.9692 412.0706 L382.9678 410.8147 L383.325 407.6279 L382.9321 407.5495 L383.4025 405.7482 L385.1798 404.2252 L386.4914 404.1985 L387.5098 403.415 L388.3575 403.6292 L388.0207 405.9035 L388.4405 406.1428 L389.0257 406.0231 L389.3224 405.9252 L389.7026 405.3487 L390.2196 404.9497 L390.4938 404.6576 L390.8652 404.2897 L391.2876 404.075 L391.5803 403.854 L391.9583 403.6454 L392.3078 403.4673 L392.5642 403.3682 L392.7659 403.3293 L392.9745 403.637 L393.1049 404.0722 L393.2658 404.4589 L393.4734 404.7516 L393.6678 404.849 L394.0094 404.913 L394.3651 405.1311 L394.6481 406.0242 L394.9641 406.8995 L395.16 407.4999 L395.2456 408.4314 L395.3348 409.1821 L395.3916 409.7948 L395.3333 410.0869 L395.2623 410.6762 L395.0304 411.0946 L394.9058 411.3778 L394.7704 411.8625 L394.7941 412.7194 L394.8509 413.3326 L394.8723 413.6771 L394.9139 414.1256 L394.9648 414.4628 L394.9874 415.0888 L395.0624 415.6296 L395.109 415.9167 L395.1997 416.1393 L395.3341 416.4537 L395.4804 416.9022 L396.4228 418.3806 L398.2834 418.5019 L398.3395 417.0441 L398.456 415.9768 L398.4888 415.6736 L398.7131 415.1155 L398.8933 414.6264 L399.1508 414.4266 L399.374 414.3504 L399.7589 414.2847 L399.9318 413.987 L400.4063 413.8073 L400.9969 413.0388 L401.1385 412.5636 L401.4466 411.9371 L401.6869 411.5531 L402.0011 410.9961 L402.2869 410.9444 L402.56 411.0251 L402.796 411.1386 L402.9121 411.2031 L403.0618 411.1942 L403.3422 410.8114 L404.4229 409.3796 L404.8587 408.1354 L405.4934 407.6224 L406.2227 406.9969 L406.9601 405.8629 L407.1167 405.3359 L407.3362 405.16 L407.5991 405.1306 L407.7182 405.2802 L407.8573 405.4333 L408.0557 405.465 L408.3375 405.3131 L408.6161 405.2374 L409.2071 405.288 L409.7259 405.3203 L410.1997 405.3465 L410.4069 405.3676 L410.6111 405.2986 L410.8292 405.2179 L411.1187 405.0454 L411.355 404.943 L411.7854 404.8829 L412.3578 404.8401 L413.1643 404.7856 L413.5969 404.6954 L414.3215 404.2363 L415.1856 403.553 L415.7438 402.9787 L416.0941 402.3182 L416.3191 401.7695 L416.4451 401.6671 L416.5463 401.7884 L416.6526 402.0199 L416.8838 402.4612 L417.0386 402.6727 L417.0899 402.9042 L417.0065 403.3037 L416.7462 403.9058 L416.0748 404.8829 L415.9655 405.3303 L415.0989 406.0938 L412.7758 407.259 L411.1493 408.5299 L409.7329 409.6362 L408.244 411.2615 L406.5337 413.3098 L405.836 414.1684 L405.0921 415.0665 L404.6224 415.6992 L403.4809 415.8489 L403.1543 416.0052 L402.9897 416.176 L402.7341 416.23 L401.9119 418.0267 L401.9421 418.8063 L402.1493 418.9588 L404.0486 418.2488 L405.836 418.4424 L405.7745 419.4468 L407.227 420.0037 L409.7587 421.9373 L410.3089 420.7877 L410.7371 421.007 L411.3357 422.1048 L410.9742 422.9361 L412.313 424.1051 L412.8039 423.0045 L414.2272 419.8251 L415.5049 420.144 L413.9643 423.5765 L415.1503 424.1213 L416.0813 424.7567 L416.2867 424.5369 L416.3628 424.439 L416.4917 424.3166 L416.7007 424.2971 L416.9334 424.3761 L417.1151 424.4451 L417.6773 424.1869 L418.2416 423.8931 L418.9116 423.9315 L419.3278 423.5014 L419.6064 422.1738 L419.665 421.4326 L421.3833 420.9864 L421.3545 421.786 L423.4286 418.2098 L425.5678 413.361 L426.8243 410.9583 L426.8258 409.1582 L426.6721 408.6301 L426.0051 407.6062 L425.8216 407.2868 L425.4673 406.7014 L425.2903 406.2396 L425.1392 404.8824 L424.9131 403.9486 L424.9291 403.4144 L424.9808 403.0527 L425.0806 402.8825 L425.2098 402.6549 L425.4145 402.4295 L425.7069 402.2314 L426.13 401.9815 L426.446 401.7662 L426.8007 401.5926 L427.0785 401.5069 L427.5519 401.4228 L427.7765 401.3616 L427.9844 401.2771 L428.1334 401.208 L428.2302 401.1735 L428.3391 401.1919 L428.7505 401.661 L429.9066 403.3376 L429.8713 404.5196 L430.4619 406.1728 L433.6207 407.4794 L436.3388 405.1595 L436.8464 405.4566 L437.2855 405.2124 L437.8714 405.3882 L438.0913 405.9819 L442.2012 409.7619 L443.7341 408.2651 L445.7004 402.4612 L448.7954 401.0979 L452.8044 397.5532 L457.9057 399.8069 L461.4159 398.1041 L462.399 395.3773 L461.3248 394.359 L455.2003 386.2064 L448.2893 389.2337 L446.2502 386.173 L437.9482 393.2015 L441.3673 397.3361 L440.1439 399.4952 L436.0002 396.2454 L434.307 396.7129 L430.8989 393.1347 L427.1047 395.4052 L426.2782 393.8248 L425.9869 393.0512 L428.9799 389.4452 L430.5821 390.8809 L432.9052 386.7351 L436.3061 387.2749 L442.1684 383.4072 L441.2581 381.6654 L439.9327 379.2724 L443.1843 375.4603 L442.2631 374.5364 L435.5924 377.3023 L429.2093 385.06 L423.296 381.9047 L428.0624 377.5082 L429.5152 376.0947 L430.3126 375.4269 L429.3441 374.8982 L430.4656 371.6982 L429.0819 370.5851 L435.0571 365.4372 L436.8668 366.8563 L437.8791 366.5113 L437.3292 364.6413 L439.1681 357.4786 L439.8927 363.6006 L441.8625 365.682 L444.557 365.9714 L443.3591 367.1402 L444.5061 368.0529 L444.3204 366.9732 L446.8219 366.3833 L448.2128 366.3833 L455.7938 375.0707 L458.3172 375.3768 L452.626 368.1141 L454.4215 368.088 L454.4793 366.1718 L455.3918 363.8048 L456.8043 362.2354 L457.9946 361.9899 L459.2024 362.2354 L460.795 361.7801 L461.3241 361.1251 L461.2764 360.7527 L460.9352 360.3275 L460.2175 359.4521 L460.4276 358.9445 L461.2677 359.0319 L461.5302 358.5243 L461.0576 357.8069 L461.2502 357.0366 L461.7403 356.1962 L461.8277 355.6714 L461.4253 355.1115 L460.8828 354.7787 L460.7251 355.5139 L460.0074 356.2664 L458.9748 355.4788 L458.1872 358.0869 L457.1367 358.9618 L454.8264 360.2574 L455.4039 360.6949 L454.7932 361.1835 L452.8186 363.0312 L451.1356 363.8238 L450.4631 365.5707 L447.5865 362.3873 L454.5085 354.2004 L455.6296 351.9486 L457.2853 350.5917 L457.2976 349.8492 L453.5028 352.4762 L451.8915 353.2854 L451.4309 352.2625 L451.1917 352.12 L450.951 352.2458 L450.8272 354.3746 L449.4162 355.8595 L449.3667 353.4836 L450.431 351.7755 L449.7876 350.8349 L446.3962 352.9387 L447.1143 357.6422 L440.7338 362.852 L439.7252 361.3355 L439.9145 360.2502 L440.0055 353.232 L438.1303 347.1821 L438.7602 344.978 L439.8235 344.3602 L438.2505 343.5087 L438.8731 342.4679 L435.88 336.0671 L438.4871 332.5827 L441.0214 330.0112 L438.083 330.9073 L437.453 326.9777 L442.6381 322.6249 L440.8467 320.7713 L440.4607 318.0661 L447.6448 315.2328 L452.4476 313.6408 L453.3943 313.407 L455.386 312.8893 L457.192 313.4237 L456.777 312.2882 L449.0212 312.984 L448.2165 310.4457 L442.0155 312.1156 L437.3839 304.4059 L434.7258 305.1797 L427.5235 300.7542 L431.3467 306.4545 L429.2239 308.0075 L423.3543 299.5017 L424.6323 297.6647 L423.347 293.6622 L424.8071 292.8216 L424.3775 291.0903 L423.9114 289.6484 L421.9997 290.2218 L417.7941 282.943 L416.7189 280.8999 L416.8624 280.219 L416.6563 279.2782 L415.9754 279.3049 L415.6167 279.6634 L415.873 280.5787 L415.5541 281.5991 L414.6008 283.1958 L412.4088 279.767 L411.2574 276.4473 L411.4384 275.6206 L411.9941 275.1368 L413.5172 273.264 L414.4581 272.96 L414.8007 273.4683 L415.1739 269.1225 L414.745 267.8982 L413.8966 267.636 L413.1771 266.5782 L413.0897 261.8737 L414.568 259.3349 L425.5463 254.5023 L424.829 250.1539 L427.1812 249.1406 L427.9786 245.9391 L427.8767 243.7398 L423.2887 240.104 L422.0034 237.2755 L416.3377 232.9213 L415.8825 231.9525 L423.052 236.045 L427.9932 241.9136 L429.0819 240.5828 L433.9466 243.3612 L433.3494 244.7532 L434.3762 245.1986 L441.5057 248.8845 L442.7364 251.0837 L440.8284 252.1193 L443.1734 251.9913 L447.0149 253.5112 L448.5988 254.5635 L449.7458 254.2517 L448.1582 253.8898 L447.2188 252.5592 L448.2092 251.0392 L449.1996 249.5081 L448.089 246.7297 L459.8501 248.0883 L462.308 246.7019 L461.7363 240.8557 L463.0143 239.4637 L463.9611 237.526 L462.5992 235.9614 L462.49 232.7041 L465.4467 233.0828 L466.1167 226.2006 L466.6556 224.4299 L465.9164 224.4299 L467.6787 220.5321 L467.7406 214.3568 L472.9221 195.8411 L468.2868 173.9381 L465.3957 149.9447 L459.2493 136.1203 L458.3026 122.5569 L461.922 117.3375 L463.4367 110.8424 L469.066 104.0017 L475.5984 78.9548 L474.2803 68.7315 L471.5421 65.1101 L471.7496 60.9036 L476.252 54.1469 L476.2392 50.5014 L470.3623 39.6418 L468.4652 25.9902 L464.023 13.6362 L463.9392 9.5738 L465.6073 3.138 L466.2732 0.5684 L465.6105 0.0 L463.2208 1.1575 L463.172 1.2444 L463.038 1.3174 L462.8829 1.3213 L462.0021 1.7331 L461.8929 14.0542 L460.0577 10.7552 L458.9981 1.644 L454.5959 2.2681 L452.1999 1.3207 L434.1395 3.8396 L428.492 6.5646 L425.3169 13.1737 L421.8322 18.005 L420.9693 17.1413 L421.3589 15.3637 L420.4377 14.7229 L419.6366 16.3779 L417.3718 15.0238 L416.3231 18.4731 L414.102 18.6347 L413.8798 20.7912 L415.5366 20.6073 L415.0632 25.3494 L413.3774 24.9036 L413.858 23.1706 L412.8639 22.2679 L409.9983 22.1397 L409.4885 23.6832 L408.9788 25.2268 L411.524 25.5722 L411.7861 28.4085 L415.3618 28.7038 L416.0646 29.6344 L413.3591 32.8217 L413.2426 31.5679 L409.9146 31.2392 L407.8609 30.7544 L406.7394 28.0853 L405.4104 29.9464 L403.447 33.2663 L403.3921 33.4959 L403.0396 34.1874 L402.6685 34.7351 L402.1981 35.8907 L401.6894 37.2314 L401.2 38.0215 L400.6302 38.5876 L400.0174 39.0646 L399.508 39.926 L398.3231 43.2781 L398.3584 43.4475 L398.1979 44.1517 L397.6335 45.6924 L397.1947 46.6602 L397.0589 46.8546 L393.8058 56.0563 L388.253 62.6698 L386.964 62.1294 L386.5708 63.5167 L386.2394 64.9708 L388.0382 66.0238 L387.5262 69.3455 L386.8544 71.1428 L391.6684 72.4365 L394.9819 71.2609 L398.4156 73.5507 L397.4034 75.4282 L394.4904 75.4505 L395.7102 76.6483 L392.7317 78.6595 L394.9892 81.1499 L392.6698 82.7153 L396.2272 83.239 L395.5318 85.3115 L396.4566 88.1972 L403.2766 85.746 L404.7877 89.5064 L408.8513 94.5035 L408.9533 100.4476 L409.7325 96.3308 L410.7775 95.699 L410.7972 95.6728 L412.7616 94.5052 L413.4014 94.0985 L414.4526 93.0958 L414.702 92.6986 L416.4542 89.5677 L416.5889 87.9744 L415.675 87.9744 L417.4701 76.6929 L419.2091 76.6355 L419.4119 75.7514 L419.7859 75.7826 L422.59 76.5247 L423.4344 76.4868 L425.3719 76.8595 L426.0338 76.889 L427.0246 75.1664 L429.3696 77.1776 L430.4437 81.239 L428.7542 84.0635 L428.9909 85.9187 L427.9895 88.2307 L428.5313 88.8685 L428.7709 89.0613 L433.4477 89.0775 L433.3603 97.0327 L430.5784 97.9207 L430.2973 98.1881 L429.9172 98.2031 L429.7883 98.1764 L429.5188 98.2638 L424.8035 98.9713 L424.2172 100.5924 L427.3778 102.6758 L426.1107 106.4973 L420.6052 111.1097 L417.7395 111.3827 L415.6094 116.5131 L409.3866 122.6795 L407.7848 123.0633 L407.535 123.2566 L406.8104 123.4499 L405.0291 123.7707 L404.8438 123.7679 L404.2707 123.9049 L404.0948 123.7551 L404.0147 123.754 L403.6539 123.5963 L403.5341 123.2783 L402.2607 122.1949 L402.3725 121.8852 L402.4155 121.766 L402.3849 121.7637 L402.2462 121.6545 L402.1562 121.2802 L402.0878 120.7533 L401.9323 120.1539 L401.6778 119.6242 L401.5722 118.9702 L401.2026 117.7369 L400.8428 117.0958 L400.5231 116.678 L400.2213 116.4379 L400.1273 116.3894 L400.0673 116.3577 L399.8459 116.1828 L399.5666 115.8636 L399.5324 115.8101 L398.1316 116.8529 L390.1938 119.0031 L386.5562 113.9507 L388.4955 111.0189 L388.4798 111.0045 L388.336 110.4613 L388.3633 110.2474 L388.4361 110.1071 L388.5905 110.1026 L388.7365 110.1421 L388.8687 110.3884 L388.8847 110.4301 L389.3344 109.7505 L388.6215 108.8325 L388.4547 108.9055 L388.3812 108.8904 L388.2231 108.6598 L388.2406 108.4565 L388.3597 108.2649 L388.5621 108.0354 L388.6797 107.6894 L388.7227 107.3652 L388.8287 106.9513 L388.9922 106.7731 L389.0577 106.5809 L387.2152 105.2049 L388.8356 102.7984 L383.0319 96.6071 L382.5097 96.4394 L382.1991 96.2817 L382.1307 95.9765 L382.2996 95.821 L380.9269 94.3475 L380.9971 93.9576 L380.8016 93.8556 L380.5944 93.513 L380.8213 92.8729 L381.3307 92.1108 L381.4731 91.3225 L380.9083 90.5393 L380.2849 90.6485 L380.1193 90.5382 L379.9066 90.3014 L379.6758 89.8095 L379.3965 89.1215 L378.8426 88.9359 L378.4072 88.0758 L378.0332 87.175 L377.9771 86.6769 L378.1497 86.5354 L379.0105 86.1332 L380.0745 85.7577 L381.0834 85.6541 L381.7152 85.1076 L381.9584 84.6424 L381.9089 84.3248 L381.6853 83.3694 L381.3467 82.6362 L381.0252 82.0206 L376.6881 82.4786 L376.4384 82.3365 L376.3655 82.3688 L375.6883 81.9098 L375.0212 81.5304 L372.9126 82.4479 L372.37 84.0524 L371.0555 84.4257 L370.0921 82.2802 L370.8458 81.1242 L371.9273 80.1933 L373.2545 79.8005 L374.8963 80.4618 L377.207 75.694 L377.3512 75.4349 L377.629 74.9107 L377.7889 74.6254 L377.4109 73.2766 L376.0517 72.8109 L379.1398 72.7356 L378.7909 69.4876 L378.9621 67.6785 L379.6856 66.2038 L375.8292 64.826 L374.7306 64.5078 L374.4073 64.4666 L373.4602 64.129 L364.9966 61.6001 L362.9611 64.0961 L361.7195 62.5361 L359.7933 61.9288 L361.2789 60.5359 L357.2954 61.4664 L353.108 65.6895 L353.7998 69.0324 L342.1698 68.6034 L341.3287 63.6114 L337.4981 63.5167 L334.0026 65.2717 L330.5179 63.9512 L327.7652 60.6195 L327.219 58.4466 L325.4312 58.4466 L325.8463 53.1257 L324.7288 51.8837 L323.695 51.0179 L323.6725 50.9254 L323.6888 50.849 L323.7223 50.7872 L322.2633 49.1976 L323.0393 44.1083 L322.717 42.3743 L320.6801 41.0833 L319.9042 40.7022 L312.6491 40.442 L310.5142 35.4857 L305.6598 34.1216 L299.564 32.4082 L293.3536 32.7654 L287.6299 33.0947 L288.0326 35.2344 L288.8861 37.6437 L293.3586 41.6739 L298.8977 42.5543 L299.6368 43.7539 L295.748 46.7906 L292.8168 46.8407 L293.0098 48.0164 L292.227 48.6181 L293.2174 48.3395 L294.2551 49.2756 L294.4809 47.8938 L297.6524 47.5907 L297.9346 47.4826 L298.1734 47.4603 L298.6981 47.2207 L299.7617 46.8948 L300.0974 46.9443 L300.5763 47.3115 L302.8229 47.097 L302.6809 48.0386 L299.5312 50.3677 L292.0376 54.0896 L301.137 51.482 L302.4697 56.6191 L297.3756 64.7145 L295.571 65.1697 L292.8296 62.9952 L290.9675 63.6398 L292.7557 66.3971 L294.8009 69.1082 L296.2683 71.3456 L300.1684 77.7347 L306.6006 80.3571 L306.7645 80.312 L306.8803 80.2239 L307.0645 80.5465 L307.3828 80.678 L307.7301 80.6908 L308.0462 80.7978 L308.1117 80.9627 L308.1099 80.9788 L308.4704 81.1276 L339.144 80.4702 L343.5134 83.2 L343.1493 83.2167 L342.2182 82.8396 L338.6706 81.9075 L339.6064 83.1443 L347.4496 95.094 L352.9296 108.2743 L354.8776 106.8093 L345.9822 88.6708 L346.6958 87.8351 L344.0123 83.3226 L343.9941 83.239 L355.5586 100.9824 L358.4023 109.3495 L360.4137 112.6957 L365.3935 120.9805 L366.5295 128.3444 L368.8879 132.8523 L365.6997 132.6379 L364.9966 131.8068 L363.3118 130.514 L359.1593 126.0784 L354.0762 125.2546 L351.72 121.4384 L350.8071 120.8591 L346.7046 123.6192 L346.6886 123.671 L346.6405 123.6621 L346.3889 123.8314 L347.6265 129.1649 L344.4612 128.736 L344.9648 131.6826 L344.2704 133.3174 L345.2674 136.6539 L347.8334 137.134 L347.498 137.7294 L347.5206 137.7846 L347.5537 138.1433 L347.4044 138.7008 L347.0632 139.0796 L345.3078 141.5766 L344.455 142.6065 L343.7253 143.4492 L343.1679 144.039 L342.8347 144.3415 L342.1247 144.7999 L340.1347 146.971 L339.4018 148.066 L338.7569 148.7951 L337.4344 149.6272 L333.6348 153.2809 L333.6061 154.1816 L333.6698 154.4383 L333.7248 155.183 L333.8162 155.6247 L333.8085 156.8745 L333.8431 157.5144 L333.8908 157.7929 L333.9032 158.1644 L333.9949 158.4874 L333.9749 158.8116 L333.4502 159.0973 L333.278 164.5203 L348.7932 155.3306 L355.2724 151.3271 L357.4483 147.1364 L358.7395 148.1145 L359.0927 151.6763 L360.2717 152.04 L360.5037 152.6388 L358.5371 152.5758 L357.9137 148.7305 L356.8304 150.7634 L349.3394 155.5868 L333.4127 164.9269 L333.4921 165.2187 L333.7335 165.1012 L333.9454 165.1513 L334.2556 165.4437 L334.5484 165.5529 L335.0618 166.4451 L335.0177 166.635 L334.7097 166.7626 L334.6955 166.8751 L335.0123 167.7734 L335.3782 169.4709 L335.4044 169.7244 L335.3251 170.0028 L334.9562 170.3637 L334.9005 170.3849 L335.2115 171.5266 L333.7841 171.883 L333.9735 173.2642 L330.7692 171.5544 L327.4007 176.0148 L327.4153 176.0811 L328.5845 177.3242 L331.8033 174.8681 L333.9552 174.8681 L333.085 178.5661 L332.841 179.8748 L337.1741 177.4634 L338.3065 181.462 L331.8798 184.8146 L333.8933 185.2044 L338.2992 191.4417 L332.4769 193.3518 L333.2889 194.0145 L332.3968 194.0496 L331.8368 194.3937 L330.9097 194.6711 L330.1414 194.5513 L329.4296 194.5018 L328.4996 194.367 L327.9931 194.4238 L327.4029 194.4383 L326.363 194.2824 L324.7284 194.3459 L324.4863 194.4082 L324.2532 194.6388 L324.0377 194.9311 L321.3749 199.639 L322.6202 199.6223 L326.1339 199.3717 L328.752 201.5658 L326.9896 206.0541 L324.215 205.6086 L320.2097 210.7038 L314.0196 216.9405 L313.2655 216.3558 L313.027 216.3096 L312.4623 215.7333 L311.8804 215.4053 L311.3349 215.1993 L311.0691 215.2544 L310.7746 215.3925 L310.3748 215.716 L310.1348 215.7232 L309.6239 215.5701 L309.3727 215.4526 L309.1495 215.3173 L308.8462 215.29 L308.5228 214.9932 L308.0276 214.7376 L307.2688 214.6123 L306.9109 214.4291 L306.7809 214.2343 L303.5402 217.3526 L306.8756 218.8226 L306.6462 223.01 L303.0778 228.8176 L295.7444 228.6617 L294.5136 226.7964 L289.2921 223.3162 L286.8402 220.673 L286.57 220.4992 L286.5711 220.3834 L285.924 219.6857 L284.9649 219.6155 L284.6944 219.7108 L284.4679 219.757 L284.1045 219.5526 L283.1021 219.4797 L284.6059 220.7827 L284.6387 221.0833 L278.394 218.6333 L278.7468 219.6968 L279.6032 220.2403 L279.8741 220.4564 L279.9528 220.766 L279.9728 221.1964 L279.9342 221.4314 L279.959 221.751 L279.8057 222.0467 L279.5909 222.2421 L279.6721 222.4866 L273.1288 226.1839 L277.2434 228.6728 L277.5882 229.9023 L277.44 230.6217 L275.1584 232.9514 L275.3296 233.1724 L275.4927 233.242 L275.9158 233.5176 L276.0443 233.6552 L276.4216 233.9085 L277.0759 234.4208 L277.5365 234.6847 L277.7561 234.8423 L284.4129 237.7933 L284.209 240.8557 L277.7896 241.3679 L267.0152 247.6317 L264.4081 251.8075 L264.1132 254.7751 L257.5808 257.5867 L256.8635 260.081 L263.2269 261.7178 L265.0373 261.7 L265.6082 261.7351 L267.2413 260.2563 L268.5704 259.7246 L269.9256 259.3527 L273.1332 258.8032 L274.8897 258.6585 L275.2207 260.2346 L276.7995 259.8778 L277.1509 260.5186 L275.8535 261.0052 L275.9103 262.4633 L274.8886 262.4961 L275.098 264.9391 L273.4288 265.6729 L269.1439 265.3344 L261.7682 267.5079 L266.3816 265.1863 L258.4948 266.478 L258.0469 266.233 L250.8956 269.2171 L249.0968 268.1482 L245.3846 270.4931 L245.4538 270.6206 L245.6631 270.8778 L245.8438 271.0359 L252.4831 272.8804 L261.0036 268.5991 L261.8811 270.1636 L260.7232 271.9952 L256.0188 274.0384 L251.1432 279.2715 L249.4908 278.8523 L249.1482 278.7788 L249.1088 278.7516 L246.1875 277.9799 L248.8758 280.474 L250.5569 281.1254 L254.8499 282.0328 L255.4107 279.4107 L255.6535 279.3934 L255.6907 279.32 L255.9066 279.2142 L256.0628 279.1696 L256.8176 279.3105 L258.2799 279.2047 L262.3872 277.8797 L271.8034 281.7878 L272.4577 282.8723 L272.6944 282.9792 L272.8776 283.1178 L272.9646 283.301 L272.9085 283.3505 L272.9187 283.3995 L272.7931 283.4524 L273.2854 284.2429 L273.1441 284.4027 L273.1496 284.4851 L273.1365 284.681 L273.0272 284.7885 L272.9628 284.9048 L272.9384 285.1019 L272.587 285.4476 L272.3663 285.554 L272.0911 285.7755 L271.8482 286.2404 L271.5132 286.6289 L271.2445 286.8099 L271.0009 286.8282 L270.1477 287.7935 L270.1179 288.1264 L269.5939 288.6932 L269.453 288.5796 L268.5773 289.5705 L260.7862 288.6325 L260.4148 288.7349 L259.3501 288.6876 L258.9827 288.392 L245.5102 286.7481 L239.8845 288.6575 L238.0312 291.0346 L237.0262 296.0559 L235.1182 300.9045 L234.5647 301.9566 L238.4972 288.0452 L240.0338 285.245 L239.1891 284.0369 L235.9994 287.906 L231.8229 282.6897 L235.5187 279.2214 L238.6647 279.6 L238.8832 276.1984 L239.7535 272.5909 L238.3771 273.4872 L235.1218 269.6124 L228.4511 272.0954 L222.4249 270.4196 L214.8964 276.3048 L212.9501 276.4941 L211.0349 277.4422 L208.8611 278.2466 L205.6936 279.3439 L189.6355 290.302 L189.1931 290.7718 L188.0548 291.4716 L186.3045 292.7008 L185.1855 293.3387 L180.8496 296.2897 L179.2038 294.5529 L179.2038 292.1814 L172.1216 288.3903 L170.4794 284.293 L172.2782 283.3912 L171.2149 281.9994 L167.9306 281.7099 L167.1732 278.2249 L165.6038 278.7593 L161.7259 279.8394 L145.2021 287.6722 L143.9787 288.5462 L133.5575 295.1429 L132.7892 296.1394 L137.9233 292.5544 L141.0002 291.5301 L141.9687 293.189 L147.9221 286.8705 L148.6274 286.7113 L148.6977 286.6512 L149.6451 286.2209 L150.0351 286.1301 L150.4407 286.3022 L150.724 286.2381 L150.3555 286.0438 L150.8034 285.9514 L151.449 285.9965 L151.5706 286.0472 L151.993 285.952 L154.56 287.8225 L156.8467 286.0578 L154.7567 284.7551 L159.2681 282.2332 L163.4628 282.0272 L164.8355 286.1691 L165.7265 288.6275 L166.3546 289.0712 L166.4479 289.158 L166.4581 289.2677 L166.3707 289.4068 L166.099 289.6958 L166.1427 289.821 L166.6791 289.899 L166.986 290.125 L167.246 290.7396 L166.9726 291.6692 L167.7572 292.7141 L164.6651 296.4818 L163.4908 296.1182 L162.5627 297.3708 L160.3929 296.3309 L158.1179 298.3783 L156.5736 296.8202 L153.6279 298.6834 L146.0731 303.6355 L145.926 303.7842 L145.5397 304.0514 L145.1886 304.2657 L144.8405 304.4588 L144.7757 304.4861 L143.8487 305.094 L142.9959 304.4143 L142.4898 303.8432 L141.8089 304.0447 L141.7586 304.1493 L142.1002 305.4463 L141.1261 305.8627 L140.7682 306.3788 L140.0698 307.2232 L139.8787 307.2716 L139.6223 307.0996 L139.2262 306.7116 L138.7681 306.9165 L139.7574 309.4376 L139.3401 314.1078 L138.3363 314.9155 L137.833 317.4026 L137.2705 317.8763 L137.241 315.4482 L137.1521 312.9612 L136.027 310.8298 L135.2572 307.8689 L134.4875 305.2933 L132.5926 302.7176 L129.6319 301.2079 L128.5367 301.0298 L128.0334 302.5105 L126.305 304.6236 L118.7476 299.1477 L112.3413 300.6273 L111.3527 300.7693 L110.2246 301.0548 L110.1624 299.8719 L111.3662 299.6164 L112.5077 299.5229 L116.1777 299.0124 L114.8472 296.3927 L116.3269 294.5907 L111.6298 294.7377 L110.1019 294.6341 L108.4459 295.345 L106.6999 296.8074 L102.6182 303.0143 L99.0643 304.2779 L97.9381 305.0533 L98.1631 305.0027 L98.7111 305.0166 L98.8983 305.0895 L99.0578 305.2404 L99.116 305.4914 L99.0895 305.8694 L100.022 308.2079 L99.1189 308.553 L99.6873 308.9644 L100.6115 309.1069 L101.5305 309.073 L104.5673 308.4668 L104.7315 308.2931 L104.9085 307.924 L103.8052 305.5749 L105.0905 304.8123 L107.4741 305.3701 L109.6712 307.3974 L110.7093 306.1088 L113.4722 308.5631 L114.2456 308.6577 L115.2623 309.1309 L116.0797 308.926 L117.4248 308.2435 L118.9199 309.1977 L121.941 312.8582 L122.3786 314.4068 L122.4984 315.2584 L122.7213 315.2222 L123.2347 316.5147 L123.2609 317.1059 L122.0779 317.6035 L120.9455 317.9447 L120.313 315.6019 L119.8323 316.1813 L118.153 317.2534 L117.3749 317.7377 L116.8746 317.0736 L116.1037 315.7544 L117.5835 314.3205 L116.4391 313.3692 L116.2155 312.9578 L116.1001 312.802 L115.1366 314.1451 L114.3432 315.6458 L112.9064 316.5626 L113.6026 317.5033 L114.0643 317.1515 L115.0584 318.2865 L112.2965 321.0775 L110.7344 318.2999 L110.5786 318.4001 L111.1426 319.7933 L111.1368 319.9998 L111.0723 320.2219 L110.0429 321.4537 L110.3885 322.085 L107.8156 324.0565 L109.2881 326.4043 L107.7967 328.2518 L105.7685 325.973 L103.9508 327.6066 L104.7861 329.9923 L105.7627 332.4926 L104.044 333.977 L102.3287 333.9169 L101.666 333.7032 L97.9104 328.4143 L97.8092 327.3829 L98.4158 326.7378 L98.3361 325.7754 L94.3238 320.164 L94.6191 319.5684 L94.669 318.7591 L92.3081 315.9141 L92.3984 315.2718 L93.9084 314.0995 L94.1997 313.5145 L93.8669 311.7443 L92.5429 308.4913 L91.6658 307.0401 L91.318 307.27 L88.1006 309.3958 L86.5728 310.3238 L85.9989 310.513 L85.7386 310.6783 L85.5347 310.7479 L85.1509 310.7184 L84.9135 310.8058 L83.9333 311.5317 L83.5433 311.0051 L83.9966 310.6511 L84.6175 310.0543 L84.9324 309.884 L85.1844 309.7899 L85.3322 309.7059 L85.5081 309.4982 L85.562 309.1615 L85.5962 308.7763 L85.59 308.5503 L85.4 308.3922 L85.1851 308.292 L84.9364 308.2597 L84.5588 308.2953 L84.1528 308.4039 L83.7669 308.5659 L82.9793 308.8308 L82.0271 309.3173 L81.4278 309.8005 L80.5105 310.2542 L79.3595 310.8698 L78.2148 311.6007 L77.2611 312.0171 L76.2463 312.3188 L74.7429 312.9673 L74.1046 313.2183 L73.6337 313.3831 L73.3785 313.4427 L73.1331 313.6063 L72.8443 313.8946 L71.8477 314.3906 L71.5076 314.6138 L71.0864 314.9851 L70.9331 315.1705 L70.8147 315.4076 L70.7579 315.7099 L70.6119 315.864 L70.5172 315.9236 L70.4251 315.957 L70.246 315.8128 L69.5818 315.0358 L69.5283 314.8348 L69.5825 314.6133 L69.9 314.3071 L70.1247 313.9742 L70.2576 313.7354 L70.8118 313.3363 L71.1333 313.0196 L71.3066 312.9433 L71.4643 312.9133 L71.697 312.9367 L71.9941 312.788 L72.3247 312.4101 L72.6772 312.2665 L73.168 312.1551 L73.4655 311.9236 L73.4859 311.6374 L73.4131 311.3981 L73.2267 311.2795 L73.0166 311.2289 L72.7963 311.2851 L72.5993 311.3992 L72.375 311.4454 L72.0968 311.4716 L71.6791 311.6163 L70.964 311.9597 L70.6858 311.9859 L70.2631 312.1807 L69.3761 311.918 L69.1627 311.8323 L68.8725 311.8946 L68.677 312.0538 L68.3212 312.5398 L68.0951 312.6967 L67.9134 312.7891 L67.0963 313.0068 L66.8545 312.9946 L66.0276 313.2629 L65.7243 313.397 L65.598 313.4944 L65.255 313.5768 L64.4313 313.8301 L63.9077 314.0756 L63.8149 314.3155 L63.5858 314.5481 L63.2902 314.7118 L62.8401 314.8292 L62.3034 314.8799 L61.7601 315.0213 L61.5992 315.1771 L60.9878 315.878 L60.6827 316.1535 L59.8051 316.6328 L58.8999 316.9795 L58.3068 317.1204 L57.2203 317.4588 L56.3263 317.6536 L55.9848 317.5952 L55.7303 317.3926 L55.3727 317.0285 L55.1156 317.682 L54.9835 317.7694 L54.7948 317.8429 L54.509 317.8947 L54.0113 317.8256 L53.7473 317.8457 L53.5587 317.9186 L53.4225 318.0171 L53.2295 318.2058 L53.0525 318.4591 L51.6761 319.7494 L50.6599 321.2495 L50.3839 321.9052 L50.2543 323.0607 L50.0569 323.3607 L48.1147 324.3577 L44.6013 325.4998 L44.2914 325.5566 L43.928 325.5149 L43.6764 325.197 L43.1921 324.8575 L42.6489 324.715 L42.2589 324.6722 L41.6657 324.818 L41.0445 325.0879 L39.993 325.6891 L39.8302 325.8255 L39.6554 325.8867 L39.2877 325.9218 L38.3205 325.7659 L37.4164 325.7453 L36.036 325.5132 L35.8733 325.5939 L35.7783 325.7587 L35.7921 325.9585 L35.748 326.1483 M57.8367 319.0653 L58.7186 318.9016 L60.2454 318.8237 L61.262 318.7029 L61.7055 318.9985 L62.1628 319.2267 L62.571 319.4098 L63.3717 319.8774 L65.2622 320.6901 L65.5703 321.3602 L65.867 322.4935 L66.426 322.4162 L66.5155 322.1913 L66.3677 321.7376 L66.2821 321.4643 L66.2577 321.2049 L66.3535 320.9394 L66.4165 320.5971 L66.418 320.3321 L66.0411 319.8657 L65.7232 319.3447 L65.3274 318.7608 L65.4308 318.3617 L66.2778 318.0911 L66.8483 317.6503 L67.1265 317.569 L68.0059 317.6976 L68.2295 317.6764 L68.496 317.5256 L69.4169 316.9717 L69.4318 316.8098 L69.4074 316.7112 L69.3145 316.6294 L68.6872 316.7285 L66.6477 317.1666 L64.6392 317.7221 L63.1503 318.2041 L62.3281 318.2058 L61.905 317.7527 L62.0205 317.1638 L62.5557 316.7769 L62.9796 316.6461 L63.4394 316.5225 L63.9143 316.3472 L64.5132 316.2108 L64.8286 315.9397 L65.161 315.6319 L66.8676 314.4212 L67.3006 314.2242 L67.7255 314.6973 L67.9149 314.9512 L68.3325 315.2384 L68.4632 315.4577 L68.6446 315.7321 L68.9621 315.9136 L69.285 316.0438 L69.5847 316.4079 L69.9084 316.6539 L70.3486 316.8036 L70.6902 316.812 L71.0889 316.9456 L71.3726 317.0847 L71.6202 317.1621 L71.8503 317.2111 L72.1503 317.2528 L72.3866 317.3163 L72.8684 317.5879 L73.1775 317.785 L73.4939 317.9013 L73.6392 318.0583 L73.8373 318.1958 L74.1381 318.409 L74.2946 318.5849 L74.4734 318.7797 L75.0866 319.1744 L75.5654 319.6403 L75.4675 320.375 L75.9539 320.8314 L76.909 321.5122 L77.3452 322.0493 L77.6056 322.7991 L78.4008 323.0463 L79.2569 322.9205 L80.1595 323.6725 L80.3685 324.3092 L80.9679 326.0576 L81.1958 327.2126 L81.569 327.2382 L82.4633 327.2042 L82.9534 327.2994 L83.6249 327.4018 L84.1794 327.5961 L85.9035 327.8616 L86.4279 327.8426 L86.5684 329.3477 L80.2047 329.3772 L79.4819 329.5253 L79.3836 329.655 L79.2314 329.8559 L79.1782 329.926 L79.1564 331.4111 L79.0613 331.8424 L76.2216 332.4052 L75.4205 332.3601 L75.3236 332.2638 L75.0971 330.294 L75.1976 328.5251 L75.2781 327.2905 L75.4773 326.578 L75.3502 326.2936 L74.7545 326.0325 L74.22 325.8366 L73.2044 325.2683 L71.9322 324.6888 L71.5899 324.6204 L70.6836 324.2035 L70.0391 323.9068 L69.6517 323.5661 L68.8332 323.3914 L68.2768 323.4437 L67.8027 323.6841 L67.2886 323.8684 L66.8651 324.0732 L66.785 324.1116 L66.4602 324.1773 L65.9683 324.2235 L65.4312 324.1083 L64.2096 324.0159 L62.7611 324.1517 L60.8862 322.68 L59.4447 321.6291 L58.4244 320.6338 L58.0887 319.6698 L57.8367 319.0653 M63.8167 324.1985 L63.9416 324.0866 L64.1797 324.0582 L65.4013 324.1506 L65.9384 324.2658 L66.4303 324.2196 L66.7551 324.1539 L67.2587 323.9107 L67.7728 323.7264 L68.2469 323.486 L68.8033 323.4337 L69.6219 323.6084 L70.0093 323.9491 L71.5601 324.6627 L71.9023 324.7312 L73.1746 325.3106 L74.1901 325.8789 L74.7246 326.0748 L75.3204 326.3359 L75.4474 326.6203 L75.2483 327.3328 L75.0673 330.3363 L75.2938 332.3061 L74.8557 332.3117 L74.4523 332.5655 L74.2637 332.684 L73.3526 332.9106 L72.3863 333.0815 L68.5903 332.5332 L67.471 332.3016 L66.3295 332.3183 L65.9319 332.3556 L65.3795 332.0757 L65.1687 331.863 L64.6501 331.3499 L64.5562 331.0972 L64.5675 330.7893 L64.6429 330.3663 L64.7252 329.9038 L65.0754 328.8212 L65.2641 328.3714 L65.3445 327.836 L65.2739 327.0784 L65.1887 326.4878 L65.0226 326.0008 L64.5041 325.1197 L63.8382 324.4278 L63.8167 324.1985 M70.5799 436.8341 L70.6978 435.8982 L70.8868 435.2923 L71.0885 435.1426 L71.3052 434.5145 L71.5641 433.5302 L71.8048 433.0456 L72.0207 432.9449 L72.3622 432.7368 L72.7041 432.1064 L72.9499 431.787 L73.2962 431.2016 L73.5558 431.0314 L74.9795 430.6619 L76.5154 430.3114 L78.1288 429.8284 L79.6603 429.4334 L80.6715 429.0467 L80.9478 427.0658 L81.1962 425.756 L81.6688 423.6761 L81.8079 423.3968 L81.8246 423.3801 L82.0693 423.1364 L82.834 422.8482 L83.3944 422.7302 L83.8583 422.7619 L84.1714 422.9578 L84.5545 423.295 L84.8902 423.6706 L85.3337 424.2871 L85.4699 424.3978 L85.8325 424.6927 L86.4173 425.105 L86.737 425.4723 L87.1117 426.1555 L87.2515 426.5795 L87.4336 426.8694 L87.8275 427.008 L88.4997 427.0708 L89.1482 427.201 L90.9117 427.4626 L91.5507 427.4375 L92.6074 427.4843 L93.0239 427.5455 L93.8377 426.6001 L94.1345 426.3965 L94.4243 426.3892 L94.7885 426.4755 L95.2076 426.6725 L95.7079 426.7715 L96.2591 426.7197 L96.8618 426.7287 L97.3537 427.0091 L97.862 427.7302 L97.9902 428.1403 L98.0539 428.7306 L97.9792 430.5484 L97.9763 432.2877 L97.7906 432.7167 L97.421 432.9977 L95.753 433.1646 L94.4884 433.2531 L93.0898 433.2987 L92.0983 433.3616 L91.3024 433.5319 L90.2774 433.824 L89.7192 434.017 L88.854 434.4099 L87.3269 435.2817 L86.4115 435.7296 L85.2907 436.2315 L84.3684 436.5492 L83.5371 436.7684 L82.7765 436.8897 L81.4048 437.2247 L81.0797 437.391 L79.7794 438.1711 L78.5264 438.8115 L75.1864 439.6928 L73.7659 439.9922 L71.4774 440.3277 L70.9218 440.2793 L70.7656 439.2538 L70.8872 438.5138 L70.9596 438.2707 L70.5828 437.1852 L70.5799 436.8341 M71.0867 440.706 L71.224 440.4567 L73.7058 440.0984 L74.3522 440.0979 L74.6205 440.1279 L74.9766 439.9187 L75.293 439.7635 L78.5767 438.9078 L79.8049 438.3347 L80.6529 437.7577 L81.4383 437.3671 L82.4491 437.0867 L83.3864 436.9281 L84.3615 436.6911 L85.2547 436.3806 L86.3998 435.9266 L86.7712 435.8264 L87.8174 435.5978 L89.1267 434.9167 L90.0614 434.4622 L90.691 434.2274 L92.2181 433.7322 L93.076 433.5814 L93.7857 433.6153 L94.2233 433.474 L94.6363 433.385 L95.3099 433.4623 L95.8896 433.4478 L96.3742 433.3221 L96.8392 433.2587 L97.3297 433.2525 L97.7225 433.2759 L97.9803 433.4078 L98.3201 433.6626 L98.6492 434.2897 L98.6842 434.5579 L98.7297 434.9407 L98.7119 435.2339 L98.7395 435.4219 L98.9241 435.6261 L99.1889 436.1536 L99.8537 437.5335 L99.8308 437.7722 L99.5989 437.9463 L99.329 438.1961 L98.9129 438.461 L98.5225 438.5734 L98.0863 438.5188 L97.5631 438.2813 L97.2932 438.2362 L97.0609 438.2679 L96.687 438.3436 L96.3822 438.2462 L96.1073 438.0359 L95.9023 437.9346 L95.9205 438.1288 L95.9245 438.3347 L95.9089 438.4866 L95.8025 438.7431 L93.5981 439.7501 L92.9992 440.1719 L92.0688 440.8317 L91.1141 441.2329 L90.7092 441.4571 L89.5928 442.1148 L87.8782 443.0912 L86.8765 443.4501 L86.4337 443.647 L85.7517 443.8017 L85.1866 443.8145 L84.7351 443.8067 L84.663 443.6776 L84.6885 443.2031 L84.8261 442.6878 L84.943 442.3852 L84.9714 442.0458 L84.9608 441.7153 L84.8523 441.5194 L84.6662 441.4059 L84.2861 441.4115 L83.4963 441.5962 L82.5959 442.3089 L82.3275 442.6005 L82.0409 443.7177 L81.7795 444.3002 L81.5108 444.6419 L81.2242 444.8449 L80.8947 444.9662 L80.3339 445.1849 L79.215 445.546 L78.7409 445.7262 L78.2887 446.035 L77.6267 446.4039 L76.9352 446.6749 L73.5587 447.2179 L73.0745 447.3987 L72.553 447.4477 L72.2923 447.392 L72.0961 447.2746 L71.9187 447.0955 L71.7592 446.5124 L71.5739 445.4948 L71.216 444.1817 L71.0918 443.2837 L71.1584 442.8153 L71.3591 442.334 L71.5692 441.9573 L71.2852 441.5417 L71.1155 441.1756 L71.0867 440.706 M71.8117 315.505 L72.1183 315.0341 L73.5118 314.2798 L74.1355 314.0856 L74.7876 313.8785 L75.2282 313.6558 L75.5494 313.4449 L75.8975 313.2011 L76.2838 313.0942 L76.5646 313.043 L77.5499 312.5331 L78.1084 312.1284 L78.8276 311.7744 L79.3355 311.4705 L79.8344 311.2829 L80.2553 311.0118 L80.5145 310.5653 L80.8834 310.1417 L81.2854 310.0705 L81.2734 310.424 L80.9617 311.0613 L80.9074 311.6597 L80.9966 312.0789 L81.3003 312.1106 L81.8643 311.8718 L82.6315 311.2818 L83.5251 311.0268 L83.9111 311.6352 L83.7385 311.9169 L82.499 313.3797 L82.2132 313.7171 L81.8873 314.1017 L82.1687 314.4875 L82.4324 315.0007 L82.3705 315.3586 L81.7001 316.1251 L81.0509 316.0455 L80.414 315.9893 L79.68 316.129 L78.7846 316.3082 L78.6692 316.5754 L78.6426 317.0458 L79.8806 317.5161 L80.453 317.6954 L80.5531 318.3394 L80.1439 318.3578 L78.9688 318.2821 L78.9372 319.4465 L78.3913 319.2912 L77.5499 318.601 L77.1198 317.5406 L76.5762 317.1944 L76.0959 317.0987 L75.7791 317.3547 L75.2603 317.2222 L75.0789 316.6762 L74.7727 316.4034 L74.4836 316.0989 L74.1228 315.9921 L73.8103 316.0266 L73.4342 316.1874 L73.1061 316.3238 L72.6033 316.3611 L72.155 316.1769 L71.8488 315.9041 L71.8117 315.505 M75.8276 419.2392 L75.9215 418.7985 L76.278 418.162 L76.7015 417.5438 L76.9636 416.9161 L77.157 415.712 L77.315 415.0437 L77.6274 414.4717 L77.942 414.0855 L78.521 413.1468 L78.9699 412.2648 L79.3453 411.2398 L79.8333 410.1336 L80.2742 408.4136 L80.8477 407.0431 L81.3542 406.5629 L82.0114 406.1945 L82.8409 406.0064 L84.178 405.9413 L84.9361 405.8139 L85.2605 405.5679 L86.3456 405.2201 L88.2459 404.7221 L89.138 404.4773 L91.6636 403.7761 L92.0342 403.8318 L92.457 404.011 L92.8466 404.263 L93.451 405.317 L93.8239 405.8751 L94.7189 406.4449 L94.9847 406.5 L95.3758 406.3926 L95.5972 406.1912 L96.0341 405.0749 L96.4893 404.5246 L97.1702 404.0889 L98.0335 403.8368 L98.8644 403.6632 L99.6509 403.6248 L100.1043 403.4717 L100.6388 403.2358 L101.0102 403.1907 L102.068 403.1918 L102.6673 403.1713 L103.2186 403.2803 L103.4848 403.5012 L103.7244 403.8106 L104.0178 405.2407 L104.2283 405.4021 L104.6703 405.396 L105.0392 405.391 L105.3778 405.5807 L105.4882 405.8517 L105.9047 408.126 L105.9371 408.3024 L106.2179 408.4114 L106.5492 408.2551 L106.9392 407.8305 L107.1405 407.6112 L107.4409 407.126 L107.7388 405.524 L107.8149 405.1155 L107.9281 404.8239 L108.49 404.3994 L109.279 404.154 L109.7688 403.8718 L110.0215 400.7773 L110.2873 398.5209 L110.5502 398.5465 L110.6616 399.4713 L110.6645 402.4061 L110.7909 403.2236 L110.8804 403.1646 L110.8615 399.7891 L110.8739 399.0089 L110.9926 398.6795 L111.1837 398.4474 L113.1467 398.1775 L113.6809 397.9917 L113.7836 397.2415 L113.7992 397.128 L113.9627 395.9327 L113.7468 393.5376 L113.3441 390.2933 L113.3087 389.7574 L113.2847 389.389 L113.5655 389.2271 L115.5383 388.9917 L116.6608 388.9822 L116.9503 388.98 L117.3869 389.0395 L117.7914 389.1876 L118.0649 389.5943 L118.0944 390.069 L118.09 391.4769 L118.2823 395.1086 L118.4541 400.2231 L118.6872 400.5954 L118.7819 400.8736 L118.8008 400.9293 L118.8259 401.4701 L118.8033 401.5876 L118.7254 402.218 L118.6981 402.839 L118.7556 403.9943 L118.5677 404.7761 L118.4407 406.0443 L118.2779 406.934 L118.358 409.9973 L118.0649 410.9394 L117.5854 412.3015 L117.7135 414.968 L118.0081 415.4933 L118.4632 416.55 L118.7494 420.8111 L119.2406 426.5317 L119.4853 428.1197 L119.6689 428.3895 L121.4439 428.2176 L121.8248 428.3779 L122.1274 428.7212 L122.2465 429.0316 L122.1558 429.1357 L121.8255 429.0311 L121.3056 428.7228 L120.8402 428.7312 L120.6549 429.1056 L120.6414 432.941 L120.8683 433.548 L121.6595 434.3481 L122.0517 434.633 L122.6026 434.8427 L122.5068 434.9974 L122.0345 435.092 L121.6846 435.2105 L119.8757 435.487 L119.1795 435.5911 L118.5921 435.5254 L118.5663 435.4759 L118.3114 434.9841 L118.161 434.2841 L118.0758 433.6966 L118.062 433.6003 L118.2193 433.0906 L118.0631 428.6099 L117.8701 426.1656 L117.5395 424.5531 L117.2198 424.3466 L116.5239 424.1408 L116.3422 423.7507 L116.075 421.6903 L115.8798 421.1555 L115.5932 420.8757 L115.2695 420.8412 L114.6316 420.7199 L114.258 420.2575 L113.9157 418.675 L113.8211 418.2577 L112.4644 416.5004 L112.1894 416.2334 L111.222 415.2935 L110.6092 414.7694 L110.3568 414.8033 L110.0491 414.943 L109.6333 414.8361 L108.1328 413.9013 L107.5509 413.7071 L107.2301 413.5686 L107.0142 413.2419 L106.6213 412.7361 L106.4957 412.6332 L106.4352 412.5842 L106.2412 412.4251 L105.8049 412.2047 L104.7224 411.9894 L103.649 411.9799 L103.1225 411.8681 L102.6524 411.7162 L101.8473 411.5203 L101.4643 411.4964 L101.1657 411.7351 L101.1606 412.3238 L101.0258 412.7083 L100.4425 413.1618 L99.3713 413.5569 L98.6998 413.7756 L98.1846 413.864 L97.2095 413.9659 L96.2504 414.1061 L94.9836 414.2252 L93.8035 414.3609 L92.0335 414.5117 L91.3544 414.5907 L89.9413 414.859 L88.6749 414.7666 L87.581 415.0203 L85.8598 414.9958 L84.6801 414.9202 L82.7969 414.9864 L81.8851 415.0971 L81.2442 415.4794 L80.6063 416.8054 L80.6879 417.0341 L81.2246 417.1442 L81.3943 416.9779 L81.5982 416.3708 L81.7482 416.0447 L82.1294 415.8884 L83.3205 416.033 L84.6837 416.1415 L85.8566 416.5739 L86.7064 416.6051 L87.967 416.6323 L88.8828 416.4609 L90.0268 416.2078 L91.1596 416.1015 L93.1769 416.3446 L93.703 416.7225 L93.904 417.0502 L94.0256 417.4408 L94.046 417.7658 L93.8581 418.3862 L93.4936 419.0439 L92.4839 419.9826 L92.0004 420.2241 L91.5103 420.3454 L90.987 420.43 L90.4747 420.5791 L90.4015 420.6002 L89.6157 420.5535 L89.0892 420.4973 L88.1523 420.3387 L86.7563 420.3092 L85.9702 420.194 L84.4401 419.8129 L83.2669 419.2698 L82.5172 419.129 L81.6491 419.0645 L81.1022 418.734 L80.5051 418.1369 L79.7499 417.8309 L78.8421 417.5543 L78.3174 417.6233 L77.7632 417.8615 L77.1836 418.2527 L76.5693 419.2954 L75.9434 419.6754 L75.8276 419.2392 M78.6746 317.0447 L78.7012 316.5743 L78.8166 316.3071 L80.4133 315.996 L81.6983 316.1312 L82.2408 315.9353 L82.4389 315.8011 L82.7022 315.5607 L83.0801 315.4749 L83.3554 315.3636 L83.658 315.4354 L83.8594 315.7132 L83.7578 316.3967 L83.8503 316.5838 L84.1659 316.7402 L84.2136 317.2534 L83.8029 317.9002 L83.3561 318.4535 L83.0164 319.3569 L82.9895 319.8217 L83.0299 319.9842 L83.094 320.134 L83.3733 320.1178 L83.828 319.9442 L84.0006 319.913 L84.1725 319.9826 L84.3393 320.1023 L84.4492 320.0471 L84.4882 319.8724 L84.3819 319.6458 L84.5286 319.446 L85.2317 319.8379 L85.546 320.0895 L85.7542 320.2258 L85.9334 320.2648 L86.1129 320.2525 L86.914 320.8359 L87.2242 321.2595 L87.2712 321.4916 L87.1834 321.7861 L86.7676 321.8451 L86.6667 321.8295 L86.3405 321.7799 L85.6494 321.5734 L85.4946 321.4721 L85.2794 321.422 L85.03 321.4905 L84.7413 321.402 L84.4966 321.1988 L83.8929 320.9589 L83.8004 320.827 L83.7858 320.6722 L83.5968 320.5793 L83.4792 320.6105 L83.4239 320.7162 L83.4264 320.8515 L83.2986 320.9845 L83.2822 320.9828 L83.0059 320.9255 L82.8496 320.5398 L83.0645 320.3026 L83.011 320.2119 L82.9909 320.1585 L82.7961 320.1668 L82.456 320.39 L82.3275 320.6784 L82.329 321.0151 L82.2543 321.1832 L82.0875 321.1682 L81.987 321.0574 L81.7948 320.4468 L81.8367 319.6085 L81.5705 319.2812 L81.0735 318.5186 L80.8943 318.4802 L80.7687 318.532 L80.6762 318.616 L80.6857 319.0931 L80.7294 319.4003 L80.5928 319.4939 L80.4621 319.4911 L80.3558 319.4254 L80.1384 318.9233 L79.9469 318.9662 L79.6112 319.1287 L79.2408 319.2439 L78.9448 319.4493 L78.9787 318.3027 L80.1493 318.3667 L80.567 318.3483 L80.485 317.6915 L79.9126 317.515 L78.6746 317.0447 M83.1632 402.6387 L83.2975 402.2542 L83.7494 401.242 L83.8885 400.8864 L84.2428 399.9794 L84.2719 397.6594 L84.4802 396.8809 L84.7828 396.4207 L85.1254 396.1169 L85.6253 395.8893 L86.8805 395.9121 L87.6804 395.8921 L88.4389 395.8058 L88.9764 395.6884 L89.5688 395.5593 L89.9791 395.4452 L90.5162 394.9171 L91.2434 394.4925 L92.0765 393.9667 L92.1752 393.7969 L92.2414 393.6951 L92.1894 393.0312 L92.1915 392.3529 L92.2633 391.8887 L92.6121 391.6495 L92.6966 391.5916 L93.3636 391.4886 L94.8576 391.4842 L95.9089 391.4814 L96.6295 391.4135 L97.1582 391.389 L97.6537 391.3273 L98.2946 391.3729 L99.053 391.2866 L99.7787 391.2738 L100.1964 391.0919 L100.586 390.9015 L100.941 390.788 L102.6371 390.8097 L103.1825 390.7991 L103.4782 390.8503 L103.5594 390.8643 L103.6268 390.8392 L104.0146 390.6956 L104.1846 390.7813 L104.4002 390.6706 L104.6773 390.7352 L104.7967 391.2354 L105.1961 392.133 L105.5176 393.2805 L105.6021 393.5827 L105.8676 394.9249 L105.8723 395.7836 L105.7835 396.4959 L105.5493 396.995 L104.2589 398.473 L103.7852 398.6082 L103.4848 398.6616 L103.2011 398.522 L102.8818 397.9994 L102.9182 397.5337 L103.082 397.0857 L103.0831 396.8292 L102.9659 396.6995 L102.8239 396.6828 L102.238 396.6873 L99.605 397.4725 L99.3054 397.8069 L98.777 398.0523 L98.5658 398.5298 L96.9721 399.1163 L95.8477 399.6344 L94.9341 400.1018 L94.444 400.2231 L94.1319 400.1519 L93.7962 399.9927 L93.5821 399.8469 L93.4241 399.5498 L93.2198 398.971 L93.1481 398.9026 L92.9118 398.6783 L92.6365 398.6288 L92.2618 398.9104 L91.9443 399.2203 L91.7888 399.3717 L91.2721 399.7418 L90.5042 400.1608 L89.9646 400.3923 L89.2516 400.9165 L88.9024 401.1307 L88.2372 401.5391 L88.0264 401.7317 L87.734 401.9988 L87.0982 402.2191 L86.5182 402.183 L86.193 401.9726 L86.0339 401.7712 L85.822 401.7005 L85.6144 401.7857 L85.4648 402.1162 L85.4575 402.4134 L85.4957 402.7166 L85.4666 403.0511 L85.2998 403.1974 L84.939 403.4623 L84.0323 403.7383 L83.5258 403.7589 L83.3172 403.4601 L83.1708 403.2063 L83.1632 402.6387 M116.6721 300.2154 L116.722 300.1051 L116.9034 299.9521 L117.8581 299.5457 L118.0831 299.5401 L118.4199 299.6593 L119.6554 300.3278 L121.0383 301.1784 L122.6335 302.3212 L124.5444 304.1582 L124.717 304.3982 L124.8477 304.6726 L125.6983 305.4074 L126.881 306.5675 L126.849 306.833 L126.4335 306.5702 L126.2023 306.8335 L126.0133 306.8508 L125.7923 306.7361 L125.0557 306.0642 L124.7851 305.6139 L124.6398 305.5065 L124.3959 305.4692 L124.2317 305.4848 L124.031 305.428 L123.3163 304.9671 L123.0756 304.6425 L122.9609 304.382 L122.7449 304.161 L121.9949 303.6984 L119.749 302.1392 L119.1107 301.7462 L118.839 301.2491 L118.5994 300.9396 L118.3711 300.7498 L117.7816 300.5032 L117.6309 300.3367 L117.4313 300.295 L117.2092 300.3306 L116.9084 300.4948 L116.6721 300.2154 M159.2364 488.8304 L160.1216 488.7553 L162.6435 490.1293 L163.9289 488.8499 L166.2192 490.2456 L164.9892 491.9194 L162.8296 492.4401 L161.2839 491.2981 L160.9569 491.6491 L160.5331 491.1651 L160.146 491.2096 L159.2364 488.8304 M245.6198 336.2752 L245.6639 334.7947 L246.0047 331.9966 L246.5669 331.1973 L251.6151 331.538 L252.2221 330.4576 L253.8799 330.4576 L255.4194 331.1383 L255.0495 332.6334 L254.8863 332.6334 L254.4275 332.1447 L253.7171 332.3078 L253.4062 332.8109 L253.4655 333.3586 L254.4869 334.0249 L254.6202 334.8097 L255.0345 336.6008 L245.6198 336.2752 M262.8329 337.0166 L262.8755 336.3392 L262.9964 335.8606 L263.1366 335.4325 L263.3452 334.9527 L263.3015 334.5553 L263.3081 334.1373 L263.3649 333.5089 L263.3867 332.4458 L263.4476 331.8018 L263.6977 331.0398 L263.7978 330.6079 L263.934 330.3908 L265.594 328.1521 L267.8523 326.9137 L269.3554 326.2947 L270.2431 326.2908 L270.9248 326.9014 L271.385 328.7878 L271.3686 329.5186 L272.1573 330.1943 L272.6798 330.2428 L273.1536 330.2066 L273.6979 330.2288 L274.2572 330.2856 L274.6734 330.3557 L275.079 330.5728 L275.2844 330.6936 L275.4945 330.6892 L275.6926 330.555 L276.1605 330.2505 L276.4616 330.0196 L276.7081 329.8826 L276.8144 329.6266 L276.6885 329.4017 L276.5275 329.07 L276.6266 328.8395 L276.8352 328.5913 L277.0023 328.5757 L277.1607 328.4638 L277.4469 328.1705 L278.1238 327.9378 L278.5724 327.8354 L279.3899 327.8833 L280.0569 327.8866 L280.685 327.9033 L281.6529 327.9089 L283.2091 328.0959 L284.2123 328.1582 L284.6725 328.2005 L284.9489 328.21 L285.1339 328.2028 L285.3196 328.2056 L285.66 328.687 L286.1447 329.3205 L286.5274 329.8832 L286.7655 330.4487 L286.8879 330.9602 L286.9701 331.6315 L287.099 332.1569 L287.2636 332.8004 L287.4872 333.2117 L287.7213 333.6826 L287.9318 334.2208 L288.072 334.6555 L288.2427 335.2528 L288.3618 335.8901 L288.5949 336.7834 L288.7059 337.1146 L288.7449 337.4279 L288.8148 337.9138 L288.817 338.4766 L288.7605 338.5723 L288.6233 338.6051 L288.3877 338.6074 L287.8349 338.5378 L287.1704 338.4493 L286.314 338.4031 L285.4874 338.3547 L284.3772 338.1665 L283.6708 338.2222 L283.0686 338.2684 L281.9314 338.2784 L281.2403 338.1215 L280.223 338.1209 L278.9129 338.102 L278.1861 338.1549 L277.8129 338.2951 L276.9947 338.2812 L276.4525 338.2161 L276.0964 338.053 L275.1191 337.9984 L274.2263 338.0463 L273.3611 338.122 L272.6842 338.0641 L271.0344 338.1126 L269.7993 338.1972 L268.8198 338.3391 L267.9317 338.4365 L266.8433 338.4827 L266.1792 338.5094 L265.3049 338.4855 L264.3458 338.4693 L263.417 338.4504 L263.1082 338.3636 L263.0041 338.1621 L262.9778 337.8777 L262.9407 337.6077 L262.8329 337.0166 M315.9312 60.3242 L318.0832 55.7109 L322.1395 53.2315 L322.267 53.1869 L324.306 55.6106 L323.9273 58.3463 L321.302 59.3046 L319.0481 62.7144 L315.9312 60.3242 M398.5725 377.8338 L398.5897 375.3512 L398.7597 373.6171 L400.001 372.8006 L400.8854 372.5797 L406.6327 366.73 L408.8943 367.9883 L407.1429 370.8795 L403.7591 374.8414 L401.3104 377.1198 L399.5761 378.8884 L398.5725 377.8338 M404.1123 352.0554 L404.1869 351.8183 L404.5583 351.1432 L405.0743 350.3295 L405.4828 349.6611 L406.8818 347.7075 L407.4094 347.0535 L407.9793 346.4051 L408.4173 345.9276 L408.5815 345.7439 L408.5433 345.4912 L408.4584 345.3259 L408.2065 345.2608 L407.9294 345.0855 L407.8063 344.8356 L408.0838 344.3675 L408.3914 343.8415 L408.6958 343.2298 L408.9209 342.8975 L409.1543 342.494 L409.6112 341.9035 L410.0038 341.5957 L410.4243 341.2651 L410.901 340.8894 L411.386 340.4424 L411.9409 340.0996 L412.1761 339.932 L412.4791 339.9037 L412.8246 340.118 L413.3926 340.1358 L414.4734 339.9504 L415.2875 339.7038 L415.9768 339.4589 L416.5445 339.2001 L416.8208 338.8823 L417.0473 338.6207 L417.3044 338.5267 L417.5243 338.5767 L417.9088 338.943 L418.1397 339.4345 L418.1335 339.7467 L417.9394 340.3077 L417.4562 340.7196 L417.2425 340.905 L417.2698 341.1432 L417.3903 341.5851 L417.6838 341.9953 L417.5651 342.2825 L417.3972 342.4189 L417.0914 342.6382 L416.5223 343.0428 L416.085 343.4096 L415.8286 343.6194 L415.6422 343.7174 L415.5355 343.8627 L415.4048 344.1315 L414.8018 344.5517 L414.5447 344.6435 L414.1777 344.7376 L413.5758 345.2352 L412.4332 346.2983 L412.0538 346.6244 L411.9063 346.7981 L411.8488 347.1498 L411.7807 347.3374 L411.8116 347.3997 L412.0279 347.3546 L412.2912 347.2194 L412.6284 346.9623 L413.1341 346.5231 L413.614 346.0211 L414.406 345.2591 L414.8936 344.8946 L415.3385 344.6102 L415.8119 344.3602 L416.7677 343.7486 L417.4544 343.2026 L417.7155 342.9732 L418.0774 342.622 L418.2733 342.5185 L418.5053 342.6426 L418.739 342.9476 L418.908 343.2037 L419.1101 343.3862 L419.4629 343.4085 L419.7983 343.3473 L420.2476 343.1653 L420.6467 342.927 L421.084 342.5597 L421.3174 342.4829 L421.6047 342.607 L421.9786 342.6265 L422.2098 342.5207 L422.4385 342.3905 L422.6664 342.248 L422.9719 341.9046 L423.2552 341.7087 L423.5487 341.6781 L423.8775 341.8183 L424.1783 341.9814 L424.7412 342.3265 L424.8818 342.5447 L424.96 342.7434 L424.9047 342.9599 L424.7485 343.2204 L423.3288 344.4576 L422.961 344.874 L421.8916 345.8324 L421.0355 346.5504 L420.2232 347.2539 L419.2717 348.0253 L418.9171 348.4205 L418.049 349.114 L417.4147 349.6299 L416.9075 349.9989 L416.291 350.5432 L415.5177 351.2334 L414.5899 352.0983 L413.8926 352.8513 L413.2273 353.4658 L413.2448 353.6556 L414.0004 354.0229 L414.9598 354.4264 L416.0646 354.9924 L416.9738 355.7777 L417.7687 356.4634 L418.4237 357.1012 L418.2872 357.36 L417.7308 358.3362 L417.4216 358.792 L417.1733 359.1972 L416.7549 359.8239 L416.322 360.563 L415.6753 361.8286 L415.159 362.7608 L414.6856 363.3746 L414.3871 364.0564 L414.15 364.3569 L413.8809 365.0971 L413.4629 365.6603 L413.0435 366.1039 L412.545 366.6777 L411.9973 367.8592 L411.5287 368.6467 L411.2698 368.9372 L410.8798 369.2194 L410.4123 369.4186 L409.7838 369.6173 L409.194 369.5767 L408.418 369.0958 L410.5208 365.8101 L410.0231 365.4138 L409.6768 365.2446 L409.4674 365.1483 L409.3418 364.8183 L409.1281 364.456 L408.7388 364.2562 L408.5782 364.1454 L408.5382 364.0386 L408.6813 363.6329 L409.4914 362.5276 L409.8781 361.9894 L410.3184 361.3855 L410.4633 360.9999 L410.3464 360.7644 L410.0682 360.4639 L409.5595 359.8929 L408.8317 359.3369 L408.8229 359.0764 L408.9598 358.8226 L408.9748 358.6601 L408.8998 358.5516 L408.7767 358.5226 L408.4916 358.5844 L408.2614 358.4798 L407.897 358.4386 L407.4848 358.9139 L406.9663 359.761 L406.4063 360.6976 L406.155 361.0728 L405.9587 361.1713 L405.7523 361.2158 L405.3955 361.0427 L405.0157 360.8368 L404.8595 360.7205 L404.7124 360.6064 L404.5066 360.371 L404.4578 360.0587 L404.5336 359.7404 L404.834 359.0842 L405.3001 358.2666 L406.0822 356.7467 L406.3414 356.1901 L406.7806 355.3503 L407.2219 354.3746 L407.3311 354.093 L407.5394 353.581 L407.397 353.1769 L407.1542 352.9331 L406.8381 352.7111 L406.545 352.5224 L406.1834 352.4601 L405.8113 352.5547 L405.347 352.7389 L404.7433 352.7144 L404.1658 352.3204 L404.1123 352.0554 M414.5316 375.2388 L414.548 375.0918 L414.7978 374.591 L415.4033 373.5497 L415.64 373.0706 L415.7288 372.5697 L415.6415 372.2714 L415.4991 372.0332 L415.3378 371.9675 L415.1142 371.933 L414.9216 371.8557 L414.8327 371.7076 L414.8174 371.5434 L415.2835 370.6708 L416.2725 369.27 L416.7404 368.4642 L417.3193 367.3661 L417.9514 366.1217 L418.4645 365.2697 L418.747 364.8016 L419.0067 364.6819 L419.6206 364.3836 L420.0564 363.9312 L420.4562 363.4342 L420.643 363.2383 L420.8091 363.1932 L420.9875 363.2266 L421.0953 363.3624 L421.1517 363.5383 L421.1415 363.6446 L421.2354 363.7414 L421.3887 363.7175 L421.4994 363.7776 L421.6462 364.1204 L421.6451 364.7042 L421.5337 365.066 L421.1615 365.5529 L420.9671 365.7266 L420.8731 365.9564 L420.824 366.3482 L420.8728 366.6048 L420.958 366.7679 L421.171 366.9036 L421.4434 367.0344 L421.9098 367.3077 L422.1683 367.5053 L422.2921 367.8703 L422.224 368.3133 L421.7048 369.1109 L420.7992 370.5974 L420.1391 372.2413 L419.5681 373.8775 L418.8792 375.4842 L418.2533 376.3062 L417.7129 376.6429 L417.1558 376.9055 L416.8842 376.9506 L416.5379 376.9428 L416.0715 376.8298 L415.6921 376.6846 L415.4146 376.4486 L415.025 375.9166 L414.5746 375.4864 L414.5316 375.2388 M416.2466 325.6974 L416.2466 322.7028 L419.6927 319.0163 L420.3008 319.5039 L421.7303 319.6302 L423.0193 320.2537 L422.1345 320.9995 L416.2466 325.6974" stroke-dasharray="" fill="none" fill-opacity="1.0" stroke="#ff0000" stroke-opacity="1.0" stroke-width="1.0px" stroke-linecap="butt" stroke-linejoin="miter" stroke-dashoffset="0.0px"/>
</g>
</svg>