<?xml version="1.0" standalone="no"?>
<!DOCTYPE svg PUBLIC "-//W3C//DTD SVG 1.1//EN" "http://www.w3.org/Graphics/SVG/1.1/DTD/svg11.dtd">
<svg width="512px" height="512px" version="1.1" xmlns="http://www.w3.org/2000/svg" xmlns:inkscape="http://www.inkscape.org/namespaces/inkscape">
<g id="layer" inkscape:groupmode="layer" inkscape:label="layer">
<path d="M0.0 139.7645 L0.4585 142.0576 L2.4843 143.8544 L4.5485 143.8544 L6.5361 146.6062 L4.5866 146.9885 L3.3584 147.125 L2.9431 148.2884 L2.7518 149.3201 L3.4912 149.6306 L5.5806 151.6522 L8.8679 154.2894 L10.5494 156.4297 L12.7284 159.0289 L14.2139 159.5509 L16.5126 159.4497 L17.6349 158.9995 L20.7224 159.31 L20.4977 157.4416 L26.6795 156.4993 L28.5006 156.4993 L28.6844 160.8411 L31.2919 162.2597 L32.1586 163.1586 L33.5638 163.1859 L32.9422 161.6452 L31.7549 158.5926 L33.0774 157.3206 L33.668 155.0325 L35.598 152.4691 L35.1623 150.5407 L37.586 148.6027 L39.1076 149.8394 L45.9599 148.2868 L52.6386 149.7858 L54.6334 150.4818 L55.5508 150.2141 L54.6715 149.2585 L56.3916 148.1883 L58.2587 147.9602 L59.4494 144.863 L60.0611 145.4364 L59.9083 148.0352 L61.6284 147.2326 L66.3273 147.8387 L66.9036 143.894 L68.3663 144.0584 L71.7183 144.2393 L76.2637 145.7839 L76.4584 143.3345 L77.6318 143.418 L79.3498 146.6807 L76.6255 145.7561 L76.7089 150.5996 L78.1567 156.6685 L79.1867 157.6429 L80.4394 157.1696 L79.4699 151.7972 L81.6628 153.7449 L83.1603 156.3564 L86.7028 157.3061 L87.6325 157.4191 L88.5471 157.6161 L88.0907 156.1738 L88.6836 155.4415 L89.5146 155.1652 L90.2818 154.5667 L90.3002 153.4531 L93.0391 148.9244 L94.8705 149.4427 L97.3854 149.4357 L98.5172 148.4479 L103.7737 149.9299 L103.917 153.0195 L107.0515 152.8899 L107.3544 155.4623 L107.1597 163.2014 L108.1224 162.5649 L111.3365 161.7249 L109.4922 166.1442 L117.0154 166.1806 L117.0886 170.3808 L112.2494 169.906 L111.056 172.0591 L111.4417 173.5773 L111.6343 175.3845 L112.4295 175.8181 L112.8874 174.7582 L113.8099 173.9231 L114.6472 173.8117 L115.0962 174.0478 L116.2648 174.2357 L116.9385 174.808 L117.2285 175.0879 L117.8995 176.0001 L119.6508 176.8513 L122.7397 177.7672 L123.3006 177.939 L124.3205 179.2088 L125.773 179.7885 L126.3755 180.2532 L126.4929 180.743 L126.6649 180.766 L126.7918 180.3774 L127.075 179.0 L127.1966 177.8464 L127.3 177.3438 L127.49 176.9139 L127.6929 176.7148 L127.9441 176.6307 L128.3437 176.6987 L128.8482 176.9524 L129.2567 177.151 L130.5863 177.7345 L132.0286 178.3496 L133.1632 178.7211 L133.3235 178.8475 L133.491 178.9283 L133.7701 178.939 L134.0673 178.8967 L134.5843 178.4171 L135.1913 177.9171 L135.3948 177.8437 L135.7284 177.8031 L136.4736 177.7634 L136.7381 177.7902 L137.8645 177.7179 L139.4419 177.2892 L140.2725 176.8829 L140.649 176.9937 L141.3209 177.029 L141.7209 177.2137 L141.8952 177.4556 L142.0123 177.704 L142.0651 177.9021 L141.9354 178.2682 L141.4683 178.2982 L141.1303 178.3394 L140.8791 178.3405 L140.4192 178.2559 L139.9597 178.4524 L140.0985 178.9636 L140.0757 179.8148 L140.5298 179.5707 L140.7198 179.5428 L141.0513 179.4058 L141.294 179.2548 L141.7624 179.2511 L142.5174 179.4829 L142.8316 179.6783 L142.8524 179.8512 L142.8898 180.4015 L142.7435 181.3538 L142.6308 181.8639 L142.7353 182.7274 L142.8446 183.1519 L143.0121 183.336 L143.0832 183.4447 L143.0434 183.5956 L142.8242 183.943 L142.6039 184.5249 L142.5886 184.8771 L142.6339 185.2513 L142.7084 185.3883 L142.9756 185.6774 L143.461 185.8519 L143.8219 185.9542 L144.0499 186.1602 L144.3059 186.596 L144.261 186.8877 L144.3362 187.1109 L144.5721 187.4219 L144.6715 187.5649 L144.8346 187.8357 L145.1542 188.1606 L145.3738 188.295 L145.4007 188.7591 L145.4813 189.1873 L145.6914 189.4833 L146.2118 189.9458 L146.7044 190.1776 L146.9747 190.2499 L147.2463 190.1118 L147.4867 189.8597 L147.8145 188.894 L148.0933 188.6809 L148.4619 188.932 L148.6127 189.2189 L148.4922 190.2611 L148.5862 191.9997 L148.3193 192.8728 L150.5278 193.6082 L150.5047 191.9644 L151.0663 190.6958 L152.2339 189.759 L151.8275 188.4101 L155.0382 186.1549 L156.6439 184.3584 L158.0964 186.1164 L162.5682 184.8932 L163.1037 186.8808 L162.4695 188.5289 L161.2022 191.7631 L168.3932 191.0137 L168.2043 193.3015 L166.6967 196.2841 L166.9264 198.0901 L167.0806 197.9263 L167.3676 197.5811 L167.8465 197.5859 L168.1243 197.5233 L168.7101 197.6121 L169.0992 197.55 L169.3368 197.6378 L169.4648 197.8963 L169.6459 198.1956 L169.9703 198.4771 L170.3737 198.6912 L171.642 198.5553 L172.2146 198.7892 L172.5077 198.8379 L172.5839 198.3101 L172.861 198.1602 L173.2967 198.0874 L173.6099 198.2389 L173.8033 199.3202 L173.92 200.0476 L174.0827 200.3142 L174.3173 200.2954 L174.5709 200.114 L174.7458 199.9619 L174.7962 199.7767 L174.8207 199.2597 L175.1284 198.6457 L174.9508 197.9745 L174.7496 197.5479 L174.6553 196.5271 L175.108 196.1519 L175.3044 195.5229 L175.6741 195.3174 L176.1735 195.3682 L176.8911 195.6808 L177.2059 195.6428 L177.5736 195.8024 L177.7873 196.244 L178.2305 196.3938 L178.542 196.2102 L178.7783 195.4839 L178.764 194.8405 L178.6006 194.371 L178.6312 193.9845 L178.764 193.4016 L179.0577 193.2737 L179.5023 193.4332 L180.7237 194.1815 L181.351 194.8132 L181.219 196.1781 L181.2217 196.4404 L181.0276 197.7197 L180.5072 199.2773 L180.2726 200.5374 L180.2975 201.0234 L180.13 201.5576 L179.8019 201.5635 L179.4635 201.8423 L179.119 202.9551 L179.3338 203.4915 L179.0873 204.2141 L178.6128 205.4885 L178.2006 206.1587 L177.8003 206.726 L181.0304 206.6811 L181.2285 207.6188 L181.2908 207.6724 L186.2062 210.4364 L188.589 211.8869 L188.7058 209.2995 L186.7798 207.1971 L186.7522 206.7116 L190.3659 206.1544 L191.8569 205.8814 L192.5299 207.9635 L194.1516 208.1257 L195.4652 207.1232 L195.8771 205.5602 L196.7465 204.3415 L197.287 204.3415 L197.5212 205.8065 L201.0648 208.5095 L201.6775 206.4059 L202.1048 204.2312 L197.9355 203.3684 L188.5043 201.8782 L188.5992 200.866 L189.3645 199.3935 L189.8206 199.4759 L190.7251 199.4358 L191.0365 199.5905 L191.1104 199.7093 L191.2306 199.7312 L191.799 197.8525 L198.0189 198.4059 L200.2887 198.8427 L201.5244 199.1585 L202.3277 198.5483 L205.8134 199.9293 L209.9248 204.1038 L209.6243 205.5458 L208.1517 205.9333 L206.4602 206.513 L205.0135 208.6968 L208.7596 208.9553 L210.7854 210.7136 L211.9918 213.0109 L214.3303 213.3802 L215.0792 213.3802 L215.8281 213.3802 L216.6482 213.8614 L217.395 214.6321 L218.4312 215.4516 L218.6722 215.861 L219.2264 216.4396 L219.8769 217.1622 L220.3589 217.403 L220.6721 217.2585 L220.9369 216.7768 L221.1779 216.126 L221.5636 215.572 L222.9851 214.5358 L223.8766 213.2346 L225.4187 210.9941 L225.7318 210.9941 L227.3464 212.3194 L227.298 213.066 L226.1417 214.4635 L225.949 216.0778 L226.6237 215.9814 L228.0452 214.6803 L229.2257 213.5001 L230.4451 214.1761 L230.4593 213.893 L230.5948 213.4937 L230.7848 213.1848 L231.2355 212.5538 L231.6988 211.5454 L232.1232 210.5755 L232.6451 209.7705 L232.8166 209.5511 L233.2292 208.9634 L233.7718 208.2092 L234.1663 207.7933 L234.3611 207.4449 L234.5864 207.0686 L234.8696 206.5692 L235.2005 205.9472 L235.2645 205.5956 L235.5429 204.9367 L235.612 204.7879 L235.7002 204.5979 L235.8074 204.1632 L236.0828 203.7227 L236.1339 203.6242 L236.2173 203.5123 L236.2459 203.3491 L236.2108 203.1789 L236.5151 202.5751 L236.7323 201.9719 L236.9137 201.1888 L237.088 200.9495 L237.2351 200.365 L237.4039 200.2039 L237.5673 200.1552 L237.7137 200.205 L238.6951 200.4887 L239.3946 201.0389 L239.1393 201.6898 L238.7608 202.5987 L238.1787 203.9871 L238.3802 205.3392 L238.8833 204.6193 L239.5383 204.1183 L239.8514 204.0706 L240.0696 204.1172 L240.247 204.2649 L239.6305 205.9681 L239.3606 206.6554 L239.3936 206.8502 L239.5522 207.044 L239.8667 206.8459 L240.2708 206.71 L241.0612 204.8451 L241.3063 204.4715 L241.4272 204.471 L241.6328 204.2912 L241.9119 204.122 L241.9902 204.1702 L242.1012 204.0894 L242.1444 204.0064 L242.463 203.8415 L242.8262 203.8073 L243.1734 204.2842 L243.04 205.1824 L242.7966 205.929 L241.6488 206.8336 L241.0193 207.7484 L241.0221 207.8501 L241.3169 208.3714 L241.6419 208.783 L241.9422 208.7081 L242.1287 208.6123 L242.4027 207.8377 L242.5382 207.7585 L242.8528 207.9625 L243.2092 208.4335 L243.5234 209.0351 L243.7695 209.6742 L243.4917 210.6574 L243.185 211.4844 L242.9191 211.9238 L242.1573 212.6218 L241.3795 213.4284 L241.29 213.6864 L241.2719 213.8582 L242.4031 212.655 L243.4818 211.6621 L244.58 210.3026 L244.7917 210.0542 L244.9602 209.9707 L245.125 210.0141 L245.8875 210.324 L246.0655 210.5589 L245.5025 211.8243 L244.7914 213.0639 L244.9085 212.9916 L245.8017 211.6187 L246.0652 211.1991 L246.2319 210.7763 L246.2405 210.4069 L246.6643 210.0312 L247.183 209.1636 L247.5333 208.981 L247.8417 208.9339 L249.0488 209.0833 L250.9016 209.36 L250.2405 210.4316 L249.6659 211.4972 L249.5414 211.7279 L249.3494 212.1004 L249.173 212.5624 L249.041 213.0826 L248.3564 214.251 L248.0865 214.5716 L246.9979 216.2823 L246.4301 217.6005 L245.9144 219.5386 L245.2615 220.5823 L244.9108 221.3921 L245.6386 221.992 L246.1394 222.7044 L246.5846 221.9412 L247.6021 220.9874 L248.1178 221.5141 L250.3913 222.3367 L251.0037 221.9412 L251.7033 222.2275 L255.2377 225.563 L256.8222 222.4502 L257.3128 222.6075 L257.7832 222.9822 L258.9733 224.9994 L259.043 225.5095 L256.377 228.5543 L261.2414 230.2397 L266.1275 233.8121 L265.0566 231.6703 L266.7048 230.8236 L267.918 229.3496 L267.9058 227.379 L268.1277 227.1339 L268.6557 227.6273 L268.6976 227.9206 L271.479 230.2075 L272.9485 231.0526 L274.4711 231.7307 L274.4313 229.9903 L275.8103 229.9314 L276.247 229.0799 L277.8289 228.8342 L278.574 228.3611 L278.5277 227.6932 L279.839 227.2634 L280.3002 227.2024 L281.3105 223.9654 L281.5257 223.086 L283.2308 221.9353 L283.82 222.615 L282.8097 224.2774 L282.1159 226.7276 L285.0247 229.4021 L283.7642 231.9957 L284.011 232.1107 L286.2872 233.1736 L286.5088 233.2775 L288.6524 231.9641 L290.0283 232.9965 L289.4932 235.4808 L293.7744 233.149 L298.3995 230.5501 L301.3426 229.2886 L303.4276 228.299 L304.4743 228.3713 L301.9128 233.8565 L300.8146 238.5849 L305.6804 239.2882 L306.031 239.3524 L306.305 239.4139 L306.2325 239.7243 L306.2979 239.9646 L306.3241 240.2617 L305.9735 240.8354 L305.9295 241.0232 L305.8216 241.0837 L305.7546 241.1934 L305.5919 241.7703 L305.3015 242.0476 L304.9264 242.2236 L304.874 242.792 L304.4474 243.5851 L302.5769 246.4847 L302.3747 247.1007 L302.4098 249.1776 L299.1198 252.1221 L302.3022 254.6277 L304.2108 256.3546 L307.1907 258.1094 L307.9087 259.8116 L306.8183 261.0558 L306.0562 261.9254 L306.4647 264.1489 L304.6922 265.7168 L303.254 265.7923 L306.4647 268.812 L308.3015 269.8047 L309.4507 268.6927 L310.2465 268.6087 L311.679 269.4194 L312.6566 268.4824 L314.7841 269.2348 L316.1297 270.222 L314.9346 271.8504 L315.531 272.2159 L321.3335 274.0107 L330.1251 275.7685 L332.6124 276.0034 L337.6661 279.0829 L338.3166 277.8725 L341.084 279.5955 L346.8801 284.68 L350.3457 289.6263 L353.345 294.5746 L355.5798 299.6567 L358.8232 298.6609 L359.1496 295.9894 L360.9524 294.9016 L361.5689 294.5083 L362.7769 301.1933 L368.0263 304.7996 L368.2874 305.5122 L368.9437 307.7808 L367.4912 310.9151 L367.9501 316.1904 L364.6628 320.7771 L366.8798 323.7587 L368.7058 331.1064 L369.4213 332.2507 L371.3112 335.2744 L370.6236 337.5358 L368.6751 339.6661 L370.2042 345.3816 L365.1434 350.3636 L373.3012 362.2114 L375.4417 358.7713 L378.6217 357.4607 L382.7838 357.4067 L386.7842 355.1904 L394.1359 356.8659 L396.4602 356.3796 L393.0548 353.1363 L393.3789 350.5953 L395.0547 350.6493 L394.2438 347.1357 L395.325 346.7575 L396.1358 343.8383 L405.2716 342.9732 L408.0724 344.4412 L407.8562 342.2794 L411.3699 342.0627 L410.6768 346.1514 L410.4042 348.8931 L410.637 349.5623 L411.5908 348.5084 L412.7291 349.2461 L412.7615 348.4763 L414.4788 349.26 L414.3648 348.4442 L417.331 349.0054 L417.6405 348.8198 L419.6948 345.4143 L421.1003 345.3602 L421.6589 349.1413 L423.4151 349.1996 L423.4246 348.2795 L423.5206 347.0876 L425.5841 347.0839 L425.337 345.4298 L424.3777 345.1794 L424.357 344.6375 L423.5339 344.3047 L423.5189 343.5119 L423.9761 343.062 L425.1324 343.245 L424.9578 341.08 L429.3708 339.8469 L429.7309 347.9467 L433.1128 346.4959 L432.5113 345.1339 L433.8753 344.6027 L435.1222 347.7317 L436.9049 346.8025 L435.977 350.5022 L431.6702 356.7717 L432.4089 358.9232 L429.5039 359.7641 L425.4868 362.4789 L423.9202 364.7731 L422.6771 366.5277 L421.7461 367.2851 L416.6673 371.4173 L412.4793 368.2052 L409.593 365.3669 L408.7447 365.5969 L408.182 366.6496 L409.6754 368.8663 L409.7373 372.2298 L409.112 374.7952 L408.134 376.3186 L407.4141 378.7716 L406.9474 380.5517 L407.3936 381.5268 L407.105 382.3927 L410.2394 385.1447 L412.4571 385.7753 L414.7086 388.0774 L414.2095 386.1112 L417.0431 386.8681 L424.1265 388.784 L423.0754 390.8057 L426.2207 392.5146 L427.7634 394.4503 L431.7407 397.868 L432.754 396.0591 L434.614 397.9434 L433.8879 399.1687 L439.6952 404.9455 L441.3285 405.5354 L440.6814 407.5229 L443.3549 408.7567 L445.2302 408.6203 L448.3404 409.4236 L447.8247 410.4521 L452.5975 414.298 L452.558 415.3366 L452.123 417.2608 L452.6489 418.2251 L451.7111 418.5727 L452.1237 420.6814 L453.3141 422.3083 L453.919 422.4896 L454.5998 422.1265 L455.9304 422.5046 L457.5637 422.7319 L458.4259 422.5655 L460.5582 424.3951 L457.609 429.068 L460.3764 430.1718 L462.426 430.7799 L469.3294 431.9649 L469.8298 432.512 L473.2311 433.5778 L478.5931 438.7971 L479.8979 439.9955 L482.8458 439.61 L485.647 438.5592 L486.4061 436.8436 L489.1953 435.4377 L489.5354 434.5532 L491.3967 432.4869 L501.1353 431.9307 L496.8541 420.3108 L493.722 415.712 L491.7977 412.5374 L491.3923 411.2928 L485.005 397.4529 L479.0418 387.4382 L479.8829 383.1571 L478.3538 377.9585 L474.8797 366.6614 L469.0513 355.6986 L466.8867 340.958 L466.5047 332.7782 L465.5172 323.1092 L464.899 316.3424 L464.6465 312.4752 L466.5483 308.5411 L466.7644 306.7027 L466.8186 300.4325 L464.0616 295.2429 L461.6291 291.8372 L457.6828 291.2968 L451.5205 290.4862 L453.4125 284.8641 L447.6283 283.4589 L448.0069 281.6749 L446.4393 280.8637 L448.9797 278.7019 L456.5479 277.4043 L455.845 275.9451 L453.2504 275.8905 L444.6015 277.8907 L435.6281 280.8097 L429.8439 282.3235 L428.5347 278.6805 L443.1418 274.4853 L447.8986 274.2151 L450.9258 272.8093 L451.7908 271.1339 L452.2772 267.296 L447.3468 268.2191 L442.7316 268.2614 L439.3582 266.5741 L437.3825 262.3808 L440.5469 258.4304 L440.9237 254.6705 L441.464 254.4827 L442.0525 253.4621 L443.7705 253.224 L444.6825 252.3961 L444.967 252.2623 L444.3359 250.7874 L446.3797 249.8279 L446.7974 251.1609 L448.2584 248.2272 L449.4427 249.5726 L450.0837 254.42 L450.4155 256.7201 L451.4095 259.7185 L453.3478 263.2686 L454.3853 259.9952 L455.4055 261.8093 L457.3342 261.5326 L457.2968 261.074 L458.9491 260.7915 L459.1816 262.0919 L458.9709 262.4761 L462.9707 267.9269 L470.7519 263.9825 L470.594 263.7898 L470.8047 263.7502 L471.5852 264.1955 L475.424 265.6248 L476.3628 265.8683 L477.9372 266.1444 L479.0438 266.389 L479.2324 266.512 L479.2658 266.6678 L479.1827 266.9444 L478.8345 267.4089 L479.9445 272.0891 L475.8417 275.8461 L477.2673 278.5853 L481.2735 274.7047 L483.7741 273.0207 L486.1736 272.1169 L490.5345 272.7403 L502.2832 271.3838 L501.5915 270.4923 L497.6173 271.2222 L492.9425 271.1976 L493.142 270.5988 L494.0532 267.9269 L499.4214 267.7054 L499.6328 268.8923 L502.9143 267.4678 L503.4736 267.9644 L506.5842 264.0553 L507.5673 261.9212 L508.0462 259.3402 L508.2661 255.1591 L504.459 254.7877 L504.7783 252.007 L503.7302 251.7421 L504.089 247.4624 L505.4643 243.8367 L505.1844 243.7789 L503.1887 243.3673 L503.5131 241.9796 L503.9689 240.7808 L504.5469 238.0754 L502.8513 236.4319 L504.9669 232.3997 L506.271 234.8483 L506.6172 237.5226 L508.4268 237.8822 L509.1515 242.404 L509.2118 241.195 L508.9595 238.6005 L510.2251 235.5087 L510.9189 232.1985 L511.135 231.1682 L512.0 227.7087 L510.3242 226.2492 L508.8108 222.9517 L503.0225 219.4952 L502.7686 220.9906 L498.196 221.9867 L496.5133 223.1647 L492.9122 224.3427 L490.1012 224.1859 L487.5124 213.6002 L490.4855 197.9236 L487.1066 195.0722 L487.6765 190.9243 L489.5773 186.5628 L488.23 186.3979 L488.0856 186.7255 L487.9573 187.1993 L487.1448 188.9818 L486.9728 189.2478 L485.7144 192.0998 L485.4244 193.4337 L485.3004 193.5697 L484.9662 193.6275 L483.7281 193.4509 L483.3213 193.4653 L482.9435 193.5429 L482.697 193.6313 L482.3835 194.2961 L482.2834 194.8892 L482.3948 195.2152 L484.0495 197.0378 L483.964 197.588 L480.3867 196.571 L478.2432 196.2734 L476.6215 195.9431 L475.4638 195.7451 L474.4358 195.4705 L474.1502 195.2093 L474.174 194.667 L475.0349 192.6212 L475.2415 191.9772 L475.4362 191.6689 L475.5339 191.4377 L477.3976 188.3887 L477.8313 188.0509 L478.1397 187.7602 L479.5708 187.142 L481.3644 186.4236 L482.7403 184.4328 L482.6824 182.8778 L482.8421 178.7896 L484.2149 177.9224 L485.6204 175.0034 L486.161 171.9766 L486.2536 169.5768 L485.0227 167.5205 L482.0302 166.5468 L475.3702 162.8074 L474.9821 163.8786 L474.6393 164.8235 L472.971 164.0842 L469.8254 162.5831 L469.1 163.2705 L467.7278 164.5708 L464.3762 170.5709 L458.6462 170.4087 L457.7274 167.8139 L455.619 167.7598 L456.133 166.3326 L460.0663 164.5296 L461.4062 163.2865 L463.662 157.3693 L462.5503 154.8681 L455.1291 150.772 L451.852 148.3146 L447.9486 145.5676 L445.3006 145.3797 L445.6673 144.0958 L446.3801 143.8822 L446.0414 140.0328 L441.645 138.8426 L441.9082 139.5707 L442.1448 140.7063 L442.2983 141.6727 L442.3194 142.4163 L442.2108 142.8805 L441.9364 143.2141 L441.5981 143.3372 L441.1086 143.4057 L440.12 143.3442 L438.6206 143.221 L437.0557 143.1814 L436.2718 143.1728 L435.5842 143.1734 L434.0952 143.259 L433.2364 143.3881 L432.2131 143.7634 L431.2787 144.0535 L430.4938 144.2238 L429.8766 144.3234 L428.9092 144.4401 L428.577 144.6066 L428.2059 145.0815 L427.842 145.4525 L427.2296 145.7561 L426.7762 145.9622 L425.7996 146.0039 L425.5576 146.0837 L425.3394 146.3632 L424.9517 147.1181 L424.5163 148.1069 L424.1149 149.1049 L423.3426 151.2731 L422.8013 152.4268 L422.5801 152.6586 L421.8319 152.9911 L420.9009 153.6555 L420.4709 153.8188 L420.1513 153.8134 L419.883 153.754 L418.5796 153.2031 L417.6105 152.9804 L416.8926 153.0366 L415.6304 153.1169 L415.0286 153.2572 L414.6344 153.5109 L414.4441 153.7883 L414.0673 154.5169 L413.8742 155.2043 L413.7292 155.9731 L413.672 157.2306 L413.4062 158.2805 L412.6913 158.6477 L411.889 158.9539 L410.9672 159.242 L409.7778 159.5246 L408.6082 159.8426 L408.0802 159.9444 L407.5298 160.151 L407.0764 161.0054 L406.5583 162.3716 L406.2788 163.7095 L405.742 164.3123 L405.3774 164.4579 L404.4107 164.4579 L403.3221 164.4482 L402.4183 164.5719 L400.7983 164.7668 L400.1669 164.5799 L399.9385 164.354 L399.8758 163.8299 L400.4246 162.3738 L400.6836 161.4701 L400.7993 161.0359 L400.9685 160.7677 L401.0543 160.4899 L401.0975 160.0439 L401.1176 160.211 L401.2449 158.9743 L401.6054 157.3024 L401.8035 155.8869 L402.0044 154.2904 L402.3856 152.0312 L402.5524 151.4053 L402.6617 151.0675 L402.6317 150.5332 L402.7315 150.0364 L402.9418 149.5107 L403.0327 149.221 L402.9909 148.872 L402.9034 148.3505 L403.0212 147.8542 L403.2761 147.5689 L403.0675 146.322 L402.4952 142.9522 L403.417 136.3706 L406.2468 126.3557 L405.166 124.38 L404.6156 124.3624 L401.6609 120.889 L401.4005 120.9468 L393.0215 127.2178 L394.6145 130.2386 L394.7956 131.7715 L393.2495 135.0075 L392.5572 137.8414 L392.6351 141.5602 L393.1583 144.8331 L390.5889 147.3269 L385.6701 150.462 L379.3454 153.3268 L379.6698 156.9485 L377.5076 163.8679 L372.6963 167.868 L361.1495 163.9611 L357.9391 167.6517 L356.4219 167.9783 L354.3172 167.3819 L354.2801 164.9782 L351.3717 165.1833 L350.4125 162.0617 L347.7223 157.8677 L348.8034 154.6245 L346.665 154.8643 L344.2086 153.7053 L342.0937 150.3667 L341.7795 150.3914 L339.9917 150.5814 L338.3074 150.6076 L337.5687 150.7335 L335.9807 151.1414 L335.1209 151.5237 L334.6239 151.7865 L332.9392 152.2175 L332.6315 152.3813 L332.4504 152.7572 L332.2043 153.0147 L331.7083 153.0746 L331.2437 152.9788 L330.8665 152.6089 L330.9131 152.1522 L331.5381 151.1559 L331.7025 150.3121 L331.8802 149.2531 L332.3724 148.3211 L332.4599 148.2258 L333.1697 147.4313 L333.3174 147.0597 L333.2912 146.633 L333.2442 145.9542 L333.6612 145.5676 L334.1868 143.7441 L334.7291 141.9388 L335.4984 140.0911 L335.5089 139.5172 L335.482 139.2928 L335.1981 139.1188 L335.0272 139.1879 L334.7508 139.2211 L334.3355 139.2227 L334.02 139.0642 L333.9209 139.076 L333.6438 138.8661 L332.9916 138.4641 L332.2867 138.0432 L331.7202 136.7272 L331.4356 134.5604 L331.5864 133.2385 L332.2567 132.5805 L332.8473 132.2234 L333.2626 131.5766 L334.759 130.2664 L335.4711 129.5586 L335.8541 129.1833 L336.3548 128.7432 L337.3243 127.3859 L337.7637 126.8516 L337.9939 126.6722 L338.2359 126.5924 L338.8619 126.5672 L339.0515 126.4687 L339.2568 126.292 L339.4382 125.9156 L339.5151 125.3052 L339.5764 124.8244 L339.8674 123.964 L339.9297 123.5603 L340.0601 123.2717 L340.4002 123.1405 L340.9428 123.0591 L341.5238 123.0366 L342.5907 123.1143 L343.2626 123.1919 L343.6939 123.2347 L344.0245 123.2267 L344.1535 123.1844 L343.9605 123.1062 L342.479 122.9697 L340.137 122.7909 L340.167 121.2708 L340.4049 120.5522 L340.5867 120.3557 L340.8087 120.2336 L341.0364 120.1587 L341.3921 120.1737 L341.6586 120.1212 L342.0089 120.0596 L342.2509 119.982 L342.3953 119.8139 L342.3347 119.6109 L342.0185 118.2573 L342.3204 117.821 L342.8548 117.3203 L343.3365 116.6997 L344.8285 114.3866 L344.4993 113.1754 L341.8629 116.2751 L339.0001 119.9922 L338.5664 119.0525 L339.3854 116.9343 L338.2744 118.9154 L337.8723 119.4728 L337.0945 120.163 L336.6057 120.4789 L335.5967 120.9351 L334.1953 123.6786 L334.7559 123.1941 L335.8411 121.2403 L336.6445 120.7214 L337.1122 120.3889 L337.6004 119.9467 L336.973 121.002 L336.5172 121.5562 L335.8384 122.506 L335.0695 123.2289 L334.6538 123.6331 L333.7041 124.3003 L332.9045 124.7265 L332.3101 125.2924 L331.6555 125.8808 L330.827 126.6304 L329.9522 127.599 L329.0007 128.3341 L328.8016 128.649 L328.7322 129.1571 L328.7815 129.7278 L328.7686 130.1026 L328.7294 130.9459 L328.5749 131.5514 L328.3135 132.475 L328.1099 133.314 L328.0374 134.04 L328.3257 135.7715 L328.3754 136.8546 L328.4207 137.9185 L328.5058 138.584 L328.0381 138.8779 L327.7824 138.5599 L327.5316 138.2408 L327.1459 136.7219 L326.495 135.1665 L325.9136 134.0684 L325.4081 133.4414 L324.9969 133.1566 L324.6769 133.1512 L324.3573 133.0426 L322.1535 135.3261 L321.7644 135.3063 L316.0201 136.4654 L312.6127 138.0845 L310.8181 138.7178 L309.3397 139.1692 L308.4673 142.116 L310.283 145.7148 L310.5315 151.2726 L310.2071 157.5433 L311.8287 161.3272 L309.6808 164.551 L304.9424 168.2448 L305.7525 172.3508 L309.7727 174.6313 L312.1531 176.6794 L314.4771 180.1932 L312.4721 179.3688 L313.0236 182.3237 L311.969 180.4004 L307.8154 174.9686 L304.8209 173.2143 L303.5603 173.55 L303.5603 171.7352 L302.2219 171.1121 L301.2279 171.2266 L298.7947 172.747 L300.0429 165.4552 L291.2898 163.9643 L284.7918 158.6895 L283.836 156.9314 L282.9189 155.9758 L281.5046 155.9372 L277.1852 152.6881 L276.9558 150.204 L275.3123 149.8217 L273.1429 147.6133 L272.2926 145.9611 L272.4839 143.2853 L273.7832 139.6157 L276.2647 138.0464 L279.168 137.4869 L279.4686 130.0293 L279.3301 127.9658 L281.0021 126.0532 L289.2185 123.0077 L291.2289 122.2613 L290.8061 119.7528 L292.7192 117.9816 L297.7224 116.794 L298.7818 113.0887 L301.4192 107.8139 L304.2095 105.0616 L310.8909 101.9773 L306.0058 99.8247 L303.3156 101.2464 L296.6515 104.0335 L291.2711 107.3475 L290.5634 113.8913 L286.1296 119.816 L283.6321 121.6793 L280.547 121.5289 L274.8153 122.8359 L274.433 128.4546 L274.3653 132.6672 L272.41 132.0135 L267.5433 134.3848 L265.2615 135.2099 L262.3181 135.2249 L260.7651 134.1332 L256.0686 134.4785 L254.8782 134.5503 L248.8333 137.7493 L245.675 138.7162 L241.4391 140.4627 L238.1851 141.1555 L236.7609 141.3016 L231.582 146.5345 L231.8005 149.4582 L233.6564 149.3613 L233.523 150.6349 L235.8643 151.6174 L238.6668 149.4705 L239.2428 150.0964 L240.9513 151.952 L239.1345 153.0441 L237.1469 154.5726 L235.9487 156.6707 L235.1093 157.7542 L233.5914 157.6477 L234.489 155.2402 L229.9984 154.3247 L228.8142 155.624 L227.0655 156.4346 L228.3373 153.7797 L228.3693 153.1597 L227.4155 152.6035 L226.9477 151.3368 L229.1798 150.8395 L227.6537 150.1553 L224.3791 150.3619 L221.0407 149.4084 L219.419 148.4067 L218.3543 148.7724 L217.9883 150.2506 L217.75 151.2522 L215.2702 149.3286 L214.8501 148.4131 L214.6091 147.4987 L214.1574 147.3258 L212.8159 147.6583 L211.632 147.6277 L210.8484 147.8981 L210.3575 148.1931 L209.4534 148.623 L207.6516 150.4497 L205.0101 154.0875 L202.983 155.79 L200.4153 157.8715 L196.6372 158.6012 L189.3515 157.6932 L184.9222 155.571 L182.6762 154.8718 L180.0677 155.1508 L177.931 155.9051 L177.0936 155.2038 L178.6629 153.7583 L175.3661 152.8958 L176.4747 154.4243 L176.6657 156.4886 L175.0604 158.1707 L172.3848 157.6734 L171.5821 156.8709 L168.5719 157.5711 L167.1123 158.1659 L164.788 157.2472 L163.3825 158.1659 L160.3012 157.3554 L157.2739 157.1932 L153.6524 155.3012 L148.7332 151.8952 L148.4214 146.9537 L145.0031 147.0843 L143.1111 145.4086 L142.7979 148.3564 L139.8398 146.156 L139.479 143.6557 L137.6514 133.4082 L136.6244 134.3811 L133.0566 134.2729 L132.2996 130.9871 L130.4832 127.6386 L130.3545 125.6361 L131.7055 124.6574 L133.7565 124.757 L137.1241 124.7714 L130.8123 120.8794 L131.9663 119.8995 L135.9286 121.6932 L137.5864 122.2822 L136.8525 120.0559 L136.0117 117.4949 L134.0394 111.4823 L132.6577 107.9392 L132.2056 106.4876 L132.1876 105.8279 L129.4201 98.8576 L127.1441 93.9092 L125.5575 86.9113 L124.8883 81.9005 L125.002 75.818 L123.2332 75.434 L116.8548 73.5174 L115.5609 72.0045 L110.0423 72.2776 L111.6524 76.4692 L109.9932 77.1841 L108.8992 78.0329 L108.4887 77.9232 L107.0099 78.7955 L104.2792 80.5071 L103.2005 79.7948 L101.5237 81.4099 L100.3734 82.8392 L102.1708 85.3026 L96.2546 89.5224 L99.0629 92.4034 L102.3818 96.9336 L96.3237 96.1893 L93.3724 96.2605 L91.8375 93.514 L89.7174 94.4688 L86.9779 95.9483 L85.7357 95.9601 L83.404 96.0361 L81.9576 97.4905 L80.4442 99.2035 L80.6413 99.3925 L80.8455 99.7219 L81.4722 100.2659 L82.507 101.3042 L83.4101 102.5326 L84.529 104.1856 L85.1397 105.2747 L85.3109 106.0105 L85.3293 106.3232 L85.3109 106.4902 L85.1186 106.6594 L84.8568 106.6134 L83.9782 106.1481 L82.7429 105.8091 L81.9624 105.6324 L81.2874 105.5301 L80.4837 105.5216 L80.0197 105.6024 L79.7654 105.701 L79.5663 105.8123 L79.3859 106.1593 L79.3021 106.4656 L79.2854 106.9282 L79.5908 109.3298 L79.2888 110.1523 L79.1122 110.4885 L78.8923 110.8307 L78.5999 110.8907 L78.349 110.5769 L78.0678 109.9713 L77.8363 109.7373 L77.7209 109.3828 L77.6386 109.1017 L77.6726 108.7826 L77.6924 108.3874 L77.6774 108.0645 L77.6668 107.6972 L77.6267 107.0477 L77.6552 106.404 L77.6631 105.7486 L77.6113 105.0418 L77.641 104.8881 L77.7482 104.7344 L77.7284 104.5331 L77.625 104.3955 L77.3812 104.26 L77.0395 103.9527 L76.8522 103.6844 L76.7695 103.4814 L76.7205 103.196 L76.6905 102.788 L76.5248 102.2986 L76.1313 102.1235 L75.6564 102.0748 L75.2438 102.222 L74.9572 102.5722 L74.7748 103.142 L74.7155 103.8911 L74.6117 104.35 L74.4037 104.7489 L74.2335 105.2206 L74.066 105.716 L73.9452 106.1138 L73.919 106.3789 L73.9517 106.569 L74.0487 106.7703 L74.2454 107.0375 L74.5286 107.2597 L74.6165 107.1473 L74.6771 106.9266 L74.8156 106.7933 L75.0107 106.6482 L75.1805 106.6129 L75.3497 106.7333 L75.6275 107.189 L75.9049 107.8439 L76.1833 108.6589 L76.4713 109.5252 L76.6412 110.7702 L76.7488 111.3779 L76.7331 111.7286 L76.5762 111.9899 L76.3403 112.1982 L76.2678 112.4788 L76.3304 112.7958 L76.4754 113.1128 L76.518 113.5053 L76.4866 113.766 L76.3018 113.9968 L76.1119 114.1853 L75.832 114.1901 L75.622 114.1334 L75.2803 113.947 L74.9821 113.7987 L74.6522 113.7516 L74.3986 113.773 L74.1716 113.8538 L74.0003 114.0396 L73.9721 114.3631 L74.2046 114.7277 L74.4034 115.0913 L74.5531 115.4902 L74.5824 115.85 L74.4698 116.1595 L74.2832 116.3763 L73.9159 116.6151 L73.5347 116.8213 L73.0104 117.0451 L72.5213 117.119 L71.9368 117.2438 L71.5477 117.5045 L71.2053 117.8708 L71.0572 118.1267 L70.6882 118.7923 L70.5126 119.1772 L70.2964 119.2715 L70.1191 119.1622 L70.0016 119.0311 L69.8249 118.7714 L69.6163 118.365 L69.553 117.8831 L69.507 117.4231 L69.4362 116.8791 L69.5121 115.6674 L69.5077 114.8337 L69.4328 113.9363 L69.3899 113.3013 L69.2687 112.5404 L69.0587 112.3235 L68.8231 111.8968 L68.7295 111.6023 L68.6277 111.2414 L68.3595 111.0218 L68.1056 110.9608 L66.9383 111.1075 L65.6101 111.2794 L65.3452 111.2483 L65.2417 111.0722 L65.1597 110.6749 L65.1471 109.8133 L65.1192 109.1424 L65.0481 108.676 L64.9517 108.0377 L64.8319 107.6891 L64.5116 107.0396 L63.8743 106.3312 L63.1826 105.611 L62.8858 105.3561 L62.6615 105.3786 L62.6993 105.5724 L63.571 106.3831 L63.8321 106.7001 L63.9111 106.9138 L63.9949 107.3256 L64.0255 107.5397 L64.0248 107.7336 L63.9918 108.019 L63.8236 108.4275 L63.5884 108.6407 L63.039 108.8966 L62.4086 108.9196 L62.1951 108.8345 L61.9899 108.699 L61.8455 108.3435 L61.753 108.0591 L61.5845 107.7448 L60.9697 106.9143 L60.6249 106.3366 L59.8545 105.3625 L58.335 103.218 L58.2689 103.9644 L55.7302 104.7896 L50.6844 106.6241 L45.1038 107.1596 L43.2367 107.7823 L43.0308 108.4452 L42.5045 111.5552 L41.7696 112.9548 L38.9211 111.0898 L38.9425 109.6114 L34.5823 109.0663 L34.2807 107.7502 L30.6758 107.2522 L26.6556 106.8024 L21.5962 109.0326 L19.7233 110.6379 L20.685 112.0338 L19.838 112.2812 L17.9267 112.0906 L14.7926 112.8167 L14.0199 115.1395 L10.3966 115.0334 L8.409 115.4923 L7.9845 115.5625 L6.4214 116.7918 L3.4782 119.8878 L0.0381 122.6019 L0.4204 126.6534 L0.688 130.7055 L1.0702 134.107 L1.7201 136.3241 L1.8777 138.1626 L1.3061 138.607 L0.4585 137.8912 L0.0 139.7645 M69.2435 125.989 L69.2983 125.8417 L69.4416 125.6688 L69.6432 125.5767 L70.1153 125.4412 L70.2937 125.4777 L70.3601 125.5863 L70.5643 125.5954 L70.6967 125.5307 L70.9963 125.3293 L71.9109 125.097 L72.3327 125.0258 L72.8144 125.0108 L73.4836 125.0654 L74.0514 125.2822 L74.5484 125.6725 L74.98 126.284 L75.5349 126.5512 L75.8399 126.6743 L76.1677 126.9056 L76.3614 127.3479 L76.4053 127.992 L76.6827 129.6845 L77.0115 130.7205 L77.1719 131.6462 L77.7615 133.1325 L77.8016 133.5721 L77.7458 133.7921 L77.6079 133.9694 L77.3778 134.1471 L77.083 134.2269 L76.6956 134.1434 L75.7898 133.6909 L74.7533 133.3568 L73.503 133.0142 L73.0867 132.9291 L72.6193 132.9039 L72.4049 132.8477 L72.2251 132.7625 L72.1029 132.671 L72.0093 132.498 L71.851 132.149 L71.2366 130.6675 L70.9963 130.0421 L70.8091 129.6529 L70.6501 129.299 L70.5554 128.9563 L70.4152 128.3962 L70.2065 127.7527 L70.0067 127.3795 L69.7596 127.017 L69.5339 126.7488 L69.3133 126.4457 L69.2486 126.2305 L69.2435 125.989 M81.6444 99.8632 L81.8494 99.6624 L82.2664 99.399 L82.4975 99.5928 L83.1395 100.5551 L83.3199 101.1296 L83.2641 101.2266 L83.2171 101.309 L82.8239 101.1484 L82.4965 100.8416 L82.1036 100.5701 L81.6764 100.0116 L81.6444 99.8632 M84.8177 128.9027 L84.993 128.8717 L85.2439 128.9477 L85.4706 128.9831 L85.5941 128.9242 L85.6653 128.8331 L85.7232 128.4337 L85.8467 128.0161 L86.0503 127.7393 L86.2794 127.5953 L86.4387 127.5128 L86.6984 127.4228 L87.2979 127.3404 L88.044 127.2349 L88.9713 127.0636 L89.3934 127.0368 L89.6082 127.093 L89.7511 127.2354 L89.7729 127.417 L89.6868 127.5829 L89.6266 127.796 L89.7287 127.9706 L89.8699 128.1376 L90.1406 128.3373 L90.3891 128.4717 L90.6277 128.5253 L90.8581 128.5119 L91.187 128.3941 L91.3841 128.2635 L91.5475 128.0546 L91.6363 127.8303 L91.8508 127.4844 L92.0826 127.2039 L92.3505 126.8997 L92.6909 126.5967 L93.0929 126.4023 L93.4319 126.2058 L93.8128 125.9997 L94.1679 125.8546 L94.5287 125.6795 L94.8198 125.528 L95.0785 125.3898 L95.474 125.2207 L96.0153 125.0579 L96.8996 124.8143 L97.5849 124.6049 L98.1686 124.5535 L98.7361 124.5669 L99.0687 124.4775 L99.3413 124.4154 L99.5507 124.3077 L99.6712 124.1428 L99.6504 123.9319 L99.247 123.1566 L99.0816 122.3475 L99.0156 121.803 L98.9172 121.267 L98.9931 121.0978 L99.1817 120.9779 L99.4635 120.987 L99.6947 120.9008 L99.8799 120.8735 L100.1443 120.8606 L100.514 120.9179 L100.7479 120.9329 L100.9916 120.9083 L101.3364 120.8028 L101.5468 120.6224 L101.6891 120.4403 L101.7088 120.2438 L101.6118 119.96 L101.2364 119.695 L101.1329 119.4798 L101.1816 119.2415 L101.3916 119.0996 L101.538 118.9507 L101.7545 118.8613 L102.0462 118.8742 L102.5881 118.8763 L103.0728 118.9679 L104.3735 119.3282 L105.7443 119.9857 L105.8488 120.0896 L106.0395 120.1876 L106.4388 120.1726 L106.7342 120.4955 L107.0835 120.904 L107.4218 121.3816 L107.9233 121.2917 L108.4662 121.1819 L109.0459 121.0968 L109.6035 120.9902 L110.0045 120.8687 L110.3721 120.79 L110.6335 120.8312 L110.9052 120.9195 L111.1339 121.0903 L111.3116 121.282 L111.6847 121.6874 L111.8559 122.1419 L111.9979 122.1585 L112.1082 122.1114 L112.1136 121.8341 L112.0646 121.5492 L111.9557 121.3688 L111.7984 121.0288 L111.6871 120.7466 L111.152 120.0018 L110.9433 119.7946 L110.7782 119.5483 L110.2162 117.9002 L110.2152 117.5318 L110.1393 116.9444 L110.0596 116.4454 L109.9126 116.1092 L109.6654 115.7467 L109.049 115.0067 L108.3651 114.188 L107.5454 113.2504 L106.8799 113.0255 L106.5998 112.8269 L106.5116 112.4981 L106.5426 112.2325 L106.5058 112.0092 L106.3877 111.8347 L106.1848 111.7136 L105.9278 111.59 L105.7362 111.4047 L105.648 111.1139 L105.569 110.7413 L105.5717 110.164 L104.9978 108.978 L104.767 108.5893 L104.5853 108.3253 L104.2694 108.0725 L103.9089 107.6897 L103.6219 107.3175 L102.8775 106.4383 L102.6313 106.2841 L102.4434 106.2487 L102.244 106.3601 L102.0935 106.5143 L102.0874 107.0241 L102.0353 107.234 L101.9359 107.4498 L101.8018 107.6211 L101.7545 107.8305 L101.7293 108.1004 L101.7483 108.4179 L101.7882 108.5876 L102.0074 108.7601 L102.1701 108.9876 L102.2821 109.3517 L102.5125 109.9788 L102.7396 110.4553 L102.8335 110.7927 L102.806 111.0047 L102.7008 111.1337 L102.4914 111.2028 L102.2232 111.1434 L100.9732 110.6459 L100.77 110.5249 L100.8034 110.3611 L101.011 110.2776 L101.2255 110.2513 L101.2551 110.0976 L101.154 109.9402 L100.7547 109.877 L100.5961 109.567 L100.5399 109.0208 L100.592 108.5732 L100.2696 108.147 L99.0448 106.8169 L98.7024 106.5823 L98.3137 106.3291 L98.0134 106.2054 L97.6128 106.0121 L97.1655 105.5521 L96.8853 104.8346 L96.7876 104.23 L96.7437 103.8241 L96.8938 103.505 L97.1982 102.9835 L97.4657 102.7569 L97.7973 102.6584 L98.2078 102.7345 L98.5189 102.7885 L98.826 102.8094 L99.2161 102.796 L99.8152 102.6311 L100.0766 102.4341 L100.029 102.2804 L99.5299 101.9918 L99.3965 101.8477 L99.3801 101.7144 L99.4738 101.528 L99.7604 101.1393 L99.9827 100.9765 L100.1801 100.9717 L100.5736 101.225 L100.7067 101.1259 L100.8364 100.8389 L100.8837 100.7505 L101.0103 100.7596 L101.3 100.8357 L101.5635 100.9347 L101.7803 100.9476 L101.9505 100.7762 L102.1047 100.7719 L102.2862 100.8319 L102.9823 101.15 L103.657 101.4124 L104.027 101.7112 L104.2813 102.0539 L104.523 102.2525 L105.2463 102.5958 L105.9986 102.9406 L106.2488 103.1286 L106.4289 103.3395 L107.285 104.3409 L107.5287 104.675 L107.8446 105.0097 L108.2106 105.3144 L108.7559 105.7861 L109.2821 106.2996 L109.4513 106.4581 L109.5398 106.6316 L109.5912 106.8121 L109.5031 106.9877 L109.6712 107.3577 L109.9555 107.8273 L110.6512 108.9839 L111.8253 110.7755 L113.2713 112.8547 L113.9065 114.1494 L114.2582 115.9394 L114.4876 116.8764 L114.8117 118.1171 L115.198 119.4326 L115.8945 121.3115 L116.8452 124.8566 L117.7259 128.5408 L117.9924 129.2647 L118.0649 129.7455 L118.0656 129.9104 L117.9526 130.0164 L116.7748 130.2707 L115.9282 130.4271 L114.8151 130.6209 L114.6193 130.6011 L114.4542 130.5143 L114.2759 130.4779 L113.978 130.456 L113.7316 130.4956 L113.4055 130.5984 L112.9636 130.744 L111.5149 130.9978 L110.5713 131.19 L109.3209 131.5209 L108.2545 131.7431 L106.5364 131.9327 L103.129 132.3037 L101.6694 132.588 L101.4273 132.5832 L101.2374 132.5339 L101.1509 132.3792 L101.0805 132.1554 L100.6631 129.8644 L100.4296 128.9327 L100.3557 128.4037 L100.318 128.2094 L100.2312 128.1328 L100.0232 128.0514 L99.2185 127.834 L98.8906 127.6022 L98.5744 127.4277 L98.2507 127.3891 L97.6172 127.1075 L96.9088 126.6893 L96.5926 126.5148 L96.3631 126.4939 L96.1204 126.5672 L95.8604 126.6957 L94.9277 127.2601 L94.5978 127.4892 L94.2846 127.6199 L93.983 127.5642 L93.6559 127.2986 L93.3781 127.2017 L93.0592 127.2017 L92.7739 127.3233 L92.4928 127.5567 L92.2609 127.8367 L92.2381 128.0482 L92.3154 128.3293 L92.3321 128.5847 L92.3229 128.7507 L92.2014 128.9445 L92.0233 129.1116 L91.8034 129.2111 L91.5658 129.2449 L91.3551 129.2224 L90.7754 128.8273 L89.5598 128.2527 L89.3614 128.2249 L89.1728 128.2902 L89.052 128.4503 L88.8879 128.6543 L88.5383 129.4387 L88.4375 129.9265 L88.0379 130.1396 L87.5709 130.1963 L87.1549 130.1936 L86.7658 130.0957 L86.4537 129.9543 L86.164 129.7567 L85.7378 129.353 L85.3759 129.1983 L84.8912 129.0291 L84.8177 128.9027 M87.6931 97.9237 L87.7356 97.7583 L87.8285 97.6453 L88.0481 97.6233 L88.0062 97.3957 L88.1567 97.1205 L88.6455 96.6439 L89.2606 96.2926 L89.9166 95.898 L90.177 95.793 L90.5518 95.694 L90.8295 95.6699 L91.3252 95.891 L91.8143 96.2969 L92.2266 96.7462 L92.3784 97.2421 L92.4407 97.5157 L92.4162 97.7122 L92.2831 97.9323 L91.9856 98.0704 L91.4212 98.1631 L90.8908 98.2959 L90.6188 98.4062 L90.3169 98.6659 L90.0728 98.7687 L89.887 98.7912 L89.6718 98.6911 L89.4822 98.5642 L89.2262 98.5272 L88.9716 98.4613 L88.9015 98.4796 L88.8392 98.5256 L88.7878 98.6193 L89.0472 98.8838 L89.2487 99.1114 L89.2964 99.2656 L89.1796 99.4204 L89.0189 99.4493 L88.8334 99.317 L88.334 98.6648 L88.029 98.3045 L87.8143 98.1267 L87.6931 97.9237 M111.1421 89.7709 L111.2721 89.6049 L111.4369 89.449 L112.1095 89.1732 L112.1674 89.011 L112.0867 88.5847 L113.3534 87.3006 L114.233 86.6167 L114.9427 85.9291 L115.3141 85.5206 L116.098 85.0033 L116.5634 84.8544 L116.8994 84.9106 L117.1186 85.1264 L117.6588 86.2344 L117.7303 86.7442 L117.6738 87.3188 L117.4641 87.8629 L117.4001 88.1328 L117.3003 88.5081 L117.027 88.687 L116.6709 88.8225 L116.527 89.1502 L116.3581 89.3939 L116.387 89.6327 L116.5382 89.9636 L116.64 90.2469 L116.6444 90.5618 L116.6124 90.9388 L116.6148 91.1567 L116.7029 91.3254 L116.8701 91.3875 L117.1819 91.3693 L117.4055 91.3645 L117.6823 91.2258 L117.8981 91.1316 L118.1558 91.183 L118.5095 91.3093 L118.5527 91.508 L118.5091 91.6601 L118.4206 92.0135 L118.1306 92.2963 L118.0377 92.526 L117.8944 92.9019 L117.9032 93.1338 L118.0605 93.2361 L118.4564 93.3089 L118.826 93.4872 L119.1559 93.7769 L119.3955 94.0447 L119.5045 94.1807 L119.5467 94.3692 L119.5521 94.5336 L119.6617 94.6412 L119.8289 94.7424 L120.0866 94.7933 L120.3398 94.789 L120.7544 94.6781 L121.1476 94.3301 L121.3927 94.0382 L121.8723 93.8053 L122.1651 93.5857 L122.2348 93.325 L122.1525 93.0829 L121.9734 92.76 L121.8686 92.5351 L121.8669 92.3611 L121.9632 92.0778 L122.2039 91.9466 L122.5868 91.9145 L122.7083 91.9193 L122.8503 91.9359 L123.0552 91.9498 L123.3575 92.0489 L123.4889 92.096 L123.6142 92.1731 L123.7735 92.2117 L123.9103 92.2631 L124.0781 92.4125 L124.1687 92.5999 L124.1159 92.8441 L123.9811 93.1274 L123.7527 93.3587 L123.254 93.7539 L122.8673 94.155 L122.7495 94.7413 L122.7785 95.1761 L122.983 95.8332 L122.9984 96.1609 L122.9858 96.4147 L122.9136 96.5786 L123.0368 96.7574 L123.3183 96.9267 L123.5927 97.2763 L123.7602 97.702 L123.9287 98.1765 L124.1697 98.569 L124.4692 99.0075 L124.5377 99.3727 L124.7055 99.8424 L124.8018 100.7179 L124.825 101.3888 L125.2328 101.5623 L125.7767 101.9034 L126.3067 103.2067 L126.5706 103.9505 L126.5318 104.5079 L127.1458 104.9085 L127.6653 105.165 L129.4187 105.7085 L131.309 106.3853 L131.9115 106.7714 L132.6447 108.5555 L133.5093 111.0684 L133.719 111.523 L133.5573 111.7854 L132.3826 112.1897 L131.1674 112.4151 L130.8974 112.1425 L130.698 111.5316 L129.9998 110.118 L129.4796 108.8527 L128.7873 107.5649 L127.7575 106.2884 L126.946 105.5339 L126.2502 105.0996 L125.8207 105.0257 L124.5891 104.9572 L123.4133 105.0322 L122.9088 105.0595 L122.501 105.0461 L121.9921 104.7976 L121.73 104.6697 L121.4557 104.6397 L121.1204 104.6659 L120.927 104.6654 L120.5481 104.6921 L120.3082 104.5856 L120.1032 104.2129 L119.8469 103.7861 L119.4017 102.8094 L119.0619 102.5926 L118.8414 102.5337 L118.0581 102.4137 L117.2826 102.3205 L116.5103 102.2108 L116.1348 101.9848 L115.8564 101.5628 L115.7559 101.211 L115.6807 100.7693 L115.7764 100.4999 L115.8145 100.1085 L115.9067 99.6994 L116.3853 98.6182 L116.3132 98.3409 L116.1491 98.2252 L115.7879 98.1963 L115.4421 98.2964 L115.1051 98.5074 L114.9162 98.5449 L114.5468 98.3714 L114.3164 98.0646 L113.8691 96.645 L112.694 94.0859 L111.9955 92.1945 L111.187 90.1013 L111.1421 89.7709 M113.2625 132.5355 L113.3707 132.149 L114.1053 131.1483 L114.9352 130.6423 L115.9139 130.4608 L116.736 130.3419 L118.2096 130.0159 L119.7863 129.5463 L120.0134 129.625 L120.2765 129.8403 L120.495 130.4876 L120.6312 131.2564 L120.684 131.6912 L120.8382 132.686 L120.9726 132.9606 L121.3542 133.1175 L121.7498 133.2294 L122.2365 133.3354 L122.9735 133.5126 L123.5941 133.8055 L124.1013 134.1219 L124.3436 134.4464 L124.4379 134.7891 L124.6098 135.529 L124.361 139.1906 L124.5819 139.4984 L124.9448 135.7405 L126.1563 135.5643 L126.4388 136.1211 L126.6257 136.9457 L126.8844 137.6444 L126.8153 138.456 L126.608 138.6996 L126.8987 139.0664 L127.107 139.4867 L127.5216 142.1941 L127.5816 142.4495 L127.6595 142.6155 L127.7048 142.9897 L127.6922 143.6049 L127.7504 144.3277 L127.9335 145.1232 L127.9761 145.2351 L128.0084 145.2603 L128.0333 145.2282 L128.1122 145.1602 L128.1991 144.916 L128.0016 144.0054 L127.8975 143.1418 L127.9162 142.8179 L128.1371 142.3922 L128.0411 141.1576 L127.6289 140.3733 L127.4651 139.3266 L127.3644 138.4914 L127.331 137.7359 L127.2561 136.6351 L127.1012 134.7414 L126.6618 133.9463 L126.4477 133.5496 L126.417 133.0565 L126.4283 132.8552 L126.6577 132.7106 L126.8684 132.656 L127.1247 132.6153 L127.4144 132.6528 L127.8787 133.3756 L128.1599 133.7798 L128.2607 134.6145 L128.2842 135.0498 L128.4751 135.4278 L129.0017 135.5044 L129.4987 135.4862 L130.1639 135.4642 L130.4746 135.6307 L130.6949 136.013 L131.1864 137.6765 L131.4591 138.4908 L131.9431 139.1328 L132.1699 139.8063 L132.3312 140.6629 L132.5623 141.1314 L132.6982 141.5356 L132.8646 142.6224 L133.0437 143.4635 L133.1642 144.302 L133.3187 145.3791 L133.4239 145.8583 L133.4127 146.0055 L133.5985 147.064 L133.6836 149.4491 L133.7677 149.9058 L133.9311 150.295 L134.0441 150.7484 L133.9927 151.0472 L133.5655 151.5954 L133.028 151.953 L132.5378 151.983 L131.9888 151.5242 L131.3209 151.2838 L131.1136 151.2506 L130.4552 151.3309 L130.1077 151.5777 L129.8926 151.7207 L129.689 151.7159 L129.3523 151.1644 L128.9997 150.0487 L128.9163 149.6483 L128.566 148.7558 L128.5255 148.4811 L128.3567 146.8852 L128.1718 146.6785 L127.7191 146.8568 L126.6628 147.3028 L126.1713 147.4061 L125.4979 147.3959 L124.8917 147.3001 L124.44 147.0447 L123.543 146.7026 L123.0236 146.6833 L122.6335 146.6967 L122.003 146.8804 L122.0204 147.6245 L122.1109 149.0149 L122.2008 149.5176 L122.4139 150.3598 L122.4044 150.802 L122.1814 151.2554 L121.9305 151.4412 L121.631 151.6425 L121.1244 151.8808 L120.6918 151.9043 L119.2672 151.5842 L119.2301 151.5852 L118.5769 151.4262 L118.2487 151.2196 L118.1194 150.7506 L117.4971 149.8811 L117.1958 149.4079 L116.9456 148.7992 L116.483 147.8387 L116.2427 147.0501 L116.0729 146.7379 L115.9602 145.9665 L115.9575 145.6533 L115.4741 142.7873 L114.9451 140.4016 L114.5206 137.8537 L114.3136 136.6303 L113.8738 135.3121 L113.6376 135.1178 L113.496 134.9845 L113.3442 134.6102 L113.3581 134.206 L113.432 133.6154 L113.2625 132.5355 M120.2043 167.755 L120.3017 167.2004 L120.3313 166.755 L121.7014 161.3443 L122.0813 161.0456 L122.8806 161.0552 L124.1816 161.7367 L124.7382 162.0194 L124.8702 162.248 L124.9162 162.6275 L124.922 164.6918 L124.5751 165.854 L124.4992 166.6683 L124.5659 167.2202 L124.8209 167.8894 L125.0534 168.9461 L125.114 170.0238 L124.8944 170.7191 L124.3811 171.232 L123.8963 171.4606 L123.0852 171.4285 L122.7403 171.3348 L121.7511 170.9119 L120.8133 170.2309 L120.3807 169.0521 L120.2043 167.755 M180.658 199.6279 L180.6644 199.4187 L180.8496 199.1489 L180.963 199.0477 L181.1927 198.4284 L181.1839 198.1147 L181.0644 197.8867 L181.093 197.6019 L181.143 197.4167 L181.2227 196.874 L181.3221 196.4158 L181.9321 196.7054 L182.1207 196.7455 L182.3249 196.8761 L182.4543 196.9864 L182.8866 197.1229 L183.3036 197.2952 L183.822 197.625 L184.0753 198.4038 L183.823 199.9561 L183.4983 199.8308 L183.3662 199.8565 L183.0262 200.0042 L182.4815 200.0562 L182.2681 200.0091 L182.0526 200.0256 L181.8463 200.0797 L181.4371 200.1343 L181.0712 200.2269 L180.6886 200.2199 L180.6954 199.8362 L180.658 199.6279 M202.6848 162.5023 L202.6937 161.8325 L203.1123 160.6135 L203.3537 160.09 L203.7738 159.0112 L204.0399 158.5701 L204.4192 158.0604 L204.5315 157.5476 L204.6214 156.9308 L204.9308 156.5299 L205.3434 156.1016 L205.5309 155.7734 L205.8267 155.3403 L206.1705 154.8065 L206.7268 154.3595 L207.1315 154.1063 L207.7657 154.3001 L208.5183 152.9633 L208.49 152.4092 L208.2987 151.9038 L208.3164 151.6179 L208.392 151.3159 L208.8539 150.8138 L210.1733 149.6654 L211.1377 148.9469 L211.7766 148.5106 L212.0071 148.3377 L212.2597 148.1471 L212.8271 147.8794 L213.6877 147.6004 L214.009 147.4987 L214.4022 147.5528 L214.5237 147.7562 L214.6946 148.4528 L214.8399 148.8961 L214.9128 149.4202 L215.3124 149.6092 L216.594 150.5739 L217.3681 151.2603 L217.7255 151.4594 L217.9128 151.6548 L218.1612 151.6248 L218.4227 151.627 L218.7706 151.8272 L219.3772 152.1661 L219.2897 152.7245 L219.1198 153.2004 L219.0463 153.7524 L219.0531 153.9387 L219.8296 154.1957 L220.0597 154.2208 L220.3167 153.7053 L220.2602 152.9943 L220.1366 152.414 L220.1802 151.6907 L220.3082 151.3068 L220.6074 151.1832 L221.2375 151.3979 L222.4653 151.6366 L223.3333 151.9386 L225.0578 152.2871 L226.9106 152.339 L227.0859 152.7106 L226.897 152.7481 L226.2244 153.0232 L225.8585 153.1164 L225.2011 153.5982 L224.5418 154.1432 L224.3134 154.3745 L223.1914 155.737 L222.737 156.2574 L222.4217 156.6498 L222.2144 157.0963 L221.6626 158.3362 L221.1316 159.5059 L220.7946 160.1574 L219.3843 162.2292 L218.4506 164.1351 L217.9679 165.2368 L217.7711 165.7571 L217.4406 166.4247 L216.5457 167.9825 L215.9541 168.9702 L215.2089 170.2866 L214.9209 170.7887 L214.7987 170.9788 L214.6132 170.8846 L214.0417 170.7202 L213.9324 170.634 L212.821 169.5291 L211.4053 168.119 L208.5186 166.4006 L206.8292 165.3787 L206.6257 165.3744 L205.4278 166.7074 L204.734 167.2084 L204.4893 167.141 L203.545 165.5639 L203.1906 164.7925 L202.7161 162.9402 L202.6848 162.5023 M204.3429 190.9474 L206.0551 190.5727 L206.2628 189.304 L206.9844 190.2997 L207.7367 195.9201 L206.4977 196.5839 L205.1122 193.3454 L204.3429 190.9474 M216.2737 169.5371 L216.4711 169.1303 L217.843 166.7149 L218.2082 166.3599 L218.7253 165.8299 L219.849 164.5542 L221.5677 161.5183 L221.6402 161.1168 L221.5135 160.3079 L221.5534 160.1419 L221.6044 159.8169 L222.0664 158.7575 L222.0517 158.3137 L222.2134 157.8088 L222.7172 156.9774 L223.0106 156.5636 L223.2741 156.3425 L223.6104 155.9624 L224.8328 154.8354 L226.0991 153.7074 L226.4644 153.489 L227.1026 153.1303 L227.2606 153.1158 L227.7787 153.2036 L228.0408 153.3316 L228.1303 153.5147 L228.1245 153.7481 L227.876 154.4521 L227.6027 155.154 L227.1591 155.9254 L226.3983 157.2344 L226.4715 157.6423 L226.7507 157.8313 L226.6884 159.4823 L226.6914 160.5097 L226.0651 161.4096 L225.6712 162.0338 L225.3547 162.2956 L225.0854 162.6286 L224.9945 162.9161 L224.714 163.4782 L224.0407 164.2287 L223.6948 165.051 L223.4181 165.8021 L223.2836 166.2111 L223.0811 166.5361 L222.885 166.6169 L222.5814 166.8824 L222.2362 167.2684 L222.0017 167.5682 L221.8189 168.1769 L221.1657 168.8525 L219.8599 169.6116 L219.1491 169.9306 L218.0057 170.3503 L217.3746 170.5286 L216.8864 170.3696 L216.5712 170.1217 L216.3619 169.8273 L216.2737 169.5371 M224.8743 205.1288 L224.9659 204.8462 L225.3805 204.1948 L225.5225 203.4069 L225.6784 202.6736 L225.6716 201.9665 L226.1849 201.2814 L226.5005 201.0544 L226.7558 200.684 L227.4012 200.0246 L228.1266 199.3453 L228.7669 198.521 L229.2397 198.1923 L229.6645 198.1072 L230.1462 198.2138 L230.3994 198.3888 L230.8239 198.8015 L230.8818 199.0258 L230.9288 199.3351 L230.8369 199.8554 L230.846 200.494 L230.8675 200.9517 L230.9066 201.4366 L231.1459 201.6598 L231.3124 201.8381 L232.2771 202.5842 L232.5933 202.8802 L232.9051 203.424 L233.0893 203.8282 L233.5795 204.205 L233.812 204.3318 L234.3641 204.7402 L234.5622 205.0191 L234.7266 205.3023 L234.679 205.7487 L234.3733 206.6243 L233.8743 207.0145 L233.5363 207.1376 L233.1976 207.174 L232.6376 207.1012 L232.0184 206.8952 L231.6596 206.6864 L231.131 206.2705 L231.0207 205.8022 L230.8852 205.4714 L230.6037 205.1037 L230.3521 204.6589 L230.3606 204.2895 L230.5979 203.9315 L230.8355 203.6553 L230.8066 203.4551 L230.3909 203.0547 L228.7175 200.8392 L228.3441 200.5497 L228.1072 200.767 L227.8563 200.9549 L226.5124 202.4547 L226.4 202.8224 L226.2053 203.2565 L227.4424 204.2992 L227.6759 204.5904 L227.764 204.8805 L228.6562 205.5865 L229.3724 206.1153 L229.512 206.2598 L229.512 206.4718 L229.3881 206.8063 L229.2336 207.8913 L229.221 209.3627 L229.1437 209.5939 L228.7087 209.6319 L228.3148 209.5345 L227.5237 209.1454 L227.2214 208.8039 L227.2653 208.4062 L227.8018 207.4834 L228.7335 206.0666 L228.6787 206.0152 L228.6147 206.1249 L228.2784 206.582 L227.9206 207.1831 L227.3096 207.9309 L226.8398 208.0021 L226.6193 207.9753 L226.3578 207.6643 L225.5524 206.8181 L225.2801 206.3685 L224.8743 205.1288 M227.762 163.5794 L227.8505 163.3502 L227.9397 163.0874 L228.1426 162.8058 L228.7155 162.0627 L229.0644 161.468 L229.2618 160.8186 L229.5886 159.992 L230.1584 159.2907 L230.6401 158.9031 L231.5926 157.826 L232.2199 156.8832 L232.2951 156.3018 L232.287 155.9147 L232.1597 155.4988 L232.0616 155.2878 L232.2802 155.0142 L232.5457 155.011 L233.0621 155.0844 L233.6772 155.3344 L233.957 155.4897 L234.0683 155.6122 L233.9512 155.8441 L233.8242 156.4752 L233.5764 157.1064 L233.2112 157.5674 L233.1839 157.7403 L233.3405 157.8768 L233.6309 158.0401 L233.0634 158.3463 L232.6812 158.6252 L232.4939 158.8372 L232.481 158.9309 L232.5344 158.9727 L232.9712 158.5856 L234.0094 158.0524 L234.2814 158.5043 L234.311 158.8303 L233.7344 159.1815 L233.3528 159.4652 L232.639 159.9588 L231.7175 160.7393 L231.4673 161.1087 L231.3696 161.4214 L231.2287 161.6564 L230.9911 161.9712 L230.7337 162.2838 L229.7077 163.3583 L228.7808 164.0906 L228.0306 165.127 L227.8553 164.8331 L227.7722 163.9027 L227.762 163.5794 M228.5837 196.3928 L228.7461 196.2017 L228.7396 195.8243 L228.9085 195.6086 L229.0491 195.4807 L229.207 195.4314 L229.3248 195.4368 L229.5188 195.5374 L229.6407 195.6332 L229.7404 195.6535 L229.8575 195.7215 L230.5819 195.8757 L233.2714 194.3989 L235.4551 198.0419 L235.3601 198.8775 L231.8322 197.96 L231.4635 198.4728 L231.228 199.2078 L230.9342 198.9069 L230.7923 198.7538 L230.3678 198.3412 L229.513 197.504 L228.6538 196.5994 L228.5837 196.3928 M235.6754 158.0786 L235.7536 157.6038 L236.2009 156.3816 L236.7568 155.4174 L237.5969 154.443 L239.1291 153.1956 L239.3619 153.323 L239.5726 153.467 L239.7319 153.6657 L239.9028 153.8 L240.0107 154.1363 L239.2159 154.761 L238.1474 155.9228 L237.4986 156.9999 L237.1306 157.7569 L237.3246 158.8046 L237.5666 159.5316 L238.26 160.7131 L238.6079 161.272 L239.0345 161.8454 L239.4409 162.3684 L239.6451 163.0221 L239.3823 163.2089 L239.1066 163.0049 L238.7046 162.7581 L238.2672 162.5783 L237.9629 162.46 L237.9036 162.249 L237.891 161.984 L237.8267 161.7303 L237.5792 161.5611 L237.3706 161.2763 L237.1711 160.8641 L236.9662 160.4867 L236.8351 160.2206 L236.7425 159.9952 L236.5733 159.7928 L236.4273 159.5048 L236.2323 159.0873 L235.9654 158.6788 L235.6754 158.0786 M235.9198 150.1526 L236.1417 148.5839 L236.2881 147.7905 L236.6676 145.3642 L236.9689 144.9739 L239.8221 142.6942 L240.5329 142.4142 L242.3956 141.8643 L244.3676 141.2958 L245.1736 141.043 L245.9586 140.657 L248.0834 139.5514 L249.3579 139.0139 L250.8662 138.4924 L251.3462 138.5021 L251.6175 138.508 L252.0226 138.7403 L252.1723 139.1001 L252.1832 139.7533 L252.1083 140.2956 L252.1397 140.8781 L252.3167 141.0682 L252.5706 141.0832 L253.506 140.5821 L254.0704 140.3749 L254.3741 140.3888 L254.677 140.6051 L254.8901 140.7149 L255.063 140.8251 L255.3092 140.7807 L255.4773 139.9701 L255.6536 139.3732 L255.8242 138.7548 L256.1268 138.0545 L256.4471 137.4629 L256.8951 136.9676 L257.7318 135.9648 L258.2349 135.6468 L258.8163 135.3304 L259.4097 135.0305 L259.8066 134.9829 L260.5003 135.1012 L261.1896 135.6002 L261.8871 135.8641 L262.0631 136.0414 L262.171 136.4161 L261.7418 137.0522 L260.324 138.5015 L259.4481 139.4604 L258.9889 140.1029 L258.7544 140.4852 L258.7745 141.2535 L258.8412 141.8504 L258.7857 142.3526 L258.6785 142.9469 L258.2574 143.546 L257.7982 144.0669 L257.1817 144.5825 L256.5261 144.8657 L255.6976 145.2132 L254.8673 145.4252 L254.0915 145.6062 L252.7854 146.0018 L251.8649 146.467 L251.2355 146.973 L250.6725 147.5223 L250.006 148.214 L249.2585 148.7119 L248.4762 149.0395 L247.4622 149.3704 L246.1278 149.8522 L245.641 149.9449 L245.4146 150.0037 L245.3704 149.8662 L245.1273 149.493 L244.998 149.1016 L244.9078 148.9956 L244.8816 148.9362 L244.8492 148.9271 L244.7617 148.8248 L244.563 148.82 L243.8651 149.1273 L242.9103 149.6306 L242.9001 149.6359 L241.2239 150.4797 L240.8842 150.6708 L240.5499 150.7452 L240.3103 150.7211 L240.0077 150.3988 L239.945 150.3228 L239.8106 150.1601 L239.6278 149.7885 L239.2578 149.2489 L239.0154 149.1621 L238.8299 149.228 L236.6588 150.5477 L236.4787 150.7003 L236.2619 150.7849 L236.0842 150.6756 L235.9661 150.4958 L235.9198 150.1526 M244.7495 150.8528 L244.9265 150.5921 L245.0688 150.5327 L246.3824 150.1606 L247.8175 149.6327 L248.9702 149.2462 L249.4239 149.0411 L249.9199 148.7435 L250.2616 148.4886 L250.6807 148.0357 L251.0483 147.715 L251.7948 147.0088 L252.4627 146.6127 L253.7658 146.194 L253.5673 146.5891 L253.455 146.8659 L253.1629 147.0902 L252.5999 147.3526 L252.093 147.6802 L251.7033 148.0571 L250.6923 148.8532 L249.8321 149.6268 L249.2323 150.0434 L248.3142 150.5156 L247.4203 151.3293 L246.7014 152.0355 L245.9167 152.316 L245.2866 152.3824 L244.9844 151.7983 L244.7495 150.8528 M266.5023 220.1338 L266.5993 220.0545 L266.8417 219.9812 L267.0895 219.9127 L267.2777 219.8704 L267.5252 219.758 L267.8193 219.7907 L268.0675 219.6965 L268.3565 219.492 L268.6349 218.9985 L268.8153 218.7491 L269.0652 218.2974 L269.2344 218.1748 L269.4209 217.7986 L269.3151 217.5208 L268.8153 216.0596 L268.7932 215.7957 L268.6594 215.3659 L268.5468 215.0309 L268.3878 214.8751 L268.3081 214.4539 L268.1584 214.2152 L267.9895 213.8962 L267.7152 213.6237 L267.4694 213.3486 L266.7716 212.8514 L267.098 212.5115 L267.4473 212.2412 L267.7002 211.9731 L267.5851 211.7397 L267.7904 211.5165 L268.0447 211.4228 L268.0641 211.2216 L267.9194 210.9823 L268.2067 210.196 L268.4879 209.6822 L268.8184 209.2545 L269.0114 209.0908 L269.3916 209.1175 L269.9591 209.4558 L270.7199 209.8342 L271.9879 210.5723 L272.9404 211.0969 L273.597 211.6524 L274.0334 212.1475 L274.3915 212.7144 L275.1618 213.4937 L275.6796 213.6976 L275.8968 214.098 L276.2416 214.3517 L276.5861 214.8045 L275.9914 216.392 L275.4968 217.4913 L274.8177 218.7887 L274.2124 219.7441 L273.8251 220.2943 L273.7832 220.3532 L273.3349 220.4024 L272.6377 219.7505 L272.3242 219.4733 L271.9477 219.3978 L271.5689 219.7826 L271.2203 219.9801 L271.1686 220.3933 L270.9262 220.8017 L269.9666 222.1333 L269.5629 222.8752 L269.5571 223.428 L268.5154 224.8142 L267.8149 224.5354 L268.4668 223.245 L268.5314 222.7381 L268.7469 222.7606 L268.8045 222.918 L269.0315 222.8377 L269.0761 222.6043 L269.2283 222.3437 L269.2827 221.9931 L269.1517 221.786 L268.897 221.7196 L268.5066 221.8491 L267.288 220.8386 L266.5023 220.1338 M273.6014 220.8622 L273.8669 220.2526 L274.113 219.9031 L274.2543 219.7024 L274.8595 218.747 L275.5764 217.4341 L275.875 217.6257 L276.1565 217.7568 L276.536 217.9773 L276.7079 218.1213 L276.7239 218.185 L276.7447 218.2669 L277.3009 218.6207 L279.1354 219.7875 L279.44 219.9812 L279.536 220.2167 L278.4365 221.6436 L277.8166 222.6782 L277.531 222.994 L277.3081 223.0304 L276.036 222.4657 L275.7463 222.3421 L275.1567 222.0209 L274.7853 221.7849 L273.7682 221.2438 L273.6014 220.8622 M278.0423 223.6571 L278.1186 223.207 L278.4859 222.3239 L279.1415 221.3043 L280.1634 219.7559 L280.5191 219.4176 L280.9974 219.3743 L281.4702 219.53 L281.7789 219.6044 L282.0598 219.6092 L282.3297 219.5231 L282.7729 219.552 L283.7836 219.5948 L283.8952 219.6392 L283.8482 219.7323 L283.1531 219.8988 L283.0119 220.0513 L282.84 220.3098 L282.376 220.9136 L282.2528 221.1753 L282.0652 221.5034 L281.8051 221.7528 L280.3264 223.6427 L279.8924 224.3732 L279.6902 224.4995 L279.3699 224.5284 L278.8222 224.3962 L278.1172 223.9579 L278.0423 223.6571 M283.0643 218.5575 L283.1133 218.3622 L283.2192 218.0779 L283.324 217.9441 L283.4935 217.8885 L283.533 217.8756 L283.7921 217.8585 L284.384 217.9565 L284.88 218.1829 L285.2425 218.2647 L285.6813 218.3375 L285.8236 218.4221 L285.8845 218.4585 L285.9744 218.5639 L286.0153 218.6608 L286.0105 218.7438 L285.9761 218.8594 L285.8263 219.1393 L285.697 219.31 L285.5509 219.3422 L285.3191 219.3844 L285.0155 219.4701 L284.8347 219.5354 L284.6053 219.5584 L284.2431 219.5199 L283.465 219.3571 L283.3421 219.2603 L283.1045 218.7315 L283.0643 218.5575 M285.5295 220.0561 L286.806 218.1631 L287.0065 218.0399 L287.8463 216.5814 L288.2857 215.0764 L288.5713 214.3147 L288.6861 214.0637 L288.9131 213.9647 L289.0639 213.9502 L289.1739 213.9802 L289.2685 214.0851 L289.3614 214.3747 L289.5374 214.5518 L289.3124 213.726 L289.3733 213.4278 L289.4077 212.9927 L289.4894 212.7454 L289.8591 212.2835 L290.2288 211.2162 L290.4293 210.916 L290.4429 210.3036 L290.8704 209.3991 L291.1696 209.2818 L291.4478 209.0967 L291.5407 208.9837 L291.5819 208.8039 L291.5751 208.4271 L291.6547 208.3254 L291.7848 208.3023 L292.0138 208.335 L292.2491 208.4035 L293.2213 208.525 L294.2557 208.4908 L294.8055 208.7632 L294.976 208.8156 L295.0601 208.9505 L295.0989 209.072 L295.071 209.284 L295.0911 209.6496 L294.8198 210.0071 L293.9004 212.0084 L292.4332 215.1224 L290.9586 218.0924 L290.2757 219.1249 L289.7168 219.7013 L289.8353 220.244 L289.6201 221.2684 L289.2797 221.6538 L288.9022 222.4941 L288.7541 222.7108 L288.507 222.7456 L288.0764 222.7167 L287.2799 221.4841 L285.6915 220.2349 L285.5295 220.0561 M293.3734 213.6976 L294.9999 210.1056 L295.6868 209.0319 L297.3337 209.8926 L298.233 210.4572 L298.955 210.8742 L299.1623 211.3532 L299.5167 211.5668 L300.1784 212.8102 L299.8516 213.4701 L297.5413 215.4794 L296.8847 215.9269 L295.3185 215.079 L293.6563 213.9181 L293.5314 213.8951 L293.3734 213.6976 M309.3353 141.337 L309.3622 140.8139 L309.595 139.6146 L309.9133 139.7137 L310.399 139.8641 L309.9038 141.1507 L309.7458 142.4517 L309.7022 142.464 L309.6314 142.4795 L309.4214 141.8809 L309.3353 141.337 M313.3844 138.3934 L314.7429 137.6995 L315.1341 138.4646 L313.7755 139.1585 L313.3844 138.3934 M316.1808 145.0071 L316.4592 144.3871 L316.9392 143.5535 L317.0631 142.3312 L316.9351 140.3401 L317.235 139.5766 L317.5724 138.4014 L317.941 137.8093 L319.3656 137.0313 L319.818 136.8118 L320.5247 136.0135 L321.7546 135.7876 L321.6718 136.4665 L322.0483 137.7107 L322.4415 138.2151 L322.3482 139.2013 L321.7791 141.7471 L321.5813 142.3965 L321.4588 142.8773 L321.5095 143.4486 L321.2341 144.6976 L320.9219 145.2394 L320.7194 146.3691 L320.7745 147.109 L320.9621 147.503 L321.2467 148.0052 L321.8216 149.1878 L322.1671 149.6889 L322.5848 150.3897 L322.9102 150.7238 L323.5005 151.4525 L324.0874 151.6291 L324.9527 151.9123 L325.4173 152.1565 L325.4231 152.4846 L325.1995 153.3284 L325.0105 155.8558 L324.9826 158.6413 L325.0715 160.9257 L325.0374 161.453 L324.7719 161.681 L324.0632 161.7335 L323.4351 161.6462 L323.2285 161.3448 L322.6042 160.6933 L321.1078 158.9395 L319.8102 157.1525 L318.8986 155.4789 L319.6631 152.3861 L320.092 149.6392 L320.1383 149.2601 L320.0845 149.1177 L319.8885 149.1707 L319.6359 149.1418 L319.2812 149.1263 L318.9803 149.0754 L318.741 148.6535 L318.3546 148.3098 L318.0489 147.6599 L317.555 147.0656 L316.895 146.4869 L316.2516 145.7984 L316.1808 145.0071 M328.7597 151.4091 L328.9265 151.0006 L328.9578 150.8448 L329.673 149.3934 L329.9239 148.8639 L330.2231 148.3773 L330.3082 147.7172 L330.4127 147.1058 L330.4958 146.5388 L330.5397 145.6479 L330.5104 145.0761 L330.3736 144.0557 L330.3011 143.6595 L330.0437 143.0181 L330.0077 142.5957 L330.0887 142.1449 L330.3041 141.6438 L330.5002 141.2224 L330.7647 140.7689 L331.0326 140.3438 L331.1572 140.0526 L331.4295 140.0247 L331.6487 139.998 L332.0119 140.0852 L332.3792 140.2442 L332.6638 140.3604 L333.0495 140.6335 L333.3957 140.9799 L333.57 141.8263 L333.4832 143.1236 L333.0583 144.6173 L332.8034 145.8696 L332.192 147.3831 L331.9136 148.1246 L331.9143 148.5015 L332.0422 148.7317 L331.8615 149.2601 L331.7413 149.9486 L331.3965 150.8625 L331.1245 151.4969 L331.0176 151.5724 L330.7892 151.4401 L330.4386 151.3047 L329.2203 151.4262 L328.9939 151.4284 L328.7597 151.4091 M350.5687 272.1008 L351.223 269.9309 L351.3666 269.5542 L352.396 266.8518 L352.4045 266.8299 L355.3064 255.0248 L358.7466 240.1851 L364.9382 241.7596 L373.7978 244.0117 L375.1986 245.8885 L374.4375 250.1784 L372.0669 260.0557 L370.3584 265.6382 L368.5127 270.0963 L365.2503 276.2934 L363.6678 279.138 L361.7391 283.8148 L360.3597 285.16 L359.1956 284.123 L358.2104 283.0448 L354.6549 278.4376 L350.5687 272.1008 M380.3404 216.2881 L380.4858 215.5244 L380.8823 214.076 L381.0804 213.5916 L381.1924 213.2475 L381.3201 213.0548 L381.4362 212.7625 L381.6047 212.0796 L381.7854 211.2483 L382.0509 210.3973 L382.4322 208.9414 L382.7103 208.3601 L383.0568 207.8629 L383.3618 207.424 L384.0331 206.8973 L384.9168 206.3642 L385.8202 205.8771 L386.1494 205.6823 L387.429 204.5834 L388.2 203.9572 L389.2021 203.0467 L390.3575 201.9574 L391.1046 201.1743 L392.2205 199.7992 L392.7876 199.0862 L393.1171 198.6104 L393.4514 198.4541 L393.6723 198.6206 L393.7343 199.0017 L393.6018 199.5503 L392.7154 202.3567 L392.0261 204.0246 L391.4005 205.5394 L389.5442 209.2476 L388.4475 211.2259 L387.2598 213.6949 L385.6619 217.1782 L385.1255 218.0667 L384.6554 218.5789 L384.2057 218.861 L383.7448 219.0472 L383.5392 219.1056 L383.3411 219.0665 L383.0735 218.9295 L382.3362 218.5431 L381.8014 218.3557 L380.8864 217.7391 L380.7387 217.3934 L380.5794 216.8699 L380.4749 216.5627 L380.3404 216.2881 M386.0309 189.4079 L386.274 189.0589 L386.5215 188.9031 L387.0634 188.7891 L387.4252 188.8233 L388.0206 188.9502 L388.298 189.0091 L388.4631 188.9743 L388.5363 188.8977 L388.4767 188.7254 L388.2483 188.3121 L388.0454 188.1087 L387.8262 187.8539 L387.3629 187.2945 L387.2336 186.9418 L387.3057 186.5355 L387.6975 185.6501 L387.9151 185.1678 L388.3355 184.5602 L388.6265 184.0062 L388.8536 183.722 L389.2515 183.5726 L389.5289 183.67 L389.7035 183.7557 L390.0865 184.0244 L391.5063 185.0458 L392.3972 185.6694 L393.3683 186.3867 L394.2755 187.1013 L395.2072 187.7356 L396.0354 188.3143 L396.6995 188.8158 L397.1894 189.1108 L397.3228 189.3367 L397.3841 190.0513 L397.1969 190.7477 L396.9504 191.541 L396.8394 192.0854 L396.724 192.7721 L396.4139 193.4107 L396.0068 194.0461 L395.6061 194.4144 L394.699 195.7156 L393.2648 197.7058 L392.9949 197.8305 L392.4768 197.6726 L391.5509 197.0351 L390.9018 196.4982 L390.4 195.8992 L390.0773 195.3859 L389.7127 194.6007 L389.0867 193.5328 L388.6265 192.9193 L388.0883 192.1796 L387.5039 191.2953 L387.1754 190.9324 L386.6038 190.5603 L386.2454 190.2306 L386.1154 189.873 L386.0469 189.6241 L386.0309 189.4079 M387.0035 182.3601 L387.1709 181.7001 L387.5638 180.4609 L387.6039 180.1119 L387.8021 179.5064 L387.7959 179.09 L388.4995 176.8968 L388.5928 175.9407 L388.7484 175.7041 L388.8628 175.2491 L389.115 174.8117 L389.3216 174.4375 L389.548 174.1484 L389.933 174.0537 L390.1869 173.9552 L390.5726 173.6228 L390.6968 173.2882 L390.6931 172.8958 L390.6012 172.49 L390.431 171.9579 L390.4729 171.7009 L390.4143 171.2138 L390.5689 170.4049 L390.6237 170.0976 L390.6883 169.8284 L390.8242 169.429 L390.9024 169.1142 L390.9729 168.8974 L391.1789 168.8 L391.4022 168.8069 L391.5618 168.8894 L391.6527 168.9922 L391.5972 169.4279 L391.4604 170.9472 L391.2714 174.1302 L391.2714 174.4937 L391.4352 174.7309 L391.7878 175.0189 L392.4983 175.5767 L393.2209 176.2019 L393.6349 176.7918 L393.705 177.1762 L393.7169 177.7174 L393.7479 178.2179 L394.2057 178.6521 L395.1313 179.1949 L396.2393 179.8667 L395.6831 180.4518 L394.9213 181.0331 L394.5029 181.2917 L394.1867 181.7611 L393.8517 181.8693 L393.5797 181.7761 L393.338 181.4127 L393.062 181.1263 L392.8267 180.9801 L392.5813 180.6654 L392.2787 180.5615 L391.8954 180.4673 L391.3034 180.2478 L390.722 179.9812 L390.2281 180.0407 L389.741 180.1756 L389.3812 180.3201 L389.0871 180.7087 L388.7262 181.2076 L388.6973 181.691 L388.6602 182.0684 L388.7082 182.3874 L388.7269 182.6663 L389.1984 182.9683 L389.7471 183.1106 L391.1366 183.5341 L391.7402 183.8108 L392.2344 184.1438 L392.455 184.534 L392.2678 185.0265 L392.0796 185.4429 L391.4056 184.9633 L390.1025 184.0207 L389.7114 183.7477 L389.5487 183.662 L389.2794 183.5624 L389.1929 183.5753 L389.1249 183.5582 L388.7776 183.5999 L388.2354 183.525 L387.9297 183.3537 L387.5328 183.1883 L387.2533 183.033 L387.0862 182.7284 L387.0035 182.3601 M391.3344 166.7502 L391.4304 165.9392 L392.07 164.2576 L392.8319 162.9102 L393.5876 161.6318 L394.5267 159.5846 L395.276 157.8902 L395.8812 156.4067 L396.1236 155.6454 L396.3023 154.8387 L396.5525 154.0624 L396.7887 153.4906 L397.2336 152.846 L397.4423 152.5296 L397.9825 151.9557 L398.2099 151.5552 L398.2885 150.7169 L398.2821 150.2184 L398.1616 149.3361 L397.7766 149.0144 L397.5611 148.6857 L397.2275 148.4222 L396.6617 148.1107 L396.592 147.9351 L396.4636 147.5485 L396.4514 147.2444 L396.6413 146.8531 L397.0045 146.2133 L397.0141 145.6062 L396.8136 145.3883 L396.4163 144.6944 L396.1076 144.174 L395.4458 143.1289 L395.2678 142.7338 L395.1405 141.7503 L395.18 141.072 L395.2208 140.6067 L395.0503 139.3036 L394.9682 138.6204 L394.9727 138.2124 L394.9744 137.7423 L395.0445 137.1181 L395.276 135.9027 L395.5844 134.644 L396.0027 133.9388 L396.1957 133.4115 L396.2236 132.9189 L396.1576 131.8406 L396.2168 131.2859 L396.4364 130.7794 L398.4543 127.7296 L399.0711 126.7439 L399.288 126.2139 L399.6583 125.2672 L399.7965 125.0905 L400.7861 124.3511 L402.5443 123.7322 L403.0617 123.6941 L403.673 123.8724 L404.4308 124.266 L404.6704 124.6317 L404.9737 125.4814 L404.986 126.2139 L404.6656 127.1134 L404.121 128.6591 L403.9321 129.391 L403.9382 130.0737 L403.895 131.3951 L403.6158 132.8461 L403.0123 134.7414 L402.3805 137.0292 L402.0085 139.1751 L401.8195 140.5392 L401.6875 142.3778 L401.7259 144.59 L401.8495 145.4107 L402.1317 146.0853 L402.3107 146.9494 L402.0755 149.6102 L401.3294 154.094 L400.8793 157.0588 L400.6911 158.1124 L400.0474 160.4369 L399.3782 162.1345 L399.0115 163.0413 L398.4495 164.6527 L397.8263 166.55 L394.2544 167.1158 L391.5696 167.3423 L391.3855 167.1752 L391.3344 166.7502 M391.4124 174.4809 L391.4124 174.1174 L391.6013 170.9344 L391.7381 169.4151 L391.8229 168.7507 L391.9934 168.1581 L391.9958 168.1538 L392.5834 167.7138 L393.6485 167.406 L395.2821 167.0007 L397.619 166.6565 L397.7691 167.1426 L397.5859 168.1967 L397.2588 169.1378 L397.2486 169.7791 L397.106 170.7309 L397.0226 172.7652 L397.109 173.6972 L397.0961 174.6779 L396.8922 175.2485 L396.7567 175.7962 L396.8132 176.2705 L397.1182 177.0017 L397.2128 177.7153 L397.1121 178.5632 L396.6178 179.6017 L396.3928 179.8613 L395.2722 179.182 L394.3467 178.6392 L393.8888 178.2051 L393.8578 177.7046 L393.8459 177.1634 L393.7758 176.779 L393.3619 176.1891 L392.6392 175.5638 L391.9288 175.006 L391.5761 174.718 L391.4124 174.4809 M395.985 198.6238 L396.4837 196.8579 L397.1437 194.9026 L397.4372 194.1259 L397.8474 193.6773 L398.2419 193.3647 L399.0432 193.089 L400.3466 192.6319 L401.6868 192.2374 L403.464 191.8076 L404.1802 191.6705 L404.9049 191.5447 L405.0752 191.5148 L405.3407 191.8434 L405.5282 192.3519 L405.5647 192.9772 L405.3587 195.1734 L405.2362 196.7311 L405.2447 197.641 L405.0588 198.506 L404.7667 198.7667 L404.5952 198.8111 L404.2531 198.8539 L403.8722 198.8224 L403.3057 198.7742 L402.9657 198.8004 L401.5775 198.9535 L399.7509 199.1976 L398.2398 199.4465 L396.8129 199.6151 L396.1773 199.4245 L396.0034 199.1012 L395.985 198.6238 M397.9999 191.882 L398.1445 190.8323 L398.3107 190.3227 L398.4577 189.2484 L398.6065 187.5054 L398.7208 187.0071 L399.0078 186.1849 L399.1133 185.845 L399.5814 185.1533 L399.9783 184.6743 L400.382 184.2524 L400.6234 183.8456 L400.9753 183.4345 L402.2263 182.4602 L402.3717 182.2199 L402.5364 181.7392 L402.6535 181.3035 L402.8697 181.0112 L403.2063 180.796 L403.5842 180.6391 L403.8667 180.5685 L404.4437 180.6059 L404.5513 180.6129 L404.8638 180.7901 L405.1657 181.1209 L405.4401 181.608 L405.6583 181.8966 L405.8693 182.002 L406.0719 181.9581 L406.2053 181.8211 L406.2523 181.5294 L406.1917 181.0615 L406.1488 180.3014 L406.2383 179.917 L406.4405 179.5487 L406.7169 179.2345 L407.1033 179.1103 L407.3463 179.1199 L407.8447 179.205 L408.8247 179.6397 L410.6271 180.9689 L412.0194 182.2702 L413.7091 183.8595 L413.8436 184.1341 L414.1524 184.412 L414.8948 184.9622 L415.2638 184.9762 L415.9051 184.9617 L416.5423 184.9965 L417.199 185.1111 L418.0033 185.6544 L419.125 186.5408 L421.2828 188.3817 L421.629 188.848 L421.8397 189.251 L421.9432 189.6942 L421.9136 190.0545 L421.6845 190.8863 L421.4802 190.9982 L421.1599 190.927 L420.778 190.7434 L419.56 190.0176 L419.0297 189.7858 L418.5316 189.7076 L418.0142 189.6611 L417.4458 189.676 L416.8106 189.8206 L416.0208 190.0465 L415.02 190.2879 L413.5743 190.4426 L412.8197 190.4222 L411.6684 190.3912 L410.1649 190.388 L410.0307 190.4008 L407.9046 190.6021 L405.9091 190.6481 L405.134 190.7504 L403.3112 190.9902 L402.0347 191.2701 L400.7626 191.5833 L398.9986 192.1277 L398.3011 192.1865 L398.0717 192.1635 L397.9999 191.882 M426.7997 152.0103 L426.8327 151.643 L426.8909 150.9958 L426.8729 150.1595 L427.0645 149.6177 L427.2096 149.4962 L427.8621 148.9689 L428.1266 148.7579 L428.6563 148.1754 L430.4029 147.3402 L430.8927 147.2267 L432.3738 146.8846 L433.9836 146.6426 L434.7774 146.6496 L435.2033 147.0544 L435.4732 147.375 L435.671 147.3317 L435.7734 147.0576 L436.1377 146.5565 L436.5952 145.9263 L436.8477 145.6923 L438.0977 145.513 L438.5481 145.5606 L438.7588 145.7871 L438.9453 146.1485 L438.9909 146.3204 L439.0924 146.4456 L439.2132 146.595 L439.942 146.9098 L440.2412 147.3103 L440.3913 147.5924 L440.6225 147.8703 L440.8751 147.9608 L441.5048 147.609 L442.0603 147.4837 L442.9716 147.4227 L443.8876 147.4436 L444.7448 147.4955 L445.1407 147.7338 L445.1512 148.2268 L444.8339 148.5561 L444.6951 148.7001 L444.4803 148.9234 L443.6211 149.4582 L442.2748 150.2532 L441.9538 150.53 L441.4166 150.9931 L440.7859 151.3357 L440.0942 151.5349 L439.6333 151.4401 L439.429 151.1639 L439.0219 150.6125 L438.4919 150.6275 L438.2907 150.7244 L438.0306 150.9738 L437.7022 151.4503 L436.8746 152.649 L436.154 153.308 L435.4027 153.4708 L434.599 153.6453 L434.0234 153.6807 L432.7918 153.853 L432.6669 153.8075 L432.0593 153.5875 L431.6423 153.1726 L431.5334 152.8963 L431.0667 151.7148 L430.4373 150.5354 L430.0124 150.62 L429.1522 152.2362 L428.9102 152.6806 L428.8786 152.7389 L428.1736 154.443 L427.7249 155.2969 L427.4434 155.5293 L427.3168 155.6851 L427.1282 155.6835 L426.9331 155.5084 L426.8436 155.1652 L426.8811 153.4981 L426.7997 152.0103 M432.4126 238.2055 L432.8803 237.8726 L433.3583 237.5049 L433.9284 237.141 L434.2774 237.0698 L434.4983 236.8541 L434.9939 236.5138 L435.077 236.3195 L434.774 235.3626 L434.483 234.5063 L434.3097 233.9068 L434.6569 233.012 L434.5844 232.8514 L434.2797 232.6069 L434.2147 232.2659 L434.0983 231.7757 L433.9346 231.1367 L433.8151 230.177 L433.7827 229.7061 L433.826 228.8963 L433.8505 228.0892 L434.1888 227.8494 L434.4346 227.8831 L434.6532 228.2155 L434.8097 228.5554 L434.9963 228.5377 L435.2257 227.9527 L435.3912 227.637 L436.0577 227.5957 L436.5288 227.6552 L436.6118 227.8633 L436.8528 228.2219 L436.8501 228.6442 L436.8447 229.0033 L436.7722 229.8115 L436.0972 229.9849 L435.8858 229.9132 L435.8323 230.1134 L435.9198 230.6844 L435.8453 230.868 L435.8126 231.0805 L435.6563 231.2689 L435.7179 231.339 L435.8892 231.2357 L436.0498 231.1243 L436.1894 231.1607 L436.252 231.5215 L436.2221 231.8351 L436.2497 232.1471 L436.1023 232.2081 L435.8929 232.3981 L435.8735 232.9349 L436.0611 233.1972 L436.2337 233.346 L436.5094 233.0655 L437.8414 233.2539 L438.0351 233.9432 L438.3108 233.9052 L438.6281 233.6103 L438.594 233.2849 L438.498 232.8455 L438.5828 232.4233 L438.9051 232.2493 L439.2769 231.0751 L439.2408 230.8134 L439.1526 230.6009 L438.6035 230.2937 L438.8817 228.458 L438.6512 228.3499 L438.1253 228.3161 L437.5633 228.3836 L437.44 227.6766 L437.501 227.3399 L437.5282 227.0407 L437.6712 226.6217 L437.7876 226.3021 L437.6079 226.0913 L437.5153 225.7632 L437.9292 225.1027 L438.206 224.871 L439.3872 224.43 L439.4505 224.4064 L439.8355 224.5536 L440.1044 225.51 L440.76 226.999 L440.9057 227.6038 L441.1767 227.9297 L441.8847 228.2321 L442.1819 228.5356 L442.4106 229.3175 L442.72 230.2059 L442.9188 230.7775 L442.6969 231.0227 L442.6598 231.1779 L442.5903 231.4663 L442.1363 231.4679 L441.9021 231.5686 L441.4687 231.5434 L440.8213 231.4225 L440.5265 231.1383 L439.8273 230.9509 L439.651 231.05 L439.6353 231.1629 L440.0465 231.4091 L440.3355 231.4808 L440.6446 231.6424 L440.8155 231.7382 L441.0704 231.6879 L441.2989 231.7768 L441.6682 231.9164 L441.8765 232.1241 L442.2935 232.3355 L442.3378 232.868 L442.3892 233.2983 L442.1097 233.9518 L441.6209 234.7525 L440.8815 235.6018 L440.4499 235.7506 L440.1949 236.2028 L439.8528 236.7385 L439.1468 237.2593 L438.3057 237.4573 L437.7495 237.5338 L437.2743 237.3198 L436.6993 237.3599 L436.3344 237.7816 L435.2305 238.0894 L434.2338 238.2157 L433.5101 238.3302 L433.1057 238.5432 L432.8211 238.6695 L432.6192 238.5973 L432.4746 238.479 L432.4126 238.2055 M435.7836 225.8959 L437.2589 225.6101 L437.3246 227.4309 L437.5166 228.4762 L438.7833 228.4548 L438.4915 230.3167 L438.7751 232.1824 L437.8301 233.1303 L436.2834 233.0232 L436.3797 231.8726 L436.4856 231.6665 L436.8814 229.6804 L436.9832 228.2819 L436.7194 227.5684 L435.8967 227.4453 L435.7836 225.8959 M439.9253 155.0314 L440.1088 154.2503 L440.4741 153.6999 L441.693 151.968 L442.0797 151.5831 L442.4828 151.0151 L443.4468 150.182 L444.0684 149.6804 L445.2918 149.1991 L445.99 148.8147 L446.7787 148.7777 L447.0449 148.8623 L447.2593 149.1611 L447.2151 149.4978 L447.4094 149.6515 L447.6419 149.6997 L448.0855 149.621 L448.7918 149.637 L450.0918 149.9871 L450.9861 150.1285 L452.1935 150.2013 L453.1946 150.2457 L454.2383 150.6778 L454.563 150.8668 L454.8636 151.1842 L455.0141 151.5151 L454.6794 151.8395 L454.5423 151.9573 L453.8329 151.9161 L453.4608 151.9611 L453.197 152.0687 L453.0411 152.2389 L452.9539 152.3508 L452.6741 152.5366 L452.4321 153.1244 L452.588 153.5805 L453.0414 153.2497 L453.456 153.0789 L453.6766 153.0232 L453.9888 153.005 L454.2056 153.1196 L454.351 153.1651 L454.8803 153.3048 L455.6101 153.2657 L455.8657 153.0993 L456.7505 152.9574 L457.58 153.1614 L459.3294 154.0886 L459.3004 154.9404 L459.0359 156.1187 L460.3911 157.0679 L460.9544 157.5331 L462.4284 158.8753 L462.7208 159.7709 L462.1227 160.7956 L461.8197 161.3748 L461.5086 162.0081 L461.128 162.4857 L460.9776 162.9091 L460.3557 164.021 L459.8937 164.1072 L458.864 163.7416 L458.3966 163.3904 L457.7829 163.067 L457.3962 162.7448 L457.1817 162.5285 L455.8841 161.9776 L453.9666 160.6612 L452.2629 158.9465 L451.7435 158.4422 L450.9871 158.1043 L450.8046 158.0508 L449.2408 157.8083 L445.0916 157.0218 L441.0779 156.4619 L440.4775 156.2343 L440.1834 155.8773 L439.9774 155.3253 L439.9253 155.0314 M445.9583 229.2008 L446.1118 228.8674 L446.3048 228.7502 L446.3504 228.7224 L446.4975 228.375 L446.7913 228.0442 L447.065 227.827 L447.804 227.3795 L447.9725 226.9374 L447.9878 226.8973 L447.8877 226.1823 L448.1199 226.1014 L448.5934 226.1025 L449.0781 225.8697 L449.2663 225.9623 L449.6479 226.1501 L449.9441 226.042 L450.4281 226.3439 L450.8608 226.8764 L450.8887 227.1103 L450.8199 227.303 L450.534 227.8607 L450.8475 228.3028 L451.5583 228.1443 L451.6669 227.9185 L451.3309 227.1301 L451.3605 226.7726 L451.176 226.6447 L451.5528 226.2807 L452.0665 226.1309 L452.2605 226.1753 L452.4226 226.1555 L452.621 225.9184 L452.9025 225.8461 L453.0949 226.1619 L453.4148 228.1101 L453.0013 228.7737 L453.1296 229.2447 L452.8198 229.5193 L452.4893 229.583 L452.2316 229.6916 L452.3667 229.9308 L451.6727 230.5817 L451.177 230.9868 L450.6419 231.4674 L450.0425 231.7869 L449.4525 231.1104 L449.2762 230.4917 L449.2537 230.4131 L448.9137 230.0261 L448.6383 229.7125 L448.6979 229.614 L448.9086 229.2656 L448.062 228.6474 L447.8595 228.8021 L447.8138 228.8369 L447.6072 229.2056 L447.4292 229.8222 L446.8284 230.0122 L446.36 229.8966 L445.9583 229.2008 M452.1465 234.4998 L453.423 230.9515 L453.4741 232.0647 L453.5251 233.1779 L455.7207 234.8745 L452.766 236.6567 L452.1465 234.4998 M454.5314 409.6386 L456.5588 405.9772 L457.2018 404.8364 L457.6971 403.9572 L458.7878 402.6425 L458.3813 402.1954 L455.7327 398.8296 L462.2201 384.3344 L463.9592 385.518 L464.6965 387.4013 L463.7155 390.8999 L469.871 394.7412 L468.6523 395.19 L471.4103 398.6216 L474.1624 397.7744 L477.1743 404.8086 L479.5538 410.8452 L479.9224 411.7806 L483.7162 416.8025 L490.6526 422.7003 L492.2304 424.0421 L493.2087 427.3209 L492.0306 427.8444 L490.2642 428.7124 L487.604 430.0194 L482.8495 435.1297 L473.9994 428.5718 L461.994 421.381 L458.62 417.0533 L456.4546 413.2054 L454.5314 409.6386 M491.8365 243.3133 L492.388 242.199 L495.0493 242.1551 L495.1531 242.1851 L494.9785 245.5225 L493.0198 245.4775 L493.0147 243.3609 L491.8365 243.3133 M493.5059 233.3149 L495.6402 232.708 L497.4631 232.9579 L499.2618 232.4393 L499.5034 232.4126 L499.7462 233.0275 L497.6578 234.0203 L498.1565 236.243 L494.9669 236.9714 L494.0093 234.4715 L493.5059 233.3149" stroke-dasharray="" fill="none" fill-opacity="1.0" stroke="#ff0000" stroke-opacity="1.0" stroke-width="1.0px" stroke-linecap="butt" stroke-linejoin="miter" stroke-dashoffset="0.0px"/>
</g>
</svg>