<?xml version="1.0" standalone="no"?>
<!DOCTYPE svg PUBLIC "-//W3C//DTD SVG 1.1//EN" "http://www.w3.org/Graphics/SVG/1.1/DTD/svg11.dtd">
<svg width="512px" height="512px" version="1.1" xmlns="http://www.w3.org/2000/svg" xmlns:inkscape="http://www.inkscape.org/namespaces/inkscape">
<g id="layer" inkscape:groupmode="layer" inkscape:label="layer">
<path d="M0.0 398.2012 L0.4511 398.6007 L0.8201 398.2012 L96.1068 483.9314 L91.1176 489.5444 L98.3348 496.0614 L154.5691 432.9727 L159.5993 437.4505 L182.2079 412.0552 L177.2597 407.6194 L217.7199 362.1052 L222.7501 366.6041 L231.922 356.5762 L226.8645 351.8671 L253.6831 321.8045 L257.114 325.1471 L261.7068 320.2278 L258.0162 316.9272 L288.0333 283.3116 L303.493 297.1447 L326.3749 271.4547 L316.1231 262.2676 L326.1015 251.1255 L323.9828 249.2124 L324.4065 248.7288 L321.372 246.0379 L343.3518 221.2518 L343.4201 221.3148 L351.8129 211.6652 L447.5506 297.6072 L483.9102 256.5704 L388.2271 170.7963 L396.3739 161.6723 L492.4397 247.6567 L512.0 225.6245 L483.7325 200.4179 L486.9584 196.9701 L479.8642 190.5791 L472.9203 179.2897 L468.1908 182.0857 L468.929 183.2 L471.6901 183.7886 L475.121 188.8342 L473.262 190.9575 L415.9342 139.5138 L423.3155 131.1676 L416.1393 124.7765 L413.4738 127.7618 L384.0718 101.4828 L388.0221 97.1099 L381.5977 86.2829 L382.1718 85.9045 L381.2286 84.2857 L376.6905 87.0397 L377.6883 88.6585 L378.1531 88.2591 L384.0581 96.4792 L381.502 99.1492 L321.3447 45.2243 L323.7504 42.3441 L332.3209 48.0835 L333.9749 48.8193 L336.0935 43.9629 L334.3713 43.1219 L334.0432 43.8157 L322.6022 38.4968 L318.8159 42.9537 L288.8261 15.9386 L284.0966 21.2576 L278.465 16.3591 L246.9443 52.2251 L252.5349 57.2917 L251.3184 58.7423 L280.9938 85.2948 L275.7449 90.7609 L274.8837 90.004 L272.7377 92.4007 L241.4083 64.2504 L241.7501 63.851 L241.299 63.4515 L220.8365 86.388 L221.2739 86.7875 L221.6293 86.388 L291.2729 148.9112 L279.3945 162.2399 L209.7783 99.6748 L210.12 99.2963 L209.6689 98.8969 L189.2747 121.7702 L189.7258 122.1697 L190.0675 121.7702 L259.3011 183.9568 L247.3407 197.3275 L178.1208 135.162 L178.4762 134.7415 L178.0251 134.3421 L157.5353 157.2994 L157.9864 157.6989 L158.3418 157.3205 L285.4499 271.4547 L273.6125 284.7412 L146.4907 170.5861 L146.8461 170.1866 L146.3951 169.7872 L125.8916 192.7655 L126.3426 193.1649 L126.6844 192.7655 L249.1587 302.7788 L237.3076 316.1073 L146.6001 234.4752 L146.9418 234.0758 L146.4907 233.6764 L125.9872 256.6545 L126.4383 257.0539 L126.7937 256.6755 L222.176 342.4699 L210.366 355.7353 L114.9837 269.899 L115.3254 269.4995 L114.888 269.1001 L94.5349 291.91 L94.9723 292.3094 L95.3277 291.931 L186.1035 373.6047 L174.2388 386.9541 L83.4356 305.2595 L83.791 304.8811 L83.3399 304.4817 L62.8501 327.4176 L63.2875 327.8381 L63.6566 327.4386 L159.0799 413.2955 L147.4202 426.3716 L51.9969 340.5148 L52.3386 340.1154 L51.8876 339.716 L31.5617 362.6939 L32.0128 363.0933 L32.3682 362.7149 L123.1031 444.367 L111.2657 457.6742 L20.5445 376.0643 L20.8999 375.6439 L20.4488 375.2444 L0.0 398.2012 M250.3752 200.0605 L262.3356 186.6688 L312.1318 231.3849 L300.1851 244.7765 L250.3752 200.0605 M279.2578 93.9144 L283.6319 87.6494 L343.9806 141.6161 L339.0871 147.6498 L279.2578 93.9144 M285.0398 162.1348 L294.3484 151.6863 L348.6827 200.481 L339.3878 210.9294 L285.0398 162.1348 M341.8892 150.1726 L346.7417 144.0548 L371.3459 165.982 L363.869 174.2441 L342.887 155.3863 L345.0331 153.0107 L341.8892 150.1726" stroke-dasharray="" fill="none" fill-opacity="1.0" stroke="#ff0000" stroke-opacity="1.0" stroke-width="1.0px" stroke-linecap="butt" stroke-linejoin="miter" stroke-dashoffset="0.0px"/>
</g>
</svg>