<?xml version="1.0" standalone="no"?>
<!DOCTYPE svg PUBLIC "-//W3C//DTD SVG 1.1//EN" "http://www.w3.org/Graphics/SVG/1.1/DTD/svg11.dtd">
<svg width="512px" height="512px" version="1.1" xmlns="http://www.w3.org/2000/svg" xmlns:inkscape="http://www.inkscape.org/namespaces/inkscape">
<g id="layer" inkscape:groupmode="layer" inkscape:label="layer">
<path d="M37.0188 56.8051 L37.1462 57.8161 L37.3032 59.1581 L37.3457 60.5842 L40.4933 67.6881 L42.6831 73.5192 L49.1648 78.9793 L50.8407 79.5329 L53.794 79.6128 L54.7084 76.6313 L57.3022 77.0438 L59.8163 76.4274 L60.6576 76.5628 L60.4281 77.5134 L62.894 77.9781 L67.3693 79.2761 L82.4558 83.0664 L89.7809 88.925 L89.8975 88.9356 L90.287 88.4489 L90.4999 88.0999 L90.7211 87.9165 L90.9242 88.0518 L92.1882 88.7244 L93.2461 89.247 L94.5583 89.3685 L94.7204 92.3239 L100.1542 92.2684 L100.0858 95.2718 L101.0079 95.6379 L101.1297 95.6355 L101.9684 95.7529 L102.1165 96.0366 L102.0311 97.5823 L102.4196 102.579 L102.5962 103.1081 L102.6988 103.1749 L103.121 103.4505 L104.7047 104.0912 L105.891 104.5038 L106.9866 105.1005 L106.9923 106.0633 L107.0799 106.3372 L107.9828 107.7818 L112.1339 109.2427 L112.8514 109.5256 L116.9631 111.015 L120.0802 111.6289 L122.1394 111.7528 L123.9499 111.9436 L124.1193 112.2738 L124.1815 112.7278 L124.0261 113.274 L124.8032 113.9018 L124.827 113.8765 L125.1181 113.5724 L125.4176 113.0392 L127.6203 113.1338 L128.4523 113.6001 L129.4272 114.1781 L129.622 115.0749 L129.8447 115.299 L130.1406 115.908 L130.9591 116.3833 L131.575 116.4966 L131.9568 116.7208 L131.9791 116.8659 L132.049 117.3289 L131.4807 119.4322 L130.7809 121.6438 L130.4845 122.3718 L130.5353 122.4525 L130.641 122.6221 L132.7561 123.1153 L133.6487 123.3941 L134.8905 123.6859 L135.7017 123.9655 L135.7883 123.9957 L136.1851 124.2753 L136.5959 124.9389 L136.7425 125.6522 L136.6249 126.0052 L135.8266 128.3969 L134.303 132.5381 L133.7933 134.0543 L133.1566 134.4847 L131.4429 134.8671 L133.5311 135.0056 L133.5633 135.6089 L135.5386 138.1269 L136.3084 139.282 L137.6216 140.7281 L138.3044 141.4243 L138.38 141.5669 L138.4152 141.6998 L138.3267 141.8751 L138.0552 142.0088 L137.7252 142.1237 L137.6252 142.1588 L137.0497 142.2623 L136.254 142.0756 L135.4899 141.9272 L133.2794 141.1276 L132.3065 140.5684 L129.9551 139.6065 L129.5888 139.5698 L128.6745 139.9709 L128.3258 140.0801 L128.0518 140.1657 L127.0577 140.2407 L126.8194 140.4926 L126.5977 140.8031 L126.1081 141.1708 L125.9123 141.2197 L125.6445 141.2865 L122.0394 141.4267 L121.6576 141.7308 L121.9037 142.0715 L122.2295 142.2452 L122.6968 142.2892 L124.3675 142.1482 L124.6591 142.4571 L124.6954 142.4962 L125.0197 143.9782 L125.173 145.3313 L125.2487 145.999 L125.0622 146.7791 L125.0492 147.388 L125.0881 147.6252 L125.1534 148.0222 L125.7351 148.9726 L126.4573 150.2703 L127.2017 151.6838 L127.6773 152.0482 L128.8631 152.1362 L130.2369 152.2389 L131.431 152.2764 L134.8558 152.0066 L136.0095 151.8688 L137.0279 151.652 L137.7951 151.5974 L138.3489 151.3512 L139.2104 151.1719 L139.5529 151.2037 L141.1811 151.5281 L143.7578 151.9023 L145.6207 151.8362 L148.0457 151.2852 L148.2746 151.1923 L149.1739 150.8287 L149.9862 150.5662 L150.5121 150.5402 L150.9032 150.5883 L151.3145 150.8719 L151.4311 151.0431 L151.5616 151.2347 L151.732 151.9552 L151.7139 152.4313 L151.5958 152.8918 L151.2699 153.1731 L150.7571 153.3353 L147.5499 154.0298 L144.8716 154.5384 L143.6936 154.8873 L142.3145 155.1033 L141.5743 155.2851 L140.9309 155.228 L140.905 155.2256 L140.7262 155.3609 L140.748 155.5573 L140.7822 155.5736 L141.1609 155.7579 L141.3033 155.8271 L141.5489 156.0277 L141.925 156.1785 L142.3721 156.141 L142.7725 156.0285 L144.3391 155.3951 L146.2657 154.8857 L147.9674 154.5938 L149.6464 154.4618 L151.3088 154.4194 L151.516 154.6191 L151.6466 155.1726 L151.6165 156.9268 L151.5616 157.6058 L151.4482 157.6139 L148.6378 157.8552 L147.6395 158.0516 L144.4245 158.4894 L142.7673 158.3459 L141.3277 158.4193 L138.7794 157.9709 L138.2381 158.103 L137.8034 158.1486 L137.7169 158.1576 L137.447 158.2522 L137.7869 158.3964 L138.1894 158.5391 L140.5351 159.0632 L142.0638 159.3232 L143.1683 159.3705 L145.3119 159.0013 L146.9267 158.6165 L148.0508 158.5668 L149.3952 158.3035 L150.3561 158.2244 L150.8369 158.1054 L151.0177 158.1315 L151.2497 158.213 L151.2834 158.5684 L150.8736 159.4887 L150.7581 159.7479 L150.2416 160.2419 L149.9355 160.3935 L149.1139 160.7994 L148.1436 161.3252 L147.2603 162.0303 L146.8873 162.1917 L147.2722 162.9619 L147.0339 166.5077 L143.936 166.5077 L143.4076 169.5073 L146.248 171.6486 L146.9614 171.6616 L147.137 172.8272 L147.4551 174.1941 L148.8212 180.2339 L149.2232 181.8111 L147.9752 182.1127 L143.9003 182.3767 L147.3841 183.5855 L153.0002 184.2799 L153.3592 185.214 L152.9961 186.1489 L148.3352 185.4488 L148.4161 187.0707 L152.6806 188.0888 L157.2181 189.3016 L159.8565 191.0189 L161.8251 193.0867 L161.9333 193.2978 L162.239 194.3631 L162.0815 194.3011 L160.7771 193.7885 L159.5591 193.31 L152.6257 190.578 L147.8006 189.8843 L150.6556 190.9692 L155.407 192.7827 L159.1022 194.2718 L160.4227 195.8693 L161.8499 196.9419 L162.6658 197.4651 L165.0804 199.4905 L165.0525 199.537 L164.7463 200.0456 L164.3516 200.7017 L164.2961 200.7938 L164.235 200.7489 L161.7178 198.6078 L158.3573 196.9647 L155.3899 195.8717 L154.974 195.8106 L153.3836 195.2482 L152.0045 194.6255 L150.5825 194.1023 L148.8678 194.412 L149.0273 194.4829 L149.8956 194.4421 L152.205 195.9035 L156.4385 197.7952 L156.9995 198.1995 L158.0781 198.7268 L159.3219 199.7212 L160.6232 200.3602 L163.3693 202.2397 L164.7344 203.6847 L166.1212 204.7402 L170.4608 207.1844 L171.1053 207.4868 L172.4154 207.9391 L172.4439 208.8919 L171.8927 210.4429 L171.7684 210.5953 L171.6238 210.6173 L170.467 210.2522 L169.5682 209.9294 L167.0107 208.222 L165.4995 207.0288 L162.2006 204.0849 L161.322 203.2633 L160.3828 202.4793 L159.0245 201.5159 L157.1477 200.3594 L151.4523 198.8629 L145.9124 197.9248 L140.245 198.8629 L143.8169 207.1592 L144.7468 209.8316 L144.8001 209.8707 L145.9678 212.0281 L146.5003 213.2963 L146.5703 214.0045 L146.5309 214.0746 L146.3377 214.4177 L135.0267 211.4665 L134.7817 211.7168 L134.1839 211.967 L133.5778 211.9156 L132.6121 211.5684 L130.8865 210.6744 L129.6847 209.5928 L124.4556 205.7907 L113.4995 203.2226 L110.5482 202.3758 L104.4493 198.8524 L103.5702 198.5932 L110.3099 205.8225 L111.6962 209.235 L112.3012 211.5823 L112.9467 214.478 L113.1141 214.478 L113.2622 214.2816 L113.9408 213.8977 L115.3245 213.8016 L116.7005 213.9157 L117.4387 214.0151 L117.9241 214.7021 L118.5297 217.3819 L119.0239 220.8342 L119.5165 223.8872 L119.8781 225.7364 L119.9362 227.0469 L119.9144 228.1691 L120.2294 229.5146 L120.0864 230.7664 L118.9814 232.1397 L117.6651 232.7427 L117.0662 233.1486 L116.5378 233.2154 L115.9006 233.4371 L115.4561 233.3523 L114.9308 233.4184 L115.0987 235.6188 L116.4616 235.8673 L119.4689 236.3123 L121.0738 236.4484 L121.8312 236.4223 L122.3937 236.7027 L122.8009 236.9064 L122.5497 237.6888 L121.3944 239.7343 L120.6858 240.9095 L120.1869 241.5191 L120.1283 241.5166 L119.7403 241.4987 L119.3803 241.3161 L118.3831 240.3936 L117.8531 239.7262 L117.1025 239.6243 L116.2399 239.3814 L115.7177 239.4091 L115.4924 240.1076 L116.2746 240.6047 L116.8315 240.8663 L117.5273 241.2803 L118.3634 242.5532 L118.6343 243.0756 L119.2886 243.88 L119.7662 244.2157 L120.6433 244.6737 L120.9375 245.1994 L120.952 245.6867 L119.8543 246.9922 L119.5398 247.4877 L119.1037 247.8284 L118.725 248.301 L118.725 248.6938 L118.9612 249.3246 L119.185 250.384 L118.5654 251.2454 L118.8622 251.8892 L118.7524 252.6251 L118.983 253.6535 L119.0721 254.0504 L118.05 254.9068 L117.9122 255.0217 L117.8718 255.056 L117.2294 255.2956 L116.0684 255.3461 L115.396 254.9598 L115.3826 254.9134 L114.7547 252.4335 L114.6371 251.859 L114.3511 251.1949 L114.2739 251.1468 L114.0652 251.0156 L113.9522 250.7475 L113.6741 250.0865 L113.2089 249.9423 L112.4375 249.6302 L111.418 248.9261 L110.7373 248.5838 L110.3259 248.6205 L110.1529 248.636 L109.122 248.8242 L107.7736 248.9481 L107.5549 249.5528 L107.4928 250.12 L107.6047 251.9756 L107.6187 252.6992 L107.1923 253.3495 L105.9936 253.3397 L105.4709 254.3755 L105.1315 255.3542 L106.2655 255.4422 L106.7717 255.3648 L108.2398 256.4063 L109.2722 257.8055 L109.7846 258.2611 L110.3658 258.8763 L110.9201 259.1697 L111.4216 259.1949 L111.9573 259.1298 L113.2513 258.8959 L113.9326 258.9236 L114.7941 259.01 L115.7001 258.8951 L117.0947 258.8282 L117.9028 258.7565 L118.5234 258.4615 L118.9182 258.6253 L119.0078 259.8827 L119.1145 261.3854 L119.1897 261.6348 L120.591 261.5647 L121.0883 261.5468 L122.3476 261.9713 L122.5108 262.0463 L124.0981 262.7773 L126.8266 263.91 L129.8287 264.1056 L130.8202 264.1243 L132.608 263.5327 L133.0514 263.584 L133.6534 263.9442 L133.6627 264.6719 L134.3403 264.6247 L134.2595 263.4594 L135.105 262.2109 L136.3809 261.2339 L137.4356 260.4255 L137.8304 260.5436 L138.5479 261.2787 L138.9074 261.8467 L138.6515 262.1645 L136.799 264.465 L137.7848 266.0809 L138.0454 266.1111 L139.3104 266.2553 L140.2895 266.3221 L140.6169 266.0956 L141.0961 265.3532 L141.7141 264.5522 L142.1705 264.6182 L142.3923 264.6499 L142.8062 264.9425 L145.6026 267.7547 L147.1101 269.6453 L149.1211 272.6652 L150.2857 274.9803 L151.1524 277.5268 L151.8579 279.9869 L152.7163 282.2547 L152.9836 282.2139 L152.9106 280.8303 L152.8251 280.2664 L152.103 277.6979 L151.6792 276.6093 L151.0886 275.3967 L150.2406 273.2194 L149.4863 270.7421 L148.7067 269.8384 L148.1311 269.259 L147.4126 268.6649 L145.1192 266.4061 L144.2873 265.4208 L143.232 264.3166 L142.1778 262.9737 L140.9443 261.7285 L140.36 261.0912 L140.6812 260.4792 L141.3194 260.1076 L142.5876 259.7964 L143.6599 259.6546 L145.6171 259.5494 L147.5457 259.5885 L149.2138 259.855 L150.3603 260.1231 L151.9325 262.0626 L153.137 264.02 L153.8674 264.6899 L154.2663 264.782 L154.7336 264.3549 L155.1029 263.9654 L155.8199 263.9157 L156.6364 264.1838 L157.5999 266.2977 L159.1395 269.3315 L159.3276 269.7023 L160.1093 270.813 L160.2725 271.2604 L161.307 274.0962 L161.5785 275.0944 L162.2012 276.8252 L162.2763 277.5521 L162.4788 278.2553 L162.8259 278.9879 L163.0388 279.3187 L163.4906 279.9095 L163.7765 281.1514 L163.6512 282.5301 L163.344 282.5106 L162.7161 282.271 L161.4168 282.0257 L160.2999 282.1928 L158.923 282.346 L156.6612 282.9278 L155.0589 283.424 L153.8115 283.5536 L153.5421 283.6554 L153.4095 283.9496 L153.4281 285.2436 L153.2618 285.7839 L152.9748 286.0878 L151.9175 286.9189 L151.242 287.4959 L150.0774 287.7102 L147.3587 288.3205 L146.4216 288.6008 L145.659 288.7393 L143.6055 289.2307 L142.7378 290.0887 L142.2845 290.4701 L141.3883 291.4723 L140.4584 292.0875 L140.0466 292.2994 L139.3923 293.1256 L140.0828 294.4889 L140.3719 294.7618 L140.6739 294.5606 L140.8671 294.2949 L141.1339 294.1051 L141.8276 293.0694 L142.8031 292.0794 L143.2812 291.7249 L143.9101 291.5326 L144.4489 291.3305 L145.9983 290.9777 L150.4623 300.6343 L150.7742 300.3052 L146.3061 290.8636 L146.6718 290.6893 L147.1722 290.5067 L148.5849 290.0683 L149.4558 289.7123 L150.0748 289.4963 L150.7535 289.4898 L151.4357 289.4075 L151.6435 289.8508 L151.2404 290.5564 L151.1601 291.8806 L151.1897 292.8543 L151.4518 295.1701 L151.3746 296.1234 L151.3777 297.2634 L151.8243 298.0179 L152.5785 298.8963 L153.0318 299.5979 L153.2375 300.2701 L153.2546 301.0678 L154.072 302.1214 L157.6932 302.3186 L158.6971 301.2389 L159.6762 299.2671 L160.2424 297.5307 L160.918 296.1316 L161.5697 295.065 L162.167 293.6349 L162.4053 292.2774 L162.4053 292.1152 L162.4048 291.808 L162.4048 291.619 L161.4516 290.7422 L159.4198 290.1107 L158.2589 290.0578 L155.6308 290.2101 L154.9594 290.2492 L153.8503 290.0089 L153.2225 289.7701 L153.0463 289.3554 L153.1339 289.0082 L153.2991 288.5682 L153.6167 288.0972 L154.3849 287.2172 L156.5918 285.9322 L157.702 285.4041 L158.2806 285.3161 L158.881 285.374 L159.4509 285.4726 L160.4642 285.8963 L161.1915 286.1945 L162.3089 286.9882 L162.7881 287.856 L162.9549 288.5845 L163.0124 289.2087 L163.1533 289.894 L163.5035 290.2501 L163.7895 290.4293 L164.2034 290.4782 L164.6095 290.4163 L164.9825 290.0488 L165.0286 289.8312 L165.1592 289.216 L165.253 289.0343 L165.5306 288.4981 L165.7513 287.2661 L165.6197 286.4985 L165.5762 285.823 L166.0352 285.242 L168.3597 284.7327 L168.9041 284.8639 L169.1072 285.5223 L168.9632 286.5221 L168.9507 287.073 L168.859 288.028 L168.4669 291.2442 L168.0405 299.6924 L168.0271 301.5551 L168.1871 302.031 L168.17 302.5003 L167.7618 302.4881 L166.7801 302.6005 L166.3989 302.77 L166.2403 302.9427 L166.1694 303.2939 L166.5968 303.2882 L167.536 303.1456 L168.1892 302.9713 L168.4741 303.047 L168.6985 303.8945 L168.9 305.0792 L168.8989 306.3324 L168.5451 306.6844 L167.6769 307.3004 L166.9091 307.6027 L169.23 309.3643 L168.1825 313.7919 L166.1678 317.2344 L166.8967 320.0715 L167.5707 322.3464 L167.2339 324.3255 L168.1643 325.0482 L170.5375 323.3975 L170.5007 322.5216 L171.1633 322.1614 L171.5943 323.0072 L171.8642 323.3274 L172.5403 324.13 L173.9804 324.3174 L174.5601 324.3923 L177.4736 324.3565 L178.7298 323.1873 L179.7012 322.1354 L180.2741 321.6253 L180.9636 319.6356 L181.2201 318.8958 L180.6523 316.8034 L179.5903 314.7208 L178.8588 312.7205 L178.5252 311.8372 L178.0631 311.5667 L176.0562 312.3171 L175.2154 312.8158 L174.2653 313.849 L173.4484 314.8129 L172.8956 315.8436 L172.29 317.307 L172.173 318.4876 L171.9259 319.7334 L171.6596 320.4626 L171.6 320.8496 L171.314 321.2049 L170.8898 321.5284 L169.6848 322.0164 L168.5902 321.9089 L168.0084 321.53 L167.4365 320.2915 L167.3624 318.9243 L168.0214 317.1081 L168.1789 316.0212 L168.4907 315.2032 L168.8409 314.3941 L168.9274 313.7439 L169.4569 312.8997 L169.8475 312.5917 L170.8338 311.6433 L171.9077 310.7242 L173.3095 309.8458 L174.4078 309.4857 L176.007 309.0514 L177.4466 308.7638 L178.3522 308.4998 L180.5922 307.773 L180.6999 307.7567 L181.3143 307.663 L184.5355 307.333 L186.4253 307.3802 L187.9261 307.6141 L189.0922 308.1315 L189.0803 308.3344 L189.0767 309.4107 L188.7622 310.9271 L188.2354 312.3294 L187.6334 313.2802 L187.4552 313.8115 L187.1226 314.6401 L186.2663 316.5533 L185.3846 321.3141 L185.2608 322.6226 L184.5676 325.2389 L184.0164 328.854 L182.4691 334.7977 L186.4621 337.7731 L185.6426 339.3236 L185.6131 339.6536 L185.0448 340.4553 L184.0957 342.2502 L183.515 342.8392 L183.2907 343.5415 L182.3919 344.5819 L181.4128 345.0944 L180.7419 345.65 L180.098 346.3026 L179.5421 346.987 L179.2365 347.2111 L178.4159 351.0867 L172.9039 356.841 L170.3406 357.3999 L169.5221 360.1943 L165.9217 366.3045 L168.2643 366.6377 L168.2581 369.0419 L165.1602 377.767 L164.2469 378.7642 L162.0882 379.7906 L161.4857 379.5193 L159.9104 377.6179 L157.889 378.1857 L157.4404 377.6391 L155.9101 375.635 L153.4312 372.5132 L149.5138 371.6651 L148.2135 373.8884 L150.5701 376.2631 L153.1841 379.3613 L155.3247 381.5275 L155.5718 382.2281 L157.4828 384.5523 L157.5605 385.3555 L156.8798 386.0814 L155.9033 388.0789 L160.0803 389.1469 L159.8974 404.9562 L170.0184 407.4994 L172.5573 407.3194 L170.8167 405.142 L167.7623 400.4857 L167.5904 399.5822 L170.4194 398.3123 L170.1298 396.3832 L170.9488 393.862 L169.4268 391.5557 L167.6981 389.4116 L166.6957 387.3791 L166.3186 386.303 L165.6436 385.6056 L167.5805 384.1995 L168.1317 384.2264 L169.2823 383.0435 L169.9754 383.4272 L170.2635 383.2366 L170.9209 383.1796 L171.3436 384.1669 L171.3798 384.8944 L172.1512 385.4508 L173.9172 386.4366 L175.5832 385.9657 L176.9276 385.0345 L178.06 383.6847 L178.6485 383.4248 L180.0876 383.3165 L181.1708 383.1511 L181.8775 382.8879 L182.8762 382.9955 L182.971 383.4769 L182.5048 383.6668 L182.0702 384.1629 L182.1328 385.0647 L182.6214 385.8492 L183.6922 386.1897 L184.2035 386.7347 L183.1363 387.7856 L181.9821 388.1172 L181.3832 388.1123 L179.3919 387.9412 L178.8257 388.0569 L176.3204 387.3204 L174.4492 387.5086 L174.3042 388.0137 L174.2234 389.2764 L173.8602 392.051 L174.1125 393.8269 L174.1436 394.5039 L174.6818 396.1551 L174.9973 397.0186 L176.7307 400.1696 L177.6456 402.6004 L178.0885 402.7258 L178.0781 402.7275 L178.2651 402.936 L180.3073 402.3731 L181.7464 401.6799 L182.4219 401.5544 L182.7063 402.0025 L183.6673 403.8761 L184.4153 405.212 L184.1713 406.0812 L183.9159 407.2803 L183.5476 407.9043 L183.3896 408.6008 L183.8056 409.2215 L184.1807 410.3391 L184.6951 411.4543 L185.2623 413.626 L186.1223 414.9619 L185.7006 415.3 L183.8766 413.4003 L183.2259 412.5214 L183.2611 412.1679 L183.4969 411.7247 L183.7227 411.2164 L183.7004 410.6788 L182.8711 409.5612 L180.9911 409.0325 L180.0306 408.5934 L179.0707 407.5247 L178.4573 406.2547 L177.9351 405.001 L176.5302 403.705 L179.7473 410.4523 L185.0536 415.6804 L191.5643 418.9696 L192.7584 416.6383 L198.5279 417.9522 L201.072 415.2739 L204.5004 416.0543 L217.9627 429.9109 L218.962 428.9595 L215.1767 425.0439 L215.129 425.1196 L213.3086 423.1125 L207.7894 417.404 L206.1995 416.0754 L205.6287 415.3773 L205.308 414.812 L204.9552 414.443 L205.0008 414.2695 L204.9329 414.1498 L205.2059 412.8782 L205.5157 412.2982 L205.811 411.1667 L206.1819 409.5579 L206.1115 409.2964 L206.5461 407.6298 L206.702 407.3023 L207.0419 405.8279 L208.8752 402.703 L207.247 401.064 L207.8112 399.0935 L207.9215 398.1241 L208.1059 397.8292 L208.1728 397.83 L208.2883 397.426 L208.5991 397.8373 L208.854 397.8414 L209.3135 398.0972 L209.6134 398.4662 L209.772 399.3892 L211.4515 401.6098 L212.4114 401.1365 L212.8481 400.9964 L213.4397 400.7577 L213.979 400.625 L214.4763 401.0673 L214.6975 401.7442 L215.1876 403.5665 L215.3155 404.4137 L215.2321 404.7249 L215.3585 405.1306 L210.7428 407.5581 L213.9028 412.0546 L211.6048 413.5918 L212.5259 414.3762 L213.4894 413.7726 L216.3376 411.6579 L218.0513 410.9615 L218.3425 412.4293 L223.0463 426.44 L224.2119 426.2364 L222.9266 421.9827 L222.8178 421.8125 L222.2863 420.1084 L222.3148 419.9585 L221.2155 416.3214 L220.8638 415.4433 L220.728 414.8935 L221.0824 414.478 L222.895 413.0875 L223.2058 412.721 L223.0535 412.3226 L220.0779 408.7881 L220.5877 408.5902 L220.3411 408.0615 L220.325 407.5915 L220.9187 407.0718 L221.5595 406.7671 L221.9397 407.0196 L222.6572 407.5613 L223.0297 407.6412 L223.7042 407.3789 L226.6648 401.785 L232.4902 397.0333 L233.4698 387.2976 L235.8129 387.1893 L236.9423 389.6202 L236.6397 397.6117 L239.5035 400.3024 L243.7006 409.2932 L245.3423 409.5424 L247.6989 409.0064 L248.8614 409.9758 L253.1342 407.567 L252.2276 403.7539 L252.5731 401.3206 L254.6469 399.9741 L255.3851 399.0438 L259.0502 398.7522 L263.2055 400.1957 L266.7996 402.8936 L264.3037 406.1415 L264.4016 407.998 L266.9452 411.0445 L267.4788 414.1807 L269.0288 416.3394 L269.3132 417.5979 L268.8837 420.2958 L268.0108 421.0256 L260.4515 421.2048 L260.5111 422.1636 L261.8373 424.7132 L262.0103 425.2548 L262.0088 425.8348 L241.1855 432.7846 L240.6328 434.39 L244.3705 433.0599 L246.6612 432.4433 L249.0432 431.6361 L251.2765 430.6741 L252.3162 430.5161 L253.7284 429.9385 L254.3879 429.7569 L255.067 429.686 L255.7886 429.4474 L256.387 429.0083 L257.3521 428.698 L258.6612 428.5074 L261.3685 427.5617 L262.6574 426.9508 L263.5038 426.8041 L265.0082 426.7194 L265.7568 427.5161 L266.106 428.6019 L267.6487 428.7762 L268.676 428.843 L269.7198 429.0189 L271.0357 429.4987 L272.8089 430.3711 L274.3403 430.9559 L277.003 431.443 L278.151 431.4544 L278.8742 431.3445 L279.9372 431.3599 L282.2679 432.0181 L283.321 432.3789 L285.6274 432.9573 L286.3386 433.2586 L286.9919 433.4191 L287.1193 433.7718 L287.1126 434.219 L286.9582 436.6219 L286.4081 438.1182 L286.0045 438.1426 L285.0337 438.0506 L281.5478 437.0772 L277.4615 435.7951 L276.4544 435.6819 L275.9633 437.0748 L274.9883 441.1784 L274.5656 441.7404 L274.1201 442.2169 L273.6083 442.6991 L273.4093 442.7521 L272.0381 443.064 L269.0676 443.2041 L268.0295 443.0314 L263.408 442.8506 L262.0668 442.489 L257.0496 440.9837 L255.8182 440.6791 L254.7702 439.757 L253.6704 439.3685 L252.9638 439.0468 L249.5188 438.6346 L248.5625 438.6688 L247.2663 438.9026 L265.8371 443.8802 L267.011 443.8655 L270.0519 444.3876 L272.8773 445.3878 L273.4736 445.4229 L273.5699 445.3764 L273.6699 445.3561 L273.7725 445.1622 L273.96 444.4194 L274.5262 443.6407 L274.706 443.3173 L275.5975 443.0184 L277.5915 442.8262 L280.233 442.6853 L281.6068 442.4759 L282.9009 441.9823 L284.7793 440.9528 L288.8574 439.1062 L290.4327 438.7177 L292.1485 438.5686 L294.0725 438.5735 L294.4978 438.6949 L295.0811 439.1266 L295.3355 439.8312 L295.2842 440.4714 L293.9989 442.4881 L292.9919 444.3884 L292.5173 445.1671 L291.5527 446.3335 L291.3051 446.6903 L289.4054 448.496 L288.8392 449.704 L289.2164 450.2415 L290.0385 450.3409 L290.8275 449.5989 L291.4947 448.7339 L291.818 448.1368 L292.4153 447.2018 L293.0338 445.8709 L293.3711 445.4123 L294.1036 444.8348 L294.5548 444.5953 L294.9262 444.1685 L295.0858 442.5834 L295.8442 441.3478 L296.2037 440.9894 L296.3327 440.526 L296.4109 439.8694 L296.7026 439.3066 L296.771 439.0736 L296.7425 438.7894 L296.4767 438.2518 L296.3317 437.8584 L297.0124 437.2523 L297.5511 437.3485 L298.0065 437.7679 L298.5826 438.5572 L299.6901 440.991 L301.1433 444.4878 L301.7742 447.4404 L301.7374 447.93 L301.5758 448.4317 L300.993 448.8756 L299.8285 449.5785 L298.7696 449.9019 L297.4817 450.424 L297.4113 450.9827 L297.8407 451.5114 L298.3153 451.9593 L299.9611 452.6541 L303.031 451.838 L303.3672 451.8608 L303.7273 452.356 L304.064 453.8009 L304.121 454.6456 L303.7858 455.3664 L303.6516 455.9439 L303.906 456.6492 L304.3157 457.4043 L305.7999 459.1489 L306.6671 460.7274 L307.1396 460.9163 L307.1764 461.1354 L307.2002 461.1542 L308.2772 460.5669 L308.975 459.0243 L309.0201 458.3637 L309.0631 458.0925 L308.4456 456.6452 L307.9498 455.9993 L306.2859 455.1595 L305.4446 454.4623 L305.2954 454.2155 L304.9959 453.3448 L304.408 451.2646 L303.9837 449.6062 L302.4959 446.2105 L301.5095 442.4393 L300.934 440.6188 L300.2056 438.6851 L299.9953 438.3096 L300.8713 438.5336 L300.1673 436.4761 L300.5314 436.3914 L302.5912 436.3376 L302.9854 436.8247 L303.2211 437.359 L303.4687 437.6319 L304.3023 440.8624 L304.5888 442.1224 L304.9768 444.2109 L305.3228 445.0311 L306.0315 447.5773 L306.6231 447.7614 L306.8402 447.5056 L306.8075 447.0763 L306.5516 446.3123 L306.0123 445.0905 L305.6414 444.1441 L305.2829 442.7985 L305.1363 441.4464 L304.238 438.6183 L303.7993 437.4258 L303.6734 436.0175 L303.6625 435.5084 L303.3532 434.9773 L302.8036 434.3249 L302.6508 433.7661 L302.7165 433.0713 L303.1714 432.9165 L303.3838 432.9263 L303.4314 432.9507 L304.3826 433.0876 L305.1752 433.2489 L305.7134 433.1446 L306.578 434.1245 L309.3786 442.2039 L310.0215 443.8598 L310.8902 446.4044 L312.0066 449.809 L312.4604 450.986 L312.5868 451.5944 L313.2199 451.9072 L313.4338 451.6156 L313.4157 451.1522 L313.0525 450.1185 L312.4848 448.7534 L312.0885 447.1554 L312.0211 445.6518 L312.4599 445.185 L313.2903 445.0588 L313.883 444.9244 L314.4642 445.0067 L314.9144 445.6892 L315.3402 447.4282 L315.7028 449.1973 L315.9691 450.8581 L316.7032 452.6875 L317.8491 455.1954 L318.8116 457.4637 L319.6451 460.2762 L320.2937 462.8589 L319.9767 463.2034 L319.1105 463.7271 L317.9429 464.505 L317.2901 465.0262 L316.7482 465.3968 L315.3563 466.8897 L313.7307 468.9886 L312.191 471.2447 L311.8149 472.3899 L311.4461 473.7712 L310.8358 474.4765 L310.1427 474.8674 L309.7972 475.0621 L308.4394 475.3366 L307.5447 475.7943 L305.874 476.8702 L305.4917 473.2646 L303.8319 470.7373 L303.2025 469.3592 L303.1916 468.8942 L303.2988 468.6262 L303.5288 468.7313 L306.5962 470.6502 L306.7847 471.0216 L306.4003 471.3612 L305.6953 472.2164 L306.7816 473.0512 L309.7801 470.8033 L308.6777 470.1134 L306.0382 469.0424 L304.6364 467.8427 L304.25 467.2962 L304.0645 466.7545 L302.2664 464.9244 L301.092 464.7012 L300.2994 464.6157 L304.3748 472.5128 L305.2171 475.3349 L306.1439 478.2417 L306.8977 483.7132 L307.826 483.3051 L309.4661 482.1071 L312.6433 480.4627 L312.3584 478.899 L312.6526 478.2759 L315.0299 476.1258 L314.9594 474.1287 L314.1544 472.5747 L315.2755 470.9898 L318.6127 467.1398 L321.8359 465.4384 L323.4155 465.9694 L327.3282 462.7302 L327.6779 462.0477 L330.8861 459.377 L334.8284 456.7641 L336.7556 456.6403 L339.5773 457.6177 L345.9741 459.2841 L346.5471 453.6869 L345.9384 450.4387 L345.8684 449.3904 L346.4544 448.4618 L348.6099 449.1069 L353.2583 447.8013 L354.0043 447.8509 L355.6657 450.2432 L358.0813 454.8003 L360.0333 454.1715 L362.3246 453.2536 L362.8898 452.7901 L363.4746 452.0644 L364.1103 451.4788 L365.6266 451.056 L367.1429 451.4112 L368.3085 451.8958 L369.8471 452.9335 L372.6352 456.7144 L374.2945 458.4827 L375.9579 459.9455 L378.717 462.5184 L380.5814 465.0352 L383.0919 469.0514 L383.9891 471.2203 L382.2247 472.6431 L382.3671 473.8811 L383.7462 476.4116 L385.133 476.2528 L385.9701 476.467 L386.8409 478.8599 L386.7715 479.4772 L385.8012 479.7509 L387.5362 479.8356 L387.1689 483.56 L382.1045 480.8365 L381.288 483.1593 L381.5466 483.1732 L382.1283 485.0187 L382.1185 485.8339 L381.5807 486.1377 L381.2191 486.1133 L380.0131 486.8512 L383.6394 488.3497 L385.1646 488.4686 L385.3314 488.331 L388.1184 487.9596 L389.3089 488.164 L389.987 488.3888 L390.4289 488.5957 L391.4054 488.7944 L391.8706 488.9899 L392.8347 489.0827 L393.2802 486.6476 L400.6364 488.5208 L400.4287 490.8386 L400.3049 492.2997 L412.023 489.4329 L413.0746 487.1199 L414.7997 487.1199 L414.3987 488.3807 L414.4749 488.3896 L414.1786 489.9012 L413.8838 489.9998 L413.8154 490.2148 L417.3205 494.3553 L429.9607 491.9454 L423.6458 489.8304 L419.4403 480.8822 L408.9241 463.0218 L405.6086 461.8318 L396.2626 459.9862 L377.7053 446.4231 L368.8001 441.5352 L368.3463 435.9849 L363.3674 434.3452 L359.7629 431.0097 L358.2688 420.3902 L355.4269 416.7629 L346.7491 415.3097 L345.6042 413.3694 L345.2613 413.2602 L344.7044 412.6721 L343.8989 411.6416 L343.2466 410.6641 L340.4093 406.0226 L338.9505 402.5922 L338.8148 400.8734 L338.1393 399.9154 L336.7545 398.8075 L334.6601 397.1327 L330.4826 394.2864 L328.1716 392.8974 L319.0623 386.6337 L319.5374 386.5783 L321.1045 385.8834 L322.0126 385.6871 L324.3205 386.5522 L325.9238 387.4606 L327.5277 387.7978 L329.2149 387.6398 L330.5727 387.595 L331.8145 387.6088 L333.8509 387.661 L335.2574 388.2011 L336.1857 389.3342 L336.6841 389.4858 L337.1716 388.8772 L336.8281 387.4997 L336.8379 385.3563 L336.9219 383.7034 L337.1943 382.8586 L338.3092 381.6236 L340.0943 380.136 L341.9914 378.6583 L345.2359 377.8648 L347.1884 378.0774 L348.5763 377.864 L349.5906 377.9299 L350.0257 377.6652 L350.0946 376.8497 L350.2651 374.9344 L349.4481 373.2538 L348.4338 370.303 L347.836 368.1531 L347.8241 366.8048 L347.8842 365.0735 L347.52 364.2214 L346.9724 363.26 L345.9037 361.5435 L345.7177 360.8029 L345.3489 359.5638 L345.6514 358.9153 L345.569 358.1006 L347.1423 357.76 L347.6655 357.8236 L348.267 357.6818 L348.5514 357.1359 L348.6757 356.4141 L348.3613 355.9595 L347.2625 355.1309 L347.0574 354.8075 L346.8605 354.4979 L346.8273 354.168 L346.9874 353.7924 L347.6883 353.2824 L348.642 353.3198 L349.731 353.627 L350.1713 353.8942 L352.4481 355.2662 L353.3314 356.564 L353.6562 359.9638 L353.3018 362.1496 L353.1045 363.9224 L353.5785 365.634 L354.2058 368.1091 L354.4933 369.9967 L355.0533 372.0717 L356.091 373.934 L356.493 375.9601 L356.8209 376.1768 L358.0979 376.123 L358.5512 377.9332 L359.9395 376.5678 L362.1858 376.5442 L362.1531 378.8147 L362.0174 380.4049 L361.2098 381.9812 L360.5829 384.0146 L358.043 387.3188 L354.3747 390.1562 L351.9596 391.7309 L352.33 394.6253 L352.0212 396.0916 L351.6104 397.909 L352.1632 399.5643 L352.6496 400.3969 L353.0568 401.1984 L355.102 403.7172 L356.5987 405.3741 L358.9599 408.2513 L363.7487 415.6299 L364.8905 422.5285 L368.7354 430.0159 L382.8624 445.4677 L396.9267 450.9306 L409.5416 459.1351 L418.913 471.0346 L422.9278 481.7935 L426.3779 484.9698 L431.5117 486.0042 L433.9569 486.3869 L448.7677 491.9739 L460.1284 503.4001 L465.6766 511.3974 L467.3603 511.0146 L470.8674 512.0 L458.4344 496.4532 L457.7713 493.1548 L456.4814 490.7034 L453.1607 490.7849 L450.8518 488.2813 L445.0275 481.9646 L427.5435 476.6869 L427.155 467.5975 L429.5484 467.3206 L428.4812 464.1523 L424.0364 465.2355 L418.053 461.0573 L417.4987 456.9767 L414.5873 453.9141 L414.0123 452.9205 L411.2459 449.9882 L409.842 441.1833 L414.6132 437.917 L417.6334 437.355 L417.4417 440.0837 L418.2188 446.2252 L420.177 447.6261 L419.2549 443.9527 L419.2549 441.9489 L430.7813 452.277 L439.0026 452.3014 L440.018 449.6543 L444.898 448.8398 L444.898 451.4869 L450.011 451.0308 L457.8179 449.1167 L466.117 447.5528 L467.1738 447.5528 L469.4589 448.615 L470.7674 451.4568 L471.6295 447.6897 L474.9812 441.5286 L472.4594 438.5914 L466.8091 431.6328 L462.6596 425.7591 L459.1478 415.6396 L457.8392 412.5752 L457.0093 407.4677 L454.1041 398.0825 L453.8808 395.8163 L452.8396 393.0009 L448.0166 386.0358 L449.3065 383.38 L440.878 375.6326 L434.9298 374.4065 L421.9445 371.6138 L410.8828 368.615 L409.2846 367.8304 L410.7424 372.6908 L411.2216 374.29 L410.8185 374.5026 L410.1409 374.8611 L408.5511 370.6598 L408.3325 370.9189 L408.333 370.923 L408.0455 371.0607 L408.2014 371.5552 L409.2722 374.1483 L410.2269 377.9299 L410.673 377.8778 L412.5011 377.6293 L413.3828 377.3988 L414.2283 377.1299 L414.6909 377.2424 L415.0292 377.5251 L415.2431 377.9316 L416.0984 377.9951 L416.9858 377.9267 L418.9316 377.4167 L419.3507 377.5014 L419.5175 377.6244 L419.603 377.9462 L419.4823 378.3731 L419.489 378.5458 L419.489 379.288 L419.8263 379.9193 L420.4168 380.6468 L421.1074 384.6794 L421.2706 386.2028 L421.1162 386.5001 L420.5624 387.384 L420.5406 387.8377 L420.5645 388.2426 L420.7748 388.6565 L421.4493 388.9628 L422.1077 389.1607 L422.7568 390.8658 L423.1941 390.7256 L422.7211 388.3241 L422.7195 387.5811 L422.8314 387.3416 L423.1599 387.0687 L423.8162 387.006 L424.1633 387.1021 L424.5969 387.3392 L424.6446 387.3652 L424.8212 387.9974 L424.4073 389.564 L424.615 390.4511 L424.6663 391.036 L424.1416 392.7003 L424.2079 393.7691 L424.3063 394.4232 L424.6777 396.1503 L424.5715 396.4264 L424.2628 396.5853 L423.4096 396.5657 L422.3175 396.4346 L420.9266 396.5885 L419.5906 396.736 L418.2929 396.7099 L414.8411 395.637 L412.282 394.2921 L412.1598 394.1903 L411.3273 393.4962 L409.8286 393.0636 L409.1909 391.8718 L408.0662 389.9982 L406.3235 389.0206 L406.2634 389.3456 L405.5257 389.5167 L404.2 389.6951 L402.9065 389.9371 L401.0923 390.1668 L398.8155 390.333 L396.8682 390.359 L395.0343 390.2165 L394.9177 390.2002 L394.3194 389.8532 L393.934 389.5029 L393.9205 389.1705 L393.3626 387.4809 L393.0 386.5954 L392.9388 386.0936 L392.6466 385.9673 L392.3234 386.1799 L391.8287 386.8618 L391.165 387.34 L390.878 387.4744 L390.8853 387.5217 L390.8117 387.5697 L390.9143 387.7123 L390.9242 387.7775 L391.0873 387.9534 L391.1189 387.9974 L391.8131 388.1897 L392.6741 388.5049 L393.1232 389.0312 L393.4548 389.6593 L393.303 390.0234 L391.766 389.8271 L390.0155 389.4849 L387.6325 388.6247 L387.5931 388.6019 L386.5524 387.7546 L385.952 387.6504 L385.2645 387.6512 L385.1931 387.7685 L383.5374 388.7624 L382.7935 388.4976 L382.3169 388.3282 L382.0491 388.1506 L381.7678 387.0435 L381.5797 386.6353 L381.7051 386.2484 L381.9921 386.2508 L382.3521 386.1962 L382.4122 386.1946 L383.0603 386.316 L384.3968 386.5669 L384.8713 385.8948 L385.3469 385.6341 L385.7049 385.4378 L386.0846 385.4142 L387.4305 385.3295 L389.0001 386.3795 L389.0209 386.3746 L389.3737 386.4292 L389.8295 386.1824 L389.8632 386.1751 L389.3643 384.4358 L389.7845 383.8908 L389.9943 383.4859 L390.4911 382.3014 L391.5033 382.2167 L391.7877 382.2525 L392.2721 382.3128 L393.1269 382.1083 L393.2916 382.0692 L393.7387 381.8403 L394.4562 381.6326 L394.8276 381.525 L395.6192 382.2981 L396.1398 382.9262 L394.8613 383.9405 L394.5442 384.0928 L393.8423 384.7551 L393.8428 384.7551 L393.7423 384.8586 L393.7516 385.2252 L394.1319 385.2366 L396.0486 384.1653 L396.9008 383.4411 L396.8858 383.0884 L397.0868 382.747 L396.9562 382.4912 L395.3519 381.1658 L394.723 380.7202 L394.3531 380.2411 L394.2386 380.0929 L394.1158 379.9992 L393.6195 379.6212 L393.3854 379.2554 L392.4534 379.6937 L391.622 380.1597 L390.1632 380.3813 L390.1549 380.3967 L389.5239 380.9116 L389.5669 381.5625 L389.5607 381.5764 L389.5156 382.5181 L389.0338 382.9996 L388.0868 384.0725 L387.2217 384.6256 L386.8705 384.8464 L385.8753 384.9881 L385.5329 384.9914 L384.8309 384.857 L384.2538 384.659 L383.9487 384.5539 L382.9349 384.0056 L382.6184 383.7873 L382.2687 383.2228 L381.8579 383.0093 L381.5445 382.7772 L381.3414 382.4757 L380.7161 379.4591 L380.0183 376.4717 L379.5604 374.6045 L379.034 372.347 L379.005 371.4224 L379.3128 371.0941 L379.8888 370.7991 L382.0475 369.2146 L383.0116 368.5474 L384.7118 367.1005 L385.2019 366.4308 L387.1202 364.4275 L386.9088 364.1041 L384.5595 366.4528 L384.5155 366.5229 L383.8373 367.4101 L382.2853 368.5995 L381.2362 369.0924 L380.6488 369.6064 L379.9971 370.0733 L379.2397 370.5246 L379.2045 370.5376 L378.7289 370.5727 L378.3575 370.0716 L378.2668 369.7132 L377.5566 367.4866 L377.4509 366.9318 L376.8925 366.2377 L376.3242 366.2214 L375.6673 365.2471 L375.0451 364.1929 L375.0125 364.1391 L375.5165 363.7586 L376.5687 363.0523 L377.4416 362.3117 L378.0772 361.4881 L378.4259 360.75 L378.6502 359.963 L378.6916 359.8179 L378.6616 359.4725 L378.5533 358.2309 L377.9783 357.259 L377.1276 356.8614 L375.9118 356.9795 L372.7771 358.0924 L372.0001 358.1812 L371.4908 357.9889 L371.021 357.8113 L370.5501 357.3861 L370.0745 356.4361 L369.7771 355.5921 L369.6704 354.3097 L369.8631 354.1126 L370.2734 353.6946 L371.052 353.2726 L371.6483 353.0078 L373.0589 352.8172 L373.9723 352.3552 L373.7547 350.6696 L374.0152 350.3412 L374.926 349.9836 L376.6428 349.4898 L376.5904 348.7647 L374.8275 343.8764 L374.4468 344.3587 L374.7307 345.1433 L374.7794 346.0541 L375.2679 347.8392 L375.3989 348.6417 L373.9023 349.1509 L370.8241 350.0993 L370.0569 350.2524 L369.4166 350.0243 L368.151 348.6971 L367.6547 348.1032 L366.9424 347.1557 L365.7385 345.5303 L365.8457 345.2622 L366.0908 345.127 L366.3301 344.9958 L369.8564 343.8829 L372.7745 343.0022 L373.9645 342.7105 L374.2893 342.5133 L373.6992 341.7361 L373.2201 342.1345 L372.258 342.3496 L370.1387 343.0062 L368.5147 343.4641 L365.7986 344.4312 L365.6121 344.4972 L365.0826 344.4931 L364.7029 342.8017 L365.0324 342.6062 L365.2645 342.4677 L366.8818 342.0758 L371.4665 340.5376 L373.0828 339.7106 L372.8678 339.1655 L370.4532 339.9477 L368.8488 340.3404 L367.2771 340.9506 L365.2189 341.5226 L364.8521 341.5413 L364.6604 341.4965 L364.3667 341.0207 L364.1978 340.6378 L364.2103 340.1538 L364.2792 339.7807 L364.7423 339.5175 L368.7457 338.2872 L370.0672 337.7096 L371.8493 336.1616 L373.0745 335.0975 L373.9458 334.2591 L374.9985 333.393 L375.9916 332.8708 L376.3485 332.5555 L375.9299 331.7277 L374.6597 331.128 L374.6985 330.8013 L374.9767 330.6628 L375.6652 330.4892 L375.8828 330.4338 L376.4894 330.0444 L377.7415 329.5205 L380.7317 328.6593 L381.7315 328.1468 L382.8639 327.5658 L383.5384 327.2652 L383.9104 327.495 L384.0689 327.5936 L384.1818 328.0971 L383.9834 328.4988 L383.5431 329.0846 L381.9294 329.8374 L380.4524 330.3352 L379.2366 330.8542 L377.0587 331.9591 L376.8634 332.0576 L377.0189 332.4536 L377.8343 332.2255 L381.6994 330.9129 L382.9235 330.2945 L384.014 329.7991 L384.4507 329.8773 L384.6553 330.2546 L384.6621 331.9379 L384.288 334.3064 L384.3528 334.8816 L384.6636 336.1086 L385.0967 336.1852 L387.5465 333.8192 L391.1697 330.9504 L397.1894 326.4138 L400.7131 325.0262 L400.5105 324.4893 L400.4567 324.3703 L400.4577 323.8871 L401.2306 323.052 L401.9253 322.37 L402.3289 321.7003 L402.5962 320.9311 L402.6454 320.7902 L402.4977 319.9558 L402.3045 318.864 L401.7041 313.7667 L401.5694 312.4214 L401.3523 311.5537 L400.841 307.8276 L400.9089 304.8608 L401.1897 303.1953 L400.8835 300.9228 L400.6691 300.5773 L400.4152 300.3646 L400.1598 300.5806 L400.1339 301.4883 L400.1893 302.836 L398.3171 304.187 L392.9595 308.2447 L392.0188 309.2103 L391.4826 310.6753 L391.4645 310.7161 L391.0967 311.2644 L390.8397 311.6466 L390.2476 311.9798 L389.7845 311.9456 L389.7705 311.9374 L388.4469 311.6857 L388.2003 311.5366 L387.8211 311.3068 L387.0362 310.6631 L386.8047 310.2508 L386.7135 310.0895 L387.4859 307.9123 L387.7247 307.3428 L388.0335 306.8889 L389.77 306.0122 L390.4574 305.5526 L392.1462 304.2269 L394.2935 302.8898 L396.8127 301.4149 L399.5154 299.2589 L399.5428 299.2369 L400.3489 298.7521 L400.4706 298.185 L400.0184 296.6922 L399.4677 295.6036 L399.4475 295.5914 L398.556 294.6111 L397.6976 293.8704 L396.8905 292.9643 L396.8697 292.9301 L396.4247 292.0859 L395.1581 291.5677 L394.4002 291.2254 L394.3847 291.2328 L393.6786 291.2556 L392.9585 290.7439 L392.8917 290.5915 L390.3445 288.763 L390.3408 288.7695 L390.3403 288.7695 L389.7679 288.5535 L387.2688 290.8653 L384.0606 293.6504 L383.6975 293.7751 L383.3685 293.6243 L383.3576 293.6121 L382.6313 293.1794 L380.8006 290.6933 L380.3908 290.0015 L380.3918 289.3415 L380.8446 288.6635 L383.3623 286.615 L384.733 285.5622 L385.9401 284.5493 L386.2473 284.4133 L387.2906 283.9512 L387.3232 283.9325 L389.369 283.239 L389.0007 282.4071 L388.293 281.0593 L388.2821 281.0226 L387.0839 279.841 L386.7296 279.7832 L385.4443 280.8751 L384.5787 280.673 L383.2768 280.3072 L382.3076 279.2356 L381.6357 277.46 L381.9517 275.8971 L382.3241 274.0579 L382.8054 273.3766 L383.0691 272.9007 L384.0829 271.2196 L384.0767 271.2082 L384.085 271.0729 L384.1347 270.2434 L383.5933 269.6241 L383.3338 269.3275 L383.3297 269.3112 L382.4894 268.7864 L381.7035 268.6242 L380.3437 269.5051 L378.8621 270.7519 L376.7054 272.7166 L374.7814 274.3129 L373.964 274.9192 L373.5019 274.6487 L373.4081 274.5346 L372.8232 273.8248 L371.7234 269.4277 L370.7319 266.7776 L370.4454 265.517 L370.5231 264.905 L370.8169 264.2083 L370.6361 263.791 L370.0087 263.6109 L369.6751 263.408 L369.0306 259.6187 L368.3251 257.9318 L368.3318 256.5082 L368.0733 255.2361 L368.0759 254.6656 L368.495 254.7536 L368.854 254.8286 L369.8554 254.7064 L370.4485 254.6681 L370.5065 254.655 L371.1085 254.5206 L371.4991 253.101 L372.3777 249.5568 L372.9439 248.9627 L373.5703 248.7663 L374.6467 249.2121 L376.0651 250.0213 L378.4243 251.6496 L379.1459 252.2754 L379.9489 252.9152 L379.7438 253.88 L377.8804 255.6818 L375.5942 259.0491 L376.3713 259.7344 L377.3773 259.5959 L378.3492 260.0115 L379.2848 260.5298 L380.5312 260.859 L381.5636 261.8214 L381.7346 262.4171 L381.6211 263.2793 L381.9884 263.3648 L382.2936 262.5475 L382.4588 261.8776 L382.3537 261.2787 L381.6144 260.8867 L380.5597 260.41 L378.6305 259.6725 L377.6685 259.0263 L377.0489 258.4974 L377.5892 257.9636 L378.0213 257.2017 L378.8165 256.4511 L380.0675 255.0454 L380.5058 255.157 L383.7026 257.9766 L383.5322 258.4623 L382.6676 260.031 L382.8313 260.4279 L383.4452 261.0684 L384.3435 261.3398 L385.8463 262.29 L386.0116 262.9126 L389.9321 263.7853 L390.9097 263.8693 L391.3635 264.1879 L391.5152 264.5513 L391.2552 265.385 L391.0221 265.6335 L390.5071 266.0597 L388.1464 265.6441 L387.4616 265.0704 L385.5982 264.3655 L384.889 263.8334 L384.4973 264.1251 L385.4257 264.4951 L386.3229 264.9678 L386.3239 264.9661 L387.6999 266.0027 L390.4289 266.4109 L391.4318 266.4444 L393.6941 266.0874 L394.337 266.0198 L395.7699 265.8601 L396.6345 265.8446 L396.9713 266.402 L396.8785 267.1264 L396.6501 267.6186 L395.8445 268.2991 L393.7718 269.6599 L391.9235 271.0746 L390.3253 272.9692 L389.3079 274.7464 L388.5634 277.0599 L388.7525 277.6042 L388.8566 277.9057 L388.9421 278.151 L390.5185 280.4677 L391.8582 282.0502 L392.6518 283.3189 L394.9322 287.1414 L396.8298 289.0905 L397.3841 289.4067 L397.6706 289.5705 L397.697 289.5705 L398.3089 289.7522 L398.7528 289.7017 L400.4908 288.5495 L400.5354 288.5283 L401.7683 288.2292 L402.5806 288.4704 L402.7169 288.7344 L402.8319 288.9577 L402.8288 288.9813 L402.6879 289.3138 L402.1061 290.0635 L401.9315 290.5475 L401.6658 291.4014 L401.5963 292.3198 L401.586 292.3687 L401.9046 293.1444 L402.4138 293.6537 L403.2194 294.4595 L403.3577 294.5981 L403.8799 294.8221 L404.7362 295.1896 L405.7873 294.2444 L406.7825 292.6734 L403.8255 289.1402 L402.6397 287.2775 L397.8737 275.1816 L397.8012 270.7543 L399.1906 270.5971 L400.1671 271.0534 L401.2767 270.7665 L401.643 269.7186 L399.2538 262.9696 L398.3783 261.0106 L397.7582 259.0075 L397.9928 256.8904 L397.8721 255.6721 L399.0471 254.2353 L397.0832 250.0116 L392.1105 241.0537 L387.5196 236.9333 L381.3046 229.6043 L377.0494 225.6247 L370.5791 220.0942 L368.3846 217.6997 L367.9573 216.6215 L364.1735 216.2792 L363.8119 217.3159 L363.1762 219.4243 L362.4593 220.7486 L362.0604 221.3354 L361.1823 221.3941 L357.1504 220.8285 L355.9946 221.0037 L353.1589 222.2939 L352.1611 222.9548 L350.2972 224.5815 L346.1653 226.3867 L344.4578 226.4837 L343.988 226.6508 L343.7025 228.7681 L343.5181 230.6352 L342.6307 231.8072 L341.3501 233.2619 L337.6378 235.4484 L336.7012 237.1248 L336.7768 237.8689 L336.853 239.1541 L334.6637 240.806 L334.0281 240.8793 L333.2432 239.8451 L332.3341 238.234 L331.1421 237.5543 L328.4363 239.3578 L327.3458 238.0245 L326.1865 236.7434 L325.8839 235.8184 L326.2352 234.6685 L325.9974 233.5039 L325.3928 232.442 L324.8613 231.2016 L324.078 230.3492 L322.5534 229.3158 L320.7196 228.4413 L318.0325 225.8211 L318.3412 225.2702 L319.1463 224.8847 L319.9 224.7331 L321.0936 224.7038 L321.9002 224.5033 L322.3514 224.0624 L322.5855 223.4772 L322.4488 223.2083 L322.7026 222.8815 L323.0896 222.7038 L324.9929 222.9255 L325.3193 222.161 L325.7264 221.91 L327.2816 221.5237 L327.4764 221.4593 L327.7157 220.5482 L327.6919 219.9948 L328.1706 218.1301 L328.1374 216.6378 L327.7763 214.3957 L327.3956 213.0632 L327.5624 211.4747 L327.7245 211.0778 L327.7945 210.8064 L327.7396 210.4429 L326.7983 209.927 L323.4243 209.4616 L320.115 208.7411 L317.7455 208.4754 L317.1834 208.4159 L315.577 208.3491 L314.3197 208.3255 L313.4032 214.033 L311.3839 214.914 L307.3655 214.7812 L306.1921 212.9173 L307.0168 211.9425 L307.051 210.6075 L304.3789 210.35 L302.6746 214.5962 L302.1203 211.5236 L299.644 211.222 L283.3153 213.8138 L279.3886 215.5661 L280.6837 216.9027 L271.8873 220.831 L267.3441 218.9157 L270.1881 217.6036 L264.6036 214.9026 L262.0523 206.305 L265.8407 203.8453 L268.1678 203.0971 L270.3311 202.8868 L270.9398 202.661 L272.6836 201.4564 L277.5464 202.2788 L278.3644 202.1476 L277.7842 201.7351 L276.3715 199.9779 L274.0408 196.7968 L270.9771 193.4144 L269.222 191.3009 L267.6285 189.0236 L264.5182 183.9767 L262.9397 181.6114 L262.4289 181.1354 L260.3883 180.0081 L255.1597 177.4007 L254.4904 176.8358 L253.0435 175.7697 L251.305 174.7859 L250.5233 174.0148 L249.799 172.991 L249.4364 172.5501 L249.066 171.0788 L247.6844 169.6662 L246.2422 168.3881 L245.2558 166.8427 L245.1729 166.2085 L245.4314 165.717 L245.9464 165.5059 L247.5963 165.6624 L250.4611 166.8647 L252.0468 167.9129 L253.8698 169.8521 L258.7555 174.0009 L260.5448 174.975 L264.2016 176.2408 L266.1702 177.7723 L268.189 179.1384 L270.0985 181.4899 L273.1223 185.831 L275.1696 189.0929 L275.6815 189.6374 L276.7326 190.9667 L277.248 191.8283 L279.5155 196.5621 L280.8484 198.5157 L281.769 200.1988 L282.5699 201.3667 L283.1397 201.9259 L283.393 201.8867 L283.5858 201.4483 L283.2247 200.6601 L281.8638 198.6217 L279.9025 195.3102 L277.9987 191.6547 L270.5326 180.37 L267.9253 177.4015 L265.7102 175.9523 L261.8606 173.745 L258.009 171.7056 L256.7481 170.7479 L253.1306 167.2592 L253.4797 166.5191 L254.1231 165.9069 L256.3486 164.4935 L257.0294 164.3044 L258.9238 165.8809 L262.8433 169.7029 L264.2022 170.8669 L269.5701 174.0832 L272.4494 175.9873 L274.5361 177.0779 L276.3135 178.2231 L277.6614 180.1997 L279.1974 183.0182 L281.3784 187.4131 L282.3891 190.0995 L283.8101 192.9718 L284.9368 195.4634 L285.9501 196.8514 L287.3918 199.233 L287.8643 199.2281 L287.009 197.2483 L284.1945 191.5299 L283.5707 190.1419 L278.353 179.3919 L277.8811 178.7195 L276.3984 177.2328 L275.195 176.1552 L272.4919 173.9202 L269.9934 171.3796 L268.2818 169.063 L267.2622 166.7245 L266.7685 165.4513 L267.0576 165.3111 L267.6793 165.854 L268.8345 166.5533 L270.6772 167.2511 L273.6792 168.0556 L276.9579 169.3353 L280.8743 171.7708 L282.4129 173.1972 L284.2178 176.725 L284.9461 177.7308 L285.0083 176.4788 L283.3879 172.9975 L281.5312 171.2785 L277.8852 168.9196 L274.8811 167.7238 L272.6406 166.7897 L271.7019 166.3023 L270.3322 165.3095 L269.3608 164.412 L267.6508 163.0271 L266.2505 161.6838 L264.742 158.3108 L263.4893 156.0399 L261.2664 153.169 L260.3707 152.1338 L260.5381 150.6926 L260.5484 150.5728 L261.0742 150.4285 L262.4786 150.0421 L263.5852 149.9769 L263.8882 149.7144 L264.857 150.8238 L265.3398 151.5689 L267.8326 154.3566 L269.264 156.9643 L271.2377 159.9093 L273.0369 162.1786 L275.5022 164.2107 L278.5561 166.268 L282.1534 168.5585 L286.836 172.127 L288.6377 174.0115 L290.1975 176.0069 L290.6089 176.4682 L291.3559 178.3233 L292.1936 182.2667 L292.5671 183.4942 L292.3635 184.0102 L291.2393 184.9051 L288.7698 186.2255 L287.6897 186.5409 L287.2514 185.1333 L286.4681 181.3416 L286.1506 181.538 L286.7655 186.0959 L287.2737 187.6005 L292.9546 184.2914 L299.7741 179.6161 L301.0505 177.3819 L300.7956 176.4878 L302.6787 174.7639 L304.8177 175.4021 L305.2964 180.6056 L305.1368 182.2341 L306.0947 182.4892 L307.7224 178.563 L307.0842 175.6262 L305.5518 173.0399 L306.8334 172.4555 L306.7138 172.3161 L306.6573 172.2175 L306.5335 172.1066 L305.5482 170.9924 L305.5316 170.1504 L305.314 169.3459 L304.3639 168.3417 L303.2999 167.3171 L301.9804 165.0421 L301.8664 164.7976 L301.1484 163.2562 L300.7356 162.578 L300.5672 161.7067 L300.4957 160.8426 L301.0635 160.6258 L301.0837 160.6274 L301.1028 160.9739 L301.0801 161.2551 L301.1541 161.9406 L301.7649 163.2741 L301.7903 163.2904 L301.7975 163.3059 L302.2493 163.5928 L302.242 163.5594 L302.3078 163.5969 L301.7447 161.2812 L301.8742 160.8214 L302.0446 160.7375 L302.1167 160.2288 L302.0089 159.3192 L300.1294 155.3397 L299.2431 153.5839 L299.4985 153.3671 L301.4587 153.9768 L305.6186 154.5727 L305.9149 155.1269 L306.3693 156.3562 L307.682 158.8986 L308.0514 159.8971 L308.3269 161.2323 L308.0482 164.0085 L308.2062 165.0837 L308.5917 166.9014 L308.8222 167.6741 L310.1448 172.0553 L310.367 172.7718 L310.5421 174.4199 L310.5214 175.019 L310.6126 175.3768 L310.9042 175.5936 L311.2135 175.4347 L311.3192 174.2071 L311.3212 172.4131 L311.2622 171.7773 L310.7457 171.2924 L309.8692 169.1128 L309.1828 166.0895 L309.52 165.7268 L309.348 164.4935 L309.3553 163.9629 L309.3594 163.658 L309.7966 163.3687 L310.3701 163.451 L311.3093 163.5855 L319.3421 165.7341 L320.8045 166.1336 L320.8719 166.1515 L321.6691 166.7343 L321.5966 167.2853 L321.1345 168.0385 L319.9746 170.5865 L317.8522 175.9123 L316.771 178.501 L316.0997 180.1076 L316.0375 180.6749 L316.0504 180.7091 L316.0624 180.7393 L316.2551 181.2715 L316.8705 180.7156 L317.9812 178.8205 L319.9435 173.9047 L321.8033 169.6793 L322.6042 167.6896 L323.2378 166.9413 L327.4044 167.7092 L329.4729 167.9953 L332.6299 168.5381 L333.2987 168.9033 L333.2738 169.6711 L333.1324 170.8856 L333.2277 171.4032 L333.2438 171.4888 L333.5017 172.1564 L335.1615 171.942 L337.2026 171.898 L339.9363 172.3797 L340.7865 172.3316 L341.0771 171.9542 L341.1558 171.6746 L341.3584 171.1261 L341.5086 170.2922 L341.692 169.275 L342.4799 168.8576 L344.0532 168.953 L344.5604 168.9351 L345.4442 169.0084 L346.2311 169.178 L347.4076 169.5774 L347.7173 169.6711 L348.0727 168.7541 L348.382 167.9545 L348.4017 166.9022 L348.4053 166.6927 L348.0976 165.4847 L347.1739 163.1869 L344.836 158.0052 L344.1423 155.6421 L342.7405 152.9497 L342.2131 151.2876 L341.4739 150.1277 L316.7068 136.7338 L294.5672 129.9686 L288.7651 123.8221 L286.4842 122.4061 L284.9373 121.9332 L281.2815 122.1892 L278.3287 122.9816 L276.3218 122.4452 L275.2738 121.5631 L274.1615 118.7123 L273.6756 117.5107 L273.0369 116.7053 L271.6946 115.8493 L269.5727 115.4401 L264.2421 114.8776 L261.4685 115.1841 L261.7239 114.4553 L259.2315 114.0469 L256.3808 112.564 L253.5818 109.2272 L247.9191 102.1078 L243.3173 96.5086 L240.7478 93.1978 L234.1137 85.9884 L234.5608 85.7201 L240.6328 91.9456 L239.7635 88.9413 L238.5363 80.6841 L236.6703 69.3073 L234.4588 55.5022 L233.7428 50.9386 L232.3498 51.2966 L231.9918 50.5937 L224.5776 51.7695 L224.2709 51.476 L233.4745 49.7376 L233.1036 48.1134 L232.3239 46.7208 L230.6625 45.0974 L226.3032 42.9627 L226.2141 43.4862 L223.9259 43.0011 L224.8465 42.0039 L223.9259 41.3899 L222.2516 40.1244 L219.7717 37.4019 L217.5219 32.6465 L216.2946 32.8389 L215.9113 32.6212 L216.5122 31.4577 L215.0803 27.8153 L213.8148 26.933 L213.4827 26.0507 L213.4951 24.6319 L212.5368 22.7018 L209.6222 16.2209 L206.7844 10.2519 L203.7679 4.3203 L201.646 0.0383 L199.3194 0.0 L193.7847 0.5627 L177.4228 3.049 L174.3803 3.4323 L160.6263 7.3693 L90.6797 27.6424 L66.5716 34.9793 L41.4154 42.9627 L38.4626 44.1516 L38.0792 45.2629 L38.4274 47.3755 L38.5776 49.4685 L38.2709 52.575 L37.7088 55.4255 L37.0566 56.218 L37.0188 56.8051 M110.3721 29.5382 L110.5026 29.3605 L111.1807 28.956 L111.7438 28.7538 L112.2883 28.9153 L113.1783 29.7029 L113.228 29.8888 L112.6613 30.268 L112.1671 30.789 L111.8293 30.9277 L111.5553 30.7246 L111.3004 30.2745 L110.7528 29.9696 L110.3995 29.7209 L110.3721 29.5382 M154.2648 379.1585 L154.4367 378.4815 L154.7709 378.0326 L155.0149 377.3263 L155.5925 376.8758 L156.4607 377.9837 L158.1915 379.6896 L160.1834 381.011 L161.9048 382.8171 L163.6237 384.7714 L164.0501 385.6415 L164.0449 386.0911 L163.5248 387.0321 L161.1832 388.0976 L160.0088 388.3664 L159.1913 388.5538 L158.3651 388.2809 L156.1867 387.8638 L157.8988 386.7363 L158.8836 386.3095 L159.9798 385.0109 L159.8404 384.417 L158.7204 383.5038 L156.7161 382.2582 L155.938 381.1601 L154.2648 379.1585 M156.6286 184.6337 L156.8208 184.4853 L158.0112 184.8301 L159.2654 184.8619 L161.5961 185.8033 L162.8083 187.1677 L162.0173 187.7554 L161.5515 188.5827 L161.1345 189.5877 L158.8085 188.7261 L157.3606 187.9983 L157.3658 187.4489 L157.6129 186.7366 L157.6123 186.003 L156.6933 184.9124 L156.6286 184.6337 M161.0003 269.0846 L161.7992 268.5998 L163.1689 268.3243 L165.2281 267.7213 L166.9993 267.7555 L168.1675 267.5624 L169.706 267.6691 L170.4137 267.5616 L171.0063 267.6178 L171.7031 267.7294 L172.173 267.9527 L172.7112 268.4343 L172.8827 268.6503 L172.862 269.1376 L172.3486 269.6004 L172.2445 270.6068 L172.6584 271.1398 L172.965 271.2783 L173.3453 271.3011 L173.7343 271.1618 L173.9322 270.7592 L174.0773 270.2532 L174.3891 269.871 L174.6124 269.391 L174.5881 268.9852 L174.2063 268.7155 L173.8571 268.3854 L174.2964 268.2306 L174.556 267.8598 L174.5363 267.718 L174.4845 267.3399 L174.7575 266.6473 L175.1408 266.3221 L175.807 266.2879 L176.9617 267.0751 L177.5249 267.7677 L178.3346 268.2811 L178.894 268.8043 L179.2499 269.2256 L179.1241 269.4546 L178.8713 269.9142 L177.3094 271.566 L173.5069 276.2711 L170.9752 279.5624 L169.9645 281.0943 L169.4341 281.1897 L168.6498 281.4276 L168.1131 281.7389 L166.9894 282.5505 L166.6392 282.6784 L165.8901 282.8707 L164.7769 282.5847 L164.5173 282.1365 L164.3541 280.7333 L164.1645 277.9163 L164.3189 277.6181 L164.9364 277.3011 L165.37 277.2571 L166.3066 277.09 L167.1096 276.2629 L167.7007 275.7708 L168.8135 274.7041 L169.0771 274.1524 L169.1476 273.8379 L169.7936 272.5911 L169.7708 272.1005 L169.7128 272.0687 L169.6097 272.0133 L169.2512 271.7395 L168.5871 271.6108 L167.0796 271.7004 L165.4897 272.3279 L164.7235 272.7198 L163.8019 273.7164 L162.8295 274.2168 L162.2421 273.4329 L162.1178 272.8567 L161.1931 270.17 L161.0003 269.0846 M168.7725 300.0892 L169.0419 296.5512 L169.519 292.1511 L169.6226 291.6149 L169.5983 291.2091 L170.1334 288.6855 L170.2262 287.2962 L170.2142 285.6575 L170.7416 284.3106 L170.8001 284.1607 L171.5917 282.8471 L172.6661 281.7943 L173.1837 281.0634 L173.7017 280.5321 L174.6958 280.5589 L178.1077 279.4687 L179.7897 279.0123 L180.1534 278.8754 L180.5518 278.939 L180.5974 279.071 L180.6492 279.2217 L180.7269 280.0749 L180.7631 280.6567 L180.8927 281.3632 L180.615 282.4584 L180.6367 283.2847 L181.0336 283.9056 L181.1796 284.6243 L181.4542 286.976 L181.506 288.732 L181.4014 289.4075 L181.261 290.1401 L180.8678 290.422 L180.1778 290.5499 L179.3085 290.6151 L179.0054 291.1505 L178.8236 291.9042 L178.7107 293.2552 L178.5589 294.0562 L178.6563 294.8482 L178.778 295.1644 L179.2442 295.9971 L179.7322 296.3663 L179.9804 296.5545 L180.1353 297.0988 L180.1436 298.7651 L180.1192 299.3836 L180.0462 299.9727 L180.0172 300.9032 L179.9462 300.9529 L179.394 301.3392 L178.4206 301.4826 L177.5477 301.4663 L176.0837 301.6863 L175.276 302.0383 L174.6891 302.6241 L173.7556 303.153 L172.1761 303.5669 L170.5696 303.5897 L169.6542 302.7407 L169.0165 302.5785 L168.7736 301.7564 L168.7725 300.0892 M169.3807 310.9597 L169.7138 309.5818 L169.9133 307.5644 L170.1852 306.3079 L171.111 305.3489 L172.0818 304.8959 L174.2581 304.4477 L178.4066 303.9556 L178.7008 304.5039 L178.6226 305.2422 L178.4801 306.0692 L178.0709 306.6901 L175.7791 307.1708 L174.8082 307.3183 L173.9074 307.6825 L172.6537 308.49 L171.5938 309.2991 L169.6656 311.2049 L169.3807 310.9597 M174.2275 278.4093 L174.2617 278.1437 L174.4327 277.6588 L174.5632 277.2049 L174.8435 276.6834 L175.4496 275.7308 L176.1567 275.0276 L178.0046 273.5339 L178.461 273.2821 L179.841 272.5202 L181.0356 271.698 L182.495 270.5278 L184.4848 269.3878 L185.0116 268.5818 L186.3062 267.8574 L187.8417 266.9977 L189.4688 266.4598 L190.2589 265.8104 L190.8541 265.4233 L191.181 265.1128 L191.6493 264.2971 L192.0694 263.7218 L192.9889 263.1301 L194.1411 262.4676 L195.2621 262.0145 L198.0352 261.5394 L198.8501 261.5036 L200.3213 262.2875 L200.3555 262.3731 L200.5347 262.8188 L200.2105 263.4088 L199.4536 264.5611 L199.049 264.7021 L198.3937 264.9303 L196.8105 264.883 L195.8734 264.9392 L194.2778 265.5203 L190.764 268.0986 L189.8957 268.5957 L187.9831 270.0136 L187.1832 270.5539 L185.6514 271.702 L184.4309 272.5251 L182.3048 274.2942 L181.3382 275.5752 L180.4192 276.3371 L178.8619 277.1308 L175.2393 278.631 L174.5995 278.9105 L174.3819 278.8086 L174.241 278.7426 L174.2275 278.4093 M183.617 292.4037 L183.6486 289.005 L183.931 288.5038 L185.3882 288.0752 L186.7942 287.5977 L187.2682 287.4372 L189.0653 286.606 L190.3024 286.1921 L190.8681 285.8099 L192.6569 285.1662 L193.8634 284.5461 L194.6964 284.2226 L195.0611 283.6106 L195.1067 283.534 L197.7715 282.3036 L199.2075 281.8717 L202.0267 281.4577 L203.9828 281.285 L204.9029 281.364 L205.4841 281.7014 L205.6053 282.5016 L205.552 282.8821 L205.0355 283.5634 L204.5226 283.7377 L203.5679 283.7271 L201.4149 283.3213 L200.1353 283.2602 L199.2122 283.512 L198.9558 283.7744 L198.6796 283.9977 L198.7408 284.5958 L199.3085 284.7775 L200.3871 285.123 L202.1453 285.2982 L202.7209 285.4335 L202.8918 285.5068 L203.5047 285.7684 L203.7487 285.8727 L203.9186 286.1522 L204.0238 286.6166 L204.0238 287.4225 L203.9678 287.9595 L203.8886 288.7247 L204.0776 289.7742 L204.4413 291.7901 L204.4092 294.1149 L203.9885 295.6818 L203.771 296.328 L203.3208 297.6659 L202.9639 299.4545 L203.1851 299.6777 L203.2255 299.7185 L203.6021 299.9124 L203.9367 299.3265 L204.3294 298.7456 L205.149 297.3188 L205.3551 297.2129 L205.5665 297.1436 L206.0472 297.1452 L206.5316 297.3131 L208.0054 298.405 L208.5494 299.2133 L208.7136 299.7405 L208.5354 300.2343 L207.3879 301.8525 L206.9657 302.1287 L206.499 302.2705 L205.2826 301.1306 L204.9184 300.9252 L204.2434 300.6189 L203.5321 300.3182 L203.4151 300.3247 L203.1291 300.3418 L203.0467 300.4062 L202.8312 300.5732 L202.6748 301.0067 L201.9759 301.9666 L200.6985 302.2241 L199.5406 302.3528 L197.9207 302.3113 L197.4607 302.4718 L197.0416 302.5141 L196.3842 302.057 L195.8786 301.4182 L195.2865 300.8185 L194.6544 300.3712 L194.4617 299.7071 L194.7746 299.1481 L197.2576 298.6951 L199.8385 297.7197 L200.1612 297.4386 L200.256 296.7631 L200.2208 295.958 L200.0058 294.6184 L199.7002 293.5225 L199.7318 292.4363 L199.9157 291.4903 L199.9727 288.2928 L199.7582 286.8749 L199.4163 286.6826 L199.0107 286.8106 L194.9891 288.3678 L193.896 289.2013 L193.4179 289.9486 L194.8907 290.1458 L195.819 290.4138 L196.5018 290.7463 L197.4063 290.7642 L197.9145 290.9981 L198.0632 291.6866 L197.2576 293.0759 L196.8882 293.4337 L196.5557 294.0586 L196.1713 294.4522 L195.8392 295.4333 L195.8408 296.1764 L195.9485 296.6441 L196.2231 297.2349 L196.55 297.6268 L196.5505 297.9576 L196.1899 298.343 L194.4457 298.7122 L192.6481 298.7831 L191.9062 298.9965 L189.1518 299.2785 L186.5688 300.3043 L185.584 300.64 L184.8318 300.6889 L184.6966 300.2889 L184.5687 299.0878 L184.5982 297.7645 L184.1066 296.6083 L183.8978 296.0982 L183.7408 294.8197 L183.617 292.4037 M184.0838 334.6779 L185.5509 333.5356 L185.9684 333.0345 L186.057 332.9742 L186.8144 332.4618 L188.167 332.1228 L188.5747 332.2312 L189.4585 332.6003 L189.5927 333.072 L189.6046 333.1128 L189.6481 333.8876 L189.6331 334.4848 L189.4362 334.9891 L189.1321 335.421 L188.4353 335.5049 L187.9971 335.4405 L185.9327 336.4622 L185.3794 336.472 L184.2237 335.3085 L184.0838 334.6779 M186.5906 327.9912 L187.2848 326.4928 L187.4972 325.8288 L187.6759 325.2698 L187.9489 324.1202 L188.2167 322.9925 L188.2535 322.8377 L189.5067 322.7236 L190.2547 322.4393 L191.8176 322.3203 L192.9558 322.6137 L194.3586 322.7033 L195.9941 322.5729 L196.7872 322.2169 L197.0483 320.5083 L197.3213 319.7261 L197.1193 317.9132 L197.0747 317.5115 L195.2119 316.2746 L195.1031 316.2037 L194.8705 314.9123 L195.3181 310.206 L195.6677 309.8605 L195.7874 309.7424 L197.326 309.656 L200.1498 309.7595 L200.7974 309.5501 L201.8076 308.8999 L202.8395 308.8836 L204.1041 309.3276 L203.4933 310.5172 L202.7437 311.8429 L202.6774 311.9603 L202.4613 312.4622 L201.8299 313.9272 L200.9492 315.7727 L200.972 317.6288 L201.2797 318.6864 L201.3009 319.6503 L201.3035 319.7717 L201.174 320.9751 L200.9497 321.8258 L200.3731 323.2402 L200.269 325.1378 L199.1381 325.577 L196.9193 326.5229 L195.5579 326.9148 L190.3469 328.027 L187.7438 328.401 L186.8885 328.4124 L186.5906 327.9912 M188.6167 389.5998 L189.3331 386.5245 L194.8088 385.9771 L195.9459 382.8603 L199.9053 382.8603 L200.8321 394.1072 L201.9272 401.9414 L199.9053 402.11 L198.7263 392.759 L195.904 386.483 L194.8508 386.7779 L197.7995 393.8962 L198.9785 401.8575 L196.7883 402.11 L196.8307 403.3311 L199.105 405.2267 L198.4735 406.9536 L195.4828 405.4377 L192.4921 402.3625 L191.8601 400.8465 L193.3764 398.2772 L194.9772 397.3502 L194.1349 395.5393 L191.2706 392.9276 L189.8807 394.275 L188.9114 394.2334 L188.6167 389.5998 M190.1527 199.6796 L190.9313 195.7152 L191.527 192.9009 L191.7177 192.9449 L192.9838 193.2375 L193.6645 193.5798 L195.0404 194.1145 L196.6878 194.9801 L197.9751 195.4169 L199.2448 196.2279 L200.3369 196.8433 L200.9114 197.4627 L201.4973 198.1555 L202.064 198.4782 L202.695 198.4937 L203.1151 198.5467 L203.902 198.6453 L205.9105 198.647 L209.8999 198.9779 L211.6364 199.5712 L214.8871 200.1189 L217.9342 200.4661 L219.8862 200.8068 L220.3188 201.0994 L220.8446 201.4548 L221.1161 202.8591 L221.1161 204.0303 L221.0404 204.6277 L220.8788 205.1485 L220.7679 205.1314 L216.4495 204.4508 L214.1132 204.2112 L213.4879 204.1468 L211.4437 204.0034 L209.7606 204.3058 L208.109 204.6758 L206.3752 204.4508 L205.1117 204.1917 L204.089 203.789 L202.6877 203.3326 L200.9963 203.0017 L198.0699 202.3203 L194.3576 201.5298 L191.8182 200.9315 L191.0178 200.5321 L190.348 200.2624 L190.1527 199.6796 M192.475 253.5133 L192.4937 252.9608 L192.8651 252.471 L193.307 251.9894 L193.6272 251.9552 L194.2131 252.0204 L194.4488 251.7865 L195.1751 251.2886 L195.4398 250.8477 L196.1785 249.424 L197.4856 248.9725 L198.0057 249.0231 L200.1037 248.9896 L200.7005 248.8853 L201.173 249.1103 L201.4631 250.1094 L201.1958 250.4908 L201.2901 251.1134 L201.6858 251.4833 L202.2495 251.6422 L202.4955 251.6162 L203.1431 251.3269 L203.4534 251.4418 L203.786 251.9788 L203.7736 253.5679 L203.3772 253.7228 L201.0647 254.2248 L199.8665 254.3698 L198.7346 254.4676 L198.0476 254.5719 L196.5044 254.3975 L194.9425 253.854 L193.2853 253.6502 L192.5636 253.8132 L192.475 253.5133 M196.5287 214.791 L196.6872 213.2954 L196.9079 212.2213 L197.886 210.4787 L198.9309 209.5195 L199.8825 209.019 L200.6068 208.8715 L202.2759 208.8503 L203.5088 209.2432 L205.4437 209.8039 L206.5777 209.8895 L209.4601 210.3011 L220.9316 210.7567 L222.7893 210.4739 L223.7068 210.4502 L225.464 210.6458 L226.7606 211.927 L227.6444 212.8341 L228.5018 213.3704 L229.3162 214.152 L229.8684 214.6818 L229.9533 215.3436 L229.4322 217.4569 L228.0998 218.3827 L225.8577 219.3338 L222.6935 220.6134 L219.464 220.9491 L215.7134 221.1203 L211.6949 221.2572 L207.5133 221.0249 L206.0156 221.0217 L204.4916 220.9084 L201.9397 220.8676 L200.8363 220.6639 L200.4928 219.8603 L199.6909 218.7177 L199.0024 217.5946 L198.776 217.3534 L198.5196 217.0795 L198.2087 216.7478 L197.7306 216.5229 L197.4736 216.4984 L197.2804 216.4797 L196.8691 216.2075 L196.8566 216.1553 L196.5287 214.791 M211.3675 300.0053 L211.438 299.5425 L212.1627 299.0096 L214.7918 298.6087 L216.0921 298.2632 L217.5872 297.7914 L218.8864 297.1493 L219.4552 297.0996 L219.9795 297.142 L220.0204 297.2145 L220.1846 297.5054 L219.2812 299.756 L217.5379 302.5573 L216.5179 304.0077 L215.9968 304.3622 L215.4233 304.4502 L215.213 304.4819 L214.6172 303.8928 L214.1577 303.5001 L213.707 302.6201 L212.9123 301.5184 L212.2855 300.8951 L211.5043 300.3345 L211.3675 300.0053 M211.7001 298.2453 L211.7006 297.8468 L211.985 297.4321 L213.7443 296.231 L215.6222 294.5598 L217.3188 292.8453 L219.7925 290.2248 L221.4512 288.3189 L225.234 284.2609 L227.6144 282.2001 L228.8727 281.0332 L229.9492 281.4716 L230.5962 281.9475 L232.5653 282.8487 L234.251 283.9472 L234.5251 284.4092 L234.3697 284.8517 L233.7858 285.3756 L229.8824 288.5095 L229.2094 289.4279 L228.1728 291.7445 L226.93 292.9831 L224.9226 294.1564 L220.2722 295.76 L218.4797 296.4844 L217.4488 296.5928 L215.9351 297.4801 L214.6851 297.9511 L212.4844 298.5011 L211.7825 298.5231 L211.7001 298.2453 M211.869 197.5809 L212.0824 197.0372 L213.5993 196.2206 L213.16 195.465 L213.4221 194.61 L213.3806 193.5048 L213.4729 193.1739 L214.1867 193.623 L214.282 193.874 L213.8847 194.3329 L214.1463 195.1398 L214.6939 195.3452 L215.6305 195.7601 L216.1967 195.8766 L216.5423 196.3225 L216.0071 196.593 L215.9387 197.1913 L216.2755 197.5784 L216.9474 197.8841 L217.5581 198.0569 L218.057 198.3739 L218.2813 198.8287 L218.1658 199.2607 L217.554 199.5916 L216.7122 199.6454 L215.6492 199.4587 L211.969 198.5369 L211.869 197.5809 M211.8996 161.4931 L212.6704 160.4122 L212.9512 160.2517 L213.2864 160.2949 L213.4464 160.4237 L214.0116 161.1687 L215.3171 163.0883 L216.1682 164.7161 L216.2858 164.7087 L216.5583 165.3885 L216.5112 165.3934 L216.4495 165.4603 L217.5162 167.9586 L217.7353 168.3637 L218.8973 171.7928 L219.3454 173.2885 L221.7336 177.5767 L222.0511 178.2728 L223.7254 181.124 L225.5489 185.7528 L226.7171 187.7701 L227.5931 189.5404 L228.7536 192.8617 L229.2778 193.6882 L230.4144 194.1104 L230.878 194.487 L230.9449 195.0102 L230.9604 195.4577 L230.9392 195.8685 L231.0889 195.9614 L231.9463 195.9769 L233.0839 196.1179 L234.4292 196.6159 L235.2783 196.8669 L235.656 196.9183 L238.0524 196.7243 L238.2037 196.3086 L235.0659 196.1872 L234.7095 196.1228 L234.5354 195.8946 L234.567 195.6044 L234.7323 195.2499 L234.9675 194.9939 L235.2317 194.7893 L236.4149 194.253 L238.0001 193.7901 L238.1581 193.8097 L238.2643 193.861 L238.3337 193.9604 L238.341 194.1218 L238.1431 195.7095 L238.5596 195.875 L238.8616 195.2441 L239.5604 192.8153 L239.677 192.561 L239.907 192.3735 L240.0547 192.3295 L240.1935 192.3295 L240.524 192.4208 L241.371 192.821 L242.3454 193.2139 L245.5687 194.0411 L247.0591 194.509 L247.6585 194.747 L248.0232 194.8325 L248.3454 194.866 L249.5576 194.848 L252.0655 195.183 L253.2119 195.4675 L253.6061 195.5131 L254.1205 195.2702 L254.5749 195.1512 L255.0421 195.1594 L255.3918 195.2433 L255.9539 195.5498 L257.2169 195.4936 L258.2649 195.5734 L258.4804 195.6386 L258.6664 195.8359 L259.4755 197.964 L260.6992 199.1637 L260.6878 199.6788 L260.6329 199.8386 L260.4386 199.9755 L260.1428 200.0782 L259.1886 200.101 L258.8674 200.0635 L257.8712 199.3789 L257.3334 198.1074 L257.1283 197.501 L256.9211 197.1799 L256.6926 197.0209 L256.2678 196.9574 L256.0192 196.9737 L254.7256 195.7364 L254.3765 195.6419 L254.1128 195.6533 L254.0817 195.6712 L253.9812 195.6606 L254.0211 195.7055 L253.9413 195.7511 L254.0288 195.9035 L255.1147 196.968 L255.4188 197.3551 L257.9945 200.9152 L260.6173 204.3123 L260.7132 204.4924 L260.7396 204.6684 L260.6111 205.0703 L260.5054 205.2137 L260.2303 205.4615 L258.7912 206.4876 L255.6938 207.7069 L252.7301 209.0248 L251.5873 209.4828 L250.4844 209.9669 L247.7434 211.2881 L246.3416 211.4494 L245.3097 211.4038 L241.4275 209.9139 L234.7717 206.8209 L234.049 206.4444 L233.7252 206.1282 L232.5213 205.644 L230.4419 204.701 L229.1721 204.2218 L228.6836 204.0735 L228.2298 203.776 L227.9501 203.4443 L227.7807 202.9887 L227.7625 202.6317 L227.7973 202.1948 L227.9677 201.4091 L228.3567 197.3641 L228.192 195.5196 L227.9516 193.6939 L227.7289 192.3621 L227.4357 191.0393 L226.3105 189.0758 L224.9107 186.8507 L224.3108 185.9264 L223.3229 182.8218 L222.8391 181.8029 L222.1402 180.6439 L221.3803 179.5085 L219.7018 176.7584 L218.3202 174.1346 L216.3905 169.6401 L213.9966 165.1962 L211.9736 162.1436 L211.9141 161.9218 L211.9037 161.8428 L211.8996 161.4931 M216.4102 164.5702 L216.8961 164.3542 L217.1442 164.2009 L217.295 164.174 L217.4608 164.2262 L217.641 164.3297 L217.6674 164.3607 L217.9026 164.8277 L218.7895 166.2469 L219.0496 166.718 L219.9158 168.605 L220.2002 169.1535 L220.1525 169.3622 L220.0225 169.4967 L219.8194 169.5277 L219.65 169.4527 L218.8776 168.8014 L217.9601 167.9056 L216.9101 165.7064 L216.6733 165.3755 L216.4102 164.5702 M217.9923 159.4569 L218.2907 157.0295 L218.4647 153.2929 L218.5295 152.9848 L218.6984 152.8038 L218.8905 153.3899 L219.9318 155.5288 L220.1976 155.9184 L220.1908 155.9201 L221.7507 158.3655 L222.221 159.1757 L222.3065 159.624 L222.4355 160.2998 L222.4355 161.8632 L222.6225 165.8825 L223.0458 167.9447 L223.6343 169.3451 L224.4927 170.4748 L224.6776 171.4994 L225.0775 172.8239 L225.5422 174.0873 L226.169 175.3271 L226.1675 175.3279 L226.6985 175.5716 L227.0611 175.8471 L227.5838 176.2449 L228.3593 177.2165 L230.0357 179.5998 L231.2101 181.6611 L232.2623 183.6637 L233.0025 184.8929 L233.7319 185.9533 L234.4712 186.8336 L235.4358 187.4424 L235.1576 188.145 L234.2137 187.6217 L233.4802 187.5622 L232.9761 187.3014 L232.6384 187.127 L232.5342 187.0267 L231.1417 185.6876 L230.7351 185.4724 L229.3975 184.0778 L227.8817 182.1216 L226.4581 179.7962 L224.6755 178.1774 L224.1798 177.3933 L223.7513 175.7835 L222.6873 173.0986 L222.3635 171.717 L221.0399 168.7101 L219.2081 165.3494 L218.2497 163.6572 L218.2119 163.4771 L218.0394 162.6587 L217.9923 159.4569 M220.1701 173.6447 L220.2328 173.3986 L220.3395 173.2021 L220.5084 173.0399 L220.7472 172.9103 L221.1186 172.8533 L221.4631 172.9022 L221.6393 173.0261 L221.7864 173.1907 L222.206 174.3408 L222.5049 175.5366 L223.3499 177.558 L223.6218 177.8799 L224.1015 178.5556 L225.4013 179.8092 L226.4648 180.9145 L227.6631 183.1975 L228.1713 183.936 L228.6002 184.6337 L229.4866 186.9623 L229.6591 188.1409 L230.3046 189.7173 L230.8749 191.4248 L231.0454 192.3621 L231.0759 192.7167 L231.2324 192.6849 L231.3065 193.2668 L231.2277 193.2636 L230.461 193.3923 L230.1699 193.3304 L229.5363 193.0541 L229.3664 192.3833 L229.3964 192.2676 L229.526 192.1763 L229.6575 191.9546 L229.7544 191.6025 L229.7301 191.3474 L229.2504 190.212 L229.0406 189.9634 L228.839 189.9316 L228.6997 189.8379 L228.4552 189.5062 L227.8739 188.5591 L227.4066 187.9257 L226.6513 186.7855 L225.9478 185.5066 L225.7883 184.9899 L225.6935 184.9051 L225.5148 184.4112 L225.1936 183.2057 L224.9558 182.4884 L224.5217 181.6375 L221.7372 176.9793 L220.3369 174.4199 L220.1701 173.6447 M223.4333 224.9548 L224.2803 224.2996 L224.4616 223.9597 L225.0288 222.8961 L226.4742 221.9923 L229.2167 220.0738 L230.2196 218.879 L231.2184 216.6802 L231.5386 214.8831 L231.8836 214.7184 L232.4234 215.3533 L232.9481 216.8635 L234.3961 219.0999 L234.6484 219.5449 L234.9032 220.2507 L235.3513 221.0738 L234.6567 222.3998 L234.4401 222.8138 L232.9124 223.716 L231.0039 224.4715 L229.7011 224.9866 L226.1758 225.8863 L225.8504 225.3949 L225.5795 225.4063 L223.4555 225.4927 L223.4333 224.9548 M228.7624 156.8762 L229.1514 155.9193 L229.6223 155.5736 L230.0787 155.66 L230.5734 156.0961 L230.6268 156.1687 L232.67 158.9572 L233.5765 161.3839 L234.969 164.3811 L235.8715 166.1931 L239.7065 172.859 L241.6689 174.5617 L243.0116 175.6311 L244.4306 176.9418 L244.6803 177.1268 L245.0828 177.2882 L245.1289 176.91 L244.8041 176.4755 L241.2607 173.1337 L240.5831 172.2216 L237.8592 167.6554 L236.2709 164.7764 L234.2339 159.3273 L233.9987 158.5546 L234.3868 158.0435 L234.8525 157.9946 L235.4493 158.1266 L236.4998 158.6711 L237.3137 159.4072 L237.3769 159.5458 L239.1626 163.4689 L240.5385 165.2834 L241.4389 166.3854 L242.9049 168.1795 L243.6411 169.0802 L246.4447 171.3894 L248.8443 173.6178 L249.1054 174.4158 L250.4274 175.4819 L252.0774 177.0102 L253.961 177.5392 L255.4618 178.1261 L256.3243 178.1611 L260.3422 180.3855 L261.8808 181.6554 L262.4294 181.9211 L262.9521 182.869 L264.2633 185.4235 L265.0673 186.6559 L265.848 187.5158 L266.9183 189.5225 L267.7881 190.9113 L274.65 198.554 L276.5368 201.2543 L276.7735 201.8525 L274.6661 201.6153 L272.2085 201.0212 L270.4384 199.7359 L269.9535 199.854 L269.1179 199.0692 L269.3717 198.497 L266.3292 194.4348 L264.5254 192.2904 L263.9659 191.737 L263.1941 190.8836 L261.9305 189.7637 L260.7541 188.6365 L258.7679 186.836 L258.2359 186.6428 L256.8304 185.3664 L254.3619 182.7769 L252.3193 181.2943 L251.5619 180.9797 L248.794 179.4922 L246.5877 178.3934 L246.066 177.9248 L245.7966 178.3437 L247.2285 179.4522 L248.2475 180.3725 L248.5381 180.8762 L249.3012 181.2788 L250.5072 181.7255 L251.305 182.7973 L250.8263 183.3964 L249.8037 184.0639 L248.6536 184.0827 L247.8129 183.8031 L246.2546 183.3728 L245.0548 182.918 L243.7975 182.2276 L242.3315 181.8209 L241.1586 181.5918 L240.0319 181.2291 L239.6837 180.6895 L239.2408 180.1043 L238.5782 179.8296 L238.3016 178.9787 L237.1764 178.1448 L235.9419 177.8938 L235.1747 177.8547 L234.5137 177.1733 L233.7967 176.8358 L233.4973 176.3231 L233.4444 175.702 L234.1324 173.9186 L235.1011 171.2777 L235.5353 170.6623 L235.5839 169.5782 L234.896 168.684 L231.7194 162.4443 L229.0509 157.3824 L228.7624 156.8762 M229.0038 177.3257 L229.7109 176.9662 L230.445 176.6402 L230.8998 177.104 L230.7387 177.6998 L230.8791 177.9451 L231.4116 177.9451 L232.1871 177.7976 L232.3757 178.2255 L233.0088 178.9852 L234.4266 181.2633 L234.9348 181.7377 L235.1079 182.6384 L235.1327 183.2399 L234.5354 184.2294 L234.0661 184.8513 L234.049 184.8741 L232.7155 183.2913 L231.4251 181.1786 L230.474 179.4669 L229.0038 177.3257 M230.1497 187.2737 L230.2186 186.9958 L230.3652 186.8425 L230.6351 186.7749 L230.8635 186.8189 L231.1112 187.0487 L231.5676 187.7203 L232.7881 189.749 L232.9917 189.9854 L233.2512 190.1859 L233.8148 190.4997 L235.6047 191.1827 L237.3163 191.8967 L238.2172 192.2496 L238.7176 192.3613 L238.8393 192.7085 L238.7865 192.962 L238.3026 193.1894 L237.4831 193.4494 L235.1384 193.9865 L234.3878 194.0656 L233.0269 193.9898 L232.4177 193.9181 L231.6536 193.3638 L231.4163 193.2701 L231.3567 193.2717 L231.3039 192.6702 L231.1329 191.9041 L231.0951 191.6082 L231.0158 191.3792 L230.6092 189.5518 L230.1497 187.2737 M233.7024 208.323 L233.7117 208.2888 L233.7724 208.0614 L235.3886 208.191 L235.7658 208.5586 L236.1326 208.9816 L236.9894 209.1185 L238.3353 209.6165 L244.257 211.9368 L243.9643 212.2742 L242.1206 212.2473 L239.3532 212.1226 L236.2377 211.8895 L235.0265 210.6344 L234.4831 210.0712 L233.8117 208.8397 L233.7024 208.323 M235.5021 185.2906 L236.103 184.5179 L236.2595 184.4185 L236.9044 184.0102 L237.5116 184.1626 L238.1664 184.465 L239.1445 185.06 L239.8055 185.518 L240.0997 185.994 L240.4282 186.6836 L240.9695 187.083 L241.7968 187.1873 L243.1132 187.2305 L243.5934 187.3234 L244.0135 187.1237 L243.5975 186.9648 L242.548 186.9167 L241.9367 186.6453 L241.4958 185.9305 L241.7202 185.2564 L242.1356 184.8741 L242.9065 184.8383 L243.7877 184.7046 L244.3927 184.7462 L245.4382 185.4023 L246.6773 186.4586 L247.1783 187.1311 L247.8978 188.6153 L248.5386 189.0888 L249.3504 189.617 L250.3052 190.406 L251.1418 190.9529 L251.9075 191.3254 L252.7928 191.9986 L253.1611 192.8691 L253.4051 193.9441 L253.1611 194.0925 L250.8362 194.112 L250.5745 194.2408 L249.138 193.9776 L248.9173 193.7893 L243.8695 192.1331 L242.262 191.7182 L240.5737 191.0637 L239.5465 190.0857 L238.0017 188.1589 L236.8402 186.7105 L235.8932 185.8759 L235.5021 185.2906 M239.1367 215.2026 L240.5908 214.377 L241.3658 213.6369 L242.8661 213.6386 L244.185 213.3786 L246.2624 212.8325 L249.2395 211.9425 L251.1579 211.0427 L253.7294 209.6213 L255.1209 208.9506 L259.0824 207.2399 L261.182 212.5195 L261.5104 212.8847 L261.9678 214.2457 L262.043 215.2792 L261.3488 215.7258 L260.0868 216.0045 L258.0385 216.17 L256.4108 216.6516 L251.4443 218.2099 L243.5178 221.1203 L241.9429 221.6044 L241.5295 220.4821 L241.5 219.9956 L241.4399 219.0176 L241.3606 218.5359 L239.8511 217.0094 L239.4708 216.3036 L239.2159 215.4634 L239.1367 215.2026 M256.2694 159.5409 L256.2932 159.029 L257.2531 158.9173 L261.6394 158.9613 L263.5634 159.2099 L264.1675 159.8637 L264.9388 161.8452 L266.2163 165.6135 L267.9549 169.3108 L269.2479 171.1799 L271.5055 173.6325 L272.6131 174.6726 L272.3789 174.9823 L271.6356 174.4941 L269.8074 172.8745 L265.5185 170.5783 L263.6137 169.3426 L261.9409 167.1907 L260.3168 164.919 L258.1561 162.437 L256.6061 160.4302 L256.2694 159.5409 M263.1391 198.096 L263.2764 197.5858 L263.5997 196.6917 L264.1561 196.2662 L264.8969 196.2157 L265.4543 196.7878 L265.8786 197.783 L266.7328 197.8352 L267.4384 198.0993 L268.491 198.9445 L269.2303 199.3707 L269.7359 199.7831 L270.8849 201.0733 L270.6399 201.5575 L270.012 201.802 L267.5088 202.2119 L266.6857 201.6553 L264.945 200.9348 L264.1535 200.348 L263.3707 199.2835 L263.1391 198.096 M264.0328 149.6036 L264.6073 149.3435 L265.0621 149.1373 L265.9412 148.9368 L267.5508 149.0704 L267.9808 149.6712 L268.9661 151.0488 L270.5347 152.7818 L271.0605 153.3622 L271.6837 153.623 L272.0407 153.9972 L276.3223 158.4845 L276.6114 158.8953 L278.4929 160.8149 L282.7823 164.7511 L285.831 167.2527 L288.3756 169.7119 L292.636 174.6677 L292.9913 174.8649 L293.9502 176.6614 L293.6798 177.1692 L292.8748 177.959 L292.2842 178.2565 L291.547 178.316 L290.6436 176.4006 L291.3155 176.0541 L288.0306 172.5142 L284.8586 169.7477 L282.1969 168.0328 L278.6685 165.6779 L275.5623 163.5602 L273.5409 161.639 L272.2277 160.1522 L270.8108 158.1992 L268.877 154.858 L267.6813 153.0728 L264.8306 150.435 L264.0328 149.6036 M271.8143 153.57 L273.2835 153.2986 L274.5941 152.825 L276.3383 152.4647 L277.506 152.234 L278.3131 152.1476 L278.827 152.5144 L279.2026 152.5536 L280.0822 152.4166 L280.9805 151.4531 L281.0981 150.8646 L282.1922 149.9353 L283.3532 149.2547 L283.5226 149.3337 L284.4514 149.769 L285.4336 151.0358 L286.6935 152.4753 L288.5393 154.8351 L290.9275 158.6728 L293.3115 162.2161 L298.4702 168.3881 L299.5834 169.7314 L302.3814 172.8207 L303.1232 173.5013 L302.9896 174.309 L302.3928 174.1411 L301.006 173.3651 L300.5454 173.3986 L299.7554 173.1068 L298.5256 171.933 L297.7071 171.7839 L297.2061 172.1865 L297.3486 172.5427 L298.2153 173.7303 L299.1105 175.0557 L299.7368 177.7316 L299.6487 178.8662 L298.7991 179.7131 L296.053 181.3302 L293.5576 182.962 L292.9173 181.3693 L293.0519 180.6447 L293.7565 180.7596 L294.331 180.7466 L294.791 180.4621 L295.1676 180.1671 L295.0816 178.9135 L294.4595 176.6581 L294.0533 176.6084 L293.0877 174.8454 L293.2327 174.7027 L292.9312 174.0963 L290.8332 171.4758 L288.904 169.4796 L285.991 166.6104 L283.4133 164.7324 L279.4342 161.1687 L276.96 158.6467 L276.7906 158.7812 L276.4974 158.5032 L272.1888 153.9646 L271.8143 153.57 M312.9924 436.7343 L313.4835 436.2676 L314.2979 435.8399 L315.0719 435.6339 L316.4499 435.6615 L318.4536 436.8972 L319.2722 437.9732 L319.6944 438.901 L320.0119 439.0451 L322.125 438.5059 L325.1017 438.0726 L325.772 437.6922 L326.8951 436.7921 L327.8939 436.5079 L328.6259 436.6113 L328.9041 437.3762 L329.5662 437.5048 L330.781 437.3802 L332.3247 437.3827 L333.423 437.4152 L334.0276 437.5529 L334.3917 438.009 L334.8471 438.725 L336.0422 440.8322 L336.9141 442.9215 L337.4513 443.9364 L338.6982 443.7352 L339.3204 443.938 L340.0643 444.4569 L340.7968 446.5241 L341.2138 448.1124 L340.3363 449.001 L339.265 449.8302 L338.1211 450.2782 L337.2446 450.2929 L336.1748 450.5437 L332.7817 453.0662 L330.8996 454.3002 L329.3667 455.2516 L328.0152 456.1312 L326.7055 457.1444 L322.7477 460.9155 L321.5717 462.0794 L321.3106 461.9817 L320.9454 461.0344 L319.899 457.0679 L318.9525 453.6413 L318.1133 451.1872 L317.6134 449.7439 L313.0323 437.2866 L312.9924 436.7343 M322.0551 462.8801 L322.6902 462.0501 L324.6178 460.3869 L327.3355 458.086 L333.9887 453.3603 L336.5566 451.2637 L337.5559 450.7416 L338.3434 451.1106 L338.0569 451.8176 L338.5122 452.5222 L338.0419 453.4124 L337.6777 453.7969 L333.9871 456.4529 L331.2607 458.3483 L330.0143 459.1457 L329.2502 459.6612 L326.733 462.4582 L325.8036 463.2368 L323.461 465.0515 L322.7974 464.1295 L322.0551 462.8801 M372.7517 224.597 L372.9481 223.8334 L373.3594 223.2882 L373.7588 223.5832 L373.6884 223.8399 L376.2905 225.7217 L379.3692 228.3859 L381.487 230.5741 L381.4828 230.6768 L386.6275 236.3449 L390.6739 241.3667 L391.7566 242.8279 L391.9815 243.6933 L390.6076 244.6802 L388.2521 241.3618 L387.0829 240.0277 L382.1475 235.2365 L381.6983 235.2504 L380.2924 236.3816 L378.53 237.7613 L377.9617 237.7148 L377.9089 237.6505 L377.5991 237.2731 L377.9612 236.6847 L378.8828 235.3963 L380.1017 233.1437 L380.1012 233.0883 L380.1059 232.7827 L379.5241 232.1046 L375.7455 228.7135 L374.9223 228.3052 L372.8833 226.3704 L372.7517 224.597 M378.4062 461.5362 L379.7458 461.0377 L380.9746 460.6973 L383.4089 459.7011 L386.7757 463.508 L387.4512 465.0995 L389.368 468.7899 L389.4312 468.9121 L388.9369 468.9145 L388.5614 468.9935 L387.92 469.1279 L387.961 469.6166 L388.0459 470.7096 L388.0609 471.0085 L388.5453 471.6984 L389.1695 472.5878 L389.9166 474.1344 L390.604 474.2484 L391.8053 474.448 L393.245 474.4871 L394.0733 474.4667 L394.998 474.3779 L395.8005 474.4586 L396.3921 474.9855 L395.9704 475.923 L396.0165 476.9109 L396.2968 476.9655 L397.192 476.9777 L398.4902 477.0624 L399.29 477.3703 L399.6884 478.0063 L399.6729 478.5862 L399.2315 478.8713 L398.2415 479.1368 L395.9699 479.3494 L393.4517 479.6784 L392.6767 479.8706 L390.9599 479.7753 L389.5358 479.6344 L388.3982 479.6572 L387.8822 479.4943 L387.5615 478.8395 L386.6938 476.2007 L386.9839 475.1574 L386.7736 474.9375 L385.9851 474.413 L382.9639 467.0209 L382.3179 465.8236 L383.2074 465.5996 L384.201 465.4489 L386.4871 465.2127 L387.1114 465.0588 L387.1129 464.6589 L386.4597 463.6098 L381.733 463.9047 L381.1 463.9193 L380.6213 463.9772 L379.4723 462.582 L378.4062 461.5362 M380.2696 312.3343 L380.4701 311.8519 L380.6426 311.3296 L380.9389 310.6989 L381.1653 310.3103 L381.5481 309.7701 L381.6429 309.6364 L382.1024 309.4539 L382.9468 309.1199 L383.3654 308.7353 L383.8373 309.053 L384.631 310.4871 L385.5453 311.2595 L385.8546 311.6938 L386.068 311.9203 L386.4529 312.3294 L385.9971 312.6357 L384.6538 312.9877 L384.4315 313.07 L384.1497 313.1751 L383.6363 313.629 L382.9763 314.2132 L382.0527 315.5829 L382.0615 316.8629 L382.8375 318.138 L382.4837 318.4363 L381.7273 317.2915 L381.1653 315.3653 L380.8793 314.4641 L380.6141 313.2973 L380.2696 312.3343 M382.7173 389.8377 L382.7484 389.5355 L382.9556 389.4198 L383.3151 389.3742 L388.5365 390.2572 L390.2056 390.3525 L392.3871 390.7981 L396.5397 391.0678 L398.9129 391.027 L400.1764 390.882 L403.3877 390.2784 L406.2447 389.6707 L406.6276 390.5619 L403.8125 391.036 L398.988 391.6201 L397.1199 391.5769 L395.3265 392.2759 L393.589 392.8983 L391.8774 393.1581 L389.5078 393.8066 L387.315 394.1666 L384.9874 394.4925 L384.2041 394.0998 L384.1233 393.075 L383.4576 391.0653 L383.3545 390.8943 L382.7173 389.8377 M384.5408 323.7918 L384.7651 323.3209 L385.0257 322.9925 L385.5692 322.7245 L387.4139 322.4922 L389.9741 322.4083 L390.274 322.4197 L392.1053 322.4906 L394.9157 322.0669 L395.742 322.058 L396.6703 321.794 L397.2158 322.388 L397.322 323.3901 L397.9716 324.1365 L398.3047 325.1916 L397.9271 325.6707 L393.0165 328.621 L389.5658 331.0514 L386.3141 333.7426 L385.6324 333.9414 L385.5163 333.6619 L385.479 332.9245 L385.9566 331.9224 L385.9825 331.361 L385.3904 328.6633 L385.1604 327.1373 L384.918 326.0219 L384.5408 323.7918 M390.3647 247.2326 L390.5149 245.9247 L390.6584 245.5237 L390.6967 245.4153 L392.342 244.0063 L392.5446 244.0788 L392.9487 244.9622 L393.9091 246.6915 L394.409 247.4926 L394.9115 248.2212 L395.0851 248.5683 L397.2448 253.7016 L397.208 255.1285 L397.2686 255.7707 L396.7345 256.3338 L396.475 256.5489 L395.974 256.7046 L395.3638 256.5709 L394.8561 256.1814 L394.7043 256.0648 L394.0013 254.9802 L393.5455 253.7635 L390.5418 248.4542 L390.4092 247.5382 L390.3647 247.2326 M392.2648 311.1805 L392.4886 310.3201 L392.9564 309.7415 L398.3959 305.6675 L400.0635 304.3491 L400.2489 304.5748 L400.366 306.6885 L400.581 309.4474 L400.9327 311.7794 L400.9659 312.3326 L400.5629 313.1442 L396.95 315.3001 L394.8012 316.6176 L394.4386 316.9884 L394.2769 317.1538 L393.8449 316.9656 L393.6485 316.3357 L393.3558 315.5714 L392.6555 313.233 L392.3431 311.5903 L392.2648 311.1805" stroke-dasharray="" fill="none" fill-opacity="1.0" stroke="#ff0000" stroke-opacity="1.0" stroke-width="1.0px" stroke-linecap="butt" stroke-linejoin="miter" stroke-dashoffset="0.0px"/>
</g>
</svg>