<?xml version="1.0" standalone="no"?>
<!DOCTYPE svg PUBLIC "-//W3C//DTD SVG 1.1//EN" "http://www.w3.org/Graphics/SVG/1.1/DTD/svg11.dtd">
<svg width="512px" height="512px" version="1.1" xmlns="http://www.w3.org/2000/svg" xmlns:inkscape="http://www.inkscape.org/namespaces/inkscape">
<g id="layer" inkscape:groupmode="layer" inkscape:label="layer">
<path d="M0.0 195.8641 L1.1684 196.3441 L0.6149 197.5919 L0.5534 198.8398 L0.9839 200.0876 L1.7833 201.0475 L2.9517 201.7194 L2.3368 203.0632 L26.1965 213.5258 L169.4778 276.5895 L170.3387 276.9735 L170.9536 275.6296 L172.245 276.3975 L173.2904 273.8059 L192.2306 282.5407 L191.2467 284.7484 L192.4766 285.2284 L191.9846 286.4762 L201.5162 290.7956 L202.1312 289.4518 L203.2995 290.0277 L204.3449 287.82 L223.5926 296.2669 L222.5472 298.4746 L223.8386 299.1465 L223.3466 300.2984 L233.0627 304.7138 L233.5546 303.37 L234.846 303.9459 L235.8299 301.7382 L254.5241 309.9931 L253.6017 312.2008 L254.8316 312.7767 L254.2167 314.0245 L264.1172 318.344 L264.6707 317.0961 L265.962 317.6721 L266.8845 315.4644 L285.7632 323.7193 L284.7792 325.927 L286.0091 326.5029 L285.5172 327.7507 L295.4177 332.1661 L295.9097 330.9183 L297.2011 331.3982 L298.185 329.1905 L316.2642 337.2534 L315.2803 339.4612 L316.5717 339.9411 L315.9568 341.2849 L325.9188 345.7003 L326.4723 344.3565 L327.7636 344.9324 L328.686 342.7247 L347.8722 351.1716 L346.8268 353.3793 L348.1182 353.8592 L347.5647 355.203 L356.7889 359.5225 L357.3423 358.1786 L358.6337 358.7546 L359.5561 356.5469 L378.6193 364.8977 L377.6969 367.1054 L378.8652 367.6814 L378.3118 368.9292 L388.3968 373.2486 L388.9503 372.0008 L390.2417 372.5767 L391.1641 370.369 L409.6123 378.4319 L408.6284 380.6396 L409.9198 381.2155 L409.3663 382.3674 L419.2054 386.6868 L419.7588 385.439 L420.9887 386.0149 L421.9726 383.8072 L440.7283 391.8701 L439.6829 394.0778 L440.9743 394.6537 L440.4209 395.9016 L450.2599 400.221 L450.8134 398.9731 L452.1047 399.5491 L453.0271 397.3414 L471.2294 405.1163 L472.2748 405.5963 L512.0 316.6162 L510.8931 316.1363 L492.5064 307.9774 L493.4288 305.7696 L492.2604 305.2897 L492.6908 304.2339 L483.1593 300.1064 L482.7288 301.0663 L481.4989 300.6823 L480.5765 302.89 L461.1444 294.3472 L462.1898 292.0435 L460.9599 291.6595 L461.3903 290.5077 L451.7358 286.3802 L451.2438 287.3401 L450.1369 286.8602 L449.153 289.0679 L429.9054 280.717 L430.8893 278.4133 L429.7209 277.9333 L430.0898 276.9735 L420.5583 272.75 L420.1278 273.7099 L418.8979 273.23 L417.9755 275.4377 L398.6049 266.9908 L399.5888 264.6871 L398.4819 264.2072 L398.8508 263.2473 L389.5037 259.1198 L389.1348 260.0797 L387.9049 259.5998 L386.921 261.9035 L367.1199 253.1686 L368.1038 250.9609 L366.9354 250.385 L367.3043 249.4251 L358.0802 245.2977 L357.5883 246.3535 L356.3584 245.7776 L355.436 247.9853 L336.5573 239.8264 L337.6027 237.6187 L336.4343 237.0427 L336.8033 236.0829 L327.1487 231.7634 L326.7182 232.9153 L325.4883 232.3394 L324.5659 234.5471 L306.2407 226.5801 L307.2861 224.3724 L306.0562 223.7965 L306.4867 222.7406 L296.8936 218.6132 L296.4631 219.573 L295.2332 218.9971 L294.3108 221.2048 L274.8787 212.6619 L275.8011 210.4542 L274.6942 209.9743 L275.1247 208.9184 L265.8391 204.791 L265.3471 205.7508 L264.1787 205.2709 L263.1948 207.4786 L243.7627 198.8398 L244.6851 196.632 L243.5167 196.1521 L244.0086 195.0962 L234.5386 190.8728 L234.1696 191.9287 L232.9397 191.3527 L232.0173 193.5604 L212.7696 185.1135 L213.692 182.9058 L212.5852 182.3299 L213.0156 181.37 L203.73 177.2426 L203.361 178.2984 L202.1312 177.7225 L201.2087 179.9302 L182.3915 171.6753 L183.4369 169.4676 L182.2071 168.8917 L182.6375 167.8358 L173.2904 163.7083 L172.7985 164.7642 L171.5686 164.1883 L170.6462 166.396 L152.0135 158.1411 L152.9359 155.9333 L151.7675 155.4534 L152.2594 154.3016 L142.7893 150.1741 L142.4204 151.23 L141.1905 150.654 L140.2066 152.8617 L121.5739 144.7028 L122.4963 142.4951 L121.3279 141.9192 L121.8198 140.8633 L112.2268 136.6398 L111.7963 137.5997 L110.5664 137.1198 L109.644 139.3275 L91.1958 131.1686 L92.1182 128.9608 L91.0728 128.4809 L91.4417 127.425 L82.0946 123.2016 L81.6027 124.2574 L80.4343 123.7775 L79.4504 125.9852 L60.6332 117.6343 L61.6171 115.4266 L60.3872 114.8507 L60.8792 113.7948 L44.0298 106.4037 L43.4763 107.5556 L41.8775 107.4596 L40.3401 107.7476 L38.9258 108.5155 L37.8189 109.5713 L36.6505 108.9954 L32.0999 119.938 L33.1453 120.4179 L27.3649 134.3361 L26.135 133.8562 L21.5844 144.6068 L22.8758 145.0868 L16.173 161.0207 L14.8816 160.5407 L10.577 170.8114 L11.6839 171.2913 L5.8419 185.3055 L4.6736 184.8256 L0.0 195.8641" stroke-dasharray="" fill="none" fill-opacity="1.0" stroke="#ff0000" stroke-opacity="1.0" stroke-width="1.0px" stroke-linecap="butt" stroke-linejoin="miter" stroke-dashoffset="0.0px"/>
</g>
</svg>