<?xml version="1.0" standalone="no"?>
<!DOCTYPE svg PUBLIC "-//W3C//DTD SVG 1.1//EN" "http://www.w3.org/Graphics/SVG/1.1/DTD/svg11.dtd">
<svg width="512px" height="512px" version="1.1" xmlns="http://www.w3.org/2000/svg" xmlns:inkscape="http://www.inkscape.org/namespaces/inkscape">
<g id="layer" inkscape:groupmode="layer" inkscape:label="layer">
<path d="M43.7685 406.8469 L59.6945 417.291 L60.5408 415.8668 L64.003 418.2405 L64.9262 416.8163 L93.7777 434.0253 L92.9314 435.3308 L93.6238 435.8056 L92.7006 437.1111 L96.2397 439.2474 L95.3165 440.6716 L105.7799 447.5552 L106.6262 446.131 L142.556 469.7489 L141.7096 471.1731 L152.1731 478.0567 L153.0964 476.6325 L186.2563 494.5536 L185.3331 495.9778 L186.1794 496.5712 L185.3331 497.7581 L188.7953 500.1317 L187.949 501.4372 L203.875 512.0 L214.5693 495.3844 L213.2613 494.5536 L215.3386 491.2305 L214.1076 490.281 L214.5693 489.6876 L213.1844 488.7382 L255.1922 424.1746 L256.577 425.1241 L256.9617 424.412 L258.3466 425.3615 L263.8861 416.6976 L262.5012 415.7481 L279.3505 387.0268 L280.7353 387.8576 L281.12 387.2642 L282.428 388.2137 L288.0444 379.6685 L286.6595 378.719 L287.1211 378.1256 L285.7363 377.1761 L303.5857 349.879 L304.8167 350.7098 L305.2014 350.2351 L306.5863 351.0659 L308.8175 347.624 L310.2023 348.4548 L345.8243 290.6561 L344.4394 289.7066 L378.061 235.231 L379.369 236.1804 L379.8306 235.3497 L381.2155 236.2991 L402.2193 198.0831 L403.6042 199.0325 L404.0658 198.3204 L405.2968 199.1512 L410.9133 190.7247 L409.5284 189.7752 L409.99 189.1818 L408.6051 188.2323 L426.3007 161.0538 L427.6086 162.0033 L428.0703 161.1725 L429.4551 162.122 L450.7668 123.5498 L451.9978 124.4993 L452.3825 123.9058 L453.7673 124.8553 L456.0754 121.1761 L457.4603 122.1256 L468.2315 105.5099 L451.8439 94.947 L450.9976 96.2525 L447.4585 93.9976 L445.6889 96.7273 L417.1452 77.9753 L418.9147 75.2455 L415.1448 72.8719 L416.0681 71.5663 L405.2968 64.564 L404.4505 65.8695 L401.0653 63.6145 L400.219 65.0387 L399.5265 64.6827 L398.7572 65.9882 L370.752 47.8296 L371.5214 46.4054 L370.8289 45.9306 L371.6752 44.5064 L368.1361 42.2514 L368.9824 40.8272 L358.519 34.0623 L357.5957 35.3678 L354.2105 33.1128 L352.4409 35.8425 L323.5894 17.0905 L325.359 14.3607 L321.9737 12.1058 L322.897 10.6815 L306.4324 0.0 L296.1228 15.9036 L297.5077 16.8531 L279.1966 51.034 L277.8887 50.2033 L277.3501 50.9154 L275.9652 50.0846 L271.4259 57.0869 L272.8108 58.0364 L255.5768 87.7073 L254.192 86.7579 L253.8073 87.47 L252.4224 86.5205 L231.5724 124.974 L230.1875 124.0245 L229.7259 124.7366 L228.341 123.9058 L207.4141 162.2406 L206.0292 161.2912 L205.5676 162.0033 L204.3366 161.0538 L202.0285 164.6143 L200.6436 163.7835 L194.6425 173.1595 L195.9504 173.9903 L193.6423 177.5508 L195.0272 178.3816 L194.6425 178.975 L195.9504 179.9245 L191.1034 187.4015 L189.8724 186.4521 L189.4108 187.2829 L188.0259 186.3334 L182.5633 194.8786 L185.1792 196.5402 L173.2539 215.1735 L170.4842 213.5119 L165.0216 221.9384 L166.2526 222.7692 L165.9449 223.4813 L167.2528 224.3121 L162.175 232.1452 L160.944 231.3144 L160.4823 232.0265 L159.0975 231.0771 L156.9432 234.5189 L155.5584 233.6881 L149.5572 242.9454 L150.9421 243.7762 L148.634 247.3367 L149.9419 248.1675 L149.4034 248.9982 L150.7882 249.9477 L133.0927 277.4822 L131.7078 276.6515 L131.2462 277.2449 L130.0152 276.4141 L124.5526 284.7219 L125.8606 285.6714 L109.0882 314.6301 L107.7034 313.7993 L107.2417 314.5114 L105.8569 313.6806 L100.3943 321.9885 L101.7792 322.9379 L101.3945 323.5314 L102.7794 324.4808 L60.8485 389.2818 L59.5406 388.451 L59.2329 388.9258 L57.848 388.095 L55.4629 391.7742 L54.0781 390.9434 L43.7685 406.8469" stroke-dasharray="" fill="none" fill-opacity="1.0" stroke="#ff0000" stroke-opacity="1.0" stroke-width="1.0px" stroke-linecap="butt" stroke-linejoin="miter" stroke-dashoffset="0.0px"/>
</g>
</svg>