<?xml version="1.0" standalone="no"?>
<!DOCTYPE svg PUBLIC "-//W3C//DTD SVG 1.1//EN" "http://www.w3.org/Graphics/SVG/1.1/DTD/svg11.dtd">
<svg width="512px" height="512px" version="1.1" xmlns="http://www.w3.org/2000/svg" xmlns:inkscape="http://www.inkscape.org/namespaces/inkscape">
<g id="layer" inkscape:groupmode="layer" inkscape:label="layer">
<path d="M0.0 242.499 L56.614 308.8135 L54.0219 311.0178 L58.8526 317.1717 L52.0189 322.7744 L53.6095 324.7032 L52.0778 347.9408 L50.1337 349.5941 L74.7587 379.3529 L76.7617 377.6996 L99.7372 379.4447 L101.3867 381.4654 L107.7492 376.23 L113.5814 383.3023 L110.8126 385.7822 L108.4561 388.6295 L106.6298 391.8442 L105.3927 395.3344 L104.6858 399.0084 L104.6269 402.6823 L105.1571 406.3562 L106.2175 409.8464 L107.9259 413.153 L110.1056 416.1839 L112.7566 418.7557 L115.7611 420.8682 L119.0602 422.4296 L112.2264 428.1242 L114.5829 430.9715 L102.3882 441.1666 L99.9728 438.2275 L94.7297 442.5443 L98.9124 447.596 L97.4986 463.9449 L92.4322 468.078 L96.556 473.0378 L91.5485 477.171 L95.908 482.59 L100.9154 478.5487 L111.0482 490.8563 L106.0407 494.9895 L110.4591 500.5003 L115.4666 496.459 L119.5315 501.5107 L124.7157 497.2857 L140.7396 499.49 L144.8045 504.358 L150.0476 500.0411 L146.0417 495.0813 L158.1185 485.0699 L162.1834 489.9378 L167.4854 485.5291 L163.4795 480.6612 L165.0701 463.6693 L170.2543 459.628 L166.1894 454.3927 L171.3736 450.3514 L166.9552 444.8405 L161.8889 448.79 L151.8739 436.0231 L156.9992 431.9818 L152.6397 426.4709 L147.5734 430.5122 L139.6203 423.0725 L161.8299 404.1519 L165.1879 408.1013 L169.4884 404.4274 L170.7845 405.9888 L213.083 369.8007 L211.8458 368.2392 L216.1464 364.6572 L212.7884 360.7077 L252.9661 326.4483 L255.8527 328.8364 L259.0929 330.857 L262.6275 332.4185 L266.2801 333.4288 L270.0504 333.888 L277.65 333.0614 L281.2436 331.8674 L284.6605 330.2141 L287.0169 332.9696 L318.3578 306.058 L316.0603 303.3026 L318.4168 300.639 L320.3019 297.6998 L321.7158 294.4851 L322.5406 291.0868 L322.8351 287.5965 L322.5995 284.1063 L321.7747 280.7079 L320.4197 277.4932 L318.5346 274.5541 L316.237 271.8905 L357.1216 237.8147 L360.5974 242.2234 L364.9569 238.5495 L366.1351 240.0191 L407.5499 202.5449 L406.3127 200.9835 L410.4365 197.5851 L408.3157 195.1052 L430.7021 176.3681 L437.7126 184.5426 L432.8818 188.4921 L437.2413 193.8193 L442.1309 189.8698 L452.1459 201.8101 L447.3152 205.8515 L451.6746 211.0868 L456.5054 207.0455 L460.6292 211.9135 L465.4599 207.8721 L481.7195 209.0662 L486.02 214.026 L490.9097 209.801 L488.3176 206.77 L500.3355 196.5748 L502.8687 199.5139 L508.2886 194.8297 L504.0469 189.8698 L506.1678 174.2556 L511.1752 170.1224 L507.0514 165.1626 L512.0 161.1212 L507.1103 155.1511 L502.1618 159.1924 L492.5592 147.5277 L497.4489 143.4863 L493.325 138.4346 L488.3765 142.476 L484.3116 137.5162 L479.3041 141.6493 L462.9267 140.3635 L458.9207 135.3118 L453.5598 139.5368 L455.9751 142.5678 L443.6626 152.4875 L441.2473 149.5483 L435.9452 153.8652 L438.125 156.6207 L436.4754 157.9065 L434.2957 155.1511 L433.0586 151.8445 L431.3501 148.7217 L429.1704 145.8744 L426.5783 143.4863 L423.6327 141.5575 L420.3926 140.0879 L416.9757 139.1694 L413.4999 138.7102 L409.9653 138.8939 L406.4895 139.6287 L382.159 157.7228 L339.9784 107.2061 L351.7607 97.2865 L276.8841 7.642 L256.5007 24.9096 L255.4403 23.6237 L215.027 57.8833 L216.0285 59.1692 L195.5862 76.5286 L230.4029 117.7687 L217.7959 128.4231 L249.7848 166.2648 L237.708 176.5518 L233.3485 171.4083 L168.2513 226.6092 L172.6107 231.8446 L160.5928 242.0397 L128.486 204.0145 L115.9379 214.6689 L81.239 173.5208 L61.0912 190.6965 L59.9719 189.4106 L19.3819 223.7619 L20.5012 225.0478 L0.0 242.499" stroke-dasharray="" fill="none" fill-opacity="1.0" stroke="#ff0000" stroke-opacity="1.0" stroke-width="1.0px" stroke-linecap="butt" stroke-linejoin="miter" stroke-dashoffset="0.0px"/>
</g>
</svg>