<?xml version="1.0" standalone="no"?>
<!DOCTYPE svg PUBLIC "-//W3C//DTD SVG 1.1//EN" "http://www.w3.org/Graphics/SVG/1.1/DTD/svg11.dtd">
<svg width="512px" height="512px" version="1.1" xmlns="http://www.w3.org/2000/svg" xmlns:inkscape="http://www.inkscape.org/namespaces/inkscape">
<g id="layer" inkscape:groupmode="layer" inkscape:label="layer">
<path d="M91.7786 415.1721 L93.7886 414.9203 L96.8545 413.6139 L98.9779 416.5619 L98.2115 417.2828 L98.2616 420.449 L98.3624 423.6657 L99.8824 426.5123 L97.96 428.3898 L97.2063 428.1381 L95.548 429.5956 L95.3466 432.8123 L97.1561 432.8622 L96.6535 436.0788 L96.0001 442.4114 L94.2912 446.4316 L95.8118 447.9724 L100.3223 449.9497 L107.6598 450.4025 L106.2025 453.5184 L103.2874 453.5683 L103.0865 455.1262 L113.0373 456.6842 L112.4467 458.1245 L113.2383 460.4539 L117.3596 461.358 L120.0357 462.6471 L123.051 460.486 L123.6918 457.4885 L127.8131 458.2927 L127.8131 459.7501 L126.0162 461.5918 L115.4999 474.6767 L111.1777 480.506 L98.5132 475.2792 L97.759 475.933 L110.5748 481.7123 L104.6571 490.2386 L106.5543 490.2564 L109.1676 487.4923 L110.3233 487.6427 L111.8813 486.3865 L113.7409 483.5717 L115.1982 483.1197 L117.4097 483.8234 L119.5705 484.8287 L121.7319 486.7886 L124.408 488.6808 L126.2171 488.6808 L128.2777 487.7254 L130.5393 486.7209 L133.3536 484.4587 L134.899 483.0192 L136.4069 482.9187 L137.4623 484.0245 L138.3167 487.4923 L139.6737 487.6934 L138.7186 481.4107 L140.0382 479.433 L140.679 478.8476 L141.4828 480.6065 L141.4828 481.964 L141.6336 483.5717 L142.5508 484.0573 L143.7444 483.5218 L143.5434 482.3661 L145.0513 482.0645 L147.0112 482.9686 L149.3857 485.1125 L151.4838 488.3963 L153.0924 492.92 L155.153 496.5888 L154.047 496.9403 L154.4494 499.4027 L155.354 500.9106 L157.1256 500.9933 L158.2311 501.5964 L159.8392 501.0938 L161.5981 500.6917 L162.4399 500.8101 L165.2547 500.8101 L168.5838 500.3402 L171.1344 498.297 L172.1022 497.1741 L174.0996 496.1361 L176.7636 494.4271 L178.1707 493.7741 L179.1254 494.9298 L178.6734 496.2366 L179.0753 500.4586 L178.7736 503.5741 L177.3791 506.6724 L176.2104 509.5547 L175.9593 511.3641 L176.7758 512.0 L177.5674 511.6656 L179.628 511.163 L183.4603 511.4468 L186.513 511.5152 L194.6047 505.233 L197.5197 503.1221 L198.5372 501.0938 L198.6753 499.8554 L199.6305 499.1518 L200.7861 499.1518 L201.8541 498.2292 L203.1104 496.9731 L203.0603 495.7169 L203.1962 495.0809 L204.3167 494.8121 L206.7642 494.7793 L206.5782 492.8523 L209.8451 492.8523 L212.6945 492.7688 L216.3633 491.3116 L218.7757 489.2512 L219.4292 488.3963 L218.7757 487.3918 L219.4793 486.1348 L221.1881 484.8287 L223.4497 483.6224 L225.7769 483.5546 L228.6413 481.9462 L229.8475 480.7398 L237.3494 471.3136 L237.8736 470.7061 L241.5677 458.6193 L244.0054 450.9194 L245.2238 445.6558 L245.0181 445.1666 L246.3274 442.5419 L259.635 427.736 L264.6608 421.0016 L266.2689 418.2876 L281.1889 392.5062 L286.6096 382.9128 L290.0048 376.9907 L294.4741 368.6628 L295.9618 364.5284 L300.9492 348.0338 L301.9994 343.8557 L302.5901 339.8743 L306.5493 330.5113 L310.0494 321.564 L311.1216 318.4797 L309.3496 315.0673 L309.7435 312.2234 L311.5769 311.4673 L312.9087 309.8088 L315.7839 305.7757 L315.6635 303.9275 L315.471 302.5886 L314.0292 299.1347 L313.0947 296.9497 L315.2354 296.1608 L317.0595 295.4888 L318.2694 294.3746 L321.8379 292.7396 L324.158 291.3307 L327.2071 290.2593 L328.5388 286.1125 L328.2873 284.2029 L321.9803 283.65 L315.9746 283.5245 L311.4149 282.6263 L308.8881 283.3989 L304.1139 285.208 L295.3828 290.3656 L286.7248 295.3604 L284.5387 296.7928 L285.0211 298.7837 L282.9109 299.7874 L282.7544 298.7523 L283.2317 298.049 L282.5033 297.1195 L280.1551 298.9849 L278.9737 300.2667 L277.2649 299.94 L277.6785 305.8891 L276.9749 306.7437 L274.7386 304.7079 L274.2107 302.6478 L272.4265 300.4615 L270.793 300.2353 L269.4866 298.9285 L268.8331 297.5718 L270.3157 293.6263 L272.9544 288.9274 L275.8694 285.8864 L280.4675 284.0524 L282.9807 282.7961 L281.9501 280.4342 L280.2553 280.0632 L278.7592 281.4892 L276.8128 282.3496 L273.8842 284.3541 L272.1 286.0876 L270.0281 287.7026 L268.6322 289.2035 L268.0541 290.7615 L267.024 290.0581 L265.8314 289.185 L264.8126 289.2791 L263.6204 289.5117 L262.6653 289.9889 L262.5398 290.718 L262.752 292.0434 L262.9168 292.7531 L261.0825 292.7531 L258.7815 293.2746 L257.2741 293.0734 L255.3896 292.6212 L253.1028 292.7467 L252.6503 293.4001 L253.4545 294.8825 L253.3037 296.0887 L257.2488 301.0143 L257.3495 301.7683 L255.2889 304.6829 L253.8818 305.2357 L252.8264 304.633 L251.6338 304.2114 L249.3473 305.066 L242.9758 307.8993 L237.1349 310.5692 L234.6471 313.2584 L234.1056 313.2263 L233.6783 314.2063 L233.6535 314.839 L233.7168 315.6872 L227.0444 318.5289 L226.3409 316.2171 L225.9389 313.4781 L225.1093 312.3218 L224.2048 312.3218 L223.9926 313.0822 L223.2637 314.3383 L221.3652 316.1665 L219.4694 317.3035 L218.8272 318.1266 L218.4141 315.9718 L217.9227 316.1665 L217.8974 317.75 L218.3752 319.8606 L217.7208 322.0704 L216.1122 324.5405 L214.2001 326.2246 L212.6421 328.6312 L211.1731 330.6825 L210.2334 332.3245 L209.9069 333.5556 L209.4291 333.7317 L208.6 333.0028 L208.0725 332.7767 L207.2064 334.1904 L205.2076 334.46 L204.2277 332.9272 L204.2778 330.7917 L204.9312 329.0327 L206.2264 327.0035 L207.8463 326.3687 L208.9518 324.4592 L209.8563 323.0769 L211.0625 321.9463 L210.7248 321.1988 L209.6052 321.8957 L208.237 323.2595 L207.1928 325.4642 L205.7491 326.1739 L203.926 328.2282 L202.946 330.4899 L202.4687 333.3794 L200.7107 333.6811 L198.2107 334.7931 L195.082 335.2139 L195.0445 336.6775 L194.4037 336.7724 L193.1474 335.2396 L191.677 334.6426 L188.4734 333.6811 L185.5837 332.8266 L183.4223 332.45 L186.2872 327.3737 L187.4934 327.2738 L188.6547 326.3515 L189.7944 326.0598 L190.9978 325.8829 L192.5441 325.741 L194.504 324.7859 L197.5446 322.0718 L200.1078 320.1117 L201.7412 318.0767 L202.368 315.8398 L201.6911 313.7798 L201.7913 311.1413 L202.8959 307.9999 L205.0067 302.7734 L204.1021 302.3211 L202.8959 304.934 L201.8293 308.2324 L200.7486 311.0721 L200.1959 313.7605 L199.4042 314.8597 L197.9591 316.399 L196.8789 318.6859 L194.6927 319.5404 L193.3231 320.0112 L191.4887 321.2173 L190.6844 320.6645 L189.6796 320.514 L189.5288 319.0061 L189.8553 317.3477 L190.9861 315.1365 L194.0013 312.0957 L193.1095 311.2982 L190.8226 314.2634 L189.1142 316.424 L188.0209 317.021 L187.5436 316.4183 L186.9655 315.1115 L185.5837 313.5786 L184.3269 312.3468 L183.0204 311.1912 L183.3094 310.5692 L185.2693 309.1369 L187.4681 307.6482 L188.071 305.713 L187.9455 304.7079 L188.4228 304.0295 L189.755 303.175 L190.1569 302.4966 L189.6543 301.9687 L187.6944 302.7477 L186.5383 302.5216 L185.2567 303.5017 L184.3774 305.5118 L182.6433 307.7488 L182.3042 308.7852 L181.4877 308.7032 L180.8595 307.8743 L180.608 306.7936 L181.2361 305.5118 L181.0352 304.3313 L180.6834 302.8739 L180.0051 300.562 L178.9999 298.9535 L178.4719 297.5718 L178.6228 295.2848 L178.6982 292.3701 L178.5727 291.2137 L177.9946 289.807 L177.3917 288.6257 L177.5426 287.7461 L177.8438 286.8915 L178.6734 286.2388 L180.4571 286.4393 L182.5557 286.7474 L185.5837 286.6654 L186.1612 287.1433 L187.1918 288.0978 L189.3025 289.2791 L190.0562 289.2285 L192.4438 287.8217 L193.9264 287.8217 L196.7154 287.52 L197.9343 287.1241 L198.5751 287.0428 L199.3663 286.4207 L199.9949 285.8928 L200.6985 285.6417 L201.4396 285.962 L202.3432 286.741 L203.1723 286.8915 L204.4539 286.5655 L205.2329 286.5655 L206.1121 286.5655 L206.2883 285.9121 L206.9919 285.2836 L208.2482 284.1779 L208.4993 283.8262 L208.5747 282.595 L208.3236 281.5142 L208.2229 280.6346 L207.8964 279.3028 L207.042 278.2477 L205.7604 277.6698 L205.2718 277.4244 L204.1269 277.4437 L203.2725 276.8908 L202.8205 276.1118 L202.0162 272.8453 L201.2639 269.3268 L201.4143 268.8745 L202.2677 269.0001 L203.4234 269.3019 L204.3415 269.7171 L204.9696 270.2828 L205.7735 270.6723 L206.7661 270.7472 L207.5451 270.6216 L208.4121 270.1444 L209.4047 269.956 L210.9126 269.6543 L214.6816 269.0636 L216.1267 268.6998 L216.805 268.5107 L217.7096 268.6113 L218.8783 269.202 L219.5823 269.8733 L219.4067 270.4768 L219.2305 271.8965 L219.5191 273.1349 L219.7828 274.4033 L220.4991 275.2829 L221.3783 275.7858 L222.1072 275.3457 L222.459 275.6225 L222.7733 275.6603 L222.748 276.1504 L223.7153 277.0171 L224.8587 277.7961 L226.2411 278.3233 L229.143 279.5296 L230.8392 280.8743 L232.5733 281.2132 L233.3397 282.1306 L235.5642 284.3727 L235.9029 285.0582 L235.7647 286.1511 L236.3175 286.1889 L236.3803 285.2972 L237.876 285.3528 L237.7874 286.3273 L238.1139 286.3522 L239.8101 286.4906 L241.6824 286.4778 L241.6824 285.8622 L239.7483 286.119 L238.818 285.5982 L238.4765 285.1067 L238.5421 284.4354 L238.3762 283.3975 L237.8886 281.8723 L237.386 280.7167 L236.6674 279.377 L235.7277 277.8518 L235.813 277.1662 L236.3807 276.5449 L237.6221 275.7587 L238.5421 275.4898 L239.1955 275.7915 L240.1352 277.6185 L240.0345 278.4724 L240.0359 279.5546 L240.287 280.3835 L240.5886 282.4694 L241.6693 283.2234 L242.6746 282.8211 L242.8755 281.3887 L243.3528 281.1375 L244.1318 281.2881 L244.2574 281.6148 L244.2574 282.2932 L244.3581 283.0972 L245.2125 283.9767 L245.3629 284.9819 L246.0163 285.1074 L246.7452 284.2785 L248.1271 282.3439 L249.635 280.8358 L250.5648 280.3079 L252.3491 279.4033 L254.309 278.4239 L255.0374 277.5443 L256.0426 277.1919 L256.8722 277.4187 L258.1787 276.6647 L258.4803 276.2124 L258.983 276.2374 L259.3596 276.8402 L259.7868 277.2675 L259.7868 277.896 L260.214 278.5744 L261.0684 279.3784 L262.5257 279.0017 L262.9529 278.7499 L263.7572 279.8057 L264.9634 280.6603 L266.5968 281.8409 L267.9539 281.816 L269.763 281.7653 L271.7482 281.1126 L273.6828 280.233 L274.889 279.2022 L274.5878 278.8505 L273.6327 279.2022 L273.2443 279.1587 L272.4517 279.8057 L271.7735 279.7807 L271.2202 279.0517 L270.5921 278.2976 L269.9639 277.3431 L269.763 276.8659 L269.2856 276.4136 L268.6069 275.835 L267.8279 274.9554 L267.1243 273.6742 L266.9233 272.9958 L266.7224 271.8401 L266.6971 271.3122 L267.024 270.9605 L268.0541 270.9605 L269.5367 270.1815 L270.919 269.553 L271.8484 269.3775 L273.256 268.1462 L275.015 267.0654 L277.4522 265.4823 L279.6885 265.3817 L280.6184 266.4119 L282.0897 267.273 L283.2069 269.0001 L285.0661 270.2821 L286.2475 271.2116 L287.3783 272.3174 L287.9057 272.5685 L288.911 272.1411 L291.0719 271.7645 L292.9315 271.2116 L294.2886 270.7843 L297.0776 269.553 L298.3339 269.4524 L299.4399 268.4979 L301.0981 268.0456 L302.3798 268.0456 L303.8122 267.6939 L305.6967 263.2965 L307.5063 260.557 L308.5364 258.8234 L309.491 258.7984 L310.4963 258.7228 L310.6218 258.0444 L310.4461 257.1397 L309.9435 256.1845 L309.3407 254.9531 L308.9636 253.0939 L308.6118 252.5161 L306.9029 251.0086 L305.4958 249.6766 L304.7557 248.7527 L304.3397 247.8923 L304.4905 247.1382 L304.6161 245.6307 L304.7168 244.8516 L304.7168 243.8214 L305.5211 242.4645 L306.4767 241.8523 L306.0771 239.6107 L305.2836 239.4302 L305.1829 240.2592 L304.7421 240.379 L304.2394 239.8261 L303.8877 239.9767 L303.7368 240.9569 L302.9714 240.8121 L302.7817 241.4342 L302.1535 241.3336 L303.8371 239.2233 L304.6667 239.2233 L305.4457 238.6197 L305.5459 238.193 L304.8676 237.9412 L304.8676 237.2884 L304.4404 236.9866 L303.9879 236.8104 L303.8122 236.3331 L304.365 235.4534 L305.1693 235.2778 L305.722 234.3732 L305.3951 234.0971 L304.9931 233.5184 L304.9931 233.0162 L304.4657 232.2121 L304.6414 231.0313 L304.7809 230.0324 L305.6967 228.3173 L305.5965 227.4882 L305.5211 225.1758 L305.8729 224.3974 L305.9483 223.0903 L305.4204 222.6629 L305.1829 222.9712 L305.233 224.127 L304.8929 224.2461 L304.5547 224.102 L303.1977 224.8811 L302.7456 225.5846 L301.8912 225.6346 L300.1936 226.6335 L298.9373 227.262 L298.2473 227.1928 L297.3174 227.1422 L296.701 227.1365 L296.1117 227.3184 L294.9669 227.7643 L294.7912 227.0102 L294.1377 226.8846 L293.2332 226.9353 L291.4991 227.4126 L290.6952 227.262 L290.5463 228.6205 L289.0637 229.7763 L287.2293 230.0524 L285.0933 228.3943 L284.3644 226.3837 L283.0074 224.9518 L283.7109 223.8459 L285.2689 224.1477 L286.9511 224.1206 L287.3029 223.4927 L287.6547 221.7839 L288.0065 221.6327 L288.7855 222.1107 L290.9716 222.7635 L292.4289 222.8142 L293.9616 222.2862 L295.7459 221.7839 L298.3091 221.2559 L298.8366 220.7287 L300.2437 220.0751 L302.4805 219.0698 L303.3597 218.2907 L303.8877 217.9639 L306.5764 217.7634 L308.712 217.4366 L312.7077 216.5569 L319.1908 216.6325 L322.0051 216.6075 L323.7781 216.2872 L323.803 215.7342 L323.8536 214.8794 L323.929 213.7742 L323.3256 212.9194 L322.5972 212.7189 L322.4965 212.0654 L322.4965 211.588 L322.8736 211.2862 L323.1748 210.7083 L321.9438 210.6583 L321.3657 209.3769 L321.3404 208.2709 L321.2149 207.3662 L320.486 207.0394 L320.0452 207.9627 L319.3918 207.7872 L318.7135 207.2592 L317.6829 207.1086 L316.8679 206.4115 L315.7483 206.5307 L315.145 206.2288 L314.1402 206.1789 L313.1237 205.7579 L312.7077 206.2288 L312.4061 205.9028 L311.4402 205.5567 L311.0129 205.8585 L309.9936 205.8271 L308.6872 205.2991 L308.3855 204.8218 L307.8829 204.5207 L306.9531 204.9224 L305.9731 204.7212 L305.7974 204.3694 L305.2583 203.9741 L304.2141 204.3951 L302.5442 203.9484 L301.827 203.8921 L299.9172 203.8171 L297.7812 203.4654 L297.6809 202.7611 L296.9019 202.5606 L295.4329 202.4664 L294.2886 202.5856 L293.8862 203.1386 L293.6852 203.7914 L292.2921 204.0747 L290.4938 204.5207 L290.0919 203.8421 L289.7026 201.9441 L289.2145 199.6437 L289.0112 199.5702 L288.2575 199.0929 L288.0313 198.5399 L287.4284 196.5548 L285.5687 188.7393 L285.0549 188.1428 L284.6895 187.5085 L285.1415 187.1317 L285.3425 186.9804 L286.0212 187.2066 L286.3224 187.5584 L286.4752 187.8617 L287.2106 187.3172 L287.679 186.7592 L288.2552 186.5359 L288.8253 186.6836 L290.0296 186.3889 L291.3318 185.2722 L293.0318 183.5682 L293.9747 181.7308 L294.5991 179.9012 L294.9294 179.5629 L294.9242 178.8329 L295.0198 177.8718 L295.6765 176.202 L296.6762 174.6064 L297.4383 173.9571 L298.4862 173.5396 L299.5533 173.3305 L299.7552 172.577 L299.6521 172.2644 L299.1781 172.2116 L298.8398 172.0604 L298.6351 171.0506 L298.3845 170.7473 L298.2979 170.352 L298.0964 169.0954 L297.8454 168.4924 L295.9857 166.9846 L295.7847 166.5321 L296.589 166.3816 L298.9509 167.2864 L300.7604 167.3863 L303.3738 167.9394 L303.9767 169.3466 L304.8311 170.402 L305.7356 171.8598 L305.7356 173.0658 L306.7409 173.5182 L307.696 174.9753 L311.6008 179.7677 L313.4605 181.7272 L314.6311 183.2678 L316.1741 184.341 L319.0034 185.3285 L322.17 186.8363 L325.3212 189.0647 L323.9791 191.0077 L323.4615 195.4474 L322.7729 195.4303 L323.3107 197.0058 L324.381 196.6868 L325.7231 197.7593 L325.8739 198.7646 L327.2811 199.4682 L328.6882 198.111 L330.2111 198.4457 L332.2062 198.2116 L333.3772 196.2844 L333.2264 194.0731 L332.8245 191.9625 L332.5228 189.6006 L333.0268 188.7636 L334.5333 186.9369 L333.9801 183.469 L335.9405 182.2124 L338.9558 180.9558 L343.916 177.5057 L345.8408 175.2772 L348.2031 173.4176 L352.1735 170.3014 L355.2895 167.8894 L356.7969 167.0852 L357.2845 168.4596 L357.5005 169.8996 L358.3549 172.9152 L357.1487 173.9706 L356.6966 175.2772 L357.2494 177.7897 L355.3897 178.4433 L353.1281 178.6945 L351.9219 179.448 L350.4496 179.6164 L349.9119 181.1071 L350.2131 183.8208 L348.3038 183.8208 L346.8961 183.8208 L346.2431 185.3785 L345.8913 186.7357 L348.404 188.1428 L348.7057 190.2535 L347.3838 191.8797 L345.6749 191.7284 L344.5844 188.6958 L342.7753 188.0929 L340.7648 187.5399 L338.403 187.791 L337.5987 190.2036 L339.3577 193.1184 L337.046 193.772 L336.5785 194.7945 L336.9804 196.3022 L336.8951 198.5463 L331.6534 201.3276 L330.5629 200.1546 L329.6584 202.3152 L327.9847 202.5842 L328.0348 203.8407 L329.5928 204.7454 L330.6969 206.1475 L332.156 207.4589 L332.8746 207.3912 L335.1212 205.5995 L335.0711 204.3937 L333.9651 204.2424 L333.915 205.3483 L332.8596 205.7508 L332.372 205.6323 L331.1007 204.846 L330.2462 203.5389 L331.6183 202.6669 L333.6133 201.3276 L335.8899 200.7069 L338.3374 199.3176 L340.4636 197.8427 L344.1169 195.9504 L346.3434 194.6761 L348.0874 193.9397 L349.1577 192.9678 L351.9219 191.56 L353.9985 189.8525 L359.4946 188.5274 L362.0063 188.6787 L363.8655 186.675 L366.195 185.9315 L367.1853 185.4969 L368.0898 186.2005 L369.748 185.7481 L370.3163 184.7256 L371.2709 184.4237 L373.2313 185.2779 L373.3817 185.7809 L373.3817 186.7357 L374.4726 188.9142 L375.8292 189.769 L377.5882 190.7237 L379.5486 191.7791 L380.5032 192.8344 L380.7196 193.9725 L379.4478 194.7439 L379.297 195.7999 L379.7495 196.4028 L379.5987 197.3076 L379.2619 197.8427 L379.5987 198.8652 L379.6137 199.8528 L378.7443 201.3276 L377.6388 202.1318 L377.287 202.7854 L379.4478 203.6901 L380.9206 204.0747 L383.2173 203.9413 L386.3984 202.9188 L389.6652 201.7629 L389.5495 201.2777 L389.0469 200.4735 L388.4942 199.267 L389.9515 198.2623 L392.0777 196.4349 L392.213 195.8498 L391.7259 195.2291 L391.8111 194.5433 L393.52 193.9904 L396.435 193.2868 L398.5607 192.7666 L399.752 193.1862 L400.0686 194.2743 L399.4503 194.8951 L399.8522 196.0511 L400.7722 196.0332 L402.0637 195.8998 L403.4708 196.654 L405.0939 195.7314 L406.3507 195.0785 L406.0842 195.548 L404.7773 196.7546 L405.5966 198.0939 L406.9386 197.0557 L410.1703 195.9326 L413.1706 194.6939 L411.4618 194.1916 L412.8338 193.0178 L413.321 191.4273 L414.7787 190.1707 L416.5377 190.9749 L418.4475 192.1309 L418.4475 193.5879 L420.2214 193.5201 L419.3539 191.2161 L417.2998 190.2756 L415.3919 188.7993 L414.4686 188.2663 L414.0855 187.3472 L413.6536 186.0749 L412.9776 183.2285 L412.8109 181.583 L412.9589 180.8381 L411.9794 180.0011 L409.552 180.6219 L405.1947 181.9612 L404.1243 183.3356 L403.0183 183.1351 L402.2145 182.582 L401.0584 181.1749 L401.0233 176.8349 L400.5708 174.8248 L399.0985 173.3848 L399.1987 171.3746 L399.1987 168.9619 L392.6655 165.1428 L391.2083 166.0476 L389.5997 166.0476 L386.8509 165.8285 L382.6646 164.9415 L377.2364 162.6801 L375.7791 160.5193 L374.9247 160.0162 L374.4417 161.6518 L373.2055 162.8528 L372.0471 161.9608 L371.2208 159.2955 L370.4015 158.1066 L368.4416 155.3428 L368.5924 154.6391 L367.2003 151.958 L367.4012 151.3044 L369.4117 150.7513 L373.4674 150.8698 L376.4475 151.5056 L379.3977 152.3776 L380.0006 153.4331 L381.0208 154.8725 L382.7297 155.5761 L388.1072 156.5309 L392.3789 157.084 L396.3844 156.6494 L399.4503 155.9458 L400.4705 157.084 L401.4603 156.6993 L402.0637 155.8951 L403.5359 155.7773 L405.0438 154.7219 L405.9835 155.1915 L406.8028 157.034 L404.4255 159.8657 L405.1445 160.6521 L406.8028 158.5919 L408.2451 157.7048 L409.5019 158.2572 L409.6021 159.765 L409.6021 161.6247 L410.3057 162.5795 L411.2758 162.5617 L412.3312 162.6123 L412.9341 165.628 L411.8136 167.6554 L412.3162 168.359 L414.0752 165.1927 L415.0954 161.2551 L414.0901 158.7424 L414.0752 158.1066 L416.1859 160.0162 L417.543 157.5535 L417.0403 156.2976 L417.995 156.2976 L418.6634 155.3749 L417.809 153.9683 L418.2967 151.5227 L418.4976 148.9601 L418.5477 145.9442 L418.0957 144.0345 L417.2914 141.9742 L416.3869 138.9084 L415.4322 136.4962 L414.4771 136.8481 L414.5778 138.5066 L414.9797 141.2206 L413.9243 142.0242 L412.8188 140.4163 L410.8027 136.4013 L410.2055 136.5205 L409.566 135.8019 L408.1458 133.9649 L407.0033 132.7617 L404.2747 130.2181 L401.4856 127.8652 L400.026 126.9895 L397.8117 125.8661 L396.784 125.2824 L395.2822 124.8177 L394.3945 124.4402 L393.0211 124.0612 L390.8775 123.0871 L389.4132 122.7473 L387.7091 122.5846 L385.9632 122.5382 L385.2119 122.3484 L384.4193 122.3198 L383.1278 122.4861 L378.2997 122.5154 L372.078 122.0001 L368.6018 121.7774 L356.9843 118.037 L353.7436 116.2749 L347.3997 117.5845 L342.7229 117.4468 L339.2382 116.8044 L335.8829 114.0567 L333.2189 110.3019 L332.1504 104.8783 L330.5479 105.3366 L328.7384 105.186 L327.9345 104.0804 L326.9794 104.181 L326.9293 105.3872 L327.3312 107.5983 L326.0055 108.2935 L326.0557 110.0328 L325.2176 110.0449 L324.6307 108.933 L324.0128 107.1715 L320.2724 100.8793 L318.6563 99.696 L316.2327 97.1065 L315.5919 97.9366 L319.7393 102.598 L322.5804 107.4563 L323.3556 109.6645 L325.3727 119.3067 L325.902 123.3675 L323.6489 125.7655 L319.3098 115.2593 L317.3419 114.9859 L317.682 116.4433 L318.1846 118.3532 L317.1798 119.5493 L315.8776 119.4423 L314.5754 119.2424 L314.3144 120.5649 L314.5309 122.5575 L315.7371 126.2765 L317.4304 129.0577 L316.576 129.862 L316.6266 131.2194 L317.3803 132.1236 L317.5312 133.3297 L319.2901 135.4407 L318.4432 136.0937 L317.5312 136.7974 L318.9383 138.5066 L324.6176 144.3364 L323.6624 145.5425 L322.0693 143.7155 L317.7822 148.3064 L316.9278 147.754 L316.4257 147.754 L313.023 150.0983 L311.8519 151.2715 L310.3595 152.561 L307.6304 153.4831 L304.7308 152.4604 L302.8712 150.5508 L297.9306 145.7437 L294.2118 143.834 L293.0205 138.7906 L292.5535 135.3908 L292.3521 132.2243 L291.2967 130.1132 L289.6385 127.1486 L289.1508 125.221 L287.5778 122.8765 L286.6733 122.9772 L288.3821 126.3443 L288.6833 127.9522 L291.4475 132.6261 L291.6134 135.4229 L292.6687 142.4588 L291.8649 142.107 L291.2967 143.0797 L291.8649 144.5698 L287.9952 145.9771 L288.6988 144.0174 L287.0902 141.8058 L286.3716 144.8388 L286.1857 150.3995 L287.4771 155.3428 L287.4771 157.8554 L287.5778 163.585 L286.99 163.7684 L283.4566 161.2729 L283.3713 163.2653 L282.5019 163.585 L282.0494 162.6801 L280.542 156.6494 L279.3358 157.353 L281.0446 164.5398 L280.2905 164.6903 L279.8033 163.3659 L279.3508 161.4063 L278.1947 158.1394 L277.0742 155.4434 L276.1697 153.6843 L275.6671 153.6336 L274.3751 154.5713 L272.968 153.5658 L271.41 152.2092 L270.5054 151.0025 L270.8923 149.613 L272.5511 148.2058 L273.9081 148.7089 L275.1143 149.7137 L275.7172 149.9149 L276.0338 149.2441 L274.2599 147.8539 L272.7169 146.6807 L272.0484 145.5924 L272.4503 143.4315 L273.0031 141.773 L272.8527 140.3657 L275.3804 138.4388 L276.5716 136.295 L275.3804 134.6693 L272.5009 134.7371 L268.2288 135.4907 L264.5601 135.4907 L260.5545 135.7747 L256.4333 139.7455 L255.9311 138.5894 L257.0563 134.4124 L256.7804 134.5173 L256.4951 134.5587 L255.8468 134.3267 L255.7297 134.2168 L255.1301 133.6166 L254.6856 133.2255 L253.6616 133.0807 L252.8016 133.4004 L252.2357 133.7422 L251.6932 134.2439 L251.0051 134.4088 L250.6154 134.4002 L250.0987 134.1818 L249.8851 133.9834 L249.1464 133.4082 L248.6653 132.9893 L248.0549 132.7609 L246.7616 132.7145 L245.6688 133.2491 L244.6673 132.9857 L243.7955 131.7026 L243.2662 129.9398 L242.7917 129.0684 L242.6263 128.6837 L242.5045 128.2869 L242.6202 127.5633 L243.8854 126.253 L244.8898 125.7241 L245.3924 125.9368 L245.7048 126.1766 L246.1096 126.42 L246.4332 126.4749 L246.8993 126.1095 L247.1026 125.722 L247.1832 125.1567 L247.208 123.9813 L248.551 122.7452 L250.6454 121.1073 L251.9603 119.4522 L252.9159 117.9956 L254.3905 114.2986 L255.1306 112.9219 L256.2726 110.5103 L256.4019 109.6124 L256.3012 108.9108 L256.8469 107.811 L257.1055 106.8204 L256.4506 107.0323 L256.1265 107.4741 L255.2585 109.6231 L254.6828 110.8343 L253.522 113.5507 L252.3195 115.9808 L250.9016 119.1553 L249.1956 121.0488 L247.439 122.8594 L245.8664 123.703 L245.0073 123.8172 L243.9529 124.1091 L241.7733 121.5833 L241.5016 121.4927 L241.1573 121.5748 L240.8772 121.8752 L240.739 123.1649 L240.8833 125.2931 L240.8659 125.6214 L240.6673 126.0403 L240.7957 126.9331 L240.8659 127.8173 L239.9928 129.1619 L239.1018 129.5551 L238.744 129.5416 L238.0774 129.1826 L237.7959 128.8001 L237.5214 127.342 L237.2768 127.215 L236.9325 127.2971 L236.5166 127.7802 L236.272 127.8809 L236.073 127.8445 L235.8233 127.6853 L235.687 127.412 L235.7273 127.0159 L236.5124 125.5022 L240.3048 121.0466 L240.4425 120.4671 L238.4577 120.4243 L238.7866 118.6822 L239.0255 117.9428 L240.2387 117.1192 L244.5075 112.5465 L245.628 110.9899 L246.911 108.8074 L247.4643 107.619 L247.1668 107.2143 L246.5639 107.5612 L245.258 110.0778 L243.7613 112.3945 L240.3558 116.1357 L238.7477 117.3604 L237.8427 117.8464 L236.4285 119.4858 L233.9458 121.5505 L231.5278 123.4817 L230.4991 125.4529 L230.0733 126.5391 L228.6437 129.1383 L227.3887 130.3445 L226.2392 129.052 L225.0232 127.8794 L223.541 125.981 L223.4858 125.9104 L224.7037 124.6251 L227.8436 122.362 L228.7622 121.2886 L228.416 120.9046 L227.7775 120.9282 L227.4318 120.0996 L226.3423 117.8136 L225.1028 116.3006 L225.3141 115.7453 L226.2725 115.4163 L227.5354 115.0994 L228.7786 114.5306 L230.9432 114.2044 L232.0449 113.702 L232.9453 112.9854 L233.6826 112.488 L233.8943 111.937 L233.7987 111.7229 L233.5448 111.5316 L233.2141 111.4816 L232.9246 111.7186 L232.5363 112.3938 L231.9939 113.1232 L231.5142 113.3879 L230.3731 113.5528 L228.0455 114.0203 L225.3867 114.2094 L224.1959 114.4799 L222.7611 115.078 L222.4622 115.0238 L222.2126 114.8646 L222.117 114.4221 L221.6444 111.3653 L221.3493 109.7637 L220.5656 107.24 L221.4354 106.9888 L223.6736 105.9646 L225.3084 104.8933 L225.7839 104.635 L225.8429 104.1089 L225.5759 101.8036 L227.2683 100.7452 L227.9968 100.4118 L229.1379 100.0186 L230.6818 99.7302 L230.9853 99.5889 L231.4922 99.287 L231.8758 98.5804 L232.4998 97.6112 L237.1077 95.4471 L243.3636 92.8162 L243.8662 92.7106 L245.0846 92.6321 L245.836 92.4586 L246.2632 92.1218 L246.5461 91.9483 L246.7944 91.4237 L247.1785 91.1725 L247.564 91.1496 L249.6664 91.5943 L250.45 91.6435 L251.9087 91.6607 L253.3271 91.8463 L254.68 91.3466 L252.4507 90.7035 L249.8036 89.8492 L248.5613 89.0848 L247.5181 88.356 L246.2407 87.6066 L243.7726 85.4132 L243.5908 84.1491 L244.0049 83.8265 L244.4307 83.4696 L247.5486 83.0314 L248.8035 82.98 L250.7466 83.4639 L252.0132 83.955 L254.2499 85.6609 L257.8451 88.0213 L258.7113 88.6451 L259.5493 89.0862 L260.1124 89.3867 L261.1926 90.3702 L261.5012 90.9434 L262.4034 91.3666 L264.6379 92.0525 L265.8581 93.1139 L265.9804 93.0632 L266.0118 92.8312 L266.0825 92.6392 L266.1514 92.4529 L266.0516 92.2067 L265.2983 91.4687 L264.1554 90.7228 L263.9104 90.3674 L263.3572 90.1218 L262.8269 90.0355 L262.2624 89.7764 L259.6032 88.3203 L256.5204 86.2083 L254.6795 84.6002 L253.7375 84.1206 L251.2585 82.5724 L247.7308 80.9215 L246.9687 80.3476 L246.9228 80.0292 L247.1439 78.9593 L247.7603 77.5346 L248.4676 76.025 L249.1366 75.1699 L249.7511 74.4953 L250.3301 74.0207 L251.0993 73.8222 L251.9706 73.6766 L252.3345 73.8251 L252.8334 73.7858 L253.3276 73.2612 L253.3454 72.9336 L253.4349 72.4318 L253.4611 71.94 L253.6194 71.6887 L253.8911 71.5517 L254.1811 71.5424 L255.0641 72.3925 L255.6187 73.3618 L256.3701 74.6309 L257.0151 75.7237 L257.3786 76.2248 L259.2415 79.2327 L259.2031 79.9971 L259.7732 80.0507 L260.4801 80.0649 L261.6769 81.6752 L262.8213 83.4425 L263.6673 84.1562 L265.5658 85.5352 L266.7416 86.9663 L267.4869 88.3239 L267.7192 89.0391 L267.9291 89.2054 L268.0893 89.3631 L268.5151 89.3995 L268.5642 89.0669 L268.5361 88.9941 L268.0059 87.6208 L267.2967 86.3289 L266.7191 85.4596 L263.9277 83.4054 L263.3436 82.6909 L261.7284 79.1092 L258.9319 75.6388 L255.8019 72.7044 L255.1587 72.107 L254.7732 71.2497 L254.3825 70.5567 L253.6138 69.4124 L253.2311 68.9099 L252.7772 68.4502 L252.432 67.9813 L252.3959 67.4616 L252.5149 66.1975 L250.9751 65.0925 L249.6083 64.266 L250.6716 62.54 L251.5078 61.3772 L251.8427 61.2309 L254.0757 61.0053 L255.1859 61.0731 L256.4277 61.3815 L257.6062 61.9275 L258.455 62.6513 L259.3127 63.4387 L260.5925 64.9141 L261.3064 66.1468 L263.353 70.1548 L263.9629 71.6951 L264.0959 72.6195 L265.051 74.9886 L266.2731 76.9607 L266.5814 77.0792 L266.8713 77.0699 L267.0887 77.0057 L267.165 76.6367 L267.0826 76.0628 L266.8507 75.5753 L266.0553 74.0949 L265.6689 73.4339 L265.6323 73.1791 L265.6398 72.3311 L265.5527 71.7251 L265.5298 71.3375 L265.5602 70.8779 L265.4689 70.4674 L265.2824 69.8436 L265.2365 69.5245 L265.2581 68.9999 L265.1892 68.5216 L264.7484 67.7065 L264.3802 66.9456 L263.8537 66.4359 L263.7399 66.1333 L262.1931 63.2174 L261.853 62.8762 L260.7199 62.6492 L259.8135 62.4222 L258.8153 61.5571 L257.6948 60.7426 L256.1391 59.9039 L254.857 59.6676 L253.6953 59.2322 L253.4311 58.791 L252.8934 58.4663 L251.482 57.4191 L250.2275 56.297 L250.0706 55.8865 L252.7074 53.5987 L248.4892 50.8212 L235.5511 47.973 L233.846 44.0398 L227.4613 38.6716 L226.6289 36.5879 L227.2412 34.8953 L227.3344 34.3563 L226.4149 32.768 L225.5604 30.1545 L225.3595 27.5917 L225.9778 26.3146 L228.0736 23.1185 L230.2846 21.1582 L228.7921 20.6863 L226.8674 22.9172 L226.264 22.5153 L224.6058 19.2992 L222.3442 20.153 L221.0373 20.153 L220.1829 18.394 L220.0475 15.4092 L219.1425 12.0417 L218.1227 5.8299 L217.2683 2.1611 L217.4187 0.0 L215.8761 0.382 L214.4034 2.3117 L212.4936 4.6241 L211.3024 6.2119 L207.9203 8.5442 L204.2665 11.6398 L202.7437 13.6201 L203.0542 15.1186 L203.4978 16.3337 L203.0955 17.6908 L203.8646 19.7811 L204.8699 19.3792 L205.9098 16.6856 L205.7238 15.3085 L205.8597 12.8663 L207.0307 10.8359 L209.2267 9.75 L210.9862 7.589 L212.8604 6.5139 L214.1523 4.9754 L215.0718 4.9554 L216.1623 5.9806 L216.3633 9.75 L214.9561 11.4085 L212.5437 11.8104 L211.805 11.4384 L210.5337 12.263 L212.5437 14.1727 L215.6752 18.374 L218.6249 23.0685 L221.6055 27.521 L222.6454 29.602 L222.2936 32.2147 L223.148 33.2705 L223.148 36.9391 L222.2084 37.271 L221.339 35.582 L220.4344 35.7833 L221.4898 39.4519 L223.2989 42.3165 L225.0728 45.1612 L224.1032 45.6338 L222.9972 45.885 L222.6103 45.5131 L221.9418 44.7293 L219.9819 45.0306 L218.3387 44.508 L216.9816 43.8549 L213.1002 42.6463 L213.6764 45.441 L213.4988 46.6389 L212.6945 46.5382 L210.6344 45.8351 L209.4783 45.935 L206.5281 45.4125 L205.6587 45.6837 L204.8193 45.6138 L204.2014 44.3267 L202.7085 43.4523 L201.0376 44.3774 L199.8441 44.558 L198.7761 44.8293 L197.6326 44.9099 L196.6653 44.578 L196.4644 45.4325 L196.2128 46.6888 L195.2076 47.4426 L193.9512 47.4426 L192.6068 47.322 L191.9412 46.7895 L190.9359 45.885 L190.3832 46.4376 L191.3379 47.9452 L190.6844 49.3022 L189.4693 50.2245 L189.2098 44.8157 L189.3503 39.8595 L189.4445 35.8626 L188.8444 36.8092 L188.7011 37.6529 L188.7737 41.7326 L188.353 43.1003 L188.4078 46.5725 L188.8252 50.5592 L189.0763 51.6642 L189.7297 53.8757 L189.0388 54.5595 L186.6264 55.7659 L186.1612 56.5397 L185.3574 55.3833 L184.5531 56.1878 L185.6085 57.846 L184.503 62.1681 L183.2968 69.0513 L183.9629 70.8928 L182.656 71.9485 L180.2941 71.2947 L177.781 70.3404 L175.7204 69.9885 L175.4567 71.4132 L174.954 73.8258 L174.9667 75.0142 L175.8586 77.5946 L175.8712 80.6431 L177.3791 81.4468 L174.6922 82.8465 L175.155 84.9828 L178.8743 90.5108 L179.5273 91.1139 L180.7335 92.722 L182.0906 94.9332 L182.6939 96.5919 L184.4529 98.0494 L186.2245 99.9922 L187.4681 102.1205 L187.9708 104.4323 L188.3226 106.1909 L187.8199 107.4977 L187.0156 109.8601 L185.1059 111.5687 L182.9951 112.0712 L178.3843 113.1089 L174.665 114.315 L172.1397 115.7396 L171.2352 116.494 L171.2352 117.7501 L172.1397 119.5093 L169.2247 121.1173 L167.4156 121.2679 L165.4051 120.6148 L164.0106 121.9544 L160.9953 122.5575 L158.5828 120.9995 L155.6261 120.8596 L154.9759 120.5542 L154.4335 120.5256 L153.2943 120.1531 L148.7702 120.213 L148.4474 120.7269 L147.2623 120.5649 L151.7855 123.0271 L148.8709 122.9265 L147.9157 126.3443 L149.3229 129.1583 L149.9764 126.2936 L153.8461 125.5907 L157.6783 124.7185 L162.4526 126.4771 L162.5027 127.8844 L158.6203 127.6511 L156.5096 127.2992 L156.9241 129.9769 L157.0876 131.8175 L156.2206 133.0107 L154.9141 137.1571 L154.0344 139.2053 L152.8661 143.4208 L152.3635 143.4586 L151.2955 141.9635 L150.0766 140.7197 L147.0112 139.6014 L146.2196 137.8672 L143.6315 137.1385 L142.488 137.4654 L140.7539 136.8495 L140.3145 136.1466 L138.7059 135.3801 L137.6257 135.455 L137.7887 136.1466 L139.3467 136.6989 L140.1384 137.6096 L138.4047 141.1593 L137.073 142.8485 L136.8969 144.8153 L138.0656 146.022 L140.352 146.5872 L140.4148 147.2338 L139.5856 155.8972 L138.593 161.325 L138.2787 162.9456 L137.7133 164.29 L136.5577 165.157 L135.5651 166.8968 L134.1706 169.2588 L134.1828 169.7176 L133.6928 169.8061 L132.9892 169.3658 L133.052 169.0019 L134.0324 167.1801 L135.226 164.9437 L136.2186 162.5438 L136.8341 160.4958 L137.8393 156.1106 L138.1785 155.0052 L138.2914 153.6479 L138.2038 152.8444 L137.9021 152.1279 L137.5377 151.9017 L136.168 151.8638 L134.7861 151.6883 L134.0572 151.6754 L133.2155 153.2212 L132.7883 153.6229 L130.9038 153.4474 L130.5267 155.9351 L130.5267 157.5807 L131.1675 158.2522 L131.1427 159.1699 L131.1801 159.8856 L130.9291 160.1689 L130.1622 160.1875 L129.7856 160.5265 L129.6474 161.2872 L129.4713 162.2605 L129.3331 162.9135 L130.1749 163.2332 L130.7909 163.8183 L129.2703 166.8012 L128.6675 171.1234 L127.0893 179.9161 L127.1722 181.5088 L128.8178 181.8785 L132.2856 181.5766 L133.5424 183.0344 L121.8321 198.7646 L119.8722 199.5688 L118.7873 200.0069 L119.0684 201.6295 L120.0765 202.5328 L120.4278 203.12 L119.2731 207.1321 L117.2092 211.7364 L114.7555 215.6764 L113.9185 217.4516 L114.3803 217.9275 L114.8853 217.9425 L116.3313 217.513 L117.5554 217.4951 L118.3236 217.4766 L118.904 217.7363 L119.9692 218.0417 L120.9744 218.7387 L121.5248 219.3723 L121.3651 219.7455 L119.3813 223.7967 L114.4614 223.1895 L117.0078 228.3665 L116.656 229.5223 L117.3722 231.2132 L119.8722 232.1358 L120.9777 233.2916 L120.9904 234.4802 L120.3748 236.0555 L119.5228 236.8082 L115.4999 237.4125 L110.1724 237.0608 L108.7151 238.2166 L108.7653 242.991 L108.3132 246.1572 L108.7151 248.4688 L109.4688 248.3182 L110.0342 245.5865 L114.897 245.5544 L115.7008 258.0679 L122.4355 260.1289 L132.1854 263.295 L131.9338 265.2548 L132.688 265.406 L133.0899 263.4456 L134.2961 263.4456 L134.1579 268.1526 L135.1 268.7226 L137.3742 268.1526 L137.563 264.8531 L139.6864 264.8852 L141.9353 263.8979 L143.0909 263.8479 L142.8019 266.6445 L141.8847 268.0192 L141.332 270.5824 L141.8608 270.8385 L142.9907 271.3864 L143.1036 274.887 L142.7391 276.5128 L141.8847 277.5678 L140.842 277.1983 L139.573 278.6236 L141.6336 272.1404 L138.9701 271.2359 L139.121 272.7932 L138.2787 273.5294 L136.658 272.9444 L136.5198 279.4098 L135.0498 278.7742 L134.5978 279.0759 L134.7988 280.3821 L133.957 282.7769 L134.1893 283.2106 L134.7482 284.2521 L134.61 285.2394 L135.7534 286.7653 L136.0438 287.7597 L138.8802 289.5816 L134.0048 300.3224 L127.6669 316.6237 L121.6925 334.2396 L120.5294 346.1145 L120.4086 352.0507 L118.9855 352.3945 L109.7166 390.0929 L107.8776 389.844 L106.4662 391.4835 L106.7552 393.3605 L105.6999 394.1642 L104.5939 396.6773 L105.26 397.6144 L103.7901 399.3409 L101.3903 402.0372 L98.865 403.4121 L97.8654 401.7313 L92.6831 404.4669 L94.2912 405.774 L97.2564 407.8848 L96.8545 409.5934 L96.6535 412.4081 L94.3919 412.458 L92.3814 413.3629 L91.7786 415.1721 M99.4679 421.1022 L99.6187 419.1426 L100.586 417.9688 L102.4958 416.7124 L103.4884 415.9757 L105.0089 415.8074 L107.2579 416.2774 L108.0242 417.2151 L106.8681 418.9736 L104.9963 420.9011 L103.8903 423.0624 L101.5285 425.1732 L100.4858 425.0049 L100.0332 423.2457 L99.4679 421.1022 M101.7018 427.6704 L102.4536 427.1905 L102.7665 427.3537 L104.793 425.529 L104.918 425.0348 L104.8642 424.8223 L104.6712 424.5292 L104.6014 424.2654 L104.9068 423.4054 L105.7036 421.5143 L105.9017 421.3239 L106.892 421.2548 L107.6078 421.2726 L108.2992 421.5635 L108.3544 421.9457 L108.2041 422.5369 L107.6598 423.2635 L107.0883 423.9666 L106.9562 424.1677 L106.5056 424.9557 L106.6189 425.1824 L107.1342 425.6267 L107.2049 426.0367 L107.7277 426.4745 L108.2411 426.165 L108.4242 425.7529 L108.3507 425.2416 L108.0603 424.8316 L108.0265 424.1984 L108.2795 423.466 L108.7685 423.1081 L108.955 423.2785 L108.8154 423.6144 L108.8533 424.0379 L109.3667 424.1492 L109.593 423.8725 L110.1453 424.2568 L110.609 424.3253 L110.8095 424.1107 L110.8587 423.5701 L110.2071 423.0617 L109.9654 422.5084 L109.5068 422.2153 L109.5269 422.0121 L109.9968 421.5036 L110.164 421.4794 L112.5731 421.9878 L110.6423 424.7146 L110.2169 424.8929 L110.0914 425.3864 L109.7841 425.9212 L109.4796 426.1943 L109.2651 426.2513 L108.7746 426.0559 L108.2214 426.3098 L107.6874 426.7555 L105.9027 429.0559 L105.274 429.6684 L104.6754 429.7675 L103.8547 429.6078 L103.5343 429.7126 L101.7767 427.8686 L101.7018 427.6704 M105.7125 400.0776 L106.7051 397.1801 L108.0743 394.5486 L109.4187 393.8626 L109.8712 392.6067 L111.3285 393.0589 L112.434 394.3653 L112.6476 395.5542 L113.2383 395.9735 L112.9872 399.2404 L112.1829 402.0044 L109.9213 401.2507 L108.6149 401.4518 L107.019 400.3286 L106.8681 399.3231 L106.3027 399.9941 L105.7125 400.0776 M107.3206 413.4956 L107.9614 411.8048 L109.6197 409.8951 L110.9767 408.6386 L112.434 408.1358 L113.2383 409.1913 L110.8385 412.1392 L108.665 415.4231 L107.3206 413.4956 M108.1123 419.6952 L108.7151 418.6898 L108.6149 417.936 L109.4688 416.4785 L109.934 416.3608 L111.6302 414.8704 L112.6354 413.3629 L112.6476 412.2398 L113.4018 411.4853 L113.9044 411.8875 L115.098 412.2569 L116.6054 412.458 L117.7615 413.5134 L117.8622 414.4183 L116.0025 416.5291 L114.5073 418.1699 L113.4018 419.979 L112.1328 420.2479 L108.1123 419.6952 M114.3766 217.4009 L114.5766 216.9964 L114.6792 216.5854 L114.8914 215.9975 L115.9552 214.4107 L116.9979 212.9886 L117.4495 212.5341 L118.1006 211.4482 L118.6721 210.2117 L119.9931 206.6876 L120.5664 204.9259 L120.7177 204.0026 L120.9168 203.4554 L121.0794 203.4318 L121.2461 203.4076 L121.9577 204.3087 L122.6177 205.6587 L123.4791 206.2538 L123.9054 206.8788 L123.807 207.4504 L124.527 208.0982 L125.1439 208.3851 L125.6072 207.0729 L125.914 207.2064 L126.3895 208.8196 L126.5244 209.4418 L126.7947 209.9734 L127.0322 210.6326 L127.1839 211.2983 L127.7821 212.9672 L128.1152 214.5141 L128.3503 216.9115 L128.7138 217.0977 L128.9935 216.4805 L128.9162 214.644 L129.6957 214.0446 L130.5674 213.8149 L131.7872 213.5345 L134.0797 213.5195 L135.2007 213.5402 L135.5384 213.593 L135.7033 214.1938 L135.7914 214.4963 L135.7633 214.9736 L135.634 215.5565 L134.8512 215.6436 L133.861 215.8591 L131.2443 216.0053 L129.7748 215.9433 L129.2385 216.021 L129.3265 216.2372 L129.7383 216.3143 L129.9889 216.2579 L132.2758 216.2051 L133.7607 216.2815 L134.8695 216.8016 L135.4012 217.1262 L135.5108 217.6164 L135.3716 217.9539 L134.869 218.0531 L134.5121 218.2215 L132.0214 218.5489 L130.2714 218.4362 L129.9594 218.5183 L129.4563 218.4812 L129.0764 218.0602 L128.3986 217.7919 L127.8365 217.6899 L127.1535 218.0181 L126.3946 218.7694 L125.9482 219.1547 L125.2906 220.297 L124.4291 220.7786 L124.0206 220.2442 L123.7204 219.8511 L122.4959 219.5164 L121.8682 219.7369 L121.6443 219.4929 L121.418 219.1476 L121.1173 218.6895 L121.0025 218.514 L120.6306 218.2693 L121.0311 217.3546 L121.3768 216.5661 L122.3165 213.5901 L123.3349 209.3583 L122.5882 211.7764 L121.5637 215.7428 L120.8334 217.2975 L120.6587 217.6699 L119.8544 217.605 L118.0552 217.0035 L117.1417 216.7666 L116.4129 216.7752 L115.2615 217.4866 L114.8319 217.6464 L114.3766 217.4009 M114.3831 411.153 L115.6966 409.9129 L116.0067 409.2847 L116.0929 408.9873 L116.7946 409.06 L122.6186 404.4711 L123.1826 403.7673 L123.5382 403.3658 L123.9715 403.3223 L124.3823 402.9907 L125.4301 403.0463 L125.7018 403.318 L125.2849 403.922 L124.638 405.1244 L124.3368 405.6342 L123.9415 406.0735 L122.9016 406.9243 L120.1088 409.1043 L120.2062 409.1549 L124.1696 406.1313 L124.9758 405.3148 L125.6316 404.5332 L125.9834 403.4321 L126.5642 403.2966 L127.1437 403.5491 L127.2266 403.9905 L127.0884 404.5096 L126.5492 405.968 L125.4817 407.2109 L124.8329 408.4589 L124.1921 409.3353 L123.7728 409.9657 L122.0265 411.4761 L121.7267 411.5452 L121.471 411.3891 L120.8981 410.8171 L120.1837 410.2081 L119.7991 409.6484 L119.4769 409.3389 L119.1522 409.2818 L118.5437 409.9472 L117.5811 410.3736 L117.278 410.7801 L117.2888 411.0104 L118.4149 412.0394 L118.9129 411.7335 L119.3213 411.7007 L119.8671 412.0872 L119.9907 412.4059 L120.0713 412.7832 L120.0615 413.2089 L119.7069 413.4956 L119.3949 413.5733 L118.4046 412.9664 L117.4715 411.9617 L117.0148 411.931 L116.493 411.8512 L115.9163 411.5267 L115.4615 411.5081 L114.7907 411.3791 L114.3831 411.153 M120.106 225.4441 L120.439 224.0342 L120.6184 223.5862 L121.1965 222.1435 L121.4855 221.8988 L121.8879 221.557 L122.6416 221.7832 L123.0486 221.587 L123.7967 221.2253 L124.0619 221.0975 L125.5004 220.7208 L126.1164 220.6894 L126.6649 220.2342 L127.0682 219.6698 L127.0982 219.251 L127.6004 219.1911 L128.0337 219.3745 L128.9134 219.9602 L129.9369 220.2456 L130.1693 219.8475 L128.5082 219.0334 L128.6417 218.8051 L129.1977 218.6274 L130.432 218.6995 L131.9057 218.972 L132.8379 219.0734 L133.949 219.2489 L134.3982 219.5407 L135.018 218.9064 L135.9553 218.9064 L136.3975 219.0627 L135.4888 224.1562 L134.454 226.3837 L132.1189 228.298 L129.846 228.1346 L129.1968 227.3084 L130.2255 226.2389 L130.938 224.8976 L131.315 224.3368 L131.4982 223.5455 L131.753 222.6658 L131.9287 221.1953 L131.7273 220.7836 L130.975 220.0951 L131.0546 220.4661 L131.2911 220.7622 L131.5464 221.5035 L131.3881 223.0504 L130.0835 225.2543 L128.5326 226.9574 L127.5788 227.3812 L126.2415 227.653 L122.6346 227.409 L121.1782 226.8903 L120.3627 226.2789 L120.1715 225.7958 L120.106 225.4441 M122.3123 335.8944 L123.1957 332.4907 L123.785 331.7674 L123.8689 331.4036 L124.2286 331.0406 L124.6062 330.8644 L125.1734 331.0313 L125.484 331.1433 L126.0316 331.4521 L126.6331 331.8979 L128.3522 332.9821 L127.8229 334.5035 L127.7878 335.7588 L125.7262 334.3994 L124.1644 334.0791 L123.3086 336.2781 L122.3123 335.8944 M123.2327 198.5128 L124.1509 197.1064 L126.7666 193.9525 L127.8665 192.5026 L132.4243 186.862 L133.6178 186.2369 L133.7785 185.604 L134.3495 184.9554 L134.7205 184.8362 L135.0105 184.8269 L135.337 185.0724 L135.5951 185.0681 L135.8115 184.8619 L136.5713 184.752 L137.3287 184.5236 L137.5325 184.5914 L138.5129 185.5562 L139.1135 185.9329 L139.8948 186.1499 L141.2528 187.3665 L141.7287 187.8895 L141.843 188.4589 L141.7414 189.5478 L141.7432 190.459 L141.5901 190.9692 L141.2645 191.179 L140.1838 191.0884 L139.0582 192.0324 L138.4619 192.8351 L138.5045 193.5779 L138.1021 193.929 L137.74 194.1117 L132.3086 201.9948 L131.4223 202.5792 L130.463 202.881 L129.951 202.9224 L129.6657 202.7361 L129.6737 202.3444 L130.025 201.3797 L130.1664 200.9473 L131.0499 199.5417 L131.7788 198.3215 L132.1231 197.3897 L132.7142 196.6947 L133.4853 196.3044 L134.224 195.2833 L134.8896 194.7453 L135.4911 194.8937 L136.8285 193.3974 L137.2796 192.7138 L137.3241 192.3492 L137.2374 191.971 L136.9118 192.0474 L134.6193 194.011 L133.3949 195.1648 L132.9021 195.5616 L131.6387 195.7778 L131.2228 196.0332 L131.0106 196.3572 L130.8443 196.9993 L130.1505 198.6947 L129.6713 199.5731 L129.2249 199.8842 L129.0277 200.4443 L128.8155 201.3298 L128.318 202.3366 L127.3746 203.0037 L126.8851 203.0244 L126.5928 202.9695 L126.2536 202.9923 L126.196 202.4579 L125.8335 200.7518 L125.6063 200.0269 L125.3791 199.4846 L124.6273 199.4311 L123.7574 199.4589 L123.2585 199.4339 L123.2327 198.5128 M128.6169 364.3622 L129.0193 361.2462 L130.1875 358.5146 L131.7329 356.6724 L132.6374 356.773 L133.341 358.5824 L133.3916 360.844 L134.0572 361.7312 L135.1126 361.6306 L136.658 364.3116 L135.0625 364.1939 L133.6928 365.4677 L130.3758 365.2666 L128.6169 364.3622 M128.9438 237.7364 L130.8007 236.7362 L132.361 236.1333 L133.972 235.5704 L135.1529 237.9626 L134.3111 238.7417 L134.8339 243.1294 L133.9771 243.5239 L132.5775 240.5909 L131.3511 240.5046 L128.9438 237.7364 M129.4245 212.0746 L129.6648 211.3205 L130.8433 211.247 L131.204 211.5053 L135.0006 210.7154 L135.2986 211.0351 L135.6752 211.1357 L135.9488 212.542 L131.6813 212.7974 L129.6352 213.1335 L129.4245 212.0746 M131.7816 366.5653 L131.8551 366.2914 L132.036 366.1146 L132.2931 366.0775 L132.7292 366.2401 L133.0267 366.6109 L133.0351 367.061 L132.8201 367.2614 L132.6182 367.2906 L132.0744 367.163 L131.835 366.934 L131.7816 366.5653 M136.8088 363.1056 L137.8267 362.4851 L138.5303 362.0329 L138.8193 361.4973 L139.573 361.4973 L139.6737 362.1007 L140.1763 363.005 L141.0935 362.9872 L141.7343 362.3517 L142.1489 360.8768 L142.7391 359.4867 L145.4532 359.9896 L145.4153 361.8318 L144.6489 362.6534 L139.9749 364.2617 L138.6183 364.2617 L137.525 364.0933 L136.8088 363.1056 M142.2871 291.3885 L142.5508 290.4162 L142.5508 289.4111 L142.4501 288.3553 L143.9959 288.976 L145.4031 288.8761 L145.7549 289.2777 L145.6542 290.9362 L145.0007 292.3437 L143.6943 291.5897 L142.2871 291.3885 M152.7331 279.9419 L152.8165 279.3078 L153.2802 278.8063 L153.7468 278.5894 L154.529 278.5024 L155.0631 278.7099 L155.0626 279.6045 L155.0162 281.2117 L153.4676 281.4036 L152.9846 281.1497 L152.7331 279.9419 M154.5623 324.9927 L155.2031 319.3314 L155.806 319.3314 L159.0728 322.8493 L159.1229 323.905 L156.8112 326.0156 L156.7105 326.6689 L157.8291 327.5563 L159.2738 327.9257 L159.9272 328.629 L158.8719 330.1369 L157.075 328.7624 L155.4041 327.8252 L155.5549 326.6689 L154.5623 324.9927 M155.4725 275.183 L155.9901 275.2486 L156.481 275.3571 L158.6845 275.8129 L159.9357 275.9749 L160.9227 275.962 L162.1991 276.211 L162.9289 276.2089 L163.8672 276.3972 L164.4045 276.8509 L163.9754 277.8204 L163.3908 278.5694 L162.2268 279.9462 L161.5714 280.2423 L161.4304 280.6967 L161.5869 280.8879 L162.2549 280.9014 L162.3275 281.1825 L162.179 281.6319 L161.7771 282.0728 L161.0543 283.1557 L160.1493 284.0067 L159.3665 284.133 L159.3539 283.7784 L159.8293 282.9966 L159.8528 282.2604 L159.6766 281.8003 L159.1843 281.6576 L159.2532 280.656 L160.8187 280.6995 L161.0655 280.5426 L161.0707 279.7251 L160.079 279.5253 L158.0877 279.8785 L157.2881 280.4292 L156.5096 280.5419 L156.0463 280.4663 L155.8214 279.5788 L155.539 278.7378 L155.5989 277.764 L155.6828 277.1812 L155.4725 275.183 M156.578 214.1852 L157.5083 208.47 L159.9235 202.6577 L168.336 189.5842 L166.3452 186.5373 L168.9263 177.9531 L168.9108 168.9719 L167.1064 169.0419 L169.9685 163.4651 L170.0692 159.6637 L172.1074 157.5264 L172.8864 155.6724 L175.7494 155.5982 L176.4727 152.9485 L180.6651 151.5784 L186.2558 153.1598 L200.4043 148.2336 L201.0854 150.747 L201.0817 155.6496 L200.8821 161.6818 L204.4286 159.678 L207.9386 161.2608 L210.9309 160.448 L214.1232 161.2272 L215.5318 162.4296 L214.1738 163.3616 L203.3512 177.2538 L200.5828 187.9644 L196.4981 196.3629 L193.0973 198.6176 L195.6708 201.0636 L195.483 203.1928 L192.6813 206.3252 L191.2577 204.7697 L190.0956 202.4315 L188.3956 203.2898 L187.262 202.1061 L187.8326 198.9202 L190.5551 196.9565 L188.5282 194.2223 L188.3151 196.1845 L186.491 199.4732 L183.8046 202.9702 L180.5162 208.8367 L177.3173 215.7813 L175.1648 219.5885 L171.9289 227.9377 L169.027 232.0587 L162.387 230.3514 L160.2626 220.6209 L156.578 214.1852 M156.9766 366.1616 L156.9888 365.8878 L157.0633 365.5526 L157.3092 365.0184 L157.5635 364.0028 L157.8544 363.9158 L158.2451 363.8915 L158.2685 363.9093 L159.0616 364.4014 L161.5836 364.9563 L162.9983 364.952 L163.4428 364.855 L163.448 365.2494 L163.648 366.0568 L164.07 366.3385 L164.931 366.8427 L165.5517 367.0702 L166.7242 367.0039 L167.3397 367.2386 L167.4118 367.8761 L167.3106 368.5644 L167.2408 369.3332 L166.5996 369.3218 L164.8898 368.8896 L164.6322 368.4923 L164.7938 367.6401 L164.7347 367.0068 L163.8363 366.509 L162.7144 368.5437 L161.6 368.4332 L159.315 367.909 L158.3571 367.5816 L157.6952 367.2043 L157.1284 366.541 L156.9766 366.1616 M163.1814 294.779 L163.7042 294.1912 L165.9742 292.3651 L166.5284 292.4015 L169.8163 296.429 L169.6931 296.8292 L168.426 298.1731 L165.9686 299.2352 L164.9338 297.927 L163.871 296.1565 L163.3702 295.2377 L163.1814 294.779 M163.596 377.5797 L165.5058 377.5797 L166.6619 377.9313 L168.5211 378.5846 L169.6772 379.439 L170.28 380.2434 L170.28 381.6505 L170.1292 382.3537 L169.4762 383.0576 L168.6344 383.0398 L166.4731 381.5321 L165.1039 380.5451 L164.4125 379.0696 L163.596 377.5797 M164.2227 244.5484 L166.6202 237.5994 L166.7785 237.349 L169.398 237.4917 L169.6125 238.3093 L168.9544 242.5337 L168.4962 244.4214 L168.0522 247.4414 L167.9355 248.0678 L167.4484 248.4103 L167.0094 248.234 L166.7504 247.5135 L166.7289 247.0954 L166.7757 246.3884 L166.6595 245.9839 L165.3966 245.8298 L164.5492 245.6478 L164.2649 245.2876 L164.2227 244.5484 M165.3952 495.5686 L165.7063 495.0831 L166.4843 494.4321 L167.2015 494.0308 L168.2756 493.6415 L169.4425 492.9998 L169.8022 492.54 L169.8397 492.0809 L169.4294 491.5697 L169.2752 491.3009 L169.2434 491.0335 L169.4551 490.5758 L169.768 489.7467 L170.1348 488.884 L170.5653 487.7917 L171.1012 486.7615 L172.5655 484.192 L173.4443 483.0285 L173.9385 482.2898 L174.421 482.0966 L175.066 482.4046 L175.9092 482.9237 L177.6372 483.8006 L178.2644 484.299 L178.3904 484.7275 L178.3338 485.3641 L178.0054 485.7292 L177.2208 485.7976 L175.7771 485.2814 L175.2037 485.6037 L174.7606 486.2054 L174.8364 486.6867 L175.3508 487.7461 L175.4946 487.9842 L175.451 488.3079 L174.3329 489.5577 L174.0823 489.8344 L174.1821 490.2308 L174.2406 490.7569 L175.0458 491.7736 L175.3124 492.1885 L175.2637 492.5778 L174.0631 494.1177 L171.8886 495.8124 L169.0237 497.9377 L168.0175 498.9771 L167.5875 499.1304 L167.2132 498.8502 L165.3952 495.5686 M166.6281 272.5035 L167.0614 271.9678 L167.6165 271.6475 L168.0334 271.2244 L168.5539 270.7536 L168.745 270.3306 L169.3741 269.5844 L170.332 268.9666 L170.8136 268.5856 L171.5631 268.2239 L172.1046 267.6789 L173.9286 267.2394 L174.4439 267.1845 L175.0707 267.2294 L175.9363 267.0461 L176.2802 267.0547 L177.0966 267.5647 L178.6382 268.398 L179.844 268.826 L179.9156 269.6386 L179.8636 271.8372 L179.6187 274.6658 L179.2954 275.1145 L171.6727 274.6037 L169.1867 274.638 L168.6208 274.8071 L167.9177 274.546 L167.046 273.4737 L166.6281 272.5035 M166.971 255.5667 L167.0249 255.3726 L167.3467 255.1372 L167.8259 254.9959 L168.9174 254.9931 L169.2687 255.0523 L169.6411 255.5303 L169.8463 256.0575 L169.805 256.5412 L170.2618 256.8101 L170.5541 257.1026 L171.0286 257.495 L171.3476 257.6798 L171.6961 257.9224 L171.9392 258.1592 L172.3716 258.6928 L172.8915 259.2522 L173.3042 259.5126 L173.5825 259.8493 L173.642 259.9684 L172.9224 260.7803 L172.7145 260.8873 L172.6892 260.9009 L171.8511 260.1632 L171.1949 259.3777 L170.5189 258.7428 L170.3376 258.6429 L169.8842 258.6878 L169.6158 258.8519 L169.3858 258.827 L168.8124 258.2555 L168.0156 257.2111 L167.2966 256.213 L166.971 255.5667 M169.4181 235.4341 L169.6654 234.0107 L170.0266 232.4811 L170.2149 231.4102 L170.9897 230.3706 L172.2596 228.5078 L173.2119 226.5485 L174.0902 224.3924 L174.8201 222.2776 L175.786 219.3374 L176.453 217.8661 L176.8123 217.2183 L177.4283 217.3688 L177.8761 220.3441 L178.1094 220.1671 L177.8583 217.5722 L177.9482 216.4441 L178.286 215.5587 L179.2303 214.8594 L179.6922 214.6425 L180.0787 214.6768 L180.3719 214.8744 L180.5401 215.3232 L180.9143 216.8943 L181.6488 221.7675 L181.5359 222.1093 L181.2783 222.3419 L178.9966 222.6722 L178.7427 222.481 L178.3258 222.0286 L178.1909 220.5967 L177.9735 220.6602 L178.0283 222.0722 L177.8522 223.9451 L177.9712 224.8612 L177.6808 225.5383 L177.3566 226.109 L177.3852 226.8518 L177.1894 227.6444 L176.9716 228.3779 L176.275 229.6436 L175.778 230.4099 L175.3175 230.4891 L174.7137 230.2914 L174.5245 230.0075 L174.0129 229.8484 L173.5113 230.1808 L173.1904 230.651 L172.9918 231.7533 L173.0569 232.6509 L173.4682 233.2659 L174.1905 233.4328 L174.8542 233.8923 L176.1073 234.5358 L177.6822 236.4565 L178.567 237.2077 L178.8523 237.3604 L179.02 237.4346 L179.6266 237.3797 L180.9415 236.1497 L181.7519 235.5397 L182.5332 234.9083 L182.8831 235.1815 L183.1984 235.6217 L184.4023 236.7112 L185.0707 237.2242 L185.6141 237.8463 L185.4745 238.2244 L185.0979 238.4905 L184.7784 238.8287 L182.6428 240.8292 L180.5747 241.9979 L180.5363 242.3139 L183.4706 245.0072 L183.6963 245.4081 L183.4242 245.7791 L183.1623 246.2764 L182.7159 246.5418 L180.1803 244.8174 L178.3923 243.312 L175.3747 240.872 L174.9367 240.4547 L175.0561 239.8932 L175.3714 238.8494 L175.3986 238.2294 L174.6758 238.0446 L173.7174 238.0004 L172.4053 237.7757 L170.3999 236.8211 L169.976 236.4358 L169.4181 235.4341 M169.5226 367.2785 L170.0037 366.8071 L170.7335 364.9649 L170.9672 363.5834 L170.9775 362.7589 L171.0623 362.5393 L171.2872 362.4872 L171.8202 362.5985 L173.3853 363.46 L173.7689 363.8387 L173.7759 364.2003 L173.4714 365.4948 L173.1412 367.0588 L172.744 368.2049 L171.9837 368.2263 L170.8927 368.0908 L169.5366 367.7364 L169.5226 367.2785 M172.78 260.9201 L172.988 260.8131 L173.7075 260.0012 L174.0832 259.7901 L175.5883 258.3918 L175.8768 257.9288 L176.3101 257.393 L177.6306 256.1517 L178.0335 255.6722 L178.6078 255.1743 L178.9614 254.9802 L179.4257 254.5693 L180.2515 254.1127 L180.4136 253.9793 L181.1537 253.6454 L181.5973 253.7624 L182.173 253.6789 L184.4885 255.2171 L185.4089 255.9747 L185.6778 256.3407 L185.9996 256.9307 L186.0479 257.3823 L184.8721 258.2855 L183.5165 259.5511 L182.1866 260.7289 L180.1541 262.3648 L178.2963 264.3188 L177.5098 265.2298 L177.2137 265.4609 L172.78 260.9201 M175.4449 370.4508 L175.6557 369.8952 L176.0131 368.2499 L176.3584 366.3399 L176.565 364.9043 L176.9153 364.154 L177.3786 364.1839 L178.1361 364.6896 L179.1142 364.9756 L180.2716 365.611 L182.2114 366.2957 L182.7384 366.5432 L182.0329 368.2848 L181.639 369.0094 L181.0699 368.7741 L180.6159 368.4417 L180.1733 368.6057 L179.3118 370.6098 L178.6275 371.9142 L178.479 372.2723 L178.0644 372.1318 L177.5487 371.9149 L176.5903 371.4057 L175.7504 370.8216 L175.4449 370.4508 M176.6947 479.008 L176.9931 478.3428 L177.9136 476.7066 L178.4555 475.9872 L178.9516 475.1701 L179.8819 472.9299 L180.6305 471.0405 L180.8572 470.5086 L181.112 470.3945 L181.379 470.5435 L182.9843 471.5089 L184.131 471.7578 L184.9644 472.2526 L185.8661 473.3591 L186.6264 474.2853 L186.8114 474.8542 L186.4901 475.6264 L184.7466 477.5564 L182.9422 479.515 L180.6811 481.6175 L180.0023 481.7929 L179.5564 481.7023 L179.3203 481.3152 L179.1165 480.5744 L178.9413 480.1659 L178.5544 480.034 L177.2938 479.8472 L176.6994 479.6226 L176.6947 479.008 M176.9214 468.9222 L177.0207 468.1301 L177.2432 467.5219 L177.4526 466.8239 L177.5805 466.0994 L177.7107 465.4328 L177.2217 464.1437 L177.3051 463.7815 L178.0068 462.1965 L178.9319 460.7733 L179.4791 460.0853 L179.9812 459.9412 L181.4601 460.8346 L182.8995 462.22 L183.0302 462.7255 L181.527 466.3019 L180.5541 468.5386 L179.9704 470.3132 L179.064 472.5456 L178.3689 474.2183 L177.8831 474.4314 L177.6105 474.2439 L177.5112 473.824 L177.5248 473.019 L177.2475 470.8701 L176.9214 468.9222 M177.8527 266.2628 L178.048 265.645 L178.5385 265.3275 L179.3493 264.4515 L180.407 263.2223 L182.7351 260.8566 L183.8842 259.9064 L185.4942 258.7007 L186.5758 257.7276 L187.9216 256.6639 L189.4786 255.628 L190.5481 255.0195 L191.0334 254.8004 L191.5313 254.3974 L192.0841 254.0649 L192.8172 253.7253 L193.3535 253.4078 L193.939 253.0076 L194.3077 252.9455 L194.615 253.4193 L194.9616 254.6135 L195.2286 257.0056 L196.0371 259.3449 L197.3305 260.7004 L197.546 261.2069 L196.0484 263.9129 L195.1317 265.3996 L194.6782 265.9774 L194.11 266.2478 L193.3263 266.2378 L192.9989 265.6243 L192.4635 265.7213 L192.3464 265.8483 L191.5543 266.093 L189.5653 266.867 L187.8185 267.8394 L187.4817 268.1932 L186.602 268.5021 L186.1261 268.383 L185.5949 268.3302 L184.999 268.3645 L184.4177 268.5007 L183.6636 268.7397 L182.7051 269.1164 L177.8527 266.2628 M180.1691 273.7762 L180.2117 273.3097 L180.2787 272.8788 L180.3119 272.0769 L180.3218 271.2458 L180.4806 269.8355 L180.7874 269.4995 L186.2151 274.4753 L186.2521 274.7693 L186.0582 274.9925 L185.5476 275.2715 L184.2364 275.4099 L182.8668 275.3228 L181.527 275.2643 L180.6197 274.9747 L180.2178 274.4297 L180.1691 273.7762 M181.9646 210.268 L182.729 208.5306 L182.4672 207.7451 L182.4958 207.1036 L183.6706 204.4786 L183.9357 204.4793 L186.3781 205.9085 L187.3506 205.9292 L187.9178 205.8728 L188.576 206.3159 L188.6261 207.0216 L187.8457 208.308 L184.9147 213.2505 L184.5494 214.574 L184.3517 216.7937 L184.2936 217.8262 L183.8786 218.8907 L183.2832 218.977 L182.5328 218.5218 L182.611 217.8561 L182.7412 217.1191 L183.2326 216.0389 L183.4851 213.7364 L183.6762 212.8203 L183.6926 212.2609 L183.701 211.2869 L181.9646 210.268 M183.7029 270.2243 L184.5583 270.0616 L187.4311 269.4574 L188.1684 269.4153 L188.3052 269.6029 L188.3066 269.8818 L188.3966 270.7308 L188.8036 271.6311 L189.4786 272.9073 L189.6782 274.2913 L189.5887 274.5695 L189.4426 274.8563 L189.1554 274.8791 L188.7582 274.7643 L183.9081 270.7065 L183.7029 270.2243 M184.8768 66.593 L185.1232 65.503 L185.8507 64.4858 L186.6137 63.2688 L186.6723 62.9997 L186.4966 61.3315 L186.1992 59.714 L186.2259 59.4499 L186.3388 59.3357 L186.461 59.285 L186.6236 59.0666 L186.7271 58.6604 L186.9304 58.5005 L187.2203 58.4912 L187.5473 58.7368 L187.6251 59.0516 L187.3834 60.5192 L187.1407 61.5314 L187.2325 62.1695 L187.4775 62.5243 L188.7919 62.6599 L189.1278 62.9697 L189.2693 63.5022 L189.2332 66.5673 L189.1559 68.1819 L188.9535 71.2719 L188.4692 73.9793 L188.1221 74.713 L187.5211 75.4839 L187.0915 75.8715 L186.9154 76.2227 L185.7598 76.0649 L185.504 74.0635 L185.3359 69.0734 L185.1171 68.4538 L184.9208 67.7657 L184.8768 66.593 M189.0271 269.0058 L189.0997 268.597 L189.2173 268.2204 L190.1007 267.9364 L190.5336 267.7574 L191.3528 267.5219 L192.329 267.1667 L192.6771 267.4727 L192.782 268.1126 L192.9291 268.5514 L193.3615 269.2162 L193.6224 270.8057 L193.8369 272.5221 L194.2164 273.3553 L194.3002 274.4382 L194.4829 275.0339 L194.1381 275.4213 L191.7028 275.4441 L190.8596 275.183 L190.5879 274.8656 L189.0271 269.0058 M193.4392 267.2459 L193.5512 266.9897 L193.8224 266.9441 L194.0608 267.3436 L194.3897 267.6525 L197.0799 268.9223 L197.4228 269.508 L198.2734 274.0252 L198.4247 275.0332 L198.2734 275.4184 L197.9919 275.7509 L196.8208 275.875 L195.8053 275.5097 L195.2591 274.9476 L195.0488 274.2064 L194.8487 273.3546 L193.7212 269.0265 L193.5802 268.3145 L193.4823 267.726 L193.4392 267.2459 M198.1039 268.8974 L198.2125 268.5314 L198.7836 268.6819 L199.17 268.7169 L199.4515 268.968 L199.8371 269.1777 L200.239 271.7894 L201.1449 274.9833 L201.4677 275.656 L201.5885 276.1375 L201.136 276.313 L200.5495 276.236 L199.5335 275.9099 L199.4234 275.0575 L199.3785 274.6102 L199.3499 273.1106 L199.4876 272.4037 L199.7106 271.6653 L199.5677 270.5838 L198.1975 269.324 L198.1039 268.8974 M207.6102 353.475 L207.992 353.0314 L208.7246 352.3289 L209.4998 351.4331 L209.8343 351.1513 L210.3224 351.1321 L212.2359 352.3068 L212.9718 352.0315 L214.2071 350.829 L214.9369 349.7513 L215.6344 348.6265 L216.5347 347.6544 L216.8832 345.4975 L217.4519 343.9248 L218.1068 343.9862 L218.9158 344.3999 L220.1206 345.1844 L221.2603 345.9661 L221.6865 346.3256 L221.9193 346.6865 L222.0758 347.0531 L220.7075 349.0844 L218.1489 353.8873 L217.2697 354.4678 L213.6661 359.5509 L212.7297 359.6864 L211.931 359.0766 L210.9173 358.4975 L209.7369 357.4313 L208.8108 356.1589 L207.8955 354.1533 L207.636 353.8345 L207.6102 353.475 M213.192 138.3118 L215.1899 136.2322 L215.9 135.7712 L216.9099 135.592 L217.3353 135.4001 L217.7606 134.9811 L218.1489 134.5337 L222.1053 133.2448 L224.6409 132.6503 L227.0023 131.567 L228.4043 130.4822 L228.6488 130.6549 L229.0535 130.4601 L229.7843 131.2872 L229.8845 131.7611 L229.7403 132.1072 L229.6798 133.7115 L229.559 134.4452 L229.6278 134.9233 L229.8738 135.7341 L229.4845 138.1997 L228.7373 140.8795 L228.453 141.3762 L228.0815 141.4954 L227.7461 141.4133 L227.2702 141.0265 L226.97 140.517 L226.5999 138.6172 L226.4181 138.4809 L226.056 138.4352 L225.1056 138.8006 L224.3219 138.9791 L223.5204 139.0304 L222.8361 138.7714 L221.7671 138.7628 L220.7989 139.2288 L219.4334 140.5334 L216.2406 143.3066 L215.892 143.3573 L215.5112 143.1846 L213.192 138.3118 M213.4328 454.5665 L213.7701 453.7658 L214.1734 452.8011 L215.2367 451.39 L216.4003 449.7835 L218.3621 447.0769 L219.0727 446.4494 L219.7341 446.289 L220.2976 446.3888 L221.064 446.8672 L222.6253 447.5739 L224.0352 448.4844 L224.432 448.9065 L224.1317 449.9119 L223.6619 450.2877 L223.0468 450.2342 L222.2622 450.1657 L221.8556 450.4837 L221.3746 451.5383 L221.3188 451.9611 L221.4097 452.2328 L223.3635 452.8852 L223.5359 453.1854 L223.5907 453.5676 L223.2225 455.0521 L221.8608 457.7216 L221.1324 459.4179 L220.3468 461.2282 L220.1529 461.579 L219.8362 461.6246 L219.3786 461.3658 L218.7256 460.4225 L218.2801 459.3487 L218.2436 458.4624 L218.074 457.9148 L217.9016 457.6147 L217.4257 457.4557 L216.671 457.4984 L215.8063 457.3252 L214.7809 457.2018 L213.9045 456.3184 L213.4806 455.425 L213.4328 454.5665 M213.4426 43.2288 L213.593 43.1425 L213.7771 43.0375 L215.7407 44.4588 L217.7601 45.7751 L218.5078 46.4775 L219.0015 46.6267 L220.299 46.4326 L221.0017 46.6417 L221.5849 46.8751 L222.6051 47.7653 L222.8609 47.7032 L223.2103 47.6125 L223.6319 47.3962 L227.0365 49.0823 L227.4403 49.6855 L229.6367 51.9476 L232.3733 53.6344 L232.9668 54.3961 L231.7643 58.185 L231.5512 58.2807 L230.9985 58.2628 L228.7645 57.5412 L227.9972 56.9258 L228.1495 55.9186 L228.6938 54.8472 L228.8947 54.2669 L228.8769 53.154 L229.0671 52.498 L229.0048 51.9748 L228.705 51.7328 L228.2164 52.1147 L227.4623 55.1427 L226.6135 55.9015 L224.2268 54.4496 L223.95 53.9649 L222.8492 53.326 L222.1906 52.7022 L219.6648 52.8078 L219.0914 52.0611 L218.7401 51.418 L218.5181 51.1531 L218.0089 50.0874 L217.0285 49.1216 L216.2185 47.6911 L214.8802 46.339 L213.4426 43.2288 M214.2441 131.2423 L214.9018 130.6014 L215.7745 129.4966 L216.8317 128.8921 L218.2351 128.3505 L219.0535 127.6489 L220.8373 126.7518 L221.5502 126.2344 L222.5869 125.8776 L223.2459 126.0267 L223.5246 126.0139 L225.0068 127.9123 L226.2228 129.0848 L227.3723 130.3773 L227.2744 130.8233 L225.0653 131.7639 L224.0291 132.1201 L221.88 132.5633 L220.3182 132.7895 L217.9344 132.6453 L215.2985 132.4434 L214.3472 131.9602 L214.2441 131.2423 M218.7303 468.6313 L219.0193 467.9368 L219.2849 467.134 L219.5421 466.1379 L220.0873 465.2175 L220.4208 464.4367 L220.7806 463.7501 L221.6397 461.2175 L222.851 457.9519 L223.8671 456.0261 L224.9037 453.2168 L225.3145 453.0521 L226.9999 453.1982 L229.172 453.6161 L231.4055 453.9669 L235.3759 454.5059 L236.9639 454.7562 L237.9359 455.0036 L238.2966 455.4442 L238.5224 456.163 L238.3931 457.2375 L238.5055 457.7066 L239.0344 458.6863 L239.4522 459.1241 L239.8476 459.8507 L240.1675 460.3683 L240.4106 460.9352 L240.1792 462.245 L239.715 462.5929 L239.9103 463.5662 L239.0995 466.0089 L238.4343 466.3711 L238.3074 467.1925 L238.6573 467.8285 L238.2259 469.2316 L237.8235 470.3845 L237.6366 470.6127 L236.8178 470.5756 L231.9147 469.5361 L227.37 468.0695 L225.5843 467.2395 L224.9955 466.56 L224.7028 465.9162 L223.549 465.1241 L222.7063 465.2588 L222.3166 465.4905 L221.9933 465.939 L221.5779 466.8531 L221.2574 467.3222 L220.6794 468.0238 L220.4175 469.2181 L220.3843 470.3303 L220.1801 471.0205 L219.7009 470.967 L219.3992 470.1749 L218.8399 469.1682 L218.7303 468.6313 M222.5428 38.3904 L222.8407 38.2562 L223.3434 38.4282 L225.1539 39.9894 L225.6583 40.796 L225.7769 41.1694 L225.9727 41.5513 L226.1188 42.0753 L226.4092 42.4129 L226.4954 42.5635 L226.428 42.7684 L225.1782 43.3074 L224.038 42.1295 L223.9551 41.6876 L223.8816 41.043 L223.2417 39.7867 L222.8646 39.3683 L222.5428 38.3904 M225.6804 411.6579 L225.7998 411.1423 L226.6908 410.7801 L228.4497 410.2987 L229.5505 410.0484 L230.1098 409.7147 L230.3047 408.7798 L230.1567 408.471 L229.7492 408.1087 L229.5299 407.6609 L229.6452 407.2944 L230.1422 407.2487 L233.3551 407.2252 L233.5828 407.5989 L233.3762 408.8482 L233.4287 409.6619 L233.7116 410.7744 L233.8606 412.5279 L233.8282 413.9641 L233.3434 415.1293 L232.8277 415.5864 L230.9216 415.7197 L228.9669 415.237 L226.4523 414.1958 L226.264 413.9655 L225.9577 413.6396 L225.7314 412.6876 L225.6804 411.6579 M229.8278 405.1172 L229.944 404.4255 L234.211 395.8929 L234.5763 395.6233 L236.2678 394.8382 L236.8337 394.8374 L236.6285 396.2181 L236.2444 399.7317 L235.9409 403.6111 L234.5065 404.8726 L233.3458 405.4189 L232.0979 405.7341 L230.7867 406.1676 L230.4139 406.383 L229.9084 406.0514 L229.8278 405.1172 M233.0638 234.0778 L233.3153 233.4243 L233.9533 233.3922 L236.6674 233.9444 L239.3309 234.8491 L243.3013 236.3067 L241.1906 236.6084 L238.8789 236.1055 L237.8235 236.0056 L236.2149 236.2061 L234.5567 235.6032 L233.4156 234.8319 L233.0638 234.0778 M243.8691 381.08 L244.4223 379.9239 L246.0304 378.9191 L247.7893 378.3664 L249.7844 378.5846 L250.3877 381.6505 L248.6939 381.985 L247.3219 382.5548 L245.814 382.5548 L244.3216 382.0848 L243.8691 381.08 M244.745 405.9259 L245.3301 404.7856 L245.8074 404.198 L246.1171 403.6546 L246.3649 403.1326 L247.4366 401.3776 L249.1515 399.5548 L249.4082 399.0064 L249.501 398.662 L250.6688 397.4868 L251.3204 397.3434 L251.8689 397.3413 L252.7538 398.192 L253.3852 398.4958 L253.6471 398.3867 L253.7773 398.1214 L253.7183 397.5795 L253.9375 397.081 L254.4158 396.902 L254.8781 397.1523 L255.0392 397.4204 L255.2177 397.8091 L255.2842 398.6741 L255.1624 398.9965 L255.0341 399.4942 L254.3151 401.0745 L253.9736 401.7791 L253.2152 403.8714 L252.8938 404.961 L252.9215 405.3326 L253.1098 405.61 L251.9574 408.0182 L251.7724 408.2585 L249.8565 407.6031 L249.3192 409.5271 L248.685 409.7418 L247.2151 409.2676 L246.5771 408.7384 L244.745 405.9259 M245.0102 247.2631 L246.1812 245.386 L247.8245 244.5491 L248.1262 244.2474 L249.1815 244.9009 L249.1815 246.7101 L248.277 248.4188 L247.2211 248.9717 L245.5779 248.401 L245.0102 247.2631 M249.7717 410.1903 L250.1217 408.3091 L252.4404 408.6151 L252.8779 407.5654 L257.3406 408.7905 L257.2966 412.903 L256.2028 415.1343 L255.4154 415.3532 L252.1781 412.7283 L249.7717 410.1903 M251.2342 155.2714 L251.986 151.8239 L252.416 150.3738 L252.7453 148.9793 L254.9165 150.6628 L255.251 150.8398 L255.4426 151.1816 L255.6098 151.669 L256.1213 151.9002 L256.364 152.1785 L257.9534 154.3901 L257.8484 154.6969 L257.7131 154.9695 L257.4606 155.0794 L257.2338 155.0801 L256.6764 154.8025 L256.3546 154.5885 L256.0272 154.3365 L254.9858 153.4452 L254.6134 153.194 L254.3493 153.2447 L254.3183 153.705 L254.4546 153.9783 L255.9049 155.2957 L255.7316 156.877 L255.7555 157.8069 L255.6824 158.2001 L255.3587 158.8238 L255.0603 158.9965 L254.3085 159.0728 L253.7323 159.202 L253.3164 159.4111 L253.0672 159.7001 L252.921 159.9613 L252.8353 160.5179 L252.5725 161.2493 L251.9279 161.3107 L251.705 161.0188 L251.7448 160.555 L251.4375 158.4184 L251.2342 155.2714 M252.7552 148.7603 L253.804 146.1177 L253.9642 146.1284 L254.093 146.3946 L257.32 149.9085 L257.462 150.2625 L257.3955 150.5907 L257.0249 151.0881 L256.6436 151.2002 L256.282 151.2066 L256.1869 151.0953 L255.1971 150.5222 L253.7984 149.314 L253.2395 148.8944 L252.9936 148.9194 L252.7552 148.7603 M256.1541 416.5391 L256.2497 416.1241 L256.8549 415.6769 L257.1434 415.0615 L257.076 414.6829 L257.0259 414.5602 L258.0447 413.0656 L258.3389 412.7311 L258.6546 412.6341 L259.0261 412.7033 L259.3455 412.9486 L259.8107 413.082 L260.3124 412.9771 L261.4619 413.2453 L262.5735 413.7901 L264.0383 414.9004 L264.9569 415.5835 L265.2398 416.2032 L265.5105 417.0176 L265.6342 417.8776 L264.6571 420.0126 L262.9389 422.616 L262.2746 423.5252 L260.792 425.119 L259.798 426.1572 L259.0518 426.7633 L258.7361 427.127 L257.8953 427.3908 L257.3186 427.4222 L256.7771 427.3388 L256.3082 426.9081 L256.2286 426.3554 L256.4324 425.8406 L256.6975 425.3942 L256.9654 425.0569 L257.2765 424.8373 L258.8157 422.6068 L260.4262 420.2201 L260.4632 419.9127 L260.3798 419.5105 L260.1601 419.1084 L259.9048 418.724 L259.4659 418.4573 L258.7567 418.3332 L257.5735 417.7399 L256.4769 417.2115 L256.2099 416.8357 L256.1541 416.5391 M260.3901 333.9935 L260.4529 333.5306 L260.9152 333.1148 L260.8792 332.4065 L260.7349 331.4036 L260.8543 330.6148 L264.0992 331.3901 L265.5105 331.8673 L265.8043 331.9935 L266.3294 332.1326 L267.18 332.4151 L267.6396 332.5106 L267.7197 332.9336 L267.462 333.256 L267.069 333.5327 L266.0858 333.8373 L265.5757 333.8074 L265.3405 334.3016 L265.5162 334.6747 L264.6711 335.5035 L264.1301 335.9956 L263.5445 336.1611 L263.1675 336.0541 L262.5369 335.7567 L261.2263 334.9543 L260.5724 334.4529 L260.3901 333.9935 M266.0211 384.255 L266.083 383.7437 L266.2886 382.3651 L266.5922 381.8923 L266.8231 381.612 L267.1079 381.6619 L268.0766 382.4322 L268.3755 382.4864 L268.8191 382.4186 L269.4725 380.6692 L270.1044 380.8461 L273.1492 382.2075 L273.7282 382.5056 L275.1176 383.7237 L276.2994 384.0739 L278.6716 384.1537 L280.1626 383.7651 L280.4619 382.9706 L281.0306 382.4799 L282.1862 382.2482 L283.3526 382.0777 L285.5285 382.3687 L285.9229 382.6368 L286.032 382.9463 L286.1285 383.5183 L281.7688 391.1648 L281.099 392.0327 L280.3312 392.3258 L278.7966 392.2224 L277.4288 391.9321 L275.5809 390.9957 L275.2005 391.0507 L274.9522 391.3466 L274.8895 391.8116 L275.0637 392.3051 L275.1626 392.5853 L275.9509 393.3862 L275.4099 394.2933 L275.2525 394.5044 L274.8581 394.8139 L273.2293 393.3263 L268.2911 388.6466 L266.3326 386.7183 L266.083 385.406 L266.0211 384.255 M273.6533 214.8116 L274.0168 214.1952 L274.3723 214.1053 L275.3626 214.6097 L276.8236 214.5669 L277.6363 214.8709 L278.0757 215.229 L278.8116 216.1659 L280.1551 217.0156 L280.9313 216.8387 L281.6007 216.2815 L281.7426 216.0988 L282.8064 216.6646 L282.8125 216.6989 L282.3605 216.8908 L282.6186 217.301 L282.5399 218.4655 L282.3956 218.9471 L280.4919 218.6845 L277.4827 219.1518 L276.039 219.3152 L275.4605 219.0227 L274.8117 217.9239 L274.1348 217.2632 L273.7446 216.4384 L273.6655 215.3482 L273.6533 214.8116 M276.4222 191.2525 L277.3267 190.0466 L279.2112 188.9156 L280.6535 189.2902 L281.2568 189.4408 L281.4227 189.1668 L282.4879 189.064 L283.1666 189.2652 L284.3625 188.7144 L284.8652 189.0918 L284.9659 191.8554 L283.4833 192.7352 L282.3525 190.5996 L281.8752 190.2728 L281.5482 191.3031 L280.9955 190.8757 L280.2263 192.5062 L277.8293 193.8155 L277.2611 193.1848 L277.412 192.4562 L276.4222 191.2525 M278.0856 363.9222 L278.3535 363.4044 L279.4084 362.3381 L281.2086 360.7042 L283.4706 358.7771 L284.9284 357.1709 L285.9355 355.8536 L288.2163 353.679 L289.0323 353.8716 L290.4859 354.9963 L290.7257 354.8644 L291.0199 354.3487 L291.5768 351.4373 L293.0791 349.5551 L294.408 348.2242 L296.3707 347.0296 L297.2954 346.7685 L298.2023 346.6052 L299.2394 347.2129 L300.5402 348.2628 L300.5862 348.6707 L300.0376 350.8789 L298.0281 356.6995 L298.0421 357.0226 L297.4261 359.4867 L296.767 360.5252 L295.8321 363.4714 L294.9041 366.2401 L294.4502 368.0302 L294.1846 368.8818 L293.674 369.6064 L292.7671 371.4542 L289.9734 376.4708 L289.5808 377.1105 L289.134 376.9678 L286.9665 375.4609 L286.2086 374.3612 L285.5594 373.2194 L285.5317 372.8 L286.5787 370.8594 L286.8129 370.2404 L286.7309 369.8945 L285.5912 368.8711 L285.1186 367.8334 L285.1354 367.0503 L285.379 366.121 L285.1237 365.6203 L284.7382 365.1881 L283.9185 364.6561 L283.0795 363.9963 L282.7174 363.9514 L280.58 365.9519 L280.3265 365.989 L279.9504 365.8478 L279.414 365.3436 L278.8304 364.9684 L278.45 364.6332 L278.1413 364.2189 L278.0856 363.9222 M279.2988 337.1233 L279.452 335.7603 L279.5358 335.4001 L279.9701 335.1404 L280.5045 334.4093 L281.3388 333.8737 L282.1403 333.7225 L284.044 332.7831 L284.5096 332.6504 L285.0656 333.1469 L287.9924 332.8116 L288.6093 333.731 L289.312 333.5634 L290.1298 333.1861 L290.4905 332.8166 L291.0133 332.8123 L291.211 333.3345 L292.0762 334.6347 L292.7062 335.736 L292.7198 336.455 L292.9807 337.0634 L292.9442 337.4386 L292.19 337.6311 L291.4541 337.5891 L290.8751 337.4264 L290.543 336.6076 L290.1743 335.4735 L289.9003 335.2282 L289.437 335.0163 L288.741 335.5249 L286.8045 337.1475 L285.9116 337.8651 L285.2357 338.2866 L283.9199 338.9307 L282.7024 339.4321 L282.3989 339.3458 L282.1272 336.5548 L281.9468 336.5334 L281.6522 336.5955 L281.4943 336.7995 L281.5327 337.7852 L281.4798 338.4086 L280.7636 338.7688 L280.1935 338.8515 L279.822 338.7424 L279.341 338.0962 L279.2988 337.1233 M282.0335 215.7392 L282.0677 215.132 L282.4715 214.6062 L282.9989 214.452 L283.6589 214.8174 L284.0927 215.2733 L284.4473 216.1223 L284.9382 216.3435 L285.5472 215.9504 L286.818 214.7624 L287.2368 214.2159 L287.6013 214.0075 L287.9376 213.705 L288.6276 213.6386 L290.6723 213.745 L292.3568 213.6379 L293.8408 213.3975 L294.8423 213.1306 L295.173 213.1806 L295.1463 213.4446 L294.3195 214.4428 L294.0253 214.6483 L293.74 214.6889 L293.1531 214.5919 L292.7371 214.6654 L291.7717 215.3967 L291.292 215.6614 L291.1562 215.8434 L291.0616 216.0852 L291.0714 216.6047 L291.181 217.1419 L291.4986 217.3239 L291.6804 217.6878 L291.6181 219.2025 L291.4391 219.5329 L291.1449 219.8154 L290.2849 219.9074 L290.2343 219.5571 L290.342 218.9556 L290.3997 218.2314 L290.2488 217.4066 L290.1078 217.102 L289.7087 216.6197 L288.7836 216.2543 L287.8678 215.9975 L287.2537 216.3749 L286.2592 217.3324 L285.6709 218.0823 L284.9354 217.9903 L284.3335 217.5779 L283.8552 216.9928 L283.1713 216.3721 L282.3722 216.1637 L282.0335 215.7392 M285.0165 178.3877 L285.2933 177.3444 L285.2179 176.5402 L285.0418 175.0453 L285.268 174.6685 L285.9969 174.8569 L286.5745 174.7563 L286.989 174.9325 L286.989 175.2215 L286.9263 176.1007 L286.6372 177.784 L286.4363 178.8144 L285.9842 179.1284 L285.3781 178.7359 L285.0165 178.3877 M286.5506 344.2907 L286.6213 343.6132 L286.737 343.4284 L287.8191 342.462 L288.5035 343.6267 L289.0379 343.1667 L288.2566 342.0875 L288.4768 341.9135 L290.5791 341.6161 L291.2649 341.8928 L291.8096 342.1767 L291.9703 342.5747 L291.2859 343.0568 L289.8085 343.9434 L288.6744 344.8899 L287.123 346.0068 L286.7927 345.4226 L286.5506 344.2907 M287.5249 212.3072 L287.6359 211.9997 L289.1785 211.446 L289.9387 210.8888 L290.625 209.6851 L290.9454 209.2156 L291.1937 208.6919 L291.4489 208.2659 L291.5286 207.4247 L291.2606 206.7761 L291.3361 206.0847 L291.5328 205.648 L291.7183 205.5888 L291.9586 205.4247 L292.3839 205.4925 L292.8322 205.4604 L293.733 205.1999 L294.0178 205.1593 L294.4942 205.3947 L294.7027 206.3951 L294.7298 207.8892 L295.2845 208.5998 L295.633 209.4504 L295.774 209.9498 L296.3689 210.938 L296.8115 211.4082 L298.2974 211.0807 L299.5013 210.4493 L299.2858 208.7404 L299.1036 208.0997 L298.6 207.5531 L298.0782 207.2171 L296.7286 206.6598 L296.1782 206.4094 L295.6358 205.9627 L295.5983 205.5203 L295.6484 205.3769 L295.8484 205.2378 L296.5689 205.3476 L301.2546 205.9349 L305.3698 206.3708 L306.8224 206.582 L307.2262 206.6641 L308.9102 206.7668 L309.8882 206.7811 L311.0322 206.9595 L315.8785 207.8992 L317.6876 208.3894 L318.8826 208.7875 L319.8653 209.0151 L320.1061 209.3433 L320.352 210.0205 L320.6903 211.3847 L320.7221 211.7885 L320.5479 212.0297 L319.6471 212.0625 L317.7401 211.8492 L313.3977 211.4596 L310.4832 211.1478 L308.2441 210.856 L304.7008 211.065 L302.785 211.0165 L301.9835 211.0672 L301.3815 211.1535 L300.6119 211.1999 L299.8465 211.2784 L296.901 211.6244 L296.6645 211.8713 L295.4512 211.9819 L294.6048 212.3272 L293.933 212.4178 L292.8116 212.298 L292.131 212.5163 L291.0363 212.6811 L289.8811 212.5563 L289.1068 212.5648 L287.7324 212.4913 L287.5249 212.3072 M289.0867 172.6576 L289.6647 169.8432 L290.328 168.8856 L291.9867 168.3326 L293.5096 167.883 L293.9466 168.4838 L294.1879 170.3955 L293.9719 171.5244 L292.3132 173.1578 L291.2077 173.6852 L289.4614 173.5246 L289.3733 173.484 L289.0867 172.6576 M295.3322 263.3593 L295.5772 261.3746 L296.2808 259.1009 L296.4757 258.8612 L297.7948 259.188 L298.2032 259.88 L298.6679 260.7846 L299.0951 262.7571 L299.1143 265.4324 L298.5237 266.9655 L298.4609 267.5933 L298.2093 267.3172 L297.6945 265.8348 L296.8528 264.754 L295.3322 263.3593 M296.4686 219.2268 L296.5525 218.6838 L296.5277 218.4669 L296.7408 218.2871 L297.5863 218.0088 L298.1189 217.6664 L298.3339 217.1248 L298.2009 215.9725 L298.3944 214.9494 L298.1606 213.4396 L298.2323 213.0386 L298.2997 212.8338 L298.3948 212.8203 L299.4952 212.8238 L304.3397 212.3194 L306.1071 212.3572 L307.199 212.1738 L308.3607 212.161 L308.8333 212.1253 L309.4802 211.9933 L310.8809 212.1146 L311.6608 212.2352 L312.2913 212.1703 L313.2211 212.1653 L313.7462 212.3101 L315.4747 212.5898 L315.6172 212.6034 L316.5592 212.5456 L318.9486 212.9394 L320.6851 213.1485 L321.7616 213.3497 L322.2787 213.8513 L322.2604 214.3536 L321.8843 215.1534 L321.821 215.3889 L321.5681 215.7435 L320.9315 215.9454 L319.0128 216.0574 L314.774 215.8234 L312.3424 215.7841 L310.0695 215.9497 L306.9638 216.3985 L304.4109 217.0927 L302.287 217.7962 L298.8314 219.4608 L297.9957 219.7326 L297.3507 219.7412 L296.4686 219.2268 M297.2631 325.1126 L297.4074 324.5484 L297.6805 324.0862 L298.1086 323.7388 L298.7124 323.5804 L299.7809 323.0112 L300.5908 322.4542 L300.6789 322.1104 L300.9394 321.36 L301.5535 320.7152 L302.0139 320.5861 L302.3573 320.6174 L302.7292 320.1032 L302.9513 319.5789 L303.341 319.0318 L303.8961 318.6908 L304.254 318.1659 L304.4249 317.4675 L304.8807 316.8185 L305.3974 316.1408 L306.1572 316.2578 L306.9582 316.9782 L308.1419 318.3363 L308.2679 318.5931 L309.0647 320.218 L309.5875 321.3964 L309.6189 321.467 L309.4062 322.2017 L309.2217 322.8393 L309.1313 322.8251 L308.9504 322.7958 L308.3893 321.9099 L307.7456 321.9185 L307.1268 322.4228 L306.3389 323.258 L305.2836 323.9242 L304.8358 323.8814 L304.4109 324.2538 L303.8221 324.8315 L303.4426 325.0676 L302.955 325.0926 L302.481 325.0541 L300.5623 325.3537 L300.0423 324.7952 L299.7013 324.5263 L298.9701 324.6967 L298.1681 325.1432 L297.3488 325.3943 L297.2631 325.1126 M301.0738 336.1012 L301.1263 335.614 L301.3736 335.0862 L302.1029 333.7753 L302.0102 333.3095 L301.7896 332.7196 L301.946 332.1911 L303.6525 328.8665 L303.8558 328.1247 L304.0376 327.2752 L304.3102 326.251 L304.6676 325.4999 L305.2765 325.1525 L305.6569 325.2338 L305.9117 325.3915 L306.22 325.8258 L306.3174 326.2331 L306.2907 326.8137 L306.1694 327.4985 L306.241 328.1754 L306.1998 328.5199 L306.1792 328.6897 L305.7979 329.8594 L305.5646 330.3138 L305.1674 331.1818 L304.7275 332.3922 L304.3786 332.7988 L303.7883 333.0527 L303.4272 333.4158 L303.1185 333.8295 L302.8548 334.3345 L302.6627 335.47 L302.3751 336.0755 L302.1006 336.3223 L301.746 336.5099 L301.256 336.425 L301.0738 336.1012 M351.7875 120.5049 L351.9243 119.9939 L352.2629 119.1996 L352.7557 118.2661 L354.1156 118.6408 L355.6492 119.2317 L359.5503 120.2637 L362.6818 121.3414 L365.5781 122.5839 L370.5687 124.007 L371.2901 124.1233 L372.0363 124.6836 L372.538 125.3894 L373.592 126.3436 L374.8422 126.7811 L376.0339 126.6519 L376.6134 126.405 L376.9937 125.3102 L376.9872 124.9027 L377.9039 124.8484 L378.755 124.7449 L379.3729 124.6365 L380.8025 124.508 L384.0712 124.3089 L387.0275 124.5044 L390.6115 124.882 L391.8706 125.2774 L391.8486 125.8262 L391.8078 126.8396 L391.79 127.2864 L392.1062 127.6668 L392.6046 128.2648 L392.9742 128.5517 L397.9551 132.4134 L400.3113 133.9663 L400.5478 134.2425 L400.5755 134.6614 L400.2953 135.1902 L400.0147 135.4914 L399.7435 135.6277 L398.4994 134.8113 L393.9973 132.1736 L391.9367 131.375 L390.492 130.6792 L389.654 130.7027 L385.2264 130.6963 L383.578 131.0574 L382.4425 131.163 L380.1327 131.5548 L378.3419 131.5534 L375.4999 130.894 L373.065 128.9614 L371.3688 128.0086 L365.2694 126.6776 L361.4643 124.9384 L359.6477 123.6773 L357.5286 122.7837 L355.2023 121.8874 L352.2405 121.0702 L351.9505 120.7419 L351.7875 120.5049 M392.57 126.2786 L392.6534 126.1216 L392.8094 125.8297 L393.0309 125.752 L393.8999 126.0603 L394.8873 126.1195 L395.8396 126.4035 L396.9639 126.8967 L397.4679 127.1672 L398.4563 127.9715 L399.9717 128.8029 L401.2514 129.9733 L403.3458 131.6876 L404.3473 132.1329 L405.3638 133.2155 L407.8872 136.0995 L409.0836 137.6674 L411.0168 139.8326 L410.962 140.6247 L410.576 141.18 L409.9239 141.5011 L409.3702 141.5161 L408.343 140.9316 L407.8446 140.4328 L406.7845 139.8012 L406.2838 139.2831 L406.235 138.9584 L406.0519 138.1177 L405.8167 137.3348 L405.0911 136.5119 L403.2268 135.2316 L400.7216 133.7643 L400.5656 133.6466 L394.4929 129.067 L393.0464 127.7781 L392.8464 127.2864 L392.6285 126.8946 L392.57 126.2786 M395.8101 153.0656 L397.0458 152.489 L399.1856 151.7689 L401.2078 150.5436 L402.5401 149.9627 L403.5537 149.3233 L404.5431 148.8759 L405.4059 148.447 L407.2946 147.8418 L407.7888 147.8896 L406.933 150.0812 L406.3058 150.8912 L406.102 151.3614 L406.1334 153.4766 L405.0274 153.8306 L402.7181 154.4486 L401.4449 154.4058 L400.0358 154.4529 L399.5744 154.3444 L399.2147 153.9105 L398.4535 153.6957 L397.4407 154.1139 L395.9394 154.2202 L395.8101 153.0656" stroke-dasharray="" fill="none" fill-opacity="1.0" stroke="#ff0000" stroke-opacity="1.0" stroke-width="1.0px" stroke-linecap="butt" stroke-linejoin="miter" stroke-dashoffset="0.0px"/>
</g>
</svg>