<?xml version="1.0" standalone="no"?>
<!DOCTYPE svg PUBLIC "-//W3C//DTD SVG 1.1//EN" "http://www.w3.org/Graphics/SVG/1.1/DTD/svg11.dtd">
<svg width="512px" height="512px" version="1.1" xmlns="http://www.w3.org/2000/svg" xmlns:inkscape="http://www.inkscape.org/namespaces/inkscape">
<g id="layer" inkscape:groupmode="layer" inkscape:label="layer">
<path d="M0.0 330.2641 L1.4635 330.2223 L3.6908 335.6146 L2.552 338.2166 L4.665 341.0138 L3.8719 342.268 L3.8879 342.4103 L3.8687 342.7242 L3.887 343.0277 L3.7763 344.0329 L3.6593 344.3328 L3.5042 344.4981 L3.4224 344.5623 L3.0025 344.7137 L2.6005 344.7814 L2.3732 344.8965 L1.9913 345.3408 L1.6808 346.0049 L1.3903 357.2054 L1.2897 359.5756 L1.2156 359.5226 L7.1287 400.9653 L7.5445 401.0085 L12.8991 401.3984 L24.4825 402.2116 L44.5899 394.5459 L53.1364 390.0961 L54.7884 389.3756 L56.2075 389.3142 L59.8165 389.5779 L64.1472 390.4644 L79.3216 395.438 L82.9932 396.1257 L115.4583 395.6779 L139.2131 401.1041 L160.1598 407.8623 L182.4602 403.036 L190.4639 399.1791 L195.3081 391.5629 L202.9038 379.622 L211.1133 373.5259 L223.3502 369.7817 L234.3421 366.4183 L245.2335 370.6989 L260.4112 376.6647 L275.7141 392.8567 L276.4139 393.5785 L309.3752 415.8129 L316.4641 416.5173 L331.0719 406.4953 L347.3353 412.4444 L387.971 416.6777 L395.7276 406.7673 L400.0546 399.4002 L401.6595 396.6683 L405.1902 386.283 L410.2257 379.7476 L411.4683 378.0534 L411.8218 377.5714 L428.3766 378.9608 L446.8092 380.5079 L462.8165 373.0516 L466.9601 371.4125 L512.0 344.2045 L509.9529 335.0119 L503.3789 321.6558 L503.5802 310.8427 L500.1866 303.1199 L491.1722 295.055 L472.055 290.6527 L457.8725 281.7225 L448.4099 274.0548 L441.4673 271.5151 L432.5581 260.7912 L430.2165 255.921 L429.0914 256.5978 L428.7575 256.8141 L428.6661 256.8916 L428.0706 257.6054 L426.8444 258.6471 L426.1616 259.3874 L429.4801 261.161 L430.2714 263.8333 L433.4179 262.7797 L439.9489 271.2849 L447.326 273.8664 L445.3502 275.9944 L441.417 279.2736 L439.1257 280.4317 L437.7628 278.9945 L436.3953 277.5572 L435.83 277.1386 L436.0097 277.5321 L436.1424 277.9675 L436.1858 278.3854 L435.9416 278.8863 L435.4513 279.2387 L434.8394 279.3503 L434.6038 279.4529 L434.3711 279.6629 L433.8698 279.815 L433.6352 279.861 L433.3736 279.9601 L433.0521 280.228 L432.5586 280.7506 L431.2501 281.5041 L430.4849 281.7301 L429.852 281.8871 L429.5675 281.938 L429.1833 281.9283 L428.9716 282.0162 L428.8421 282.185 L428.6578 282.5862 L428.1895 282.8988 L427.1353 283.4778 L426.7132 283.5629 L426.8508 284.0116 L426.8856 284.403 L426.6583 284.7853 L426.5961 285.5604 L426.6075 286.0195 L426.7068 286.3572 L426.9299 286.7465 L427.3676 287.1483 L427.6704 287.5872 L427.8277 287.9451 L428.2746 288.6609 L428.3208 289.1102 L428.3066 289.5902 L428.125 290.0158 L427.9444 290.2704 L427.6045 290.4895 L427.2204 290.5927 L426.8723 290.5209 L426.5654 290.5313 L426.5032 290.7937 L426.5769 291.0448 L426.4035 291.4027 L426.0441 291.5897 L425.8126 292.2699 L425.6663 292.459 L425.3407 292.6083 L425.0443 292.6662 L424.0784 291.6944 L423.8703 291.372 L423.5542 291.2806 L422.6551 291.5492 L421.9622 291.6455 L421.348 291.7809 L420.769 292.053 L419.8072 292.7499 L418.6286 294.6127 L418.1859 296.0568 L418.1602 297.0419 L418.168 298.5168 L418.1319 298.9842 L417.9855 300.0935 L417.7884 300.6341 L416.9172 301.5683 L416.3551 302.2422 L415.9997 302.1292 L414.1255 301.1127 L413.3201 300.6683 L412.9478 300.3676 L412.9542 300.3523 L409.4253 300.42 L404.7329 298.8014 L404.3899 299.0944 L404.6643 298.4177 L391.6984 296.255 L388.6844 292.9969 L386.7896 291.1244 L386.6126 290.9318 L386.1873 294.0992 L385.1811 288.169 L378.4992 287.2341 L380.0359 284.7644 L378.984 285.6783 L372.0963 289.4806 L374.8907 280.641 L369.8644 279.4131 L377.6348 269.1987 L378.1932 269.3711 L378.1946 269.2929 L378.2696 269.1471 L378.4205 269.0773 L378.7201 269.0564 L379.1345 269.196 L379.778 269.5099 L380.8998 270.1846 L380.9291 270.2139 L382.5925 270.7267 L383.5017 270.0841 L383.4313 270.0458 L383.9522 269.3376 L384.4759 268.8687 L384.8075 268.4578 L384.9611 267.9645 L385.1079 267.7426 L385.2076 267.4628 L385.4665 267.4496 L385.6815 267.5954 L385.9892 267.6624 L386.5381 267.9366 L398.9885 259.1341 L399.0023 259.1027 L399.1683 258.4259 L399.4271 257.6661 L399.3613 257.2816 L399.5067 256.8651 L399.5968 256.2525 L399.8676 255.8373 L400.1571 255.635 L401.5653 252.3974 L401.6869 252.38 L403.7121 249.1341 L405.0622 248.0714 L408.0839 243.6936 L410.4891 240.0157 L405.9 237.0837 L404.3647 237.2846 L403.7852 235.7321 L403.3851 234.721 L403.4573 234.2611 L403.4052 233.9569 L403.1573 233.197 L402.522 232.934 L402.0935 232.599 L401.7482 231.71 L401.6933 231.1679 L401.3142 230.7924 L401.2273 230.3089 L401.2021 229.9523 L400.6423 229.1415 L400.4983 228.7926 L400.4932 228.3655 L400.5934 228.1988 L400.6702 228.0718 L401.1564 228.1555 L401.5012 228.2148 L401.6833 228.1576 L401.7121 227.7298 L402.1132 227.697 L402.3373 227.8847 L402.4109 228.1492 L402.7818 228.5756 L403.1829 228.8484 L403.3366 228.8791 L403.5154 229.0522 L403.6837 229.3208 L404.2074 229.8407 L404.6515 230.1163 L405.0398 230.2949 L405.4198 230.2677 L405.5822 230.3982 L406.4136 231.239 L406.9711 231.8866 L407.3018 232.1469 L409.7761 234.326 L409.847 234.6282 L409.8012 234.6554 L410.4818 235.1836 L414.6574 237.0844 L404.1068 226.3496 L404.4539 222.451 L409.0155 216.4093 L410.0075 217.6612 L411.3219 219.9458 L412.292 216.41 L414.3569 213.8441 L416.7036 211.4345 L416.6409 208.4625 L416.2343 201.8602 L413.6997 195.821 L409.069 191.0022 L406.8737 188.8172 L404.8083 188.1598 L401.9609 186.8143 L397.9874 183.0911 L390.2897 178.8039 L386.41 175.6753 L382.8116 172.1711 L380.1521 167.4462 L378.6812 163.8477 L377.8365 158.6845 L377.4299 153.9287 L375.6147 139.7232 L372.0167 132.4607 L368.0245 126.1341 L358.8679 117.603 L349.1647 106.845 L344.014 99.1204 L337.6806 96.1579 L330.1787 95.3223 L307.1085 96.1886 L307.8362 97.7452 L333.2352 98.5766 L339.2745 100.1535 L339.4455 100.1829 L339.8393 100.2987 L340.0611 100.4516 L341.9404 101.6348 L346.352 106.5518 L346.0533 107.5584 L346.5075 108.1852 L345.6065 109.5604 L347.6276 116.2628 L348.5862 117.9052 L348.4064 118.0958 L347.9216 118.4658 L346.6447 118.7603 L345.1172 119.2761 L343.6143 119.147 L341.9248 117.6379 L340.4874 117.6735 L339.6966 117.0264 L338.7261 115.6611 L336.7495 114.0431 L334.9882 114.0075 L334.2692 114.9778 L331.1634 120.9172 L327.6189 124.3165 L326.2011 126.3686 L326.1814 126.3581 L326.0932 126.6576 L325.5494 126.8265 L325.0399 126.9256 L324.5025 126.9019 L324.2885 126.6876 L324.1261 125.8514 L324.1846 125.2413 L324.2157 123.8307 L324.0836 122.3272 L323.4529 121.3639 L321.9811 120.6771 L321.2206 120.996 L318.3255 120.3336 L314.5469 118.0518 L314.0808 120.4314 L312.5844 125.3139 L311.3578 126.2953 L310.867 126.9088 L309.8394 126.9549 L305.8247 128.1436 L303.1538 130.7862 L301.1428 133.3834 L298.0411 137.3661 L298.3265 138.2909 L298.5346 138.6902 L299.9263 140.7541 L298.2249 141.9406 L295.3615 143.7141 L289.3258 143.7393 L290.6997 148.5719 L291.4113 151.1976 L289.3994 152.3262 L288.8108 152.6201 L287.854 152.4239 L285.9647 151.4182 L284.1737 150.9764 L283.1923 150.6819 L282.771 150.6302 L277.635 149.7298 L271.0446 150.6232 L268.4468 147.7826 L264.1665 151.4224 L261.2755 150.358 L260.3526 153.8233 L255.6702 159.0062 L264.1655 168.2216 L264.4221 168.461 L265.0784 168.9125 L265.1607 169.1317 L265.0524 169.3243 L262.884 169.6705 L262.0096 169.5853 L261.0299 169.8994 L259.1123 170.2888 L255.5358 170.8151 L254.9147 170.9093 L252.8534 171.0447 L248.7418 171.439 L244.3087 171.4034 L243.3611 171.2743 L242.7414 171.2275 L242.4894 170.8318 L241.443 170.1395 L241.0789 170.1723 L240.5685 170.6196 L239.7462 170.3761 L237.6685 169.3411 L236.4322 168.4729 L236.2763 168.1539 L236.0943 167.4085 L235.8633 166.8767 L235.764 166.4196 L235.2852 165.6721 L234.5237 164.5275 L234.6792 160.7769 L234.4203 157.572 L234.3229 155.0468 L233.5139 153.2664 L231.539 152.4246 L230.488 151.8258 L229.9159 152.2432 L228.8196 152.493 L227.6337 152.7945 L225.9004 153.5051 L225.8135 154.3754 L225.6762 155.3532 L224.1743 156.2633 L222.783 156.3359 L221.0689 155.8306 L220.869 156.9641 L221.5043 157.1148 L222.5919 157.5399 L222.7785 157.7311 L222.9203 158.0521 L222.966 158.3509 L223.0675 158.5749 L223.2239 158.7054 L223.4238 158.7633 L223.6479 158.7368 L224.0197 158.8234 L224.1615 158.7912 L224.3047 158.8478 L224.354 158.9755 L224.3609 159.1954 L223.9543 160.1271 L223.8217 161.733 L223.9383 163.4618 L223.9461 163.8268 L223.8917 164.0648 L223.8057 164.2239 L223.6497 164.3768 L223.1128 165.1871 L222.746 165.3713 L222.6875 165.4209 L222.6436 165.5632 L222.6975 166.4782 L222.6436 166.7546 L222.5288 167.0861 L222.0097 167.6053 L221.5875 168.3682 L221.3287 168.7758 L220.7972 169.2964 L220.5242 169.6865 L220.3605 170.1046 L220.3207 170.2909 L220.3618 170.4696 L220.5777 170.9162 L220.7163 171.0614 L220.8988 171.2024 L221.2578 171.4222 L221.91 171.9687 L221.974 172.1264 L221.9676 172.266 L221.7389 172.7273 L221.8103 173.1747 L222.2438 173.7344 L222.9097 174.5063 L223.068 174.5928 L223.3067 174.59 L223.4334 174.6738 L223.4887 175.0088 L223.6118 175.2621 L223.631 175.4059 L223.7046 175.5252 L223.9127 175.7458 L224.3906 177.2972 L224.2479 177.3851 L223.6273 177.4731 L223.309 177.6336 L222.7959 178.0076 L222.5695 178.0781 L222.2722 178.1242 L221.9484 178.2289 L221.8162 178.3664 L221.7417 178.5876 L221.7467 178.7823 L221.7202 178.9107 L221.4087 179.3609 L221.3053 179.6791 L221.2875 179.901 L221.3314 180.25 L221.7197 181.2926 L221.7522 181.4413 L221.6589 181.525 L221.4284 181.615 L220.9857 181.6548 L220.5361 181.8279 L220.3033 181.9619 L219.8633 182.3108 L218.9408 182.8852 L218.6079 182.9592 L218.2891 182.9752 L217.9123 182.9082 L217.3026 182.9061 L216.6445 183.0227 L215.0831 182.5453 L212.7405 179.6365 L210.9797 180.0085 L209.5519 179.8033 L208.1894 179.4662 L207.4819 180.9479 L206.5855 182.6786 L204.5869 185.0444 L203.5761 190.9415 L202.9011 191.4056 L202.9258 191.453 L203.0429 191.6296 L205.2134 191.3532 L203.846 206.4757 L206.837 212.4631 L207.7655 220.0763 L206.5901 225.0308 L206.5992 221.8488 L204.9848 222.1418 L204.9848 224.1515 L201.326 228.5058 L205.0305 227.6475 L204.2032 229.0326 L204.3294 229.0675 L204.4391 229.5497 L204.3298 229.8742 L204.1894 230.1268 L203.9059 230.3975 L203.2738 230.5887 L202.355 232.1273 L197.8958 232.1762 L197.8867 230.2572 L197.6018 231.2048 L197.5684 231.4658 L197.4806 231.5858 L197.2967 232.1622 L196.9308 234.2276 L194.4703 234.7021 L193.2857 238.526 L196.6473 235.2534 L197.7312 233.1949 L200.6491 233.8229 L201.4394 234.0197 L201.7129 233.9723 L202.2905 234.0399 L203.1238 234.0846 L203.4376 234.5158 L204.3262 234.737 L204.9573 236.6071 L202.4876 243.2987 L200.3747 243.7802 L198.3532 243.3545 L197.9553 245.8455 L196.8691 245.6013 L191.9731 244.5128 L191.7216 244.3942 L188.0765 242.1195 L188.543 238.191 L183.782 236.2233 L187.1755 223.8026 L188.2668 223.8026 L188.3665 223.3546 L188.4515 222.6101 L188.4927 221.6673 L188.4694 220.7748 L188.554 219.3771 L188.6166 217.5796 L189.0269 214.1658 L189.6452 212.4638 L189.412 206.8107 L189.1312 205.02 L189.3443 202.0144 L190.8069 199.6089 L190.8069 198.8406 L190.1488 197.3674 L190.1163 197.0052 L190.1186 196.9013 L189.0918 196.7547 L184.1707 197.313 L182.5791 195.1385 L182.4149 195.1971 L182.1341 195.0087 L181.637 194.5809 L181.0072 193.9319 L180.1008 192.9297 L179.5652 192.0009 L179.0681 190.9436 L178.9002 190.3281 L178.9414 190.0929 L178.7282 189.797 L180.5951 187.903 L181.2377 187.1807 L182.4749 185.5679 L183.2652 184.8777 L183.0671 183.8218 L183.3854 182.8657 L184.489 181.0763 L185.111 178.4452 L185.0955 177.4263 L185.5949 176.4109 L186.9071 175.6243 L188.7383 174.1866 L188.8782 173.0749 L189.5679 170.6566 L190.4081 168.4156 L191.1225 166.1893 L193.0232 160.7127 L193.9667 159.2163 L194.806 157.886 L195.2167 157.6285 L195.8835 157.5685 L196.5192 157.6501 L197.1627 157.8881 L197.4499 158.0842 L198.3852 158.8429 L198.945 160.6708 L199.079 160.9046 L199.1078 160.9353 L200.1908 162.1364 L200.8448 163.0828 L199.7106 166.9095 L199.9544 169.5749 L199.9749 169.8603 L199.7298 170.7013 L199.556 171.0817 L199.4325 171.8612 L196.4552 176.1952 L197.7842 176.1812 L197.8656 176.1247 L198.1872 176.0703 L198.5105 176.1736 L198.559 176.1743 L201.0744 172.1613 L202.9143 172.1662 L203.2885 172.1327 L203.3077 172.1634 L203.6493 172.1613 L204.0152 175.4415 L205.218 171.8124 L205.3292 169.7668 L205.8085 167.3639 L206.5988 164.0857 L206.2343 160.4544 L205.0419 159.5038 L203.2912 160.6512 L200.1547 157.0541 L199.9374 156.8056 L197.1673 154.1507 L197.4819 153.4548 L197.2359 152.9621 L195.7801 152.4721 L194.6143 152.3255 L193.6306 152.4721 L192.7653 152.9509 L192.1767 152.8385 L192.2517 151.5354 L191.0644 149.7682 L189.2661 150.2156 L189.4449 152.0163 L188.8961 154.8318 L185.7998 158.3844 L176.9652 166.0664 L175.4234 167.1629 L175.2473 167.4434 L173.4728 168.5364 L172.2133 168.6431 L170.8472 169.7884 L170.2549 171.7503 L169.8094 172.7413 L169.4943 173.0791 L169.1298 173.2884 L168.4013 173.7826 L167.5355 174.4965 L167.1916 174.634 L164.6674 175.1916 L162.533 174.9467 L160.742 176.0507 L158.0432 183.5824 L152.6455 184.0241 L149.3238 192.3254 L147.2245 192.5466 L143.8914 191.9834 L142.9268 191.3358 L142.9648 190.6756 L146.6967 185.9629 L150.1292 181.823 L149.5314 180.7308 L148.1228 178.529 L147.182 175.7276 L147.0558 174.6403 L146.2339 173.733 L144.9112 173.1433 L144.3812 172.587 L143.8095 171.7168 L142.1228 171.4515 L140.2957 171.1179 L138.1434 170.1918 L135.161 174.8629 L136.2463 174.7729 L137.0219 175.0067 L137.2895 175.8449 L137.2145 176.6893 L136.3185 178.2407 L134.6336 180.0218 L131.8502 181.9738 L128.6972 183.4665 L127.1669 184.036 L121.5132 186.8862 L121.1098 187.0404 L118.2705 185.2992 L117.4839 185.8016 L116.8267 186.1317 L115.2159 186.316 L115.9806 187.2958 L115.6124 187.6064 L115.2031 187.3851 L114.9621 187.501 L114.6689 188.1514 L114.4453 188.4613 L111.5187 190.6861 L110.7284 191.0155 L109.955 191.0029 L109.2552 190.6561 L108.6149 190.2171 L108.1242 189.2973 L107.8507 188.4899 L107.151 188.7299 L108.3629 190.9771 L108.6355 191.7022 L108.464 192.2402 L107.5022 193.5418 L106.7883 194.4336 L106.2765 195.2417 L106.0282 195.8314 L105.8791 196.62 L104.9667 198.2844 L105.3645 198.7966 L106.5637 198.4358 L107.0531 198.5684 L107.0353 199.2125 L105.5457 200.9537 L105.2246 201.6397 L104.9927 203.124 L104.925 204.7723 L104.6053 206.3403 L104.3803 207.4555 L103.6422 208.2336 L102.6776 208.6948 L101.5493 208.7814 L100.7234 208.5413 L100.0392 207.9161 L98.5944 205.7925 L97.8425 204.0772 L97.215 202.7779 L96.7261 201.6941 L96.6442 200.4952 L95.531 199.4198 L95.1972 198.3381 L94.7508 197.6947 L93.6888 196.941 L93.119 197.1176 L92.8953 198.2656 L92.9534 198.6319 L93.8452 200.1644 L94.1046 200.7771 L94.8084 202.006 L95.0389 202.401 L95.0508 202.8923 L94.2061 202.9607 L93.3344 203.1924 L92.7353 204.0912 L93.3211 205.3306 L94.642 207.2643 L95.0097 208.6676 L93.3893 210.2336 L92.5505 210.2147 L90.3415 209.0794 L87.5548 207.7165 L86.6877 208.3773 L88.0296 211.2056 L89.3509 213.5378 L89.7844 214.9627 L90.4243 216.4072 L91.2292 217.3779 L91.5182 218.389 L91.312 219.1322 L89.3509 219.1943 L93.9129 220.495 L94.4293 220.8251 L94.2848 221.6513 L93.9335 222.3114 L92.8601 222.4559 L91.993 222.1467 L91.725 221.6715 L88.1329 220.6604 L87.5137 220.2264 L86.7911 219.2773 L85.8 219.6897 L84.0451 221.7546 L83.8594 223.1578 L83.6326 224.2729 L82.6854 225.0349 L84.3488 224.9868 L85.3326 225.8283 L87.232 228.4416 L88.9008 231.5921 L89.1931 234.3253 L88.888 235.6825 L88.2207 236.8583 L87.7556 238.7402 L87.3298 239.4589 L87.1322 239.634 L86.5107 239.5705 L85.6006 239.5775 L82.9699 240.4162 L80.6822 241.504 L79.5951 242.0985 L78.9795 243.3573 L79.4282 243.5708 L79.5933 243.686 L79.7684 243.6769 L80.4316 244.1332 L80.5249 244.2958 L82.6132 245.662 L82.7572 245.6871 L83.6262 245.7095 L84.3067 245.9439 L85.403 247.0003 L85.5439 246.9612 L85.4954 247.5488 L85.8036 247.7504 L79.5873 256.8986 L72.4215 264.3426 L72.2327 264.7955 L71.7117 267.4007 L70.9594 269.7492 L69.9107 270.3549 L69.8284 270.5523 L69.5713 270.5509 L69.5 270.5921 L69.0033 270.5481 L63.302 270.5174 L60.4618 266.387 L62.8428 260.134 L63.4195 258.1022 L63.7012 257.8803 L63.8265 257.5516 L63.8009 257.5258 L63.7662 257.2767 L63.806 257.0214 L63.9537 256.7925 L59.2178 257.163 L52.5716 262.8369 L51.7013 263.9435 L50.2158 265.3069 L49.865 265.8741 L49.447 265.9565 L48.9411 266.4637 L47.4982 265.6662 L47.3038 265.6837 L46.4143 266.1295 L45.3038 266.6332 L44.6914 267.0916 L43.4442 267.3505 L37.8092 270.29 L37.2833 270.6981 L36.8675 270.7812 L35.8883 271.2919 L35.1415 271.28 L34.3841 271.6317 L33.7292 274.606 L33.7434 276.106 L37.4013 276.5686 L37.4337 276.556 L38.1874 276.4186 L39.0299 276.4242 L40.5881 276.5665 L42.3022 277.1882 L45.2778 277.5642 L45.4698 284.1085 L46.0104 287.1944 L45.8778 288.4411 L45.624 289.362 L45.6436 290.0318 L45.4328 290.0555 L45.4008 290.172 L44.6498 290.8516 L43.6866 291.386 L42.9059 291.5764 L42.2995 291.5367 L41.8934 290.4511 L37.8531 290.9025 L37.157 291.2778 L35.5956 291.8667 L34.9 292.0243 L34.4463 292.0083 L34.106 291.7871 L33.8097 291.3546 L32.3736 290.7713 L38.5501 315.0982 L0.8278 318.1677 L2.0947 324.0904 L0.0 330.2641 M48.7244 373.482 L48.8346 373.0725 L48.9494 372.8019 L49.3971 371.7459 L49.8252 370.9891 L50.5496 369.4748 L50.8533 369.0131 L50.8968 368.9852 L51.0907 368.8589 L51.4936 368.8729 L52.6736 369.283 L54.8959 369.8312 L56.385 370.1591 L57.023 370.3 L59.5105 371.0072 L61.3848 371.6887 L63.2823 372.3785 L66.2372 373.2518 L67.1922 373.5734 L67.5873 373.8789 L67.6852 374.0574 L67.7447 374.1669 L67.8485 374.4787 L67.6066 379.2621 L67.7977 380.7624 L68.052 381.0038 L68.8414 381.1216 L69.5393 381.1342 L71.4565 381.5025 L71.7159 381.6252 L72.5386 382.0151 L72.8931 382.1156 L73.4552 382.1525 L73.929 382.2551 L74.4156 382.2864 L74.8963 382.4636 L76.1508 382.6582 L76.5935 382.8326 L76.7938 382.9658 L77.3751 382.9379 L77.7451 382.8605 L80.4705 383.143 L82.1018 383.4052 L83.5343 383.4833 L84.5093 383.4331 L85.5329 383.152 L85.9463 383.0704 L87.0403 383.0153 L87.875 382.94 L88.6598 383.0076 L89.8974 382.9463 L92.1663 382.76 L92.9054 383.0146 L93.0472 383.2664 L93.0641 383.8063 L93.1885 384.072 L93.4382 384.1941 L94.0405 384.6063 L94.2701 384.7172 L94.4457 384.7144 L94.7243 384.6007 L94.8999 384.4591 L94.9324 384.261 L94.6173 383.899 L94.2152 383.3369 L93.9431 383.0341 L93.8109 382.6805 L93.8763 382.4294 L95.1556 381.8561 L95.4885 381.7103 L97.2264 381.2765 L98.2093 381.1747 L99.515 380.9563 L100.3506 380.8238 L102.593 380.5518 L102.9964 380.4276 L103.4107 380.1445 L104.0177 379.9826 L104.1764 379.9868 L104.9369 380.0064 L105.8009 380.1173 L106.0254 380.2421 L106.1988 380.4214 L106.346 380.6662 L106.4608 381.2416 L106.5066 381.7543 L106.6291 382.0012 L107.0778 382.6596 L107.6961 383.4603 L107.9431 383.9039 L108.0689 384.2582 L108.1466 384.3517 L108.3122 384.381 L110.7261 383.4261 L111.2342 383.1409 L111.6632 382.9574 L112.0876 382.8563 L112.6909 382.7886 L114.0391 382.7056 L115.2182 382.7559 L115.6508 382.7482 L115.9833 382.6742 L116.3597 382.5271 L116.748 382.4476 L117.2095 382.4127 L117.8612 382.3973 L118.6629 382.5138 L120.8532 382.5682 L121.9641 382.4929 L122.7489 382.3534 L123.2964 382.0835 L124.5843 381.7403 L125.5465 381.6155 L127.4148 381.5855 L130.1795 381.6008 L130.587 381.6643 L130.7338 381.7633 L130.7928 381.7905 L130.9511 382.0158 L131.0759 382.6345 L131.2932 385.4049 L131.3329 386.2698 L131.4221 386.495 L131.4537 386.7064 L131.5397 386.963 L131.4706 387.4541 L131.4281 387.6089 L131.2035 387.7679 L130.9351 387.8551 L130.3666 387.957 L129.0901 388.0093 L125.8969 388.0393 L122.1503 387.9242 L116.9419 387.897 L116.738 387.7198 L116.7142 387.6773 L116.5431 387.3725 L116.3359 386.6729 L116.2083 384.6091 L116.1686 383.9674 L116.094 383.7665 L115.8287 383.6075 L115.4848 383.4875 L113.4103 383.5991 L110.48 384.0469 L110.143 384.4863 L110.0117 384.9139 L110.5326 387.1465 L110.727 388.2624 L110.7197 388.6035 L110.5317 388.7465 L109.0595 388.9236 L106.6986 388.9983 L103.6536 389.2103 L98.5994 389.9189 L94.0195 390.3793 L89.6852 390.8563 L87.7181 390.562 L80.9077 388.833 L79.6276 388.5031 L75.1108 387.1549 L72.4339 386.4392 L70.4453 385.8317 L69.302 385.3372 L64.7998 383.597 L62.5816 382.4622 L58.0141 380.3439 L55.3509 379.0794 L50.8666 377.1571 L50.2245 376.4003 L49.1497 374.854 L48.916 374.3525 L48.7244 373.482 M51.9651 329.4745 L52.0607 328.8124 L52.117 328.0611 L52.3082 327.7716 L52.7335 327.5854 L53.3015 327.5184 L54.0923 327.517 L55.8586 327.6684 L56.6452 327.7912 L56.9946 327.7988 L57.0175 328.2244 L57.0966 328.6757 L57.1007 328.9792 L55.5105 329.2317 L54.8492 329.2917 L54.2574 329.2673 L53.5695 329.3761 L52.8337 329.3886 L52.1828 329.4786 L51.9651 329.4745 M55.1726 281.9304 L56.4495 280.6243 L58.9196 278.5424 L59.4172 277.8614 L59.7012 277.1805 L60.6873 276.4109 L61.9052 275.7718 L63.1515 275.6588 L64.1238 275.993 L65.092 276.4221 L65.7278 276.5093 L66.4321 276.4458 L67.0175 276.4619 L67.5828 276.8079 L67.7922 276.9795 L67.9285 277.0912 L68.3255 277.1756 L68.932 277.1456 L69.7776 277.6738 L70.1394 278.624 L70.6845 280.2189 L71.3212 280.9424 L72.0936 281.2885 L72.4961 281.6171 L72.4902 283.295 L72.5199 285.3553 L72.2528 286.6069 L72.0255 287.1874 L71.6811 287.6695 L71.1199 288.1558 L70.6406 288.4627 L69.5777 288.9365 L66.6493 289.6927 L66.6338 290.9165 L67.495 291.3141 L67.8096 292.2148 L67.8458 293.9283 L68.3639 294.7159 L68.8675 294.658 L69.1506 294.7334 L69.3303 295.618 L69.3957 296.0652 L68.4527 296.4719 L68.1846 297.0566 L67.859 297.2059 L67.57 297.2066 L66.8556 297.1515 L65.865 297.2415 L64.6713 297.5191 L60.524 298.6884 L59.4744 298.9612 L59.1858 299.0358 L58.953 298.8272 L58.905 297.9168 L58.8263 296.4357 L58.4088 295.3522 L58.5611 294.9657 L58.1334 293.9555 L57.9811 293.6401 L57.779 293.3653 L57.2238 293.2794 L56.7083 293.3374 L56.0809 289.7925 L55.5599 287.3486 L55.2864 285.7823 L55.1826 284.1344 L55.1726 281.9304 M68.1133 292.1137 L68.6763 289.7981 L71.9304 289.7667 L71.7739 295.3055 L69.6152 296.5571 L69.4254 294.3497 L68.5514 294.2101 L68.1133 292.1137 M89.012 271.1098 L89.0453 270.8544 L90.7188 267.4454 L91.113 266.5977 L91.7135 265.1701 L92.8802 263.1244 L93.0302 262.4874 L93.0572 262.0876 L92.9863 261.5776 L92.7988 260.6859 L92.765 260.3754 L92.8002 260.1395 L92.9296 259.9009 L93.8457 258.9799 L94.8281 258.2361 L95.8457 257.1867 L96.3616 256.0752 L96.8071 255.6775 L97.1039 255.5296 L97.376 255.4794 L97.6102 255.5024 L97.8571 255.6538 L98.1068 255.8547 L98.9008 255.7452 L99.4505 255.4305 L99.532 255.3677 L99.9148 255.074 L100.3799 254.6539 L100.6118 254.3686 L100.8825 253.6066 L100.8889 253.3708 L100.8999 252.9626 L101.5557 251.939 L101.9705 251.385 L103.1089 250.1032 L103.966 249.0503 L104.2683 249.0608 L104.4695 249.2003 L104.6881 249.3943 L104.8404 249.6957 L104.8921 250.2016 L104.818 251.4052 L104.5724 252.0953 L104.2248 252.7003 L103.6143 253.5299 L102.8455 254.1474 L101.2086 255.3475 L100.4192 256.0048 L99.7003 256.6683 L98.5811 257.8468 L97.4821 259.1111 L95.8484 260.8526 L94.6785 262.3758 L93.8869 263.7014 L93.0229 265.3418 L92.3012 266.8872 L91.6308 268.4473 L91.5663 268.6434 L91.2406 269.6292 L90.9415 270.7023 L90.4599 272.1947 L89.8704 271.857 L89.6115 271.7384 L89.4579 271.6679 L89.108 271.34 L89.012 271.1098 M91.8754 225.9302 L91.9225 225.5478 L92.1745 225.3427 L94.7394 224.8717 L96.5418 223.9443 L98.7979 231.9843 L97.8091 232.1783 L97.8837 233.7064 L98.4197 235.0043 L98.9616 235.4404 L99.5777 235.7244 L98.9639 236.3726 L97.6056 237.4088 L97.2598 237.6161 L96.0556 237.8903 L95.542 238.0047 L94.9758 238.0619 L94.1846 238.2092 L93.569 238.2085 L93.2388 238.1687 L93.0865 237.9433 L93.1167 237.5812 L93.4734 237.1458 L93.6577 236.7508 L94.0712 234.2186 L94.4165 232.9591 L94.4023 232.5886 L94.3346 232.2543 L93.9573 231.7994 L93.9116 231.7442 L93.918 231.68 L93.9408 231.4393 L94.2157 231.0744 L94.3136 230.6941 L94.2573 230.4156 L92.5825 227.2965 L91.8754 225.9302 M96.5637 223.954 L97.2607 223.5507 L97.843 223.2416 L98.6342 223.095 L98.9603 222.952 L99.2964 222.8459 L99.4711 222.8299 L99.6486 222.9904 L99.7039 223.3951 L99.7044 223.437 L99.708 223.6526 L99.9495 224.4502 L100.749 226.3566 L100.8747 226.7104 L100.9269 227.0083 L100.9031 227.4451 L100.7549 228.5923 L100.7389 229.041 L100.8683 229.5022 L101.0151 229.8797 L101.027 229.9349 L101.0796 230.1763 L101.0467 230.4436 L100.8176 230.9683 L100.5217 231.5181 L100.3762 231.7833 L100.1434 232.2076 L99.4848 232.9856 L99.2676 233.2947 L99.2214 233.4126 L99.2507 234.714 L99.237 234.7335 L98.4343 234.9938 L97.9056 233.7162 L97.8311 232.188 L98.8199 231.994 L96.5637 223.954 M104.7544 247.9395 L105.4981 246.5866 L105.9445 244.4298 L106.1457 243.0322 L106.2088 242.1258 L106.3511 241.1928 L106.5898 240.352 L106.8852 239.7268 L107.102 239.3417 L107.2905 238.8525 L107.912 230.1177 L108.9401 229.4164 L108.9081 228.6007 L109.4304 228.623 L110.1334 228.6028 L111.1185 227.9238 L111.8525 226.3433 L112.4636 226.9839 L112.759 226.778 L112.5701 226.5687 L112.4873 226.2735 L112.5267 225.7341 L112.8967 223.975 L113.2159 221.0226 L113.419 220.7644 L113.4674 220.7497 L113.2241 216.858 L113.7524 216.4407 L113.7821 216.4156 L114.0451 216.3353 L114.8089 216.2349 L115.2228 216.015 L115.3682 216.0269 L115.4848 216.1358 L115.611 216.2125 L115.7341 216.1825 L116.126 215.9334 L116.3419 215.7436 L116.5934 215.6075 L116.8871 215.5182 L117.2991 215.4931 L117.5809 215.6194 L117.7606 215.8015 L117.8269 216.1065 L118.1795 216.0779 L119.8027 219.2369 L120.2614 218.9556 L120.9433 218.4344 L121.3101 218.2955 L121.7391 218.0603 L122.7892 217.7889 L123.392 217.5768 L123.7176 217.4972 L124.1086 217.4428 L124.1621 217.4707 L124.1891 217.4595 L127.2881 218.6298 L127.7963 218.7184 L128.0158 218.9047 L131.4948 220.234 L131.8836 220.2822 L132.2833 220.2585 L132.775 220.1322 L133.1473 220.225 L133.8818 220.9946 L134.3336 221.3184 L136.051 221.9855 L136.9661 222.3365 L137.5676 221.9897 L139.5273 220.682 L140.4031 219.9828 L140.7311 219.673 L141.5319 219.0498 L141.5662 219.0547 L143.6307 217.4065 L143.809 216.5935 L144.2476 216.2244 L144.7237 216.0723 L145.15 216.0548 L145.3773 216.0123 L146.1356 215.4065 L146.3107 215.2 L146.4178 215.1812 L146.5444 215.08 L146.6748 215.2307 L146.7173 215.2516 L146.9551 215.4505 L147.0997 215.7213 L148.7306 217.6061 L148.3418 221.9953 L150.1978 224.0762 L152.2028 222.1977 L152.4722 221.9018 L153.798 220.2975 L154.0981 219.091 L154.8705 218.3157 L155.6663 218.0108 L157.4459 217.888 L159.1248 217.9068 L159.6782 218.052 L160.1223 218.3834 L160.2819 218.6737 L160.2737 219.4413 L160.0747 221.8467 L159.9343 223.0127 L159.9938 223.1837 L160.1758 223.3246 L160.5979 223.4063 L163.032 220.9884 L163.3498 220.6067 L163.5707 220.2654 L163.863 219.9556 L164.1877 219.6493 L164.4932 219.4134 L164.7754 219.3736 L167.7381 216.364 L163.5945 212.0305 L165.1166 211.1603 L166.4383 210.348 L167.0077 210.108 L169.8145 209.7416 L171.4275 209.4443 L171.8739 209.4485 L172.377 209.5225 L172.9126 209.7521 L173.7289 210.3082 L174.5691 211.4108 L174.9816 212.7911 L175.2807 213.1805 L175.6635 213.5301 L175.9956 213.7653 L177.0864 212.5678 L178.0623 211.2035 L178.5769 210.1422 L179.4623 208.5504 L180.7785 206.7311 L181.5981 206.1108 L181.7367 206.0661 L182.0029 205.6941 L182.602 205.6802 L182.8128 205.8574 L183.3868 205.8581 L184.13 206.0647 L184.5517 206.3913 L184.7534 206.6432 L184.8664 206.923 L184.999 207.6935 L185.2775 207.9272 L185.1819 209.0075 L185.3027 210.1094 L185.1664 211.4638 L185.0036 212.3103 L184.9272 212.5127 L184.87 212.5448 L184.2165 219.9437 L184.0962 220.2773 L184.0596 220.7804 L183.7111 221.9409 L183.2707 222.5661 L179.0722 231.0541 L177.3361 231.5754 L177.256 231.6514 L176.8572 232.179 L175.6 235.6721 L175.0882 235.416 L174.8151 235.5381 L174.205 235.5304 L173.3722 235.4229 L173.2807 235.5192 L173.2757 235.5109 L172.7154 236.3643 L171.9974 237.884 L171.5099 238.7534 L169.4925 241.0945 L165.0397 237.3397 L163.3978 235.9233 L164.1767 235.155 L164.1987 234.9833 L163.9878 234.3093 L163.7861 233.5334 L163.0361 232.4546 L162.8408 232.1699 L161.584 229.519 L161.4806 228.7702 L161.9137 228.362 L161.8346 227.9999 L160.4232 229.3857 L157.9782 232.4902 L153.7633 237.8414 L153.7258 237.9189 L153.6659 238.302 L153.6782 238.6474 L153.8232 239.006 L154.1177 239.4142 L154.3962 239.8615 L154.5659 240.2118 L154.5824 240.2606 L155.2282 240.7142 L155.3553 239.9362 L155.7281 239.9424 L156.0697 240.6165 L156.7877 241.3743 L157.5968 241.7148 L159.2597 242.5353 L161.8058 244.4095 L162.9515 245.3452 L163.4454 245.9188 L163.5442 246.1107 L164.0756 249.1313 L164.404 249.8555 L164.7379 250.8763 L165.4184 251.1164 L165.482 250.9936 L166.1579 251.3773 L171.1138 253.3987 L170.8563 254.6372 L170.9469 255.314 L170.7397 255.8527 L170.9277 256.168 L171.2963 256.8253 L171.8849 257.4567 L172.3061 258.2005 L172.8691 259.439 L173.0406 259.8681 L173.583 260.2763 L174.168 260.5638 L174.2169 260.6914 L174.0207 261.1631 L173.4696 261.9564 L173.273 262.6353 L172.189 265.1206 L171.8012 265.5588 L171.3265 265.8665 L170.7809 266.3688 L170.3926 266.5928 L169.9585 266.7958 L169.5021 266.957 L168.8298 267.4454 L168.6167 267.9436 L168.1666 268.2485 L167.9517 268.7215 L168.4351 269.4562 L168.5549 269.6376 L168.3354 269.9669 L168.2558 270.0862 L168.2984 270.156 L168.5508 270.5704 L168.9057 270.6102 L169.1723 270.6402 L169.2382 270.3814 L169.4047 269.7248 L169.3525 269.1436 L170.7827 269.0599 L170.946 269.0501 L171.4911 269.5999 L171.6928 270.1672 L171.9736 271.1244 L171.6818 271.5856 L171.669 272.0719 L171.7459 272.298 L172.3345 273.4736 L172.6821 273.7757 L172.4259 274.0373 L172.377 274.0869 L169.7408 273.2259 L168.9272 272.9489 L168.6217 272.5547 L168.3779 272.148 L168.3615 271.6142 L168.4461 271.2284 L168.2544 270.9116 L168.0935 270.5865 L167.9732 270.449 L167.9046 270.3702 L167.5908 270.4428 L167.4262 270.5865 L166.8915 271.054 L166.5174 270.8153 L166.1987 270.6123 L166.42 270.2774 L166.56 269.7353 L166.1808 269.0076 L165.6068 268.9141 L164.9336 269.1136 L164.7758 269.4555 L164.436 269.6557 L164.2476 270.0067 L164.1982 270.5781 L164.0807 270.8788 L163.2231 271.1195 L162.9396 270.6228 L162.2897 270.5174 L161.8575 270.9535 L161.5465 271.5479 L160.8554 271.9694 L160.763 272.2652 L160.5677 272.8903 L160.4982 273.4506 L161.047 273.685 L161.7363 273.5245 L163.369 272.9503 L164.1698 272.5938 L164.7365 272.187 L165.2766 272.217 L165.7161 272.2415 L166.501 273.0731 L167.1856 273.4903 L168.8453 274.9785 L169.5817 275.5548 L170.0569 276.5826 L170.7475 277.4212 L171.1943 278.1307 L171.7637 279.5094 L171.7399 280.085 L171.8652 280.7101 L171.7907 281.4915 L171.1678 283.3746 L170.5915 283.8825 L170.2599 284.1741 L170.1291 284.066 L167.8497 282.0922 L167.2538 281.472 L166.3894 280.939 L165.6489 281.1566 L165.1028 282.0001 L165.0557 283.8336 L165.1353 284.3276 L166.1959 286.4179 L167.1097 287.5007 L167.3471 287.9081 L167.1842 288.8925 L166.7196 289.4576 L166.6002 289.782 L166.5732 289.8546 L165.4911 290.1853 L165.026 290.6053 L164.9524 291.0469 L164.4264 291.6923 L162.8536 292.8546 L162.2586 292.0327 L161.1326 289.7723 L160.5984 289.0013 L160.1278 288.3762 L159.7957 288.1732 L159.3599 288.2186 L158.7763 288.7816 L158.7246 289.189 L158.1996 289.4255 L157.584 289.3551 L157.1404 288.8911 L156.737 287.8941 L156.1717 287.4727 L156.0651 286.8462 L155.8035 286.1339 L155.1193 284.2857 L154.662 283.4576 L154.1946 282.448 L153.5268 281.7273 L152.8152 280.3738 L152.7914 280.1896 L152.4667 277.6772 L152.5133 276.1674 L152.5536 275.4962 L152.7749 275.1613 L152.967 274.6402 L152.9661 274.6339 L152.8541 274.3695 L151.5602 274.7574 L151.546 274.7971 L151.0105 275.169 L150.4374 275.0944 L149.4674 274.9653 L148.3098 274.3192 L147.8022 273.7604 L147.7578 273.7115 L146.9016 271.7286 L146.1296 266.2042 L145.4559 266.2523 L145.027 266.1874 L143.4619 266.4372 L137.7153 267.5319 L135.2808 267.8068 L133.4176 268.252 L131.4299 268.4313 L130.2838 268.7487 L128.791 268.9845 L127.37 269.3208 L124.6899 269.7646 L123.6595 269.9013 L123.3426 269.6592 L123.0366 269.7011 L122.6387 266.366 L125.0352 261.8308 L127.9211 261.8308 L125.6389 254.393 L126.4192 252.4784 L126.4118 252.3472 L126.292 252.1051 L123.0046 252.5091 L120.3885 258.9352 L121.4953 263.1216 L120.8989 263.2626 L120.7608 264.3419 L119.7309 264.7627 L118.7503 264.8262 L117.9481 263.9596 L111.1761 256.3997 L105.6252 252.8021 L104.7544 247.9395 M111.075 260.4612 L111.6362 260.0439 L112.3433 260.1465 L113.3078 261.2601 L113.8251 261.9125 L115.7268 264.5701 L116.8893 265.8574 L118.2179 267.3986 L118.6812 267.6296 L119.0919 268.0015 L119.5818 268.6315 L121.3403 272.1961 L122.4466 273.6773 L123.6334 276.3991 L125.3247 278.3756 L125.9879 279.2603 L125.9239 279.6629 L124.2362 280.4582 L120.4128 281.7357 L119.8923 281.6059 L119.2785 281.1385 L117.5841 279.2631 L115.9705 277.103 L115.011 274.8844 L114.1786 272.0489 L113.7542 269.6299 L112.7151 264.1424 L112.3314 262.8097 L112.003 262.2781 L111.2095 261.2161 L111.075 260.4612 M123.5539 195.4399 L123.5552 194.9675 L123.9568 194.5404 L124.7823 193.2368 L126.8239 190.922 L127.9719 189.4334 L128.6712 188.6141 L129.172 188.1026 L129.89 187.5652 L130.7873 186.9922 L131.3997 186.8115 L131.6938 186.7975 L132.1168 186.6838 L132.6986 186.3034 L133.7189 185.6314 L134.2733 185.2287 L134.5957 185.1114 L134.7827 185.0947 L135.0933 185.2615 L135.6938 185.6551 L136.6469 186.4004 L136.8985 186.6866 L136.9954 186.8547 L137.1788 186.9385 L137.7144 186.9531 L138.0592 187.0167 L138.4534 187.1688 L138.6282 187.4068 L138.8513 187.9344 L139.005 188.0342 L139.2918 188.0083 L139.4793 187.9281 L139.7249 187.7927 L139.9444 187.7222 L140.49 187.711 L141.5767 187.6385 L142.0071 187.8136 L142.4996 188.261 L142.7644 188.829 L142.7631 189.2324 L142.7155 189.6148 L142.5413 189.9833 L142.3313 190.3127 L141.7894 190.9903 L141.2341 191.4502 L139.7221 192.5529 L138.9721 192.8509 L138.308 193.22 L137.9426 193.4922 L137.7688 193.6527 L137.5872 193.8014 L137.2689 193.8935 L136.8911 193.9591 L136.0281 194.2829 L135.6293 194.5264 L135.3961 194.8572 L135.0622 195.3527 L129.3663 197.7631 L128.9113 197.7289 L128.5989 197.5426 L127.9371 196.9278 L127.3746 196.6389 L125.5013 196.4169 L124.1951 196.1448 L123.7359 195.858 L123.5539 195.4399 M130.1681 278.6624 L130.1713 278.5549 L130.2691 278.458 L131.0805 278.1719 L131.9984 277.8482 L133.7372 277.1372 L134.019 277.0549 L134.2303 277.0989 L134.6776 277.2537 L134.9927 277.4777 L135.3114 277.4617 L135.8909 277.1951 L136.1525 277.1714 L136.7041 277.2286 L137.0206 277.1184 L137.2049 276.9314 L137.4066 276.7995 L137.7423 276.757 L138.0309 276.7563 L138.4448 276.8198 L138.8934 276.7793 L139.2771 276.644 L139.713 276.5288 L139.9856 276.3467 L140.6904 276.0816 L141.482 275.8018 L141.8813 275.7028 L142.0597 275.7314 L142.238 275.8283 L142.4484 276.0049 L143.536 276.644 L144.5842 277.6138 L145.0613 278.3142 L145.5575 278.9436 L146.2504 279.5233 L147.2337 279.9824 L148.4017 280.3306 L149.9535 280.6822 L150.5033 280.6515 L151.1362 280.4938 L151.3256 280.5022 L151.4216 280.5943 L151.4953 280.7136 L151.6023 281.0687 L151.6233 281.7915 L149.5963 290.6262 L149.3311 292.0495 L149.2195 292.8811 L149.0882 294.3608 L149.0201 295.4882 L148.9675 297.427 L146.3825 297.6663 L146.4251 300.1207 L146.453 301.742 L143.5008 301.3911 L143.0704 299.7614 L142.968 299.3728 L142.271 299.324 L139.9485 298.4798 L139.3242 297.8938 L138.2792 296.5389 L137.2442 294.7997 L136.2069 293.4629 L135.5063 292.4946 L135.3252 292.2448 L134.8605 291.4746 L135.0658 290.8948 L134.7082 288.5207 L134.4178 285.2841 L134.2348 284.9918 L133.8795 284.6716 L133.0165 284.5725 L131.0736 280.565 L130.2188 278.8787 L130.1681 278.6624 M149.3677 295.3752 L149.3837 294.3587 L149.6467 292.1123 L150.0935 289.8797 L150.2133 289.4806 L150.8829 286.7723 L151.6471 283.0369 L151.8598 281.9087 L151.9096 281.4825 L151.9759 281.4511 L152.0885 281.4476 L152.1918 281.5452 L152.7027 283.1115 L153.0365 283.8246 L153.7212 285.6469 L154.0212 287.3081 L154.1571 288.4739 L154.3569 290.7734 L154.71 292.9592 L154.871 293.7762 L155.1326 294.5904 L155.2826 294.8604 L155.4902 295.1443 L155.6087 295.4171 L155.6005 295.6466 L155.5963 295.7708 L155.4381 296.1754 L154.3405 297.1752 L153.1724 298.087 L151.675 299.1795 L150.7219 299.7725 L150.4909 299.9163 L150.2572 299.9686 L149.621 300.0195 L149.4953 298.7589 L149.3677 295.3752 M149.7198 309.9609 L151.8044 308.4331 L151.9819 307.4543 L151.2657 306.726 L150.6903 306.8515 L150.5824 306.3667 L151.0137 305.7011 L152.0743 305.953 L152.3523 306.2969 L152.1662 306.8648 L152.1145 307.5561 L152.1456 308.3201 L152.8271 310.436 L149.7198 309.9609 M152.1868 307.7571 L152.2595 306.8871 L152.4232 306.2948 L152.4868 306.2578 L152.635 306.1727 L152.9272 306.1406 L153.2574 306.1797 L153.8035 306.3506 L154.1621 306.4636 L154.5257 306.6639 L154.9807 306.6988 L156.1324 306.6513 L157.0928 306.5809 L157.2369 306.5704 L158.8225 306.6039 L159.9883 306.5746 L160.6089 306.4929 L160.9999 306.5083 L161.3736 306.6241 L161.4994 306.9673 L161.8584 308.6612 L162.093 310.2274 L162.1996 310.6048 L162.5325 312.1103 L163.0768 314.1948 L163.401 315.8474 L163.5186 317.7896 L162.8431 318.04 L160.6496 318.8542 L157.0205 316.769 L154.3441 315.2845 L153.9252 314.6796 L153.3041 311.7036 L153.1362 311.0171 L153.0041 310.5985 L152.6752 309.7035 L152.2417 308.2308 L152.1868 307.7571 M162.8042 306.1065 L163.4399 305.1423 L164.2705 304.3868 L164.4507 304.2947 L164.6176 304.3365 L166.0509 305.8958 L166.5847 306.3137 L169.7962 309.5577 L169.8803 309.7955 L170.034 309.9016 L170.6249 310.113 L171.1792 310.4848 L171.6123 310.8301 L171.8483 311.1489 L172.0518 311.458 L172.2956 311.7956 L172.6286 312.1493 L173.3077 313.14 L173.798 313.915 L173.9846 314.1062 L174.1492 314.192 L174.3587 314.425 L174.6468 314.695 L174.9839 315.0933 L175.1143 315.2893 L175.0905 315.581 L174.8522 315.7979 L174.3294 316.1286 L173.4513 316.7746 L172.6619 317.3557 L171.2323 318.3665 L170.5865 318.7963 L170.4799 318.7997 L169.9334 318.3763 L169.1284 318.5751 L168.3624 318.8583 L166.565 319.7569 L166.2709 319.8406 L166.0175 319.7436 L165.7601 319.5336 L165.6768 319.2385 L165.7354 317.9298 L165.5387 316.0832 L164.844 313.8718 L163.9691 312.0984 L163.3837 310.8225 L162.9835 309.649 L162.9382 308.7965 L162.8883 308.0389 L162.8138 307.2108 L162.8042 306.1065 M165.6041 185.0933 L165.6462 184.8944 L165.9151 184.5294 L166.1547 184.2621 L167.1664 183.3158 L167.6828 182.8943 L168.1063 182.7673 L169.3333 182.5014 L170.0262 182.4511 L170.4045 182.3918 L172.1529 180.943 L172.6537 180.9227 L173.1065 180.8564 L173.2848 181.0016 L173.3507 181.0553 L173.4943 181.3261 L173.3612 181.7351 L173.3955 181.9082 L173.8547 181.6339 L174.79 180.5117 L175.1481 180.3295 L175.4733 180.2849 L175.9105 180.4531 L176.4776 180.9625 L176.6976 181.3143 L176.7607 181.6806 L176.8197 182.0226 L176.8549 182.2264 L176.656 182.673 L176.2124 183.2614 L175.8963 183.5831 L172.9304 186.6007 L170.0134 189.3901 L169.5963 189.6421 L169.1399 189.6721 L168.2988 188.769 L166.2947 186.0019 L165.8899 185.4429 L165.6041 185.0933 M177.7971 182.1999 L178.5019 179.0433 L179.3191 177.1834 L181.4614 175.8867 L183.2085 174.1392 L183.2085 176.6195 L182.7973 180.0811 L182.5833 182.1301 L182.532 183.0673 L182.0953 184.2489 L181.5121 185.3013 L180.7191 186.0787 L180.1204 186.3858 L179.6347 186.2567 L178.0225 183.4965 L177.7971 182.1999 M179.1591 251.3208 L179.6612 246.9131 L185.0077 245.1687 L185.3415 245.1268 L186.709 246.3968 L185.9768 247.4825 L181.2478 252.3877 L179.1591 251.3208 M179.4092 173.4357 L179.423 172.8837 L180.071 172.3386 L181.3951 171.5625 L182.7063 170.6399 L184.0404 169.503 L184.4401 169.7214 L184.4108 170.3377 L182.7529 173.0498 L181.5062 174.4539 L180.7497 174.9669 L180.3541 174.791 L179.7948 174.2062 L179.4092 173.4357 M182.5096 261.1226 L182.854 260.7577 L183.7669 259.9386 L184.3628 258.5299 L184.5489 258.3624 L184.8266 258.2361 L185.5117 257.8217 L186.0056 257.3744 L186.5439 256.7904 L186.9103 256.392 L187.5615 255.5959 L188.1963 255.0412 L188.629 254.7502 L189.6132 253.7957 L190.1478 253.3345 L190.8028 253.7357 L192.044 252.9996 L192.0939 252.9703 L192.151 253.2312 L192.1684 253.3101 L192.2215 253.3826 L192.4694 253.7238 L192.4927 253.9694 L192.5645 254.7167 L192.7959 256.1073 L193.0882 257.2656 L193.3475 258.1301 L193.4211 258.9492 L193.9846 259.7739 L194.7401 260.21 L195.1421 261.0557 L195.2592 261.5175 L195.2894 261.8552 L194.7538 262.5397 L194.7337 262.8056 L194.7776 263.0163 L194.9267 263.2102 L195.819 263.2123 L196.0902 263.2947 L196.5366 263.3679 L196.7803 263.3526 L196.9107 263.2647 L197.3296 262.4023 L197.4659 262.3144 L197.6571 262.2718 L197.8515 262.2669 L198.0495 262.3053 L198.2375 262.5788 L198.5727 263.9407 L198.982 264.1619 L198.9944 264.2994 L198.8622 264.7899 L198.7899 265.1743 L198.9555 265.8274 L199.3319 266.2474 L199.251 266.3737 L195.7874 267.9777 L195.1426 267.7454 L194.8787 267.6498 L193.76 267.5745 L192.6633 267.4649 L191.1334 267.2444 L190.6784 267.1837 L189.857 266.8488 L189.2894 266.7547 L188.9606 266.6584 L187.4284 266.7337 L186.8842 266.0583 L186.6797 265.7555 L186.6596 265.7255 L186.2992 265.4178 L185.7312 264.9713 L185.2025 264.6092 L184.6162 264.4417 L184.0257 264.2303 L184.3546 263.6275 L183.3562 262.7916 L182.9061 262.1134 L182.5179 261.2859 L182.5096 261.1226 M184.6509 175.1281 L184.7365 174.1908 L185.127 172.8962 L186.1007 170.6462 L186.8938 168.8141 L187.187 168.3717 L187.2766 168.4066 L187.6233 168.5399 L187.7989 171.1333 L187.39 172.8837 L187.0749 173.7819 L186.4575 174.537 L185.0978 175.2077 L184.6509 175.1281 M189.5423 273.2964 L189.6123 272.5338 L189.6621 272.3908 L189.7874 272.3168 L189.9361 272.2903 L190.1071 272.307 L191.0026 272.6294 L191.2935 272.6266 L191.3918 272.6259 L192.0866 272.5254 L192.822 272.3203 L193.7888 272.1766 L194.0216 272.1117 L194.1766 272.0154 L194.2521 271.8766 L195.293 271.4363 L195.6388 271.1593 L196.0362 270.4058 L196.0298 270.2097 L195.9992 269.2936 L195.7582 268.2129 L195.8053 267.9959 L199.3228 266.3465 L199.379 266.35 L199.5725 266.4079 L199.6886 266.5111 L199.8528 266.5907 L200.2279 266.7079 L200.7973 266.9654 L201.1499 267.0679 L201.4755 267.1754 L201.9498 267.4224 L202.2434 267.6861 L202.4428 267.8068 L202.6175 268.005 L202.7209 268.3859 L202.6957 269.1569 L202.57 269.6313 L202.4186 270.2028 L202.376 270.71 L202.4538 271.3651 L202.6395 272.3182 L202.7323 272.5115 L203.0913 272.8066 L203.1622 272.9671 L203.2413 273.1457 L203.2642 273.5406 L203.0918 273.9341 L203.0086 274.1936 L202.9935 274.4469 L203.3946 276.4709 L203.6415 277.8977 L203.6447 278.07 L203.6493 278.338 L203.5565 278.4217 L202.8114 278.4831 L201.4119 278.6024 L200.9098 278.7482 L200.5453 278.9575 L200.2137 279.2519 L199.9649 279.5575 L199.5638 279.7075 L198.9894 279.7466 L198.8357 279.8547 L198.7319 280.0278 L198.5722 280.2127 L198.334 280.4227 L197.3369 281.0736 L196.7927 281.1727 L196.1405 281.112 L195.6507 280.9731 L195.2958 280.9362 L195.0122 280.9913 L193.6571 281.2285 L193.0607 281.3011 L192.6976 281.2452 L192.3166 281.0101 L192.1588 280.5992 L192.0632 279.9796 L192.2434 278.8361 L192.2361 278.3324 L192.0125 277.9431 L191.4376 277.3458 L190.5238 276.54 L190.0838 275.6225 L189.9937 274.9688 L189.7038 274.0436 L189.5423 273.2964 M197.6365 290.0555 L197.7069 289.5909 L197.6672 289.09 L198.076 288.732 L198.4854 288.1509 L199.0735 287.5683 L199.4865 287.216 L200.3079 286.1723 L201.1503 285.2904 L202.0248 284.6144 L202.762 284.089 L204.0033 283.0599 L205.1265 282.1718 L205.9662 281.2724 L206.9313 281.1797 L207.7892 281.008 L208.5384 280.745 L208.7456 280.745 L208.9445 280.8657 L209.1403 281.1566 L209.2994 281.6025 L209.4494 281.8725 L209.9022 283.2364 L209.754 283.8734 L209.6443 283.9781 L209.4673 284.0381 L209.4453 284.0688 L209.5949 284.3806 L217.8821 285.4899 L219.0895 283.983 L218.0101 281.8132 L219.4462 281.2131 L222.7346 279.2177 L229.5907 279.6475 L230.0252 279.0622 L230.6673 278.3896 L231.2436 277.8391 L231.7339 277.0828 L231.8596 276.6621 L232.0851 276.4465 L232.4446 276.2505 L232.8246 276.2163 L233.0227 276.2546 L233.9822 276.8679 L234.1404 277.0933 L234.1757 277.4177 L234.0728 277.8838 L236.2845 279.1682 L237.1183 278.6456 L236.885 279.4096 L236.7666 279.9768 L236.7707 283.3899 L239.5697 284.7365 L238.6275 286.6272 L237.228 295.8434 L238.3988 297.7061 L237.3424 298.2503 L241.0469 298.9828 L240.1688 291.3085 L241.9159 285.2248 L242.5301 285.5932 L242.8374 285.4258 L242.9984 285.5374 L243.1809 285.8234 L243.2834 286.0453 L243.7178 286.3062 L244.0229 289.4834 L244.4313 294.0992 L246.8324 294.6504 L248.6851 300.2323 L248.9595 300.579 L249.1301 300.9418 L249.2669 301.4211 L249.4439 301.9213 L249.55 302.4097 L249.4859 302.6448 L250.268 305.0007 L250.3586 305.0579 L250.6119 305.2937 L250.9385 305.7179 L251.1228 306.022 L251.2559 306.5264 L251.2417 307.0699 L251.1836 307.4027 L251.1059 307.5248 L251.4059 308.4289 L247.9026 309.0219 L250.7839 311.4566 L249.7503 316.5981 L243.0044 312.7542 L240.7816 312.3007 L241.8015 310.745 L239.2861 309.5242 L232.3481 308.2475 L231.008 307.7522 L231.5386 302.0246 L230.3678 297.9154 L227.3492 307.1104 L223.384 308.2963 L210.4455 301.599 L207.5825 301.599 L198.1291 294.8945 L197.8862 291.8423 L197.8245 291.7132 L197.7353 291.1592 L197.6365 290.0555 M214.8027 183.6438 L214.8736 183.4219 L215.0867 183.2781 L215.2907 183.2823 L215.4334 183.3605 L215.6424 183.4212 L216.0097 183.4784 L216.5416 183.6124 L216.8567 183.8448 L217.7956 184.3431 L220.2608 185.3641 L221.6767 185.9342 L222.3504 186.2197 L222.9692 186.436 L223.5084 186.524 L223.9479 186.5072 L224.5086 186.4102 L224.6303 186.5065 L224.6111 186.7096 L224.4647 186.8994 L224.237 187.0823 L223.8258 187.1646 L223.1398 187.2037 L222.3787 187.2072 L221.5221 187.0885 L220.7748 186.8394 L220.1007 186.5805 L219.6671 186.4367 L219.0954 186.2992 L218.6207 186.1213 L218.2781 186.0187 L217.9004 185.9056 L217.5418 185.4388 L217.2148 185.1959 L217.0163 184.9984 L216.8709 184.9132 L216.8704 184.9132 L216.6463 184.782 L216.1478 184.521 L215.6333 184.2852 L215.1887 184.0402 L214.8965 183.9306 L214.8027 183.6438 M222.0229 170.2825 L222.0261 169.898 L222.1272 169.6935 L222.7547 169.1198 L223.2948 168.8386 L223.3717 168.6425 L223.4412 167.174 L223.5473 166.2507 L223.7234 165.8319 L224.0659 165.3092 L224.3316 165.171 L224.596 165.1229 L224.7881 165.1626 L224.998 165.2631 L225.2669 165.1068 L225.5765 164.9847 L225.8747 164.8758 L226.1738 164.8486 L226.4094 164.746 L226.8654 164.5031 L227.0419 164.3677 L227.0446 164.1904 L226.9395 164.0676 L226.7579 164.002 L226.3929 163.9971 L225.3803 164.1953 L225.1864 164.2065 L225.1631 163.9441 L225.304 163.623 L225.3799 163.2817 L225.3026 162.9802 L225.1036 162.6515 L224.9157 162.0946 L224.7913 161.3373 L224.7707 160.192 L225.3694 159.2309 L225.8386 158.9936 L226.3787 158.8506 L226.6829 158.6719 L227.0049 158.6866 L227.7545 159.1297 L228.0929 159.1877 L228.2905 159.0125 L228.3723 158.734 L228.0622 158.1443 L226.7972 157.9112 L226.5352 157.7904 L226.4217 157.6487 L226.5836 157.4205 L226.7414 157.2865 L227.0378 157.2977 L229.7394 158.2769 L229.9447 158.3969 L229.6872 158.748 L229.6351 158.9413 L229.7567 159.1074 L229.6561 159.3175 L229.4329 159.4892 L229.0126 159.4955 L228.5681 159.7244 L228.1135 159.91 L227.9877 160.2618 L228.0645 160.5577 L227.8976 160.9381 L227.6772 161.1468 L227.2162 161.472 L227.1576 161.7295 L227.3442 162.059 L227.6264 162.0527 L227.8446 161.9633 L228.1437 162.0059 L228.3778 162.0925 L228.4455 162.2181 L227.7563 162.7339 L227.2043 163.445 L227.154 163.7968 L227.2367 163.9469 L227.5624 163.8666 L227.9086 163.5902 L228.4885 164.1046 L229.0456 163.727 L230.0517 162.8239 L231.2326 161.8356 L232.3572 160.7134 L233.2939 159.5953 L233.4187 159.515 L233.5646 159.5269 L233.7421 159.679 L233.7439 160.712 L233.5656 162.7722 L233.0474 164.7425 L232.6262 166.6694 L232.6298 167.9732 L232.6829 168.3019 L232.9934 170.2162 L232.9125 171.1361 L232.8882 171.7056 L233.0423 172.8006 L233.1018 173.8161 L233.3565 174.9781 L233.3835 175.7004 L233.3575 175.8979 L233.2472 176.0026 L232.7528 176.3055 L232.5018 176.5462 L232.3824 176.66 L231.7668 176.942 L228.9157 177.1674 L227.7878 176.8526 L227.4197 176.2413 L229.4055 176.3627 L229.1649 175.2328 L229.0035 174.2976 L228.5873 172.5926 L228.2891 170.4738 L227.5441 170.4033 L227.4915 170.099 L227.2582 170.0885 L227.0387 170.1653 L226.8064 170.3642 L226.194 171.596 L226.0078 173.3596 L226.1784 174.7352 L225.9978 174.821 L225.7846 174.8273 L225.524 174.7938 L225.2065 174.5454 L224.9175 174.1238 L224.607 173.6039 L224.1313 173.3443 L223.5619 173.3701 L223.1279 173.0121 L222.7455 171.9694 L222.253 170.7467 L222.1062 170.5143 L222.0229 170.2825 M226.724 173.2591 L226.7538 172.116 L227.062 171.2059 L227.5235 170.4172 L228.2731 170.4856 L228.5548 172.5926 L228.971 174.2976 L229.1325 175.2328 L229.373 176.3383 L227.4151 176.2231 L227.143 175.8365 L226.8242 174.731 L226.724 173.2591 M236.2722 190.4565 L236.333 190.3651 L236.4299 190.2185 L236.6303 190.1369 L236.6842 190.1145 L236.8192 190.1396 L237.0062 190.1745 L237.3812 190.3309 L238.3252 190.208 L239.1068 190.1759 L239.9973 189.9435 L240.0924 190.1327 L240.193 190.1899 L240.6527 190.4523 L241.0977 190.6519 L242.5461 191.0943 L246.2337 192.1621 L247.1388 192.585 L247.4032 192.8006 L247.5171 193.0239 L247.5294 193.2996 L247.3359 193.8781 L246.6842 195.5809 L246.7322 195.911 L246.9682 196.1601 L247.2865 196.2076 L247.5349 196.1727 L247.7366 196.0408 L247.8354 195.8112 L247.9831 195.5649 L248.2767 195.3374 L248.4308 195.0205 L248.5159 194.4964 L248.4025 193.1579 L248.2685 192.5026 L248.4418 192.2598 L248.7899 192.0776 L249.1169 191.9918 L249.5742 192.0413 L250.0979 192.2884 L252.0293 193.317 L252.4857 193.8558 L252.8859 194.3931 L253.0492 194.7009 L252.9952 194.9298 L252.8511 195.0184 L252.6984 195.1468 L252.7414 195.3457 L252.8553 195.4881 L253.072 195.6458 L253.2499 195.6556 L253.4576 195.5732 L253.8651 195.4609 L254.1368 195.2459 L254.585 194.6374 L254.8461 194.4629 L255.0702 194.4427 L255.9973 194.8321 L256.7876 195.3122 L257.1146 195.5746 L257.2701 196.1825 L257.5893 196.3569 L258.1258 196.5879 L258.7802 196.8692 L259.2234 198.1023 L259.4603 200.752 L259.5335 202.2768 L259.6323 203.0765 L259.5509 203.579 L259.3643 203.9 L258.9234 204.304 L258.6028 204.5155 L258.4596 204.9502 L258.1454 205.445 L257.8733 205.7025 L257.4434 205.7793 L256.8305 205.4018 L255.6094 204.7653 L254.5941 204.4408 L254.1893 204.408 L253.8637 204.5629 L253.5111 204.9733 L253.0533 205.7577 L252.231 206.8902 L251.8244 207.2608 L251.3689 207.3648 L249.6863 207.3773 L245.2898 206.7584 L242.1272 205.6753 L238.928 204.6502 L237.2289 204.0172 L237.0469 203.8763 L236.9847 203.7437 L236.9431 203.489 L237.5418 202.5971 L237.8249 202.0361 L238.0133 201.4771 L238.0531 201.1456 L238.0494 200.6864 L237.7956 200.3061 L237.4992 199.9418 L237.3414 199.5859 L237.3346 199.2258 L237.5418 198.9425 L237.9319 198.8064 L238.6325 198.9139 L240.3353 199.3403 L240.7341 199.3738 L241.1507 199.3235 L241.6556 199.2091 L242.1715 199.0053 L242.5923 198.6522 L242.8086 198.1225 L242.6979 197.4456 L242.5639 196.9969 L242.2045 196.5635 L241.3954 195.8203 L240.4816 195.0777 L240.1985 194.8872 L239.9525 194.6814 L239.7695 194.1363 L239.4974 193.7637 L239.2783 193.5627 L238.9669 193.5215 L238.5187 193.5683 L238.311 193.7064 L238.0567 193.742 L237.5966 193.5815 L237.3616 193.414 L237.1594 193.1928 L236.4267 192.0413 L236.3252 190.9087 L236.2722 190.4565 M266.3535 304.6156 L266.4729 304.4726 L266.6727 304.3917 L266.6325 303.5196 L266.6641 303.2399 L267.1575 301.8034 L267.2513 301.3792 L267.3775 301.1727 L267.5317 301.0011 L268.3704 300.6174 L268.6814 300.5134 L269.34 300.36 L269.9748 300.0132 L270.0942 299.9121 L270.3659 299.6819 L270.6366 299.6198 L270.911 299.6191 L271.0702 299.6184 L271.7676 299.4112 L272.547 299.1398 L272.9165 299.1251 L273.6478 299.0156 L273.8257 298.8984 L273.8769 298.7679 L273.8358 298.5691 L273.8106 298.4463 L273.8038 298.0884 L273.8815 297.7661 L274.0599 297.4417 L274.2236 297.307 L275.265 297.1508 L275.7928 297.2226 L276.2863 297.3356 L277.061 297.2917 L277.6012 297.2177 L278.0365 297.2415 L278.3544 297.2129 L278.8035 297.1096 L279.1086 296.9373 L279.5504 296.7531 L279.8907 296.691 L278.7418 292.2874 L278.4335 291.9085 L277.9908 290.8355 L277.8618 290.1239 L277.8179 289.1667 L277.5074 287.8118 L275.5047 286.4018 L272.8557 284.569 L270.3814 280.0201 L271.3007 278.6317 L268.7761 272.8268 L269.6954 272.5966 L274.3265 275.0065 L274.2936 274.8816 L274.3809 274.8048 L274.5131 274.8118 L274.7532 274.9667 L279.8445 277.6779 L283.0505 278.9708 L283.6665 279.2624 L284.2634 279.6119 L284.734 279.9601 L286.0823 281.061 L286.5012 281.3192 L286.514 281.3478 L286.6036 281.3945 L287.3308 277.5782 L296.3635 273.392 L301.1794 268.7801 L302.4875 264.6078 L303.9418 260.1005 L305.5517 255.9141 L305.1845 255.1647 L302.9315 258.354 L302.2441 259.4579 L302.0425 259.7342 L301.8087 259.7174 L301.3304 259.4265 L301.3121 259.3958 L300.9206 258.915 L300.5858 258.6869 L300.2272 258.5368 L299.8627 258.5375 L298.8931 258.6499 L298.272 258.8697 L297.7324 259.1571 L297.2412 259.7809 L296.1316 261.4931 L295.174 263.0309 L295.05 263.0958 L294.8941 263.1098 L294.7326 263.0616 L294.5478 262.8893 L294.4285 262.7344 L294.1074 262.3178 L293.2915 261.0619 L291.6963 259.266 L291.2179 258.9687 L290.1522 258.6848 L289.3016 258.3708 L288.707 258.0463 L288.2981 257.6863 L287.7832 256.9132 L286.2186 255.5736 L284.321 254.2318 L282.6983 253.4329 L281.7498 252.8412 L281.3318 252.3395 L280.9256 251.6655 L280.5268 250.7291 L279.726 248.4831 L279.1141 247.3415 L278.9737 246.9633 L278.9727 246.5349 L279.1063 246.2021 L279.1209 246.1867 L279.3304 245.9676 L279.7919 245.6488 L280.1605 245.5525 L280.5332 245.5762 L281.8733 245.953 L282.6421 246.0479 L282.9618 246.0444 L283.2115 245.953 L283.3395 245.8406 L283.4104 245.7206 L283.4283 245.5678 L283.5865 245.018 L283.6697 244.8282 L283.9689 244.5868 L284.3672 244.4758 L284.7258 244.4814 L285.0349 244.5665 L285.3144 244.5289 L285.6917 244.3942 L286.6521 243.6846 L287.8948 242.6156 L288.4843 241.9702 L288.7184 241.6408 L288.9114 241.1949 L289.0441 240.994 L289.2279 240.8705 L288.9727 237.9447 L289.174 233.2228 L287.0514 232.4057 L287.3921 221.1461 L291.8769 218.5551 L290.4545 216.8245 L292.2702 214.2077 L291.1826 213.3703 L290.3594 213.0856 L289.3661 212.5134 L288.4902 211.9237 L287.6889 211.1072 L286.7024 210.616 L285.887 209.713 L284.466 208.5741 L283.7539 207.7751 L283.501 207.7597 L283.367 207.9482 L283.3715 208.1366 L284.2684 209.669 L284.8543 209.9 L284.9512 210.2824 L285.8943 210.9223 L286.3896 211.1924 L286.5913 211.7604 L286.5387 212.3005 L286.1596 213.0465 L285.4283 213.4401 L285.0628 213.498 L284.4541 213.1554 L283.9643 212.9474 L283.5344 212.9167 L282.8808 213.1268 L281.8284 212.1065 L281.0477 211.452 L281.7864 210.7869 L282.8735 210.2294 L283.3057 209.863 L283.5952 209.5155 L283.5024 209.3222 L283.3496 209.2985 L282.9544 209.3082 L282.7221 209.3794 L282.3988 209.0619 L282.2231 209.0654 L281.5101 209.1736 L280.2794 209.6746 L279.7274 209.7493 L279.394 209.6788 L278.922 209.3871 L276.7985 206.6251 L276.7377 206.244 L277.8504 205.6907 L278.3549 205.2168 L278.4747 204.9412 L278.4171 204.2426 L278.2071 203.138 L277.4045 201.3229 L277.3867 201.1275 L277.7708 200.6648 L278.6919 199.1442 L278.5625 198.7464 L278.6787 198.2886 L279.2074 197.7066 L279.6085 197.44 L280.0068 197.4756 L280.3979 197.6298 L280.9874 198.1127 L282.7404 200.2845 L284.7729 202.4415 L285.9373 203.5099 L286.4207 203.6558 L286.9965 203.4534 L287.3281 203.0947 L287.4626 202.9132 L287.7511 202.9677 L287.9766 203.3117 L288.4042 203.6292 L288.7934 204.2161 L289.0907 205.1345 L289.5577 205.4283 L289.9176 205.3871 L290.2625 205.5783 L290.5067 205.8316 L290.686 206.2517 L290.5707 206.5832 L290.7875 207.1812 L290.7779 207.9886 L290.8991 208.8791 L291.4031 210.4904 L292.0324 210.5727 L292.3192 210.5469 L292.4975 210.2915 L292.5757 209.5532 L292.7751 209.3906 L293.4946 209.2189 L294.9005 208.639 L295.3477 208.0193 L295.9533 207.5553 L293.104 200.5357 L293.3331 200.1232 L293.4077 199.7555 L293.9835 199.2433 L294.5085 198.8999 L295.152 198.4149 L295.2787 198.3793 L290.546 193.084 L288.2318 187.6964 L288.8767 183.4533 L293.136 181.4922 L293.2147 181.4182 L293.3459 181.3952 L294.7235 180.7608 L297.79 177.4982 L295.8522 174.8727 L291.5289 176.6628 L291.4891 176.6153 L291.4346 176.4506 L289.5714 172.2234 L291.6322 171.3399 L297.6921 171.4139 L300.1454 171.536 L303.2366 171.1682 L303.7598 171.6491 L304.0548 171.6121 L304.1019 173.1265 L304.1815 174.5119 L304.1728 175.3319 L303.9825 176.5776 L304.1572 177.621 L304.5497 179.1292 L304.7509 180.4726 L304.8497 181.4399 L304.9475 181.6206 L305.0395 181.8768 L305.0623 182.0435 L306.5487 185.6663 L306.8652 186.212 L307.6304 187.2518 L308.0443 188.1598 L308.5021 189.4864 L308.8661 190.3986 L309.1401 190.7963 L309.2617 191.453 L309.4808 192.2905 L309.6692 193.2061 L309.8339 194.6283 L309.977 195.5286 L310.1938 196.5488 L310.3603 197.7122 L310.8881 197.9927 L311.1469 197.8748 L311.2293 197.8378 L309.7593 192.9234 L309.7383 190.4279 L312.3388 189.1766 L310.4989 186.3062 L310.7198 185.2022 L311.4849 185.1045 L313.1026 185.1631 L314.4687 185.9203 L316.0808 188.328 L316.1764 188.3636 L319.7387 187.8429 L320.6658 190.2192 L319.9857 202.4073 L322.0621 206.6223 L326.4206 208.4506 L325.0966 209.8833 L324.7289 210.1777 L324.3854 211.0361 L324.0104 211.6397 L323.2388 212.2342 L321.7804 213.9641 L321.0788 214.4805 L320.6045 214.939 L320.2094 215.1567 L319.8673 214.8329 L319.0939 215.4289 L320.0273 217.5761 L320.181 217.7303 L320.47 218.4351 L320.513 218.6933 L320.8958 219.5739 L319.3271 220.3694 L317.9574 219.1427 L317.0312 218.479 L316.1362 217.7401 L315.3578 217.0415 L314.1934 215.7722 L312.2519 214.0332 L311.7891 213.833 L312.0077 214.1351 L312.3521 215.0018 L312.4211 215.0869 L312.4156 215.186 L312.5428 215.5552 L312.6777 216.2928 L312.7733 217.223 L312.6589 217.844 L312.2944 220.8 L312.3086 221.7315 L312.251 222.7762 L312.2743 223.2039 L313.935 225.6378 L316.0068 224.5004 L316.16 224.5472 L316.3617 224.5618 L316.5922 224.6798 L317.237 224.7293 L318.1156 224.7195 L318.3699 224.8228 L318.5752 225.0705 L318.5917 225.2554 L320.7088 226.4173 L320.9187 227.4912 L322.3502 227.8345 L323.001 228.0473 L322.9882 227.9776 L323.345 228.1318 L323.4209 228.1841 L324.8515 228.6516 L326.4371 229.2657 L327.1506 229.5287 L327.4158 229.6006 L327.7154 229.5162 L327.8416 229.1457 L328.0122 229.1066 L331.1076 224.4076 L333.2667 223.9903 L333.57 224.4495 L333.6244 224.4879 L333.837 224.6895 L333.8329 224.8472 L334.1746 225.3643 L335.4012 226.5666 L336.4275 227.2498 L339.6495 229.8386 L339.7135 229.7946 L340.7677 230.2935 L344.3397 228.9942 L349.7501 228.6035 L349.4849 224.947 L352.7046 223.9261 L353.1391 223.5807 L353.3943 223.4342 L353.7698 223.3204 L354.1347 223.4684 L357.4702 222.407 L362.9452 230.0744 L363.2461 230.2942 L365.1606 232.2522 L364.9429 232.8719 L365.7666 234.0253 L365.4098 234.4468 L365.6266 234.737 L364.1247 237.113 L360.759 239.9445 L356.7888 244.6384 L356.1402 244.6649 L355.6422 244.9301 L354.3543 245.1401 L353.4615 245.415 L352.3808 245.4115 L351.709 245.2008 L350.9973 244.877 L345.9587 245.085 L345.8315 244.9552 L345.3088 244.9782 L345.199 244.3091 L342.899 241.959 L336.2894 243.993 L336.6283 244.3781 L335.8041 244.6852 L334.4723 244.9405 L332.7641 245.078 L328.771 247.1573 L328.9329 247.2864 L328.9608 247.3262 L328.5652 248.9129 L328.1503 249.7488 L330.4417 255.5184 L330.7124 255.4549 L330.5981 256.6369 L330.481 257.2272 L330.4549 258.2759 L331.0888 259.3071 L331.2983 259.4153 L331.6225 259.67 L332.304 260.27 L333.2699 260.8889 L333.5777 261.1701 L333.6514 261.5734 L333.0545 261.7987 L332.7403 261.9913 L333.7703 263.6658 L333.1693 264.8464 L333.3866 264.875 L333.1391 266.9437 L332.1695 267.9931 L332.1727 267.991 L331.5466 269.1764 L329.2416 269.8113 L328.7316 269.7834 L325.9541 270.5523 L324.7632 270.1686 L320.9983 269.002 L320.0507 268.8087 L320.0726 268.709 L318.7774 268.2994 L318.5057 268.4627 L316.6896 270.2125 L315.3216 271.8473 L314.867 272.524 L314.3406 273.7366 L314.304 274.8048 L314.3159 275.289 L313.5961 276.9656 L313.1648 277.874 L312.7957 278.2549 L312.4124 278.2682 L311.5535 282.9936 L311.9061 283.1304 L311.7401 284.1978 L311.8439 284.6325 L312.2299 284.9269 L312.4508 285.2032 L312.583 285.5855 L312.3361 285.9797 L312.0383 286.5539 L312.0552 286.5595 L312.0502 286.7876 L313.1437 290.6527 L312.6804 291.1774 L312.6827 291.9769 L312.7605 292.2853 L312.7609 292.5685 L312.5711 292.9069 L312.3333 293.1295 L311.9034 293.3067 L311.3413 293.4141 L310.551 293.6785 L307.4849 297.2798 L307.4721 297.3517 L306.9956 297.854 L305.8215 299.2479 L304.5035 299.0254 L299.9354 298.1038 L298.1929 294.8597 L297.8728 296.5689 L297.5279 296.915 L297.404 297.1403 L297.2412 297.3566 L296.9869 297.4703 L294.5113 300.0084 L293.1163 304.55 L285.5257 306.2551 L285.436 306.3213 L285.4118 306.2809 L285.1356 306.343 L284.8017 306.6081 L283.6825 304.6903 L283.1141 304.7977 L282.3169 305.0147 L281.6826 305.6446 L281.1063 306.509 L280.8918 306.9876 L280.4445 307.6078 L279.9432 308.3961 L279.3075 309.2905 L278.6252 310.0893 L276.986 311.7098 L276.5767 311.9108 L276.2117 311.8996 L275.8211 311.8145 L274.3151 310.9864 L273.7809 310.6313 L273.335 310.2113 L272.8086 309.6602 L271.5234 308.9821 L270.3407 308.5405 L269.3144 308.2294 L268.5598 308.0766 L267.9048 308.0598 L267.2435 307.6154 L266.9819 307.3622 L266.7862 306.9952 L266.5895 306.4148 L266.3535 304.6156 M280.1705 315.4163 L280.2186 314.6657 L280.3658 314.0636 L280.9151 313.7316 L281.4365 313.516 L281.9634 313.3618 L283.5911 313.1274 L283.7361 314.056 L283.6281 314.7326 L283.6272 315.417 L283.5124 316.3162 L283.4209 317.8705 L283.3427 318.3847 L282.5977 318.4782 L281.6359 318.7244 L280.6933 318.889 L280.5053 318.5681 L280.3933 318.0094 L280.2689 316.1188 L280.1705 315.4163 M300.3146 364.7282 L300.3374 364.2985 L300.3214 363.8479 L300.3749 363.3541 L300.4719 362.9426 L300.5643 362.3357 L300.5208 361.7163 L300.7102 361.65 L300.8318 361.6514 L301.0056 361.6849 L301.1671 361.8537 L301.2631 362.1139 L301.3272 362.522 L301.672 363.006 L301.9043 363.2906 L302.2711 363.6268 L302.5057 363.7496 L302.7564 363.8249 L303.0102 363.8019 L303.2993 363.6296 L303.7854 363.2069 L303.9025 363.6973 L303.8952 364.0279 L303.9802 364.5706 L304.0004 365.0693 L303.8129 365.4285 L303.5128 365.7487 L303.5352 366.1379 L303.6249 366.5941 L303.5416 367.0293 L303.1886 367.3055 L302.9887 367.2497 L302.7911 366.9498 L302.5314 366.7657 L302.1458 366.5439 L301.8129 366.4999 L301.4273 365.7285 L300.9892 365.462 L300.5003 365.4446 L300.3823 365.2109 L300.3146 364.7282 M300.8863 361.1994 L300.9229 361.0864 L301.6327 360.6554 L301.9418 360.6275 L302.3521 360.9762 L303.0088 361.5796 L303.5627 362.3741 L303.6917 362.5973 L303.7744 362.8247 L303.6349 363.0095 L302.9014 363.6066 L302.5021 363.6743 L302.2647 363.5466 L301.5325 362.4159 L300.9407 361.3738 L300.8863 361.1994 M309.0459 133.9209 L309.1149 133.7931 L309.4209 133.7659 L309.8101 133.7715 L310.2588 133.6905 L310.6553 133.6284 L310.9901 133.6249 L311.3125 133.6368 L311.5636 133.7485 L312.0603 134.0535 L312.17 134.2322 L312.0305 134.325 L311.6294 134.3341 L311.3367 134.3606 L311.0646 134.466 L310.8364 134.6077 L310.6635 134.623 L310.5259 134.5812 L310.3251 134.4381 L310.0703 134.2859 L309.8128 134.2552 L309.5796 134.1952 L309.2668 134.1428 L309.0966 134.0374 L309.0459 133.9209 M309.5238 148.5433 L309.5558 147.8726 L309.57 147.5815 L310.0575 146.9199 L310.4056 146.5234 L311.2544 145.2629 L311.9029 144.5049 L312.186 144.7974 L312.4358 145.0556 L313.0486 145.5868 L313.2773 145.8248 L313.5032 145.9623 L313.7442 146.1989 L313.6491 146.6107 L313.4218 147.0909 L313.0111 147.5564 L312.8327 148.2341 L312.6374 148.7932 L312.4316 149.5868 L312.1956 150.2512 L311.6862 151.16 L311.3303 151.2081 L311.27 151.2165 L310.8144 150.9673 L310.2821 150.5674 L309.9999 150.1521 L309.608 149.2797 L309.5238 148.5433 M309.9853 309.4146 L310.1934 308.6961 L310.6562 308.0836 L310.6525 307.4355 L312.2597 307.4473 L312.0932 308.6291 L312.3136 311.0994 L313.7323 312.9698 L313.3162 313.0325 L310.1664 310.0732 L309.9853 309.4146 M312.572 177.1855 L312.8272 176.9119 L313.1094 176.5525 L313.6034 176.2441 L313.9834 175.8567 L314.0328 175.4931 L313.7785 174.1238 L313.7817 173.5941 L313.6473 173.1077 L313.838 172.959 L314.2931 172.8488 L314.7655 172.5103 L315.2919 172.28 L315.6967 171.9603 L316.6237 171.3664 L317.109 170.6741 L317.1895 170.2386 L317.7836 169.6105 L318.4728 169.2036 L318.9562 168.9837 L319.404 169.0061 L320.0433 168.9174 L320.5286 168.7227 L320.6681 168.2439 L320.3383 167.9271 L319.8654 167.6465 L319.8476 167.2843 L320.3301 167.0582 L320.4097 166.6855 L320.1517 165.9778 L319.9482 165.8068 L319.8814 165.0565 L320.3063 164.1869 L321.232 163.2217 L321.7159 162.6613 L322.3429 162.4351 L322.8185 162.2034 L323.0619 162.112 L323.2613 162.0946 L323.4579 162.045 L323.6541 162.2041 L323.9706 162.5789 L324.2272 162.7073 L324.3603 162.8651 L324.5505 163.1631 L324.5793 163.4192 L324.5089 163.898 L324.3854 164.2749 L324.3969 164.7523 L324.5551 165.261 L324.3209 166.3658 L323.8586 166.3952 L323.6765 164.7097 L323.3321 164.3691 L323.1273 163.9713 L322.819 164.0369 L322.7637 164.2623 L322.5684 164.753 L322.5853 165.1543 L322.2734 165.9513 L321.8741 165.7726 L321.5695 165.8822 L321.3829 166.1823 L321.8581 166.7197 L321.8906 167.0882 L321.6898 167.5097 L321.2887 168.1567 L321.1652 168.6027 L321.2635 169.0033 L321.2741 169.4751 L321.5791 169.9329 L321.9226 170.0529 L322.4623 169.9043 L322.7733 169.6558 L322.9814 169.2399 L323.3422 168.6404 L323.4195 168.1672 L323.6651 167.9627 L323.9121 168.1232 L324.0776 168.2907 L324.2885 169.0347 L324.4934 169.5707 L324.5126 170.136 L324.7787 170.3768 L325.3459 170.0425 L325.6381 169.5811 L325.5448 168.676 L326.0529 167.8936 L326.0689 167.1594 L326.3822 166.638 L326.6804 166.3149 L326.846 166.3603 L327.1666 167.3457 L327.2407 167.9697 L328.1179 169.4911 L329.2416 172.5096 L329.6994 173.1363 L330.0566 174.3897 L330.5144 174.664 L330.9059 174.5468 L331.1625 174.3262 L331.0317 173.7735 L330.7197 173.234 L330.4833 172.4865 L330.4444 172.1878 L330.2436 171.4871 L330.1645 170.5994 L329.8585 169.9845 L328.9964 168.0702 L328.6443 167.3583 L328.3319 167.0275 L328.0548 166.5983 L327.9436 166.199 L327.7858 165.7656 L327.4707 165.1194 L327.1817 164.2756 L327.516 163.7982 L328.1238 163.7165 L328.2052 163.7054 L328.5386 163.8519 L328.6713 164.0725 L328.8263 164.33 L329.167 164.545 L330.3054 165.4139 L330.7463 165.7077 L330.9059 167.0735 L331.3225 167.8063 L330.5176 169.0619 L330.3539 169.6942 L330.3598 170.1095 L330.5921 170.6748 L331.2594 170.8981 L331.8778 171.1389 L332.2075 172.2311 L332.6187 173.1077 L332.7769 173.1942 L333.2018 173.0937 L333.5407 173.1635 L333.9006 173.1126 L334.2006 172.9534 L334.4641 172.9486 L334.9196 173.3366 L335.993 173.6053 L336.5725 173.6227 L337.5466 173.1321 L337.9015 172.6722 L338.3154 172.0992 L338.5153 171.3818 L338.593 170.963 L338.9886 169.1156 L339.0179 168.9865 L338.9886 168.0087 L338.9575 166.9695 L338.9886 166.8642 L339.2809 165.8752 L339.1359 164.8109 L338.8844 163.6111 L338.2619 163.043 L338.1311 162.5629 L338.17 162.2118 L338.4417 161.9557 L338.7627 161.8196 L339.2512 161.7316 L339.8526 161.9236 L340.4549 162.336 L339.6747 162.7464 L339.5727 163.0828 L339.5974 163.3641 L339.7927 163.5106 L340.0323 163.5902 L340.5505 163.1973 L340.7389 162.9153 L340.99 162.7729 L341.2329 162.4679 L341.5768 162.588 L342.5537 163.1184 L343.6106 164.189 L343.805 164.4682 L343.8846 164.7948 L343.8384 165.2652 L343.7236 165.811 L343.4181 166.9661 L343.1542 167.2487 L342.5642 167.7484 L342.4069 167.8133 L342.1467 167.8552 L341.6555 167.9815 L341.1268 168.394 L339.7501 168.9523 L339.7977 169.3453 L340.7632 169.3906 L341.0728 169.4827 L341.1579 169.8722 L341.0472 171.4083 L340.9809 172.3267 L341.1483 174.6305 L340.9877 175.0953 L340.8588 175.4694 L340.9685 175.9258 L341.2297 176.6014 L341.2964 176.9992 L340.9726 177.3118 L340.3868 177.5784 L338.62 177.7055 L337.9335 177.3321 L337.2004 177.2846 L336.4535 177.5024 L335.5558 177.5135 L334.8684 177.2728 L333.6591 177.0976 L332.594 177.0606 L332.1897 177.2483 L331.4149 176.6426 L330.9937 176.3034 L330.6406 176.2217 L330.3461 176.2985 L329.9624 176.5093 L329.3504 177.9176 L327.3321 178.2952 L326.3708 177.9406 L325.9111 178.0698 L325.6317 177.6594 L324.2633 176.2894 L323.6139 175.9126 L323.1885 175.3019 L322.218 174.9857 L321.9537 174.6249 L321.9788 173.8544 L321.8069 173.4036 L321.4959 173.0944 L321.1748 172.6596 L320.674 172.2569 L320.0502 171.954 L319.6143 172.2765 L319.543 172.8187 L320.3827 174.1811 L320.5958 175.6041 L321.0952 175.9942 L323.2626 176.8331 L324.3763 177.9804 L325.1524 179.3595 L325.1634 179.379 L324.8396 179.7915 L324.2926 179.8592 L323.7808 180.0378 L323.2224 180.1195 L322.98 180.0197 L322.7202 179.9122 L321.9532 179.483 L320.717 179.0775 L319.9423 179.1278 L318.974 178.5534 L318.6242 178.5094 L318.0735 178.5332 L317.4803 178.9268 L317.044 179.2848 L316.6955 179.4146 L316.3301 179.349 L315.9811 179.446 L315.1785 179.2527 L314.6342 179.0405 L314.4691 179.0224 L314.1266 178.7991 L313.832 178.8758 L313.4264 178.7676 L313.1181 177.919 L312.7074 177.6098 L312.572 177.1855 M313.7104 307.9915 L313.8554 307.3294 L319.1588 307.4243 L316.2135 309.3491 L315.8705 310.0802 L315.9848 311.211 L316.4755 312.4382 L315.1195 311.8849 L314.46 310.5957 L314.0045 310.0655 L313.7104 307.9915 M315.8897 159.7565 L315.9144 158.9036 L316.2551 158.0724 L316.9338 157.722 L317.591 157.3416 L317.8773 157.0918 L318.17 156.2242 L318.4957 155.7922 L319.1533 154.9959 L319.8705 154.2253 L320.6347 153.6432 L320.6763 153.6111 L320.9768 153.5972 L321.3774 153.8638 L321.6294 154.2972 L321.956 154.8577 L322.1407 155.238 L322.3735 155.52 L322.664 155.6764 L323.1428 156.5411 L323.9962 157.3026 L323.6733 157.6278 L323.3395 158.1806 L323.2919 158.7012 L323.1359 159.7739 L322.9306 160.0761 L322.4636 160.1243 L322.1307 160.1983 L321.9203 160.444 L321.5906 161.324 L320.7966 162.0757 L319.6486 162.4498 L318.6704 162.4686 L317.8229 162.1741 L317.6912 162.1281 L316.8684 161.2187 L316.6429 160.8816 L315.8897 159.7565 M319.645 308.7561 L319.7204 308.0745 L321.1309 307.4034 L326.0639 304.2633 L327.2951 304.3345 L328.3273 304.9163 L329.0925 306.1706 L330.7088 306.1295 L332.7522 307.3727 L333.0595 308.0717 L334.6443 309.356 L335.6047 310.5148 L334.4952 310.5888 L331.934 309.34 L330.5995 308.1108 L329.6692 309.1175 L327.945 310.0613 L326.8684 310.0795 L325.8403 310.549 L324.6502 308.0996 L324.9969 306.7971 L324.0424 306.779 L323.4895 310.0453 L322.2629 310.0258 L322.3754 308.6926 L319.645 308.7561 M324.6937 159.6281 L324.739 158.6747 L325.6216 156.9201 L325.9317 156.3157 L326.4828 154.8863 L326.9402 153.7821 L327.001 153.667 L327.3683 152.9697 L327.4533 152.8085 L328.2537 152.976 L328.7371 153.1784 L328.8162 153.3501 L328.9548 153.6502 L328.8794 155.7615 L328.2898 157.7492 L328.2619 159.1256 L327.0042 161.16 L326.739 161.7072 L326.5153 162.0862 L326.1508 162.544 L326.0465 162.6766 L325.4588 162.5021 L324.9233 160.7413 L324.6937 159.6281 M326.3232 128.8556 L327.1922 127.8197 L327.7579 127.4037 L328.3173 126.7155 L328.6173 126.4237 L329.0038 126.2332 L329.7131 125.3139 L330.6242 124.2208 L331.5791 122.9609 L331.6774 122.8304 L332.1956 122.5931 L332.6584 122.9344 L332.9214 123.3609 L332.8633 124.084 L332.846 124.2997 L332.7646 124.5622 L332.6681 124.8756 L332.2903 125.226 L329.4579 128.1255 L329.1917 128.4451 L329.1826 128.7097 L329.2237 128.8046 L329.6043 129.1473 L330.8149 128.2762 L332.6255 125.8667 L332.9731 125.6315 L333.4373 125.7662 L334.7147 126.49 L335.1551 126.7958 L335.1972 126.8251 L335.1967 127.1022 L335.0184 128.2022 L334.5926 129.5598 L334.1522 130.9642 L334.2541 131.2224 L334.282 131.2929 L334.6383 131.6266 L335.7062 130.3528 L335.7415 130.2076 L336.7065 127.4016 L338.1865 124.7611 L339.5064 123.1327 L340.0438 121.8406 L340.3474 121.0205 L341.167 121.0463 L341.6422 121.0226 L342.6122 120.913 L343.1757 121.024 L343.6125 121.4135 L343.8393 121.7017 L343.9317 122.1722 L342.9081 124.7911 L343.0271 125.5617 L343.1583 125.6915 L343.3303 125.8625 L343.3399 126.4607 L343.0586 127.6075 L342.32 129.5452 L341.837 130.9621 L341.7936 131.8171 L341.5398 132.4195 L340.8871 133.2389 L340.432 133.8106 L339.532 135.8389 L339.5155 136.502 L339.2356 137.6613 L339.1423 137.884 L338.8894 138.2155 L338.4261 138.3768 L337.9925 138.7997 L337.9184 139.802 L337.6491 140.4623 L337.1021 140.9341 L336.6081 140.4679 L336.4289 140.1503 L336.1174 139.3337 L336.1782 139.0322 L336.5478 138.665 L337.1492 137.7981 L337.5384 136.3826 L337.7799 135.3036 L337.8165 135.1437 L337.9436 134.5881 L337.8023 133.6368 L337.2201 132.8132 L336.6969 132.4802 L335.3015 131.5924 L334.9342 131.7704 L334.5606 132.6484 L334.3625 133.1133 L334.637 134.4437 L334.6612 134.5609 L334.4801 134.8541 L333.8485 135.8759 L333.1506 135.7998 L332.4234 134.0563 L332.5116 133.3548 L332.8597 132.8194 L333.3138 132.275 L333.8992 132.3546 L334.2002 131.7857 L333.4291 131.0989 L332.9187 130.4512 L331.9153 129.6966 L331.4382 129.7706 L330.8153 130.1427 L330.4522 130.4833 L329.7739 130.2041 L328.6873 128.8709 L328.213 128.9072 L327.6605 128.9121 L326.4723 129.1194 L326.3232 128.8556 M331.505 120.6519 L332.3008 119.3585 L334.1028 115.8189 L335.8169 116.6481 L337.6509 117.2875 L337.8014 117.3399 L336.4732 120.3176 L335.3189 122.9065 L333.1862 121.6026 L331.505 120.6519 M332.3904 179.5416 L332.8359 178.3266 L333.0156 177.7152 L335.8553 178.1465 L337.832 178.1109 L339.0902 178.1828 L341.6061 178.2184 L342.1092 178.7216 L341.8219 179.8717 L340.9589 181.2019 L339.8809 182.0645 L337.3289 182.2801 L335.7835 182.4595 L333.4469 182.3157 L332.6923 181.8125 L332.4408 181.0218 L332.3904 179.5416 M336.974 155.3574 L337.1085 154.0474 L337.2493 153.4269 L337.7515 152.5977 L338.4183 152.0017 L339.2224 151.3309 L339.5974 150.3894 L340.4019 148.1371 L340.62 147.3889 L340.7787 146.6316 L341.1492 145.7117 L342.3456 142.2826 L343.4926 139.4558 L343.8357 138.4556 L344.148 137.8086 L344.4215 136.257 L345.1638 134.8911 L345.9299 133.7903 L346.4124 133.003 L347.087 131.7683 L347.7039 130.8462 L348.3131 130.1615 L349.1862 129.7022 L349.644 128.836 L350.175 127.4058 L350.9255 125.6671 L351.1885 124.6948 L351.3531 123.772 L351.2726 123.0984 L351.3659 122.7599 L351.7556 122.3223 L352.1681 122.2978 L352.7801 122.8856 L353.6394 124.0687 L353.9143 124.5419 L355.3197 125.4375 L356.8322 126.3218 L356.3895 127.1601 L355.4194 128.6385 L353.9134 130.6682 L352.6241 132.5354 L350.604 135.8347 L348.8318 138.5171 L347.0197 141.3369 L345.6751 143.5089 L344.5272 145.4304 L343.7263 146.901 L343.0417 148.4079 L343.5105 148.2181 L343.0069 149.815 L342.6653 151.3624 L342.6735 151.4943 L342.99 151.4524 L343.4748 149.2531 L344.3163 147.2765 L346.0067 144.2376 L347.5105 141.757 L347.2662 141.5477 L350.2912 136.9389 L352.9616 132.7964 L354.899 130.0659 L356.0323 128.605 L356.6749 127.4728 L357.1089 126.5354 L357.6248 126.9765 L359.445 128.3635 L360.6515 129.185 L360.9104 129.3665 L361.0508 129.4335 L361.0087 129.497 L360.1265 130.8302 L355.7135 137.1148 L354.8537 138.4556 L352.9484 141.6461 L353.2543 141.8834 L356.0794 137.3361 L356.9493 136.0043 L360.9168 130.3144 L361.2717 129.7267 L361.36 129.5801 L361.5864 129.6876 L361.456 129.8879 L360.9795 130.6208 L356.1398 137.5357 L353.3952 141.993 L353.5342 142.1018 L356.3552 137.5762 L358.6328 134.2859 L361.0211 130.9279 L361.5928 130.0072 L361.7446 129.7629 L362.2161 129.987 L363.0654 130.7743 L364.9269 132.624 L366.4361 133.9069 L367.9335 135.0586 L368.3199 135.0928 L368.7992 135.3964 L369.5164 135.9687 L369.8973 135.9408 L370.2362 135.8668 L370.5889 136.0874 L370.8326 136.5697 L371.0942 136.8929 L371.0942 137.4596 L371.0119 138.0152 L371.0261 138.6001 L371.1066 139.0454 L370.8121 139.897 L370.3099 141.6544 L370.1228 143.0699 L370.1004 143.5166 L370.008 144.3123 L369.8054 144.8602 L369.6307 145.5812 L369.4244 145.9462 L368.4928 148.2544 L367.612 149.7257 L367.0069 150.5485 L366.5166 151.0399 L365.9294 151.3638 L365.5653 151.5096 L365.097 152.0771 L364.7375 153.0898 L363.7524 153.8778 L363.344 153.8212 L362.9822 153.4178 L362.8038 152.9823 L362.8674 152.6501 L362.1334 153.5372 L361.408 154.3524 L360.6836 155.3183 L359.3508 157.4296 L359.1638 158.3334 L359.5127 160.7287 L359.5855 162.8344 L359.4231 163.3236 L358.9914 164.2491 L358.6515 164.5889 L358.3931 164.9218 L357.992 165.0405 L357.4002 165.0733 L356.3479 164.062 L355.859 163.3166 L355.8242 162.6976 L356.1078 161.2068 L356.3918 160.4663 L356.733 159.9128 L357.1162 159.1479 L357.1244 158.7633 L357.4121 158.5316 L357.757 158.6489 L358.0602 158.4583 L358.4114 157.9677 L358.5532 157.4798 L358.7284 156.6095 L359.1281 155.1592 L359.06 154.8556 L358.405 155.5598 L357.5818 156.6863 L355.3865 159.1137 L354.2779 160.9904 L354.1535 162.0722 L354.3776 162.752 L354.9086 163.7061 L356.4919 165.2589 L357.4976 167.0282 L358.1032 167.5802 L358.1704 167.9697 L358.3323 168.283 L358.3305 168.6864 L357.9564 169.0033 L357.5608 169.0766 L357.1944 169.4751 L357.0376 169.9741 L357.3609 170.4305 L357.9362 170.9644 L358.6927 172.0504 L358.1956 173.7581 L357.676 173.8049 L355.6765 173.2403 L354.4448 172.6708 L354.1622 172.5403 L353.0453 171.7056 L352.5006 171.023 L352.1892 170.099 L352.1068 169.1778 L352.1736 168.2677 L352.877 167.5614 L352.9452 166.9884 L352.925 166.2653 L353.1748 165.4746 L353.3522 164.5513 L353.5374 162.9844 L352.9337 162.7674 L352.6612 163.3027 L352.2445 163.4988 L351.9614 164.0522 L351.8475 165.0328 L351.5914 165.3329 L351.3239 165.9241 L351.1167 166.6269 L350.9557 167.2927 L350.6776 167.449 L350.4586 167.5307 L350.3017 167.3911 L350.1841 167.1712 L350.2139 166.7741 L350.9575 164.1074 L351.2923 163.0905 L353.0755 160.7636 L354.0414 158.9818 L354.3282 158.1059 L354.2065 157.5119 L353.939 157.334 L353.5846 157.4477 L353.3865 157.9063 L352.9086 158.3969 L352.2706 158.4981 L351.9879 158.9204 L350.7645 160.4921 L349.8384 162.2258 L349.4656 162.7004 L348.8528 162.5915 L348.3021 161.7261 L348.5377 160.8871 L350.1887 157.9377 L350.7481 157.7018 L351.413 157.4784 L352.0465 156.8984 L352.6511 156.0002 L353.1359 155.0405 L353.1807 154.8067 L353.7167 153.7668 L353.5315 153.7626 L352.765 154.5478 L352.5281 155.0405 L351.6948 156.1237 L351.2168 156.6137 L350.8318 156.8056 L350.2957 156.5013 L349.6568 157.1567 L349.0591 158.1366 L348.6223 158.6614 L348.138 159.032 L347.5265 159.7886 L346.0287 161.4497 L344.7677 162.3053 L344.0867 162.5105 L343.3134 162.3737 L342.5363 161.9689 L340.3987 161.294 L339.7977 161.2445 L339.0856 161.1021 L338.476 160.8627 L338.0557 160.654 L337.5731 160.2527 L337.462 158.9308 L337.215 157.2893 L337.0449 155.9555 L336.974 155.3574 M368.33 156.3534 L368.4146 155.892 L368.6822 155.5151 L369.4405 154.7167 L369.6678 154.1102 L369.7574 153.6356 L369.9431 153.0681 L370.3588 152.6996 L370.6332 152.6752 L371.0 152.8441 L371.2406 153.2887 L371.209 154.2749 L371.1153 154.7055 L371.1377 154.9002 L371.1697 155.1731 L371.3613 155.3511 L371.9861 155.5912 L372.2701 155.5891 L372.4384 155.5884 L372.7791 155.6778 L372.8217 155.9255 L372.8957 156.3541 L372.8633 157.1888 L372.9058 158.0172 L372.9053 158.5086 L372.7814 159.8682 L372.8006 160.2255 L372.6936 161.6339 L372.5221 162.8085 L372.0506 164.5715 L370.8765 165.1487 L370.705 165.6184 L370.5317 166.4273 L370.1608 167.2676 L369.6568 167.366 L369.5617 167.3841 L369.1885 167.2159 L369.0435 165.5905 L369.0727 165.4446 L369.183 164.8974 L369.3293 163.8575 L369.3183 163.0326 L371.2808 162.5608 L371.3728 162.1811 L370.9749 160.8173 L369.7025 158.5246 L368.9314 157.4149 L368.33 156.3534 M374.8646 174.5844 L374.8733 173.9968 L374.9666 173.3743 L375.0485 173.056 L375.2392 172.3156 L375.4103 171.3887 L375.5241 170.9832 L375.9207 170.9595 L376.0725 170.7892 L376.2408 170.4214 L376.3991 169.9413 L376.4466 169.674 L376.6968 169.549 L377.359 168.5887 L377.9659 167.3988 L378.5029 166.7546 L378.9799 166.3959 L379.4414 167.1357 L380.3711 168.8986 L381.0357 169.7277 L381.6275 170.5882 L382.0121 171.2184 L381.718 171.7447 L381.6892 172.1062 L381.8914 172.4126 L382.5623 172.691 L384.0112 173.5467 L385.6632 175.3438 L387.4875 177.0641 L391.9618 180.2493 L393.8603 181.4482 L392.3542 184.4485 L391.5795 185.8652 L390.3355 185.6998 L389.1125 185.4374 L387.2996 184.8372 L385.8145 184.3843 L384.5555 183.886 L383.4221 183.3298 L382.2499 182.5998 L381.3458 182.0373 L380.3881 181.2521 L379.2872 180.474 L378.1695 179.6009 L377.8681 179.2597 L377.6211 179.0363 L377.3842 178.7334 L376.8546 178.2812 L376.1274 177.3816 L375.7519 176.7158 L375.0375 175.3493 L374.9255 174.9739 L374.8646 174.5844 M376.1589 168.4631 L376.4178 167.8887 L376.174 167.3988 L376.2742 165.6051 L376.4699 164.545 L376.7585 162.6375 L377.1692 160.9534 L377.5479 159.6602 L377.6984 159.7021 L378.0455 162.0276 L377.8232 162.9035 L377.7908 163.4423 L377.8534 164.1465 L378.2884 164.9784 L378.4457 165.5109 L378.4205 165.7943 L378.2769 166.0874 L377.9289 166.6701 L377.7606 167.1363 L377.5731 167.4392 L376.8614 168.38 L376.4718 168.946 L376.1589 168.4631 M379.1089 186.2839 L379.3394 185.5204 L379.7825 185.1596 L380.3675 185.3955 L380.8916 185.57 L381.6485 186.0417 L383.0659 186.4863 L383.5566 186.5735 L384.2005 186.8429 L384.7421 187.0125 L384.6419 187.2079 L384.7608 187.3712 L384.6995 187.6727 L384.4864 187.956 L384.3739 188.3259 L384.3437 188.4257 L383.8104 189.2924 L383.4926 189.4285 L382.5847 191.2109 L382.7087 191.2786 L382.8578 191.5424 L382.5308 192.072 L382.3195 192.0567 L382.1301 192.0951 L381.8123 192.2039 L380.6049 191.7636 L380.4891 189.6442 L380.1502 188.8828 L380.083 188.6197 L379.7002 187.6161 L379.3481 187.0488 L379.284 186.6831 L379.1089 186.2839 M380.6995 202.4464 L381.0631 201.9411 L381.5662 201.4554 L383.2465 200.0765 L385.7629 197.9222 L386.0519 197.7143 L386.3135 197.6849 L387.622 197.7757 L387.9293 197.7736 L388.4041 197.5984 L389.4111 197.9055 L390.667 198.461 L390.9236 198.5887 L391.1966 198.7659 L391.1642 198.8664 L391.1079 199.0388 L389.2808 200.3933 L388.2705 200.9697 L388.0373 201.103 L387.3663 201.1882 L385.4189 203.043 L383.7409 204.7828 L383.3023 204.8218 L383.1619 204.6837 L383.0874 204.6104 L382.0606 203.9 L381.2044 203.2454 L380.7311 202.7967 L380.6995 202.4464 M382.3958 215.0081 L384.3025 213.3731 L386.4818 216.969 L385.4468 217.0234 L384.7928 218.3311 L384.1937 217.9494 L383.1038 216.5328 L382.3958 215.0081 M386.8664 196.1357 L386.8834 195.9012 L387.0887 195.599 L387.7638 195.1357 L388.3263 194.5369 L388.8889 193.7309 L389.0951 193.0819 L389.3425 192.474 L389.6499 192.0434 L390.0199 191.8969 L390.5554 191.9115 L392.7375 192.2898 L394.0405 192.6708 L394.3007 192.7671 L394.4388 192.8941 L394.1585 193.7127 L394.0212 194.2166 L393.8754 194.5571 L393.9133 194.629 L394.0194 194.6199 L394.4425 194.6451 L394.7041 194.6911 L396.4635 195.2578 L397.6133 195.6842 L400.3693 196.7924 L401.7825 197.5258 L401.7386 197.5489 L398.9831 198.1902 L398.1241 198.5998 L396.6839 198.8671 L395.348 198.8231 L393.9623 198.5 L393.8411 198.4016 L393.0887 197.7903 L391.1166 197.0911 L389.8406 196.7812 L389.359 196.6116 L388.4009 196.3639 L387.777 196.3737 L387.4971 196.4449 L387.0983 196.4804 L386.9314 196.2997 L386.8664 196.1357 M392.4516 209.3487 L392.4983 209.0026 L392.625 208.8833 L393.043 208.7116 L393.5813 208.5839 L396.5751 207.1596 L397.1322 207.0808 L397.5003 207.0947 L399.6229 206.3445 L400.3784 205.8644 L400.7507 205.6662 L401.4925 205.0396 L401.6457 204.5671 L401.8223 203.639 L401.8593 203.445 L402.1219 203.2405 L402.6405 203.2419 L403.5392 202.7653 L404.5993 202.8365 L404.8719 202.9035 L405.3846 203.0284 L405.8548 203.3012 L406.4543 203.4129 L406.8774 203.3843 L407.2945 203.489 L407.664 203.7583 L408.528 203.4785 L409.2885 203.2845 L409.7253 203.2098 L409.9919 203.1987 L410.2513 203.9223 L410.3885 204.3864 L410.4735 205.3473 L410.3853 206.0486 L410.3789 206.4764 L410.4209 207.3438 L410.2055 207.7193 L408.656 208.7339 L408.1287 209.0207 L407.7775 209.3103 L407.0855 210.147 L404.9272 211.5183 L404.0962 211.8749 L404.0697 211.886 L403.2703 211.9628 L402.4644 211.5762 L401.6796 210.9265 L400.7736 210.0249 L399.9879 209.8749 L399.0791 209.8184 L398.6204 209.8267 L398.0798 209.6865 L397.6265 209.7458 L396.6528 209.9593 L396.362 210.0793 L396.0501 210.0445 L395.568 210.1191 L394.222 209.826 L393.1651 209.8742 L392.7256 209.8442 L392.5481 209.6397 L392.4516 209.3487 M393.9023 194.5181 L394.0482 194.1775 L394.1854 193.6736 L394.4658 192.8551 L394.5778 192.504 L395.7336 192.8278 L396.3172 192.8467 L396.4306 192.7797 L396.3761 192.6645 L395.9078 192.3414 L400.1283 193.5264 L401.3896 194.3583 L401.2794 194.532 L401.0196 194.65 L400.8166 194.6995 L400.5659 194.9863 L400.5248 195.1601 L400.7388 195.3052 L400.8897 195.3101 L401.0055 195.4071 L401.1843 195.7254 L401.2026 196.0003 L401.2264 196.1245 L401.4079 196.2592 L401.6101 196.3423 L401.7633 196.5112 L402.5714 197.2641 L402.5184 197.3646 L402.4534 197.4888 L402.0898 197.6417 L401.8095 197.4868 L400.3963 196.7533 L397.6403 195.6451 L396.4905 195.2187 L394.7311 194.6521 L394.4695 194.606 L394.0464 194.5809 L393.9403 194.5899 L393.9023 194.5181 M395.3599 186.7382 L396.6785 184.1442 L397.3599 184.833 L397.6878 185.4339 L397.8703 186.0703 L397.9595 186.8848 L397.9453 187.1144 L397.4967 187.0844 L397.1175 187.1444 L396.7708 187.0788 L396.5028 186.919 L396.2051 186.8143 L395.874 186.8261 L395.3599 186.7382 M395.6247 218.9542 L395.8443 218.2404 L396.4932 217.8363 L397.0905 217.3479 L398.2742 216.53 L398.6259 216.2467 L398.7466 216.2286 L399.3622 216.1372 L400.002 216.0416 L401.0782 215.9892 L401.5671 216.2607 L401.858 216.4931 L401.8479 216.9473 L401.7432 217.9585 L401.2931 221.3003 L401.0251 222.458 L400.2138 224.7042 L399.5666 226.822 L399.3613 226.8548 L398.9977 226.494 L398.9638 226.4605 L398.4598 225.3434 L398.2348 224.8437 L397.9961 224.2094 L397.6233 223.55 L397.3306 223.2995 L396.9744 223.1041 L396.581 222.8494 L396.308 222.1118 L396.0976 221.4371 L395.9421 220.3296 L395.6984 219.5641 L395.6247 218.9542 M397.456 184.7423 L397.4692 184.6711 L397.5497 184.6571 L398.4809 185.4513 L399.3005 186.2616 L399.8758 186.9078 L400.211 187.3454 L400.2371 187.4619 L399.5195 187.3851 L398.2618 187.1486 L398.0601 187.1297 L398.0812 186.8603 L397.9586 185.9063 L397.7354 185.2217 L397.456 184.7423 M402.2673 194.9654 L402.4475 194.3255 L404.5737 195.4651 L405.7807 196.3206 L406.6954 195.6591 L406.699 195.6612 L407.4642 196.1071 L408.6766 197.4477 L409.075 198.2565 L409.2908 198.9181 L409.6951 200.4945 L409.4902 200.7332 L409.3338 200.7408 L409.1093 200.6983 L408.9501 200.6683 L408.1877 200.2893 L407.3265 199.7862 L405.3992 197.6152 L404.791 197.1385 L402.3409 195.3688 L402.2673 194.9654 M404.9652 212.0884 L405.0997 211.9537 L407.6284 210.0354 L409.1664 208.6823 L410.0317 208.094 L410.3496 208.0661 L410.3958 208.4457 L410.3885 209.1401 L410.4017 209.2894 L410.5998 210.8093 L410.6039 211.0675 L410.522 211.4904 L409.8698 212.2105 L409.0713 212.6976 L408.3574 213.2147 L408.0409 213.401 L407.6485 213.581 L407.3777 213.6432 L407.1029 213.6355 L406.7041 213.6278 L406.3684 213.5252 L405.3027 212.5462 L405.0205 212.2852 L404.9652 212.0884 M431.5227 348.4679 L431.6018 348.0243 L432.088 347.7181 L432.3999 347.6699 L432.6295 347.8081 L433.2309 348.3494 L434.1803 349.6921 L434.3139 350.449 L434.3189 350.6143 L433.9137 351.1437 L433.5451 351.2163 L432.9574 351.051 L432.345 350.6101 L432.2778 350.5334 L432.0216 350.0835 L431.7495 349.6914 L431.5762 348.8544 L431.5227 348.4679 M488.9655 304.6756 L489.0222 303.6124 L489.405 302.7599 L489.765 302.2869 L490.1747 302.4452 L490.9559 302.8987 L492.001 303.4226 L492.8132 303.7973 L492.9861 303.8384 L493.6502 304.1007 L494.6582 303.784 L495.0657 303.565 L495.6017 303.4805 L495.6232 303.4771 L495.7041 303.5608 L496.5086 304.3938 L498.1295 305.8169 L498.5379 306.4546 L499.1361 307.6643 L499.2413 307.8722 L499.925 309.5618 L500.6696 312.2233 L500.7263 313.4337 L500.5767 314.7885 L500.4848 315.3772 L500.3965 315.9444 L500.1807 316.2723 L499.9927 316.6295 L499.8326 316.8074 L499.534 317.0543 L499.4352 317.0836 L499.0506 317.198 L498.4377 317.2971 L498.054 317.1485 L496.7611 315.387 L495.6625 314.2569 L493.3556 310.9794 L491.7778 308.198 L490.7602 306.216 L491.3954 305.7311 L491.9548 305.3788 L492.1482 304.8012 L491.9891 304.633 L491.6657 304.6679 L491.3945 304.7991 L490.4418 305.1737 L489.3291 305.7269 L488.9655 304.6756" stroke-dasharray="" fill="none" fill-opacity="1.0" stroke="#ff0000" stroke-opacity="1.0" stroke-width="1.0px" stroke-linecap="butt" stroke-linejoin="miter" stroke-dashoffset="0.0px"/>
</g>
</svg>