<?xml version="1.0" standalone="no"?>
<!DOCTYPE svg PUBLIC "-//W3C//DTD SVG 1.1//EN" "http://www.w3.org/Graphics/SVG/1.1/DTD/svg11.dtd">
<svg width="512px" height="512px" version="1.1" xmlns="http://www.w3.org/2000/svg" xmlns:inkscape="http://www.inkscape.org/namespaces/inkscape">
<g id="layer" inkscape:groupmode="layer" inkscape:label="layer">
<path d="M0.0 185.0417 L0.3639 188.1363 L1.1725 191.1071 L2.4258 194.016 L4.0834 196.6773 L6.0644 199.0911 L8.3689 201.1954 L10.9564 202.9284 L13.7461 204.29 L16.6974 205.2803 L22.8831 205.8992 L25.9962 205.5898 L29.0284 204.7852 L43.9469 211.8408 L45.2407 214.6259 L46.8983 217.1635 L48.9198 219.4535 L51.2647 221.4959 L53.8117 223.167 L56.6014 224.4667 L59.5123 225.3951 L62.5445 225.8283 L68.6494 225.5808 L71.6008 224.7762 L86.4384 232.0794 L89.5111 237.464 L91.5325 239.754 L96.4649 243.4675 L99.2546 244.7672 L102.1655 245.6956 L108.2704 246.3145 L111.343 246.005 L114.3348 245.2623 L129.3342 252.1323 L130.5875 254.9174 L132.2047 257.5169 L134.1857 259.8688 L136.4498 261.9112 L138.9968 263.6441 L141.7461 264.9439 L144.657 265.8722 L150.681 266.4912 L156.6646 265.3771 L172.0682 272.4946 L173.2811 275.2798 L174.8983 277.8792 L176.8389 280.2311 L179.1434 282.2116 L181.6905 283.8827 L184.4397 285.1824 L187.3506 286.1108 L190.3424 286.544 L193.415 286.544 L196.4068 286.1108 L199.3178 285.3062 L214.4788 292.857 L217.3898 298.1178 L219.3304 300.3458 L221.554 302.3264 L224.0606 303.9974 L226.729 305.2972 L229.5591 306.2255 L232.47 306.7826 L235.4618 306.9682 L241.3645 306.0399 L244.1541 304.9877 L246.7821 303.5642 L249.1674 301.8312 L253.2104 297.4369 L262.7113 301.8312 L252.3209 324.4835 L295.2571 344.9696 L306.7795 321.8222 L316.2805 326.2165 L315.5932 329.1873 L315.3102 332.22 L315.9975 338.2853 L316.9678 341.1942 L318.302 343.9794 L320.0 346.5169 L322.0215 348.8069 L324.3664 350.7874 L326.9539 352.4585 L332.614 354.6247 L335.6462 355.1198 L338.6785 355.1817 L344.7025 354.0677 L359.4188 360.9995 L360.7126 363.8465 L362.3702 366.4459 L366.777 370.9021 L369.3645 372.5732 L372.1946 373.9348 L378.259 375.2964 L381.3721 375.3583 L387.4769 374.1205 L401.789 381.3618 L403.1232 384.2088 L404.8617 386.8082 L406.9236 389.1601 L409.3089 391.2025 L411.9368 392.8736 L414.7669 394.1733 L420.8718 395.5349 L427.0979 395.1635 L430.0897 394.2971 L444.6039 401.4765 L445.8572 404.3235 L447.5148 406.9229 L449.4959 409.2748 L451.8004 411.3791 L454.3474 413.0501 L457.1371 414.4117 L463.1207 415.8971 L466.1933 415.959 L472.2577 414.845 L485.4782 420.1057 L486.6507 422.8908 L490.0872 427.904 L492.2299 430.0702 L494.6153 431.927 L497.2432 433.4124 L502.9438 435.4548 L509.0082 435.9499 L512.0 435.5786 L498.6987 286.8535 L483.4972 280.0454 L482.2034 277.1984 L480.5458 274.599 L478.5243 272.1852 L476.1794 270.1428 L473.5919 268.4098 L470.8023 267.0482 L467.8105 266.0579 L461.6652 265.439 L458.5521 265.7485 L455.5199 266.4912 L440.844 259.9306 L439.5502 257.1455 L437.8926 254.5461 L435.9116 252.1942 L433.6475 250.1518 L431.1004 248.4188 L428.3512 247.0572 L425.4403 246.1288 L422.4081 245.5718 L419.3354 245.448 L413.3114 246.4383 L398.4334 239.6921 L397.18 236.907 L393.5818 232.0175 L391.3178 229.9751 L388.8111 228.2421 L386.0619 226.9424 L383.1914 225.9521 L380.1996 225.3951 L374.1352 225.5189 L371.1838 226.2616 L368.3538 227.3137 L363.2192 230.594 L359.2167 235.174 L349.3519 230.6559 L361.036 205.2803 L318.5041 185.2893 L306.3348 210.1697 L296.7126 205.7135 L297.3999 202.8046 L297.5212 196.7392 L296.0253 190.8595 L294.6911 188.1363 L291.012 183.3706 L288.7075 181.3901 L286.1605 179.7809 L283.4517 178.4812 L277.5894 177.0577 L271.5654 177.3052 L268.614 178.0479 L253.6147 171.116 L252.2805 168.3309 L250.5824 165.7315 L248.561 163.4415 L246.216 161.399 L243.669 159.728 L240.8793 158.4282 L237.9684 157.4998 L234.9362 157.0047 L231.8636 156.8809 L228.7909 157.2523 L225.8395 157.995 L210.7997 150.5061 L209.5464 147.7209 L207.8888 145.1215 L205.9078 142.8315 L203.6033 140.789 L201.0562 139.1799 L198.2666 137.8801 L195.3557 137.0136 L192.3234 136.5804 L189.2912 136.5185 L186.259 136.9518 L183.3076 137.8182 L168.2678 130.4531 L166.9337 127.7299 L165.2356 125.1923 L163.2142 122.9023 L160.8692 120.8599 L158.3222 119.2507 L155.5325 117.9509 L152.6216 117.0226 L149.6298 116.5274 L146.5572 116.4655 L140.5736 117.5796 L125.6551 110.5239 L124.4018 107.6769 L122.7442 105.0774 L120.7631 102.7255 L118.4991 100.6831 L115.9116 98.9501 L113.1623 97.5885 L110.211 96.6601 L107.1788 96.165 L104.1061 96.1031 L101.0739 96.4744 L98.0821 97.279 L83.0423 90.4709 L80.374 85.3958 L78.5951 83.1677 L74.1883 79.4542 L71.6816 78.0925 L69.0133 77.0404 L66.2236 76.3596 L63.3936 76.0501 L60.5231 76.112 L57.693 76.5452 L54.9438 77.3498 L52.0733 78.5877 L49.4454 80.2588 L47.06 82.3012 L44.9981 84.5912 L43.2596 87.1907 L41.885 89.9758 L40.9147 92.9466 L40.3891 96.0412 L40.3083 99.1358 L40.6317 102.2923 L41.4403 105.325 L34.8907 120.0553 L32.0606 121.2931 L26.9665 124.9447 L24.8642 127.2347 L23.1257 129.8342 L21.7511 132.6193 L20.7808 135.5901 L20.2552 138.6847 L20.1744 141.7793 L20.4978 144.9358 L21.266 147.9685 L14.2716 163.0701 L11.482 164.3698 L8.8541 166.0409 L6.5092 168.0833 L4.4473 170.4352 L2.7492 173.0347 L1.4555 175.8817 L0.5256 178.8525 L0.0404 181.9471 L0.0 185.0417" stroke-dasharray="" fill="none" fill-opacity="1.0" stroke="#ff0000" stroke-opacity="1.0" stroke-width="1.0px" stroke-linecap="butt" stroke-linejoin="miter" stroke-dashoffset="0.0px"/>
</g>
</svg>