<?xml version="1.0" standalone="no"?>
<!DOCTYPE svg PUBLIC "-//W3C//DTD SVG 1.1//EN" "http://www.w3.org/Graphics/SVG/1.1/DTD/svg11.dtd">
<svg width="512px" height="512px" version="1.1" xmlns="http://www.w3.org/2000/svg" xmlns:inkscape="http://www.inkscape.org/namespaces/inkscape">
<g id="layer" inkscape:groupmode="layer" inkscape:label="layer">
<path d="M0.0 145.2899 L8.2046 149.082 L12.6243 152.1215 L19.3073 153.9585 L23.8002 144.3448 L26.3149 145.799 L29.1669 147.0709 L31.808 148.733 L32.2568 149.1403 L31.0171 147.3601 L27.5196 145.1586 L26.8068 144.3441 L26.9114 143.2389 L26.1496 142.5668 L26.5228 137.983 L28.3745 137.789 L36.3179 140.7755 L38.6324 141.6712 L38.7517 140.8648 L40.3049 140.3122 L40.6024 140.0658 L40.8273 135.1913 L42.5327 133.9378 L40.8123 132.1951 L40.4347 128.9016 L45.8576 128.4582 L45.3847 125.5542 L47.5761 122.572 L49.5766 122.2636 L53.1967 123.3408 L55.4599 129.0883 L56.4437 134.1252 L57.2966 136.1482 L60.4224 134.8364 L65.1232 132.8953 L76.3131 130.8287 L79.0352 133.9046 L73.5706 136.3555 L70.3261 135.8029 L69.367 135.659 L68.6711 135.7911 L62.4908 136.9073 L57.7357 139.4755 L56.7669 140.8773 L55.5937 142.5742 L53.5297 145.0494 L52.7834 146.9927 L53.7298 149.622 L55.1144 151.5476 L56.6143 155.811 L58.2053 155.0415 L58.512 157.0696 L59.1435 161.0445 L61.1324 166.7066 L61.9199 168.151 L61.4498 171.4353 L63.9989 173.8255 L71.7092 173.8181 L72.788 172.4917 L71.6385 168.7235 L71.4335 168.0433 L73.2183 163.5727 L79.641 160.579 L84.0462 162.0936 L93.2869 159.6177 L95.5743 159.8442 L99.7808 162.3916 L103.3137 165.0585 L104.6745 165.4428 L105.4102 166.6409 L105.793 167.2694 L107.7659 167.5306 L110.537 170.7493 L112.3756 171.8927 L114.3563 170.2963 L115.9657 170.7367 L116.4052 169.4228 L122.1485 168.0049 L122.2842 166.7088 L118.4343 165.7999 L115.2538 165.5756 L113.9855 165.1146 L113.6555 164.1599 L113.3356 162.0973 L115.5988 158.4093 L118.5138 158.0235 L122.2308 156.2824 L128.1141 154.2905 L126.5488 149.9009 L137.3287 156.1592 L140.2543 156.1592 L143.4543 158.79 L145.5163 160.714 L148.3068 162.9552 L150.145 165.4812 L152.2521 168.3303 L152.2109 170.117 L154.2589 170.7765 L158.383 175.6159 L158.7266 177.0589 L159.2214 177.2241 L158.6578 175.1349 L154.7542 170.5021 L153.8668 169.2355 L153.2829 168.4262 L152.4033 166.4329 L146.6848 160.9066 L143.1931 157.7313 L141.461 155.4495 L143.4131 154.2256 L151.702 162.2264 L153.5853 164.5362 L156.761 169.3196 L160.7475 176.2481 L160.9263 175.6845 L157.2558 168.3576 L151.8397 160.9339 L150.6301 159.9586 L147.1035 156.475 L146.8495 156.233 L144.4245 153.5454 L139.7576 149.3048 L141.0055 147.9532 L145.2275 151.2429 L147.3584 153.3322 L153.7229 159.752 L157.7506 165.2097 L160.1562 169.8286 L160.7063 170.5847 L160.761 169.8972 L160.5827 168.5361 L158.3694 164.6734 L152.7057 157.209 L148.2244 152.8372 L149.2416 152.2462 L149.8445 150.6047 L153.7665 151.8965 L157.3314 151.8006 L160.763 156.5325 L164.9792 156.3562 L170.4767 172.1398 L172.9705 179.2328 L175.319 180.3718 L179.8696 181.1213 L182.9915 176.0445 L181.4475 160.9855 L185.2314 169.6869 L185.6017 173.9384 L184.488 176.0829 L185.0381 178.2827 L186.0407 181.5345 L183.6632 190.38 L181.8439 193.057 L180.9963 193.3624 L179.7732 193.5276 L177.8347 194.2978 L174.2742 196.4694 L172.2795 198.7547 L175.7615 201.518 L175.793 201.737 L175.5923 202.1538 L171.4508 200.4137 L167.9334 200.2344 L167.4532 203.0766 L167.0422 203.2536 L165.9038 202.8907 L164.1238 201.5748 L163.9377 201.0186 L164.8667 196.4532 L161.5893 196.822 L161.4221 197.5509 L156.6631 219.1673 L144.4783 236.6801 L140.5417 239.3523 L137.9917 238.6015 L136.7268 236.402 L133.7837 235.3606 L131.6795 236.194 L126.78 237.7385 L126.3564 240.8238 L127.8345 244.789 L128.2697 247.3092 L126.7228 251.1674 L125.7414 258.2095 L124.5599 260.9509 L125.7036 266.115 L127.646 269.4914 L125.6896 271.7865 L128.8614 274.5809 L131.9131 278.3223 L138.0692 282.8188 L144.2578 289.6442 L149.6288 293.0771 L150.2453 292.8441 L155.404 295.0601 L158.3471 297.6951 L160.9806 297.923 L162.1737 299.1383 L162.323 297.7482 L165.4362 296.0011 L165.7027 293.5365 L165.4425 282.2539 L169.9659 280.5385 L171.1455 279.0797 L172.4098 278.2508 L177.1741 278.7368 L179.7048 282.9043 L181.1558 289.3248 L173.0185 294.6545 L174.7607 295.8507 L182.8093 297.7157 L180.139 302.6161 L180.283 305.0136 L181.5929 306.9014 L184.4827 307.9213 L184.6906 308.7273 L184.2748 309.7929 L186.0422 313.1984 L185.8343 315.8501 L183.7025 315.8767 L175.8254 315.6422 L175.3054 316.8383 L173.6679 316.7601 L167.8617 315.8258 L166.6782 317.499 L156.6801 316.3737 L153.3105 316.9113 L153.624 318.3463 L153.026 319.0483 L151.184 320.2031 L151.0502 321.908 L150.6863 323.7795 L148.9964 325.6253 L145.6952 327.367 L142.4453 328.1206 L144.473 330.6425 L147.1767 330.5909 L147.4626 332.1505 L145.6171 334.7763 L144.0572 337.9736 L145.0453 339.9498 L147.5149 345.1232 L150.9465 345.6688 L152.3495 345.0951 L154.2468 344.318 L154.5637 343.4958 L154.4241 342.9863 L154.5652 342.6604 L159.0629 338.8142 L160.3404 337.8512 L165.0523 338.5628 L167.0383 350.4528 L168.3386 350.8163 L170.3536 357.6131 L171.302 357.9656 L172.388 358.1588 L172.4787 358.7015 L174.7578 360.2167 L177.3699 360.7866 L180.9518 360.5839 L185.1956 361.5977 L185.5755 362.0416 L185.7694 362.6963 L185.5208 363.8797 L184.4187 366.9485 L183.6128 368.37 L183.1703 370.8385 L182.0911 375.3059 L181.4151 375.7999 L182.0911 377.1514 L184.0146 383.001 L183.2348 383.8327 L185.6942 388.0964 L189.1917 390.4903 L193.4671 391.6132 L199.6828 392.4706 L202.5101 392.2738 L205.0417 391.9487 L210.1845 391.3375 L213.7256 391.0448 L215.8381 390.7926 L222.741 391.9612 L224.413 392.9912 L226.033 394.0882 L230.1092 396.9326 L232.431 398.7094 L233.9915 399.7695 L235.5369 400.554 L237.0446 400.9123 L237.6164 400.9042 L237.8612 400.8902 L247.0166 402.024 L251.574 402.3359 L255.1635 403.9446 L260.6727 406.1312 L263.9599 407.0307 L269.2796 406.6363 L274.2445 406.5972 L279.2884 407.8188 L282.1254 408.8037 L285.3563 410.7346 L290.7943 413.6105 L297.263 416.7945 L302.7731 416.9995 L305.4526 416.7238 L307.1468 416.6058 L307.7007 416.3213 L353.6892 397.445 L361.4761 397.0896 L364.1517 395.5111 L365.4553 394.0705 L368.9542 394.894 L370.6616 394.9434 L378.3413 390.2043 L386.4893 383.9322 L387.9921 382.8646 L391.348 384.5442 L383.9198 391.695 L396.0552 385.9472 L393.8875 392.7648 L400.0005 389.4677 L414.161 367.9313 L419.8553 362.5267 L420.4437 362.1359 L425.0165 363.9055 L446.965 374.4786 L461.2613 375.2381 L482.4634 381.9327 L489.7085 381.0848 L491.2932 377.9734 L490.9927 368.5138 L490.9442 365.4465 L502.9337 365.8226 L503.2652 359.8591 L507.6636 359.312 L503.9151 353.776 L504.5911 352.3721 L507.3985 351.7999 L512.0 352.1118 L511.3244 349.9285 L507.3467 341.4533 L502.7748 339.0487 L500.3013 337.7096 L497.7018 337.2421 L492.8144 336.2776 L490.0588 334.4342 L484.9892 333.8362 L483.958 333.3451 L480.5298 324.9948 L477.2474 325.2934 L475.5275 318.7703 L472.141 312.503 L473.494 310.5488 L465.4789 302.4332 L472.8761 287.5564 L467.8521 284.7045 L469.3001 281.4456 L473.4194 273.7962 L479.9191 272.9009 L481.5911 268.1071 L481.2954 260.7982 L478.7027 256.1812 L473.1771 253.192 L471.5594 252.3165 L463.3209 256.1222 L462.4777 253.8653 L465.9185 248.2378 L464.8358 246.4278 L464.5155 245.2477 L464.3662 243.9939 L464.0076 242.889 L465.9786 242.4111 L468.2185 242.3816 L471.4136 239.6636 L475.5944 234.4076 L476.1817 227.4956 L470.8165 230.2867 L463.3509 234.6466 L456.7213 234.2881 L447.4636 231.4816 L434.2049 225.5683 L428.5906 212.7271 L423.7367 212.4033 L425.5835 209.5391 L431.1446 204.6803 L418.2512 205.6635 L410.7881 205.0144 L399.8846 202.2829 L397.3462 194.2557 L389.7992 193.2953 L388.6332 191.6488 L372.4421 187.3268 L371.9957 185.7142 L367.2275 184.9595 L355.5991 181.3235 L352.0657 181.4954 L350.6938 180.7407 L347.6954 179.314 L346.6583 181.5345 L339.6478 180.6035 L328.7395 175.2522 L318.1738 167.1566 L316.3216 163.7948 L314.3322 161.8051 L311.5878 162.8342 L299.1016 175.1836 L294.5733 170.0381 L287.7673 156.3562 L281.0796 155.8029 L279.8196 159.7277 L279.2913 159.5432 L280.498 154.8438 L282.8707 150.2351 L261.3783 145.0966 L259.6448 144.1685 L261.2344 142.7372 L256.5772 140.5092 L256.519 134.0388 L255.007 132.7108 L213.9103 110.9779 L212.7709 110.6864 L200.3903 107.5233 L198.7538 113.6614 L194.273 112.9368 L187.4379 112.4388 L185.3565 121.6999 L173.5424 118.4587 L158.1979 112.4845 L150.9107 108.456 L150.9557 111.3077 L148.158 113.004 L137.8293 115.064 L137.192 110.4813 L128.5309 114.5903 L118.0292 113.7049 L116.333 119.1057 L114.758 119.4009 L115.3788 132.536 L107.5081 128.7636 L107.0913 124.0269 L106.3983 121.6069 L100.4869 122.9402 L97.4091 116.9653 L91.7512 117.1011 L91.0504 114.079 L87.3712 114.3771 L79.734 114.7076 L79.5722 111.7718 L74.6349 111.3431 L74.0897 109.9272 L73.2343 108.3209 L70.2466 105.9303 L67.9486 104.7977 L63.1116 106.3074 L58.4122 107.0961 L52.3404 106.9589 L49.6304 106.4785 L46.7489 101.7453 L44.6563 98.5548 L42.1522 97.8686 L39.2363 98.5895 L37.7277 95.0005 L35.9055 96.1663 L34.0833 97.3321 L32.7186 103.6659 L31.3123 103.3228 L32.6159 107.4392 L32.753 110.9727 L29.9059 112.5509 L22.4258 114.076 L22.4965 114.746 L22.5649 115.5694 L22.8014 131.0803 L21.6858 132.8827 L12.5739 131.2367 L9.4569 131.9598 L5.2562 134.1871 L2.1759 138.2073 L0.0 145.2899 M71.4577 159.5086 L71.5827 158.9803 L71.9617 158.7797 L72.9401 158.2367 L74.0305 157.7321 L74.8786 157.496 L75.4485 157.3676 L76.2961 157.9224 L77.3817 158.6447 L77.5591 158.9073 L77.5256 159.0925 L77.0691 159.3123 L75.8367 159.7572 L74.9358 160.0943 L73.7165 160.5849 L72.1715 161.4163 L71.9321 161.2835 L71.8207 161.018 L71.683 160.5215 L71.4577 159.5086 M73.1466 162.4425 L73.2493 161.9453 L75.6947 160.61 L77.7403 159.7107 L78.0897 159.4872 L79.0599 159.0733 L79.4365 159.1397 L79.5043 159.4252 L79.4752 159.7372 L79.31 160.1696 L79.0498 160.4086 L78.7115 160.517 L77.1568 161.1898 L76.5414 161.3721 L73.8774 162.9744 L73.4228 162.9722 L73.1466 162.4425 M82.7387 159.3824 L82.8797 158.8734 L84.131 158.278 L88.3714 156.3422 L92.5353 154.4772 L93.3063 154.2123 L93.6446 154.244 L93.9581 154.3805 L94.2901 154.6476 L94.6928 155.2665 L94.9051 155.6782 L95.0126 155.9645 L95.0534 156.1998 L94.9729 156.4329 L94.6584 156.759 L93.6615 157.358 L92.4926 157.7808 L90.4422 158.3496 L89.1967 159.1249 L87.8563 159.7063 L85.8679 160.3806 L84.5773 160.6528 L84.0544 160.5938 L83.751 160.4366 L83.3328 159.9873 L82.9485 159.6804 L82.7387 159.3824 M130.6778 270.0357 L130.7539 269.6131 L131.1125 269.2672 L131.5011 268.6683 L133.0655 266.8031 L133.5782 265.8112 L133.7207 265.6836 L133.9523 265.6238 L134.0948 265.9181 L134.2974 266.1239 L134.8644 266.1158 L135.3757 265.9557 L135.7648 266.0605 L136.1903 266.5155 L136.4317 267.2243 L135.9243 268.1609 L135.6563 268.4161 L135.5957 268.5621 L135.9897 268.9958 L136.8344 269.2967 L137.6955 269.5283 L138.1671 269.9767 L138.5446 269.956 L140.9575 270.5276 L142.046 270.5718 L144.1628 270.3351 L146.2704 269.8926 L148.3838 269.9339 L149.5964 270.4391 L152.5375 271.5542 L153.3628 271.9842 L155.2616 273.4061 L156.696 274.4261 L158.1838 275.2572 L159.3837 276.1304 L159.7235 276.5442 L159.5514 276.8834 L159.155 277.1482 L157.9561 277.5007 L156.4862 278.0597 L155.7031 277.8569 L154.9742 277.6674 L154.0457 277.1504 L153.5281 276.803 L153.0624 276.4409 L152.6296 276.4026 L152.1711 276.2809 L151.0294 275.4866 L150.8394 274.9976 L150.9761 274.4091 L150.948 273.7903 L150.7483 273.0949 L150.2855 272.7829 L149.8086 272.5469 L149.2373 272.5211 L148.3921 272.7298 L147.3036 273.9039 L146.1425 273.3943 L145.0492 273.2225 L144.2999 272.9348 L142.5146 272.5012 L141.5197 272.128 L141.4199 272.6915 L141.6152 273.1258 L142.1327 273.4267 L142.9861 273.4651 L144.3673 273.8294 L145.371 273.8398 L145.7994 274.03 L145.7974 274.3479 L145.699 274.7373 L145.2004 275.5699 L144.9028 275.7779 L144.392 275.8288 L143.9995 275.6511 L143.5643 275.2712 L140.486 273.5425 L139.0767 272.8404 L137.6262 273.4909 L136.5063 273.8324 L135.5385 273.9777 L134.4937 273.3972 L133.3277 272.6671 L131.788 271.8028 L131.1585 271.3234 L130.7941 271.1552 L130.703 270.8934 L130.6846 270.5276 L130.6778 270.0357 M152.6097 270.2695 L152.87 269.9368 L153.2858 269.8572 L153.6206 269.4877 L153.987 268.9663 L154.4498 268.8394 L155.1511 267.7612 L155.4971 267.5643 L156.0878 267.6336 L157.0823 268.1875 L158.2129 268.9493 L158.7702 269.439 L158.9917 269.7289 L159.1443 270.3771 L159.4017 271.0571 L159.7957 271.4488 L160.464 271.5446 L160.6118 270.7356 L161.4662 270.3115 L161.8243 269.6374 L161.4904 269.2163 L160.7038 269.3225 L159.5853 268.9272 L158.8148 268.113 L158.6578 267.7604 L158.7164 267.0015 L158.8967 266.2057 L159.2728 265.6556 L159.6561 265.393 L160.1267 265.272 L160.5662 265.3097 L161.723 265.6932 L163.9372 267.2176 L164.8343 267.6048 L165.4308 267.9478 L165.6247 268.4626 L165.4711 269.1212 L165.0935 269.8919 L164.6516 270.9605 L163.8035 272.603 L163.061 273.6266 L162.4 274.6591 L162.1432 275.1518 L161.8485 275.3347 L161.3678 275.4778 L160.8206 275.2476 L159.8708 274.9556 L154.2623 271.7873 L152.8622 270.8691 L152.6097 270.2695 M164.1195 265.5435 L164.7747 264.2838 L165.1284 263.7173 L165.5685 262.9171 L166.1146 262.2895 L166.3846 260.4892 L166.7054 259.1771 L166.8125 258.3842 L167.2617 258.253 L169.2768 258.7545 L169.9276 259.1505 L170.2412 259.4736 L170.2606 260.2679 L169.7895 261.4612 L169.3616 263.0499 L168.8968 263.0698 L168.1234 262.4237 L167.332 262.1685 L166.8139 262.1427 L166.4044 262.5498 L166.3206 263.3183 L166.3889 264.0323 L166.6938 264.4844 L167.3766 264.775 L167.5559 265.0036 L167.5535 265.3591 L167.252 265.9181 L166.7936 266.6711 L166.669 267.2611 L166.8222 267.6815 L167.7022 268.0444 L168.198 267.5849 L168.9879 266.0981 L169.633 265.376 L170.0846 265.2175 L171.2051 265.2042 L172.044 265.5597 L172.3963 266.0649 L172.4854 266.548 L171.9979 267.1136 L171.1707 267.8681 L170.9322 268.5393 L170.5853 269.1049 L170.1636 269.7075 L169.8196 269.7768 L169.2492 269.6647 L168.8367 269.63 L168.0977 268.8984 L167.348 268.4168 L166.4883 267.7295 L166.2314 267.284 L165.4032 267.0568 L164.3235 266.4123 L164.1282 266.0715 L164.1195 265.5435 M164.828 245.4196 L165.4163 244.786 L166.0051 244.1974 L166.4122 243.2017 L166.7291 242.3417 L167.0461 241.4367 L167.2724 240.9389 L168.1777 240.5767 L168.766 240.3503 L169.3999 240.1239 L170.3051 239.8974 L170.8479 239.626 L171.4367 239.3996 L172.2514 239.1731 L172.6585 238.766 L173.021 238.1324 L172.6134 237.6345 L172.2058 237.2724 L171.8438 236.8645 L171.3005 236.3216 L170.9841 235.7788 L170.4408 234.9188 L170.2145 234.2394 L170.2145 233.5609 L170.6672 232.8366 L171.1649 232.3837 L171.7987 231.7951 L172.2514 231.3879 L172.6134 230.7093 L172.5228 230.1657 L172.8848 229.3514 L173.745 229.6229 L173.6543 230.1657 L174.8315 231.8858 L175.2841 232.4287 L176.3251 233.3344 L176.8683 233.6508 L177.321 234.1037 L177.6374 234.5566 L177.9999 235.0087 L178.045 235.8238 L177.3661 236.9102 L176.6871 237.906 L175.9175 238.766 L175.0578 239.671 L174.469 239.8974 L173.8807 239.7617 L173.383 239.4445 L172.8848 239.7167 L172.4321 240.0331 L171.663 240.531 L171.1649 241.2103 L170.8479 241.7082 L170.8028 242.2967 L171.1649 242.8396 L171.3912 243.4732 L171.2104 244.0167 L170.3953 244.831 L169.6262 245.8725 L168.9923 246.6417 L168.2227 246.9589 L167.3175 247.0039 L166.5028 246.8224 L165.7788 246.3246 L165.19 246.0082 L164.828 245.4196 M165.1352 338.5303 L165.315 338.5547 L166.5852 338.7243 L168.5125 338.6557 L168.8367 338.2162 L168.2625 336.2467 L167.551 335.659 L167.551 335.1045 L168.6977 334.5234 L169.0655 334.8021 L169.8632 335.4938 L170.7316 335.906 L171.1653 336.2791 L171.2027 336.6802 L171.5918 337.0217 L172.3032 337.2812 L173.3786 337.7974 L173.8172 337.734 L174.0023 337.3933 L173.9611 336.9634 L174.1617 336.7805 L174.6725 336.7075 L176.0135 336.4281 L176.4899 336.2459 L177.0845 335.7792 L177.9083 335.6516 L179.116 336.1515 L179.7901 336.2083 L180.3145 335.7644 L181.417 334.9703 L182.1909 334.5912 L183.5144 334.4113 L184.079 336.8255 L183.6937 337.919 L183.4694 340.0943 L184.71 340.1776 L185.3657 340.1371 L186.6005 337.6499 L186.9615 337.1359 L187.7267 336.5571 L190.2332 336.2393 L192.224 336.0601 L195.1099 336.2127 L196.1528 336.1198 L196.9568 335.9982 L197.6862 335.9606 L201.1842 335.9141 L201.9566 335.9377 L203.6606 337.5769 L204.183 337.6411 L206.0754 337.164 L208.7006 336.3514 L209.7866 336.9346 L210.7273 337.203 L210.9284 337.4582 L210.7462 337.8195 L210.2141 338.0695 L209.4653 338.2973 L208.6967 338.4359 L208.0827 339.4668 L207.8331 340.1526 L207.7939 340.9084 L207.8898 341.4901 L208.6856 342.2002 L209.1431 342.8314 L209.9587 343.3741 L210.028 343.4206 L210.4927 343.3078 L211.3752 342.2224 L211.7653 341.5042 L211.9466 341.0662 L211.9888 340.9637 L212.1729 340.8029 L212.3983 340.9784 L212.5625 341.412 L212.7302 341.8551 L213.2803 342.4539 L214.3842 343.3859 L216.2592 345.16 L218.7938 347.4363 L221.4442 349.5038 L221.6177 349.5458 L221.8372 349.447 L223.2722 348.2142 L224.744 346.8714 L225.6909 345.9254 L226.5802 344.7132 L227.8906 343.1323 L228.223 342.5092 L228.54 342.0144 L228.9505 342.083 L230.2056 344.006 L230.9941 344.739 L233.3115 345.9792 L233.676 346.4762 L233.9726 347.1502 L234.021 347.6796 L233.7002 348.2407 L233.4022 349.523 L233.0726 350.6349 L232.9292 351.2882 L232.6471 351.8869 L232.6704 352.2873 L232.7547 352.6449 L233.0731 352.7673 L233.3775 352.7917 L233.5505 352.8337 L233.5485 353.4132 L234.0036 354.0311 L234.5599 354.0916 L234.7097 353.2665 L234.8497 352.7983 L235.2331 352.7231 L235.7972 352.9303 L236.244 353.1611 L236.6346 353.3262 L236.8149 355.0612 L236.0642 355.5102 L235.8577 356.1694 L236.0705 356.8692 L236.4214 357.3617 L236.4165 357.9383 L235.7909 360.2513 L235.473 364.6768 L235.2791 366.3837 L235.1182 366.8769 L235.1371 367.6644 L235.1124 368.6657 L234.8609 369.3853 L234.6888 370.4743 L234.5008 371.4055 L234.2449 373.3107 L233.9435 373.8224 L233.4836 373.9684 L233.0247 373.981 L231.9003 373.6801 L231.5747 372.9428 L231.1661 371.8096 L230.7673 371.5383 L230.0922 371.6665 L229.4472 371.741 L228.412 371.6046 L227.3691 371.0273 L226.5559 369.9117 L226.6073 368.8662 L226.9718 368.0508 L227.6308 365.5048 L227.8853 364.8537 L228.0612 364.258 L228.2196 363.211 L228.0878 362.0534 L227.7089 361.6427 L225.5576 360.0427 L225.0779 359.8635 L224.3369 360.2845 L223.7776 360.8884 L223.3754 361.114 L223.1365 361.0808 L221.9569 360.0729 L220.4119 358.8482 L220.2908 358.4596 L220.582 357.507 L220.7114 356.7718 L217.9452 355.4004 L216.9391 355.0243 L216.0043 354.7139 L214.6178 353.8409 L213.9268 353.3034 L212.471 352.3669 L211.728 352.7275 L207.791 351.4836 L206.1103 350.831 L205.6989 350.6718 L205.2395 350.657 L204.4141 350.6312 L202.5135 350.3444 L201.7778 350.4771 L200.1088 351.1466 L199.7802 351.3546 L199.6043 351.4585 L199.1987 351.6812 L197.9585 352.9664 L197.3324 353.1161 L197.0281 352.8661 L196.8361 352.4569 L196.2086 352.0425 L195.801 351.7889 L195.1763 351.7645 L194.8453 352.2069 L194.8802 352.8042 L194.8381 353.2142 L194.6277 353.3786 L194.3563 353.3506 L194.0283 353.1618 L193.8068 352.3227 L193.9405 351.7608 L194.3544 350.2906 L194.0084 349.9897 L192.6548 350.2375 L192.351 350.6356 L192.3335 351.589 L192.3713 351.8523 L192.7367 352.7754 L192.8351 353.4671 L192.7745 353.745 L192.4867 354.1661 L191.8921 354.8673 L191.4389 355.6688 L191.5538 356.0072 L191.8111 356.1716 L192.4741 356.2771 L192.9892 356.8463 L193.074 357.2533 L193.0648 357.8933 L192.587 358.5717 L191.7917 359.4557 L190.8811 360.6281 L190.0524 360.6797 L188.9528 360.4674 L188.0262 360.4534 L187.8532 360.4902 L186.9872 360.5131 L184.2002 360.2624 L183.7863 359.7927 L183.6656 359.2744 L183.354 358.4957 L183.2169 357.9995 L183.0821 356.6789 L183.1602 355.4026 L183.5798 353.9427 L183.9894 353.7701 L184.1343 352.8647 L184.3378 350.733 L184.6775 349.8334 L185.0662 349.1418 L185.3332 347.7371 L185.4355 346.8117 L185.4476 345.9571 L185.2087 345.6887 L184.4318 345.3945 L184.2573 344.9646 L184.3974 344.4485 L184.5074 343.3476 L184.7429 342.6581 L185.0458 341.1746 L184.599 340.9438 L183.7567 340.8907 L183.0356 340.9873 L182.1749 343.0062 L181.1941 344.6535 L180.3363 345.848 L180.1894 347.0676 L179.7756 348.0719 L178.3658 348.8431 L176.91 349.4065 L175.5274 350.1608 L174.5645 350.0981 L173.4615 350.1822 L171.553 350.5228 L170.6313 350.5214 L169.6141 350.2721 L167.1197 350.4351 L165.2147 339.0059 L165.1352 338.5303 M166.039 157.2304 L166.3826 156.7324 L167.9659 156.9678 L169.3514 157.4613 L171.3131 165.2592 L172.721 169.3255 L174.1632 175.3636 L174.5078 176.4672 L174.5368 177.1865 L172.909 177.6748 L172.751 176.7527 L171.8293 173.7554 L171.2792 171.3483 L169.9393 167.1986 L169.3059 165.9895 L168.1156 163.5934 L167.2016 161.3521 L167.0713 159.8767 L166.7979 158.804 L166.039 157.2304 M170.4379 152.292 L170.6584 151.957 L171.8191 151.6221 L173.0088 152.8991 L174.297 155.1057 L174.9929 156.4536 L175.2609 157.1559 L172.9012 158.0331 L171.6466 157.7077 L170.7297 155.5159 L171.35 153.9792 L170.4379 152.292 M173.5114 166.9603 L173.5744 166.1385 L174.0702 165.8272 L174.9265 166.0943 L176.2054 167.2849 L176.9013 168.559 L177.3961 168.421 L176.8087 167.0644 L176.3736 166.5435 L175.8797 165.4775 L176.0939 163.8221 L176.5136 162.7693 L176.8335 162.0818 L177.936 161.5218 L178.3455 160.6926 L179.3108 160.2463 L180.2088 160.4056 L180.6179 162.0087 L181.0652 165.3816 L182.1381 172.8606 L182.314 176.2525 L180.8907 178.7039 L180.5791 176.8641 L180.613 173.9826 L179.9413 171.889 L178.9004 172.6009 L179.1301 175.2884 L179.5822 176.1146 L180.046 177.635 L180.6072 179.1414 L179.2725 180.5076 L179.0201 180.2826 L178.3615 179.8813 L177.6244 179.5383 L177.353 178.1027 L176.9323 178.3845 L176.7113 179.2734 L176.1627 179.2653 L175.7707 178.9997 L175.6854 178.1676 L175.6975 177.0802 L175.3699 175.3452 L175.1097 172.9565 L174.2592 170.7338 L173.7697 168.8068 L173.5114 166.9603 M173.8967 321.9899 L173.9883 320.8513 L174.218 320.1685 L174.5039 319.052 L174.673 318.7423 L174.9396 318.3441 L175.3447 318.0447 L175.7494 317.471 L176.2829 317.4621 L176.7525 317.5683 L177.8783 317.9363 L177.5822 318.5609 L177.4431 319.372 L177.5841 319.8403 L178.9004 320.2208 L178.4564 321.3697 L177.5478 322.8194 L176.802 323.2073 L175.8012 323.1233 L174.5746 322.874 L174.154 322.2944 L173.8967 321.9899 M174.9231 214.5793 L176.0881 210.0503 L176.1729 208.4769 L176.1215 207.9414 L176.5703 205.2777 L176.784 204.5622 L177.0365 204.2229 L177.2565 204.1241 L177.6549 204.0769 L179.8284 204.7031 L180.2859 204.5844 L180.5151 204.5512 L181.1378 204.5622 L181.6011 204.6707 L183.4694 205.2519 L184.4105 205.7565 L185.0802 206.2323 L185.3846 206.4912 L185.8954 207.2591 L186.2424 208.0505 L187.6308 213.3349 L187.8901 214.4812 L187.9521 215.5788 L187.6802 217.5608 L187.9303 219.6895 L188.1833 220.0576 L188.4968 220.3822 L188.9746 220.6838 L189.3303 220.8351 L190.2526 220.7362 L190.9504 220.9391 L191.2872 220.9582 L192.1838 220.9413 L193.0663 221.2415 L193.1472 221.6545 L192.6563 225.1486 L191.3706 230.3774 L190.5841 232.5939 L190.2269 233.9783 L189.9298 238.3153 L189.3008 241.8217 L188.7386 244.3686 L188.7716 244.5994 L189.0061 244.8347 L189.1743 244.8443 L189.3197 244.6887 L190.1789 240.8651 L191.5281 234.1458 L191.845 231.6785 L192.2046 229.6214 L192.8012 227.0103 L192.95 226.6474 L193.2868 226.4785 L194.3593 228.0002 L196.3636 230.1008 L196.715 230.6902 L196.9917 231.222 L197.2074 232.0326 L197.3246 232.6212 L197.4327 233.3794 L197.5689 234.1 L197.7191 235.3901 L197.753 237.9753 L198.0491 238.572 L198.9985 238.7173 L199.7991 239.4128 L200.5886 240.4056 L201.5462 240.7973 L201.6809 240.9794 L201.9101 241.5223 L201.9969 241.8512 L202.2576 242.2296 L202.8527 242.5128 L202.8609 243.2283 L202.5639 244.1886 L201.7042 244.2985 L199.7579 244.3774 L198.0375 244.5183 L197.3062 245.0139 L197.1754 244.994 L196.9651 245.1592 L196.5812 245.7522 L196.3535 246.2648 L196.2105 248.3551 L196.1994 249.6414 L196.2318 249.7601 L196.2696 249.901 L196.5885 250.2587 L197.0518 250.4615 L197.5951 250.7536 L197.9416 251.0737 L198.983 251.7832 L199.8117 252.3947 L200.8023 252.7347 L201.2757 252.8394 L201.361 252.8578 L201.7618 252.8977 L203.4832 252.1579 L203.8617 249.8789 L204.4645 251.281 L205.5545 252.0606 L206.7786 250.9232 L207.7275 253.0961 L207.2816 254.9414 L207.5952 255.7638 L207.8113 257.0449 L208.2984 257.9978 L209.1915 260.5165 L211.1058 264.8671 L211.1436 265.1312 L211.9335 266.5406 L212.1482 267.0192 L212.2185 267.4175 L212.0551 267.8165 L211.6582 268.1277 L211.3554 268.262 L210.8484 268.1167 L210.3764 267.8961 L209.1373 267.2162 L208.9395 267.0273 L208.86 266.4668 L208.7883 265.6113 L208.6536 264.7602 L208.3929 264.2882 L207.8666 264.109 L206.4311 264.0197 L205.7643 265.0132 L204.3206 265.334 L203.4536 264.9689 L202.0865 264.7963 L200.3089 264.3214 L199.8825 263.8132 L199.7608 263.3818 L199.7075 263.0027 L199.7962 262.687 L199.7962 262.4517 L199.4124 262.3382 L199.1037 262.3337 L198.7761 262.3286 L194.7484 262.8471 L193.5058 262.9385 L193.2475 263.058 L192.9577 263.1332 L192.5831 263.3213 L192.3868 263.5846 L191.9347 263.9135 L190.4096 264.8826 L189.0599 264.8347 L187.5469 264.2012 L186.033 263.3257 L185.8188 262.7136 L185.7863 262.3109 L186.2772 260.8277 L186.3422 260.3476 L186.2763 259.6506 L186.4396 258.6852 L186.4163 258.2854 L186.4958 257.9034 L187.4069 255.0631 L187.3875 254.316 L186.9315 254.195 L186.726 254.3927 L186.4226 256.0175 L185.5009 257.2934 L185.2014 257.5383 L184.9441 257.6084 L184.7337 257.5376 L184.71 257.3731 L184.724 257.0006 L185.0701 256.3796 L185.1447 255.7298 L185.8396 251.2234 L186.2322 250.2255 L186.6756 247.9421 L186.6383 247.678 L186.2772 247.2591 L185.608 247.0186 L184.8864 246.6085 L185.3807 244.6887 L185.4311 243.9179 L184.4531 243.7564 L183.8023 244.4858 L183.3448 245.2146 L182.1851 244.8177 L182.0305 244.6717 L181.9321 244.4504 L181.8851 244.1207 L182.3683 241.2686 L183.2237 239.491 L184.0557 235.1105 L184.7158 233.2275 L184.6436 230.7049 L185.0953 227.4514 L185.7495 223.8873 L186.0262 221.5756 L185.9462 221.015 L185.8382 220.4921 L185.5852 220.1247 L185.3744 220.0539 L185.1781 220.082 L184.8447 219.9772 L184.5118 219.75 L184.0029 219.5782 L183.717 219.4506 L183.5861 219.4697 L183.3942 219.531 L183.0899 219.7427 L182.7439 220.1284 L182.613 220.3829 L182.2215 224.2067 L182.2501 224.4043 L182.5122 224.8381 L183.3036 225.6996 L183.4214 226.2882 L183.5857 227.4425 L183.717 227.8947 L183.7403 228.2945 L183.3904 230.0204 L183.0012 230.9941 L182.6688 231.5642 L181.8342 232.1329 L180.4007 232.9479 L179.8415 233.0549 L178.9008 232.6876 L179.8832 226.7853 L180.1541 225.3595 L179.8996 224.5585 L179.1805 223.5893 L179.1112 222.4003 L179.4659 220.7886 L179.8308 218.5455 L179.8139 218.0985 L179.5667 215.8495 L179.1873 215.435 L178.0547 215.3162 L175.8967 215.6452 L175.0413 215.2188 L174.9231 214.5793 M175.7998 317.1244 L176.1375 316.0581 L183.5726 317.7224 L184.6126 323.6498 L178.6072 321.7259 L179.1272 320.2179 L177.8793 319.49 L178.0872 317.8264 L175.7998 317.1244 M180.6973 302.3986 L182.1493 299.6361 L183.1839 297.5026 L183.1854 297.4716 L183.3841 296.5992 L183.2828 295.1103 L184.0315 295.0697 L184.5263 294.4163 L184.4943 292.7865 L184.2593 292.1708 L183.6966 290.8912 L183.1262 289.7474 L183.1064 289.2341 L182.4449 287.5475 L182.0586 286.4302 L182.2476 286.0681 L182.755 286.1714 L184.5491 286.8904 L186.2365 287.4989 L187.4471 287.7902 L188.3989 287.7776 L189.9541 287.6781 L191.0871 287.6397 L192.5356 287.3941 L194.2328 287.5859 L195.5378 287.3248 L196.0641 283.425 L196.5211 276.8348 L197.2476 276.4962 L198.3743 276.6696 L199.0339 277.0774 L199.1153 277.8363 L199.1706 279.4897 L199.3266 280.211 L199.3949 281.4404 L199.1071 283.1226 L199.0349 285.0084 L199.2248 287.2791 L199.2059 289.3787 L199.2728 290.2393 L198.4722 290.6693 L196.4887 291.0373 L196.0152 291.1671 L195.9808 291.3573 L196.1572 291.5181 L196.3166 291.5572 L199.8514 290.9738 L200.2624 290.9606 L200.7557 291.0387 L201.1493 291.0358 L201.4468 291.3883 L201.456 292.1575 L201.5433 292.7681 L201.5714 293.3396 L201.5263 294.6486 L201.316 295.3455 L201.285 296.0668 L201.3281 296.9318 L201.2346 297.4473 L200.9777 298.1272 L198.7824 299.1125 L197.454 300.1103 L195.3648 300.7334 L193.4336 300.9893 L191.4772 301.3366 L189.3585 301.5822 L188.6121 301.7614 L187.5789 302.3853 L186.1333 302.5055 L184.4386 302.3794 L183.6346 302.5018 L182.9765 302.4288 L180.6973 302.3986 M183.3162 376.9715 L183.8231 376.7783 L185.1403 376.65 L186.2239 376.8491 L188.2278 377.2789 L188.5579 376.2201 L186.4449 375.1702 L184.2229 371.6179 L184.2724 370.7936 L184.7856 370.0371 L185.2227 369.5925 L185.5304 369.4546 L186.1435 369.5409 L188.0781 370.7906 L191.6294 372.2372 L192.3355 373.0202 L191.7118 374.8591 L191.5644 375.2934 L191.2974 375.6192 L190.6999 376.3484 L189.5712 376.6308 L188.7982 377.4382 L189.2785 377.8982 L189.3396 377.9565 L189.1874 378.6134 L189.0667 379.1339 L189.1186 379.1546 L190.1915 379.5756 L191.0634 377.4478 L191.8654 377.5945 L192.4276 377.7884 L192.2948 378.6849 L192.3481 380.3247 L192.5182 381.4719 L192.5221 382.4355 L189.6715 381.5515 L190.0064 379.7761 L189.074 379.5026 L188.933 379.4613 L188.5637 381.135 L188.647 381.6717 L189.4074 382.6479 L190.0495 383.0785 L190.6291 384.0532 L191.1583 384.5803 L190.0786 386.282 L188.9523 387.9836 L188.413 388.5565 L187.7015 388.6715 L186.6368 387.8531 L185.7122 386.7066 L184.9809 385.1841 L185.0671 384.194 L184.9722 382.1716 L183.8735 379.1015 L183.3162 376.9715 M183.9351 317.1214 L184.6189 316.9961 L185.3332 316.9946 L185.8241 318.2836 L187.3764 321.0216 L189.7718 323.8666 L190.979 325.1673 L192.4532 326.1415 L194.604 327.454 L199.7642 327.9864 L206.3066 328.7872 L207.7178 328.8433 L210.4845 329.605 L211.1799 329.6131 L211.7372 329.8211 L212.0876 329.8911 L212.4036 329.8594 L212.6255 329.7318 L212.9052 329.111 L213.2982 327.1805 L213.5739 326.7705 L214.0043 326.5072 L215.0433 326.2911 L216.0213 325.8819 L217.6544 325.379 L218.9319 324.2544 L219.3947 323.2796 L219.9981 322.5879 L220.7221 322.3851 L223.246 322.3917 L223.7786 322.6506 L224.7444 322.7265 L225.5523 323.006 L226.0524 324.5015 L226.7057 325.3266 L227.1651 327.8117 L227.5727 328.2829 L227.6032 328.392 L227.719 328.8027 L228.4305 331.3349 L228.2793 331.7442 L227.7772 332.017 L226.333 331.9566 L225.1942 332.4005 L224.6146 332.0819 L224.3228 331.5812 L224.4217 330.7509 L224.5225 329.7687 L224.6257 328.6914 L224.2637 328.0262 L223.4403 327.9805 L222.4687 328.1767 L221.0541 329.2975 L220.6911 329.9044 L219.8827 330.2746 L219.1548 331.4529 L218.6765 332.4034 L217.2057 332.3459 L214.6314 332.8525 L214.344 332.6468 L213.6326 332.5804 L212.7443 332.8112 L211.4596 333.0759 L210.735 333.6614 L210.105 334.067 L209.8695 334.1562 L208.9788 333.918 L208.2044 334.1318 L206.3696 333.6887 L203.5869 332.9388 L201.363 332.5199 L199.3242 332.3474 L197.4792 332.1188 L196.8424 331.9153 L195.0833 328.6803 L192.949 328.2467 L192.7949 328.8064 L192.4566 328.7865 L192.1974 328.4215 L191.815 328.0816 L191.4375 328.4296 L191.484 328.8993 L191.6318 329.4207 L191.185 329.7097 L190.6941 329.7805 L189.6827 329.2525 L188.8763 328.9244 L188.5201 328.2054 L188.4275 327.7173 L187.9695 326.5426 L187.5232 326.2248 L187.0492 325.7573 L186.7212 325.2344 L186.3218 324.4012 L185.9346 323.3718 L185.9143 322.6646 L185.6942 322.0599 L185.1529 320.9317 L184.7788 320.2754 L184.2859 318.8323 L184.0015 317.5868 L183.9351 317.1214 M190.1872 191.2718 L190.2642 190.6994 L191.3318 190.9133 L192.5056 190.993 L192.7741 190.6736 L192.3238 190.3143 L190.7527 189.5693 L191.6623 185.1705 L193.3944 182.2286 L194.8734 180.3217 L196.335 180.2191 L198.1543 180.4264 L199.1027 180.2317 L199.7332 180.5297 L199.9043 181.1221 L199.7812 181.7093 L199.709 182.4698 L199.4172 183.0475 L199.3591 183.4377 L200.5377 184.5354 L200.9225 185.217 L201.3872 185.9008 L201.9615 186.5087 L203.4992 187.3135 L205.5215 187.627 L205.7653 188.0276 L205.7532 189.0175 L206.5567 189.8776 L206.5373 190.5482 L205.9242 191.0542 L204.8193 190.8241 L203.3616 191.5079 L202.2702 192.756 L201.534 192.7007 L199.7225 192.0619 L197.771 191.7447 L196.8371 191.46 L195.1768 190.8912 L194.5138 190.8374 L194.3593 191.0085 L194.2177 191.4769 L195.0702 191.8782 L196.4194 192.0877 L198.0046 192.5473 L197.8117 193.0666 L197.1027 193.2023 L195.6023 193.0821 L193.9381 192.8615 L192.2327 192.3894 L190.3393 191.6444 L190.1872 191.2718 M195.1351 159.2304 L195.2791 158.6469 L196.0234 158.0109 L197.3329 157.0261 L197.9852 156.115 L198.3617 155.4783 L198.9888 154.2957 L199.5994 153.4716 L199.9867 152.0153 L200.1689 150.857 L200.4727 150.5988 L201.0397 150.4505 L201.5214 150.3613 L202.1558 150.4985 L202.7272 150.8991 L203.1425 151.6568 L205.032 152.5856 L206.6177 153.0688 L208.3929 153.7962 L209.194 154.4086 L210.5194 154.9892 L211.0927 155.3558 L212.768 155.9062 L215.4698 156.9065 L216.9445 157.2717 L218.0867 157.4097 L219.0419 157.2769 L219.7034 157.0305 L221.0037 156.0736 L221.9603 156.084 L223.3618 156.6808 L224.5879 157.316 L225.9497 157.6834 L226.05 158.1046 L223.5261 159.994 L221.2343 161.4953 L219.4815 162.6978 L216.8539 163.9984 L215.7446 164.0434 L214.9571 163.6273 L214.4361 163.0187 L213.6486 162.6491 L212.2563 162.3525 L209.8584 161.3219 L208.5814 160.4735 L207.0229 159.8051 L204.4776 159.105 L202.9792 159.1382 L200.8018 159.7992 L199.1114 159.8472 L196.7111 159.9763 L195.8412 159.8265 L195.3125 159.634 L195.1351 159.2304 M195.4118 162.0655 L195.4128 161.5093 L195.612 161.2666 L196.1068 161.1751 L199.235 161.0888 L201.6848 161.167 L203.142 161.3603 L204.5004 161.42 L205.1832 161.195 L206.7161 161.5447 L208.8823 162.1186 L210.9081 162.8099 L212.1487 163.0688 L213.6428 163.6959 L214.2888 164.0072 L215.5769 164.9633 L213.8196 166.0935 L212.9396 166.7243 L212.345 167.2466 L211.5259 167.8353 L210.5669 168.3768 L209.3355 169.1248 L208.0483 169.9488 L207.206 170.6076 L206.5978 171.0311 L206.3497 171.1675 L205.8627 171.2708 L205.5021 171.3225 L205.1231 171.2428 L204.1214 170.8621 L203.1488 170.5523 L202.45 170.525 L201.7381 170.359 L201.0116 170.2756 L200.2537 170.5383 L199.9585 170.1997 L199.6339 169.1868 L199.0901 168.092 L198.2793 167.0894 L197.9537 166.3045 L198.1097 165.7129 L198.7858 165.4893 L199.4332 165.4827 L204.6817 166.3997 L207.4992 166.3266 L207.649 166.2042 L207.7096 165.9261 L207.6485 165.7328 L207.3272 165.5041 L207.1043 165.2547 L206.5673 164.3001 L206.089 163.9379 L206.01 163.5757 L205.867 163.181 L205.5675 162.5805 L205.3844 162.278 L205.0868 162.0191 L204.719 162.0183 L204.3439 162.1998 L204.041 162.6985 L204.1466 164.0035 L204.0478 164.4329 L203.898 164.7568 L203.3378 165.0777 L202.8474 165.2016 L198.1882 164.3414 L197.0096 164.1821 L196.6292 163.6199 L195.4118 162.0655 M200.4446 171.5025 L202.007 171.7275 L202.6356 171.7784 L203.5069 171.754 L205.0064 171.9141 L205.2307 172.0749 L204.7437 172.508 L204.5586 172.8016 L203.8122 172.8628 L201.929 172.7772 L201.3145 172.5448 L200.9976 172.3818 L200.716 172.0934 L200.4446 171.5025 M201.2239 390.5383 L201.4056 390.2898 L201.9009 390.0384 L202.4543 389.9315 L202.6661 389.7663 L202.7887 389.5864 L203.1881 389.5665 L204.1117 389.7258 L204.4718 389.8555 L204.7195 390.3621 L204.8949 390.9113 L205.0664 391.2387 L205.2036 391.6176 L205.0122 391.8631 L204.8726 391.8838 L202.9244 392.1625 L202.6433 392.0032 L202.0696 391.4783 L201.6169 391.061 L201.2515 390.7985 L201.2239 390.5383 M203.0034 379.7017 L203.2801 378.9717 L203.6998 378.5906 L203.929 378.4792 L204.2276 378.334 L204.2867 378.3052 L204.7025 378.4129 L205.8704 379.8159 L206.8939 381.0458 L207.3529 381.7838 L207.8225 382.078 L208.1952 381.9135 L209.1479 381.4933 L209.7702 381.8936 L210.0081 382.0463 L212.8116 385.5521 L212.7491 385.7496 L212.6134 386.1795 L211.9795 386.9802 L212.0455 387.6113 L212.0585 387.7359 L212.2805 387.8981 L213.477 388.7747 L214.3624 389.5518 L214.2064 390.2544 L214.0736 390.8523 L212.2282 391.117 L211.2822 389.4913 L210.7942 388.9716 L209.4295 388.1089 L207.9315 386.5024 L205.349 382.9951 L203.0771 379.8056 L203.0034 379.7017 M206.2208 173.4493 L206.545 172.9137 L206.9342 172.5965 L219.3177 175.4787 L219.369 175.8402 L219.2435 176.2267 L219.0022 176.6435 L218.4158 176.8412 L211.8298 175.1644 L206.3657 173.8572 L206.2208 173.4493 M208.7074 248.8662 L208.7074 248.1899 L208.8634 247.5659 L209.0975 246.8121 L209.2536 246.2663 L209.5133 245.5642 L209.6582 245.0368 L210.1113 244.6547 L210.2155 244.2904 L210.1375 243.9526 L209.9815 243.4842 L209.8773 243.1206 L209.7736 242.7046 L209.5913 242.2628 L209.5913 241.9766 L209.9553 241.7686 L210.9173 241.4825 L210.9434 241.9508 L210.6832 242.9126 L210.8654 243.173 L211.1775 243.1464 L211.7232 242.9908 L211.8012 242.6006 L211.8012 242.2104 L211.9573 241.925 L212.1652 241.5606 L212.3992 241.3268 L212.737 241.1712 L213.101 241.2228 L213.179 241.5865 L212.9972 242.1588 L212.9449 242.6264 L213.3089 242.757 L213.699 242.9126 L213.9592 242.7046 L214.0372 241.9766 L214.141 241.509 L214.2708 241.0672 L214.4269 240.7552 L214.895 240.6512 L215.493 240.7028 L215.6748 240.989 L215.493 241.4825 L215.0249 242.7304 L214.7651 243.5882 L214.5311 244.2122 L214.4012 244.5766 L214.3489 244.9667 L214.141 245.3827 L213.8032 245.7721 L213.5172 245.902 L213.335 245.6165 L213.5953 244.7064 L213.9069 244.0308 L213.777 243.6148 L213.5172 243.3286 L213.179 243.5624 L212.9972 244.0042 L212.815 244.5242 L212.737 244.9667 L212.5553 245.5642 L212.4254 246.0325 L212.2694 246.6299 L212.1913 247.2023 L211.9834 247.4619 L211.6195 247.4619 L211.5671 246.8645 L211.6713 246.2405 L211.8531 245.3827 L211.9311 244.8362 L211.775 244.3944 L211.5933 244.1082 L211.2032 244.1606 L210.9173 244.3162 L210.6575 244.6282 L210.6575 245.0442 L210.6832 245.7463 L210.6832 246.6041 L210.4496 247.2539 L210.2674 247.8521 L210.0857 248.3197 L209.8516 248.892 L209.6437 249.4378 L209.4353 249.8538 L209.0713 249.9836 L208.8116 249.4902 L208.7074 248.8662 M208.9366 171.3697 L209.2385 170.7861 L209.8564 170.5965 L211.0539 169.7541 L212.3333 168.4704 L214.7177 166.8703 L216.6183 165.8914 L218.8088 164.8372 L221.2426 163.3831 L224.4682 161.4001 L226.2555 160.1113 L227.0372 159.4953 L227.3318 159.2171 L227.7297 158.9582 L228.3151 158.8409 L229.06 159.1139 L230.1843 159.3153 L231.2093 159.617 L232.5076 159.8671 L233.8398 160.2175 L234.2546 160.2935 L234.5638 160.5104 L234.6806 161.3905 L234.4863 162.0552 L233.5413 164.1208 L233.3174 164.8969 L233.0217 165.5889 L232.7009 165.9165 L232.3137 166.5251 L231.6881 166.497 L230.6171 166.9522 L230.3757 167.0872 L229.9221 167.4199 L229.2766 168.0485 L229.2383 168.5929 L227.8746 169.8846 L227.3105 170.5515 L227.011 170.7957 L226.4304 170.9462 L225.3817 170.6261 L224.9838 170.6489 L223.2033 170.2129 L222.4168 169.9592 L221.7863 169.8566 L220.9891 170.4726 L220.6504 170.2963 L219.9603 170.5626 L219.2745 170.674 L218.9062 170.5257 L218.4982 170.5707 L217.8997 171.0591 L218.0533 171.7134 L218.0344 172.6614 L216.7884 173.014 L215.9602 172.8237 L214.7409 172.3353 L213.8075 172.0675 L212.4869 171.8661 L211.8598 171.8101 L211.3922 171.8101 L208.9366 171.3697 M215.7189 322.321 L215.7562 321.8785 L216.1022 321.2569 L216.975 320.1294 L217.5212 319.1803 L217.6137 317.1576 L217.6036 314.4594 L217.1723 312.9808 L217.2798 311.6262 L217.6026 310.843 L218.1846 310.2973 L218.9508 310.1808 L221.3143 310.4581 L224.5506 310.4839 L226.4944 310.6277 L227.3939 310.4249 L227.9211 310.4227 L228.2763 310.8541 L228.3747 311.5908 L228.271 312.3621 L228.1659 312.7522 L227.8736 313.4174 L227.8063 314.9608 L227.5935 316.5182 L227.436 317.044 L227.1976 317.482 L227.1065 317.9274 L227.3871 318.3028 L227.4714 318.6118 L227.4675 318.8205 L227.1559 319.3035 L227.216 319.8211 L227.3168 320.2953 L227.1331 320.7871 L226.3427 321.5725 L225.8368 321.7192 L225.4505 321.5872 L225.1316 321.2716 L224.7653 321.4176 L224.3761 321.8284 L223.0526 321.7074 L222.9586 321.2842 L222.7245 321.0482 L222.4241 321.3911 L220.127 321.1175 L218.77 321.4471 L217.9447 321.7782 L217.7267 322.4058 L217.5066 322.6705 L216.3087 322.9426 L216.0421 322.7118 L215.7189 322.321 M218.3625 172.9019 L218.5936 172.5544 L219.023 172.1443 L219.3559 171.9023 L219.8982 171.7798 L220.2549 172.3493 L220.8253 172.9779 L221.2343 173.2678 L221.6215 173.5946 L222.0645 174.0335 L222.1629 174.3478 L222.2089 174.623 L222.0902 174.9144 L221.7422 175.0044 L221.4015 175.053 L221.0739 174.9594 L220.7778 174.7543 L220.5859 174.5802 L219.9893 174.3308 L218.8927 174.111 L218.6973 173.7517 L218.472 173.3888 L218.3625 172.9019 M223.6783 309.1425 L224.019 308.6631 L224.4163 307.8387 L224.5012 306.4907 L224.601 305.7082 L224.7987 304.7805 L225.1525 304.2997 L226.0708 304.2606 L226.1649 304.459 L226.0815 305.0799 L226.0597 306.2208 L226.1295 306.6212 L226.2351 306.897 L226.5433 306.9324 L226.9514 308.5938 L227.0333 309.3762 L225.1268 309.4242 L223.686 309.4987 L223.6783 309.1425 M226.6223 394.0506 L226.6223 393.8154 L227.0289 393.1519 L227.3376 392.9727 L227.7961 392.9071 L228.2269 393.1143 L228.7043 393.4158 L228.9572 393.7837 L229.2519 393.9761 L229.5233 394.0049 L229.988 393.9393 L232.0215 394.8181 L233.392 394.9891 L234.2629 395.1528 L232.5206 394.3109 L232.5929 393.7845 L232.6413 392.4854 L235.5035 392.4235 L235.8049 393.0833 L236.244 393.5426 L236.3525 394.0698 L236.6254 394.8609 L237.0766 395.3121 L237.1357 395.7257 L237.4541 396.4231 L237.8059 398.6592 L237.6334 400.3018 L237.442 400.7375 L236.8759 400.8098 L235.4482 400.4087 L234.1194 399.7592 L232.8226 398.8686 L230.8429 397.1685 L226.7071 394.3263 L226.6223 394.0506 M227.0953 322.3394 L227.2194 321.7222 L227.7263 320.9037 L229.2378 320.0151 L229.3066 319.6818 L229.1932 319.0284 L228.9606 318.6132 L228.8739 317.8618 L229.139 315.5662 L229.5087 314.8642 L230.4654 315.0618 L231.013 315.7203 L231.659 316.5522 L232.2265 318.145 L232.3021 318.4894 L232.4872 319.0387 L232.9607 319.0786 L233.4249 319.6685 L233.8771 319.9657 L234.1189 319.622 L234.7363 317.8515 L235.7817 315.064 L237.156 311.2574 L237.9213 309.6403 L239.52 307.3122 L240.2949 306.4825 L240.608 306.2281 L240.9705 306.1964 L242.025 306.5681 L244.1414 307.602 L244.4597 308.1418 L244.8533 309.0297 L245.4852 311.2169 L246.7743 314.3141 L247.1726 316.1724 L247.6602 318.7017 L247.7799 319.0793 L251.1649 318.2733 L254.1337 316.6244 L257.1665 312.0974 L258.2564 312.5428 L259.2043 313.0103 L260.4696 313.264 L262.0214 313.1895 L263.3362 313.4166 L263.6328 313.7625 L263.8877 314.289 L263.8896 315.005 L263.7699 315.7594 L263.4665 316.5861 L262.9727 317.0588 L262.4925 317.1074 L261.1113 316.7424 L259.135 315.8066 L258.268 315.5817 L257.5115 316.5544 L256.2951 317.8139 L255.6012 318.4289 L254.896 319.1995 L254.3586 319.7385 L253.6583 320.0932 L253.0206 320.5667 L252.6406 320.7613 L252.107 320.5298 L251.621 320.164 L251.1843 319.3956 L251.1218 318.7216 L250.7908 318.6486 L248.1215 319.58 L248.0668 320.3912 L247.7367 320.7001 L247.1368 320.7053 L245.9887 320.6964 L244.6739 320.8513 L243.3946 321.3483 L242.4718 321.5275 L238.8541 322.481 L238.6307 323.4905 L237.7986 324.0723 L236.7334 324.7537 L235.9522 325.0331 L235.2903 324.6054 L235.0198 324.2087 L234.3084 322.4485 L233.7913 321.6853 L231.5374 323.9978 L230.7508 324.7131 L229.7869 324.8377 L229.1511 325.5316 L228.4741 325.9365 L228.0588 325.2256 L227.7675 324.5376 L227.3391 323.5827 L227.0953 322.3394 M235.7807 127.0114 L236.0109 126.7981 L239.157 127.8215 L240.7602 128.6168 L241.2603 129.0285 L241.097 129.7146 L242.2838 130.856 L243.0035 131.7473 L244.0885 132.8126 L245.2463 133.9392 L246.2591 134.798 L246.7767 135.3285 L246.956 135.7653 L246.8179 136.2942 L245.8206 136.5643 L245.2065 137.7912 L244.4001 138.7909 L243.2366 138.9709 L240.1466 138.3416 L239.4023 138.6492 L238.2479 138.4257 L237.5093 137.9447 L236.5929 137.2689 L236.7276 135.8405 L236.8357 134.4195 L237.1473 134.0263 L237.4381 133.864 L237.6252 133.5357 L237.5205 132.384 L237.0446 131.1932 L236.5289 129.3103 L235.7807 127.0114 M238.8658 374.7183 L239.0339 374.2117 L239.8185 373.1552 L240.5532 372.8293 L241.6097 372.7445 L244.0333 373.1146 L245.7988 373.2296 L246.5596 373.0409 L247.4469 372.8433 L248.0803 372.7025 L249.2144 372.6 L249.7188 372.6708 L249.7847 373.2282 L249.998 373.7406 L250.014 374.2759 L249.8502 374.5347 L249.5134 374.7507 L249.1203 374.8075 L246.7103 374.5472 L245.7464 374.5841 L244.94 374.5177 L244.0168 374.5966 L243.4023 374.9254 L242.5411 375.6782 L241.7318 375.808 L240.7568 375.9945 L239.8554 376.1368 L239.3126 376.111 L239.0131 375.6495 L238.8658 374.7183 M241.7061 369.9169 L241.7565 369.3219 L241.8893 368.707 L242.45 368.5661 L243.7861 368.5691 L245.0427 368.4828 L248.2756 367.9343 L249.6704 368.2491 L250.1618 368.4194 L250.185 368.4519 L250.3959 368.7475 L250.6236 369.271 L250.6571 370.2575 L250.4569 370.8216 L249.681 371.1873 L249.4513 371.4483 L249.0026 371.7196 L248.6183 371.8354 L248.0949 371.5818 L247.6301 371.2264 L247.2478 370.8393 L246.9943 370.795 L246.6599 370.6019 L245.6286 370.8636 L245.1731 371.2772 L244.7292 371.9563 L242.3303 371.758 L241.8656 371.449 L241.7115 370.8916 L241.7061 369.9169 M251.6253 402.1081 L251.9045 401.8206 L252.0121 401.7505 L252.9469 401.3097 L253.7126 400.7316 L254.5418 400.5053 L255.4756 399.5203 L257.9758 397.891 L258.49 397.4693 L258.9843 397.5659 L259.5518 398.1277 L260.2554 398.0068 L261.3662 398.6784 L262.8545 399.4732 L262.9717 399.8256 L263.0188 400.1551 L262.2186 401.3458 L261.8683 402.1693 L261.6962 403.0171 L261.8421 404.0412 L262.1081 404.6457 L261.7801 405.6233 L261.4651 405.8496 L260.9761 406.0266 L259.9734 405.7626 L257.7771 404.8507 L255.1858 403.8251 L254.2602 403.3821 L252.3581 402.4723 L251.7334 402.2135 L251.6253 402.1081 M255.1747 296.614 L255.4112 295.9304 L256.1144 294.3028 L257.23 293.9753 L258.5457 293.0306 L258.7265 293.0048 L259.041 293.0528 L260.2506 293.8441 L262.3408 295.0498 L263.3517 295.3898 L265.3997 295.4849 L270.401 295.5734 L271.1415 295.6147 L271.6154 295.7541 L272.9733 295.9554 L273.8141 295.996 L275.5539 296.4901 L277.6165 297.2799 L279.678 298.0646 L281.7566 299.434 L281.8501 299.9399 L281.1746 301.5402 L280.4714 301.0579 L280.0236 301.3366 L280.2601 302.3875 L280.231 302.7938 L279.5482 303.2629 L278.0226 303.5822 L274.26 304.8602 L273.8481 305.0202 L273.3707 304.9538 L272.7669 304.4686 L271.5825 303.8978 L270.9922 303.2761 L270.9035 302.8853 L270.7489 302.504 L270.4911 302.3388 L269.9251 302.1176 L269.4472 301.816 L269.1322 301.4414 L268.414 301.3234 L267.7874 301.5667 L267.0837 301.8846 L264.619 302.1545 L263.2087 302.372 L262.3345 302.2939 L261.6342 302.1596 L261.3735 301.9288 L260.5574 300.6928 L259.9618 300.0749 L258.3926 299.7968 L257.5333 299.2504 L256.7676 299.1258 L255.9055 298.465 L255.1747 296.614 M256.7657 164.2669 L256.8379 163.1773 L256.7957 162.5067 L257.2973 161.2422 L257.6521 160.1666 L257.7858 159.5395 L258.0897 159.0925 L259.5726 157.7941 L261.308 156.1268 L261.9613 155.7144 L262.6 155.3359 L263.3866 155.2238 L264.0607 155.2614 L265.2451 155.361 L266.6311 155.8066 L268.6772 156.3215 L269.9508 156.7059 L271.0 157.2629 L272.1146 158.0456 L272.6065 158.4462 L272.8473 158.5886 L273.9329 158.5126 L274.1442 158.2146 L274.0894 157.6649 L273.5239 156.5281 L272.8183 155.4694 L271.8141 154.7487 L271.0712 154.2721 L269.8815 153.9866 L268.194 153.96 L266.1266 154.0353 L264.6132 154.0102 L262.7847 153.2739 L261.9531 152.9235 L261.2281 152.4779 L260.9179 152.0802 L260.8326 151.7637 L260.9441 150.9972 L261.0274 149.8935 L261.1801 149.2753 L261.876 148.9071 L262.398 148.6784 L262.8404 148.6888 L263.482 148.8319 L264.4062 148.8939 L265.5325 149.2952 L266.2613 149.3454 L266.917 149.4922 L267.7637 149.8537 L269.202 150.7604 L271.7991 151.7962 L272.2745 151.929 L272.6898 151.8405 L273.5326 151.9489 L274.3453 152.5369 L275.001 153.2009 L276.0478 155.2488 L277.5758 157.3057 L277.7759 157.9077 L277.8089 158.3237 L277.0703 159.0903 L276.3526 159.6318 L274.9196 160.7561 L274.5144 161.5299 L274.3889 161.7926 L274.1432 162.0124 L274.1243 162.0641 L273.7192 162.7413 L273.5602 163.2688 L273.5835 163.6694 L273.7289 163.9851 L274.197 164.4565 L274.6845 165.2946 L275.9615 166.9471 L276.7563 167.791 L277.9533 168.9987 L278.2857 169.2207 L278.4544 169.4656 L278.4873 169.6965 L278.5154 170.1296 L277.5234 171.8529 L276.8377 173.1151 L272.9443 179.5928 L271.9009 181.1892 L271.6949 181.3869 L271.1754 181.4946 L270.6413 181.5035 L266.9427 180.889 L265.6832 180.5452 L263.6187 180.3224 L261.5169 179.8828 L260.1212 179.2417 L259.2363 178.8972 L258.7294 178.6265 L258.4561 178.3506 L257.9802 176.9777 L258.017 175.8269 L257.9283 172.4357 L258.0063 170.2137 L257.9802 168.857 L257.889 167.791 L257.4083 166.3857 L256.7657 164.2669 M262.7478 361.5616 L263.3342 360.4165 L263.816 359.6814 L265.2562 357.1309 L266.541 354.2885 L267.549 351.9843 L270.6186 352.5328 L271.4885 352.83 L272.6079 352.774 L273.3979 353.1058 L273.8631 353.032 L274.6356 352.7482 L275.5525 353.0925 L277.1028 353.192 L277.6989 353.8166 L277.7512 354.231 L277.4352 354.4507 L277.111 354.6107 L277.1183 354.9447 L277.1667 355.2861 L277.002 355.6599 L276.4243 355.9814 L275.3838 355.9431 L274.5639 355.3436 L273.0964 355.4933 L273.1735 353.4531 L272.5037 353.1131 L271.3421 356.6347 L270.8095 356.8788 L268.9394 358.2849 L267.548 360.6134 L264.9538 363.4558 L264.0612 362.9072 L263.1099 362.1301 L262.7478 361.5616 M263.0861 365.5785 L263.1709 365.1111 L263.1908 365.0012 L263.5518 364.4873 L264.1087 364.4607 L264.9708 365.1214 L265.8557 365.3831 L267.2553 365.4104 L268.1959 364.9341 L269.5514 364.606 L271.297 363.4056 L273.3489 360.5064 L274.0758 359.1033 L274.1335 358.9912 L274.2009 358.9308 L274.4887 358.6712 L275.2729 359.0591 L275.5282 359.3039 L275.6 359.6216 L275.4531 360.2793 L275.1352 361.1015 L273.8456 363.4359 L272.5265 364.4888 L272.0244 364.8419 L271.5708 365.7503 L271.6925 366.2679 L271.9144 366.759 L272.2755 367.371 L271.9828 369.751 L271.614 370.1374 L271.139 371.0693 L270.777 371.5773 L270.5066 372.3515 L270.0147 373.2127 L269.3959 373.1338 L268.4368 372.5874 L268.2546 371.9172 L268.2522 371.2883 L268.1848 370.7508 L268.1577 370.5318 L267.8916 369.88 L266.8361 368.9392 L265.42 367.4808 L263.9565 366.6285 L263.326 366.046 L263.0861 365.5785 M269.8945 401.9776 L269.9478 401.2735 L270.1441 400.683 L270.0632 400.1124 L270.2808 399.6258 L270.2948 399.1613 L270.5061 398.7226 L270.5473 398.121 L270.9525 397.6344 L271.5088 397.5548 L273.4114 398.4004 L274.2377 398.8583 L274.6055 399.3176 L274.5546 400.1455 L274.1437 403.587 L273.6712 404.2594 L273.1837 404.353 L272.2818 403.7883 L271.6673 403.4116 L270.7383 403.1225 L270.1795 402.9014 L269.8945 401.9776 M272.9695 181.0904 L275.0562 177.4417 L279.6 169.6294 L279.7599 168.7471 L279.696 167.4967 L279.2487 165.1632 L280.5533 165.2245 L282.9071 168.8076 L283.4552 168.8068 L284.6338 168.5472 L285.4121 169.1322 L286.1424 169.8987 L288.1613 172.82 L288.5306 173.678 L288.9895 174.9321 L289.6166 176.4303 L290.093 177.4779 L290.0121 177.9419 L289.7654 178.4125 L289.2982 179.0757 L288.4807 179.4342 L287.1359 179.7942 L285.3612 179.7662 L284.3978 179.2882 L282.7593 179.3686 L280.765 179.3922 L280.0357 179.148 L279.4435 178.8847 L278.6802 179.3892 L278.0822 180.1646 L277.4808 181.0077 L276.9307 182.1652 L275.4473 181.9756 L274.4238 181.5455 L273.4177 181.3279 L272.9695 181.0904 M276.9521 405.004 L277.1808 404.5005 L277.3276 404.008 L277.4333 403.4558 L277.7657 403.2066 L278.4108 403.0827 L278.8712 402.9368 L279.1561 402.5947 L279.271 402.2297 L279.2952 401.9791 L278.3657 401.261 L278.1757 400.8666 L278.3255 399.8071 L278.6007 399.252 L279.1372 398.988 L280.3371 399.3051 L282.1855 400.1389 L282.9182 400.5024 L283.5594 400.6454 L284.1414 401.2647 L284.3643 403.068 L284.1288 403.8517 L283.0772 405.54 L282.7636 406.3915 L282.5073 407.1907 L282.4224 407.9869 L282.3076 408.2287 L282.2683 408.312 L281.6563 408.3437 L280.1825 407.838 L278.4311 407.1796 L277.6591 406.9201 L277.158 406.219 L277.0543 405.8046 L277.0034 405.6019 L276.9521 405.004 M282.6018 337.4906 L282.8557 336.7378 L283.4455 336.1442 L283.8598 335.6759 L284.1031 335.1797 L284.5325 334.7697 L285.0505 334.2336 L285.8807 333.5456 L286.7138 332.6895 L287.0515 331.871 L287.1136 331.3195 L287.2745 330.9013 L287.3539 330.4279 L287.8851 330.0769 L288.3741 330.0408 L289.1688 330.3225 L290.0746 331.197 L290.6615 332.3186 L290.9707 332.9447 L291.024 333.5058 L290.8229 333.887 L290.3319 334.2277 L289.5464 334.9032 L289.0404 335.3611 L287.8463 335.9561 L286.471 336.5682 L286.109 336.841 L285.6781 337.1912 L284.6091 338.2678 L284.1743 338.4979 L283.7217 338.6026 L283.0927 338.5244 L282.6682 338.0031 L282.6018 337.4906 M282.6604 394.4192 L282.9793 393.4696 L283.444 392.4183 L284.1472 391.4001 L284.7016 389.9013 L284.7365 389.0659 L284.6992 388.3817 L284.877 388.0817 L285.3258 388.0912 L285.5502 388.2601 L285.7135 388.4709 L286.2471 388.8905 L287.1528 389.2967 L287.7528 389.9005 L288.5868 390.9261 L289.3782 391.5719 L289.4814 392.0615 L287.7465 395.8407 L287.6878 396.606 L287.8289 397.5946 L288.203 398.3481 L288.3673 398.8192 L288.4361 399.5388 L288.3426 400.0077 L288.0818 400.5208 L287.8012 400.7545 L287.6975 401.0103 L287.6563 401.3178 L287.8429 401.8936 L287.9093 402.5003 L288.0828 403.4396 L288.7458 403.5457 L288.8747 403.8421 L289.2512 404.5182 L289.4417 405.1072 L289.5241 405.45 L289.5057 405.6255 L288.9023 406.7881 L288.1046 408.0038 L287.9985 408.8089 L287.4291 410.6247 L287.0908 410.8739 L286.8684 410.7441 L286.5737 410.5731 L285.9737 409.9302 L285.052 409.5579 L284.2941 409.162 L283.8298 408.5545 L283.9897 408.0363 L284.6517 407.4325 L285.5812 405.3778 L285.7784 404.7003 L285.9253 404.3243 L286.2582 404.1739 L287.2866 404.1422 L287.6374 403.6099 L287.6869 403.1417 L287.4824 402.1265 L287.3069 400.3822 L286.2127 399.8064 L285.3975 399.0913 L285.1804 398.1196 L285.7382 397.8394 L286.5092 397.7797 L283.7629 395.9756 L282.6604 394.4192 M292.299 342.285 L292.6562 341.8854 L293.4989 341.8456 L294.4551 341.2461 L295.309 340.6348 L295.4636 340.3104 L295.1568 339.4646 L294.5229 339.281 L294.081 339.4115 L293.6051 338.7449 L292.6547 336.4694 L292.8195 335.6133 L293.4887 335.3906 L295.102 334.9452 L296.8113 335.5609 L301.706 336.445 L303.4356 336.1641 L304.8473 336.1833 L305.5282 336.6021 L306.2943 337.5673 L307.6048 338.7921 L309.3077 340.5957 L311.6998 342.8115 L312.167 343.4213 L312.2527 345.1504 L312.0763 345.7934 L310.9302 347.1679 L308.8711 346.5212 L308.228 347.0455 L308.084 347.816 L308.3894 349.0717 L309.188 351.3383 L308.9559 351.8368 L307.0717 351.356 L305.4162 350.6666 L304.714 349.725 L304.3583 348.8675 L303.8339 348.2363 L303.4966 348.2179 L302.9679 348.2591 L301.2223 348.6772 L300.9747 348.8136 L295.8905 344.4367 L294.5297 343.8814 L293.5992 343.5386 L292.4366 342.8277 L292.299 342.285 M297.104 375.4585 L297.4413 374.6858 L298.0655 374.2884 L299.138 374.0348 L300.8462 373.4154 L302.4896 371.9644 L303.2626 370.1698 L303.3479 369.0801 L303.0425 368.2933 L302.8957 367.5442 L303.0484 366.4574 L303.3013 365.5107 L304.2614 364.9842 L305.203 364.3273 L305.9323 364.5713 L306.9597 364.3818 L308.0021 363.7736 L309.0475 363.4698 L309.6469 363.1763 L309.8699 362.7546 L310.2706 362.1632 L310.5299 361.3087 L310.5619 360.5477 L310.4597 358.8408 L310.6317 358.408 L310.7664 357.9 L311.221 357.7525 L311.614 357.4613 L312.135 357.8049 L312.9947 358.5459 L313.6184 359.4543 L314.4151 360.9275 L316.8261 363.1107 L319.1043 366.0099 L319.2206 366.4552 L319.2003 366.7796 L318.9071 366.9359 L318.2194 367.0347 L317.5874 367.2928 L316.8484 367.7352 L316.1089 367.9416 L315.4585 368.0685 L314.7282 368.1053 L313.8578 368.0957 L312.1127 368.5131 L309.8946 368.8972 L309.3189 369.0808 L307.1293 370.3689 L306.6471 370.7405 L306.3288 371.4925 L306.446 372.4134 L307.944 374.9653 L309.5583 376.5962 L312.3909 378.6997 L312.135 379.221 L311.3625 380.175 L310.9966 380.8437 L311.2569 382.2527 L311.2467 383.1647 L310.8759 385.3006 L310.8701 385.9177 L311.1241 386.6248 L311.3969 386.9942 L311.1643 387.4705 L310.9574 387.8937 L309.7255 386.7442 L309.5481 386.5489 L306.6312 383.3431 L305.1492 382.0278 L303.8984 381.8723 L302.8792 381.3746 L301.5693 379.5328 L300.5274 378.4033 L299.1438 377.7375 L297.8343 377.2612 L297.2775 376.2069 L297.104 375.4585 M300.3626 315.915 L300.7978 315.2167 L301.5262 314.6098 L302.9359 315.4128 L307.3096 316.8641 L310.7015 318.0801 L313.9809 318.7902 L314.3085 318.274 L317.1367 314.2131 L317.8758 314.3347 L318.6153 314.4166 L319.3689 314.2219 L319.8981 313.7175 L320.2228 313.323 L320.5165 313.087 L320.8877 313.0206 L321.6379 312.4241 L322.4806 311.2117 L322.4409 309.9986 L322.7792 309.5083 L324.0125 309.071 L324.8606 309.0702 L325.9006 309.3364 L326.55 309.6793 L326.8306 310.054 L326.6532 310.7081 L325.7639 311.2722 L325.2304 311.9875 L323.9524 313.3923 L323.4877 314.3967 L322.3915 315.4239 L322.0808 316.0581 L320.9948 317.9075 L319.7275 320.3078 L319.2439 320.8078 L318.2562 321.6212 L317.8772 321.7767 L317.3112 321.79 L316.5717 322.4677 L315.9751 322.6203 L314.702 323.3069 L314.1171 323.8946 L313.743 324.0686 L311.4589 323.1756 L308.8677 321.6241 L307.9619 321.4995 L305.8732 320.3845 L303.8063 318.9525 L300.9553 317.0765 L300.3626 315.915 M301.3047 359.4535 L301.4646 359.076 L301.7825 358.5083 L301.911 358.2686 L302.2846 357.8528 L302.6689 357.8122 L303.2398 357.751 L303.7268 357.3263 L304.1465 357.038 L305.9648 357.9435 L306.3404 358.332 L306.6452 359.1121 L307.0174 359.876 L307.504 360.7136 L307.8039 361.1759 L307.9595 361.5962 L307.8233 361.81 L307.5466 362.1175 L307.1143 362.3195 L306.6646 362.3977 L306.3321 362.4051 L305.2195 361.7201 L304.6762 361.6574 L304.1203 361.2681 L303.3435 361.1582 L302.176 360.7896 L301.7937 360.3081 L301.3813 359.8517 L301.3047 359.4535 M303.5465 394.6589 L303.8766 394.069 L304.5197 393.6628 L305.061 393.5441 L305.28 393.4962 L305.5752 393.4313 L305.8112 393.2949 L306.2231 393.0575 L306.3525 393.0907 L306.6108 393.1563 L306.7746 393.8361 L306.9311 394.751 L307.1657 395.6011 L307.313 396.4504 L307.5558 397.313 L308.1218 398.5715 L310.0293 400.5754 L311.7366 402.1125 L312.5425 402.6603 L313.1323 402.6507 L313.2787 402.6485 L313.4425 402.3897 L313.8888 402.0793 L314.4151 402.0712 L314.829 402.3064 L315.0102 402.689 L315.0214 403.0591 L315.0335 403.4624 L315.0102 404.0146 L311.6082 407.5947 L310.8939 408.1122 L310.4723 408.295 L309.7759 408.1852 L309.1245 408.2191 L308.8851 407.4148 L309.2883 406.9621 L309.1478 406.5006 L308.5449 405.0807 L307.5199 403.4455 L306.336 402.4716 L305.6009 401.5338 L304.2565 398.7624 L303.6163 396.505 L303.5465 394.6589 M303.5669 410.4389 L303.6682 409.8978 L304.052 409.7754 L304.5129 409.7209 L305.0401 409.7194 L305.4933 410.0895 L306.1916 409.8359 L306.8434 409.6759 L307.3668 409.8823 L307.533 410.4411 L307.5989 411.3288 L307.345 414.706 L307.5335 415.4698 L307.3901 416.2468 L306.7964 416.5321 L305.4036 416.5505 L304.8167 416.3198 L304.1809 413.8199 L304.0336 413.174 L304.0951 412.4656 L303.8906 411.7785 L303.7859 411.3251 L303.6638 410.9336 L303.5669 410.4389 M319.8685 392.9012 L320.2407 392.4662 L320.8862 392.6417 L321.6791 392.6284 L322.4288 392.5016 L323.6665 392.7058 L324.7928 392.6454 L325.7247 393.0007 L326.267 393.7137 L327.1737 395.68 L327.2207 396.1017 L327.0458 396.2808 L326.1672 396.3464 L324.3702 396.2948 L322.1589 394.5954 L319.8685 392.9012 M325.3418 188.4805 L326.8926 186.1819 L326.9392 185.9473 L327.3671 185.3918 L327.5129 185.2207 L327.6821 185.0112 L327.8842 184.7899 L328.078 184.5317 L328.2394 184.2853 L328.3848 184.0522 L328.5224 183.8678 L328.6436 183.6841 L328.8941 183.4001 L329.0472 183.1913 L329.2653 182.897 L329.4674 182.7369 L329.6773 182.5274 L329.8711 182.343 L330.0979 182.2198 L330.4856 181.9254 L330.7279 181.7772 L331.4815 181.4326 L331.8706 181.5846 L332.189 181.8399 L332.5448 181.9616 L332.9891 182.2566 L333.2639 182.43 L333.6759 182.7243 L334.0388 182.9575 L334.4353 183.2046 L334.7503 183.389 L334.9761 183.7947 L335.2421 184.1009 L335.5329 184.286 L335.9938 184.483 L336.4784 184.5929 L336.8336 184.6423 L337.1729 184.6667 L337.5276 185.2384 L339.7593 186.8893 L339.3076 187.5636 L339.9977 188.0003 L339.8383 189.2764 L339.499 189.978 L339.297 190.2487 L339.0949 190.605 L338.7314 190.8027 L338.32 190.8137 L337.9487 190.8263 L337.6337 190.8875 L337.1806 190.8506 L336.7202 190.827 L336.4222 190.7407 L336.0587 190.8019 L335.7113 190.8506 L335.3144 190.8506 L334.8792 190.6426 L334.7018 190.4331 L334.442 190.2369 L334.1038 190.1506 L333.8857 190.065 L333.3691 189.8799 L332.9402 189.8917 L332.6417 189.8673 L332.2462 189.7441 L331.874 189.7449 L331.4791 189.7198 L331.1553 189.7699 L330.6867 189.6829 L330.5341 189.6342 L330.0087 189.3753 L329.9118 189.0566 L329.9113 188.8471 L330.0005 188.552 L330.1052 188.3551 L330.283 188.1345 L330.4444 187.925 L330.6305 187.6543 L330.7836 187.4212 L330.9533 187.1873 L331.1394 186.9911 L331.3332 186.6828 L331.3981 186.4622 L331.3007 186.204 L331.026 185.9827 L330.7197 185.7489 L330.3964 185.8234 L330.1948 186.2158 L330.0005 186.4991 L329.7175 186.7322 L329.4432 186.9535 L329.0075 187.0641 L328.6755 187.0273 L328.2641 186.9291 L327.8197 186.8185 L327.4877 187.2227 L326.3188 189.2455 L325.3418 188.4805 M327.7446 308.6845 L327.7698 308.0179 L329.1001 306.1463 L329.6181 305.751 L330.1643 305.4582 L332.1488 304.9936 L333.0633 304.4745 L333.3216 304.2238 L333.6797 304.2061 L333.8794 304.5792 L334.4813 305.431 L334.7793 305.9774 L334.9766 306.1905 L334.9935 306.6367 L334.712 306.9582 L334.1149 307.9537 L334.2981 308.2767 L334.7188 308.4397 L334.8598 308.846 L334.6955 309.2162 L334.3248 309.5459 L333.703 309.9161 L332.9276 310.1941 L331.2033 310.3733 L330.2273 309.9905 L328.4953 309.1263 L327.7446 308.6845 M344.7436 348.2341 L345.2064 347.8263 L346.5876 348.2385 L346.7737 347.3883 L346.9685 346.738 L347.1071 346.3966 L345.802 343.2746 L345.8481 342.2836 L346.087 341.7069 L346.4131 341.4194 L346.8139 341.252 L347.2631 341.1207 L347.692 341.2099 L348.07 341.5174 L348.5246 342.5571 L350.2266 347.1605 L351.5385 351.081 L352.1181 353.7038 L352.1627 354.3939 L352.4558 355.5169 L351.9019 356.1318 L351.0282 355.8546 L350.2503 355.3163 L349.8273 354.0311 L349.379 353.7399 L349.015 354.1403 L348.685 354.402 L348.008 354.1034 L347.5781 353.6625 L347.2103 352.7172 L346.6055 352.1738 L345.3964 350.1505 L344.7436 348.2341 M344.8371 365.9074 L344.9937 365.2224 L345.9828 364.853 L348.7383 364.1312 L351.9799 362.2753 L352.7994 361.9774 L353.5642 362.0954 L353.8777 362.8947 L354.2213 364.4659 L354.3308 365.897 L354.3754 366.9625 L354.5489 368.3708 L355.3078 371.1748 L356.5024 373.6669 L357.0161 374.9291 L357.4523 375.6967 L358.1172 375.8161 L359.0913 375.342 L360.0561 374.615 L360.1012 374.0606 L359.9093 372.945 L359.8909 372.0875 L359.6006 370.9838 L359.3971 369.9744 L359.3811 368.9193 L359.9607 368.3641 L360.8994 368.2801 L361.4296 367.6415 L361.3176 367.0945 L361.4906 366.4309 L362.1226 365.7017 L363.6181 365.4075 L367.3758 365.0388 L368.2937 365.1007 L368.8021 365.4841 L369.499 366.7708 L370.3456 367.0443 L371.4321 367.2309 L374.1576 367.7927 L375.3793 368.3081 L376.2521 368.766 L376.4998 369.2393 L376.4881 369.9575 L375.0081 372.4658 L374.3708 374.3245 L374.7367 375.1164 L375.2567 375.2963 L375.6745 374.949 L375.8543 374.3666 L376.0491 373.9647 L376.3108 373.7863 L376.667 373.6624 L378.6893 373.7952 L381.1521 374.2139 L381.3683 374.5575 L378.7135 379.6736 L376.46 383.5732 L375.1545 384.9703 L373.3294 386.7103 L370.1779 389.9366 L366.8006 393.4261 L366.1352 393.4873 L365.5798 393.292 L365.307 393.0162 L364.8316 392.8636 L364.4987 392.8238 L363.8468 392.7493 L363.2973 392.5938 L362.6038 392.5989 L361.8109 392.8931 L360.7487 393.3598 L359.7382 393.8117 L359.3045 394.0948 L359.0525 394.6264 L358.7205 395.7655 L358.3227 396.4452 L357.9282 396.7224 L357.2114 396.7512 L354.4476 397.1324 L353.9461 394.4458 L352.089 388.6575 L350.307 383.8696 L349.0567 380.4721 L348.1161 377.8481 L347.5345 375.7748 L347.0097 374.0082 L347.2525 373.0357 L347.7487 372.6302 L348.9763 372.1532 L350.751 371.8125 L351.8665 371.4387 L351.7192 370.4957 L351.5404 368.8139 L351.2957 368.1252 L351.0417 367.4594 L350.577 367.2036 L349.7308 367.3112 L347.9872 367.9623 L346.6651 368.2919 L345.8616 367.6954 L345.0775 366.644 L344.8371 365.9074 M347.6014 336.9339 L347.9213 336.3352 L348.2867 336.1626 L348.497 336.2223 L348.7708 336.6493 L349.3344 337.7266 L349.8152 337.6315 L351.066 337.0843 L351.9887 336.9995 L352.7418 336.8919 L353.128 337.2038 L354.406 339.8465 L355.1852 342.0896 L356.1714 345.2168 L356.6696 346.137 L358.7758 352.6722 L359.2551 355.8583 L359.5439 358.1271 L358.8698 358.8032 L359.178 359.7802 L359.4179 360.9511 L358.943 362.3114 L357.3016 362.5061 L356.3609 362.7007 L355.9655 362.6432 L355.7711 362.3092 L355.7159 362.0113 L354.5552 357.3683 L353.8385 353.6389 L354.0919 353.3078 L354.7985 353.2532 L356.6701 353.2672 L356.9425 352.6457 L357.1547 350.9416 L356.9289 349.6808 L355.5472 346.3022 L354.8276 346.2174 L353.6194 346.7852 L352.6812 347.4687 L352.2446 347.5911 L351.7735 347.6582 L351.3761 347.4001 L350.6918 344.652 L348.3288 338.9492 L348.1931 338.2287 L347.6014 336.9339 M360.4569 206.604 L360.8616 205.3604 L361.7591 204.0592 L364.1502 202.5986 L365.8284 201.4346 L368.8365 199.5174 L369.7723 197.9234 L371.2925 194.6577 L368.8942 193.1514 L368.5709 192.4742 L367.1447 191.9807 L366.6518 191.5691 L366.7628 190.9937 L367.4325 190.1506 L368.1866 189.4402 L370.1619 190.2236 L370.7696 190.1764 L372.1193 190.9288 L373.1074 192.2884 L373.6662 193.3543 L374.1203 194.1539 L374.9669 193.5298 L375.3357 193.538 L375.8291 193.7216 L376.1954 193.7261 L376.5982 193.2097 L377.013 192.5547 L376.9786 192.0774 L376.6684 191.5854 L375.5572 191.1479 L375.121 190.1447 L374.5918 189.6645 L373.7825 189.9403 L373.4394 192.2271 L372.0679 190.2863 L371.2034 189.3244 L371.8751 188.4576 L372.476 187.9833 L372.9902 187.9368 L373.8058 188.3632 L376.0631 189.0655 L377.8146 189.9676 L379.1652 190.3512 L380.0501 190.2317 L380.7761 190.1683 L384.9457 191.308 L386.2615 191.9173 L387.5859 191.8354 L388.3429 192.0353 L388.4796 193.0009 L388.152 194.2668 L387.8331 195.1771 L387.7522 196.3942 L387.079 197.9573 L385.5539 198.7451 L383.5849 197.7662 L382.1819 198.0473 L381.88 199.3094 L380.7261 198.7577 L380.8061 198.0495 L381.4051 197.2801 L381.6794 196.5314 L381.6401 195.9737 L382.368 195.689 L382.8914 196.3175 L383.6426 196.7601 L384.1645 196.6251 L384.6404 196.3558 L385.0335 195.8778 L385.1454 194.9712 L384.9942 193.8131 L384.3831 193.3646 L384.2692 192.3761 L384.0167 192.1039 L383.2292 192.0619 L382.6176 192.3636 L382.3656 193.2709 L381.6721 193.4701 L380.7741 192.413 L380.0109 191.7912 L379.1739 192.1054 L377.1133 194.4364 L376.4266 194.6821 L375.9885 195.5481 L374.9015 195.3283 L376.0103 196.4097 L376.7658 197.213 L377.549 198.2133 L378.0651 199.305 L378.6297 199.707 L379.9319 199.0918 L380.8744 199.3323 L381.7148 199.7232 L382.1853 200.4248 L382.4432 201.5342 L381.9551 202.7093 L381.4909 203.3916 L380.9059 204.8691 L379.612 209.3075 L379.4225 210.2325 L379.1783 211.0512 L378.5793 211.5388 L376.8327 211.1855 L375.3672 210.4161 L374.0389 209.621 L372.8831 208.8214 L369.8154 208.5293 L368.3538 208.5374 L366.615 208.2903 L363.1025 207.0296 L361.8429 207.1425 L360.8984 207.1233 L360.4569 206.604 M366.267 331.4581 L369.5896 330.1153 L372.6931 329.0365 L373.6434 328.9008 L374.4014 328.8263 L375.169 328.8175 L377.9449 329.7665 L378.3617 329.8749 L378.7222 329.8233 L379.912 328.979 L380.4019 328.3728 L380.7606 327.853 L381.2563 326.9253 L382.1912 325.6997 L383.2767 325.0693 L384.0952 324.7175 L384.7 324.7927 L386.2532 325.7882 L388.9497 328.1509 L392.9323 330.9227 L393.1571 330.8564 L393.4426 330.7487 L393.9098 330.0681 L394.5969 329.6883 L395.5056 329.5991 L396.4676 329.8837 L398.5495 331.1403 L401.8386 334.0389 L403.15 335.3257 L403.6346 336.1538 L403.4626 336.8211 L399.4543 340.3634 L397.0947 342.5837 L395.2638 344.4544 L392.563 348.1478 L392.075 349.4632 L391.2085 351.3081 L390.5964 352.8285 L389.9882 353.9537 L389.3984 355.1158 L388.5387 356.1628 L388.1413 356.7954 L387.8913 357.229 L386.9666 357.271 L385.6882 356.168 L381.8296 354.4824 L380.6224 353.6433 L378.9587 352.274 L378.4048 351.3936 L378.1053 351.1673 L377.5151 350.4771 L376.4121 350.7492 L373.6614 348.8719 L372.6635 347.5336 L372.175 346.1282 L372.1576 346.1142 L372.1397 345.9873 L372.0859 344.9536 L372.0994 344.0319 L372.4765 343.6293 L372.8278 343.425 L373.4171 343.1537 L374.1547 342.7533 L374.869 342.5048 L374.9926 342.2843 L375.0115 342.0247 L375.075 341.833 L375.0047 338.5134 L374.8458 338.099 L374.5787 338.1034 L370.1043 339.0782 L369.6322 339.1438 L369.2906 338.6262 L368.9208 338.3762 L368.331 337.5194 L368.0078 336.8926 L367.6366 336.3514 L366.3945 333.1061 L366.3092 331.9897 L366.267 331.4581 M368.7124 393.5817 L368.7284 393.2241 L369.8828 392.0762 L374.5119 387.6843 L376.1746 386.2281 L376.4959 385.8757 L377.7549 384.149 L380.0932 379.9052 L383.0392 373.7229 L384.1577 370.5503 L384.6525 370.1779 L385.3417 369.2024 L386.1699 367.6976 L388.8043 360.4312 L390.5256 355.3901 L392.2388 352.5734 L392.9037 352.0757 L393.5211 351.9533 L393.9141 351.8972 L394.5693 352.0396 L395.2618 352.3905 L395.6922 352.8846 L395.8792 353.4943 L395.7111 355.1379 L395.7765 355.5995 L396.329 356.4282 L396.5412 356.7947 L396.4661 357.4421 L395.7736 359.0539 L392.9914 365.4119 L392.4302 366.6351 L391.5332 368.794 L391.1494 369.1516 L390.6676 369.2872 L390.2465 369.3816 L389.6989 369.2917 L387.5976 368.3811 L387.0926 368.3523 L386.6618 368.6155 L385.5108 369.6876 L384.968 370.4279 L384.1616 372.3176 L383.4701 374.6187 L383.3101 375.5861 L383.9663 376.229 L384.0599 376.8881 L383.7914 377.8481 L383.7492 378.4431 L383.8684 379.0492 L384.5198 380.0143 L385.4551 380.9588 L385.7444 381.6334 L385.7909 382.0212 L385.0092 382.9907 L382.3642 385.2903 L377.8669 388.886 L371.5145 393.4166 L370.2777 394.3087 L369.9308 394.358 L369.3701 394.0764 L368.8132 393.915 L368.7124 393.5817 M387.2685 200.7508 L387.7701 200.4248 L388.2397 199.9224 L388.6109 198.5364 L388.9167 196.6435 L389.3277 195.6337 L389.6679 194.5936 L390.2252 194.2387 L390.9158 194.1133 L392.6749 194.3649 L394.1225 194.7278 L394.5247 195.0657 L394.6735 196.0224 L395.1804 196.0637 L396.2926 195.8048 L397.07 196.0084 L397.3607 196.4562 L397.0908 197.2196 L396.2825 198.0296 L395.1344 198.7038 L394.2204 198.8543 L393.4445 198.4692 L392.831 197.8275 L392.4515 197.6866 L392.0856 197.6984 L391.5855 197.7965 L391.365 198.2206 L391.1867 198.8521 L390.7447 201.3335 L390.3594 201.5357 L389.5782 201.7275 L388.9022 201.858 L388.105 201.9384 L387.315 201.5482 L387.2685 200.7508 M394.5955 366.0932 L394.7123 365.0786 L395.5541 363.4853 L396.8587 359.8303 L397.5318 359.399 L398.0634 358.2989 L398.7627 357.8638 L399.5216 357.0461 L400.0576 356.4467 L400.3746 356.1871 L401.2653 356.4422 L402.9915 356.8463 L403.4829 357.2467 L403.8449 357.5873 L403.7766 357.9988 L403.4369 358.5695 L402.2694 360.3634 L400.9203 362.5253 L400.4289 365.1804 L399.7741 366.164 L398.9304 368.1732 L398.2781 369.5564 L397.7819 370.2996 L397.2672 370.6756 L396.9769 370.7508 L396.612 370.7692 L396.2984 370.6793 L395.4935 368.8913 L394.8305 367.747 L394.7767 366.8511 L394.5955 366.0932 M418.8381 279.1372 L419.1555 278.6431 L420.3007 276.3561 L420.7364 276.1334 L421.2331 275.8214 L420.9923 275.1119 L420.968 274.6134 L421.1255 273.9814 L421.1391 272.8537 L421.0712 272.3743 L421.4018 271.7851 L421.9363 271.0321 L422.7965 270.695 L423.8995 270.5106 L425.8859 271.0048 L426.6575 270.8875 L427.8777 271.0151 L429.6262 271.5225 L430.7123 272.3522 L431.4135 272.9621 L431.8085 273.7232 L435.0239 272.4267 L435.5711 272.4695 L436.9319 274.9549 L436.6101 275.3221 L434.2379 276.3974 L431.2153 277.3104 L429.3316 277.7338 L428.278 277.7434 L423.3344 278.3481 L422.2775 278.9477 L421.0242 279.4816 L419.9818 279.5701 L418.8381 279.1372 M424.6841 324.5251 L424.6981 324.1534 L425.0165 323.8054 L425.8263 323.6225 L426.0323 323.4249 L426.4491 322.8276 L426.3696 320.855 L426.4118 320.681 L426.7442 320.6669 L430.1884 322.7981 L430.6003 323.1092 L430.6095 323.4108 L430.2911 324.2294 L430.2393 324.573 L430.6604 325.1858 L431.9238 326.0817 L432.5185 326.2661 L433.0239 326.2948 L433.6137 326.2108 L434.3905 326.2675 L435.1814 326.4239 L435.9161 326.6554 L437.4466 327.7822 L438.1623 328.1169 L438.7986 328.1273 L439.0187 328.0285 L439.1873 327.5676 L439.1311 327.1723 L438.7148 325.6511 L438.6402 325.1238 L438.7056 324.6438 L439.2532 324.2625 L439.7868 324.2537 L440.2036 324.3628 L442.1784 325.5604 L442.6276 325.6644 L443.0909 325.6319 L443.3856 325.3546 L443.7742 324.795 L443.9758 324.0937 L444.0553 323.7124 L444.2753 323.1432 L444.5142 322.7051 L444.9494 322.4751 L446.6834 322.3962 L447.2635 322.2457 L447.6381 321.8225 L447.7505 321.4368 L447.7273 320.5659 L447.6197 320.0431 L447.451 319.5623 L447.5703 319.3448 L446.5283 318.6265 L444.7687 317.061 L436.6498 309.0724 L436.566 308.7148 L439.1127 304.9885 L439.3419 304.7201 L439.5711 304.6876 L445.2145 310.7766 L447.8208 313.8348 L449.5243 315.2395 L449.4307 315.522 L448.003 316.7682 L447.6003 317.2291 L447.5111 317.78 L447.2194 318.3021 L447.9294 319.0446 L448.0413 319.0078 L448.7009 319.1825 L449.548 320.2053 L449.6086 320.6338 L449.5243 320.9818 L449.5572 321.2126 L452.5425 322.9389 L452.8701 322.8924 L453.7036 322.4035 L454.8551 321.8026 L455.5524 321.5349 L456.1282 321.352 L457.2229 321.5319 L457.8781 321.6735 L458.6787 321.8962 L459.5535 322.4102 L459.9 322.495 L460.6584 321.95 L460.6632 321.512 L460.2562 320.7635 L460.0177 319.7887 L458.876 317.3958 L458.6143 316.2557 L458.591 315.6201 L459.0218 314.6511 L459.4948 313.0361 L460.3516 311.7707 L463.5666 308.512 L463.8477 308.1351 L463.8336 307.8011 L463.7682 307.3394 L462.7248 306.1094 L462.514 305.8034 L462.6642 305.4457 L463.4832 304.858 L464.3119 303.6301 L464.8596 303.2496 L465.2715 303.3255 L467.7561 305.5268 L470.6958 308.2487 L471.3603 309.1631 L471.5754 310.2081 L471.4252 311.0369 L471.3317 311.7899 L471.3501 312.3931 L471.4296 312.9528 L472.2151 315.6658 L472.7109 316.3346 L473.2304 316.9334 L474.4982 317.8626 L474.9988 318.5646 L475.3307 319.4922 L475.4994 320.2083 L475.5924 321.1028 L475.9104 322.8733 L476.0742 323.3209 L476.505 324.9476 L476.7017 325.1548 L477.1423 325.4815 L477.544 325.9092 L477.6889 326.2248 L477.6603 326.7328 L477.5295 327.2225 L477.2673 327.9665 L477.2949 328.3994 L477.4355 328.917 L477.9172 329.4878 L479.1525 330.4213 L479.9434 330.8129 L480.3034 331.2324 L480.5937 331.6284 L481.0565 332.0664 L483.0968 333.0199 L483.2039 333.2934 L481.1636 334.2366 L478.0466 335.5889 L476.6843 336.3551 L475.7688 337.0888 L473.9787 338.7243 L472.9799 340.168 L472.5917 340.4925 L471.8332 340.567 L465.9228 339.1903 L463.0355 338.391 L452.4048 336.9604 L449.3163 335.6863 L448.6985 335.3367 L448.3287 335.322 L448.0433 335.4304 L447.6778 335.9193 L447.2053 336.1213 L446.5453 336.1818 L445.9841 335.993 L444.8937 336.0815 L442.8157 335.8057 L442.3989 335.9325 L442.001 336.1914 L441.6734 336.2378 L441.1587 335.9075 L438.8801 333.7447 L431.6505 328.9583 L425.6902 325.2558 L424.843 324.7043 L424.6841 324.5251 M425.191 347.5365 L428.8402 341.2984 L430.042 341.2984 L434.5878 342.139 L434.1225 344.2479 L435.9399 346.0913 L430.0227 347.6471 L429.8821 352.9118 L425.6417 353.1257 L425.191 347.5365 M440.427 356.1023 L441.2135 354.1071 L441.3584 353.0106 L441.7989 351.401 L443.3909 347.5424 L443.5969 347.3448 L444.1256 347.3035 L445.8944 347.2866 L445.9739 347.1406 L445.9458 346.943 L444.1115 346.0272 L443.6158 345.5936 L442.6519 345.1593 L442.4551 344.7169 L442.4168 343.7376 L442.4822 343.0217 L442.8568 342.5984 L443.4185 342.0815 L443.7602 341.6627 L443.8164 341.3523 L443.6715 340.095 L443.6715 339.8598 L444.0039 339.3754 L444.2991 338.8621 L445.0066 338.4411 L445.5533 337.5739 L446.2133 337.2783 L448.9466 337.2244 L450.589 337.7303 L452.9336 338.7073 L457.6974 339.3053 L462.4103 339.7765 L465.4397 340.3067 L467.1479 341.0381 L467.6815 341.0293 L468.7065 340.9504 L469.4596 340.8435 L470.2975 340.8582 L471.6064 341.339 L472.2641 342.2091 L472.094 343.4589 L471.9113 343.9139 L471.7203 344.3091 L471.2798 344.4993 L469.8075 344.0532 L469.5337 343.7236 L468.6953 343.5555 L467.2827 343.877 L466.974 343.585 L466.9008 342.5785 L466.5034 341.7984 L465.7202 341.3139 L464.6449 341.0787 L463.4634 340.9393 L462.7956 341.2217 L462.641 341.7814 L462.7389 343.1802 L463.2346 343.6138 L464.0628 343.7981 L464.6575 343.512 L465.3316 343.5504 L465.7944 343.9883 L466.5761 344.3143 L470.6333 345.3495 L471.6627 346.4806 L473.2624 349.0437 L473.7533 349.9152 L474.2636 350.2124 L475.0448 350.3024 L475.7611 350.1667 L477.2227 349.6328 L477.5925 349.6469 L478.4628 349.8931 L481.0599 351.0021 L481.3686 351.53 L481.5552 352.3773 L481.6114 353.4789 L481.3255 354.0577 L480.7871 354.7397 L480.6417 355.3657 L480.4033 356.0389 L480.6596 358.7929 L481.0614 360.4504 L481.562 361.6228 L481.9221 362.9839 L481.9938 364.1975 L481.8532 364.6215 L476.7744 368.1695 L475.0288 369.5276 L474.4201 369.9508 L474.0601 370.0017 L473.8449 369.6625 L472.7409 365.6464 L472.2398 364.4187 L471.4964 363.1793 L471.0671 362.175 L470.5664 360.6193 L470.2742 359.2006 L470.0542 359.0642 L466.9274 359.1741 L464.5921 359.4395 L463.9412 359.5656 L462.6633 359.9829 L461.2356 360.7579 L460.7631 360.9599 L460.3652 360.9828 L460.0424 360.592 L459.8694 360.0795 L459.9601 359.326 L460.1806 358.1492 L460.1088 357.2216 L459.4754 355.7654 L459.1333 354.3408 L459.4265 352.8322 L459.4977 351.3273 L459.4066 350.2124 L459.285 349.5908 L459.2709 349.0208 L459.1449 348.602 L458.7049 348.3285 L453.0465 346.6126 L452.2086 346.3627 L451.4458 346.404 L450.2332 347.0477 L449.9149 347.1605 L447.5184 347.1892 L446.9616 347.2689 L446.4934 347.5034 L446.1518 347.9222 L445.0139 350.2699 L444.49 351.0508 L444.2511 351.488 L444.1949 352.0344 L444.4614 352.5004 L444.8777 353.08 L445.0556 353.6263 L444.9523 354.0783 L443.9085 356.1436 L443.1127 356.4253 L442.7619 356.7777 L442.696 357.2585 L442.4764 357.3565 L440.8709 357.3506 L440.6606 357.0439 L440.4875 356.5307 L440.427 356.1023 M478.6155 340.6606 L478.6499 340.2772 L478.9824 340.0405 L479.7679 340.0619 L480.5894 340.2388 L481.3841 340.8708 L481.8125 341.2896 L481.9889 341.7158 L481.9007 342.1117 L481.6042 342.2128 L480.8428 341.92 L479.9487 341.7121 L478.6155 340.6606 M479.9448 338.6874 L480.0243 338.4219 L480.2399 338.1565 L480.6524 338.1756 L481.247 338.6579 L481.5581 338.9263 L481.6371 339.2087 L481.4185 339.455 L480.3926 339.2876 L479.9448 338.6874 M481.6953 347.9303 L481.7704 347.173 L482.1542 346.8154 L482.6456 346.7453 L483.137 346.5595 L483.6652 346.4711 L484.1402 346.5241 L484.4794 346.6097 L485.0503 347.0101 L485.5422 347.8455 L485.6037 348.324 L485.5698 348.9847 L485.7176 349.8821 L485.9357 350.4801 L486.2822 351.415 L486.5701 352.9782 L487.8427 357.4804 L489.3867 363.716 L489.8374 364.9643 L490.2638 367.2559 L490.0908 367.4484 L489.7724 367.5612 L488.256 367.4742 L488.0409 367.371 L487.7932 367.0362 L487.2282 363.4683 L486.95 362.0681 L486.6815 361.0749 L486.5318 360.7269 L486.2226 360.4342 L485.8533 360.4202 L482.8065 360.8537 L482.5303 360.7925 L482.1653 360.3405 L482.1426 359.705 L482.3442 358.2974 L482.4983 355.1386 L482.3345 353.9854 L482.5923 353.209 L482.8874 352.4606 L482.8923 352.2586 L482.7755 351.6694 L482.49 351.3066 L482.1716 350.7131 L482.1019 350.219 L481.6953 347.9303 M482.6296 337.2768 L482.9897 335.9289 L483.2659 335.5196 L484.1106 335.6192 L484.6132 335.159 L485.0784 334.5772 L485.0377 334.3228 L485.012 334.1613 L485.3013 334.1739 L485.8606 334.3427 L487.9183 334.7815 L490.1369 334.9024 L491.2025 335.864 L492.5541 336.5918 L494.513 337.0231 L496.1151 337.585 L497.2569 337.9552 L497.0383 338.8983 L496.7432 339.3496 L495.9513 342.2533 L495.7967 342.3425 L487.2844 340.7646 L487.0876 341.0278 L487.186 341.249 L487.4899 341.7003 L488.572 342.1287 L490.4058 342.6309 L491.7482 342.785 L491.6775 343.6882 L491.3663 343.5186 L490.4044 343.8431 L489.7467 344.1513 L489.3474 344.2545 L488.982 344.2545 L488.4625 344.127 L486.9975 344.4957 L486.1412 344.9624 L485.4108 345.2345 L485.107 345.2109 L485.0038 344.9565 L484.9204 343.1861 L484.8831 342.9221 L484.7658 342.8049 L484.5947 342.521 L484.6844 342.1199 L485.0377 341.6561 L485.4797 341.558 L486.4281 341.0883 L486.5686 340.665 L486.4203 340.0914 L486.1974 339.601 L485.6144 338.8843 L485.0435 338.6291 L483.8877 338.256 L483.2649 338.1093 L482.6296 337.2768" stroke-dasharray="" fill="none" fill-opacity="1.0" stroke="#ff0000" stroke-opacity="1.0" stroke-width="1.0px" stroke-linecap="butt" stroke-linejoin="miter" stroke-dashoffset="0.0px"/>
</g>
</svg>