<?xml version="1.0" standalone="no"?>
<!DOCTYPE svg PUBLIC "-//W3C//DTD SVG 1.1//EN" "http://www.w3.org/Graphics/SVG/1.1/DTD/svg11.dtd">
<svg width="512px" height="512px" version="1.1" xmlns="http://www.w3.org/2000/svg" xmlns:inkscape="http://www.inkscape.org/namespaces/inkscape">
<g id="layer" inkscape:groupmode="layer" inkscape:label="layer">
<path d="M0.0 262.823 L29.7412 408.0786 L30.4941 407.8585 L31.9059 414.8278 L35.2 414.1675 L33.7882 407.2716 L55.5294 402.5765 L56.9882 409.6925 L60.3294 409.0323 L58.9176 401.9162 L69.4588 399.7887 L70.8706 406.9048 L72.1882 406.6113 L70.7294 399.4953 L80.8941 397.4412 L82.3059 404.5572 L83.5765 404.2638 L82.1647 397.2211 L92.3294 395.167 L93.7412 402.2097 L97.0353 401.5494 L95.6235 394.4334 L117.3647 390.0317 L118.8706 397.1477 L122.1647 396.4875 L120.7529 389.3714 L131.2 387.244 L132.6588 394.36 L133.9294 394.0666 L132.4706 386.9505 L142.8235 384.823 L144.2824 392.0125 L145.5529 391.719 L144.1412 384.603 L154.5882 382.4755 L156.0 389.5915 L159.5294 388.8579 L158.0706 381.7419 L179.7176 377.3402 L181.1294 384.4562 L184.4235 383.796 L183.0118 376.6799 L193.2235 374.6258 L194.6353 381.7419 L195.9529 381.4484 L194.4941 374.4057 L204.8941 372.2049 L206.3529 379.3209 L207.6235 379.1009 L206.2118 371.9848 L216.4235 369.9307 L217.8353 377.0467 L221.0824 376.3131 L219.6235 369.2704 L241.2235 364.8688 L242.6353 371.9848 L246.0235 371.3246 L244.5176 364.2085 L254.9176 362.0077 L256.3294 369.1971 L257.6471 368.9036 L256.1882 361.7876 L266.4471 359.7335 L267.9059 366.8495 L269.1765 366.5561 L267.7647 359.5134 L278.0235 357.3126 L279.4824 364.502 L282.8235 363.8417 L281.4118 356.6523 L303.0118 352.2506 L304.4706 359.3667 L307.8118 358.7064 L306.4 351.5904 L316.5176 349.5362 L317.9765 356.6523 L319.3882 356.3589 L317.9765 349.2428 L328.2824 347.1153 L329.7412 354.2314 L331.0118 354.0113 L329.6 346.8952 L340.0 344.7678 L341.4118 351.8838 L344.7059 351.2236 L343.2941 344.1075 L365.5059 339.5591 L366.9176 346.6752 L370.2118 346.0149 L368.8 338.8988 L390.7294 334.7172 L408.6118 420.6233 L512.0 399.0551 L447.6235 91.3767 L343.6706 113.4586 L361.2235 196.5041 L339.6706 200.7591 L338.3059 193.9365 L334.7294 194.6701 L336.1412 201.6394 L313.8824 206.1879 L312.4706 199.1451 L309.1765 199.8787 L310.4941 206.8481 L300.1882 208.9756 L298.7765 202.0062 L297.4588 202.2263 L298.8706 209.1957 L288.4706 211.3232 L287.0588 204.3538 L285.7882 204.6473 L287.2 211.6166 L277.1765 213.6707 L275.7647 206.7014 L272.5176 207.2883 L273.9294 214.331 L251.9059 218.8061 L250.4941 211.7633 L247.2941 212.497 L248.7059 219.4663 L238.4941 221.5204 L237.0824 214.5511 L235.8588 214.7712 L237.2706 221.8139 L226.9176 223.868 L225.5059 216.8987 L224.2824 217.1921 L225.6941 224.0881 L215.3412 226.2889 L213.9294 219.2462 L210.4941 219.9065 L211.9529 226.9492 L190.1647 231.3509 L188.7529 224.3815 L185.5059 225.0418 L186.9176 232.0111 L176.5176 234.1386 L175.1059 227.1693 L173.6941 227.4627 L175.1059 234.4321 L165.0824 236.4862 L163.6706 229.4435 L162.3529 229.8103 L163.7176 236.7063 L153.4588 238.8338 L152.0471 231.8644 L148.8471 232.5247 L150.2588 239.494 L128.4235 243.9691 L127.0118 236.9997 L123.7176 237.5866 L125.1294 244.6293 L114.9647 246.6835 L113.5529 239.7141 L112.2824 240.0076 L113.6941 246.9769 L103.2 249.1044 L101.7882 242.0617 L100.5176 242.3551 L101.9294 249.3245 L91.7176 251.452 L90.3059 244.4826 L87.0118 245.0695 L88.4235 252.1122 L66.6824 256.5139 L65.2235 249.5446 L61.8824 250.2048 L63.2941 257.1742 L53.1765 259.2283 L51.7176 252.2589 L50.4471 252.5524 L51.6706 259.5951 L41.5059 261.6492 L40.0941 254.6799 L38.8235 254.9 L40.2353 261.8693 L29.8824 264.0702 L28.4706 257.0274 L25.1294 257.6877 L26.5412 264.7304 L4.7059 269.1321 L3.2941 262.1628 L0.0 262.823" stroke-dasharray="" fill="none" fill-opacity="1.0" stroke="#ff0000" stroke-opacity="1.0" stroke-width="1.0px" stroke-linecap="butt" stroke-linejoin="miter" stroke-dashoffset="0.0px"/>
</g>
</svg>