<?xml version="1.0" standalone="no"?>
<!DOCTYPE svg PUBLIC "-//W3C//DTD SVG 1.1//EN" "http://www.w3.org/Graphics/SVG/1.1/DTD/svg11.dtd">
<svg width="512px" height="512px" version="1.1" xmlns="http://www.w3.org/2000/svg" xmlns:inkscape="http://www.inkscape.org/namespaces/inkscape">
<g id="layer" inkscape:groupmode="layer" inkscape:label="layer">
<path d="M87.0097 185.2001 L87.7622 187.9034 L88.5147 187.7068 L92.4028 201.8621 L91.6503 202.0587 L92.5596 205.4501 L93.3435 205.2535 L99.4264 227.4204 L98.6425 227.617 L99.6146 231.0575 L100.3671 230.8118 L106.4814 253.077 L105.7289 253.3227 L106.6695 256.7141 L107.4534 256.5175 L113.5364 278.7826 L112.8152 278.9792 L113.7559 282.3706 L114.4771 282.174 L120.5287 304.095 L119.7448 304.2916 L120.6854 307.7322 L121.4693 307.4864 L127.3955 329.1126 L126.643 329.3583 L127.5836 332.7497 L131.2836 331.9633 L131.1582 331.2752 L150.8181 326.9499 L150.9748 327.638 L154.2672 326.9499 L154.1104 326.2127 L168.0949 323.1654 L168.5966 325.3771 L169.3491 325.1805 L174.7109 346.8558 L173.927 347.0032 L174.9618 351.0827 L175.6829 350.8861 L181.0761 372.7088 L180.3236 372.9054 L180.5744 373.9867 L137.1471 385.7827 L157.4968 459.6553 L158.2493 459.4096 L161.5103 471.009 L160.7264 471.2056 L161.8552 475.1867 L162.6077 474.941 L164.8967 483.0998 L164.1755 483.2964 L165.0534 486.4912 L165.806 486.2946 L168.8475 496.911 L168.0636 497.1076 L168.9729 500.3515 L169.7568 500.1549 L172.0457 508.2155 L171.2618 508.4612 L172.2652 512.0 L175.6516 511.0662 L175.4635 510.2798 L188.8836 506.4952 L189.1344 507.2816 L192.3327 506.3478 L192.1446 505.5614 L204.8122 502.0226 L205.063 502.809 L208.1986 501.8751 L208.0104 501.0887 L220.6781 497.5499 L220.8662 498.3363 L224.1585 497.4025 L223.9704 496.6161 L236.6693 493.0773 L236.8888 493.8637 L240.1185 492.9298 L239.899 492.1434 L253.7581 488.2606 L255.0123 493.0281 L258.0538 492.1926 L257.8657 491.4553 L291.6669 482.2643 L291.855 483.0015 L295.8998 481.9202 L295.6804 481.1339 L345.5669 467.5685 L345.7864 468.3549 L349.6118 467.3227 L348.3576 462.7026 L360.8684 459.213 L361.0565 459.8519 L364.1607 459.0164 L364.0039 458.3774 L375.6995 455.0844 L375.8877 455.7233 L379.1173 454.8386 L378.9605 454.1505 L390.6247 450.9558 L390.7815 451.5947 L393.9484 450.6609 L393.7603 450.0219 L405.8008 446.7289 L405.9262 447.3187 L408.7482 446.5323 L408.5914 445.8933 L421.3845 442.3545 L421.5726 442.9935 L424.9903 442.0596 L424.2378 439.2581 L423.4539 439.4547 L414.2668 406.0326 L415.0507 405.7869 L413.8591 401.4125 L413.1066 401.6091 L411.0058 393.9908 L411.727 393.7942 L410.6609 389.7639 L409.877 390.0097 L403.9822 368.3344 L404.7033 368.1378 L403.6373 364.1075 L402.8534 364.3041 L388.9315 310.632 L388.179 310.8778 L382.974 291.9058 L383.7265 291.66 L382.7545 287.9737 L381.9706 288.1703 L375.9504 266.3476 L376.7029 266.1018 L375.6682 262.2189 L374.8843 262.4155 L368.9895 240.7402 L369.7106 240.5436 L368.6132 236.5133 L367.8607 236.7099 L361.9031 215.0836 L362.687 214.887 L361.5896 210.8075 L360.837 211.0533 L354.8795 189.4762 L355.6634 189.2796 L354.5659 185.2493 L353.8134 185.4459 L347.9186 164.0653 L348.7025 163.8687 L347.5737 159.7401 L346.8211 159.9858 L340.9263 138.4579 L341.6788 138.2121 L340.55 134.1326 L339.7662 134.3292 L333.9027 112.8503 L334.6552 112.6537 L333.5264 108.6234 L332.7739 108.82 L326.8791 87.292 L327.6316 87.0462 L326.5341 83.065 L325.7503 83.2616 L319.8554 61.7335 L320.6393 61.5369 L319.5105 57.5066 L318.758 57.7032 L312.8318 36.0276 L313.553 35.831 L312.4869 31.8007 L311.703 32.0464 L303.9268 3.588 L304.6794 3.3423 L303.7701 0.0 L300.1328 1.0322 L300.321 1.8186 L232.6558 20.6925 L232.405 19.9061 L229.1127 20.84 L237.6727 52.1 L100.3671 89.7986 L101.59 94.2222 L102.3738 94.0256 L108.206 115.4553 L107.4848 115.6519 L108.5509 119.6823 L109.3348 119.4365 L115.2296 141.0137 L114.4457 141.2595 L115.0415 143.3729 L115.794 143.1272 L122.2532 166.6212 L121.4693 166.8178 L122.5354 170.8481 L123.3193 170.6515 L124.7617 175.9106 L91.3681 184.8561 L91.1486 184.0696 L87.0097 185.2001" stroke-dasharray="" fill="none" fill-opacity="1.0" stroke="#ff0000" stroke-opacity="1.0" stroke-width="1.0px" stroke-linecap="butt" stroke-linejoin="miter" stroke-dashoffset="0.0px"/>
</g>
</svg>