<?xml version="1.0" standalone="no"?>
<!DOCTYPE svg PUBLIC "-//W3C//DTD SVG 1.1//EN" "http://www.w3.org/Graphics/SVG/1.1/DTD/svg11.dtd">
<svg width="512px" height="512px" version="1.1" xmlns="http://www.w3.org/2000/svg" xmlns:inkscape="http://www.inkscape.org/namespaces/inkscape">
<g id="layer" inkscape:groupmode="layer" inkscape:label="layer">
<path d="M0.1785 379.5675 L0.3552 383.234 L1.1566 391.0519 L4.5561 401.2189 L5.4277 402.1687 L8.0184 402.0082 L9.476 401.0902 L10.8803 404.2752 L8.7048 409.089 L12.6938 414.9626 L15.6538 418.9591 L17.8196 416.4608 L21.6851 412.2796 L24.5264 408.6785 L26.2867 403.6557 L28.1135 399.9614 L30.4173 393.7089 L31.9258 388.8763 L32.1279 388.0834 L32.7708 387.8035 L33.64 387.546 L35.3131 387.309 L38.227 387.3781 L39.8045 386.9862 L42.5175 386.1373 L44.2378 385.9395 L46.1953 385.9022 L47.8745 386.1242 L48.3563 386.2492 L48.7437 386.6522 L48.8284 387.2344 L48.4011 388.2998 L46.6348 392.8674 L45.0126 396.0095 L42.4218 401.3234 L41.4122 404.1744 L40.3408 406.8967 L39.7355 408.0274 L39.3553 410.0145 L40.2972 409.0424 L43.7499 403.0587 L45.8769 399.1665 L46.7232 397.7112 L47.5161 396.9835 L48.6238 396.7857 L49.2546 396.8809 L50.0027 395.5785 L49.5512 394.403 L51.3417 390.7124 L52.6419 388.1225 L55.2943 385.5197 L56.367 383.665 L57.5957 382.454 L58.4746 380.6796 L59.7652 379.463 L61.0799 378.323 L62.1174 376.5653 L63.3631 373.7198 L64.3086 372.6022 L65.0713 371.268 L65.8388 370.2437 L66.3267 368.8834 L65.3461 366.8328 L65.7783 365.6311 L66.9417 362.9013 L68.2879 361.597 L69.2588 362.6121 L69.6329 363.8846 L69.4949 365.87 L69.3944 367.0306 L69.8436 367.8124 L69.8182 368.5326 L69.6475 370.6542 L70.1801 372.6693 L70.5046 374.1415 L70.9852 375.4122 L71.5614 376.2257 L72.1752 377.1101 L72.875 378.4872 L73.5602 382.3775 L73.8301 383.7937 L74.1933 385.2006 L74.3882 387.1075 L74.3568 389.7999 L74.697 390.1283 L74.8471 390.1657 L74.7357 391.8393 L73.4791 391.8505 L72.881 393.1585 L71.9791 393.8507 L70.4731 394.2873 L69.3436 394.0504 L68.254 395.7968 L67.5095 397.2764 L66.0434 398.5508 L65.2832 399.2747 L64.1549 401.5305 L63.1743 402.7956 L62.4673 404.0308 L61.0194 405.8182 L59.6647 405.6242 L57.2095 403.3385 L56.1406 403.0269 L58.9686 406.1634 L60.7579 408.2251 L62.0799 409.6618 L62.3365 410.869 L63.9115 411.6676 L65.3461 412.5277 L64.7541 411.6321 L64.6549 410.8839 L66.6221 408.2177 L67.662 407.0646 L69.0894 404.5644 L71.4622 405.1969 L73.2212 406.1037 L74.1643 406.3239 L74.8761 406.3948 L75.3979 406.8034 L75.5577 408.6263 L75.9306 413.83 L75.9669 417.6997 L75.9512 418.8528 L76.117 419.7932 L76.1158 421.3082 L75.7139 422.8587 L80.0745 420.5637 L84.6156 413.4867 L89.1554 407.7979 L89.567 406.363 L89.2111 405.9395 L88.2038 405.9451 L85.5647 409.3596 L84.7984 410.0182 L83.5744 410.0406 L81.8675 408.574 L79.6484 408.3501 L78.1242 408.0124 L77.4717 407.4639 L77.0807 406.6392 L76.7417 406.0291 L76.4221 401.8123 L75.8337 400.467 L75.3083 396.7745 L75.1231 393.2984 L75.3035 391.149 L75.2417 388.9155 L75.8228 386.6504 L76.7804 386.9079 L78.0358 388.0423 L78.3324 388.3744 L79.6169 388.798 L79.9874 388.9454 L84.0236 386.4059 L85.9146 384.6072 L88.0077 381.9036 L89.251 380.7076 L90.7365 379.4481 L92.6129 378.2558 L94.1988 377.1904 L95.7073 376.1977 L97.6491 374.7815 L99.9529 374.427 L100.5473 373.578 L101.5316 372.5947 L102.3027 371.7196 L104.7688 368.0568 L106.7469 365.5248 L108.5398 362.7894 L109.9272 362.3303 L112.9768 362.6345 L116.4185 363.392 L118.4124 363.6663 L119.7381 364.7224 L120.5443 367.2545 L122.8215 369.7156 L123.2586 370.9247 L122.0988 376.6101 L122.1823 377.0504 L122.692 379.0245 L123.2307 379.6179 L124.4873 379.7765 L125.7524 379.0749 L126.8723 378.2521 L130.1325 375.776 L132.1167 374.6584 L133.475 371.5573 L135.6153 368.7752 L138.2242 365.0098 L142.8089 360.7816 L144.9444 358.5052 L145.3027 355.1223 L145.8112 353.0735 L146.3717 350.06 L147.9092 347.8712 L149.1779 346.2423 L148.8414 344.283 L148.052 343.4098 L147.753 341.6688 L148.4697 339.6853 L148.9866 338.3101 L149.7505 337.2483 L150.0387 336.5169 L150.4672 336.2258 L151.0568 336.056 L152.0665 335.6977 L153.3279 334.1882 L155.6572 331.6262 L157.5942 329.3833 L158.9065 326.7242 L162.0214 324.3283 L165.192 321.5909 L167.6859 318.6258 L168.3469 318.7023 L169.7887 320.1914 L171.3613 323.0389 L170.3928 324.6716 L168.6411 326.8455 L166.1121 331.531 L162.8168 339.1647 L161.3434 342.292 L159.2345 346.0146 L158.8048 347.248 L158.9186 348.1642 L159.7575 348.9162 L160.5626 349.0972 L161.2926 349.0001 L162.2768 348.3564 L163.2102 346.5408 L164.876 344.2121 L165.5382 343.0179 L165.9414 341.4822 L166.031 339.6219 L166.0612 337.2782 L167.3554 334.2161 L169.1689 331.531 L170.3674 330.6503 L171.8843 330.7025 L172.8008 333.5015 L173.9387 336.3322 L178.4217 342.4563 L180.6044 345.7161 L181.309 346.093 L182.1092 346.4083 L182.3671 346.858 L181.93 347.9888 L177.0416 357.5834 L176.7486 359.0407 L176.3951 360.7555 L175.6566 362.4889 L174.2099 364.9575 L169.2597 371.5237 L169.0333 373.9176 L169.6047 374.5072 L171.3553 373.5892 L176.159 367.2619 L177.6674 365.8812 L179.3272 363.3622 L181.5366 359.0575 L183.5099 351.577 L186.1987 345.7627 L188.2434 337.6831 L190.1756 334.3636 L191.1247 331.419 L193.4382 330.404 L198.4744 331.852 L202.1377 333.1861 L203.6207 333.7608 L207.3288 330.4282 L210.4074 327.0097 L211.4425 326.547 L211.6786 325.9872 L211.4558 325.5524 L208.5479 324.1062 L206.6896 322.8336 L203.7478 321.0479 L200.4356 318.9934 L196.8316 318.2899 L188.7531 316.3922 L183.459 313.2797 L182.7351 313.4625 L185.7374 319.6036 L186.9795 321.4584 L189.1296 323.3748 L189.2482 323.8357 L189.3076 324.0652 L189.2628 325.2818 L188.7495 327.2822 L188.6102 329.7191 L185.0595 340.7769 L183.1576 345.3391 L181.9204 345.0107 L181.6467 344.6208 L180.125 342.4563 L176.8406 338.7878 L174.6663 335.6548 L174.0537 334.7722 L173.7826 333.5836 L173.7015 333.3727 L173.0271 331.6056 L172.2705 328.5977 L172.4497 327.7561 L173.032 326.5432 L172.8359 324.6903 L172.1979 324.123 L172.1991 323.1639 L172.6058 322.0667 L173.1458 320.3686 L174.0186 319.0102 L175.2377 317.4054 L178.1347 312.3149 L179.5173 310.0571 L180.2533 306.8606 L182.3259 303.9794 L187.1865 298.2973 L189.0909 296.4462 L189.402 296.7392 L190.161 296.9743 L190.7518 296.6197 L191.0412 295.7016 L191.9443 294.8115 L193.96 292.395 L193.7021 291.9471 L194.8243 291.0645 L198.4489 288.6834 L201.9743 287.2092 L206.4148 286.0112 L210.1314 283.8241 L215.4836 279.4986 L218.9351 276.3691 L221.7945 274.2679 L222.6093 272.762 L223.3127 271.4034 L227.0995 265.9171 L229.5292 259.9082 L229.6745 256.1908 L229.8839 255.1271 L230.1393 253.8246 L231.0134 252.7049 L234.0363 248.8326 L234.4613 247.7353 L235.5823 246.3395 L237.1537 244.7178 L239.5991 239.2649 L241.9477 234.814 L243.5034 232.235 L244.0385 231.5482 L246.7503 228.0752 L247.5529 227.7001 L248.1703 227.4109 L249.4088 226.5935 L251.6738 224.8281 L254.6362 222.025 L256.3698 221.872 L258.9618 223.6841 L260.7983 222.2676 L261.7777 219.7464 L262.9011 218.5688 L263.8987 218.2628 L264.9907 218.6547 L266.1056 218.7517 L267.3199 218.3766 L269.1056 216.3387 L270.2496 216.3573 L271.6261 217.3128 L272.9396 218.6976 L271.913 220.4052 L271.4796 221.5883 L271.6103 222.5196 L273.3391 223.8502 L274.833 223.6356 L275.5364 224.5836 L276.4213 226.754 L277.6792 229.8388 L278.0351 231.8692 L277.9322 233.7615 L276.0981 237.2401 L274.304 239.11 L273.5171 240.2912 L273.3706 241.5005 L272.4432 242.2227 L271.3065 242.4728 L270.3368 242.525 L269.2085 243.0457 L268.4773 244.1206 L267.4761 244.966 L265.7134 246.1323 L264.872 247.2669 L264.2704 248.2635 L263.4423 248.7729 L262.2317 248.577 L261.3951 248.8028 L260.291 249.2357 L259.0199 249.6855 L257.4195 250.5831 L256.8662 251.1112 L256.0781 251.8651 L254.7561 256.1069 L254.9401 256.8141 L255.0503 257.4953 L254.9813 258.6299 L254.4764 260.343 L254.1593 260.5557 L253.7307 261.9908 L254.0176 263.3642 L254.497 264.4167 L255.48 264.9019 L257.2609 265.3013 L258.4993 265.0587 L259.1131 264.5828 L260.86 263.6218 L261.6264 263.7393 L261.9496 264.5529 L261.331 266.3258 L260.8237 267.4062 L260.199 268.1601 L259.2959 268.3524 L258.9945 268.4177 L257.2633 268.3878 L256.2536 268.371 L252.7961 268.9794 L251.2308 269.5392 L250.1739 269.9162 L247.5493 269.862 L246.4718 270.4107 L244.9912 270.2744 L240.2734 269.8415 L240.2008 271.2989 L244.3435 271.8102 L247.6849 272.0584 L250.2913 272.3365 L251.3724 272.4522 L251.3046 273.7118 L251.3179 274.936 L251.5613 275.7906 L252.462 276.7479 L255.0309 277.5989 L257.1906 279.4743 L258.1773 281.9842 L259.1385 282.7959 L260.147 282.7511 L261.1615 281.0959 L261.8297 277.8974 L262.0561 276.7218 L262.0525 276.1153 L261.4339 274.6038 L261.4036 273.2919 L261.5537 270.6589 L261.6239 269.9423 L261.5804 269.9423 L261.7692 269.0316 L261.9811 267.9866 L263.251 264.8422 L263.9701 264.0379 L264.9362 263.5658 L271.2798 261.6455 L272.4965 260.8972 L273.7495 257.5531 L274.8766 255.0786 L275.3657 253.9403 L276.1671 253.1285 L277.362 251.9976 L278.4552 251.2437 L280.8667 249.8198 L292.2575 246.7799 L294.1618 245.7031 L294.8651 244.5125 L294.985 241.6554 L295.4704 239.7258 L296.1254 238.371 L297.2694 236.8556 L299.3505 234.5341 L300.1979 233.8529 L306.7219 235.0828 L314.2484 234.3363 L314.3924 233.0953 L314.2266 229.8574 L315.1285 229.4077 L315.413 230.1747 L316.396 230.6618 L317.0316 229.6615 L318.0606 229.3368 L320.2906 227.9446 L322.2373 226.7633 L327.501 222.7958 L328.7359 222.2247 L330.4235 222.165 L333.9125 223.1261 L335.2357 223.1765 L344.1204 221.8589 L351.4616 220.9781 L353.2231 221.9187 L357.2835 224.3578 L364.2772 226.9443 L364.8729 226.0672 L364.483 225.6958 L363.8402 225.0819 L363.4807 224.7403 L361.4395 222.527 L358.6382 220.8363 L356.522 219.4889 L353.2194 217.6394 L350.613 216.0662 L346.8128 213.1493 L343.6495 209.5718 L344.1652 208.5976 L344.6458 207.4629 L345.0986 206.3954 L345.6627 205.0667 L345.0393 203.1053 L344.8286 202.4409 L343.0878 202.1348 L341.5382 202.7264 L340.6423 204.5833 L340.4002 206.3394 L339.6799 207.3883 L337.6388 207.3939 L334.0335 205.9923 L329.8242 205.8412 L328.5676 206.9889 L328.823 207.5693 L330.1317 208.2617 L333.3556 210.4881 L333.3398 212.5577 L331.8012 213.1885 L325.9296 209.7173 L320.9395 208.4278 L310.7352 207.2838 L310.2315 207.9481 L309.6214 215.4149 L309.9749 216.2808 L310.4095 216.9209 L311.4869 217.9212 L313.3259 218.8823 L312.7206 222.1631 L312.6298 223.1578 L313.2242 223.8707 L314.091 224.5687 L314.1043 224.8057 L311.5826 225.4122 L310.4821 225.75 L310.4737 225.7537 L310.4991 226.0355 L310.677 226.9089 L310.9991 228.4839 L311.0402 228.9598 L310.4833 229.1166 L309.9507 229.2211 L309.0439 229.0307 L308.7388 228.6108 L308.5451 226.3863 L307.7461 219.2836 L307.1529 218.6173 L306.222 218.162 L302.7184 217.8429 L301.8819 216.0644 L302.5453 214.1179 L302.8213 211.6171 L302.9823 208.2411 L302.4618 206.7034 L301.5042 205.9289 L289.7842 207.0617 L288.9065 206.638 L288.7551 203.3348 L288.7491 198.3743 L290.2805 195.1401 L295.4269 188.2872 L307.6093 178.7262 L310.3502 178.2783 L312.93 178.2242 L315.3549 176.8245 L316.7737 176.7535 L317.051 175.4117 L316.2556 174.4692 L311.9191 174.15 L305.2777 172.8007 L304.2244 172.2856 L303.8322 170.0815 L304.1615 167.6422 L304.2789 165.0667 L304.5646 161.9649 L308.6093 160.1769 L312.2024 159.6506 L315.6587 160.05 L317.327 159.5965 L320.6889 154.2364 L321.4491 152.734 L321.6392 149.5481 L322.6113 148.182 L324.1295 147.8628 L326.558 148.7456 L332.7297 150.7519 L339.9075 151.9949 L343.2657 152.7097 L345.0199 153.279 L346.7426 154.3222 L347.7148 154.8038 L349.6893 156.0617 L353.4168 157.3214 L358.2665 158.4804 L367.0036 163.318 L369.5822 164.001 L371.1354 164.8595 L372.1015 166.0633 L372.2334 168.1984 L373.5591 175.2978 L372.3969 177.6624 L371.8715 177.3713 L371.2565 176.4867 L370.317 175.9417 L366.7203 174.6969 L365.1743 174.4953 L363.4104 174.8854 L361.9492 176.0481 L361.793 177.3172 L365.1731 184.3456 L365.3184 185.5848 L365.322 186.1764 L364.7736 186.6393 L363.6586 187.4641 L362.4105 188.4701 L361.5594 189.2035 L360.5643 189.6048 L359.3924 189.5917 L357.4723 189.6906 L356.1358 189.5432 L355.7085 189.4349 L351.1844 185.4392 L346.5998 183.1493 L342.9764 181.1393 L340.997 181.0068 L339.5552 181.953 L337.1025 182.6566 L329.0276 182.7518 L328.0507 183.4479 L326.6705 191.3143 L325.6173 192.7998 L321.4334 195.0822 L313.9602 198.2511 L312.3755 198.8633 L312.3005 199.927 L316.5401 202.1777 L317.9444 202.5342 L319.0509 202.7003 L319.9734 202.146 L321.1307 201.0207 L322.8026 199.6546 L324.4103 198.6076 L328.1778 197.8928 L330.8787 197.9246 L333.0747 197.4543 L334.2224 196.4838 L335.4705 195.1961 L336.9318 194.2424 L339.2779 194.946 L345.5816 198.1149 L345.6313 198.7681 L345.4848 200.1081 L345.0296 201.2203 L345.5659 201.4219 L347.0416 201.9724 L349.0125 201.0132 L350.2994 199.9737 L351.5706 199.1115 L353.1916 198.1597 L355.6274 197.2266 L358.3246 197.0138 L361.3451 197.081 L364.3027 198.3687 L367.5968 200.5858 L368.6391 200.8658 L369.7045 201.0561 L371.5615 200.7669 L373.5106 201.0393 L376.9367 200.7183 L378.548 200.8956 L379.2296 201.7802 L381.054 203.6241 L382.4983 204.7774 L383.9377 204.3314 L387.417 201.8362 L390.5755 201.155 L395.2425 201.825 L397.0294 202.0826 L397.0342 202.8123 L397.0366 203.1575 L399.7436 204.5273 L400.752 204.8614 L402.9009 205.5706 L403.9916 205.8244 L404.2834 205.6098 L406.6296 203.8835 L408.2457 202.5995 L410.4539 199.7796 L410.9781 198.7233 L412.6149 194.9553 L412.4321 194.0969 L412.2493 193.244 L412.1621 192.8334 L410.6997 192.4247 L407.5157 192.6972 L401.6285 192.2978 L399.9336 192.1839 L399.7738 192.1336 L397.9531 191.5606 L397.5705 190.913 L397.7327 190.1497 L399.3513 189.4517 L400.1431 188.2666 L401.1612 187.0386 L402.1345 186.1727 L402.7156 185.4448 L404.0255 184.2971 L405.2749 183.5095 L406.9915 183.2557 L407.9855 183.7857 L408.2772 184.8943 L409.5532 185.9917 L409.9927 187.4231 L412.2202 189.4219 L413.5253 190.2766 L414.7553 191.3852 L415.7286 191.7547 L416.6099 191.7267 L417.1147 192.3986 L416.3775 194.1678 L415.1535 195.5451 L415.2516 195.9706 L413.7698 198.7774 L412.5979 199.5165 L411.6585 200.7594 L409.305 204.951 L407.2579 209.0212 L406.8705 211.2308 L405.8415 212.0557 L404.2047 212.3468 L399.0063 212.0091 L395.0076 211.4623 L392.8479 211.9213 L391.6663 212.6548 L391.0126 213.3397 L390.5755 214.4538 L390.7741 215.2712 L390.9932 216.1745 L390.3467 219.194 L389.917 221.2002 L390.0961 223.2455 L390.7838 225.61 L391.8866 227.6703 L392.3745 228.8254 L392.607 229.376 L392.5706 231.188 L391.5295 233.3416 L392.2135 234.4912 L392.4447 235.0977 L395.8781 239.2033 L396.2776 239.681 L396.8369 239.9105 L398.8211 240.7223 L400.1709 242.3384 L400.7581 244.589 L400.7399 246.3469 L400.6358 247.1363 L400.6092 247.336 L400.5983 247.4218 L400.4445 247.6626 L399.7254 248.7972 L399.3428 249.4 L399.3646 250.6111 L400.6564 252.5108 L401.9469 254.4105 L402.1273 254.9704 L402.189 255.1607 L401.9348 257.1575 L399.1516 267.3335 L399.8489 268.1695 L401.6697 269.5093 L401.9372 270.2614 L401.9227 270.8193 L401.9106 271.3083 L401.545 272.8889 L400.6951 274.9005 L399.8501 276.9457 L398.4167 279.5807 L397.2606 281.6072 L396.9603 282.1353 L396.1093 283.8633 L396.033 284.0182 L394.5863 283.4211 L394.418 283.645 L396.7933 285.1211 L395.4156 287.3417 L394.7316 286.9162 L390.2547 293.8225 L389.0368 295.0597 L388.9121 295.1866 L387.7947 295.4572 L386.003 295.3471 L383.2803 294.7779 L382.7368 294.3842 L381.853 293.7385 L381.6218 293.1302 L381.6847 292.9025 L381.8252 292.3968 L382.0019 292.1337 L386.3989 285.5838 L389.8044 280.3887 L389.9436 279.297 L389.8419 279.1515 L389.5853 278.7801 L389.3371 278.4237 L384.9014 275.0237 L381.6484 272.7657 L380.0201 271.2411 L377.9706 270.4611 L371.1717 265.8872 L370.7298 266.1373 L370.1173 266.4844 L369.9587 270.8007 L367.7202 271.5639 L364.9576 272.245 L362.678 272.2936 L361.1853 272.12 L360.1163 271.8102 L360.0485 270.4517 L360.5594 262.2725 L360.5413 260.5221 L360.264 260.1657 L358.7265 258.1857 L357.0256 257.081 L353.2122 255.254 L349.6929 254.1978 L349.5815 254.2389 L348.4339 254.6681 L348.2789 254.7259 L340.8021 261.1062 L339.2307 262.6794 L337.4935 263.1683 L333.8084 262.1345 L331.5542 260.9289 L329.4574 260.5744 L325.6282 261.3302 L325.518 261.3824 L324.029 262.0971 L319.5787 266.8987 L319.2749 267.2588 L318.8499 267.7608 L316.8088 270.1737 L315.4178 272.3682 L313.6201 275.2047 L311.7581 275.4174 L306.2341 274.6393 L303.4424 274.2455 L301.7778 273.6502 L300.9449 273.5383 L299.7657 273.8779 L299.6398 273.8648 L298.5745 275.0442 L296.4135 277.0353 L294.6315 280.5492 L292.5141 283.6487 L290.9173 285.985 L289.7854 288.2467 L288.1922 289.8179 L284.6015 289.6631 L282.6827 290.152 L282.1403 290.5196 L279.7191 292.4155 L279.1452 294.6902 L280.8147 298.4167 L282.1803 300.4022 L285.6741 306.0264 L285.7988 307.4502 L285.1233 310.0477 L285.5143 311.2588 L285.9913 311.492 L286.5675 311.7719 L289.6679 312.2758 L289.9052 312.5725 L290.2987 313.0614 L289.329 315.2073 L288.8605 315.9667 L289.1583 316.631 L290.174 317.3998 L290.8895 317.9428 L291.3701 318.3067 L293.6327 319.7921 L297.8917 322.0107 L298.7282 322.9531 L295.9765 328.1256 L295.8736 328.3197 L295.7731 328.3495 L294.6121 328.6835 L294.6605 329.5624 L294.6981 330.2416 L292.3604 333.4791 L290.197 335.4458 L289.0784 335.903 L288.8968 335.8582 L285.3448 334.9756 L279.1017 331.8501 L275.5872 332.4267 L264.0185 332.9883 L262.3019 331.7922 L260.6688 331.587 L250.3131 333.3951 L242.9501 333.772 L238.828 333.5071 L237.9696 332.8652 L237.742 331.2716 L238.5955 323.8226 L238.305 320.4955 L238.2311 317.5137 L239.1112 313.3114 L241.2177 305.6663 L243.5288 302.703 L245.3593 300.1764 L245.329 296.7727 L244.0348 291.1485 L243.5736 289.9001 L243.3085 289.7358 L241.8412 289.8683 L238.7154 289.469 L237.374 289.301 L236.0508 288.9633 L233.0473 287.644 L229.2798 293.6117 L226.2121 296.295 L225.5511 297.3195 L223.0778 301.1505 L222.9858 301.2587 L220.9144 303.7014 L219.4774 307.4316 L218.2414 309.8145 L217.837 311.3316 L217.6724 312.3392 L217.5731 313.8824 L215.9472 318.5381 L215.0599 323.7536 L214.7318 324.7911 L213.8105 327.7039 L213.7439 327.7972 L212.1411 330.0662 L210.1653 331.99 L208.6763 333.1264 L207.301 334.2889 L205.8761 335.22 L204.6752 335.4421 L203.8653 335.7369 L203.8362 335.513 L201.2733 340.6631 L200.306 344.2009 L200.5252 345.3559 L201.6547 346.0818 L203.6413 347.5802 L205.1885 349.7036 L205.1207 355.0495 L204.295 356.8277 L202.4089 356.9005 L200.2201 358.1731 L199.2346 359.1583 L198.9731 360.2517 L199.7225 361.5168 L200.5469 362.5039 L203.1752 362.0206 L206.1691 360.9141 L208.0371 361.1548 L208.9789 362.4292 L207.4899 370.9079 L207.623 372.423 L207.8833 373.6769 L208.2707 374.5744 L211.037 375.985 L217.5041 380.2971 L217.6155 381.954 L215.7051 384.7024 L204.8616 397.9966 L203.0396 401.5436 L198.3 407.837 L192.121 414.9495 L188.0764 421.5022 L178.1214 433.2417 L169.4316 443.134 L166.1702 446.9233 L164.4838 450.3208 L171.2838 456.6177 L172.072 455.7706 L175.1917 459.3118 L178.2606 462.1533 L178.5451 461.9126 L180.6117 464.1104 L182.516 462.8828 L183.1455 462.3212 L187.1236 463.9462 L189.1042 468.2056 L196.6742 461.3324 L197.5519 460.7596 L189.9177 456.4069 L208.2792 441.2515 L209.5394 443.3131 L209.5007 445.6043 L209.3482 447.97 L215.8758 449.9552 L220.8769 457.7819 L212.5163 463.6216 L207.1727 464.4612 L201.5602 459.4984 L189.6768 469.4351 L185.7302 473.9613 L179.7606 480.883 L175.7958 485.3718 L170.2681 492.8885 L166.2162 501.0861 L165.1048 504.6495 L176.1675 502.8323 L190.2143 503.351 L199.5567 508.9833 L200.1789 510.1101 L200.8726 512.0 L201.3702 511.8246 L201.7297 511.5243 L202.3108 510.8657 L202.4561 510.0448 L203.013 509.4908 L208.1847 506.0375 L209.4172 505.7278 L211.1665 505.5748 L211.7876 505.5692 L212.4001 505.8528 L213.4546 506.1979 L213.9037 504.4629 L214.4909 501.9891 L215.5974 500.366 L222.24 492.2225 L222.6807 491.1236 L222.6456 490.1908 L222.5209 480.8475 L222.1626 480.3923 L222.2292 479.6274 L222.0754 478.243 L221.4071 478.0919 L220.113 471.8624 L225.9179 464.5862 L225.5644 462.8473 L225.3986 460.3696 L224.7146 459.4704 L222.1795 456.9815 L220.803 456.2464 L220.7183 456.2016 L220.642 455.9927 L220.1638 454.668 L219.5028 452.6717 L219.2692 451.5466 L219.5694 450.1735 L220.6771 449.0148 L221.9362 448.0446 L223.2134 447.2928 L224.7424 446.8618 L226.1939 448.1696 L226.8319 450.0727 L227.8307 452.847 L228.5716 454.6008 L228.8888 455.7352 L229.3076 457.0636 L229.0135 458.3174 L227.1818 460.2129 L230.074 463.8996 L232.6804 467.2243 L233.4867 467.4052 L233.9419 467.4332 L235.5908 467.2709 L237.1936 466.978 L238.7335 467.1123 L240.4853 468.5247 L241.909 470.1814 L243.7588 469.2504 L242.7625 467.3474 L237.9587 463.5096 L235.3135 458.4871 L233.1223 451.709 L231.6805 447.9122 L231.1877 445.3449 L231.7943 444.0277 L233.5472 442.3765 L234.2482 439.6357 L233.4528 437.8371 L234.046 435.9825 L235.5762 434.2828 L237.0532 432.9227 L239.0786 432.2734 L241.179 432.4749 L243.2613 433.0514 L245.5082 432.8201 L249.6449 431.7305 L256.3711 431.4599 L257.5236 431.7622 L262.5004 440.688 L263.0198 441.619 L263.1118 441.8728 L264.1904 443.5967 L266.4349 447.1864 L268.4119 448.8562 L271.9772 451.0839 L276.4879 455.7632 L283.5059 462.9201 L285.0373 461.1924 L279.1404 455.2762 L278.5811 454.7146 L277.7966 454.5262 L272.62 450.4048 L271.2096 448.5559 L271.1019 447.4066 L267.8828 445.5147 L265.6928 441.2962 L264.6456 438.5125 L263.4677 436.6542 L262.5815 435.2586 L262.6203 434.8873 L262.8455 432.71 L262.0307 429.9188 L261.0005 427.5493 L261.1796 423.6442 L261.4569 422.9799 L261.9823 422.4612 L262.5016 422.2485 L264.6117 423.1404 L266.4652 423.2132 L267.631 422.3362 L268.7254 421.0264 L269.6177 420.4779 L270.1237 420.8324 L272.3234 419.4722 L272.9432 419.4181 L274.0037 419.351 L276.7179 420.6272 L277.799 421.2727 L279.2118 421.7373 L274.5207 419.1532 L272.9687 417.0504 L273.8597 414.7574 L282.558 405.9973 L290.8471 401.8048 L289.7261 401.1443 L289.4658 400.4763 L289.7515 399.508 L289.2902 398.8419 L287.7866 397.9798 L287.2746 397.6888 L286.5482 397.2634 L285.9465 396.7111 L284.472 395.4087 L283.2311 394.0858 L282.311 392.3991 L281.9878 391.955 L281.3183 390.6508 L281.0181 388.7401 L280.5338 388.395 L280.3752 387.7363 L280.7069 386.141 L281.2614 384.4244 L281.644 383.6165 L282.8207 383.428 L283.9562 383.5474 L284.5591 384.3031 L285.9429 386.1018 L287.6123 384.4561 L289.0178 383.2377 L290.3483 382.1256 L292.3834 380.8195 L295.1218 378.726 L295.3966 378.7857 L295.8542 379.2167 L296.3397 379.394 L296.7779 379.0357 L297.0116 378.6271 L297.1665 378.2931 L297.3578 377.9741 L298.3614 377.7334 L299.3239 377.4143 L300.6156 377.4012 L301.0599 377.8677 L301.0805 379.2634 L300.7984 380.8382 L300.7705 381.6648 L301.2136 383.0922 L300.8856 386.2529 L300.5272 387.9173 L300.6676 389.1357 L300.5986 390.0836 L300.4207 390.7403 L300.1434 391.4046 L299.7633 391.6733 L298.9607 392.0968 L298.1871 392.8562 L297.8021 394.0186 L297.6278 394.9087 L298.2985 395.0859 L298.2234 396.1532 L298.4558 397.6496 L298.2064 399.2206 L297.0975 399.6031 L295.3688 400.7655 L294.1763 402.1015 L293.4088 403.3124 L295.0395 404.4842 L295.468 404.0084 L296.29 404.3909 L297.3239 404.6633 L298.6762 404.0121 L299.4994 403.4523 L299.7657 402.2657 L300.0732 401.9354 L300.3601 401.76 L299.2621 399.7673 L299.1108 398.618 L299.29 397.7783 L299.9413 396.9798 L301.7475 395.5412 L304.6591 393.1118 L305.6275 392.6734 L306.6009 392.8581 L307.5948 392.8879 L309.6989 392.5521 L311.2472 391.6416 L316.275 387.0907 L317.3536 387.1467 L318.3221 388.0386 L321.0206 390.4791 L321.1973 391.5408 L321.7046 391.9681 L322.023 393.8768 L322.2942 395.0654 L323.3619 395.5617 L324.552 395.3397 L325.1185 395.6774 L325.4611 396.1345 L325.6282 396.6924 L326.2456 397.616 L326.9853 398.006 L327.5022 398.5247 L327.8497 398.8717 L327.8908 399.0098 L328.0385 399.4949 L328.3775 400.2916 L330.6886 400.3644 L331.6765 400.273 L332.8617 399.883 L334.0481 399.1628 L330.1971 396.3342 L326.3304 392.3655 L323.305 388.3502 L320.4625 384.9786 L326.6027 382.0771 L329.4053 381.8775 L327.8448 381.3233 L327.0943 380.8009 L326.4853 378.9816 L326.1996 377.4777 L327.047 375.4495 L328.7153 373.7161 L330.3569 372.0722 L337.0165 368.0736 L338.7404 367.4336 L339.5503 366.9074 L339.4268 366.2618 L338.669 365.2673 L338.0019 364.3661 L338.0032 363.6066 L338.4632 362.9106 L340.3191 361.4664 L341.8202 360.9645 L342.6483 361.4142 L343.3541 361.9926 L344.1592 363.3361 L345.4194 364.7057 L347.7595 367.247 L349.0452 366.3924 L349.3479 364.6646 L349.4992 363.7093 L348.0779 361.8639 L348.0029 360.2368 L348.1227 359.2366 L348.2075 358.5351 L349.2377 357.492 L353.3308 353.3515 L356.8489 349.2203 L353.8962 346.7144 L344.6507 351.1441 L332.6123 352.8776 L318.8245 359.3803 L317.1599 359.9308 L316.1866 360.5223 L315.6212 359.8132 L314.9045 359.4885 L314.4772 359.5949 L314.3392 360.3301 L313.7423 360.804 L312.286 362.1941 L311.1746 362.5449 L308.7909 363.5301 L307.9979 363.0935 L307.9301 362.3247 L291.473 369.6223 L297.2706 372.3726 L298.6604 372.5201 L299.6979 373.0518 L300.0672 373.9885 L299.756 374.1807 L299.0418 375.1472 L297.2718 375.4551 L296.129 375.6398 L294.5286 375.7798 L293.1812 376.6903 L291.7563 378.0617 L287.9973 380.5993 L286.9307 380.8774 L283.0241 382.6854 L282.397 380.5005 L281.3958 380.0004 L280.3195 380.1795 L275.2858 382.3383 L257.8105 389.479 L256.6471 385.7137 L255.5878 380.8494 L251.9281 377.6233 L243.1196 378.3995 L237.3413 373.9699 L242.9271 370.2138 L254.8118 366.732 L254.7343 363.6122 L254.9607 361.1548 L255.2391 359.5464 L255.9389 357.9361 L256.7367 356.1131 L257.256 354.9562 L257.3868 354.1371 L258.532 352.0659 L259.6458 350.1981 L260.8346 347.6697 L261.0223 346.3561 L261.0356 343.8109 L261.0755 342.544 L260.6506 341.5214 L261.6917 340.0883 L264.3793 336.1754 L265.5681 336.5188 L268.3417 338.8232 L272.2495 342.4208 L272.0558 344.6282 L273.1285 346.134 L273.9989 347.2536 L273.7047 348.306 L270.4518 348.946 L269.3029 349.8212 L268.5499 350.8138 L268.3961 352.5118 L267.8526 353.4019 L267.2158 353.9971 L267.0463 354.5513 L267.1795 355.3126 L268.7291 356.3221 L269.8755 357.1487 L268.6298 358.0667 L267.7327 358.953 L267.0088 360.0782 L267.6601 360.8115 L270.0498 361.8321 L271.6164 361.306 L273.2653 359.9998 L274.8899 358.4082 L276.0594 357.7663 L277.6199 357.9324 L278.7239 358.4586 L278.6198 359.7647 L299.3517 351.2057 L301.7015 349.4666 L302.0816 348.8266 L302.4993 348.2164 L303.331 348.1269 L305.6978 348.306 L307.4701 346.8711 L307.7728 345.328 L307.211 344.6711 L305.406 344.3912 L304.8891 343.4769 L305.0743 342.7026 L305.1469 342.0066 L304.3867 341.3647 L304.4169 338.0619 L303.9847 336.7688 L304.2692 335.026 L304.969 334.9644 L305.7002 336.8042 L306.1953 337.4667 L306.8563 337.7298 L308.257 337.0338 L308.6226 336.2258 L308.6844 335.3954 L307.8248 333.6358 L307.6808 332.7551 L306.9931 331.419 L305.3794 329.471 L303.9508 328.3178 L303.716 327.1329 L303.5925 326.5134 L303.9702 325.655 L304.9036 325.5729 L305.0695 325.7017 L306.7413 326.9948 L308.8175 330.3816 L309.9301 335.2368 L310.0608 338.2728 L311.1589 341.2247 L311.5777 343.1411 L312.2157 343.4639 L312.746 347.4458 L315.2084 349.0561 L318.7458 349.7876 L323.6186 348.6549 L332.8992 347.0745 L338.2477 340.0492 L351.3938 329.6016 L350.7304 324.9254 L345.4194 319.682 L337.0686 313.8414 L328.3896 312.1563 L330.2189 307.5323 L326.8485 304.0652 L319.1441 300.7922 L312.884 299.4431 L307.8769 296.7466 L306.5282 294.8209 L307.2026 292.0274 L308.5512 288.9465 L308.6468 283.4565 L311.3441 281.9151 L316.833 282.9751 L324.9224 284.7086 L331.76 283.938 L337.1533 284.5164 L339.175 286.5393 L342.3541 292.5088 L343.6059 297.2281 L346.1095 302.0443 L348.8055 305.4144 L351.1178 309.4581 L356.2218 314.6587 L357.5692 315.8156 L360.2665 318.8964 L361.5182 322.7497 L365.1465 325.8752 L364.1344 331.6038 L364.8111 335.3842 L367.2808 333.8523 L368.3425 333.3223 L375.4501 330.2565 L387.6809 326.7895 L388.9327 325.8752 L389.1736 323.6118 L390.7632 322.7441 L393.5077 322.119 L390.3782 319.1819 L391.6772 316.5807 L394.7594 315.8585 L397.4555 316.8214 L399.1891 318.0249 L400.7302 318.8926 L401.8379 319.0363 L403.9662 317.9093 L398.062 314.2985 L396.5039 313.1547 L393.5851 311.0125 L397.5293 307.5174 L399.2751 306.353 L403.028 303.1602 L407.339 299.0605 L408.0787 298.3048 L410.3692 297.4128 L414.5192 297.2337 L415.9441 297.577 L419.1849 298.357 L412.0931 293.6098 L413.4369 287.8996 L415.748 286.696 L418.7818 286.7445 L421.9597 286.9367 L431.0502 288.8271 L431.8686 288.773 L433.0053 289.1331 L434.4121 288.9204 L436.1517 289.357 L436.0246 290.0325 L436.2292 291.3593 L436.6735 291.8706 L437.4023 291.5254 L438.0197 289.4093 L438.2788 283.8988 L437.1977 283.4379 L435.0222 283.9156 L434.6118 283.6301 L434.3649 282.7269 L432.9969 282.2566 L432.3274 285.3636 L431.5223 285.623 L428.9461 284.6825 L427.7343 284.0723 L428.0236 283.199 L428.2924 282.0458 L428.4776 280.5137 L427.7924 279.3959 L426.9692 279.3885 L424.9523 281.805 L424.2368 281.7789 L423.0904 280.8925 L421.6316 279.4967 L421.4899 278.8827 L421.9948 275.4753 L422.5868 271.0302 L423.9886 270.0617 L426.5939 268.9364 L427.8082 268.4121 L427.836 268.3729 L428.5708 267.3353 L428.0745 266.0645 L427.1762 264.8291 L425.922 262.3789 L424.577 260.6658 L424.5237 260.5986 L424.1327 259.2009 L424.3652 255.896 L424.4172 253.7518 L424.4935 250.6297 L424.5734 248.4669 L423.9959 246.2779 L422.7647 244.296 L420.2212 237.798 L418.3024 232.1398 L418.6171 231.6639 L419.059 231.6247 L424.3446 235.7061 L425.939 236.9377 L429.6761 241.9895 L432.8964 248.2523 L434.7075 252.6657 L435.2547 254.8584 L435.5416 258.1503 L435.9484 260.4549 L439.2461 264.8758 L441.1673 267.9138 L443.0353 271.5229 L443.039 271.8196 L443.0474 272.6873 L442.7073 273.8835 L441.9421 274.309 L436.9447 272.6463 L432.4678 271.7599 L434.7692 273.8816 L433.1204 279.2485 L433.1119 280.3327 L434.3528 280.6723 L434.7777 280.1461 L435.3842 279.2 L436.3079 279.2037 L436.745 279.0134 L436.9883 278.5375 L437.2558 277.3693 L438.2401 277.485 L437.2691 282.9098 L438.5028 282.8015 L438.8405 281.4486 L439.4604 278.3472 L441.3671 277.7314 L442.2944 276.4046 L443.2206 276.6266 L443.338 277.5765 L443.2423 278.7167 L443.8767 279.2672 L455.2444 282.3275 L459.6535 280.0845 L465.2768 282.641 L473.1241 284.0033 L477.0804 281.9543 L481.0294 278.5357 L486.6624 271.0246 L489.5038 266.8352 L489.6006 265.0045 L488.5885 264.5231 L485.8392 268.7816 L482.8429 273.5476 L478.9617 278.5524 L475.8988 280.5995 L474.8807 281.2004 L473.0236 281.3628 L470.1314 280.9 L465.312 279.7971 L464.2781 279.172 L462.9343 277.0484 L461.2261 275.8522 L458.4078 275.591 L455.5386 275.3838 L452.4963 276.2851 L450.2034 275.6096 L447.0897 274.1317 L445.8621 273.0101 L444.9917 271.5546 L439.4592 262.2968 L437.3466 259.5237 L436.9495 258.0346 L436.8152 254.4609 L434.768 248.3642 L431.9921 242.6277 L428.5612 237.6487 L426.1896 233.7858 L425.8845 233.3621 L423.6703 230.2923 L420.3471 228.3738 L410.7566 220.4388 L401.0728 213.5897 L401.2738 213.405 L401.9675 213.4535 L405.0291 213.8118 L406.2519 213.5263 L406.8136 213.8342 L408.3789 215.3235 L409.1598 215.4242 L410.0702 215.0939 L411.5931 214.4911 L412.2202 214.5266 L413.5519 215.4858 L415.5639 217.102 L416.7685 217.6226 L418.9731 217.5779 L420.3628 216.9489 L422.5153 215.0566 L429.3965 217.7682 L439.7231 222.6633 L451.8535 227.1253 L454.9285 228.8758 L464.6982 233.0561 L472.5539 236.1633 L474.9255 234.1105 L475.4594 232.6007 L473.7427 233.5264 L469.0867 232.3339 L465.3422 230.994 L461.553 228.9523 L456.5253 226.6476 L451.1864 223.5273 L450.6998 222.9469 L448.7337 221.4017 L448.9105 220.5899 L453.4007 221.3775 L456.2468 221.0789 L459.1559 221.3121 L464.3374 221.398 L465.8664 221.5267 L469.2271 221.8104 L472.4982 222.1463 L474.0563 221.5211 L475.8734 221.1778 L477.5997 221.3289 L477.906 221.6014 L478.4532 222.0623 L483.4156 222.0101 L487.0934 223.2698 L488.7278 225.177 L490.2931 226.4031 L491.9964 224.5985 L496.0133 223.6449 L499.0447 223.8819 L500.7468 224.3596 L502.1269 225.3525 L504.5784 224.9792 L504.5336 223.2269 L496.4225 222.486 L493.2555 221.8739 L491.5533 220.2745 L492.9492 219.1156 L497.1028 218.6397 L501.7335 217.9922 L505.582 217.4808 L508.5057 217.1001 L511.1254 217.0534 L511.1872 215.6836 L511.8215 214.4725 L505.2491 214.4072 L503.921 215.0529 L496.5823 216.1222 L491.9613 216.1278 L486.5329 215.1219 L488.8222 204.8315 L487.9675 204.7886 L486.9118 205.4362 L484.8344 206.2181 L485.1758 204.5161 L484.8344 202.7115 L485.0378 201.435 L492.8705 203.053 L492.155 201.9631 L487.9748 200.1585 L484.8937 198.0403 L484.2194 196.1124 L484.4119 194.332 L485.1298 192.2082 L483.8344 191.8032 L484.8453 187.6862 L486.0487 179.0677 L486.4336 170.6657 L487.3004 168.1368 L488.89 166.668 L498.5205 160.7704 L499.9405 159.9269 L501.0228 158.99 L499.3207 158.0027 L494.8898 156.239 L490.0304 154.1972 L484.0536 152.1685 L480.3273 150.4944 L477.5671 148.5123 L474.9582 146.7206 L464.6098 141.1252 L461.6982 138.9379 L459.9211 138.9416 L457.265 138.9752 L456.5507 139.1469 L456.2238 139.9868 L457.5289 140.6344 L463.3689 143.4582 L467.4269 145.3078 L474.4812 148.7661 L478.0925 151.2558 L481.9592 153.697 L486.9094 155.6847 L497.5556 159.7272 L497.6246 160.5278 L496.4564 161.4367 L487.7036 166.3283 L486.114 168.5306 L485.6903 170.0199 L485.3743 171.7817 L485.1794 179.2824 L483.9083 179.6258 L483.1432 180.0961 L483.0306 180.544 L483.4482 181.0983 L484.5088 181.5088 L484.9458 181.8933 L485.1346 182.5166 L484.3344 187.606 L483.7848 190.8813 L482.5475 194.653 L481.5718 196.7581 L480.636 197.9693 L480.8382 199.0014 L481.5657 201.5096 L481.5718 203.4972 L480.59 206.1099 L480.3842 208.7544 L480.6275 209.8685 L479.4859 210.0588 L477.2123 209.5419 L476.8467 208.4072 L476.8479 205.3597 L476.7317 204.0253 L476.0344 203.1892 L458.984 198.7662 L446.6587 197.4281 L445.6466 197.0679 L437.1166 190.1945 L436.8745 190.4856 L437.3212 191.5214 L439.0851 193.5948 L440.0705 194.0987 L440.6286 194.4776 L443.9893 197.4823 L444.7193 198.4919 L445.6006 199.7292 L446.1902 200.1473 L446.5837 200.6026 L448.5606 200.7314 L452.8522 200.6418 L456.2141 201.4424 L459.2576 202.0508 L467.5262 204.0384 L469.6145 205.2533 L470.6689 207.0673 L471.043 208.2897 L473.1858 209.3571 L478.4593 211.5836 L481.1372 213.5729 L478.86 217.5704 L478.5755 217.9212 L476.9654 218.8693 L472.1277 218.5763 L470.1435 217.8559 L465.9621 216.3368 L461.0687 213.8883 L458.9828 212.8433 L457.8993 212.2367 L447.6454 206.485 L436.8188 201.4928 L423.157 192.406 L421.9645 190.9858 L421.933 190.6312 L421.4863 189.5936 L420.5783 189.4051 L419.1631 189.5282 L418.0711 189.1569 L416.7261 187.7926 L416.4792 186.6859 L417.1196 185.7528 L418.1849 184.6834 L422.7357 184.284 L427.3421 185.2937 L428.5418 185.7621 L429.6507 184.6031 L430.9158 183.6999 L431.4933 183.1941 L431.8153 181.1113 L429.888 178.855 L427.4692 176.9271 L428.5224 174.7473 L429.7512 171.8937 L431.0066 169.9135 L434.5525 168.7769 L436.889 168.4205 L438.2788 167.687 L439.2981 167.7206 L440.0814 168.4261 L446.9965 172.2166 L447.6502 172.0075 L448.0037 171.0501 L447.7434 170.1804 L446.0449 168.6276 L445.2774 167.3306 L444.3029 166.3713 L442.9712 165.9327 L440.855 164.197 L443.4821 161.3901 L445.6212 161.0672 L446.6139 161.4684 L447.2265 161.614 L450.339 163.0175 L455.2602 165.9812 L460.2806 169.5981 L464.3326 172.7261 L469.8566 175.5479 L470.5818 174.779 L470.5551 173.9877 L465.4742 170.6843 L457.8037 165.4045 L451.1828 161.0914 L449.3778 159.0459 L448.7882 158.6671 L448.6102 157.9747 L449.6526 156.2502 L452.8256 153.7306 L454.219 153.7269 L457.6185 156.6794 L459.6753 157.7302 L462.2902 158.8313 L466.1291 161.8118 L468.0806 162.8215 L470.6278 163.3217 L475.9448 158.0381 L474.8081 156.2072 L474.1918 155.2741 L464.5299 147.693 L461.3678 146.1775 L457.771 144.7889 L454.7009 144.341 L453.9152 144.4231 L452.9055 144.5258 L448.9601 144.9345 L439.4192 149.9867 L435.8987 152.5362 L433.4351 151.3566 L436.6142 146.7822 L438.1856 143.223 L439.2521 141.9688 L440.2388 140.7688 L442.0257 140.6456 L442.8901 139.3914 L443.2193 138.1502 L442.5269 136.7617 L442.5838 135.1062 L443.8719 132.9206 L443.545 132.2581 L443.4046 131.6142 L443.6515 130.3973 L444.338 129.5947 L445.0898 129.3614 L444.1213 128.6578 L453.2784 122.0489 L457.0216 122.6051 L463.9101 118.066 L466.6061 120.063 L468.3724 117.4631 L471.5975 114.5795 L472.3856 114.4208 L466.2974 112.5078 L466.048 112.9072 L465.6194 113.594 L463.967 114.8688 L459.8073 115.9065 L456.6379 116.3507 L456.5253 116.3656 L454.3377 116.8267 L451.8486 115.8785 L450.4589 115.2831 L449.5739 115.3615 L449.27 115.55 L448.7628 115.8636 L440.8429 126.2427 L440.6892 127.1442 L440.3804 128.9564 L439.8792 131.9035 L438.3139 134.033 L435.8188 137.1219 L434.7486 137.6669 L433.1204 138.4974 L431.1761 140.6717 L427.8905 144.8542 L427.1096 145.8471 L426.7489 146.0188 L424.0504 147.3029 L418.8556 153.4768 L415.1003 156.4517 L412.2638 159.7495 L410.4563 160.2105 L407.0739 159.1057 L404.3064 157.0172 L401.6491 154.0479 L401.229 152.2898 L401.8101 149.4809 L402.8694 144.8748 L403.8657 142.8162 L405.2894 140.2648 L406.4238 134.4044 L405.9613 132.1872 L404.0703 128.6429 L402.7205 127.2244 L400.8525 125.5092 L399.7714 124.3483 L399.4046 123.2154 L399.108 121.4479 L398.6371 120.524 L395.1311 116.8379 L386.7451 110.7253 L379.1727 103.9091 L374.9065 100.8836 L376.1026 99.1795 L377.0917 98.6401 L379.3894 99.312 L381.4741 99.9037 L384.227 101.2289 L384.9062 101.6133 L387.4437 103.0524 L394.9156 106.6751 L398.424 108.5733 L403.4093 111.6063 L406.0 113.9561 L406.3548 115.3242 L406.8535 116.2238 L408.2494 117.5994 L408.5254 119.9846 L409.3523 120.4176 L410.2832 120.5054 L411.5411 118.7435 L412.7057 117.8495 L413.0483 117.7655 L414.3013 117.4575 L414.5107 117.422 L416.8666 117.0133 L417.2939 115.173 L417.5155 113.8553 L418.1886 111.3711 L418.8375 109.9489 L420.0057 106.0592 L420.0735 105.8315 L422.1013 97.6863 L422.4984 96.4881 L423.0819 94.7261 L421.5529 94.2688 L421.0928 95.5679 L419.5178 97.7274 L415.7201 106.0816 L413.5906 108.2411 L412.5447 108.5117 L409.8208 107.9443 L401.3743 104.1107 L398.8429 103.7056 L396.1032 102.9591 L390.2668 99.9354 L385.7403 97.5911 L380.8325 95.6295 L377.559 94.5021 L370.8558 91.9022 L364.2191 90.0637 L358.1055 87.3834 L354.648 85.9705 L349.9883 84.677 L343.2948 83.5609 L334.7321 83.5049 L333.4234 82.8124 L332.1559 81.5787 L331.8665 79.8988 L331.26 73.7188 L329.2915 63.6826 L329.53 62.5682 L329.3896 61.3121 L329.3266 60.7465 L329.4344 59.746 L329.5458 59.4717 L330.093 58.1278 L330.2455 57.9392 L331.145 56.8324 L332.4198 56.0298 L333.8495 55.8972 L336.5553 55.6471 L341.2488 56.5897 L344.0478 57.6033 L344.1156 57.6481 L345.8359 58.8445 L347.6421 58.753 L348.0404 58.6952 L349.6832 58.4563 L352.4168 58.4003 L354.1298 59.1767 L354.5112 59.1823 L355.2739 59.1935 L356.2775 58.753 L357.8367 57.3681 L358.8621 56.4199 L359.0462 55.4437 L358.1939 54.1912 L357.1842 52.8454 L355.8683 52.0633 L354.4942 51.6471 L351.6868 52.1623 L349.5089 51.7255 L344.3335 49.5976 L336.2913 46.3573 L336.0298 45.8346 L335.8604 45.4987 L335.8797 45.4016 L336.3579 43.0329 L338.1097 40.6362 L341.9389 37.5191 L343.8626 36.8191 L346.9666 36.1471 L347.0792 36.1229 L347.7208 35.9847 L352.4555 32.3803 L353.6783 30.8591 L354.6262 29.6775 L356.1165 26.3195 L356.8961 24.4809 L357.9663 22.5004 L358.8549 21.1247 L360.5994 18.9837 L364.77 14.6065 L359.3355 15.6574 L358.1188 16.1446 L356.43 16.8222 L354.907 17.2758 L353.28 18.9949 L351.05 27.1781 L350.6348 28.5426 L350.1554 29.2893 L349.5355 30.2543 L347.3915 31.2511 L347.1058 31.3463 L345.6276 31.839 L343.0866 32.9385 L341.1387 34.0491 L338.9971 35.1672 L337.4027 36.3356 L335.9052 38.6315 L335.1025 40.1528 L334.9693 40.4067 L334.9391 40.4179 L333.8616 40.8173 L332.0566 41.4893 L329.7334 40.8677 L328.5083 39.8635 L325.3183 37.2447 L324.0665 35.8055 L321.7651 35.0309 L318.0013 33.6758 L316.8161 32.8022 L315.4033 31.1671 L308.8684 34.6763 L309.1081 36.1079 L311.0027 37.6105 L314.2266 38.9265 L317.0849 40.3096 L318.9311 40.8565 L319.7119 41.3437 L320.1392 41.9988 L320.8269 43.1039 L321.4068 45.3549 L323.2166 45.6853 L324.3377 46.025 L324.4454 46.1034 L325.0023 46.5047 L324.9466 47.0946 L324.9236 47.3372 L325.1427 49.8459 L324.6633 52.6681 L323.9491 55.3503 L323.6537 56.4628 L322.1695 60.4609 L323.0786 60.2799 L322.1574 62.9005 L316.4892 70.57 L309.5911 84.3653 L309.5003 84.5184 L307.5028 87.9247 L306.1566 90.2205 L303.4533 92.2288 L301.9013 93.065 L297.5503 93.8134 L297.2827 93.8601 L282.7093 90.437 L281.9539 82.0341 L280.5193 81.9949 L272.1188 87.012 L273.074 88.2457 L272.2859 99.9018 L272.7931 104.4634 L269.3671 104.2506 L271.1261 106.2963 L272.8524 107.0204 L273.1963 108.0675 L271.4396 109.3012 L269.4845 110.7701 L268.3271 111.9329 L267.5487 113.5492 L267.4882 113.6743 L267.838 115.3783 L267.9228 115.9606 L267.8138 116.6269 L269.137 118.3142 L270.8004 118.3198 L272.3633 119.2941 L273.4565 119.2978 L274.2628 120.4568 L274.057 121.9406 L273.8282 122.7861 L273.8621 123.374 L273.8924 123.9097 L274.0509 124.5704 L274.7386 125.1322 L275.5788 125.4943 L277.9552 126.1811 L279.914 126.6813 L279.6949 127.6444 L278.9043 128.7754 L276.6429 132.6967 L273.81 139.2981 L272.2011 139.8692 L271.0123 139.5239 L265.8151 138.1876 L263.3842 133.8296 L262.199 132.4988 L260.6724 131.9781 L260.0634 130.9703 L260.1252 128.7922 L260.0792 126.5394 L259.5078 124.0459 L258.9073 121.7913 L257.6301 119.477 L255.3202 118.0286 L255.0587 117.1589 L256.7221 113.6948 L257.1301 111.2498 L259.141 106.7759 L260.8818 104.2152 L262.7789 103.6272 L264.4229 103.743 L264.0306 102.6959 L259.0841 101.464 L257.9291 99.1534 L255.3009 94.7746 L257.8892 86.8907 L255.4207 83.7848 L258.8456 81.476 L260.0392 77.7337 L257.5708 74.3721 L252.5588 71.5014 L251.3203 68.8267 L251.1448 66.8109 L249.1279 66.6429 L246.4851 66.7101 L246.3604 66.7007 L244.7055 66.7549 L219.2268 80.7257 L221.1081 84.8861 L222.8151 86.2579 L227.114 85.8921 L229.6963 84.9215 L230.5546 85.1324 L231.2991 84.9999 L231.6914 83.9211 L233.2664 83.294 L235.431 82.4167 L236.4685 81.4256 L237.029 80.6566 L237.0871 78.0043 L239.2577 77.6627 L240.9381 77.2782 L242.7952 76.9964 L245.7055 77.0449 L249.5892 77.7617 L251.3845 78.7864 L252.0734 79.826 L252.8094 81.825 L252.6811 84.0909 L252.0504 85.0429 L242.1547 87.5327 L234.4334 90.1141 L231.2894 91.807 L228.6769 93.5316 L227.4941 94.3136 L226.6104 94.7597 L225.0644 95.538 L222.964 96.684 L219.9919 98.2425 L213.8032 101.0441 L209.0068 102.2909 L208.0492 101.9045 L206.4862 102.0912 L205.0396 102.6399 L204.4318 103.183 L203.1026 103.3491 L202.352 102.4551 L199.8472 99.172 L191.9637 92.268 L190.9298 92.0701 L189.6453 93.0015 L190.9213 94.6851 L189.6865 95.497 L188.6175 96.2006 L187.5885 96.3425 L186.3924 96.684 L183.9312 98.1287 L181.4615 99.661 L179.8453 100.193 L178.5875 100.6055 L143.5522 119.3053 L141.4166 121.1959 L129.5477 125.694 L130.1349 127.6126 L130.699 129.2476 L131.3661 130.5373 L132.2486 132.0901 L132.2595 132.1088 L133.3963 133.7773 L134.2086 134.802 L134.6335 135.3096 L135.165 135.9461 L136.5487 136.9707 L137.4749 137.7658 L138.2521 138.5888 L138.5305 139.4922 L138.7218 140.1155 L139.5039 141.9502 L140.5607 144.1898 L140.66 144.4007 L140.7012 144.4884 L141.0619 144.9625 L141.6382 145.2144 L142.3815 145.4533 L142.5183 145.4645 L143.5146 145.5392 L144.586 145.4944 L145.5436 145.696 L146.5557 145.7426 L147.7458 146.0916 L148.7542 146.6777 L149.6198 147.1573 L150.7941 147.525 L151.5677 148.1148 L152.3074 148.8912 L152.7977 149.69 L153.3303 150.7892 L153.5507 151.7728 L153.7141 152.4914 L154.2698 153.6541 L155.231 154.4622 L156.3944 156.0449 L159.3023 157.9784 L163.0504 160.1247 L164.3494 160.3822 L165.0467 161.0448 L165.0782 163.5177 L165.9063 164.5404 L167.3772 165.7927 L169.3795 166.7949 L170.1628 167.6852 L169.8178 170.2607 L169.4522 172.8026 L169.8335 175.2456 L170.658 177.1772 L171.7754 178.241 L174.2353 178.5134 L176.228 178.0674 L177.8321 176.8151 L179.1892 174.0847 L180.3308 171.778 L180.3344 170.2775 L181.033 169.2398 L182.2617 168.693 L182.7085 167.659 L183.2302 166.1324 L184.4578 164.0365 L184.6043 162.2542 L183.5607 160.6958 L182.447 160.4401 L181.1032 160.8264 L178.5875 160.3076 L176.2546 156.4872 L175.6457 154.7048 L175.9932 153.4936 L176.6542 152.7956 L177.1626 152.077 L178.3769 151.3641 L180.0681 150.7258 L182.5196 150.1398 L183.8368 150.2256 L185.5183 153.4973 L185.5776 154.7571 L186.5534 156.6925 L187.534 156.9594 L187.9928 156.6328 L188.5085 155.4252 L189.3983 154.2681 L191.6961 153.46 L193.2251 152.5007 L194.0738 150.8751 L195.9744 149.9494 L198.0676 149.8673 L199.3981 148.7568 L200.1571 148.5515 L201.7116 148.1316 L201.4876 150.5597 L201.352 151.5302 L201.0506 153.6858 L198.4671 157.7694 L191.0581 167.0935 L190.3451 168.3533 L190.6005 169.1558 L191.3874 169.5067 L192.4503 169.1782 L194.3377 168.4895 L196.7323 168.0099 L201.2648 166.836 L203.5602 165.9943 L205.5964 165.0723 L207.3337 164.1951 L208.629 163.2564 L209.8106 162.1123 L210.2355 161.2631 L211.3517 160.3897 L211.9691 159.576 L212.3323 158.7361 L212.727 157.4894 L213.3517 156.9444 L215.1628 155.7575 L216.8673 153.1651 L218.308 151.3883 L219.4048 149.522 L221.1323 143.5422 L223.4858 133.7661 L223.1807 132.7825 L225.6794 126.0094 L226.9167 123.2564 L227.5401 121.349 L228.2447 119.8036 L229.0086 119.1298 L229.7362 118.9992 L231.1974 119.1895 L233.5424 119.3034 L234.9237 118.3739 L236.5774 116.9312 L237.6985 116.1081 L238.6912 115.8169 L238.7626 115.7964 L239.6209 116.5803 L239.7153 117.0768 L239.4793 117.3418 L239.1948 117.6609 L240.0858 118.512 L240.1475 118.5718 L240.7541 119.546 L241.0749 120.4251 L241.3497 121.1773 L241.3884 123.5327 L236.6004 127.5585 L233.0618 130.0315 L232.2192 132.594 L232.0158 134.2962 L232.0122 137.1443 L232.471 139.5127 L232.6611 140.3376 L232.54 141.4444 L232.1635 142.5213 L231.149 143.8277 L229.0546 145.3582 L222.9519 149.1767 L219.0041 152.0509 L217.63 154.5817 L217.2317 156.9407 L216.5332 158.5682 L216.0162 159.3726 L215.3758 160.3038 L215.2245 160.4849 L215.8952 161.7055 L216.5877 165.9084 L215.9448 168.1555 L214.1761 172.3192 L211.6762 175.6226 L206.5056 179.1088 L203.6825 180.4525 L200.1135 183.0411 L196.6379 185.3683 L196.3897 185.9805 L197.5785 188.2498 L199.8787 191.6856 L184.3791 199.7609 L172.739 204.0309 L166.922 206.6474 L164.847 207.5077 L161.7672 208.7861 L160.9851 208.8029 L159.4537 208.8383 L158.1692 208.9466 L157.49 208.8271 L156.4537 208.6946 L155.1705 208.8066 L154.2129 209.0697 L153.334 210.2231 L153.2456 211.7552 L153.6669 211.9885 L154.0991 212.3524 L154.4332 214.2317 L155.8412 215.9281 L156.9949 217.4342 L156.6547 218.6304 L155.7661 219.0671 L153.9526 219.2257 L148.2833 218.817 L145.0424 219.0186 L139.838 219.4254 L134.6372 218.5352 L131.6251 218.0929 L129.1857 218.3579 L127.8081 217.897 L126.4473 217.1188 L123.6096 215.7564 L121.4438 215.4522 L120.669 214.7599 L118.0674 209.8218 L119.2562 208.8234 L122.2779 206.5018 L121.7828 205.5762 L121.7102 205.4399 L121.6642 205.1469 L121.0346 201.6365 L120.9124 200.9591 L119.9959 195.9445 L119.2962 192.3444 L119.1025 191.4318 L120.3652 190.9877 L121.899 191.2396 L122.606 191.4468 L123.1145 192.2623 L122.9983 193.0462 L122.8869 194.8434 L122.8518 196.5473 L123.1133 198.393 L123.8288 199.8468 L124.7876 200.8228 L125.8505 201.0673 L127.7427 202.7189 L130.785 203.3273 L134.28 202.7675 L136.5463 201.7933 L137.3308 201.1513 L137.6322 199.9961 L136.5584 196.1647 L136.5657 194.1398 L136.4604 192.9398 L136.0342 191.1183 L136.0088 191.0101 L135.9507 190.7618 L135.4483 188.666 L135.3756 187.9475 L135.3672 187.8617 L135.2861 187.4007 L134.2256 185.2526 L133.642 184.5453 L132.745 183.1288 L131.4484 182.8638 L128.7971 180.7045 L123.9111 181.1225 L122.4716 183.2799 L120.3131 187.0312 L117.6619 187.41 L116.7527 185.2134 L117.3967 182.6361 L119.9717 178.7729 L123.4196 172.2968 L123.0406 168.4709 L122.1278 164.3183 L118.341 162.4856 L117.9645 164.9099 L117.7757 167.6758 L117.7369 170.5163 L116.0336 173.3569 L111.185 174.9096 L110.8061 169.0009 L110.4647 165.44 L108.6851 163.0921 L105.7687 164.7961 L102.1696 164.1522 L100.2386 175.2885 L97.0946 184.9465 L92.7388 197.5606 L84.9739 207.6365 L77.7768 214.605 L69.3678 220.2876 L74.4476 220.588 L77.2586 217.7794 L78.2041 216.8743 L78.5649 216.529 L80.1738 215.0417 L81.2876 213.823 L82.0708 213.6495 L83.5841 213.0952 L85.0453 213.4722 L86.4036 214.2243 L87.7535 215.1144 L88.5852 215.9225 L89.6868 216.236 L89.7571 216.2566 L91.55 216.5869 L93.6601 216.3331 L95.217 216.264 L97.1358 216.3144 L98.2992 215.79 L99.8839 214.5061 L105.6198 214.2187 L106.6815 214.2597 L108.5883 214.8047 L109.748 215.135 L110.6681 216.0476 L111.5736 216.6093 L113.4501 217.9044 L113.9331 218.5222 L114.2491 218.9271 L114.8363 219.3041 L116.0832 220.6403 L117.8543 222.5401 L118.8713 223.7979 L119.6146 224.7945 L120.7574 228.0603 L121.462 230.5069 L122.1654 232.4328 L122.2731 234.1721 L120.9838 236.7511 L120.8664 236.9396 L120.0819 237.1449 L120.0238 237.1467 L118.703 237.1766 L117.5577 237.3222 L115.0966 237.7178 L113.4307 238.0444 L111.4647 238.4867 L106.9551 239.9143 L104.4891 240.267 L99.6829 241.3624 L97.7689 241.8887 L95.4421 242.8124 L93.6674 243.9097 L92.1698 244.6245 L90.4108 245.4064 L89.5174 245.8897 L88.8709 247.2651 L88.4145 249.6799 L88.0331 252.4492 L87.1821 257.415 L87.5792 259.4528 L87.6615 261.9422 L87.6651 262.9313 L85.2342 262.7913 L83.4715 262.7951 L80.4982 262.991 L71.6922 263.3045 L66.2311 263.674 L62.6452 264.3253 L60.6925 264.5791 L56.5195 264.7676 L54.166 264.3458 L51.0644 263.5434 L50.6843 263.2635 L49.0972 262.9555 L47.7134 263.437 L45.9714 263.9035 L45.4363 263.0824 L43.6409 263.7505 L40.8589 263.5471 L36.5818 261.5224 L36.5382 259.6898 L38.175 257.4729 L39.0648 255.2764 L38.6507 253.61 L38.089 250.3554 L37.1532 249.2171 L36.8493 250.4338 L36.1544 256.5174 L35.3651 264.7937 L35.0213 267.1431 L33.1969 274.1914 L31.0384 279.1627 L8.8683 309.7137 L9.2424 310.5926 L12.8912 305.8678 L14.8173 303.651 L15.2894 302.9867 L16.8257 301.701 L18.115 300.5086 L19.7094 299.1557 L22.1064 297.3773 L23.2989 296.4145 L24.2504 295.5897 L26.1354 296.5656 L27.2225 297.2747 L29.5832 295.4889 L31.1146 293.9905 L32.3507 293.3411 L34.422 291.4918 L35.9971 290.2919 L37.4195 290.2341 L39.0188 290.6651 L40.3614 291.6075 L41.1664 292.7495 L41.1265 294.2013 L38.4522 298.7937 L37.2053 300.8314 L34.33 305.6532 L32.6098 308.4038 L28.6026 315.0487 L27.5615 316.8885 L26.9646 318.734 L25.9634 320.5254 L23.7819 324.6175 L21.5665 329.8442 L20.029 333.6545 L19.1513 336.53 L18.2082 339.8794 L16.5993 342.4133 L15.3185 343.3183 L12.4784 343.8725 L11.2375 344.0815 L9.4312 343.2138 L8.6455 343.2493 L7.4797 343.9416 L5.6093 343.4844 L2.8491 341.8909 L2.2438 334.9887 L1.4799 335.6884 L1.2559 341.4729 L1.3334 346.4457 L0.5465 360.638 L0.1785 379.5675 M11.7532 391.8524 L14.6865 386.1541 L16.1005 384.0232 L16.8802 382.1872 L18.1259 378.2894 L18.8753 376.9758 L19.6706 375.136 L20.127 371.7756 L20.8667 371.5274 L22.1512 371.4322 L22.7638 370.9564 L23.0386 370.2586 L22.7807 369.7063 L24.7734 365.911 L25.6898 366.5884 L26.3521 368.4001 L26.3339 369.9171 L26.122 370.9471 L27.8145 377.0299 L28.1087 380.3885 L27.5554 382.6947 L27.0808 383.9822 L26.2976 384.4393 L25.3121 384.3068 L24.0277 384.2173 L22.7214 384.4505 L21.535 384.7061 L19.9188 385.236 L18.3232 385.8145 L17.1041 386.6634 L16.1284 387.7941 L15.1877 388.8073 L13.1987 392.1117 L11.7532 391.8524 M29.6353 321.5573 L30.3834 319.9432 L35.2574 311.7533 L40.3299 304.278 L41.7947 302.2104 L43.0974 300.5963 L44.4569 298.288 L44.8733 297.4762 L45.7559 296.6235 L46.8902 295.9853 L48.3865 295.7632 L49.3151 295.6811 L51.2279 296.1402 L52.0438 296.2932 L52.8549 296.3995 L53.8247 296.2708 L54.7036 296.6403 L55.7834 297.2617 L56.1624 298.5287 L55.9783 299.486 L55.5413 300.6 L53.4155 302.955 L50.148 300.363 L36.4692 318.4168 L39.4824 320.2847 L35.6411 325.1213 L34.686 325.1549 L32.9185 324.1492 L31.9088 324.1193 L30.8531 323.7741 L30.1909 323.4961 L29.7212 322.5444 L29.6353 321.5573 M31.7042 384.5475 L32.9996 378.9331 L37.2585 370.7866 L40.4328 365.0359 L48.1287 351.73 L48.8756 350.5881 L50.1371 349.2222 L50.9337 348.6587 L51.671 348.4161 L52.591 348.2444 L53.6273 348.3769 L55.1055 348.9628 L56.9275 349.9238 L57.4287 350.0581 L57.827 350.0227 L58.2095 349.81 L59.1816 349.0001 L59.7204 347.6735 L61.1174 346.7573 L62.9491 346.58 L63.8934 346.0426 L64.8934 345.3802 L65.8437 342.6186 L66.5192 340.3869 L67.4284 339.0434 L68.2649 337.6738 L69.2988 336.6214 L70.0458 335.7649 L70.9743 335.0428 L72.22 335.2704 L73.1413 335.8116 L73.628 336.0859 L73.72 336.6158 L72.9137 338.7784 L72.8362 339.9988 L73.2321 341.6483 L72.8629 343.5665 L71.8835 346.3822 L69.8448 349.9462 L68.7528 351.6386 L67.6451 352.4484 L66.8642 353.3086 L66.3485 354.7192 L65.9781 356.5908 L65.3449 359.0221 L63.8692 363.392 L60.3354 369.2603 L57.5861 372.7701 L56.2338 374.9606 L54.6721 377.0691 L53.6092 378.7465 L52.3186 380.8811 L51.3332 383.8143 L50.1516 385.2827 L46.6542 385.2379 L45.8043 385.1502 L44.7644 385.0103 L41.9606 384.9786 L39.9098 385.5738 L35.9147 386.2753 L32.0274 386.9228 L31.7042 384.5475 M45.9084 279.5807 L46.3079 278.586 L46.3648 276.7442 L47.3866 274.2287 L51.6395 270.2334 L52.9482 268.8879 L54.0801 267.8112 L56.1067 266.9752 L58.5909 266.9584 L61.4128 266.7606 L66.8993 266.699 L75.4052 266.7736 L80.1677 267.0778 L83.2899 267.242 L87.2741 267.6656 L89.6178 267.9642 L94.0209 268.6808 L95.5172 271.0134 L96.4639 271.6479 L97.5607 271.9539 L100.0171 274.5627 L100.9868 275.0311 L101.7822 275.298 L99.2302 278.5711 L97.6842 280.4764 L95.4312 281.9879 L94.0717 282.7642 L93.2775 283.4752 L92.8115 284.8635 L92.464 286.0727 L91.1565 286.6774 L90.4495 287.0412 L90.3115 287.3902 L89.8442 287.9873 L88.8866 288.5602 L86.653 289.3309 L85.8092 289.2861 L85.1906 288.7524 L83.2439 289.344 L81.6616 290.2583 L80.0721 291.0887 L78.307 292.2214 L76.4923 293.3747 L74.4948 294.7313 L72.2479 295.1474 L70.1753 296.7951 L68.5627 297.9484 L66.041 299.8387 L65.2178 299.068 L63.5592 300.0738 L62.5242 301.6804 L63.3159 303.4308 L62.9951 304.9404 L62.2603 305.9481 L59.4431 308.3011 L57.2689 309.9414 L55.2738 310.169 L55.097 309.4935 L63.1682 299.0643 L66.7964 295.2556 L68.6209 293.05 L70.1281 291.9303 L70.6232 291.4843 L70.8012 290.9749 L70.9561 290.1986 L70.99 289.5679 L71.8653 288.3699 L72.7357 287.3062 L73.651 286.8677 L74.2999 286.1735 L74.6546 285.0483 L75.2756 284.2701 L76.0795 283.561 L76.508 282.3574 L75.9403 281.1276 L75.2793 280.2935 L74.4004 280.0341 L73.4827 280.4857 L71.536 281.8535 L68.7831 283.4099 L66.2045 285.22 L65.9079 285.9813 L65.926 286.6979 L66.1524 288.0713 L65.742 288.9502 L65.1488 290.0381 L64.0483 291.2119 L62.8535 292.7925 L61.9624 294.5036 L60.9843 295.6009 L60.4976 296.1831 L59.7385 296.1495 L59.5194 297.0937 L59.0787 297.4371 L58.1805 296.9743 L58.063 295.6401 L57.9613 294.4532 L57.4202 293.4568 L56.6502 292.5312 L56.6333 291.0141 L56.1091 290.1184 L55.3585 289.4783 L54.0135 288.3158 L52.5765 287.2465 L52.2496 286.5859 L51.7436 285.9888 L50.7352 285.7499 L49.6383 285.5353 L48.6638 285.0128 L47.9423 284.4045 L46.8006 283.4434 L46.6312 282.279 L46.3152 280.775 L45.9084 279.5807 M186.4263 427.4075 L187.557 425.3551 L197.8618 413.3823 L205.1025 404.0046 L213.4836 391.5464 L214.4957 388.9883 L218.5029 383.7881 L219.3564 383.3552 L220.3539 383.5362 L221.3563 384.7938 L226.3828 407.587 L226.4942 410.8951 L225.6443 412.4046 L220.3127 416.7295 L211.2779 424.6106 L202.904 435.1896 L200.6377 433.2137 L194.3353 440.2514 L192.121 438.1356 L187.6163 431.2099 L186.4662 428.6333 L186.4263 427.4075 M260.2232 143.3481 L260.6155 141.6161 L272.0328 143.5646 L271.7532 144.5985 L269.5874 148.7605 L269.0148 149.2458 L268.4034 149.298 L267.7799 149.9102 L267.3453 150.5672 L267.4361 151.6123 L267.4506 152.4764 L266.3575 155.4682 L264.9798 158.0176 L264.4398 158.1874 L264.1372 157.5342 L263.8127 154.5294 L262.7958 152.762 L261.613 151.1961 L261.015 150.1211 L260.9557 150.0147 L260.4956 147.581 L260.4363 146.6609 L260.2232 143.3481 M277.3886 136.8102 L277.4552 136.2316 L279.7627 131.6814 L282.1815 126.685 L283.5519 126.0262 L285.4223 123.5868 L286.2685 121.3564 L286.7939 117.5695 L287.2346 116.4534 L287.2177 116.3918 L287.001 115.5836 L286.0446 112.0169 L285.8291 111.2162 L285.5906 109.7585 L286.409 109.2732 L290.3495 106.9308 L294.8119 104.1629 L297.0237 102.7556 L298.3457 102.1173 L299.8723 102.2871 L301.5986 102.4383 L302.6676 101.9904 L307.2353 101.3875 L308.412 101.4006 L309.4035 101.0105 L310.5063 99.5994 L311.4966 99.0246 L313.43 98.6532 L315.1212 98.0148 L316.3536 98.0764 L317.4626 98.2817 L318.2894 98.6979 L319.3572 99.1926 L321.0884 99.7824 L323.9236 100.6951 L324.9708 101.5294 L325.4563 102.093 L325.9296 103.282 L325.8364 103.9464 L324.8849 104.288 L323.5774 104.8199 L321.8595 106.3019 L319.9807 106.3317 L318.0207 106.5874 L312.6298 105.6467 L302.2826 105.8483 L300.6216 106.6341 L300.2669 107.39 L300.4219 109.7342 L301.6434 111.0258 L305.0658 110.2027 L308.4737 109.5999 L313.0668 109.2975 L314.499 110.5741 L314.6152 110.6787 L316.7531 111.1135 L317.9456 111.4961 L317.2592 113.0565 L316.7386 114.2435 L316.4118 114.9882 L315.9977 115.9308 L314.2823 115.3895 L313.5281 115.1525 L312.6794 115.6321 L312.6322 115.7012 L310.7848 118.3776 L310.7109 118.484 L309.9531 120.1843 L308.6335 122.3046 L308.182 122.7992 L305.2159 116.7259 L304.6748 116.6885 L292.9911 121.3882 L292.8749 121.9892 L294.2368 128.152 L296.0237 135.9125 L292.9306 137.4317 L288.0723 137.7732 L283.765 138.0681 L281.0786 138.0849 L279.5363 138.1316 L278.7022 138.1932 L277.7034 137.5231 L277.3886 136.8102 M331.7842 98.9611 L331.9392 96.1166 L333.887 93.2161 L339.2392 91.8032 L341.8771 90.4594 L342.8686 90.8009 L343.3965 91.7398 L343.4982 92.897 L340.1108 96.587 L339.0213 97.7741 L338.623 98.5953 L338.6448 99.9914 L338.755 101.0609 L336.4596 102.6772 L335.0093 102.6026 L334.3241 102.2591 L334.6195 101.2214 L333.4089 100.8668 L333.2454 99.3045 L333.2297 99.1534 L331.7842 98.9611 M413.7819 203.7155 L414.949 201.1046 L415.6898 198.63 L416.8533 196.5473 L418.5275 195.6794 L421.5541 195.1849 L423.1097 195.6888 L424.8688 196.5958 L426.9571 198.0123 L428.8457 199.6322 L430.0163 201.1121 L430.7863 203.0343 L430.9182 204.5479 L430.7149 205.2832 L428.6544 206.1808 L425.5782 208.3904 L423.8301 208.7637 L421.6122 207.9817 L418.651 207.9201 L415.8533 206.6679 L414.2867 205.4567 L413.7819 203.7155 M431.411 208.8234 L431.7148 206.9087 L432.0695 205.0088 L432.1591 202.9634 L432.6361 201.6906 L434.883 202.9933 L439.2606 205.8841 L446.6212 210.0831 L450.908 213.0168 L449.5739 213.698 L444.9384 214.088 L442.6128 214.7804 L440.9022 215.385 L438.5488 214.7823 L437.0222 214.0414 L435.4351 213.1698 L433.4012 211.9997 L432.1737 211.117 L431.44 209.9319 L431.411 208.8234 M64.075 452.6698 L67.1705 457.6326 L70.5712 456.877 L74.0263 458.3341 L75.9705 457.2558 L78.508 453.4758 L79.0479 452.2892 L79.2913 451.1399 L79.399 449.2518 L81.0733 447.929 L82.2343 447.4961 L83.3299 446.5409 L84.8214 445.5334 L88.7389 445.0184 L91.3866 444.5669 L95.039 443.7068 L98.3815 442.7553 L102.0812 440.897 L105.3341 438.7401 L108.0386 437.0199 L111.2589 434.294 L114.162 432.3555 L115.6062 432.1615 L118.8737 430.542 L120.0444 430.1016 L120.7187 429.1669 L121.7307 428.5642 L122.2537 428.428 L122.7005 428.4336 L123.4631 428.5008 L124.5236 428.9001 L125.7161 427.7657 L126.6677 426.9261 L127.7342 426.6294 L128.6724 426.9223 L128.6059 427.6892 L128.3068 428.3441 L127.5889 429.3031 L126.8468 429.9953 L126.0769 430.8703 L125.6374 431.4469 L124.7682 432.0775 L124.181 431.5066 L123.738 430.8554 L122.8009 430.7024 L121.5879 431.6166 L120.9814 432.2156 L119.5758 433.46 L117.7599 434.8836 L117.2611 435.7195 L117.4415 438.0853 L118.1074 439.5965 L118.0662 440.1376 L112.2879 448.1491 L112.9622 448.7462 L114.0506 449.8619 L114.3314 449.6193 L113.2261 448.3189 L116.8895 443.3635 L120.1485 439.1543 L125.572 433.7753 L128.7766 429.5195 L131.0307 426.1201 L132.3382 423.9837 L132.9484 423.661 L134.6408 425.3476 L134.8732 426.0846 L131.3152 429.9356 L130.969 431.9357 L119.9778 445.636 L116.2636 450.5932 L115.1643 450.1175 L114.7164 451.5224 L113.8678 453.7183 L113.9198 454.3191 L112.8085 457.7353 L113.4005 458.9293 L114.1874 460.2409 L114.72 460.767 L115.9125 460.1905 L116.8798 459.1625 L118.0965 458.6681 L118.9257 460.0935 L119.347 462.2111 L119.979 462.685 L120.6085 463.2578 L119.9221 464.0787 L119.7393 465.0377 L119.4112 465.8716 L117.9718 467.7467 L116.9415 468.687 L115.5408 469.5694 L114.5118 469.8959 L113.1136 469.8493 L112.1208 470.187 L111.3933 472.2579 L111.064 473.4837 L110.4514 474.7318 L109.8037 475.7654 L109.1996 476.7281 L108.834 477.7374 L108.449 478.8997 L107.8619 480.8214 L106.6149 484.6012 L106.1113 485.9427 L104.46 489.5229 L103.1695 491.4725 L101.9335 493.0807 L100.9892 494.1907 L101.6974 494.7373 L105.9721 492.0639 L109.7517 487.1777 L112.5385 481.2617 L116.5868 476.1684 L117.6025 472.4016 L120.0867 467.3884 L121.6036 464.491 L123.9898 459.0413 L123.6193 456.1606 L122.4765 455.2501 L122.1787 452.75 L121.4765 451.2463 L120.4088 450.0932 L120.2054 448.429 L121.2029 447.1006 L122.8251 445.1658 L123.5878 443.5314 L124.8033 441.3037 L126.1991 439.7682 L127.4376 438.2084 L128.7269 436.2419 L130.4387 434.6933 L131.5767 434.3687 L135.3514 433.8406 L136.711 433.4675 L139.9143 431.2995 L144.6115 427.7881 L146.4274 427.2395 L146.6756 425.2823 L146.9286 422.0265 L147.8402 419.5879 L149.2711 417.1381 L150.4769 414.6062 L151.5725 413.4998 L154.0252 409.5293 L153.2577 407.7531 L151.8534 406.2959 L149.4782 405.9171 L145.7531 407.2139 L139.815 410.4529 L127.8843 413.9681 L125.7088 417.1251 L125.4183 418.0262 L125.474 421.5414 L124.0818 423.8531 L121.1666 424.6983 L119.0952 425.9764 L117.4766 426.2861 L116.3604 426.9578 L115.0493 427.7134 L114.0845 428.7751 L112.8218 429.5083 L111.6765 430.6203 L110.8909 431.8182 L110.1379 433.3835 L103.3051 437.8073 L102.6695 438.6058 L100.0982 440.1115 L97.3864 441.563 L94.7109 442.2702 L91.682 442.9586 L88.2934 443.7628 L84.8214 443.815 L83.802 443.6863 L82.7536 441.3877 L82.6798 441.2253 L82.7222 441.1675 L83.7911 439.729 L84.7257 438.7047 L85.3843 438.0293 L85.6385 437.3781 L85.5804 436.7121 L84.9848 436.0031 L83.7258 435.268 L83.2052 434.2903 L81.9219 432.3835 L81.0842 431.4581 L79.9196 431.598 L81.7876 433.585 L82.2621 434.7269 L82.3578 436.0161 L82.267 437.0852 L81.7912 437.9864 L81.1193 438.5648 L81.0733 438.6039 L80.0648 438.9808 L79.5951 439.4211 L79.1339 439.854 L76.8531 442.9512 L75.111 445.6807 L73.4682 448.9756 L72.0469 451.1548 L71.1244 452.3134 L70.3823 452.8638 L70.0675 453.0971 L69.3254 453.2482 L67.5204 453.7258 L66.242 453.5187 L64.9684 453.1605 L64.075 452.6698 M114.645 107.5785 L116.312 105.7606 L118.9633 107.5785 L122.1073 108.7152 L123.8118 111.5559 L124.9098 113.4876 L126.273 115.7609 L131.2729 116.5187 L135.481 114.5104 L133.2183 110.367 L130.739 108.5229 L129.1991 107.2239 L126.8686 105.8483 L124.7367 102.8023 L125.06 102.2069 L126.2343 100.9004 L127.5732 99.5024 L129.3552 98.7558 L131.6699 98.5188 L134.843 97.9196 L136.4676 97.8599 L138.2182 97.9084 L139.1576 97.5053 L140.0099 97.8356 L140.0002 98.5001 L139.9893 99.3363 L139.6467 99.508 L139.0886 99.7861 L138.6177 100.5513 L138.3925 101.3464 L138.6213 103.2801 L138.6528 103.6384 L138.6564 103.6814 L138.6734 103.8661 L138.4046 104.5306 L138.3986 104.9786 L138.4458 105.5124 L138.2533 108.0974 L137.3853 111.037 L138.4869 112.6757 L172.8443 95.3962 L171.5441 94.2166 L170.5248 93.302 L166.1266 89.3563 L165.0794 87.6447 L163.6981 84.0853 L163.1594 80.3766 L162.1267 73.2727 L161.6473 71.8803 L159.6885 72.9704 L157.9464 74.3721 L157.9113 74.7771 L157.7673 76.4402 L157.6438 77.8718 L159.7987 84.4008 L160.542 89.0707 L158.7697 90.213 L157.7261 91.023 L148.3244 93.106 L145.8197 93.5055 L141.0341 93.8377 L137.3017 94.3603 L132.7643 94.7896 L127.3456 96.0289 L122.8893 98.082 L120.2877 98.3993 L117.6497 98.3191 L117.1243 97.9159 L114.645 107.5785 M127.0914 467.0358 L127.1943 467.8343 L128.0926 468.8847 L128.1616 470.4445 L129.193 471.0937 L130.8564 471.4874 L132.0888 471.5639 L134.3914 468.1441 L135.3817 465.8343 L138.4337 461.3715 L140.568 456.974 L142.0389 453.0728 L142.8839 451.3992 L143.9141 449.7425 L146.0255 447.7013 L146.9661 446.2293 L147.7046 444.4867 L150.1622 439.4753 L151.489 437.8334 L151.4103 436.9434 L151.1294 435.8687 L150.2203 434.8892 L148.9624 433.1802 L148.1913 432.0364 L147.1635 430.4543 L146.3996 429.4281 L144.7822 430.4449 L142.5922 432.529 L140.8828 434.4974 L138.976 436.2997 L137.3611 438.1935 L135.7449 440.8279 L134.6614 443.0295 L133.2583 448.1025 L132.9907 450.4179 L132.2958 452.6511 L131.9665 453.6736 L131.9109 455.7688 L131.9326 456.4386 L131.6506 457.7912 L130.6724 460.7745 L129.2487 463.2932 L127.0914 467.0358 M138.7351 476.7038 L138.9615 478.9986 L139.3368 481.2524 L139.5499 481.9874 L140.4893 482.5453 L141.7108 482.5024 L142.4227 481.9912 L143.8924 479.5266 L144.425 478.2412 L144.6756 477.5303 L145.0642 476.9371 L145.488 476.1833 L145.6502 475.4967 L145.902 474.8027 L146.1405 473.9743 L146.8777 470.5471 L147.7215 469.1291 L148.8172 466.881 L149.2966 466.256 L149.8135 465.5377 L150.8341 463.9686 L151.1391 463.2167 L151.3788 462.3044 L151.5568 461.463 L151.2711 460.8156 L150.6258 460.0655 L149.4987 459.4032 L148.1271 458.4927 L148.1017 458.1998 L149.1622 458.1065 L149.92 457.5916 L150.7663 456.5766 L152.7747 454.0691 L153.7262 453.2239 L154.064 453.015 L154.5555 452.5243 L155.5155 451.0615 L155.6826 450.0858 L155.6184 449.3507 L155.2782 448.5633 L154.5482 447.8674 L153.8981 447.5651 L152.9829 447.2872 L152.1258 447.6771 L151.0023 448.582 L149.4067 450.2014 L148.0448 451.4403 L147.0242 452.5149 L146.4068 453.6008 L145.8402 454.7706 L145.7942 455.7595 L145.8124 456.474 L145.9916 456.9964 L146.316 457.2259 L147.0218 457.6177 L147.4019 458.3509 L147.4177 458.5282 L146.9213 458.9741 L146.0364 459.545 L145.1732 460.3827 L144.0534 461.3324 L143.2992 462.3846 L142.1152 464.8716 L140.8573 467.9631 L139.2351 473.7803 L138.7351 476.7038 M147.4068 492.7486 L148.2094 495.8157 L149.621 497.8567 L150.7868 499.8007 L151.0156 500.5451 L151.6827 501.463 L152.8231 501.6327 L153.6621 500.6981 L153.0906 500.269 L157.5627 489.0154 L164.0104 492.1068 L165.5092 490.659 L168.6616 484.0844 L173.0526 485.6889 L174.1409 483.5714 L170.9219 472.5191 L164.7501 464.4966 L158.9597 458.3659 L161.0505 454.918 L159.9331 455.6736 L157.9186 459.1215 L157.5845 459.3752 L156.2249 461.6589 L155.4598 462.129 L154.616 464.3772 L154.6439 465.0806 L153.0749 467.9239 L149.5811 473.3158 L149.1864 473.8885 L147.8644 476.6031 L147.9116 477.1367 L148.1186 477.8139 L148.8801 478.4538 L149.9212 478.4632 L150.8897 478.09 L151.5737 477.0266 L152.7517 475.9482 L153.748 475.5676 L154.9974 476.6479 L154.8666 478.7206 L154.7431 479.8531 L154.9974 480.7262 L154.8485 481.0527 L154.1875 481.6498 L153.1875 481.6292 L152.2529 482.0807 L151.4696 482.9072 L150.9212 484.0434 L150.8595 484.8568 L151.0023 486.4016 L150.3728 487.2654 L149.322 489.0751 L148.776 491.0769 L147.7942 492.0863 L147.4068 492.7486 M158.3581 49.9411 L161.0916 49.8515 L164.0274 50.1819 L166.0152 51.2029 L167.0951 53.76 L167.4873 54.6896 L168.7924 57.7824 L172.0901 69.8831 L177.9931 79.2362 L179.5233 81.1979 L182.516 85.0317 L184.1975 87.7287 L185.1515 88.0684 L185.1854 88.0796 L186.0013 88.1935 L187.5328 87.6373 L187.7192 86.1217 L187.8839 85.7017 L186.5703 83.3593 L185.2036 81.2837 L184.4021 79.8932 L193.1355 73.5322 L197.4223 70.1053 L197.5507 69.8197 L195.8594 71.0684 L185.5486 78.596 L184.6418 79.1821 L183.9966 79.4919 L183.4336 79.3893 L182.8174 78.8909 L180.6141 77.1103 L179.9749 74.7939 L178.8902 70.8593 L174.3092 60.935 L171.0538 47.5425 L169.9582 46.7287 L168.6786 46.7287 L168.227 46.7287 L167.3965 45.8757 L167.428 44.7464 L167.4498 43.9849 L168.135 44.1435 L169.0478 44.0129 L169.359 43.3446 L169.0212 42.7511 L168.1447 42.71 L167.5975 42.7921 L167.1774 41.2615 L159.7515 44.7147 L158.3581 49.9411 M182.6794 22.7804 L186.3185 21.7351 L190.2228 23.5476 L194.2009 24.647 L196.0822 25.2406 L196.4986 25.3713 L196.5664 25.4534 L198.2117 27.4787 L198.6051 28.9103 L200.7745 29.8978 L203.2624 31.2455 L204.9076 32.9721 L206.9293 33.9893 L207.7683 35.7029 L208.4475 36.3674 L211.0091 36.4607 L212.2694 38.7603 L213.5817 41.088 L214.6761 44.0073 L212.6858 44.3003 L207.5334 44.879 L191.6707 45.6611 L188.2858 47.1039 L186.6999 48.1697 L186.0752 52.1679 L185.0764 56.3153 L185.4917 57.7955 L186.6345 58.7568 L188.7858 58.9546 L192.6828 56.8417 L193.8341 55.9831 L194.874 55.3858 L196.4006 55.1674 L197.8243 56.0858 L200.2976 56.6942 L201.9331 56.7689 L203.3386 57.4707 L208.3288 61.5136 L209.8639 62.7997 L210.4607 63.6004 L211.7282 63.3037 L212.0091 62.6728 L212.6919 62.4096 L213.3844 62.6522 L213.9788 63.6788 L213.6737 64.0428 L212.9824 64.5916 L213.0878 65.5939 L214.4836 66.3797 L215.44 70.2042 L215.9836 71.6227 L216.1228 72.1398 L236.4164 61.2617 L233.8826 59.4175 L231.988 57.8254 L231.7918 57.0564 L230.9783 53.8608 L231.0279 50.7904 L231.1708 49.8757 L231.5449 47.4754 L231.7991 47.4156 L232.5993 47.2308 L225.7339 46.0213 L225.3756 42.4375 L226.4736 40.0445 L225.6576 40.0445 L224.8259 35.7421 L222.7691 30.8068 L222.7642 31.0625 L222.7134 33.5115 L221.2909 35.1186 L222.1408 36.1901 L221.4955 37.2577 L220.728 38.2844 L219.1179 37.5769 L217.3189 36.3898 L214.7863 32.931 L213.8153 32.0294 L212.4328 31.5236 L211.0261 30.7489 L208.8554 27.5869 L206.8167 27.1427 L205.381 27.0064 L205.3434 27.0027 L205.335 26.9933 L204.5541 26.1123 L203.8895 24.6452 L203.6607 22.5508 L204.0469 20.2792 L207.1448 19.4672 L209.807 19.4504 L210.675 18.8176 L210.8542 18.7448 L206.7187 17.4774 L215.3904 12.1033 L213.9425 7.6869 L207.8591 7.8194 L200.2746 12.3908 L193.8268 12.0921 L187.563 8.6389 L184.9723 6.7722 L184.597 7.881 L184.8779 15.2579 L182.6794 22.7804 M263.6384 311.3465 L263.7256 311.9623 L264.3926 312.2907 L264.8926 311.4155 L270.045 303.0725 L276.4504 292.0964 L277.477 289.7526 L277.724 289.1891 L277.4371 288.9782 L276.8487 289.7228 L275.3354 291.6392 L265.4192 308.4784 L263.6384 311.3465 M347.1324 243.9116 L348.0222 245.2496 L350.8164 248.2038 L358.5655 252.1227 L360.2398 251.8745 L361.5098 248.9148 L360.1042 246.6642 L359.1684 244.6077 L359.0014 242.6855 L359.6854 240.5189 L358.7435 238.9999 L355.1032 236.0905 L354.3877 236.0644 L352.849 238.0201 L347.4884 242.7676 L347.1324 243.9116 M364.753 4.5453 L366.661 5.3013 L369.2795 4.3437 L370.9683 2.3165 L371.4187 1.7248 L365.6634 0.0 L364.8523 1.3067 L364.9661 2.6115 L364.753 4.5453 M378.3737 339.6349 L378.9282 341.4169 L379.6933 343.1616 L381.7755 345.0649 L388.1749 350.1309 L389.1615 350.9127 L391.7728 347.8489 L383.0709 341.8965 L380.2163 338.0675 L378.3737 339.6349" stroke-dasharray="" fill="none" fill-opacity="1.0" stroke="#ff0000" stroke-opacity="1.0" stroke-width="1.0px" stroke-linecap="butt" stroke-linejoin="miter" stroke-dashoffset="0.0px"/>
</g>
</svg>