<?xml version="1.0" standalone="no"?>
<!DOCTYPE svg PUBLIC "-//W3C//DTD SVG 1.1//EN" "http://www.w3.org/Graphics/SVG/1.1/DTD/svg11.dtd">
<svg width="512px" height="512px" version="1.1" xmlns="http://www.w3.org/2000/svg" xmlns:inkscape="http://www.inkscape.org/namespaces/inkscape">
<g id="layer" inkscape:groupmode="layer" inkscape:label="layer">
<path d="M24.3775 91.0305 L25.7056 97.715 L32.0466 102.1862 L34.5829 109.5883 L42.0393 122.9511 L43.7925 127.1111 L46.7359 135.862 L46.9892 139.6575 L47.367 145.323 L47.5367 150.909 L50.987 152.0797 L53.3284 156.4539 L51.2944 156.9109 L48.9068 154.7477 L48.0914 157.5628 L49.0061 158.7582 L49.2174 160.5493 L47.9957 163.5324 L48.4909 163.6825 L48.8093 163.9405 L49.01 164.1175 L48.4827 165.2718 L49.6625 165.8664 L50.1812 163.3728 L51.2855 162.9536 L52.661 163.3273 L52.535 165.7181 L50.3114 166.1193 L51.8025 167.3237 L49.8937 167.3979 L49.5742 168.8405 L48.1977 169.0046 L47.9829 169.7043 L49.5344 170.1814 L49.4924 170.9536 L47.774 170.3668 L46.7921 171.4082 L45.084 174.5946 L46.2477 175.183 L46.4107 176.7099 L44.7702 177.8333 L46.3239 178.4925 L45.9642 180.365 L47.3873 180.9269 L46.5299 183.2815 L42.1681 189.5108 L40.6172 190.651 L40.5358 192.2418 L40.4447 194.0147 L38.241 195.1319 L36.6315 197.4869 L37.0015 200.0133 L37.3341 201.3563 L37.4288 202.6937 L36.2782 204.7807 L35.6623 205.7825 L35.3446 206.1826 L34.4751 207.1598 L33.39 208.6494 L33.4633 209.0281 L34.2182 212.9204 L34.4253 213.988 L34.8771 213.9211 L35.0625 214.5887 L35.3372 214.9668 L35.0113 216.1929 L34.8853 216.6654 L34.7946 217.601 L34.2424 219.4417 L34.6776 221.5336 L35.0095 222.1477 L34.5434 223.7929 L34.4765 224.9138 L34.6608 225.5498 L34.5897 226.9259 L34.5317 228.0541 L34.8818 231.3247 L34.922 232.9883 L35.6204 234.5031 L37.1708 237.7472 L37.4494 238.3792 L38.0478 239.3793 L38.1236 239.7204 L37.9048 240.3299 L37.6703 240.9367 L38.3211 240.7918 L38.9234 241.4941 L38.4296 242.0301 L38.8145 244.3089 L41.0737 245.4606 L42.1311 246.0404 L43.6872 250.013 L52.7417 254.253 L54.6095 254.6463 L53.0085 253.5452 L55.4538 252.6232 L58.0976 253.3244 L58.8205 254.9862 L59.4897 254.9323 L58.8422 253.1305 L59.9312 252.5552 L63.9223 252.8665 L66.623 254.4508 L67.1723 254.1491 L67.8942 254.5053 L67.6014 255.1328 L68.2258 255.3693 L69.1963 255.6575 L69.9292 257.7525 L72.5762 265.3204 L72.658 269.0169 L70.359 270.2877 L68.958 271.0618 L72.1564 280.2241 L72.272 287.0499 L73.6222 290.5265 L75.9561 295.8685 L78.8877 298.8961 L79.7949 303.5807 L85.6759 315.9772 L84.9135 311.7034 L85.3578 311.4321 L86.1953 310.7294 L87.2655 313.025 L88.7473 318.4138 L89.9651 320.5447 L90.5433 321.6102 L89.4272 322.2393 L90.7464 324.4005 L90.9417 324.122 L91.2231 323.7209 L91.9543 322.7319 L93.4332 322.9857 L95.9315 323.1301 L96.2179 324.5191 L96.1898 324.6718 L96.0891 324.9689 L96.4442 325.6536 L99.0477 325.9479 L98.8442 326.8892 L102.27 327.511 L104.8707 329.0494 L110.5496 336.1131 L110.9829 336.445 L113.3869 337.4352 L113.5591 337.1982 L113.8391 337.2128 L114.1476 337.7368 L115.2024 338.3608 L115.3675 338.153 L115.8841 338.5618 L115.8122 338.741 L116.4149 339.028 L117.0019 339.6907 L119.5899 341.5132 L120.5408 342.6662 L120.993 342.1354 L120.0243 341.152 L120.6629 340.2838 L124.2793 342.6162 L126.0216 343.7742 L127.3813 344.6784 L127.8236 344.4397 L132.4508 341.9422 L135.0537 339.9563 L136.5397 337.8177 L140.6073 339.9709 L144.397 342.2096 L144.5653 341.9478 L144.5251 341.7333 L141.7985 340.1973 L143.3486 337.2555 L150.2481 338.5646 L148.2711 347.2888 L152.704 349.3443 L163.2884 351.2874 L166.8141 349.4061 L166.5864 346.6149 L165.6354 342.792 L162.6594 339.1734 L165.961 335.4936 L169.0576 336.9831 L167.3072 339.4177 L165.2651 338.4939 L165.0075 338.9915 L167.023 340.1102 L167.8224 340.6651 L168.4795 338.4635 L169.1989 337.1667 L170.6017 338.0462 L170.1043 339.8395 L169.7048 339.2537 L168.9769 340.1411 L168.7727 341.2514 L169.5536 341.5042 L170.2623 339.9766 L170.7622 338.1676 L171.6036 338.0547 L171.7046 337.7452 L171.0909 336.3698 L171.3083 335.6396 L171.653 334.7292 L169.2042 331.3139 L168.0366 329.1415 L174.5853 326.6904 L183.0005 323.3025 L182.2719 324.5679 L179.8359 325.6727 L180.7523 327.4936 L181.7571 327.0415 L182.4433 326.1378 L185.8318 324.1708 L185.5585 321.818 L186.9581 320.6559 L186.9229 318.7064 L188.8701 317.205 L188.8793 315.8031 L187.3104 316.6647 L187.2285 315.3689 L186.882 314.5466 L187.5519 311.9213 L188.732 311.7062 L188.6125 310.3014 L189.3337 309.1365 L188.3595 305.6843 L189.9057 301.1126 L190.7112 298.4653 L190.259 298.1367 L189.4126 295.3758 L187.5245 294.8989 L186.5846 292.6459 L185.7058 291.1303 L184.7192 289.2704 L185.3547 288.07 L184.9533 286.7988 L187.405 285.4888 L188.3667 284.6529 L188.5958 284.0918 L192.3403 281.2634 L192.2485 280.8971 L195.8444 280.7022 L196.742 281.0667 L197.1821 281.5875 L198.1345 282.3627 L198.3074 283.28 L198.4515 283.9884 L198.9474 286.4393 L198.6632 288.8469 L196.4872 293.6957 L195.7138 304.621 L196.325 305.6882 L197.1554 306.5106 L197.0337 307.1419 L195.9454 312.128 L195.543 315.3482 L195.5466 315.388 L195.5786 315.7638 L194.7678 322.009 L194.3099 322.6673 L194.6685 325.6356 L196.8797 326.2226 L205.6766 328.3641 L206.2697 322.4527 L215.2939 324.1647 L215.2775 324.9678 L222.8591 327.0673 L224.3199 328.7242 L226.8865 329.6329 L227.5418 327.5503 L232.2875 328.4293 L231.92 330.2912 L232.4679 329.4768 L233.0738 326.6837 L238.382 328.2776 L237.0379 330.8258 L239.3653 331.7357 L241.9678 332.1929 L243.6428 334.2271 L244.8148 333.9317 L246.2058 334.3119 L248.607 336.809 L243.883 340.0861 L242.7054 337.1712 L241.9814 336.0244 L241.3954 335.096 L237.5744 337.994 L233.3406 342.8689 L229.135 343.6423 L226.3158 346.8255 L227.47 348.8113 L227.7727 347.7858 L229.5096 349.5779 L230.6456 348.5603 L233.8782 351.4879 L234.2087 351.7873 L239.8791 351.2841 L240.787 351.2032 L241.4808 349.2713 L241.8746 349.7425 L244.7717 353.2081 L246.282 353.9359 L248.2085 354.8648 L249.7988 353.2306 L257.3306 358.9981 L256.4063 360.4638 L257.7387 361.1737 L259.7011 359.5254 L260.9015 359.148 L262.7146 358.5775 L262.9839 358.4927 L262.404 357.0325 L262.4716 354.775 L260.1163 353.3373 L260.1483 351.5121 L263.0942 348.5131 L263.0337 347.637 L263.5353 345.3737 L264.0939 342.6836 L270.8536 338.0446 L274.6 342.4421 L272.0597 344.7279 L273.4935 345.2165 L277.8724 347.9571 L278.9856 345.1092 L279.7922 343.7231 L288.1764 347.4573 L294.8294 353.914 L295.8355 353.6759 L301.1789 355.8133 L301.5172 362.5636 L300.6267 364.5409 L300.6623 366.0903 L299.9319 366.8916 L293.6706 364.8256 L294.3391 362.4569 L283.1179 358.2388 L283.0557 356.8135 L283.0205 356.3328 L275.9021 351.4391 L273.0595 351.4278 L271.9099 354.7216 L270.6544 358.3186 L273.0132 361.1377 L274.6334 363.2392 L279.2752 361.1737 L279.3083 364.141 L283.2499 364.7756 L283.8359 371.83 L278.7697 377.336 L274.9543 376.6683 L271.6826 380.4385 L271.3499 383.9835 L275.4389 383.1743 L277.2256 387.9686 L273.7404 392.3227 L273.3174 395.3514 L274.5121 398.132 L275.2795 400.9283 L271.5293 401.9294 L267.0451 395.676 L267.3895 391.5247 L265.5483 385.1739 L264.6418 384.7286 L259.1202 384.5321 L258.558 384.9813 L257.046 388.8222 L257.8571 397.8119 L261.6995 395.9309 L262.8273 398.4128 L261.4042 400.5071 L262.4716 403.3539 L260.9631 407.5931 L261.3669 411.6784 L265.0168 414.8794 L265.4352 415.246 L267.3137 417.4469 L265.0502 420.129 L265.8671 420.7865 L268.7752 424.6734 L270.5398 427.251 L271.9814 428.5692 L272.7716 429.2362 L274.2719 429.9374 L278.8785 431.5308 L282.1282 428.0134 L284.366 428.7994 L287.109 426.2112 L293.6909 426.5986 L304.5598 434.3239 L305.7979 436.7717 L314.1124 435.2446 L317.0938 429.8998 L318.5063 428.3503 L319.4206 427.3284 L320.986 425.6385 L321.6727 421.6185 L322.4671 420.3098 L322.766 419.1364 L322.9535 417.6041 L321.5979 404.7745 L322.1334 401.5386 L323.3395 399.2292 L324.384 397.5374 L326.1006 395.3992 L328.5605 392.5506 L327.3188 387.0477 L319.8191 381.3314 L318.3141 377.8667 L318.7446 375.5643 L319.4085 373.9667 L320.4346 373.6719 L318.6735 377.687 L321.7901 381.8367 L327.5999 385.0094 L329.3966 389.8441 L329.578 393.0223 L327.0627 396.6216 L325.0845 402.9721 L326.778 404.4937 L326.5112 411.4392 L325.4759 411.1978 L324.4157 414.7238 L321.1248 425.9417 L314.4362 435.7667 L306.1573 437.5352 L291.7341 427.233 L289.4216 426.5649 L289.692 427.2835 L290.5956 428.0527 L286.2196 431.2978 L283.1066 436.6369 L282.7828 434.0263 L281.8436 436.8727 L282.1812 439.9049 L282.6259 441.2147 L282.6707 442.8209 L282.2965 446.3543 L282.1207 448.7566 L282.2136 451.3109 L284.1732 456.0619 L287.5239 458.3416 L289.9552 460.5411 L290.9265 462.0399 L291.0119 467.6535 L289.6244 471.5324 L281.3583 478.5985 L280.5877 482.1472 L280.4913 482.7922 L280.7723 484.095 L281.1096 484.5946 L282.2278 486.2505 L285.7023 488.3228 L289.4063 491.6946 L290.0068 491.2607 L293.8506 493.8516 L293.9278 494.3641 L297.6404 496.1182 L298.2174 496.6418 L298.5437 495.265 L301.4703 496.0351 L302.1406 495.9503 L303.2609 495.9065 L303.2983 496.8265 L303.2075 497.6993 L305.419 497.8335 L306.2049 497.9205 L311.093 497.9985 L311.0865 497.5831 L312.1578 497.6915 L312.2233 497.6982 L312.2873 496.625 L312.9768 496.7782 L314.3469 496.9365 L315.0414 497.6505 L316.8181 497.2318 L318.0043 496.4836 L318.1708 496.2209 L318.9293 495.0242 L318.1626 493.6496 L319.0399 490.842 L317.6239 488.984 L320.0678 486.2712 L320.0852 484.6462 L315.3149 482.3437 L315.8842 480.9684 L318.0082 478.6221 L317.3251 478.1394 L317.35 476.2028 L321.1212 476.9533 L324.029 475.7745 L324.8056 474.3728 L326.5244 474.8118 L327.6835 473.4365 L330.3162 475.1065 L332.2808 471.5504 L333.7544 471.4325 L335.4714 469.7451 L338.6072 470.5877 L337.7427 471.904 L339.9432 473.4443 L339.7703 474.796 L342.3183 476.4963 L341.6345 478.7899 L341.6 481.1464 L337.3816 483.8155 L334.8029 481.5747 L332.4085 483.2323 L328.4996 482.1702 L327.5889 484.0916 L326.3607 482.2499 L326.8826 481.0526 L323.5366 478.443 L323.6999 481.3473 L325.6253 482.7815 L326.4297 484.1315 L324.7501 486.425 L322.0242 486.5726 L321.7218 491.6065 L323.512 491.0631 L324.4634 491.1097 L324.579 492.5915 L323.4654 493.8881 L324.2136 495.1314 L324.7636 495.3784 L326.7606 495.0887 L326.7901 496.1754 L326.8051 497.3036 L328.2228 498.026 L329.7826 498.2842 L330.872 498.4065 L333.0319 499.2423 L335.7628 500.3912 L335.4728 501.1013 L336.0086 501.5093 L339.8741 504.4498 L342.2767 506.1836 L344.7604 507.3572 L346.5848 507.7462 L349.2766 507.5155 L352.4558 507.5784 L355.8787 508.2648 L361.1211 509.2734 L366.5307 509.92 L366.7359 508.4977 L368.8571 509.7011 L369.7376 509.7258 L371.065 509.2914 L372.565 509.778 L374.5264 512.0 L375.5111 511.6896 L375.372 509.9486 L374.7427 507.7922 L373.8682 506.7118 L370.1222 505.7239 L369.6882 504.3797 L366.7025 500.8891 L369.1904 494.427 L370.668 494.8541 L371.9456 493.6384 L373.1417 492.2177 L374.7519 487.986 L375.2546 484.9645 L374.3748 481.5825 L373.8518 478.9465 L374.5409 477.7408 L375.5336 474.6422 L376.0612 472.2274 L375.3404 471.6559 L375.5254 468.3653 L374.3154 467.9387 L376.0829 462.8573 L378.9857 464.8523 L380.7314 460.8274 L378.4652 459.8562 L380.3472 456.2073 L381.548 454.2363 L383.7249 452.0339 L384.1398 450.6833 L388.9463 433.6333 L392.5076 429.7538 L390.0314 427.0196 L390.4512 424.8918 L389.11 423.1345 L392.4098 413.4038 L395.4424 412.3657 L396.9822 409.396 L396.7346 406.6465 L392.4706 403.1338 L392.165 400.8558 L392.6699 389.5976 L395.5025 376.9193 L396.4382 375.931 L396.5375 375.0196 L396.2233 369.9892 L400.2692 367.0168 L400.5314 364.1674 L398.9059 359.9612 L400.0145 356.8753 L400.3863 353.1929 L401.1451 350.5854 L402.1481 348.8265 L403.9031 343.6608 L402.4156 340.254 L404.0159 336.1401 L400.53 334.1682 L400.4731 330.9399 L405.8442 327.6829 L406.9585 326.7112 L409.4732 327.1684 L410.1587 323.4542 L409.1302 322.2539 L410.4729 316.2828 L410.8891 314.1164 L408.1433 312.8605 L407.4716 311.4579 L410.1296 311.3411 L411.7946 307.6025 L409.6912 306.405 L411.2104 299.2191 L409.3408 294.1367 L408.1724 294.1367 L407.2086 289.9889 L394.648 281.8976 L396.868 281.5178 L400.8406 282.3357 L404.4044 284.2929 L408.2308 282.6863 L410.3341 287.2431 L411.3563 290.4855 L414.6863 299.7449 L415.6797 299.482 L417.5781 303.4544 L415.9017 307.9682 L415.9586 311.7966 L414.8443 315.511 L413.5301 322.3398 L414.4159 323.9113 L411.7017 330.8539 L410.8158 337.3397 L408.33 340.997 L407.3015 343.7113 L407.2937 346.0982 L404.8957 352.2702 L404.8779 355.9206 L406.2228 363.4458 L406.3793 363.9737 L408.7452 373.7842 L414.0321 381.6571 L415.2773 387.2162 L426.9681 396.6553 L428.2417 399.4403 L428.2844 413.657 L426.3455 417.8287 L426.1854 418.233 L427.0641 417.3066 L428.4766 418.0758 L428.2311 420.3553 L431.0844 420.3553 L433.6709 421.7589 L431.0204 423.5443 L434.8343 424.9872 L436.7804 423.9429 L438.0718 425.6217 L439.2626 425.1804 L439.9158 422.1031 L440.8366 420.9757 L441.4517 417.941 L445.4293 414.4992 L446.0199 410.4887 L447.5127 406.6038 L445.2265 408.6869 L443.7205 411.0535 L439.3775 415.5829 L437.869 413.8536 L442.4877 401.8418 L441.4965 398.3274 L443.4771 399.1012 L444.4171 402.9008 L446.6147 402.0277 L446.561 401.2882 L448.8124 399.3039 L441.9462 394.9483 L443.412 390.035 L447.4643 391.6747 L448.738 388.9288 L443.2341 378.6584 L449.325 382.2017 L447.0121 376.2904 L446.8837 373.7937 L445.6061 368.2703 L447.1359 366.7535 L445.2891 363.2521 L445.9444 361.0029 L442.6471 360.1493 L443.0527 354.3706 L444.9846 349.1814 L443.9172 348.412 L443.9172 342.5263 L452.0396 347.0024 L448.1937 342.5881 L443.6824 342.3915 L444.1414 328.609 L446.6745 330.367 L450.2216 336.7303 L450.6627 334.7309 L454.5905 337.5054 L455.27 335.169 L452.4452 332.2934 L454.2205 328.4742 L453.7117 326.9241 L456.2804 325.4301 L452.6409 321.9141 L454.3806 311.5512 L454.6047 306.7206 L448.859 307.552 L449.2681 305.0917 L447.6351 301.4407 L451.4881 295.992 L452.5626 298.8062 L453.6441 296.1943 L454.4727 294.2816 L456.1655 290.3731 L454.4806 287.447 L452.3157 283.512 L453.2595 281.992 L452.6661 281.0179 L453.605 279.4191 L452.8771 278.0956 L455.4102 272.0393 L459.7987 266.776 L456.4565 264.3272 L457.8384 260.3632 L461.9519 264.3991 L466.8022 269.6152 L468.2459 269.2473 L468.4505 268.0788 L470.4478 267.9883 L470.414 254.7676 L470.1934 253.0631 L474.901 254.5553 L478.5385 256.1587 L479.2365 265.1255 L480.7877 262.0267 L480.9528 259.8536 L481.7355 257.3941 L484.47 255.9952 L484.3355 260.2643 L481.2015 269.2916 L480.1665 276.2368 L478.9807 281.4128 L479.3447 285.7438 L480.3967 286.2893 L481.5025 283.207 L484.1402 283.5688 L484.0911 284.3799 L483.942 285.7012 L484.5451 284.3575 L486.9978 276.4514 L487.2909 274.3448 L486.4417 269.0563 L487.6225 262.0536 L486.4929 255.6575 L481.865 249.9675 L479.1604 250.5395 L477.6149 250.4322 L476.2444 250.1659 L472.3772 248.3877 L467.9093 244.7695 L467.413 245.6791 L467.5578 247.2719 L468.9333 249.7698 L468.0285 251.9783 L466.1824 253.1002 L465.2047 252.6659 L465.3136 251.4715 L463.576 251.7974 L462.5624 254.1862 L460.3904 252.63 L460.7159 251.8698 L455.9738 247.7427 L453.5847 249.6979 L453.6932 250.9282 L452.7519 252.0507 L448.1545 244.7746 L450.1817 243.7611 L450.5076 242.7835 L450.8694 241.0457 L449.7836 240.9733 L449.3855 239.272 L450.1817 238.2219 L452.0641 239.0186 L452.6433 233.8783 L452.6796 230.2217 L453.1863 227.3259 L453.8597 222.6247 L450.1743 217.129 L448.0158 216.0473 L446.8922 214.6746 L446.1181 210.6627 L445.6182 207.0232 L444.3257 204.389 L443.6027 201.5513 L443.4416 201.117 L437.7196 197.0188 L437.0369 196.4828 L436.3751 195.7404 L435.3505 192.4936 L433.2689 190.8729 L430.7902 188.9651 L429.2468 187.7772 L427.3356 186.3588 L425.9502 180.2947 L425.2586 179.5046 L424.8003 177.8142 L423.9148 177.1072 L422.6739 176.6329 L420.5278 177.994 L419.7672 175.4275 L418.5839 172.8986 L418.2839 169.3974 L417.3596 168.1532 L415.3755 166.4026 L411.1859 163.8146 L411.8476 160.4144 L416.7466 152.0067 L411.7551 144.9307 L412.5841 138.7032 L417.4582 131.0423 L416.156 127.7035 L417.9883 117.9569 L415.9098 113.9289 L413.2316 108.7384 L412.6645 93.3735 L412.7022 90.7955 L412.9982 90.1074 L414.0459 86.9188 L414.1833 83.6555 L415.59 81.6063 L415.4633 80.7203 L415.0325 80.2133 L414.8656 79.7719 L414.8318 79.3481 L415.0951 78.1427 L415.0037 77.5035 L415.2054 76.8177 L415.7007 74.8916 L415.6341 74.4717 L415.1029 73.1679 L415.1762 72.0891 L415.3879 68.5242 L415.5655 67.9406 L416.9064 65.2459 L416.6812 63.9045 L416.7014 62.8155 L416.9199 62.0318 L417.8246 60.3794 L417.3778 59.6671 L416.7733 59.1655 L416.0799 58.7073 L414.8251 58.2384 L413.1529 58.0327 L409.8734 57.9995 L409.349 57.8134 L409.0412 57.4614 L408.9277 56.5102 L408.9978 55.8029 L408.2351 53.9514 L406.5213 52.1517 L401.2562 47.769 L398.8145 46.5073 L398.2353 46.1514 L397.1982 45.3109 L390.0485 38.6874 L388.74 37.2958 L388.2077 37.3059 L388.2579 38.2264 L388.2792 38.787 L388.328 39.5466 L388.6617 39.8474 L391.5702 41.9058 L391.6399 47.4856 L391.7363 48.9042 L391.9807 52.5042 L392.8488 52.4441 L392.5745 49.1538 L396.8563 50.9581 L397.3451 52.6144 L397.127 53.2048 L396.8353 53.993 L397.2893 55.2985 L398.0232 55.5173 L399.0824 57.5525 L399.0116 57.656 L397.0281 59.9369 L393.935 68.3673 L391.4061 76.1987 L388.0779 85.3791 L387.3357 89.593 L386.9447 90.8259 L386.3296 92.6866 L382.399 90.3143 L381.6928 91.3964 L376.2021 86.9773 L373.6152 84.9372 L372.5682 84.2665 L371.8146 83.9506 L371.5275 84.6055 L374.9359 87.2702 L370.4061 94.291 L367.9779 98.6965 L365.4128 102.5179 L363.9758 102.6337 L362.5876 105.0239 L361.3257 107.4511 L360.0477 105.7085 L358.8 104.1261 L356.9692 100.8388 L358.3019 98.9287 L359.5927 97.8696 L359.127 97.3996 L357.5516 98.8584 L356.6817 98.8095 L355.9282 99.4351 L355.1145 100.0051 L354.7879 100.619 L354.5844 101.2784 L354.6602 101.5499 L354.6691 101.6561 L356.7191 101.8045 L358.3635 104.4876 L354.6068 107.0672 L354.3261 106.618 L351.6009 108.4865 L350.6929 109.5641 L350.9875 109.7266 L349.5986 111.2758 L348.3103 112.4084 L346.2087 114.0076 L342.7894 116.7748 L340.0111 114.8721 L339.9421 113.5174 L339.4568 113.5467 L339.3305 114.3949 L338.2963 114.7558 L337.8099 116.3415 L337.1012 116.8237 L336.0485 117.6483 L335.4732 118.1739 L335.2149 118.7461 L335.0171 119.5229 L335.1929 121.1626 L334.9837 121.6212 L333.932 122.2755 L332.9383 126.485 L332.9113 128.6838 L331.0975 133.0944 L329.7363 135.491 L329.2674 135.9688 L327.2373 136.2925 L325.0682 136.9709 L324.0379 133.476 L326.2696 132.2502 L328.3271 130.2138 L330.73 126.0859 L332.8444 121.3812 L333.1909 120.4538 L332.3007 120.1283 L330.4646 119.6078 L329.6307 119.4139 L327.9325 118.3498 L326.9815 117.4421 L326.4016 118.016 L325.8178 118.6039 L324.505 119.7304 L323.3807 118.9878 L321.715 117.8114 L318.8229 115.9328 L322.7951 111.5028 L323.046 108.9076 L323.1452 106.1183 L323.3662 103.7894 L324.0058 102.9895 L324.8231 102.0654 L324.2367 101.4791 L323.4192 100.9282 L322.2871 101.8945 L321.5147 101.0221 L321.2265 100.6263 L320.6825 99.8798 L322.1398 98.547 L323.2594 97.4986 L323.6558 98.2558 L324.1208 99.3615 L324.3972 99.3238 L324.3218 98.5571 L326.5336 97.9162 L327.6646 97.7026 L328.1421 99.5627 L324.6736 100.6685 L325.404 101.6286 L326.0309 102.4527 L325.3272 103.0935 L324.9376 104.74 L324.6043 106.3583 L324.2086 108.233 L324.0581 110.8592 L324.6829 111.9716 L324.7441 112.5383 L325.8473 113.8103 L325.6175 114.5613 L326.3838 116.0171 L327.4771 116.174 L328.8455 116.582 L332.2887 112.6299 L332.7376 112.1144 L334.1874 110.8755 L335.8325 109.4399 L339.0705 110.5208 L338.382 111.1841 L339.1117 111.8997 L338.8114 113.2892 L339.935 111.12 L341.3442 109.3775 L341.8437 108.9087 L341.8765 108.6153 L340.5978 109.5146 L340.2474 109.4275 L341.2023 108.1251 L340.5957 107.8165 L343.9243 103.8979 L343.8443 102.7371 L344.9874 101.2137 L344.6262 100.1221 L346.3244 97.4575 L347.7393 97.2377 L348.9934 96.8684 L354.7957 92.4904 L358.7246 89.2563 L365.088 84.0186 L361.3225 79.1698 L369.1794 71.2975 L367.7495 69.0167 L367.5987 68.7929 L373.6405 62.3966 L373.2385 62.0143 L373.5679 60.9804 L373.5498 60.1882 L373.9347 60.2647 L373.8561 58.5477 L373.6576 56.9307 L373.2534 56.9138 L372.4038 56.8576 L368.9652 58.153 L368.2555 58.1119 L367.7638 58.1103 L367.2219 58.1457 L367.0896 59.034 L367.0127 61.0664 L366.0393 60.6082 L365.6124 59.4006 L366.8583 58.8546 L367.175 56.3111 L365.2908 56.147 L364.5422 56.2757 L363.5261 56.6361 L359.1074 63.2872 L351.7926 69.91 L352.305 71.0794 L347.3294 75.8271 L345.7782 75.0293 L345.4431 73.851 L345.0215 74.0247 L345.22 75.501 L343.9987 76.0767 L343.5696 76.8536 L343.0484 77.3248 L343.1476 79.1243 L342.4532 79.8686 L342.8872 81.3202 L341.4381 82.6863 L340.2961 80.7462 L339.6052 80.8446 L341.1542 84.827 L341.4232 87.5114 L341.0137 89.5216 L340.754 89.9208 L340.2861 90.6409 L338.5197 88.467 L335.9268 86.6928 L334.3685 86.007 L332.2844 85.0901 L331.8799 84.9316 L331.5554 84.9445 L322.0747 85.3251 L319.1217 92.1947 L312.135 94.4523 L309.8356 96.1921 L309.308 97.5475 L309.3251 98.7117 L309.768 99.8022 L310.2451 100.2941 L310.1171 100.4526 L309.8616 100.768 L308.9359 101.8889 L308.1553 102.2003 L305.4724 105.717 L304.4855 104.8108 L304.2663 104.5719 L304.0226 104.1722 L302.3679 102.858 L303.4779 102.0255 L304.2304 101.2891 L304.9779 98.5515 L307.7401 96.2394 L308.7616 97.8758 L308.7651 97.5256 L308.9821 96.8527 L309.2586 95.9954 L310.1064 95.1741 L309.8641 94.7086 L309.2934 93.6108 L308.267 92.9255 L306.1857 94.4827 L303.0314 96.5772 L300.6285 98.9461 L299.753 99.3609 L298.8319 99.8135 L298.4305 100.0108 L298.1203 100.565 L295.9942 102.5763 L294.4903 105.9216 L292.0785 111.4719 L290.7237 111.3854 L288.2553 111.1971 L283.6527 116.0183 L282.5668 117.383 L282.4982 118.6877 L283.8181 133.1444 L282.7472 138.0456 L287.5822 146.2402 L288.5891 151.1749 L294.1356 154.7831 L298.7109 155.4406 L299.6537 160.2796 L298.5757 160.9821 L298.2491 158.0472 L296.9736 156.7552 L295.7747 156.1235 L293.2572 155.4446 L288.4998 152.8593 L287.2314 151.4486 L286.2723 149.4905 L285.5849 145.926 L284.9086 143.8892 L282.4171 144.8115 L281.9777 143.8386 L281.613 143.2007 L283.1681 141.8276 L281.2209 137.9332 L281.7468 133.3529 L276.989 134.4416 L273.7151 129.8192 L275.9423 128.4595 L275.6758 127.2381 L276.8193 126.5485 L277.1722 125.7419 L279.5538 125.5845 L279.4901 125.3001 L279.2094 124.0495 L277.7525 124.5975 L275.9669 124.2057 L273.5234 122.5144 L273.4921 121.4492 L270.0147 121.2924 L263.367 121.6302 L261.1011 118.4774 L255.0999 119.8062 L254.0343 119.2548 L254.5659 116.7512 L255.1419 114.4252 L256.1185 114.4219 L257.9614 114.6338 L258.0279 114.2021 L256.3995 114.0357 L255.7239 113.7923 L255.1974 113.5394 L255.2194 112.2105 L252.8379 111.3353 L251.0455 109.0183 L251.941 107.8019 L252.4284 108.0233 L254.6875 105.7973 L254.6875 104.5787 L256.5383 102.5898 L257.347 102.0581 L257.4811 100.3138 L257.6099 98.6234 L259.3294 98.0708 L260.9577 98.6909 L262.1094 98.7684 L263.1262 98.6931 L263.8264 98.6026 L265.3598 99.3958 L265.6913 100.5763 L261.6686 101.4155 L260.4817 102.704 L259.113 103.4713 L259.0632 103.7861 L259.8712 109.3528 L260.566 112.9823 L262.2609 116.8108 L263.018 117.5601 L264.8617 119.3852 L268.6937 120.4667 L268.7973 119.0688 L274.3032 111.3061 L274.6362 106.7861 L274.8486 104.0323 L274.9636 102.5392 L277.7258 101.7747 L279.5189 100.6359 L279.5033 100.2991 L279.4908 100.0327 L279.4698 99.5757 L277.2943 94.0504 L275.9569 92.7361 L274.1634 91.7422 L274.0183 89.1253 L273.0559 88.7374 L272.4226 85.7411 L273.0591 83.317 L275.546 83.6515 L277.1085 83.8089 L277.3188 83.5217 L277.4099 83.3974 L278.6615 83.3232 L278.8002 82.7279 L277.8713 81.2724 L281.3366 81.1521 L289.476 83.8561 L289.8208 85.2548 L291.1844 85.1362 L293.3917 84.6348 L294.7803 88.5148 L295.5488 88.0595 L294.1758 84.3025 L299.8198 86.5557 L300.2692 86.5113 L303.1076 86.0391 L306.3273 82.9162 L307.3634 83.4694 L308.2916 84.0709 L308.6449 82.7116 L308.1325 81.5439 L310.4408 79.6809 L310.591 79.3739 L310.5515 79.3256 L310.8656 78.3187 L313.5097 72.8643 L315.2747 73.729 L315.22 72.3274 L317.0586 72.6732 L319.602 70.281 L323.9582 71.8726 L322.793 73.3653 L323.0296 74.439 L327.8489 73.2382 L333.2261 70.9939 L334.6752 72.9357 L336.3274 74.7724 L336.7348 74.3373 L338.8474 72.0801 L341.3773 69.7335 L340.1278 66.2708 L338.6122 62.6401 L336.8248 58.5465 L334.8719 58.6882 L335.6404 51.9133 L334.9769 49.8448 L333.2151 49.5806 L331.4092 49.8893 L330.0441 50.1974 L327.5334 50.2856 L325.3311 50.858 L322.7766 51.6508 L321.1909 50.9901 L317.8876 50.6376 L316.8743 50.682 L316.8743 49.2725 L316.346 48.9638 L315.3761 47.4812 L316.0454 45.5431 L316.2218 43.6753 L315.3409 40.7509 L315.517 38.3197 L316.6093 36.9804 L316.8558 35.2542 L316.7149 33.5977 L317.4197 32.3647 L317.2436 31.3076 L316.6445 30.9904 L316.7501 29.8979 L317.5254 30.039 L317.4902 27.9248 L318.0188 26.6563 L317.8072 24.9295 L320.4218 22.777 L320.1848 19.5022 L319.2388 17.7281 L319.2509 15.4602 L318.8193 13.4421 L317.841 13.7716 L317.1394 16.5714 L316.8917 16.8278 L316.1144 16.4482 L316.7509 15.1926 L316.9142 14.032 L316.7199 13.1266 L317.3169 11.9367 L317.207 10.8104 L317.7353 9.4715 L316.3965 9.0132 L315.691 10.1255 L316.0155 11.3244 L315.7269 11.6207 L314.9204 11.0989 L314.6443 10.0293 L313.905 9.9928 L313.1415 9.5508 L312.4246 8.3817 L311.3224 8.3789 L311.1111 7.3571 L310.8318 6.6047 L310.142 6.2887 L309.3614 6.4422 L307.6661 5.5897 L306.6337 7.0866 L305.931 7.7823 L305.8061 8.8822 L305.9449 9.5036 L305.5012 9.6756 L305.0505 9.4361 L305.1814 6.8836 L304.8391 6.0885 L304.0756 4.5539 L305.7257 4.5252 L305.3393 2.9416 L306.6803 2.6891 L307.8942 2.9 L307.6864 2.4648 L306.2832 2.1369 L306.3465 0.7968 L306.0722 0.5342 L305.4873 0.0 L305.3059 0.4808 L305.8246 2.1088 L304.7075 2.4445 L304.3908 0.6883 L302.7354 1.2973 L302.0139 0.789 L301.9189 1.0561 L301.8958 1.7573 L302.1719 2.7864 L302.4248 3.1143 L302.0961 3.761 L302.327 4.7074 L301.3899 4.5235 L300.7765 4.1214 L300.7342 4.7996 L301.1021 5.5728 L300.0728 5.4086 L300.251 4.6669 L300.2628 4.0517 L299.8718 3.4477 L299.1126 2.7234 L298.2672 2.9563 L297.0882 2.0976 L296.3581 1.8608 L296.0707 1.7691 L295.1795 2.0739 L295.415 2.706 L295.1161 2.936 L294.8457 2.8787 L294.7998 2.2522 L293.6094 1.6595 L293.0729 1.6387 L292.4766 2.6976 L290.6366 2.4963 L289.2967 2.62 L289.1996 2.8511 L289.613 3.1002 L291.4876 3.5017 L290.6479 4.1113 L290.6437 4.605 L291.441 5.7269 L292.2728 6.1582 L293.725 5.935 L297.719 6.986 L299.0492 8.2805 L299.9878 8.2018 L300.6474 7.1862 L304.1745 8.019 L304.2564 9.3101 L304.1173 10.5371 L301.1618 12.2719 L301.1565 12.8814 L300.5926 14.15 L299.8312 14.3536 L299.1488 13.5281 L298.3419 13.4511 L298.2213 14.1236 L297.3703 14.7444 L295.976 15.2612 L295.0126 16.7806 L294.311 16.8149 L294.0235 15.9292 L293.1263 17.1652 L292.8406 19.1884 L293.0167 20.3867 L293.8624 20.6684 L297.4112 19.3925 L298.0342 19.8019 L299.9063 19.0169 L300.0845 17.9535 L300.5328 17.9187 L301.7446 18.9438 L302.8333 18.2066 L304.1866 18.4484 L306.1598 18.6598 L307.9326 19.4757 L309.2447 19.7018 L310.5376 19.5106 L311.4804 18.977 L312.4047 18.7875 L312.9192 18.8246 L313.2988 19.0664 L313.8392 19.5691 L314.2131 19.9481 L314.0808 20.4148 L313.0618 20.782 L312.3097 20.2534 L309.4023 20.277 L309.0686 21.5473 L308.8925 22.6747 L308.505 24.1901 L305.5098 27.6077 L303.0435 28.8762 L301.7396 30.0036 L299.273 30.9201 L299.1698 32.5817 L299.9187 34.7841 L299.6103 36.1055 L298.5974 36.634 L296.7032 35.0923 L295.426 35.0045 L294.8094 33.0664 L293.6642 33.9475 L293.8403 37.1626 L293.2679 37.6911 L292.5631 37.2064 L291.462 35.5769 L288.9954 35.6208 L287.4979 34.9601 L285.6482 34.828 L282.9614 35.8412 L279.8782 32.8904 L277.1032 31.1282 L276.4425 29.587 L276.1782 28.838 L275.959 28.3865 L273.4807 28.9578 L270.5331 29.4593 L268.8691 29.3806 L268.0886 30.8195 L267.8427 30.7115 L263.0063 38.4192 L265.7785 40.7498 L269.2213 43.0652 L272.085 46.8126 L269.9219 47.3001 L269.8002 48.8232 L268.8556 48.6405 L268.3682 48.0316 L265.5348 47.4221 L265.4131 46.8739 L263.7374 46.0513 L260.5383 45.655 L259.0305 44.0402 L258.2841 41.1153 L257.2552 42.9893 L256.624 43.6005 L256.4728 44.3927 L255.6585 44.2583 L254.7509 44.9032 L253.8052 43.5527 L249.2203 44.8324 L245.7928 45.8073 L245.7928 47.5441 L244.7265 50.1029 L242.5328 51.9313 L240.6803 53.7198 L239.8136 52.4947 L238.9761 53.1345 L238.4581 53.9571 L239.2198 54.81 L237.1482 56.0896 L237.5135 56.5315 L236.9881 57.2782 L237.7306 57.6419 L238.974 56.2566 L240.4309 55.6173 L240.5526 55.9445 L242.1126 58.9884 L242.324 60.7853 L241.9714 62.7233 L243.3888 64.1738 L243.4162 64.7669 L243.0412 66.1927 L242.7723 67.9805 L240.6287 68.2605 L239.1458 71.7664 L238.8384 73.5137 L239.6461 74.457 L238.5186 75.6551 L237.6729 74.7741 L237.5061 72.549 L235.952 70.782 L234.5574 70.5796 L234.1845 74.5273 L232.0349 73.7875 L230.9779 72.7305 L230.2027 72.8008 L229.674 73.7875 L228.9742 75.8114 L226.6859 76.3539 L225.6972 74.3052 L223.7294 74.5059 L223.5287 73.648 L223.5675 71.6854 L227.4522 71.2042 L227.4753 70.4907 L228.6028 70.3328 L228.332 68.5062 L227.661 68.1689 L227.4824 66.8977 L227.1722 66.7094 L226.2507 66.7245 L226.1426 66.3085 L225.7708 66.29 L225.4965 66.8387 L225.0884 66.8314 L224.9329 66.313 L223.8613 65.8267 L223.2544 64.7849 L223.3714 64.1805 L223.9962 63.8224 L225.0656 63.7448 L224.9785 63.5177 L224.1093 62.9144 L220.7636 63.109 L218.4632 63.2894 L216.9298 62.6131 L215.1932 62.5226 L213.1322 62.7452 L212.5374 63.2579 L212.5765 63.6183 L212.4367 63.9916 L211.7899 63.5048 L211.4298 63.8382 L211.8432 64.3649 L212.214 64.3464 L211.8685 64.9873 L210.0832 65.4781 L209.2831 65.4315 L209.4563 66.5317 L209.25 66.9123 L208.3563 66.6919 L207.8884 66.8718 L207.8497 67.492 L209.07 67.705 L209.6897 67.4453 L210.0633 66.8583 L210.4699 66.8651 L210.9933 67.8951 L210.5799 68.3617 L210.1266 68.3218 L209.8964 68.6653 L209.1365 68.4916 L208.7498 68.7985 L208.7099 69.5586 L207.5366 69.4316 L207.3832 69.8515 L207.4032 70.665 L207.1758 72.3207 L206.1814 73.0116 L206.423 73.7785 L206.6297 74.3721 L206.8264 75.1952 L207.0463 75.6551 L206.6532 75.5286 L206.2931 75.275 L205.8929 75.5488 L205.3397 75.1418 L205.3464 74.7286 L205.9399 74.4284 L205.6798 73.8088 L205.0063 73.8218 L204.7462 73.3686 L204.4997 73.8752 L203.8796 73.9286 L203.8262 74.6887 L204.4065 74.7421 L204.4331 75.4218 L203.6063 75.2885 L203.6864 76.0222 L204.3997 76.0087 L205.0796 75.6219 L205.8132 75.9221 L205.6599 76.5956 L206.3831 76.7187 L207.1399 77.5288 L206.7798 77.7054 L205.6396 77.1623 L204.5797 76.7553 L204.1389 77.3478 L203.5398 78.7819 L203.4195 81.1819 L201.2063 81.7289 L198.1395 81.2353 L196.2773 79.0242 L191.3801 72.6979 L189.5254 63.0679 L174.3028 60.4159 L163.6136 62.6434 L149.068 75.9148 L141.9603 85.0924 L141.7252 89.7308 L137.3011 91.9569 L131.7919 93.8486 L131.8474 97.4384 L138.6089 102.8642 L145.3423 106.7591 L143.3948 114.1605 L137.374 119.8388 L125.5708 124.8841 L116.6319 128.8277 L109.7964 134.9593 L114.2134 140.1763 L113.5876 142.2284 L106.8748 138.9938 L98.4418 141.0531 L102.8197 158.0967 L100.9796 173.6511 L101.0258 179.3175 L98.6752 178.4627 L94.2131 187.562 L84.072 187.0736 L78.5344 190.7847 L75.262 192.343 L74.8838 190.4734 L76.2638 187.7575 L80.1592 184.1515 L82.993 183.5204 L88.1058 176.8729 L89.0853 169.7273 L90.354 163.7842 L94.3831 157.7516 L99.4601 152.4018 L97.1208 146.0879 L94.8951 142.7932 L90.4771 144.8896 L86.174 140.8553 L82.0897 141.2599 L81.7335 142.5987 L80.4086 143.6818 L78.8863 142.8652 L77.9958 145.4028 L77.4151 146.2071 L76.6765 146.5628 L75.5825 146.6173 L74.7802 145.7968 L74.8621 145.6141 L75.7191 145.5871 L76.8228 145.4978 L76.6157 143.5997 L74.9016 142.932 L76.0368 141.5966 L79.0588 140.595 L78.4465 138.7026 L79.5594 136.8383 L81.535 136.0874 L83.1442 133.7986 L83.3925 133.3231 L83.3356 132.8887 L84.4581 133.3748 L84.9131 133.3074 L84.8409 132.8055 L85.1458 132.7644 L85.4407 133.3125 L85.7666 133.0179 L85.4667 132.6711 L85.3891 132.1124 L86.0512 132.009 L86.201 131.5953 L86.465 131.4346 L86.7909 131.5279 L86.8169 131.176 L86.8115 130.5139 L86.4597 130.4156 L86.3821 130.2295 L86.7855 130.1418 L87.2047 129.8259 L87.4476 129.3763 L87.3541 128.7642 L86.9104 128.8299 L86.4422 129.351 L86.0199 129.3246 L86.0512 129.7484 L85.7926 130.2402 L85.4357 130.2503 L85.4098 130.6848 L84.8149 131.2334 L84.706 131.4661 L85.0373 131.7398 L84.5043 131.7763 L84.489 131.4194 L83.8942 131.4037 L83.9614 131.2126 L84.1891 131.0417 L83.9497 130.1907 L83.3562 129.7742 L83.0456 129.8209 L82.7457 129.5983 L82.3216 129.8726 L82.0167 129.8293 L80.9715 128.921 L80.9096 128.7085 L80.4389 128.4399 L79.5074 128.776 L79.373 128.7085 L80.356 128.0571 L80.4954 127.7727 L80.3716 127.6693 L80.1336 127.8396 L79.8127 127.943 L79.7921 127.6901 L80.113 127.5552 L80.1489 127.3534 L79.9678 127.3331 L79.2851 127.54 L79.2819 127.3073 L79.5594 127.2966 L79.7351 126.7744 L79.9888 126.8003 L79.9888 126.5676 L79.7455 126.4951 L80.2475 125.8537 L80.5837 125.7396 L80.7491 125.4294 L81.101 125.2585 L81.3899 125.6182 L82.5942 124.4654 L82.0822 123.8662 L81.788 124.0416 L81.6023 124.4598 L80.9049 124.2636 L80.7398 123.7886 L80.8327 123.3137 L81.2354 123.1226 L81.3696 123.2462 L81.6332 123.0399 L81.8474 123.0242 L81.8577 122.6369 L81.3931 122.7196 L81.0675 122.9523 L80.7993 122.9933 L80.1589 123.3446 L79.4825 123.6953 L79.0229 123.778 L78.9663 123.6133 L79.9913 122.8539 L80.1873 122.6628 L80.1098 122.5133 L80.2286 122.2963 L80.4197 122.3531 L80.8302 122.0434 L81.0419 122.1052 L81.1401 121.9349 L80.9181 121.8264 L80.6676 121.7078 L80.43 121.9607 L80.3062 122.162 L79.9991 122.1979 L79.8312 122.7196 L79.3662 122.9157 L78.9531 123.2771 L78.8318 123.3654 L78.5945 123.3137 L78.5814 123.0349 L78.4835 122.9056 L77.9723 122.9264 L77.4507 123.2828 L77.3063 122.6319 L77.6884 122.6218 L78.3337 121.9607 L78.1324 121.6769 L77.7862 122.0793 L77.5798 122.0276 L77.492 121.3672 L77.6108 120.7781 L77.9826 120.4223 L77.0946 120.6494 L76.689 120.981 L76.2891 120.8298 L76.7847 120.2672 L76.7125 119.5235 L76.1649 119.6011 L75.9689 119.8956 L75.9636 120.2362 L76.3663 120.1795 L76.4232 120.3239 L75.9842 120.5049 L75.7312 120.8866 L75.5352 120.8973 L75.7882 119.9934 L75.1994 120.2413 L74.3889 120.5819 L74.6006 121.1243 L73.9758 121.6819 L73.165 122.2238 L73.1341 121.9709 L73.8314 121.5527 L73.857 120.768 L74.1256 120.3599 L75.3442 119.9985 L75.9895 119.3532 L76.351 119.0384 L76.5524 118.4808 L76.8107 118.0519 L76.6452 117.4994 L75.5249 117.2774 L75.3698 116.9367 L75.8269 116.1312 L75.9895 115.2948 L74.9105 115.4314 L73.3561 115.1166 L72.4887 115.3567 L71.748 115.0003 L71.3424 115.3775 L71.0016 115.0368 L70.6195 115.3465 L69.9278 115.0469 L69.6798 115.4702 L68.895 115.5736 L68.9569 116.2347 L69.5767 116.2656 L69.1405 116.7664 L68.5232 116.8541 L68.2653 116.369 L68.6161 116.1829 L68.5851 115.966 L67.9967 116.1104 L68.007 116.8749 L67.3072 117.0969 L66.8297 117.3707 L66.6266 117.912 L66.0783 118.057 L65.7428 118.6146 L64.741 118.4701 L63.9149 118.2222 L62.4797 118.7905 L61.7258 118.6146 L61.354 118.057 L60.9925 117.1486 L60.7986 117.129 L59.1955 116.3246 L58.3487 115.5995 L57.9979 114.7012 L58.1424 114.2055 L58.638 114.0093 L59.1129 114.36 L60.6723 114.133 L61.1992 113.2555 L60.91 112.4135 L60.1714 111.7164 L60.1664 111.4483 L59.9857 111.2521 L60.0013 110.1622 L59.9391 109.4241 L60.1821 108.9492 L59.6914 108.9385 L59.0407 109.2589 L58.1114 109.8266 L58.654 108.3168 L58.0186 107.1313 L59.2784 105.8715 L59.4331 105.9441 L59.8668 105.4275 L59.7441 105.2167 L59.2371 105.3448 L58.8909 104.9064 L59.1905 104.1627 L59.4901 103.8732 L59.4901 103.0885 L58.9788 103.5893 L58.3904 103.455 L58.1837 103.2487 L58.2559 102.8872 L58.4882 102.686 L58.4633 101.6084 L58.2922 101.7821 L57.9357 101.3897 L57.9047 100.6567 L57.8069 100.4037 L57.9151 100.0524 L57.8894 99.7376 L58.0805 99.5515 L58.4263 99.7735 L58.9425 98.9168 L58.9891 98.4671 L58.7052 97.8477 L57.972 98.2608 L57.2337 97.7701 L56.0977 98.3024 L55.2613 97.5896 L54.8842 96.7065 L54.4662 95.2404 L54.3729 94.7497 L53.6475 94.6974 L52.9239 95.6114 L52.3849 95.3 L52.1472 94.6923 L51.5712 94.6552 L51.2756 93.9897 L50.2612 94.4439 L50.722 94.9588 L50.4277 95.1516 L49.6881 95.1201 L49.4028 95.6486 L49.0516 96.5463 L48.4415 96.8161 L48.0081 96.1449 L48.8695 95.7486 L48.7794 95.4265 L48.4624 95.3051 L48.7424 94.9408 L48.4098 94.4281 L47.4165 94.486 L46.8408 94.9672 L45.1185 95.2787 L44.6218 94.9194 L44.8282 94.1482 L44.7065 93.8261 L44.4002 93.8469 L43.7185 94.4439 L43.0635 94.1532 L43.0625 93.9419 L43.5179 93.4826 L43.4915 93.0177 L43.7822 92.5843 L44.3739 92.2571 L44.2312 92.0137 L43.5997 91.8439 L38.4915 93.8997 L39.2187 88.9246 L36.9186 87.8026 L35.5446 95.0274 L34.832 95.8065 L31.0757 90.5363 L27.6257 89.0337 L24.3775 91.0305 M49.7198 96.4833 L50.1001 95.9864 L50.8554 95.5957 L51.1884 95.9071 L51.0034 96.4041 L50.9454 97.0326 L50.7341 97.8353 L50.3377 97.5874 L49.9204 97.6453 L49.7198 96.4833 M53.5867 96.8212 L53.7454 96.5677 L54.0887 96.5041 L54.4003 96.7104 L54.1993 97.5132 L53.9247 97.4232 L53.5867 96.8212 M72.0589 132.0917 L72.4211 131.9365 L72.7004 131.5178 L73.1608 131.0574 L73.0729 130.7573 L73.0106 130.4881 L73.4763 130.3279 L73.9157 130.8557 L73.4347 131.0833 L73.4504 131.7713 L73.9417 131.678 L74.0089 131.4037 L74.4693 131.2019 L74.5159 131.9472 L74.0246 132.2833 L73.5382 132.1484 L72.0796 132.2934 L72.0589 132.0917 M72.974 243.8004 L73.6457 242.6863 L76.0415 242.1981 L78.8496 241.725 L80.1774 241.4502 L81.2611 243.8892 L80.399 244.6752 L79.2694 246.2089 L77.1938 248.1776 L75.0193 249.8484 L73.7094 250.0709 L73.1049 246.7146 L72.974 243.8004 M74.0039 130.2919 L74.9194 129.6399 L75.2452 129.9608 L74.6607 130.116 L74.2313 130.483 L74.0039 130.2919 M75.3029 122.2755 L75.3182 121.868 L75.4939 121.7544 L75.654 121.9349 L75.9792 121.7387 L76.4439 121.723 L76.3716 122.0226 L76.0155 122.4357 L75.6487 122.1828 L75.3029 122.2755 M76.0006 129.102 L76.4403 128.7608 L76.5435 128.8693 L76.3521 129.1745 L76.3314 129.4488 L76.0006 129.102 M76.4659 127.0482 L76.8021 126.7278 L77.2625 126.2882 L77.6094 125.8948 L77.847 125.838 L77.9712 126.0864 L77.7748 126.2624 L77.7748 126.7227 L77.4333 126.9088 L77.3194 127.0588 L77.0298 126.893 L76.7609 127.2915 L76.5954 127.3742 L76.4659 127.0482 M76.8075 128.5641 L77.397 127.8452 L78.0075 127.4675 L78.2146 127.7159 L78.0591 127.7361 L77.4333 128.3882 L76.8904 128.631 L76.8075 128.5641 M77.5525 131.5127 L77.5834 131.3003 L78.2455 131.0366 L78.5867 130.845 L78.9076 130.8191 L78.9233 131.0108 L78.6696 131.2019 L77.5525 131.5127 M77.5628 125.6362 L77.7439 125.0932 L77.9353 125.114 L77.9815 125.3777 L78.7059 125.1399 L78.835 124.7931 L79.4146 124.9016 L79.5594 125.1551 L79.844 125.0932 L79.8696 125.3209 L79.5594 125.4552 L79.6679 125.5896 L79.5903 126.1275 L79.7714 126.2157 L79.7351 126.3551 L79.3473 126.2416 L79.2491 126.3967 L78.7991 126.531 L78.9542 125.9465 L78.7005 125.9931 L78.4109 125.6261 L78.623 125.512 L79.0111 125.7396 L79.1972 125.6312 L79.13 125.2534 L77.5628 125.6362 M79.1225 269.313 L80.7569 267.6765 L83.7362 267.2872 L85.3543 268.9883 L84.928 271.0084 L87.6704 272.496 L88.531 272.0483 L92.5818 277.5867 L89.134 279.9736 L88.0112 278.6624 L86.9894 277.8018 L85.9317 277.3895 L84.8384 276.6727 L84.1752 276.9952 L83.1356 276.1171 L83.0712 275.4526 L79.1225 269.313 M79.7714 132.4176 L80.061 131.7763 L79.9835 131.6212 L79.9216 130.9743 L80.806 131.0108 L80.8526 131.5228 L80.5733 131.7505 L80.8939 131.8432 L81.0127 132.1951 L80.5111 132.5053 L79.8696 132.6144 L79.7714 132.4176 M81.075 131.2075 L81.5457 130.9332 L81.6439 131.2227 L81.8819 131.4402 L82.3423 131.678 L82.3216 132.1434 L82.8026 132.4851 L82.7923 132.9713 L82.2544 132.6869 L81.1163 132.0248 L81.3283 131.8174 L81.075 131.2075 M94.5343 287.4914 L94.9947 285.9242 L96.9042 282.1908 L99.5166 277.6749 L99.967 277.0738 L107.6237 287.2515 L116.4861 299.3028 L109.1606 304.22 L107.4757 301.6333 L106.1639 299.8173 L101.7687 300.6874 L100.8348 298.4692 L99.7682 297.5283 L97.5634 296.1482 L96.4523 295.2163 L95.174 293.1553 L95.4665 291.2904 L94.5343 287.4914 M105.8445 323.8771 L105.8996 323.6603 L105.9864 323.3194 L106.0939 322.8959 L107.7148 323.0172 L109.7438 321.6361 L109.8537 322.9492 L108.8081 324.1972 L109.484 324.5977 L111.4814 324.6718 L112.3228 323.6884 L113.3172 324.7735 L114.2095 324.6162 L115.4091 324.678 L117.6374 326.1574 L123.0498 329.1808 L121.7451 331.3448 L121.6391 331.5206 L121.458 331.8211 L120.1086 331.3824 L119.6799 332.1215 L119.5504 332.3445 L118.7299 333.7924 L115.5458 332.1199 L114.8068 332.085 L112.464 329.884 L111.3163 329.5694 L110.6435 328.6281 L109.6655 328.736 L108.1716 327.2891 L107.4248 327.4105 L106.0017 325.1195 L105.8445 323.8771 M114.1355 248.6327 L114.1678 248.536 L114.4332 248.4793 L114.9836 248.2383 L115.1672 248.1821 L115.1814 248.1888 L115.2405 248.1703 L115.4412 247.968 L115.5703 247.7174 L115.5806 247.7135 L115.6062 247.6202 L115.7247 247.6011 L115.8553 247.5545 L115.9499 247.4798 L116.1516 247.4422 L116.3758 247.4422 L116.6085 247.3961 L117.0898 247.1129 L117.3189 246.9168 L117.6463 246.7854 L117.7466 246.7213 L117.9483 246.6275 L118.2749 246.6623 L118.3372 246.6629 L118.689 246.3955 L118.7072 246.3882 L119.2038 246.1089 L119.6016 245.8511 L119.7524 245.7213 L119.8268 245.4196 L119.9147 244.7797 L119.9634 244.56 L119.8798 244.0678 L120.0186 243.9251 L120.4839 243.6347 L121.0254 243.329 L121.4502 243.2009 L121.589 243.1346 L121.8796 243.0695 L122.2521 243.0515 L122.5517 243.0026 L122.7264 242.9425 L123.5891 243.1037 L124.2438 243.1245 L124.7016 243.02 L125.1923 242.7043 L125.5783 242.5509 L125.7259 242.52 L125.7633 242.5121 L125.8814 242.6717 L125.9127 243.0734 L126.1888 243.3133 L126.5862 243.356 L126.6556 243.3487 L127.0903 243.1891 L127.1867 243.1689 L127.5326 243.3672 L127.8407 243.7358 L128.6497 244.8476 L129.86 246.6219 L130.0294 246.8432 L130.325 247.1629 L131.0017 247.841 L131.1195 248.1304 L130.9697 248.3012 L130.6847 248.4607 L130.5349 248.4411 L130.2877 248.472 L130.1753 248.6877 L129.7252 248.4321 L129.4338 248.3596 L129.4068 248.2568 L129.3748 248.2472 L129.3876 248.1826 L129.3239 247.9646 L129.2791 247.9624 L129.173 247.9759 L128.8767 248.154 L128.8173 248.2753 L128.7934 248.6501 L128.7756 248.7343 L128.6454 248.8186 L128.0623 248.9843 L127.9218 248.8091 L127.9812 248.5843 L128.0523 248.472 L128.0523 248.3411 L127.7617 248.3411 L127.6194 248.4158 L127.4593 248.3787 L127.1156 248.5096 L126.8427 248.3787 L126.6292 248.3883 L126.493 248.4158 L126.2913 248.4158 L126.1251 248.3411 L125.9355 248.3225 L125.8465 248.463 L126.0184 248.6034 L125.9294 248.7343 L125.7636 248.8091 L125.5797 248.8372 L125.4908 248.931 L125.5146 249.3428 L125.5619 249.4462 L125.7398 249.3338 L125.9593 249.3428 L126.155 249.4271 L126.0483 249.6332 L125.9593 249.7456 L125.8761 250.008 L125.6747 250.1012 L125.5857 250.1951 L125.4256 250.2608 L125.3307 250.2608 L124.9749 250.1574 L124.7732 250.2046 L124.5835 250.1855 L124.4234 250.0827 L124.3761 249.9608 L124.453 249.8299 L124.3583 249.6147 L124.1093 249.5394 L124.3227 249.1462 L124.6074 249.4085 L124.803 249.3428 L124.892 248.9776 L124.8443 248.781 L124.7554 248.6501 L124.6013 248.6315 L124.4768 248.7905 L124.3106 248.8186 L123.9076 248.8001 L123.8659 248.6782 L124.0143 248.3596 L123.9549 248.2102 L123.7414 248.0978 L123.6112 248.1259 L123.5756 248.2944 L123.7058 248.5939 L123.9015 248.8843 L123.7535 249.0057 L123.7297 249.1181 L123.7891 249.4181 L123.6585 249.5209 L123.6585 249.699 L123.8247 250.0175 L124.1449 250.2512 L124.3583 250.317 L124.305 250.4479 L124.1804 250.5232 L124.0381 250.5788 L123.9549 250.6726 L123.8364 250.7288 L123.7357 250.9069 L123.5756 251.0001 L123.0181 251.1782 L122.7097 251.3002 L122.4905 251.1878 L122.6207 251.0001 L122.7986 250.9631 L122.852 250.7007 L122.9587 250.5136 L122.9943 250.3732 L123.2316 250.2046 L123.4095 250.1765 L123.4568 250.1951 L123.3678 250.1203 L123.2732 249.8394 L123.1309 249.6799 L123.0299 249.5209 L122.9708 249.3523 L122.8537 249.2647 L122.6862 249.4085 L122.7157 249.6428 L122.6862 249.858 L122.5314 249.9406 L122.3304 249.8394 L122.2827 249.6428 L122.3066 249.399 L122.2176 249.2119 L122.1287 248.781 L122.1404 248.5562 L122.2059 248.2102 L122.176 248.0096 L122.1902 247.8281 L122.1347 247.6573 L122.028 247.4798 L121.9035 247.3298 L121.7195 247.1798 L121.5356 247.1427 L121.2097 247.1612 L121.0909 247.1893 L120.9368 247.3579 L120.8301 247.4326 L120.7173 247.545 L120.4683 247.6669 L120.3736 247.7326 L120.2491 247.7792 L120.0356 247.9759 L120.0235 248.1725 L120.0214 248.1776 L120.0872 248.4141 L120.3683 248.695 L120.6586 248.7759 L120.8731 249.031 L121.0553 249.1091 L121.0471 249.1821 L121.2545 249.6175 L121.2101 249.8119 L121.2666 250.1372 L121.0759 250.408 L121.0258 250.5602 L120.8945 250.6344 L120.5618 250.9232 L120.5337 251.0754 L120.5928 251.2249 L120.5633 251.3844 L120.3971 251.4872 L119.84 251.253 L119.9296 250.9457 L119.7702 250.3586 L119.7393 250.1585 L119.5671 249.9889 L119.2231 250.008 L118.9445 250.2703 L118.7666 250.1855 L118.6837 249.9703 L118.7193 249.7361 L118.6776 249.6332 L118.4581 249.3338 L118.2863 249.2495 L118.1618 249.2681 L118.0565 249.1709 L117.9017 248.9776 L117.6288 249.1231 L117.4933 249.2422 L117.4385 249.39 L117.225 249.6428 L117.1894 249.8765 L117.1361 249.9518 L117.0767 250.1203 L117.103 250.2591 L117.373 250.8973 L117.3317 251.1968 L117.1062 251.4406 L116.9343 251.553 L116.8276 252.1052 L116.7209 252.1148 L115.867 251.8148 L115.867 251.5901 L116.0033 251.4496 L116.1278 251.4125 L116.199 251.2159 L116.2644 250.9721 L116.3534 250.3541 L116.4836 250.1951 L116.6615 250.0361 L116.7742 249.9046 L116.7326 249.7922 L116.4124 249.549 L116.2541 249.5602 L115.7976 249.7473 L115.6222 249.7889 L115.417 249.7355 L115.2722 249.6288 L115.3949 249.3282 L115.6062 249.1372 L115.4429 248.9422 L115.2739 249.0254 L114.5816 248.8456 L114.3436 248.8894 L114.1355 248.6327 M119.3952 240.3912 L119.407 240.2136 L119.4664 240.1384 L119.5315 240.1384 L119.7806 240.2507 L119.8517 240.3165 L119.9467 240.3726 L120.0179 240.494 L120.178 240.6946 L120.2833 240.7682 L120.3793 240.7845 L120.5515 240.9154 L120.6639 240.9716 L120.8418 240.9249 L120.8952 240.8407 L121.0731 240.7002 L121.4765 240.494 L121.684 240.5036 L121.9269 240.5693 L122.0337 240.5693 L122.2176 240.5221 L122.7929 240.7098 L123.0775 240.6064 L123.2198 240.6159 L123.4273 240.5036 L124.395 242.2868 L124.7426 242.8054 L124.485 242.9335 L124.1872 242.9953 L123.556 242.9863 L123.1978 242.8987 L122.9139 242.829 L121.7199 242.9981 L120.7614 243.3476 L119.798 243.9251 L119.745 243.8841 L119.6856 243.6875 L119.6621 243.5189 L119.6443 243.247 L119.6799 242.8447 L119.6678 242.47 L119.6087 242.2548 L119.5315 241.7772 L119.5198 241.5806 L119.4781 241.4025 L119.4899 241.2339 L119.4308 240.8783 L119.4248 240.5502 L119.3952 240.3912 M123.175 239.6411 L123.7531 239.1737 L125.4765 241.2182 L125.992 241.7003 L126.2898 241.5036 L126.5396 241.2564 L128.0018 242.143 L127.9524 242.3391 L127.4628 243.2914 L126.7979 242.9402 L126.5759 243.2964 L125.9088 242.6835 L125.7725 242.475 L125.7042 242.434 L124.5067 241.3295 L123.175 239.6411 M123.9609 238.4062 L123.967 238.3781 L123.9848 238.3405 L124.2395 238.4062 L124.3227 238.4439 L124.3516 238.4618 L124.4117 238.4995 L124.6013 238.4995 L124.7187 238.4601 L125.0699 238.35 L125.1706 238.2186 L125.2122 238.0781 L125.1528 237.8725 L125.3289 237.8809 L125.4079 237.8725 L125.4669 237.7972 L125.5324 237.6477 L125.627 237.5073 L125.817 237.0763 L125.9355 236.8982 L126.0184 236.7297 L126.0483 236.6926 L126.1489 236.6735 L126.208 236.6988 L126.2194 236.7516 L126.166 237.2477 L126.1276 237.4073 L126.1016 237.5163 L125.8209 239.4422 L125.7811 239.9636 L125.8095 240.3373 L125.7754 240.5221 L125.384 240.8407 L125.3011 240.6626 L125.0877 240.3631 L124.77 239.9934 L124.6533 239.7327 L124.617 239.5647 L124.5419 239.4175 L124.4117 239.2209 L124.2338 239.0051 L124.1093 238.7804 L123.9858 238.463 L123.9609 238.4062 M125.8988 239.7344 L125.9974 238.9849 L126.1906 238.0219 L126.3208 236.9825 L126.398 237.0016 L126.5463 237.1887 L126.7242 237.3668 L126.9494 237.732 L127.0266 237.9191 L127.1273 238.0691 L127.1035 238.3781 L127.1807 238.4528 L127.4119 238.5276 L127.5009 238.6495 L127.6966 238.6967 L127.7026 238.7523 L127.8083 239.2585 L127.7916 239.5299 L127.7069 239.7299 L127.3942 240.2693 L127.2757 240.4378 L126.309 241.4401 L126.2023 241.3087 L126.0305 241.2244 L125.9237 240.3912 L125.8988 239.7344 M128.0374 239.7704 L128.0641 239.5389 L128.1249 239.3861 L128.1609 239.3276 L128.1794 239.313 L128.2181 239.2832 L128.3743 239.2962 L128.4903 239.2462 L128.6148 239.2709 L128.7966 239.3563 L128.9553 239.4849 L129.2026 239.5299 L129.2798 239.5299 L129.4516 239.6327 L129.6295 239.8574 L129.5704 239.9794 L129.505 240.2507 L129.4577 240.644 L129.4694 240.8592 L129.416 241.0092 L129.4011 241.1249 L129.4637 241.2806 L129.5704 241.384 L129.849 241.8615 L130.0269 242.0582 L130.3386 242.534 L130.6022 242.8633 L131.1892 243.7156 L131.4678 243.9403 L131.8236 244.4364 L131.883 244.5673 L131.7168 244.7549 L131.6161 244.9325 L131.4678 245.092 L131.1472 245.6185 L130.5677 246.5865 L130.3585 246.9022 L130.1753 246.6837 L129.7159 245.9393 L129.3118 245.3421 L128.5387 244.2678 L128.343 243.9212 L128.2775 243.7437 L128.3252 243.6122 L128.5444 243.3785 L128.7401 242.9852 L128.8468 242.6852 L128.7817 242.3672 L128.4853 241.7396 L128.1 241.5283 L128.0762 241.3087 L128.0374 239.7704 M147.742 324.359 L148.8755 323.9585 L148.6845 323.626 L149.8795 322.9481 L149.3252 321.4271 L150.6124 320.8419 L151.1116 322.2213 L151.9185 323.8417 L149.4793 326.0529 L148.5304 326.441 L147.742 324.359 M153.9827 326.5876 L156.1586 324.5207 L156.8232 325.1009 L157.1495 325.826 L156.9684 326.2855 L159.1681 329.1622 L158.7814 329.4886 L157.7265 331.5897 L156.1102 329.6093 L154.9013 327.6632 L153.9827 326.5876 M197.7243 268.2883 L199.6419 268.2344 L200.494 268.2844 L201.6883 268.1759 L202.9663 267.8248 L205.1265 267.9254 L206.4141 269.5911 L207.6202 271.6191 L207.7942 271.5275 L207.9952 271.8994 L207.8415 271.9971 L207.8888 272.1095 L208.5206 273.1431 L208.9341 275.6233 L210.1152 282.3329 L204.4929 281.2459 L202.9101 280.3601 L201.646 279.4978 L198.8702 276.9227 L197.8662 276.0958 L197.7599 271.5247 L197.7243 268.2883 M229.6786 251.4339 L230.6606 249.9765 L232.4142 250.9119 L231.4789 252.2524 L229.6786 251.4339 M246.2667 334.2659 L249.9596 332.0457 L252.7094 328.5023 L253.4046 325.6087 L254.4435 323.5884 L255.0003 323.9304 L257.8258 326.0558 L257.5227 328.727 L248.6547 336.5939 L246.2667 334.2659 M249.3256 224.3688 L250.9135 214.9758 L255.9787 213.7267 L258.6292 213.693 L261.0933 213.8307 L262.8914 215.7495 L263.4891 216.5249 L266.9579 222.0258 L266.7089 226.4702 L263.8249 227.776 L261.1701 231.5393 L259.6709 229.7649 L257.9479 232.9608 L264.016 235.4857 L264.8748 238.9945 L264.3084 242.6745 L263.7552 244.5768 L260.5201 244.8364 L256.6279 244.2235 L261.0413 240.5817 L260.1775 240.249 L254.4968 243.1048 L252.1327 241.6553 L251.0778 241.062 L251.0063 239.1933 L252.9901 237.3662 L249.3256 224.3688 M250.2475 309.9111 L250.8139 308.7854 L256.2028 307.0346 L261.3406 306.4808 L264.8094 305.0277 L268.523 302.2467 L270.6274 301.0284 L272.841 298.7703 L275.9686 300.3302 L274.5039 301.9237 L273.2128 303.2404 L274.0343 303.8784 L273.2437 305.5034 L276.8805 310.1807 L274.5857 312.7942 L272.3735 310.9676 L270.6405 309.8195 L268.8328 309.3325 L268.0153 310.698 L270.4232 316.3255 L269.5721 318.5053 L272.7449 322.1803 L277.0939 325.402 L274.1165 332.6096 L273.9098 334.2255 L272.2341 338.9375 L267.609 333.6807 L270.996 329.2718 L268.9349 327.6722 L267.7833 328.1597 L266.8085 327.3178 L264.873 323.8687 L262.0606 324.9791 L260.3711 325.0071 L259.0035 321.645 L258.4993 320.9986 L257.7572 319.6028 L257.1413 318.917 L255.9516 319.2372 L254.3659 318.9092 L253.9582 318.3846 L254.1215 317.8504 L255.3347 317.232 L254.5022 315.8997 L252.4686 316.1676 L251.8979 315.1061 L251.4877 313.2244 L251.4261 311.9427 L250.2475 309.9111 M263.8434 171.2452 L264.6574 168.5359 L265.4508 166.719 L266.9035 163.4948 L267.721 162.5298 L266.6373 161.2462 L268.6791 158.2007 L272.2027 160.3509 L273.8671 156.3398 L274.3723 156.3398 L277.4156 157.0148 L282.5007 160.7432 L283.1838 164.7638 L282.184 166.0322 L282.5587 168.3426 L280.3326 170.2932 L279.8071 170.7541 L283.9711 174.8071 L280.4358 176.8808 L279.2183 178.9258 L277.3668 180.2273 L275.0269 181.3596 L271.245 182.7179 L268.4845 183.2405 L265.8461 181.5175 L264.038 175.1471 L263.8434 171.2452 M288.1614 66.141 L288.393 65.1369 L289.0754 65.3814 L289.6162 65.2144 L290.5042 65.2656 L290.9418 65.6777 L290.6718 65.9352 L291.753 65.9481 L291.933 66.5272 L290.6458 66.5272 L289.835 66.6818 L289.011 66.7077 L288.7278 66.2439 L288.1614 66.141 M289.1174 319.9949 L290.2662 317.6336 L290.8803 316.1766 L291.8576 316.4872 L293.6019 314.6854 L296.626 309.8661 L295.1638 310.8064 L293.6368 311.3658 L292.4674 311.0041 L292.3034 309.1303 L291.7316 307.1166 L291.8263 304.821 L291.9309 302.2877 L292.2589 298.2546 L292.3076 297.6575 L292.6179 296.4835 L292.5965 295.1056 L294.194 294.2788 L296.8388 288.7115 L296.05 288.0071 L296.6716 286.1831 L297.1988 286.1337 L298.9027 280.4831 L300.7164 276.5368 L301.4383 274.8908 L304.7555 275.1402 L306.2163 275.175 L307.0503 275.5396 L308.1133 276.5143 L306.5486 279.6062 L305.3635 282.5784 L305.0658 285.1001 L304.2044 287.356 L302.7319 289.0474 L301.9331 290.0029 L301.7453 290.6922 L302.0897 290.8646 L301.4763 292.0926 L302.2327 292.6256 L305.5187 294.9411 L304.303 296.7919 L303.2951 298.1546 L303.8056 298.9073 L306.8937 295.3045 L304.9185 294.0923 L305.55 292.6341 L306.4739 291.8915 L309.6168 285.1731 L311.7067 284.7748 L311.6675 284.4693 L309.9673 284.4136 L309.7392 281.4796 L310.6909 279.7584 L313.2767 277.1878 L316.8722 278.9742 L320.9921 273.2808 L319.4562 271.5449 L319.3544 268.9647 L319.3423 268.663 L320.4452 267.5563 L320.3136 265.8485 L318.0516 264.0609 L316.7309 263.0171 L315.2651 258.034 L315.6864 257.2351 L315.7241 257.1632 L312.547 254.1856 L310.3021 252.6519 L302.8237 246.9888 L301.799 243.7807 L303.1189 238.9433 L303.7487 237.9208 L305.6983 231.3415 L303.8305 226.5826 L303.2079 223.7002 L303.8305 218.9635 L304.4496 215.7664 L304.0795 210.1812 L302.3113 206.4164 L296.1849 203.073 L294.0324 195.1442 L292.7748 191.49 L292.2735 188.152 L291.9334 187.1759 L293.0114 184.2481 L293.0541 184.7651 L295.6904 181.8598 L296.4944 177.8417 L297.0352 167.7935 L297.149 166.8381 L299.9881 163.0559 L300.7353 161.145 L300.5716 156.9581 L301.091 157.3234 L300.842 159.0094 L300.9736 160.6224 L301.1124 161.6733 L297.5155 167.2203 L296.9498 172.4973 L297.1846 176.3525 L295.8896 182.0958 L293.5806 184.8494 L293.6059 187.0528 L293.1843 190.47 L293.5806 192.4413 L296.9427 202.5673 L299.7295 204.0996 L301.2461 204.9425 L302.4074 205.8545 L303.0798 206.522 L303.891 207.6189 L304.6534 209.6743 L304.9704 210.965 L305.1647 212.2265 L305.3116 213.5761 L305.2415 214.8488 L304.938 217.1014 L304.4115 219.5063 L304.2418 221.4993 L304.3585 223.2169 L305.0099 225.3139 L305.5962 227.0624 L306.4038 229.6436 L306.5355 230.7235 L306.3917 231.5196 L305.4824 233.9182 L304.7875 236.3195 L302.8877 240.1063 L302.2935 243.8482 L303.062 246.4382 L305.6521 248.7866 L309.1035 251.0962 L311.6252 251.6912 L314.0217 252.7092 L316.1677 253.8216 L317.5104 255.0295 L318.8546 256.239 L319.1079 255.8856 L321.7154 252.253 L321.4788 250.8428 L321.3407 249.8456 L326.0469 248.3725 L324.7249 244.7342 L328.6921 241.9885 L333.0924 245.0021 L333.2034 245.0786 L337.4584 241.1289 L336.971 239.5445 L336.4872 237.9657 L337.5225 237.6792 L335.2419 232.0719 L338.7876 221.6667 L339.5575 216.2328 L342.8769 212.0635 L344.1186 202.1177 L341.6459 194.6947 L342.1191 189.127 L340.5224 185.0045 L338.1767 175.9855 L337.6623 176.3036 L337.6121 174.3682 L336.0037 169.1659 L335.1491 166.8033 L332.3847 162.5562 L330.3739 158.8363 L326.5286 152.7547 L324.3171 150.1407 L324.2417 148.6075 L324.6188 146.9237 L325.3226 142.551 L326.4532 138.806 L327.6597 138.8566 L326.3778 144.2349 L325.8249 146.5971 L325.6492 148.281 L326.202 149.8642 L328.9415 154.5892 L331.4295 158.9622 L334.7972 163.687 L336.431 166.1502 L336.7576 168.3111 L339.3963 175.65 L340.7284 179.7715 L342.5069 184.5628 L344.3157 179.0691 L344.1221 176.5941 L344.1221 174.0821 L347.8894 168.4308 L348.6558 167.8744 L349.2236 166.7898 L348.8675 166.5116 L349.8448 165.2049 L350.8904 163.0255 L351.6286 162.1314 L352.3683 161.2355 L353.1837 156.767 L353.272 155.0837 L353.9134 154.6116 L355.2622 155.5283 L356.1829 155.1877 L357.5591 154.4706 L357.7405 154.1199 L358.3891 153.7692 L358.7922 153.8456 L359.4205 153.5298 L361.1958 150.5791 L360.84 148.5502 L358.5364 146.8545 L364.4117 139.0427 L364.9578 137.1828 L365.1609 135.0667 L366.288 132.303 L366.2759 130.2093 L365.4384 128.7574 L363.6172 126.7744 L363.2931 125.3153 L363.2931 123.0186 L364.671 119.9113 L367.6428 120.3487 L369.7454 121.2075 L370.7729 121.6274 L375.8417 124.0568 L378.0891 126.7278 L382.0649 125.9257 L384.033 125.7396 L385.2761 127.6327 L386.3491 129.3499 L386.6437 130.7725 L386.3783 132.2676 L385.0879 136.1121 L412.837 128.8603 L414.8471 128.3348 L414.9564 129.0582 L413.5991 129.3864 L413.4799 130.2492 L412.8313 131.5464 L411.9668 133.1242 L411.2965 134.5074 L410.3021 135.9772 L409.4159 137.4256 L408.9242 138.1327 L408.9825 138.4036 L407.4997 139.7205 L403.8814 140.3472 L398.2637 141.4392 L392.9947 143.2968 L387.7932 144.0736 L387.4268 147.7257 L386.8405 148.8273 L387.4417 150.5634 L384.465 151.0529 L384.122 151.9336 L383.1617 152.3281 L382.1489 151.5818 L376.8353 151.1906 L373.8867 150.6471 L373.7515 150.6224 L372.6635 148.1163 L373.903 148.2939 L375.165 148.9161 L377.654 148.6851 L379.0746 148.9161 L379.7676 148.4721 L379.4478 146.6769 L380.4134 145.4421 L382.6469 141.4533 L381.5817 141.3853 L378.5356 145.9688 L377.543 146.9012 L375.8787 148.4715 L371.894 147.3474 L366.5641 148.8559 L366.5296 149.5129 L370.1649 148.9813 L368.1466 155.6441 L366.7281 162.3084 L365.0239 166.4616 L363.8022 171.2396 L363.2792 173.6719 L360.2843 175.9024 L359.3504 176.4463 L357.8778 175.4207 L357.7892 175.3589 L357.2588 174.4232 L356.5458 173.6887 L354.8238 174.9476 L354.2386 176.7948 L353.4459 179.0736 L353.7064 181.6063 L352.8813 182.7252 L351.6788 184.7258 L349.8145 186.6982 L350.0967 189.4282 L350.3944 192.3065 L354.5286 197.2852 L361.4662 199.9543 L363.942 198.1798 L367.1483 195.8809 L371.9616 193.2786 L373.0502 195.6725 L374.1425 198.0663 L373.7622 198.3568 L370.3214 200.3477 L370.816 203.0 L366.8882 218.9804 L367.2867 223.6889 L369.5601 228.83 L367.4148 231.9427 L362.0425 233.5496 L351.9136 241.2918 L349.3324 239.1748 L351.2618 236.501 L351.1522 236.2482 L350.6481 235.0868 L351.1651 234.6795 L350.8203 233.9277 L350.0842 234.1469 L350.2251 234.5385 L349.3638 235.1964 L349.5986 235.5565 L348.126 237.3263 L347.206 240.4715 L343.6863 242.4857 L342.0675 243.0644 L339.9417 243.1711 L337.8117 244.0639 L335.6657 247.8079 L337.0753 248.4501 L337.0596 250.1102 L334.9965 254.798 L331.3213 257.6632 L330.6845 259.7328 L329.2044 261.2699 L328.6629 261.9306 L330.0156 261.8592 L331.1608 260.9671 L333.3741 258.1014 L335.0712 258.725 L336.3409 261.0059 L335.4415 262.2604 L333.3489 262.9868 L333.2631 263.8322 L334.0586 264.6951 L332.6697 266.6069 L329.6456 268.2417 L328.5569 266.2417 L328.13 266.5069 L327.7244 266.7586 L328.468 268.8147 L327.7301 269.3147 L327.6212 269.5922 L327.2587 270.5157 L325.552 267.7434 L324.3467 266.84 L323.4587 266.2474 L322.7108 265.7491 L323.8212 269.1546 L324.489 271.2033 L324.5633 271.5174 L323.0467 274.0296 L320.8071 276.6783 L316.7921 279.0849 L316.1542 280.0938 L314.6226 282.766 L316.1105 283.5806 L315.7348 285.5231 L315.7856 288.143 L314.6112 291.9684 L315.0549 294.0872 L313.6649 295.4814 L313.5475 295.5994 L312.6409 296.5083 L311.9639 297.5289 L311.7447 298.8135 L311.3217 299.7218 L311.4373 301.0306 L309.8652 303.2308 L308.2517 304.9069 L307.9226 305.8152 L307.2805 306.4825 L307.6615 310.0627 L307.2299 311.8927 L306.1854 321.2013 L303.4299 323.0458 L305.8421 331.9609 L303.9145 333.6896 L303.8917 333.6329 L299.3897 334.7062 L297.1796 333.7278 L296.8573 333.5852 L296.3724 333.7329 L295.6302 334.3906 L292.7527 334.5214 L291.0411 332.9539 L293.0235 329.7868 L294.9372 328.7112 L296.1746 326.987 L289.7073 323.776 L289.5927 322.0798 L289.856 320.4846 L289.1174 319.9949 M297.7542 5.0842 L298.0947 4.3132 L299.2435 3.9263 L299.9002 4.3621 L299.7739 5.3946 L297.7542 5.0842 M313.3386 102.2008 L315.0083 102.4701 L316.537 102.3644 L314.7389 104.3291 L314.1117 104.1874 L313.9296 103.0542 L313.3386 102.2008 M326.9029 280.6129 L330.0711 276.4233 L331.2946 276.9081 L329.3603 281.315 L329.1326 281.201 L328.7914 281.5836 L327.8809 281.2111 L326.9029 280.6129 M329.0664 138.4272 L329.3738 137.3807 L330.9669 136.8355 L332.4612 134.6901 L333.2083 134.4624 L333.431 134.9149 L333.5559 135.6709 L335.1267 135.6866 L335.5006 134.83 L336.3466 133.6778 L336.3466 132.2681 L336.8614 130.9686 L337.3517 130.3065 L337.5111 129.4971 L338.0102 128.6782 L340.2548 128.3876 L341.7274 126.9689 L341.5612 126.3023 L340.2011 125.8043 L343.4476 120.4656 L346.2788 120.103 L347.8784 120.266 L348.1274 121.4537 L349.273 121.5943 L349.4089 122.257 L350.2877 121.922 L351.0782 121.8612 L351.8773 121.882 L351.9812 122.1951 L350.647 125.3271 L349.8757 130.9456 L348.548 136.9158 L347.1718 137.5274 L346.314 140.2539 L345.5061 142.8275 L343.8553 143.9808 L339.999 144.8329 L338.8018 145.7007 L335.3298 144.7429 L333.769 145.2004 L332.5772 145.3578 L331.8578 144.3242 L331.4092 142.9472 L331.4391 141.0615 L331.02 139.8644 L329.0664 138.4272 M392.1558 329.8385 L395.7245 325.256 L395.4709 323.2081 L397.2238 323.0599 L397.8361 325.2773 L396.5902 326.6079 L396.7382 330.9999 L392.1558 329.8385 M415.0208 382.0142 L416.2276 382.131 L416.5438 380.9327 L416.2521 379.4053 L417.1953 378.8589 L417.7158 376.2112 L419.6942 376.0686 L422.6205 378.5967 L422.4426 382.7914 L420.3684 385.5429 L419.8134 385.5485 L421.3184 387.1264 L422.967 384.4849 L423.6608 384.6332 L423.9333 386.3183 L425.2216 389.5639 L426.3117 390.8032 L424.7509 391.1996 L425.9153 391.8931 L425.1721 393.1318 L424.4289 393.8752 L419.7106 389.8834 L418.3113 388.3505 L416.6488 386.3677 L415.6327 384.0385 L415.0208 382.0142 M415.9771 257.1621 L417.6837 255.6811 L418.5956 256.9946 L417.0227 259.1031 L415.9771 257.1621 M419.8266 252.1238 L420.9644 251.262 L422.4536 252.1153 L422.6208 252.3159 L421.2323 253.7468 L419.8266 252.1238 M421.0814 248.0607 L422.7717 247.3332 L424.4282 247.9354 L424.6121 249.0731 L423.7085 249.249 L423.0143 249.8428 L421.8093 250.2029 L421.0814 248.0607 M423.231 235.488 L423.8184 232.804 L425.7261 233.7305 L426.5582 230.9257 L428.1884 231.0803 L429.7556 230.315 L429.8833 230.5139 L429.6471 232.3416 L430.1455 236.3791 L428.6818 236.2948 L427.0559 236.0364 L426.3971 238.0865 L425.6652 238.318 L424.5061 237.4887 L425.0551 236.6712 L425.3845 235.9144 L423.231 235.488 M423.4459 230.7853 L424.3229 228.4227 L424.8153 227.5051 L426.8514 227.7467 L425.73 226.1612 L425.1287 224.2733 L423.9924 221.6813 L424.6602 221.4313 L424.4702 221.0341 L425.5852 220.5744 L424.5538 218.9725 L425.8335 218.8944 L425.9025 216.5306 L427.9902 215.3225 L427.7348 218.9725 L429.8837 219.0394 L429.2774 221.8477 L429.5321 223.2804 L429.72 230.2066 L427.9294 230.8729 L425.9577 230.5324 L423.4459 230.7853 M433.3525 238.6472 L433.6801 236.1633 L438.9627 234.9829 L439.4035 235.0267 L439.9542 235.1385 L439.3761 240.2344 L433.5492 240.9822 L433.3525 238.6472 M44.2785 93.5197 L44.8969 93.509 L45.3828 93.5461 L45.2085 92.907 L45.5106 92.3442 L45.1029 92.1407 L44.7912 92.5264 L44.2785 93.5197 M45.5202 94.3539 L46.2492 94.3438 L46.9465 93.9582 L47.1841 93.4933 L46.7245 93.287 L46.2068 93.0385 L46.1222 93.3134 L46.4021 93.8682 L45.5942 94.0953 L45.5202 94.3539 M58.9194 89.0 L59.2894 89.3328 L59.3688 89.2378 L59.5957 89.4806 L59.3527 89.7083 L59.5377 90.0461 L59.7647 90.1147 L59.8757 89.9882 L59.7807 89.3592 L59.4954 89.1057 L59.5587 88.8892 L59.2681 88.6728 L59.0674 88.6306 L58.9194 89.0 M66.0794 114.4978 L67.1627 115.3106 L68.3272 114.6417 L69.7521 113.7586 L70.8984 113.604 L71.6316 113.5006 L72.2873 112.8187 L72.5559 112.3027 L72.0707 112.0498 L70.7536 112.4185 L70.2925 112.5478 L68.8975 112.4084 L68.9494 111.7682 L69.4244 111.4894 L69.0939 111.056 L67.865 111.6546 L66.4501 112.047 L66.8838 112.8008 L66.6052 113.5343 L66.5327 114.102 L66.0794 114.4978 M66.6981 111.1695 L67.9269 111.1588 L67.9992 110.6321 L67.008 110.364 L66.6981 111.1695 M67.3072 109.6979 L67.8391 109.9351 L68.2265 109.8783 L68.3243 109.3314 L67.9166 108.6962 L67.865 108.4534 L68.366 107.8648 L68.1774 107.5214 L67.8832 107.7614 L67.6946 108.3915 L67.5655 108.6237 L67.6274 109.1245 L67.3072 109.6979 M68.7737 109.961 L68.9028 110.0076 L69.5742 109.8733 L69.7186 110.219 L69.894 110.2758 L70.222 110.3691 L70.4003 109.5377 L70.1263 109.5894 L69.5845 109.3466 L69.5535 108.2156 L69.2953 108.2364 L69.3002 108.9593 L68.9181 109.0987 L68.7737 109.961 M69.846 111.1313 L70.0153 111.9284 L70.4031 112.1616 L70.8521 110.8699 L70.581 110.8081 L69.846 111.1313 M71.3588 110.6614 L71.642 110.9188 L72.303 111.7372 L73.0569 111.8688 L73.0515 111.4584 L72.525 111.1071 L73.1238 109.6743 L72.9768 108.5877 L72.8786 108.3348 L73.1935 108.2724 L73.3177 107.9683 L74.2263 107.8491 L73.9527 107.4106 L73.3589 107.183 L73.2814 106.6877 L73.9321 107.0492 L74.1021 106.7856 L74.6959 106.7754 L74.7219 106.2639 L74.8457 106.0267 L75.2666 105.6315 L75.7416 106.0087 L75.8451 105.0222 L75.3545 104.9553 L75.1787 104.3976 L75.6281 104.3718 L75.6341 103.9316 L75.6366 103.7433 L74.9852 103.5842 L74.7169 103.7495 L74.3348 103.8372 L74.0328 104.5888 L73.54 104.9294 L73.1625 105.1902 L72.8477 105.8176 L72.5093 106.2122 L72.4396 106.636 L72.1091 107.1211 L71.9554 108.2083 L72.1635 108.59 L71.9878 108.7861 L72.1222 109.3752 L71.9362 109.9846 L71.3588 110.6614 M73.439 113.1032 L73.6763 113.3173 L73.9036 113.0593 L74.9208 112.8266 L75.3125 112.7322 L75.4473 112.5585 L75.4886 111.8766 L75.1065 111.9593 L75.019 112.1914 L74.3476 112.5894 L73.6428 112.5664 L73.439 113.1032 M74.5746 111.4376 L74.7141 111.9025 L75.1428 111.758 L74.8123 111.0919 L75.6074 110.9677 L75.4061 111.5978 L75.8397 111.608 L76.0514 111.2465 L75.9483 110.8592 L76.6762 110.7406 L76.6712 110.3331 L75.5815 110.1678 L75.5505 109.8474 L75.7312 109.8064 L75.876 109.4241 L75.5558 109.4191 L75.215 110.2555 L75.024 110.2398 L74.6522 110.8592 L74.5746 111.4376 M76.1443 108.9851 L76.2941 109.3466 L76.7174 109.2898 L76.991 110.0745 L77.3166 110.1161 L77.3731 109.7698 L77.8691 109.708 L77.8741 109.3567 L77.4817 109.3724 L77.0273 109.0419 L76.6349 108.7788 L76.2788 108.7991 L76.1443 108.9851 M76.2272 107.8232 L76.2994 108.1903 L76.6968 108.1588 L76.8982 107.839 L76.826 107.6636 L76.2272 107.8232 M76.9747 108.0099 L77.043 108.5827 L78.4319 108.6495 L78.4369 108.5461 L78.2871 108.3398 L78.3387 108.1903 L78.8912 108.0509 L79.2374 107.6996 L79.1132 107.3741 L78.5042 107.5602 L78.4472 107.839 L78.1014 107.803 L77.9257 107.5343 L77.8278 107.5753 L77.7335 107.9919 L76.9747 108.0099 M77.6368 110.0385 L77.8691 110.3173 L78.1221 110.405 L78.38 110.1678 L78.2252 109.7906 L77.6368 110.0385 M79.4438 120.9434 L79.5832 121.0676 L79.9137 120.9849 L80.2105 120.7213 L80.4947 121.0001 L81.0935 120.2829 L81.2845 120.0552 L81.207 119.7197 L81.646 119.5134 L81.5581 119.3223 L81.1956 119.528 L80.8662 119.7146 L80.9903 120.1328 L80.7089 120.1486 L80.4559 120.329 L80.2389 120.2053 L80.1151 120.4273 L79.9394 120.6443 L79.5366 120.6904 L79.4438 120.9434 M80.2008 126.4585 L80.4335 126.5828 L80.5111 126.9706 L80.8007 127.214 L81.3699 127.1516 L81.3596 126.7896 L81.6183 126.7587 L81.6232 126.3085 L81.4834 126.1224 L81.2974 126.1325 L81.1938 126.3242 L80.6765 126.2568 L80.8423 125.9206 L80.7181 125.8172 L80.4389 126.1275 L80.2265 126.2466 L80.2008 126.4585 M81.4422 128.3516 L81.5094 128.4348 L81.6026 128.3055 L81.8303 128.3314 L81.8303 128.6158 L82.0267 128.735 L82.5337 128.228 L82.3266 127.871 L81.7371 127.902 L81.4991 128.0987 L81.4422 128.3516 M82.0061 125.4811 L82.0733 125.983 L82.735 126.7002 L83.3509 126.707 L83.9717 126.6193 L84.1268 126.8312 L83.6355 127.1623 L84.013 127.3534 L84.5563 126.9245 L84.4421 126.4467 L84.1425 126.5153 L83.8113 126.3917 L84.52 125.4912 L84.7381 125.4923 L84.758 125.3051 L84.3389 125.1967 L84.3236 124.9325 L83.501 124.9274 L83.5629 125.2534 L83.77 125.4294 L83.5942 125.6053 L83.3459 125.5536 L83.1751 125.3259 L82.539 125.3209 L82.4102 125.58 L82.0061 125.4811 M82.6372 127.7727 L82.9578 127.9638 L83.3356 127.7569 L83.4388 127.4 L83.3146 127.359 L82.6372 127.7727 M84.3855 128.631 L84.7373 128.6417 L84.8718 129.1588 L84.4321 129.645 L85.0476 130.2037 L85.2287 130.2503 L85.1202 129.9035 L85.2184 129.5106 L85.4873 129.4746 L85.5909 129.1278 L85.8961 128.5174 L85.0839 128.0622 L84.8302 128.3674 L84.52 128.2173 L84.3855 128.631 M204.5164 72.432 L204.6164 72.8655 L205.5898 72.4118 L205.9231 72.6316 L206.243 71.7186 L206.5365 71.7321 L206.9563 71.0316 L206.7098 70.7049 L206.1896 70.7117 L206.0163 71.0721 L205.2696 71.3588 L205.5364 72.0317 L204.5164 72.432 M206.5098 63.5183 L206.6165 64.0715 L207.0563 64.4583 L207.5764 64.2182 L207.6696 63.7516 L206.883 63.1916 L206.5098 63.5183 M208.6964 63.7516 L208.7633 64.2317 L209.4297 64.2452 L209.7897 64.0051 L209.9366 63.7117 L210.7631 63.4716 L211.2299 63.4581 L211.6433 63.3518 L211.11 62.9785 L210.3365 63.2917 L209.5631 63.3518 L208.6964 63.7516" stroke-dasharray="" fill="none" fill-opacity="1.0" stroke="#ff0000" stroke-opacity="1.0" stroke-width="1.0px" stroke-linecap="butt" stroke-linejoin="miter" stroke-dashoffset="0.0px"/>
</g>
</svg>