<?xml version="1.0" standalone="no"?>
<!DOCTYPE svg PUBLIC "-//W3C//DTD SVG 1.1//EN" "http://www.w3.org/Graphics/SVG/1.1/DTD/svg11.dtd">
<svg width="512px" height="512px" version="1.1" xmlns="http://www.w3.org/2000/svg" xmlns:inkscape="http://www.inkscape.org/namespaces/inkscape">
<g id="layer" inkscape:groupmode="layer" inkscape:label="layer">
<path d="M0.0 302.4217 L54.834 442.9793 L512.0 266.7792 L436.268 69.0207 L275.1873 132.4012 L160.156 203.3988 L167.4611 203.6863 L174.5812 204.836 L181.5163 206.9918 L188.1741 210.0099 L194.277 213.8904 L199.9176 218.4894 L204.8185 223.807 L209.0721 229.6995 L212.4934 236.1669 L214.9901 243.0655 L216.6545 250.1077 L217.3018 257.2937 L217.0244 264.6234 L215.8223 271.8094 L213.6955 278.708 L210.644 285.3191 L206.8528 291.499 L202.2294 297.1041 L196.8662 302.1343 L190.9482 306.3021 L184.5678 309.7514 L177.7251 312.1946 L170.6975 313.9193 L163.4849 314.4941 L156.1799 314.2067 L149.0598 313.0569 L142.1246 310.9012 L135.5593 307.883 L129.3639 304.0026 L123.8158 299.4036 L118.9149 294.086 L114.6614 288.1935 L111.3325 281.7261 L108.7434 274.8275 L107.1714 267.7853 L106.4316 260.5993 L106.709 253.2696 L107.9111 246.0836 L110.0379 239.185 L113.0894 232.5739 L78.8759 253.7007 L83.1295 258.0123 L86.6433 262.8988 L89.4174 268.3601 L91.2668 274.1089 L92.2839 280.1452 L92.2839 286.1814 L91.4517 292.0739 L89.6948 297.9664 L87.0132 303.4277 L83.5918 308.3142 L79.3383 312.7695 L74.345 316.3625 L68.9818 319.0932 L63.1562 321.1052 L57.1457 322.1113 L51.0428 322.1113 L45.0323 321.1052 L39.2068 319.2369 L33.7511 316.5062 L28.8503 312.9132 L24.5042 308.4579 L20.898 303.5715 L18.1239 298.1101 L16.2745 292.2176 L0.0 302.4217 M226.8261 212.3095 L227.2884 204.9797 L228.6755 197.9375 L230.9872 191.0389 L234.2236 184.4278 L238.1997 178.3916 L243.0081 172.9302 L248.3713 168.1875 L254.3818 164.0196 L260.9471 160.8578 L267.7898 158.4145 L274.9099 156.9773 L282.1224 156.5462 L289.335 156.9773 L296.4551 158.4145 L303.2978 160.714 L309.8631 163.8759 L315.8736 167.9 L321.3292 172.7865 L326.1376 178.2479 L330.2062 184.2841 L333.3502 190.7515 L335.7544 197.65 L337.1414 204.6923 L337.6962 212.022 L337.2339 219.208 L335.8468 226.394 L333.5351 233.2925 L330.2987 239.7599 L326.3226 245.7962 L321.5142 251.2575 L316.0585 256.144 L310.048 260.1681 L303.5752 263.33 L296.7325 265.7732 L289.6124 267.2104 L282.3999 267.6415 L275.1873 267.2104 L268.0672 265.7732 L261.2245 263.4737 L254.6592 260.3118 L248.6487 256.2877 L243.1931 251.5449 L238.3847 246.0836 L234.3161 240.0474 L231.0796 233.58 L228.7679 226.6814 L227.2884 219.4954 L226.8261 212.3095 M347.5904 164.5945 L348.0527 157.2648 L349.4398 150.2225 L351.7515 143.3239 L354.9879 136.7128 L358.9641 130.6766 L363.7724 125.2152 L369.1356 120.4725 L375.2386 116.4483 L381.7114 113.1427 L388.5541 110.8432 L395.6742 109.406 L402.8868 108.8311 L410.0993 109.2623 L417.2194 110.6995 L424.0621 112.999 L430.6274 116.3046 L436.6379 120.3287 L442.0936 125.0715 L446.9019 130.5329 L450.9706 136.5691 L454.207 143.0365 L456.5187 149.935 L457.9057 156.9773 L458.4605 164.307 L457.9982 171.493 L456.6112 178.679 L454.2994 185.5776 L451.063 192.045 L447.0869 198.0812 L442.2785 203.6863 L436.9153 208.429 L430.8124 212.4532 L424.3395 215.7587 L417.4968 218.0582 L410.3767 219.4954 L403.1642 220.0703 L395.9516 219.4954 L388.8315 218.202 L381.9888 215.7587 L375.4235 212.5969 L369.413 208.5727 L363.9574 203.83 L359.149 198.3686 L355.0804 192.3324 L351.844 185.865 L349.5322 178.9665 L348.1452 171.7805 L347.5904 164.5945" stroke-dasharray="" fill="none" fill-opacity="1.0" stroke="#ff0000" stroke-opacity="1.0" stroke-width="1.0px" stroke-linecap="butt" stroke-linejoin="miter" stroke-dashoffset="0.0px"/>
</g>
</svg>