<?xml version="1.0" standalone="no"?>
<!DOCTYPE svg PUBLIC "-//W3C//DTD SVG 1.1//EN" "http://www.w3.org/Graphics/SVG/1.1/DTD/svg11.dtd">
<svg width="512px" height="512px" version="1.1" xmlns="http://www.w3.org/2000/svg" xmlns:inkscape="http://www.inkscape.org/namespaces/inkscape">
<g id="layer" inkscape:groupmode="layer" inkscape:label="layer">
<path d="M62.8128 225.6402 L66.1777 227.0993 L68.2191 228.1862 L71.511 230.4728 L72.4011 231.229 L73.3434 231.7725 L73.9758 232.2057 L74.46 232.8772 L74.9652 235.2146 L74.9953 236.3329 L74.5703 239.151 L74.5396 240.0861 L74.5193 240.2972 L74.6591 240.6261 L75.546 241.6316 L77.2945 243.4815 L81.9757 248.9853 L83.1872 250.2892 L84.5518 251.7542 L85.1765 252.7003 L85.8835 253.8507 L87.1087 255.9668 L87.881 256.9807 L94.745 262.8056 L92.6581 260.086 L91.0061 257.5834 L88.6214 252.4129 L87.4576 250.2265 L86.2142 248.5877 L82.0492 244.0402 L80.423 242.3997 L80.09 242.064 L80.056 241.9563 L79.8657 241.39 L79.9249 241.0848 L80.8842 236.0658 L84.0521 237.5105 L84.8337 237.9106 L86.9639 237.9607 L87.9457 238.0632 L88.7859 238.3498 L92.363 239.7173 L98.1285 242.6998 L102.3396 244.9355 L108.0074 247.1702 L111.0366 248.6183 L108.8027 246.899 L107.8802 244.4904 L111.1359 242.4328 L109.4066 241.997 L107.6383 243.1195 L103.7667 241.5875 L102.5892 241.5129 L100.6904 240.0861 L100.0213 239.4172 L100.2456 238.2125 L99.8222 237.9666 L98.0726 237.9759 L96.4113 237.3706 L95.4465 236.7068 L95.0269 236.2422 L94.4505 235.6351 L94.202 234.6262 L94.5273 233.6657 L94.8739 232.8806 L95.1394 232.6847 L99.0038 231.5334 L99.5167 231.4113 L100.1079 231.3893 L102.7806 231.4164 L103.9477 231.3596 L105.8712 231.3181 L108.4577 231.4325 L108.7429 231.4452 L111.0602 231.6063 L112.0145 231.597 L113.5716 231.5003 L114.2298 231.5071 L114.9779 231.6419 L115.3711 231.7691 L115.7946 232.076 L115.9832 232.4609 L115.9964 232.8382 L115.8165 233.1824 L115.5143 233.5114 L115.1534 234.3219 L115.2636 235.1459 L115.754 235.5919 L116.8273 235.9836 L117.0999 236.3227 L118.4639 239.0297 L118.6318 239.173 L120.7905 238.5524 L121.5671 238.3786 L122.5368 238.2404 L122.8478 238.1963 L123.495 238.2387 L123.8608 238.5516 L124.0385 238.8983 L124.3468 239.502 L124.6331 239.8309 L124.9281 239.7995 L128.0303 238.9187 L128.4027 238.9017 L128.6857 239.1171 L129.7864 241.362 L130.8389 242.9042 L132.1163 244.1479 L134.1561 246.4776 L134.6771 247.2126 L134.6387 247.7908 L134.4736 248.0384 L134.1577 248.2851 L132.99 248.8141 L131.0863 249.4626 L130.8439 249.4618 L130.4753 249.3372 L130.2921 249.2304 L129.3756 248.6946 L129.0828 248.469 L128.1942 247.7857 L128.1937 247.7857 L125.5331 246.1588 L124.225 245.3916 L122.8928 244.7074 L122.4617 244.6761 L121.5726 244.8702 L120.423 245.2763 L118.6883 245.4984 L118.4996 245.4297 L118.2495 246.1376 L118.4365 246.9473 L118.453 246.9651 L118.6477 247.5034 L118.6186 247.7366 L118.6619 248.0155 L118.8144 250.1994 L119.1188 250.4376 L119.2839 250.4868 L119.619 250.2596 L120.0336 249.6254 L120.1642 248.5462 L120.2037 248.4097 L120.2804 247.8324 L120.5092 247.4695 L120.5799 247.2677 L120.6556 247.2381 L121.09 246.5497 L126.7397 248.0155 L127.4884 248.7039 L127.7933 248.9625 L127.8855 250.5046 L129.8095 251.0853 L131.0874 250.9217 L132.4613 251.1345 L135.8744 251.0251 L137.4748 250.7284 L137.6136 250.7029 L138.6189 250.6648 L138.8591 250.6707 L139.3363 253.7312 L142.7368 253.0021 L144.4754 257.4614 L145.4808 256.6441 L146.9556 257.7623 L146.0731 258.7847 L144.9378 260.7532 L144.046 262.5937 L143.1646 265.2022 L140.4409 259.7469 L139.8255 261.2297 L140.1332 261.9714 L141.1715 264.0612 L141.7243 265.4591 L141.9667 266.2382 L143.2194 266.6086 L136.2786 290.572 L137.2631 291.6248 L135.3912 300.033 L136.6203 301.463 L136.702 301.3393 L138.8498 294.8799 L139.8354 291.5019 L140.0504 291.2705 L142.0655 286.8692 L142.8684 283.3275 L143.9292 279.6077 L145.8806 272.3224 L147.2841 268.2414 L147.645 268.4347 L148.4962 268.8518 L149.959 269.9733 L148.4863 278.3972 L148.1518 281.9864 L145.9941 294.5265 L146.4225 295.6768 L147.1475 296.1871 L147.6867 295.5242 L148.4178 294.423 L151.2978 284.6059 L154.8601 283.9031 L155.9745 285.8113 L153.6584 293.6635 L153.2838 301.9581 L156.2729 304.1111 L157.5925 303.3737 L159.2949 304.1874 L164.2476 308.2986 L163.4359 309.5616 L165.7997 309.3836 L167.5658 312.1978 L176.2809 311.8757 L178.2713 311.0136 L178.9728 311.9181 L178.874 314.0431 L175.8416 317.8982 L175.3151 320.1512 L175.4878 322.6645 L176.1169 324.1504 L179.1093 323.5604 L180.3889 323.7003 L181.2116 323.8206 L186.3628 319.3273 L189.4545 316.1979 L193.8515 317.5778 L194.1504 318.5679 L190.2432 323.1451 L187.6215 326.6339 L186.0326 328.074 L179.7478 332.724 L178.7314 333.058 L170.5122 336.1365 L172.2036 336.8129 L173.1547 336.9909 L174.5044 338.1199 L174.047 339.6548 L175.7538 340.9839 L176.174 341.2687 L177.3213 342.151 L178.0985 342.9266 L179.2678 343.7767 L180.0845 344.8277 L180.3889 345.1515 L181.8385 346.0711 L182.2158 345.8083 L182.4978 345.6558 L182.8943 345.7905 L183.2069 346.0024 L183.3457 346.3788 L183.6709 346.995 L183.9188 347.2797 L184.5413 346.9644 L184.7651 346.2101 L185.075 346.8466 L185.5686 347.206 L187.9435 350.1191 L190.224 352.2558 L190.7127 353.3348 L190.569 354.1044 L190.4494 355.8139 L190.4982 355.9216 L190.7149 356.2004 L191.3368 356.8657 L191.4487 357.0531 L191.5973 357.6582 L192.0471 360.3009 L192.1453 362.6427 L191.6089 365.0166 L191.9692 365.9032 L192.8352 367.1007 L193.5312 368.2297 L193.9711 368.5178 L194.417 368.6848 L195.4234 369.5281 L195.781 370.0688 L196.7957 371.6054 L197.0518 372.5978 L197.376 373.8547 L197.3831 374.2505 L197.1719 374.6963 L196.6915 375.1548 L196.1721 375.2099 L195.6977 375.0319 L195.3209 374.6149 L194.8503 372.9775 L194.0517 371.7435 L192.5286 370.1264 L192.1184 369.5721 L191.5282 368.9763 L190.937 368.4407 L185.9076 365.3404 L184.5967 364.67 L183.208 364.036 L182.2126 363.3571 L181.2599 362.9766 L180.6258 362.8367 L179.7313 362.6859 L178.7808 362.6571 L176.9171 362.8851 L174.0075 362.7164 L172.6194 362.6359 L171.2537 362.8723 L170.658 362.6596 L170.3838 362.2367 L170.4524 361.6553 L170.5829 361.4273 L170.7189 361.3493 L170.8303 361.2849 L171.597 361.0933 L173.9774 361.379 L175.9639 361.2713 L176.4449 361.3035 L176.7295 361.1578 L176.848 360.9518 L176.8765 360.684 L176.6029 360.267 L176.282 360.1763 L175.9919 360.1966 L175.6891 360.1492 L175.1445 360.2034 L173.0521 360.506 L171.1127 360.4517 L169.0955 360.0898 L167.1451 359.5389 L166.4716 359.1787 L165.7921 358.9846 L164.5065 358.5303 L163.3492 358.2091 L162.4294 358.2574 L161.2003 357.8311 L160.8784 357.7506 L160.2526 357.832 L159.7469 357.7057 L159.6701 357.2615 L159.8423 356.2191 L160.1418 355.2613 L160.4681 354.6799 L161.027 354.4553 L161.3649 354.3959 L162.8978 355.1215 L163.7008 354.8062 L164.3693 354.6206 L164.5723 354.4104 L164.722 354.0552 L164.7346 353.4246 L164.3606 352.4949 L164.5454 351.6159 L165.0911 351.0353 L165.412 350.8167 L165.5458 350.4887 L165.3396 350.0581 L164.8525 349.497 L164.0743 348.7825 L163.353 348.3223 L162.9176 347.9629 L162.742 347.7434 L162.7168 347.3628 L163.2258 346.5839 L163.4194 346.4084 L163.6251 346.0609 L163.7732 345.8939 L163.9152 345.6583 L164.099 345.4668 L165.022 343.8674 L165.265 343.6368 L165.7668 343.4775 L167.0601 343.4004 L169.3867 343.8496 L171.1056 344.4615 L173.7816 345.6151 L176.6286 346.9458 L178.7523 348.1833 L179.9682 349.1953 L186.5388 354.1425 L186.9189 353.9272 L186.6535 352.9568 L185.1211 350.5039 L184.458 349.6784 L183.8947 349.2631 L182.2773 347.923 L182.3678 348.2807 L184.272 350.526 L184.4503 350.9633 L184.3466 351.0497 L184.1124 350.9616 L182.3881 349.1834 L180.3752 347.512 L176.1076 344.7217 L172.5996 343.0952 L169.147 341.8145 L167.8088 341.734 L167.4029 341.6543 L167.4572 341.3729 L167.6898 340.9652 L168.3671 340.4338 L168.8591 340.3244 L168.191 339.1268 L159.5697 341.5272 L158.424 348.3028 L153.5437 345.2591 L153.9178 357.8277 L158.2896 359.3813 L152.2483 371.0909 L148.0218 371.2596 L146.3824 362.4876 L143.0834 361.8112 L134.3069 370.868 L132.5847 378.6652 L126.3706 378.8602 L121.7448 382.54 L119.5587 393.8609 L119.5587 398.1322 L119.6656 402.4017 L119.9102 402.8356 L120.0506 403.2271 L120.106 403.75 L119.7726 405.9933 L119.8905 409.9432 L120.0221 410.05 L120.5338 410.6237 L120.5684 410.7076 L119.5987 415.7338 L118.057 419.0337 L111.6224 417.1067 L110.9357 417.7431 L110.8205 417.9202 L110.6609 418.0702 L110.5359 418.1143 L106.0609 422.2082 L99.951 420.1235 L101.0644 421.9794 L104.8126 434.8168 L109.5349 450.6459 L112.8647 452.5161 L112.5317 460.3795 L114.4782 465.861 L115.1863 465.5796 L117.8656 469.1376 L119.087 474.8299 L118.2687 477.1812 L111.839 476.161 L111.8429 479.0292 L112.461 480.9746 L113.429 480.956 L113.9172 481.0958 L115.8011 481.9659 L119.4172 484.1274 L131.5931 491.3811 L131.8755 491.7784 L132.0319 492.2063 L134.399 495.1828 L134.0453 496.3791 L136.9395 500.2461 L138.5015 501.2196 L145.059 503.5504 L148.901 505.0365 L152.2559 507.008 L155.4063 510.6198 L157.626 512.0 L158.0604 511.0731 L157.5124 510.3064 L156.6991 509.404 L155.2188 508.1899 L154.0182 507.0919 L151.6312 505.5372 L150.1745 504.7645 L149.0227 504.2739 L147.3154 503.8732 L146.4093 503.5402 L144.7815 502.5947 L142.8075 501.3331 L142.7988 501.3272 L141.924 500.707 L140.5693 499.8165 L139.7515 498.9455 L138.8822 497.9424 L133.5857 492.6359 L132.9895 491.9106 L132.7937 491.4327 L132.8244 491.1464 L132.9939 490.8676 L133.2582 490.6948 L133.8774 490.4067 L135.338 489.0485 L135.8651 488.1809 L136.2929 487.7445 L136.7114 487.7996 L137.1973 488.208 L139.3818 490.2279 L140.7974 490.6143 L142.2892 491.6895 L142.5783 492.2995 L143.1257 493.2213 L143.5968 493.9026 L144.1858 494.4914 L145.2301 495.1921 L146.1795 495.72 L146.728 495.8454 L147.17 495.9826 L147.9494 496.2893 L148.9778 497.6212 L150.1948 499.4539 L150.6698 500.047 L150.9139 500.9095 L151.1557 501.9719 L152.4326 504.0808 L153.0891 504.9458 L153.4763 504.8509 L155.4255 505.8778 L156.4281 506.6217 L157.9956 508.1561 L158.684 509.393 L160.2005 506.5861 L159.6536 505.6855 L158.5348 505.3711 L157.3912 505.1017 L155.9422 504.6196 L154.344 503.3725 L154.7789 503.0048 L155.0235 502.5727 L155.0043 501.7389 L153.6743 500.7926 L153.3024 500.6714 L152.7435 500.2249 L152.3135 499.259 L152.8072 498.693 L153.5218 498.549 L154.4701 498.9921 L154.8282 499.5674 L155.369 499.4793 L155.7442 499.6996 L155.9669 499.9233 L156.8713 498.6532 L157.1938 497.0934 L158.0236 495.3904 L158.764 494.438 L156.7133 492.4495 L153.2695 490.1483 L151.9845 489.1002 L151.2457 488.4172 L150.6056 487.4208 L150.6868 486.7591 L151.0954 486.1965 L152.6865 486.2194 L153.224 485.6305 L156.1451 482.9412 L156.5954 482.2803 L156.506 481.2474 L155.8144 480.2027 L154.2551 477.5701 L153.0337 476.128 L151.8199 475.3188 L151.6927 475.3883 L151.5769 475.3366 L151.306 475.107 L148.9794 472.7989 L147.4059 471.289 L147.2912 471.261 L147.096 471.2144 L148.1238 472.4633 L148.8961 473.3191 L149.5197 473.9368 L150.2069 474.4554 L148.8176 474.585 L148.4732 474.3207 L148.6306 474.6028 L148.5231 474.613 L146.264 476.1907 L145.619 476.7448 L144.2231 478.231 L143.8513 478.4767 L143.6412 478.2539 L143.1821 477.3752 L142.3112 475.928 L141.9646 475.207 L142.6364 474.4774 L142.7922 474.0461 L142.7253 473.5547 L142.4242 473.0887 L142.043 472.6625 L141.4561 472.1727 L140.001 471.6118 L138.7824 471.2305 L138.4522 470.9975 L137.7491 470.0536 L137.4414 469.818 L136.9565 469.6392 L130.54 466.6812 L127.6502 465.7559 L126.1913 465.3102 L125.3932 464.978 L124.9605 464.418 L124.791 464.2832 L124.5036 464.0553 L124.1263 463.6774 L123.5619 463.4003 L123.0217 463.0588 L122.7458 462.6131 L122.7332 462.2776 L123.0041 460.5015 L123.2208 459.2992 L123.3771 458.9687 L123.7429 458.7458 L124.0736 458.695 L125.6521 459.4254 L125.8912 459.4296 L126.1008 459.2729 L126.3196 459.2 L126.6344 458.9975 L127.105 458.8941 L127.6216 458.939 L128.4427 459.1195 L129.5731 459.5517 L130.5521 460.0338 L131.7198 460.3041 L132.6423 460.6888 L133.7348 461.3396 L134.8246 462.181 L136.8753 463.5876 L138.1505 464.3798 L139.7943 465.3314 L143.0988 468.575 L144.8429 470.3594 L143.3077 468.647 L142.173 467.3116 L141.9635 466.8939 L142.1017 466.6346 L142.4735 466.6117 L144.8511 469.1274 L145.7122 469.6418 L145.2784 469.0402 L143.0889 466.5753 L140.5517 463.9638 L140.4217 463.7477 L140.3515 463.2469 L140.4157 462.9453 L140.595 462.6733 L140.8358 462.4259 L140.8364 462.4259 L141.885 461.6209 L142.5514 461.2209 L143.0516 460.9718 L143.2858 460.7905 L143.3138 460.4524 L142.7472 459.9381 L140.1014 457.7265 L139.7778 457.2697 L139.5749 456.7995 L139.5266 456.3436 L139.7767 455.5183 L140.8051 454.5955 L142.5223 453.738 L143.3461 453.4456 L143.9308 453.3295 L144.5906 453.4829 L145.8685 454.5633 L146.4323 455.1624 L146.7313 455.3869 L147.1437 455.8038 L147.6307 456.3665 L149.4681 458.3171 L149.5613 458.4221 L149.5756 458.5103 L149.6332 458.5721 L149.7824 458.6289 L150.4542 458.7102 L151.0022 458.7306 L151.5292 458.6255 L151.9581 458.6086 L149.4204 457.4375 L149.0403 456.8723 L149.0842 456.347 L149.6897 456.0758 L149.7802 455.775 L149.1648 455.664 L148.3991 455.5767 L147.8063 455.1725 L147.334 454.4642 L145.8406 453.7032 L145.2893 453.0414 L145.2126 452.4593 L145.0705 452.2678 L143.5469 451.3721 L142.4 450.7815 L141.4901 450.2723 L141.1117 450.1596 L143.2787 451.9856 L138.1977 455.9428 L136.8907 454.5082 L135.7186 453.3439 L135.2151 452.9228 L134.7188 452.9296 L132.9747 452.3254 L132.5211 452.0136 L131.7011 450.9747 L131.264 450.5993 L130.823 450.4011 L130.2806 450.2595 L128.2666 450.3587 L126.8428 450.1875 L126.3163 449.9757 L125.9527 449.646 L125.8753 449.2715 L126.0278 448.8334 L126.3212 448.2894 L126.7628 447.8361 L127.2745 447.5446 L128.169 447.1887 L128.5612 446.9938 L128.9182 446.5421 L129.1294 446.0837 L129.5314 445.4736 L129.8561 445.2245 L130.1978 445.0584 L130.5499 444.9906 L131.4455 445.0787 L132.1388 445.205 L132.4575 445.1863 L133.6668 444.7745 L135.3413 444.3517 L140.329 441.9451 L143.611 441.3358 L146.6172 440.9325 L147.3126 440.935 L147.9757 441.2096 L149.0293 442.0146 L149.5356 442.745 L149.9732 443.6331 L150.2639 444.0703 L150.502 444.2974 L150.7948 444.4661 L151.0729 444.4974 L151.3647 444.4355 L152.539 443.8364 L153.4516 443.4331 L155.0125 442.8764 L156.0469 442.6137 L157.1466 442.473 L157.7943 442.451 L159.3438 442.7238 L160.6557 443.067 L161.2102 443.1077 L161.8755 443.1136 L162.4371 443.0772 L163.1803 443.0975 L164.1949 443.1814 L164.0452 441.9595 L165.237 440.8121 L166.6932 440.9443 L174.0146 442.2518 L194.5996 441.0121 L196.7551 444.3508 L184.4591 445.6202 L184.2002 445.8032 L184.3784 447.1607 L186.8504 455.2344 L188.1277 450.2062 L189.1221 450.096 L189.3157 449.9647 L189.9256 449.8079 L194.9814 448.9199 L195.7317 448.8631 L196.3147 448.9546 L196.8834 449.1317 L197.5361 449.4537 L201.484 451.4484 L202.1087 451.5187 L203.8056 451.3789 L204.7824 451.1527 L205.6342 451.0467 L208.5526 450.8985 L210.1053 450.4807 L210.6614 450.468 L211.2433 450.6976 L211.5329 450.9806 L211.8258 451.5094 L212.5613 453.0719 L216.3024 457.468 L216.2574 457.5485 L216.3726 457.6849 L216.2503 458.0434 L215.3338 459.4271 L215.2104 459.4135 L214.923 459.9245 L214.9181 460.0457 L214.782 460.3516 L214.0696 461.4446 L213.6368 462.2216 L214.3038 462.5064 L214.6723 462.5004 L215.4753 462.7987 L217.1163 463.7282 L219.5581 465.2238 L218.2604 469.2969 L223.3315 471.261 L227.9359 473.2471 L232.0949 474.2156 L233.2785 473.1937 L234.4346 472.06 L237.6399 468.4724 L238.1801 468.0166 L238.5558 467.8624 L239.0412 467.7031 L239.6078 467.6429 L239.6785 467.6446 L240.5824 467.6853 L240.9372 467.648 L241.319 467.2091 L241.3091 466.8964 L240.8714 466.077 L240.2511 465.4831 L239.5699 465.3254 L238.722 465.5458 L237.8505 465.6839 L235.6758 465.8533 L233.7041 465.7017 L231.8475 465.339 L230.3678 464.7832 L230.087 464.6357 L229.5676 464.3629 L228.9451 463.8926 L228.679 463.6079 L228.1437 463.0351 L227.5163 462.442 L226.9333 461.7683 L227.0309 461.459 L228.0598 460.4922 L228.7871 459.8559 L229.6959 458.9094 L228.4257 458.4543 L226.9788 457.8485 L225.8067 457.2375 L224.9615 456.6834 L224.8387 456.075 L224.786 455.8131 L224.9599 455.4344 L225.1579 455.1378 L225.7157 454.8489 L226.2493 454.6243 L227.0479 454.4396 L228.4904 454.7158 L228.9006 455.0039 L230.5027 456.1267 L230.8597 455.8903 L232.6658 456.9325 L234.6869 456.1741 L234.9337 456.358 L235.2475 456.5537 L235.044 456.2546 L234.9826 456.164 L234.9908 455.9538 L235.3122 455.4039 L236.3861 454.4616 L237.2675 453.7634 L237.919 453.3499 L238.2903 453.2007 L238.6397 453.0609 L238.7768 453.0058 L239.741 452.8576 L240.9553 452.7423 L241.738 452.7398 L242.6122 452.6847 L243.3318 452.7305 L243.8819 452.8025 L244.5143 452.9838 L244.5818 453.0338 L245.0469 453.3787 L249.1017 457.196 L249.8624 457.9451 L251.188 459.1153 L252.1023 459.7694 L253.275 460.6769 L253.5914 460.8837 L253.6309 461.071 L253.6293 461.2684 L253.5558 461.4989 L250.5255 467.0811 L249.3562 469.3155 L260.0913 450.2553 L264.8722 440.5664 L264.5799 440.9121 L264.2305 441.4392 L263.6547 442.2129 L263.1111 443.1433 L261.1816 447.2327 L260.3847 449.1308 L259.9021 450.2816 L259.7512 450.4544 L259.6125 450.429 L259.4518 450.2002 L259.2115 449.6927 L259.2033 448.9021 L259.0426 448.0894 L258.8106 447.6615 L256.4237 445.9913 L255.9427 445.5956 L255.5867 445.0304 L255.4178 444.1644 L255.3383 443.0467 L255.8675 441.6883 L257.0193 439.1301 L257.6018 438.2717 L260.0556 435.5981 L261.4899 434.7626 L262.5429 434.3075 L263.1084 434.1389 L263.4479 434.172 L263.6058 434.4558 L263.5565 434.7448 L263.1747 435.0194 L261.3917 436.7514 L261.2672 437.0946 L261.407 437.1963 L262.5851 436.3345 L263.8093 435.0812 L264.7538 434.3364 L265.5896 433.8101 L265.9664 433.4712 L266.0098 433.1 L265.9055 432.6729 L265.3571 432.3246 L264.5179 432.0458 L261.2041 430.5425 L260.6364 430.0519 L259.9262 429.4367 L259.7556 429.0486 L259.7754 428.6554 L260.2805 428.0817 L261.141 427.3453 L261.882 426.4834 L261.9615 426.3911 L264.2695 422.6811 L264.4669 422.3438 L266.041 419.9523 L268.214 416.6533 L269.0735 416.0355 L270.732 411.8525 L271.2021 410.017 L270.9432 409.6822 L270.9569 409.3051 L271.3639 408.5958 L271.5224 408.1424 L271.507 407.7068 L271.196 407.3644 L271.1319 406.995 L271.3057 406.045 L272.4262 403.6636 L272.6138 402.9839 L272.6221 402.4534 L272.5562 401.9729 L272.4032 400.6093 L271.2004 398.8288 L271.0035 398.5661 L270.8653 398.1974 L270.8511 397.9372 L270.9075 397.6516 L271.077 397.4466 L271.2915 397.3093 L271.6299 397.1813 L272.0319 397.1542 L272.4926 397.2898 L273.8928 397.9635 L275.6688 398.444 L276.5573 398.6983 L277.5264 398.2839 L277.6482 398.1211 L277.6783 397.7245 L277.7184 397.1923 L278.1325 396.3923 L278.4122 395.6287 L278.4435 394.7668 L278.523 394.36 L279.3435 393.5151 L280.4201 392.7117 L281.2302 392.0583 L281.6893 391.7727 L282.2081 391.6947 L282.5015 391.7252 L284.3038 392.4879 L284.5314 392.3422 L284.6027 391.9964 L284.5599 391.7176 L284.2298 390.887 L284.1272 389.7565 L284.0789 387.953 L284.1288 387.0937 L284.4365 386.1106 L285.4128 385.0419 L286.6737 384.0266 L287.5195 383.4935 L288.148 383.3028 L288.6224 383.2774 L289.1325 383.0528 L290.6484 382.2434 L293.2416 380.6942 L296.7644 379.1881 L297.6348 378.8525 L298.9785 378.4 L299.4151 378.4779 L299.7436 378.6059 L300.5098 379.1246 L300.9503 379.6212 L301.3901 380.2331 L301.6293 380.6204 L301.8344 381.3366 L301.8476 381.6917 L301.8124 381.8985 L301.728 382.0934 L301.2464 382.5909 L299.7469 383.6054 L298.4504 384.5325 L297.2212 385.6843 L296.0931 386.647 L296.0152 386.7547 L296.0311 386.9047 L296.223 387.6556 L296.1583 388.0352 L295.9779 388.4759 L295.7448 388.7192 L294.9819 389.076 L294.0473 389.8802 L293.1955 390.9277 L293.0716 391.2879 L293.0864 391.5244 L293.2663 391.6015 L293.4171 391.5769 L294.7142 390.3777 L295.7168 389.6531 L296.6947 388.8302 L297.3068 388.5785 L297.6485 388.3641 L297.954 388.0395 L298.5787 387.6437 L298.9451 387.5522 L299.255 387.57 L299.7354 387.7539 L300.6305 387.7327 L300.9519 387.7878 L301.8799 388.1522 L302.1273 388.353 L302.2984 388.5946 L302.4114 388.9793 L302.3713 389.5997 L302.2419 389.9057 L301.1565 390.7345 L299.5182 392.082 L298.6429 393.2083 L297.7549 394.0482 L296.9552 395.4482 L296.4188 396.3872 L296.1545 396.9186 L295.9433 397.7601 L295.5841 399.5161 L295.5035 400.9356 L295.7009 401.589 L295.8649 401.722 L295.9762 401.7653 L297.3907 402.328 L298.2842 402.6602 L299.2056 402.7771 L300.1671 402.8365 L301.5613 402.7271 L302.7037 402.3848 L304.4955 402.2178 L305.1405 402.3949 L305.5755 402.4636 L305.8042 402.4551 L306.023 402.3551 L306.1393 402.0687 L306.1623 402.011 L306.17 401.5042 L306.2737 400.0525 L306.6225 399.1195 L307.019 398.3118 L307.0898 398.2601 L307.9415 397.6364 L308.3682 397.0889 L308.733 396.3753 L308.9491 394.9431 L309.1997 393.621 L309.3368 391.7981 L309.6604 388.4658 L309.9659 387.97 L310.2895 387.7056 L310.8341 387.6657 L313.769 388.4234 L316.4466 389.0277 L317.7092 389.5031 L319.4555 391.2345 L320.0867 391.7193 L320.684 392.093 L322.1556 392.9363 L323.6594 393.1405 L324.7328 393.0405 L326.7895 392.9405 L327.1142 392.9608 L327.3868 393.0498 L327.7916 393.2346 L328.0751 393.2956 L328.4196 393.4787 L328.7613 393.7583 L329.0991 394.1075 L329.2894 394.3634 L329.4507 394.7372 L329.9553 395.2914 L330.8081 395.7092 L332.7031 396.5372 L332.7662 396.5245 L333.3371 396.4109 L333.5483 396.2753 L334.049 395.533 L334.858 394.6473 L335.5293 393.9134 L336.8248 391.9659 L337.6009 389.8379 L338.6227 387.7428 L338.7647 387.0632 L338.8267 386.7674 L340.1874 382.7723 L340.6147 382.2324 L341.4396 381.8705 L341.6211 381.7908 L341.7127 381.4112 L341.7198 381.3264 L341.7182 380.7365 L341.7966 379.6789 L342.0396 378.9941 L342.2305 378.672 L342.4082 378.4466 L342.5107 378.316 L342.8387 378.0898 L343.063 378.0584 L343.3055 378.0245 L343.1003 377.6228 L332.9779 376.3778 L332.2736 375.7235 L332.1722 375.6226 L332.165 374.681 L332.4782 374.3183 L332.9642 373.9988 L335.1706 373.9801 L336.0059 374.0251 L336.5467 373.7666 L336.8813 373.5098 L336.9893 373.4454 L337.8981 372.3054 L338.0144 371.919 L338.0824 371.4969 L337.9766 370.49 L337.9903 370.262 L338.0731 369.873 L338.1016 369.562 L338.1428 369.4145 L338.1548 369.0077 L339.5501 367.3906 L339.7399 366.9939 L339.8573 366.577 L339.8298 366.254 L339.5781 365.7794 L339.4909 365.715 L339.2249 365.3684 L337.5565 362.9461 L336.4853 361.0366 L334.7796 358.4956 L334.7576 358.2176 L334.6134 357.5718 L334.5421 357.0217 L334.6776 356.1945 L335.8727 354.0434 L336.4469 353.2695 L337.4457 351.9236 L339.351 347.0407 L339.4997 346.5228 L339.2929 344.7404 L339.1048 344.0004 L338.9868 343.3919 L338.8064 342.9825 L338.9155 342.8816 L336.6849 340.2456 L338.3967 337.7113 L335.4015 336.8773 L334.354 338.1266 L329.0284 352.6966 L324.2968 362.146 L319.8893 361.2264 L317.8655 368.7712 L315.1083 370.546 L307.1282 366.3507 L313.6198 359.5144 L314.2834 353.4162 L314.278 353.3907 L315.093 351.5498 L315.438 350.9421 L316.0808 349.5648 L314.923 348.0637 L314.6526 347.7959 L313.7416 346.689 L313.5293 346.2559 L312.0973 344.3988 L318.1523 333.8971 L309.8431 334.804 L309.0127 334.1039 L308.9332 334.1005 L307.7677 333.1893 L307.7638 333.052 L304.5614 330.3541 L298.6807 329.843 L297.7725 330.2151 L297.292 330.2965 L296.9624 330.2159 L296.6805 330.0778 L296.5993 329.3047 L296.5521 328.2749 L296.5982 327.1891 L297.1697 325.8643 L298.2524 324.9683 L298.6412 324.803 L301.3408 318.0737 L301.2344 317.9194 L296.8022 317.9109 L296.5697 317.9804 L296.1874 318.2085 L294.1252 319.7851 L294.067 319.908 L292.9163 320.8802 L289.585 323.485 L288.1047 324.3902 L284.5177 327.1331 L281.799 329.6234 L280.3647 328.5868 L279.3215 327.8324 L278.0332 326.4584 L277.4047 325.4794 L277.3663 324.97 L275.7373 326.4008 L274.5329 331.0237 L272.2036 337.6401 L272.2754 338.0317 L272.078 338.336 L270.3596 338.9234 L266.8796 339.6981 L264.7488 340.2914 L264.0737 340.4092 L263.2011 340.4711 L263.1747 340.3058 L263.37 337.4765 L263.9766 336.0737 L263.279 335.1032 L261.9264 333.2945 L260.2284 330.8593 L257.7389 327.3459 L257.9034 326.9306 L258.3499 326.6356 L258.6669 326.5449 L259.2203 327.2984 L264.7647 334.849 L266.1386 333.3089 L263.353 329.787 L263.0826 329.103 L263.0486 328.491 L261.8853 326.9229 L261.9083 325.9617 L262.2901 325.7422 L263.1451 326.3686 L263.6678 327.4298 L267.9299 325.0116 L271.8948 324.2088 L271.9337 324.1809 L279.9627 315.997 L280.0219 315.8529 L280.26 315.429 L280.4684 315.2307 L280.9203 315.0222 L282.727 313.1896 L280.566 306.9847 L279.4482 306.1108 L278.998 305.8294 L278.8954 305.6785 L276.8474 304.0772 L279.4976 303.5263 L279.7038 303.2508 L279.6408 303.0482 L277.1655 302.0937 L276.8343 302.042 L276.6851 301.9292 L275.8766 301.6529 L276.2469 301.2808 L276.2123 300.4907 L276.3083 299.9516 L276.4405 299.6083 L276.7284 299.4396 L276.9933 299.4117 L277.4831 299.6015 L277.8944 299.6244 L278.7945 298.7199 L281.2401 295.8777 L281.6405 295.2029 L282.0008 294.7316 L280.4289 294.2442 L281.3404 292.7717 L281.33 292.6149 L281.6728 292.2343 L282.6118 290.7178 L286.5662 293.1252 L286.8821 293.0684 L288.5358 292.6039 L288.1946 290.8153 L288.3378 290.7102 L288.1952 290.0481 L295.4058 287.7458 L296.4227 287.3558 L296.8423 287.2871 L296.9651 287.2507 L296.9755 287.2838 L297.2388 287.2761 L297.5125 287.4847 L297.779 287.778 L298.4103 289.8421 L298.7361 291.0492 L299.0367 291.3586 L303.0366 289.6073 L306.5243 287.4652 L306.8704 287.1464 L307.749 287.1456 L308.1845 287.6517 L308.3781 287.7415 L309.6045 287.9246 L309.6851 287.8619 L310.3811 287.611 L311.0607 287.6771 L311.568 287.9221 L312.1839 288.3086 L313.3 288.4748 L313.7377 288.2061 L314.4063 288.1662 L315.3036 288.34 L315.6689 288.6155 L316.5234 288.9393 L318.5785 289.236 L319.3079 291.0408 L319.3968 291.1111 L321.1502 291.3866 L321.3279 291.3095 L322.579 289.1614 L322.8867 288.8367 L323.1894 288.3264 L326.0486 285.4951 L327.1526 284.3007 L328.1563 285.0306 L328.9165 285.0874 L329.3459 285.2382 L329.4847 285.3832 L329.584 285.5739 L329.5615 286.0512 L329.6975 286.1741 L329.3262 286.5047 L326.059 289.5853 L325.8078 289.8964 L325.4749 290.594 L327.7428 296.2871 L327.6199 296.9008 L327.6292 297.3976 L327.587 297.7163 L327.6682 297.9325 L327.8656 298.0062 L328.1283 297.9384 L328.311 297.7867 L328.6154 297.3408 L329.1507 296.7635 L329.5823 296.143 L329.9816 296.0158 L330.3321 296.2244 L330.58 296.594 L331.7213 297.5501 L333.5093 299.3557 L333.46 302.6023 L333.104 302.9702 L333.1391 303.0092 L333.2219 303.2847 L332.979 303.6627 L332.4316 304.1264 L331.6182 304.6799 L330.8076 305.347 L329.3761 306.8279 L328.9724 307.3585 L328.0154 308.502 L326.97 309.3175 L326.648 309.6447 L325.0394 310.5135 L323.5832 311.4154 L321.3482 313.0539 L319.5668 314.0279 L317.9209 314.8416 L317.4168 315.0451 L317.0746 314.9594 L318.4649 316.3852 L321.8435 319.0298 L327.757 316.6556 L329.2812 315.5477 L334.4653 310.4635 L336.7968 307.6646 L338.1027 305.681 L339.8913 303.3711 L342.1652 299.9957 L342.8788 298.9488 L343.1289 298.3597 L343.0038 297.8977 L342.7658 297.5044 L341.5564 296.7169 L341.4259 296.6999 L340.4156 297.1212 L339.9516 297.2162 L339.486 297.0738 L339.4421 297.0551 L337.0606 297.5595 L336.3334 298.2037 L335.8886 298.4809 L334.8075 298.8098 L334.4297 298.7801 L333.9525 298.4555 L333.7194 297.913 L333.6146 297.2034 L333.5943 296.577 L333.6909 296.2447 L335.1838 294.6078 L337.2811 292.2301 L338.0846 291.2196 L340.0964 288.446 L341.9173 286.2741 L341.8674 286.2436 L340.9109 285.5163 L340.3114 284.8542 L340.2675 284.4914 L339.5534 283.7921 L355.4973 268.16 L355.7106 268.3957 L356.1873 267.8404 L356.5756 268.1897 L357.0346 269.2146 L357.3983 270.148 L357.4542 270.32 L359.183 272.2291 L362.2034 269.9504 L362.2642 269.7427 L362.8813 269.3078 L363.1072 269.2688 L363.3184 269.1095 L363.4336 269.212 L363.8926 269.3104 L364.2969 269.5206 L366.0986 271.829 L367.6178 273.6313 L367.8542 273.9255 L368.4411 274.5519 L368.576 274.4663 L368.4098 274.2603 L368.65 273.6372 L369.0427 273.2278 L369.5539 272.9972 L370.0311 273.5474 L375.1378 270.3217 L380.3482 275.6794 L380.6998 276.6102 L380.753 276.6594 L381.1358 277.1782 L381.6629 278.0496 L382.1291 278.9202 L382.2711 279.6951 L382.2794 280.2071 L382.3869 281.0853 L382.2547 281.7203 L381.7753 282.7595 L380.9472 283.9879 L379.8766 286.5827 L379.3709 288.4697 L379.0544 289.2394 L378.7736 289.5522 L378.5893 289.7031 L378.3014 290.3999 L378.371 290.5915 L378.2465 290.7881 L378.1494 290.8449 L378.4549 295.0469 L376.3373 299.3905 L380.0543 298.6343 L382.8854 295.3063 L389.7522 285.7308 L399.1386 278.1208 L411.704 272.9243 L427.3846 260.5472 L431.0648 251.0183 L430.9441 243.6341 L423.2217 211.5355 L437.9151 186.9299 L438.6281 174.7877 L449.1872 153.3946 L445.2536 153.3683 L437.1198 149.1623 L429.1671 138.274 L415.5213 131.685 L411.2213 121.6697 L405.8573 115.8012 L402.3691 114.5122 L400.4741 120.4833 L400.7484 120.6147 L400.9091 121.4755 L400.8361 122.3108 L400.6584 122.6848 L401.0583 123.8068 L399.5664 126.5798 L396.9821 127.5305 L396.9936 127.5856 L396.9311 128.3878 L397.1367 130.3366 L393.1576 130.1042 L390.9248 130.9548 L390.0292 130.8734 L387.9297 129.8252 L387.7684 129.7905 L370.9585 128.8102 L370.8598 126.6731 L367.9524 126.2491 L365.2068 126.1092 L364.9298 125.9633 L364.4066 125.8268 L363.9305 125.6623 L359.0239 124.9601 L345.813 116.2464 L343.4821 115.0015 L342.4619 114.6037 L341.9508 114.251 L339.3099 113.5818 L328.6115 113.3758 L328.656 113.1985 L328.1448 113.1875 L327.881 112.677 L327.8909 112.6295 L319.337 122.3142 L310.8358 125.7996 L306.5633 118.8203 L307.754 117.1454 L308.128 116.3151 L309.3977 114.502 L312.1565 110.2693 L313.4586 108.4748 L314.1562 108.1432 L314.5544 107.5835 L315.4083 107.5801 L316.3336 107.1671 L316.1186 107.5775 L316.8689 107.575 L313.5288 99.6454 L326.6354 91.7234 L327.9644 94.4169 L328.2474 94.3678 L329.2483 93.7096 L329.884 93.4187 L330.8103 92.8259 L330.2756 90.5343 L330.0041 90.2019 L329.9103 89.3648 L329.9114 88.9467 L329.8017 88.4692 L333.5104 81.088 L333.4907 78.3443 L334.9798 76.4979 L335.0319 76.4793 L335.4476 74.3318 L335.4065 74.3029 L335.1942 74.1028 L334.9935 73.4997 L334.9447 72.6754 L335.2814 71.5863 L336.3849 69.2768 L337.0563 68.17 L337.7501 66.6247 L339.0154 63.5306 L340.7348 60.4585 L342.4685 56.3644 L342.8113 55.5255 L342.9161 55.4619 L343.131 55.0285 L343.7113 54.4382 L344.3695 54.0777 L345.0073 54.1888 L347.7047 52.5467 L347.7414 52.4712 L347.8149 52.4789 L348.5647 52.0225 L351.477 50.2074 L355.1518 50.5552 L354.3345 48.8503 L355.7715 46.5178 L341.8954 51.3355 L327.5201 42.7009 L326.308 44.4397 L325.0959 46.17 L324.1492 46.8113 L322.6985 46.796 L320.2398 46.1564 L317.9209 45.2641 L314.3536 42.7221 L312.0013 39.5633 L309.1142 37.1816 L306.5194 35.0483 L305.8113 32.8226 L305.3226 29.4839 L304.7835 24.0654 L303.6131 21.1525 L302.6028 18.383 L301.4433 15.722 L298.6226 11.2957 L295.7108 7.4615 L290.5678 3.7189 L287.8458 2.7103 L286.1582 2.8044 L285.1545 2.3506 L282.9343 1.0213 L282.6107 0.4191 L277.9636 0.0 L265.9231 1.4268 L255.8445 0.3571 L249.9578 0.8025 L243.5359 2.0961 L239.5222 3.2108 L233.0563 7.6702 L222.6059 16.2301 L208.8509 18.3278 L197.3282 20.6181 L190.9359 24.6167 L188.3855 27.0342 L186.8443 28.0309 L187.2211 29.3363 L186.7429 31.1634 L185.5099 30.8589 L183.7916 30.456 L182.4506 30.8733 L174.7501 30.0616 L169.9873 29.8385 L165.876 25.2037 L162.7558 24.5234 L155.3778 23.5734 L151.1722 25.3123 L149.823 23.3783 L149.7939 23.3978 L150.5376 25.0994 L151.3098 26.1232 L152.522 26.3633 L153.9584 26.0749 L154.8151 26.007 L155.2303 26.8985 L155.4338 26.9579 L155.42 27.3082 L156.0031 28.5653 L156.466 29.4746 L157.5985 30.1371 L159.2401 31.5578 L163.7041 31.6825 L166.0822 32.4731 L165.8376 33.2738 L163.828 32.7818 L162.4338 32.7606 L159.9279 33.1491 L155.9647 34.9389 L150.2354 35.2977 L148.6119 35.5691 L147.5051 35.9474 L147.0318 35.9627 L146.1537 35.7532 L144.9652 35.1433 L144.6701 35.0797 L143.752 34.8812 L142.185 34.9821 L141.2713 34.9982 L140.5819 33.6835 L139.9292 31.7054 L140.0954 30.8131 L142.1582 28.9071 L144.6926 27.1725 L146.8706 25.5159 L146.8201 24.6006 L146.361 23.7939 L143.6961 24.9425 L142.2086 27.3498 L139.5831 29.0301 L138.1171 31.3339 L135.5985 31.954 L133.9932 32.5342 L132.8556 29.4568 L135.2195 28.6543 L134.7287 26.8035 L128.1734 28.4533 L118.4069 30.5272 L100.4573 32.6012 L98.0413 31.8004 L92.1102 31.5765 L92.2385 32.2983 L91.9369 32.6987 L87.6161 33.8633 L82.9212 36.0416 L76.1554 45.4736 L76.8113 45.6034 L76.5985 46.0479 L74.6707 47.9512 L73.9352 48.2744 L72.1697 48.6866 L70.4886 48.5144 L68.5635 49.6128 L72.3166 49.3338 L78.4616 49.3465 L78.6448 48.6035 L79.0545 47.2447 L80.7597 46.6331 L81.4162 46.8392 L80.9665 54.6714 L83.7132 56.1769 L84.9385 55.3016 L88.4503 54.8224 L89.8719 55.1795 L92.7716 55.9081 L91.7444 59.668 L103.9192 62.7494 L109.8783 64.4848 L113.8442 65.5136 L117.1931 66.2599 L117.1674 67.0301 L116.7165 67.684 L115.8066 67.3201 L112.212 66.3753 L106.9621 65.1124 L112.8241 67.7128 L115.3196 68.3608 L116.9639 68.9384 L117.4816 69.5618 L117.7751 70.2098 L117.871 72.6762 L117.8283 74.9509 L117.2365 74.939 L117.2409 75.0832 L117.7893 75.1621 L117.7926 77.8761 L117.9264 78.8515 L117.8979 79.5215 L117.395 79.8277 L117.3703 79.8201 L117.4208 81.6681 L121.8463 83.0819 L125.3526 83.6095 L127.0085 83.8224 L127.0951 83.8715 L127.7692 83.9725 L128.6248 88.0434 L133.5599 98.4886 L133.8204 98.8041 L134.4045 99.9228 L134.4879 100.4528 L134.5904 100.6699 L134.8937 101.2738 L132.316 107.8549 L112.2915 106.2011 L109.5492 97.822 L109.7357 94.0226 L110.1766 93.9598 L110.1958 93.1914 L111.9849 92.9022 L113.9259 92.8183 L114.0515 92.7581 L112.6096 89.9305 L111.6092 88.9085 L110.1256 87.6779 L109.0122 86.8264 L107.5144 86.4405 L106.5085 84.9122 L105.0013 83.7596 L103.2901 82.0956 L101.2399 81.0804 L98.9638 78.1204 L94.8339 78.9855 L92.6718 79.2255 L95.2348 80.7097 L95.5776 81.133 L95.6648 81.5901 L99.6768 86.6958 L100.5324 87.4243 L100.5922 87.8602 L101.1961 88.6286 L101.4045 89.9169 L103.1996 90.9948 L106.9977 93.5722 L107.1864 94.0938 L107.2506 94.7011 L107.2401 94.9309 L107.8051 95.2014 L108.6047 100.6072 L108.7259 101.0855 L110.6077 105.6159 L107.8627 104.8179 L107.2226 104.7874 L105.6002 104.5609 L104.466 104.2446 L103.1952 103.8731 L102.7641 103.3346 L82.8949 97.5566 L82.8137 97.7415 L82.3727 100.5868 L79.8004 100.5868 L79.0617 103.5882 L79.9699 103.9181 L81.3669 104.1081 L81.5928 104.5821 L82.2521 104.7 L81.4963 109.8249 L73.6703 107.2654 L70.5511 107.7658 L66.9916 108.5604 L66.215 109.2966 L63.9992 111.2997 L67.0437 112.4234 L67.5582 112.66 L68.8438 113.1756 L69.9665 113.3088 L71.7144 113.5683 L74.4995 114.3841 L79.031 116.0183 L80.2869 116.6136 L81.0301 117.064 L80.8771 118.1461 L80.9336 118.8991 L81.4135 119.3155 L82.002 119.5292 L83.8426 119.2188 L87.1888 120.3892 L92.3543 120.9794 L92.8172 120.8641 L93.1479 121.0693 L94.4664 121.2202 L87.2705 126.6392 L86.9963 132.8128 L85.2412 135.1449 L86.9799 145.8467 L81.0948 145.3413 L80.9769 145.3557 L80.3144 145.5253 L80.1306 146.3199 L80.5974 146.899 L82.5055 146.7956 L83.3764 146.7871 L85.403 147.3001 L85.7025 147.5986 L85.8199 148.0608 L85.8506 148.4704 L86.031 148.5009 L85.8336 148.7909 L85.7891 149.2149 L85.674 149.7178 L84.8902 150.9126 L84.0894 151.7258 L83.3616 152.8002 L81.8215 154.6912 L78.4183 159.695 L78.3322 160.1199 L77.9554 160.6049 L77.7925 160.6151 L77.3093 161.3257 L81.6416 161.809 L83.371 162.2805 L80.4805 174.5757 L79.2575 178.3405 L78.9026 181.3065 L78.8927 182.0188 L79.1077 182.7166 L79.241 183.618 L78.8543 184.7932 L78.8483 185.2188 L75.7418 194.0353 L79.999 196.1169 L86.1873 198.775 L91.8107 204.8925 L91.022 205.7361 L95.1136 213.0447 L93.4243 213.9586 L88.2693 216.7481 L83.6287 219.2594 L81.1124 220.5447 L82.4868 224.9424 L81.8172 227.9649 L79.3513 227.3698 L79.2476 227.3545 L79.1324 227.441 L79.0529 227.6148 L79.0661 229.0756 L79.0589 229.4232 L78.2774 229.4071 L78.2839 229.0603 L78.3042 228.5253 L78.2313 227.9912 L76.3742 227.5444 L73.7174 226.7932 L67.0289 224.2608 L65.5409 224.9263 L62.8128 225.6402 M77.2007 193.7606 L77.2764 193.1467 L78.6536 191.0583 L79.1637 190.2851 L80.0105 189.6712 L80.9473 188.992 L80.7926 190.7938 L80.5392 192.3785 L80.6215 196.0151 L78.9564 195.2622 L77.2901 194.1947 L77.2007 193.7606 M79.2931 230.9993 L79.9332 229.8708 L81.1908 230.5839 L80.5507 231.7123 L79.2931 230.9993 M83.343 227.201 L83.8426 225.6928 L84.8381 226.0217 L87.1197 226.9314 L87.3726 227.1883 L87.2826 227.4062 L86.925 227.7657 L86.4967 227.8106 L83.8865 227.3511 L83.343 227.201 M83.5722 233.1417 L83.8958 231.246 L84.2227 230.4016 L85.6597 231.0383 L84.7257 233.6496 L83.5722 233.1417 M84.6039 224.438 L84.8244 223.8055 L87.4285 224.0997 L88.8699 225.0119 L91.2826 225.4681 L93.7243 225.8208 L95.2101 226.3507 L96.4167 227.0272 L95.99 227.5275 L91.3709 227.3214 L90.1352 226.689 L87.502 226.3066 L86.3398 226.0709 L84.9423 225.5859 L84.6478 224.7474 L84.6039 224.438 M84.8035 233.6275 L85.6838 231.0824 L88.6905 232.0336 L88.8342 232.0786 L88.0389 234.6152 L84.8035 233.6275 M86.3283 222.3989 L86.4429 221.6723 L87.5014 221.128 L89.6092 220.0894 L91.6336 219.2119 L93.834 218.3344 L94.7565 218.0215 L97.1314 217.0558 L98.7916 216.7803 L99.0203 216.9185 L99.6982 217.328 L100.6311 217.7655 L101.5246 218.4065 L102.8694 219.5587 L103.6773 220.983 L104.2121 222.4286 L105.1428 224.1472 L106.2304 225.396 L106.0335 225.9225 L103.7119 227.229 L102.9034 227.5512 L101.7166 227.4622 L100.5352 227.0586 L99.718 226.6321 L99.3258 226.1752 L98.2387 225.6546 L95.4344 225.0866 L94.3847 224.8449 L92.77 224.5414 L89.0827 224.2972 L88.4212 224.0454 L87.3577 223.5299 L86.512 222.7194 L86.3283 222.3989 M91.0083 229.8522 L91.2529 229.0663 L91.5409 227.9726 L92.6011 228.2142 L94.5053 228.5686 L93.5022 230.2956 L93.0547 230.5966 L91.6089 230.522 L91.0582 230.3278 L91.0083 229.8522 M105.2635 435.0405 L105.4198 434.8558 L105.6364 434.8101 L108.0519 435.9015 L108.7391 435.8973 L109.1143 435.6888 L109.1345 435.6329 L109.6885 434.111 L109.9386 433.8008 L110.1838 433.6601 L110.4163 433.6203 L110.7328 433.6991 L112.7791 434.2889 L119.3283 435.9684 L122.0141 436.826 L122.9981 436.8582 L123.6244 436.9294 L126.4348 437.3514 L128.5639 437.9759 L129.8166 438.4784 L133.5972 439.1885 L134.8213 439.2038 L135.8464 439.0725 L137.2779 438.6674 L140.187 438.7191 L141.0327 438.6979 L144.2012 438.3844 L144.9625 438.503 L145.642 438.9369 L146.1197 439.1157 L146.3808 439.2716 L146.332 439.4614 L146.1164 439.5911 L145.2093 439.6105 L141.8697 439.8961 L134.5641 440.8248 L133.1068 441.2782 L131.7977 441.8197 L129.3197 442.8908 L126.7551 444.0754 L124.8245 444.7474 L123.9234 444.8965 L122.9997 444.9033 L120.1115 444.3974 L118.9087 444.15 L115.839 443.2958 L112.9749 442.3662 L109.7148 441.5943 L106.9621 440.6299 L106.707 440.4579 L106.5447 440.2224 L106.395 439.8936 L105.5432 436.965 L105.2673 435.3626 L105.2635 435.0405 M107.0657 228.0209 L107.2473 227.5724 L107.5829 227.1993 L108.0722 226.8407 L110.5545 225.519 L111.3015 225.1722 L112.7369 225.9429 L113.6714 227.0103 L113.8656 227.4757 L113.9605 228.1625 L113.6874 228.5508 L113.5881 228.6924 L112.4462 229.6038 L111.4238 230.2719 L111.2017 230.3532 L110.136 230.7458 L109.6177 230.7458 L108.6546 229.9683 L107.4793 228.7517 L107.1798 228.3075 L107.0657 228.0209 M107.0701 441.5485 L107.1809 441.5367 L108.0628 442.229 L109.6046 443.0077 L111.7562 443.9212 L115.2582 444.744 L118.6542 445.5024 L119.9991 445.7193 L121.0593 445.7752 L122.7403 445.9956 L123.3721 445.8981 L124.361 445.4253 L125.3642 445.0812 L126.3914 444.6804 L127.2926 444.3169 L127.9162 443.9983 L127.7829 444.6177 L126.9607 445.7312 L125.5018 447.1124 L124.8749 447.7606 L124.1619 448.6029 L123.6365 449.1258 L121.118 449.7308 L120.3775 449.8096 L119.5559 449.8426 L118.895 449.8054 L117.9034 449.6045 L117.0582 449.2732 L116.3918 449.1825 L115.7649 449.2495 L114.3746 449.5427 L111.9109 449.9418 L110.849 450.1621 L110.1459 450.1604 L109.5102 449.9291 L107.5325 443.1365 L107.4387 442.3951 L107.0701 441.5485 M108.0606 33.0109 L108.1917 32.5825 L108.6607 32.4638 L113.2996 31.9251 L117.8716 31.1863 L125.6137 29.6129 L127.9107 28.9165 L128.4317 28.9224 L128.7564 29.394 L128.7191 30.1269 L128.7295 31.0922 L128.084 31.4289 L126.9454 31.8717 L124.6978 31.9489 L122.4398 32.1508 L121.5737 32.3501 L120.7329 32.6461 L116.5141 33.6852 L114.8989 34.279 L113.7197 34.48 L112.0579 34.4342 L110.4585 34.3511 L109.5607 33.6716 L108.0606 33.0109 M112.6305 479.2351 L112.6376 478.3564 L112.7742 477.4566 L112.8241 477.2371 L112.8981 477.0541 L112.9628 476.949 L113.0517 476.8626 L113.1542 476.8202 L113.2568 476.8075 L114.4963 476.9465 L117.763 477.6184 L118.3449 477.7421 L118.3701 477.8591 L117.1877 480.9687 L116.9156 481.2568 L116.6315 481.2983 L116.3628 481.3372 L115.5472 480.9695 L114.5907 480.7035 L113.9073 480.3645 L113.1548 479.8112 L112.6305 479.2351 M114.2594 35.8728 L116.0935 35.4045 L116.926 35.1984 L118.8298 34.4664 L120.8009 33.5062 L123.597 33.1856 L125.051 33.4723 L125.9521 33.6877 L127.6178 33.3111 L128.9215 33.4341 L129.4881 33.9329 L129.7694 34.4223 L129.8649 35.3248 L129.748 35.961 L129.3581 36.788 L127.8805 37.2486 L126.104 37.5904 L122.6657 37.5819 L121.9725 37.4309 L120.1921 37.2291 L118.8062 37.2842 L117.6571 37.291 L116.8004 37.2664 L114.9187 36.8991 L114.2918 36.1756 L114.2594 35.8728 M118.6586 482.3693 L118.9998 481.9117 L118.9943 481.4982 L119.5669 479.9748 L120.2048 479.2859 L121.0083 479.1139 L121.5721 479.1292 L122.7101 479.7655 L122.7518 480.162 L123.0261 480.6924 L123.5844 480.9255 L124.0983 480.9678 L124.5228 480.7823 L125.5814 482.3227 L125.939 483.2267 L126.6925 483.9766 L127.8147 484.5765 L129.0208 485.506 L129.6927 485.8635 L130.975 485.9262 L132.1536 485.9465 L132.8068 486.199 L133.7968 486.6761 L133.997 486.9845 L134.2987 487.165 L133.1359 488.0182 L132.1086 488.9934 L131.3951 489.9805 L131.2629 490.1017 L131.1291 490.1389 L130.9936 490.0847 L130.874 489.9669 L130.7698 489.7712 L130.4901 489.5865 L125.9664 487.0319 L122.2851 484.7349 L122.3004 484.3731 L122.2593 483.841 L122.3339 483.5343 L122.2719 483.2344 L122.0311 483.053 L121.4218 483.1411 L121.3675 483.353 L121.0675 483.6224 L119.6738 482.576 L119.3316 482.6658 L118.9614 482.7048 L118.736 482.5218 L118.6586 482.3693 M119.2406 59.6468 L119.5663 57.8105 L119.7068 55.9547 L121.2935 56.0624 L121.266 55.9428 L120.1861 55.4975 L119.8515 55.1498 L119.6492 53.9589 L119.4577 53.5196 L119.4479 53.0684 L119.8022 53.0921 L121.345 53.7944 L123.156 54.5069 L124.4949 55.3695 L124.9813 55.5713 L125.028 55.2134 L124.9364 54.7096 L124.3287 53.1557 L124.5821 52.584 L125.0488 52.2974 L125.1656 52.3135 L125.7316 52.3932 L126.7573 52.6383 L129.7393 53.9148 L132.5622 55.0497 L133.3169 55.3534 L135.3616 56.4628 L135.5541 56.7545 L135.7345 57.0294 L135.921 57.8529 L135.9238 58.819 L136.1486 59.355 L137.3854 60.5662 L139.1487 61.6977 L139.4394 61.4831 L139.8217 61.4806 L140.2643 61.6867 L141.3459 63.098 L142.1318 64.4559 L142.7511 65.9012 L142.9595 66.7917 L140.8907 65.8757 L139.2694 65.3736 L138.8537 65.2735 L137.1715 64.6222 L133.4332 63.3211 L128.3473 61.6638 L127.1088 61.45 L126.1874 61.4865 L123.365 60.9852 L121.973 60.618 L120.5711 60.1574 L119.2406 59.6468 M131.4966 37.6006 L131.5777 36.3418 L131.7565 35.5369 L132.1947 34.6047 L132.5332 34.1517 L132.9237 33.8752 L133.6005 33.4545 L134.3365 33.1814 L135.3775 32.9243 L136.1656 32.7929 L136.4854 32.8319 L136.7218 33.0015 L137.075 33.8642 L138.1516 39.1274 L138.2152 39.3996 L140.3625 42.6814 L140.9022 43.5304 L141.2444 44.2862 L141.6541 47.3371 L142.3441 49.5034 L142.5481 49.7138 L142.9222 49.8079 L143.4482 49.7273 L143.8173 49.5424 L144.2412 49.534 L145.4276 49.8885 L147.5666 51.3177 L148.9558 51.6536 L149.1643 51.5187 L149.2877 51.5001 L149.5932 51.2405 L149.8866 50.7647 L150.1186 50.1345 L150.1186 50.1336 L149.9754 49.5051 L149.9458 49.3032 L149.3085 48.2099 L149.2109 47.6925 L149.495 46.6883 L150.2722 45.0317 L150.6539 43.1555 L150.7312 42.6076 L150.8853 42.108 L151.2385 41.6873 L151.5539 41.6304 L152.9059 41.7466 L154.3642 42.0995 L156.9146 42.2649 L158.9856 42.5601 L159.3224 42.7407 L159.5357 42.985 L159.754 43.1496 L159.9109 43.4083 L160.054 43.8476 L160.0463 45.0012 L160.167 45.354 L160.7868 45.7128 L163.4825 46.9062 L164.5975 47.4711 L165.175 48.2379 L165.2507 49.1735 L164.8383 50.5196 L164.2909 52.087 L164.4785 52.4441 L166.7168 54.0658 L167.9404 55.0684 L168.2338 55.7164 L168.2964 56.3135 L168.106 57.3525 L168.1784 57.6841 L168.4324 57.959 L168.9945 58.0124 L169.8529 57.7104 L171.0178 58.316 L171.4835 58.5925 L172.4011 58.5993 L172.9057 58.5713 L173.5062 58.6349 L174.2922 58.836 L175.8229 59.7418 L177.0109 60.506 L178.1407 60.9581 L178.8329 61.2838 L179.0748 61.6951 L179.1077 62.221 L178.5664 63.7579 L177.4426 67.9851 L177.0005 69.8425 L176.3719 71.6669 L175.8158 72.0486 L175.0118 72.2564 L174.2774 72.4989 L173.2627 72.6414 L172.0018 72.5617 L171.5839 72.2369 L169.3977 69.5109 L168.0912 68.1725 L166.7798 67.4024 L166.4946 67.1564 L166.3652 67.1539 L166.2133 67.2514 L166.1765 67.5152 L165.9873 67.7137 L165.6028 67.7544 L162.8682 66.6043 L160.4933 66.4881 L152.0388 66.9393 L148.3701 67.3668 L145.9552 67.5856 L145.9546 67.5856 L144.7047 67.8943 L144.4217 67.6645 L144.3092 67.3676 L144.1858 66.8129 L144.3131 66.6374 L144.5286 66.5695 L145.3129 66.4906 L145.3146 66.4906 L152.3119 65.975 L154.5584 65.712 L160.6919 65.2396 L161.2996 64.7044 L158.6856 64.8758 L154.9193 65.0869 L151.3499 65.3897 L148.6087 65.7188 L145.2954 65.9572 L144.9098 65.8545 L144.6219 64.9037 L144.5999 64.3406 L144.7146 63.6493 L144.5018 60.7537 L144.3164 59.4059 L144.5456 58.59 L144.8583 58.2159 L145.336 58.1413 L145.8581 58.2558 L146.5684 58.5459 L147.1942 59.5264 L150.2623 60.411 L150.6616 60.5221 L151.012 60.3873 L153.4609 61.1625 L156.7929 61.869 L158.1881 62.0124 L158.8995 61.8521 L158.1147 61.545 L153.7275 60.1235 L151.725 59.4127 L151.7245 59.4119 L149.4253 58.4212 L148.4112 57.8003 L147.4273 57.0234 L147.4267 57.0226 L146.5278 55.8597 L145.3585 54.5595 L143.6681 52.8029 L142.0441 51.3058 L138.2575 47.3821 L137.3223 46.4923 L136.3762 45.3583 L133.5857 41.6661 L132.3692 40.2156 L131.8986 39.2962 L131.5881 38.4658 L131.4966 37.6006 M137.4968 397.3059 L138.331 395.7228 L139.7252 392.6549 L139.9824 392.2507 L140.64 391.7286 L141.1172 391.4964 L141.4868 391.0201 L141.5751 390.4379 L141.6064 390.2319 L141.8812 389.5845 L142.1121 389.3573 L142.5361 389.2031 L144.0624 388.9344 L144.8407 388.698 L145.4341 388.67 L145.9854 388.9717 L146.3819 388.9607 L146.9408 388.7556 L147.8002 388.1802 L148.1628 388.0666 L148.618 387.9954 L149.0173 388.0835 L149.2504 388.1963 L149.7451 388.6115 L150.5574 389.226 L151.7261 390.0014 L152.8335 390.954 L154.2973 391.9981 L155.4842 392.7456 L156.3047 393.1337 L157.5218 393.5871 L163.8346 394.9863 L164.5756 395.3363 L166.2127 396.5881 L168.253 398.5127 L168.6254 399.0059 L168.813 399.4313 L168.264 399.2356 L165.6599 398.161 L163.9174 397.5449 L158.198 395.9135 L157.1576 395.7075 L155.68 395.4999 L154.0648 395.5982 L153.5459 395.8092 L153.2267 395.8499 L152.8817 396.033 L152.5395 396.3618 L152.0009 397.1245 L151.5923 397.7669 L151.2632 398.7262 L151.0411 398.8644 L151.0219 399.2652 L151.0921 400.2915 L150.6802 400.4432 L150.446 400.4678 L149.5454 400.3178 L148.6789 400.0356 L147.0576 399.6381 L145.3596 399.4068 L144.8632 399.4152 L143.5567 399.4102 L142.2048 399.1966 L140.9422 398.8568 L139.4394 398.333 L138.6787 398.0974 L137.9871 397.9661 L137.5554 397.7135 L137.4968 397.3059 M142.8772 434.9168 L143.0933 433.6059 L143.2584 433.2898 L144.2555 433.4203 L148.2724 433.8135 L148.8917 433.9821 L149.0973 434.5779 L149.6639 436.5294 L149.8021 436.8921 L149.773 436.8904 L149.9261 437.6853 L149.9047 438.3462 L150.0583 438.575 L150.3105 438.3573 L150.4219 438.1073 L150.4954 437.7929 L150.7208 437.6853 L151.6674 437.8234 L152.3722 437.8302 L156.8027 438.4115 L157.7263 438.3284 L159.0778 438.0319 L160.054 437.8675 L160.9595 437.7632 L161.514 437.8039 L162.4283 437.998 L165.1153 438.2649 L166.1535 438.4301 L166.7162 438.6733 L167.2356 439.4572 L167.715 439.6597 L171.7956 440.391 L172.8047 440.6138 L173.2473 440.6816 L173.6861 440.7113 L173.9752 440.696 L174.1051 440.4834 L174.0015 440.2266 L173.9834 439.9063 L174.0936 439.7953 L174.3558 439.7444 L174.9915 439.7029 L176.9769 440.1419 L177.7223 440.3342 L178.1084 440.6622 L178.0042 441.0435 L177.8298 441.2452 L177.5522 441.4511 L176.446 441.5222 L175.0874 441.6816 L173.9187 441.6833 L172.7493 441.6078 L167.2488 440.5003 L166.3658 440.2698 L162.7355 439.9656 L161.2162 439.6902 L159.9833 439.6597 L158.5655 439.4733 L155.312 439.2496 L154.5293 439.3114 L153.9315 439.436 L152.5702 439.6419 L150.7734 439.8478 L150.3402 439.7944 L150.0807 439.5843 L149.8997 439.3885 L149.6304 439.3716 L149.3699 439.4377 L149.0195 439.6614 L148.0223 439.6266 L147.696 439.5004 L147.5512 439.2165 L147.5024 438.8233 L147.5562 437.9598 L147.6428 437.4599 L148.0174 437.2158 L148.0421 436.9446 L147.9324 436.8167 L147.7646 436.7633 L145.2992 436.4828 L144.2511 436.4718 L143.6851 436.3938 L143.0714 436.221 L142.8937 435.3634 L142.8772 434.9168 M144.918 68.8307 L145.308 68.5364 L145.8532 68.3405 L146.6364 68.2268 L148.2823 68.1751 L150.4685 68.3057 L151.5561 68.304 L152.4995 68.3549 L152.919 68.4236 L152.8845 68.8044 L152.245 69.8536 L149.4176 72.5685 L148.6454 73.6422 L148.1809 73.8755 L147.8106 73.8458 L147.0236 72.4031 L146.2612 70.9044 L144.918 68.8307 M151.561 400.2424 L151.6828 399.5169 L152.1792 398.2347 L152.5812 397.5288 L153.1132 397.0669 L154.4136 396.6448 L155.5742 396.422 L156.4945 396.3084 L160.3891 396.9381 L162.7355 397.5932 L165.1185 398.3822 L168.355 399.6559 L170.0432 400.228 L170.748 400.3907 L171.5745 400.5483 L172.395 400.5763 L173.0526 400.5059 L174.6399 400.5602 L175.6611 400.8271 L178.6558 401.2526 L180.5299 401.4204 L182.1522 401.6237 L182.9568 401.9051 L186.1067 403.3305 L187.7438 403.878 L187.3632 405.5704 L186.6003 408.6246 L186.1982 410.3915 L185.6942 412.2068 L185.4962 412.7949 L185.2659 413.1313 L185.0059 413.1822 L184.8348 413.0779 L184.7344 413.0169 L183.0588 412.089 L182.2411 411.7763 L179.9929 412.8102 L179.2673 414.0839 L179.0517 414.1372 L178.6569 414.1644 L178.5307 414.055 L178.5406 413.739 L178.4852 413.3313 L178.4462 412.3093 L178.1545 411.4975 L177.8906 411.2246 L177.4886 410.9653 L177.159 411.0381 L176.7652 411.5695 L176.6615 412.3746 L176.1421 412.5788 L175.8098 412.3051 L175.3315 411.8347 L174.9043 411.6915 L174.5379 411.7686 L174.3388 412.0153 L174.0371 412.6695 L173.6472 412.9559 L173.3049 412.8127 L173.0 412.3974 L172.6715 412.3246 L172.4268 412.4635 L172.2694 412.7941 L171.9447 413.4762 L170.3509 412.7847 L167.7473 410.5043 L167.1956 410.0763 L166.4908 409.4636 L163.3733 406.9873 L163.1567 406.7856 L162.6208 406.2865 L161.3347 405.2509 L159.8835 404.2399 L158.6971 403.278 L158.1064 402.8966 L157.5673 402.4771 L156.9289 401.6576 L156.6744 401.2703 L156.223 401.05 L155.8001 401.0949 L155.1343 401.4958 L154.9807 401.5881 L154.503 401.6237 L153.615 401.1619 L152.9371 400.8314 L152.5905 400.7305 L152.2971 400.7009 L151.5863 400.4847 L151.561 400.2424 M167.1298 342.0366 L167.3338 341.9383 L167.5554 341.9374 L169.5765 342.3358 L171.02 342.8342 L172.1307 343.3681 L173.4969 343.9284 L175.4708 344.9684 L179.4872 347.2662 L182.9722 350.1022 L183.0682 350.6573 L182.7638 350.6141 L179.6216 348.3824 L178.5653 347.7128 L177.442 347.0687 L173.3351 345.0904 L172.1027 344.62 L170.663 344.014 L169.2342 343.5275 L167.3958 343.3258 L167.2087 343.0698 L167.1298 342.0366 M169.328 90.0747 L169.4602 88.0672 L169.5227 86.1962 L169.5611 85.0352 L169.6922 83.1574 L169.9807 81.7623 L170.4249 80.0278 L170.7436 79.0652 L170.935 78.4859 L171.1111 77.4792 L171.4676 75.1248 L171.416 74.2707 L171.2394 73.3233 L171.331 72.9612 L171.5866 72.8424 L171.7846 73.1274 L171.8493 73.4506 L171.8466 73.6762 L171.8361 74.487 L171.9272 75.9271 L172.1312 76.8482 L172.1833 77.6327 L171.9919 78.4274 L171.042 81.3119 L170.8522 82.2677 L170.725 82.657 L170.5643 83.5255 L170.5122 84.3363 L170.5319 85.684 L170.9701 85.8723 L171.0464 87.37 L171.6063 89.1121 L172.2365 93.2169 L172.6111 94.0132 L173.357 95.36 L174.5988 97.9255 L175.0222 99.8049 L175.6738 103.4041 L175.688 106.6904 L175.6886 106.8066 L175.2542 107.7658 L174.9684 107.1594 L174.7052 106.2596 L173.1618 101.8454 L172.3012 99.8507 L171.3211 97.3709 L170.4886 94.8512 L170.2099 93.8691 L169.8913 93.021 L169.5392 91.7853 L169.328 90.0747 M170.0553 437.9403 L170.0893 437.5378 L170.5297 436.8633 L170.6186 436.4489 L170.8527 435.7947 L171.257 435.2846 L171.8806 435.2566 L173.6779 435.7091 L176.0226 436.1345 L177.0751 436.2608 L177.6142 436.0812 L178.0157 435.9083 L178.2702 435.4219 L178.3656 434.9363 L178.2998 434.4075 L178.2159 434.1694 L178.0623 433.7356 L177.9428 432.9568 L178.1144 431.7679 L178.1868 431.5137 L178.3371 430.9857 L178.5455 430.8561 L178.879 431.3425 L179.207 432.3492 L179.547 432.8958 L180.1251 435.3321 L180.2172 437.0768 L180.2008 437.7912 L179.9984 438.6937 L179.7532 439.1258 L179.4247 439.4139 L178.1753 440.1334 L176.3374 439.7631 L175.1873 439.5868 L171.7007 438.8386 L170.2659 438.4157 L170.0553 437.9403 M170.5659 101.0617 L171.6277 101.183 L173.7783 105.8059 L175.0726 108.1958 L175.9886 109.7308 L176.7965 111.1962 L178.8241 113.7989 L179.6013 113.3596 L179.7198 112.6329 L180.6324 112.2275 L183.1334 115.049 L184.2825 115.4552 L186.9354 117.3981 L190.383 122.1438 L196.0437 128.264 L198.021 127.9765 L196.9728 124.8168 L197.6491 121.1498 L198.5058 119.1383 L200.466 118.1919 L203.4398 121.0981 L204.5888 120.4222 L206.617 117.9892 L203.1266 115.1779 L202.3248 112.939 L199.6669 111.2268 L201.7028 108.2322 L199.0137 111.0232 L197.1796 112.85 L196.3097 112.4437 L196.3673 111.1174 L197.9403 109.1889 L196.7732 109.2253 L196.2587 108.5732 L196.6065 106.7312 L195.8803 106.5666 L193.3425 104.544 L193.2438 103.2379 L186.744 98.9636 L185.7288 98.1816 L191.5842 89.1188 L196.2341 82.2839 L197.1121 81.1957 L198.978 82.9038 L204.2252 81.708 L206.5452 86.0504 L207.5357 84.8197 L209.4554 81.7029 L210.227 80.5401 L210.7854 80.1737 L211.3185 80.01 L211.9509 80.0584 L212.4083 80.485 L212.7906 81.1347 L212.8701 81.3484 L213.7482 82.8453 L214.3213 82.3661 L215.1896 81.6393 L217.7789 82.0803 L219.3678 85.3167 L221.6088 87.0817 L222.3245 86.566 L223.0046 86.1945 L225.7656 84.3151 L226.4813 83.925 L227.338 83.7799 L227.5174 83.8995 L229.0756 85.2642 L230.2833 86.4939 L232.1662 87.8467 L233.8138 88.4353 L236.1382 91.407 L236.3817 92.267 L237.2559 95.7323 L237.1973 99.1154 L236.2495 103.0327 L236.3537 103.0234 L236.9976 103.1082 L237.5576 103.2718 L237.8686 103.4686 L238.7905 105.1037 L239.1651 106.2367 L244.6251 110.5008 L246.1416 111.9731 L245.5235 114.0618 L243.5523 116.8273 L244.5779 117.1861 L247.9812 117.5957 L250.0571 117.7051 L253.23 118.0223 L253.4664 118.0825 L253.5426 118.096 L259.8373 108.5562 L260.2487 108.792 L260.2799 108.7504 L261.7038 109.4407 L263.3996 110.6009 L265.4097 111.7551 L265.2266 112.0562 L265.3692 112.2105 L265.4267 113.1095 L264.9441 113.7828 L263.9859 115.3568 L262.4343 117.1081 L261.5601 118.5345 L261.2573 119.8701 L261.2798 120.6656 L261.3456 121.149 L261.2321 121.813 L260.8405 122.3066 L260.6853 122.3473 L260.62 122.8485 L260.8268 122.8298 L261.0248 123.0384 L259.9273 124.2554 L259.4013 125.6462 L259.115 126.4458 L258.5435 128.0156 L258.368 128.5261 L258.1042 128.7762 L257.7614 128.9357 L256.9513 129.146 L256.5729 129.8278 L256.2016 130.8259 L255.8944 131.4484 L255.8632 131.573 L255.7277 131.7528 L255.2039 132.6025 L252.7907 136.1167 L252.2033 136.6391 L252.0859 136.5958 L251.4952 137.3811 L252.4769 137.9153 L254.0477 138.4428 L253.5914 138.972 L253.2547 139.6359 L252.7698 141.1886 L258.9455 143.8013 L258.6044 144.4636 L258.674 144.5798 L257.9013 146.1028 L257.1537 147.7157 L256.8965 148.5399 L256.9403 148.9936 L259.392 151.6096 L265.4558 153.3344 L271.1801 154.246 L275.9337 155.0049 L282.8208 156.103 L283.6023 151.8632 L276.5968 150.0018 L277.1085 148.718 L290.2585 151.2535 L288.9597 154.8514 L283.0314 158.5833 L280.0132 165.2297 L280.6741 166.8815 L280.4174 167.6056 L280.4903 167.9397 L280.2512 169.3753 L279.8722 170.0596 L279.5574 170.3385 L279.4263 170.4064 L279.389 170.5107 L279.2294 170.5073 L279.0133 170.6184 L278.495 170.704 L276.5655 170.6014 L273.7738 170.3886 L270.9037 170.3258 L268.9972 170.3903 L266.4217 170.3945 L264.9896 170.1969 L264.4181 170.1842 L263.246 172.8866 L262.6076 174.6198 L259.1188 179.2707 L257.9468 180.2076 L256.24 181.5719 L264.858 189.1005 L268.5124 192.4616 L268.9989 192.7067 L269.4909 193.4596 L269.7475 194.0845 L269.7854 194.6628 L269.9944 196.0669 L269.5874 197.1369 L269.6883 198.8971 L269.7333 199.7586 L269.4711 200.6836 L269.0653 201.0406 L268.3967 201.1499 L267.812 200.8973 L267.7155 200.8413 L267.0195 201.9283 L267.2093 202.4328 L267.3919 203.8089 L267.4072 205.3333 L267.755 207.4657 L267.8751 207.598 L268.0457 207.7167 L270.432 206.5458 L270.6284 206.3025 L271.2662 205.8293 L272.0226 205.7658 L277.6202 203.0195 L278.0486 202.5735 L278.3403 202.6659 L278.6848 202.4972 L280.4015 204.5745 L279.9402 205.2257 L280.2655 205.4826 L280.4618 205.6844 L280.5638 205.9379 L280.3148 206.4585 L279.3117 207.3852 L278.7813 207.6116 L278.6519 207.7243 L278.4281 207.3971 L278.0864 207.888 L278.2959 208.3433 L277.9762 208.7146 L277.1897 209.1759 L276.8606 209.649 L276.475 210.557 L276.0434 210.8224 L275.3589 211.8051 L274.2609 211.622 L272.9018 211.3735 L271.4615 212.853 L271.3364 213.0328 L271.1928 213.1294 L269.6406 214.7234 L268.4669 218.047 L267.2844 221.8885 L266.0251 225.9106 L264.9337 226.1743 L264.5914 226.3744 L264.1455 226.4906 L263.8049 226.4473 L263.6815 226.477 L263.5872 226.4193 L262.0268 225.68 L260.6052 224.6652 L260.4291 224.5092 L254.9033 221.167 L250.1098 220.9975 L245.4314 216.7158 L245.6107 215.684 L243.6346 215.2932 L242.9194 215.3491 L237.8719 216.2004 L237.3881 218.9737 L230.3343 219.1025 L223.9069 219.1882 L223.2246 219.3637 L223.082 219.3857 L222.9887 219.0813 L222.8253 218.2555 L222.4819 216.23 L223.4544 216.2292 L223.1352 211.9764 L226.3596 210.9767 L226.1484 208.4586 L225.9943 208.055 L225.9619 207.5844 L225.9674 206.2999 L225.4453 200.3775 L220.3391 206.6857 L212.7182 207.3886 L211.0119 205.2698 L210.3296 203.5655 L206.1865 198.4147 L201.7944 192.4845 L201.501 192.1047 L201.4275 191.8986 L201.258 191.6273 L201.3479 191.4374 L201.3671 191.2678 L201.5772 190.9541 L203.4985 186.9019 L203.5149 186.8672 L202.876 184.9373 L198.474 168.663 L201.1022 168.4044 L201.4785 170.0723 L206.3395 168.4782 L205.6309 166.6059 L201.6622 167.9838 L201.0057 166.1811 L201.6858 163.8153 L201.9392 162.7485 L201.213 162.0066 L200.8154 161.8785 L199.9735 160.7397 L199.8375 160.5981 L199.8298 160.649 L199.6011 160.6583 L199.3071 160.3369 L198.7899 160.0698 L197.7292 159.623 L196.1847 159.7713 L196.3498 159.0938 L196.2077 159.0014 L196.0766 158.5554 L196.2796 157.6523 L196.7134 156.4711 L197.3452 154.1959 L197.5613 153.3454 L197.6102 152.7959 L197.8844 152.7858 L198.0791 151.987 L195.9741 153.1572 L195.3527 154.2502 L195.283 154.4588 L194.1685 156.3345 L193.0924 158.1967 L192.3657 154.4444 L191.4026 152.723 L190.4675 151.7605 L189.217 149.7101 L188.1058 149.6694 L187.2787 146.5047 L183.3386 140.8893 L184.555 139.7275 L183.0018 136.863 L178.1342 127.5347 L176.8738 124.793 L176.1893 122.7255 L175.2657 119.4741 L170.8072 107.0322 L170.5659 101.0617 M174.743 336.7612 L174.7556 336.5908 L174.9174 336.3128 L175.1593 336.0848 L176.6144 335.7347 L178.8115 335.4101 L180.5513 335.455 L181.5127 335.8051 L182.0442 336.0627 L182.3826 336.0805 L182.5998 335.9661 L182.7462 335.6898 L182.7336 335.3541 L182.6195 334.7761 L182.2959 334.1743 L182.3338 333.8098 L182.4407 333.5148 L184.3214 332.4341 L184.8183 332.2205 L186.5388 331.8696 L186.9425 331.8578 L187.2222 332.0425 L187.1504 332.3799 L183.9792 335.2253 L183.9062 335.6669 L183.8717 335.8771 L183.9424 336.1805 L184.0088 336.4662 L184.4859 337.552 L184.8852 340.6126 L185.1353 341.2458 L185.6953 342.2053 L185.8324 342.7808 L185.8456 343.5614 L185.7688 344.2056 L185.5659 344.6022 L185.5044 344.9616 L185.5105 345.2371 L185.0909 345.3888 L184.7152 345.3057 L184.2737 345.0311 L183.4998 344.7217 L181.8857 343.9809 L180.9785 343.0579 L179.4379 341.712 L176.74 338.9556 L175.1357 337.1485 L174.743 336.7612 M176.5535 102.6231 L176.7268 102.305 L176.9467 101.7266 L177.1096 101.2984 L177.3367 100.8378 L177.6685 100.5029 L177.968 100.3714 L178.2164 100.3375 L178.5757 100.407 L178.8165 101.2407 L179.2486 102.4365 L179.2684 103.1328 L179.2371 104.1403 L178.6892 106.0535 L176.8063 105.962 L176.5535 102.6231 M176.6358 107.5784 L176.8063 106.0976 L178.6892 106.1892 L178.5159 107.1314 L178.325 107.7751 L178.1687 108.6402 L178.1819 109.0209 L177.5413 109.562 L177.0926 108.9336 L176.6358 107.5784 M179.4296 87.8484 L179.49 87.3522 L179.9913 86.7704 L180.0818 86.7093 L180.3105 86.4922 L180.6834 86.1377 L183.3435 84.4152 L185.8072 83.1897 L186.6167 82.9191 L186.965 82.9861 L187.2217 83.1668 L187.355 83.4093 L187.4707 83.7342 L187.5678 84.2719 L187.9012 84.5551 L188.736 84.8571 L188.8605 85.2099 L188.866 85.4533 L188.6691 86.0826 L187.5074 87.7271 L186.5416 89.7905 L186.1248 90.7701 L184.5337 93.0863 L183.87 93.9691 L183.5047 94.8384 L182.6442 96.7068 L182.4171 97.0147 L181.9065 97.253 L181.4096 97.1063 L181.2478 96.7322 L181.0465 96.0555 L181.0366 94.4797 L181.3443 92.0295 L180.9763 92.9446 L180.9544 93.6969 L180.7734 95.6238 L180.8123 97.0486 L180.5715 97.2793 L180.3132 97.3683 L180.0713 97.3242 L179.711 97.0257 L179.7971 96.4642 L180.0889 95.8799 L180.2896 95.293 L180.837 89.8126 L181.3361 88.8542 L181.8593 88.3929 L182.6864 88.0562 L181.9021 88.1435 L181.3602 88.3386 L180.4684 88.5141 L179.6293 88.4208 L179.4966 88.3131 L179.4296 87.8484 M179.7297 78.4698 L179.881 78.0788 L180.0231 77.7108 L181.7151 76.7057 L183.7439 75.6193 L185.7699 74.2741 L187.5146 72.4837 L187.7499 72.3794 L187.8957 72.5286 L187.5513 73.5472 L187.1071 74.9569 L187.1098 76.4453 L185.7578 77.469 L185.3909 78.603 L184.7459 78.2315 L184.1761 78.6267 L183.4126 78.754 L182.3332 78.9872 L181.0509 79.0754 L180.2085 78.7514 L179.9101 78.8591 L179.7297 78.4698 M181.5889 111.3362 L182.3266 110.723 L182.9025 111.683 L183.1477 111.5584 L183.5662 111.3446 L183.893 111.309 L184.6785 110.5593 L184.9609 110.3872 L185.6021 109.8843 L185.6459 109.8495 L185.6756 109.9046 L186.2997 111.0546 L186.7275 111.5889 L187.0922 111.9612 L186.1275 113.0162 L185.2856 112.9042 L184.057 113.8931 L183.2804 114.3951 L183.1619 114.4714 L183.0835 114.4095 L182.8235 113.9092 L181.8999 111.8603 L181.5889 111.3362 M186.6584 112.5828 L187.4285 111.6966 L188.187 110.9104 L188.4892 110.9478 L188.9285 111.1242 L189.3766 111.3845 L189.8878 111.9307 L190.1922 112.5158 L190.5887 112.749 L191.0077 112.4353 L191.1438 112.3335 L191.4355 112.3674 L191.5864 112.3844 L191.9445 112.5574 L192.2072 112.9025 L192.7546 114.0076 L192.8517 114.2501 L193.4775 115.082 L194.2771 116.3151 L195.0669 117.7051 L196.0668 120.3807 L196.3125 121.4051 L196.0163 121.6434 L195.1229 121.869 L194.5141 121.9716 L193.6683 122.0691 L192.9054 122.0886 L192.2292 122.053 L191.4882 120.9735 L190.5871 120.0415 L189.7145 118.7999 L188.8237 117.0232 L187.9424 115.0871 L186.6655 112.7974 L186.6584 112.5828 M187.0253 416.9313 L187.1317 415.4796 L188.9088 407.9814 L189.8209 404.6051 L189.8724 404.6212 L198.4416 407.2246 L200.2455 407.4543 L201.8141 407.4026 L202.4547 407.2517 L202.9873 407.2246 L203.4996 407.0094 L205.722 405.6246 L207.2116 404.5322 L209.7652 402.8051 L210.3389 402.3771 L211.5022 401.3542 L212.4889 401.7593 L213.8776 402.239 L214.3444 402.4661 L215.3343 402.6517 L217.2002 403.2432 L217.3379 403.3899 L217.3949 403.7221 L217.4185 403.8644 L217.2891 404.7 L217.2024 404.839 L216.9364 405.2644 L216.6139 405.5729 L216.4324 405.7466 L215.8263 405.8721 L214.9043 405.7475 L214.2221 405.728 L213.2869 405.9187 L212.8048 406.0543 L212.1516 406.5297 L211.0815 407.6848 L210.4919 408.6136 L209.372 409.95 L208.8751 411.0373 L208.3392 411.822 L207.279 412.9305 L206.4838 413.8652 L205.5947 414.6474 L204.3097 415.4211 L203.6197 415.7626 L202.3593 416.2719 L200.251 416.9507 L197.2021 417.8677 L196.0448 418.0516 L193.3968 417.7965 L190.3386 417.6304 L187.587 417.3321 L187.4817 417.305 L187.186 417.2287 L187.0681 417.0101 L187.0253 416.9313 M194.3808 317.8872 L194.5837 317.6007 L194.6803 317.4642 L197.9765 314.8001 L199.6702 313.5405 L200.3294 313.4167 L200.953 313.4583 L201.3688 313.5591 L201.8229 313.7338 L202.7948 313.8914 L203.3734 313.9448 L203.7968 313.8999 L203.8435 314.2703 L203.765 314.7619 L202.8985 316.2563 L202.5875 316.5649 L201.8679 317.2082 L199.7256 318.8535 L197.795 320.0385 L197.371 320.2216 L196.8697 320.3284 L195.9648 320.4394 L195.4898 320.0682 L195.1421 319.5231 L194.8371 318.9501 L194.3808 317.8872 M196.1847 363.0436 L196.5412 362.9647 L196.924 362.7622 L197.105 362.9461 L197.5805 363.625 L198.5096 365.1488 L198.9522 366.2778 L199.4684 367.7237 L199.9554 368.8882 L201.4132 371.9783 L202.1876 373.1936 L202.8579 374.1768 L203.3871 375.743 L204.1945 378.4144 L201.9655 379.1373 L201.015 376.6431 L200.4463 375.0811 L200.121 374.0793 L199.8479 373.2386 L199.5287 371.3664 L197.9343 368.1296 L197.4346 366.8439 L196.5269 364.7505 L196.1847 363.0436 M198.316 406.1111 L198.6923 405.9102 L199.3592 405.7856 L199.6411 405.7789 L200.3766 405.6551 L201.8695 405.0289 L202.8963 404.3288 L205.2382 402.6263 L207.5549 401.1932 L208.8323 400.5517 L210.147 400.1212 L210.9702 399.9576 L211.3975 399.9508 L211.4945 400.2924 L211.239 400.6949 L211.0459 400.9085 L210.7212 401.2178 L205.3868 404.9094 L204.625 405.5111 L203.3833 406.2712 L202.6758 406.5144 L201.7236 406.7611 L201.1916 406.7865 L200.6152 406.756 L198.6314 406.4221 L198.5206 406.3128 L198.316 406.1111 M203.1019 317.3312 L205.2234 313.4922 L204.2499 313.9202 L204.4956 313.4973 L204.8927 312.948 L206.4075 311.0128 L206.6494 309.4667 L207.3416 309.799 L208.1802 308.3418 L209.9023 305.3199 L211.0415 304.134 L213.1065 302.1412 L215.8707 299.1107 L218.3997 299.6032 L216.038 302.1344 L214.4722 303.1117 L211.2071 305.2318 L210.5737 306.4143 L209.8091 308.2698 L208.9617 310.444 L208.6546 311.2315 L207.6295 313.0124 L207.0635 312.9209 L206.5452 313.2794 L205.8454 313.354 L204.9815 317.1464 L204.5844 317.6956 L204.1451 317.8431 L203.2423 317.432 L203.1019 317.3312 M207.578 445.9295 L207.6065 445.5651 L207.7491 445.3888 L207.8505 445.2634 L208.3014 445.1923 L209.2683 445.2278 L209.9396 445.2812 L211.058 444.9482 L212.2202 444.294 L213.186 443.8263 L213.5688 443.9771 L214.0241 444.672 L214.4283 445.61 L214.6153 446.5862 L214.414 447.0514 L214.1491 447.7462 L214.1173 448.386 L213.7877 448.6656 L212.9447 448.786 L211.8264 448.6131 L210.5539 448.2114 L209.4828 447.6895 L208.4336 446.8802 L207.8752 446.4269 L207.578 445.9295 M208.1697 380.0306 L208.2405 379.8068 L208.3985 379.6416 L208.6721 379.4229 L209.0945 379.3382 L210.7848 379.4178 L212.1412 379.5966 L212.5147 379.8789 L213.2705 380.895 L214.4579 382.918 L215.3141 384.6368 L215.9612 385.6656 L217.4245 386.8894 L218.205 387.4649 L218.6317 387.82 L219.0908 388.1166 L219.4594 388.4225 L220.2316 388.9793 L220.6013 389.5217 L220.7093 390.4345 L220.893 392.821 L220.9046 393.6982 L220.7888 394.6431 L220.1334 395.9694 L219.6233 396.8881 L217.5271 399.5212 L217.5046 399.4644 L217.5167 399.1415 L217.7092 398.5 L217.5902 398.0991 L217.4437 397.7355 L216.7615 396.5398 L215.562 394.9262 L215.2784 394.794 L214.8073 394.6685 L214.1195 394.0253 L212.4785 392.2659 L212.1072 391.5998 L211.8198 390.993 L210.0126 387.1708 L209.4109 385.5266 L208.9085 383.9588 L208.7215 383.4757 L208.6743 383.1536 L208.4582 382.257 L208.4056 381.3705 L208.178 380.4891 L208.1697 380.0306 M220.8897 390.4701 L221.1821 390.9218 L221.8029 391.0167 L222.3059 391.0023 L222.9311 391.2803 L223.1598 391.4938 L223.2602 391.8659 L223.156 392.3981 L222.4457 394.1439 L221.0806 395.6253 L221.2303 395.1228 L221.3932 394.2405 L221.402 393.4287 L221.2166 392.6913 L220.8897 390.4701 M224.0544 17.9826 L227.6978 12.4714 L232.7251 11.6181 L234.5718 12.1822 L238.9743 15.7364 L236.708 17.9868 L231.5876 20.2534 L225.6362 19.2914 L224.0544 17.9826 M255.1129 333.0351 L255.4639 332.3765 L256.2345 331.962 L259.2609 335.6177 L260.8399 338.0766 L261.4707 338.4775 L259.8439 339.8684 L259.5642 339.4608 L258.5583 337.7435 L257.3786 336.1212 L255.9849 334.276 L255.6125 333.8632 L255.397 333.5564 L255.1129 333.0351 M268.6007 13.2976 L268.7938 12.8998 L269.3965 11.1201 L269.6954 10.6205 L269.8128 10.5467 L270.1046 10.3626 L270.5752 10.3278 L271.1143 10.3524 L272.2875 10.4687 L273.4639 10.6739 L275.3315 10.9064 L277.0153 11.3492 L280.2155 12.7106 L284.8671 14.453 L287.3269 15.6651 L289.0782 16.8994 L290.366 17.9436 L291.028 18.5645 L291.4393 19.495 L292.2533 20.1829 L294.6544 21.7777 L296.3805 22.9907 L296.466 23.3724 L296.4424 23.7278 L296.2137 24.0976 L295.6614 24.593 L295.1091 25.012 L294.1016 25.5405 L293.2186 25.649 L292.0443 25.0765 L288.7041 23.352 L283.4888 20.6189 L281.8988 19.9666 L280.4432 19.5841 L279.9128 19.2643 L279.4669 18.8054 L279.7795 17.8519 L279.5355 17.7171 L279.2788 18.1811 L279.0078 18.3482 L278.4451 18.1081 L278.0102 17.7552 L277.6208 17.5432 L277.3136 17.315 L276.7333 17.0317 L275.8563 16.549 L274.4545 15.9459 L274.1391 15.7109 L273.6274 15.0595 L272.5941 15.1994 L271.875 15.1222 L270.9542 15.0968 L270.0223 15.4717 L269.4261 15.4734 L268.994 15.1435 L268.8031 14.7108 L268.627 14.1315 L268.621 13.9321 L268.6007 13.2976 M271.6036 7.8186 L271.6315 6.995 L271.7472 6.1314 L272.0176 5.3586 L272.4427 4.7462 L273.3246 3.8249 L273.708 3.1785 L274.0508 2.9504 L274.3256 2.8672 L274.5746 2.9105 L275.1017 3.2685 L275.6331 3.5196 L276.6352 3.6663 L278.0749 3.774 L279.4126 4.0099 L279.6221 4.3627 L279.7751 4.7988 L279.8047 5.2255 L279.5887 7.4632 L279.0885 10.1955 L279.2832 10.6205 L280.4432 10.9505 L280.6263 10.5535 L281.0914 9.315 L281.4101 8.7059 L281.7052 8.3259 L282.275 8.0392 L283.0544 7.9569 L284.6713 8.2216 L285.9936 8.4387 L288.1639 9.4541 L292.3459 11.7674 L292.9849 12.4918 L293.2679 13.1042 L294.0105 14.7821 L294.0736 15.5269 L293.9842 16.4947 L293.7155 17.505 L293.2701 18.6493 L292.8418 19.0166 L292.4847 19.0387 L292.0564 18.8928 L289.3217 16.7424 L287.0308 15.0917 L284.8594 14.017 L282.9266 13.2391 L275.5711 9.9258 L275.2152 9.3973 L275.1214 9.2191 L274.3684 8.2928 L273.8879 8.3056 L272.7696 8.2165 L272.0182 8.197 L271.773 8.1232 L271.6036 7.8186 M293.7961 20.3501 L293.8136 20.1592 L294.3232 19.5731 L294.6758 19.1447 L295.3258 18.271 L296.6618 16.9409 L297.2306 16.6042 L297.8619 16.5609 L298.3396 16.9698 L298.8639 17.7357 L299.4502 19.0921 L300.24 21.0795 L300.7983 22.0253 L301.168 23.067 L301.8492 23.7999 L302.1015 24.4149 L302.158 24.5981 L302.2073 25.4226 L302.153 26.3344 L302.1777 27.723 L301.7823 27.8188 L301.4104 27.6967 L300.7715 26.7136 L299.6592 25.2979 L299.1359 24.5395 L298.6549 23.8932 L298.226 23.4555 L297.7752 23.0195 L295.6318 21.7658 L293.9859 20.6597 L293.7961 20.3501 M83.4291 148.0582 L83.7061 148.1057 L83.8947 147.859 L83.6529 147.7394 L83.4291 148.0582 M341.0101 285.4027 L341.0217 285.4129 L341.1281 285.334 L341.1116 285.3179 L341.0101 285.4027" stroke-dasharray="" fill="none" fill-opacity="1.0" stroke="#ff0000" stroke-opacity="1.0" stroke-width="1.0px" stroke-linecap="butt" stroke-linejoin="miter" stroke-dashoffset="0.0px"/>
</g>
</svg>