<?xml version="1.0" standalone="no"?>
<!DOCTYPE svg PUBLIC "-//W3C//DTD SVG 1.1//EN" "http://www.w3.org/Graphics/SVG/1.1/DTD/svg11.dtd">
<svg width="512px" height="512px" version="1.1" xmlns="http://www.w3.org/2000/svg" xmlns:inkscape="http://www.inkscape.org/namespaces/inkscape">
<g id="layer" inkscape:groupmode="layer" inkscape:label="layer">
<path d="M0.0 85.7083 L4.347 96.6008 L3.4938 110.7043 L6.2738 117.0756 L30.5783 132.9672 L34.3421 144.6769 L40.0354 152.9461 L42.4507 155.3372 L46.5409 158.1344 L53.0254 165.4878 L57.7119 174.8708 L61.6077 172.9895 L66.6723 174.1127 L69.7026 178.8171 L76.0207 181.5383 L85.3023 198.7454 L88.6949 214.9292 L90.9962 220.6894 L96.9356 225.9959 L101.9014 229.7933 L105.9424 230.1099 L113.6832 227.5296 L115.9713 227.6516 L119.9147 231.3027 L124.7102 248.5371 L126.317 249.1214 L132.4755 248.951 L136.6623 246.8332 L140.0216 243.5226 L142.2125 242.1595 L146.0098 247.3444 L154.846 255.0119 L157.8889 258.9555 L159.0331 264.9681 L159.9336 267.4754 L159.5199 274.3155 L159.5346 280.6726 L156.7204 287.0465 L147.1052 292.134 L142.5289 293.4242 L140.2162 296.6131 L141.7012 300.9459 L143.5513 304.0131 L148.3953 308.0056 L153.4099 308.6628 L159.5441 315.503 L163.4145 320.3712 L163.7555 324.1199 L164.583 329.7185 L168.0154 336.0234 L169.5488 341.1108 L171.4962 346.4418 L172.2264 351.9919 L171.0095 357.5419 L175.2936 365.8668 L175.2205 371.4169 L177.3383 373.7783 L179.5292 374.1189 L181.2087 377.9896 L182.7909 382.6391 L182.3529 387.0205 L178.6287 389.7227 L172.5429 391.8159 L169.7191 396.2218 L170.4496 401.6501 L166.7981 411.9715 L165.8488 415.6471 L166.4086 419.8827 L168.9401 430.5447 L174.4903 441.4499 L177.7278 445.1501 L186.5155 450.4322 L189.826 455.0085 L191.6918 457.7117 L192.9222 466.0864 L193.9775 472.2237 L194.3829 474.3919 L192.9174 477.0136 L191.0987 478.5045 L250.0332 483.81 L439.7937 496.5845 L446.2642 493.1717 L450.327 489.004 L453.19 485.242 L455.5823 482.7006 L456.7891 475.9407 L458.554 474.4676 L460.7128 473.8351 L462.1142 471.4109 L463.3045 467.3195 L464.6149 464.1678 L465.2113 460.1251 L464.4874 456.3229 L460.1676 458.2434 L460.6643 460.3433 L454.2306 463.4819 L452.2996 459.8668 L454.5594 456.0623 L457.8702 455.6342 L461.6561 451.7425 L463.87 453.4549 L466.2552 452.4837 L467.1297 449.2318 L468.8299 447.0036 L469.8352 445.3714 L469.7576 443.2879 L467.3955 437.0978 L463.8012 431.3508 L463.2147 427.7818 L464.4469 425.6935 L465.0101 423.0492 L463.8248 419.8512 L461.2532 417.1014 L459.3665 413.8358 L457.6945 404.9068 L458.0932 399.4091 L457.848 394.5121 L454.0851 384.7319 L451.2297 381.6064 L450.1139 381.9985 L449.158 385.5678 L447.4952 386.5786 L444.0766 387.5304 L444.1856 384.557 L442.022 382.7363 L437.0137 382.7843 L428.5391 380.281 L423.2763 379.3898 L420.9765 377.7188 L419.8033 377.0107 L413.1199 376.051 L405.4564 382.7126 L404.5945 381.4781 L404.9906 378.9392 L404.6412 377.402 L403.8026 377.6581 L402.3818 374.8864 L404.152 374.281 L402.9177 372.8131 L400.9376 371.9749 L399.5655 367.6712 L395.2922 359.1783 L395.5592 352.3947 L392.9349 348.2655 L391.8925 347.8441 L391.0275 345.4268 L391.1608 340.9692 L389.431 339.1728 L385.7495 337.3321 L383.7092 333.9169 L383.576 331.6995 L381.8151 330.8679 L377.8279 332.1698 L374.3018 332.658 L371.6981 334.1229 L370.342 335.6417 L368.3077 340.0359 L360.7942 340.0359 L359.9263 336.4011 L357.9192 336.6723 L354.2845 341.772 L350.8671 341.5546 L350.1075 340.2528 L345.8219 341.392 L344.4115 340.2528 L343.8418 338.8966 L338.4443 339.3578 L327.5676 339.5747 L328.7882 336.9979 L334.647 336.4011 L338.4171 334.2854 L342.2958 334.1229 L344.3843 335.1535 L347.4221 335.0453 L348.9684 334.3398 L353.2809 333.4178 L352.9283 332.1698 L357.1869 331.3835 L362.7201 330.4067 L369.6639 330.3528 L371.6981 329.5934 L374.2204 329.9998 L378.9129 328.3184 L382.6288 327.5316 L382.3306 324.087 L385.4226 319.5304 L388.813 317.7129 L390.9829 322.3782 L391.3356 323.8701 L392.6918 325.7689 L401.7241 326.7453 L393.6788 334.7914 L396.2613 338.3746 L396.0173 339.0623 L394.4207 337.7317 L395.3964 339.9491 L394.7755 341.7236 L395.2856 345.1829 L397.5034 349.0642 L399.8239 351.7572 L401.6001 356.5511 L401.9291 361.6225 L403.3227 367.5461 L404.62 369.8107 L408.8397 372.0561 L411.3533 372.4059 L423.168 369.6231 L422.9054 372.3534 L424.9708 372.6684 L425.4786 369.2204 L430.677 367.8726 L429.4343 370.743 L427.1237 372.7035 L425.986 375.8365 L438.3258 379.11 L440.4963 379.0748 L440.7879 378.012 L442.274 377.7289 L443.2629 377.0112 L440.9723 371.8511 L441.8411 371.2718 L439.5242 367.0594 L446.659 368.6127 L446.6656 366.5677 L450.8947 354.864 L447.0458 353.3567 L443.4377 352.7189 L445.3873 349.9637 L443.3635 348.8409 L441.4457 351.4047 L440.7254 351.6591 L438.4788 347.5482 L436.4445 344.793 L438.7755 342.208 L441.5304 342.4199 L443.7766 340.0039 L446.574 336.9947 L447.0827 332.7991 L441.8726 329.498 L446.8183 326.7672 L451.2731 329.7948 L452.9706 326.0548 L448.9918 325.694 L446.4471 326.4612 L436.828 319.4423 L439.4114 314.744 L438.3339 313.3822 L436.5556 316.8347 L435.1785 315.1541 L431.062 312.6675 L432.8065 316.9457 L434.2357 319.2098 L432.6619 323.0965 L429.5944 324.4939 L427.2817 326.0676 L425.5947 320.932 L425.5804 314.2453 L428.5951 312.4323 L428.8286 307.8517 L428.2329 305.5161 L442.166 311.0394 L445.519 305.7783 L448.8691 307.3585 L451.0665 302.5905 L449.9648 300.6038 L450.5246 299.8 L453.707 301.225 L455.8027 298.9916 L458.9731 300.1014 L459.0958 295.1872 L457.0241 294.5112 L456.3595 295.274 L453.3597 293.5065 L454.9584 291.6202 L455.8117 290.6519 L455.8536 290.4784 L459.7156 289.0397 L459.7934 289.2635 L462.3651 290.8894 L461.0298 293.6115 L462.5776 294.6528 L465.9127 289.4462 L468.3317 290.9671 L469.8974 288.551 L466.8348 286.6464 L466.1193 286.048 L468.7508 284.1389 L470.098 282.5631 L470.3226 282.5585 L475.3659 285.7589 L474.4061 289.4873 L474.1471 290.6268 L473.7489 290.4176 L471.8865 289.4384 L471.5859 289.5576 L471.5536 289.8335 L478.8579 294.2326 L479.9527 297.9353 L480.0102 299.5616 L479.1578 298.7742 L478.2995 298.2783 L477.1352 299.5639 L473.3436 297.1707 L473.2412 297.379 L477.2241 299.869 L477.8109 300.4696 L475.8431 302.8737 L476.9328 303.6409 L475.2354 304.7142 L473.5409 305.792 L470.7447 306.9977 L467.9485 308.2033 L463.9518 306.2989 L462.868 309.6374 L467.4036 311.4732 L466.275 312.3683 L467.4156 314.8618 L466.9177 315.719 L465.4576 315.1358 L466.1372 317.4101 L465.6885 319.1943 L464.417 320.0844 L464.5296 321.3877 L464.629 323.9409 L463.0183 326.7804 L460.8652 329.3199 L454.0573 327.3791 L459.0689 331.1145 L460.1407 332.215 L458.6531 334.7909 L456.7218 333.9777 L457.1864 335.5677 L457.3505 336.1284 L457.0508 337.4148 L456.7996 338.4938 L456.7427 343.0692 L457.763 345.7254 L461.7468 351.0659 L456.8535 356.594 L455.5928 357.2401 L453.8555 359.1144 L453.1538 365.7577 L451.8054 367.8877 L451.5557 371.7795 L453.2424 374.1947 L459.6314 357.7346 L468.164 352.4253 L470.686 349.7728 L471.0707 347.761 L464.629 342.6743 L463.315 341.0637 L462.7216 339.6651 L462.7117 338.3066 L464.3404 337.3038 L465.4768 334.7138 L466.0235 329.7035 L469.5651 323.0956 L469.9932 310.7151 L471.3464 308.9021 L481.217 304.1068 L480.2769 305.591 L481.3696 305.6047 L487.6326 302.8965 L488.1326 301.161 L487.1985 296.9273 L486.504 295.2237 L488.1027 289.2863 L486.3244 286.3175 L485.7511 277.9814 L484.9011 275.6392 L485.4442 273.9624 L487.9245 270.708 L489.1864 267.3438 L487.8311 263.3744 L487.8051 259.9444 L492.4018 252.7265 L494.9046 243.6816 L493.4825 243.773 L494.1441 242.3523 L497.5987 241.8169 L499.562 239.2353 L498.9582 234.5203 L497.825 233.5184 L497.7969 232.9282 L497.5906 232.6737 L496.9463 233.2567 L496.9682 233.9013 L496.194 234.4536 L495.8314 236.2759 L496.0665 237.9388 L496.6889 238.1316 L496.9137 239.1956 L496.6005 239.8095 L496.1467 239.4523 L495.3677 239.6972 L494.3869 239.9516 L491.8599 243.8415 L491.6731 242.8369 L494.3561 239.2116 L494.5264 236.6738 L494.5004 235.9676 L494.4803 235.3728 L494.5004 234.3663 L494.3396 233.2576 L493.8615 229.9486 L493.7056 229.0336 L493.4648 226.2431 L493.3924 225.6208 L493.7379 223.4206 L494.8621 219.7871 L495.0306 218.9277 L495.0105 218.4462 L494.8219 217.8797 L493.9828 217.6873 L492.9053 217.595 L491.3881 217.4635 L487.5416 218.0304 L486.2301 218.2607 L485.4364 217.2131 L483.2734 218.1035 L482.8171 219.2023 L482.2789 220.5981 L482.178 221.9956 L481.3936 224.1059 L481.3017 225.4143 L480.5269 226.2093 L479.7464 226.2577 L479.6033 225.4947 L476.834 226.8927 L474.3531 227.0366 L474.2244 225.1055 L474.9959 224.2155 L475.9593 223.9748 L477.1158 224.3759 L479.1644 224.0081 L479.1518 223.3964 L479.1231 222.0313 L477.3565 220.4094 L475.9805 220.4423 L474.3133 219.4696 L476.3688 218.4658 L476.3934 217.7326 L473.5825 218.7998 L472.8092 218.8656 L471.9527 218.9323 L471.227 215.6684 L472.7394 215.3751 L473.358 215.2686 L473.5505 216.6671 L477.2442 216.9965 L477.7582 216.9321 L478.4567 216.0892 L479.1153 214.1461 L477.1316 213.7764 L477.0996 214.5472 L475.068 214.6518 L474.8728 213.4141 L473.984 208.9905 L475.3491 208.1878 L475.1596 207.438 L474.8887 206.367 L474.1483 206.8687 L467.8141 211.0223 L466.0343 211.2389 L464.8942 213.3588 L465.3598 214.4348 L464.5568 215.3984 L463.6575 215.6072 L463.3901 216.6082 L463.0866 216.8686 L460.6212 217.2579 L460.905 219.3586 L459.3482 222.3908 L459.5623 223.1072 L460.3652 223.1716 L459.6736 224.4079 L457.137 223.4124 L454.8246 223.5732 L450.4944 223.1926 L446.3573 216.0832 L441.9564 215.3431 L440.7439 214.0501 L445.7774 214.804 L445.9708 215.4418 L449.0235 215.2983 L449.0888 218.2982 L448.1757 218.9638 L448.6897 219.783 L449.8139 219.1886 L450.9327 219.1671 L450.7432 216.9979 L451.4359 216.8924 L451.3557 215.3184 L452.4799 215.2782 L452.6885 214.4992 L453.6681 213.6001 L454.6156 213.5357 L456.6694 213.2588 L456.2452 210.8793 L456.5508 210.7573 L457.0789 211.9713 L457.2819 212.6721 L457.8438 212.5159 L458.3899 212.4597 L459.0884 211.9297 L460.8834 211.9827 L461.4732 211.0543 L463.1997 209.2076 L463.8742 209.6329 L464.2919 210.0505 L464.5407 209.6973 L463.7539 208.9343 L463.5452 208.1795 L463.9787 207.4892 L465.1816 206.2144 L465.4241 206.3488 L465.657 206.606 L465.7612 207.0231 L466.269 207.3005 L468.1048 204.692 L469.1179 204.0199 L468.2586 203.9802 L467.5009 204.6696 L467.3366 204.2488 L468.3999 199.37 L470.2821 198.6563 L471.2755 196.878 L470.7399 193.7979 L469.5032 188.8356 L469.9932 188.683 L471.2845 194.0469 L471.9608 196.3169 L472.3305 198.5443 L472.8897 199.5532 L473.4891 201.5211 L474.0756 202.0598 L476.214 204.4554 L477.2604 204.7747 L477.6858 204.1086 L481.0325 206.542 L482.8731 208.6616 L484.3586 209.8742 L486.0804 210.6975 L499.3554 215.0091 L498.2256 212.0581 L495.8096 210.6609 L493.3202 210.2918 L490.9111 209.7618 L489.408 208.2129 L489.3053 206.903 L489.6585 205.6986 L490.8953 202.9042 L491.4572 200.2861 L491.4734 198.5516 L492.3766 196.4188 L492.3727 193.605 L492.7903 189.4456 L492.0584 182.756 L489.8669 179.1873 L489.828 173.2331 L493.8427 157.2524 L495.0102 157.8237 L498.0519 154.6247 L499.3842 152.7921 L499.5728 150.338 L498.9201 141.3712 L498.9022 138.5148 L497.8034 138.172 L498.3334 135.3201 L499.3961 135.3201 L499.4979 133.6793 L499.2045 126.403 L500.5488 122.9385 L508.0332 121.2702 L512.0 118.7426 L510.1947 114.8803 L503.8419 111.8086 L498.998 107.32 L491.265 105.103 L486.6875 99.9514 L484.9242 93.858 L476.2991 89.2273 L472.7065 89.977 L467.7698 90.2056 L462.2282 97.6064 L458.6417 97.0625 L455.2228 101.1536 L453.0972 101.1171 L446.9599 104.0608 L442.2447 105.7201 L438.221 108.4353 L436.4817 111.8589 L433.1675 111.8178 L431.9251 114.3318 L432.6676 116.0001 L427.3605 120.5334 L428.4077 122.0614 L428.3257 124.9569 L427.0788 127.7852 L428.4302 129.751 L426.4387 130.2971 L435.8497 138.2547 L433.9226 139.6117 L433.272 139.2104 L434.7255 138.0943 L426.3824 131.2926 L424.696 129.751 L423.7012 130.6632 L423.8239 133.3685 L423.4209 138.8004 L424.1499 139.8365 L427.9092 141.7908 L428.4508 141.3744 L427.2674 140.018 L428.3047 138.773 L427.9098 137.6459 L428.6882 136.6519 L430.1405 137.8452 L431.4988 140.1313 L430.9354 140.3744 L430.1965 140.0696 L428.4861 141.4183 L427.9562 141.836 L428.4463 142.2437 L429.4498 143.4822 L429.3409 143.6308 L428.3739 142.4142 L427.6431 141.8442 L425.9567 141.3543 L424.8616 140.8219 L423.3195 139.5573 L423.0018 141.5147 L422.4558 146.0036 L422.1426 152.3314 L422.3995 158.8917 L422.6004 162.0152 L422.9755 165.1264 L423.7245 167.1384 L420.2125 167.4958 L419.4245 162.5805 L420.9969 161.8699 L422.1312 162.0605 L421.9417 157.7675 L421.7798 153.4191 L415.4215 153.086 L413.7672 152.8853 L412.7074 152.5641 L407.0796 152.6459 L407.2084 151.1834 L406.5497 150.5482 L406.6336 149.4331 L407.3671 148.6744 L406.7683 148.2723 L406.3222 146.1334 L405.7205 146.0923 L406.1695 149.3965 L405.7145 151.5445 L403.7027 151.0006 L401.3525 159.7705 L401.4783 163.303 L400.4783 163.5909 L399.179 161.1369 L399.5772 158.4955 L395.0716 148.7978 L389.4283 144.904 L385.1382 142.9343 L383.4257 143.501 L384.3149 146.1654 L383.0485 150.0592 L381.0187 148.8938 L381.6145 146.4396 L378.8512 146.3299 L379.45 145.713 L373.7109 142.8291 L369.325 151.4256 L362.8344 150.5253 L363.3464 149.9541 L360.5172 145.192 L358.3228 145.4433 L357.73 141.8922 L361.0382 142.6509 L364.3313 140.9233 L365.8043 144.1271 L367.2593 143.3501 L366.3911 142.0522 L364.3822 140.1281 L365.7594 139.4243 L365.1426 138.4873 L366.2402 135.5422 L364.0379 135.2698 L360.8154 136.0509 L358.7386 134.0166 L357.9333 131.7277 L354.0342 133.5079 L352.6355 131.389 L353.2244 130.8684 L356.9397 129.6847 L357.0684 129.255 L355.4751 127.2778 L354.1189 123.0395 L351.8592 122.0335 L350.8554 122.7854 L349.0331 122.9124 L344.0933 121.7227 L336.0271 121.6715 L330.6033 121.7538 L329.3707 121.3017 L329.0854 120.5663 L330.0135 117.609 L326.0887 114.8803 L325.6453 113.5186 L325.1501 113.5063 L324.8711 113.4816 L323.9613 113.3161 L323.4835 113.1429 L323.0793 113.1292 L322.6353 113.2169 L322.5802 113.5433 L322.694 113.7238 L322.8473 114.0552 L323.1652 114.2367 L323.5811 114.8405 L323.6616 115.1275 L323.8035 115.309 L323.7331 115.9457 L323.7343 116.0915 L323.9852 116.7945 L324.2475 117.2973 L324.2966 117.6241 L324.1963 117.785 L323.9074 117.9331 L323.4945 117.8078 L323.0634 117.737 L322.6799 117.7781 L322.4758 117.8257 L322.2072 118.024 L322.1797 118.1986 L322.3075 118.5245 L322.3476 118.7325 L322.0267 119.2193 L321.8348 119.8743 L321.5917 120.3286 L321.4183 120.4173 L321.2369 120.6828 L321.1417 120.7907 L321.0528 121.0357 L320.7429 120.8318 L320.5412 120.5448 L320.2912 120.2591 L319.8643 120.0233 L319.8849 119.8583 L320.0798 119.6211 L319.7795 119.158 L319.4305 118.9793 L319.2008 118.8294 L318.7329 118.7846 L318.3539 118.5643 L318.1351 118.1817 L317.8153 118.0451 L317.3222 117.6808 L317.1139 117.8275 L317.1537 117.9372 L317.0109 118.2133 L316.8025 118.36 L315.9059 118.6809 L315.6161 118.7471 L315.5619 118.386 L316.0915 118.0748 L316.09 117.913 L314.779 117.1638 L314.5012 116.2355 L314.3743 116.2094 L314.3916 115.8895 L314.6449 115.7972 L314.9799 115.1801 L315.7999 115.0562 L316.3355 114.8917 L317.4677 114.2819 L318.2078 113.8326 L319.2197 113.5341 L319.8735 113.5561 L320.1777 113.3732 L320.4301 113.2599 L320.9998 112.8037 L322.1039 112.2378 L323.9738 111.0572 L325.1956 110.1412 L325.1929 110.1119 L325.1764 109.9318 L325.0624 109.7787 L324.7774 109.6475 L324.4139 109.2814 L321.997 107.831 L319.1092 106.974 L316.9989 105.7695 L316.7373 105.6836 L316.5313 105.6941 L316.3346 105.7654 L316.3541 106.0337 L318.8236 107.282 L320.6439 107.7999 L323.4978 109.1214 L324.0927 109.4907 L324.3714 109.8418 L324.4978 110.0763 L324.1343 110.319 L323.4523 110.9242 L320.6253 112.5733 L319.2191 113.0867 L318.623 113.2603 L317.7947 113.4066 L316.4406 114.1955 L315.9517 114.3948 L315.5179 114.4638 L315.2455 114.335 L315.0257 114.1686 L314.7787 113.8486 L314.5862 113.5328 L314.5566 113.2251 L314.4668 112.9312 L315.12 112.3421 L316.8223 111.0124 L317.633 110.7816 L318.6485 110.2582 L319.5143 109.9528 L320.0939 109.5076 L320.5073 109.0876 L320.7352 108.7287 L320.6028 108.5372 L320.3538 108.6451 L320.0328 109.1013 L319.4945 109.6274 L317.7623 110.3464 L317.1932 110.5571 L316.8193 110.5068 L313.9731 112.8732 L313.6587 113.2905 L313.2193 113.7851 L313.4456 113.9131 L313.8345 114.0452 L313.9979 114.3615 L313.9911 114.5077 L313.7426 114.6202 L312.7241 114.7911 L312.1957 114.0895 L311.3933 113.1634 L310.9299 112.7813 L308.0397 110.7998 L307.8939 110.7002 L305.069 107.7405 L304.8771 107.7071 L304.6663 107.8223 L303.5778 109.3915 L303.114 109.9149 L302.894 109.9688 L302.7224 109.9323 L302.4018 109.7302 L302.1147 109.7526 L301.8818 109.9967 L301.7602 110.5891 L301.7468 110.857 L301.9252 111.2455 L302.3611 111.4658 L302.8131 111.7981 L303.3915 112.1067 L303.4505 112.3027 L303.435 112.5308 L303.3197 113.0089 L303.2071 113.3486 L303.0221 113.6347 L302.8661 113.6288 L302.6332 113.5762 L302.2787 113.3394 L302.0698 113.1538 L301.5046 112.7461 L301.2827 112.6337 L301.0794 112.247 L300.9441 112.0381 L300.6468 111.8534 L300.1933 111.7341 L299.9038 111.4649 L299.5119 111.0649 L300.1059 110.2532 L300.5576 109.4825 L301.6542 108.1775 L301.5899 107.9421 L299.8699 109.2425 L299.5466 109.3065 L299.358 109.2933 L298.8326 109.174 L298.497 108.651 L298.3829 108.3608 L298.0168 108.433 L297.4399 108.8151 L296.7354 108.5464 L295.335 107.9233 L294.2964 107.2249 L290.4332 105.9519 L290.1165 105.9162 L289.3243 105.8902 L289.092 105.8627 L289.036 105.7668 L289.9871 102.5757 L290.0967 102.4756 L290.3105 102.3805 L290.5072 102.3092 L290.855 102.2772 L291.0925 102.1995 L291.1847 102.1232 L291.5092 101.3849 L291.7661 100.8871 L291.7978 100.6348 L292.0978 100.4419 L292.6585 100.532 L293.1669 100.5503 L294.0336 100.5525 L294.617 100.3811 L295.3724 100.3331 L296.801 100.628 L297.4525 100.6334 L297.7893 100.1169 L298.265 99.642 L299.4394 99.3261 L301.5075 99.1702 L302.5772 99.263 L304.0376 100.0026 L304.1789 100.3016 L304.3079 100.7185 L304.637 101.6363 L304.622 101.9513 L304.3145 102.6658 L304.1984 103.1343 L303.5308 104.763 L303.3891 104.9266 L303.2041 105.3508 L302.9491 105.7233 L302.1653 106.6714 L301.8219 107.5289 L302.0377 107.7496 L303.3876 105.8079 L303.546 105.477 L304.8768 102.3951 L305.0378 102.2246 L305.0785 102.2187 L305.2986 102.1643 L305.6839 102.2064 L309.0351 104.2345 L309.5019 104.3886 L309.9312 104.2944 L311.7095 102.8907 L312.0981 102.7197 L312.7507 102.8413 L313.1606 103.004 L313.0214 103.3199 L311.2571 105.6155 L310.459 106.372 L309.019 108.2314 L308.4888 109.1721 L308.3199 109.5652 L308.3822 109.7019 L308.416 109.7051 L308.5504 109.7184 L308.7597 109.5675 L309.4632 108.3763 L310.5635 106.8176 L311.3044 106.0182 L311.8364 105.4445 L314.188 102.498 L315.2688 101.4256 L315.3209 101.1102 L314.8506 101.1523 L314.3353 101.6665 L313.9602 102.013 L313.7533 101.8777 L312.2825 100.5557 L311.3799 99.9272 L309.3884 98.7277 L308.4927 97.3756 L307.8993 96.7087 L307.7277 96.7301 L307.4703 96.5094 L307.0287 96.4115 L306.8036 96.5875 L306.5662 96.7731 L305.6932 97.142 L302.6973 98.0279 L301.9261 98.219 L301.3731 97.904 L300.7435 97.7413 L300.122 97.4405 L300.5732 97.0232 L300.4519 96.5756 L300.2403 96.3251 L299.2655 97.0629 L299.0916 97.3678 L299.5975 97.6444 L299.7436 97.9548 L300.0831 98.1737 L300.4507 98.3301 L300.8429 98.5408 L300.854 98.7625 L300.0304 99.0048 L297.6947 99.5935 L296.6741 99.8266 L295.5059 99.7288 L294.8673 99.5112 L294.6281 99.3512 L294.4979 99.1355 L295.0475 98.3662 L295.887 97.4542 L296.8771 96.8092 L297.4402 96.7489 L298.1889 96.7685 L298.4745 96.875 L298.864 96.6543 L298.9027 96.1121 L299.5999 95.5951 L300.1286 95.0329 L300.1409 94.7846 L300.1562 94.4715 L302.0428 93.0722 L303.2909 91.9194 L304.863 90.5434 L305.3007 90.2417 L305.486 90.1745 L305.7021 90.1814 L305.9764 90.3162 L307.4903 91.9313 L309.4974 93.7076 L309.7375 94.0048 L309.9761 94.2466 L310.57 94.1844 L311.0892 94.1058 L311.6532 94.2041 L312.4998 94.7188 L314.9557 96.668 L315.7819 97.6988 L315.958 98.3451 L315.3508 100.3459 L315.3314 100.5493 L315.5185 100.8446 L316.378 101.3621 L316.8316 101.5925 L317.1079 101.4179 L317.3794 101.3767 L317.5935 101.4773 L317.7764 101.7282 L317.8881 101.9481 L317.9132 102.1149 L317.8494 102.376 L317.921 102.45 L317.9725 102.5035 L318.1033 102.5465 L318.3314 102.4075 L319.8277 100.9082 L320.0244 100.8364 L320.5579 100.7976 L320.7792 100.8894 L320.8789 100.9996 L321.186 100.7011 L321.5049 100.5617 L321.9138 100.5786 L322.1497 100.6595 L322.4749 100.8099 L322.7952 101.0106 L323.0568 101.208 L323.3275 101.3251 L323.6107 101.5568 L323.7026 101.7547 L323.3817 102.2105 L323.1613 102.4267 L323.0063 102.6082 L323.0937 102.8317 L323.6724 103.3007 L324.1415 103.5219 L325.0028 103.8716 L326.6081 104.3388 L327.0335 104.5458 L327.3634 104.8087 L327.6104 105.21 L329.6082 106.494 L329.6692 106.5155 L329.8731 106.6 L330.2189 106.6938 L330.409 106.8528 L330.3252 107.2624 L329.8896 108.0897 L330.0411 108.5482 L330.3156 109.0222 L331.003 108.5231 L331.376 108.1094 L331.5173 107.6975 L331.8146 107.4155 L332.0182 107.1979 L332.502 107.1911 L332.8139 107.2519 L332.8444 107.2542 L333.3007 82.1371 L331.5254 73.6065 L331.0015 72.2853 L327.6305 63.0 L325.1127 60.2843 L305.7399 49.7183 L291.9256 57.3683 L277.736 60.8649 L276.3139 60.7689 L273.9189 59.3105 L272.6555 57.2348 L272.3756 56.7877 L272.0145 53.3938 L272.1555 51.8626 L269.0989 51.186 L270.0719 54.6425 L270.5688 57.2622 L270.456 58.1094 L270.5832 59.0421 L269.4387 60.9916 L268.2944 61.5425 L262.4736 59.4431 L261.8599 54.2858 L263.6592 43.9756 L260.0906 31.333 L262.8059 30.8575 L260.1594 25.0137 L258.6535 31.4144 L253.2438 32.9105 L253.0791 33.2736 L251.693 34.52 L249.8638 35.5991 L248.0226 32.8648 L246.9119 33.5415 L247.7891 36.1935 L246.6455 36.4862 L250.6209 43.0639 L245.959 49.2515 L244.0708 46.975 L241.6488 46.975 L240.1819 45.8411 L238.3796 48.8908 L240.3705 50.9299 L240.2387 51.3734 L235.6732 58.4555 L232.0926 55.6163 L232.5357 54.583 L231.6975 54.327 L228.1139 51.7255 L223.9675 45.425 L215.3119 38.3009 L206.7766 38.2827 L205.9602 38.9991 L204.2064 38.4262 L203.0894 38.1208 L202.3754 38.2346 L201.9622 38.9077 L201.515 39.0462 L200.1286 38.3883 L200.0253 38.9434 L199.6148 39.1702 L200.5147 40.0544 L200.4405 40.1829 L202.7903 41.7979 L202.4212 42.3763 L202.4002 43.0127 L202.5359 43.6025 L202.3452 43.8897 L200.5103 43.3995 L199.0457 42.3781 L197.8224 41.2492 L195.9663 40.2693 L195.5558 39.7216 L195.5807 38.9553 L195.7825 38.4317 L196.1453 37.8894 L197.6419 38.8126 L198.7251 39.012 L199.1301 38.7509 L199.1753 38.2744 L198.1835 37.4395 L197.9018 36.8529 L196.7779 36.5776 L185.2967 32.5264 L174.54 28.4706 L177.2943 32.7002 L174.8873 35.6037 L174.1359 39.6045 L174.6538 41.2597 L178.5098 39.8103 L178.3481 38.8272 L181.324 37.5287 L183.998 38.7893 L185.241 43.4572 L176.0366 44.5586 L171.9564 47.6471 L168.3129 45.9829 L172.603 45.1964 L174.4502 43.7745 L171.3037 43.8019 L172.6719 42.1376 L172.4683 39.888 L170.5373 39.888 L164.6456 34.4423 L161.2745 33.7244 L162.0619 30.5145 L160.1489 30.0984 L157.2689 26.1294 L157.4245 24.3552 L155.9157 22.6039 L155.5154 22.1745 L155.4328 21.1649 L152.8258 20.1475 L150.1945 18.74 L149.1473 18.7377 L146.9603 17.4413 L144.7309 16.5359 L143.9959 16.824 L141.5829 16.1298 L139.4489 15.758 L137.9682 15.4224 L131.9758 15.4636 L126.828 15.4155 L115.4726 15.4613 L115.1935 20.3496 L106.6819 18.3901 L103.8875 20.0601 L106.5532 30.9809 L109.1048 33.0751 L106.7786 36.6874 L105.2488 35.3111 L103.3657 36.2301 L102.1532 29.6183 L101.0874 36.1798 L100.5964 37.0303 L106.108 38.402 L108.6228 50.4316 L107.9522 51.5197 L105.4434 50.1161 L104.8446 51.09 L104.618 50.0416 L104.2476 49.4984 L103.1831 46.6595 L101.0754 44.3506 L100.0306 40.9991 L98.1236 39.3348 L94.5011 37.0028 L93.4772 38.4569 L96.8751 41.3192 L101.1263 49.8921 L84.909 51.8535 L81.032 48.2369 L82.2355 47.8255 L82.466 43.6602 L81.7272 41.962 L81.5326 41.1998 L79.9213 39.7234 L76.2282 40.4417 L0.0 85.7083 M13.1353 86.8356 L13.187 85.226 L15.55 83.9798 L15.6931 80.4913 L21.0936 81.8774 L20.8547 79.9176 L21.6194 80.0611 L21.7152 78.2449 L23.101 79.5829 L25.2517 79.5354 L26.7333 82.0205 L27.3611 78.9434 L32.7347 81.9551 L38.7055 81.0202 L40.4733 79.822 L41.8595 82.3071 L42.2897 81.8774 L41.9071 79.2963 L44.209 77.8531 L45.9651 77.6752 L47.7521 83.0769 L49.8212 89.2589 L48.8739 89.6337 L44.4817 92.0167 L42.4121 93.1714 L37.4724 95.8954 L33.8277 100.3811 L31.5381 105.0541 L32.2054 107.2071 L29.6247 107.7803 L27.8084 109.8354 L28.4775 112.5596 L25.3233 115.5229 L23.5551 120.1586 L26.2313 118.4382 L26.9483 121.0668 L29.9592 115.666 L28.4299 113.3243 L29.0032 112.6076 L30.2939 112.6076 L30.8196 111.0302 L33.4002 112.4161 L32.4712 108.7758 L34.4516 111.7474 L35.9761 109.4103 L34.2951 107.6706 L34.5753 106.3157 L36.8182 107.8575 L35.136 112.9509 L35.4632 113.7919 L37.0053 113.7919 L38.9211 109.3998 L39.4351 109.493 L37.0053 115.7546 L37.4724 116.4087 L39.8557 113.8856 L38.4537 117.7169 L41.6909 120.4794 L41.0679 124.2173 L36.1874 124.6849 L36.1356 126.4501 L35.201 130.3437 L32.8646 129.617 L30.3726 129.617 L27.6414 126.8496 L26.9243 126.467 L26.2076 122.7392 L24.4871 125.9894 L23.4833 124.8422 L22.3364 124.173 L23.0055 121.7359 L21.5239 123.6474 L18.7043 121.927 L24.8215 113.3243 L26.9243 111.3173 L25.1083 108.0673 L19.8988 110.8391 L18.7043 108.0193 L23.5791 104.4352 L22.8142 102.2845 L23.5791 100.755 L18.3217 98.9869 L18.2741 98.3653 L19.0387 97.601 L20.9026 98.5568 L22.2885 98.0306 L20.0901 91.9134 L19.0866 92.248 L19.6623 94.9867 L16.0428 95.9215 L15.1082 95.4539 L13.4987 93.1696 L13.2909 90.7295 L15.212 88.393 L13.1353 86.8356 M14.5064 118.5661 L17.3637 114.3615 L18.1475 114.4186 L19.636 116.4288 L17.8684 117.8238 L14.5064 118.5661 M64.7518 107.4891 L65.3116 106.1818 L65.4224 105.9532 L66.2397 108.833 L66.9926 110.3839 L69.955 116.4846 L69.3293 119.579 L68.3024 122.9979 L68.1497 127.6051 L67.0181 130.032 L68.6287 117.7233 L64.7518 107.4891 M65.9523 104.1888 L66.0391 103.974 L67.3743 100.724 L69.2544 93.3735 L71.0357 91.0193 L72.4398 85.7165 L72.6817 85.2562 L76.5563 77.881 L76.4156 77.8032 L76.4156 77.5747 L76.7629 77.753 L78.5472 76.7746 L78.6489 76.7243 L75.4127 81.6113 L70.8112 92.5598 L66.4253 105.2127 L66.6379 107.8959 L67.0181 109.1438 L69.3353 110.7619 L69.6646 112.5491 L66.8983 109.7792 L66.0122 106.3098 L65.9523 104.1888 M78.4693 75.6546 L93.7287 55.4517 L93.7436 55.438 L94.6298 56.3753 L81.4182 73.7711 L78.4693 75.6546 M102.2927 171.4098 L102.4211 170.8317 L103.2884 170.8317 L104.5539 171.0853 L104.7979 172.7912 L105.6972 173.2084 L105.967 175.1966 L105.5688 175.7459 L104.7659 174.8466 L104.3803 174.6862 L104.6374 173.8509 L103.995 173.7869 L103.8471 175.0363 L103.269 175.1327 L103.3205 174.5898 L103.3205 173.7545 L102.8064 173.4012 L102.9801 173.0768 L103.269 171.8887 L102.2927 171.4098 M102.3247 164.6004 L102.9672 162.1592 L103.3974 162.092 L103.8986 163.4442 L103.4489 163.8619 L103.7058 166.6563 L104.2842 170.1572 L103.8986 170.1892 L103.783 169.5435 L102.678 167.5877 L102.3891 166.2387 L102.3247 164.6004 M106.4361 183.8079 L106.6289 182.5554 L107.0914 182.263 L107.5923 184.5792 L107.4124 185.1541 L107.1426 185.4785 L106.5002 184.5468 L106.4361 183.8079 M133.273 39.4994 L133.8104 37.723 L134.0631 36.7267 L134.0802 36.3554 L134.3933 35.2763 L135.4444 33.0166 L135.719 33.0468 L136.2881 35.6883 L136.3566 35.8991 L136.7279 36.1739 L136.7605 36.3901 L136.6934 36.916 L136.533 37.3087 L136.389 37.8099 L136.0818 38.4459 L135.8576 39.1432 L135.5714 39.8304 L135.5642 40.0851 L135.1636 40.3709 L134.8627 40.3832 L134.0212 40.2739 L133.6173 40.0156 L133.579 40.0023 L133.2793 39.8921 L133.273 39.4994 M135.5324 40.6296 L135.7513 40.198 L136.0153 39.6132 L136.2246 39.0783 L136.4743 38.5913 L137.1284 37.103 L137.0883 36.3769 L137.7712 36.531 L138.9798 37.0106 L140.1198 37.2795 L140.2531 37.5054 L140.2863 38.1382 L139.9636 38.9091 L139.8133 39.4225 L139.1693 40.4449 L138.564 41.5318 L138.4448 41.9552 L138.1843 42.6579 L138.052 42.7516 L137.8371 42.7846 L136.2528 41.5148 L135.5324 40.6296 M135.8636 32.7962 L136.0016 32.6673 L136.2605 32.5694 L136.7096 32.5511 L137.2174 32.6737 L137.3356 32.9883 L137.0892 33.9654 L136.9326 34.6837 L136.8057 35.435 L136.8901 35.8296 L136.8602 35.9338 L136.6641 35.7601 L136.503 35.5721 L135.8636 32.7962 M137.0123 35.873 L137.2383 34.2173 L137.5095 33.5356 L137.9362 32.793 L138.4068 32.4921 L139.363 32.2731 L141.0731 32.6764 L141.4332 32.6394 L141.7787 32.6494 L142.0248 32.7409 L142.0978 33.0043 L142.073 33.553 L141.9583 34.1108 L141.9416 34.7413 L141.8146 35.6837 L141.5245 36.5346 L141.3356 36.713 L140.95 36.7111 L140.3701 36.552 L139.5711 36.4487 L139.348 36.5369 L139.1226 36.7459 L138.2331 36.4862 L137.1198 36.1149 L137.0123 35.873 M137.9841 43.7566 L138.6283 42.443 L138.8388 41.8953 L138.9166 41.4412 L139.7043 40.1057 L140.2456 39.3233 L140.4506 38.7394 L140.4944 38.3334 L140.6985 38.2566 L140.9452 38.4893 L141.4006 39.0897 L142.4562 39.8729 L142.5496 40.1084 L142.5574 40.3777 L141.9431 41.8555 L141.4293 42.4325 L140.9602 42.924 L140.5156 43.2743 L139.9791 43.4265 L139.8243 43.8083 L139.4489 44.234 L139.3169 44.5042 L138.7511 44.7086 L138.5861 44.586 L138.399 44.3199 L138.1299 43.9926 L137.9841 43.7566 M147.0169 35.7326 L147.0579 34.7953 L149.5955 34.1876 L150.5023 34.05 L151.043 34.0454 L151.2711 34.1917 L151.5726 34.4624 L151.7738 35.0262 L152.3686 35.5054 L152.7174 35.6188 L153.077 35.9677 L153.2641 36.2717 L153.3602 36.964 L153.3835 37.7756 L153.5194 39.252 L154.3769 41.1134 L154.8151 41.9821 L155.1978 42.5395 L155.6142 42.9085 L155.6917 43.4206 L155.5061 43.7566 L154.9271 43.9857 L153.1338 44.1627 L152.9027 43.7031 L152.5848 43.4937 L152.1974 43.619 L151.7992 43.7004 L151.4432 44.0872 L150.5574 44.5088 L149.8473 44.6373 L148.9045 42.7891 L148.5893 42.2674 L148.124 41.6022 L147.8585 41.0809 L147.7911 40.6338 L148.5264 40.177 L148.739 40.6228 L149.0135 40.685 L148.9267 40.2744 L148.6566 39.8871 L148.5246 39.4788 L148.4686 39.1089 L148.0806 38.2159 L147.5914 37.392 L147.1897 36.6005 L147.0169 35.7326 M147.4202 47.0688 L147.6313 46.5942 L148.412 46.2234 L149.3988 45.9778 L149.97 45.7789 L150.3002 45.8242 L150.3807 45.9742 L150.6676 45.9513 L150.9322 45.8905 L151.1301 45.8023 L151.3882 45.9458 L151.7297 45.8731 L152.1363 45.8649 L153.6476 45.8352 L154.1149 46.184 L154.6831 48.2973 L154.866 49.1509 L154.8137 49.4627 L154.7164 49.6978 L154.34 49.8962 L154.3125 50.1248 L154.1978 50.3543 L152.8207 50.8714 L152.1908 50.9295 L152.1255 50.9354 L151.7974 50.7109 L151.6172 50.4512 L151.6456 50.1728 L151.7594 49.9931 L152.1743 49.6392 L152.0932 49.4851 L151.6375 49.5172 L151.2726 49.6804 L150.0014 50.4311 L149.5278 50.4531 L148.9407 50.1888 L147.4202 47.0688 M148.4177 197.4121 L150.0556 194.7464 L153.4281 193.9592 L155.8211 196.8825 L154.1996 199.3604 L150.3448 200.4638 L148.4177 197.4121 M153.2458 216.0791 L154.1371 216.0042 L154.1673 216.271 L154.9693 216.8028 L154.955 217.2898 L153.8257 217.4977 L153.6778 217.7431 L153.6359 217.2665 L153.2485 216.8933 L153.2458 216.0791 M161.1249 45.1736 L163.1786 44.977 L163.3912 44.9587 L164.2624 45.9463 L163.5229 47.4322 L164.6905 48.461 L164.8791 51.25 L164.0959 50.8134 L163.3492 51.7301 L162.2505 51.6615 L161.1249 45.1736 M162.1242 144.6709 L162.2577 143.9114 L162.3924 143.5087 L162.6433 143.0129 L163.0789 142.3936 L164.0459 141.4421 L164.4516 140.7922 L164.562 140.4937 L164.6393 140.0093 L164.733 139.7835 L164.8623 139.6432 L165.0623 139.5728 L165.2449 139.6203 L165.8086 139.9823 L166.1038 140.0239 L167.2798 140.0102 L167.5226 140.0742 L167.7408 140.1916 L168.1824 140.5924 L168.7336 141.2492 L169.2811 141.8237 L169.5982 142.2633 L170.0757 143.1162 L170.3332 143.942 L170.3329 144.0969 L170.3317 144.4955 L170.2326 144.968 L170.0218 145.4982 L169.4883 146.5644 L167.9127 149.9271 L167.842 150.0363 L167.5388 150.5066 L167.1253 150.9065 L166.2607 151.4403 L165.7847 151.6432 L165.0321 151.8228 L164.5659 151.8232 L163.8438 151.5906 L163.6399 151.5033 L163.5774 151.4704 L163.316 151.0175 L163.1076 150.4358 L162.8265 147.828 L162.2987 146.0425 L162.1589 145.2994 L162.1242 144.6709 M162.9062 60.5815 L164.1666 59.3196 L164.448 59.3196 L165.9748 60.5769 L164.8701 60.7186 L164.8731 62.4057 L166.0676 65.7203 L165.0557 64.3898 L162.9062 60.5815 M165.87 46.3166 L166.0047 45.832 L167.2951 48.2369 L170.2679 51.0397 L169.4596 52.5027 L168.6872 52.2558 L166.5616 52.9097 L166.852 48.2872 L165.87 46.3166 M166.2173 58.7573 L166.5257 57.6966 L167.2172 57.0382 L167.5555 58.1675 L168.0136 57.9023 L168.0136 56.5673 L168.4537 56.9148 L170.1092 57.2622 L169.5853 58.0806 L167.81 59.5254 L166.2173 58.7573 M173.9592 79.1071 L177.9036 78.1205 L179.1984 79.1656 L181.2461 80.4182 L186.5227 80.2911 L195.3082 76.7102 L196.8288 77.5838 L194.8828 77.625 L190.4969 85.3371 L192.3471 87.3896 L193.1375 86.5119 L194.3589 87.3073 L194.1344 88.4822 L192.0387 91.2707 L190.7664 91.4307 L184.9554 88.4456 L185.5542 86.4616 L182.3089 85.0765 L178.2433 87.0559 L175.3963 85.1039 L173.9592 79.1071 M176.0848 68.9159 L184.6171 68.7011 L185.4913 68.1387 L185.7218 68.0244 L192.3651 70.6898 L193.9817 72.2716 L194.8828 76.3495 L187.3984 79.513 L181.9386 79.9638 L180.6959 79.3475 L178.6565 73.5836 L176.0848 68.9159 M176.977 110.7253 L177.1746 108.737 L178.9409 108.0239 L180.0426 107.6171 L180.1743 107.5714 L181.9347 111.7035 L176.977 110.7253 M177.6652 330.2957 L177.9925 329.8099 L177.9922 329.7733 L177.9497 329.6957 L177.8886 329.5701 L177.811 329.4044 L177.7931 329.324 L177.7997 329.2856 L177.853 329.2098 L177.9068 329.1815 L178.1631 329.2386 L178.2736 329.2368 L178.4185 329.2322 L178.4766 329.2527 L178.5433 329.3272 L178.5769 329.3948 L178.6191 329.5382 L178.6227 329.6158 L178.5763 329.7669 L178.4945 329.8542 L178.3664 329.961 L178.32 330.024 L178.2703 330.1816 L178.2329 330.4062 L178.2062 330.5099 L178.1931 330.5181 L178.1493 330.5099 L177.838 330.4327 L177.6937 330.3811 L177.6718 330.3597 L177.6652 330.2957 M181.0575 107.6628 L182.8957 107.2926 L183.24 107.1554 L183.5004 107.1097 L184.8536 108.6318 L187.8863 109.1484 L188.0929 111.2464 L187.1828 111.6121 L182.3927 111.3881 L181.0575 107.6628 M191.2035 97.1539 L192.389 95.4534 L191.5388 94.2649 L191.895 94.0683 L197.9814 98.5435 L194.9008 99.668 L191.2035 97.1539 M203.5334 328.8934 L204.6576 328.9897 L212.4097 327.4672 L214.0368 327.6727 L214.2086 328.2061 L216.7028 329.5034 L219.0152 330.146 L221.3833 329.9578 L224.4549 327.5316 L226.0817 326.2594 L230.2251 324.525 L237.0989 321.9234 L238.3374 321.7713 L238.2551 322.3732 L236.6923 323.2915 L235.7289 324.3195 L234.3045 324.846 L233.8018 325.7648 L232.4094 327.0946 L230.4613 328.3988 L227.8483 329.0541 L226.3176 329.3943 L224.8402 329.9724 L223.3307 330.8076 L221.0821 331.3214 L219.0795 332.1694 L218.0628 333.1525 L217.0351 333.9877 L215.8465 333.3452 L216.4136 332.5872 L216.542 331.3346 L215.3214 330.6277 L213.5871 329.8889 L212.5914 329.0541 L211.7561 329.4071 L210.8888 330.6597 L209.6042 330.6921 L207.8376 331.0456 L206.9173 331.8036 L206.0823 331.4501 L205.1716 330.6921 L203.5657 329.6962 L203.5334 328.8934 M214.973 387.2698 L214.9742 387.099 L215.0029 386.9785 L215.0236 386.9059 L215.0454 386.8785 L215.0966 386.878 L215.1167 386.8931 L215.1676 387.0177 L215.2274 387.194 L215.2732 387.2643 L215.3457 387.3017 L215.4702 387.3204 L215.5295 387.3355 L215.6918 387.3999 L215.7573 387.4501 L215.8415 387.5738 L215.9346 387.7596 L215.9849 387.8496 L216.0989 387.9924 L216.1393 388.0116 L216.1965 388.0313 L216.2127 388.0495 L216.245 388.2385 L216.2271 388.3212 L216.1783 388.3572 L216.0277 388.3924 L215.881 388.4508 L215.8142 388.4494 L215.7016 388.3814 L215.5011 388.1783 L215.4014 387.9641 L215.2023 387.6925 L215.0427 387.4693 L214.9885 387.3501 L214.973 387.2698 M216.2848 379.4747 L216.298 379.2529 L216.3738 379.0812 L216.6252 378.7671 L216.8204 378.5251 L216.9243 378.4388 L216.9617 378.4443 L217.0381 378.5242 L217.1093 378.653 L217.2659 378.7388 L217.3677 378.8369 L217.394 378.8958 L217.4039 379.0858 L217.3931 379.1835 L217.3512 379.3099 L217.2722 379.3633 L217.1297 379.4104 L217.0809 379.4528 L216.9914 379.661 L216.9102 379.971 L216.8671 380.124 L216.8438 380.181 L216.8144 380.2573 L216.8102 380.2952 L216.8363 380.3595 L216.8845 380.4408 L216.8815 380.4664 L216.7959 380.5038 L216.6381 380.5207 L216.5827 380.5093 L216.4231 380.134 L216.369 379.9381 L216.3034 379.6304 L216.2848 379.4747 M220.7531 382.3231 L220.7773 382.1017 L220.8076 381.994 L220.8525 381.9091 L220.8812 381.8803 L220.9126 381.8648 L220.9992 381.8556 L221.1003 381.8698 L221.2656 381.9374 L221.2863 382.0031 L221.2791 382.0657 L221.2372 382.1661 L221.0662 382.1515 L221.0045 382.23 L220.9839 382.2811 L220.9809 382.3515 L221.0138 382.4204 L221.1258 382.5551 L221.2228 382.6231 L221.2237 382.6678 L221.1566 382.7929 L221.0947 382.8372 L221.0189 382.792 L220.8671 382.5943 L220.7698 382.4167 L220.7531 382.3231 M221.3225 383.4083 L221.3339 383.3581 L221.4288 383.2518 L221.5075 383.2225 L221.7494 383.2942 L221.9257 383.3435 L222.0057 383.38 L222.1012 383.4691 L222.1194 383.5225 L222.0952 383.6549 L222.0664 383.7197 L222.0057 383.7795 L221.8778 383.7918 L221.7781 383.7763 L221.5928 383.7083 L221.4398 383.5905 L221.3755 383.5161 L221.3225 383.4083 M222.4682 383.3189 L222.5071 383.128 L222.5751 383.0084 L222.6272 382.9098 L222.7742 382.7372 L222.8927 382.6852 L222.9451 382.6943 L222.9897 382.7409 L223.0619 382.876 L223.1158 382.9801 L223.2032 383.1125 L223.3819 383.375 L223.5002 383.5796 L223.6439 383.937 L223.6852 384.1224 L223.69 384.2356 L223.6633 384.4666 L223.6567 384.6364 L223.7421 384.7793 L223.7828 384.9496 L223.7705 385.0076 L223.7088 385.0245 L223.5897 385.0035 L223.543 384.9793 L223.5035 384.9346 L223.4463 384.8131 L223.4005 384.7223 L223.1301 384.3653 L222.7601 383.9083 L222.5413 383.5805 L222.4754 383.4083 L222.4682 383.3189 M225.791 322.5659 L231.4442 320.8954 L231.6825 322.0065 L232.7594 320.9091 L233.3539 321.0575 L233.8662 320.9479 L234.5739 322.0407 L235.1508 321.6535 L235.9217 322.1672 L226.4784 325.8292 L225.791 322.5659 M228.5839 478.7044 L228.6384 478.6113 L228.7764 478.5356 L228.924 478.4689 L229.0171 478.4762 L229.0536 478.4959 L229.0719 478.5283 L229.0827 478.6159 L229.0869 478.7081 L229.0746 478.7459 L229.0462 478.7683 L228.9641 478.7934 L228.7887 478.8418 L228.6866 478.8148 L228.5845 478.7788 L228.5839 478.7044 M228.8842 477.4015 L228.9073 477.3198 L228.9294 477.2897 L229.0034 477.2984 L229.0408 477.3354 L229.1716 477.4732 L229.2366 477.5001 L229.3105 477.4718 L229.4395 477.4239 L229.6437 477.496 L229.9039 477.5959 L230.0344 477.6502 L230.0895 477.6867 L230.1096 477.7169 L230.1185 477.7885 L230.0539 477.8168 L229.897 477.8369 L229.6473 477.8488 L229.518 477.8684 L229.4258 477.9067 L229.3428 477.9446 L229.195 477.9738 L229.0935 477.9934 L229.0096 477.9199 L228.9998 477.8738 L228.9803 477.7716 L228.9141 477.6334 L228.8842 477.4015 M229.0713 368.1456 L230.2278 367.5996 L232.1549 367.3105 L234.0162 365.287 L237.2926 366.3148 L237.1318 367.2786 L231.6088 368.6597 L229.9066 368.5953 L229.0713 368.1456 M229.3961 478.8436 L229.4126 478.6209 L229.43 478.5187 L229.4851 478.4717 L229.5856 478.4069 L229.6416 478.3868 L229.8724 478.3658 L230.1132 478.3726 L230.2521 478.3991 L230.3371 478.447 L230.4943 478.5639 L230.6068 478.7113 L230.7113 478.9883 L230.7523 479.1617 L230.7601 479.2479 L230.7383 479.3164 L230.7149 479.341 L230.6676 479.3625 L230.558 479.3798 L230.2476 479.3748 L230.0952 479.3565 L230.0395 479.3383 L229.9371 479.2744 L229.6482 479.064 L229.4716 478.9727 L229.4063 478.9271 L229.3961 478.8436 M230.6631 477.5503 L230.6904 477.5033 L230.755 477.4937 L230.8388 477.5389 L230.8766 477.6128 L230.9242 477.7424 L230.9805 477.8255 L231.1014 477.8798 L231.1664 477.9072 L231.2131 477.9715 L231.2792 478.1007 L231.3915 478.2111 L231.5041 478.3772 L231.5172 478.4283 L231.5148 478.5346 L231.4831 478.5798 L231.4598 478.5908 L231.4232 478.5908 L231.3487 478.5643 L231.2643 478.463 L231.208 478.3799 L231.0682 478.2887 L230.8915 478.2065 L230.7703 478.0874 L230.7044 477.9765 L230.6841 477.8095 L230.673 477.6242 L230.6631 477.5503 M230.9514 376.8623 L230.9936 374.9973 L234.2733 373.5418 L238.0311 371.8397 L242.3033 369.077 L242.785 368.9807 L242.9454 370.7796 L242.3353 370.8759 L239.2197 373.0282 L238.2883 373.7345 L235.3652 374.2805 L235.9436 376.1437 L236.104 377.8782 L236.6181 379.709 L235.9436 380.1587 L234.9155 378.1672 L230.9514 376.8623 M232.2304 95.5128 L232.6645 93.8352 L233.6404 93.8352 L235.9546 94.6672 L235.6253 96.1619 L232.2304 95.5128 M236.9704 385.0387 L237.2273 383.9466 L237.709 382.8226 L238.1587 382.8226 L239.1224 383.0472 L239.2942 383.8055 L238.1587 384.9747 L237.4842 385.3601 L236.9704 385.0387 M242.9302 99.956 L247.2292 98.9229 L247.3819 98.9138 L248.3878 98.8635 L247.9418 100.8062 L245.1785 101.6153 L243.502 101.6062 L242.9302 99.956 M246.9948 370.1463 L247.6469 365.5454 L249.1767 365.1263 L250.044 365.576 L249.209 366.8608 L248.663 368.4346 L247.5065 370.2016 L247.0496 370.8097 L246.9948 370.1463 M252.3636 103.5077 L256.2256 102.5433 L256.5549 102.0267 L257.2105 102.1593 L258.5757 102.5798 L257.9021 104.1386 L254.3096 104.2345 L252.3636 103.5077 M253.2986 476.8302 L253.38 476.6791 L253.4626 476.5933 L253.63 476.5527 L253.7225 476.508 L253.7596 476.4756 L253.8497 476.2866 L253.9659 475.9941 L254.0087 475.7687 L254.0536 475.6555 L254.0859 475.6012 L254.1084 475.5889 L254.1871 475.5948 L254.3521 475.6409 L254.5311 475.7313 L254.635 475.7952 L254.673 475.8321 L254.808 476.0827 L254.9074 476.4272 L254.9508 476.764 L255.0311 477.0903 L255.0299 477.1482 L254.9966 477.2596 L254.9415 477.3258 L254.9047 477.3454 L254.8272 477.3618 L254.6622 477.3682 L254.3539 477.355 L254.0171 477.3144 L253.774 477.3089 L253.633 477.282 L253.5677 477.2564 L253.5054 477.2185 L253.397 477.119 L253.3102 476.952 L253.2986 476.8302 M255.1328 95.2751 L258.2374 94.69 L257.3782 92.0432 L259.9978 89.9999 L260.0966 91.9747 L260.2971 99.2109 L257.947 99.1378 L255.5969 99.0738 L255.1328 95.2751 M255.6627 99.5492 L258.5218 99.5492 L261.3809 99.5492 L272.2334 106.4286 L274.0237 109.3586 L275.0862 112.1784 L274.8919 114.3043 L272.6567 126.1027 L271.5418 125.5771 L270.5509 125.0135 L272.3471 124.1406 L272.9459 117.5725 L272.1645 115.5384 L273.365 113.6918 L273.5746 110.5242 L271.6436 106.7486 L270.4221 105.7293 L268.7516 111.155 L266.5122 110.9082 L267.4074 105.7064 L268.7546 104.4128 L261.0995 100.3994 L258.2015 101.1445 L255.6627 99.5492 M257.1105 353.2102 L257.7207 351.5075 L258.2024 350.0943 L259.3265 350.1267 L260.7399 348.1993 L262.0889 347.2998 L260.1939 351.7326 L259.1017 352.3106 L258.2988 353.8202 L257.1105 353.2102 M269.4447 61.5535 L270.3925 60.25 L271.3547 59.6762 L271.7642 59.5601 L272.3292 59.6493 L273.665 59.9583 L274.8332 60.6418 L275.3328 61.1379 L275.3972 61.2865 L275.3825 61.468 L275.2808 61.7679 L273.6884 63.6222 L273.6249 63.7585 L273.689 64.3926 L273.7836 64.8105 L273.5246 66.4426 L273.1333 67.6834 L272.9654 67.8246 L272.8097 67.8379 L272.6827 67.762 L270.4039 63.3077 L269.4521 61.7688 L269.4447 61.5535 M269.5318 63.4284 L269.6234 63.4778 L269.683 63.5953 L270.1751 64.6294 L271.9274 68.1694 L272.1433 68.6956 L272.9058 70.6966 L272.7552 71.0729 L272.4938 71.5657 L272.1729 71.6933 L271.661 71.5131 L271.1664 71.451 L270.6577 71.0166 L270.1913 69.9034 L269.9132 68.4057 L269.7686 66.6762 L269.5692 64.2349 L269.5318 63.4284 M270.2033 457.1983 L270.2476 457.0564 L270.3853 456.8651 L270.626 456.6442 L270.8589 456.5274 L270.9805 456.5064 L271.2364 456.6242 L271.3316 456.6885 L271.326 456.9149 L271.2077 457.1431 L271.0314 457.2686 L270.8739 457.4037 L270.6595 457.5013 L270.5557 457.4657 L270.4042 457.4023 L270.2709 457.3106 L270.2033 457.1983 M270.861 459.8723 L270.876 459.6555 L270.9224 459.6167 L271.043 459.5391 L271.1173 459.4816 L271.1436 459.3867 L271.1709 459.3392 L271.2083 459.3196 L271.4885 459.2302 L271.5915 459.2187 L271.7238 459.2543 L271.7915 459.3662 L271.8391 459.4123 L271.972 459.4853 L272.0975 459.6811 L272.1388 459.8969 L272.2022 460.3104 L272.1418 460.613 L272.0127 460.7563 L271.8355 460.8348 L271.6672 460.8663 L271.4873 460.7937 L271.2858 460.5523 L271.0655 460.2926 L270.9413 460.163 L270.8826 460.032 L270.861 459.8723 M271.0838 312.7264 L271.1035 312.6268 L271.1239 312.5939 L271.1646 312.5834 L271.279 312.609 L271.361 312.6369 L271.4685 312.6766 L271.5209 312.6821 L271.5631 312.6743 L271.6466 312.6328 L271.6933 312.5866 L271.655 312.4583 L271.661 312.3957 L271.6768 312.3697 L271.7361 312.3259 L271.7771 312.3231 L271.8397 312.3857 L271.916 312.5076 L271.9562 312.5656 L272.0708 312.694 L272.1349 312.905 L272.222 312.9438 L272.2418 313.0141 L272.2364 313.0506 L272.1448 313.2662 L272.0777 313.3511 L272.0136 313.3794 L271.8544 313.3854 L271.6849 313.3612 L271.5301 313.2835 L271.4655 313.2297 L271.2945 312.9438 L271.2266 312.8917 L271.1272 312.8314 L271.0954 312.794 L271.0838 312.7264 M283.4616 315.3012 L283.4873 315.2217 L283.5583 315.1253 L283.6023 315.087 L283.6927 315.0335 L283.8702 314.9632 L283.9514 314.9491 L284.1729 314.9395 L284.2747 314.9874 L284.3612 315.0555 L284.393 315.097 L284.4283 315.2085 L284.4256 315.2637 L284.4019 315.3199 L284.3178 315.4199 L284.2016 315.5053 L284.1361 315.5327 L283.8604 315.5893 L283.7223 315.5953 L283.5936 315.5583 L283.5436 315.5185 L283.5044 315.4546 L283.4616 315.3012 M288.7621 466.6596 L288.7705 466.5131 L288.8019 466.3817 L288.833 466.3237 L289.0818 466.0846 L289.2659 465.8838 L289.4875 465.6825 L289.6545 465.5858 L289.8231 465.5734 L290.0581 465.6068 L290.3075 465.5817 L290.4326 465.5817 L290.6826 465.599 L290.7991 465.6319 L290.9012 465.6884 L290.9649 465.7373 L291.0748 465.8527 L291.1688 465.9919 L291.3167 466.2995 L291.3517 466.4118 L291.3882 466.6464 L291.3876 466.792 L291.3733 466.8627 L291.2954 467.0676 L291.2377 467.1566 L291.1799 467.2082 L291.0335 467.273 L290.9694 467.2785 L290.8365 467.2575 L290.4784 467.1603 L290.1305 467.0913 L289.8491 467.0772 L289.5683 467.1105 L289.3339 467.1142 L289.1169 467.0243 L288.9597 466.9458 L288.8896 466.8965 L288.8016 466.7906 L288.7744 466.729 L288.7621 466.6596 M291.1143 95.4493 L291.7146 94.8637 L291.9654 94.439 L292.9881 93.8521 L294.588 92.5493 L296.9929 95.5407 L297.0046 95.6171 L293.9898 97.7998 L293.815 97.8067 L293.6168 97.6604 L291.1859 95.5366 L291.1143 95.4493 M295.5792 362.7543 L295.6062 362.6616 L295.6361 362.626 L295.7433 362.6009 L295.9636 362.5831 L296.2346 362.605 L296.3621 362.6406 L296.4983 362.7128 L296.5591 362.7607 L296.6184 362.8406 L296.6175 362.9146 L296.5328 363.0689 L296.493 363.0972 L296.3906 363.1118 L296.2055 362.9972 L295.8496 362.9831 L295.7095 362.9361 L295.6502 362.8972 L295.6155 362.8566 L295.5792 362.7543 M296.1415 361.333 L296.149 361.2978 L296.1798 361.2942 L296.2771 361.3407 L296.4196 361.4695 L296.6756 361.7836 L296.7214 361.8718 L296.7184 361.8978 L296.6606 361.9005 L296.5046 361.8549 L296.4277 361.8074 L296.2912 361.6836 L296.2073 361.564 L296.1774 361.4978 L296.1535 361.4421 L296.1415 361.333 M297.1022 91.1436 L297.1686 90.937 L297.3147 90.7386 L298.2 90.1238 L299.0158 89.3078 L300.4579 87.5195 L300.7426 87.2017 L301.0145 86.9937 L301.336 86.8566 L301.6611 86.8077 L301.9569 86.8904 L302.3497 87.0957 L302.9485 87.9569 L303.9283 89.4669 L304.1358 89.7398 L304.1433 89.8563 L303.94 90.0643 L301.3474 92.1333 L300.1277 93.3177 L299.4709 93.8265 L299.3562 93.8439 L299.252 93.8009 L297.2653 91.5797 L297.1243 91.3562 L297.1022 91.1436 M298.7476 359.3578 L298.8066 359.1925 L298.8898 359.108 L299.1646 359.1025 L299.3335 359.2692 L299.44 359.5779 L299.3769 359.876 L299.1718 360.0271 L298.9386 359.9906 L298.8299 359.8262 L298.756 359.5733 L298.7476 359.3578 M301.1309 344.5962 L301.1707 344.4277 L301.2127 344.3555 L301.3267 344.272 L301.392 344.2606 L301.512 344.2857 L301.6716 344.3555 L301.742 344.4021 L301.8611 344.5181 L302.0027 344.6971 L302.0773 344.7825 L302.6006 345.2953 L302.7769 345.5227 L302.8215 345.6418 L302.8057 345.7304 L302.7727 345.7907 L302.682 345.8911 L302.5706 345.9647 L302.3997 346.0345 L302.3141 346.0532 L302.1512 345.9249 L301.8518 345.6364 L301.6848 345.4359 L301.4761 345.1555 L301.371 345.0163 L301.1935 344.7893 L301.1384 344.6619 L301.1309 344.5962 M305.5396 166.7071 L305.5806 166.1815 L305.721 164.9385 L305.8491 164.3582 L306.0318 163.3958 L305.874 163.0914 L306.0036 162.1907 L306.2596 162.0733 L306.8566 160.3956 L306.9676 159.9757 L307.2436 159.967 L307.8634 159.6782 L307.9625 159.5383 L309.1285 159.6613 L309.6489 159.8692 L310.0054 159.7321 L310.5284 159.8774 L310.7862 159.8011 L311.511 159.6041 L311.693 159.5475 L311.8741 159.595 L311.8888 159.7216 L312.0672 159.861 L312.5507 159.8792 L312.6971 159.7778 L312.9022 159.8468 L313.1492 159.8632 L313.4115 159.6782 L313.5507 159.9981 L313.5384 160.2741 L313.7935 160.3184 L313.9168 160.063 L315.5218 160.211 L315.7652 159.8459 L315.4403 159.5872 L315.5059 159.4154 L316.0795 159.2623 L316.7211 158.9826 L317.0139 158.7262 L317.0363 157.9375 L317.9126 153.2381 L318.4404 150.2452 L318.6437 149.7781 L318.377 149.7685 L318.0449 151.0322 L317.7701 152.5115 L317.5144 154.0086 L317.2633 155.3975 L316.8172 158.0787 L316.6609 158.4182 L316.1166 158.3798 L315.4975 158.2866 L315.0332 158.1737 L314.7835 157.7254 L315.2556 156.981 L315.7427 156.0304 L315.8676 155.0972 L315.8448 154.3404 L316.1544 152.2656 L316.701 149.8389 L316.8546 149.6406 L318.459 149.6904 L318.9874 149.7562 L319.0134 149.7726 L319.2203 150.2228 L319.2266 151.0655 L319.3212 152.1066 L319.4335 153.4612 L319.8903 155.2869 L320.4627 156.8626 L320.4813 158.3351 L320.8636 158.5636 L321.0387 160.1703 L321.1788 160.5231 L321.1669 161.0487 L321.0762 161.6026 L321.1642 162.0504 L321.0444 162.5503 L320.8417 162.9095 L320.7055 163.2166 L320.7489 163.5882 L320.7729 164.3536 L320.7319 164.6881 L320.578 165.1515 L320.2909 165.3654 L320.2095 165.5399 L319.8245 165.7063 L319.2053 166.0824 L318.717 166.389 L318.2838 166.7034 L318.1862 167.0297 L317.8494 166.9812 L317.2941 166.6248 L316.3352 166.3917 L315.2242 166.2231 L314.3779 166.2432 L312.8893 166.1815 L311.7077 166.3684 L310.2021 166.3301 L309.3809 166.4087 L308.6244 166.7226 L305.5704 166.9685 L305.5396 166.7071 M306.3982 61.2833 L306.6434 60.5879 L306.8452 60.2431 L307.3891 60.2738 L308.3466 59.0266 L308.187 58.2699 L308.6648 57.5713 L308.7974 57.7062 L309.1046 57.3468 L309.0681 56.9477 L309.2411 56.1041 L309.5426 55.3809 L310.1952 55.3653 L310.4719 55.3854 L311.0467 55.7059 L310.9314 56.0977 L309.8839 58.4761 L308.8962 61.1987 L308.9004 61.681 L309.2163 61.5082 L310.9688 56.8983 L311.3598 56.1618 L311.7691 56.0456 L315.4041 58.285 L316.3987 58.7129 L316.5208 59.0023 L316.249 59.401 L316.5358 60.1224 L316.5582 60.3268 L315.9888 61.3207 L313.9339 63.742 L313.318 64.912 L312.6157 65.4793 L311.9526 64.7899 L310.8766 64.0588 L309.2372 62.7769 L307.6316 61.7478 L307.2739 61.2156 L306.3982 61.2833 M306.5174 85.8998 L306.5865 85.6648 L307.7679 84.2884 L308.739 83.0038 L308.9729 82.7739 L309.1752 82.7281 L309.4255 82.7053 L310.532 83.0171 L311.7304 83.4344 L311.5837 83.8642 L311.246 84.4845 L310.8164 85.1565 L311.3275 85.626 L312.2981 86.4232 L312.9292 86.9403 L313.3408 87.5556 L313.5411 88.0324 L313.6034 88.2266 L313.7013 88.3821 L314.1937 89.8961 L314.0342 90.3249 L313.0037 91.2396 L312.1963 91.769 L311.5831 92.2942 L308.5301 88.778 L308.1903 88.2879 L307.7999 87.876 L306.5572 86.1631 L306.5174 85.8998 M312.1624 172.3415 L312.252 171.8334 L312.4394 171.2069 L312.5738 171.0533 L312.7657 171.0076 L313.0905 171.046 L313.4752 171.2622 L313.6758 171.2192 L313.8045 170.9711 L314.0318 170.9948 L314.4832 171.0762 L314.5913 170.9683 L315.085 170.8897 L315.2622 171.1872 L315.5415 171.1155 L315.8679 171.0538 L316.161 170.993 L316.4418 170.9587 L316.5765 170.6974 L316.7516 170.2637 L317.013 169.9913 L317.3573 169.7734 L317.8285 169.6271 L318.2216 169.4594 L318.4329 169.2657 L318.5569 168.9892 L318.7488 168.9974 L319.0071 169.1994 L319.2562 168.9833 L319.4826 169.0034 L320.2696 169.1085 L321.0067 169.1341 L321.3731 169.3653 L321.6707 169.6651 L322.059 170.0969 L322.3365 170.6201 L322.5482 171.174 L322.5356 171.45 L322.3985 171.9983 L321.8923 173.1513 L321.6602 174.3915 L321.3513 174.9531 L320.6211 175.2506 L320.287 175.3968 L320.0921 175.6175 L320.1933 175.9593 L320.4029 176.2518 L320.6328 176.3751 L320.8863 176.8769 L321.0887 177.2443 L321.1938 177.7652 L321.2767 177.9855 L321.2393 178.1778 L321.1809 178.3405 L320.9007 178.4328 L320.4289 178.4086 L320.1017 178.5411 L319.6604 178.4497 L319.4622 178.5923 L319.3026 178.4959 L318.6389 177.6363 L319.2835 178.7271 L319.3514 179.041 L319.6439 179.3874 L319.7769 179.7493 L319.7376 180.1213 L319.6325 180.1953 L319.3745 180.1592 L319.2056 180.2474 L319.0131 180.1519 L318.556 179.6474 L318.1698 179.4482 L317.8569 179.5994 L317.5348 180.1299 L317.4001 180.2542 L317.3555 180.4521 L317.0324 180.177 L316.4528 179.7118 L316.451 179.5629 L316.5807 179.3769 L317.0606 179.0424 L317.2591 178.8464 L317.2429 178.6284 L317.086 178.3044 L317.0073 178.0535 L317.0567 177.805 L317.0956 177.6496 L316.9962 177.3736 L317.1094 177.0533 L317.3902 176.7987 L317.4881 176.6511 L317.4124 176.1471 L317.3686 175.2771 L316.9259 174.9677 L316.6807 174.7246 L316.1681 174.5112 L315.8607 174.3124 L315.7445 174.2014 L315.5457 173.982 L315.341 173.6681 L315.1829 173.3889 L315.0275 173.2916 L314.9245 173.1577 L314.6242 172.8958 L314.3877 172.7569 L314.0378 172.6893 L313.6956 172.6454 L313.0462 172.7121 L312.3987 172.6779 L312.1882 172.5659 L312.1624 172.3415 M313.6614 65.1552 L313.9222 64.4091 L314.9697 63.1321 L316.1616 62.5748 L316.8516 63.2053 L317.3492 63.7731 L317.9608 64.1859 L318.268 65.0121 L318.338 65.782 L318.7754 66.8641 L319.6442 67.3469 L319.7269 67.5014 L319.761 67.5659 L319.9598 67.7725 L320.3487 68.045 L321.6396 68.2347 L322.0012 68.4624 L322.0934 68.7728 L321.8833 69.0289 L321.7722 69.337 L320.9435 69.2296 L320.6115 69.3086 L320.3942 69.7114 L319.8119 69.8358 L319.4472 69.6428 L319.2472 69.6648 L318.9182 69.7644 L318.6584 69.8824 L318.3006 69.8742 L317.8201 70.0424 L317.5614 69.8115 L316.8603 69.0901 L316.3633 68.8455 L315.1721 68.0738 L315.2098 67.9577 L315.6751 67.3282 L315.7197 67.1009 L315.5978 66.7581 L314.8766 66.0979 L314.0884 65.5145 L313.6614 65.1552 M318.1713 70.8653 L318.2419 70.7259 L318.9027 70.3684 L319.858 70.0218 L321.0684 70.0045 L321.7608 70.1453 L322.4967 70.1046 L322.7371 69.9103 L323.3589 69.8829 L323.6185 69.9555 L323.9951 69.9235 L324.1753 70.0753 L324.4795 70.7483 L325.6088 72.934 L325.3872 73.1178 L324.4618 73.2495 L324.2855 73.4008 L324.1768 73.5585 L324.0966 73.8429 L324.1334 73.9663 L324.2086 73.9782 L323.8481 74.764 L323.5403 74.8687 L323.6879 75.4905 L323.5511 75.8772 L323.3634 76.2004 L323.2673 76.3344 L323.4562 77.5916 L323.9421 78.2508 L323.0655 78.8232 L321.6459 79.6904 L321.2651 79.6236 L321.0669 79.1573 L320.6762 78.0222 L320.4615 77.0809 L320.3424 75.9234 L319.5373 73.8589 L318.2114 71.0093 L318.1713 70.8653 M330.7617 143.5618 L330.7904 142.9795 L330.8515 142.4219 L330.932 141.9649 L331.6421 141.6166 L332.0439 141.4773 L332.4056 141.4306 L332.6963 141.1043 L333.0645 140.9073 L333.6626 140.5591 L334.1602 140.4215 L334.247 140.6701 L334.1839 140.9667 L333.9839 141.1797 L333.7558 141.3429 L332.5427 142.0124 L331.8062 142.2944 L331.3928 142.4398 L331.2473 142.5741 L331.1757 142.6765 L331.2182 142.7944 L331.3356 142.8849 L331.4706 142.9018 L332.002 142.7716 L334.0159 141.8895 L334.7153 141.4969 L335.035 141.5568 L335.3263 141.3717 L335.6281 141.0641 L335.8813 140.9841 L336.0643 140.9316 L336.2292 140.9814 L336.4232 140.9773 L336.743 140.9827 L336.8855 141.1025 L336.9564 141.3826 L336.942 141.5344 L336.9513 141.7615 L336.9178 141.9247 L336.9681 142.15 L337.013 142.4215 L336.2098 142.4804 L335.6044 142.2853 L335.2323 142.3456 L335.0081 142.6454 L334.0617 142.9384 L332.2406 143.9991 L331.8739 144.1792 L331.4703 144.3894 L331.0841 144.3565 L330.8266 144.2418 L330.7653 143.9434 L330.7617 143.5618 M332.4139 145.2358 L332.5708 144.6805 L333.0205 144.0887 L333.3522 143.8972 L333.7144 143.6056 L334.1539 143.3314 L334.8982 143.1815 L335.2056 143.2432 L335.6113 143.1029 L336.1391 143.5261 L336.5139 143.5398 L336.7543 143.3456 L337.0609 143.0417 L337.3573 143.0842 L337.4525 143.4146 L337.7261 143.4438 L337.989 143.3433 L338.2336 143.3465 L338.4916 143.1006 L338.7171 143.3584 L338.6272 143.5947 L338.5877 143.9374 L338.6946 144.3739 L339.0072 144.3849 L339.5847 144.4516 L339.9733 144.4717 L339.9367 144.6435 L339.9188 144.8538 L339.7245 144.9123 L339.1808 144.9612 L338.5979 144.9164 L338.4108 144.9945 L338.2743 145.3807 L338.0363 145.6453 L337.8986 146.0525 L337.7016 146.5063 L336.9929 146.5054 L337.036 146.2107 L336.8965 145.9465 L336.8453 145.468 L335.9972 145.4218 L335.4445 145.2477 L335.511 144.8885 L335.6763 144.527 L335.5526 144.3419 L335.308 144.2327 L334.9245 144.1655 L334.6237 144.2317 L334.2135 144.4987 L333.9177 144.7925 L333.9632 145.0393 L333.5252 145.0475 L333.0618 145.3291 L332.8127 145.6828 L332.4139 145.2358 M336.7253 148.6402 L336.8391 147.9085 L336.992 146.6096 L337.6258 146.6092 L337.2588 147.695 L337.1022 148.0885 L337.0346 148.4107 L337.0298 148.5986 L337.1809 148.833 L337.4288 149.0199 L338.0944 149.0652 L338.5332 149.2562 L338.8326 149.6767 L338.685 150.7086 L338.6024 150.8987 L338.6862 151.2113 L338.9667 151.3685 L339.1269 151.581 L339.4017 151.369 L339.9071 151.3676 L340.1152 151.677 L340.3654 151.6889 L340.5708 151.4832 L341.0729 151.9558 L341.1357 152.2912 L340.9244 153.2395 L340.3184 154.4634 L339.2149 154.4556 L338.7503 154.1476 L338.3413 153.7152 L338.1827 153.1824 L338.2237 152.8766 L338.2952 151.7817 L338.1378 151.1738 L337.689 150.4769 L337.0881 149.3997 L336.7253 148.6402 M338.2845 140.2094 L338.4982 140.1441 L339.1179 140.2414 L339.5781 140.326 L339.9631 140.517 L340.114 140.4444 L340.3813 140.4037 L340.6022 140.4119 L340.8645 140.5595 L340.8088 141.0705 L340.6277 142.0997 L340.8441 142.2707 L340.7825 142.4667 L339.1613 142.4873 L338.9853 142.1441 L338.7617 141.9786 L338.5081 142.0293 L338.3234 141.7373 L338.2845 140.2094 M339.3407 163.1024 L339.3673 162.3232 L339.7278 160.7699 L340.363 160.785 L340.4918 161.1323 L340.8322 161.3526 L342.3895 161.7556 L342.1491 163.2669 L341.3417 163.5333 L340.0933 163.664 L339.5038 164.1672 L339.3407 163.1024 M341.6432 143.7258 L341.6459 143.442 L341.6887 143.1486 L341.7549 142.8438 L341.8273 142.6372 L341.9659 142.3461 L342.2916 142.1143 L342.4982 141.8337 L342.8461 141.2821 L343.946 140.1893 L344.3613 139.8109 L344.7451 139.6615 L344.91 139.4078 L345.6591 138.6839 L345.9923 138.4755 L346.1695 138.4695 L346.3084 138.6094 L346.409 138.8658 L346.5898 138.9636 L347.05 139.6107 L347.1575 139.6363 L347.2829 139.7561 L347.5047 139.8552 L347.6478 139.9791 L347.8981 140.8388 L348.1649 141.4174 L348.2358 141.6363 L348.5669 142.0453 L349.0777 142.8237 L349.2007 142.9512 L349.4109 143.054 L349.5549 142.9658 L349.4863 142.783 L349.4618 142.6198 L349.2899 142.1655 L349.7444 141.9644 L350.0019 141.9133 L350.2327 142.1998 L350.5563 142.815 L350.8662 142.9009 L351.9948 142.7674 L353.8162 142.3136 L354.6003 142.0997 L355.1973 142.3209 L355.423 142.9978 L355.7805 144.2194 L355.6924 144.4612 L354.9626 144.9054 L351.1113 145.8523 L349.5926 146.1138 L349.3788 146.2088 L348.8552 146.7262 L348.463 147.015 L348.3068 147.0804 L347.7451 147.207 L347.5595 147.2143 L347.4428 147.1274 L347.3604 146.9935 L347.1847 146.7906 L346.9838 146.696 L346.7111 146.6745 L346.2884 146.9291 L346.03 147.1676 L345.4351 148.0054 L345.2435 148.1923 L344.8573 148.4628 L344.7483 148.2439 L343.5451 146.8989 L342.5539 145.5082 L342.1473 144.7349 L341.9611 144.325 L341.818 144.2002 L341.6971 143.9475 L341.6432 143.7258 M341.9992 140.6084 L342.1515 139.4174 L342.6443 133.8159 L343.0311 130.8191 L343.17 129.3437 L343.7032 129.3337 L344.3337 129.4753 L344.9576 129.6015 L345.5923 129.6883 L345.8803 129.7861 L346.0007 130.117 L346.9153 130.3031 L347.1356 130.3072 L347.3021 130.3012 L347.591 130.1536 L348.0478 129.7039 L348.5514 129.0901 L349.0025 128.7491 L349.2815 128.5658 L349.516 128.6632 L349.6372 128.782 L349.777 128.9397 L349.8962 129.1252 L350.2919 129.6641 L350.6569 130.1906 L350.6859 130.4937 L350.6296 130.7793 L349.7345 131.4128 L348.6678 132.1591 L347.6763 133.2894 L347.6338 133.4211 L347.5353 133.6587 L347.3506 134.0271 L346.8045 135.0806 L346.1982 136.1528 L345.5899 137.3507 L344.9977 138.379 L344.775 138.6505 L344.4897 139.0102 L344.014 139.4851 L343.6541 139.847 L343.1583 140.1944 L343.0578 140.2373 L342.8674 140.3498 L342.4578 140.6555 L342.2973 140.7999 L342.1249 140.7556 L341.9992 140.6084 M344.5693 153.0206 L345.2818 149.3691 L345.5902 149.3691 L356.9217 152.5864 L353.8441 156.2013 L353.7034 157.6729 L350.9341 158.8017 L348.6708 155.4747 L350.2485 153.5964 L344.5693 153.0206 M364.8373 294.7159 L366.9105 293.9335 L369.1405 293.6791 L370.177 294.8917 L371.3898 297.3566 L374.1285 299.5082 L374.3435 301.0729 L373.8935 302.364 L372.5636 302.1292 L370.2908 301.5839 L369.1013 301.0729 L368.3385 300.5449 L365.5414 298.0216 L364.8373 294.7159 M369.6516 161.2653 L372.5131 152.2455 L377.7881 154.217 L374.6243 163.1293 L369.6516 161.2653 M377.501 162.5046 L379.1712 157.8155 L381.8372 158.9397 L380.231 163.0188 L378.818 163.2756 L377.501 162.5046 M380.375 239.2792 L385.21 238.297 L389.4792 236.217 L390.8548 235.8894 L392.1709 236.4345 L393.6477 237.7488 L395.6553 238.9032 L399.1584 241.2335 L400.3783 241.8374 L402.6518 242.6355 L405.4301 243.6154 L404.3607 245.0786 L405.5543 246.2033 L405.6989 247.29 L403.7808 247.8428 L399.9152 246.6806 L397.9468 248.5897 L394.4602 249.4604 L393.5094 249.3055 L392.9639 245.1891 L391.2754 243.5354 L390.3384 242.3947 L389.9261 241.8077 L388.6119 241.9708 L387.3206 241.424 L386.1438 242.1503 L385.2519 242.3614 L384.2077 241.0087 L384.4535 239.5834 L382.9976 239.6478 L381.7555 239.6976 L380.6211 239.8219 L380.375 239.2792 M385.0843 164.3266 L387.9433 158.1116 L387.9853 158.0522 L389.8444 159.3363 L387.9044 162.5216 L388.8026 163.4949 L387.5302 165.8667 L385.0843 164.3266 M388.7154 489.6114 L388.9741 489.3239 L389.7791 489.3098 L389.9201 490.0435 L389.7791 490.5601 L389.9659 491.4659 L389.4774 491.8109 L388.8448 491.0922 L388.7154 489.6114 M413.5893 242.9607 L418.057 237.0608 L418.4111 236.8748 L419.0509 237.4258 L419.7476 237.1978 L420.2041 238.2787 L421.3421 239.0128 L422.2303 244.752 L421.8339 247.6107 L422.0255 248.5833 L421.8708 248.6893 L420.293 246.5797 L419.13 245.9671 L420.2176 244.9402 L420.4745 244.5985 L420.5352 244.2097 L420.1068 243.9192 L419.8389 244.0973 L419.6823 244.9356 L418.3854 245.5025 L418.1399 245.6277 L418.1142 246.0918 L418.5818 246.5468 L420.3466 248.0721 L422.4031 250.0981 L422.7036 251.172 L422.8893 252.7147 L422.8749 254.0924 L423.165 255.223 L424.4317 258.0985 L425.4406 259.8252 L425.6561 262.3649 L426.1654 263.7106 L427.7099 264.9275 L427.8835 265.2244 L426.2848 265.4756 L426.2695 264.6562 L425.5064 262.7943 L425.0615 260.0426 L424.9987 259.4999 L424.4517 258.373 L423.7856 257.1223 L422.759 255.2572 L422.5222 251.9756 L422.0025 250.5019 L421.5127 249.8441 L417.8956 246.2677 L415.9772 245.2028 L416.0712 244.9392 L416.3173 245.0238 L416.4065 244.7113 L416.0272 244.3568 L415.7488 244.2705 L414.1393 243.7712 L413.5893 242.9607 M413.6172 257.5298 L415.4464 254.6867 L414.7198 253.43 L416.9547 251.4571 L420.2775 252.7037 L421.6085 251.347 L421.954 255.3303 L419.1434 256.2622 L420.2493 264.4616 L421.5178 266.8555 L422.4791 266.0402 L423.5928 264.7265 L424.4433 265.128 L422.7722 266.8784 L421.7935 267.3754 L419.9619 267.5448 L419.6416 270.7833 L420.202 270.2485 L420.3329 268.3076 L421.5831 267.6156 L422.468 268.9334 L419.908 271.9846 L416.9861 272.4414 L415.7197 271.5461 L416.3694 268.5771 L413.6319 266.877 L413.8381 264.8772 L413.6172 257.5298 M415.8781 322.7006 L415.9392 322.2787 L416.155 322.0585 L416.5945 321.9503 L418.6012 322.0649 L418.8839 321.8763 L418.9877 321.4644 L418.8988 320.4566 L419.0383 320.1433 L419.388 319.9866 L421.8699 320.0917 L423.3371 320.2045 L424.6475 320.236 L424.8969 320.4502 L424.7412 321.0964 L424.4903 321.7156 L424.3221 323.0239 L424.2966 323.7377 L424.1978 324.0185 L423.8371 324.0976 L423.4419 324.2236 L422.8896 324.2944 L422.5932 324.7752 L422.4776 325.5232 L422.8946 325.9626 L423.5009 326.4128 L423.8009 326.7562 L423.9284 327.0818 L423.9706 328.1924 L423.9239 328.4609 L423.8536 328.6002 L423.5865 328.6696 L422.9665 328.7299 L422.3237 328.8888 L421.8815 329.3916 L421.957 329.6459 L422.7887 329.8359 L424.1236 329.7386 L424.6265 329.2267 L425.3361 328.9331 L426.6923 328.7285 L428.1523 328.7203 L429.5343 329.1016 L432.6619 330.0254 L433.0478 330.2245 L433.2771 330.4017 L433.4522 330.5748 L433.5142 330.7401 L433.5226 330.8798 L433.6373 331.4232 L433.5959 331.6451 L433.6624 332.5027 L433.378 333.2849 L433.2523 333.8557 L433.0505 334.4425 L432.9337 334.7133 L432.8574 335.0325 L432.5556 335.8083 L432.1981 336.3522 L431.7895 336.6088 L431.5042 336.4737 L431.3787 336.4924 L430.9399 336.4919 L430.6016 336.4723 L430.2303 336.3705 L429.9986 336.2892 L429.0238 335.585 L428.1206 335.4138 L427.4036 335.7129 L426.6851 336.2782 L426.4869 336.723 L425.3813 337.7162 L424.6179 338.2226 L423.8853 338.4121 L423.7958 338.6893 L425.5756 344.566 L425.3657 345.3204 L425.1053 345.3222 L424.9523 345.0752 L424.7167 344.9948 L423.9488 344.4834 L422.9467 341.1678 L421.8741 336.8951 L421.5633 336.5728 L420.1646 335.9919 L418.9222 335.1978 L417.9621 334.8695 L416.7999 335.075 L416.2326 334.7914 L415.9655 334.4097 L415.9943 333.1192 L416.1454 328.7687 L415.8781 322.7006 M420.6948 227.2272 L424.5502 224.693 L427.0749 223.2004 L427.4096 223.5353 L427.4063 225.619 L428.123 227.0618 L427.0333 228.044 L424.8867 229.9308 L425.9818 231.7249 L425.0511 232.5751 L423.1216 230.6321 L422.321 233.3147 L421.0996 232.6577 L421.0586 229.6901 L421.9525 229.0427 L420.6948 227.2272 M422.407 149.7498 L422.5522 146.8628 L424.0377 147.2001 L425.8444 146.5173 L425.9247 145.1924 L425.4989 145.1042 L424.6071 143.5106 L424.9122 142.0572 L427.3695 142.0248 L428.0928 142.5988 L428.1329 143.2012 L427.7554 143.7149 L427.7877 145.0722 L428.3493 146.2161 L427.6593 147.1599 L427.5147 148.0273 L427.9395 148.9144 L427.2817 150.5646 L425.0975 149.545 L422.407 149.7498 M434.0866 181.2847 L437.3049 181.079 L437.754 182.8383 L435.817 182.9571 L435.5371 183.0526 L434.0866 181.2847 M440.5981 109.5735 L441.3615 109.1346 L441.0442 107.4068 L441.9034 106.7715 L442.113 106.648 L443.1069 112.476 L441.0592 112.8599 L440.8137 111.1916 L440.5981 109.5735 M442.0447 189.1043 L443.8155 188.9439 L443.8515 190.2407 L442.0848 190.3412 L442.0447 189.1043 M442.9213 122.6231 L448.1904 119.3093 L448.4329 119.2271 L450.9476 123.4824 L448.4568 127.9387 L442.9213 122.6231 M443.0695 158.4306 L444.8406 155.8554 L446.436 152.1431 L445.8711 150.0299 L446.4156 149.9669 L448.208 150.9138 L448.931 152.8497 L446.7719 158.1262 L445.3103 160.4459 L443.0695 158.4306 M447.1069 160.3093 L448.1676 158.6189 L448.8628 158.245 L449.2035 158.0485 L448.9223 156.7155 L448.0071 155.19 L448.4406 154.1782 L449.4043 156.3622 L449.8298 156.5953 L451.6126 155.8403 L452.9011 154.8706 L453.4352 155.9285 L453.3858 158.2318 L453.7244 157.8639 L454.1821 156.8279 L454.1741 156.3942 L453.9654 154.6521 L453.3469 152.8049 L453.5478 152.219 L453.9438 151.8808 L455.3749 151.1629 L456.1994 150.3987 L458.7674 151.433 L459.43 150.3274 L462.0798 149.5249 L463.0674 149.4445 L464.308 149.5688 L465.1502 149.8398 L466.3809 151.7762 L469.496 150.816 L470.3684 152.0563 L470.8144 154.7618 L470.6815 155.0182 L469.7082 155.5177 L471.8503 163.7696 L470.9432 169.3717 L465.222 171.8073 L461.0457 173.8929 L456.2904 174.5263 L454.1271 173.6882 L453.5699 173.2418 L453.5475 172.6811 L453.4349 171.821 L452.7155 171.5784 L451.2749 169.3164 L450.4782 169.5814 L449.3879 168.0245 L448.8289 165.8621 L449.607 165.8429 L449.1011 164.2686 L449.2436 164.031 L449.1714 163.7659 L448.5691 163.7901 L447.4692 163.26 L447.1797 162.8757 L447.1069 160.3093 M450.9327 121.1468 L451.5404 118.706 L451.9236 118.8523 L453.3397 120.1184 L458.1178 120.388 L457.1388 122.4631 L456.9322 122.454 L455.5281 122.2849 L454.145 124.2365 L456.9113 124.721 L454.7977 125.7357 L454.5342 125.882 L453.2798 126.6087 L453.0792 124.689 L451.6961 124.1451 L452.4505 122.1752 L450.9327 121.1468 M453.5966 175.4717 L453.8618 174.6501 L454.157 174.4989 L454.7962 174.758 L456.37 175.2254 L458.0187 175.0851 L460.6281 174.5839 L462.4588 173.5566 L464.3194 172.4247 L464.5787 172.2483 L464.8553 172.1862 L465.1708 172.2465 L465.4253 172.4782 L465.6181 172.9863 L467.6225 176.9463 L468.0958 177.7268 L468.1739 178.388 L467.6521 178.7906 L464.4392 180.0888 L464.0631 180.2899 L463.0949 178.3044 L462.7321 178.0037 L461.6409 178.0257 L460.8999 177.921 L460.1658 177.9151 L459.9739 179.6268 L459.7012 181.0388 L459.4332 181.5735 L459.4132 182.0213 L459.3228 182.5499 L458.9246 183.8481 L458.7776 184.057 L458.4722 184.7844 L458.2935 184.8904 L458.0351 184.8794 L457.6028 184.7798 L455.265 181.8988 L455.0111 181.3669 L454.989 180.2236 L454.7728 179.9403 L454.0914 179.2078 L453.9319 178.3638 L453.6977 177.5472 L453.6268 176.8527 L453.5966 175.4717 M454.1133 148.2307 L454.283 147.8381 L454.5594 147.4972 L454.7111 147.4327 L455.3207 147.6567 L455.9027 147.5319 L456.1823 147.4062 L456.4598 147.377 L456.6772 147.7225 L456.752 147.919 L456.8613 148.0396 L457.1155 148.1594 L457.4672 148.2686 L457.8394 148.2709 L458.1471 148.4222 L458.3381 148.5766 L458.7141 148.8202 L458.539 149.0336 L458.0612 149.1639 L457.3741 149.4107 L457.2196 149.4833 L456.5101 149.79 L456.0913 149.8138 L455.5081 149.5734 L454.6998 149.1548 L454.133 148.679 L454.1133 148.2307 M455.0102 133.8493 L455.2719 133.7433 L455.8814 133.635 L457.1945 133.2666 L457.2571 133.9389 L457.1526 134.9855 L457.0011 135.5235 L457.1457 136.5445 L457.0343 137.5714 L457.1652 137.7259 L457.3942 137.8164 L457.5265 134.2725 L457.6094 133.8859 L457.966 133.7492 L458.6782 133.8831 L459.1279 133.7935 L459.3464 133.5577 L459.3024 133.2652 L459.171 133.1066 L459.0761 132.8881 L459.0902 132.6491 L459.0273 132.48 L458.8779 132.1738 L458.8731 131.9754 L458.9072 131.7044 L459.0746 131.6043 L459.6126 131.5732 L460.0889 131.5718 L460.4607 131.5366 L460.4445 131.7592 L459.8515 132.2268 L459.7359 132.4521 L459.6174 132.7401 L459.3904 132.9946 L459.4961 133.6724 L459.8763 133.7771 L460.8161 133.7684 L461.0331 134.1144 L460.5035 136.4714 L460.1209 137.5966 L460.2526 137.8681 L460.3999 137.9663 L460.5945 137.8827 L460.9041 136.7684 L460.7442 136.4183 L461.172 134.3219 L461.7612 134.0504 L462.0408 133.9544 L462.6294 134.3146 L463.0366 134.7104 L463.1285 135.0897 L463.5338 137.5065 L463.6608 137.9115 L463.5952 138.4238 L463.1746 139.2853 L461.6232 139.523 L460.8888 139.7378 L459.6632 139.6601 L458.7246 139.5065 L457.2645 139.3859 L456.9454 139.4252 L456.629 139.7021 L456.458 139.9229 L456.1667 140.0248 L455.9374 140.0134 L455.8443 139.7533 L456.0458 138.4151 L456.2425 137.3379 L455.8679 136.576 L455.6907 135.3914 L455.2015 134.5157 L455.0102 133.8493 M455.0653 249.1726 L456.8963 248.4983 L457.4424 246.3782 L458.3417 246.3463 L458.3417 246.9241 L460.2688 251.1318 L457.1852 252.9947 L455.0653 249.1726 M455.8461 140.6779 L456.3844 140.315 L456.9116 140.0687 L459.2009 140.1496 L459.8344 140.1953 L459.9566 140.3182 L460.2137 140.3214 L460.4975 140.1953 L460.7547 140.198 L461.0502 140.0125 L461.8858 139.8658 L462.0474 140.0038 L462.442 139.8443 L462.5288 139.7318 L463.3503 139.6286 L463.7811 139.6843 L463.8647 139.9919 L463.753 140.1875 L463.7635 140.3685 L463.8727 140.5723 L464.0422 140.6258 L464.3281 142.2862 L464.3245 142.5115 L464.2248 142.6468 L464.264 142.799 L464.4634 143.0513 L464.6236 143.5677 L464.5502 144.0188 L464.9065 145.5402 L464.9538 146.6051 L464.8502 147.6786 L464.0431 147.9391 L462.6492 148.0369 L460.3496 148.2581 L460.1356 148.6269 L460.5736 148.8687 L460.6918 149.1333 L460.291 149.1397 L459.6928 148.9637 L459.3255 148.8047 L459.0725 148.4176 L458.9021 147.18 L458.8022 146.3957 L458.7938 145.2518 L458.6629 144.6019 L458.3435 144.0476 L458.2908 143.6111 L458.0576 142.6902 L457.3508 142.7848 L456.781 142.9365 L456.1787 142.7322 L456.1 142.2528 L455.9114 140.7757 L455.8461 140.6779 M456.9601 150.1648 L457.2583 149.8873 L457.4109 149.7068 L457.8762 149.439 L458.3791 149.2654 L459.0788 149.152 L459.6192 149.1909 L460.1113 149.2955 L460.5933 149.4431 L460.3188 149.63 L459.8736 149.6182 L459.5353 150.2091 L459.0165 150.3412 L458.9518 150.5464 L458.9288 150.6857 L458.9198 150.9956 L458.6216 151.1071 L458.2345 151.0408 L457.419 150.5738 L456.9601 150.1648 M458.072 125.6543 L458.2339 124.7791 L458.5869 124.1684 L459.0512 123.9198 L459.4461 123.6524 L459.9622 123.1135 L460.452 122.6492 L460.4844 122.4782 L460.9289 121.9178 L461.3541 122.1683 L462.4842 122.9604 L462.7129 123.3311 L462.001 123.9454 L461.4903 124.0469 L461.2346 124.3887 L461.1517 124.5551 L460.6936 125.0647 L460.2949 125.9414 L460.2503 126.3948 L460.8771 127.1421 L458.5124 126.6631 L458.1265 126.2353 L458.072 125.6543 M461.1867 131.8182 L461.3397 131.6495 L462.5896 131.5568 L463.1093 131.6244 L463.5707 131.8292 L463.9344 131.7661 L464.5338 131.5636 L465.0538 131.4105 L465.2062 131.5161 L465.3469 131.8191 L465.3969 132.3187 L465.5675 133.2652 L465.4556 133.4316 L465.0382 133.3283 L464.5368 133.4371 L464.402 133.5614 L464.4065 133.7849 L464.4571 134.2346 L464.5089 134.3598 L464.4718 134.7817 L463.8694 134.7095 L463.6482 134.7552 L463.435 134.7415 L463.2473 134.5125 L463.3617 134.4453 L463.4611 134.3347 L463.5958 134.2936 L463.6934 134.0047 L463.7012 133.6418 L463.6503 133.4919 L463.621 133.3548 L463.709 133.0006 L463.8419 132.7273 L463.8757 132.5102 L463.7913 132.1948 L463.6599 132.0357 L463.3351 131.9142 L463.1414 131.9768 L462.992 132.0865 L462.9471 132.2844 L462.8144 132.533 L462.7372 133.0143 L461.8154 133.1404 L461.81 132.9585 L462.0959 132.7807 L462.0316 132.6468 L461.3376 132.5764 L461.1867 131.8182 M464.352 267.2246 L464.4772 266.9528 L465.3771 266.1608 L466.3076 265.7926 L467.8347 264.927 L468.364 264.6731 L468.5583 264.8101 L468.8305 265.2714 L469.2798 266.0886 L469.4289 266.3942 L469.4508 266.5404 L469.2454 266.7455 L467.8994 267.7664 L467.8937 267.8961 L468.4146 268.8019 L468.9029 269.5464 L469.4226 270.5024 L469.7187 271.1515 L469.9414 271.6992 L470.0857 272.1386 L470.5258 272.8653 L470.4752 273.027 L469.3092 273.4618 L469.0152 273.2974 L468.6517 272.9607 L468.4532 272.5899 L467.7183 272.1459 L467.444 271.5311 L467.0375 271.1108 L466.5118 270.6705 L465.6011 269.1819 L464.523 268.0719 L464.4428 267.8129 L464.3634 267.5763 L464.3652 267.4224 L464.352 267.2246 M465.1313 277.9189 L465.2292 277.7211 L466.4887 277.2109 L467.262 276.7331 L468.0122 276.2965 L468.6622 275.9909 L469.0888 275.6319 L469.0547 275.2382 L469.1128 275.1546 L469.2026 275.0911 L469.3855 275.0678 L469.5738 275.081 L469.9226 275.8342 L470.3612 276.4408 L470.3833 276.6454 L470.3064 276.8231 L470.2142 276.9533 L470.0363 277.0382 L469.7115 277.1077 L468.6757 277.8243 L467.3803 278.4926 L466.6635 278.9329 L466.1256 279.1841 L465.9759 279.1827 L465.1313 277.9189 M466.7731 279.581 L466.9016 279.2499 L468.5161 278.4172 L469.9307 277.411 L470.1606 277.1771 L470.5695 277.0035 L470.8453 277.157 L471.0584 277.1707 L471.4653 278.2308 L472.003 279.0553 L472.5068 279.9884 L472.5167 280.4689 L472.2592 280.8521 L471.7713 280.9672 L471.0557 281.4984 L469.7693 282.0867 L468.9331 281.2034 L467.544 280.0295 L466.8321 279.6755 L466.7731 279.581 M468.981 257.9226 L469.6412 257.0757 L469.6942 256.7108 L469.8433 256.4888 L470.2738 256.2663 L470.9596 257.0017 L471.0911 257.1068 L471.2617 257.3343 L471.5326 257.6216 L471.7901 257.7655 L472.6442 258.6298 L473.0828 259.0413 L473.2256 259.1944 L473.531 259.4639 L473.713 259.6566 L473.6915 259.7886 L473.5573 259.8878 L473.2388 260.2514 L472.9065 260.9909 L472.6811 261.6437 L472.3574 261.6674 L472.061 261.5126 L469.0188 258.4237 L468.981 257.9226 M470.2166 155.8239 L470.9031 155.7622 L472.661 155.1905 L473.5879 154.7389 L473.7307 154.1869 L473.7133 153.8341 L473.4879 152.0915 L473.6846 151.6747 L474.4082 151.416 L475.5782 151.1487 L476.2113 151.145 L476.5529 151.268 L476.9041 151.5102 L477.5208 154.276 L477.8528 155.4121 L477.9001 155.62 L478.783 157.007 L478.3687 157.5595 L478.1771 157.5801 L478.1606 157.7199 L478.1807 157.8538 L478.239 157.9119 L478.3091 157.9096 L478.4402 157.927 L478.5806 158.1468 L478.2579 158.2871 L478.1696 158.6947 L478.2399 158.9712 L478.33 159.0196 L478.4477 159.0023 L478.674 159.2422 L478.4603 159.4739 L478.3354 159.4428 L477.8939 159.6754 L477.8226 159.7527 L477.8037 159.876 L477.893 159.9748 L478.0049 160.0575 L478.1693 160.2156 L478.1459 160.3646 L477.8217 160.4674 L477.4969 160.4765 L477.4322 160.4678 L477.2589 160.5273 L477.2131 160.663 L477.2837 160.8312 L477.3846 160.9239 L477.6154 160.9431 L477.6843 161.2109 L477.6247 161.3115 L477.6172 161.3709 L477.6361 161.4426 L477.7708 161.5678 L476.9972 161.8795 L476.8134 162.0362 L476.7158 162.0467 L476.6242 162.1267 L476.3913 162.5261 L476.2853 162.4937 L476.1904 162.4955 L476.1374 162.5577 L476.1545 162.7254 L475.9635 162.862 L475.8302 162.7738 L475.7192 162.9735 L475.6299 162.9868 L475.5704 163.0041 L475.6057 163.1773 L475.2366 163.0713 L474.8806 163.266 L474.7144 163.3743 L474.5495 163.5735 L472.3446 164.2723 L472.194 163.9748 L472.059 163.0718 L471.7665 160.8385 L471.4416 160.3307 L470.9563 158.2994 L470.7671 157.7606 L470.842 157.7076 L470.8782 157.6441 L470.8129 157.4585 L470.7543 157.4261 L470.6564 157.4366 L470.3384 156.6117 L470.3977 156.5656 L470.445 156.4669 L470.4094 156.3394 L470.3477 156.2324 L470.245 156.1927 L470.2166 155.8239 M470.6683 255.9698 L470.7225 255.8145 L470.7528 255.6017 L470.9363 255.3029 L471.4994 254.6342 L471.7242 254.4199 L471.9179 254.3573 L472.2685 254.7072 L472.4766 254.8795 L472.4978 255.022 L472.5975 255.1357 L472.6754 255.1572 L472.7032 255.2609 L472.8002 255.3002 L472.8287 255.3792 L472.9454 255.4112 L473.2241 255.5313 L473.9801 256.4307 L473.9777 256.5267 L474.1866 256.7322 L474.48 256.9497 L475.1917 257.7481 L475.2222 257.9802 L475.1506 258.1944 L474.9977 258.3338 L474.9072 258.4219 L474.527 258.6745 L474.4016 258.8056 L474.3238 258.95 L474.2741 259.2816 L473.9615 259.4072 L473.6484 259.2802 L472.5233 258.0706 L471.7916 257.4704 L470.7016 256.2183 L470.6683 255.9698 M472.0916 208.3591 L472.8721 207.8145 L473.0364 212.3464 L473.3337 215.1498 L472.7475 215.27 L472.2658 211.8114 L472.0916 208.3591 M472.8412 218.9529 L473.5906 218.8674 L473.7403 221.2614 L474.3549 228.8056 L475.1988 241.8013 L474.6755 242.5802 L474.5294 239.1357 L474.1522 235.9228 L473.9819 232.5024 L473.7262 229.9221 L473.3002 226.064 L472.8412 218.9529 M473.3166 149.4262 L473.543 149.1282 L475.0988 147.8427 L475.3692 147.7106 L475.5282 147.4167 L475.5138 147.2357 L475.8694 146.8998 L476.2727 146.6604 L476.4446 146.452 L476.5389 146.1677 L476.4125 145.7669 L476.1248 145.1453 L475.3916 144.9525 L474.7318 144.4571 L474.5291 144.0042 L474.7614 143.5928 L474.8788 143.1203 L475.2144 142.1418 L475.3752 140.9658 L475.306 140.4594 L475.3366 139.9325 L475.447 139.0934 L475.7494 138.566 L475.7054 138.273 L475.8009 138.0801 L475.9994 138.0212 L476.2916 138.0646 L476.9685 138.2118 L477.2846 138.1103 L477.5738 138.1331 L477.6008 138.395 L477.6939 138.7968 L477.6987 139.0495 L477.7966 139.2341 L477.2376 139.5678 L477.3747 139.7922 L477.6355 140.1226 L479.0123 139.9361 L479.4078 139.9764 L480.1389 139.879 L480.6418 139.7785 L481.1496 139.7104 L481.7011 139.5193 L483.2752 139.0746 L483.6003 139.1784 L484.2733 142.6436 L483.1001 143.4434 L483.7467 145.8263 L483.6659 147.1978 L483.8419 147.9025 L483.8272 148.8106 L483.8377 149.8142 L483.885 151.0705 L483.2821 151.1944 L483.0324 151.0783 L482.3393 151.1533 L481.4373 150.8279 L481.3475 150.8375 L480.6589 150.8037 L479.9476 150.508 L479.197 150.5902 L477.5415 151.1524 L477.4053 151.1272 L477.0843 151.0052 L476.8379 150.9632 L476.0563 150.6405 L475.4443 150.6204 L475.2557 150.524 L474.4187 150.7995 L474.192 150.9462 L473.7756 151.0774 L473.3166 149.4262 M473.8474 151.1747 L475.341 150.8457 L475.4476 150.678 L476.0338 150.6862 L476.7864 150.9819 L477.0936 151.0637 L477.5573 151.1907 L479.2378 150.646 L479.9503 150.5806 L480.641 150.8535 L480.9903 150.8841 L480.1772 152.3643 L482.5037 153.9693 L482.0702 154.5552 L481.6526 154.2742 L481.1789 154.4752 L479.0911 152.9091 L478.6516 152.5974 L478.78 153.5608 L479.4443 155.4546 L478.9887 155.5684 L478.2079 154.5315 L477.7181 154.6676 L477.5654 154.2504 L477.2062 152.4928 L477.6858 152.3072 L477.5253 151.4878 L476.9571 151.4809 L476.5778 151.2232 L476.1841 151.0943 L475.5279 151.0957 L473.8798 151.448 L473.8474 151.1747 M474.0112 244.9676 L474.1537 244.7734 L474.5998 244.5724 L474.936 244.2727 L475.1174 243.9575 L475.1312 243.6684 L475.192 243.3025 L475.6183 243.2307 L475.671 242.82 L475.9464 242.2422 L476.3212 242.1316 L476.4224 242.1704 L476.7709 242.4793 L477.3897 242.4655 L477.9322 244.0407 L477.7388 244.0489 L477.0831 244.1229 L477.005 244.5706 L477.0059 245.9036 L477.5301 246.0036 L477.7558 245.9904 L478.0088 246.0475 L477.8642 246.5765 L477.8708 247.3394 L477.6603 247.8985 L477.4954 247.9026 L477.2897 247.8839 L477.2265 247.7108 L477.2134 247.5673 L477.0439 247.4595 L476.8864 247.5705 L476.6433 247.9935 L474.5154 247.803 L474.4196 247.6884 L474.4815 247.4673 L474.6639 247.1909 L474.6043 246.6267 L474.2872 245.5391 L474.1148 245.2778 L474.0112 244.9676 M475.7105 250.7385 L476.1721 249.8751 L477.0355 249.819 L476.8065 248.3293 L477.69 248.3375 L477.6819 247.9401 L477.8986 247.3458 L477.8867 246.5829 L478.0352 246.0251 L477.754 245.9566 L477.5172 245.9648 L477.0194 245.8844 L477.0233 244.5715 L477.1038 244.154 L477.9307 244.0736 L478.1998 244.0416 L478.4166 244.5231 L478.4687 245.0493 L478.4728 245.3865 L479.5728 245.6437 L479.2036 247.5427 L479.3641 248.3535 L481.1828 248.4019 L481.5484 249.1767 L481.3355 250.8267 L480.1108 250.9715 L478.7698 251.0076 L478.8342 252.5772 L479.0429 253.6895 L479.312 255.4482 L479.4324 256.275 L481.6325 256.2229 L481.5202 258.1743 L480.0949 258.379 L479.1632 258.1661 L479.1312 257.094 L479.1312 256.6728 L479.095 256.1868 L479.083 255.5765 L478.9707 255.0307 L478.7378 253.7941 L478.5692 252.6096 L478.4567 251.0957 L477.3687 252.7297 L475.7668 251.1962 L475.7105 250.7385 M476.9388 230.4731 L478.5127 229.4936 L480.2473 228.6745 L480.1108 229.8627 L479.9982 230.6015 L480.8251 230.9871 L480.5362 231.6536 L479.685 231.4366 L479.4842 231.8139 L477.5975 232.5769 L476.9388 230.4731 M480.2631 152.347 L481.0661 150.9015 L481.9816 151.1423 L484.8987 152.8543 L484.8505 154.4122 L484.2461 154.9322 L480.2631 152.347 M481.6594 250.8769 L481.7714 250.0752 L482.0555 249.4987 L482.3163 249.0766 L482.6983 248.6025 L483.4066 248.6331 L483.9018 248.7578 L484.2577 248.729 L484.6296 248.5568 L484.7619 248.3636 L484.6164 247.772 L484.4 247.3449 L483.8464 247.3083 L483.1869 246.83 L482.8941 246.6459 L482.8725 246.4454 L483.1716 245.8812 L483.5497 245.4792 L483.9392 245.1887 L484.6428 245.1576 L485.4457 245.265 L485.875 245.4495 L486.7408 245.3403 L486.9962 245.344 L488.7134 245.8716 L488.6859 246.1608 L488.3994 247.0429 L487.9075 248.4334 L487.5174 249.7838 L487.1593 250.934 L487.0324 251.194 L486.757 251.2355 L486.3411 251.0574 L486.0591 250.834 L485.3418 250.9377 L485.1625 250.9852 L484.8317 251.542 L484.6745 251.6818 L484.2368 251.7184 L483.5383 251.5621 L482.5645 251.6672 L482.0546 251.5306 L481.8049 251.2415 L481.6594 250.8769 M482.4477 223.4928 L482.7378 222.1989 L482.8591 221.827 L483.1234 221.4679 L483.1749 221.1413 L483.3315 220.853 L483.6303 220.4162 L483.835 220.0841 L483.9712 219.7812 L484.1874 219.5203 L484.641 219.2699 L485.2002 219.058 L485.3628 218.8693 L485.5837 218.7633 L486.0289 218.824 L486.2998 219.2416 L486.8962 219.4618 L488.2613 219.4618 L489.1768 219.0922 L490.6061 219.1087 L490.5097 219.6222 L490.1244 220.0078 L491.9712 221.4533 L491.618 221.8549 L490.1244 220.6661 L489.5621 220.6661 L489.2891 221.0677 L488.9358 220.5378 L489.3373 219.9274 L488.47 219.9434 L487.089 220.1202 L486.6549 219.7497 L486.0504 219.7341 L485.5241 219.9196 L485.067 220.2253 L484.6098 220.8818 L484.5676 221.3332 L485.0116 221.8956 L484.6365 222.3534 L483.9569 222.9514 L483.0899 223.9908 L482.6243 223.9423 L482.4477 223.4928 M484.4149 164.5597 L485.2918 164.838 L486.7052 165.9211 L486.7052 166.4475 L485.8385 166.4781 L485.6663 166.6792 L485.0792 166.7372 L485.043 167.0544 L484.8173 167.8294 L484.5362 167.9423 L484.4149 164.5597" stroke-dasharray="" fill="none" fill-opacity="1.0" stroke="#ff0000" stroke-opacity="1.0" stroke-width="1.0px" stroke-linecap="butt" stroke-linejoin="miter" stroke-dashoffset="0.0px"/>
</g>
</svg>