<?xml version="1.0" standalone="no"?>
<!DOCTYPE svg PUBLIC "-//W3C//DTD SVG 1.1//EN" "http://www.w3.org/Graphics/SVG/1.1/DTD/svg11.dtd">
<svg width="512px" height="512px" version="1.1" xmlns="http://www.w3.org/2000/svg" xmlns:inkscape="http://www.inkscape.org/namespaces/inkscape">
<g id="layer" inkscape:groupmode="layer" inkscape:label="layer">
<path d="M8.3208 334.8541 L11.6885 335.059 L16.3349 333.8807 L44.4434 323.81 L46.3217 327.3135 L60.2072 333.4006 L67.9915 339.9181 L71.4852 346.1614 L72.7147 353.7355 L69.9376 362.3989 L90.0981 353.2267 L96.5639 361.4138 L98.8152 362.0923 L98.5142 364.532 L97.5009 365.8889 L99.1883 366.6587 L101.0793 368.6614 L89.8904 373.6582 L89.9031 377.1351 L99.5996 375.7457 L100.2738 379.0921 L102.1181 378.4528 L104.361 377.7157 L106.4343 383.3321 L99.9608 385.7463 L100.3399 386.1918 L101.7089 386.1716 L102.5535 388.8264 L103.1836 389.4233 L105.3832 390.8505 L105.4506 392.1081 L110.0254 393.4427 L115.8276 392.8472 L117.7267 392.5628 L119.8534 391.5054 L119.8551 390.8107 L127.8073 383.6648 L134.4524 372.8533 L133.9848 372.0731 L135.9224 366.3717 L137.1053 363.4165 L139.0684 364.3298 L139.2693 361.464 L142.9181 349.1102 L145.0936 347.628 L147.5481 343.8651 L148.0526 340.9091 L153.4928 334.8352 L151.5136 332.3358 L152.8441 331.0963 L154.6206 332.709 L156.8355 332.0175 L157.8818 331.5288 L162.1976 329.3471 L160.6386 327.7944 L159.599 327.5823 L159.2123 326.7068 L159.906 326.286 L160.9977 323.9659 L162.4978 322.6148 L164.3837 322.1978 L168.1664 326.1751 L168.2534 325.5239 L168.8673 324.91 L170.5988 324.1525 L170.5446 322.3381 L171.1182 321.2551 L173.0249 320.4611 L174.12 321.3347 L176.4087 319.5529 L177.7286 318.8541 L181.5042 314.9466 L181.9502 313.2901 L181.9163 312.7453 L180.6261 311.7862 L181.8429 309.023 L183.1798 308.0267 L184.3165 306.558 L184.7638 306.3049 L185.4828 305.1552 L185.5617 303.0869 L186.1074 301.8929 L186.1188 301.2215 L186.8629 300.8554 L187.886 307.4401 L188.9464 308.6211 L189.972 305.3718 L192.0508 305.5232 L192.3238 306.6259 L193.5835 306.8705 L197.1577 306.3303 L201.83 305.9153 L202.9722 305.8331 L204.0983 305.8279 L210.3258 308.2838 L217.138 311.195 L219.4008 312.4347 L220.4243 313.1968 L221.2205 313.6398 L222.5395 313.8786 L223.8815 313.5602 L225.3429 312.8921 L225.2064 314.9166 L224.2058 315.9057 L221.6924 315.3942 L219.1854 314.6367 L216.8704 312.3577 L214.8349 311.5278 L210.8075 309.7916 L210.0472 308.6165 L205.5174 306.7029 L195.3269 310.1022 L193.3045 310.3566 L189.0871 312.2155 L187.2983 315.406 L186.8807 317.606 L184.8112 321.2453 L182.5251 321.916 L181.2744 322.9397 L179.5615 321.8181 L176.6953 324.4964 L174.2464 326.3284 L172.6429 326.8516 L169.8679 328.0345 L167.4041 329.5572 L166.9907 331.0819 L164.1026 333.1063 L164.1933 334.13 L158.5394 336.2059 L155.5881 338.2049 L152.423 343.0567 L152.5553 344.1058 L153.3482 344.811 L151.5861 350.7268 L149.9783 355.9647 L148.1976 355.8675 L147.1783 358.5232 L146.3223 361.3727 L146.3579 362.4165 L146.8311 362.4752 L146.7234 363.0016 L147.9695 363.4341 L147.7147 364.6442 L146.6632 364.517 L145.9721 364.4101 L145.5316 364.8289 L145.2585 364.6925 L144.8371 365.4094 L145.4239 365.6743 L145.0843 366.4897 L144.4449 366.2451 L143.6381 367.1408 L143.2086 368.6698 L142.6031 373.3836 L141.7102 375.899 L136.6093 383.6126 L134.4503 390.2602 L135.1177 390.5198 L136.3714 387.696 L137.4861 384.9922 L138.5905 385.3653 L137.9351 388.6125 L138.8445 389.7064 L140.7715 391.405 L144.1689 390.4226 L143.923 386.9524 L148.045 384.0627 L149.4895 385.2655 L149.9652 385.0137 L150.276 383.8292 L150.6881 383.0986 L151.2571 382.4652 L152.1305 380.9773 L152.5977 380.8129 L156.0083 383.276 L156.6044 383.1429 L149.8164 398.1 L149.9266 398.9871 L150.7407 399.1828 L150.5117 398.2761 L153.3991 398.661 L154.2852 401.4723 L153.1404 403.253 L149.35 405.8164 L150.6347 406.0512 L151.1053 407.1405 L151.5717 410.4735 L154.3615 403.8791 L163.8248 400.0568 L170.6595 394.4472 L173.2627 396.6259 L177.5747 393.5275 L178.287 395.4518 L175.5311 400.546 L175.9593 404.0031 L174.2973 408.2819 L175.8151 408.458 L179.1901 409.5538 L181.6788 413.9956 L183.3027 413.4086 L184.2228 408.5819 L180.2246 407.0165 L182.3106 402.6464 L178.9272 397.4282 L180.3984 395.7061 L181.6237 396.678 L181.2676 394.806 L182.6625 393.1688 L184.0108 394.6103 L185.3548 396.0519 L186.1095 394.3885 L188.9926 394.382 L191.2609 394.5516 L193.1413 390.3515 L195.1997 387.3718 L195.7225 386.0777 L191.1931 390.0182 L195.7551 384.3301 L197.357 384.1357 L197.1882 383.2147 L199.0537 379.8553 L201.6104 378.6681 L200.9023 377.4613 L201.2033 376.5154 L205.0362 379.1443 L207.2812 378.4567 L208.7795 378.3602 L214.9307 376.0281 L216.5728 375.5108 L220.0495 376.1566 L220.2827 377.4613 L221.915 379.0921 L225.8877 377.4287 L233.812 379.4182 L234.2784 382.0862 L240.7332 382.1351 L242.527 382.0131 L241.7872 379.3817 L249.7793 373.8539 L254.388 373.2342 L255.1342 372.6471 L259.4461 372.1774 L259.8108 369.7964 L261.8374 370.6119 L262.9271 371.623 L263.8259 372.6276 L261.1718 372.4058 L260.9174 373.8735 L268.0658 374.2127 L274.5315 377.4287 L274.5315 374.291 L270.457 371.6752 L270.7623 369.542 L282.4855 371.5251 L284.3722 367.7611 L288.205 365.7715 L287.6199 365.5497 L290.4267 356.8408 L303.8925 347.7794 L304.609 347.7794 L306.7544 349.1363 L306.4364 350.963 L298.0415 354.7141 L302.0397 357.3888 L300.1614 365.7258 L298.1093 365.7258 L298.7368 371.0489 L294.2875 370.1076 L290.8507 371.212 L292.3389 372.0274 L291.3001 377.8983 L288.8071 380.5598 L284.6393 383.019 L282.9561 378.7659 L279.1017 379.5617 L278.6141 380.46 L276.8745 380.1527 L276.1919 379.004 L274.9513 378.7659 L264.9792 375.8435 L264.7672 377.3373 L259.8277 378.1136 L259.0222 376.1958 L255.6006 376.2153 L256.7793 377.6635 L254.6339 379.7835 L253.1627 378.3028 L243.163 385.0274 L238.9253 386.1005 L237.2124 386.0522 L235.1052 385.8696 L232.9132 386.6523 L220.7024 379.5291 L212.3118 383.0581 L205.528 383.8279 L203.4547 387.8982 L200.6988 388.0483 L197.1967 392.5165 L197.9047 393.5014 L197.4765 395.0669 L201.6061 395.941 L200.9447 398.0544 L198.6467 397.95 L197.8072 398.3348 L197.5486 400.5852 L197.3493 401.8702 L194.9411 399.9068 L196.3445 403.703 L199.2276 406.8143 L197.7903 403.3638 L200.2112 403.5595 L200.5801 406.4882 L199.6728 406.4882 L200.5631 407.31 L201.8393 408.445 L202.2421 408.445 L202.2336 407.9558 L201.8563 405.3859 L203.5607 404.1857 L203.2724 400.6243 L205.6806 400.6243 L206.058 405.1445 L204.1373 405.5881 L204.803 409.4233 L205.21 411.054 L211.6207 411.491 L218.4171 409.1037 L216.8611 413.0107 L220.3039 413.1868 L224.0349 413.4999 L218.9429 409.5147 L220.6643 409.2864 L222.3899 409.0516 L221.9956 408.3797 L225.9259 404.6358 L233.6551 410.4604 L232.6927 412.0389 L234.7872 411.0214 L238.9846 408.3471 L238.3063 407.4079 L235.2069 405.3141 L233.193 407.1405 L230.9756 403.5595 L225.8877 403.5595 L228.9362 401.4136 L222.3305 394.1733 L226.5576 389.4442 L235.3214 392.1642 L246.2645 388.0026 L239.6588 394.9299 L235.4189 396.1497 L233.4135 398.7197 L238.3783 402.6007 L234.4141 397.6173 L235.5716 396.4497 L239.451 397.0629 L240.6636 398.1196 L240.1888 396.5672 L239.9895 394.9104 L242.3553 394.4929 L243.1567 395.9475 L241.0367 402.9007 L243.8647 398.661 L252.938 401.107 L251.2378 404.2379 L253.3323 406.3904 L246.7605 411.1975 L249.8429 413.4999 L251.3184 415.3262 L256.3002 413.9891 L257.7502 415.574 L261.0064 416.5785 L262.7405 420.3745 L267.0016 420.2897 L268.1718 418.5548 L266.8489 417.609 L267.1288 415.3132 L268.8713 414.5892 L273.6836 415.7306 L270.0119 431.2992 L254.8586 429.5643 L235.7878 420.2115 L235.4952 417.8308 L237.2633 413.676 L236.3135 414.2109 L234.2106 419.2853 L233.4432 423.7726 L216.4159 429.9752 L210.5437 441.8714 L206.9568 441.9431 L205.9605 443.0127 L211.5443 441.9431 L219.4059 445.3162 L221.9896 446.843 L222.4929 447.1638 L222.5752 447.4397 L221.0403 449.7151 L220.7775 449.9486 L220.4052 450.0451 L219.9163 450.0895 L219.4767 450.0927 L219.2795 450.2388 L219.0607 450.6406 L219.0853 450.9256 L219.1727 451.2053 L219.517 451.2366 L220.0295 451.0573 L220.6295 451.1747 L221.6157 451.568 L222.1745 452.1771 L222.0159 452.5149 L221.6106 452.9858 L220.097 454.1897 L218.7987 454.8451 L218.7902 454.8288 L218.1263 456.244 L217.6646 457.8796 L217.4471 458.6648 L217.2842 459.3495 L217.1125 459.8863 L214.0179 460.0082 L211.2798 460.1758 L208.3 460.8762 L207.5381 460.9545 L206.0622 461.0647 L205.8163 462.3885 L209.4456 463.5624 L208.2076 466.7449 L213.5879 470.8403 L215.0041 472.301 L216.9756 470.3707 L241.66 473.99 L240.5237 475.053 L242.0924 481.5024 L239.4824 484.2419 L239.2399 485.6674 L238.1536 486.5679 L236.888 488.1584 L236.5035 489.1724 L234.9907 488.9109 L233.3533 489.1724 L235.8154 489.8603 L237.482 490.176 L262.2669 493.5772 L267.5803 495.5863 L269.7753 496.8311 L272.0839 498.5259 L276.2529 502.2779 L277.4655 502.5256 L278.7671 503.6994 L282.9052 492.2202 L281.7842 486.5738 L283.7858 482.5477 L288.735 483.7848 L299.8646 487.117 L305.016 486.0541 L304.2444 489.1515 L295.8368 488.6494 L294.8701 490.86 L302.9385 493.3053 L301.8786 496.7092 L305.1602 497.6612 L306.1184 503.6602 L308.1027 498.2937 L309.3619 494.2117 L312.0881 494.2117 L314.8101 494.2117 L311.6938 504.1819 L314.3395 504.6644 L316.188 500.7455 L319.6944 501.4302 L334.7374 505.1665 L347.1813 504.6057 L352.0784 512.0 L354.4484 507.9964 L355.8985 506.8618 L357.6792 499.7935 L353.8421 490.6318 L352.5023 486.3279 L348.1226 486.0541 L348.7289 478.6722 L346.6429 479.533 L345.5024 479.533 L345.7483 478.0201 L341.6738 477.3615 L336.2001 477.9027 L338.354 481.9784 L344.2728 482.1741 L345.125 488.4603 L343.6283 489.3732 L333.4993 483.9217 L331.7356 483.3478 L331.9984 481.1633 L323.4975 479.3243 L322.9718 484.2608 L312.2704 480.4395 L311.3843 478.2288 L306.9282 476.4485 L307.0681 474.6487 L307.4328 471.3815 L305.4655 470.3381 L315.0687 465.9688 L314.9712 465.1862 L316.9682 465.1862 L316.6883 467.7361 L317.99 469.0599 L321.1741 469.0208 L334.7331 471.1794 L335.9033 469.7512 L343.5351 473.527 L352.3667 474.5574 L353.4648 473.201 L353.6937 476.2724 L354.8936 473.3444 L356.7549 471.3554 L356.4072 467.6839 L353.5962 469.7512 L354.2958 466.6992 L351.4848 464.3711 L347.2195 461.6516 L348.1014 458.9908 L354.1135 458.2604 L352.532 452.4692 L349.8143 452.4692 L345.3667 445.504 L345.9518 443.7562 L341.2752 440.9387 L338.7949 436.6734 L333.4612 434.6842 L331.2395 438.1473 L326.0075 434.782 L325.6217 434.9059 L324.2946 434.3515 L323.7138 434.1428 L323.7138 432.9819 L324.6593 432.0166 L323.3279 432.3232 L323.0524 434.5863 L328.4327 442.6801 L330.5145 440.3126 L332.8422 444.2518 L331.6677 447.5584 L327.2625 448.191 L333.0711 450.0236 L334.1056 453.1214 L332.4606 452.541 L329.8828 455.404 L309.718 454.9149 L311.7998 450.0236 L304.5921 450.9367 L305.351 445.2236 L308.8743 443.6649 L310.3583 443.6649 L315.0518 445.7584 L317.7695 445.2171 L316.9724 443.4953 L308.3401 443.6323 L305.6944 443.841 L301.5606 444.1801 L298.5248 444.6953 L296.99 442.9605 L299.4406 437.8539 L319.7919 433.9341 L320.996 430.4513 L319.4824 425.3836 L323.3491 427.099 L326.8682 430.3013 L326.6944 428.2925 L325.7998 422.5791 L319.1941 420.6289 L317.7483 419.8853 L319.3213 424.5227 L319.3171 424.6401 L313.3643 428.9904 L313.5254 427.0337 L310.5406 427.0337 L310.7695 423.4465 L307.3056 421.8942 L304.0409 425.4097 L302.7732 425.6119 L299.0167 424.9532 L295.0778 427.9468 L290.007 429.3165 L284.987 426.2641 L286.6321 419.2266 L285.4491 416.3633 L280.2892 418.5352 L276.2402 418.0656 L276.0028 415.711 L287.6751 413.8782 L287.9761 411.7519 L287.3571 409.9125 L281.4213 409.5538 L276.0155 407.3557 L278.7502 398.8762 L269.8847 394.3429 L270.5122 392.4643 L274.1669 389.9856 L281.2093 392.6991 L286.153 389.8095 L289.1548 390.8596 L300.6448 385.4651 L301.6199 383.4234 L302.5951 381.3752 L305.262 382.2949 L308.0263 373.8539 L307.7507 368.3287 L310.7441 368.3287 L311.6429 371.0098 L312.7792 368.2634 L318.6344 369.3463 L321.3861 374.7411 L320.6441 377.6178 L315.4376 385.7 L319.0033 383.88 L330.099 385.8696 L339.1129 382.2754 L342.4242 385.2042 L342.0681 372.5688 L338.1293 361.5573 L341.7416 357.8715 L344.4551 358.8827 L348.9663 366.6978 L353.5199 368.0743 L353.3842 370.8858 L351.5102 372.7189 L353.1383 372.6406 L360.8464 370.2074 L361.6859 373.3843 L360.3927 377.7548 L361.211 379.1704 L362.6144 380.5598 L358.6713 379.0725 L356.3606 380.9316 L360.8548 391.0227 L353.4012 400.1416 L355.1268 411.5432 L356.0002 412.4368 L355.6186 410.5713 L356.9754 410.3626 L358.2813 414.1848 L359.1292 415.563 L360.5627 417.0194 L360.0815 414.7705 L359.9708 407.7673 L359.1208 403.328 L360.5534 401.3718 L362.4643 402.4181 L364.633 402.7057 L368.2576 402.2485 L365.5526 405.699 L365.4763 408.9929 L367.6471 410.7279 L375.3255 407.8514 L376.4745 410.6561 L374.3503 416.135 L370.2461 418.0917 L370.3691 421.5877 L365.3703 420.7137 L366.4514 424.7901 L367.7785 424.9336 L374.168 419.5331 L374.38 419.2527 L376.0547 417.5764 L382.4357 418.5222 L386.3011 417.2262 L389.7359 419.6062 L388.455 422.461 L389.8673 423.1856 L390.9535 419.057 L389.211 417.1068 L383.0717 411.9476 L386.0777 405.575 L387.9432 404.4792 L386.6755 402.966 L387.2479 401.4984 L389.6349 403.4878 L390.5592 396.0323 L393.896 391.3945 L397.2794 381.8057 L399.8191 379.627 L398.9414 373.8605 L394.2945 363.8797 L398.068 352.209 L405.8608 346.6834 L412.6955 347.5315 L414.968 346.0114 L420.7046 347.6489 L420.4798 345.3199 L425.2582 351.4849 L422.9474 358.7131 L418.4617 362.5359 L418.0038 367.9568 L411.0335 368.7984 L408.0868 372.5884 L406.6622 378.8572 L405.6065 379.9401 L405.7082 384.9629 L407.2388 384.9629 L406.3866 387.559 L412.1189 393.1166 L411.5041 395.3865 L415.0444 401.107 L413.7724 396.939 L432.2497 404.6945 L433.8481 409.0907 L437.2696 410.5126 L436.6591 416.3176 L425.2582 408.4906 L424.6646 410.5713 L427.1449 410.5713 L431.9614 416.0306 L430.9904 417.5634 L427.1958 427.9468 L440.2715 421.6855 L443.0019 418.2482 L444.8802 420.8376 L449.1073 416.435 L449.2345 420.5441 L439.627 442.7257 L438.8664 445.0188 L438.7082 447.4371 L439.8572 449.3082 L441.108 449.8651 L442.4049 449.0069 L443.7015 449.9388 L444.9183 449.704 L447.3054 448.8823 L446.7601 451.3208 L445.5246 454.1844 L444.2739 454.954 L442.9392 456.0177 L441.0957 456.769 L440.3575 456.2224 L440.0141 455.4972 L439.6533 454.5131 L437.4918 456.9385 L437.3248 458.7482 L438.0074 458.7365 L447.2799 454.5177 L448.8525 452.344 L450.7536 448.8321 L445.3593 441.8714 L445.2914 437.9582 L448.5519 428.7165 L451.117 426.9098 L451.3332 422.1421 L452.5925 419.3179 L453.8432 417.309 L452.5967 416.5198 L447.0891 407.8905 L435.8578 398.8958 L436.4946 398.3257 L439.1564 395.4557 L443.4145 395.6292 L448.1292 397.5097 L448.8139 395.3454 L448.8686 390.5798 L447.2528 390.1415 L446.9365 388.4416 L451.6822 386.8696 L451.6902 385.9615 L451.7882 385.2036 L451.9196 384.0744 L451.8717 381.7711 L451.4138 380.8951 L446.4447 378.9812 L450.1503 374.2714 L454.7505 374.2062 L457.6845 377.4156 L460.1309 372.2883 L463.223 373.5167 L464.9559 374.2055 L466.1727 374.6889 L465.5622 387.7352 L467.4786 395.3996 L471.3114 394.095 L472.7572 395.4713 L472.8928 397.4673 L473.2787 395.8627 L475.5004 389.9399 L475.3392 387.6243 L475.2159 385.8683 L475.4279 383.2714 L475.5385 381.7013 L475.3944 381.3752 L474.295 380.1593 L473.1981 378.3941 L472.7021 374.428 L468.0666 368.0201 L466.0137 363.3272 L465.5982 361.0785 L465.6843 359.9232 L465.6402 359.415 L465.9607 359.0784 L467.1818 354.7271 L467.4586 351.8208 L467.5464 349.6054 L467.5977 347.5125 L464.57 345.7439 L464.6506 339.9311 L467.8813 338.6459 L467.7626 340.5052 L470.7008 340.7205 L471.0485 339.5071 L468.0637 338.535 L469.395 334.5684 L467.7626 334.2357 L465.9141 337.0149 L466.7239 333.0417 L467.2369 331.4694 L465.7784 331.4694 L466.2575 329.2708 L472.5749 328.8598 L466.3423 318.3557 L467.5252 316.4636 L465.1127 314.7281 L466.0921 312.8751 L469.2339 317.7424 L479.1593 317.7097 L478.9516 319.3996 L480.3889 318.1991 L480.8722 316.9007 L483.166 310.6241 L485.04 309.528 L487.0162 299.3358 L489.6886 289.9726 L492.6819 282.8635 L497.3988 275.6258 L499.8625 271.8006 L502.813 266.1438 L503.5003 261.54 L503.6792 256.0063 L502.5294 254.8277 L500.8759 255.9828 L499.7553 258.5963 L497.0693 264.5483 L493.9806 267.0606 L491.6669 268.8518 L490.3466 270.4629 L477.8959 279.2786 L475.9125 279.6832 L474.7461 279.4124 L472.8496 278.3579 L471.9028 276.9837 L471.3156 275.7276 L468.5741 266.7284 L467.9267 264.7055 L467.568 263.2608 L467.5578 262.3087 L467.6532 261.2144 L468.3058 260.4209 L470.2124 260.1703 L471.1643 261.033 L472.7266 263.3933 L474.2581 264.192 L476.0507 264.2174 L477.8692 262.7622 L478.1944 261.2888 L478.018 260.0835 L476.7986 257.8263 L475.2273 255.1736 L474.8796 254.2006 L474.8686 252.5966 L475.0255 251.5003 L475.8646 250.3433 L476.8948 249.5053 L478.5106 248.9161 L482.4083 248.0873 L483.5785 246.6053 L483.4645 245.148 L482.6585 243.9055 L481.4752 243.4565 L477.8908 244.701 L476.0846 245.1937 L474.4548 245.0997 L472.6355 244.5783 L471.0337 243.4598 L470.1446 242.1716 L468.2413 238.8022 L465.7618 232.1325 L463.8933 227.6183 L461.8807 221.466 L460.9844 218.582 L459.1875 214.4233 L458.251 210.9211 L457.0956 209.0898 L452.1948 204.7476 L448.7923 203.2288 L446.114 202.9051 L443.8291 203.0291 L441.4756 203.6948 L439.2594 205.3846 L436.6358 207.2891 L433.3881 209.1746 L431.3453 210.6764 L429.7914 211.3675 L424.7171 216.6671 L424.4382 216.716 L421.3096 221.2937 L420.4675 223.3834 L418.2141 230.4827 L416.8649 232.637 L416.2048 233.1154 L414.341 235.4165 L412.4627 237.3103 L411.4833 238.4504 L409.876 239.7106 L408.2809 241.4968 L406.9407 241.7598 L405.8545 241.3623 L405.3711 240.5903 L405.322 239.6865 L405.4771 238.9046 L405.4004 238.4556 L408.3395 236.3758 L409.1209 235.8609 L410.0333 234.8141 L410.3911 233.8887 L410.5247 233.1095 L410.7409 230.4768 L410.4602 219.6784 L410.3051 214.2601 L410.5823 211.4589 L411.036 207.7707 L411.7076 204.4636 L412.0052 202.1995 L411.2251 203.0023 L411.4736 203.4063 L410.5925 205.4903 L409.8594 206.8883 L408.6218 209.3404 L408.278 211.701 L408.1406 213.9932 L408.8911 216.6625 L408.9241 217.586 L407.1091 217.7329 L404.2671 218.0631 L402.4668 218.225 L400.6102 218.5056 L400.4661 219.016 L400.4364 219.9401 L400.422 221.1135 L400.2897 222.0958 L400.1286 223.0055 L399.8793 224.2083 L399.6151 225.5573 L399.0139 226.9657 L398.2804 227.7867 L397.767 228.036 L397.4151 227.7286 L397.4151 227.1856 L397.4689 226.3235 L397.424 225.603 L397.2213 225.37 L396.8457 225.062 L396.5446 224.7892 L396.1079 224.6711 L395.862 224.9674 L395.3189 225.4575 L394.1894 226.6472 L393.2575 227.587 L393.4088 227.7241 L393.9439 228.0243 L393.5967 228.4374 L393.1812 228.2037 L392.5346 228.224 L391.7252 228.5875 L390.7827 229.3191 L390.2044 229.3112 L389.3928 229.6127 L389.3742 230.7862 L389.9428 231.9041 L389.5209 231.9961 L388.6042 232.0692 L388.0908 231.5191 L387.2835 231.2417 L386.5437 230.9793 L385.6274 230.4311 L385.0419 230.3111 L384.8897 229.8986 L384.6362 229.911 L384.2626 229.9612 L383.912 230.0376 L383.4774 230.1766 L382.8864 230.3456 L382.2665 230.5806 L380.638 230.7398 L379.9939 230.8697 L379.4271 231.0381 L379.2736 231.1803 L379.0353 231.4368 L378.2654 231.8956 L377.202 232.4451 L375.8788 232.8765 L375.3585 233.1043 L375.1084 233.2335 L374.8201 233.4495 L374.3431 233.7412 L373.9509 233.9063 L373.2454 234.448 L372.4343 234.989 L371.0241 235.9927 L370.5819 236.7517 L370.2741 237.294 L369.7717 237.5538 L369.2086 237.7939 L368.7728 237.741 L368.2699 237.944 L367.7815 237.8311 L367.196 237.6288 L366.4523 237.5988 L365.4644 237.542 L365.0205 237.5707 L364.5745 237.9695 L363.4361 237.8285 L363.0083 237.8579 L362.6296 237.8833 L362.1823 236.954 L361.769 236.6897 L361.0724 236.3791 L360.9083 236.6375 L360.617 236.4039 L360.3478 236.1174 L360.218 235.9829 L360.0162 236.1559 L359.9318 235.9118 L359.5443 235.5946 L358.6879 235.4426 L358.3478 235.8413 L357.9896 236.0834 L357.5719 235.947 L357.4405 235.6181 L357.6092 235.2618 L357.3748 235.083 L356.8304 235.2709 L356.0795 235.0928 L354.7978 235.0386 L353.2091 234.7397 L351.9944 234.9231 L351.1698 235.6788 L349.0384 235.2435 L347.8924 235.5646 L347.2276 234.8768 L346.7234 234.3266 L346.0819 234.1204 L345.2569 234.1896 L344.5921 233.7079 L344.386 232.883 L344.3402 231.8062 L344.4102 230.8429 L344.2109 229.9273 L343.187 229.1383 L342.6943 229.2147 L341.7115 228.8335 L339.7714 228.1417 L339.1125 228.9725 L338.6542 228.7141 L338.3387 227.6542 L337.1359 227.4826 L335.1016 227.1099 L333.2971 226.967 L331.8933 226.9383 L330.8906 227.1674 L329.8878 227.9982 L329.0857 227.0812 L327.5101 227.0812 L326.3357 226.7092 L324.7886 225.9071 L323.213 225.3629 L321.7813 224.1098 L321.5595 222.61 L319.0779 221.8295 L317.1954 221.4771 L316.0396 221.2265 L314.2441 220.8747 L313.1646 220.2645 L311.539 218.9474 L311.1337 220.4113 L311.6103 221.2545 L310.5321 221.2989 L309.2716 220.583 L309.4598 219.6007 L310.0462 218.8965 L310.3137 217.9854 L309.8558 217.65 L308.9905 217.0195 L308.3884 216.7115 L307.897 217.0397 L306.7798 218.0422 L305.4048 218.5004 L304.8888 217.3543 L304.1443 215.9224 L302.8266 214.3469 L301.5627 212.9307 L300.2106 212.8158 L299.5233 211.6247 L298.2314 211.0288 L299.185 209.6537 L298.6533 209.0486 L297.6629 208.6453 L297.1312 207.8203 L296.2145 207.5266 L295.4391 207.0182 L294.1786 207.3615 L294.0064 208.1923 L294.4936 208.9083 L294.8374 209.7679 L296.7568 210.4271 L296.1264 211.5731 L294.3214 212.6043 L292.9181 212.06 L291.3497 211.0895 L291.3497 212.432 L289.4698 212.5214 L287.4105 211.8055 L287.5 210.5968 L286.6499 210.1497 L285.8888 211.0001 L284.9912 210.2587 L282.1955 208.8835 L280.1693 207.6963 L279.6376 207.9528 L278.4462 208.595 L277.4926 208.3934 L276.576 208.3379 L275.8001 209.0852 L276.9173 210.3168 L277.5902 211.0412 L279.0796 213.2472 L278.5068 215.1666 L275.6708 216.1978 L273.4075 216.1404 L271.5454 214.45 L268.8777 213.3745 L270.2026 209.4716 L271.2054 208.7556 L270.7042 208.039 L269.3793 207.3948 L268.9137 208.0031 L267.3738 207.6454 L266.7294 208.3973 L264.9745 208.2537 L264.8401 210.4382 L264.2134 210.1249 L262.8262 208.9168 L262.0354 207.7074 L261.0272 207.0887 L261.9438 205.7135 L261.2561 204.9571 L260.5455 204.4989 L260.6833 202.9631 L260.1563 202.2759 L259.3851 202.2713 L259.0073 202.9214 L258.4701 204.5328 L258.0907 206.0757 L257.0163 206.1469 L256.9446 205.2162 L256.2641 205.288 L255.7986 204.2848 L254.8319 204.1778 L253.2776 204.5798 L252.0675 203.6635 L250.1973 204.213 L249.3897 203.9069 L249.6415 201.5233 L248.8393 201.2029 L248.2436 199.9419 L247.9197 199.0255 L246.2009 198.2018 L245.0548 197.4858 L244.9115 196.8769 L243.6943 196.1609 L242.8348 195.5878 L241.5455 193.8686 L240.6861 192.1501 L238.4419 190.3747 L237.7089 189.1144 L236.6773 187.9689 L236.4484 187.0518 L236.219 186.3417 L236.3224 185.8345 L235.6517 184.9403 L234.4896 184.5506 L230.457 181.3628 L228.993 177.4307 L223.5308 176.78 L204.1051 174.8263 L204.195 173.3655 L206.2382 173.1508 L209.2179 173.3068 L210.9584 173.8583 L213.8233 174.0875 L213.8237 173.3029 L213.3747 172.5202 L213.2509 172.203 L215.4526 172.9412 L217.916 173.658 L219.9498 174.374 L222.328 174.9471 L224.8774 175.3192 L227.6562 175.5483 L229.5756 175.5306 L229.6493 174.0111 L230.4888 173.6899 L230.7975 173.7643 L230.9518 174.406 L230.7788 175.5196 L231.6777 175.3459 L232.6227 175.1658 L232.9717 175.2226 L233.2223 175.0972 L234.4781 173.5294 L235.1018 172.6155 L235.4579 172.6958 L236.1041 173.2931 L236.7863 174.6795 L237.3922 176.5515 L238.0917 178.9562 L239.1771 181.2929 L240.7226 183.4932 L243.2046 187.0844 L244.7449 188.9179 L246.6516 191.0999 L248.1915 192.6396 L251.0699 194.7667 L257.4415 198.3722 L259.411 198.8734 L260.1631 199.8042 L263.4931 202.0246 L266.9668 203.5643 L270.3663 203.9754 L274.7529 204.4232 L276.9461 204.602 L278.2138 205.085 L279.6511 205.4159 L281.4849 205.6502 L282.5554 205.5621 L285.2537 205.3323 L288.3255 205.3474 L291.5181 205.3669 L294.8408 205.8825 L297.8816 206.8283 L299.8587 208.6048 L301.6632 210.1229 L302.88 211.2814 L303.7458 211.9856 L304.8643 212.9574 L305.7076 213.7641 L307.1881 215.0191 L308.1968 215.7756 L309.2758 216.8035 L309.9355 217.2434 L310.4197 217.6395 L311.1146 218.1049 L311.9414 218.7229 L312.6851 219.4082 L313.8057 220.1705 L315.1255 220.6476 L315.9324 220.831 L317.1242 220.9589 L318.5361 221.4725 L320.2409 221.821 L322.7034 222.0964 L325.2766 222.7027 L326.7834 223.0923 L330.2241 223.8161 L332.5161 224.3108 L331.8924 223.3945 L331.9658 222.2576 L332.5284 220.9067 L333.9034 219.3664 L334.8752 217.5697 L335.5353 215.3148 L335.8101 214.3978 L337.6803 213.3529 L337.9677 211.2279 L338.6122 204.352 L338.7199 201.9535 L339.1138 196.5101 L339.4716 194.3973 L339.7417 189.4936 L340.091 183.1492 L340.4408 176.2252 L340.8606 167.4132 L344.9868 167.6227 L343.0322 190.3049 L339.9079 226.5552 L340.724 227.076 L341.6823 227.7776 L343.1047 228.5842 L344.4835 229.5377 L345.3052 230.0213 L346.3609 230.6374 L347.3145 231.151 L349.5658 232.4784 L351.5619 233.2889 L353.1875 234.0016 L354.3039 234.3566 L354.6494 234.3638 L356.7062 234.4506 L358.16 234.4682 L359.4273 234.9962 L360.0489 235.2429 L360.9435 235.5933 L361.6074 235.9072 L362.382 236.2831 L363.4335 236.4241 L363.9911 236.629 L364.343 237.0108 L364.8403 237.1354 L365.6773 237.2301 L366.1021 237.2385 L366.3853 237.1929 L366.6609 237.1446 L367.0789 237.093 L367.6704 237.1309 L368.01 237.0702 L368.5629 236.8026 L369.2163 236.4574 L369.764 236.0971 L370.2639 235.823 L370.7074 235.5352 L371.7203 234.9883 L372.4792 234.3736 L373.1597 233.9389 L373.6507 233.6564 L374.0738 233.4103 L374.5555 233.1995 L374.868 232.9979 L374.9629 232.8445 L375.133 232.6292 L375.1291 232.1638 L374.8773 231.8473 L374.631 231.6274 L373.3539 229.5423 L372.422 228.1071 L371.1394 226.1271 L370.2152 224.7272 L369.2031 222.597 L367.6814 220.5803 L366.8932 219.4434 L366.3696 218.4005 L367.4605 217.3785 L366.507 215.6183 L367.7306 214.5329 L368.5188 215.0315 L370.7816 219.1282 L373.1309 222.1649 L374.7064 224.8577 L375.8236 226.4906 L376.053 229.0404 L375.866 229.9293 L375.4811 230.1864 L375.6278 230.8645 L375.9347 231.1954 L376.2035 231.3011 L377.0371 230.8501 L377.6421 230.777 L378.488 230.4971 L379.1816 230.3319 L379.9795 230.1636 L381.1684 229.7074 L382.6328 229.8764 L383.4401 229.8483 L383.8815 229.7766 L384.2351 229.7394 L384.5378 229.6447 L384.9512 229.4998 L385.4027 229.2192 L386.0455 228.9967 L386.7904 228.9308 L387.6706 228.8283 L389.5082 228.8081 L390.287 228.6802 L390.9506 228.3878 L391.7604 227.9773 L392.3234 227.6255 L392.9115 227.2548 L393.4088 226.8136 L394.0753 226.2224 L394.6854 225.6963 L395.1349 225.2584 L395.4541 224.7481 L395.7234 224.2292 L395.8709 223.6379 L396.194 223.3912 L396.8283 223.2907 L397.2166 223.2986 L397.5461 223.0943 L397.9607 222.4639 L398.2461 221.8576 L398.481 221.0594 L399.0792 220.4727 L399.4197 219.9212 L399.842 219.2764 L400.0768 218.8652 L400.3817 217.9972 L401.5587 215.0433 L402.6954 212.385 L403.9054 210.3683 L404.767 209.6713 L405.464 208.828 L406.0504 207.6363 L406.3438 205.9498 L407.5907 203.0898 L408.7982 201.0488 L408.3458 200.7525 L408.2703 200.5841 L408.4281 200.2506 L407.6467 199.8309 L406.2458 199.7748 L406.1674 199.4465 L405.157 198.8049 L404.7835 198.628 L404.1106 198.2534 L403.7681 198.068 L401.0558 196.5695 L393.3401 194.1643 L389.6515 194.5226 L388.2909 194.7015 L387.0732 194.0207 L386.966 192.0515 L386.7501 191.2343 L386.4648 190.1535 L387.5388 188.6137 L387.8495 188.7593 L396.4195 192.7675 L401.8033 194.3993 L403.4645 193.071 L406.2395 191.4745 L406.5744 190.6613 L406.2925 190.051 L406.8186 189.4159 L407.6925 189.6372 L410.3318 189.7083 L410.5645 189.7449 L410.8863 189.7958 L413.7406 190.6215 L414.2587 190.1319 L413.7224 189.4877 L413.3853 189.8232 L412.7735 189.1104 L413.1979 188.585 L412.8201 188.1379 L412.659 188.2672 L411.1272 187.4806 L402.7382 183.7249 L390.6703 178.5325 L387.6982 176.921 L387.4213 176.8185 L387.2924 176.7708 L387.0414 177.2225 L385.8488 176.9144 L386.1235 175.6984 L387.1305 175.3472 L389.9991 174.2291 L390.2451 174.3995 L392.281 175.716 L394.5086 176.5561 L396.0778 177.0058 L397.9667 177.7512 L399.2916 177.6794 L400.8655 177.9386 L404.0585 179.1598 L404.2247 178.6579 L396.6192 171.0992 L382.0091 156.6283 L349.8406 124.6768 L349.4806 124.7969 L347.9225 124.8028 L347.6337 124.5312 L347.5095 127.2927 L347.1877 127.2092 L346.8455 125.1377 L346.5377 123.1903 L346.3512 123.1348 L346.8523 120.6148 L347.1415 119.1988 L347.7253 119.2465 L347.8394 118.3553 L348.0344 115.1877 L347.9284 112.8368 L347.6888 109.8773 L347.5252 108.2021 L347.3827 108.2465 L347.2025 107.2704 L346.8184 106.4517 L346.3533 105.5162 L345.5041 104.8124 L345.4922 103.5575 L345.1933 101.986 L343.7861 97.2951 L342.7986 94.3218 L342.5858 93.1368 L342.5612 93.0016 L342.4522 93.0316 L342.3899 93.0493 L341.7946 92.7463 L339.4025 91.5502 L339.121 91.7728 L337.2588 92.9063 L336.6356 92.9768 L336.0789 92.7731 L335.534 92.57 L335.3221 92.3592 L334.6017 91.6109 L333.8139 91.0272 L333.0291 90.5173 L332.1638 89.9721 L331.2081 89.6072 L330.2118 89.1789 L329.371 88.8178 L328.1843 88.3072 L327.1858 88.0154 L326.4171 87.7705 L325.4636 87.3736 L324.2883 86.6175 L324.5321 85.5696 L324.6906 84.8089 L324.8318 84.0691 L323.8999 83.5919 L322.968 83.1466 L322.3528 82.9135 L321.8406 83.7492 L320.9867 83.0774 L320.112 82.3716 L319.2471 81.6729 L318.394 80.9841 L317.5372 80.292 L316.6769 79.5973 L315.8039 78.8928 L316.2661 77.6959 L316.6684 76.7792 L316.7982 76.584 L316.9546 76.3489 L323.2432 81.3798 L323.5077 80.4774 L323.8681 80.5643 L332.447 85.8666 L332.7302 85.8079 L333.1767 85.1373 L330.5467 82.0719 L331.2832 80.8143 L332.0396 79.5914 L331.6732 78.9607 L331.1958 78.3672 L330.8215 77.4204 L329.8552 74.8563 L329.2688 73.5439 L330.1249 73.0163 L329.9065 72.9928 L329.809 72.8185 L329.6483 72.5906 L329.1069 72.1721 L328.8711 71.8861 L328.8431 71.7 L328.8224 71.4597 L328.7321 71.0255 L328.5493 70.9472 L328.4298 71.2638 L328.5451 71.5133 L328.6401 71.8646 L328.6723 72.3099 L328.8075 72.8577 L328.4056 73.3049 L328.3411 73.8528 L328.5209 74.0839 L328.6659 74.2667 L328.9958 74.7133 L329.6042 75.7672 L329.8484 76.2092 L330.2096 76.9967 L330.5548 77.9336 L330.9431 78.548 L331.131 79.0266 L331.1399 79.4034 L330.7947 80.1046 L330.5086 80.4657 L330.4594 80.5003 L330.1901 80.6583 L329.5465 80.4193 L329.4147 80.0478 L329.1696 79.656 L329.1259 79.2179 L328.9394 78.9633 L328.8631 78.5513 L328.6019 78.456 L328.0957 78.0342 L327.7353 77.8063 L327.4224 77.8572 L327.0391 78.0492 L326.5786 78.2953 L326.7177 78.8196 L326.5316 79.3896 L326.8089 79.878 L327.0395 80.3064 L327.313 80.5479 L327.8218 80.7921 L328.364 80.7451 L328.9907 80.6498 L329.2133 80.6426 L329.3786 81.0644 L329.2837 81.7323 L329.2167 81.8603 L328.9004 82.4669 L327.458 81.8257 L324.8496 80.1679 L325.0213 79.69 L325.071 79.5516 L324.51 78.975 L324.4019 78.4566 L324.1263 77.6522 L324.1386 77.2572 L324.5096 76.789 L324.8301 76.2784 L324.9777 75.4642 L324.8645 74.4567 L324.7513 73.9279 L324.6529 73.4982 L324.5579 73.1842 L324.315 72.9582 L323.6392 72.7513 L322.2646 72.0748 L320.1909 71.0582 L319.563 70.588 L319.0635 69.7 L318.6819 69.433 L318.3398 69.051 L317.9349 69.4917 L317.7169 70.0996 L318.0553 70.7539 L318.196 71.3664 L318.3338 72.2145 L317.9959 73.7979 L318.0311 74.2093 L318.1799 74.6291 L318.2372 75.0757 L318.4322 75.3787 L318.7091 75.5432 L318.8676 75.822 L318.8897 75.9245 L318.9757 76.3254 L318.8375 76.4965 L318.5085 76.4828 L317.9942 76.3953 L317.3782 75.997 L317.2798 75.7358 L317.0869 75.5543 L316.9983 75.4714 L316.6133 75.4512 L316.989 75.6549 L316.3411 76.8367 L314.6329 76.1139 L315.4359 74.8139 L314.95 74.4051 L314.3395 73.7979 L313.3109 73.5217 L311.4746 72.2609 L310.1738 71.3481 L309.9699 70.8943 L309.9326 70.4614 L310.1225 69.732 L311.6709 66.6279 L312.2191 64.987 L312.3616 62.366 L312.2802 61.0555 L312.3361 59.9912 L312.3327 59.5753 L312.2132 59.1378 L311.8833 59.0607 L311.7396 59.0692 L311.4212 59.0888 L311.2931 59.0875 L310.3824 59.0797 L310.0263 58.8557 L308.6178 57.1762 L306.4364 54.4997 L305.9001 53.9995 L305.8916 53.9009 L305.4621 54.7916 L303.3727 64.1898 L303.0335 65.7209 L304.0154 67.1274 L307.3446 67.7007 L307.1033 69.6093 L303.5028 69.0406 L303.4532 69.2162 L301.904 69.0693 L301.1959 69.5877 L300.5447 70.065 L300.2059 70.7996 L301.1624 70.1963 L301.5411 71.4865 L301.5529 72.1479 L301.5648 72.8185 L300.3018 73.5276 L300.0571 73.5087 L299.4275 73.1234 L297.4131 71.9651 L296.973 71.6987 L297.417 71.7046 L296.2658 70.9393 L297.888 70.2211 L298.9162 69.7229 L299.96 69.2306 L300.4934 67.8026 L299.882 68.4562 L299.5047 68.784 L298.4748 69.3794 L297.35 69.7601 L296.6479 70.0683 L296.084 70.2054 L295.66 70.2661 L295.1783 70.1956 L294.6763 70.033 L294.2125 69.9025 L293.5816 69.1927 L293.2225 69.051 L292.4216 68.9616 L291.5973 68.9446 L291.0758 69.3017 L290.3301 70.1271 L289.0475 71.8822 L288.4225 73.1502 L287.0649 76.0786 L286.942 76.3907 L286.6401 77.1527 L286.4163 77.9617 L286.1351 78.6218 L285.3779 79.6195 L284.9124 80.0132 L283.7803 81.2603 L283.4314 81.3732 L283.0723 81.2276 L281.816 79.9459 L281.0859 79.3844 L280.8917 79.3727 L282.8722 81.1604 L282.7975 81.2335 L283.3258 81.718 L283.3619 81.8975 L283.4297 82.2397 L283.372 82.5922 L283.1745 83.2341 L282.8166 84.8735 L282.6267 85.2614 L282.4359 85.5023 L282.2252 85.6499 L282.0191 85.644 L281.685 85.4435 L281.5985 85.392 L281.47 85.2274 L281.0117 84.6391 L280.1256 83.8184 L280.0942 83.8478 L279.6083 83.4678 L277.8988 81.4451 L277.7004 81.733 L277.4668 81.9099 L277.8827 82.3082 L278.6853 83.0989 L278.8617 83.3725 L279.0902 83.6356 L279.7877 84.1586 L281.0287 85.5356 L281.2475 85.8941 L281.2792 86.1265 L281.194 86.3642 L280.4851 87.1385 L279.4506 87.8175 L279.2704 87.8391 L278.8909 87.5949 L277.4837 86.4027 L277.2751 86.3681 L277.2035 86.5626 L277.1802 86.765 L277.4846 87.369 L278.0345 88.0225 L278.3029 88.4058 L278.1574 88.6957 L277.7263 89.6933 L278.3389 90.1882 L278.6382 90.4572 L278.7239 91.1095 L277.9896 92.3539 L278.3368 92.6601 L277.6296 94.0985 L277.4604 94.2813 L277.3828 94.357 L278.1155 94.2735 L278.5785 94.8754 L278.7226 95.7614 L278.4525 96.8903 L278.3139 97.8683 L278.3258 98.3508 L277.9009 99.2126 L277.6147 99.7793 L277.502 100.107 L277.4257 100.4576 L277.2556 102.1558 L277.0042 103.4687 L276.9283 103.8807 L276.3996 104.0152 L276.0371 104.1059 L275.4367 104.1634 L275.2752 104.1308 L275.1107 103.9264 L274.1966 101.089 L274.0028 101.0942 L274.0584 101.3958 L274.2029 101.9136 L274.3119 102.1578 L274.4582 102.7636 L274.5638 103.1671 L274.6956 103.4733 L274.8415 104.1386 L274.4001 104.2796 L273.6102 103.8977 L273.2604 102.9791 L272.9806 101.9155 L272.7402 101.1686 L272.6206 100.6013 L272.5138 100.2455 L272.7254 99.6317 L272.9077 98.8202 L272.6796 97.8089 L272.3073 97.1697 L272.0915 97.0528 L271.991 96.7081 L271.9389 96.0996 L272.0601 95.7542 L272.0483 95.324 L271.9796 94.7997 L271.7697 94.547 L271.2312 94.2343 L270.9472 94.0058 L270.8111 93.7224 L270.683 92.5785 L270.6593 91.3491 L270.6635 90.2411 L270.6885 89.6437 L270.7182 89.376 L270.7386 88.5201 L270.7165 88.127 L270.5999 87.6595 L270.4821 87.2515 L270.3799 86.9485 L270.3599 86.6495 L270.3061 86.5202 L270.0483 86.5626 L269.8283 89.0019 L269.5735 89.1429 L268.5169 88.2961 L267.724 85.7452 L269.4539 85.0022 L269.3564 84.8396 L268.0679 85.3175 L267.7274 84.4276 L267.8101 83.1844 L268.0348 83.1113 L268.0747 82.3141 L268.1344 81.3804 L267.8864 80.7295 L267.5587 79.8062 L267.4917 81.0729 L267.5604 82.4303 L266.7408 82.7261 L266.3079 81.4503 L265.9429 80.3749 L265.7173 79.7109 L265.557 79.2303 L267.1758 78.6401 L266.7531 77.6444 L266.098 76.7192 L265.4388 75.8573 L264.7583 74.9667 L264.0129 73.9912 L265.1199 73.4603 L265.2882 73.6295 L271.4398 71.2403 L271.3724 71.0882 L269.2118 71.8737 L269.1261 71.6824 L268.8624 71.5662 L268.3732 71.5178 L267.9432 71.779 L267.7062 71.9651 L267.3713 72.2354 L266.9032 72.4555 L266.4919 72.7493 L266.0777 72.9073 L265.4536 73.2331 L264.8888 73.429 L264.3974 73.6601 L263.9671 73.7803 L263.6682 73.7235 L263.3756 73.3957 L262.9762 72.1042 L262.81 71.4702 L262.6667 71.241 L262.5989 70.8642 L262.6973 70.7082 L262.9037 70.5841 L263.1959 70.494 L263.5325 70.3765 L264.4411 70.0089 L265.1835 69.7614 L265.7851 69.5153 L266.3338 69.3377 L267.2805 69.002 L267.8453 68.8199 L267.833 68.7911 L268.3367 68.5802 L268.2752 68.4359 L266.7285 68.938 L266.2931 69.0699 L265.6461 69.3324 L264.7099 69.6556 L264.1944 69.845 L263.8119 69.9854 L262.9644 70.2916 L262.6812 70.3674 L262.5374 70.4059 L262.183 70.4699 L261.9676 70.4235 L261.8756 70.3138 L261.5012 69.7869 L261.3804 69.3377 L261.0289 68.195 L260.8779 67.672 L260.6024 67.0654 L260.3823 66.6246 L260.1182 65.8816 L260.7512 65.6557 L262.1558 65.1803 L262.4229 65.0745 L262.6421 65.7098 L262.6981 65.672 L262.4772 64.9276 L262.1393 65.0458 L259.8494 65.894 L258.1081 66.4666 L257.8164 65.0843 L259.2257 64.6207 L258.3395 62.814 L257.5933 61.0327 L257.2652 60.2883 L256.5749 58.505 L256.5262 58.3797 L256.3201 57.9703 L255.2177 55.2637 L254.6547 52.8894 L254.3448 52.9652 L254.2969 52.845 L253.8186 51.6964 L252.7285 49.9157 L252.3804 50.0346 L252.3037 49.9216 L251.2671 48.0678 L251.0686 47.7132 L250.8244 47.4265 L249.3494 45.9997 L248.7681 44.3104 L250.3593 43.9095 L250.7774 43.7143 L251.1678 43.4739 L252.3915 43.0084 L253.4773 42.6551 L255.4213 42.0262 L256.8297 41.6625 L257.2096 41.5704 L257.6917 41.2296 L257.648 41.0696 L257.5802 40.8306 L252.5992 42.3005 L252.4538 42.3821 L252.2596 42.5382 L251.7814 42.7707 L250.6985 43.1514 L249.5567 43.3936 L249.1683 43.5706 L248.8096 43.8161 L248.2801 44.0055 L248.1101 44.0812 L247.5343 44.3372 L247.48 44.3614 L247.2384 44.3111 L247.006 44.0923 L246.8678 43.8657 L246.7766 43.6346 L246.6384 43.408 L246.3904 43.2865 L246.245 43.2513 L246.0677 43.1233 L245.977 42.8921 L245.6688 42.3462 L245.4843 41.8604 L245.3631 41.1728 L245.5869 40.8489 L246.5875 40.619 L247.3087 40.4349 L248.0041 40.2572 L248.8656 40.0626 L249.3986 39.917 L250.191 39.7525 L250.9809 39.5448 L252.2223 39.0792 L252.9511 38.8689 L253.1716 38.8056 L254.4431 38.4086 L255.5082 38.1017 L255.4522 37.8653 L255.4047 37.6628 L254.3774 37.8522 L253.677 35.8279 L253.3297 34.4813 L253.1173 33.8224 L252.8621 33.8211 L252.7938 34.1215 L252.8562 34.5734 L253.0457 35.3374 L253.3526 36.2007 L253.4637 36.5031 L253.7249 37.418 L253.6206 37.7745 L252.5683 38.1134 L251.4036 38.5091 L251.008 38.4902 L250.9588 38.4197 L250.7799 38.1624 L250.7138 37.7797 L250.7138 37.7765 L250.7091 37.2018 L250.2279 36.313 L250.1825 36.6049 L250.4674 37.4708 L250.5001 38.116 L250.5077 38.6162 L250.4344 38.788 L250.3262 38.9251 L250.2597 39.0093 L249.8098 39.1778 L246.3844 39.9347 L245.2927 40.2239 L244.4282 39.7009 L244.418 38.5535 L244.2103 38.2172 L243.7494 36.6827 L243.7621 35.9957 L243.4818 35.5458 L243.0172 34.4219 L242.2909 33.6363 L241.42 32.8749 L240.9061 32.3009 L239.3353 29.0129 L238.238 27.458 L236.9521 26.2192 L236.6582 25.8489 L235.2574 24.87 L234.2352 24.4697 L232.3849 23.5933 L231.1846 22.9664 L230.3091 22.7653 L228.7547 22.0522 L226.7408 21.1895 L225.6618 20.1988 L224.2741 18.9639 L223.5287 18.7046 L222.4416 18.2331 L221.3706 17.1941 L220.3454 16.146 L219.511 14.8568 L219.062 14.2828 L218.2878 13.3541 L217.6171 11.9154 L217.0841 10.3056 L216.7708 9.4011 L216.2298 8.511 L214.9235 6.5909 L214.9078 6.0678 L215.1296 5.7125 L214.8858 5.4154 L214.5962 5.465 L214.3498 5.256 L213.7737 4.0328 L213.4417 3.4548 L213.2984 2.8187 L213.2886 2.4648 L213.359 1.4107 L213.5472 0.9346 L213.816 0.3749 L213.9929 0.0 L213.1508 0.9378 L212.8684 1.2095 L213.1008 2.5072 L212.6849 2.4902 L212.6416 3.0702 L212.3876 6.459 L212.3881 8.3092 L213.2895 10.9215 L213.9992 12.5091 L214.8162 13.953 L215.5463 15.2656 L215.933 15.2389 L217.2435 16.3582 L217.8138 17.4325 L218.1458 17.7179 L218.7309 18.384 L218.7987 18.4617 L219.8629 19.4099 L221.2795 20.669 L221.4143 21.1627 L221.4635 22.683 L222.3797 22.7026 L222.9215 22.9174 L225.0025 24.8968 L225.4477 24.6826 L225.4057 24.2392 L225.5494 24.0243 L228.6038 24.9105 L231.2545 26.2969 L232.0207 27.1158 L233.2134 26.7678 L235.1158 27.1171 L235.9404 27.8133 L236.8617 28.61 L237.2548 29.5497 L237.7945 30.8401 L237.9391 32.4687 L239.4392 33.8211 L241.7957 37.2162 L242.7259 38.4876 L242.9972 39.5879 L241.4399 40.5452 L240.6878 39.5004 L240.5106 39.2523 L239.9551 38.6143 L240.3851 38.2401 L240.2074 38.1787 L237.9433 37.3925 L237.4502 36.1518 L238.1625 35.6764 L238.0828 34.4794 L236.5276 33.4385 L234.0757 30.0963 L233.2524 29.3597 L232.4536 28.8627 L230.6962 29.4576 L230.1564 30.618 L229.3899 33.4385 L229.4479 33.6141 L229.7583 33.876 L229.799 34.2795 L229.5624 34.8712 L229.1579 35.7025 L229.0702 36.046 L228.8756 36.1746 L228.3999 35.9741 L228.1315 35.7913 L227.5375 35.3773 L226.9664 34.7693 L226.1409 35.5941 L225.4298 36.0342 L224.163 36.0107 L222.9296 35.0083 L222.6464 34.6825 L222.4391 36.9759 L222.0575 37.9338 L221.6602 39.1556 L220.9712 40.4623 L220.7363 40.5302 L220.1245 40.4597 L219.1714 40.171 L218.6613 39.7792 L217.2813 39.1798 L216.753 38.9845 L216.1077 38.722 L215.8262 38.5934 L215.7774 38.4386 L215.8062 38.2656 L216.0229 37.9887 L216.3583 37.2684 L216.9713 36.6787 L217.0201 36.362 L217.0663 35.8279 L217.118 35.5875 L216.2451 36.9974 L213.9526 36.4528 L212.179 36.7453 L211.8369 36.6722 L211.8008 36.8746 L211.7131 37.0856 L210.5883 36.6552 L210.4882 35.6241 L210.4314 34.8666 L210.3686 34.0249 L210.8087 32.4269 L210.9363 31.9633 L211.0733 31.8131 L210.7252 31.7288 L210.6989 32.0371 L210.6273 32.3616 L210.436 33.0584 L210.3156 33.5207 L210.138 33.9779 L209.9926 34.4741 L208.4403 34.2613 L207.3393 33.8969 L207.2489 33.8048 L207.4236 33.1061 L206.3933 33.7499 L205.8689 33.095 L205.4356 32.553 L204.7021 29.9761 L203.3775 33.1492 L203.015 34.3749 L202.9871 34.6054 L202.8946 34.8314 L202.2612 35.8651 L202.1039 36.3235 L203.559 36.5005 L207.4024 37.4395 L207.176 38.645 L205.762 41.5221 L203.9605 44.2321 L203.2029 47.6133 L200.3562 51.8042 L196.1109 50.032 L195.2171 49.8916 L194.9695 49.6944 L194.7673 49.3764 L194.4361 49.1517 L194.0978 49.2464 L193.6768 49.6781 L192.7215 49.3013 L191.2435 48.8638 L190.5333 48.6013 L190.008 48.5765 L189.0926 48.6561 L187.8198 48.549 L186.9206 48.4152 L186.8392 48.0155 L186.6157 45.094 L186.6221 44.7656 L186.2871 44.7943 L186.366 42.0804 L186.2201 42.0164 L186.031 41.6619 L185.7868 41.2883 L184.9919 40.5903 L184.7303 40.3487 L184.1579 39.9151 L183.9327 39.6225 L183.404 39.2203 L183.0445 39.5239 L183.1806 39.6388 L183.4231 39.821 L183.792 40.171 L184.2219 40.587 L184.5891 40.9618 L185.1822 41.5646 L185.7631 42.1679 L185.9081 42.4148 L185.8882 42.8 L185.8835 43.0828 L185.9853 44.3947 L186.1235 47.6237 L185.3942 48.3649 L184.5916 48.3936 L184.2389 47.5931 L184.1562 47.3828 L183.795 46.9309 L183.577 46.3132 L183.092 46.479 L182.8147 46.3321 L182.6705 46.0912 L182.5438 45.8489 L182.3199 45.845 L181.7017 45.8985 L181.352 45.5224 L180.9674 44.8838 L180.649 44.1929 L180.3764 43.8925 L180.1461 43.4054 L180.0596 42.9169 L180.2186 42.2803 L180.0571 42.1046 L179.6276 41.895 L179.3804 42.0282 L178.6401 43.4544 L178.3294 44.2118 L178.1699 44.8152 L178.1301 45.4375 L177.9083 45.5276 L177.4047 45.2057 L177.0078 44.8988 L176.8128 44.6134 L176.6762 45.0738 L175.8465 44.7369 L175.6006 44.0199 L175.0905 43.7103 L174.9629 44.1178 L175.4594 44.7499 L175.866 45.1561 L176.6559 45.495 L177.3033 48.2447 L179.932 48.5164 L180.2004 48.3375 L180.448 48.0841 L181.806 50.5426 L181.854 50.6288 L180.8288 51.3327 L179.1731 52.4702 L179.3312 52.7053 L178.2755 53.3896 L175.4768 54.7622 L175.2809 54.6531 L173.5294 55.5477 L173.4285 55.0149 L173.097 55.0671 L172.7909 54.5715 L172.6208 54.8092 L172.3681 54.8386 L172.2698 54.9731 L172.2524 55.1422 L172.2706 55.4837 L172.168 55.6352 L171.7584 55.7456 L171.2933 55.8037 L170.8927 55.8625 L170.3843 55.8546 L170.3067 55.6914 L170.2296 55.6078 L170.0561 55.4282 L169.8162 55.4432 L169.5308 55.4034 L169.2217 55.4302 L168.9042 55.4994 L168.551 55.5595 L168.272 55.4602 L168.0503 55.3042 L167.7395 55.2323 L167.4635 55.2702 L167.374 55.3688 L167.1913 55.3668 L167.2265 55.4628 L167.2396 55.5497 L167.0382 55.7325 L166.688 56.4403 L166.6418 57.1932 L166.0414 57.5223 L165.751 57.6301 L165.0514 58.0636 L164.9399 58.2543 L164.6113 58.3085 L164.4778 58.2426 L164.3251 58.2563 L164.1767 58.3203 L163.991 58.5429 L163.7731 58.6905 L163.5488 58.7617 L163.2313 58.7982 L162.7946 58.9132 L162.251 59.2194 L160.8608 59.7235 L159.6477 60.3066 L158.5517 60.479 L158.1205 60.5221 L157.1009 60.4875 L155.7971 60.8368 L155.4876 60.8342 L155.4015 61.1959 L155.3685 61.2449 L154.5523 61.5224 L154.0677 61.6295 L153.6992 61.7594 L152.9954 62.0056 L152.4256 62.2792 L152.2836 62.2903 L151.771 62.5358 L151.1006 62.8564 L150.1674 62.7768 L149.802 62.7454 L147.8644 62.9021 L145.49 63.2195 L144.581 63.4323 L144.4038 63.4898 L143.1314 63.8633 L143.0352 63.8874 L141.6615 64.3661 L141.4724 64.417 L141.2298 64.5149 L136.3031 66.4967 L133.4824 67.6935 L132.6484 70.5704 L132.3117 73.4871 L128.8533 75.2775 L127.1319 74.3301 L125.5907 69.3749 L124.6474 69.4545 L124.2522 69.4454 L124.1585 68.6618 L123.8477 67.6289 L123.7795 68.1356 L123.6285 68.3608 L123.0812 68.4849 L122.5775 68.4405 L122.042 68.4993 L121.3271 68.7911 L120.5127 68.9563 L120.8544 69.6001 L116.796 76.981 L113.1052 82.6393 L112.2687 84.7195 L104.4085 99.0304 L100.5515 104.971 L97.3923 110.1796 L98.6889 110.4845 L99.9536 110.8397 L100.6689 110.8181 L101.212 111.1889 L100.8868 111.7713 L100.7902 112.2159 L100.5205 113.0352 L100.1724 113.7664 L99.681 114.3984 L99.2142 114.4395 L98.708 115.1727 L98.3722 115.4319 L97.896 115.4972 L97.9367 116.0358 L97.5933 116.543 L97.1587 116.9524 L96.647 117.0144 L96.2701 116.8708 L95.9071 116.8198 L95.5726 117.1613 L94.993 117.2533 L94.5377 118.0296 L94.2286 118.3273 L94.0166 118.529 L93.6685 118.5767 L93.25 118.4957 L92.4097 118.3567 L92.1218 118.358 L91.8432 118.465 L91.4358 118.3769 L90.9779 119.0767 L90.1833 121.1737 L89.753 122.0126 L88.7486 122.2881 L88.2962 122.8175 L87.9935 123.9992 L88.9114 123.8627 L89.9183 123.7746 L91.1089 123.4084 L90.5009 121.2612 L94.0191 120.2819 L94.9447 125.3897 L91.9318 126.0158 L91.7428 126.2723 L91.4812 126.5459 L91.1699 126.6614 L90.7027 126.7842 L89.9446 126.8096 L89.8425 127.6759 L91.9666 127.6844 L94.4698 127.437 L94.4177 128.428 L94.3698 129.5698 L94.0895 130.8728 L93.9301 131.3402 L94.1332 131.7822 L94.1646 132.1837 L94.4151 133.5429 L94.5266 133.6747 L94.5834 135.0248 L94.3515 135.6521 L94.0747 135.5111 L93.911 135.3838 L93.741 135.3871 L93.83 136.4159 L94.056 136.6496 L94.2413 136.8219 L94.2595 137.3683 L94.251 137.811 L94.1976 138.0101 L93.4552 138.0512 L92.7891 137.6915 L92.1964 137.6961 L91.0741 137.7646 L90.6362 136.9127 L90.3355 136.2266 L90.3881 136.0216 L90.5564 135.9302 L90.8753 135.8786 L91.2374 135.8532 L91.6491 135.8584 L92.037 135.8597 L92.4707 135.9158 L92.681 135.9034 L92.7272 135.8231 L92.6552 135.8055 L92.4169 135.7677 L91.9696 135.7598 L91.5757 135.7585 L91.209 135.7318 L90.8316 135.782 L90.4301 135.7585 L90.0973 135.7167 L89.9459 135.4869 L89.3765 134.1121 L89.6037 134.022 L90.0829 133.9267 L90.5692 133.9078 L91.1793 133.8314 L91.5647 133.8033 L91.8805 133.7877 L92.0489 133.7609 L91.9832 133.6134 L91.7979 133.6473 L91.5045 133.6493 L91.0593 133.7354 L90.5238 133.7942 L90.0468 133.8477 L89.5753 133.9006 L89.3905 133.9346 L89.3163 133.8934 L89.0314 133.1819 L88.5947 132.2124 L88.3555 131.762 L87.8858 131.2913 L87.0942 130.438 L85.7832 128.8608 L84.8717 129.0012 L84.2136 128.2178 L82.5995 126.7731 L82.7585 126.9833 L82.9637 127.2483 L83.1812 127.5088 L83.4611 127.7641 L84.1708 128.5625 L84.5206 129.0038 L84.7809 129.3635 L84.9382 129.686 L84.5197 130.1469 L84.2302 130.331 L83.4 130.9871 L83.2932 130.9727 L83.216 131.0321 L83.389 131.1294 L84.4099 130.504 L84.6376 130.6254 L84.9743 130.9629 L85.213 131.2939 L85.1595 131.493 L85.132 131.6843 L85.143 131.8109 L85.2172 131.9324 L85.235 132.1582 L84.9293 132.4265 L84.9518 132.6191 L85.1858 132.8104 L85.3635 133.0311 L85.4682 133.287 L85.3279 133.6995 L85.1612 133.9502 L85.1519 134.1102 L85.4975 133.962 L87.8319 132.5617 L88.1711 132.4794 L88.414 132.4997 L88.66 132.6962 L89.2858 134.276 L90.4581 137.0785 L90.7108 137.6621 L89.4986 138.0904 L88.5586 138.4964 L87.8764 138.627 L87.4291 138.6191 L87.0806 138.4605 L85.525 136.6463 L85.5513 137.0211 L84.5872 137.4885 L83.2308 138.4435 L80.6526 140.212 L80.4045 139.6564 L65.8687 166.2284 L65.3306 167.2128 L58.022 180.5658 L56.0297 184.2093 L50.0116 195.2164 L46.0232 201.7002 L43.0841 207.4176 L43.2139 207.6245 L43.5297 207.6598 L44.1759 207.4104 L44.694 207.3537 L44.9492 207.5749 L45.5377 207.6023 L45.5335 209.5773 L45.4813 209.7235 L45.3724 209.886 L45.1294 209.9956 L44.3892 210.3487 L43.9402 210.5837 L43.2028 211.5503 L42.8798 212.323 L41.6956 212.122 L41.0588 212.2865 L39.8623 214.1792 L37.7241 217.8706 L23.1691 244.5085 L25.2581 246.8402 L23.1212 248.3803 L24.6264 250.5925 L26.1315 252.7982 L27.5875 249.8923 L28.9408 249.0172 L31.3291 248.5624 L31.6929 246.7997 L32.5689 246.6405 L32.8644 247.9933 L34.8431 247.9594 L36.1079 239.4659 L45.1689 240.852 L46.9543 241.2383 L45.9766 243.2398 L48.6489 243.7286 L55.7791 239.7602 L56.6033 241.9849 L52.6293 244.3088 L49.544 247.5907 L49.0352 248.315 L49.0564 249.7181 L49.0776 251.1146 L50.2393 249.7899 L50.7014 251.5779 L56.3744 253.6727 L57.4258 250.0966 L57.6421 253.255 L55.7596 258.0645 L54.6063 257.9209 L53.8686 258.1428 L52.1981 262.2539 L54.5003 266.0061 L53.8304 269.1579 L52.5882 269.1579 L51.5337 272.4675 L51.1051 274.1967 L48.3856 273.2062 L47.0704 272.9406 L45.0183 271.9599 L44.5715 272.0741 L44.4667 272.4068 L44.6092 272.7207 L45.1896 273.092 L45.9409 273.1964 L47.1442 273.8124 L47.4397 274.1674 L46.9203 280.0721 L46.6732 280.5856 L45.589 281.261 L42.2035 281.3177 L40.7102 282.0786 L38.2757 281.9363 L35.8412 282.3448 L34.8618 281.7836 L33.0166 281.6603 L31.3241 281.9742 L27.3204 282.9634 L26.8069 283.4293 L27.6057 283.9806 L28.5186 283.6191 L30.5444 283.4769 L31.1812 283.2772 L31.9232 283.4006 L32.5888 283.3529 L33.3685 282.9059 L34.0439 282.9438 L35.1471 283.6191 L36.1647 283.4293 L37.3629 283.5624 L38.2664 283.9519 L38.3728 284.2553 L39.1529 284.1894 L43.1719 282.9281 L43.2902 282.8675 L44.8801 283.6766 L41.8448 291.0244 L41.3407 293.9339 L43.2804 292.7835 L44.6215 291.4714 L46.7898 293.0498 L49.3964 290.0992 L53.0486 286.2605 L47.4792 282.2737 L49.8535 281.3601 L54.53 276.2509 L59.3719 272.538 L58.7054 266.1862 L58.6397 263.8735 L59.1854 261.6144 L62.2465 255.2911 L66.6475 250.8862 L72.278 256.0219 L74.8389 257.3532 L75.5809 255.1867 L78.2265 255.8653 L77.5778 259.0433 L79.9649 259.0433 L79.0194 263.8396 L76.8486 265.0664 L74.8304 265.4057 L75.6529 267.2002 L76.98 271.4091 L74.1987 278.6522 L79.8716 286.4236 L82.5766 291.2782 L80.1345 290.9781 L75.7886 283.6961 L72.7063 277.9018 L75.9285 269.8104 L71.9728 271.1155 L71.6209 271.4744 L68.9879 276.6033 L65.2441 278.3259 L63.5991 279.0437 L65.1296 279.9246 L65.931 282.613 L64.4852 283.0175 L64.8117 284.825 L72.2907 284.825 L72.2907 287.944 L68.0636 290.0776 L53.9025 286.8478 L45.2113 295.7432 L45.1443 298.9952 L42.2989 299.2784 L39.7982 301.5875 L39.7113 301.9659 L39.2242 304.0343 L39.6312 306.6246 L40.7972 310.3175 L38.3211 315.0804 L36.506 317.0168 L33.4444 318.6479 L31.7001 322.3303 L30.0513 324.6229 L23.8157 328.8278 L22.8571 326.5398 L23.6224 325.7347 L27.0405 322.9716 L29.2105 321.1703 L29.7019 320.1877 L30.8687 319.87 L31.8714 316.8198 L34.9114 315.0699 L34.6451 314.6504 L31.9431 316.0323 L31.4212 315.7661 L31.4517 314.0097 L31.6569 313.6691 L31.319 313.0637 L32.3628 312.2044 L32.3463 310.1472 L30.9806 309.8829 L28.7297 311.7438 L28.8217 312.0302 L30.0394 311.4671 L29.8859 312.2964 L29.6815 313.1354 L30.1522 314.9264 L28.4223 320.5048 L26.7251 320.3782 L25.5464 320.4128 L24.7786 322.1933 L21.647 321.9989 L21.5139 320.4943 L17.8396 321.4769 L16.12 323.125 L14.3901 322.6539 L13.2131 323.1354 L11.8623 326.1542 L11.5452 327.1674 L11.7292 327.9249 L12.3024 328.191 L15.0965 327.5569 L15.6286 326.4719 L16.4371 326.1235 L17.2562 325.4789 L17.4199 324.9263 L18.0953 323.9542 L18.5252 324.1688 L19.4771 327.0754 L20.1627 327.6182 L19.907 328.1499 L18.7605 328.529 L18.3103 329.1325 L18.0851 330.7603 L17.6862 331.8041 L12.1693 332.7867 L8.4437 333.2577 L8.3208 334.8541 M66.5754 186.1942 L68.7725 187.2398 L66.8998 189.7671 L66.5754 186.1942 M74.9195 342.4885 L76.4331 341.1381 L76.7935 340.9619 L83.0345 348.5948 L87.8086 350.7803 L85.7819 352.0328 L80.7238 353.8223 L80.4525 353.9182 L80.1981 353.4159 L78.0781 352.0002 L74.9195 342.4885 M120.4724 317.8813 L121.3831 315.7126 L122.4532 314.5225 L125.2125 315.4719 L126.1364 315.3688 L127.1828 314.8683 L128.9453 311.9003 L128.8317 309.5234 L129.0021 308.841 L129.7415 307.7266 L129.8323 307.1922 L129.3205 306.9306 L128.6727 307.0669 L127.9561 307.9432 L127.6492 308.6818 L126.7728 309.607 L125.9164 307.8055 L128.1889 305.1696 L129.7971 304.8799 L131.072 303.5762 L131.362 303.2976 L131.6775 303.2748 L131.9675 303.6695 L131.4956 303.8888 L131.072 304.2809 L130.4806 304.8381 L130.0201 305.4123 L131.2425 305.8501 L132.5738 305.6217 L133.3912 303.5775 L134.3698 302.8598 L134.3002 302.4488 L134.0174 302.0631 L134.0628 301.2449 L134.2421 300.7047 L134.5576 300.7269 L136.298 302.7045 L136.5563 305.4978 L139.2405 306.3238 L141.7946 304.765 L144.1731 301.7832 L144.98 303.3257 L144.9889 304.5138 L144.4682 305.1793 L144.5479 306.021 L144.969 306.4758 L144.6319 307.5993 L146.4881 312.3727 L137.3008 317.3378 L136.3828 317.5669 L135.4391 316.5888 L131.1479 318.9624 L129.9688 320.8871 L129.0195 323.0571 L128.1266 325.9252 L128.283 327.1491 L128.0282 328.6497 L127.8667 330.0928 L127.7268 331.5934 L127.1205 329.871 L126.7308 328.3757 L126.9013 326.8118 L127.1599 325.6525 L123.7256 319.136 L120.4724 317.8813 M139.7086 381.8709 L144.1562 372.9211 L145.8521 372.882 L145.92 371.1011 L146.0048 372.1644 L147.7601 373.3451 L145.3433 378.6942 L140.4463 381.4013 L141.6674 382.9407 L139.7086 381.8709 M142.7893 224.4563 L143.457 219.7228 L144.6925 220.1653 L145.8555 218.8698 L149.099 220.658 L146.5292 224.3226 L143.382 224.9484 L142.7893 224.4563 M146.7595 300.9676 L148.502 300.5957 L152.7419 297.6335 L152.8479 297.5748 L155.0568 300.4718 L155.6207 305.8612 L152.1907 307.3292 L150.198 303.9168 L147.3488 304.0799 L147.052 302.5271 L146.7595 300.9676 M147.3416 209.7626 L148.4041 208.039 L149.0651 205.6894 L152.0877 203.9774 L154.2127 206.5274 L152.0398 208.5859 L150.9777 208.582 L149.8444 208.924 L150.7415 211.7461 L149.7613 212.4875 L148.7111 212.5489 L148.2625 209.7626 L147.3416 209.7626 M158.8871 192.0032 L159.8848 190.6574 L159.8318 190.0608 L159.5248 189.801 L159.1046 188.8552 L162.3095 186.046 L166.5316 184.0461 L175.2941 181.6467 L175.3861 181.8849 L172.0213 184.4651 L170.8643 184.9488 L170.4335 186.153 L166.939 188.0837 L165.8587 188.4669 L165.227 188.9747 L164.867 189.6535 L163.7926 189.7599 L162.2048 190.6038 L161.5023 191.3185 L161.1953 192.3335 L160.2269 191.7904 L158.8871 192.0032 M160.037 297.2511 L161.5608 295.7047 L162.5953 295.8052 L163.2249 296.1654 L165.1396 295.9951 L166.8203 295.5344 L167.4686 294.9544 L167.6687 294.5276 L169.1488 291.6821 L170.0812 289.6463 L170.1312 289.4584 L170.0854 289.3501 L170.0087 289.339 L169.8938 289.4532 L167.8268 293.7832 L167.4681 294.2673 L166.8665 293.0954 L170.5798 285.8827 L171.5096 286.7668 L170.403 290.5735 L167.8892 295.5109 L166.8033 295.8235 L165.3363 296.9268 L165.6149 297.285 L167.2413 296.4714 L168.1224 296.3918 L169.0606 295.8346 L169.9858 294.5374 L171.011 296.0121 L172.2138 298.4765 L172.0629 299.1785 L169.9705 300.7589 L169.9251 301.2136 L170.2546 301.6116 L171.0279 301.3389 L171.7406 302.5727 L170.3572 304.0682 L168.5832 304.6371 L166.9704 304.6867 L164.482 303.7015 L163.6701 302.8063 L163.6531 302.1976 L162.7208 301.9137 L162.8005 298.65 L160.037 297.2511 M162.5486 316.9007 L165.2452 313.2535 L164.164 309.9847 L164.8806 309.9456 L167.2634 313.6646 L166.4154 318.1142 L164.5838 319.7323 L162.5486 316.9007 M164.7563 307.5935 L165.3478 307.3318 L169.4075 307.9347 L171.8021 305.6361 L173.6604 303.205 L177.4068 305.6152 L179.2447 306.5032 L177.358 309.2833 L172.8506 312.7707 L172.2164 312.7564 L171.9776 312.1541 L172.2142 311.3856 L167.8722 310.4251 L165.6433 309.1744 L164.7563 307.5935 M172.2961 295.3981 L173.1207 295.3289 L174.4817 295.3667 L175.4064 292.8383 L175.827 292.1447 L176.3934 293.2481 L176.5083 294.3854 L176.1056 295.6591 L176.0716 296.7852 L176.7996 297.3196 L177.4589 297.3536 L177.7091 296.8648 L177.8342 296.1823 L177.8227 295.4888 L178.7211 296.9784 L177.9329 300.4261 L175.2415 298.7068 L173.3425 296.3872 L172.2961 295.3981 M182.8495 272.7625 L183.8034 270.9667 L183.898 270.7696 L184.2249 269.629 L184.2185 269.3164 L184.718 267.4182 L184.9291 267.0756 L185.7618 266.0178 L186.1816 264.6377 L185.0631 262.282 L184.6527 261.9107 L183.6466 260.261 L184.2622 259.365 L184.0125 258.4899 L186.6085 254.6496 L187.3797 254.9419 L187.9085 255.2141 L188.2947 255.5397 L187.2538 259.1223 L187.6799 259.7037 L187.5519 259.921 L187.3 260.0607 L187.5205 260.3008 L187.8376 260.3028 L188.8289 259.4035 L189.2652 259.4244 L189.8465 259.7631 L189.2131 260.7896 L188.3337 261.6784 L187.4726 261.4062 L187.7847 262.3746 L188.2057 262.9887 L188.8056 263.36 L189.8316 262.6017 L190.6847 261.1687 L192.072 256.6425 L193.2074 256.6556 L194.3297 255.3178 L194.2725 254.8969 L194.1135 254.6359 L193.829 254.4081 L193.5275 252.7519 L193.4538 252.5829 L193.5903 251.9864 L193.8209 251.189 L193.3456 251.2412 L193.0217 251.5029 L192.652 251.9858 L192.2314 252.4693 L191.765 252.8674 L191.1909 252.9353 L190.6733 252.7819 L190.2756 252.5829 L189.8715 252.2364 L189.5421 251.6334 L189.3882 251.1498 L189.269 250.7009 L189.428 250.1951 L189.6498 249.7174 L190.0364 249.029 L189.8715 248.5115 L190.9578 244.8217 L191.8218 243.1726 L192.5155 242.3197 L192.7317 241.455 L193.3232 240.6138 L193.4368 240.1361 L193.653 240.0676 L193.9714 240.341 L193.96 240.989 L193.9829 241.5692 L194.0168 242.1376 L193.7895 242.8313 L193.5962 243.4683 L193.7895 244.0256 L194.1533 244.4237 L192.8453 245.1624 L191.9244 246.0838 L190.7076 248.0964 L190.9009 248.5402 L192.2997 248.9611 L193.0048 249.0746 L194.7104 248.2328 L195.17 247.5026 L195.0963 246.649 L195.3596 246.7736 L195.4991 246.4845 L195.151 246.2613 L195.187 245.4358 L196.3046 243.6458 L196.7184 243.3332 L197.1547 243.219 L197.5952 243.2862 L197.97 243.4774 L198.3911 249.9484 L198.2537 252.7271 L196.8278 257.2592 L194.9992 255.6467 L193.5313 256.621 L192.6448 263.0853 L193.812 265.4338 L193.6632 267.2896 L192.5121 269.4143 L190.5541 270.8943 L189.1698 271.0907 L188.4045 271.6995 L188.9926 272.4891 L187.1449 274.001 L185.8118 273.7237 L184.91 273.7902 L184.6251 272.8617 L183.5079 272.9119 L182.8495 272.7625 M183.4842 282.8146 L184.3678 277.9918 L184.5721 278.1478 L184.9249 278.2555 L186.079 276.2144 L186.4851 276.4271 L185.5503 277.7439 L185.4086 278.401 L184.9931 279.2904 L184.8774 279.9422 L185.192 280.0408 L185.465 280.2515 L185.8572 279.5977 L185.9776 278.6718 L187.4154 279.3386 L186.4881 282.7219 L186.5924 284.0537 L186.6395 284.7532 L187.1368 285.5147 L188.3117 286.9985 L190.7191 292.8475 L189.7579 293.881 L189.1664 295.0751 L189.6896 297.0423 L190.7674 298.7055 L190.2357 299.5328 L189.9741 300.0444 L190.3722 302.3757 L189.724 303.1495 L188.6093 303.4105 L187.7109 302.501 L188.0976 300.3517 L188.0976 299.0324 L188.8255 298.4073 L189.1516 297.6524 L188.0632 295.1097 L186.8065 289.9282 L185.5901 290.1853 L185.7139 291.5862 L185.4112 292.5669 L185.5049 292.9186 L185.5787 294.4539 L185.4421 295.4379 L184.8452 297.7914 L184.8621 299.3723 L185.0529 301.827 L184.4928 301.9424 L184.1074 302.1388 L184.0354 301.641 L185.0898 295.6264 L185.1805 294.8023 L185.0101 293.9437 L183.7534 292.0671 L183.951 290.5481 L183.8102 283.5552 L183.4842 282.8146 M189.5268 351.7784 L191.6382 348.8427 L194.9623 345.1503 L219.3584 348.9275 L218.9556 345.6917 L221.8514 345.1307 L222.8181 347.3618 L223.8696 347.0487 L228.1137 340.8445 L225.5952 338.6785 L224.1113 337.1845 L228.8429 335.1686 L262.414 330.3603 L262.9398 330.2037 L263.5291 330.1646 L263.1263 334.2422 L257.0422 334.2422 L256.4613 341.2555 L252.302 346.5203 L251.8144 351.6479 L249.3256 356.7495 L251.4625 357.4083 L249.4359 359.2741 L245.6073 362.4119 L244.8526 359.8808 L242.8768 358.3804 L242.3341 355.9471 L243.9792 355.1903 L242.5419 351.0412 L243.2389 349.9909 L237.4117 346.4681 L234.2445 344.3152 L230.5431 345.0328 L221.3299 353.0766 L218.5443 358.9349 L207.5334 360.5005 L203.6752 357.5649 L204.6249 355.8557 L204.8963 355.3534 L206.694 351.113 L202.9205 350.702 L196.2724 351.237 L193.5335 358.0738 L192.3293 356.6712 L189.5268 351.7784 M196.1037 291.288 L196.8923 290.0241 L196.5425 289.0911 L197.3888 288.5018 L197.4935 287.3117 L198.5526 287.6647 L200.6738 287.6419 L201.4582 287.2784 L204.3196 288.7348 L206.5417 289.371 L205.9049 291.0766 L204.4718 290.6447 L203.676 291.4629 L202.0288 291.3291 L200.8748 293.2103 L199.2411 292.8553 L197.0021 291.9249 L196.1037 291.288 M207.9303 374.216 L210.8278 373.2864 L212.5823 372.9635 L213.5087 373.5023 L214.3024 375.2003 L214.3787 375.4482 L212.7934 376.2571 L209.9578 376.5069 L208.7337 376.9081 L207.9303 374.216 M212.7976 302.884 L216.7962 296.1373 L222.3331 297.1154 L222.7227 294.9674 L222.7791 294.0552 L222.7011 293.4439 L222.4463 292.1761 L222.0341 291.4172 L221.9078 290.4267 L221.7848 289.4127 L221.7234 288.4979 L224.2223 289.0774 L224.7265 290.2231 L225.0165 291.1993 L225.203 291.7304 L225.6092 291.9425 L226.0005 292.4625 L226.1044 292.7829 L225.8738 292.8325 L225.4019 292.8736 L224.3639 293.2997 L225.9306 295.46 L226.9621 294.9642 L227.2068 294.8722 L227.4853 295.1716 L227.9835 295.4346 L228.4363 295.507 L228.7696 295.832 L228.3609 296.1321 L227.6651 296.6404 L227.0562 297.1408 L226.6251 297.655 L225.8534 298.2403 L225.1559 298.5952 L224.5136 298.6337 L223.8399 298.7218 L223.0755 298.9117 L222.3259 298.8001 L222.0248 298.7146 L221.7933 298.481 L221.7586 298.0778 L221.2689 298.1783 L220.5977 300.0548 L220.8932 301.6925 L221.5271 301.8511 L225.0241 300.5762 L228.4503 301.2476 L229.4615 300.6473 L230.3264 299.5126 L230.3934 299.1296 L230.5656 298.8145 L231.001 298.8236 L231.0756 299.0761 L231.0091 300.3693 L230.8963 300.7282 L230.5172 301.2926 L229.8266 301.8028 L229.3602 302.0677 L227.657 304.4629 L226.1578 305.3333 L226.1608 305.6256 L225.9768 306.2559 L225.9658 306.4301 L226.0442 306.5835 L226.0705 306.7192 L226.0366 306.8242 L225.9933 307.0023 L225.939 307.3142 L225.4786 308.15 L225.3841 308.5037 L225.1424 308.899 L225.0241 309.2553 L224.891 309.6598 L224.7451 310.1302 L224.4203 310.5276 L223.8467 310.8538 L223.1437 311.0541 L222.2436 311.0326 L221.9684 310.9093 L221.7255 310.6378 L221.4923 310.1557 L221.6229 309.4902 L221.7649 308.8247 L221.8154 308.1839 L225.5579 307.5941 L225.4722 307.354 L221.7658 307.8825 L221.6242 307.6966 L221.6 307.5498 L221.6297 307.3645 L221.7352 307.1902 L222.1172 307.0565 L222.5408 306.7962 L222.5913 306.7492 L222.9054 306.4582 L223.0169 306.2729 L223.0004 306.0798 L222.9271 305.8918 L222.6858 305.867 L222.3848 306.0765 L222.0426 306.3342 L221.4885 306.5756 L221.1696 306.5561 L220.8949 306.5032 L217.3873 305.3588 L215.0397 304.0558 L212.7976 302.884 M213.6032 45.4917 L213.7198 44.059 L215.1995 44.1694 L215.0452 45.3951 L219.0807 45.6746 L218.8365 48.7097 L214.7857 48.4113 L213.7508 46.1055 L213.6032 45.4917 M215.551 370.6119 L217.0604 370.6119 L218.0864 369.2224 L218.3875 368.981 L221.5589 370.7749 L220.6855 374.441 L216.4541 374.852 L215.7757 372.3666 L215.551 370.6119 M217.2804 459.9306 L217.6599 458.4796 L218.2916 458.5246 L218.906 456.529 L219.3749 456.182 L219.8129 455.8201 L220.2797 455.9205 L220.6592 456.3059 L221.0865 456.4983 L221.8845 456.7644 L222.4064 456.7598 L223.2332 456.6177 L223.7169 456.6463 L224.2609 456.8935 L224.495 457.7028 L224.3377 459.2765 L223.8174 460.4575 L223.5732 461.0053 L223.0691 461.049 L221.0073 460.6851 L219.6174 460.5514 L218.4036 460.2273 L217.2804 459.9306 M221.5758 375.3543 L222.2245 372.9668 L225.5189 371.486 L227.1343 368.7005 L227.7236 369.2419 L228.3172 370.2139 L224.3953 375.8957 L222.4747 375.5761 L221.5758 375.3543 M221.9532 438.33 L223.0979 437.1821 L223.3226 437.3908 L225.4298 439.8822 L230.8441 444.1605 L230.3057 447.4149 L228.4529 447.1345 L225.557 444.4931 L226.4432 443.4627 L221.9532 438.33 M225.2645 350.9108 L228.6988 348.51 L228.8048 348.4578 L230.4117 349.9387 L226.7908 352.6983 L225.2645 350.9108 M225.9471 455.2475 L228.8599 451.2497 L228.9362 451.178 L231.3953 452.3127 L231.0858 453.6105 L233.405 454.5953 L232.4977 456.5583 L230.4965 458.6843 L225.9471 455.2475 M230.6347 312.434 L230.6499 311.9565 L230.9616 311.1468 L230.8055 310.8943 L231.7951 309.1254 L232.5117 308.5454 L233.8078 306.9436 L234.3195 307.2835 L234.5985 307.2777 L234.7406 306.9534 L234.9636 305.0038 L237.6966 304.2783 L238.3317 303.3603 L238.6671 302.7332 L238.8235 302.0723 L239.1805 301.0603 L240.0014 299.9035 L240.3054 299.0148 L240.5971 298.3506 L241.2945 297.2361 L242.0221 296.4707 L243.029 295.2656 L243.4835 294.651 L243.9851 294.3332 L244.287 293.96 L244.7118 293.5757 L245.1799 293.0817 L246.086 292.2844 L246.5964 291.7304 L246.9772 290.9944 L247.7306 290.1625 L248.3581 289.3416 L248.7486 289.185 L249.5597 289.262 L250.088 289.4636 L250.3568 290.0626 L250.4157 290.3765 L250.336 290.9265 L249.9552 291.6619 L248.8207 293.2298 L247.1383 295.8026 L246.8546 296.1576 L246.5104 296.7937 L246.2492 297.6361 L246.0139 298.2501 L245.8685 298.8106 L245.8502 299.2679 L245.7196 300.3295 L245.8557 300.5018 L246.2721 300.5657 L247.2914 300.5364 L249.0488 300.8254 L250.6536 301.2515 L251.312 301.3298 L251.7568 301.4498 L252.1511 301.7336 L252.5555 301.793 L252.7353 302.2002 L253.0652 302.3196 L253.4726 302.2139 L253.5926 302.2798 L253.9081 302.2876 L254.2248 302.2191 L254.8641 302.1401 L257.6391 302.0462 L258.3018 301.9653 L258.5312 301.6984 L258.5732 301.3709 L258.5486 300.9487 L259.3431 301.1086 L260.688 301.6769 L260.9271 301.8165 L260.9369 301.9294 L260.8131 302.0775 L260.3509 302.0997 L260.0202 302.2817 L259.5606 302.4683 L258.7356 302.9114 L258.2988 303.3609 L257.813 303.5156 L256.809 303.5142 L253.4985 303.466 L252.2465 303.6513 L252.0565 304.5804 L252.662 304.4512 L254.5322 304.489 L255.3271 304.3788 L256.3553 304.1778 L256.8157 304.0023 L257.1757 304.0238 L257.4191 304.3214 L257.4377 304.5399 L257.2474 304.8642 L256.6025 305.1395 L255.8156 305.5434 L255.2843 305.7189 L254.8998 305.8879 L254.0094 306.1182 L253.3509 305.9049 L252.7031 306.0197 L252.3915 306.0112 L252.026 306.0667 L251.5944 305.963 L251.7105 307.6489 L252.567 307.433 L252.8786 307.4414 L253.1941 307.5556 L253.4001 307.6731 L253.5494 307.66 L253.8012 307.585 L254.1192 307.799 L254.5593 308.4084 L254.6343 308.732 L254.5148 308.9127 L254.4838 310.4584 L254.07 310.7651 L251.627 311.5134 L250.1265 311.8142 L248.5345 312.0804 L247.7293 312.1835 L244.655 312.4119 L244.0207 312.2331 L243.4335 311.7594 L243.1613 311.6655 L242.8073 311.6485 L242.3269 311.5904 L242.2141 311.5558 L242.0831 311.9623 L243.3839 312.205 L243.3551 312.7551 L243.1028 313.1661 L242.7038 313.4421 L242.2731 313.5504 L241.766 313.4584 L241.4429 313.322 L240.1324 313.583 L238.5178 314.2988 L237.7326 314.4168 L237.1857 314.2864 L236.9652 314.1924 L236.035 313.9588 L235.4495 313.7259 L234.975 313.4812 L234.1033 313.5967 L233.1353 313.6078 L232.6876 313.8642 L230.6474 313.3468 L230.6508 313.0976 L230.7589 312.6226 L230.6347 312.434 M234.0283 426.662 L235.3129 424.1705 L235.3129 422.1421 L235.5207 422.1421 L238.4335 424.1966 L239.0482 428.3643 L242.8556 432.7145 L241.8253 434.2668 L239.68 436.1647 L236.3305 432.9754 L234.3208 430.7318 L235.9447 429.46 L235.4189 428.2729 L234.0283 426.662 M235.7115 466.0666 L235.7793 462.9037 L246.4468 458.9387 L246.345 456.3953 L243.2881 456.6692 L242.7454 453.5192 L240.193 450.9497 L236.6442 451.8497 L236.5086 450.128 L236.3729 447.7149 L240.4516 446.1366 L249.9065 448.9475 L265.4498 449.8606 L264.5848 448.6932 L266.7811 445.5106 L280.179 443.6649 L281.1754 442.0344 L282.4176 442.0344 L285.9664 444.7149 L285.9706 447.154 L283.9652 449.3649 L284.9743 449.7367 L284.0585 450.8453 L283.9355 453.9627 L280.6793 456.167 L281.54 457.9148 L279.6829 459.18 L267.7308 462.4407 L265.9458 462.0886 L270.2323 458.1496 L265.4413 458.8539 L263.5461 457.9865 L262.944 460.7908 L259.8956 460.6995 L257.3686 465.5254 L251.488 466.1645 L247.0064 463.882 L235.7115 466.0666 M242.5508 55.0247 L242.6106 54.4892 L242.5788 53.85 L242.8361 53.8389 L242.9146 53.8617 L242.9438 54.2013 L243.386 54.422 L244.7619 54.531 L245.1846 54.5604 L245.38 54.4435 L245.4432 54.2196 L245.4525 53.9891 L245.6119 53.9283 L245.8078 53.882 L246.0508 53.9074 L246.2568 53.978 L246.4124 54.1477 L246.3972 55.0619 L246.2352 56.1132 L246.1597 56.5324 L246.3471 56.9268 L246.9076 57.2278 L248.0944 56.584 L248.5175 58.0734 L248.774 58.3438 L249.1811 59.7046 L251.1233 61.826 L251.7665 62.7252 L252.3469 63.6648 L252.5356 64.0278 L252.7239 64.5326 L253.03 65.2482 L253.306 65.8248 L252.1884 66.7369 L252.1511 68.003 L254.3961 71.2998 L255.4857 73.7731 L256.5177 75.5733 L257.1303 74.9308 L258.4154 76.5448 L257.7879 76.7688 L259.3787 78.9026 L259.8981 78.4507 L261.2082 79.9577 L260.3429 80.7099 L260.6469 81.5019 L257.0171 79.564 L254.8709 78.8092 L253.8996 78.4076 L253.1038 78.0662 L251.8704 77.4694 L251.2535 77.1331 L250.7757 76.9607 L249.594 76.4854 L249.1204 76.3809 L248.6032 76.1446 L250.7977 73.5831 L250.5916 73.3069 L249.7093 72.635 L248.7969 71.8985 L247.6123 70.8597 L246.8322 72.494 L245.2321 71.0451 L244.4197 69.9122 L244.9705 68.0938 L245.0099 67.5904 L245.0222 67.433 L244.9331 66.861 L247.0052 68.0109 L247.7094 66.4516 L247.1548 65.2906 L246.136 63.796 L245.6327 63.5616 L245.5195 63.2064 L245.0993 62.4235 L244.6554 61.843 L244.2713 61.3402 L244.0457 60.7708 L243.9953 60.2504 L244.0758 59.4832 L244.1598 58.5266 L243.749 57.7567 L243.1282 57.5517 L242.9311 56.9777 L242.8098 56.3228 L242.6835 55.8148 L242.5508 55.0247 M243.1185 474.0226 L247.5661 473.7487 L247.7399 473.7357 L247.5576 478.0658 L243.6188 479.8852 L243.2499 475.7181 L243.1185 474.0226 M256.6182 341.2163 L258.454 339.9507 L258.1996 338.1566 L265.7338 334.8032 L268.8544 334.7706 L271.9749 334.7315 L271.0294 338.8481 L270.1132 342.9021 L270.0797 343.0496 L281.116 346.8465 L285.3431 346.4094 L284.9488 350.0627 L284.58 352.1829 L283.0112 352.209 L284.4825 364.3494 L276.8931 364.4211 L272.9797 360.4483 L272.8568 361.3942 L267.9682 361.316 L269.202 359.2806 L272.4837 359.3067 L272.0088 357.0104 L265.2293 354.3618 L264.9452 352.0198 L263.7708 352.0198 L263.5079 349.0906 L265.2293 349.0906 L263.6775 346.168 L265.4286 345.0915 L265.0258 341.7056 L256.6182 341.2163 M258.5168 304.797 L258.7101 304.521 L259.0319 304.3696 L259.2884 304.076 L260.0592 303.6206 L260.5248 303.5684 L260.8754 303.5501 L261.2159 303.4144 L261.4652 303.2396 L261.773 303.1306 L261.9807 303.0888 L262.1711 303.1195 L262.3445 303.2219 L262.5217 303.3714 L262.7961 303.3537 L263.0004 303.2715 L263.2828 303.2761 L263.7186 303.3622 L264.1375 303.3139 L264.7451 303.2787 L265.1682 303.3479 L265.7576 303.509 L266.115 303.5723 L266.3554 303.6336 L266.5487 303.8353 L266.8786 303.9827 L267.116 304.0095 L267.3513 304.0186 L267.5044 304.0232 L267.5994 304.168 L267.4701 304.3735 L267.37 304.506 L267.0139 304.6659 L266.3609 304.7879 L265.518 304.8192 L264.7828 304.9418 L264.1134 304.9412 L262.9686 305.0821 L262.2589 305.2257 L261.2337 305.3209 L260.3713 305.3953 L259.7251 305.4632 L259.2015 305.5206 L258.8594 305.5682 L258.6385 305.5408 L258.521 305.1852 L258.5168 304.797 M270.926 282.643 L273.1332 281.4711 L274.3903 280.9654 L277.0445 282.9908 L277.0029 288.7557 L275.2621 290.2721 L274.2517 290.4861 L273.5788 288.8986 L270.926 282.643 M279.9208 95.7529 L279.9356 94.7906 L279.9518 93.9653 L281.2157 93.345 L282.4253 93.2138 L282.5448 94.4432 L282.6381 95.3866 L281.4251 95.6857 L279.9208 95.7529 M287.2511 443.5997 L288.4128 442.3866 L288.9428 442.5627 L289.3456 442.6996 L292.4576 442.4388 L292.0972 444.591 L288.0397 446.2736 L287.2511 443.5997 M293.0787 374.1462 L294.5559 370.5518 L297.5866 372.122 L295.4586 375.3575 L293.0787 374.1462 M303.6517 65.354 L303.9629 64.4607 L304.2219 64.1969 L303.954 63.8763 L304.6743 60.1035 L304.8617 59.8221 L304.9745 59.8632 L305.3713 60.0075 L305.4303 59.7372 L305.2988 59.5929 L305.281 59.5733 L305.0487 59.399 L304.9147 59.0039 L304.9283 58.4136 L305.2628 56.9053 L305.4922 55.6124 L305.7932 55.4217 L306.143 55.391 L306.5271 55.596 L306.5988 55.6346 L308.0904 57.2559 L308.2769 57.476 L309.1889 58.4802 L309.1999 58.8152 L308.9973 59.0006 L308.9438 59.0496 L309.1041 59.4074 L309.9491 59.8214 L310.0861 59.9076 L311.0218 60.3843 L311.3054 60.6076 L311.2308 61.2442 L310.9213 61.4715 L310.7004 62.5221 L310.5096 62.5561 L310.2654 62.3798 L310.1933 62.2975 L309.6137 61.922 L308.8107 61.5087 L308.3108 61.2077 L307.0495 60.5965 L305.6847 59.8221 L305.6016 59.9932 L305.6011 60.0911 L305.7169 60.1962 L306.8146 60.8133 L307.473 61.16 L307.6096 61.2397 L307.8381 61.4127 L308.6072 61.8959 L309.6917 62.6155 L310.2633 62.8368 L310.4269 62.893 L310.6003 62.9961 L310.806 63.3376 L310.9472 63.6152 L311.1596 64.0317 L311.1973 64.1297 L311.3712 64.5796 L311.1876 65.13 L310.6928 66.8009 L310.4019 67.038 L310.1407 67.0784 L309.5993 66.8819 L309.353 66.7924 L309.328 66.7833 L309.3178 66.7774 L308.014 66.0605 L307.6579 65.7438 L306.7586 65.2678 L304.6989 64.3439 L304.6692 64.3928 L304.5603 64.5744 L305.733 65.162 L308.1039 66.4888 L309.8219 67.401 L310.0017 67.5799 L309.9525 67.8254 L309.2385 69.7027 L308.7675 69.4441 L307.8385 68.9341 L307.6897 68.6403 L307.6719 68.0233 L307.6799 67.2267 L307.2644 66.974 L306.8896 66.989 L306.4953 67.0523 L306.199 67.2254 L305.9119 66.8969 L305.6071 66.6991 L305.2882 66.6148 L305.0216 66.7265 L304.8066 66.4797 L304.4513 66.5162 L304.1766 66.3282 L303.9438 66.0833 L303.77 65.7033 L303.6517 65.354 M336.0619 101.0805 L336.3171 99.5299 L337.6285 99.4026 L342.2835 100.3506 L343.0089 101.8933 L343.5257 104.0048 L344.3775 104.954 L344.7104 104.9312 L345.0059 106.1475 L344.6527 108.4188 L343.1976 108.3542 L341.2176 106.6593 L339.737 106.0776 L337.3839 105.8132 L336.0619 101.0805 M365.9384 388.1591 L368.2237 384.1475 L369.5041 372.2883 L368.1262 372.0796 L369.6949 367.5654 L370.1995 365.6802 L376.7204 365.067 L378.2085 367.6763 L380.9984 368.3026 L380.7949 366.6717 L387.5235 367.6241 L386.6586 365.8172 L390.2328 362.6663 L390.5974 362.7185 L391.5429 363.0121 L390.4405 367.9568 L393.9002 367.7677 L394.3751 370.6249 L391.8057 374.0366 L389.7494 371.6556 L387.8584 370.5401 L385.9717 369.4246 L379.4678 373.6843 L379.0184 376.0653 L380.9475 377.0308 L381.6259 385.7 L380.4938 387.4677 L379.3618 389.242 L382.3297 388.5766 L385.0135 391.0879 L379.7349 394.6494 L374.999 398.4261 L369.2752 394.7473 L368.9156 394.123 L368.7367 393.4297 L365.9384 388.1591 M383.9323 385.6869 L386.3067 384.0823 L386.4339 384.0105 L388.1256 385.9609 L388.0238 389.692 L383.9323 385.6869 M386.9494 306.1091 L388.3617 304.2776 L392.0631 302.056 L392.4667 300.9716 L396.7316 300.7836 L397.064 297.901 L400.2969 299.4389 L399.6719 301.9731 L398.9083 302.4592 L398.2719 303.9168 L397.4617 303.6858 L397.6377 305.8775 L397.0284 306.162 L396.9211 307.0611 L394.7329 307.7514 L394.7808 308.3229 L393.8159 310.215 L393.5682 309.6624 L394.0749 308.5069 L394.0995 307.5413 L393.4296 306.759 L392.1598 307.0571 L389.2093 308.0724 L387.9119 307.874 L386.9494 306.1091 M404.6228 332.97 L408.6125 332.0305 L408.9093 332.0436 L422.2903 335.821 L421.2049 339.9507 L415.4768 342.2341 L404.6228 332.97 M411.5126 263.435 L414.3109 259.4544 L414.4465 259.3827 L416.1891 263.6112 L418.9705 264.7532 L421.048 271.0372 L430.6046 277.0796 L428.544 270.3846 L424.2279 263.3698 L426.0722 263.05 L430.0873 262.9587 L432.0885 268.1791 L436.6633 272.3553 L438.6137 280.3226 L435.8578 280.8447 L442.9595 285.3078 L443.0867 289.771 L438.7366 290.3713 L424.6222 285.0077 L425.0334 283.1872 L426.2757 283.9115 L426.776 282.4825 L424.2448 280.8447 L421.9468 272.7468 L420.289 273.954 L418.7033 275.1612 L419.5174 277.1905 L418.1649 278.215 L416.8166 279.2395 L416.5241 275.3569 L415.7482 275.3569 L413.853 274.0454 L413.5307 269.3863 L414.9129 269.8104 L413.5731 263.2327 L411.5126 263.435 M414.5343 384.6171 L415.5803 379.1749 L417.3106 380.4724 L418.3692 379.8912 L417.7282 375.9936 L419.4284 377.3504 L426.3351 380.7229 L427.5731 382.6446 L435.7581 385.1494 L436.3547 383.8813 L437.1229 383.6811 L438.4649 384.1468 L439.0402 384.4756 L438.8426 385.803 L438.4649 388.529 L436.7354 394.2581 L432.6779 394.0232 L426.9337 391.9757 L426.7849 392.9078 L428.1815 393.264 L430.4808 394.4335 L431.018 395.7616 L430.1581 396.755 L424.4136 394.5392 L423.8912 393.5849 L419.9791 391.6476 L417.679 388.5871 L416.4134 385.2179 L414.9994 386.4958 L414.5343 384.6171 M418.6101 372.8624 L419.5513 366.6978 L419.8099 366.7109 L423.6682 367.9895 L427.2721 368.0156 L428.8875 370.1487 L428.8578 373.319 L418.6101 372.8624 M422.2903 343.5454 L426.9795 344.4457 L429.3114 343.3105 L429.6718 343.2714 L429.392 346.8008 L423.6173 346.442 L422.2903 343.5454 M427.8614 355.3795 L428.5101 353.6507 L431.6646 353.3311 L431.3975 354.9555 L437.2357 354.3096 L438.4017 353.5724 L438.4017 352.346 L439.0885 352.359 L438.5543 354.0813 L436.0655 355.0337 L442.9595 356.619 L442.8154 359.7307 L436.9389 364.8517 L437.3417 366.3717 L434.1958 365.9737 L430.1255 361.1072 L429.7524 357.9759 L429.5616 357.8063 L427.8614 355.3795 M432.3938 296.2502 L434.1788 296.446 L436.8117 297.4508 L447.8735 297.5421 L448.5985 301.7441 L448.8614 304.3801 L448.3823 305.9917 L443.6379 301.7832 L435.5991 299.7214 L432.3938 296.2502 M444.5452 350.2258 L449.5228 349.8148 L449.7942 349.8017 L451.3332 349.7365 L451.3332 355.2816 L446.6863 355.2816 L444.5452 350.2258" stroke-dasharray="" fill="none" fill-opacity="1.0" stroke="#ff0000" stroke-opacity="1.0" stroke-width="1.0px" stroke-linecap="butt" stroke-linejoin="miter" stroke-dashoffset="0.0px"/>
</g>
</svg>