<?xml version="1.0" standalone="no"?>
<!DOCTYPE svg PUBLIC "-//W3C//DTD SVG 1.1//EN" "http://www.w3.org/Graphics/SVG/1.1/DTD/svg11.dtd">
<svg width="512px" height="512px" version="1.1" xmlns="http://www.w3.org/2000/svg" xmlns:inkscape="http://www.inkscape.org/namespaces/inkscape">
<g id="layer" inkscape:groupmode="layer" inkscape:label="layer">
<path d="M126.9387 85.6912 L127.7369 87.7851 L132.224 91.9686 L134.7595 99.9061 L135.4618 106.1832 L138.1806 107.8433 L141.7003 114.4224 L145.0904 116.1613 L145.488 118.5134 L144.4304 118.7849 L142.7749 123.3313 L136.1104 125.3592 L135.9638 125.8953 L136.0608 126.3434 L136.1697 126.4402 L136.3146 126.7183 L137.1585 127.2019 L137.2575 127.2119 L137.6472 127.4817 L138.1244 127.6092 L139.0472 127.7765 L140.1934 127.854 L141.2384 127.9837 L141.4975 128.2373 L142.0988 128.9437 L142.1908 129.0169 L142.4553 129.118 L142.9342 129.2324 L143.7084 129.3874 L144.3162 129.5311 L145.054 129.4859 L145.5695 129.941 L146.1683 130.4118 L146.527 130.834 L147.009 131.4621 L147.308 132.1524 L147.8097 133.7834 L147.9767 134.8494 L148.0842 135.3588 L148.1186 135.756 L148.0644 136.2986 L148.0495 136.787 L148.3168 137.5919 L148.6369 138.0014 L148.8203 138.1201 L149.1144 138.1289 L149.6303 137.9187 L149.7403 137.92 L149.8942 137.9695 L150.0116 138.135 L150.0733 138.3658 L150.1836 138.5147 L156.1091 137.4124 L156.161 137.3879 L156.3311 137.2057 L156.46 137.1137 L156.6295 137.055 L156.788 137.062 L157.1002 137.1921 L157.8803 137.2687 L158.8028 137.21 L159.2501 137.0611 L160.1301 136.9705 L160.3439 136.9127 L160.6612 136.9346 L161.0027 137.0086 L161.8274 137.2814 L162.425 137.5381 L163.3114 137.9445 L164.1671 138.4079 L164.5921 138.5839 L165.0851 138.686 L165.595 138.8209 L165.9608 138.9987 L166.1411 139.3131 L166.3436 140.3016 L166.3627 140.4602 L167.732 143.3204 L167.7656 143.3511 L168.1376 143.5626 L168.3593 143.7549 L168.588 144.0777 L168.7228 144.3553 L168.7727 144.6746 L168.7685 145.233 L168.7231 145.3906 L168.8348 145.6241 L167.8956 149.1758 L161.4229 151.9523 L161.4229 153.1273 L161.5673 153.2657 L162.6362 153.944 L162.7118 154.0369 L165.8136 157.2683 L165.8909 157.3314 L166.9364 158.0365 L167.6372 158.4008 L168.7442 158.6995 L169.0367 158.7533 L170.3546 158.9018 L171.0411 159.0472 L171.7163 159.2723 L171.6306 159.387 L173.9855 161.1978 L174.0921 161.1474 L174.2473 161.3992 L174.326 161.4597 L174.3888 161.6291 L174.9839 162.4542 L175.6958 163.9803 L175.8094 164.3074 L176.2167 165.4806 L176.3715 166.3428 L176.6668 167.0474 L176.3651 170.8746 L177.3099 174.7368 L179.9666 179.8688 L182.928 179.9651 L184.7564 179.0373 L185.374 178.6134 L186.8257 177.8681 L188.2474 177.1829 L189.8623 176.5689 L191.0119 175.9077 L191.7528 175.4239 L193.2383 173.9946 L194.0189 173.294 L194.5334 172.695 L194.9691 172.2592 L194.8495 170.8746 L190.3624 164.1222 L190.3494 163.0668 L190.1537 162.5514 L190.0383 161.9917 L190.249 160.3403 L190.3325 160.2028 L190.3313 160.0145 L190.5248 159.8862 L190.6156 159.7369 L191.1924 159.2556 L191.5974 159.0244 L191.9976 158.7384 L192.4356 158.3864 L192.4889 158.3885 L192.9165 157.9327 L193.9761 157.3099 L195.5797 156.5331 L196.5366 155.8617 L197.8222 154.7577 L198.4215 154.1376 L198.6936 153.5464 L197.2581 148.3481 L197.812 147.4017 L197.7861 147.3062 L197.8656 146.4754 L198.3442 145.5124 L198.6714 145.1896 L199.0597 144.6987 L199.4094 144.3925 L199.6238 144.3067 L199.6525 144.2577 L202.4447 142.4489 L202.5575 138.8664 L202.8415 138.4263 L202.8669 138.3369 L203.1269 137.8819 L203.2005 137.8696 L203.667 137.1461 L203.6653 136.9105 L203.911 136.3192 L204.1862 135.8177 L204.5015 135.5839 L204.7994 135.6456 L204.8868 135.7472 L205.0518 136.2434 L204.8606 136.5991 L205.344 137.1146 L205.5668 137.0839 L205.7642 137.2635 L205.8435 137.0878 L206.0361 136.9219 L206.1636 136.7186 L206.1221 136.5299 L206.1309 136.4677 L206.658 135.788 L207.0517 135.3833 L207.5038 135.1209 L207.7796 135.3088 L207.9119 135.4433 L207.9974 135.5576 L208.0498 135.7166 L207.4353 137.0489 L207.1363 137.6537 L207.0142 138.474 L207.1033 139.6797 L207.1019 140.2819 L206.9535 140.9349 L206.6498 141.7359 L206.4025 141.9891 L205.3017 144.7701 L202.3883 146.2065 L200.9189 149.1101 L201.1896 153.0734 L199.5059 157.4921 L193.2589 162.2873 L194.4321 164.4725 L196.7927 166.5876 L197.3991 171.7854 L193.2899 178.0341 L183.0633 187.2732 L182.5991 187.3805 L182.4857 187.7018 L183.6725 187.641 L182.8631 190.1981 L184.1858 197.1642 L184.4555 203.6945 L184.555 206.0746 L184.6258 206.6477 L184.8371 207.8398 L184.9059 208.458 L184.9981 208.9615 L185.279 210.0819 L185.475 210.9562 L185.4008 210.9724 L185.3927 211.1103 L187.542 222.8202 L186.3519 228.9053 L188.1935 227.9203 L188.1343 236.3649 L188.6307 239.74 L185.9598 240.5936 L184.5212 240.1256 L183.5702 240.8992 L183.1367 241.9401 L183.492 243.4096 L182.7334 248.2208 L178.7849 248.0352 L178.2462 247.8383 L176.5286 247.9871 L173.6914 248.0703 L165.1006 249.7687 L162.1195 248.7706 L160.4161 249.3266 L159.7307 251.2613 L155.0772 251.2569 L154.6598 249.9219 L151.673 249.9481 L150.9522 250.1955 L149.4405 250.1499 L148.7867 250.216 L147.218 250.2957 L147.0471 250.2944 L146.9151 250.2633 L146.6737 250.1539 L146.212 250.1552 L145.2737 250.666 L144.6332 251.1169 L144.4203 251.285 L144.5235 252.2024 L145.4119 252.6354 L147.315 255.4508 L147.4442 255.4709 L147.6707 255.5466 L147.8075 255.6329 L147.8972 255.7502 L148.1011 256.3157 L148.1547 256.5819 L148.2071 257.02 L148.2178 257.4682 L148.1504 258.18 L148.061 258.9271 L147.9665 259.3644 L147.8382 259.8148 L147.77 259.961 L147.6916 260.0691 L147.3853 260.2446 L147.3173 260.3191 L147.1735 260.6167 L147.1416 260.769 L147.1323 261.0653 L147.1543 261.2571 L147.2333 261.4558 L147.3954 261.7053 L147.524 261.953 L147.9959 262.5956 L148.3687 262.6634 L148.8189 262.6525 L149.0701 262.6844 L149.2295 262.7628 L149.3144 262.8359 L149.4441 262.8595 L153.5844 262.9978 L154.5272 263.0359 L155.6601 263.2355 L158.7481 262.6674 L161.9297 262.2235 L162.0121 262.1973 L162.1593 262.1741 L162.196 262.1868 L162.2482 262.1793 L162.3079 262.2861 L162.3683 262.392 L162.4092 262.501 L162.6402 262.9475 L163.5531 267.8353 L163.5994 268.0117 L163.5935 268.0519 L163.6736 268.4809 L151.032 270.2115 L150.3046 270.535 L150.15 271.6804 L149.9673 272.7291 L149.8855 272.993 L149.6751 273.4762 L149.445 273.8833 L149.4128 273.9962 L149.7281 274.9796 L151.4082 275.3718 L151.5436 275.4191 L151.9195 275.4055 L152.0411 275.4462 L152.1387 275.5106 L152.2018 275.5841 L152.2704 275.7167 L152.2802 275.7723 L153.0358 276.8271 L153.2933 276.9846 L154.6118 277.4705 L155.3282 277.5142 L155.5064 277.5615 L155.7005 277.6346 L155.9405 277.7519 L156.6041 277.604 L157.5802 276.6678 L157.6959 276.6389 L157.7356 276.6012 L157.8465 276.5483 L158.0165 276.4936 L158.2893 276.4586 L158.6099 276.452 L158.791 276.4673 L159.0059 276.5212 L159.1633 276.6117 L159.1765 276.6253 L159.3003 276.6437 L160.1848 277.639 L161.2184 278.6784 L161.3513 278.7664 L164.4082 278.8119 L167.3524 278.8999 L167.8953 278.9025 L169.1126 278.892 L169.3402 280.5079 L169.4465 280.9736 L169.8083 282.3238 L177.0394 281.9159 L177.4283 281.7964 L177.7916 281.7312 L178.339 281.701 L178.5531 281.6472 L178.7395 281.578 L182.9046 275.8357 L183.1037 275.6913 L183.1733 275.6068 L183.617 275.2186 L183.9455 275.0077 L184.4535 274.7761 L184.7866 274.696 L185.3532 274.6816 L185.6967 274.6037 L186.1874 274.7293 L186.4765 274.7569 L187.3962 274.9232 L188.0204 275.1994 L189.0123 275.4537 L189.0408 275.4598 L189.2173 275.469 L189.4892 275.4545 L190.0603 275.3727 L190.7832 275.3464 L191.0031 275.3556 L191.1473 275.3889 L191.3145 275.5005 L191.3216 275.5211 L191.5864 275.5276 L191.4459 276.4179 L191.4792 276.7404 L191.7009 277.116 L192.1361 277.4201 L192.3713 277.3751 L192.6217 277.2254 L193.4309 276.6568 L194.1261 276.9343 L194.6933 277.1098 L195.1679 277.3501 L195.5199 277.4849 L195.6623 277.5151 L195.9399 277.5112 L196.4286 277.4368 L196.7279 277.4792 L197.2609 277.4438 L198.0904 278.1125 L198.413 278.2898 L198.5662 278.3292 L198.7134 278.306 L198.8899 278.2666 L199.2117 278.0885 L200.8202 277.6495 L201.3882 277.5274 L201.475 277.5589 L204.3106 277.5554 L207.5579 279.2391 L207.4291 280.9731 L207.4812 281.0375 L208.9613 281.2918 L210.9533 283.8359 L210.955 283.9375 L210.9725 283.9558 L211.076 284.2622 L211.0208 284.4937 L210.9658 284.5515 L210.9677 284.6574 L205.7924 289.139 L205.5386 289.1057 L205.368 289.1661 L204.9951 289.1688 L204.47 289.0882 L203.8106 289.1639 L203.3317 288.9206 L202.9543 288.767 L202.0464 288.6479 L201.869 288.6602 L201.7201 288.6479 L201.6107 288.8366 L201.4725 288.9696 L201.3924 289.0243 L200.9076 289.581 L201.1073 289.6397 L202.692 289.7578 L203.0883 289.855 L203.3274 289.9605 L203.5393 290.1224 L203.625 290.3802 L204.0918 290.5176 L204.6333 291.6682 L205.8412 291.9561 L207.3453 292.196 L207.6321 292.5553 L207.7294 292.5868 L207.9144 292.8047 L208.0509 293.0796 L208.1096 293.1526 L208.6029 293.6524 L208.9123 294.1575 L209.4631 294.7837 L210.1975 295.2656 L210.5139 295.4349 L210.9274 295.2586 L211.6844 295.4783 L212.0493 295.7794 L212.5217 296.2109 L213.6093 297.0958 L214.5185 297.3986 L216.1428 298.2629 L217.4779 299.0804 L217.4742 299.1373 L217.6942 299.2485 L220.3253 301.16 L220.9074 301.4966 L221.2648 301.5985 L221.4416 301.8055 L221.9969 302.1267 L222.1879 302.4073 L222.2857 302.6269 L222.376 302.8996 L224.4546 305.3621 L224.3203 305.7187 L224.8057 305.9467 L224.9594 306.0662 L225.0976 306.2636 L225.031 306.6522 L224.9213 306.8128 L224.7781 307.0666 L224.5039 307.1931 L224.1108 307.1156 L223.0543 306.632 L222.9429 306.4929 L217.7453 304.7564 L216.1064 304.6094 L214.8883 304.854 L214.6909 305.0107 L214.0253 305.8045 L212.8235 305.9704 L208.4401 305.3809 L207.8806 305.4238 L207.2976 305.2006 L207.2192 305.1052 L207.1685 304.9301 L206.2211 304.3162 L205.5812 302.9324 L203.8974 301.995 L203.3971 301.7241 L203.3494 301.6449 L203.0479 301.3119 L202.7986 300.9368 L202.5854 300.5123 L202.5812 300.4896 L201.9494 299.9102 L201.8487 299.8935 L200.6854 299.8555 L200.5928 299.9097 L200.4654 300.0095 L200.3715 300.1198 L200.2843 300.3246 L200.271 300.5456 L200.2978 300.7924 L200.286 301.2007 L200.2169 301.4187 L200.1357 301.5346 L199.9363 301.63 L199.8889 301.627 L199.7597 301.7998 L199.7975 301.8532 L199.9831 301.8348 L200.1044 301.8948 L200.1546 301.9994 L200.2375 302.4768 L200.9468 303.4821 L201.0184 303.5831 L201.5224 304.2987 L202.8113 305.9529 L208.9455 308.5041 L216.8312 308.351 L223.0444 310.7534 L223.6976 311.0676 L223.8203 311.0283 L224.0496 310.9963 L224.2075 310.9911 L224.5521 311.0606 L224.7174 311.1543 L224.9591 311.4545 L225.4448 312.4535 L225.7449 313.3156 L226.1335 314.2127 L227.2774 316.5407 L227.6133 317.1573 L227.6596 317.2273 L227.7414 317.2842 L228.3768 317.4942 L228.5689 317.4548 L228.8171 317.2885 L229.3275 316.735 L229.7088 316.0309 L230.4624 315.0179 L230.8494 314.4087 L231.198 313.9064 L229.1417 313.2364 L227.8813 313.1025 L227.6982 312.9962 L227.5575 312.9725 L227.397 312.3844 L227.2653 311.9805 L227.0769 311.1819 L226.8989 310.4804 L226.7582 310.2624 L226.2655 309.8126 L225.8416 309.3802 L226.1056 309.0122 L227.0575 308.9964 L227.6977 309.0284 L228.5615 308.8043 L229.4096 309.0923 L229.8501 309.3982 L230.7292 309.8756 L231.5909 310.4791 L234.3531 311.9153 L235.2046 312.0601 L236.1223 312.3424 L237.4732 312.6518 L238.2006 312.8841 L238.3582 312.9787 L238.4618 313.0819 L238.4874 313.2972 L238.4795 313.4495 L237.6766 315.9132 L237.0149 318.0084 L236.4421 319.4008 L236.1993 319.7666 L233.6144 323.0607 L233.7572 323.4305 L234.2555 324.3971 L233.3172 325.9439 L230.5358 328.2311 L230.8342 330.1166 L230.866 330.1468 L230.9453 330.1555 L231.009 330.1814 L231.066 330.2164 L231.1568 330.4229 L233.1426 332.3084 L233.7648 332.3451 L235.0537 332.3648 L234.872 332.8032 L234.9039 336.47 L232.7235 338.4315 L229.3445 345.6102 L229.356 345.7122 L229.3504 346.0005 L232.3653 351.7619 L232.594 352.1841 L234.1875 355.2445 L232.7858 365.9414 L232.5658 366.3396 L227.7008 370.8544 L227.3567 370.7582 L227.4244 370.8544 L227.5851 371.1038 L224.4658 372.6656 L221.7499 372.1975 L219.1213 374.2449 L222.0798 383.1648 L224.5279 386.2007 L227.4585 389.342 L229.9551 392.2169 L228.5751 399.022 L225.7801 403.5274 L220.7938 407.9889 L223.4866 411.5787 L224.2481 412.0878 L228.8086 414.2136 L229.6321 414.4769 L236.4438 415.6084 L238.9116 415.3809 L241.7742 414.3006 L241.8673 414.1764 L244.9401 413.0676 L245.2751 413.4494 L245.5704 413.3777 L246.2952 413.4564 L245.7509 411.9999 L246.3065 408.5401 L250.8275 406.4624 L254.037 411.4794 L254.2486 412.5641 L253.1797 412.691 L254.5109 414.3312 L254.3501 415.6609 L256.8517 415.3197 L257.4226 416.4884 L257.8902 417.0155 L258.1553 417.4437 L258.9862 418.6985 L259.418 419.582 L259.7065 420.9655 L260.1343 422.0414 L263.9392 429.8449 L263.2426 432.3947 L259.5931 433.2475 L258.5834 437.0743 L261.3276 440.5337 L264.7684 442.423 L268.3841 448.9435 L269.7477 449.8269 L271.3426 450.8459 L269.2781 452.1097 L269.1019 452.0655 L268.9357 452.2216 L268.9143 452.2098 L268.6684 451.9571 L268.5068 451.9168 L268.4512 451.9724 L268.7079 452.1954 L268.788 452.334 L268.8021 452.3467 L268.5578 452.5732 L268.6013 452.7001 L269.8535 452.1184 L270.6601 451.6199 L272.3918 451.6199 L276.2162 456.4653 L278.0719 461.9665 L278.1312 468.7401 L284.319 472.435 L290.3263 473.2177 L293.6075 475.5742 L294.3627 475.6831 L294.9356 475.7167 L295.6796 475.8055 L296.0662 475.8894 L296.8159 475.8851 L298.9204 477.0679 L299.5561 477.1536 L300.3413 477.659 L300.7937 477.7115 L301.2585 477.8934 L301.4931 478.2974 L301.7357 478.6503 L305.9129 480.9979 L306.0353 481.0242 L308.038 481.7413 L308.9918 482.0473 L309.5347 482.4977 L309.5844 482.5629 L311.2447 483.2266 L311.2478 483.2463 L311.63 483.3635 L312.0192 483.4417 L312.7496 483.5462 L313.3196 483.5882 L313.7444 483.5895 L314.0729 483.6096 L314.2574 483.6481 L314.5245 484.3311 L314.6345 484.5528 L315.7747 487.032 L315.0939 488.9536 L315.9561 490.6479 L314.8575 496.6541 L314.5188 499.1204 L316.8938 499.0238 L320.5603 501.6558 L320.4841 503.0462 L321.0397 502.8416 L321.491 502.7926 L322.4104 502.7751 L322.9124 502.2067 L322.0127 500.5322 L321.7053 499.6053 L321.5925 500.6371 L319.5026 499.6665 L316.6541 494.8134 L317.0151 491.5407 L317.9486 487.2886 L317.3817 484.9013 L322.4781 482.0285 L322.5094 481.9822 L322.5683 481.9293 L322.6374 481.938 L322.653 481.9477 L323.0941 481.7439 L323.7647 480.3451 L324.5406 479.2052 L325.4031 478.6494 L325.9922 478.5777 L326.1287 478.5467 L326.4655 478.5205 L327.8457 478.3525 L328.0948 478.377 L328.5796 478.3337 L328.9485 478.3836 L329.0001 478.4654 L329.0241 478.4675 L329.0179 478.4964 L329.0475 478.5489 L328.7113 480.0417 L328.4575 481.0666 L327.7693 484.1676 L326.7154 485.231 L325.7756 485.3132 L325.4287 485.4937 L325.0313 485.701 L324.1001 486.9554 L323.6006 488.0625 L323.1899 490.3659 L323.008 492.7707 L323.5636 494.1694 L323.6212 495.0696 L323.2762 496.7634 L323.516 496.9427 L323.4649 498.138 L323.5216 499.7671 L323.5667 500.0425 L323.1916 502.2898 L331.8117 508.0014 L332.5684 508.0469 L336.2749 504.8851 L340.1331 504.0452 L341.5551 503.2359 L343.0378 503.4777 L343.7036 504.0225 L343.7945 504.2948 L343.8985 504.5939 L343.8985 505.5295 L338.5568 510.5485 L338.6276 511.5208 L340.0849 512.0 L346.1339 511.5611 L355.0975 506.3103 L360.1281 503.1765 L360.6431 502.9434 L360.367 502.9032 L360.1129 502.4935 L359.9688 501.8994 L359.3094 499.9293 L358.9461 498.7925 L358.976 498.2709 L359.0592 497.7843 L359.3926 497.3265 L359.7299 497.1718 L359.6924 496.9602 L363.5658 495.0473 L363.4595 494.7767 L363.5427 494.3421 L363.8343 494.1252 L364.6274 493.6644 L366.5252 492.7016 L368.1325 491.8101 L369.0838 491.3707 L370.3812 490.6309 L371.2992 489.9501 L371.8965 489.4547 L372.1143 488.9912 L371.9171 487.6109 L371.8949 486.8409 L371.9634 486.3888 L373.1953 485.5545 L373.7704 485.0766 L373.5044 484.7049 L371.7378 483.6088 L371.4873 483.6429 L365.6546 486.7902 L365.5954 486.7224 L365.0674 487.0814 L364.879 487.1356 L364.6982 487.0774 L364.3823 486.8815 L364.0436 486.5645 L363.8027 486.1645 L363.6513 485.7268 L363.664 485.3897 L363.7207 485.1212 L363.8741 484.9244 L363.9576 484.8505 L363.8721 484.7526 L364.1956 484.6398 L364.2306 484.6088 L364.7487 484.3053 L365.3119 484.0565 L366.1862 483.6315 L367.2636 483.3311 L367.8076 483.1628 L368.1478 482.9332 L368.2572 482.7679 L368.2944 482.6114 L368.2944 482.5546 L368.1289 482.4203 L367.9264 482.3447 L365.9764 482.3075 L364.8406 482.5047 L362.2874 482.8361 L361.4385 483.1562 L360.7015 483.8523 L360.1098 483.9769 L359.6174 483.8466 L359.5635 483.7054 L358.7307 481.2367 L358.9504 479.3001 L358.133 476.6402 L357.9624 476.649 L357.5808 477.0032 L357.3899 477.1523 L357.1045 477.1295 L356.7542 476.9695 L356.7415 476.9502 L356.6182 476.9826 L356.4879 476.5628 L356.3951 476.4207 L355.9639 475.4854 L355.7104 474.6454 L355.5129 473.8094 L355.4974 473.8116 L355.2732 472.9073 L355.2873 472.6908 L355.2052 472.4263 L355.3071 472.3847 L355.6232 471.9414 L356.1111 471.5587 L356.7017 471.2238 L357.4666 470.8333 L358.507 470.3287 L359.9488 469.7768 L361.5595 469.3658 L362.577 469.1988 L363.3732 469.204 L373.6779 467.4448 L374.1788 467.2774 L375.1585 466.6625 L376.0032 466.021 L377.9467 464.6628 L378.3317 464.4595 L378.4225 464.5155 L378.5692 464.4018 L378.6202 464.0441 L378.6854 463.9116 L379.2472 463.5324 L379.9875 463.3689 L381.3069 463.302 L381.3308 463.3086 L383.133 463.0479 L382.9613 462.4344 L382.2333 460.6105 L381.9871 460.038 L382.0035 459.93 L381.9124 459.5146 L381.9976 458.8127 L382.2116 458.1983 L382.3417 457.6806 L382.7413 456.8453 L383.5036 456.0424 L384.2237 455.365 L384.3582 455.2819 L385.0613 454.375 L382.0435 450.3779 L381.4343 448.6636 L382.0001 446.7399 L382.083 446.4245 L382.8612 446.3353 L383.5747 446.055 L385.0255 445.5984 L383.135 444.5921 L380.3344 445.2481 L378.6056 447.789 L372.4206 452.1491 L371.5096 451.6549 L370.4903 452.4766 L370.5041 452.5234 L370.4582 452.6743 L370.4142 452.9275 L370.5732 454.41 L368.8021 457.5148 L363.8778 459.5395 L362.7327 459.6969 L362.022 460.3616 L356.559 452.2147 L359.2693 449.7263 L359.1898 449.6529 L359.0369 449.6769 L358.802 449.5934 L358.4021 449.2422 L357.1428 448.0343 L354.5041 445.4554 L352.6579 443.1323 L351.9159 441.9354 L351.6057 441.0047 L351.5617 440.1711 L351.637 439.5554 L352.0468 438.3369 L352.3663 437.8651 L352.8545 437.3293 L353.7068 436.9151 L354.1854 436.7183 L354.3507 436.4314 L355.2247 436.2972 L355.7764 436.0859 L356.4315 435.9079 L356.9967 435.8673 L357.2638 435.8257 L357.3352 435.7299 L357.5055 434.9799 L357.8561 433.4325 L358.3477 431.4373 L358.6198 429.8187 L358.6429 429.254 L358.2487 426.9238 L357.8375 424.4911 L357.4099 423.0867 L356.6997 419.0305 L356.8086 418.7348 L356.8464 418.6679 L356.8326 418.6596 L357.07 418.2721 L358.2128 417.1222 L359.3249 416.1324 L359.9366 415.7265 L360.5193 415.3127 L360.9737 414.8399 L362.0149 413.5981 L362.7454 412.7833 L363.1324 412.4124 L363.803 411.9015 L364.5566 411.4138 L364.6759 411.3001 L357.2799 407.8586 L341.5971 401.5021 L339.5343 400.8473 L338.8315 399.8657 L340.0256 394.6337 L341.8185 390.6552 L341.9412 389.1325 L341.7136 387.4697 L342.2777 385.09 L341.8921 384.5152 L341.1306 384.0856 L337.4467 382.1451 L336.034 382.9924 L334.2911 383.7492 L333.0758 384.5979 L328.7415 382.7632 L327.0216 385.905 L329.7278 387.8311 L330.0027 388.4505 L327.5773 392.5086 L325.1052 390.0887 L320.0884 396.2491 L317.0317 394.8878 L313.9748 400.6623 L313.6578 400.5144 L313.4432 400.6728 L312.867 400.6435 L311.3254 400.1632 L310.2037 399.6514 L309.4448 399.2175 L306.8427 403.2339 L307.1225 403.4421 L308.2038 403.7583 L308.2365 403.8174 L308.7854 403.9735 L308.784 405.5246 L309.2442 405.749 L309.6193 405.8373 L309.6777 405.983 L310.1645 406.1387 L309.5243 412.0218 L309.3494 414.4406 L309.8943 414.6693 L310.048 414.6308 L310.8964 414.6492 L311.2329 414.7196 L311.4207 415.0328 L311.2351 415.5751 L310.4203 417.3505 L310.1002 418.108 L308.8099 420.9921 L306.6859 421.4063 L305.4568 421.2366 L303.3156 420.27 L303.0877 420.0675 L303.451 419.0873 L303.4893 418.1098 L303.9572 415.2025 L304.4155 413.3038 L304.7351 413.0112 L305.0185 413.0129 L305.0405 412.2313 L304.8648 411.908 L304.8544 411.3565 L305.1517 408.2466 L305.2261 405.5832 L307.3611 395.7369 L307.1008 395.5711 L307.0872 395.5978 L306.6913 395.7312 L306.1385 395.3922 L302.544 392.9854 L301.4218 392.202 L299.6421 391.0992 L298.5484 390.3989 L296.8805 389.2987 L296.5313 389.0192 L296.3364 388.7042 L296.2659 388.6592 L294.5201 389.6968 L294.5235 389.8153 L294.2618 390.1233 L292.0715 391.1989 L291.7427 391.3477 L288.95 393.0073 L288.1603 392.7405 L288.2043 393.4671 L287.0431 394.628 L284.1692 395.9547 L282.9844 394.1849 L282.8451 393.971 L282.7872 393.8459 L282.3194 393.0423 L282.2883 392.8599 L282.0839 392.4741 L282.1696 392.1578 L281.3723 389.1578 L277.751 390.4264 L277.0995 390.3039 L276.3473 389.7746 L271.773 390.8105 L265.2123 391.5327 L262.159 391.4785 L261.8412 392.1508 L262.1652 392.9942 L262.394 394.0292 L262.379 394.1285 L262.1808 394.7492 L256.9775 394.5523 L256.4713 395.2251 L246.9453 394.946 L246.6015 394.3642 L246.5245 394.2181 L246.4382 393.8931 L246.4752 392.9601 L246.5603 391.8905 L246.5547 391.555 L246.6695 391.2746 L246.8517 390.4129 L247.1377 389.7786 L247.4575 388.8766 L247.8143 388.0082 L248.0221 387.7886 L248.3307 387.6806 L248.9108 387.758 L253.6391 388.1303 L255.058 387.758 L254.7086 385.9177 L249.0673 385.8258 L249.0394 385.1289 L253.7889 384.4771 L253.819 383.8853 L253.7796 383.8 L253.8343 383.5834 L253.8706 382.8717 L249.1635 382.2374 L249.4571 380.5287 L251.5862 378.7158 L251.8885 378.6839 L252.7324 378.2591 L253.282 378.0176 L253.8766 377.9082 L255.3412 378.0115 L256.0451 378.0316 L256.0451 376.7166 L256.1715 376.6986 L256.2296 376.5517 L256.5048 376.3058 L258.208 375.8233 L258.401 375.8368 L258.5631 375.9112 L258.6855 379.9009 L258.6773 381.4163 L258.7583 382.6923 L260.5577 382.8367 L260.1826 375.601 L261.4094 374.8573 L266.6372 372.6844 L268.0727 371.8711 L269.4961 370.9673 L270.4018 370.3076 L271.5446 369.7231 L273.4954 368.9903 L274.1895 368.7602 L277.0425 367.232 L277.0874 367.537 L277.1567 367.5444 L277.3843 367.831 L277.5296 369.1701 L277.7298 370.532 L277.9391 371.0329 L278.1317 371.1738 L278.2575 371.1755 L278.7113 371.1261 L279.03 371.0347 L278.4837 366.4358 L279.3044 365.8583 L279.6288 367.8533 L281.9753 367.1708 L283.518 366.4271 L283.5067 364.1652 L293.2865 359.8357 L294.5788 359.0644 L295.3764 358.756 L296.7761 358.1067 L297.8656 357.5576 L300.1529 356.5662 L301.6386 356.1383 L304.8369 354.7239 L304.7334 354.632 L302.7129 352.8373 L301.5447 347.2943 L295.8908 341.0905 L298.477 339.4147 L298.556 337.6601 L296.6015 337.2269 L296.0459 337.2444 L298.116 335.8836 L299.3175 337.3407 L300.1128 337.0944 L303.5864 336.0727 L307.7029 336.4231 L308.4695 335.7786 L309.6757 334.9158 L312.1921 334.9622 L312.357 334.9171 L312.9456 334.9035 L313.2818 334.9674 L313.2883 334.9823 L313.2979 334.9823 L313.2979 335.0037 L313.4409 335.3249 L313.4443 335.8298 L313.3966 337.2072 L313.3425 338.032 L313.349 338.0767 L316.7982 338.7085 L317.1984 336.9775 L317.5989 335.7305 L321.1243 336.6319 L324.1717 333.3082 L321.59 332.0738 L321.2228 332.0038 L320.4771 331.7544 L320.2715 331.6074 L320.1 331.3991 L320.0952 331.3589 L319.7847 331.2105 L320.6477 330.0028 L321.1421 329.0472 L319.4849 326.4524 L319.3687 326.2931 L319.2497 326.084 L318.304 324.6032 L304.4703 324.6032 L304.3008 324.317 L303.9756 324.1928 L303.8901 324.0505 L303.7787 323.6423 L303.7446 323.3684 L303.1503 322.354 L304.1318 319.2122 L302.9332 318.1664 L301.1603 318.3059 L300.8876 318.4184 L300.7184 318.8332 L300.5762 318.9781 L300.3949 319.6191 L292.5967 321.6627 L292.2498 320.4199 L291.5901 317.9182 L291.5557 317.9047 L291.2804 317.9891 L288.0627 319.371 L287.876 319.8025 L288.0965 320.377 L288.5782 321.2772 L288.6973 321.7086 L288.673 322.1388 L288.5692 322.2342 L288.7892 322.7873 L284.3669 324.0956 L283.6675 322.3891 L283.375 321.6128 L283.3854 321.8963 L283.0975 322.1641 L283.0879 322.1663 L283.1034 322.2184 L280.8641 322.7873 L279.9852 320.5512 L279.5681 320.4637 L279.0424 320.6059 L277.9202 320.9814 L277.516 321.0562 L276.9982 320.9183 L276.7918 320.6125 L276.7909 320.1508 L275.0852 319.2686 L274.9949 317.1249 L272.1614 318.6368 L270.0013 315.9762 L268.2431 318.0001 L268.1415 318.7072 L268.2298 319.1759 L268.0992 319.9963 L268.1616 320.2611 L268.9603 320.3307 L269.2059 320.0826 L269.6758 319.8764 L270.3219 319.9701 L270.5301 320.0572 L270.4996 320.3963 L270.472 320.4615 L270.32 320.8015 L268.8714 324.1914 L268.5801 324.8946 L267.8082 326.4813 L267.1087 327.7305 L266.7018 328.3313 L266.5779 328.4727 L266.3393 328.9177 L265.9916 328.7413 L265.7144 328.7212 L264.8843 328.4412 L264.1578 328.0614 L263.5622 327.9078 L263.2652 328.4482 L262.9662 329.1281 L262.7485 329.9468 L262.3209 329.9302 L262.0674 329.6795 L262.3212 328.863 L262.9837 327.2164 L261.7563 326.5942 L262.3937 318.9584 L262.6994 318.8866 L262.7352 318.7112 L262.9806 318.3501 L263.3258 318.0688 L263.838 317.8132 L264.1451 317.7454 L264.5521 317.8088 L264.8544 318.0403 L264.9924 318.3134 L266.2231 317.9051 L266.4445 317.7738 L267.1823 316.6217 L267.1637 316.5512 L267.3276 316.0992 L267.7306 315.7653 L268.0287 315.3001 L268.5259 311.893 L270.6598 310.2336 L269.1055 308.7321 L265.9583 311.3792 L263.0373 313.1423 L260.9187 314.6919 L259.0513 316.4099 L258.3916 317.1148 L257.8405 317.7309 L257.1623 318.4228 L255.9597 319.4196 L255.3984 319.8182 L254.84 320.3639 L254.1104 321.0321 L253.9127 321.2465 L253.6571 321.4614 L253.4879 321.5292 L253.0528 321.9296 L252.6162 321.4181 L252.2459 321.1454 L251.6948 320.3635 L251.6626 320.3009 L249.403 316.4716 L250.9657 313.1515 L251.5495 310.4909 L250.8275 308.7973 L245.3589 300.7977 L245.0424 299.6191 L244.9274 299.3942 L244.8131 298.7649 L244.3154 296.9115 L244.3594 296.729 L244.3063 296.5089 L244.3058 295.68 L244.5114 294.6923 L245.0726 293.6564 L245.1115 293.6043 L245.1615 293.3973 L245.3042 293.3474 L245.6674 292.862 L246.0817 292.5658 L246.6537 292.3605 L246.9687 292.4231 L246.9495 292.3032 L246.9783 292.273 L246.8463 292.2467 L247.2242 291.9207 L247.44 291.7859 L251.4841 289.1245 L253.5728 290.0734 L253.6137 289.9539 L253.9868 289.5451 L254.1084 289.4488 L254.7974 288.8523 L259.8083 288.4326 L259.9262 288.3066 L259.9197 287.9092 L258.9114 286.4107 L258.6474 285.966 L258.593 285.7135 L258.1265 284.9856 L259.9417 284.1361 L260.0235 283.9659 L260.4649 283.4862 L261.1922 283.0814 L262.0978 282.7002 L263.3659 282.2984 L263.7452 282.1076 L263.8253 281.9557 L263.5359 281.2699 L264.2421 281.0287 L264.2912 280.8847 L264.3428 280.5766 L264.0411 279.5989 L263.3921 278.2587 L264.1877 278.0075 L264.2489 277.9537 L264.7411 277.8329 L266.2866 277.3449 L266.4846 277.1089 L266.5805 275.5088 L266.6231 274.0391 L266.6214 272.7921 L270.5433 272.8862 L271.0465 272.8687 L273.4562 272.9558 L275.5759 273.0066 L276.2895 270.8181 L276.9167 270.2715 L277.0448 270.1248 L277.1206 270.0938 L282.0401 265.8066 L285.972 258.3292 L286.0574 257.9169 L286.2819 257.7396 L286.3225 257.695 L286.5087 257.7221 L291.4412 257.3452 L291.6583 256.9224 L291.6304 256.5613 L291.4389 256.4899 L290.3122 256.4834 L290.3212 256.075 L289.8339 255.8938 L289.4771 255.3125 L289.4179 254.7045 L289.5479 253.3996 L289.8198 251.7774 L290.3043 250.2992 L290.4577 248.9125 L290.4188 247.0464 L290.5607 245.2591 L290.6111 242.975 L276.3459 239.8494 L276.3893 239.733 L276.3309 239.6861 L276.2836 239.5342 L276.3208 239.3241 L276.4686 238.9634 L277.0383 237.9986 L277.3217 237.2404 L277.5056 236.8184 L277.6077 236.1377 L276.3893 234.9746 L276.2317 234.9211 L274.6588 234.0973 L273.7788 233.5549 L273.587 233.3452 L273.4534 233.1259 L273.4424 232.9276 L273.5896 232.7244 L273.8375 232.538 L276.3487 230.6516 L277.3623 229.734 L281.0451 226.3413 L281.3153 226.086 L280.0603 225.8409 L279.1719 225.8409 L279.8064 223.8752 L282.3983 223.8709 L282.3763 223.472 L282.3064 222.8456 L282.2739 222.0501 L282.3165 221.5987 L282.2319 219.3266 L285.2113 218.9956 L285.5134 218.9247 L286.1415 218.8262 L286.1536 218.8905 L286.9252 218.8052 L287.0254 218.2255 L288.5134 215.0278 L288.7695 214.8602 L288.7951 214.8567 L288.9725 214.4758 L290.5237 214.4232 L289.3702 213.7621 L289.6635 211.3936 L289.7791 211.4439 L289.8471 211.0696 L290.1892 211.2749 L290.63 211.6554 L292.1285 210.6406 L293.1703 208.4721 L290.3754 205.4809 L287.2107 204.5632 L285.2722 204.8386 L284.5519 205.1232 L283.1147 206.5115 L282.4841 206.8552 L280.6838 206.7751 L279.411 205.399 L279.7605 204.2274 L279.0785 203.381 L277.9089 202.762 L277.3685 201.6227 L271.3725 202.487 L272.1021 203.3789 L272.1171 204.5514 L269.4998 205.5724 L268.7885 204.7628 L267.965 202.7326 L266.8823 202.3876 L265.3088 202.5619 L262.79 201.9489 L256.1382 207.4445 L255.6531 207.5934 L254.9114 209.8612 L255.1751 212.0324 L255.5174 214.9429 L254.345 215.4564 L252.5677 215.0401 L252.4495 215.0541 L251.7546 214.8869 L250.0841 214.5861 L249.8308 214.6452 L249.0507 215.041 L249.0535 215.5711 L250.8501 216.3623 L250.9917 216.4266 L251.0077 216.473 L251.1784 216.8228 L251.2336 217.3434 L249.5595 218.6533 L248.0918 219.387 L246.6469 219.6821 L246.0493 219.69 L243.6438 222.4283 L239.9523 225.7717 L238.999 224.8187 L239.3614 222.5549 L237.0883 222.3666 L236.76 222.262 L236.5563 222.1026 L236.3795 221.9871 L236.0915 221.8728 L236.0309 221.8408 L233.5389 223.8665 L230.1319 228.4544 L229.0325 227.4917 L228.8565 227.3954 L227.4548 226.4323 L226.5676 225.6115 L226.3995 225.1868 L226.2568 225.0616 L226.3208 224.9872 L225.669 223.3687 L222.7164 221.959 L222.5587 221.3194 L222.5128 221.22 L222.5393 220.4749 L222.6388 219.8655 L222.594 218.9199 L221.2332 218.8358 L218.1294 219.1037 L217.8798 218.6296 L217.7413 216.4704 L217.5476 215.1062 L217.9602 213.4167 L218.2809 212.0503 L216.9835 211.9978 L217.0616 211.5306 L217.0402 211.521 L217.1268 211.1405 L217.274 210.2597 L216.834 209.3122 L216.7452 209.2763 L216.6586 209.293 L216.1157 209.3814 L215.6444 209.2715 L215.3345 209.1993 L214.9509 208.9051 L214.8415 208.226 L214.4269 207.6866 L214.3363 207.5907 L213.9229 207.0303 L213.3171 206.2449 L213.8259 204.6113 L213.8933 204.0943 L213.9358 203.0435 L213.7452 202.3841 L213.5323 202.2663 L212.6943 202.5584 L211.2915 202.8627 L211.7151 197.8911 L209.4309 196.919 L208.8607 196.9593 L208.2943 196.9208 L206.4755 197.074 L205.5908 197.0132 L204.8578 196.8753 L204.6967 196.5819 L204.8242 195.8205 L204.8403 195.2123 L204.6366 195.0092 L202.1288 195.264 L202.487 193.263 L202.9213 193.0537 L202.9605 192.7184 L203.2115 192.5712 L204.0593 192.2231 L204.7204 192.002 L204.4652 191.9889 L204.0545 192.1163 L203.8077 191.8602 L203.5009 191.6255 L203.332 191.2813 L203.4843 190.9345 L203.6368 190.7739 L203.601 190.6666 L203.7849 190.6175 L203.8529 190.5457 L205.3544 190.1105 L206.2468 189.7952 L206.0945 189.2773 L206.1627 188.8241 L206.6072 188.6428 L208.3462 188.0985 L209.3229 187.8906 L211.5177 187.0937 L211.6959 187.0937 L212.0417 186.9277 L212.6264 186.7526 L213.0694 186.6387 L213.3097 186.7526 L213.259 187.0937 L214.0365 186.5345 L219.4025 185.8006 L219.5345 181.9811 L215.6706 181.7096 L215.6484 181.7026 L215.5621 181.4294 L216.1272 180.6154 L216.4899 179.7462 L216.2378 177.9119 L213.5292 178.3222 L210.7838 178.8008 L210.4485 178.5109 L210.4846 177.8515 L210.4118 177.4885 L210.5179 177.0734 L211.0419 177.0186 L211.4664 176.9122 L212.4072 177.0835 L212.7124 176.9517 L213.079 175.9415 L213.3487 175.2496 L213.587 174.5109 L214.0199 173.8488 L214.3693 173.491 L214.7853 173.6093 L215.83 173.7082 L217.2836 173.703 L218.7265 173.8825 L219.1165 174.2162 L219.7841 170.1477 L215.1898 169.088 L215.3249 168.619 L215.2625 168.6006 L215.192 168.2249 L215.6608 167.3342 L215.9329 165.8449 L216.1137 165.1193 L216.5139 165.164 L217.1242 165.3549 L217.9224 165.5046 L218.5149 165.5944 L222.5819 165.4841 L223.2362 164.7615 L222.4832 164.7615 L222.9849 162.7646 L223.0957 161.9103 L223.3549 160.6937 L223.4669 160.3412 L223.6214 160.2317 L223.6508 160.1153 L223.7673 160.1288 L223.7926 160.1109 L224.267 159.9169 L226.1081 160.05 L226.019 160.371 L226.0077 160.3916 L226.2286 160.4174 L227.0211 158.9241 L227.7036 157.5928 L225.2584 157.9738 L222.4155 157.098 L221.7815 155.4089 L221.5355 155.0489 L221.2194 154.4253 L220.7546 153.1032 L220.2097 151.3716 L220.1225 150.9893 L219.9449 150.5159 L219.8814 149.2336 L219.8002 148.825 L219.717 148.6748 L219.6121 148.5876 L218.9267 148.6275 L218.5578 148.5819 L218.2366 148.433 L218.0115 148.1895 L217.78 147.9031 L217.5433 147.5576 L217.3665 146.9357 L217.708 143.4877 L217.8065 142.2711 L217.961 142.1669 L218.4247 142.106 L219.0108 141.9904 L219.1853 141.9089 L219.1921 141.9059 L219.2291 141.6396 L219.2564 140.6879 L219.2369 140.4562 L219.2807 140.3345 L219.2953 140.1238 L219.5881 139.173 L220.0608 137.9747 L220.2954 137.4159 L220.4903 137.1623 L220.7247 137.0335 L221.0817 136.9538 L221.9758 136.9008 L222.7488 136.9359 L225.4042 136.2632 L225.2028 135.9316 L225.2172 135.3355 L225.4561 134.7281 L225.9025 134.3032 L225.9409 134.09 L225.5384 132.3035 L225.2612 130.4258 L225.4194 130.0382 L225.7934 129.888 L226.1022 129.853 L226.1389 129.5306 L225.7948 128.8036 L225.7237 128.2206 L225.2412 127.3959 L224.9653 126.6736 L225.2643 126.3478 L226.5109 125.9567 L228.6335 125.396 L228.8585 125.1573 L228.9138 124.1364 L229.2195 123.6261 L229.8389 123.4172 L231.522 123.0212 L232.8059 122.6643 L234.4605 122.1615 L235.8084 121.5789 L236.633 121.31 L237.2851 121.2592 L237.9456 121.2395 L238.8202 121.1151 L240.6202 120.6215 L240.6154 119.7704 L240.5023 119.1572 L240.9013 119.2273 L241.1831 119.1366 L241.7596 119.2654 L243.4027 119.4778 L244.6129 119.7183 L245.0701 119.8979 L245.0881 119.964 L245.1586 119.9763 L245.1352 120.1344 L245.171 120.2645 L245.0427 120.7616 L244.7581 122.6892 L244.8137 122.9087 L244.9649 122.9459 L245.3205 122.9279 L248.1132 122.627 L250.059 122.0826 L250.6772 122.0007 L251.1431 121.8785 L252.1734 121.681 L253.1845 121.5623 L254.3992 121.3477 L254.657 121.3332 L257.7373 120.7472 L256.0451 117.4315 L257.8812 117.5366 L258.8457 115.7889 L255.3223 114.5778 L254.6829 114.4548 L254.0128 114.241 L253.5827 113.9756 L253.0133 113.7785 L252.7095 113.3733 L252.2244 112.8876 L251.7647 112.6926 L250.7119 111.8372 L250.3136 111.5643 L250.231 111.4465 L250.152 111.3825 L249.5223 110.6243 L249.3807 110.34 L249.2693 109.782 L249.2636 109.6252 L249.1314 109.0847 L249.1723 108.9121 L249.095 108.4754 L249.3313 107.9966 L249.401 107.9484 L249.4145 107.8915 L249.8785 107.4342 L249.0326 107.0316 L248.2187 107.3834 L247.9589 107.3321 L247.5353 107.4723 L247.1512 107.3812 L246.8709 107.1381 L246.3844 106.6444 L246.0572 106.0119 L243.5651 102.5782 L241.0974 102.1226 L236.0913 100.5544 L227.7634 95.0482 L228.4933 96.8135 L227.2656 96.9331 L228.8938 98.0181 L232.7492 103.371 L233.5219 106.1569 L230.1686 105.7057 L226.7531 101.5926 L225.4408 101.1905 L224.7947 101.3043 L223.1953 100.985 L222.3063 100.487 L221.96 100.1243 L221.8486 100.0901 L220.3984 98.8447 L220.1694 98.7711 L219.2886 97.892 L217.9763 96.7653 L217.1414 94.7152 L216.9722 94.5751 L216.552 93.3704 L214.8905 93.1856 L213.9113 93.2771 L212.9135 94.5107 L211.8742 96.1249 L210.2708 94.5427 L212.6478 92.6034 L211.1573 90.6895 L211.8034 90.0385 L213.336 91.2896 L213.9017 90.4937 L214.2873 90.7938 L214.9182 91.16 L214.9492 91.6099 L214.8787 91.789 L213.7494 91.63 L214.2647 92.1233 L215.8875 92.7593 L217.3736 93.2583 L218.0863 93.4392 L220.4142 93.6779 L222.9014 92.6248 L225.3441 90.4902 L229.5932 88.9859 L232.9426 87.9161 L235.3157 89.9448 L233.8688 91.6664 L226.5021 92.7528 L224.9687 93.5715 L225.6741 94.6119 L226.4017 94.1467 L227.6114 94.3214 L228.81 94.6618 L235.017 98.7392 L235.8995 99.1794 L235.7486 98.7633 L235.6411 98.6358 L235.5018 98.3029 L235.6744 97.6703 L236.0681 97.0422 L236.2935 96.5713 L236.7899 95.3053 L236.8564 95.0964 L236.9196 94.9741 L237.2448 94.1449 L238.1464 92.4768 L238.6902 92.4054 L238.8792 92.2832 L239.474 92.2218 L239.6844 92.2753 L244.0364 92.7528 L244.2133 92.8215 L244.554 92.8605 L245.2399 93.0752 L245.3499 93.023 L245.3338 92.8329 L246.3429 92.5228 L246.7772 92.4702 L248.4866 91.8416 L249.1409 91.8416 L249.5313 91.9108 L249.9292 91.9643 L250.6831 92.0795 L250.5765 91.2831 L249.2625 90.9628 L249.1316 90.7158 L248.8764 90.4153 L248.7701 89.9373 L248.8141 89.3644 L248.7783 88.7703 L248.796 88.1334 L248.756 87.6831 L248.5123 87.0041 L248.1916 86.3084 L248.0077 86.0276 L247.7435 85.7078 L247.3836 83.8749 L247.711 83.0084 L247.7576 82.7885 L247.7607 82.7788 L247.7618 82.7788 L248.5721 80.0334 L248.8191 78.7121 L250.2522 75.3283 L250.2691 75.1202 L252.1432 71.1541 L252.1821 71.0945 L252.2707 71.0087 L252.346 70.8496 L252.5053 70.7808 L252.5693 70.7186 L253.4174 70.2429 L253.9386 69.9896 L254.8516 69.8026 L255.0572 69.8021 L256.6523 69.6142 L257.9909 70.1644 L258.5902 70.3616 L261.3572 70.2385 L259.7643 67.9476 L258.0885 66.0488 L257.8958 65.8959 L256.0324 65.0736 L254.0537 64.1706 L255.0354 58.6122 L255.1928 57.6917 L255.0803 57.5502 L255.045 57.3495 L255.0825 57.1891 L255.1793 56.9959 L255.3268 56.9083 L255.4867 55.9746 L258.7194 56.0425 L259.1083 55.9979 L259.6002 55.8038 L259.7087 55.0545 L258.8937 51.6195 L264.6359 49.9458 L264.9393 50.9785 L265.544 50.8646 L267.5239 50.3796 L271.1833 48.6861 L271.3872 48.5126 L271.903 48.2607 L271.9792 48.3181 L272.1351 48.2458 L272.1179 48.5039 L272.167 50.483 L272.0934 50.6556 L272.1007 50.7691 L271.923 51.0556 L271.5759 51.8706 L272.9982 50.8484 L274.2363 50.0773 L274.6221 49.2759 L274.4729 49.0472 L274.423 49.0612 L273.6042 47.7152 L273.393 47.3914 L272.7057 47.4352 L272.4129 47.5329 L271.958 47.4519 L271.3003 46.9997 L270.6646 46.7057 L270.5693 46.2215 L270.3059 45.7873 L270.3812 45.2681 L270.2489 44.5969 L270.1964 44.2753 L269.8529 43.42 L269.7734 43.3643 L268.1649 43.625 L266.6341 44.0614 L265.7919 44.3335 L263.0452 44.7528 L262.7285 45.0228 L264.8872 44.7498 L265.2016 44.674 L265.3257 44.6946 L265.7832 44.6367 L265.6486 44.7958 L265.7643 45.0245 L265.0826 45.4653 L264.888 45.6958 L263.3363 46.714 L260.4759 47.7507 L260.3704 47.4094 L260.3444 47.3879 L259.3367 44.7524 L259.4338 44.3791 L259.3458 44.0947 L259.5288 44.0124 L259.5677 43.863 L260.1222 43.6443 L260.9088 43.5887 L261.2241 43.5194 L262.0868 43.416 L262.2798 43.5164 L262.7039 43.487 L263.8535 43.0436 L264.1832 42.9463 L264.322 42.8578 L264.6607 42.8052 L266.8586 42.1568 L265.2986 42.0257 L263.3526 41.7217 L262.7434 40.3151 L265.1833 40.0089 L265.2036 39.9962 L265.7823 39.9335 L265.7995 39.9318 L265.9665 39.303 L265.9656 38.9463 L266.0903 38.8135 L266.1854 38.4372 L266.3489 38.4275 L266.6005 37.7751 L266.5351 37.6336 L266.5483 37.524 L266.2626 37.0429 L266.0441 36.5692 L265.9008 35.9602 L265.8822 35.5562 L266.4056 35.1868 L268.1195 34.5019 L268.2834 34.6106 L268.5324 34.8481 L269.1442 35.2858 L269.398 35.3735 L269.8586 35.0987 L270.2424 35.1679 L270.3377 35.2267 L270.3967 35.2876 L270.5371 35.2678 L271.5634 36.9263 L271.4052 37.0048 L271.2005 37.2199 L270.5335 37.4495 L270.4387 37.8053 L271.4568 37.4929 L271.7769 37.173 L273.0252 36.8527 L273.0004 35.9085 L273.2221 35.2731 L273.3208 34.9559 L273.5115 34.6982 L273.9779 34.0182 L274.1601 33.7732 L273.4909 32.4175 L273.4127 31.2721 L274.6306 29.5671 L274.8838 29.245 L275.2206 25.7894 L273.4607 21.9639 L269.1456 19.1769 L269.5145 19.0293 L269.4442 18.9977 L269.4558 18.868 L269.5712 18.7663 L269.7666 18.7953 L270.0004 18.7387 L270.1685 18.7203 L271.1568 18.1984 L271.355 18.1436 L271.4582 18.0915 L271.5491 17.9855 L271.5338 17.8882 L271.5995 17.822 L271.4498 15.8991 L270.2709 15.6931 L268.3361 17.5731 L257.3002 18.8527 L257.2291 18.3847 L257.1214 18.4609 L256.9583 17.8908 L256.7319 17.7032 L256.3506 17.7878 L255.0851 19.024 L255.357 19.2427 L254.1696 21.1314 L249.4596 25.6536 L243.3629 29.3151 L240.8506 30.3659 L236.8669 31.5955 L236.5425 30.1933 L240.931 25.7938 L240.4459 24.9345 L239.9044 24.2737 L239.8189 24.0568 L239.9156 23.995 L239.7907 23.7742 L239.5938 23.4302 L239.5659 23.3925 L253.0505 15.0126 L254.3385 14.0174 L254.347 14.0253 L254.5645 13.857 L252.8976 12.332 L256.4682 10.4695 L257.0548 11.3767 L259.2978 10.3543 L259.2733 10.1641 L259.3827 9.9476 L259.8311 9.7066 L259.5316 8.8104 L259.4614 8.7946 L259.258 8.5632 L259.0691 8.1425 L258.8688 7.8787 L258.8327 7.6727 L258.9684 7.3686 L260.0252 6.9795 L262.92 5.7616 L264.0157 5.4838 L264.7233 5.3291 L265.1579 5.2887 L262.9549 4.7725 L263.096 3.6681 L263.7305 3.1466 L264.2512 3.0327 L263.9209 2.9875 L262.2978 4.0625 L261.3333 3.8084 L262.0271 2.4016 L258.8767 2.5287 L259.3985 2.1343 L259.6707 2.0628 L259.6523 2.0405 L259.7587 1.7526 L260.0458 1.5282 L262.339 0.7538 L263.5204 0.373 L263.9739 0.4063 L262.4219 0.0263 L262.1794 0.0 L257.6584 1.4944 L258.1604 2.6733 L254.525 3.0931 L254.4172 3.1291 L251.7481 3.5082 L251.3166 3.4635 L244.8343 4.2115 L238.3174 8.3849 L237.159 9.3696 L235.2057 12.332 L228.0364 13.8877 L225.7937 22.5476 L222.0601 23.2698 L223.0066 25.3013 L220.9884 27.8884 L213.039 31.3733 L210.9311 30.6534 L206.2081 30.0964 L204.2125 33.2755 L200.1766 34.0322 L199.8432 39.9962 L199.8748 40.6438 L199.8435 40.713 L199.9289 41.4193 L198.9446 42.1467 L200.9076 49.9502 L195.7605 53.2669 L194.4349 50.2175 L194.3075 49.9603 L193.4224 48.744 L193.108 48.2831 L192.7901 47.6753 L192.8897 47.3204 L192.9686 47.2587 L192.6999 46.7162 L192.307 46.4674 L192.3121 46.1953 L192.3826 46.0599 L192.2746 45.836 L191.4036 45.1936 L191.2553 45.1573 L190.8046 44.869 L190.3886 44.4448 L188.532 43.0756 L188.8227 42.4534 L188.4082 41.889 L187.4405 41.8838 L186.7047 40.6547 L184.5846 39.6123 L184.4476 42.0862 L184.9693 44.55 L185.6956 45.836 L186.1138 47.5023 L185.0051 49.2238 L185.3808 49.6777 L185.477 49.9616 L185.528 50.2127 L185.5368 51.0048 L186.4929 52.509 L186.4012 52.8087 L186.5487 52.7666 L186.5233 52.9909 L186.0966 54.1029 L185.8693 54.7847 L185.574 55.5185 L185.2449 56.2555 L183.6658 57.1602 L180.9537 58.5552 L180.4974 61.2931 L181.4603 61.5481 L182.5608 62.1154 L183.2743 62.5588 L183.7645 62.8703 L183.8759 63.1117 L183.9275 63.4434 L183.9771 63.471 L185.0009 70.6867 L184.9882 70.9684 L185.0962 71.912 L185.0962 72.7256 L185.1668 74.8556 L185.1163 75.8803 L184.9953 76.4533 L184.9273 76.859 L184.8607 77.4237 L184.8159 77.4802 L184.8007 78.0554 L186.2419 80.3291 L185.9951 81.9579 L186.3234 84.2863 L186.2438 84.642 L186.1372 84.8501 L185.7277 84.9578 L185.4443 86.0114 L185.3814 86.1524 L185.2547 87.0185 L184.9146 86.9883 L184.7101 87.2866 L184.5598 87.3037 L184.2307 87.3041 L183.9213 87.1802 L183.573 86.9778 L180.6238 87.0755 L182.0593 87.7851 L182.1338 88.2022 L182.2517 88.4142 L182.3743 88.5754 L182.6792 88.6433 L183.4915 88.6507 L184.1173 88.7638 L184.4019 88.9302 L184.4873 89.0963 L184.5451 89.3385 L184.5404 89.6898 L184.5869 90.7421 L184.8317 90.7421 L184.4199 99.8667 L185.9339 107.5016 L186.7825 109.3663 L186.7915 109.6283 L186.6212 109.8346 L186.1739 110.0001 L184.6563 110.4382 L182.7438 111.0461 L179.8662 111.8893 L179.7244 111.796 L179.6019 111.648 L178.2744 112.1929 L177.1559 112.3335 L176.4468 112.5704 L175.2482 112.7868 L173.9396 112.909 L172.6033 112.9559 L168.7628 113.4885 L166.4056 113.7434 L165.8785 113.7518 L163.3661 114.0676 L163.1777 113.3203 L163.1163 113.2248 L162.5764 111.9344 L162.4546 111.7032 L160.3427 109.2143 L160.3174 109.2244 L160.4539 109.4977 L160.2889 109.6112 L159.8875 109.7903 L157.994 110.5945 L157.6956 110.6694 L157.5503 110.5288 L157.3994 109.2848 L157.1242 108.3396 L156.9152 107.4114 L156.8156 106.4705 L156.8058 106.1959 L156.2775 103.9584 L156.1717 103.753 L156.1435 103.4757 L156.1052 101.5343 L156.1362 101.512 L156.1794 101.5098 L156.1751 100.8024 L156.0699 99.7747 L156.1435 98.8964 L156.0304 92.0562 L157.8236 92.0562 L157.8191 91.5801 L157.5382 89.8716 L157.4891 89.664 L157.2511 88.1426 L157.048 87.6839 L157.5991 87.5731 L158.0789 87.5135 L158.8739 87.3847 L159.8723 87.1596 L160.2846 86.9992 L160.5148 87.0229 L160.4147 87.27 L160.638 87.2183 L161.175 86.0968 L161.5639 84.6967 L158.267 85.459 L156.7699 85.5186 L156.55 85.5935 L155.1556 85.9067 L154.9438 85.8743 L154.5588 85.7512 L154.4835 85.6092 L150.0034 85.7875 L150.7037 84.847 L150.9434 84.4225 L151.7021 83.2743 L151.8109 83.0132 L151.8552 82.2974 L152.1271 81.8243 L152.6971 81.7581 L152.8164 81.5434 L152.7792 81.076 L152.4362 79.983 L152.4503 79.7228 L152.5005 79.4569 L152.8353 79.2365 L153.3697 79.1204 L153.6027 78.805 L153.7017 78.4225 L153.3125 78.3481 L153.1737 78.0708 L153.3438 77.7093 L153.5852 77.6572 L153.4921 76.9602 L152.9055 77.4465 L152.2766 76.1015 L152.8502 75.9162 L152.7208 75.4825 L152.9642 75.1574 L153.9739 75.0541 L154.6775 75.0032 L155.7335 74.4582 L156.2208 74.0666 L156.5787 73.9904 L156.8173 73.6854 L156.9338 73.4401 L157.237 73.0655 L158.0391 72.8793 L158.6906 72.4697 L159.0287 72.0895 L159.1926 71.8559 L155.5707 71.0547 L155.4472 70.7134 L155.0681 70.3603 L155.0298 69.9638 L155.1198 69.8091 L154.9474 69.3329 L156.0615 68.9474 L155.8074 68.2937 L155.7024 68.2907 L155.4531 67.9673 L155.0335 67.4709 L154.2971 66.1956 L154.4099 65.8745 L154.3696 65.7128 L152.5614 65.5327 L151.7091 65.6418 L150.9987 65.6502 L150.7607 65.2729 L150.387 64.9649 L157.968 59.5279 L157.8439 59.4884 L157.4795 59.219 L156.9905 58.7616 L156.9606 58.6906 L156.1912 58.0514 L156.2936 56.8027 L156.0025 56.5486 L154.5272 56.4434 L152.3273 59.6374 L150.4095 60.1325 L148.9655 59.6549 L149.3781 58.249 L149.0828 57.781 L149.0981 57.3442 L149.2411 57.0384 L149.8282 56.7142 L149.9695 56.2331 L150.8312 56.0071 L150.9051 55.9536 L151.6045 55.6123 L153.0747 54.9748 L154.2847 54.6975 L154.9049 54.3781 L154.9895 54.2725 L155.0887 53.5219 L155.2348 53.1841 L155.4909 52.9405 L155.8714 52.7289 L156.643 52.4603 L156.9815 52.3052 L157.1501 52.1497 L157.3583 51.7611 L157.4307 51.5385 L157.5289 51.3908 L157.3645 51.3566 L157.2277 51.0447 L157.1374 51.0662 L157.0754 50.8686 L156.9989 50.7371 L156.8475 50.3783 L156.6224 49.7793 L156.5178 49.4257 L156.0756 48.4167 L153.0691 48.7409 L152.0002 46.8262 L155.4128 43.8643 L155.236 43.2259 L155.1327 43.1071 L155.0191 42.7106 L155.0315 42.4876 L154.9615 42.2212 L155.0041 42.1953 L155.131 42.0639 L156.8988 40.525 L157.3887 39.6307 L157.0627 39.2635 L156.92 38.9042 L156.6664 38.8302 L156.4484 38.5813 L154.437 41.1258 L153.9431 38.9073 L153.8633 38.7526 L152.1976 37.4802 L150.9516 36.3501 L150.8808 36.319 L150.6653 36.1617 L150.5268 35.9882 L150.5686 35.798 L150.6566 35.6486 L150.9792 35.3226 L151.8203 34.7753 L152.0699 34.6925 L152.3818 34.6789 L153.0133 35.3568 L156.2908 34.087 L156.3373 33.9568 L156.346 33.7802 L155.1759 33.1291 L155.5792 32.602 L155.5767 32.5533 L155.6494 32.4341 L155.7952 32.2475 L155.8863 32.2006 L156.4902 31.4114 L156.3962 31.3873 L156.3731 31.2822 L155.6018 30.4299 L156.6845 29.745 L156.7976 29.5811 L156.8168 29.4212 L153.3455 27.4064 L153.5683 26.2145 L152.9986 24.8298 L152.2188 25.963 L151.6598 24.9647 L146.4949 26.8499 L145.6291 27.0471 L146.0699 30.6744 L145.4311 32.91 L143.3164 35.0089 L143.874 36.3041 L143.9538 37.5017 L146.9484 39.5782 L147.2507 40.2889 L146.3285 40.7314 L143.3643 42.9266 L146.4752 45.5293 L143.714 47.3695 L142.1262 46.2566 L141.187 50.9054 L138.3046 54.4894 L139.7402 57.9375 L141.6157 58.472 L141.4211 58.6998 L139.1451 63.8477 L136.996 65.0613 L132.5907 70.8969 L127.4689 80.9774 L126.9387 85.6912 M139.7289 98.3861 L140.3832 97.107 L142.7156 97.1289 L145.4674 94.5786 L146.6162 94.0275 L146.7572 94.0275 L146.3539 97.2297 L144.4445 98.7365 L139.7289 98.3861 M176.6217 275.5276 L176.7232 275.5276 L177.5005 275.4116 L178.9327 276.3478 L179.6445 276.5076 L179.9725 277.1637 L179.9085 278.3957 L177.9303 280.7753 L177.0845 278.6277 L177.0527 276.884 L176.6217 275.5276 M185.2068 44.5487 L185.2869 44.3655 L185.4381 44.2016 L185.7215 44.1596 L185.9347 44.2398 L186.0467 44.3305 L186.1392 44.5333 L186.1398 44.6556 L186.1102 44.8181 L186.0402 44.9811 L185.9494 45.0631 L185.8484 45.1244 L185.7269 45.1454 L185.5749 45.1362 L185.4324 45.0556 L185.2796 44.8939 L185.2181 44.7419 L185.2068 44.5487 M188.5215 254.5815 L188.6186 254.4904 L188.7694 254.4388 L188.7866 254.4396 L189.03 254.4537 L189.2094 254.5263 L189.3552 254.8235 L189.7949 255.8544 L190.2087 257.2402 L190.1855 258.4391 L190.2873 259.3193 L190.388 259.7334 L190.3491 259.8673 L190.2326 259.9264 L190.0727 259.9544 L189.5309 259.8923 L189.4037 259.8166 L189.2915 259.6831 L189.1477 258.9407 L188.9818 258.4601 L188.9443 258.3511 L188.9322 257.9944 L188.9401 257.5632 L188.9457 257.2673 L188.8648 256.2921 L188.7756 255.6211 L188.6752 255.2582 L188.5985 255.0989 L188.5303 254.8905 L188.5215 254.5815 M188.9147 260.8815 L189.0873 260.7235 L189.1302 260.6841 L189.2331 260.6561 L189.974 260.6434 L190.2002 260.6675 L190.4873 260.7498 L190.9369 261.0338 L191.0361 261.1612 L191.2494 261.6856 L191.3173 261.7906 L192.419 262.5614 L192.8259 262.9037 L192.8522 262.9952 L192.8632 263.1926 L192.8321 263.4246 L192.7597 263.5712 L192.6705 263.6373 L192.5862 263.6307 L192.4215 263.5686 L192.2839 263.4955 L191.2519 262.9479 L191.006 262.7715 L190.4904 262.2003 L190.3533 262.0537 L190.0519 261.6746 L189.9636 261.5928 L189.1034 261.0531 L188.933 260.9463 L188.9147 260.8815 M191.4671 240.2346 L191.4933 240.1633 L191.5311 240.0609 L191.682 239.9575 L192.0374 239.842 L192.1705 239.7536 L192.3735 239.5342 L192.5072 239.4931 L192.6677 239.508 L192.8175 239.5719 L192.9506 239.6638 L193.016 239.7855 L193.1624 240.0578 L193.2873 240.2907 L193.608 240.7144 L193.8774 241.0147 L194.1732 241.252 L194.3813 241.4695 L194.9302 242.1839 L195.0029 242.3617 L195.1025 243.0572 L195.1155 243.2424 L195.2494 243.4127 L195.5278 243.5922 L195.7295 243.702 L195.8578 243.875 L196.0434 244.1963 L196.2701 244.6174 L196.2151 245.1689 L196.1091 245.4097 L196.0891 245.4556 L195.8942 245.6579 L195.7543 245.7275 L195.6082 245.7586 L195.5377 245.7139 L195.4629 245.2876 L195.2475 244.5443 L194.7863 243.9078 L194.4662 243.5874 L194.1757 243.108 L193.6952 242.3144 L193.0138 241.5133 L192.4542 241.1066 L191.5032 240.4159 L191.4899 240.3498 L191.4671 240.2346 M196.9391 61.2186 L197.1695 60.7077 L197.3743 60.4405 L197.5898 60.267 L197.4747 60.0654 L197.2587 59.8284 L197.3844 59.1826 L197.6236 58.6266 L197.8972 58.1889 L198.3806 57.8218 L199.2492 57.4262 L200.09 57.1068 L200.4786 57.0494 L202.4639 56.2432 L203.4634 56.0741 L203.993 55.9269 L204.4265 55.8747 L204.3887 56.0404 L203.6557 56.3628 L203.0894 56.6314 L201.9263 57.5357 L201.4539 57.9729 L201.5828 58.0842 L202.1787 57.6238 L202.6912 57.3399 L203.3328 57.1712 L203.8932 56.9157 L204.7576 56.5639 L205.0216 57.0397 L205.1195 57.2654 L205.1835 57.4135 L204.7796 57.7675 L204.0088 58.2858 L203.2186 58.8597 L202.1807 58.8023 L201.6186 58.6446 L201.3696 58.5522 L200.922 58.5627 L200.1419 58.8996 L199.7357 58.9373 L199.3245 59.5642 L199.2081 59.6816 L198.8592 59.9436 L197.9564 60.0698 L197.9479 60.2184 L198.5179 60.1767 L198.7345 60.2902 L199.0087 61.2799 L199.1596 61.6348 L199.421 61.7338 L200.4927 63.5021 L201.2776 64.0116 L201.4093 64.1483 L202.0163 64.6977 L202.2986 64.9536 L202.8765 65.5341 L202.9946 65.6804 L203.2885 66.1128 L203.2984 66.1479 L203.3195 66.3879 L203.3446 67.3509 L203.3965 67.9669 L203.7206 69.0841 L203.6453 69.1953 L203.5088 69.2129 L202.2061 68.5088 L201.767 68.2946 L201.6302 68.1566 L201.3783 68.1483 L201.4931 68.4251 L201.9322 68.5636 L202.3358 68.6517 L203.5249 69.3141 L203.6904 69.6111 L203.797 69.9603 L203.8204 71.0406 L203.8608 71.9707 L204.0145 72.5424 L204.2584 72.9556 L204.2869 73.2495 L204.1783 73.5216 L203.8932 73.7577 L203.6845 73.8226 L203.5051 73.8186 L203.2806 72.8412 L203.0886 72.5525 L202.7388 72.5039 L202.1539 72.3725 L202.1082 72.0049 L202.0323 71.594 L202.0092 71.2189 L202.0056 70.8128 L202.0594 70.3936 L201.9675 70.0615 L201.7495 69.7846 L201.4141 69.1914 L201.2675 68.5846 L201.1958 67.7943 L200.9107 67.0136 L200.0104 65.2212 L199.7654 64.5185 L199.2961 63.8824 L198.3507 62.7428 L197.1362 61.7417 L196.9391 61.2186 M198.1129 264.8572 L198.1919 264.662 L198.3058 264.5679 L199.7078 263.9577 L200.1563 263.854 L200.4191 263.8811 L201.2923 264.0785 L202.5155 264.4838 L203.2378 264.6572 L204.0382 264.8979 L204.8067 265.1395 L205.1739 265.2769 L205.3643 265.2748 L205.8674 265.2157 L206.1156 265.2284 L206.6303 265.319 L207.7043 265.4809 L208.4063 265.6017 L209.4808 265.8429 L210.019 265.9816 L211.043 266.4342 L211.4974 266.6215 L212.4244 267.1135 L212.9434 267.3346 L214.5876 267.9268 L215.6523 268.2476 L215.7053 268.3067 L215.7908 268.4726 L215.8813 268.5181 L216.0063 268.5303 L216.132 268.5465 L216.2181 268.5128 L216.3571 268.4117 L216.4431 268.378 L218.0036 268.4756 L218.1288 268.5028 L218.3536 268.6673 L218.8661 269.186 L219.2711 269.6552 L220.329 271.7535 L220.424 271.9382 L220.351 272.0581 L220.2345 272.1522 L219.2733 272.2555 L218.8951 272.2231 L218.5434 272.2109 L217.9768 272.041 L217.5634 271.7592 L217.2128 271.4996 L216.9584 271.3963 L216.6008 271.3447 L216.22 271.4243 L216.0424 271.3806 L215.4862 271.0497 L214.8812 270.5074 L214.3947 270.1656 L213.8278 269.741 L213.3893 269.4753 L212.5028 268.786 L211.8214 268.3912 L211.2185 268.0397 L210.7593 267.8213 L210.1888 267.5762 L208.8607 267.2111 L206.7409 266.636 L204.3329 266.1738 L202.4261 265.7409 L200.7099 265.4367 L199.6043 265.2761 L198.5743 265.1671 L198.1947 265.0752 L198.1169 264.9841 L198.1129 264.8572 M201.6558 102.077 L201.9207 101.837 L202.4427 101.3635 L203.2022 101.0844 L206.6591 100.4331 L207.4776 100.2785 L207.7785 100.2219 L209.8105 99.0822 L210.7286 98.4295 L211.6502 97.4373 L212.3776 96.6992 L212.9823 96.2344 L213.3828 96.0163 L213.5794 96.181 L213.0565 96.5739 L213.2172 97.3738 L213.4555 97.7553 L215.4332 96.4679 L216.1645 97.485 L216.5613 97.7855 L216.7903 98.132 L217.2833 98.8202 L217.8759 99.3809 L218.5372 100.154 L219.4299 100.9307 L219.7677 101.5155 L218.1068 102.4621 L217.9523 103.2795 L217.7774 103.8301 L217.6539 104.2195 L217.1538 105.0395 L216.7821 105.333 L216.2618 105.5384 L215.324 105.4836 L214.5044 105.4359 L212.7341 105.4788 L211.9331 105.6685 L211.056 106.4679 L210.1693 106.8227 L209.2076 107.181 L207.644 107.7058 L206.2459 108.2147 L205.8122 108.3724 L205.3045 107.2362 L204.2376 105.8012 L202.9191 103.9277 L201.6558 102.077 M202.0245 74.4701 L202.0504 74.4136 L202.1017 74.3023 L202.3536 74.287 L203.2984 74.1503 L204.0334 73.8914 L204.3837 73.7166 L204.6835 73.8256 L205.2577 75.1119 L205.41 75.3861 L205.5786 75.7655 L205.8976 76.381 L206.0804 76.9663 L205.9131 77.0408 L205.6909 76.9917 L205.5107 76.781 L205.0789 76.5615 L204.5114 76.6189 L204.0232 77.1341 L203.6862 77.2669 L203.4462 77.2112 L203.3892 77.1981 L203.1128 76.6513 L203.0291 76.3697 L202.9185 75.7129 L202.6458 75.2657 L202.2241 74.7605 L202.1415 74.6589 L202.0245 74.4701 M203.02 269.2206 L203.6208 269.33 L205.0394 269.8333 L209.1599 270.3805 L208.9681 271.4309 L207.9725 273.6412 L203.02 269.2206 M203.447 45.6134 L203.601 44.8435 L203.9634 43.5742 L204.0571 42.1638 L204.3839 40.6928 L204.666 39.5199 L205.2047 39.838 L206.3128 40.7446 L206.568 41.0552 L205.8175 44.3953 L205.6133 46.0901 L205.9568 48.8754 L206.3052 50.0847 L206.603 50.9233 L206.9922 51.3527 L207.5546 51.8465 L207.6626 52.0204 L207.8253 52.2824 L207.9686 52.7662 L207.9754 53.2157 L207.7478 53.7699 L207.5977 54.3356 L207.3213 55.0007 L207.0658 55.6154 L206.3779 56.5569 L206.1258 56.7392 L205.3206 57.3214 L205.2413 57.2018 L204.7373 56.4399 L205.1014 55.9961 L205.8249 55.5356 L205.6173 55.0734 L206.0632 54.1345 L206.0468 53.1399 L205.5039 51.9052 L206.2341 52.4047 L206.3889 52.225 L205.8798 51.9179 L205.3524 51.4189 L204.8329 50.639 L204.8028 49.4796 L204.8293 47.7406 L204.4155 47.766 L204.4796 48.3781 L204.1566 48.4487 L203.8407 48.3628 L203.6261 47.5233 L203.6191 46.587 L203.447 45.6134 M203.9919 36.9382 L204.3769 35.3305 L204.9452 34.0046 L205.7986 31.45 L206.2141 31.4364 L206.8856 31.3312 L207.7525 31.0512 L208.7887 30.8606 L209.3906 30.794 L209.4103 31.0039 L209.2016 31.4934 L208.8406 32.0328 L208.1908 32.7842 L207.8563 33.449 L207.6654 34.0182 L207.8118 34.877 L207.9926 35.412 L207.6451 36.2261 L207.0875 37.0499 L206.5528 36.9623 L206.227 36.7103 L206.2583 36.2358 L206.6078 35.2788 L206.6563 34.9524 L206.4013 34.8901 L205.5234 35.465 L205.2219 35.724 L204.1989 37.1928 L203.9919 36.9382 M205.0938 38.5217 L205.2915 37.7466 L205.6607 37.3189 L205.9222 37.2778 L206.2028 37.5152 L206.3641 37.6125 L206.942 37.5705 L207.5407 37.1949 L208.0721 36.6836 L208.5775 35.4913 L208.5369 35.1548 L208.1891 34.2543 L208.2283 33.8806 L208.4746 33.2027 L209.1356 32.4451 L209.7395 31.9407 L210.1002 31.2129 L211.0162 31.4 L211.9509 31.5521 L212.0603 31.8023 L212.093 31.8768 L211.8488 32.0945 L211.3234 32.4999 L210.9308 32.9902 L210.008 34.0826 L209.3779 35.5154 L209.3342 35.6591 L209.1407 36.2923 L208.5126 37.726 L207.8518 38.4595 L207.6513 38.6821 L207.204 39.4761 L206.8213 39.9147 L206.5065 39.9274 L205.8153 39.5466 L205.1607 38.7921 L205.0938 38.5217 M205.6968 81.9907 L205.7411 81.8418 L205.7919 81.6705 L206.1193 81.4896 L206.4575 81.2372 L207.206 80.5324 L207.4288 80.8373 L207.7861 81.419 L208.1714 81.9246 L209.0761 84.5614 L209.0598 84.6604 L209.0352 84.8071 L208.8457 84.7651 L208.3648 84.5377 L206.2394 83.3006 L206.0556 82.9387 L205.7893 82.4823 L205.6968 81.9907 M212.3209 290.4484 L212.3325 290.2703 L212.3838 289.8878 L212.4752 289.4554 L212.5618 289.1906 L212.7152 288.9075 L213.0029 288.4545 L213.0723 288.3455 L213.6115 287.7656 L214.0092 287.5293 L214.6655 287.2033 L215.2087 286.9945 L215.392 286.9459 L215.6667 286.9227 L215.8458 286.9542 L216.3032 287.0855 L216.4287 287.1013 L216.889 287.0728 L217.0613 287.0816 L217.1899 287.1932 L217.2551 287.3302 L217.2582 287.5289 L217.1352 288.0379 L216.9697 288.3508 L216.6741 288.6961 L216.552 288.7775 L216.4079 288.8733 L215.8954 289.0773 L215.2834 289.3806 L214.8928 289.6769 L214.4099 290.1193 L213.9742 290.4686 L213.5963 290.8086 L213.3072 290.9933 L213.0536 291.073 L212.7361 291.0751 L212.5482 291.0126 L212.383 290.7185 L212.3209 290.4484 M212.8334 270.6221 L212.8613 270.4185 L212.896 270.3096 L213.057 270.2483 L213.7576 270.5367 L214.2162 270.8273 L215.1444 271.7093 L215.5073 271.9986 L215.7191 272.1089 L216.1298 272.1439 L216.2965 272.1934 L216.5221 272.2892 L216.7232 272.4328 L217.0825 272.5715 L217.2833 272.6875 L217.5701 272.7698 L217.8832 272.8919 L218.212 273.0394 L218.4794 273.2245 L218.7169 273.4224 L218.7713 273.5174 L218.7581 273.6351 L218.5815 273.9297 L218.0552 274.7052 L217.6846 275.409 L217.5239 275.6012 L217.331 275.6874 L217.1561 275.6869 L217.0814 275.6677 L216.9161 275.6252 L216.7111 275.4821 L216.6857 275.4445 L216.6281 275.3596 L216.3286 274.2557 L216.1492 273.7419 L216.0852 273.6128 L215.9713 273.4675 L215.6393 273.1488 L215.3085 272.8862 L215.062 272.7575 L214.7726 272.6359 L214.085 272.3019 L213.8087 272.1102 L213.464 271.8099 L213.2722 271.5491 L212.9067 270.9136 L212.8534 270.7744 L212.8334 270.6221 M213.1619 124.5971 L213.2466 122.1707 L219.4739 119.5427 L219.9815 117.8651 L223.6615 111.8109 L223.8096 111.5363 L224.1266 111.1994 L224.7992 110.6953 L225.5043 110.2975 L226.8848 109.8972 L229.065 109.7303 L230.6429 109.8056 L231.2315 109.7807 L231.4058 109.8293 L231.4295 109.8893 L232.1428 109.8714 L233.2568 107.3965 L233.4994 106.5117 L233.7391 106.5161 L237.7778 109.4815 L235.6682 111.711 L231.3841 112.9112 L227.6303 113.1915 L223.9159 116.5817 L222.4775 121.2947 L219.911 124.2862 L217.4672 124.6396 L217.4816 124.6961 L217.0289 124.8827 L216.1907 124.824 L214.3662 125.0877 L213.1619 124.5971 M214.3651 280.8576 L214.441 280.0729 L214.4793 279.9385 L214.5704 279.8335 L215.2205 279.2137 L216.0266 278.3222 L216.1617 278.2338 L216.4169 278.2136 L216.6169 278.2224 L216.7232 278.2657 L216.8566 278.4885 L216.9186 278.5922 L216.9815 278.6382 L217.0512 278.6395 L217.1169 278.6408 L217.2258 278.5997 L217.3626 278.4587 L217.6308 278.1419 L217.8615 277.7112 L217.9041 277.5252 L217.9599 276.891 L217.9576 276.2424 L217.9844 276.031 L218.0767 275.7574 L218.2109 275.6769 L218.3277 275.6344 L218.4825 275.6099 L219.7562 275.5495 L219.9158 275.5801 L220.0264 275.6265 L220.1471 275.7478 L220.199 276.0795 L220.2929 276.8752 L220.296 276.9825 L220.2994 277.1037 L220.2441 277.3252 L220.1301 277.4862 L220.0103 277.6088 L218.1466 278.9769 L217.9949 279.0487 L217.8516 279.071 L217.8268 279.0706 L217.7639 279.0689 L217.6229 278.9038 L217.5329 278.8623 L217.3941 278.864 L217.261 278.9008 L217.1113 278.9603 L216.9832 279.0562 L216.8803 279.1599 L216.752 279.3411 L216.4922 279.8422 L216.1109 280.388 L215.6633 280.8287 L215.3466 281.0896 L215.1195 281.2371 L214.921 281.2878 L214.6962 281.2992 L214.5194 281.2121 L214.4387 281.1009 L214.4229 281.0629 L214.3942 280.9924 L214.386 280.9539 L214.3651 280.8576 M214.9371 282.8669 L214.9461 282.7457 L214.9703 282.6463 L215.0414 282.4919 L215.0998 282.4069 L215.3971 282.1492 L215.4972 282.1295 L215.601 282.133 L215.6932 282.2144 L215.8153 282.5137 L215.903 282.719 L216.0147 283.0521 L216.0407 283.1676 L216.0486 283.3453 L216.0237 283.6442 L215.9279 283.8941 L215.8652 283.9685 L215.6757 284.0315 L215.5234 284.0254 L215.3689 283.9799 L215.3122 283.9191 L215.1785 283.6105 L214.9729 283.1435 L214.952 283.0634 L214.9371 282.8669 M217.811 285.092 L217.9275 284.9012 L219.3802 284.6552 L222.3675 283.9256 L222.7006 283.8932 L223.0427 283.9199 L223.3357 284.0136 L223.5571 284.1589 L223.7029 284.4561 L223.8953 285.306 L224.3606 287.0129 L224.3285 287.6978 L223.9909 288.5911 L223.866 288.8103 L223.4455 289.2256 L222.8887 289.5521 L222.2993 289.7202 L221.9856 289.7215 L221.3353 289.5491 L220.4381 289.1202 L220.2695 288.9556 L220.0766 288.6037 L220.0015 288.0536 L219.9333 287.3061 L220.0283 287.1512 L220.3042 287.0081 L220.8578 286.861 L221.2275 286.6829 L221.3463 286.4242 L221.3006 286.2763 L221.1232 286.2089 L220.9306 286.1953 L220.3233 286.2745 L219.2843 286.3104 L218.8855 286.2282 L218.5245 286.0754 L218.1844 285.8299 L217.8694 285.4653 L217.811 285.092 M224.7225 378.5889 L225.1461 377.9677 L225.0062 375.9165 L225.7852 375.8001 L227.3849 376.3885 L228.0023 376.6357 L230.5989 377.676 L231.7812 378.1602 L232.2378 378.3217 L232.1623 378.7718 L231.6901 380.0011 L230.5586 380.138 L229.5396 380.0208 L227.9284 380.4915 L225.6081 380.7588 L225.4439 379.0225 L224.9112 378.7022 L224.7225 378.5889 M230.9055 303.9381 L230.9216 303.8593 L231.0164 303.8308 L231.1345 303.8505 L231.4199 303.9599 L231.4727 303.9801 L231.8594 304.3455 L232.0963 304.4636 L232.2971 304.5275 L232.4731 304.6951 L233.1528 305.405 L233.3527 305.4649 L233.5552 305.489 L234.1351 305.4759 L234.4933 305.4527 L234.8278 305.4645 L235.0624 305.4916 L235.7988 306.0303 L236.52 306.5966 L236.5893 306.7091 L236.6672 307.0871 L236.8471 307.418 L237.2741 307.6972 L237.5313 307.7851 L238.0088 307.8643 L238.0692 307.9466 L238.0852 308.151 L238.0503 308.2424 L237.5116 308.4809 L237.3034 308.5396 L236.0405 308.7247 L235.3588 308.7037 L234.7491 308.6455 L234.0251 308.5151 L233.0351 308.1575 L232.6572 307.9278 L232.3247 307.6057 L232.0791 307.2022 L231.907 306.8631 L231.7606 306.3323 L231.5141 306.036 L231.4033 305.489 L231.2152 304.773 L231.1218 304.507 L230.925 304.0632 L230.9055 303.9381 M232.9291 34.0037 L233.1059 33.5051 L234.4349 33.0016 L235.1682 32.4758 L235.6961 32.1655 L236.3815 32.0976 L237.3514 31.8137 L238.0252 31.5205 L238.9531 31.5543 L239.9134 31.4395 L240.4098 31.485 L240.6766 31.7804 L240.7347 31.8448 L240.9769 32.2641 L241.0376 32.8136 L240.9318 33.8359 L240.7629 33.977 L240.5976 34.1154 L239.6251 34.2802 L237.8729 34.377 L237.2355 34.3323 L235.6973 34.2868 L235.1744 34.3249 L235.1834 34.7902 L236.1883 34.8078 L236.7134 34.7333 L236.8071 36.2498 L236.7645 36.7668 L237.4058 38.9875 L237.6357 40.2976 L237.8026 41.5565 L237.9081 41.9701 L238.0906 41.9613 L239.1333 41.9526 L239.2709 42.2001 L239.2306 42.7693 L239.2235 42.8679 L238.3024 44.8922 L238.2147 45.2497 L238.1481 45.5209 L237.9665 48.6607 L237.9245 49.2645 L237.8167 49.3832 L237.7581 49.3841 L237.4639 49.3876 L235.6276 49.2698 L235.094 49.1155 L235.0162 49.0595 L234.7578 48.8732 L234.6602 48.6813 L234.7967 48.333 L234.8929 48.1897 L235.4226 47.4011 L235.9082 46.6391 L236.2123 46.3837 L236.3485 45.8368 L236.36 45.7904 L236.2932 45.3378 L236.2771 45.106 L236.1113 44.6814 L235.8126 44.0663 L235.7458 43.6382 L235.6764 42.9393 L235.5348 41.9048 L235.3681 41.3724 L234.8918 40.0794 L234.6588 39.3507 L234.2439 38.3232 L233.7227 37.2309 L233.7738 36.3313 L233.3051 35.1127 L232.9325 34.7885 L232.9291 34.0037 M233.8494 323.5513 L234.3737 323.0428 L236.4779 320.8527 L237.1813 319.9338 L237.8396 319.042 L238.6485 317.9909 L239.4427 317.0501 L240.2569 316.237 L240.8599 315.7998 L241.9198 315.1281 L242.985 314.403 L243.2919 314.1558 L243.4222 313.9479 L243.491 313.7781 L243.5804 313.4097 L243.584 313.1782 L243.5474 312.8929 L243.3996 312.2514 L243.3065 312.0107 L243.1212 311.8409 L242.6892 311.6181 L242.415 311.3621 L242.0568 310.9766 L241.9815 310.8248 L241.9917 310.6602 L242.0777 310.5508 L242.2562 310.3955 L242.611 310.2524 L242.7848 310.2209 L243.0157 310.2244 L243.2154 310.3088 L243.3139 310.4047 L244.0886 311.3985 L244.6304 312.3249 L244.6907 312.4824 L244.7322 312.7747 L244.7034 312.9467 L244.6039 313.2491 L244.4406 313.5773 L244.3176 313.7558 L243.595 314.4704 L242.4108 315.8392 L241.1521 317.1122 L240.0174 318.3655 L238.2959 319.6511 L237.9358 319.9386 L237.379 320.4681 L235.7723 322.2337 L234.5415 323.6335 L234.2152 323.9595 L234.1176 324.0225 L233.8494 323.5513 M236.1248 57.7302 L236.4215 57.6198 L236.6122 57.5927 L236.9856 57.5392 L237.597 57.3035 L238.4367 57.2833 L239.2588 57.2259 L240.0609 57.0402 L240.7524 57.0673 L241.31 57.1712 L241.5985 56.9306 L241.9928 56.8088 L242.9385 56.7865 L243.6703 56.8566 L244.5145 57.0213 L244.9897 57.2075 L244.9756 57.3731 L245.5191 57.5431 L245.723 57.4993 L246.8497 58.0768 L247.5224 58.3532 L248.3123 58.6345 L248.6446 58.8234 L248.7032 59.1191 L248.5625 59.2681 L248.1067 59.346 L247.4631 59.6304 L246.5829 59.9003 L246.1184 60.1391 L245.8578 60.2731 L245.5918 60.3406 L245.1158 60.4615 L243.0112 61.3592 L241.402 62.2442 L240.5894 62.5912 L239.4314 62.7586 L239.1474 62.7104 L238.9646 62.6797 L238.7632 62.5211 L238.2782 61.354 L238.3749 60.8098 L237.9998 60.5338 L237.8387 59.5143 L237.3127 59.2023 L236.5857 59.1559 L236.4712 59.1484 L236.2453 58.9938 L236.1917 58.8115 L236.1248 57.7302 M236.8308 34.6969 L236.9757 34.6763 L237.7471 34.6548 L238.4736 34.7482 L240.1641 34.8533 L240.5189 35.0369 L240.5516 36.4947 L240.6633 39.5286 L240.3424 39.8419 L240.0939 40.2218 L239.9647 41.1415 L239.756 41.1849 L239.5795 41.2217 L239.3487 39.7946 L239.0377 38.7189 L238.3676 36.9978 L238.0599 35.9453 L237.7313 36.057 L237.735 36.7423 L237.8774 37.2979 L238.1518 37.7812 L238.717 38.881 L239.0791 39.9528 L239.096 41.5131 L239.1333 41.8746 L237.9769 41.9088 L238.0037 41.8137 L237.9222 41.5587 L237.9789 41.1582 L237.9451 40.9921 L237.94 40.1434 L237.6267 38.442 L237.0316 36.3019 L236.8308 34.6969 M237.194 394.6158 L237.4566 394.0095 L237.8261 393.8078 L238.1574 393.31 L238.2516 392.8214 L238.3069 392.7483 L238.5131 392.4763 L238.9804 392.3013 L240.1875 392.1701 L240.6182 392.2903 L240.6924 392.4286 L240.1754 394.0392 L240.1554 394.0611 L240.0428 394.0576 L239.9509 394.142 L239.9585 394.2816 L240.0806 394.3362 L239.7602 395.3397 L239.3451 396.3104 L239.1206 396.8353 L239.0884 396.9101 L238.6287 396.7115 L238.4702 396.5645 L237.5282 395.7137 L237.2104 395.103 L237.194 394.6158 M243.6311 54.4144 L244.0401 54.2554 L244.3066 54.1515 L245.0667 54.007 L245.8942 53.8895 L247.0367 53.8501 L249.0092 53.8935 L249.0121 54.1292 L249.0174 54.5577 L247.7167 54.8092 L246.4221 54.8473 L244.8329 54.828 L244.5376 54.8907 L243.9747 55.0103 L243.9307 54.8298 L243.8274 54.6269 L243.6311 54.4144 M244.279 55.4055 L244.585 55.2881 L244.8411 55.278 L246.0451 55.2618 L247.0832 55.2004 L248.5808 55.0729 L249.3147 55.0616 L249.7276 54.8543 L249.8725 54.8276 L250.207 54.7658 L250.2806 55.2368 L250.2217 55.7525 L250.0796 56.4964 L249.828 56.592 L248.5597 56.6954 L247.9454 56.8417 L247.3074 56.8785 L246.2642 56.8268 L245.9715 56.7216 L245.6491 56.606 L245.1417 56.3225 L244.7192 55.9343 L244.5441 55.7025 L244.279 55.4055 M247.0201 48.4649 L248.1595 47.4484 L249.6966 45.2883 L249.2904 43.6802 L249.6627 43.6627 L252.2969 44.206 L252.4661 45.2751 L252.5197 46.2741 L250.1196 47.4265 L250.7091 48.903 L248.8646 48.903 L247.0201 48.4649 M253.0203 221.5904 L253.1213 221.2923 L253.2778 221.1478 L253.5996 220.9171 L254.0012 220.8142 L254.717 220.802 L254.9799 220.8567 L255.3815 221.0125 L255.562 221.3549 L256.0728 221.6732 L256.4978 221.7699 L256.9679 221.882 L257.1781 221.9341 L257.8634 221.9888 L258.3798 222.0483 L258.5521 222.0059 L258.7854 221.9485 L258.9819 221.8579 L259.1839 221.8544 L259.3201 222.0203 L259.3207 222.0663 L259.3221 222.16 L259.2451 222.4323 L259.0843 222.7186 L258.3835 223.0636 L257.6682 223.2676 L256.6743 223.2877 L255.628 223.3565 L254.983 223.4738 L254.6051 223.5727 L254.3493 223.6647 L254.0808 223.6511 L253.8207 223.5364 L253.5198 223.0855 L253.4603 222.7046 L253.4513 222.4428 L253.359 222.2585 L253.1608 222.0821 L253.0336 221.8794 L253.0203 221.5904 M255.7411 219.6589 L255.7512 219.4606 L255.8505 219.341 L256.1247 219.2307 L256.3903 219.1769 L256.9781 219.1265 L258.3355 219.4457 L258.7306 219.6689 L259.0457 219.6475 L259.3311 219.556 L259.3807 219.2758 L258.7118 219.127 L258.3575 219.179 L258.1719 219.1366 L257.985 219.0346 L257.2852 218.8717 L256.9801 218.8573 L256.8289 218.8293 L256.6853 218.75 L256.6811 218.7391 L256.6397 218.6349 L256.9662 218.3866 L257.0963 218.3192 L257.3512 218.3328 L257.6541 218.3893 L258.0084 218.4773 L258.7947 218.6962 L259.0821 218.7404 L259.2414 218.8612 L259.5821 219.0657 L259.9115 219.3143 L260.171 219.6589 L260.3137 220.1531 L260.3239 220.5178 L260.2125 220.7043 L260.0272 220.7897 L259.8458 220.9775 L259.4146 221.1925 L258.9743 221.3255 L258.3826 221.4613 L257.6987 221.2209 L256.8492 220.819 L256.524 220.5975 L256.1977 220.3107 L255.7411 219.6589 M256.7406 211.4641 L256.8286 211.1095 L256.8991 210.8257 L257.1823 210.2294 L257.3786 209.9584 L257.5935 209.7557 L258.2236 209.1796 L258.4545 208.8766 L258.6226 208.5272 L259.0883 207.7173 L259.3054 207.6831 L259.4597 207.8061 L259.6506 208.0115 L259.5336 208.2199 L259.3898 208.5544 L259.011 209.1318 L258.67 209.6958 L258.1102 210.44 L257.8473 211.1471 L257.7201 212.4461 L257.8183 213.1518 L258.6494 214.7345 L260.0692 216.3443 L260.8098 217.1726 L261.0044 217.7081 L261.2774 218.2352 L261.0696 218.6104 L260.6916 218.785 L260.4891 218.768 L260.3938 218.7601 L260.1755 218.5832 L259.7852 218.1183 L259.2047 217.1849 L259.1486 217.0947 L258.3152 216.0304 L257.9539 215.6246 L257.7083 215.1973 L257.6995 215.1154 L257.6564 214.7113 L257.6905 214.3794 L257.5735 214.0787 L257.3566 213.7582 L257.1434 213.6124 L257.048 213.436 L257.0698 213.2175 L257.0232 212.894 L256.9287 212.4667 L256.7629 211.887 L256.7406 211.4641 M261.2261 204.9432 L261.505 204.8197 L262.0448 204.536 L263.473 204.1407 L263.8682 204.0986 L264.0811 204.0649 L264.4404 204.0409 L264.9227 203.8815 L265.1235 203.9213 L265.2792 203.8092 L265.6461 203.6118 L266.0418 203.4695 L266.433 203.4283 L266.5791 203.3451 L266.5743 203.1858 L266.5362 203.1179 L266.4916 203.0387 L266.2435 202.9778 L266.2121 202.9095 L266.1834 202.8469 L266.3427 202.7221 L266.5593 202.7081 L267.3203 202.8688 L267.7797 203.1367 L268.0992 203.5268 L268.2414 204.1849 L268.3576 204.547 L268.2572 204.9226 L267.9534 205.2707 L267.3806 205.5277 L265.9391 205.8136 L265.3494 205.8027 L263.2141 205.614 L262.7003 205.6345 L261.8841 205.3141 L261.472 205.2711 L261.2988 205.2309 L261.2554 205.0588 L261.2261 204.9432 M267.888 230.6363 L267.9599 230.2305 L268.5491 229.7559 L269.9578 228.7215 L270.6722 228.2259 L270.8178 228.1252 L271.7183 227.6331 L272.4798 227.3188 L272.7263 227.0408 L272.9034 226.6468 L272.8529 226.4595 L272.8086 226.2949 L272.7392 226.1727 L272.5125 225.7717 L271.9377 225.4237 L271.4893 225.0953 L270.8524 224.4505 L270.3231 224.0512 L270.4153 223.8376 L270.578 223.1748 L270.8245 223.1003 L271.3457 223.4606 L271.8108 223.6852 L272.2866 223.9146 L273.6361 224.5118 L274.0002 224.7722 L275.1656 225.3834 L276.1014 226.0099 L276.9689 226.1206 L278.1176 226.1994 L278.5649 226.1788 L279.202 226.1491 L279.3326 226.1736 L279.8155 226.2638 L280.2413 226.3167 L280.4901 226.4849 L280.0879 226.8867 L278.6949 228.1318 L276.9475 229.8229 L276.6852 230.0015 L275.2606 231.2408 L274.086 232.0209 L272.9917 232.7472 L272.099 233.5129 L271.485 234.0601 L271.0135 234.0942 L269.856 232.9889 L268.8382 231.7863 L268.2391 231.155 L267.888 230.6363 M276.5004 203.6521 L276.5312 203.5422 L276.8736 203.3999 L277.3257 203.3819 L277.8714 203.3793 L278.4487 203.4857 L278.59 203.6416 L278.6848 203.8911 L278.8261 204.0781 L278.8111 204.2191 L278.6882 204.5641 L278.4555 204.8311 L278.2691 204.9415 L278.0195 204.9113 L277.8158 204.7247 L277.6122 204.5382 L277.3931 204.4139 L277.1424 204.1494 L276.8916 203.8846 L276.5004 203.6521 M283.5487 206.8547 L283.5789 206.6201 L283.6864 206.3066 L284.0742 205.8666 L284.3996 205.4581 L284.6992 205.2221 L285.0037 205.1 L285.2229 205.0697 L285.4759 205.0452 L285.6541 205.0789 L285.7695 205.1319 L285.8831 205.212 L285.9212 205.3184 L285.9376 205.4235 L285.9421 205.5452 L285.8843 205.6131 L285.6476 205.8101 L285.1651 206.103 L284.7071 206.4266 L284.5768 206.6148 L284.3288 206.9445 L284.0964 207.2273 L283.8939 207.2908 L283.6596 207.1512 L283.5487 206.8547 M286.8514 208.3158 L286.8793 207.909 L287.0626 206.9787 L287.2414 206.2808 L287.4326 206.0295 L287.7132 205.9178 L288.0779 205.9126 L288.4505 206.0562 L288.6702 206.191 L288.9093 206.2002 L289.2577 206.1656 L289.5713 206.0369 L289.9529 206.1643 L290.3536 206.4682 L290.8602 206.9384 L291.3063 207.4821 L291.4702 207.7435 L291.7635 207.9681 L291.9395 208.2553 L292.2427 208.6463 L292.3236 208.8328 L292.3521 208.9401 L292.2822 209.0268 L292.1293 209.0145 L291.662 208.8451 L291.4 208.9208 L291.1634 209.1073 L290.9228 209.3792 L290.7578 209.4169 L290.2623 209.1958 L290.0488 209.2015 L289.8392 209.1822 L289.4697 208.8775 L289.2658 208.5631 L288.8357 208.4033 L288.0054 208.3779 L287.6952 208.4029 L287.4997 208.4734 L287.2442 208.5171 L287.0132 208.462 L286.8925 208.353 L286.8514 208.3158 M264.9058 0.6346 L264.9627 0.6692 L264.9997 0.6574 L264.9058 0.6346" stroke-dasharray="" fill="none" fill-opacity="1.0" stroke="#ff0000" stroke-opacity="1.0" stroke-width="1.0px" stroke-linecap="butt" stroke-linejoin="miter" stroke-dashoffset="0.0px"/>
</g>
</svg>