<?xml version="1.0" standalone="no"?>
<!DOCTYPE svg PUBLIC "-//W3C//DTD SVG 1.1//EN" "http://www.w3.org/Graphics/SVG/1.1/DTD/svg11.dtd">
<svg width="512px" height="512px" version="1.1" xmlns="http://www.w3.org/2000/svg" xmlns:inkscape="http://www.inkscape.org/namespaces/inkscape">
<g id="layer" inkscape:groupmode="layer" inkscape:label="layer">
<path d="M0.0 429.5425 L2.1639 430.5543 L5.1807 431.9273 L5.5534 432.1068 L6.0067 432.3028 L7.2149 432.8254 L9.7508 437.1535 L16.2059 448.0002 L16.9397 449.1467 L17.2824 450.4172 L17.5448 450.8457 L18.1795 451.627 L19.1629 453.3197 L20.2417 455.1971 L21.6747 457.5925 L28.7359 469.128 L28.8508 469.1923 L32.8724 470.1962 L33.7007 469.9252 L34.24 469.6593 L35.1963 469.0133 L35.7346 468.627 L36.8025 467.9286 L38.6721 466.5893 L44.2558 462.5281 L46.3831 461.1039 L47.1288 460.7516 L47.4047 460.66 L47.59 460.804 L47.5301 460.2115 L47.5676 458.7688 L60.6928 458.8788 L71.2005 460.2563 L79.0063 459.7265 L78.9728 461.3832 L78.2064 470.35 L91.5462 473.6298 L94.9183 474.5787 L109.0107 482.7376 L113.3023 482.6672 L121.8498 481.4483 L127.4829 481.2534 L133.2641 481.8263 L141.1016 481.3341 L149.4967 480.1985 L156.4331 477.9191 L162.0221 471.9012 L166.7199 464.6698 L184.8955 459.3155 L186.1761 457.2479 L185.9621 455.1544 L195.1569 449.3628 L194.7408 447.188 L196.7894 445.881 L196.1712 445.0153 L194.1933 445.2802 L192.8864 445.0153 L192.5364 441.8426 L190.8212 440.0732 L188.4345 441.0659 L176.0233 448.7404 L175.1871 449.2393 L159.6752 455.4003 L148.1654 456.5278 L144.9428 458.2405 L145.3214 461.5015 L141.1898 463.2713 L141.0055 461.8723 L141.0087 459.583 L138.1479 460.8123 L117.8786 460.8123 L116.9601 459.3155 L117.9806 454.0023 L114.389 450.5252 L100.289 451.0499 L96.618 447.5131 L96.4142 444.8878 L96.0531 442.2511 L96.9008 441.2233 L111.6776 439.9003 L128.4409 437.9647 L131.038 439.9307 L134.6007 438.6298 L135.4639 440.5567 L140.2065 439.8283 L137.5231 436.9457 L147.236 433.2369 L149.3805 433.4324 L148.599 431.4658 L148.2826 429.0913 L151.788 426.6906 L158.4755 422.5655 L166.5961 418.5041 L170.2908 415.4005 L170.7283 415.2148 L170.9782 415.3012 L171.5705 416.5678 L181.0322 410.3492 L180.142 410.5118 L178.9431 410.696 L178.4723 410.8256 L177.6348 410.8683 L176.9737 410.7124 L175.9048 410.3498 L175.0861 410.039 L174.4411 409.8667 L170.7432 410.9162 L170.4627 410.8446 L170.3119 410.6095 L169.9666 410.2273 L169.5682 409.6625 L169.2482 408.9921 L169.1376 408.6325 L169.2881 408.4576 L169.5297 408.4005 L171.1329 408.3352 L171.7466 408.2595 L172.91 408.0522 L172.9781 407.9118 L172.8991 407.6895 L172.7013 407.6432 L172.2378 407.6921 L171.1175 407.9071 L170.0505 407.9416 L169.4566 407.8644 L169.1383 407.8547 L168.9068 407.6412 L168.7508 407.2414 L167.773 405.6425 L167.1936 405.409 L166.7643 405.0509 L166.1951 405.0169 L165.9729 405.0915 L165.0265 405.1548 L163.708 405.0951 L158.9022 404.647 L158.681 404.5668 L158.4739 404.4572 L157.9883 403.8733 L157.7635 403.7051 L157.4665 403.6176 L155.8175 403.5312 L153.8475 403.2534 L153.6293 403.1639 L153.4884 402.9318 L153.3126 402.7147 L153.0015 402.4981 L152.345 402.4724 L151.7515 402.5594 L151.1869 402.6839 L149.8105 403.3799 L149.4029 403.3974 L149.025 403.364 L148.836 403.2184 L148.4166 402.7374 L148.1792 402.3237 L147.9695 402.1627 L147.7002 402.2018 L147.1422 402.3721 L145.802 402.9324 L145.1917 403.1618 L142.5139 404.3337 L142.0616 404.4279 L141.5427 404.3214 L141.2635 404.1331 L140.4484 403.079 L137.9995 403.7076 L137.7473 403.8332 L137.7667 404.2231 L138.4445 405.2644 L139.2524 406.2686 L138.5627 406.9441 L137.9573 407.654 L137.4 408.2451 L136.9378 408.5605 L136.57 408.4365 L136.3853 408.1268 L136.2372 407.9756 L136.0542 407.8387 L135.5758 407.7214 L135.0066 407.847 L134.1971 408.0821 L133.437 408.2724 L133.3003 407.6849 L133.0656 406.9338 L132.8566 406.4595 L132.7107 406.0649 L132.4674 405.8339 L132.1659 405.7145 L131.5381 405.661 L130.2986 405.5381 L129.7959 405.6857 L129.6784 406.1431 L129.4318 406.8525 L129.3205 407.4807 L129.2096 408.3388 L129.1467 408.773 L129.0229 409.0436 L128.7843 409.2936 L128.5759 409.4644 L128.3428 409.592 L128.1489 409.7978 L127.8947 410.1342 L127.7035 410.5169 L127.6301 410.8786 L127.4589 411.4316 L127.1007 411.8859 L126.677 412.2753 L126.1509 412.5999 L125.4797 412.8242 L124.3893 412.7311 L122.5714 412.3139 L121.8225 411.8113 L120.8892 410.9383 L120.3345 410.6173 L119.4486 410.6811 L118.2973 410.6811 L116.7194 410.6641 L115.295 410.5169 L114.0591 410.4501 L113.4813 410.2916 L113.3204 410.0812 L113.2539 409.4644 L113.2262 409.0482 L113.2588 408.632 L113.2723 408.3398 L113.2223 408.1556 L113.0846 407.9138 L113.0228 407.4884 L112.8743 407.1082 L112.7577 406.8211 L112.5922 406.5464 L112.258 405.8519 L112.0717 405.2644 L111.9673 404.8683 L111.9637 404.8456 L111.9383 404.5905 L111.9495 404.4243 L112.1833 404.1789 L112.4799 404.1238 L113.2203 404.0709 L114.5796 404.218 L115.2413 404.3456 L115.7404 404.5061 L116.5561 404.7 L117.043 404.7129 L117.4233 404.6995 L117.8078 404.6203 L118.3895 404.5164 L121.9157 403.9541 L123.7681 403.5806 L126.6908 403.0368 L128.2164 402.8511 L128.9268 402.7055 L129.3729 402.6309 L129.681 402.6653 L129.8598 402.8408 L129.7656 403.7431 L130.027 403.7318 L130.184 403.6572 L131.0347 403.4165 L131.3646 403.345 L131.5555 403.2796 L131.8551 403.0954 L132.1116 402.8711 L132.345 402.5846 L132.4786 402.2846 L132.5754 401.9899 L132.6508 401.8993 L134.2386 401.1811 L135.5719 400.6687 L136.8601 400.3261 L137.2344 400.3045 L137.4154 400.3621 L137.8253 400.6805 L138.3741 400.7032 L138.8129 400.644 L139.8657 400.3827 L140.7161 400.2679 L141.1898 400.0632 L141.4785 399.773 L141.9457 399.0409 L142.3819 398.4817 L143.1674 397.7594 L145.1999 396.0601 L146.8782 395.0018 L148.3962 393.8031 L149.3687 393.2248 L151.8529 391.4755 L156.0424 388.3207 L157.2301 387.5114 L158.2968 387.3365 L158.5707 387.2408 L160.0551 388.9602 L161.5013 389.6028 L163.9776 390.5747 L165.2724 390.7923 L165.9647 390.0844 L167.8013 386.8348 L170.2915 386.9758 L170.4327 385.316 L166.7772 385.0336 L164.3401 382.1724 L162.1149 379.7882 L161.4703 378.7633 L161.0628 378.6218 L160.8251 378.4927 L160.7198 378.3332 L160.591 377.9298 L160.4192 377.7085 L160.167 377.4621 L159.798 377.2635 L158.8475 377.1405 L158.2369 377.1081 L157.3799 377.0253 L157.003 377.0803 L156.6359 377.1595 L156.2534 377.1873 L155.8356 377.1364 L155.5469 377.0428 L155.1581 376.805 L154.978 376.5277 L154.818 375.9715 L154.7193 375.4529 L154.4309 374.429 L153.947 372.9286 L153.7089 372.1224 L152.5396 369.2076 L152.1455 368.55 L152.0968 368.3092 L152.1304 368.1101 L152.2943 368.0 L153.7122 367.5544 L155.5742 367.0532 L158.0742 366.4502 L160.1226 366.3987 L161.289 366.0833 L161.5428 366.0653 L161.7735 366.1764 L162.1963 366.3236 L163.4087 366.5546 L163.7998 366.6473 L164.2502 366.6658 L164.611 366.6457 L165.0083 366.5268 L165.1338 366.3308 L165.2441 365.9969 L165.3859 365.1767 L165.4827 364.7841 L165.8998 364.5737 L166.4839 364.3246 L167.1258 364.1564 L167.6565 364.1816 L168.28 364.5906 L168.5615 364.7321 L168.7676 364.674 L169.0425 364.5448 L169.2242 364.4157 L169.3259 364.1528 L169.508 363.8646 L169.8902 363.5749 L172.3978 363.1201 L173.3439 363.1834 L174.4695 363.454 L175.1937 363.5111 L175.9381 363.4545 L176.8832 363.6717 L177.7095 364.0329 L178.1912 364.2011 L178.3439 364.3236 L178.4591 364.5484 L178.5783 364.9112 L178.6208 364.9796 L178.7271 365.1 L178.87 365.1535 L179.0201 365.1597 L179.3305 365.1144 L179.5995 365.0249 L181.3631 364.4394 L182.1347 364.0699 L183.2251 363.5832 L184.1205 363.4247 L185.3679 363.2194 L187.3675 363.0537 L188.7528 363.1556 L189.007 363.2683 L194.2295 362.1512 L196.4573 364.3318 L197.7896 364.9215 L202.1881 364.6971 L205.2168 363.8358 L207.7333 363.329 L209.0636 363.4051 L209.8017 362.6678 L212.1029 361.9906 L212.6586 360.7593 L222.8828 358.1001 L230.7025 354.7828 L240.4971 348.7196 L240.5689 346.7158 L240.082 345.1829 L239.5328 344.5283 L238.5353 343.2192 L239.3814 342.0161 L239.9904 341.6003 L239.944 340.9046 L237.6053 340.4636 L237.2705 339.913 L237.9974 338.502 L238.1442 337.8726 L238.5087 333.0559 L234.1677 332.6314 L233.5037 334.6636 L233.2328 334.7263 L226.9686 332.9489 L226.143 332.918 L224.6859 334.433 L222.2606 333.9807 L221.7885 333.4728 L221.4037 329.4017 L217.7965 329.537 L216.8889 330.8549 L210.6086 331.9511 L209.9884 329.5118 L205.5543 331.685 L201.5853 333.8829 L200.5289 334.1212 L199.9416 334.2534 L197.8943 335.3423 L195.4157 335.9979 L193.5704 337.0992 L192.0235 337.6853 L191.2693 337.7949 L190.5082 337.8155 L188.6317 337.6637 L187.8798 337.8222 L186.6571 338.3929 L185.5404 338.3785 L183.9194 337.9694 L182.5193 337.7995 L180.6428 337.6575 L179.0593 337.9261 L177.8366 338.5627 L177.7089 338.5159 L176.8338 336.794 L177.1706 335.8893 L178.9793 334.8051 L179.9244 334.3445 L181.8931 333.6693 L182.9594 333.3451 L184.0139 333.1259 L185.1012 333.005 L185.7057 333.0569 L186.766 332.846 L188.1678 332.0946 L188.6936 331.4756 L189.745 330.4057 L190.8555 329.5257 L192.6987 328.0317 L194.9034 325.8482 L196.7091 323.0543 L199.7882 319.8517 L199.2355 319.8667 L198.822 319.684 L198.6231 319.4241 L198.4068 318.8791 L198.3361 317.6831 L197.914 317.3146 L197.5048 316.2616 L197.3369 315.2946 L197.5568 311.9895 L192.9078 310.9937 L191.6413 310.8135 L190.6698 310.8012 L189.7747 310.9314 L187.7543 311.0204 L187.5364 310.9309 L187.3211 310.7657 L187.2065 310.5531 L187.1483 310.216 L187.6859 306.177 L187.9265 305.6433 L188.1872 305.3885 L188.529 305.142 L188.7917 305.036 L189.4432 304.8383 L190.0357 304.7889 L191.8497 304.8435 L192.3939 304.9428 L193.3127 305.459 L193.9234 305.5522 L195.4324 305.4544 L196.3595 305.2763 L200.7725 304.721 L202.8265 304.6608 L203.3631 304.5028 L204.0827 304.3839 L204.727 304.4209 L205.8246 302.5681 L203.5915 302.3797 L203.2126 302.4348 L202.1457 303.0205 L201.5146 303.0097 L195.1526 303.1286 L193.7897 303.089 L188.7989 302.9845 L185.7985 303.0668 L185.0143 303.1904 L183.3594 304.3164 L182.6118 304.598 L181.2426 304.8023 L180.3656 304.8646 L179.8118 304.5197 L179.5597 303.9598 L180.3682 303.6299 L182.1453 303.1178 L185.3524 302.3695 L190.334 301.512 L191.9665 301.3859 L194.6845 301.2186 L200.493 299.707 L201.9281 299.494 L202.9147 299.4806 L213.4895 299.757 L211.4916 298.3941 L210.8361 297.8629 L209.2615 296.5016 L206.3493 294.9045 L204.3642 294.186 L204.1713 293.7846 L204.9508 293.3234 L210.3235 294.379 L213.8638 294.9107 L213.9221 294.832 L214.6282 294.2704 L215.6336 294.4439 L223.8013 296.5531 L225.4941 297.1661 L230.5135 299.2366 L232.5796 300.5408 L238.2825 302.2346 L242.5441 302.5604 L247.4068 301.8079 L248.965 301.566 L249.1447 298.1764 L250.0557 297.5788 L251.8992 296.9797 L251.7284 295.5551 L256.4397 294.4151 L259.0042 295.308 L259.2132 295.9921 L253.514 297.3786 L254.8058 298.2335 L259.3271 298.4044 L261.3409 298.3097 L261.7396 299.7343 L266.0262 299.1254 L266.4226 300.5207 L268.5598 300.1332 L269.2063 303.1379 L270.1904 303.2912 L270.4649 304.9346 L271.5974 305.4292 L271.9997 303.1739 L274.7505 301.5799 L274.9764 300.286 L278.4571 300.6273 L281.7818 301.425 L283.9779 301.6649 L284.2732 299.7657 L288.1836 300.494 L290.7484 300.0004 L290.6727 298.5202 L293.123 298.2906 L293.0848 299.7534 L297.6634 300.5321 L301.8325 299.8177 L302.1548 302.5115 L305.4716 301.4719 L306.4375 301.6031 L309.2901 298.7981 L309.64 298.9093 L310.6072 297.9422 L313.1951 294.8978 L319.963 291.5204 L320.8331 292.4808 L323.2074 290.9841 L325.2264 289.7756 L328.9879 288.6355 L334.1552 288.5975 L335.179 288.2119 L334.9472 286.4856 L338.7012 287.286 L339.0564 286.8881 L338.7038 281.3195 L346.9238 279.2524 L352.1484 277.5368 L357.7834 274.6281 L358.4326 280.4197 L359.8828 281.2984 L360.6393 281.3292 L362.0803 281.1856 L362.2788 279.014 L362.6811 277.963 L362.3881 274.0356 L366.6645 274.0356 L368.643 290.5065 L375.9248 291.9703 L377.3749 289.9943 L379.9279 288.2562 L387.7381 284.8231 L390.6875 284.0634 L394.449 284.346 L401.4776 283.0746 L408.842 282.3329 L412.6921 285.1057 L414.7759 286.6771 L417.6368 287.1892 L418.7492 286.4656 L421.2041 283.0571 L422.2282 282.3504 L422.458 280.832 L421.6633 280.0193 L420.0031 281.1851 L418.0782 281.0086 L414.4757 282.4035 L413.8222 282.9156 L413.363 282.439 L415.3939 279.6662 L419.1202 277.9002 L419.5794 275.9401 L420.7804 274.7567 L422.6364 273.8503 L423.8706 273.0792 L424.7009 270.5359 L425.7804 269.6397 L428.4447 268.9289 L436.8154 262.8399 L436.822 260.2249 L435.7587 258.31 L434.6598 256.0662 L434.8672 254.5095 L437.5881 253.7497 L446.2815 251.7704 L444.9324 248.5741 L443.4385 245.6691 L442.6704 245.7726 L441.1554 246.4367 L440.5121 247.6197 L439.0593 249.4044 L432.2734 252.8699 L433.4977 251.5212 L435.2201 250.1308 L434.4316 247.0385 L439.0593 242.7636 L441.9442 239.7752 L443.7496 238.0527 L447.8172 235.4168 L448.8757 232.8227 L445.3683 234.3795 L443.1478 235.7489 L437.9594 240.7919 L433.6843 244.5896 L431.8582 246.0841 L431.1942 247.4122 L429.7414 248.3877 L429.1811 249.2382 L427.1265 250.0685 L425.5285 250.1725 L423.9306 251.2515 L424.6361 251.9778 L426.2745 254.0539 L426.6854 256.7101 L427.1255 257.3407 L427.6391 257.3994 L427.4778 256.1521 L427.5364 253.9952 L427.3017 252.6599 L426.5827 252.836 L425.6434 252.2635 L425.7982 251.7498 L430.281 250.0479 L431.1731 249.2593 L431.7127 249.5496 L431.4224 250.4628 L428.4131 252.2893 L429.2502 255.798 L429.347 256.8131 L429.8451 257.8714 L431.394 258.9154 L432.0297 260.0458 L431.0408 260.664 L427.809 261.4949 L425.9647 262.6803 L414.2492 264.274 L414.0332 264.9545 L410.463 265.1543 L408.8196 263.8046 L406.1194 263.1879 L401.4387 262.9686 L400.7484 262.425 L400.4258 260.8988 L400.777 260.1992 L404.0632 258.866 L407.7612 257.5744 L409.3901 256.0487 L412.9561 254.302 L413.6352 253.1495 L413.2201 248.6086 L412.2351 242.5366 L410.568 234.7893 L413.0028 233.6752 L415.2131 233.1563 L419.7269 233.3638 L425.145 231.8523 L426.7828 231.1433 L430.3109 228.3 L430.5365 225.4555 L428.9931 223.5064 L429.1054 222.7526 L429.159 221.5762 L429.9719 220.8204 L437.8228 215.3491 L440.9273 211.428 L441.3658 210.476 L441.9261 209.9153 L443.3578 209.2619 L445.2257 207.1036 L447.649 205.3602 L446.9159 203.0113 L446.5537 202.6519 L447.2388 201.9049 L449.7188 201.2824 L449.9278 200.181 L450.1747 198.1987 L452.2586 196.5871 L455.7712 196.0052 L457.6247 193.9971 L459.8205 192.6378 L461.5426 191.7604 L462.8492 190.7327 L469.7231 186.8451 L470.766 184.9728 L476.2938 181.0167 L480.6693 180.2489 L482.5454 185.4141 L490.3687 181.9884 L492.5234 185.0259 L497.0266 183.8426 L499.0575 184.2133 L499.3755 185.9615 L506.5101 182.7123 L505.6624 179.7809 L505.9979 175.701 L512.0 175.7381 L509.34 162.303 L507.1988 157.317 L504.02 150.4472 L505.6976 148.1868 L506.7044 145.9971 L497.5563 149.5645 L491.1832 153.2219 L487.4704 154.5423 L479.5463 159.2822 L471.7085 164.0704 L468.1587 167.6174 L464.7843 170.1582 L459.4238 172.5697 L455.7383 176.1604 L451.2703 179.0388 L445.9546 183.5069 L441.9899 186.9151 L437.1335 188.8404 L432.9341 189.7183 L429.4046 190.9015 L427.6246 190.8717 L424.6143 192.2985 L425.0186 193.25 L425.4301 194.391 L425.9911 194.2391 L428.7433 193.2093 L431.4859 192.2841 L433.5958 194.4631 L430.7909 196.4635 L429.0981 201.5027 L426.4256 205.5667 L422.7359 202.1525 L420.1088 197.4701 L419.0817 197.4943 L418.3288 197.793 L417.67 198.1802 L416.9816 198.4577 L416.1375 198.2661 L415.9074 198.0937 L415.4541 197.2786 L415.6744 197.0083 L415.7247 196.8167 L416.0987 196.3034 L416.4088 195.6778 L416.4938 195.5563 L416.6686 195.1052 L416.9698 194.1068 L416.4378 194.0455 L415.7534 194.475 L413.0045 195.926 L405.5156 198.9911 L402.9916 197.2776 L400.3754 195.8559 L398.9664 195.0697 L400.4511 193.9148 L401.0394 193.2444 L402.4856 191.8886 L403.1137 191.9468 L406.8509 188.9305 L405.9752 187.5608 L409.984 184.5156 L409.6574 183.8802 L408.3755 182.8035 L402.4915 186.1834 L401.1431 186.1757 L401.2053 185.117 L400.1469 184.0692 L397.9992 184.806 L395.4702 182.9162 L393.6365 180.666 L391.1971 182.4734 L388.7185 182.5522 L386.4591 180.9116 L384.4878 178.1681 L384.0467 177.2639 L383.6487 176.233 L383.3843 175.4142 L383.143 175.164 L382.667 174.4188 L382.2624 173.8133 L381.1868 174.1191 L380.6799 174.1439 L380.4629 173.562 L379.8022 170.2874 L379.2537 168.6617 L378.3445 166.9299 L377.7094 166.0112 L377.6455 165.16 L377.2199 163.2711 L377.2202 163.0837 L377.0747 160.7123 L380.5307 160.5495 L380.7714 160.309 L380.9636 160.22 L381.1773 160.1798 L381.6415 160.1638 L382.134 160.1813 L382.4819 160.2009 L382.9076 160.2158 L382.8832 160.1309 L384.0506 160.273 L385.8412 160.4295 L386.228 160.5233 L386.8499 160.9852 L387.1564 161.0717 L388.0456 160.994 L388.3876 160.9723 L390.5847 161.2293 L391.2576 161.3658 L392.3727 161.6902 L392.7427 160.6963 L391.3162 160.6088 L390.298 160.5361 L387.3437 160.3008 L387.1804 160.2678 L387.1313 160.1865 L387.1139 160.0346 L387.1327 159.9383 L387.2403 159.6787 L391.2583 159.1061 L392.6848 158.8893 L393.5723 158.7291 L394.6221 158.3872 L395.5673 158.0272 L404.6051 153.1148 L408.9052 150.6763 L408.3426 150.2056 L404.6153 152.2476 L404.211 152.4515 L404.0174 152.4046 L403.8581 152.3341 L403.652 152.1348 L403.1407 150.6604 L403.016 150.1495 L402.9281 149.9286 L402.9699 149.6371 L403.5931 149.3971 L404.3338 149.1303 L404.93 148.9928 L405.4396 148.8064 L405.8462 148.6493 L406.4802 148.2909 L406.7943 148.2033 L406.9438 148.0741 L407.2203 147.9541 L407.7391 147.7012 L409.2933 147.0595 L409.774 146.9617 L411.0664 146.6717 L411.5984 146.4776 L412.0277 146.2844 L412.5498 146.0213 L413.8545 145.6876 L414.5787 145.3719 L414.5853 145.2539 L414.2239 144.7868 L414.1179 144.5685 L414.0803 144.3728 L414.1755 144.1904 L414.4095 144.1003 L414.7888 144.0128 L415.2721 143.9335 L419.9132 143.2794 L421.7282 143.0064 L422.4281 142.7278 L422.8155 142.4049 L423.0549 142.2205 L423.261 142.1629 L424.0583 141.1941 L425.2991 139.8685 L426.7206 138.5743 L428.2373 138.224 L428.4496 139.0517 L428.792 139.9133 L429.3069 139.7943 L429.9633 139.7181 L431.7799 139.731 L432.277 139.748 L432.5305 139.7907 L433.1879 139.7233 L433.4681 139.594 L434.1614 139.4513 L436.1093 138.7143 L436.8856 138.4769 L438.0003 138.376 L438.2998 138.4172 L438.6103 138.531 L438.7861 138.7159 L439.2052 137.9485 L440.5842 135.3389 L441.1116 134.3887 L440.683 134.7173 L439.9479 135.2493 L439.5159 135.3914 L439.2549 135.5557 L438.8704 135.5743 L438.5385 135.5016 L438.2073 134.9861 L437.7771 133.9442 L437.5041 133.1851 L437.3066 132.462 L437.1845 131.9392 L436.9119 131.18 L436.7295 130.4286 L436.6321 129.6571 L436.4875 129.0416 L436.4905 128.4143 L436.6261 127.8988 L436.9139 127.2395 L437.1786 126.8733 L437.5423 126.6148 L438.3308 126.2903 L438.6715 126.194 L439.0972 126.0389 L438.9398 125.8798 L438.0388 124.8466 L437.7096 124.9656 L436.984 124.5201 L436.1702 124.8955 L435.3518 125.1732 L434.4524 125.5373 L433.4532 125.888 L432.6338 126.0956 L431.6261 126.162 L431.0573 126.1322 L430.3564 125.7047 L430.3481 126.1852 L429.6163 126.4927 L428.4812 126.4077 L428.1418 125.6655 L427.779 125.5203 L427.5176 125.6521 L426.4951 126.0116 L424.7078 126.4113 L423.5349 126.6987 L422.0709 126.9109 L420.1032 127.0314 L418.0308 127.0737 L417.0076 127.1046 L416.5323 127.1731 L416.5346 127.1834 L415.9703 127.2184 L415.6144 127.3075 L414.4184 127.4903 L413.5974 127.4594 L413.3077 127.5527 L412.9037 127.7612 L412.7069 127.9487 L411.5023 128.5585 L409.6887 129.2796 L407.776 129.8425 L406.1573 130.1278 L405.1548 130.1335 L402.587 130.8005 L400.537 131.7296 L398.7544 132.4697 L396.9454 133.1907 L396.177 133.3957 L395.754 133.9576 L394.5859 134.8522 L393.5795 135.1525 L392.239 135.6932 L390.7609 136.1835 L390.1291 134.9418 L390.0182 134.5525 L388.5641 135.1545 L388.1005 135.1751 L387.5406 135.4342 L387.3384 135.5521 L387.1439 135.6273 L386.6892 135.9039 L386.4667 136.011 L385.7944 136.2675 L386.0453 136.9128 L385.0484 137.0297 L384.6985 136.8175 L383.0436 135.598 L382.4283 135.704 L381.9088 134.4628 L384.815 133.1052 L385.5696 133.4786 L386.7844 132.4558 L386.9523 132.4877 L387.3111 132.2575 L387.2729 132.0577 L387.9652 131.3583 L388.565 130.8921 L388.4762 130.4374 L388.6289 130.0408 L388.8235 129.6756 L388.65 129.361 L388.4716 129.5654 L388.3125 129.6509 L387.9679 129.7477 L387.5715 130.0243 L387.2271 130.2303 L386.5361 130.409 L386.1375 130.6702 L385.1851 131.1991 L384.5467 131.7456 L383.9548 132.394 L383.3385 132.9842 L382.8526 133.2891 L382.5126 133.4168 L382.2245 133.3648 L381.729 133.1706 L380.5317 132.1087 L379.7209 131.2413 L379.608 130.9977 L378.2826 128.8778 L380.7585 127.5748 L381.6583 127.0474 L386.5957 124.2579 L386.6724 124.0128 L386.5908 123.8418 L386.3258 123.7867 L385.9304 123.797 L385.4794 123.9092 L383.2108 125.0856 L378.2967 128.0285 L377.9441 128.1738 L377.7706 128.1048 L376.5743 126.6106 L376.5575 126.4953 L376.6879 126.2651 L377.1349 125.9653 L377.5692 125.7382 L378.1575 125.6058 L379.4759 124.7096 L382.2321 123.2525 L382.6686 122.7195 L382.8148 122.2755 L383.0432 122.0777 L383.8696 121.6528 L389.6238 119.1265 L393.993 117.1306 L397.4224 115.6467 L399.9313 114.9071 L401.4476 114.5697 L401.7666 114.5295 L403.5565 114.7804 L404.4563 114.7675 L405.3188 114.5955 L405.8774 114.4209 L406.3739 114.1371 L407.3464 113.4324 L408.1888 112.9581 L408.9111 112.7829 L412.0942 111.793 L413.7992 111.1193 L414.9856 110.5697 L417.7115 109.5725 L418.4213 109.42 L419.5504 109.0646 L422.5927 107.6636 L424.1478 107.2742 L426.3842 107.0403 L427.4719 107.0419 L429.8283 107.3906 L430.1536 107.0589 L435.627 103.9828 L437.0271 103.2931 L437.0591 102.5828 L437.1756 101.7504 L436.4895 100.6301 L440.654 98.0798 L441.7855 99.9275 L442.4989 99.5556 L442.784 99.9795 L443.4934 99.5741 L443.5853 99.3037 L443.6116 99.0333 L444.3378 98.4672 L444.3441 98.4002 L448.8941 95.6258 L451.5755 93.1013 L451.7789 92.1787 L452.2589 92.104 L453.0688 90.4989 L454.5769 88.0727 L454.4561 88.0763 L454.4185 87.913 L454.4969 87.5185 L454.6184 86.9997 L454.7395 86.4305 L455.2709 84.2381 L455.2616 83.7199 L454.1315 82.4846 L453.8187 82.4176 L453.5708 82.3507 L453.3624 82.1982 L453.2758 82.0514 L453.2706 81.9494 L453.4362 81.7052 L455.6478 79.434 L455.9082 79.298 L456.1617 79.2753 L456.4912 79.4896 L456.5748 79.6179 L456.5887 79.7142 L456.5251 79.8873 L456.3388 80.2463 L456.1989 80.5379 L456.2068 80.6914 L456.2618 80.8145 L456.4109 80.8769 L457.2817 80.8635 L457.5088 80.8212 L457.7995 80.8635 L458.0536 81.0747 L458.1192 81.206 L458.1652 81.3637 L458.8385 79.5808 L458.9056 78.789 L458.7973 78.8797 L458.5178 78.9482 L458.0247 78.959 L456.3507 78.9673 L456.137 78.942 L455.9286 78.9533 L455.4759 79.3093 L453.9553 80.8068 L453.2456 81.3539 L452.3965 82.0055 L451.5949 82.2868 L451.1143 82.3563 L450.3689 82.3131 L449.9495 81.8639 L448.2653 79.9259 L447.2556 79.0687 L447.0588 78.839 L446.9537 78.5958 L447.0311 78.3836 L447.1888 78.1502 L446.716 77.8818 L446.5054 78.006 L446.3282 77.937 L445.9523 78.2873 L444.7118 79.3273 L442.7488 80.795 L441.6028 81.4992 L441.3816 81.7789 L440.5473 82.8349 L439.8856 83.6838 L437.49 87.5983 L436.6232 89.035 L434.0455 93.4933 L433.1224 95.1525 L432.4264 96.0864 L431.0806 97.2077 L430.3422 97.7826 L429.4708 98.3111 L428.2699 98.8174 L427.6793 99.0245 L427.1891 99.1847 L425.5361 99.3722 L423.1154 99.8028 L421.5303 100.5894 L419.5462 101.1014 L417.6259 101.0519 L416.3812 101.0921 L415.6994 100.798 L415.438 99.825 L414.984 97.5446 L414.5498 94.3772 L414.5399 94.3381 L414.0928 92.2102 L413.9236 89.6423 L413.95 87.4623 L413.9072 86.0318 L413.8993 84.8774 L413.8545 84.2428 L413.6076 82.9493 L413.1309 81.5867 L413.1625 81.189 L413.3304 80.4112 L413.4963 78.941 L413.5134 78.9348 L413.4966 77.9066 L413.4555 77.5573 L413.3337 75.9974 L413.1085 72.8025 L412.908 72.8416 L412.7984 73.074 L412.5261 74.1707 L412.1986 74.2181 L411.713 74.0002 L409.0217 72.9004 L408.918 72.8432 L408.6596 72.5439 L408.522 72.2518 L408.5035 71.461 L408.5776 69.4318 L408.5519 68.6415 L408.3722 65.3713 L408.4621 62.4312 L408.7495 61.2293 L403.3448 59.1696 L402.671 58.0341 L402.5287 55.4834 L403.8413 55.5334 L409.3641 56.5694 L410.6704 55.3891 L412.0234 54.5169 L410.8788 52.8559 L411.0967 50.9249 L406.8838 51.1985 L405.8518 49.0151 L407.2565 48.2912 L410.4768 46.9811 L409.8572 46.3206 L405.6658 48.2325 L405.5456 48.2753 L404.8803 48.5323 L404.4164 48.6859 L404.1238 48.7281 L403.4792 48.8425 L402.7835 48.8523 L401.8354 49.1068 L400.3579 48.928 L398.5236 49.1995 L397.0478 49.3422 L395.9992 49.1609 L395.6443 48.962 L395.4419 49.3252 L395.0662 49.995 L395.2871 51.1063 L395.2987 52.2423 L395.2009 52.366 L395.0827 52.4901 L394.4434 52.705 L393.7432 52.8405 L392.878 52.9249 L392.2966 52.8858 L392.0188 52.792 L391.7426 52.5777 L391.4617 52.3902 L391.3215 51.9626 L389.1122 51.9775 L386.971 52.1434 L384.4661 51.8374 L382.2475 52.2021 L381.8683 51.4808 L376.2925 52.486 L375.9768 50.4757 L381.5292 48.9558 L381.5019 47.7941 L382.8 46.6688 L383.571 45.4071 L383.859 43.5436 L382.5916 42.0391 L394.0875 40.174 L391.5098 37.6546 L392.1814 30.704 L391.2201 29.6076 L376.1328 29.2624 L372.7943 29.4061 L372.4167 29.3912 L363.4646 29.8693 L363.084 29.7957 L361.7211 29.7766 L360.6225 29.8091 L360.4322 29.5834 L360.3437 29.4056 L360.2963 29.3051 L340.9932 31.6268 L337.8749 31.6871 L337.7468 32.9453 L333.477 33.2802 L312.6282 44.5894 L304.3513 53.3778 L302.8376 56.8512 L303.8614 64.4192 L303.2853 72.3064 L305.0038 79.1115 L304.0998 84.1598 L303.4397 87.7101 L303.0147 89.7288 L301.6712 94.4633 L300.9608 97.5281 L300.6085 100.6774 L300.2049 102.1444 L299.9383 102.7615 L299.9409 102.7842 L299.3187 104.6977 L298.8196 105.9293 L297.1002 113.3861 L297.0662 113.743 L296.8842 114.4523 L296.7891 114.4621 L284.9813 120.9369 L270.6621 122.5722 L267.6334 122.8462 L263.8847 123.7001 L263.2365 125.6218 L260.587 126.3887 L260.5475 127.686 L259.7252 127.8205 L258.8712 127.8359 L259.0134 124.9022 L258.2678 125.015 L258.3649 128.3232 L245.8122 130.8571 L240.8609 121.7563 L239.1786 119.0317 L237.4931 116.307 L234.7113 115.828 L231.3889 121.1398 L230.9803 121.7929 L229.2563 124.5494 L228.3595 125.9699 L225.7423 130.116 L224.8762 133.4565 L219.6388 134.9238 L218.2048 135.358 L204.0429 142.2077 L203.2044 142.3565 L195.385 139.0748 L190.5513 137.2692 L190.4871 136.7279 L196.189 133.1016 L200.8552 130.7335 L205.4572 128.1506 L208.8273 125.7346 L210.1556 124.1668 L210.5411 123.0512 L211.1209 118.8349 L211.2595 116.2308 L210.8917 114.9266 L209.7573 112.9745 L209.5235 109.9717 L210.0249 109.3865 L210.3713 108.7643 L211.0484 107.8995 L211.2443 107.6976 L211.4142 107.5786 L211.6374 107.5024 L211.6404 107.5024 L216.3596 101.9971 L216.5762 101.7164 L217.438 98.9879 L217.9875 97.2489 L218.3891 95.1164 L218.7249 94.2716 L218.6202 93.0534 L220.0714 90.4134 L220.2985 90.1662 L221.2727 89.1777 L223.5297 89.9272 L223.7552 88.6064 L224.1345 85.3668 L224.4561 84.2592 L224.1542 84.0429 L223.9949 84.0403 L223.7602 83.9342 L223.5159 83.7637 L223.3332 83.4536 L221.5396 82.1673 L218.8303 81.1566 L213.5583 80.4107 L204.9367 80.2056 L205.8229 82.7195 L205.0861 82.9941 L204.1048 81.2581 L202.8166 80.6564 L200.5954 80.456 L203.4134 87.4978 L201.9616 87.6318 L200.468 83.9471 L199.8073 82.6098 L199.4103 80.6208 L194.5377 82.3486 L195.7594 86.8436 L195.6645 88.5271 L194.8162 87.1733 L193.9145 84.8331 L193.5188 82.9225 L192.5861 83.1074 L191.7131 83.45 L189.8175 88.5585 L188.6277 87.9197 L187.7504 83.6081 L187.9295 82.5665 L187.914 82.4599 L187.7902 79.8389 L187.5775 77.0082 L187.5097 76.4621 L187.1496 76.1721 L186.8111 76.0345 L185.0976 76.3544 L182.2335 77.1411 L178.6679 78.2986 L173.0858 80.4967 L170.5032 81.6666 L168.864 82.3033 L167.9518 82.3522 L167.0629 82.2106 L165.7494 81.9391 L165.5012 81.9334 L165.276 82.022 L161.9378 84.6203 L157.8876 87.3598 L156.256 88.4029 L155.14 89.2024 L152.9876 90.6772 L151.8025 91.5153 L151.1958 91.9969 L150.831 92.1859 L150.4893 92.306 L150.1992 92.2689 L148.5022 89.8396 L146.8815 87.3371 L146.8657 87.3124 L146.8045 87.181 L146.8548 87.0147 L147.4115 86.5402 L148.0518 86.0957 L148.7662 85.5584 L149.2057 85.2282 L150.2332 84.1742 L152.0932 82.2667 L152.7947 81.7572 L154.0059 80.8779 L156.2741 79.5591 L161.4904 76.61 L163.783 75.2757 L166.153 73.8647 L169.3565 71.9504 L170.9318 71.0494 L172.5755 69.9768 L173.7956 69.047 L174.4224 68.6972 L174.7078 68.5689 L175.2665 68.4653 L176.3219 68.571 L177.0949 68.7224 L179.4171 69.3076 L180.4561 69.6914 L180.6668 69.8259 L180.8745 70.2494 L181.1247 70.6857 L181.3015 70.6831 L181.605 70.5219 L182.0748 70.236 L182.6816 69.7481 L183.6702 68.9929 L185.0314 68.183 L187.0459 67.0904 L188.0447 66.5685 L188.5991 66.45 L189.109 66.4083 L189.673 66.5191 L191.0441 66.9533 L191.7167 67.1311 L192.0791 67.1769 L192.2918 67.0538 L192.8798 66.5093 L194.8764 64.7324 L195.7096 63.9283 L196.2041 63.2802 L196.8727 62.0741 L197.2523 61.4642 L197.4093 60.8583 L197.5226 60.5518 L197.7204 60.3076 L197.8419 59.9532 L198.2745 59.4375 L198.2742 59.3612 L197.0169 59.7363 L196.4642 60.0134 L195.6912 60.4946 L195.3422 60.8274 L194.8224 61.6945 L194.6963 61.9845 L194.5574 62.3791 L194.5363 62.5229 L194.4465 62.611 L194.0952 62.765 L193.3937 63.2369 L192.3702 63.8077 L190.7228 64.5815 L189.7233 64.7726 L188.7867 64.8386 L187.7293 64.4759 L186.4536 65.1106 L184.8846 64.515 L183.0457 64.0117 L181.9751 63.6233 L178.4944 62.0159 L178.3311 62.0164 L178.0697 62.1483 L176.3891 63.2699 L176.6228 63.5172 L176.6225 63.5177 L177.3372 63.885 L178.2985 64.3342 L178.522 64.3626 L178.9661 64.3028 L180.5223 64.7963 L180.945 64.8144 L181.4559 64.6696 L181.7538 64.6634 L182.2187 64.7783 L183.1632 65.0802 L186.3368 65.9967 L186.823 66.2079 L186.8562 66.4371 L186.773 66.6041 L182.9742 68.7636 L182.6766 68.8677 L182.3882 68.8115 L177.672 67.1373 L175.7521 66.6746 L174.6104 66.3238 L173.9977 65.4161 L173.9987 65.4156 L173.6418 64.6392 L173.525 63.834 L173.3347 63.6501 L173.0137 63.6799 L172.8939 63.6475 L172.7158 63.5002 L172.5433 63.1622 L172.7069 62.8897 L172.7816 62.8397 L172.7918 62.8258 L175.2444 60.9794 L175.8604 60.4307 L176.1224 59.9197 L176.9138 58.8507 L178.2909 57.5905 L178.5398 57.5684 L178.8282 57.6245 L179.264 58.1902 L179.5034 58.3901 L179.7022 58.405 L179.8846 58.2149 L179.9603 57.9321 L180.1358 57.6307 L180.4337 57.3669 L181.0233 57.1109 L181.4345 56.8863 L181.6172 56.6951 L181.6396 56.3484 L181.5171 56.0202 L181.2617 55.8317 L180.9503 55.5787 L180.8423 55.4865 L180.441 55.3907 L180.0456 55.384 L179.8375 55.3804 L179.2094 55.2366 L179.1702 55.1954 L177.5265 54.842 L176.5053 54.4504 L175.5272 55.7147 L175.3484 56.3463 L172.0633 59.4993 L170.8584 58.0954 L170.3629 56.776 L169.1277 56.0764 L167.2769 55.9563 L165.5463 56.3886 L165.0656 56.1006 L166.0737 54.2784 L166.5711 53.8461 L166.8154 52.6627 L168.336 52.2299 L168.9361 51.7014 L170.6213 51.2609 L172.6259 51.0089 L176.0592 50.7683 L177.8438 51.1254 L178.5576 49.2047 L177.2661 48.3211 L175.6342 47.607 L173.2748 47.5504 L171.3979 47.5777 L170.9374 46.8564 L170.4778 46.8373 L169.3384 47.1439 L164.0369 48.4844 L160.9752 52.1527 L160.6914 52.5468 L159.9264 53.4463 L158.7504 53.7575 L151.9256 54.7132 L144.4542 56.0043 L141.864 57.2283 L141.6431 57.6663 L140.858 57.9439 L138.4452 58.6142 L134.8279 59.166 L132.9991 60.1123 L132.5504 61.2828 L132.1037 62.4306 L134.0941 76.1221 L131.7949 80.6353 L130.6877 81.6542 L128.5176 82.8457 L125.8932 84.148 L121.4778 87.366 L120.1392 88.1845 L114.628 91.7429 L113.483 93.7771 L112.1754 96.1003 L111.3533 97.5956 L111.6496 102.3175 L112.3578 104.1564 L112.7495 106.7421 L110.4964 106.6139 L110.824 109.3088 L112.6465 113.1698 L113.9047 113.9532 L116.5891 114.3961 L121.6875 116.2607 L125.7572 116.0665 L125.8731 115.6137 L125.9899 115.4556 L129.8084 114.4209 L131.4271 114.0505 L132.3308 113.8069 L133.1808 113.6647 L134.1273 113.5324 L135.7384 113.1718 L136.5203 112.9302 L138.3316 112.0551 L138.6882 111.9212 L138.8096 111.6647 L138.7303 111.5359 L138.5901 111.4994 L138.3115 111.5782 L136.2711 112.6516 L134.4773 113.0173 L132.4516 113.384 L130.24 113.9187 L127.5616 114.6155 L126.8897 114.7696 L126.7899 114.6583 L126.7922 114.5089 L127.0895 114.2612 L128.0231 113.6652 L128.4096 113.1934 L128.5653 113.0446 L128.644 112.9112 L128.6338 112.7768 L128.5015 112.6042 L126.6395 111.8986 L125.2288 111.4726 L123.4369 111.1872 L121.8258 111.1208 L120.136 110.888 L119.9351 110.7911 L120.0168 110.1334 L120.502 108.1715 L120.69 106.3517 L120.7861 106.1132 L121.0054 106.0483 L121.9341 106.2409 L122.9411 106.4908 L123.8158 106.8116 L125.0063 106.9667 L125.4448 106.9857 L125.5876 106.788 L125.9699 105.7217 L126.1295 105.6012 L127.8111 105.9293 L128.0906 105.8824 L128.9943 105.2901 L130.3516 105.1098 L132.7127 104.657 L132.9211 104.6565 L132.8325 105.1536 L132.872 105.3452 L133.0212 105.3617 L133.4449 105.0758 L133.5881 105.0192 L133.726 105.0815 L134.2168 105.2448 L134.4331 105.4482 L134.6135 105.5631 L136.8824 105.9015 L136.9539 105.8191 L136.9019 105.7284 L136.6685 105.6316 L134.2471 104.8667 L133.7757 104.7389 L133.7609 104.5726 L133.9123 104.3305 L134.2429 104.2723 L134.7647 104.2723 L135.6585 104.4119 L136.4232 104.5937 L139.7189 105.7336 L140.4415 105.9041 L140.5818 106.2579 L140.5874 106.4259 L140.3951 106.5278 L140.1643 106.7261 L138.3359 106.1374 L138.2075 106.1565 L138.2118 106.2693 L140.1383 107.0115 L140.4494 107.2247 L140.5126 107.4972 L140.4544 107.9845 L140.6529 108.3863 L140.6759 108.7386 L140.5311 109.2336 L140.4465 109.2928 L138.1914 108.565 L137.291 108.344 L137.0039 108.4558 L136.9572 108.5846 L136.9473 108.7731 L137.0289 108.923 L137.0688 109.199 L137.2005 109.4617 L137.374 109.5302 L138.6852 109.5503 L139.3262 109.6209 L140.4932 109.6152 L140.7977 109.7821 L141.311 110.8921 L141.6487 111.8677 L140.6785 112.2576 L139.0983 112.4322 L139.0368 112.6191 L139.2942 112.939 L139.928 113.1157 L140.7019 113.23 L140.9943 113.3129 L141.6214 113.2393 L142.3414 113.0106 L143.5028 112.324 L143.8478 112.1525 L145.4524 111.5931 L147.4928 110.9426 L149.2962 110.4909 L150.0923 110.0227 L151.4493 109.0723 L152.4553 108.7607 L153.9091 108.4779 L156.0694 108.2333 L157.9452 107.9593 L160.0475 107.5585 L162.2298 106.9816 L163.5881 106.5247 L165.3481 105.7743 L165.9068 105.5986 L169.9932 105.5899 L172.6549 105.4832 L173.9263 105.3916 L174.5544 105.5353 L174.8655 105.748 L175.0495 106.0504 L175.7814 109.711 L175.8344 110.1159 L174.7878 110.8014 L174.3644 111.0044 L174.0138 111.0863 L173.6158 111.1399 L170.277 110.8282 L168.8647 110.7525 L168.5309 110.8442 L168.1164 110.8813 L167.326 110.8705 L166.7133 110.7376 L165.4475 110.5465 L164.7183 110.5115 L162.4046 110.8262 L160.6253 111.3443 L158.8064 112.0093 L157.9972 112.5501 L156.7956 112.9606 L153.1101 113.6395 L151.7505 113.7677 L149.3446 113.7198 L149.2205 113.8316 L149.2603 113.9434 L149.4276 114.1304 L149.552 114.1829 L150.0583 114.1324 L151.2422 114.2416 L151.5658 114.2179 L151.9971 114.1314 L156.2093 113.5396 L157.0356 113.2779 L158.0347 112.9205 L158.6747 112.6629 L159.5395 112.1839 L160.0231 112.137 L160.7701 112.0047 L161.7762 111.693 L162.9867 111.9861 L163.307 111.9398 L163.7804 111.8234 L164.2281 111.6879 L164.6627 111.624 L164.9767 111.6956 L165.1963 111.9222 L165.2102 112.1788 L165.116 112.3333 L164.8777 112.462 L163.6125 112.4353 L163.1589 112.6897 L162.9468 112.838 L162.3131 112.9776 L161.1823 113.0724 L160.8821 113.2568 L160.5917 113.5107 L160.2753 113.7451 L160.064 114.0577 L160.1173 114.426 L160.0337 114.8138 L159.8082 114.8705 L159.5889 114.8087 L158.7376 114.4157 L158.2145 114.3513 L157.5867 114.3724 L156.8427 114.716 L156.5006 115.0951 L156.02 115.1651 L155.1996 115.144 L154.076 115.4489 L153.9726 115.8636 L153.7214 116.0644 L153.1111 116.3652 L152.0343 116.7953 L151.471 117.2563 L151.3133 117.4968 L163.7781 115.7332 L163.651 116.3405 L162.6934 117.231 L162.5594 118.6001 L162.3009 120.8983 L161.9177 123.1676 L161.0467 123.148 L160.4722 123.56 L158.5687 125.8407 L156.9951 126.263 L156.9951 127.7618 L156.8815 128.9412 L157.4593 130.2545 L159.3614 129.5731 L160.9028 129.688 L162.5498 129.5922 L164.8859 129.0272 L166.9638 128.558 L166.418 129.6973 L165.1924 130.5208 L163.6988 132.5696 L161.1925 134.0503 L160.1081 135.0402 L159.3818 137.0426 L157.6186 139.7413 L153.0515 145.2086 L151.1846 148.5118 L150.2078 150.3884 L148.5993 151.0013 L146.7896 151.1259 L146.6079 153.0118 L147.1824 154.8503 L146.5503 155.8653 L146.7514 156.9663 L146.6652 158.3357 L146.8854 159.4846 L147.7575 161.3658 L150.085 161.2473 L151.8835 164.6456 L153.2336 165.641 L154.4437 166.6132 L156.9487 167.8527 L156.8502 168.4928 L157.4823 169.394 L156.8239 170.9934 L156.9951 173.7247 L156.5464 175.5224 L152.5824 176.4796 L152.4293 178.6722 L153.8271 179.8406 L154.3729 180.5105 L152.5824 183.2108 L152.7259 184.513 L152.7835 186.6005 L152.8408 188.5536 L153.626 191.0045 L155.4356 192.3546 L156.7284 195.495 L156.3261 196.8548 L158.335 199.8463 L157.7193 202.6731 L159.4444 208.1153 L157.9663 208.4603 L159.2765 209.6856 L159.5708 212.5014 L159.4974 214.6278 L159.9741 216.782 L157.9804 218.1659 L157.1189 218.9819 L156.789 220.824 L156.9325 222.6908 L158.1243 226.1917 L158.0815 228.7159 L158.2372 229.8249 L160.1226 234.8665 L158.1111 237.8061 L156.074 239.1096 L152.1969 240.4022 L150.7852 241.1631 L149.3199 242.1114 L145.0445 246.2544 L144.6939 247.6948 L143.595 249.216 L140.6693 251.3277 L140.2618 251.7328 L135.2795 254.0601 L131.4834 257.9919 L127.4957 260.6311 L125.1768 259.1522 L123.2256 257.3634 L123.2358 256.8646 L126.1628 254.7108 L126.3402 253.7852 L128.7968 250.5761 L130.19 248.9355 L131.5282 247.6892 L135.1837 245.0663 L138.3109 242.5418 L138.9614 241.5302 L139.4522 240.6071 L140.1235 238.2921 L140.3283 237.9672 L141.1944 237.1533 L141.7485 236.2163 L142.2666 234.3496 L143.1058 233.1378 L143.7886 232.4597 L142.6186 231.6582 L141.8443 230.2007 L140.138 228.372 L138.8886 226.4131 L137.7196 224.6004 L136.4456 222.9503 L135.5014 222.1621 L134.42 221.6766 L133.8682 220.8735 L136.0696 219.055 L140.1209 222.7948 L141.7524 221.8228 L137.7654 217.7349 L139.0579 216.333 L140.4234 215.1138 L142.6782 213.0606 L145.43 211.6318 L146.1836 211.758 L144.3657 204.2682 L144.0677 199.6167 L141.758 190.9474 L139.5362 192.2027 L131.6131 194.5172 L130.8589 195.8199 L130.3223 196.2617 L126.3642 197.1488 L124.4242 197.9567 L123.541 199.6177 L118.8764 201.4878 L116.1667 198.8732 L114.5575 198.5787 L111.1436 199.5822 L109.7537 199.9905 L107.4229 204.1611 L106.6361 211.7194 L104.6444 217.3725 L103.6634 216.9297 L103.9346 218.8532 L103.082 218.9268 L103.0547 220.0724 L103.2012 222.5472 L102.2846 223.684 L101.5696 224.4171 L101.0656 225.2511 L101.3955 226.9377 L100.9922 228.8163 L100.314 229.9989 L100.717 231.2267 L100.4147 232.1344 L100.6258 233.3447 L101.4047 235.0951 L100.7173 236.3507 L100.6972 237.42 L101.588 238.6972 L101.249 239.6141 L100.7999 241.2455 L100.9372 241.8504 L102.3946 242.9593 L103.293 244.0686 L101.6842 246.2498 L100.2985 245.8591 L96.0165 251.846 L96.0178 252.3026 L96.7994 252.9348 L92.9345 257.8879 L92.2537 258.3311 L90.7571 255.9658 L89.7698 255.0711 L88.3914 254.2938 L88.2709 254.4657 L89.009 254.8348 L89.8103 255.5148 L90.7953 256.6669 L91.6578 258.29 L90.5059 259.8332 L89.7741 262.2428 L87.042 261.2087 L86.9686 260.4844 L88.0108 257.8421 L87.0255 256.0451 L86.0155 256.0574 L85.392 257.194 L84.8057 258.8804 L84.329 259.8337 L83.9349 261.5932 L83.0681 262.9532 L82.5068 266.3001 L77.9832 271.3574 L76.4955 273.9023 L75.9157 276.5315 L75.1441 278.874 L74.8577 280.202 L68.4704 286.4146 L65.1361 289.2506 L64.1123 287.9947 L62.3675 289.369 L57.7263 292.7161 L56.9448 294.2334 L56.2508 295.0085 L56.2748 295.1732 L56.6706 295.4892 L56.8546 295.5047 L57.064 295.4038 L58.2099 294.1134 L58.4967 294.0012 L58.8614 294.0414 L59.2594 294.4372 L59.2828 294.6302 L59.243 294.8042 L59.1689 294.9694 L58.1072 295.9715 L57.1759 297.2628 L57.2325 297.6519 L57.0241 298.1409 L56.8707 298.4342 L56.3693 298.7369 L55.1351 299.582 L54.6495 299.6437 L54.2127 299.5254 L53.7228 299.3632 L53.1161 299.0405 L52.6677 298.9705 L52.2397 299.075 L51.8697 299.513 L51.3644 300.494 L50.6902 301.0838 L49.9106 301.3993 L49.3434 301.7302 L48.842 301.9062 L48.1595 301.9268 L47.7694 302.0354 L47.5795 302.2032 L47.5242 302.4971 L47.5953 302.7621 L47.7335 303.0365 L47.9571 303.004 L48.1694 302.7951 L48.6003 302.6808 L49.0119 302.7838 L49.0994 303.2248 L48.8848 304.6968 L48.4315 305.9238 L47.6819 307.5805 L47.405 308.6592 L47.2239 309.9762 L46.8483 312.1357 L46.448 313.4486 L46.1813 314.2488 L45.1269 316.3908 L44.4355 317.8992 L44.2992 318.8405 L44.2996 319.6099 L44.1182 320.1904 L43.8782 320.3988 L43.414 320.5414 L43.1355 320.3906 L42.9712 320.1904 L42.775 319.9011 L42.5297 319.6891 L41.7874 319.3304 L41.341 319.1807 L41.2965 319.3057 L40.1545 324.7129 L39.8609 325.6907 L39.3937 326.561 L39.8128 327.9278 L40.0742 329.3883 L38.8749 332.6015 L32.3717 335.5379 L32.1867 336.3314 L33.5328 336.7719 L35.0936 336.0236 L37.5653 334.9687 L40.0929 334.0157 L40.2865 334.1983 L40.09 334.4129 L39.5896 334.8704 L38.2691 336.3242 L37.1373 337.7311 L37.032 337.9025 L36.9839 338.1412 L37.0264 338.4737 L33.1071 340.6663 L33.2194 340.795 L33.623 341.1274 L33.7725 340.9298 L34.8477 340.4157 L35.5486 339.9418 L35.8689 339.3963 L36.3097 339.0572 L36.9072 338.6754 L36.9934 338.7181 L36.8921 339.1581 L36.0901 340.1456 L35.1907 341.6657 L34.8892 342.1396 L34.719 342.2137 L34.8773 342.5719 L34.9478 343.1837 L34.9208 343.7673 L34.7759 345.1726 L34.7762 345.5276 L34.8026 345.8045 L34.8845 346.0777 L34.9882 346.3433 L35.5624 346.8903 L35.9229 347.1882 L36.657 347.8752 L37.0214 348.3599 L37.0846 348.5704 L37.166 349.1287 L37.005 349.5918 L36.387 350.4069 L36.0769 350.677 L35.7708 350.9132 L35.3616 351.081 L34.5372 351.1828 L33.5703 351.2688 L33.2197 351.3902 L32.7743 351.6285 L32.2535 352.372 L31.6254 353.5035 L31.4463 354.0016 L31.1622 354.9644 L31.1533 355.4146 L31.207 355.6544 L31.3706 355.8505 L31.5589 355.9909 L31.737 356.1896 L31.8377 356.4973 L31.8371 356.876 L31.6971 357.1966 L31.4809 357.5032 L31.1283 357.8356 L30.4574 358.3502 L30.1759 358.4989 L29.8542 358.5318 L29.526 358.5293 L28.9196 359.263 L28.6411 360.9801 L28.467 363.9531 L28.4834 364.834 L28.4133 365.2904 L28.3073 365.6408 L28.1822 366.1595 L27.8405 366.7563 L27.1699 367.5935 L26.205 368.6838 L24.6402 370.1991 L24.0974 370.2176 L23.833 370.2284 L23.1743 370.4419 L22.6495 370.5515 L22.0527 370.6153 L21.7432 370.6045 L21.0367 370.6195 L20.4916 370.6853 L21.1467 371.4211 L22.7476 371.8852 L23.9308 374.3215 L22.9333 376.6646 L19.8249 377.5619 L19.7923 378.203 L19.6761 378.5889 L19.4315 378.9567 L19.0032 379.2814 L18.671 379.4656 L17.4859 379.9714 L16.9717 380.0887 L16.8166 380.1442 L16.6826 380.4725 L16.841 380.6644 L17.082 380.7503 L18.2151 380.9443 L18.5377 381.0467 L18.5637 381.5432 L18.5496 381.8303 L18.5759 382.1071 L18.7056 382.4528 L18.9877 382.9488 L19.3324 383.4268 L19.7551 383.6408 L20.0761 383.8276 L20.1094 384.056 L19.841 384.5818 L19.5431 385.065 L19.2116 386.5956 L18.836 387.249 L18.5723 387.6148 L18.5222 387.8793 L18.5295 388.154 L18.4646 388.4766 L17.9731 389.4227 L17.5372 390.941 L17.2864 391.618 L16.8825 392.4628 L16.3643 393.3848 L14.9734 395.1639 L13.9802 396.2818 L13.676 396.785 L13.358 397.5464 L13.3866 397.9348 L13.381 398.4081 L13.2938 398.8321 L13.0834 399.1155 L12.8918 399.2416 L12.5896 399.3424 L12.2465 399.3553 L11.8956 399.2195 L11.5045 398.9031 L11.1025 398.4477 L10.5929 397.6714 L10.3628 397.2423 L0.0 429.5425 M19.9148 386.1907 L19.9306 385.6926 L20.161 385.0104 L20.2568 384.4496 L20.3158 383.9835 L20.5719 383.6537 L21.2333 383.4932 L21.8779 383.2982 L21.973 383.1901 L22.6255 382.2316 L22.9738 381.7763 L23.2964 381.6399 L23.4995 381.6662 L23.6194 381.6816 L23.7036 381.9996 L23.6184 382.4569 L23.0416 383.5456 L22.8457 383.9433 L22.8678 384.1816 L23.0689 384.3426 L23.146 384.6112 L23.0278 384.8442 L22.718 384.979 L22.2367 384.8967 L21.7442 385.1725 L21.4031 385.6165 L20.9597 386.7494 L20.6219 387.0401 L20.2368 387.0077 L20.0139 386.6969 L19.9148 386.1907 M26.0953 372.5381 L26.8759 370.9184 L27.8912 369.6948 L28.5285 369.1757 L29.1636 368.3483 L29.7278 367.2935 L30.0238 366.6704 L30.1574 366.0195 L30.1518 365.3094 L29.9438 363.4983 L29.8664 362.5813 L29.6399 362.0174 L29.4651 360.6955 L29.6969 360.4897 L29.9843 360.4202 L30.4198 360.5767 L30.7013 360.9214 L30.939 362.144 L31.12 362.6421 L31.42 362.9055 L31.7004 362.9729 L31.9813 362.7959 L32.1057 362.5366 L32.1561 362.1872 L32.158 361.5944 L32.109 360.0817 L32.1468 359.7235 L32.241 359.565 L32.4178 359.4843 L32.8224 359.4076 L33.0031 359.4714 L33.2329 359.8089 L33.3017 360.0971 L33.2741 360.4629 L33.2668 361.0243 L33.3837 362.0822 L33.4538 363.8111 L33.5404 365.1731 L33.6592 366.6287 L33.6464 367.5328 L33.6872 367.8775 L33.7675 368.1152 L33.8156 368.1811 L33.9206 368.3288 L34.0174 368.4245 L34.0605 368.4667 L34.4141 369.5564 L34.688 370.6935 L35.0037 371.6362 L35.0705 372.0601 L34.8282 372.622 L34.3002 373.2672 L33.7452 373.8368 L32.9992 374.2397 L32.6756 374.66 L32.5294 374.8602 L32.245 375.1298 L31.8591 375.4246 L31.3548 375.5429 L30.4587 375.7132 L29.9705 375.7107 L29.7058 375.7493 L29.2185 376.022 L28.28 376.6831 L27.5491 377.2671 L27.3983 377.1909 L27.2621 376.8647 L27.2617 376.3507 L27.2334 376.0276 L27.3928 374.8494 L27.4043 374.3848 L27.3631 373.597 L26.1003 372.7949 L26.0953 372.5381 M34.0507 368.0674 L34.1613 367.7705 L35.5782 366.6792 L35.8014 366.5155 L35.8886 366.283 L35.9183 366.0684 L35.8198 364.8814 L35.7181 363.9284 L36.2178 363.294 L37.9031 361.42 L39.1254 360.0163 L39.3529 359.9453 L39.663 359.9937 L39.8796 360.2659 L40.1272 361.1643 L40.2473 362.5963 L40.5209 364.5387 L40.6299 364.9997 L40.7112 365.1901 L40.7928 365.3825 L40.9061 365.6135 L40.9495 366.0422 L39.9329 367.224 L38.6151 369.2827 L38.1144 370.2629 L37.0553 371.6665 L36.5648 372.0421 L36.2643 372.1563 L36.0397 372.1193 L35.8498 372.0627 L35.4942 371.8626 L35.2187 371.3794 L35.0166 370.7918 L34.2986 369.064 L34.0819 368.4414 L34.0507 368.0674 M35.4847 463.5465 L40.6503 460.2105 L42.5258 463.531 L36.8124 467.6364 L35.4847 463.5465 M35.9364 345.6805 L36.0559 343.6854 L36.233 342.7566 L36.1089 342.2888 L36.0674 341.9065 L36.098 341.5092 L36.2238 341.2854 L36.522 340.8346 L36.7982 340.3643 L37.0899 339.9006 L37.3813 339.2126 L37.5143 338.716 L37.8537 338.1006 L38.1855 337.4676 L38.3942 336.7544 L38.496 336.5357 L38.8192 336.0561 L39.5126 335.0799 L39.8595 334.6836 L40.0271 334.6167 L40.2964 334.5117 L40.5295 334.5431 L40.7593 334.6172 L40.9479 334.7907 L41.07 335.0531 L41.1224 335.3516 L40.8291 336.0849 L40.2687 336.9144 L39.8911 337.3956 L39.5205 337.604 L39.2265 337.6657 L39.0332 337.8515 L38.5736 338.1778 L38.2593 338.5184 L37.9728 338.855 L37.7226 339.3778 L37.4748 340.0452 L37.2071 341.0245 L37.0376 341.942 L36.7976 343.8475 L36.8977 345.3012 L36.9503 345.8873 L36.8878 346.1302 L36.7887 346.3129 L36.497 346.3608 L36.2952 346.2872 L36.0318 345.9846 L35.9364 345.6805 M37.4056 351.8286 L37.4425 351.3465 L37.6074 350.8129 L37.8204 349.9072 L37.9119 349.3839 L37.9324 348.4041 L38.0104 347.6585 L38.6481 342.1134 L39.0375 339.2178 L39.241 338.7577 L39.4286 338.5107 L39.6544 338.2997 L39.8309 338.2833 L39.957 338.4237 L39.5609 339.9315 L39.503 340.7487 L39.6485 340.9473 L39.8339 340.9391 L39.9079 340.8392 L40.0291 340.55 L40.1542 339.7463 L40.2177 338.8066 L40.7892 337.0302 L42.5139 333.1835 L42.6519 332.9113 L42.695 332.3946 L42.6881 331.2908 L42.852 331.2785 L42.9255 331.3382 L42.9817 331.4354 L43.0874 331.755 L43.5082 333.2561 L43.6046 333.7393 L43.5852 334.1376 L43.1085 335.6336 L43.0647 336.0705 L43.1938 336.6684 L43.4765 337.1367 L44.2462 337.8752 L44.8569 338.2251 L47.4577 339.0505 L48.5569 339.5301 L48.7291 339.6701 L48.8571 339.8173 L48.8496 340.0087 L48.7804 340.1847 L47.6907 342.3192 L47.4366 342.9393 L47.4198 343.0494 L47.5163 343.2316 L47.7115 343.4179 L48.0315 343.8542 L48.1664 344.1414 L48.147 344.392 L47.988 345.028 L48.0209 345.5421 L48.1299 346.4518 L47.9985 346.9932 L47.4777 347.5433 L46.9856 347.7511 L46.6471 347.7306 L45.8087 347.3858 L45.4024 347.2865 L45.0587 347.2618 L44.4434 347.3287 L44.0701 347.4532 L43.732 347.6621 L43.4235 347.9127 L43.2076 348.3511 L43.2629 350.6482 L43.2886 351.2523 L43.3422 352.5176 L43.359 353.1135 L43.4696 353.8725 L43.6128 354.1082 L43.842 354.1447 L44.2074 353.9651 L44.607 353.7336 L45.2358 353.5668 L46.9915 353.361 L47.2789 353.4449 L47.8244 353.7017 L48.0874 354.1308 L48.0802 354.6881 L48.0239 355.1033 L48.0759 355.9091 L48.1905 356.823 L48.1572 357.3447 L48.0137 357.6905 L47.514 358.4943 L47.161 359.1796 L46.8355 360.3595 L46.5092 361.0089 L46.1277 361.4977 L43.5236 363.6392 L42.8613 364.1538 L42.3793 364.5639 L42.0652 364.9374 L41.5694 365.5801 L41.0536 366.0324 L40.6131 364.2495 L40.3264 362.4568 L40.4363 362.4404 L40.4887 362.3699 L40.5298 362.1383 L40.1318 359.724 L39.5669 358.6939 L39.3637 358.1953 L39.0655 357.8135 L38.6997 357.479 L38.5012 357.2043 L38.4416 356.9557 L38.4515 356.7998 L38.5736 356.4221 L38.6546 356.1767 L38.9802 355.3714 L39.0477 355.0997 L37.697 352.7729 L37.4056 351.8286 M38.8844 442.5232 L40.4373 438.5573 L41.4078 436.1427 L48.0486 438.5089 L45.4946 444.9937 L40.2901 442.9979 L38.8844 442.5232 M40.3514 328.1681 L40.4366 327.6077 L40.8524 327.3838 L41.9852 326.9691 L42.6598 326.7915 L43.8723 326.2491 L44.2235 326.0669 L44.5343 326.1524 L44.6933 327.2747 L44.6913 327.53 L44.4352 327.8408 L43.865 328.4069 L43.4449 328.692 L42.7348 329.1325 L41.5076 329.5416 L40.756 329.6657 L40.4837 329.2051 L40.3823 328.6112 L40.3514 328.1681 M40.5249 326.1374 L40.6352 325.3583 L41.0328 324.2976 L41.4605 323.4418 L41.922 323.1706 L42.56 323.0991 L43.1487 323.2391 L43.55 323.4943 L43.8449 323.7213 L44.0428 324.0177 L43.9773 324.734 L43.7162 325.401 L43.202 325.9702 L42.5768 326.3191 L41.4773 326.615 L41.2755 326.6289 L40.7803 326.5388 L40.5249 326.1374 M42.8201 330.7391 L42.8642 330.4031 L43.1915 329.9307 L43.3936 329.8453 L43.7531 329.8489 L44.1577 330.0326 L44.6851 330.259 L45.6648 330.6161 L47.5113 331.3181 L48.7063 331.9053 L48.9305 332.2279 L49.004 332.4343 L48.971 332.7924 L48.9901 333.0513 L49.0902 333.3549 L49.2324 333.7548 L49.7038 334.5272 L49.769 334.8781 L49.8283 335.4442 L49.7378 336.617 L49.5896 337.4573 L49.5475 337.9904 L49.611 338.2441 L49.8125 338.4114 L50.1131 338.5539 L50.5223 338.7047 L50.8949 338.734 L51.3943 338.6749 L51.5138 338.4376 L51.6679 337.2556 L51.6748 335.7025 L51.6455 335.2111 L51.7574 333.9323 L51.9336 333.2515 L52.3638 332.5248 L52.6842 331.809 L53.043 331.4246 L53.1339 331.2805 L53.3699 331.2038 L53.5658 331.2687 L53.8394 331.4812 L54.343 331.931 L54.6262 332.3056 L54.8727 332.7183 L54.9863 332.8887 L55.1638 333.0497 L55.5114 333.2937 L55.967 333.8906 L56.4872 334.5488 L57.7056 335.4879 L58.2284 335.7478 L58.6162 335.8173 L58.8726 336.1683 L58.8776 336.7142 L58.8015 337.0575 L58.6102 337.5062 L58.5645 337.8963 L58.4996 338.3779 L58.3031 339.3984 L58.1691 339.8245 L57.963 340.0416 L57.6164 340.1909 L57.1841 340.1044 L56.4961 339.7982 L55.7698 339.8065 L55.2912 339.914 L54.8668 340.2336 L54.5152 340.5094 L54.2189 340.8753 L54.1238 341.3755 L53.8163 341.5046 L53.3643 341.3466 L52.8024 341.0899 L51.6162 340.8161 L50.8814 340.6957 L50.4591 340.3802 L49.9623 340.0319 L49.5824 339.526 L49.0412 339.1138 L48.3363 338.84 L47.0751 338.5689 L45.3497 337.9611 L44.6571 337.5577 L44.076 337.0585 L43.6876 336.601 L43.5559 336.017 L43.5947 335.5482 L43.6869 334.9317 L43.7221 334.5663 L43.7007 334.1407 L43.6994 333.7378 L43.6807 333.3194 L43.5786 332.9057 L43.4212 332.4996 L43.3182 332.1898 L43.2296 331.9011 L42.8497 330.9964 L42.8201 330.7391 M43.6882 329.4979 L43.6889 329.3111 L43.7932 329.0666 L44.399 328.2952 L45.1262 327.5902 L45.2941 327.3972 L45.5594 327.3957 L46.1323 327.5501 L46.7956 327.4296 L47.541 327.4888 L48.5174 327.5984 L48.731 327.6885 L48.8074 327.8599 L48.7202 328.1254 L47.6502 331.0875 L47.5765 331.1261 L47.5028 331.1323 L47.3029 331.0726 L45.0867 330.2333 L44.4675 330.0151 L43.7343 329.6224 L43.6882 329.4979 M44.185 348.5307 L44.3223 348.1597 L44.5369 347.8103 L44.7924 347.6096 L45.0413 347.5263 L45.3178 347.5047 L45.6618 347.5942 L45.9357 347.746 L46.178 347.9678 L47.3059 348.486 L47.6015 348.5539 L47.7958 348.6378 L47.8553 348.9187 L47.6127 350.0163 L47.6983 350.4161 L47.5176 351.4463 L47.4389 352.4785 L47.4794 353.3404 L46.9652 353.2725 L45.6266 353.4073 L45.2846 352.0144 L45.1213 349.7894 L45.0107 349.6206 L44.6591 349.4806 L44.4 349.2053 L44.2591 348.8796 L44.185 348.5307 M44.8075 326.491 L44.9402 324.4891 L45.0778 323.4166 L45.358 322.8099 L46.2142 321.6463 L46.606 321.2943 L46.7627 320.9299 L46.7943 320.5048 L46.7308 320.0699 L46.8934 319.5224 L47.1831 319.0777 L47.5976 318.208 L47.6868 317.7649 L48.0812 316.4067 L48.4644 314.7141 L49.1406 312.8567 L50.3633 310.3349 L50.4456 309.7147 L50.732 309.2145 L51.2284 308.9736 L51.7591 308.9989 L52.1973 309.1589 L52.5311 309.4003 L53.1905 309.7338 L53.5839 309.9052 L53.6794 309.7606 L56.3502 307.3818 L57.2026 306.317 L57.9212 305.5527 L59.0708 304.7344 L59.6654 304.1096 L59.7835 303.5774 L59.7404 303.0277 L59.6953 302.7174 L59.6209 302.4461 L59.266 301.5913 L58.8028 301.0699 L58.7278 300.8748 L58.8565 300.669 L59.3585 300.3056 L59.7082 299.9834 L60.2876 299.0941 L60.7491 298.3251 L61.2673 297.6879 L61.5754 297.5634 L61.8236 297.6344 L61.9932 297.7734 L62.0811 297.9288 L62.1091 298.0884 L62.2101 298.4291 L62.4192 298.8099 L62.622 299.304 L62.8327 300.2083 L62.9571 300.9011 L63.0197 301.984 L62.9054 302.881 L62.9897 303.7534 L63.1385 304.5501 L63.3153 305.2161 L63.2485 305.7189 L63.0243 306.1044 L62.4376 306.4014 L61.8556 306.7333 L60.9578 307.7801 L60.5289 308.442 L60.2313 308.8023 L59.6785 309.0946 L59.2489 309.5099 L59.1225 309.8455 L58.9279 310.1908 L58.5273 310.5665 L58.0091 310.8537 L57.6569 311.1656 L57.352 311.3786 L57.0613 311.2649 L57.7072 311.8645 L61.2801 315.9379 L60.8482 316.9739 L58.7353 320.0139 L58.205 320.2254 L56.845 320.3237 L55.6464 320.6268 L55.6128 320.635 L54.4069 321.0966 L51.3502 322.3297 L50.9127 322.623 L50.6618 322.8232 L50.4604 323.2319 L50.0413 324.2282 L49.7931 324.6388 L49.639 324.8298 L49.3486 325.0449 L49.0056 325.1236 L48.3985 325.2121 L47.4428 325.5348 L46.1217 326.2615 L45.5723 326.9073 L45.0949 327.2161 L44.8974 327.2356 L44.8075 326.491 M44.9432 320.1868 L45.0377 319.1493 L45.2075 317.487 L45.5532 316.679 L46.5283 314.7403 L46.955 314.0435 L47.2414 313.3672 L47.4715 312.3158 L47.7362 311.1084 L47.8797 309.9263 L47.9804 309.0802 L48.0805 308.4291 L48.7952 306.969 L49.1188 306.1445 L49.4234 305.4173 L49.6127 304.6041 L49.8075 303.8599 L50.1374 303.564 L50.4577 303.1379 L50.9578 302.5691 L51.5896 301.9109 L52.8465 300.8316 L53.306 300.5532 L53.7607 300.4204 L54.6433 300.6546 L55.0706 301.0133 L55.8172 301.5733 L56.1155 301.8934 L56.1725 301.9973 L56.2044 302.1842 L56.1504 302.4544 L55.9545 302.8054 L55.7679 303.0946 L55.4268 303.6031 L54.959 304.0411 L54.29 304.6999 L53.9095 304.8399 L53.5121 305.0246 L53.2228 305.1837 L52.8191 305.5511 L52.1015 306.2598 L50.729 308.0416 L50.2688 308.6607 L49.8421 309.3499 L49.6861 309.7513 L49.7203 310.4332 L49.3871 311.3802 L48.0677 314.5849 L47.5192 316.5498 L47.1795 318.3485 L46.6867 319.5105 L46.4773 319.9619 L46.3815 320.425 L46.2554 320.7755 L46.0924 321.0658 L45.9074 321.1394 L45.5502 321.0889 L45.1911 320.8332 L44.98 320.5367 L44.9432 320.1868 M51.1247 308.3612 L53.072 305.9232 L53.3567 305.8965 L53.762 305.5774 L54.0428 305.3067 L54.7569 304.7344 L55.3764 304.1857 L55.786 303.8918 L56.2775 303.7122 L56.8776 303.6057 L57.4472 303.6345 L58.8114 303.546 L59.108 303.5995 L59.3678 303.8913 L59.4649 304.1188 L59.3539 304.2768 L58.7515 304.6515 L58.3617 304.8615 L57.3283 305.5784 L56.3874 306.5161 L55.9489 307.1229 L55.6609 307.7107 L55.5108 307.8929 L55.3017 308.0591 L53.5934 309.7688 L52.8909 309.2552 L52.4643 309.005 L51.1247 308.3612 M51.4645 326.7318 L51.4849 325.9764 L51.6514 325.4561 L52.1716 324.3512 L52.8889 323.1613 L53.2106 322.7121 L54.2459 321.8171 L54.4767 321.7034 L54.7595 321.6607 L55.1783 321.7178 L55.49 321.6488 L55.9018 321.4996 L56.5543 321.0812 L56.7035 320.952 L56.983 320.8548 L57.272 320.8218 L57.5137 320.88 L57.8438 321.0328 L58.7485 321.9293 L59.3068 322.6894 L59.7095 322.9576 L59.7088 322.9529 L60.3843 323.2046 L60.4848 323.4145 L60.4551 323.7557 L60.1289 324.7804 L59.906 326.4714 L59.5831 326.7961 L59.185 326.8826 L58.075 326.5918 L56.3008 326.0005 L56.0289 326.0541 L55.8656 326.2465 L55.6056 326.7663 L54.775 328.0755 L54.5495 328.3189 L54.3299 328.4445 L53.9799 328.4445 L52.1841 327.8002 L51.8398 327.4533 L51.5603 327.1013 L51.4645 326.7318 M97.5487 402.118 L97.5809 401.8278 L97.9826 401.5448 L99.4772 401.1487 L100.316 401.0165 L101.8145 401.1292 L102.8868 401.0659 L106.1644 400.6193 L108.3309 400.4197 L109.6859 400.68 L110.3348 401.0242 L111.8784 402.4086 L112.0582 402.3109 L111.0725 400.7757 L110.9991 400.144 L110.558 399.257 L109.3995 398.8161 L107.2343 398.7801 L106.2157 399.0296 L105.1109 399.24 L104.6461 398.9951 L104.4222 398.705 L104.3827 398.3695 L104.4699 398.0763 L104.8442 397.7275 L105.4322 397.3468 L106.3698 396.9995 L107.9042 396.5879 L112.9398 395.5281 L114.1483 395.3197 L115.3694 395.188 L115.8763 395.2776 L116.2167 395.4381 L116.3932 395.754 L116.6375 397.2748 L116.8182 397.4584 L116.9542 397.4353 L117.0042 397.0715 L117.0263 396.1007 L116.9143 394.6103 L116.6727 393.1558 L115.9172 391.0367 L115.8536 390.728 L115.9389 390.4162 L116.1071 390.1626 L116.3563 389.8878 L118.7223 387.9806 L119.0094 387.8077 L119.3715 387.5397 L119.6138 387.4764 L119.8423 387.5412 L119.9523 387.8149 L120.0945 388.313 L120.3078 388.8192 L120.8339 389.5838 L121.9222 391.0423 L124.3307 394.6869 L125.0043 395.9212 L125.4889 396.5607 L126.0903 397.1086 L126.4363 397.3385 L126.6569 397.4137 L127.5593 397.3987 L128.1963 397.2917 L128.5502 397.193 L129.3116 397.0443 L129.9681 396.8786 L130.1169 396.8755 L130.2242 396.9393 L130.2581 396.981 L130.186 397.212 L130.078 398.636 L130.0023 400.2247 L129.919 400.3585 L129.7182 400.4022 L129.258 400.4495 L128.3346 400.7495 L128.0936 400.8112 L127.6195 400.8076 L127.1968 401.0252 L126.8502 401.284 L125.7193 402.2131 L118.6078 403.4123 L113.3154 403.3043 L112.3525 402.37 L112.3429 402.3767 L111.596 402.8907 L110.8424 403.0013 L110.367 403.1232 L109.8594 403.2966 L108.5982 403.6675 L106.1449 403.7241 L102.3979 403.5168 L100.7686 403.2313 L99.092 403.2102 L98.3216 403.0424 L97.9891 402.8387 L97.7686 402.6046 L97.5487 402.118 M112.7475 95.306 L112.8868 95.0525 L113.4929 94.0841 L113.7427 93.7972 L114.1513 92.7505 L114.2886 92.7304 L114.5388 92.546 L115.0395 92.2668 L115.1919 92.0345 L115.2996 91.9717 L115.4174 91.9778 L115.506 92.1061 L115.3015 94.5565 L114.8545 97.03 L115.1205 97.7027 L114.8117 97.6353 L114.3584 97.0676 L114.0311 96.9038 L113.0596 95.8473 L112.7475 95.306 M115.8039 92.2272 L116.0139 91.8063 L117.1438 90.4191 L118.1778 89.6572 L119.1217 89.4017 L120.9725 88.473 L122.209 87.6581 L123.9959 86.1276 L125.4276 85.0489 L126.726 84.1779 L129.8703 82.8256 L130.2706 82.8004 L130.7832 82.7958 L130.3118 83.2764 L128.9703 84.5487 L127.844 85.1159 L125.8204 86.1431 L124.1934 87.4886 L122.8118 88.8372 L122.3785 89.5187 L122.018 89.9926 L120.9004 90.9651 L119.8364 91.5204 L119.4466 92.0484 L118.3833 93.4346 L117.0559 94.6116 L116.2092 95.1756 L116.0426 95.153 L115.9521 95.0118 L115.9343 94.5369 L115.8039 92.2272 M116.3369 202.8203 L118.5999 201.8508 L122.9527 200.0564 L123.2239 199.9704 L123.3869 200.0961 L123.6341 200.8648 L123.7224 201.8904 L123.8698 203.1931 L123.9107 204.0195 L122.3844 204.3691 L120.4701 204.7424 L118.9841 205.1749 L117.5451 205.7078 L117.2587 205.6933 L117.073 205.6037 L116.3369 202.8203 M116.6938 250.8412 L116.9663 249.8281 L117.153 248.8984 L117.3993 246.935 L117.4575 246.0959 L117.5731 245.5955 L117.7028 245.1415 L118.0544 244.5757 L118.4507 244.1577 L118.9653 243.75 L119.4713 243.316 L120.0023 242.7333 L120.3427 242.1876 L120.6117 241.662 L120.7243 241.3134 L120.7812 240.7441 L120.7098 240.0903 L120.6867 239.3217 L120.7773 237.9564 L121.0772 236.8089 L121.4294 236.0557 L122.2745 234.6179 L123.0165 232.8536 L123.487 231.5186 L132.4121 234.5005 L131.9219 235.7154 L131.3564 237.4401 L131.2293 238.202 L131.0265 239.0874 L130.7825 239.8154 L130.376 240.5814 L129.8522 241.2532 L129.6705 241.5029 L126.5519 244.6946 L121.0577 248.711 L118.906 250.209 L117.8756 251.2391 L117.5016 251.4898 L117.0819 251.4579 L116.7217 251.0986 L116.6938 250.8412 M119.1401 383.7031 L119.1529 383.3738 L119.1931 383.1392 L119.2955 382.8156 L119.6161 382.2635 L120.4135 381.3338 L121.2645 380.3259 L122.0417 379.5155 L122.8848 378.9017 L123.6292 378.3769 L124.2465 377.9082 L125.6123 377.1709 L126.2421 376.9476 L126.9288 376.6373 L127.9119 376.3111 L129.2544 376.0214 L130.4665 375.7647 L130.9955 375.7158 L131.5407 375.65 L131.9038 375.8398 L132.1234 376.1305 L132.158 376.4341 L132.1132 376.768 L131.9351 376.9856 L131.6757 377.318 L131.2856 377.5526 L130.9073 377.7713 L130.6091 377.9648 L129.1332 378.877 L127.7525 379.6112 L126.3965 380.3845 L124.5822 381.5334 L122.1547 383.1783 L120.0016 384.7876 L119.7422 384.8303 L119.4552 384.6528 L119.2415 384.0483 L119.1401 383.7031 M119.7969 385.0531 L125.6723 381.4099 L126.2303 381.6255 L126.8189 382.1349 L126.008 382.9915 L123.3925 384.9075 L124.0206 386.3147 L125.317 387.7902 L125.7223 387.7048 L125.957 387.6246 L126.4525 387.3138 L128.1683 386.4181 L128.4946 386.2252 L128.6868 386.1691 L128.8336 386.185 L128.9913 386.307 L129.1994 386.487 L129.7027 386.9043 L130.7457 387.7944 L131.1443 388.2271 L132.1708 389.2267 L132.4806 389.467 L132.3828 389.6589 L132.16 390.0509 L132.4483 390.2382 L132.3776 390.3282 L132.0187 390.6189 L131.8123 390.8031 L131.7675 391.1041 L131.7909 391.297 L132.0599 392.2817 L132.3153 393.1744 L132.6831 393.7799 L132.8194 393.9795 L132.9984 394.5707 L133.0366 394.8639 L133.0719 395.1067 L133.0208 395.3341 L132.8483 395.4617 L132.5649 395.5641 L132.3015 395.6449 L128.1255 396.998 L127.1553 397.1539 L126.7228 397.1281 L126.3214 396.9342 L126.0522 396.7165 L125.6456 396.2293 L125.4862 395.9345 L124.8048 394.6458 L124.3949 394.0171 L122.5882 391.2183 L121.6039 389.7427 L121.5473 389.6676 L120.076 387.5309 L119.7969 385.0531 M123.5047 231.4831 L124.1062 229.8877 L124.252 229.7682 L124.4209 229.7435 L124.8733 229.9021 L126.9647 230.8782 L127.8776 231.1892 L128.5113 231.3117 L129.1197 231.3585 L129.8483 231.3642 L132.5488 231.4558 L133.783 231.4116 L134.1329 231.4769 L132.9201 233.7875 L132.4121 234.465 L123.5047 231.4831 M123.5568 385.0608 L123.593 384.9574 L123.7322 384.7918 L124.4443 384.2063 L125.9159 383.2014 L126.8995 382.2326 L127.0648 382.2856 L127.2228 382.5382 L127.3723 383.0214 L127.6317 383.6192 L127.9695 384.0514 L128.6463 384.4759 L129.0875 384.6873 L129.633 385.0094 L130.1534 385.3824 L130.9304 385.8532 L131.3274 386.2437 L131.2619 386.5292 L131.0904 387.0499 L131.062 386.9182 L130.1982 386.4603 L129.6889 386.2318 L129.0354 385.8413 L128.754 386.0471 L128.833 386.1454 L128.6862 386.1295 L128.4939 386.1855 L128.1676 386.3785 L126.4518 387.2742 L125.9564 387.585 L125.7256 387.6652 L125.4991 387.6796 L125.3144 387.6601 L124.1773 386.2833 L123.7503 385.4627 L123.5982 385.1854 L123.5568 385.0608 M124.1378 228.8869 L124.5332 227.6271 L124.6254 226.9774 L124.682 226.4028 L124.495 225.247 L124.5638 225.0776 L124.7064 224.9026 L124.9523 224.8537 L129.4917 226.341 L131.2043 227.4052 L132.7693 228.8019 L133.1542 229.5211 L133.5479 230.0622 L134.0253 230.2862 L134.3482 230.5091 L134.5115 230.6779 L134.5247 230.9616 L134.4453 231.1557 L134.2165 231.2499 L132.9882 231.2715 L131.0064 231.1809 L129.3047 231.1861 L129.1283 231.0949 L129.1655 230.9024 L129.3307 230.6259 L129.5069 230.1698 L129.6665 229.5994 L129.6629 229.1149 L129.6079 228.7355 L129.5434 228.5337 L129.3762 228.3468 L129.0325 228.1507 L128.6552 228.2057 L127.5395 228.7211 L127.0105 229.2014 L126.5555 229.6982 L126.1756 230.1981 L125.6173 229.8867 L125.0958 229.6354 L124.4111 229.4506 L124.2241 229.3512 L124.1395 229.1824 L124.1378 228.8869 M126.3359 230.2234 L127.4813 228.9857 L128.3576 228.5708 L129.2261 229.032 L129.5181 229.5392 L128.9186 231.0764 L128.2421 231.0152 L127.1659 230.7155 L126.3359 230.2234 M126.6688 380.6536 L127.4322 380.2286 L129.3726 379.1456 L130.3895 378.6043 L132.2623 377.5686 L132.9099 377.9185 L133.4765 378.256 L134.1945 378.4175 L135.1162 378.3764 L135.5399 378.2328 L136.0337 378.0198 L136.2619 377.9519 L136.4265 377.9606 L136.6507 378.0919 L136.8189 378.3625 L137.2067 379.4177 L137.3799 379.6446 L137.7012 379.869 L138.3086 380.1026 L139.2096 380.3356 L140.2529 380.5528 L141.068 380.6289 L141.3205 380.649 L141.2333 381.7665 L141.0664 383.6172 L140.9719 384.3791 L140.9136 385.0701 L140.8692 385.918 L140.9212 386.8467 L140.8968 387.0077 L140.8293 387.1204 L140.7246 387.2341 L140.4998 387.3555 L139.8789 387.6709 L138.6026 388.2219 L138.2961 388.3274 L138.062 388.3521 L137.2149 388.2327 L136.7047 388.1859 L136.0871 388.2343 L134.0555 388.5306 L132.7456 388.7878 L132.555 388.7266 L132.0326 388.3402 L131.7524 387.9513 L131.5295 387.5721 L131.8126 387.4049 L133.4761 386.8528 L135.3227 386.1814 L136.9424 385.6499 L137.4375 385.4982 L137.6218 385.3546 L137.6795 385.2059 L137.5748 385.1277 L137.1053 385.1354 L136.2356 385.4076 L133.9199 386.185 L132.7525 386.5241 L132.4019 386.5843 L132.0033 386.4701 L131.7824 386.3291 L130.644 385.3598 L129.8739 384.764 L128.6855 384.234 L128.2835 383.9701 L127.8608 383.5317 L127.6696 383.2092 L127.1866 381.9913 L127.1461 381.8884 L127.0681 381.6703 L127.0632 381.6739 L126.6688 380.6536 M127.2956 401.7265 L127.311 401.6174 L127.4134 401.4044 L127.6429 401.2655 L128.0017 401.2418 L128.3313 401.2511 L128.6134 401.4456 L128.6671 401.763 L128.6417 401.8973 L128.4758 402.1123 L128.1295 402.1699 L127.8174 402.1036 L127.4628 401.9703 L127.2956 401.7265 M130.4306 397.6755 L130.4352 397.3499 L130.5956 397.0381 L130.7203 396.9686 L132.8385 396.4609 L133.7451 396.2489 L134.6837 396.0374 L135.0948 395.9248 L135.4158 395.9685 L135.772 396.589 L136.0887 397.8813 L136.3386 398.7132 L136.4492 399.0939 L136.4117 399.293 L136.039 399.488 L135.326 399.7133 L132.1122 400.7906 L131.4512 400.9573 L131.2046 400.9933 L130.9817 400.9656 L130.8118 400.6955 L130.7052 400.3467 L130.6384 400.0153 L130.612 399.7056 L130.5449 399.3903 L130.4306 397.6755 M130.8234 246.6761 L131.2671 246.1669 L133.0393 244.7528 L133.9877 243.8329 L135.5334 242.6246 L136.2698 241.8813 L136.5934 241.3804 L136.9387 240.9649 L137.0744 240.6128 L137.1804 239.994 L137.158 239.6795 L137.1682 239.3644 L137.1215 239.0437 L137.0352 238.7384 L137.0 238.4954 L137.0174 238.1654 L137.8958 236.1849 L138.9258 234.2523 L139.2063 233.7766 L139.9 233.3802 L140.2993 233.1115 L141.1013 232.4659 L141.4923 232.1097 L141.6115 232.1575 L141.6283 232.3702 L141.3179 234.0855 L141.0482 234.8964 L140.5508 235.8395 L140.2516 236.22 L139.5843 236.8269 L139.2955 237.281 L139.0556 237.8447 L138.9331 238.3487 L138.8732 238.8676 L138.885 239.4318 L138.9966 240.0378 L139.0302 240.4954 L138.8883 241.316 L136.2109 243.4988 L134.3578 244.7749 L132.3944 246.3811 L131.6125 247.1311 L131.2681 247.2984 L131.0005 247.2537 L130.8326 247.0302 L130.8234 246.6761 M132.0125 391.0675 L132.5382 390.2624 L132.7581 389.1567 L133.1245 388.8136 L134.1224 388.6458 L136.6566 388.2836 L138.6072 388.5275 L141.1704 387.5021 L142.6149 387.106 L143.8268 389.0405 L140.751 390.7414 L140.215 392.9552 L141.0538 394.5861 L142.8714 396.6368 L136.9759 398.5944 L135.4613 395.5183 L133.434 395.5183 L132.0125 391.0675 M132.2202 242.2952 L132.6709 241.35 L132.8417 240.9227 L133.2052 240.341 L133.3171 239.7304 L133.3649 238.325 L133.357 237.8864 L133.4682 237.2022 L133.7372 236.2967 L134.3584 234.7934 L134.8167 233.6248 L134.9503 233.582 L135.0517 233.6376 L135.1143 233.7458 L134.7446 235.3968 L134.5961 236.4938 L134.6797 236.814 L134.8535 237.0936 L135.3213 237.2485 L135.347 237.5863 L135.7003 238.9567 L135.8036 239.5405 L135.7543 240.1325 L135.4629 240.6941 L135.1508 241.1791 L134.2833 241.8859 L134.0289 241.9981 L133.8307 241.9801 L133.7441 241.8339 L133.8639 241.5338 L134.417 240.8795 L134.1345 240.9258 L133.674 241.3201 L133.195 241.8437 L132.8503 242.2967 L132.6284 242.5345 L132.4151 242.6406 L132.3242 242.5279 L132.2202 242.2952 M134.3647 255.4031 L134.521 255.1113 L134.9194 254.8436 L135.9113 254.4199 L136.3824 254.2413 L136.651 254.3118 L136.5875 254.5599 L136.0657 254.9352 L135.2697 255.2708 L134.5345 255.5473 L134.3647 255.4031 M137.0431 375.6597 L137.0638 374.8386 L137.1076 374.4017 L137.0859 374.092 L137.08 373.6675 L137.1896 373.4267 L137.4148 373.2116 L139.3538 372.0215 L141.4561 370.8633 L142.1182 370.5423 L142.7002 370.1862 L143.5028 369.7092 L143.9229 369.4561 L144.1948 369.3367 L144.449 369.2904 L144.8361 369.4813 L150.4494 368.3509 L150.8876 368.425 L151.5177 368.8474 L151.6777 369.1134 L152.0514 369.7931 L152.3055 370.4522 L152.8062 371.3331 L152.9149 371.6629 L152.985 371.8034 L153.1924 372.1929 L153.57 373.3161 L153.8469 374.2289 L154.1086 375.7102 L154.3733 376.3775 L154.7377 377.2172 L155.17 377.9838 L155.2276 378.0852 L155.595 378.6578 L155.4583 378.8415 L151.2498 379.62 L150.1476 379.9256 L149.4006 380.2405 L148.966 380.4581 L146.4693 381.6265 L145.5864 381.999 L144.072 382.6782 L143.5114 382.8629 L143.356 382.8855 L143.2029 382.8567 L143.1127 382.8135 L142.9791 382.6648 L142.9501 382.4961 L142.9613 382.317 L143.2286 381.2679 L143.2882 380.9412 L143.0505 380.6536 L143.0347 380.6407 L142.7242 380.3974 L142.3763 380.2801 L141.6267 380.0619 L141.0825 379.9405 L139.6511 379.8129 L139.3848 379.7115 L139.1253 379.5953 L138.7313 379.354 L138.2138 378.7751 L137.8345 378.2508 L137.3611 377.2074 L137.1876 376.7181 L137.0471 376.1032 L137.0431 375.6597 M140.9037 391.2281 L141.039 391.0351 L141.2428 390.8978 L142.0978 390.4929 L144.233 389.1151 L143.6872 388.4375 L143.408 387.9919 L143.1562 387.5098 L142.9955 387.2387 L142.8971 387.0427 L142.7977 386.7114 L142.7552 386.3533 L142.6798 385.0644 L142.796 384.6127 L142.9056 384.4054 L143.0525 384.2294 L143.305 384.0102 L143.5884 383.8101 L144.2412 383.4901 L145.6591 382.8855 L147.613 381.927 L149.9728 380.97 L151.6359 380.4468 L153.8456 379.9981 L154.424 379.8715 L154.608 379.8865 L154.7723 379.941 L155.009 380.0804 L155.4215 380.8337 L155.5351 381.0698 L155.8415 381.3194 L156.2764 381.6487 L156.5655 381.6811 L157.1946 381.4866 L158.0561 381.1594 L159.6916 380.3835 L160.2467 380.0964 L160.7444 379.8978 L161.1306 379.8273 L161.3706 379.8108 L161.6919 379.9369 L163.0054 381.2031 L163.4584 381.6049 L163.6276 381.9358 L163.5842 382.0541 L163.3988 382.1889 L163.0696 382.2975 L160.5627 383.1731 L159.3384 383.7957 L158.8594 384.1883 L158.1039 384.8597 L157.7174 385.2152 L157.428 385.5985 L156.9503 386.0332 L156.5987 386.3744 L156.1115 387.0298 L155.0495 388.1288 L154.6771 388.4545 L153.5756 389.2138 L150.1811 391.6494 L148.0321 392.9634 L147.3068 393.3642 L145.9949 394.3129 L142.9254 396.1913 L142.2693 395.5579 L141.52 394.6345 L141.1964 393.9806 L141.0087 393.5546 L140.9817 392.5796 L140.9139 391.7451 L140.9037 391.2281 M141.1312 386.5344 L141.1654 385.5193 L141.3073 384.3771 L141.5075 383.6321 L141.7225 382.5058 L141.8015 381.6553 L141.6474 381.501 L141.6741 381.0204 L141.7297 380.7061 L141.7903 380.6413 L141.9095 380.6613 L142.237 380.8285 L142.478 381.0127 L142.7134 381.4135 L142.7341 381.8123 L142.6568 382.3381 L142.5244 382.937 L142.3272 383.5739 L142.1188 384.143 L141.9977 384.4445 L141.8739 385.4858 L141.8028 386.1511 L141.785 386.5745 L141.4114 386.9563 L141.1868 387.1759 L141.1312 386.5344 M142.4645 365.6995 L142.4645 364.9657 L144.2123 364.7558 L147.4395 365.8276 L150.3174 366.2706 L152.0069 367.4124 L151.3893 368.1929 L148.4298 367.9248 L146.6471 367.1211 L144.0375 366.7249 L142.4645 365.6995 M143.5861 249.7746 L143.7333 249.3792 L143.8324 249.1445 L144.6343 248.0361 L144.8733 248.1731 L145.059 248.3049 L145.6081 248.6662 L145.6285 249.0822 L145.4619 249.3154 L145.1074 249.6438 L144.8585 249.8085 L144.4513 250.067 L143.9505 250.2343 L143.7464 250.1715 L143.6618 250.1081 L143.5861 249.7746 M144.4101 367.417 L144.5039 367.1973 L144.7311 366.9961 L144.9632 366.9575 L145.2322 366.9786 L145.6598 367.0831 L146.3353 367.3506 L147.6219 367.8641 L148.5101 368.1692 L150.3902 368.3385 L144.9362 369.4268 L144.6448 369.1196 L144.6462 369.1129 L144.5803 368.8788 L144.5625 368.6287 L144.4368 367.8899 L144.4101 367.417 M161.419 386.0996 L161.7396 385.2538 L162.5831 384.5422 L164.7789 383.6604 L164.8543 383.9444 L164.9695 384.5896 L165.2161 386.6954 L165.3165 388.331 L165.3777 390.283 L164.1508 390.2896 L162.9475 389.7165 L162.3579 388.9602 L162.1074 388.1545 L161.973 387.4121 L161.4545 386.8729 L161.419 386.0996 M162.9008 417.9969 L163.2003 417.6069 L163.5552 417.1301 L164.3071 416.5796 L164.8187 416.0528 L165.3418 415.5461 L166.2073 414.7657 L167.1594 414.0537 L168.6441 413.0336 L168.9009 412.9647 L169.2913 413.1797 L169.4609 413.225 L169.7144 413.3001 L169.8253 413.3917 L169.9465 413.5516 L169.9919 413.7693 L170.061 413.9884 L170.3395 414.1391 L170.5351 414.1062 L170.9822 414.5219 L165.5097 418.6301 L164.7344 418.6584 L164.0839 418.6116 L163.3063 418.3487 L162.9008 417.9969 M177.7052 299.707 L177.7698 299.3797 L177.9308 299.1574 L178.1981 299.0225 L178.4881 298.9005 L179.9771 298.5418 L180.4732 298.5361 L180.7613 298.5922 L181.4885 298.9201 L182.3912 299.2196 L184.9307 299.7842 L185.3771 299.8738 L185.9071 299.8944 L187.0732 299.7662 L188.1155 299.5583 L188.6086 299.4538 L189.0475 299.2963 L189.5004 298.8511 L189.8728 298.6849 L193.4974 297.9551 L196.7259 297.4188 L197.0275 297.428 L197.4005 297.585 L197.6194 297.6951 L197.7721 297.6869 L198.6054 297.4445 L200.175 297.1496 L202.5519 296.9149 L205.8848 296.7003 L207.521 296.6442 L208.2116 296.6792 L208.7084 296.761 L209.0906 297.078 L210.2978 298.1378 L211.0359 298.6612 L211.7585 299.0143 L211.9607 299.1532 L211.9449 299.3334 L211.7845 299.4173 L211.2121 299.3936 L209.9061 299.3921 L207.9127 299.3457 L205.4022 299.109 L203.1797 298.9608 L200.9282 299.2191 L198.2199 299.7117 L196.5764 300.2135 L195.2306 300.4847 L193.8361 300.7719 L192.751 300.879 L192.0689 300.8383 L190.9648 300.8774 L190.1243 300.9345 L189.0962 301.2717 L187.3185 301.5542 L183.5019 302.3123 L181.1205 303.0293 L179.3901 303.7349 L179.2585 303.7261 L179.1353 303.618 L178.765 302.6386 L178.4028 302.0087 L178.0769 301.4013 L177.8926 300.9984 L177.8047 300.5526 L177.7217 300.303 L177.7052 299.707 M233.8553 266.6954 L234.708 261.2905 L235.5112 260.8375 L235.5112 259.494 L250.1534 253.6066 L250.7651 257.4833 L251.3527 257.8673 L253.9238 257.7541 L268.5341 256.0451 L271.148 255.2317 L276.5141 262.0266 L278.8054 267.7095 L286.6251 274.6275 L293.9332 282.6979 L298.492 284.8756 L306.4335 289.8142 L306.6403 292.0995 L305.0696 293.0645 L302.5647 294.396 L297.2055 295.6941 L290.0643 295.6879 L281.8786 295.148 L279.1527 294.6739 L274.9543 294.2179 L272.0477 293.591 L270.243 293.7619 L267.9745 294.1093 L267.0099 294.1196 L266.6385 293.9858 L266.3933 292.2863 L265.2914 291.1087 L264.6837 292.0773 L264.3416 293.3502 L262.5419 293.6049 L260.3332 293.7681 L257.7496 292.9703 L253.4182 293.8062 L249.6757 294.87 L246.9782 295.6297 L241.4692 296.2201 L238.3599 295.9324 L237.7959 291.6028 L239.3268 291.2425 L239.1062 287.7425 L238.7803 286.3889 L236.8182 286.3889 L236.3079 283.558 L239.2971 283.4138 L238.9482 281.1131 L235.9557 281.1131 L235.3532 277.7468 L235.4125 276.8666 L233.8553 266.6954 M311.4191 291.5513 L312.1176 290.6382 L313.0937 289.1224 L316.0277 287.7955 L316.2291 288.3252 L315.8252 288.9454 L314.0787 291.3634 L312.9235 292.1427 L311.7684 292.223 L311.4191 291.5513 M333.6811 155.7994 L333.7236 155.4698 L334.1868 154.9672 L335.1517 154.36 L336.6463 153.8286 L337.6843 153.4902 L337.7742 154.1236 L336.7503 154.771 L336.0764 155.6856 L334.6556 156.0857 L333.6811 155.7994 M356.7023 228.7159 L356.8343 228.2217 L356.885 228.1172 L357.4414 227.2466 L357.9424 226.8332 L359.0173 226.097 L359.4038 226.0666 L359.6063 226.1737 L360.5745 228.6423 L360.3249 228.8575 L359.3011 229.5345 L358.6571 229.8414 L358.0224 229.9165 L357.3749 229.7291 L356.776 229.0351 L356.7023 228.7159 M369.4364 222.2229 L369.499 221.726 L370.1409 221.0104 L370.9758 220.2824 L371.7047 219.6903 L372.4365 219.2538 L373.0979 218.8666 L373.5989 218.4439 L374.2132 217.9157 L374.2675 217.1413 L374.5826 216.7953 L375.5406 216.7567 L376.0917 215.6266 L376.5848 215.2719 L377.1474 215.188 L377.4082 215.1679 L377.8045 215.933 L378.1743 216.5678 L377.8503 216.992 L377.7855 217.218 L377.8898 218.6828 L377.7947 219.3995 L377.4569 219.6528 L376.5236 219.7691 L374.5974 219.8541 L373.244 220.1475 L372.3897 220.4997 L371.5361 221.0758 L370.9208 221.69 L370.5267 222.0385 L369.7788 222.4813 L369.4364 222.2229 M370.6456 137.7446 L373.6338 135.9569 L374.7801 138.3178 L371.3142 139.8324 L370.6456 137.7446 M393.2227 55.9388 L393.5443 55.3242 L394.0829 54.6735 L395.2615 53.8744 L396.0279 54.0048 L395.9482 54.2469 L395.4857 54.8616 L394.5603 55.6421 L393.3563 56.1846 L393.2227 55.9388 M406.1915 202.0619 L406.4773 201.1217 L406.6303 200.8828 L407.2993 200.7731 L407.7362 200.7896 L408.2797 200.8849 L408.9081 201.9404 L409.0724 202.4182 L408.9401 202.792 L408.5783 203.1328 L407.9617 203.6071 L407.4922 203.7208 L406.8601 203.4526 L406.3568 202.8836 L406.1915 202.0619" stroke-dasharray="" fill="none" fill-opacity="1.0" stroke="#ff0000" stroke-opacity="1.0" stroke-width="1.0px" stroke-linecap="butt" stroke-linejoin="miter" stroke-dashoffset="0.0px"/>
</g>
</svg>