<?xml version="1.0" standalone="no"?>
<!DOCTYPE svg PUBLIC "-//W3C//DTD SVG 1.1//EN" "http://www.w3.org/Graphics/SVG/1.1/DTD/svg11.dtd">
<svg width="512px" height="512px" version="1.1" xmlns="http://www.w3.org/2000/svg" xmlns:inkscape="http://www.inkscape.org/namespaces/inkscape">
<g id="layer" inkscape:groupmode="layer" inkscape:label="layer">
<path d="M0.0 312.3241 L3.4731 317.7278 L3.859 317.0715 L6.9855 317.9592 L6.4065 319.9662 L9.7257 324.0955 L13.4694 325.9481 L15.6689 328.8809 L16.7882 332.2002 L19.4899 335.0948 L21.5352 336.1368 L25.8195 339.4171 L32.5734 340.0734 L33.461 338.5295 L34.1441 336.9736 L35.5571 335.593 L35.9743 334.0678 L38.6671 331.9598 L40.3891 331.0151 L42.5616 328.4524 L42.7824 327.5115 L44.6649 325.5915 L44.7062 324.0595 L45.3859 324.1936 L47.8199 326.9856 L49.56 328.1198 L51.6689 328.785 L52.9657 329.2779 L60.3974 329.4352 L60.4102 329.9566 L58.4954 331.3313 L58.466 332.0834 L55.1472 334.5232 L58.8244 333.9179 L60.1482 334.5285 L61.3581 336.7975 L64.6299 335.1397 L67.55 334.6925 L67.6848 332.3231 L68.9574 330.72 L72.5928 330.2847 L76.9027 331.0661 L81.2824 331.4736 L82.9959 328.5842 L88.1697 329.2719 L93.0677 328.7176 L97.5793 333.3801 L105.7064 334.7839 L104.3251 331.732 L101.228 332.2744 L97.013 329.5858 L94.8642 327.3414 L100.2706 323.3493 L102.6714 321.4982 L116.175 315.0113 L119.2878 318.8485 L121.5585 318.0746 L123.0865 318.5331 L123.5958 320.0606 L122.3223 321.3341 L121.1513 322.6069 L121.6098 324.3846 L122.9844 326.3249 L124.1051 327.5976 L125.3268 328.973 L126.9056 330.093 L127.7713 330.7552 L128.8407 331.1627 L130.3179 330.8061 L131.7437 330.2967 L132.7111 329.5334 L133.7297 328.0561 L133.219 326.6642 L132.8639 325.2042 L132.966 323.1673 L133.9333 322.2511 L134.9349 322.1425 L136.6323 323.0654 L137.4472 324.7966 L138.2765 326.844 L139.0919 327.722 L139.2804 328.2089 L139.3824 329.3296 L139.9938 329.8383 L141.4197 330.5005 L144.1186 331.2136 L149.9749 332.792 L153.5908 333.7089 L157.4099 334.9315 L160.5166 335.8986 L163.8776 336.9174 L167.6967 338.3429 L166.0164 336.1024 L165.3543 334.3712 L166.5765 333.0977 L168.5625 331.8759 L170.7526 331.6212 L171.8728 332.8939 L171.822 334.2183 L171.0578 335.2364 L170.1711 336.4365 L171.2643 338.4583 L174.7729 342.4967 L177.2711 342.0158 L181.9346 338.1294 L184.5158 336.8964 L185.4091 337.3444 L186.0133 338.5242 L184.5765 342.418 L184.5115 343.0952 L183.959 343.5192 L183.7027 343.5529 L178.2322 350.661 L179.585 351.3201 L186.5198 344.2338 L187.0087 345.2556 L189.0853 349.0632 L195.2725 356.6992 L196.0333 355.7217 L199.6441 355.9801 L199.6896 359.3936 L196.4131 362.5696 L201.799 371.6944 L202.0411 378.6379 L209.2222 381.4744 L214.1629 387.4687 L217.2696 389.2161 L217.7276 393.2044 L215.08 398.329 L217.9469 400.3961 L220.9705 400.5834 L228.0903 395.0859 L230.2216 395.8573 L233.1834 390.3373 L235.9122 388.0514 L239.2605 393.6164 L241.3447 395.7652 L245.8497 397.0946 L249.2221 393.7871 L246.1278 388.3922 L247.6524 387.4379 L246.2237 382.2062 L248.4484 381.1096 L254.4576 380.7501 L269.3661 379.285 L269.8474 379.7389 L270.6719 380.7194 L271.4551 381.4624 L271.6559 381.4946 L272.618 381.2145 L272.7633 381.1066 L273.1401 380.7785 L273.517 380.5149 L273.8322 380.443 L273.8806 380.4385 L274.8489 379.8588 L275.925 381.3366 L276.7381 382.4354 L278.6898 383.9109 L281.2948 388.0978 L283.1602 388.0978 L282.5688 392.5918 L285.3384 392.4008 L286.0902 387.5376 L289.3398 388.7801 L288.0178 385.7227 L287.8674 383.6907 L286.5383 381.383 L284.6658 373.767 L283.745 371.7835 L283.8062 371.5693 L284.933 371.4307 L285.0503 371.6382 L285.1561 371.7116 L286.76 371.6412 L287.0794 371.215 L287.6006 371.1566 L287.6998 371.5828 L287.8356 371.5746 L290.6313 373.3348 L296.977 375.7474 L296.3984 372.2936 L301.435 365.9103 L303.925 362.7861 L303.3089 358.1831 L301.9486 352.0797 L299.4552 352.9322 L298.0849 348.6534 L296.986 342.5716 L298.5818 336.7953 L302.099 330.5402 L304.9233 330.278 L302.1418 327.0643 L303.0911 319.1834 L304.9992 317.318 L302.3791 309.3095 L302.3791 306.8972 L300.7937 307.6613 L298.3208 305.4288 L301.9044 303.6907 L303.3996 296.4311 L300.8364 294.3783 L294.9982 284.4364 L293.9444 282.1587 L289.4447 281.1023 L277.2222 270.4856 L278.5883 259.6678 L281.8496 267.2054 L284.8704 268.5818 L285.8425 270.3545 L286.0703 270.4264 L286.1885 270.625 L286.7961 271.1 L290.8686 276.3297 L302.1845 283.9419 L303.9806 282.866 L306.7806 283.7583 L307.401 287.6235 L306.4393 288.2543 L311.6881 295.6565 L313.3655 299.2159 L314.0937 302.6524 L315.3026 302.1984 L315.8167 304.9044 L318.3086 310.4632 L320.9714 310.171 L322.2264 311.1862 L324.4493 310.5434 L325.8533 311.9765 L326.3797 312.7953 L326.3797 313.4681 L326.1747 315.0181 L325.7944 315.7493 L325.3853 316.1298 L325.0051 316.3051 L324.7122 316.5389 L324.7417 317.0071 L325.1513 317.27 L325.7944 317.5629 L326.4381 317.8843 L326.8477 318.2357 L327.2279 318.5571 L327.5497 318.9376 L328.1051 319.4051 L328.3979 319.6396 L328.7198 319.961 L328.7487 320.6629 L328.7487 321.0727 L328.632 321.5701 L328.2518 321.9791 L327.6375 322.4474 L326.9061 322.798 L326.2919 322.974 L325.5021 322.974 L324.5371 322.6811 L323.8056 322.6227 L323.2498 323.1785 L323.1036 323.822 L322.9868 324.3487 L322.6945 324.9629 L322.3726 325.3135 L322.0214 325.372 L321.6122 324.9629 L321.3194 324.3779 L320.7052 323.9389 L320.3838 324.1142 L320.3838 324.5824 L320.4128 325.1382 L320.4128 325.6357 L320.296 326.0447 L320.2372 326.4252 L320.1498 326.8051 L320.1498 327.244 L320.0326 327.5954 L319.9742 327.946 L319.9158 328.3265 L319.7691 328.6771 L319.6818 329.0577 L318.0727 332.7726 L318.1021 333.6206 L318.3656 334.6438 L316.9321 336.4866 L314.9433 339.558 L313.7149 342.4832 L312.8372 343.711 L314.2997 343.9746 L314.2997 346.9875 L314.8849 347.9815 L317.3417 351.1988 L321.9046 355.2648 L324.3031 358.3359 L327.7543 362.5771 L330.4162 365.0339 L335.3588 368.6024 L337.6334 369.6226 L338.7716 371.2053 L341.2417 374.698 L342.4189 375.4695 L343.7118 375.4508 L344.0977 375.6433 L344.1519 375.8313 L344.5178 376.0215 L344.561 376.6275 L344.6379 376.9556 L344.908 377.4964 L345.2939 378.3068 L345.4486 378.8079 L344.0783 380.1973 L342.9401 380.7381 L342.5347 380.8924 L341.6276 381.3748 L340.9137 381.7605 L340.1609 382.3013 L339.6208 382.687 L339.3122 382.9379 L339.0996 383.1889 L338.4821 383.6712 L338.0577 384.2112 L337.6718 384.6359 L337.4596 384.7708 L337.0348 385.3303 L336.572 385.7744 L336.3594 386.1602 L336.263 386.3916 L336.1667 386.662 L336.1282 386.8934 L336.0893 387.1443 L335.8387 387.9742 L335.8771 388.4566 L335.993 388.8423 L336.0509 389.2865 L336.1472 389.7493 L336.2436 390.1358 L336.4368 390.541 L336.6489 390.8301 L336.9385 391.0429 L337.228 391.1387 L337.556 391.2743 L338.1156 391.2743 L338.849 391.1582 L339.5434 390.9657 L340.2578 390.8878 L340.9906 390.6377 L341.4734 390.2706 L341.8787 389.8078 L342.2646 389.4213 L342.8242 388.8423 L343.268 388.2251 L343.6155 387.6851 L343.924 387.1638 L344.1557 386.7968 L344.4642 386.2762 L344.889 385.6396 L346.2399 383.6712 L347.3781 383.1694 L347.8029 383.0728 L348.1537 383.1799 L348.5937 383.4008 L349.038 383.5746 L349.4044 383.5941 L349.8098 383.266 L350.2147 382.6293 L350.4078 382.0691 L350.4463 381.5867 L350.4463 381.1433 L350.4463 380.8152 L350.4852 380.2939 L350.6395 379.6767 L350.7743 379.0588 L350.8517 378.5764 L351.0448 378.0746 L351.257 377.5346 L351.3918 377.2836 L351.6234 376.9556 L351.8356 376.4732 L351.9514 376.0874 L352.0867 375.6238 L355.097 363.583 L356.7759 356.655 L359.5934 350.5381 L361.3687 347.7208 L362.9122 344.7102 L365.305 339.7318 L365.7298 337.8021 L367.0807 336.5668 L368.1572 336.6305 L370.6117 332.9089 L372.8017 328.4838 L375.9321 325.551 L382.2731 320.1512 L388.3819 316.6909 L392.0752 315.4901 L414.977 303.8818 L420.1394 301.6305 L420.5082 300.7906 L421.2691 299.7568 L427.9509 296.6851 L427.5075 292.9481 L424.5623 288.5465 L424.9496 285.298 L420.9354 277.736 L424.3268 275.5722 L426.1372 280.0534 L428.1307 286.4802 L430.983 286.4547 L430.8225 290.0142 L431.8435 295.5298 L434.8225 296.6649 L447.7982 294.221 L460.5779 290.2203 L459.6153 278.4336 L460.2039 276.9905 L466.3502 287.2437 L480.7571 276.55 L487.8793 269.8533 L492.6254 263.7296 L505.8888 249.4611 L509.0044 243.8766 L510.735 237.5097 L511.9739 229.7317 L511.8059 225.9011 L512.0 217.1801 L511.8006 214.9478 L510.1199 208.073 L507.1661 200.6376 L499.3238 199.2115 L495.4534 192.5912 L497.0829 186.8874 L497.6938 181.5912 L501.3605 180.8785 L497.4902 164.2773 L494.3327 165.1939 L491.3794 158.0641 L493.6198 153.2771 L496.2679 152.3604 L490.4624 117.2221 L487.2034 122.7217 L483.9444 122.4166 L481.7035 120.6851 L482.5185 117.833 L488.0184 112.4353 L486.5925 111.4166 L480.074 113.963 L476.1016 113.6571 L471.6204 112.0275 L465.1019 112.0275 L455.9353 118.342 L449.7225 120.3793 L442.389 119.4626 L430.3707 121.296 L424.6672 120.8883 L416.1115 120.5832 L408.1676 120.1754 L401.547 118.5459 L397.2694 117.0182 L355.8099 146.9625 L340.0987 178.517 L338.3596 182.1503 L335.6996 186.5839 L330.9117 188.8891 L324.0843 200.7702 L319.5622 198.1991 L319.3296 193.1578 L316.1043 191.9925 L312.4689 187.8249 L308.0356 190.0417 L304.7173 188.683 L301.6177 189.6723 L299.2283 190.98 L297.7744 190.8331 L294.7428 194.1013 L292.3757 191.3067 L291.6324 195.7163 L299.4353 201.0363 L302.8931 203.9627 L301.2086 209.4594 L291.1003 207.9082 L287.2626 208.4417 L284.7493 205.7155 L279.9149 211.1904 L277.8302 211.8491 L277.6964 211.9518 L275.6767 212.938 L274.9676 212.7536 L273.8512 213.1066 L270.1944 210.9154 L270.034 208.9176 L271.5216 207.3034 L264.1753 198.6532 L259.6959 199.0586 L259.2284 199.3861 L258.1044 199.2595 L258.0603 199.1508 L257.7275 199.1695 L256.0567 197.278 L255.3267 196.6216 L254.9019 195.9711 L252.8442 191.596 L257.0929 189.4309 L260.2252 189.7592 L260.6694 186.8627 L253.0673 181.7815 L247.7934 177.799 L244.195 174.1454 L241.5042 173.8344 L239.3639 173.8149 L239.1048 174.2549 L238.6548 174.4804 L238.1711 174.4685 L237.2897 173.8254 L232.5853 173.8194 L230.7484 172.343 L229.5271 175.8504 L225.2044 177.5667 L224.2076 177.5067 L226.5064 181.6024 L226.9654 182.2754 L227.1453 182.7333 L227.1643 183.3021 L227.0855 183.3748 L226.8747 184.5627 L223.9418 186.2002 L223.2071 185.7723 L222.5601 185.731 L221.5899 184.8842 L221.5818 184.8265 L221.3407 184.6863 L221.5168 184.3663 L221.4893 184.1715 L221.3758 183.8687 L220.8475 184.7178 L220.8532 184.7868 L220.2623 185.719 L219.9642 185.8824 L219.5707 185.6553 L219.284 185.3323 L219.1103 184.9531 L218.3518 184.4143 L217.7955 184.1707 L217.1713 184.0163 L216.7726 183.7503 L216.7536 183.6154 L216.4517 183.4648 L216.9643 179.9199 L210.5327 178.2936 L207.4569 178.7733 L207.5585 179.7865 L207.6316 179.8195 L207.7707 180.1807 L207.6634 180.8297 L207.8034 182.2282 L206.0999 183.0353 L204.0119 182.2462 L204.0119 185.5055 L201.9509 187.3093 L199.9123 185.5819 L197.9519 183.799 L195.3038 184.6136 L193.7602 186.9586 L193.5499 187.3153 L193.3012 187.2846 L191.3062 188.7647 L189.4983 186.4985 L189.8039 185.2761 L194.7689 181.1003 L190.1091 183.5442 L187.7923 183.2137 L186.7429 181.5837 L178.2797 178.496 L176.0987 178.8145 L169.3989 187.6691 L166.6387 191.8006 L166.062 201.8539 L165.2124 215.9737 L164.4814 217.375 L161.6002 219.7654 L161.9543 221.3675 L160.9357 223.4043 L165.0353 228.9044 L168.6 232.6983 L170.9173 230.9921 L173.2341 232.0869 L172.8012 234.2007 L178.4031 238.7326 L177.1809 240.3624 L177.3081 242.3997 L178.5052 244.3854 L179.4692 245.5131 L179.5228 245.7978 L179.502 245.9364 L179.6216 246.1582 L179.8603 246.362 L180.0976 246.5531 L180.4399 246.6198 L180.6592 246.6363 L180.1133 247.9588 L179.9999 247.9753 L179.623 247.9948 L179.2172 248.0045 L178.8327 247.9708 L178.5303 247.8981 L178.3841 247.776 L178.3571 247.6299 L178.3533 247.4605 L178.368 247.2747 L178.3595 247.0244 L178.2246 246.8866 L177.9218 246.9023 L177.356 247.7805 L177.0038 247.9333 L176.6421 248.2578 L175.6183 249.9062 L175.4422 250.3408 L175.5039 250.5371 L174.6282 251.5501 L174.4283 251.5779 L174.2048 251.6783 L173.8573 252.1031 L173.5141 252.8015 L173.1999 253.2218 L172.5041 254.3255 L172.3023 254.4356 L171.8994 254.5608 L171.5937 254.6042 L171.3388 254.6267 L170.763 254.6814 L170.4744 254.4634 L170.2945 254.1494 L170.1237 253.0847 L169.743 252.9828 L169.9158 253.7268 L170.1972 255.2381 L170.8575 255.158 L171.3117 255.107 L171.9729 255.0808 L172.9279 255.2861 L173.6219 255.6315 L173.9257 256.1013 L174.2489 256.7045 L174.2579 257.0102 L174.2437 257.3886 L174.1958 257.5317 L173.8863 257.7467 L173.049 258.3094 L170.8561 259.3726 L167.9972 260.2905 L167.7974 260.319 L167.5121 260.223 L167.0759 259.0549 L166.952 258.9013 L166.8476 258.8826 L166.662 259.0115 L166.2338 259.1306 L166.2376 259.1523 L166.3416 259.6491 L166.5485 260.1481 L166.7949 260.8112 L166.9753 261.3649 L167.0028 262.0423 L166.9283 262.3592 L166.8352 262.7818 L166.8419 263.0703 L166.8153 263.364 L166.8011 263.7401 L166.7958 264.0645 L166.7669 264.3418 L166.6786 264.5583 L166.512 264.7007 L166.2813 264.7509 L165.9077 264.7531 L165.7055 264.7643 L165.4412 264.819 L165.1915 264.8543 L164.7994 264.7231 L164.4116 264.5051 L164.0718 264.383 L163.6507 264.2901 L163.0318 264.3605 L162.0488 264.9771 L161.6372 265.1892 L161.4374 265.0985 L161.3045 264.8782 L161.0928 264.8235 L160.743 264.9921 L160.6495 265.2948 L160.6732 265.4626 L160.8398 265.6769 L160.949 265.8493 L160.9746 266.0328 L160.7677 266.3685 L160.4938 266.8338 L160.3243 267.0788 L160.1027 267.1957 L159.2549 267.8101 L158.6459 268.3053 L158.1912 268.4552 L157.9605 268.5046 L157.7132 268.5571 L157.4678 268.626 L157.2775 268.602 L156.9922 268.2671 L156.8313 267.6093 L156.6975 267.607 L156.659 268.1794 L156.3685 268.2888 L156.0358 268.5751 L156.0353 268.8141 L156.9903 270.2841 L157.4223 270.9404 L157.6644 271.4522 L158.1613 274.7294 L158.1661 275.0021 L157.8661 275.2838 L155.5118 275.9251 L153.7854 276.4436 L152.9054 276.7058 L152.4868 276.8677 L151.2503 277.4933 L150.46 277.6604 L149.3275 277.8072 L152.6197 283.7553 L146.2128 286.5896 L143.8091 286.5701 L143.1522 283.8482 L140.4143 283.1964 L135.4646 284.6896 L132.6072 286.956 L123.5231 287.1455 L118.16 281.0761 L117.6725 280.7442 L116.0416 280.4977 L115.3524 279.947 L114.6447 279.0225 L114.3812 278.6224 L111.5793 276.8961 L104.9479 279.0262 L103.3625 276.7081 L103.2401 275.8809 L103.475 275.6232 L104.4519 275.4299 L105.377 273.577 L106.4957 272.2658 L108.6943 271.647 L113.0522 271.0011 L113.0095 269.5491 L113.8045 268.2409 L114.2925 267.2571 L114.5279 265.2469 L114.2673 265.1959 L114.1344 265.6147 L113.9678 266.3558 L113.4443 266.9769 L112.8163 267.4579 L112.1304 268.0558 L107.7336 267.9974 L107.0003 265.5181 L106.5218 263.0927 L106.2959 262.4649 L105.3755 259.9203 L105.1458 259.3254 L104.5045 257.9138 L104.2544 257.913 L103.5415 258.2929 L101.9637 258.9868 L100.8392 259.2895 L100.4192 258.8017 L100.2317 258.439 L98.5685 256.2841 L97.3377 254.7848 L95.4424 251.4677 L94.9217 250.7904 L95.9227 250.1917 L95.5596 249.6552 L100.3081 246.8828 L100.3764 246.9735 L101.1288 246.9892 L102.2452 246.4902 L104.4329 246.0294 L105.2198 245.6929 L107.8096 244.8619 L108.7114 244.5233 L109.0261 244.4918 L109.3802 244.5023 L109.6788 244.5959 L109.8017 244.844 L110.3414 242.055 L106.9538 241.9764 L106.041 241.6167 L104.3631 241.7463 L100.3532 241.6497 L98.8779 242.2843 L97.0121 242.2064 L94.5804 243.1678 L93.2271 243.3948 L89.7223 241.3664 L86.4329 239.0218 L85.3568 237.8529 L92.3296 236.4172 L82.1861 236.4929 L79.8783 236.8735 L76.1693 240.6141 L73.8658 241.595 L71.7835 242.5563 L66.9339 246.1103 L66.568 246.0256 L66.2253 245.6644 L65.9931 243.7837 L65.6894 242.8366 L65.0823 241.5875 L65.107 240.9978 L65.163 239.5973 L65.059 238.8487 L65.1264 237.0594 L65.1079 235.7533 L66.3093 226.7816 L66.3283 226.6939 L66.2376 226.2653 L66.6282 224.7066 L66.8988 222.4451 L67.7147 219.39 L67.8419 217.9235 L68.1581 216.8954 L68.4395 216.5994 L68.5255 216.5567 L68.6365 216.0456 L75.6942 214.8444 L80.6492 215.4454 L85.2287 215.4071 L91.3855 216.2329 L91.4306 216.116 L91.0736 215.9564 L89.4365 215.4379 L85.8576 214.409 L80.7503 213.6319 L80.5794 213.3831 L80.577 213.1036 L80.4617 213.0804 L80.54 212.6255 L80.4565 212.0335 L80.7379 211.1395 L80.9273 210.3751 L81.0474 209.6767 L81.0835 209.2278 L80.9605 208.5039 L80.6776 208.0723 L80.3824 207.457 L79.8551 206.8223 L79.4853 206.3607 L76.2947 212.1789 L75.6017 212.2523 L75.2941 212.4307 L74.2944 212.573 L72.6189 212.7431 L72.1713 212.7042 L71.6383 212.5408 L71.2576 212.2531 L71.3221 212.0582 L70.9642 211.8791 L70.8603 211.7068 L70.3823 211.9136 L70.1203 211.6446 L70.1023 211.4227 L69.9452 210.9349 L69.7434 210.4793 L69.5564 210.0581 L68.917 208.8494 L68.0541 207.8355 L67.4992 207.0464 L67.2102 209.1012 L68.4865 210.7153 L67.7356 212.7799 L67.3502 212.7926 L67.0246 213.0953 L66.5632 213.195 L64.4249 212.9245 L64.3323 212.95 L59.4395 217.4724 L55.5735 213.793 L55.4059 211.8896 L55.2982 211.8836 L54.9806 211.7173 L54.7865 211.5337 L54.0109 210.2073 L53.1057 208.8576 L52.5969 208.4702 L53.8376 211.0046 L53.9283 211.1065 L53.9871 211.3096 L54.2145 211.7742 L54.0498 211.9481 L54.0042 212.2366 L52.7155 213.5187 L52.4156 213.4768 L51.9803 213.0736 L51.4221 212.0972 L50.6389 211.4797 L50.0361 211.081 L49.2505 210.7018 L48.1389 210.2695 L46.2573 209.4391 L44.8519 208.7108 L44.0226 208.4904 L42.5023 208.4335 L41.7761 208.3458 L39.7764 208.109 L39.0349 208.5676 L38.454 208.988 L36.8695 210.5557 L36.5961 210.232 L36.2814 210.184 L35.8585 209.864 L33.948 207.3491 L33.2721 206.7279 L32.5255 206.2011 L32.2492 205.7335 L32.1315 205.2014 L32.1742 204.9886 L31.9132 204.6791 L33.8275 202.6894 L34.8252 201.9663 L34.979 201.7924 L35.1693 201.7167 L36.4177 200.8122 L39.9088 199.9489 L41.5231 199.799 L41.4809 199.4198 L41.3978 199.4393 L39.0098 199.7795 L37.9926 200.0089 L37.3613 200.0748 L31.2752 202.0135 L31.195 201.8261 L30.7631 201.6373 L30.4531 200.7448 L30.1123 200.1175 L30.2656 199.6559 L29.6253 198.1608 L29.2613 197.4024 L29.2081 197.2915 L29.1141 196.9251 L29.265 196.5047 L29.0946 194.6386 L30.4474 192.6527 L30.5362 190.349 L31.5876 187.7215 L32.113 185.2814 L31.1746 184.4555 L30.2357 185.2814 L30.4987 187.2336 L29.4222 187.684 L27.533 186.7832 L25.4967 185.8405 L24.7601 185.2859 L24.6276 185.2447 L23.4163 185.2904 L20.6804 185.6801 L18.7447 185.9821 L17.4726 186.0143 L15.9703 185.9379 L14.9774 186.8544 L15.1046 187.9748 L14.9009 188.2296 L14.2891 188.2041 L13.7015 188.2881 L13.5809 188.4327 L13.1746 189.9698 L10.1368 198.5955 L10.5782 200.9861 L2.6799 208.36 L2.6325 209.0045 L2.6419 209.8663 L5.0627 216.9403 L10.621 213.171 L13.0892 219.9228 L10.5023 224.0967 L11.4943 225.9251 L17.3896 232.0846 L17.1475 235.9511 L23.0 233.0213 L23.4367 235.0744 L18.9037 237.8919 L19.4045 243.3723 L21.625 242.7586 L22.8714 250.4547 L19.049 251.4003 L18.2354 253.6691 L19.8013 259.031 L20.0685 261.3027 L19.2583 262.6919 L24.4297 262.6147 L23.3878 265.9729 L22.1912 267.7868 L20.6861 270.0638 L15.592 271.916 L12.8129 273.1897 L10.6903 273.4601 L9.6868 275.8525 L12.0796 277.0108 L13.1219 279.0172 L13.7395 281.1787 L13.2762 286.2734 L9.88 291.1748 L11.2309 295.613 L12.6971 298.2374 L12.0027 300.9772 L14.5497 303.5634 L17.1741 305.9562 L19.3741 307.9243 L13.6236 314.9484 L11.192 312.6717 L7.7184 312.4402 L6.1364 313.4823 L3.859 312.2088 L4.6697 308.7738 L0.2312 309.8159 L0.0 312.3241 M14.1434 299.9613 L14.5483 299.6114 L15.0348 299.2631 L16.2661 299.1417 L16.8836 299.1904 L17.6321 299.3013 L18.0892 299.314 L18.4699 299.3245 L18.8961 299.55 L20.7331 300.7914 L21.1954 301.2289 L21.5865 301.6904 L21.8585 302.1909 L21.9857 302.6876 L21.9112 302.9296 L21.0506 303.4323 L20.7307 303.899 L20.7896 304.3155 L20.3187 304.7141 L20.3082 304.6886 L18.1505 304.5126 L17.701 304.5425 L16.7383 304.7755 L16.2119 304.6871 L15.5308 303.9132 L14.7965 302.943 L14.4401 302.2456 L14.2483 301.4806 L14.1434 299.9613 M18.8245 253.9793 L18.8658 253.4563 L19.3452 252.1975 L19.9285 251.655 L20.7492 251.2534 L21.3615 251.0054 L22.0445 250.8945 L22.2999 251.1643 L22.6255 251.2137 L23.15 251.0369 L23.581 250.6757 L23.807 249.4941 L23.8501 248.3836 L23.974 247.4156 L24.1786 246.721 L24.4658 246.2931 L24.9556 246.0114 L25.3111 245.9799 L25.6548 246.2511 L25.7284 246.7232 L26.1617 247.7707 L26.5182 248.4204 L26.5823 249.112 L26.3279 249.904 L25.7887 251.0286 L25.7146 251.658 L25.9277 252.447 L26.2861 253.774 L25.7488 253.6526 L25.2134 253.532 L25.2053 254.2408 L25.6491 254.3277 L26.6578 254.5248 L27.1177 254.6147 L27.2387 255.1827 L27.2558 256.1672 L27.4917 257.2559 L27.4557 257.8703 L27.4481 258.0037 L24.1696 258.185 L23.7348 258.1356 L23.1282 258.0674 L20.5204 258.242 L20.0486 257.976 L18.9678 254.85 L18.8245 253.9793 M20.1825 314.5289 L20.9201 313.4082 L23.057 312.1219 L23.5502 312.3998 L24.0804 312.4305 L24.8631 312.5631 L25.2324 312.7759 L25.8841 312.7789 L26.3174 312.6762 L26.7612 312.7481 L26.9212 312.7736 L27.2762 312.7062 L27.3375 312.6942 L27.3707 312.7212 L27.4447 312.7804 L26.3374 313.9183 L25.7991 314.6203 L25.3036 314.9514 L24.7354 315.3028 L24.378 315.8908 L24.2341 316.4557 L23.9574 316.9442 L23.4486 317.3764 L23.159 317.5809 L22.3735 317.4483 L22.5667 316.9921 L22.6013 316.661 L22.5358 316.4385 L22.1039 316.1193 L21.8685 316.0369 L21.0815 315.5103 L20.426 315.1477 L20.1872 314.9432 L20.1825 314.5289 M20.5261 306.7054 L20.5698 306.4881 L20.6557 306.136 L21.2348 305.482 L21.7669 304.9771 L22.0531 304.6512 L22.9151 304.0795 L23.4728 303.9454 L23.835 304.0571 L24.3675 304.5118 L24.8332 305.1186 L26.5557 306.7443 L27.7651 307.6194 L25.9985 308.7012 L25.7925 308.7783 L25.4915 308.7596 L25.2205 309.0503 L24.9646 309.2091 L24.3481 309.5964 L23.1657 310.2062 L22.8847 310.2332 L22.2453 310.2699 L22.0593 310.1531 L22.0071 310.1201 L21.7308 309.8466 L21.3459 309.1866 L21.3046 308.5124 L21.2538 307.9617 L21.1455 307.5827 L21.0307 307.4426 L20.7316 307.247 L20.613 307.1279 L20.5261 306.7054 M23.4548 311.288 L23.5222 311.0468 L25.4407 309.8819 L27.6132 308.1266 L29.3989 309.5987 L29.5389 309.7478 L29.4616 310.2557 L28.9133 310.694 L28.5246 310.8498 L27.5985 310.9427 L26.6316 310.7269 L26.2078 310.8483 L25.7507 311.07 L23.4548 311.288 M25.0159 303.7731 L25.2955 303.448 L25.5765 303.1835 L26.0962 303.0682 L26.5752 303.0 L29.9172 301.402 L31.494 300.3202 L34.3733 299.2338 L34.9021 299.4743 L35.3046 299.7777 L36.5601 301.0057 L37.4007 302.5063 L37.9722 302.8059 L38.5831 302.4269 L38.949 302.1362 L39.3245 301.9129 L40.0896 301.6132 L40.9772 301.7436 L42.7449 304.6347 L44.0673 307.761 L44.4 308.6255 L45.4533 308.7341 L46.3527 308.3813 L47.51 308.7566 L49.2064 309.8504 L49.8576 310.0392 L50.4528 310.1238 L53.1218 310.6692 L53.4346 311.2034 L57.3781 311.8866 L58.4238 311.8941 L62.6506 312.184 L63.1096 312.5062 L63.7869 312.689 L63.42 315.1762 L56.1506 317.258 L55.7519 316.8385 L55.6518 316.4175 L55.6831 315.7028 L55.8203 314.6862 L55.7135 314.3139 L55.3945 314.2165 L55.0798 314.3903 L54.9554 314.9754 L54.7466 317.715 L54.4015 317.8559 L49.7299 316.9479 L48.156 317.0902 L46.9223 317.1322 L46.7785 317.1367 L46.5678 317.046 L46.3741 316.9629 L45.5245 316.0429 L45.336 315.7635 L44.6786 315.4354 L44.6511 315.4024 L44.2927 314.9701 L43.3334 313.8382 L42.4069 312.9497 L42.2223 312.5069 L42.367 312.0911 L42.6646 311.7975 L42.4729 311.4986 L41.3413 311.748 L40.6763 311.7945 L39.9449 311.8986 L37.5336 312.3099 L36.0375 312.6657 L35.9245 312.8231 L35.9815 312.9864 L36.4044 313.3355 L37.1173 314.0539 L38.2911 315.1507 L38.7857 315.5245 L39.0231 316.0032 L39.1085 316.6055 L38.9656 317.0363 L38.2893 319.9332 L38.2081 321.2772 L38.0605 321.4345 L37.3936 321.6698 L36.2871 321.6638 L35.8172 321.5064 L35.5723 321.3574 L35.6202 320.9768 L35.6881 320.7476 L35.7076 320.403 L35.504 317.5285 L35.5282 316.5007 L35.3245 315.0608 L35.2016 312.7556 L35.0687 312.5354 L34.8356 312.5684 L34.726 312.7549 L34.6994 313.564 L34.7065 314.9095 L34.7516 315.8489 L34.6705 318.3436 L34.3852 319.0095 L33.078 320.3655 L33.0353 320.7153 L33.4401 321.0083 L34.033 321.0255 L34.5233 321.1528 L34.5423 321.2862 L34.4469 321.5731 L34.2091 321.8121 L33.2232 322.3994 L32.3555 322.8362 L31.5676 323.4512 L30.9691 324.0602 L30.2305 324.4513 L29.7373 324.5622 L27.739 324.5816 L27.234 324.5142 L27.1234 324.4992 L26.9644 323.9501 L26.991 323.5913 L26.9074 322.3507 L26.868 321.7641 L26.9677 321.5109 L27.0584 321.43 L27.9184 321.7514 L28.8412 322.0301 L29.7729 322.1365 L30.4716 322.0368 L31.0949 321.8795 L31.4656 321.3828 L31.2567 321.1049 L30.9287 320.9468 L30.1536 320.7498 L29.7782 320.4958 L29.5109 319.7984 L29.4554 319.6538 L29.5266 319.4388 L29.6315 318.7406 L29.9457 317.8416 L30.9249 316.6587 L31.1632 316.3703 L32.4614 314.5289 L32.5165 313.4801 L32.8435 313.0598 L33.715 312.5069 L33.7995 311.6649 L34.1184 310.8033 L35.401 309.4646 L39.0254 306.4275 L38.9353 306.0304 L38.7549 305.954 L36.5335 307.6906 L32.6133 311.1472 L32.075 311.2236 L31.7024 311.1337 L31.3141 310.7876 L30.1327 309.3335 L26.587 305.8761 L25.1455 304.4009 L25.0159 303.7731 M27.833 265.5488 L29.1848 263.7978 L29.6818 263.6659 L30.4223 263.9139 L32.1738 263.875 L33.0167 263.6862 L34.8855 263.627 L35.9914 263.5153 L37.3594 263.8023 L38.5223 263.9349 L39.9676 264.3373 L40.8866 265.2746 L41.8929 265.9549 L42.0068 266.2786 L41.4571 266.7109 L37.2782 266.666 L31.1888 266.5468 L28.4282 266.5521 L28.0794 266.3176 L27.8871 265.9317 L27.833 265.5488 M39.746 291.0908 L40.1053 290.8016 L40.6269 290.8429 L41.3038 290.5432 L41.4747 290.2667 L41.8425 289.9895 L42.2778 289.9483 L42.5882 290.0337 L42.8388 290.1746 L43.2314 290.3094 L43.5826 290.2045 L43.8428 289.549 L43.8532 289.289 L44.2135 289.0058 L45.0973 288.5398 L46.2156 287.6325 L49.0702 285.4987 L49.3056 285.6284 L50.6175 287.7748 L50.4225 288.0064 L49.0901 288.3735 L48.0264 289.0552 L46.2977 289.9745 L46.2336 290.6713 L45.6669 291.4115 L46.1282 291.8902 L47.3329 292.5892 L47.4687 292.9234 L47.5052 293.1841 L46.3323 295.2961 L46.1192 295.422 L45.8268 295.4632 L45.6218 295.1665 L43.706 293.9018 L43.2247 293.3782 L42.5953 293.1002 L41.9954 292.5053 L41.5601 292.4521 L40.4105 292.0438 L39.8751 291.5696 L39.746 291.0908 M41.0475 215.629 L41.403 214.4652 L41.4191 213.7061 L41.8715 213.2048 L42.2593 213.4633 L43.0192 213.1725 L43.2613 213.7218 L44.4897 213.5764 L44.3763 215.3862 L43.7322 215.7091 L43.4127 215.919 L43.0263 216.2719 L42.3727 216.711 L41.6617 216.744 L41.3223 216.4855 L41.0475 215.629 M45.767 224.6429 L45.7917 223.8097 L46.0418 223.4672 L46.1634 223.2387 L46.4595 222.6804 L46.4757 220.7793 L46.6076 219.5564 L46.8302 219.3548 L47.0239 218.3267 L46.9404 217.4949 L47.0381 217.0865 L47.4359 215.7758 L47.7046 214.8893 L47.9139 214.7979 L48.1199 214.7072 L48.3824 214.2621 L48.4531 213.8027 L48.4488 213.7038 L48.4265 213.2063 L48.8442 212.8938 L49.0023 212.7401 L49.5505 212.2433 L50.1742 212.1968 L50.7799 212.618 L51.9808 214.3213 L51.9447 214.9635 L51.8725 216.2419 L51.0011 218.6301 L50.3176 220.3327 L48.9899 222.0232 L48.8229 222.236 L47.799 223.0154 L47.6808 223.3706 L47.9443 223.8704 L48.2647 223.8794 L48.6648 223.4957 L48.9135 223.0925 L49.355 223.0978 L49.8681 224.4676 L50.2392 224.9314 L50.4244 225.9056 L52.0092 226.891 L52.1151 227.3998 L52.0724 227.5759 L51.9979 227.728 L51.9143 227.8981 L51.5379 228.0614 L50.4614 227.5811 L48.3999 226.4661 L47.7924 225.5174 L47.4853 225.0378 L47.2546 225.1795 L47.6685 226.3312 L47.7805 226.6422 L47.6134 226.6931 L47.4188 226.7523 L47.2798 226.7951 L46.9688 226.0847 L46.685 225.4717 L46.4795 225.3271 L45.954 224.9562 L45.767 224.6429 M47.6694 276.0675 L47.6747 274.9054 L47.9334 273.9734 L48.4664 272.9409 L49.8984 271.0633 L50.4362 270.3036 L51.1591 269.654 L51.7919 268.8463 L54.5477 263.603 L55.3565 263.3175 L56.293 263.2179 L58.205 263.5266 L59.4158 263.6854 L60.2859 264.3133 L61.0842 265.396 L61.4027 266.2044 L61.4592 266.8458 L61.4345 268.5915 L61.6628 268.7639 L62.1005 268.9752 L63.0892 269.2441 L65.3386 269.5386 L69.1064 270.2466 L72.4869 271.3368 L74.9922 272.7229 L75.7099 273.2354 L75.886 273.5178 L76.1613 274.2648 L76.851 276.5245 L77.4671 277.043 L77.8449 277.506 L78.2313 277.8387 L78.5023 278.5077 L78.7501 279.6016 L79.267 282.5341 L79.4464 284.285 L79.4136 284.312 L78.7339 284.5562 L77.7856 284.569 L73.5041 284.3652 L70.8916 284.0325 L70.1497 283.9201 L69.6998 283.8078 L68.2943 283.7448 L67.9321 283.9074 L67.4921 284.2775 L67.0284 284.494 L66.3496 284.6439 L65.8057 284.6746 L64.0414 284.3337 L59.786 283.6062 L57.342 283.5455 L54.5624 283.4174 L52.9249 283.3987 L51.8094 283.8093 L50.9432 284.2588 L50.6299 284.3921 L49.906 283.0668 L49.9084 282.6989 L49.5092 281.6058 L49.0056 280.7322 L48.7014 279.8773 L48.2632 278.4568 L48.1156 277.5412 L47.6694 276.0675 M49.7276 290.8653 L51.0576 288.4267 L51.5896 287.4961 L54.028 290.0232 L58.6383 294.678 L56.023 297.0717 L54.3384 295.7419 L54.3825 293.6141 L54.2496 292.4169 L52.1659 293.8801 L49.7276 290.8653 M50.8012 284.9391 L51.976 284.1254 L53.2628 283.6294 L59.1723 283.9179 L64.9821 284.8462 L64.8725 285.3654 L62.1024 285.4703 L60.405 285.5347 L59.0755 285.5849 L58.0716 285.5849 L57.849 285.9295 L57.2931 286.0764 L54.5463 286.5147 L54.178 286.5124 L53.5823 286.5094 L52.9752 286.2967 L51.9827 286.1858 L51.0538 286.2839 L50.8895 285.2193 L50.8012 284.9391 M52.9657 218.5612 L52.9752 218.4803 L53.1864 216.8736 L53.6416 214.2142 L53.6221 213.7406 L53.9183 213.7735 L54.3322 214.3003 L54.7214 214.7957 L56.1886 216.3896 L57.7626 217.9213 L57.9344 218.3664 L57.8115 218.6968 L57.4284 218.9142 L55.2925 219.9325 L54.804 220.0337 L54.7651 220.0419 L54.2435 219.9528 L53.7769 219.8404 L53.3948 219.5144 L53.0891 219.1352 L52.9657 218.5612 M53.4285 224.8385 L53.8495 223.6238 L54.3811 222.1716 L54.721 221.8194 L54.8738 221.713 L55.3005 221.6193 L56.603 222.6504 L56.2342 224.0922 L55.8497 224.4938 L55.8749 224.912 L56.2636 225.2109 L56.5251 224.7104 L56.5351 224.4256 L56.5437 224.1709 L56.6979 223.6793 L57.0178 223.1727 L57.4023 222.565 L58.1119 222.26 L61.3966 222.5478 L62.0483 222.3597 L62.6387 222.0719 L63.2786 221.3683 L63.5301 220.795 L64.1619 219.8411 L64.3105 219.4522 L65.1407 218.266 L65.3533 217.6612 L65.5 217.2431 L65.6163 217.2094 L65.7824 217.1607 L66.0473 217.2498 L66.3411 217.5458 L66.4151 217.8471 L66.4412 217.9542 L66.2547 218.8722 L65.4891 222.8055 L64.9755 226.598 L64.5393 228.8572 L64.2265 230.8033 L64.0902 232.5132 L64.1358 236.0987 L64.5307 239.4482 L64.3803 240.3234 L64.4415 240.8996 L64.5872 241.5455 L64.8492 242.0048 L65.4392 242.4275 L65.6315 242.8366 L65.266 242.9647 L64.4733 243.4263 L63.9858 243.4817 L63.4998 243.0614 L63.4058 242.9797 L63.1675 242.061 L62.1294 238.8585 L61.9291 237.7225 L62.0293 236.9477 L62.1873 236.4719 L62.2946 236.1497 L62.5357 235.7773 L62.4916 235.3667 L62.2286 234.8534 L61.7502 234.2771 L61.108 233.5023 L60.966 233.0258 L61.0382 232.6751 L61.3913 232.4743 L61.5157 232.4031 L62.1375 232.6646 L62.7313 233.2985 L63.1623 233.2034 L63.4048 232.9508 L63.3522 232.4818 L63.1461 232.3124 L62.5538 231.8268 L61.6961 231.33 L60.3347 230.9089 L59.3171 230.547 L58.1053 230.2967 L57.5936 230.2428 L57.2704 230.0352 L57.1232 229.5908 L56.5593 228.2765 L56.4065 227.7917 L56.4008 227.4545 L56.6262 227.2004 L56.6989 227.187 L57.1289 227.1083 L57.6961 227.184 L58.2652 227.0828 L59.983 227.2327 L60.4097 227.0356 L60.5317 226.6512 L60.2849 226.5148 L60.2374 226.4886 L59.7547 226.3874 L59.3579 226.2668 L59.1286 226.4219 L58.3246 226.5043 L57.754 226.332 L56.9428 225.9401 L56.6542 225.9101 L56.3267 225.7048 L55.8962 225.6845 L55.2075 225.2574 L54.8548 225.139 L53.4285 224.8385 M64.3651 248.4151 L64.7823 248.3499 L64.8563 248.3379 L65.3789 248.1484 L65.8716 247.8397 L66.2471 247.0177 L66.9747 246.7644 L67.3806 246.5636 L68.0385 246.0826 L69.0196 245.2493 L70.0244 244.5345 L70.5712 244.2258 L71.3069 243.8624 L72.5843 243.3948 L73.0959 243.0846 L73.9029 242.7901 L74.1217 242.602 L74.9946 242.1607 L76.3279 241.7059 L77.5639 240.8494 L78.6774 239.9427 L80.0312 238.9611 L81.1784 238.2942 L82.5844 237.7008 L82.8411 237.8349 L82.9218 237.9256 L82.9788 238.0882 L82.9636 238.3362 L82.6836 238.788 L82.161 239.1552 L82.0893 239.2054 L81.4803 239.4624 L80.9776 239.7464 L80.914 239.7824 L80.605 240.2365 L80.559 240.4365 L80.5248 240.5871 L80.5001 240.695 L80.2239 241.1446 L79.9429 241.5605 L79.7772 241.9629 L79.6377 242.5908 L79.5332 242.9849 L79.4573 243.0344 L79.0671 243.2907 L78.582 243.7013 L78.3722 244.1411 L78.3205 244.7053 L78.3139 244.7743 L78.3053 244.8679 L78.0675 245.346 L77.5819 246.2354 L77.5245 246.7899 L77.7096 247.3788 L77.9996 247.5077 L78.2707 247.504 L78.6494 246.9885 L78.957 246.2849 L79.3263 245.5858 L79.6899 244.9893 L80.6857 244.5959 L81.1115 244.2985 L81.6825 244.0122 L82.3057 243.6159 L82.5625 243.5109 L82.7486 243.4847 L83.1183 243.5072 L84.0601 243.9396 L84.8072 243.466 L85.3193 243.8219 L86.0636 244.0489 L86.6678 244.004 L87.1852 243.8691 L87.8203 244.1396 L88.2537 243.9418 L88.4279 243.6376 L88.4454 243.2337 L89.4166 242.8673 L89.859 242.8733 L90.5249 243.0172 L91.7334 243.5964 L92.0443 243.974 L91.8274 244.3584 L91.2948 244.8155 L90.0327 245.5798 L88.3325 246.706 L87.8455 246.6191 L87.4325 246.2422 L86.0721 245.2591 L85.8334 245.2523 L85.7536 245.4059 L85.8457 245.6247 L86.5995 246.2519 L87.3433 247.0514 L87.5341 247.4867 L87.9637 247.7205 L88.3348 247.7018 L88.7682 247.4335 L89.4778 247.2717 L89.9563 247.4028 L90.1229 247.6186 L91.2502 248.6249 L92.33 249.7369 L93.1987 250.409 L93.4929 250.8099 L93.1526 251.2325 L92.6514 251.5277 L91.9926 252.0979 L90.73 252.9581 L90.2368 253.1162 L89.6382 252.7003 L88.5622 251.4857 L88.0163 250.9844 L87.2949 250.4405 L87.0556 249.9085 L87.0637 249.4379 L87.5132 248.9254 L87.591 248.3694 L87.2113 247.9333 L86.2183 247.0611 L85.4219 246.4197 L84.0862 245.7049 L83.2375 244.9339 L83.2949 244.5248 L83.6172 244.3082 L83.5555 243.9703 L83.2859 243.7912 L82.89 243.7245 L82.4035 244.6986 L82.5075 245.385 L83.0196 246.0811 L86.1851 248.1131 L86.5126 248.5088 L85.999 249.1944 L85.5092 249.6252 L86.1799 250.2913 L86.7101 250.8638 L87.7164 251.5037 L87.8398 252.1443 L87.0561 252.2148 L86.4765 251.957 L85.8832 251.742 L84.8641 251.2542 L83.5332 250.2868 L82.8981 249.9691 L81.9768 249.6919 L80.9311 249.1607 L80.2486 249.5638 L81.6607 250.1932 L82.3969 250.8301 L84.2376 251.9083 L87.6247 253.0143 L88.6362 253.4488 L90.992 254.0333 L92.1696 254.4446 L92.4591 254.8118 L92.7914 255.0029 L93.3662 254.9894 L94.2116 255.2097 L96.9091 256.102 L98.7593 257.8231 L99.1599 259.3584 L100.0162 261.1731 L100.2155 261.5957 L100.1776 262.0063 L100.0423 263.2463 L100.0048 263.3677 L99.898 263.7161 L99.5249 263.6674 L99.1775 263.3692 L99.2069 263.1392 L99.2933 262.4619 L98.8908 260.5258 L98.4474 259.3097 L97.9087 258.1416 L97.2769 257.1765 L96.4876 256.4385 L93.155 255.4704 L92.6219 255.349 L90.0156 255.917 L89.7403 256.6093 L88.9073 257.1967 L88.2371 257.0611 L87.4097 256.7292 L86.0845 254.8433 L86.7666 252.9498 L86.0607 252.71 L85.3725 254.0805 L84.9358 254.061 L84.1099 253.3949 L83.518 252.528 L81.7523 251.1733 L81.5211 251.0331 L80.0554 250.1625 L79.5855 249.8148 L79.6287 249.5128 L79.7051 248.9808 L79.0932 248.8302 L76.7722 248.4346 L75.9942 248.4181 L75.0439 248.4159 L71.736 248.6039 L70.2708 249.291 L69.8189 249.9362 L69.4425 250.6383 L68.9147 251.2265 L67.5728 252.5445 L66.2727 254.5113 L65.7122 255.6322 L65.3305 255.2374 L64.7961 254.5773 L64.8312 254.5301 L64.6745 253.4249 L65.1416 250.4 L64.8231 249.3495 L64.4647 248.6182 L64.3651 248.4151 M66.3629 285.2073 L67.514 284.7106 L67.9468 285.241 L68.0062 285.3137 L69.5061 286.4682 L71.1123 287.416 L71.784 287.6542 L72.4243 287.6243 L72.5952 287.586 L75.2295 288.6057 L75.5632 289.1909 L76.232 290.0345 L76.6858 290.2697 L77.0926 290.1708 L77.8639 290.2989 L77.7922 290.8466 L77.2492 291.1822 L76.8951 291.2669 L76.3298 291.1096 L75.3207 290.3551 L73.0129 288.7646 L71.7403 288.354 L69.7472 287.5014 L67.634 286.3259 L66.4949 285.3234 L66.3629 285.2073 M84.1033 284.3367 L84.3159 284.1104 L84.3681 284.0003 L85.9041 283.816 L87.1786 283.7036 L87.9779 283.5275 L88.8422 284.6626 L88.2048 285.1968 L86.5729 286.8638 L85.1546 288.8417 L84.9648 288.9376 L84.6178 288.6065 L84.5333 288.5278 L84.5219 288.0663 L84.1033 284.3367 M84.847 290.7477 L85.8191 289.8479 L86.4068 289.1114 L86.5107 288.6477 L86.7153 288.1764 L87.2327 287.7561 L87.3063 287.4122 L87.5089 287.0226 L88.1711 286.3978 L88.3709 285.8906 L89.1626 285.1886 L89.5685 284.79 L90.1941 283.9958 L91.4752 282.8697 L91.9655 282.2539 L92.855 281.5069 L93.8618 280.473 L95.3859 279.5417 L95.8952 278.8254 L96.582 278.2627 L96.9964 278.0267 L97.435 278.2028 L97.7492 277.6409 L97.9044 277.2041 L98.2813 276.7965 L98.7351 276.7455 L99.092 276.3889 L99.7632 276.0008 L100.3636 275.8337 L100.8539 275.6075 L101.79 275.3183 L103.1931 275.1662 L102.8285 275.9941 L102.2817 278.1226 L102.0107 278.8441 L101.6965 278.9026 L101.0386 279.024 L100.1894 278.8726 L100.1125 278.8022 L99.7138 278.4366 L99.3858 277.987 L99.2273 277.5397 L98.7156 277.6386 L98.5257 277.7338 L98.4541 277.9496 L98.9055 278.3811 L99.317 279.1326 L99.3915 279.7882 L99.3982 279.8489 L98.7488 281.0162 L98.3715 281.417 L98.1465 281.4897 L97.1777 281.8043 L96.7121 281.9182 L95.9806 282.0216 L95.3365 282.2629 L95.0057 282.5146 L94.6948 282.6674 L94.5699 283.0323 L94.0445 283.6617 L93.6942 284.082 L92.7511 284.563 L91.5734 285.4208 L91.0765 285.8134 L90.944 285.9857 L90.4286 286.6548 L90.982 288.6035 L91.0689 289.074 L91.4529 290.0599 L91.5454 290.3596 L91.8891 291.4677 L91.9532 292.7818 L92.0547 294.3146 L92.4848 297.689 L92.6927 298.5408 L93.1768 300.5224 L93.3529 301.0004 L93.3686 301.59 L92.7126 302.0373 L91.4885 301.9294 L91.1367 301.8432 L91.1263 301.7676 L91.1035 301.6088 L91.0883 300.0505 L90.8429 298.412 L90.5895 297.5774 L90.2999 296.2993 L90.1566 296.3877 L90.2738 297.8403 L90.2733 298.618 L90.0507 298.7087 L89.6962 298.7454 L89.3031 298.4607 L89.0948 298.0891 L88.7473 297.674 L88.6049 297.3863 L88.2632 296.4109 L88.0258 295.4534 L87.8502 294.454 L87.6883 293.949 L87.2531 292.7458 L87.0025 292.6522 L87.0613 293.8824 L86.4177 294.1775 L85.9269 294.2068 L85.6891 293.5804 L85.2814 292.6657 L85.1233 292.124 L85.0436 291.1283 L84.847 290.7477 M91.0741 246.8581 L91.1652 246.5928 L91.5345 246.18 L92.0652 245.7102 L92.6509 245.4734 L93.136 245.6052 L93.577 245.1272 L94.045 244.5233 L95.4006 243.7837 L96.6086 243.2022 L97.1416 243.1266 L97.8878 243.0793 L98.9482 242.7107 L99.3531 242.6755 L99.7622 242.6852 L100.4225 243.0591 L100.6987 243.4278 L101.1748 243.2922 L101.6594 243.3723 L102.5105 243.3881 L104.5003 242.8665 L105.797 243.3304 L106.5195 244.1164 L106.5902 244.3794 L106.3144 244.5892 L106.0481 244.6274 L105.3917 244.5495 L104.9816 244.016 L104.4898 243.705 L103.9957 243.762 L103.8429 243.8309 L103.5884 244.575 L102.9045 244.9721 L102.3382 245.0523 L101.349 245.2613 L100.6878 245.6285 L100.3024 246.0249 L100.226 246.446 L100.2402 246.7854 L100.2763 246.8378 L95.515 249.6357 L94.4527 250.2621 L93.9562 249.6604 L91.7884 247.782 L91.103 247.0649 L91.0741 246.8581 M94.4992 276.1035 L94.6763 275.534 L94.7513 275.5558 L95.1153 275.6622 L95.4732 275.6517 L95.5074 275.3617 L96.274 274.8852 L97.0182 275.2553 L97.4981 275.1939 L97.7672 275.0328 L98.0373 275.6479 L98.1959 275.6187 L97.8731 274.297 L98.1778 273.8115 L98.4887 273.5156 L98.7911 273.0645 L99.4689 273.0091 L99.9208 272.8967 L100.7614 273.0361 L101.7245 274.4229 L101.6205 274.7915 L101.0073 275.0148 L100.1078 275.1287 L99.2743 275.4239 L98.6126 275.7363 L98.1213 275.9079 L97.7036 276.4848 L96.4719 277.4828 L95.3574 278.4306 L94.7399 276.756 L94.4992 276.1035 M161.9059 220.1671 L162.9269 219.6133 L163.7101 219.2506 L164.5298 218.7598 L165.0918 218.4623 L165.4962 218.0584 L165.8612 217.8088 L166.0587 217.7197 L166.1418 217.5376 L166.4982 217.324 L166.633 217.366 L167.0858 217.88 L167.2767 218.846 L167.6056 219.3031 L167.5885 219.4207 L167.4689 219.438 L167.3441 219.4215 L166.7745 219.2304 L166.5775 219.2791 L166.343 219.3937 L166.3615 219.5751 L166.653 219.8598 L166.9078 220.2727 L167.1888 220.6279 L167.5914 220.9786 L168.3404 221.2499 L168.8036 221.7317 L169.6993 222.7411 L169.9518 222.9434 L169.9537 223.0521 L169.864 223.2349 L169.8317 223.3421 L169.7857 223.4972 L169.5427 223.6148 L168.1491 224.2878 L166.2101 225.8059 L165.8593 226.4429 L165.4673 226.6961 L165.3287 226.6272 L164.9589 225.9311 L164.7543 225.6815 L164.5122 225.4575 L164.1976 224.7194 L163.937 224.4099 L163.5212 224.0607 L163.375 223.8906 L163.2411 223.665 L162.8115 223.1203 L162.5443 222.7276 L162.8239 222.2001 L162.6753 221.7722 L162.6445 221.5519 L162.7897 221.3818 L162.9971 221.2634 L163.0024 220.9157 L162.8486 220.7883 L162.6502 220.7276 L162.064 220.7089 L161.9059 220.1671 M177.2606 240.731 L177.928 239.4999 L179.1388 239.954 L180.3753 240.3024 L181.4889 240.5452 L181.9659 240.8996 L182.0827 241.2915 L182.2398 241.541 L184.923 242.0925 L185.878 241.9929 L188.4265 242.4851 L189.1874 242.5826 L189.5139 242.8418 L190.028 242.6395 L189.9924 242.2911 L189.7873 241.9936 L189.4589 241.9719 L189.3824 240.6156 L189.5144 240.1068 L190.5705 239.658 L191.8967 238.8637 L192.4497 238.8397 L192.7734 239.2092 L192.8973 240.3751 L191.2811 241.326 L190.4348 241.8677 L190.6298 242.0985 L192.5513 241.0502 L193.1365 240.5797 L193.3477 240.2028 L193.4726 239.0211 L194.3649 238.6022 L194.926 238.4883 L195.449 238.585 L196.3575 238.5243 L196.7762 238.3624 L198.1636 237.5479 L199.4333 237.2107 L201.256 237.0804 L203.4276 236.9627 L204.7628 236.0381 L205.9143 235.7391 L206.5081 235.2325 L206.4322 234.2966 L206.7943 233.0153 L207.5623 232.0411 L208.0574 231.698 L208.7418 231.4462 L209.4424 232.0337 L209.8193 232.8781 L210.4416 232.8175 L212.392 232.4046 L213.5791 232.0187 L214.3172 232.1041 L215.5518 232.535 L216.4256 233.4379 L217.1291 232.7792 L218.6261 231.8381 L219.912 231.6507 L221.4831 230.9584 L222.131 231.0303 L222.0821 231.6208 L220.3938 233.4544 L218.535 234.72 L215.6918 235.5015 L213.591 235.9017 L211.9657 235.6521 L211.7948 235.4034 L212.3274 234.3528 L212.3863 233.8073 L211.8266 233.6417 L211.2509 233.7908 L210.883 234.0748 L210.4392 234.1378 L209.8682 234.2644 L209.741 234.6466 L209.7533 235.0549 L209.6579 235.3419 L208.3522 235.3906 L207.1978 235.554 L206.1194 236.2539 L204.9465 237.3254 L204.2226 238.1594 L203.2989 239.3156 L202.0231 240.6239 L200.6337 241.3679 L198.6881 242.0198 L194.7831 242.9834 L191.639 243.5664 L190.2881 243.8609 L188.9581 244.2887 L187.2659 244.1269 L180.8353 242.5721 L179.0358 241.9621 L178.8213 241.6452 L177.9911 241.4369 L177.8687 241.6714 L177.2606 240.731 M189.3763 301.7998 L189.4816 301.3428 L189.8732 300.9472 L190.8306 300.2805 L192.5536 299.6549 L195.3152 299.0316 L197.8613 298.5206 L199.4423 297.7445 L199.785 297.5249 L199.9754 297.1908 L200.0091 296.9466 L199.9854 296.7795 L198.7403 296.4611 L197.0524 295.4317 L196.5654 295.0586 L196.143 292.0131 L193.4075 290.1334 L193.3003 289.6591 L193.4109 289.2418 L193.6928 288.4057 L193.9244 288.0738 L194.2349 287.9681 L194.5761 287.9809 L194.9454 288.1937 L195.637 288.7691 L196.3338 289.7183 L200.6518 291.5673 L203.5833 293.2058 L208.102 295.9524 L210.9908 297.1481 L214.3048 298.1812 L215.2731 298.5064 L215.7108 298.818 L215.772 299.2533 L215.2983 300.4138 L215.1184 300.6296 L214.9005 300.7772 L213.2653 300.497 L212.9772 300.7434 L212.3839 301.0589 L211.7094 301.1338 L204.6128 299.0945 L202.9529 299.1252 L202.3017 299.081 L201.9072 299.1709 L201.0794 299.562 L200.442 300.0962 L199.7229 301.0184 L199.1556 302.7722 L199.0208 302.8419 L199.0152 303.1476 L199.6683 303.9971 L200.4382 304.4002 L201.2318 304.4931 L204.9436 304.529 L214.4131 303.5791 L215.6685 303.5716 L216.082 303.8548 L216.5571 303.8555 L216.9615 303.5933 L218.2948 302.0837 L218.9655 302.1721 L220.5433 303.3483 L224.1217 305.6071 L227.4529 307.3205 L228.6647 308.415 L229.5741 308.0816 L230.7603 308.2674 L231.3612 309.0188 L231.3726 309.0428 L231.5121 309.3432 L230.9634 309.6923 L230.2372 310.1733 L230.1608 310.3546 L230.7798 311.3098 L231.2373 311.9885 L231.1196 312.0664 L230.8823 312.1136 L230.7347 312.2702 L231.0712 312.6852 L231.2981 312.7077 L231.5302 312.62 L231.6052 312.4799 L232.8758 314.8031 L230.6763 318.1555 L228.8925 321.6241 L228.3486 321.8046 L227.329 320.7318 L226.8439 320.0321 L225.3093 318.9639 L224.5337 318.6118 L224.0747 318.0986 L223.6585 317.5772 L223.0319 317.2468 L220.6335 313.9004 L217.7874 309.8354 L217.4419 309.6938 L217.0322 310.0107 L216.4266 310.2864 L214.5175 310.661 L211.1939 310.2782 L209.1254 310.5374 L205.7914 311.2154 L202.924 311.5885 L198.148 311.8544 L197.7696 311.8754 L193.7332 311.9023 L193.4745 311.6716 L193.4223 311.6252 L193.3558 311.3959 L193.3563 311.1569 L193.857 310.6662 L194.1983 310.6318 L194.6697 310.4153 L194.9635 309.4683 L194.9658 307.6591 L194.7451 306.9624 L194.2448 306.7339 L193.9838 305.5 L194.3967 304.7808 L194.738 304.317 L195.0817 304.0099 L196.7729 303.7836 L197.7416 303.5851 L197.7877 303.1536 L195.8734 303.4899 L194.6274 303.5649 L192.7065 303.427 L192.079 303.5506 L190.6664 303.8878 L190.2288 303.9155 L190.1101 303.7956 L189.3763 301.7998 M193.4654 282.6652 L193.4844 282.5603 L193.5656 282.412 L193.8082 282.2067 L196.0153 281.0057 L196.2056 280.9098 L196.4387 280.8768 L196.629 281.0207 L198.9283 283.598 L200.03 285.1496 L200.2436 285.6995 L200.338 286.1303 L200.2526 286.484 L199.776 287.679 L199.5995 288.3532 L199.8121 289.2718 L199.2235 289.8591 L196.6751 288.324 L195.7011 287.4377 L194.6511 286.0149 L193.849 284.4214 L193.6311 283.4234 L193.4654 282.6652 M201.2218 289.5003 L203.4788 289.2957 L204.2155 289.1781 L204.8653 289.0245 L207.0264 288.9556 L209.6185 288.133 L209.8302 287.912 L213.4557 287.4519 L213.7481 287.8071 L214.9827 287.7142 L216.7569 287.0526 L217.9459 286.1903 L219.7886 285.9288 L219.9101 285.9116 L220.0482 285.9265 L220.0904 286.2277 L220.5219 287.84 L220.7687 288.3855 L221.1632 288.5345 L221.1988 288.5293 L221.5291 288.4829 L221.9193 288.3592 L225.1982 285.6059 L229.0302 283.3994 L230.6041 283.1627 L231.2349 283.3043 L232.2118 284.4109 L232.293 284.8889 L232.0646 285.4171 L231.6707 286.0584 L231.309 286.7155 L230.7152 288.133 L229.1521 289.6539 L227.5483 291.3164 L228.1136 292.0049 L227.6285 292.4611 L226.0821 292.3203 L224.7051 293.3759 L222.7984 294.4323 L223.0276 295.6714 L222.9806 296.6371 L222.5914 297.5362 L221.4124 298.5536 L219.9742 299.1791 L218.7491 299.2443 L217.8334 298.9117 L217.0113 298.6607 L216.6122 298.588 L215.6847 297.91 L214.4116 297.3249 L213.8691 297.0747 L211.4521 296.2318 L208.7974 295.0616 L205.5607 292.6537 L202.6733 291.1276 L201.9485 290.8054 L201.5664 290.4038 L201.3794 290.0907 L201.2536 289.8224 L201.2218 289.5003 M218.919 239.9555 L219.0153 239.0983 L219.1549 238.5483 L221.5367 236.2441 L221.8562 235.6207 L222.6413 235.1756 L224.2954 235.261 L225.5087 235.1793 L226.1832 235.3195 L226.4542 235.6079 L226.8349 235.8245 L227.011 235.515 L227.4932 235.1254 L228.9262 235.0137 L229.8138 235.2063 L230.5994 235.6417 L231.2834 236.319 L231.9265 237.6828 L232.1202 237.9616 L232.0912 238.3872 L231.8961 238.7791 L231.3199 238.8248 L230.2462 239.4572 L229.5751 239.7569 L229.2803 239.8333 L228.6386 239.8558 L227.9057 239.9592 L225.2851 241.2061 L223.9807 241.7463 L221.9881 241.8235 L221.9093 241.8145 L220.5376 241.6534 L219.977 241.2893 L219.8678 241.2361 L219.4497 240.6808 L219.0267 240.3309 L218.929 239.9907 L218.919 239.9555 M225.587 300.8333 L226.382 294.914 L226.6559 294.6061 L227.4296 293.9865 L227.8981 294.0352 L229.0582 295.0953 L229.6766 295.4032 L230.0046 295.7434 L230.5557 296.1412 L232.6751 298.0374 L234.0668 299.084 L233.8076 300.1965 L231.2506 302.0283 L231.6019 303.3259 L230.4043 303.9649 L229.2509 303.3866 L228.4629 303.1378 L226.6972 302.2118 L225.7621 301.8328 L225.587 300.8333 M227.3826 230.0434 L229.0885 227.2169 L235.505 229.6867 L233.5446 233.7099 L229.8271 232.4113 L227.3826 230.0434 M227.545 324.5869 L227.7733 324.2812 L230.1518 322.9028 L230.3336 322.6047 L230.6616 322.3335 L230.5049 321.9814 L231.2701 321.2615 L231.8805 320.8277 L232.4202 320.758 L232.7657 320.9468 L234.0577 320.8255 L234.708 320.9169 L235.5444 321.4098 L236.9494 322.6661 L237.8878 323.404 L238.5741 323.5104 L239.4802 323.5089 L239.9264 323.7876 L240.2672 325.0319 L240.233 326.0005 L240.2264 326.1893 L240.1799 327.5085 L240.6398 330.1754 L241.1648 331.9718 L241.5099 332.834 L241.5497 333.7397 L241.1634 334.706 L240.4542 335.351 L239.943 335.5248 L238.594 336.1585 L238.3553 336.3893 L238.2162 336.7968 L238.1365 337.3391 L237.649 338.2583 L236.9664 338.7564 L236.2079 339.0066 L235.4323 338.8441 L234.6539 338.4718 L233.7872 337.5676 L231.5819 332.6572 L233.07 337.7242 L233.0871 338.9048 L232.872 339.8808 L233.5556 340.8794 L233.7559 341.4352 L233.5513 341.9064 L233.0296 342.1027 L232.3651 341.7686 L231.6308 341.2742 L231.2141 341.1565 L230.4081 340.1558 L229.6961 339.1475 L229.2309 337.5811 L229.1218 336.0866 L230.156 332.1658 L231.0603 330.6908 L230.6407 329.1109 L230.2296 328.3602 L228.1819 325.4806 L227.9271 324.9727 L227.545 324.5869 M227.7619 292.9474 L227.8331 292.7323 L229.2798 292.1937 L229.8504 291.8131 L231.1713 290.6466 L231.3294 290.3244 L230.3943 289.9446 L230.8884 289.3122 L231.665 287.9914 L232.4524 287.4647 L233.3458 286.7739 L234.531 286.6046 L237.0282 286.4285 L238.1877 282.3865 L238.2119 282.346 L238.3031 282.1932 L238.979 281.7437 L239.6421 281.9175 L240.7537 282.1273 L242.1193 282.3857 L242.3562 282.3782 L243.3696 282.3453 L243.736 282.2936 L244.007 282.2891 L244.4347 282.6727 L245.974 284.1966 L246.0258 284.3255 L245.8544 284.5547 L245.5654 284.6888 L245.5359 284.7023 L245.0413 284.8072 L244.7081 285.0934 L244.5225 285.4613 L244.4589 287.1777 L244.392 287.4265 L244.2159 287.622 L243.9923 287.7224 L243.2533 287.7793 L242.088 287.7052 L241.8887 287.7336 L241.8407 287.8767 L241.8644 288.0446 L244.56 288.6185 L244.8168 288.7526 L244.767 289.1609 L245.0366 289.483 L245.3897 289.5827 L245.6375 289.561 L246.1103 288.5353 L246.4577 288.3495 L247.1279 288.2888 L247.4896 288.2034 L247.8793 288.3188 L248.0787 288.5293 L247.9595 289.1272 L247.8879 289.3422 L246.4501 291.0062 L246.6087 291.9741 L248.3739 291.4175 L249.1936 291.1111 L249.6949 290.8631 L251.5019 289.8726 L253.7822 292.1884 L255.2816 293.1526 L256.8499 294.4135 L257.8495 295.4414 L258.4884 295.9292 L258.8862 296.587 L258.2539 297.1901 L256.7189 297.5744 L254.6992 298.3093 L253.7869 298.9844 L252.7541 300.0872 L252.1109 303.1281 L246.0315 302.6966 L244.3047 302.2388 L243.9482 301.7788 L242.2665 301.2559 L240.2378 300.5299 L239.6725 300.5224 L238.6724 300.3501 L237.5341 300.5104 L237.387 300.4288 L237.7302 299.4923 L238.0425 299.0585 L242.1165 296.0056 L245.7296 292.8927 L245.8108 292.7451 L244.7622 292.7511 L244.6796 292.8372 L240.3773 296.521 L237.0519 298.4614 L236.1391 298.6592 L235.3977 298.2179 L234.5846 298.2307 L234.3663 298.125 L233.2261 296.784 L233.0125 296.7121 L232.8792 296.7308 L232.5986 296.9069 L232.4415 296.8604 L232.1216 296.518 L228.7738 293.3669 L227.8521 293.1054 L227.7619 292.9474 M230.6378 310.5007 L231.7979 309.5799 L230.9108 307.9423 L231.5079 305.912 L233.5527 305.6903 L234.5761 307.7632 L235.4034 309.7081 L235.2923 311.2775 L235.4119 312.5991 L236.4438 312.5564 L237.0922 310.8678 L238.5252 312.1219 L238.1412 313.6396 L237.3908 314.0494 L236.8278 313.8105 L235.4034 313.7678 L234.9192 315.4136 L233.7084 316.1815 L233.1113 314.7656 L230.6378 310.5007 M234.3924 305.9727 L234.4688 305.7914 L234.8874 305.6416 L238.1911 307.0845 L239.8552 307.7737 L240.1585 308.2884 L239.841 308.9252 L239.494 309.4024 L239.6929 310.0916 L239.9539 310.4984 L240.3294 310.5134 L241.2479 309.8024 L241.5474 309.7605 L242.5185 310.4497 L243.5803 311.3405 L244.3142 312.0724 L244.2942 312.701 L243.4503 313.6232 L244.551 314.4263 L244.7015 315.1057 L244.298 317.2258 L244.3597 317.4221 L244.0265 317.7083 L243.1565 318.0049 L242.7511 318.3548 L243.1465 318.8492 L243.4944 318.814 L244.0664 318.6372 L244.8277 318.4544 L245.2563 318.2237 L245.7225 318.9024 L246.2726 320.6344 L246.3053 321.1079 L246.191 321.2607 L245.7391 321.427 L244.4884 321.7072 L243.6273 322.102 L242.2869 322.4196 L240.4381 322.4916 L239.1484 322.4361 L237.8697 321.9619 L236.4908 321.1469 L235.5073 319.9939 L234.8509 318.8013 L234.6354 318.0461 L234.5367 316.6258 L234.6178 316.4774 L234.9691 315.5537 L235.3654 314.2727 L235.4817 313.8966 L236.7747 313.8764 L237.0808 314.2682 L237.5745 314.1873 L237.6908 314.1678 L238.23 313.806 L238.5167 313.1939 L238.8822 312.5639 L238.6771 311.9743 L238.2295 311.2079 L237.3471 310.7554 L237.0234 310.5898 L236.5193 310.8655 L236.329 312.4972 L235.5558 312.4507 L235.7143 309.9658 L235.6213 308.9064 L234.4413 306.0896 L234.3924 305.9727 M234.6121 303.7244 L234.7835 303.433 L236.2151 303.8001 L236.6328 304.0204 L237.4539 303.6862 L238.1436 303.7177 L238.6743 303.2952 L239.1423 303.2015 L238.9856 302.6658 L238.6695 300.4633 L239.6725 300.5906 L242.8997 301.9511 L245.76 302.7363 L243.9952 302.8809 L243.2751 303.5476 L243.6387 304.9246 L244.6298 305.3142 L245.7277 305.4513 L247.1498 305.2902 L248.1603 304.8549 L247.6059 303.4233 L248.2486 303.4135 L248.3658 303.1386 L249.178 303.221 L249.4182 303.3843 L250.1833 303.5679 L250.4425 303.3341 L251.2342 303.4195 L251.9723 303.648 L251.8868 304.2916 L251.8332 305.5974 L251.8807 305.9322 L251.885 306.2049 L251.7706 306.5968 L251.4991 306.8402 L251.0045 307.1834 L250.8996 307.4029 L250.8754 307.7138 L251.4763 307.7775 L251.5584 308.4472 L249.9825 307.9161 L248.8623 308.0067 L247.6857 307.8404 L246.5265 307.4606 L244.4698 306.8747 L242.9153 306.578 L241.0651 306.3982 L240.72 306.1135 L240.0603 305.8131 L239.2291 305.6925 L238.0311 305.3726 L236.9351 305.1539 L235.8557 304.7628 L235.0659 304.3103 L234.6938 303.9267 L234.6121 303.7244 M238.9491 361.1359 L239.2733 360.7906 L239.8524 360.5187 L240.0 360.2662 L240.5345 356.1711 L240.6313 355.076 L241.0613 353.267 L241.9561 351.243 L243.2338 350.9733 L244.5633 350.8325 L245.7813 350.8093 L247.0933 351.0722 L247.1616 349.825 L244.5472 350.2362 L244.2183 350.0175 L244.0023 349.4497 L244.2135 349.0729 L245.6237 348.5396 L248.2149 347.5073 L252.455 346.4766 L255.631 344.6114 L256.4735 343.8053 L256.8579 343.9821 L257.1147 344.3604 L257.2775 344.8885 L256.5613 348.6624 L255.7781 353.0647 L255.1667 353.4917 L254.5373 355.5831 L254.2706 356.4693 L253.9564 357.5127 L253.8804 358.3149 L252.9358 358.643 L251.0168 358.888 L249.1058 359.043 L247.8841 358.7951 L246.8987 358.4445 L246.0196 360.1471 L244.8733 360.8895 L243.8556 361.3756 L240.7367 361.8857 L239.4622 361.998 L239.0065 361.6535 L238.9491 361.1359 M242.8323 231.2236 L243.3852 231.1524 L244.5833 233.1052 L245.6128 233.8178 L245.9712 233.9017 L246.3504 233.8478 L247.464 234.4795 L249.2762 235.1793 L249.9028 235.6926 L251.1901 236.0261 L252.136 236.0006 L252.3653 236.4719 L251.1174 236.6098 L249.3555 236.681 L246.5237 236.4097 L246.2327 236.382 L246.2156 236.352 L246.0082 235.9916 L243.8091 235.6979 L243.7935 235.3464 L244.1029 234.3641 L242.8323 231.2236 M245.6185 309.4391 L245.7187 309.1866 L246.0011 308.9769 L247.689 308.8735 L251.8921 309.0937 L252.4863 309.2683 L252.7085 309.9306 L252.521 311.972 L252.1821 312.9422 L251.6348 313.6351 L250.6119 314.3266 L249.8506 314.7072 L249.0897 314.8495 L248.3098 314.8578 L247.9391 314.6368 L247.1816 312.2987 L245.6185 309.4391 M246.6409 322.1762 L246.9998 321.69 L249.0161 320.9259 L249.7889 320.3498 L250.1999 320.4749 L251.4269 321.3828 L252.0582 321.6113 L253.035 321.9642 L254.1249 322.0953 L256.8874 323.2137 L258.0498 324.0962 L258.7561 324.9689 L261.0686 325.9803 L263.9095 328.3101 L264.1981 329.2809 L265.1308 332.4175 L264.3115 334.5465 L264.8659 338.528 L264.9252 339.0913 L264.9338 339.7767 L264.9029 340.4749 L264.592 342.0697 L264.639 344.5649 L265.604 349.004 L265.6301 351.5958 L265.4293 352.5801 L264.9243 353.8131 L264.7961 354.0378 L264.5431 354.482 L263.9569 354.9591 L261.5305 357.0168 L259.4667 357.0513 L257.7911 354.6902 L256.6709 353.5486 L256.463 352.5531 L257.1204 348.971 L257.9084 345.7582 L258.5254 343.6368 L258.4865 342.0645 L258.3579 340.54 L258.0959 339.2433 L257.8471 338.3939 L257.4204 337.4343 L256.8461 335.8154 L256.6671 334.8821 L256.0083 334.0093 L254.8444 330.8556 L253.57 328.7438 L250.4425 324.6985 L247.8736 323.1718 L246.6409 322.1762 M248.0901 346.1635 L248.9164 344.8084 L249.5387 343.9312 L249.8022 343.1049 L250.0433 342.0712 L249.9365 340.7872 L249.9583 339.546 L250.1287 336.7608 L249.7969 334.9375 L249.2933 333.9142 L248.2723 331.0601 L248.5248 330.051 L248.9691 329.4502 L249.2867 329.2966 L250.0523 328.0389 L250.0822 327.4358 L250.4705 327.2043 L251.4146 329.1378 L252.2604 329.8952 L252.6757 329.9042 L253.4162 331.4234 L254.554 334.6775 L256.7739 339.8269 L256.9628 340.6884 L256.9714 341.7116 L256.5713 342.7244 L255.7999 343.5169 L252.7365 345.3852 L251.2048 346.0803 L248.9886 346.7365 L248.4143 346.6346 L248.1247 346.4579 L248.0901 346.1635 M251.584 307.7775 L252.2229 307.5917 L253.2937 307.2013 L254.1301 306.3008 L253.6986 304.3964 L254.0413 303.3139 L254.6484 302.5205 L254.9887 301.9009 L254.7049 301.1428 L255.3262 300.8805 L256.1085 301.9054 L256.8451 301.6919 L257.6933 302.2246 L258.1438 302.2276 L258.7053 302.2313 L259.414 302.7363 L259.9836 302.9753 L260.0443 303.1363 L260.1027 303.2914 L260.0377 303.5634 L259.9185 303.6832 L259.8564 303.9649 L259.994 304.2189 L260.34 304.6864 L260.8266 304.7193 L261.5884 305.1216 L263.01 306.0626 L263.8368 305.8161 L264.452 306.2169 L265.4592 306.4027 L265.904 306.19 L266.1209 306.0416 L266.3435 305.8895 L266.6558 305.8453 L266.9815 306.2274 L267.9118 307.6389 L268.3437 308.5341 L268.3618 309.6249 L268.0665 309.9395 L267.9118 310.0684 L267.6716 310.2692 L266.0502 310.0886 L264.8332 310.1246 L264.1985 310.3561 L260.0377 309.3747 L257.7389 309.571 L255.0637 308.5041 L252.7279 308.4787 L252.2936 308.5266 L251.7055 308.4472 L251.584 307.7775 M257.241 318.647 L257.2586 318.148 L258.5344 314.9746 L259.1776 314.1963 L259.7339 313.9071 L260.4549 313.6823 L261.4821 313.5093 L262.5871 313.3595 L263.5782 313.0283 L264.1729 313.1729 L266.5823 314.1288 L269.2441 314.9477 L272.4006 315.6616 L273.6314 315.8182 L274.4777 315.562 L275.634 315.0908 L276.2667 314.7619 L276.6564 314.6383 L277.0081 314.7252 L277.2554 315.0316 L277.3504 315.2234 L277.3119 315.4339 L277.1358 315.6294 L277.0784 315.9448 L277.1444 316.4138 L277.3722 316.825 L277.7946 317.4146 L277.8986 317.9121 L277.9532 320.2262 L278.1953 320.7386 L278.4563 321.1454 L278.8199 321.4997 L279.0952 321.5289 L279.5893 321.4727 L279.9785 320.9618 L280.8586 319.5512 L280.7802 318.4672 L280.1195 317.7682 L279.9581 317.3472 L279.8642 316.4377 L279.9458 315.3335 L280.0944 314.4585 L279.3401 312.9602 L278.771 311.5727 L277.9703 308.2007 L277.4116 306.4499 L277.2284 305.6805 L276.5302 305.2011 L276.0099 304.9756 L275.3891 304.1792 L274.923 303.7806 L274.2532 301.5106 L273.6794 299.0278 L273.5821 297.9055 L273.9186 297.3069 L274.1811 297.1473 L274.6899 296.6671 L274.9605 296.6147 L275.2443 296.9421 L275.4712 296.9645 L276.1732 297.6133 L276.5097 298.1235 L277.1524 298.7394 L277.9802 299.126 L278.4459 299.1072 L278.9955 298.6757 L279.5205 298.4037 L279.8542 298.3565 L280.3013 298.3138 L280.5548 298.4277 L280.8752 298.7289 L281.0095 299.1522 L281.6038 299.517 L281.7908 300.0752 L281.6565 300.9989 L281.6194 301.9099 L281.524 302.1969 L281.0574 304.4032 L280.8163 304.2826 L279.3719 303.5604 L278.7558 304.532 L279.9078 306.4499 L281.2839 308.9252 L281.5126 310.7883 L281.7016 311.6499 L282.1596 312.4163 L282.1905 312.468 L282.9447 314.206 L282.8759 316.3014 L282.8246 317.8581 L282.1273 321.4802 L284.1954 321.9537 L285.6882 322.2953 L285.9118 322.6309 L285.9004 324.4281 L285.7423 325.4229 L284.9606 327.241 L284.6853 328.4157 L283.0164 328.2089 L282.5075 328.2127 L282.1373 327.7527 L281.8288 327.489 L281.4054 327.3781 L280.7541 327.5729 L280.4969 327.9168 L280.3839 331.2114 L280.3307 331.7995 L280.0455 332.1815 L279.7028 332.401 L279.3458 332.5194 L278.4388 331.6234 L277.7837 330.5896 L277.1586 328.5603 L276.4841 327.8703 L276.0802 327.6546 L275.6905 327.5392 L275.315 327.5242 L274.0971 328.2771 L273.4264 328.5767 L273.2218 328.5715 L268.3993 325.4304 L266.4736 323.4969 L265.9315 323.2662 L265.4374 323.1313 L264.9955 322.8863 L264.6343 322.7328 L263.1476 321.3386 L262.2448 320.7153 L261.2988 320.2681 L259.5545 319.9347 L257.9857 319.4058 L257.4446 318.9361 L257.241 318.647 M262.9331 259.4573 L265.1545 257.9865 L266.0412 259.031 L266.924 258.8923 L267.1941 258.5477 L267.2501 258.1723 L266.2225 257.2364 L266.4992 257.0341 L267.1713 257.3608 L268.029 256.8648 L268.1244 256.4842 L268.3883 256.1882 L268.7258 256.0788 L269.0714 256.1725 L269.9818 257.9625 L270.4844 258.2345 L271.4556 258.1206 L272.3693 258.2495 L272.9906 258.4203 L275.6492 262.5061 L274.8518 262.9481 L272.253 259.8799 L271.1879 259.8319 L270.5874 260.0942 L270.306 260.794 L270.3843 261.9254 L270.8371 262.7795 L270.9463 263.4104 L267.5406 265.2873 L262.9331 259.4573 M269.8712 273.2144 L270.1564 272.9274 L270.6705 272.6802 L271.0108 271.841 L271.5273 271.0895 L272.0945 270.9921 L272.3513 270.3905 L273.105 270.2841 L273.1952 270.8026 L274.642 270.6302 L274.7132 270.9682 L274.5537 271.7811 L274.4663 272.1804 L274.1963 273.0578 L273.8982 274.2266 L273.1705 274.5263 L272.8207 274.7511 L271.6644 274.7638 L270.718 274.6657 L269.8987 274.1981 L269.8712 273.2144 M271.7446 278.9438 L272.6156 278.8194 L273.2237 279.2847 L273.8165 278.7243 L273.5161 278.1818 L274.4934 276.2308 L274.9073 276.8654 L275.1285 277.5675 L275.5756 279.2982 L275.8291 281.0963 L274.3989 281.91 L273.7382 282.1265 L272.5402 280.2579 L271.7446 278.9438 M276.224 275.3707 L277.1743 274.7249 L277.536 274.6941 L277.8184 274.5795 L277.9014 274.3023 L278.668 273.7478 L279.1963 274.2476 L279.4512 274.8035 L279.9956 275.4411 L280.3996 275.8053 L281.029 276.0832 L282.3656 277.0527 L279.4374 278.6666 L278.0794 277.1067 L277.9342 276.6032 L277.4947 276.3732 L277.2175 276.3784 L276.224 275.3707 M283.8337 354.4348 L285.0 354.0318 L285.7029 353.7891 L285.7874 353.3793 L285.8572 353.0415 L287.2617 353.4587 L287.7947 355.1329 L287.7459 355.1883 L287.7454 355.5689 L288.1384 356.0565 L289.0768 356.5756 L290.2041 357.2857 L291.1871 358.1247 L292.6325 359.476 L293.0554 359.8707 L292.5902 360.4071 L292.2266 360.5127 L291.5906 360.6026 L291.0376 360.8797 L290.833 360.9823 L290.4542 361.3621 L290.2644 361.5524 L290.1623 361.5883 L289.4921 361.8243 L288.7422 361.8767 L287.7216 361.4258 L287.1952 361.0108 L287.2195 359.3554 L286.4111 357.5651 L285.402 356.2041 L284.8381 355.8363 L284.2301 355.3239 L283.8337 354.4348 M288.8143 208.6043 L289.4371 208.7078 L293.718 209.978 L297.034 210.7805 L301.4753 211.5546 L303.0403 211.9451 L304.1899 212.28 L305.2175 212.8233 L306.342 214.0006 L306.408 214.998 L306.7279 215.7286 L306.8081 216.0568 L306.4156 216.5484 L306.6501 217.3255 L307.3682 218.1033 L308.7993 219.0865 L309.9337 220.3911 L311.7987 224.1813 L312.335 225.5594 L312.3255 225.5909 L312.1798 226.0787 L311.372 226.1124 L311.1631 226.1214 L310.931 226.3537 L310.8218 226.4631 L310.1345 227.1517 L309.3366 227.462 L309.4529 228.0442 L309.7975 228.6624 L310.0121 228.7538 L310.079 228.7823 L310.5769 228.9936 L311.0948 228.9614 L312.1063 228.58 L312.4675 227.9745 L312.5895 227.7699 L312.72 227.8891 L313.1785 228.3087 L314.0338 230.0622 L314.6974 231.8044 L315.1602 233.2386 L315.642 234.7305 L315.4578 236.385 L315.6282 238.0275 L315.5428 238.4126 L315.3795 239.1515 L314.7534 243.3011 L314.7302 243.454 L314.1976 244.3936 L314.1501 244.3989 L313.9171 244.4266 L313.5336 244.3037 L313.4362 243.493 L313.6546 239.7494 L313.8487 237.9301 L313.1035 235.2288 L312.7205 234.7724 L312.8771 234.2944 L312.5501 232.5994 L313.2293 232.2652 L313.0864 231.3465 L312.1599 230.7905 L311.3487 230.0412 L310.9676 230.1768 L311.9083 234.2547 L312.1926 234.684 L312.9018 236.6855 L312.7266 241.4436 L312.7057 243.5964 L312.4993 245.3512 L311.9041 245.9567 L310.2836 246.4137 L308.2283 246.5426 L304.0589 246.3838 L302.4071 246.6176 L300.9836 246.625 L300.3775 246.4182 L300.0528 245.845 L299.5843 245.1699 L299.0403 243.1865 L298.6739 240.5879 L298.6711 238.6869 L298.5904 237.0998 L299.608 234.6428 L300.8483 231.1195 L303.168 229.6208 L303.0569 229.0723 L300.7401 228.7134 L300.1221 227.2154 L299.3493 226.3522 L298.6298 225.8689 L295.3337 220.6751 L295.2303 219.3158 L295.5554 218.5897 L295.6589 217.5406 L296.1017 216.2389 L297.4213 216.6443 L297.8138 216.6901 L299.3683 217.2401 L300.2033 218.2645 L300.602 217.8546 L300.7776 218.3327 L301.9861 219.638 L303.6236 221.4882 L304.6911 222.4189 L304.9712 222.236 L305.4107 222.8063 L305.6158 223.4919 L306.1113 223.2042 L305.2655 222.1604 L305.1312 221.3496 L303.4195 220.499 L303.3517 220.0367 L302.7038 218.7605 L301.8902 217.8014 L300.8626 217.0078 L299.2739 215.9399 L297.801 215.9774 L295.5858 215.6402 L294.4737 215.0332 L293.7693 214.4337 L293.1304 213.3202 L291.4325 212.2478 L291.1349 212.3033 L290.4884 211.8484 L290.3826 211.0983 L290.1808 210.4763 L289.5956 209.8326 L288.8774 209.3222 L288.8143 208.6043 M325.4883 308.158 L326.4471 307.3557 L327.0442 306.9242 L327.085 306.8223 L327.2901 306.3113 L327.2388 304.7403 L327.6247 304.1972 L328.6946 303.1266 L329.2172 302.6037 L330.402 302.5857 L332.0998 302.6516 L335.2876 302.8254 L336.5379 303.1453 L337.276 305.0138 L338.5243 304.8864 L340.5236 304.7501 L339.9853 305.7674 L339.6782 306.0341 L339.7817 306.6724 L340.1438 308.0906 L340.3052 309.4211 L340.4666 312.1661 L340.4248 312.7369 L339.8714 315.2279 L339.7912 315.2833 L339.8695 315.299 L339.6573 316.0077 L339.6834 317.0108 L339.954 318.1151 L340.3783 318.865 L341.002 319.6808 L341.3632 320.4187 L343.4009 323.0414 L345.4724 326.3264 L346.2589 327.7789 L346.762 328.8502 L347.043 330.0757 L347.3435 331.0533 L347.9012 332.4639 L348.6113 333.2752 L352.7702 337.277 L354.0238 338.7534 L354.7329 340.0561 L355.1687 341.4 L355.0448 342.3072 L354.5549 343.7439 L353.7509 345.8773 L352.3198 345.52 L350.3661 344.0982 L348.7499 342.2053 L348.1694 341.8382 L347.2011 341.3221 L346.9438 340.8419 L346.9386 339.9378 L347.2575 339.4096 L347.3786 339.2096 L347.4327 338.7444 L347.5912 337.1526 L347.5357 336.2761 L347.2077 335.4866 L346.9633 334.4169 L346.6429 333.5284 L345.5877 330.6024 L345.5246 330.4271 L343.7693 330.3349 L343.3112 329.5836 L342.9552 329.5109 L341.5949 327.4118 L339.4247 324.4745 L338.9596 323.7853 L338.6705 323.3568 L338.8884 321.7244 L338.6952 320.6247 L338.6828 320.5535 L338.2091 319.7902 L337.4986 319.9992 L337.3201 320.0516 L336.6356 318.9728 L336.7367 318.8223 L337.0367 318.7084 L337.078 318.6927 L337.3063 318.2926 L336.8758 318.0274 L336.8578 318.0274 L336.2061 318.0402 L335.9811 317.3105 L336.6133 317.0962 L337.2147 316.8925 L336.516 316.7262 L336.4391 316.7082 L336.3556 316.1171 L336.1686 315.0256 L337.0804 315.0466 L337.1094 314.675 L335.6607 313.7303 L334.1537 313.3864 L333.5385 313.065 L332.3851 312.1466 L332.1909 312.0777 L330.6986 312.2889 L327.441 312.2005 L326.6773 311.9443 L326.2435 311.9825 L325.7982 309.7328 L326.1946 309.4661 L325.4883 308.158 M331.2326 364.1239 L334.1176 360.2805 L333.1891 359.0146 L334.4014 357.3996 L337.0059 358.4146 L337.3837 358.5681 L338.1014 359.0745 L338.9339 359.3037 L339.5932 359.1696 L340.0304 359.046 L341.6903 358.261 L343.6027 362.4033 L340.8696 366.2721 L340.469 366.0639 L339.7831 365.9156 L338.9686 365.8609 L338.2575 365.7336 L336.7263 364.0025 L336.4249 364.1074 L336.1486 364.1845 L336.6921 364.9178 L338.3511 366.6938 L339.5538 367.8444 L341.555 368.705 L342.7943 371.8539 L342.9804 372.6337 L342.8247 373.4307 L342.0206 374.8725 L341.387 374.2868 L340.544 373.4082 L339.7095 372.1595 L338.8718 370.5589 L336.9138 368.6398 L334.1717 367.0549 L332.8118 365.989 L331.2326 364.1239 M336.8511 303.1416 L336.9209 303.1251 L337.4198 302.9588 L337.865 302.725 L337.9974 302.1422 L338.1621 300.1703 L338.4797 299.9688 L339.3559 299.4796 L340.0048 299.341 L341.8801 298.7851 L343.0862 298.3895 L343.1669 299.1679 L343.1817 299.308 L343.2495 299.5979 L343.2832 300.1643 L343.1817 301.5518 L343.0948 301.9129 L342.0819 303.3851 L340.655 304.5118 L340.6494 304.5223 L339.4371 304.7081 L337.4824 304.8415 L336.8511 303.1416 M340.3698 219.1045 L340.5312 218.4436 L340.685 218.2682 L341.0832 218.1438 L342.0292 218.0419 L342.2243 217.9797 L342.5917 217.7886 L342.7117 217.4387 L342.4545 216.7335 L342.2784 216.146 L342.2969 215.7346 L342.4578 215.3719 L343.0075 214.9965 L345.3195 213.9249 L346.079 213.7848 L346.415 213.8597 L346.6927 214.1475 L347.0762 214.4127 L347.3406 214.409 L347.4493 214.074 L347.4109 213.6581 L347.2561 213.1868 L347.3648 212.9335 L347.6691 212.7454 L350.7643 211.7884 L350.8526 211.4969 L350.6419 211.2549 L348.6877 211.7352 L347.7659 211.8386 L347.267 211.8139 L347.0345 211.6086 L346.8816 211.1477 L346.8161 210.5377 L347.071 209.7464 L348.7916 206.931 L348.7371 206.1089 L348.2363 204.5262 L347.6534 203.2702 L347.1251 201.8539 L347.0776 201.1397 L347.3957 200.8055 L348.0725 200.3693 L348.2239 200.0583 L348.3336 199.9137 L348.0493 199.4843 L347.1166 198.3954 L346.4174 197.5786 L345.8976 196.6583 L344.9085 194.9077 L344.3218 193.4396 L343.9587 192.4496 L343.6829 191.5023 L343.6592 190.8046 L343.7085 190.047 L343.9758 189.5029 L344.8548 188.366 L345.4021 188.0872 L345.778 188.0595 L345.9209 188.118 L346.219 188.6748 L346.3182 189.1394 L346.6262 190.1212 L347.0886 190.624 L347.5215 191.5308 L347.6591 192.4511 L347.6582 192.8685 L347.7854 193.7723 L348.0464 194.1792 L348.4124 194.6057 L348.926 194.8747 L350.5906 195.1168 L353.3251 195.72 L353.748 196.07 L354.3086 196.674 L355.2902 198.5835 L356.2784 203.19 L357.2301 206.8815 L357.8272 208.6478 L357.9464 209.5958 L357.9862 210.7438 L357.9079 212.361 L358.0821 213.8395 L358.7727 216.8174 L359.0556 218.6331 L360.4198 223.5429 L360.7056 224.894 L362.1604 228.4541 L362.7637 230.1401 L363.2587 231.8193 L363.5658 233.8493 L364.4948 236.8361 L364.4217 236.8361 L364.4164 237.3703 L364.0343 237.7975 L363.5768 237.9301 L362.766 237.9743 L362.074 237.8694 L361.8072 237.7975 L361.6041 237.2819 L361.4963 235.5705 L361.0815 234.5124 L360.5622 233.7309 L360.0325 233.2311 L359.5398 232.9883 L357.8643 231.8336 L357.617 231.1742 L356.3895 230.5994 L355.079 229.8666 L354.451 229.435 L353.8135 229.0985 L353.2306 229.0258 L352.8903 229.067 L351.5845 229.7692 L350.4116 229.9213 L347.2742 229.7527 L346.0296 230.0719 L345.5867 230.0644 L344.8786 230.6249 L344.5724 231.2439 L343.4603 232.0749 L342.7734 232.3199 L342.0809 232.3379 L341.5071 232.2607 L341.2256 231.8898 L341.2674 230.8475 L342.1213 226.55 L342.3491 224.4204 L342.2779 223.9018 L341.3495 223.3803 L340.8829 222.9562 L340.4846 222.3934 L340.3864 221.7407 L340.3698 219.1045 M340.8364 315.9021 L341.1857 315.4451 L341.3243 314.8877 L341.5873 314.5379 L341.7112 313.2006 L341.893 312.7429 L342.0282 312.3106 L341.5987 309.5575 L341.0068 307.4238 L341.0509 306.5174 L341.2702 305.6318 L341.8161 304.9014 L343.1446 304.3462 L343.5547 304.4654 L343.8362 304.8265 L344.0845 305.0205 L344.1618 305.0812 L344.3726 305.4296 L344.4746 305.8446 L344.5302 306.0693 L344.6161 306.6784 L344.6455 307.08 L344.6279 307.4336 L344.7181 307.6913 L344.9047 307.773 L345.1553 307.8314 L345.0888 308.5461 L345.1994 308.7694 L345.479 309.1349 L345.9147 309.4833 L346.1559 309.7875 L346.322 310.2617 L346.4278 310.7337 L346.772 311.6993 L346.7174 311.9458 L346.63 312.0065 L346.5185 312.0836 L346.2978 312.0649 L345.9105 311.9203 L345.6608 311.7668 L345.2084 311.7218 L344.0322 311.5398 L343.5153 311.5338 L343.2709 311.7675 L342.9552 312.2088 L343.1385 312.7481 L343.2272 313.2201 L343.362 313.4471 L343.4237 313.5235 L343.437 313.5265 L344.4162 313.7228 L344.8373 313.9161 L345.5042 314.2217 L345.6765 314.6263 L345.9095 314.9806 L346.8261 314.9394 L347.4066 315.1522 L348.87 315.099 L349.0954 315.4481 L349.385 315.3867 L349.7523 315.1035 L349.9379 314.6892 L350.0134 314.1146 L349.8971 313.5797 L349.834 312.9362 L350.133 312.5743 L351.1265 312.4964 L351.9339 313.1062 L350.9471 314.0981 L350.4596 314.2959 L350.7558 314.8593 L352.0312 313.9446 L352.5775 314.3566 L352.7707 315.1529 L352.8837 317.306 L353.7276 317.9323 L358.3204 321.2367 L358.4106 321.442 L358.1263 321.6383 L355.9936 321.6683 L354.6636 321.8563 L353.8491 322.1889 L353.4822 322.1867 L352.9705 321.9732 L352.7916 322.3387 L352.8433 322.7051 L353.2264 323.1133 L353.6241 323.2414 L354.0594 323.6355 L354.656 323.4422 L355.2669 323.7838 L355.6993 324.2056 L356.7213 325.0064 L357.1399 325.5727 L357.3905 325.7623 L357.6165 326.3556 L358.2672 327.3182 L358.403 327.8973 L354.2459 328.6277 L353.9744 328.0951 L353.7176 327.907 L353.2197 327.4059 L353.036 327.065 L352.7546 326.7032 L352.783 325.9923 L351.6125 324.709 L350.5469 323.595 L349.7272 324.037 L349.0375 324.1007 L348.5391 324.0288 L348.2282 324.0385 L347.9268 324.4003 L347.6914 324.2707 L347.5319 324.2932 L347.1674 322.332 L346.7335 321.6585 L346.1554 321.5978 L345.2051 321.3034 L343.8718 320.0703 L342.5285 318.5264 L341.9689 317.9255 L341.5811 317.6266 L341.4634 317.4191 L341.3955 317.1771 L340.8739 316.8423 L340.8364 315.9021 M346.7003 188.4957 L346.9201 187.6451 L347.4564 186.3006 L347.3909 185.7385 L347.1232 185.0895 L346.8636 184.4997 L346.7876 184.0553 L346.8422 183.7203 L347.0269 183.443 L347.6558 183.0406 L349.1524 182.6321 L352.0089 181.4728 L353.5548 180.9669 L353.9445 181.0823 L353.9773 181.3169 L353.758 181.9284 L353.2435 182.6164 L352.2775 183.1425 L352.0141 184.0201 L351.9415 185.1922 L351.425 187.3153 L350.5431 188.7722 L348.8434 190.2088 L348.2766 190.5281 L347.8817 190.618 L347.53 190.4884 L347.1223 190.002 L346.8228 189.3672 L346.7283 188.9363 L346.7003 188.4957 M347.9714 191.4971 L348.0863 191.1051 L348.6098 190.9628 L348.962 190.8099 L351.2855 188.9783 L352.6962 187.6623 L353.8724 186.6176 L354.8839 186.0398 L355.8864 185.9791 L356.3548 185.9034 L356.9391 186.4363 L358.0019 188.438 L358.3152 190.609 L358.8871 191.2498 L359.3034 191.8441 L360.7972 193.3384 L361.0625 193.7858 L361.2638 194.4445 L361.5804 194.9579 L362.0693 195.1063 L362.5183 194.9504 L362.7048 194.0773 L363.0067 193.8105 L363.3546 193.6322 L363.9888 193.5078 L364.753 193.7813 L366.8676 195.1145 L367.3066 195.774 L367.7324 196.0543 L368.6333 196.1697 L372.1149 196.2926 L372.8753 196.8681 L374.1118 198.3295 L374.5262 199.9144 L374.6719 201.4312 L374.7042 202.1439 L374.8603 202.5321 L375.316 203.3556 L376.7571 204.6903 L378.9315 207.5732 L380.2567 208.7864 L381.2891 209.4654 L381.8103 210.1331 L381.7695 210.6629 L381.5188 211.2384 L381.095 211.6056 L380.6901 212.1069 L380.3422 212.4292 L379.9344 213.0039 L379.361 213.1733 L377.7012 213.1905 L373.7093 212.9792 L366.2178 211.7667 L363.5084 211.5104 L359.0851 213.7346 L358.8164 211.4864 L359.2047 209.6153 L358.6323 206.0287 L357.1822 197.4579 L357.0583 196.046 L357.1637 194.3846 L355.9329 193.498 L355.1013 193.1795 L352.6487 193.2073 L350.4297 193.2777 L348.5263 192.8445 L347.9842 192.7936 L347.9714 191.4971 M351.0107 161.6803 L351.0183 161.481 L351.0254 161.3026 L351.1925 160.8004 L353.028 158.7334 L353.2743 158.456 L353.5335 158.2597 L355.4098 156.8364 L355.9699 156.6213 L356.1123 156.6243 L356.596 156.6348 L357.5628 156.8994 L357.7266 157.023 L358.9071 157.9142 L360.0183 159.3127 L362.3996 161.0268 L363.1121 161.7455 L364.7041 164.5381 L366.3492 167.6933 L366.6625 168.9554 L366.7033 169.9702 L366.5533 171.0734 L365.727 172.8714 L363.1458 174.8282 L361.7156 175.711 L359.677 176.6051 L357.645 177.4505 L354.0613 179.2297 L353.5672 179.0955 L353.2577 178.9209 L353.2069 178.3161 L353.6635 177.2714 L354.2417 176.462 L354.4918 175.828 L354.7073 175.43 L354.8431 174.9481 L353.7903 174.6056 L353.3882 174.4744 L353.5126 173.9101 L353.9412 173.3368 L354.3931 172.5858 L354.7946 171.9181 L355.5104 172.023 L355.5289 169.5985 L355.7216 168.6092 L356.0795 167.7728 L356.0373 167.4715 L355.1957 166.7468 L353.336 164.5043 L351.4417 162.2971 L351.0107 161.6803 M351.1815 334.3734 L351.4687 331.9792 L352.2225 332.2684 L352.316 332.2796 L353.515 332.4235 L353.8819 332.8789 L353.9474 332.9598 L353.73 333.2497 L353.0076 332.9141 L352.7455 333.5876 L354.1069 334.0917 L353.131 334.682 L352.5281 334.4004 L351.1815 334.3734 M353.5539 336.9369 L355.0657 335.548 L355.387 336.1398 L354.9726 336.7339 L355.2494 337.253 L355.3433 337.6815 L355.6908 338.0268 L355.8142 338.4718 L356.0587 338.8111 L356.4279 338.8815 L356.7075 339.1819 L357.456 339.1505 L358.0741 338.9137 L358.6422 338.8059 L359.9556 338.9812 L362.0768 338.7287 L362.6536 338.6336 L362.7831 339.3153 L362.2183 341.3805 L359.8455 342.3903 L360.5437 339.9318 L360.0239 339.4673 L358.9987 339.0755 L358.6735 339.2231 L358.7932 339.8801 L358.4305 342.9439 L358.5848 343.269 L358.3655 344.3612 L356.8784 344.1567 L356.2628 344.3589 L355.9917 344.0713 L356.0928 343.8256 L356.3762 343.6218 L356.7825 343.0885 L356.3847 342.5259 L356.0406 342.2008 L356.1161 341.7753 L355.6153 340.8666 L355.3647 339.8074 L353.5539 336.9369 M356.1199 178.8063 L365.4213 173.8666 L365.923 176.6838 L364.8038 177.8417 L361.0601 179.4628 L359.2075 182.1645 L358.7443 186.6798 L357.3165 185.9851 L356.5447 182.3571 L356.1199 178.8063 M360.3828 221.5706 L360.6363 222.012 L361.6905 222.7059 L362.1832 223.1248 L362.5577 223.4567 L363.3475 224.4047 L365.0401 225.8711 L365.5903 226.2982 L366.0037 226.7906 L366.317 227.0251 L366.6203 227.734 L367.7495 231.1959 L367.7965 232.3169 L367.7742 233.0153 L367.4538 233.6649 L366.71 235.4274 L366.5253 235.8485 L365.9187 236.9882 L365.5793 237.0564 L365.3572 237.1013 L364.9053 237.0287 L364.8109 236.8376 L364.012 233.3337 L363.6783 231.7249 L363.1334 229.8936 L362.3578 227.6995 L361.4569 225.3788 L360.9068 223.7647 L360.3828 221.5706 M365.6937 161.1047 L365.7901 160.3905 L365.8865 160.0592 L365.9595 159.8081 L366.2035 159.3247 L367.1106 158.4411 L367.7011 158.19 L370.0753 159.0152 L374.0662 160.2271 L375.0141 160.4624 L376.2321 160.7645 L376.9972 160.6565 L377.124 160.5771 L377.5569 160.3043 L377.6395 160.2526 L378.7093 158.8353 L379.7332 157.4795 L379.8713 157.3543 L380.3469 156.9233 L381.4424 156.1694 L381.9707 156.1296 L382.1606 156.1154 L383.0814 156.1963 L385.0536 156.9998 L386.3717 157.1872 L386.7781 157.2351 L388.0003 157.7875 L388.8941 158.3444 L389.4836 158.6711 L389.6008 158.6674 L389.8244 158.6592 L390.1258 158.6487 L390.985 158.1143 L392.0211 158.0019 L392.5119 158.3061 L393.1651 158.7656 L393.9777 159.4708 L394.9246 160.1671 L395.5042 161.0065 L395.8023 161.5364 L395.7928 162.1907 L395.5061 163.0953 L394.8415 164.2578 L394.0024 165.2403 L391.1658 167.3628 L389.354 170.5555 L388.792 171.1476 L387.9058 171.8783 L386.5782 172.379 L385.6066 172.5641 L384.5377 173.0213 L383.08 174.0443 L381.8055 174.6326 L379.3596 175.2366 L377.9143 175.2366 L377.3551 175.5064 L374.6781 177.2661 L373.9115 177.7016 L373.059 177.7675 L371.2444 177.4595 L369.7777 177.1635 L367.8587 177.0735 L367.4561 175.804 L367.619 173.4882 L367.1956 171.7404 L367.4258 170.2393 L367.4742 169.3781 L367.2763 167.3568 L367.2763 166.372 L366.8348 164.4406 L365.8323 161.8947 L365.6937 161.1047 M369.1284 181.1805 L369.3178 180.9841 L369.6192 180.4243 L369.538 179.0753 L369.7896 178.6923 L370.4617 178.4548 L371.9322 178.5867 L374.5789 178.5867 L375.8229 178.2172 L376.4324 177.9609 L377.4491 177.1395 L378.4383 176.5984 L380.4722 176.2971 L382.9713 175.7807 L384.9734 174.8177 L385.6735 174.4392 L388.0819 173.0377 L389.5842 172.2336 L390.2972 171.5613 L391.3576 169.9342 L392.0719 168.4998 L393.1779 167.6769 L394.2155 166.7543 L394.8539 166.3241 L395.1059 165.6623 L395.5877 164.7404 L395.7928 164.5058 L396.0401 164.5733 L396.2005 165.4734 L396.237 166.459 L396.1454 167.497 L395.3077 171.2031 L395.0162 172.0297 L393.6079 173.3668 L393.0027 173.8966 L392.1023 174.9803 L389.8097 178.2427 L389.4945 179.1413 L389.3512 182.7828 L388.998 183.6529 L388.6022 184.2209 L388.1693 184.5215 L387.5551 184.7448 L384.9198 184.9561 L384.0858 184.7673 L383.6762 184.3626 L383.5822 183.7908 L383.2983 182.9806 L383.0662 182.5849 L382.845 182.507 L377.9015 183.4917 L375.6141 184.0193 L374.5689 184.113 L374.0904 183.7518 L374.0045 183.4303 L374.015 183.0683 L373.6955 182.3923 L372.8402 182.1458 L372.4904 182.1682 L369.9476 182.6164 L369.5613 182.426 L369.3994 182.0948 L369.1815 181.7995 L369.1284 181.1805 M390.787 153.6645 L390.8297 153.2081 L390.8359 153.1406 L391.0414 152.9143 L391.3618 152.7397 L391.3941 152.7217 L391.9703 152.7149 L392.3823 152.9308 L392.9225 153.2133 L395.0765 154.7326 L395.4681 154.8128 L395.4956 154.809 L395.7102 154.7783 L395.8606 154.7573 L396.2404 154.5609 L397.0145 153.6488 L398.2567 152.0576 L398.6991 151.4018 L398.7285 151.3583 L399.412 151.1207 L399.852 151.0023 L400.3001 150.8097 L400.4245 150.7213 L400.9457 150.2356 L401.4493 149.6195 L401.5418 149.4411 L401.7431 149.0544 L402.0383 148.873 L402.5177 148.5777 L403.4419 148.2494 L404.2141 148.1317 L404.6209 148.3348 L404.8597 149.2605 L404.7738 150.0482 L403.8444 150.8149 L402.9307 151.3703 L402.0075 152.0928 L401.3396 152.5703 L400.9148 153.4157 L400.714 154.1622 L400.6262 154.914 L400.1511 156.2675 L401.182 157.4922 L401.5039 158.0701 L402.3943 158.5632 L402.6857 159.189 L402.4309 159.7422 L402.4484 160.1072 L403.0688 161.0942 L403.1509 161.4367 L401.8727 162.6397 L401.2774 163.3944 L400.912 163.6102 L400.4003 163.7849 L398.8201 163.6949 L398.2111 163.5638 L397.8461 163.3292 L397.4735 163.2864 L397.1883 162.9462 L396.94 162.4845 L397.0739 162.1795 L397.5746 161.9794 L397.6838 161.6923 L397.8077 161.4637 L398.2529 160.7682 L398.1499 160.4692 L397.9287 160.2016 L397.6662 160.4084 L397.3368 160.7682 L397.0183 160.8679 L396.6994 160.6745 L396.5992 160.2533 L396.0965 159.8613 L395.1368 158.7319 L393.6426 157.3708 L392.1331 156.0944 L392.0449 155.9925 L391.8175 155.7309 L391.4055 154.9244 L390.9546 154.1307 L390.787 153.6645 M395.4059 122.2682 L395.4914 121.9572 L395.7168 121.7278 L396.1578 121.3388 L396.5152 120.7916 L396.9248 120.1822 L397.6534 119.3787 L398.1789 118.9162 L398.5135 118.8352 L398.7684 118.9079 L399.0238 119.0353 L399.2625 119.2302 L399.5611 119.2722 L399.8739 119.2415 L400.096 119.231 L400.264 119.4109 L400.2864 119.6665 L400.1981 120.2437 L400.2171 120.5202 L400.3528 120.7451 L400.5294 120.8643 L401.7307 121.2046 L402.8647 121.6911 L404.6698 122.0756 L405.396 122.4151 L406.1346 122.9368 L406.474 123.4196 L406.68 124.1122 L406.9202 125.4224 L407.3777 126.0707 L408.432 126.98 L409.3276 127.372 L410.117 127.9304 L410.7426 128.0563 L411.3454 128.0458 L411.7304 128.4198 L411.831 128.8958 L411.8799 129.2428 L411.8077 129.7908 L411.6074 131.023 L409.8336 133.2267 L408.4301 134.2011 L407.6212 134.3832 L406.9866 134.0714 L405.6794 133.0723 L404.3993 132.5116 L402.719 131.9052 L402.1261 131.8393 L401.7421 131.3761 L401.4137 130.3409 L401.1403 129.6431 L400.6419 129.2174 L400.386 128.9813 L399.2226 128.2872 L398.6398 128.0308 L397.7835 127.4394 L397.2903 126.7543 L395.7671 125.0843 L395.713 124.8962 L395.6826 124.5342 L395.732 124.4367 L396.3372 123.9195 L396.3605 123.7816 L396.3377 123.5687 L396.2541 123.469 L395.8834 123.3116 L395.5944 123.0868 L395.4477 122.8356 L395.4263 122.6363 L395.4059 122.2682 M399.3185 148.8895 L399.4609 148.5732 L400.172 148.4967 L400.3628 148.7838 L400.4658 149.7297 L400.2351 150.1007 L399.665 150.1569 L399.4633 149.9193 L399.3185 148.8895 M400.8797 136.7308 L400.9661 136.2353 L401.4013 135.8546 L401.5224 135.5577 L401.2931 135.1822 L401.0211 134.9349 L400.9352 134.6133 L401.3244 134.2453 L402.0208 133.9837 L402.9027 133.9815 L403.2539 134.5991 L403.514 135.3381 L403.5795 137.2547 L403.1974 137.2877 L402.8528 137.541 L402.6041 137.9435 L402.0658 138.1211 L401.6083 137.9075 L401.6325 137.2097 L401.7806 136.8147 L402.278 135.9617 L402.2339 135.6484 L402.062 135.7271 L401.5209 136.416 L401.3638 136.5539 L401.1801 136.6955 L401.0401 136.763 L400.8797 136.7308 M416.7318 152.3259 L416.8799 151.4475 L417.0745 150.9978 L417.5321 150.7295 L418.1302 150.5901 L418.7354 150.5526 L419.0221 150.417 L419.4374 150.426 L419.7763 150.378 L420.306 150.2828 L420.8315 150.2086 L421.4077 150.2498 L421.9426 150.2895 L422.2901 150.2543 L422.5597 150.1411 L422.5027 149.932 L422.1467 149.8121 L421.6982 149.7117 L420.8927 149.6285 L420.456 149.4658 L420.3103 149.1053 L420.4935 148.7186 L421.1167 148.3723 L422.0656 147.9796 L422.8507 147.8686 L423.294 147.7382 L424.0553 147.6033 L424.7545 147.7015 L425.3037 147.7465 L425.7831 147.5359 L426.8098 147.3567 L427.4662 147.4886 L428.1118 147.4931 L428.7763 147.8274 L428.678 147.9983 L428.4103 148.1722 L427.5018 148.3686 L426.8591 148.4795 L426.4267 148.3498 L425.8301 148.4 L425.8111 148.7973 L426.2207 148.9097 L426.7291 148.9539 L427.2104 149.0491 L427.7771 149.0236 L428.6946 149.0364 L429.1261 149.1121 L429.4588 149.1128 L429.5827 149.2717 L429.4256 149.5048 L429.1313 149.8736 L428.8086 150.1839 L428.4198 150.3143 L427.4373 150.1329 L426.3721 150.0385 L425.3146 149.9972 L425.1072 150.1629 L424.8993 150.4237 L425.11 150.6658 L425.4679 150.7992 L426.2468 150.9341 L427.0034 150.9566 L427.4705 151.1417 L427.4349 151.3718 L427.0642 151.533 L426.7158 151.7593 L426.5345 152.1588 L426.5487 152.6947 L426.9655 155.9078 L426.4628 157.1564 L425.6393 159.0212 L425.1281 160.407 L424.9202 160.8102 L424.6306 161.2119 L424.2552 161.2449 L423.9955 161.2336 L423.4753 161.1032 L423.1687 160.9968 L422.6902 160.7307 L422.5507 160.5126 L422.404 160.2406 L422.2341 160.0464 L421.9854 159.9663 L421.6123 159.9168 L421.2041 160.0082 L420.8884 160.1281 L419.8741 159.958 L419.5608 159.7099 L419.5167 159.3966 L419.5309 159.0609 L419.4042 158.7386 L419.2765 158.4575 L419.0477 157.7006 L418.9357 157.0972 L418.7477 156.6745 L418.4866 156.3642 L418.0884 156.0397 L417.713 155.0586 L417.5478 154.3676 L417.2597 153.6188 L416.7802 152.8154 L416.7318 152.3259 M424.4877 162.7086 L424.6482 162.3526 L425.0782 162.1765 L425.7503 162.0813 L426.1514 161.9426 L426.3835 161.7605 L426.1856 161.026 L426.4766 159.8149 L426.8867 158.7229 L427.1074 158.4605 L427.208 158.1128 L427.2503 157.7868 L427.2208 157.4307 L427.3518 156.9151 L427.6874 156.4054 L427.7691 154.9582 L427.771 154.0528 L427.9812 153.8122 L428.5091 153.6556 L428.8902 153.663 L429.409 153.5903 L431.4306 153.005 L431.8815 152.8326 L432.7169 152.6939 L433.3985 152.6182 L433.9448 152.5958 L434.2871 152.6632 L435.2032 153.005 L435.3266 153.1556 L435.2558 153.717 L434.9416 154.04 L434.0972 154.4523 L433.717 154.9342 L432.8792 155.3457 L432.3528 155.7054 L431.7467 155.9812 L431.1662 156.9211 L431.3133 157.6279 L431.3907 158.2769 L432.5266 158.2934 L432.7791 158.3534 L432.9215 158.4965 L432.9519 158.9552 L432.8783 159.4963 L432.5617 160.67 L431.7334 162.3114 L431.2388 163.1366 L429.6753 163.3569 L428.8143 163.7511 L428.2489 163.8306 L428.0814 164.2833 L427.8597 164.634 L427.5175 164.6145 L427.039 164.4436 L426.0152 164.1596 L425.0678 163.6477 L424.6188 163.255 L424.4877 162.7086 M441.3846 235.3224 L441.5118 234.1707 L441.5517 233.8096 L442.4844 232.1401 L442.7778 231.7654 L443.036 231.3817 L444.0527 230.3132 L444.4353 229.8681 L444.4785 229.8179 L444.8036 229.2821 L446.1716 227.5242 L446.4174 227.2799 L446.4511 227.2469 L446.6718 227.1697 L447.0074 227.0528 L447.0435 227.0086 L447.2661 226.7381 L447.1864 226.1686 L447.2979 225.695 L447.5376 224.7876 L447.6183 224.6872 L447.7066 224.6407 L447.8409 224.6287 L448.0355 224.7576 L449.0062 226.2683 L448.9739 226.3095 L449.3352 227.0094 L449.704 227.9438 L449.9541 228.7591 L450.238 229.2836 L450.097 229.97 L450.294 230.2622 L450.7876 230.5395 L451.6496 231.2071 L451.6534 231.1974 L451.8993 231.4979 L452.4499 232.0869 L454.1771 233.8568 L454.4344 234.0928 L454.705 234.1835 L454.7913 234.1235 L454.7975 234.0688 L454.7463 233.8987 L453.7528 232.3791 L453.0641 231.8711 L452.7223 231.7084 L452.3326 231.4439 L452.0421 231.1652 L451.9045 230.81 L451.8874 230.5934 L451.969 230.3821 L451.2718 229.641 L451.2471 229.2229 L451.1332 228.7965 L450.9542 228.4886 L450.6846 228.3087 L450.5493 227.9266 L450.0006 226.8295 L449.9987 226.807 L449.6755 226.0502 L449.3342 225.6973 L449.0983 225.2267 L448.8444 224.5283 L448.8159 224.0352 L449.1823 223.6501 L449.6005 223.5369 L450.2289 223.4208 L450.9015 223.3803 L451.7255 223.4477 L453.1429 223.8217 L453.7457 223.8644 L454.3547 223.7655 L455.4673 223.2769 L456.7071 222.7853 L457.1025 222.7501 L457.4798 222.813 L457.7841 223.0438 L457.8211 223.5504 L457.6963 224.3537 L457.2862 225.3638 L457.0512 227.7505 L457.2805 228.7523 L457.908 230.8542 L458.235 231.6852 L458.5326 232.0172 L458.8364 233.3622 L459.0775 233.9677 L459.6789 233.9512 L460.0586 233.6117 L460.3619 233.0655 L460.5029 233.0048 L460.9344 232.9373 L461.3236 232.7785 L461.8282 232.741 L462.9403 232.9254 L465.1209 233.1831 L466.5012 233.2536 L467.8677 233.4207 L469.117 233.4761 L469.7497 233.5361 L469.8532 233.6919 L469.8812 233.9399 L469.6667 234.2966 L469.258 234.6301 L468.2826 235.1778 L466.7689 235.7668 L465.0701 236.591 L462.9602 237.3651 L460.8081 237.4992 L458.6052 237.8034 L457.401 237.5854 L456.3497 237.3456 L455.0752 237.1583 L454.3276 236.9133 L453.5463 236.8818 L452.9701 237.0002 L452.2102 237.3381 L451.4422 238.0522 L450.8498 239.1492 L450.2299 239.9248 L449.0869 240.9745 L448.5097 242.1832 L448.4409 243.2037 L448.4043 244.488 L448.2207 245.065 L447.7825 245.7116 L447.427 246.129 L446.9229 246.5471 L446.5546 246.7284 L446.1829 246.7876 L445.6912 246.7622 L445.2697 246.6108 L444.8458 246.3208 L443.8994 244.4521 L443.8125 244.2805 L443.5657 243.5109 L443.4802 242.952 L443.4969 242.5151 L443.579 242.0153 L443.6744 241.4346 L443.6858 239.9952 L443.4973 239.1125 L442.6923 236.9792 L442.5043 236.636 L441.5038 235.6394 L441.3846 235.3224 M441.8754 149.8548 L444.1263 148.0065 L447.2509 147.1671 L447.587 143.7066 L450.9134 143.505 L451.182 146.7639 L453.131 147.0322 L455.9528 148.1077 L455.9528 149.3174 L450.7791 154.3908 L449.5022 154.6254 L445.7728 152.8783 L444.1263 153.3153 L441.8754 149.8548 M449.6465 242.9108 L449.9142 241.8415 L451.2504 239.8521 L452.2306 238.0994 L452.8248 237.5944 L454.1017 237.5652 L454.4287 244.8709 L450.003 244.8417 L449.6465 242.9108 M452.1817 181.0808 L452.4337 180.8477 L452.4608 180.8305 L452.8068 180.6049 L453.0707 180.3793 L453.2862 180.195 L454.0523 179.848 L454.6798 179.6869 L455.2181 179.6831 L455.3481 179.7101 L455.9842 179.8435 L456.6055 179.776 L457.3939 179.9776 L458.1235 179.9559 L458.44 179.8435 L458.6285 179.5437 L459.0338 179.0423 L459.5697 178.4705 L459.6243 178.412 L460.2528 178.0501 L461.2728 177.5907 L461.5994 177.2609 L461.8652 176.8832 L462.1357 176.9266 L462.4196 177.111 L463.3414 177.0563 L463.7372 176.8779 L464.1298 176.7745 L464.5859 176.7378 L465.3981 176.7588 L465.6482 176.7648 L466.5961 176.6516 L467.5127 176.3181 L468.1677 176.2454 L468.462 176.3608 L468.6827 176.5339 L468.7734 176.7932 L469.0657 177.425 L470.1527 182.4358 L470.1247 182.6142 L470.017 182.7071 L469.7877 182.7633 L466.5282 182.3069 L464.697 181.8677 L463.9024 181.5829 L463.2944 181.4106 L461.8956 181.2067 L460.8755 181.2412 L459.7909 181.3948 L458.4548 181.6376 L457.4347 181.8632 L456.7393 182.1315 L456.2353 182.4545 L455.6742 182.9274 L455.5546 182.9859 L455.4169 183.0526 L455.1801 183.1065 L454.6537 183.0788 L454.2265 182.8397 L453.8634 182.5235 L453.4837 182.2852 L453.0978 181.9989 L452.654 181.837 L452.1983 181.3439 L452.1817 181.0808 M454.021 185.9926 L454.0865 185.6336 L454.3547 185.0783 L454.5882 184.5934 L454.8141 184.2764 L455.3638 183.5052 L456.071 182.815 L456.0715 182.8143 L458.4173 181.9382 L461.6127 181.5724 L464.5745 182.1135 L467.309 183.2467 L467.3684 183.2467 L467.4956 183.3096 L467.9688 183.6281 L468.3314 184.1827 L468.3784 184.469 L468.1378 184.8632 L467.674 185.1532 L466.8629 185.8532 L465.8628 186.6543 L464.7924 187.2471 L464.2105 187.8871 L462.8425 189.1147 L462.2591 189.5029 L461.9335 189.5014 L459.0974 188.0033 L457.9735 187.5364 L454.9959 186.3845 L454.3898 186.2257 L454.1154 186.108 L454.021 185.9926 M454.7406 239.5119 L454.8175 239.2354 L454.9826 239.1103 L455.3937 238.9911 L455.7288 239.0121 L456.0126 239.0533 L456.437 239.1769 L456.6862 239.2099 L457.0137 239.1777 L457.2581 239.129 L457.972 238.8989 L458.5568 238.8098 L459.743 238.9147 L460.0786 239.0743 L460.2243 239.5246 L460.3449 239.7974 L460.5812 239.954 L460.819 240.0027 L461.1366 239.975 L461.3919 239.9143 L461.6174 239.8161 L461.8092 239.6565 L461.9183 239.377 L462.1101 238.8038 L462.2307 238.6629 L462.5273 238.5348 L462.7699 238.3782 L463.3874 238.1346 L463.6428 238.1189 L463.8388 238.2927 L464.032 238.6224 L464.1445 238.9874 L464.2916 239.0683 L464.4877 239.4152 L464.7255 240.0506 L465.0008 240.8966 L464.9656 241.1169 L464.8831 241.5905 L464.6557 241.8527 L463.9489 242.0895 L463.2953 242.1682 L462.514 242.3533 L461.5695 242.4866 L461.3943 242.593 L461.279 242.7384 L461.1627 242.9722 L460.941 243.1333 L460.1336 243.5192 L459.2028 243.8481 L458.6361 244.1111 L457.766 244.3906 L457.2824 244.5203 L457.0199 244.6319 L456.1712 244.7248 L455.7516 244.539 L455.5233 244.3607 L455.2788 243.8781 L455.2242 243.6338 L455.2613 243.2682 L455.2783 242.9055 L455.4108 242.689 L455.696 242.4514 L455.8252 242.2087 L455.8361 241.8535 L455.7986 241.5867 L455.7032 241.3417 L455.6097 241.1581 L455.2774 240.9191 L455.1227 240.7842 L455.032 240.6201 L455.0149 240.208 L454.7406 239.5119 M462.5482 131.6691 L462.6232 130.658 L462.7442 130.0216 L462.5601 129.6259 L462.5672 129.1964 L462.786 128.6754 L463.2355 128.2032 L463.3869 127.7333 L464.4506 126.5625 L463.6689 125.8286 L463.6675 125.6248 L463.8369 125.5258 L464.0453 125.5101 L464.473 125.8991 L464.6766 126.1427 L464.913 126.3271 L465.2699 126.2087 L465.8053 126.4935 L466.4993 126.7491 L467.6907 126.5812 L468.9907 126.1539 L469.8817 125.8976 L470.4546 125.9193 L471.0313 126.417 L471.2947 126.6674 L472.394 126.9245 L473.014 127.1838 L473.7611 127.671 L474.3833 128.1882 L474.7455 128.6889 L474.9078 129.0742 L475.0616 129.2496 L475.2762 129.3283 L475.4361 129.3058 L475.6488 129.2279 L479.6017 132.8279 L478.9908 133.2139 L477.536 133.0513 L476.8634 132.9014 L476.627 132.3767 L476.5867 132.0896 L476.4771 131.8872 L476.2644 131.7748 L476.1215 131.9172 L476.0679 132.1151 L475.9445 132.3984 L475.8994 133.5272 L475.654 133.7116 L475.3293 133.9043 L474.3572 133.5138 L473.8399 133.2124 L473.2223 133.0678 L472.714 133.1195 L472.5497 133.0131 L472.5436 132.8234 L472.7035 132.5154 L472.441 132.0964 L471.7537 131.84 L471.1827 131.8318 L469.9439 132.0949 L468.8422 132.1758 L468.4017 132.9179 L467.7353 133.3796 L466.5719 133.5033 L466.2282 133.2319 L465.6069 133.2986 L465.3273 133.6314 L464.4008 133.6532 L464.0296 133.0385 L462.8895 132.9404 L462.6664 132.8024 L462.5634 132.4562 L462.6004 132.1376 L462.5482 131.6691 M462.9925 154.1457 L463.6034 152.2105 L466.6592 149.8174 L471.3949 153.2291 L478.6776 156.4886 L487.9457 160.5621 L490.3902 160.664 L492.0705 165.1459 L490.0338 168.4046 L484.7883 173.6501 L483.7697 163.2108 L477.3533 162.2941 L470.7332 164.7891 L468.8996 163.5158 L470.9876 159.6455 L469.4597 159.1366 L465.0293 158.9327 L462.9925 154.1457 M465.0815 168.2307 L465.1712 168.0478 L465.4408 167.8402 L465.7811 167.7038 L466.299 167.6236 L467.4704 167.8942 L468.8412 168.4615 L469.4564 168.6542 L470.1252 168.8258 L470.5438 169.0521 L471.047 169.253 L471.3071 169.4613 L471.449 169.6524 L471.5249 169.8053 L471.5458 170.1014 L471.5359 170.4161 L471.4908 170.626 L471.3821 170.8358 L471.1205 170.8898 L470.803 170.9483 L470.2448 170.7407 L469.867 170.563 L469.38 170.285 L468.967 170.1456 L468.3704 170.0527 L467.8288 169.9185 L467.338 169.7087 L466.8657 169.4351 L466.4034 169.1398 L465.7778 168.84 L465.2167 168.4705 L465.1261 168.3536 L465.0815 168.2307 M469.8385 235.9736 L471.3636 235.2835 L471.7229 236.0823 L470.1978 236.7724 L469.8385 235.9736 M472.3015 232.2974 L474.577 228.3155 L481.5065 231.1592 L479.0241 235.9684 L472.3015 232.2974 M486.4306 176.2769 L486.5474 175.9449 L487.2537 175.029 L487.5485 174.4707 L487.8076 173.6583 L488.1143 172.3632 L488.3212 171.1776 L488.437 170.9363 L488.625 170.8283 L488.7313 170.8104 L488.8837 170.7849 L489.1381 170.9055 L489.6137 171.1993 L489.7086 171.2945 L489.7252 171.4144 L489.683 171.5501 L489.6165 171.6542 L489.5572 171.8604 L489.6156 172.0837 L489.6697 172.0822 L489.7798 172.0942 L490.1007 171.7697 L490.235 171.7105 L490.3527 171.7277 L491.4388 172.2403 L491.5318 172.4869 L491.5707 172.5896 L491.7577 172.6997 L491.8716 172.69 L491.9927 172.6803 L492.268 172.8047 L492.4669 173.0625 L492.6529 174.0975 L492.6786 174.9099 L493.0365 175.1864 L493.2173 175.3648 L493.2277 175.5334 L493.1684 175.6443 L493.0156 175.6653 L492.9306 175.7388 L492.9524 175.8444 L492.1982 177.0466 L491.8579 177.183 L491.4596 177.0556 L491.1217 177.0091 L490.4776 176.9214 L489.9782 176.7475 L489.3166 176.432 L489.1172 176.2222 L487.6534 176.6194 L486.9888 176.6718 L486.7434 176.6658 L486.5094 176.5422 L486.5037 176.5227 L486.4306 176.2769" stroke-dasharray="" fill="none" fill-opacity="1.0" stroke="#ff0000" stroke-opacity="1.0" stroke-width="1.0px" stroke-linecap="butt" stroke-linejoin="miter" stroke-dashoffset="0.0px"/>
</g>
</svg>