<?xml version="1.0" standalone="no"?>
<!DOCTYPE svg PUBLIC "-//W3C//DTD SVG 1.1//EN" "http://www.w3.org/Graphics/SVG/1.1/DTD/svg11.dtd">
<svg width="512px" height="512px" version="1.1" xmlns="http://www.w3.org/2000/svg" xmlns:inkscape="http://www.inkscape.org/namespaces/inkscape">
<g id="layer" inkscape:groupmode="layer" inkscape:label="layer">
<path d="M86.0123 494.1136 L97.1983 494.7397 L97.3695 492.2356 L115.9178 493.3088 L115.8036 494.5608 L143.7117 496.0811 L143.8258 495.008 L162.4311 495.9917 L162.317 498.4064 L172.4757 498.943 L172.5899 496.6177 L191.1952 497.6909 L191.0811 498.8535 L219.1032 500.4633 L219.2174 499.3007 L237.9368 500.3739 L237.8227 502.7885 L247.9814 503.3251 L248.0956 500.9105 L294.6089 504.756 L294.666 503.5934 L313.1001 504.5772 L312.986 507.0813 L323.373 507.6178 L323.4872 505.2926 L341.5218 506.2764 L341.4647 507.5284 L369.3156 509.0488 L369.3156 507.8861 L387.921 508.9593 L387.8068 511.374 L398.6504 512.0 L399.1641 501.5365 L396.7671 501.447 L398.0797 477.6582 L400.4767 477.837 L400.9904 469.7882 L398.5363 469.6987 L399.906 445.5521 L402.2459 445.731 L402.7596 437.3244 L400.3626 437.235 L401.6182 413.3566 L404.0722 413.4461 L404.5288 405.6655 L402.0747 405.3972 L403.4444 381.34 L405.7844 381.4294 L406.241 373.5594 L403.901 373.2911 L405.2707 349.055 L407.6107 349.1444 L408.0672 341.3638 L405.6132 341.185 L406.9829 316.9489 L409.437 317.0383 L409.8365 309.0788 L407.4395 308.9894 L408.8092 284.8427 L411.2633 284.9321 L413.432 245.0453 L410.9779 244.8664 L412.3476 220.6303 L414.8017 220.7197 L415.1441 212.9391 L412.8042 212.7602 L414.1739 188.524 L416.5138 188.6135 L416.9704 180.8328 L414.5163 180.7434 L415.9431 156.2389 L418.3401 156.4178 L418.7967 148.7266 L416.3426 148.6371 L417.7123 124.2221 L420.1664 124.4009 L420.5088 116.6203 L418.1689 116.5308 L419.5386 92.0263 L421.8786 92.2052 L422.3351 84.4245 L419.8811 84.3351 L421.2508 59.92 L423.7049 60.0988 L424.0473 52.3182 L421.7074 52.2288 L422.9629 28.6185 L425.417 28.7079 L425.9877 18.2443 L414.9158 17.6183 L414.8017 19.9435 L396.1964 18.9598 L396.3105 17.7077 L368.2313 16.0979 L368.1171 17.2605 L349.7972 16.1873 L349.9113 13.8621 L339.6384 13.2361 L339.5243 15.6507 L292.9539 11.7157 L292.9539 12.8783 L274.5768 11.8946 L274.6909 9.3904 L264.2468 8.7644 L264.0756 11.2685 L245.7557 10.1953 L245.7557 8.9433 L217.7906 7.3335 L217.6764 8.4961 L199.2994 7.4229 L199.4135 5.0082 L189.0265 4.4716 L188.9123 6.7969 L170.4782 5.7237 L170.5353 4.4716 L142.5131 2.8619 L142.399 4.1139 L124.022 3.0407 L124.1932 0.626 L112.9501 0.0 L112.2652 12.1629 L114.7193 12.2523 L113.5208 33.8056 L111.1808 33.7162 L110.6101 43.4643 L112.9501 43.5538 L111.8086 66.0908 L109.3546 65.912 L108.898 75.5707 L111.2379 75.6601 L110.0394 98.1077 L107.6424 97.9289 L107.0717 107.677 L109.5258 107.8559 L108.2702 130.3929 L105.8161 130.214 L105.3595 140.0516 L107.6995 140.2305 L106.501 162.3203 L104.161 162.1415 L103.5903 171.8002 L106.0444 171.8896 L104.7888 194.4266 L102.3348 194.3371 L101.8782 203.9958 L104.2181 204.1747 L103.0196 226.4434 L100.6226 226.3539 L98.3397 268.2083 L100.7367 268.3871 L99.4812 290.6558 L97.1412 290.5663 L96.5705 300.225 L99.0246 300.3145 L97.769 322.7619 L95.372 322.6725 L94.8584 332.4206 L97.1983 332.6889 L96.0569 354.9575 L93.6028 354.8681 L93.1462 364.6162 L95.4862 364.7056 L94.2306 387.2425 L91.8907 387.0636 L91.3199 396.9906 L93.7169 397.08 L92.5184 419.3486 L90.1214 419.1697 L89.5507 428.6495 L92.0048 428.8284 L90.7492 451.3652 L88.2951 451.2758 L87.7815 461.1133 L90.2356 461.2027 L89.0371 483.3818 L86.583 483.2924 L86.0123 494.1136" stroke-dasharray="" fill="none" fill-opacity="1.0" stroke="#ff0000" stroke-opacity="1.0" stroke-width="1.0px" stroke-linecap="butt" stroke-linejoin="miter" stroke-dashoffset="0.0px"/>
</g>
</svg>