<?xml version="1.0" standalone="no"?>
<!DOCTYPE svg PUBLIC "-//W3C//DTD SVG 1.1//EN" "http://www.w3.org/Graphics/SVG/1.1/DTD/svg11.dtd">
<svg width="512px" height="512px" version="1.1" xmlns="http://www.w3.org/2000/svg" xmlns:inkscape="http://www.inkscape.org/namespaces/inkscape">
<g id="layer" inkscape:groupmode="layer" inkscape:label="layer">
<path d="M0.0 222.5775 L6.6919 322.9015 L512.0 290.1553 L505.2722 189.0985 L0.0 222.5775 M6.3681 247.2076 L6.3681 244.3332 L6.7278 241.4587 L7.4834 238.6406 L8.5627 235.9916 L10.0018 233.4553 L11.7288 231.2009 L13.7795 229.1155 L16.0461 227.3683 L18.5645 225.9028 L21.2269 224.832 L23.9972 224.0429 L26.8394 223.7047 L29.7177 223.7047 L32.5959 224.0429 L35.3662 224.832 L38.0285 225.9028 L40.511 227.3683 L42.8136 229.1155 L44.8283 231.2009 L46.5912 233.5117 L48.0304 235.9916 L49.1097 238.6406 L49.8292 241.4587 L50.189 244.3332 L50.225 247.2076 L49.8652 250.0821 L49.1097 252.9002 L48.0304 255.5492 L46.5912 258.0855 L44.8643 260.3399 L42.8136 262.4253 L40.547 264.1725 L38.0285 265.638 L35.3662 266.7088 L32.5959 267.4979 L29.7536 267.8361 L26.8394 267.8361 L23.9972 267.4979 L21.2269 266.7088 L18.5645 265.5816 L16.0461 264.1725 L13.7795 262.369 L11.7647 260.3399 L10.0018 258.0291 L8.5627 255.5492 L7.4834 252.8438 L6.7638 250.0821 L6.3681 247.2076 M9.3902 295.1715 L9.75 292.3534 L10.4695 289.5354 L11.5848 286.8863 L12.988 284.3501 L14.7509 282.0392 L16.7657 280.0102 L19.0323 278.2066 L21.5507 276.7976 L24.1771 275.6704 L26.9833 274.8813 L29.8256 274.5431 L32.7038 274.4868 L35.582 274.8813 L38.3523 275.614 L41.0147 276.7412 L43.4972 278.2066 L45.7997 279.9539 L47.8505 281.9829 L49.5774 284.2937 L51.0165 286.7736 L52.1318 289.479 L52.8514 292.2407 L53.2112 295.1152 L53.2471 297.9896 L52.8874 300.8641 L52.1678 303.6822 L51.0885 306.3312 L49.6494 308.8674 L47.9224 311.1783 L45.8717 313.2073 L43.6051 314.9545 L41.1226 316.4199 L38.4603 317.5471 L35.654 318.2798 L32.8117 318.6744 L29.9335 318.6744 L27.0913 318.3362 L24.285 317.5471 L21.6227 316.4763 L19.1402 315.0109 L16.8376 313.2636 L14.8229 311.2346 L13.0599 308.9238 L11.6208 306.4439 L10.5415 303.7385 L9.786 300.9768 L9.4262 298.1023 L9.3902 295.1715 M56.701 240.9515 L57.0608 238.1334 L57.8163 235.3153 L58.8957 232.6663 L60.3348 230.13 L62.0977 227.8192 L64.1124 225.7901 L66.415 224.0429 L68.8975 222.5775 L71.5598 221.4503 L74.3301 220.7176 L77.2083 220.323 L80.0866 220.323 L82.9288 220.7176 L85.6991 221.4503 L88.3615 222.5775 L90.8799 224.0429 L93.1465 225.7901 L95.1972 227.8755 L96.9242 230.13 L98.3633 232.6663 L99.4426 235.3153 L100.1982 238.1334 L100.5579 241.0078 L100.5579 243.8823 L100.1982 246.7567 L99.4786 249.5185 L98.3633 252.2238 L96.9242 254.7038 L95.1972 257.0146 L93.1465 259.0436 L90.8799 260.8472 L88.3615 262.2562 L85.7351 263.3835 L82.9288 264.1162 L80.0866 264.5107 L77.2083 264.5107 L74.3301 264.1162 L71.5598 263.3835 L68.8975 262.2562 L66.415 260.7908 L64.1124 259.0436 L62.0977 257.0146 L60.3348 254.7038 L58.9316 252.2238 L57.8163 249.5185 L57.0968 246.7567 L56.737 243.8823 L56.701 240.9515 M59.7951 294.6643 L59.7951 291.7898 L60.1549 288.9154 L60.8744 286.1536 L61.9538 283.4483 L63.3929 280.9684 L65.1198 278.6575 L67.1705 276.6285 L69.4371 274.8249 L71.9196 273.3595 L74.582 272.2886 L77.3523 271.4996 L80.2305 271.1051 L83.1087 271.1051 L85.951 271.4996 L88.7212 272.2323 L91.3836 273.3595 L93.902 274.7686 L96.1686 276.5158 L98.2194 278.6012 L99.9823 280.8556 L101.4214 283.3919 L102.5007 286.0409 L103.2563 288.859 L103.616 291.7335 L103.616 294.6079 L103.2563 297.4824 L102.5367 300.2441 L101.4574 302.9494 L100.0183 305.4294 L98.2913 307.7402 L96.2766 309.8256 L93.974 311.5728 L91.4915 313.0382 L88.8292 314.1654 L86.0589 314.8981 L83.2166 315.2927 L80.3024 315.2927 L77.4602 314.8981 L74.6899 314.1654 L72.0275 313.0382 L69.5091 311.6292 L67.2425 309.8819 L65.1918 307.7966 L63.4289 305.5421 L62.0257 303.0058 L60.9104 300.3568 L60.1549 297.5387 L59.7951 294.6643 M107.0699 240.5006 L107.0699 237.6261 L107.4297 234.7517 L108.1493 231.9899 L109.2646 229.2846 L110.6677 226.8046 L112.4306 224.4938 L114.4454 222.4648 L116.7479 220.6612 L119.2304 219.2521 L121.8928 218.1249 L124.699 217.3922 L127.5413 216.9977 L130.4195 216.9977 L133.2618 217.3922 L136.068 218.1249 L138.7304 219.2521 L141.2128 220.7176 L143.4794 222.4648 L145.5302 224.4938 L147.2571 226.8046 L148.6962 229.2846 L149.8115 231.9899 L150.5311 234.7517 L150.8909 237.6261 L150.8909 240.5569 L150.5311 243.375 L149.8115 246.1931 L148.6962 248.8421 L147.2931 251.3784 L145.5302 253.6892 L143.5154 255.7183 L141.2128 257.4655 L138.7304 258.9309 L136.068 260.0581 L133.2618 260.7908 L130.4195 261.1854 L127.5413 261.1854 L124.699 260.7908 L121.8928 260.0581 L119.2304 258.9309 L116.7479 257.4655 L114.4813 255.7183 L112.4306 253.6329 L110.7037 251.3784 L109.2646 248.8421 L108.1493 246.1931 L107.4297 243.375 L107.0699 240.5006 M110.164 288.4081 L110.5238 285.5337 L111.2433 282.7156 L112.3587 280.0666 L113.7618 277.5303 L115.5247 275.2758 L117.5395 273.1904 L119.8061 271.4432 L122.2885 269.9778 L124.9509 268.8506 L127.7571 268.1179 L130.5994 267.7233 L133.4776 267.7233 L136.3558 268.1179 L139.1261 268.8506 L141.7885 269.9215 L144.271 271.3869 L146.5735 273.1341 L148.5883 275.1631 L150.3512 277.4739 L151.7903 280.0102 L152.8697 282.6592 L153.6252 285.4773 L153.985 288.2954 L154.0209 291.2262 L153.6612 294.0443 L152.9416 296.8624 L151.8263 299.5677 L150.4232 302.0477 L148.6602 304.3585 L146.6455 306.3875 L144.3789 308.1911 L141.8604 309.6001 L139.2341 310.7274 L136.4278 311.5164 L133.5856 311.8546 L130.7073 311.911 L127.8291 311.5164 L125.0588 310.7837 L122.3965 309.6565 L119.914 308.2475 L117.6114 306.4439 L115.5967 304.4149 L113.8337 302.104 L112.3946 299.6241 L111.2793 296.9751 L110.5598 294.157 L110.2 291.2826 L110.164 288.4081 M157.4388 234.3008 L157.8346 231.4263 L158.5541 228.6646 L159.6695 225.9592 L161.1086 223.4793 L162.8355 221.1684 L164.8862 219.1394 L167.1528 217.3922 L169.6353 215.9268 L172.2977 214.8559 L175.068 214.0668 L177.9462 213.7287 L180.8244 213.7287 L183.6666 214.0668 L186.4369 214.8559 L189.0993 215.9268 L191.5818 217.3922 L193.8843 219.1394 L195.8991 221.1684 L197.662 223.4793 L199.0651 225.9592 L200.1805 228.6646 L200.9 231.4263 L201.2958 234.3008 L201.2958 237.1752 L200.936 240.0497 L200.1805 242.8114 L199.1011 245.5168 L197.662 247.9967 L195.8991 250.3075 L193.8843 252.3366 L191.5818 254.0838 L189.0993 255.5492 L186.4369 256.6201 L183.6666 257.4091 L180.8244 257.7473 L177.9462 257.7473 L175.068 257.4091 L172.2977 256.6201 L169.6353 255.5492 L167.1528 254.0838 L164.8862 252.3366 L162.8355 250.3075 L161.1086 247.9967 L159.6695 245.5168 L158.5541 242.8114 L157.8346 240.0497 L157.4748 237.1752 L157.4388 234.3008 M160.5689 287.8445 L160.5689 284.97 L160.9287 282.0956 L161.6842 279.3339 L162.7635 276.6285 L164.2027 274.1486 L165.9296 271.8378 L167.9803 269.8087 L170.2469 268.0615 L172.7654 266.5961 L175.3918 265.5252 L178.198 264.7362 L181.0403 264.398 L183.9185 264.398 L186.7607 264.7362 L189.531 265.5252 L192.1934 266.5961 L194.7118 268.0615 L196.9784 269.8087 L198.9932 271.8378 L200.7561 274.1486 L202.1952 276.6285 L203.2745 279.3339 L204.0301 282.0956 L204.3899 284.97 L204.3899 287.8445 L204.0301 290.7189 L203.2745 293.4807 L202.1952 296.186 L200.7561 298.666 L198.9932 300.9768 L196.9784 303.0058 L194.7118 304.753 L192.1934 306.2184 L189.531 307.2893 L186.7607 308.0784 L183.9185 308.4165 L181.0403 308.4165 L178.198 308.0784 L175.3918 307.2893 L172.7654 306.2184 L170.2469 304.753 L167.9803 303.0058 L165.9656 300.9768 L164.2027 298.666 L162.7635 296.186 L161.6842 293.4807 L160.9287 290.7189 L160.5689 287.8445 M207.8077 233.9062 L207.8077 230.9754 L208.1675 228.1573 L208.9231 225.3392 L210.0024 222.6902 L211.4415 220.2103 L213.2044 217.8995 L215.2192 215.8704 L217.5217 214.0668 L220.0042 212.6578 L222.6666 211.5306 L225.4369 210.7979 L228.2791 210.4033 L231.1573 210.4033 L233.9996 210.7979 L236.8058 211.5306 L239.4322 212.6578 L241.9507 214.1232 L244.2173 215.8704 L246.268 217.8995 L247.9949 220.2103 L249.4341 222.6902 L250.5134 225.3392 L251.2689 228.1573 L251.6287 231.0318 L251.6287 233.9062 L251.2689 236.7243 L250.5134 239.5424 L249.4341 242.1914 L247.9949 244.7277 L246.268 246.9822 L244.2173 249.0676 L241.9507 250.8148 L239.4322 252.2238 L236.8058 253.3511 L233.9996 254.0838 L231.1573 254.4783 L228.2791 254.4783 L225.4369 254.0838 L222.6666 253.3511 L220.0042 252.2238 L217.5217 250.8148 L215.2192 249.0112 L213.2044 246.9822 L211.4415 244.7277 L210.0024 242.1914 L208.9231 239.5424 L208.1675 236.7243 L207.8077 233.9062 M210.9378 281.5883 L211.3336 278.7703 L212.0531 275.9522 L213.1684 273.3032 L214.6075 270.7669 L216.3345 268.5124 L218.3852 266.4834 L220.6518 264.6798 L223.1343 263.2708 L225.7966 262.1435 L228.5669 261.4108 L231.4452 261.0163 L234.3234 261.0163 L237.1656 261.4108 L239.9359 262.1435 L242.5983 263.2708 L245.0807 264.7362 L247.3833 266.4834 L249.3981 268.5124 L251.161 270.8232 L252.5641 273.3032 L253.6794 275.9522 L254.399 278.7703 L254.7947 281.6447 L254.7947 284.5192 L254.435 287.3372 L253.6794 290.1553 L252.5641 292.8043 L251.161 295.3406 L249.3981 297.5951 L247.3833 299.6241 L245.0807 301.4277 L242.5983 302.8367 L239.9359 303.964 L237.1656 304.6967 L234.3234 305.0912 L231.4452 305.0912 L228.5669 304.6967 L225.7966 303.964 L223.1343 302.8367 L220.6518 301.4277 L218.3852 299.6241 L216.3345 297.5951 L214.6075 295.2843 L213.1684 292.8043 L212.0531 290.1553 L211.3336 287.3372 L210.9738 284.5192 L210.9378 281.5883 M258.1407 230.5245 L258.1407 227.6501 L258.5364 224.832 L259.256 222.0139 L260.3713 219.3649 L261.8104 216.8849 L263.5733 214.5741 L265.5881 212.5451 L267.8547 210.7979 L270.3731 209.3324 L272.9995 208.2616 L275.7698 207.5289 L278.648 207.1343 L281.4903 207.1343 L284.3685 207.5289 L287.1388 208.2616 L289.7652 209.3324 L292.2836 210.7979 L294.5502 212.5451 L296.565 214.5741 L298.3279 216.8849 L299.767 219.3649 L300.8463 222.0139 L301.6019 224.832 L301.9616 227.6501 L301.9616 230.5245 L301.6019 233.399 L300.8463 236.1607 L299.767 238.8661 L298.3279 241.346 L296.565 243.6005 L294.5502 245.6859 L292.2476 247.4331 L289.7652 248.8421 L287.1388 249.9694 L284.3325 250.7021 L281.4903 251.0966 L278.612 251.0966 L275.7698 250.7021 L272.9995 249.9694 L270.3372 248.8421 L267.8547 247.4331 L265.5881 245.6859 L263.5373 243.6005 L261.8104 241.346 L260.3713 238.8661 L259.256 236.1607 L258.5364 233.399 L258.1407 230.5245 M261.3427 281.1374 L261.3427 278.263 L261.7025 275.3885 L262.458 272.6268 L263.5373 269.9778 L264.9765 267.4415 L266.7034 265.1871 L268.7541 263.158 L271.0207 261.3545 L273.5032 259.9454 L276.1656 258.8182 L278.9358 258.0855 L281.7781 257.6909 L284.6563 257.6909 L287.4986 258.0291 L290.2688 258.7618 L292.9312 259.889 L295.4137 261.2981 L297.6803 263.0453 L299.731 265.1307 L301.4939 267.3852 L302.933 269.8651 L304.0124 272.5141 L304.7679 275.3322 L305.1637 278.1503 L305.1637 281.0247 L304.8039 283.8992 L304.0483 286.7173 L302.969 289.3663 L301.5299 291.8462 L299.803 294.157 L297.7522 296.186 L295.4856 297.9333 L293.0032 299.3987 L290.3768 300.4695 L287.5705 301.2586 L284.7283 301.6531 L281.85 301.6531 L279.0078 301.2586 L276.2375 300.5259 L273.5752 299.455 L271.0927 297.9896 L268.8261 296.2424 L266.7753 294.2134 L265.0124 291.9589 L263.5733 289.4226 L262.494 286.7736 L261.7385 284.0119 L261.3427 281.1374 M308.5456 227.1428 L308.5456 224.2684 L308.9413 221.3939 L309.6609 218.6322 L310.7762 215.9832 L312.2153 213.5032 L313.9782 211.1924 L315.993 209.1634 L318.2596 207.4161 L320.742 206.0071 L323.4044 204.8799 L326.1747 204.1471 L329.0169 203.809 L331.8952 203.809 L334.7374 204.1471 L337.5077 204.8799 L340.1701 206.0071 L342.6525 207.4161 L344.9191 209.1634 L346.9339 211.1924 L348.6968 213.5032 L350.1359 215.9832 L351.2512 218.6322 L351.9708 221.3939 L352.3665 224.2684 L352.3665 227.1428 L352.0067 230.0173 L351.2512 232.779 L350.1719 235.4844 L348.7328 237.9643 L346.9699 240.2751 L344.9551 242.3042 L342.6525 244.0514 L340.1701 245.5168 L337.5077 246.5877 L334.7374 247.3767 L331.8952 247.7149 L329.0169 247.7149 L326.1747 247.3767 L323.3684 246.5877 L320.742 245.5168 L318.2236 244.0514 L315.957 242.3042 L313.9063 240.2751 L312.1793 237.9643 L310.7402 235.4844 L309.6609 232.779 L308.9053 230.0173 L308.5456 227.1428 M311.7476 277.7557 L311.7476 274.8813 L312.1074 272.0068 L312.8269 269.2451 L313.9422 266.5397 L315.3454 264.0598 L317.1083 261.749 L319.123 259.72 L321.3896 257.9727 L323.8721 256.5073 L326.5345 255.4365 L329.3048 254.6474 L332.147 254.3092 L335.0252 254.3092 L337.8675 254.6474 L340.6378 255.3801 L343.3001 256.5073 L345.7826 257.9164 L348.0852 259.6636 L350.0999 261.6926 L351.8628 264.0035 L353.3019 266.4834 L354.4173 269.1324 L355.1728 271.8941 L355.5326 274.7686 L355.5326 277.643 L355.1728 280.5175 L354.4532 283.2792 L353.3379 285.9282 L351.9348 288.4645 L350.1719 290.7189 L348.1571 292.8043 L345.8905 294.5515 L343.4081 296.017 L340.7457 297.0878 L337.9754 297.8769 L335.1332 298.2151 L332.2549 298.2151 L329.4127 297.8769 L326.6424 297.1442 L323.98 296.017 L321.4976 294.6079 L319.195 292.8607 L317.1802 290.8317 L315.4173 288.5208 L313.9782 286.0409 L312.8629 283.3919 L312.1074 280.6302 L311.7476 277.7557 M358.8785 223.8738 L358.9145 220.9994 L359.2743 218.1249 L360.0298 215.3632 L361.1091 212.7142 L362.5482 210.1779 L364.3112 207.9234 L366.3259 205.8944 L368.6285 204.1471 L371.111 202.6817 L373.7733 201.6109 L376.5436 200.8782 L379.3858 200.4836 L382.2281 200.4836 L385.0703 200.8782 L387.8406 201.6109 L390.503 202.6817 L392.9855 204.1471 L395.2521 205.8944 L397.3028 207.9234 L399.0297 210.2342 L400.4688 212.7142 L401.5841 215.3632 L402.3397 218.1249 L402.6995 220.9994 L402.6995 223.8738 L402.3397 226.6919 L401.5841 229.51 L400.4688 232.159 L399.0297 234.6389 L397.3028 236.8934 L395.2521 238.9224 L392.9855 240.6697 L390.503 242.1351 L387.8406 243.2059 L385.0703 243.9386 L382.2281 244.3332 L379.3499 244.3332 L376.5076 243.9386 L373.7373 243.2059 L371.111 242.1351 L368.6285 240.6697 L366.3259 238.9224 L364.3112 236.8934 L362.5482 234.6389 L361.1091 232.159 L360.0298 229.4536 L359.2743 226.6919 L358.8785 223.8738 M362.1165 274.374 L362.1165 271.4996 L362.4763 268.6251 L363.2318 265.8634 L364.3471 263.158 L365.7503 260.6781 L367.5132 258.4236 L369.5279 256.3946 L371.7945 254.6474 L374.277 253.182 L376.9394 252.0548 L379.7096 251.3221 L382.5519 250.9275 L385.4301 250.9275 L388.2724 251.3221 L391.0427 252.0548 L393.669 253.1256 L396.1875 254.591 L398.4541 256.2819 L400.4688 258.3109 L402.2317 260.6218 L403.6709 263.1017 L404.7862 265.7507 L405.5417 268.5124 L405.9375 271.3869 L405.9375 274.2613 L405.5417 277.0794 L404.8221 279.8975 L403.7068 282.5465 L402.3037 285.0264 L400.5408 287.3372 L398.526 289.3663 L396.2594 291.1135 L393.777 292.5225 L391.1146 293.6498 L388.3443 294.3825 L385.5021 294.777 L382.6238 294.777 L379.7816 294.4388 L377.0113 293.7061 L374.3849 292.5789 L371.8665 291.1698 L369.5999 289.4226 L367.5492 287.3936 L365.8222 285.1391 L364.3831 282.6029 L363.2678 279.9539 L362.5123 277.1921 L362.1165 274.374 M409.2474 220.5485 L409.2474 217.674 L409.6432 214.8559 L410.3627 212.0378 L411.478 209.3888 L412.9172 206.9089 L414.6801 204.6544 L416.6948 202.6254 L418.9614 200.8782 L421.4439 199.4127 L424.1062 198.3419 L426.8765 197.5528 L429.7188 197.2146 L432.597 197.2146 L435.4393 197.5528 L438.2095 198.3419 L440.8359 199.4127 L443.3544 200.8782 L445.621 202.6254 L447.6357 204.6544 L449.3986 206.9089 L450.8377 209.3888 L451.9171 212.0378 L452.6726 214.8559 L453.0684 217.674 L453.0684 220.5485 L452.6726 223.4229 L451.9171 226.1847 L450.8377 228.8337 L449.3986 231.3136 L447.6357 233.6244 L445.621 235.6535 L443.3184 237.4007 L440.8359 238.8097 L438.2095 239.937 L435.4393 240.6697 L432.597 241.0642 L429.7188 241.0642 L426.8765 240.6697 L424.1062 239.937 L421.4439 238.8097 L418.9614 237.4007 L416.6948 235.6535 L414.6441 233.6244 L412.9172 231.3136 L411.478 228.8337 L410.3627 226.1847 L409.6072 223.4229 L409.2474 220.5485 M412.5214 270.936 L412.5214 268.0615 L412.8812 265.2434 L413.6367 262.4253 L414.716 259.7763 L416.1552 257.2964 L417.8821 255.0419 L419.9328 252.9565 L422.1994 251.2093 L424.6819 249.8003 L427.3083 248.673 L430.0786 247.9403 L432.9208 247.5458 L435.799 247.5458 L438.6413 247.884 L441.4116 248.673 L444.0739 249.7439 L446.5564 251.153 L448.823 252.9002 L450.8737 254.9292 L452.6366 257.24 L454.0758 259.72 L455.1911 262.369 L455.9106 265.1307 L456.3064 267.9488 L456.3064 270.8796 L455.9466 273.6977 L455.1911 276.4594 L454.1117 279.1648 L452.6726 281.6447 L450.9457 283.8992 L448.8949 285.9282 L446.6283 287.6754 L444.1459 289.1408 L441.5195 290.2681 L438.7492 291.0008 L435.907 291.3953 L433.0287 291.3953 L430.1865 291.0008 L427.4162 290.2681 L424.7538 289.1972 L422.2714 287.7318 L419.9688 286.0409 L417.954 284.0119 L416.1911 281.7011 L414.752 279.2211 L413.6367 276.5721 L412.8812 273.8104 L412.5214 270.936 M459.5804 217.2231 L459.5804 214.3487 L459.9761 211.5306 L460.7316 208.7125 L461.847 206.0635 L463.2861 203.5835 L465.013 201.3291 L467.0637 199.3 L469.3303 197.5528 L471.8128 196.1438 L474.4752 195.0165 L477.2455 194.2838 L480.0517 193.8893 L482.9299 193.8893 L485.7722 194.2838 L488.5425 195.0165 L491.1689 196.1438 L493.6513 197.5528 L495.9539 199.3 L497.9687 201.3291 L499.7316 203.5835 L501.1707 206.0635 L502.25 208.7125 L503.0056 211.4742 L503.4013 214.3487 L503.4013 217.2231 L503.0056 220.0412 L502.25 222.8593 L501.1347 225.5083 L499.6956 227.9882 L497.9687 230.2427 L495.9179 232.2717 L493.6513 234.019 L491.1689 235.428 L488.5425 236.5552 L485.7722 237.2879 L482.9299 237.6825 L480.0517 237.6825 L477.2095 237.2879 L474.4392 236.5552 L471.8128 235.428 L469.3303 234.019 L467.0637 232.2717 L465.013 230.2427 L463.2501 227.9882 L461.811 225.5083 L460.7316 222.8593 L459.9761 220.0412 L459.5804 217.2231 M462.8903 267.5543 L462.8903 264.6798 L463.2861 261.8617 L464.0056 259.0436 L465.1209 256.3946 L466.56 253.9147 L468.287 251.6602 L470.3377 249.6312 L472.6043 247.884 L475.0868 246.4186 L477.7132 245.3477 L480.4835 244.5586 L483.3257 244.2205 L486.1679 244.2205 L489.0102 244.5586 L491.7805 245.2913 L494.4428 246.3622 L496.9253 247.8276 L499.1919 249.5748 L501.2426 251.5475 L503.0056 253.8583 L504.4447 256.3383 L505.56 258.9873 L506.3155 261.749 L506.7113 264.5671 L506.6753 267.4415 L506.3155 270.316 L505.56 273.0777 L504.4806 275.7267 L503.0415 278.2066 L501.2786 280.4611 L499.2639 282.4901 L496.9973 284.2373 L494.5148 285.7028 L491.8884 286.83 L489.1181 287.5627 L486.2759 287.9572 L483.3977 287.9572 L480.5554 287.5627 L477.7851 286.83 L475.1587 285.7591 L472.6763 284.2937 L470.3737 282.6029 L468.3589 280.5738 L466.596 278.3194 L465.1569 275.8394 L464.0416 273.1904 L463.2861 270.3723 L462.8903 267.5543" stroke-dasharray="" fill="none" fill-opacity="1.0" stroke="#ff0000" stroke-opacity="1.0" stroke-width="1.0px" stroke-linecap="butt" stroke-linejoin="miter" stroke-dashoffset="0.0px"/>
</g>
</svg>