<?xml version="1.0" standalone="no"?>
<!DOCTYPE svg PUBLIC "-//W3C//DTD SVG 1.1//EN" "http://www.w3.org/Graphics/SVG/1.1/DTD/svg11.dtd">
<svg width="512px" height="512px" version="1.1" xmlns="http://www.w3.org/2000/svg" xmlns:inkscape="http://www.inkscape.org/namespaces/inkscape">
<g id="layer" inkscape:groupmode="layer" inkscape:label="layer">
<path d="M38.5329 111.929 L39.0441 114.7543 L40.6522 117.2022 L45.463 119.6782 L49.6952 120.1419 L61.2942 120.5976 L63.3087 121.3648 L64.8588 122.705 L69.383 125.6373 L71.9799 126.6844 L73.7932 127.1887 L75.1191 127.7484 L76.1795 128.8679 L77.9177 131.1363 L82.8376 137.5293 L87.0509 141.6245 L90.9396 146.9858 L93.0312 150.6984 L94.3864 151.6117 L95.4467 154.086 L96.5369 157.7985 L97.0968 162.0108 L98.8881 165.7918 L100.6819 172.3017 L102.4776 177.7306 L103.5858 181.6059 L103.1852 185.6016 L104.2417 191.2068 L104.2651 196.0255 L105.517 199.5611 L106.401 202.6914 L107.7635 206.9999 L110.5991 211.6029 L112.8451 213.9601 L113.9133 216.2435 L117.3747 220.1835 L121.1313 223.1666 L128.2387 227.438 L133.3574 231.8938 L137.1872 235.7421 L138.0342 237.5839 L138.4761 240.7876 L138.4026 243.9914 L137.1502 246.0169 L135.7141 247.1213 L133.5046 247.2689 L130.8902 245.9062 L128.6437 243.623 L127.2442 242.0765 L125.3661 241.5613 L121.9413 241.892 L117.1539 244.9488 L111.4222 247.4999 L107.5593 248.5858 L105.6642 251.7245 L104.7436 254.892 L104.8908 256.9544 L107.3215 262.2573 L108.7576 268.0753 L110.4885 273.8202 L112.9558 279.0866 L114.9074 282.4746 L115.3865 284.9782 L115.0916 290.6128 L114.6496 306.7796 L114.0975 312.3032 L114.6131 316.4282 L116.0492 322.6143 L120.6523 331.7473 L123.6853 336.0676 L125.6253 339.9222 L126.3972 343.3472 L127.3548 353.8058 L127.097 356.6049 L126.1394 361.2813 L123.7219 364.391 L120.454 368.0822 L116.8849 371.5431 L108.2956 378.5393 L103.1604 382.3831 L99.4612 385.348 L98.5567 387.5381 L98.3462 390.0477 L99.815 393.3084 L102.3183 393.4029 L104.1545 391.4785 L105.1876 388.4236 L105.459 386.9744 L107.9745 384.4898 L110.7088 383.1151 L114.387 382.4702 L117.2256 382.6222 L120.1017 383.0421 L124.9631 385.4646 L128.4688 390.0986 L132.0363 393.8087 L133.6932 397.4915 L134.2692 400.2976 L134.563 405.2472 L131.6309 412.1115 L126.6686 419.2074 L120.7279 423.2883 L117.3757 426.9545 L116.2841 429.3156 L116.5326 431.3711 L117.8971 432.6062 L119.4418 433.2127 L121.7907 433.1522 L138.886 423.7849 L142.1407 423.0219 L147.1717 424.5588 L149.676 426.6211 L151.4064 429.6402 L152.2168 436.1219 L151.6959 440.9736 L153.6846 441.3123 L160.8349 441.0769 L160.408 442.4603 L159.1117 446.6597 L157.2234 449.6913 L155.6328 450.0889 L152.3586 455.5698 L151.3089 456.2021 L149.4762 464.8471 L147.3208 465.4299 L147.0348 473.2853 L144.509 483.3419 L140.5521 492.5484 L134.8403 497.2821 L125.6404 505.0055 L125.7072 509.6587 L126.9235 511.6046 L128.691 512.0 L131.7854 510.8795 L133.0573 505.8007 L135.3476 499.7334 L136.2784 499.7334 L142.6378 495.0344 L146.275 491.6602 L144.6245 489.5246 L147.2828 485.8796 L148.8466 483.2371 L148.6438 480.9628 L149.0464 478.7135 L150.4596 475.7227 L162.6077 476.9238 L162.6077 479.0779 L163.0477 479.4652 L163.9302 478.8625 L164.4858 477.7839 L165.4799 478.02 L166.7542 481.9085 L167.4057 486.1031 L167.7473 487.9016 L167.8901 490.8812 L168.1728 491.8328 L172.7876 496.6005 L236.2401 486.6431 L236.206 485.6133 L236.4253 485.074 L236.6139 484.9029 L239.2634 482.5016 L242.6482 479.0882 L247.7606 474.1507 L248.7201 473.1606 L251.6381 470.8346 L253.5878 469.1857 L256.1676 467.6556 L257.9985 466.2414 L267.4328 462.8551 L282.1407 462.6914 L287.6181 461.7316 L287.7857 461.66 L287.9041 461.6814 L289.0308 461.4837 L286.7872 459.0498 L286.3584 459.1229 L286.2439 458.5334 L286.2673 458.4869 L288.6984 453.6228 L290.232 448.8738 L291.386 447.8557 L291.7904 447.5141 L293.2304 447.0139 L294.4935 447.0198 L295.7464 446.9069 L295.9584 446.7756 L297.5923 442.5591 L293.7972 436.7091 L293.6948 435.6829 L293.7933 435.5648 L297.6074 435.0528 L301.6765 435.3302 L304.6807 435.7891 L306.8566 436.0532 L311.9738 435.9101 L316.9322 435.3088 L317.7942 435.2571 L318.051 435.4239 L318.2274 435.7352 L318.2932 435.7271 L317.6816 441.6207 L317.8775 441.7018 L320.5524 441.4665 L325.4138 440.767 L328.9117 437.8963 L330.1836 433.226 L359.0176 433.7277 L372.3017 434.2368 L372.9644 432.9161 L376.7606 433.1522 L375.9321 431.861 L369.3096 416.8905 L367.0417 412.8649 L377.7596 411.9396 L379.0753 415.9978 L391.833 417.407 L400.3902 418.6761 L397.8245 427.2135 L397.8747 427.2172 L397.8333 427.6732 L408.1628 426.3938 L426.7098 422.6383 L426.8272 423.531 L426.9334 424.4046 L427.3335 427.6629 L427.4129 427.7071 L427.4607 428.6973 L429.3364 443.9683 L428.659 448.9262 L428.715 449.1837 L429.9323 453.5358 L430.4328 455.4038 L433.5126 456.2153 L442.0649 450.8223 L443.2636 450.0919 L442.3134 447.7826 L442.9552 447.4698 L443.1764 447.0117 L442.5868 445.6106 L442.5736 445.4903 L442.328 444.8905 L452.3593 439.0524 L452.9884 438.4009 L455.4819 436.2429 L456.3981 435.7456 L457.495 435.6482 L457.9804 435.3213 L458.9355 432.5029 L473.4671 434.6499 L469.9779 430.4518 L468.0511 429.8254 L467.5117 429.7819 L466.2261 429.4373 L465.7062 429.0632 L463.0533 428.2015 L459.8599 427.4061 L457.1305 428.5741 L454.1989 426.2094 L454.5068 424.0379 L454.3909 422.0716 L455.0331 420.4484 L455.3587 417.4734 L457.8244 415.009 L461.9325 411.7109 L455.846 408.1839 L444.3942 407.6232 L431.4805 399.0491 L427.6941 394.1865 L423.8687 380.6977 L406.389 355.7555 L403.3092 348.6636 L401.5207 348.1809 L400.07 348.6909 L399.0053 348.9728 L398.2509 349.0769 L397.9566 348.882 L396.6871 346.8762 L396.6379 346.8629 L391.0036 348.8237 L389.6674 349.6222 L388.4302 349.8606 L387.1208 350.175 L377.5003 353.5224 L374.4127 355.0013 L367.4432 359.1796 L365.743 358.5368 L365.687 358.5442 L364.6631 358.1472 L364.5622 358.0896 L363.3464 357.6299 L359.0907 352.3682 L358.8953 352.2022 L358.5464 352.0634 L358.2716 351.7653 L358.2038 351.6155 L356.7107 350.3476 L356.068 348.8769 L355.8779 348.682 L355.5909 348.0489 L355.5002 347.5013 L355.3385 347.0548 L354.9155 343.0232 L355.1893 341.7856 L355.1221 340.9834 L355.6635 338.3524 L356.0036 337.52 L355.8501 333.4093 L357.391 333.0145 L357.5971 332.6957 L357.8744 331.5163 L357.9733 330.0521 L357.6771 329.2189 L356.4339 328.8787 L355.7268 329.0366 L353.8424 329.7488 L353.264 327.5406 L351.9565 327.4462 L348.6462 328.8765 L346.5493 329.5082 L342.2118 329.3067 L336.6682 330.2838 L334.5786 331.1023 L333.2877 331.9997 L332.5387 328.4742 L329.5374 329.9104 L326.3202 332.9267 L324.7116 336.0145 L327.8854 340.3945 L328.1871 342.3479 L328.1622 342.4136 L328.1729 342.4468 L328.2621 343.3258 L327.8693 343.9213 L327.4488 344.2962 L327.1964 344.9619 L322.5728 346.3729 L314.5088 348.9521 L312.0674 349.6082 L311.5571 349.5831 L311.2682 349.2997 L308.2376 347.2887 L308.3813 345.5368 L308.4345 345.2704 L308.3779 344.7892 L308.1898 341.7206 L308.0919 339.548 L308.0519 335.5333 L308.0222 335.0949 L308.0466 335.0041 L307.9876 329.0595 L307.9194 327.5886 L307.6397 326.2823 L306.6948 323.7893 L303.19 319.4504 L302.7105 318.3434 L302.6818 318.2312 L302.4927 317.8887 L301.1058 313.6302 L300.6146 313.107 L299.9889 311.2773 L298.9207 309.6765 L298.8549 309.5348 L298.4115 308.5827 L297.7219 307.0047 L296.9345 305.0489 L296.7191 303.6274 L296.6294 303.4547 L296.549 303.4783 L295.9793 302.2051 L295.8 301.8604 L294.9672 300.8692 L293.7767 300.8692 L293.3152 301.0803 L293.0452 301.3143 L292.6354 301.8568 L292.4649 302.3623 L292.1038 302.6539 L291.4922 302.8185 L290.308 302.9019 L289.7018 302.986 L288.0864 303.5536 L287.7233 303.7573 L287.1785 304.3344 L285.643 304.3927 L285.452 304.4599 L285.3229 304.4149 L285.1338 304.4282 L283.6894 303.9115 L283.4686 303.8665 L282.9204 304.2961 L282.6582 305.2068 L282.7372 306.2984 L280.7948 306.4984 L280.2846 306.8586 L279.7773 306.5693 L279.0765 306.5257 L278.7544 306.3693 L278.4474 306.0298 L278.3758 305.0843 L278.2062 304.719 L278.2257 303.9174 L278.1175 303.1949 L277.2862 302.9277 L275.9709 302.8354 L274.4456 301.718 L273.415 301.8892 L272.7113 302.0605 L272.3288 302.118 L271.8512 301.3674 L271.6948 300.9991 L271.4487 300.6972 L271.4063 300.3201 L271.2971 300.0625 L271.1465 298.5133 L270.5208 297.5944 L269.1023 295.9064 L268.5989 295.1285 L268.059 294.6509 L266.8743 293.4154 L266.1224 292.8625 L263.7146 292.8404 L263.8086 292.6832 L264.8412 290.9553 L266.7608 287.7424 L266.5098 287.6915 L265.0912 287.4044 L264.027 288.7337 L262.9193 290.1161 L260.7235 292.1222 L259.9579 292.7238 L258.1841 294.3704 L254.1848 292.2521 L249.1582 286.7371 L248.2021 285.1052 L252.5689 283.2481 L253.9582 283.0555 L254.6014 283.0835 L254.7588 283.7286 L255.8182 284.587 L257.1798 285.6897 L257.3883 285.692 L258.6193 285.4373 L259.054 284.9849 L259.6714 284.511 L265.5079 286.1961 L267.3982 286.1909 L268.8776 286.6079 L269.4951 286.9379 L278.8699 285.5835 L285.3419 284.8956 L284.4788 284.649 L284.3497 284.1641 L284.3814 284.0489 L284.4744 283.7072 L284.7634 283.5419 L284.5207 283.1359 L283.6563 282.7528 L283.2459 282.1993 L283.0393 281.8959 L282.8931 281.2877 L283.1421 280.3739 L283.7055 279.4793 L284.3015 279.2719 L284.4998 279.08 L284.9077 278.6851 L284.9535 278.1138 L284.7123 277.8894 L284.4486 277.6178 L284.3112 277.0716 L284.3828 276.6848 L285.8657 275.6935 L288.8354 274.562 L285.6196 268.8821 L281.6174 262.024 L280.8079 261.1309 L278.2939 258.912 L277.0128 258.9548 L276.5225 259.0227 L276.0849 259.0205 L275.6205 259.2729 L274.5138 260.3056 L274.2687 260.3396 L271.2328 257.4298 L270.8892 257.1005 L268.2597 254.3236 L266.8758 253.0857 L266.5629 252.8059 L264.9139 251.3318 L262.6415 248.8818 L260.6713 247.2704 L260.2869 247.198 L259.9803 247.2401 L259.3376 248.2241 L259.2586 248.3451 L258.611 250.4452 L258.3596 251.8013 L258.2168 252.5727 L257.6135 254.5406 L257.0292 256.1919 L256.7397 256.3572 L256.3192 256.2236 L255.0205 255.137 L251.4203 253.2149 L248.6056 251.7053 L246.7557 250.7132 L245.8221 250.4807 L243.1302 248.9667 L241.235 247.4438 L241.0357 247.122 L240.8832 246.8762 L240.085 246.028 L239.6201 245.6102 L239.5986 245.6036 L239.0865 245.4434 L240.1805 243.7795 L240.6907 243.0029 L239.7297 242.0315 L239.2629 241.559 L237.5061 240.4953 L236.6962 240.2392 L235.9765 240.0576 L235.074 240.0546 L234.5053 240.341 L233.6837 239.4626 L233.307 239.0603 L233.1515 239.1038 L232.6379 239.2463 L231.7188 238.7008 L231.5756 238.6159 L231.3612 238.8536 L231.5858 239.2714 L231.6326 239.3408 L232.4493 240.5455 L232.1053 241.2372 L231.7335 240.685 L231.5761 240.7839 L230.9835 241.1575 L231.1234 241.8779 L230.9255 242.1407 L230.4869 241.387 L230.1712 241.4705 L230.1205 241.9739 L230.137 242.4855 L230.042 242.7682 L229.6712 243.1749 L229.602 244.1294 L229.7014 244.8528 L228.659 244.9968 L228.3116 244.2674 L227.6069 244.1981 L227.7258 243.75 L228.1303 243.3912 L228.4763 243.3432 L228.9422 243.4303 L229.4041 242.7593 L229.3598 241.7037 L228.93 241.5111 L228.5284 241.0888 L228.7667 240.4392 L228.6834 239.8339 L228.9383 239.3098 L229.3101 239.3386 L229.8164 239.4766 L229.9991 238.7141 L228.7253 238.6823 L227.8136 238.8558 L227.3326 239.2441 L226.8448 238.6616 L226.3794 237.9485 L226.3419 237.3373 L226.5568 236.859 L227.1932 236.0942 L228.0094 235.277 L228.1727 234.9131 L227.9476 234.6828 L227.2 234.9803 L226.627 234.8924 L225.1022 232.6977 L224.358 233.1163 L224.5866 233.4662 L223.5369 235.3538 L223.265 236.0484 L222.8971 236.6287 L222.9804 237.2332 L223.3059 237.5101 L223.5978 237.8851 L223.9126 238.0829 L223.7869 238.6764 L223.5832 239.2337 L223.0764 239.1429 L222.7782 239.3054 L222.9117 239.6951 L223.1924 239.9845 L223.1904 240.5544 L223.1505 241.1361 L222.9629 241.5709 L222.6183 242.0278 L222.287 241.4166 L221.9118 241.0202 L221.6978 240.6806 L221.116 241.4985 L220.5921 241.8189 L220.3991 242.2146 L219.8758 242.2463 L219.4533 242.1378 L220.2383 238.9599 L220.6516 237.8371 L220.8904 237.4827 L221.2549 237.7537 L221.7329 237.9759 L222.1632 237.5071 L222.5701 236.9217 L222.7689 236.278 L222.0643 235.5848 L222.2607 234.4451 L221.9468 233.8988 L221.3221 233.7777 L219.7954 234.2369 L219.483 234.9773 L219.7062 235.6764 L219.9971 236.3334 L219.9791 236.7844 L219.8767 237.496 L219.5658 237.9072 L219.2959 237.7433 L219.0205 237.2458 L218.4582 236.9955 L218.3641 234.2273 L219.4138 233.5526 L221.1818 233.3887 L221.7451 232.8985 L220.8173 232.0156 L220.501 231.5535 L220.1633 231.2973 L219.7179 231.3586 L219.5712 231.025 L219.061 231.3483 L218.8977 231.6244 L218.9811 231.8658 L219.1146 232.0998 L219.1214 232.1492 L218.5717 232.5486 L218.4767 232.4763 L218.1439 232.4888 L217.4173 232.59 L217.3666 231.8326 L216.9056 231.4479 L216.3014 231.4243 L215.7205 231.9603 L215.7 232.3449 L215.625 232.7243 L215.6133 233.2211 L215.8087 233.4758 L216.2716 233.5393 L216.2687 234.149 L216.3399 235.2453 L216.6118 235.9311 L216.1328 236.4596 L216.507 237.3587 L216.2107 237.6348 L215.835 237.8216 L215.5962 237.7876 L215.2985 237.324 L215.3989 236.839 L215.4067 236.1651 L215.0904 235.5693 L214.1211 234.358 L213.1607 233.2123 L212.572 232.8232 L212.4735 232.8365 L212.2011 233.0425 L212.0359 233.3008 L211.8605 233.729 L211.4526 236.1075 L211.0272 236.9062 L210.8815 237.0612 L210.7875 237.1077 L210.3732 236.526 L210.192 236.1806 L210.2256 235.9407 L210.4619 235.4704 L210.5769 234.8489 L210.5414 234.3491 L210.384 233.9335 L210.3104 233.6412 L210.3157 233.4381 L210.4108 233.1562 L210.5755 232.8978 L211.3225 232.491 L214.0022 231.5469 L214.3784 230.6042 L214.2917 230.0535 L214.2137 229.6519 L214.0846 229.1986 L214.0909 228.7601 L214.2381 228.3696 L214.5022 228.0485 L214.5816 227.9518 L216.2672 227.0792 L217.8062 226.5964 L219.2647 226.2605 L222.1242 225.8981 L223.6724 225.4817 L224.5817 225.2883 L224.9428 225.2381 L226.2995 225.433 L226.9681 229.4297 L225.9871 229.5655 L224.3327 229.6932 L223.976 229.7766 L223.8254 229.8984 L223.7387 230.4639 L223.3381 230.554 L222.8211 230.8278 L222.4736 231.2302 L222.1593 231.8805 L222.4975 232.1367 L223.0194 232.2674 L224.1792 231.9042 L224.6465 231.6369 L225.2045 231.6613 L225.2727 232.1566 L225.993 232.4741 L226.9228 232.6741 L227.1523 233.2248 L227.584 233.5474 L227.8486 233.8183 L228.1625 234.3048 L228.505 234.7064 L229.8641 233.9017 L230.4104 234.0339 L230.1765 235.0039 L230.2028 235.7775 L229.6965 235.9347 L229.2048 236.2441 L228.8939 236.656 L228.3983 236.8922 L228.1493 237.1675 L228.199 237.5293 L228.8174 238.1405 L229.448 237.9508 L229.4563 237.6452 L230.3281 237.0192 L231.1112 237.214 L231.8568 237.8696 L232.4284 237.9921 L233.0102 237.4569 L233.1262 236.8339 L231.8295 236.2042 L231.7301 235.6129 L232.4912 234.9315 L232.9478 234.9485 L233.133 235.4187 L233.7178 235.6395 L234.5092 235.5302 L235.1695 234.8319 L236.4477 233.7268 L236.7206 234.8348 L237.9213 234.6289 L238.4101 235.2172 L238.2727 236.0137 L238.2473 236.6811 L238.3204 237.5817 L238.6859 238.0364 L239.5455 238.4232 L239.1674 239.1666 L238.798 239.687 L238.3657 240.1033 L239.1722 240.513 L240.0757 241.1043 L241.0391 241.6011 L245.132 243.8149 L246.0574 244.3472 L246.6446 244.215 L248.1129 241.6484 L249.1426 239.8494 L249.0456 238.2202 L249.4632 237.606 L250.4846 236.106 L250.9232 235.5199 L252.7287 233.1089 L252.4743 231.6273 L251.0192 230.2114 L249.0334 228.969 L248.0388 228.7018 L246.7577 229.2842 L246.5428 228.4538 L246.3084 227.7783 L246.63 227.6698 L248.6762 227.3863 L246.8971 224.8749 L245.7475 222.2564 L245.9385 221.9773 L246.0652 221.9212 L256.3528 217.2984 L258.821 216.572 L261.0285 213.3592 L261.1094 213.3245 L261.1231 213.2979 L261.7049 212.8158 L262.5835 212.694 L262.8097 212.5981 L264.1293 212.2806 L264.6507 212.0798 L267.3226 211.3246 L268.2339 211.2936 L269.5233 210.9835 L269.5106 210.9385 L269.4449 210.9407 L269.1252 210.6306 L269.1257 209.5543 L268.9853 209.0508 L268.6086 197.8875 L268.1803 196.0662 L262.9193 183.9995 L262.4846 183.4163 L262.43 182.9681 L261.835 180.9592 L261.9793 179.1105 L261.7249 178.0864 L261.8039 177.5932 L261.778 176.9671 L261.7907 176.2347 L261.934 175.3303 L262.3068 174.2531 L262.5743 173.9614 L262.6152 173.9334 L257.2344 175.966 L253.7345 171.6106 L254.1282 169.3772 L256.5575 168.0555 L256.8192 166.2776 L252.427 162.2522 L246.9375 159.7942 L241.7618 157.9646 L240.6113 154.9846 L235.6446 153.5728 L231.6189 151.4818 L233.0302 147.5079 L239.0952 145.8355 L245.3167 150.7493 L249.473 146.4099 L248.2971 143.9526 L240.4544 144.005 L240.716 136.6854 L237.8458 133.6815 L237.8901 133.4534 L238.1123 132.314 L240.3842 132.2867 L248.5661 130.7715 L248.9189 127.3674 L248.3546 125.7207 L246.2153 120.9077 L246.0691 120.9328 L244.0799 116.6071 L242.3008 112.7384 L241.8729 111.8079 L241.5172 110.7778 L241.5459 110.7704 L241.1317 110.4019 L240.2331 107.906 L239.8525 106.4505 L239.1308 104.1709 L238.913 102.5654 L238.7117 102.0972 L238.5972 101.6505 L238.4296 101.2584 L238.4617 100.8921 L238.2829 100.5812 L238.2585 100.1625 L238.1728 99.7172 L237.9091 98.8362 L237.5256 97.3142 L237.5885 96.5078 L237.5281 95.9709 L237.2605 94.3817 L234.803 90.371 L233.5287 89.0188 L231.5814 88.9235 L222.765 91.3354 L222.5501 90.9684 L219.4016 90.3857 L218.0878 89.2403 L216.9617 86.7546 L214.0315 81.2594 L212.1802 78.2551 L210.9975 75.2545 L210.9156 74.66 L210.6198 73.7243 L210.5886 73.2576 L210.651 72.9799 L211.5457 72.7982 L211.8756 72.5715 L212.6436 72.3241 L214.646 71.8189 L215.6221 71.7237 L216.7706 71.6801 L217.7029 71.2953 L218.1288 71.6254 L218.3281 71.6173 L218.5503 71.5494 L218.9772 71.4896 L219.2125 71.2554 L219.811 70.4992 L221.1667 67.955 L222.1617 64.7512 L222.4015 62.5127 L223.0369 57.348 L222.7543 56.5777 L222.765 56.0732 L221.7022 56.4617 L221.0049 56.639 L220.4547 56.574 L220.1365 56.4979 L219.962 56.3236 L214.3721 56.9735 L214.2961 57.0614 L212.0179 57.2468 L209.9985 57.4625 L204.0387 60.3059 L202.685 62.8199 L202.7503 63.0961 L202.5724 63.6973 L202.0612 63.9779 L201.5729 64.8849 L196.5912 66.1278 L196.6531 66.4351 L196.3797 68.0177 L196.3002 71.1107 L191.0081 73.4814 L190.7054 71.1853 L190.6007 70.9268 L190.4481 70.11 L190.242 69.5354 L190.2181 69.0221 L190.0719 68.2518 L190.0398 66.0769 L190.0032 65.2312 L189.8298 64.5141 L189.9672 60.6973 L189.8293 60.0873 L187.592 58.0459 L181.1547 59.0799 L173.6452 53.7254 L172.7778 40.5787 L171.1341 40.3453 L168.6937 40.6969 L167.9905 39.4709 L167.8555 38.2751 L169.5226 36.9153 L172.232 36.9079 L169.3813 34.5592 L168.3726 31.7747 L168.5187 31.5679 L168.7624 32.432 L170.4631 35.1132 L170.3895 33.6766 L170.1922 33.2763 L169.8969 32.0568 L169.391 31.4216 L169.3979 30.9829 L169.47 30.5353 L170.0786 29.8321 L171.1117 29.3742 L171.7555 28.9827 L172.4148 29.3964 L172.7159 29.7583 L172.8738 29.8299 L173.3797 29.7324 L173.5887 29.5367 L173.6326 29.1268 L173.4113 28.2486 L173.6886 27.555 L173.6906 27.1621 L173.0702 27.1288 L172.8378 26.4995 L172.7715 26.5202 L172.4776 26.2078 L172.1341 25.902 L172.08 25.2439 L171.6278 24.6293 L171.5215 23.8597 L171.6892 23.0361 L171.7126 22.4777 L172.0269 22.104 L172.1979 20.2153 L172.1336 17.5592 L172.0045 14.7613 L179.3765 10.3863 L180.8754 9.4474 L181.9885 8.9267 L182.1517 8.9038 L184.4362 0.2253 L184.0712 0.0 L182.0123 0.0428 L174.9366 0.9736 L172.4757 1.1065 L171.1 1.272 L169.1357 4.0759 L168.0509 10.1846 L160.5975 10.4136 L160.791 11.6671 L160.5132 12.4789 L159.8096 12.9907 L159.197 13.5964 L157.5338 15.884 L157.392 16.1403 L157.3691 16.2415 L157.3355 16.2422 L156.9637 16.9136 L156.4808 18.1265 L156.2805 19.7086 L156.7064 21.4119 L155.1811 22.1357 L155.8 25.1198 L152.7177 30.6837 L153.0672 31.2591 L153.6558 31.8485 L153.5783 32.1026 L153.7869 32.4468 L153.5155 33.5946 L153.3288 34.0946 L153.149 34.4905 L152.2105 35.9337 L151.671 36.5446 L150.7787 38.1473 L151.6325 38.7589 L151.8079 38.6621 L152.71 37.8725 L153.3834 37.5712 L154.149 37.5453 L155.0895 38.2071 L155.0047 38.9598 L154.822 39.2559 L155.0349 39.5669 L150.6296 46.9675 L147.6415 46.3079 L146.1157 45.98 L145.9573 46.593 L146.6196 47.2799 L147.6955 48.0628 L148.5907 48.822 L150.2315 49.6551 L150.3309 49.7607 L150.9123 49.8774 L150.902 51.5946 L150.9123 52.876 L147.545 57.2704 L148.7486 59.1907 L146.6995 61.619 L146.7195 61.7025 L146.5294 62.15 L145.7098 62.7911 L144.8843 63.7697 L142.857 64.6264 L140.2095 60.1161 L132.1246 70.5679 L121.6688 80.5955 L122.0626 82.8575 L120.2844 84.1108 L116.4054 87.9266 L111.2843 90.6176 L107.5203 91.0179 L106.6305 88.527 L104.7714 80.3909 L99.701 88.4952 L97.0646 88.0595 L95.7245 87.8379 L97.4642 89.4331 L98.2488 91.7593 L98.1952 97.2019 L95.3931 103.1828 L95.4818 103.6953 L95.4555 105.2003 L95.3127 106.4401 L94.6583 109.5978 L94.1695 112.3581 L94.0209 112.8085 L93.6534 115.5378 L94.6086 123.6089 L91.3387 124.554 L91.1487 117.539 L90.7062 117.6881 L90.3997 118.4406 L90.387 118.3985 L89.042 118.2493 L82.7377 120.3746 L81.6968 118.5322 L81.2003 118.1799 L80.7227 117.7701 L80.3104 117.3514 L80.1613 116.7747 L79.5917 116.2814 L79.4328 116.1012 L79.0883 115.5437 L78.6394 115.2018 L77.6692 112.5501 L77.639 111.8973 L77.8841 111.7836 L77.6064 111.2918 L72.4555 112.0819 L71.4589 112.059 L70.4473 112.1388 L69.8572 112.2207 L69.5146 112.0132 L68.4547 111.9889 L67.7773 112.1609 L66.3934 112.584 L65.3637 112.1557 L64.1932 111.9844 L63.7561 111.2142 L55.9552 99.0629 L57.02 98.4824 L57.0122 98.3392 L57.8245 97.9315 L58.6783 97.5786 L59.4375 97.0771 L59.6826 96.4804 L60.0925 96.1555 L60.0325 94.8683 L59.5715 93.2651 L59.475 93.0901 L59.4326 92.7814 L59.2509 92.15 L58.8264 91.2498 L58.0458 89.0321 L57.7622 86.3499 L57.7441 85.5412 L57.4503 84.771 L57.5014 84.3412 L57.2705 83.274 L56.8865 82.0939 L56.8163 81.156 L56.3743 79.0941 L58.1018 78.425 L58.0121 77.1776 L56.3109 71.0073 L55.6502 69.367 L54.6283 68.2622 L54.1449 66.7467 L54.6697 66.2622 L57.9015 66.1478 L62.5636 66.2416 L63.7673 66.2216 L76.6951 65.2024 L74.261 61.3672 L73.8409 60.8687 L68.9225 58.0829 L67.6604 59.9588 L59.0204 60.1877 L54.8588 57.8539 L45.4586 56.6131 L42.4163 57.5784 L44.6336 59.8059 L45.6925 63.1419 L45.2651 75.4443 L42.4314 75.6245 L43.4114 79.0978 L44.1272 82.845 L43.9323 87.7449 L42.2175 95.578 L39.9344 103.7713 L38.5329 111.929 M69.7802 122.5854 L69.7904 122.4281 L69.9273 122.1187 L70.361 121.5649 L70.4473 121.5243 L70.5608 121.5014 L70.8571 121.5206 L71.0199 121.5804 L73.472 123.3105 L75.4349 124.4898 L76.2253 124.8435 L77.3213 125.4217 L78.7354 126.5655 L79.4255 127.3076 L79.7866 127.7115 L80.6004 128.7674 L81.5579 130.0707 L81.8581 130.0286 L82.4293 130.8586 L83.6056 132.8826 L83.8868 133.5184 L83.9458 134.7973 L84.4136 135.5888 L85.6786 137.2111 L86.6318 137.5818 L88.8895 139.7947 L89.4031 140.1351 L90.0493 140.7133 L90.3583 140.9031 L91.8455 141.8157 L92.5994 142.2285 L93.5311 142.3887 L93.7787 142.732 L93.748 143.0828 L93.7139 143.4734 L93.5521 144.4857 L93.2543 144.6791 L91.7412 144.6223 L89.8807 144.4023 L89.6804 144.2177 L88.0377 142.1 L85.1553 138.874 L84.1017 137.3942 L83.6329 136.8626 L82.6622 135.2573 L80.9673 131.298 L79.3266 129.3589 L78.8295 128.6508 L77.3164 127.6406 L75.372 126.2952 L72.8405 125.1588 L71.6198 124.331 L69.9614 122.9753 L69.8226 122.7641 L69.7802 122.5854 M78.4094 124.9196 L78.425 124.9026 L78.619 124.687 L79.6594 124.941 L80.3942 125.1219 L80.7821 125.404 L83.9389 129.802 L84.5593 130.6076 L84.8541 130.9901 L85.2634 131.6642 L85.2722 131.8451 L85.4705 132.664 L84.8848 132.9564 L84.8556 132.9424 L84.2245 132.6382 L83.7084 132.2985 L83.5959 132.41 L82.1939 130.1224 L81.5521 129.1824 L80.5521 127.8688 L79.6638 126.6246 L79.1911 126.0331 L78.4094 124.9196 M94.936 143.9733 L94.9887 143.6159 L95.1105 142.7918 L95.3054 142.2875 L95.4058 142.0269 L95.6841 141.6126 L95.7615 141.0301 L96.0642 140.7022 L96.396 140.5922 L96.7586 140.7007 L97.5344 141.9058 L97.9145 141.7522 L97.97 141.0094 L98.0865 140.7074 L99.1396 138.4952 L99.2726 137.6962 L99.1323 137.2598 L99.2365 136.9039 L99.161 136.3627 L99.0869 136.0548 L99.199 135.7217 L99.8199 134.2686 L100.6166 132.4861 L100.6493 132.0371 L100.4158 130.5751 L100.4407 129.8404 L100.8603 128.9875 L101.6765 128.4928 L102.3412 128.2734 L103.1691 128.0947 L103.4888 127.8917 L104.2242 127.7263 L104.5653 127.679 L104.7436 127.3681 L104.7529 127.2079 L104.5497 127.109 L104.094 127.013 L103.9357 126.7811 L103.8095 126.3218 L103.8197 125.9386 L104.0702 124.0918 L104.5643 122.8638 L104.8508 122.499 L105.5355 121.401 L105.5647 120.3236 L105.4853 119.7469 L105.4332 118.6296 L105.6622 117.5242 L105.804 116.2526 L105.7714 115.9166 L105.765 115.1435 L106.1573 114.3482 L106.286 113.8261 L106.5321 113.1859 L106.6899 112.3898 L106.7684 111.5037 L106.84 111.0562 L107.1227 110.6803 L107.5598 110.4514 L107.7532 110.1553 L107.9647 109.9914 L108.2508 109.8843 L108.7659 109.981 L109.2576 110.1479 L109.4627 110.4226 L109.4379 110.7291 L109.0661 111.1847 L108.9793 111.7688 L109.0388 112.1978 L109.0037 112.6741 L108.6138 112.9976 L108.4667 113.3882 L108.5588 113.8128 L108.3141 114.5897 L108.4618 114.837 L108.4306 115.1427 L108.2922 115.5445 L108.1236 116.8884 L107.6548 117.8513 L106.8508 119.9987 L106.8088 120.1109 L106.5218 120.8774 L106.2158 122.5359 L106.1096 123.5092 L106.1398 124.1619 L105.9137 125.0916 L105.8717 126.5315 L106.303 127.9124 L106.4083 128.6759 L106.4 131.6664 L106.5199 131.679 L109.125 131.9448 L109.1752 132.2424 L109.1567 132.5636 L109.2347 132.9018 L109.4803 133.5353 L109.8989 134.0493 L110.0699 134.3756 L110.2965 135.3289 L110.682 137.437 L110.7224 137.8779 L110.9393 140.2415 L111.8403 137.8912 L112.3588 136.5392 L112.9689 136.6108 L113.1629 136.8707 L113.2408 137.2089 L113.5629 137.4821 L113.868 137.6305 L114.0132 137.7693 L114.0702 137.9177 L114.4922 139.0194 L114.5088 139.3665 L114.328 140.3448 L114.2632 141.0212 L114.3587 141.4849 L114.4991 141.815 L114.5902 142.2477 L114.596 142.9779 L114.2759 148.1879 L114.2442 148.8643 L114.9659 149.3789 L115.2447 148.6272 L115.8241 147.0663 L116.0604 144.4901 L116.6067 143.8108 L116.9078 143.706 L117.8108 144.3882 L118.1929 144.1372 L117.8444 143.8994 L117.6953 143.5066 L117.6232 142.7542 L117.3523 141.9331 L117.3186 141.4613 L117.3873 140.8159 L117.9141 139.1073 L118.2133 138.137 L118.3483 137.9214 L118.7869 137.2207 L118.9779 137.0036 L119.071 136.9903 L119.4584 137.0863 L119.6572 137.8321 L119.7303 138.106 L119.9101 138.4944 L119.9404 138.7122 L119.6865 139.1605 L119.6012 139.4588 L119.6611 139.8951 L119.9608 140.2355 L120.5695 140.7546 L120.586 141.1017 L120.4101 141.8888 L120.4087 142.3348 L120.7064 143.1197 L121.1864 144.1387 L121.7731 145.3843 L121.9573 145.7749 L122.2429 147.3875 L122.4919 149.3531 L123.4329 148.9351 L123.4826 149.4358 L122.5041 149.4476 L122.6035 150.2303 L122.5908 150.4968 L122.5387 151.5911 L122.4383 152.2401 L122.4573 153.0641 L122.6576 154.975 L122.6595 155.102 L123.2823 155.9393 L123.6761 156.8098 L123.4982 157.4714 L123.5377 157.7579 L123.4656 157.8885 L123.2151 157.893 L122.488 157.6412 L121.2814 157.4706 L120.1684 154.6826 L119.3507 151.5652 L118.8093 151.5667 L119.456 153.3469 L120.7347 158.0621 L120.2976 158.3308 L119.6665 157.9225 L118.0647 151.69 L117.017 151.7956 L117.5589 152.3833 L117.5716 154.1842 L117.5745 154.6265 L117.8576 155.195 L117.9809 155.4416 L118.2518 156.2169 L118.7674 157.6929 L118.8205 157.845 L118.5813 157.9993 L118.2884 157.9594 L117.9892 157.6789 L117.401 157.2875 L116.922 156.9693 L115.9873 155.5708 L116.0092 156.1645 L116.1988 157.1029 L114.7354 156.1874 L112.4051 154.165 L111.6936 153.0301 L110.5982 151.58 L109.7254 149.2755 L109.087 149.2497 L108.8453 149.9201 L109.1455 150.736 L109.7322 151.2115 L110.9237 153.1638 L112.9889 155.6853 L112.9212 156.2583 L111.969 156.0884 L111.854 156.1246 L110.8993 156.4244 L111.1542 157.207 L113.9757 158.2363 L112.5337 158.5841 L111.8871 158.6003 L111.2351 158.6166 L108.0744 159.3438 L106.7182 159.7617 L106.3898 159.9028 L105.8367 160.0113 L102.9104 160.3222 L101.9933 160.5451 L101.6609 160.1331 L100.6337 159.713 L99.6303 159.7049 L98.9281 160.3783 L98.6201 160.8257 L98.5012 160.6515 L97.9496 160.3148 L97.6937 160.0645 L97.6021 159.3431 L97.4783 158.8307 L97.0895 157.9528 L96.8083 156.3498 L96.4774 155.37 L96.571 155.1345 L96.5866 154.56 L96.549 154.0572 L96.4058 153.2502 L95.7903 151.0794 L95.5803 150.4724 L95.2772 148.7351 L95.1909 148.1111 L95.2669 146.8293 L95.34 146.215 L95.3512 145.6102 L95.6309 145.117 L95.9886 144.7478 L96.0724 144.197 L95.9263 144.2812 L95.7615 144.4628 L95.3405 144.6164 L95.0447 144.5307 L94.9609 144.3831 L94.936 143.9733 M105.9361 169.8098 L106.2689 169.2657 L106.9195 167.8747 L107.9589 167.377 L110.5533 167.7573 L111.66 168.1405 L112.0382 168.4579 L112.1449 168.7466 L112.3276 169.4015 L112.5459 170.1856 L112.6804 170.4308 L113.1824 170.8391 L114.0917 170.9409 L114.6808 170.1325 L115.1482 169.7234 L115.2105 169.3366 L115.2203 169.276 L115.5497 169.1822 L115.903 169.2155 L116.1262 169.2369 L116.8104 169.3831 L116.9878 169.4207 L117.1154 169.6998 L117.0131 173.0791 L117.0842 174.0788 L117.2845 175.5318 L117.4458 176.2163 L117.7329 176.6017 L118.1183 177.2182 L119.0432 178.3027 L119.704 178.8166 L121.3112 180.0658 L121.5066 179.9839 L121.5953 179.9462 L121.9383 180.1064 L122.2283 180.3316 L122.5138 180.4291 L122.9675 180.5989 L123.1395 180.878 L123.1951 181.0382 L122.9246 181.5624 L122.0338 183.2863 L121.5075 184.9918 L121.0202 186.069 L120.8935 186.7253 L120.857 190.7712 L120.761 191.2201 L120.7498 191.6859 L120.6401 191.714 L120.4247 191.7693 L119.7805 191.9355 L119.1465 191.9362 L116.8484 191.9377 L114.9235 192.1134 L114.1692 192.182 L113.6336 192.0691 L113.5191 191.821 L113.3432 191.2732 L113.2886 190.8775 L112.7828 189.635 L112.3495 188.921 L112.2384 188.5999 L112.2638 188.4936 L112.2803 188.4256 L112.4719 187.6253 L113.3027 187.3418 L113.7627 187.0421 L113.9518 186.7128 L114.654 185.9154 L115.0512 185.6459 L115.6364 185.1897 L116.0697 184.4661 L116.2885 184.1007 L116.4581 183.1992 L116.1247 182.9327 L115.9201 182.7695 L115.136 182.1427 L114.1321 182.7105 L112.9348 183.6348 L112.7126 183.8061 L112.4246 183.7825 L111.4193 183.7005 L111.1084 183.4997 L110.7702 183.0493 L110.3784 182.6322 L108.2279 178.9259 L108.0422 178.0473 L107.8049 177.2913 L107.6027 176.31 L107.3566 175.7378 L107.0618 174.3321 L106.5033 172.2219 L106.0594 170.7017 L105.9361 169.8098 M116.0931 118.1681 L116.439 117.0413 L116.8771 116.7791 L117.5228 116.1803 L118.3639 115.7446 L118.6568 115.6973 L119.0218 115.6382 L119.2381 115.6035 L120.2571 115.2712 L120.7863 114.9692 L121.0807 114.6229 L121.4491 114.456 L121.5816 114.0617 L121.7556 113.2398 L121.7765 112.5671 L121.222 112.6173 L121.0173 112.2968 L120.4155 112.5589 L120.2639 112.5604 L119.9404 111.997 L119.4482 112.3071 L118.7874 113.0891 L118.2358 113.3535 L117.7338 113.3963 L116.8615 113.6408 L116.788 113.6614 L116.481 113.5699 L116.4712 113.3033 L116.6598 112.9282 L117.0331 111.7105 L117.4039 109.648 L117.727 108.5905 L119.0306 108.4569 L119.3926 107.059 L120.3307 106.3995 L123.0933 104.6206 L123.5362 104.3872 L123.891 104.3385 L124.3144 104.3747 L124.5795 104.6435 L124.6132 104.8872 L124.6078 104.9322 L124.544 105.4883 L123.8666 106.9179 L123.5849 107.9111 L122.9899 108.8335 L123.0445 109.0934 L123.1746 109.2086 L123.4197 109.1938 L123.5401 109.1008 L123.7038 108.7729 L123.9173 108.1703 L124.1132 107.2465 L124.7028 106.2622 L125.4036 105.3805 L126.539 103.7418 L129.4229 101.903 L131.6601 100.6846 L132.3331 100.141 L134.6975 98.2321 L135.679 97.8414 L136.4562 97.1768 L136.9825 97.2115 L137.0615 97.2787 L137.3909 97.5571 L137.0015 97.933 L134.1751 99.6322 L132.954 100.5184 L131.4326 102.4259 L128.402 105.3901 L127.5404 105.7076 L126.1277 106.802 L125.482 107.7893 L125.7311 108.8209 L126.1306 109.1879 L126.1248 109.2839 L126.1852 109.4471 L126.3582 109.4612 L126.9196 109.6701 L127.1559 109.8658 L127.3981 109.8326 L128.3079 109.5343 L128.6978 109.3275 L129.0404 109.4072 L129.5837 109.6672 L130.36 109.5261 L130.1919 111.1175 L129.6909 113.2051 L130.6612 113.7471 L131.3692 113.9841 L132.9228 109.8407 L133.6718 109.2677 L133.7887 109.2891 L134.3442 109.1946 L135.7716 107.8166 L136.6575 107.0102 L137.5171 105.8383 L139.1823 104.0837 L141.6451 100.7075 L141.6539 102.8778 L142.054 105.3265 L141.9926 105.9838 L141.996 106.4224 L142.4428 107.1808 L142.7187 107.4961 L144.2571 108.3284 L147.4129 108.9206 L148.4548 109.1163 L149.5371 109.7344 L149.6399 109.8341 L150.1925 110.368 L150.5112 111.1278 L150.9288 113.3572 L150.8119 114.3866 L150.7407 114.5727 L150.6028 114.9345 L150.0785 115.4492 L149.0761 115.7941 L148.3027 116.085 L145.7556 117.646 L145.0524 118.5078 L144.9159 118.8467 L144.7785 119.1886 L144.6187 120.4514 L143.8024 122.2398 L144.4223 122.6637 L145.5041 123.2374 L145.9524 123.5262 L146.3696 123.7942 L146.8949 123.7912 L147.1775 123.7898 L147.4139 123.9375 L147.792 124.1738 L148.0074 124.1043 L149.0015 123.7846 L150.2944 124.001 L151.5224 124.5208 L152.7212 125.1721 L153.6266 125.3885 L153.6363 125.6897 L153.6548 126.2694 L153.2187 127.6635 L152.6334 128.7032 L152.1135 129.3921 L150.8177 130.0279 L150.3796 130.8261 L150.0819 131.0883 L149.6959 131.5896 L149.4698 131.8835 L148.5605 131.8828 L148.5225 131.868 L148.0727 131.6886 L146.9017 132.1124 L146.3818 132.3746 L145.5645 132.7873 L144.0695 133.1418 L143.0432 133.1661 L141.1052 133.2112 L140.2348 133.1514 L139.3499 133.3278 L138.3762 133.1949 L137.6024 132.2365 L137.4625 131.6118 L137.4689 130.6393 L137.4143 129.8559 L137.1092 129.0473 L136.3247 128.3517 L135.6517 128.1228 L135.0021 127.6768 L134.0845 126.7922 L133.6518 127.1946 L133.1226 126.0205 L132.2897 125.7577 L132.1796 125.723 L130.9165 125.9378 L130.6173 125.4593 L130.32 124.6175 L130.1563 123.9914 L130.1086 123.2707 L130.13 123.0499 L130.1729 122.612 L131.0052 121.3279 L132.2668 119.7233 L133.1333 118.8039 L133.394 118.5595 L133.4042 118.3173 L133.7682 118.3431 L133.8223 117.9606 L133.2468 117.7118 L132.317 117.2244 L131.7542 116.4845 L131.2679 114.8961 L130.5574 114.2042 L129.4166 113.6385 L128.7572 114.3364 L128.5823 114.4154 L128.3508 114.634 L127.1097 115.1317 L126.1151 116.0606 L125.5356 117.093 L125.2774 118.0802 L125.4523 119.3496 L125.8938 120.1264 L127.7665 121.3013 L127.3996 121.7879 L126.8416 122.1534 L126.463 122.5071 L126.0093 122.7582 L124.9075 123.7824 L124.0762 124.6353 L123.7009 125.3035 L123.2716 125.5849 L122.9183 125.8817 L122.3262 126.5803 L121.4062 127.7602 L121.2269 128.543 L121.1406 129.2319 L121.0807 129.7089 L120.6606 131.1215 L120.5973 132.0689 L120.7771 133.1292 L119.9248 133.1041 L119.9048 133.1034 L119.1426 130.9701 L119.1573 129.768 L119.6153 128.8738 L120.5807 126.7154 L122.5621 123.8326 L123.0197 123.2264 L123.5601 122.5884 L124.5713 121.9253 L125.1438 121.3766 L125.9031 120.5806 L125.5337 120.2771 L125.1107 120.7622 L124.0474 121.463 L122.086 123.0949 L120.8926 124.5629 L119.7917 126.1815 L118.573 128.4891 L117.8946 130.547 L117.0691 130.6209 L116.9108 130.4983 L116.4312 130.1283 L116.6481 128.9232 L116.6622 128.7017 L116.7529 127.2603 L116.6744 125.9172 L116.8187 124.3488 L116.1228 120.8051 L116.25 119.306 L116.0931 118.1681 M117.4297 266.3724 L117.5409 265.9687 L117.8898 265.6387 L118.3473 265.6151 L118.667 264.6393 L119.0535 264.0967 L119.6343 263.4671 L119.9267 262.9703 L120.3224 262.3997 L120.7439 261.8255 L121.1119 261.4394 L121.6859 260.7566 L122.1123 260.1211 L122.4792 259.8819 L122.4534 259.8354 L125.1614 256.5573 L125.7038 256.1476 L126.7866 256.7647 L128.1691 258.3421 L129.3888 260.6747 L129.0662 261.9539 L128.1905 263.363 L128.7582 263.7889 L128.0896 264.2229 L128.0789 264.7271 L128.2144 266.0484 L128.0063 267.7978 L127.097 266.9541 L126.8226 267.9705 L127.6052 268.6525 L127.5828 268.9773 L127.383 269.0784 L127.4707 269.4217 L127.3962 269.7066 L127.1335 269.931 L126.5249 269.5863 L125.7057 270.4299 L125.255 270.2115 L124.7384 270.1022 L124.1327 269.7774 L123.3559 269.1818 L122.8593 269.0231 L122.3023 268.6643 L121.3609 267.9912 L120.9559 268.3956 L120.6172 268.1683 L120.7698 266.8537 L119.8639 267.0198 L119.4643 266.7872 L119.1451 267.0862 L119.1344 266.2831 L118.8512 267.0862 L117.4297 266.3724 M117.9015 173.198 L117.9731 168.1397 L118.533 166.3795 L119.3756 164.2428 L119.7469 164.0227 L120.1972 163.8935 L121.6503 163.7592 L122.4661 163.6122 L123.7984 163.3265 L124.389 163.2445 L125.0547 163.2194 L127.539 164.2546 L127.8197 164.3498 L127.9868 163.497 L125.924 162.5431 L123.3876 162.6605 L122.2215 162.5881 L120.4145 162.3762 L120.4598 161.5921 L120.6499 161.553 L121.5845 161.3625 L122.7672 161.5065 L124.2414 161.5367 L125.0937 161.0295 L126.3066 160.8611 L127.614 161.3773 L128.3762 161.8144 L128.9809 162.2736 L129.2392 161.3654 L129.1032 161.0022 L130.9287 161.121 L133.1572 161.1919 L139.0936 161.0863 L139.3874 161.0967 L139.7388 161.0745 L139.7314 161.2443 L139.8309 161.3846 L140.0375 161.835 L140.2105 161.8786 L140.3581 162.4641 L140.3611 162.9684 L139.9132 163.6026 L139.8318 163.9843 L140.576 164.2849 L140.7899 164.6252 L140.7519 164.8327 L140.2724 165.7194 L140.1929 166.2872 L139.634 166.9348 L136.9816 168.0998 L136.8471 168.1921 L135.7365 168.9563 L134.8637 169.8002 L134.6279 170.0284 L134.2877 170.244 L133.3209 170.8568 L132.1109 171.3958 L131.5646 171.6387 L132.2771 172.1747 L132.7546 172.5335 L133.2707 173.3198 L134.296 175.2476 L135.2657 176.883 L136.2311 178.8498 L137.6355 180.3036 L138.1574 180.6181 L138.2193 180.655 L140.0794 182.9881 L141.3508 184.932 L142.2523 186.8597 L142.9696 188.5548 L143.6187 190.4685 L143.7498 190.6656 L143.4867 190.8465 L142.0744 190.1016 L141.1388 189.6194 L140.2363 188.1163 L139.1618 185.6518 L138.7237 184.9327 L137.9006 183.5817 L137.0132 181.8481 L136.3666 182.2003 L137.502 184.3355 L138.4021 186.1037 L138.886 186.9402 L139.251 187.6091 L139.6384 188.2396 L139.7154 188.6021 L139.8148 189.0709 L139.6686 189.2259 L139.3031 189.2429 L138.0117 188.8501 L137.5551 188.3245 L137.1624 187.8726 L137.1092 187.7789 L136.6858 187.0339 L135.2073 184.015 L134.5801 183.0036 L133.6669 181.7625 L132.7795 180.2703 L131.9818 178.7996 L131.706 178.3958 L131.2874 178.3197 L131.0296 178.6298 L131.0257 178.9857 L131.1295 179.3534 L131.4608 179.7698 L131.8858 180.6698 L132.7132 181.9219 L134.1045 183.7256 L135.1644 185.6902 L135.7224 186.9261 L136.1122 188.4131 L135.4514 188.4714 L134.777 188.4308 L133.8969 188.1148 L133.5012 187.3418 L131.3663 182.8123 L129.2022 178.0731 L128.8971 177.5689 L129.3181 176.5005 L129.8873 175.7578 L129.7445 175.2055 L129.6534 174.5454 L129.7119 173.9983 L129.9141 173.7687 L130.2148 173.6277 L130.3225 173.5775 L130.3668 173.576 L130.6227 173.5694 L130.9077 173.6979 L131.1875 174.0294 L131.4818 174.7293 L132.78 177.2905 L133.4578 178.6283 L134.5479 180.2275 L135.4275 181.0611 L135.9256 181.4834 L136.3062 182.0851 L136.6638 181.4479 L136.4865 181.194 L135.7998 179.9285 L135.3656 179.1282 L134.0748 177.2883 L132.7454 175.1605 L132.3326 174.1069 L132.067 173.1648 L131.876 172.7809 L131.3541 171.7339 L131.2415 171.7849 L130.8113 172.1525 L129.1427 172.8938 L128.6861 173.2652 L128.3908 173.7422 L128.2319 174.8164 L127.5711 177.213 L126.9488 178.305 L126.5185 177.9705 L125.9684 177.543 L124.792 176.1845 L124.7365 176.1712 L123.7492 175.9409 L122.7658 176.0775 L122.4373 177.0882 L123.661 180.2423 L123.4271 180.1795 L122.0996 179.8222 L121.9578 179.7033 L120.3161 178.3271 L118.9526 177.0151 L117.9302 174.9914 L117.9297 173.401 L117.9015 173.198 M123.1717 189.1432 L123.487 188.2817 L123.8076 187.3123 L124.2345 186.5297 L124.5493 186.1975 L124.6926 185.7043 L124.7443 185.5271 L125.0089 185.4104 L125.1663 185.1941 L125.4299 185.2642 L125.6044 185.1816 L126.2837 186.0778 L127.5258 186.4618 L128.4439 186.8169 L129.0901 187.1425 L129.6997 187.3462 L130.112 187.5773 L130.4107 187.6091 L130.6646 187.6763 L130.8459 188.0218 L131.0793 188.258 L131.2635 188.4936 L131.3639 188.6228 L131.3863 188.7881 L131.2362 188.9092 L130.9345 189.3042 L130.6992 189.5382 L130.6953 190.5453 L133.395 196.6981 L133.6279 196.1097 L131.1709 190.3592 L131.7245 189.6254 L132.2132 189.1484 L132.6314 189.0569 L132.7512 189.0273 L132.8073 189.0502 L133.2819 189.2414 L133.9617 190.2315 L134.16 190.5209 L135.5459 192.8679 L136.6107 194.4833 L137.2632 195.5316 L137.2267 195.6165 L136.5708 197.1492 L135.9421 197.7258 L135.2745 198.6494 L135.0245 198.9174 L135.0328 199.2186 L134.9241 199.4024 L134.6001 199.8151 L134.0163 200.137 L133.548 200.2293 L133.1781 200.2219 L133.0855 200.2197 L131.9579 199.477 L131.8468 199.1558 L131.7781 198.6605 L130.8688 198.4899 L130.1724 198.4788 L128.5989 198.7446 L127.3416 198.5025 L127.0234 198.3784 L126.3743 197.7952 L125.7457 196.8731 L124.8442 196.0351 L124.5138 195.1898 L124.1916 194.0684 L123.9441 192.9639 L123.6848 191.8757 L123.7974 190.7254 L123.3389 189.5663 L123.1717 189.1432 M123.735 152.9393 L124.3325 152.2615 L124.4723 152.1035 L124.2326 150.3654 L124.2448 149.5694 L126.3841 148.295 L127.6218 146.229 L128.8342 145.2433 L129.977 144.3136 L134.1927 144.4008 L136.0069 145.1879 L136.4368 147.4015 L139.1106 161.0435 L133.1742 161.1314 L130.9287 161.0694 L129.0604 160.9416 L128.5077 160.1582 L125.7866 159.8636 L125.4606 158.5014 L124.9236 156.2568 L124.8909 156.2191 L123.9816 155.1655 L123.735 152.9393 M128.459 379.8831 L128.4995 379.0603 L128.613 378.3652 L128.9478 376.316 L129.3099 376.0304 L129.8478 376.0562 L136.6965 377.7225 L137.6224 377.8959 L137.7783 377.5727 L138.0892 377.1609 L138.4172 377.1151 L138.8572 377.1543 L141.8741 377.9438 L144.2235 379.0293 L145.9529 380.7723 L146.2867 381.6902 L146.758 382.5425 L147.4149 383.6235 L148.063 384.0626 L148.2886 385.1635 L148.87 386.3287 L149.251 386.2357 L149.6555 386.3604 L150.1121 386.3309 L151.2441 386.3545 L150.5999 385.0241 L149.8485 383.6412 L150.7149 383.9792 L151.2948 384.0663 L151.5482 383.9644 L151.6062 383.6545 L151.5789 383.4568 L151.4449 382.9727 L151.2358 382.6657 L150.2086 382.0031 L149.1667 381.477 L148.5781 381.0888 L147.676 379.6381 L146.9295 379.0706 L144.5777 377.0428 L144.3736 376.2422 L142.7109 375.6245 L141.7255 375.0231 L141.0287 374.818 L140.2514 374.7582 L139.3533 374.5472 L138.6949 374.1354 L138.6701 373.4831 L137.2428 372.9171 L135.9621 372.7334 L134.9134 372.2958 L134.5416 372.1666 L134.4315 371.3711 L135.7769 369.7447 L138.019 367.1169 L138.6024 366.4336 L139.3928 365.8477 L139.5268 365.7481 L141.5569 364.7762 L141.8951 363.5564 L141.9316 363.425 L142.5827 362.5306 L147.2029 360.0947 L148.8388 358.8947 L148.9377 358.8224 L151.3694 357.3731 L152.4697 356.5377 L151.9775 354.2279 L150.5843 354.6352 L150.1842 354.8315 L149.5342 354.9614 L149.3714 354.5555 L148.9333 353.9467 L147.8281 353.1017 L146.2161 355.1673 L145.5329 355.4433 L144.9184 356.6063 L144.1796 356.5753 L142.9297 357.5856 L141.667 358.3582 L141.5559 358.4261 L141.4219 358.4188 L140.21 358.3516 L139.0336 358.3944 L138.4742 357.0985 L138.194 356.1798 L138.3675 354.7932 L138.08 354.1622 L137.3144 352.0435 L137.2145 351.7668 L136.7915 348.8237 L136.4163 346.9463 L135.6429 344.9737 L134.2755 340.6351 L133.4203 338.0469 L133.2268 336.7252 L133.3774 335.2506 L133.6864 334.9259 L135.3617 335.2565 L139.6983 336.9074 L146.1893 339.1812 L147.9338 339.7229 L149.464 340.1133 L149.483 340.0705 L149.694 340.1613 L149.8592 340.1377 L149.846 340.1967 L152.19 340.4587 L152.7865 340.9125 L153.3815 340.8638 L154.1032 340.7635 L154.7123 340.5782 L155.6786 340.579 L157.1581 340.5236 L157.7984 340.6033 L159.4811 340.7982 L161.1331 341.2144 L160.7408 341.6313 L160.7228 341.8203 L160.6672 342.4048 L161.042 343.4785 L161.7549 344.7929 L161.6204 347.5736 L161.7953 351.5601 L162.0405 354.112 L162.4815 356.5355 L162.9352 360.7514 L162.7885 363.9017 L162.6701 364.6456 L161.675 365.1865 L161.3188 365.2691 L161.2101 365.4521 L161.9523 371.3195 L162.0541 371.5741 L162.1988 371.6545 L162.9113 371.7335 L163.0429 371.715 L162.4479 381.2231 L162.3606 383.0125 L162.1725 383.5601 L163.5755 384.0013 L165.0228 384.2294 L165.6329 384.2021 L165.7528 384.588 L165.3537 387.0253 L164.6924 391.9293 L164.3898 392.6429 L164.0175 393.0967 L162.1579 394.3946 L161.4079 394.5318 L160.887 394.872 L160.483 395.0963 L159.9065 395.2764 L158.0665 395.2631 L154.6148 395.5405 L150.884 395.387 L147.1683 394.8632 L143.8239 394.1194 L142.2966 393.2243 L140.0672 392.3263 L139.9673 392.2687 L139.4132 391.947 L139.1155 391.4851 L137.579 387.3721 L137.2769 386.8769 L136.8578 386.2645 L134.1069 383.9563 L131.5788 381.8201 L130.5744 381.3227 L129.1456 380.4505 L128.6803 380.0661 L128.459 379.8831 M132.4364 332.5946 L132.4696 330.4123 L132.6699 328.0868 L132.9418 320.7604 L133.1537 320.0209 L133.4422 319.7397 L133.6567 319.6261 L133.99 319.4489 L134.5333 319.5611 L134.6474 319.6342 L135.391 320.1124 L136.6804 319.6519 L136.8612 319.5869 L152.0545 319.3892 L153.1705 319.3744 L154.128 319.1574 L154.5588 319.4327 L155.2771 321.5051 L155.9603 325.9731 L155.9052 327.7584 L155.992 329.3569 L154.8458 334.3798 L154.4945 335.4683 L154.3941 335.9517 L154.4677 336.244 L154.6714 336.7525 L155.5242 338.0941 L155.4135 338.5517 L155.2362 338.8639 L154.8887 339.348 L153.8795 339.0521 L152.1612 338.1842 L151.6267 338.2122 L150.8684 339.3022 L150.6935 339.6624 L150.4683 339.7266 L149.6019 339.8063 L146.3525 338.9576 L142.3926 337.4167 L139.1764 336.2617 L133.2907 333.9429 L132.8175 333.6602 L132.531 333.278 L132.4364 332.5946 M135.8603 190.6398 L136.1127 190.343 L136.1429 190.3068 L136.1765 190.2677 L136.2506 190.275 L137.9596 190.4397 L138.7973 190.5209 L144.1616 192.4973 L144.2995 192.5298 L146.5855 193.0658 L147.4095 195.5051 L148.2165 197.3832 L148.7983 199.5205 L149.2973 202.5076 L149.1638 203.1897 L146.5684 203.7973 L144.7181 203.5581 L144.163 203.1189 L143.6864 203.1048 L143.5364 202.5497 L142.4867 200.8635 L141.6256 199.4829 L140.5345 197.7383 L138.7271 195.3552 L138.5254 195.0887 L135.8603 190.6398 M141.0769 394.8108 L141.2177 394.6307 L141.7523 393.9467 L143.0091 394.4898 L145.6966 395.559 L148.6711 396.2865 L152.4015 396.6754 L159.9231 397.0871 L161.7612 396.8532 L161.5951 397.3454 L161.289 398.7628 L161.423 399.2476 L161.9313 399.6417 L162.4449 399.6845 L162.997 399.0292 L163.8484 398.1733 L164.2587 397.5129 L164.478 396.6776 L164.8664 395.6173 L165.1285 394.6086 L165.4687 393.9238 L166.0203 393.076 L166.2279 392.6451 L166.1519 391.8504 L166.1933 390.9391 L166.4769 389.357 L166.5373 387.3699 L166.6338 385.6461 L166.8224 383.2834 L169.3564 384.4662 L171.6439 384.4433 L172.1365 385.1591 L174.9283 388.8398 L177.3215 390.9228 L182.5474 394.9421 L182.3915 396.2356 L182.8685 396.8864 L183.563 397.5136 L184.3802 397.9696 L185.3567 398.3017 L185.2846 398.7474 L185.3762 399.1709 L185.6277 399.5384 L185.597 400.046 L185.4903 400.6415 L181.6805 402.7857 L180.8321 403.5915 L179.7507 404.6178 L172.81 413.2906 L169.0148 418.5035 L167.6163 420.8638 L165.9994 422.96 L165.8074 423.2086 L164.9604 424.5249 L164.383 425.034 L163.8006 425.0746 L163.0014 424.7499 L163.0146 423.8793 L163.0497 421.5618 L162.3504 420.9959 L161.348 420.1171 L159.6117 420.3104 L159.4494 425.8183 L158.4758 425.9622 L155.3039 424.516 L149.5805 421.1257 L146.1708 419.7438 L146.1581 418.6805 L144.3721 418.2246 L143.0885 417.8269 L143.1792 415.3831 L143.147 408.7565 L142.6777 404.2873 L141.4867 397.7106 L141.1261 395.8962 L141.0769 394.8108 M147.7097 193.3013 L147.9494 193.0997 L148.0898 193.1477 L150.2271 194.0964 L150.6481 194.2396 L152.5891 195.2157 L154.5305 195.9561 L155.4082 198.4168 L155.7128 200.0897 L156.0329 202.7062 L155.9525 204.2602 L155.9491 204.3259 L155.5592 204.7955 L154.3215 204.5171 L150.8772 203.7427 L150.6077 203.1632 L149.7413 200.543 L148.6131 196.9661 L147.9402 194.2448 L147.7223 193.6357 L147.7097 193.3013 M152.5175 282.2686 L152.7207 280.7865 L153.5959 280.4979 L154.7055 280.7932 L154.8098 281.9372 L155.2615 283.905 L155.5193 284.6549 L155.5846 284.8446 L155.6596 285.2432 L156.1713 285.6617 L157.0095 286.168 L157.7921 286.23 L158.6712 286.1968 L159.8066 286.6382 L160.0532 287.1866 L160.3846 287.9247 L160.4513 288.1277 L160.925 289.5648 L161.1253 292.2772 L160.5654 294.8074 L160.4114 294.907 L159.1858 295.6975 L158.6746 296.4777 L158.9777 297.3921 L159.0659 297.5656 L159.5372 298.4941 L160.2584 302.1963 L160.2467 304.6791 L160.1317 307.1206 L159.698 308.5967 L159.3905 309.6418 L158.4607 310.9541 L158.4812 311.1046 L158.4846 311.1283 L157.8389 311.5718 L157.7175 311.1187 L157.6561 310.8884 L157.5509 310.6493 L157.142 309.7186 L157.0967 308.7502 L157.1562 307.5332 L157.2814 306.2431 L157.6576 305.1271 L157.3253 304.6415 L156.5884 303.9602 L156.0159 303.4303 L155.8326 302.7328 L155.6738 302.0641 L155.5495 301.2109 L153.8498 292.8921 L153.0467 287.0656 L152.5175 282.2686 M153.286 246.121 L153.4672 245.6419 L153.5242 245.4906 L154.1514 245.2839 L155.6772 244.782 L156.5519 245.34 L157.2064 247.8557 L157.5723 251.7717 L157.5319 253.7072 L157.9661 256.9994 L158.0148 257.3707 L158.4105 260.3728 L158.8466 264.9906 L158.8608 265.1412 L158.7141 265.2689 L158.2195 265.6985 L158.2862 265.6896 L157.1401 265.9509 L156.4101 266.1178 L155.7941 265.4195 L154.9613 263.1696 L154.4945 261.432 L153.5593 259.3969 L153.3576 258.0786 L153.5593 256.0538 L153.6748 253.9338 L153.6558 251.035 L153.4375 248.1362 L153.286 246.121 M153.59 278.4688 L154.4287 274.4623 L154.6733 273.2931 L155.0252 270.8057 L155.0758 270.0159 L155.1728 268.5108 L155.2951 268.5093 L155.8789 268.5019 L156.0909 268.8134 L156.5548 269.4947 L157.7102 271.6257 L157.8428 272.059 L157.9661 272.4613 L157.9266 272.7211 L157.6747 274.3708 L157.1411 276.1202 L157.2059 276.687 L157.0148 277.7256 L156.8248 279.0114 L154.5354 278.7818 L153.8395 278.7117 L153.59 278.4688 M155.0627 458.2789 L155.1826 457.018 L155.4832 456.2367 L156.1138 455.2157 L157.0446 454.0448 L157.9154 453.5041 L158.756 452.7235 L159.4767 451.8832 L160.1672 451.1019 L161.2184 450.3516 L161.8192 450.5618 L162.0595 450.9521 L162.0595 451.9429 L156.8945 460.411 L156.414 460.8617 L156.1435 461.0418 L155.7532 461.0115 L155.4832 460.681 L155.513 460.2907 L155.4228 459.6599 L155.0627 458.2789 M155.5261 320.4121 L156.6245 321.0261 L156.7843 321.1021 L157.1391 321.2697 L157.7828 321.2409 L158.1844 320.6158 L159.3856 320.5095 L160.2506 321.4077 L160.3929 321.5184 L160.9391 321.942 L161.5663 322.5184 L163.4824 323.5789 L164.1525 324.3701 L164.4249 324.8579 L164.5072 325.0048 L165.1748 325.3325 L165.6032 325.5428 L166.7279 325.996 L167.3521 326.4521 L167.3648 327.1274 L166.3127 327.0395 L165.6753 326.9864 L164.3717 326.5908 L161.7539 325.962 L159.8432 325.8653 L158.1342 325.9687 L157.0256 326.1849 L156.8331 326.2225 L156.6104 326.0838 L156.3555 324.9354 L156.6138 324.6321 L156.607 324.4137 L156.5943 324.0048 L156.53 323.5384 L156.3921 323.021 L156.2673 322.976 L156.1109 322.9199 L155.8804 322.7509 L155.8438 322.4874 L155.8385 321.3575 L155.5261 320.4121 M159.4051 271.8257 L159.4699 271.1858 L159.4943 270.9429 L159.5055 270.8344 L159.6414 270.5886 L160.5829 268.9958 L160.676 268.6776 L160.924 267.8295 L161.0001 267.5697 L162.0634 266.8751 L163.154 266.7769 L163.478 266.7481 L164.4609 266.9533 L164.5077 267.008 L164.9521 267.5276 L165.1929 267.8096 L165.4078 268.874 L165.5247 269.869 L165.7791 272.0332 L165.8035 272.2384 L165.3975 273.2518 L164.8508 273.7382 L164.1125 274.3191 L163.8245 274.3125 L163.7592 274.311 L163.6846 274.4756 L163.2475 275.4647 L162.5911 275.7511 L161.9771 276.019 L161.4688 275.7747 L160.9815 274.7096 L160.4158 274.8314 L160.3651 274.8425 L160.3592 274.6122 L160.3329 273.612 L159.8666 272.7137 L159.4051 271.8257 M159.6492 254.6735 L160.0639 252.7114 L159.9124 251.5407 L159.8227 249.7779 L160.5259 249.5462 L161.1307 251.6758 L161.234 252.1165 L161.4898 252.6155 L161.637 253.6806 L161.6384 255.8243 L161.4659 256.3174 L160.9362 257.1751 L160.9313 258.0129 L160.9815 259.2995 L160.8812 259.8295 L160.6063 259.9336 L160.407 259.8959 L160.0469 259.1666 L159.7053 257.7848 L159.8407 256.8378 L159.8003 255.7711 L159.6492 254.6735 M161.1516 470.3159 L162.7013 468.8058 L165.4019 470.3971 L164.0638 472.3108 L161.1516 470.3159 M161.3928 365.4964 L163.9639 364.5969 L165.342 373.3082 L167.4442 376.6864 L168.7205 377.5424 L169.9066 378.5032 L171.4679 380.3649 L172.4737 383.9984 L169.4861 384.2087 L166.7235 383.0826 L166.453 383.8634 L162.4293 383.473 L163.1886 372.005 L163.0497 371.5992 L162.0668 371.1505 L161.3928 365.4964 M161.8353 287.1541 L161.8753 286.7194 L161.9591 286.6353 L162.2159 286.3777 L162.5775 286.2404 L162.8377 285.8492 L163.2748 286.0167 L164.7138 287.78 L166.0676 289.75 L166.6689 291.4321 L167.0666 292.6861 L167.0198 292.9437 L166.9603 293.2707 L166.9808 293.7099 L166.5364 293.6848 L165.6319 293.3275 L164.5179 293.2404 L164.0565 293.4323 L163.8664 293.8781 L163.1783 294.3778 L162.6208 293.8722 L162.8075 293.1216 L162.7188 291.3251 L162.2305 288.155 L162.2135 288.045 L161.9947 287.4398 L161.8353 287.1541 M162.1418 282.524 L162.6023 282.0627 L162.8387 281.8073 L163.0623 281.69 L163.9926 281.2043 L164.9629 280.9179 L165.6909 280.7031 L166.8692 280.2743 L168.3536 279.6779 L168.5441 279.5576 L169.183 279.1538 L170.2541 279.1841 L170.8252 278.8394 L172.0235 279.1619 L173.9776 279.7687 L175.5272 279.3797 L176.8527 279.0889 L178.6933 278.6844 L178.8901 278.6261 L178.934 278.4585 L179.2434 278.3758 L179.5422 278.6061 L180.2478 278.5965 L180.4973 279.2335 L180.8019 281.9763 L181.1167 283.6164 L180.3394 285.6742 L179.6426 286.3909 L178.6114 287.2434 L177.8142 287.4361 L176.901 287.6575 L175.3869 288.4443 L173.2802 288.9573 L169.2317 290.0748 L168.5709 290.0534 L167.9398 289.9641 L167.7181 289.64 L167.2284 289.3492 L167.0895 289.2666 L164.8366 286.0736 L164.342 285.3724 L162.9693 284.0622 L162.6876 283.7928 L162.1418 282.524 M162.1857 397.8899 L162.4123 396.9145 L162.6018 396.3832 L162.9152 395.8792 L163.3694 395.6844 L163.6091 395.8379 L163.6374 396.7558 L163.404 397.5232 L163.1549 398.0958 L162.7315 398.5164 L162.4844 398.6278 L162.2403 398.4419 L162.1857 397.8899 M162.615 350.9306 L162.9897 342.5671 L162.9941 342.4712 L163.1852 341.7745 L163.4756 341.3125 L163.6315 340.8956 L164.2475 340.4218 L164.7762 339.8461 L165.5637 339.3082 L166.5218 338.6993 L167.9379 338.2152 L168.5733 338.1266 L169.0913 339.0262 L169.0952 339.0816 L169.24 341.0742 L169.0504 342.3612 L168.9812 343.6475 L168.9997 346.1131 L168.9817 349.1322 L169.1713 351.9941 L168.8569 354.1644 L168.085 355.1289 L167.7186 356.4462 L167.8697 357.9354 L168.1806 359.1907 L168.4457 360.1168 L168.8331 360.9588 L168.6328 362.0598 L168.9671 363.4671 L169.1303 364.3157 L169.163 365.1813 L169.7102 366.807 L170.1936 367.114 L171.1955 367.1088 L174.7144 367.6608 L176.1987 367.7575 L176.6865 367.6638 L178.0876 367.3944 L179.643 366.8439 L180.5777 366.5465 L182.3286 365.5621 L182.007 365.7141 L183.0674 364.9555 L183.6516 364.4522 L183.7389 364.377 L183.7818 364.3748 L184.4084 364.3408 L185.2885 364.4271 L185.9878 364.9931 L188.0569 368.3773 L187.7572 368.5795 L187.7192 369.9381 L186.9809 370.5174 L186.7334 370.1144 L185.6389 370.2665 L184.4089 370.6443 L183.5098 371.6331 L183.1029 372.8012 L182.4353 373.3362 L180.9773 374.2882 L180.1172 374.8829 L179.3896 375.2718 L177.7133 376.0001 L177.0691 376.7521 L175.9726 376.7432 L175.1116 377.231 L174.1467 378.3231 L173.2257 379.154 L172.2155 379.917 L171.6819 380.1148 L171.7862 380.0631 L171.5133 380.0122 L170.8885 379.2034 L169.7755 378.0582 L167.6937 376.5499 L166.0842 374.0897 L165.6202 373.1481 L165.2513 371.9246 L165.0618 370.307 L164.5949 367.8896 L163.8815 362.9572 L162.615 350.9306 M167.3302 268.5108 L170.0908 268.6916 L172.8568 268.9094 L175.093 268.9588 L178.0724 274.0379 L178.9725 275.4101 L179.6382 277.4178 L179.6869 277.3764 L179.72 277.3639 L180.297 278.0267 L178.7727 278.3781 L178.6621 278.4039 L177.8965 278.2843 L176.2294 278.9663 L174.6164 279.2276 L173.3226 278.5427 L172.1984 277.4584 L170.3647 276.6597 L168.2225 275.5282 L168.0202 275.3621 L167.9194 275.2787 L167.7152 275.1104 L167.6947 274.9628 L167.7006 274.855 L167.798 272.9942 L167.799 271.6405 L167.6616 270.7222 L167.3302 268.5108 M167.9954 292.2027 L169.8281 292.6079 L170.3657 292.8699 L171.2516 292.7474 L172.081 292.6994 L173.2993 292.5644 L174.0575 292.7282 L174.7388 292.4883 L174.8221 292.4544 L175.249 292.3953 L176.7051 292.5297 L176.9214 292.399 L177.0817 292.1075 L177.3259 291.9392 L177.6168 291.8646 L177.7991 291.9746 L177.8907 292.399 L177.9638 292.5481 L178.1699 292.9659 L178.5139 293.5239 L178.7771 293.7911 L179.0973 294.1158 L180.0514 296.75 L180.2 297.5021 L180.4637 298.7214 L180.4944 299.5746 L180.6381 299.74 L181.2326 300.4242 L181.4973 299.1628 L181.6279 298.5399 L181.431 298.207 L180.9393 297.3759 L181.1854 296.8327 L181.7058 296.6172 L184.2725 296.4518 L184.2013 297.0984 L184.2116 297.2194 L184.2856 298.0977 L184.232 298.4565 L184.1706 298.8646 L183.695 299.1443 L183.523 299.1776 L182.5757 299.3599 L182.3754 300.9622 L183.2613 301.2346 L183.8797 301.1157 L184.1609 300.853 L184.3353 300.6906 L184.8499 300.4987 L185.0005 300.96 L185.1618 301.4538 L185.4576 301.5335 L186.1959 301.7328 L186.4415 301.0419 L186.4118 299.6662 L186.0887 298.4845 L185.8801 297.6276 L185.7656 297.156 L185.6647 296.3256 L187.0073 296.1802 L188.3093 295.6916 L188.6193 294.566 L188.0866 291.7495 L187.7558 290.4615 L187.7626 290.3826 L187.8211 289.6755 L187.9712 289.2592 L188.5145 289.0835 L188.8966 289.2385 L189.0993 289.5456 L189.398 289.7928 L189.5398 290.5811 L189.8775 291.5768 L190.1402 292.7843 L190.4959 293.8804 L191.1932 297.4837 L192.316 302.4937 L192.4042 303.0428 L192.5489 303.9418 L192.6206 304.7057 L192.4403 305.4091 L192.3647 306.3648 L192.0451 306.4689 L191.7502 306.6697 L191.6606 306.7302 L191.2488 306.8475 L190.798 307.0638 L190.0525 307.1339 L187.0019 306.7125 L186.7193 306.5523 L186.0892 306.1958 L185.7534 305.164 L185.213 304.8297 L185.2232 305.6792 L185.039 306.5139 L184.9927 306.7228 L184.2774 307.2978 L182.9475 307.7295 L180.2907 307.3073 L179.5032 306.539 L179.3838 306.3826 L178.533 305.2666 L178.1636 304.4739 L178.0632 303.6503 L178.6616 303.386 L178.8716 303.3809 L179.6538 303.3624 L178.897 302.865 L178.6441 302.8782 L177.2655 302.9498 L176.5301 302.7033 L176.65 303.2362 L176.9463 303.9794 L177.7001 304.9397 L178.2747 306.153 L178.9579 307.9244 L179.1163 308.3347 L179.3882 309.8714 L178.9569 310.2323 L178.474 310.4603 L178.0515 310.526 L177.7065 310.2035 L176.4965 309.4883 L176.3279 309.2536 L175.9015 308.6595 L175.5116 307.9162 L175.3552 307.1679 L174.8508 307.2911 L174.8148 307.852 L174.4318 308.0794 L173.694 308.2476 L172.8582 308.438 L172.3929 307.8262 L172.3972 307.7517 L172.4328 307.1442 L172.9313 306.3516 L172.9036 305.9036 L172.8831 305.5677 L173.3183 304.9441 L173.4274 304.2791 L173.7568 304.0525 L173.6111 302.5587 L173.08 300.8367 L173.2778 300.481 L174.6174 301.4279 L175.6052 302.5837 L176.0223 302.4125 L176.0491 302.0265 L175.6188 301.3763 L172.8392 299.0417 L170.9953 297.0526 L169.813 295.0237 L168.8428 293.3578 L167.9954 292.2027 M169.182 326.1118 L169.3184 325.6705 L169.2585 325.2343 L169.8515 324.9133 L170.8184 323.6402 L171.7725 322.8586 L173.078 322.6372 L173.5064 322.2564 L174.3328 322.0475 L175.7397 320.9619 L176.4595 320.2726 L178.2961 319.5427 L178.8658 319.6039 L179.4603 319.2201 L179.8282 318.8342 L180.5723 318.1751 L180.9802 317.9847 L181.4709 318.1042 L181.9587 318.2976 L182.6873 318.3507 L183.4036 318.0238 L183.6775 317.8164 L184.0205 317.5566 L184.3271 317.0186 L184.445 316.4658 L184.3777 315.9794 L184.1102 315.5314 L183.7618 314.9816 L184.4503 314.5262 L184.4771 314.4952 L184.5717 314.4657 L185.0541 314.3144 L186.0253 313.8288 L186.8923 313.8243 L187.5111 313.7048 L188.1393 313.6516 L188.6212 313.7527 L189.4584 314.0066 L190.647 314.2133 L190.7664 313.4767 L190.7357 313.0213 L190.2976 312.9224 L189.5929 312.9121 L188.9219 312.5497 L187.4873 312.0781 L186.8187 311.9158 L186.21 311.7342 L186.1179 311.2028 L186.0458 311.0581 L185.8509 310.667 L185.9566 310.2802 L186.0292 309.4462 L186.9537 308.4476 L187.4522 308.5259 L187.6963 308.2107 L188.7021 308.7746 L189.5461 309.6625 L190.2971 309.7326 L191.087 309.5496 L192.1557 309.8905 L193.8632 310.8397 L196.1355 312.2132 L196.5956 312.4914 L196.9269 313.7055 L196.8821 313.7646 L196.6579 314.062 L194.9582 313.8435 L194.1181 313.6118 L193.7389 313.7099 L193.1249 313.8694 L192.6781 313.8457 L192.1825 313.8192 L191.222 313.5889 L190.9603 314.4716 L191.3482 314.62 L191.5251 314.9314 L191.7619 315.437 L192.5738 316.2326 L192.8535 316.3691 L192.8964 316.3898 L193.2044 316.6835 L193.4456 317.2223 L193.4402 317.4245 L193.3077 317.6784 L192.9549 317.8245 L192.3272 318.0836 L191.8906 318.3124 L191.5714 318.4238 L191.0612 318.3596 L190.2147 318.04 L189.495 317.6688 L189.167 317.7138 L188.918 317.8496 L188.8093 318.0326 L188.7893 318.3721 L188.9195 318.6954 L190.4915 319.4327 L190.8297 319.5139 L191.1182 319.6681 L191.3735 319.874 L191.5465 320.0645 L191.5972 320.2851 L191.9213 320.4076 L192.3789 321.2335 L192.5699 321.5767 L192.9534 322.6631 L193.4821 323.8823 L194.1619 325.5753 L194.2618 326.2993 L194.2589 327.0048 L194.0645 327.5347 L193.7955 328.103 L193.6722 328.3274 L192.5139 329.5569 L189.6553 330.1407 L188.5038 330.6078 L187.439 330.8292 L185.5916 331.3333 L182.947 331.5244 L180.5212 331.8617 L178.5544 331.8868 L176.8566 331.6868 L175.9297 331.1363 L174.5434 330.3126 L170.2 327.1495 L169.7521 326.6624 L169.3959 326.4034 L169.3121 326.289 L169.182 326.1118 M172.3704 382.1057 L172.5546 381.5043 L173.1735 381.1501 L173.598 380.6896 L174.0361 380.0838 L174.6715 379.3584 L176.9682 377.8331 L178.2864 377.5882 L178.7103 377.1358 L181.4709 376.5514 L182.6073 376.668 L183.6682 376.2474 L185.5361 375.5316 L186.9054 375.6304 L187.402 375.6954 L189.9126 376.4658 L189.9945 376.7226 L189.9019 377.0937 L189.9345 377.8361 L189.6202 378.8507 L189.4974 381.6946 L189.32 383.7881 L189.6426 384.9178 L189.877 385.8911 L190.2289 386.7478 L190.4915 387.6842 L190.7318 388.4561 L190.8468 389.4042 L191.2098 390.5864 L191.2668 391.4829 L191.6089 392.1721 L191.7692 393.0753 L191.7 393.7888 L191.3882 393.9644 L191.2142 394.3031 L190.8053 394.5813 L189.4769 394.9259 L188.4473 394.9148 L187.3416 394.7931 L186.4771 394.672 L185.501 394.1585 L184.8158 393.7165 L183.8013 392.7985 L181.9539 391.508 L180.6425 390.6727 L178.8979 390.1694 L177.992 389.7525 L177.2737 389.5777 L176.5569 389.1593 L175.8869 388.5778 L175.1559 387.8281 L174.366 385.9752 L173.5341 384.4426 L173.2666 384.0043 L172.7929 383.186 L172.4791 382.6532 L172.3704 382.1057 M172.8022 167.2943 L172.8465 165.097 L173.2885 163.8891 L173.3426 163.4594 L173.6667 162.4161 L174.2305 160.4359 L174.4566 160.1353 L174.7529 159.8784 L174.9649 159.6946 L176.2095 159.7713 L176.8985 159.5351 L177.7825 159.6946 L178.6197 159.7603 L178.8867 159.7566 L179.2298 159.5749 L180.0392 158.4696 L180.3818 157.4965 L180.5797 157.2336 L180.8564 157.0608 L181.6069 156.9228 L182.3374 157.1251 L183.7959 157.9993 L185.1618 159.0633 L186.3421 159.9825 L189.3176 162.1481 L190.3229 163.023 L190.8609 163.5317 L190.7951 164.2177 L189.417 168.6964 L188.5871 170.066 L188.5525 170.5939 L188.4395 171.0318 L188.1227 171.2562 L187.6651 171.2798 L186.9819 171.4142 L186.0088 171.7236 L184.8972 171.5626 L184.0137 171.5043 L183.0142 171.7871 L182.8905 171.8225 L178.1295 170.766 L177.3853 170.4647 L175.5394 169.513 L173.2471 168.3464 L173.1584 168.1907 L172.8022 167.2943 M182.0996 116.4727 L182.236 116.0665 L182.2843 115.7918 L182.3374 115.4898 L182.3028 115.0453 L182.8203 114.6783 L183.1215 114.1769 L184.1848 113.1549 L184.5351 112.2983 L185.156 111.647 L186.0765 110.8088 L186.2782 109.9072 L186.6593 109.7935 L186.6959 109.7824 L188.0969 111.695 L189.2893 112.9776 L191.8574 113.9812 L192.8023 115.7305 L194.023 117.5471 L194.2867 118.1039 L194.9869 120.4262 L195.0269 122.1697 L194.3281 125.1019 L193.7545 126.18 L193.1313 125.7303 L191.8175 124.3443 L190.5695 123.2906 L189.9106 122.5972 L188.4244 121.5878 L185.3012 119.7993 L184.8387 119.3585 L184.2325 118.6008 L182.6877 117.0981 L182.0996 116.4727 M187.7865 129.7687 L187.9024 129.7156 L189.012 129.2038 L190.8692 128.6648 L192.6927 127.8828 L193.604 127.6089 L195.0747 128.0482 L195.6302 128.3938 L195.9903 128.5422 L196.5049 128.7549 L197.5029 129.9297 L197.6935 130.42 L198.3045 132.9158 L198.4858 133.2599 L198.4766 133.5826 L198.4975 133.734 L198.4746 133.8447 L198.4171 134.1202 L198.1525 134.8881 L197.9547 135.151 L197.7987 135.4759 L197.577 135.8089 L197.2291 136.0644 L195.6317 137.1181 L194.4494 137.773 L193.4797 138.2028 L193.3525 138.2382 L192.106 138.5867 L191.8423 138.8584 L191.645 138.9057 L191.4008 139.0741 L191.1431 138.9485 L190.7264 139.0135 L190.2903 138.4841 L189.7864 138.504 L189.3527 138.0255 L189.301 137.9916 L188.9112 137.7368 L188.4185 136.4889 L188.151 135.8111 L188.5028 133.6107 L188.7158 131.6642 L188.2631 130.6039 L187.7865 129.7687 M187.8717 159.0064 L188.7538 156.747 L189.2494 154.7594 L190.1036 151.0063 L190.2981 150.4747 L190.6226 150.1608 L190.8526 150.1291 L190.7946 150.5854 L190.9618 150.9214 L190.34 153.9797 L190.4516 155.0296 L190.5734 155.3346 L190.7922 155.2238 L190.9481 154.7062 L191.316 153.0132 L191.9374 149.5074 L191.9564 148.6789 L191.8872 148.4198 L191.6118 148.1215 L191.5573 147.725 L191.6576 147.2398 L191.5397 146.0991 L191.1772 145.9883 L190.5466 145.004 L190.5013 144.674 L190.5914 144.3587 L190.742 144.2369 L191.1304 144.3373 L191.3726 144.3993 L191.664 145.1569 L191.9627 144.5588 L192.3394 144.4266 L192.5319 144.3587 L193.4661 144.8468 L193.8769 145.168 L193.9826 145.2507 L193.3774 149.6381 L193.5762 149.5768 L194.1415 145.484 L194.3827 145.4124 L194.6039 145.3459 L195.4967 145.6176 L195.9523 145.6346 L196.0668 146.2246 L196.0142 146.5687 L196.0415 147.2915 L196.0254 147.8564 L195.9357 148.6597 L195.1492 151.5837 L195.0751 151.7786 L194.3515 153.6851 L194.35 155.1935 L195.6034 156.434 L195.2481 158.1248 L195.7959 159.0116 L195.7783 159.3881 L195.7676 159.6148 L195.8612 159.586 L196.0931 159.5151 L197.499 159.0396 L197.9576 159.2641 L198.4498 160.1678 L197.9668 161.1727 L197.4693 162.0263 L196.4567 162.4346 L195.2715 162.8067 L194.0854 162.4412 L193.5192 162.4058 L193.162 162.7661 L192.7965 162.7831 L192.5485 162.6826 L192.3852 162.4693 L192.3253 162.2758 L192.2843 161.979 L192.1776 161.6903 L191.9442 161.2096 L191.5027 161.11 L191.3336 161.8749 L191.1445 162.2042 L190.7883 162.2869 L190.5027 162.1584 L189.4389 161.2621 L189.1763 160.3738 L188.4916 159.7713 L187.9327 159.4472 L187.8717 159.0064 M197.654 164.0449 L198.9195 163.7222 L199.4907 163.308 L199.9395 163.1249 L200.1992 163.1079 L200.186 163.2083 L201.8526 163.0703 L203.2273 162.8621 L203.9515 162.7794 L204.4339 162.6782 L205.104 162.3895 L205.9202 162.3969 L206.1556 162.4294 L206.7925 162.5173 L206.9772 162.8872 L207.8904 163.1161 L208.5239 162.7395 L209.192 163.0563 L210.3421 163.5465 L211.3479 163.9105 L212.3819 164.7722 L212.8371 165.3126 L213.6548 166.1041 L213.8346 166.8166 L213.5339 167.0603 L209.5244 167.8178 L208.1501 168.0415 L207.0396 167.9935 L206.1454 167.8141 L205.2682 167.7565 L204.8291 167.7277 L203.3896 167.7203 L203.0992 167.772 L202.5456 167.6089 L202.0208 167.6472 L201.3663 167.8222 L201.1256 167.8244 L201.1382 167.6664 L201.1475 167.2707 L201.1168 167.126 L199.8557 164.939 L198.0536 164.7131 L197.654 164.0449 M199.0092 214.2931 L199.0116 213.5821 L199.4639 213.5194 L200.0452 213.1311 L200.7002 212.9399 L201.4146 212.6933 L201.53 212.6291 L202.2839 212.2134 L204.0704 211.831 L206.4933 211.6974 L208.3538 211.6081 L209.366 211.6701 L210.6856 212.0252 L211.2665 212.113 L212.2177 211.9816 L214.2703 210.8558 L216.2049 209.8473 L217.6556 209.2095 L219.0946 208.9762 L219.7276 208.9563 L220.1433 209.098 L220.2188 209.1239 L220.579 209.3092 L220.6813 209.4029 L220.77 209.4849 L220.905 209.7351 L221.0117 210.023 L221.116 210.7827 L221.0268 210.8624 L220.8241 211.092 L220.5336 211.1659 L220.2369 211.188 L220.0039 211.2057 L219.4031 211.4575 L219.2944 211.6405 L218.3939 216.2745 L217.7233 218.6893 L217.3033 220.4972 L217.2019 221.2177 L217.2102 221.5189 L216.893 221.6998 L216.6946 221.908 L216.2731 222.1944 L215.4988 222.9341 L214.9306 223.1807 L212.8303 223.4715 L211.7665 223.518 L211.1295 223.5055 L209.4488 223.1999 L207.7749 223.4317 L204.0402 224.0901 L203.5957 223.8229 L203.3141 222.8433 L202.9237 220.5031 L202.6158 218.0226 L202.51 217.4985 L202.32 216.8902 L202.069 216.3756 L201.9813 216.2738 L201.8794 216.0663 L201.706 215.8759 L201.436 215.647 L201.3731 215.5938 L200.5579 215.7873 L199.7621 216.0715 L199.4478 215.633 L199.0092 214.2931 M201.6066 109.3725 L201.6684 109.0941 L201.838 108.8689 L203.7205 108.0891 L205.5094 107.3455 L206.4948 106.7311 L206.9567 106.4431 L207.4747 105.8331 L208.9449 103.6118 L211.0672 100.0938 L211.5623 98.6205 L212.3186 97.5808 L213.2347 97.2462 L213.1153 96.5255 L212.5233 95.8165 L212.6953 95.256 L213.3712 93.0517 L213.5885 92.6854 L213.8146 92.3841 L214.1348 92.037 L214.5207 91.6811 L214.9398 91.6678 L215.5777 91.3982 L215.9914 91.0526 L216.371 90.7845 L216.6742 91.0112 L217.0031 91.0733 L217.2989 91.3738 L217.2921 91.3953 L216.6839 93.2998 L216.5791 93.7518 L216.5601 94.8314 L216.7624 95.8136 L216.7204 96.106 L216.6751 97.3792 L216.6781 98.5659 L217.3393 101.1823 L217.8456 103.4383 L218.0605 104.755 L218.4938 106.4453 L220.2335 110.5917 L222.1725 115.6921 L222.3581 116.0702 L222.4229 116.2969 L222.4595 116.5613 L222.2787 117.1919 L222.2612 118.0359 L222.1422 118.3889 L221.959 118.5152 L218.6351 119.8842 L215.1981 121.4039 L214.3716 121.7207 L213.8502 122.0619 L213.2255 122.3838 L212.4404 122.9974 L212.1768 123.2699 L209.1667 124.7298 L206.4616 125.9799 L206.3023 126.0353 L205.9748 125.8455 L205.4563 124.7202 L205.0694 122.6725 L204.6922 122.1187 L204.662 121.5258 L204.2731 117.779 L203.8511 116.1965 L202.5164 112.5781 L201.6835 109.9338 L201.6066 109.3725 M201.8911 237.2532 L201.9248 236.2839 L203.1489 235.2763 L203.9164 235.4062 L203.9763 235.4165 L204.0748 235.3361 L204.5533 234.9478 L205.2316 234.8267 L205.9772 234.9411 L206.6307 235.1641 L207.4884 235.2047 L208.4956 235.5339 L208.9352 235.7399 L209.3436 236.4434 L210.0502 237.3742 L210.538 238.5745 L211.6276 239.4021 L212.6022 239.7365 L212.6368 240.2805 L212.6037 240.9619 L212.6251 241.4867 L212.6397 242.4847 L212.0374 245.0182 L211.1788 247.5081 L210.2183 250.0304 L209.98 250.4851 L209.3314 250.8955 L209.1457 250.5183 L209.1335 250.4312 L209.0975 250.1677 L208.7754 249.7647 L208.3962 249.5011 L208.1847 249.3542 L207.8051 249.183 L207.2447 248.9925 L206.9226 248.5895 L204.2205 244.8034 L202.8765 242.7977 L202.7893 242.4323 L202.4925 240.9892 L202.3731 239.7328 L202.1821 238.5398 L201.8911 237.2532 M202.8243 316.2237 L202.877 315.9381 L202.934 315.8466 L203.0656 315.6348 L203.1011 315.1071 L203.5392 314.8451 L204.1942 314.5033 L204.9539 314.1063 L205.6595 313.2184 L206.2175 312.2235 L208.3202 309.9828 L208.6399 309.7333 L209.4059 309.1355 L210.7504 308.8086 L212.457 309.0278 L214.7985 310.4116 L216.0621 311.1009 L216.8574 311.1984 L219.4416 313.2317 L220.5132 314.417 L221.634 315.8628 L222.7221 315.7123 L223.8196 315.3063 L224.245 315.6178 L226.0003 317.0599 L226.6859 317.9633 L227.2156 318.9958 L228.1108 321.5014 L228.2604 323.6742 L228.6853 323.6557 L228.6693 326.0624 L228.8052 328.7503 L228.7463 329.1466 L228.9275 331.075 L228.8457 331.1968 L228.5109 331.6949 L228.4095 332.4152 L227.9061 332.8883 L227.4651 333.0839 L226.817 333.1318 L226.7537 333.1045 L226.3126 332.9141 L225.7274 332.2514 L225.0992 331.2794 L224.6772 330.4469 L223.7275 329.0314 L222.9083 327.5436 L222.2573 326.5488 L221.4415 324.8934 L221.0171 324.3354 L220.6345 323.4978 L220.3031 323.1752 L220.2125 322.6653 L219.1994 321.128 L218.1434 319.7626 L217.8637 320.1567 L217.5961 320.7361 L217.6429 321.7545 L217.9572 322.5442 L217.7647 322.6048 L217.3851 323.2306 L217.4704 323.5051 L217.4558 323.5192 L217.7116 323.9207 L218.1268 324.1996 L218.3349 324.2579 L218.5191 324.2395 L218.9323 324.4498 L219.811 325.3266 L220.1219 325.6919 L220.5039 326.4299 L222.3552 328.6189 L222.9219 330.0676 L223.6154 331.03 L223.6393 331.6898 L222.8947 332.0543 L222.4751 332.3532 L222.0886 332.3599 L221.5048 332.4875 L220.5395 332.9695 L220.1448 333.0743 L219.3339 333.1872 L218.793 332.9237 L218.0513 332.8256 L217.5279 332.3687 L217.3671 331.9289 L217.4266 330.661 L217.2945 329.8019 L216.5241 329.2521 L215.6016 328.6632 L214.7454 327.83 L213.9564 327.5311 L212.2762 327.9163 L211.4414 328.1082 L210.8854 326.4285 L210.0253 324.1096 L209.1506 322.804 L208.7417 321.7752 L208.2822 320.7671 L208.3499 320.6084 L208.5395 320.1619 L210.0097 320.1656 L210.5959 320.2991 L211.0599 320.3685 L211.7655 320.5457 L212.3615 320.7043 L213.2752 321.4217 L213.7659 321.1058 L214.512 320.5065 L214.835 321.1051 L216.3696 322.1118 L216.604 321.8247 L214.7478 320.2202 L214.4087 319.8408 L214.1051 319.5796 L212.3181 318.288 L211.2548 317.9256 L210.5399 317.747 L209.4566 317.5736 L205.9611 317.9788 L205.332 318.0518 L203.9997 317.4031 L202.9008 316.4444 L202.8243 316.2237 M205.5036 160.8065 L205.5986 160.5245 L206.832 158.4785 L207.7082 156.9006 L207.8651 156.3402 L208.3192 154.292 L208.3704 153.4613 L208.8095 151.549 L208.8251 151.5246 L208.9747 151.2905 L209.3129 151.0757 L210.1993 150.9531 L211.843 151.3319 L215.0027 152.0599 L217.3993 153.0191 L218.4294 153.1239 L219.4279 152.9991 L220.6394 153.0124 L221.8669 153.1438 L223.0145 153.5684 L223.9745 153.9848 L224.7791 154.0712 L225.9462 154.5231 L226.7541 154.9071 L227.0602 155.528 L227.1401 156.1069 L227.2263 156.4436 L228.0299 156.5492 L229.9226 156.6909 L230.2681 157.0136 L230.2998 157.2447 L229.5742 160.1996 L229.2155 162.0122 L228.39 164.2642 L228.1532 165.9483 L227.8944 166.254 L227.1396 166.2001 L225.3624 166.2518 L222.3688 166.1573 L220.0994 165.8346 L219.3865 165.9469 L218.7262 165.7637 L217.5191 164.8585 L216.0962 164.5189 L213.5695 163.6425 L213.0018 163.5 L210.4551 162.2743 L209.0887 161.8247 L208.096 161.6593 L206.6336 161.4599 L206.3364 161.3743 L205.7594 161.2089 L205.5728 161.0664 L205.5309 161.0051 L205.5036 160.8065 M205.5815 142.5179 L205.7589 141.8312 L206.1907 141.4258 L206.5591 141.0803 L206.8027 140.2237 L207.1385 139.7489 L207.6492 139.2808 L208.2919 139.1464 L209.0712 138.8843 L210.536 138.7019 L212.2567 139.3074 L212.8 139.6146 L214.1596 140.1624 L216.4271 141.2036 L218.2925 142.4847 L219.0137 143.4387 L219.1843 143.8507 L219.2506 144.0899 L219.2598 144.3498 L219.0001 144.7943 L218.64 145.1392 L218.4782 146.2615 L218.2087 147.2967 L218.1687 148.2677 L218.1707 149.7887 L217.9295 150.3181 L217.1152 149.9349 L215.9291 149.04 L209.9278 146.3191 L208.2388 145.2662 L207.7345 144.6127 L207.235 144.1859 L206.0927 143.3183 L205.717 142.8679 L205.623 142.625 L205.5815 142.5179 M206.7579 176.8025 L207.0746 175.224 L207.2267 174.4664 L207.7013 172.7941 L207.9742 171.9849 L209.2763 171.3551 L211.9473 169.5071 L214.2888 168.5185 L215.5509 168.0651 L216.1976 167.7063 L216.4237 167.5808 L216.8939 167.4294 L219.6804 167.6834 L217.4227 176.0656 L217.1926 176.578 L216.3311 179.7816 L214.0568 179.0898 L212.3079 178.7967 L211.2061 178.3928 L210.2032 177.9314 L208.9576 178.0399 L207.7788 177.3887 L207.2004 177.3186 L206.9533 177.289 L206.7579 176.8025 M215.8067 273.891 L216.0528 273.2511 L216.5923 272.0664 L216.6834 271.5157 L216.5816 271.2603 L217.468 269.6896 L218.5849 268.0472 L219.1984 267.1969 L220.0312 266.4425 L220.4337 265.9664 L220.4601 265.779 L220.4674 265.7258 L220.3124 264.6791 L219.3256 262.6581 L218.1278 261.6055 L217.2999 260.206 L217.2565 259.9948 L217.199 259.7158 L217.1951 259.4471 L217.5177 259.1836 L217.8086 258.4801 L217.9412 258.086 L219.2325 256.2708 L219.4577 256.2066 L219.5371 256.2967 L220.7013 258.334 L223.2514 263.1165 L225.1324 265.8506 L225.9715 266.8441 L226.0578 267.4715 L226.0183 267.9144 L226.0602 268.7027 L226.166 268.823 L226.3775 269.0629 L227.7507 270.3672 L228.2624 270.8536 L228.776 271.2729 L228.8272 271.3142 L228.9246 271.5357 L228.1171 272.3417 L224.6694 276.0958 L223.7587 277.9706 L222.6486 279.6587 L221.0273 282.9078 L220.211 284.2652 L219.9567 284.6387 L219.9328 284.6741 L219.6604 284.8801 L219.4026 284.9494 L218.889 284.6387 L218.0893 284.1552 L217.9494 283.95 L217.9217 283.9094 L217.8661 283.7493 L217.8115 283.3529 L218.9289 281.752 L219.597 280.3488 L220.2291 279.1162 L220.4674 278.8718 L222.2017 277.0937 L221.8913 276.4405 L221.9098 276.0559 L221.9381 275.4691 L222.6754 274.235 L224.3814 271.8117 L225.0305 270.6957 L225.0495 270.5923 L224.667 269.8653 L223.7674 269.3013 L223.5993 269.1958 L223.0253 269.1478 L222.5228 269.432 L221.9824 270.1162 L221.402 271.2995 L220.2145 272.8768 L219.367 273.922 L218.8524 274.4557 L218.5074 274.6173 L218.1258 274.7576 L217.1732 274.4623 L216.5416 274.2667 L215.9598 274.2734 L215.8296 274.0556 L215.8067 273.891 M217.4266 176.0649 L219.6877 167.6827 L219.7106 167.5985 L220.3441 167.7233 L224.7211 168.63 L226.9598 168.8589 L227.6293 168.974 L227.2332 171.9118 L226.7517 172.0241 L224.7079 173.8817 L223.669 174.1933 L223.3732 174.8747 L222.3708 175.8545 L221.9342 175.8611 L221.5999 176.1018 L221.0234 176.0405 L218.7852 175.8951 L217.584 175.8604 L217.4266 176.0649 M218.0469 131.3209 L218.2418 131.1326 L218.3656 131.0617 L218.6536 130.7744 L218.983 130.5943 L219.0449 130.3203 L219.6877 130.1305 L220.1716 129.7606 L221.5409 128.5275 L223.033 126.9746 L223.9277 125.9423 L224.1066 125.7828 L224.2138 125.7451 L224.2659 125.7266 L224.4769 125.799 L224.5876 126.1121 L224.8449 126.3779 L225.1173 126.6083 L225.225 127.0019 L225.647 127.2522 L226.5919 128.7704 L227.3984 129.7695 L227.4076 129.8359 L227.2663 130.0235 L226.5928 130.3853 L226.1221 130.7523 L225.9437 131.3511 L225.5515 132.1457 L225.281 132.856 L225.1952 133.2045 L224.9881 133.4017 L224.418 134.1202 L224.3098 134.3033 L224.2947 134.4399 L224.416 134.5913 L225.57 135.4412 L225.6211 135.5689 L225.6158 135.772 L225.4077 136.2039 L225.3171 136.52 L224.8176 137.6202 L224.6085 137.7464 L224.2284 137.9 L224.0598 137.8897 L221.2471 135.9233 L220.0327 134.88 L219.6784 134.4916 L219.6092 134.2317 L219.5498 133.8026 L219.3924 133.3869 L218.6936 132.4403 L218.2379 131.6613 L218.0469 131.3209 M218.0752 97.7418 L218.1907 95.6917 L218.544 91.9403 L218.4977 90.6339 L222.1934 91.3797 L221.8864 91.7342 L221.7256 92.0252 L221.6116 92.4114 L221.48 93.6846 L221.1374 94.7997 L220.6292 96.6296 L220.3217 97.312 L220.0561 98.0556 L220.0351 98.6301 L220.3387 101.0789 L221.1306 104.4027 L221.8747 106.8913 L223.034 109.7779 L223.6207 112.7871 L223.6432 115.1398 L223.4877 115.4994 L223.2099 115.6375 L222.5097 113.9509 L221.3338 110.1472 L219.33 106.175 L218.5786 102.6393 L218.4991 100.3611 L218.4294 99.1257 L218.0752 97.7418 M223.8868 122.3816 L223.9721 121.7864 L224.7903 120.3805 L225.6543 120.0821 L225.8882 120.0016 L226.2093 120.1323 L226.5821 120.2845 L226.8589 121.206 L227.0923 121.8773 L227.565 123.0521 L228.2799 124.3406 L228.9573 125.6676 L229.3023 126.945 L229.3432 127.4833 L229.3218 128.0704 L229.9816 128.6331 L230.6 129.051 L231.5965 129.4977 L232.1219 129.6735 L232.614 129.9002 L233.5117 130.1579 L234.0326 130.4473 L234.3411 130.5522 L234.6242 130.7139 L236.1875 130.9531 L239.4788 131.2677 L240.3286 131.2707 L240.2721 131.8355 L239.7453 132.0895 L238.6747 132.0652 L237.8219 132.0009 L237.567 131.8953 L236.8195 131.9515 L236.0822 131.8924 L234.4726 131.583 L233.7816 131.5254 L232.9347 131.1931 L232.251 130.8512 L231.9338 130.9421 L232.3368 131.3002 L233.4079 131.6362 L234.0277 131.775 L234.6247 132.0275 L235.0935 132.0364 L235.8693 132.1368 L236.9228 132.1774 L237.4135 132.2904 L237.7586 132.6101 L237.5505 133.0369 L237.1553 133.031 L236.3834 132.7962 L235.5554 132.6441 L233.5238 132.3812 L233.3221 131.9552 L233.1496 131.8134 L232.6706 131.8444 L232.2164 131.6236 L231.8309 131.3932 L231.5824 131.298 L231.0361 131.1813 L230.6531 130.883 L229.9757 130.5404 L229.7925 130.2812 L229.5235 130.1217 L229.5147 130.1992 L228.9821 129.7532 L228.641 129.096 L228.1352 128.8716 L227.392 128.2771 L225.5422 126.2007 L225.0486 125.6255 L224.4282 124.5651 L224.2011 124.221 L223.9297 123.2197 L223.8868 122.3816 M225.4847 137.8823 L225.7863 137.4245 L226.337 136.9349 L226.8701 136.3324 L227.1947 136.1663 L227.9334 136.1419 L230.4387 136.8168 L234.1983 138.106 L234.9731 138.1961 L235.5574 138.5528 L235.5023 138.8437 L235.5247 139.1014 L235.3946 139.4684 L234.0287 140.8573 L233.6164 141.1622 L233.3621 141.3136 L232.8889 141.2782 L231.7544 141.301 L231.1082 141.222 L229.0635 140.2245 L226.7273 138.7994 L226.185 138.5048 L225.9096 138.2057 L225.4847 137.8823 M227.2366 171.9118 L227.6357 168.974 L229.1035 169.1586 L230.2559 169.9575 L231.0371 170.097 L231.348 170.6065 L231.1263 170.9402 L230.6658 171.24 L230.1024 171.5198 L228.8598 171.7258 L228.2551 171.7081 L227.894 171.7583 L227.2366 171.9118 M227.3399 303.3344 L227.6766 302.4516 L228.5859 301.6021 L229.4158 299.9274 L229.947 299.0484 L231.2237 297.3575 L231.827 296.8991 L232.5063 295.465 L233.3245 294.4229 L234.1837 291.4565 L234.5223 290.2866 L234.7655 289.66 L236.0613 286.3216 L236.5578 285.0417 L237.5432 283.9833 L239.4354 281.8073 L240.2677 279.6358 L240.6717 280.0049 L241.7248 281.4899 L242.1599 283.6275 L242.1823 285.3266 L241.3617 287.0707 L240.3905 289.2614 L239.4446 292.0994 L235.4161 299.4233 L234.4039 300.7253 L231.5405 303.0362 L230.3636 302.7033 L229.3759 304.2577 L228.1985 303.9248 L227.3399 303.3344 M229.2092 165.4965 L229.2204 165.0911 L229.6439 162.7439 L230.6687 160.5496 L231.5688 158.3382 L231.848 157.6936 L232.0707 157.1243 L232.6228 156.5676 L233.4079 155.8625 L234.3396 155.3981 L235.379 154.7919 L235.5554 154.4256 L235.7879 154.2189 L236.0744 154.213 L236.7255 154.4781 L237.6109 155.3272 L238.0344 156.4672 L238.1616 157.3916 L238.2191 159.2685 L237.9442 162.1333 L237.6167 165.3422 L237.4233 166.1034 L237.4657 166.6756 L237.339 166.7265 L236.9496 166.8144 L236.0106 166.7612 L235.8312 166.4644 L235.5252 164.8851 L234.7782 164.6998 L234.1276 165.8021 L233.114 165.7682 L232.192 165.574 L231.2652 165.7357 L230.6921 166.065 L229.6093 166.2149 L229.4597 166.1012 L229.2594 165.8597 L229.2092 165.4965 M230.004 134.5477 L230.0469 134.1526 L230.9752 134.1408 L232.1048 134.7426 L232.8562 134.8526 L234.131 135.1037 L235.2348 135.3784 L235.7752 135.3621 L237.2142 135.3961 L237.2737 136.5347 L239.3862 136.534 L239.1147 137.0959 L238.5767 137.6947 L238.0339 138.8201 L237.7571 138.9168 L236.7065 138.1872 L236.0578 137.5581 L235.3186 137.1166 L234.8035 137.0324 L234.1944 137.2524 L233.0399 136.1877 L232.6672 135.7343 L232.1141 135.6553 L231.3899 135.464 L230.848 135.1894 L230.5045 134.9449 L230.1336 134.7825 L230.004 134.5477 M230.4923 247.2165 L230.6497 246.9522 L232.6676 247.2061 L232.7641 246.8533 L232.155 246.6466 L231.5054 246.4938 L231.0927 246.3085 L231.2042 245.8125 L231.2111 245.7815 L235.0472 247.4793 L235.3936 247.6882 L237.454 248.929 L240.0236 250.5921 L246.2816 253.9678 L248.4067 255.1503 L251.4651 256.8754 L253.3081 257.9871 L254.3875 258.5953 L254.2301 258.9718 L253.7428 259.9771 L253.371 260.4318 L253.2813 260.5115 L253.0026 260.1941 L252.7189 259.8708 L250.4958 258.1819 L247.648 256.7602 L246.3523 255.8656 L246.1125 255.7002 L244.2641 255.4175 L243.8334 255.3518 L243.6092 255.3577 L243.0108 255.3725 L239.8764 253.2495 L239.1406 252.7845 L237.1514 251.5953 L234.6568 249.9898 L233.6276 249.5602 L233.4088 249.5011 L232.9678 249.3823 L232.2276 249.3498 L231.734 249.1468 L231.1794 247.9938 L230.7886 247.6114 L230.4923 247.2165 M235.746 301.7453 L236.2031 301.0161 L237.1406 300.0632 L239.8077 295.2982 L241.197 292.5533 L241.9124 290.8601 L243.0366 289.4651 L243.9678 288.4178 L245.67 287.0412 L245.7436 286.6109 L245.902 286.1607 L245.9795 285.7547 L245.7694 285.4417 L245.459 285.4181 L245.077 285.6514 L244.517 285.8543 L243.4635 286.8397 L243.1112 286.3186 L242.9737 285.4299 L244.0561 283.922 L244.4591 283.3802 L244.5395 283.5138 L245.2846 284.7553 L245.2831 284.7811 L245.9897 285.1052 L246.4468 285.3148 L247.2591 286.684 L247.9599 287.8657 L249.8809 290.9258 L256.3811 298.6055 L256.0034 299.1318 L255.1945 300.2588 L253.7199 301.9357 L250.9768 305.0806 L248.6938 306.7376 L247.0442 308.0484 L246.4994 308.4809 L246.246 308.7761 L245.4634 309.6883 L245.3562 309.5879 L244.4084 308.7001 L241.9874 305.4895 L239.9061 303.7218 L237.1382 302.6162 L235.746 301.7453 M238.0695 166.5228 L238.4525 163.8699 L240.7994 164.7042 L244.3416 166.0702 L244.5019 166.8949 L244.1642 166.9266 L243.1633 166.8602 L238.0695 166.5228 M239.5816 161.0524 L239.7107 159.5137 L240.5562 160.297 L242.5625 162.4626 L243.5195 163.0614 L244.786 163.6381 L250.3896 166.5183 L249.1874 166.5597 L240.4519 163.1729 L239.7346 162.4995 L239.5816 161.0524 M242.2715 161.2229 L242.869 161.1941 L243.4357 160.8944 L244.1735 160.283 L245.1925 160.7917 L245.9546 160.8988 L245.9931 160.7814 L246.4746 160.9298 L246.4507 161.5833 L248.2186 162.0484 L250.2132 162.7513 L250.451 162.9669 L250.4569 163.61 L253.1161 164.5204 L254.2428 165.9749 L254.8012 166.8742 L255.4542 167.5527 L254.8534 168.1552 L253.7257 167.792 L253.7891 167.3467 L253.2589 167.1083 L252.9348 167.4649 L250.2917 166.0229 L245.1213 163.531 L245.1169 163.5436 L243.8187 162.611 L243.272 162.0831 L242.3841 161.6032 L242.2715 161.2229 M245.7368 282.6325 L246.229 282.3233 L247.4277 281.9564 L249.4574 281.5187 L249.9159 281.4198 L250.9768 281.9882 L251.0947 282.0516 L251.4217 282.1675 L252.4568 282.5329 L253.0079 282.4096 L253.5917 282.1882 L254.4231 281.2921 L254.5566 281.2892 L254.751 281.2855 L255.3699 281.2722 L255.3948 281.3593 L255.6516 282.2517 L255.1789 282.6768 L253.7438 282.9514 L252.3228 283.161 L252.0874 283.1625 L251.8155 283.1647 L251.4763 282.4805 L250.2049 282.8215 L247.6578 283.505 L247.0623 283.8002 L245.7368 282.6325 M260.9978 358.0151 L262.798 354.1201 L265.2594 349.5211 L266.4884 346.6814 L267.0005 345.9545 L267.6257 345.0674 L267.8728 344.9036 L268.0604 344.7796 L268.5102 344.9921 L269.3903 345.5508 L270.4862 346.246 L271.6923 346.9566 L272.1533 347.2762 L272.2313 347.6016 L272.167 348.3507 L271.9082 349.0119 L271.7074 349.4931 L267.4045 356.7451 L266.0327 359.3715 L265.6054 360.1891 L265.3193 360.2961 L264.1775 360.1544 L263.2653 359.9788 L262.6289 359.6932 L262.0709 359.3168 L261.107 358.663 L260.9978 358.0151 M266.3295 362.107 L267.0717 362.0642 L269.1983 359.7072 L270.284 358.3243 L270.6734 357.6609 L271.0637 357.4867 L271.3376 357.2948 L271.8176 357.1414 L274.7322 359.5154 L275.1162 359.8282 L275.1259 359.8991 L275.1391 359.9936 L274.9977 360.181 L272.512 362.0384 L269.4634 364.8094 L268.0107 366.2683 L267.75 366.365 L267.0468 364.895 L266.3963 363.2228 L266.3295 362.107 M271.5841 324.9133 L271.7679 323.576 L272.5593 322.1789 L273.0037 321.6151 L274.5382 319.6674 L275.9085 318.4127 L276.3885 318.2592 L277.3115 318.0245 L278.9303 317.4585 L280.5726 316.5285 L281.1237 316.2643 L281.9209 315.3573 L283.5851 314.2959 L284.3365 313.7365 L284.7522 314.2288 L285.1421 314.6901 L285.6537 315.6333 L285.7507 315.8119 L286.0192 315.9388 L287.7404 316.7551 L287.8515 316.8075 L287.9548 316.8053 L289.8027 316.7654 L291.8226 316.64 L293.1534 316.4562 L295.3853 316.2215 L296.9588 316.1514 L297.1299 316.1883 L299.235 316.6437 L299.8281 317.6732 L299.9723 317.9234 L300.0942 318.3913 L300.1882 318.7353 L300.5425 319.353 L301.7125 321.3951 L301.7812 321.4852 L302.9249 322.9819 L304.3796 323.8956 L305.5949 325.1347 L306.2981 326.1133 L306.4589 326.7975 L306.5803 327.9244 L306.8205 332.8351 L306.6797 333.9982 L306.628 335.0816 L306.3663 335.1709 L306.1807 335.2337 L305.9896 335.3776 L305.7996 335.5215 L305.6924 335.475 L305.2241 335.272 L304.6564 334.8824 L303.7485 333.5739 L303.2412 333.1887 L300.946 331.2617 L299.2633 333.3082 L298.4091 332.6868 L294.8702 332.3355 L293.3157 332.2137 L292.0443 331.6625 L291.8162 331.6565 L290.7281 331.63 L290.7081 331.582 L290.1813 330.3053 L290.3504 329.5385 L290.3748 329.4278 L292.1647 328.2624 L292.8084 327.162 L291.7636 326.2211 L291.0078 325.4816 L289.6721 325.1664 L288.7545 325.0579 L288.007 325.2845 L287.1176 325.5532 L286.6912 325.6122 L286.4139 325.7856 L286.2955 326.1384 L286.5095 326.4786 L287.486 327.0159 L287.5216 327.0875 L287.6254 327.2993 L287.9061 328.8551 L287.8924 328.9429 L287.853 329.1982 L287.986 329.41 L288.1678 329.6993 L285.1089 333.5857 L283.1777 335.2802 L276.9504 341.2387 L275.9612 341.8468 L275.7765 341.9605 L274.8433 342.5346 L274.3579 342.1642 L273.4691 339.8181 L273.4233 339.4831 L273.4754 338.7458 L273.4915 338.5222 L273.9861 338.1857 L274.4144 337.8521 L274.6196 337.5325 L274.718 337.379 L274.7497 337.3296 L273.9369 333.8455 L271.9535 327.1155 L271.6178 325.1148 L271.5841 324.9133 M273.9091 350.5366 L273.9335 350.4229 L273.9905 350.1558 L274.9729 348.7307 L275.2312 348.3558 L276.3612 347.212 L280.4195 343.1036 L281.1291 342.2638 L281.6841 342.2749 L281.766 342.2764 L281.901 342.5265 L282.2314 342.9856 L282.6519 344.4851 L283.4116 347.1943 L283.6996 347.8275 L283.9516 347.961 L285.2688 347.5662 L286.4563 347.2105 L286.9875 347.6304 L289.7549 350.0502 L289.9294 350.1668 L291.0063 350.8864 L291.1774 350.9365 L291.3202 350.9779 L291.6018 350.8377 L292.5648 349.9942 L293.2426 349.4001 L293.5944 349.1831 L293.7187 349.2097 L293.9731 349.265 L295.0242 349.8598 L295.3244 349.8525 L295.4116 349.7779 L298.0163 347.5396 L298.4037 347.2068 L298.622 346.6046 L298.5952 346.5102 L298.4763 346.0932 L298.2989 345.4718 L297.8384 344.7958 L297.5952 344.6172 L296.9842 344.1737 L296.3901 343.987 L296.26 344.018 L295.7103 344.1486 L295.3775 344.1612 L294.6519 343.8261 L293.8069 343.4365 L292.5375 343.4438 L292.1905 343.5922 L291.5205 343.5841 L290.7027 343.2261 L289.8417 342.5863 L289.1385 342.0638 L289.1112 341.866 L289.2155 341.7029 L289.4416 341.3494 L293.9078 337.5141 L294.3512 336.937 L294.6227 336.9665 L295.3278 337.475 L295.5944 337.4713 L296.0334 336.7717 L296.3658 336.6942 L296.3896 336.689 L298.1415 337.7458 L300.3602 339.0661 L302.1287 339.5273 L303.5292 339.3111 L304.2241 339.2041 L305.7616 339.1089 L305.9809 339.0956 L306.4584 339.1642 L306.9326 339.9399 L307.2425 344.1508 L307.3804 345.8733 L307.4428 346.3271 L307.6455 347.0725 L307.7673 347.3101 L307.9194 347.6061 L308.6659 348.6186 L310.2141 350.3609 L314.1657 354.8315 L316.574 356.7857 L319.2332 359.1087 L322.4129 361.5816 L325.4362 363.1483 L327.7032 364.0788 L330.1719 365.016 L330.6031 365.2448 L330.7142 365.5658 L330.7313 365.8219 L330.7449 366.0322 L329.6782 369.0046 L329.246 370.2082 L328.1037 371.1394 L326.4591 372.3083 L324.6068 373.9096 L323.485 374.5022 L322.581 374.4926 L314.9712 371.1719 L313.2759 370.49 L308.7498 368.6696 L301.4669 364.9585 L297.4827 362.9284 L296.8877 362.9771 L296.7181 363.0487 L295.8132 363.4287 L294.8361 364.1954 L293.3089 365.3946 L292.7953 365.2514 L291.9342 364.8684 L290.2612 363.0893 L289.3641 362.1343 L285.9851 359.184 L283.9316 357.3908 L283.3517 357.2063 L283.0262 357.103 L282.6032 356.9687 L281.6846 357.0956 L281.0457 357.0299 L280.1515 356.1621 L276.5703 353.4264 L275.161 352.3475 L273.9364 350.7351 L273.9091 350.5366 M278.731 314.6664 L278.9961 312.2088 L279.3041 311.8833 L280.6422 310.4684 L282.0944 309.5112 L282.9087 309.3983 L283.4682 309.7739 L284.6674 310.6677 L285.8847 310.1968 L287.9826 308.999 L288.5113 309.0255 L289.1516 308.2403 L288.9528 307.2859 L288.8763 306.9184 L289.1399 306.7346 L289.6078 306.4091 L291.9868 305.9323 L292.4727 305.7714 L293.054 306.9361 L293.2938 307.2874 L293.3649 307.3915 L293.9039 308.1805 L294.7484 308.2897 L295.8926 307.8292 L296.3979 308.2137 L296.4043 308.2388 L297.2561 311.7556 L297.8365 314.293 L297.8345 314.7676 L297.834 314.8229 L297.5694 314.8473 L297.0158 314.8975 L287.8549 315.7492 L286.5811 314.7152 L286.2634 313.7092 L286.0606 313.1225 L285.6303 312.8125 L285.4837 312.7077 L285.0617 312.4036 L284.6221 312.4649 L284.4618 312.487 L283.7571 312.5844 L282.9092 313.2169 L281.2699 314.6561 L279.6062 314.9993 L278.7612 314.8886 L278.7466 314.7823 L278.731 314.6664 M294.1495 420.5207 L294.5583 420.2905 L295.3263 420.05 L297.4067 418.9587 L299.2482 418.1213 L302.1969 417.2248 L303.7909 416.8234 L304.2996 416.3999 L304.6296 416.1254 L304.3118 415.5528 L303.864 415.2112 L303.2524 414.2196 L302.8333 413.8543 L302.2734 413.3666 L303.5965 412.203 L307.5724 407.4136 L309.355 405.5129 L311.9704 403.4572 L313.233 402.1556 L314.4693 401.1779 L315.211 400.7389 L315.807 400.4548 L316.5603 400.5861 L317.4575 401.034 L317.6651 401.0466 L317.7947 401.0547 L318.6407 400.8739 L321.2127 398.8056 L321.7975 398.3349 L326.6057 394.6964 L330.1821 392.9919 L331.992 392.5395 L333.3876 392.4813 L335.0688 393.1195 L335.8563 393.4184 L336.408 393.5438 L336.6672 393.2391 L336.9308 391.8452 L336.7574 389.8514 L336.0897 388.397 L334.8481 386.5855 L328.8829 384.1128 L327.6169 383.4132 L326.3777 382.5787 L326.8889 381.7655 L328.112 379.2876 L331.3979 374.4955 L334.4997 369.623 L334.5947 369.4739 L335.1468 368.933 L335.8709 369.3374 L336.9304 370.0834 L337.9064 370.7712 L338.3348 371.2088 L339.9668 372.8743 L342.6509 377.0982 L344.6362 381.3301 L345.9436 384.7459 L346.8252 387.0481 L347.2257 387.5307 L347.8164 387.4488 L348.2374 387.2857 L353.5798 385.2115 L356.8564 383.8316 L359.5303 382.8568 L360.6877 382.7646 L362.0307 383.2893 L362.2768 383.3852 L363.6641 384.2367 L363.9707 384.5555 L364.4053 385.0086 L365.1534 387.2931 L365.4711 387.4171 L365.8156 387.4429 L366.4169 387.4887 L367.203 387.6148 L367.9734 388.1144 L368.2755 388.6442 L368.6756 389.3452 L368.4836 391.356 L368.1581 391.905 L364.9199 393.3948 L364.6134 393.8404 L364.592 394.4153 L366.8078 400.3308 L366.7186 401.3852 L366.3312 402.5939 L366.2381 403.075 L365.0218 409.366 L364.7187 411.0549 L364.7021 411.0719 L364.4833 411.2896 L360.6511 410.8144 L352.2669 410.1223 L340.4638 409.6006 L334.5518 409.2435 L331.5271 409.1232 L330.8054 409.2228 L330.3317 409.4228 L328.2353 411.1922 L326.6262 412.8604 L322.0957 419.2251 L320.722 421.6341 L319.9988 423.8867 L319.644 424.9927 L319.3741 426.2352 L318.6738 427.3102 L318.3151 427.3478 L317.4887 427.4334 L314.4537 427.3574 L310.9704 427.6178 L308.1869 428.4044 L305.6315 428.9171 L305.2825 428.9872 L304.7796 429.0116 L302.1019 429.1407 L301.0147 429.2573 L300.4255 429.1031 L299.4363 428.4907 L298.1605 427.702 L297.1567 426.6255 L296.6318 426.0633 L294.2304 421.7219 L294.1544 420.5952 L294.1495 420.5207 M145.0743 45.7562 L145.1143 45.7983 L145.1328 45.7688 L145.0743 45.7562" stroke-dasharray="" fill="none" fill-opacity="1.0" stroke="#ff0000" stroke-opacity="1.0" stroke-width="1.0px" stroke-linecap="butt" stroke-linejoin="miter" stroke-dashoffset="0.0px"/>
</g>
</svg>