<?xml version="1.0" standalone="no"?>
<!DOCTYPE svg PUBLIC "-//W3C//DTD SVG 1.1//EN" "http://www.w3.org/Graphics/SVG/1.1/DTD/svg11.dtd">
<svg width="512px" height="512px" version="1.1" xmlns="http://www.w3.org/2000/svg" xmlns:inkscape="http://www.inkscape.org/namespaces/inkscape">
<g id="layer" inkscape:groupmode="layer" inkscape:label="layer">
<path d="M0.0 74.0144 L0.308 75.0583 L4.3884 73.8951 L8.873 89.4933 L2.6754 91.2827 L2.9449 92.1775 L9.1425 90.3582 L20.229 128.8315 L16.1871 129.9946 L16.5143 131.0981 L20.6717 129.9052 L21.6726 133.3946 L22.096 134.8262 L17.9193 136.0489 L18.2465 137.1524 L22.3847 135.9595 L38.6873 192.5359 L34.5298 193.7289 L34.8763 194.9218 L39.0145 193.7289 L49.5813 230.5914 L45.4431 231.7844 L45.8088 233.037 L59.0125 228.802 L61.0142 235.0352 L62.939 241.0895 L49.5236 245.4139 L49.7353 246.0104 L61.8804 242.4912 L62.0344 243.1175 L80.0499 237.8685 L93.5423 285.05 L89.4234 286.2429 L89.7506 287.4061 L109.306 281.7693 L110.9997 287.6745 L108.4976 288.4201 L109.0365 290.299 L117.5631 287.8236 L142.9312 280.4869 L142.4692 278.8764 L140.7562 279.3834 L138.9662 273.3292 L155.134 268.5573 L167.3176 314.7546 L169.6466 323.6122 L155.057 327.4595 L159.6957 342.9679 L157.8479 343.5345 L158.1559 344.5486 L160.0036 343.9819 L173.9002 390.4771 L171.937 391.1034 L172.2834 392.2964 L183.3507 389.0158 L187.3734 402.675 L183.5239 403.8381 L183.8704 404.9416 L193.4941 402.0785 L197.8825 416.9605 L194.6874 417.9149 L195.0339 419.078 L198.2482 418.0938 L207.1597 448.842 L204.0224 449.7665 L204.3111 451.0191 L223.6355 445.3228 L227.7929 459.3399 L226.7728 459.6083 L227.177 461.01 L241.4008 456.9838 L241.5933 457.7294 L249.4078 455.433 L280.858 446.2175 L280.4731 445.0544 L276.4696 446.0684 L272.3699 431.0373 L290.2315 426.1462 L289.885 424.9533 L287.2674 425.669 L273.8712 378.7862 L276.6043 378.0108 L276.1809 376.6091 L265.9605 379.7108 L261.9378 366.2901 L287.9218 358.7447 L287.3444 357.1044 L284.5535 357.9394 L269.3096 304.6144 L271.0803 304.1074 L270.6569 302.4671 L268.9246 302.9741 L267.0769 296.6813 L284.1301 291.4919 L288.249 290.4779 L294.4082 288.8376 L315.5996 282.4553 L325.0115 265.5451 L322.4131 256.4786 L309.9023 212.8461 L337.4261 205.0024 L340.7752 216.8425 L405.7351 198.0832 L404.8882 195.0113 L418.015 191.3429 L422.2109 205.4497 L421.133 205.7778 L421.4218 206.9111 L456.606 196.8306 L456.2403 195.7569 L455.1239 196.1446 L451.6209 185.0202 L512.0 167.1258 L498.2766 118.9298 L504.9939 116.9913 L504.686 115.9772 L483.3599 122.0017 L482.3783 121.7333 L479.6836 122.5982 L475.4877 120.8982 L474.7563 119.2579 L474.1789 118.8702 L473.6592 119.1983 L474.2366 120.9877 L467.1536 126.2666 L446.963 132.3209 L447.194 133.5139 L448.7915 133.0665 L452.872 147.4418 L441.3813 150.7225 L429.6211 109.2071 L430.9107 108.8492 L430.6797 108.044 L429.4479 108.4019 L422.8268 85.0196 L424.2511 84.6319 L425.1365 82.6933 L423.8662 77.5934 L421.9029 76.2513 L420.4594 76.639 L417.1488 64.918 L418.3229 64.5899 L418.0342 63.5759 L384.178 73.4776 L384.486 74.4916 L382.388 75.6548 L380.7328 77.5635 L380.2516 79.5021 L386.2953 102.1089 L387.1036 103.9879 L388.4125 105.5089 L390.9339 106.6721 L393.2051 106.6124 L407.6214 155.9119 L394.4754 159.8188 L392.5314 153.1382 L361.8896 161.9662 L353.3052 132.2911 L354.9027 131.8139 L354.5178 130.5613 L352.901 131.0087 L349.7252 119.6754 L352.5161 118.9 L352.1889 117.707 L313.4439 129.0104 L313.7518 130.0543 L315.5803 129.5174 L318.8716 140.8805 L316.0807 141.7752 L311.9811 140.7314 L307.9006 140.6419 L303.3775 141.5366 L299.8552 143.1471 L296.5639 145.5927 L293.7153 148.8137 L291.4441 149.4997 L287.9603 137.5998 L289.2499 137.2121 L288.9227 136.0788 L249.6772 147.3225 L249.9852 148.4558 L253.7769 147.3523 L256.9912 158.596 L255.5284 159.0136 L255.8364 160.1171 L257.2992 159.6995 L273.929 216.7531 L244.1917 225.3722 L240.7849 222.4196 L235.7999 220.2126 L227.9084 219.8249 L222.3074 222.0319 L216.8797 227.0125 L214.0695 234.1106 L191.6848 240.5526 L134.2698 257.0751 L122.7214 216.8425 L126.9751 215.6197 L126.6094 214.3671 L122.3749 215.6197 L120.9891 210.8181 L125.724 209.4462 L125.416 208.4023 L120.6812 209.7742 L104.7251 154.1522 L108.7863 152.9891 L108.4783 151.9154 L104.4171 153.0786 L93.8503 116.2158 L97.8923 114.9334 L97.6228 113.8895 L67.3274 122.3596 L63.2277 108.1036 L65.5951 107.4177 L65.2872 106.4036 L62.9197 107.0896 L54.3354 77.2653 L60.1289 75.5951 L59.7054 74.1934 L53.9312 75.8636 L49.8508 61.6672 L53.912 60.504 L53.5655 59.3707 L49.5236 60.5338 L47.5026 53.4356 L50.8516 52.5111 L50.5244 50.99 L14.705 61.1005 L15.1669 62.7408 L17.8038 61.9654 L19.6516 68.318 L0.0 74.0144" stroke-dasharray="" fill="none" fill-opacity="1.0" stroke="#ff0000" stroke-opacity="1.0" stroke-width="1.0px" stroke-linecap="butt" stroke-linejoin="miter" stroke-dashoffset="0.0px"/>
</g>
</svg>