<?xml version="1.0" standalone="no"?>
<!DOCTYPE svg PUBLIC "-//W3C//DTD SVG 1.1//EN" "http://www.w3.org/Graphics/SVG/1.1/DTD/svg11.dtd">
<svg width="512px" height="512px" version="1.1" xmlns="http://www.w3.org/2000/svg" xmlns:inkscape="http://www.inkscape.org/namespaces/inkscape">
<g id="layer" inkscape:groupmode="layer" inkscape:label="layer">
<path d="M170.8732 496.9214 L188.8565 498.9968 L188.446 502.4276 L298.9193 512.0 L299.4941 505.6043 L304.0926 505.9855 L306.9666 472.7364 L306.1728 472.694 L307.1035 462.1475 L307.8425 462.1898 L308.171 458.5473 L307.4319 458.4625 L308.4173 446.9418 L309.1564 446.9842 L309.4575 443.6804 L308.7184 443.5534 L309.6491 432.3291 L310.4429 432.4138 L310.7439 428.6442 L310.0049 428.5594 L310.9082 417.6317 L311.702 417.7164 L312.0031 414.0738 L311.2366 413.9891 L312.1673 403.146 L312.9611 403.1884 L313.2622 399.4611 L312.4958 399.4187 L313.4538 388.3638 L314.1928 388.4486 L314.5487 384.806 L313.7549 384.7212 L314.7129 373.7511 L315.4519 373.8782 L315.753 370.3626 L315.014 370.2779 L315.9446 359.5619 L316.6837 359.6042 L317.0121 355.8346 L316.2457 355.7922 L317.2311 344.6103 L317.9701 344.6526 L318.2712 341.1371 L317.5322 341.0524 L318.5176 329.2774 L319.3114 329.4045 L319.5851 325.9737 L318.8187 325.889 L319.7767 315.0035 L320.5157 315.0882 L320.7895 312.0386 L320.0504 311.9962 L321.0084 300.3907 L321.7749 300.433 L322.0486 297.3411 L321.3095 297.2987 L322.2675 285.7355 L323.0613 285.8202 L323.3351 282.5588 L322.5686 282.4741 L323.4719 271.631 L324.2657 271.7157 L324.5942 267.8189 L323.8551 267.7342 L324.731 257.3146 L325.4974 257.357 L325.8259 253.4602 L325.0595 253.4179 L326.0449 242.1935 L326.7839 242.2359 L327.085 238.6356 L326.346 238.5932 L327.2766 227.5807 L328.0704 227.623 L328.3168 224.2769 L327.5777 224.1922 L328.5357 213.0949 L329.2748 213.1796 L329.6032 209.664 L328.8368 209.664 L329.7401 198.7785 L330.5339 198.8632 L330.835 194.8817 L330.1233 194.8394 L331.0813 183.6997 L331.8477 183.742 L332.1215 180.2265 L331.3824 180.1418 L332.3404 169.0444 L333.0795 169.1291 L333.3806 165.8254 L332.6142 165.7406 L333.5722 154.6433 L334.3112 154.6857 L334.6671 150.7042 L333.928 150.6618 L334.8587 139.988 L335.5703 140.0304 L335.9262 136.176 L335.1871 136.0913 L336.0904 125.5869 L336.8294 125.6716 L337.1853 121.563 L336.4189 121.4783 L337.3495 110.8892 L338.0886 110.9739 L338.417 107.2889 L337.6232 107.2466 L338.6086 95.9374 L339.375 95.9798 L339.6761 92.5913 L338.9097 92.5489 L339.8677 81.6633 L340.6068 81.7057 L340.9352 77.8936 L340.1962 77.8089 L341.1268 67.008 L304.5305 63.6195 L309.7586 5.3793 L249.4855 0.0 L244.1206 58.6214 L208.6191 55.6988 L208.0169 63.2383 L208.756 63.323 L205.964 95.9798 L205.225 95.9374 L204.9513 98.9447 L205.6903 99.0295 L204.7597 110.3386 L203.9932 110.2539 L203.6922 113.8965 L204.4312 113.8965 L203.5279 124.7398 L202.7615 124.6974 L202.433 128.3824 L203.1995 128.4248 L202.2962 139.268 L201.5024 139.268 L201.2013 143.2071 L201.9404 143.2918 L200.955 154.3892 L200.2159 154.3045 L199.9148 157.6506 L200.7086 157.693 L199.7232 169.0444 L198.9842 168.9174 L198.7105 171.7129 L199.5042 171.7976 L198.5189 183.1067 L197.7524 183.0643 L197.424 186.7917 L198.2178 186.8764 L197.2324 198.1008 L196.466 198.0584 L196.1375 201.9976 L196.9039 201.9976 L195.9733 212.6713 L195.2068 212.6289 L194.9605 215.5515 L195.7543 215.6362 L194.7415 227.03 L194.0025 226.9453 L193.674 230.7997 L194.4404 230.8421 L193.5372 241.5582 L192.7434 241.4735 L192.4423 245.2008 L193.2087 245.2432 L192.278 256.2557 L191.4843 256.2134 L191.2105 259.6019 L191.977 259.6442 L190.9916 271.0803 L190.1978 270.9956 L189.8967 274.8077 L190.6631 274.8924 L189.7872 285.2273 L189.0208 285.1849 L188.6649 288.7852 L189.4587 288.8699 L188.5007 300.0518 L187.7343 300.0095 L187.4058 303.525 L188.1996 303.5674 L187.3237 314.5376 L186.5026 314.4529 L186.1741 318.1802 L186.9679 318.2649 L185.9551 329.6586 L185.1887 329.5739 L184.8876 333.1742 L185.6814 333.2589 L184.7234 344.0596 L183.957 343.9749 L183.6832 347.194 L184.4497 347.2363 L183.4643 358.6301 L182.6979 358.5453 L182.3694 362.2303 L183.1358 362.2727 L182.2325 373.3275 L181.4387 373.2428 L181.165 376.8854 L181.9314 376.9701 L181.0008 387.7285 L180.207 387.6438 L179.9059 391.3711 L180.6723 391.4558 L179.7691 402.3836 L178.9479 402.2989 L178.6468 405.9838 L179.4406 406.0262 L178.4826 417.2081 L177.6888 417.1234 L177.3603 420.9778 L178.1541 421.0625 L177.2508 431.5667 L176.457 431.482 L176.1012 435.294 L176.9224 435.3364 L174.7326 460.6227 L173.9662 460.538 L170.8732 496.9214" stroke-dasharray="" fill="none" fill-opacity="1.0" stroke="#ff0000" stroke-opacity="1.0" stroke-width="1.0px" stroke-linecap="butt" stroke-linejoin="miter" stroke-dashoffset="0.0px"/>
</g>
</svg>