<?xml version="1.0" standalone="no"?>
<!DOCTYPE svg PUBLIC "-//W3C//DTD SVG 1.1//EN" "http://www.w3.org/Graphics/SVG/1.1/DTD/svg11.dtd">
<svg width="512px" height="512px" version="1.1" xmlns="http://www.w3.org/2000/svg" xmlns:inkscape="http://www.inkscape.org/namespaces/inkscape">
<g id="layer" inkscape:groupmode="layer" inkscape:label="layer">
<path d="M0.0 374.2646 L16.904 390.0295 L37.1408 380.7309 L83.4895 400.6642 L125.7496 407.3442 L164.5739 408.6802 L164.4708 409.6956 L172.3731 409.5887 L172.4075 408.4665 L190.1704 409.4818 L190.3766 410.5506 L197.8666 410.3369 L197.901 409.2146 L210.6477 410.0162 L210.098 411.5126 L217.3818 410.6575 L217.21 409.2681 L229.2696 407.7717 L229.8881 408.5733 L237.9965 407.7717 L237.8247 406.4892 L249.4377 404.5653 L249.1628 405.7944 L257.2712 404.9928 L257.2025 403.7103 L269.2965 403.069 L268.1283 407.1305 L276.168 408.4665 L302.1425 403.6034 L309.6325 399.8091 L307.7429 395.6942 L319.0122 392.2206 L319.3901 393.3963 L326.6396 391.1518 L326.193 389.9226 L337.7716 386.8231 L338.0808 387.9453 L345.7082 385.8612 L345.0211 384.6855 L361.341 380.4102 L361.5815 381.5325 L368.831 378.4864 L368.2469 377.3641 L385.9069 363.6833 L386.6284 364.6453 L389.858 362.4008 L389.0334 361.3854 L402.2612 351.1248 L402.8109 351.873 L408.583 347.7046 L408.1707 346.9565 L421.6733 336.8027 L422.0513 337.3906 L427.6516 333.3826 L427.2049 332.6878 L440.2609 322.3738 L441.0855 323.3357 L446.8576 318.7933 L446.0674 317.8313 L458.8485 307.5173 L459.8105 308.5327 L465.4795 303.9902 L464.8611 303.0283 L477.7109 292.6074 L478.5011 294.1037 L484.445 289.0803 L483.7579 288.1183 L496.6077 277.7508 L497.4323 278.6593 L503.17 274.4375 L502.3798 273.3687 L512.0 264.8182 L489.3238 254.0766 L497.8789 235.3723 L473.5536 224.3635 L467.6097 236.1205 L463.8647 234.1966 L464.5862 232.8072 L458.7798 230.4023 L458.2988 231.3643 L446.6858 225.4323 L452.2174 214.7976 L443.7998 210.8964 L439.986 222.2259 L427.9265 216.5612 L428.5793 215.1717 L422.12 212.179 L421.639 213.1944 L410.7132 208.0106 L415.1453 197.2156 L408.1707 193.261 L402.7078 203.4682 L391.5072 198.4982 L391.9538 197.3759 L385.7351 194.597 L385.2541 195.5589 L372.6791 189.1995 L377.7297 178.351 L369.0028 174.5032 L364.0897 185.2983 L348.6286 178.8854 L349.0066 178.0303 L342.135 174.7704 L341.6884 175.6255 L325.9525 167.7162 L330.8313 157.4555 L323.0321 153.2872 L317.741 163.5478 L301.7646 157.0815 L303.1733 153.5544 L292.9003 149.3325 L291.629 151.6305 L276.8208 145.2176 L277.7828 142.9196 L243.5625 126.2995 L242.3943 128.7043 L230.1629 123.2533 L234.6982 112.9392 L211.5066 100.4874 L194.1216 132.2848 L207.8647 140.9423 L193.6749 163.5478 L188.6931 160.4482 L183.5737 168.2506 L187.0095 171.7777 L181.581 176.908 L169.865 191.9249 L170.9644 192.7266 L168.6625 195.8796 L161.8253 191.3371 L154.7476 200.422 L161.8596 205.9799 L115.7858 264.3372 L105.6159 257.8175 L98.4008 267.223 L104.2416 271.4983 L95.5491 283.3087 L89.9831 278.98 L84.0048 286.8358 L89.4334 291.111 L79.1947 303.9902 L74.6252 300.3562 L68.6125 308.0517 L73.8693 311.6322 L64.1117 325.7405 L58.6488 321.9997 L52.3613 329.9089 L57.9273 334.4514 L39.752 356.6826 L24.0161 345.7273 L0.0 374.2646 M114.7207 355.2932 L189.4489 258.6191 L206.7996 270.4295 L221.6766 250.5495 L204.7038 238.5253 L252.5642 174.1826 L275.5152 195.1848 L428.9915 267.7574 L434.5575 267.7574 L436.1723 271.0708 L433.2863 277.0027 L385.4258 312.0063 L358.1114 329.9624 L339.1459 338.9938 L322.9634 344.4982 L321.1768 332.3672 L323.5818 331.9931 L323.1351 328.8401 L321.8983 329.0539 L316.9851 297.7911 L297.4355 300.8372 L297.2637 299.8753 L284.7918 301.6388 L284.998 302.7611 L262.6998 306.0744 L262.5623 305.1659 L250.0561 307.5173 L250.1935 308.5327 L230.3004 310.5634 L237.4811 357.0033 L204.3259 360.2097 L151.6897 360.4769 L114.7207 355.2932" stroke-dasharray="" fill="none" fill-opacity="1.0" stroke="#ff0000" stroke-opacity="1.0" stroke-width="1.0px" stroke-linecap="butt" stroke-linejoin="miter" stroke-dashoffset="0.0px"/>
</g>
</svg>