<?xml version="1.0" standalone="no"?>
<!DOCTYPE svg PUBLIC "-//W3C//DTD SVG 1.1//EN" "http://www.w3.org/Graphics/SVG/1.1/DTD/svg11.dtd">
<svg width="512px" height="512px" version="1.1" xmlns="http://www.w3.org/2000/svg" xmlns:inkscape="http://www.inkscape.org/namespaces/inkscape">
<g id="layer" inkscape:groupmode="layer" inkscape:label="layer">
<path d="M0.0 191.8578 L0.0483 192.7334 L0.3524 193.7919 L1.6565 194.0124 L2.3717 194.1251 L7.4888 203.1989 L6.757 205.43 L6.9595 206.5738 L6.7424 206.5709 L8.3075 211.6134 L10.1895 210.9077 L10.7924 210.7028 L10.8807 210.6472 L11.2865 210.4799 L11.5485 210.4457 L11.6895 210.3979 L11.8017 210.4477 L11.9689 210.4726 L12.3869 210.6365 L12.7755 210.8774 L13.7677 211.3159 L14.4629 211.3774 L16.1986 211.133 L17.13 211.7212 L15.9934 215.9891 L14.6694 215.8774 L13.6794 215.5311 L13.1501 216.0637 L12.4246 218.5932 L12.9049 221.4358 L11.7971 222.4161 L12.8129 223.3775 L15.7916 229.9082 L15.567 231.2933 L16.3249 230.5178 L20.8382 237.7067 L27.8622 244.8223 L26.9452 244.8418 L27.8716 245.7147 L31.3555 248.2068 L38.0988 249.9479 L41.3582 253.0007 L44.6269 259.8329 L44.1996 260.7546 L47.2906 264.5534 L54.4612 270.1955 L54.3208 272.6337 L59.9101 278.3974 L58.7405 278.3682 L59.9912 279.4556 L61.1858 280.0651 L62.0632 287.7332 L64.4436 287.7527 L66.7716 289.7148 L67.2616 290.1088 L69.9689 289.6563 L71.399 287.6055 L73.3453 285.9272 L74.9238 288.1765 L75.9731 291.163 L73.9915 293.09 L74.1491 294.541 L73.2726 296.015 L73.6456 297.7932 L74.3505 299.7864 L73.7308 300.4788 L74.3218 301.2633 L75.5217 303.0678 L75.9054 304.8382 L77.4103 306.668 L78.4115 308.0936 L78.5126 308.2506 L79.0328 307.7197 L80.7661 309.7177 L81.4625 310.3335 L81.1079 310.8035 L75.833 314.3333 L78.036 314.7224 L81.3839 315.6697 L82.3112 315.8286 L83.7032 315.8871 L84.6343 315.8769 L85.0831 315.8944 L85.6966 316.0071 L87.1214 316.3176 L87.9938 316.7769 L88.8325 317.0684 L89.8237 317.2908 L90.1846 317.3946 L90.3623 317.6116 L90.4936 317.9602 L90.4384 318.5111 L90.2058 318.7353 L90.0813 318.9362 L90.0607 319.0795 L90.1652 319.2185 L90.8723 319.6763 L91.4265 319.8728 L91.677 319.786 L91.8645 319.5407 L91.8673 319.3228 L91.7088 319.0098 L91.6056 318.6939 L91.5965 318.3941 L91.6792 318.1469 L91.847 317.9665 L92.0572 317.7759 L92.25 317.7339 L92.545 317.7871 L92.9103 317.9855 L93.2415 318.1147 L94.1981 318.1171 L96.5367 318.5091 L97.9291 318.8996 L98.7235 319.295 L99.5073 319.5349 L101.1485 319.4213 L102.9345 319.8118 L103.9491 320.1877 L105.881 321.4158 L106.3236 321.8682 L106.915 322.4006 L107.4951 322.7663 L107.9564 322.9501 L108.9557 323.4244 L110.3652 323.6818 L110.8116 323.9885 L111.0929 324.3224 L110.8939 325.0079 L110.7242 325.3833 L110.568 326.1199 L110.519 326.8936 L111.3374 327.2861 L112.454 328.1124 L113.4371 328.6351 L113.837 328.9168 L114.6021 329.8173 L115.069 330.7626 L115.2128 331.3442 L115.5656 332.0632 L115.472 332.4781 L115.2824 332.8398 L114.7409 333.3654 L113.6389 333.7583 L113.177 334.0401 L111.6606 335.059 L111.2591 335.1852 L110.8696 335.2432 L110.427 335.2428 L110.024 335.0102 L109.6285 334.9361 L109.2103 335.2155 L108.83 335.5114 L107.9146 336.3123 L107.1233 336.8778 L106.7291 337.0207 L106.342 337.0914 L105.9665 337.0324 L105.546 336.9397 L105.1633 336.9212 L104.8446 336.9778 L104.2763 337.377 L103.6166 337.7855 L102.8496 338.0678 L102.325 338.3145 L101.8172 338.6162 L101.3422 339.1076 L100.1467 340.7427 L99.8953 341.1361 L99.376 342.2022 L99.1433 343.4268 L98.8894 344.2004 L98.8327 344.5646 L98.9181 344.8415 L99.0731 345.2436 L99.1489 345.8559 L98.9499 346.2123 L98.5451 346.5652 L97.6253 346.8309 L96.5477 347.1019 L95.2411 347.1419 L94.6544 347.4339 L94.5683 347.6406 L94.597 347.8356 L94.8924 348.0408 L97.0601 349.5451 L97.2516 349.6782 L97.8115 349.7587 L98.4181 349.5885 L99.793 349.2639 L100.5706 349.2327 L101.0618 349.4472 L102.2601 350.6468 L102.2174 351.1626 L101.8933 351.3927 L101.432 351.4702 L100.8962 351.4975 L100.3395 351.3717 L99.5513 351.1211 L98.0844 350.5552 L95.7773 349.18 L94.5334 348.3591 L93.0868 346.8865 L92.7138 346.5477 L90.8657 344.3637 L88.3007 340.5321 L85.5438 337.71 L87.8952 340.5501 L90.0507 343.9231 L93.9308 348.4625 L97.5576 351.0748 L101.5899 352.5709 L104.2301 353.0013 L122.0185 353.304 L127.3233 354.7225 L130.8007 357.037 L133.2089 359.1969 L141.2373 369.671 L146.6092 373.7839 L148.7519 374.8036 L150.0903 375.3164 L153.2842 375.9339 L164.7647 376.1547 L170.7918 376.4194 L175.4464 377.1091 L174.9975 377.0028 L173.3342 376.3906 L170.6718 375.116 L169.6584 374.8948 L168.6516 374.4507 L165.5806 373.4008 L164.8797 373.3233 L163.8969 373.0396 L162.6821 372.7418 L160.9036 372.3373 L158.9234 371.7943 L157.5962 371.3049 L156.3084 370.5128 L155.2233 369.748 L154.0527 368.6152 L152.4941 367.0082 L151.6988 366.3077 L151.5824 365.9519 L151.5821 365.6819 L151.6529 365.4718 L151.8316 365.2773 L152.1364 365.1564 L152.5568 365.1603 L153.4092 365.4279 L154.8097 365.9948 L155.3178 366.182 L156.7759 366.6816 L160.3525 367.6721 L162.1275 368.274 L162.3533 368.3072 L162.5174 368.0435 L162.6272 367.6194 L162.771 367.2173 L163.0819 366.6611 L163.3156 366.179 L163.5707 365.8135 L163.804 365.6282 L164.148 365.5059 L164.5416 365.4966 L164.8576 365.5454 L165.0432 365.5176 L165.1817 365.3299 L165.2331 365.036 L165.3654 364.5632 L165.5784 364.1815 L166.2262 363.3938 L166.6994 363.2174 L167.0995 363.2061 L167.962 363.2997 L168.5951 363.3387 L170.6315 363.6029 L171.2837 363.7409 L171.5264 363.6205 L171.7853 363.3387 L172.0788 363.0823 L172.4649 362.6748 L173.0603 362.3692 L173.3204 362.1577 L173.4368 361.8082 L173.5837 361.5474 L173.9838 361.2354 L174.5587 360.999 L175.5328 360.8323 L175.7133 360.8893 L176.3633 360.8021 L177.8452 361.3524 L180.1723 362.3005 L180.706 362.5934 L180.9676 362.8381 L181.2197 363.4387 L181.3644 363.5498 L181.5328 363.2856 L182.617 361.7731 L182.6887 361.7185 L182.7898 361.2071 L183.082 360.7031 L184.3075 359.369 L184.9628 358.7489 L185.3427 358.0353 L186.2631 357.2042 L187.4362 356.5602 L187.9698 356.375 L188.2384 355.9495 L188.4879 355.3942 L188.7558 354.725 L189.2193 353.4069 L189.6014 351.1172 L189.719 350.9266 L189.8977 350.7009 L190.3066 350.6575 L190.8796 350.8564 L191.2439 350.9305 L191.4042 350.9378 L191.4675 350.7999 L192.1933 349.6109 L193.3876 347.4665 L193.9624 346.3312 L194.5435 345.3894 L194.8579 345.0062 L196.0116 344.1702 L197.5811 343.4897 L198.5087 343.1567 L199.1035 343.086 L200.4054 343.943 L201.2194 344.4291 L201.7116 344.6796 L201.8822 344.6986 L202.0594 344.6411 L202.1408 344.5938 L202.1183 344.4729 L201.9982 344.3228 L201.0354 343.6325 L200.8692 343.3425 L200.5183 342.3446 L200.168 341.8561 L199.5221 341.4335 L199.0168 341.2429 L197.5911 341.0425 L196.8026 340.7295 L196.4249 340.418 L196.0946 339.9754 L195.953 339.5264 L196.0356 339.0979 L196.1523 338.841 L196.6036 338.6942 L197.0702 338.9531 L197.7879 339.4445 L200.1153 340.5857 L202.7764 341.956 L205.4828 343.5877 L206.29 344.0264 L208.8283 345.6565 L211.4255 347.4466 L213.8371 349.2063 L219.6113 353.1831 L223.0432 355.5712 L223.1299 355.3504 L221.3131 354.0557 L219.588 352.7566 L212.8649 348.1281 L210.1361 346.2245 L207.3262 344.3111 L204.3291 342.4167 L203.1314 341.6372 L201.4743 340.6783 L197.9682 339.1076 L193.7435 336.9524 L191.926 335.8663 L190.3347 335.2033 L189.9177 335.0127 L189.7826 334.5763 L190.0995 333.8202 L190.7324 332.4815 L191.3852 331.427 L192.0922 330.4096 L193.4131 328.7023 L194.3283 326.9092 L194.987 325.2073 L195.3947 324.6462 L195.6436 324.3873 L195.9093 324.2415 L196.3525 324.2201 L196.6725 324.3234 L198.3543 325.5359 L200.0445 326.508 L201.8928 327.6244 L202.399 327.9394 L203.8176 328.9593 L204.3272 329.2084 L205.83 330.1376 L206.1771 330.334 L206.5629 330.7333 L206.9378 331.2666 L207.2366 331.8331 L207.3786 332.0077 L207.6995 332.0267 L208.168 331.9043 L210.2976 331.6055 L210.4389 330.4988 L209.419 327.8453 L208.93 326.1828 L208.7712 325.4052 L208.6171 324.9611 L208.0841 323.8252 L205.762 316.8983 L205.4027 315.99 L204.8968 314.541 L204.7349 313.8336 L204.7926 313.6259 L205.0611 313.289 L205.4236 312.9297 L205.8933 312.5806 L206.2008 312.4772 L206.5249 312.5177 L206.9553 312.6801 L207.8916 313.095 L208.9951 313.6381 L211.5786 314.9081 L211.8462 315.1578 L211.9432 315.365 L211.9819 315.6868 L211.7692 316.1616 L211.6613 316.5677 L211.6625 316.9353 L212.0134 317.0075 L212.3219 317.1211 L212.8521 317.6008 L215.5965 318.7948 L215.8972 318.884 L216.0763 318.846 L216.2453 318.6437 L216.3551 318.3702 L216.3707 318.1464 L216.4477 317.9489 L216.5912 317.8431 L216.8127 317.7573 L217.0862 317.7832 L217.8925 318.0976 L219.7345 319.0518 L220.1531 319.3131 L220.3162 319.6387 L220.3172 320.0644 L220.1313 320.9912 L219.7561 321.9818 L218.6825 324.0777 L217.9327 326.6923 L217.6935 326.858 L216.8317 326.958 L215.8851 327.0409 L215.2397 327.1896 L214.8159 327.5494 L214.7522 327.6859 L214.5676 328.0827 L214.5267 328.3898 L214.4753 328.7745 L214.6565 329.8241 L214.6792 329.8733 L214.9624 330.4832 L215.2335 331.0677 L215.8592 332.0428 L216.5581 332.6171 L216.7599 332.7272 L216.8591 332.7716 L216.9642 332.7063 L216.8448 332.346 L216.172 331.5338 L215.8255 330.9844 L215.4708 330.3102 L215.3841 329.5745 L215.4774 328.8291 L215.5151 328.5444 L215.8442 328.0218 L215.872 328.0032 L215.9961 327.9208 L216.2749 327.7361 L216.4901 327.7112 L217.109 327.6391 L217.8519 327.7015 L218.6058 328.0193 L219.0443 328.2953 L220.0833 329.1382 L220.3297 329.5803 L220.6562 329.966 L221.5554 330.5193 L223.318 331.9969 L225.0699 333.3166 L225.5228 333.5107 L225.9598 333.7471 L226.3955 334.0947 L226.8768 334.5105 L227.7055 335.3359 L228.7077 335.9891 L229.1434 336.2168 L229.3595 336.424 L229.5276 336.7535 L229.7949 336.1281 L229.7444 334.784 L231.1392 332.9837 L233.66 334.3652 L234.9189 333.654 L235.7838 333.4424 L237.4946 330.4252 L239.2147 331.2418 L241.0116 331.9341 L242.0112 332.5298 L242.6737 333.6082 L243.484 335.273 L244.4263 337.5569 L245.351 338.8239 L245.7553 339.4689 L246.0475 339.833 L247.3878 341.9692 L248.8696 343.5394 L249.8194 344.1653 L250.9497 344.6709 L252.0526 345.0482 L252.9721 345.3138 L254.525 345.6341 L256.156 345.8486 L257.2666 345.9495 L258.7981 345.8779 L259.8913 345.7999 L260.3498 345.6741 L261.0453 345.5976 L262.2564 345.4801 L262.9953 345.4962 L263.1878 345.601 L263.3874 345.7779 L263.3833 346.7709 L263.3668 347.2652 L264.0106 345.7843 L264.1481 345.4835 L264.3627 345.3806 L264.8203 345.3085 L265.445 345.3553 L266.5295 344.9385 L266.5607 344.7362 L266.9025 343.8192 L267.128 342.3943 L267.4287 340.6077 L267.8956 339.0131 L268.229 338.5475 L268.6682 338.469 L268.938 338.5309 L269.1573 338.6689 L269.6816 338.898 L269.8781 337.9805 L270.6154 337.5057 L271.7358 336.9266 L272.0392 336.8837 L272.857 337.0329 L273.0155 335.8887 L273.3081 334.2458 L273.5398 333.808 L274.6012 332.4211 L275.0201 331.0809 L275.3223 330.6729 L275.7131 330.4779 L276.7957 330.4457 L278.0883 330.708 L279.6746 331.5801 L280.4553 331.7732 L281.6433 332.2178 L282.1455 332.5688 L282.676 332.7375 L283.0322 331.1243 L286.4688 331.5202 L286.785 329.2986 L287.0476 329.0787 L287.7357 328.9139 L288.1374 328.9705 L288.4559 329.2025 L288.0473 332.3367 L288.7014 331.5401 L289.2799 331.4188 L292.1394 331.9082 L292.752 332.2524 L293.2894 332.835 L293.4332 333.1845 L293.2601 334.4116 L293.5555 334.4749 L298.263 333.6506 L298.5297 332.0038 L301.7123 333.0646 L302.551 334.0674 L303.5429 334.0918 L305.7518 334.7104 L308.7479 336.2636 L307.8864 340.7846 L306.4592 347.0736 L312.4486 348.968 L317.0136 352.351 L324.9007 358.2239 L325.8726 359.0141 L326.0298 358.7002 L325.8539 358.4901 L325.6343 358.318 L325.4294 358.0957 L325.3196 357.8905 L325.3217 357.8535 L325.3012 357.8291 L325.3292 357.7189 L325.3517 357.3275 L325.5176 356.9838 L325.5585 356.8722 L325.6193 356.8235 L325.7219 356.6612 L326.196 356.219 L326.419 356.18 L326.5965 356.0372 L328.9354 356.5276 L329.0103 356.5203 L329.7074 356.6343 L331.3006 356.9527 L331.7513 356.8327 L332.173 356.8454 L332.992 357.0077 L333.0182 357.0311 L333.085 357.0433 L333.4421 357.386 L333.871 357.5673 L334.3968 357.2573 L334.656 357.0277 L335.0808 356.823 L335.4969 356.7972 L335.8182 356.9088 L335.8406 356.977 L336.3556 356.9804 L337.1846 359.699 L338.0982 360.6163 L340.0685 359.8662 L342.4358 358.4228 L343.1479 358.1372 L345.616 357.8427 L346.7712 357.8666 L346.386 361.5903 L348.7409 361.8735 L350.8809 362.4165 L352.9073 363.1818 L355.4627 364.4521 L356.1227 363.5893 L356.938 363.5829 L357.8759 362.6719 L359.1849 363.5162 L360.0583 364.1684 L360.7616 364.5651 L361.8046 365.3446 L362.8588 366.0903 L364.2387 366.9019 L367.0617 368.0566 L368.4952 368.2697 L369.0332 366.9117 L370.517 366.9083 L375.1216 367.189 L375.2292 368.566 L375.6465 368.5295 L376.8018 368.4276 L379.1959 367.6048 L380.8 367.9255 L381.8246 368.3589 L382.7285 368.6386 L381.7251 370.2399 L381.5502 371.5813 L381.8253 372.0487 L381.6949 372.6443 L380.7876 373.7761 L380.5231 374.6286 L380.0777 374.5155 L379.888 375.5084 L379.4012 375.4616 L379.3447 377.3377 L379.4018 379.0353 L379.6064 379.8201 L380.0456 380.306 L381.1843 382.1728 L381.7953 382.8405 L385.365 384.1931 L387.0961 385.2517 L387.6447 385.5198 L387.5877 387.2788 L387.5749 388.3218 L387.0063 388.933 L386.8534 389.1611 L385.8441 389.3492 L385.6713 389.4145 L384.4069 390.0744 L383.2101 390.0169 L384.2802 391.4196 L387.1139 392.0001 L386.5992 395.1096 L388.8137 395.9722 L389.9491 391.771 L391.3648 392.3159 L391.6483 395.7943 L391.7587 398.665 L392.6567 400.3902 L392.5481 401.5862 L392.1985 403.5089 L390.5379 405.6645 L390.0429 405.8974 L390.1593 411.6657 L390.2466 414.9576 L389.833 417.3841 L390.12 416.8724 L390.6905 416.7159 L391.3143 416.7047 L391.7381 416.9435 L393.1716 418.2242 L393.9726 419.1073 L394.3575 419.2656 L395.6619 419.482 L398.2357 419.6555 L398.8086 419.4382 L398.7353 419.2101 L395.0324 418.8665 L394.4822 418.4869 L394.6762 418.0332 L394.8637 417.8373 L395.1036 417.8154 L397.7254 418.118 L399.5148 418.3816 L400.2119 418.1063 L400.5465 418.1589 L400.9327 418.4148 L401.2811 418.9874 L401.6201 421.1165 L402.6166 421.1623 L402.9423 421.0936 L403.5336 421.2067 L405.6256 421.4683 L407.7621 421.4571 L409.3453 421.08 L409.5948 420.9347 L409.9844 420.7739 L410.324 420.7822 L410.4348 420.8202 L410.6313 420.7734 L413.4923 421.9298 L413.8439 422.02 L415.7477 422.5648 L415.7187 422.7251 L415.8912 422.9844 L415.9077 423.3674 L415.719 425.1223 L415.0041 426.974 L414.9146 428.4262 L413.6461 430.1484 L413.6879 433.4971 L414.608 434.038 L419.188 434.5102 L421.0363 428.1065 L436.3089 429.7302 L437.7652 431.8359 L437.6417 432.7783 L437.6488 432.8485 L437.6067 433.0454 L437.4564 434.1954 L440.8203 432.9464 L442.7073 432.5171 L444.1167 431.8217 L445.2006 432.485 L447.3795 434.3177 L447.2869 438.2574 L448.5245 439.5711 L451.2025 438.409 L453.1984 437.8028 L453.8549 436.0344 L455.062 431.0499 L455.6318 429.5446 L456.1459 429.222 L457.9758 430.9168 L460.4457 431.5874 L465.8738 433.078 L466.4349 433.5468 L466.6177 433.6228 L467.2602 434.0906 L468.4417 435.2226 L469.2529 435.8473 L469.8683 436.4077 L470.3355 436.7961 L470.4035 436.9174 L471.2868 437.6732 L471.7968 438.1692 L472.1499 438.8612 L472.2294 439.2525 L472.1233 439.7027 L472.682 440.6081 L472.919 440.5857 L473.026 440.6378 L473.1701 440.7582 L473.278 441.0998 L473.3872 441.2966 L473.5562 441.529 L473.6641 441.7615 L473.7717 442.1903 L473.8148 442.4432 L473.8528 442.5046 L473.9611 443.0518 L474.0051 443.1449 L474.5241 443.9031 L474.6089 444.1321 L474.6183 444.3499 L474.437 444.976 L474.4336 445.1729 L474.4046 445.2942 L474.496 445.7557 L473.7814 448.4352 L475.0674 448.1179 L475.3019 448.0512 L475.4386 447.9908 L475.5184 447.9971 L476.8356 447.6672 L477.4282 445.4419 L482.6185 447.1824 L485.9955 448.6505 L484.1263 451.71 L487.5743 458.6694 L487.8554 459.5835 L488.7409 458.0877 L490.1831 457.0021 L491.0963 457.5736 L492.978 459.5392 L493.304 458.6816 L493.7544 457.3017 L494.3828 454.5113 L494.7069 452.9506 L494.8881 452.8312 L495.1074 452.7898 L495.797 452.8614 L496.8531 452.4702 L499.8673 446.3209 L500.2687 446.681 L500.2856 446.6566 L501.0289 447.311 L501.2943 447.5444 L501.274 447.5829 L501.9795 448.2139 L502.7577 448.7636 L503.1576 449.112 L503.3282 449.3127 L503.3578 449.4837 L503.4433 449.5622 L503.375 449.703 L503.3357 449.9671 L503.1629 450.1742 L502.9898 450.4938 L502.4552 451.5926 L501.6608 453.5168 L501.3832 453.8545 L501.2575 454.0542 L501.157 454.2603 L502.4789 452.956 L503.7829 452.3308 L506.4266 452.9384 L508.338 452.974 L510.428 453.26 L512.0 452.992 L511.6248 452.5452 L509.4992 451.7412 L507.7307 450.6337 L506.3552 449.4014 L504.049 448.8708 L503.2755 447.7111 L496.7992 441.7649 L496.2695 441.3697 L495.1579 440.2071 L493.1181 438.6911 L491.5817 436.6275 L490.7966 435.6558 L490.4682 434.8479 L490.3166 433.8133 L486.6386 433.7056 L485.9356 433.4498 L484.8468 432.7764 L481.1049 431.0562 L476.2713 429.1221 L473.9679 428.3663 L470.9687 427.8419 L469.8642 427.2367 L468.6263 426.2426 L467.1482 425.5487 L465.2007 425.1286 L462.0839 424.1428 L459.2299 422.9873 L456.9952 422.0054 L456.4852 421.251 L456.43 421.2871 L456.3084 421.3923 L456.1331 421.4303 L453.8733 421.0419 L452.5315 420.6146 L449.633 419.8197 L446.9809 418.7539 L443.2316 417.1584 L442.1808 416.7998 L440.6259 416.4976 L439.3188 416.1901 L438.8531 416.0327 L438.2006 415.77 L437.1345 415.2764 L436.1012 414.8265 L435.0145 414.4021 L433.5361 413.7788 L431.8387 412.8952 L429.1261 411.6257 L427.338 410.3347 L426.9244 409.9838 L426.6375 409.6232 L426.5143 409.4156 L426.3857 409.0223 L426.3954 408.4136 L426.5392 407.9901 L426.7189 407.649 L426.9665 407.3951 L427.0595 407.3171 L427.5223 407.2864 L427.6689 406.8833 L428.1477 406.4905 L428.2724 406.337 L428.5893 405.9471 L430.1747 404.5616 L431.7526 403.2438 L433.7285 401.9605 L434.125 401.8621 L434.6808 401.7671 L435.2497 401.8514 L436.2253 402.1194 L438.0961 402.5566 L440.2875 402.9245 L441.1122 402.9445 L441.6555 402.8929 L441.8152 402.9206 L442.0298 402.9377 L442.6031 403.022 L444.2069 403.5381 L444.7387 403.7414 L445.3275 403.891 L448.0196 404.2073 L449.6917 404.2458 L450.7228 404.2692 L453.2739 404.1059 L455.0682 403.9343 L456.6224 403.657 L457.424 403.2574 L458.4836 402.5766 L459.0353 401.77 L459.4096 401.3465 L460.6528 400.3303 L461.7922 399.4457 L464.9939 396.3241 L465.201 396.0414 L465.9842 394.8454 L466.1904 394.5939 L466.486 393.567 L466.5961 392.873 L466.7664 392.3164 L467.1585 391.5546 L467.3647 391.0633 L467.6151 390.6325 L467.9177 390.2246 L468.2171 389.513 L470.0648 383.7973 L470.4852 382.6119 L470.5093 379.8571 L471.4103 376.1113 L471.2469 372.3056 L471.5239 371.4394 L471.8005 370.3232 L472.0847 369.3693 L472.3741 368.5816 L472.8292 367.6326 L473.2297 367.2841 L473.5132 366.8103 L473.9617 366.6499 L474.2125 366.4335 L475.466 366.0645 L476.9812 365.5434 L478.2089 364.8464 L479.1015 364.4179 L480.2765 363.7808 L480.5534 363.7214 L480.6532 363.6951 L482.9869 363.1891 L483.9996 362.7631 L484.3231 362.4501 L485.7457 361.0463 L488.1763 358.28 L489.3796 356.4408 L490.6045 354.4837 L490.3977 354.0649 L490.3462 354.0464 L490.3596 353.9884 L490.1928 353.6506 L492.1995 348.5536 L492.4257 346.6451 L493.4771 343.8324 L493.8012 343.4673 L493.9194 343.2386 L494.8086 342.2217 L494.8613 342.2403 L495.918 340.0958 L496.8057 338.1253 L498.3434 335.5182 L498.7251 334.5983 L500.4447 330.4525 L475.5948 324.9275 L474.632 326.4948 L471.8938 329.9728 L473.0494 331.6191 L470.8386 335.6591 L469.9198 335.6167 L469.8421 335.6069 L469.8087 335.5689 L469.2813 335.564 L469.125 335.662 L469.0854 335.859 L468.8122 335.8575 L467.9339 336.4074 L467.4348 336.7633 L466.1944 337.2259 L465.4583 337.6159 L464.376 337.904 L460.0265 338.9629 L459.6092 340.1772 L455.3075 342.0014 L454.6643 342.3768 L454.1824 343.5657 L453.2171 343.9674 L450.9873 345.1286 L450.0529 345.1086 L449.2678 347.8292 L452.1226 347.917 L453.8705 347.684 L455.1815 348.208 L455.7934 349.9561 L451.4237 358.1713 L449.2388 360.356 L448.0442 362.7738 L449.7048 365.0462 L450.7827 365.3957 L453.6666 364.5218 L454.5115 365.4542 L456.2304 368.5709 L456.5217 369.7656 L453.9579 369.2411 L452.8475 369.2041 L452.5103 370.2467 L452.4642 371.9025 L451.4368 372.1632 L450.5017 371.8415 L448.6156 371.5345 L446.3924 371.3814 L444.6598 370.5226 L443.4331 369.2348 L442.881 367.6399 L440.4126 368.451 L438.3734 369.9659 L439.087 370.9564 L440.4706 372.4713 L439.888 373.4764 L437.8488 375.5445 L433.0567 378.7926 L432.0371 379.6085 L431.1341 378.7054 L430.4785 378.0937 L429.3862 378.1663 L428.4393 378.9676 L427.7403 379.958 L426.4874 380.6862 L424.7688 379.9873 L424.1425 379.7543 L423.7876 379.3273 L421.7518 377.6433 L419.8112 376.6407 L418.7937 376.2176 L418.4032 375.2935 L418.6765 375.0186 L420.8941 373.9959 L422.7499 372.8442 L423.8606 371.9946 L425.188 371.2274 L426.1465 370.7448 L425.9195 370.505 L425.1151 370.6088 L421.2231 372.2948 L420.924 371.8206 L413.8417 374.4663 L411.0498 367.3635 L415.8444 364.5393 L416.6906 363.2291 L417.5739 363.2203 L419.1499 364.4501 L419.3807 364.8732 L419.5345 365.3728 L420.1109 365.4883 L420.5722 365.4113 L421.0335 365.2193 L421.7253 364.9497 L422.1866 364.7192 L422.84 364.4116 L423.34 364.066 L423.8637 364.0041 L424.1563 363.6858 L425.3253 363.6375 L425.9076 362.4599 L425.9447 359.4933 L425.3705 358.8981 L424.3072 358.3039 L424.31 357.7131 L412.3739 360.5237 L405.8501 361.9661 L397.154 363.3743 L395.6787 363.0721 L396.7859 361.4148 L398.2519 350.9929 L398.3186 346.8694 L398.7076 345.1359 L398.1655 340.7636 L398.381 340.4609 L398.4234 340.4068 L398.4272 340.1689 L397.9712 339.5566 L398.2185 338.7094 L399.3361 337.7504 L401.9716 336.7979 L403.0374 336.9695 L405.371 336.4137 L405.8632 335.4772 L407.1838 335.3125 L407.7396 334.1288 L408.9826 334.025 L409.238 332.7024 L409.0998 331.4592 L409.005 330.8815 L409.6416 329.7617 L410.8165 330.1268 L411.4198 330.8888 L412.3396 330.8762 L412.5311 332.6351 L413.2285 333.3512 L414.0522 333.7164 L413.5423 336.1178 L412.9549 336.324 L412.2245 336.1495 L411.3992 336.2767 L410.9544 337.9435 L411.6849 338.4676 L412.8436 338.2769 L413.0501 337.864 L413.066 337.6871 L413.1137 337.2449 L413.6374 337.0543 L413.9037 337.3044 L414.1321 337.4233 L415.2446 338.3223 L415.6566 338.5407 L416.0415 338.7079 L416.7461 338.8044 L417.6032 338.7098 L418.7975 338.507 L419.1627 338.5285 L419.319 338.6294 L419.8608 338.3881 L420.269 336.9914 L420.3529 336.3723 L420.4465 336.3835 L420.464 336.324 L420.0501 335.4226 L418.7401 335.488 L417.1095 335.6566 L417.413 334.2809 L417.7514 331.9804 L417.8568 331.7347 L417.9541 331.6908 L417.9597 331.6635 L417.995 331.6723 L418.1344 331.6094 L418.4497 331.6513 L419.067 331.8526 L419.513 332.0515 L420.4705 332.2904 L421.9299 332.111 L423.3662 331.879 L425.96 331.8975 L428.6093 331.7181 L429.9049 331.583 L430.8095 331.4231 L431.3241 331.2506 L432.5159 330.6626 L435.2101 330.3482 L435.4948 329.7256 L435.0304 328.9339 L431.3484 329.1362 L430.2034 329.9445 L426.9927 328.9788 L425.3087 329.1138 L424.7476 328.5073 L423.1423 328.0749 L421.9128 328.461 L415.5559 326.8337 L415.3195 326.3969 L413.6998 326.3817 L411.1144 327.4811 L409.8188 327.6927 L408.9601 327.838 L404.9185 327.7785 L402.5842 328.851 L399.0975 330.5334 L397.9337 331.1082 L395.3777 331.3232 L394.4632 331.4699 L394.0269 331.508 L393.9252 331.4456 L393.8229 331.4543 L393.8095 331.3749 L393.7405 331.333 L393.6139 331.0414 L393.2209 328.7867 L393.3438 328.6472 L393.3238 328.5293 L391.3445 329.0148 L381.7149 331.3763 L376.818 334.238 L373.0184 337.8972 L372.6245 338.3657 L371.2013 339.952 L370.1982 340.7027 L369.9646 340.8377 L369.1483 341.6236 L368.0021 341.5037 L362.5298 340.672 L357.5025 340.3264 L357.496 340.3761 L357.7121 340.4609 L357.3859 341.6962 L357.2212 343.4931 L357.1825 344.2516 L356.8931 345.619 L356.6323 347.4212 L356.6376 348.0891 L356.4842 348.3377 L356.4199 348.382 L356.3416 348.965 L351.9429 348.4435 L351.6753 348.4956 L350.1523 348.365 L347.9783 348.0189 L347.3963 347.9043 L333.4823 346.2547 L333.3785 337.6471 L333.1402 334.1932 L333.0108 329.693 L332.9471 325.2034 L332.856 321.6191 L332.8517 321.4519 L332.9933 321.214 L333.449 320.9473 L334.5699 320.7284 L336.723 320.6757 L337.5748 320.7888 L338.4132 320.8113 L339.1624 320.9253 L340.1162 321.3349 L340.9306 322.2154 L342.1251 323.069 L342.1251 323.0671 L343.0933 323.7301 L343.7985 324.556 L344.907 326.3788 L345.339 327.0077 L346.494 328.4308 L346.9715 328.9212 L348.0825 329.9591 L352.3605 332.6707 L354.779 333.3405 L355.4075 333.4741 L356.6099 333.6774 L358.3185 333.5838 L363.2344 333.281 L363.5977 333.1582 L363.5987 333.1606 L363.5987 333.1592 L364.3697 332.9115 L365.8899 332.7306 L366.7763 332.7194 L367.0817 332.7921 L367.8255 332.9983 L372.389 332.717 L372.6638 332.6668 L372.7932 332.6234 L373.8587 332.4484 L374.4569 332.249 L374.5798 332.2134 L374.7473 332.13 L377.7116 329.5891 L380.3681 327.9325 L382.3065 327.3636 L383.2578 326.979 L384.7568 326.3081 L385.5094 325.9615 L385.9099 325.8655 L387.2196 325.3628 L388.1622 325.1239 L389.096 325.0528 L390.2064 324.5214 L392.3077 322.7624 L393.1935 322.4094 L393.3563 322.2763 L395.0845 321.467 L395.7071 321.408 L396.1066 321.2486 L397.7541 320.823 L398.2849 320.6045 L399.1112 320.4251 L399.5572 320.1199 L399.8095 319.8484 L401.9027 318.0382 L402.2667 317.7954 L402.5936 317.5355 L403.8474 316.3215 L403.2476 316.3357 L401.3909 317.6067 L400.7197 317.5355 L400.6055 316.9353 L400.9249 316.4775 L404.1762 315.0359 L405.09 315.6073 L407.6894 313.7648 L407.9729 313.6361 L408.3428 313.3831 L409.1117 313.092 L409.4654 312.958 L409.7402 312.8331 L409.8278 312.7766 L409.4018 311.5109 L409.2901 311.2476 L409.2333 311.0112 L409.1962 310.9312 L409.3219 310.8464 L409.3375 310.8176 L413.4661 307.8898 L414.3254 307.4135 L414.6857 307.2506 L416.8007 305.9952 L417.995 305.7719 L419.7229 305.3799 L421.3906 305.2277 L421.391 305.2316 L422.0238 305.236 L422.9558 305.3784 L423.5106 305.3004 L424.2804 305.12 L426.3702 304.6388 L426.4559 304.6661 L426.7943 304.6158 L427.1349 304.6071 L427.3947 304.6383 L427.6736 304.7309 L427.8972 304.8981 L428.0235 305.1619 L428.041 305.1673 L428.0566 305.2307 L428.2328 305.8274 L428.5566 307.199 L431.4008 305.7026 L431.3166 299.8274 L431.0546 298.569 L425.4847 299.2257 L419.1493 300.5003 L414.735 302.5061 L414.3632 302.3043 L414.2553 302.3413 L413.6932 302.216 L413.2029 302.0356 L412.7965 301.7801 L411.5105 301.6563 L411.2311 301.8284 L409.9878 303.1585 L409.8312 303.4194 L409.6123 303.5846 L409.5855 303.589 L409.4722 303.7099 L407.2172 304.0015 L404.1652 304.9128 L403.7021 305.4525 L403.626 304.2204 L402.2224 303.4013 L402.2224 301.4364 L397.8183 304.0839 L397.7185 309.3593 L395.4916 310.6123 L394.5777 310.8708 L394.5608 310.7142 L394.4635 310.7391 L394.1594 307.6734 L394.2043 307.3984 L393.957 305.1517 L391.6895 305.9123 L389.5464 308.5729 L388.5589 308.6885 L388.3353 308.8357 L388.5237 310.8269 L386.5347 312.1403 L385.8429 311.4782 L385.7477 311.4841 L385.2737 311.4202 L384.9147 311.3973 L382.7532 311.5655 L381.839 312.8795 L379.9963 313.1315 L377.9829 313.0506 L377.0117 313.5362 L375.7107 314.7399 L368.0317 318.0133 L363.1866 317.2781 L358.316 318.1693 L354.4375 319.7026 L352.7083 319.3886 L352.3942 319.3423 L351.8415 319.2546 L351.7445 319.2087 L350.2895 318.9328 L349.933 316.6784 L350.3328 313.5937 L350.442 310.0326 L350.4258 309.9517 L350.4514 309.7333 L350.4635 309.335 L350.7308 309.1711 L350.8054 309.1351 L351.0306 308.9849 L351.2645 308.8962 L352.315 308.3501 L351.2617 308.1024 L351.0231 308.1531 L350.5368 308.1804 L350.0746 307.9176 L350.0521 307.8182 L349.9876 307.803 L349.9461 306.8494 L349.7842 304.8899 L349.7106 301.8304 L349.7218 301.6841 L349.4957 296.4782 L349.4383 295.7673 L349.4455 295.3173 L349.3001 291.971 L344.7108 290.3487 L344.3917 279.3166 L344.5255 268.8594 L341.1305 267.04 L338.4806 265.6233 L337.9354 265.2913 L338.3636 263.6176 L339.3711 262.1405 L338.159 261.4364 L332.5997 254.9075 L331.6359 255.3908 L327.9667 254.1326 L329.2037 249.3392 L327.7215 246.3926 L332.707 247.3592 L332.7759 246.4365 L331.7295 246.2166 L330.4232 245.8357 L329.1662 245.6245 L328.302 245.5367 L327.8023 245.3948 L327.3301 245.3153 L326.9673 245.1339 L326.8978 244.9793 L326.6922 244.8613 L325.6561 242.2663 L328.8038 242.1302 L330.5452 242.3336 L330.3387 241.562 L328.1925 241.0568 L327.5431 240.9544 L327.5256 240.8997 L327.2718 240.8397 L327.6186 238.111 L327.6719 237.1225 L327.7487 237.1547 L328.0303 235.0829 L323.1428 236.6435 L321.2645 235.7652 L323.7155 235.0907 L326.3591 234.3196 L329.0995 233.8924 L330.6415 233.094 L327.3918 233.2452 L325.2438 233.686 L323.2092 234.0894 L322.4008 234.2957 L321.1207 234.5391 L318.7996 235.0765 L314.5502 235.6691 L310.7307 236.8669 L296.2993 239.126 L296.2235 240.017 L293.0474 243.1787 L285.0159 236.8094 L281.7163 231.4562 L282.6442 230.1398 L283.5646 229.1961 L284.8693 228.9961 L286.5916 228.7708 L287.7685 228.1065 L289.2132 227.7222 L294.7706 227.6407 L301.4232 226.8482 L301.9154 226.2229 L301.3929 222.4761 L299.9017 215.695 L298.6039 202.7931 L297.7347 197.7294 L295.8732 192.7846 L303.1936 191.0773 L303.1936 186.3846 L311.0504 184.4528 L313.5646 183.8674 L311.9851 181.14 L310.0136 178.9092 L307.7005 177.3745 L306.3304 175.027 L306.6182 173.3 L305.6888 171.5838 L305.458 166.6175 L321.5671 162.8732 L323.2092 164.2748 L324.2975 164.086 L324.9406 163.8342 L335.2412 159.322 L334.9458 155.961 L334.511 154.8233 L333.9967 154.1061 L333.2827 153.7909 L331.5613 152.7595 L331.2485 152.3756 L331.2086 152.115 L330.3727 151.552 L332.4553 149.9834 L339.3754 147.9074 L344.2398 146.2184 L349.1448 145.2006 L360.8449 140.4167 L360.8698 140.3523 L360.4681 137.3979 L361.1786 136.9803 L361.318 136.6807 L361.1976 135.1999 L360.7329 133.2111 L360.6007 132.8027 L359.3172 129.7863 L356.8594 130.7378 L354.0588 124.6527 L354.8729 122.8239 L344.7545 119.9103 L343.6457 119.4765 L342.8241 118.6826 L342.4994 117.1461 L342.1956 116.3887 L341.5562 115.488 L340.2952 113.7947 L339.9721 112.9984 L341.264 104.4475 L339.9796 97.4434 L339.188 96.6342 L334.2334 93.5906 L331.0751 92.3803 L329.2966 90.9826 L327.9417 89.7567 L326.9864 87.688 L326.9867 85.7706 L327.9898 82.9546 L324.9487 81.6809 L325.9 80.2851 L324.9175 76.0879 L324.6774 75.0679 L324.7241 76.2783 L323.0087 74.0528 L318.4643 75.0679 L317.1325 73.3695 L314.656 76.2295 L310.9568 75.4925 L308.028 74.9801 L308.7704 78.3622 L303.1156 78.7624 L299.7346 76.0342 L300.8877 76.0342 L301.0789 74.3261 L298.3497 74.3261 L294.1016 73.7648 L293.7669 73.1826 L293.7389 73.1796 L293.4267 73.0254 L291.8631 70.6374 L291.7511 69.999 L291.7611 69.4514 L291.9701 68.2927 L291.9642 67.6387 L291.7798 66.9618 L290.6439 65.1896 L290.536 65.1091 L290.4779 64.9304 L289.1767 62.9005 L282.7203 76.0635 L281.532 76.3222 L280.4718 81.6423 L280.3196 84.6525 L279.8695 84.6662 L279.8399 84.8135 L279.9116 84.8526 L279.9743 85.0166 L279.975 85.1513 L279.8499 85.343 L279.713 85.4514 L279.6075 85.9804 L275.861 86.6183 L275.6255 86.7007 L274.7447 86.831 L274.5978 86.833 L272.7831 87.1419 L272.4067 92.3666 L272.4357 92.7375 L272.3667 92.9205 L272.3589 92.9932 L272.2604 92.9361 L272.2357 92.94 L272.1294 92.8605 L271.7301 92.6301 L270.1391 91.7107 L269.9857 91.5873 L265.6936 89.0208 L256.4208 71.7101 L253.598 70.8658 L254.5369 67.4933 L254.6866 67.2151 L252.7434 63.003 L256.0964 61.9244 L256.6266 60.6603 L259.3682 57.2388 L254.6148 58.0783 L251.58 56.5262 L249.2252 53.8124 L244.634 52.6166 L243.5018 52.4165 L242.3727 52.519 L243.887 55.4036 L245.1758 57.0421 L245.4967 57.6864 L246.9548 61.2474 L247.6688 62.6077 L248.5349 66.4713 L244.5192 67.1741 L244.5186 68.3376 L244.0663 70.4021 L242.7149 71.4124 L241.8755 72.3963 L241.0895 73.0674 L240.626 73.4022 L239.7231 73.9088 L239.0456 74.1948 L238.7961 74.3417 L237.0735 75.6292 L235.8384 78.0011 L230.4924 74.1553 L231.0132 75.9171 L230.8011 76.167 L230.7759 76.2295 L230.6424 76.3817 L230.5753 76.433 L227.0115 80.6316 L224.3716 76.9713 L224.0223 76.5589 L223.2781 77.1714 L220.9949 82.1201 L221.9525 86.0341 L220.7018 92.0172 L220.9341 95.3937 L221.3153 96.0184 L221.9703 96.646 L221.6097 97.1525 L221.1322 97.1979 L220.6035 96.7104 L219.7398 96.075 L219.3465 95.9559 L218.9748 95.9842 L218.7483 96.1599 L218.554 96.2512 L218.2593 96.2326 L218.1594 96.4249 L217.9866 96.3927 L218.1061 96.0647 L218.3185 95.7046 L216.468 97.6039 L215.1755 99.6081 L214.7706 100.5602 L214.5199 100.6251 L214.4721 100.6988 L214.0115 100.9569 L213.6294 101.1243 L213.0823 101.1346 L212.8764 101.0492 L212.2823 101.2029 L211.9092 101.7602 L211.6451 103.352 L208.6714 105.3752 L207.1134 106.316 L206.8408 108.1113 L205.141 110.4531 L205.3534 112.5875 L204.5948 114.7521 L205.0097 116.4005 L206.183 116.1277 L206.6078 115.0859 L206.9516 112.3445 L208.3373 109.9876 L208.9746 110.0788 L209.0859 112.6885 L213.5367 113.9631 L213.213 109.6338 L211.8843 107.5452 L214.0676 102.4165 L216.4817 103.4413 L213.9616 107.5501 L213.4332 109.9183 L213.65 111.9595 L215.8735 116.1384 L214.5735 116.5727 L213.1718 117.7243 L213.0836 118.3538 L212.9117 119.579 L213.2869 122.0095 L213.5817 122.0285 L213.8602 123.1084 L214.0548 126.078 L213.5842 129.335 L213.5121 129.3194 L213.4195 130.7739 L211.9941 129.1359 L211.185 128.8119 L210.9523 128.7509 L210.5465 128.5611 L209.5968 128.1644 L209.182 129.3379 L208.8498 129.5487 L208.4119 129.8863 L208.0342 130.1249 L207.1197 131.1623 L205.2782 130.9915 L204.6082 131.6395 L204.6326 133.7922 L202.7487 138.9573 L202.5466 140.505 L200.7662 141.8101 L202.1723 143.4588 L205.1294 144.9401 L205.6456 145.5533 L205.7171 145.6021 L206.7005 145.5265 L206.479 147.361 L203.9423 150.1888 L201.4278 148.0406 L199.3543 148.5193 L197.9526 148.0358 L196.9136 147.5957 L195.9776 147.38 L194.9636 147.7708 L195.1467 149.6736 L194.7705 149.6853 L194.7462 149.718 L194.2166 149.8146 L192.5904 149.7527 L192.2292 149.7639 L191.3456 149.8683 L190.2704 150.1035 L187.6068 150.9026 L187.3161 150.6709 L187.244 150.5713 L186.8292 150.1518 L187.0391 147.481 L186.7799 147.0253 L186.4181 149.979 L186.1025 150.0542 L185.1356 148.7154 L184.9469 148.5715 L184.2404 148.5027 L183.9622 149.075 L183.9117 149.2296 L183.8696 149.2653 L183.6569 149.7024 L182.5119 150.1459 L180.8937 149.9615 L180.9633 149.516 L180.9336 149.4975 L180.8819 149.4082 L181.0431 148.1431 L181.0887 147.4654 L179.7437 147.0556 L179.6845 147.0644 L178.7011 146.9434 L177.9556 147.6098 L176.9946 146.9648 L175.776 146.4038 L174.2324 145.6441 L173.0781 145.3904 L171.6489 145.3997 L165.6261 145.3099 L164.6146 145.4514 L162.6412 146.6194 L160.1741 144.1067 L157.5915 144.1067 L155.6758 145.0976 L154.0221 144.1643 L151.2384 144.3936 L146.5003 146.0583 L142.3801 150.02 L141.8087 149.4614 L141.1038 149.0042 L140.2008 148.1899 L139.8952 147.7694 L139.6512 147.2556 L139.5786 146.8541 L139.271 146.1505 L138.5374 145.6724 L138.1133 145.4402 L137.4994 144.9615 L137.2886 144.76 L137.2034 144.5819 L137.2727 144.4209 L137.4414 144.1872 L137.6114 144.0511 L137.6972 143.7057 L138.1756 143.0089 L139.6709 141.9687 L141.333 140.7489 L144.3204 138.8036 L141.2257 137.3033 L139.6503 137.5512 L138.6469 138.6299 L136.6071 140.0473 L135.9533 140.4664 L135.284 140.7675 L133.8536 141.2925 L132.9123 142.14 L132.8674 144.1926 L133.7797 148.4871 L138.9959 157.9871 L139.7819 161.1632 L146.4223 155.7819 L146.558 156.3606 L147.5077 158.0647 L147.6696 158.7102 L147.688 159.643 L147.7476 160.2553 L147.64 160.9754 L148.0317 162.6463 L145.8076 163.705 L145.2125 164.145 L144.8319 164.1694 L142.692 165.1881 L139.4232 163.8123 L136.3261 164.2758 L136.4798 165.8164 L127.9297 168.6899 L124.1257 170.6954 L123.4299 170.2817 L122.7128 168.5411 L122.574 165.3871 L121.6012 162.8414 L121.1274 163.1156 L121.1352 163.1859 L120.8679 163.4118 L119.6084 163.9943 L118.0814 164.8773 L117.8509 165.1676 L117.7826 165.3032 L117.6413 165.432 L115.5921 168.0152 L113.7887 168.5879 L112.6839 168.7601 L111.9634 165.4564 L113.4668 157.5334 L112.6371 156.182 L109.3154 156.4894 L93.5113 158.7434 L93.0918 158.1477 L93.0572 158.134 L92.6158 157.6856 L92.1392 157.028 L90.256 154.1212 L86.6557 149.0394 L85.8647 148.2958 L85.5141 148.1758 L84.0148 146.557 L82.9247 145.5324 L79.7595 143.5251 L79.4679 143.5046 L78.7381 143.1133 L78.4234 142.9201 L77.9661 142.3947 L77.6895 141.6184 L77.1857 140.5338 L76.6814 140.0107 L76.1989 139.7624 L75.3427 139.2828 L73.1023 137.9888 L70.2503 137.3335 L68.8804 136.8905 L67.5629 135.9459 L66.1946 134.3021 L66.0268 134.0669 L66.048 133.7166 L66.1538 133.4877 L68.9341 131.2384 L75.1169 126.4859 L76.1674 125.5749 L76.2191 125.3563 L74.7991 124.2223 L74.0583 123.5695 L73.829 123.2923 L73.4778 122.819 L72.2536 120.9175 L71.1573 119.6288 L70.7896 119.4931 L70.2297 119.3858 L69.1031 118.9774 L68.3205 118.5119 L67.9042 118.1044 L67.4547 117.5145 L67.1918 116.5834 L66.6051 114.9273 L66.3921 114.6726 L66.2392 114.4896 L65.6681 114.0382 L65.1522 113.8708 L65.0013 113.8055 L64.7976 113.6542 L64.675 113.5166 L64.636 113.4907 L64.3344 113.0974 L64.1389 112.5851 L64.1857 111.7975 L64.4321 109.5464 L64.618 109.1995 L64.9579 108.7105 L65.0942 108.3485 L65.0356 108.0425 L64.8123 107.7297 L64.7549 107.6233 L64.6417 107.4135 L64.5553 106.9206 L64.5365 106.2272 L64.555 105.8964 L64.6176 105.2 L64.5503 104.2401 L64.5852 103.759 L64.6307 103.4769 L65.0624 103.0621 L65.6344 102.9206 L66.9242 103.2676 L67.5707 103.6902 L68.0261 104.4339 L69.595 106.2423 L69.6545 106.3599 L69.7235 106.4966 L69.7076 106.6069 L69.6346 107.1085 L69.3327 107.313 L68.978 107.4325 L67.2018 107.6941 L66.5611 107.8283 L66.2904 108.0327 L66.2299 108.3392 L66.3213 108.9862 L67.2314 112.4391 L67.0349 113.5903 L66.922 113.9933 L67.092 114.6394 L67.3808 115.2376 L67.5807 115.4519 L67.9166 115.444 L68.1584 115.3987 L68.2831 115.387 L68.3733 115.3367 L68.9403 115.02 L68.998 114.9878 L69.4013 114.4623 L69.2235 113.4878 L68.9387 112.1957 L68.9119 111.7462 L69.008 111.4051 L69.1989 111.2407 L69.2996 111.1055 L69.3901 110.9918 L69.6393 110.9045 L69.9109 110.883 L70.4243 111.0314 L70.8847 111.4818 L71.2565 112.7968 L71.5465 113.0818 L72.0524 113.2053 L72.6685 113.4605 L73.0474 113.7186 L73.5171 114.9029 L73.7136 115.6466 L73.7302 116.5434 L73.5549 117.8878 L73.6051 118.6743 L73.7389 119.0403 L74.5146 120.0645 L76.6514 121.5211 L78.9873 124.1301 L79.8456 125.027 L80.3016 125.3583 L80.4005 125.3392 L80.6179 125.2846 L81.0334 124.983 L81.1372 124.6893 L81.0421 124.3165 L80.2773 123.3762 L79.7078 122.4072 L78.846 121.0809 L78.2103 120.4656 L78.0915 120.3461 L77.0257 119.7274 L76.6686 119.3638 L76.4927 119.115 L76.3923 118.7734 L76.4434 118.5714 L76.4684 117.7292 L76.3311 116.9299 L76.3071 116.5141 L76.347 116.3204 L76.4216 116.1087 L76.5404 115.9408 L76.7444 115.7163 L77.1106 115.6182 L77.4649 115.609 L77.982 115.7066 L80.8191 117.6316 L81.8848 118.4914 L82.3939 118.7041 L82.7298 118.7339 L84.1926 118.6831 L84.7731 118.7832 L85.4742 118.9788 L85.9767 119.318 L87.3253 119.9777 L87.7982 120.2939 L88.5811 120.998 L89.2002 121.6733 L89.713 122.3681 L90.2678 122.6819 L91.0192 122.9034 L91.2478 122.8761 L92.3095 123.305 L92.807 124.3717 L93.2137 125.412 L93.1847 126.3834 L93.2384 127.6433 L93.4461 128.6377 L94.1682 131.1808 L94.6451 132.064 L94.8868 132.8417 L94.9407 133.2072 L95.5982 134.2767 L97.0074 136.1552 L97.3779 136.6802 L98.0429 137.395 L98.7045 138.0439 L100.6439 140.0434 L101.4729 140.8338 L102.1254 141.1968 L102.8206 141.3535 L103.339 141.3496 L105.0822 141.0368 L106.0616 140.7777 L108.0244 139.9249 L108.4657 139.759 L108.8478 139.6887 L109.1242 139.6677 L109.4177 139.7643 L109.7024 139.9351 L110.1023 140.523 L110.2271 140.8714 L110.4647 141.7648 L110.5137 139.8595 L110.4438 139.6233 L110.1637 139.1105 L109.0144 135.4868 L108.9345 135.2867 L105.5569 132.5187 L105.4933 132.2782 L105.4325 132.2269 L105.1287 131.3199 L104.9397 130.184 L104.8324 129.778 L104.8558 129.6785 L104.8196 129.4618 L104.9712 127.7389 L105.5569 125.897 L105.313 123.9886 L102.9526 124.1409 L100.6819 120.5056 L94.865 115.5431 L94.8587 112.8105 L95.8203 112.1673 L97.0717 113.0086 L97.338 114.3417 L98.61 114.6696 L99.943 113.7674 L99.4714 111.7365 L98.3511 110.1994 L96.7775 109.4923 L96.0087 109.2088 L94.6532 109.3303 L93.7125 109.7856 L92.3672 110.0081 L90.0813 111.0801 L87.6051 110.8401 L87.6092 110.9455 L87.3799 111.188 L86.6233 111.0079 L85.7116 110.6566 L83.6524 110.457 L82.028 110.1384 L79.4897 109.4854 L79.011 108.8472 L78.7499 107.7883 L78.9754 106.5171 L78.9377 106.1218 L78.9764 105.7026 L78.5188 105.4406 L77.8426 104.4871 L77.7637 104.409 L76.1221 105.1219 L75.3726 105.484 L75.2819 105.4869 L75.2254 105.5113 L75.1958 105.4894 L74.9244 105.4982 L74.6079 105.3718 L74.4382 105.1288 L74.1544 102.9826 L74.213 102.7342 L74.1806 102.4858 L74.3845 102.3248 L74.4918 102.1262 L75.6215 101.3849 L75.9481 101.2497 L76.8118 100.8271 L80.0752 99.4783 L79.3915 99.0459 L79.1329 99.1211 L75.0713 100.7403 L73.9108 101.1463 L73.3309 100.8115 L72.1831 101.1868 L72.0459 101.2034 L70.9957 102.0574 L70.9449 100.3674 L74.2227 97.9309 L73.7966 97.7942 L72.7664 98.1085 L71.8828 98.4242 L69.6396 99.6569 L69.2431 99.693 L68.9135 99.857 L68.3642 99.9614 L68.1393 99.794 L67.8093 99.8243 L66.9416 98.1192 L65.3777 97.5756 L60.0124 96.2843 L59.9631 96.2258 L59.8193 96.1916 L59.3365 95.8603 L59.0776 95.4586 L58.7792 93.9595 L58.9407 93.3993 L59.1341 93.0337 L59.9753 92.4423 L60.8904 91.905 L62.4346 90.5985 L62.5189 90.5014 L63.1757 89.5615 L62.8354 89.177 L62.5198 89.0154 L61.9995 88.9598 L61.0133 89.7138 L59.8384 90.1344 L59.0989 90.9177 L57.5322 90.7728 L56.952 91.9767 L57.7932 92.3974 L57.8475 92.5125 L58.1413 93.1367 L57.9239 94.3118 L58.5911 96.1536 L56.0893 96.0286 L55.1162 92.9395 L55.9271 92.2612 L56.1548 90.9192 L54.8654 90.1603 L54.2241 88.6309 L53.6053 86.0917 L52.8961 83.3558 L46.8021 83.3016 L46.1914 81.7375 L45.7806 80.8419 L45.6971 80.4203 L45.8309 79.5042 L47.6215 79.7512 L49.4517 79.3603 L49.0541 79.2368 L48.774 79.1338 L48.7618 79.1118 L48.6997 79.0855 L48.2696 78.4257 L47.7079 76.5613 L47.3514 76.5076 L44.6784 77.6214 L43.7411 77.2544 L43.2545 76.7097 L43.1869 76.6653 L43.0287 76.4569 L42.8647 76.2734 L42.807 76.165 L42.5818 75.8683 L41.9876 75.1138 L41.7415 74.41 L41.41 73.7004 L41.1171 72.3778 L41.1246 72.1987 L40.7032 70.6657 L40.4328 70.2616 L40.356 70.2289 L39.9964 69.9233 L39.8442 69.5822 L39.8511 69.3933 L39.2457 68.4889 L37.2957 67.2375 L35.2168 66.4976 L33.1458 66.5513 L31.8389 65.3019 L31.712 63.3984 L31.5267 62.8156 L31.5595 62.3803 L31.6874 62.2495 L31.7204 62.1294 L29.9214 62.5779 L28.6669 62.8908 L27.8903 65.9071 L27.9969 67.7051 L28.8316 69.6051 L31.8034 74.5037 L32.7659 76.2461 L33.7999 77.6833 L36.2701 78.4281 L37.2392 79.5213 L36.9417 79.9962 L32.7403 79.1821 L31.9503 79.3886 L31.4385 80.0391 L31.1559 81.084 L27.482 83.5247 L26.8008 82.3929 L25.4094 83.0952 L24.6066 83.3626 L22.9497 84.7725 L21.5914 85.6681 L20.6947 86.4904 L19.4608 87.7758 L19.0594 88.4044 L18.0052 90.2677 L17.0588 92.0553 L16.7435 93.3387 L17.008 94.4621 L19.444 96.3214 L21.8902 95.219 L22.8371 95.2503 L24.0217 94.9111 L26.0582 95.4972 L27.7374 95.321 L28.394 95.8676 L28.724 96.8885 L29.8964 97.2569 L32.2235 97.7244 L33.3108 98.7331 L34.7743 100.0146 L35.5359 101.1365 L36.8428 103.534 L37.1927 104.5632 L36.6884 105.5406 L35.9679 105.87 L32.6727 108.2479 L33.5525 108.2782 L35.9866 107.9571 L37.7476 107.9137 L39.6608 107.7619 L38.8349 109.668 L36.845 113.7474 L33.8382 116.4605 L31.9169 114.1182 L32.3411 116.2311 L33.8438 119.4146 L34.9439 120.2709 L36.3565 120.7872 L38.5776 120.695 L39.7612 121.2678 L45.3823 125.2724 L45.6365 125.8565 L44.6144 127.1222 L45.3349 130.2011 L46.5747 132.629 L47.6861 134.1523 L47.8489 136.1489 L48.5301 138.7831 L49.8419 140.4523 L51.3328 141.2378 L52.6553 143.8384 L52.6054 145.9363 L55.8117 147.1122 L62.4053 159.2849 L69.3857 163.866 L69.8102 166.0203 L65.9872 166.9126 L66.2617 169.2553 L67.232 170.6867 L66.8945 170.8481 L66.8655 170.9896 L66.5914 171.333 L66.2364 171.594 L64.9648 171.877 L64.4592 172.0141 L63.7718 172.3434 L65.0952 174.2157 L66.5349 173.662 L66.8736 173.5659 L67.7033 173.1669 L68.0969 173.1659 L68.1733 173.1376 L69.6729 173.2454 L70.5064 173.6274 L73.4317 177.1983 L74.2142 177.9316 L74.6808 178.4799 L74.9575 178.9677 L75.0682 179.478 L75.5978 180.5068 L76.5183 181.2839 L77.8142 182.2888 L77.7777 182.6615 L77.2403 183.0957 L76.7603 183.3728 L75.2002 184.0352 L74.1085 184.3665 L73.8939 184.3743 L72.9847 184.3767 L72.1111 184.2752 L71.9049 184.2074 L71.7134 183.8689 L71.4068 183.5552 L68.8327 181.6191 L69.1917 183.7143 L69.0788 183.9943 L67.2398 184.9826 L66.1048 185.4709 L63.7777 181.5488 L63.1608 180.9434 L63.0747 180.8283 L58.6594 176.49 L57.5278 175.5221 L56.4736 174.6079 L54.7971 173.0493 L54.7871 173.0093 L54.2419 172.5092 L54.4097 171.5594 L54.4141 171.5087 L54.3854 171.3926 L54.4353 171.2687 L54.4662 170.9194 L54.6836 170.654 L55.584 168.4225 L50.7215 164.0904 L43.8004 165.3393 L42.9707 161.6754 L46.1443 160.2509 L46.1643 159.6566 L39.1515 161.592 L34.628 162.7956 L33.0694 163.6289 L30.6285 165.0402 L28.6089 166.6282 L26.3401 165.8955 L27.0824 166.7882 L25.7712 168.0103 L25.5554 169.7261 L24.8888 171.0984 L23.8792 171.657 L23.7123 172.598 L23.5558 174.4509 L22.2417 176.2866 L7.971 184.023 L7.6204 184.2401 L7.4669 184.5904 L7.3185 185.1436 L6.9258 186.2221 L6.5446 186.7177 L6.0967 187.7924 L5.2733 188.6456 L4.303 188.9295 L1.7934 189.1256 L1.2857 189.5373 L0.6581 190.2002 L0.4956 190.188 L0.0 191.8578 M30.0811 86.0844 L30.1475 85.8804 L30.6656 85.4636 L32.8096 84.2508 L33.2344 84.0102 L33.3061 83.9941 L34.2465 83.7853 L34.7505 83.673 L35.9751 83.5793 L36.4931 83.9102 L37.1522 84.6237 L37.2648 84.7194 L38.0779 85.408 L38.6315 85.3523 L39.396 84.9277 L40.2999 84.7882 L42.2861 86.4572 L42.5397 86.854 L43.262 87.4294 L43.9635 87.9159 L44.5337 88.0692 L44.9316 88.3834 L45.115 88.3951 L45.7725 88.4376 L47.0027 88.5957 L47.2775 88.5825 L47.6471 89.0467 L47.7316 89.8856 L48.2197 91.5648 L48.9352 93.5564 L51.5764 98.9557 L51.859 99.7521 L53.0342 101.2092 L53.9044 102.3921 L54.4986 103.0577 L54.3904 103.351 L50.7608 106.0023 L49.7914 105.3088 L48.1629 104.3416 L46.8308 103.92 L45.741 104.0825 L45.6758 104.1113 L44.8428 104.1074 L43.7782 104.386 L43.2103 104.2845 L42.9405 103.9566 L42.5366 102.7366 L42.3432 102.152 L41.9312 100.8515 L41.5266 99.9214 L40.9611 98.8449 L39.8252 97.1823 L39.5124 95.9691 L39.2082 95.1146 L39.1106 94.8403 L38.3374 94.2503 L37.7495 94.0761 L37.4257 93.8316 L37.4398 93.7438 L37.4585 93.6257 L37.102 93.8741 L36.2012 90.0198 L35.4776 88.891 L34.4065 88.0633 L33.444 87.5992 L32.3277 87.1712 L30.1328 86.2708 L30.0811 86.0844 M32.8058 227.1964 L33.1146 226.1819 L39.8112 220.0364 L39.153 216.0906 L52.1157 201.1161 L54.9028 201.3614 L58.6341 197.5635 L59.8848 197.8504 L60.9597 197.4796 L61.0607 197.8845 L66.8711 202.9862 L68.4949 201.3317 L70.1611 202.3419 L70.9374 202.1941 L73.1067 203.7072 L74.688 202.5775 L77.4739 203.2126 L78.8532 203.9979 L81.335 202.4068 L88.4853 206.9514 L89.9394 208.5966 L80.8434 210.7803 L78.4418 211.3583 L68.6508 213.5635 L68.1543 213.943 L65.5814 215.2038 L64.7072 215.1999 L62.0613 216.41 L57.4467 218.2172 L55.5226 219.1224 L51.6977 221.168 L49.0715 222.8458 L41.4299 232.9174 L36.1151 229.6009 L32.8058 227.1964 M43.6619 113.5898 L43.9261 113.0447 L44.4407 112.4889 L44.505 112.3747 L44.6999 112.0288 L44.9479 110.3018 L45.1865 110.0344 L45.2398 109.9744 L46.1842 109.483 L46.9157 109.1346 L54.4054 104.1006 L55.1308 104.3387 L56.1292 104.5978 L57.5378 104.7716 L58.3182 104.8921 L58.8631 104.9262 L59.4881 105.0551 L59.9397 105.2669 L60.2594 105.5743 L60.5224 106.0052 L60.9263 106.8499 L61.9615 110.1023 L62.1018 110.8396 L62.1661 111.899 L62.3373 113.1418 L62.5616 113.6718 L62.9362 114.2593 L63.6423 115.2318 L64.322 115.6983 L64.8784 115.992 L65.1866 116.3985 L65.3915 116.7674 L65.6731 117.413 L65.8871 118.1395 L66.1656 118.4972 L66.8122 119.0706 L69.0504 120.5905 L69.4047 121.221 L69.527 121.7172 L69.7553 122.1842 L70.4792 122.5023 L71.9813 122.9083 L73.6297 123.5539 L74.2804 123.9447 L75.2887 124.8103 L75.8336 125.2343 L76.0361 125.4661 L70.181 130.0532 L65.806 133.2848 L65.1912 132.7422 L63.0463 130.8495 L62.8978 130.7183 L62.6929 130.5377 L57.6329 124.157 L57.8887 123.811 L58.034 123.6144 L57.9688 123.4592 L57.5188 122.3901 L56.0722 121.3796 L54.2628 119.4453 L54.0897 119.2599 L53.1465 118.3967 L53.0791 118.3577 L52.3437 117.9297 L49.5369 116.2965 L48.5238 115.9647 L46.6742 115.2372 L44.8792 114.8185 L44.1503 114.4086 L43.7399 113.9065 L43.6619 113.5898 M51.1765 250.8393 L51.1778 250.3429 L51.5109 248.9808 L51.7773 248.0122 L52.0337 247.0808 L52.3116 246.4721 L52.5707 244.9739 L52.625 244.6608 L52.8823 244.636 L53.2154 244.7369 L68.7008 253.4972 L75.3608 257.0586 L75.2738 257.34 L74.688 258.0125 L73.093 259.239 L71.904 260.1777 L71.4863 260.7117 L71.036 261.2876 L70.5276 261.5851 L70.1358 261.6319 L69.9194 261.6578 L69.367 261.4788 L66.3718 259.6164 L65.4517 259.1746 L64.6894 258.6552 L63.8831 258.309 L58.9594 255.5708 L54.8411 253.2558 L53.6016 252.5589 L51.4267 251.4226 L51.2976 251.269 L51.2657 251.1558 L51.1765 250.8393 M77.9359 194.5265 L79.5936 192.3153 L80.1975 191.9149 L81.7099 193.368 L82.0411 193.9261 L82.562 195.1338 L83.0342 196.347 L83.2042 197.266 L83.2042 198.263 L83.0704 198.984 L82.8405 199.4776 L82.4881 200.0025 L81.7105 201.2 L81.4516 201.2122 L81.3297 201.0751 L80.7548 199.8527 L80.3681 198.9435 L79.9729 197.7396 L79.7243 197.5821 L79.5035 197.5562 L78.8466 196.6923 L78.5175 196.305 L78.1782 195.6831 L78.0219 195.108 L77.9359 194.5265 M78.3048 253.7595 L78.4595 253.3684 L78.8404 252.8325 L79.1033 252.2102 L79.224 252.0654 L79.3531 251.7362 L79.762 251.4348 L80.1394 250.9422 L80.4679 250.6808 L80.8855 250.4375 L81.3633 250.2453 L81.6915 250.1541 L82.3028 250.2029 L82.5567 250.1902 L83.0545 250.0883 L83.3779 249.9123 L84.2204 248.6974 L85.4555 247.0408 L86.326 246.5326 L86.4951 246.4009 L87.1051 246.0776 L87.9258 245.5899 L88.7199 245.1783 L108.6008 238.6919 L106.8591 235.2906 L110.9925 233.2149 L112.4809 231.7508 L112.9234 232.1375 L115.07 233.1754 L118.0081 233.132 L124.7732 231.3616 L131.7099 236.0388 L131.9906 239.1065 L140.2217 239.9063 L140.7114 237.0337 L139.3141 236.2241 L139.4513 234.4391 L156.2379 230.6934 L156.8336 231.9127 L158.3339 233.132 L158.1218 235.3267 L164.7715 234.1074 L164.3972 232.5126 L159.1105 229.8399 L159.5908 215.4028 L163.867 215.0175 L164.1134 212.2422 L161.587 211.1154 L161.7941 210.0624 L164.7852 205.6754 L166.3685 204.4525 L166.5618 204.6476 L167.7864 204.9686 L170.8227 205.2729 L174.1598 206.2295 L178.0554 209.1663 L181.5128 213.2435 L185.2716 213.8128 L189.4274 215.6028 L192.8299 215.1999 L196.3984 213.5347 L196.5574 209.4961 L197.5362 208.7371 L194.3585 201.0073 L201.3888 198.9308 L203.8385 202.158 L205.7592 199.2854 L208.0105 196.5504 L208.5005 196.1348 L208.8978 196.286 L210.0475 197.4884 L210.4037 198.7806 L210.7802 199.8493 L211.1994 200.5176 L211.4093 200.6064 L212.0783 201.3619 L212.7136 201.7014 L214.0773 200.5922 L215.5803 200.6966 L216.4992 201.8746 L216.9168 203.1931 L216.5129 205.6915 L217.6523 207.0445 L224.7477 202.6516 L229.8495 200.2917 L234.6531 197.6962 L235.1303 199.3274 L228.058 203.796 L226.6475 205.2208 L222.3012 208.0415 L219.3874 210.0492 L218.8696 211.0828 L216.8591 214.9785 L215.3714 217.9587 L221.2757 223.792 L227.0396 227.0306 L233.7673 229.0888 L233.8921 230.391 L225.53 230.8787 L223.4403 231.425 L223.4247 229.7228 L219.6818 227.3574 L218.0818 228.4694 L213.1896 223.5453 L208.5413 221.6299 L207.0511 220.9529 L205.146 221.13 L203.6089 221.5436 L202.0379 222.324 L200.7329 223.2151 L199.9759 224.4602 L199.7794 226.0844 L201.6227 229.2429 L201.7865 230.2423 L201.4627 231.4177 L199.7104 230.5281 L197.5842 229.5716 L197.2754 229.1449 L197.2754 227.5778 L197.0172 226.0259 L196.3778 224.3632 L197.4333 222.3118 L196.9963 221.3753 L197.839 220.7612 L197.631 220.2306 L196.3722 220.6676 L195.4879 220.8032 L194.6972 220.6886 L194.2603 220.6676 L194.0313 221.0319 L193.532 221.2919 L192.6059 221.4792 L191.314 221.5763 L190.3721 221.9001 L189.8132 222.5181 L190.1956 223.0478 L190.9962 223.2755 L192.4971 222.8195 L193.1334 222.4064 L193.6742 222.6722 L194.4013 224.1998 L196.0955 229.1424 L196.4292 229.8584 L197.2486 231.483 L197.9891 231.5167 L198.5134 231.625 L198.9347 231.8342 L199.7473 232.1317 L200.3801 232.6009 L200.8264 232.8906 L201.1533 233.3076 L201.1836 233.5422 L201.1552 233.768 L201.1156 233.868 L200.9771 234.3103 L201.0117 234.2991 L201.5585 234.2533 L201.5716 234.2694 L201.8657 234.2357 L202.3351 235.2789 L202.0032 243.3299 L201.2902 244.0215 L201.3008 244.2434 L201.333 244.3356 L202.1186 244.6272 L201.5363 247.307 L201.7522 247.3012 L202.2144 247.1973 L202.6663 247.2051 L203.2162 247.6952 L203.4854 248.081 L205.4042 252.8603 L206.4011 255.1514 L205.5493 255.2401 L205.3166 255.3333 L204.2436 255.5522 L203.39 255.5171 L203.2537 255.48 L197.7583 256.0535 L198.0858 255.0977 L192.203 255.3918 L192.1163 255.4152 L191.9191 255.5781 L191.849 255.7 L191.8861 256.1038 L192.9085 259.0502 L193.1989 260.1075 L193.1936 260.8619 L193.1399 261.1745 L193.2825 261.6909 L192.5046 265.1781 L192.523 265.8096 L192.4466 267.0897 L192.3255 267.9021 L191.95 269.0705 L191.2554 270.7772 L190.9089 272.3313 L191.2239 276.1885 L192.1503 279.9139 L191.461 280.3235 L190.7748 280.7331 L190.7405 281.1086 L189.5428 279.4799 L186.6577 280.4357 L182.8057 278.6071 L177.0854 278.9923 L168.0621 274.5062 L166.094 272.8092 L163.7235 266.4748 L162.0268 272.5849 L160.7605 273.2969 L157.8286 271.5511 L160.7979 277.588 L159.9963 277.9976 L160.3581 279.3873 L158.1717 280.6795 L157.5728 283.1712 L157.3763 282.6787 L153.7146 285.0144 L157.0987 284.4 L156.7432 283.3614 L157.526 283.3614 L159.3912 283.1614 L160.1585 294.1471 L161.562 297.2481 L155.2866 301.9045 L141.4319 298.5109 L148.7959 271.8437 L145.3712 269.6493 L145.3712 269.1046 L145.3438 269.0671 L145.2848 268.7887 L145.2521 268.3264 L145.3023 266.8542 L145.1666 266.2992 L144.9486 265.7716 L143.672 264.2218 L142.8158 263.4504 L142.3695 262.7262 L142.3657 262.636 L141.9528 262.1347 L138.6451 264.3399 L137.6747 264.9255 L135.968 266.2305 L131.0824 270.8816 L127.9702 273.8601 L127.3511 281.172 L126.1057 282.8859 L123.1273 283.0361 L121.8223 281.8654 L119.2959 284.7598 L111.4653 287.035 L105.9375 285.4581 L105.6505 283.259 L97.276 285.0387 L94.9273 278.8899 L89.388 273.7308 L89.2414 268.123 L84.2634 262.2712 L84.2665 258.8527 L78.3828 254.2067 L78.4455 254.0473 L78.3972 253.9692 L78.3048 253.7595 M82.0118 201.9341 L82.5074 201.2073 L83.8264 199.2737 L84.0129 199.3986 L95.4785 207.0855 L94.9772 207.7333 L94.4461 207.6143 L93.5712 208.0976 L92.9118 207.9557 L92.2478 208.3449 L91.7288 207.9591 L90.8954 208.4518 L89.7217 207.6625 L89.7351 207.644 L89.9709 207.325 L82.0118 201.9341 M83.2784 195.1587 L83.7678 194.3836 L83.929 194.1656 L84.9137 194.7885 L85.5962 195.2685 L85.7072 195.1334 L90.5086 198.2089 L93.6005 200.3576 L98.0507 203.9057 L97.9774 204.0852 L101.6972 207.1216 L101.0344 207.8708 L100.6529 208.2479 L100.1258 207.8367 L99.997 208.0108 L99.2363 207.5187 L98.8788 207.8538 L98.2834 207.4357 L97.9905 207.7328 L97.2791 207.2894 L97.0717 207.5738 L84.1452 199.0762 L83.7918 198.5045 L83.6393 197.3567 L83.4141 196.1353 L83.2784 195.1587 M94.0749 315.4459 L94.404 315.3313 L94.6947 315.3347 L95.6959 315.5283 L96.393 315.4498 L96.9207 315.422 L97.5408 315.5078 L101.8855 316.6418 L102.8546 317.0319 L104.2937 317.8612 L105.0907 318.455 L105.7871 318.8855 L106.5865 319.3262 L108.3881 320.2394 L109.5923 320.9907 L111.0511 322.3465 L111.3206 322.7195 L111.2292 322.9135 L110.9329 322.9403 L109.7445 322.4464 L107.3335 321.1233 L105.3576 319.9162 L104.572 319.3974 L104.0929 319.2395 L102.423 318.7787 L100.7484 318.3633 L98.7282 318.0469 L97.7653 317.5711 L96.7404 317.281 L95.7217 316.8983 L94.7948 316.4512 L94.243 315.9734 L94.0967 315.5927 L94.0749 315.4459 M100.8151 341.8288 L100.8298 341.6952 L100.9676 341.43 L101.8091 340.5394 L102.3893 340.0587 L102.8359 339.7867 L103.4064 339.5191 L104.4731 339.037 L105.1193 338.8054 L105.8791 338.6275 L107.2892 338.2974 L107.725 338.2209 L107.9589 338.0083 L108.1704 337.6432 L108.3382 337.2844 L108.5128 336.969 L108.8104 336.6731 L109.1423 336.5356 L110.7015 336.4825 L111.0767 336.3601 L111.3908 336.1539 L111.7298 335.935 L112.2267 335.5903 L112.8969 335.2047 L113.2441 335.037 L113.5264 334.9766 L113.8033 334.9356 L114.1127 334.9337 L114.3485 335.0322 L114.5107 335.2306 L114.5893 335.4636 L114.5824 335.8653 L112.9369 341.1829 L111.7975 342.99 L110.665 343.8919 L110.4248 343.9455 L108.5356 345.0111 L106.2225 346.2678 L105.3545 346.5511 L105.0816 346.9269 L104.5932 347.5114 L104.3795 348.0106 L104.0951 349.0762 L104.0305 349.6529 L103.8739 349.9419 L103.8939 350.3699 L104.0664 350.8277 L104.0632 351.1635 L103.8515 351.2644 L103.6908 351.3571 L103.5364 351.3673 L103.2944 351.2869 L103.2027 350.9666 L103.0836 350.1613 L102.7433 348.8071 L102.6513 348.4439 L102.6538 348.1027 L102.7576 347.7751 L103.0611 347.6118 L103.3312 347.3715 L103.4107 347.1097 L103.4101 346.8421 L103.4092 346.6866 L103.3424 346.3848 L103.1709 346.2045 L102.8858 346.0387 L102.5143 345.8588 L102.3362 345.4913 L102.1148 344.9 L101.8762 344.0415 L101.3235 342.9651 L100.8974 342.1525 L100.8182 341.9283 L100.8151 341.8288 M111.9759 323.4191 L112.0585 323.344 L112.3065 323.3323 L113.5058 323.4868 L114.0837 323.6302 L114.7262 323.8651 L115.2739 324.3181 L115.7019 324.8139 L116.2368 326.0322 L116.5942 327.251 L117.4008 328.9378 L117.9435 329.6964 L118.1731 330.2224 L118.2754 330.7411 L118.5218 331.7225 L118.5854 332.3236 L118.4241 332.6019 L118.2436 332.855 L118.0627 332.9822 L117.8605 333.0938 L117.6697 333.028 L117.4544 332.7969 L117.4058 332.2192 L117.0119 329.7281 L116.6553 329.2015 L116.1769 328.5346 L113.4945 325.804 L113.0233 325.1873 L112.0177 323.5317 L111.9759 323.4191 M143.5029 175.2768 L144.4418 174.4426 L144.5915 171.174 L146.3194 170.3105 L146.6282 170.2325 L148.5214 176.7549 L146.4754 177.0915 L147.7105 181.0576 L146.2976 180.2722 L145.5396 177.5891 L143.8242 176.7208 L143.5029 175.2768 M149.7746 373.8634 L149.8486 373.3472 L150.1711 372.3914 L150.4605 371.9892 L150.8142 371.7816 L151.0812 371.6753 L151.3716 371.6368 L151.642 371.7913 L151.9757 372.0165 L152.7003 372.675 L153.6341 373.4622 L154.6297 375.175 L155.0464 374.9757 L154.1456 373.6655 L153.9317 373.1742 L153.3519 372.2105 L152.8743 371.8786 L151.9218 371.3244 L151.6473 370.8423 L151.7315 370.3958 L151.8666 369.9947 L152.3821 369.8957 L154.6147 370.5918 L155.3589 371.0836 L156.7201 372.6092 L157.5647 373.124 L158.5824 373.7011 L159.3185 373.9282 L160.2184 374.2465 L162.5926 375.6035 L162.853 375.6312 L164.5934 375.5099 L164.7419 375.3198 L164.3286 374.9732 L164.1611 374.6174 L164.2659 374.2518 L164.5744 374.1261 L164.8177 374.0988 L165.531 374.3206 L165.9121 374.2684 L166.8999 374.556 L167.4202 374.7885 L167.6803 374.8738 L168.1953 375.2184 L168.393 375.4504 L168.4934 375.7721 L168.3238 375.9388 L167.9448 375.9154 L167.267 375.8438 L166.4545 375.7872 L165.1411 375.5084 L164.604 375.7609 L163.2039 375.7341 L162.7164 375.873 L160.2898 375.8662 L158.8881 375.7687 L157.0847 375.7936 L155.9497 375.5479 L155.4681 375.3471 L155.1222 375.3675 L154.6066 375.4665 L152.3697 375.3383 L150.8201 375.2189 L150.2865 375.0234 L149.9955 374.6467 L149.8118 374.323 L149.7746 373.8634 M192.8913 161.2881 L192.9026 160.8871 L193.0164 160.8046 L193.0941 160.748 L193.4911 160.7314 L193.7534 160.7778 L199.1977 161.5042 L200.4799 161.713 L201.5591 161.6545 L202.0865 161.3637 L204.6541 161.1417 L205.198 161.1676 L206.422 161.2251 L206.9968 161.4061 L207.2232 161.6515 L207.3358 161.994 L207.2784 162.4151 L207.0189 162.6931 L206.6942 162.8297 L205.8643 162.7805 L205.1821 162.8019 L204.3547 162.9468 L196.9486 165.9711 L197.2714 166.8141 L198.397 166.4433 L198.2118 165.6369 L204.4015 163.0239 L204.7333 162.9971 L204.6984 163.3381 L204.7885 163.383 L205.068 163.5323 L206.0324 163.763 L206.3443 163.8752 L206.4609 164.3543 L205.7404 166.3726 L205.6288 167.2049 L205.8852 169.2212 L205.9563 169.7812 L205.8306 170.0227 L205.4912 170.6749 L205.0589 170.9213 L202.3257 171.9965 L201.1521 172.2814 L200.8193 172.5049 L200.3707 172.3024 L200.2042 172.3624 L200.0411 172.5414 L200.0485 173.0356 L199.6892 173.3059 L199.5336 173.3059 L199.3268 173.3064 L198.9528 173.2288 L198.7991 172.3385 L198.6104 171.8785 L197.8999 170.4257 L197.116 169.108 L196.486 168.2342 L195.8993 167.3458 L195.7686 167.0595 L195.7568 166.8882 L195.6208 166.6868 L195.3226 166.0828 L195.2035 166.0257 L194.9976 165.6823 L194.5818 164.325 L193.8822 162.7453 L192.8913 161.2881 M200.1599 318.8826 L200.3034 318.5067 L200.7899 317.8227 L201.4387 317.0972 L202.1261 316.2772 L203.2699 315.0749 L203.7047 314.5761 L203.9246 314.5391 L204.1731 314.5776 L204.3703 314.9247 L205.4195 318.3497 L206.8911 322.4845 L209.1355 328.8481 L209.2369 329.0909 L209.2846 329.4741 L209.1392 329.6861 L208.7675 329.7412 L208.2634 329.534 L205.8774 327.9457 L204.8263 327.2603 L204.1379 326.4583 L204.0353 326.1175 L203.9539 325.8118 L203.7028 325.5169 L203.0419 325.1722 L202.6929 324.9099 L201.4481 322.3377 L200.7918 320.8269 L200.2815 319.3165 L200.1599 318.8826 M202.463 327.2651 L202.6373 327.0399 L202.8313 326.918 L203.1014 326.9224 L204.5615 327.7424 L204.8724 327.9623 L205.1029 328.0564 L205.2795 328.1636 L206.9871 329.2966 L206.2648 330.179 L205.5424 329.6574 L204.6843 329.1421 L204.4819 328.9992 L204.2461 328.7774 L203.6045 328.3542 L202.5197 327.5318 L202.463 327.2651 M218.5325 326.8044 L218.5896 326.4402 L219.2277 324.3293 L219.679 323.0168 L220.2015 322.0355 L220.324 321.4592 L220.5037 320.7586 L220.6066 319.5773 L220.8087 318.9942 L221.0199 318.6573 L221.3415 318.4409 L221.6671 318.4014 L222.0071 318.5506 L223.0813 319.2107 L226.617 321.6108 L228.9459 323.2592 L229.639 323.852 L229.9868 323.9334 L230.1695 323.676 L230.0298 323.4176 L229.653 323.11 L227.7576 321.7342 L227.0605 321.0531 L226.8359 320.7274 L226.8559 320.4456 L227.3007 319.9542 L227.6734 319.5754 L228.125 319.5217 L228.5508 319.8927 L230.4646 321.6913 L231.3114 322.3099 L231.6857 323.11 L231.6561 323.3888 L231.725 323.9456 L231.7874 324.2776 L231.2652 324.9621 L231.3526 325.0718 L231.6071 325.3326 L232.2025 325.7138 L232.3376 325.7602 L232.4707 325.5856 L232.5855 324.6866 L232.7845 324.5062 L233.2174 324.3268 L233.6304 324.4609 L234.6357 325.1932 L237.6496 327.4713 L237.8333 327.6703 L237.9006 327.8862 L236.7815 330.334 L235.941 331.8853 L235.0489 333.2362 L234.7099 333.5433 L234.1404 333.907 L233.7991 334.0196 L233.4663 333.9806 L233.1282 333.8446 L232.8051 333.6623 L232.3553 333.339 L231.8164 332.8296 L231.181 332.3567 L230.9917 332.2431 L230.7462 332.3148 L229.7148 333.5004 L229.2978 334.178 L228.9232 334.4242 L228.6777 334.5583 L228.3415 334.5856 L227.9391 334.493 L225.1532 332.5025 L222.6393 330.6519 L222.2762 330.4038 L221.8779 330.0108 L219.3057 327.7029 L218.5559 327.0828 L218.5325 326.8044 M244.2014 334.8649 L244.3969 334.6631 L244.7878 334.4062 L245.2023 334.2205 L245.4867 334.2624 L246.2705 334.7533 L246.6666 334.863 L247.1844 334.9278 L247.9673 335.0819 L248.2115 335.2096 L248.3007 335.3958 L248.2683 335.9857 L248.2352 336.3006 L248.1984 336.8291 L248.199 337.613 L248.2483 338.4256 L248.3459 338.8186 L248.2758 339.2412 L248.219 339.5152 L248.0216 340.2138 L248.0786 340.5111 L248.2951 340.9616 L248.7277 341.5266 L249.4547 342.2032 L251.2653 343.3347 L252.4 343.6584 L254.152 343.9435 L254.8385 344.0147 L255.8456 344.0737 L257.3948 343.8217 L258.8081 343.6077 L259.7104 343.5847 L261.9037 343.3571 L263.2314 343.1913 L264.3393 343.0051 L265.552 342.9583 L265.9347 343.0963 L266.1178 343.4097 L266.1103 343.7792 L266.013 344.1083 L265.8985 344.3511 L265.7001 344.5621 L265.4213 344.6791 L263.9928 344.7001 L262.8749 344.7903 L260.5837 345.1037 L259.4331 345.2695 L258.3034 345.3709 L257.6515 345.4143 L256.8144 345.3387 L255.1042 345.0384 L253.7702 344.7401 L251.7291 344.2628 L250.4447 343.7622 L249.1887 343.0046 L248.1747 342.0028 L247.1663 340.6774 L246.3688 339.4928 L245.9384 338.7328 L245.3018 337.2318 L245.0457 336.8447 L244.5217 335.6284 L244.3626 335.3286 L244.2338 335.0551 L244.2014 334.8649 M289.094 323.6745 L290.0226 323.9573 L290.7699 324.1611 L291.0076 324.4897 L290.9056 325.2707 L290.3282 325.8143 L289.4677 325.5198 L289.196 324.9762 L289.2525 324.2859 L289.094 323.6745 M292.592 322.8594 L295.1621 321.0799 L303.3352 308.1624 L305.0247 306.1385 L306.1435 304.905 L307.8007 303.7543 L309.0695 303.1717 L310.6215 304.5256 L308.4772 308.1063 L309.3564 309.9439 L310.6624 312.4728 L310.4234 314.1027 L310.8005 315.9978 L316.2613 324.3649 L316.5199 332.5234 L312.4081 330.2575 L308.2875 328.1553 L306.5166 327.4679 L301.1403 326.4285 L295.4522 326.1209 L293.3624 323.4152 L292.592 322.8594 M308.3643 340.0894 L308.6022 338.6065 L308.6865 337.1513 L308.771 336.7472 L308.897 336.6253 L309.7282 337.1006 L310.1137 337.2976 L310.163 337.5379 L310.0498 338.4008 L309.9197 339.1008 L309.8084 340.3483 L309.6113 340.6389 L309.3309 340.7851 L309.0885 340.8143 L308.8973 340.8217 L308.679 340.6891 L308.548 340.5433 L308.3643 340.0894 M329.7068 304.0152 L329.8515 303.2936 L330.3749 302.7992 L331.2145 302.431 L332.1674 302.2979 L332.4524 303.1687 L332.6387 303.7943 L332.386 303.9966 L331.6746 304.3301 L330.7239 304.4788 L330.0355 304.3838 L329.7068 304.0152 M388.9033 376.4628 L388.9179 376.0222 L389.0957 375.699 L389.4079 375.5689 L389.5174 375.545 L389.776 375.4879 L390.0997 375.5991 L392.0192 376.1245 L392.3635 376.1421 L392.8332 376.0022 L393.6732 375.6741 L394.2589 375.4816 L394.5714 375.3247 L395.0009 375.1814 L395.2523 375.1175 L395.8658 375.1736 L396.6808 375.3471 L397.0891 375.564 L397.3318 375.7409 L397.6147 375.8321 L398.0838 375.8379 L398.7572 375.6415 L400.9701 374.4064 L402.6871 372.9529 L404.3564 371.745 L405.0913 371.0032 L405.5466 370.5742 L406.1623 369.9947 L406.9583 369.5185 L407.3831 369.3186 L409.6853 368.2346 L410.0621 368.121 L410.4217 368.1034 L410.7563 368.218 L411.1113 368.4978 L411.4329 369.0042 L412.6708 372.0818 L413.8554 375.158 L413.8782 375.5225 L413.8657 375.7989 L413.8092 376.1971 L413.1018 378.2106 L413.0117 378.8306 L413.007 380.8158 L412.5463 382.0397 L412.4228 382.975 L412.5498 383.8996 L412.8548 384.7453 L414.1143 386.3132 L415.4084 388.6293 L416.4161 390.5316 L417.354 392.4085 L418.8461 394.0573 L419.1265 394.4945 L418.6032 395.0808 L416.7926 396.1477 L415.4932 397.0942 L414.8569 397.4548 L414.7428 397.5196 L413.8432 396.1594 L413.0909 395.0219 L411.8667 393.4218 L410.7891 392.1278 L409.485 390.708 L407.4567 388.9257 L406.1742 388.0123 L401.8235 384.4704 L401.6694 384.3451 L401.5418 384.2057 L399.5918 382.0782 L397.9843 380.8183 L393.5868 378.1853 L392.914 378.0854 L391.6876 377.7656 L390.4603 377.4995 L389.3883 376.998 L388.9697 376.6743 L388.9033 376.4628 M402.3431 405.0631 L402.7907 404.2307 L403.4588 403.2774 L404.1434 402.3743 L403.9347 401.2539 L403.8165 400.7178 L404.0283 400.2655 L404.2301 399.7752 L404.3854 399.628 L404.5966 399.6236 L406.488 401.0141 L407.0903 401.4322 L408.1233 402.1491 L408.185 402.3451 L408.1838 402.6063 L407.7141 403.8037 L407.4268 404.5206 L407.2615 404.7487 L406.2637 405.373 L404.6752 406.3316 L404.3265 406.6991 L404.1135 406.9233 L404.0916 407.7328 L404.0735 409.8123 L403.9029 409.8649 L403.2071 410.0803 L403.1444 410.0998 L402.9544 409.9507 L402.9105 409.5896 L402.98 409.1013 L403.0882 409.0116 L403.1887 408.9287 L403.1715 408.5413 L403.2211 406.9218 L403.1687 406.686 L402.8425 406.202 L402.7561 406.0212 L402.6772 405.8555 L402.452 405.3837 L402.3431 405.0631 M414.2593 407.0305 L414.2793 405.2614 L414.9184 403.8237 L418.0112 401.9016 L418.5031 402.5576 L417.9603 402.7891 L415.8662 405.2931 L416.0362 406.127 L416.661 406.6806 L417.7635 405.7673 L419.28 404.2653 L420.3277 404.3934 L421.415 404.0338 L422.6891 403.658 L424.6126 403.9071 L426.2834 405.1932 L426.6019 406.5578 L425.4298 409.2509 L424.2134 408.5832 L423.598 408.071 L422.2718 407.1523 L421.1031 406.7922 L420.2453 406.511 L419.3012 407.0563 L418.8773 407.7152 L417.379 408.2299 L415.5765 408.8975 L414.4571 408.1056 L414.2593 407.0305 M416.2826 384.2925 L416.4529 384.0581 L417.1394 383.5248 L417.8365 383.1325 L418.149 383.0204 L418.5804 383.0136 L418.8321 382.9765 L419.1078 382.8654 L419.6103 382.4062 L419.9983 382.0836 L420.7678 381.7122 L421.5491 381.4621 L423.0247 380.6058 L423.9985 380.0716 L424.2268 380.036 L424.408 380.1837 L424.7311 380.7432 L424.9158 381.3403 L425.1428 381.8365 L425.3992 382.2439 L425.6378 382.5325 L426.0533 382.8103 L426.3839 382.9989 L426.6599 383.1988 L426.892 383.5453 L426.906 383.866 L426.7959 384.0658 L425.136 384.8954 L424.8733 384.9212 L424.5437 384.9071 L423.7346 385.2064 L422.1005 386.2562 L421.807 386.5374 L421.2029 386.8796 L419.7045 387.5293 L419.4088 387.5849 L418.7233 386.9361 L417.796 386.2699 L417.402 386.2353 L417.2629 386.1027 L416.6837 385.221 L416.3918 384.7058 L416.2895 384.3188 L416.2826 384.2925 M429.1158 384.8754 L429.1283 384.6639 L429.1299 384.6385 L429.4037 384.368 L429.9826 384.0078 L430.6413 383.5609 L430.7081 383.3874 L430.9991 382.5954 L431.1762 381.5596 L431.3487 381.3067 L431.4289 381.1448 L432.0979 380.3075 L432.2205 380.1111 L432.2701 379.8815 L432.2501 379.6363 L432.2704 379.6397 L432.3612 379.5954 L433.3259 378.9691 L434.2893 378.3764 L435.0401 377.982 L435.5741 377.6774 L436.181 377.269 L436.9346 376.8035 L438.3391 375.8082 L440.0951 374.167 L440.9665 373.2726 L441.129 372.9958 L441.3627 372.6911 L441.4107 372.4762 L441.4032 371.9722 L441.3739 371.6529 L441.3798 371.4219 L441.4437 371.1645 L441.6003 370.9374 L442.269 370.5864 L442.9602 370.3295 L443.3669 370.2121 L443.6941 370.2438 L444.1645 370.409 L445.1741 371.0885 L445.7293 371.4409 L446.4195 371.689 L447.3172 371.9064 L448.3287 371.9965 L449.2288 372.0502 L449.9998 372.1579 L450.5023 372.27 L451.1997 372.6278 L451.6769 373.1108 L452.0537 373.6626 L452.2493 374.1826 L452.4124 374.9337 L452.4564 376.1986 L452.9305 378.0776 L452.859 378.5533 L452.3301 379.2518 L452.0303 379.8313 L451.8716 380.5858 L451.9664 381.294 L452.2168 382.7006 L452.1389 383.1642 L451.5952 384.1565 L450.6832 385.6665 L449.9412 386.8542 L449.3735 387.5005 L448.266 388.563 L449.0853 388.216 L449.9908 387.4625 L450.4814 386.863 L451.1252 385.9223 L451.8772 384.6332 L452.6772 383.1603 L452.671 382.0314 L452.6126 380.6097 L452.6772 379.9663 L452.8662 379.4779 L453.0587 378.8916 L453.2442 378.6517 L453.4379 378.5567 L453.5789 378.8857 L454.7164 381.8852 L455.2566 383.8884 L455.5002 385.3453 L455.4918 385.9696 L455.4656 386.846 L455.3047 387.7072 L454.8901 388.1931 L454.4363 388.6235 L453.7788 389.048 L453.2049 389.4735 L452.3039 390.0759 L451.4343 390.6968 L450.6046 391.289 L450.3807 391.4489 L448.7663 392.3379 L447.9519 392.7195 L447.5527 392.8579 L447.3611 392.8462 L447.2526 392.7692 L447.077 392.5957 L445.6507 389.5554 L445.122 388.238 L444.1826 386.4409 L443.4876 385.3165 L440.6549 382.0534 L439.8334 381.2399 L439.5857 380.6959 L439.4572 378.8545 L439.4298 378.2472 L439.349 377.6969 L439.194 377.3918 L439.0302 377.1193 L438.8366 376.8508 L438.6023 376.7304 L438.2673 376.8863 L438.1884 377.0706 L438.6008 378.0152 L438.8288 378.4865 L438.9825 379.0529 L439.0228 379.7782 L438.9966 380.2027 L438.8986 380.7086 L438.7464 381.1785 L437.9804 381.7965 L437.259 382.2396 L436.952 382.3156 L436.6841 382.2664 L435.9942 381.8989 L435.6689 381.8184 L435.225 381.8038 L434.6371 382.1036 L430.8247 384.7209 L429.5378 385.4335 L429.2674 385.2161 L429.1158 384.8754 M450.9558 345.5902 L451.2403 345.2895 L451.7502 345.1574 L453.1107 344.4388 L453.6326 344.3033 L454.1709 344.2775 L454.8742 345.5088 L455.1677 346.4575 L454.7096 346.71 L453.9507 346.8835 L453.0462 346.867 L452.2228 346.8124 L451.6841 346.8309 L451.1373 346.7236 L450.9558 345.5902 M452.5674 370.9598 L452.6027 370.2949 L452.8578 369.9557 L453.2208 369.6281 L453.7823 369.4829 L454.306 369.499 L454.625 369.5545 L455.2588 369.9123 L456.2285 370.8633 L456.5526 371.3561 L456.6995 371.94 L456.7856 372.5278 L456.847 374.3045 L456.8305 374.9693 L457.3348 376.4233 L457.7827 377.2475 L458.0347 377.5512 L458.1168 377.8095 L458.1866 378.1356 L458.045 378.7059 L457.5978 379.8128 L457.6321 380.5604 L457.8492 381.7999 L457.9209 382.4716 L457.7394 383.402 L457.4468 384.2686 L457.236 385.664 L457.0741 386.0954 L456.7385 386.3113 L456.4668 386.418 L456.1446 386.3318 L456.0074 386.1417 L455.906 385.8112 L455.6141 384.3617 L455.1749 382.1499 L454.8668 380.9816 L454.3234 379.7148 L453.4582 377.6101 L453.3846 377.0759 L453.35 376.027 L453.3902 374.6744 L453.2985 374.2587 L453.2106 373.9301 L452.8849 372.8534 L452.6594 372.0092 L452.5674 370.9598 M455.2289 366.1751 L455.2585 365.7974 L455.5692 365.4308 L456.1827 365.3265 L456.44 365.4791 L456.5713 365.7394 L456.7821 366.0713 L456.9733 366.7528 L457.027 367.0637 L456.9712 367.4025 L457.026 367.5692 L457.0164 367.6457 L456.8692 367.8407 L456.726 367.9041 L456.4094 367.811 L456.2092 367.6043 L455.828 366.92 L455.5367 366.5363 L455.2289 366.1751 M456.7007 365.0433 L456.8236 364.8069 L457.0707 364.6997 L457.3036 364.6597 L457.778 364.6465 L457.9671 364.5744 L458.2684 363.2895 L458.7739 361.5849 L458.9851 361.1282 L459.0612 360.7718 L459.0253 360.4979 L458.9149 360.1065 L458.8279 359.5123 L458.9118 358.8488 L459.6803 357.8232 L459.8578 357.6775 L459.9567 357.5386 L460.1366 356.4447 L460.2156 355.7774 L460.2642 355.5668 L460.3768 355.4303 L460.548 355.3031 L460.801 355.2217 L463.8723 355.3182 L464.5997 355.3689 L465.0631 355.5595 L465.7359 355.5517 L466.404 355.6234 L466.6754 355.7559 L466.8204 355.9709 L466.7827 356.1566 L466.2415 356.5846 L465.9224 356.86 L465.1314 357.7024 L464.4334 358.4506 L463.4119 359.8452 L463.3168 360.1284 L463.0055 360.5959 L462.4257 361.2705 L461.835 362.2517 L461.7794 362.9537 L461.757 363.1009 L461.1191 364.628 L460.8275 365.3241 L460.5159 365.8993 L460.1582 366.5008 L459.5303 367.4006 L459.2552 367.6648 L458.9645 367.6872 L458.7827 367.7778 L458.7559 367.9592 L458.7527 368.2389 L458.6486 368.4505 L458.4645 368.7576 L457.6199 370.078 L457.3691 370.177 L457.2282 369.9674 L457.2347 368.2214 L457.0872 367.8012 L457.0042 367.4137 L457.1399 366.5919 L457.1408 366.4408 L456.9958 365.9928 L456.9456 365.7462 L456.8495 365.5103 L456.7254 365.3099 L456.7007 365.0433 M457.3595 370.9559 L458.9549 370.6761 L459.0603 370.8048 L459.1264 370.9237 L458.8575 372.4255 L458.8363 372.8622 L458.8897 373.3993 L460.2723 374.6125 L460.427 374.8865 L460.5016 375.4972 L460.1772 377.4308 L460.1825 377.6779 L460.2745 377.8236 L460.4557 377.8855 L460.6432 377.7164 L460.7957 377.4015 L460.8468 376.8756 L460.7651 376.3785 L460.8687 375.0653 L460.97 374.612 L460.8303 373.8088 L461.1587 370.9564 L461.4042 370.7029 L461.8727 370.643 L464.5242 371.4126 L464.8136 371.4808 L464.7578 371.7328 L464.6112 373.7474 L464.6917 374.7188 L464.7827 375.2506 L464.44 377.4625 L464.3511 378.273 L464.2291 378.5596 L464.0095 379.0763 L463.9225 379.9307 L463.7828 380.6955 L463.6468 381.1229 L463.2541 382.6027 L462.7741 385.1757 L462.3446 386.6164 L462.1993 387.1603 L460.6606 387.2412 L459.573 387.0823 L458.7924 387.0911 L458.404 387.2149 L457.5485 387.1637 L457.541 386.8104 L457.677 386.0817 L458.1539 383.9698 L458.7905 382.4365 L458.9998 382.0558 L458.9826 381.6683 L458.8391 380.8699 L458.4599 379.8498 L459.3117 378.1872 L459.374 377.558 L459.2618 377.3928 L458.7184 377.092 L458.4577 376.7893 L458.3064 376.5105 L458.0884 375.9578 L457.7646 375.0444 L457.6208 374.0335 L457.5332 372.3499 L457.3595 370.9559 M464.2113 360.7582 L464.2718 360.2166 L464.3988 359.6049 L464.5993 359.2588 L464.8345 359.0219 L465.3307 358.5188 L465.7103 358.184 L466.7499 356.8084 L467.272 356.3073 L467.7814 356.0099 L468.3284 355.7915 L468.9211 355.6468 L470.1219 355.5497 L470.7784 355.3289 L471.2734 355.0876 L471.8202 355.0204 L472.4115 355.0174 L473.0469 354.9814 L473.4667 355.0676 L473.8404 355.2402 L474.2967 355.0915 L475.0849 355.0277 L476.0125 355.1427 L476.6082 355.3782 L477.2123 355.2802 L477.5692 355.1525 L478.0033 354.9204 L478.818 354.7518 L479.929 354.6767 L484.0542 354.5548 L484.7298 354.5202 L485.0882 354.5324 L485.2379 354.5631 L485.381 354.5948 L485.5061 354.7308 L485.5769 354.8688 L485.6346 355.0959 L485.7453 355.2992 L485.7909 355.6092 L485.6421 355.8666 L485.057 356.7411 L484.514 357.3636 L484.1671 357.6502 L481.1666 357.7589 L480.9867 357.8871 L480.89 358.1533 L480.8582 358.434 L480.1055 359.1057 L479.6368 359.2866 L478.5816 359.2812 L477.3465 359.2032 L476.1416 359.3095 L473.5568 360.0002 L472.7094 360.1055 L472.0741 360.2478 L470.9416 360.746 L470.6615 361.0473 L470.4179 361.4855 L470.1765 362.106 L470.0713 362.5028 L470.0183 363.6814 L469.9007 364.0967 L468.3702 366.1503 L468.2006 366.2648 L467.6641 366.454 L465.9443 367.0145 L465.4873 367.1724 L465.011 367.1291 L464.6199 366.8941 L464.478 366.59 L464.4818 366.3375 L464.5747 366.1147 L464.6539 365.7433 L464.6464 365.1939 L464.7381 364.1055 L464.7328 363.2266 L464.7054 362.6378 L464.5647 362.3414 L464.5354 362.0855 L464.6283 361.8364 L464.7094 361.463 L464.6159 361.3344 L464.3997 361.1876 L464.2843 361.0092 L464.2113 360.7582 M476.0146 335.8234 L476.2953 335.2369 L476.6331 334.979 L476.8621 334.6704 L477.2208 334.2853 L477.349 334.0752 L477.5779 334.1556 L477.6063 334.042 L477.8346 333.6701 L478.2553 333.1855 L478.4228 332.9676 L478.6664 332.4352 L478.8417 331.8326 L478.8748 331.5762 L479.0145 331.388 L479.7076 330.5895 L479.9402 330.3779 L480.0503 330.2521 L480.273 329.8421 L480.448 329.5652 L480.6551 329.2898 L480.7683 329.2279 L480.9471 329.1757 L481.1626 329.1762 L481.4305 329.2722 L481.9033 329.6247 L482.0955 329.7963 L482.3534 330.0644 L482.6363 330.2614 L482.8297 330.3106 L484.4316 330.2751 L484.9656 330.2219 L485.7045 330.2185 L486.2622 330.2965 L488.0905 330.4442 L489.398 330.4793 L490.7174 330.5378 L491.5804 330.5495 L492.2591 330.5929 L492.6789 330.6592 L492.7142 330.6612 L493.7799 330.9858 L493.8211 331.1535 L493.8327 331.2944 L493.9028 331.4373 L493.9596 331.6245 L493.8997 332.149 L493.6689 332.9983 L493.6524 332.9954 L493.6265 333.1787 L493.4334 333.9679 L493.3055 334.4125 L493.2329 334.7518 L493.1365 335.388 L493.158 335.6459 L493.2269 335.8848 L493.5248 336.3196 L493.5105 336.8842 L493.5722 337.2088 L493.5142 337.3083 L493.6047 337.378 L493.6536 337.6354 L493.4733 337.711 L493.4471 337.9498 L493.4468 338.3852 L493.4066 338.5719 L493.2148 338.8361 L492.8757 338.918 L492.6303 338.8702 L492.6331 338.8658 L492.6278 338.8732 L492.4116 338.8468 L492.0227 338.7367 L491.9204 338.6567 L491.6603 338.6182 L491.5187 338.6757 L490.7149 338.5651 L490.3886 338.4871 L489.8228 338.2677 L489.4489 338.2726 L489.4186 338.2662 L484.77 338.7425 L484.2729 338.9424 L483.9457 339.074 L483.9344 339.0462 L483.898 338.9541 L483.8203 339.0204 L483.6147 338.9453 L483.5252 338.9365 L483.4039 338.9473 L483.0621 338.7537 L482.8107 338.6362 L482.6638 338.5963 L482.4975 338.4632 L482.4997 338.4373 L482.7527 337.457 L482.7124 337.4077 L482.6332 337.3424 L482.2608 337.2527 L482.0309 337.2205 L481.9317 337.2157 L481.8229 337.2361 L481.7452 337.2683 L481.6937 337.3107 L481.6136 337.7968 L481.5141 337.944 L481.3715 338.0551 L481.1813 337.9625 L481.0528 337.7353 L480.9548 337.6764 L480.9583 337.6027 L480.6548 337.5009 L480.6217 337.3663 L480.7156 337.1874 L480.8641 337.0967 L480.8594 337.0748 L480.8023 336.9812 L480.6376 336.8213 L480.0675 336.4839 L479.9717 336.402 L479.8439 336.3952 L479.6318 336.3348 L479.5591 336.3323 L479.4799 336.344 L479.3601 336.4147 L479.1623 336.4454 L478.9771 336.3913 L478.8819 336.345 L478.5367 336.3435 L478.3483 336.0759 L478.2669 336.0106 L478.1393 335.9594 L477.9625 335.8297 L477.9646 335.623 L477.926 335.5894 L477.8683 335.5674 L477.7909 335.5728 L477.61 335.624 L477.561 335.68 L477.4497 335.8414 L477.4029 335.9842 L477.2551 336.0544 L476.9167 336.0096 L476.3596 336.0072 L476.1481 335.9808 L476.0146 335.8234" stroke-dasharray="" fill="none" fill-opacity="1.0" stroke="#ff0000" stroke-opacity="1.0" stroke-width="1.0px" stroke-linecap="butt" stroke-linejoin="miter" stroke-dashoffset="0.0px"/>
</g>
</svg>