<?xml version="1.0" standalone="no"?>
<!DOCTYPE svg PUBLIC "-//W3C//DTD SVG 1.1//EN" "http://www.w3.org/Graphics/SVG/1.1/DTD/svg11.dtd">
<svg width="512px" height="512px" version="1.1" xmlns="http://www.w3.org/2000/svg" xmlns:inkscape="http://www.inkscape.org/namespaces/inkscape">
<g id="layer" inkscape:groupmode="layer" inkscape:label="layer">
<path d="M111.0998 297.5381 L116.4021 299.8806 L116.9814 298.6569 L131.663 305.0202 L125.2467 321.243 L134.8934 325.2638 L116.2462 369.9464 L114.9317 369.387 L112.637 374.8762 L117.9393 377.2187 L118.5631 375.8901 L143.738 387.0782 L143.181 388.3718 L148.4833 390.7144 L150.7112 385.5398 L149.3968 384.9804 L168.4673 340.2979 L178.8491 344.5633 L185.9783 328.3056 L206.3855 337.0813 L198.432 355.3319 L198.4766 360.8561 L201.707 364.4223 L209.1035 367.464 L195.469 399.2453 L186.0005 395.0847 L186.6021 393.7561 L181.5894 391.5535 L179.4284 396.5531 L180.7428 397.1125 L170.0936 421.6564 L168.8237 421.0621 L166.6627 426.0268 L171.6754 428.1945 L172.2324 426.8309 L186.5352 432.9844 L181.2329 445.3612 L178.7377 444.2773 L176.8218 448.6826 L177.4678 448.9973 L172.0764 461.479 L165.5933 458.5771 L163.5882 462.9824 L164.4126 463.367 L156.0135 481.7573 L155.1669 481.3727 L153.1841 485.9878 L159.5781 488.7848 L160.1796 487.9807 L206.7642 508.224 L206.3632 509.0981 L213.0468 512.0 L214.9628 507.5248 L214.0939 507.1402 L226.4363 478.296 L227.3051 478.7156 L229.2211 474.2404 L224.8322 472.1076 L224.4089 472.9467 L217.7922 469.7302 L220.978 462.3531 L219.7304 461.8636 L224.9213 449.7665 L230.2682 452.2139 L231.8277 454.2767 L241.6971 458.4372 L256.4679 423.9989 L245.6627 419.279 L243.9473 420.188 L233.053 415.3981 L235.5928 409.2097 L237.1523 409.839 L240.0039 403.231 L239.0905 402.8115 L249.5838 378.3375 L250.5195 378.7571 L253.3934 372.0092 L252.3909 371.5547 L263.4856 345.6472 L267.0948 347.1856 L271.595 346.2066 L273.7115 342.3257 L280.2391 344.843 L283.4027 337.5707 L282.4225 337.1862 L330.0542 226.2483 L339.0547 229.7796 L341.9955 222.787 L341.1489 222.4024 L358.9941 181.1108 L359.8852 181.3555 L362.9151 174.3279 L358.8604 172.4049 L356.8554 176.6355 L292.225 148.4551 L294.0296 144.1895 L289.9081 142.5462 L286.8559 149.6438 L287.7248 150.0284 L269.7682 191.9494 L268.8993 191.5648 L265.8917 198.5575 L274.9814 202.2985 L276.0508 199.7113 L297.2155 209.0115 L294.0073 216.4936 L293.1608 216.109 L290.064 223.3114 L290.9329 223.696 L252.6805 312.6072 L241.051 307.5725 L241.4298 306.6984 L234.1447 303.5867 L233.7659 304.4608 L164.4348 274.4625 L195.9145 201.0748 L192.1717 199.3267 L212.3339 152.1961 L220.4656 155.7274 L226.2135 142.3365 L218.1041 138.7003 L226.1244 119.9599 L234.0778 123.2465 L239.7812 109.9953 L231.8054 106.6738 L239.692 88.2481 L270.4588 101.4642 L267.2507 109.0513 L302.696 124.0856 L305.5922 117.0579 L332.037 128.2462 L328.3164 138.4905 L329.7868 139.1198 L331.5468 134.9242 L339.5894 138.3506 L338.119 142.6162 L339.5894 143.2455 L343.1986 133.281 L368.4848 144.1546 L368.1283 144.9937 L374.3218 147.6859 L377.0398 141.3925 L376.1709 140.9729 L397.3133 91.7794 L398.1154 92.164 L400.9002 85.9754 L394.9072 83.2832 L400.3878 70.1719 L377.5745 60.3122 L372.0717 74.4025 L330.6111 56.6061 L331.5691 45.2779 L325.242 35.1035 L316.4642 31.3624 L310.9168 31.4323 L305.5922 29.3345 L308.3771 22.2019 L274.8032 7.657 L271.7955 14.8246 L243.5685 2.4824 L243.925 1.6083 L240.2267 0.0 L231.5381 20.5586 L235.2586 22.2369 L201.3728 99.6811 L200.7936 99.4364 L197.5409 106.9185 L198.4543 107.3031 L186.357 135.6585 L179.317 132.7215 L131.106 244.8837 L129.9698 244.3942 L117.7834 272.8192 L122.4619 274.917 L114.8649 292.8531 L113.6173 292.2937 L111.0998 297.5381" stroke-dasharray="" fill="none" fill-opacity="1.0" stroke="#ff0000" stroke-opacity="1.0" stroke-width="1.0px" stroke-linecap="butt" stroke-linejoin="miter" stroke-dashoffset="0.0px"/>
</g>
</svg>