<?xml version="1.0" standalone="no"?>
<!DOCTYPE svg PUBLIC "-//W3C//DTD SVG 1.1//EN" "http://www.w3.org/Graphics/SVG/1.1/DTD/svg11.dtd">
<svg width="512px" height="512px" version="1.1" xmlns="http://www.w3.org/2000/svg" xmlns:inkscape="http://www.inkscape.org/namespaces/inkscape">
<g id="layer" inkscape:groupmode="layer" inkscape:label="layer">
<path d="M0.0 322.9939 L0.2765 323.7829 L22.9136 361.4094 L23.0042 361.56 L27.8039 368.6111 L36.0543 375.9853 L48.3834 386.7052 L61.0994 397.8853 L76.6305 411.5404 L90.8148 424.4988 L106.4786 438.809 L108.0585 432.651 L109.1741 431.6833 L113.1389 432.4091 L115.1147 432.8529 L117.0898 432.6677 L118.3807 432.1538 L119.6512 431.8795 L120.5633 432.1948 L122.4688 433.4779 L122.6018 433.5673 L122.9629 434.1947 L124.5215 434.5938 L124.7288 435.5328 L124.514 436.632 L123.888 437.7669 L121.964 441.8455 L119.6441 447.4489 L118.6688 450.0809 L132.6447 462.4364 L157.1353 466.5077 L165.6298 467.917 L165.4478 466.827 L164.8719 465.9756 L163.6772 463.7773 L162.5324 462.7734 L160.1938 462.1054 L159.1145 461.0231 L159.6621 459.8864 L160.5663 459.2394 L161.3739 459.502 L161.7481 459.5354 L162.5382 459.3752 L162.9438 459.2554 L163.3941 459.0669 L162.3393 457.0277 L161.8776 456.3951 L159.6086 454.6354 L157.4335 452.9614 L156.0722 451.2464 L155.8204 450.7486 L156.4142 449.867 L157.8234 448.0679 L158.8668 447.3001 L159.5266 447.0606 L160.7859 446.9524 L163.4366 447.2704 L165.1219 447.4142 L166.1774 447.6542 L167.2388 448.2417 L167.9106 448.8417 L168.3424 449.4893 L168.8281 450.4486 L169.3319 451.1443 L169.9555 452.5297 L170.6812 454.8085 L170.9811 455.6544 L171.5807 456.2059 L172.4265 456.9256 L172.8282 457.5732 L172.9481 458.2271 L173.4039 458.9765 L173.9857 459.9181 L174.1474 460.8599 L173.9436 461.4895 L173.9857 462.1852 L174.0336 462.5869 L173.6379 463.0186 L173.3859 463.3125 L173.2419 463.7983 L172.9242 464.53 L172.1111 465.357 L172.2806 466.0386 L173.362 467.2314 L173.0168 467.8576 L172.6267 468.1799 L172.2535 467.9593 L171.6634 467.2354 L171.1744 466.2498 L170.7199 465.2353 L170.2769 465.0334 L169.7474 465.2359 L169.3403 466.6268 L168.8049 467.6651 L168.708 467.8529 L168.6996 468.1585 L168.4745 468.695 L190.1739 471.9515 L214.6583 476.2134 L238.5532 479.8487 L238.8853 454.606 L238.185 452.1016 L237.4368 450.2204 L236.3809 447.9091 L236.2075 447.3545 L232.8446 439.0613 L229.836 431.6329 L229.1088 429.6987 L228.8467 429.1881 L228.1459 429.5616 L226.527 429.963 L225.524 429.399 L223.5242 429.3663 L222.4803 428.9926 L221.5589 429.2192 L220.6509 429.5172 L220.5014 428.8588 L220.9877 426.9022 L215.8933 426.9416 L212.356 423.7493 L210.6232 421.0405 L208.2395 422.6557 L206.0188 420.07 L203.778 418.2655 L205.2977 416.9913 L210.6685 414.8634 L217.9978 411.9639 L216.3331 408.7519 L212.4956 400.0511 L211.9719 400.0818 L210.8062 400.0331 L208.9115 399.7514 L208.2732 399.1573 L207.3145 398.0555 L206.4277 397.693 L206.1458 397.5388 L206.7475 390.3095 L205.9653 384.4624 L204.4888 380.5021 L201.1436 371.3445 L200.8664 370.3386 L200.7088 369.9811 L200.3925 369.0524 L199.6366 366.2385 L199.3075 365.8062 L198.0464 366.9679 L189.0907 372.3606 L185.7229 374.7148 L182.6479 376.6452 L182.5171 376.1669 L182.3905 375.2939 L182.0071 373.8378 L181.4829 372.9639 L180.9652 371.5541 L180.4693 370.6377 L180.12 370.1487 L179.977 369.6366 L179.6947 369.3432 L179.1524 369.2697 L178.7206 369.1335 L178.6212 368.9903 L179.0657 368.0489 L178.7615 367.3669 L175.9408 366.3653 L169.1372 363.8382 L170.4907 360.3995 L167.6479 358.4445 L166.0437 360.4129 L159.2247 354.978 L156.7031 353.1181 L153.0511 354.29 L151.8369 354.4051 L149.8297 354.2449 L147.1133 353.3384 L147.2793 350.2348 L148.37 348.4806 L146.5397 344.5262 L146.4941 343.9636 L146.495 342.9983 L146.3077 341.9682 L146.7708 339.9592 L147.9251 338.0584 L149.0183 337.5675 L150.3971 337.3692 L151.19 336.6032 L149.9374 335.5578 L151.6869 332.958 L153.5473 331.9963 L154.5989 332.2157 L155.1265 331.3385 L154.3533 330.3602 L155.9864 328.8499 L158.0451 328.5504 L159.9603 327.5339 L160.9919 327.1983 L161.8185 327.0861 L163.236 327.416 L163.349 326.8884 L163.8882 326.5225 L164.225 325.4098 L163.3198 324.9507 L163.2508 324.0691 L164.7978 323.8187 L164.2035 322.2502 L160.8314 318.8057 L158.426 316.973 L158.0155 316.4284 L156.9409 314.4377 L156.3877 313.4372 L156.1113 312.3769 L155.6419 312.0674 L155.6827 310.7883 L156.8105 310.9954 L159.9556 313.1293 L161.3857 312.0089 L162.0439 310.793 L162.1129 309.7327 L161.5253 308.7993 L160.5077 307.9297 L159.0129 307.5546 L158.6529 307.0654 L160.0198 306.3186 L160.0628 305.1628 L161.6813 303.1623 L162.2781 302.5762 L163.7838 304.754 L163.1438 305.3455 L163.5631 305.5822 L166.5572 305.9526 L175.8226 309.4592 L176.4327 308.5408 L176.2244 306.7374 L177.6938 307.0213 L178.2345 306.161 L179.0545 305.0048 L179.7318 305.4954 L180.7389 303.7895 L180.6305 302.9689 L181.7501 301.8478 L181.8818 301.0135 L182.4092 299.3066 L183.8464 298.2278 L184.8262 297.3227 L186.4239 296.411 L187.144 296.4744 L187.434 297.264 L187.5096 298.167 L186.9524 298.3053 L187.2469 299.3807 L186.7779 299.5988 L186.4037 298.983 L186.252 300.0961 L186.0744 300.1886 L186.0247 299.7124 L185.814 299.4495 L185.4303 299.4612 L185.0514 299.717 L184.6367 300.6265 L184.2279 301.1114 L183.867 301.4106 L184.0376 301.6972 L184.9173 301.4247 L185.1818 302.2419 L185.1422 303.1015 L185.4172 303.4609 L186.6308 303.5677 L188.1601 303.3169 L190.259 303.0391 L191.1022 302.5572 L192.4968 302.5111 L194.2017 302.6824 L194.4588 302.5662 L193.9245 300.5112 L194.0128 299.5821 L199.8338 296.5579 L199.7049 295.6361 L200.7876 295.6361 L201.8725 295.6361 L202.4353 293.8526 L204.126 293.4285 L204.5037 293.4799 L204.9866 294.2791 L205.3608 294.3977 L205.6783 294.4071 L206.0478 294.2935 L206.4693 294.6345 L206.7331 294.7471 L208.5155 293.7488 L209.8447 292.9575 L210.9977 291.5558 L211.855 290.9018 L212.0681 290.4519 L212.1248 289.9229 L211.2155 288.3821 L210.6092 287.501 L210.9076 286.7195 L210.7515 286.6483 L209.98 287.126 L209.0919 287.0815 L203.8961 280.8566 L213.2243 272.5344 L221.9673 263.8509 L225.1102 262.2341 L225.701 263.2263 L229.4068 260.3901 L230.3434 261.6829 L234.1415 259.7855 L241.2867 253.024 L243.3275 250.211 L242.9816 248.6342 L251.0806 247.6419 L268.0905 220.7024 L268.5546 220.1177 L271.7941 215.0453 L273.3308 211.1781 L273.7684 209.5083 L274.7287 207.8114 L276.9742 203.6707 L277.8505 202.0492 L277.9921 201.0089 L278.3968 198.3428 L280.0256 195.7776 L283.0601 195.4781 L284.0354 195.3752 L284.928 195.4293 L285.4354 194.6403 L286.8425 193.9592 L288.5151 194.9397 L288.3519 196.4941 L287.4726 197.52 L288.2638 198.145 L289.8578 199.0262 L291.095 199.4827 L292.585 199.7454 L295.5883 199.5933 L294.5876 200.9792 L294.1672 201.2171 L293.8186 201.2282 L293.3043 200.509 L293.2628 200.6764 L293.697 201.5045 L294.3853 202.748 L292.0995 209.0739 L296.3402 217.1571 L297.7149 225.2323 L297.7578 226.2861 L298.0846 226.5698 L299.3499 228.0634 L300.3832 227.0309 L300.351 225.0763 L301.2404 223.7264 L304.0159 220.6322 L305.0901 220.8461 L300.8322 225.9116 L300.6947 229.1827 L305.1307 237.1443 L306.3446 239.5636 L307.0815 240.499 L304.1341 243.8534 L299.612 248.9783 L299.3134 251.7111 L306.4261 259.0405 L313.7463 258.9587 L316.8209 258.817 L318.6278 258.5809 L319.6843 258.1128 L320.0785 258.4526 L320.7359 258.5715 L321.5052 258.8725 L321.9406 259.2988 L321.9314 259.4795 L321.599 259.9472 L321.8061 260.2348 L321.8341 261.6014 L322.9557 261.9555 L323.5823 261.9468 L323.7509 262.2451 L324.4225 262.471 L325.2644 262.6918 L326.7267 262.948 L327.5444 262.785 L330.1695 262.957 L332.6665 263.3074 L334.4968 263.4434 L334.8147 263.9512 L335.3748 263.6432 L335.3834 263.2483 L334.9767 263.2136 L334.7565 263.1468 L334.373 262.9209 L333.9509 262.7699 L333.6241 262.469 L333.3767 262.1884 L333.4063 262.0347 L333.4772 261.9502 L333.6991 261.8079 L334.5576 261.4972 L334.8186 261.6081 L335.3668 261.3348 L336.0001 261.546 L337.2053 261.4594 L337.5821 261.3813 L337.9439 261.3602 L338.3142 261.4 L338.6648 261.3546 L338.7514 261.3422 L338.8487 261.3218 L338.9658 261.2951 L339.0773 261.2714 L339.5155 261.1357 L340.2573 260.773 L341.1115 260.16 L341.5616 259.8677 L341.9485 259.5022 L341.997 259.4471 L342.409 258.9777 L342.7654 258.5875 L342.945 258.4489 L343.3279 258.3811 L343.8378 258.026 L344.7837 257.5389 L345.7397 257.4066 L346.2828 257.5406 L346.7719 257.4761 L347.161 257.6121 L347.1292 257.8693 L346.8729 258.9403 L346.7475 259.6769 L346.6151 260.0026 L346.3535 260.4613 L345.897 261.0222 L345.7479 261.079 L345.2183 261.103 L345.0576 261.1702 L345.0649 261.5503 L345.9885 261.423 L346.2018 261.8536 L347.9052 261.5931 L349.3855 260.6707 L351.2912 260.4359 L354.5375 259.5787 L356.2701 258.2855 L359.8476 257.6208 L361.0347 257.5783 L361.4472 256.8364 L362.9033 257.1136 L363.7477 257.6061 L364.1396 257.735 L364.4605 257.6709 L364.6835 257.2419 L365.2103 257.1962 L365.9321 257.283 L366.9072 257.0502 L366.5733 256.8143 L366.4288 256.4873 L367.0655 256.0774 L367.4838 255.5512 L367.846 255.0468 L366.7897 253.2592 L368.904 251.2106 L369.4494 252.0936 L370.4806 251.5727 L371.0026 251.7929 L371.19 252.2773 L371.4265 252.5239 L371.7932 253.4392 L371.993 253.8174 L372.1505 254.1381 L372.274 254.4815 L372.3595 254.8978 L372.9642 254.6753 L373.4628 254.6342 L373.6598 256.5157 L374.0151 256.493 L373.7934 254.8724 L374.8545 254.6793 L376.0128 253.8324 L375.8775 252.7808 L376.758 252.2763 L377.6305 251.6643 L375.9739 251.9209 L375.6143 250.7449 L377.6085 250.0854 L377.9989 251.4338 L378.2943 251.8357 L379.0023 251.989 L380.0593 251.9964 L380.5261 251.8851 L382.0898 249.7584 L382.6172 249.3775 L384.4458 247.9109 L386.6935 247.3359 L388.903 245.9785 L391.3997 245.2739 L392.1012 244.4594 L394.466 243.9215 L395.1989 244.2643 L396.3178 242.2958 L396.7536 241.1642 L397.9848 240.3591 L399.5273 239.593 L400.2914 239.6411 L400.6005 239.765 L401.4319 239.6411 L401.7331 239.5352 L407.4935 236.729 L408.3603 236.3722 L410.6729 235.4207 L412.8108 233.7421 L414.4687 232.1704 L415.207 230.6896 L415.525 230.4263 L417.9856 229.4934 L421.0181 229.5482 L421.7551 229.7046 L421.9289 229.9782 L421.9233 230.2813 L419.8679 230.591 L419.7038 230.87 L420.1287 232.0986 L420.7916 232.2643 L421.0318 232.5844 L421.1048 232.7484 L422.4694 233.0625 L424.0707 233.4731 L426.1131 233.7284 L426.2989 233.4962 L426.3376 231.8269 L426.6553 231.6127 L427.8768 231.5593 L429.6983 230.7387 L430.4534 230.2956 L431.438 230.0167 L432.2586 230.3448 L432.5377 230.8536 L434.7532 231.3952 L437.0054 231.6127 L437.9863 231.707 L438.5114 232.15 L439.332 233.2496 L440.5159 234.9375 L440.9896 235.6128 L441.6624 237.0407 L442.3518 237.6478 L443.175 237.7384 L443.8453 237.8122 L444.4361 237.73 L444.5181 237.3361 L444.7259 237.1881 L446.9033 236.7404 L447.5242 236.4764 L447.892 236.1213 L448.1098 235.0889 L447.9263 233.9876 L447.7773 233.5403 L447.6166 233.0468 L447.6509 232.2212 L447.6052 231.4754 L447.8179 230.4991 L447.8574 230.3167 L448.1468 229.3344 L448.6045 228.4834 L448.4258 228.3774 L448.1962 228.4332 L447.7773 229.032 L447.348 229.2846 L446.1482 229.1008 L445.8662 229.2415 L445.4026 230.007 L444.9549 231.154 L444.852 232.1868 L445.0172 234.3331 L444.9093 234.584 L443.7853 234.5954 L443.6595 234.5052 L442.2042 230.4594 L441.1954 229.9311 L440.6803 228.0026 L441.4672 227.5625 L441.8551 227.2595 L442.7619 226.5899 L442.9581 225.7642 L442.9748 224.7859 L442.522 224.0535 L442.5746 221.5254 L443.8635 220.9677 L446.3886 218.9836 L446.687 218.5963 L447.8243 217.9297 L452.3256 221.6213 L453.0227 223.4838 L453.3232 224.7034 L453.4828 225.3516 L453.5312 225.5474 L452.2684 226.3413 L451.291 227.1302 L451.0967 226.9748 L450.8909 226.8101 L450.2224 227.0386 L449.2022 228.5305 L448.4329 230.2282 L448.1328 231.0394 L447.9809 232.0291 L448.0295 232.852 L448.1328 233.6091 L448.3609 234.5436 L448.3852 234.9051 L448.5573 235.6051 L449.1079 236.8095 L449.6469 237.7845 L449.7502 238.5415 L449.8649 239.0808 L449.8488 239.752 L449.819 240.9391 L449.8684 242.0112 L450.1517 242.4532 L450.4843 242.6252 L450.9891 242.6941 L451.5281 242.7629 L452.033 242.8548 L452.9735 242.8204 L453.2972 243.1431 L453.7191 244.0705 L454.1436 245.585 L454.3617 246.1125 L454.7503 246.6153 L455.6693 247.0302 L456.9705 247.3733 L457.0034 247.1762 L457.8575 247.0403 L458.6977 246.4252 L458.7916 245.9792 L458.9701 245.8152 L459.3643 246.031 L459.6791 245.7443 L460.3876 245.1249 L463.3257 244.8433 L465.4145 245.017 L465.4828 244.9472 L465.607 244.4257 L467.0854 244.9515 L467.0667 245.2188 L470.0238 245.754 L473.0254 247.084 L474.6449 247.7248 L475.5648 247.8093 L476.1491 246.904 L476.1311 246.47 L476.008 246.0818 L475.9599 245.7557 L475.3118 244.0806 L474.4112 242.3242 L473.7841 240.9895 L473.733 240.4356 L473.5478 240.3297 L472.4687 240.6868 L471.0026 240.7312 L469.4917 240.5899 L467.2345 240.4623 L466.3733 240.7984 L465.6068 240.9026 L464.7434 241.4011 L464.2763 242.0225 L463.947 242.1084 L462.9943 242.1455 L461.6101 242.1455 L460.6649 242.086 L460.2108 242.2497 L458.7446 242.8377 L457.6431 243.0161 L457.0552 242.8822 L456.7725 242.5548 L456.7278 241.9594 L456.8096 241.4459 L457.1669 240.7536 L458.2906 239.3621 L458.5512 238.6027 L458.6479 238.1266 L458.4915 237.7247 L458.1581 237.0511 L458.0004 236.6528 L457.2636 236.2583 L456.9185 236.2025 L456.7127 236.2957 L453.4158 239.31 L452.8203 239.6745 L452.5228 239.5702 L452.5376 238.0073 L452.7831 237.5386 L452.798 237.0474 L452.7574 236.8072 L453.6613 235.5439 L453.6094 235.3281 L451.6817 234.0926 L451.2128 233.4674 L451.1829 232.991 L451.1904 232.2543 L451.0566 231.3241 L450.982 230.4012 L451.1756 230.014 L451.5401 229.7387 L452.3292 229.2549 L453.1404 228.8903 L453.6317 228.883 L453.8102 228.9795 L454.4205 230.5873 L454.6736 229.8877 L454.9267 229.0093 L455.6857 227.3273 L456.1709 226.8471 L457.4621 225.7118 L457.8823 225.3422 L458.7761 224.6268 L459.1716 224.3108 L459.7611 223.7581 L460.1452 223.7213 L461.1294 224.2423 L461.9766 224.837 L461.9925 225.121 L460.7609 226.2895 L460.8136 226.6577 L460.2032 227.4736 L459.519 228.5893 L458.3613 230.147 L457.0455 231.7624 L456.4876 232.5941 L456.3035 233.1099 L457.2825 233.6205 L458.2047 233.983 L459.719 234.578 L460.2505 234.6783 L462.1188 234.1938 L464.0029 233.9729 L465.929 233.3308 L467.1131 232.5941 L469.4023 232.0047 L470.7811 231.8837 L471.6758 231.6204 L473.4073 230.9311 L474.623 230.8416 L476.8753 231.0207 L478.6227 231.7942 L479.4878 232.0571 L482.2064 231.8152 L482.9589 231.6993 L483.6747 231.8837 L486.0318 232.8747 L486.8535 233.6836 L488.2744 234.3518 L488.6097 234.6923 L488.9637 235.5834 L489.0415 235.999 L489.0847 236.2305 L489.469 236.7304 L490.2847 237.6568 L490.753 238.32 L491.0456 238.5726 L491.4108 238.8883 L491.4478 239.0514 L486.9482 242.809 L486.8481 243.2196 L487.0376 243.5721 L487.3871 243.5159 L490.9805 240.7206 L491.5958 240.2418 L492.222 239.6758 L492.7653 239.6461 L494.2089 240.7069 L496.998 242.7592 L497.3508 242.6593 L497.4771 242.4592 L497.1665 241.5859 L497.4876 240.9541 L498.6296 239.8439 L499.0294 239.5753 L499.2874 239.1753 L499.3031 238.865 L499.0505 238.2492 L499.0559 237.8757 L499.0821 237.6177 L499.1347 237.1914 L499.2926 236.9124 L499.6821 236.8283 L500.0189 236.8283 L500.6454 236.9442 L501.403 237.1547 L503.4239 238.749 L503.5605 238.7601 L503.7133 238.6648 L503.674 238.3357 L503.6022 237.7744 L503.6321 237.4874 L503.9548 237.0097 L504.2534 236.7888 L504.7193 236.723 L504.9283 236.7708 L505.1922 236.8336 L505.4448 236.881 L506.5288 236.9913 L507.6025 237.2071 L508.0145 237.1186 L508.8225 236.4053 L509.1813 236.1336 L509.2264 235.4207 L508.8977 235.0087 L508.2852 234.7341 L507.4023 234.5219 L507.0858 234.5055 L506.7174 234.6622 L505.5037 234.6208 L504.8411 234.5984 L504.6089 234.5904 L503.7844 234.6205 L503.2469 234.4948 L502.8602 234.5907 L502.5837 234.295 L502.0018 233.9465 L501.3478 233.0421 L501.2299 231.9546 L500.9425 230.9756 L500.7839 230.4356 L500.3313 228.6611 L500.2763 228.062 L500.3545 227.631 L500.4202 227.2755 L500.513 226.934 L499.6251 225.5457 L499.3856 225.1712 L493.4003 222.2729 L491.9202 220.1377 L489.68 218.7938 L489.4546 218.4423 L489.2499 218.2077 L489.1571 217.9825 L488.6697 217.3984 L488.9227 216.6028 L488.7032 214.9497 L488.724 212.8984 L488.4898 210.6969 L487.5785 208.5927 L485.015 210.6565 L484.4069 210.0587 L485.2161 209.5608 L484.2247 208.577 L482.4863 208.0226 L481.2816 207.0842 L479.5019 209.7248 L467.6642 213.8056 L464.4418 213.2576 L461.7375 213.312 L459.1345 213.6576 L457.1813 214.2998 L456.7273 214.4492 L456.9772 212.5665 L457.0479 211.4902 L456.6491 209.11 L456.1441 206.4674 L454.3875 206.7046 L454.2889 206.1449 L454.2723 206.0503 L450.869 207.5945 L450.8744 207.3703 L450.9339 204.9148 L450.0836 204.8433 L448.1556 204.7354 L445.4079 204.6739 L445.3718 204.4176 L445.3018 203.919 L445.3493 203.0915 L445.5078 202.9412 L446.8606 202.9412 L447.1547 203.0514 L449.2119 202.9739 L449.3685 202.9679 L449.3543 201.688 L449.5891 201.7114 L451.7348 201.9259 L451.4942 202.8483 L454.1774 203.4264 L456.6328 203.2159 L456.8373 201.7274 L458.1903 201.2626 L458.9549 200.3863 L459.4056 200.0488 L460.0378 199.5943 L460.2694 199.1626 L461.1581 198.5523 L462.1124 198.1787 L463.6759 197.4933 L464.6796 197.3957 L465.8381 198.0026 L466.1107 196.9282 L467.2931 196.8577 L467.4375 196.5268 L467.7243 195.8705 L468.0343 194.5928 L468.6814 193.881 L469.0289 193.1605 L469.5699 190.9985 L469.9301 189.278 L470.511 187.3811 L470.8934 186.5796 L471.2692 186.2601 L471.5551 185.7929 L471.5699 185.2341 L471.9007 185.0944 L472.4006 185.1679 L472.516 185.0566 L472.342 184.8003 L472.7242 184.4179 L473.507 184.3976 L473.7169 183.6606 L474.1727 182.7415 L474.6245 182.2392 L475.5625 182.6974 L476.1506 182.8959 L476.7118 182.9577 L476.8639 182.6459 L476.1066 182.3224 L475.959 181.8471 L476.2067 181.1773 L477.4349 180.6155 L479.7153 180.5002 L481.0364 180.8027 L483.1458 181.8635 L483.6567 181.9748 L484.8511 182.4882 L485.4393 182.9253 L485.6058 183.1479 L485.5358 184.1619 L485.075 185.0078 L485.1083 185.6211 L485.2058 185.8581 L485.574 186.1575 L485.6681 185.8564 L486.8917 186.1418 L487.3556 184.9808 L488.385 184.7191 L489.6132 183.8628 L491.0246 184.4961 L490.2628 186.1228 L490.248 186.2702 L492.0154 187.2962 L492.0474 187.3443 L493.2837 187.7417 L493.3002 187.6421 L493.9357 187.6682 L494.3978 185.9911 L494.963 185.5773 L495.323 185.4497 L496.2262 185.563 L496.4367 185.4236 L497.8758 185.7234 L497.8606 185.8848 L499.2159 186.1946 L500.2024 186.3741 L500.8761 186.4924 L502.3448 186.9032 L504.773 187.4877 L505.0603 187.4001 L508.8158 187.4686 L509.2996 187.59 L509.9497 187.2875 L510.1811 187.2735 L510.2311 187.4342 L510.1753 187.6023 L509.5942 188.0736 L508.9282 188.3673 L507.3202 189.0378 L506.4579 189.5975 L505.8495 190.0925 L504.3182 190.553 L503.3934 190.6443 L502.278 190.2085 L500.4084 190.5417 L503.0374 191.185 L504.3457 191.9537 L503.8774 191.0647 L504.7668 191.0647 L507.1535 190.54 L507.3784 190.2426 L507.9879 190.0196 L508.1563 190.281 L509.2275 189.758 L509.7695 188.7828 L510.1948 188.5298 L510.5426 188.4482 L511.0784 188.1872 L511.6432 187.7858 L511.5486 187.4322 L511.7633 187.0803 L512.0 187.0282 L511.9695 186.6629 L511.8361 186.7424 L511.5553 186.6291 L511.5678 186.3848 L511.1325 186.321 L505.2355 185.2541 L501.5723 184.296 L499.6475 183.6459 L497.5003 182.9781 L497.0223 182.8602 L496.6885 182.9059 L496.4528 183.0436 L495.9748 183.181 L495.2676 183.2335 L494.5149 183.168 L493.3692 182.677 L490.1874 181.1382 L484.151 177.7535 L482.5209 176.8568 L481.0805 176.1104 L480.4192 175.8745 L479.5812 175.6325 L479.4104 175.6014 L479.3784 175.7144 L479.5421 175.934 L478.0048 176.2094 L477.5195 175.1876 L477.5453 174.9186 L470.597 172.5796 L466.8934 171.0668 L464.5857 169.8799 L462.8905 169.552 L462.4497 169.2759 L460.5777 169.6339 L459.6913 169.9387 L458.843 170.4046 L457.7761 170.7476 L455.2446 171.652 L454.6429 172.496 L452.6053 172.6207 L450.1234 172.737 L447.8954 172.3195 L445.4982 171.6838 L442.2594 170.3558 L440.7022 169.201 L439.144 168.0458 L436.4531 165.7291 L434.0249 164.2243 L430.7396 162.5326 L427.6476 160.5621 L425.4443 158.7674 L419.5001 153.9472 L416.3959 148.3212 L415.2831 146.0413 L414.141 144.8886 L412.9172 144.0067 L412.1724 143.5829 L410.4031 142.9841 L408.125 144.088 L407.2531 143.746 L407.3781 143.2887 L406.7521 143.0727 L406.1257 143.0246 L404.7884 143.6674 L403.4766 144.4443 L402.3426 145.2079 L401.5535 145.3804 L400.1782 145.0558 L399.4005 144.6844 L397.4845 143.7694 L397.0596 143.5695 L396.5094 143.4896 L396.3519 143.8058 L397.1824 144.802 L397.9552 145.6037 L398.2375 145.6134 L398.9548 145.6254 L399.8216 145.7498 L400.4027 146.2051 L402.1103 146.4401 L403.4702 146.7497 L403.4859 147.1555 L405.0608 147.0301 L406.6911 146.7701 L407.4112 146.4999 L408.4312 145.9697 L409.2013 145.83 L409.6593 145.581 L410.6353 144.8448 L411.2368 145.4168 L412.0282 146.169 L412.8824 146.9529 L413.5516 147.0549 L413.7176 147.4928 L413.7127 148.0123 L413.845 148.2774 L414.2373 148.4251 L414.7922 148.4542 L415.6008 149.5644 L414.5922 150.2407 L412.4574 150.7391 L411.1715 150.6759 L410.2138 151.1981 L408.6219 151.4097 L406.641 152.0007 L402.7391 152.8524 L400.515 152.4169 L396.8789 152.9407 L396.3195 153.8312 L395.8292 154.3413 L393.7358 155.5885 L389.7387 155.3833 L388.3875 155.5056 L387.8081 155.7714 L387.6051 156.1671 L387.784 156.3747 L388.2182 156.5014 L388.9582 156.3416 L389.6483 156.2815 L390.0618 156.4078 L390.1785 156.4436 L392.853 156.5452 L392.4707 158.3095 L392.2591 159.6192 L392.8924 159.8699 L393.4494 157.901 L393.9635 157.319 L394.2988 157.2689 L394.4789 156.7705 L394.7029 156.5054 L395.0864 156.582 L395.3274 157.2863 L396.1957 157.9853 L397.8392 159.0673 L398.0613 158.973 L398.8652 158.0929 L399.7434 157.1553 L400.8497 156.6348 L401.7305 156.5322 L402.3172 156.349 L403.0635 156.3363 L403.7972 156.4606 L406.8567 156.4606 L407.9893 156.226 L409.0211 156.012 L409.6138 157.4838 L409.144 158.6361 L408.7848 159.5169 L403.6839 162.9872 L403.4799 164.4636 L400.8197 165.9451 L400.6379 167.2567 L400.6441 168.0382 L399.2628 169.2408 L397.3913 169.4046 L396.6286 169.301 L396.4095 169.2712 L394.9008 168.2945 L395.0028 167.3071 L393.9293 166.7496 L393.6041 166.153 L392.9108 165.8117 L393.3433 163.2657 L390.2401 161.6234 L388.1097 161.9363 L387.378 160.8914 L387.4953 159.7301 L383.4733 157.9619 L381.2314 158.6378 L378.146 158.7708 L378.1347 158.4526 L378.0683 156.6027 L377.7851 155.5664 L377.7228 155.3385 L376.0498 155.4555 L373.8257 155.898 L373.6476 155.3024 L373.3275 154.8524 L372.7674 155.0323 L372.1073 154.8223 L371.422 154.3951 L371.4772 153.9723 L371.7872 153.8222 L372.0308 153.6891 L371.9573 153.4622 L372.1528 152.111 L370.7816 152.1504 L370.6299 151.9639 L371.0471 149.3815 L371.0572 147.8732 L371.2471 147.1511 L373.3576 143.8807 L374.3975 142.6806 L375.9578 140.08 L376.9211 138.5662 L377.1686 137.4162 L377.2386 133.1958 L377.4281 132.7889 L377.8882 132.499 L378.6283 132.5288 L379.0084 132.359 L379.4943 131.9076 L378.6148 130.2848 L378.4852 130.0461 L378.4481 129.9772 L378.1862 129.468 L379.3302 128.4878 L380.4157 128.0558 L381.6728 128.0926 L382.4888 127.8482 L383.2269 127.0297 L383.8359 126.6188 L383.8385 125.9375 L383.7289 125.0237 L383.0119 124.3333 L383.2209 123.7 L385.2031 124.2403 L385.497 123.9846 L386.5256 124.2327 L387.8605 123.8024 L388.2723 123.8575 L388.9475 123.9481 L389.3022 124.1377 L389.7499 124.1875 L390.3819 123.7706 L391.6264 123.132 L394.0305 122.6305 L396.4149 119.6163 L397.4692 118.6113 L397.3315 117.9773 L396.651 117.9031 L396.141 118.1736 L395.1012 118.5698 L394.0062 118.855 L391.8863 119.2619 L389.9043 119.73 L388.2639 120.1339 L386.7937 120.488 L386.3105 120.5809 L385.9105 120.6351 L385.2772 120.7407 L384.1375 120.708 L383.1459 120.6314 L382.2097 120.5752 L381.1744 120.379 L380.1884 120.0055 L379.3832 119.6511 L378.5181 119.2014 L377.6206 118.8256 L376.6762 118.3585 L375.5554 117.8994 L374.5453 117.4143 L372.9711 116.7389 L371.556 116.1029 L370.6391 115.7007 L369.6986 115.2055 L369.1616 115.0159 L368.6292 114.7762 L368.2172 114.598 L367.8254 114.4014 L367.4891 114.1977 L367.24 113.9252 L367.0423 113.6969 L366.8341 113.4648 L366.4619 113.0445 L366.0253 112.6112 L365.426 112.7623 L365.5469 113.1094 L365.4734 113.4715 L365.0079 113.6638 L364.1759 114.2108 L364.0964 115.2399 L366.4726 115.902 L368.3972 116.6329 L369.1227 117.3454 L370.5137 118.5695 L376.7638 120.7197 L374.5069 124.7017 L373.0138 125.3203 L369.5062 126.0615 L369.4342 125.5978 L367.2786 126.2417 L365.667 126.0735 L364.3555 126.1136 L363.1157 126.5974 L362.1795 126.8666 L361.5097 127.018 L360.969 125.022 L359.5704 124.7479 L357.6269 125.2276 L357.5629 124.7318 L355.9233 124.692 L355.7553 124.348 L355.0516 124.5319 L354.0036 124.348 L352.3882 125.1959 L350.0639 124.6616 L349.6601 125.2892 L348.2351 125.0939 L346.2329 125.5413 L345.4132 126.1902 L344.7427 127.5971 L342.6333 126.5714 L341.5381 126.4493 L341.2408 126.6175 L340.4782 126.6763 L339.1089 126.5225 L339.3085 124.8221 L338.8794 123.8823 L338.6083 124.1023 L337.9355 123.9067 L337.5353 124.4409 L337.0397 125.3383 L337.0998 126.6777 L336.2809 126.7623 L335.651 126.9695 L335.2482 127.2982 L333.6482 128.018 L332.0312 129.3236 L331.0157 128.3443 L329.8359 127.226 L329.4035 127.7409 L329.6013 128.4252 L326.2872 131.1173 L324.1495 133.2041 L323.2332 133.6678 L322.8147 133.2549 L321.7861 134.1559 L317.4505 125.5526 L319.593 125.8351 L320.2396 120.606 L317.1246 119.6631 L317.1246 115.6843 L320.7081 115.5546 L320.9122 114.4458 L323.9454 114.3636 L327.0328 114.9347 L328.1418 114.5772 L330.0239 114.4238 L330.912 114.7137 L331.0963 114.278 L329.185 112.5777 L327.5826 111.1487 L325.9497 109.9098 L326.2352 109.1608 L326.809 108.8097 L327.6909 108.4112 L328.855 108.4202 L328.397 106.8135 L328.9981 106.7389 L329.2554 106.6874 L329.7648 106.4835 L330.2219 106.013 L329.9831 105.2001 L328.6518 105.5954 L328.5856 105.5435 L328.1345 105.1884 L328.099 104.8871 L328.1407 104.6708 L328.1345 104.299 L324.5989 104.7069 L320.9904 105.5405 L318.7313 105.8809 L316.3873 105.9903 L314.876 106.112 L313.6633 105.799 L312.9892 105.7368 L307.584 104.8657 L304.9764 104.2705 L303.0357 103.7997 L301.3983 103.6375 L299.5845 103.054 L298.8766 102.6765 L296.9202 101.4266 L296.265 100.9655 L295.9056 99.9342 L295.8504 99.0658 L295.8315 98.0161 L292.7504 97.5677 L295.9664 85.8667 L295.7022 82.0777 L293.9578 80.5092 L294.2349 78.0678 L293.7133 75.2056 L292.2823 74.0532 L291.3395 73.5953 L290.405 73.394 L283.7728 74.5562 L282.72 74.915 L281.2759 75.8311 L280.9745 72.5384 L281.1979 72.2418 L281.4742 71.8378 L283.5945 70.7501 L288.2112 68.0879 L282.5312 60.7731 L287.2724 42.0381 L282.1281 35.8368 L281.5417 35.1299 L281.2798 34.8141 L280.8632 34.312 L280.6392 34.042 L280.2061 33.5202 L279.7345 32.9515 L279.3913 32.5377 L279.0707 32.1513 L276.7502 35.3015 L276.5044 35.6351 L276.4262 35.8117 L276.1903 36.3443 L275.9396 36.9106 L275.7233 37.3993 L276.0196 37.7429 L275.777 38.8271 L275.0432 39.285 L274.6569 40.4863 L274.3697 41.9247 L274.1879 43.5949 L274.3093 47.0363 L274.6387 48.7523 L275.3585 51.7337 L276.2943 55.977 L276.6518 57.6273 L278.0464 63.797 L278.1676 66.4503 L277.9094 68.63 L276.3091 73.6963 L274.965 78.6497 L274.7753 80.6319 L275.0144 83.5692 L276.6799 91.7745 L278.4258 99.5139 L279.6712 102.8855 L282.7846 108.3617 L283.1758 114.1877 L282.7587 116.7599 L282.0476 118.5217 L281.0705 120.0801 L279.8435 121.3951 L276.2827 124.117 L272.9239 126.0334 L270.9825 127.3042 L263.8896 133.8223 L261.7229 135.1205 L260.3188 135.532 L259.044 135.7433 L257.8947 135.7563 L256.7819 135.5788 L255.3314 135.289 L253.9936 134.623 L251.4514 132.9908 L249.5435 131.0203 L246.7001 126.6389 L245.4483 125.239 L244.1305 124.13 L240.0316 120.8501 L238.6636 118.3257 L234.9789 118.9556 L234.1656 118.8874 L230.9342 114.3803 L230.2177 112.2999 L230.3599 110.8745 L230.9786 110.4023 L230.9243 109.7125 L230.9911 108.9976 L230.9743 108.3332 L231.129 107.6434 L231.3464 107.1251 L231.7018 106.3123 L232.0111 105.7625 L231.9108 105.4573 L231.6182 105.2693 L230.9159 105.2148 L229.7956 105.6121 L230.8841 105.9869 L230.5473 106.9563 L229.6192 106.7022 L229.0933 107.3886 L229.5992 107.9862 L229.7329 109.3531 L229.4209 110.2786 L229.0641 111.0627 L228.7857 111.6322 L228.5255 112.3948 L228.5374 113.4942 L228.6555 114.4639 L228.7047 115.0517 L229.4439 115.912 L230.8182 116.7609 L231.699 118.182 L233.4519 122.5018 L235.2221 122.4549 L234.4831 121.9701 L235.1147 121.5522 L235.7055 122.6723 L235.7055 123.7455 L234.8462 123.6185 L234.8462 125.3671 L233.7183 125.8485 L236.7066 128.3393 L236.8168 129.3029 L236.6146 130.0103 L237.1798 130.1323 L237.7704 130.3232 L238.1682 130.5706 L238.2943 130.8475 L238.6589 130.8679 L238.6434 131.0838 L238.6486 131.8297 L239.2471 132.703 L239.0224 133.0503 L238.3818 132.6525 L238.081 133.0891 L238.246 133.2543 L239.8134 134.1228 L240.2645 134.7537 L240.3741 135.6096 L240.62 136.6673 L240.6162 137.3978 L238.831 136.677 L237.4078 136.9074 L237.9611 138.4024 L238.0254 138.9286 L237.3364 139.9623 L236.2348 141.1608 L235.9048 141.8986 L235.9203 142.7685 L235.3566 142.4322 L234.9776 142.3416 L234.6917 141.326 L233.6629 140.5447 L232.2554 139.9663 L231.01 140.3531 L230.8504 140.0218 L229.2328 140.4578 L228.888 139.1824 L228.9256 136.7944 L230.8188 135.7276 L232.1404 135.5982 L233.4176 136.8068 L233.9067 136.6289 L234.6464 136.6369 L235.1072 136.6613 L235.0344 136.3822 L234.2098 136.2408 L233.6077 136.1843 L232.5041 135.4244 L233.3327 134.9209 L233.3368 134.5451 L232.8962 134.1814 L232.8315 133.6033 L233.7572 133.4051 L235.6767 133.6892 L235.5194 132.8959 L235.4709 132.1928 L236.1499 130.3901 L236.4378 129.3099 L236.4165 128.7937 L235.9504 128.359 L235.188 128.1551 L233.3368 128.1752 L232.9559 128.0688 L232.3628 127.682 L232.0534 127.236 L230.2796 125.8739 L229.6974 126.0485 L229.1563 126.2273 L229.4154 126.9351 L229.9593 127.9923 L229.9754 128.7783 L227.5187 129.4814 L226.0383 130.0611 L225.7483 128.1889 L223.7117 127.3664 L220.5673 128.2397 L218.5625 128.3607 L218.3039 129.5573 L217.9692 129.4958 L217.4431 128.7288 L216.9743 128.2922 L216.3316 128.0093 L216.4007 127.458 L217.1037 127.2818 L217.6613 125.2811 L218.1625 124.4202 L217.8714 123.5633 L217.3219 123.3329 L216.3236 124.2664 L216.4568 124.8405 L215.8643 125.3781 L214.7756 125.4751 L213.8991 125.8425 L213.365 127.003 L212.6415 127.9609 L213.0699 128.7084 L213.1023 129.5693 L212.9161 129.7054 L215.4581 133.5114 L218.0382 135.5474 L220.1306 141.1739 L218.4162 143.5106 L217.8684 146.4358 L218.9791 150.7414 L218.4162 153.7032 L217.862 152.8274 L218.5967 150.5409 L217.5247 146.4592 L217.9694 143.3301 L218.5675 142.3449 L216.6553 141.4229 L216.5561 143.4993 L215.834 143.6009 L215.8035 146.751 L215.248 146.8426 L215.1616 148.1931 L216.3071 148.0504 L216.309 149.1953 L215.6667 149.2308 L215.5412 150.2968 L215.5711 151.0356 L215.2901 151.0323 L214.7859 151.0553 L214.4396 151.1971 L212.9655 151.1523 L212.4544 150.593 L211.8804 149.8706 L211.4022 148.3399 L210.6004 148.043 L208.1793 148.1189 L207.1931 148.0233 L205.2435 149.1382 L204.8113 149.5079 L206.0122 149.5804 L207.1402 149.5012 L208.3508 149.2769 L208.5916 149.6266 L209.6339 149.6694 L210.6599 149.544 L210.8842 150.7809 L210.9336 151.896 L211.9543 152.2591 L212.1042 152.6562 L210.9629 153.273 L209.9678 152.8775 L208.3705 152.1371 L198.2569 148.7424 L198.7425 146.0747 L196.8198 140.2813 L197.5158 138.2955 L205.2538 137.239 L207.7458 136.3631 L208.3796 135.1295 L210.5171 132.5853 L210.0874 132.2343 L210.2808 131.8999 L211.3764 131.9133 L210.6245 132.5585 L211.3463 132.3513 L211.1895 133.1536 L208.5665 135.9118 L207.4429 141.1103 L205.7795 142.4489 L204.4805 142.9958 L204.8113 143.8951 L205.7842 143.5407 L206.2435 143.7614 L206.9819 143.0938 L207.212 143.4772 L208.5229 142.6348 L209.7244 140.6624 L212.2271 136.2461 L212.7429 136.0539 L214.0961 135.9118 L214.2765 136.0689 L215.0682 136.5941 L215.3099 136.8312 L217.1294 141.234 L219.8083 141.5817 L219.4259 140.1509 L218.1499 138.8437 L217.9297 137.9354 L217.8749 136.0656 L215.37 134.073 L212.9468 130.5125 L212.3059 129.3875 L211.4567 128.447 L209.0086 126.9084 L208.6275 127.0408 L208.9315 128.6282 L208.8823 130.4352 L208.71 131.1246 L207.798 132.2162 L206.125 133.3649 L204.0427 134.1262 L202.0729 134.6049 L199.7884 134.7667 L198.5783 134.7795 L197.2211 135.0235 L195.7205 135.1887 L193.4012 134.6788 L191.9722 134.0112 L186.6241 130.7097 L183.8786 129.2387 L183.626 129.7686 L183.9964 131.1978 L184.0526 132.5251 L186.4222 138.1584 L183.8013 140.5086 L182.8382 141.7616 L182.6137 142.3764 L181.9753 142.7488 L182.4481 143.9279 L182.3832 145.8995 L182.797 148.1457 L183.5239 148.1871 L183.5136 150.1785 L183.991 151.5213 L183.7549 153.7115 L184.2097 153.655 L184.6322 154.0241 L184.3457 154.459 L183.8256 154.5242 L183.5358 154.4058 L183.2404 154.1755 L183.5796 154.8157 L183.9201 155.8482 L184.0501 156.8651 L184.0382 158.3961 L184.733 159.8976 L185.0638 161.5833 L185.0756 162.4109 L184.6619 162.9311 L185.1461 164.5602 L184.4221 166.3285 L184.4316 166.9321 L184.6501 167.1163 L184.8806 167.0337 L185.6136 166.5725 L185.8561 167.7667 L186.2638 170.2178 L186.4825 171.0651 L186.9968 171.6504 L186.7842 172.1648 L187.6203 175.069 L187.5051 177.5349 L186.9098 178.8458 L180.1192 185.2361 L179.3243 184.835 L178.7722 183.9393 L182.6176 181.1854 L182.7508 179.541 L180.8152 180.8712 L179.2534 179.2268 L177.6959 180.5002 L176.1127 178.0303 L173.1373 176.4427 L170.3961 176.827 L166.1555 180.8344 L160.1962 181.7068 L159.7601 179.4006 L157.7106 179.16 L152.3249 174.5308 L150.688 171.867 L151.616 170.042 L156.5377 165.4594 L156.8578 163.2031 L159.3304 160.7329 L159.3734 158.978 L161.9363 160.148 L162.1038 162.9725 L163.3004 165.2388 L163.807 166.6122 L164.3754 167.5889 L164.5625 168.1177 L164.9288 168.2537 L165.7258 166.5557 L167.4444 165.787 L168.3875 165.4825 L168.9955 165.6198 L169.9938 164.9868 L169.5177 164.4366 L168.8565 163.3572 L167.4176 163.7346 L166.6906 163.621 L166.3598 163.3506 L166.0629 162.8318 L165.2358 162.8241 L165.5063 161.9142 L165.9449 161.0104 L166.1305 160.5651 L166.1643 159.6743 L165.535 158.9988 L165.6102 158.4088 L165.5219 157.886 L164.8588 157.3989 L163.8424 156.7708 L162.8284 156.5549 L162.5142 156.3289 L162.1466 155.9134 L162.2091 155.5461 L162.9936 154.1274 L162.665 153.5751 L161.4819 153.0777 L160.6355 152.6816 L160.5618 152.4022 L161.4228 151.771 L161.7751 151.1155 L161.6246 150.5014 L160.9448 149.6433 L160.8009 149.2328 L160.3296 148.9122 L159.753 148.957 L159.6078 149.4591 L159.2106 149.2752 L159.9313 147.3965 L159.7474 147.2862 L159.0819 147.6172 L157.8745 148.2376 L156.3781 148.6628 L156.2081 148.2195 L156.3121 147.689 L156.7224 147.0676 L152.7546 144.4667 L153.7321 142.9891 L153.311 135.9352 L153.2895 135.8282 L151.152 136.4935 L150.396 146.9111 L151.792 147.5115 L152.7718 148.1684 L153.6964 148.4148 L154.2704 148.5214 L155.5424 149.3859 L156.5957 150.4138 L157.8309 151.5243 L158.4185 151.8603 L158.744 152.2424 L158.7676 154.362 L158.3487 154.5155 L157.5282 154.8872 L156.8204 155.4652 L156.0152 155.866 L155.4711 156.1705 L154.0573 154.3771 L152.5183 153.7831 L151.1421 153.9041 L150.6267 153.7697 L150.5883 152.9052 L151.373 151.6233 L151.4321 150.9774 L151.6304 151.0048 L151.6459 151.5771 L152.8833 152.6418 L153.3501 152.3386 L154.4607 151.6483 L152.7765 150.6174 L152.8949 149.7175 L152.641 149.3448 L152.1252 148.9964 L150.7934 148.0818 L150.5898 147.8364 L150.3337 147.9167 L150.1268 148.2557 L149.6495 149.2762 L148.724 151.4722 L147.5932 153.5725 L147.0278 154.8725 L146.3227 156.341 L145.5736 157.2739 L144.438 158.4342 L143.6075 159.6847 L142.4378 160.9455 L141.5198 161.7167 L140.1172 163.2222 L138.8613 164.4633 L137.8113 165.543 L136.9225 166.5344 L135.9752 167.8122 L134.9397 169.3103 L133.8456 170.544 L132.553 171.7777 L130.7832 173.2099 L129.2262 174.4142 L127.192 175.9417 L126.0536 176.6248 L123.5627 177.5874 L121.532 178.9721 L120.4656 179.555 L118.3942 180.9798 L117.0208 181.7141 L115.6623 182.4778 L114.3293 183.6051 L110.6229 185.0356 L104.8348 184.7047 L100.2762 183.9788 L98.0199 184.1075 L96.7399 184.3287 L94.7741 184.2131 L93.4546 184.3879 L92.1274 184.8451 L91.6228 184.5814 L90.6051 185.3858 L88.7031 186.8694 L87.3737 188.1838 L85.2074 190.2696 L83.1805 191.6649 L81.7704 192.7076 L79.9418 193.3834 L78.1351 193.9121 L76.0055 194.7492 L73.9198 195.3662 L71.2027 196.2915 L69.4327 197.136 L67.5528 197.8044 L65.658 198.6122 L65.2146 199.3474 L60.6371 201.9259 L56.1676 206.9098 L55.5738 208.4517 L55.13 210.3541 L54.8475 212.0954 L54.8862 214.7299 L55.2608 215.0065 L55.3646 215.6378 L55.0602 217.4946 L54.5736 218.9051 L54.4943 219.8985 L55.2267 222.9455 L55.6798 224.2703 L55.9131 226.0038 L56.2357 226.5792 L56.805 227.1124 L57.9069 229.3254 L57.5653 229.6839 L57.4611 230.038 L57.6443 230.3381 L58.1195 230.6592 L58.4233 231.5302 L59.1114 233.6054 L59.3614 234.8059 L59.2946 235.285 L58.4611 233.8223 L57.6903 232.9138 L58.2779 234.2142 L59.23 236.139 L62.6629 246.7833 L62.3944 253.6353 L57.8082 264.2678 L55.405 269.6186 L54.3745 272.4956 L53.209 272.8955 L52.4694 274.4768 L52.9012 275.7895 L52.2954 277.5899 L51.0672 277.962 L50.4116 279.5589 L48.4307 282.5901 L39.0857 290.2722 L36.4154 291.4947 L27.6591 291.3844 L27.2874 293.3416 L28.0724 294.387 L28.472 295.8636 L28.7332 296.9049 L28.8409 297.801 L28.13 298.4145 L26.4363 294.8984 L25.3059 293.3891 L23.3469 293.3416 L22.5065 293.531 L21.3524 294.1586 L20.305 294.8863 L20.0113 294.5173 L20.5032 293.7892 L20.9565 292.4923 L21.9404 291.6283 L21.7578 291.6516 L20.8938 291.684 L17.7771 293.36 L17.4018 295.0219 L16.8884 296.0673 L16.4617 297.4236 L16.9973 298.141 L16.2688 298.1767 L15.7481 298.668 L16.3281 299.0765 L16.2544 299.4909 L14.9493 302.8885 L15.2952 303.021 L15.8727 302.5104 L16.3414 302.5772 L16.7348 301.0205 L17.3345 300.6558 L18.2497 300.7277 L19.4351 300.5086 L20.5417 300.1652 L21.1217 300.2718 L20.37 299.7334 L19.506 299.7985 L18.3047 299.8516 L17.5945 299.8222 L17.3345 299.6639 L17.6598 299.4165 L18.6149 299.4368 L19.0639 299.006 L18.3936 298.7789 L18.3288 298.0969 L18.6716 297.9106 L18.9784 297.8848 L19.222 297.9166 L19.4409 297.7095 L19.2042 297.088 L19.4824 296.6501 L19.9498 296.2356 L20.6644 296.3041 L21.3939 296.0225 L23.0451 295.4665 L23.8264 295.0934 L24.3886 295.6498 L24.6726 296.934 L25.661 298.7452 L26.3119 299.8279 L26.426 299.9972 L26.5592 300.0914 L28.0898 301.9727 L28.9369 302.5849 L29.8493 302.5972 L30.2426 302.8527 L30.3629 303.1984 L29.46 305.083 L28.7094 307.0881 L29.0007 307.5222 L29.8392 308.1831 L30.4368 309.2989 L30.7582 312.3268 L30.0972 312.9717 L28.4707 313.9665 L29.6437 316.8862 L28.9524 318.1792 L29.0209 318.6681 L30.5528 318.0049 L30.35 320.1511 L32.7251 321.4845 L33.0401 322.5855 L28.3747 324.3032 L26.2599 324.9507 L28.585 325.5518 L29.6914 328.6438 L28.5425 335.0399 L29.1335 335.4766 L31.2085 336.5945 L30.8862 336.9301 L29.1347 340.5352 L28.5001 342.4611 L27.461 343.9722 L20.9342 341.4477 L21.2695 338.0417 L19.984 337.4209 L20.3127 336.4162 L19.5614 335.479 L18.6052 335.0115 L16.8035 333.746 L16.8987 332.5476 L16.6108 331.5713 L16.8093 330.9833 L15.0024 329.9187 L14.597 329.4583 L14.7098 328.9677 L15.5923 328.944 L15.7504 328.5948 L16.2144 328.3427 L14.4862 328.0562 L11.6966 327.5766 L11.0236 327.3987 L9.3299 327.8151 L8.7342 329.1885 L9.1372 329.3995 L9.8066 329.7561 L8.8584 331.7275 L7.4437 331.0227 L7.4525 330.8323 L6.031 329.8773 L8.2526 325.0452 L8.0889 324.7012 L7.271 324.5964 L6.8837 324.3323 L4.3376 323.2376 L3.8009 323.1164 L3.8892 322.12 L3.8495 321.3683 L2.5001 321.7887 L0.0 322.9939 M23.6706 352.6186 L23.7755 349.6842 L26.4305 349.6318 L26.4829 352.636 L23.6706 352.6186 M39.6449 312.7156 L43.7184 311.1734 L45.4306 314.6047 L46.5007 313.6603 L49.1202 312.5753 L49.0244 313.0405 L47.4377 315.6453 L46.8547 316.7303 L45.2312 316.7376 L44.4121 319.0622 L43.7702 319.4903 L41.7334 317.4092 L41.1283 317.6082 L40.3238 315.9625 L39.6449 312.7156 M43.6192 323.46 L43.6796 322.8176 L43.747 322.3364 L43.784 321.8679 L43.88 321.4151 L44.1567 321.0898 L44.4106 321.0527 L45.1906 321.3446 L45.6098 321.6081 L45.9318 321.9263 L46.2553 322.3664 L46.5213 322.9127 L46.8897 323.2159 L47.1383 323.3094 L47.6822 323.2056 L47.8502 323.2457 L48.042 323.6728 L48.137 324.2114 L47.8738 324.575 L46.6079 325.0612 L45.2012 325.5277 L44.3167 325.8523 L44.1853 325.8393 L44.1373 325.7895 L44.0065 325.3374 L43.7455 324.5466 L43.6665 324.0057 L43.6192 323.46 M44.5408 326.3882 L44.5696 326.1972 L44.6985 326.0807 L45.0993 325.9408 L46.3533 325.5374 L47.7039 325.2419 L47.7756 325.3451 L47.7621 325.6963 L47.6676 325.9378 L47.2959 326.3335 L46.9183 326.6894 L46.4609 326.8868 L46.028 326.9746 L45.089 327.2584 L44.6426 326.6417 L44.5408 326.3882 M55.2086 276.4432 L56.5427 275.4214 L57.9376 274.9224 L58.4321 275.0019 L58.6933 275.8319 L57.6158 276.7929 L56.2114 276.989 L55.2086 276.4432 M55.5509 299.849 L55.8389 299.5467 L56.437 299.0928 L57.2682 298.5979 L58.1636 299.884 L58.1866 300.1743 L58.1498 300.3165 L58.0678 300.4571 L57.6327 300.7544 L56.6323 301.5218 L55.6467 300.1412 L55.5509 299.849 M57.6555 213.6098 L57.68 213.424 L57.9318 213.3445 L58.037 213.0454 L58.2291 212.2832 L58.543 211.1811 L58.7468 210.5653 L58.9997 210.0149 L59.3711 209.4261 L59.5937 209.1868 L59.723 209.0769 L59.9138 209.14 L60.9078 209.9962 L61.5243 210.4252 L62.3308 211.2423 L62.7226 211.6857 L62.8341 212.0974 L62.9138 212.2925 L63.0876 213.026 L63.0919 213.3261 L63.0423 213.8159 L62.8674 214.4244 L62.6837 214.6186 L62.0831 215.4202 L61.6648 216.0615 L61.0487 216.6953 L60.757 216.7715 L60.5593 216.7458 L60.4244 216.6713 L60.1913 216.402 L59.8974 216.2142 L59.5885 215.9014 L59.4152 215.6474 L59.1501 215.3036 L58.7305 215.0219 L58.1404 214.8989 L57.7747 214.7796 L57.7309 214.4792 L57.6555 213.6098 M64.9549 380.9294 L65.1761 380.642 L65.6045 380.3639 L65.8664 380.3135 L66.7437 379.8786 L67.3487 379.7747 L67.5493 379.7604 L67.8855 380.2568 L68.6286 381.0642 L68.8291 381.2562 L68.961 381.622 L68.9661 381.9064 L69.3809 382.4706 L69.3951 382.6505 L69.2965 382.8865 L69.0862 382.9386 L68.6553 382.8678 L68.4901 382.7122 L68.3311 382.6548 L67.9906 382.7683 L67.0597 383.002 L66.7285 383.1565 L66.4915 383.3368 L66.2754 383.3685 L66.1048 383.2784 L65.9706 382.6882 L65.9515 382.4332 L65.8563 382.071 L65.753 381.9225 L65.4934 381.6147 L65.0127 381.1487 L64.9549 380.9294 M65.226 379.5825 L65.2387 379.4109 L65.2932 379.2383 L65.3508 379.1168 L65.4601 378.997 L66.388 378.3711 L66.6789 378.2389 L66.8797 378.1671 L67.0039 378.1487 L67.1031 378.1861 L67.3001 378.3457 L67.4189 378.4508 L67.6701 378.7249 L67.8404 378.9592 L67.9369 379.1051 L67.9951 379.2473 L68.0114 379.3909 L67.9639 379.5157 L67.9569 380.1252 L67.799 379.9473 L67.646 379.5905 L67.4892 379.4486 L67.3719 379.3858 L67.2168 379.3848 L67.0645 379.4356 L66.6907 379.6412 L66.4269 379.7644 L66.1388 379.948 L65.5852 380.2414 L65.4584 380.2738 L65.3918 380.2037 L65.2769 379.8672 L65.226 379.5825 M66.0838 215.7818 L66.565 215.3911 L66.7551 215.2859 L66.8821 215.2775 L67.0436 215.4142 L68.0243 214.9975 L68.1296 214.8111 L68.6688 214.5915 L68.9878 215.3313 L68.15 215.6919 L67.5768 215.9659 L66.861 216.3989 L66.0838 215.7818 M67.1429 216.6883 L67.162 216.5811 L67.2802 216.4872 L68.9951 215.7487 L69.4209 215.6932 L69.5889 215.6545 L69.6153 215.6057 L69.5457 215.5923 L69.5191 215.5569 L70.4841 215.1509 L70.5492 215.1318 L71.1163 214.8913 L71.3638 214.8271 L71.6514 214.8231 L73.1859 214.8943 L74.2474 214.6273 L74.6148 214.4552 L74.9406 214.1033 L75.0397 213.7424 L75.0042 213.3658 L76.262 213.44 L76.1398 214.4478 L75.7168 215.3945 L75.3647 216.5182 L74.3103 217.2878 L73.1002 218.1175 L71.625 219.0043 L70.8897 219.4006 L70.6085 219.4477 L70.4145 219.4056 L70.2044 219.2315 L69.9176 219.033 L68.9017 218.5525 L68.7079 218.466 L68.3317 218.1195 L67.5128 217.2647 L67.1704 216.7294 L67.1429 216.6883 M69.0097 214.4371 L73.9342 212.5441 L74.4109 212.5839 L74.583 214.0004 L73.1135 214.1461 L69.5128 215.4299 L69.0097 214.4371 M71.6364 212.6377 L71.7977 212.4302 L72.0628 212.2574 L72.2933 212.1074 L72.593 211.9694 L72.7773 211.9002 L72.9733 211.8424 L73.1576 211.9463 L73.0886 212.2113 L72.3049 212.5685 L71.8439 212.8105 L71.6364 212.6377 M73.4491 275.3088 L75.0347 273.4439 L75.691 273.1747 L77.1347 273.1794 L77.3067 274.6074 L75.7675 275.7698 L75.8191 276.6723 L73.8916 276.8784 L73.4491 275.3088 M74.4829 212.2113 L74.5406 212.0613 L74.6328 211.9694 L74.8633 211.9346 L75.1514 211.9116 L75.4165 211.9921 L75.6124 212.1074 L75.7392 212.2344 L75.7621 212.4416 L75.6584 212.6377 L75.4279 212.6952 L75.2665 212.603 L75.0592 212.5224 L74.7134 212.5107 L74.5174 212.4416 L74.4829 212.2113 M87.7441 369.8212 L88.6657 369.3936 L89.0459 370.5293 L88.0921 370.8447 L87.7441 369.8212 M100.8358 228.3039 L102.8868 227.8195 L103.7095 230.3297 L101.6229 230.6271 L100.8904 229.0146 L100.8358 228.3039 M104.0414 366.2679 L105.9839 365.5057 L105.6537 364.0335 L106.1826 363.3911 L106.5403 363.2836 L106.6954 363.4566 L109.8067 361.8214 L112.6162 359.9014 L121.0325 355.4835 L120.5586 354.6605 L120.0692 353.8563 L135.4353 345.0216 L139.9555 341.3632 L140.6083 341.3582 L141.0047 341.9716 L138.6583 343.8247 L139.6173 344.9281 L144.5476 342.2758 L144.9132 343.0547 L144.7136 345.5458 L144.084 346.8773 L143.4833 347.7805 L141.5768 349.4876 L139.044 351.4788 L138.0605 351.9462 L136.9655 352.5442 L135.7427 352.457 L132.7208 352.0026 L133.1575 354.5881 L130.9042 355.3837 L129.9342 356.9438 L129.403 357.5932 L127.1765 358.744 L123.744 361.8101 L122.0656 362.2908 L120.7667 362.2234 L119.2451 363.758 L117.5366 366.6257 L114.7198 367.4607 L114.0936 367.6917 L113.5432 367.7604 L113.0409 368.0479 L112.7279 368.0746 L112.4394 367.8856 L111.9849 367.9421 L111.454 368.2355 L111.0671 368.37 L109.8682 368.6054 L109.2768 368.6468 L107.7186 368.5617 L107.7511 368.383 L104.739 368.3166 L104.3819 368.0021 L104.0414 366.2679 M104.9545 369.0547 L104.9873 369.007 L105.0516 369.0067 L105.1229 369.033 L105.211 369.008 L105.5502 368.8471 L106.2013 368.5316 L106.2776 368.7479 L106.3736 369.2767 L105.9687 369.3976 L105.8922 369.4179 L105.8398 369.3949 L105.777 369.3428 L105.7186 369.256 L105.6245 369.2206 L105.4795 369.2327 L105.2567 369.2807 L105.0836 369.3305 L105.0234 369.3178 L105.0045 369.2714 L104.9545 369.0547 M107.623 276.0614 L108.132 275.4454 L109.8463 273.8474 L109.5483 273.2766 L110.7943 271.7885 L111.2259 271.7674 L111.9799 272.0727 L112.2798 272.5517 L112.8465 273.1814 L113.9123 275.4738 L114.7926 277.8601 L114.0781 278.0876 L111.1674 277.8107 L110.0819 277.654 L109.3996 277.8083 L108.9633 277.6026 L107.623 276.0614 M107.6391 267.8231 L107.6673 267.6003 L107.831 267.5612 L107.9996 267.5549 L108.3936 267.3578 L108.4484 267.3314 L108.561 267.308 L108.892 267.2392 L109.3713 267.1841 L109.6286 267.2255 L109.7724 267.2986 L110.0267 267.5485 L110.2364 268.1498 L110.2854 268.4928 L110.3004 268.5977 L110.3036 268.6201 L110.239 268.8209 L110.1741 268.8793 L109.9447 269.0854 L109.6927 269.1436 L109.4437 269.1586 L108.9975 269.0661 L108.4011 268.9832 L107.9311 268.1234 L107.8196 267.9607 L107.6391 267.8231 M109.5455 370.1126 L109.6716 369.943 L109.7298 369.8252 L109.8259 369.7354 L109.9913 369.7197 L110.4181 369.7748 L110.7851 369.7631 L111.5926 369.6116 L111.917 369.48 L112.1329 369.3695 L112.1649 369.257 L112.4712 369.0544 L112.8538 368.8361 L113.3297 368.6294 L114.2025 367.9905 L114.5613 367.7508 L114.7926 367.8583 L114.8509 368.116 L115.534 368.2529 L115.9742 368.2011 L116.5027 368.4438 L115.8696 369.3926 L115.0835 370.4622 L115.3826 370.3633 L115.3982 370.2969 L115.9357 369.679 L116.3566 368.9629 L116.9031 368.4078 L117.0984 368.4305 L117.3117 368.4892 L117.3809 368.2609 L117.4595 368.0953 L117.4979 367.8329 L117.7031 367.5718 L117.9304 367.4617 L118.099 367.5655 L118.2054 367.6783 L118.2591 367.7858 L118.272 367.874 L118.3209 368.0335 L118.3946 368.1 L118.4595 368.2829 L118.6449 368.5897 L118.4623 369.271 L118.3411 369.4042 L118.3594 369.5301 L118.3865 370.2448 L118.5684 370.6164 L118.6726 370.7165 L118.8988 370.8634 L118.8728 371.2136 L118.8673 371.7023 L118.9053 371.8763 L118.922 372.0792 L119.0589 372.3162 L119.1891 373.3881 L119.1018 373.5808 L118.3134 374.0555 L117.3598 374.5415 L117.2449 374.4557 L117.1065 374.2961 L116.7828 373.8301 L116.1102 372.9912 L115.8025 372.5486 L115.3853 372.0575 L115.0904 371.6129 L114.9557 371.4783 L115.0962 371.7404 L115.5261 372.3192 L115.7529 372.7355 L116.1289 373.3047 L116.2077 373.2546 L117.316 374.7752 L116.5753 374.9581 L115.607 373.6682 L115.5892 373.6485 L115.5903 373.6479 L115.2186 373.1985 L114.9183 372.806 L114.5516 372.3977 L114.4307 372.2425 L114.4977 372.3613 L114.465 372.3623 L114.9795 373.0069 L116.3643 375.0386 L115.3518 375.112 L113.7015 373.0697 L113.4957 373.0169 L115.1138 375.0643 L113.1632 374.9855 L112.6768 374.4774 L112.0308 373.5541 L112.9746 372.7899 L111.784 371.2724 L111.4484 370.8678 L110.9341 370.6154 L110.636 370.5246 L110.4918 370.5119 L110.344 370.5336 L109.5455 370.1126 M115.806 241.6928 L116.3216 241.1332 L116.9929 240.9294 L117.7214 241.2428 L118.02 241.489 L117.96 242.4081 L115.806 241.6928 M122.4093 368.7857 L123.0551 368.1774 L124.2592 367.2994 L125.4205 366.4792 L126.2126 366.0552 L127.3649 367.9925 L126.5877 368.577 L125.5836 369.246 L124.5477 369.9881 L123.5653 370.7482 L123.4299 370.6394 L123.5573 370.4581 L123.3906 370.1914 L123.2164 370.2856 L122.4093 368.7857 M125.5221 392.3446 L125.7995 392.0946 L126.7943 392.4133 L128.0567 393.3896 L128.8822 393.7785 L130.1411 395.0398 L129.7903 395.5031 L128.5952 394.6293 L127.1228 393.5936 L125.5299 392.5008 L125.5221 392.3446 M126.6706 394.1316 L126.9531 393.8132 L127.5015 394.5045 L127.6859 394.6423 L128.1697 394.5789 L129.2586 395.2361 L128.8204 395.5101 L128.0859 394.876 L127.7147 394.8402 L128.1484 395.5632 L128.2558 395.7872 L128.0582 395.7638 L126.8089 394.2611 L126.6706 394.1316 M134.5685 445.7869 L136.8304 444.884 L137.5146 444.8556 L137.3816 446.0055 L136.6497 447.8587 L135.9655 449.0466 L135.2527 448.7426 L134.9962 447.7352 L135.7184 446.7182 L134.5685 445.7869 M136.1174 246.8862 L137.5818 246.4663 L139.6592 246.0106 L143.1377 244.736 L143.3824 244.6909 L143.8595 245.5272 L143.9983 245.458 L144.0075 244.4855 L145.0522 243.8213 L145.8544 243.2243 L146.7745 242.4108 L146.4615 241.7546 L145.5648 240.9858 L145.411 239.8927 L145.9491 239.4166 L145.0823 238.2572 L145.7377 237.8109 L145.9042 237.3869 L146.8907 237.0347 L147.4544 237.4714 L147.8772 238.2188 L148.3085 239.3531 L147.8858 239.7213 L148.4495 240.764 L147.9779 241.627 L148.1384 242.7104 L148.2387 243.6636 L147.3708 244.7013 L147.0348 245.1162 L146.5334 245.468 L144.7207 246.3116 L143.4311 246.794 L142.7821 247.2487 L141.4176 247.6546 L139.5505 248.2049 L138.0377 248.5256 L136.6729 248.3626 L136.1565 247.7829 L136.1174 246.8862 M136.5006 215.1599 L138.2908 213.7157 L138.7529 214.3406 L139.8066 214.9928 L141.1443 216.0103 L140.8665 216.3304 L141.3104 217.8461 L140.0904 218.5318 L139.0577 219.0 L138.8459 218.7002 L137.2897 216.7682 L136.5006 215.1599 M138.506 316.1666 L138.6751 314.7249 L139.1849 313.7515 L139.5426 313.4669 L139.9909 313.2526 L140.4221 312.8849 L140.9299 312.5603 L141.2433 312.3235 L141.5849 312.1338 L141.7598 312.1084 L142.0898 312.2968 L142.2779 312.5222 L142.8026 312.9543 L143.4805 313.2893 L144.1673 313.4349 L145.2359 313.492 L146.0295 313.7418 L146.7807 314.385 L146.811 314.9694 L146.6222 315.4399 L146.4688 316.2784 L146.6705 316.8348 L146.8714 317.2178 L147.4144 316.9777 L148.1305 316.5282 L148.8321 315.8423 L149.5131 315.2749 L149.9919 315.2355 L150.4517 315.1684 L150.8688 315.0158 L151.129 314.8254 L151.2981 314.3626 L151.2401 314.0674 L151.1956 313.0939 L151.549 312.9206 L151.9917 312.8408 L152.4906 313.0422 L153.8203 313.9602 L154.1149 313.9021 L154.8511 313.4439 L155.3149 313.0388 L155.7327 312.3739 L156.0447 312.4588 L156.2913 313.3451 L154.6693 314.2781 L152.4738 315.1166 L150.7784 315.9585 L149.4559 317.0308 L147.764 318.2073 L146.5813 318.9286 L145.5182 319.2211 L144.2782 319.2345 L142.7244 319.172 L142.3869 319.0384 L142.2777 318.7042 L142.2977 318.3201 L142.4986 318.1385 L143.1087 318.0647 L143.8253 318.0971 L144.2432 318.1579 L144.4273 318.07 L144.3839 317.7718 L144.2855 317.5117 L143.8859 317.1587 L143.2672 315.7992 L143.1168 315.7638 L142.8795 315.8166 L142.5271 315.7862 L142.0365 315.7214 L140.9617 316.0774 L138.7604 316.8759 L138.618 316.7293 L138.506 316.1666 M138.8023 444.7732 L140.4455 442.5783 L140.6786 442.64 L143.0479 443.0298 L144.4112 442.7131 L145.1334 443.4435 L145.2713 443.9871 L145.1399 444.1809 L144.1132 443.913 L142.1942 443.8443 L141.1475 444.0959 L138.8023 444.7732 M141.7243 320.4246 L141.8337 320.1354 L142.081 319.9457 L143.0743 319.8239 L144.3381 319.8446 L145.0645 319.7711 L145.3532 319.742 L146.1498 319.52 L147.0134 319.0374 L147.5882 318.7603 L149.2235 317.714 L151.1408 316.2637 L152.3133 315.6813 L153.7065 315.1577 L155.2794 314.5169 L155.4917 314.6227 L155.6019 314.7446 L155.6051 314.9871 L155.4326 315.4125 L155.3976 315.6513 L155.5052 315.8724 L155.9465 315.8684 L156.6365 316.2654 L156.7035 316.4771 L156.681 316.6585 L155.6872 316.8037 L154.7954 317.0251 L154.0234 317.5494 L154.0588 317.8917 L154.9381 318.3429 L155.0874 318.2016 L155.7132 318.3388 L156.6152 318.7099 L157.1295 319.0364 L157.0395 319.4168 L156.6793 319.873 L156.826 320.058 L157.1407 320.3475 L157.7927 321.1142 L157.7096 321.364 L157.255 321.7336 L156.8157 322.1257 L155.6331 322.8169 L155.2229 322.9922 L154.9639 323.0847 L154.1235 323.454 L153.3555 323.9015 L152.5544 324.8685 L151.7084 325.5437 L151.3982 325.2843 L150.6239 324.5557 L150.4276 324.3964 L149.6789 324.0301 L148.1079 323.0319 L147.6185 322.9041 L144.5259 321.554 L141.7243 320.4246 M142.2279 354.6034 L144.8161 352.9982 L147.7055 357.1718 L144.8363 358.9172 L142.2279 354.6034 M148.0624 241.9637 L148.0963 241.7509 L148.2136 241.6083 L148.3629 241.4479 L148.4057 241.3019 L148.5333 241.1375 L148.7335 240.9534 L148.9075 240.7713 L149.3919 240.6013 L149.7986 240.4596 L149.97 240.4215 L150.0617 240.46 L150.0525 240.5739 L149.9071 240.8201 L149.7296 241.0841 L149.6534 241.2424 L149.3754 241.6463 L149.352 241.8344 L149.327 241.9353 L149.1814 242.0566 L149.0121 242.1756 L148.8155 242.3079 L148.4811 242.508 L148.301 242.5618 L148.2026 242.5093 L148.1537 242.4221 L148.0624 241.9637 M148.3702 242.8701 L148.408 242.7555 L148.6993 242.5548 L149.1223 242.2444 L149.4504 241.9848 L149.605 241.8973 L149.8323 241.8174 L150.092 241.77 L150.5015 241.7506 L150.7277 241.7703 L150.8263 241.8091 L150.8671 241.9614 L150.8366 242.1368 L150.6905 242.2765 L150.5234 242.3767 L150.2302 242.4622 L149.9913 242.5484 L149.7692 242.6446 L149.6411 242.6998 L149.6388 242.8093 L149.6978 243.0499 L149.7137 243.1384 L149.6577 243.253 L149.5554 243.2981 L149.4241 243.3539 L149.0901 243.4087 L148.7767 243.4394 L148.6009 243.3345 L148.437 243.1428 L148.3807 243.0054 L148.3702 242.8701 M149.7298 241.5678 L149.8057 241.2945 L150.1264 240.9758 L150.3642 240.5024 L150.3833 240.3584 L150.4486 240.2532 L150.6347 240.1502 L150.8351 240.1108 L150.8686 240.0303 L150.8794 239.8977 L150.929 239.7898 L151.0691 239.7844 L152.2556 240.8261 L151.7301 241.5331 L151.4414 241.7262 L151.303 241.7416 L150.8751 241.6326 L149.7767 241.6821 L149.7298 241.5678 M151.8248 266.6937 L151.9135 266.2227 L152.2867 266.0406 L153.9954 265.5509 L154.6019 265.4764 L155.2363 265.743 L155.4487 265.8626 L155.7673 265.9367 L155.8079 266.1853 L153.6947 266.8083 L152.2111 267.1697 L152.1002 267.1557 L151.8248 266.6937 M152.1073 238.2024 L152.3054 237.5543 L152.5073 237.0768 L153.1567 237.4968 L154.0904 238.1222 L153.6296 238.9137 L153.3213 239.0049 L152.7075 239.0317 L152.4448 239.0029 L152.1894 238.6658 L152.1232 238.4557 L152.1073 238.2024 M159.2417 378.6308 L162.2828 377.402 L163.9251 376.8973 L164.1228 377.2775 L164.0317 381.6114 L163.6059 382.4322 L160.5532 385.166 L159.4696 382.6148 L160.002 381.1701 L159.2417 378.6308 M189.8119 177.5537 L190.4038 176.7261 L192.143 175.0202 L193.5411 175.9169 L194.9785 176.8621 L193.566 178.0707 L193.215 178.0005 L192.6444 177.937 L191.6659 178.6797 L191.3731 179.5918 L190.7359 180.3739 L190.2467 180.1142 L190.12 179.19 L190.9623 178.565 L191.1797 177.7859 L190.6635 177.3906 L189.969 178.0005 L189.8119 177.5537 M189.9299 255.1283 L189.9939 253.1275 L191.3133 252.7614 L192.6163 252.3358 L193.187 253.8565 L193.5301 254.9218 L193.8038 255.443 L195.1991 255.1497 L195.9413 255.3013 L196.8782 255.9842 L196.5482 256.5217 L196.3373 256.9934 L196.1162 257.6695 L196.1789 258.2371 L196.1459 259.3686 L195.8457 260.6681 L195.3179 260.6781 L194.9254 259.6124 L194.6713 258.9463 L193.5233 258.3998 L191.6317 257.7794 L191.5453 257.4855 L191.0508 255.8529 L189.9299 255.1283 M204.5471 230.3254 L204.7539 227.2865 L204.9961 223.7297 L205.9477 223.713 L206.2852 222.9051 L208.0187 221.4776 L208.9532 221.4776 L209.2116 219.2044 L211.6136 218.3851 L212.2542 218.3026 L212.4699 219.0882 L215.007 219.2389 L217.0959 219.2509 L218.4384 219.3906 L218.1752 222.3771 L219.0564 224.3211 L218.0053 227.4716 L216.8048 232.2018 L217.0199 234.2412 L217.6577 235.7718 L221.5297 236.9068 L220.5688 239.4727 L217.4452 237.9565 L216.3168 237.9178 L215.4306 238.3828 L214.5831 239.9307 L214.0733 240.3644 L212.9691 239.7694 L211.5014 239.317 L210.0294 238.8152 L210.2889 238.1283 L210.4666 237.4253 L210.4795 235.9699 L209.0477 235.4908 L208.4333 235.5242 L208.3809 233.6362 L208.8603 232.1754 L209.8342 230.8894 L209.2427 230.0985 L204.5471 230.3254 M210.9242 210.0847 L212.6804 209.8538 L212.8527 210.867 L211.0728 211.1447 L210.9242 210.0847 M212.6157 258.197 L212.646 257.7584 L212.7515 257.1694 L213.0477 255.9123 L213.0892 255.3842 L213.0832 255.1119 L213.1614 254.9215 L213.2566 254.847 L213.4645 254.862 L213.8392 254.9412 L214.2508 255.0665 L214.5077 255.1259 L214.6054 255.0481 L214.3232 254.1241 L214.3399 253.9881 L214.4735 253.8655 L214.6392 253.9019 L215.0231 254.1495 L215.5148 254.5971 L216.0755 255.168 L216.3543 255.5462 L216.3513 255.923 L216.2877 256.2571 L216.1481 256.8177 L216.0867 257.0208 L215.9228 257.2055 L214.9881 256.9804 L214.6334 256.8501 L214.5101 256.7101 L214.5343 256.3757 L214.5741 256.191 L214.6692 255.8856 L214.6983 255.6264 L214.3715 256.6303 L214.3724 256.8454 L214.5605 256.9333 L214.8031 256.9984 L214.9926 257.0739 L215.2516 257.1484 L215.535 257.1831 L215.7249 257.2403 L215.8126 257.3432 L215.9124 257.6986 L215.8749 257.9622 L215.7677 258.4967 L215.5829 259.0609 L215.4755 259.1344 L215.3163 259.121 L214.7597 258.9563 L213.8787 258.7659 L213.1408 258.5819 L212.8379 258.4559 L212.6585 258.3457 L212.6157 258.197 M213.2587 243.4488 L213.3457 243.2146 L213.842 242.3773 L214.3169 241.6223 L214.4875 241.4212 L214.6796 241.4085 L215.1429 241.4108 L215.7039 241.4596 L216.0012 241.5257 L215.8824 242.0864 L215.8312 242.2547 L215.9234 242.9119 L216.4959 243.0198 L216.9859 243.1003 L217.1148 242.9874 L217.1898 242.8157 L217.2725 242.822 L217.3284 242.8321 L217.3105 243.0228 L217.4216 243.2249 L217.3236 244.0528 L217.207 244.0425 L217.0968 244.0345 L216.9986 244.0244 L216.8951 244.1668 L215.1058 244.0178 L213.7425 243.6546 L213.3506 243.5417 L213.2587 243.4488 M215.7316 241.4188 L215.7915 241.2157 L216.1827 240.0517 L216.7546 240.2024 L216.9853 241.1652 L216.7647 241.8074 L217.497 242.2287 L217.3565 242.7405 L217.1866 242.8073 L217.1007 242.9674 L216.9812 243.0733 L216.491 243.0054 L215.9445 242.8825 L215.857 242.2741 L216.0319 241.514 L215.7316 241.4188 M222.8041 132.718 L223.3214 132.1804 L225.2645 130.8625 L226.3163 130.7662 L228.4826 130.5115 L227.3994 131.6552 L226.7966 132.271 L226.6041 132.9059 L226.3756 133.391 L224.3682 133.5023 L223.0436 133.0901 L222.8041 132.718 M231.1355 130.6472 L232.1473 130.5516 L232.5602 130.1106 L233.6534 130.1297 L233.4547 131.7381 L232.1187 131.8769 L231.2023 131.5198 L231.1355 130.6472 M236.504 141.7325 L237.6129 140.6707 L238.811 139.3061 L239.2611 140.0362 L239.4445 140.8737 L237.7128 143.4094 L236.504 141.7325 M247.4326 220.8147 L247.5312 220.6393 L249.3261 218.9605 L250.7124 217.7452 L251.1092 218.0821 L250.8688 218.4085 L249.5113 220.0328 L248.7897 220.8501 L248.4159 220.9995 L248.0361 221.073 L247.7476 221.0877 L247.4932 221.0456 L247.4326 220.8147 M256.4641 172.8744 L256.5071 172.4185 L256.6287 172.0849 L256.7531 171.9819 L257.0107 171.9839 L257.2528 172.0458 L257.386 172.1086 L257.4371 172.253 L257.3952 172.4231 L257.2515 172.7684 L257.2379 173.0532 L257.3413 173.2447 L257.5389 173.2918 L257.8317 173.2858 L258.3164 173.2032 L258.4848 172.86 L258.6704 172.4258 L258.8541 172.2717 L259.0938 172.1701 L259.4274 172.0698 L259.7211 172.0274 L260.7697 172.0541 L260.8947 171.9963 L260.8941 171.8873 L260.2472 171.8111 L259.4592 171.7861 L259.1823 171.7139 L259.1419 171.4979 L259.1892 171.0083 L259.2919 170.677 L261.6681 170.894 L261.8801 170.9361 L261.9536 171.0257 L261.794 172.1845 L261.6857 173.1538 L261.629 173.3259 L261.5235 173.4142 L261.1418 173.4332 L259.1984 173.3757 L258.1943 173.3637 L257.2343 173.3847 L256.8197 173.3236 L256.619 173.2554 L256.5099 173.1073 L256.4641 172.8744 M256.6302 171.4471 L256.6633 170.9839 L256.7303 170.4427 L257.1928 170.4785 L257.7703 170.5343 L258.9563 170.6747 L259.0577 170.894 L258.9974 171.2306 L258.9177 171.4759 L258.5065 171.648 L257.8448 171.7881 L257.36 171.8452 L256.798 171.8115 L256.6936 171.6962 L256.6302 171.4471 M275.1716 195.5587 L275.1845 195.178 L275.2917 194.921 L275.5903 194.3927 L275.9418 194.4615 L275.867 195.7137 L275.8458 196.1859 L275.7691 196.3216 L275.531 196.3056 L275.3512 196.0974 L275.2243 195.8815 L275.1716 195.5587 M295.6291 118.7771 L300.5186 117.433 L300.7205 117.3795 L300.4949 118.2823 L300.5776 121.586 L297.531 122.5884 L296.9466 121.9123 L295.6291 118.7771 M302.493 191.9276 L303.4703 189.4228 L304.0522 188.8219 L304.6828 186.4202 L304.9184 185.6358 L305.9393 185.5536 L308.1825 185.4727 L310.3125 185.3073 L310.3282 184.2706 L311.5956 184.6188 L311.6268 185.2328 L311.803 185.2408 L312.4657 184.837 L312.7924 184.955 L312.859 185.5967 L312.1798 186.9316 L312.4406 187.2317 L313.026 186.8844 L313.284 186.2936 L313.8004 187.1966 L314.3957 187.1234 L313.7226 185.6211 L314.0973 184.4814 L314.4531 184.2675 L314.9757 184.0911 L315.5336 184.0416 L315.7596 184.3384 L315.3076 185.2986 L314.4885 186.5486 L314.785 186.6121 L315.5972 185.6024 L316.2146 184.7348 L316.8258 184.2181 L318.8808 183.6957 L319.1659 183.576 L319.0791 183.2773 L319.7511 182.9631 L320.2295 183.173 L321.1879 182.6573 L322.7215 182.438 L324.033 182.7652 L324.3 183.047 L324.0569 183.3297 L322.0261 184.1516 L321.3099 184.5312 L320.8598 185.0991 L320.0815 184.927 L316.3766 186.0529 L315.4488 186.9583 L313.9884 187.3172 L313.4928 187.975 L313.0902 188.1093 L312.6171 188.4763 L311.6285 189.3309 L310.5198 190.8916 L308.373 192.7912 L307.943 192.711 L307.6336 192.732 L304.6619 193.0605 L304.684 190.9611 L303.9085 191.0647 L303.1609 191.8501 L302.493 191.9276 M305.4132 237.2352 L305.4319 237.172 L305.5395 237.1146 L305.7491 237.0564 L305.8237 236.9943 L305.9891 236.7347 L306.1711 236.6081 L306.5876 236.8232 L306.897 237.0711 L307.1535 237.6715 L307.5816 238.613 L307.5898 239.0454 L307.2491 239.1476 L306.7215 239.1907 L306.643 238.9455 L306.5618 238.864 L306.3966 238.6835 L306.321 238.4804 L306.2396 238.3017 L306.019 238.0264 L305.831 237.8165 L305.5814 237.6294 L305.4589 237.424 L305.4132 237.2352 M319.8637 207.6871 L320.3208 206.0022 L323.282 205.9715 L323.0044 203.9444 L321.1354 203.8474 L322.0841 200.5097 L322.0381 200.0097 L322.6633 197.6808 L323.9954 197.9678 L324.2642 197.0802 L325.0788 197.2049 L325.7228 197.4883 L324.9323 200.4602 L324.8266 201.2609 L328.0786 202.1799 L328.0808 203.0554 L328.255 204.4323 L327.7478 204.3517 L328.3126 207.5554 L324.1868 208.8116 L323.7836 208.731 L323.2764 208.6271 L323.2371 208.5877 L321.6757 208.8948 L321.5017 208.5375 L323.0863 207.8966 L323.073 207.2851 L322.6613 207.1711 L321.7451 207.502 L321.2018 207.9354 L321.1142 207.9688 L320.6162 207.9688 L319.8637 207.6871 M338.5426 216.4173 L338.5591 216.3719 L338.5881 216.2924 L338.8668 215.9716 L339.5048 215.3815 L339.8797 214.8989 L339.9143 214.4746 L340.0013 214.0599 L340.078 213.8788 L340.1312 213.7862 L340.246 213.6997 L340.3845 213.695 L340.4271 213.7304 L340.4842 213.7775 L340.5162 213.8657 L340.6185 214.2256 L340.7422 214.4074 L340.7875 214.4742 L340.8034 214.648 L340.4356 215.2478 L339.4906 216.5897 L339.4361 216.6836 L339.3695 216.7986 L339.4285 216.7832 L339.4934 216.7775 L339.78 216.4751 L340.4799 215.4082 L340.9626 214.6403 L341.0591 214.7205 L341.1983 214.9521 L341.2943 215.1569 L341.3852 215.7447 L341.368 216.1296 L341.3418 216.2352 L341.2659 216.5413 L341.5042 217.4335 L341.4894 217.7833 L341.4821 217.9527 L341.3008 217.9761 L340.7734 217.7392 L340.5499 217.6386 L340.0251 217.505 L339.6812 217.5548 L339.2545 217.3676 L339.1405 217.252 L338.8294 216.9376 L338.6021 216.6215 L338.5426 216.4173 M345.3734 212.8138 L345.4072 212.6882 L345.7197 212.0843 L345.9979 211.5577 L346.2589 211.0986 L346.6508 210.6655 L346.8742 210.5786 L347.0828 210.6608 L347.2562 210.8754 L347.6227 211.4448 L347.8046 211.8464 L347.9885 211.8197 L348.1943 211.7779 L348.3389 211.8571 L348.4038 211.951 L348.4605 212.0927 L348.6124 212.7259 L348.5847 212.9538 L348.4525 213.1095 L347.9962 213.4517 L347.4942 213.6853 L346.9992 213.3936 L346.2884 213.0471 L345.8766 213.006 L345.5691 213.014 L345.4398 212.9568 L345.3734 212.8138 M354.1332 133.9503 L354.8593 133.4194 L354.8769 132.9002 L355.7145 132.7247 L356.2355 132.8822 L360.883 131.7291 L361.2031 132.5268 L360.0151 132.942 L358.9017 133.2549 L356.3004 134.1613 L355.5719 133.939 L355.1074 134.1563 L354.4434 134.5458 L354.1332 133.9503 M365.0519 130.915 L367.9787 129.8772 L368.0466 130.2052 L367.0711 131.1895 L365.462 131.6729 L365.0519 130.915 M368.7452 199.0804 L368.7919 198.9828 L368.9257 198.672 L369.4185 197.7413 L369.5199 197.5414 L369.6458 197.4475 L370.1272 197.5113 L370.1829 197.6885 L370.3792 197.7483 L370.4782 197.7005 L370.6217 197.5992 L370.881 197.2714 L371.075 196.9893 L371.4056 196.4643 L371.7745 195.9981 L371.9021 195.4544 L371.9081 195.1165 L372.0259 193.873 L371.9827 192.5405 L372.0334 192.4085 L372.2162 192.3337 L372.5784 192.2204 L372.8828 192.2949 L373.2166 192.2588 L373.4553 192.3397 L373.5279 192.4807 L373.5082 192.7193 L373.3808 193.252 L373.3303 193.5963 L373.3187 194.0625 L373.2701 194.8833 L373.1591 195.2271 L373.0611 195.4932 L373.0284 195.7498 L372.9406 195.9176 L372.7621 196.1285 L372.5902 196.3022 L372.2806 196.4864 L371.8295 196.971 L371.4566 197.2189 L371.382 197.5849 L371.1573 197.7904 L370.991 198.0354 L370.8905 198.3401 L370.8076 198.5156 L370.5006 199.0967 L370.2258 199.3126 L370.1403 199.3704 L369.8873 199.4222 L369.5934 199.4406 L369.4348 199.4119 L369.2529 199.3684 L368.9639 199.2354 L368.806 199.187 L368.7452 199.0804 M394.1089 226.2504 L394.3719 225.9968 L394.7852 226.485 L394.8039 226.7198 L395.4799 227.8465 L395.8368 228.5228 L395.4423 228.7106 L395.1044 228.1188 L394.1089 226.2504 M404.8962 169.2649 L405.8668 166.6039 L407.7762 166.6099 L409.2593 166.6861 L410.3614 166.6661 L408.617 170.2191 L406.8494 169.4935 L404.8962 169.2649 M412.0424 171.886 L412.0549 170.8371 L412.9801 170.5905 L413.4102 167.4378 L413.8126 165.4169 L416.0526 166.1978 L418.8638 165.9253 L419.5108 165.1619 L420.209 165.1619 L420.9051 165.1619 L420.8814 165.9818 L421.8643 166.0497 L422.0123 166.4571 L422.37 166.7286 L423.3448 167.1357 L423.4434 168.0365 L423.8982 168.5542 L425.1586 168.5793 L426.5528 168.3941 L429.0083 168.8012 L431.0565 168.7768 L432.9815 169.184 L433.6477 169.6529 L433.5491 170.1586 L432.5867 170.7014 L429.1688 170.1834 L428.8478 170.5534 L428.1322 170.4177 L428.0336 170.1092 L423.947 169.5907 L422.8654 169.6459 L418.4152 170.1757 L417.9218 169.8769 L415.448 169.2331 L414.7447 171.6146 L414.0044 171.9849 L412.0424 171.886 M414.3116 216.0334 L415.6311 215.5566 L415.9542 215.8874 L415.7542 216.0257 L416.2695 217.0679 L416.6386 217.3603 L416.8163 217.3757 L417.7851 219.1774 L416.5155 220.0936 L415.6592 218.0129 L415.6891 217.8024 L415.3662 216.976 L414.9305 216.5781 L414.4796 216.5854 L414.3116 216.0334 M415.5108 154.589 L415.5127 154.2808 L416.6227 153.7366 L417.0902 153.6527 L417.4547 153.5514 L418.4578 154.5997 L421.9594 157.3625 L421.3588 158.2457 L419.4324 159.8147 L418.786 158.8945 L418.1753 159.1589 L417.3271 158.3202 L417.3454 157.4631 L417.7102 156.8521 L416.4792 155.8125 L415.5108 154.589 M418.3559 217.5995 L421.6464 217.4869 L421.3684 218.4937 L418.4687 218.6438 L418.3559 217.5995 M419.6634 160.977 L420.0342 160.2874 L420.7502 159.7997 L421.6608 159.6382 L422.8284 158.947 L424.1556 160.3094 L424.6589 159.7475 L426.0353 160.8072 L425.0235 161.9797 L424.1779 163.496 L422.3902 163.0738 L422.1932 162.7091 L422.3975 161.5348 L421.1283 160.8636 L419.6634 160.977 M420.7156 207.7546 L421.2039 207.4164 L422.278 206.9807 L423.4351 206.6127 L423.6228 208.6485 L423.7655 210.2936 L423.7354 211.676 L423.5859 212.4045 L423.4974 212.8469 L423.1627 212.743 L422.7281 212.7239 L422.2664 212.7507 L422.1203 212.0429 L421.7972 210.7968 L421.2716 209.0091 L420.7156 207.7546 M452.8265 202.7079 L452.8484 202.5863 L453.0091 202.471 L453.4495 202.2972 L453.9634 202.0071 L454.2195 201.9363 L454.5288 201.9005 L454.6536 201.9791 L454.8573 202.5712 L454.9095 202.7233 L455.0283 203.0688 L454.9997 203.143 L454.856 203.2382 L454.5232 203.2643 L453.8869 203.1236 L452.9778 202.8473 L452.854 202.7774 L452.8265 202.7079 M457.0144 200.9301 L457.0477 200.6029 L457.4414 197.7553 L457.6223 197.1163 L457.693 196.993 L457.7635 196.87 L458.0015 196.5399 L459.0397 195.163 L459.638 194.3298 L460.0715 193.891 L460.2795 193.1658 L460.4952 192.6642 L460.7412 191.7395 L460.8791 191.3929 L460.9616 191.1857 L461.1626 190.8562 L461.4224 190.5744 L461.5792 190.4043 L461.7725 190.5708 L462.1513 190.9404 L462.9158 192.0239 L463.1066 192.349 L463.2192 192.5746 L463.3586 192.7641 L463.5696 193.0114 L463.7092 193.1972 L463.7408 193.3055 L463.7612 193.4476 L463.758 193.506 L463.7524 193.61 L463.7232 193.7433 L463.4344 194.4134 L463.2265 195.0644 L463.0871 195.5008 L463.0559 195.5664 L462.9393 195.8825 L462.8813 195.9851 L462.4757 196.6752 L462.3571 196.8346 L462.0318 197.2714 L461.1719 198.1069 L460.8056 198.3177 L460.6705 198.3461 L460.4615 198.3458 L459.8397 198.2001 L459.7457 198.2138 L459.7547 198.277 L459.716 198.7903 L459.7104 198.8641 L459.693 198.8808 L459.6118 198.959 L459.3383 199.2886 L459.1925 199.3905 L459.0245 199.5599 L458.8743 199.7427 L458.6026 200.1528 L458.4019 200.4863 L458.307 200.6634 L458.2129 200.7897 L458.1074 200.8372 L457.5329 201.0811 L457.3781 201.1195 L457.1873 201.1309 L457.1065 201.1266 L457.055 201.1018 L457.0464 201.0808 L457.0302 201.0407 L457.0144 200.9301 M463.6112 197.1765 L463.6215 197.0943 L464.1453 196.6007 L464.3483 196.5539 L464.5786 196.6207 L464.7556 196.735 L464.8083 196.8724 L464.779 197.0348 L464.6559 197.1842 L464.5182 197.2303 L464.1221 197.1688 L463.6959 197.2169 L463.6112 197.1765" stroke-dasharray="" fill="none" fill-opacity="1.0" stroke="#ff0000" stroke-opacity="1.0" stroke-width="1.0px" stroke-linecap="butt" stroke-linejoin="miter" stroke-dashoffset="0.0px"/>
</g>
</svg>