<?xml version="1.0" standalone="no"?>
<!DOCTYPE svg PUBLIC "-//W3C//DTD SVG 1.1//EN" "http://www.w3.org/Graphics/SVG/1.1/DTD/svg11.dtd">
<svg width="512px" height="512px" version="1.1" xmlns="http://www.w3.org/2000/svg" xmlns:inkscape="http://www.inkscape.org/namespaces/inkscape">
<g id="layer" inkscape:groupmode="layer" inkscape:label="layer">
<path d="M52.7546 306.4803 L54.1941 309.1864 L54.2281 309.1989 L54.4522 309.3908 L55.3989 310.5278 L55.3893 310.989 L55.4735 311.2685 L55.6081 311.4406 L56.2439 311.8404 L56.175 311.9462 L56.0479 312.0876 L56.1434 312.3037 L56.268 312.3368 L58.3283 311.6833 L58.6136 311.2128 L58.7376 310.8497 L58.7624 309.7252 L58.8611 309.3132 L59.3314 308.5894 L59.5538 307.6641 L61.6747 305.8756 L62.5293 304.9805 L62.9046 304.7067 L63.0045 304.7548 L66.854 301.5089 L67.0724 301.5021 L67.2723 301.3482 L66.0825 299.703 L65.6528 297.9419 L66.002 297.7908 L67.2612 297.2173 L68.0802 296.781 L68.1172 296.8275 L69.0217 298.0166 L69.898 299.0793 L71.9615 301.2654 L72.676 302.5514 L72.5592 302.6742 L72.5087 302.7841 L72.2465 303.003 L72.2333 303.064 L72.2918 303.1686 L72.6105 303.0636 L72.9222 303.0159 L73.2331 302.7699 L73.7526 302.4993 L74.0097 302.4145 L74.2227 302.4492 L74.4588 302.6371 L75.9142 303.5228 L76.0418 303.4707 L76.1837 302.2267 L76.5494 301.315 L74.2999 302.1487 L74.1223 301.9827 L74.0234 302.0017 L73.8272 301.946 L73.7322 301.765 L73.583 301.0731 L73.7234 300.5993 L73.7816 300.3941 L74.2735 300.0891 L74.5963 299.8318 L74.3149 299.3043 L74.2056 299.0163 L73.953 298.5397 L74.3483 298.3943 L77.0084 297.5691 L77.259 297.3194 L78.478 297.1025 L78.7605 297.0181 L82.5364 295.341 L84.4709 293.7891 L84.8553 293.8012 L84.9651 293.7677 L85.2661 293.8142 L88.6333 293.9192 L92.0328 295.1205 L92.3447 294.393 L92.1757 294.0161 L91.0198 293.3113 L92.0022 290.9494 L92.9481 291.8264 L93.7297 293.0552 L95.5063 293.1497 L97.1649 292.7284 L98.3684 293.2341 L97.8913 294.6911 L97.7158 296.6465 L98.9708 297.8748 L99.8108 297.6834 L100.9405 297.4685 L101.7073 297.0193 L106.0669 288.4684 L106.0791 287.7692 L106.6023 287.0837 L107.0978 287.3923 L107.2984 287.5733 L107.6207 287.4691 L109.6839 286.1264 L111.2803 284.5005 L113.9089 280.8107 L113.1271 280.5037 L113.1634 278.8879 L113.5801 278.8879 L114.5369 278.6261 L114.5884 282.4726 L115.0562 282.6649 L116.5258 279.7382 L117.88 278.0359 L123.3569 273.7385 L123.2536 273.6189 L123.1423 273.1761 L123.3204 273.0275 L123.4682 273.2068 L123.6065 273.347 L125.7315 268.1942 L126.0238 267.034 L126.1903 266.7787 L126.3606 266.6692 L126.4745 266.3929 L127.0132 266.7799 L127.0526 266.7956 L128.3451 267.6323 L128.4833 267.8359 L128.6283 267.9401 L128.6498 268.7441 L127.3979 270.438 L128.4321 270.9118 L128.6907 271.0924 L130.5732 271.6337 L132.4583 272.6102 L133.8909 273.9299 L136.186 276.9795 L135.7056 279.3169 L139.3818 278.7546 L139.9643 276.3913 L140.7978 276.4721 L143.5936 276.5247 L144.5851 274.6462 L145.1831 275.8359 L143.6218 281.2018 L142.1258 290.1985 L140.8367 290.2591 L140.9195 291.2124 L139.84 289.6492 L139.6899 291.5234 L139.5785 292.3192 L139.1747 290.8529 L137.8389 292.1217 L137.4843 289.3878 L135.4599 287.8112 L130.5103 286.6963 L127.4375 283.1577 L127.4271 285.4239 L126.9016 285.9086 L126.6997 286.2237 L125.9542 285.541 L125.5529 286.7852 L125.2086 287.8456 L125.1822 288.0209 L126.2112 287.764 L126.481 287.6618 L126.5304 287.684 L127.1372 287.5325 L126.9638 288.3808 L127.723 288.8223 L129.3643 289.5991 L129.4106 289.8039 L129.7 289.9723 L130.2178 287.3386 L132.7223 288.756 L132.8916 288.8243 L132.9566 288.8885 L134.1177 289.5457 L134.5399 289.6431 L134.9391 289.9404 L135.1449 290.0975 L135.1728 290.1428 L136.1278 290.6832 L136.7175 294.0311 L135.8534 298.4638 L135.5047 298.8531 L135.1951 300.1772 L134.8811 301.0759 L134.2246 302.4 L132.6447 305.9851 L132.2106 306.7662 L132.0159 306.9601 L131.8391 307.051 L131.7063 307.3652 L129.9485 307.0259 L129.0529 309.7482 L130.8675 310.245 L131.0151 311.1619 L131.7632 311.3315 L132.2861 308.9162 L132.7159 308.173 L134.3597 308.0882 L134.6833 304.4611 L136.6714 301.2944 L137.8545 302.1144 L135.7602 308.6779 L137.5309 308.6092 L137.0934 309.1101 L137.7198 309.308 L138.3463 309.514 L138.9547 306.3312 L140.2775 305.584 L140.5726 302.4779 L142.6436 297.9419 L141.911 296.8275 L141.7298 294.9973 L143.1717 293.43 L144.9786 287.5365 L145.8795 285.5935 L145.3462 285.8117 L146.7855 282.9073 L148.5347 278.0706 L148.2132 276.397 L149.2663 275.1136 L150.6686 276.2702 L150.9999 275.2764 L146.7412 273.6035 L146.8893 273.1272 L147.5134 272.1084 L148.6766 270.1988 L151.5746 271.9315 L150.3942 270.2024 L151.1863 268.3562 L153.1278 267.7099 L152.8638 266.4656 L152.4574 265.9561 L153.0442 263.7782 L150.5557 263.4106 L150.9119 260.257 L153.8454 261.7267 L157.8434 254.1221 L157.5341 254.2651 L157.1908 253.1945 L157.5173 251.0572 L159.2245 247.9143 L160.8318 243.7119 L161.4839 242.0925 L162.1308 240.4861 L162.5637 238.0828 L163.8842 234.34 L165.2269 231.9638 L165.8581 230.8013 L166.9927 228.3712 L169.284 226.9711 L169.8633 227.3522 L171.3552 228.0092 L172.6459 228.0528 L171.1274 230.8296 L173.45 232.3905 L170.9666 238.0828 L169.9803 238.0828 L169.7577 239.6465 L169.8413 241.68 L170.9514 242.5782 L170.0241 244.8356 L169.3979 244.7374 L165.7478 245.3475 L168.1165 246.4101 L167.571 248.894 L168.841 250.199 L171.2925 249.1587 L172.5861 246.72 L175.8891 247.5389 L182.6559 248.8751 L187.9524 250.0132 L189.2504 249.2015 L195.4465 246.4557 L197.8496 245.7515 L199.3145 246.9115 L200.89 247.625 L204.0255 248.4436 L206.7397 251.2515 L209.7983 253.7124 L212.3849 255.539 L224.8853 245.5487 L226.5573 246.7414 L213.3997 259.5293 L211.9583 261.1955 L211.1972 261.597 L208.7387 262.9088 L200.7971 266.5205 L199.6068 267.1221 L188.2926 263.9018 L178.989 261.45 L167.5366 259.0466 L164.1974 261.1716 L162.0845 260.1345 L161.6802 259.8465 L162.1552 258.1889 L162.4739 257.5861 L162.8673 257.0326 L163.1966 256.5938 L163.5508 256.2048 L164.4581 255.4323 L162.2349 254.8036 L161.005 254.3831 L159.4544 253.9189 L158.4735 257.9456 L158.8082 258.9961 L158.6822 262.1251 L159.2382 262.0325 L160.393 259.257 L161.5554 259.8392 L161.9742 260.4472 L161.6506 262.4499 L161.844 264.1305 L161.6851 268.0718 L161.1088 271.7351 L160.9315 274.744 L160.4539 277.377 L160.1067 281.8263 L159.0889 284.0836 L158.5561 286.7343 L158.1991 288.9338 L159.8813 286.8623 L160.0438 286.9383 L160.2926 286.662 L160.7273 286.4992 L160.9822 287.1261 L161.6667 287.2618 L162.4632 287.7401 L163.4112 288.2022 L163.8982 288.399 L163.8 288.6288 L164.7853 289.0618 L165.841 289.4302 L174.1932 288.4696 L175.9649 287.1257 L178.3644 288.3901 L187.5336 287.6096 L189.4529 287.9587 L188.8261 292.362 L185.3666 294.2245 L170.6948 294.2007 L170.9625 301.1716 L168.4377 320.2683 L163.8397 319.9577 L163.3079 325.0001 L164.4514 325.9706 L164.5935 325.9443 L164.8581 325.9516 L165.1721 326.0954 L165.1992 326.1026 L165.3789 326.0913 L165.5958 325.9443 L165.9016 325.8413 L166.1597 325.9556 L166.2179 326.0392 L166.5726 326.017 L167.7388 330.2248 L167.9622 330.529 L168.102 331.1977 L168.1136 331.2563 L168.9492 332.1129 L169.5107 332.7005 L169.5058 333.5364 L169.5705 333.6855 L169.5294 333.7957 L169.504 333.8369 L169.4843 337.19 L166.5425 345.9342 L165.7882 348.4609 L164.3421 349.9954 L164.2383 352.7087 L162.8782 355.9565 L161.4319 357.7554 L161.3796 359.0815 L163.1215 359.6274 L163.8723 359.8257 L164.3369 358.8558 L164.8806 357.0912 L165.0113 356.8537 L165.331 355.8022 L165.5956 355.6726 L165.6121 355.7198 L169.1053 349.128 L171.1323 346.7455 L172.5276 346.6446 L170.2133 350.6787 L170.7414 351.6478 L171.0137 351.3628 L171.152 351.1084 L171.4621 350.4938 L171.7324 349.6607 L171.8256 349.4555 L171.9612 348.8135 L173.5131 346.9442 L173.5968 347.852 L173.0834 350.6944 L173.501 350.7538 L173.6154 350.7284 L173.6944 350.7813 L175.3928 351.0223 L175.9947 350.8681 L176.3322 350.734 L179.4188 349.3663 L180.6593 351.1641 L176.7759 353.4521 L172.2403 354.4862 L170.3091 363.4283 L167.389 371.9791 L166.7186 383.9138 L166.2552 385.0317 L166.6839 387.0339 L166.9127 387.0064 L168.8542 386.0782 L170.5291 387.2688 L173.2279 389.2431 L173.4448 389.013 L173.5991 389.1058 L173.9486 389.1272 L174.2245 389.0009 L174.3358 388.7756 L174.3167 388.409 L174.3457 388.1345 L174.4824 387.9649 L175.954 387.2854 L176.1218 387.2289 L176.4011 387.3161 L176.4943 387.2866 L176.5585 387.1635 L176.6299 386.9232 L176.9621 386.597 L177.6196 386.0621 L178.0615 385.8602 L178.3786 385.6862 L179.0939 385.7706 L179.4392 385.7536 L179.8961 385.5114 L180.1822 385.1125 L181.4486 382.8442 L181.7996 382.4191 L182.0947 382.2911 L182.366 382.3012 L182.2436 382.0355 L179.8174 382.4465 L178.5606 382.7033 L177.6362 383.053 L176.6701 383.2791 L176.1697 383.2625 L174.8984 383.5476 L174.7547 383.4656 L174.7345 383.2738 L174.88 383.0065 L176.1368 381.3806 L177.2662 380.1948 L177.8156 379.7673 L180.4227 378.9448 L183.3086 377.9685 L184.1395 377.8599 L184.3836 377.7957 L184.6337 377.7885 L184.8747 377.8797 L185.3195 377.8906 L185.5545 377.9241 L186.101 378.3513 L186.2687 378.6634 L186.3068 379.0276 L186.3322 379.4515 L187.2905 377.5309 L187.4689 376.6212 L187.7117 375.5589 L187.9284 374.4025 L187.9633 372.8924 L188.0001 372.6292 L188.0948 372.4576 L188.4016 372.3118 L189.268 371.9775 L190.9905 371.3088 L191.6996 370.3717 L191.6789 365.7727 L192.2424 364.7293 L190.8997 361.9004 L190.3035 358.9587 L190.3571 358.0619 L190.508 356.6841 L190.6789 356.5763 L191.9471 357.0274 L192.0838 357.035 L192.2877 356.9914 L192.7946 356.8852 L193.0884 357.6266 L193.9489 359.69 L194.135 361.2289 L194.01 361.9969 L194.1102 362.5145 L196.644 370.937 L198.0569 371.1514 L198.3 370.6636 L199.086 370.2663 L200.2395 369.9017 L200.7062 369.7358 L202.3281 369.2363 L203.2507 368.6278 L203.5862 367.9696 L205.9608 367.945 L209.0659 371.1716 L210.9808 369.2064 L212.9845 368.9318 L215.8274 367.3987 L217.252 366.8423 L217.9227 366.5685 L218.8085 366.9436 L219.536 368.5022 L220.0625 367.9975 L222.0235 367.5659 L222.1726 366.8681 L221.711 366.8072 L221.5249 366.6989 L221.464 366.4672 L221.4107 366.3388 L221.4734 366.2407 L221.5645 366.1728 L221.7467 365.7925 L221.7107 365.2413 L221.5484 364.9772 L221.5702 364.7668 L221.8881 364.5629 L222.3471 364.4281 L222.9474 364.4321 L223.2244 364.5746 L223.5614 364.9586 L223.8581 365.1222 L224.1219 365.0822 L224.2901 364.8456 L224.4799 364.5044 L224.279 364.0804 L224.0447 363.824 L223.412 363.551 L223.1669 363.2264 L223.2544 362.7063 L223.7056 362.435 L224.2407 362.2056 L224.7916 362.8913 L225.1325 363.1283 L225.1405 363.4085 L225.1887 363.6629 L225.287 363.7824 L225.5366 363.9076 L225.9397 364.0186 L226.2019 363.9835 L226.4926 363.6681 L226.3526 363.2809 L226.3324 363.0883 L226.9164 362.097 L226.8167 361.7615 L226.7227 361.2741 L226.8167 360.9397 L228.2045 359.4098 L228.8993 359.2717 L229.188 359.304 L229.3436 359.1194 L229.1424 358.5109 L228.9956 358.137 L229.0347 357.8951 L229.195 357.5753 L230.7738 355.614 L231.0436 355.5208 L231.3032 355.5369 L231.6856 355.7267 L232.1021 356.1245 L232.4516 357.1315 L232.7881 357.1848 L232.7977 356.9256 L232.7104 356.5024 L232.1989 355.5183 L232.238 354.8654 L231.9941 354.5884 L231.8352 354.3021 L231.9191 354.0772 L232.333 353.5147 L232.9129 352.4801 L232.8735 352.3113 L232.726 352.1324 L232.7102 351.9826 L232.8158 351.8885 L232.6662 351.4621 L232.1645 351.3236 L230.9561 351.1576 L230.7132 351.0615 L230.5364 351.3611 L231.1054 351.6551 L231.5305 352.0012 L232.0317 352.529 L232.0089 352.8548 L232.0226 353.2199 L231.6672 353.7703 L231.3457 353.9508 L230.9775 353.916 L230.2615 353.576 L229.4644 352.9271 L229.291 352.4325 L229.0836 352.3077 L228.7712 352.3404 L228.3536 352.531 L227.8271 352.6109 L227.5452 352.4696 L227.4691 352.2087 L227.678 351.6495 L228.363 350.4477 L229.0 350.5818 L229.2341 350.728 L229.9478 351.0732 L230.3311 350.7591 L230.0932 350.3443 L229.9136 349.5573 L229.8251 348.7113 L229.8491 348.2445 L230.1996 347.6456 L230.6729 347.0585 L231.0399 346.8489 L231.3042 346.821 L231.8901 347.077 L234.222 348.2243 L234.719 348.5627 L234.7172 348.9027 L234.3713 349.6328 L234.091 350.0855 L233.6794 350.5705 L233.2199 351.4657 L233.1451 351.9362 L234.2238 352.5027 L234.5738 352.7381 L234.7327 352.613 L234.7741 352.3925 L234.6468 352.2164 L233.8722 351.8005 L233.6685 351.4976 L233.6965 351.1483 L234.7933 349.3029 L235.2753 348.7747 L235.7685 349.0695 L236.7602 349.4325 L237.3823 349.8121 L237.6885 350.1998 L237.7475 350.6936 L237.7343 351.6806 L237.7993 353.2764 L237.7411 353.8337 L237.4364 353.9132 L237.127 354.0517 L236.9963 354.2294 L237.0985 354.6494 L236.8161 355.1501 L236.0563 355.5987 L235.2184 354.7014 L234.5427 354.1228 L234.4065 354.5605 L234.2473 354.7782 L233.2406 354.968 L234.3504 355.1723 L236.1697 355.9993 L236.7478 355.8592 L237.9057 354.6049 L238.8959 354.6756 L239.3432 354.8113 L239.7111 354.882 L240.0523 354.7002 L239.5257 354.5036 L238.4972 354.2395 L238.696 353.4957 L239.6137 353.0818 L240.8328 352.2087 L241.2325 352.0282 L241.5115 351.725 L241.7903 350.9315 L242.6935 350.0419 L243.7124 349.3546 L244.4445 350.2264 L246.4536 353.0895 L250.3059 354.802 L248.6978 357.4267 L250.565 359.1336 L251.0561 360.374 L251.3975 360.643 L251.9026 360.6514 L252.2761 359.2188 L254.701 360.5719 L255.5294 364.0525 L259.1694 371.1211 L258.2276 372.678 L259.0319 374.6032 L259.969 377.0379 L260.268 378.8443 L256.7629 381.2187 L258.3744 383.1668 L258.2724 383.3703 L257.6192 384.4681 L258.3164 386.0524 L256.811 386.1061 L255.0598 389.3844 L251.2055 386.3027 L250.6569 390.6634 L250.4304 391.1047 L250.0988 392.4956 L249.5769 393.1088 L248.9999 393.2655 L248.5639 393.343 L247.4347 392.8561 L246.7876 392.7329 L245.6765 392.722 L244.2776 392.8965 L243.6045 393.2271 L242.3914 393.5473 L242.4579 393.7665 L243.181 393.6139 L244.2778 393.3486 L244.9208 393.4782 L246.0563 393.32 L246.5103 393.1908 L248.0097 394.0257 L248.4676 396.0027 L248.2639 397.6046 L248.2279 398.5824 L248.0454 399.0653 L249.0079 399.8473 L246.9253 401.6309 L245.3783 404.1221 L244.7922 404.8859 L244.4784 404.9186 L242.7122 403.7967 L242.2123 403.9045 L241.9104 404.3599 L239.6184 408.2612 L238.1529 408.1014 L237.7714 407.7546 L237.3978 407.5241 L235.9947 406.8435 L235.9976 406.5585 L235.8068 406.4725 L235.5593 406.6812 L235.0304 406.4959 L234.7933 406.6997 L235.5306 407.5564 L236.1731 407.2625 L237.6388 408.1922 L236.9052 408.6597 L236.1917 409.0048 L235.595 409.4582 L234.7775 410.1315 L235.2336 410.733 L234.763 411.1404 L233.7891 411.71 L234.0102 412.1879 L235.6398 413.6061 L235.5867 414.174 L234.7547 415.5106 L232.9817 417.1362 L230.1142 419.6063 L228.8828 420.8783 L227.8698 422.6705 L228.1137 422.9697 L228.8079 422.3165 L229.1745 422.0162 L229.0663 421.2404 L229.2348 420.7883 L229.6731 420.3349 L230.2773 419.9183 L231.3451 419.8061 L231.6752 419.6083 L231.8719 419.4247 L231.9167 418.8228 L233.281 417.6747 L233.4174 417.6877 L233.5059 417.7595 L233.609 418.0199 L232.976 419.725 L232.8909 420.894 L232.552 421.9661 L232.2023 422.937 L231.6576 423.7463 L230.2064 424.9351 L230.2851 425.0949 L231.5276 424.3474 L233.7037 425.0307 L234.901 425.4506 L235.0542 425.6165 L235.1477 426.1154 L234.6921 426.6304 L233.6108 427.3837 L231.4518 428.7936 L229.6521 430.3117 L227.5894 432.7494 L226.1219 434.391 L225.1731 435.0509 L224.7729 435.3294 L221.9665 436.6029 L219.1301 437.792 L218.5561 437.9401 L218.5735 438.2622 L218.5828 438.4374 L218.5295 439.0739 L218.0379 439.8372 L217.5489 440.1625 L216.8067 440.6565 L216.7262 441.3108 L217.4334 441.6809 L218.6814 441.9276 L219.2688 441.7064 L219.7099 441.3988 L219.9219 441.2511 L220.0312 441.2753 L220.0889 441.2882 L220.3387 441.3439 L220.6002 441.6797 L220.7496 442.0281 L220.689 442.5657 L220.7679 442.671 L220.9468 442.6525 L222.2805 441.7839 L224.1667 440.757 L224.6803 440.4773 L225.8685 439.1316 L226.1913 438.766 L225.979 437.8961 L225.921 437.8614 L225.9262 437.7795 L226.548 436.8568 L226.6171 436.4822 L226.6215 436.0059 L226.5524 435.6051 L226.4056 435.2398 L226.4178 434.9665 L226.6446 434.6319 L228.0407 433.2793 L228.3492 433.2014 L228.781 433.224 L229.1898 433.4541 L229.4782 433.8331 L229.451 434.2226 L228.8553 434.5811 L228.5693 434.6566 L228.2115 434.6945 L228.1292 434.7712 L228.1186 434.8862 L228.6257 435.4533 L228.5838 435.7823 L228.0466 436.1448 L226.7919 437.5506 L226.4789 437.7613 L226.3904 437.8207 L226.4403 437.9074 L226.6409 438.2566 L227.3306 437.5744 L228.16 436.9968 L228.8046 437.1966 L229.0666 437.545 L228.2366 438.2017 L227.1204 439.1474 L226.6063 439.8327 L226.7497 440.1932 L227.1631 440.2848 L227.0606 441.3209 L227.0321 441.7754 L227.1923 442.0087 L227.3088 442.0418 L227.5654 441.9013 L227.8279 441.601 L228.0044 441.5595 L228.2643 441.6285 L228.2783 441.9005 L228.4334 442.9641 L228.4605 444.0922 L228.3189 445.3111 L228.7088 445.8875 L229.1044 445.9524 L229.8794 445.2163 L230.0806 444.7089 L230.0158 444.3319 L230.131 444.2173 L230.2845 444.2266 L230.4184 444.2895 L231.5768 445.8818 L231.6006 446.1095 L231.386 446.9441 L231.1727 448.3491 L230.9405 448.8407 L230.4764 449.3093 L229.8988 449.9425 L228.5636 451.0904 L227.6151 450.7522 L227.0968 450.6807 L226.8864 450.8563 L226.7538 451.0492 L226.4051 452.1264 L224.4926 454.6598 L223.5767 455.2709 L222.2854 455.2176 L220.3328 455.1458 L218.0508 454.8822 L217.8872 454.8633 L217.9123 455.1014 L217.9281 455.0957 L219.0677 455.3298 L220.3527 455.4755 L221.9246 455.58 L222.2948 455.5889 L223.0771 455.6083 L222.85 455.7669 L222.5164 455.8133 L221.9748 456.0272 L221.8612 456.156 L221.892 456.3461 L222.0141 456.4022 L222.1402 456.3892 L222.272 456.2585 L222.6225 456.269 L222.5932 457.2751 L222.979 457.5556 L223.5557 457.5718 L224.2754 457.4959 L224.6142 457.6755 L224.812 458.6615 L225.5024 458.9646 L224.3688 459.9521 L222.682 461.1112 L222.2769 461.5152 L221.5818 461.6173 L220.7659 461.853 L220.3046 461.8579 L219.6204 461.7182 L218.9812 461.8328 L218.6778 461.9926 L218.3242 462.9931 L216.3746 464.0045 L216.2882 464.3968 L216.1331 464.4787 L215.9638 464.4601 L215.7875 464.3403 L215.7326 464.1478 L215.1797 464.0247 L214.9729 463.8895 L214.8087 463.5384 L214.6537 463.4605 L214.3611 463.5384 L214.2371 463.7446 L214.1546 464.337 L213.9565 464.4052 L213.7261 464.6651 L213.6562 465.0695 L213.7696 465.9283 L213.7207 466.3573 L213.5416 466.6588 L213.299 466.8021 L212.8895 466.9159 L212.4579 467.2674 L209.2793 468.7505 L206.9005 469.4301 L206.8226 469.5794 L206.8459 469.8317 L207.4402 472.5525 L208.2852 474.5755 L208.4457 475.9052 L208.0421 476.3007 L207.3069 476.6268 L203.8339 477.7478 L203.8989 478.0848 L204.9986 477.9435 L205.3095 477.9795 L205.996 478.1812 L206.7084 478.1405 L207.1177 477.9774 L207.6297 477.6251 L207.7602 477.4472 L207.6201 476.9125 L207.623 476.7753 L207.7473 476.659 L208.4193 476.6881 L208.9916 477.6255 L208.972 477.7648 L207.9603 478.2797 L207.6266 478.5666 L207.4099 478.9754 L207.2883 478.954 L207.1477 478.8213 L207.0007 478.4871 L206.9331 478.4944 L206.7946 478.8003 L206.7698 479.2147 L206.6748 479.4476 L205.8984 479.8551 L205.9302 480.4096 L207.785 479.2535 L208.7504 478.7212 L209.0204 478.6263 L211.0828 479.2639 L211.5291 478.9782 L211.5237 478.8205 L211.5508 478.3689 L211.7429 478.0747 L212.0942 477.9096 L212.7763 477.6845 L213.3901 477.6054 L214.1603 477.4222 L215.6061 476.8701 L216.1774 476.4113 L217.1448 475.7111 L218.1381 475.2575 L218.9815 474.7946 L219.3144 474.6598 L219.5401 474.6861 L219.5712 474.9819 L219.4692 475.1921 L219.5002 475.4879 L219.6729 475.7188 L219.9799 475.8112 L220.2277 475.81 L220.434 475.8879 L220.5901 476.1954 L220.6406 476.4395 L220.4858 476.8548 L219.9802 477.2317 L217.6032 478.6171 L215.9177 479.7869 L215.2234 479.9657 L214.2133 479.8132 L215.0554 480.2764 L215.0673 480.391 L213.6122 481.3212 L211.9757 482.1582 L211.9782 482.3401 L212.1007 482.41 L212.6692 482.0189 L213.6788 481.4709 L215.1359 480.7486 L215.4978 480.4286 L216.6876 479.6897 L218.7511 478.1155 L220.3229 477.6352 L220.609 477.5658 L220.7198 477.3184 L220.7767 477.1159 L222.1086 476.2087 L224.8622 473.6828 L228.3182 470.705 L228.1452 470.2978 L227.6078 470.4225 L226.7062 470.3555 L226.6865 470.351 L226.3052 470.0726 L225.8162 469.4309 L225.2001 468.7061 L225.2405 467.9857 L225.3764 467.7731 L228.2524 464.5041 L229.2203 463.651 L230.0089 462.9156 L231.3501 463.2849 L231.9558 463.2688 L232.5189 462.7389 L232.9934 462.7873 L233.6822 462.2445 L233.9018 461.7384 L234.2662 462.1573 L234.6551 462.328 L235.1166 462.6004 L235.1684 462.9503 L234.6703 463.4011 L234.112 463.9831 L232.6077 465.7108 L232.8062 466.0837 L233.1865 465.6273 L234.5471 464.2462 L235.5577 463.2555 L237.2891 464.7612 L234.1539 467.6887 L231.4847 470.2715 L227.7562 473.8196 L224.3147 476.3697 L224.0085 476.9916 L223.4936 478.7627 L223.4022 479.5565 L221.6722 481.136 L219.689 482.1606 L217.1585 483.7844 L216.2978 484.4196 L215.1898 485.2698 L212.8478 486.4905 L212.9198 486.658 L215.3102 485.4466 L216.4254 484.6326 L217.406 484.0604 L219.8339 482.4786 L221.55 481.4625 L222.0312 481.3745 L222.4985 481.3458 L222.8156 481.2506 L222.9945 481.0056 L223.0838 480.6881 L223.2616 480.2377 L223.9119 479.6142 L224.214 479.3769 L224.3919 479.3172 L224.7644 479.36 L225.0784 479.4298 L225.3119 479.4504 L225.4595 479.3656 L225.5428 479.1889 L225.5167 478.9399 L225.6285 478.2418 L225.8214 477.9335 L226.0714 477.7837 L226.7163 477.6954 L226.9984 477.4601 L227.5348 477.1159 L227.9296 476.7866 L228.168 476.7204 L228.4352 476.7337 L228.6449 476.9787 L228.7513 477.2139 L228.8918 477.3842 L229.1183 477.4016 L229.3687 477.2519 L229.5846 477.1675 L229.7391 477.2745 L229.7378 477.4597 L227.6404 478.8987 L227.6964 479.1191 L227.853 479.2268 L228.8002 478.8531 L229.6964 478.8205 L230.4329 478.8249 L230.5509 478.977 L230.4106 479.1974 L229.9136 479.5807 L229.1269 480.2163 L228.6995 480.502 L229.1701 480.6529 L231.4202 479.065 L231.9012 478.8705 L233.5098 478.8451 L234.1249 478.5646 L234.3742 478.3463 L234.0273 477.9831 L233.8205 477.4431 L233.7881 477.1344 L233.7011 476.8261 L235.6828 474.8931 L236.047 474.3406 L237.1195 473.4883 L237.3064 473.3398 L239.3471 471.5311 L240.5516 474.2095 L241.6464 475.4952 L244.1712 474.0 L244.6752 473.9992 L244.9154 474.586 L244.9638 475.0485 L244.8631 475.4553 L244.2742 475.9851 L242.1287 477.0384 L241.9814 477.3419 L242.138 477.4694 L242.5983 477.4209 L243.7577 476.8673 L244.8893 476.3883 L245.0775 476.4762 L245.0997 476.6901 L244.5908 478.3273 L244.6206 478.6118 L244.7528 478.8499 L247.1684 480.0355 L247.4218 480.4048 L247.4347 480.8713 L247.0278 481.0997 L247.1702 481.3527 L247.2812 481.6146 L245.4614 482.916 L245.298 482.9979 L245.0319 482.918 L244.4034 482.6598 L244.2558 482.6331 L244.3179 481.525 L244.399 480.9742 L244.4601 480.1711 L244.4028 479.8338 L243.9307 479.5484 L241.1835 479.2974 L238.63 478.8463 L237.3774 478.5101 L236.412 478.5594 L235.7866 478.0743 L235.5067 478.1804 L235.5655 478.4661 L235.8764 478.933 L237.4648 479.6889 L238.4882 480.2288 L239.556 480.5125 L239.8302 480.7357 L239.8954 481.0165 L239.9808 481.6529 L239.6272 482.4124 L236.7998 484.8086 L235.1881 486.3997 L233.3154 487.9355 L230.6141 490.0734 L227.7626 492.2464 L225.4274 493.5368 L224.7023 493.7931 L224.5376 493.8738 L224.5563 494.0517 L224.8395 494.0218 L226.4944 493.4154 L228.6565 492.1794 L234.8572 487.457 L237.4703 485.1379 L240.8568 481.5762 L242.1173 480.4835 L242.6811 480.3071 L242.9594 480.4548 L243.2351 481.0379 L243.3508 481.458 L243.5576 481.7243 L243.662 482.0375 L243.7052 483.6286 L243.2985 484.3808 L239.6042 488.0828 L236.9212 490.4483 L234.968 491.7823 L235.1166 492.0511 L236.0856 491.3941 L238.1804 489.8555 L242.6104 485.5854 L245.2253 483.4733 L246.7511 482.3046 L247.1156 482.0936 L247.7679 481.9903 L248.8316 482.9761 L250.4863 485.154 L250.8692 485.4345 L252.4641 486.3041 L253.2063 486.6164 L253.8004 487.5312 L253.6386 487.8984 L253.2663 488.1639 L253.1951 488.423 L253.477 488.718 L253.9541 490.0101 L254.5097 490.7324 L255.286 491.6173 L255.3295 491.9143 L255.3238 492.0664 L254.649 492.5853 L253.5865 493.3137 L252.8177 493.9633 L252.49 494.5851 L252.2233 495.4083 L251.8343 495.9672 L251.6096 496.7391 L251.0209 497.7196 L250.0688 498.3196 L248.8598 499.3147 L248.6289 499.8203 L248.1384 500.2076 L247.1544 501.128 L245.8577 501.9467 L244.225 502.1283 L243.0932 501.9879 L242.5662 501.7748 L241.8902 501.3645 L241.2495 500.8375 L240.7194 500.3242 L240.2796 500.1883 L239.7926 500.6442 L239.2262 501.1413 L238.9725 502.1932 L239.6176 502.5193 L239.9109 502.9224 L241.3986 503.1669 L241.8128 503.4735 L242.6821 503.8686 L245.3617 503.0846 L245.5069 503.0692 L245.5515 503.2125 L244.9853 503.9807 L244.9615 504.0001 L245.2349 504.1268 L246.612 502.6589 L247.2225 502.1969 L248.3775 501.8345 L249.5841 501.8043 L249.8578 501.9487 L249.9644 502.3498 L249.8793 502.7706 L249.2023 503.9263 L248.632 505.171 L248.4213 505.9042 L248.6276 507.6331 L248.5378 508.8609 L248.4666 509.2588 L249.1637 510.0149 L250.4011 512.0 L251.535 504.475 L257.4528 495.3236 L266.7152 491.4095 L267.3543 491.0382 L270.3989 488.4299 L273.3397 486.6156 L277.0224 485.0253 L278.8288 485.1996 L279.9 485.5172 L281.3717 486.108 L283.832 487.6962 L283.766 488.2087 L284.4911 488.5457 L284.577 488.7531 L284.5503 488.9068 L284.4251 488.9419 L283.7137 488.6143 L283.7075 488.6619 L291.8826 492.3658 L292.1208 492.6604 L291.8541 493.2778 L292.8316 493.9347 L295.607 494.8765 L296.3093 494.8999 L297.1092 494.0812 L295.7009 494.065 L292.2062 492.7128 L292.667 492.6927 L297.469 493.6575 L300.2597 492.2407 L306.2499 488.5848 L309.069 488.5888 L313.6096 495.7271 L315.0655 497.5356 L316.2108 498.3321 L316.3984 498.3354 L317.9092 498.1425 L318.8717 497.8431 L319.2864 497.5945 L319.479 497.1652 L319.4197 496.6467 L319.2421 496.2323 L319.0495 494.9523 L319.8427 493.3104 L320.6193 492.2928 L323.5518 491.5668 L325.2109 491.7137 L325.3512 487.8395 L325.8273 487.8686 L325.7046 491.7283 L326.2177 491.493 L327.0528 490.7457 L328.84 488.3314 L329.2359 487.0571 L328.7274 486.3174 L327.934 484.2105 L326.8374 484.9248 L327.0898 487.1975 L326.9311 487.3561 L325.8175 487.4497 L324.8749 487.4501 L319.895 487.7261 L317.2597 489.6465 L313.0116 488.5525 L312.7864 484.6871 L294.3807 489.2389 L292.3356 488.3346 L291.7713 486.4582 L288.2636 486.1636 L286.9377 480.9705 L288.0399 479.7781 L287.6475 478.7143 L287.729 477.3071 L287.7329 477.2333 L289.493 475.0291 L291.995 472.9734 L296.0344 465.9941 L299.1206 465.3851 L298.3673 463.3305 L296.8426 461.6879 L296.4361 458.0274 L301.7176 457.799 L302.6905 457.757 L297.5959 455.4686 L298.1007 453.9269 L298.89 451.982 L299.9381 450.9286 L300.6195 449.4873 L298.7284 445.2477 L300.0839 443.1211 L301.146 440.5887 L303.2155 441.0247 L303.7601 440.5617 L310.7854 443.6385 L309.0698 440.1803 L309.1516 439.6358 L310.2953 438.7643 L311.33 439.5268 L312.1198 439.6358 L312.746 438.8188 L314.9244 440.0987 L314.9244 439.7992 L314.8973 438.2198 L313.0999 437.9203 L311.221 435.7419 L310.3497 435.4424 L309.6145 434.7345 L309.9412 433.972 L309.5055 433.046 L309.7859 431.5429 L308.9665 432.7526 L308.6712 432.8055 L308.2562 432.7409 L303.9315 431.2486 L304.6581 428.7359 L304.9111 428.2769 L305.1764 427.7304 L305.4863 427.6113 L306.4581 428.1986 L306.9546 428.3181 L307.1878 428.0598 L306.9787 427.9088 L306.143 427.5209 L305.8891 427.353 L305.822 427.1221 L305.9367 425.3375 L305.8764 425.1708 L305.5978 424.973 L305.1953 424.8208 L304.4446 424.8346 L304.1919 424.8556 L303.9178 424.8782 L302.8261 424.5988 L302.793 424.5302 L302.4746 423.8739 L302.3529 423.7354 L302.1782 423.7104 L301.9467 423.7564 L301.6299 424.2937 L301.4251 424.4107 L301.1458 424.5706 L300.5392 424.4773 L300.2441 424.3704 L300.0399 424.2961 L299.9205 423.4932 L299.7494 423.295 L299.4305 423.3285 L299.3479 423.3588 L299.0469 423.5634 L298.7134 423.6631 L298.4302 423.628 L298.2469 423.5174 L298.1931 423.4153 L298.1175 423.1432 L298.0901 423.0447 L298.3593 421.0902 L298.3062 421.0329 L298.0756 420.783 L297.6813 420.8 L297.1672 420.7774 L296.8477 420.7632 L296.0727 420.7971 L295.9231 420.5501 L295.8185 420.4746 L295.4944 420.2413 L294.0913 420.0871 L293.5865 420.0217 L293.3012 420.1137 L293.0752 420.2603 L292.8583 420.4011 L292.8707 420.6954 L293.5733 421.2565 L294.8117 421.9988 L295.9565 422.719 L298.0329 423.89 L300.956 425.612 L302.962 426.4242 L303.3871 426.7903 L303.4733 426.9974 L303.5111 427.3611 L303.6027 427.8269 L303.8655 428.0804 L304.1383 428.2249 L304.5504 428.5373 L304.4021 429.1052 L303.7314 431.1211 L303.5517 431.1376 L303.4378 431.2664 L303.3778 431.4589 L303.3912 431.691 L303.4855 431.8634 L303.1021 432.9161 L302.932 432.9342 L301.8755 432.5794 L300.926 432.0224 L299.0792 430.8514 L298.9925 430.602 L298.8012 430.2112 L298.7261 430.013 L298.8933 429.8019 L299.1569 429.7123 L299.6363 429.6691 L299.9425 429.7103 L300.1196 429.8375 L300.1711 430.0877 L300.3699 430.2492 L300.5833 430.3763 L300.7251 430.5148 L300.8913 430.6431 L301.0484 430.7178 L301.392 430.6637 L301.5398 430.6847 L301.6912 430.7416 L301.9019 430.9822 L302.2613 431.1489 L302.7572 431.1953 L302.8041 430.6778 L302.6943 430.4514 L302.2877 430.3214 L301.3961 429.9699 L300.4867 429.5545 L299.154 428.8558 L298.9873 428.7004 L298.9405 428.2511 L299.685 427.3518 L299.9187 427.3271 L300.4152 427.556 L302.6379 428.8792 L303.9843 429.3882 L304.0796 429.2215 L304.0011 429.062 L303.32 428.8122 L302.7702 428.4578 L301.4839 427.7788 L300.7639 427.4349 L300.4088 427.0813 L300.102 426.3915 L299.5874 425.8869 L298.8105 426.0088 L298.4245 425.6915 L297.7585 425.2725 L296.382 424.355 L295.2523 423.8864 L294.3978 423.6111 L293.4912 423.5017 L292.7529 423.3677 L292.0778 422.895 L291.472 422.3767 L291.2636 422.1688 L290.5354 421.5895 L290.3485 421.6525 L290.2647 421.8773 L290.325 422.0441 L290.7808 422.3561 L291.0146 422.8534 L291.1039 423.7088 L291.2621 424.1774 L291.8671 424.2561 L292.2458 424.1213 L292.4521 423.7972 L292.668 423.7742 L293.0794 423.8444 L293.5145 424.1088 L293.7115 424.1831 L293.9339 424.1524 L294.5479 424.1096 L295.2888 424.3752 L295.7434 424.4075 L296.1881 424.506 L296.6997 424.818 L297.1892 425.2439 L298.2752 425.9729 L299.1103 426.5792 L299.1271 426.8109 L299.0712 426.974 L298.3233 428.2091 L298.1066 428.3997 L297.8812 428.2261 L297.3898 427.579 L296.9637 427.4075 L296.3272 427.2799 L295.8097 427.3453 L294.9256 426.9271 L294.0545 426.4601 L293.5453 426.2183 L292.7933 425.7485 L292.2797 425.5644 L291.7327 425.0598 L290.9701 424.5185 L290.588 423.9598 L290.2038 423.972 L289.8924 423.6058 L289.6902 423.1695 L289.1645 422.6629 L288.7296 421.9948 L288.4948 421.3925 L288.204 421.0773 L287.3324 420.758 L286.9767 420.6441 L286.7111 420.6341 L287.0622 420.2324 L286.91 419.9236 L286.7583 419.7605 L286.8318 419.6616 L287.6436 420.0338 L287.6917 419.8772 L287.5375 419.6342 L286.9589 419.2067 L285.6674 418.3025 L284.4758 417.2747 L284.3792 417.1649 L284.605 416.8048 L284.7005 416.3313 L284.6122 416.1028 L284.1905 416.0092 L283.841 416.2502 L283.6723 416.5158 L283.5063 416.8436 L283.3008 416.716 L283.0769 416.6316 L282.192 416.184 L280.1617 415.3738 L278.5394 414.6137 L278.3605 413.8624 L278.1979 413.3033 L277.8127 413.4749 L277.953 414.1958 L277.9608 414.476 L277.6975 414.5672 L277.4342 414.5547 L277.078 414.4607 L276.9093 414.2838 L276.8355 413.9888 L276.5984 413.776 L276.4272 413.5778 L276.341 413.3707 L276.3716 413.0203 L276.442 412.6897 L276.0615 412.3405 L275.2678 412.3119 L275.0034 412.1863 L274.858 412.0119 L274.4764 411.8073 L273.9284 411.6825 L273.3306 411.5033 L273.2517 411.3374 L273.3342 411.1174 L273.5825 410.8283 L274.9799 411.2437 L275.2804 411.2159 L275.8544 411.345 L276.3317 411.5941 L276.7094 411.7536 L277.2665 412.1492 L277.5238 412.5545 L277.6716 413.1358 L278.1052 412.9844 L278.0628 412.8391 L278.3022 412.657 L278.6473 412.6501 L279.4234 412.9045 L280.9564 413.6113 L281.7985 413.9395 L282.0209 414.1531 L282.7038 415.1179 L283.1234 414.8841 L283.256 414.83 L283.5058 414.7703 L283.7018 414.8123 L284.3388 415.2672 L284.6529 415.3475 L284.8128 415.3124 L285.6368 415.7242 L285.7049 415.3867 L281.9671 413.462 L281.5166 412.7805 L281.2694 412.6768 L280.4571 412.7188 L279.411 412.3748 L278.2005 411.8965 L278.0014 411.6361 L277.8459 411.1771 L277.5114 411.0608 L276.6913 411.2332 L276.3545 411.096 L276.0638 410.7803 L276.1901 410.551 L276.5683 410.4678 L277.2049 410.4771 L277.4547 410.5348 L277.6936 410.488 L277.8932 410.4121 L278.1417 410.3899 L278.9952 410.5813 L279.805 410.4961 L281.4677 410.6668 L282.4646 410.9514 L283.0341 411.259 L283.6179 411.9167 L283.8232 412.1068 L284.4251 412.3647 L283.9531 412.5492 L283.9451 412.8564 L284.2599 413.0825 L284.6648 413.0219 L285.095 413.1334 L285.5219 413.2859 L285.8843 413.4462 L286.2322 413.6904 L286.3777 413.8483 L286.3743 414.0215 L286.2969 414.3109 L286.1918 414.5382 L286.1737 414.7776 L286.3135 415.0872 L286.78 415.2329 L287.013 415.5413 L287.0086 415.7787 L286.7986 415.9979 L286.0725 415.9099 L286.3366 416.2433 L286.7008 416.4569 L286.7132 416.4657 L287.5359 417.1358 L288.0298 417.8245 L288.4091 418.4599 L288.7319 419.1292 L288.9491 419.1498 L289.1947 419.1179 L289.5489 418.719 L289.9123 418.7025 L290.9468 419.1348 L290.8958 418.8587 L290.793 418.6968 L290.0759 418.21 L289.7865 417.8499 L289.3076 417.2311 L288.7562 416.6607 L288.7888 416.3107 L288.9965 416.1028 L289.2139 416.0948 L289.5334 416.1561 L289.7542 416.1803 L289.9646 416.3152 L290.1078 416.5703 L290.1603 416.7943 L290.3195 417.0991 L290.7291 417.1544 L291.4777 417.1451 L290.9134 417.5948 L290.9613 417.984 L291.2098 418.1329 L291.4438 418.0393 L291.6069 418.0695 L291.6737 418.2193 L291.7796 418.3287 L292.0107 418.2512 L292.2 418.21 L292.2313 418.0986 L292.3343 417.8499 L292.462 417.8366 L293.3421 418.652 L295.8032 419.5829 L297.7207 420.2465 L298.4346 420.4132 L298.6236 420.4544 L300.626 421.5197 L300.9625 421.0022 L300.5115 420.5953 L300.2402 420.4258 L299.8452 420.3357 L299.2594 420.127 L298.7422 419.7726 L298.5154 419.0997 L298.3932 418.5907 L298.7582 418.2455 L298.8884 418.1386 L299.2006 418.0409 L299.8418 418.3146 L301.0712 418.9738 L301.4078 419.0953 L301.8424 419.3197 L302.1111 419.4888 L302.1968 419.8566 L302.7371 420.3975 L303.2387 420.5307 L303.829 420.4637 L304.2411 420.5824 L304.436 420.7079 L304.4094 421.2892 L304.785 421.6824 L305.1875 421.6691 L305.8533 421.7381 L307.565 422.4929 L308.572 422.6685 L309.6616 422.8134 L310.869 423.113 L311.2451 423.2999 L311.395 422.1676 L312.1056 421.795 L313.1333 421.8019 L316.4797 418.9641 L316.664 418.6791 L317.5649 418.0441 L318.2918 417.4257 L319.0291 416.4205 L319.6245 415.9474 L319.9955 415.4388 L321.1736 414.3153 L322.5816 413.3893 L323.0439 412.8762 L323.7354 412.5012 L323.8741 412.4527 L327.285 408.612 L330.2421 408.0146 L337.3631 414.4292 L337.9753 413.8858 L339.2723 414.2128 L340.7711 411.9401 L341.5032 411.1238 L342.109 409.8029 L342.2734 408.4255 L342.6303 407.8426 L343.1036 407.7312 L344.8569 408.0727 L346.4528 408.2366 L349.2039 409.3649 L351.4257 410.8925 L351.6479 412.1145 L351.0646 415.1974 L351.0646 415.8917 L351.8979 415.836 L352.3978 415.4751 L353.0745 416.0217 L353.5907 415.8073 L353.6753 417.8358 L356.685 414.1648 L357.897 413.642 L361.5911 418.053 L360.5742 415.3847 L359.9372 413.9758 L359.6061 412.8128 L357.9827 408.5685 L355.8713 399.6357 L355.3963 396.7233 L354.3976 395.6999 L353.9808 393.2562 L353.4196 392.5182 L352.8425 392.3894 L352.5842 393.1734 L350.8984 396.5776 L350.1278 397.4516 L349.8241 398.0455 L349.5751 398.8114 L349.2999 399.3321 L349.0335 399.6741 L348.6659 399.7924 L348.4454 399.9325 L347.2685 398.45 L346.2649 397.5102 L345.7886 397.0625 L345.4137 396.972 L344.8134 396.6975 L343.4735 396.5861 L343.4098 395.9559 L343.8406 394.9829 L344.4339 394.3721 L343.8398 394.6672 L343.641 394.6454 L343.3415 394.1448 L343.3208 393.7968 L343.7642 393.102 L344.2247 392.3595 L345.7029 389.4216 L345.9276 389.273 L346.0081 389.3477 L346.3778 389.0085 L346.5929 388.8693 L346.6617 388.2834 L346.2033 387.977 L345.6032 388.4106 L344.9252 388.1236 L344.8295 387.3351 L343.4572 386.6204 L342.7929 386.0439 L342.4918 385.7031 L342.3857 385.3495 L342.4214 384.8165 L342.3008 384.672 L342.0903 384.6429 L342.0588 385.2485 L341.8338 385.2211 L341.6378 385.3656 L340.8788 384.9288 L340.3189 384.4205 L339.9342 384.0987 L339.6823 383.9941 L339.2233 383.936 L338.5555 383.5468 L338.4597 383.1244 L338.4744 382.8184 L337.7695 382.1074 L337.1107 381.8369 L336.6494 381.7796 L336.3271 381.8252 L336.1153 381.8123 L336.0268 381.6338 L336.0123 381.5724 L336.3136 381.2482 L336.6331 380.9656 L337.2603 381.1416 L338.2402 381.5781 L338.5883 381.893 L338.7721 382.0307 L339.4097 382.1062 L339.709 382.2208 L340.1638 382.6734 L340.4087 382.7534 L340.5977 382.7849 L341.0339 382.9545 L341.197 383.1931 L341.4688 383.741 L341.6888 383.81 L341.8405 383.7454 L342.4473 383.1095 L342.6125 383.1212 L342.8108 383.2427 L343.0438 383.4886 L343.3016 383.5891 L343.408 383.6659 L343.4691 383.7652 L343.4673 383.8859 L343.4424 383.9977 L343.3428 384.0191 L343.2144 384.0801 L343.0992 384.0922 L343.0174 384.1447 L342.9744 384.2222 L343.0492 384.7653 L343.1929 384.9909 L343.4005 384.978 L343.5644 384.89 L343.9511 384.5141 L344.0037 384.2234 L344.0704 384.0684 L344.3091 383.978 L344.679 384.1641 L345.1378 384.5868 L345.2442 384.9441 L345.3746 385.2191 L345.9542 384.5283 L347.2872 384.7507 L347.9015 383.12 L347.225 383.145 L346.5799 383.0207 L346.3708 382.8693 L344.7642 381.8914 L344.2193 381.8187 L343.6731 381.182 L342.8165 380.733 L342.6733 380.5966 L342.6386 380.4706 L342.6679 380.3378 L343.1326 379.6401 L343.2322 379.565 L343.3855 379.592 L343.495 379.8185 L343.5273 379.9231 L343.6024 380.0236 L343.626 380.0426 L343.8408 380.0418 L343.8486 379.9114 L343.7639 379.5093 L343.4869 379.1467 L343.5486 378.7934 L343.7036 378.5366 L343.6381 378.361 L343.5462 378.2451 L343.1613 378.2637 L342.7562 378.0901 L342.5941 377.9774 L342.1095 378.0711 L341.9951 378.2128 L341.7587 378.6271 L341.5938 378.6896 L341.4779 378.4333 L341.2594 377.7049 L339.7186 374.1045 L339.6898 373.8263 L339.6655 373.1799 L339.5317 371.0702 L339.5213 369.7305 L339.3184 368.1945 L338.9867 366.4559 L338.4599 363.8725 L338.4801 363.0923 L338.622 361.7982 L339.0797 360.5351 L339.1967 358.75 L339.4418 356.479 L339.9329 356.2298 L340.4204 356.051 L340.4411 355.8846 L340.4781 355.5874 L340.4626 355.2268 L340.147 354.1684 L339.921 352.9396 L339.9166 352.5552 L339.9839 352.0811 L340.0015 350.9634 L340.0036 350.8249 L340.0476 350.6367 L340.3603 349.2948 L340.3818 348.2667 L340.4069 347.0556 L340.8048 343.445 L341.1201 339.8651 L341.0132 338.8377 L341.3233 338.677 L342.0834 338.549 L342.3192 338.7097 L342.6798 338.9556 L343.6309 339.9697 L344.4805 341.0806 L345.1675 341.9214 L345.2703 342.5574 L345.0995 343.5985 L345.1463 343.6369 L345.2103 343.6304 L345.2695 343.5807 L345.3009 343.4693 L345.5753 343.4006 L345.7754 343.1898 L346.9794 345.7557 L347.8357 346.8852 L348.58 348.0163 L348.7446 348.4274 L348.7928 348.933 L348.6768 349.4709 L348.552 349.9236 L348.333 350.1711 L347.5934 350.3762 L346.2952 350.7021 L346.6475 351.045 L347.2965 351.0902 L347.9299 350.8814 L348.7438 350.7635 L349.1989 350.5878 L349.4759 350.7381 L349.6639 350.8915 L349.8125 351.1334 L349.6232 354.0368 L349.5406 355.0786 L349.7832 355.9617 L349.8422 356.3231 L349.8878 356.9672 L349.8272 357.2115 L349.6983 357.4194 L349.2704 357.9206 L348.9269 358.2557 L348.5186 359.5111 L348.5116 359.858 L348.4756 360.3377 L348.6957 361.0064 L348.8989 361.4526 L348.9147 361.6024 L348.8997 362.0796 L348.7809 362.5896 L348.6734 362.7956 L348.6204 363.0399 L348.5675 363.3742 L348.5458 363.8983 L349.0198 365.3051 L349.5083 363.9145 L349.719 362.8957 L349.6486 362.0445 L349.7068 361.7788 L350.0954 361.587 L350.1146 361.5632 L350.1293 361.0859 L350.3457 360.9797 L350.5166 360.6627 L350.4545 360.0784 L350.3683 359.8713 L350.2207 359.692 L350.1089 359.4445 L350.0913 359.2733 L350.1526 359.245 L350.8492 359.4162 L351.2567 359.3807 L351.7141 359.1723 L351.7589 359.1853 L351.8588 358.5545 L351.2919 357.4457 L351.2016 357.1957 L351.295 356.2343 L351.2272 355.3762 L350.9331 354.823 L350.5673 354.4071 L350.2417 354.3764 L350.164 354.0566 L350.1001 351.5889 L350.0721 351.3014 L350.3517 351.5077 L351.2888 353.0749 L351.9487 353.6334 L352.6098 354.4075 L352.658 355.1828 L351.5365 364.034 L351.7594 363.7174 L353.329 353.4674 L353.6378 351.683 L353.73 351.3296 L353.8061 351.2352 L353.8488 351.2307 L354.03 351.3195 L354.9601 351.3737 L355.0921 351.4031 L355.4848 351.6648 L356.2508 352.6231 L357.0373 354.2064 L357.3365 355.0548 L357.5113 355.1606 L357.6055 355.052 L357.6705 354.0751 L357.7298 354.0255 L357.8551 353.9908 L358.1126 353.9855 L358.4875 354.076 L359.3402 354.4196 L359.4199 354.1947 L359.326 354.1179 L357.9933 353.5005 L357.9441 353.4408 L357.9299 353.0963 L358.183 352.6372 L358.3881 352.3347 L358.3971 352.0093 L358.4546 351.5275 L358.701 351.4148 L359.0394 351.6535 L359.5188 352.0307 L360.4034 353.3677 L360.5574 353.2942 L359.9467 352.174 L360.9493 352.5108 L361.7156 353.0636 L361.976 353.6059 L362.02 354.2399 L362.012 354.4075 L360.8388 353.7133 L360.6902 353.7477 L361.9952 354.7689 L361.9105 355.8159 L361.9864 356.1325 L361.6361 357.6524 L362.1741 356.7822 L363.9238 356.6155 L366.0903 356.9212 L366.4234 354.1717 L366.2847 352.3109 L366.3678 350.9497 L365.9422 350.0576 L361.6742 345.8672 L360.5131 345.1343 L358.2721 342.9625 L360.8429 340.9247 L361.1347 340.3267 L361.1023 340.2221 L360.9669 339.9547 L360.9512 339.9111 L358.7073 337.8762 L357.823 337.1545 L357.6979 337.0523 L357.6399 336.9069 L357.722 336.2495 L357.7365 336.1833 L357.9426 336.0968 L358.0678 336.0621 L358.1553 336.0746 L358.4083 336.0262 L358.4823 335.9103 L358.4968 335.8327 L356.9679 334.3769 L350.9888 330.5051 L347.6276 328.8235 L347.5189 328.7924 L347.3599 328.7015 L347.8606 327.6284 L348.171 327.7064 L349.2207 326.6927 L349.1963 326.6297 L349.2445 326.4108 L349.5349 326.0671 L349.7431 325.8886 L349.9069 325.8284 L350.1257 325.8191 L354.7476 321.356 L354.8977 321.0825 L355.9707 320.1746 L356.147 320.0042 L356.5242 319.3551 L357.0013 318.9808 L357.1582 318.8345 L357.2131 318.7421 L357.2444 318.6306 L357.2345 318.3289 L357.2638 318.196 L357.3422 318.1229 L357.5136 317.9105 L357.6581 317.8519 L357.8305 317.8555 L357.8494 317.8317 L358.1025 318.053 L358.4155 318.3261 L359.4935 318.5498 L360.3721 319.074 L361.1935 319.5898 L362.0935 320.2901 L362.1712 320.1661 L362.1647 320.1019 L362.1769 320.0139 L362.4267 319.7283 L362.478 319.698 L363.0565 318.8156 L363.5771 318.9779 L363.8202 318.6524 L363.9031 318.6221 L365.04 319.217 L366.7514 319.967 L369.5102 320.8269 L370.9091 319.53 L370.8359 319.5058 L371.0735 318.6548 L371.8807 317.8232 L372.131 318.0833 L372.328 318.215 L372.4696 318.0837 L372.4722 317.9803 L372.372 317.7865 L372.24 317.7089 L372.0482 317.7182 L371.9208 317.6839 L372.1592 317.3083 L373.604 316.1209 L373.7075 316.0663 L373.7924 316.0558 L373.9654 316.2 L375.5952 317.0571 L376.9325 317.9888 L376.9747 318.0615 L377.3959 318.3176 L377.4112 318.2857 L377.5862 318.3915 L377.5875 318.3915 L377.6116 318.2526 L377.6222 316.6378 L377.6721 315.2343 L377.6227 313.244 L377.7309 312.6971 L377.7713 312.6712 L377.7904 312.6478 L377.9181 312.6345 L378.3501 312.6539 L379.6139 313.6272 L380.908 314.5065 L381.6033 315.0191 L382.0059 315.2412 L382.0201 314.9379 L381.1361 314.0933 L381.1182 313.9225 L381.1967 313.8494 L381.7253 313.5562 L382.1273 313.4923 L383.8633 313.8518 L385.0181 314.618 L385.1253 314.8232 L385.1747 314.8829 L385.1941 314.9153 L386.715 315.8587 L386.8043 315.8745 L387.3148 316.2311 L391.3685 318.7465 L391.8554 318.9593 L394.0719 319.6233 L397.6013 323.0175 L395.6057 324.326 L394.2132 322.8232 L391.5088 327.0303 L390.5668 327.2007 L390.3798 327.2363 L390.0291 327.0283 L389.7876 326.8042 L387.7769 325.0655 L387.7337 326.5598 L386.6635 327.7476 L387.2307 328.4244 L387.6319 328.9034 L390.8929 331.8039 L391.144 328.9729 L393.4247 330.3702 L391.9388 331.2345 L391.0638 332.0826 L392.3025 332.7913 L394.1141 333.8785 L396.1312 335.29 L397.7323 336.0096 L398.0142 336.2398 L398.3163 336.6626 L398.4212 336.7749 L398.5736 336.8722 L398.5488 336.9118 L398.5679 336.9324 L398.5296 336.9429 L397.709 338.2614 L396.0432 338.2614 L396.1224 338.3107 L396.7613 339.1559 L396.847 339.5267 L396.8017 339.5897 L396.8547 339.6587 L395.8909 341.4045 L395.9456 342.2004 L396.5987 343.9543 L398.3645 346.9502 L401.3793 350.8023 L403.0324 354.334 L404.1078 354.8505 L404.0112 354.5601 L403.8365 354.4519 L403.7829 354.3493 L403.7138 354.097 L403.6995 353.7521 L404.0537 353.2502 L404.4264 352.8367 L404.5359 352.7151 L404.9791 352.2237 L406.0467 349.3683 L406.0876 349.2314 L406.2554 349.1923 L408.2435 349.4075 L411.1856 349.6728 L411.5236 349.6159 L411.5506 349.4616 L411.3528 349.2552 L411.1397 349.0336 L410.5239 348.345 L407.8912 346.3094 L407.8689 346.0954 L408.0398 343.796 L408.1622 343.0428 L408.1705 342.9928 L408.2533 342.9625 L408.8769 342.9621 L409.4304 343.1995 L409.608 343.2754 L410.4734 343.7047 L410.5174 343.6288 L411.3 344.0011 L411.4713 344.1093 L411.4157 344.1946 L413.162 345.1791 L415.0735 346.5529 L416.839 347.8871 L418.0032 350.3387 L418.6866 351.6983 L419.6064 353.6903 L420.2049 354.5109 L420.8896 355.0419 L421.734 355.4978 L422.4314 356.6365 L422.6137 357.0948 L422.7506 357.5487 L422.8857 358.6369 L422.7242 359.2559 L422.3167 359.4699 L421.9849 359.8475 L422.2613 360.3042 L422.5691 361.6007 L422.791 362.0098 L422.9945 362.1438 L423.2782 362.1434 L423.6636 361.4719 L424.0514 361.6322 L424.3367 361.8907 L424.5933 362.4334 L424.84 362.6373 L425.0235 362.4762 L424.7499 362.1119 L424.6199 361.602 L424.4465 361.0181 L424.4884 360.6155 L424.709 360.2497 L424.878 360.2319 L424.9601 359.9351 L424.718 359.2486 L425.0491 358.5828 L425.2661 358.2169 L425.5521 357.9573 L426.9184 359.304 L429.3091 362.2848 L430.2074 360.4516 L431.5861 359.3573 L433.1438 358.8412 L433.5015 359.157 L435.2486 358.2521 L435.501 358.8097 L435.5471 359.1873 L437.2595 359.9444 L437.0087 359.3718 L437.0235 359.3052 L437.7366 358.928 L438.062 359.3702 L438.12 359.5156 L438.302 359.8208 L438.4711 359.9981 L438.8122 360.1786 L439.3248 360.1467 L439.6968 359.589 L439.8299 359.5212 L440.3836 359.6415 L440.9793 360.4043 L442.7885 362.9022 L444.5103 365.0899 L444.5776 365.0693 L444.8833 365.4173 L446.8862 368.0629 L447.6607 368.9347 L447.1626 368.096 L444.028 364.1854 L442.9386 362.7697 L441.2001 360.185 L440.5539 359.4598 L440.3634 359.0593 L439.7675 358.0163 L440.1206 357.7712 L440.0093 357.2543 L440.3308 357.1873 L440.5441 357.5882 L440.9016 357.78 L441.3963 357.6823 L441.6453 357.9521 L442.3363 358.2799 L442.6816 358.2856 L442.8817 358.4616 L442.8776 358.5747 L442.8672 358.8465 L442.7639 359.0799 L443.0601 359.1291 L443.547 359.2555 L443.7632 359.3116 L444.0878 359.5624 L444.1028 359.6597 L444.1419 359.9109 L444.035 360.1079 L443.8468 360.2622 L442.775 359.8766 L441.4263 358.8921 L441.0264 358.0825 L440.8327 357.9202 L440.6047 357.8551 L440.3965 358.03 L440.3272 358.2638 L440.4633 358.4863 L440.737 358.8776 L441.8038 359.9646 L442.5193 360.2448 L443.1947 360.2174 L444.1168 360.6187 L444.6135 360.9979 L444.8952 361.4279 L445.0653 361.356 L444.7557 360.5267 L444.78 360.2384 L444.8279 359.9783 L445.1419 359.971 L445.5641 360.0764 L445.8302 360.2105 L445.9765 360.3328 L446.2776 360.8739 L446.5706 361.2826 L446.8378 361.5862 L447.3257 362.4959 L447.8678 363.2676 L448.1606 363.7206 L448.6165 363.3778 L448.5246 363.0855 L448.3221 362.9207 L448.0236 362.9442 L447.5882 362.2601 L447.0441 361.5394 L446.1862 360.2856 L445.6462 359.5362 L445.4303 358.7027 L445.313 358.4011 L445.6873 358.1039 L446.6801 358.7661 L448.2419 359.3306 L448.3314 359.415 L448.5445 359.6165 L448.6009 359.7922 L448.735 359.885 L448.9978 360.1386 L449.3139 360.4079 L449.6336 360.6256 L450.0918 361.0286 L450.2282 361.1009 L450.3633 361.3678 L450.5847 361.5216 L450.6877 361.5935 L451.8808 361.4909 L452.0152 361.5418 L452.0638 362.0126 L452.0431 362.332 L452.2145 362.4225 L452.4405 362.3679 L452.5927 361.8261 L452.8953 361.6165 L453.2422 361.2398 L453.4985 361.1279 L453.6013 361.2902 L453.579 361.4647 L453.5539 361.6629 L453.5617 362.0247 L454.1843 360.7617 L457.7877 362.5666 L459.2454 361.0419 L453.475 355.5244 L452.7087 354.7491 L451.1529 354.4543 L451.4765 354.212 L451.9968 352.2051 L450.8811 351.1592 L447.2931 345.9988 L445.932 344.0835 L445.2281 341.7021 L443.765 342.679 L441.9376 342.9168 L441.1408 342.1076 L440.4416 341.8435 L439.1351 341.2817 L437.361 340.1429 L436.8179 339.7661 L435.9315 339.0881 L435.193 337.5785 L435.4226 336.3173 L435.2717 335.4983 L435.5777 334.7444 L435.4511 333.887 L435.0718 333.5696 L433.793 332.8119 L432.5569 332.0022 L431.5535 331.1198 L431.0684 330.3759 L430.2374 329.3073 L429.051 328.5161 L428.1307 328.2027 L428.1711 328.1587 L427.3919 328.2556 L425.4669 327.5178 L424.5593 326.8659 L424.0954 326.0962 L423.296 325.7941 L422.5443 326.1854 L421.7597 326.0267 L421.7829 325.326 L421.5362 324.7982 L420.9074 323.8289 L420.0446 323.5029 L420.0081 323.4892 L419.9025 323.2509 L419.5756 322.5135 L419.522 322.505 L418.0159 321.6108 L417.0668 321.2352 L416.6006 319.9331 L415.9791 319.36 L415.1424 318.7009 L414.7114 318.5312 L414.3272 318.232 L413.6653 317.5708 L413.0197 317.2441 L412.3453 317.095 L411.7745 316.8919 L411.4061 316.3939 L409.9422 315.1955 L409.7038 314.4055 L409.9305 313.8938 L410.0732 313.5723 L410.534 313.376 L412.046 314.1745 L413.4799 315.532 L415.2035 317.2861 L415.5411 317.5494 L417.0032 318.6891 L417.5947 318.0409 L416.9387 317.3103 L415.694 315.7901 L415.6337 315.6233 L415.6226 315.5162 L415.6283 315.3644 L415.5972 315.0647 L415.2421 314.1285 L414.8949 313.0614 L414.6801 311.6126 L414.3215 310.8497 L413.8941 310.4615 L413.4905 309.6816 L412.2148 307.9545 L412.1237 307.0772 L412.038 306.4584 L411.2819 305.8021 L410.7312 305.5521 L410.1669 305.5028 L409.8288 305.5598 L409.4278 305.8397 L409.0791 306.4168 L408.9958 306.8579 L408.8089 306.9209 L407.814 306.246 L406.7117 305.7767 L404.9778 305.4386 L403.4228 305.5791 L402.509 305.891 L402.305 305.9988 L400.5514 305.0569 L400.16 304.6001 L399.8512 304.5241 L398.7981 304.2034 L398.001 303.9348 L397.2171 303.4687 L397.0678 303.2583 L397.06 303.2332 L397.002 303.0458 L396.9844 302.8762 L397.0737 302.6843 L397.2262 302.5042 L397.3958 302.3478 L397.6189 302.3244 L397.8348 302.3345 L398.0877 302.385 L398.8739 302.595 L399.6063 302.4601 L401.0619 301.542 L402.2713 300.4337 L402.4135 300.1118 L402.7484 299.9013 L402.9796 299.7975 L402.9941 299.7309 L402.9998 299.579 L402.8994 299.438 L402.6899 299.2866 L402.4986 299.3068 L402.0862 299.5544 L401.8307 299.9171 L401.6796 300.2648 L401.1776 300.4612 L398.1781 300.7746 L397.1234 300.5601 L395.507 300.3178 L393.325 300.2212 L392.3224 299.6767 L390.4632 298.9622 L388.3524 298.1806 L387.6954 298.0594 L386.7445 297.8082 L386.3756 297.5513 L386.4445 297.2665 L386.7492 296.5209 L386.6021 296.4357 L386.7575 295.8217 L383.5006 296.5819 L383.2335 295.7837 L382.9974 294.9238 L381.8767 293.5835 L380.0398 292.4691 L373.5258 291.7436 L373.7945 289.0877 L378.1487 287.0478 L379.821 286.4418 L377.7112 285.747 L378.0866 282.0711 L382.2285 284.0262 L382.2751 285.1532 L383.5824 285.5531 L385.649 286.3562 L385.6811 286.2031 L385.6899 286.0367 L385.4261 283.2837 L385.2858 281.7778 L385.1711 281.4328 L384.9384 279.8129 L384.7735 277.4914 L384.7605 277.4817 L384.7603 277.0373 L384.7823 276.99 L384.7302 276.5675 L384.7471 275.9959 L384.5506 273.8867 L384.8876 270.3753 L380.9412 267.5818 L379.5671 265.2334 L377.3905 264.7741 L374.5007 262.9775 L374.1096 262.6915 L374.8743 261.1506 L374.1916 260.4901 L372.6345 260.5466 L372.6112 258.0765 L372.6462 257.1635 L372.7417 256.7752 L373.7464 256.292 L374.4914 255.9341 L374.2304 255.3212 L373.8007 255.3083 L373.6894 254.9236 L373.6829 254.5103 L373.911 254.2 L374.8 253.5969 L376.2217 253.0943 L378.6799 252.1731 L385.8191 248.9635 L387.1709 248.3171 L387.6941 247.9769 L386.2718 246.0804 L387.0065 244.7531 L388.8082 244.0182 L391.647 243.4259 L391.6908 241.7911 L390.1357 242.596 L388.8082 242.4537 L387.8362 241.9083 L386.2167 241.8202 L385.1558 242.6218 L384.781 242.7632 L383.9932 242.6057 L383.4972 242.4251 L383.2518 242.579 L382.9549 242.6158 L381.9632 242.0465 L381.1444 242.6756 L380.1684 242.3944 L379.8208 242.2045 L379.508 241.857 L378.9875 241.2287 L376.3912 240.0428 L375.9962 239.7333 L365.4511 239.6303 L366.4713 233.4919 L366.4703 233.1699 L366.5609 232.6365 L366.6189 232.6038 L366.6316 232.527 L366.7579 232.5258 L366.8405 232.4794 L367.0036 232.42 L367.4957 232.4749 L367.6448 232.5173 L370.162 232.4939 L373.9783 232.4422 L371.1222 230.9847 L370.2547 230.7273 L368.5221 230.3342 L367.8384 230.0651 L367.6632 229.937 L367.6334 229.9289 L367.6329 229.9148 L367.3807 229.7301 L367.1343 229.3943 L366.9948 229.0686 L367.147 227.0742 L367.2109 226.8762 L367.0747 226.38 L367.0483 226.1274 L367.2676 225.9981 L367.4118 225.9617 L367.8744 225.9347 L368.9169 225.9961 L371.2433 226.3577 L376.0671 226.8657 L376.1104 226.5796 L376.0379 226.289 L375.8137 225.7597 L375.1914 224.6546 L374.8106 224.2477 L374.3299 223.8937 L373.6174 223.7555 L373.2258 223.6476 L372.6731 223.6201 L372.1126 223.7211 L371.6257 223.9212 L371.3176 223.8044 L370.9984 223.5825 L370.9547 223.5619 L369.1167 223.5284 L369.0383 223.4407 L368.6652 223.4585 L368.2161 223.4472 L367.9557 223.1987 L367.7874 223.0035 L367.7677 222.814 L367.8923 222.5885 L368.185 222.5578 L368.2917 222.6067 L366.9748 221.1475 L366.7944 221.1229 L366.5756 220.7051 L366.3313 220.417 L366.2955 219.8726 L366.2694 219.7947 L366.2192 219.3106 L366.2471 219.1324 L366.1834 218.1597 L365.9844 217.8676 L365.8316 217.4154 L365.6292 215.8499 L365.492 214.9621 L364.9877 213.1639 L364.3644 210.3735 L368.6533 209.9589 L368.2495 208.6294 L366.163 207.7852 L364.2854 206.3761 L363.3206 204.6044 L362.3491 204.6093 L361.5059 202.3211 L361.1419 200.7345 L358.3143 195.0229 L357.256 191.559 L356.9651 190.4375 L356.5226 190.2334 L356.4427 190.0742 L356.3311 189.9347 L355.9094 189.5225 L355.6068 189.3091 L355.0484 188.2721 L354.8993 187.9952 L354.5604 187.1796 L354.4328 186.674 L354.4035 186.2812 L354.5614 186.1599 L354.7556 185.8912 L355.0365 185.7194 L355.3287 185.6927 L355.7768 185.3755 L355.9174 184.9737 L356.0406 184.9398 L356.2941 184.9345 L356.4126 184.9515 L356.8162 184.667 L357.6021 182.05 L358.0831 181.2801 L357.6446 181.0339 L357.6109 181.0153 L357.4735 181.6325 L356.9583 182.1749 L356.8817 182.2472 L356.5206 182.434 L356.1791 182.2755 L355.5454 181.6002 L354.3942 180.2947 L353.776 179.2317 L353.7354 179.0446 L353.818 178.8231 L355.5216 176.9704 L356.11 176.3572 L356.4792 176.1406 L356.9348 176.6511 L357.6801 177.4061 L358.2672 178.0423 L358.1724 178.389 L358.1688 178.9638 L358.1256 179.564 L357.869 180.203 L358.1691 180.3893 L358.2239 180.4164 L358.1792 180.4641 L358.292 180.5134 L358.4727 180.5429 L358.6482 180.5247 L358.7621 180.5344 L358.8507 180.5574 L358.876 180.5441 L358.9806 180.4628 L359.0992 180.4127 L359.2923 180.3901 L359.3666 180.4184 L360.5235 179.9883 L358.283 166.9574 L356.2301 166.9574 L354.1799 166.9574 L354.9228 163.0165 L354.1462 161.3026 L353.5094 160.8374 L354.2679 156.0878 L356.6935 155.2556 L356.7621 154.2337 L356.6886 154.2155 L356.5182 154.3646 L356.2899 154.5166 L356.0204 154.4827 L356.3878 153.7062 L356.3508 153.5279 L356.3621 153.2292 L356.4701 153.0473 L356.6894 152.9179 L356.8506 152.9147 L356.8928 152.2845 L354.2705 151.5973 L354.1972 149.9897 L354.1615 149.9565 L353.9316 149.184 L353.8617 148.4516 L353.7628 147.9083 L353.695 147.2558 L353.5456 146.6329 L353.4589 146.3908 L353.754 146.354 L354.0455 146.6632 L354.0401 146.544 L354.4988 145.8745 L354.3057 144.6016 L353.8762 143.5445 L353.9994 143.3577 L353.9912 143.276 L353.95 143.1976 L353.8943 143.1374 L353.7768 143.1168 L353.6994 143.1249 L353.5467 142.717 L353.8286 142.6276 L353.6166 142.1203 L353.3114 142.1644 L352.5749 140.6262 L351.9934 139.2384 L351.8461 138.6368 L351.4962 138.1202 L351.2357 137.2806 L351.099 136.6333 L351.1446 136.1244 L351.3196 135.9703 L351.6623 135.8066 L352.2471 135.9372 L352.594 136.2198 L352.6046 136.2509 L352.6732 136.2359 L355.8542 141.5907 L356.2299 141.7431 L356.7222 141.7981 L359.9242 141.463 L362.2463 141.0074 L363.5396 140.8295 L364.5067 140.7713 L365.6466 140.95 L367.3424 141.3898 L368.8457 141.807 L370.0546 141.9574 L370.9873 142.1793 L371.2516 142.2792 L371.8923 142.7445 L372.1038 142.7437 L372.554 142.8027 L372.8227 142.945 L373.0562 143.1548 L373.2009 143.3706 L374.7161 144.0461 L373.8463 140.1775 L363.6545 135.9813 L364.5606 135.7306 L362.3239 133.3374 L360.0045 124.6697 L357.7419 121.8437 L357.6669 119.2926 L358.1742 119.0864 L363.5458 133.9114 L366.8314 136.2958 L370.921 137.8085 L371.6148 136.0338 L371.7727 137.853 L372.5364 137.853 L373.2975 137.853 L373.5512 134.821 L375.1743 135.1687 L376.1782 134.3032 L376.1645 134.1718 L376.2199 134.0723 L376.9142 133.3531 L377.2766 133.056 L377.5075 133.0317 L377.6022 133.075 L377.8562 132.8563 L378.5922 132.8971 L378.4909 132.8522 L378.3871 132.695 L378.2251 132.5038 L377.8168 131.4171 L378.3613 131.3172 L378.2678 130.9158 L379.5624 129.7268 L380.8632 126.6426 L381.4366 126.3939 L383.132 130.8475 L383.5133 130.4978 L383.564 130.2823 L383.5293 130.1319 L384.0466 127.7794 L384.1607 127.7543 L384.4551 126.5071 L384.409 126.3794 L384.4843 125.9351 L384.8975 124.5124 L386.2066 117.7696 L390.6418 118.0105 L390.8378 112.9337 L392.3874 113.0432 L392.1321 110.756 L392.0773 110.4152 L392.0995 109.9591 L391.9362 105.9745 L391.6411 104.6601 L392.946 104.4211 L392.9794 104.3714 L392.3219 100.7866 L392.647 100.4401 L392.5606 99.9282 L392.6623 99.6835 L392.888 99.6172 L393.0188 99.5258 L393.2833 99.5121 L393.53 99.4147 L393.6276 99.3051 L392.8075 95.1529 L393.36 95.332 L394.3734 95.4865 L395.8951 95.0995 L401.4339 95.1884 L401.9423 94.9899 L404.3423 94.4626 L404.8637 94.3114 L404.8725 94.349 L405.194 94.2564 L405.1893 94.2204 L406.4384 93.8634 L406.894 93.7073 L408.6758 93.0725 L407.9859 92.5533 L406.959 91.8752 L406.8233 90.9739 L406.8961 89.7616 L407.0286 89.0795 L407.8107 86.8267 L406.7767 87.8029 L404.0521 87.8668 L403.3891 87.4665 L402.5162 85.6957 L402.2548 86.0823 L402.2535 86.1232 L401.955 86.7244 L401.5944 87.0597 L401.2478 87.5724 L397.6546 87.0467 L396.8343 84.1943 L396.7483 84.5688 L396.607 84.8389 L396.1907 85.2639 L395.884 85.9428 L392.5911 87.1155 L389.1585 85.1393 L388.5732 85.1094 L388.4295 85.1834 L388.1165 85.0892 L382.0344 85.0892 L380.9186 77.7097 L381.2598 75.8629 L381.2567 75.1867 L381.5034 74.3011 L382.2622 73.3569 L383.2055 71.5868 L385.4388 69.3687 L385.4867 68.9113 L385.3049 68.8211 L385.488 68.261 L385.5408 68.0382 L385.5887 67.933 L385.6213 67.6221 L385.4072 65.8237 L381.1449 66.0356 L380.4726 65.5495 L380.4729 65.2316 L380.6085 64.7063 L380.5839 63.8574 L380.6802 63.358 L380.776 63.2625 L380.9624 63.2221 L381.1133 63.4732 L382.2844 58.498 L380.7669 59.3235 L380.5122 57.0077 L381.571 54.6058 L378.8818 53.0196 L378.2212 48.7451 L378.1692 48.5918 L378.1104 48.028 L377.793 45.9641 L378.0928 41.6494 L375.8707 41.4734 L375.7096 41.0204 L375.3915 40.946 L375.5132 40.4687 L375.486 40.3984 L377.4327 34.3208 L377.778 33.8362 L377.9913 33.2315 L374.8851 33.3674 L374.8551 33.4382 L374.605 33.3796 L373.3304 33.4354 L373.46 33.1114 L373.1173 33.0313 L373.7614 31.6998 L373.8235 31.2945 L373.6793 30.8338 L372.9739 31.2184 L372.2048 32.8707 L370.4064 32.2705 L369.5871 30.3084 L369.4582 29.442 L369.4162 27.9555 L368.3981 27.138 L368.352 26.8152 L369.0525 25.8104 L370.3614 25.3129 L370.2915 24.8073 L368.477 24.5545 L367.7703 24.6746 L366.3344 24.4542 L366.3152 24.2531 L365.843 20.5625 L353.2997 0.0 L347.2654 9.7202 L345.3575 15.6384 L345.6061 19.6228 L344.1745 30.5203 L345.9219 37.267 L346.0746 41.1822 L346.406 47.7825 L344.8476 52.4376 L344.9889 56.194 L344.7311 56.8055 L341.6583 62.759 L338.6295 64.68 L334.2856 64.6638 L324.1767 69.5895 L321.8469 72.3273 L320.9385 72.5849 L312.5433 75.6126 L295.3748 73.4895 L289.3014 72.1101 L289.1937 71.0607 L287.6778 68.2752 L287.7567 64.2735 L287.8546 63.0542 L287.1028 58.4734 L277.091 51.9762 L264.1767 46.1182 L263.6235 48.4296 L261.7205 49.5637 L258.3223 49.8221 L256.5188 46.919 L253.0297 46.2775 L252.0986 47.0868 L251.9031 45.8488 L251.2904 43.3461 L250.8733 41.9381 L247.6302 41.2894 L242.2602 38.2078 L231.9949 44.2031 L231.1391 44.7641 L221.5345 50.5614 L217.7368 54.4562 L216.9861 58.9049 L217.0974 62.059 L218.4824 63.6932 L219.9165 67.891 L219.4635 71.5747 L217.8489 74.7949 L215.4896 75.34 L210.5324 73.3787 L208.5909 76.7715 L193.4964 85.6626 L188.6617 94.7716 L189.6209 103.1847 L185.4937 109.3284 L170.3707 96.1257 L168.1884 95.5002 L160.5704 97.7742 L152.957 105.6147 L147.3276 116.8785 L150.0776 117.8076 L149.2601 119.3314 L150.0033 120.5576 L144.2434 123.1588 L142.8683 127.1722 L143.6493 129.0246 L143.5002 131.5198 L141.2332 129.7733 L140.7502 132.2632 L133.9367 139.4336 L132.5978 138.6534 L131.2315 141.0446 L129.0666 142.6309 L125.3878 151.7489 L125.3386 152.9842 L125.5454 158.5285 L128.1833 158.0455 L131.6154 165.7545 L128.4199 167.8992 L123.995 169.0128 L124.2547 177.9226 L115.9126 209.9605 L111.7696 218.6103 L92.1218 246.7365 L91.3861 251.7372 L79.2241 258.8106 L80.3569 267.0578 L84.1064 272.2777 L84.3712 276.6697 L83.7883 282.4686 L79.0333 287.2857 L71.291 290.0927 L62.6245 294.8074 L64.8503 298.3903 L61.8112 300.1513 L61.2098 301.3449 L60.1673 303.415 L60.0638 303.0232 L58.5183 302.1467 L58.3112 302.284 L56.336 303.7329 L55.9967 304.1877 L55.3381 304.8509 L54.642 305.2552 L54.2956 305.3542 L54.1776 305.3158 L53.5837 305.7512 L52.7546 306.4803 M178.2911 225.5742 L179.1493 224.998 L180.2774 225.5989 L181.3318 223.3183 L179.6398 222.178 L180.6207 219.652 L184.2133 219.1004 L184.7406 221.2829 L184.3603 222.8031 L183.073 224.7039 L182.8154 226.3347 L181.614 227.0701 L179.8972 227.2297 L178.8674 226.5307 L178.2911 225.5742 M179.746 360.8331 L179.9463 360.2036 L180.4413 359.3124 L180.5762 359.0395 L180.7431 358.8977 L180.9785 358.884 L181.2096 359.01 L181.4436 359.1194 L181.9474 359.0992 L182.2241 359.0992 L182.5022 359.1501 L182.6052 359.2963 L182.6433 359.5317 L182.6554 359.8459 L182.6127 360.2008 L182.5571 360.4693 L182.2096 360.6264 L181.9148 360.6502 L181.447 360.6627 L181.235 360.7403 L180.9779 360.9607 L180.724 361.1776 L180.3934 361.3912 L180.0183 361.5293 L179.8027 361.2878 L179.746 360.8331 M187.5854 356.6446 L187.8908 356.2117 L188.9279 354.5613 L189.7785 353.6705 L189.9315 353.6976 L190.2323 353.7537 L190.3307 353.9294 L190.5611 354.6679 L190.611 354.9175 L190.6232 355.3294 L190.5336 355.6564 L190.4469 356.2169 L190.4228 356.8545 L190.384 357.0738 L190.3133 357.2349 L190.1282 357.2377 L189.7819 357.1651 L189.2652 357.0863 L187.6431 356.7354 L187.6193 356.7378 L187.5854 356.6446 M225.4558 52.3758 L226.0341 52.2868 L226.8579 52.1998 L227.0458 52.0595 L226.817 51.6138 L226.7631 51.4176 L227.0968 51.3359 L227.3117 50.959 L227.7292 50.6197 L227.8064 50.2994 L227.7158 50.1578 L227.8374 50.0704 L228.3443 50.3277 L228.553 50.8247 L228.356 51.1459 L228.5387 51.2441 L228.5957 51.5507 L228.4701 51.6939 L228.2993 51.7614 L228.1628 51.7723 L227.8701 52.1108 L228.0691 53.0148 L228.3456 53.1175 L228.38 53.314 L228.2151 53.7472 L228.1349 55.0422 L228.2514 55.9194 L228.0769 56.6902 L227.1939 56.5378 L226.51 56.1289 L226.0378 55.902 L226.1002 55.5728 L226.2648 54.9569 L225.9156 55.0005 L225.6319 54.6527 L225.4833 54.1565 L225.4667 53.2566 L225.4649 52.5298 L225.4558 52.3758 M230.9807 45.8132 L230.9887 45.7574 L231.2815 45.5034 L231.3268 45.2446 L231.276 45.1451 L231.2362 45.0982 L231.2975 44.9198 L231.2196 44.8405 L231.4337 44.7681 L231.4601 44.8138 L231.4896 44.898 L231.4381 45.1115 L231.494 45.2951 L231.5748 45.353 L231.7604 45.0444 L231.8637 44.9691 L231.9866 44.9052 L232.0824 44.9748 L232.1922 45.0391 L232.2432 44.9748 L232.2118 44.8842 L232.1469 44.7948 L232.1523 44.7346 L232.1948 44.7139 L232.2284 44.7972 L232.2724 44.9064 L232.3128 44.8935 L232.3131 44.9825 L232.2993 45.2595 L232.398 45.2616 L232.5072 45.1382 L232.5758 45.2733 L232.3045 45.3534 L232.2962 45.4812 L232.4161 45.7259 L232.5233 45.6142 L232.6408 45.6951 L232.764 45.8864 L232.8028 46.0684 L232.9051 46.0316 L232.976 45.9985 L233.0063 45.8844 L233.049 46.0276 L233.0407 46.0757 L232.9688 46.0733 L232.925 46.1416 L232.9452 46.1772 L233.0112 46.2189 L232.9178 46.3059 L232.8383 46.3827 L232.8909 46.4579 L233.0842 46.337 L233.1635 46.3321 L233.195 46.5141 L233.0829 46.6185 L232.8127 46.7374 L232.5572 46.7904 L232.472 46.9158 L232.4666 47.3898 L232.4655 47.6066 L232.4208 47.8003 L232.5838 47.8727 L232.757 47.7186 L232.9998 47.3987 L233.0527 47.3174 L233.1891 47.3833 L233.0547 47.6377 L232.9344 47.9613 L232.7065 48.1315 L232.6413 48.4535 L232.5512 48.574 L232.4661 48.449 L232.4705 48.1048 L232.2463 47.9932 L232.1702 47.5985 L232.0392 47.2988 L231.8264 47.1629 L231.6239 47.0533 L231.4238 46.9388 L231.2892 46.849 L231.4735 46.7544 L231.26 46.5057 L231.1399 46.3309 L231.1821 46.1372 L231.1934 46.0284 L230.9807 45.8132 M243.9661 469.2412 L244.6495 468.3829 L244.4865 467.7981 L244.5149 467.5838 L244.7521 466.9639 L245.3513 466.3977 L245.8851 465.7286 L246.4922 465.2015 L246.786 464.9844 L247.2396 465.1482 L247.7599 465.0425 L248.085 464.917 L248.1992 464.7919 L248.0232 464.6389 L247.405 464.7116 L247.7161 464.4161 L248.0164 464.1583 L248.6571 463.8136 L249.0724 463.6788 L249.2709 463.7672 L250.0105 463.3612 L250.272 463.4613 L250.4568 463.5585 L250.2114 463.7849 L250.3727 463.9359 L250.9914 464.3467 L251.2078 464.3173 L251.3284 464.4484 L251.0274 464.7709 L250.2702 465.2701 L249.8397 465.484 L248.6253 466.2903 L247.3315 467.499 L246.5256 468.0253 L244.9737 469.2207 L244.3381 469.7106 L243.9661 469.2412 M245.4544 351.0474 L245.714 350.7946 L245.948 350.52 L246.0878 350.2143 L248.8782 350.545 L249.4601 350.6444 L250.1775 350.2293 L251.5508 349.1248 L254.271 346.9947 L255.4199 348.3204 L254.1959 349.4273 L253.3595 349.9571 L251.9463 350.5765 L251.1086 351.0853 L250.2849 351.5081 L249.974 351.66 L249.7617 351.8938 L249.4296 352.2681 L248.3931 352.6255 L247.625 352.9033 L247.1867 352.2269 L246.8127 351.6091 L246.6718 351.2864 L246.5419 351.1774 L245.9253 351.681 L245.61 351.3062 L245.4544 351.0474 M262.1953 443.9061 L262.2 443.1271 L262.6038 441.8529 L262.755 441.0372 L262.9261 440.8245 L263.1026 440.7914 L263.486 441.2584 L263.8839 441.2349 L264.0045 441.8315 L264.1239 442.173 L264.528 442.1693 L264.8446 442.5253 L265.1151 443.0585 L265.113 443.7693 L265.4032 444.5265 L265.7172 445.165 L266.9381 446.9308 L267.4323 447.9596 L267.8428 448.758 L267.9792 449.1595 L268.0015 449.4994 L268.0517 449.775 L267.9824 449.9337 L267.6236 450.0031 L267.2699 449.9966 L266.2389 449.9478 L264.2808 449.6741 L263.9362 449.6673 L263.6947 449.4118 L263.4979 448.7624 L263.508 447.8317 L263.6077 446.9348 L263.4076 446.459 L262.4995 444.7602 L262.1953 443.9061 M265.0061 439.3694 L265.2756 439.4537 L265.7724 439.7048 L265.9078 439.7815 L266.3497 440.0745 L266.5834 440.3272 L266.7393 440.5992 L266.8974 440.8963 L267.0005 441.3233 L267.6173 442.2836 L267.9174 442.0914 L268.015 441.2495 L268.236 440.927 L268.6953 441.0396 L268.9614 441.4969 L268.7861 441.8032 L269.2503 441.9296 L269.3849 441.58 L269.014 441.0242 L269.6446 440.757 L269.6073 440.6444 L269.0784 440.6307 L269.1719 440.4128 L268.8944 440.1573 L269.1255 439.9688 L269.6042 439.813 L270.4473 440.1875 L270.869 440.4987 L270.9806 441.0888 L271.072 441.6398 L270.957 441.819 L270.8752 442.5068 L271.1683 443.5013 L271.0168 443.9663 L271.2322 444.3226 L271.1186 444.5576 L270.5801 445.5335 L270.4924 445.8419 L270.2783 446.0574 L270.1475 446.2443 L269.9138 446.394 L269.9177 446.8541 L270.1584 447.1027 L270.1708 447.5354 L269.994 447.9665 L269.9876 448.3939 L269.8913 448.5864 L269.5949 448.5703 L269.1807 448.8568 L269.1644 449.1151 L269.1473 449.5438 L268.7657 449.6532 L268.6228 449.3291 L268.5529 448.8694 L268.622 448.2752 L268.5948 447.6726 L268.5415 447.1617 L268.4165 446.8186 L268.3901 446.3936 L268.1027 445.854 L267.555 444.9939 L267.0028 443.5743 L266.5443 442.33 L265.7511 441.0242 L265.6849 440.902 L265.1356 440.1217 L265.0061 439.3694 M270.4388 436.6118 L270.5387 436.3756 L271.1126 436.1395 L271.6034 436.0632 L272.7772 436.3159 L273.4821 436.6182 L274.0327 437.1127 L274.6467 437.4998 L278.8309 439.5942 L280.2161 440.2013 L281.0432 440.7167 L281.6492 441.5058 L282.0256 442.244 L282.0491 443.2635 L283.6355 444.6024 L284.7647 445.387 L285.5838 446.3044 L285.9925 447.1145 L286.3138 447.6024 L286.3806 448.2026 L286.431 448.4484 L286.626 448.8867 L286.2889 449.0716 L283.9133 447.4712 L282.0253 446.1845 L280.2202 445.0318 L280.1659 445.1359 L281.9518 446.3528 L285.6065 448.9113 L288.5357 451.1978 L289.2949 452.0211 L289.6038 452.5906 L289.7542 453.0765 L289.6827 453.5859 L289.2108 454.7228 L288.5654 456.2787 L287.8183 458.2873 L287.5853 458.8443 L287.2731 458.9311 L286.4927 458.8624 L284.0704 457.6367 L282.4038 456.9587 L281.2497 456.6536 L278.6662 455.796 L276.0376 454.7426 L275.0847 454.2155 L274.5978 453.6145 L274.545 453.0999 L275.3141 450.4353 L275.413 450.0713 L275.1155 449.7286 L274.5678 449.2596 L274.378 448.8375 L274.3594 448.3104 L274.2605 447.8866 L274.0609 447.5746 L273.9385 447.2937 L273.6801 446.9696 L273.5478 446.6572 L273.5685 446.3791 L273.787 445.9977 L274.0016 445.4237 L274.4145 445.0794 L274.7896 445.0903 L275.8114 445.5597 L276.1813 445.5206 L276.9424 444.6887 L276.7866 444.4474 L276.2209 444.1164 L274.0337 442.7881 L272.6832 441.8767 L272.2972 441.5094 L271.8486 440.7849 L271.6267 440.1916 L271.2951 439.5575 L271.1056 439.176 L271.0992 438.8757 L270.9174 438.3139 L271.0986 438.0979 L271.4569 437.8707 L271.7274 438.1266 L271.9772 438.4616 L272.7583 439.0763 L272.9612 438.862 L272.437 438.3002 L271.7303 437.8053 L271.5356 437.614 L271.51 437.3686 L271.402 437.2051 L271.2809 437.057 L271.1512 436.9976 L270.9604 437.0178 L270.8201 437.0328 L270.5762 436.9738 L270.4388 436.6118 M273.7171 457.5568 L273.7298 456.8397 L274.2781 455.1768 L274.5574 454.6998 L274.8833 454.3636 L275.1438 454.5626 L275.544 454.7999 L275.8305 454.9746 L276.1321 455.084 L277.5427 455.6273 L278.1412 455.8751 L278.5689 455.9881 L278.9054 456.1253 L280.4265 456.7008 L281.1547 456.8836 L282.1705 457.1444 L282.9523 457.4297 L284.1737 458.0145 L285.4916 458.6155 L286.3606 459.0311 L286.8781 459.222 L287.4479 459.373 L287.749 459.6079 L288.2815 461.3445 L288.5349 462.5387 L288.5908 463.1784 L288.5318 463.6223 L288.357 464.1441 L288.1466 464.5675 L287.8522 465.0251 L287.5017 465.7443 L286.9076 466.4304 L286.3666 466.8594 L285.949 467.1112 L285.3686 467.1984 L284.9594 467.3925 L284.4403 467.771 L283.533 468.4301 L282.4905 470.3268 L281.206 472.2054 L281.0395 472.2813 L280.7253 472.3035 L280.536 472.1994 L280.3991 471.9326 L280.4511 471.7498 L280.5195 471.3753 L280.6404 470.887 L280.7333 470.5698 L281.0843 470.3066 L281.3556 470.0484 L281.6903 468.97 L281.9402 468.4002 L281.5961 467.9619 L281.3802 467.9849 L281.0877 468.1104 L280.5966 468.4167 L279.3377 468.9741 L278.0431 469.6848 L277.8272 469.46 L277.3152 468.9273 L276.9494 468.4309 L276.4039 467.537 L276.0436 466.6689 L275.7503 465.0631 L275.5227 463.9411 L274.9988 462.3728 L274.5364 461.2561 L274.1279 459.9219 L273.8792 458.8701 L273.7226 458.1659 L273.7171 457.5568 M281.5443 435.9002 L281.7224 435.6007 L282.4387 435.1042 L281.8752 434.3284 L281.7367 433.0363 L282.1066 432.9903 L282.6145 433.3605 L283.0466 433.6289 L284.5094 434.8507 L284.861 434.8027 L284.6733 434.4685 L282.9482 433.1393 L282.1791 432.6032 L281.8873 432.288 L281.9671 431.9247 L282.1744 431.9029 L282.636 432.3106 L284.4639 433.7173 L284.5964 433.5938 L283.1612 432.1544 L282.9034 431.8613 L282.708 431.362 L282.6896 430.8022 L283.3484 430.2476 L284.0833 429.9331 L284.4181 429.9824 L285.6249 430.8385 L286.7153 431.7221 L287.3785 432.5851 L288.3635 433.3241 L289.9318 434.6335 L291.2732 435.4404 L294.5523 437.17 L294.9743 437.5066 L295.5645 438.0148 L295.5741 438.3377 L295.5135 438.6977 L294.9427 438.353 L294.244 438.0031 L293.2041 437.5575 L291.682 436.743 L289.3596 435.5494 L286.072 434.3437 L285.1465 433.8787 L284.9612 434.0551 L285.9998 434.5225 L287.8686 435.2713 L289.1497 435.8388 L291.2743 436.9205 L294.9523 438.944 L295.2125 439.0909 L295.2513 439.7068 L295.645 440.866 L295.7258 441.4133 L295.4897 441.4166 L294.2857 440.7752 L291.274 439.3871 L290.684 439.0699 L289.7213 438.3865 L288.975 437.859 L288.7127 438.1347 L291.9276 440.2126 L292.287 440.8317 L292.1078 440.8576 L291.7389 440.686 L291.3374 440.7498 L291.3385 440.9657 L291.4625 441.126 L293.3921 442.112 L294.3595 442.5294 L295.6215 442.6779 L296.6668 442.9972 L297.7849 443.4367 L297.6495 443.5808 L297.2278 443.8625 L296.6927 444.5023 L295.8959 445.9262 L295.586 446.436 L295.2692 446.7464 L294.8174 446.2988 L294.6251 446.1026 L294.4281 445.8641 L294.2042 445.676 L294.4289 444.7759 L294.2836 444.6181 L293.5658 444.0211 L292.8518 443.804 L291.9504 443.7418 L290.471 443.7548 L289.4295 443.2256 L288.6133 442.7239 L288.2354 442.5108 L287.8383 442.2153 L288.3035 441.7092 L288.5825 440.9649 L288.517 440.5488 L288.0073 440.5803 L287.9356 441.1461 L287.4929 441.8198 L287.1629 441.7568 L287.0666 441.6386 L285.7626 440.8596 L283.3971 438.9371 L281.9402 437.6838 L281.7121 437.122 L281.5842 436.4895 L281.5443 435.9002 M283.4639 410.8465 L283.6329 410.6127 L283.9265 410.5159 L284.196 410.484 L284.7642 410.559 L285.1755 410.6983 L285.3896 410.727 L285.5548 410.637 L285.7085 410.5768 L285.8789 410.5336 L286.0616 410.5433 L286.2812 410.6224 L286.5038 410.7343 L286.662 410.9256 L286.677 411.1577 L286.883 412.6247 L286.7963 413.0825 L286.555 413.3526 L285.597 412.5468 L284.701 411.9921 L283.7724 411.3329 L283.5286 411.056 L283.4639 410.8465 M287.9573 410.9248 L288.056 410.8231 L288.4135 410.727 L288.5434 410.7863 L288.6289 410.9781 L288.6894 411.3479 L288.9162 411.3604 L289.159 411.4189 L289.3785 411.4322 L289.5662 411.5222 L289.7588 411.6587 L289.7694 411.8291 L289.4391 412.5351 L289.3969 412.8278 L289.4526 413.1507 L289.6232 413.3223 L289.9224 413.4696 L290.3221 413.3949 L290.5264 413.2932 L290.9432 412.9977 L291.1438 412.9327 L291.3931 412.9505 L291.5419 412.9824 L291.72 413.1204 L291.7721 413.3049 L291.7073 413.5233 L291.5922 413.6376 L291.435 413.7381 L290.317 413.8333 L290.0925 413.879 L290.0231 413.9117 L290.0609 414.0647 L290.2654 414.1418 L290.4492 414.1587 L290.8448 414.2887 L290.9476 414.4348 L290.5196 414.5894 L290.2654 414.6508 L290.0104 414.6778 L289.0682 414.7118 L288.6625 414.6819 L288.4572 414.4227 L288.3273 414.1882 L288.2574 413.8673 L288.3216 413.6121 L288.3454 413.3505 L288.4168 413.095 L288.3643 412.8342 L288.1569 412.6259 L288.0842 412.1044 L288.1699 411.8436 L288.2072 411.6098 L287.9573 410.9248 M293.5078 430.8143 L293.5808 430.4825 L293.8213 430.1115 L294.2645 429.0289 L294.5037 428.566 L294.7677 428.3084 L295.0457 428.2535 L295.3921 428.4691 L296.1418 429.0616 L297.2917 430.0066 L297.9888 430.4441 L298.5206 430.7969 L300.1038 431.8303 L300.6159 432.1536 L301.151 432.4696 L301.5426 432.6456 L302.3187 433.2006 L302.5411 433.203 L302.7138 433.3657 L302.7821 433.6301 L302.3607 434.7873 L302.1427 434.8955 L301.8434 434.8523 L301.6661 434.6521 L301.567 434.4689 L301.5856 434.2299 L301.4238 433.9764 L301.1911 433.8065 L300.8574 433.7702 L300.6607 433.6995 L300.5149 433.4521 L300.6573 432.9701 L300.8571 432.5475 L300.5387 432.3348 L300.3428 432.6384 L299.9627 433.4259 L299.5542 433.4505 L299.0228 433.3459 L297.4765 432.8587 L293.9207 431.2684 L293.6924 431.1408 L293.5236 430.964 L293.5078 430.8143 M302.5628 435.0913 L302.6301 434.9113 L303.1424 433.6325 L303.3599 433.5183 L303.6646 433.6834 L304.457 433.8158 L305.1971 434.0043 L305.8712 434.3276 L306.6786 434.7894 L306.6773 435.1151 L306.0912 436.1254 L305.997 436.2877 L305.6481 436.3066 L305.3146 436.1775 L304.9595 435.9486 L304.3773 435.5926 L303.7094 435.5433 L303.0728 435.5115 L302.6521 435.3843 L302.5628 435.0913 M303.917 419.5559 L304.0607 419.1675 L304.2652 418.8942 L304.5256 418.7392 L304.894 418.7481 L305.3359 418.8329 L305.8225 419.0702 L306.0788 419.1893 L306.7081 419.3972 L307.3116 419.5458 L307.6962 419.5272 L307.9 419.4194 L308.2352 418.9669 L308.449 418.784 L308.9701 418.5329 L309.3807 418.5402 L309.7377 418.5099 L310.1094 418.6205 L310.3173 418.824 L310.337 418.8825 L310.6658 419.5615 L310.8452 419.7771 L311.0442 419.8364 L311.2239 419.7625 L311.4434 419.6523 L312.0826 418.9431 L312.2374 418.9269 L312.4217 418.9839 L312.5322 419.2059 L312.4315 419.4973 L312.1444 419.7795 L311.7916 420.1993 L311.4636 420.4746 L311.6909 420.9433 L311.541 421.156 L310.922 421.2831 L310.5091 420.3228 L310.1576 420.3378 L310.0245 420.2134 L309.9482 419.589 L309.6088 419.5054 L309.1832 419.4731 L308.8772 419.4687 L308.5301 419.5962 L308.463 419.859 L308.4071 420.2296 L308.4879 420.3781 L308.7299 420.3701 L308.8684 420.4633 L309.0375 420.6401 L309.0664 420.9182 L308.9272 421.1346 L308.2507 421.4539 L307.5624 421.7462 L307.1653 421.7902 L306.653 421.6941 L306.493 421.3829 L306.428 421.1734 L306.6051 420.955 L306.9292 420.7495 L307.1027 420.5634 L307.1588 420.4044 L307.0882 420.2841 L307.0501 420.1274 L306.9903 419.9688 L306.8106 419.8207 L306.2637 419.7759 L305.9517 419.8885 L305.441 420.0516 L305.0537 420.3842 L304.8334 420.4367 L304.4461 420.28 L304.0488 419.9963 L303.9695 419.853 L303.917 419.5559 M304.2411 439.9789 L304.2502 439.507 L304.3009 438.9839 L304.3255 438.6602 L304.5437 438.3817 L304.8018 438.2053 L305.1112 438.0753 L305.7545 437.8566 L306.127 437.9256 L306.7488 438.1197 L307.3385 438.9791 L307.5057 439.4021 L307.777 439.5308 L308.0535 439.5018 L308.3595 439.6963 L309.5479 442.093 L309.9973 443.1913 L309.3768 442.8954 L308.4941 442.4188 L307.8461 442.0466 L307.5518 441.9046 L307.5319 441.712 L307.6724 441.4142 L307.5376 441.2713 L307.229 441.2414 L307.0317 441.6567 L305.4187 441.0259 L304.5 440.4733 L304.2613 440.2428 L304.2411 439.9789 M334.1106 388.124 L334.8062 386.7266 L335.1241 386.4771 L335.2484 386.2264 L335.2184 386.1428 L335.055 385.8142 L335.0014 385.7116 L334.9691 385.6066 L335.7617 384.5505 L336.1852 384.7495 L336.1951 385.1654 L336.3828 385.2594 L336.5743 385.3854 L336.9023 385.2699 L337.3427 385.1428 L337.6259 385.3729 L337.5953 385.7011 L337.4946 385.8251 L337.3463 385.9543 L337.2559 386.1751 L337.1798 386.3778 L336.9704 386.5462 L336.8311 386.6095 L336.7762 386.8586 L336.7263 387.1566 L336.6282 387.459 L336.3659 387.5842 L336.031 387.6354 L335.6043 387.5825 L335.1529 387.7598 L334.7959 388.2192 L334.5877 388.2414 L334.1106 388.124 M335.501 397.7322 L335.6212 397.0277 L336.1006 396.7399 L336.4798 395.8392 L336.7105 395.7245 L337.0486 395.6676 L337.287 395.6858 L337.6191 395.7807 L337.6605 395.9712 L337.5995 396.4226 L337.565 396.7217 L337.4418 397.0738 L337.2557 397.4549 L337.1542 397.9833 L337.0292 398.4928 L337.0545 398.7383 L337.3064 398.7815 L337.4628 398.36 L337.63 397.7988 L337.739 397.517 L337.8197 397.2946 L338.0297 398.0726 L338.2691 399.339 L338.5868 399.5005 L338.7501 399.4181 L338.8923 399.3386 L339.003 399.3701 L339.1449 399.7011 L339.1069 400.1593 L338.9119 400.3527 L338.6445 400.4674 L338.3416 400.3002 L338.0898 400.2574 L337.9158 400.2974 L337.8068 400.3346 L337.5057 400.2748 L337.5347 399.8885 L337.5329 399.6628 L337.1493 399.2284 L336.8586 399.2332 L336.7501 399.5183 L336.6375 399.7306 L336.6825 399.9522 L336.8073 400.2784 L336.8798 400.5191 L336.9518 400.687 L336.965 400.813 L337.0009 400.9482 L337.1878 400.9615 L337.4276 401.0273 L337.5728 401.5485 L337.4612 401.6991 L337.323 401.9106 L337.1715 402.0285 L337.2505 402.2283 L337.3911 402.4581 L337.4195 402.7326 L337.4542 402.8565 L337.6473 402.9276 L337.7998 402.7144 L337.9823 402.4766 L338.0067 402.1856 L338.0967 401.9316 L338.3836 401.8214 L338.6101 401.7895 L338.5865 402.1811 L338.1705 403.7596 L337.8798 404.1657 L337.7165 404.2477 L337.1446 404.3292 L336.7172 404.3522 L336.6124 404.1706 L336.6124 403.9627 L336.7791 403.781 L337.016 403.6433 L337.1899 403.4278 L337.4226 403.1117 L337.0799 403.0345 L336.6887 403.0168 L336.4822 402.9219 L336.2448 402.8775 L335.9929 402.871 L335.8264 402.714 L335.9116 402.2942 L336.4534 402.1294 L336.6113 401.7887 L336.5163 401.4956 L336.1964 401.3131 L335.8899 401.2586 L335.7949 400.966 L336.1464 400.6264 L336.3659 400.2574 L336.3639 399.8255 L336.1795 399.4989 L335.8104 399.2562 L335.5083 398.834 L335.501 397.7322 M337.4382 407.8765 L337.5637 407.4308 L337.5373 406.7635 L337.8063 406.3925 L338.1506 405.7357 L338.4053 404.5755 L338.5635 404.0608 L338.6233 403.5715 L338.7299 403.1496 L338.7266 402.9118 L338.6774 402.8521 L338.7804 402.6038 L339.1175 402.4383 L339.2578 402.2994 L339.3246 402.0495 L339.534 401.7899 L339.7442 401.7459 L339.8314 401.7584 L340.0665 401.9502 L340.2117 402.108 L340.2666 402.0156 L340.3072 401.5792 L339.9303 401.0564 L339.7828 400.8771 L339.8221 400.6353 L340.1713 400.2744 L340.1848 399.9918 L340.1338 399.5001 L340.1542 398.8711 L340.2335 398.7076 L340.2358 398.664 L340.7714 398.9159 L340.9034 399.9086 L341.1983 400.1307 L341.578 400.1117 L342.2079 400.3144 L342.5276 400.6943 L343.5162 401.2768 L343.7357 401.6733 L342.8496 404.7055 L342.4453 406.4394 L342.1235 407.0897 L342.3101 407.099 L342.723 406.556 L342.9537 404.7878 L343.7189 402.7334 L343.9672 401.5542 L344.6058 401.2009 L345.1877 401.3244 L345.8523 402.4084 L346.0733 403.5089 L346.1179 403.9312 L345.9936 404.6231 L344.8126 405.9238 L343.8665 406.9149 L343.0306 407.3251 L342.3073 407.298 L341.7996 407.7917 L341.0497 407.275 L339.6277 407.2637 L341.5933 408.5656 L341.0093 408.7348 L340.5237 408.6129 L340.3323 408.6326 L340.1801 408.8216 L340.1832 409.0593 L340.4214 409.3153 L340.6559 409.4873 L340.7906 409.7307 L340.7131 410.0197 L340.5094 410.1275 L340.1975 409.8142 L339.7043 409.4118 L339.3857 409.0347 L338.7602 408.6028 L337.9168 408.3452 L337.5252 408.2996 L337.4436 408.1353 L337.4382 407.8765 M339.0603 124.1886 L340.0264 123.5106 L340.5117 123.7386 L341.6228 119.9677 L341.6668 119.9111 L343.3495 121.5283 L344.2377 123.2045 L346.481 125.8138 L347.7179 126.4473 L348.1192 127.5716 L349.8404 128.2892 L352.1407 128.9591 L355.4517 128.7529 L355.7416 129.6868 L356.029 130.6207 L349.7835 130.313 L341.0942 125.65 L339.9189 125.4867 L339.1729 124.5621 L339.0603 124.1886 M340.301 388.9209 L340.4613 388.6016 L341.6213 387.3556 L341.7781 387.2095 L341.9438 387.1489 L341.9863 387.1445 L342.1631 387.1909 L342.6169 387.5058 L342.8201 387.7016 L341.8121 388.3327 L341.503 388.4744 L341.3515 388.629 L341.4279 388.8361 L341.6992 389.0303 L342.0285 389.0836 L342.2669 389.0659 L342.4714 388.9678 L342.6989 388.8127 L343.0616 388.5192 L343.2566 388.4001 L343.4978 388.3751 L343.7593 388.4389 L343.9915 388.7465 L344.2529 388.9855 L344.8414 389.187 L345.4792 389.2661 L345.5261 389.3998 L345.3104 389.8459 L344.0743 392.0244 L343.5385 392.0975 L343.5297 392.2263 L343.9462 392.2852 L343.7039 392.7067 L343.5429 392.9732 L343.5483 392.9768 L343.3997 393.2352 L343.3855 393.238 L343.3676 393.2271 L343.139 393.2844 L342.8636 392.7366 L342.9304 392.4891 L343.0785 392.368 L343.2622 392.3207 L343.262 392.1597 L343.0456 392.1043 L342.9037 391.8754 L342.7106 391.611 L342.6324 391.2577 L342.2783 390.8891 L342.0057 390.856 L341.7095 390.8794 L340.622 389.8003 L340.301 388.9209 M341.8356 198.5635 L341.8737 198.2313 L342.0872 197.9371 L342.7215 198.1497 L348.0244 199.9372 L352.9347 201.6915 L352.9841 202.5228 L352.7048 202.8679 L351.6849 202.5099 L346.6454 200.5834 L342.0334 199.021 L341.8356 198.5635 M342.4872 338.3652 L344.8893 337.3516 L345.1968 337.3193 L345.4184 337.3936 L345.8626 337.7381 L345.9863 337.8834 L346.0617 337.9715 L346.1588 338.1564 L346.1942 338.3091 L346.1888 338.4565 L345.4329 341.6387 L345.284 341.6545 L345.1877 341.5563 L344.9856 341.0584 L342.7028 338.6233 L342.4872 338.3652 M348.8303 400.4823 L348.8342 400.1775 L348.835 400.1141 L348.8792 400.0822 L349.0351 399.9704 L349.2453 399.8194 L349.6923 399.01 L350.0343 398.4856 L350.4552 397.9854 L350.6706 397.6414 L351.3237 396.4347 L351.5492 396.6083 L351.9282 396.9995 L352.0595 398.2611 L352.2057 399.0459 L352.2109 399.7157 L351.848 400.3588 L351.7737 400.8856 L351.6481 401.3309 L351.6833 401.8816 L351.6274 402.0729 L351.4604 402.6421 L351.1928 403.0523 L351.184 403.066 L351.0587 403.1008 L350.8819 403.0543 L350.769 403.0014 L350.6515 402.9054 L350.5508 402.7645 L350.5073 402.5529 L350.4907 402.1872 L350.2727 401.9506 L350.0659 401.821 L349.39 401.5239 L349.0268 401.1299 L348.8769 400.7508 L348.8303 400.4823 M351.112 403.6522 L351.1746 403.4294 L351.4219 403.3349 L351.4848 403.3107 L351.7716 402.7616 L352.4845 400.5251 L352.6978 399.6373 L352.7972 399.4371 L352.9872 399.4097 L353.2363 399.6955 L353.2865 399.9716 L353.3686 400.1727 L353.2642 400.6398 L353.1527 400.9583 L353.2192 401.1589 L353.8741 401.1666 L354.1863 401.4621 L354.3774 401.9264 L354.4002 401.9813 L354.315 402.4786 L354.2329 402.6308 L354.0535 402.9635 L353.7253 403.3184 L353.9055 404.1007 L353.9326 404.219 L353.8294 404.5242 L353.6999 404.9069 L353.7791 405.303 L353.9376 405.8738 L353.8071 406.0094 L353.5081 406.1321 L353.1278 405.9888 L353.0367 405.7696 L352.9254 405.2856 L352.592 404.9311 L352.2313 404.3264 L352.1045 404.129 L352.0481 404.1019 L351.112 403.6522 M352.4053 409.6076 L352.4164 409.3492 L352.4729 409.2886 L352.5448 409.2115 L352.9603 409.092 L353.3007 409.0755 L354.717 409.4667 L355.2172 409.8607 L355.6609 410.1029 L355.826 410.3261 L356.008 410.643 L356.1861 411.4088 L356.3181 411.9691 L356.408 413.1992 L356.3678 413.7506 L355.627 414.744 L355.2663 415.0553 L355.0152 415.1663 L354.7489 415.1655 L354.3764 414.5781 L353.9847 414.1385 L353.3494 413.7768 L352.7791 412.6828 L352.8374 411.5989 L352.9471 410.6713 L352.7877 410.1881 L352.4737 409.7113 L352.4053 409.6076 M353.6368 203.0413 L353.6536 202.6994 L353.9311 201.7489 L354.068 201.5242 L356.6725 202.7451 L357.5597 203.1415 L358.0624 203.1815 L358.8085 203.3848 L359.7559 203.7202 L359.9566 203.6143 L360.3498 203.5307 L361.0301 203.5658 L361.1357 203.5319 L361.3216 203.7133 L361.5554 203.873 L361.7456 204.2051 L361.7467 204.4282 L361.6247 204.6477 L361.4277 204.7353 L361.4055 205.0029 L361.8937 205.7509 L362.3713 206.0843 L362.9838 206.3344 L363.5595 206.1974 L363.9898 205.9918 L363.9468 206.5587 L364.0428 206.9907 L364.3141 207.3237 L364.9039 207.5654 L365.55 208.2794 L365.084 208.3174 L364.4601 208.3057 L363.6584 208.0572 L363.237 207.3771 L362.3232 207.1322 L362.0728 206.9354 L362.0495 206.7794 L361.6265 206.6573 L361.2613 206.6258 L361.0431 206.4153 L360.9035 206.0891 L356.8579 204.5567 L353.7522 203.1354 L353.6368 203.0413 M370.5037 115.2115 L371.4965 115.0555 L375.7529 121.8962 L375.9488 124.6911 L373.3379 124.9009 L370.8351 123.7507 L370.5037 115.2115 M380.6499 243.4541 L380.6976 243.4267 L380.8412 243.4117 L381.074 243.3875 L382.8024 243.3346 L384.4812 243.4146 L384.9205 243.3685 L385.8245 244.8166 L384.9524 245.3604 L384.4074 245.7935 L383.4015 246.2497 L382.0095 246.7878 L381.8099 246.8719 L380.8537 244.3277 L380.6499 243.4541 M385.1284 243.3382 L385.6806 243.2537 L386.1978 243.2546 L386.6376 243.457 L386.8046 243.6622 L387.3826 244.0036 L386.7329 244.4804 L386.1569 244.7196 L385.4517 243.6101 L385.1284 243.3382 M401.0285 324.4452 L401.0461 323.9807 L401.1823 323.4662 L401.3003 323.2558 L401.4745 323.1282 L401.6645 323.0534 L401.8685 323.0458 L402.2496 323.2223 L403.1077 323.2227 L403.3601 323.1423 L403.6056 323.0401 L403.7645 322.8757 L403.815 322.7202 L404.2768 323.1241 L405.6229 322.3345 L405.3599 321.2271 L405.4738 321.1161 L406.1031 320.9638 L406.8096 320.9335 L407.2629 320.9509 L408.2044 321.1124 L409.6287 321.7857 L410.7147 322.0942 L411.2011 322.1564 L411.4822 322.2412 L412.3611 323.2529 L412.7056 324.0478 L412.7937 324.3503 L412.8056 324.6342 L412.8356 324.7174 L412.8537 324.929 L411.9246 325.6778 L411.8185 325.6887 L410.4493 325.5506 L409.0985 325.387 L408.4785 325.4892 L408.0527 325.4544 L407.9375 325.3797 L407.8311 325.391 L407.7718 325.4403 L407.5601 325.6786 L407.3028 326.7222 L406.8614 327.0279 L405.4083 327.1147 L404.4176 327.3045 L404.1197 327.3356 L404.0516 327.2993 L403.3589 327.0473 L403.1606 327.0033 L403.0182 326.9495 L402.7702 326.9394 L402.6112 326.9984 L402.4171 326.9431 L402.3865 326.7387 L402.5359 326.3284 L402.3645 326.1931 L401.6335 326.1943 L401.5483 326.0994 L401.5535 325.9665 L401.693 325.6782 L401.9716 325.5518 L402.231 325.5522 L402.4189 325.5025 L402.3982 325.2614 L402.2856 325.2145 L401.7761 325.2658 L401.5804 325.2428 L401.3888 325.263 L401.3653 325.2436 L401.2568 325.2335 L401.1885 325.1972 L401.1372 325.116 L401.0285 324.4452 M401.1018 331.0313 L401.2058 330.9461 L401.4119 330.8597 L402.233 331.2321 L402.4821 331.291 L403.2765 331.4223 L404.3105 331.9857 L404.7166 332.2352 L405.1583 332.4376 L405.5678 332.4695 L405.9411 332.5696 L406.9308 333.4852 L407.783 334.2395 L407.7503 334.5461 L407.6817 334.9208 L407.0623 335.3748 L406.7485 335.6671 L406.6556 335.8065 L406.6411 335.8731 L406.654 336.0653 L407.0327 336.386 L407.2738 336.5015 L407.4267 336.7192 L407.3232 336.9292 L407.2197 337.0976 L407.2261 337.1618 L407.2137 337.2494 L407.1347 337.4356 L407.1055 337.8503 L406.8549 337.9359 L406.602 337.9836 L406.3299 338.0555 L406.2556 338.3519 L406.2432 338.6996 L406.3149 338.8587 L406.5018 338.9883 L406.7208 339.0315 L407.0188 339.0485 L407.5065 339.1317 L407.5458 339.418 L407.4493 340.0036 L407.3812 340.6465 L407.0778 341.5834 L406.9243 341.6532 L406.7863 341.5963 L406.5368 341.5406 L405.7058 340.953 L405.4158 340.8262 L405.3058 340.9578 L405.2975 341.1061 L405.4218 341.2385 L405.6118 341.2882 L406.6468 341.9371 L407.1161 342.6527 L407.236 343.8081 L407.2717 344.2935 L406.9471 344.9574 L406.8042 345.0834 L406.3278 345.3337 L405.9758 345.3083 L404.8373 344.8249 L404.3413 344.3904 L403.3972 341.8095 L403.4135 341.014 L403.5701 340.052 L403.3772 339.2286 L403.2991 338.9585 L402.7083 337.9638 L402.1002 335.9264 L402.2698 335.821 L402.5266 335.7984 L402.8126 335.9983 L403.0984 336.1756 L403.7127 336.453 L404.0392 336.7002 L404.4207 336.8553 L404.4712 336.72 L403.4973 336.0367 L402.8416 335.6906 L402.3353 335.0347 L402.5315 333.9811 L402.7295 334.0251 L403.5005 334.6151 L404.3684 335.1086 L404.4112 334.962 L401.6011 332.2675 L401.5944 332.2033 L401.6361 331.9828 L401.6293 331.9186 L401.3803 331.5119 L401.1292 331.1969 L401.1018 331.0313 M409.4881 342.0765 L409.578 341.6997 L410.0419 341.1969 L410.6756 341.0156 L410.877 340.9583 L412.1817 341.5143 L414.1507 342.6717 L416.1779 343.9741 L418.094 345.2449 L418.1813 345.2574 L418.224 345.253 L418.2341 345.1439 L416.7049 343.8759 L414.0593 342.2053 L413.3054 341.5701 L413.2309 341.0588 L413.4315 340.7135 L413.5299 340.6404 L413.7709 340.4619 L414.1175 340.4042 L414.4686 340.3456 L415.5126 340.6695 L418.0979 342.381 L418.7467 342.8324 L419.7612 343.6999 L421.3108 345.7876 L422.5751 348.0801 L422.8306 348.0918 L422.871 347.9041 L421.2209 344.9441 L420.6887 344.3722 L419.4244 342.7525 L418.449 342.0538 L416.8043 341.1222 L415.1305 340.3234 L415.1043 340.3141 L415.5092 340.1688 L416.0751 339.9656 L417.5056 339.0307 L418.8075 339.2912 L420.4184 340.3129 L421.9033 341.7801 L423.1972 343.2674 L423.8169 344.8899 L425.2363 346.7621 L428.007 349.8472 L428.9169 351.158 L429.903 352.3747 L431.3594 353.8341 L432.7974 355.4727 L433.8424 356.4204 L428.2679 357.0015 L428.0569 357.1667 L428.7857 361.2628 L427.0414 359.0924 L426.2487 358.2884 L425.178 356.67 L423.9189 355.4731 L422.9321 355.0786 L422.0959 355.1008 L421.289 354.9906 L420.326 354.204 L419.8709 353.7541 L419.2121 351.9628 L416.9144 347.7603 L414.2545 345.7448 L411.8449 344.0714 L410.3365 343.4156 L409.8521 343.0986 L409.6699 342.7799 L409.5368 342.5473 L409.4881 342.0765 M417.1637 337.436 L417.2152 337.1606 L417.4795 336.8302 L417.8559 336.4587 L418.4888 336.0678 L419.0019 336.2769 L419.3902 336.0904 L419.4464 336.0136 L419.4855 335.9603 L420.0006 336.2204 L421.0535 336.8952 L421.6602 337.4126 L421.9401 337.6169 L422.1656 337.8269 L422.6147 337.9808 L423.1394 338.3717 L423.404 338.0446 L422.8127 337.6427 L422.23 337.3237 L421.6613 336.8613 L421.0286 336.3759 L420.6626 336.1804 L420.2243 335.8501 L419.8018 335.4273 L419.4873 335.2007 L419.173 335.0371 L419.1911 335.0097 L419.2973 334.8506 L419.4246 334.6591 L419.7516 334.0223 L420.0861 333.234 L420.2497 332.9824 L420.385 332.774 L420.312 332.3443 L420.9455 332.4271 L421.9018 332.5991 L422.5313 332.8717 L422.8298 333.1346 L422.8684 333.2287 L423.026 333.614 L423.2904 334.5037 L424.1798 336.7507 L424.9225 339.0489 L425.0284 339.4487 L425.0483 339.6413 L424.7424 339.4746 L424.5575 339.2936 L424.4185 339.1579 L424.213 338.8619 L423.8896 338.5158 L423.6334 338.3967 L423.4514 338.5033 L423.5738 338.8409 L424.0716 339.4277 L424.3082 339.7791 L424.5715 340.0726 L424.9295 340.43 L424.9728 340.4732 L425.0556 340.6525 L426.0173 342.7933 L426.5066 344.0936 L427.4781 345.2287 L428.1098 345.7364 L428.57 346.0227 L428.7178 346.1155 L429.3047 346.2294 L429.6487 346.1499 L429.8274 346.1087 L430.0078 345.8692 L430.2887 345.6903 L430.5843 345.5453 L430.7616 345.5042 L430.9995 345.6188 L431.7958 346.525 L432.4741 346.1842 L434.603 347.2362 L436.3452 348.6277 L437.0833 348.7258 L437.4638 348.6156 L437.8518 348.6604 L438.0781 349.0033 L438.8112 349.4184 L439.2824 350.0661 L439.9445 351.1156 L440.1625 350.9844 L439.9135 350.5927 L439.9034 350.438 L439.8998 350.3851 L440.2922 350.2975 L440.5368 350.3496 L440.716 350.5192 L441.1444 350.6496 L441.3013 350.7716 L441.8874 351.2513 L442.1703 351.5574 L442.4284 351.7314 L442.5755 351.851 L442.5946 351.8699 L442.8677 352.1417 L443.0932 352.4906 L443.429 352.747 L443.7173 353.0382 L443.9115 353.6297 L443.9325 353.954 L443.9526 354.2661 L443.8745 355.0019 L443.7057 355.3831 L443.4251 355.5054 L443.1248 355.4654 L442.905 355.3132 L442.766 355.0944 L442.512 354.8577 L442.1444 354.3998 L441.599 353.3507 L441.3525 352.9384 L441.1579 352.466 L440.7789 351.8631 L440.4193 351.2033 L440.1511 351.1439 L440.0911 351.4092 L440.2832 351.8562 L440.5614 352.2944 L440.811 352.7357 L441.0523 353.3786 L441.469 354.0651 L441.6813 354.6013 L441.4721 354.9369 L441.1568 355.2325 L440.6155 355.3475 L440.4361 355.7081 L440.5633 355.9855 L440.7168 356.1374 L440.8364 356.2286 L441.1045 356.2008 L441.4571 356.0776 L441.6823 355.9678 L441.9174 355.7485 L442.0823 355.4719 L442.1708 355.2894 L442.2653 355.182 L442.3725 355.2203 L442.46 355.3047 L442.6875 355.7114 L442.9438 355.9012 L443.2175 356.0106 L443.225 356.6086 L442.9519 357.5022 L442.8051 357.5959 L441.7603 357.3989 L441.7132 357.247 L440.8149 356.6042 L440.4791 356.5953 L440.3209 356.7229 L440.1382 356.6934 L439.8791 356.7403 L439.732 356.506 L439.4027 356.1757 L439.5656 355.9415 L439.6696 355.738 L439.6171 355.5099 L439.491 355.2244 L439.2459 355.1053 L439.1648 355.0661 L438.8821 355.0907 L438.5122 355.2454 L438.2018 355.3068 L438.0082 355.1226 L437.9235 354.8686 L437.8244 354.4737 L437.7915 354.1559 L437.6494 353.908 L437.515 353.4549 L437.1886 353.1129 L436.7014 352.346 L436.0677 351.7444 L435.7501 351.4197 L434.4068 349.5177 L434.1741 349.6025 L431.9926 346.9826 L431.8776 347.1732 L432.7262 348.0559 L434.0892 349.754 L434.0488 349.8295 L434.2194 350.0039 L435.5313 351.5227 L435.7444 352.0662 L435.6434 352.3577 L435.871 352.7708 L436.2274 353.1109 L435.8741 353.2829 L435.7798 354.6578 L436.0775 355.0027 L436.1966 355.4844 L436.2305 355.8103 L436.114 356.1959 L435.7413 356.4281 L435.4777 356.204 L435.2859 355.7566 L434.7182 355.0568 L434.4751 354.6768 L434.318 354.2843 L434.0426 353.8753 L433.5864 353.3717 L433.1492 352.804 L432.8538 352.4845 L432.3822 351.8655 L432.2082 351.5917 L432.0091 351.3204 L431.6801 351.238 L431.5253 351.4294 L431.7311 351.729 L432.121 352.1554 L432.4249 352.5584 L432.8442 352.9526 L432.9348 353.2643 L433.4233 353.7646 L433.8378 354.3929 L433.9884 354.7568 L434.4283 355.3496 L434.7146 355.5826 L434.9504 356.1713 L435.2341 356.6635 L435.1881 356.9163 L434.8368 356.4091 L434.4353 356.013 L433.9157 355.6367 L433.6584 355.7509 L433.4298 355.5119 L433.0889 355.314 L432.794 354.9978 L432.4702 354.6813 L432.1588 354.4511 L431.8864 354.0707 L431.6949 353.6269 L431.1339 353.1306 L430.5364 352.4228 L429.7305 351.5324 L429.0588 350.5293 L428.5105 349.6631 L427.6412 348.8821 L426.6829 347.8439 L425.5764 346.7504 L425.1382 345.9427 L424.6619 344.9473 L424.2179 343.9054 L423.8606 342.87 L423.0569 341.6835 L422.4262 340.9716 L421.535 339.9184 L420.543 339.2395 L418.4761 338.4593 L417.5758 337.9844 L417.2196 337.5103 L417.1637 337.436 M427.3435 330.6582 L427.4631 330.4025 L427.9933 330.2386 L428.1755 330.3872 L428.4051 330.5475 L428.6171 330.8185 L429.1437 331.0689 L429.7396 331.8673 L430.1486 332.0777 L430.4204 332.1839 L430.4611 332.3322 L430.6612 332.7744 L430.641 332.9246 L430.8773 333.8531 L431.458 334.5796 L431.5996 335.101 L431.8491 335.4111 L432.2434 336.1295 L432.3042 336.3933 L432.3335 336.7854 L432.3757 337.2498 L433.5383 338.5066 L434.0814 339.4976 L435.2295 340.7761 L435.952 341.3213 L436.2453 341.4109 L436.6155 341.7522 L437.1751 342.3398 L437.6088 342.6269 L437.8601 342.7686 L438.1972 343.0388 L438.5081 343.2266 L438.8449 343.5601 L438.9417 343.7217 L438.899 343.9414 L438.8374 344.1194 L438.3139 344.287 L438.0305 344.3335 L437.2991 343.9938 L437.1878 343.8388 L436.2883 343.2318 L436.3628 342.9871 L436.2606 342.8219 L435.9968 342.7 L435.865 342.553 L435.7221 342.6059 L435.5135 342.5271 L434.5921 341.5345 L433.8826 340.7293 L433.2903 340.2132 L432.9193 339.6991 L432.787 339.1252 L431.7862 338.473 L431.3586 337.9315 L430.7484 336.2422 L430.4308 335.8675 L430.3045 335.6171 L430.211 335.2362 L430.0161 334.7678 L429.6397 334.2791 L428.8838 333.2315 L428.6345 332.839 L428.3448 332.5846 L427.7062 331.3783 L427.5257 331.1396 L427.409 330.9276 L427.3435 330.6582 M443.4422 345.9504 L444.0482 345.341 L444.3459 345.0002 L444.9169 345.4654 L445.9584 345.8813 L446.6576 345.9754 L446.6892 346.9369 L446.3933 347.9824 L447.0301 351.9164 L446.6045 352.0957 L444.3813 348.4476 L443.9625 347.4958 L444.0337 347.1295 L444.2364 346.6595 L443.4422 345.9504" stroke-dasharray="" fill="none" fill-opacity="1.0" stroke="#ff0000" stroke-opacity="1.0" stroke-width="1.0px" stroke-linecap="butt" stroke-linejoin="miter" stroke-dashoffset="0.0px"/>
</g>
</svg>