<?xml version="1.0" standalone="no"?>
<!DOCTYPE svg PUBLIC "-//W3C//DTD SVG 1.1//EN" "http://www.w3.org/Graphics/SVG/1.1/DTD/svg11.dtd">
<svg width="512px" height="512px" version="1.1" xmlns="http://www.w3.org/2000/svg" xmlns:inkscape="http://www.inkscape.org/namespaces/inkscape">
<g id="layer" inkscape:groupmode="layer" inkscape:label="layer">
<path d="M2.8952 217.8684 L217.6975 512.0 L509.1048 293.1208 L294.3025 0.0 L2.8952 217.8684 M36.3859 234.0517 L37.2841 223.128 L39.5938 212.6088 L43.1867 202.4942 L48.191 192.7842 L54.3502 183.8834 L61.536 175.7917 L69.7483 168.9138 L78.8587 163.0473 L88.6108 158.3946 L98.8762 155.1579 L109.5264 153.135 L120.305 152.5281 L131.0837 153.5396 L141.6056 155.7648 L151.7426 159.4061 L161.3664 164.2611 L170.2203 170.5321 L178.1759 177.8146 L185.2333 186.1086 L191.0076 195.2117 L195.627 204.9217 L198.9632 215.2386 L200.888 225.7577 L201.4012 236.6815 L200.503 247.403 L198.3216 257.9221 L194.6004 268.239 L189.7244 277.7467 L183.5652 286.6475 L176.2511 294.7392 L168.0389 301.8194 L159.0567 307.6858 L149.3046 312.3385 L139.0393 315.5752 L128.389 317.5981 L117.6104 318.0027 L106.8318 317.1935 L96.3098 314.766 L86.1728 311.1248 L76.549 306.2698 L67.6952 300.201 L59.6112 292.9186 L52.6821 284.6246 L46.7796 275.5215 L42.1602 265.8115 L38.9522 255.4946 L36.8992 244.7732 L36.3859 234.0517 M156.1054 400.3353 L156.3621 389.6138 L158.0302 378.8924 L160.9815 368.5755 L165.4725 358.6633 L171.1185 349.3579 L177.9193 341.0639 L185.8749 333.7814 L194.6004 327.5104 L204.2242 322.4531 L214.3612 318.8119 L224.8832 316.3844 L235.5335 315.5752 L246.3121 316.1821 L256.9624 318.205 L267.2277 321.6439 L276.8515 326.2966 L285.8336 332.3654 L293.9176 339.4456 L300.975 347.5372 L306.8776 356.6404 L311.6253 366.3503 L314.9615 376.6672 L316.8863 387.1863 L317.3996 398.1101 L316.5013 408.8315 L314.1916 419.3507 L310.4705 429.4652 L305.3378 438.9729 L299.0503 447.8737 L291.7362 455.7631 L283.3956 462.641 L274.1568 468.1028 L264.2764 472.5532 L253.8828 475.5876 L243.2325 477.2059 L232.4539 477.4082 L221.8036 475.9922 L211.4099 473.3624 L201.4012 469.3166 L192.0341 463.8547 L183.4369 457.3814 L175.8662 449.6943 L169.322 440.9958 L164.0611 431.6904 L159.9549 421.5759 L157.3886 411.0567 L156.1054 400.3353 M194.0872 117.1271 L194.9854 106.2033 L197.2951 95.4818 L200.888 85.3672 L205.8923 75.4549 L212.1798 66.5541 L219.4939 58.4624 L227.7062 51.3822 L236.945 45.5157 L246.8254 40.6607 L257.219 37.424 L267.8693 35.4011 L278.7762 34.9965 L289.6831 35.8057 L300.3334 38.0309 L310.5988 41.8745 L320.3508 46.7295 L329.333 53.0005 L337.417 60.283 L344.4744 68.7793 L350.377 77.8824 L354.9964 87.7947 L358.3326 98.1116 L360.3857 109.0354 L360.8989 119.9592 L360.0007 130.8829 L357.691 141.4021 L353.9698 151.719 L348.9655 161.6313 L342.8063 170.5321 L335.4922 178.6238 L327.1516 185.704 L318.0411 191.5705 L308.1608 196.2232 L297.7671 199.6621 L286.9885 201.685 L276.0816 202.0896 L265.1746 201.2805 L254.5244 199.0552 L244.259 195.2117 L234.6353 190.3567 L225.6531 184.0857 L217.5691 176.8032 L210.5117 168.3069 L204.6091 159.2038 L199.8614 149.2915 L196.5252 138.7723 L194.6004 128.0508 L194.0872 117.1271 M306.8776 270.8688 L307.6475 259.945 L309.9572 249.2236 L313.6784 238.9067 L318.6827 229.1967 L324.8419 220.2959 L332.156 212.2042 L340.4966 205.124 L349.7354 199.0552 L359.6158 194.4025 L369.8811 191.1659 L380.6597 189.143 L391.5666 188.5361 L402.4736 189.5475 L413.1238 191.7727 L423.3892 195.6163 L433.1413 200.4713 L442.1234 206.7423 L450.2074 214.0248 L457.2648 222.5211 L463.1674 231.6242 L467.7868 241.5365 L471.123 251.8534 L473.0478 262.7771 L473.6893 273.7009 L472.7911 284.6246 L470.4814 295.1438 L466.7602 305.4606 L461.7559 315.1706 L455.5967 324.2737 L448.2826 332.3654 L439.942 339.4456 L430.7032 345.312 L420.8229 349.9647 L410.5575 353.4037 L399.7789 355.4266 L388.872 355.8312 L377.9651 355.022 L367.3148 352.5945 L357.0494 348.9533 L347.2974 344.0983 L338.3152 337.8273 L330.2312 330.3425 L323.1738 322.0485 L317.2712 312.9454 L312.6518 303.0331 L309.3156 292.514 L307.3909 281.7925 L306.8776 270.8688" stroke-dasharray="" fill="none" fill-opacity="1.0" stroke="#ff0000" stroke-opacity="1.0" stroke-width="1.0px" stroke-linecap="butt" stroke-linejoin="miter" stroke-dashoffset="0.0px"/>
</g>
</svg>