<?xml version="1.0" standalone="no"?>
<!DOCTYPE svg PUBLIC "-//W3C//DTD SVG 1.1//EN" "http://www.w3.org/Graphics/SVG/1.1/DTD/svg11.dtd">
<svg width="512px" height="512px" version="1.1" xmlns="http://www.w3.org/2000/svg" xmlns:inkscape="http://www.inkscape.org/namespaces/inkscape">
<g id="layer" inkscape:groupmode="layer" inkscape:label="layer">
<path d="M0.0 278.9197 L4.6014 282.4027 L6.362 294.531 L8.1225 306.7836 L4.7215 311.324 L7.2823 313.563 L9.483 311.0752 L19.4061 318.1034 L17.4855 320.9644 L20.1663 322.8303 L33.8906 320.7156 L38.0919 348.704 L31.0097 349.7613 L31.89 355.7321 L39.0122 354.6748 L41.2129 369.6641 L34.0907 370.7214 L34.9309 376.6923 L40.1726 377.4386 L40.7327 381.1082 L44.0538 380.6106 L44.9741 387.3278 L48.3351 386.8302 L47.3748 380.1752 L73.663 376.5679 L74.5833 383.2229 L79.2248 382.6009 L78.3045 375.8837 L100.2713 372.8983 L101.1516 379.5533 L105.753 378.9313 L104.8328 372.2763 L126.9597 369.2287 L127.88 375.8837 L132.5214 375.2617 L131.6411 368.6068 L153.728 365.5591 L154.6883 372.2141 L159.3298 371.53 L158.3695 364.875 L180.2163 361.9518 L181.0966 368.5446 L186.0181 367.9226 L185.1379 361.2676 L206.7846 358.22 L207.6649 364.875 L212.3063 364.253 L211.4261 357.598 L232.2726 354.737 L233.1929 361.392 L237.9544 360.7078 L237.0741 354.0528 L260.3214 350.8808 L261.2817 357.5358 L265.8031 356.9139 L264.8428 350.1967 L286.5295 347.2734 L288.2101 367.1762 L410.7284 353.4931 L406.0469 320.2181 L424.3726 317.5436 L425.0928 322.7681 L429.2942 321.8974 L428.814 317.1082 L443.4586 314.807 L446.1394 319.0363 L449.9006 316.6729 L447.3398 312.6301 L452.0213 305.2909 L458.7434 309.2093 L461.4242 313.2521 L463.985 309.4581 L475.5486 302.6787 L480.5102 302.2433 L478.2294 297.8896 L478.2695 289.8662 L483.5511 289.6796 L485.7518 293.9712 L489.753 291.7943 L487.6724 287.565 L494.0744 278.6087 L498.7559 279.6038 L499.7562 275.1879 L495.1547 274.2549 L493.7543 268.4707 L501.5967 266.356 L506.4383 267.3511 L505.478 262.4998 L508.679 250.2471 L512.0 245.9556 L507.1185 244.525 L501.5167 239.1139 L504.9578 234.8846 L509.8393 236.3773 L511.2798 232.2101 L506.5183 230.593 L505.3979 219.7086 L509.5592 216.972 L507.2385 213.3024 L503.1572 216.1634 L497.7155 212.8048 L501.5967 206.1498 L505.9181 203.2266 L501.7968 200.4277 L495.5949 189.6055 L495.3948 184.7542 L490.4733 186.931 L482.7108 186.6201 L482.7909 181.5199 L487.4323 179.0943 L485.3517 175.0515 L480.7902 177.2906 L471.9075 170.2002 L473.1479 165.1622 L468.7865 164.1671 L467.4661 169.0806 L461.9844 170.3867 L459.8237 162.9232 L460.784 158.134 L456.2226 158.8804 L443.4986 155.6461 L439.4573 152.3497 L437.9769 157.0767 L432.9353 162.7366 L427.0535 157.3877 L428.5339 152.5985 L424.5327 151.2302 L422.8121 155.2108 L407.6874 157.2633 L406.8071 152.4119 L402.2857 152.7851 L402.9659 158.0096 L383.7999 160.3731 L379.9187 131.8248 L383.5198 127.3467 L379.9987 124.6722 L376.2376 129.3991 L347.7487 133.6907 L257.5205 149.7997 L260.7615 172.377 L254.5996 173.0612 L255.1197 178.2235 L241.3554 180.1516 L240.3951 173.2478 L234.5933 174.0564 L235.5936 181.0224 L214.9872 183.8834 L213.9869 176.9796 L208.2651 177.7881 L209.2254 184.692 L188.1788 187.6774 L187.2185 180.7114 L181.4167 181.5199 L182.377 188.4238 L161.7305 191.4092 L160.7702 184.4432 L155.0084 185.2517 L155.9687 192.1556 L135.0022 195.0788 L134.0819 188.175 L128.3201 188.9835 L129.2404 195.9496 L108.3939 198.8728 L107.4336 191.9068 L101.7118 192.7775 L102.6321 199.6813 L81.7055 202.6046 L80.7852 195.7008 L74.9834 196.4471 L75.9437 203.4131 L55.2573 206.3364 L54.257 199.4326 L48.5352 200.1789 L49.4955 207.1449 L22.2069 210.9389 L16.5252 206.9583 L13.2842 211.5609 L19.0059 215.7903 L21.6068 233.5785 L15.1647 234.5736 L16.005 240.2957 L22.447 239.4249 L25.7681 262.0644 L11.4836 263.9303 L9.563 266.5426 L12.2838 268.5329 L4.6815 278.2355 L1.9606 276.3074 L0.0 278.9197" stroke-dasharray="" fill="none" fill-opacity="1.0" stroke="#ff0000" stroke-opacity="1.0" stroke-width="1.0px" stroke-linecap="butt" stroke-linejoin="miter" stroke-dashoffset="0.0px"/>
</g>
</svg>