<?xml version="1.0" standalone="no"?>
<!DOCTYPE svg PUBLIC "-//W3C//DTD SVG 1.1//EN" "http://www.w3.org/Graphics/SVG/1.1/DTD/svg11.dtd">
<svg width="512px" height="512px" version="1.1" xmlns="http://www.w3.org/2000/svg" xmlns:inkscape="http://www.inkscape.org/namespaces/inkscape">
<g id="layer" inkscape:groupmode="layer" inkscape:label="layer">
<path d="M11.9954 119.2615 L16.3153 129.6509 L23.0431 136.9018 L31.7537 141.6636 L45.8466 142.854 L59.6561 137.01 L53.9907 148.9145 L53.7074 159.7367 L55.9028 167.5288 L59.9394 174.1303 L65.8173 179.8661 L72.5451 183.5457 L78.8479 185.169 L87.3461 185.3855 L99.9518 180.7319 L93.7906 192.7446 L92.9408 199.4544 L93.7198 207.2464 L96.2692 213.848 L100.4475 220.1249 L105.6172 224.6702 L111.2119 227.9169 L117.3023 229.7567 L125.0923 230.2978 L136.6357 227.0511 L133.2364 234.5185 L132.1033 241.5529 L132.3158 247.7216 L134.8652 256.1629 L139.6101 263.3056 L145.3463 268.2838 L150.941 271.2059 L154.836 272.5045 L161.7762 273.3703 L168.9288 272.6127 L174.0986 270.8812 L183.305 264.6043 L193.0779 274.5607 L187.7665 280.513 L184.084 288.6296 L182.8801 297.1792 L184.3672 306.1617 L188.5455 314.7112 L198.1768 323.369 L208.5163 326.8321 L218.1476 326.7239 L232.8778 319.7977 L223.7422 330.8363 L221.122 338.0872 L220.6971 348.4765 L223.7422 358.2165 L230.0451 365.9003 L237.1977 371.4196 L246.4041 374.2334 L254.9023 374.3416 L263.8962 371.6361 L271.6863 366.1168 L266.8706 373.3676 L264.8877 379.4281 L264.3212 388.7352 L266.9414 398.5834 L272.6777 406.9165 L280.0428 412.4358 L289.7449 415.6825 L299.2346 415.6825 L306.3873 413.4098 L312.4068 409.9467 L306.5997 417.0894 L303.8378 423.1498 L302.6339 428.3444 L302.2798 434.0802 L303.6962 441.6558 L307.9453 450.3135 L314.0356 456.6986 L320.6217 460.4864 L327.5619 462.6508 L322.9587 466.9797 L364.8832 512.0 L500.0046 385.705 L458.2218 340.3599 L452.4147 341.5503 L446.3951 329.9705 L435.135 320.5552 L425.9286 317.6332 L409.4988 320.1223 L400.5048 326.291 L407.5867 311.3563 L408.5073 298.045 L403.1251 286.5734 L396.2557 280.0801 L387.1202 275.9676 L379.0469 274.8854 L369.8405 276.4005 L361.838 280.4047 L366.3704 272.6127 L368.2117 261.6823 L367.7159 255.8383 L361.6256 242.9598 L354.2605 236.3582 L345.9039 232.6787 L336.91 231.7047 L324.8708 234.7349 L329.1199 225.6442 L330.1114 216.6618 L328.4826 207.8957 L325.3666 201.4024 L319.1346 194.3679 L311.7694 189.9308 L302.7047 187.7664 L293.0026 188.4157 L284.4336 191.987 L278.414 196.6406 L269.9866 186.5759 L275.5105 179.0003 L278.9097 168.8274 L279.0514 162.4423 L276.9976 153.7845 L272.4653 145.5596 L265.1002 139.1744 L257.3101 135.7113 L247.8205 134.5209 L237.8351 136.6853 L228.133 142.7458 L234.9315 132.7893 L237.1977 124.4562 L237.1977 117.2053 L235.144 109.1968 L231.1074 102.0541 L225.0878 96.3183 L217.6519 92.2058 L210.3576 90.5825 L201.7886 91.0154 L196.4772 92.4223 L186.9167 97.7252 L194.7067 85.9289 L197.0437 74.3491 L195.6982 65.0419 L192.1573 57.4663 L185.4295 50.3236 L178.4185 46.2111 L167.6541 43.9385 L158.4477 45.2371 L149.9495 49.2414 L155.0485 40.1507 L156.8897 29.5448 L155.4734 21.5363 L152.0033 12.5539 L144.0716 5.844 L136.3524 1.2987 L128.7748 0.0 L122.2596 0.1082 L115.8859 1.8398 L107.8126 6.6016 L103.0678 11.4716 L99.8101 16.3417 L97.6856 21.9692 L96.5525 28.7873 L97.9689 39.6096 L103.3511 49.2414 L95.8443 44.696 L85.8589 42.748 L75.9444 43.9385 L67.9419 47.8345 L62.1348 52.8127 L57.6732 59.4143 L55.1946 66.6653 L54.628 74.9984 L55.9736 81.9247 L59.0188 88.6345 L52.0078 84.7384 L44.9967 83.0069 L38.1274 82.8987 L31.258 84.522 L21.9808 89.8249 L15.3239 97.8334 L12.137 105.6254 L11.9954 119.2615" stroke-dasharray="" fill="none" fill-opacity="1.0" stroke="#ff0000" stroke-opacity="1.0" stroke-width="1.0px" stroke-linecap="butt" stroke-linejoin="miter" stroke-dashoffset="0.0px"/>
</g>
</svg>