<?xml version="1.0" standalone="no"?>
<!DOCTYPE svg PUBLIC "-//W3C//DTD SVG 1.1//EN" "http://www.w3.org/Graphics/SVG/1.1/DTD/svg11.dtd">
<svg width="512px" height="512px" version="1.1" xmlns="http://www.w3.org/2000/svg" xmlns:inkscape="http://www.inkscape.org/namespaces/inkscape">
<g id="layer" inkscape:groupmode="layer" inkscape:label="layer">
<path d="M0.0 320.5877 L8.495 346.7797 L8.9875 360.4373 L25.1098 393.5206 L32.1328 403.3552 L38.4832 405.9195 L36.6397 407.8451 L39.1727 408.1317 L40.4955 406.875 L42.7987 408.9916 L41.2836 411.7551 L42.8738 413.1368 L42.2081 414.2906 L43.6346 415.2556 L44.57 416.2 L48.0608 423.9976 L49.2499 425.3734 L50.6473 429.3294 L49.8466 430.287 L50.3345 432.2007 L50.7637 433.6264 L52.124 438.4253 L58.161 446.2885 L60.2095 445.6653 L63.3547 445.9931 L65.6813 447.8236 L70.1052 449.2346 L71.5546 449.311 L75.7885 445.1538 L78.1911 447.6715 L72.4703 451.9426 L72.7372 454.2317 L77.6953 454.7652 L80.5558 457.6259 L85.171 457.6642 L88.8707 453.5828 L94.9349 453.2014 L101.0756 447.9383 L112.4034 445.7263 L113.7379 439.6995 L115.9501 442.5222 L120.184 443.5518 L121.9383 441.8741 L123.3113 437.6022 L121.557 434.8177 L120.6798 431.7281 L120.7943 427.2275 L120.9467 421.5451 L122.968 423.3758 L129.7569 423.7573 L130.4057 419.8283 L134.6391 416.9298 L135.0585 419.0655 L135.5543 428.41 L135.2494 432.4535 L145.3533 427.8427 L152.7272 423.7815 L156.3537 421.5518 L161.081 417.237 L165.8896 412.1372 L167.2264 410.66 L172.1893 407.9701 L173.7982 411.5125 L179.3521 408.095 L182.6197 399.7693 L181.6234 398.1054 L179.5928 394.5392 L178.118 392.0079 L176.1441 389.1621 L175.2899 387.7171 L174.4934 386.7858 L173.3789 385.3004 L172.7695 384.5676 L172.3511 383.9759 L172.0852 383.2791 L171.829 381.6187 L171.6968 380.9359 L171.7099 380.1428 L172.0303 379.4968 L172.6471 378.8889 L173.2851 378.4486 L174.0173 378.2119 L174.7012 378.1318 L175.5751 378.0848 L175.834 377.7651 L176.7028 376.3112 L177.3609 375.3263 L177.6836 375.0411 L177.936 374.8955 L178.1794 374.9632 L179.6805 376.0929 L180.8818 376.5831 L182.4288 376.8514 L183.7211 377.0337 L185.005 377.2844 L185.7307 377.2542 L186.4155 377.0293 L187.0014 376.5354 L187.7463 376.065 L188.5592 375.8408 L189.344 375.7658 L190.6217 375.8275 L192.4422 375.3446 L193.8105 376.0995 L194.8284 375.8386 L195.9622 375.8496 L196.2779 375.8966 L196.534 375.9679 L196.7155 375.8489 L196.9684 375.5865 L197.4726 375.2072 L198.2419 374.9477 L201.3233 374.2766 L203.8943 373.6519 L206.4306 373.0962 L208.0147 373.5703 L208.5987 373.8371 L208.9707 374.1679 L208.9885 374.6111 L208.9055 375.0028 L208.6798 375.3013 L207.1929 375.546 L206.2805 375.6555 L205.6257 375.8327 L205.2176 376.0363 L204.9483 376.614 L204.1335 378.1862 L203.1879 379.5989 L202.5298 380.1664 L202.0227 381.1689 L201.5114 381.9098 L200.8683 382.5581 L200.9264 383.3122 L201.4265 383.2262 L202.7005 382.3295 L203.8952 380.9705 L204.7569 380.3398 L206.9954 379.2829 L208.6878 378.417 L209.406 378.2957 L210.1584 378.3295 L210.9844 378.661 L211.9024 379.0712 L212.3809 379.9392 L212.6844 380.8573 L213.8345 382.6507 L214.3791 384.1692 L214.9486 385.5518 L216.0659 386.7402 L216.6814 387.2996 L217.2799 388.0375 L217.461 388.8967 L217.445 389.8022 L217.3062 390.499 L215.6813 392.0631 L215.0701 392.6195 L215.0072 393.0259 L217.3081 396.1849 L217.7851 397.4542 L217.977 398.6919 L218.5009 399.873 L219.107 400.7645 L220.0259 401.95 L221.785 403.2862 L223.119 403.9234 L233.0339 399.5121 L236.8414 403.7933 L239.4852 400.91 L237.5859 396.961 L239.2422 394.0637 L238.3214 392.0645 L245.8046 385.9141 L254.5684 377.488 L259.9191 382.3942 L260.9014 373.338 L254.4094 367.4864 L255.0937 365.0674 L255.8039 364.5727 L252.4345 359.0995 L253.0959 347.581 L257.2801 348.4337 L260.7236 348.8482 L267.5806 351.471 L273.2719 354.8141 L274.9193 356.6062 L275.1506 359.237 L274.5319 362.111 L274.1566 365.9421 L275.0329 372.7772 L286.5117 372.1634 L292.3822 370.3237 L308.0668 366.8183 L312.8861 358.757 L312.7111 354.8141 L304.825 347.0157 L300.7942 340.0059 L301.9331 336.5009 L295.5367 334.3978 L299.3044 326.8621 L299.3921 322.8313 L303.861 321.4294 L308.4176 323.2695 L310.8709 326.1608 L310.3015 328.7462 L310.6082 329.754 L310.9586 331.9006 L312.5798 332.5137 L313.4119 333.7406 L311.8785 338.4283 L311.5717 342.328 L314.4195 342.9411 L317.9685 340.3999 L319.2829 341.4077 L321.7803 338.604 L324.0145 341.1886 L323.4887 343.6857 L325.691 342.7051 L330.2026 338.3747 L331.5502 337.225 L332.9073 335.5034 L334.6246 334.1022 L335.9807 333.6818 L336.7279 333.7435 L359.7128 326.3291 L362.1098 326.9834 L362.9963 321.0729 L364.549 317.6177 L365.9839 315.1682 L370.9889 316.8789 L377.8333 326.2394 L402.0907 318.3889 L400.1783 311.7454 L406.4189 305.3038 L413.4645 303.7938 L427.6569 295.8421 L436.8161 297.5536 L456.3429 293.3262 L446.7428 287.3263 L444.4508 284.4347 L444.774 278.9668 L445.7488 276.1222 L445.7952 275.9766 L445.8806 275.8825 L445.9115 275.6965 L445.7957 275.5936 L445.6414 275.376 L445.6958 275.0848 L445.6156 274.9569 L445.1075 274.6532 L444.979 274.4724 L444.8266 274.3952 L444.5325 274.179 L443.8851 273.3739 L443.4461 272.546 L442.7941 271.6174 L441.9244 270.9337 L441.4154 270.369 L441.0247 269.6639 L440.625 268.5169 L440.5533 267.6545 L440.2789 266.3259 L440.0424 264.7899 L439.6264 263.2834 L439.055 260.6511 L438.9349 259.8835 L438.3683 258.8233 L437.9405 257.8828 L437.6609 257.1204 L437.6656 256.6358 L437.7904 256.2079 L437.6666 255.5888 L437.4306 255.5175 L437.1313 255.3248 L436.401 255.4329 L435.6326 255.6403 L434.739 255.8145 L433.0907 255.9866 L432.5691 256.1483 L432.298 256.1645 L431.8472 256.1417 L431.5423 256.0454 L431.4794 255.9241 L431.4241 255.816 L431.4123 255.3542 L431.4297 255.2175 L431.4752 254.8601 L431.44 254.5197 L431.4846 253.508 L431.8261 253.5146 L432.1577 253.5837 L432.9401 253.4609 L435.1462 253.5977 L435.6566 253.0138 L437.8382 252.8447 L438.5953 252.9933 L439.0442 253.5822 L439.2647 253.7087 L439.5166 253.9109 L440.0776 254.166 L440.1742 254.2712 L440.2183 254.4256 L440.2986 254.5543 L440.4346 254.6543 L440.6166 254.666 L440.7775 254.5395 L441.0036 254.4822 L441.1307 254.2278 L441.6326 253.4719 L442.3025 251.4712 L442.6031 251.3433 L442.7317 251.1418 L442.7664 250.5918 L442.636 248.4749 L442.4671 246.6264 L442.3672 245.0896 L442.3536 243.7212 L442.5079 243.1293 L442.3845 242.7249 L442.2921 242.5183 L442.2584 242.5212 L442.0004 242.5448 L441.6795 242.5742 L441.2128 242.6676 L440.1747 243.3345 L439.2394 243.4668 L439.0761 243.4867 L437.5779 243.5205 L437.1623 243.4249 L436.8593 242.9499 L436.7528 242.7837 L436.5103 242.5146 L436.1861 242.3175 L435.9136 242.0256 L435.6383 241.6742 L435.088 240.5771 L434.8399 239.9815 L434.6255 239.8602 L432.9218 238.994 L430.4155 237.1395 L427.6958 235.0056 L426.6291 234.0843 L426.1465 233.8173 L425.7243 233.682 L424.9663 233.5791 L424.2359 233.2703 L423.8513 232.9879 L423.6815 232.6717 L423.6608 232.5827 L423.4934 231.8592 L423.4952 231.6584 L423.5909 231.2886 L423.7227 231.0113 L423.7101 230.6003 L423.8508 230.1642 L423.9957 229.2943 L424.0619 228.8201 L423.9709 228.5458 L424.0337 228.1987 L424.2828 226.8229 L424.5305 226.481 L424.7979 224.9867 L424.7997 224.4198 L425.2205 224.1661 L425.6999 224.3411 L426.0644 224.3647 L427.5495 224.7559 L428.3999 225.0662 L428.6635 225.0853 L428.9703 224.997 L429.1354 224.7691 L429.5674 222.402 L429.8362 221.4012 L428.9145 220.9019 L428.4379 220.7938 L427.5232 220.7159 L426.6291 220.5136 L426.2492 220.3916 L425.6933 220.0416 L425.1023 219.8518 L424.7172 219.5695 L424.531 219.2761 L424.5671 219.0496 L424.3841 218.904 L424.0802 218.751 L423.6941 218.6311 L423.3995 218.3245 L422.9548 218.1723 L421.7831 217.348 L421.094 217.1744 L420.6048 216.8678 L420.5222 215.5699 L420.5278 213.552 L420.2647 212.7659 L419.8045 212.1328 L418.8101 211.1591 L418.334 210.7679 L417.6665 210.3488 L416.5576 209.4134 L416.3521 208.7398 L416.2147 208.1162 L416.0552 207.8992 L415.0368 207.2521 L414.5837 206.8462 L414.2835 206.505 L413.6361 205.8644 L413.5226 205.6078 L413.2834 205.2305 L413.365 204.943 L413.6052 204.6842 L415.511 204.8798 L416.1359 205.1629 L416.7766 205.0357 L417.9362 205.1945 L419.7703 204.9732 L420.138 204.6341 L420.1634 204.5878 L420.2656 204.3996 L420.3088 204.3201 L420.1366 204.0723 L420.0348 203.8473 L419.7689 203.5546 L419.6901 203.2663 L419.6877 202.9516 L421.8868 202.6729 L422.9746 202.6295 L424.44 202.2728 L424.6914 202.2118 L424.7542 202.2544 L425.3364 202.6479 L426.5686 203.6039 L426.9125 203.7517 L427.9003 204.3613 L430.212 205.9328 L430.4972 206.0902 L430.992 206.4351 L431.7322 207.0646 L432.0409 207.4999 L432.4485 207.7992 L432.7614 207.8389 L433.0166 207.8713 L433.3693 207.9161 L433.7577 207.8353 L434.5026 207.3514 L435.4445 206.8241 L437.8729 205.9387 L439.1568 205.5556 L439.9768 205.1702 L440.7249 205.0673 L441.233 204.7253 L441.6387 204.7018 L442.0158 204.7217 L442.2166 204.732 L442.7664 205.0482 L443.349 205.4409 L443.9592 206.01 L444.5343 206.4844 L444.6887 206.702 L444.7586 206.8925 L445.3866 207.7132 L446.4299 208.3258 L446.7873 208.4765 L447.1959 208.4978 L447.846 208.6868 L451.0888 209.0126 L451.7183 208.9376 L452.465 208.8493 L452.9393 208.8949 L453.0547 208.7354 L452.9848 208.5449 L452.9412 208.1684 L452.9078 207.8831 L452.4275 207.2514 L452.0748 206.6954 L451.7957 206.4454 L451.4504 205.6026 L451.4209 205.4534 L451.3862 205.2783 L451.5757 204.6128 L451.7914 204.3113 L451.8323 204.2488 L452.4496 204.0914 L454.4886 203.6701 L455.7279 203.8458 L433.1385 180.9415 L432.6652 180.4561 L438.4466 174.919 L442.294 170.3114 L444.5489 166.9974 L446.0724 164.2196 L447.0378 162.2426 L447.847 160.4731 L448.4563 159.1294 L448.7251 158.7344 L449.4062 157.9283 L449.9799 157.3363 L450.3528 157.0171 L450.5714 156.5302 L450.5198 155.9999 L450.2472 155.8065 L449.1684 155.6755 L447.2358 157.6084 L442.696 160.7989 L438.8955 163.8989 L438.5714 163.3929 L443.0849 159.489 L445.0696 157.4782 L446.1203 155.3254 L447.1058 156.7265 L448.4938 155.0658 L450.3584 154.7753 L461.6472 147.377 L463.0859 145.6103 L468.2355 136.3619 L469.721 134.6657 L481.1525 122.5241 L482.881 121.9879 L486.4329 121.4848 L488.5132 121.2391 L490.1428 121.4458 L494.2036 122.9993 L495.229 122.3535 L495.8238 121.718 L495.3698 120.9787 L496.9524 120.2652 L496.602 119.2671 L497.938 119.6687 L501.881 115.4274 L501.9852 114.8831 L502.906 113.7672 L503.6321 113.4171 L504.9422 112.2108 L507.3547 109.8628 L507.7197 108.897 L507.6015 108.5145 L504.7607 107.4118 L504.0341 107.5155 L502.5687 107.2044 L494.0226 104.2142 L488.3786 101.7691 L484.5781 100.7709 L481.1023 100.5892 L483.1775 100.2133 L483.9425 99.4733 L482.8032 97.34 L483.7873 95.5179 L485.3953 93.8701 L488.9753 90.9262 L484.0467 91.639 L484.1372 91.1336 L490.1686 90.2251 L498.5998 84.7645 L499.6374 83.5588 L501.1436 82.8129 L508.6259 78.3446 L511.2851 75.8537 L512.0 74.3816 L511.2865 72.6955 L510.0918 71.7296 L502.9853 67.1441 L500.2468 67.1508 L493.7744 69.0444 L487.6914 70.4061 L472.7766 73.4481 L469.8177 75.5815 L468.2481 76.7357 L466.9788 77.197 L459.8821 79.2914 L453.7986 80.2249 L450.297 81.0554 L448.9221 81.9375 L447.4581 83.6162 L439.0789 99.8433 L434.7062 106.1275 L430.9315 109.2795 L429.9329 110.0187 L429.8681 109.2405 L433.0715 106.5813 L435.0693 104.5195 L438.0915 99.7719 L438.2731 98.8119 L436.5609 96.1527 L431.0225 83.1564 L430.2701 81.911 L429.0768 82.7673 L427.8703 79.1612 L428.3113 77.5663 L421.9299 63.5187 L419.4006 57.7083 L418.5572 57.8378 L418.1163 56.9167 L419.1928 56.9167 L418.272 55.4379 L417.1969 54.4852 L415.4834 54.3358 L413.8233 55.023 L409.2981 57.5457 L408.3238 60.4575 L406.9161 62.3902 L405.4071 63.7328 L402.9214 64.673 L390.1583 73.2855 L387.5591 74.8877 L380.0928 85.0632 L377.1615 89.4476 L374.9564 92.1193 L374.1083 94.9147 L373.5684 96.7758 L372.2456 99.5777 L370.0536 106.5946 L369.2496 106.2702 L371.8825 98.6692 L370.404 97.4113 L369.3791 97.4371 L368.2247 98.1249 L363.8876 101.6072 L362.5952 101.8603 L359.4304 101.5226 L357.571 100.8937 L353.6588 95.4657 L350.896 92.4048 L345.093 86.4447 L331.3359 92.301 L323.476 95.2192 L326.8224 99.2143 L327.8469 100.9783 L328.4177 103.2094 L327.9895 103.0792 L327.458 101.199 L326.6146 100.0183 L326.4589 99.4607 L321.8108 95.9129 L318.8532 95.0956 L315.0968 96.6978 L310.2325 102.081 L310.142 102.8592 L304.036 110.2519 L303.277 111.4325 L303.5819 112.0166 L303.1996 112.6389 L302.5035 112.224 L298.4131 116.5881 L299.3081 117.8857 L299.0731 118.4043 L297.5055 117.6003 L295.1057 120.0644 L293.0286 122.5675 L292.6674 123.1383 L292.3949 126.4851 L292.0445 126.4851 L291.9277 124.8507 L292.0834 122.9699 L291.9539 122.5683 L291.3441 121.6856 L290.6696 121.9842 L289.8135 125.2266 L289.7619 128.1974 L289.4373 129.1956 L288.4776 130.2592 L287.7482 130.7005 L286.7495 130.5188 L285.9258 131.3683 L285.6533 131.511 L286.0895 130.4276 L284.8619 128.7682 L283.4223 124.9419 L282.4237 121.0891 L280.7326 119.7665 L279.8555 120.2461 L278.9604 121.5694 L277.313 125.7973 L275.7435 128.0415 L274.4986 128.5218 L272.2414 128.2489 L271.2038 128.4563 L270.1662 131.219 L268.7134 141.7775 L267.5074 144.8512 L265.1597 146.9401 L267.3386 142.0886 L268.143 138.6126 L268.4803 131.7898 L269.8678 128.5601 L270.8665 127.1853 L274.1613 127.6656 L275.4194 127.0036 L277.0278 124.8375 L279.8555 119.0655 L278.1175 117.6003 L274.7706 116.3027 L273.1317 116.7058 L264.4204 123.6834 L254.7569 137.5748 L252.5523 140.2726 L241.2888 148.6001 L239.2248 149.5077 L236.0989 150.8831 L228.3033 153.2698 L220.2356 158.8992 L217.1875 160.7665 L213.5817 162.375 L210.0664 164.7094 L208.8102 165.7994 L208.4969 168.0947 L208.601 169.6252 L209.2624 172.1934 L210.7799 176.6686 L211.1561 181.6755 L210.937 183.439 L209.4308 187.3566 L208.6916 188.8348 L207.4335 191.5198 L205.7082 193.362 L203.9848 194.2827 L201.843 194.7497 L198.847 194.3475 L197.331 193.829 L193.2697 190.5211 L190.0396 187.525 L187.6403 185.7093 L185.0721 184.2436 L182.9725 183.5435 L179.1964 183.3353 L175.7787 184.2826 L175.5709 185.1518 L175.4236 186.6948 L177.2614 187.8935 L183.443 187.8582 L185.2907 188.5657 L183.4992 191.2639 L183.3881 193.904 L185.2156 199.8129 L188.2646 196.7905 L190.1287 195.7786 L193.6463 200.2123 L194.2046 202.4324 L192.2274 203.0663 L188.5625 201.1911 L180.682 207.3506 L179.7546 206.6667 L177.7915 206.7028 L173.757 202.6368 L168.8176 202.2861 L168.6393 200.1064 L169.517 197.6046 L170.1122 194.9659 L175.6877 191.2345 L173.4985 189.8093 L171.4983 187.4736 L171.1737 186.1241 L167.9704 189.1334 L164.1826 191.6235 L161.9338 192.4795 L148.7476 195.4506 L143.4779 196.3867 L140.0964 197.0067 L138.5526 198.3164 L137.7496 198.0774 L136.9807 198.7444 L136.7668 204.7489 L136.3864 206.2292 L137.0999 209.0435 L139.8628 215.775 L140.1611 217.6428 L139.655 217.5391 L139.4218 216.0603 L136.703 209.895 L136.4254 209.1861 L135.5177 209.0302 L134.6241 206.1645 L131.5892 205.0202 L128.2915 205.4504 L125.7599 204.1959 L127.655 195.2233 L125.9991 194.0327 L123.9985 196.0374 L122.9084 191.2426 L121.716 192.6009 L121.3102 192.6112 L120.6099 192.4876 L119.6417 190.2851 L119.4349 191.664 L117.1875 192.092 L114.7098 195.6807 L111.6688 197.1361 L108.4931 198.4606 L105.598 202.2155 L99.3743 204.8724 L98.1162 202.7832 L94.0512 204.0142 L89.9364 204.7474 L81.167 212.8431 L80.0431 216.3442 L78.8291 219.0297 L77.9608 219.8592 L77.0837 221.2343 L74.052 225.1757 L68.9217 228.0215 L64.4045 231.7202 L61.7213 234.5512 L57.9232 242.2058 L58.2276 243.5477 L56.8945 247.0286 L58.8135 247.3867 L57.3885 250.5279 L57.6722 252.2043 L58.8013 252.458 L61.0773 252.9734 L61.1448 254.0837 L60.4665 255.1197 L59.0044 256.1101 L57.7905 256.2424 L56.9977 259.4776 L55.2542 259.5372 L54.1682 257.4476 L53.367 257.7953 L50.9391 261.1864 L46.6897 263.6017 L44.2923 266.3656 L43.2054 269.197 L42.0346 274.0018 L41.3568 279.3359 L41.3047 281.7938 L41.7273 282.8297 L42.1101 283.7664 L43.4995 289.4209 L43.5356 293.796 L41.9253 299.8135 L42.597 303.0505 L42.3287 304.1584 L41.1063 304.3092 L39.2271 303.2387 L34.391 299.3394 L33.2093 295.956 L33.6503 292.3653 L36.0599 288.0379 L35.6232 283.8972 L35.3737 281.5298 L34.0865 276.5612 L33.4842 272.3615 L32.7346 270.4197 L31.3917 270.3285 L31.5601 272.7159 L28.3797 272.7688 L26.6535 278.0375 L24.9348 282.1952 L22.6631 282.6856 L25.2317 274.4988 L25.8462 270.5065 L24.0074 270.5065 L24.3461 268.2956 L22.0584 267.7544 L21.7338 263.9194 L21.0405 260.7077 L19.8453 256.4991 L18.9869 254.5491 L18.0164 254.969 L18.8748 257.638 L17.6988 257.8615 L18.4268 260.3629 L18.6881 262.154 L18.963 264.698 L18.94 266.1295 L18.7627 267.828 L17.8761 270.7829 L16.6354 273.343 L15.0954 275.1716 L8.5081 281.1593 L7.6183 284.1259 L3.6522 297.3448 L3.8474 314.2324 L0.0 320.5877 M46.807 359.284 L52.9228 356.0453 L60.0908 354.0063 L61.8855 353.3146 L63.0957 353.5351 L68.1805 351.2931 L77.5621 351.7562 L77.5621 351.0946 L68.7106 350.7197 L63.2552 352.8441 L61.5196 352.8441 L60.7457 352.1605 L53.7564 350.1243 L51.4298 344.8758 L57.4621 342.0605 L60.414 340.1198 L62.5084 336.7736 L62.4184 334.9704 L60.2705 331.8021 L62.0169 329.8687 L63.7004 328.1978 L62.8401 326.6055 L61.1969 326.7849 L57.2463 321.4993 L62.0403 316.8017 L63.865 318.1029 L66.7963 319.2586 L66.1368 317.6883 L66.6063 316.8664 L64.9125 315.6475 L65.1935 314.3985 L68.8842 315.9784 L71.5814 313.0451 L71.8825 310.6551 L73.6111 307.5402 L77.5659 304.282 L73.6735 301.4883 L82.1474 297.6565 L82.1764 296.0862 L85.2845 293.6218 L84.4632 291.7125 L83.0644 284.9412 L79.9117 285.9624 L83.0198 293.3556 L81.7102 294.665 L81.3551 293.1336 L79.2015 290.5134 L74.5835 285.4294 L69.9879 280.0564 L68.4113 278.3029 L68.0633 274.9694 L68.7669 272.3813 L72.0833 271.4255 L73.8508 274.218 L74.3616 270.9984 L75.0619 261.6173 L77.4495 260.882 L81.4039 262.4187 L82.6798 258.7424 L84.9478 256.3535 L85.4056 255.0381 L78.8755 247.1617 L79.7762 246.0588 L77.8107 242.7499 L77.8787 236.9013 L78.853 236.3159 L79.9572 236.0233 L83.6601 237.338 L89.6456 247.6029 L91.1466 254.6028 L92.3897 258.7424 L95.0071 259.4482 L101.1492 259.4563 L101.8463 251.8822 L104.2996 252.1249 L121.5194 255.4336 L118.9067 271.6608 L117.5206 272.7063 L112.0595 281.3997 L110.9248 282.9635 L109.2254 282.2761 L102.9228 280.2064 L99.0923 283.5031 L98.961 280.3674 L104.5557 268.5787 L102.8905 268.2677 L97.2071 274.4841 L93.8767 281.6107 L94.4095 284.3641 L94.121 285.7845 L91.8563 285.9404 L92.0562 286.5396 L93.5436 288.9371 L91.945 290.4913 L93.7655 292.7785 L96.1414 289.6032 L98.5834 289.1371 L99.3438 284.9787 L105.9991 285.8661 L105.6876 287.0704 L99.4329 290.4854 L99.0398 292.6006 L95.752 297.0573 L92.726 299.0813 L94.069 304.4143 L88.6999 312.8282 L86.4704 312.6717 L84.1048 316.6201 L86.0013 319.5776 L83.1179 322.5226 L77.716 318.905 L79.2475 318.5051 L79.4473 317.2178 L78.6926 314.9977 L77.7601 314.4198 L75.5179 318.3058 L70.5893 316.5069 L69.5901 317.4398 L73.2977 318.483 L76.9608 319.904 L82.5526 323.7157 L86.3029 324.9809 L86.2954 329.1071 L86.8156 333.7531 L81.6872 335.9702 L78.5476 340.0838 L82.1581 342.8779 L84.5758 339.8949 L86.3653 341.9046 L92.4882 340.4285 L93.7439 344.8876 L88.9086 343.7254 L84.3248 346.8657 L82.5508 348.0272 L80.4943 347.3362 L79.2696 349.5657 L77.6057 349.9582 L78.3122 353.3491 L81.2162 353.4278 L82.9274 357.9646 L83.5518 358.069 L73.5374 373.0874 L73.2372 371.5144 L72.3178 368.0524 L66.7733 369.1255 L63.7121 369.1086 L61.5468 370.4354 L60.0561 371.2204 L60.497 379.2836 L55.75 385.6561 L53.5594 375.8143 L48.893 366.6198 L54.551 363.3099 L60.1293 361.1121 L60.391 368.3332 L65.7287 367.6422 L64.1272 361.5825 L70.8468 359.3222 L60.3047 357.4015 L57.3917 357.894 L46.9407 362.5249 L46.807 359.284 M54.4811 422.0838 L54.8437 419.3499 L54.8292 419.3308 L54.9005 418.6223 L55.7603 417.262 L56.4254 415.5113 L56.6454 415.0013 L56.8443 414.6559 L57.1516 414.3193 L57.4218 414.1693 L57.63 413.7556 L57.9495 413.283 L58.3571 412.9912 L58.6367 412.7333 L58.9491 412.4297 L59.1902 412.0968 L59.5176 411.8043 L59.952 411.5948 L61.3433 410.5189 L62.0408 409.5252 L62.9269 408.1604 L63.9044 407.1227 L66.4933 404.6664 L67.5956 404.9736 L68.2228 404.7605 L68.6731 403.8491 L68.9423 403.0965 L69.2153 401.5215 L69.0793 400.6564 L69.2683 399.8201 L69.5291 398.1664 L69.6746 397.0558 L69.8195 396.681 L70.2295 396.4017 L70.7853 396.2473 L71.2976 396.3201 L71.8262 396.6707 L72.4299 396.7405 L73.6115 397.1175 L74.3222 397.8217 L75.6323 398.9388 L77.7676 400.6116 L81.5676 403.88 L83.8318 405.5366 L85.5013 407.033 L86.8217 408.3677 L86.9498 408.708 L87.1656 409.2812 L87.4878 412.8575 L87.7866 414.503 L87.97 415.1593 L87.9785 415.7223 L87.8861 416.6637 L88.0728 420.1407 L88.3448 421.8707 L88.7721 422.3932 L88.8411 422.4778 L88.919 422.5027 L89.3472 422.6394 L90.0302 422.6519 L90.7277 422.5013 L91.4149 422.0302 L91.9417 421.3019 L92.9197 417.8426 L93.1993 417.0724 L93.7036 416.7108 L93.7636 416.71 L93.8809 416.7086 L94.2632 416.7027 L94.7881 416.9827 L95.0906 417.3781 L95.4096 418.1336 L95.5775 419.4535 L95.2801 423.1679 L95.2604 426.3552 L95.0667 427.0174 L94.8683 427.4098 L94.6375 427.7435 L93.3893 429.996 L93.1815 430.2892 L91.3305 432.6997 L90.9501 433.0826 L90.1662 433.4478 L89.7924 433.4368 L89.1732 433.655 L88.1314 433.8601 L87.3752 434.0997 L86.2734 434.0071 L85.732 433.7866 L85.4642 433.1039 L85.1349 432.793 L84.5711 432.5196 L83.9402 432.9657 L83.2244 433.7645 L82.1159 435.6327 L78.4595 441.1679 L76.3162 443.8443 L73.7785 446.3017 L71.9693 448.4909 L71.2455 448.7657 L70.6193 448.8583 L69.6966 448.8436 L69.1056 448.4351 L68.5793 447.6355 L68.9569 446.3054 L69.4414 445.145 L69.4259 444.6122 L69.4691 444.1221 L69.0863 443.981 L68.3494 444.1375 L68.0286 444.3903 L66.58 444.4675 L65.7906 444.4116 L64.9397 444.0912 L64.5241 443.823 L64.3843 443.3166 L64.3594 442.714 L64.4781 441.6874 L64.5508 440.1758 L64.579 438.9147 L65.0077 435.784 L65.5584 434.4473 L65.5786 433.5573 L65.511 433.3523 L64.76 432.3535 L65.1522 431.8369 L64.9716 428.6547 L64.6137 428.9546 L63.7379 431.0278 L62.993 432.657 L62.2692 434.4237 L62.2326 435.7194 L62.583 437.4368 L62.8912 440.4109 L62.9639 442.656 L62.9236 443.6701 L62.7116 444.1066 L62.4174 444.2742 L61.7087 444.3543 L61.1101 444.3683 L60.5834 444.3308 L60.2025 443.9479 L60.194 443.385 L59.7423 441.2803 L59.4655 439.2682 L59.1972 438.2717 L59.0804 437.8381 L58.594 437.1377 L58.101 436.2852 L57.516 435.6856 L56.8654 433.7227 L56.4813 430.9851 L55.4474 428.5746 L55.2241 424.5885 L54.4811 422.0838 M72.9881 387.0945 L73.225 385.2063 L73.2194 384.1758 L73.1279 383.7304 L73.3245 383.3247 L73.6777 383.0755 L74.2349 383.1534 L74.8522 383.357 L75.8148 384.0545 L76.6258 384.5286 L77.8239 385.6473 L78.8924 386.3691 L81.1829 387.7509 L85.9628 390.1396 L86.7865 390.4975 L87.409 390.807 L87.7847 391.0752 L87.9409 391.3281 L88.0047 391.7514 L87.8274 393.1692 L87.3982 394.8097 L86.7823 396.0981 L86.6186 397.8569 L86.5436 398.9976 L86.5633 400.3081 L86.7781 401.9272 L87.2519 403.6654 L87.3635 405.139 L87.3926 406.4105 L87.4114 407.2278 L87.1918 407.4526 L87.1632 407.482 L86.7842 407.2417 L86.3841 406.908 L85.9277 406.4546 L85.5092 405.8071 L84.3999 404.8164 L83.4415 403.8896 L80.385 401.1871 L74.3109 396.0114 L73.695 394.8994 L73.369 393.8461 L73.2349 391.9734 L73.1701 389.5244 L72.9881 387.0945 M73.05 452.6833 L73.1049 452.2615 L73.566 451.9653 L74.2509 451.6119 L74.8532 451.6104 L75.1754 451.7633 L75.3035 452.2968 L75.2214 452.8869 L74.5783 453.2822 L73.9493 453.6217 L73.5717 453.707 L73.2625 453.3991 L73.05 452.6833 M79.5557 454.735 L79.7297 454.1457 L80.1078 453.3697 L80.2696 452.5753 L80.8199 451.3245 L81.6018 450.6117 L82.1314 450.27 L82.4846 449.9503 L82.6 449.1567 L82.297 448.5387 L82.168 448.2748 L82.7276 447.6781 L83.1001 447.5047 L83.7023 447.1762 L84.1133 446.6493 L84.6382 446.3392 L85.6378 445.4853 L85.96 445.073 L86.9432 444.369 L87.4296 444.4925 L88.1262 444.5968 L88.4907 444.2845 L88.6103 444.1199 L88.6441 444.0728 L88.9429 443.8524 L89.4467 443.7458 L89.5316 443.8634 L89.9753 444.4778 L90.3126 444.7203 L90.8323 444.5836 L91.3652 443.5628 L91.8728 441.7829 L92.6139 441.0113 L93.8237 439.6819 L94.1483 439.2028 L94.3232 438.5325 L94.1853 438.2643 L94.2984 437.9637 L94.1262 437.453 L94.0333 437.2009 L92.931 437.4015 L92.6364 436.8864 L93.1238 436.4212 L93.7378 435.6745 L94.2519 434.8684 L94.6816 433.9005 L94.3509 432.0934 L94.2913 431.1703 L94.7637 430.4972 L95.4368 429.5381 L95.8726 427.9779 L96.36 426.4904 L96.5101 426.4258 L96.5687 426.1649 L96.6043 426.0083 L96.5631 425.4909 L96.7136 425.2315 L96.7005 424.9794 L96.6114 424.7523 L96.5851 424.4158 L96.4664 424.2151 L96.3797 424.0689 L96.4102 423.4993 L96.2797 421.1424 L96.4646 420.5949 L96.5509 420.5331 L96.7882 420.3634 L97.2578 420.3362 L97.8573 420.6691 L99.0689 421.2063 L99.6627 421.2519 L101.7562 421.3173 L102.0203 421.6495 L102.0034 422.1243 L101.896 422.3403 L101.6995 422.7365 L102.0541 424.0255 L102.6484 424.7942 L102.883 425.2624 L103.0087 425.5137 L103.132 426.1296 L103.0926 427.0659 L102.973 427.4928 L102.1174 427.7221 L101.7567 427.8184 L101.0803 428.862 L100.9504 429.1846 L100.2317 431.016 L100.4241 431.5613 L100.1618 432.0677 L100.0085 432.2955 L99.211 433.5191 L98.4985 435.2233 L97.429 436.9048 L97.5261 437.4376 L98.0716 437.9799 L98.6772 437.8902 L98.7626 437.8778 L99.7021 436.9797 L100.2622 435.9612 L100.3687 435.3225 L100.7257 434.5369 L101.8749 433.7881 L103.8094 432.4307 L104.9755 431.5304 L106.0239 431.2842 L107.1483 430.8389 L107.9499 431.1872 L108.7352 431.6025 L109.1226 431.6039 L109.2066 431.5907 L109.4351 431.554 L109.7737 431.7546 L109.9792 432.1705 L109.9857 432.2088 L110.2184 433.4522 L110.2794 433.7418 L110.1471 434.0298 L110.0209 434.3047 L109.6879 434.8588 L109.2282 435.7943 L108.5058 437.5206 L108.0841 438.4032 L107.6413 438.8544 L107.229 439.4548 L106.7318 439.9413 L106.3931 440.5035 L105.6608 441.148 L104.5674 441.5346 L103.8075 441.1127 L102.8417 440.4433 L102.4106 440.7989 L102.0574 441.564 L101.9167 442.6626 L101.3087 443.9295 L100.2449 445.6896 L100.365 447.343 L99.8795 448.2425 L98.6542 449.7409 L97.8938 450.3354 L96.8867 451.0571 L95.5194 452.3298 L95.0367 452.5665 L94.221 452.4099 L93.9236 452.2835 L93.5464 452.3085 L92.2973 452.5385 L91.3859 452.8097 L90.6944 452.8656 L90.0907 452.6738 L89.5869 452.0579 L89.4762 451.4399 L89.5508 450.78 L89.8829 450.6 L90.322 449.76 L90.4594 449.4977 L91.4478 448.2719 L92.9057 446.3649 L94.069 444.9679 L94.259 444.832 L95.3453 444.0567 L96.374 442.7501 L97.9131 439.36 L98.3704 438.4208 L97.8859 438.2665 L97.1222 439.5349 L95.8163 441.0503 L94.8223 442.7897 L94.6183 443.1469 L93.9555 443.8164 L93.1247 444.6556 L91.0336 446.9212 L89.3271 448.6276 L88.7276 449.4374 L88.2904 449.9217 L88.4203 450.0327 L88.0606 450.6286 L87.7209 450.7631 L83.2816 454.6491 L82.4663 455.5838 L80.9428 456.1342 L79.7729 455.5228 L79.5557 454.735 M83.435 353.6012 L83.4744 353.2102 L84.2432 352.8323 L84.4158 352.6096 L84.4125 352.3362 L83.8285 351.7231 L83.722 351.3446 L84.0002 350.7367 L84.7742 349.5907 L85.4966 348.158 L85.8188 347.6273 L86.2077 347.0826 L86.6195 346.8569 L86.9174 346.8429 L87.166 346.8973 L87.2805 347.3274 L87.3302 348.0845 L87.827 349.1687 L88.1971 349.845 L88.6033 350.35 L90.1681 350.7624 L90.875 350.611 L91.4403 350.3382 L91.9112 349.9553 L92.1026 349.6914 L92.6585 349.7245 L92.9751 350.2736 L93.628 351.1137 L94.1722 351.3085 L95.4734 352.0105 L96.8412 352.667 L97.0453 352.8162 L97.3333 352.8074 L97.5744 352.7324 L97.9196 352.1693 L97.9656 350.8528 L98.0322 350.5882 L98.2119 350.1229 L98.4253 349.8715 L98.3554 349.0555 L97.7015 347.1179 L97.1696 345.2669 L96.9139 343.896 L96.8122 343.0227 L96.8248 342.4655 L96.5884 341.3114 L96.8459 339.3737 L97.4201 338.8238 L97.9534 339.3443 L98.1335 340.0977 L98.5543 340.9343 L98.7856 341.6981 L98.9108 342.8977 L99.2481 344.3238 L99.4184 345.3441 L99.5047 346.5768 L100.4733 349.2018 L102.5058 351.69 L103.2892 352.8456 L103.929 354.0518 L105.6707 357.6992 L106.6952 359.1627 L106.5418 359.5729 L106.0122 359.5361 L105.1674 359.3509 L104.8869 358.779 L104.3939 357.5294 L103.8732 356.5069 L103.4168 355.9637 L103.0406 356.7436 L102.9439 357.4883 L103.0134 358.227 L103.3239 359.1943 L103.2245 359.6728 L102.7849 359.8441 L102.2764 359.9242 L101.9012 359.7919 L101.487 359.4575 L101.1436 359.112 L100.8833 358.6835 L100.7163 358.2343 L100.4029 357.8477 L99.8992 357.6683 L98.8939 357.231 L97.8788 356.7231 L95.6413 355.8373 L94.6431 355.1397 L94.001 354.8266 L93.1299 354.3444 L92.9404 353.8291 L92.4985 353.3175 L91.8915 352.9044 L91.8413 352.9117 L91.4708 353.0543 L91.1607 353.0764 L90.6447 353.2719 L90.1944 353.169 L89.4509 352.6361 L89.1573 352.7552 L89.1615 353.0088 L89.4687 353.3476 L89.8205 353.5226 L89.8163 353.8659 L89.5142 354.2304 L89.0949 354.6553 L87.1444 356.2181 L87.2303 356.5863 L87.5052 356.7245 L88.153 356.4768 L88.8486 356.0762 L89.9289 355.3595 L90.4622 354.7781 L90.8807 354.5186 L91.3685 354.4047 L91.801 354.6274 L92.0501 355.0603 L92.1988 355.5462 L92.7701 357.0274 L92.9887 358.7922 L93.0281 359.0988 L93.2988 359.6986 L93.606 360.2028 L94.0816 360.6093 L94.4381 360.8629 L94.5535 360.9467 L94.8186 361.4032 L94.9363 361.828 L94.9368 362.211 L94.7862 362.4712 L94.5146 362.6873 L93.1519 364.1721 L92.7058 364.7447 L92.7954 365.1504 L92.9709 365.4695 L93.3199 365.4739 L93.5539 365.3107 L93.8321 365.0123 L93.9967 364.6683 L94.1196 364.3125 L94.3495 363.4767 L94.5493 363.2055 L94.8125 363.2033 L95.0447 363.5304 L95.2004 363.8325 L95.5011 364.5653 L95.6287 365.6584 L95.791 366.6014 L96.0255 367.3578 L96.5162 367.8797 L97.7878 368.9014 L98.3277 369.6996 L98.8184 370.7492 L99.1247 371.3189 L99.2115 371.5989 L99.1303 372.0025 L99.0042 372.392 L98.6669 372.7728 L97.8929 373.3674 L97.2601 373.94 L96.6053 374.3715 L96.6789 374.4824 L96.3646 374.7272 L96.3215 374.686 L95.9476 374.9396 L95.6282 375.4115 L95.0067 376.1252 L94.3486 376.6912 L93.8382 376.6309 L93.3747 375.635 L93.499 375.2983 L94.402 373.9018 L94.4377 373.6225 L94.2627 373.4196 L93.2659 372.531 L93.0567 372.184 L92.9835 371.5629 L93.4104 369.2233 L93.3996 366.8256 L92.9582 366.3486 L92.5965 366.8072 L92.5173 367.8076 L92.1823 370.0164 L91.8024 371.4086 L91.5641 371.6496 L91.3009 371.5122 L91.1635 371.2505 L91.043 370.9425 L90.9426 370.3045 L90.7001 369.4659 L89.9087 368.1362 L89.48 366.9763 L88.9743 365.7216 L88.3443 364.3412 L87.8232 363.9604 L87.4306 363.8237 L86.7743 362.3448 L86.9052 362.1007 L86.9456 361.6663 L86.2785 359.9536 L85.6087 357.7867 L85.6729 357.2479 L85.5862 356.898 L85.3999 356.5716 L84.8211 356.4342 L84.6508 356.2269 L84.0429 354.8758 L83.6315 354.082 L83.435 353.6012 M87.6342 374.4281 L87.8617 373.3285 L88.2562 372.7338 L88.5676 371.4453 L88.7135 370.3339 L88.9307 369.7334 L89.1146 369.5041 L89.374 369.46 L89.6062 369.729 L90.8605 372.0098 L91.1532 372.8507 L91.2418 373.6379 L91.171 374.9823 L90.861 377.1087 L90.6269 378.4192 L90.5973 380.1046 L90.1076 381.5761 L89.6315 383.4364 L89.5743 384.7241 L89.2731 385.113 L88.8889 385.2585 L88.5737 385.1504 L88.2988 384.7278 L88.1403 381.973 L87.8753 380.1142 L87.7148 377.3417 L87.6825 376.2612 L87.6342 374.4281 M87.6473 402.1697 L87.6562 400.8409 L87.7294 400.0435 L88.4963 396.14 L89.1211 393.744 L89.6292 391.4222 L90.7015 387.4885 L90.814 386.422 L91.7194 383.3886 L92.4877 381.5224 L93.2406 380.1935 L93.7782 379.6643 L94.1909 379.6563 L94.7051 380.4104 L95.1891 381.263 L96.1362 383.0395 L96.4758 383.9237 L97.0683 385.7083 L97.0847 386.5719 L96.8698 387.7707 L95.6165 391.8779 L95.3491 392.8929 L95.2098 393.8094 L95.3289 394.7693 L95.5236 395.4447 L95.9444 396.3892 L95.9547 397.0132 L94.7355 402.3844 L94.3673 404.1556 L94.2322 404.5121 L94.1919 404.6186 L93.9011 404.7656 L93.499 404.9229 L92.87 404.9949 L92.1322 405.0119 L91.5125 404.9758 L90.9538 405.1831 L90.6048 405.3132 L89.5405 405.8681 L88.8631 406.387 L88.3931 406.6089 L88.0216 406.4877 L87.8542 406.1011 L87.8457 406.0812 L87.834 405.5638 L87.72 404.0072 L87.6473 402.1697 M88.9434 409.4429 L89.3913 407.6511 L90.7348 406.7059 L91.3821 406.606 L94.2688 406.4568 L95.0897 407.3527 L96.359 409.5921 L96.3839 411.4339 L96.0851 412.9515 L94.5423 412.7524 L92.203 412.8523 L91.407 413.7982 L89.8642 413.2507 L89.1174 411.6331 L88.9434 409.4429 M89.3913 416.9834 L90.3619 415.2409 L91.3324 415.2909 L92.1035 415.9383 L91.8798 417.456 L91.3572 420.0194 L90.4862 420.492 L89.6648 419.4719 L89.3913 416.9834 M95.8895 379.7092 L95.9462 379.1322 L96.2394 378.2781 L96.8253 377.2961 L97.5003 376.5802 L97.8948 376.4575 L98.6294 376.4222 L99.3456 376.7772 L100.5587 377.1373 L101.2928 377.5129 L102.2877 378.3119 L103.6682 379.5636 L103.8239 379.9017 L103.7508 380.2523 L102.1967 382.0605 L101.1094 383.6628 L101.2449 384.0163 L101.6798 384.8704 L101.9917 385.0689 L102.5631 384.5735 L103.9398 381.9399 L104.3807 381.3541 L104.8001 380.9903 L105.3128 380.9124 L105.7242 381.4453 L106.3255 381.7143 L107.4344 381.4666 L108.639 381.3681 L109.2784 381.177 L109.7831 381.0925 L110.2062 381.263 L110.4417 381.5607 L110.4698 381.9679 L110.2705 382.3545 L107.0202 386.8667 L106.1501 388.9467 L104.7991 389.7346 L103.892 389.7207 L103.2765 390.6298 L102.5593 390.8988 L102.5171 391.467 L102.7896 391.844 L103.3403 392.4232 L104.1035 392.934 L104.4961 393.5874 L104.5585 394.2225 L104.3423 395.1559 L103.9914 396.3341 L102.4983 400.2794 L102.8417 400.4654 L103.6729 398.0591 L104.7307 394.7098 L105.4732 392.6885 L105.9986 390.7621 L107.0831 387.5245 L107.9007 386.6829 L108.6423 385.8443 L109.4632 385.2864 L110.2325 384.8461 L111.1054 384.6683 L111.9029 384.7477 L112.7144 385.0674 L113.5991 385.587 L114.3852 386.3595 L115.1723 387.3275 L115.906 388.5689 L116.0411 390.1389 L116.0087 391.4766 L114.5274 395.8321 L113.7994 397.571 L113.0301 399.2115 L112.2026 400.7145 L110.8367 403.1039 L110.5102 403.6309 L110.232 404.0792 L110.0796 404.2615 L109.2465 405.2603 L107.615 406.606 L106.477 407.2696 L105.347 407.873 L104.4656 408.289 L104.1908 408.4184 L103.1522 408.8035 L102.2403 408.8667 L101.2487 408.4191 L100.7956 408.0502 L100.455 407.4313 L100.471 407.2799 L100.5413 406.603 L100.5493 406.5251 L100.6684 406.3326 L101.4124 405.1287 L101.5691 404.6995 L101.7942 404.0814 L102.4289 402.341 L101.8313 401.8537 L100.8383 400.4345 L99.3292 398.7389 L98.0688 397.4321 L97.7057 396.7574 L97.6021 395.9085 L97.9126 394.2166 L98.362 392.3659 L99.4418 389.814 L100.538 387.0717 L101.434 385.3445 L101.1197 384.7455 L100.7017 384.4235 L98.5055 389.2062 L97.3141 393.1678 L96.7704 395.2713 L96.4843 395.236 L96.268 394.6252 L96.2873 393.5669 L96.4557 392.507 L96.9698 390.9349 L97.7137 388.2779 L98.0421 386.5565 L98.0313 385.476 L97.724 384.3103 L95.8895 379.7092 M96.2244 328.655 L99.7017 329.8143 L105.3925 327.7758 L107.2435 327.5112 L109.99 331.7785 L111.1477 332.8908 L117.5257 332.6864 L117.0261 331.4154 L112.0079 330.7487 L111.3067 327.1025 L112.0553 324.2428 L116.52 326.06 L126.168 331.2691 L131.3879 338.8834 L129.9413 339.5045 L133.3004 342.7735 L133.4157 347.2803 L137.3879 344.5789 L140.1118 343.8754 L142.4497 344.7832 L145.3322 341.7649 L136.5933 340.1985 L135.8216 338.5188 L137.7195 336.1488 L148.719 336.6781 L150.8298 338.7937 L153.0167 339.4567 L157.221 339.2436 L159.6072 339.187 L166.1888 336.9184 L168.6088 335.3284 L170.8712 332.0042 L169.2472 329.9158 L165.9984 330.8442 L162.6567 329.5445 L164.3876 327.284 L168.727 323.7569 L168.0774 322.8284 L162.9818 324.95 L157.8904 327.3539 L153.1893 326.7136 L151.6108 324.2531 L156.22 322.2719 L156.6375 315.105 L161.5079 314.8962 L161.5773 318.8623 L158.4462 322.2719 L161.2086 324.3369 L162.7604 324.22 L164.2215 321.0192 L162.5516 319.141 L162.8298 317.1928 L167.0046 316.4966 L168.3963 319.3497 L170.3444 325.6815 L172.9881 326.8643 L179.0416 325.4727 L179.5285 318.6536 L182.6596 313.0877 L185.7907 309.6082 L184.3295 305.9905 L177.9979 305.7817 L177.2328 308.565 L173.5449 307.3822 L170.8313 310.2346 L178.2066 316.3577 L175.493 319.9761 L173.4056 319.9761 L165.1953 309.1216 L167.9788 306.1294 L167.4455 301.8419 L164.9866 298.1976 L163.6835 295.3892 L163.2909 295.723 L164.8501 298.9129 L165.6128 303.7637 L164.267 301.5199 L163.047 300.9259 L158.7943 303.6946 L162.3429 305.6428 L159.9768 308.1475 L160.2555 312.8091 L154.8282 312.6003 L155.1763 308.4254 L152.8103 312.6702 L150.9316 311.2726 L149.652 308.4107 L150.2261 305.7067 L151.1427 304.3937 L154.9722 297.5095 L159.2831 295.087 L159.3661 293.6843 L155.0013 290.8023 L152.2066 287.8791 L154.4689 287.2829 L161.3442 292.2176 L160.9394 294.4187 L163.2909 294.4967 L163.4138 292.4947 L167.4277 292.5837 L170.2403 301.4978 L171.731 303.2704 L173.3793 302.5602 L172.7311 300.2223 L173.5126 299.2416 L185.0092 298.1285 L188.6962 296.2097 L189.4701 295.673 L188.8791 294.1879 L192.2189 292.9895 L194.1046 297.8859 L193.7341 306.4875 L192.1425 309.5656 L190.5767 307.7387 L186.7096 309.0672 L189.4992 311.8674 L189.1591 313.1701 L192.2025 314.3419 L195.4401 319.2681 L193.3607 321.6309 L187.7059 315.1638 L185.4759 319.4578 L183.9341 323.823 L182.6291 328.6866 L184.2188 329.1608 L185.3136 325.0794 L188.3702 328.7102 L186.1402 330.7744 L187.6586 332.6724 L189.177 331.9844 L192.1481 336.015 L186.5619 341.7745 L186.1054 343.2807 L186.5229 344.9486 L187.4221 346.5136 L187.5343 346.6614 L189.3299 349.0202 L190.7728 351.2034 L191.3436 351.9863 L181.6215 357.428 L180.4577 356.9994 L184.1405 348.4057 L180.3156 345.2184 L181.121 336.1936 L185.8517 332.0329 L182.6643 330.9596 L180.9531 332.8048 L177.1737 326.8724 L178.997 325.5932 L174.3297 326.7055 L175.1679 328.7102 L174.8133 329.2446 L174.9343 330.1032 L175.887 331.8991 L171.1564 332.9393 L170.7206 334.3816 L173.4718 334.0802 L174.2096 335.1534 L171.5926 339.2127 L165.2183 343.0043 L166.9816 345.522 L162.3185 349.1871 L154.8597 349.6906 L153.0504 349.5377 L152.8966 351.0322 L155.1951 350.9653 L161.7373 352.7434 L160.9657 356.4342 L153.3497 359.9904 L154.7166 363.8487 L150.3068 364.142 L146.8619 361.8229 L139.541 364.6161 L138.1628 363.6208 L131.6145 361.8229 L129.2072 363.9736 L127.5007 362.7792 L125.7726 359.9933 L120.7389 352.4031 L116.4314 349.7862 L114.1845 343.9761 L108.4068 347.5391 L114.2811 355.3713 L116.6241 356.9443 L117.203 359.248 L114.0376 357.1803 L111.218 353.0514 L104.2466 345.658 L103.625 340.7733 L106.2228 337.4433 L111.218 336.3774 L110.7518 334.1133 L102.7371 335.5342 L98.8935 333.867 L96.2244 328.655 M108.3449 414.101 L108.3899 413.2845 L108.3646 412.6995 L108.7577 411.3795 L108.9885 410.8547 L109.3623 409.839 L109.6902 408.5301 L110.156 407.4188 L110.7921 405.6527 L111.3963 404.1703 L111.5717 403.7396 L112.2514 402.9003 L112.5446 402.538 L113.3533 401.8295 L113.622 401.459 L113.9884 401.0335 L114.305 400.5418 L114.7605 399.3658 L115.1372 398.6242 L115.383 397.682 L115.7948 396.9081 L116.3821 396.4002 L119.3833 397.0301 L119.9598 397.2594 L120.9026 397.6997 L121.5678 398.1965 L122.0701 398.5052 L122.4773 399.1431 L122.7362 399.898 L122.8807 400.4771 L122.8802 401.0261 L122.5312 402.4123 L122.0129 403.5309 L121.4209 403.7521 L120.4537 403.8381 L120.0095 403.9381 L119.7337 404.2232 L119.2336 404.5657 L119.213 404.9905 L118.773 405.8357 L118.7087 408.1009 L118.728 410.0044 L118.2894 412.8163 L117.7856 415.5341 L116.8835 417.9499 L115.8919 419.0339 L115.2891 419.5322 L114.9087 419.9151 L114.7112 420.1877 L114.7933 420.4567 L115.6208 421.1321 L116.1152 421.6017 L117.855 423.1193 L118.0867 423.5632 L118.1487 423.9689 L118.3138 424.3841 L119.1928 425.4762 L119.6037 425.8224 L119.6286 425.9797 L119.8899 426.6234 L120.1741 427.2209 L120.4298 429.9497 L120.1718 431.1946 L119.6839 433.2251 L119.6999 434.6405 L119.4546 436.0501 L119.8406 437.8285 L119.8477 438.2959 L120.0034 439.0337 L120.4392 440.236 L120.851 441.5823 L120.858 442.1364 L120.2318 442.6501 L118.7636 442.6876 L117.8104 442.448 L116.3826 442.0291 L115.7939 441.5985 L115.3103 441.0701 L114.7605 439.8678 L114.525 438.85 L114.1929 437.7984 L113.6507 436.3756 L113.4424 435.5621 L112.5056 433.1715 L111.2954 429.4271 L110.2972 426.9755 L109.8586 425.7144 L109.2324 423.1377 L109.0565 421.4268 L108.7666 419.921 L108.5748 418.0645 L108.5316 416.4322 L108.3449 414.101 M123.0547 412.8332 L123.3493 412.2835 L123.399 411.6272 L123.7884 411.2178 L124.2298 410.4586 L124.9142 409.889 L125.9766 409.1791 L126.7257 408.5992 L127.4087 407.4681 L127.5288 406.6192 L128.0326 405.8372 L128.2859 405.2419 L128.74 404.8627 L129.0636 404.798 L129.802 404.9553 L130.2199 405.1103 L130.9986 406.6258 L131.9016 410.0353 L132.4964 412.207 L133.2361 415.3835 L133.3857 416.8048 L132.9926 417.1473 L132.638 417.478 L131.7646 418.0777 L126.5527 420.567 L125.6905 420.9374 L124.614 421.1343 L124.0773 420.905 L123.6528 420.7911 L123.2382 420.2752 L123.1579 418.662 L123.1894 417.5464 L123.2034 416.0743 L123.111 415.4842 L123.2278 414.7 L123.1842 413.6586 L123.0547 412.8332 M130.9249 401.4465 L131.2786 400.6814 L131.622 400.2794 L134.1222 397.7636 L136.1561 395.6358 L136.7016 395.1618 L137.5722 394.8435 L138.7313 394.7472 L139.4223 394.7722 L142.0909 395.4073 L145.6273 396.0055 L146.6302 396.7839 L148.1936 398.9653 L148.6542 399.1799 L148.9798 398.9146 L148.8428 398.3405 L148.6359 397.7048 L148.2006 396.1319 L148.0299 394.3489 L148.3686 393.034 L149.113 391.8742 L150.5127 390.7202 L152.0335 390.0301 L153.5908 389.9647 L153.9942 390.4093 L154.3319 391.6669 L154.7987 393.6602 L155.2715 395.907 L155.0004 396.717 L152.8651 400.9762 L152.0358 402.8408 L149.5605 407.7466 L147.5223 411.0789 L147.1222 412.6069 L147.1907 413.4256 L147.4285 414.7257 L147.4571 416.4807 L147.0847 419.4462 L146.034 422.9577 L145.0648 424.4407 L143.666 425.2256 L143.0403 425.3248 L142.3573 425.3116 L141.2259 425.5593 L140.3468 425.2668 L139.8093 425.3748 L138.9391 425.7798 L137.6825 426.5272 L137.0192 427.1871 L136.4591 427.4429 L135.6809 428.0543 L135.6819 425.9804 L135.6092 425.0088 L135.7649 423.198 L135.7189 421.7605 L136.3231 421.3173 L137.1337 421.1395 L137.5328 420.8749 L137.1201 418.1946 L135.8137 416.3102 L135.7522 415.917 L135.7757 415.8127 L135.0059 415.249 L134.4688 414.1451 L133.5724 413.7049 L133.1212 411.9366 L133.434 411.5522 L133.6386 411.3663 L133.1718 410.6041 L133.0499 409.4319 L132.0507 406.3892 L131.4362 403.9344 L131.151 403.6051 L131.1538 403.1568 L131.0624 402.3616 L131.0427 401.7692 L130.9249 401.4465 M131.0305 300.2929 L131.6323 299.1328 L134.239 300.5362 L134.7831 298.4454 L132.236 296.8941 L139.1188 291.6787 L134.2563 288.2467 L137.2331 285.3213 L138.4672 287.0167 L141.6523 286.3359 L144.2932 286.3139 L149.3644 286.8719 L148.9924 289.1635 L157.2998 294.5775 L153.1175 295.9818 L146.8722 291.9426 L145.2966 291.7132 L143.9217 293.0307 L143.0051 299.2475 L140.9102 303.0733 L140.7704 306.2963 L138.0122 305.0833 L135.0247 302.4455 L131.0305 300.2929 M201.676 261.3562 L202.336 259.9445 L205.0187 260.4702 L208.7357 263.6267 L212.0849 260.2423 L208.3149 257.1564 L203.8713 253.1594 L204.6261 252.5734 L204.7199 252.4925 L206.7322 253.8087 L209.4022 253.9307 L213.4874 253.2293 L212.0319 256.3674 L214.1535 261.0842 L216.3535 261.9025 L216.9821 263.4341 L215.64 267.3964 L213.046 271.3079 L207.2295 267.5434 L207.0854 266.4803 L204.5979 264.9767 L201.676 261.3562 M221.8788 381.1358 L222.1255 378.6066 L222.2906 378.1201 L222.6227 377.7658 L223.111 377.5975 L224.5033 377.6622 L225.6131 377.8569 L227.3023 378.026 L228.6626 378.0752 L229.3864 378.0796 L229.9113 378.0495 L230.2607 377.8459 L230.4338 377.5717 L230.3583 377.119 L230.1458 376.5052 L229.2911 374.6677 L228.8929 373.5166 L228.815 372.7882 L228.8971 372.3266 L229.0782 371.8621 L229.392 371.5445 L229.8461 371.0616 L230.2204 370.7095 L230.5961 370.3001 L232.4227 369.6886 L234.1799 369.1402 L234.8474 369.0087 L236.1064 369.546 L236.166 369.9025 L235.8587 370.4795 L235.7006 371.0609 L235.6195 372.0105 L235.6898 377.3064 L235.855 378.9271 L235.8962 380.4251 L236.0421 381.5967 L236.2701 381.9906 L236.6974 381.9355 L236.9812 381.6298 L237.4254 380.9852 L237.9001 380.7191 L238.7224 380.7985 L240.6804 381.0388 L241.2813 381.1946 L241.9356 381.7407 L242.2935 382.1083 L242.734 382.744 L243.8115 384.2471 L244.4762 385.1718 L244.555 385.4371 L244.3936 385.6414 L243.8945 385.9053 L243.5122 386.2235 L243.2692 386.5888 L242.9535 387.1959 L242.6758 387.6539 L242.1556 388.0272 L241.4459 388.3087 L239.7802 389.9867 L236.8987 392.815 L237.2683 393.1795 L237.9911 393.6712 L238.3556 394.2107 L238.2407 394.587 L237.856 394.9347 L237.3471 395.1 L236.7387 395.2066 L235.8986 395.1162 L235.3648 394.7862 L235.3249 394.293 L235.2517 393.827 L235.0552 393.486 L234.1771 393.3912 L233.518 393.2405 L230.219 392.6503 L228.4309 392.593 L225.7881 392.9098 L225.2543 392.5305 L224.7294 391.1627 L224.121 389.7912 L223.703 387.4789 L223.2579 385.0203 L222.8399 383.6848 L222.4998 383.1909 L222.2432 382.6911 L222.0073 381.9414 L221.8788 381.1358 M228.8071 276.1016 L230.3972 269.7712 L232.9551 270.2969 L231.5371 277.4912 L228.8071 276.1016 M237.2233 375.0242 L237.6726 374.5986 L238.76 374.4266 L240.1086 374.7052 L241.4375 374.85 L241.7499 374.9367 L242.0004 375.4968 L242.5215 376.0422 L242.6383 376.7867 L242.6782 377.2167 L243.1679 377.7393 L243.6229 378.2127 L244.5165 378.0172 L245.4701 377.5122 L246.4491 376.6493 L247.3277 376.7015 L247.944 376.4677 L248.787 375.9532 L249.4338 376.2605 L250.3894 376.9823 L251.4471 377.6607 L252.1573 378.7206 L252.1878 379.2608 L251.9767 379.6489 L251.0109 380.428 L249.9977 381.2417 L249.1848 381.779 L248.6519 382.0267 L247.4787 382.866 L245.9453 384.0075 L245.1896 384.5632 L244.4522 384.5426 L244.114 383.9421 L243.0061 382.4265 L241.9469 381.3938 L241.2461 380.7411 L240.7878 380.2413 L239.4261 378.4935 L238.2604 376.9595 L237.2922 375.6401 L237.2233 375.0242 M268.0328 318.522 L269.5615 316.5069 L270.2483 315.4513 L270.5916 315.0859 L270.9101 314.833 L271.6893 314.6654 L273.0487 314.1949 L273.3395 314.1795 L273.5759 314.2875 L273.7237 314.5404 L274.7584 317.4045 L275.5277 319.2071 L276.2708 320.4297 L276.8885 321.2457 L276.8219 321.2839 L276.8519 321.3258 L277.3102 321.8183 L277.4861 322.2432 L278.4463 324.2075 L278.9018 324.9419 L279.1007 325.3139 L279.7757 326.1644 L280.6276 327.5127 L281.0014 327.8111 L281.0615 327.6009 L280.3724 326.5254 L277.6311 321.6081 L277.4519 320.9928 L277.5293 320.6451 L277.9214 320.2797 L278.2934 320.1562 L280.9104 320.018 L281.2317 319.9143 L281.3406 319.6754 L281.3551 318.9175 L280.56 313.931 L280.355 313.0466 L280.1163 312.232 L279.7705 312.2556 L279.5158 312.5827 L279.5745 312.9569 L279.847 313.8008 L279.6772 313.8685 L279.4807 314.0199 L279.3155 314.2478 L279.2231 314.4235 L279.2602 314.6602 L279.407 314.9594 L280.0478 315.4638 L280.3297 316.3665 L280.7852 318.2514 L280.8419 318.9645 L280.7739 319.2005 L280.6834 319.3453 L280.4226 319.5181 L278.906 319.6342 L278.0964 319.7342 L277.4735 319.7614 L276.8801 319.0799 L276.4635 318.3073 L276.0151 316.3812 L275.5775 315.7247 L275.1525 314.8029 L274.8344 313.9258 L274.6421 313.2098 L274.6792 313.0628 L274.7739 313.0275 L275.0446 312.965 L277.0827 312.2805 L277.1484 312.5731 L277.3614 312.7812 L277.5724 312.8488 L277.8211 312.7694 L277.9538 312.4658 L277.9125 312.3313 L278.8118 311.9277 L279.7269 311.452 L279.8095 311.0587 L279.1546 308.8341 L279.2311 308.6812 L279.4408 308.3666 L279.4549 307.9431 L279.2874 307.2601 L279.0247 306.733 L278.5148 306.2735 L278.0978 305.6038 L277.9477 304.9289 L277.8736 304.0813 L277.701 303.2248 L277.4069 302.3617 L277.2577 301.5692 L277.2971 299.9297 L277.1761 298.5895 L277.2417 296.5405 L277.5354 295.0804 L277.8032 294.4717 L277.9805 294.1622 L278.4477 293.6313 L279.1181 293.1248 L279.7729 292.716 L281.5287 291.7742 L282.3059 291.486 L282.6038 291.5493 L282.653 291.8632 L282.6071 292.2764 L282.2857 293.3821 L281.9705 294.8444 L281.9602 294.8341 L281.6816 295.5017 L281.4836 296.6471 L281.4076 296.9471 L281.137 298.6997 L280.7547 300.7362 L280.083 303.227 L280.1036 303.6027 L279.8226 304.8157 L279.5604 305.6479 L279.2982 305.8905 L279.2053 306.067 L279.165 306.1941 L279.1537 306.3772 L279.2822 306.5588 L279.5388 306.6595 L279.6795 306.536 L279.9103 306.2177 L280.0351 305.7339 L280.0487 305.309 L280.712 303.5306 L280.6984 303.1902 L281.0117 301.2258 L280.9719 300.97 L281.1271 300.1385 L281.3678 299.0769 L281.5985 297.6955 L281.9996 296.5082 L282.32 295.7899 L282.8036 295.3436 L283.2248 295.0848 L284.1757 294.5908 L286.0417 293.8585 L287.2796 293.2829 L288.2149 292.7447 L288.4921 292.7675 L288.448 293.0866 L288.1971 293.3939 L287.0807 296.625 L286.7964 297.6028 L286.2767 298.7953 L286.013 300.584 L285.8784 302.0206 L285.5088 303.1241 L284.9548 304.9708 L284.3999 307.1763 L284.3849 307.7042 L284.8342 308.2173 L285.2808 308.5099 L285.7555 308.7628 L285.9924 309.3811 L285.9399 312.6297 L286.3123 317.3097 L286.2696 319.5945 L286.3855 322.3792 L286.5994 323.5944 L287.0211 325.0272 L287.4817 325.7116 L288.8392 326.8216 L290.0846 327.5634 L292.5848 328.9778 L295.245 330.2297 L295.7835 330.3524 L296.4721 330.845 L296.5664 331.211 L296.5481 331.5521 L296.3506 331.9116 L294.6647 333.9199 L294.1567 334.2279 L293.8246 334.1963 L293.1233 333.4583 L292.9259 333.4098 L292.7696 333.2958 L291.2086 333.0547 L289.7802 332.7827 L288.0812 332.1821 L287.8842 332.2476 L289.101 332.7158 L289.9904 333.0157 L290.8915 333.2444 L291.8972 333.3289 L292.803 333.484 L292.7997 333.5311 L292.2415 333.6009 L291.7034 333.606 L290.9876 333.5465 L290.2671 333.4149 L289.7281 333.2576 L287.0788 332.1865 L286.3128 331.8388 L285.6176 331.4742 L284.9543 330.6678 L284.5378 329.6864 L284.3023 328.8594 L283.9435 328.7249 L283.5992 328.7521 L283.321 329.0255 L282.9973 329.1873 L282.5541 329.1895 L281.4672 328.1338 L281.2336 328.1221 L281.1374 328.2904 L281.7458 329.5335 L281.9574 330.1606 L281.9949 330.4759 L281.8392 330.7685 L281.5371 330.953 L281.1768 331.0934 L280.6759 331.1177 L279.9751 330.9817 L278.5514 330.5847 L277.1667 330.1356 L275.903 329.7746 L274.9273 329.5872 L274.0281 329.7452 L273.1992 330.0532 L272.7428 330.051 L272.5144 329.7143 L272.1626 328.3323 L271.6541 327.2987 L271.0218 325.7851 L270.0292 323.5768 L269.2318 322.0176 L268.4859 320.4774 L268.1623 319.5615 L268.0525 318.8837 L268.0328 318.522 M275.0896 360.7585 L275.2575 359.9007 L275.4016 358.7753 L275.3434 358.0219 L275.2632 357.4912 L275.2482 357.1398 L275.4175 356.9061 L275.6783 356.8877 L276.0456 357.2148 L276.6728 357.4669 L277.2694 357.6551 L277.6677 357.797 L278.0992 358.1057 L278.3872 358.3358 L279.0275 358.4622 L279.6688 358.3277 L279.9244 358.6085 L280.0792 358.9591 L280.1646 359.4604 L280.1275 359.8213 L280.5633 360.5101 L280.218 360.9504 L279.9938 361.434 L279.9042 361.8229 L279.4732 362.2147 L278.9037 362.1742 L278.1325 361.7898 L276.8383 361.5921 L275.3631 361.3885 L275.1309 361.1657 L275.0896 360.7585 M278.3455 356.2725 L278.4234 355.8917 L278.6307 355.6065 L279.0561 355.3264 L279.5327 355.2779 L280.0192 355.3595 L280.7603 355.4271 L282.7253 355.5073 L283.9486 355.4609 L285.4018 355.6183 L287.3659 355.5175 L288.2032 355.3735 L288.5329 355.0846 L289.1277 354.6877 L289.8989 354.3966 L291.1767 354.2378 L293.5933 354.0379 L294.3279 353.9945 L294.8514 354.0195 L296.1935 353.824 L297.4717 353.4219 L299.1017 353.0374 L300.6778 352.7655 L302.1142 352.381 L303.193 352.134 L304.2541 351.9936 L304.9976 352.1296 L305.9212 352.4648 L307.1535 352.7927 L308.1273 353.0874 L308.7465 353.5049 L309.505 354.215 L310.7832 355.1779 L311.5398 355.9218 L312.0305 356.199 L312.1754 356.4437 L312.2176 356.787 L311.9915 357.0627 L311.4934 357.3611 L311.2251 357.8058 L308.4387 358.1425 L308.2671 358.6651 L308.366 359.4656 L307.2032 360.3043 L306.5985 360.5336 L306.1961 360.8144 L305.7345 360.8394 L305.4437 361.0503 L305.3494 361.3988 L305.4423 361.9442 L305.8673 362.5822 L306.0488 363.0732 L306.0572 363.4569 L305.8776 363.8053 L305.4775 364.0464 L304.27 364.2191 L302.003 364.4345 L297.7574 364.1861 L296.3923 363.7921 L293.8612 363.1445 L292.4807 362.7373 L291.2428 362.5079 L288.0559 362.1669 L285.9544 361.5347 L284.4618 361.1275 L282.5287 360.4388 L281.8176 360.3256 L281.6112 360.2631 L281.5638 360.1301 L281.6961 359.9955 L282.1544 359.9095 L282.9894 359.6978 L284.2868 359.6368 L285.3169 359.9117 L285.8498 359.986 L286.7753 359.886 L287.2045 359.7008 L287.4433 359.4156 L287.5343 359.0076 L287.5366 358.6416 L287.4559 358.2858 L287.2777 358.0491 L286.8752 358.0204 L285.7832 357.9741 L281.7327 357.9763 L280.0126 357.6286 L278.9576 357.292 L278.6527 357.0634 L278.437 356.6371 L278.3455 356.2725 M282.5531 336.9243 L282.63 336.3958 L283.1141 335.3725 L283.7737 333.9221 L283.9374 333.3907 L283.829 332.7849 L283.6897 332.4056 L283.6601 332.0888 L283.7605 331.8793 L283.9618 331.8006 L284.2728 331.9123 L284.5833 332.1042 L284.8685 332.3821 L285.2283 332.4049 L285.5913 332.5335 L286.0046 332.7158 L287.0596 333.2179 L288.0559 333.7509 L288.4612 333.9089 L288.6788 334.014 L288.7342 334.2397 L288.5681 334.4617 L286.7476 335.8915 L284.4717 337.4786 L283.7488 337.8329 L283.2642 337.8645 L282.8651 337.8131 L282.6535 337.5866 L282.5761 337.3044 L282.5531 336.9243 M282.8651 342.5324 L282.9551 342.2604 L283.1897 342.0487 L283.8393 341.9156 L284.4337 341.6569 L285.8109 340.9938 L286.5384 340.5712 L287.2012 340.2257 L287.6464 340.0345 L288.023 340.0095 L288.4738 340.272 L288.782 340.4293 L289.131 340.441 L289.9374 340.4469 L291.4675 340.3969 L292.7138 340.6917 L293.9658 341.0012 L295.3951 341.3628 L296.8825 341.8355 L298.513 342.4993 L299.4212 342.8955 L300.5732 343.0102 L301.2717 342.9911 L301.707 343.1035 L301.9556 343.3726 L302.1432 343.7085 L302.1995 344.1202 L302.1343 344.6127 L301.9434 345.2485 L301.3369 346.4188 L301.0564 346.7915 L300.7365 347.0723 L300.3514 347.2649 L299.9526 347.3332 L298.9432 347.2612 L297.3887 347.162 L295.3332 347.1208 L293.8551 346.7658 L293.0417 346.382 L292.5126 345.8969 L291.498 345.4492 L290.4449 345.1405 L289.457 344.9369 L287.6262 344.3069 L286.3165 343.8644 L284.5111 343.6438 L283.5917 343.535 L283.1751 343.2653 L282.9368 342.8433 L282.8651 342.5324 M285.2264 338.0755 L285.2625 337.7829 L285.4811 337.5028 L288.4513 335.4254 L289.2952 334.5095 L289.6606 334.297 L290.0785 334.2698 L291.5313 334.6109 L293.8349 335.2189 L294.1567 335.5063 L294.6675 336.0407 L295.2506 336.3105 L295.3988 335.9393 L296.8924 336.3193 L297.7508 336.5987 L297.5177 336.7295 L296.5959 336.5935 L296.2723 336.4039 L295.9993 336.4465 L296.2774 336.6906 L296.7807 336.8787 L297.5857 336.9927 L298.1035 336.8912 L298.6861 336.8192 L299.2626 336.9625 L299.5558 337.1309 L299.8527 337.4521 L300.1309 337.6087 L300.3767 337.7307 L300.7083 337.7182 L300.903 337.8116 L301.0705 337.9932 L301.0489 338.2762 L300.7721 338.8643 L300.4311 339.1928 L299.9367 339.3854 L299.4779 339.4347 L299.0454 339.6111 L297.9595 340.5204 L297.4858 340.7682 L295.9326 340.3911 L291.9563 339.606 L290.511 339.345 L288.9363 339.1208 L285.5121 338.3769 L285.2264 338.0755 M286.5009 305.7597 L286.5478 304.6304 L286.6698 302.7241 L286.8152 301.7647 L286.9709 300.5553 L287.1454 299.4577 L287.5873 297.8131 L287.8382 296.8434 L288.2346 295.7413 L288.6511 294.829 L289.6648 292.8564 L290.8319 290.8391 L292.5548 287.6527 L293.3433 286.0007 L293.7252 285.3868 L294.1469 284.6324 L294.3411 284.3428 L294.6375 284.159 L294.9734 284.1325 L298.112 284.8692 L298.2949 285.1015 L298.2926 285.4853 L298.2016 285.8022 L297.9896 286.2381 L297.7742 286.655 L297.5289 287.1483 L296.8291 288.2504 L296.1498 289.4003 L295.2764 290.8773 L294.7079 291.772 L294.2238 292.3925 L293.6942 293.3623 L293.2767 294.3812 L292.7786 295.9663 L292.1894 297.7161 L291.649 299.0754 L291.1424 300.2282 L290.9093 301.2435 L290.4876 302.2845 L289.9556 303.2468 L289.6151 303.9945 L289.4275 305.298 L289.2891 307.1741 L289.3318 310.1309 L289.1821 312.1438 L289.2384 313.0789 L289.336 314.933 L289.3984 316.4371 L289.2652 317.595 L289.2258 319.1329 L289.1986 319.6012 L289.215 319.9614 L289.6395 320.5524 L290.5078 321.3692 L291.0674 321.8058 L292.1078 322.6902 L293.341 323.5246 L293.9893 324.0958 L295.5733 325.4947 L296.5345 326.013 L297.489 326.7114 L298.1148 327.0414 L298.332 327.3215 L298.331 327.656 L297.2268 328.9866 L296.7873 329.3049 L296.412 329.3269 L295.9913 329.2233 L295.2839 328.9314 L292.5342 327.8177 L291.392 327.2671 L290.4064 326.7731 L288.789 325.6329 L287.7393 324.4347 L287.4353 323.8539 L287.1229 322.9416 L286.8705 321.6345 L286.8386 320.3128 L286.8105 318.7043 L286.7584 316.7253 L286.6998 315.3175 L286.7335 314.1905 L286.6988 313.2833 L286.598 310.5757 L286.6158 309.5391 L286.7134 308.0909 L286.5802 306.719 L286.5009 305.7597 M289.8979 315.0969 L289.9782 309.956 L289.9725 306.5963 L290.0499 305.5325 L290.2962 304.7914 L292.0107 301.1553 L292.9437 299.6878 L293.8354 299.4004 L293.7045 298.4468 L293.7266 298.0094 L293.7941 297.6403 L294.0183 297.1581 L294.3556 296.6684 L295.5386 295.2899 L296.7653 294.4107 L298.666 292.9101 L300.6741 291.1706 L303.6837 288.865 L305.2091 287.4946 L305.6571 287.2167 L306.0253 287.0483 L306.3199 287.0057 L306.6727 287.0594 L307.5006 287.4387 L308.6161 288.2394 L310.6406 289.4436 L312.0671 290.42 L312.2064 290.692 L312.2402 290.9912 L311.5239 292.0507 L308.5945 295.9869 L307.4485 297.1397 L307.04 297.4793 L306.7768 297.7411 L306.5596 298.0506 L306.4531 298.4557 L306.4241 298.8475 L306.5287 299.2276 L306.084 300.7215 L305.2903 302.4389 L304.9249 302.2029 L304.6819 302.2279 L304.0313 301.8221 L302.8469 301.5868 L302.2929 301.8412 L300.7369 301.9191 L299.2068 302.0595 L298.4821 301.9713 L296.906 301.12 L296.3487 300.7377 L295.6676 300.4304 L295.2595 300.3951 L295.1014 300.5223 L295.131 300.7465 L295.2966 301.0185 L296.6288 301.9272 L297.3183 302.7116 L297.8273 303.0175 L298.7898 303.4262 L300.8988 304.1393 L301.9594 304.4518 L302.6522 304.7606 L303.0706 305.1605 L303.2484 305.7111 L303.3774 306.583 L303.1973 307.7924 L302.6977 309.9758 L302.1503 312.6224 L302.0339 312.9025 L301.6859 313.0753 L301.252 313.123 L300.5498 312.8944 L299.6107 312.8907 L298.377 313.0907 L297.4881 313.5575 L296.3534 313.9236 L295.5621 314.5382 L294.8622 315.2388 L294.3439 315.6564 L293.1829 315.8534 L290.3042 315.8857 L290.0588 315.7593 L289.9514 315.4152 L289.8979 315.0969 M303.216 313.2362 L303.2906 312.1762 L303.3117 310.5198 L303.573 309.2443 L303.8652 308.1703 L304.5792 306.586 L304.8995 305.6891 L305.7753 304.0541 L306.0202 303.3755 L306.1665 303.0579 L306.3579 302.8741 L306.8551 302.8954 L307.8857 302.6999 L309.4154 302.372 L309.8056 302.2639 L310.528 302.2169 L310.6514 302.2088 L311.0342 302.3499 L311.1852 302.9366 L310.3085 304.8341 L310.0003 305.806 L309.148 308.0747 L309.2057 308.8429 L308.6207 309.6494 L308.1381 310.4882 L307.4898 311.7145 L306.8683 313.967 L306.7219 315.2476 L306.5864 316.8083 L306.6811 318.1845 L306.8218 318.8271 L307.6774 320.8369 L307.525 321.1832 L307.2276 321.3905 L305.8152 321.6096 L305.4418 321.5081 L305.0961 320.6693 L304.809 320.1988 L304.3296 318.93 L304.164 318.4676 L304.1476 318.0287 L303.58 315.9409 L303.292 314.6154 L303.216 313.2362 M308.1155 298.8747 L308.1446 298.4998 L308.2295 298.2447 L308.4542 297.844 L308.6644 297.6499 L309.5533 296.5427 L310.6425 295.3539 L312.1956 293.0307 L312.9705 292.2396 L313.8486 291.2339 L314.5419 290.134 L314.9322 289.726 L315.3492 289.6091 L315.9032 289.8039 L316.5927 290.2877 L319.2008 291.9433 L319.2562 291.9786 L319.5747 292.3411 L319.4006 292.8506 L318.4869 293.9578 L317.6083 295.2936 L316.6908 296.4221 L312.9236 299.8922 L311.9395 301.1075 L311.5023 301.2538 L311.218 301.3118 L310.9713 301.253 L309.2704 300.8494 L308.2469 299.2497 L308.1155 298.8747 M309.0551 314.139 L309.1804 312.8907 L309.3436 311.9416 L309.587 310.897 L310.157 309.6413 L311.2208 307.9122 L312.0244 306.8786 L312.3621 306.586 L312.7074 306.3779 L313.0709 306.3154 L313.4471 306.4279 L315.5715 307.7681 L316.7644 308.615 L317.8189 309.4642 L318.5577 310.1339 L318.9635 310.4427 L319.2003 310.3265 L319.2027 310.3 L319.3664 310.4007 L319.8599 313.3737 L319.9537 314.5117 L319.9119 315.4042 L319.5142 316.6179 L319.281 317.2171 L318.7219 318.3757 L317.689 319.9165 L317.181 320.9398 L316.4028 322.0992 L315.1625 324.8302 L314.6442 326.2901 L314.4687 327.3017 L314.4889 327.8133 L311.7429 327.1083 L311.6932 327.3443 L313.1408 327.6847 L313.5977 327.7464 L314.2877 328.0192 L313.957 328.633 L313.061 330.4598 L312.7205 331.8102 L312.3898 331.783 L311.8804 331.7411 L312.0614 329.61 L310.8367 329.4879 L310.6143 329.2711 L310.5487 328.9219 L311.151 327.7449 L311.3297 327.395 L311.3541 326.9378 L311.165 326.5283 L311.325 322.5174 L311.453 320.7259 L310.9441 319.6717 L310.0557 317.9816 L309.2315 315.6475 L309.0551 314.139 M313.1051 336.5443 L313.1929 335.7562 L313.456 334.6168 L313.8941 333.6531 L313.9377 332.9959 L314.7263 332.2071 L318.9761 328.6146 L323.3137 325.6351 L327.8262 323.7076 L328.5711 323.7517 L326.8186 326.2049 L325.8547 329.0968 L325.0662 331.1993 L323.7954 332.3821 L323.3137 332.0755 L322.4374 331.6815 L321.6485 331.6815 L320.7286 331.8565 L320.0278 332.6452 L319.4579 333.7406 L318.8007 334.8359 L318.2312 335.5805 L317.1359 336.6759 L316.2597 337.2015 L315.2085 337.5087 L314.0691 337.5962 L313.2369 337.114 L313.1051 336.5443 M313.5001 305.3134 L313.5752 304.8025 L314.4861 303.6321 L315.0781 302.9344 L315.5912 302.5205 L317.4005 301.5111 L317.9432 301.2766 L318.3982 300.9634 L318.5952 300.4509 L320.8534 298.3616 L322.4872 296.7809 L323.3958 295.9597 L324.523 294.7003 L325.3697 293.588 L325.8584 293.2586 L326.4105 293.0961 L327.7244 292.991 L328.065 292.9373 L328.6462 292.5991 L329.0083 292.5447 L329.4014 292.7072 L329.9071 292.9903 L330.4174 293.3512 L330.7791 293.5586 L331.0835 293.7328 L331.137 293.6431 L331.3176 293.3395 L330.878 293.0608 L330.4033 292.7175 L330.1683 292.4352 L329.9624 292.0918 L329.8634 291.7147 L329.9235 291.3147 L330.4474 290.5023 L331.0225 289.6936 L331.5826 288.8077 L332.4382 287.0902 L332.7745 286.6388 L333.0438 286.3411 L333.352 286.1587 L333.7169 286.119 L334.1607 286.2455 L334.6583 286.5602 L335.1152 287.0145 L336.3128 288.5511 L336.7823 289.4289 L337.2767 290.6633 L337.5891 291.7625 L338.661 296.6706 L338.6207 297.0676 L338.4349 297.4198 L337.9086 297.9476 L337.2495 298.4483 L336.4962 298.7394 L335.8442 298.7615 L335.1757 298.6431 L334.6302 298.3843 L333.6639 297.3198 L333.3679 296.7441 L333.3482 296.7059 L333.1953 296.0619 L333.1432 295.5208 L333.2586 295.0789 L333.5124 294.9863 L333.5888 294.7555 L333.3956 294.5533 L332.9786 294.4129 L332.1994 293.946 L331.2632 295.7752 L330.0196 297.3073 L328.8366 298.6174 L327.5875 299.8466 L326.957 300.2201 L326.2112 300.4811 L322.0974 301.3192 L319.7567 301.8515 L319.0254 301.7897 L318.5854 301.8257 L318.2134 301.986 L318.2509 302.3212 L318.6107 302.5786 L319.2637 302.7771 L321.1498 303.4571 L322.4257 303.9894 L324.1031 304.7194 L327.4899 306.3169 L327.8933 306.6867 L327.891 307.105 L327.58 307.5189 L325.9452 308.3886 L324.8696 309.1848 L324.1177 309.8295 L323.279 309.9236 L322.0298 309.8589 L321.2549 309.7413 L320.4495 309.7325 L319.9682 310.2456 L319.5634 310.1604 L319.3556 309.8119 L319.266 309.498 L318.5385 308.8569 L314.0489 305.7104 L313.6005 305.6045 L313.5001 305.3134 M317.0928 325.8645 L317.3798 324.4119 L317.6702 323.4503 L318.0483 322.0352 L318.2298 321.4934 L318.6131 320.9825 L319.1736 320.4811 L319.8641 320.0092 L320.7065 319.5276 L322.3272 318.8498 L325.0554 317.8273 L326.0737 317.3898 L326.5625 317.0708 L328.1738 315.5262 L329.771 313.6729 L330.3288 312.8224 L330.6731 312.3717 L331.2782 310.9926 L331.5118 310.3147 L331.7369 309.8979 L332.0437 309.4362 L332.4799 309.0576 L333.0039 308.7525 L333.7526 308.3768 L334.0354 308.1548 L334.079 307.8394 L334.0246 307.466 L333.7882 306.5757 L332.9715 304.2856 L332.8744 303.8092 L332.9608 303.3358 L333.1817 302.7374 L333.951 301.5964 L334.2615 301.2773 L334.6931 301.045 L335.1542 301.0178 L335.6134 301.1597 L335.8653 301.2714 L336.3484 301.4853 L337.1576 301.9272 L338.0925 302.558 L339.3083 303.4468 L341.6199 305.4002 L342.2443 306.0015 L342.5257 306.3603 L342.6017 306.7948 L342.7734 308.5981 L342.7847 309.5333 L342.6847 310.7919 L342.4249 311.3175 L342.1031 311.6564 L341.5242 311.7071 L341.2587 311.9299 L341.133 312.2769 L341.1513 312.8216 L340.8431 313.5641 L340.3675 314.3162 L339.6052 315.2263 L338.4527 316.3084 L336.749 317.7831 L334.3928 319.8923 L332.8186 321.042 L331.873 321.6573 L331.4686 321.8779 L331.2026 321.8492 L330.9554 321.7213 L330.7908 321.4794 L330.6088 320.9994 L330.227 320.8185 L329.9723 320.8119 L329.7382 320.9362 L329.537 321.2685 L329.4061 321.711 L328.7705 322.094 L327.4556 322.4917 L325.2697 323.3018 L323.8649 323.9752 L322.6959 324.7037 L318.8021 326.7871 L317.8255 327.1341 L317.4676 327.1502 L317.279 327.0532 L317.1556 326.7775 L317.0928 325.8645 M319.6858 311.1072 L319.9931 311.5542 L320.3735 312.0431 L321.45 312.2622 L321.9885 312.1144 L323.6078 311.3962 L324.3002 311.4131 L325.0235 311.0499 L325.4869 310.7154 L325.6366 310.2 L325.8204 309.7759 L326.1882 309.4362 L326.8018 308.9995 L327.4298 308.5989 L327.8689 308.5217 L328.1893 308.6452 L329.0899 309.6641 L329.3315 310.0545 L329.3085 310.6117 L329.1612 311.416 L328.6518 312.768 L328.2822 313.4325 L327.9993 314.0567 L327.6832 314.658 L327.1357 315.3586 L326.654 315.7387 L326.0198 316.1055 L324.9681 316.4827 L323.8963 316.8128 L322.9642 317.2766 L321.7324 318.0956 L321.3098 318.2551 L320.9425 318.2 L320.6784 318.0346 L320.6784 317.6508 L320.9777 317.2575 L321.5284 316.6113 L321.8042 315.9416 L321.8009 315.1359 L321.6353 314.3838 L321.412 313.4722 L321.1827 312.9672 L320.9031 312.7782 L320.6967 312.8723 L320.6202 313.1377 L320.2131 313.4972 L320.0897 313.2223 L319.6858 311.1072 M323.4267 339.4104 L323.5609 339.0414 L323.9169 338.7202 L324.166 338.3004 L324.3851 337.7594 L324.6008 337.2735 L324.8157 336.3583 L325.0943 335.5247 L325.4095 334.9601 L325.691 334.4632 L326.1202 334.0508 L327.0616 333.0238 L327.8309 332.0851 L328.573 330.903 L329.1922 330.0451 L329.7438 329.4174 L330.3625 328.8903 L331.1116 328.3522 L331.4377 328.0765 L331.6469 327.8045 L332.0324 327.5244 L332.3646 327.3774 L332.7075 327.4097 L333.0344 327.5222 L333.412 327.6876 L334.0227 327.8736 L334.467 328.025 L335.0167 328.1324 L335.2226 328.3742 L335.2386 328.7307 L335.0421 328.9873 L334.5491 329.2799 L334.1156 329.4916 L333.6822 329.7386 L333.1728 329.9805 L332.6737 330.2128 L332.3172 330.4634 L332.2018 330.8207 L332.1483 331.2846 L332.1455 331.6308 L332.1568 332.0314 L332.1577 332.6769 L332.0193 333.2025 L331.8143 333.5568 L331.4241 333.881 L331.0629 334.2603 L330.8021 334.644 L330.4779 334.9454 L330.0478 335.3269 L329.4722 335.6195 L328.8713 335.7327 L328.3586 335.6938 L327.8694 335.7062 L327.3928 335.9062 L326.9439 336.312 L326.5639 336.8832 L326.4223 337.4418 L326.3425 337.9005 L326.3449 338.3894 L326.2051 338.815 L325.5104 339.3876 L324.8621 340.1066 L324.3203 340.3455 L323.8376 340.2087 L323.5332 339.8287 L323.4267 339.4104 M323.9338 302.5168 L329.097 301.9831 L331.7881 300.956 L332.919 299.4621 L335.119 299.4129 L335.7649 299.9282 L333.6817 300.4179 L333.2549 301.0759 L332.2257 301.9316 L329.847 302.8484 L327.5129 303.0042 L324.3851 303.2365 L324.0469 303.0204 L323.9338 302.5168 M338.38 318.7719 L338.6099 318.3742 L338.9012 318.0948 L339.2455 317.6927 L339.4429 317.2119 L340.5884 315.9916 L341.3197 315.0374 L341.6861 314.6823 L342.0979 314.3794 L342.4056 313.9317 L342.5084 313.4377 L342.916 312.3217 L343.0464 311.8424 L343.1632 311.6498 L343.3541 311.6329 L343.5131 311.7953 L343.8706 312.3305 L345.8623 315.5527 L346.3365 316.576 L346.7245 316.7091 L347.042 316.4783 L346.1836 314.994 L344.1164 311.6873 L344.1276 311.4175 L344.41 311.1322 L344.615 310.7389 L344.1839 310.3721 L343.7622 308.5717 L344.2055 308.4217 L346.3384 313.0503 L347.2794 314.2868 L348.1781 315.9784 L348.4211 316.168 L348.6622 316.0894 L348.7992 315.8674 L346.5795 312.035 L345.7342 310.6353 L345.0231 308.8672 L344.8341 308.0879 L345.2408 308.0843 L345.6897 308.2526 L345.9697 308.2827 L346.1902 308.4709 L346.8849 310.1354 L347.3235 309.9604 L348.4732 310.8095 L349.4231 312.0725 L350.6398 314.2287 L350.9452 314.8286 L350.956 315.1668 L350.6647 315.4035 L349.7767 315.8196 L348.9845 315.932 L348.7926 316.0695 L348.6589 316.3246 L347.225 316.9664 L345.4537 317.2039 L344.2923 317.5406 L341.2245 318.7859 L340.3028 319.2299 L339.6742 319.5791 L339.3853 319.6511 L339.3623 319.4607 L338.9115 319.5247 L338.6727 319.3615 L338.5175 319.1388 L338.38 318.7719 M356.7895 234.6291 L356.8467 233.8843 L357.1549 233.849 L357.912 234.5262 L358.875 234.9703 L359.7583 235.4409 L360.7269 235.8505 L361.7978 236.1954 L362.9827 236.3476 L364.0574 236.4483 L365.3886 236.6211 L366.0791 236.6093 L366.7532 236.2571 L368.1651 235.4064 L369.3448 234.6416 L370.6826 233.485 L372.3798 231.8121 L372.9333 231.2474 L373.4483 230.99 L373.915 230.9238 L374.4076 230.9084 L375.0057 231.0525 L375.4607 231.2856 L375.8697 231.615 L376.13 231.9952 L376.0911 232.4151 L375.4921 233.7629 L374.8044 234.4306 L374.1918 234.6541 L373.9446 235.463 L373.886 235.813 L373.4586 236.7505 L373.2316 237.1741 L373.2996 237.866 L373.0712 238.4513 L371.6067 239.4579 L370.7019 239.6866 L369.6178 239.5829 L369.0263 239.6072 L367.8827 240.4183 L366.9019 240.9469 L365.4336 241.2161 L363.987 241.3771 L362.7646 241.3675 L361.5722 241.0793 L359.1827 240.391 L358.366 239.6403 L357.6235 238.7469 L357.3491 238.2888 L357.1722 237.2888 L357.0371 236.2093 L357.0357 235.3122 L356.7895 234.6291 M357.7337 231.0856 L358.0349 230.1606 L358.9172 228.345 L359.4595 227.4237 L359.7794 226.9648 L360.0852 226.8177 L360.4722 226.7641 L360.8568 226.7861 L361.2753 226.8722 L361.9245 227.2053 L362.7454 227.9215 L363.3153 228.0362 L364.0128 228.0685 L364.851 228.0605 L365.648 227.956 L366.3014 227.9457 L366.6955 228.0472 L366.9764 228.3737 L367.0815 228.9208 L367.1322 229.3348 L367.2124 229.4885 L367.3756 229.5113 L368.2223 229.1642 L369.3894 228.5509 L369.8406 228.1112 L369.9152 227.4972 L370.0194 227.053 L370.2595 226.8413 L370.5982 226.9148 L371.1822 227.4141 L371.754 227.8884 L372.0941 228.5274 L372.2029 229.2223 L372.0575 229.8348 L371.618 230.2378 L371.2624 230.4768 L370.6812 231.193 L369.0925 232.946 L368.5019 233.5239 L367.6932 234.0387 L366.7672 234.3835 L365.5387 234.6019 L364.5344 234.674 L363.601 234.6063 L361.9517 234.5659 L361.3212 234.3975 L360.6744 233.9637 L360.0097 233.5188 L359.072 232.8651 L358.3501 232.2812 L357.9786 231.9312 L357.7576 231.5084 L357.7337 231.0856 M361.6576 245.719 L361.7429 245.3977 L362.0244 245.258 L362.3964 245.3463 L363.1924 245.4713 L364.5935 245.6139 L366.1499 245.7595 L367.0562 245.6573 L368.4165 245.383 L371.5804 245.1065 L373.0989 244.9485 L374.2406 244.6477 L376.2858 243.8823 L377.5307 243.0014 L378.0232 242.5609 L378.6321 241.1925 L379.2138 239.4094 L379.4839 238.3182 L379.7865 237.2219 L380.0375 235.5049 L380.2218 232.6283 L380.3658 231.9298 L380.7842 231.5246 L381.0403 231.3349 L381.1445 230.9775 L381.0249 230.8084 L380.8302 230.7591 L380.6876 230.5738 L380.8354 230.4973 L381.3237 230.5091 L381.8045 230.4378 L382.4481 230.1642 L382.8219 230.0694 L383.1446 230.1341 L383.4758 230.5407 L383.586 231.3489 L383.7136 232.4673 L383.859 235.0711 L383.6029 237.6513 L383.0677 240.5844 L382.5484 241.5058 L381.3654 243.2426 L380.4662 244.2124 L378.7883 246.0301 L378.2536 246.3088 L377.6062 247.122 L376.3341 248.0573 L375.7374 248.2823 L375.0399 248.383 L374.0666 248.4404 L372.6119 248.519 L370.9472 248.6337 L369.5634 248.6293 L367.8832 248.6521 L364.9116 248.6279 L363.6685 248.4882 L363.1835 248.1779 L362.6665 247.6823 L362.2101 246.9676 L361.7964 246.0896 L361.6576 245.719 M364.9791 257.5306 L364.9983 256.8858 L365.094 256.4755 L365.4646 256.1564 L366.1105 256.1888 L368.6703 256.741 L370.374 256.9976 L371.071 256.9682 L372.71 256.8116 L374.4179 256.313 L375.9504 255.4028 L377.1615 254.4432 L378.2981 253.6888 L379.1223 253.3249 L379.9699 252.73 L380.4221 252.505 L380.9001 252.0947 L381.3162 252.0359 L381.5258 252.2242 L381.7693 252.4999 L381.6572 252.9638 L380.6792 254.5293 L380.2115 255.1278 L379.8451 256.1557 L379.8902 257.1652 L380.2218 257.963 L380.6641 258.4887 L381.2116 258.7041 L381.7196 259.0056 L382.2726 259.2181 L383.0729 259.4681 L383.7178 259.4938 L384.1072 259.6806 L384.5275 260.0629 L384.8708 260.9791 L385.0008 261.4607 L385.0618 261.5923 L385.2489 261.7643 L385.6969 261.6518 L386.8142 261.543 L387.7064 261.4026 L388.472 261.1349 L388.8289 261.1121 L389.0677 261.4459 L389.306 261.6901 L389.5654 262.1937 L389.7905 262.8643 L389.8675 263.3562 L389.9116 263.8936 L389.8431 264.2267 L389.4387 264.8428 L389.2624 265.2539 L389.1479 265.6752 L389.0344 265.9751 L389.3158 267.6449 L389.4772 267.7809 L389.5696 267.9875 L389.6118 268.3846 L389.4903 268.7103 L389.2286 268.9992 L388.418 269.1933 L384.6002 269.7404 L382.9955 269.5514 L381.5043 269.572 L380.158 269.797 L378.6982 269.3955 L378.1597 269.158 L377.9022 269.1779 L377.2164 269.4065 L376.9734 269.361 L376.6624 269.4632 L376.3683 269.5117 L374.613 269.7992 L374.235 269.8117 L371.982 269.658 L371.7184 269.4654 L371.4219 269.1507 L371.0879 268.6787 L370.6784 268.15 L370.2661 267.9471 L369.6811 267.2361 L369.0774 266.4082 L368.3551 265.7987 L367.7875 265.6274 L367.0482 265.0811 L366.6242 264.0311 L366.4154 263.3385 L366.1631 261.3415 L366.1429 261.0827 L366.1617 260.0511 L366.1002 259.6578 L365.8736 259.1085 L365.5561 258.6144 L364.9791 257.5306 M365.4496 249.8779 L365.4623 249.6205 L365.6016 249.3668 L365.8568 249.2507 L367.4591 249.3058 L369.5892 249.394 L371.3905 249.2676 L373.4352 249.0683 L375.1483 248.9301 L375.8115 248.783 L376.3786 248.6212 L377.0898 248.2382 L377.9294 247.5815 L378.7986 246.8418 L379.7175 245.9801 L381.0038 244.5676 L382.1446 243.1271 L383.0278 241.597 L383.5166 240.8065 L383.6991 240.3616 L383.7859 239.9293 L383.8548 238.8226 L384.1522 237.0873 L384.2193 235.8652 L384.2456 235.3144 L384.2868 234.6409 L384.4229 234.3799 L384.6194 234.2284 L384.8605 234.2541 L385.0285 234.4754 L385.3502 235.4218 L385.5477 236.7689 L385.7719 239.9955 L385.9033 240.7646 L386.2452 241.7984 L386.7307 242.8698 L387.0098 243.5389 L387.1482 243.9837 L387.3185 244.6168 L387.2303 245.1896 L387.0994 245.5963 L386.7021 246.197 L386.2237 246.9345 L385.7311 247.4852 L384.9731 248.1492 L384.2118 248.7933 L383.1948 249.5984 L380.5905 251.6095 L377.5302 253.7043 L376.1282 254.6101 L375.0282 255.2675 L373.6486 255.9005 L372.6626 256.0785 L371.6761 256.1932 L370.1652 256.3439 L369.4311 256.2402 L368.7852 255.9476 L367.962 255.1697 L367.3353 254.2396 L366.8854 253.544 L366.3526 252.3168 L365.7995 251.1837 L365.4885 250.2551 L365.4496 249.8779 M373.3339 241.5072 L373.3615 241.2021 L373.5018 240.9058 L374.1214 240.3153 L374.6787 239.6116 L375.024 238.9373 L375.319 238.0675 L375.599 236.7652 L375.8706 235.6586 L376.1765 234.0968 L376.328 233.2254 L376.4232 232.3195 L376.5386 231.5231 L376.7286 231.0452 L376.9664 230.9319 L377.4317 230.879 L377.8098 230.8194 L378.4154 230.7238 L378.9562 230.5121 L379.1654 230.526 L379.346 230.6576 L379.5435 230.9209 L379.6289 232.1798 L379.6444 233.6092 L379.528 235.6181 L379.0683 237.7961 L378.3722 239.8344 L377.7807 241.2609 L376.9627 242.3896 L376.2984 243.069 L375.7623 243.2727 L375.1651 243.3462 L374.704 243.2999 L374.3222 243.0918 L373.9193 242.7198 L373.4826 241.9455 L373.3339 241.5072 M380.6899 256.6049 L380.8236 255.9954 L381.0859 255.3866 L381.3368 254.9329 L381.9668 254.0374 L382.7389 253.3565 L382.9317 252.9058 L383.0569 252.5366 L383.6161 251.5947 L384.1569 250.7499 L384.7517 249.897 L386.2978 248.3507 L387.2561 247.5271 L388.1586 246.8713 L388.8505 246.4065 L389.4908 246.022 L390.011 245.7492 L390.459 245.6727 L390.975 245.7257 L391.3427 245.9485 L391.68 246.3235 L391.741 246.8198 L391.6284 247.1411 L391.7213 247.558 L392.5867 249.8948 L393.136 251.5477 L392.9981 251.7661 L392.5614 252.2124 L391.3249 253.0175 L389.3768 254.0175 L388.084 254.8594 L388.4851 254.9116 L390.0424 254.4197 L391.6973 253.9491 L392.2645 253.8535 L392.5056 254.03 L393.2842 255.3395 L393.9888 256.3542 L393.9977 256.5851 L394.0005 256.6652 L393.8251 256.8233 L392.9066 257.1718 L392.3597 257.6196 L391.915 257.7939 L391.4042 257.9946 L391.1626 258.1159 L391.1945 258.3181 L391.8048 258.9019 L392.1261 259.2093 L392.6965 259.985 L394.0277 261.7753 L394.0915 262.1305 L394.0376 262.4143 L393.8176 262.6378 L393.7524 262.704 L393.507 262.7746 L391.3634 263.3914 L390.9811 263.3914 L390.7573 263.1576 L390.4693 261.9702 L390.1799 260.9996 L389.6038 260.3379 L388.9176 259.7262 L387.9935 259.2424 L386.9245 258.8571 L386.0323 258.6586 L383.9045 258.4218 L382.904 258.4394 L381.9935 258.3394 L381.3523 257.9255 L380.8386 257.2682 L380.6899 256.6049 M404.8939 210.351 L405.0572 209.6891 L405.211 209.2634 L405.4329 208.9339 L405.9184 208.7508 L406.2533 208.5037 L406.615 208.4669 L407.2252 208.2309 L407.51 208.0456 L407.6976 207.7654 L407.881 207.6558 L408.1273 207.4359 L408.632 206.6917 L408.8056 206.2755 L408.9693 206.1689 L407.7089 204.8349 L407.7924 204.5613 L407.7914 204.2775 L408.1428 204.2385 L408.5283 204.2312 L408.9702 204.2819 L410.0064 204.6349 L410.3066 204.7614 L410.8873 205.1011 L411.1641 205.4615 L411.2978 205.8034 L411.3738 206.416 L411.5061 206.8793 L412.0924 207.4323 L412.7327 207.3845 L413.4443 207.1124 L414.2619 207.7088 L414.5513 207.7639 L414.8323 208.022 L415.1541 208.4147 L415.7334 208.7876 L415.6696 209.0192 L415.5242 209.2442 L415.649 209.5266 L415.9914 209.7958 L416.0256 210.0061 L416.2597 210.223 L416.6101 210.162 L416.7869 210.7797 L417.4094 211.5077 L417.9948 211.6305 L418.5221 212.2615 L418.9067 212.5431 L419.3678 213.0557 L419.8172 213.7513 L419.9101 213.9587 L419.7689 214.0815 L419.3322 214.1102 L417.0487 213.8638 L416.3629 213.7094 L416.149 213.6226 L415.8235 213.5925 L415.0513 213.6535 L414.6189 213.5807 L414.4209 213.4704 L414.1934 213.4255 L413.7539 213.4344 L413.5822 213.3601 L413.4987 213.2123 L413.2004 213.0976 L412.6276 213.0262 L412.3541 212.9453 L411.8762 212.963 L411.6815 213.2557 L411.6008 213.5108 L411.5431 213.7822 L411.5666 214.0602 L411.4849 214.4359 L411.3747 214.7558 L411.1678 214.8786 L410.7025 214.9316 L410.4187 214.9963 L410.111 215.136 L409.5519 215.0227 L409.2442 214.8492 L408.7169 214.811 L408.5616 214.7146 L408.3083 214.633 L407.8102 214.2683 L406.7594 213.8285 L406.2538 213.5447 L405.279 211.6621 L404.8939 210.351" stroke-dasharray="" fill="none" fill-opacity="1.0" stroke="#ff0000" stroke-opacity="1.0" stroke-width="1.0px" stroke-linecap="butt" stroke-linejoin="miter" stroke-dashoffset="0.0px"/>
</g>
</svg>