<?xml version="1.0" standalone="no"?>
<!DOCTYPE svg PUBLIC "-//W3C//DTD SVG 1.1//EN" "http://www.w3.org/Graphics/SVG/1.1/DTD/svg11.dtd">
<svg width="512px" height="512px" version="1.1" xmlns="http://www.w3.org/2000/svg" xmlns:inkscape="http://www.inkscape.org/namespaces/inkscape">
<g id="layer" inkscape:groupmode="layer" inkscape:label="layer">
<path d="M49.0429 159.1304 L49.8206 161.3231 L49.9343 161.1559 L49.9791 161.1088 L50.3906 160.6897 L50.9955 160.3393 L51.0766 160.2973 L51.7458 159.9527 L51.9624 159.8948 L52.297 159.8058 L52.8908 159.687 L53.3255 159.6603 L53.744 159.6089 L54.1732 159.6936 L54.6085 159.7254 L54.9734 159.7131 L55.5373 159.4605 L55.6631 159.4358 L55.849 159.3996 L55.9846 159.3729 L56.4525 158.869 L56.8109 158.4839 L57.1753 158.0923 L57.179 158.0894 L57.6842 157.7079 L58.8003 156.9941 L59.25 156.7226 L59.9448 156.3027 L60.4379 156.0559 L60.4999 156.0248 L61.2203 155.9292 L62.0689 155.9697 L63.6911 156.669 L63.7853 156.8298 L63.906 157.0361 L64.1861 157.2294 L64.9568 157.7614 L65.6382 158.4759 L66.2295 159.6226 L66.5553 160.2582 L66.7683 161.1435 L67.355 161.8783 L68.1234 162.3344 L69.3896 162.6905 L70.2629 163.4159 L71.2886 164.3722 L71.7388 164.6313 L73.8857 165.9879 L75.0428 166.8421 L75.9502 167.8454 L76.4064 168.5302 L76.8845 168.9877 L77.4372 169.3308 L78.2812 169.6378 L78.9737 169.9005 L79.2603 169.839 L80.4235 170.2075 L80.7422 170.5166 L81.2199 171.323 L81.8481 172.2365 L82.1174 172.4588 L83.2568 173.276 L84.2825 173.8587 L85.4634 175.0712 L86.8042 175.9819 L89.1729 177.8017 L90.5589 178.2816 L93.0609 179.0301 L94.4282 179.623 L95.5 180.1536 L96.1096 180.5966 L98.8199 182.7103 L99.6094 183.3407 L103.1744 185.6578 L103.4051 185.8323 L103.7788 185.7867 L104.4704 185.7736 L105.8502 185.7751 L106.2729 186.2412 L107.156 186.8869 L108.1743 187.5688 L106.6606 187.702 L105.0841 188.1247 L104.5049 188.5235 L104.2691 189.3864 L104.1745 189.8887 L103.7527 190.8254 L103.4708 191.4899 L103.6986 192.7226 L105.3716 190.7031 L106.2408 190.014 L106.7525 189.7461 L107.3559 189.6716 L107.9762 189.7324 L108.9059 190.0979 L109.3584 190.179 L109.7107 189.9995 L110.1977 189.529 L110.8525 189.0375 L111.5361 188.7827 L112.278 188.7255 L113.3834 189.1381 L114.3411 190.0132 L114.8462 190.8073 L114.9553 191.4197 L115.0284 192.3013 L115.1617 192.8326 L115.4917 193.3053 L116.5239 194.5141 L117.2602 194.9715 L118.3684 195.7207 L119.1681 196.8615 L119.9785 198.0934 L120.4147 199.0692 L121.9231 201.1096 L122.5136 201.6272 L124.6657 202.5269 L126.6271 203.5004 L127.6449 204.1815 L129.0378 205.4489 L129.0117 205.7913 L129.4572 206.2278 L129.7979 206.7699 L130.0435 207.0153 L130.5673 207.5017 L131.093 207.7912 L131.6438 207.7847 L131.8493 208.4195 L132.5437 209.6065 L132.9337 209.9127 L133.135 210.2753 L133.2017 210.5026 L133.458 210.727 L133.9687 211.8575 L134.5308 212.6081 L134.7605 213.3667 L134.7721 213.6214 L134.7246 213.8762 L134.5116 214.0593 L134.1705 214.1607 L133.8634 214.5327 L133.0507 214.9996 L131.8446 215.567 L131.2491 215.9347 L130.5668 216.2416 L130.3692 216.4949 L130.0453 216.8431 L129.597 217.4554 L130.0132 218.3406 L130.9159 217.6479 L131.8554 217.2585 L135.3095 216.5615 L135.7284 216.6469 L136.4917 217.9671 L137.0086 218.9326 L136.5453 219.3698 L135.5937 219.985 L135.1417 220.5127 L134.9641 220.9867 L135.3878 221.7807 L136.4209 223.2862 L137.0691 224.5246 L137.5538 225.6059 L137.5729 226.0821 L137.3488 226.444 L137.6335 227.4103 L138.1335 227.0353 L139.1835 227.0353 L138.7836 228.1101 L136.7084 230.4103 L136.9853 231.624 L139.6863 229.4752 L140.0461 229.693 L140.294 229.6366 L140.609 229.591 L140.91 229.4976 L142.1557 229.782 L143.7006 230.55 L144.7705 231.0674 L145.5921 231.3729 L145.9668 231.603 L146.1266 231.9504 L145.8778 232.6431 L145.5777 233.1323 L144.8735 234.0573 L144.1973 234.5733 L143.646 234.9294 L143.3408 235.0517 L143.7047 235.3731 L149.4866 242.1213 L148.6082 244.713 L143.6954 253.5982 L143.352 257.2392 L142.9344 261.2232 L142.9195 262.6409 L142.6954 265.5957 L142.9964 271.3801 L144.1582 275.788 L144.4266 277.8324 L145.2324 285.726 L151.4774 300.4549 L152.5521 302.6778 L152.7459 303.9319 L154.0037 308.1556 L148.337 310.3915 L152.4519 312.1064 L153.8979 318.377 L153.7129 319.2417 L151.675 319.7974 L142.9051 322.2062 L139.2613 323.4413 L135.741 324.4912 L131.8502 325.9116 L125.0571 326.714 L123.6982 325.5411 L123.0807 326.3436 L122.3398 328.1351 L124.1926 328.876 L129.1949 327.8261 L134.4441 327.023 L138.9528 325.5411 L143.0286 324.0585 L154.7629 321.6505 L157.2751 330.1669 L155.248 337.6701 L150.8367 337.0087 L149.9093 336.8807 L149.1418 336.5609 L149.2378 339.1504 L148.1547 341.1655 L150.7183 339.8045 L152.2422 342.865 L153.0717 356.6625 L151.2123 361.1265 L148.9102 361.6185 L150.681 364.1434 L151.7109 365.2938 L148.8123 374.4457 L141.7023 378.869 L141.6543 379.5534 L147.5424 382.6353 L154.8714 385.2295 L153.5908 386.8341 L151.3595 389.3177 L148.8598 392.8321 L144.7081 396.7683 L143.832 398.2911 L143.9396 399.2214 L145.8046 398.8437 L145.5623 397.8961 L147.0759 396.0991 L149.3985 394.5705 L151.3129 393.7624 L152.1215 394.4627 L153.198 394.9778 L154.5075 395.0697 L155.262 394.5842 L156.0053 394.2703 L160.4054 392.6447 L163.8893 398.3605 L165.3041 397.4823 L166.6789 398.83 L169.4018 397.7521 L169.8194 396.9158 L170.3856 396.6872 L171.0459 397.8194 L174.2493 395.6614 L176.6265 395.0827 L177.462 395.0827 L178.6933 396.6004 L179.787 393.9838 L177.826 389.0442 L177.4998 385.9711 L179.3303 385.6477 L179.6919 385.3923 L184.2612 383.5085 L187.0657 383.6763 L187.6389 384.5018 L186.8155 386.1816 L187.6389 387.1134 L189.002 387.6183 L191.5562 389.9919 L191.7757 390.5446 L195.2923 394.7289 L196.6936 393.9947 L197.3381 395.9197 L197.9038 396.6163 L200.5252 398.2173 L200.7158 398.503 L201.2592 400.1712 L201.4498 401.2006 L201.8594 402.9542 L202.536 405.3653 L202.7746 406.7665 L203.0622 407.8067 L203.0221 412.5326 L202.9172 413.9244 L202.4927 420.5853 L203.2742 423.308 L204.2179 426.1118 L204.5553 425.9895 L206.465 432.6444 L204.216 436.1229 L203.408 437.2824 L205.8322 437.5284 L207.5891 437.7743 L207.9404 442.0615 L209.6274 444.4506 L211.8759 445.7157 L213.0004 447.4372 L215.1026 448.3869 L222.6027 446.1012 L225.1257 447.7714 L226.116 448.4448 L222.194 450.5178 L230.4164 470.2338 L230.7333 473.5247 L224.9081 476.924 L221.5038 476.4618 L216.7253 479.4134 L216.2686 481.4515 L214.686 482.2341 L212.1616 478.5839 L209.791 473.7048 L203.8991 477.776 L207.7466 482.8778 L212.711 483.0152 L209.997 485.7808 L212.9515 487.7054 L210.4704 492.4497 L215.7416 491.9572 L219.0442 491.6412 L220.4851 490.1658 L221.7149 490.7632 L222.9448 491.4654 L224.6667 491.7113 L226.3178 491.1139 L229.3399 489.2516 L233.8323 486.8397 L236.2621 488.7953 L237.5269 488.9356 L238.6183 488.1342 L237.4766 491.7142 L239.2008 497.5144 L237.4812 497.4927 L235.7663 497.4565 L235.3837 497.5448 L234.5052 497.6851 L233.9581 498.2665 L231.7646 498.1769 L227.302 497.4037 L226.2125 496.1041 L225.7907 496.1041 L225.1938 497.1231 L226.6342 498.3526 L224.4206 500.988 L222.2891 502.9674 L213.1845 505.2353 L206.0018 507.0245 L213.7563 508.6517 L214.199 508.7674 L226.1524 506.4532 L227.7927 503.8641 L232.6952 502.5407 L243.861 506.9739 L255.3483 512.0 L264.2627 511.9031 L287.4675 506.8755 L288.6405 504.9446 L288.0393 500.6893 L290.6211 495.7252 L293.3426 490.492 L294.6055 485.9269 L296.1312 481.2859 L296.903 480.1439 L298.1132 479.3339 L300.9321 478.9788 L303.5628 477.9351 L305.9381 476.3034 L306.6003 475.6749 L307.0924 474.1836 L309.2454 469.7326 L309.7785 468.4011 L309.2789 467.4131 L310.2557 467.6127 L310.7441 467.4022 L311.3103 465.7257 L311.2544 464.405 L311.5764 463.7613 L312.5201 463.5508 L313.5523 462.6293 L315.5054 459.5322 L315.6387 458.0676 L315.8717 457.601 L317.2208 457.4882 L319.5127 456.4025 L321.7547 455.9809 L323.1644 455.1483 L323.8858 455.5035 L324.3518 454.9704 L323.6304 456.2803 L322.8754 457.5215 L324.4184 455.4594 L324.7512 454.8156 L324.8844 454.1603 L325.6934 453.0124 L327.0985 450.2198 L328.6014 450.3608 L328.758 448.5771 L328.3255 448.6328 L327.0491 447.8784 L326.3272 447.6339 L326.029 446.9077 L324.1369 440.7211 L320.7224 442.6843 L318.5876 439.9262 L318.0885 440.2264 L315.5441 435.8915 L318.2805 434.2929 L319.3016 430.5409 L318.856 429.7409 L318.6687 429.3531 L318.5466 428.4656 L318.6025 427.7444 L318.891 426.9451 L320.2895 427.2337 L320.9997 425.957 L324.163 427.6439 L324.918 427.4334 L326.172 428.0214 L329.5241 428.4215 L329.8568 430.4968 L329.5031 432.1417 L327.3278 432.6408 L327.6703 434.0932 L328.6978 435.3207 L330.1677 436.9251 L330.9972 435.5298 L331.8104 435.2585 L332.5765 433.3381 L332.4814 429.5318 L333.8972 428.6761 L333.7676 427.199 L336.2725 425.7349 L338.8304 425.3392 L338.8808 425.591 L340.7458 424.4625 L340.8898 424.681 L340.6013 427.6996 L341.4112 428.0106 L341.0561 427.5108 L341.1228 427.2446 L341.0673 426.9227 L341.167 424.6477 L340.7346 424.1587 L341.2225 423.0599 L343.0097 424.5363 L343.176 424.5804 L343.2874 424.0148 L345.1631 422.6382 L345.5224 422.984 L343.7199 424.281 L343.2981 427.089 L343.8867 429.1535 L342.3214 431.9507 L339.9796 438.1331 L338.1925 444.3486 L336.0446 445.1862 L334.5156 445.4003 L330.0027 444.4014 L333.6367 446.3992 L334.4187 447.9891 L335.2733 448.1337 L332.8761 453.6612 L331.9106 454.9039 L331.3276 457.7811 L332.7098 459.8874 L334.6279 464.6415 L336.2613 465.0936 L336.9827 476.9139 L337.9059 481.2816 L340.8278 481.6034 L341.7109 484.0458 L345.6963 484.1037 L351.2829 493.7016 L358.1268 494.8508 L360.6242 494.6729 L361.168 495.4496 L361.7566 495.4612 L363.4636 495.0519 L367.0393 499.2978 L367.3059 499.057 L369.3149 500.4557 L371.0909 502.5754 L371.4851 504.3508 L372.7504 505.717 L374.559 505.717 L376.4058 504.3762 L375.1284 499.7976 L371.9954 496.0774 L377.6077 497.0371 L378.7037 496.9156 L379.0896 498.1074 L380.7067 501.6945 L387.6899 495.0909 L388.2608 496.0824 L386.5458 500.3349 L389.7241 499.8431 L392.8534 499.1467 L394.7016 498.1646 L396.9981 497.9042 L398.5984 497.7321 L397.3155 496.8505 L396.7814 495.8684 L398.0956 493.5143 L399.0775 490.3806 L400.3917 489.8027 L400.167 487.6649 L401.1424 485.3122 L402.0521 484.662 L402.5875 484.8942 L402.8177 487.8102 L401.5036 490.1643 L401.5614 491.7815 L402.1411 492.5589 L402.8862 492.5105 L403.3639 491.1132 L407.7995 487.8377 L408.6229 486.3804 L409.5372 485.8712 L405.8221 482.399 L404.576 482.7461 L404.0163 480.5605 L404.2479 479.8532 L404.6226 478.9867 L406.0813 478.019 L406.8325 477.5279 L407.4965 477.716 L408.0744 475.0443 L407.9924 472.9866 L408.9733 471.2254 L412.5654 471.0005 L413.709 470.4805 L416.9697 470.2498 L420.3782 468.0257 L420.8181 468.3316 L419.8954 473.0177 L420.9267 475.1166 L421.2291 476.1725 L423.5629 468.5638 L424.3058 465.759 L422.9338 465.0075 L422.5176 465.1232 L421.2589 464.358 L421.2198 464.0361 L422.821 461.5119 L424.9992 461.3397 L426.3711 460.9933 L427.168 461.2435 L446.6526 441.2079 L442.9664 431.3416 L442.1789 428.1806 L439.7369 430.6978 L437.5653 429.7286 L433.1987 428.2168 L432.9098 430.2783 L427.8093 429.9904 L420.4812 429.5767 L420.3744 425.5085 L417.4385 424.6246 L415.3447 422.5463 L413.9975 420.8739 L411.4782 421.998 L404.3314 414.9827 L401.8316 410.8971 L397.7093 411.1915 L391.7396 395.2201 L391.1603 381.4582 L400.6531 382.568 L399.9359 374.2323 L393.4103 374.207 L377.548 369.3525 L376.8154 368.1443 L374.5785 373.8887 L371.8617 375.3833 L371.3975 375.5902 L371.0298 377.2983 L371.124 378.7576 L372.022 381.812 L369.2226 382.3842 L369.0288 383.7769 L368.3614 384.2514 L367.4667 384.1892 L363.4011 387.5641 L362.3405 388.2275 L360.9942 388.6543 L360.8581 387.6263 L360.2933 386.2141 L357.3975 382.4363 L353.42 377.6782 L353.6777 375.2922 L352.6571 375.256 L351.6533 375.209 L349.8233 375.6966 L349.0697 376.5134 L347.4373 377.3606 L346.1348 378.3814 L344.4865 380.3586 L342.4929 383.1844 L341.504 384.0004 L339.975 387.2002 L339.385 388.5682 L339.5733 392.0841 L340.1698 393.5288 L341.5333 393.9086 L342.0063 393.6387 L343.3405 393.905 L342.5245 394.7369 L342.4113 395.7866 L344.2982 397.4056 L344.7689 398.9284 L344.8318 400.5452 L344.2171 401.1464 L348.353 408.2777 L347.359 409.5863 L345.5853 409.7179 L343.7958 408.8954 L340.6092 406.9177 L339.9657 406.7296 L338.7102 407.1947 L338.2708 405.0499 L340.7635 402.604 L340.7495 401.8734 L340.1385 400.9373 L340.0127 400.0895 L339.762 399.9484 L339.6991 398.0335 L340.2168 397.3586 L340.6978 397.1481 L340.6721 396.1816 L337.5014 394.0619 L337.4701 393.6228 L337.266 392.414 L337.5643 390.8441 L337.1719 389.7612 L335.3982 389.322 L335.4136 388.6 L334.7076 387.5482 L333.7658 387.4693 L333.4205 387.0613 L333.0434 385.9002 L332.3845 385.0834 L332.6511 384.2674 L330.7991 383.3254 L330.0628 381.5515 L333.7658 380.5004 L334.6917 381.7404 L335.7128 381.2231 L337.4072 377.3454 L336.8895 377.2354 L340.5384 370.6888 L344.0755 365.7604 L347.222 359.0059 L349.204 355.4904 L347.3679 353.2259 L348.2654 351.3114 L347.0771 346.2772 L340.654 333.2354 L338.6906 325.9463 L340.2471 319.5087 L342.0739 317.4103 L353.0719 321.3393 L359.7499 320.5362 L360.5566 317.7164 L362.0898 316.4472 L365.0224 309.911 L367.2248 310.5362 L369.4659 313.6079 L369.8019 315.898 L372.365 316.144 L372.6259 310.7026 L373.8562 308.0181 L376.1085 308.5477 L376.9608 308.3857 L379.2946 306.7445 L378.3137 303.0013 L378.4898 300.2819 L378.2191 298.4961 L376.9692 296.5343 L383.7358 290.9044 L383.1998 289.1749 L381.1028 285.7738 L385.3156 284.8837 L387.5338 285.3592 L388.251 286.1573 L389.7241 289.0375 L392.7779 291.7757 L393.8898 292.5174 L396.7931 289.1011 L398.357 289.4449 L402.2194 290.7575 L402.9906 289.2422 L403.5974 289.1967 L420.1205 248.0863 L420.51 246.7684 L420.0785 246.8552 L419.5598 246.3602 L418.3202 245.3571 L417.1328 244.0269 L416.9455 243.3944 L416.9306 242.9507 L417.138 242.342 L417.2395 241.8311 L417.2642 241.3179 L417.2293 241.0306 L417.0098 241.0132 L416.7013 241.1102 L415.8685 240.8186 L414.5245 240.5168 L414.0115 240.1657 L413.5389 239.5028 L412.9555 239.0034 L411.9647 237.3019 L411.3486 236.0462 L410.973 235.2131 L409.7353 233.1946 L408.9864 231.3845 L408.841 230.3466 L408.2128 229.6952 L407.4499 227.8742 L407.0417 226.3572 L406.7779 226.051 L406.4503 223.0054 L406.3334 220.4092 L406.4033 219.579 L406.8749 218.7003 L408.2175 216.8597 L410.9973 213.6801 L414.0837 210.2232 L415.787 208.6634 L417.9651 207.5429 L420.7347 206.2466 L421.6504 205.6559 L422.4608 205.0443 L423.0112 204.5319 L424.5788 202.6637 L428.3247 198.7507 L429.8383 197.1973 L430.7913 196.6364 L431.5677 196.302 L431.9153 196.362 L432.6349 197.1814 L432.8893 197.9306 L434.5726 197.8242 L435.1472 197.0743 L437.5681 197.2777 L436.6244 193.9517 L432.5771 191.702 L432.9382 192.5033 L433.5068 193.5811 L433.5338 194.1283 L433.3507 194.7211 L432.7281 195.1786 L431.4903 195.6375 L430.1808 196.3447 L427.806 198.6537 L422.0964 204.6202 L421.1587 205.4772 L416.65 207.679 L415.2459 208.418 L412.9429 210.1088 L409.7064 214.1592 L407.1666 216.9806 L405.9498 218.675 L405.7392 219.4733 L405.7965 220.8963 L406.1917 225.2614 L405.9647 226.4621 L404.3211 229.8103 L403.6044 230.555 L403.0498 230.5673 L402.1509 230.4342 L398.954 228.957 L397.2796 227.1902 L396.321 225.9128 L394.0855 222.2982 L391.4288 220.4439 L391.0751 219.8982 L390.857 219.1773 L390.76 218.4151 L391.3165 214.0145 L391.0928 213.3008 L390.6016 213.0793 L390.3681 212.8781 L389.9403 213.0156 L389.4552 213.4354 L388.8335 214.1339 L388.1406 214.4538 L387.8451 214.3394 L387.4681 214.3004 L387.422 213.9189 L387.2453 213.2718 L387.3833 212.6848 L387.4718 212.1753 L387.8549 211.5586 L388.7049 210.8059 L388.607 209.7817 L388.3545 209.2504 L387.1465 208.1611 L384.7242 206.5622 L384.5793 206.0005 L384.6179 204.702 L385.1254 203.0082 L384.973 202.6137 L384.5289 202.5102 L382.8797 202.3155 L380.4159 201.9587 L376.0502 201.4469 L371.7368 200.857 L369.258 200.2859 L369.0591 200.2852 L368.3936 200.6225 L366.1716 202.0861 L365.5103 202.3068 L365.1077 202.4719 L364.6967 202.2518 L364.1351 201.7401 L362.3726 199.5469 L361.442 198.3424 L360.7267 196.3251 L360.3031 194.4497 L359.8753 194.3621 L359.0625 194.3744 L357.8323 194.7305 L357.4888 195.4746 L356.8005 196.2991 L355.8004 198.3743 L354.6004 200.0239 L349.1634 204.5087 L348.9477 205.7269 L348.8983 206.0048 L345.9903 208.2827 L344.6323 212.2723 L342.3302 217.4112 L341.7635 217.4199 L341.7938 217.6689 L342.0679 218.5251 L342.6979 219.5095 L343.2068 220.3375 L343.1495 221.2683 L342.8666 222.0217 L342.5176 222.5096 L342.1774 224.1938 L342.0725 224.6013 L341.8344 224.9581 L341.428 225.1651 L341.0939 225.2122 L340.4997 225.0558 L340.0001 224.9263 L339.5514 224.8365 L338.4814 224.9082 L337.9287 224.8249 L337.5512 224.353 L337.4809 223.8833 L337.506 223.3882 L337.4571 222.8765 L337.3462 222.5559 L337.1309 222.3981 L336.7986 222.4061 L336.4882 222.49 L336.244 223.0112 L336.0385 223.4165 L335.7105 224.2698 L335.2612 225.0913 L333.2615 225.3157 L332.1007 225.2867 L331.3099 224.9379 L330.6244 224.3371 L330.3457 223.7205 L330.2972 223.0423 L330.3461 221.9219 L330.3886 221.4116 L330.2473 221.0027 L330.1784 220.4345 L330.184 219.7259 L330.1635 219.1773 L330.0223 218.7683 L330.0293 218.342 L330.1607 217.9924 L330.2357 217.7268 L329.8922 217.6067 L328.0888 217.3461 L327.1516 217.3237 L327.8772 214.6709 L326.453 215.5395 L324.6472 216.5528 L323.9426 216.8879 L321.9756 217.1087 L321.6894 217.0124 L321.6074 216.9618 L318.8481 216.8742 L317.938 216.5919 L315.3311 216.1924 L312.0312 215.3426 L310.3564 211.3176 L310.2813 210.7928 L311.6813 209.8425 L313.4312 211.4674 L315.6186 210.6799 L316.0977 210.3195 L316.4407 209.0521 L316.8587 208.7777 L317.3723 208.591 L317.4389 207.632 L317.0731 207.4734 L316.5138 207.4865 L313.7233 208.0416 L311.5568 208.8205 L309.3801 210.9369 L308.7934 211.1127 L308.3646 210.8116 L308.2136 210.2659 L308.4839 209.427 L309.3861 208.2414 L309.9318 207.7811 L310.4538 207.4488 L311.7097 206.9154 L312.4507 206.6961 L313.035 206.2386 L313.5989 205.6125 L314.3413 205.0501 L315.6 204.4407 L311.7269 206.2741 L308.277 208.1987 L307.152 208.7235 L306.995 209.4379 L307.2196 210.6958 L307.2122 212.4663 L306.8654 213.0004 L291.3704 219.508 L290.8219 219.621 L289.9686 219.5421 L289.3018 219.2171 L288.8162 218.591 L288.1912 216.1279 L288.6456 214.3286 L288.5347 212.7941 L287.4619 213.384 L286.5182 213.7481 L286.3533 212.9751 L286.0462 211.8981 L286.192 211.2705 L288.1572 209.5464 L290.8494 207.3345 L292.9619 205.8608 L293.7983 204.9234 L294.221 204.0614 L294.7127 203.3622 L295.4909 201.2848 L300.3328 196.189 L311.643 195.0309 L316.4197 187.9589 L324.37 184.4844 L326.0402 179.9458 L328.662 179.2466 L329.4402 179.5404 L332.3435 184.7885 L334.4033 192.0849 L334.4219 191.3755 L332.9866 178.1072 L335.079 166.5106 L339.7438 165.5622 L341.1997 165.5065 L342.9771 166.4461 L348.5888 165.9893 L351.809 166.735 L354.6377 164.2013 L355.0133 162.6623 L355.1019 162.6623 L357.2856 162.5103 L358.6823 161.9138 L360.0538 161.3296 L364.5611 162.2309 L373.7257 170.3182 L372.3696 177.9117 L373.4126 185.5282 L379.2932 170.9726 L389.3727 174.1193 L391.9363 169.3417 L394.1503 166.9529 L394.6163 164.6805 L397.9376 162.1165 L401.8801 158.2407 L404.0615 154.3786 L412.0323 147.7032 L412.2094 147.6887 L413.0011 149.1221 L412.7509 151.8398 L417.5173 150.4686 L417.8155 146.9648 L424.3304 148.6081 L424.8729 150.0879 L434.238 156.0718 L434.9976 153.4802 L438.7164 155.1886 L441.7688 152.9445 L448.6845 141.2674 L450.46 138.082 L450.1566 135.5771 L447.6988 133.5174 L442.5871 132.2838 L441.8652 135.727 L435.0414 133.857 L443.0783 124.4938 L448.574 118.1893 L459.065 106.1548 L462.9571 96.8134 L456.2339 81.4858 L447.8876 86.4674 L445.7947 83.9078 L445.7891 79.7676 L445.7854 76.935 L445.3473 70.8367 L438.0467 67.4523 L433.4084 69.5949 L430.4446 72.8475 L433.1987 84.259 L431.5444 91.1086 L430.0657 95.3667 L431.0779 96.4419 L432.3543 100.0093 L431.7746 105.64 L429.7004 106.6052 L429.2712 109.502 L430.5946 112.9345 L429.1999 122.1959 L427.0902 125.5219 L421.9053 124.1267 L420.1885 123.7336 L417.508 122.7266 L415.7548 121.8382 L415.0395 120.6226 L415.574 118.9328 L413.9476 118.1509 L412.8939 117.7259 L410.103 122.3501 L407.4942 121.6956 L405.0271 124.5915 L403.2059 124.5003 L399.9764 124.4641 L398.3971 124.724 L393.3921 129.1019 L392.2709 129.474 L389.8406 127.8741 L385.7396 125.6225 L384.4753 123.1892 L383.7642 120.3837 L383.3164 117.55 L379.6441 116.5111 L377.8668 116.435 L376.4841 116.8296 L371.9013 120.514 L362.1038 126.6795 L358.2382 129.4617 L353.6358 131.5084 L350.1029 128.737 L347.8758 126.9908 L347.585 126.72 L347.318 126.4717 L346.8538 127.1776 L345.9572 129.8889 L345.3332 131.1978 L344.6892 132.0637 L344.0764 132.3439 L343.3974 132.3583 L342.7273 132.1658 L341.2924 131.2796 L339.6325 129.9417 L337.5139 128.3432 L335.2575 127.478 L333.0313 126.7005 L331.2036 125.6507 L329.7799 124.5329 L329.2473 123.8111 L329.1942 123.1552 L329.5255 122.4391 L330.184 121.3423 L329.8806 121.2344 L327.0896 120.0413 L327.3166 120.6697 L326.9177 121.7477 L326.0411 123.0943 L325.3043 124.0826 L327.3641 124.8833 L326.858 127.0878 L328.264 130.1329 L328.4639 133.5326 L326.6367 133.091 L324.7642 132.1831 L322.7785 130.6396 L322.5297 131.339 L322.5366 131.7712 L322.8582 132.3221 L323.2935 132.5205 L323.3102 132.5343 L323.7152 132.7131 L324.2572 133.0172 L324.8094 133.474 L325.0802 133.9786 L325.3248 134.7033 L325.2535 135.5727 L325.233 136.0708 L325.1892 137.1394 L324.959 138.2622 L324.8378 139.2019 L324.7805 139.9693 L324.9418 140.9199 L324.9912 142.0811 L324.9455 144.0213 L324.8639 145.126 L324.5839 145.6052 L324.4464 145.9448 L324.0046 146.1837 L323.6514 146.2908 L322.9854 146.3524 L321.9844 146.4544 L320.4866 146.5587 L318.3397 146.4863 L317.554 146.3726 L317.0265 146.7121 L316.518 147.0502 L315.3516 147.835 L313.4871 148.4757 L312.9773 148.8 L312.8374 148.7775 L312.7331 148.9411 L312.6002 150.1117 L312.3817 150.84 L312.2116 151.2736 L312.1063 151.7522 L311.9352 152.4421 L311.6421 152.9894 L310.9142 153.4585 L310.3596 153.7357 L308.8651 154.0825 L306.6739 154.1332 L305.1053 153.9775 L303.8499 154.3011 L302.7836 154.7789 L301.3814 155.8901 L298.5568 158.0952 L297.8657 158.9725 L297.1266 158.919 L296.7804 158.4368 L296.0665 157.3893 L294.7313 155.8467 L294.3245 155.3768 L294.0267 155.4471 L293.645 155.665 L292.782 156.9687 L291.9096 158.7532 L291.7036 159.0174 L291.3974 159.021 L290.9543 158.7329 L289.3428 156.5257 L288.3954 155.0395 L288.2192 154.3286 L287.5882 154.2483 L287.0369 154.4466 L286.4856 154.451 L285.3085 152.5463 L284.9203 152.2119 L284.458 152.1127 L284.0432 151.9795 L283.5162 150.8176 L282.3968 148.063 L282.1964 147.0582 L282.5799 146.4472 L283.374 145.9296 L283.7706 145.6986 L283.7767 145.3193 L283.7021 144.9863 L281.1637 141.1972 L279.4623 139.2476 L279.3845 138.6083 L279.2875 138.187 L280.5612 135.6444 L280.8151 135.5286 L281.1684 135.5308 L281.475 135.9 L282.1736 136.7528 L282.6349 136.7622 L283.3316 136.6507 L284.3485 136.0868 L284.8462 135.8225 L285.2209 135.7313 L285.5396 135.8232 L285.8225 136.2149 L286.1254 136.6109 L286.4269 137.1553 L286.7671 137.2082 L287.1716 137.1452 L287.5873 136.9635 L288.0412 136.5016 L289.6261 135.606 L290.2627 135.2462 L290.6644 134.7844 L290.69 134.2957 L290.2189 132.5697 L289.8209 131.8776 L288.6498 131.3578 L285.3998 130.2603 L283.847 129.427 L283.4025 128.8905 L283.1722 128.0732 L283.3978 127.5599 L284.3816 125.8071 L285.0666 125.0411 L285.9805 124.058 L286.9754 123.4578 L288.1046 122.9438 L287.9778 122.6266 L288.1134 119.869 L288.0752 118.9097 L288.2062 116.7037 L288.3096 116.1534 L288.6601 115.5923 L289.072 115.1615 L289.4397 114.8205 L289.7668 114.7126 L290.2515 114.3224 L291.3149 113.6549 L291.7208 113.172 L291.9762 112.5833 L290.9706 108.3681 L290.595 105.5546 L290.1397 103.279 L289.8079 100.9787 L289.9001 100.6066 L289.3167 100.7565 L289.9118 103.1233 L289.8302 103.3174 L288.4462 104.0892 L287.4964 104.0218 L286.5732 103.3673 L286.3747 102.972 L286.247 102.8366 L286.1944 102.7251 L286.1226 102.5637 L286.2018 102.088 L286.3416 101.6774 L284.7259 101.5203 L282.6578 102.1495 L280.9135 102.3624 L276.7375 102.736 L275.5804 102.7403 L275.3805 102.6426 L275.14 102.3834 L274.9182 101.9055 L275.8567 96.4984 L275.8367 95.6042 L275.722 94.6593 L275.5543 93.7941 L275.5259 93.1287 L276.1522 92.4162 L279.0825 91.396 L280.2499 91.2983 L281.4177 91.3989 L282.024 91.1672 L282.7062 91.1072 L282.9532 90.2716 L283.3279 89.0972 L284.087 88.1907 L284.2282 88.0219 L285.1281 87.2718 L285.253 86.4717 L285.9031 83.6472 L286.3412 81.0231 L285.7255 80.8283 L285.7242 80.8189 L283.9118 79.8465 L282.3758 79.2079 L281.0174 78.7379 L280.4092 78.3071 L280.1315 77.6395 L280.9219 75.5295 L280.8361 74.6085 L280.5831 73.6027 L279.8211 72.6071 L278.6621 71.5753 L277.7809 70.8888 L277.6047 70.0844 L278.5028 67.6717 L279.1421 65.3676 L279.3924 63.3727 L279.7018 62.4089 L280.1599 61.9766 L281.2784 62.2162 L283.6658 63.0888 L285.5885 63.5052 L288.5459 64.3082 L292.0335 65.7173 L293.2186 65.4154 L290.1849 64.4856 L287.8436 63.7101 L286.9027 62.9686 L286.7326 62.3118 L286.7624 61.049 L287.2061 55.4392 L287.5458 55.2205 L288.0095 55.2169 L288.5957 55.3024 L289.2985 55.3284 L290.4454 55.0764 L291.5964 54.29 L293.8221 53.7455 L296.3596 53.0945 L296.8237 52.7165 L296.6965 52.4239 L296.5488 51.0452 L296.3913 49.8576 L296.2156 48.9474 L295.9504 48.2717 L295.2826 46.4903 L295.0496 46.1319 L293.7471 45.7626 L293.0853 45.6308 L292.5075 45.2354 L292.2558 44.9971 L292.1398 44.7951 L292.013 44.4497 L292.2078 43.1991 L292.5462 41.892 L292.8174 40.0881 L293.1688 37.4341 L293.4097 34.6974 L292.699 34.6453 L292.9129 35.2746 L292.8248 35.8959 L292.5723 37.6911 L292.5578 38.4341 L291.993 42.0774 L291.6617 43.4953 L291.4981 44.1977 L291.4012 44.5837 L291.2339 44.7676 L290.9379 44.9153 L290.5954 45.0029 L290.2338 44.9356 L289.525 44.7538 L289.0012 44.6401 L288.4247 44.5272 L287.4573 44.3172 L286.8794 44.1912 L286.2205 43.9899 L285.9148 43.8957 L285.6542 43.7436 L285.3229 43.4366 L285.1458 43.1636 L285.0261 42.7711 L284.9739 42.5546 L284.937 42.1983 L284.9468 41.5806 L284.9878 41.0578 L285.1593 40.5842 L285.4119 40.238 L285.6995 39.9672 L285.9772 39.7231 L286.2265 39.4632 L286.432 38.9461 L285.1528 38.999 L283.8918 39.3748 L283.6028 41.8985 L268.8278 36.1248 L268.1246 36.0473 L267.6856 35.8778 L267.193 35.7019 L267.1203 35.8025 L267.5691 36.0495 L268.1414 36.2732 L268.2751 36.3934 L268.4652 36.589 L268.6889 36.9749 L268.6558 37.2414 L268.469 38.0713 L268.3804 38.7448 L267.9172 40.6377 L267.6982 41.2026 L267.0793 41.9209 L266.7713 42.1882 L266.309 42.3098 L265.8271 42.6509 L265.8579 43.0144 L265.7237 43.5756 L265.5438 43.8725 L264.6136 45.1543 L263.2939 47.3007 L260.7242 52.0582 L260.1431 52.7078 L259.6268 53.0793 L259.0289 53.3407 L258.4566 53.5304 L257.6756 53.7223 L256.6988 53.815 L256.1014 53.849 L255.6204 53.8222 L255.2718 53.8063 L254.8715 53.6318 L254.6278 53.4587 L254.4875 53.2726 L254.4232 53.0641 L254.4293 52.899 L254.5369 52.6564 L254.7802 52.3971 L255.3166 51.912 L254.7303 51.6093 L254.2522 51.9829 L253.7755 52.3102 L253.179 52.6781 L252.2963 53.0547 L251.8741 53.08 L251.5372 52.9446 L251.3349 52.7643 L251.1178 52.3465 L251.1061 51.7114 L251.1723 51.3428 L251.2674 51.0488 L251.2739 50.7794 L251.2762 50.5825 L251.1979 50.3688 L250.9561 50.1031 L250.6033 49.9626 L247.6199 49.3514 L247.1902 49.1834 L246.5737 48.8634 L246.0405 48.473 L245.8234 48.179 L245.513 47.1877 L245.404 46.5352 L245.0386 46.137 L244.5083 45.4867 L242.908 44.5938 L241.3827 43.882 L240.9283 43.58 L240.5523 43.2838 L239.8579 42.5857 L238.5325 41.1541 L237.9006 39.9918 L237.2426 38.1698 L237.1396 37.6006 L237.1154 37.1248 L237.2039 36.4166 L237.4663 35.7743 L237.4961 35.108 L237.4537 34.7612 L237.423 34.507 L237.0865 33.7806 L236.7281 33.2013 L236.3716 32.53 L235.9611 31.682 L235.8189 31.3184 L235.7108 30.7543 L235.6731 30.1757 L235.7705 29.3632 L236.0738 28.3616 L236.4443 27.6468 L236.8195 27.0704 L236.9047 26.3991 L238.7297 23.4994 L239.7297 23.3495 L241.0295 24.0491 L241.1045 24.5995 L240.9046 26.9741 L241.0048 28.4239 L241.4298 28.7744 L244.1294 28.9489 L244.5297 26.4244 L244.9556 26.3049 L244.9156 25.1158 L244.6905 21.2211 L244.6127 17.8912 L244.6821 16.794 L244.7893 15.7381 L244.773 15.497 L244.6434 15.1327 L243.8419 13.8103 L243.5884 13.0636 L243.4173 12.3271 L243.4877 11.6007 L243.6941 10.8207 L243.9831 10.51 L243.312 10.2855 L244.1094 4.2035 L244.4258 3.9565 L244.896 3.9543 L246.3104 4.7677 L246.4297 3.85 L246.0797 2.5754 L244.7296 1.7751 L244.6793 0.0 L242.7295 0.4005 L242.3795 1.4108 L242.4555 2.1952 L241.8613 4.7343 L240.3537 8.9595 L239.7493 10.7128 L239.1011 12.9108 L238.746 13.6495 L238.1019 14.8633 L238.1243 15.208 L238.4901 15.741 L238.6821 16.1893 L238.8149 16.6919 L238.8415 17.2329 L238.6747 17.7978 L238.3802 18.2272 L238.0134 18.7052 L237.6168 19.3179 L236.7682 20.4643 L236.5976 20.9444 L236.6326 21.4977 L236.943 22.2205 L237.0487 23.0931 L236.915 23.713 L236.5333 24.4488 L236.1009 25.3019 L235.8926 25.7408 L235.6651 26.0768 L235.3501 26.3911 L234.9908 26.7011 L233.2614 27.6686 L232.7237 28.1161 L232.6556 28.2848 L232.5591 28.6143 L232.5279 29.3791 L232.5191 30.5414 L232.4324 30.9585 L232.1118 31.2279 L231.533 31.4162 L230.2356 31.451 L229.6232 31.4727 L228.6367 31.2656 L227.7951 30.9621 L227.3216 30.6196 L226.0102 29.5732 L224.0683 27.804 L222.5295 26.339 L221.4381 25.3664 L220.9073 25.16 L220.3831 25.257 L219.5354 25.6553 L218.1057 26.2173 L217.3116 26.5178 L216.5273 26.7387 L215.831 26.8763 L215.337 26.9567 L214.7391 27.0429 L213.9949 27.0552 L213.7134 26.9965 L213.0219 26.8531 L210.127 26.1775 L208.6725 25.777 L207.7004 25.5612 L206.3359 25.3106 L205.7022 24.8102 L205.3895 24.3366 L205.2259 23.9629 L204.9924 24.031 L204.6671 23.9919 L204.2887 24.2156 L203.9947 24.5401 L203.4341 24.9188 L203.6983 25.8682 L204.0935 25.945 L204.347 26.0384 L204.5702 26.2079 L204.5399 26.7105 L204.3694 27.7279 L204.2542 29.4674 L204.0054 30.0555 L203.4406 30.3603 L202.6651 30.3307 L202.0374 30.0663 L201.3524 29.7042 L200.5191 29.0916 L200.1365 28.7447 L199.616 27.7982 L199.2627 27.1529 L199.0782 26.8176 L198.5376 26.1398 L198.093 25.7676 L197.5911 25.8357 L197.4038 26.0681 L197.0543 26.5837 L196.7039 27.1971 L195.6413 28.8946 L195.187 29.298 L194.3864 29.8686 L193.9003 30.335 L193.6477 30.7333 L193.4683 31.2996 L193.5107 33.0456 L193.6319 34.31 L193.8355 35.1768 L194.4358 35.9553 L194.7657 36.3688 L195.4587 37.0119 L196.4583 37.7549 L197.5087 38.3661 L197.9421 38.5507 L198.3172 38.5703 L198.8568 38.5674 L199.3779 38.529 L199.7269 38.7064 L200.1631 38.5283 L200.5224 38.3595 L200.8705 38.2647 L201.3654 38.3552 L201.7955 38.558 L202.1152 38.9258 L202.5197 39.0794 L202.8744 39.0888 L203.1409 39.1286 L203.3819 39.2821 L203.7962 39.356 L204.169 39.5139 L204.4281 39.7644 L204.7328 39.9563 L205.0549 39.9172 L205.9347 39.8354 L206.4483 39.6732 L206.7582 39.7036 L208.1818 40.3474 L209.5743 40.5574 L210.4271 40.6305 L210.7407 40.5197 L210.8004 40.204 L210.8097 39.8491 L210.9588 39.1945 L211.0213 38.4718 L210.8838 37.9308 L210.7808 37.5702 L210.6102 37.1907 L210.6909 35.8626 L210.7976 35.3441 L210.9798 34.961 L211.2133 34.7814 L211.5511 34.4389 L211.7086 33.8552 L211.8116 33.462 L211.8051 33.4106 L211.9258 33.1658 L212.1998 33.1064 L212.7968 33.0137 L215.4629 32.9891 L215.8706 33.2216 L217.3852 36.9061 L217.7841 37.8736 L217.8554 38.298 L218.2021 38.4066 L218.7017 38.319 L219.1588 38.3682 L219.5573 38.4703 L220.089 38.4841 L220.6338 38.3385 L221.2923 38.1597 L221.6805 37.8041 L222.2117 37.332 L222.6721 36.9742 L223.2845 36.6302 L223.8255 36.6693 L224.1848 36.9337 L224.3764 37.2183 L224.4575 38.0481 L224.6317 38.4595 L224.7674 38.928 L224.9146 39.5464 L224.9426 40.2054 L224.9347 40.9477 L224.7702 41.9057 L224.7557 42.5966 L224.7678 43.5452 L224.7468 43.7183 L224.8601 43.8827 L225.0232 43.987 L225.1905 44.0717 L230.861 43.5286 L230.9835 43.9464 L231.3116 45.5656 L231.4603 46.3607 L231.7096 47.1703 L232.2674 47.9937 L232.9077 49.9228 L233.1855 50.7548 L233.2274 51.3138 L233.2102 51.8207 L233.508 52.1712 L233.5159 52.9163 L232.2129 56.0945 L230.7985 59.0946 L228.9228 62.4603 L227.3915 63.453 L226.8099 64.3183 L226.2241 65.188 L225.6574 65.5653 L225.2679 65.8042 L224.3768 66.5978 L224.0143 67.5326 L223.8484 68.0468 L223.2971 68.8331 L220.2647 72.7317 L220.0331 73.0684 L219.8462 74.0495 L219.2297 76.0415 L219.1253 78.1398 L218.6984 79.8443 L218.4165 80.6466 L218.7054 81.8225 L218.1807 83.7724 L217.3307 84.1721 L216.4807 84.3973 L216.6307 85.9468 L217.5805 85.6217 L219.493 85.7636 L220.1529 83.8456 L224.9854 85.0164 L226.1188 88.0799 L229.1703 86.8845 L231.5866 88.2167 L236.6559 92.6885 L237.1909 92.682 L239.5624 91.467 L240.3188 90.819 L241.5663 89.7496 L241.7527 89.0421 L241.6232 88.8177 L241.468 88.683 L241.2429 88.4875 L239.5582 88.3514 L237.6322 88.3369 L235.8357 87.8156 L235.2998 87.6621 L234.5346 87.4434 L234.2685 87.0336 L233.8775 86.4305 L233.2022 86.059 L232.438 85.9171 L231.6495 85.7701 L231.4281 83.9476 L231.5442 82.2149 L231.8513 81.2983 L232.2185 80.5742 L232.1001 79.9566 L231.2282 80.1021 L229.2709 80.5184 L227.1254 80.8928 L225.7702 81.4062 L225.6775 81.4858 L225.2693 83.7275 L225.2324 83.8456 L225.1467 84.1192 L225.0628 84.1504 L224.7813 84.2554 L223.758 84.125 L222.5566 83.8716 L221.4843 83.5501 L220.7251 83.1714 L220.2484 82.8557 L219.9534 82.5241 L219.9632 82.0709 L220.0899 81.4503 L220.1832 81.0963 L220.6925 80.2462 L221.5668 79.3179 L221.8235 78.9095 L222.1959 77.494 L222.42 76.8162 L222.6726 76.3745 L222.6735 75.9082 L222.5761 75.376 L222.2187 74.1603 L222.1423 73.5861 L222.2117 73.0792 L222.4335 72.5405 L222.5393 72.1734 L223.3772 71.2538 L224.2291 70.1495 L224.6196 69.3805 L225.2194 68.8809 L225.8299 68.3603 L226.3122 68.0779 L227.4628 67.9635 L228.4149 67.8846 L228.9512 67.0272 L229.3613 66.4197 L229.6917 65.9657 L230.203 65.4899 L230.5688 65.2162 L231.8326 64.2698 L232.7139 63.763 L233.3393 63.5841 L233.6534 63.6478 L234.0257 63.9107 L235.2765 66.6348 L235.3655 66.8049 L235.6973 66.7267 L236.8665 65.6601 L237.0842 65.7702 L238.5819 66.8889 L239.0466 67.0714 L239.4035 66.9251 L241.5542 65.2923 L241.8035 64.5428 L241.9773 63.734 L242.105 63.1018 L243.7025 61.3994 L247.542 58.259 L248.7439 57.2213 L249.1507 57.2061 L249.5352 57.5703 L249.7146 57.9244 L249.655 58.2742 L250.1694 58.306 L250.5935 58.1518 L251.2972 58.3393 L252.0223 59.2474 L252.2199 59.7673 L253.5303 62.2372 L254.1539 63.915 L254.4889 64.1475 L255.1982 64.6044 L255.8194 64.9809 L255.9909 65.4154 L255.5845 66.2235 L255.1609 67.5276 L255.0174 68.3914 L255.0682 68.747 L254.8329 69.0496 L253.8258 69.4472 L252.8015 69.7448 L252.2427 70.1539 L251.5423 72.03 L250.3414 73.1806 L249.7589 73.77 L248.7779 74.413 L248.3697 74.9763 L248.0626 75.5281 L247.8883 76.1892 L247.8557 76.7836 L248.4093 77.5403 L248.6959 77.9364 L247.5374 79.5815 L244.9216 83.2953 L244.8708 83.4386 L250.2389 87.2675 L251.0665 85.9873 L251.6956 86.3704 L252.4254 86.2125 L253.1855 85.7433 L253.9945 85.6789 L254.2499 85.8186 L254.3538 86.114 L254.2326 87.6353 L254.0397 88.6461 L252.8504 91.2896 L252.2278 93.5479 L252.1514 93.7514 L251.945 94.3017 L251.6341 94.5449 L251.2613 94.5565 L250.2198 94.5037 L249.8306 94.4617 L248.4834 94.3161 L246.761 94.1134 L244.9598 93.9534 L243.3754 93.8846 L242.2597 93.7984 L241.8678 94.0164 L241.4447 94.6268 L241.0831 95.0134 L240.8729 95.2444 L240.6799 95.337 L240.3547 95.5782 L245.5111 101.6058 L247.4693 104.9262 L249.7607 103.6714 L251.2357 101.7462 L252.2157 99.572 L252.1659 97.9776 L252.3364 95.1307 L252.4487 93.6341 L252.8369 92.3605 L253.0671 92.438 L254.1865 92.8123 L257.4379 93.6804 L258.1514 92.1237 L258.6421 91.3758 L258.8681 90.7053 L259.575 90.2774 L260.1883 90.3208 L261.0001 90.7596 L261.1609 91.3823 L260.7275 92.0122 L260.8067 92.396 L261.4433 92.8956 L261.8413 93.372 L262.1018 94.0084 L262.1726 94.7542 L262.4793 95.0185 L262.881 95.1466 L262.9439 95.5586 L262.8022 96.1132 L262.9061 96.5404 L263.2654 96.8047 L263.6396 96.9227 L263.8941 96.8655 L264.1919 97.2688 L264.2352 97.7879 L264.5735 97.9892 L265.0801 98.0124 L265.6314 98.6206 L265.9846 99.1745 L266.0378 99.6132 L266.4842 100.4835 L266.5373 100.9223 L266.5611 101.3987 L266.4847 101.8874 L266.2274 102.295 L265.4669 102.5427 L264.1471 102.8743 L262.5575 103.1407 L260.2289 103.7272 L258.3792 104.3274 L254.0206 106.0795 L252.9571 106.4792 L253.1962 107.7419 L252.3159 115.8739 L252.3942 116.241 L253.6245 117.1576 L255.3212 118.2827 L255.7924 118.9857 L256.038 119.8212 L255.3832 122.1836 L254.6171 125.844 L254.4796 126.3139 L254.4507 127.098 L254.7052 127.578 L255.2602 127.7857 L255.9849 128.4156 L256.4499 128.5988 L257.6019 128.8341 L258.1672 129.0049 L258.3676 129.1997 L259.8267 130.6165 L261.2644 131.937 L262.106 132.674 L262.3134 132.9824 L262.3725 133.4675 L261.5272 133.6166 L258.6933 134.0807 L258.1858 134.746 L258.7973 134.8814 L259.3747 135.1652 L260.9079 136.427 L264.3731 139.4915 L264.8173 140.1851 L265.0023 140.7396 L265.1528 141.2261 L265.328 142.1289 L265.4044 142.7558 L265.3117 143.5543 L265.1826 144.2124 L264.8834 144.6033 L264.5833 145.0399 L264.1038 145.2715 L264.0945 145.2997 L264.0157 145.5575 L260.7886 148.6552 L260.4903 148.6914 L257.518 145.9658 L253.3244 141.5678 L251.7166 140.1091 L250.6136 140.61 L251.2487 140.9459 L251.7259 141.2297 L254.4591 144.1139 L255.9616 145.2809 L257.0078 146.1431 L257.2641 146.8526 L256.6308 147.022 L254.6865 147.0039 L253.6641 146.7679 L252.9553 146.2648 L249.9975 143.8786 L248.88 143.2416 L247.8263 142.9636 L243.7505 142.249 L241.7229 141.8147 L241.7397 141.2659 L242.8548 140.7454 L243.8577 140.2821 L245.6356 139.7362 L246.8393 139.2548 L247.6189 138.8385 L247.6185 138.727 L246.6212 139.1831 L246.3043 139.2678 L243.5441 140.1757 L241.8813 140.5369 L239.1584 141.0531 L236.3889 141.7785 L231.4426 143.3147 L229.5268 143.7983 L228.1693 143.9872 L227.2848 143.993 L226.1561 143.7194 L224.7482 143.0584 L223.3413 142.0789 L221.9344 141.7032 L220.9828 141.7169 L219.5652 142.0956 L217.4845 142.9115 L214.9833 143.9583 L211.484 145.4025 L210.2528 145.4416 L210.0412 145.4742 L205.2534 146.1656 L204.3735 146.778 L203.7211 147.3297 L203.0822 148.097 L202.6805 148.3425 L202.4256 148.2672 L202.1726 147.2833 L202.4447 146.6209 L202.6786 145.425 L202.8599 144.4455 L202.7686 143.479 L202.9303 142.6248 L203.2323 141.8617 L203.7836 140.804 L204.2799 139.771 L204.5059 138.512 L204.5982 136.6457 L204.5725 135.4678 L204.2132 134.502 L203.3329 132.9643 L202.7047 132.3721 L200.3332 132.2295 L198.6895 132.0832 L199.1062 133.4132 L199.1877 133.6912 L199.2478 134.1871 L199.4426 135.0023 L199.5027 135.69 L199.369 136.7593 L199.3252 136.9555 L199.1514 137.9401 L199.0507 138.1066 L198.8732 138.4432 L198.9174 139.27 L199.225 141.0162 L198.6672 143.5883 L198.6895 143.9199 L199.0046 144.0386 L199.533 144.1458 L199.6379 144.4035 L199.3872 145.0652 L199.1514 145.8485 L199.109 146.5746 L198.9734 147.2718 L198.827 147.7162 L198.5586 148.5922 L199.485 150.0821 L199.808 151.1202 L199.8648 151.8542 L199.7358 152.2437 L199.3299 152.7787 L199.2227 153.6706 L199.7213 155.885 L199.973 156.1818 L201.57 156.5706 L202.139 156.8413 L202.5826 157.2598 L203.4359 160.6173 L203.4317 161.3911 L203.2164 161.929 L202.9 162.178 L202.0938 162.4864 L201.8892 162.7933 L201.7713 163.5418 L201.2783 163.9501 L200.9027 164.0355 L199.9963 164.0544 L197.9365 164.1767 L197.059 164.1521 L197.5627 165.4942 L194.6627 165.9068 L193.8001 162.1063 L190.1754 166.5562 L189.0127 168.0691 L189.3128 169.0065 L190.113 168.8067 L192.0376 167.6442 L193.225 168.2812 L194.425 169.3316 L196.0752 171.7436 L196.05 173.769 L190.7127 176.1809 L189.8129 176.456 L187.2172 176.8628 L186.5629 176.5559 L186.1379 176.0564 L185.4379 174.3561 L184.4928 173.5591 L183.7705 174.3423 L182.9046 174.8548 L181.6921 175.2595 L180.5238 175.3883 L174.4078 176.0347 L171.2174 176.7818 L170.4415 177.1162 L169.8306 177.5122 L166.2306 180.2687 L165.5027 181.5557 L165.0511 182.8782 L163.7928 186.7979 L163.9382 187.1569 L164.7952 187.597 L165.1946 188.1906 L165.0702 189.1041 L164.5921 189.7917 L163.7952 189.909 L162.1264 189.3596 L161.4889 189.0114 L161.0573 188.4743 L160.1905 187.9054 L159.403 187.6441 L158.9677 187.4233 L158.0674 187.3849 L157.1558 187.7917 L155.81 187.6947 L155.2498 187.6585 L154.9143 187.8569 L154.1547 188.7038 L153.3923 189.0469 L152.4873 189.1316 L150.6666 188.9883 L149.7807 188.7617 L147.5447 188.7074 L146.5074 188.8869 L145.8139 188.8869 L145.1089 188.5735 L143.5155 186.8739 L143.1013 186.4265 L142.207 185.8996 L141.7116 185.377 L140.8397 184.4482 L138.8871 181.4087 L138.5217 180.8239 L138.236 180.4655 L137.7994 180.48 L137.4662 180.8029 L136.8492 181.2126 L136.207 182.1109 L135.5672 182.8717 L135.0536 183.1641 L133.8522 183.5536 L133.2995 183.7396 L132.9044 183.7157 L132.5553 183.5355 L132.1788 183.1822 L131.757 182.834 L131.6247 182.5756 L131.743 182.0226 L132.2533 181.1141 L132.4234 180.5227 L132.4784 179.8995 L132.3801 179.4724 L131.922 178.8759 L131.1936 178.6407 L129.4232 177.848 L128.4017 177.0822 L127.6887 176.1201 L127.376 175.4303 L127.3755 174.8403 L127.8294 174.0042 L129.3855 172.306 L129.927 171.7255 L130.0346 171.0428 L130.0896 170.0156 L129.9083 169.4496 L129.6325 168.995 L129.1245 169.6095 L128.8794 170.4398 L128.494 170.8734 L128.0443 171.1521 L127.4026 171.4663 L126.6691 171.9962 L125.9919 172.125 L125.3097 172.1627 L124.3982 172.943 L123.6749 173.609 L121.3719 174.7766 L121.0997 174.7969 L120.9044 174.6434 L119.0348 170.1981 L118.4089 168.8191 L117.9797 167.3894 L118.1657 167.039 L118.2076 166.7914 L118.5692 166.7009 L118.8749 166.6894 L119.3945 167.5175 L119.6276 167.7122 L119.9016 167.6 L120.1397 167.5703 L120.3611 168.2059 L120.3755 168.9646 L120.472 169.9165 L120.6696 170.5745 L121.6286 172.0042 L122.1603 172.4508 L122.4898 172.4689 L122.5057 172.2242 L122.4437 171.9832 L121.959 171.3867 L121.3961 170.256 L121.0829 169.514 L120.9473 168.2913 L120.842 167.537 L120.9962 166.3904 L120.9538 165.825 L120.9338 165.4993 L119.8116 164.4503 L119.1308 163.7996 L118.4369 163.9501 L117.2192 163.8372 L115.9894 163.7778 L114.8709 164.1514 L113.8727 164.1166 L113.2855 164.5553 L113.5661 165.2488 L116.1548 170.387 L116.4311 170.9372 L116.3421 171.3874 L116.0653 171.6183 L115.7638 171.5807 L115.411 171.7356 L115.1174 172.07 L114.828 172.4407 L114.3965 173.1645 L114.3821 173.352 L114.4044 173.5359 L114.6123 173.7697 L114.8863 174.3003 L115.3439 174.9981 L115.4474 175.3825 L114.7418 175.6923 L114.4268 175.5447 L114.1122 175.0995 L113.5656 174.2721 L113.2688 173.6394 L112.881 173.2478 L112.6522 172.9278 L111.517 171.8739 L111.1321 171.2919 L111.0901 171.0363 L110.646 170.5253 L110.3161 169.2671 L110.2303 168.7792 L109.9773 168.0054 L109.6576 167.8215 L109.1813 167.8794 L108.1556 168.3036 L107.685 168.1002 L107.0507 167.4704 L105.7104 165.6028 L105.1866 164.9788 L104.8404 164.2766 L104.6787 163.253 L104.4336 162.4632 L104.2005 162.3387 L103.9279 161.874 L103.8529 161.5815 L104.0579 161.1696 L104.2798 160.8996 L104.4848 160.445 L105.2016 159.0225 L105.9807 156.0812 L106.5041 154.7449 L107.287 153.3897 L107.9655 152.6245 L108.3602 152.5369 L108.8752 152.6831 L109.0877 153.0987 L109.3183 155.9024 L109.4763 156.5909 L109.864 156.7718 L110.1791 156.8319 L110.9536 156.8196 L111.5631 156.6589 L111.7454 156.6104 L112.4043 156.5301 L112.9803 156.6828 L113.039 156.7429 L113.5325 157.2482 L114.4235 157.5493 L115.2684 158.0785 L115.3388 158.0995 L115.7358 158.216 L116.1268 158.6533 L116.3114 158.8596 L116.9396 159.3468 L117.798 159.9295 L119.3945 161.0849 L119.8088 161.2413 L120.0535 161.3332 L120.5875 161.5352 L121.061 161.6677 L120.3625 160.9792 L120.1178 160.7316 L117.1428 157.1729 L116.9624 156.9572 L115.7046 155.2473 L114.9133 154.3416 L114.2073 153.4592 L113.7506 152.8699 L113.6644 152.7584 L113.2683 152.033 L113.1574 151.7123 L113.0842 151.3475 L112.5888 150.2674 L112.2491 149.4103 L110.2145 147.8502 L109.9484 147.6381 L108.2558 150.8733 L106.9645 152.1373 L104.3408 153.7002 L103.372 153.7002 L103.5449 154.0716 L103.4563 154.2968 L102.7373 155.6461 L101.4208 157.0274 L100.5782 157.7868 L99.5409 158.8256 L99.216 158.531 L98.5501 157.7274 L97.475 155.678 L97.1339 154.8339 L96.7713 154.3677 L96.5835 154.22 L96.0546 153.229 L95.5541 152.7454 L95.0951 152.3248 L93.7478 149.5261 L94.6896 148.9021 L95.4781 145.3678 L93.7478 145.551 L89.6226 144.376 L85.0981 142.2758 L83.357 144.6866 L82.1198 146.445 L80.6038 147.313 L79.2118 147.6417 L77.1735 147.5505 L74.7833 147.1487 L73.6028 147.1762 L71.5622 147.3869 L69.5341 148.244 L67.5861 148.2635 L67.9985 149.1757 L66.5511 150.6829 L64.9899 152.6339 L64.4563 153.2326 L63.7364 154.0405 L62.5844 154.6732 L62.0592 154.7832 L61.6025 154.8795 L60.436 155.075 L59.3553 155.4898 L56.8416 157.2344 L55.3574 158.1451 L54.1779 158.3949 L52.5823 158.3941 L51.536 158.8241 L50.2289 159.4699 L49.6888 159.333 L49.0429 159.1304 M63.9004 154.5357 L64.3398 154.0999 L64.6069 153.8349 L67.2366 150.7626 L67.5544 150.3912 L67.9822 150.2529 L68.067 150.2428 L68.4655 150.1935 L68.7381 150.1067 L68.9562 149.9431 L69.2889 149.3198 L69.4628 148.9889 L69.6468 148.7833 L69.9386 148.653 L70.0933 148.5842 L70.3626 148.6139 L71.1339 148.6986 L76.6394 154.102 L77.6949 155.303 L78.5734 157.2482 L78.7794 157.8657 L77.8511 159.5271 L77.4438 160.154 L76.5816 160.4305 L76.1734 160.3559 L73.4146 159.6653 L72.2029 159.2759 L70.5686 158.4072 L68.5866 157.3988 L67.5651 156.7436 L66.086 156.04 L65.078 155.4427 L64.1749 154.6877 L64.0943 154.6428 L63.9004 154.5357 M77.0737 167.5682 L77.276 166.6076 L77.317 166.2927 L77.6073 164.6878 L77.8855 162.9171 L78.2546 162.1947 L79.114 162.1418 L79.4574 162.2062 L79.9626 162.5204 L81.2837 164.1441 L81.7637 164.7442 L81.9198 165.4486 L82.7754 166.9044 L83.6599 167.8375 L84.1497 168.5925 L84.0314 169.5285 L83.7564 170.3305 L83.3775 170.4427 L82.9325 170.4449 L81.9525 169.9215 L81.2199 169.3989 L80.5679 168.8408 L79.8964 168.5505 L78.613 168.3015 L77.8706 168.0191 L77.3426 167.8896 L77.0737 167.5682 M78.1502 160.159 L79.4234 156.2318 L83.2205 156.7494 L81.8276 158.7829 L79.8959 160.4761 L78.1502 160.159 M86.045 159.3142 L87.1402 159.1803 L87.8313 159.3772 L88.2507 159.3323 L88.8388 159.168 L89.1291 159.0804 L89.5737 158.8683 L90.3813 158.8415 L90.7676 159.0037 L92.4616 159.2223 L92.3796 158.924 L92.264 158.6757 L92.1633 158.439 L91.9709 158.148 L91.6908 157.8345 L91.4378 157.5841 L91.1554 157.2511 L90.9186 156.8674 L90.5425 156.1985 L90.234 155.3312 L91.0072 153.735 L91.2625 153.6315 L91.7039 153.6032 L92.2929 153.6626 L92.7417 153.9616 L93.3988 154.7919 L93.4603 155.2965 L93.6723 155.4275 L93.957 155.5629 L94.3723 155.6954 L94.8262 156.04 L95.2535 156.4859 L95.8933 156.4794 L96.3971 156.6929 L96.7755 156.6864 L96.8566 156.9774 L97.0514 157.288 L97.2797 157.9815 L97.3413 158.4853 L98.1027 159.4742 L99.3768 160.3733 L100.0344 160.9423 L99.6075 163.4991 L98.8292 164.3555 L97.8511 164.3772 L96.4582 164.4822 L95.8463 164.1839 L95.3434 163.7605 L94.0749 161.9949 L92.7202 159.7348 L91.8329 159.8043 L91.4746 159.9201 L91.8586 160.7121 L93.93 163.3761 L95.6133 165.1699 L96.6068 166.1819 L98.0114 167.2424 L98.2402 167.3524 L97.4964 168.329 L96.7993 168.9392 L96.5155 169.0789 L96.158 169.1484 L95.5573 169.1043 L95.157 169.1991 L94.3867 168.5136 L93.5712 167.5124 L93.0357 166.9811 L92.964 166.7147 L90.4139 163.6635 L88.4464 161.525 L88.1742 161.4925 L87.9431 161.2586 L87.2888 160.7751 L87.0036 160.3118 L86.6713 159.8934 L86.2818 159.4887 L86.045 159.3142 M96.7932 171.8905 L97.064 171.4308 L97.8874 170.3001 L98.5739 169.7637 L99.0436 169.3779 L99.265 168.8321 L99.6574 168.2472 L100.1788 167.0556 L100.7986 165.8648 L101.3443 165.2466 L101.8686 165.2025 L102.0709 167.5928 L102.494 169.0398 L102.6795 170.1843 L102.8999 172.2966 L103.4535 169.991 L104.3683 170.843 L105.0729 171.9043 L105.6876 173.0285 L106.8438 174.4668 L107.3844 175.5743 L107.8056 176.506 L107.9431 177.2038 L106.9375 177.5896 L103.8571 173.2992 L106.0301 178.0876 L106.3205 178.9635 L106.4649 179.3986 L106.5292 180.108 L106.3535 180.1297 L105.6918 179.7619 L104.7602 179.3059 L103.5537 178.7456 L102.2088 177.5274 L101.9851 177.4108 L101.8677 177.4115 L101.0023 176.4821 L100.9748 176.2555 L97.5263 172.9148 L97.0197 172.4595 L96.7932 171.8905 M172.7026 197.7199 L172.7231 197.2444 L172.9324 196.8115 L173.1341 196.5792 L173.3914 196.2824 L174.0014 196.0008 L174.0107 195.9965 L174.6748 195.8626 L175.6497 195.914 L176.1805 196.1905 L176.3338 196.8021 L176.331 196.8137 L176.1819 197.4905 L175.8697 197.9356 L175.405 198.2027 L174.6082 198.5372 L174.0037 198.624 L173.3723 198.4916 L172.9687 198.1861 L172.7026 197.7199 M199.1658 138.1044 L199.2581 137.998 L199.458 136.8947 L199.4631 136.76 L199.6146 136.6044 L199.7236 136.5045 L200.1589 136.4248 L200.8174 136.6724 L201.6143 137.0873 L202.5631 137.6802 L202.7998 138.3346 L202.6246 138.8291 L202.201 139.2222 L200.9744 139.8977 L200.4217 139.9787 L200.2139 139.8477 L199.5657 139.4003 L199.2544 138.887 L199.2115 138.5084 L199.1658 138.1044 M199.6896 147.2956 L199.9753 145.7196 L200.4348 143.7331 L201.2023 143.7889 L201.1855 144.5092 L201.2331 145.8796 L201.0844 146.4964 L200.8943 148.0008 L199.6896 147.2956 M202.3757 337.8003 L202.3851 337.3293 L202.728 336.5826 L203.4303 334.7723 L204.7948 333.946 L208.6772 332.3889 L208.886 332.9207 L209.1614 334.6326 L209.2229 336.236 L209.1525 338.1244 L209.057 339.2488 L208.6996 339.5874 L209.9844 343.8823 L211.5987 346.5152 L212.7134 347.5723 L213.1962 347.5672 L213.3327 346.7272 L215.173 343.2478 L215.6991 341.3066 L215.488 340.2705 L215.5332 338.5477 L216.1964 337.1231 L215.8702 336.4292 L215.8226 335.6087 L216.3861 334.9763 L216.8483 334.7455 L217.4607 334.676 L218.2408 335.2867 L219.5065 336.0855 L220.1044 335.9372 L220.2079 335.4459 L220.1132 335.0378 L220.0447 334.4756 L219.2283 332.428 L218.2077 330.2168 L218.0977 329.7595 L218.1178 329.2262 L218.3592 328.6857 L218.7851 328.1554 L218.8942 327.7617 L217.8163 326.3819 L215.776 324.1309 L214.9964 322.7221 L214.6655 320.7286 L214.3631 319.6382 L214.4665 319.1997 L214.7373 318.7403 L215.2606 318.4733 L216.4327 318.2772 L217.5585 317.6484 L218.1611 316.7989 L217.9519 316.1513 L217.4658 315.474 L214.9256 312.6969 L214.6921 312.1397 L215.1082 311.6889 L215.4508 311.3908 L216.1684 311.0601 L215.5286 309.9334 L213.4217 304.2785 L210.724 298.2775 L210.5082 296.3961 L210.7883 291.767 L211.0711 289.6352 L210.6867 287.978 L210.8405 287.0416 L211.6425 284.3931 L211.677 283.8207 L211.4239 282.4342 L211.0474 281.8118 L210.4262 280.6286 L209.5668 278.6168 L209.6036 278.1139 L211.313 276.1549 L211.629 276.0457 L213.877 277.5162 L215.4424 279.3072 L215.6763 281.0679 L215.3245 282.1534 L216.0799 283.1491 L220.7121 286.4627 L221.9764 287.8898 L223.483 290.1222 L228.1572 293.9813 L231.526 295.7673 L234.214 295.6153 L232.8443 293.6369 L235.2285 289.5787 L234.8734 284.2028 L238.5549 281.6085 L239.3369 281.0578 L240.1487 278.674 L241.721 278.0654 L246.3872 275.0217 L247.9517 272.8014 L249.887 273.1958 L252.205 277.6616 L253.5909 277.2578 L257.0385 278.3694 L263.518 274.4579 L266.0778 277.0226 L270.3787 274.8697 L274.0304 276.2903 L277.9361 278.3187 L281.7411 283.181 L283.6718 286.0611 L284.6327 291.3654 L286.2335 295.933 L285.946 296.6305 L282.8987 297.5336 L279.7932 301.2624 L279.2638 301.8659 L282.0547 304.6902 L282.3842 305.7829 L281.9252 306.7894 L281.5747 307.081 L280.2359 307.3039 L278.7218 308.6686 L277.149 309.385 L276.5054 309.5224 L273.8212 312.4986 L273.3165 312.809 L272.5051 312.6397 L271.8411 312.3929 L270.046 311.3343 L269.381 311.3502 L268.4489 312.0435 L261.5635 318.6411 L261.0369 319.5405 L261.6339 320.0441 L259.5308 322.7981 L257.6849 325.7307 L257.3088 326.8841 L256.7631 327.583 L257.4481 328.0027 L259.1249 327.7979 L261.9941 327.2458 L265.0605 326.5136 L265.7223 325.9347 L266.425 324.9927 L266.8873 324.1302 L267.3808 323.8769 L268.1269 323.8321 L268.9834 323.9435 L269.6126 324.332 L270.0082 324.8233 L270.0725 325.3523 L269.9113 325.6743 L269.5208 326.1583 L268.7458 326.1287 L268.0868 325.921 L267.6711 325.4601 L267.2666 325.4637 L267.0211 325.6511 L266.596 326.3457 L267.0732 327.0997 L268.695 328.6119 L269.9276 329.6676 L270.5651 329.957 L271.5591 330.1712 L272.6925 332.4489 L274.5328 333.4945 L276.5352 334.9662 L277.7161 335.8959 L278.211 336.6745 L278.3112 337.5015 L280.8095 337.1173 L282.6545 339.654 L283.7506 339.9456 L283.923 342.9215 L282.847 343.9207 L282.1167 345.5739 L281.5426 345.7071 L280.1399 346.2085 L280.31 347.4189 L276.6196 350.4172 L277.6192 351.8396 L276.9276 354.6591 L276.1023 356.1018 L275.1754 356.9874 L274.317 357.1284 L273.1175 357.4779 L270.8438 357.6971 L268.8739 357.7275 L268.5165 357.365 L268.18 356.8014 L267.9685 355.8876 L268.1036 354.5289 L268.4266 352.54 L268.674 352.103 L272.4543 351.0857 L269.8274 351.2434 L267.7676 347.0036 L261.2853 347.2134 L260.0872 346.9465 L260.5788 347.8169 L264.2128 360.3958 L270.0082 361.3725 L270.162 359.7193 L275.2742 361.065 L274.886 364.0704 L274.2173 364.6962 L273.3071 365.1679 L271.5577 365.5586 L272.7754 368.3194 L269.9714 370.3068 L267.9834 371.3392 L267.4409 372.3918 L267.2415 373.7454 L267.0229 375.5172 L266.7596 375.8181 L266.6543 376.6631 L269.1386 378.4559 L269.9952 379.8587 L269.3921 380.4888 L268.3128 381.4582 L267.6404 382.5137 L267.4167 383.1446 L267.7331 384.6501 L268.0523 386.6685 L267.6073 387.1821 L267.8878 388.5957 L267.4824 389.0775 L265.9511 389.4349 L264.7534 389.7792 L261.454 389.9709 L259.7689 390.3782 L258.7544 390.2676 L257.5199 389.7134 L257.0166 388.8692 L257.6126 387.5511 L257.3904 386.314 L256.7086 385.7859 L256.9281 385.1217 L257.998 385.0205 L258.3611 383.8687 L259.3052 383.2487 L259.11 382.0739 L254.5789 380.9236 L253.5485 382.7141 L251.5656 384.9488 L249.2015 386.306 L247.6394 387.1061 L247.0872 387.3507 L246.576 387.5511 L245.9832 387.9345 L244.8909 387.6654 L244.5008 386.7169 L243.6005 382.2663 L242.3832 378.4371 L241.5658 376.8729 L240.9092 376.5177 L238.8336 377.2868 L237.0651 376.6718 L235.0276 372.8657 L234.4899 369.9443 L236.0361 368.9647 L234.845 367.6617 L234.4414 367.0822 L233.7531 366.9042 L232.8224 367.5814 L232.4198 367.7095 L232.0265 367.3253 L231.1178 365.6541 L230.2281 363.0691 L229.386 361.6257 L227.7168 360.0998 L225.6658 358.1746 L224.2645 356.6444 L221.8403 356.0678 L220.8901 356.0917 L216.833 352.0726 L216.5683 351.509 L216.263 351.0886 L213.767 354.2699 L212.9403 354.793 L211.6504 355.3768 L210.6718 355.4152 L209.4923 354.5897 L208.6716 353.9103 L207.7503 353.427 L207.0625 352.9871 L205.8559 351.4504 L204.5311 349.4231 L203.8917 347.8226 L202.3757 337.8003 M203.4061 416.3239 L203.7276 413.468 L205.3168 413.0549 L205.8107 412.8994 L207.2852 418.8347 L205.382 419.935 L205.0525 419.7288 L203.4061 416.3239 M204.182 163.8242 L204.3293 163.5766 L204.6224 163.2566 L204.8135 162.996 L205.2464 162.9113 L205.6672 162.996 L205.787 163.2342 L206.0442 163.7214 L206.0093 164.5292 L205.5782 164.9991 L204.9197 165.2365 L204.408 164.8608 L204.182 163.8242 M241.2974 216.9219 L241.3864 216.3082 L241.4451 215.7176 L241.838 214.2135 L242.4485 212.087 L243.01 210.4121 L243.6112 209.5515 L244.3135 209.1968 L245.3951 209.0586 L245.6481 208.8834 L246.2092 205.7276 L247.9451 199.8538 L249.1512 195.4956 L249.5431 193.12 L249.703 192.758 L249.9378 192.7291 L251.4659 193.2611 L253.5266 193.694 L255.9853 194.0436 L259.0433 194.5604 L261.2229 194.7385 L262.7481 194.6893 L265.3303 194.3737 L267.9293 194.1927 L269.4588 194.1775 L270.2291 194.357 L272.4902 195.0389 L275.6932 196.1883 L277.677 197.1098 L278.3075 197.8198 L278.5228 198.7521 L278.8835 200.317 L278.9571 200.9243 L278.8993 202.1295 L278.369 206.4492 L278.2297 206.9798 L277.9645 207.32 L277.1033 208.4079 L275.9947 209.186 L274.5756 210.153 L273.618 210.761 L272.5168 212.0595 L271.911 212.5958 L270.354 213.4485 L269.0361 213.8458 L267.9456 214.2866 L266.6352 215.0698 L265.6715 215.6922 L264.4291 216.9162 L264.3764 217.0385 L263.5567 218.088 L262.5436 219.2214 L261.4983 220.4642 L260.7983 220.9426 L260.1096 221.2777 L259.7573 221.2538 L259.0918 221.1054 L257.2044 220.9035 L256.0986 220.842 L255.1535 220.7609 L253.645 220.6111 L252.177 220.4757 L249.0091 219.8533 L244.6085 219.0933 L242.6223 218.9435 L241.9396 218.6533 L241.6092 218.3 L241.3524 217.7478 L241.2974 216.9219 M254.6749 85.8527 L254.8944 84.377 L255.2411 84.2163 L255.5729 84.0968 L258.3084 83.078 L261.6609 81.3982 L264.6476 79.7676 L265.1477 79.575 L266.0298 79.6771 L266.5606 79.7372 L266.8169 80.0731 L266.9442 80.6872 L266.2549 81.0992 L264.6332 81.8942 L264.032 82.5495 L263.5655 82.9144 L263.4723 83.2685 L263.4243 84.1207 L263.614 85.8425 L263.4374 86.4348 L262.9192 86.7997 L262.2206 86.7013 L261.6264 86.1705 L261.2275 85.9048 L259.6738 86.626 L258.7218 87.0242 L257.6989 86.7882 L255.6078 86.1589 L254.6749 85.8527 M254.811 428.5712 L255.3655 428.1365 L259.2139 426.6312 L259.8253 426.3404 L260.3538 426.3867 L261.4577 427.7278 L263.1568 431.4957 L264.7832 433.7996 L265.7642 434.8347 L267.2811 434.3001 L267.8603 434.2292 L270.614 436.6539 L273.7303 438.4984 L276.6764 436.5844 L277.183 435.8488 L278.1435 434.6907 L280.3496 434.4549 L283.4635 434.2762 L284.8294 434.1222 L286.7377 436.2864 L291.3266 439.749 L292.2097 440.0955 L300.0565 440.643 L301.9266 440.774 L304.0558 444.1577 L306.1459 441.6528 L307.4568 440.2257 L309.2048 442.4687 L311.7684 445.877 L313.1082 447.3337 L316.0217 448.907 L317.711 450.1301 L315.5711 450.7695 L312.9125 451.0942 L312.0555 451.087 L310.6672 451.5449 L310.0945 452.4208 L309.5833 453.0529 L307.6442 454.3578 L305.0163 454.7773 L295.3166 464.3117 L290.4393 463.0235 L289.8027 463.822 L285.2847 466.5293 L284.0908 465.6396 L282.4308 465.581 L280.9326 466.4779 L280.0406 467.1997 L277.8722 467.6901 L277.0609 467.7892 L275.956 467.4066 L274.8068 467.6257 L271.7068 468.9414 L271.1481 468.754 L270.7035 468.2123 L269.6284 466.1488 L268.3725 464.2979 L266.7461 460.8609 L266.439 457.9084 L263.978 451.6859 L262.6442 449.2614 L261.3077 448.8549 L259.397 447.5941 L258.7367 446.784 L257.4295 442.8557 L257.5842 441.9884 L258.0954 441.0351 L257.4081 437.9826 L256.9295 436.5945 L257.3531 435.4025 L255.7234 431.6708 L255.4145 430.4172 L254.8902 429.2237 L254.811 428.5712 M256.8167 234.6001 L257.5497 233.0484 L258.1849 231.0696 L260.5127 225.5342 L261.9913 222.6391 L262.4238 221.518 L265.7707 221.2466 L266.3281 221.2046 L266.7428 221.2321 L268.6568 220.9397 L271.1966 221.6193 L272.2423 221.885 L273.0476 222.055 L273.6203 222.1947 L274.6013 221.9306 L275.839 221.5694 L277.4444 221.1706 L278.2847 221.4152 L278.932 222.0044 L279.59 223.1697 L279.9968 223.2384 L280.9759 221.1547 L282.2794 219.558 L282.62 219.0028 L283.3074 216.6382 L283.9943 216.0281 L286.5886 215.8138 L287.2079 215.8667 L287.6111 216.1714 L287.7816 216.7149 L285.8961 226.9203 L284.8685 230.7874 L284.3722 231.3772 L284.0824 231.8448 L283.5287 232.2928 L282.9663 233.0433 L281.7462 234.0841 L281.4471 235.0119 L280.9866 239.1684 L280.4703 241.0798 L279.9358 242.0012 L279.185 242.8139 L278.2767 244.0001 L277.9594 244.5017 L278.1053 244.8599 L279.1776 245.0032 L280.749 245.2942 L281.8902 245.5453 L282.5524 245.6148 L284.7437 245.8977 L285.9343 245.6343 L286.7648 245.2529 L288.2076 244.76 L290.0898 244.163 L291.8933 243.7707 L292.2367 243.9733 L292.7792 245.3159 L293.0527 246.1677 L292.9898 246.6215 L292.7391 246.8154 L291.4958 247.0724 L290.4729 246.6483 L289.3386 246.484 L288.5109 246.3421 L285.6286 246.3993 L284.3969 246.6331 L283.8839 246.7308 L283.1853 246.6258 L282.5855 246.5354 L282.2057 246.4225 L282.3861 247.3257 L282.901 249.0423 L283.3764 249.8739 L284.128 250.7409 L284.7129 251.4538 L286.1627 252.0407 L286.8659 252.4952 L286.8939 253.6199 L287.0947 253.816 L294.8492 253.1256 L294.9093 252.8962 L295.709 251.9466 L296.1289 250.5578 L295.6997 249.017 L294.2033 246.4927 L293.2764 244.4032 L293.1469 244.0913 L293.1925 243.9922 L293.385 243.6296 L295.113 243.432 L296.806 243.5398 L298.1318 243.4761 L299.7825 243.3401 L300.6502 243.4899 L301.3972 243.5029 L302.4318 243.4096 L303.5889 243.301 L304.7441 243.1273 L306.0457 243.1324 L307.0481 243.0426 L309.5138 242.6757 L312.7284 242.2834 L313.1352 242.4043 L313.228 242.6815 L312.6203 244.3555 L312.1408 245.0669 L311.205 247.1664 L310.8643 247.8207 L310.3037 248.2108 L306.5374 248.0935 L309.9095 248.4098 L310.4239 248.5835 L310.656 248.797 L311.0959 248.8679 L311.5946 248.1326 L312.5518 245.9281 L313.9293 243.2612 L314.4559 242.8921 L314.8828 242.853 L317.0726 243.6607 L317.7609 243.8916 L318.4292 244.1463 L320.2592 243.9538 L322.49 244.0747 L323.8256 244.4163 L325.261 244.9214 L325.5159 245.0611 L325.6785 245.2811 L325.7107 245.8247 L325.8048 246.4492 L325.5122 247.8344 L325.1822 249.0387 L324.7693 249.8421 L324.6253 250.3385 L324.2977 251.3727 L324.6701 252.881 L325.0373 254.2929 L325.2428 256.2672 L325.5741 258.9992 L325.7275 261.103 L325.7032 262.3036 L325.6165 263.2727 L325.2106 264.7128 L325.0433 265.8671 L325.123 266.4953 L325.1748 267.4817 L325.4539 269.5015 L326.0388 271.5176 L326.3538 272.7117 L326.2946 273.4817 L326.2993 273.7893 L325.5891 273.8631 L324.8807 273.9492 L322.6317 275.7251 L321.7938 276.4046 L321.0421 276.8851 L320.0104 277.3533 L318.8113 277.5683 L317.63 277.6442 L317.1103 277.5704 L315.8954 277.1724 L315.669 277.2339 L315.3204 277.1087 L313.2862 276.4922 L311.3923 275.8054 L310.32 275.8575 L308.1722 276.0413 L303.9216 275.2171 L298.9105 274.1634 L297.5894 274.1019 L296.7054 274.1974 L296.0063 274.3089 L295.5385 274.654 L294.9461 275.1592 L294.5361 275.7866 L294.1013 276.1672 L293.7653 276.791 L293.7229 277.734 L293.6832 278.5908 L291.9096 278.3028 L291.3443 277.5784 L291.3699 276.2845 L291.5172 275.3828 L292.452 272.9208 L293.968 269.4711 L294.0621 269.0405 L294.2658 267.3456 L293.6394 266.6248 L291.4958 266.3853 L291.4524 267.1589 L291.0866 268.8147 L290.848 270.0486 L290.1238 271.7825 L290.1611 272.25 L290.0064 272.8065 L289.716 273.5367 L289.2533 274.8798 L288.97 275.7909 L288.8357 276.3865 L289.1689 277.5885 L289.3828 279.1885 L289.956 280.3573 L289.7547 280.9275 L288.2765 281.9471 L287.9405 282.1107 L287.6194 281.9992 L287.2354 281.6331 L286.9726 279.6857 L286.2899 277.9402 L286.1757 276.3026 L285.9278 274.8516 L285.4925 273.6923 L283.8806 271.9359 L282.3693 270.3113 L281.2439 268.5802 L280.8464 268.4847 L279.2027 269.3111 L278.9427 269.4117 L278.0698 269.4921 L275.86 268.7076 L274.3818 267.7863 L273.7177 267.0026 L273.5001 266.6096 L273.2605 266.0357 L273.2764 265.5747 L273.7969 264.5724 L275.2723 262.7147 L275.4998 262.3449 L275.7342 261.7022 L275.7048 260.2766 L275.8064 258.9601 L275.9998 256.4648 L275.9588 254.8155 L274.4116 254.2596 L271.7851 254.0042 L269.2943 252.3353 L267.3687 250.958 L266.727 250.4138 L266.3029 249.397 L266.4432 248.4554 L266.6464 247.4342 L266.3789 246.9558 L265.6072 246.3088 L262.9206 243.9958 L261.4256 242.7227 L259.9567 241.1783 L259.3271 241.2159 L259.1137 240.9669 L258.904 240.5862 L258.6593 240.6159 L258.019 240.7266 L257.2902 240.757 L257.2081 240.4183 L257.8773 239.5643 L258.1919 239.0866 L258.4608 238.6604 L258.7884 238.2927 L257.5679 236.2655 L257.0791 235.63 L256.8992 235.1212 L256.8167 234.6001 M260.8715 52.9511 L260.9092 52.6513 L261.9182 50.7316 L263.7128 47.6453 L265.2479 44.827 L265.4557 44.5503 L265.6929 44.4012 L265.9446 44.3708 L266.412 44.433 L266.7004 44.706 L266.8435 45.1847 L266.8016 48.3384 L266.7461 49.4065 L266.7046 50.8938 L266.8934 52.0184 L266.9782 52.4471 L267.0001 52.7331 L266.9493 52.9627 L266.8053 53.177 L265.9888 53.723 L265.5158 54.0301 L264.876 54.2024 L264.5474 54.2401 L264.0246 54.2973 L263.217 54.1662 L262.2243 53.8548 L260.9526 53.3479 L260.8715 52.9511 M267.5966 48.72 L267.653 47.8264 L267.8058 44.5083 L267.7555 43.5568 L268.0584 42.6603 L268.6512 41.6697 L269.2253 41.1135 L269.6992 40.7152 L270.0837 40.1627 L270.224 39.8115 L270.2631 39.3799 L270.2547 39.0402 L270.0516 38.0156 L269.943 37.1314 L270.0087 37.0169 L270.3349 36.9576 L270.5525 37.0227 L271.2506 37.2784 L272.7335 37.9634 L275.6535 39.1148 L279.0205 40.4487 L281.4885 41.38 L282.3423 41.6762 L282.7705 41.8659 L283.0851 42.0839 L283.2557 42.3055 L283.2729 43.0376 L283.148 43.6242 L282.8148 44.2223 L282.2286 45.0153 L281.4792 45.8806 L280.6693 46.6945 L279.9735 47.4288 L279.4581 47.872 L278.9445 48.5455 L278.7223 49.0842 L278.1952 50.342 L277.6392 51.6513 L277.218 52.4753 L277.0278 52.8461 L276.6098 53.3363 L276.209 53.4841 L275.798 53.3834 L275.4965 53.2169 L274.5379 52.7563 L272.1025 51.6252 L269.4839 50.5253 L268.6172 50.0908 L268.0193 49.678 L267.8338 49.4094 L267.694 49.1016 L267.5966 48.72 M279.384 198.3576 L279.5876 197.4311 L280.0504 197.1517 L280.2382 196.9867 L281.126 197.2885 L282.1633 197.9834 L283.21 198.1984 L284.4626 198.4221 L285.5508 198.9736 L287.1865 199.835 L290.2739 201.0097 L293.7816 201.7336 L294.0244 201.7727 L294.5831 202.0376 L294.8217 202.225 L294.8082 202.6 L294.6018 202.9988 L294.0225 203.719 L292.8663 205.0204 L291.4841 206.2907 L289.8642 207.6486 L287.5029 209.723 L286.7848 210.0705 L286.302 210.1298 L285.9087 209.9612 L285.5741 209.6282 L285.2171 208.7872 L284.8005 208.3724 L281.8777 209.3915 L281.3879 209.2352 L281.2364 208.9587 L281.0812 208.4861 L281.1283 208.067 L280.8995 207.1513 L280.687 206.3704 L280.5043 205.1934 L280.0495 202.4161 L279.7018 199.7184 L279.384 198.3576 M281.5151 365.793 L283.8359 362.9714 L284.1746 360.6743 L286.9866 361.4658 L288.5077 362.86 L290.0525 365.5687 L291.5111 369.5912 L283.2627 366.1403 L281.5151 365.793 M328.8381 167.8136 L328.9523 166.8233 L330.3769 166.6865 L332.5984 166.5142 L332.7932 167.1215 L332.5383 168.6757 L331.3616 169.5205 L331.0307 169.6356 L330.5326 169.7949 L330.2096 169.7724 L329.58 169.763 L329.2743 169.5777 L328.9919 169.1795 L328.8544 168.4542 L328.8381 167.8136 M342.4304 414.6406 L344.6906 412.5059 L345.6324 411.815 L346.0523 411.0287 L347.1866 411.878 L347.4848 411.9098 L348.2067 411.5799 L348.8731 411.083 L348.5884 411.9047 L348.7207 412.5102 L347.7826 412.7099 L347.2178 413.1649 L347.6573 413.9027 L348.2696 414.3426 L347.8301 416.1004 L346.9508 416.4932 L346.7467 417.3091 L345.8048 417.3562 L345.3183 416.8852 L342.9318 415.6316 L342.7203 415.3849 L342.807 415.0016 L342.4304 414.6406 M356.5297 197.6715 L356.6984 197.1532 L357.0046 196.6566 L357.5014 195.8011 L357.8383 195.1301 L358.0513 194.9556 L358.4735 194.7812 L359.0029 194.5807 L359.8855 196.8817 L360.7891 199.1017 L360.8115 199.3696 L360.1167 199.4977 L359.5146 199.5093 L358.8775 199.4427 L357.9432 199.3428 L356.8727 198.8433 L356.6593 198.4554 L356.5707 198.0768 L356.5297 197.6715 M370.7395 391.9372 L370.9786 391.4294 L371.7526 390.2336 L371.8081 389.9087 L371.9651 389.4877 L372.0718 389.0225 L372.2429 388.6543 L372.5877 388.0488 L372.9577 387.7616 L373.1017 387.1676 L373.729 386.2518 L373.99 385.9776 L374.3376 385.9356 L374.6303 385.9262 L374.7808 386.1432 L375.1257 386.2387 L375.3726 386.3198 L375.7077 386.3422 L375.9938 386.3552 L376.4128 386.6128 L376.6458 386.9115 L376.807 387.0664 L377.2209 387.3499 L377.7684 387.5554 L378.1571 387.7963 L378.433 387.9721 L378.659 388.2195 L378.7545 388.5747 L378.4167 389.3893 L378.158 389.853 L377.6915 390.7486 L377.6072 391.4012 L377.5228 391.8374 L377.1496 392.0472 L376.5875 392.155 L375.8261 392.6079 L375.223 393.5606 L374.7016 393.9505 L374.1382 394.2616 L373.5841 394.3296 L373.2085 394.156 L372.789 393.8254 L372.3365 393.3609 L370.9953 392.325 L370.7395 391.9372 M371.2437 288.6127 L371.4245 288.2176 L371.6911 287.4505 L371.8924 287.1704 L372.0882 287.0612 L372.2205 286.6979 L372.5933 286.161 L372.8035 285.8122 L373.0351 285.9236 L373.3348 285.9656 L373.7006 286.0379 L373.7332 286.221 L373.6992 286.4548 L373.6116 286.6733 L373.6283 287.0235 L373.8893 287.3752 L374.1568 287.7805 L374.9006 291.4399 L374.8624 291.801 L374.7165 292.1744 L374.3893 292.6245 L373.708 294.4322 L373.6815 294.7585 L373.53 294.8562 L373.1563 294.6854 L372.8119 294.3801 L372.4829 293.9806 L372.1087 293.3771 L371.8044 293.0211 L371.6888 292.6253 L371.617 292.1788 L371.72 291.5702 L371.5923 290.8972 L371.6855 290.0469 L371.3402 289.5187 L371.2624 289.0896 L371.2437 288.6127 M409.4846 427.4768 L409.6137 427.1527 L409.5931 426.5516 L409.6607 426.4055 L410.281 425.9859 L410.8989 426.0554 L411.2419 425.9982 L411.6138 425.7696 L411.8235 425.4933 L411.8617 425.1881 L412.0999 425.0738 L412.2713 425.0644 L412.4144 424.8358 L412.5766 424.6542 L412.9112 424.5761 L413.1768 424.5501 L413.4247 424.388 L413.6153 424.4546 L413.8726 424.4828 L413.9015 424.3403 L413.9108 424.1877 L414.0348 424.0734 L414.3088 424.082 L414.511 424.1681 L414.6159 424.3591 L414.8829 424.4162 L415.1024 424.4452 L415.4142 424.566 L415.4929 425.4745 L415.8359 426.2745 L416.0265 426.8373 L416.198 427.2395 L415.8839 427.5238 L415.1686 427.1107 L414.0324 427.0739 L412.6143 427.2467 L412.0309 427.4681 L411.728 427.9903 L411.5089 428.1242 L411.0513 428.114 L410.7032 428.0222 L410.4604 428.1712 L410.1747 428.4193 L410.0317 428.5054 L409.9632 428.671 L409.7838 428.6103 L409.5549 428.4576 L409.5838 428.2291 L409.4948 427.9296 L409.5405 427.7712 L409.4846 427.4768" stroke-dasharray="" fill="none" fill-opacity="1.0" stroke="#ff0000" stroke-opacity="1.0" stroke-width="1.0px" stroke-linecap="butt" stroke-linejoin="miter" stroke-dashoffset="0.0px"/>
</g>
</svg>