<?xml version="1.0" standalone="no"?>
<!DOCTYPE svg PUBLIC "-//W3C//DTD SVG 1.1//EN" "http://www.w3.org/Graphics/SVG/1.1/DTD/svg11.dtd">
<svg width="512px" height="512px" version="1.1" xmlns="http://www.w3.org/2000/svg" xmlns:inkscape="http://www.inkscape.org/namespaces/inkscape">
<g id="layer" inkscape:groupmode="layer" inkscape:label="layer">
<path d="M17.4658 409.9041 L18.5817 413.5736 L19.7392 417.1109 L20.8109 419.4899 L21.3685 419.8542 L21.0681 417.604 L21.3467 416.5744 L22.9329 417.7533 L23.6616 416.7459 L23.04 414.946 L23.9833 411.7524 L25.2265 410.4021 L26.7951 410.4029 L27.7928 410.4275 L29.1878 410.5235 L30.39 410.8467 L31.4425 411.5055 L32.25 412.1068 L32.6841 412.7458 L33.0809 412.9189 L33.9837 413.5965 L34.0279 413.7778 L34.0349 414.2438 L34.3816 414.2381 L34.616 414.5006 L35.179 414.7147 L36.329 415.6294 L36.5383 416.0346 L36.7572 416.5646 L36.9245 416.8107 L37.5173 416.8443 L37.912 416.983 L38.1107 417.3521 L38.4542 417.4949 L38.8452 417.5892 L39.4982 418.3808 L40.0873 419.015 L41.1191 420.8295 L41.3726 421.2217 L41.5739 421.5752 L41.9154 422.0658 L42.2057 422.1905 L43.6592 422.0666 L45.1826 422.6121 L46.8631 423.4251 L47.7596 423.5687 L49.3911 424.8311 L50.1437 425.8295 L50.2811 426.1494 L50.597 426.4127 L50.9783 426.4784 L52.7835 427.7482 L53.2969 427.9886 L53.9782 428.023 L54.8688 427.53 L56.226 428.1773 L57.4841 428.6908 L57.8926 429.0058 L57.1245 430.2067 L66.3819 434.6151 L67.068 437.702 L67.0248 438.8159 L68.0965 439.5017 L64.3707 444.7532 L67.5388 446.9057 L70.2362 448.0426 L69.6103 454.0946 L68.8486 457.7957 L68.2489 459.2639 L68.0427 459.3796 L67.6944 459.2385 L66.7388 457.986 L65.8184 457.7259 L64.8415 458.159 L63.4636 458.2689 L61.5657 456.7556 L61.1322 455.754 L56.7948 451.1055 L56.6196 450.1868 L55.5426 448.2829 L53.6741 445.982 L51.6644 445.0362 L51.2313 444.3513 L51.2351 443.691 L48.1665 440.7428 L47.5795 439.9201 L47.6275 439.0358 L48.1042 438.2573 L48.6304 437.542 L48.8589 437.259 L49.6254 435.6651 L48.4781 435.8013 L48.2017 435.949 L47.1172 437.0638 L45.5352 438.2401 L44.1786 438.8176 L43.3002 438.8873 L42.7202 438.4648 L40.1033 435.2033 L39.9696 434.579 L40.4011 434.0622 L40.93 433.561 L41.7327 432.6168 L41.6373 432.2469 L40.3212 431.0935 L38.4819 429.6153 L37.1604 428.6375 L33.8879 430.1551 L31.3418 430.3068 L29.3108 432.5799 L28.0676 433.4897 L26.7573 435.1565 L26.6519 435.9645 L25.969 437.4025 L25.6137 438.2294 L33.4937 445.0083 L31.255 447.8474 L32.5461 449.4174 L33.2407 450.209 L34.836 451.733 L36.3119 453.3514 L37.9003 454.7918 L39.7432 456.2536 L41.9921 459.1237 L44.1503 460.8946 L47.7537 462.7295 L49.5556 463.5637 L49.9668 463.4497 L50.7088 462.7541 L51.4572 462.2365 L51.7517 462.157 L52.8596 463.3816 L53.5537 465.2313 L54.1423 467.3442 L54.6264 467.414 L55.9149 467.2007 L56.6148 467.1892 L57.4223 467.1326 L57.9778 467.3771 L59.0293 468.5139 L59.5912 468.6041 L60.7039 469.362 L62.2316 470.9443 L63.308 472.3305 L63.5653 473.4419 L63.3432 473.8003 L63.7523 474.774 L63.6053 476.088 L63.1813 477.6308 L63.8577 478.2501 L63.6026 479.7798 L62.8718 482.849 L61.431 487.7572 L59.22 493.0975 L57.2124 497.0778 L55.9176 499.3399 L54.5556 501.3001 L51.5941 504.8933 L50.8313 505.7389 L56.7107 510.2539 L58.5968 512.0 L59.3926 511.1462 L60.3572 509.989 L67.8377 497.6856 L72.3145 490.0603 L73.8635 487.4988 L79.6533 475.9042 L81.5783 471.9942 L81.8963 470.2659 L82.1088 468.5992 L81.8814 463.4915 L81.7296 462.1422 L80.2078 454.3169 L79.9143 454.5252 L79.3902 454.426 L79.15 453.5352 L77.8802 453.244 L77.1254 452.5648 L76.6647 451.4025 L76.1128 449.8407 L74.1815 448.552 L72.7939 446.3093 L71.4059 443.3128 L71.7563 442.6188 L72.0056 442.5991 L73.7122 437.907 L76.1001 437.7446 L75.0657 435.3173 L72.1745 432.3831 L66.4544 429.2593 L60.249 426.8746 L59.8394 425.5703 L60.6091 423.535 L62.247 422.3365 L67.1942 420.6811 L68.7373 419.3013 L69.5251 418.1552 L70.1222 416.3644 L70.1941 415.1462 L69.7403 413.3078 L68.9045 410.3471 L69.0952 408.9377 L70.1461 407.7441 L71.7222 407.338 L72.7726 407.4332 L74.3248 407.9828 L88.0313 412.9493 L90.4192 413.3792 L91.9234 412.8303 L92.3532 412.0658 L92.5919 410.9673 L92.831 407.4816 L92.6158 402.9917 L92.2339 400.3656 L91.6848 397.1653 L91.4222 393.9896 L91.9713 393.202 L93.2843 392.4858 L94.4066 392.6761 L95.1949 393.2258 L95.7201 393.8468 L96.4605 395.9717 L98.084 399.7684 L99.4694 401.9178 L100.1853 402.3953 L102.2152 404.2813 L114.8709 413.4989 L116.4709 414.2627 L117.7125 414.3824 L118.1898 414.2389 L118.8108 413.7376 L120.7449 411.5645 L122.8462 410.7524 L124.1357 410.9197 L125.6878 411.5645 L126.5955 412.5432 L126.8581 413.905 L127.0487 416.3882 L127.3119 418.6565 L127.8131 420.1134 L128.8874 422.2619 L129.6038 423.2413 L131.2519 425.366 L132.8754 426.8229 L134.3796 427.7778 L135.7884 428.0649 L136.6721 427.9451 L138.1528 427.3725 L139.9196 426.3693 L141.8536 425.0083 L153.8888 411.9468 L155.2257 409.7499 L156.1094 408.174 L156.8972 406.9795 L158.0914 405.9532 L164.849 402.013 L167.7142 400.1031 L168.9563 399.912 L172.8723 400.3894 L175.5467 400.3181 L177.1218 399.1129 L177.5761 394.8256 L177.624 391.5784 L177.5287 384.2235 L178.1972 381.2864 L179.0569 379.7104 L180.943 377.6568 L182.1851 375.7707 L182.3518 374.5047 L181.8746 372.26 L179.5341 368.6542 L177.1223 362.0405 L176.4298 358.9359 L177.0749 358.0998 L178.9849 357.002 L180.609 357.861 L181.9939 358.8407 L183.2834 360.2256 L186.0052 362.4696 L193.4319 367.2692 L197.9924 368.9413 L205.2039 370.5888 L211.3166 372.5472 L214.3495 373.5497 L215.639 373.6687 L217.5251 372.8573 L218.6474 371.8785 L219.579 368.344 L220.3907 365.1443 L221.2744 364.1893 L221.561 364.1179 L223.9488 363.9505 L225.429 364.8104 L228.39 367.1265 L238.6099 374.3374 L240.3053 375.0298 L241.81 374.6483 L242.6932 374.0986 L244.0786 370.8037 L245.9167 362.4942 L248.1379 360.6309 L249.4508 359.5807 L252.2211 359.9147 L256.3044 361.9207 L257.7367 362.9717 L260.0532 362.7805 L264.6377 361.467 L274.1656 361.5146 L277.8665 361.9207 L280.9947 360.5833 L286.4389 356.7148 L291.2146 354.6858 L294.6054 354.5898 L299.9782 356.0224 L304.7065 358.0284 L308.9325 359.1746 L312.2999 359.7957 L319.5348 359.1032 L322.018 357.861 L324.6211 355.4973 L335.054 343.1334 L342.1702 333.0567 L343.5551 330.0716 L345.5147 327.5903 L348.8277 324.4854 L354.29 321.8589 L356.5846 320.6191 L357.6553 319.7238 L359.6793 317.5436 L361.5676 315.4217 L362.2877 314.1375 L362.8912 312.7163 L367.5236 300.6867 L368.2246 298.6631 L370.3658 297.1639 L371.6308 297.4166 L374.2781 298.7796 L375.2901 301.0371 L376.1855 302.8473 L378.0348 305.5536 L380.0983 308.2393 L382.181 310.0889 L384.8085 311.4707 L387.1836 312.3274 L390.5898 312.6777 L394.5213 311.9187 L398.0059 311.4313 L399.738 311.5289 L404.4099 314.0793 L408.1469 315.617 L410.6578 317.5051 L412.6435 319.4317 L416.1665 322.3127 L416.9841 324.6487 L416.5169 327.0816 L415.0958 329.2421 L412.8577 330.3711 L409.8599 331.8505 L408.7893 333.7188 L409.0231 336.0155 L409.1904 336.5923 L409.8834 338.9759 L422.9092 332.3798 L426.3395 330.9315 L426.8274 330.7166 L431.0811 327.3056 L432.4329 325.6957 L432.793 325.9714 L435.6725 322.0304 L437.0494 322.4497 L437.6768 319.1076 L439.8303 313.6878 L441.7915 310.1964 L443.1402 308.6414 L444.0761 307.4991 L445.4114 305.1728 L446.4437 303.8796 L447.9303 302.5445 L448.7474 299.7217 L450.3991 297.1065 L448.6648 295.3446 L446.7382 294.1334 L446.2977 293.0051 L448.1146 291.4632 L448.3069 290.5901 L448.3894 289.2139 L445.8018 287.2313 L443.6824 284.1212 L444.9762 282.7721 L446.9582 283.7084 L450.9499 287.782 L452.3262 289.7366 L452.8194 289.9976 L453.7217 289.726 L453.7388 289.7949 L454.8334 294.2303 L456.9911 294.7464 L457.4641 294.3813 L457.707 294.1794 L458.0399 293.7166 L458.1614 293.3818 L458.2759 292.8623 L458.3307 292.2436 L458.2652 291.6938 L458.2652 291.4049 L458.1155 291.121 L457.8929 290.8281 L457.8711 290.7993 L457.7187 290.6935 L457.0982 290.261 L456.9847 289.9443 L456.9938 289.5881 L457.1365 289.2435 L457.747 288.9292 L458.0042 289.0129 L458.3355 289.1934 L458.5832 289.1524 L458.7142 289.2229 L459.0791 288.98 L459.4189 288.7979 L459.7912 288.6502 L460.7553 288.8036 L461.2555 289.1343 L462.1413 288.7347 L463.4271 288.9776 L464.6378 288.8898 L465.4991 289.1918 L466.313 289.4913 L466.8706 289.4634 L467.2041 289.2229 L470.2285 290.3299 L471.5771 288.8159 L472.2365 289.3419 L473.6693 290.5277 L475.124 286.524 L475.2992 285.9979 L476.7592 286.7184 L477.1869 286.0759 L478.4717 285.5893 L479.1338 284.1097 L477.3622 282.2805 L476.8519 281.8513 L477.5129 280.6401 L476.9622 275.4373 L476.8407 274.3376 L477.0474 271.6812 L477.1438 269.5754 L476.3432 268.1877 L476.2681 266.7081 L471.6352 262.2084 L474.6196 256.3595 L472.8294 251.8236 L471.64 246.105 L472.3154 239.6904 L473.0749 236.2294 L474.5099 233.8658 L479.4901 234.7103 L484.4384 233.2297 L487.7621 227.1555 L490.7582 222.6398 L493.4172 222.2179 L493.6015 221.3405 L492.7013 221.2888 L491.1503 221.1993 L490.5084 221.3676 L489.8192 221.5482 L489.3627 221.4086 L488.2766 221.077 L487.6151 221.1066 L487.0611 221.8609 L487.0468 222.5544 L486.1652 224.2853 L485.8584 224.7975 L485.5836 225.3375 L484.97 226.8567 L484.5795 227.8227 L485.3726 226.9798 L486.5088 225.9629 L487.2113 225.9629 L487.3312 226.2617 L485.8957 228.5491 L484.9092 228.9077 L483.9915 228.9496 L483.6698 229.5668 L483.5856 229.5857 L482.5821 229.8146 L482.2455 230.294 L481.8982 230.7027 L481.8124 231.2181 L482.1283 231.5735 L482.5512 232.0495 L482.368 232.4024 L482.0367 232.4713 L481.5664 232.3811 L481.283 232.1931 L481.1663 232.116 L480.9991 231.8615 L480.9277 231.7532 L480.8659 231.5037 L480.8585 230.8693 L480.9575 230.4679 L481.1365 230.2094 L481.0769 229.822 L481.1067 229.1966 L481.7416 227.4977 L481.8732 227.1456 L481.716 225.6749 L480.9836 225.1365 L480.4009 226.1755 L479.9146 227.0635 L476.6799 226.1755 L476.3507 225.7865 L476.8737 223.9628 L478.0253 224.1122 L478.101 223.6887 L477.3675 223.3481 L477.2429 223.165 L477.131 221.2642 L477.0325 220.7611 L476.7752 220.4927 L476.0812 221.43 L472.9231 231.4856 L470.344 232.1833 L469.8151 226.2633 L474.5935 223.3251 L473.6209 221.5908 L480.4286 216.5801 L482.1837 215.4179 L482.2061 216.2165 L482.9699 215.8833 L483.2548 216.2075 L483.445 216.4899 L483.3241 217.1719 L483.2341 218.9784 L483.0439 220.3261 L483.045 220.7405 L483.3454 220.7832 L483.5467 220.7159 L484.0251 217.6553 L484.0032 217.1686 L484.6264 216.3003 L484.7212 214.9608 L484.9215 214.6932 L485.2027 214.1901 L485.8281 212.1275 L485.9996 211.7664 L486.0789 211.0646 L485.436 210.8405 L486.7517 208.5383 L487.7685 207.4171 L488.3603 206.8885 L486.2883 205.5351 L488.445 202.7025 L487.9373 202.4276 L489.4383 200.0596 L493.6249 201.9622 L494.5342 201.4549 L492.8174 193.8412 L491.432 193.9061 L488.4348 193.2387 L485.8297 191.7334 L485.8206 191.8081 L485.1202 191.4412 L484.513 190.8518 L482.6263 189.6608 L482.1118 189.8784 L480.5128 189.1601 L479.0917 188.0726 L477.5896 186.4211 L477.0948 185.4755 L477.5715 185.0528 L477.6631 184.7318 L477.7697 184.3592 L478.5463 184.5948 L479.7122 184.4183 L480.3333 184.2853 L481.3368 185.2654 L481.6686 185.1972 L481.7874 185.3286 L481.8822 185.4328 L482.1176 185.1234 L483.2783 183.5975 L484.8965 182.2127 L485.1868 181.9689 L486.1594 180.9421 L487.5656 180.5152 L488.2303 180.04 L489.319 179.6846 L489.3302 179.5114 L488.8828 178.3753 L488.3805 178.2744 L487.9331 178.3097 L486.831 178.189 L486.1524 177.8951 L485.0152 176.8732 L484.3276 176.764 L481.3 176.709 L480.4174 176.7353 L479.6616 177.0423 L479.2216 177.5504 L478.9862 177.7466 L478.5138 177.7466 L475.8883 179.0115 L475.2305 177.8639 L473.6811 178.7258 L473.4137 178.3909 L473.0749 178.4352 L472.7031 178.7537 L472.3132 179.7609 L471.9047 181.405 L472.0187 181.7292 L471.8077 182.3375 L472.1513 182.8333 L472.4006 184.493 L472.9758 185.6659 L474.2979 186.8241 L473.5863 187.9199 L473.1458 187.3946 L472.0911 186.5253 L470.9299 185.5691 L470.075 185.6725 L468.7259 185.1266 L467.4789 184.2804 L467.0507 183.9135 L466.9303 182.3769 L466.8611 181.4887 L466.1154 180.1073 L465.9359 179.8397 L465.122 178.6257 L463.4409 177.0636 L463.058 176.7082 L462.7086 175.8151 L462.7389 175.692 L462.8902 175.0813 L463.0329 175.0698 L463.4058 175.0411 L463.3957 173.6932 L462.1242 172.2535 L462.1088 172.1008 L461.9415 170.4205 L461.9186 170.1899 L462.2638 168.3782 L462.4998 168.0318 L462.7522 168.2124 L462.7698 168.2206 L462.8577 168.2617 L463.1592 168.4037 L465.8155 171.1716 L466.7993 172.5342 L467.5716 173.4741 L467.6531 173.5734 L467.7975 173.6514 L468.4835 174.0241 L469.2468 174.1291 L468.9581 173.6046 L468.2481 173.2106 L467.9285 173.0333 L467.4044 172.6064 L466.6427 171.5467 L466.3524 170.6766 L466.3305 170.611 L465.9518 170.1546 L464.3049 168.1706 L463.4489 166.6938 L463.4271 166.6397 L463.418 166.5198 L463.0819 166.2777 L462.8545 165.3558 L463.9864 163.0755 L465.4884 161.978 L465.5726 161.9164 L465.9486 161.6414 L467.1071 161.6701 L467.9881 162.1479 L468.5235 162.4385 L468.7173 162.7717 L469.169 163.5483 L469.4092 162.1725 L468.6017 161.0069 L468.3061 159.8265 L468.1575 160.2894 L467.9034 160.5258 L467.6105 160.5488 L467.0885 160.3354 L466.5276 160.1679 L464.5686 159.0466 L464.1659 158.3308 L464.3773 155.5595 L464.4631 154.8642 L464.8338 154.4136 L465.4389 154.3208 L466.7375 154.3972 L467.3628 154.3701 L467.4837 154.2199 L467.3351 154.1131 L465.5215 153.7634 L464.1078 153.4343 L463.4042 153.0821 L463.0249 153.275 L462.4928 153.2808 L462.3575 153.1642 L462.2712 152.89 L462.5418 150.9659 L462.6569 150.594 L463.0692 150.4676 L463.4516 150.5628 L464.3592 150.9773 L464.8503 151.1038 L465.4112 151.272 L466.4307 151.7038 L467.3309 151.9813 L468.0228 152.519 L468.2875 153.2611 L468.6263 153.6042 L468.6769 153.7043 L469.2297 153.2422 L469.4034 152.707 L469.3272 152.3942 L469.3363 151.6603 L469.6095 151.4764 L470.8623 151.6373 L471.6639 151.781 L472.2216 151.8335 L473.4866 150.8673 L475.6993 150.9864 L476.0955 150.5784 L474.6036 149.3438 L473.476 148.8997 L473.1133 149.0762 L472.2946 149.3323 L471.2751 150.0916 L470.3009 149.9266 L469.723 150.09 L468.9331 149.9972 L468.4958 150.1056 L468.2348 150.1335 L466.9159 149.5999 L466.0136 149.2937 L465.106 148.6394 L464.2127 148.1691 L463.7845 148.0697 L463.4729 148.1641 L463.3461 148.3751 L463.1277 148.967 L461.8829 149.5383 L460.9604 150.1072 L460.4336 149.407 L461.0771 151.2507 L460.2403 151.0709 L459.0141 149.4562 L457.3997 148.0812 L456.2039 146.1373 L456.2635 144.4635 L457.4892 143.2675 L461.0174 142.2807 L459.9409 141.5928 L458.7153 141.9515 L456.7189 141.6921 L456.0041 141.9441 L455.9759 141.9844 L455.5034 142.6575 L454.7636 143.9504 L454.999 144.8584 L454.0184 145.9132 L454.0664 147.2866 L454.8462 147.7209 L455.8017 148.8012 L455.8108 149.4817 L456.4681 150.3329 L457.0572 150.5973 L457.7997 151.0274 L459.1116 152.4205 L459.4434 153.0755 L459.3625 154.3028 L459.0083 154.9677 L459.0626 157.0806 L460.8661 158.0279 L461.9021 158.7889 L462.0832 159.4825 L461.9341 161.2162 L461.2161 162.8604 L460.1098 163.788 L459.4418 164.0991 L459.4818 164.333 L459.4466 164.5341 L458.4591 165.0349 L458.4271 165.2893 L459.2559 166.9196 L459.4967 167.5442 L459.714 167.9539 L459.4221 168.7575 L458.7851 169.0013 L458.351 169.3748 L458.3073 170.0815 L458.4005 170.7029 L459.0061 172.0327 L458.7366 172.6918 L458.898 173.6563 L458.9236 173.8082 L459.2815 174.794 L459.0743 175.5434 L458.4074 176.2699 L458.1629 178.3318 L457.8221 179.1658 L457.2356 179.412 L457.3927 180.0063 L457.3608 180.727 L457.1887 181.0192 L456.9608 181.4058 L456.8851 181.5347 L455.9546 182.3605 L455.7011 182.8891 L454.729 185.3007 L454.5718 185.6897 L454.5974 185.8793 L454.7556 187.0613 L455.4257 189.7774 L455.3895 190.2986 L455.3596 190.723 L455.1322 191.1752 L454.9761 191.4863 L454.2693 191.7933 L453.3681 191.7826 L453.1907 191.8779 L452.9382 192.2513 L451.8783 193.0746 L450.1328 192.7537 L450.0012 192.3646 L449.8755 192.45 L449.8808 192.5082 L447.9282 193.7731 L447.2735 193.8609 L444.8601 194.1843 L444.5666 194.0226 L443.1583 194.4141 L440.6543 195.9146 L437.8137 197.2607 L436.6179 197.8582 L435.2725 196.0344 L431.5051 195.1972 L424.6579 194.2401 L424.9509 192.9531 L425.4627 188.3672 L430.142 188.6578 L428.6346 185.7193 L430.6081 185.061 L432.1767 188.7949 L432.6913 189.0953 L432.989 189.8373 L434.4426 191.2269 L437.0734 193.0812 L439.2263 194.3066 L439.7946 193.7985 L439.8687 192.9408 L438.5477 192.7561 L437.0393 192.349 L436.9732 192.3104 L435.9564 191.7162 L435.37 190.7041 L435.0003 190.0671 L433.7012 188.6857 L432.6497 186.8175 L431.9136 185.4673 L431.8806 185.0462 L432.1134 184.6826 L432.1384 184.6136 L432.2897 184.195 L431.9418 183.5269 L431.7437 183.4325 L431.0987 183.1263 L430.8052 182.3941 L430.5522 182.2735 L430.3066 182.3449 L430.3455 182.7487 L430.125 183.1361 L429.6951 183.1181 L429.3186 183.3996 L428.6522 183.3709 L428.1403 183.1517 L427.6807 182.8406 L426.4039 182.1856 L426.0646 181.909 L425.7141 181.4846 L426.0438 181.1703 L426.7256 180.828 L427.2332 180.8986 L428.1537 181.1522 L428.8829 181.2277 L429.5194 181.437 L429.8922 182.1405 L430.647 181.6964 L430.8696 181.1456 L430.7173 180.1434 L430.9671 179.6575 L431.4092 179.0747 L432.0127 174.7341 L436.4081 175.2126 L436.6472 176.1993 L437.1256 177.0661 L437.4244 175.6904 L437.6092 174.7226 L437.6459 174.0897 L437.6625 173.8 L437.8025 173.6588 L437.8537 173.6079 L437.9341 173.2984 L438.0524 172.8445 L438.2745 172.1903 L438.5653 171.5673 L438.9222 171.3169 L439.1661 170.7505 L439.2822 169.5939 L439.4426 169.4774 L439.6759 168.4825 L440.2612 167.8209 L446.0442 168.3323 L446.375 163.2684 L443.4049 162.8251 L442.5506 162.303 L442.248 161.9271 L441.6861 160.5948 L441.2695 159.3906 L438.6356 159.1616 L435.9457 158.1847 L434.6509 157.6758 L432.8511 157.8843 L431.6265 158.4622 L429.767 159.1657 L428.9521 159.2871 L428.3843 158.9342 L427.7813 158.559 L427.2167 158.0534 L426.8604 157.4599 L426.7901 157.1964 L426.9786 156.3763 L427.0308 156.2688 L428.3944 153.4679 L428.6389 151.7531 L428.6634 150.8772 L429.1811 150.14 L429.8384 149.8076 L429.293 148.9062 L427.6679 147.9433 L427.5502 146.7317 L427.7797 145.9182 L426.96 144.484 L426.7288 143.7058 L426.5573 143.3692 L426.5392 142.9489 L427.2146 140.4837 L427.1304 138.8977 L426.7874 137.1393 L426.9701 134.7143 L427.0303 134.4057 L427.1331 133.877 L427.9518 130.9208 L428.1947 128.797 L427.5038 127.3325 L427.1299 127.0337 L426.6516 128.9473 L426.8311 130.6064 L425.8596 132.9239 L425.1192 133.3705 L424.8795 135.9794 L423.7902 138.6917 L423.8089 141.491 L424.8848 142.582 L424.7612 144.2066 L424.4092 145.4823 L425.8015 149.063 L425.6699 150.7762 L425.0547 153.7298 L423.5415 158.33 L422.9582 160.9617 L421.9031 162.033 L421.6186 162.3211 L419.5658 171.0838 L418.761 178.8998 L418.6198 179.8602 L418.2363 181.9574 L418.1793 182.2702 L417.0986 184.873 L416.6991 185.235 L415.8996 185.9598 L415.865 185.991 L415.6572 186.0254 L414.2617 186.2586 L414.1941 186.4244 L414.1898 186.4711 L413.8723 186.5122 L411.4781 186.8184 L410.2216 187.9183 L409.2319 188.1029 L408.2716 188.1957 L407.2537 188.0168 L406.6683 187.8042 L406.1543 187.8944 L405.9636 186.2036 L406.2385 184.2919 L404.4434 184.062 L404.2038 184.1351 L404.0733 184.1753 L403.9928 184.2246 L403.2125 188.7776 L402.8173 188.9106 L402.7198 188.9435 L402.584 188.9451 L402.0886 188.9508 L401.5618 188.391 L400.5269 187.1475 L398.7756 186.9645 L398.416 185.844 L397.5068 185.3154 L396.1326 184.7023 L395.7421 184.4971 L396.3701 181.7013 L395.9504 180.8378 L395.1296 180.8214 L394.3626 180.5522 L394.0441 180.4405 L393.8257 180.1976 L393.6153 179.9636 L393.3564 179.1994 L393.7175 178.3417 L393.5796 178.4705 L393.4949 178.4935 L393.4209 178.5132 L393.1647 178.4517 L390.8189 176.4899 L390.2852 176.2797 L389.8681 176.2313 L389.5863 176.3052 L389.3301 176.4291 L389.0755 176.6122 L389.0111 176.6581 L387.9282 177.7819 L385.5404 180.2591 L385.1574 180.4594 L384.784 180.4003 L384.1448 179.9694 L383.6132 179.5007 L382.7051 179.3891 L384.5843 175.7815 L383.8742 175.3768 L382.5751 174.6372 L382.5501 174.2711 L383.7469 172.0589 L384.1289 171.9194 L384.3137 171.8521 L384.9273 172.2584 L385.4706 171.7347 L385.387 171.0854 L384.9188 170.7431 L383.1807 169.3764 L382.94 168.7452 L383.0454 168.3101 L382.8841 168.5268 L382.6129 168.2994 L379.457 171.9966 L377.2369 170.0306 L374.9924 173.3649 L373.2879 173.0661 L372.7494 175.518 L371.9408 176.0015 L371.7155 176.7074 L372.4506 177.3115 L372.0021 178.5075 L369.5317 181.6176 L368.7284 182.5558 L368.2805 183.0787 L365.556 187.2165 L363.63 190.0195 L362.464 192.262 L359.8929 189.6608 L360.3712 187.7172 L359.4439 186.1026 L357.5903 184.6374 L356.5335 183.05 L355.7484 181.4879 L355.3612 179.6854 L354.2911 177.0374 L353.9033 177.4757 L353.5827 176.7755 L352.6612 176.3881 L352.3901 176.3438 L354.47 178.9622 L355.0085 182.9991 L356.3237 186.0484 L354.1712 191.1613 L353.3936 188.8893 L353.5731 188.3804 L352.4071 184.4938 L350.8976 180.6589 L349.5804 180.5259 L348.3515 180.4077 L349.0397 177.9559 L348.2322 176.819 L348.89 175.0255 L351.1857 175.7651 L351.5469 175.5352 L347.8279 173.8968 L347.3464 173.685 L347.2159 173.6276 L347.2207 173.021 L346.6444 173.1178 L346.0958 173.5611 L344.868 173.9986 L335.821 174.1423 L335.0817 173.942 L334.6737 173.3518 L334.7323 172.7173 L334.7573 172.4423 L337.4344 169.0177 L337.5665 168.7944 L337.4168 168.7008 L333.5839 165.9608 L333.6036 165.9354 L332.2283 164.7131 L331.4858 164.0605 L331.2339 162.9179 L331.4794 161.529 L331.6824 160.8246 L331.8539 159.5301 L331.9471 159.0269 L332.1554 158.3883 L332.6081 157.5682 L332.9304 156.813 L333.3799 155.2714 L333.9445 154.0934 L334.1325 153.2939 L334.948 151.8967 L335.7513 150.8583 L336.7382 149.8084 L337.0957 148.9768 L337.0525 149.0138 L336.9955 148.2856 L336.7643 147.5041 L336.7079 146.6939 L337.0637 145.9551 L337.0967 144.9675 L337.9298 143.2584 L338.3857 142.2003 L339.0382 141.294 L338.8853 141.0436 L338.9024 140.5979 L339.1261 139.7802 L339.5618 139.1243 L339.5911 138.9363 L339.1927 138.0867 L339.1799 137.9249 L339.272 137.5999 L340.0939 136.1206 L340.625 135.4564 L339.8574 134.9327 L338.2281 134.9023 L337.5106 136.3225 L336.7329 138.58 L334.7307 141.7126 L334.9304 141.8202 L335.0764 141.899 L334.9992 142.1346 L335.1254 142.5171 L334.9544 143.0713 L334.5384 143.8536 L334.2694 144.406 L333.9142 145.5225 L333.8998 146.0938 L334.2604 146.9246 L334.3621 147.4713 L334.4399 147.9909 L334.3142 148.302 L334.1927 148.6025 L333.2622 149.54 L333.2484 149.5539 L331.8464 151.5347 L332.231 151.9444 L332.4425 152.1693 L331.4954 153.4934 L329.2492 156.6341 L328.5206 157.2333 L326.2435 160.1129 L325.0238 161.3943 L324.6802 162.0954 L323.6527 162.5337 L323.4003 162.4409 L323.0807 162.5994 L322.8202 162.9236 L322.6215 163.6131 L322.5874 163.6493 L322.0356 164.237 L321.3522 165.4084 L321.3544 167.1896 L321.3544 167.2225 L320.8904 167.518 L318.2048 171.0173 L312.5023 168.5285 L311.6506 168.6844 L308.8553 167.7807 L306.5937 166.8129 L305.922 163.9242 L305.9646 163.6443 L306.0413 163.1403 L306.4669 162.6289 L306.9165 161.9895 L307.0912 161.4633 L307.4667 161.4715 L307.5796 161.3845 L308.6151 160.5882 L310.2588 159.9923 L310.5645 160.0268 L310.5656 160.0276 L311.2463 159.4029 L312.0213 158.3628 L312.0133 158.3579 L312.6009 157.5707 L313.5298 157.2678 L314.4752 157.2752 L314.7426 156.8245 L314.537 155.7155 L314.6537 155.2246 L314.6856 154.7854 L315.2897 153.8267 L316.5435 150.1942 L316.5888 150.09 L317.9129 148.7051 L318.6586 147.0904 L321.0955 144.4619 L321.4987 143.7477 L322.1347 142.9358 L322.377 142.4638 L322.4676 142.2873 L322.6332 142.2175 L322.9965 142.0648 L323.1393 142.0049 L324.3787 141.0559 L325.0909 140.8146 L326.528 139.9657 L326.838 139.3837 L326.9434 139.1851 L327.1794 138.5242 L327.3173 138.1376 L328.1099 137.4899 L328.2122 137.4061 L328.9084 136.9661 L329.2104 136.6763 L329.4181 136.334 L329.0399 135.8505 L328.2479 136.1797 L327.4255 136.1197 L326.7921 135.7848 L327.4052 135.0821 L328.7805 134.0953 L329.857 133.7218 L330.8584 133.8113 L331.2621 133.9312 L331.4991 134.2735 L332.0984 134.1561 L332.549 134.0814 L333.7693 133.4575 L334.6375 132.7342 L334.1411 132.6095 L332.4648 133.0823 L331.1833 132.9559 L330.4338 132.2203 L330.5148 131.8493 L330.7508 131.6949 L331.1961 131.4035 L331.8858 130.7681 L330.8978 131.3034 L329.9358 131.9905 L329.5449 131.5784 L329.2732 131.1704 L329.0191 131.5086 L326.8422 133.0281 L325.9191 133.4041 L324.5641 134.1036 L322.3989 136.1477 L321.194 137.4496 L321.4193 138.429 L321.6718 138.6449 L321.6164 138.8674 L321.4417 139.1711 L321.046 139.6554 L319.0123 141.6306 L318.0509 142.504 L315.899 144.5784 L315.6737 144.7049 L315.5544 145.2623 L315.2343 145.7335 L316.3065 146.8384 L316.1121 148.3784 L314.5274 150.3822 L313.5559 152.5641 L312.6919 151.9132 L312.8725 153.0411 L312.2552 153.9186 L311.3454 154.2716 L311.0242 154.3192 L310.1746 153.7495 L309.7251 153.7634 L308.5554 154.7518 L306.9953 156.5996 L306.5676 157.1742 L305.686 157.1159 L305.1875 157.0831 L304.6026 157.7505 L301.6571 161.1087 L298.9023 164.1992 L293.2211 167.6682 L291.1283 164.9766 L292.8024 160.0136 L293.6994 157.5617 L293.8261 156.1522 L293.8384 155.7442 L295.0129 148.1436 L294.3338 147.5829 L294.0994 147.9794 L293.8086 148.6017 L293.5598 149.54 L293.4314 150.0013 L292.9302 152.2694 L292.3907 154.1411 L291.8106 154.7518 L291.0681 155.5341 L290.3741 158.165 L289.7674 159.3684 L289.3578 160.6465 L288.8661 162.1783 L288.6845 162.2226 L287.8807 162.4196 L281.8054 161.671 L280.6916 161.781 L279.5906 162.4237 L278.3624 163.4235 L277.0941 163.82 L276.3474 163.9907 L275.6086 164.0786 L274.8591 163.9374 L274.4453 163.7412 L274.2205 163.4186 L274.1289 163.1001 L274.1081 162.7389 L274.205 162.1906 L276.0682 159.4078 L276.3953 158.871 L276.3372 158.3202 L276.7452 157.001 L276.3607 156.5446 L275.8946 157.047 L275.518 157.0773 L275.208 156.8894 L275.0173 156.726 L274.221 156.1202 L273.9707 155.7385 L273.1467 155.2107 L272.8143 155.0892 L272.2652 154.8881 L271.6414 154.471 L270.8883 153.6772 L270.7439 153.5714 L270.7077 153.4868 L269.971 152.5674 L269.1438 151.2482 L269.2046 150.0514 L269.4341 149.6959 L269.6983 149.2871 L269.6674 148.7117 L269.5071 147.7028 L269.1497 146.9164 L268.9409 146.2301 L269.0229 145.9567 L269.2972 145.9723 L269.6855 146.2153 L270.15 146.1119 L270.4249 145.8533 L270.64 145.5849 L270.9032 145.1785 L271.0923 144.4881 L271.5424 144.1064 L271.1631 143.6032 L270.5154 142.1223 L270.092 141.656 L269.7798 140.8983 L269.7665 140.73 L270.7434 139.3936 L271.0603 139.1021 L272.4644 139.4945 L272.8298 139.2589 L272.8202 138.9486 L272.9821 138.195 L273.7992 136.7535 L274.3771 136.7814 L274.1726 135.3982 L271.4422 131.7376 L270.4733 132.5816 L270.2912 132.6103 L270.1596 132.4362 L270.0802 131.8058 L270.1149 131.1211 L270.4675 130.6269 L271.0497 129.9595 L271.0326 129.5531 L270.9053 129.2453 L270.5474 129.1106 L270.2571 129.0811 L269.9348 129.3955 L269.7649 129.3947 L269.7031 129.3545 L269.146 127.9162 L268.9761 127.1543 L268.2469 126.1224 L268.4413 125.4271 L268.8855 124.5027 L266.1269 123.1547 L265.9773 120.6073 L264.2536 120.2329 L262.5305 119.0713 L262.5305 117.0484 L262.3771 116.0748 L261.5744 115.7004 L261.4018 115.2095 L261.4807 114.8097 L261.6181 114.1143 L261.7859 113.9821 L262.1875 113.6652 L262.5305 113.3344 L262.7675 112.0701 L262.742 111.3312 L263.0418 110.8698 L263.2997 110.3099 L263.3396 109.5325 L264.9631 105.8339 L265.2763 105.5392 L265.3216 105.2666 L265.5767 104.6739 L265.8207 104.3512 L264.8997 102.5319 L264.8624 100.5468 L265.7615 100.2093 L266.7352 101.5952 L269.0954 105.9037 L269.8448 105.0795 L267.5598 100.3218 L268.159 98.3736 L268.8706 99.4975 L271.3059 97.6618 L271.381 96.725 L272.0553 94.927 L272.8042 93.6159 L273.9281 91.7054 L276.2137 90.9558 L278.2366 89.6824 L279.6881 89.299 L279.7084 89.1783 L279.8889 88.8458 L280.3172 87.909 L280.8519 87.1036 L278.993 87.2612 L277.8318 88.1791 L277.3636 87.7292 L277.6896 86.4205 L277.2502 86.9369 L276.7468 86.7325 L276.6392 86.8663 L276.3996 87.3893 L276.6579 87.7612 L276.4917 87.9673 L276.0592 88.5042 L275.559 88.7144 L274.6898 89.5904 L274.2546 89.4098 L273.7369 89.1175 L273.3033 88.9517 L272.9368 88.9886 L271.0252 92.6011 L269.0432 95.0247 L267.4319 96.5978 L264.1354 98.8834 L263.4238 99.9318 L262.7116 101.9925 L261.4381 104.2026 L260.0894 107.2001 L258.5346 107.1639 L258.3189 107.728 L258.142 108.0711 L258.1069 108.2181 L257.8677 109.6548 L257.6355 110.0513 L257.5945 110.1211 L257.4714 110.5915 L257.4421 111.0956 L257.5812 111.3583 L258.4558 112.0299 L258.4925 112.057 L258.7652 112.3312 L258.2012 114.6414 L257.9316 114.7818 L257.4528 114.7974 L257.138 114.6447 L256.853 114.304 L256.6629 113.8598 L256.2863 113.9493 L256.0546 114.2933 L255.6136 114.2243 L255.5273 113.9723 L255.7638 113.694 L255.9715 113.515 L256.0008 113.1612 L255.5587 112.7778 L255.2301 112.5372 L255.204 112.2056 L254.6756 113.3352 L253.7749 117.6527 L254.9781 117.7848 L256.8168 118.1805 L257.9956 118.4055 L259.2819 118.7101 L259.471 118.8652 L258.7935 121.5103 L258.2054 124.3204 L258.0797 124.9214 L257.1721 129.3397 L257.2163 130.2764 L257.1252 130.8092 L256.803 131.3083 L256.6325 131.6408 L256.2282 132.3533 L256.2128 132.7252 L256.2597 132.9436 L256.5931 133.0503 L256.8227 132.9657 L257.0363 132.8672 L257.3665 132.5159 L257.7655 132.0915 L258.0669 131.6793 L258.6156 130.9799 L258.7503 130.6286 L258.9186 130.4225 L258.9746 130.0999 L258.941 129.673 L258.7881 128.7601 L259.112 128.0007 L259.3314 127.5985 L260.099 127.22 L260.0835 126.8358 L260.2529 126.1709 L260.4393 126.1044 L264.0826 127.6444 L264.0699 128.4235 L263.9154 128.8061 L263.5995 129.297 L263.3822 129.7214 L266.7901 130.5818 L267.6642 131.429 L267.7702 132.4888 L267.5512 134.8563 L267.5235 135.2504 L267.3707 135.9367 L267.0021 136.9727 L266.8396 137.3487 L266.3475 138.1351 L266.169 138.7155 L265.1421 142.0509 L264.2478 145.135 L264.2115 145.708 L264.1977 145.7064 L264.2861 146.2794 L264.537 146.9336 L264.9439 147.6051 L264.896 148.3045 L264.5082 149.2904 L263.8706 150.2886 L263.721 151.011 L263.7364 151.2868 L263.7577 151.6669 L263.6587 152.0084 L263.5521 152.3425 L263.7258 152.8859 L262.799 156.6209 L262.0304 160.8066 L261.1035 161.7596 L260.8649 166.7932 L258.9314 169.2566 L257.6861 170.29 L256.282 168.3823 L255.9907 163.9587 L256.7854 157.707 L258.4281 151.217 L259.1471 149.5687 L258.5953 149.045 L257.8709 148.1937 L257.1098 147.2981 L256.2543 146.6028 L255.6034 146.3573 L254.9201 146.2424 L252.2227 146.4985 L252.1183 146.5067 L251.2496 146.3935 L251.0775 146.2785 L250.2514 145.7244 L247.1743 145.2721 L246.8952 145.1014 L246.6806 144.9109 L246.6124 143.1993 L246.3908 143.077 L245.8289 145.2311 L243.4873 144.7254 L243.2817 146.4485 L239.6289 145.6801 L239.8536 143.8068 L236.1448 143.0204 L237.0839 139.4929 L234.1618 137.9734 L233.9977 138.7409 L233.6872 138.773 L233.2861 138.7976 L232.0743 143.7501 L231.9731 144.704 L231.8623 145.7441 L230.4077 145.9329 L229.2561 145.9781 L226.726 153.692 L224.7659 154.9365 L219.4677 152.1553 L222.7887 144.0457 L222.7131 143.2239 L222.9895 142.3965 L223.6079 142.4662 L224.3733 142.4014 L224.6008 141.4491 L224.9917 140.7809 L225.1201 140.7226 L225.4194 140.588 L226.5039 140.2785 L226.5833 140.0815 L226.1849 138.9971 L226.5519 138.0694 L227.525 134.7422 L227.5458 134.1988 L227.4744 133.6947 L227.2773 133.2005 L226.9199 132.6866 L225.8781 131.5267 L225.7609 131.2492 L225.7023 130.9036 L225.7263 130.8059 L226.5694 129.847 L226.6387 129.5228 L226.6429 129.1714 L225.8775 126.5493 L225.6884 125.9016 L225.4205 124.5109 L225.6021 123.754 L225.8259 122.8214 L226.0043 121.4693 L225.885 121.1598 L225.6384 120.6262 L225.1718 120.4185 L224.6562 120.6221 L224.3648 120.9086 L223.9776 121.2903 L223.5429 121.4882 L223.2111 121.3954 L222.9687 121.136 L223.0236 120.6212 L223.4407 119.8873 L223.356 119.6435 L223.2361 119.2979 L222.9363 118.9703 L222.2305 118.1986 L221.9679 117.6781 L221.912 116.5665 L221.9551 116.3088 L222.3834 116.115 L223.5632 116.2127 L223.6867 116.1708 L224.5124 116.6027 L225.5356 112.6669 L225.2112 112.4617 L225.0775 112.3771 L224.8495 111.7368 L225.1776 110.933 L225.3587 109.7632 L224.8128 106.6746 L224.6391 104.8447 L225.1467 103.8866 L227.9975 104.082 L229.0036 104.0023 L229.9129 103.9309 L230.7816 103.4326 L230.2921 103.123 L229.8441 102.9662 L229.7174 102.8973 L225.7566 100.8087 L223.7144 99.7635 L223.6361 99.6634 L223.3448 99.2898 L223.3246 98.7504 L223.4364 98.2972 L223.7246 98.0156 L223.9802 97.6995 L223.935 97.4065 L222.9389 96.2726 L222.1485 95.1635 L221.611 93.5682 L221.5897 93.505 L221.586 92.7054 L221.6712 92.106 L221.9652 91.8975 L222.5144 91.6881 L222.7962 91.5165 L222.8505 91.1298 L222.1192 88.2275 L222.3029 87.9394 L223.9786 87.7604 L224.335 87.4566 L224.4761 87.1052 L224.5315 86.4632 L224.4863 85.8934 L224.4197 85.5797 L224.1304 85.3958 L223.7081 85.1265 L223.5216 84.9073 L223.4146 84.6183 L223.3917 83.7858 L223.381 83.3892 L223.316 83.097 L223.1797 82.9804 L222.9442 82.9352 L222.9027 82.9385 L222.7131 82.9533 L222.4872 83.0346 L222.394 83.1914 L222.2561 83.5846 L222.0712 83.918 L221.9322 84.0346 L221.4709 84.0715 L220.9697 83.8778 L220.6938 83.3498 L220.5985 79.7003 L220.6246 79.335 L220.6384 79.1363 L220.5186 78.9548 L220.281 78.8883 L219.6615 77.9367 L219.6509 78.6412 L219.6253 78.7471 L219.7329 79.0271 L219.489 79.3054 L218.8951 79.6429 L219.1928 79.7742 L219.3617 79.8489 L219.8996 80.3908 L219.9859 81.4877 L219.6291 82.9598 L219.7452 84.2464 L220.0131 85.395 L220.1958 86.4993 L220.4957 87.7711 L220.7204 88.5609 L220.5228 88.8647 L220.2997 88.8458 L220.0648 88.6791 L219.7153 87.4254 L218.9174 84.8901 L218.5973 83.4566 L218.0269 80.1667 L217.9944 79.9918 L216.9339 80.4023 L216.3288 80.904 L216.0619 81.2578 L216.014 81.3219 L215.8622 81.523 L215.9485 82.2185 L215.9799 82.4713 L215.9288 82.4869 L215.6768 82.5625 L215.1554 82.4459 L214.7649 82.583 L214.3063 82.4114 L213.4349 80.7258 L213.3492 80.2956 L213.4147 79.9056 L213.3902 79.5961 L213.4653 79.3309 L213.8088 78.9113 L214.1007 78.2069 L214.0011 77.6962 L214.0219 77.206 L214.2946 76.4515 L214.5476 76.2905 L214.8645 76.4728 L212.2381 70.8749 L212.4298 69.7033 L213.8003 68.3074 L213.4637 68.1564 L213.1803 67.8386 L213.0376 67.5315 L213.1627 65.1808 L213.1798 65.1201 L213.2432 64.8935 L213.3907 64.7104 L213.812 64.5888 L217.3696 63.5592 L218.4652 62.9779 L219.0442 61.9458 L220.3279 59.5015 L220.656 58.8774 L221.7644 57.3363 L221.048 56.2442 L219.1609 58.8331 L218.5845 59.8562 L218.3704 60.325 L217.8804 60.949 L216.4705 62.3646 L215.8734 62.3744 L215.2358 62.4401 L213.69 62.7841 L213.2618 62.7817 L213.3076 61.4893 L213.2639 60.752 L212.6833 60.9523 L212.4666 61.0837 L212.3739 61.1403 L211.4497 62.1847 L210.2417 63.7243 L209.7778 63.739 L209.5887 63.4944 L209.7666 60.7848 L210.3338 59.7404 L211.4764 58.494 L211.9691 58.0687 L211.985 57.7739 L211.6314 57.4094 L211.3682 57.3108 L211.1152 57.3749 L210.8787 57.5645 L210.6902 57.8905 L210.3514 58.0876 L209.9482 58.5934 L208.9207 58.7707 L208.2203 58.2124 L207.5311 56.874 L206.6836 56.0152 L203.5671 53.5511 L202.8257 51.9762 L201.8877 49.7379 L201.3944 48.3552 L200.4778 47.8724 L200.7952 47.025 L201.6187 46.5512 L202.2531 46.0364 L202.4853 45.8475 L203.108 45.3425 L203.827 43.5188 L205.1539 42.0441 L206.0024 39.6251 L206.9201 39.4748 L208.8243 40.1161 L208.9303 39.6785 L209.6057 39.1579 L213.0796 40.5119 L213.6432 40.5415 L212.2061 39.6407 L211.4279 39.3246 L207.8048 38.1454 L208.2059 36.114 L208.8195 36.0286 L208.7572 35.8923 L207.5902 35.889 L206.2218 35.5088 L205.2876 35.2493 L205.2551 35.1245 L204.8226 33.4716 L204.9765 32.7112 L204.5797 32.7416 L203.8233 33.9142 L203.5565 33.8173 L201.8642 36.0196 L201.2283 37.4762 L201.1755 43.2512 L199.7448 44.6019 L194.3411 44.046 L193.1491 41.0259 L194.0764 36.9729 L194.3411 35.0391 L196.3279 34.3502 L197.732 34.6417 L198.4207 35.1188 L199.6655 34.8536 L200.2748 33.869 L197.9051 32.5683 L197.8268 32.5084 L197.8332 32.4041 L198.0872 32.1151 L197.2979 31.9361 L196.5298 32.4509 L195.7931 33.1571 L194.9851 33.1177 L193.1027 32.5963 L191.9037 32.7276 L191.0611 33.1398 L189.8994 32.5215 L188.7872 32.3097 L187.6213 31.6741 L186.8532 32.7334 L184.3364 32.6808 L183.0123 32.2038 L184.3103 30.6674 L183.3036 30.4022 L182.0322 30.9318 L180.2308 29.3955 L179.4361 27.8328 L179.287 26.9723 L170.322 25.4187 L164.5806 22.3369 L162.3126 19.0539 L157.7457 19.8898 L154.0443 20.9647 L152.8507 19.7708 L151.6565 18.8453 L152.3654 17.8878 L151.6863 17.3229 L150.3728 17.2038 L150.0447 16.1585 L154.0741 14.9053 L159.4475 15.8308 L158.0445 14.6368 L155.8058 13.4428 L150.2535 12.3975 L142.2659 10.0596 L137.8481 6.1195 L136.117 7.1041 L134.893 5.9997 L127.5201 2.806 L124.2966 1.791 L121.5204 0.2094 L121.5204 1.433 L119.5507 1.2236 L116.3862 0.0 L113.4316 0.1191 L111.8795 2.7461 L108.8344 0.657 L106.5957 0.8655 L104.447 2.1491 L105.6705 3.3727 L102.865 5.2236 L104.2478 7.3587 L105.0425 8.3655 L108.486 11.7389 L111.0512 16.096 L113.1946 19.6804 L115.5841 21.9288 L116.4475 24.5482 L117.0142 25.4934 L118.2308 26.753 L120.1989 28.1835 L120.9201 29.2739 L121.9396 30.3036 L122.6097 30.4654 L123.161 30.472 L123.5807 30.1846 L124.1165 30.0047 L123.7644 29.5761 L123.6893 29.1582 L123.3016 28.7862 L122.827 28.2631 L122.1452 28.0504 L121.5529 27.1866 L120.8557 26.3088 L120.5473 26.0518 L120.4125 25.8407 L120.045 25.6773 L119.2817 25.0861 L118.5866 24.3273 L118.4412 23.8864 L118.3 23.6294 L118.2446 23.1966 L118.7293 21.4977 L118.7427 20.6978 L118.5674 20.3431 L116.9663 19.8217 L115.5036 19.1532 L114.3302 18.5029 L113.5387 17.2695 L113.4972 16.8359 L113.2559 16.1215 L112.2902 15.0211 L111.1855 13.5685 L110.4568 12.1076 L110.4254 11.7102 L110.2746 10.9226 L110.4185 10.1261 L110.3354 9.4511 L110.354 8.7531 L110.5127 8.4222 L110.7423 8.2415 L111.4076 8.2472 L113.7928 7.8728 L116.7937 7.9968 L117.9389 7.2536 L117.5208 5.7607 L113.4913 5.4922 L113.2521 3.463 L115.4909 2.209 L116.2967 3.8506 L122.6251 3.8506 L129.2518 6.2986 L131.4308 9.8502 L131.5645 10.7929 L131.6694 11.3727 L132.5249 11.3521 L132.4024 11.0228 L132.5446 10.7674 L132.756 10.728 L133.0847 10.8726 L133.3478 11.5517 L134.2815 13.9618 L135.4076 17.1833 L134.3455 17.7638 L133.3803 19.4965 L132.6415 21.6159 L132.4359 23.8166 L132.6314 25.4178 L132.9744 27.033 L133.0075 27.1874 L132.8679 27.3516 L132.0412 28.3231 L131.2572 29.43 L130.7283 30.1238 L130.6526 30.6633 L129.093 31.4828 L128.7958 31.7439 L128.8997 32.1208 L128.929 33.0512 L128.8688 34.1597 L128.6057 34.7583 L128.2483 35.0974 L128.0421 35.4768 L127.9526 35.8397 L128.1721 36.1854 L129.4462 36.6099 L129.6555 36.83 L129.6363 37.2389 L126.9614 40.3994 L125.014 42.2051 L124.3083 43.4614 L122.5106 45.478 L121.6775 46.0552 L121.1348 46.6612 L120.1403 46.318 L119.8266 46.5578 L119.7765 47.1391 L120.1398 47.8067 L119.9901 48.3445 L119.5086 49.563 L119.5107 49.5671 L119.3946 50.8061 L118.969 51.5878 L117.305 51.4926 L116.855 51.4006 L115.216 51.7225 L114.8256 51.5837 L114.4495 51.2824 L113.3864 50.0951 L113.339 49.7839 L113.3496 49.072 L113.4924 48.4537 L113.5451 47.7163 L113.4077 47.3789 L112.9869 47.1974 L112.3956 47.0964 L111.8683 47.6392 L111.3799 48.1696 L110.3503 49.6016 L109.4283 51.0048 L109.2147 51.1797 L109.171 51.2405 L108.9057 51.4326 L107.8239 52.2923 L109.0155 54.8714 L112.3925 60.1485 L114.9039 60.0853 L114.9012 60.6116 L114.5662 61.6888 L112.5996 63.8934 L112.4457 66.7901 L110.3482 65.9953 L108.9931 68.9651 L111.9701 70.1639 L110.0078 75.0261 L108.9505 82.2349 L107.9534 88.8638 L106.9323 91.372 L104.4693 97.4508 L104.1652 99.3465 L103.0882 104.7634 L102.3345 108.4159 L101.4066 111.0833 L99.8412 111.8369 L95.7249 112.9962 L92.9418 115.1413 L89.2314 115.8663 L87.202 113.2285 L85.8081 110.0833 L85.4528 109.8822 L85.391 109.4799 L83.6652 108.677 L80.6505 108.7928 L79.2011 110.7065 L77.9547 113.9238 L79.9836 115.2284 L81.3754 116.4171 L78.9401 118.1559 L76.7659 117.4318 L74.7658 121.7509 L73.6643 123.983 L72.8525 125.2292 L72.7945 126.8818 L71.8959 127.9835 L69.866 129.5745 L69.777 132.3656 L69.0585 138.2131 L71.1438 139.4937 L72.7428 141.7898 L72.0866 143.7575 L68.2174 143.352 L67.6816 145.1613 L67.8835 145.4634 L67.8973 145.9075 L67.6853 148.5524 L67.6949 149.7386 L68.0955 151.868 L68.5653 160.058 L69.4233 168.9085 L69.727 171.2611 L69.7983 171.8135 L67.8329 171.422 L67.3663 172.4291 L69.8399 173.0834 L69.8947 173.763 L69.981 174.8236 L70.029 175.4121 L70.7012 183.8757 L70.5233 186.1042 L69.5118 189.193 L68.6494 192.3982 L68.3746 193.9881 L68.3921 195.0043 L68.5914 196.114 L69.5304 199.7263 L70.8173 205.8749 L71.8346 209.6767 L73.3687 215.4877 L74.0504 217.1793 L74.2118 217.8876 L74.483 218.9447 L75.5371 220.5542 L76.392 223.3669 L77.4498 227.6873 L78.0368 229.25 L78.5433 230.8611 L79.615 231.6227 L80.7565 233.2683 L81.7754 234.9663 L83.0873 238.5241 L84.1579 239.4606 L84.9899 240.5562 L85.3106 241.7151 L85.0315 243.5067 L83.9145 244.5949 L83.2594 245.3647 L81.9927 244.933 L79.8877 242.8649 L76.1033 239.9497 L74.3141 239.5927 L72.2474 238.9427 L70.2436 237.2397 L69.4617 236.4124 L69.4116 235.7813 L69.4777 235.0024 L68.6792 233.9757 L67.5026 232.9022 L66.7729 232.4492 L66.4485 231.5201 L66.603 230.5828 L67.2283 229.9927 L67.3529 228.3094 L67.5905 227.8539 L67.557 227.153 L67.3173 226.4546 L66.6333 226.0204 L66.2062 225.8472 L65.4626 224.7409 L65.2144 224.2615 L61.1524 227.2064 L60.2128 227.5773 L59.2434 227.5699 L59.0293 228.096 L50.043 223.9505 L48.6512 222.1243 L46.2745 220.6749 L43.7205 220.2497 L40.3084 219.2049 L38.8281 218.6312 L39.323 220.1857 L43.9714 222.5626 L45.9821 224.0129 L45.9672 224.3535 L45.3978 224.6104 L43.8515 224.7761 L43.2821 224.8746 L42.9407 225.1315 L42.8603 226.0705 L42.0714 226.6441 L38.8756 227.3943 L36.9708 227.7612 L36.5015 227.3393 L35.8523 229.6448 L36.5181 228.7592 L37.8875 228.3398 L38.7291 228.5245 L40.5758 228.6328 L43.0115 228.7231 L43.8121 227.927 L48.2597 230.77 L49.0326 231.0269 L50.0883 230.8389 L50.4824 229.9419 L50.5107 228.9028 L50.2502 228.3168 L49.6046 227.4353 L46.8897 226.1492 L47.522 225.0921 L47.3872 224.1934 L50.5506 225.2965 L57.3914 228.1412 L58.2543 228.7157 L58.3699 230.1799 L58.3784 230.8455 L57.2332 232.2317 L55.5783 234.9179 L53.2442 241.61 L53.1308 244.7435 L53.2128 245.7808 L53.1925 247.011 L52.808 247.9491 L50.8303 247.9795 L48.4872 247.6578 L45.1315 246.7813 L41.3188 244.9248 L40.9273 243.5986 L40.0969 242.6211 L39.8812 241.1422 L39.5099 239.6469 L39.0481 238.8918 L37.8385 237.2266 L36.7934 237.1691 L35.8267 236.2393 L35.661 240.0802 L36.3993 240.777 L36.8499 241.8431 L37.0049 245.2482 L37.2979 245.2252 L38.23 246.8871 L39.7358 249.9434 L40.4969 251.5766 L42.2003 254.9988 L43.3519 256.7698 L44.6628 257.8941 L45.9033 259.176 L46.4972 259.684 L46.8626 260.2913 L47.017 260.7452 L47.122 261.4181 L46.469 261.8399 L46.1536 262.613 L44.9791 263.624 L44.463 263.6355 L43.8968 264.1969 L43.7445 264.9289 L42.587 266.228 L41.1239 267.6034 L39.804 269.1142 L38.5368 270.7252 L38.0808 271.2135 L37.1098 271.2537 L36.1841 271.1199 L36.0515 271.8445 L36.5149 272.0341 L36.7141 272.7809 L36.7322 273.8453 L36.5894 274.3746 L36.3817 274.7315 L36.0717 274.725 L36.1367 275.2765 L35.2573 276.7528 L34.8621 278.0059 L33.7728 280.1871 L33.2535 280.4284 L33.1171 281.3204 L33.1517 281.5329 L33.1704 281.6191 L33.3845 281.7135 L33.687 281.7118 L33.9427 282.5128 L34.3246 287.338 L34.2777 288.7921 L34.3284 290.6385 L34.2042 291.0127 L32.9637 290.938 L32.4385 290.7805 L29.8232 289.561 L27.2868 288.2645 L26.2161 287.6933 L26.4004 288.2062 L26.8346 288.2825 L27.5126 288.6436 L31.1522 290.3291 L32.4657 290.9799 L34.1611 291.1407 L34.0365 291.5206 L33.2236 291.6963 L32.4524 291.5584 L26.3205 288.5016 L26.556 289.1663 L28.9396 291.4903 L31.0579 292.7516 L31.9847 293.1561 L33.0409 293.2735 L35.3233 293.1274 L36.6731 292.9748 L37.8449 292.8246 L38.1986 293.2702 L39.5057 293.4893 L40.2407 293.7437 L40.5944 292.9994 L43.6518 294.291 L45.9885 294.3731 L46.9723 296.0134 L48.7354 295.9724 L54.1881 296.4229 L58.9025 298.842 L60.1324 302.204 L61.3623 305.7292 L63.4119 308.1072 L64.8468 311.2639 L65.216 314.1334 L64.0271 317.4542 L52.4207 314.4272 L47.4709 313.7346 L46.8626 314.2598 L46.1377 315.013 L42.0858 312.3717 L38.7994 311.2056 L33.8037 310.2735 L33.8175 311.3895 L47.3553 316.376 L52.4575 317.999 L56.8774 319.3636 L61.8816 321.8433 L58.9286 324.0341 L54.8491 323.8282 L52.3147 323.2177 L49.2057 321.0318 L35.2376 314.4912 L33.8175 314.8391 L33.3243 315.5349 L33.0058 315.2165 L32.7799 314.7086 L32.0779 313.129 L29.6432 312.5784 L26.483 309.9108 L25.3032 310.4204 L24.7897 310.3613 L23.7569 310.2423 L24.1996 308.5199 L23.1044 308.346 L22.7145 310.317 L22.0647 312.1846 L23.0389 311.9072 L23.962 311.9154 L24.5671 311.8227 L27.69 313.8675 L29.3891 315.0385 L30.1801 315.4086 L29.7636 315.9395 L28.9486 316.0223 L27.2106 316.376 L25.9184 317.0439 L24.3593 317.5822 L23.1662 317.5149 L22.7571 317.103 L22.7071 316.2857 L22.8077 315.4192 L22.6671 314.853 L22.2554 314.8711 L21.9321 314.986 L21.7702 319.3653 L22.7492 319.147 L23.4118 319.22 L23.8102 319.4022 L24.8164 319.5294 L25.5658 319.4851 L26.0947 319.3612 L27.0109 318.9993 L27.2362 318.8631 L27.5281 318.914 L28.0005 318.8245 L28.2349 318.6128 L28.4085 318.3847 L28.8421 318.4536 L29.028 318.9345 L29.232 322.5326 L28.988 323.0897 L28.1933 323.2128 L27.9105 323.1832 L27.3853 322.6999 L27.2623 322.9166 L27.1765 323.3236 L26.858 323.6813 L27.2948 323.9997 L27.7875 324.6372 L30.4257 325.7679 L31.7594 325.9714 L31.5565 327.0143 L30.6286 326.9856 L28.5411 327.0143 L26.3381 326.0871 L23.6131 326.2611 L20.7102 325.868 L20.3762 330.3637 L21.1901 330.2505 L21.743 330.3284 L23.2978 330.3867 L24.0584 330.7289 L25.5083 331.5157 L26.5618 331.6815 L27.9078 332.1836 L30.1657 333.2913 L31.7658 333.3086 L32.201 333.8321 L32.3661 334.3293 L32.2596 335.8768 L32.3304 336.7671 L32.5429 338.1488 L32.3735 339.0801 L32.1392 339.5724 L31.6028 339.7857 L30.9279 339.6544 L28.9571 338.8971 L28.2445 338.7576 L27.6671 338.7256 L26.6604 338.5065 L25.6313 338.3744 L24.5143 338.0626 L23.146 337.462 L22.5345 337.2503 L21.3328 336.8442 L20.6324 336.3822 L20.1349 335.8817 L19.769 335.1777 L19.483 337.0583 L19.786 337.0641 L21.3446 337.828 L22.5776 338.3958 L26.6162 339.446 L28.9524 340.5414 L30.2675 341.0001 L31.7882 341.288 L32.7997 341.8509 L32.936 348.0415 L32.3379 348.4223 L30.1545 347.3146 L28.5119 345.8558 L27.5115 345.5768 L26.3845 344.8982 L25.414 343.3574 L24.476 342.7436 L23.5817 342.312 L22.1579 341.2364 L20.4966 339.6257 L19.1842 338.4073 L18.7591 340.772 L19.1176 340.6399 L19.508 340.7276 L20.0907 341.2232 L21.808 342.6952 L23.0181 343.615 L24.247 345.2117 L28.2636 347.6305 L31.117 349.0975 L32.8167 349.7982 L33.2141 350.5826 L33.377 353.7045 L33.4122 354.676 L33.05 354.9746 L32.137 355.0025 L30.4214 354.3035 L28.18 353.483 L27.1728 353.5207 L25.7346 353.9745 L25.3282 354.3839 L25.6324 355.3381 L26.4995 355.6507 L28.0357 355.581 L29.2197 355.8123 L30.9924 356.6705 L31.7578 357.1801 L32.1323 357.6584 L32.5786 359.3633 L32.9722 359.8572 L33.1469 360.576 L32.4731 362.1324 L31.573 363.9948 L30.9322 366.2437 L30.7282 368.1397 L30.692 369.171 L30.7362 370.0506 L31.4489 370.2508 L32.0454 370.51 L31.313 374.124 L30.7916 376.6674 L30.5247 377.3984 L27.8535 376.8684 L27.6261 376.7995 L27.804 377.423 L27.4359 377.9932 L26.3317 379.6127 L24.3364 382.4579 L22.6671 384.8815 L21.3941 387.9465 L20.6617 391.9845 L19.6646 394.8157 L17.7567 399.9874 L17.6848 405.4306 L17.4898 408.3479 L17.4658 409.9041 M35.619 286.5773 L36.0184 286.0775 L36.549 285.6951 L37.7698 285.2651 L38.1027 284.6242 L38.0835 283.9152 L38.1368 283.1922 L38.3594 282.553 L38.9656 281.5428 L39.6021 280.9068 L40.0314 280.7394 L40.3249 280.7164 L40.6343 280.6179 L40.7931 280.3832 L40.6706 280.1617 L41.1547 279.3607 L41.7945 278.0231 L43.6246 274.3787 L44.6718 272.1777 L45.1608 271.9693 L45.931 272.1203 L50.0547 273.6549 L52.5688 275.6146 L56.3554 279.0325 L56.3341 279.2262 L53.7918 282.6342 L53.2123 283.3318 L52.4863 284.0408 L51.4338 285.9454 L51.0289 286.4214 L50.0862 286.3557 L49.6238 286.3927 L49.2126 287.2543 L48.37 289.3797 L47.8943 290.1798 L46.6138 290.5039 L44.8018 293.1569 L44.1578 293.1348 L43.3311 292.8599 L40.7457 291.3409 L38.043 290.5794 L36.1937 290.2462 L35.8581 290.0132 L35.6594 289.8368 L35.619 286.5773 M61.3042 467.5263 L61.798 466.9612 L62.4595 466.369 L63.0433 466.0113 L63.699 465.5299 L64.5001 465.0295 L64.8298 464.9073 L65.2703 465.105 L66.1135 465.8333 L66.5902 466.2131 L66.7441 466.6265 L66.775 467.0161 L66.6562 467.4771 L66.2131 468.1194 L65.8887 468.4926 L65.5755 468.9175 L65.2192 469.367 L64.8346 469.6959 L64.5938 469.8288 L64.2503 470.0732 L63.895 470.0576 L63.0188 469.5425 L62.3684 468.9429 L61.8395 468.4155 L61.4315 467.9225 L61.3474 467.7002 L61.3042 467.5263 M94.8615 282.0097 L95.947 281.8128 L96.8141 281.1924 L97.6664 280.7181 L97.7814 280.5088 L97.9764 280.1535 L97.53 279.5528 L97.7623 279.1425 L97.9252 278.8544 L99.0092 278.3497 L101.9158 276.9957 L102.1875 277.8721 L103.1899 277.3362 L103.6959 276.7897 L103.2943 276.3343 L102.7452 275.4209 L103.1228 274.8587 L103.419 274.5912 L103.958 274.5141 L105.4127 276.2021 L107.2423 278.4605 L110.8771 282.9469 L110.982 283.4343 L114.3228 283.2111 L116.431 282.1665 L117.622 282.3749 L120.0413 280.9733 L123.3303 278.7674 L124.434 277.882 L126.5049 279.4321 L129.8084 279.7694 L130.1637 279.3115 L130.3522 278.6156 L131.0851 276.6297 L134.2155 273.4284 L134.7838 273.142 L135.3655 273.2216 L136.0025 273.8075 L136.9219 274.0455 L136.9203 274.4008 L134.6762 277.7613 L133.8022 278.6525 L132.6074 278.9471 L131.4399 280.0542 L127.9889 283.4524 L126.6855 284.2369 L123.8092 286.1374 L123.9818 286.9187 L121.563 287.7746 L119.5986 288.7675 L117.7258 288.8397 L116.3282 288.413 L114.1789 290.522 L114.0458 291.1579 L114.0506 291.5321 L112.5496 291.0299 L111.7426 291.8415 L111.4715 292.5218 L111.618 292.9698 L113.1621 293.0831 L113.9339 292.9551 L115.3944 293.1274 L116.489 292.7819 L117.059 292.1533 L120.3544 291.025 L121.5327 291.1817 L122.0259 292.0343 L123.9141 291.5699 L124.6902 291.7143 L124.9704 291.7668 L125.4503 291.4181 L125.5424 291.3516 L125.6239 291.3688 L127.5617 291.7767 L128.5513 291.2925 L130.1967 291.6774 L130.9078 290.9216 L130.9296 289.8515 L130.9301 289.8154 L131.7877 289.5266 L131.8665 289.584 L132.6053 290.124 L133.2109 289.8917 L133.8703 289.8762 L134.0099 290.7124 L134.8009 289.5816 L135.5381 289.1557 L135.9658 289.4527 L136.7237 288.3621 L136.3349 288.111 L135.9716 288.088 L135.5295 288.0043 L135.3117 288.0511 L134.8765 288.317 L134.7977 288.3588 L133.342 288.5263 L133.0964 288.5008 L133.041 288.454 L133.0261 288.3588 L133.0692 288.0667 L133.2163 287.7737 L133.8091 287.5267 L133.9252 286.3779 L134.2815 285.8461 L134.5979 285.4752 L135.047 285.2594 L135.5375 285.1043 L135.9173 285.1535 L136.2257 285.3218 L136.6199 285.3644 L136.956 285.3152 L137.2409 285.0928 L137.5035 285.0362 L137.6686 285.0001 L138.1592 286.071 L138.1928 285.6541 L138.6929 285.444 L141.0621 284.9746 L141.5175 285.1379 L141.8291 285.3431 L142.487 286.1932 L142.6659 286.5937 L142.5717 286.8973 L143.1048 287.1066 L145.115 286.8579 L146.2826 286.78 L146.9596 286.4747 L147.6792 286.24 L148.1815 286.1555 L148.345 285.9799 L147.8646 285.1297 L147.5072 284.3444 L146.5969 283.4688 L146.4962 283.1291 L145.1784 282.0491 L144.3683 281.8842 L143.8415 281.3861 L143.2305 280.3759 L143.1219 280.0296 L143.1735 279.6554 L143.6939 279.3328 L144.3938 279.41 L145.8458 281.1604 L147.0581 282.2108 L147.8273 282.6014 L149.0811 283.9004 L149.5781 284.868 L149.6143 286.0718 L149.748 288.2374 L149.1626 288.4836 L147.1817 289.0104 L145.6658 288.7831 L144.5909 288.7281 L143.5176 288.5377 L143.3818 288.6863 L143.4297 288.9874 L143.7701 289.3452 L143.8617 289.5766 L144.1499 289.8819 L144.5558 289.7777 L145.0485 289.3452 L145.3366 289.3058 L145.6898 289.3452 L146.0999 289.3805 L146.999 289.3764 L146.8046 289.8638 L146.0791 292.5251 L146.5036 293.2242 L147.3841 295.7549 L147.97 295.535 L148.0611 294.7218 L149.0433 293.5951 L150.4074 292.2855 L151.2043 291.6298 L152.5556 290.3308 L153.9298 288.9415 L154.2126 288.5041 L155.7754 287.8254 L156.8791 286.7529 L156.6309 285.1076 L156.4876 283.7839 L155.7238 282.1222 L152.3782 281.1669 L148.6731 279.6701 L148.7157 279.2639 L148.892 278.8265 L149.5072 277.5488 L149.9089 277.3051 L150.8831 277.2739 L151.9958 277.7187 L153.2235 277.8508 L154.0768 278.0937 L155.6582 278.3973 L156.3075 278.9529 L155.8234 279.5536 L156.2255 279.6923 L156.6005 279.5807 L156.7736 279.3452 L157.3627 279.0464 L158.0903 278.8183 L159.0768 278.4146 L160.027 277.8286 L160.8196 277.3953 L161.0225 277.4232 L161.6329 277.5086 L162.0718 277.2739 L162.7552 277.4191 L163.046 276.7076 L164.5002 276.2448 L165.8153 274.8128 L166.3527 274.3056 L168.4631 272.4961 L168.9099 272.3566 L170.1531 272.9614 L170.2703 273.0673 L170.5089 273.2823 L171.0815 274.3426 L171.3585 275.7852 L172.3812 278.1807 L171.162 280.8395 L169.3941 283.1143 L168.789 283.184 L167.8681 283.2899 L165.8962 285.6073 L165.8451 285.76 L167.075 290.3341 L166.61 291.217 L162.0175 293.8512 L161.3474 294.8613 L160.1261 295.3676 L157.2951 295.0082 L154.7549 294.3452 L153.5335 293.6501 L152.008 295.3922 L149.8407 298.1494 L149.3208 298.8108 L149.3661 299.5059 L149.3789 300.7581 L148.8595 300.7376 L148.3445 300.6892 L148.1128 300.7655 L145.6338 301.8626 L145.6525 302.277 L144.1749 302.684 L140.6962 302.3123 L139.4008 302.3131 L138.6753 302.0718 L138.2679 301.6525 L137.9536 301.1093 L133.3691 299.821 L130.8913 299.8587 L130.6846 299.3721 L126.5864 298.4785 L125.7081 298.3644 L122.9064 297.4084 L120.364 296.6765 L117.6518 297.9738 L117.1314 299.0439 L116.7122 299.3738 L115.3481 299.6372 L111.4103 299.3828 L110.5245 299.3024 L109.759 299.0529 L109.6472 298.5958 L109.5082 298.0288 L109.1667 297.886 L108.9505 298.2241 L108.8131 298.3456 L108.6618 298.3234 L108.2277 298.2586 L106.5483 298.0099 L106.1275 297.8335 L105.9746 297.7695 L105.8723 296.8865 L105.2433 296.3474 L104.2563 297.4872 L102.2977 292.3199 L100.1773 292.1501 L99.6702 292.7056 L97.1881 293.4277 L96.3017 293.2677 L96.1808 293.1914 L95.8772 292.9994 L95.9433 292.1542 L96.0093 291.3089 L96.4562 290.5687 L96.9894 289.9008 L96.4669 289.3165 L95.6578 289.3075 L95.596 288.9809 L96.0051 285.3414 L95.3898 284.9861 L94.9675 283.3605 L94.9185 282.7327 L94.8615 282.0097 M106.0465 351.6755 L114.3398 340.0081 L115.0056 339.7373 L119.7195 343.1834 L123.6611 343.4952 L122.5585 347.13 L109.2584 352.8324 L106.0465 351.6755 M127.4386 113.7063 L127.9388 111.1096 L128.4688 110.2089 L128.1508 109.1228 L128.4464 107.1549 L128.2568 106.3142 L128.8747 105.2625 L132.9643 101.3333 L134.1042 99.4335 L137.3544 99.6872 L145.8394 95.5075 L150.8207 89.2604 L154.7863 81.2447 L154.7069 81.0887 L154.9322 80.39 L155.2444 80.0394 L155.8425 78.3547 L156.2692 76.8431 L156.8412 75.3874 L157.3451 74.4736 L157.4399 73.7995 L158.2331 72.8109 L158.256 72.4464 L158.4296 72.1229 L154.9573 73.6837 L153.6491 76.174 L152.7622 75.3299 L151.2426 72.9661 L152.8469 69.9685 L157.5326 66.3804 L159.7277 65.5364 L162.8516 61.6108 L166.6084 62.3284 L168.1701 62.5395 L166.0171 67.1218 L166.1018 68.998 L166.8614 70.8133 L168.4236 72.8816 L166.6925 77.3981 L166.186 77.4408 L164.7601 79.9713 L162.3025 83.6035 L163.0205 85.0387 L163.1467 86.5165 L161.7134 87.4032 L157.8032 86.4697 L156.0753 85.395 L154.4449 87.2932 L152.2988 93.2801 L149.862 97.1741 L149.0673 99.6642 L150.4601 99.9721 L151.6549 100.0263 L152.2674 100.1609 L155.0473 100.7717 L155.2731 101.4827 L156.1957 104.3816 L156.339 104.3652 L157.0809 104.2815 L157.6131 104.6271 L158.1116 104.5278 L158.4355 104.5631 L158.7242 104.6657 L163.0396 104.7084 L164.7809 104.4071 L165.9676 103.6321 L166.4507 103.0902 L167.9347 103.0319 L170.306 104.0376 L170.2149 104.3808 L168.1962 111.9954 L167.6257 112.309 L163.6746 112.0258 L162.1512 111.58 L160.3439 110.5595 L159.6131 110.9708 L158.664 111.1055 L157.9129 110.9429 L156.642 109.6589 L155.9959 109.7697 L155.3067 109.7057 L154.3117 109.466 L152.1156 114.3163 L152.0767 114.7382 L150.9704 118.761 L150.645 120.0507 L150.3728 120.0137 L149.6734 119.9185 L149.0348 121.6548 L148.1666 123.8254 L147.5103 125.8302 L147.6392 126.1429 L147.7128 126.3219 L148.4361 126.6084 L148.5213 126.9417 L147.7895 129.2658 L147.3239 131.1318 L146.7625 131.6949 L144.6713 131.7869 L143.7291 131.8025 L143.7014 133.8187 L142.9328 133.8573 L140.979 131.4372 L137.8098 127.1305 L130.0806 122.6703 L128.7468 120.7895 L128.3388 119.7042 L127.4386 113.7063 M146.1569 183.1107 L146.4445 181.9853 L147.0278 180.8625 L147.4954 179.962 L148.0499 179.5992 L148.5362 179.2126 L148.956 179.009 L149.6873 178.3663 L150.1917 177.9263 L151.2288 177.126 L152.5993 176.2543 L154.5221 175.0805 L154.8491 175.0173 L155.0611 174.8966 L155.3008 174.7086 L155.8676 174.2629 L156.3842 174.2588 L156.4103 174.2785 L156.7321 173.9888 L157.0176 173.4889 L157.1917 172.9356 L157.2141 172.801 L157.4304 172.4579 L157.6706 172.3208 L158.0072 172.2067 L158.3747 172.265 L160.7557 172.1197 L162.0708 172.2305 L164.5609 171.4105 L164.7676 171.1133 L164.7276 170.8769 L164.8677 170.6241 L165.2885 170.5313 L165.8536 170.5822 L167.3887 170.9492 L168.3752 171.4712 L168.642 171.6715 L168.7938 171.9112 L168.8082 171.9629 L168.8759 172.2083 L171.9812 173.03 L173.5685 174.1784 L173.7208 175.3267 L173.2308 177.2853 L172.7748 178.8383 L173.2984 180.5612 L174.4127 181.6923 L174.8857 182.8062 L174.4804 183.9044 L175.5441 185.4238 L176.0336 187.0112 L176.473 188.9697 L176.8948 190.219 L178.0938 191.1309 L177.5873 193.0894 L176.6445 196.0139 L172.7525 198.0199 L174.4479 202.0311 L174.7579 204.3712 L173.8028 204.0609 L169.5912 199.032 L170.4866 194.4905 L170.0104 194.7638 L168.8844 195.0306 L167.9341 195.7299 L167.4574 196.4267 L167.0862 196.6779 L166.5775 196.7772 L166.2265 196.8199 L160.9266 195.2423 L160.1484 195.2005 L160.0068 195.1225 L159.6547 194.9288 L158.2 194.4757 L157.7228 197.0062 L160.1016 202.1797 L160.5357 202.0615 L160.7892 202.1042 L161.1466 202.05 L161.6132 202.8125 L161.7602 203.7195 L161.9578 205.4275 L160.4499 206.0365 L158.0562 207.1298 L157.8602 207.8267 L158.0088 210.5541 L157.8836 212.0183 L157.269 212.9663 L156.6612 214.8951 L156.2154 215.4188 L155.7317 216.4201 L155.4031 216.9125 L154.7128 217.2409 L154.5099 217.2827 L153.5362 217.4822 L153.3231 217.2573 L152.5716 216.3897 L152.6174 215.0092 L152.1241 212.0348 L151.5366 210.7642 L150.8639 210.5705 L149.7139 209.4707 L149.0662 208.6893 L148.8851 208.471 L148.3487 206.6636 L147.0912 202.4259 L147.0619 201.0142 L147.0443 200.1491 L147.236 197.4765 L148.2577 195.0265 L148.9064 193.6278 L149.903 191.0981 L150.1874 189.839 L150.0979 188.8909 L149.6702 187.9437 L149.732 187.9388 L150.083 187.6778 L150.6743 187.7795 L151.0493 187.6679 L154.014 185.8481 L154.9024 185.6963 L157.2216 185.0528 L156.6969 183.9701 L152.7681 184.5627 L152.2525 184.7663 L151.469 184.5693 L150.6588 184.9674 L150.1081 185.5658 L149.9674 186.0287 L149.748 186.3349 L149.03 186.7773 L148.5266 186.9604 L148.4558 186.9858 L146.7524 184.3887 L146.4706 183.723 L146.1569 183.1107 M148.2246 225.917 L148.8915 223.9078 L150.6641 223.0903 L150.8527 221.2634 L150.5054 220.1324 L152.3846 218.884 L153.5037 220.0766 L153.7056 220.2916 L154.9722 220.3367 L155.6444 219.8073 L156.6362 219.0646 L156.9403 218.8036 L156.9835 218.4154 L157.6993 218.5065 L157.5854 219.1228 L157.6434 219.8287 L157.9891 219.9346 L158.0136 220.702 L158.3316 220.7217 L159.0059 220.4754 L159.7889 219.9214 L160.2097 219.7286 L161.145 219.0473 L161.242 218.5959 L160.7125 218.7954 L160.0936 218.4498 L159.9365 217.9918 L160.3173 216.6458 L161.1551 215.3761 L162.0516 214.8533 L162.222 214.8565 L162.4974 214.8615 L162.5896 214.9444 L162.9661 215.2833 L163.2516 215.7192 L163.6767 215.9654 L164.8746 215.5164 L165.5569 214.6128 L165.884 214.3707 L166.2179 214.2992 L166.406 214.6251 L166.8081 215.0125 L166.9173 215.1175 L166.9471 215.2981 L168.9307 219.3756 L171.3702 223.4712 L183.9034 229.8565 L190.3751 239.0732 L193.2087 239.4754 L188.1859 226.9839 L192.2766 219.9009 L196.101 225.1209 L194.1728 227.0742 L198.5725 235.9299 L198.2263 239.523 L199.29 239.7084 L206.216 237.0953 L209.6782 240.9198 L207.8618 244.7853 L205.6513 247.4936 L204.2872 247.2203 L201.4877 247.4411 L201.1734 246.5958 L201.028 246.5662 L197.528 241.0725 L195.9998 241.8086 L194.6037 243.3269 L192.8998 246.3857 L192.9009 246.4554 L191.3083 249.3952 L191.1676 250.9832 L191.125 252.0304 L190.1204 253.8047 L188.5832 255.9229 L187.3235 258.5195 L190.1087 258.4169 L191.6113 257.9885 L192.9275 256.9036 L193.7377 256.3546 L195.2935 255.4559 L195.9737 257.2532 L196.6869 260.4489 L197.724 264.4939 L199.3443 267.1898 L201.4834 270.9353 L203.655 272.9819 L205.2109 272.6824 L206.5883 269.7429 L206.5425 272.4969 L206.7257 273.9798 L207.1843 276.1685 L207.9178 279.4165 L207.0011 281.6766 L206.3592 286.478 L207.4133 290.2914 L206.9547 292.4094 L205.4426 293.751 L204.0673 296.2933 L203.1506 300.1065 L203.9298 304.5549 L206.9547 309.0032 L211.2175 314.0161 L215.2049 317.1235 L217.4969 319.7353 L218.2761 322.0657 L218.3677 325.4545 L216.3511 326.5844 L215.7034 326.938 L214.2866 325.9279 L209.8241 324.7127 L207.8815 323.9176 L203.426 322.0657 L200.6301 319.2414 L198.3999 314.8842 L196.3583 311.6389 L194.5105 306.3462 L192.242 301.5532 L190.5892 296.4106 L189.714 294.8129 L189.0333 292.4167 L188.4826 290.2192 L188.2881 288.2218 L187.2836 287.3733 L187.4455 284.0777 L187.9318 281.3819 L187.7374 279.7341 L186.4734 278.8347 L185.5008 278.8347 L183.6861 275.5891 L181.1581 269.9973 L181.6764 268.2493 L183.0853 266.1492 L183.4517 264.6843 L182.0194 263.5371 L174.9763 267.5591 L174.4702 266.5669 L175.8003 265.8341 L174.7898 265.1062 L172.802 266.1714 L171.5785 264.3815 L168.1099 259.1966 L167.6252 259.446 L167.4569 258.3472 L167.3594 258.22 L167.4271 258.1527 L167.1831 256.5573 L167.344 255.8786 L167.646 255.4994 L170.0258 255.0735 L170.9942 254.2651 L171.3484 253.9688 L172.5793 253.1982 L174.5837 251.4699 L175.1398 250.7518 L174.7499 249.8712 L174.5475 247.5494 L173.8369 247.2433 L173.748 246.6803 L171.7191 239.2094 L166.9168 239.4655 L158.9452 236.538 L156.2766 238.8992 L154.3863 237.6862 L154.5812 233.361 L154.0752 230.9727 L155.8862 230.1602 L151.625 228.4071 L151.037 229.2278 L148.2246 225.917 M151.078 322.9067 L151.6778 320.8045 L152.8144 317.7242 L153.1415 316.4835 L153.4973 315.1353 L154.5429 313.4433 L154.7756 313.2759 L156.2644 312.2043 L157.0639 311.6291 L158.0882 311.4215 L158.8371 311.5626 L159.3926 311.9146 L160.0227 312.5563 L160.059 313.0191 L159.9178 313.3785 L159.9684 314.0185 L160.247 314.4625 L162.1203 315.1058 L162.4106 315.6966 L162.5182 316.8322 L162.3967 317.9482 L161.4082 319.8428 L161.3139 320.7815 L160.8334 321.6094 L160.3924 321.913 L159.9599 322.4193 L159.9956 322.7664 L160.0861 323.6452 L160.5234 325.7138 L160.2869 326.4523 L159.8337 326.5729 L159.1087 326.4613 L158.5729 326.0797 L157.3451 324.8251 L157.0463 324.73 L154.2856 323.8315 L154.0907 324.1654 L153.3071 324.524 L151.7065 324.2582 L151.1014 323.7888 L151.078 322.9067 M161.577 320.3795 L161.7746 319.6861 L162.645 318.2912 L162.7222 317.2819 L162.8804 317.0661 L163.0897 317.0045 L163.4631 317.0636 L164.2807 317.51 L165.0525 317.7521 L165.2539 318.5275 L165.6688 319.1092 L166.1002 319.5261 L168.014 320.7733 L168.3837 321.2361 L169.8948 324.3098 L170.4338 324.3115 L171.3836 324.8432 L172.4552 325.6161 L172.2203 326.5762 L173.4848 326.5762 L173.1876 329.0337 L174.5645 328.8679 L177.0008 328.1344 L178.2872 327.0406 L179.0222 326.9085 L179.5634 326.9397 L180.2606 327.3581 L180.739 327.9465 L184.9698 329.9896 L185.3937 330.0495 L185.8737 330.317 L186.1783 330.8109 L186.1975 331.4312 L185.6233 335.3763 L184.9287 337.2651 L184.1708 339.3254 L183.4059 340.4815 L178.7543 340.9976 L170.2725 341.9379 L167.5192 341.2856 L166.7341 340.0417 L166.3729 338.5229 L165.4499 337.2175 L165.2773 336.3986 L165.9303 336.1697 L167.6987 336.0368 L167.4633 335.5371 L167.0782 335.6512 L165.2432 335.8817 L164.9289 335.1022 L164.4639 334.7913 L163.1409 331.2105 L162.7478 329.3479 L162.8868 328.8326 L163.511 328.4207 L164.3532 328.7161 L165.2613 328.7186 L165.6262 328.9918 L166.5498 329.8148 L166.6691 328.5413 L166.3074 328.5569 L165.8297 327.4074 L166.7836 327.3228 L166.8065 327.0742 L165.8776 327.1743 L165.583 327.0939 L164.9103 325.9558 L164.31 324.6126 L163.7246 323.4598 L163.0796 322.4899 L162.9305 321.9984 L162.8708 320.6855 L162.6785 320.5829 L162.7787 322.0402 L162.6609 322.2347 L161.7272 321.2148 L161.577 320.3795 M162.768 38.0798 L162.8426 34.4257 L164.791 32.9485 L169.6466 35.6427 L174.3104 37.5296 L178.007 38.6053 L176.2599 44.6897 L168.7406 40.9258 L162.768 38.0798 M164.9923 209.918 L169.8059 210.1437 L171.374 211.9724 L175.4966 209.3779 L175.0332 205.5367 L176.473 206.227 L178.9232 206.3337 L181.6375 211.0613 L180.7038 212.3245 L179.2811 213.5556 L181.3451 215.0814 L185.5317 216.0114 L184.1564 219.4421 L180.6484 217.918 L177.5324 216.0713 L178.6888 218.7305 L176.31 218.545 L173.691 214.9649 L172.876 214.9394 L173.1088 217.4099 L174.2439 219.8541 L177.5809 223.6681 L176.5795 224.7926 L168.0577 215.5197 L164.9923 209.918 M171.6786 290.1453 L171.7042 289.625 L171.8123 289.2164 L172.0115 288.8455 L172.5905 288.0446 L172.6976 287.5333 L172.7109 286.9474 L172.8047 286.5478 L173.1674 285.6229 L174.1288 285.261 L174.5778 285.2594 L175.4647 285.1814 L176.3457 285.2159 L175.8434 284.0818 L175.0732 283.9612 L174.5592 283.468 L173.3389 283.3802 L172.1202 281.9572 L173.5749 280.7443 L176.685 283.3457 L177.4706 283.1053 L178.1807 283.0273 L178.7996 283.111 L179.0899 283.2366 L181.3089 282.6367 L182.1771 282.4217 L182.5729 282.3823 L182.7928 282.5505 L183.6669 284.4642 L183.9263 285.2282 L184.0158 286.0808 L184.0728 286.8005 L184.3775 287.768 L184.7567 288.12 L185.1216 288.459 L186.7158 292.1492 L187.7353 294.689 L187.7097 296.1726 L187.5515 297.3707 L187.3038 297.9205 L187.0332 298.3267 L185.6521 299.1538 L184.6528 299.4927 L182.5249 300.0237 L181.9001 300.1476 L181.0719 300.1287 L179.9022 299.8915 L179.1682 299.6683 L178.3319 298.8912 L177.933 298.3234 L177.6842 297.7876 L177.5782 297.4848 L177.028 296.4049 L175.959 295.6269 L174.5379 293.6304 L174.246 291.9991 L174.0729 291.8645 L173.3011 291.9999 L172.9053 291.9252 L172.8068 291.9063 L172.607 291.8111 L172.362 291.4156 L172.0243 291.1473 L171.6914 290.6648 L171.6786 290.1453 M172.9948 68.9019 L173.0305 68.0168 L173.2702 67.5734 L173.9376 66.1201 L174.2279 65.5208 L174.4346 64.9304 L174.4074 64.3163 L174.2865 63.6142 L173.602 62.349 L173.5136 61.7939 L174.5155 59.6107 L175.1968 58.9793 L175.9068 58.8044 L177.0983 58.8733 L180.5158 59.2978 L180.8849 59.2831 L181.6322 59.0244 L182.3593 59.063 L183.611 58.7338 L183.9359 59.0047 L184.5399 59.1525 L186.0809 59.5302 L186.5032 60.0155 L186.7179 59.9949 L186.3413 58.8947 L186.2827 58.4332 L187.3171 56.9881 L187.5611 56.8625 L187.7795 56.9512 L187.9286 57.2369 L188.1955 57.4077 L188.4282 57.4102 L188.7963 57.5325 L188.8794 57.5604 L189.7375 57.3888 L190.1375 57.6573 L190.2494 58.0736 L189.0791 59.6255 L188.6376 61.142 L188.636 62.1494 L188.8192 62.5427 L188.9289 62.7776 L189.4632 63.4607 L190.9407 64.6274 L192.2383 65.5446 L192.781 65.7351 L193.3936 65.7293 L194.0061 65.9994 L194.8003 66.5307 L195.2663 66.8427 L195.6269 67.1333 L195.7537 67.3994 L195.8453 67.7984 L195.7569 68.3608 L196.6193 69.4988 L196.958 69.9455 L197.2073 70.2747 L197.3517 70.3979 L197.9994 70.9521 L198.7152 71.5104 L200.4666 72.1787 L201.6496 72.8553 L201.9979 73.1533 L202.1055 73.9399 L202.6057 74.4005 L203.0408 74.5811 L202.6206 75.5015 L203.0211 75.7741 L203.271 75.6222 L203.5623 74.5401 L203.7354 74.3036 L203.9618 74.086 L204.3155 73.8545 L204.4252 73.7831 L204.8146 73.6632 L205.0793 73.8348 L205.6332 74.398 L205.0915 74.9293 L204.8993 74.7371 L204.577 75.0516 L204.7336 75.2544 L204.4353 75.5959 L204.0976 76.5557 L203.4489 78.1625 L202.2802 80.1026 L200.0548 82.5928 L197.896 83.1076 L197.5349 83.23 L197.1722 83.2218 L196.4845 83.3523 L195.2296 83.3917 L194.7017 83.4081 L193.4218 83.3268 L191.6055 83.0485 L190.4411 82.7932 L189.0924 82.1741 L188.0463 81.546 L185.0731 77.6009 L184.8275 77.5147 L184.1117 77.1633 L183.5758 77.3907 L183.1817 77.6371 L182.7545 78.1149 L182.2431 78.5632 L181.556 78.6543 L180.6111 78.4704 L178.9525 77.8464 L177.9921 77.752 L176.3792 76.8661 L175.4168 76.5574 L173.4103 75.0869 L173.2228 74.2059 L172.9948 68.9019 M183.9998 111.0422 L184.0254 110.7073 L186.0084 107.8618 L185.7964 107.2518 L185.1594 105.4169 L187.1824 101.9326 L186.9203 101.183 L189.3178 97.8867 L189.6176 94.964 L191.5277 91.5962 L192.3517 91.9714 L197.1018 85.5978 L200.6945 83.7103 L203.2507 80.1076 L203.5027 80.4516 L205.2987 78.3005 L204.9275 78.0755 L206.6762 74.6452 L206.3715 74.3143 L207.3739 72.2748 L208.9138 72.526 L209.4006 71.8421 L209.9999 72.0293 L210.5996 72.0293 L211.0183 73.0712 L210.9245 73.6616 L209.9977 75.4219 L208.8307 76.7159 L208.9783 76.8456 L210.5373 75.2536 L211.438 74.123 L213.0376 75.7733 L212.539 78.4031 L211.9909 79.7365 L211.8077 79.7512 L210.6353 82.5148 L211.9115 83.8827 L212.7185 84.285 L213.5745 83.2587 L215.7732 83.6561 L216.5152 84.9812 L216.0119 85.6963 L216.7059 86.3187 L216.5184 87.2423 L216.5488 87.2784 L216.9419 87.7489 L217.8021 89.0141 L217.9097 89.7234 L217.8894 91.9911 L217.3584 92.189 L216.9616 92.028 L216.3362 91.0256 L216.1519 91.0256 L216.4278 91.9073 L216.276 92.7932 L216.7831 93.7571 L217.6045 94.7538 L218.046 97.17 L218.274 97.8104 L218.4199 98.1158 L220.2272 101.8916 L220.2965 101.8916 L220.877 101.8916 L221.0635 102.1067 L220.8445 103.0713 L220.68 103.4974 L220.5377 103.866 L220.1202 104.742 L219.7819 105.279 L219.9577 106.0597 L221.7096 108.2156 L222.0776 108.6688 L222.2545 109.6318 L221.9935 109.6704 L221.611 112.5717 L219.995 114.4 L218.8796 116.4672 L220.068 118.2388 L220.1202 119.0934 L220.3817 120.0646 L220.1899 120.572 L220.2416 121.6606 L220.0264 122.3961 L219.8091 123.3394 L220.1708 123.9116 L219.1337 125.5026 L219.0996 125.4903 L218.3869 125.2391 L217.8079 126.6954 L218.249 128.0689 L218.4466 128.119 L218.2527 128.5639 L218.225 128.8167 L218.2154 129.1123 L218.4008 129.3142 L218.7853 129.5137 L219.4016 129.65 L219.62 129.7066 L219.9359 129.6812 L220.1739 129.5219 L220.4227 129.1172 L220.6826 129.045 L220.9697 129.1254 L221.3378 129.4719 L221.7554 130.3741 L221.9503 130.7952 L221.6792 131.0981 L221.4092 131.4232 L220.6885 131.6432 L220.4483 131.7811 L220.2965 132.0151 L220.1521 132.5315 L220.2011 132.7507 L220.0695 134.9425 L219.4133 136.2683 L217.7078 139.3574 L217.1 139.7022 L216.0571 139.8057 L213.3598 139.8352 L212.964 139.708 L212.6786 139.4379 L212.5161 138.2139 L212.4809 137.5802 L212.0069 137.4693 L211.201 137.645 L210.6129 138.1425 L210.1645 139.5775 L208.8094 139.4338 L208.9724 138.2213 L209.1865 137.6343 L208.7194 132.9592 L208.7695 132.8697 L208.7647 132.8697 L208.7258 132.6579 L208.7007 131.8673 L208.4131 131.5217 L208.1846 132.442 L207.2594 132.2261 L207.147 131.5423 L207.1699 131.3305 L207.3489 129.6779 L208.3465 125.4542 L208.403 124.9591 L208.1372 124.4066 L207.392 123.7959 L207.09 123.1826 L206.9824 122.2845 L206.9047 121.6351 L206.7513 121.0933 L206.8285 120.5761 L207.0032 120.3553 L207.5018 120.0269 L207.7468 119.1649 L205.1997 118.5294 L206.3427 115.3039 L205.6721 114.8376 L205.4063 114.2843 L205.3706 113.4263 L205.6956 112.1949 L205.8633 111.6342 L206.3491 108.1524 L205.9736 104.9941 L206.3907 101.4417 L206.5078 100.7643 L206.2357 100.2742 L205.3504 97.89 L205.2274 95.6676 L204.6526 97.262 L202.146 105.664 L202.2046 106.2149 L202.3149 106.4948 L202.5934 107.0285 L202.4081 108.3314 L202.2302 108.7895 L202.1034 109.429 L201.966 110.4027 L201.9074 111.2516 L201.9457 112.0184 L201.6384 114.6118 L201.4829 115.7948 L201.1601 115.8203 L200.6775 116.0731 L200.424 116.4114 L199.789 119.224 L199.4055 119.2322 L196.2981 118.6789 L194.0429 118.169 L190.5854 117.4655 L190.4784 117.3144 L189.7151 117.4088 L189.3396 117.3095 L187.4743 116.6166 L187.2042 116.2825 L187.095 116.0173 L187.079 115.8186 L186.9288 115.4082 L186.6939 115.2423 L186.2737 114.8753 L185.7048 113.9362 L185.406 113.2342 L184.5873 112.3065 L184.615 111.9888 L184.2885 111.7975 L184.1607 111.5775 L183.9998 111.0422 M192.6303 251.7932 L192.7288 250.4235 L193.4937 250.4604 L194.6538 250.5967 L194.9009 251.7809 L195.2935 252.2208 L196.3572 252.275 L199.5541 252.7214 L199.7358 252.7468 L199.9169 250.9824 L199.9973 249.6512 L200.5944 249.1252 L203.7338 249.3426 L204.4992 250.7181 L206.8892 250.9061 L206.7182 251.2483 L205.6982 253.2877 L205.6327 254.2668 L205.8857 254.8519 L205.4846 255.3747 L204.863 255.8072 L200.9571 255.6652 L200.5214 255.8654 L199.046 256.5441 L195.7548 254.2651 L193.9283 253.9721 L192.6303 251.7932 M193.6508 178.7135 L196.1223 167.3612 L197.7735 167.3858 L200.6551 168.4447 L207.5529 167.9686 L206.2213 170.3655 L206.4876 190.1722 L204.7192 193.4719 L203.5474 193.8248 L202.4928 188.4977 L194.583 188.744 L193.6508 178.7135 M201.1185 325.969 L203.6699 322.6294 L203.8244 322.4899 L204.7352 323.253 L215.6758 327.5116 L216.8742 330.8839 L213.7422 332.0819 L206.216 333.6573 L201.1185 325.969 M207.138 180.0498 L207.2951 176.1426 L208.0632 176.0524 L212.0079 176.4578 L212.2998 178.7595 L211.6985 180.214 L210.247 184.5562 L209.8571 187.571 L208.4499 186.5787 L207.587 185.4632 L207.2253 183.9668 L207.138 180.0498 M234.2321 272.1235 L234.9309 271.2545 L236.4404 270.8269 L236.4234 270.3206 L236.0303 269.9373 L236.5161 269.3547 L236.931 269.312 L238.7479 269.129 L239.8803 269.1692 L240.3165 268.7934 L241.2241 268.5053 L244.5143 268.7064 L244.5654 269.4901 L245.0688 270.4068 L247.2659 270.987 L248.0143 272.0407 L244.7726 271.9988 L242.5169 272.7932 L241.2428 274.7184 L237.9979 275.2444 L235.7762 273.8502 L234.3312 272.2343 L234.2321 272.1235 M249.9675 304.4622 L251.8957 303.2724 L253.6268 303.2559 L257.2222 304.216 L257.8134 312.6925 L262.6072 315.8763 L264.8283 319.9626 L264.4438 320.2917 L264.472 320.3384 L264.8454 320.7758 L265.5016 320.7766 L265.9027 320.514 L265.9549 320.3319 L266.9456 320.7791 L277.0632 320.7914 L275.721 324.0079 L279.0607 326.5926 L281.04 326.7386 L283.366 326.0888 L283.6611 326.0879 L283.8044 326.1282 L284.1224 326.4145 L284.1171 326.4219 L284.7147 326.8839 L284.8148 327.1341 L287.3295 328.3255 L287.5191 328.2254 L288.163 328.721 L290.8747 330.006 L290.6675 330.6329 L290.692 330.9422 L290.2521 332.2944 L290.0145 332.557 L289.884 332.9927 L293.8735 336.6358 L293.3984 340.6472 L294.4642 341.4784 L294.632 342.0126 L294.5441 342.3965 L292.943 342.8708 L291.0548 342.9758 L289.6028 342.9061 L289.3769 342.2546 L287.322 346.0305 L273.8972 340.941 L271.4561 340.1746 L266.8955 338.3892 L262.6083 336.1385 L259.9903 334.5188 L256.535 332.7055 L255.1768 330.9578 L256.322 330.006 L254.8252 327.0028 L252.2632 326.9864 L250.1806 325.7556 L253.6268 325.7556 L254.756 324.7201 L254.6356 324.3804 L254.5429 323.8627 L254.1131 322.7123 L254.1509 321.2821 L253.3125 317.9605 L253.7482 317.9556 L253.932 317.6938 L254.5179 317.7291 L255.4282 317.9588 L256.0557 317.9605 L254.9531 311.4863 L252.0289 312.2166 L253.6801 309.7549 L251.7306 309.2297 L249.9675 304.4622 M256.298 274.249 L256.9175 267.4081 L258.6678 263.5485 L258.2443 263.4197 L258.1436 263.1686 L258.1138 262.9782 L258.1234 262.5408 L258.2001 262.0164 L258.1404 261.725 L257.9913 261.4263 L257.8113 261.2925 L257.7937 261.2622 L257.4278 260.6418 L257.4043 260.3397 L257.4235 260.1165 L257.5689 259.9942 L257.945 259.8473 L258.0914 259.7899 L258.3157 259.5429 L258.6667 259.0341 L258.982 258.4465 L259.4007 258.3242 L259.6095 258.0706 L259.8343 258.0164 L259.9727 258.0862 L260.0026 258.284 L259.9701 258.5236 L259.9157 258.6754 L260.0425 258.7911 L260.2673 258.737 L260.3509 258.3012 L260.3238 257.9549 L260.4612 257.9147 L260.621 257.9762 L261.119 258.2889 L266.2063 253.7259 L271.7938 250.2159 L276.3308 246.897 L277.4531 247.6848 L273.0119 250.9184 L273.9494 252.0435 L274.0149 252.4087 L273.8897 252.7887 L273.707 253.0029 L273.6213 253.2245 L273.585 253.4198 L273.6351 253.6824 L273.7033 253.7949 L274.5582 254.6229 L274.6376 254.8831 L274.5683 255.1334 L274.4128 255.4042 L273.8636 256.0977 L272.4526 257.7948 L272.0846 258.0829 L271.4747 258.3086 L270.7066 258.9618 L270.3838 259.0759 L270.134 259.0956 L269.8629 259.0078 L269.7559 258.7197 L267.7259 257.1194 L265.6486 255.6389 L265.0276 256.522 L262.718 259.675 L262.5433 259.8006 L262.4373 259.9565 L262.5678 260.2052 L262.5779 260.7156 L262.9806 260.9495 L263.5937 260.8642 L263.6379 260.9569 L263.6358 261.2088 L263.5175 262.4324 L263.2704 263.6954 L263.2198 265.0241 L263.0578 265.1259 L262.8991 265.0791 L262.8773 264.7992 L262.7377 264.6179 L262.7574 264.402 L262.8043 264.2428 L262.7809 263.9482 L262.4836 263.8317 L262.3723 264.0106 L262.2802 264.2469 L262.2988 264.4825 L262.2317 264.6581 L262.0911 264.7508 L261.8951 264.7886 L261.8407 264.6671 L261.8285 264.416 L261.7033 264.3224 L261.4871 264.3914 L261.3859 264.6064 L261.241 264.64 L261.0029 264.48 L260.7163 264.0672 L260.5581 264.0286 L260.3898 264.0491 L260.2151 264.3585 L260.1214 264.6696 L260.0175 264.7516 L259.6553 264.7508 L259.2755 264.6105 L259.1264 264.4078 L257.4464 268.0359 L262.7819 267.7314 L262.9508 271.2102 L262.2413 273.2363 L261.2623 275.1271 L258.5607 276.2415 L256.298 274.249 M292.723 248.435 L296.1314 245.6856 L297.1344 245.2063 L297.5824 245.2219 L300.7383 244.3889 L302.0268 243.9892 L303.7584 243.6757 L303.9549 243.7053 L304.1067 243.8563 L304.5073 245.0085 L304.2032 245.551 L299.9697 247.6479 L298.246 248.0771 L297.3224 248.819 L294.2453 251.1793 L293.8927 250.8305 L293.1502 249.3558 L292.723 248.435 M301.3034 344.0827 L301.427 343.8726 L301.5921 343.7192 L301.8547 343.4911 L302.2249 343.3212 L302.8566 343.19 L303.6268 343.1293 L304.3427 343.2285 L305.4911 343.382 L307.5013 343.889 L307.8337 344.0769 L307.905 344.2345 L307.9205 344.433 L307.8438 344.6759 L307.635 344.84 L307.382 344.9048 L307.1071 344.9778 L306.3971 345.1452 L304.6213 345.3667 L301.9341 345.0689 L301.5905 344.9188 L301.378 344.4691 L301.3034 344.0827 M304.1355 342.0011 L304.4317 341.0747 L304.6953 341.0468 L306.1047 341.0468 L309.2793 341.7205 L310.9736 342.157 L311.2884 342.4056 L311.3103 343.1514 L309.1946 343.4591 L308.6076 343.409 L308.1016 343.4492 L307.6499 343.3368 L307.3197 343.1703 L306.1271 342.8355 L305.5614 342.7691 L305.081 342.8593 L304.6037 342.6968 L304.3699 342.5377 L304.3587 342.3022 L304.201 342.1734 L304.1355 342.0011 M309.4353 236.5216 L309.4753 236.1851 L310.6444 234.1538 L310.9038 233.8969 L311.3433 233.462 L311.6911 233.2863 L311.9308 233.0524 L311.8344 232.7643 L311.64 232.5427 L311.42 232.56 L311.0429 232.4566 L310.7973 232.3425 L310.9315 232.1693 L312.3068 231.7031 L323.9121 232.157 L327.4223 232.7545 L333.177 235.2134 L338.7405 236.5749 L337.6901 239.4803 L338.2808 239.8028 L338.5935 240.2558 L338.5295 240.5152 L338.4528 240.8697 L338.2073 241.0298 L337.8025 241.2317 L335.8109 241.8316 L334.3152 242.3216 L333.08 242.4783 L332.7168 242.736 L332.4829 242.6736 L327.5805 242.1427 L326.8864 242.1829 L326.0576 242.1591 L324.9678 242.0975 L323.3939 241.9219 L323.2868 241.6338 L323.2154 241.2579 L323.1787 240.7951 L322.7632 240.0581 L322.4495 239.8242 L322.0298 239.5722 L321.5589 239.761 L321.4913 240.1212 L322.1224 241.3892 L321.0433 241.3712 L319.4736 241.4951 L317.4192 241.4623 L317.0325 241.3654 L313.0472 241.7323 L311.6336 238.6645 L311.8354 237.0058 L311.2021 236.9295 L309.4353 236.5216 M344.7093 245.6881 L348.2615 242.9855 L346.8292 241.7815 L351.3035 237.0542 L353.0953 237.7995 L355.8981 237.7313 L360.9369 236.8072 L363.8137 234.5379 L365.906 239.9013 L361.7167 242.8977 L357.6633 244.6368 L355.065 245.0471 L350.6755 248.4875 L348.0122 247.7768 L346.6167 246.9167 L344.7093 245.6881 M381.1689 290.5105 L381.6749 290.4703 L382.6593 290.6968 L383.5909 290.6229 L384.0596 290.2011 L384.0761 289.5635 L383.9099 289.0441 L384.1715 288.6182 L384.8767 287.6392 L385.0306 287.4307 L384.6466 286.3139 L384.5049 285.9027 L385.7934 285.6795 L386.097 285.627 L387.7556 284.6259 L388.2595 285.1191 L388.5701 285.4908 L388.7235 285.6746 L388.741 285.9011 L388.7677 286.2408 L388.8667 286.4698 L389.4931 286.5461 L389.8468 286.5404 L390.1398 285.6664 L390.1925 284.456 L391.5502 284.4519 L391.9976 284.2246 L392.1974 283.5722 L392.6288 283.3457 L392.73 283.2924 L394.7152 282.2362 L395.0566 282.4808 L395.683 281.9621 L395.708 281.9416 L397.0652 282.1377 L398.2642 282.5374 L398.521 283.0495 L397.9729 283.6149 L395.3086 287.1091 L395.1967 286.8169 L394.7903 285.7526 L393.6227 286.1136 L394.5133 288.6781 L394.5085 288.6871 L393.5902 290.3759 L393.3122 290.8871 L393.3074 290.8863 L391.424 290.4588 L390.7763 290.6869 L388.1045 293.9751 L387.5921 293.0831 L387.0222 292.7466 L386.9945 292.795 L386.1369 294.2967 L386.1534 294.387 L386.2147 294.7235 L386.2259 295.1444 L386.1976 295.3307 L386.1577 295.5941 L385.6666 296.0889 L385.3236 296.5329 L384.4085 296.8201 L384.1981 296.825 L383.6058 296.839 L383.0699 296.6888 L382.533 296.331 L382.2577 295.7763 L381.7298 294.6668 L381.6558 294.4001 L381.4709 293.6099 L381.2712 292.1008 L381.1689 290.5105 M383.0103 233.5235 L384.18 232.0511 L385.4738 230.9226 L385.5015 229.5594 L387.346 228.5277 L389.328 228.307 L400.2494 224.2935 L401.573 224.0408 L403.9886 221.7123 L403.6029 213.8946 L406.5208 213.6467 L406.6587 219.6752 L409.6692 219.8952 L410.1699 219.8558 L410.6813 219.8156 L410.8853 219.6883 L413.3461 219.6276 L413.9858 219.7844 L413.9895 219.8123 L417.4496 219.5923 L417.5354 220.5263 L417.6904 221.0918 L423.0003 221.2215 L422.9636 220.5657 L423.6816 220.3983 L425.4286 220.4672 L428.4136 220.0331 L428.5457 219.9264 L428.893 218.6107 L429.6307 217.1908 L430.1708 216.549 L430.7498 216.1181 L431.5999 214.6226 L432.7626 213.3143 L434.0431 212.4509 L435.012 211.4241 L435.2096 211.2148 L435.5313 211.0203 L435.8211 210.9546 L436.122 211.0777 L436.7687 211.3437 L437.5368 210.8758 L440.6554 210.7503 L443.3277 210.6427 L443.3937 210.8504 L444.3269 213.7912 L444.6471 215.8094 L444.385 215.9482 L444.2247 216.7303 L443.6856 217.1062 L443.325 217.0234 L442.9847 216.636 L441.8155 216.6909 L440.3726 216.5531 L440.5675 217.2556 L441.2839 218.4868 L442.3226 219.9674 L442.4856 220.354 L442.3135 220.9818 L442.3849 221.613 L442.7759 221.5153 L444.1741 219.0071 L444.6865 218.7675 L445.6463 219.1434 L446.7617 220.2842 L448.2515 221.0253 L451.0239 222.6882 L451.0143 223.229 L450.6361 223.5844 L447.5713 222.0488 L447.3316 222.3861 L450.6707 224.2107 L451.5193 224.7729 L452.1345 224.621 L452.5377 223.9234 L452.9393 223.9587 L453.9939 224.8008 L454.0626 225.299 L454.4621 226.2592 L454.5718 227.2794 L454.4009 227.7365 L455.4912 228.1838 L455.5189 227.7825 L455.6691 226.7787 L455.6638 226.5662 L455.4987 225.9186 L455.4294 225.413 L455.4363 224.6104 L455.4843 223.9488 L455.6126 223.1265 L455.7751 222.469 L455.7975 222.3788 L455.8513 222.3467 L456.1799 222.1711 L456.3472 222.1358 L456.5719 222.1851 L457.1818 222.6176 L457.8998 222.8983 L458.571 223.0124 L459.6128 223.0263 L460.8965 222.9254 L461.0888 222.9328 L461.6704 223.664 L462.1647 224.2082 L462.3421 224.6104 L462.2265 224.7384 L458.9049 225.3991 L458.7803 225.7865 L459.1957 227.2556 L462.4454 226.2633 L463.1847 226.7303 L464.119 226.1468 L464.372 227.0225 L464.0609 227.5872 L464.372 227.8785 L464.9963 227.9803 L464.2255 229.7695 L462.4641 230.4302 L461.8031 232.1094 L460.5918 232.7422 L459.4631 232.6872 L458.0362 233.2609 L457.2574 233.8838 L455.2387 229.3567 L454.4445 228.5934 L451.2844 227.2416 L450.8311 228.5286 L449.9778 229.8836 L449.3162 231.4307 L448.9945 231.8484 L448.5093 232.0643 L447.7444 231.864 L447.5979 231.8254 L444.2215 230.3736 L442.7343 229.5725 L441.604 229.0842 L440.7918 228.8962 L440.2857 228.9365 L439.5997 229.131 L438.9664 229.9057 L436.9706 231.8468 L437.2539 233.2978 L437.2678 234.4214 L436.8102 235.0796 L436.1465 235.3685 L435.8541 235.5277 L435.5585 235.6886 L434.897 235.911 L431.234 236.9246 L429.6754 236.9065 L425.908 236.2114 L425.0425 235.7099 L424.5045 235.0632 L424.496 235.0156 L424.2957 233.9027 L424.2856 233.2084 L423.2831 231.9986 L422.6163 231.7778 L421.9989 231.7228 L420.6684 231.7901 L419.7687 231.8016 L418.4329 232.0848 L416.3832 232.592 L416.0945 232.6683 L414.951 232.4845 L414.2122 232.1948 L412.9653 231.4495 L412.4321 230.8619 L411.5804 230.8258 L410.6051 229.7769 L410.2754 229.5216 L409.2527 229.662 L408.8463 229.4642 L409.6053 230.9366 L411.8073 231.3223 L411.4222 233.8822 L407.7059 233.2765 L403.8245 232.5608 L400.9892 231.7631 L398.9247 234.3779 L396.3643 237.4334 L392.7306 240.1032 L391.6663 237.3415 L391.1965 237.3612 L390.7379 237.4523 L390.389 237.6099 L387.3008 238.0383 L387.2166 238.0941 L386.5918 238.5086 L386.0469 238.7146 L385.4759 238.6784 L384.9715 238.4371 L384.8778 238.392 L384.5539 238.0875 L384.3914 237.9349 L384.0777 237.2266 L384.0575 236.7695 L383.2995 235.7944 L383.0103 233.5235 M410.7457 288.8758 L410.8501 288.3203 L412.8422 285.554 L414.7267 284.1606 L415.4548 284.168 L416.558 284.6808 L417.1311 285.3176 L417.6445 285.8379 L418.4089 286.2663 L420.0953 288.2875 L420.2854 289.2123 L422.1981 291.5806 L424.0395 292.9583 L424.9253 294.1384 L425.9869 295.5802 L425.8484 296.642 L425.4127 297.2977 L424.5104 298.028 L423.7428 299.2498 L422.7052 299.5756 L421.9324 299.7849 L420.6268 299.3253 L419.6287 298.6229 L418.0355 297.2337 L414.7219 295.1731 L413.6332 294.8072 L412.5812 293.934 L412.4156 293.7026 L412.4124 292.9116 L412.554 292.0787 L412.4923 291.2917 L412.1189 290.5737 L411.231 289.7925 L410.7457 288.8758 M425.4611 276.3072 L425.4702 276.2702 L427.0287 276.9284 L428.3678 277.3486 L428.5105 278.0403 L428.5782 278.9012 L428.9638 279.0185 L429.2195 278.7026 L429.1966 277.9419 L429.3537 277.2115 L431.3186 277.7088 L432.7951 277.9993 L432.8031 281.7914 L432.0313 282.5636 L430.2155 283.1233 L429.2845 283.7371 L428.1446 282.6063 L427.604 281.9236 L426.8705 281.4115 L426.0172 281.3524 L425.4611 276.3072 M434.4985 277.2214 L436.7122 277.1483 L438.3901 276.6855 L439.1853 276.564 L439.8474 276.5411 L439.605 277.3083 L440.429 277.2731 L440.5079 276.4894 L441.7297 276.3564 L441.9732 276.5443 L444.0665 279.4289 L443.88 279.5027 L443.5967 279.5626 L443.4651 279.6685 L443.3927 279.9705 L443.4294 280.16 L444.2492 280.4432 L444.5805 280.8297 L444.3078 281.9334 L443.2419 283.5156 L442.8781 283.8217 L441.758 282.9411 L441.1657 282.544 L439.0564 281.2925 L439.0708 280.7624 L438.7869 280.3406 L437.5314 279.8621 L434.5646 280.0509 L434.4985 277.2214 M451.9358 247.8424 L452.2463 246.4333 L452.257 245.6257 L452.1515 244.2798 L452.4285 243.4804 L452.9707 242.8608 L453.9524 242.4873 L454.8691 242.5038 L456.1155 242.4463 L456.6785 242.4209 L457.6953 242.8739 L457.8018 243.0479 L459.0274 245.5248 L461.3476 248.7361 L463.8596 248.1387 L466.4483 250.2421 L469.185 250.604 L470.7377 251.8318 L471.7566 251.7538 L473.5149 256.5942 L471.8898 259.8473 L470.6338 260.9241 L469.4226 261.6668 L467.3724 260.961 L466.1132 256.5047 L465.3792 255.0538 L463.939 254.0805 L462.7741 252.6508 L461.8382 250.9257 L459.6911 249.7357 L457.9808 248.7879 L454.6587 248.6861 L454.3364 248.8913 L452.6394 248.6303 L452.2628 248.4382 L452.1361 248.2076 L451.9358 247.8424 M458.1789 192.5608 L458.8437 191.5643 L458.8458 190.6786 L459.7976 188.9615 L460.1977 186.6591 L460.5492 186.339 L460.9205 186.9341 L460.978 186.8307 L462.9978 189.7117 L462.9845 190.2453 L463.6865 191.3706 L460.0698 192.963 L458.1789 192.5608 M459.608 180.9913 L461.3753 178.0511 L462.6388 179.009 L462.1615 179.9554 L460.2088 182.8735 L460.1758 182.9129 L459.7486 182.7865 L459.608 180.9913 M460.2328 274.3606 L460.9039 272.7612 L461.8899 270.6751 L463.1469 269.289 L467.3447 268.6703 L471.5244 268.8959 L471.8424 268.9419 L472.4746 269.3087 L474.105 271.5606 L474.7192 273.947 L474.6196 274.775 L473.9953 275.7729 L473.2528 276.2678 L470.4745 277.6555 L469.5722 278.5007 L468.2566 279.1178 L466.5047 279.776 L464.7188 279.8326 L463.9043 279.3616 L463.2764 277.9854 L460.9061 276.3498 L460.6014 276.1668 L460.2328 274.3606 M187.7576 70.3059 L188.1454 71.1935 L188.0559 72.1188 L188.0905 72.6492 L188.4506 72.7239 L188.8884 72.7485 L189.1201 72.939 L189.624 73.4604 L190.2797 73.912 L190.6765 74.169 L191.5511 74.8627 L192.2814 76.2561 L193.0425 77.766 L194.2021 78.518 L195.3383 79.1609 L196.1111 78.8481 L197.2222 79.1749 L197.4289 78.7956 L197.2286 78.4113 L196.6672 78.2192 L196.3609 77.7101 L196.0701 77.1994 L195.2381 76.8587 L194.0216 75.7552 L192.9802 74.164 L191.8702 72.4546 L191.0542 71.5621 L190.9168 71.2181 L190.8853 70.8199 L190.7314 70.1811 L190.3921 69.778 L189.4685 69.3198 L188.9864 69.4011 L188.4634 69.0423 L187.7576 70.3059 M193.6482 94.918 L194.1494 95.2653 L194.4866 95.0461 L197.5684 95.6602 L198.2838 92.5075 L198.2311 90.8384 L197.1977 89.5404 L193.6482 94.918 M335.4972 131.4043 L335.7001 131.6276 L335.5228 131.415 L335.4972 131.4043" stroke-dasharray="" fill="none" fill-opacity="1.0" stroke="#ff0000" stroke-opacity="1.0" stroke-width="1.0px" stroke-linecap="butt" stroke-linejoin="miter" stroke-dashoffset="0.0px"/>
</g>
</svg>