<?xml version="1.0" standalone="no"?>
<!DOCTYPE svg PUBLIC "-//W3C//DTD SVG 1.1//EN" "http://www.w3.org/Graphics/SVG/1.1/DTD/svg11.dtd">
<svg width="512px" height="512px" version="1.1" xmlns="http://www.w3.org/2000/svg" xmlns:inkscape="http://www.inkscape.org/namespaces/inkscape">
<g id="layer" inkscape:groupmode="layer" inkscape:label="layer">
<path d="M0.0 267.7603 L0.5732 269.5724 L2.3645 271.1905 L7.1681 275.3025 L23.4514 288.9981 L24.5262 290.4591 L26.0277 293.3663 L30.0794 298.6355 L32.8432 304.8887 L34.9635 309.1932 L35.1607 310.4023 L35.1192 312.0594 L34.9324 313.383 L33.9498 316.8741 L33.9532 318.1286 L35.8623 322.841 L37.3844 325.3112 L38.8429 327.5827 L40.0262 328.8738 L47.8449 335.6284 L48.9738 336.3652 L48.6526 335.2486 L48.4441 334.9509 L48.4306 334.2997 L49.4312 333.8115 L51.5082 337.3472 L51.1441 337.6325 L51.418 338.0361 L52.8175 336.9669 L54.0318 339.051 L54.5888 338.4091 L54.0021 337.2332 L53.7943 336.7445 L53.6501 336.2357 L53.5454 335.9055 L53.4673 335.8658 L53.2795 335.9953 L53.0681 336.1733 L52.8347 336.4648 L52.6148 336.6485 L52.4523 336.8544 L52.1676 337.0902 L52.0003 337.1434 L51.6119 336.4055 L51.161 335.6459 L50.965 335.2306 L50.3303 334.0917 L50.0473 333.5401 L49.9513 333.3017 L49.8828 332.9632 L49.797 332.6872 L49.8004 332.3187 L49.623 331.8548 L49.494 331.6665 L49.4082 331.5395 L49.2883 331.5504 L48.81 331.7067 L48.1439 331.9405 L47.7358 332.2021 L47.0197 332.4498 L46.7478 332.3476 L46.361 332.0241 L45.9128 331.2795 L45.2163 330.6221 L44.8092 330.1891 L44.6893 329.7459 L44.5586 328.9311 L44.387 328.4295 L44.1077 327.7659 L43.8628 327.1219 L43.7942 326.7834 L43.78 324.9113 L43.7472 324.5557 L43.6601 324.2652 L43.5574 324.0557 L43.3841 323.7874 L43.1831 323.373 L43.0936 323.1573 L43.0048 322.8487 L42.8491 321.861 L42.6846 320.7299 L42.5765 320.3718 L42.669 319.9063 L42.8112 319.735 L43.1044 319.5353 L43.6851 319.1787 L43.8145 319.0223 L43.2375 317.547 L42.898 316.889 L42.7653 315.5963 L42.6998 314.4291 L43.2048 314.1107 L43.7925 314.0332 L44.4508 313.6648 L44.6322 313.4615 L44.7089 313.0347 L44.4525 311.3064 L44.2117 310.3548 L43.956 309.6979 L43.9665 308.9512 L44.0705 308.5688 L44.1046 307.9784 L44.2016 307.6197 L44.5643 307.2693 L44.8319 307.2446 L45.0724 307.3343 L45.3784 307.7302 L45.6628 308.3469 L45.9138 309.0043 L46.1688 309.605 L46.3681 310.2062 L46.4262 310.8394 L46.9849 311.454 L47.2298 312.047 L47.4082 312.7245 L47.5193 313.6276 L47.5642 314.0152 L47.6162 314.9843 L47.7693 315.2176 L47.9385 315.3595 L48.3546 315.9411 L48.4891 316.5954 L48.7373 317.3225 L48.913 318.5275 L48.9066 319.5162 L48.9002 320.155 L49.0123 320.5643 L49.0809 321.3125 L49.0343 322.1185 L49.3089 323.8921 L49.5288 324.4123 L49.6825 324.7709 L49.8696 324.935 L50.2145 325.2018 L50.4989 325.3618 L50.9633 326.6751 L51.3508 325.53 L51.6653 325.5336 L52.0747 325.5186 L52.5465 325.1445 L52.7425 324.6461 L53.0546 324.2492 L53.2927 324.2131 L53.8011 324.1001 L54.0443 324.0459 L54.3564 324.113 L54.9685 324.2446 L55.4586 324.5207 L55.9021 324.9969 L56.1433 325.2452 L56.4166 325.3411 L56.6263 325.3964 L56.9617 325.3045 L57.2063 325.1843 L57.4265 324.9495 L57.5461 324.7673 L57.6221 324.6517 L57.743 324.6032 L58.0217 324.6522 L58.2342 324.5857 L58.5051 324.4025 L58.7618 324.3132 L59.0445 324.1522 L59.1769 324.1238 L59.2722 324.1032 L59.5934 324.2595 L59.8103 324.5986 L60.171 325.996 L60.3909 326.3149 L60.6247 326.4279 L60.9338 326.4052 L61.3256 326.2199 L61.7637 325.9325 L62.0245 325.6848 L61.8961 325.0444 L61.562 324.0918 L61.3773 323.3446 L61.4462 322.8812 L61.6046 322.5825 L61.6171 322.2135 L61.5715 321.9704 L61.6127 321.4585 L61.8552 320.7603 L62.189 320.394 L62.4602 320.1127 L62.8017 319.9832 L63.0973 319.9651 L63.4036 319.8114 L63.9211 319.9775 L63.9411 319.6406 L64.1086 319.3407 L64.2332 318.8257 L64.2157 318.4826 L64.1018 317.901 L64.0404 317.6368 L64.066 317.4108 L64.3119 317.2528 L64.7166 317.0057 L65.1027 316.9092 L65.4354 316.9391 L65.6367 317.1068 L65.6894 317.531 L65.834 317.8902 L66.1681 318.4888 L66.4805 318.6446 L66.6923 318.6487 L67.2679 318.7783 L67.4783 318.9454 L67.6219 319.5471 L67.9492 321.134 L68.2096 321.4028 L68.3833 321.5597 L68.5262 321.6495 L68.7572 321.7351 L69.0045 321.8987 L69.1723 322.1067 L69.2669 322.4803 L69.3922 322.9344 L69.548 323.4143 L69.6229 323.8266 L70.5238 324.6801 L71.0754 325.8618 L72.5985 329.315 L72.6052 329.5302 L72.6299 329.798 L72.6593 329.9678 L72.6411 330.1412 L73.7193 331.1871 L74.2327 331.8213 L74.7688 332.8874 L75.3082 333.5117 L76.3185 335.4189 L76.5969 336.0066 L76.7664 336.2847 L76.8657 336.6573 L77.1164 336.858 L77.2295 337.1785 L77.4018 337.4375 L77.5001 337.8477 L77.6947 338.3472 L77.9595 338.9308 L78.0929 339.3446 L79.7808 343.2239 L81.9143 342.2977 L82.2179 341.9396 L81.2404 339.5552 L81.435 339.5113 L81.944 339.8931 L83.2002 339.5577 L83.894 339.3725 L84.0656 339.2683 L85.1317 339.1888 L85.3381 339.3095 L85.9765 340.243 L86.3122 340.2027 L86.5264 340.3085 L86.852 340.2646 L86.9723 339.8962 L86.9277 339.3673 L86.9402 338.9984 L87.0094 338.535 L86.9094 338.131 L86.9686 337.7744 L87.228 337.5784 L87.3384 337.3895 L87.4918 337.1114 L86.9 336.1315 L86.6686 335.7337 L86.3967 335.7584 L86.2278 335.9225 L85.9542 336.1511 L85.7113 336.1181 L85.359 335.2827 L85.2722 335.1428 L85.0594 334.7078 L84.6774 334.6965 L84.2274 334.6031 L83.8859 334.8833 L83.6127 335.1119 L83.4667 335.1253 L82.3213 333.5298 L82.5848 333.3415 L83.0148 333.4127 L83.2147 333.2377 L83.2522 332.941 L82.9185 332.6964 L82.726 332.57 L82.9678 332.0163 L83.2343 331.8332 L83.4029 331.6453 L83.3519 331.2403 L83.3701 330.7815 L83.5076 330.6618 L83.7528 330.6484 L84.019 330.7124 L84.3619 330.7041 L84.6892 330.2686 L84.9378 329.7376 L85.2428 329.8094 L87.1749 329.797 L87.7154 329.7794 L88.1383 329.8558 L88.3541 330.0023 L88.419 330.5132 L87.7867 331.3151 L87.7218 331.7408 L86.6558 332.1557 L86.145 333.4189 L85.7079 333.8657 L85.8542 334.2522 L86.4139 334.1774 L86.5558 333.6763 L86.9861 333.3595 L87.4516 333.28 L87.7438 333.6304 L87.992 333.8544 L88.1697 333.9684 L88.3346 334.2935 L88.6014 334.4694 L88.7507 334.5768 L88.6261 334.7373 L88.3339 334.9973 L88.5919 335.9844 L89.0838 335.9251 L89.4087 336.1748 L90.1589 336.6305 L91.1709 336.8462 L91.5962 337.0773 L92.0093 337.1743 L92.1519 337.259 L92.1965 337.4411 L92.1769 337.8859 L91.9438 338.5877 L91.8563 339.0773 L91.229 340.6676 L90.4092 341.9617 L88.4457 343.2486 L87.181 343.6449 L86.4352 343.6676 L85.5097 344.6098 L86.322 345.5922 L87.409 347.4405 L88.0251 349.5065 L88.6294 354.4629 L102.9563 354.1089 L104.732 354.435 L109.4059 354.1956 L110.957 350.5988 L111.2111 349.475 L111.3526 348.1195 L111.4695 347.8713 L111.6897 347.7903 L111.8998 347.7521 L112.0896 347.7439 L112.3737 347.8527 L112.5835 347.8615 L113.7759 347.6396 L113.9931 347.3729 L114.2163 347.3755 L114.4859 347.3275 L114.6186 347.2031 L114.8112 347.1763 L114.9956 347.2103 L115.1929 347.2341 L115.405 347.3172 L115.5779 347.4317 L115.5665 347.507 L115.582 347.6783 L115.6384 347.7846 L115.7391 347.8687 L116.0937 347.8357 L116.2947 347.9012 L116.4836 347.9817 L116.6771 348.169 L116.7389 348.2841 L116.8723 348.3233 L117.1713 348.3888 L117.5476 348.4379 L117.8431 348.4714 L118.1259 348.4642 L118.4971 348.4575 L118.7379 348.4492 L118.9612 348.4523 L119.2372 348.4735 L119.3851 348.5158 L119.4952 348.6035 L119.5824 348.7397 L119.676 348.8986 L119.96 349.0591 L120.1303 349.1922 L120.1022 349.4347 L120.005 349.5488 L119.7395 349.5921 L119.4561 349.5436 L119.1676 349.6401 L118.7373 349.7077 L118.2728 349.9136 L117.7671 350.2768 L117.6516 350.5859 L117.6634 350.8691 L118.0107 351.3634 L118.2873 351.4831 L118.5464 351.4775 L119.2382 351.5765 L119.6901 351.5394 L120.5512 351.5533 L121.1446 351.5404 L122.3563 351.4801 L124.1668 351.462 L124.8471 351.5347 L124.9917 351.591 L125.1278 351.7091 L125.3001 351.8655 L125.5315 352.1101 L125.6946 353.7348 L125.6781 353.9087 L125.6828 354.0109 L125.7183 354.1476 L126.1844 354.4051 L126.5867 354.7012 L127.2518 355.4179 L127.8527 355.9401 L128.0196 356.3441 L128.1946 356.5283 L128.3472 356.7754 L128.3334 357.2331 L128.1388 357.6938 L130.6661 357.7377 L131.8423 357.3296 L132.7695 356.0046 L133.4218 355.6692 L135.6424 354.3396 L138.1758 353.4676 L142.8203 352.6936 L142.8203 354.2002 L143.2426 356.2641 L143.6648 359.721 L143.2763 359.721 L142.6548 359.236 L142.5302 359.2773 L143.0129 361.0573 L142.8001 362.7904 L137.8414 363.6954 L132.0112 364.3646 L125.5484 363.7986 L127.7281 366.2994 L129.1873 367.775 L129.212 367.7719 L129.1248 367.6903 L130.3672 367.6326 L132.9884 367.3158 L133.2022 366.8628 L134.2656 366.6946 L135.1631 366.612 L136.6831 366.6724 L137.9839 366.6223 L138.2656 366.6786 L139.8066 366.4928 L139.8728 366.4485 L140.1768 366.4201 L140.8281 366.2767 L141.2736 366.1704 L141.6131 366.125 L141.7779 366.2545 L142.4758 366.1704 L143.148 370.1741 L144.3907 371.4479 L144.743 371.3886 L145.1058 371.6924 L145.2551 371.9535 L145.8077 372.5081 L146.0073 372.8115 L146.3069 373.4115 L146.7825 373.8991 L147.0258 374.6059 L146.4714 374.7297 L146.0425 374.9701 L145.4858 375.1332 L144.285 375.4628 L143.0183 375.7843 L142.2623 375.9875 L141.9671 375.7363 L141.3858 375.8663 L141.303 375.906 L141.3476 376.2414 L150.6603 388.3395 L150.9778 389.005 L151.8392 389.5466 L161.6755 393.7202 L167.5327 398.5798 L170.262 398.0123 L171.3362 397.1214 L171.3399 397.0827 L169.1676 395.531 L171.2318 392.673 L171.4341 392.2453 L171.7851 391.2295 L171.6621 390.8044 L171.5851 390.467 L171.7003 390.256 L171.8922 390.0662 L172.2154 389.2861 L172.3759 389.1597 L172.5255 389.086 L172.8528 388.1383 L173.4507 386.8175 L175.3676 385.2549 L175.4004 385.0005 L175.4119 384.968 L175.5619 381.7565 L176.9681 381.1617 L177.8959 380.7711 L178.2304 380.6561 L178.5411 380.5328 L178.9107 380.41 L179.4028 380.2531 L182.1081 379.3431 L182.3939 379.13 L182.4206 379.0397 L181.6251 377.9903 L176.2138 379.8889 L175.2038 377.557 L173.6432 378.6043 L172.9717 372.1088 L170.4708 370.7225 L168.7122 369.1123 L167.1135 367.9984 L166.8011 366.9691 L166.571 366.6363 L166.3369 366.2617 L166.213 365.8727 L166.0208 364.9399 L166.0363 364.654 L165.8394 363.9219 L165.4479 363.2501 L164.9662 362.8095 L164.6291 362.729 L164.366 362.8977 L164.0934 363.0159 L163.9498 363.1733 L163.8728 363.5019 L163.9991 363.8347 L163.9846 364.0137 L164.069 364.4765 L164.3649 364.9708 L164.7683 365.2649 L165.0581 365.3872 L165.1827 365.6833 L165.0898 366.0878 L164.9618 366.3649 L164.7243 366.918 L164.4426 367.0882 L163.7542 366.6719 L163.3094 366.3819 L162.9162 366.3995 L162.3788 366.3138 L161.7863 366.0842 L161.408 365.8072 L161.0036 365.2479 L160.6969 364.7913 L160.2886 364.1861 L159.8991 363.537 L159.0722 362.4205 L158.3997 361.8204 L157.8893 361.2715 L157.9909 361.0104 L158.4243 360.6724 L158.5017 359.6865 L158.4007 359.3464 L157.8183 359.2278 L157.164 359.2881 L155.2292 359.4151 L153.5325 359.5569 L151.9828 359.5234 L150.6948 359.5972 L150.4401 358.8165 L150.1445 358.1778 L149.8811 357.6845 L149.8763 356.4643 L149.8152 356.2326 L149.7838 356.114 L149.4338 355.8947 L148.8147 355.6769 L147.6929 355.7058 L146.3245 355.7806 L146.1077 355.5443 L146.3701 354.6533 L146.2806 354.0836 L146.5978 353.9939 L147.1352 353.9773 L147.603 354.0135 L147.903 354.0929 L148.0236 354.1476 L148.1597 354.209 L148.3357 354.2534 L148.4647 354.1904 L148.4877 354.1879 L148.5721 354.1677 L148.8015 354.1125 L149.6112 354.0754 L150.184 354.1435 L150.559 354.2302 L150.5725 354.241 L150.81 354.4309 L151.2106 354.3426 L151.5666 354.3752 L152.0132 354.3808 L152.8819 354.4825 L156.0325 354.6909 L156.9921 354.565 L157.2468 354.4825 L157.4116 354.4288 L157.6947 354.4257 L158.0389 354.4314 L158.1713 354.5155 L158.276 354.5821 L158.5716 354.6156 L159.4981 354.563 L159.6255 354.5557 L159.9714 354.4773 L160.2902 354.3081 L160.4868 354.1688 L160.6591 353.9201 L160.5679 353.5837 L160.3946 353.3154 L160.2477 353.1797 L160.1058 352.6988 L159.8184 352.2458 L159.8498 352.0327 L159.9403 351.8521 L160.1038 351.7628 L160.3311 351.6575 L160.6973 351.6472 L160.9138 351.6875 L160.9999 351.7035 L161.1661 351.6416 L161.4103 351.6188 L162.8743 351.3722 L163.6573 351.2443 L164.2221 351.1225 L164.467 351.0054 L164.872 350.8114 L165.2283 350.7969 L165.5965 350.7876 L166.3454 350.7685 L167.5232 350.4878 L170.1228 350.0575 L170.4667 350.0075 L171.1625 349.7944 L171.8749 349.5565 L172.2921 349.3919 L173.3345 348.9559 L173.7375 348.7371 L173.7949 348.5039 L173.9351 348.2578 L173.9499 347.9116 L174.1996 347.7877 L174.1151 347.4818 L173.8959 347.2692 L173.6 347.2356 L172.9308 347.0313 L172.21 347.1773 L172.0144 347.3724 L171.6216 347.4456 L170.9632 347.6644 L170.0597 347.5891 L169.4902 347.5112 L169.0696 347.587 L168.894 347.6964 L168.8251 347.959 L168.4521 348.1004 L167.9397 348.185 L167.3749 348.3481 L166.2258 348.4766 L166.1522 348.0978 L167.0294 347.7841 L168.1012 347.5132 L168.718 347.2981 L169.378 347.0974 L169.8273 347.0329 L170.7862 346.8982 L171.8128 346.6918 L173.2663 346.4833 L173.5233 346.4457 L173.6304 346.3987 L173.6078 346.3027 L173.5375 346.1975 L172.766 346.2455 L171.2091 346.2909 L169.4317 346.3657 L169.0358 346.3043 L168.7815 346.2161 L168.2826 345.9916 L167.9965 345.8595 L167.3489 345.9937 L166.8396 346.1149 L165.635 346.1 L164.3369 345.2176 L163.7606 345.0659 L163.1938 345.0664 L163.0445 345.0427 L162.9158 345.0221 L162.7098 344.8095 L162.4848 344.5773 L162.4152 344.374 L162.4078 344.2022 L162.4031 344.0912 L162.5477 343.9426 L162.7284 343.8884 L163.2084 343.7672 L163.3371 343.7347 L163.7002 343.6408 L163.9846 343.6521 L164.1744 343.695 L164.3231 343.6955 L164.5342 343.4664 L164.7493 343.1248 L164.9034 342.8462 L164.9287 342.8007 L165.3074 342.3699 L165.5742 342.1867 L165.9475 341.9519 L166.238 341.9256 L166.5629 341.8725 L166.8179 341.7136 L167.2091 341.519 L167.5215 341.4241 L167.6249 341.3926 L167.7908 341.2781 L167.9745 341.1506 L168.4619 340.9937 L168.5143 340.7559 L168.3397 340.5938 L167.6773 340.3389 L167.3618 340.0933 L167.0868 339.8328 L165.8938 340.0423 L163.7167 340.5417 L163.4225 340.6093 L160.6625 341.2326 L157.8308 341.3947 L157.0901 341.374 L156.7155 341.3869 L156.2797 341.4024 L155.0944 341.3482 L154.179 341.2977 L153.9331 341.1475 L153.7983 340.8658 L153.6261 340.5061 L153.5828 340.4158 L153.0829 340.4385 L152.6769 340.5061 L152.584 340.5216 L151.9956 340.5386 L151.6483 340.5577 L150.8174 340.5588 L150.7204 340.3111 L150.6867 340.0443 L150.684 339.6109 L150.6215 339.3328 L150.4222 338.9313 L150.1391 338.3797 L149.7996 337.7677 L149.7064 337.4086 L149.7172 336.308 L149.3737 335.5004 L149.3585 334.7749 L149.4575 333.6242 L149.6939 333.4674 L153.6197 333.4085 L155.2887 333.2692 L155.594 333.2548 L156.0112 333.0907 L156.3223 332.8848 L156.4878 332.7625 L156.5712 332.5081 L156.9202 332.1588 L157.1161 332.0153 L157.5187 331.843 L157.8423 331.7243 L158.0568 331.6851 L158.0936 331.6784 L158.4645 331.6675 L159.1066 331.4265 L159.3762 331.425 L159.7424 331.4147 L160.8297 331.3146 L161.5397 331.0535 L162.5217 330.814 L163.993 330.5431 L164.1849 330.6608 L164.8612 330.636 L165.254 330.6138 L167.2365 329.9884 L169.2456 329.1463 L172.3417 327.4868 L171.0011 324.1398 L166.3005 321.1623 L163.2563 317.7395 L160.9324 310.04 L165.9654 307.4391 L162.5673 302.0617 L167.3942 300.498 L157.1694 292.5968 L154.3692 287.2036 L156.7371 278.2852 L153.4268 271.462 L149.245 267.0903 L147.6574 259.4771 L148.208 254.4445 L153.5079 251.3475 L155.3927 253.3193 L156.4162 250.4442 L157.4295 250.3306 L156.754 250.8313 L157.514 250.6816 L159.1117 249.3964 L159.794 246.1547 L156.3317 245.0553 L157.1762 241.411 L154.1361 241.4729 L161.4357 233.988 L164.2258 235.7999 L168.8163 231.1385 L169.8431 235.2579 L177.5987 233.5182 L179.3856 241.2148 L185.2968 239.4443 L187.0533 243.7338 L174.8829 253.1593 L173.8695 251.6056 L167.0902 256.9789 L167.1848 258.5532 L166.6038 260.6849 L171.701 259.2294 L170.9409 259.8436 L171.6165 259.8849 L168.4413 263.0386 L170.6471 265.6038 L172.6501 264.3289 L173.0589 264.0864 L175.0788 262.8889 L174.508 262.094 L175.7645 261.5417 L173.3662 258.7545 L178.5512 252.8857 L181.9595 250.821 L183.5403 255.6059 L182.804 256.6589 L187.1107 262.3573 L186.7189 263.4773 L177.3082 268.7678 L177.977 271.0904 L181.1556 271.2297 L183.439 269.48 L184.3037 270.8375 L183.3613 272.0865 L185.2394 275.3536 L178.0344 275.7201 L173.7513 276.9742 L171.8834 278.8736 L177.3014 276.6388 L181.6555 276.9691 L182.2095 277.9084 L179.0478 279.9574 L177.6122 279.9935 L177.1055 279.2194 L177.1055 280.4942 L176.6191 281.5419 L171.8496 281.5419 L167.7725 284.8553 L167.8806 285.7482 L167.9988 285.6295 L168.3873 284.6798 L169.5797 285.8824 L175.2207 283.1521 L178.4567 282.2541 L176.8995 281.2374 L177.8757 280.329 L179.6795 280.0348 L181.4832 279.7458 L186.4318 277.3149 L186.9013 278.2903 L182.2466 283.5237 L172.059 289.5105 L170.3498 289.4125 L170.7113 290.5995 L172.5758 293.3348 L180.6962 287.7145 L181.159 288.6383 L177.3082 292.5039 L177.9736 293.7167 L178.6391 294.9347 L181.8311 292.9271 L182.1723 293.8973 L182.375 298.2634 L186.4014 296.2145 L187.408 297.4635 L183.6383 299.8632 L183.9693 303.0061 L184.2835 303.9505 L188.1545 301.076 L188.7963 302.3868 L196.3086 297.7989 L194.0353 300.3999 L187.9214 304.1466 L188.445 304.9414 L188.9652 305.7413 L197.6733 298.7795 L200.6154 292.0549 L200.639 287.8642 L201.0984 287.4823 L200.764 292.958 L199.5345 295.492 L200.4364 294.9398 L203.1555 293.3193 L205.6889 294.6095 L209.5228 293.1025 L210.9685 310.3135 L219.1598 309.1421 L217.9911 310.6077 L218.849 312.45 L220.7339 311.2734 L229.3778 307.0469 L229.1008 300.3793 L233.8974 317.6569 L239.0182 313.3118 L242.0718 307.2946 L239.6228 300.947 L243.504 294.8676 L244.0816 291.9878 L242.3082 288.3132 L243.7337 277.8 L244.3923 276.3136 L242.467 288.4835 L244.3011 290.904 L243.5006 295.9101 L240.1464 300.4774 L240.724 301.9275 L243.2945 305.958 L239.5249 313.126 L233.8872 318.5703 L234.046 323.9525 L236.2416 327.575 L240.0721 331.7186 L242.0819 334.18 L247.348 350.2066 L254.9718 363.9415 L269.179 373.0581 L271.5165 378.2638 L274.4316 376.1021 L278.5627 373.6102 L279.3193 376.489 L273.1885 379.7341 L275.8942 381.9319 L276.1138 383.7118 L283.7545 380.508 L287.9362 379.5123 L286.352 370.3288 L284.5415 368.198 L286.298 367.4138 L288.0815 367.0114 L287.5174 365.2107 L285.1968 365.9176 L286.1088 358.9471 L289.615 358.3021 L287.9869 356.4086 L288.7469 350.5575 L287.8146 349.6752 L291.4458 348.9425 L292.1484 359.9119 L294.2765 359.0606 L293.4219 352.2396 L294.1853 352.2396 L293.9522 354.613 L295.4351 357.3992 L296.1748 357.2805 L295.9249 350.3098 L297.2321 348.8857 L297.3605 354.7781 L298.4515 354.3086 L298.3569 349.3708 L299.5223 345.7899 L302.2617 345.9808 L303.2818 341.662 L306.7036 340.63 L307.4906 342.6423 L310.6219 342.1831 L312.7635 343.7311 L311.7873 338.8291 L311.5474 337.4463 L310.7975 335.9911 L308.0007 337.4669 L298.286 339.3916 L290.1589 338.824 L288.1524 340.63 L287.6728 339.0304 L291.1047 334.5979 L292.3173 329.8764 L294.4656 328.7154 L296.4045 330.5679 L300.0019 330.0054 L303.069 329.4327 L301.8327 326.2385 L304.4404 325.5986 L304.6532 324.0867 L304.9843 321.0215 L305.8524 321.0215 L305.2883 320.072 L299.5797 320.1184 L295.9249 320.5003 L297.8638 324.0454 L292.7125 324.4169 L297.7793 325.4748 L295.4655 326.7545 L295.837 328.2613 L294.9419 328.7825 L294.9385 327.6679 L290.8547 328.0291 L293.7259 325.6399 L278.1033 316.6609 L274.918 313.3376 L276.7522 312.7338 L276.5664 311.3611 L276.384 310.2465 L272.9217 311.6501 L271.8408 308.8015 L273.0771 306.0561 L272.6684 300.6889 L248.0269 311.0102 L245.8448 308.7241 L252.0094 303.7699 L260.6905 295.8326 L260.0757 294.3463 L260.1163 294.2225 L251.7594 289.6757 L258.532 286.2385 L259.5251 285.6811 L268.4764 282.1819 L267.784 278.7807 L255.5055 282.8322 L260.525 278.1407 L264.2237 276.7626 L263.9265 275.6736 L259.2819 277.3458 L258.8529 274.7033 L261.9133 273.2117 L271.0098 272.5665 L271.6009 272.1072 L271.8442 269.6762 L276.4144 269.6762 L275.2794 263.6063 L269.4493 260.0294 L274.1343 257.908 L268.5609 252.4263 L262.626 249.3809 L269.3209 243.8629 L266.5342 243.8835 L261.8862 239.1242 L265.7134 233.2065 L260.7209 235.3766 L260.0386 230.3539 L256.9073 225.3207 L257.6572 223.772 L255.6237 224.82 L252.6107 219.2137 L255.7588 217.4791 L259.9474 218.3516 L270.8713 215.729 L271.096 215.5045 L275.8233 210.7782 L278.1341 211.0147 L278.7992 211.0828 L278.4411 213.0394 L284.3523 212.3734 L285.4231 217.6237 L278.9275 218.9607 L281.4947 223.8598 L284.2679 222.9461 L287.0411 221.8723 L289.7569 229.1511 L294.9081 230.4106 L294.1481 231.6909 L294.9487 232.811 L298.1103 235.8154 L300.0357 235.7173 L303.7446 238.6803 L307.5717 234.8036 L313.4154 238.9539 L315.0064 242.2988 L309.5342 245.2205 L311.7231 250.1448 L311.034 250.9139 L316.3001 250.088 L321.2486 248.7047 L326.1837 246.4696 L329.1325 247.6826 L329.1393 244.3739 L325.0724 236.7962 L330.4533 230.9011 L334.0068 233.9261 L335.6957 242.6911 L334.1757 243.7235 L334.429 245.0811 L336.0436 246.3715 L338.0774 245.6891 L338.2483 245.622 L338.5263 245.4987 L338.2257 244.4049 L336.7293 245.1482 L338.0332 243.6099 L338.755 245.3975 L339.2664 245.1709 L341.9886 243.8422 L347.9975 240.981 L348.0752 240.9304 L348.1566 240.9051 L348.7207 240.6367 L349.0024 240.4132 L353.3176 238.8832 L353.1987 239.1578 L353.221 239.3002 L353.1437 239.4236 L353.019 239.7896 L353.0494 240.0245 L353.1045 240.1685 L353.2034 240.2851 L353.3186 240.377 L353.4369 240.3992 L353.5507 240.4261 L353.6628 240.4297 L353.9591 240.4679 L354.3164 240.4121 L354.6174 240.3987 L354.8704 240.3197 L354.9778 240.2722 L355.118 240.2831 L355.2372 240.3652 L355.5581 240.5629 L355.6419 240.6088 L356.1641 240.7466 L356.5418 240.759 L356.9643 240.6553 L357.5139 240.4607 L358.0959 240.216 L358.7147 240.0709 L358.8779 239.9723 L358.9066 239.1356 L358.9218 239.1051 L359.0383 238.8718 L359.3211 238.8135 L359.4102 238.8083 L359.6214 238.7954 L359.9328 238.6411 L360.0828 238.399 L360.1331 238.082 L360.3162 237.9999 L360.5087 238.0712 L360.5496 238.1125 L360.657 238.2204 L360.7617 238.4021 L360.8083 238.6075 L360.8468 238.7763 L360.906 238.8646 L361.012 238.9575 L361.1451 239.0432 L361.2502 239.1733 L361.3326 239.2636 L361.4126 239.5826 L361.462 239.8717 L361.4234 240.0616 L361.2238 240.2666 L360.9114 240.4116 L360.4824 240.5995 L360.2902 240.631 L360.2034 240.6486 L360.023 240.5066 L359.742 240.5835 L359.2126 240.7946 L358.5803 241.1508 L358.1473 241.3444 L357.7345 241.5075 L357.1511 241.7382 L356.331 241.9199 L355.3636 242.1672 L354.9005 242.545 L354.4107 242.7293 L354.0439 242.8372 L353.6064 242.8305 L353.1964 242.9709 L352.587 243.1707 L352.4786 243.4091 L351.8172 243.7023 L350.6326 244.0673 L349.7057 244.3522 L349.6145 244.3698 L350.2394 249.2069 L351.3112 248.7269 L352.4644 248.2205 L353.0356 247.9077 L353.677 247.6532 L353.7219 247.7379 L353.6963 247.917 L353.6841 248.0393 L353.5659 248.1715 L352.8221 248.682 L352.4465 249.0985 L352.4063 249.5775 L352.3529 249.862 L352.3154 250.215 L352.2316 250.5722 L352.1664 251.2866 L352.1931 251.9416 L352.3637 252.2338 L352.4951 252.3473 L352.636 252.4139 L352.9153 252.4211 L353.1643 252.3468 L353.6169 252.161 L354.1229 251.9519 L354.7394 251.6252 L355.5527 251.2154 L356.3378 250.7007 L356.6228 250.4819 L357.0853 250.1262 L357.5764 249.8795 L358.3709 249.5972 L358.8255 249.4346 L359.3096 249.2363 L359.796 249.066 L360.9772 248.4683 L361.4775 248.237 L361.8626 248.076 L362.3497 247.9103 L362.7138 247.7745 L362.9911 247.6558 L363.2269 247.5412 L363.4475 247.4607 L363.662 247.264 L363.8923 247.089 L364.1487 247.0472 L364.3828 247.0627 L364.4578 247.0699 L364.4953 247.1783 L364.5402 247.5706 L364.7543 247.8308 L364.9682 247.9325 L365.1492 248.0837 L365.2573 248.3021 L365.2455 248.7367 L365.1958 249.0583 L365.4944 249.6369 L365.813 250.4839 L366.0491 250.9335 L366.2159 251.3377 L366.067 251.6959 L365.8424 251.9354 L365.232 252.3267 L363.8437 253.1107 L363.4282 253.3957 L363.1563 253.6259 L362.9827 253.7627 L362.8573 253.7647 L362.7199 253.6842 L362.6179 253.5815 L362.3797 253.5707 L362.1514 253.6661 L361.9882 253.7647 L361.7977 254.0713 L361.4528 254.4198 L361.1617 254.6933 L360.4233 255.1104 L354.7505 257.2267 L353.8321 257.6556 L353.0869 257.9472 L352.7515 258.2058 L352.6005 258.3225 L352.0242 258.6316 L351.8601 258.6652 L351.757 258.6559 L351.6287 258.5743 L352.1441 259.8689 L352.6052 261.0256 L343.2114 264.0709 L336.5098 271.1472 L345.5624 271.4981 L352.9971 276.2104 L353.4936 276.742 L345.6975 277.3046 L345.7955 277.671 L344.8091 280.458 L340.3977 282.6722 L342.1981 288.0861 L341.1847 287.0436 L337.5028 289.4589 L339.6816 290.0576 L345.4746 288.2461 L360.5229 282.0064 L360.6898 289.3975 L360.7019 289.9286 L349.2916 297.7112 L349.6293 298.4492 L350.7643 300.049 L344.2957 302.4436 L343.8025 305.5813 L344.8058 307.5268 L341.438 309.4775 L341.6542 312.77 L345.0692 320.1906 L347.7513 321.135 L341.6036 323.2146 L339.1648 329.2417 L339.7795 332.5391 L336.1922 333.8962 L338.6513 334.407 L343.2114 332.6732 L347.7952 331.6825 L346.3765 334.5825 L345.7245 335.9911 L339.7424 345.3409 L341.4651 348.2304 L345.326 351.7649 L346.5217 358.3383 L340.4247 367.4602 L337.6312 368.9874 L337.4353 372.439 L335.5336 374.1364 L336.0977 377.6086 L334.8107 379.3059 L335.189 380.962 L334.6621 388.4375 L335.3208 389.0978 L335.3343 384.0626 L336.1179 378.0832 L340.4618 379.471 L367.9508 390.0213 L366.0964 391.3213 L365.0492 400.8806 L356.6857 403.1659 L360.2696 407.365 L364.806 409.119 L365.4681 411.5022 L367.532 410.9915 L371.2746 426.446 L365.6032 431.0677 L366.6436 434.797 L371.1429 430.7737 L372.923 429.381 L373.6932 430.2785 L375.909 433.4146 L376.4123 433.951 L377.4189 434.7815 L376.2367 431.0213 L384.3942 424.4291 L388.5388 416.8567 L388.9678 413.4366 L403.523 414.3806 L404.9484 410.0062 L406.3705 405.6266 L409.924 401.3294 L419.0104 396.6865 L415.8792 393.8698 L411.5319 395.0821 L405.6139 396.5369 L404.6444 396.9909 L405.1275 398.977 L402.7326 405.3429 L403.1751 410.228 L399.679 409.9546 L400.0573 403.3 L397.784 403.3207 L397.2469 398.4715 L401.0571 398.0897 L400.6383 396.8671 L394.9703 396.7794 L385.1816 397.4665 L384.5361 397.5119 L383.4822 399.6116 L384.5057 399.6012 L379.9388 418.4867 L376.4225 423.7895 L375.8921 423.1137 L375.8921 424.4652 L374.3214 423.5109 L379.6416 413.4212 L380.3881 408.7114 L382.7323 394.4167 L384.1746 394.4167 L384.7914 394.2975 L381.0434 393.1682 L383.8956 391.878 L388.2446 391.5184 L403.5439 389.6385 L403.7905 391.31 L410.0747 390.1131 L410.7685 391.9559 L422.2532 388.6335 L426.9957 389.2371 L426.6917 388.097 L427.7962 387.9732 L427.9381 388.6129 L427.7489 389.6344 L428.5056 389.0772 L429.2622 388.5097 L427.7827 387.3283 L424.6582 384.5527 L421.8647 386.5493 L418.4362 386.5493 L414.3152 385.1976 L407.752 379.8786 L405.8942 381.9113 L402.9014 379.4504 L408.2756 374.0229 L410.1638 371.7167 L404.9586 370.4681 L402.3238 366.9959 L401.476 367.7543 L399.3648 366.2375 L400.2802 365.3139 L398.6555 363.2759 L394.2102 360.01 L392.6058 355.0774 L392.6328 351.2076 L393.457 351.2076 L393.457 349.4017 L392.4166 335.47 L393.1192 335.47 L392.4639 334.9591 L392.2477 333.9013 L393.6259 331.5586 L392.5889 330.6505 L388.63 328.0497 L387.8734 325.6244 L388.8969 322.5696 L391.231 320.8099 L391.4404 322.0793 L390.7682 323.519 L392.4065 325.2168 L396.2437 328.4109 L403.0839 326.1095 L398.0171 332.2295 L397.7941 335.568 L404.5194 333.5608 L406.8839 333.3698 L411.5116 343.2099 L407.8095 344.9127 L414.8692 350.7174 L410.5996 349.4688 L406.5529 345.8518 L401.0842 350.1241 L402.1921 357.9668 L408.637 360.7323 L408.8634 362.5639 L422.4221 367.3725 L429.5155 371.5052 L434.5192 377.0509 L436.126 383.6602 L447.2966 374.9825 L444.9321 360.9903 L446.1008 358.2712 L448.1782 368.0794 L446.9959 372.6608 L448.6545 374.6472 L449.4955 363.2037 L450.5663 358.3795 L453.7516 356.6253 L454.4069 352.7555 L454.6265 355.0155 L455.7513 354.5047 L458.1868 350.7484 L459.3994 349.9125 L460.5513 351.3366 L460.3283 349.4636 L466.3206 346.0685 L467.236 344.6856 L464.9222 341.5123 L465.6687 340.7899 L466.4186 339.9953 L463.7906 337.2863 L462.5341 335.3255 L465.9457 333.4369 L468.7257 329.1747 L470.1984 327.0487 L467.0942 326.7597 L467.0942 326.4707 L467.3475 325.0258 L464.983 323.8493 L473.8026 312.0268 L484.5137 300.756 L473.6742 287.1313 L476.3934 284.8553 L472.4616 277.7381 L489.9588 270.0788 L489.5771 267.9007 L488.8475 263.8541 L466.503 259.2913 L462.5239 251.8637 L456.8762 245.6695 L454.005 244.6475 L445.7664 246.7587 L444.9456 245.9276 L445.6887 247.5226 L436.832 250.2532 L434.5688 252.2353 L434.5823 254.3929 L440.8685 262.1869 L447.4655 265.0825 L441.7772 270.3988 L441.4799 272.5097 L425.756 266.3161 L426.6005 251.9721 L429.4649 251.3475 L429.5527 249.7061 L424.7764 241.4471 L425.2088 238.097 L423.1618 235.6037 L422.1687 231.7322 L422.493 230.3229 L424.7866 230.5603 L433.6534 232.5633 L433.2785 234.752 L424.6717 235.5263 L427.5733 237.2349 L427.5733 239.5165 L427.5733 241.7981 L429.6304 242.5621 L444.3308 243.3467 L443.8005 242.1078 L448.1633 236.2144 L448.749 235.5263 L448.1275 234.721 L452.8633 233.0227 L466.9354 235.6037 L480.587 244.6191 L477.1558 251.7878 L483.7301 254.8729 L488.8813 252.7463 L497.4644 251.7346 L493.134 245.6489 L493.2725 243.8938 L501.0753 242.2524 L502.0549 241.6742 L500.5349 240.998 L500.5349 239.2946 L503.6054 238.6183 L503.4061 236.7497 L498.444 237.2814 L498.1805 234.7004 L500.5416 233.9261 L500.0282 232.8059 L492.8638 235.7328 L486.5438 235.4747 L486.4661 231.9386 L487.976 228.0412 L497.5083 221.2683 L487.8443 211.6404 L483.0545 209.3895 L477.2074 211.3409 L476.7886 209.8954 L476.417 208.3724 L483.1457 200.7833 L483.1998 199.1932 L483.8247 196.7253 L486.4594 194.7635 L489.3035 197.5824 L492.3504 205.6104 L490.9857 199.4048 L486.912 194.5363 L484.9731 192.4298 L480.1833 192.6209 L478.643 194.1801 L477.5452 195.5947 L478.3863 195.5947 L476.39 203.6538 L472.9581 204.3714 L473.3702 201.3099 L467.3475 203.0807 L460.7168 205.9202 L457.7848 209.4824 L457.5855 206.2454 L459.7169 202.2702 L464.7871 198.4342 L470.472 197.8818 L480.8285 191.2527 L478.0688 190.344 L473.0898 182.6304 L467.0266 177.395 L459.7676 167.3729 L452.0019 164.0528 L447.7762 164.1148 L442.0913 159.4469 L442.5878 158.2851 L436.0382 153.9993 L433.6737 152.822 L431.88 151.1231 L431.1031 151.1179 L427.3905 153.6626 L425.5871 154.4176 L423.5199 158.6776 L420.1555 155.6207 L418.3585 156.3643 L416.0548 153.6637 L418.8145 150.8443 L419.5509 152.1558 L423.7225 150.2453 L421.9559 148.5154 L423.5266 147.4465 L419.632 143.8369 L421.0202 141.5855 L422.8983 142.0089 L423.0973 140.4349 L418.774 135.4816 L413.2174 134.9962 L415.6886 133.2708 L417.9633 130.9785 L418.622 129.0058 L419.184 127.063 L421.004 127.1544 L420.5669 128.5363 L420.3312 130.6273 L421.2905 132.4864 L422.7598 135.1821 L426.8707 135.2492 L433.1626 140.8196 L435.5842 136.1782 L439.4363 136.4679 L450.2893 143.367 L459.2812 146.3363 L457.8051 149.5017 L457.7206 151.2057 L459.7642 150.364 L463.4191 146.3414 L461.8213 144.2759 L466.4895 140.3461 L473.2993 145.4377 L468.5297 150.9785 L461.2133 154.3866 L460.808 158.9357 L465.4931 160.1647 L468.4791 159.1991 L473.9343 154.5053 L476.1502 158.3316 L478.4539 159.576 L470.499 165.2198 L471.4719 167.0683 L471.232 170.5639 L475.4442 168.6948 L479.1294 171.9115 L479.7375 172.7996 L476.5623 176.0835 L480.0144 175.8047 L480.6157 175.7117 L482.7167 173.9511 L483.139 174.9372 L479.1058 178.1385 L481.8047 182.6562 L483.2302 181.8456 L484.9123 183.1829 L483.1322 183.6269 L486.2905 185.341 L501.2949 186.291 L502.3995 182.5271 L503.5591 180.8853 L504.0833 178.6687 L505.2646 177.1636 L506.6137 172.3695 L511.344 172.6189 L511.8338 168.4108 L511.1718 151.4536 L512.0 146.7292 L508.6201 147.1243 L508.2837 145.3809 L506.7299 145.3809 L506.5846 144.7355 L507.8344 144.7355 L507.0541 141.6423 L507.4129 139.728 L506.9677 137.9423 L504.9133 134.6233 L504.3816 133.0101 L502.4772 132.1714 L501.3152 132.2127 L501.2476 132.7395 L501.6354 134.9549 L500.7264 136.3337 L499.8475 136.1452 L498.8652 135.478 L498.9652 137.1047 L496.5875 137.8266 L495.8127 136.628 L495.6144 134.7194 L494.7655 132.9873 L492.4561 131.9116 L490.7587 131.9535 L489.7829 131.4696 L488.6297 130.3417 L488.1409 130.6299 L487.8902 131.0936 L487.9906 132.2468 L488.454 132.9739 L490.4858 132.3057 L493.3857 137.6438 L492.7925 137.7589 L490.8857 135.9696 L488.8664 135.007 L488.1784 135.3928 L488.078 137.1599 L486.7938 137.635 L487.6626 141.9707 L489.3204 141.2637 L490.5179 142.8744 L491.3333 143.335 L491.3157 142.2005 L491.89 141.5137 L494.0319 143.1517 L493.894 144.1416 L495.0722 144.154 L495.7721 144.5578 L496.2011 143.5524 L497.6262 143.0128 L498.9308 142.8455 L500.3488 140.4819 L501.4902 140.7293 L502.3245 141.1806 L502.6106 141.7337 L501.5898 143.3644 L505.1119 145.3954 L501.9907 146.8991 L500.3616 147.8338 L492.7429 150.9315 L491.3789 149.4764 L486.3817 152.223 L483.7166 147.3484 L486.0676 145.4222 L484.9968 144.6425 L486.5168 141.9986 L485.822 131.6064 L486.6894 131.2837 L486.8948 131.7655 L487.5349 131.4639 L486.3425 127.1368 L485.8368 126.8611 L484.9127 124.3073 L488.1534 125.2369 L489.4663 123.3659 L494.2014 121.6002 L502.0887 116.9626 L501.4841 116.4616 L501.6259 115.2531 L497.9677 117.4015 L498.394 115.674 L497.5452 114.4263 L494.7172 115.7417 L487.4531 119.1301 L486.6175 118.7123 L484.0037 120.2817 L480.0931 118.0208 L483.1822 115.737 L486.332 112.8465 L489.8203 109.3604 L491.0276 108.3698 L491.5393 108.3899 L492.5767 109.6857 L493.8636 110.8788 L495.3908 111.6158 L496.4821 110.5348 L497.6559 111.3389 L499.5918 111.2547 L500.1255 111.6793 L501.5618 112.8413 L502.771 112.1286 L505.9293 111.183 L507.5581 108.2262 L508.3786 107.3467 L508.4472 105.0117 L508.231 103.1964 L507.0035 99.9348 L504.8889 93.6285 L501.859 91.3611 L502.9781 90.3911 L502.8082 89.2796 L501.376 87.459 L492.5503 93.6528 L491.7072 92.4122 L490.4577 91.4283 L487.6234 93.2504 L485.8726 92.3094 L484.1817 93.0346 L485.8683 96.4279 L488.0233 99.7334 L490.0838 100.5443 L489.3846 103.2635 L488.1176 102.903 L483.65 97.9371 L482.459 98.3373 L482.1182 97.7821 L483.0819 97.198 L481.676 94.6228 L479.3757 91.2284 L476.5224 90.215 L475.4354 87.805 L473.0196 82.5593 L469.7454 84.1337 L467.1925 79.7485 L467.6316 79.0651 L468.2352 78.8399 L469.1448 78.8347 L471.0861 78.029 L471.2124 77.5429 L470.9341 77.203 L470.1977 77.2883 L469.2198 77.7981 L468.1085 77.5021 L463.1076 79.1638 L462.4003 77.749 L460.8472 77.8125 L458.5543 78.5042 L458.0067 79.5388 L457.4369 78.5104 L456.1276 79.3063 L454.7657 79.454 L454.8606 80.0548 L455.9125 82.9617 L458.0449 83.3191 L452.8042 90.104 L451.377 87.3066 L453.0423 86.2581 L453.5882 85.2328 L453.0095 84.049 L452.385 83.315 L451.5543 83.2091 L447.3175 85.41 L447.0956 86.2353 L448.2829 90.2661 L445.7762 88.0493 L444.6791 88.5467 L445.5462 89.8519 L447.2945 91.8998 L449.4111 93.2205 L450.0066 93.5929 L450.8683 92.7779 L452.0603 92.8187 L452.9474 92.187 L453.6733 91.2434 L465.3272 83.7107 L467.2188 86.7405 L467.6073 87.7936 L467.4184 89.1789 L471.2749 90.3937 L470.9314 90.8859 L469.7853 91.5842 L465.7346 93.2856 L462.5273 95.083 L459.7808 96.2828 L454.7515 99.031 L454.0094 99.518 L453.8148 100.0045 L455.5176 101.5643 L457.5247 104.4658 L460.2797 104.595 L462.1882 105.709 L460.0878 107.1484 L464.0227 110.9702 L466.3281 114.5931 L469.7576 116.2731 L471.9539 119.7147 L466.8111 119.9228 L461.946 118.6689 L454.7042 111.0079 L450.4819 111.2971 L447.1273 102.9789 L446.5237 102.7816 L445.8819 102.8472 L445.076 101.6795 L443.9079 101.9258 L443.3978 102.1892 L443.6448 103.3735 L442.5919 103.9659 L441.8602 103.1643 L440.9192 103.4515 L440.6672 104.1632 L441.2742 107.6891 L441.9224 110.7218 L441.1691 112.5882 L437.1927 114.3333 L436.8482 115.8434 L436.3557 115.8434 L434.5178 112.6926 L430.8501 113.1429 L429.4723 112.1942 L429.3477 109.787 L429.35 108.6001 L430.4644 108.4142 L431.0694 108.8914 L431.6233 108.8439 L431.9067 108.298 L431.3717 107.3906 L431.2031 106.1185 L431.6031 105.929 L432.1509 106.367 L432.5698 106.274 L432.8556 105.9058 L433.5936 105.192 L433.7564 104.4359 L432.4198 103.9747 L431.8834 103.3658 L431.0971 101.3747 L432.2989 100.4513 L434.8468 98.4164 L434.8499 97.968 L434.4773 97.278 L433.7 96.2249 L433.0505 94.8392 L432.9204 93.3445 L432.1395 90.4769 L431.6858 90.0699 L431.5696 89.3488 L431.5389 87.2833 L431.8098 85.99 L431.7672 85.6186 L431.5203 85.3965 L431.3065 85.5117 L430.9282 86.1207 L430.41 85.5784 L430.0067 82.2277 L429.0251 81.2056 L428.6302 81.5682 L429.0244 82.0656 L429.1396 82.6415 L428.641 83.7107 L427.4182 83.5882 L426.7643 83.4126 L426.0259 82.1234 L425.4081 82.3667 L425.1162 82.8687 L424.494 85.5499 L423.3337 85.6006 L423.327 85.6254 L423.3591 85.8934 L423.1709 86.6894 L422.8267 88.6423 L422.6474 90.6008 L422.2856 92.94 L422.2866 93.8775 L422.3015 95.1212 L422.1714 96.714 L421.9559 97.3116 L421.8512 97.8017 L421.6306 98.344 L421.4573 99.409 L421.2574 101.6707 L420.7436 105.6532 L420.1173 108.9235 L419.8958 109.6429 L419.8498 109.8056 L419.6259 111.5414 L418.9763 111.5786 L418.83 111.6896 L418.2457 111.7567 L417.563 111.8187 L416.8344 111.8337 L416.2176 111.8012 L415.5323 111.4205 L415.4269 111.2201 L415.1826 111.0792 L414.9327 109.9543 L414.7401 104.8475 L414.5871 104.8336 L414.169 104.9926 L413.745 105.2927 L413.5704 105.3201 L412.5645 105.9047 L411.9254 104.548 L411.6062 104.5965 L411.4765 104.6828 L411.2052 104.8708 L411.1954 105.5339 L411.1809 106.1929 L410.6979 106.8153 L410.5803 107.418 L410.2608 107.7154 L409.6457 108.9508 L409.5565 109.7219 L409.143 109.8805 L408.6546 109.7761 L406.6742 109.2664 L404.9167 108.8573 L404.1901 108.7417 L403.4791 108.7458 L402.7366 108.7107 L401.782 108.6089 L400.9146 108.5692 L400.69 108.5521 L400.6157 109.3955 L400.8578 110.9588 L402.5417 112.4648 L406.4212 112.7173 L407.5561 113.4042 L408.1405 113.647 L408.6107 114.0142 L408.6705 114.0792 L410.0264 114.8999 L410.074 116.2571 L410.2192 116.3723 L410.454 116.3971 L411.033 116.6801 L411.3032 117.0989 L411.5981 117.6288 L412.4854 118.2852 L417.2604 122.5158 L421.4844 124.6389 L422.0076 125.5664 L419.001 125.9072 L417.306 125.8731 L415.6491 125.3376 L415.0357 125.2477 L413.6704 124.0796 L412.0135 124.5149 L407.5798 118.6203 L401.1348 117.6236 L396.3025 113.5654 L393.6975 113.272 L393.4093 113.3381 L393.255 113.2219 L393.2084 113.2168 L391.5789 112.1751 L389.3461 111.7046 L388.2338 112.4173 L387.2907 111.5806 L387.0951 111.498 L386.9793 111.3038 L386.4172 110.8049 L386.1703 110.7383 L377.3277 115.2738 L375.7976 113.5333 L372.7159 115.3833 L372.4812 115.7122 L372.0944 115.8083 L372.0522 115.782 L371.9833 115.8233 L371.9546 115.7215 L371.7931 115.6208 L371.6421 115.4323 L371.5479 115.0367 L371.5117 114.6354 L371.3162 114.2037 L370.9821 113.7126 L370.2869 113.0505 L370.1592 113.0277 L369.9198 113.0949 L369.7586 113.177 L369.6191 113.3805 L369.4438 113.8071 L369.3151 114.3364 L369.1608 114.6861 L368.9966 115.0279 L368.6868 115.4571 L368.5105 115.6177 L368.2055 115.5336 L367.6282 115.1152 L365.7012 113.8127 L364.17 112.6698 L362.4696 111.3048 L361.5582 110.5859 L361.1248 110.5787 L360.6411 110.7817 L359.9997 111.2971 L358.9603 110.5524 L358.7435 110.5451 L358.2375 110.6324 L357.9821 110.791 L357.8885 110.8705 L357.8622 111.0585 L358.0307 111.3276 L358.2425 111.4629 L358.731 111.8187 L358.9022 111.9251 L358.9482 112.0584 L359.165 112.297 L359.4336 112.7943 L359.4515 113.5122 L359.645 114.0715 L359.2974 114.4686 L359.115 114.8709 L358.6063 115.3135 L357.4011 116.5334 L357.2613 116.4451 L357.1457 116.5432 L356.3104 116.097 L356.0672 116.3335 L355.878 116.6584 L355.6737 117.0178 L355.3504 117.1965 L355.1133 117.3535 L355.0704 117.3974 L355.1102 117.7646 L355.3001 117.8725 L355.4524 117.9614 L355.4734 118.0388 L355.519 118.1834 L355.4338 118.3735 L355.2001 118.5956 L355.2454 119.0123 L355.1923 119.3836 L355.2781 119.6279 L355.2602 120.1986 L355.1944 120.7037 L354.8667 121.3446 L354.7893 121.7758 L354.736 122.1455 L354.5681 122.255 L354.3539 122.9063 L354.357 122.9739 L354.4087 123.1629 L354.736 123.5435 L354.8778 123.5771 L355.0636 123.5694 L355.6686 123.3018 L356.7583 122.505 L357.6977 122.2256 L357.8257 122.1326 L358.1284 121.9328 L358.4084 121.7391 L358.5627 121.8951 L358.8684 121.7649 L359.4096 121.7097 L359.8132 121.61 L359.9622 121.4902 L360.2209 121.3683 L360.6445 121.4277 L360.8428 121.4096 L361.1036 121.5165 L361.4018 121.5217 L361.7241 121.3337 L362.2679 120.8178 L362.6925 120.181 L362.7952 119.7059 L364.5757 118.971 L364.8104 118.7577 L365.2151 118.7071 L365.6758 118.5062 L366.1558 118.3136 L366.5024 118.1772 L367.9137 119.9925 L367.2327 120.9851 L365.5235 122.0164 L364.6236 122.7957 L363.2255 124.1379 L362.6189 124.5981 L361.2718 125.5721 L360.8604 125.7755 L356.6776 128.6293 L356.6424 128.6665 L356.2999 128.8891 L356.0743 129.0683 L355.3484 128.6494 L355.1599 128.4708 L354.9846 128.2817 L354.6563 127.8918 L354.4208 127.55 L354.4239 126.8688 L354.2698 126.6545 L354.0824 126.3312 L353.4875 125.6557 L353.3723 125.5726 L352.9592 125.2075 L351.6922 123.7697 L351.1305 123.2662 L350.5586 122.8014 L350.6383 122.3139 L351.0045 121.9901 L350.9636 121.6121 L352.3458 120.6902 L350.4167 119.0066 L349.1372 119.3439 L345.7752 116.8314 L345.054 117.3897 L343.0452 115.8739 L348.2285 112.3352 L350.6714 110.2678 L351.3091 109.4668 L351.4547 109.1161 L351.676 108.3161 L351.7442 107.6979 L351.7071 107.4242 L350.46 106.7445 L348.8156 105.9925 L348.5822 105.8267 L347.0804 105.0334 L346.4069 104.5769 L345.1655 104.1957 L344.2346 104.0108 L343.6705 104.1978 L343.1901 104.1854 L342.5034 104.2019 L341.8714 103.8492 L341.5711 103.4102 L341.5651 103.3869 L341.3671 103.2919 L340.9631 101.0587 L340.9959 100.2741 L340.8033 99.7169 L341.0263 99.1508 L340.8655 98.405 L340.9591 98.154 L341.0884 98.075 L341.1003 97.7914 L342.899 97.5714 L343.2942 94.7126 L343.2624 94.4317 L343.3144 93.9281 L343.4188 93.4379 L343.5468 93.1094 L343.6343 92.9426 L343.9623 92.8197 L344.1538 92.5506 L346.8561 93.034 L347.6796 93.0397 L348.0536 93.2479 L348.3363 93.2985 L350.3937 93.8429 L350.4046 93.8651 L350.7825 93.9735 L350.9494 94.0701 L350.997 94.3413 L351.0244 94.6419 L351.0116 95.1196 L351.1588 95.4238 L351.2061 96.3881 L351.3247 96.7176 L351.5719 96.9387 L351.7844 96.918 L352.1867 96.6856 L352.2188 96.6071 L352.2938 95.2534 L352.2803 94.849 L352.3286 94.7261 L352.332 94.676 L352.3529 94.6646 L352.4583 94.3965 L352.7285 94.3041 L353.1362 94.2395 L353.522 94.0298 L354.763 93.8258 L354.9606 93.7019 L355.1136 93.3279 L354.9349 93.0387 L354.6103 92.8879 L353.6074 92.4628 L353.5615 90.7243 L353.1089 90.7356 L352.4583 91.2211 L352.4235 91.4179 L351.8736 91.6762 L351.8371 91.7087 L351.7966 91.7123 L351.5328 91.8363 L349.7189 91.1184 L349.2439 91.1153 L348.0482 91.1592 L347.9894 91.1473 L347.7925 91.1566 L347.6469 91.0781 L347.603 91.0693 L347.2121 90.965 L347.0895 90.778 L345.9309 90.1541 L345.2006 90.1504 L344.3062 90.5853 L343.4384 91.4582 L342.9949 91.8446 L342.7351 91.9742 L342.5217 92.3807 L340.7584 92.0703 L339.3884 92.1374 L338.5469 92.5868 L335.7187 94.0644 L335.2279 93.6662 L335.0438 93.5583 L334.479 93.127 L334.4337 93.0206 L334.3888 92.9845 L333.0958 93.722 L331.0765 96.0979 L328.8515 98.1881 L326.0148 99.284 L323.0406 100.3134 L322.5214 100.6222 L321.7519 101.0566 L321.1263 101.2208 L320.5964 101.1857 L320.5079 101.1898 L318.8851 101.7513 L318.2433 101.8783 L318.1207 101.9341 L317.1979 102.3731 L316.3565 102.6318 L315.1077 103.012 L314.3899 103.1473 L314.0224 103.1995 L313.6251 103.1752 L313.3651 103.0781 L313.262 102.8632 L312.8489 102.9376 L311.8751 104.0103 L311.5126 104.5438 L310.9414 105.2163 L310.6607 105.6057 L310.4547 105.7973 L310.2024 105.8541 L309.8132 106.2828 L309.4217 105.0319 L309.2464 104.7323 L309.2187 104.7122 L306.1631 104.7122 L305.7814 104.5831 L305.3308 104.205 L305.1123 104.1684 L304.6174 103.9432 L304.0331 103.4975 L303.4815 102.8018 L303.4399 102.652 L303.4325 102.3679 L303.5041 102.042 L303.3163 100.6191 L303.2163 100.3495 L303.1741 100.0366 L303.0947 99.8806 L303.2092 99.8093 L303.096 98.9277 L306.2847 96.7946 L305.3305 94.7571 L303.3501 94.6863 L302.7866 93.7034 L302.6252 93.4922 L302.4296 93.081 L302.0016 92.3275 L302.964 90.9324 L302.9673 90.8116 L302.9329 90.4324 L302.8363 89.7791 L302.7907 89.1768 L302.8224 88.5023 L302.8116 88.0788 L302.711 87.7353 L302.2941 86.8128 L299.9898 86.9404 L300.0256 85.2406 L301.1923 84.1817 L300.9106 82.6322 L301.6605 82.2448 L302.204 81.9664 L302.211 81.6787 L302.1401 81.4612 L301.9638 81.2118 L301.7865 80.9995 L301.5997 80.8393 L301.4679 80.7717 L301.3038 80.8058 L300.5343 81.0392 L299.778 81.3135 L299.2868 81.438 L299.097 81.5997 L298.9859 81.8104 L298.8123 82.1993 L298.6562 82.5309 L298.4826 82.6404 L298.3015 83.0144 L297.4314 83.2902 L296.8943 83.611 L295.7577 83.9994 L294.4748 84.4157 L293.6367 84.66 L292.7703 84.8 L292.2042 84.8144 L291.9805 84.7525 L291.7532 84.7468 L291.6539 84.6042 L291.614 84.5655 L291.5914 84.5149 L291.2854 84.0753 L290.652 84.1352 L290.6257 84.1347 L290.2423 84.565 L290.2058 85.0923 L290.046 85.3521 L289.6893 85.4611 L289.3029 85.4048 L288.8611 85.2462 L288.3223 85.2039 L287.4238 85.3929 L287.0094 85.5381 L286.7523 85.5618 L286.4618 85.3893 L286.3318 84.9725 L286.1058 84.0583 L286.0818 84.0577 L281.4352 85.7726 L281.6051 86.037 L281.5737 86.2545 L281.4494 86.5737 L281.2511 86.7968 L280.6712 86.8639 L280.1756 86.9373 L279.597 87.0695 L278.8052 87.1609 L278.2432 87.2167 L277.7713 87.2973 L277.0319 87.398 L276.7637 87.618 L276.5498 87.8758 L276.2789 88.4744 L276.1854 88.6583 L276.7724 93.9178 L278.5762 96.681 L279.0508 97.4128 L280.0895 98.7588 L280.6235 99.8248 L280.8208 100.1006 L280.9728 100.457 L281.5312 101.3412 L282.4523 102.4888 L283.2437 103.5977 L283.8788 104.7267 L284.4115 105.317 L284.6844 105.4549 L284.9951 105.4451 L285.1907 105.2457 L285.3556 104.9601 L285.7356 104.5893 L286.0953 104.1973 L286.6766 103.892 L287.1708 103.9075 L287.3684 104.0113 L287.4465 103.9427 L288.5895 104.6197 L288.9293 104.7819 L289.1462 104.9493 L290.6115 105.8174 L290.318 106.3127 L290.3413 106.4997 L290.5872 106.7987 L290.9587 107.1009 L291.4303 107.482 L291.6951 107.6814 L291.8633 107.8198 L293.1212 108.5082 L292.4984 108.5361 L291.6232 109.0872 L290.6433 109.6026 L291.9525 112.2474 L288.6895 114.5508 L287.2066 116.1776 L288.2098 116.9781 L287.2843 118.9457 L282.0723 112.9911 L286.4905 113.4042 L286.1595 111.4262 L284.4368 109.1486 L283.8254 111.6896 L281.3866 111.607 L277.8669 111.2403 L272.4984 107.6798 L272.1654 107.6979 L271.3794 107.6953 L271.1162 107.7335 L264.3926 110.6309 L260.0588 112.2009 L265.5951 127.7013 L265.7769 128.1217 L265.7478 128.1284 L265.9633 128.7321 L262.5888 128.856 L263.2543 131.4588 L266.6794 134.4126 L263.2509 133.1681 L262.7962 134.2644 L263.0803 134.3517 L264.068 134.8345 L264.7355 135.1186 L265.5607 135.2947 L265.8714 135.6954 L266.0109 135.841 L268.1184 136.3647 L270.1282 136.6022 L271.324 134.6967 L274.4721 136.6022 L274.5735 138.9725 L272.3579 143.1966 L272.3481 143.3464 L272.4886 143.8183 L272.6488 144.2444 L273.8709 144.3791 L280.157 144.973 L281.5305 146.7266 L282.4655 147.7357 L282.9235 148.3233 L282.9424 148.5288 L286.7337 153.3693 L286.0781 153.0765 L286.0582 153.1328 L285.8153 153.2759 L285.4515 153.3652 L285.088 153.3564 L284.3547 152.8597 L283.9379 152.7254 L283.6045 152.7884 L283.1346 153.0414 L282.9387 152.9557 L282.6371 152.6438 L281.1569 153.4365 L284.3186 159.0597 L283.0856 160.459 L285.7035 163.4539 L285.0651 165.3024 L286.2102 168.0803 L284.349 168.9529 L275.7084 157.9443 L264.4791 153.8361 L264.4544 153.974 L264.348 154.1258 L264.9297 160.9134 L258.3294 162.9117 L258.5388 164.3575 L256.654 164.3575 L252.7694 153.7773 L252.7694 152.414 L251.6007 152.5896 L250.4319 152.7652 L250.1516 149.7702 L258.9205 149.889 L259.3765 146.5738 L254.7522 145.9335 L250.9116 145.2467 L251.0015 144.4261 L250.9727 144.4158 L250.8562 144.2149 L250.842 144.061 L250.8842 143.7626 L251.1332 143.2209 L251.2832 141.8488 L254.3847 140.6048 L255.2836 140.028 L256.3841 139.2462 L257.3623 138.3843 L256.9343 137.9552 L257.6403 136.8811 L255.9682 134.8671 L256.1625 134.7276 L255.9953 134.4183 L255.9264 133.9164 L256.4705 133.5631 L256.7901 133.2404 L257.0407 133.0927 L257.4694 132.9915 L257.8723 132.9218 L258.1392 132.9951 L258.375 132.9269 L258.8252 132.5128 L258.9857 132.5355 L258.9999 132.6914 L260.2277 131.8099 L256.6033 129.0574 L257.5163 128.5157 L257.5896 128.3917 L258.3003 127.8743 L259.4434 127.3031 L259.5846 127.0661 L259.4312 126.0498 L259.2022 125.4662 L256.9748 127.002 L256.4817 125.9227 L251.1447 127.6476 L250.8248 128.7202 L250.9417 128.9175 L250.6958 129.3316 L250.6255 129.389 L250.236 130.6945 L242.9568 134.8516 L239.3425 135.967 L239.7218 136.2614 L240.2116 136.486 L243.3222 138.8821 L243.6864 139.2544 L243.656 139.3185 L242.7048 141.2374 L242.1194 142.2609 L241.4107 142.6993 L240.9138 143.113 L240.5781 143.2958 L239.6427 144.5041 L242.6021 145.7682 L241.4165 146.9301 L242.4737 147.3948 L242.1123 149.0473 L244.1289 150.9579 L245.3922 151.9648 L245.4341 152.4238 L245.5709 152.5251 L245.9435 152.5839 L246.2063 152.4574 L246.8788 152.083 L247.656 151.9374 L247.9002 151.9147 L248.3536 151.9385 L248.6555 152.1393 L248.892 152.3118 L248.9271 152.6696 L249.0382 153.0745 L249.295 153.391 L249.6773 153.5568 L251.0768 153.6053 L251.5683 153.5418 L251.8821 153.6668 L252.083 154.3432 L251.9847 154.5446 L252.0939 155.0785 L251.3673 155.1482 L251.1173 155.2758 L249.4807 155.631 L248.3164 155.8634 L247.0994 156.0312 L246.5376 156.1944 L246.3008 156.5006 L246.0904 156.7438 L245.6577 156.844 L245.298 156.7231 L244.4471 155.8128 L242.0346 156.0441 L241.1834 157.588 L241.0753 163.7637 L241.2658 164.8144 L241.2982 164.9513 L240.4811 170.188 L236.6358 169.6299 L236.5699 169.6562 L236.3362 169.6407 L236.2527 169.5741 L236.0305 169.5421 L235.6795 168.4676 L235.3434 167.9316 L234.5283 166.4399 L234.3696 165.718 L234.1027 164.833 L233.9507 164.39 L233.9953 164.1623 L234.2129 164.1514 L234.7523 164.1153 L234.9185 163.8623 L234.954 163.5582 L234.9111 163.0872 L234.6986 162.5962 L234.5091 162.2033 L234.2612 161.6761 L233.5866 159.938 L233.1522 158.9471 L232.8931 158.1968 L232.884 157.8436 L233.0377 157.6944 L233.5194 157.6221 L233.5907 157.601 L233.0461 156.8445 L232.3638 154.5466 L232.7692 154.6463 L232.4925 154.4196 L232.4652 154.2213 L232.578 154.2348 L232.8718 154.2962 L233.2005 154.3313 L233.6511 154.3783 L233.947 154.2069 L234.1865 154.1289 L234.449 153.9508 L234.5216 153.7251 L234.6172 153.4561 L232.4179 152.982 L231.543 152.8581 L228.9725 152.4192 L228.8762 151.5238 L228.8032 151.4598 L228.7276 151.15 L228.662 150.3506 L228.6924 149.8187 L228.6178 149.1247 L227.2227 149.1299 L224.615 149.4397 L225.0406 151.9958 L225.4629 154.5466 L227.1383 155.0733 L231.1512 162.2921 L227.1991 162.9169 L226.0641 167.7137 L225.9999 165.6535 L223.5713 167.7912 L223.1794 170.3006 L222.0208 170.8582 L220.5954 172.0974 L223.0139 176.3984 L222.3215 177.0593 L217.9167 172.4227 L215.0726 175.3142 L217.5756 177.4311 L219.1767 180.1521 L216.4744 181.0505 L220.6764 188.5834 L219.6631 188.9293 L221.6932 196.6634 L217.6398 197.128 L215.7211 195.0732 L214.9375 198.5633 L213.1675 200.2928 L211.3975 202.0172 L207.7899 198.7801 L206.557 197.443 L204.9357 198.9867 L200.487 196.2968 L203.6115 188.2375 L202.4056 185.7902 L200.4195 185.7902 L198.7069 188.919 L197.6766 188.5731 L198.4164 184.2206 L201.3112 181.5668 L201.8686 175.5878 L202.8245 173.3831 L201.8787 173.8788 L199.3521 182.6666 L199.0514 182.0883 L190.8669 169.2679 L186.1751 164.0838 L185.486 164.9771 L181.5812 161.4452 L179.6997 161.6001 L182.5135 165.2301 L181.3954 166.4383 L180.6084 167.1406 L184.0335 171.9735 L182.8073 173.9665 L186.5128 183.0383 L184.9219 186.0587 L187.6411 196.1936 L185.996 198.3723 L184.3848 195.7289 L184.8712 192.5383 L183.7802 191.2372 L182.679 190.4937 L182.679 191.7225 L178.3351 191.0203 L175.1633 181.1176 L173.0521 182.9454 L173.7378 184.9332 L174.4032 188.5215 L176.3759 191.1133 L175.318 192.5346 L171.9452 193.0344 L170.0222 190.153 L168.6305 182.6666 L166.7625 183.756 L162.0842 177.6531 L162.9118 176.1713 L161.5809 171.9115 L161.0574 168.798 L157.6727 171.0854 L155.6359 170.7291 L157.5275 168.4624 L156.4837 166.4487 L153.8287 168.0752 L152.0047 165.6948 L142.0536 160.1234 L141.4692 158.8067 L143.5533 157.0768 L145.0092 156.7412 L144.5701 155.6155 L144.1276 154.4898 L143.4115 155.8272 L142.9082 156.1061 L141.1753 156.3281 L139.9424 156.2765 L140.9152 157.7791 L140.0876 158.7344 L140.699 160.1492 L140.0336 159.6793 L140.7936 160.7069 L144.5599 163.3248 L144.9889 166.1957 L149.6301 170.471 L152.5181 172.8513 L160.6385 185.0106 L147.2757 173.223 L144.3032 172.7738 L142.996 172.1645 L141.8205 174.3538 L148.6471 178.8252 L157.183 189.9929 L155.5346 191.8051 L141.047 177.8132 L138.3447 181.7837 L138.7669 183.6579 L149.9341 193.1268 L148.7687 194.2936 L147.3162 192.5383 L146.0664 193.638 L149.2754 196.9422 L143.2527 193.8341 L136.1052 186.3014 L133.9332 187.2462 L133.3455 187.9329 L135.5748 189.8329 L132.6192 191.8929 L142.1312 199.5649 L140.1687 202.2908 L139.0338 201.3667 L137.8245 200.5665 L138.7669 202.9052 L134.779 204.6182 L132.3936 202.1483 L129.2245 200.0502 L124.6748 197.5054 L122.8177 195.0903 L120.2725 193.2497 L116.368 191.7277 L112.3467 191.2945 L109.6228 192.6849 L107.1424 194.828 L104.5648 194.4382 L103.8061 195.2075 L106.3632 195.7645 L108.5436 197.0005 L111.6414 199.995 L111.6093 202.456 L114.1981 202.5887 L115.1466 204.104 L119.4358 204.9424 L120.9913 205.3177 L122.3299 206.2078 L124.7252 208.0214 L126.1081 210.6982 L118.4444 212.3456 L115.1692 209.7586 L113.9542 206.6228 L111.3745 203.9104 L110.3862 206.7101 L110.5855 207.2831 L111.0297 208.7529 L112.0717 210.2 L114.8889 210.8247 L117.9529 218.2535 L115.1257 219.8817 L117.4229 224.4736 L116.6491 225.7595 L113.1932 221.7226 L111.361 220.0603 L109.7593 216.1049 L109.4775 214.06 L108.7135 211.9919 L107.2299 210.9351 L106.5104 208.9796 L105.9034 206.597 L105.4538 204.9336 L104.6898 204.169 L103.4349 203.7906 L102.8458 203.8231 L103.0215 204.2676 L103.8582 204.7534 L104.4874 205.6977 L104.8023 207.9682 L105.7237 211.947 L107.8592 214.4642 L108.0318 216.5602 L108.6905 217.9799 L105.6683 221.2941 L101.2981 213.1958 L96.4593 205.3043 L95.7773 202.9011 L93.8631 200.7487 L91.426 200.4467 L89.4857 201.2247 L88.8885 201.9294 L88.4629 202.7704 L88.1397 203.4292 L88.3457 204.8825 L89.4631 205.2842 L89.4739 205.9202 L87.4556 206.1221 L84.8898 208.0637 L83.0874 210.5531 L87.2479 216.9923 L87.0645 219.0707 L85.6269 217.4022 L84.4507 216.5442 L83.4728 216.3842 L83.258 216.8782 L85.0229 218.1652 L86.1974 220.0087 L85.0715 222.4453 L85.4046 223.8995 L84.2099 226.8492 L86.2683 229.8325 L83.2435 232.4616 L80.5608 231.9531 L78.305 234.4433 L80.1544 236.44 L79.0262 239.2842 L75.3845 231.4291 L72.6454 229.2079 L71.1112 230.5531 L66.0684 228.797 L62.6757 232.3976 L64.5491 235.0942 L64.6896 236.5546 L63.8951 238.0335 L62.9176 238.3282 L62.04 239.3059 L60.519 238.1228 L61.1168 239.914 L62.9544 242.495 L63.4698 243.4639 L62.114 247.7756 L61.4178 256.0813 L61.5593 257.5467 L63.2999 257.6339 L62.8655 261.9232 L62.5862 262.8321 L62.8612 264.2495 L61.4445 266.9613 L62.7176 270.727 L60.4001 274.741 L59.4087 274.9319 L55.5434 273.6091 L54.2463 271.6943 L54.7867 269.5884 L54.1922 270.791 L50.8144 269.7588 L48.7167 275.0904 L45.9604 275.0904 L42.5353 271.4775 L42.2009 268.6439 L40.164 267.3897 L39.1203 269.8362 L34.2967 272.9949 L30.5101 273.9652 L30.2568 275.2349 L30.0001 276.5768 L31.0945 276.6439 L34.8979 280.3084 L37.178 276.1381 L39.4276 276.1226 L38.2859 276.6233 L35.7188 280.2103 L34.2663 280.5097 L30.9864 277.1084 L27.4092 277.0413 L20.9457 275.4801 L19.5801 274.742 L19.6165 274.3059 L20.7241 273.238 L20.4465 272.7977 L20.4228 272.1892 L20.2333 269.7273 L20.3262 269.3231 L20.1367 268.5242 L18.742 266.9055 L16.058 267.5905 L13.3729 268.0839 L11.3175 267.9781 L7.9646 267.8707 L3.5853 267.5141 L2.2436 267.4485 L1.0471 267.5244 L0.0 267.7603 M35.7846 321.9508 L35.8269 321.649 L35.8806 321.2759 L36.3798 321.0942 L36.5122 320.8677 L36.8807 320.5307 L37.1263 320.2701 L37.3891 320.2975 L37.7033 320.1236 L37.9137 320.1416 L38.2245 320.234 L38.3673 320.6262 L38.6126 321.3213 L38.6957 322.0731 L38.8632 322.2764 L39.1922 322.6841 L39.4611 323.4747 L39.5185 324.0985 L39.5455 324.3896 L39.6911 324.6094 L39.8816 324.597 L40.0178 324.2714 L39.7512 323.243 L39.5172 322.8219 L39.532 322.6294 L39.6624 322.5799 L39.7921 322.6289 L39.9154 323.1578 L39.9961 323.6816 L40.3201 323.8194 L40.5704 323.9128 L40.741 324.3535 L40.8068 324.8695 L40.9234 325.3762 L41.1581 326.2633 L41.4689 326.8123 L41.5003 327.1539 L41.8367 327.7799 L42.0499 328.2262 L42.1786 328.4146 L42.1914 328.8052 L41.6412 329.2381 L41.6178 329.3919 L41.7351 329.6958 L41.983 329.9647 L42.3154 330.2057 L42.4664 329.9771 L42.617 329.8166 L42.9501 330.5385 L43.2294 330.7454 L43.4152 330.9988 L43.7743 331.1613 L44.2583 331.475 L44.4292 331.7671 L44.6076 331.9369 L45.072 332.1877 L45.6311 332.6061 L46.0388 333.1 L46.3897 333.277 L46.5958 333.6495 L46.8235 333.8523 L47.0268 334.0432 L47.4625 334.5339 L47.6905 334.8435 L47.9858 334.8678 L48.0956 335.1046 L47.9452 335.3374 L47.7095 335.4014 L45.9347 333.8363 L43.4003 331.6433 L42.0806 330.5302 L40.9183 329.5147 L40.2299 328.8516 L39.9982 328.6024 L39.6371 328.1653 L39.3348 327.9605 L38.9247 327.3923 L38.6048 326.8443 L38.1586 326.2529 L36.7338 324.1156 L36.468 323.6548 L35.9856 322.7785 L35.7846 321.9508 M49.1234 305.5519 L49.1802 305.0575 L49.6399 304.3484 L50.1429 303.8034 L51.0039 303.1599 L51.5997 302.7176 L52.2892 302.1272 L52.4513 301.9724 L52.5036 301.5296 L52.3564 300.6342 L51.9899 299.8343 L51.8835 299.3828 L51.996 299.0927 L52.1801 298.8703 L52.432 298.6793 L52.6739 298.6804 L53.1154 298.7325 L53.5846 298.829 L53.9727 298.7557 L54.3767 298.5508 L55.1238 298.1834 L55.2873 298.0425 L55.4437 297.9254 L55.5718 297.8996 L55.7021 297.9527 L55.6758 298.2257 L55.7119 298.4647 L55.9119 298.8192 L56.2443 299.4034 L56.6935 300.2472 L57.085 301.0177 L57.1938 301.2406 L57.208 301.5467 L57.2877 302.0039 L56.4459 302.2557 L56.1355 302.3636 L56.0852 302.6758 L56.0571 303.3307 L56.1352 303.9294 L56.2673 304.5048 L56.5939 305.6814 L56.6368 305.8966 L56.4115 306.2248 L56.0197 306.2609 L55.6221 306.2326 L55.2995 306.2114 L54.9881 306.1608 L54.7016 306.1268 L54.3338 306.119 L54.0828 306.0674 L53.8406 306.0617 L53.7143 306.2042 L53.6254 306.3523 L53.7801 307.3772 L53.8409 308.0377 L53.975 308.4867 L54.1061 309.1039 L54.1645 309.588 L54.1882 309.6561 L54.3736 310.1928 L54.3189 310.5375 L54.2912 310.7135 L54.3993 311.1785 L54.2513 311.4907 L53.9571 311.5273 L53.7322 311.9582 L53.6869 312.3029 L53.6602 312.5052 L53.643 312.6358 L53.6565 313.2607 L53.7862 313.9481 L53.8007 314.8269 L53.8849 315.7419 L53.8859 317.2203 L53.6035 317.2828 L53.5987 318.192 L53.5663 318.9501 L53.6737 320.8274 L53.5842 321.0638 L53.1745 321.3579 L52.8928 321.715 L52.7306 321.94 L52.5307 322.1402 L52.3564 322.2166 L52.1858 322.1299 L52.1878 321.5937 L51.8966 317.8742 L51.7585 316.9267 L51.7207 316.2636 L51.6237 315.3079 L51.5599 314.9177 L51.5639 314.5586 L51.1245 313.2664 L50.9069 312.9568 L50.6293 311.2218 L50.406 310.2609 L50.0537 308.8211 L49.4271 306.7801 L49.1234 305.5519 M57.2526 297.6322 L58.4882 297.1218 L59.0979 297.3313 L59.5154 297.2741 L59.8258 297.2637 L60.2984 297.5001 L60.9841 297.6787 L61.3117 297.8583 L61.6711 297.8763 L61.9059 298.1019 L61.7022 298.8197 L60.7257 299.2687 L60.346 300.0913 L60.5865 300.787 L60.9415 301.2623 L61.2932 301.7515 L61.8157 301.573 L62.1606 301.2288 L62.5467 301.0301 L62.9682 300.8138 L63.2682 300.5388 L63.3749 300.2823 L63.8161 300.1295 L64.0985 299.6609 L64.3832 299.5226 L64.6413 299.4989 L65.5067 298.6494 L66.1532 298.0492 L66.3981 297.882 L66.6531 297.8258 L66.9369 297.8789 L67.045 298.1953 L67.1264 298.7284 L67.2716 299.3998 L67.4375 299.9907 L67.5908 300.5961 L68.0414 301.4027 L68.2522 302.2826 L68.36 302.7481 L68.3583 303.2843 L68.5799 303.725 L68.6724 305.6417 L68.9443 306.2733 L69.121 306.7791 L68.9582 307.4107 L68.4316 307.9985 L67.9046 308.3391 L67.3304 308.5311 L67.0835 308.6152 L66.3613 308.7272 L65.9262 308.7762 L65.228 308.8562 L64.7409 308.9011 L64.5177 308.899 L64.5295 308.3964 L64.4805 307.7116 L64.313 307.3029 L63.9617 307.2234 L63.579 307.1909 L62.1474 308.0109 L61.5874 307.7828 L61.3952 307.4608 L61.2766 306.3249 L61.2857 305.3594 L61.2236 305.0389 L61.1192 303.548 L60.8361 302.0875 L60.4804 301.4027 L59.9224 300.4892 L59.6306 299.9432 L59.5069 299.6609 L59.2779 299.2909 L58.9678 299.1051 L58.6534 299.069 L58.3747 299.374 L58.119 299.6263 L57.9812 299.392 L57.8444 298.8641 L57.2526 297.6322 M70.6235 324.0929 L70.7663 323.5252 L70.9278 323.4127 L71.1028 323.4432 L71.2832 323.5381 L71.5264 323.5015 L71.7581 323.3451 L71.9189 323.2228 L72.1391 323.0907 L72.3735 322.7104 L72.3445 322.2424 L71.5358 320.3692 L71.322 319.4058 L71.2598 319.1364 L71.1744 318.7623 L71.4024 318.4103 L71.4727 317.8117 L71.3663 317.2064 L71.3355 316.8741 L71.2528 315.9725 L71.1298 314.3811 L71.1261 313.3794 L71.0241 312.8247 L71.2852 312.3303 L71.2436 311.8772 L71.4267 311.1893 L71.5649 310.9246 L71.6193 310.3001 L71.856 310.0963 L72.2286 309.8522 L72.5086 309.7144 L72.7174 309.7092 L72.9096 309.6773 L73.1119 309.7051 L73.1832 309.8243 L73.2234 310.007 L73.169 310.4782 L73.1646 311.341 L73.043 312.1909 L73.2285 312.5935 L73.2197 312.9015 L73.1173 313.2561 L73.1427 313.5285 L73.1795 313.9305 L73.3994 315.3641 L73.6213 316.616 L73.7537 317.098 L73.8665 317.6652 L73.8608 318.1084 L73.9381 318.4464 L74.0966 318.8046 L74.2411 319.4666 L74.4735 320.5312 L74.6769 321.1272 L74.9498 322.631 L75.0569 323.2409 L75.1109 323.8276 L75.1424 324.1692 L75.2602 324.7972 L75.3102 325.24 L75.4352 325.4846 L75.442 325.964 L75.4318 326.4124 L75.4781 326.7571 L75.3112 327.1224 L75.168 327.4336 L74.9056 327.6116 L74.7249 327.8196 L74.4664 327.9414 L74.2499 328.0126 L74.0635 327.9553 L73.8395 327.6916 L73.6311 327.1426 L73.5892 326.8386 L73.4585 326.7298 L73.3119 326.8041 L73.5021 327.3547 L73.7223 328.1359 L73.9371 328.7546 L74.079 329.0864 L74.0898 329.4533 L73.9327 329.6169 L73.6139 329.7861 L73.2778 329.8733 L73.0204 329.5988 L72.8555 329.4229 L72.7225 329.1881 L72.5181 328.6855 L72.1533 327.8733 L71.4737 326.4191 L70.6887 324.7023 L70.6235 324.0929 M75.7328 333.0432 L77.4555 332.5071 L78.1871 334.1495 L79.1549 336.2878 L80.2264 338.6444 L81.7184 341.8895 L81.819 342.2254 L80.8384 342.6279 L79.7943 343.0969 L78.1949 339.4937 L78.0115 338.9308 L77.7349 338.3137 L77.6595 337.9169 L77.5704 337.6036 L77.4234 337.114 L77.2072 336.8869 L76.9319 336.4184 L76.7299 335.5845 L76.5347 334.9266 L75.7328 333.0432 M77.6011 331.2072 L77.7626 331.0431 L77.8764 330.9162 L78.0237 330.8001 L78.179 330.7717 L78.2979 330.8027 L78.482 330.9864 L78.6374 331.2609 L78.7256 331.6629 L78.8043 332.0143 L78.9347 332.2723 L79.1005 332.2573 L79.3819 332.1335 L79.544 332.0251 L79.6423 331.8811 L79.7798 331.7609 L80.2743 331.7805 L80.4848 331.8961 L80.8202 332.667 L81.413 333.7584 L81.6508 333.8157 L82.1153 334.5742 L82.4074 335.0226 L82.6969 335.0892 L82.8702 335.003 L83.1094 334.6733 L83.3043 334.921 L83.1229 335.1243 L83.1593 335.4189 L83.1418 335.6815 L82.8621 335.824 L82.6415 335.8539 L82.5351 335.9566 L82.6213 336.2889 L82.6172 336.4989 L82.3787 336.8843 L81.6089 337.3565 L80.5 338.0319 L80.3044 337.8266 L80.2905 337.5247 L80.2382 337.1057 L80.2338 336.8033 L80.2318 336.5794 L80.1629 336.3854 L79.9011 336.3678 L79.8433 336.0933 L79.8268 335.8111 L79.7514 335.5474 L78.9749 334.277 L78.3652 333.052 L77.7926 331.891 L77.6855 331.6985 L77.647 331.5225 L77.6011 331.2072 M88.2687 347.4446 L88.725 347.3564 L89.6421 347.3228 L90.5241 347.2134 L91.2189 347.1918 L91.7999 347.3424 L92.1029 347.2537 L92.5109 347.1928 L93.044 347.0788 L93.4733 347.0318 L94.3559 346.8456 L94.3079 346.052 L95.0004 345.7656 L96.5742 345.5504 L98.1047 345.4699 L98.2364 345.4854 L98.361 345.5298 L98.4117 345.6232 L98.4343 345.7186 L98.3742 345.8734 L98.1563 345.9854 L97.6436 346.1134 L97.344 346.1412 L96.9754 346.1753 L96.6488 346.2099 L96.0057 346.2413 L95.2075 346.4034 L94.6447 346.5489 L94.692 346.7589 L95.1132 346.6918 L95.6088 346.6226 L96.0421 346.536 L96.3759 346.5287 L96.7417 346.5649 L97.093 346.5463 L97.2963 346.4808 L97.5493 346.504 L97.6949 346.6727 L97.7297 346.9023 L97.8503 347.101 L97.9334 347.4007 L97.9435 347.5117 L97.8263 347.5504 L97.1727 347.6665 L96.4924 347.6969 L95.5817 347.6969 L94.946 347.6427 L94.64 347.8393 L94.1627 347.8718 L93.8053 347.7723 L92.8045 348.0137 L92.1019 348.0509 L91.4378 348.135 L91.5202 349.428 L88.4548 349.7763 L88.4352 349.3584 L88.4143 348.7268 L88.2687 347.4446 M88.4724 351.1818 L92.9423 350.5694 L95.0518 350.4486 L97.8962 350.2969 L99.9108 350.1483 L101.1106 350.0245 L101.2646 350.2851 L100.9755 351.0337 L100.8836 352.4511 L102.1635 352.4341 L102.8857 352.5228 L103.9602 352.8236 L105.0488 353.1461 L105.2698 353.1724 L107.0195 352.9119 L109.6603 352.5579 L109.8802 352.5796 L109.5086 353.3019 L107.5306 353.5558 L107.1097 353.5295 L105.8244 353.8484 L104.5043 354.0841 L103.6984 353.6678 L102.7837 353.3726 L101.8889 353.289 L101.0224 353.3174 L100.6749 353.3262 L100.2212 353.3448 L99.2589 353.4382 L98.3421 353.5228 L91.2625 354.0924 L88.773 354.355 L88.7031 353.5929 L88.545 352.2746 L88.4724 351.1818 M89.0963 319.5115 L89.1449 319.3345 L89.2777 319.2102 L89.5094 319.1519 L89.7982 319.1622 L90.0728 319.1648 L90.3092 319.059 L90.3717 318.8655 L90.3525 318.5656 L90.4035 318.3143 L90.3863 318.1249 L90.2599 317.9639 L90.165 317.8932 L90.0657 317.7209 L90.0934 317.5181 L90.1728 317.371 L90.4113 317.386 L90.6298 317.4871 L90.8527 317.6388 L91.0355 317.757 L91.1726 317.9356 L91.302 318.2313 L91.3773 318.4433 L91.3628 318.6916 L91.3736 318.9098 L91.5087 319.1163 L91.6459 319.1921 L91.8188 319.204 L91.9789 319.124 L92.159 318.8603 L92.1509 318.6188 L92.034 318.4108 L91.9698 318.2163 L91.9242 317.9221 L91.8951 317.757 L91.8671 317.6523 L91.9029 317.4861 L91.9617 317.2663 L91.9326 317.1011 L91.8191 316.9298 L91.7377 316.8534 L91.657 316.4788 L91.7117 316.2641 L91.6756 316.0252 L91.6242 315.8203 L91.5337 315.5907 L91.577 315.3538 L91.3253 315.1438 L91.2145 314.9492 L91.2067 314.7634 L91.3067 314.4838 L91.4341 314.2531 L91.659 313.9713 L91.931 313.8439 L92.1461 313.7587 L92.4582 313.7159 L92.7092 313.7159 L92.9994 313.8382 L93.1517 313.7778 L93.3871 313.7608 L93.6263 313.7339 L93.8651 313.7025 L94.0171 313.6885 L94.1259 313.7112 L94.1924 313.7747 L94.2113 313.9827 L94.1566 314.1463 L94.1073 314.3186 L94.0543 314.4492 L94.0688 314.6066 L94.0894 314.7815 L94.1894 314.8563 L94.3046 314.8455 L94.4822 314.8574 L94.6231 314.9234 L94.9997 314.9771 L95.3277 315.0586 L95.4196 315.1995 L95.2649 315.843 L95.1808 316.3446 L95.073 316.5877 L95.1115 316.6537 L95.2031 316.7389 L95.173 316.8674 L95.0605 316.9566 L94.8004 317.1114 L94.6042 317.2508 L94.4093 317.4035 L94.086 317.7317 L94.1215 317.8638 L94.1762 318.0032 L94.1644 318.1301 L94.1353 318.2679 L94.1174 318.3768 L94.1975 318.4903 L94.3066 318.513 L94.5045 318.4433 L94.5981 318.2999 L94.6613 318.1776 L94.7244 318.1064 L94.8285 318.0733 L95.0795 318.1249 L95.1484 318.2674 L95.1774 318.3814 L95.1781 318.5909 L95.2284 318.8381 L95.3264 318.9919 L95.475 319.0951 L95.5625 319.1849 L95.5976 319.3165 L95.5361 319.4574 L95.4443 319.5683 L95.3699 319.6684 L95.3196 319.7804 L95.2929 319.8434 L95.275 320.0033 L95.3497 320.1086 L95.5753 320.2882 L95.8229 320.3026 L96.1249 320.3026 L95.9783 320.6793 L95.8324 320.9631 L95.7652 321.2908 L95.8206 321.491 L95.9009 321.6092 L95.882 321.7558 L95.8091 321.8739 L95.726 321.9797 L95.605 322.2331 L95.5145 322.4091 L95.3926 322.649 L95.1835 322.7522 L95.0646 322.9261 L94.9646 322.9494 L94.8045 322.8245 L94.7545 322.7357 L94.6505 322.7171 L94.5623 322.7677 L94.5143 322.8513 L94.4924 322.9695 L94.6528 323.197 L94.9345 323.5345 L95.0818 323.7213 L95.1396 323.8932 L95.0994 324.0134 L94.9372 324.0702 L94.7532 324.0872 L94.6839 324.145 L94.6518 324.2503 L94.6218 324.3793 L94.64 324.5263 L94.7295 324.5883 L94.9065 324.595 L95.0494 324.5821 L95.0261 324.7843 L94.8964 324.8385 L94.8197 324.9154 L94.8129 325.0929 L94.8254 325.2317 L94.868 325.3396 L94.9464 325.3835 L95.0896 325.3752 L95.2331 325.32 L95.2683 325.3958 L95.351 325.5888 L95.473 325.7034 L95.6611 325.8303 L95.8513 326.0785 L95.9675 326.2818 L96.0847 326.5461 L96.0763 326.8077 L96.1198 326.9295 L96.2803 327.0079 L96.4336 327.059 L96.5106 327.1869 L96.6272 327.3443 L96.7518 327.4862 L96.8859 327.5812 L96.9758 327.6472 L97.0356 327.6932 L97.0552 327.8031 L97.015 327.9233 L96.9832 328.0337 L97.018 328.1096 L97.1018 328.1111 L97.2122 328.1478 L97.322 328.2309 L97.3642 328.3387 L97.4504 328.4656 L97.4622 328.5952 L97.42 328.7433 L97.4048 328.7773 L97.3477 328.8666 L97.3409 328.993 L97.3879 329.0493 L97.4551 329.0756 L97.5473 329.0673 L97.6287 329.0926 L97.6554 329.1318 L97.6618 329.201 L97.5753 329.2696 L97.4885 329.2871 L97.4777 329.3718 L97.4727 329.4187 L97.5936 329.4683 L97.6807 329.507 L97.7169 329.5968 L97.652 329.7005 L97.6135 329.7882 L97.6284 329.9497 L97.6632 330.0261 L97.6101 330.1045 L97.2338 330.1391 L96.7751 330.249 L96.6164 330.2624 L96.5204 330.3316 L96.412 330.4162 L96.2867 330.4188 L95.9661 330.4358 L95.8516 330.538 L95.8793 330.6381 L95.9084 330.7516 L95.9178 330.8538 L95.8901 330.86 L94.5758 331.1371 L93.3794 331.3982 L92.8686 331.5091 L92.7014 331.5509 L92.1262 331.6665 L91.5607 331.7821 L91.5388 331.5932 L91.4814 331.3703 L91.4141 331.1943 L91.3229 331.0117 L91.2635 330.7702 L91.2246 330.5504 L91.1919 330.2413 L91.1301 330.0746 L91.0618 329.7361 L91.0223 329.5581 L91.0818 329.4497 L91.1399 329.4213 L91.3236 329.348 L91.5962 329.1788 L91.8617 329.1354 L92.0424 328.9791 L92.0448 328.7505 L92.1316 328.6354 L92.2914 328.5038 L92.5021 328.4703 L92.7112 328.4187 L92.792 328.4393 L92.9173 328.4367 L92.9886 328.4022 L93.0771 328.3057 L93.098 328.1266 L93.0848 327.9832 L92.8659 327.8779 L92.6937 327.7726 L92.593 327.6374 L92.5194 327.4439 L92.4278 327.3077 L92.4427 327.1152 L92.6001 326.8474 L92.8636 326.5533 L92.9879 326.205 L93.1429 326.0858 L93.4554 325.8943 L93.5723 325.7013 L93.5314 325.4072 L93.4871 325.127 L93.5422 324.9681 L93.6435 324.9588 L93.8442 324.9681 L93.9594 324.9572 L94.0252 325.0676 L94.0627 325.1714 L94.1185 325.2225 L94.2721 325.2782 L94.3769 325.1518 L94.3444 325.0011 L94.1195 324.677 L93.9195 324.5232 L93.6111 324.3514 L93.4213 324.3081 L93.0359 324.2601 L92.8511 324.3235 L92.7018 324.5702 L92.6261 325.1827 L92.4238 325.3881 L92.1627 325.4309 L92.0019 325.3478 L91.9857 325.2746 L92.1029 325.0821 L92.3099 324.8071 L92.4042 324.4159 L92.2816 324.2456 L92.0059 324.1264 L91.6452 324.0433 L91.3753 324.0913 L91.1645 324.2229 L90.9784 324.3751 L90.8433 324.5227 L90.7416 324.8819 L90.5734 325.0233 L90.4126 325.145 L90.2322 325.1523 L89.9863 325.0589 L89.782 324.854 L89.7252 324.4907 L89.7208 324.2394 L89.8762 323.9597 L89.9059 323.775 L89.7989 323.5196 L89.6273 322.9153 L89.5597 322.5861 L89.5452 322.3265 L89.5638 322.1247 L89.6425 321.9168 L89.8272 321.7042 L89.8239 321.4152 L89.7083 321.1185 L89.608 320.8341 L89.4749 320.5483 L89.305 320.3171 L89.2111 319.9528 L89.1338 319.7174 L89.0963 319.5115 M93.8979 335.0706 L93.9013 334.7532 L93.9276 334.5319 L94.1296 334.3038 L95.1632 333.8869 L96.4863 333.5035 L99.5453 333.0004 L102.7999 332.2589 L105.8741 331.3976 L108.3713 330.6081 L108.7861 330.8259 L108.9253 331.1768 L108.9216 331.6433 L109.1229 332.5705 L108.9384 332.5876 L108.6155 332.5102 L107.6403 332.2645 L107.3481 332.0999 L107.1016 332.1139 L106.625 332.2867 L103.922 332.7171 L100.9785 333.5706 L98.8745 333.9591 L98.1249 334.247 L98.1955 334.5623 L97.6794 334.7589 L97.7121 334.8116 L97.9513 335.3018 L98.1928 335.7971 L98.1982 335.7956 L98.2746 335.9478 L97.9273 336.2971 L97.4146 336.5309 L97.1062 336.3591 L96.8684 336.148 L96.7214 335.8121 L96.7137 335.4772 L96.486 335.2744 L96.3144 335.3276 L96.1144 335.4251 L95.8979 335.7017 L95.4959 336.181 L95.0095 336.4499 L94.7048 336.5185 L94.3279 335.9653 L94.1154 335.6702 L94.0259 335.3523 L93.8979 335.0706 M97.8304 334.8116 L98.4769 334.536 L99.5673 334.3188 L100.3296 334.1696 L101.1856 333.9271 L102.1152 333.6784 L102.9461 333.569 L104.1726 333.3115 L105.1711 333.005 L105.8491 332.8956 L106.0926 332.8177 L106.2858 332.8977 L106.351 333.1526 L106.4767 333.2573 L106.5493 333.2878 L106.7199 333.2723 L106.7783 333.2016 L106.8158 333.0535 L106.8546 332.8683 L107.1161 332.779 L107.9244 333.0308 L108.4632 333.181 L108.9425 333.5938 L108.6689 334.0572 L108.0112 334.2806 L106.8739 334.698 L105.666 335.0561 L104.4516 335.695 L103.7143 336.1681 L103.1046 336.7141 L102.3483 337.6367 L101.8473 338.1532 L101.7939 338.5309 L101.4163 338.9246 L101.2153 338.9618 L100.9687 339.0082 L100.8346 338.9133 L100.6563 338.743 L100.4516 338.436 L100.0064 337.8384 L99.8415 337.3085 L99.6406 337.0428 L99.7389 336.6934 L100.0108 336.1656 L100.2209 335.7682 L99.8601 335.3823 L99.3595 335.3962 L98.8839 335.5799 L98.2263 335.3002 L97.8304 334.8116 M103.6896 342.6336 L103.7217 342.503 L103.7994 342.26 L103.9348 342.0149 L104.127 341.8807 L104.4121 341.8493 L104.6722 341.7461 L105.0441 341.5335 L105.3299 341.2662 L105.7234 341.0484 L105.9923 340.7904 L106.2777 340.5077 L106.4493 340.3524 L106.7273 340.1914 L106.8948 340.0918 L107.0438 340.0459 L107.2499 340.0128 L107.5282 340.0061 L108.0474 339.745 L108.3017 339.9808 L108.3044 340.3162 L108.2946 340.5041 L108.2676 340.6738 L108.3801 340.8358 L108.4986 340.9643 L108.5165 341.1073 L108.4014 341.2203 L108.1051 341.3828 L107.9548 341.4153 L107.642 341.6026 L107.5772 341.7063 L107.5856 341.9014 L107.5353 342.1625 L107.4556 342.2538 L107.2526 342.2213 L106.9485 342.1981 L106.6972 342.1418 L106.3834 342.1661 L105.9575 342.2848 L105.8423 342.3978 L105.5727 342.5484 L105.2323 342.743 L104.2665 343.2347 L104.0 343.1831 L103.697 342.9174 L103.6896 342.6336 M134.5274 342.1346 L134.5888 341.9886 L134.8094 341.8611 L135.3347 341.761 L136.4146 341.534 L137.0999 341.5056 L137.3107 341.3229 L137.3803 341.1083 L137.0908 340.6444 L136.9939 340.4483 L137.0469 339.5066 L137.2226 338.6331 L137.4472 338.0949 L137.6222 337.9251 L137.8579 337.8616 L138.4822 337.8787 L139.6249 338.1274 L140.5991 338.4664 L141.579 338.9679 L142.1576 339.0964 L142.595 339.2053 L142.9811 339.3142 L143.3304 339.2724 L143.4716 339.2409 L143.6445 339.1501 L143.8354 339.0536 L144.0289 339.0355 L144.1792 339.003 L144.3893 339.0118 L144.5923 338.9468 L144.9764 338.776 L145.2568 338.6945 L145.4348 338.6594 L145.675 338.5392 L145.8503 338.374 L145.8935 338.1372 L145.6861 337.3451 L145.5949 336.9065 L145.5213 336.5077 L145.4331 336.1011 L145.5196 335.9813 L145.5378 335.8771 L145.4007 335.5964 L145.3233 335.2073 L145.224 334.988 L145.1163 334.7744 L145.0811 334.4932 L145.0953 334.2919 L145.1872 334.0783 L145.2517 333.9184 L145.246 333.7558 L145.3098 333.5401 L145.3476 333.3925 L145.4122 333.1861 L145.4101 333.0602 L145.4507 332.9446 L145.5878 332.7181 L145.675 332.4534 L145.7422 332.1211 L145.7857 331.8378 L145.7496 331.44 L145.5942 331.0117 L145.5091 330.6933 L145.3689 330.4317 L145.2446 330.2892 L144.8805 329.8661 L144.4843 329.0658 L144.3181 328.2272 L144.4305 327.2375 L144.8065 326.1683 L145.372 325.1373 L145.9364 324.1956 L146.1354 323.8323 L146.4427 323.2306 L146.8866 322.5979 L147.0318 322.1562 L147.0555 321.8554 L146.7913 321.5581 L146.4708 321.4064 L146.1272 321.3584 L145.7553 320.7495 L145.6729 320.3563 L145.7445 319.8697 L145.9452 319.5719 L146.1712 319.4785 L146.1732 319.4765 L146.4488 319.493 L146.6785 319.5647 L147.0599 319.5673 L147.2963 319.4099 L147.4402 319.2055 L147.6311 319.0063 L148.0307 318.7504 L148.2012 318.6369 L148.4624 318.4919 L148.6194 318.2818 L148.7417 318.2473 L148.9261 318.2302 L149.1717 318.2214 L149.4619 318.1946 L149.6027 318.2612 L149.7118 318.335 L149.7155 318.479 L149.7034 318.8531 L149.6932 319.045 L149.7412 319.2644 L149.7878 319.4697 L149.8034 319.6406 L149.7848 319.8428 L149.7301 320.1086 L149.727 320.4817 L149.6767 320.7939 L149.6101 321.1819 L149.5625 321.6293 L149.5632 321.9415 L149.5902 322.3353 L149.646 323.2481 L149.6291 323.6733 L149.5808 324.82 L149.5402 325.4433 L149.4818 326.0729 L149.4281 326.6044 L149.2254 327.1312 L149.1156 327.5048 L149.1501 327.9816 L149.1845 328.2582 L149.1518 328.508 L149.069 328.7206 L148.9535 328.9316 L148.8045 329.0807 L148.5833 329.2134 L148.3587 329.2335 L148.1127 329.2376 L147.8932 329.2763 L147.6784 329.3145 L147.5459 329.4435 L147.4625 329.5957 L147.4537 329.8063 L147.5226 330.508 L147.6807 331.118 L147.9064 332.5649 L148.0459 333.8384 L148.1286 334.4875 L148.3185 335.4953 L148.54 336.3415 L148.7532 337.0954 L148.8137 337.3508 L148.9194 337.5417 L149.1372 337.6377 L149.2953 337.6888 L149.3791 337.6903 L149.4338 337.8297 L148.9866 338.4767 L148.0942 339.2316 L147.7219 339.6883 L147.623 339.874 L147.653 340.1 L147.6625 340.3039 L147.549 340.5381 L147.4311 340.7213 L147.4294 340.9545 L147.4284 341.099 L147.5456 341.2605 L147.6101 341.4086 L147.5709 341.5381 L147.4828 341.793 L147.2865 342.4401 L145.3115 347.1046 L144.8781 348.4074 L144.6464 348.7175 L144.4579 348.8419 L144.184 348.895 L143.0953 348.9053 L139.3334 348.7805 L138.698 348.7578 L137.7677 348.7454 L136.9679 348.684 L136.0369 348.621 L135.7677 348.6174 L135.6066 348.5859 L135.5316 348.425 L135.4904 348.1262 L135.4576 347.8213 L135.4563 347.5514 L135.4678 347.281 L135.6133 346.4369 L135.3985 345.553 L135.0476 344.3085 L134.6908 343.3069 L134.5784 342.6914 L134.5274 342.1346 M238.0623 182.2225 L238.2899 182.4161 L238.2663 182.3413 L238.1146 181.8983 L238.0842 181.668 L238.7334 181.4966 L238.9962 181.4212 L239.2702 181.2142 L239.5103 181.4021 L239.6664 181.635 L239.9373 181.8012 L240.2369 182.2303 L240.5973 182.3093 L240.7828 182.8142 L240.9341 182.9965 L241.1412 183.2247 L241.5418 183.2856 L241.7526 183.0471 L241.7853 182.7461 L242.0015 182.5674 L242.2501 182.6939 L242.4329 183.013 L242.4308 183.2975 L242.0086 183.3083 L241.6242 183.5252 L241.4333 183.7291 L240.7044 184.3508 L241.0314 184.7473 L243.231 183.9222 L243.2726 183.6584 L244.0904 183.0424 L244.4285 183.282 L244.7788 183.1984 L244.849 183.2572 L246.7737 181.4377 L247.0271 181.5771 L247.3105 182.0594 L247.3821 182.0738 L247.626 182.2008 L247.9766 182.3227 L247.9695 182.4492 L248.008 182.7208 L248.0445 183.2722 L248.0492 183.3171 L248.4468 183.994 L248.5664 184.1009 L248.5738 184.2108 L249.9263 186.513 L250.3056 186.8084 L250.3745 187.2761 L251.5872 189.3408 L251.628 189.3821 L251.6993 189.5319 L252.5161 190.9223 L253.0701 191.3291 L251.9206 193.0525 L252.0081 194.1057 L251.2109 195.1915 L250.8623 195.3639 L250.6714 195.3815 L248.0371 196.8544 L247.3784 196.4285 L247.2902 196.414 L247.0527 196.2178 L245.2696 195.0645 L244.9331 195.0361 L244.1789 194.3587 L242.6639 193.3788 L239.1736 189.3992 L238.0623 182.2225 M244.3255 158.9574 L244.3261 158.9228 L244.3315 158.6678 L244.566 158.5345 L245.0574 158.3677 L245.8435 158.2165 L246.691 158.027 L247.1 157.9242 L247.553 157.7941 L247.9084 157.9154 L248.9514 157.7822 L249.4183 158.0569 L249.7516 158.3476 L250.1067 158.3667 L250.4066 158.2412 L250.7988 158.154 L251.1376 157.997 L251.5014 157.856 L251.8304 157.7936 L252.4647 157.7631 L252.6279 157.8183 L252.788 157.9433 L252.9836 158.3228 L253.292 158.881 L253.2504 159.1413 L253.3133 159.5228 L253.4612 159.7702 L253.5582 159.9664 L253.7027 160.3774 L253.7835 160.7523 L253.7061 161.1277 L253.6314 161.4845 L253.6146 161.8077 L253.7399 162.1645 L253.6784 162.4082 L253.5457 162.5833 L253.3947 162.8115 L253.0376 163.1802 L252.814 163.4291 L252.5391 163.6268 L252.108 163.8483 L251.6098 164.2485 L251.3146 164.5785 L251.0389 164.8181 L250.7052 164.7788 L250.055 164.4282 L249.8692 164.3446 L248.969 163.9403 L247.8445 163.3862 L246.7335 162.6767 L246.4836 162.4335 L246.0505 162.0163 L245.4874 161.4447 L245.1449 160.2917 L245.1311 160.2452 L244.9054 159.86 L244.5862 159.3669 L244.3255 158.9574 M248.8308 286.703 L249.932 287.1571 L254.8468 284.1689 L254.911 284.1482 L255.8365 285.5417 L251.5939 289.3402 L249.4422 287.7352 L248.8308 286.703 M339.2431 188.7115 L343.5918 188.2943 L346.2451 187.9391 L349.8584 186.5027 L353.2794 184.8898 L354.5894 185.7768 L355.4889 185.0762 L356.5083 184.1716 L358.0365 182.8643 L359.0975 181.9251 L360.7455 180.9421 L362.3915 179.9559 L364.2392 178.8623 L364.6648 178.6042 L365.1013 178.3496 L365.7197 178.0352 L366.7888 180.0592 L368.9135 178.7219 L367.7752 175.5827 L366.603 172.495 L369.6195 170.2634 L369.5675 170.1705 L369.9417 169.9918 L369.9556 170.0145 L370.1147 169.8968 L370.3042 169.5808 L370.6541 169.0314 L371.1892 168.6751 L371.2523 168.6653 L371.4739 168.385 L371.7543 168.2507 L372.7676 168.9891 L373.1618 169.1311 L373.3598 168.9803 L374.0407 168.8998 L374.4153 168.7769 L374.8176 168.8569 L375.3443 169.0232 L375.7212 169.3851 L376.0526 169.8121 L376.5258 170.1607 L377.346 170.3842 L377.4922 170.613 L377.5497 170.7111 L382.7897 172.5983 L385.9717 175.7066 L386.5851 175.6864 L387.1343 175.5899 L387.5836 175.5212 L388.0534 175.5759 L388.3561 175.735 L388.6621 175.5207 L389.0195 175.4133 L389.3319 175.7298 L390.5247 177.556 L391.2843 178.6011 L391.2398 178.8943 L392.0582 180.0901 L392.4801 179.8955 L392.83 179.9719 L393.1401 180.2548 L393.3053 180.3328 L393.7106 180.4965 L394.2254 180.5848 L394.7845 180.5481 L395.256 180.3137 L395.7076 180.1139 L396.0329 180.1123 L397.0078 180.9699 L397.5131 181.572 L397.7283 182.0465 L397.7404 182.4884 L397.9164 183.0099 L398.2978 183.4426 L398.8615 183.9852 L399.1233 184.106 L399.4763 184.3585 L400.1009 185.2476 L400.6403 186.1217 L400.6846 186.2528 L400.6643 186.3385 L400.5934 186.4242 L400.4832 186.495 L400.2674 186.5239 L400.8612 187.2591 L400.8879 187.2648 L401.277 187.3551 L401.6327 187.4811 L401.9455 187.653 L402.0114 187.8663 L402.083 188.1384 L402.4542 188.7352 L402.8555 189.2298 L403.3531 189.7952 L403.7479 190.3559 L403.9908 190.692 L404.8241 191.6585 L406.0705 192.9559 L406.5762 193.4598 L406.9974 193.8501 L407.0768 193.955 L406.9856 194.1646 L407.4751 194.7325 L405.2997 197.0248 L402.9183 195.5069 L399.9826 196.0077 L399.9485 196.0356 L399.8796 196.0253 L398.4697 196.2659 L397.9944 196.7372 L397.8259 197.031 L397.3023 197.5122 L396.8362 197.9087 L396.7497 197.9727 L394.2596 200.3858 L392.042 198.6382 L388.2294 195.1362 L383.1792 198.5953 L382.3354 197.919 L380.4992 196.0944 L379.9321 196.5674 L379.2207 196.8451 L378.9001 197.0749 L380.0064 198.3537 L381.067 199.3527 L382.2398 200.361 L380.0807 204.0513 L379.1298 204.9321 L379.1079 205.0957 L379.0015 205.4086 L378.7559 205.7245 L378.4813 205.9269 L378.0046 206.1055 L377.8682 206.0999 L377.7837 206.1783 L377.6081 211.7746 L376.7163 212.6677 L376.5336 212.8122 L376.5427 212.8313 L376.1789 213.1896 L375.0402 214.3703 L374.0897 215.3197 L373.579 215.7342 L372.7551 216.0285 L370.9845 216.0316 L369.7066 215.7802 L369.3465 215.1916 L368.5511 214.0068 L368.0089 213.2134 L367.7316 212.8649 L367.5667 212.7911 L367.461 212.8164 L367.2148 213.2067 L365.509 216.8798 L365.4971 217.2169 L365.1104 218.1993 L365.1371 218.4393 L364.6344 218.9979 L364.1571 219.3722 L364.0078 219.6236 L364.0926 220.2498 L364.1771 220.8202 L364.3338 221.4211 L364.5561 222.4355 L364.7415 223.6636 L364.6642 224.3977 L364.7283 225.5153 L364.752 226.2355 L364.7202 226.7047 L364.5919 227.4434 L364.3639 228.2611 L364.2358 228.7949 L364.2109 230.3126 L364.3645 230.7782 L364.3733 231.4395 L364.2936 232.1462 L364.7841 234.0685 L364.9381 234.4366 L364.9709 235.2073 L364.7851 235.7813 L364.5064 236.4895 L364.3156 237.1038 L364.1467 237.7016 L364.1791 237.955 L365.3171 240.0467 L366.4713 241.3955 L366.9908 242.1548 L367.179 242.4356 L367.5465 243.26 L367.99 243.9976 L368.3474 244.5572 L368.4447 245.0145 L367.9593 245.6551 L368.1886 245.9328 L368.1467 246.3932 L368.4217 246.8108 L368.6578 247.3115 L368.8578 247.4658 L369.2479 247.5139 L369.4833 248.061 L369.9265 248.4915 L370.3893 248.9803 L370.7027 249.2596 L371.0179 249.5058 L371.2861 249.9523 L371.2837 250.1809 L371.124 250.4189 L370.6869 250.7761 L370.166 250.9774 L369.7421 251.1694 L369.2496 251.1214 L368.6716 250.1298 L368.063 249.1553 L367.4043 248.0971 L367.2867 247.6697 L367.3208 247.1768 L366.6463 246.2456 L366.2599 246.034 L365.3803 244.7905 L365.1283 244.1143 L364.8624 243.4396 L364.8601 242.4888 L364.8084 242.0743 L364.6865 241.6515 L364.5665 241.4146 L364.07 240.8535 L363.5353 240.0787 L363.7488 239.4623 L363.7572 239.1449 L363.3188 238.6674 L363.0144 238.2338 L362.9215 237.6691 L362.904 237.2695 L363.284 236.8483 L362.9313 234.6524 L362.603 234.4165 L362.3291 234.162 L362.3625 233.096 L362.7026 232.5431 L362.5628 232.1271 L362.4375 231.7698 L362.3645 231.5298 L362.0423 230.9996 L362.2054 230.3415 L362.4169 229.8516 L362.8205 228.719 L363.0448 228.1161 L363.1583 227.318 L363.3235 226.7295 L363.6903 226.5746 L363.8035 226.2334 L363.4985 224.8164 L363.0654 224.0399 L362.4351 223.9068 L362.0021 223.5402 L361.6717 222.5635 L361.2552 222.0189 L361.0745 221.8212 L360.7624 221.5047 L360.1118 220.893 L359.2863 219.9891 L358.7053 219.1192 L358.2851 218.1275 L357.7541 216.9871 L357.5974 216.1813 L357.3721 215.8008 L357.0789 215.3847 L356.4181 214.7131 L355.873 214.2872 L355.6176 213.6253 L355.3099 212.8985 L354.791 212.2511 L354.4269 210.9047 L353.8767 210.2692 L353.5791 209.3456 L353.5932 208.7121 L353.4767 208.4225 L353.395 208.2387 L353.1879 208.0059 L352.8005 207.5913 L352.4488 207.2392 L352.057 205.8407 L351.9253 205.6182 L351.7236 205.2914 L351.6182 204.7973 L351.5834 204.4137 L351.4682 204.168 L351.1308 203.6254 L351.1267 203.3275 L351.1335 203.0936 L350.7363 202.5051 L349.5243 201.0358 L348.5971 200.3976 L348.033 200.0202 L347.5614 199.6903 L347.4993 199.3135 L347.5834 198.4482 L347.4449 197.5891 L347.2425 197.1864 L346.7953 196.8327 L345.8093 196.3164 L345.6492 196.1399 L345.4195 195.8626 L345.2847 195.6091 L345.1881 195.3102 L345.1946 195.0768 L345.2341 194.6907 L345.2645 194.4749 L345.0311 194.195 L344.5514 193.0958 L343.1401 192.2992 L340.1214 191.2403 L339.9363 190.6429 L339.5299 189.4952 L339.2431 188.7115 M352.8552 262.1818 L357.7125 259.1261 L357.7767 259.1055 L355.8108 260.4526 L356.3411 262.6669 L352.9227 264.4786 L352.8552 262.1818 M353.2842 269.2426 L353.3044 267.7148 L353.4564 267.6684 L358.9117 265.6864 L363.6846 262.987 L363.7454 262.9715 L364.4074 264.3599 L356.4695 268.6078 L357.8206 272.3549 L354.2739 273.031 L353.2842 269.2426 M360.8428 244.8782 L361.1096 244.7466 L361.6518 244.5246 L362.3034 244.2789 L362.6979 244.1168 L362.9084 244.0281 L362.9303 244.3755 L362.884 244.5288 L362.7097 244.759 L362.6408 244.9242 L362.6817 245.1162 L362.7175 245.2571 L362.7087 245.4166 L362.7668 245.5931 L362.959 245.8177 L363.0202 245.9803 L363.061 246.1207 L363.0674 246.2461 L362.9259 246.3241 L362.8212 246.3989 L362.576 246.6172 L362.3108 246.7675 L362.1021 246.6183 L361.9653 246.2348 L361.1627 245.5906 L360.9664 245.1601 L360.8428 244.8782 M376.9224 358.5601 L378.1046 358.1216 L377.5811 350.9703 L381.0434 350.8052 L381.2899 350.8052 L382.381 350.8206 L382.6681 352.6678 L387.9612 351.2592 L390.8391 358.2351 L386.5324 357.7294 L378.5978 361.1141 L378.0911 361.4753 L377.5068 360.0151 L376.9224 358.5601 M415.2441 169.2472 L417.1965 171.2713 L417.7809 170.6259 L422.8443 172.5725 L423.8779 168.0235 L419.4698 162.2301 L419.5509 159.7154 L420.9223 159.7154 L423.378 160.0408 L424.1752 164.8067 L428.3975 165.0545 L431.6199 167.7137 L432.8056 171.0389 L431.2889 174.7514 L432.13 177.7409 L429.2014 178.1126 L430.637 179.739 L430.2384 181.0763 L424.8811 181.0195 L423.5063 178.0455 L415.9805 170.8789 L415.2441 169.2472 M428.0908 120.2316 L428.2421 118.2733 L432.2671 116.4497 L432.9951 120.4878 L438.2899 119.7369 L439.9024 121.2284 L436.9212 122.0448 L434.2445 121.8842 L429.9307 122.3578 L428.0908 120.2316 M435.5849 127.1312 L435.7494 124.7132 L436.9502 123.0348 L439.2863 122.0314 L440.5233 122.0774 L442.1815 122.5251 L443.3495 123.3969 L443.004 125.1574 L442.5598 126.7697 L441.1121 127.4111 L438.4307 127.5593 L436.506 128.0199 L435.5849 127.1312 M458.484 100.193 L460.835 99.031 L462.9799 97.4268 L466.32 95.6273 L467.5569 96.5839 L467.7684 98.8022 L463.1654 101.3117 L461.3896 103.8301 L460.1672 103.3389 L458.484 100.193 M490.0636 103.9902 L491.9592 102.5528 L493.5113 103.4463 L493.6336 104.8904 L492.6858 106.0597 L491.3715 105.4683 L490.0636 103.9902" stroke-dasharray="" fill="none" fill-opacity="1.0" stroke="#ff0000" stroke-opacity="1.0" stroke-width="1.0px" stroke-linecap="butt" stroke-linejoin="miter" stroke-dashoffset="0.0px"/>
</g>
</svg>