<?xml version="1.0" standalone="no"?>
<!DOCTYPE svg PUBLIC "-//W3C//DTD SVG 1.1//EN" "http://www.w3.org/Graphics/SVG/1.1/DTD/svg11.dtd">
<svg width="512px" height="512px" version="1.1" xmlns="http://www.w3.org/2000/svg" xmlns:inkscape="http://www.inkscape.org/namespaces/inkscape">
<g id="layer" inkscape:groupmode="layer" inkscape:label="layer">
<path d="M0.0 346.8026 L0.3114 349.9718 L1.0677 353.0031 L2.2243 355.8966 L3.7814 358.5835 L5.6943 361.0637 L10.4989 365.0595 L16.1932 367.4708 L19.2628 368.0908 L22.3769 368.2975 L30.1176 366.8507 L31.6747 369.1242 L33.5876 371.0533 L35.8565 372.6378 L38.3477 373.7401 L40.9725 374.4291 L43.6862 374.6357 L46.3999 374.3602 L49.0246 373.6023 L51.4714 372.3622 L53.4288 370.7088 L55.0303 368.7798 L56.276 366.5752 L57.1657 364.2328 L57.6106 361.7526 L57.6106 359.2035 L57.2102 356.7233 L56.3649 354.3121 L57.4326 347.0093 L233.7788 373.1201 L229.1966 409.496 L282.7589 416.2475 L287.3855 379.5272 L439.3084 399.8508 L438.7745 412.045 L439.8867 415.2141 L441.4437 418.2455 L443.3567 421.0012 L445.67 423.4814 L448.2502 425.6171 L451.1419 427.4083 L454.2115 428.7862 L457.4145 429.7507 L460.7511 430.233 L463.9986 430.3019 L467.2017 429.8196 L470.3158 428.9929 L473.2519 427.615 L476.0101 425.8927 L478.4569 423.8258 L480.5922 421.3457 L482.3717 418.6588 L483.7508 415.6964 L484.685 412.5962 L485.3078 405.9824 L484.9964 402.5377 L484.1957 399.2308 L482.95 395.9928 L481.2595 393.0304 L479.1687 390.3435 L476.6774 387.9322 L473.9192 385.9343 L470.8941 384.3498 L479.3911 321.4497 L505.0156 315.2493 L512.0 294.8567 L505.7273 273.7751 L491.8919 261.0297 L477.3002 253.1758 L481.5265 183.1794 L484.774 182.9038 L488.0215 182.0771 L491.0911 180.9059 L493.9383 179.2524 L496.563 177.1856 L498.8319 174.7743 L500.7893 172.0874 L502.3019 169.1939 L503.414 166.0248 L503.8144 162.9934 L503.7699 159.8932 L503.1916 156.7929 L502.2129 153.8994 L500.7448 151.1436 L498.9208 148.6634 L496.6965 146.4588 L494.1607 144.6675 L491.4026 143.2897 L485.5748 141.6362 L482.6386 141.2228 L479.7025 141.2917 L476.7664 141.8429 L473.9637 142.7385 L471.2945 144.0475 L468.8477 145.7699 L466.7123 147.7678 L464.8439 150.0413 L463.3313 152.5904 L462.2191 155.3462 L461.5073 158.2397 L461.1959 161.2022 L461.3294 164.1646 L330.9382 149.3524 L331.4721 146.8722 L331.6055 144.3231 L331.3386 141.8429 L330.6713 139.3627 L329.6481 137.0892 L328.2245 134.9535 L326.534 133.0933 L324.5766 131.5087 L322.3967 130.2686 L311.4974 128.9597 L306.4704 123.517 L300.7761 120.4168 L294.4145 118.97 L291.1669 118.9011 L287.9639 119.2456 L262.2949 101.4019 L95.9138 81.6981 L63.5273 81.6981 L42.7074 89.3454 L35.2781 87.6231 L32.1196 87.7609 L29.05 88.3809 L26.1138 89.4143 L23.3111 90.8611 L20.8199 92.7212 L18.551 94.9259 L16.6826 97.4061 L15.17 100.1618 L14.1024 103.1243 L13.5685 106.0179 L13.4351 108.9114 L13.7465 111.805 L14.4583 114.6296 L15.5704 117.3165 L17.0385 119.7967 L18.8625 122.0702 L20.9978 124.0682 L23.4001 125.7216 L26.0249 127.0306 L22.4214 168.6427 L32.7869 171.8119 L31.8971 195.9937 L28.1602 197.1649 L21.2203 200.8163 L15.3035 205.9834 L12.8122 209.0147 L8.9864 215.8352 L7.6962 219.5555 L6.851 223.6203 L9.0308 243.944 L10.7213 247.7332 L16.4602 255.1737 L13.7909 265.37 L14.2358 267.9191 L15.1256 270.3993 L16.4602 272.6728 L18.1507 274.6018 L20.1971 276.2553 L22.4659 277.5643 L24.9572 278.391 L27.5374 278.7355 L24.5123 324.7566 L21.1758 324.8255 L17.8837 325.3767 L14.6807 326.4101 L11.6556 327.8568 L8.8529 329.717 L6.3616 331.9905 L4.2263 334.5395 L2.4468 337.3642 L1.0677 340.4644 L0.1335 343.7024 L0.0 346.8026 M76.8734 229.6829 L82.4788 155.6906 L256.4671 178.219 L242.9431 290.5163 L109.1709 271.7772 L109.2599 267.5746 L103.9659 247.7332 L101.8306 244.4263 L96.5811 238.7081 L76.8734 229.6829 M307.0487 298.1636 L313.3659 209.5659 L343.8839 212.5972 L342.5048 227.4094 L405.5428 233.3343 L404.742 238.5703 L426.7631 240.8438 L425.4284 259.6518 L415.4634 272.7417 L415.5968 296.1656 L403.9858 316.8338 L307.0487 298.1636" stroke-dasharray="" fill="none" fill-opacity="1.0" stroke="#ff0000" stroke-opacity="1.0" stroke-width="1.0px" stroke-linecap="butt" stroke-linejoin="miter" stroke-dashoffset="0.0px"/>
</g>
</svg>