<?xml version="1.0" standalone="no"?>
<!DOCTYPE svg PUBLIC "-//W3C//DTD SVG 1.1//EN" "http://www.w3.org/Graphics/SVG/1.1/DTD/svg11.dtd">
<svg width="512px" height="512px" version="1.1" xmlns="http://www.w3.org/2000/svg" xmlns:inkscape="http://www.inkscape.org/namespaces/inkscape">
<g id="layer" inkscape:groupmode="layer" inkscape:label="layer">
<path d="M28.325 335.1412 L29.2172 336.1617 L30.0151 337.0156 L30.5464 336.1299 L31.1449 335.9089 L32.3632 335.8354 L32.8881 335.7938 L33.7385 335.6363 L33.5814 337.5894 L33.6035 338.1095 L34.2094 339.9627 L34.9995 341.0445 L35.1851 340.7727 L35.1448 340.7485 L35.0142 340.6569 L34.6788 340.0028 L34.5566 339.2784 L34.3071 339.0331 L34.1014 338.7545 L34.069 337.5826 L34.0327 336.7658 L34.3238 336.03 L34.7628 335.4319 L35.7576 334.7991 L37.2754 334.388 L38.3669 333.8868 L39.1408 333.578 L40.0708 333.0178 L39.8194 332.721 L40.3045 332.1987 L41.1412 331.4666 L41.8733 331.5188 L43.285 331.8323 L43.86 331.8323 L44.5136 332.5908 L45.2717 332.6014 L45.9621 332.8172 L48.6185 330.6838 L49.0889 330.7989 L49.2947 330.8163 L49.3938 330.7247 L51.6334 329.1168 L55.3662 328.3915 L58.5681 328.231 L59.1726 328.7663 L59.9288 329.0835 L60.7129 329.1735 L61.3135 328.8685 L61.8747 328.5808 L62.2326 328.3862 L62.5621 328.1735 L63.2054 328.2068 L64.9073 328.7496 L66.1466 329.0592 L66.8738 329.1947 L67.354 329.4741 L67.8863 330.3856 L68.3179 331.6316 L69.4021 332.3009 L69.5695 332.4772 L69.627 332.7763 L69.953 332.6521 L70.0826 332.5318 L70.5668 332.3811 L71.1899 332.2585 L71.8341 332.4992 L72.4018 332.908 L72.6684 333.8013 L72.8898 334.1632 L73.0946 334.3365 L73.2213 334.4781 L73.5817 335.1337 L73.9627 336.4744 L73.8876 337.8166 L73.9578 338.192 L74.1321 338.4063 L75.3175 338.0368 L76.6594 337.2723 L77.0336 337.2018 L77.6061 337.2283 L79.6694 339.1111 L79.8182 339.5176 L79.8246 339.5933 L79.9257 340.0581 L80.1545 340.3457 L81.2151 340.7939 L80.9205 340.9355 L81.1803 341.105 L81.4592 341.0195 L82.2163 341.2678 L83.5362 341.8855 L84.1898 341.9438 L86.4995 343.4101 L88.1769 343.2474 L88.282 343.6963 L88.3698 344.2057 L88.5054 344.0665 L89.2213 344.1482 L90.3055 344.56 L91.2207 354.4532 L91.0273 355.1958 L93.6542 358.8225 L93.0483 359.4152 L92.4959 359.7173 L92.0015 359.4334 L91.2477 358.4841 L90.7346 357.3441 L90.0747 356.3442 L89.4982 355.946 L88.8692 355.6803 L88.4892 355.7128 L88.1459 355.8067 L87.9613 355.8862 L87.4546 355.9301 L87.1904 355.8249 L86.9179 355.6243 L86.0743 355.0891 L85.543 354.8468 L84.7638 354.6894 L84.1456 354.5509 L82.9062 354.242 L79.799 353.3571 L78.2749 353.0725 L76.2288 353.0255 L74.1277 352.342 L73.9185 352.1361 L73.2169 351.3965 L71.0102 350.5941 L70.5751 350.7281 L70.2663 350.8507 L69.7325 350.5767 L69.6265 350.4578 L69.325 350.2913 L68.9312 350.1656 L66.3518 350.2277 L65.6458 349.8091 L64.9809 349.8658 L64.3607 350.317 L64.1143 350.6168 L64.6102 353.9044 L64.074 354.781 L62.9805 355.3949 L62.9657 355.0316 L62.4399 351.8976 L62.324 353.2526 L62.5415 355.7893 L62.3814 355.8302 L61.5256 356.8998 L60.382 357.7915 L59.6096 357.9694 L58.5254 357.4494 L58.1989 357.0784 L58.1095 356.0618 L57.5969 356.2775 L57.1697 356.7923 L56.5839 357.4017 L55.979 358.6302 L55.9196 358.8263 L55.6652 358.9626 L55.429 358.8687 L55.1172 358.7809 L52.5428 358.469 L50.8394 358.12 L50.068 357.9959 L48.9853 357.7847 L48.2517 357.6568 L46.2528 357.6772 L46.2258 357.6984 L45.8604 357.9777 L45.7126 358.0292 L45.5585 358.0042 L45.309 357.759 L45.1116 357.4191 L44.5504 356.4509 L44.0108 355.9248 L43.2182 355.9937 L43.0444 355.8771 L43.0164 355.8582 L42.9771 355.404 L43.2251 355.1913 L44.9555 354.1338 L45.1416 354.0338 L45.3699 353.5948 L45.9095 352.6554 L45.885 352.2133 L45.9051 351.4941 L43.6587 352.7061 L43.2821 352.7591 L43.0557 352.9014 L42.9963 352.9809 L42.8966 353.1133 L42.6973 353.1989 L42.4567 353.3018 L42.1198 353.3442 L41.8974 353.5342 L41.3632 353.7379 L41.0327 353.4593 L40.5991 353.4078 L39.9873 353.8226 L39.6863 353.8824 L39.3465 354.1307 L39.0971 354.0021 L38.5471 354.186 L38.3645 354.2019 L37.9486 354.6046 L35.1713 355.4577 L34.7697 355.3245 L34.1004 355.6924 L34.4515 356.8301 L34.7196 356.6295 L36.8443 356.0936 L37.7369 357.0088 L37.4467 358.799 L37.9825 358.821 L39.6387 357.9013 L40.2746 359.2896 L39.4207 359.7301 L39.7236 360.4243 L40.2382 360.1767 L40.5962 359.9171 L41.6308 359.1215 L42.4085 358.768 L42.5092 358.7218 L42.6133 358.7173 L43.5001 358.681 L44.3181 358.8982 L44.3648 358.9171 L45.7308 359.4735 L45.9051 359.4887 L46.2862 359.5212 L46.4192 359.4781 L46.7674 359.3653 L47.4622 359.2669 L48.5999 359.226 L50.1436 359.2638 L52.6596 359.3327 L53.9908 359.3327 L54.2599 359.3668 L54.3502 359.5303 L54.3974 359.6408 L54.4072 359.7544 L54.3964 359.8505 L54.1524 359.9345 L53.436 360.182 L52.5732 360.4485 L50.8733 360.718 L50.1387 360.9731 L50.4952 361.3675 L50.835 361.2267 L50.8988 361.3955 L51.0201 361.7164 L51.3908 362.9412 L52.3199 363.3666 L52.3366 363.8776 L53.0191 364.2439 L53.2469 364.1259 L53.6211 363.9328 L53.7281 363.8049 L53.8956 363.001 L53.7458 362.1873 L53.6736 361.7959 L53.7419 361.671 L54.1224 361.5196 L54.666 361.4333 L55.8606 361.4416 L56.5775 361.0654 L57.1614 361.6127 L58.0089 361.3796 L60.683 360.643 L62.8847 361.0541 L65.6845 359.7059 L66.9754 359.3479 L68.396 359.8679 L69.324 360.9216 L70.1588 361.9905 L70.4691 362.7489 L70.9007 363.2584 L70.8869 363.649 L71.2572 363.7602 L71.8052 363.7133 L72.2451 363.5491 L72.5834 363.3621 L72.879 363.1388 L73.348 363.0987 L73.8964 363.5248 L76.1807 367.6715 L76.1979 367.8675 L76.1262 367.9531 L75.8203 368.0583 L75.3886 368.5299 L74.3339 369.2883 L73.6539 369.7773 L74.6708 369.52 L75.6342 369.2785 L76.5715 369.1975 L76.8264 369.4125 L78.0426 371.2034 L78.102 371.4351 L78.0471 371.7159 L77.3385 372.1723 L77.2703 372.2965 L77.2909 372.5319 L77.4976 373.1064 L78.6756 373.992 L78.9947 374.0435 L79.1509 374.0299 L79.2972 373.8989 L79.447 373.8066 L79.6777 373.7475 L79.9512 373.7233 L80.1108 373.7491 L81.6767 375.9442 L81.687 376.0615 L81.4921 376.1849 L81.7499 376.2515 L82.4437 376.5535 L82.8232 376.2137 L84.0218 376.2122 L84.9646 375.7693 L85.1811 375.1153 L85.9889 375.0041 L86.9017 374.6862 L87.6805 374.7081 L88.0482 375.4734 L88.2957 375.6096 L88.7425 375.7686 L89.6023 375.6952 L90.1032 375.5725 L90.7793 376.1349 L93.2055 378.6101 L94.6407 379.1423 L95.0861 378.978 L95.1956 378.9371 L95.8457 378.1022 L96.4295 376.9661 L98.7845 375.7519 L99.604 376.2553 L99.7071 377.0592 L94.7546 379.6668 L91.2428 381.516 L90.9438 381.6999 L89.0254 382.5356 L85.926 383.8852 L81.7047 385.723 L80.8464 386.271 L77.4907 387.9817 L76.8823 388.2314 L76.5018 388.3828 L75.9749 388.6652 L75.5261 388.9414 L75.2305 389.164 L74.8534 389.3547 L74.4233 389.3918 L74.1989 389.5295 L73.9495 389.8278 L73.1201 390.2547 L71.4668 390.7126 L71.132 390.9389 L71.0775 391.2205 L68.9538 392.1538 L68.2212 392.3354 L67.7729 392.6117 L67.2102 392.9364 L66.8198 392.9697 L66.2404 393.0991 L65.7886 394.0097 L65.7572 394.0241 L65.9394 394.0241 L66.0008 394.0453 L66.3607 394.1717 L73.348 390.7406 L75.395 389.9905 L76.1551 389.7195 L76.3815 389.2631 L87.0588 384.0366 L87.5768 383.9919 L87.7227 383.9798 L88.4091 383.6316 L91.1927 382.2192 L95.6792 380.42 L96.2817 380.177 L101.408 378.1075 L109.0076 374.4348 L111.2417 373.5727 L114.8326 372.1875 L118.3714 370.4646 L120.7048 369.8636 L122.3286 369.8326 L123.0789 369.7312 L124.8028 369.1831 L125.7481 369.2467 L127.9881 370.5086 L128.1565 370.7848 L128.0765 371.1187 L126.351 372.0671 L121.9559 374.3364 L120.7524 375.0586 L120.5756 375.9465 L120.4283 376.7587 L119.7011 377.5489 L117.1974 378.2733 L114.2694 379.7039 L114.2144 379.7304 L108.8068 382.4145 L102.1278 386.4633 L98.9686 387.9718 L97.6365 388.8165 L99.4955 388.5834 L102.7063 387.252 L108.4478 384.2485 L112.8101 382.0179 L113.2854 382.086 L113.6988 382.2692 L113.9213 382.7589 L114.0131 383.4053 L113.7489 384.1191 L113.2991 384.7753 L112.6814 385.1561 L112.488 385.427 L112.3549 385.9841 L112.431 386.4504 L112.8641 387.2853 L113.0649 387.523 L113.3561 387.9703 L113.39 388.3669 L113.1229 389.0444 L112.4433 390.8118 L111.8266 391.6285 L111.1494 392.1598 L110.4625 393.4186 L109.9189 394.6652 L109.4304 395.2896 L109.285 395.3797 L109.1554 395.4584 L108.764 395.5288 L107.1908 395.301 L105.8478 395.2344 L105.8297 395.3979 L106.6256 395.466 L107.3548 395.4713 L108.0344 395.6113 L107.6244 396.1472 L106.0938 397.2606 L105.0735 398.0031 L104.2535 399.8189 L103.6942 400.8854 L103.0824 401.338 L101.6579 401.7142 L100.7279 402.6118 L99.8107 403.3695 L100.3091 403.6435 L100.0896 403.844 L100.1456 404.0166 L99.848 404.5956 L98.9288 405.9527 L98.5802 406.4946 L98.2684 407.225 L96.8002 409.647 L96.6682 410.3986 L96.3927 411.0071 L96.5105 412.1447 L96.2915 412.4505 L93.0419 413.6198 L91.2934 414.4524 L90.6074 414.7097 L90.0354 414.7112 L89.2925 414.4675 L88.7558 414.4047 L88.0541 414.4539 L87.3014 414.5985 L86.7627 414.7544 L86.3046 414.8142 L85.8249 414.8558 L85.3447 414.9837 L85.4532 415.3296 L84.9548 416.399 L84.2821 418.1943 L83.6811 419.9048 L82.2885 421.5646 L81.4877 421.9377 L81.6389 423.4188 L81.4695 426.5348 L79.5069 428.8681 L78.9883 428.2725 L78.8307 428.498 L79.0276 429.6219 L78.9879 430.3386 L78.8194 430.6686 L78.517 430.8132 L77.8335 432.0173 L77.2943 432.6167 L76.7252 432.5599 L77.1573 432.8975 L76.4699 432.9958 L76.2607 433.8329 L73.6573 433.1623 L73.4113 434.2514 L75.7987 434.7108 L77.8114 434.6321 L79.5579 433.9146 L80.95 433.9358 L81.6286 434.4232 L83.7876 434.7343 L84.7078 435.1316 L85.189 436.0943 L86.6748 435.4835 L85.7041 433.4583 L85.4036 433.101 L85.2862 433.1116 L84.831 433.3084 L84.6611 433.1654 L84.2659 432.6863 L84.2561 432.569 L84.3204 432.4055 L84.4888 432.0748 L84.6047 431.5912 L85.1173 431.0637 L90.3118 428.8484 L90.2917 428.613 L90.0762 428.3951 L89.8027 428.4185 L89.3411 428.5374 L85.3825 430.1025 L84.1367 430.7231 L82.1874 432.3124 L81.576 432.5236 L81.2633 432.5508 L80.8204 432.4305 L80.4943 432.3011 L80.4575 431.8697 L80.7801 429.6703 L80.9063 429.304 L81.1852 428.8855 L82.7756 428.1559 L83.1458 427.8872 L83.0476 427.6587 L82.4957 427.1932 L82.3911 426.8859 L83.7444 422.9398 L84.7333 422.5386 L85.1718 422.1451 L85.3982 421.5729 L85.764 420.7911 L89.1609 418.6424 L89.9726 418.9277 L90.3634 418.8936 L90.6556 418.6318 L90.7528 418.3865 L90.8142 418.1837 L91.0842 418.1209 L92.8892 417.4458 L96.2125 415.7413 L97.6541 414.8535 L98.0072 414.5084 L98.0715 413.909 L98.0155 413.2512 L98.2389 413.0817 L98.4805 413.1975 L101.4316 412.6314 L101.5214 410.0308 L105.6023 409.4472 L107.2615 407.2954 L110.3559 406.8019 L110.8524 409.8484 L111.2864 409.6062 L113.1941 409.5146 L114.1511 409.7235 L115.1179 410.0399 L116.0086 409.89 L116.7996 409.4222 L117.5224 408.1598 L119.298 406.9526 L120.3026 406.8663 L122.9119 406.5325 L124.8249 405.9134 L126.6348 405.1027 L128.8317 403.7502 L132.371 402.4635 L137.3701 401.3418 L141.6317 400.466 L143.7102 400.4691 L147.5967 400.2799 L147.8962 400.3994 L148.2541 401.2048 L148.5591 402.2326 L148.8144 402.683 L149.3506 402.6981 L149.6845 402.3787 L149.5274 401.8103 L149.3408 401.3175 L149.3491 400.9898 L149.5033 400.6855 L150.4957 400.4547 L153.8322 401.4402 L155.3759 401.7437 L156.742 401.6619 L157.8468 401.0579 L158.4601 401.0413 L158.9928 401.3592 L159.0832 401.5696 L159.4598 404.7001 L159.557 405.4191 L158.8018 405.8838 L157.7486 406.6649 L157.7407 406.9934 L160.0544 411.2297 L160.3579 411.8215 L160.4281 412.2151 L160.1924 412.4172 L159.3753 412.1606 L158.9619 411.9782 L158.4601 412.0213 L157.755 412.2272 L157.1353 413.0075 L156.7921 413.2187 L155.7609 413.417 L155.1152 413.4723 L154.0644 413.0174 L152.8079 412.6897 L152.4961 412.4255 L152.2339 411.6444 L152.2005 411.5059 L151.7016 411.5846 L150.862 411.9116 L150.2801 412.2893 L146.4914 413.1968 L144.8489 413.7235 L143.9862 414.1981 L142.9643 414.5046 L141.8286 414.7476 L141.3484 415.0435 L140.6187 416.2333 L139.0911 417.383 L136.968 418.329 L136.1111 420.3703 L138.2765 420.0758 L138.7194 420.038 L139.2262 420.7426 L140.0796 422.385 L140.4994 422.9912 L140.1979 423.6043 L136.9837 425.124 L137.2798 425.6349 L140.7778 424.0758 L142.1267 424.4762 L142.274 432.2307 L140.1464 432.1535 L139.7064 432.5803 L139.126 432.8013 L138.3713 432.9754 L137.8891 432.9141 L137.4541 432.6038 L136.772 432.2731 L136.2039 432.4789 L136.3669 432.6356 L137.9795 433.6513 L138.059 434.3407 L138.7734 435.0446 L140.1621 435.9149 L141.3852 436.117 L142.2514 436.2131 L143.4156 435.8127 L144.5538 434.7857 L145.5344 433.5128 L146.3504 432.6227 L146.674 432.8203 L147.9561 431.0092 L148.7182 429.4887 L149.4881 429.2586 L150.4161 428.3247 L150.9842 428.1945 L151.4836 428.2884 L151.8465 428.7296 L153.1202 430.9471 L153.378 430.8555 L152.7991 429.1595 L151.817 427.8259 L150.3459 425.9883 L150.3921 425.1785 L150.6111 424.2378 L151.0407 422.6499 L152.1391 421.9543 L153.2071 422.1057 L154.9448 421.7129 L157.1323 422.3494 L159.2221 423.1154 L160.3063 423.1638 L162.2974 423.1085 L164.3759 422.7248 L166.9184 422.5258 L168.7834 421.9286 L170.966 421.6683 L173.8664 421.3458 L175.2197 420.6836 L175.9081 420.2091 L179.2304 417.8681 L180.3661 416.611 L182.2654 414.5084 L185.3647 417.5623 L186.0949 419.291 L188.9409 421.5116 L188.9114 421.7947 L189.0008 424.2234 L187.2571 424.6253 L185.8567 425.4752 L184.5938 426.1526 L182.4058 427.2924 L180.1879 424.9401 L179.2427 425.1883 L179.0124 425.3034 L177.5992 426.5824 L172.3541 429.8603 L171.8326 430.1729 L174.3059 433.4515 L177.1966 434.7925 L177.8526 436.1927 L176.541 437.4747 L174.0977 440.4846 L170.8344 441.1104 L169.9702 441.0355 L168.4053 441.4079 L166.9302 442.5105 L166.424 441.9596 L165.5298 440.4694 L165.053 439.1284 L164.6057 437.7426 L163.2868 436.4242 L164.0627 438.2822 L164.2232 440.1591 L164.2748 440.9629 L164.4702 441.5744 L164.5183 442.1374 L164.3862 442.2646 L164.1029 442.1336 L163.8363 442.1662 L163.8235 442.4371 L163.5898 442.6604 L162.1644 442.892 L159.477 443.1591 L155.8169 443.8743 L151.1158 444.6788 L149.7901 445.0625 L149.7135 445.4326 L149.984 446.0637 L150.2364 446.4784 L149.9992 447.0801 L149.765 447.2004 L149.7739 447.4714 L148.6047 447.9671 L148.2036 448.3016 L149.8416 447.628 L150.475 447.9421 L151.27 447.5259 L152.2609 447.488 L152.6974 448.0518 L152.8634 448.3175 L152.5884 448.7647 L150.3567 449.9809 L148.1441 450.472 L146.4835 451.2773 L145.0203 452.6962 L141.5959 454.4815 L137.7821 455.9368 L137.6058 455.9882 L135.0692 453.8995 L134.6881 453.509 L134.5865 453.1147 L134.3557 452.9641 L134.1279 452.8824 L133.7169 452.2997 L133.3177 451.8615 L132.6322 451.7026 L130.4113 451.9296 L129.6036 451.7813 L127.8388 451.4248 L127.2526 451.3295 L126.6614 451.5989 L125.8247 452.7977 L125.3818 454.7986 L125.3076 456.0412 L124.7655 456.8873 L124.4444 457.352 L124.4572 458.0172 L125.2929 458.867 L126.0952 459.7267 L126.6668 460.0393 L126.7095 460.1384 L126.7016 460.3639 L126.4974 460.3685 L125.7957 460.2852 L124.7429 460.3965 L122.9227 460.7718 L120.5368 461.462 L117.902 462.1877 L117.4056 462.2717 L115.6482 461.235 L115.578 460.8921 L116.1348 460.7151 L117.2018 460.4176 L117.2533 460.1407 L115.1144 460.7279 L111.2629 461.879 L108.4954 463.1216 L107.4172 463.7694 L103.2439 465.7112 L101.6187 466.1153 L98.7123 466.8388 L99.7125 467.8513 L106.4911 465.9867 L109.5723 464.097 L111.9822 462.9907 L114.4236 462.1771 L119.1404 463.783 L121.4457 464.0547 L124.4513 462.4511 L126.2926 462.9732 L133.1669 461.44 L139.1599 459.2613 L141.0346 459.0835 L147.3777 456.5763 L160.9751 452.9891 L161.1406 456.7874 L163.8795 455.7809 L163.5898 452.274 L167.9467 449.9022 L171.238 449.517 L175.0508 450.4486 L175.5909 453.7671 L176.2091 458.8965 L174.9644 460.597 L171.7231 462.1476 L170.634 463.5666 L170.8795 464.5155 L170.8707 465.046 L169.7914 466.3302 L161.6036 474.9519 L152.7396 485.5529 L153.1226 485.7602 L151.1163 489.1601 L153.4831 491.3811 L155.9048 489.2729 L156.0865 489.2343 L157.262 487.6921 L158.5671 485.7564 L159.42 484.6388 L160.5837 484.0122 L161.9321 483.1049 L163.1759 482.498 L165.0693 481.826 L166.0621 480.7591 L166.4147 480.6561 L166.7407 480.6645 L166.3759 480.1575 L169.2017 477.0306 L170.3095 475.2281 L171.6612 472.2836 L171.1408 471.517 L173.8321 469.8749 L175.1043 470.061 L175.0149 472.2261 L178.7477 476.7726 L180.808 479.7791 L182.504 481.9948 L184.3773 483.3902 L189.6676 486.044 L194.4929 483.0088 L196.4678 484.349 L194.4983 486.3081 L194.8773 486.6342 L193.4352 488.7424 L193.7573 489.9592 L193.8737 490.7893 L197.1753 490.5691 L201.8779 491.3667 L205.4746 489.9978 L208.8612 486.772 L210.4423 488.1552 L211.8913 483.7693 L213.5456 482.4556 L213.9315 482.7439 L214.617 481.9199 L216.7515 480.7598 L217.6672 480.6402 L218.5128 480.5744 L220.4126 478.3428 L221.948 477.5399 L225.3876 472.2064 L226.1492 471.3339 L226.8327 470.1874 L226.9613 470.3524 L227.3993 468.518 L228.13 467.2671 L229.9276 465.6272 L230.8694 465.1467 L231.765 465.3109 L233.1546 466.5429 L233.9972 467.1748 L236.2559 468.4128 L238.4488 469.8151 L238.9561 470.1708 L240.0029 469.3943 L241.2212 468.4454 L241.6101 468.2743 L242.6304 467.8203 L243.8948 468.9267 L244.1649 468.7292 L244.5405 468.9857 L244.8763 468.801 L245.4096 469.3277 L246.2129 468.123 L247.2799 468.6633 L247.4115 468.1298 L247.4179 465.6734 L248.0238 465.298 L249.7753 465.5485 L250.6449 466.6549 L251.3166 470.8556 L250.9871 470.8957 L251.1978 472.133 L250.9213 472.357 L249.7095 472.7263 L244.3362 472.634 L242.9201 472.6408 L241.7348 472.6801 L242.1433 472.97 L244.8763 474.1876 L245.6006 474.3722 L247.3786 474.4381 L249.3344 473.9969 L249.2028 474.7612 L248.9391 478.1983 L248.6759 478.2248 L247.9384 477.5528 L243.9738 476.0908 L242.9731 476.4071 L241.0763 476.1044 L241.5114 476.4071 L240.326 476.4071 L239.6803 476.6576 L239.3381 477.0261 L237.8891 476.0249 L236.5196 477.4741 L235.5449 478.5933 L235.5056 478.9618 L234.8339 477.9349 L235.0313 478.7514 L235.321 479.5808 L236.0585 479.8449 L236.5987 479.2653 L236.8226 478.5411 L237.6652 477.9221 L239.4304 478.0537 L241.6955 478.7779 L243.7107 479.5808 L245.0011 480.134 L246.2129 481.3463 L246.8188 482.0833 L245.8834 483.8616 L250.6645 484.691 L250.1509 486.2324 L251.5602 486.5086 L253.1143 486.6668 L253.2066 486.4564 L253.6013 486.4163 L254.879 486.9437 L254.1415 489.3402 L254.1547 489.7088 L255.261 489.9592 L256.6305 490.0122 L255.8404 491.3289 L253.6539 491.3024 L251.9682 491.4083 L250.6248 491.54 L248.3071 491.0655 L247.2009 487.2464 L244.4349 486.7455 L244.1452 487.3516 L243.2761 488.7213 L242.7492 488.9581 L241.1951 489.5377 L239.8443 490.2468 L238.4871 490.7492 L234.4504 491.366 L231.5701 491.1942 L229.2716 489.1745 L229.0433 489.3508 L225.1426 492.694 L223.0503 494.4374 L222.2441 494.725 L222.2377 495.1918 L220.4729 496.5093 L219.0701 497.6367 L218.1425 498.6257 L216.5521 500.7445 L215.9207 500.9616 L216.534 501.3369 L215.9108 502.3978 L215.1095 503.8075 L214.1186 505.473 L216.8462 506.126 L216.9783 505.5199 L217.7635 505.7998 L217.8077 504.2033 L218.3478 501.7667 L218.7033 501.0025 L219.9942 498.5531 L221.3769 499.1191 L221.6008 498.5395 L220.9821 498.3026 L221.5218 496.8407 L223.0759 495.8661 L223.5767 496.6303 L224.327 496.986 L224.1821 495.8002 L226.7507 494.1544 L229.5294 495.1419 L230.1746 494.1544 L232.7564 494.8914 L233.8887 492.7976 L236.3252 493.7064 L236.6281 493.1533 L238.8937 494.5358 L237.9583 496.3799 L239.4991 496.8407 L241.3434 492.784 L242.0147 492.7583 L244.3726 492.0076 L246.6376 491.257 L247.6256 491.1912 L247.9546 491.7443 L247.6516 492.9951 L247.3487 494.2202 L245.6237 497.3416 L243.4504 501.4504 L243.0424 502.1224 L243.7534 502.6097 L244.0431 505.1249 L244.7806 506.9689 L244.9254 509.8533 L245.2942 511.0648 L245.1228 511.7889 L245.7553 512.0 L246.4928 510.0902 L247.3884 508.5753 L250.4966 504.4794 L253.6313 499.2909 L253.921 498.9087 L253.9883 498.348 L253.4531 497.8418 L253.1766 498.5266 L252.9625 498.74 L250.4254 501.2234 L248.2732 506.3825 L246.1201 509.3524 L245.9659 507.7279 L245.3954 505.6591 L245.359 502.5151 L247.792 498.0809 L248.0277 497.5452 L247.25 497.4074 L247.3815 497.0775 L248.0533 495.9319 L248.2379 494.4177 L248.6067 494.4964 L249.0677 493.3372 L253.8351 493.1798 L252.8737 495.2342 L253.0843 496.6765 L253.3612 497.045 L254.0521 497.813 L254.2367 496.2747 L256.6865 492.2574 L257.1475 491.4802 L257.997 489.6301 L259.1956 488.3194 L259.3537 487.9774 L259.4853 486.7455 L260.1172 484.4148 L259.8673 484.3096 L257.997 481.1087 L257.6548 479.12 L257.8787 478.4351 L257.6282 476.1831 L260.1172 476.4858 L263.3968 475.8009 L263.6339 474.998 L266.4657 473.76 L267.5322 473.3514 L267.3613 472.127 L267.7561 470.3425 L268.7966 465.97 L265.4119 466.4173 L266.0704 463.6384 L265.899 461.9789 L265.6491 459.7668 L265.4777 457.6199 L265.7409 455.9602 L267.0976 456.2766 L266.4657 458.9238 L268.8756 459.1871 L270.904 459.3052 L270.9566 458.9896 L269.7447 458.8579 L269.9559 457.9619 L271.6808 458.0936 L271.6548 458.8708 L275.0655 458.6604 L276.5803 460.9519 L277.7308 462.9611 L284.1892 472.2284 L281.7571 473.6987 L284.1818 479.8775 L285.375 479.6429 L286.2751 483.5181 L280.9416 485.0822 L279.3624 483.5801 L278.8498 483.7791 L277.2338 484.4072 L277.6085 488.019 L272.2401 489.8737 L270.3713 483.5082 L269.2238 479.6005 L268.3507 480.0613 L269.374 484.6917 L270.0511 487.7542 L270.6885 490.638 L270.9733 491.5006 L274.627 498.9685 L275.7534 502.3161 L279.5971 501.2999 L282.6827 500.5545 L286.2353 496.9754 L288.4243 497.3651 L291.9253 501.6101 L293.4916 499.2644 L297.5377 503.4261 L299.2489 503.1462 L300.5771 504.0005 L302.6168 502.0792 L304.0521 503.6236 L306.4944 501.3021 L310.7089 498.5682 L313.2946 496.9618 L312.2802 494.7393 L311.2471 492.7416 L309.2339 485.5529 L309.1602 485.4243 L306.1787 481.4507 L302.1287 479.6731 L301.5739 478.2959 L300.5943 475.2092 L299.0839 474.1051 L297.8274 471.7622 L296.6028 469.3739 L295.2495 468.0345 L289.6705 463.9343 L292.4163 463.0777 L293.6242 458.1208 L298.9003 457.5169 L300.6753 459.8554 L306.3221 464.8182 L306.9702 465.749 L308.5891 472.2178 L311.8633 478.865 L313.7415 486.1098 L319.0406 493.1866 L319.6779 492.9853 L315.1502 486.1764 L313.6074 480.8105 L309.5825 472.0233 L309.5029 468.8396 L310.8901 466.9924 L308.5248 462.1703 L312.4083 461.8737 L307.0935 451.9485 L310.6357 448.7708 L302.7671 439.2388 L305.9391 434.0017 L306.7493 431.383 L304.2991 426.8723 L305.2173 425.5933 L311.8166 429.4001 L317.4241 424.3218 L322.6339 430.7927 L318.4651 431.1636 L325.8796 435.2277 L335.4889 442.8261 L337.3695 444.4987 L337.944 444.4987 L338.5136 446.1409 L335.4889 450.5606 L330.4166 451.0374 L323.233 445.2328 L321.2836 440.2378 L319.7516 441.0552 L317.6255 445.1571 L324.1266 452.3996 L326.076 453.1866 L330.9371 454.6624 L332.8276 452.3542 L330.9666 456.7965 L337.3499 457.1749 L338.6511 455.404 L339.0046 457.5533 L346.3013 458.416 L346.3798 457.5911 L347.3177 455.3586 L349.0903 453.2093 L353.1363 454.7153 L358.2184 457.4322 L359.3232 460.4441 L360.7914 458.8322 L360.2954 457.3414 L353.6421 453.9586 L353.9514 452.445 L352.9841 453.285 L347.1704 451.2039 L333.569 438.6485 L345.8446 438.4442 L348.3292 441.1763 L347.0034 442.5158 L356.7453 444.9906 L361.5328 444.0521 L356.8141 438.7242 L361.469 433.6914 L356.4998 429.1353 L359.5294 426.7512 L360.595 424.8213 L359.225 424.8213 L369.8802 414.9822 L376.2193 405.8619 L378.0018 407.0123 L379.7056 403.9545 L380.1917 400.3745 L372.9442 399.0423 L365.7114 395.8058 L357.6292 393.903 L354.2269 405.3147 L352.9031 407.7904 L351.3559 407.9494 L350.5908 408.52 L349.8666 408.2105 L348.6896 406.3584 L348.6341 402.882 L349.9319 402.8109 L350.6424 400.0604 L349.6171 399.6516 L349.0279 400.6341 L345.5608 399.0726 L344.1628 399.56 L342.4526 399.6781 L339.6823 399.1922 L339.037 402.8434 L340.8966 405.1936 L333.2125 405.3911 L330.4377 408.4867 L329.7508 411.3894 L328.7447 413.1612 L326.5822 413.5479 L319.3966 413.4685 L316.9552 411.4961 L317.6731 409.1937 L315.6712 406.6559 L312.8154 405.3056 L312.1447 401.8179 L310.596 398.4557 L311.6934 395.8142 L312.7982 393.4889 L319.618 390.5854 L323.7436 390.3455 L327.1641 390.0632 L330.6371 390.0374 L336.3556 388.8097 L340.8985 388.5486 L344.3318 389.3835 L350.0969 389.721 L361.2564 389.5424 L363.1365 388.5176 L367.3721 387.2028 L371.4436 385.6572 L374.87 386.0886 L376.072 386.0159 L376.6151 385.7086 L377.634 385.9637 L378.6303 385.6973 L383.4025 386.8107 L386.9566 387.1642 L388.9968 387.5267 L389.4598 386.7857 L393.0811 387.386 L398.2575 388.5599 L403.6141 390.4363 L405.1397 390.6982 L405.9965 391.0668 L407.1637 391.415 L410.6303 393.6403 L411.3992 392.3165 L409.6433 391.4589 L408.9117 389.5091 L407.6066 388.7333 L405.9557 388.6197 L402.1601 387.7341 L397.2037 386.405 L394.8704 385.0592 L384.1288 383.9738 L382.637 382.8066 L381.7458 381.6371 L380.0233 380.448 L377.5682 380.4495 L376.3269 383.7535 L375.6016 384.4574 L371.6739 383.0844 L370.2485 383.3364 L361.1105 387.3231 L357.6871 388.0695 L344.9608 389.195 L346.5178 388.5668 L350.0085 386.5988 L348.5796 385.9251 L347.3437 384.5225 L355.4962 378.5587 L356.0245 376.9312 L359.993 375.7012 L360.6519 375.8693 L363.8524 372.3555 L365.5558 369.2497 L374.7468 373.139 L396.204 370.9302 L393.4199 369.7418 L394.2119 369.6237 L394.8503 368.1264 L394.1064 367.1477 L391.7887 366.4626 L390.8715 365.1849 L393.1695 361.3622 L390.8126 359.0398 L389.7078 357.7703 L386.9158 357.1905 L385.3931 358.5046 L383.2277 358.1125 L382.4377 357.3487 L382.1917 355.3094 L384.3114 349.3337 L380.9101 348.6827 L380.9626 345.4692 L378.4604 345.3905 L378.8227 348.3935 L374.4826 354.9665 L372.191 354.0301 L372.4547 356.4797 L371.1903 357.7438 L367.0284 354.3457 L366.8177 349.8151 L362.5512 346.4086 L364.1352 344.4775 L368.5299 344.5207 L372.8499 343.6251 L375.4484 341.1807 L377.9772 341.1807 L378.2915 344.2088 L382.7887 344.9423 L385.0396 345.7182 L385.5675 344.5063 L384.1332 344.0619 L382.5565 343.6229 L382.7038 343.2481 L382.6208 341.8136 L382.6945 340.5161 L384.6301 340.6107 L385.536 340.6902 L385.7265 340.1171 L385.4594 338.2496 L385.1741 337.8741 L384.4548 337.8249 L382.5624 337.3336 L381.9948 336.7469 L381.3456 336.8816 L380.4122 336.4388 L380.861 336.0792 L382.199 334.5992 L382.6891 334.9376 L383.4978 334.2585 L385.1255 333.8717 L386.1685 333.4213 L387.0494 333.3221 L387.8247 333.3902 L389.0282 333.4182 L390.7949 333.0019 L390.761 333.6378 L387.1981 335.3971 L387.3199 335.7082 L387.5541 336.1072 L387.9671 336.2896 L389.4716 335.8339 L391.1563 334.8172 L391.9498 333.9497 L392.5238 333.1389 L393.0109 332.9141 L395.7587 333.4856 L396.1942 332.8595 L397.5239 331.8603 L398.6881 331.3054 L400.606 330.8496 L401.2895 330.8731 L405.12 328.3983 L404.9786 328.0107 L405.3056 327.1833 L405.9273 326.6473 L406.7929 326.0916 L407.9635 325.7267 L409.0409 325.3936 L409.9021 325.3444 L410.4791 325.6321 L411.032 326.0765 L410.754 329.1894 L410.6219 330.618 L410.7192 331.3364 L410.8134 332.0185 L412.0199 326.0402 L413.7419 323.0195 L412.6725 322.8658 L403.7609 326.9721 L400.6841 327.8374 L396.9798 328.6292 L388.3098 331.3137 L385.6809 330.9919 L382.2496 330.4264 L382.0458 328.8056 L383.5209 328.2 L384.8319 325.4375 L387.8291 327.3953 L389.3159 326.1454 L390.1551 324.5783 L389.8163 323.1687 L387.3405 320.6401 L383.9422 322.3783 L381.4399 321.8514 L383.3392 318.0078 L382.6861 316.3877 L382.4195 313.8129 L385.839 314.4239 L386.1287 313.607 L382.9149 312.7901 L379.7277 311.1571 L373.8899 311.9392 L370.1748 311.3857 L371.589 307.5527 L363.4871 310.7248 L361.1444 314.9637 L354.8706 318.0472 L351.6534 319.8096 L348.0788 320.4304 L346.6671 315.3354 L343.1376 315.4406 L342.8479 318.8391 L337.3951 316.7314 L334.9719 303.4826 L345.0688 305.3193 L350.5437 301.9124 L348.7323 299.3004 L347.2205 298.8726 L345.8137 297.2456 L344.8788 294.1346 L346.673 292.5197 L345.3236 288.8371 L344.2601 286.8057 L342.5498 287.5879 L340.5946 285.421 L341.8919 283.6939 L342.6063 280.5488 L342.896 276.8532 L340.217 274.4909 L337.533 275.376 L336.5171 273.0735 L334.2378 270.0532 L331.7748 268.3208 L333.9874 266.2598 L335.4757 265.3376 L336.9777 264.7591 L346.1883 261.3677 L349.5941 260.1487 L351.9397 260.6151 L351.9947 262.5467 L348.7215 265.2884 L347.8264 266.3424 L345.4557 267.3168 L345.9296 269.0818 L347.0358 269.7663 L347.8524 268.2648 L349.1958 267.0798 L350.3286 267.1851 L351.619 265.4731 L357.2825 262.3119 L359.4425 260.6787 L360.6892 260.3107 L366.1784 261.2087 L364.3945 264.8409 L364.0783 267.0003 L362.3135 271.0042 L361.5426 274.1509 L365.4743 274.1653 L369.5836 273.7966 L372.957 274.8271 L373.0076 276.1142 L371.5065 276.7994 L371.9803 279.4858 L365.4649 281.0046 L363.7095 280.3292 L360.5748 281.7776 L357.2025 281.9548 L356.1762 283.569 L354.1719 285.19 L354.385 286.0183 L355.5968 285.8079 L357.5457 284.5699 L357.9935 283.6743 L360.1825 282.9997 L361.4975 286.0766 L362.3607 284.8327 L363.6118 285.0159 L365.3692 283.8847 L366.8177 283.8847 L368.3983 284.9652 L369.4516 286.2296 L370.795 285.9396 L372.9275 284.7963 L377.7518 282.6173 L377.3104 281.3067 L379.5367 278.1888 L380.6891 275.3586 L380.1097 270.0956 L381.3751 269.636 L379.4532 264.0686 L380.1819 263.3894 L381.4546 260.4432 L387.1314 261.4291 L393.3688 262.3119 L394.0538 263.3129 L397.2936 263.8134 L398.7951 268.0278 L400.6655 268.66 L399.3598 265.3073 L397.6363 262.6019 L395.3555 261.8516 L392.7374 260.1184 L384.2024 257.3865 L385.704 257.123 L388.6226 257.5213 L388.6805 256.9125 L386.9683 256.3325 L385.6028 255.6283 L382.3488 255.1573 L376.1914 257.5425 L372.0363 257.9627 L367.5189 256.2371 L357.4701 258.5684 L352.444 258.3049 L351.241 258.1997 L347.5931 258.3314 L346.1309 257.9498 L345.3472 258.3701 L344.2733 259.3059 L344.0362 260.0699 L343.252 261.2746 L342.0082 261.7289 L340.4807 261.8084 L340.0063 262.243 L338.2018 263.0199 L336.933 263.3886 L334.5427 263.7862 L334.0404 263.5734 L334.0271 262.8616 L334.3566 262.1476 L335.1859 260.6492 L335.8444 260.4122 L336.4503 260.6098 L337.1353 260.5046 L338.057 258.3708 L340.0721 256.7641 L338.1886 255.8948 L334.0139 253.0236 L333.3156 252.4042 L332.6312 251.7212 L333.2931 250.1129 L334.556 248.9059 L335.6529 248.0896 L341.0964 247.3741 L343.7013 242.2993 L337.2271 240.8174 L344.0494 228.4344 L350.2265 231.3717 L355.4549 233.1497 L358.0362 226.9335 L349.3176 223.6273 L348.2654 220.9247 L355.4775 219.0073 L367.7379 224.271 L374.7757 225.129 L375.0394 223.9302 L366.5152 222.4483 L360.2886 219.4397 L357.7274 216.631 L361.8849 213.5792 L363.6305 214.7409 L367.6078 208.9197 L367.0023 207.2604 L368.7298 203.9238 L370.3212 204.9159 L371.0587 204.2722 L371.1372 203.2347 L373.1254 199.3618 L371.0945 198.9529 L372.5597 189.5069 L370.4262 187.0835 L370.8215 186.161 L372.6918 185.924 L373.5388 183.8466 L375.4671 182.7932 L376.3342 184.1011 L376.0863 189.1283 L374.8877 191.8281 L375.091 195.0459 L375.9016 195.4367 L376.3681 194.9846 L377.7057 194.8513 L379.0231 196.4265 L380.8487 196.5969 L380.1161 195.3049 L380.9533 194.4409 L379.4788 190.1499 L381.601 186.7964 L386.5377 188.6314 L388.9516 181.795 L392.6195 177.5478 L394.7275 176.8745 L395.9246 175.6219 L393.7828 174.4866 L392.8891 175.6499 L389.3979 176.7723 L386.7886 177.5372 L385.5969 176.4731 L384.391 176.5867 L383.4266 178.5869 L381.601 178.5914 L379.7881 175.8271 L377.033 178.5021 L374.5356 181.1301 L372.244 178.5755 L374.8513 176.9949 L375.502 173.1279 L374.0088 172.9386 L373.8428 170.6438 L373.1848 168.7307 L372.7979 166.2336 L372.3339 164.6954 L377.5107 164.5727 L380.5129 161.3735 L382.7539 159.7679 L386.5996 162.0074 L390.0824 162.5225 L395.4498 161.6643 L401.3239 161.7961 L404.8392 162.6792 L405.1446 165.0794 L402.907 166.5638 L402.5785 168.2664 L405.2747 167.2583 L405.8232 171.7677 L406.2553 174.2594 L409.8746 174.2102 L409.5991 172.5008 L407.9675 171.2239 L406.3815 170.1992 L406.0392 167.8975 L411.1277 163.7994 L408.1771 162.599 L405.229 160.0814 L428.2679 156.9761 L439.1146 151.4623 L456.3446 146.577 L462.1927 141.578 L476.015 134.7006 L478.8041 128.1941 L476.3882 126.5732 L475.2539 123.8691 L451.7585 135.5489 L439.8261 137.5849 L434.8466 138.1598 L435.4462 140.4957 L437.4633 148.2592 L429.1714 145.1379 L411.9855 143.661 L431.0127 147.804 L431.0127 154.0602 L424.9977 155.0145 L424.595 156.8019 L395.1827 152.8256 L399.5282 141.8431 L394.4805 138.7831 L399.4811 134.1886 L402.7744 136.114 L403.5993 133.8666 L405.7721 130.2294 L407.4332 127.5443 L405.4795 127.7397 L407.1833 126.2626 L410.866 112.6585 L414.367 109.0832 L415.7158 108.6378 L417.2223 108.3249 L418.6644 108.2098 L418.8667 108.1939 L420.1444 108.0916 L420.6054 108.0856 L424.2675 107.444 L425.0163 111.695 L424.8852 111.7336 L424.0186 111.9866 L423.4539 112.1518 L420.4189 113.0168 L420.3025 114.456 L420.2868 114.6802 L417.9775 114.8105 L416.2889 114.9635 L415.7389 121.8823 L415.7163 122.0178 L415.9167 122.1156 L415.5297 123.3116 L415.405 124.8863 L413.7964 129.6962 L415.3544 135.2013 L420.6825 135.6928 L421.9106 135.8277 L423.1106 136.0609 L424.6451 136.3465 L426.6583 136.8343 L426.1417 133.4735 L428.9258 129.6257 L430.3989 129.5197 L427.0109 134.5567 L428.9759 135.664 L429.8303 136.2957 L431.3191 137.1266 L432.7165 137.8515 L435.9819 137.238 L439.1146 136.6245 L438.6088 133.3675 L436.3894 133.1327 L439.8855 126.9671 L438.6236 122.9223 L444.9676 124.1493 L444.8841 122.1875 L447.845 121.877 L449.4506 128.3987 L455.3184 131.6254 L454.68 128.9364 L453.6538 124.4296 L463.8966 118.2108 L464.3974 115.6278 L461.3334 116.2793 L459.3953 112.754 L458.9863 108.4242 L457.8373 104.7806 L455.9616 104.7276 L455.0729 100.0993 L451.1525 100.9454 L452.4758 106.0555 L449.2837 106.8183 L448.5275 104.4473 L447.7713 102.0839 L445.0363 102.3415 L444.0543 99.3645 L454.7341 97.3419 L455.5344 99.9402 L460.5036 98.1828 L465.1536 96.4784 L465.1683 92.9029 L469.2389 91.8954 L468.0654 89.2061 L473.609 88.2819 L475.4307 90.6682 L479.8794 89.5698 L478.3523 86.3578 L479.3835 86.0699 L479.2312 85.4563 L478.1166 83.0701 L469.0081 86.3502 L467.6283 82.714 L483.675 77.2824 L474.2621 76.1006 L473.0149 73.8583 L471.4338 73.0628 L454.1645 76.1385 L437.4549 87.1229 L433.4089 88.0017 L429.3334 85.6533 L430.615 79.1081 L433.237 78.0248 L434.4499 81.0626 L441.2496 76.1506 L443.9075 78.3112 L461.4611 65.7826 L460.7098 58.9188 L457.6085 59.7348 L453.6892 62.3795 L450.8893 65.6386 L452.6177 67.2523 L442.4928 75.7976 L439.5369 73.3583 L441.0787 70.9416 L439.5811 71.2977 L439.6498 67.0401 L441.5206 67.0401 L441.8545 63.3432 L440.8577 60.3355 L435.1422 59.5401 L431.5676 61.8431 L430.5708 65.2901 L433.0617 64.5174 L436.3727 63.7727 L434.9095 70.5045 L426.7418 77.068 L424.2228 77.4938 L424.1826 74.3075 L423.7853 72.5068 L425.1371 69.1492 L425.3659 67.0401 L424.7968 66.1811 L418.9531 62.0704 L419.1054 60.4113 L421.5428 59.6037 L425.4077 60.7196 L430.3645 62.0477 L431.7198 59.9795 L430.6739 56.8127 L431.6795 55.1225 L433.5798 55.1172 L434.8574 56.9112 L437.1309 56.8127 L451.5866 45.7668 L456.9068 44.0129 L471.5369 39.1906 L472.6221 34.8342 L471.095 33.7053 L470.3766 32.5537 L470.49 30.8293 L469.4397 30.8679 L469.3067 29.339 L470.4954 29.1731 L470.162 24.343 L464.4121 20.3084 L460.371 18.1642 L457.4003 19.3234 L451.6234 18.6847 L452.1429 17.646 L453.3504 16.664 L458.6868 14.1712 L455.7505 8.6022 L453.2315 6.3443 L453.0007 8.2916 L444.0396 6.708 L443.2981 5.5396 L442.8616 4.4129 L440.9103 0.0 L439.9081 0.069 L442.2753 5.7321 L441.8992 6.6027 L428.9258 7.4672 L430.1534 3.8833 L433.294 2.3474 L436.5171 0.7979 L435.4663 0.1993 L429.4758 2.9346 L423.2643 2.9346 L403.1329 10.1418 L401.9215 13.0393 L401.0784 12.7491 L400.059 10.1517 L398.3468 12.0611 L397.0712 14.0545 L395.7154 18.2809 L394.7123 20.3698 L394.3784 20.8032 L394.0656 21.4139 L392.92 23.3103 L392.6696 24.7991 L392.6829 26.8933 L388.8107 28.9011 L386.1503 25.9121 L380.9798 21.0843 L376.4658 11.064 L376.0239 11.3125 L375.7504 11.4663 L375.0419 11.8648 L375.3959 14.1038 L378.5713 21.5752 L385.0936 32.8242 L385.8046 34.1144 L385.8238 35.8873 L374.2454 43.5924 L371.5644 40.7438 L379.495 36.4624 L379.0354 35.8396 L378.5036 35.1191 L372.5126 38.3943 L371.3076 39.0527 L369.129 38.7436 L367.9456 36.1146 L370.3762 34.766 L368.6772 31.243 L373.395 27.8707 L372.8897 27.3017 L367.7114 21.4767 L371.7952 18.6582 L368.1592 18.8431 L367.128 19.7099 L360.7177 25.0984 L356.3167 16.8959 L356.3653 20.9668 L358.732 24.4529 L358.9245 27.5373 L359.1808 31.6445 L360.3995 36.5359 L362.0238 43.0545 L358.2847 47.0828 L362.1613 45.0698 L363.2907 44.2516 L366.4038 48.0397 L366.6984 48.5018 L369.5684 50.2572 L370.6118 50.8959 L373.1946 48.6382 L373.4598 45.0698 L374.925 44.6024 L376.7546 48.9943 L375.4042 53.7445 L372.5514 56.1839 L371.5448 54.6309 L366.6493 58.1082 L368.2255 60.1007 L364.7294 62.8356 L359.7799 57.0476 L361.5328 54.5399 L359.009 56.5021 L357.3493 54.1763 L355.0862 49.7693 L357.613 47.4351 L356.6216 44.9403 L352.7194 47.6904 L349.7384 45.2062 L349.2739 44.2175 L345.8102 36.842 L349.518 33.8212 L347.9511 32.0302 L346.4481 32.1575 L347.2794 29.9194 L346.7358 28.7359 L346.9303 24.421 L345.7764 29.5352 L345.0408 29.439 L342.514 26.4008 L342.5965 24.3044 L341.2579 24.4839 L340.4993 26.6569 L343.3846 30.7884 L343.8707 32.19 L341.1897 37.0162 L340.6059 37.2958 L337.6131 38.7618 L336.9423 38.4027 L335.9377 36.6192 L335.2051 34.3705 L330.8777 37.5731 L328.288 40.4869 L325.9876 38.4936 L321.1181 42.8765 L323.7927 46.3691 L320.9134 49.4185 L319.3288 51.0201 L318.8687 50.611 L316.637 53.9505 L315.1207 52.4512 L314.422 50.1852 L315.5465 47.3404 L316.6198 44.2735 L317.5061 41.956 L318.5456 39.5028 L318.8349 38.8209 L318.4258 38.3951 L316.4328 42.5015 L315.7851 46.1646 L314.8821 46.7093 L314.7456 43.0462 L316.2452 39.7414 L317.1821 36.7768 L318.2446 32.6151 L317.1349 29.8875 L316.3645 30.3194 L316.722 34.2379 L316.0404 36.6063 L313.8598 39.9286 L312.974 45.2781 L313.2126 46.982 L312.3946 49.6064 L312.5988 55.6036 L312.0877 57.2393 L312.1751 60.0401 L311.9384 66.7379 L313.2603 70.4038 L310.4413 71.4371 L310.3583 75.0931 L306.6349 78.3657 L308.49 79.4983 L310.9338 78.5203 L312.9357 78.4256 L313.1733 83.2261 L313.9703 83.2034 L313.5981 78.293 L314.8909 74.5098 L317.7467 83.1602 L315.5789 84.6534 L316.3979 85.6912 L317.9721 84.9836 L320.8004 89.4682 L322.7193 102.3187 L324.8126 104.0171 L322.6467 105.8449 L322.7419 107.7803 L313.6305 108.8446 L309.991 103.8883 L306.4689 109.1892 L305.5708 110.1096 L304.7302 110.9708 L303.3607 109.8157 L302.9753 107.7432 L301.7089 106.4448 L308.35 101.3188 L310.459 98.329 L314.5197 98.3517 L311.1096 96.0155 L306.1699 97.4858 L303.7835 96.2056 L302.0551 94.986 L295.77 91.1378 L295.0737 90.8 L294.538 90.5394 L293.4072 90.9431 L292.735 91.1833 L290.0987 90.9333 L288.5937 90.1629 L288.0138 88.7615 L287.2193 85.2177 L286.3801 86.5245 L285.9205 85.5223 L284.393 82.1913 L283.9687 81.3967 L283.7389 85.3223 L282.7849 86.1396 L282.5929 87.6365 L283.0294 87.8146 L283.4379 88.0668 L283.6039 88.238 L283.7271 88.4978 L283.8278 89.2826 L283.7772 89.8773 L283.3662 91.0969 L283.0377 91.7635 L282.7966 92.1113 L282.4357 92.165 L282.2693 92.0787 L281.903 92.1825 L281.8617 92.3741 L281.7026 92.7059 L281.5156 92.8809 L281.2489 92.8029 L280.8979 92.5983 L280.7034 92.1544 L280.3646 91.909 L279.7562 91.5416 L277.4042 90.3538 L276.7649 90.1341 L275.531 89.8781 L274.6712 89.6046 L272.8294 89.1584 L272.7218 89.1243 L272.63 89.0766 L272.5539 89.0039 L271.5198 90.7083 L274.0201 91.2121 L271.0175 96.5723 L270.5908 96.9223 L270.6851 97.4684 L268.5933 101.9915 L266.8673 101.887 L265.8087 108.2234 L265.2607 108.5067 L264.454 108.3227 L263.6236 107.6682 L263.3266 107.3304 L261.1518 106.4198 L261.0271 106.2721 L260.1055 105.1745 L260.0205 102.7899 L260.8891 101.7673 L260.5994 97.576 L261.605 97.0139 L263.249 94.5414 L261.0703 94.2459 L259.721 95.9807 L259.2771 99.4667 L259.2349 99.7963 L258.4615 102.2627 L258.6083 104.7837 L259.0183 106.591 L259.2123 106.8812 L260.0883 108.1909 L261.2328 108.5908 L261.5245 108.6931 L262.8287 108.8703 L264.0695 110.0513 L264.8767 110.3762 L265.9972 113.0994 L262.5434 112.9236 L259.8452 113.4296 L258.8263 115.8907 L258.5735 116.5012 L258.9486 119.8068 L258.3775 119.828 L258.2307 119.6841 L256.7969 118.2782 L256.4267 117.9154 L253.9902 115.1044 L252.9905 112.6025 L249.9722 107.6743 L249.9864 104.9836 L247.3118 95.6814 L245.8461 91.0219 L245.4351 88.0024 L245.3409 87.31 L244.0878 86.7919 L242.871 84.8882 L242.6093 84.2511 L243.5457 82.183 L244.401 81.4671 L244.8047 80.2748 L246.5601 80.4581 L244.705 79.2172 L243.8717 80.7512 L242.4207 78.4869 L241.2595 77.6392 L239.9037 77.1976 L239.3921 79.2892 L240.356 82.4338 L242.1266 82.88 L242.0908 85.1897 L241.9675 85.4783 L243.9915 87.3578 L244.1516 89.8811 L245.8805 95.6814 L246.2384 99.2084 L247.7547 102.2581 L248.1132 106.1668 L248.8281 112.1912 L249.2538 112.4123 L250.3783 111.339 L253.0745 115.6953 L252.6615 121.7149 L253.2066 121.8853 L253.8032 121.4081 L253.9902 117.3019 L259.0856 121.9754 L265.5465 130.3938 L266.8069 131.2247 L269.9058 132.8714 L274.4856 132.6441 L272.0889 129.5757 L270.1582 129.0198 L269.6696 127.9745 L270.3924 119.7258 L273.7667 117.4496 L276.3937 118.6767 L277.3949 114.3189 L273.9042 112.5404 L274.8455 108.1007 L276.9368 104.898 L277.8093 102.9922 L281.4478 104.8238 L280.3199 106.8153 L280.6042 113.3047 L281.275 114.0652 L276.0603 128.4744 L279.7773 131.1709 L278.864 134.7839 L276.0416 137.6856 L275.1558 139.6966 L273.9577 139.1164 L271.1029 137.3789 L271.0008 136.0299 L266.8924 137.5902 L256.0054 139.6625 L250.86 139.3777 L245.5098 137.3796 L241.1141 137.0388 L239.1721 132.6426 L238.388 135.1982 L236.2874 134.9202 L232.5615 135.7436 L232.3567 133.6977 L229.4602 132.9494 L228.8042 131.0459 L225.3424 132.2541 L224.2155 125.8915 L223.2998 127.77 L223.6238 131.8829 L225.0282 133.7008 L229.0055 136.1829 L232.9361 137.8561 L234.8104 137.6515 L249.2848 140.6161 L249.4468 142.2749 L249.6088 143.9261 L250.2167 147.0777 L251.2439 151.3494 L243.0163 148.463 L239.7299 152.5878 L235.8803 155.1773 L235.0023 163.2139 L235.6446 171.4125 L238.3202 175.7362 L244.9029 180.9483 L244.1187 184.22 L242.4296 183.0719 L239.1186 181.8488 L231.8996 179.8804 L231.492 179.8199 L227.4047 179.2094 L224.7778 178.2627 L222.2573 177.9727 L217.1747 177.569 L216.2487 176.8541 L216.1077 176.2535 L214.8193 170.768 L210.3515 171.2451 L206.0648 167.2917 L206.6639 169.0185 L205.8321 169.6137 L204.032 171.008 L205.9445 173.2854 L206.2347 175.5916 L207.5035 176.3868 L208.4321 176.5701 L210.8513 176.9859 L211.4258 177.4743 L211.8118 178.2582 L211.5609 179.8494 L211.9424 179.888 L214.0184 180.0978 L219.0892 181.6556 L221.5174 182.0835 L221.8066 179.9425 L223.2281 179.8691 L224.954 180.8158 L229.1135 181.7049 L231.8348 182.3766 L231.6982 183.1749 L232.4623 183.3884 L233.5455 182.5758 L236.2422 183.5301 L239.5831 184.0072 L240.2951 184.6009 L240.5111 185.128 L243.0434 185.7831 L242.705 187.6265 L246.2846 188.7935 L246.1928 189.4509 L248.8507 190.443 L249.1257 190.1226 L251.1457 191.6251 L252.4244 192.49 L254.7611 194.7809 L256.4871 196.2781 L258.4458 197.3171 L260.7271 198.8461 L263.0182 201.8625 L263.9728 202.2252 L264.1446 203.1415 L264.8129 203.6762 L264.8728 204.9 L258.0063 204.0374 L257.3857 202.0548 L256.3476 201.9859 L254.9895 205.2695 L249.8789 206.4759 L247.8667 206.9454 L248.2099 209.1378 L246.1663 210.4683 L243.0684 213.2059 L234.2722 215.3755 L231.6482 217.2785 L225.6974 219.0868 L223.0238 215.5057 L222.003 211.5043 L220.8245 210.0245 L220.606 210.1215 L218.8477 207.761 L222.2878 206.0291 L220.7224 202.5925 L221.6701 202.1071 L229.17 200.3251 L228.9043 200.1305 L225.2511 200.5576 L223.4058 200.8749 L221.3411 201.474 L219.9927 202.098 L216.0228 204.5145 L215.2804 203.7958 L214.6573 201.914 L213.0109 199.8094 L211.3797 198.3508 L210.3598 196.6249 L207.8546 191.5434 L206.6241 189.6046 L204.5378 187.4334 L203.377 186.6465 L202.908 185.9384 L202.8314 185.0031 L202.9056 183.6119 L202.6787 183.6043 L203.539 180.6719 L202.5692 181.0467 L201.9825 180.9036 L201.0078 178.9118 L199.5293 177.1676 L197.4916 175.4409 L195.1715 172.5818 L193.8781 170.93 L193.5727 170.4658 L193.0596 170.3067 L190.4267 166.8342 L188.9605 163.7843 L188.2397 162.2081 L187.5311 162.1589 L187.2748 161.5273 L186.4067 161.965 L184.0424 159.9875 L179.1037 153.8133 L177.2889 151.5441 L176.269 149.3491 L171.4089 149.7952 L166.5988 150.236 L165.2902 148.6243 L167.4345 147.0034 L166.123 145.6689 L165.8328 145.6992 L164.7614 144.4131 L165.5426 144.3245 L162.2945 142.1295 L156.9335 136.0814 L153.8101 133.5038 L152.9881 131.8662 L148.2615 128.6244 L144.7296 125.8089 L144.8013 124.4008 L143.9366 123.6638 L140.5269 121.2892 L138.5466 120.1969 L135.0593 117.3056 L130.9888 114.6636 L130.2861 114.6787 L133.0162 116.733 L136.3193 119.8833 L137.8847 121.9838 L137.4879 124.5394 L135.9162 125.4075 L136.5707 126.5997 L142.2209 131.4133 L143.0719 133.322 L140.2892 133.7129 L143.1077 138.3741 L145.8358 137.4826 L150.6243 143.3224 L159.1794 142.2726 L161.5678 150.72 L163.2731 150.5057 L164.8139 154.863 L166.6744 155.2266 L167.489 155.703 L175.0847 157.2314 L178.3195 157.4851 L179.7425 158.7817 L181.1861 162.2521 L182.5468 163.5411 L184.2162 165.8829 L184.7564 168.2505 L185.7919 171.0482 L173.9082 172.9037 L171.9991 171.9252 L169.4693 172.7371 L166.6533 173.9065 L164.5434 174.4101 L161.9041 167.8445 L160.7738 163.0897 L155.1795 163.3874 L150.7166 160.189 L149.929 159.6883 L148.8792 160.0701 L147.3757 161.0963 L148.3538 162.6474 L150.9057 164.0955 L153.7678 164.4742 L156.1066 165.1665 L158.8558 167.0978 L159.0051 169.1926 L159.0704 170.1537 L160.9545 172.0631 L159.4961 173.9943 L157.6641 175.378 L162.5189 174.7418 L163.0713 175.8589 L163.9419 176.2717 L164.3391 176.8367 L168.4018 176.8367 L170.6483 177.2282 L172.987 178.3976 L173.915 178.2559 L177.7598 177.872 L181.3339 177.1449 L184.668 179.7116 L196.0455 180.3788 L196.5183 182.4365 L199.8558 182.3138 L200.4073 186.077 L201.568 189.0707 L202.7259 190.4066 L189.5163 192.3242 L189.482 190.477 L186.3841 189.9477 L184.0689 190.4778 L182.3415 190.9526 L178.3637 192.047 L178.2645 191.7357 L177.1067 192.1015 L173.1692 193.345 L170.1793 195.4435 L170.7352 197.5579 L170.6915 199.4103 L170.4656 199.7746 L171.1835 201.0113 L171.5807 201.8367 L171.7639 203.4096 L172.8633 207.7163 L174.0064 210.2654 L175.1534 211.5747 L180.5812 218.1569 L180.7909 219.8183 L178.8449 220.2765 L171.4 221.7448 L167.1689 223.7288 L165.3354 224.2104 L159.6528 235.5675 L155.7982 236.3717 L152.6218 237.1327 L151.1345 236.5073 L151.3589 237.659 L151.2813 241.3542 L147.4253 242.3659 L146.3878 242.8399 L145.1023 243.8076 L146.0828 247.2014 L148.481 252.4398 L147.1979 253.5649 L150.7338 257.575 L151.3481 257.3933 L151.7645 257.2699 L152.7382 258.1285 L153.8646 257.2509 L153.101 256.8307 L153.731 255.8759 L156.3506 255.1543 L158.0029 254.5735 L158.3206 253.7187 L159.066 252.8017 L160.6451 252.592 L161.0841 253.3597 L163.0232 252.9145 L167.3903 252.389 L169.8484 251.2911 L173.7741 250.7913 L178.651 248.9165 L180.7275 243.8023 L181.2274 241.954 L181.8176 239.0447 L181.9399 238.1376 L182.0872 237.0434 L183.1713 235.2412 L184.1794 233.8971 L186.6699 232.6249 L186.0188 240.675 L182.8291 240.6675 L182.3621 243.6297 L184.7976 243.3722 L184.5251 244.9525 L184.693 245.9301 L184.064 249.4102 L180.8704 249.3814 L179.4292 249.0536 L179.2274 251.8166 L178.6068 252.6518 L178.814 257.182 L174.2686 258.5488 L172.5313 259.4528 L172.1027 256.9087 L171.2728 257.1359 L171.6446 260.1161 L170.7661 260.3266 L169.926 260.0593 L168.0743 259.047 L166.5944 258.4367 L165.8397 257.7522 L164.4511 256.2946 L164.7079 257.9566 L162.4108 258.152 L161.1853 257.656 L157.8532 256.674 L157.34 256.0258 L156.1424 256.6285 L157.7677 257.1381 L161.9444 258.9523 L162.6043 258.9372 L165.2647 258.8736 L168.1401 260.2592 L168.859 260.7249 L169.3019 261.3965 L168.3301 261.6971 L166.3297 260.9937 L163.5225 260.7408 L164.1648 262.2673 L160.5715 261.7562 L159.7431 261.7486 L160.5209 262.1908 L164.0901 262.9207 L164.4673 264.8848 L166.9621 267.3062 L166.7603 269.8821 L166.207 271.0087 L162.4089 269.9987 L158.9963 269.4021 L157.7039 269.3665 L158.0947 269.8427 L162.3843 270.5174 L166.0577 272.0021 L165.467 273.0584 L162.4585 274.4485 L159.6479 274.0207 L158.6835 274.6408 L158.9761 275.7311 L159.7092 276.8312 L160.5646 277.6406 L162.4766 277.9647 L164.8301 279.451 L166.2128 278.8384 L167.7679 280.5382 L168.4706 280.8592 L169.2798 281.8064 L171.2301 281.9828 L171.4943 283.1352 L169.6466 284.2648 L171.3003 284.252 L172.9983 282.98 L174.5195 281.5967 L180.1653 287.9816 L180.891 288.7447 L185.0137 287.6393 L186.1779 290.3892 L187.5984 292.36 L190.1679 295.1954 L191.722 296.911 L192.0736 296.7277 L192.8332 297.6847 L198.9322 300.9266 L198.1692 301.6739 L202.6429 303.7294 L203.2189 303.0684 L207.1436 304.516 L212.3107 305.4714 L211.6222 308.2726 L201.6991 308.5709 L201.3436 308.7133 L201.6279 309.2621 L201.6073 309.5264 L200.4775 309.4431 L199.7596 309.4749 L199.848 309.0789 L199.165 308.9442 L198.2713 308.767 L197.0344 309.303 L195.223 309.1713 L196.1422 306.2119 L184.9248 304.7408 L181.9045 301.8624 L180.7977 301.6459 L179.827 301.798 L179.7381 300.6934 L179.2947 299.7213 L178.9029 298.5319 L178.6942 298.2018 L178.4762 297.7892 L178.0529 296.9147 L178.4452 296.8254 L178.703 296.4711 L179.359 296.3923 L183.7669 298.3124 L184.7956 298.0754 L184.6714 297.001 L182.4107 296.1538 L180.5797 295.5656 L179.3595 295.5754 L178.7325 295.153 L178.1879 294.9516 L177.339 294.4935 L176.5185 292.1533 L175.8885 291.1917 L174.491 290.4543 L171.3283 287.5985 L172.9865 287.3047 L173.4294 286.0251 L173.9303 286.1947 L174.3378 285.8639 L171.1373 284.6623 L169.1408 284.6169 L169.3716 285.2847 L168.8762 285.8684 L169.0033 286.3386 L164.8439 285.2271 L164.234 285.7314 L166.8035 286.777 L168.9739 287.6598 L171.6583 290.4679 L174.109 292.7832 L174.6162 293.7069 L175.3591 295.0583 L176.3166 296.0244 L176.049 297.3902 L176.3746 297.8778 L177.5314 298.5622 L178.3681 299.3367 L178.7683 300.2059 L177.582 301.477 L179.0251 303.0601 L179.6315 303.902 L180.2885 303.5053 L181.0624 303.447 L181.9924 303.5689 L182.8517 305.8636 L183.4601 306.6699 L183.0761 306.9811 L182.3567 307.1681 L182.5197 307.4505 L182.9406 307.2688 L183.7395 307.1976 L184.2432 307.5807 L184.8762 308.6754 L185.4875 309.0963 L186.0978 309.5165 L187.2655 310.0768 L188.6757 310.5416 L193.5388 311.3903 L193.5049 312.2761 L198.9926 311.8445 L202.0163 310.7642 L203.2356 310.5234 L204.0723 310.6219 L205.9269 310.5075 L207.807 310.774 L210.624 310.8732 L210.6372 311.1821 L210.6446 311.3555 L210.6481 311.4357 L210.6598 312.2746 L202.6836 314.9591 L200.0174 314.2596 L199.6997 313.5737 L193.5113 312.8514 L193.9071 313.8659 L193.9356 314.9039 L192.9663 315.3066 L192.8774 315.3134 L188.55 315.645 L188.0074 315.8335 L187.8346 316.9653 L188.6733 317.5884 L197.2343 317.2023 L199.0373 319.4614 L196.9598 320.8975 L195.4175 323.4329 L189.3548 329.5415 L188.3286 330.568 L187.1781 332.5969 L182.1588 329.2326 L180.4025 328.1061 L177.4725 324.7153 L176.4124 324.1354 L175.7795 321.8976 L174.1807 319.31 L171.6362 320.8044 L171.431 320.5697 L167.2622 322.8636 L166.6229 322.8825 L166.2443 323.0597 L165.053 321.7462 L163.388 317.0872 L163.5927 316.2567 L163.6905 315.67 L161.6758 312.6909 L164.0813 311.0148 L164.3411 309.5794 L167.3461 306.1664 L164.0052 302.805 L162.9613 300.2573 L162.3883 299.0808 L161.4975 296.5975 L160.7492 296.7194 L159.9395 296.5672 L159.7868 294.1998 L159.4308 292.871 L160.1983 290.6852 L157.7721 287.9899 L157.6445 288.0671 L158.1021 288.5221 L158.3574 289.3542 L158.4557 289.8653 L158.3442 290.3937 L157.7186 291.2061 L153.5901 292.4841 L148.3283 293.3336 L147.8613 293.2163 L147.5981 292.8241 L147.2038 291.8996 L147.1631 291.1039 L148.1073 290.1954 L152.3291 289.2921 L154.6502 287.7794 L154.9601 287.1707 L154.6738 286.5968 L154.1337 285.9684 L152.2594 285.7912 L150.0621 285.346 L149.2814 284.5737 L148.5291 284.3792 L148.0734 284.0165 L147.2637 283.6886 L146.9338 283.1768 L146.5714 282.2857 L146.1467 281.7822 L145.1131 282.7596 L144.1079 282.5598 L143.4107 282.506 L143.0503 282.4591 L141.1451 282.4931 L139.7383 279.4305 L140.7778 278.2819 L141.4839 277.0342 L141.261 276.483 L141.4898 275.8621 L139.4393 270.2448 L139.045 270.3258 L137.2714 268.124 L136.0262 265.4815 L136.2295 265.2528 L134.2865 261.0013 L135.6996 260.5636 L136.5894 261.0581 L138.2417 262.9358 L140.0953 263.5575 L138.7955 261.9076 L137.1143 260.653 L136.0119 259.7633 L133.845 259.1893 L132.3258 257.7159 L132.0454 257.182 L131.714 256.2219 L130.7884 255.1725 L128.8238 253.4892 L128.3176 253.228 L128.872 255.5473 L129.1091 255.4276 L129.8511 256.9011 L129.6139 257.0208 L130.1727 257.8946 L130.5591 260.232 L130.0101 262.0409 L131.0806 265.695 L130.4894 268.6797 L129.8373 270.1963 L128.7998 270.9156 L128.4948 275.666 L123.9264 277.6618 L120.5064 286.6854 L118.2747 286.6596 L116.2247 287.3501 L114.208 283.326 L116.5473 282.2599 L117.0005 281.8556 L116.8085 276.9683 L114.6475 276.9531 L113.2726 276.4572 L113.3104 277.7216 L112.0657 278.5878 L110.8558 277.1371 L108.8082 269.3279 L105.2591 267.6189 L100.1903 267.8378 L98.9313 267.8923 L97.906 269.9063 L97.3752 271.622 L97.6202 274.2774 L98.0533 277.7587 L98.4712 280.4602 L98.0145 283.1428 L100.9852 283.8401 L101.8671 284.3481 L104.5889 285.9161 L106.1685 288.0618 L110.1472 293.4676 L113.7479 295.2203 L116.9342 297.4606 L119.7036 302.5483 L119.7036 303.7067 L120.1946 304.0473 L119.4777 310.2827 L115.6914 312.4888 L106.7862 312.1019 L101.6393 310.0268 L100.4682 308.3234 L99.8328 308.7345 L99.8367 305.6539 L99.5171 303.4447 L98.7928 298.4358 L98.618 297.2267 L97.6139 296.2538 L97.1764 295.7965 L95.1362 294.81 L94.5288 289.8365 L90.6295 290.0924 L88.5555 286.7262 L88.0276 285.8699 L85.1242 279.8689 L84.8143 278.3546 L82.451 274.506 L80.5326 274.4326 L77.3081 272.2005 L80.1501 271.348 L80.0583 270.4432 L78.5474 268.8599 L77.3758 266.8883 L71.706 268.2345 L70.9194 267.8332 L69.7841 267.2532 L67.2273 267.4137 L65.6079 266.546 L62.952 267.0359 L62.5685 265.991 L62.3628 262.0712 L60.8386 258.333 L60.1247 253.7936 L55.9623 254.7166 L56.8299 258.551 L56.8805 259.4551 L56.9099 261.3867 L56.827 261.8516 L56.6045 262.2741 L56.3472 262.3718 L55.624 263.0759 L55.377 263.7672 L54.6178 264.769 L52.2816 265.2573 L51.8961 265.6056 L51.6982 268.2262 L51.954 270.8073 L51.8676 271.2245 L51.3741 271.4312 L51.2263 271.772 L51.2298 272.2088 L51.7341 276.2588 L50.6096 276.3353 L50.1476 276.1082 L49.8323 275.7735 L49.688 275.2049 L49.2053 273.3135 L48.8832 272.0226 L47.9645 271.3979 L46.4796 270.9315 L45.9758 270.7771 L45.5575 270.5052 L45.4254 270.2364 L45.4637 269.8102 L45.6267 269.2491 L45.6901 267.6038 L45.8266 264.5168 L45.9989 263.8255 L46.9736 263.1948 L47.4813 262.9934 L47.8982 262.5338 L48.6853 261.9402 L49.1375 261.7297 L49.3781 261.5177 L49.6232 261.3602 L50.2919 259.7035 L50.5743 259.4195 L51.7557 259.1325 L52.3606 259.1144 L52.3861 258.86 L52.638 258.6124 L52.2536 258.2625 L51.9403 258.1876 L51.3958 258.3504 L50.4078 258.3542 L49.2259 257.8408 L48.8287 257.9778 L48.1501 258.1664 L47.8417 258.1452 L47.5525 257.9301 L47.3993 257.8007 L47.3325 257.0616 L47.689 256.6354 L47.8339 255.838 L47.4381 254.1253 L47.2923 252.4269 L47.2363 251.3615 L47.3689 250.4233 L47.7411 249.3928 L48.1059 248.684 L48.4825 248.1169 L48.6853 247.1719 L48.9863 245.7203 L48.1741 244.5247 L47.0448 242.5991 L46.9093 241.8934 L46.9319 241.1263 L46.9593 240.4728 L44.4188 240.8189 L44.8116 243.0996 L44.8823 244.1597 L44.7679 245.1335 L44.4659 246.5412 L44.1576 248.1108 L43.8006 251.3865 L43.2909 253.7126 L42.6236 256.2658 L42.5406 256.9503 L42.1856 256.945 L41.6362 256.7429 L40.77 256.568 L39.9343 256.7474 L39.3254 257.0851 L39.2655 256.805 L39.428 256.2212 L38.8373 256.2265 L38.6669 257.3183 L38.2893 257.918 L38.1032 259.1643 L37.5936 260.3266 L37.6481 260.6113 L37.7266 261.1232 L37.5558 262.7852 L37.6319 264.8629 L37.6947 266.0668 L37.8327 266.7247 L37.8587 267.2623 L37.3868 267.4054 L36.5536 267.4069 L34.5654 266.7126 L32.3804 266.2485 L30.6755 266.0986 L34.7967 269.2635 L39.8768 270.9891 L38.2682 272.7161 L37.403 276.2445 L37.8263 276.0862 L37.9437 276.3686 L37.7178 276.5617 L37.489 276.9971 L36.7141 277.973 L36.204 279.8871 L35.7395 284.152 L35.6285 285.848 L35.3668 287.1798 L36.0355 285.2196 L36.5418 284.4526 L36.9336 283.7825 L37.4683 281.5482 L38.47 280.3164 L39.0372 279.2602 L39.4113 275.9643 L39.5616 274.4924 L41.2738 272.7548 L42.6275 271.8522 L43.1534 272.0249 L43.0582 272.3474 L42.8834 272.7729 L42.7655 276.8547 L44.8509 280.1816 L44.8941 280.2823 L45.3783 280.149 L45.827 280.2217 L46.9034 282.1274 L47.1788 282.4363 L47.3487 282.4772 L47.664 282.2834 L50.3032 280.8062 L50.9347 280.7517 L52.9916 280.9932 L53.6329 281.0485 L56.1734 280.5496 L58.9472 280.3096 L60.2077 279.9817 L60.627 280.0287 L61.1377 280.1786 L61.5781 280.4739 L62.0574 281.0568 L61.9262 280.2914 L61.9282 279.9151 L62.0942 279.6274 L62.5184 279.4888 L63.0851 279.5835 L63.8953 278.9391 L64.5473 278.7748 L65.8019 278.4583 L66.1162 278.3788 L67.3486 278.5318 L68.4362 278.9777 L69.3368 278.9406 L69.5764 278.9202 L69.7767 278.7188 L69.7816 277.9798 L70.0154 277.2083 L69.0598 276.1831 L68.8094 275.7432 L68.6896 275.4987 L68.4588 274.5545 L68.7191 274.0131 L69.2165 273.7784 L69.708 273.8663 L70.2962 274.4508 L71.1437 275.5941 L71.7173 275.6062 L72.1312 276.1445 L74.1213 278.7673 L74.6747 279.8197 L74.8942 280.6276 L75.5738 280.6094 L76.1213 280.6374 L76.6491 280.592 L77.476 280.6987 L78.1654 281.0349 L78.7256 281.7655 L78.9 282.5295 L78.8509 283.067 L78.9589 283.4539 L79.3655 284.1429 L79.5162 285.025 L80.5203 287.2752 L80.4305 287.7408 L79.9812 288.0595 L79.3345 288.0679 L78.3878 288.7099 L76.4885 290.3975 L76.7498 291.8504 L75.969 291.8837 L74.8505 292.2676 L74.5711 291.9496 L74.6227 291.2008 L75.2762 290.6383 L75.0891 288.7758 L74.7336 288.3624 L74.2878 288.0936 L73.6082 288.111 L73.0941 288.2375 L71.4055 289.2785 L70.9763 289.9168 L71.488 293.3571 L71.5562 294.1498 L71.514 294.8304 L70.5594 296.6482 L70.0272 297.1934 L68.8949 297.4962 L68.1117 297.98 L66.2458 298.3873 L63.1597 299.9795 L61.8197 300.7169 L59.3528 302.2962 L58.2603 302.783 L57.6465 303.0586 L58.1478 303.6544 L58.1945 303.6855 L58.8082 303.7468 L60.0167 303.6423 L60.5042 303.5621 L60.7993 303.4606 L61.2334 303.1941 L62.0151 302.5544 L62.4865 302.2848 L62.7443 302.1864 L63.005 302.1251 L63.6846 302.0668 L64.1722 301.9865 L64.4265 301.8503 L64.7221 301.7481 L67.2224 301.1886 L67.8264 301.1371 L67.984 301.1992 L68.148 301.3377 L68.2433 301.5588 L68.3739 302.1963 L68.3145 306.8183 L68.4284 308.3385 L68.4029 308.3544 L68.615 311.226 L69.4212 315.7283 L69.7964 316.5762 L69.7556 316.8571 L69.7448 316.929 L69.9677 317.2243 L70.2417 317.0024 L70.5742 317.1448 L70.7607 317.5967 L70.7553 317.9783 L70.7691 318.7808 L71.0382 318.9012 L71.3564 319.1949 L72.4494 320.4948 L72.4032 320.9906 L72.555 321.4078 L73.0101 321.9491 L73.2846 322.1868 L73.4236 322.4798 L73.4432 322.7069 L73.4447 323.046 L71.7114 324.76 L70.7048 325.8055 L69.8553 326.3891 L68.1794 326.7116 L66.8306 326.7116 L64.9701 326.5443 L64.5022 325.7684 L64.2183 325.564 L63.9822 325.4693 L63.8687 325.4792 L63.6836 325.5337 L63.2432 325.7245 L62.9888 325.8607 L61.5653 326.5557 L61.0841 326.7503 L61.0606 326.7124 L58.2303 326.2037 L56.1037 326.271 L54.3718 326.7283 L53.0515 327.2249 L51.9108 327.5081 L50.7299 328.1909 L49.8304 328.2681 L47.6222 329.9276 L46.9431 330.1918 L45.8246 330.1721 L45.2255 330.2236 L45.1818 330.2273 L44.6078 330.3659 L43.3719 330.6505 L41.673 330.3803 L41.1697 330.6286 L40.7941 330.6952 L39.7683 331.0502 L39.0485 331.4007 L39.0018 331.4197 L38.4607 331.6422 L37.1963 331.9799 L35.2381 332.6453 L34.6533 332.9247 L34.5369 332.8966 L34.4549 332.8278 L34.3886 332.2956 L34.3327 331.8459 L34.1564 330.6785 L34.4638 328.1478 L34.4088 326.6352 L35.2332 323.3806 L35.7016 322.99 L35.7453 322.8757 L36.2919 321.4509 L37.0976 319.9466 L37.0073 320.0027 L36.8064 319.9648 L36.6493 319.7256 L36.202 319.8762 L36.0842 319.8202 L35.2803 322.557 L34.5531 322.7803 L34.5193 323.0551 L34.8895 322.9522 L34.9214 323.4828 L34.1471 325.6472 L34.0248 326.7639 L33.986 327.1803 L33.8014 329.1614 L33.6271 330.4605 L33.5799 330.9427 L33.3118 331.0767 L33.2946 331.2592 L33.027 332.3637 L32.6254 333.0163 L31.4204 333.9027 L30.4334 334.1041 L29.5967 334.5553 L28.325 335.1412 M77.8163 336.756 L77.8556 336.5001 L78.3284 336.0557 L78.7541 335.7733 L79.8319 335.3933 L79.4936 335.2131 L79.2918 335.1382 L78.8106 334.9611 L78.7065 334.6492 L78.4094 333.936 L78.4688 333.609 L79.063 333.3569 L78.8553 332.8815 L78.0976 332.02 L78.87 331.9314 L79.746 332.02 L81.4543 332.7331 L82.9985 333.3864 L83.355 333.6408 L83.9555 334.0678 L84.2659 334.0064 L84.6336 334.3509 L85.2931 334.0784 L85.9295 334.2865 L86.4092 334.5598 L86.8624 334.7597 L87.2184 335.0156 L87.5032 335.2374 L87.8734 335.3487 L88.1661 335.2071 L88.689 335.354 L88.9851 335.4562 L89.2949 335.7181 L90.2254 336.1496 L89.621 336.3873 L90.0099 336.5031 L90.4493 336.4653 L91.3484 336.3063 L92.7846 336.1095 L94.326 335.7552 L95.5457 335.6772 L99.4159 335.9248 L102.23 335.4562 L105.1295 335.3434 L105.4324 335.3032 L105.6033 335.466 L105.9843 335.4607 L106.8269 334.8823 L107.7594 334.3918 L108.4242 334.2048 L109.8683 333.8005 L110.4929 333.6983 L112.8656 333.2411 L112.9883 332.2464 L112.9731 331.7558 L111.8 331.5628 L110.3741 332.157 L108.5475 332.0238 L105.1555 332.7392 L101.7532 333.6211 L100.535 333.6211 L99.9683 333.201 L99.9889 332.7596 L100.724 332.4243 L100.7874 331.8572 L100.2752 331.4848 L99.7567 331.8777 L98.8193 328.0917 L98.9367 327.6375 L101.5921 326.664 L108.1036 324.4216 L108.7346 324.3126 L109.4382 324.3148 L110.2592 324.3171 L111.2462 324.4428 L113.7248 324.7789 L117.0221 325.3671 L120.0252 325.0938 L122.2304 325.9554 L121.7683 326.6276 L120.1725 327.5512 L118.282 327.7193 L113.39 327.4104 L111.2113 328.0948 L112.459 329.5846 L113.4734 331.83 L114.0136 332.8452 L115.276 333.8407 L115.6772 334.5704 L116.2674 335.3396 L117.0614 335.5372 L118.3071 336.8029 L119.2739 337.0338 L119.3598 336.4842 L119.9687 335.7711 L121.1864 335.5629 L122.7386 335.9164 L125.2939 335.5727 L125.4476 336.8097 L125.7844 337.6417 L126.2671 338.9801 L124.5976 340.3261 L122.6016 341.9188 L122.2584 341.8969 L122.4086 343.2292 L122.3133 343.3829 L121.622 343.5267 L120.9733 343.747 L120.9409 343.7538 L121.2822 346.5555 L121.3171 346.962 L121.8655 347.2428 L124.0697 347.1278 L124.5922 347.3428 L125.0847 347.6077 L125.23 346.8371 L125.1397 346.2459 L125.0189 345.6743 L124.6771 345.074 L124.6271 344.7296 L124.7763 344.3208 L125.1858 343.937 L125.8232 343.7387 L126.9579 343.5456 L127.418 343.6698 L127.5722 343.8 L127.829 344.4132 L128.0883 345.3678 L128.8464 347.3791 L129.388 348.4525 L130.677 348.6289 L131.6128 349.0604 L132.262 349.797 L132.8797 351.7591 L133.3054 352.5252 L134.5894 355.4986 L134.6552 356.0262 L134.42 356.0997 L134.7034 356.432 L135.1261 356.4365 L135.4919 356.3298 L135.9343 356.326 L136.2167 356.3631 L136.967 356.7696 L139.922 362.2948 L140.0477 362.4961 L140.9791 362.5733 L143.2683 366.6057 L144.3127 369.2876 L143.3149 369.6464 L142.7606 369.8583 L141.8389 369.9923 L141.2728 370.0612 L140.8412 370.071 L140.4636 369.8848 L139.4388 369.6456 L138.1204 369.52 L137.4678 370.0135 L136.1047 370.2474 L135.1919 370.3753 L134.7598 370.3943 L134.5826 370.1702 L133.8809 368.8531 L133.6044 369.1158 L133.6614 369.4253 L134.0758 369.3898 L134.3513 369.9946 L134.3302 370.6244 L133.2185 370.5403 L132.4201 370.2656 L132.0071 369.1036 L131.7273 367.7517 L131.306 366.4868 L130.9618 365.259 L131.305 364.5717 L132.2065 364.1198 L131.9369 363.7163 L130.0062 359.6771 L129.665 359.2464 L128.7737 358.2071 L128.4025 357.301 L127.9636 356.5962 L126.1379 357.1193 L124.4243 353.6273 L124.1743 353.7114 L124.19 353.8923 L125.4284 357.1011 L125.1397 357.3108 L119.9471 358.5636 L119.2346 358.9944 L118.0267 357.4781 L118.0346 357.1503 L118.4205 356.1716 L118.4195 355.7348 L118.3493 355.3412 L118.1298 354.887 L117.6948 354.4517 L117.6442 354.4282 L116.973 354.0414 L115.6639 353.806 L114.0651 354.1527 L113.55 354.183 L113.1877 353.8522 L113.1096 353.4146 L113.3836 352.7969 L113.1867 352.0399 L112.6962 350.9552 L110.7929 348.2451 L110.6574 347.5396 L110.9677 347.0279 L111.4701 346.8477 L112.1423 346.6024 L115.7189 345.6274 L115.8142 344.9158 L116.0557 344.8598 L115.63 344.8288 L115.4699 344.0967 L114.972 342.9249 L114.6215 342.6281 L113.879 342.401 L112.1737 341.4654 L111.8624 341.1709 L111.3326 341.1891 L110.8067 341.4941 L109.7019 341.7939 L108.9084 341.5963 L106.5451 341.6084 L101.9231 342.6834 L99.7591 343.5805 L99.0275 343.8689 L98.3578 343.7629 L98.18 343.5184 L97.4882 342.6501 L97.2029 342.2746 L97.1842 342.0581 L97.2152 341.962 L97.3492 341.9097 L97.1533 341.5925 L95.4043 342.2118 L91.5193 343.0483 L91.0179 343.1565 L90.2839 343.1558 L89.5257 343.0725 L88.5682 342.968 L87.13 342.5661 L84.2934 341.5804 L83.4905 341.1171 L83.0565 340.4237 L82.8267 339.0626 L82.4024 339.2299 L81.7263 339.5274 L81.1081 339.6281 L80.3809 339.5683 L78.1074 337.4486 L77.9179 337.1436 L77.8163 336.756 M78.9805 313.4276 L78.9982 313.2663 L79.4853 313.0142 L82.7962 311.7378 L83.3501 311.5258 L83.986 311.3138 L84.3371 310.8808 L84.722 310.6014 L85.2897 310.5454 L85.0417 311.2298 L83.5416 313.6751 L82.9833 314.3179 L81.499 315.2794 L80.9205 315.6844 L80.5577 315.9002 L80.129 315.6708 L79.8201 315.2468 L78.9805 313.4276 M89.6274 332.048 L90.0683 331.7846 L90.5009 331.7467 L90.6831 331.964 L91.2119 331.4303 L91.9661 331.4999 L92.5288 332.7006 L92.7527 332.8542 L92.9049 332.8414 L93.7382 332.6362 L94.4767 332.5106 L95.4701 332.0972 L97.2986 331.4954 L97.797 331.5824 L98.1452 331.8323 L97.4508 331.8376 L96.5881 332.1033 L95.1018 332.8876 L92.6747 334.2169 L92.0363 333.9989 L91.3921 333.5288 L90.6236 333.4992 L90.5593 333.3887 L89.9829 332.5166 L89.7015 332.3554 L89.6274 332.048 M93.1446 310.2229 L93.4254 306.6669 L93.9273 306.6373 L94.6 306.6199 L95.503 306.7403 L96.9696 307.5564 L97.3482 307.8381 L97.8427 308.1235 L98.1476 308.3431 L98.3912 308.4044 L98.6922 308.4945 L98.6764 308.6323 L98.6514 308.8942 L98.508 309.2894 L98.263 309.8504 L98.2537 310.213 L98.0897 310.6847 L97.8417 310.9731 L97.0777 311.039 L96.0966 311.0292 L93.4672 310.7286 L93.2776 310.581 L93.1446 310.2229 M105.0543 403.3543 L105.2066 403.0682 L105.6161 402.7594 L108.3 401.3327 L110.8887 400.0407 L111.6115 399.3602 L112.1644 398.4762 L112.731 397.9183 L113.2363 397.4922 L113.2382 397.474 L113.3163 396.761 L113.8574 395.8399 L113.6178 394.7681 L113.2142 392.9447 L115.1689 390.8769 L117.9815 388.0452 L118.8909 387.093 L119.3446 386.5897 L119.4011 385.1705 L119.7517 384.8192 L119.6898 383.9654 L119.98 383.35 L120.4715 382.226 L123.3116 379.1438 L124.3629 378.377 L125.8472 377.0327 L126.4448 376.8359 L127.4465 376.7132 L135.1787 375.976 L136.2255 375.9548 L136.939 376.0979 L138.0806 375.8443 L138.0536 376.4536 L138.3065 376.7042 L139.072 377.2938 L139.6573 377.5239 L140.5573 377.4596 L141.534 377.4096 L142.0167 378.0311 L142.2273 379.2967 L143.0787 379.6948 L143.6203 380.3723 L144.3657 383.7512 L145.7877 389.2979 L145.7597 390.0859 L144.7134 390.1146 L143.0537 390.2236 L141.9037 390.1585 L141.1446 389.8823 L140.9659 389.4675 L140.4994 388.5599 L140.2588 388.6932 L139.8473 389.0512 L139.8483 389.4614 L137.8268 389.8475 L134.6361 388.0513 L133.4291 387.4647 L132.5487 387.2376 L131.169 387.0597 L129.2721 387.2573 L128.2051 387.2876 L127.531 387.3254 L126.6815 386.7562 L126.0535 384.1948 L125.3597 381.5834 L125.696 379.6282 L125.4039 379.1544 L124.7228 379.1188 L123.9745 379.6464 L123.207 381.1065 L122.0889 381.7264 L121.2169 382.5212 L120.6262 384.2182 L121.6166 383.7709 L121.8974 384.2659 L122.3934 386.3952 L123.0808 389.6491 L123.6686 390.8617 L124.0089 392.1303 L124.358 392.8653 L124.2499 393.6736 L123.2242 393.9469 L122.2814 393.5154 L121.32 393.3459 L121.0804 394.6902 L121.101 394.6833 L120.9773 396.4969 L120.6277 398.3028 L120.5594 399.0946 L119.953 399.5071 L118.2334 400.1693 L114.2119 401.2752 L112.9559 401.9624 L111.3561 402.9691 L110.6555 403.3036 L109.5202 403.3558 L107.2129 403.5549 L106.1714 403.5178 L105.5351 403.6412 L105.0543 403.3543 M116.1137 403.2204 L116.2949 402.823 L117.2092 402.3613 L118.3012 402.2334 L119.7158 401.886 L120.9468 401.3085 L121.6858 400.4729 L122.6797 399.6698 L124.0472 399.0196 L126.9751 398.5284 L128.7904 398.4943 L129.0733 398.8523 L129.5196 399.5313 L129.6492 400.0876 L128.9265 400.4774 L127.2727 401.1321 L122.8618 402.5914 L120.3178 403.5072 L118.4804 403.8433 L116.8271 403.788 L116.3636 403.623 L116.1137 403.2204 M126.9201 287.1941 L127.0655 286.7815 L127.5138 286.5249 L128.0991 286.1841 L128.2464 285.3717 L128.2808 283.6599 L128.7752 281.8367 L129.5285 280.4996 L130.6917 279.3086 L131.9949 278.9058 L135.0427 278.6067 L136.1018 278.7339 L136.339 278.9679 L136.8727 280.5571 L136.8884 280.7381 L136.8084 281.072 L133.7498 281.6626 L132.9283 282.2054 L132.5095 283.223 L132.5428 284.4564 L132.7471 284.7289 L132.9386 284.8584 L133.0805 285.2461 L133.1409 291.0199 L132.8399 291.3 L128.8474 292.8074 L128.1919 292.7544 L127.8472 292.5296 L127.5354 292.2661 L126.9201 287.1941 M129.7813 304.1806 L132.9195 303.7483 L134.557 304.0701 L136.5491 305.7644 L136.6277 307.4081 L136.9994 308.3082 L139.0469 307.7972 L141.9474 308.1697 L142.5308 307.9827 L142.7336 308.6777 L142.927 310.5174 L142.8907 311.357 L142.653 311.9596 L140.961 313.7425 L140.6988 314.0567 L139.7904 316.3968 L139.455 316.4596 L139.0553 316.3234 L138.7445 316.153 L138.3855 316.1841 L137.2125 317.2674 L134.013 317.0698 L133.7463 316.9108 L133.0417 315.4436 L132.3504 314.0037 L131.4557 312.7901 L131.2328 311.4562 L131.1066 310.1419 L131.2956 309.2508 L130.8464 308.9343 L130.2026 308.1015 L130.0612 307.2498 L130.3529 307.0704 L130.8449 307.2468 L131.357 307.3392 L133.327 307.4807 L133.3393 307.3286 L133.0879 305.1875 L129.7813 304.1806 M145.9851 348.6425 L146.1737 348.2981 L150.1318 347.903 L151.3692 347.5918 L152.3512 352.3276 L152.7328 352.2632 L155.402 351.5343 L153.9922 347.3995 L154.6208 347.2633 L155.2375 347.4631 L155.8606 347.2663 L156.7994 347.1717 L157.591 347.3428 L158.0427 347.775 L158.3727 347.2792 L158.6457 347.3859 L159.1892 347.2383 L159.665 346.4154 L161.198 345.7856 L161.5761 347.1301 L161.7367 348.8984 L160.8219 350.6304 L160.0431 352.1081 L158.1605 352.725 L158.1664 352.2292 L157.8841 355.0255 L158.2789 356.1807 L159.229 358.8248 L160.0755 360.042 L159.1549 360.7551 L158.3059 360.6067 L158.1988 360.6529 L157.399 360.6188 L156.5524 360.7725 L152.6306 359.5129 L148.8635 357.6091 L147.4194 356.0883 L146.7231 354.5562 L146.8002 353.5456 L147.3806 353.1679 L147.4297 352.5486 L145.9851 348.6425 M151.2847 453.1859 L151.4743 452.6985 L151.8195 452.1158 L154.0801 450.357 L157.399 448.3977 L159.0827 447.6999 L159.6803 447.9966 L161.1533 447.6992 L166.5026 445.8011 L166.2688 445.2751 L165.494 444.2323 L164.2424 443.0108 L166.1048 442.6831 L166.3287 443.7403 L167.1129 445.6361 L167.3299 445.3849 L168.666 444.9217 L173.4142 443.8236 L174.9781 443.3952 L176.4978 442.3766 L177.4907 441.4033 L178.0554 439.3266 L178.7772 438.3693 L178.8272 438.3594 L180.5836 435.2201 L183.1075 430.2311 L183.4679 429.3305 L187.2522 425.8438 L187.6397 426.4848 L187.8483 431.8909 L186.748 433.0602 L185.0912 437.3415 L185.5459 438.4139 L186.1523 438.622 L187.813 439.1927 L188.7666 438.9853 L190.8004 438.9543 L193.9017 438.3458 L195.606 438.1309 L199.3226 437.3067 L199.9884 437.2083 L200.2658 437.1909 L200.5747 437.2189 L201.3176 437.0668 L202.3321 437.4573 L204.0246 437.0252 L204.9212 436.9139 L205.3975 435.0764 L206.8068 433.3167 L207.4986 433.4416 L208.162 433.7943 L208.9953 434.542 L208.8332 435.4305 L207.9126 436.6157 L207.2561 437.5398 L206.3334 438.4593 L205.9966 438.8271 L206.2937 439.1019 L206.9899 438.4094 L207.5418 437.7744 L207.7849 437.536 L208.684 436.7134 L209.2668 435.8029 L209.9297 435.5138 L211.0914 435.6394 L212.4354 435.9815 L212.8793 436.394 L213.0938 436.9972 L210.6372 439.1488 L211.0055 440.057 L210.9756 441.8453 L209.6346 445.8087 L207.9671 449.4822 L206.5588 451.0737 L206.8279 451.577 L207.0655 452.445 L203.6711 454.3211 L203.0799 454.256 L201.7158 452.6592 L199.8765 449.7259 L199.791 449.5889 L198.4702 447.6666 L197.2942 445.8473 L197.2426 445.0867 L197.0089 444.9141 L197.3663 444.3329 L198.9607 443.6026 L200.2123 443.2454 L199.9968 442.0905 L199.3314 442.5098 L198.5266 442.4969 L198.3558 442.2858 L198.2089 442.6884 L197.4405 443.2303 L197.2048 443.4316 L196.7742 443.4686 L195.7636 443.483 L192.9334 444.199 L190.9045 444.5524 L188.2092 446.4853 L187.6676 446.4315 L187.1589 445.8306 L186.5967 444.513 L186.2289 442.6801 L186.5614 445.4719 L185.7271 446.8425 L183.626 447.0362 L182.9577 447.1157 L183.0196 447.6439 L182.7309 448.0685 L181.601 448.3841 L177.3419 448.2842 L174.5308 448.381 L172.305 448.1366 L170.5039 448.0965 L168.2349 448.3046 L168.2727 449.1356 L167.6952 449.0538 L167.4232 448.9865 L167.0731 447.8233 L166.778 448.0897 L166.2821 448.2622 L164.9931 448.8033 L164.2836 449.5813 L163.0364 450.3646 L162.2061 450.6892 L160.0289 451.5936 L159.31 451.471 L158.5298 451.661 L157.3577 452.1309 L156.2598 452.3549 L155.6514 452.5646 L155.1196 452.7946 L153.9181 453.3963 L152.2142 453.6248 L151.5401 453.7035 L151.2847 453.1859 M152.6331 303.6711 L154.8663 302.7565 L156.7405 302.9216 L157.2556 308.8488 L156.2804 309.1781 L154.8113 309.4401 L154.2235 309.5703 L153.3043 306.2633 L152.6331 303.6711 M166.917 345.9037 L167.7389 342.8023 L169.3603 343.2307 L169.567 343.0763 L169.9795 340.6175 L172.552 339.2996 L174.1355 341.6524 L176.7394 340.4389 L178.7762 347.9189 L172.6315 350.4412 L173.592 357.6068 L173.8306 358.167 L174.845 358.2366 L176.2445 358.1163 L176.5479 358.1586 L176.6942 358.3577 L176.952 358.7385 L177.553 359.9504 L178.8528 360.5764 L179.8977 360.8489 L180.9303 361.5075 L181.2347 362.8579 L181.5554 363.9783 L182.6504 364.116 L182.8261 363.3091 L183.0437 362.9828 L183.9054 361.8292 L183.6123 361.2569 L184.5816 360.4137 L185.677 359.8028 L186.6252 359.74 L186.6532 359.2283 L186.1406 358.8755 L187.6578 359.0443 L189.4491 360.1404 L190.7763 359.3607 L190.7827 359.9421 L189.6597 363.0056 L189.8704 365.7034 L189.9445 367.2582 L189.837 367.2377 L189.9303 367.2816 L189.1903 368.028 L189.3199 370.4215 L190.9315 372.3162 L191.4804 371.9922 L191.5811 371.6379 L193.5452 373.6734 L193.5192 375.2667 L191.1883 374.0314 L188.5755 373.0027 L188.0084 374.8428 L189.8281 375.7254 L190.248 375.9366 L191.4721 376.1887 L192.8661 375.8397 L191.9356 376.9471 L191.5349 378.0848 L191.5615 380.2716 L191.2354 381.0497 L189.781 381.4691 L188.7027 381.684 L184.4809 380.2648 L183.1816 379.3731 L183.4861 378.6714 L183.0339 379.3376 L181.576 377.5262 L182.8561 372.8672 L183.0319 371.7689 L181.7302 371.4366 L180.8611 370.8583 L180.7805 370.5926 L179.3831 365.9978 L177.7578 364.7352 L177.309 364.1115 L176.5455 362.2713 L176.0608 362.1577 L175.1996 361.6824 L173.6253 360.8065 L171.3087 358.0148 L171.9917 357.3759 L171.3794 356.2601 L170.2289 355.0558 L168.6439 353.9127 L167.871 349.8189 L167.9147 349.18 L166.917 345.9037 M168.5423 366.8305 L168.5703 366.4793 L169.8445 361.9874 L172.5313 362.7512 L175.6665 364.1334 L175.8742 364.2182 L174.877 366.1167 L174.5833 366.6844 L173.8026 367.4187 L171.4904 367.0538 L169.6888 366.994 L168.5423 366.8305 M182.0656 403.8312 L182.3017 403.7653 L182.206 403.2817 L182.4569 402.5566 L183.0437 402.4854 L183.4537 402.1017 L185.6068 401.637 L185.9294 401.5068 L186.5565 401.4318 L186.8737 401.637 L187.2851 401.7195 L187.2891 402.1774 L188.7278 404.5033 L192.8479 407.3938 L190.8897 407.9176 L189.2767 408.3891 L188.3128 408.7471 L186.9124 409.5774 L186.5108 409.5782 L186.0281 409.4094 L185.5538 409.1369 L185.105 408.7585 L184.4559 407.0404 L184.0866 406.1677 L182.7834 405.5183 L182.0656 403.8312 M187.429 382.637 L188.0821 382.005 L190.0599 381.7469 L191.807 381.519 L192.7767 383.3735 L193.2658 383.459 L196.3033 389.7702 L194.4619 390.0049 L194.8027 390.6604 L195.0384 393.2732 L195.6286 394.1331 L196.9446 393.6933 L197.6821 397.829 L195.9964 398.1711 L193.968 394.6417 L191.5973 394.7734 L190.1753 393.4299 L190.3594 392.1659 L190.7581 390.1283 L190.632 388.3692 L189.7039 387.5752 L189.1147 385.5186 L192.4649 384.8079 L192.4227 384.2387 L190.2735 384.3227 L189.3877 383.1903 L187.4948 383.3644 L187.429 382.637 M198.2035 485.0603 L198.4903 484.296 L199.1944 483.2721 L199.8067 482.1734 L200.4824 481.4242 L200.8256 480.5177 L201.5646 478.9361 L201.8956 478.2838 L202.4087 477.3969 L203.8533 475.8055 L204.2598 474.8338 L204.3924 473.8531 L204.8034 472.1656 L205.1054 471.5662 L205.0754 470.6241 L206.1439 468.0337 L206.3344 467.2383 L207.3985 467.1748 L208.1468 467.4109 L211.1445 469.6933 L215.6899 467.2262 L215.6035 471.464 L214.4761 471.6843 L212.0887 475.0109 L209.9812 476.2625 L208.7404 476.1271 L206.8426 479.6974 L206.4164 480.467 L205.5871 481.6036 L204.9895 482.2559 L203.8538 483.3909 L202.8427 484.3111 L202.6095 484.8673 L203.2778 485.2048 L203.8439 485.3236 L205.5169 486.9173 L205.2139 487.0224 L205.0425 488.2998 L203.9888 489.3539 L202.0001 489.7224 L200.5649 489.8011 L198.5099 487.6021 L199.8141 487.1806 L200.3145 487.1806 L200.8698 486.349 L200.4922 486.0606 L200.1593 485.904 L199.6059 485.5302 L198.2035 485.0603 M217.9108 451.5717 L222.1223 449.7039 L223.752 447.5062 L225.6562 447.5433 L225.8575 450.6741 L227.1577 450.2897 L227.2859 450.6559 L225.9307 451.1683 L222.8544 455.6363 L222.4518 455.6916 L220.8952 455.0688 L219.7968 455.8013 L217.9108 451.5717 M221.9755 465.6272 L222.7567 464.626 L223.6523 464.2968 L225.3046 463.2078 L227.1823 457.9362 L230.5306 456.7677 L230.5851 457.1272 L231.739 457.0137 L233.6373 457.1771 L233.5828 459.2265 L231.0142 459.9772 L232.753 460.8861 L233.0952 461.1759 L232.6921 461.235 L231.5809 462.4397 L231.2382 463.1382 L230.2109 463.6649 L229.3251 464.7077 L226.9785 466.7623 L225.1986 470.7489 L224.243 470.5128 L223.6656 469.6834 L223.7314 469.0122 L224.0181 468.0201 L221.9755 465.6272 M242.8622 397.4899 L249.2902 394.7537 L250.5059 396.512 L249.0825 397.3953 L248.1736 398.1719 L246.6853 398.7252 L245.579 398.7645 L243.6537 399.5479 L242.8622 397.4899 M245.0786 169.2343 L245.0786 165.0233 L248.7613 159.6156 L248.7613 157.4949 L250.4799 157.4949 L252.1985 157.4949 L252.4931 160.5245 L250.7794 160.5245 L247.6811 169.2343 L245.0786 169.2343 M252.1371 150.5239 L252.3733 147.5306 L254.9266 148.1289 L256.1149 148.2653 L259.2776 147.3791 L259.2589 151.1033 L258.2366 154.7835 L254.7253 151.9281 L252.1371 150.5239 M283.7198 95.8989 L283.763 95.3565 L284.1745 94.4232 L285.1246 92.9945 L285.8204 91.7226 L286.0384 91.659 L286.3566 91.7211 L287.4113 92.4991 L288.6104 93.0097 L290.3358 94.3891 L292.9063 96.7518 L293.7411 98.1835 L293.9596 98.6304 L294.045 99.0743 L294.4825 99.7235 L298.2315 104.5632 L298.4112 104.9821 L298.7009 105.4737 L299.1163 105.9964 L299.2042 106.5471 L299.4649 107.1864 L299.3643 107.9386 L299.0382 108.7113 L299.2543 109.4157 L299.2808 109.7278 L298.7068 114.0015 L298.5168 114.9166 L298.3547 115.1097 L297.8632 115.1067 L297.4454 114.9181 L294.7428 113.0827 L294.0539 112.3328 L291.0203 110.3732 L290.8156 110.4982 L291.0012 110.7845 L293.5226 112.7017 L293.3944 112.8767 L293.1283 112.9539 L292.7094 112.9145 L291.2172 112.2836 L290.8278 112.351 L290.1262 112.8941 L289.7653 113.3743 L289.37 113.4531 L288.9993 113.2122 L288.8574 113.0668 L288.7749 112.657 L288.3354 112.1412 L288.2662 111.9692 L288.2225 111.6927 L288.0275 111.648 L287.976 111.8435 L287.7471 112.1162 L287.2252 112.1472 L285.0004 111.4465 L284.5226 111.083 L284.448 110.73 L284.744 110.3096 L284.9267 108.487 L286.3242 107.0637 L287.1997 105.2813 L287.1594 104.9882 L287.1653 104.8799 L286.9016 104.4079 L284.0866 101.7733 L284.0026 101.5347 L284.1745 101.2325 L284.5943 100.6363 L284.8069 99.9341 L284.7445 99.2016 L284.5118 97.8517 L283.8538 96.4261 L283.7198 95.8989 M303.2925 237.9346 L303.7742 236.8897 L303.9804 236.4421 L305.3945 235.326 L306.1218 235.5077 L306.3275 236.1127 L306.0702 237.734 L304.8824 240.1124 L304.1439 240.6387 L303.3784 240.2722 L303.8115 238.7388 L303.2925 237.9346 M317.5705 74.6802 L318.2142 71.4712 L319.3013 66.0538 L319.9804 62.7848 L319.1624 61.6265 L319.9578 57.5703 L321.1068 55.6385 L323.0346 55.7347 L319.9023 51.783 L327.9959 42.85 L329.8225 42.3121 L331.3987 43.8576 L338.0128 39.5694 L339.1603 38.9421 L339.9479 40.7021 L341.7941 37.5678 L341.9159 43.9493 L336.6482 46.6888 L331.0844 60.8962 L324.0574 66.4614 L324.3608 68.7045 L321.4289 75.259 L321.6082 72.2659 L319.9583 71.775 L320.0256 77.0377 L321.2689 80.5929 L320.0904 81.7898 L317.5705 74.6802 M325.2324 380.9188 L327.2152 379.7622 L328.509 379.6524 L330.3818 380.6433 L330.9322 382.3509 L327.7381 384.4438 L326.8847 382.5432 L325.2324 380.9188 M325.2349 88.7781 L325.3409 85.1124 L330.7692 74.5325 L332.9336 74.1499 L333.5533 75.2984 L334.8138 77.4794 L336.0747 78.9104 L336.0438 80.5626 L337.5399 82.7951 L339.9179 85.1836 L339.5055 87.0017 L339.3896 87.7843 L338.9285 90.8962 L335.5974 91.6545 L333.3142 92.6847 L332.4117 90.2212 L332.1274 89.3266 L331.6108 88.1789 L327.8191 91.7901 L325.2349 88.7781 M329.0172 65.4803 L329.083 65.372 L329.2004 65.3288 L329.4699 65.2795 L329.684 65.3651 L330.0331 65.5636 L330.2502 65.7091 L330.4741 66.0182 L330.6798 66.2742 L330.9248 66.4311 L331.0574 66.5424 L331.1492 66.5008 L331.2578 66.4159 L331.324 66.1508 L331.1988 65.9629 L331.1404 65.8379 L331.1149 65.697 L331.1615 65.6038 L331.3128 65.5439 L331.6192 65.7159 L331.9697 66.2023 L332.2545 66.6258 L332.5035 66.9523 L332.7657 67.3947 L332.9577 67.7265 L333.2985 68.3007 L333.4605 68.6682 L333.5577 69.0901 L333.7816 69.4394 L334.0649 69.6826 L334.4057 69.9204 L334.5736 70.1318 L334.5412 70.3121 L334.4445 70.375 L334.1543 70.3318 L333.8067 70.1697 L333.5818 70.3174 L333.2783 70.3719 L332.8492 70.2932 L332.3194 69.9962 L331.8259 69.6583 L331.4463 69.3295 L331.3157 69.1076 L331.1733 68.853 L331.0731 68.572 L331.0525 68.3273 L331.0609 68.1076 L331.0638 67.9023 L331.1723 67.572 L331.1375 67.4864 L330.998 67.45 L330.8065 67.5212 L330.533 67.5106 L329.9173 66.903 L329.1959 65.9773 L329.0202 65.678 L329.0319 65.5742 L329.0172 65.4803 M329.1861 257.4115 L331.0299 254.6197 L333.5062 256.1477 L332.1367 258.7812 L329.1861 257.4115 M338.7174 68.5515 L338.9069 68.1818 L339.3955 67.675 L339.5512 67.0303 L339.8143 66.6682 L340.2047 66.2106 L340.432 66.0 L340.6039 66.0129 L340.788 66.0924 L340.9982 66.403 L341.2103 66.5689 L341.6522 66.4765 L342.0004 66.4811 L342.24 66.6114 L343.09 68.1515 L343.6836 69.0371 L344.102 69.772 L344.6318 70.7272 L344.6789 71.2015 L344.5895 71.5166 L344.6745 71.8719 L344.6691 72.2075 L344.6612 72.4143 L344.7265 72.9681 L344.9848 73.5954 L345.1611 74.1476 L345.0374 74.3772 L344.8174 74.512 L344.4663 74.3014 L344.371 73.9961 L344.2149 73.7636 L344.1299 73.7234 L343.9281 73.7537 L343.7548 73.7211 L343.6409 73.5871 L343.4543 73.3984 L343.2711 73.2431 L342.95 73.1545 L342.6471 72.9613 L342.1649 73.0643 L341.8025 72.8901 L341.6159 72.7007 L341.4519 72.3734 L341.3684 71.7924 L341.3837 71.3333 L341.3262 70.9757 L341.0954 70.428 L341.0144 70.2773 L340.8612 70.1606 L340.7694 70.1212 L340.5514 70.2007 L340.3402 70.2053 L340.052 70.1826 L339.8821 70.1076 L339.7368 70.0038 L339.5718 69.9091 L339.3675 69.9129 L339.1539 69.8833 L338.985 69.7401 L338.8544 69.4227 L338.7223 68.9015 L338.7174 68.5515 M342.3441 65.5561 L342.3593 64.9326 L342.3696 64.4121 L342.3937 63.7333 L342.6829 62.2454 L342.9294 61.6984 L342.9986 63.1553 L343.1921 64.3076 L343.4248 64.9576 L343.2923 65.003 L343.2574 65.0742 L343.2191 65.1803 L343.0875 65.2394 L342.9073 65.2826 L342.7949 65.2439 L342.6255 65.2583 L342.5655 65.3523 L342.511 65.5144 L342.5282 65.6364 L342.62 65.7515 L342.8621 65.7924 L343.0757 65.7394 L343.3158 65.678 L343.4371 65.7432 L343.4283 65.8803 L343.3379 66.0182 L343.1017 66.2091 L342.6623 66.5682 L342.5709 66.4598 L342.4659 66.2636 L342.3441 65.5561 M343.4597 193.2246 L343.9345 192.2689 L346.6597 187.1259 L348.5575 188.1725 L349.0117 186.96 L349.2965 184.173 L352.4096 182.4471 L354.2534 182.4471 L354.958 181.8798 L356.9928 182.0525 L357.6773 181.2618 L355.3331 179.1814 L355.3145 178.2037 L353.2969 174.2405 L347.4836 172.622 L348.6429 169.4085 L351.0298 168.92 L351.0711 166.8637 L352.4145 167.5567 L354.2411 165.0953 L357.1529 175.7438 L361.1154 176.6905 L359.77 174.2215 L363.8357 174.2215 L367.9014 174.2215 L369.9593 177.107 L371.1377 179.0761 L369.507 183.8474 L366.4627 186.8389 L365.9127 192.3976 L364.9454 191.1935 L365.9177 182.5069 L363.2023 181.386 L363.7621 187.369 L360.1825 190.4967 L359.1847 191.5789 L356.7105 192.3969 L356.0314 193.598 L353.4854 195.23 L345.4773 198.0737 L344.1442 195.6079 L343.4597 193.2246 M344.0858 49.6284 L348.3714 45.7585 L353.8237 54.4415 L359.3772 61.3719 L363.9506 63.4833 L363.8244 64.6106 L363.5028 67.4811 L364.8143 67.4811 L368.5883 66.2015 L369.8355 62.2674 L374.7463 58.5173 L372.8652 62.7818 L373.3768 63.6454 L375.0718 59.5196 L376.0956 57.9847 L375.9994 61.3106 L377.5986 64.797 L376.9269 66.972 L377.8545 66.9401 L378.59 64.7007 L381.5965 65.053 L381.8524 66.9076 L377.9826 68.5712 L376.7992 68.0273 L377.4705 70.4901 L379.2617 69.1788 L386.5583 69.4136 L387.0209 67.0409 L396.04 64.8977 L397.4154 69.375 L391.1067 72.3121 L389.561 72.1015 L387.3852 72.1848 L379.1606 74.9946 L377.8412 76.0756 L374.9775 66.8341 L373.806 67.6583 L373.6326 70.4788 L372.765 72.6477 L374.6736 70.3916 L376.7997 76.7264 L372.5185 81.98 L371.5988 83.108 L364.0469 89.7667 L361.0025 86.926 L361.8176 89.4788 L359.6424 92.4559 L357.4328 91.1151 L357.9974 87.0131 L358.5965 82.661 L360.6146 80.5096 L359.2005 79.6081 L355.1937 82.9792 L352.5127 80.949 L352.0865 79.5975 L351.4472 77.5703 L353.2542 74.6992 L351.2851 70.4947 L352.331 70.1689 L357.747 70.0704 L358.9795 71.2015 L362.2139 74.1696 L363.0795 74.9643 L363.4233 74.1014 L363.627 73.4871 L358.6377 69.7454 L352.9227 68.4507 L352.2731 68.2742 L350.4371 66.9864 L349.1639 66.0932 L347.8234 63.6712 L346.2286 61.6219 L345.5451 59.5552 L344.4697 57.784 L344.6936 52.9861 L344.0858 49.6284 M346.2286 326.7783 L354.385 323.3428 L359.9164 321.3411 L363.3089 320.6159 L365.158 321.7628 L364.6901 324.2232 L368.1086 324.2649 L368.9777 325.6086 L371.7171 323.9749 L370.5809 322.161 L366.9591 319.7475 L365.9879 318.4749 L365.6407 317.3159 L367.16 315.1514 L373.5457 316.4157 L374.6824 316.6224 L375.4396 321.7689 L377.278 321.8249 L378.2473 323.2012 L380.0704 328.6739 L378.7653 331.1449 L377.8314 333.5469 L374.5651 332.2562 L374.4369 330.9844 L375.4342 328.2257 L373.4588 327.6988 L372.6948 323.0104 L370.9565 324.9598 L371.2571 329.7936 L369.0965 334.8672 L363.1247 332.132 L365.0431 328.7133 L358.0858 331.029 L350.935 331.4976 L347.7635 329.6618 L346.2286 326.7783 M348.3734 369.0128 L349.7222 366.1212 L356.2209 369.2058 L354.5613 372.2609 L348.3734 369.0128 M358.1359 341.8772 L358.3657 339.1451 L359.1459 338.8855 L359.8059 335.0246 L361.7061 333.8846 L361.4263 336.7249 L361.9261 338.625 L361.4685 341.6743 L358.1359 341.8772 M361.495 26.9554 L366.9739 22.0829 L371.4122 28.0146 L368.579 30.3414 L364.6999 32.9477 L362.289 32.9477 L361.495 26.9554 M366.7784 120.4264 L367.1796 115.7036 L369.0008 111.0883 L367.976 108.153 L369.8468 109.9278 L371.4962 107.3114 L372.4777 106.5456 L375.7755 106.8062 L376.6048 107.9818 L376.9593 109.4574 L376.4771 113.6993 L375.1293 119.9553 L373.6071 125.634 L372.6889 127.9442 L370.0423 126.5202 L368.962 125.9809 L370.219 121.9966 L366.7784 120.4264 M368.6016 337.5327 L370.2863 334.3812 L370.9359 334.1041 L372.1586 334.6325 L371.4009 336.0126 L370.848 338.0149 L371.5394 339.4161 L368.6016 337.5327 M369.4285 156.7413 L372.3157 150.5534 L377.7764 146.7141 L379.4257 146.3316 L380.8291 146.9125 L381.9447 148.7432 L379.2244 150.4398 L380.011 155.1016 L376.7295 158.3205 L375.9542 159.4452 L369.4285 156.7413 M385.3622 46.5244 L389.9189 41.5317 L390.3952 41.3196 L391.225 45.4183 L395.168 44.4789 L393.4199 46.5017 L395.0697 48.3806 L391.8683 48.7064 L391.2938 47.1229 L389.3788 45.1683 L387.012 48.1003 L385.3622 46.5244 M395.493 38.6769 L399.8744 42.2272 L399.8425 43.5068 L396.7083 44.1463 L395.6526 40.8203 L395.493 38.6769 M407.2422 21.3934 L408.4452 20.2569 L408.1555 17.605 L416.5422 12.2482 L416.6061 12.2331 L411.6664 21.4692 L408.8577 24.3559 L408.0475 22.8784 L407.2422 21.3934 M419.8797 25.7303 L422.1158 22.3488 L423.7897 21.5987 L424.1153 23.5649 L424.5975 23.4399 L424.1369 21.6662 L425.0502 20.9055 L428.178 19.4863 L429.2853 19.7735 L431.542 20.4819 L431.1954 17.4603 L430.4898 15.923 L430.2806 15.6267 L430.2781 15.2782 L430.3258 15.1646 L430.7903 14.9676 L431.1497 14.7743 L431.459 14.4281 L431.6427 14.0129 L431.9623 13.5454 L432.361 13.3113 L432.8364 13.2711 L433.6245 13.1635 L434.0148 12.8309 L434.2441 12.7112 L434.3772 12.64 L434.6286 12.5543 L434.7641 12.6248 L434.9266 12.7725 L434.9271 13.0127 L435.1221 13.306 L435.3146 13.5696 L435.3263 13.8697 L435.5306 14.1053 L436.1449 14.1144 L436.5672 14.0303 L439.5369 13.2711 L440.8651 13.0142 L441.8442 12.821 L442.1393 12.9256 L442.4796 13.4476 L442.591 13.8182 L442.5955 14.3379 L442.7113 14.7675 L442.8699 15.454 L443.0231 15.7086 L443.3654 16.4519 L443.5633 17.0913 L443.7037 17.5444 L444.0376 18.6529 L443.8952 18.7582 L443.415 18.8817 L442.6981 18.8469 L442.3445 18.8969 L442.0602 18.7438 L441.637 18.5749 L441.1518 18.6438 L440.7089 18.8113 L440.2636 18.9454 L439.5275 18.8643 L439.145 19.0204 L438.5941 19.3371 L438.0623 19.4341 L437.232 19.2924 L437.0272 18.8863 L436.7258 18.3104 L436.3698 17.8073 L436.0344 17.6308 L435.7128 17.5634 L435.4682 17.505 L435.182 17.6285 L434.8216 18.124 L434.879 18.5544 L435.1844 19.2439 L435.236 19.9432 L435.8763 20.5971 L436.5136 20.7077 L437.1819 21.9154 L438.0093 22.4397 L438.627 23.1186 L440.541 27.0372 L440.5017 28.6609 L439.3758 31.143 L439.2373 31.8794 L439.5909 34.6024 L438.6535 35.3274 L434.91 36.9594 L432.5123 38.955 L430.3179 41.6991 L430.0621 42.459 L429.9933 43.9008 L430.3675 45.5782 L430.887 47.1199 L431.0908 48.2374 L431.2111 49.1708 L431.0623 49.5049 L430.8241 49.6754 L430.4893 49.7451 L430.0537 49.6723 L429.7405 49.4329 L429.4782 49.2367 L429.0977 48.8518 L428.8718 48.5973 L428.3636 48.4768 L428.0734 48.748 L427.8736 49.2094 L427.466 49.4625 L427.0374 49.3965 L426.6475 48.8965 L426.4786 48.4329 L425.8437 44.6448 L425.9311 44.1516 L426.4177 43.7818 L426.8876 43.694 L428.2841 42.7954 L430.0567 40.5453 L432.2776 38.2853 L434.7568 35.8714 L432.8727 35.2373 L432.4917 34.9365 L432.392 34.6046 L431.5558 29.9368 L431.5101 29.558 L431.8931 29.3269 L433.4649 28.892 L433.7506 28.9632 L433.8209 29.3125 L434.0394 33.9773 L434.1533 34.516 L435.1034 34.9244 L435.8699 35.2229 L436.0462 35.0501 L436.0899 34.9236 L435.9593 32.9795 L435.0415 33.0098 L434.6419 26.7743 L434.0723 24.321 L434.7666 23.0997 L436.3354 22.4663 L436.14 22.0117 L433.4045 22.395 L431.8406 22.3541 L431.1684 22.7981 L430.9656 23.6217 L430.6051 23.9536 L429.9236 24.0392 L428.8507 24.4112 L427.2652 24.8468 L426.4152 25.2749 L425.854 26.1296 L423.8874 26.4963 L421.7147 27.2418 L421.3773 27.1274 L421.2295 26.7501 L419.8797 25.7303 M447.1895 112.2351 L448.527 111.8374 L450.9615 111.0292 L454.5818 109.6286 L453.5998 105.8563 L454.7783 105.4396 L455.6552 105.2207 L456.8563 109.2127 L457.6714 108.9332 L458.7423 112.7131 L456.6584 113.4236 L455.5153 109.7543 L453.669 110.202 L454.1728 110.9436 L452.7626 111.8101 L453.4294 114.5037 L449.5002 115.5968 L448.9734 113.5773 L447.4954 114.2061 L447.1895 112.2351 M448.4028 26.3993 L448.608 26.0136 L449.5027 25.8689 L449.8827 25.928 L450.2967 25.9682 L450.5771 26.0833 L450.7813 26.2205 L450.8388 26.4773 L450.8363 26.6584 L450.8889 26.8524 L451.0342 27.0289 L451.2208 27.0835 L451.3794 27.0342 L451.4948 26.9819 L451.6519 26.9865 L451.812 27.0335 L451.8851 27.1176 L451.9288 27.2767 L451.9063 27.5077 L451.8115 27.9495 L451.6765 28.62 L454.4267 28.8783 L454.6344 27.7085 L455.2212 27.3183 L455.7701 26.9243 L456.1217 26.344 L456.3063 26.0167 L457.7735 25.8045 L459.388 25.7901 L461.1169 26.6236 L462.3631 27.2259 L462.9651 27.3236 L463.871 27.1812 L464.4323 27.0304 L464.856 26.8493 L465.2768 26.494 L465.733 26.1296 L466.1823 26.147 L466.5648 26.3447 L466.7799 26.7918 L466.7882 27.4471 L466.5697 27.9048 L465.9613 28.5866 L465.4664 28.8905 L465.1781 29.189 L464.884 29.5981 L464.7495 30.1247 L464.7726 30.802 L465.0519 32.6795 L464.9582 33.9114 L464.5599 34.4251 L462.8119 35.4812 L460.5939 36.1957 L457.6777 36.4942 L455.3346 37.2405 L454.8863 37.0192 L454.493 35.3752 L454.3024 33.1303 L454.1006 32.0173 L453.9956 31.2293 L453.8807 30.9308 L448.6036 29.7943 L448.4652 29.5186 L448.4028 26.3993" stroke-dasharray="" fill="none" fill-opacity="1.0" stroke="#ff0000" stroke-opacity="1.0" stroke-width="1.0px" stroke-linecap="butt" stroke-linejoin="miter" stroke-dashoffset="0.0px"/>
</g>
</svg>