<?xml version="1.0" standalone="no"?>
<!DOCTYPE svg PUBLIC "-//W3C//DTD SVG 1.1//EN" "http://www.w3.org/Graphics/SVG/1.1/DTD/svg11.dtd">
<svg width="512px" height="512px" version="1.1" xmlns="http://www.w3.org/2000/svg" xmlns:inkscape="http://www.inkscape.org/namespaces/inkscape">
<g id="layer" inkscape:groupmode="layer" inkscape:label="layer">
<path d="M0.0 228.6864 L0.1401 230.8147 L1.1558 230.651 L3.0822 250.461 L2.0665 250.5701 L2.2766 252.6985 L3.3274 252.5893 L4.7985 267.3786 L3.7127 267.4877 L3.9929 269.5615 L4.9736 269.5069 L6.5147 284.3507 L5.499 284.4598 L5.7091 286.5336 L6.6898 286.4245 L11.2431 333.2478 L11.9436 333.2478 L12.0137 334.2302 L14.1152 333.9573 L14.0101 332.975 L33.8695 331.0104 L33.9395 331.9927 L36.041 331.7744 L35.936 330.7921 L55.8303 328.7729 L55.9004 329.7006 L58.0019 329.5369 L57.0913 320.7507 L71.8719 319.2772 L71.942 320.2595 L74.0435 320.0413 L73.9735 319.0589 L93.6927 317.0943 L93.7628 318.0766 L95.8643 317.8038 L95.7942 316.8215 L110.5049 315.348 L110.6099 316.2757 L112.6764 316.112 L112.5363 315.1297 L127.282 313.6017 L127.3871 314.584 L129.4185 314.4203 L129.3485 313.438 L143.9891 311.9099 L144.0941 312.9468 L146.1256 312.7285 L146.0555 311.7462 L166.02 309.6724 L166.09 310.6548 L168.1565 310.5456 L168.0865 309.5087 L187.9108 307.4895 L188.0159 308.4718 L190.0824 308.199 L189.9423 307.3258 L204.6179 305.7978 L204.6879 306.7801 L206.8945 306.5618 L206.7894 305.5795 L221.465 304.0515 L221.5351 305.0883 L223.6016 304.9246 L223.4965 303.9423 L238.3122 302.3597 L238.3823 303.342 L240.4488 303.2329 L240.3787 302.2506 L260.133 300.2314 L260.2731 301.1591 L262.3746 300.9408 L262.2345 299.9585 L282.0588 297.9393 L282.1639 298.9762 L284.2304 298.7033 L284.1604 297.721 L298.8009 296.2476 L298.906 297.2844 L300.9375 297.0661 L300.8674 296.0293 L315.1928 294.5558 L315.6831 294.5558 L315.7532 295.5381 L317.8197 295.3198 L317.7146 294.2829 L332.4252 292.864 L332.5653 293.8463 L334.5968 293.5735 L334.4567 292.5912 L354.3511 290.572 L354.4561 291.6634 L356.5226 291.3906 L356.4526 290.4083 L376.2769 288.3891 L376.347 289.3168 L378.4135 289.1531 L378.3084 288.2254 L393.019 286.6427 L393.0891 287.6251 L395.1556 287.4613 L395.0855 286.479 L409.9362 285.0056 L410.0763 285.9879 L412.1078 285.715 L411.9677 284.7873 L426.6083 283.3138 L426.7134 284.3507 L428.7799 284.0233 L428.6398 283.0955 L448.4991 281.0217 L448.6042 282.0041 L450.7057 281.8403 L450.6006 280.9126 L465.2762 279.3846 L466.1168 288.1162 L468.1833 287.9525 L468.0783 286.9702 L487.9026 284.951 L488.0077 285.9333 L490.0742 285.7696 L490.0041 284.8418 L509.8284 282.7681 L509.9335 283.805 L512.0 283.4775 L507.867 235.7263 L508.7426 235.6717 L508.5675 233.5434 L507.5868 233.6525 L506.1157 218.8087 L507.0965 218.7541 L506.8513 216.6804 L505.8706 216.7895 L504.3995 202.0002 L505.3802 201.8365 L505.2051 199.7628 L504.2244 199.8719 L502.298 179.9528 L503.2086 179.8436 L503.0335 177.7698 L444.226 183.2271 L444.2961 183.7183 L443.3154 183.7729 L443.4905 185.9012 L444.4712 185.7921 L446.5027 205.8749 L445.557 205.9841 L445.7671 207.9487 L451.7915 207.2938 L453.4377 222.3559 L444.9265 223.2291 L444.7864 221.7556 L442.6849 222.0285 L442.79 223.0108 L422.9657 225.03 L422.8606 224.0477 L419.9885 224.3206 L420.619 230.4327 L405.488 231.9608 L404.052 217.8264 L415.6804 204.2377 L414.1043 202.928 L413.4388 203.692 L404.122 195.9426 L404.7525 195.1241 L403.1764 193.8143 L397.7825 200.5813 L389.7617 201.3999 L383.1769 195.7789 L381.8459 197.4161 L382.6866 198.071 L375.1561 207.6213 L374.2455 206.8572 L372.9145 208.6036 L386.5744 219.6273 L387.9754 233.6525 L372.9845 235.1806 L372.3191 229.0138 L370.3927 229.2321 L370.5328 230.2144 L350.7084 232.2882 L350.6034 231.3059 L348.5719 231.4696 L348.6419 232.4519 L328.8877 234.5257 L328.7826 233.5434 L326.7862 233.7617 L327.4516 239.9284 L312.4258 241.4565 L311.0248 227.3767 L322.1978 213.5151 L320.4816 212.1508 L319.7811 213.0785 L310.1141 205.4383 L310.7446 204.6197 L309.0633 203.31 L303.7395 210.1316 L295.8238 210.9502 L289.204 205.3292 L287.838 206.9118 L288.6786 207.6758 L280.8329 217.1715 L280.0624 216.5712 L278.6964 218.2084 L292.2862 229.0138 L293.7223 243.2028 L278.6964 244.7308 L278.206 238.5641 L276.1396 238.7824 L276.2096 239.8193 L256.4904 241.9476 L256.3503 240.8562 L254.3188 241.0744 L254.4239 242.1659 L234.5995 244.1851 L234.4945 243.1482 L232.533 243.3665 L233.1635 249.4241 L218.1727 250.9521 L216.7366 236.654 L227.9798 223.2837 L226.3336 221.9194 L225.6331 222.8471 L216.0011 214.9886 L216.6666 214.17 L214.9854 212.8057 L209.6265 219.5182 L201.7458 220.2822 L195.161 214.7157 L193.795 216.3529 L194.6357 217.0078 L186.79 226.5035 L185.9494 225.794 L184.5834 227.4858 L198.1032 238.4549 L199.5392 252.6439 L184.5834 254.1719 L183.988 248.2235 L181.9915 248.4964 L182.0616 249.4241 L162.2723 251.4433 L162.2022 250.461 L160.1007 250.6793 L160.2058 251.6616 L140.3114 253.6262 L140.2413 252.6439 L138.1749 252.8622 L138.8403 258.8652 L123.8495 260.3932 L122.3784 246.0951 L133.5865 232.6702 L131.9403 231.3605 L131.2749 232.1791 L121.4678 224.4297 L122.1333 223.5565 L120.4871 222.2468 L115.0932 229.2321 L107.1074 230.0507 L100.4876 224.2114 L99.2267 225.9032 L100.0673 226.5035 L92.6419 236.1083 L91.8013 235.4534 L90.5054 237.1998 L103.9901 248.0598 L105.4262 262.3033 L90.4704 263.8313 L89.8399 257.7192 L87.8435 257.9375 L87.9486 258.9743 L68.1593 260.8844 L68.0892 259.9021 L65.9877 260.1749 L66.0928 261.4301 L57.6166 262.3033 L56.0755 247.2412 L62.1699 246.5863 L61.9248 244.5125 L60.944 244.6217 L58.8775 224.7026 L59.9633 224.648 L59.7182 222.5197 L0.9107 227.977 L0.9457 228.5773 L0.0 228.6864" stroke-dasharray="" fill="none" fill-opacity="1.0" stroke="#ff0000" stroke-opacity="1.0" stroke-width="1.0px" stroke-linecap="butt" stroke-linejoin="miter" stroke-dashoffset="0.0px"/>
</g>
</svg>