<?xml version="1.0" standalone="no"?>
<!DOCTYPE svg PUBLIC "-//W3C//DTD SVG 1.1//EN" "http://www.w3.org/Graphics/SVG/1.1/DTD/svg11.dtd">
<svg width="512px" height="512px" version="1.1" xmlns="http://www.w3.org/2000/svg" xmlns:inkscape="http://www.inkscape.org/namespaces/inkscape">
<g id="layer" inkscape:groupmode="layer" inkscape:label="layer">
<path d="M0.0 128.6062 L2.7009 134.8962 L3.9811 140.867 L3.014 146.4318 L4.2883 151.5922 L5.4448 153.6098 L5.2534 155.4051 L4.705 159.4452 L4.87 159.9026 L4.8592 160.606 L4.9643 160.675 L5.3176 160.7083 L6.2743 160.5849 L7.121 160.712 L7.4745 160.815 L7.7612 161.0016 L8.1446 161.1419 L8.4646 161.2017 L8.6913 161.1252 L9.7814 160.3752 L10.4549 160.0516 L10.8482 159.995 L11.6782 159.9486 L12.7884 160.2419 L13.2653 160.6584 L13.4583 160.9721 L13.7418 161.6722 L14.892 162.8201 L15.5507 163.4862 L16.9826 164.3727 L18.9167 165.1245 L19.4191 165.2565 L20.0926 165.2091 L21.8662 165.8256 L23.3762 166.0968 L23.9519 166.241 L24.815 166.5567 L25.094 166.5981 L25.3077 166.5907 L25.5265 166.5058 L25.8667 166.1256 L25.5967 165.8789 L25.2853 165.7174 L25.4666 165.5655 L25.7401 165.7422 L25.9866 165.5759 L26.0518 164.8326 L26.2122 164.817 L26.1207 165.5044 L26.1601 165.6955 L26.3401 165.9358 L26.7835 166.0956 L28.297 166.5091 L28.7439 166.7627 L28.828 166.6853 L28.7381 166.3351 L28.5941 165.4781 L28.5676 165.0287 L28.6232 164.4725 L28.9802 163.6322 L29.6906 162.8891 L29.8237 162.5486 L29.9793 161.8283 L30.067 161.5526 L30.8424 160.9361 L31.595 160.6343 L31.8416 160.3035 L32.2374 159.619 L33.1005 158.7885 L34.8199 157.3448 L35.3746 156.7607 L35.6732 156.2351 L36.0137 155.5312 L36.3316 154.8953 L37.5224 153.724 L38.5378 152.6796 L39.5727 151.5343 L40.7055 150.189 L40.7364 149.8495 L41.8994 148.4858 L43.0263 147.3534 L43.3402 146.9471 L43.5204 146.7257 L42.6044 147.0397 L41.7347 147.2814 L40.7621 147.4204 L39.7637 147.6778 L37.9318 148.3776 L37.2062 148.5424 L36.4137 148.8767 L32.7393 151.1565 L31.9519 151.4601 L31.1195 153.4684 L30.8365 154.4051 L30.7169 154.3728 L31.1079 153.1018 L31.6792 151.5681 L31.6689 151.3571 L31.7101 151.0741 L32.8268 147.3072 L33.9178 143.4836 L33.9435 143.0564 L33.7596 143.0013 L31.1402 145.2604 L29.6723 147.1682 L29.5964 147.0667 L30.8931 145.2244 L34.067 142.5419 L34.9444 140.27 L36.483 136.5802 L36.5912 135.9678 L36.4265 134.4806 L36.1074 132.7617 L35.6957 131.6399 L35.4693 130.554 L35.5002 129.8748 L35.7884 127.9347 L35.6957 127.1114 L35.9428 125.7939 L36.0354 125.1147 L36.2554 123.8604 L24.3955 126.028 L24.1054 126.1065 L0.0 128.6062 M4.8923 161.0113 L11.7042 169.4383 L16.3548 175.2907 L22.5693 181.9166 L24.4563 183.6916 L28.4477 196.8154 L55.8564 233.7673 L56.9855 233.7462 L57.1674 234.1366 L57.3936 234.0987 L57.5804 234.1302 L58.2453 235.1064 L58.3005 235.2788 L58.2061 235.5308 L58.0109 236.0554 L58.2855 236.0794 L58.8255 235.8016 L59.0614 236.1129 L59.111 236.5993 L58.709 236.9071 L59.5745 237.0569 L60.2837 235.6052 L60.6816 235.5124 L61.5059 236.077 L62.6115 235.915 L63.1994 236.4656 L63.5123 236.5244 L63.6517 236.6645 L63.5141 237.8315 L63.6141 237.9749 L64.284 237.7097 L65.3643 237.2156 L66.0984 236.9532 L66.5198 237.0594 L67.4557 236.6492 L68.2077 236.8374 L68.4514 236.6797 L68.807 236.417 L69.1641 236.3637 L69.7911 236.7206 L70.4676 237.1608 L71.7067 236.5978 L72.4212 237.2013 L73.5511 237.9811 L74.0529 237.2313 L74.4851 237.0978 L74.8444 237.1216 L75.6851 237.9151 L75.7248 238.2861 L75.5712 238.6485 L75.3536 239.1229 L75.6931 239.2651 L75.8945 238.9689 L76.2852 238.7993 L76.7706 239.0039 L77.2974 239.7318 L77.5563 239.5453 L77.7577 239.0044 L78.6103 238.8546 L79.1235 238.9729 L79.2774 239.7725 L79.887 239.5818 L81.0028 239.841 L81.6221 240.7571 L82.155 240.8323 L82.9525 240.5875 L83.5327 240.7331 L84.1757 240.7227 L82.2613 240.2395 L80.8865 239.0991 L80.9665 237.5393 L79.9507 235.0967 L80.379 234.4826 L82.7947 234.5422 L84.4322 235.5903 L86.4743 236.3446 L87.9658 236.167 L88.6602 237.0951 L88.8621 238.65 L88.0267 239.087 L88.4967 239.7507 L89.7778 238.4243 L90.5392 239.1356 L91.625 239.7222 L92.5483 240.5116 L93.5116 240.8117 L93.6227 240.2844 L94.7839 239.9662 L95.4309 241.1076 L96.6782 240.9174 L98.8409 242.779 L101.3557 243.0753 L104.5113 246.2357 L106.8534 247.8001 L108.0152 248.5382 L109.9069 250.262 L111.2259 250.6147 L112.2726 250.4743 L110.7263 249.8035 L111.0313 249.4727 L111.6088 248.7847 L111.6802 248.2267 L110.8219 247.3622 L110.1747 246.1633 L109.2858 244.8851 L108.6873 243.6701 L107.6637 241.5825 L107.5469 240.9531 L107.5064 240.6401 L107.5533 240.0057 L108.0773 238.5897 L108.5656 238.176 L109.9541 237.4557 L109.8374 236.5018 L109.8114 235.6325 L109.8034 235.0598 L110.024 233.7363 L109.9607 233.2511 L110.3499 233.4848 L110.908 232.5115 L111.3556 231.655 L111.3087 231.1409 L111.44 230.5649 L111.3492 229.9289 L110.8803 229.1163 L111.1091 228.4885 L109.8698 227.736 L109.9477 227.6127 L111.1026 228.2549 L111.44 228.3717 L112.102 225.7375 L111.9964 221.8621 L111.7888 221.5508 L111.5682 220.8629 L111.6331 220.4735 L111.8602 220.1103 L111.3541 216.8269 L111.0427 215.9835 L110.7961 215.8212 L110.53 215.5357 L110.1992 215.5164 L110.0498 214.9778 L110.0304 214.5625 L110.251 214.5819 L110.3419 214.277 L110.3354 213.7191 L110.1732 211.0587 L110.0521 210.7488 L109.959 209.3263 L110.0694 209.0797 L110.0564 208.3074 L110.1538 207.1136 L109.972 206.4388 L109.985 205.5434 L110.6367 203.9626 L110.9271 202.9883 L110.6367 202.8588 L108.9251 202.3852 L108.9653 202.2688 L110.6322 202.5281 L110.677 202.4388 L110.9182 202.336 L111.1149 200.2758 L111.0702 199.9977 L110.9563 199.6937 L110.2635 198.543 L109.2874 197.0894 L108.4111 197.5598 L107.4599 197.7493 L104.0245 197.7714 L103.7592 195.0027 L103.8916 193.911 L102.721 193.8867 L101.9683 193.6758 L101.0908 193.4081 L97.5999 192.6813 L95.621 191.8801 L95.0499 191.705 L92.3346 190.3229 L92.0036 190.1477 L91.5461 189.9758 L90.9459 189.8914 L89.1924 189.2344 L86.6504 188.3309 L83.4127 186.6243 L80.1101 185.4695 L79.3768 185.3332 L77.7595 185.3218 L76.5088 185.2099 L75.5875 185.2682 L75.2307 185.8977 L75.1853 185.4045 L74.8607 185.3655 L71.8177 186.1183 L70.8638 186.0923 L67.2821 185.6836 L65.7184 185.4695 L62.9932 184.7298 L61.9615 187.9416 L61.6695 188.6552 L61.5657 188.3113 L62.766 184.6973 L61.7863 184.1653 L60.9298 183.8603 L60.5664 183.4255 L60.1966 183.0945 L60.015 183.3347 L59.7814 183.3216 L59.4439 183.1399 L58.5096 182.7571 L56.7771 182.5561 L56.1283 182.264 L53.9157 181.6412 L53.15 184.3729 L51.3397 187.8962 L51.1645 187.6821 L52.858 184.2496 L53.6301 181.8163 L53.3447 181.5114 L51.4501 180.83 L49.6526 179.5324 L49.5554 179.6815 L48.7573 179.1495 L48.0759 178.9225 L47.6656 178.6093 L47.3703 178.645 L47.0103 178.3075 L46.6826 178.8559 L46.2251 179.5113 L45.9851 179.4562 L46.4847 178.7423 L46.689 178.2234 L46.6403 178.0969 L46.4523 177.8988 L46.1537 177.7301 L46.4296 177.5971 L44.9598 176.4973 L43.0927 174.5492 L42.0465 173.769 L40.6871 173.0875 L40.048 172.8183 L38.734 172.215 L37.7349 172.0624 L37.4136 172.0331 L37.1996 172.1338 L36.1225 171.8028 L35.7007 171.6504 L34.617 171.4849 L33.5432 171.1573 L31.2398 170.1872 L31.1117 169.8807 L30.1514 169.1799 L29.9543 169.2146 L29.8885 169.4134 L29.7288 169.57 L29.479 169.669 L29.1529 169.4564 L28.9501 169.0315 L28.7053 168.9454 L28.5462 170.1522 L27.7287 170.0746 L27.2161 169.5522 L27.0636 168.3907 L27.4757 168.2771 L27.5599 168.1344 L27.4204 167.7581 L27.1544 167.4045 L26.9175 167.4142 L26.9468 167.2357 L26.8624 167.1384 L26.0727 166.3266 L25.64 166.6225 L25.4526 166.6972 L25.3632 166.7059 L25.0698 166.6793 L24.8322 166.65 L23.6738 166.2594 L22.9311 166.1097 L21.9132 166.0308 L20.9676 165.7228 L20.0627 165.3439 L19.4959 165.3657 L19.0524 165.2826 L16.8783 164.4643 L15.4723 163.5969 L13.7473 161.8857 L13.4325 161.4521 L13.1585 160.7984 L12.6916 160.4152 L12.4317 160.2749 L11.725 160.1084 L10.5816 160.1516 L10.2915 160.2819 L10.0349 160.3849 L8.7013 161.3054 L8.2913 161.3084 L7.9052 161.2401 L7.5739 161.094 L7.1077 160.8353 L6.0978 160.7117 L5.4543 160.8783 L5.0308 160.8818 L4.8923 161.0113 M34.4014 142.4108 L34.6344 142.2807 L36.9643 140.8489 L39.2478 139.4273 L40.8483 137.7137 L42.0679 138.7069 L42.1759 138.6091 L42.3677 137.0665 L42.5014 136.3409 L42.8616 134.9463 L44.0454 130.8241 L44.2871 129.8619 L44.4055 126.9493 L44.565 123.8256 L45.2186 120.4856 L45.5133 120.0728 L45.7911 119.4089 L46.0072 118.7966 L46.1282 116.8461 L47.0287 116.1566 L48.7964 114.3759 L50.9398 112.176 L51.8919 111.7155 L53.1655 111.1598 L52.8215 111.0016 L51.1346 110.3235 L50.2538 110.0906 L50.0511 110.0556 L48.7044 109.8041 L47.1126 109.8319 L46.6632 109.9111 L45.7871 110.3027 L45.1195 110.73 L43.878 111.8006 L43.1907 112.3327 L41.3382 113.7016 L39.8457 115.7395 L39.5602 116.3029 L39.3106 117.0775 L37.8285 118.6521 L36.7376 121.0398 L36.5729 121.6883 L36.4905 122.5118 L36.4707 123.8952 L36.2798 124.9627 L36.0148 126.3652 L35.9273 128.5831 L35.6804 129.9778 L35.7472 130.8423 L35.9067 131.4701 L36.5242 133.2044 L36.8536 135.623 L36.8794 136.1118 L36.5809 137.0432 L36.2618 137.6762 L35.3973 140.3162 L34.4014 142.4108 M49.9518 143.0619 L50.4918 142.9594 L51.6873 142.946 L53.0753 143.1177 L54.8452 143.7865 L54.9103 143.6373 L55.2832 143.7678 L55.3483 143.9356 L56.1033 144.2338 L56.6719 144.4946 L56.0073 138.6136 L55.3004 132.0066 L55.3483 130.9401 L55.8324 128.6506 L57.037 126.894 L58.0396 125.6191 L59.3105 124.3085 L60.3898 123.0965 L61.9926 122.0875 L65.9564 119.9893 L67.6771 118.3549 L67.5507 118.1911 L67.1827 117.6411 L64.9924 115.6325 L64.3516 114.9499 L63.6061 114.2555 L61.8865 112.9274 L61.5789 113.2862 L61.2947 113.454 L60.9545 113.2117 L60.9545 112.9274 L61.0151 112.7503 L61.4391 112.4847 L61.1549 111.9908 L60.6655 110.2758 L58.1678 110.2386 L57.2026 110.1492 L56.5635 110.0136 L54.4641 111.1064 L54.2102 111.2439 L54.0531 111.6512 L53.6776 114.4146 L53.2401 117.878 L52.5197 123.8063 L52.391 124.7067 L52.2418 124.9076 L52.0926 125.9265 L51.9742 127.2542 L51.7117 129.4001 L51.0324 134.8085 L50.662 137.4538 L50.2194 140.5466 L49.9543 142.9651 L49.9518 143.0619 M77.3072 159.6311 L77.4818 160.1359 L77.8876 160.5134 L78.8456 161.2166 L79.3835 161.495 L79.7444 161.4878 L79.9686 161.5941 L80.1951 161.8489 L80.1762 162.1036 L79.9402 162.1416 L79.5108 162.0989 L79.1947 162.0611 L79.0862 162.1793 L79.1286 162.3632 L79.2465 162.4339 L79.9992 162.6156 L82.0116 162.8538 L82.4033 162.8397 L82.9978 162.6699 L84.0359 162.6416 L86.0319 162.349 L88.9668 161.7355 L91.1964 161.1245 L91.8876 161.0798 L92.527 161.0915 L93.1569 161.2449 L93.8364 161.4149 L94.1855 161.6176 L94.6433 160.6363 L95.6586 158.1663 L95.9548 157.8876 L97.7895 153.9025 L97.2105 153.4219 L97.0134 153.0648 L97.9539 153.3614 L98.6526 153.549 L99.3502 153.6803 L100.8016 154.0789 L99.09 150.5723 L98.3689 149.0425 L98.0115 148.3207 L97.9722 147.8891 L97.8894 147.3288 L97.8826 146.6008 L98.2739 142.8179 L97.4933 142.064 L96.396 141.0252 L98.2552 136.9553 L99.1774 136.0393 L99.5672 134.4332 L98.7296 133.5469 L95.7848 133.8399 L95.5203 133.5551 L95.4619 132.0629 L93.1566 132.2642 L92.947 132.549 L92.862 132.7612 L91.7437 135.1489 L91.4511 135.8613 L90.8424 140.0799 L91.1114 140.212 L91.2058 140.3723 L91.2435 140.4808 L91.194 140.7663 L90.9982 141.014 L90.7622 140.9904 L90.5617 141.29 L90.0521 141.2523 L88.8064 140.1293 L87.9099 138.7705 L87.4003 137.9682 L87.1949 137.9376 L87.0606 138.1193 L87.1549 139.1289 L86.8341 141.894 L86.6548 144.3005 L86.5415 145.499 L85.0291 148.6109 L83.3612 151.4539 L81.6154 154.2284 L81.1175 154.8913 L79.6241 156.767 L77.9183 158.7557 L77.3969 159.2772 L77.3072 159.6311 M94.865 161.8867 L95.587 162.4009 L96.5355 163.2596 L97.0875 163.8826 L97.4792 164.5244 L99.0363 166.7892 L99.4751 167.4546 L99.9328 168.4833 L100.3245 169.1722 L100.5557 169.2005 L100.827 169.4246 L100.7916 169.6817 L100.9189 169.8989 L101.8769 170.9982 L102.745 171.8569 L103.1343 172.3689 L104.2857 173.9449 L105.0736 175.1009 L105.7531 175.8654 L105.9655 176.2523 L106.291 177.0119 L106.7298 177.9604 L107.985 179.9091 L108.3955 180.7019 L109.2117 182.594 L109.2448 181.6975 L109.3675 181.6833 L109.4572 183.0045 L109.476 184.0851 L109.5233 185.2553 L109.6105 187.1215 L109.4973 187.8955 L109.2897 188.7731 L108.931 189.7073 L108.7565 190.5001 L108.7424 191.5807 L108.5819 192.1139 L108.4214 192.8309 L108.6951 193.6614 L109.6381 193.4957 L110.0309 194.0259 L110.2525 193.9371 L110.8287 194.0259 L111.2277 194.07 L111.3641 194.4273 L111.4515 194.8891 L111.0491 194.9216 L109.5876 195.688 L109.3181 196.0632 L109.4707 196.9889 L110.3797 198.3976 L111.1529 199.7965 L111.2266 199.9505 L111.2891 200.2713 L111.2847 200.973 L111.5886 201.9247 L111.6691 202.698 L111.7985 203.06 L111.7002 203.3012 L112.7504 204.2665 L113.7649 204.8475 L114.1538 205.0351 L115.9144 206.4026 L116.4284 206.5055 L117.215 206.5055 L117.7781 206.5815 L118.9444 206.8898 L119.5522 207.1446 L120.6382 207.578 L122.0682 207.3858 L122.1085 207.5244 L121.0002 207.8016 L121.7778 208.1769 L123.2972 209.7813 L124.1462 211.1085 L124.9597 212.8066 L125.2725 213.4725 L125.7282 214.3127 L125.9562 215.8054 L126.1976 216.8153 L126.354 218.0935 L126.5328 218.6475 L126.8947 219.2106 L127.3461 219.671 L127.6097 220.2966 L127.9225 221.7892 L129.1202 222.6026 L129.6566 222.7457 L129.6699 222.8439 L129.2409 222.8662 L128.0656 222.1422 L127.8466 222.2228 L127.3639 223.1924 L126.6176 224.3231 L125.4781 226.267 L125.3574 226.5396 L125.3841 226.942 L126.0858 228.0101 L126.7427 228.9618 L127.136 228.6222 L127.5517 229.0871 L127.1316 229.4668 L128.2061 233.8747 L128.4544 234.5124 L131.529 235.4418 L131.6095 235.5536 L128.7493 234.785 L128.6332 234.8252 L130.0051 236.9188 L129.5672 239.055 L129.6628 239.3043 L131.2992 239.488 L132.535 239.0716 L132.7195 239.3767 L132.8491 240.8479 L133.5729 240.7529 L133.2804 241.3817 L132.8198 241.082 L131.8694 240.8846 L131.7086 241.3085 L131.3064 241.0674 L130.9336 241.3159 L131.931 248.1483 L131.0446 248.6912 L131.2773 249.3784 L133.7548 246.7831 L133.5281 245.6661 L134.6954 244.5659 L135.3758 245.0193 L135.8461 246.1028 L135.5521 247.8664 L136.2407 250.4026 L137.7777 250.5958 L138.3236 251.251 L138.903 251.9732 L138.3571 251.9816 L137.3913 251.5576 L137.6181 252.158 L138.0639 252.7177 L137.7315 253.8207 L139.0408 254.2956 L140.8484 252.8191 L140.823 252.488 L141.4491 252.2696 L141.9866 252.488 L142.4147 253.2861 L142.1713 254.47 L141.4491 254.6716 L141.0627 255.3771 L140.7941 256.032 L141.4154 256.2505 L142.1713 256.1496 L143.3135 255.6122 L144.1593 255.7731 L145.5686 257.1098 L145.4031 258.0134 L144.9322 258.7264 L144.6266 259.7066 L149.6851 262.7899 L149.1918 263.4047 L149.8683 264.151 L151.2139 264.2983 L152.379 264.8875 L153.4483 265.8295 L154.0083 266.7586 L154.1356 268.0443 L153.8174 269.6865 L153.2889 270.4401 L153.5241 270.5157 L154.2045 270.0034 L154.3136 270.6585 L153.8516 271.809 L152.9158 272.3305 L149.0263 270.6635 L147.1547 270.7805 L146.1164 271.3069 L146.0433 271.8333 L146.5551 272.0818 L146.0142 273.0617 L146.3504 274.1583 L145.0928 275.3866 L144.6103 277.5068 L144.1571 280.0072 L144.1863 281.6448 L145.9994 283.7651 L147.4617 284.2039 L148.3683 284.0576 L148.7026 283.9984 L151.5987 284.2783 L153.9394 283.9699 L156.0305 283.7505 L157.6097 285.7686 L157.9315 286.5289 L158.8965 286.5872 L160.7717 285.2189 L162.8445 284.6718 L163.4733 286.2656 L167.8467 288.7069 L170.886 297.4884 L163.7828 296.8266 L160.7531 296.3937 L159.6076 296.5212 L158.4364 296.9793 L157.2143 297.0048 L155.6867 296.9793 L153.5951 298.9671 L150.5094 301.4282 L150.7522 309.7896 L152.0072 312.3925 L152.4302 313.4395 L152.7743 314.2282 L152.9608 314.3213 L154.1262 316.5761 L154.1885 317.137 L155.1045 318.6953 L156.2264 320.1472 L158.3341 323.2673 L158.5279 323.0735 L158.9247 323.4613 L158.8276 323.9196 L160.0793 326.2289 L160.6786 326.6931 L162.1945 331.667 L162.6 332.0635 L162.6969 332.5748 L163.0672 332.6806 L163.455 334.0996 L164.3539 334.6813 L164.4068 336.1798 L165.1736 337.8543 L165.7642 338.4361 L165.7113 339.238 L167.2097 341.9852 L166.8671 342.6698 L167.2109 343.6216 L167.9688 344.794 L168.2786 344.5097 L168.6808 344.8242 L169.1715 344.6951 L170.4069 346.3838 L172.7634 347.1135 L173.2518 348.741 L173.9578 348.4226 L175.9241 347.2454 L176.2098 346.7243 L176.9502 346.0191 L177.4261 345.8074 L178.0254 344.9615 L178.1754 344.2828 L178.1011 343.4906 L177.5055 341.6826 L176.8004 340.2283 L175.6898 334.226 L175.1257 331.4586 L174.5932 328.225 L174.4207 325.9499 L174.4207 324.8306 L174.5088 324.0373 L174.8085 323.0943 L175.3247 322.2932 L175.9014 321.631 L176.3949 321.2345 L176.5801 320.829 L176.9414 320.9259 L178.969 319.7548 L180.8721 318.6531 L183.7274 318.0345 L187.6443 318.2779 L189.0965 318.1034 L191.0402 317.9928 L195.7479 318.3086 L198.5822 317.8352 L200.3107 317.3479 L202.3609 316.0626 L203.2058 315.4707 L203.6857 314.8225 L203.7043 314.0995 L203.6919 312.9403 L203.7633 312.1922 L206.36 307.4006 L206.4465 307.0945 L206.3047 306.2959 L205.0552 304.8076 L203.3931 304.0833 L203.1815 302.2147 L204.7961 302.8022 L206.9912 303.2497 L207.7316 303.7794 L208.5547 304.2756 L210.0161 304.8163 L210.2327 304.7003 L212.2863 304.1029 L212.9208 303.7672 L213.8076 302.9537 L214.9412 302.0836 L215.5084 301.5727 L216.7396 299.919 L218.0263 299.2666 L219.2354 298.7244 L221.3788 297.5219 L222.3819 296.5692 L227.7142 292.3916 L228.453 291.0308 L229.1934 289.559 L228.9643 288.748 L229.2198 288.5187 L229.8016 288.695 L231.2097 287.7437 L232.3223 287.6111 L234.1381 287.7343 L235.9889 287.3994 L237.4696 287.2055 L238.545 287.3555 L239.7965 287.091 L240.7836 286.8619 L242.3614 284.8257 L243.3236 280.9687 L243.8509 280.2601 L245.5095 276.2445 L246.9534 274.3197 L248.4164 272.6627 L249.5601 271.2355 L252.656 270.565 L254.3395 270.1066 L256.0333 269.1933 L258.5011 266.4172 L259.2928 265.8759 L261.868 264.7159 L263.1732 265.0534 L263.6778 265.0732 L263.9346 265.3867 L272.3957 265.8298 L268.0603 238.1274 L267.898 237.1236 L267.074 237.2628 L266.5052 236.6129 L266.4703 236.3285 L265.8901 236.4736 L265.7334 236.0209 L265.8668 235.7947 L265.507 235.22 L266.6396 234.3333 L267.6901 233.841 L268.9294 233.5947 L269.2249 233.5537 L269.4055 232.9136 L269.668 232.4222 L269.4039 232.3932 L269.1428 232.8151 L268.757 232.5442 L268.1662 231.9041 L268.1579 231.5838 L269.5287 230.7653 L269.4648 230.5565 L269.221 230.336 L268.0218 229.9594 L268.4318 228.8619 L269.0411 228.1073 L268.7453 227.6432 L268.3622 227.4458 L268.4492 227.0395 L268.7453 226.7552 L269.2152 226.529 L269.6389 226.5 L270.109 226.2678 L270.3354 226.0356 L270.1555 225.6119 L269.7086 225.4668 L269.2849 225.1999 L269.1863 224.7589 L269.5868 223.5286 L267.0211 222.3503 L262.9036 220.6454 L257.7887 218.607 L252.3647 216.2812 L252.1209 216.5712 L249.8925 215.341 L243.9497 212.8687 L243.3925 213.0195 L243.0096 212.3581 L239.8394 210.9401 L233.2598 208.8874 L231.4027 208.0055 L227.4273 205.9523 L220.2774 202.772 L217.4701 201.3223 L215.2974 199.7565 L210.492 194.8931 L209.6215 193.2681 L208.3099 189.9835 L207.1609 188.6371 L205.327 187.3488 L205.1645 187.3719 L204.4681 187.3255 L204.294 187.0585 L200.7191 186.2578 L198.5805 185.4588 L195.7862 181.7426 L193.6985 179.5307 L191.0394 178.2914 L190.1284 178.1599 L182.3807 173.7526 L180.6244 173.1044 L177.2019 172.4066 L174.3169 171.5797 L170.6954 167.8487 L168.8407 166.0184 L165.8039 163.2279 L164.2199 162.6863 L159.7962 162.0624 L158.5815 161.7425 L157.4408 161.0039 L156.1193 160.0024 L155.9999 160.2901 L154.6613 161.732 L154.2928 161.949 L153.8428 161.9289 L153.5117 161.7112 L152.9863 160.7155 L152.7278 160.3593 L151.8833 159.9369 L150.6904 159.6403 L149.0321 159.0635 L147.9058 159.1712 L146.5912 159.4499 L145.3713 159.6996 L144.6728 159.9989 L144.0497 160.603 L143.4973 161.3883 L143.2113 162.0619 L142.8349 163.2624 L142.303 163.8138 L143.0618 163.7215 L143.4385 163.8267 L143.6201 163.4244 L143.9869 163.0638 L144.8854 164.1901 L145.1903 164.1643 L145.5824 164.4916 L145.4369 165.0987 L145.2098 166.5713 L144.9308 167.1553 L144.6518 168.0396 L144.0289 167.7978 L143.3735 167.7135 L143.2223 167.3191 L143.5122 165.795 L143.1465 165.0143 L143.2307 164.4641 L143.3801 164.0019 L143.1465 163.8721 L141.9767 164.0203 L141.0831 164.333 L139.4841 164.3953 L137.6765 164.813 L134.539 166.2316 L133.8742 166.4028 L133.5841 166.2822 L133.1641 165.5151 L133.0243 164.6574 L133.5109 163.178 L133.4783 162.5957 L132.7176 162.046 L131.9974 162.1291 L130.713 162.5424 L128.346 163.7101 L127.4441 163.9176 L126.0426 164.1772 L125.0303 164.1965 L124.4788 164.5015 L124.0636 164.8001 L123.7846 164.9689 L123.3304 164.9428 L123.1206 164.6748 L122.7918 162.315 L122.795 160.7026 L121.6188 159.1888 L118.91 157.1953 L118.0713 156.8548 L117.2611 156.7364 L117.1176 156.8223 L117.0916 157.069 L118.0519 158.0357 L118.2531 157.7957 L118.3569 157.9449 L118.4283 158.4574 L117.6885 157.8347 L115.4695 160.6182 L115.2618 160.7544 L117.3706 157.8995 L117.455 157.6659 L116.806 157.0365 L116.3649 156.7833 L115.6835 156.9002 L113.7824 157.7632 L113.0493 158.0876 L109.8698 158.7235 L109.1236 158.8079 L107.5145 158.8143 L106.087 158.2239 L104.8347 157.1663 L103.1282 155.6091 L102.1939 154.9926 L101.459 154.6989 L99.9601 154.18 L98.6316 153.7111 L98.6244 153.9149 L100.2861 155.7913 L99.9072 155.7608 L99.4282 155.4515 L98.9882 155.5257 L98.7878 155.1467 L98.888 154.7764 L98.7792 154.5021 L98.5483 154.3234 L98.2826 154.1189 L94.865 161.8867 M160.0292 240.8891 L163.2261 239.6118 L162.9881 241.5141 L160.3687 242.4791 L160.0292 240.8891 M183.8043 280.2723 L183.8428 279.909 L184.0518 279.7 L184.2938 279.5404 L184.591 279.8376 L184.8275 279.7714 L185.2291 280.4371 L185.0256 280.7123 L184.6844 281.1524 L184.5579 280.8775 L184.1013 280.8388 L183.8043 280.2723 M186.5876 281.8469 L186.6455 280.8353 L187.9715 281.056 L189.8706 283.1411 L191.5097 284.2146 L195.3203 286.2575 L198.5376 289.7333 L201.3227 294.6964 L203.6382 298.219 L205.2257 299.1858 L207.0809 299.4634 L210.9432 301.2928 L209.4543 301.8704 L207.1248 301.1119 L203.4128 300.6136 L201.1411 298.8437 L199.3047 295.1624 L197.091 292.4925 L194.3371 291.305 L191.5316 290.2266 L191.1152 288.6276 L189.1113 286.3294 L188.3222 284.8369 L188.2356 284.551 L187.8541 283.2898 L186.5876 281.8469 M186.854 276.1466 L186.9981 275.8158 L187.3675 276.2944 L187.9161 275.7496 L188.5307 274.9094 L188.5074 274.3805 L188.1029 273.6957 L188.2001 273.6567 L188.8731 274.1003 L189.0327 273.9562 L189.0793 273.4584 L189.8535 273.4896 L190.1763 273.5362 L190.6277 274.287 L190.9777 274.1469 L191.075 273.6528 L191.678 273.7346 L192.7401 273.1705 L192.3744 272.9099 L192.0126 272.5365 L191.8376 272.4197 L191.8997 272.1745 L191.6624 272.085 L191.503 272.6141 L191.219 272.7465 L190.8066 271.7817 L191.464 271.5016 L191.3435 271.1475 L191.6741 271.0463 L191.9114 271.5871 L192.3471 271.626 L192.0048 270.9181 L192.4055 270.7664 L192.8995 271.237 L193.4286 272.3342 L193.8955 271.7971 L193.9849 271.1165 L194.0355 270.7857 L194.4898 271.0312 L195.1356 270.9204 L195.5539 271.1596 L195.5909 271.5856 L195.4702 271.957 L195.052 272.0096 L194.6902 271.9999 L194.8018 272.2873 L194.1599 272.8164 L194.1717 273.2637 L193.4326 273.3612 L192.3744 273.8784 L192.5612 274.1469 L192.5261 274.3998 L191.2811 274.6294 L191.075 274.8355 L190.4721 274.7226 L189.8068 275.3336 L189.1299 275.5203 L188.986 275.8937 L188.2857 276.1506 L187.6166 276.73 L186.854 276.1466 M233.3976 210.1685 L233.5112 209.9371 L233.6463 209.8183 L233.744 209.7421 L233.9166 209.7327 L234.1909 209.8976 L234.4329 210.0869 L234.4799 210.3137 L234.6646 210.6166 L234.615 210.6645 L234.5752 210.7027 L233.9861 210.696 L233.6385 210.5305 L233.4115 210.2767 L233.3976 210.1685 M252.9159 259.7572 L253.0687 259.2508 L253.4865 258.4953 L254.0777 257.9323 L254.9416 256.9841 L255.874 256.7348 L256.2841 256.5176 L256.3242 256.1399 L256.4207 255.5371 L256.686 254.6768 L256.7101 253.9294 L256.6698 253.3183 L257.2004 252.2976 L257.8838 251.6062 L258.5349 251.4294 L259.2444 251.4641 L260.982 251.9759 L261.891 252.5428 L262.4141 252.9332 L262.6301 253.2013 L262.8917 253.423 L264.5102 254.5206 L264.7751 254.3956 L265.024 254.3068 L265.2404 254.3968 L265.4341 254.5054 L265.5479 255.0374 L265.6006 255.4009 L266.2012 256.0095 L267.3099 257.0247 L267.9847 257.5884 L268.3855 257.7166 L268.5456 257.6204 L268.7454 257.4867 L268.987 257.3687 L269.2013 257.4175 L269.3298 257.5175 L269.3536 257.6462 L269.2273 257.8354 L269.2364 257.8999 L269.4853 257.8111 L269.5991 257.8527 L269.6694 258.0915 L269.3375 258.4147 L269.2808 258.5825 L269.3303 258.8754 L269.4493 259.1472 L269.6652 259.3493 L269.6965 259.5132 L269.6273 259.6642 L269.7635 259.8051 L269.9681 260.0196 L270.2419 260.4493 L270.3846 260.7199 L270.434 261.1367 L270.4552 261.4544 L270.3309 261.8087 L270.2094 262.0981 L270.0909 262.4522 L269.7533 262.6573 L269.6389 263.0939 L269.5678 263.4515 L269.2342 263.8971 L268.6072 263.8408 L268.4624 263.6479 L267.8917 263.4872 L267.5622 263.5996 L266.8064 264.1141 L265.6088 264.701 L264.9656 265.0626 L264.3065 265.3361 L263.9527 265.3118 L263.776 264.9904 L263.9156 264.7826 L263.9368 264.2187 L263.8162 263.1334 L263.8001 262.8601 L263.3418 262.6593 L262.7792 262.6833 L262.5622 263.0691 L262.5058 263.3022 L261.8306 264.3231 L261.164 264.6452 L260.5766 264.6849 L259.9577 264.3472 L259.4833 263.7605 L259.2743 263.5031 L258.985 263.4629 L258.7037 263.64 L258.4662 263.9182 L257.8113 264.1704 L256.8467 264.0015 L255.9946 263.7444 L255.4883 263.2058 L255.0899 262.3996 L255.1747 261.9758 L255.5927 261.4454 L254.8613 261.156 L253.6714 261.188 L253.3774 260.8649 L253.3098 260.8986 L253.149 260.3843 L252.9159 259.7572 M99.1426 150.2608 L99.9943 152.0598 L100.948 153.9025 L101.7656 154.519 L102.3041 154.8109 L103.6084 155.6545 L105.0033 157.0819 L106.4698 158.1395 L107.203 158.211 L107.6897 158.555 L108.851 158.4835 L109.753 158.5808 L113.0947 157.8476 L115.4499 156.7511 L115.7809 156.4785 L116.6512 156.3276 L116.5076 155.6091 L113.9329 155.9392 L112.5223 155.2045 L108.5207 150.8088 L107.5414 150.3332 L106.8383 151.4373 L105.6069 150.437 L105.9702 149.8661 L104.8754 148.7005 L104.1488 148.9554 L103.7524 147.8938 L101.8304 146.5579 L100.6288 148.2855 L102.0208 149.3565 L102.8795 149.3848 L103.139 149.8567 L102.2377 149.8284 L102.1859 150.8805 L101.7548 151.4512 L99.619 149.9416 L99.1659 149.8425 L99.1426 150.2608 M112.1567 119.1092 L113.6636 120.6108 L113.6675 122.0133 L116.1178 121.7655 L116.804 122.7233 L115.5926 123.2728 L115.2661 122.6605 L114.5405 122.6484 L114.9034 123.4706 L114.3229 123.7246 L116.391 126.4218 L117.5572 127.6551 L117.5173 128.7656 L119.2876 130.6042 L120.3223 131.3643 L124.5757 129.9237 L125.3076 129.7407 L125.5942 130.0769 L124.9057 131.2412 L124.94 131.6401 L126.6907 132.0401 L127.9631 132.125 L129.0396 132.657 L130.7824 133.4792 L132.8698 133.4131 L133.338 134.2321 L134.5434 133.545 L136.4881 135.101 L137.4583 137.6725 L141.4732 139.8883 L144.3285 140.5473 L149.0988 141.1902 L152.5399 142.5381 L154.0445 141.925 L157.3431 136.4464 L160.8156 131.5014 L161.4324 131.8588 L162.3874 135.3194 L164.2442 135.3293 L164.9455 136.3968 L161.758 137.355 L161.2132 140.2767 L157.221 143.181 L156.1517 144.859 L156.5791 147.8749 L157.8034 150.1858 L154.9985 153.1784 L156.4208 155.9139 L157.4676 158.1328 L159.0209 160.2191 L159.808 160.9959 L161.4235 160.71 L163.1141 159.8565 L164.7362 159.7257 L166.2882 160.8477 L167.2566 162.6042 L167.8065 162.1118 L170.8925 165.4029 L171.3204 166.0812 L171.6221 167.7641 L172.4462 168.6578 L173.3632 168.9945 L175.0577 170.4106 L176.5435 169.7954 L176.4041 170.5148 L175.1855 171.13 L176.497 171.8614 L179.9094 172.5113 L182.288 173.1332 L189.2749 176.9372 L192.7384 178.3981 L194.0597 179.1366 L194.8267 179.8433 L195.2756 180.257 L197.9683 183.8434 L199.0826 184.9345 L201.1137 185.7121 L204.9092 186.7685 L205.4198 186.0022 L205.4663 186.8496 L206.8243 187.6853 L207.7064 188.5674 L208.6048 189.751 L210.6313 194.1155 L211.8849 195.462 L214.0205 196.3207 L215.4597 197.4466 L216.0053 198.5262 L216.2729 199.8051 L217.4687 200.7988 L218.937 201.6565 L222.6047 203.3046 L228.1261 205.6657 L233.3642 208.4233 L240.5468 210.7176 L244.7389 212.7062 L254.7208 216.757 L264.4125 220.8079 L265.0857 220.8426 L265.6661 219.3917 L265.4107 218.231 L265.5269 217.0589 L267.0356 217.3838 L267.1634 218.0338 L267.7901 218.3935 L267.6509 220.2624 L267.0009 221.7827 L268.9544 222.6537 L269.6971 223.056 L270.0627 222.5222 L270.0627 221.8663 L270.2659 221.3382 L270.2484 221.0656 L270.318 220.9435 L271.1306 220.8391 L272.1867 220.6362 L272.001 221.1757 L272.1346 221.4369 L273.5796 222.1449 L273.2488 223.062 L273.1094 223.7466 L273.3242 223.8627 L273.272 225.1744 L272.99 226.4372 L277.8102 231.6568 L279.9764 234.1684 L282.9378 237.1698 L284.6709 238.149 L286.3861 238.8712 L293.0013 241.3251 L299.329 243.5739 L299.5343 243.2455 L300.4289 243.8201 L305.4504 244.3263 L309.8935 245.1877 L319.6931 247.5184 L325.4218 248.4375 L336.3539 249.8 L338.4058 250.0463 L342.0005 249.6195 L344.1344 249.4226 L348.2268 250.4245 L349.7317 251.1461 L355.0993 255.0691 L358.0099 256.9245 L362.8797 258.3192 L367.5744 259.0579 L374.7967 259.5995 L378.8184 260.0756 L380.9851 260.5845 L386.655 261.3951 L387.3104 261.0797 L387.8009 261.1228 L388.2007 260.9106 L388.073 261.191 L388.5387 261.3517 L389.1302 261.6319 L389.5692 261.8814 L390.4843 262.4812 L391.0778 262.782 L391.8363 263.0439 L393.075 263.2355 L394.0044 263.2561 L395.919 263.2209 L397.4586 263.1324 L398.6869 263.1634 L399.2826 263.2003 L399.87 263.2767 L400.5067 263.3982 L402.0607 263.8517 L402.9738 264.0888 L404.1458 264.2195 L404.6989 264.2036 L405.7015 264.0623 L406.7017 263.9462 L406.7595 263.8726 L406.9411 263.8307 L407.0446 263.8676 L407.9208 263.7597 L408.4775 263.7493 L408.881 263.7816 L409.2148 263.8478 L409.532 263.9358 L409.8941 264.037 L410.1007 264.1215 L410.2449 264.2029 L410.3603 264.3055 L410.4386 264.4243 L410.7329 264.3546 L411.6964 264.9314 L411.7209 265.2168 L411.5459 265.3517 L410.948 264.9991 L410.3708 265.6649 L410.032 265.8588 L409.6957 267.3433 L409.3704 267.4569 L409.1802 267.3188 L408.9286 267.2389 L408.677 267.2419 L408.6278 267.1132 L408.499 266.8524 L408.2781 266.9168 L407.9473 266.568 L407.9625 266.0842 L407.0994 266.104 L406.5021 266.1154 L405.7965 266.1172 L405.215 266.0909 L404.0158 266.229 L403.6335 266.3036 L403.2493 266.4715 L402.9689 266.6351 L402.5943 266.9129 L401.2822 267.8211 L400.8563 268.0919 L400.4083 268.3696 L399.8019 268.7074 L399.4553 268.8713 L398.6661 269.2129 L398.1753 269.4554 L397.8486 269.6521 L397.2289 270.1214 L396.0295 271.0887 L394.7591 272.1323 L394.3118 272.508 L393.8487 272.9617 L393.3295 273.5514 L392.8094 274.2652 L392.3847 274.9773 L392.0545 275.6772 L391.7488 276.4535 L392.4836 276.2319 L392.8177 275.7657 L394.0758 275.4955 L394.1917 275.9472 L394.0603 276.9546 L394.4545 277.5787 L395.2211 276.5165 L395.3634 276.0348 L397.0888 276.9231 L397.8498 278.0401 L398.1693 278.4234 L398.7533 278.1757 L398.8109 278.1517 L399.0281 277.9541 L400.4396 277.3528 L401.0494 275.9567 L401.4951 275.4013 L401.0041 274.6155 L400.9861 274.0872 L403.8787 272.2588 L404.3483 272.7867 L407.2573 270.8844 L411.3194 269.4926 L412.3506 270.1187 L412.9844 270.5799 L413.6242 271.4768 L413.8285 271.2003 L413.4561 270.5395 L414.5009 270.0582 L415.3977 269.6221 L415.7133 268.6672 L417.4835 266.6815 L418.3748 266.253 L418.149 265.7834 L418.4451 265.472 L419.1364 265.4355 L419.5037 265.8618 L420.0061 266.7886 L419.1638 267.6915 L418.2553 268.6109 L418.8501 269.5938 L419.1815 269.8658 L420.2543 270.2477 L421.9557 269.5154 L425.1767 269.1971 L425.2419 268.8546 L426.0873 268.9538 L426.613 268.6942 L426.5501 268.2566 L429.1343 267.8521 L431.2106 268.5782 L432.4656 269.8638 L432.1381 270.8584 L431.5136 270.302 L431.3053 270.7438 L430.7574 270.9094 L430.7367 271.2407 L430.4108 271.2516 L430.4036 272.5137 L428.0781 272.2732 L427.8629 272.3691 L427.8617 272.4428 L427.8827 272.506 L427.9622 272.5372 L430.0156 273.1068 L430.4948 273.2045 L430.6044 273.2523 L430.7261 273.3185 L430.7907 273.3862 L430.8388 273.5077 L430.8327 273.6309 L430.8222 273.7081 L431.1613 273.8648 L430.7026 274.2097 L430.6343 275.5007 L431.8002 275.3569 L432.7223 275.5766 L433.4024 275.8731 L436.1332 277.6161 L436.3379 278.263 L435.9346 279.0995 L437.2567 278.9815 L437.8338 279.3229 L438.0952 278.6798 L438.5502 278.4351 L439.0656 279.0755 L440.3916 278.1866 L437.8463 277.0327 L437.1016 276.7967 L436.814 276.0085 L437.1695 275.6653 L437.0577 275.4863 L437.7503 274.9136 L437.9476 275.1377 L438.7301 274.4893 L438.8284 274.2835 L438.8685 274.0763 L438.8318 273.862 L438.6003 273.3044 L438.4505 273.1227 L437.9163 273.8008 L436.6964 274.0847 L434.9995 272.5231 L435.3289 271.9975 L434.6928 270.6704 L433.9012 270.0374 L432.348 268.4361 L433.0303 266.8353 L433.8793 265.8159 L434.5619 266.3773 L438.6925 264.3147 L438.8996 264.2832 L439.0051 264.3717 L439.0033 264.5304 L437.8396 268.3974 L438.6873 268.9697 L439.0072 270.6057 L441.5537 266.6438 L443.183 265.1362 L444.0064 264.4662 L443.9545 264.1862 L443.4221 263.7838 L443.3961 263.6618 L442.7278 263.0634 L442.7486 262.9861 L442.6462 262.3366 L442.5264 262.3453 L442.3647 261.9714 L442.6442 261.7318 L442.8339 261.7018 L443.0734 261.652 L443.313 261.9513 L442.804 262.2957 L442.7221 262.4197 L442.775 262.7426 L442.8226 263.0746 L443.1226 263.3055 L443.1821 263.2534 L443.1102 263.062 L443.1403 262.9119 L443.2408 262.8519 L443.366 262.7795 L443.3529 262.5253 L443.5126 262.3855 L443.837 262.166 L444.4159 262.1859 L444.8056 262.3684 L445.1246 262.7398 L444.8951 263.234 L444.975 263.3288 L445.504 262.8398 L445.6241 262.7096 L445.7333 262.4827 L445.672 261.9352 L446.0092 261.9156 L446.1111 262.1898 L446.268 262.3153 L446.8591 261.595 L448.0557 260.4677 L448.6398 259.6025 L448.9692 258.8809 L449.0005 257.9556 L449.4679 257.9668 L449.2786 258.8546 L449.0946 260.6549 L446.9078 262.326 L446.0402 263.2722 L446.8704 264.0028 L446.7419 265.2989 L447.2532 265.5937 L447.5497 265.653 L447.9309 265.8771 L448.5634 265.319 L449.3384 264.9187 L449.1537 264.7841 L448.9791 264.5096 L449.1388 264.5195 L449.4132 264.764 L449.6078 264.7491 L449.7326 264.6093 L449.7825 264.4097 L449.7876 264.1701 L449.9573 264.2101 L449.9523 264.4198 L449.9523 264.5894 L456.0433 261.4234 L457.3821 260.6556 L457.0911 260.0898 L456.7677 260.1706 L456.4362 260.6961 L455.8945 261.1975 L455.2721 260.9549 L454.7143 261.2054 L454.1564 260.4699 L454.5444 260.1463 L454.1807 259.4755 L455.0457 258.9014 L455.6763 258.4568 L456.5655 259.3783 L457.4225 260.1384 L457.9804 260.1949 L458.9462 259.7686 L458.6786 259.2461 L459.1091 258.3214 L458.9302 257.7699 L463.7697 254.0556 L462.2213 252.4188 L460.5385 252.8017 L455.9468 251.6168 L453.761 251.8113 L449.9879 250.5787 L450.382 247.5184 L451.6116 241.927 L450.4227 242.1138 L448.534 241.9303 L445.2491 241.0382 L443.8346 239.7765 L443.4216 239.7229 L443.7429 240.6865 L444.2551 241.6039 L444.4234 242.7279 L443.911 243.2785 L444.1252 243.9208 L443.8269 244.0049 L442.8419 242.3504 L443.0363 240.7068 L442.5011 239.1624 L443.0546 239.4171 L443.5104 239.5369 L444.2362 239.4975 L445.4985 240.5233 L446.8748 240.9667 L448.557 241.4868 L449.3675 241.5937 L450.2666 239.8437 L450.2109 235.9167 L443.9848 235.2086 L444.4311 234.7299 L451.0943 235.4378 L449.8428 227.9386 L451.1776 227.1531 L451.2432 225.0323 L451.8374 223.1795 L453.1192 223.5258 L453.8443 223.4358 L453.585 224.1914 L453.6515 224.8122 L453.9994 225.0166 L453.6404 225.1116 L453.7624 225.5884 L454.6145 226.1009 L455.8134 226.7239 L456.3822 225.8994 L456.1577 225.6328 L456.5901 225.5442 L456.6678 225.0119 L456.5679 224.402 L456.1909 224.1914 L455.8582 224.4131 L455.825 224.7678 L454.9932 224.5684 L455.3704 224.3575 L455.6032 223.8585 L456.4127 223.8476 L456.3996 223.1245 L457.1447 222.8052 L457.545 223.0017 L457.5216 223.8143 L458.0491 224.995 L459.3125 224.5213 L460.9924 224.7147 L462.0728 225.5517 L461.5632 227.5745 L460.8574 228.0842 L459.9871 227.5981 L459.1481 228.0842 L459.3754 229.3624 L460.8418 229.9034 L461.3985 230.2169 L462.5589 229.7387 L463.0451 229.8327 L463.2725 229.5584 L462.8177 229.0878 L463.0921 228.68 L463.4372 228.688 L463.8841 228.3901 L463.9311 228.1314 L463.5939 227.7236 L463.5308 227.1838 L463.9468 226.8767 L464.825 227.0099 L465.319 226.0612 L465.5699 226.1554 L465.7973 225.9357 L465.6013 225.6613 L465.7976 225.3726 L465.5463 224.9556 L465.8835 224.6733 L465.4131 224.4302 L464.9976 224.5401 L464.9976 224.2655 L464.4094 224.0775 L464.4379 224.3548 L463.9558 224.5922 L463.6861 224.0319 L464.1213 223.5122 L465.4769 223.5286 L466.7931 224.6733 L467.3185 224.297 L467.7791 224.5882 L468.1026 225.1908 L467.6399 225.575 L466.95 225.6613 L466.7696 225.6065 L466.8323 225.4182 L466.55 225.3006 L466.4089 225.4497 L466.3696 225.7476 L465.9148 225.7789 L465.711 226.1395 L466.6917 226.3432 L466.4246 227.3158 L466.7775 227.5745 L467.037 227.4706 L467.6949 226.9316 L467.9066 226.5317 L467.6243 226.1946 L467.9614 226.3122 L468.7534 226.1319 L469.0958 225.32 L469.33 225.2064 L471.2381 225.218 L472.0588 224.8142 L471.941 224.6495 L471.7216 224.4379 L471.8086 224.2824 L474.8039 223.8431 L474.7796 223.9597 L474.8424 224.1321 L474.8666 224.6587 L474.1058 225.1498 L474.8618 225.124 L476.3541 224.9737 L478.0524 224.3704 L478.5343 224.4399 L478.4721 224.9516 L477.7845 225.2066 L477.0083 225.2622 L476.6425 225.4507 L476.4095 225.4396 L476.1878 225.4063 L475.9217 225.5504 L475.8108 225.761 L476.0991 225.8831 L476.2766 225.7833 L477.0528 225.6836 L478.4278 225.3175 L478.5719 225.4063 L477.9176 225.6945 L477.7071 225.9719 L477.705 227.0424 L478.0814 227.2228 L477.9698 227.958 L476.9664 227.9952 L471.8783 230.1427 L471.4711 229.3252 L471.5287 228.8919 L471.658 228.7872 L471.4141 228.3933 L470.3878 228.6728 L470.1831 229.408 L469.5456 230.1566 L469.3737 230.201 L468.9838 229.6023 L467.5505 230.968 L467.5881 232.7236 L467.5293 233.2546 L467.5767 233.7968 L467.319 234.282 L467.3231 234.3866 L467.2742 235.3557 L467.2583 236.5266 L467.8042 237.1484 L467.8042 239.1656 L467.9822 239.5607 L470.6183 239.7556 L471.852 240.1232 L473.0088 240.4226 L474.6099 240.9573 L475.4169 241.2125 L476.6941 241.6088 L477.4216 241.7517 L478.18 241.8581 L478.9362 241.9159 L479.9216 242.0191 L482.1343 242.2958 L483.6581 242.2591 L485.0397 242.1579 L487.2154 241.7631 L489.3853 241.1051 L490.2323 240.4821 L491.1297 239.686 L492.3049 238.463 L494.0219 236.7107 L494.7962 236.1985 L495.7201 235.8401 L496.6948 235.7374 L497.9208 236.0477 L498.1813 236.1065 L498.5952 236.3369 L499.2891 236.797 L499.6058 236.4641 L500.5951 235.9897 L502.2305 234.9849 L502.9237 234.6061 L503.5605 234.2877 L503.9467 233.959 L504.4431 233.65 L503.8634 232.7352 L504.7536 231.7352 L506.4231 230.0346 L506.8169 229.7508 L507.3191 229.8947 L507.6313 230.0718 L508.5028 230.4434 L509.2073 229.7546 L509.3777 229.577 L510.0178 229.3656 L510.6989 228.405 L511.2584 227.381 L511.6468 225.8335 L512.0 224.9313 L511.8987 224.3925 L511.571 224.3131 L510.9039 224.9229 L510.8116 225.7303 L510.2938 225.9079 L509.8574 225.0893 L509.212 225.2726 L508.7129 225.4346 L508.4856 225.3594 L508.8061 223.4901 L507.6684 222.966 L506.4269 223.4869 L505.8734 223.6315 L505.0548 222.4825 L504.727 222.0132 L504.0132 221.8631 L502.873 222.0459 L502.0461 221.8656 L501.315 221.3385 L501.7677 220.7037 L502.3133 219.9927 L502.7963 219.4802 L502.5262 218.8608 L503.1713 218.1578 L504.0831 217.4895 L503.9767 216.8448 L503.2747 216.6939 L502.7653 215.9912 L502.5572 215.3097 L502.1168 215.342 L502.4539 216.2655 L502.3797 216.6999 L501.9617 216.7076 L500.8512 216.9817 L499.7381 215.5985 L497.5704 215.3554 L498.4644 213.9438 L500.2327 213.9525 L501.2851 214.5476 L502.039 214.4181 L501.8836 213.8585 L502.5032 213.369 L503.1636 213.6397 L504.148 213.7831 L504.8743 213.8205 L505.4149 213.0217 L506.3898 212.5749 L506.087 212.3941 L506.0004 211.6657 L505.2957 209.9205 L502.5641 211.11 L502.0746 209.8155 L501.1637 209.0956 L500.8526 208.9132 L499.9017 208.3369 L500.9796 207.2386 L500.568 205.9136 L499.2608 204.1581 L498.07 203.3203 L496.8903 203.8001 L496.5722 203.8373 L494.1772 202.7273 L492.4137 202.283 L491.8354 202.5164 L491.4913 203.6301 L491.0637 203.3783 L490.6395 203.2349 L489.6737 202.4673 L491.0545 201.9048 L492.206 201.1134 L490.9507 199.8426 L490.7148 199.6037 L491.4564 198.812 L490.1152 197.4903 L489.261 197.2588 L489.5318 194.8881 L485.3987 195.5379 L485.1404 194.4871 L484.2623 193.9043 L482.9503 194.5856 L481.9908 194.5774 L481.1017 195.818 L480.6503 195.7887 L480.0667 196.1775 L479.5377 195.7615 L479.2188 196.2383 L479.0002 196.9407 L477.6169 198.6063 L471.2686 194.3383 L470.0826 195.3553 L468.9976 194.8414 L468.9547 193.3344 L469.644 192.72 L468.9538 190.8514 L468.1674 190.7613 L464.7208 191.8253 L465.6606 192.1623 L466.9165 192.6123 L466.8647 193.9782 L465.4862 193.7991 L463.5067 193.5418 L462.2414 194.3809 L461.9486 192.4935 L460.6448 192.4759 L453.0397 194.7797 L451.352 195.7488 L450.8074 196.6291 L450.8132 197.8729 L449.0591 201.359 L447.2592 196.6852 L446.1283 196.3537 L444.3816 193.1483 L445.6522 192.5774 L443.1802 185.6982 L442.4095 185.9982 L441.985 186.0054 L440.5391 185.7178 L439.8908 187.0409 L440.6728 187.0665 L442.1009 187.1134 L442.3021 187.8315 L442.8555 189.8286 L443.4055 191.8072 L443.6799 196.4991 L443.7743 198.114 L443.8102 198.7259 L442.7509 200.0793 L443.4188 203.683 L446.1097 208.4555 L445.4033 210.2886 L446.405 211.276 L450.5941 212.9178 L450.681 215.0919 L449.8413 215.7185 L449.2662 214.7431 L449.06 215.178 L448.8463 216.9073 L448.2004 216.5972 L448.4269 214.0475 L449.0859 214.0604 L449.5311 212.889 L446.3015 211.4635 L445.3351 210.6868 L444.5022 212.371 L443.699 212.1155 L444.7351 209.3623 L442.6412 205.0743 L442.2038 205.3586 L439.0983 197.0102 L439.3248 196.0339 L438.8753 194.9213 L438.1735 194.8293 L435.8759 196.3614 L436.4171 198.3011 L436.2965 199.3578 L436.6666 199.8568 L436.1519 200.3927 L435.1081 198.8551 L434.3097 197.0243 L431.0204 199.1157 L430.5186 198.1011 L430.923 197.3749 L430.1535 194.6901 L428.9324 193.9378 L428.1853 193.4778 L427.677 194.0862 L426.2872 194.705 L426.3991 196.1406 L428.3073 198.6408 L429.2131 199.7736 L426.9108 200.6973 L426.4283 201.9877 L424.8827 201.4305 L424.5731 203.1007 L425.8492 203.781 L425.8997 204.7031 L423.1687 204.2749 L421.8076 205.2931 L420.6864 203.4364 L420.3972 204.629 L417.7678 202.6968 L417.4023 203.9385 L415.6263 203.1143 L414.4593 203.3071 L413.0172 202.8084 L412.1808 204.293 L412.864 204.8907 L412.7977 205.8059 L411.3258 205.6114 L410.657 206.9179 L408.826 207.3252 L407.152 209.1906 L404.7635 207.7336 L404.8545 205.8885 L403.7882 207.0374 L402.5121 206.0285 L401.2462 206.6586 L400.9733 205.9253 L402.1528 203.6219 L400.7427 202.9697 L402.4207 200.8293 L398.6396 201.2511 L398.2656 200.9792 L396.9559 200.8201 L396.5377 200.1644 L395.4435 201.7689 L394.8682 201.8475 L392.262 206.4812 L388.542 209.0482 L387.6445 206.4892 L386.2309 205.3785 L385.1942 205.5968 L385.2363 206.6628 L383.158 207.2548 L383.0871 208.2739 L382.1562 208.0291 L381.3784 207.8192 L380.9336 208.4416 L378.8619 207.39 L376.4816 207.1491 L376.2433 205.2646 L377.182 203.9579 L377.8102 204.427 L377.5719 205.2214 L377.6368 206.0446 L379.8985 206.0161 L380.2382 206.0374 L383.8652 204.3945 L387.5025 202.8518 L390.2958 202.6157 L393.5838 201.4206 L395.2514 198.6738 L394.4544 198.1232 L394.7689 196.2287 L393.222 195.8952 L393.9248 194.106 L391.9841 192.0367 L394.0815 187.6101 L392.0187 187.3481 L389.801 187.0662 L385.7686 189.4239 L385.5253 190.5266 L384.7708 189.1684 L384.6923 187.4734 L383.1129 186.3223 L382.5853 184.204 L386.2268 184.9429 L390.494 185.2017 L391.5681 181.9935 L392.5269 181.5796 L392.6283 180.8126 L392.4404 180.4771 L392.1585 180.222 L391.0178 179.7389 L391.2738 179.2133 L390.065 178.4237 L389.6221 178.9872 L387.8979 177.7363 L389.0987 176.8534 L389.3721 175.7885 L390.6388 176.1146 L391.3383 175.0525 L389.9432 174.6567 L389.3187 175.2562 L388.4982 174.9664 L387.9479 175.5356 L383.2839 176.7983 L385.6469 178.2475 L386.7668 177.4124 L387.4231 177.9303 L383.5957 181.7089 L381.7451 180.2044 L382.861 176.6241 L378.6225 177.2159 L378.4046 177.9894 L379.3806 178.7976 L379.5335 180.1448 L377.4618 181.1461 L375.0355 181.5429 L375.6575 178.8976 L373.8287 178.8197 L372.612 180.3287 L369.05 180.5741 L369.5353 179.1016 L363.5965 178.1782 L362.3534 179.1436 L361.6567 177.6348 L365.2829 175.9553 L364.146 175.4361 L363.1033 172.7709 L361.9573 172.4954 L361.173 170.7756 L361.7392 169.1573 L359.9412 166.5004 L358.2168 166.7945 L356.5879 167.9264 L355.3974 165.8308 L352.11 163.3209 L351.2648 160.2811 L352.9839 158.8312 L354.9597 155.5508 L349.5578 147.6031 L349.2879 147.6543 L347.6026 145.3257 L344.8785 142.8261 L341.525 142.0069 L339.9297 142.7044 L333.1789 141.0636 L331.4412 136.3223 L329.8787 131.9681 L328.7437 129.7462 L329.373 128.1549 L332.1237 126.6653 L331.8717 124.7139 L333.038 122.117 L334.9934 120.3568 L333.8631 117.6009 L330.4157 117.4916 L328.31 114.907 L327.9718 112.5656 L327.272 111.5849 L324.216 112.3645 L322.9792 112.2677 L322.281 110.7555 L331.7237 103.9985 L326.2245 101.2821 L322.4939 105.2606 L320.7154 106.7554 L318.2465 105.8541 L316.6621 104.7466 L320.9897 99.6859 L318.1735 98.9479 L312.9956 97.275 L312.4558 94.8113 L310.4686 95.1575 L310.2419 94.935 L310.2182 92.2786 L309.6216 92.1099 L309.0442 91.8715 L308.4559 92.1482 L308.0529 92.9717 L307.295 92.81 L305.5685 90.1006 L305.7726 89.3097 L305.2773 88.8445 L304.678 89.3159 L303.7402 89.3797 L302.7962 90.1108 L301.5096 89.8416 L299.431 89.6576 L299.1986 88.7464 L298.5934 88.4208 L297.5037 88.4494 L296.0539 87.9753 L294.9304 88.0352 L294.606 89.0206 L293.4024 88.8833 L292.1698 88.7593 L291.9439 88.3503 L289.8777 88.1839 L288.9108 87.8164 L289.236 87.5879 L289.4046 86.9236 L289.7214 86.2756 L289.2665 86.256 L288.7901 86.6516 L287.9552 86.9519 L286.8531 86.8453 L286.4242 86.0146 L286.6454 85.2174 L288.2385 85.2353 L288.9377 84.563 L287.4266 83.2298 L289.0276 81.271 L290.8748 78.651 L286.9159 77.6772 L287.7524 76.2588 L293.584 77.5863 L295.62 77.9852 L293.7409 75.9349 L288.4948 73.5972 L284.9773 71.3034 L285.4433 69.6755 L285.3876 68.0222 L286.5919 66.3203 L282.4788 65.4186 L282.3122 68.5846 L278.2117 70.1544 L278.2464 75.8537 L278.4058 80.89 L274.9091 81.2355 L268.2134 81.9088 L265.6808 83.5244 L267.6793 84.8878 L268.145 85.6677 L264.9417 85.7223 L265.0148 88.3749 L265.3044 88.8323 L265.2999 90.5469 L264.7977 91.3284 L260.4956 93.0683 L257.9312 93.0534 L257.5696 94.2925 L259.5124 94.6601 L258.7876 97.7592 L256.7539 97.6574 L256.7289 101.824 L256.3547 105.3674 L257.3097 108.2999 L255.4529 108.2899 L252.1464 106.8498 L251.8411 113.5861 L252.8118 113.8592 L253.3253 116.7865 L251.4685 116.8635 L249.0215 111.9747 L244.7867 110.2639 L243.3902 107.3315 L240.6473 107.4929 L240.2982 106.6933 L236.8993 105.9633 L238.8672 101.896 L236.7396 102.77 L234.6934 105.1538 L233.7196 105.1464 L232.6378 108.8635 L229.5442 108.8461 L229.9936 107.3414 L228.5798 107.334 L227.7798 108.1285 L224.287 108.1087 L225.7086 106.7852 L225.098 105.4518 L222.3583 105.0818 L223.5136 104.024 L224.3183 102.5217 L226.2628 102.5341 L226.8092 99.7878 L221.4173 99.4923 L221.4189 99.1372 L222.9297 97.9055 L222.4162 94.9755 L223.9301 93.0335 L219.7716 93.1058 L220.3301 91.6525 L221.1008 89.5786 L221.8119 87.9875 L220.6164 86.4673 L220.3261 86.9904 L220.0429 87.607 L219.6775 88.8115 L219.37 90.1389 L218.9779 90.8735 L218.5209 91.6304 L217.4754 93.4768 L217.2344 94.156 L213.1605 89.6039 L209.1462 90.2799 L208.5919 91.4933 L207.9284 91.5845 L206.8666 91.3066 L205.3826 91.2956 L203.1527 90.9706 L202.957 89.9904 L203.2687 89.2523 L203.7536 88.9361 L203.7325 88.4511 L203.469 88.2192 L203.1106 88.2192 L201.9933 89.0099 L200.8548 89.5054 L199.7373 90.2958 L198.4513 90.2539 L197.9453 90.9072 L198.1667 91.7824 L199.3262 92.0774 L199.4843 93.4162 L200.2433 94.0171 L202.71 93.8379 L202.4465 95.2081 L200.9918 95.5138 L200.8864 96.9685 L199.9453 97.0227 L198.7353 99.7207 L198.0939 99.8039 L197.9862 100.3644 L198.4065 101.4855 L198.9993 101.7011 L199.0101 103.253 L198.7945 103.5118 L198.2772 103.7382 L198.2772 104.0506 L199.8077 103.7705 L199.9599 104.0439 L199.5901 105.134 L199.9502 105.8705 L200.4545 106.6591 L200.1553 107.3811 L199.285 107.5721 L197.9909 106.819 L197.2217 106.5607 L197.0891 106.9238 L196.585 107.4643 L195.6541 108.3403 L194.9628 108.8441 L194.3454 108.3336 L193.5993 108.4051 L193.2542 107.7586 L194.0192 106.8749 L194.3645 105.6351 L194.192 104.0506 L194.7849 103.5118 L194.6772 103.3501 L193.761 103.8028 L191.6956 103.7263 L190.3045 103.4283 L190.0432 102.9449 L189.9114 102.1421 L190.1178 101.162 L188.6089 100.386 L187.8004 99.6638 L188.1131 98.3381 L187.9621 98.3381 L187.5094 99.6532 L186.8783 99.7416 L186.5897 100.4401 L185.8926 100.235 L186.162 99.2973 L185.5187 99.0279 L181.9367 99.2762 L179.7199 100.416 L179.8185 98.5561 L178.3234 96.9522 L179.8326 95.8943 L179.6604 95.0077 L179.3458 94.6422 L179.1611 94.5401 L179.1188 94.4579 L179.1154 94.3084 L178.8485 94.2449 L178.6316 94.1137 L178.4528 93.8816 L178.4536 93.7398 L178.3955 93.6466 L178.122 93.5299 L177.9775 93.5446 L177.8311 93.6017 L177.7524 93.7129 L177.779 93.8649 L177.7978 94.1463 L177.735 94.2297 L177.7291 94.3459 L177.7367 94.5794 L177.8579 94.7115 L177.9238 94.8078 L177.9376 94.9337 L177.965 95.0244 L178.0981 95.087 L178.2255 95.1153 L178.3608 95.1431 L178.6434 95.2762 L178.5745 95.3584 L178.419 95.4418 L178.3077 95.4907 L178.2324 95.5541 L178.1698 95.5978 L178.0868 95.6154 L177.9994 95.598 L177.8791 95.4602 L177.6143 95.2998 L177.4293 95.1625 L177.2555 95.0924 L177.2012 95.0897 L177.1082 95.0671 L177.0246 95.1255 L176.9846 95.1952 L176.9491 95.3542 L176.922 95.4639 L176.9327 95.569 L176.8844 95.6906 L176.8005 95.7979 L176.6498 95.8677 L176.4248 96.0224 L176.2864 96.1756 L176.2094 96.2064 L176.096 96.2094 L175.9532 96.165 L175.8025 96.1235 L175.5243 95.9636 L175.2694 95.892 L174.8348 95.7428 L174.6313 95.6713 L174.4655 95.5983 L174.2906 95.5064 L174.1674 95.5315 L174.0753 95.639 L173.8122 95.6194 L173.7408 95.6529 L173.5006 95.6077 L173.5576 95.3365 L173.5875 95.0065 L173.5271 94.8503 L173.4842 94.7751 L173.4486 94.7105 L173.3998 94.6233 L173.3257 94.5213 L173.293 94.4048 L173.2321 94.2384 L173.2246 94.1927 L173.1496 94.1545 L173.0497 94.158 L173.0137 94.0852 L173.1048 94.04 L173.1196 93.9824 L173.1247 93.921 L173.1103 93.8485 L173.103 93.7812 L173.084 93.698 L173.0538 93.6332 L173.0419 93.5279 L173.0147 93.3844 L172.9666 93.2307 L172.9043 93.0643 L172.8811 92.9761 L172.8446 92.9222 L172.834 92.8686 L172.8254 92.8582 L172.7598 92.8721 L172.7139 92.9029 L172.6878 92.919 L172.6117 92.9133 L172.5663 92.8979 L172.5131 92.887 L172.4716 92.8959 L172.4421 92.9299 L172.4136 92.9813 L172.4359 93.105 L172.4664 93.1753 L172.4991 93.2103 L172.5307 93.2751 L172.5323 93.3064 L172.5217 93.3665 L172.4905 93.4197 L172.4713 93.4408 L172.4262 93.405 L172.3983 93.3861 L172.3214 93.337 L172.2386 93.3005 L172.166 93.2796 L172.1004 93.2667 L172.0008 93.2756 L171.9299 93.2761 L171.8712 93.2356 L171.7946 93.3005 L171.734 93.2518 L171.65 93.1924 L171.4577 93.1584 L171.3655 93.0966 L171.2958 93.0551 L171.1961 93.0044 L171.1285 92.9781 L171.0342 92.9853 L170.9165 93.0069 L170.8321 93.0097 L170.7649 93.0062 L170.7067 93.0042 L170.6447 92.9796 L170.5304 92.9148 L170.4474 92.885 L170.338 92.8321 L170.204 92.8197 L170.1551 92.814 L170.0786 92.8346 L170.0474 92.8905 L170.0028 92.9712 L170.0069 93.0129 L169.9887 93.0707 L169.9272 93.0976 L169.8646 93.1182 L169.7843 93.106 L169.6609 93.1112 L169.5997 93.1775 L169.5212 93.2329 L169.4581 93.3255 L169.3742 93.4326 L169.3335 93.4862 L169.2457 93.5319 L169.14 93.5006 L169.081 93.4005 L168.9664 93.2135 L168.8626 93.0817 L168.7773 92.9667 L168.6331 92.8666 L168.5255 92.7973 L168.4956 92.6836 L168.5321 92.5979 L168.6273 92.6108 L168.841 92.6679 L168.9412 92.6712 L169.0605 92.6491 L169.127 92.654 L169.2296 92.6774 L169.3033 92.7211 L169.4162 92.7916 L169.4095 92.8475 L169.3398 92.9145 L169.4378 92.9816 L169.554 93.0099 L169.6019 92.9925 L169.7169 92.9123 L169.9342 92.8515 L169.8182 92.7745 L169.7467 92.6925 L169.6299 92.6535 L169.5574 92.6369 L169.5269 92.622 L169.3512 92.5232 L169.2765 92.4889 L169.1554 92.4432 L169.0257 92.3901 L168.9531 92.3421 L168.7026 92.254 L168.5443 92.1671 L168.2478 92.0759 L168.1132 91.9768 L168.0321 91.921 L167.9156 91.8616 L167.7615 91.7553 L167.6026 91.6575 L167.5204 91.5775 L167.431 91.4653 L167.344 91.429 L167.2901 91.54 L167.3571 91.6128 L167.3814 91.7434 L167.3611 91.8546 L167.3593 91.8989 L167.3888 91.9724 L167.4054 92.0002 L167.3949 92.0372 L167.3484 92.026 L167.3288 92.0183 L167.2576 91.9873 L167.1867 91.9629 L167.098 91.9694 L167.0252 91.9883 L166.9744 92.0213 L166.9701 92.0513 L167.013 92.1268 L167.0234 92.2011 L166.9737 92.2438 L166.9155 92.2872 L166.8724 92.3449 L166.8762 92.4616 L166.8533 92.5396 L166.8089 92.5684 L166.7619 92.588 L166.6674 92.5679 L166.6359 92.552 L166.5557 92.4775 L166.5061 92.4395 L166.3971 92.401 L166.2392 92.3742 L166.0466 92.3471 L166.0261 92.396 L166.0884 92.4218 L166.1571 92.4569 L166.227 92.4782 L166.2786 92.516 L166.4101 92.5862 L166.4709 92.6178 L166.609 92.6645 L166.6874 92.6645 L166.7585 92.6727 L166.9276 92.7295 L167.0483 92.7715 L167.0149 92.8326 L166.9784 92.8689 L166.9717 92.9285 L166.978 92.9781 L166.9889 93.0062 L167.0165 93.0221 L167.0713 93.0866 L167.1112 93.1331 L167.1204 93.184 L167.0642 93.2518 L166.9457 93.2875 L166.8548 93.3638 L166.8563 93.479 L166.8937 93.5232 L166.9243 93.5408 L167.0339 93.5408 L167.0918 93.5394 L167.1464 93.6044 L167.3462 93.7355 L167.4166 93.7932 L167.4689 93.785 L167.4965 93.7403 L167.4841 93.6799 L167.5629 93.661 L167.6689 93.7278 L167.7608 93.8085 L167.8419 93.8915 L167.8921 93.8686 L167.9884 93.8177 L167.9986 93.889 L168.0678 93.9481 L168.1509 93.9901 L168.167 94.072 L168.1816 94.1187 L168.2527 94.1639 L168.3203 94.2474 L168.3291 94.3146 L168.3003 94.4192 L168.3244 94.4423 L168.431 94.4927 L168.4975 94.553 L168.5487 94.632 L168.4537 94.6787 L168.358 94.6862 L168.2558 94.5853 L168.1578 94.4912 L168.1003 94.4778 L168.0246 94.4761 L167.8833 94.4343 L167.8204 94.3656 L167.7161 94.334 L167.6745 94.256 L167.6729 94.225 L167.6701 94.1955 L167.6244 94.1448 L167.4602 94.0214 L167.2429 93.9454 L167.1622 93.8719 L167.0691 93.821 L167.0182 93.7733 L166.8438 93.664 L166.7574 93.6126 L166.5219 93.551 L166.451 93.5952 L166.4137 93.635 L166.2711 93.7301 L166.1214 93.7105 L165.9231 93.5818 L165.863 93.5115 L165.7764 93.4835 L165.7421 93.4755 L165.7211 93.4333 L165.7224 93.375 L165.7462 93.3372 L165.7654 93.3159 L165.823 93.3062 L165.883 93.3141 L165.9201 93.3258 L165.9528 93.3866 L166.0316 93.4505 L166.0848 93.4601 L166.1446 93.4654 L166.1969 93.4572 L166.2465 93.3951 L166.2955 93.3454 L166.3614 93.2568 L166.4223 93.0924 L166.4435 93.0275 L166.4634 92.9642 L166.4915 92.8761 L166.4494 92.7345 L166.4092 92.7122 L166.3632 92.6831 L166.2805 92.6533 L166.1989 92.6424 L166.1241 92.661 L166.082 92.7405 L166.0573 92.7578 L165.9937 92.8681 L165.9621 92.9131 L165.9417 92.9669 L165.8758 93.1112 L165.8658 93.1564 L165.8353 93.2215 L165.7891 93.1912 L165.7297 93.1929 L165.6707 93.2324 L165.5511 93.1895 L165.6122 93.0109 L165.6479 92.8572 L165.6615 92.7109 L165.6244 92.5982 L165.529 92.5269 L165.372 92.5239 L165.1815 92.6091 L165.05 92.7946 L164.972 93.0804 L164.7541 93.0477 L164.6387 92.9118 L164.6698 92.542 L164.67 92.4338 L164.6893 92.2756 L164.8857 91.87 L166.245 89.9069 L163.6978 86.6114 L160.8672 86.7753 L160.6966 85.3547 L156.7185 85.0691 L158.5095 80.9092 L158.5173 79.4041 L156.5682 80.0126 L155.5897 81.0731 L155.1764 75.3954 L154.2965 74.3274 L154.3998 71.4015 L154.3231 69.1834 L161.8473 67.9812 L163.1624 70.3807 L170.0618 69.9733 L170.2293 71.9256 L171.5554 71.933 L171.8247 71.3121 L174.2983 71.7691 L174.1981 73.9846 L176.858 72.9365 L181.6236 74.7347 L186.4878 74.7596 L189.9697 68.8382 L184.3039 69.6057 L183.7323 67.9649 L179.0028 68.6022 L173.6908 69.638 L174.8478 68.2247 L176.5339 67.0796 L176.4859 66.3473 L174.6363 64.9561 L173.7112 65.8252 L170.8822 65.2763 L170.8744 66.784 L163.0011 67.2758 L161.6782 66.471 L155.5771 66.086 L152.8817 67.6874 L149.7376 66.4984 L148.4146 65.783 L147.2186 67.9698 L147.3687 68.9984 L147.3796 70.0188 L147.6643 70.1561 L148.6307 75.3631 L148.9783 76.7838 L147.9935 79.26 L146.4013 79.2526 L143.2248 77.8195 L138.5406 77.1737 L136.4177 77.2532 L134.91 77.9536 L132.2642 76.523 L131.0023 81.3935 L129.8344 85.0244 L128.1452 86.8771 L125.4054 86.7753 L123.8195 85.4392 L124.3549 84.4656 L127.09 85.8092 L127.187 84.036 L123.6614 81.4481 L121.9518 87.5576 L120.0366 92.554 L118.7098 94.4905 L116.8189 93.3995 L114.7187 97.1997 L114.1018 98.687 L115.2448 99.1357 L115.2915 100.4046 L116.7101 100.5141 L116.8449 101.7232 L114.1114 101.3795 L114.3216 102.0328 L113.139 102.3037 L112.9388 104.4034 L112.7778 107.1244 L113.2794 110.3334 L113.932 110.2706 L114.6214 110.7786 L114.1427 112.213 L115.1897 113.2338 L114.4621 115.4162 L113.5108 114.8521 L112.3413 114.1584 L112.1567 119.1092 M118.7674 125.1022 L119.9284 124.4493 L120.3154 125.9007 L121.0894 126.9166 L120.3517 127.4486 L119.7833 126.7713 L119.4808 126.6988 L118.7674 125.1022 M120.8995 122.5562 L120.9509 122.2054 L123.012 122.2226 L123.4138 122.77 L123.2513 123.6509 L122.1824 123.5652 L120.8995 122.5562 M265.9347 88.2986 L265.9563 88.1323 L266.512 88.2828 L267.0461 88.1089 L267.7406 86.9757 L268.1323 86.1703 L268.5043 85.9334 L269.2195 85.7215 L269.6877 85.7697 L269.4989 86.5063 L268.8796 87.4823 L268.2997 88.1784 L267.9357 88.4563 L267.2356 88.6143 L266.5845 88.5629 L265.9347 88.2986 M278.1309 92.4278 L279.2809 89.6052 L279.8167 89.7095 L280.1501 89.776 L280.7402 91.013 L281.2976 90.5841 L281.156 89.8458 L281.5451 89.1058 L282.0418 89.6258 L282.3172 90.452 L282.2986 91.2927 L281.4482 91.5109 L280.4991 91.8879 L278.9686 92.6831 L278.1309 92.4278 M279.0397 81.3637 L279.6199 80.8789 L280.0111 79.8134 L280.6732 78.7407 L281.1684 78.7345 L281.3693 78.8669 L281.8156 79.4426 L281.5109 80.7107 L281.0824 81.1218 L280.3238 81.4126 L279.4497 81.8805 L279.0397 81.3637 M323.1001 189.951 L324.7655 187.8965 L324.6682 186.1094 L326.6862 184.5536 L327.3669 185.1248 L327.136 186.997 L329.0446 187.9208 L330.4182 189.9023 L330.3939 190.3522 L329.0201 189.8537 L327.063 190.8383 L326.0297 190.7896 L325.2639 191.665 L323.3553 191.1909 L323.1001 189.951 M337.5544 185.8719 L338.4782 184.4618 L338.5997 184.5226 L338.6362 186.7717 L338.0649 188.3639 L337.7124 189.057 L337.5544 185.8719 M347.1572 178.1529 L347.8534 176.0039 L349.0654 176.0297 L349.4092 176.5886 L349.7272 176.193 L349.9508 176.4424 L348.3262 179.5369 L347.2087 178.7805 L347.1572 178.1529 M354.0336 177.9102 L355.2285 175.6411 L355.9505 175.1423 L358.2198 174.7899 L358.8904 174.068 L359.5952 175.0478 L360.1195 176.7928 L360.0077 177.2571 L359.2169 176.3546 L358.1253 177.6179 L356.0192 179.552 L354.0336 177.9102 M459.3455 217.976 L459.6956 216.8279 L459.7656 215.9038 L460.8295 215.7639 L462.2016 216.7999 L462.3276 218.1578 L461.3756 218.8298 L459.4016 218.9278 L459.3455 217.976 M469.8825 202.2378 L470.7885 201.5821 L471.4083 202.3331 L471.3367 202.798 L470.2638 203.7041 L470.0256 203.3939 L470.4666 202.965 L469.8825 202.2378 M480.9589 200.8276 L481.0251 200.476 L482.0168 199.8806 L482.3515 199.0911 L482.0313 198.7929 L481.8752 198.4753 L482.0465 198.1011 L482.2975 197.924 L482.6751 197.9359 L482.6009 198.3706 L482.9223 199.2065 L483.3442 199.7952 L483.6188 200.509 L484.4365 200.6127 L484.9752 200.7946 L484.8825 201.4665 L484.2704 202.245 L483.7987 202.7454 L483.278 202.5688 L480.9589 200.8276 M481.0599 210.2782 L481.4222 208.7669 L481.6402 208.2263 L483.0433 207.0469 L483.6589 207.7606 L483.3963 207.9894 L483.5632 208.8477 L481.0599 210.2782 M483.6183 212.7067 L484.7377 212.4484 L484.8306 212.3963 L485.5204 212.6655 L485.6287 212.5866 L485.5133 212.2584 L485.7154 212.2041 L485.9323 212.6387 L486.2139 212.8223 L486.1874 213.1902 L485.6058 213.2998 L484.6956 214.0247 L484.3957 214.0113 L484.2255 213.7121 L484.7817 213.5089 L484.4126 213.1688 L483.9913 213.3082 L483.7683 212.9542 L483.6183 212.7067 M485.9346 211.496 L487.0725 210.5518 L487.5362 211.8754 L487.4855 212.1788 L487.7216 212.6171 L487.2326 212.6506 L486.5331 212.3641 L486.1201 212.0016 L485.9346 211.496 M486.2549 213.9403 L487.7975 213.1817 L488.5981 213.7379 L487.4518 214.3365 L487.6204 214.8255 L489.7277 213.7295 L489.2303 214.9096 L490.8992 215.112 L490.8655 215.4154 L490.0226 215.2048 L489.4495 215.3732 L488.5139 214.8421 L488.1093 215.2551 L488.3368 215.7778 L487.7469 215.9296 L486.3982 215.4829 L487.0136 214.2606 L486.2549 213.9403 M486.5325 208.9606 L486.6399 208.6389 L487.3194 208.1201 L487.7275 207.8656 L488.0951 208.0851 L488.5292 208.6029 L489.0535 208.918 L489.2651 209.4771 L488.9775 209.5543 L488.9181 209.5295 L488.8124 209.5828 L487.8423 209.3586 L487.2245 209.2812 L486.6577 209.2288 L486.5325 208.9606 M486.8929 220.6402 L486.9604 220.5722 L487.6948 220.1483 L488.2955 219.2523 L488.7459 219.568 L488.8826 220.6129 L488.8422 221.6542 L488.2999 222.4118 L487.629 222.4252 L487.1983 221.7718 L486.8929 220.6402 M490.5939 205.2321 L490.645 204.8044 L491.2936 204.1777 L493.0664 205.0644 L493.2483 205.304 L492.5479 206.0865 L491.8774 206.1059 L490.5939 205.2321 M491.9009 204.0611 L493.3302 203.1205 L494.0236 203.0808 L494.6437 203.7567 L494.71 204.297 L494.3544 204.7624 L493.7794 204.8126 L493.0414 204.7761 L492.3344 204.5193 L491.9009 204.0611 M493.9231 206.2354 L494.0889 205.4894 L494.759 205.3283 L496.0158 205.8846 L496.7364 206.5658 L497.0605 206.8226 L496.8174 207.3004 L496.106 207.7115 L495.7257 208.1543 L495.2753 207.4545 L494.4072 207.1523 L493.9541 206.6534 L493.9231 206.2354 M497.6855 235.3264 L498.0155 234.6664 L497.9513 233.7194 L498.7942 233.1356 L499.3394 232.0511 L500.0976 232.4001 L499.8353 233.2035 L499.6473 233.5952 L499.2556 234.0714 L498.5585 234.8415 L498.2868 235.4581 L497.6855 235.3264 M500.4995 225.0851 L500.8905 223.6022 L501.6716 223.4244 L502.2468 223.634 L502.1665 224.1928 L501.3953 224.8427 L500.826 225.2706 L500.4995 225.0851 M502.1831 224.9075 L502.5034 224.9576 L503.034 225.2225 L503.9674 225.5395 L504.2681 225.8032 L504.3229 226.6098 L504.2484 226.9085 L503.9315 226.935 L502.8297 226.7418 L502.6235 226.1569 L502.1831 224.9075 M144.029 381.4382 L144.0552 381.6364 L144.1403 381.8861 L144.4279 382.2265 L144.8403 382.5076 L145.6218 383.0078 L145.8612 383.2473 L146.4182 383.768 L146.7007 384.0729 L147.0006 384.6382 L148.1886 386.5743 L148.6581 387.2842 L149.2782 388.1844 L149.5868 388.6414 L150.29 389.6262 L150.5366 390.0746 L150.7344 390.5283 L150.776 390.8593 L150.787 391.3499 L150.7533 392.1386 L150.8422 392.7541 L150.9546 392.9825 L151.2845 393.5128 L151.9961 394.4704 L152.1841 394.7153 L152.5309 395.0856 L153.3994 395.9817 L153.7947 396.4174 L153.8591 396.5046 L153.9206 396.6485 L153.9767 396.7979 L154.0136 396.9688 L154.0233 397.1994 L154.0086 398.4947 L154.0432 399.1481 L154.0258 399.373 L153.9776 399.8282 L153.9594 400.1965 L153.8339 400.9928 L153.7036 401.6236 L153.5657 402.1868 L153.4749 402.49 L153.3874 402.7198 L153.0705 403.3769 L152.7336 404.2452 L152.6098 404.6999 L152.5792 404.8352 L152.5883 405.1821 L152.6336 405.3315 L152.8 405.5816 L153.1793 405.9197 L154.0324 406.6639 L154.3284 406.9336 L154.5354 407.157 L154.6907 407.4369 L154.8994 407.8742 L155.1158 408.3931 L155.265 408.7975 L155.2906 409.0905 L155.2808 409.429 L155.301 409.7002 L155.442 410.151 L155.5094 410.3741 L155.6442 410.7324 L155.917 411.5549 L156.0748 412.1384 L156.1625 412.4573 L156.2707 412.9672 L156.3186 413.6423 L156.3369 413.7726 L156.3333 413.9474 L156.2647 414.1584 L156.1744 414.3828 L156.0138 414.5948 L155.8142 414.8058 L155.655 414.9083 L155.26 415.1785 L154.7136 415.5074 L154.2993 415.7964 L153.9904 416.0326 L153.6678 416.3414 L153.414 416.6601 L153.3832 416.702 L153.2211 417.0155 L153.0682 417.3961 L153.0168 417.7426 L152.9794 417.961 L152.9756 418.3307 L153.0539 418.7009 L153.169 419.0023 L153.2617 419.2061 L153.5942 419.5946 L153.9756 420.1332 L154.1669 420.4695 L154.5021 421.0824 L154.7047 421.4477 L154.8631 421.8909 L155.1236 422.515 L155.2041 422.845 L155.2617 423.1672 L155.2798 423.3685 L155.3315 423.7234 L155.2493 424.1119 L155.1011 424.3353 L154.8895 424.5777 L154.5194 424.8592 L154.3544 424.9791 L154.1074 425.4684 L153.9563 425.8547 L153.6884 426.6926 L153.6263 426.9071 L153.4364 427.4117 L153.1857 427.8723 L152.9396 428.1776 L152.6858 428.4829 L152.4458 428.6914 L151.5804 429.3671 L151.2868 429.7017 L151.2425 429.9183 L151.1347 431.4921 L151.0904 431.6298 L151.0395 431.7729 L150.645 432.5462 L150.4015 432.7787 L150.0148 432.9218 L149.6754 433.1323 L150.4876 433.5864 L152.1581 434.7288 L153.6219 436.7886 L155.7514 440.6043 L157.3697 441.7477 L158.8011 441.7481 L164.0765 440.2819 L166.152 440.7853 L167.9298 441.7744 L171.1706 446.2586 L172.4337 446.886 L173.8623 447.0439 L177.6727 446.0303 L179.5273 445.7347 L181.181 445.9214 L181.9624 446.1016 L184.528 446.0932 L186.3253 445.2242 L187.366 444.6419 L187.3037 444.3436 L187.03 443.735 L187.4961 443.6887 L188.0085 443.4788 L188.2737 443.8058 L189.4998 442.5872 L190.1765 441.7479 L190.9049 440.1069 L192.1248 437.8805 L195.1124 435.6058 L200.0152 432.4687 L201.7758 430.4286 L202.3094 429.5127 L202.7966 427.5184 L203.8128 425.817 L208.1934 421.9226 L210.4114 419.1563 L215.8902 409.1868 L216.5829 406.4985 L220.0979 403.8316 L221.3812 396.7003 L225.5036 391.8803 L226.1958 388.1853 L226.2938 384.1713 L228.1265 380.7506 L229.4794 377.7549 L232.6187 375.6492 L233.1554 375.0715 L233.375 375.2657 L233.8192 374.667 L233.9966 374.7155 L234.2048 374.5803 L234.5218 373.8044 L234.6948 373.8346 L235.1875 373.1268 L235.7904 372.0358 L236.0143 370.888 L236.3542 370.5647 L236.4572 369.8656 L236.8099 369.6954 L237.1869 369.3359 L237.6846 367.7677 L237.5501 367.3433 L237.4627 367.1689 L237.4725 366.8523 L237.5759 366.5907 L237.7179 366.4485 L238.1053 366.3503 L238.5327 363.8927 L238.7996 362.8461 L239.7468 359.9573 L239.8611 359.3443 L239.7397 358.9288 L239.8844 358.7514 L240.0654 358.7469 L240.5239 356.8238 L240.8766 355.0056 L241.2762 353.4253 L240.8436 353.3183 L239.8797 354.6858 L239.5786 354.9752 L239.1772 354.6392 L239.63 353.9204 L240.3581 353.4233 L240.4002 353.0289 L240.1854 352.8842 L240.1762 352.3847 L239.8582 352.4302 L239.5039 352.0531 L239.5273 351.9575 L239.854 351.8851 L239.6697 351.1009 L239.3687 350.7111 L239.1329 350.7743 L238.6498 350.1559 L238.8201 350.0857 L238.9835 350.0835 L239.0232 350.3144 L239.1982 350.5558 L239.4233 350.4376 L240.3769 349.4299 L240.7645 348.886 L240.9098 348.9236 L241.0304 348.7182 L240.9662 348.5247 L240.7924 348.2715 L240.3789 347.9186 L240.4723 347.7873 L240.838 348.1681 L240.9543 348.1617 L241.2979 348.376 L241.8631 348.4982 L242.128 348.3669 L242.6645 347.6413 L242.6592 347.4798 L242.8438 347.3366 L242.9656 347.4414 L243.4807 346.9017 L243.6466 346.585 L244.6213 345.4803 L244.4036 345.2003 L244.6303 344.8604 L244.9158 344.6599 L245.0913 344.8975 L245.2593 344.9027 L245.4531 344.3655 L245.4157 343.9641 L245.561 343.7515 L245.3434 343.1962 L245.2707 342.9731 L245.8475 343.0933 L245.8674 342.9885 L245.6258 342.6733 L245.4124 342.347 L245.5898 342.1363 L245.8487 342.6119 L246.41 343.0304 L246.988 343.0267 L246.9778 342.4265 L247.2291 341.9054 L247.4625 341.8075 L247.6095 341.4294 L247.6236 341.2636 L247.7916 340.9766 L247.7644 340.9053 L247.5956 340.8133 L247.3457 340.7189 L247.2639 340.6057 L246.9111 340.3977 L246.4828 340.2151 L246.3106 340.1604 L246.2876 340.005 L245.8151 339.7656 L245.5569 339.8853 L245.4015 340.5782 L245.5737 340.8282 L245.8677 340.9015 L245.8697 341.1451 L245.7038 341.183 L245.6388 341.3235 L245.5527 341.3362 L245.2399 341.2271 L245.1895 340.7147 L245.1496 340.4334 L245.1139 340.4166 L245.0635 340.4542 L245.0005 340.6832 L244.8955 340.8049 L244.6561 341.1513 L244.5218 341.3151 L244.5764 342.2159 L244.7422 342.6171 L244.6855 342.7219 L244.5554 342.6295 L244.4105 342.1172 L244.3286 341.3657 L244.2068 341.3845 L244.062 341.4705 L243.7764 341.5272 L243.6106 341.4098 L243.7744 341.2333 L244.0472 341.1474 L244.2951 341.1241 L244.5218 341.0277 L244.8872 340.4334 L244.9586 340.2193 L244.6121 339.7406 L244.5701 339.581 L244.5952 339.5223 L244.7654 339.7237 L244.8912 339.7532 L244.8829 339.2891 L244.822 338.7075 L244.6771 338.3947 L244.4042 338.3023 L244.4189 338.0902 L244.6897 338.1615 L244.9416 338.3967 L245.0425 338.6299 L245.0572 339.2955 L245.1118 339.8895 L245.3301 339.9336 L245.4037 339.8917 L245.3784 339.8035 L245.223 339.7426 L245.2566 339.2157 L245.3385 339.2093 L245.4267 338.7999 L245.1223 338.7055 L245.0971 338.4953 L245.2714 338.3001 L245.4708 338.4262 L245.4771 338.4953 L245.5716 338.5228 L245.6408 338.1615 L245.7816 338.2309 L245.8151 338.3717 L245.6156 338.8482 L245.4728 339.3877 L246.3947 339.8959 L246.6109 340.0387 L247.056 340.2927 L247.1526 340.2949 L247.2996 340.4419 L247.6048 340.6498 L247.8356 340.7338 L247.8895 340.5115 L247.8495 339.9205 L247.8528 339.2038 L248.1689 338.3657 L248.2868 337.9868 L248.2444 337.8912 L248.2045 337.8215 L248.109 337.7829 L247.8896 337.7814 L247.6819 337.6322 L247.4016 337.5343 L247.0749 337.3911 L247.0727 337.1579 L247.1043 336.9859 L247.4591 336.0242 L247.4444 335.9087 L247.3248 335.7365 L247.184 335.6589 L246.8125 335.871 L246.6718 335.9109 L246.4808 335.787 L247.1336 335.533 L247.329 335.4426 L247.4718 335.4383 L247.5724 335.4805 L247.6081 335.7241 L247.6502 335.8814 L247.646 336.1669 L247.2491 337.0573 L247.308 337.3113 L247.4834 337.4369 L247.9504 337.6159 L248.168 337.5923 L248.4282 337.2915 L248.4133 337.121 L248.263 337.0439 L248.3028 336.834 L248.2326 336.4348 L248.3843 336.2457 L248.5746 337.0397 L248.6762 336.9671 L249.0596 336.2504 L249.1731 336.3585 L249.1009 336.6777 L248.9492 336.897 L248.8816 337.1817 L248.7508 337.3755 L248.6522 337.4379 L248.207 338.736 L248.0467 339.3126 L248.1215 340.2409 L248.3267 340.4503 L248.2281 340.8341 L248.2218 341.0425 L248.0437 341.3875 L247.7536 341.8571 L247.7238 342.0749 L247.4113 342.656 L247.466 342.7615 L247.7403 342.5075 L248.1005 341.665 L249.1942 339.6697 L249.9645 338.3043 L250.2323 337.7579 L250.7089 336.9436 L251.3647 335.7231 L251.8083 335.1652 L251.9178 335.2282 L251.3624 336.3438 L250.9913 337.0417 L251.017 337.2588 L251.1524 337.3101 L251.0217 337.485 L250.9586 337.7839 L250.8373 337.7512 L250.702 338.0406 L250.6763 338.2483 L250.828 338.3184 L251.0194 337.9963 L251.0731 337.7581 L251.2108 337.2635 L251.4045 336.8315 L251.5211 336.841 L251.8829 335.954 L252.0462 335.59 L251.9459 335.4686 L252.3258 334.8032 L252.5503 334.8991 L253.1058 335.0111 L253.2249 334.9154 L254.0415 335.246 L254.5109 335.2445 L254.7232 335.0508 L254.9333 335.1558 L254.9875 334.9415 L254.7406 334.3824 L254.4802 334.1262 L254.5809 333.9373 L254.1925 333.1326 L253.8712 332.1275 L253.8545 331.5352 L253.7915 331.2413 L253.4303 331.191 L253.4336 330.8995 L252.9181 329.7967 L252.662 329.738 L252.5821 329.1838 L252.473 328.8059 L251.353 326.8832 L250.2561 325.5746 L249.6205 324.8391 L247.8754 321.2741 L246.736 320.0592 L245.6692 318.931 L243.0141 317.4352 L241.8799 315.9394 L240.409 315.2538 L239.8232 314.4061 L239.1999 313.0476 L238.8135 312.4118 L237.7541 311.9756 L236.7694 310.916 L228.5925 306.192 L227.4957 304.8083 L226.8225 303.001 L225.6633 301.0065 L224.5914 300.184 L223.5692 299.6979 L221.3488 297.9758 L221.1897 297.9862 L220.8799 298.1781 L219.092 299.1357 L217.4965 299.8836 L217.2308 300.2758 L216.8858 300.5878 L216.5429 300.5318 L215.4772 302.0524 L213.7384 303.3612 L212.9719 304.0781 L212.4546 304.3334 L210.3168 305.0751 L210.9 305.7847 L211.243 306.5522 L211.222 306.9331 L209.109 306.1303 L206.5549 307.6783 L205.4058 309.4315 L204.2652 311.8122 L204.0908 312.2859 L204.0035 314.4113 L203.9225 314.916 L203.5174 315.5019 L202.6543 316.299 L202.9883 317.2743 L202.3839 316.4643 L201.9872 316.5501 L200.0155 317.7086 L197.1923 318.3027 L196.3012 318.5458 L195.4803 318.5884 L191.7889 318.2281 L188.9843 318.3963 L187.264 318.5924 L183.5934 318.3401 L181.7676 318.7059 L181.1815 318.901 L180.4405 319.1984 L178.3252 320.5293 L176.5712 321.4813 L175.5576 322.3537 L175.1484 323.1218 L175.399 323.438 L175.2357 323.6564 L174.9848 323.6408 L174.837 324.1798 L174.6936 324.9652 L174.7496 326.9719 L174.8868 328.4864 L175.1111 329.2966 L175.1922 329.8388 L177.1932 340.1413 L178.1396 342.3581 L178.579 344.2649 L177.8135 346.104 L176.5619 346.9765 L174.5347 350.0174 L173.9211 351.5888 L174.9048 353.183 L177.2397 355.0807 L177.1827 355.8632 L177.3774 356.6057 L176.2087 356.7762 L176.8134 357.9013 L176.6858 358.2408 L176.3767 357.7375 L175.8034 357.072 L175.6732 357.604 L173.5034 357.9764 L172.2431 356.7512 L170.9267 356.1739 L171.0469 355.8144 L171.9963 355.9226 L172.1913 355.0718 L173.7239 353.8426 L173.3536 353.3842 L172.8442 352.3636 L172.3015 351.6963 L170.8362 350.2208 L169.3586 350.9302 L169.3523 351.2203 L169.4334 351.7216 L169.5158 352.2189 L169.1543 351.6852 L169.0444 351.3655 L167.6562 350.9688 L165.556 348.1557 L164.8538 346.5538 L165.0911 346.4425 L164.9964 345.8055 L166.9662 345.0274 L166.813 343.9683 L164.9005 338.1541 L164.0101 336.0564 L163.5959 336.1181 L163.5431 335.0515 L162.8996 333.7207 L162.0447 332.0284 L160.4406 327.363 L160.1849 327.4716 L159.947 326.4755 L157.3029 322.298 L156.1641 320.6022 L155.734 320.3903 L155.6966 319.9355 L155.061 318.9505 L154.606 318.7575 L154.4689 318.2152 L154.0264 317.567 L153.9079 317.0686 L153.7691 316.9199 L152.1656 313.4883 L152.0214 313.0808 L151.8852 313.1024 L151.4478 312.3781 L151.5411 312.0197 L150.5012 309.9116 L150.3946 303.1205 L150.2879 302.8506 L150.2207 302.6352 L149.9691 302.1094 L149.9854 302.2021 L150.0574 302.6272 L150.0574 302.8689 L150.0317 303.1359 L149.8994 303.4936 L149.4744 304.7664 L149.3164 305.2079 L149.1538 305.6236 L149.0161 306.0542 L148.858 306.4458 L148.825 306.5663 L148.8956 306.9165 L149.2234 307.8929 L149.3419 308.4504 L149.4144 308.9231 L149.4894 309.2659 L149.5431 309.4518 L149.6439 309.8742 L149.7113 310.0972 L149.8024 310.4807 L149.8971 310.9873 L149.9278 311.1579 L150.0679 311.5765 L150.3987 312.3189 L150.4515 312.57 L150.4989 312.8012 L150.5731 313.4427 L150.6032 313.5327 L150.6659 313.9914 L150.7095 314.2207 L150.7868 314.5343 L150.867 314.7764 L150.9157 314.9653 L150.9842 315.1606 L151.0207 315.2977 L151.1077 315.5091 L151.264 315.8276 L151.2961 315.9089 L151.354 316.1857 L151.4035 316.7385 L151.5021 317.1705 L151.6455 317.6315 L151.7769 318.0164 L151.8927 318.259 L152.0978 318.6157 L152.2586 318.8836 L152.5085 319.2928 L152.7312 319.7613 L152.941 320.2733 L153.3078 321.434 L153.558 322.1572 L153.6711 322.582 L153.7036 322.9124 L153.7235 323.2735 L153.7656 323.8204 L153.749 324.2824 L153.734 324.4088 L153.4328 325.2376 L153.2908 325.5437 L153.2336 325.8178 L153.184 326.0557 L153.1973 326.2381 L153.2369 326.9563 L153.2399 327.3699 L153.3799 327.8963 L153.6216 328.4183 L153.7869 328.5989 L154.0621 328.8852 L154.5193 329.1221 L155.2607 329.4681 L155.8042 329.7516 L156.7736 330.3332 L157.1335 330.6465 L158.0389 331.8303 L159.4095 333.5933 L159.5809 333.921 L159.5535 334.3137 L159.3693 334.5068 L159.1501 334.5618 L158.7174 334.57 L158.0758 334.5668 L157.7245 334.5903 L157.4131 334.7521 L157.0604 335.0413 L156.717 335.4735 L156.4402 335.8549 L156.1739 336.1803 L155.6418 336.693 L154.9362 337.3071 L154.2251 337.9977 L153.5857 338.6021 L153.1612 339.0133 L152.9805 339.4923 L152.9431 339.8494 L152.96 340.5385 L152.9731 340.9724 L152.8739 341.4774 L152.7342 341.9004 L152.4266 342.3581 L151.9813 342.8153 L151.646 343.4571 L151.3465 343.8543 L151.1333 344.3033 L150.8955 344.8363 L150.8098 345.183 L150.8087 345.3971 L150.8402 346.1538 L150.8202 346.8608 L150.6904 347.9528 L150.564 348.3292 L150.5219 348.6382 L150.5502 348.9392 L150.5028 349.2264 L150.3962 349.4427 L150.1128 349.8645 L150.0087 350.1378 L150.0444 350.5716 L150.1808 350.8868 L150.3282 351.1562 L150.4732 351.3385 L150.6534 351.5591 L150.985 351.7506 L151.8996 352.1807 L152.2666 352.3428 L152.423 352.4166 L153.4334 353.1756 L153.7783 353.3943 L154.5872 353.8755 L154.9774 354.2598 L155.319 354.6303 L155.6272 355.1471 L155.9083 355.7286 L156.1811 356.3319 L156.3649 356.8726 L156.4875 357.2447 L156.5771 357.7115 L156.6075 358.1156 L156.5815 358.4571 L156.5384 358.9422 L156.3844 359.4456 L156.155 359.8919 L155.8853 360.3135 L155.5286 360.7835 L155.3789 360.9562 L154.8268 361.6123 L154.3273 362.5315 L153.7781 363.6674 L153.5616 364.2549 L153.3498 364.956 L153.2606 365.5139 L153.2257 365.9909 L153.2892 366.2515 L153.3642 366.393 L153.548 366.4237 L153.7918 366.3246 L153.9598 366.2631 L154.2549 366.1752 L154.6583 366.0659 L154.8881 366.0644 L155.172 366.0848 L155.5905 366.2116 L155.8143 366.3077 L156.0489 366.4581 L156.3397 366.6764 L156.3917 367.105 L156.2809 367.6414 L156.1198 367.9605 L155.9862 368.1658 L155.2465 368.9997 L155.0347 369.1912 L154.9443 369.4266 L154.7238 370.2741 L154.6582 370.4012 L154.3922 370.5977 L154.1104 370.7156 L153.1654 371.0062 L152.3096 371.2567 L151.8251 371.3899 L149.0356 372.3058 L148.4226 372.6794 L148.1078 372.9356 L147.594 373.4969 L147.0892 374.4187 L146.9931 374.7274 L146.9097 375.1877 L146.8516 375.4315 L146.705 376.0976 L146.5043 376.7662 L146.2806 377.1772 L145.9724 377.7368 L145.3084 378.5981 L145.1207 378.8441 L144.7179 379.3869 L144.4918 379.7112 L144.2642 380.3659 L144.1272 380.734 L144.0439 381.1618 L144.029 381.4382" stroke-dasharray="" fill="none" fill-opacity="1.0" stroke="#ff0000" stroke-opacity="1.0" stroke-width="1.0px" stroke-linecap="butt" stroke-linejoin="miter" stroke-dashoffset="0.0px"/>
</g>
</svg>