<?xml version="1.0" standalone="no"?>
<!DOCTYPE svg PUBLIC "-//W3C//DTD SVG 1.1//EN" "http://www.w3.org/Graphics/SVG/1.1/DTD/svg11.dtd">
<svg width="512px" height="512px" version="1.1" xmlns="http://www.w3.org/2000/svg" xmlns:inkscape="http://www.inkscape.org/namespaces/inkscape">
<g id="layer" inkscape:groupmode="layer" inkscape:label="layer">
<path d="M0.0 213.1104 L0.4893 213.6475 L2.7444 212.7881 L2.8757 214.4706 L3.544 216.9761 L4.1642 218.7662 L4.8204 220.592 L5.1054 221.9884 L5.8173 223.175 L7.0448 224.1818 L7.1035 224.3011 L7.018 224.3883 L8.221 225.9966 L9.3274 227.8738 L9.4792 227.9684 L10.1475 228.5267 L11.7552 229.4108 L14.569 231.8195 L14.736 230.9608 L11.8964 228.8964 L9.6173 226.8916 L8.4837 224.6365 L8.4953 223.1928 L8.5964 222.8046 L9.2544 222.8046 L10.5371 224.2895 L12.663 227.3272 L14.7048 229.9087 L16.1055 231.2084 L18.3668 231.3092 L22.7032 231.1405 L26.2299 231.2591 L29.6723 231.36 L33.8574 231.0225 L39.493 230.6515 L39.5438 229.943 L40.5059 229.943 L42.0749 230.0102 L45.0316 230.4416 L45.0031 231.7036 L44.1323 232.5979 L43.5236 232.8489 L42.4738 233.4929 L42.2828 233.923 L41.5072 234.4716 L39.3234 234.5073 L37.7366 234.6026 L36.7963 234.1404 L36.9032 235.3042 L37.0448 235.5271 L39.2232 235.2329 L40.111 235.235 L41.1493 234.9606 L43.0343 234.412 L44.3589 234.0059 L44.7645 234.3996 L45.0988 235.593 L45.7921 237.4283 L46.1611 237.6457 L45.9541 238.516 L45.9969 238.7416 L46.2595 238.8623 L46.5748 238.7938 L46.8161 238.6504 L47.2288 238.6415 L47.5569 238.8068 L47.8962 239.3424 L48.121 239.2992 L48.3214 239.029 L49.8476 237.5263 L48.9407 236.4167 L48.7737 236.2733 L48.7617 235.8797 L49.8356 234.6506 L52.8546 236.5237 L53.9521 238.2184 L53.7731 239.328 L53.5941 240.2347 L53.6899 242.3704 L54.5487 245.0553 L54.477 247.835 L54.3938 249.9473 L54.5251 252.6438 L55.408 254.7081 L56.6012 258.2043 L58.8918 262.0104 L60.7894 262.9294 L61.8633 262.9767 L64.3855 264.2399 L66.1512 266.3877 L68.2513 268.1769 L70.0171 272.3773 L69.7068 274.9907 L70.2682 277.6329 L69.9058 278.3584 L69.9476 279.0586 L70.3612 280.476 L70.5807 282.4674 L70.3274 283.269 L70.7156 283.8848 L71.6519 284.6193 L72.7828 287.2093 L73.0205 289.13 L72.277 288.8297 L71.822 288.6274 L69.8786 287.236 L69.628 285.5896 L68.6565 284.8757 L68.5011 284.4581 L68.4178 283.1456 L68.7878 282.1431 L68.9668 280.9739 L68.3462 280.7236 L68.2985 281.3798 L67.535 282.573 L67.0813 283.2889 L66.9392 285.2268 L66.7959 286.1814 L66.3903 287.1716 L66.1752 287.9471 L65.6864 289.0806 L65.9486 289.6772 L65.6864 290.9781 L65.2688 292.2069 L64.5876 293.2752 L64.1824 293.832 L63.5582 294.5239 L62.0476 294.5129 L61.1968 296.5804 L61.0432 298.1465 L61.1745 298.8864 L61.6638 298.9461 L61.3771 300.2105 L60.9359 301.2014 L60.6852 302.8594 L60.0374 303.2091 L60.711 306.3064 L60.8286 306.9283 L62.3201 309.2192 L61.6157 309.9474 L60.8165 310.8066 L60.3513 310.496 L59.5169 310.6153 L59.7378 311.2098 L60.3784 311.5848 L59.5325 312.0305 L57.7356 313.3025 L56.2686 314.0032 L55.8198 314.2494 L55.1809 314.4318 L54.5491 314.4023 L54.3114 314.3598 L54.2629 314.141 L53.5144 312.3583 L52.8876 312.6133 L52.6489 312.8677 L53.0345 314.3584 L51.9214 314.7828 L51.9085 315.6125 L51.1485 316.8604 L51.1503 316.8975 L51.0052 317.0284 L51.0947 317.9116 L48.5302 319.8335 L48.6326 320.0351 L49.0738 320.4568 L49.5742 320.7749 L51.4695 320.0337 L51.8404 319.8115 L53.4134 319.5853 L55.7441 318.2763 L56.2842 318.0905 L56.773 317.7292 L55.7886 316.3859 L55.5914 316.0061 L62.1282 311.1768 L62.2747 311.5361 L62.4193 314.8583 L62.1972 315.2409 L61.7341 315.5672 L62.1527 316.772 L62.7136 319.3734 L62.5017 319.8582 L61.4047 320.3141 L59.6973 320.8688 L59.9559 321.4784 L60.2783 324.0935 L58.7213 325.1288 L58.0099 325.2433 L58.5789 327.0932 L59.2369 328.0806 L60.4577 328.0004 L60.6567 328.3987 L60.3713 328.9911 L60.5597 329.3607 L60.9773 329.325 L61.2756 330.542 L61.2747 332.01 L61.3348 332.0669 L61.2515 333.552 L61.0013 334.7354 L60.7235 336.4893 L60.7716 337.2339 L60.7751 337.8893 L61.4977 338.9747 L61.5066 339.8461 L61.2533 340.9863 L60.7689 343.4689 L59.0325 345.4894 L58.5846 346.2066 L57.9863 346.2052 L60.7925 370.8431 L70.5273 376.3523 L87.501 385.9581 L228.6571 465.8403 L230.7292 468.4872 L233.3956 466.769 L237.2227 462.9028 L238.5798 462.6012 L239.3714 463.2044 L239.4092 463.9206 L241.727 463.4867 L241.2912 462.6931 L245.5729 460.3354 L248.2496 457.9955 L254.0379 455.8612 L256.1327 453.6282 L258.2283 454.0271 L263.027 453.2012 L265.1435 454.0614 L266.6724 456.8488 L268.1844 459.0839 L270.2538 459.4211 L271.2787 458.7727 L271.4172 456.2724 L270.7324 453.9517 L272.658 449.5775 L274.5854 447.2698 L278.1846 445.402 L282.5304 446.8099 L283.8091 448.4356 L283.3077 452.1786 L282.1056 460.1051 L279.2268 461.4258 L276.1579 462.5677 L273.5431 464.5278 L274.0516 468.0547 L276.263 470.0519 L278.0274 470.4912 L280.9708 470.3397 L283.0415 470.6762 L283.7432 472.5349 L283.598 474.8192 L281.4529 480.0621 L279.461 482.2181 L274.0373 487.7761 L271.1091 488.5451 L267.8175 487.3519 L265.8181 483.2537 L263.673 480.4219 L258.5997 477.2501 L255.4862 476.9143 L253.4293 478.0245 L254.3224 480.0936 L257.9349 482.6629 L258.6246 485.137 L256.8348 487.9036 L256.3286 491.4316 L257.6776 495.3667 L259.6637 499.0331 L262.4976 503.321 L268.9836 505.4029 L272.4617 503.6321 L278.7829 501.3439 L282.5028 500.3975 L289.8601 496.8449 L291.3543 495.2817 L292.4344 494.2017 L292.9477 494.0228 L293.1031 493.5451 L293.1031 493.2347 L292.8052 492.9126 L291.8311 491.1685 L291.2879 489.6759 L291.234 488.3265 L294.4049 486.6604 L296.6128 487.5171 L299.5241 488.26 L301.8014 488.3758 L302.5378 487.4739 L303.0151 486.8893 L300.0886 480.5706 L294.9806 471.2046 L291.2608 468.2062 L290.8934 465.1673 L293.6111 463.5745 L298.1884 462.5402 L305.5404 461.7918 L322.0408 458.1381 L325.1453 452.2259 L323.7976 446.3541 L325.5723 445.4939 L328.4903 445.4055 L332.032 445.6974 L334.6962 445.4013 L337.1468 444.0936 L338.7478 442.1648 L339.4748 438.8152 L339.3996 436.3202 L339.1227 434.2667 L337.4192 432.8376 L334.6588 429.9621 L334.3272 428.1238 L335.7955 425.9523 L337.4308 424.8336 L342.2094 424.5862 L344.0989 426.0695 L348.17 430.5982 L351.0644 431.8046 L355.2037 431.4941 L356.8247 430.0444 L357.6395 429.7565 L359.8647 428.7153 L361.6291 427.9627 L363.4679 427.7015 L365.6455 427.2327 L367.291 426.7508 L367.0065 424.4793 L364.8619 421.6168 L364.0992 420.9197 L363.8494 420.6914 L362.52 419.4076 L362.2115 416.3038 L364.4331 415.5573 L367.5016 416.4203 L369.9761 416.9604 L376.4639 417.0722 L378.5485 415.8678 L383.3836 411.0983 L383.0817 409.2591 L378.3726 406.9984 L369.7415 404.1159 L364.7991 403.2796 L359.9163 403.3982 L357.4649 404.6739 L356.2918 406.5282 L357.5362 408.0314 L353.921 411.4698 L350.2448 411.8585 L347.8245 413.1348 L344.4912 415.6718 L341.7107 419.7002 L329.8064 416.8885 L322.7879 410.8899 L317.9853 410.9351 L317.4657 412.2417 L317.7974 414.0801 L320.0003 416.787 L320.0324 419.8675 L318.7092 423.885 L313.9591 428.2513 L311.8808 429.032 L311.2219 429.1259 L308.8244 429.3775 L308.5069 428.9737 L307.9103 426.5267 L308.3413 416.4038 L309.156 410.8625 L310.8541 404.5875 L319.0231 404.7987 L319.7893 404.9166 L321.4914 405.4046 L324.173 405.6082 L325.5536 403.3036 L325.8132 400.7385 L324.1422 398.3536 L323.6801 396.2724 L331.5392 390.4119 L334.4104 388.2704 L337.7011 387.338 L340.8025 387.2434 L342.4863 388.0243 L343.8264 390.6951 L345.3384 392.9312 L347.8699 394.3022 L349.5355 394.4668 L350.9277 392.7612 L350.2603 387.9715 L351.568 383.4641 L360.1416 383.4799 L365.5413 387.168 L367.901 392.0284 L371.1279 396.0907 L375.6149 396.0482 L377.3909 396.8565 L378.4309 398.7354 L379.2212 400.4999 L379.9999 401.8325 L381.7323 404.2756 L388.6702 408.4126 L389.9969 407.7456 L390.8789 407.8134 L390.7988 408.3186 L390.6754 408.6957 L391.7836 408.8993 L393.6389 408.5373 L394.589 407.9718 L394.8828 408.5599 L394.3628 409.3517 L395.4482 409.9851 L396.5341 410.2791 L397.145 409.5553 L399.7918 410.9125 L401.0358 411.4554 L401.8568 411.5774 L401.9859 410.3696 L400.4939 408.3351 L399.4098 406.8922 L398.0163 407.2726 L395.7804 407.3425 L395.0337 406.777 L394.2915 404.7891 L394.6691 401.8846 L393.4051 400.0509 L393.8103 398.1 L395.4571 396.9346 L396.5974 395.6171 L398.4473 397.847 L400.7272 396.5041 L402.9324 398.3673 L403.6506 397.8909 L403.9262 397.9492 L404.3945 397.5591 L406.1461 395.7391 L407.2707 394.4969 L407.922 394.9329 L410.5814 392.6364 L410.8133 391.5773 L411.0333 390.5717 L411.3618 390.669 L411.7719 391.0193 L411.8547 391.1304 L412.9655 390.8027 L416.0313 390.4483 L416.501 392.8311 L417.8843 396.4068 L419.1252 397.4906 L419.0348 398.1466 L419.2383 399.7075 L420.0441 400.8036 L421.0392 400.4787 L422.2876 402.3521 L422.0717 402.431 L421.8651 402.5468 L421.8985 402.81 L421.878 402.9417 L422.1327 403.0383 L422.5748 402.8608 L422.9919 403.6868 L422.2168 404.4045 L422.1295 404.628 L422.1313 404.8809 L422.5757 405.0434 L424.8646 406.2204 L425.3169 406.6358 L425.3075 406.6467 L427.4192 407.9526 L428.0541 408.5682 L428.0488 408.5771 L429.4027 409.9378 L436.4203 417.8214 L434.8745 419.0381 L433.0504 419.6968 L432.1742 419.8127 L431.8621 420.0793 L430.7348 420.9423 L430.38 421.2562 L429.8595 421.7169 L429.3448 422.9205 L429.0982 423.2249 L428.8644 423.7753 L428.8992 424.2112 L429.0114 424.5361 L429.0501 424.8672 L428.5492 425.2353 L428.2923 426.733 L428.2371 427.3561 L427.7055 427.8064 L427.3097 428.0977 L426.8983 428.2732 L426.174 428.2513 L425.8708 428.3843 L428.7959 432.9287 L429.9882 432.3598 L431.8123 430.409 L436.829 434.1591 L435.3593 436.1098 L434.4475 437.6047 L433.1043 439.3279 L432.4921 440.4705 L437.2048 445.0312 L437.2106 444.561 L436.772 444.2684 L436.2298 443.341 L433.7414 440.9688 L433.2833 440.3252 L433.468 440.0942 L434.1728 439.5739 L434.944 439.2045 L436.0851 438.7501 L437.3437 437.8926 L438.3361 437.0872 L439.0235 437.0015 L439.3379 436.4018 L439.6486 436.1057 L440.5462 435.6876 L440.9086 435.7452 L441.1477 435.9611 L441.3854 436.7767 L442.3004 437.2236 L443.2959 437.5451 L444.2558 437.5979 L444.3212 437.9577 L444.7215 437.9653 L445.5171 438.2127 L446.2713 438.5993 L446.6043 438.7706 L446.6475 438.6006 L446.4463 438.101 L446.6359 437.9241 L447.6364 437.8336 L449.2476 437.0591 L451.5632 435.7239 L452.3112 435.5567 L452.3878 435.8404 L457.7327 429.6235 L461.9133 426.8112 L458.0617 422.6306 L459.9877 417.3347 L460.6427 415.6615 L460.2241 415.4867 L448.46 413.1115 L446.8839 411.7474 L446.8229 410.8988 L446.6235 410.4882 L446.4276 410.2688 L446.0683 409.9391 L446.0394 409.5765 L447.3683 406.7496 L447.4445 406.1038 L445.2224 405.9757 L445.0705 405.6165 L445.1168 405.3471 L444.9615 404.8652 L445.4151 404.5999 L445.9405 404.1495 L446.9418 404.107 L447.4899 403.9391 L448.0028 402.8717 L448.346 401.8366 L449.5753 400.4704 L449.846 400.3066 L450.2454 400.2929 L450.9444 400.5966 L450.9279 400.5787 L450.8366 400.1284 L450.4257 399.8459 L449.8941 399.6718 L449.3914 399.6321 L449.2263 399.4161 L449.2151 399.1207 L449.423 398.8691 L449.4395 397.6804 L449.6719 397.3466 L450.0263 396.9161 L450.7632 396.4925 L451.3179 396.3368 L451.6834 396.2025 L451.7551 396.0174 L451.9372 395.2853 L451.9292 395.0261 L451.2053 395.6157 L449.9671 396.1723 L449.3006 396.6344 L449.1256 396.6049 L449.0731 396.4047 L447.343 397.108 L445.766 398.331 L445.7339 400.5225 L446.3167 401.9669 L444.9739 403.3605 L442.4655 407.0087 L440.0587 411.1894 L436.7752 410.7802 L435.7378 410.2901 L435.3126 409.656 L435.0855 409.4901 L434.9074 409.1296 L435.0041 407.9978 L435.1813 406.9347 L435.6096 406.2265 L435.8317 405.7213 L435.8731 405.3059 L435.9123 405.2504 L435.484 403.305 L435.029 402.7785 L435.0023 402.0574 L436.2734 400.1318 L436.256 399.6814 L435.7275 399.2496 L435.4582 399.1584 L435.3602 398.8664 L435.2868 398.8725 L435.63 398.2885 L435.6073 398.2001 L435.7084 395.7027 L435.907 390.5531 L437.7061 391.2119 L438.9982 393.5687 L439.3948 394.6477 L440.0707 395.155 L440.503 395.4203 L440.6063 395.7871 L441.1072 395.9715 L441.3293 395.9536 L441.6659 396.0702 L443.027 394.3029 L444.6231 394.8863 L446.4841 397.5406 L447.1364 396.9264 L448.7721 396.2402 L448.6167 396.0949 L448.3781 395.4779 L448.2477 394.8692 L448.3113 394.3509 L448.2014 393.8964 L448.3892 392.8483 L448.387 391.7357 L447.2085 385.9875 L445.7037 384.321 L441.6726 382.4399 L438.8419 383.0672 L437.5338 382.7086 L436.2369 383.5327 L436.5365 384.8722 L434.5717 385.1923 L434.5593 385.2074 L434.297 383.449 L434.2125 382.5462 L432.9654 382.7628 L433.5028 383.7479 L432.5812 384.7968 L429.2558 388.3266 L427.5973 386.1836 L428.6494 385.228 L428.3671 384.9353 L428.2376 384.3889 L427.8458 384.1174 L427.6125 383.4312 L427.7852 383.2009 L427.0488 382.8512 L425.8512 382.8882 L424.6384 383.1028 L424.4794 384.0557 L423.0979 385.8408 L422.5815 385.374 L421.7493 384.3704 L420.7672 382.7984 L420.2414 381.851 L420.2227 380.822 L421.4541 379.6923 L421.902 379.5538 L423.1447 378.3171 L421.4417 376.7951 L418.9164 378.9951 L417.0041 375.3514 L416.9712 375.0881 L417.5812 374.4643 L418.3674 374.3518 L420.0882 374.0468 L422.9581 370.3605 L423.1758 370.2316 L423.4403 370.2227 L423.6495 370.3729 L423.8486 370.6231 L423.918 371.0317 L424.7239 370.9556 L425.7091 371.2243 L428.0203 372.8368 L429.7941 374.611 L431.2989 375.8292 L431.514 377.0474 L432.6965 377.7995 L432.4636 378.8209 L433.6252 380.4477 L434.0669 380.2092 L434.7436 380.2092 L438.6446 380.9838 L452.9777 378.0092 L455.8084 375.5372 L456.4478 375.4837 L457.2955 373.6107 L459.7406 371.709 L459.9076 371.5397 L459.912 371.3601 L459.9125 371.1311 L459.5002 370.6011 L459.1605 369.9732 L459.1356 369.6599 L459.0808 369.2807 L458.6521 368.6226 L458.571 367.9117 L458.3288 367.6587 L457.9624 367.3913 L456.4616 365.6561 L456.1584 365.0247 L456.0573 364.0622 L456.0155 363.5398 L455.8164 363.1291 L455.6099 361.6921 L456.1165 361.2438 L455.4482 360.7467 L454.1424 362.6197 L451.5085 361.8135 L449.0361 362.0644 L447.7281 360.4519 L447.3986 358.8559 L447.3016 358.7407 L447.257 358.2423 L447.0309 357.8028 L445.1146 354.7218 L443.0043 350.8344 L442.7772 349.9123 L442.7928 349.5647 L442.9896 348.9401 L445.4619 348.7433 L444.2972 346.8977 L446.071 345.7513 L447.3968 347.1308 L449.529 345.196 L450.5321 344.3177 L450.8188 344.5508 L452.1447 343.3147 L452.4799 344.9252 L452.8219 345.4065 L452.8985 344.7359 L452.6362 343.5306 L451.8477 340.6778 L456.2675 339.1495 L461.4454 340.6723 L461.965 341.8906 L463.5237 341.7473 L465.2258 338.4865 L466.6883 336.1986 L467.4586 335.0878 L464.6995 336.324 L464.0905 335.6069 L465.5419 334.4427 L464.4489 331.576 L468.6771 329.0857 L469.698 331.5218 L471.0778 331.1283 L471.5079 333.4574 L473.0488 332.9555 L474.9837 332.8835 L484.8735 329.4615 L485.1063 328.7093 L482.7769 325.9859 L481.2004 323.1377 L485.5003 321.2919 L485.9126 319.769 L490.0692 318.4793 L490.9828 318.085 L491.3283 318.0261 L490.892 317.3438 L491.3848 317.2609 L491.8385 317.6147 L492.0843 317.2917 L492.0113 317.075 L492.2793 316.8741 L492.4636 316.7919 L492.5674 316.8515 L493.7957 317.171 L494.6083 318.0117 L494.8901 318.0062 L495.1648 317.6277 L495.362 317.1196 L495.1982 316.5114 L495.0731 316.1748 L494.0286 314.5017 L493.8674 306.2426 L493.7419 294.8297 L494.3157 286.1917 L496.2413 274.2069 L496.3567 271.9411 L496.8495 265.1616 L494.7209 265.8206 L494.3162 263.9457 L493.5415 260.717 L492.997 260.7047 L492.6764 259.8392 L492.5549 259.1322 L493.0562 258.5623 L493.5575 258.2221 L493.9614 258.207 L494.3558 258.0699 L494.6862 257.3539 L495.086 256.8451 L495.6826 256.6859 L496.3268 256.7106 L496.7257 256.8553 L498.9096 257.9533 L499.1691 258.4916 L500.9794 258.5486 L502.3943 257.7092 L504.8306 258.7509 L506.4775 258.6501 L508.302 256.9013 L509.7961 256.0502 L511.3731 253.7391 L511.5343 252.4847 L512.0 251.4636 L510.4591 251.6961 L510.3518 253.7027 L510.0379 254.7973 L509.9186 255.0716 L509.1386 255.6387 L507.4409 256.0317 L506.2499 256.7285 L503.6022 257.3114 L499.7635 257.1591 L497.7591 256.2861 L496.0232 255.387 L494.5664 255.3486 L493.9458 255.7924 L492.818 256.5776 L489.7589 257.3107 L489.5795 256.1462 L487.6441 254.7301 L486.8908 255.0723 L486.5315 254.466 L486.3917 254.0257 L486.3614 253.7254 L486.6922 253.46 L487.1526 253.198 L487.5435 252.9195 L487.8453 252.7591 L487.7821 251.4773 L487.2202 251.6913 L486.8436 250.7853 L486.8743 250.3992 L487.0858 250.1105 L487.3957 249.8938 L492.4859 248.3966 L494.2641 248.1834 L494.8514 248.2403 L495.5138 248.4021 L497.5801 249.3931 L498.4839 249.4631 L498.6126 248.064 L497.3361 247.3227 L496.923 246.8316 L496.5917 246.3077 L496.4613 245.9099 L496.4185 245.5231 L496.7622 245.3475 L497.4604 245.2049 L498.4118 244.9929 L498.7804 244.8215 L498.8 244.2879 L496.6923 244.3037 L496.0294 243.4615 L495.4742 242.225 L495.2053 240.8279 L496.5312 239.7169 L497.4986 239.3225 L498.6812 238.1937 L498.7987 236.3076 L498.7479 235.5312 L500.3067 234.1959 L498.5587 233.9168 L496.6078 232.5231 L493.8456 230.8003 L492.3002 230.015 L491.0839 231.2564 L489.8929 231.4848 L489.6142 228.4698 L488.7531 228.3937 L488.677 229.635 L485.4589 229.9896 L482.9505 232.6754 L481.1011 231.9916 L480.9996 230.7242 L476.6925 231.5355 L477.3764 233.1569 L474.2344 234.8036 L473.6516 233.0807 L473.1703 233.3091 L472.8409 232.9038 L472.0555 233.7652 L471.7514 233.4353 L469.1669 234.8797 L468.5592 234.5759 L469.7248 233.0046 L470.4086 231.2564 L471.1686 230.2681 L470.662 229.5335 L468.5592 230.8764 L466.7346 226.7462 L470.7888 225.1756 L472.2078 224.9225 L477.2245 224.8464 L477.9084 224.4411 L479.7329 224.6941 L479.3273 223.6804 L478.2886 223.7312 L477.9592 222.5152 L479.058 222.1613 L479.1114 221.9459 L480.0789 221.677 L479.9716 220.9603 L479.1412 220.9425 L478.574 221.3842 L478.2276 221.0803 L477.5406 221.7662 L477.2005 222.0481 L476.2989 222.7525 L474.7758 222.1427 L473.8444 223.0206 L472.6258 223.3437 L472.3035 222.806 L470.8343 223.0748 L470.7986 222.6091 L468.4692 223.3073 L466.4987 223.1283 L465.2984 223.4685 L465.3878 221.1215 L466.7671 221.0858 L467.1255 219.5097 L466.7498 217.3746 L464.6359 218.0735 L464.9043 216.533 L465.3166 215.4754 L467.0187 215.7442 L466.9648 216.1921 L470.3151 216.1208 L470.0645 215.2964 L471.1753 215.0275 L472.4233 217.6853 L473.2772 217.4939 L473.4807 218.3602 L475.0572 217.6674 L476.2014 217.5193 L477.5268 218.5049 L478.4315 219.4891 L481.7458 217.7154 L480.9039 213.3793 L481.8259 213.1372 L482.471 214.1283 L484.6304 215.5117 L485.9625 215.5536 L487.1868 215.153 L487.6401 214.7771 L487.4255 213.8272 L486.7625 213.1825 L486.5831 209.563 L486.3325 208.4882 L486.2608 207.7715 L488.2496 206.0519 L488.9303 205.8722 L491.2593 206.661 L491.6177 207.2701 L491.2237 208.3806 L493.4988 205.4429 L494.2156 205.2453 L497.118 206.1589 L498.6767 206.0156 L501.2385 203.6506 L504.4998 204.4414 L504.433 203.5107 L502.2398 202.7054 L500.3721 201.4893 L498.5561 199.8102 L501.6227 199.2443 L502.685 198.8849 L503.5853 198.1455 L504.4156 197.463 L502.9081 195.6467 L502.2055 193.8475 L501.2252 193.3393 L501.2777 193.829 L500.9482 194.0485 L499.8993 194.1514 L499.678 194.0341 L499.2782 194.0855 L498.3744 192.3241 L497.6309 192.6993 L498.9501 194.1047 L493.5357 195.6124 L490.1262 196.229 L487.0933 196.6063 L486.4251 196.4348 L486.1682 195.9718 L484.1807 195.9547 L482.9127 196.3148 L482.3646 194.7728 L483.6665 193.6932 L484.2662 193.3502 L486.0484 193.0594 L489.2179 192.237 L483.7007 188.8272 L486.4767 188.4328 L486.4767 189.3581 L486.8877 189.8383 L486.8877 190.2149 L489.4406 189.7011 L489.0982 188.7586 L490.9828 188.2792 L491.274 189.1359 L492.0108 188.8958 L491.6168 187.9876 L492.696 187.3538 L492.4222 186.8908 L489.7834 187.3881 L489.3894 185.7604 L488.9437 185.8804 L488.7042 184.715 L488.2754 183.4302 L485.483 183.8068 L485.1571 181.1515 L487.2305 180.3119 L489.0123 180.2605 L487.3658 177.2533 L486.5947 176.4136 L485.1384 176.7052 L484.4701 175.4197 L485.4126 174.803 L485.0355 174.4093 L483.9127 174.8174 L483.1415 174.1575 L482.4822 174.4491 L481.9938 173.7638 L483.5788 172.9495 L483.3815 172.7616 L481.9764 173.4036 L481.4884 172.5297 L480.5032 173.1553 L478.7726 171.1509 L478.7726 170.7393 L477.8643 170.5507 L477.8732 170.3024 L476.8537 170.0115 L477.2183 168.2822 L478.2463 168.3851 L480.6795 169.3448 L482.2556 170.6124 L483.9861 169.91 L486.2479 173.1313 L488.0982 172.754 L488.6636 173.7994 L489.4348 176.0096 L487.9099 177.0207 L488.5439 178.0483 L489.0581 177.8432 L489.3836 178.3913 L488.7839 178.4942 L489.555 179.9676 L492.5705 179.0422 L492.5188 179.6418 L493.29 181.8869 L496.1857 181.098 L497.4706 185.0395 L495.4662 185.6047 L496.768 189.8369 L498.8619 189.223 L498.9781 188.9719 L498.5845 185.6733 L499.751 184.6478 L499.1072 181.5871 L499.438 181.0157 L499.3762 180.4704 L498.8913 179.958 L498.3477 179.4819 L497.7702 178.2719 L496.8887 175.5644 L495.6545 174.0224 L495.1577 171.8115 L495.7743 171.0748 L494.6951 165.078 L493.1185 161.2056 L491.5082 161.9938 L490.2571 160.5374 L489.2464 158.6359 L488.2353 157.351 L487.1904 156.2541 L490.3257 154.524 L490.0176 153.2555 L490.5314 152.232 L490.4441 151.7559 L491.4102 151.1776 L490.5999 149.8289 L486.934 139.3403 L484.3592 140.0956 L483.5716 140.003 L483.3098 139.8109 L483.2146 139.4322 L483.1576 138.9479 L483.662 135.9808 L483.8316 128.9501 L483.5409 126.6093 L483.2983 125.5027 L482.0623 120.2783 L481.9693 118.7401 L482.0975 117.0057 L482.398 116.3278 L480.9804 111.8244 L480.4426 110.1153 L478.7463 110.8906 L479.2067 109.8971 L479.1341 109.1706 L479.6185 108.492 L479.8367 107.7167 L479.2312 105.6811 L478.5112 103.0992 L476.3515 102.6903 L475.9227 102.6567 L467.3682 105.8965 L466.9559 105.8361 L466.707 105.7325 L466.2948 105.1281 L465.0749 102.6697 L464.8509 101.7901 L464.0215 99.6508 L463.8113 99.2261 L464.4324 103.2474 L465.8513 107.2625 L467.2204 110.6491 L464.9034 111.5143 L464.4386 110.3788 L463.8367 110.4549 L461.4214 111.2789 L460.7513 109.3846 L460.7379 107.4244 L461.1373 107.4052 L461.4107 107.008 L461.6012 104.9991 L461.4775 102.2642 L461.3791 101.0286 L460.9365 100.173 L460.3778 99.6076 L459.9183 97.8093 L460.0185 97.5973 L462.3639 96.352 L463.1631 96.164 L464.6817 95.318 L468.1545 93.3906 L466.2636 91.2307 L466.1857 90.7168 L466.1692 89.8893 L466.252 89.3006 L465.9177 88.3558 L465.8224 87.5606 L471.2862 83.3037 L471.6677 82.1215 L471.8053 81.294 L471.6619 79.7206 L467.78 68.5718 L459.7099 71.8791 L459.1102 69.343 L461.9716 68.0921 L466.7177 66.2758 L462.2116 52.4317 L460.4984 44.8586 L454.1072 39.4442 L450.7307 36.8489 L428.9584 18.5798 L428.0256 19.0293 L426.2683 17.7192 L428.0684 16.4867 L425.0003 11.6504 L423.2582 6.5971 L421.1563 8.2717 L419.3585 10.7081 L413.4869 17.5785 L408.2666 26.1096 L404.3086 36.0878 L402.0273 37.0932 L397.8987 41.5839 L389.4431 45.8914 L387.0941 44.5807 L384.2709 44.2149 L378.4002 46.8514 L375.8384 46.8706 L374.5922 46.4568 L372.8781 44.7886 L372.2771 44.8051 L371.7112 44.663 L371.2949 44.941 L370.9672 45.3211 L372.4146 45.8982 L375.4551 47.6474 L373.7895 50.1329 L373.0117 52.1264 L372.2063 53.0329 L368.8146 51.9562 L367.1423 48.9698 L366.466 49.1852 L366.4527 49.7342 L366.864 51.106 L366.6174 51.9294 L367.2265 52.757 L366.2287 53.7726 L364.6232 56.4701 L364.8441 56.6073 L365.32 55.9938 L365.4335 55.5636 L365.7376 55.1985 L366.214 54.7456 L368.0706 52.4859 L368.4775 52.3295 L369.2923 52.4811 L369.8795 52.7453 L372.3256 53.6724 L372.0923 55.5931 L373.9311 55.7029 L372.9293 56.4714 L371.749 56.9792 L370.7749 57.6929 L369.8555 58.5163 L370.1302 59.1614 L371.1498 60.0891 L371.7339 59.735 L371.6021 58.0875 L372.9413 56.9106 L372.9583 56.9641 L374.6955 56.3054 L376.6696 55.906 L375.8095 55.2582 L376.5663 54.3072 L376.2752 53.8611 L377.2426 52.7906 L377.4741 52.0646 L377.3753 51.0113 L378.2804 49.8701 L378.8036 48.9149 L380.2501 48.4139 L380.2777 48.4599 L380.6962 48.5944 L380.8356 47.7867 L383.9793 46.5838 L384.9107 48.311 L383.1254 49.9607 L382.3983 51.2967 L381.751 53.7026 L379.6749 55.7173 L379.2101 55.4346 L378.8966 54.9144 L378.9924 55.519 L379.1281 56.024 L378.8468 56.3246 L378.3423 56.1599 L378.2048 56.4262 L382.0666 58.8052 L384.51 63.2799 L385.0314 64.6811 L385.5679 64.7847 L386.0683 66.1248 L385.1449 66.5214 L385.2673 66.7246 L385.4009 67.4114 L385.6845 68.1806 L386.9222 70.6468 L385.7771 71.1511 L386.1075 73.7915 L386.2139 74.7425 L386.4378 77.8563 L386.5629 79.969 L386.4258 82.2697 L386.0718 82.3973 L384.234 82.8049 L383.2847 83.0478 L382.1174 83.4265 L381.1441 84.0983 L381.4028 84.7316 L382.7024 87.4329 L381.1308 88.6982 L379.8913 89.1304 L379.8392 89.149 L373.4916 90.0286 L373.1136 90.0094 L373.05 89.7487 L372.7129 89.6272 L372.6266 89.5476 L372.7619 89.9325 L372.1693 89.9305 L369.8524 89.8193 L369.6445 89.997 L369.4597 90.5446 L369.2549 90.8389 L364.4625 93.427 L364.3009 93.3351 L364.0244 93.3557 L364.2631 93.9444 L364.7252 94.9406 L365.2096 95.5952 L365.7007 96.3355 L365.6424 96.5324 L365.3997 96.6525 L364.9638 96.3101 L364.4861 96.6621 L364.7519 97.8203 L364.67 99.3297 L363.8877 101.8135 L362.9821 103.5836 L361.2119 105.2028 L359.0985 104.7912 L357.9048 104.8872 L357.7806 105.4313 L358.3216 106.7932 L358.4204 107.1534 L358.4409 107.4395 L358.4128 107.6275 L358.3198 107.7771 L358.1417 107.8656 L357.9427 107.9267 L356.6444 107.738 L356.0807 107.786 L355.2825 107.9157 L354.3137 107.1548 L354.0955 106.8845 L354.0955 106.8104 L354.1507 106.6512 L354.2807 106.4982 L354.6048 106.3116 L355.27 106.0673 L355.1881 105.6694 L354.855 105.5795 L353.5376 105.8526 L351.6833 106.1812 L348.3757 108.2107 L348.1104 108.2135 L347.8708 108.1517 L347.4617 107.8937 L346.3108 109.0141 L343.8313 111.3482 L343.7659 111.4587 L343.8175 111.5657 L344.0455 111.7887 L344.5232 112.0535 L344.5722 113.0525 L344.0664 114.6771 L343.8447 115.0723 L343.6132 115.1094 L343.3483 115.038 L342.9761 114.7032 L342.838 114.2126 L342.8732 113.8017 L343.2102 112.9201 L342.7298 112.3959 L342.0558 111.3729 L342.1925 110.3781 L342.2267 109.4965 L342.3011 109.1877 L342.3861 107.7819 L342.3354 107.1486 L342.5215 106.7747 L342.6537 106.0337 L342.7031 105.2625 L342.6239 104.8852 L342.4912 104.8461 L342.0567 104.3191 L341.9414 104.0673 L341.8768 103.8004 L341.9066 103.6303 L342.0153 103.4087 L342.5914 102.8982 L343.1412 102.5538 L343.4805 102.2389 L343.6056 101.0313 L344.4039 100.8488 L345.9582 100.984 L346.2752 100.8996 L349.3 99.7277 L350.7265 99.0971 L350.7082 98.938 L346.3874 100.6217 L345.8629 100.7013 L345.2004 100.5997 L344.35 100.6121 L344.3781 100.4241 L344.57 99.8889 L344.5789 99.4615 L344.5455 98.8886 L344.6087 98.6793 L344.8611 98.1263 L345.3001 96.8226 L345.5681 96.857 L345.7921 97.0367 L346.0036 96.822 L346.0045 96.3698 L345.7623 95.7331 L345.6429 95.167 L345.4933 94.6099 L345.4925 92.896 L345.6447 91.6335 L345.8629 90.9659 L345.9123 90.9679 L345.4706 89.8228 L345.3077 89.6553 L345.114 89.3178 L344.9733 88.7908 L344.9666 88.6529 L344.9413 88.1205 L345.3558 86.5952 L345.4795 85.5385 L346.4675 84.5504 L347.7355 84.3542 L348.2039 84.193 L348.3708 83.1891 L348.117 82.8749 L348.0903 82.5366 L349.056 81.6487 L349.4492 81.2398 L349.7087 81.0079 L350.011 80.8542 L350.21 80.485 L350.0186 80.179 L349.8231 79.9718 L349.7127 79.8997 L349.5373 79.945 L349.2982 79.9642 L349.1491 79.8771 L349.1402 79.6863 L349.1615 79.5669 L349.345 79.3913 L349.4825 79.182 L349.6081 79.0544 L349.7109 79.0276 L349.9393 79.0276 L350.3961 78.1802 L350.657 77.5091 L350.7011 77.2827 L350.6993 77.0295 L350.5747 76.86 L350.511 76.5307 L350.243 76.025 L350.592 73.4752 L351.9366 70.703 L352.4308 68.3707 L352.5951 66.7513 L351.4424 65.7083 L353.1262 61.6495 L354.1934 58.1952 L354.213 56.3747 L353.8288 53.3561 L358.3843 52.2307 L359.0499 50.5193 L358.1662 50.6002 L356.761 51.3015 L355.8163 51.2974 L353.7527 51.8718 L353.8048 48.6315 L354.0394 47.5287 L354.2678 45.8365 L354.8715 43.915 L353.4722 44.217 L352.8133 45.6718 L352.9232 48.8277 L352.6214 50.2002 L351.088 50.3161 L348.2742 50.4328 L346.6055 50.8795 L345.7903 51.2288 L343.578 51.5582 L341.2495 52.2767 L340.124 52.3542 L339.3283 52.7035 L337.9308 53.1886 L337.4847 52.9944 L335.8935 53.3245 L332.963 53.2271 L331.7164 55.4243 L332.7408 55.1937 L333.4657 55.3022 L334.0422 55.7201 L334.7239 55.9067 L334.7661 56.5908 L335.3187 56.6327 L336.1067 56.4488 L337.5666 58.117 L338.2936 58.4113 L338.937 58.8114 L339.7776 58.6762 L341.0451 58.2398 L340.9151 55.8367 L340.9565 55.3502 L341.4672 54.2509 L341.5367 54.2378 L344.1737 53.7541 L345.8335 53.6649 L345.7623 55.1683 L345.4916 56.6451 L345.1808 57.778 L344.915 57.8487 L344.7926 57.9392 L344.789 58.0504 L344.8402 58.3105 L345.5588 58.3173 L346.9902 58.3317 L348.2332 64.8767 L349.5725 64.4073 L349.8672 66.1379 L349.9496 67.7847 L350.1143 69.0061 L350.344 70.7277 L349.9625 71.7289 L349.5231 74.5147 L349.6602 75.5165 L348.5765 77.424 L349.9091 78.0491 L349.2657 78.9411 L347.7426 79.298 L347.1206 79.6685 L346.5205 81.4312 L345.6848 82.6313 L344.8785 83.2776 L343.8919 84.5264 L343.5909 86.1197 L343.9529 87.5619 L343.7864 88.1266 L343.7975 88.2673 L343.9035 88.4896 L344.1002 88.7407 L344.041 89.3301 L343.9097 90.312 L344.4159 92.4699 L344.3883 92.5604 L343.5802 94.1447 L343.4053 96.1749 L342.83 99.0848 L342.1404 100.9195 L342.1043 101.3188 L341.9369 101.4622 L341.3207 102.3226 L341.0799 102.8618 L341.0745 103.9576 L341.4325 105.5239 L341.4908 106.4186 L341.3733 108.0954 L341.0803 109.2049 L340.6694 109.5411 L339.9236 109.8814 L341.3167 113.1012 L341.2713 113.4257 L341.1698 113.6363 L340.9574 113.8442 L340.3875 114.2051 L340.5705 114.1783 L340.7174 114.2161 L341.2241 115.0346 L342.7481 117.4132 L343.3496 120.2303 L343.8718 120.8937 L344.4119 121.7972 L345.1251 123.6579 L345.3304 124.8612 L344.7494 127.3036 L344.269 128.1269 L342.6982 128.6057 L341.4984 128.8815 L340.0167 126.4762 L337.4406 122.1163 L337.3039 122.2199 L339.7201 126.3205 L340.0416 126.9441 L341.0429 128.6702 L340.1369 128.6016 L339.1943 128.6215 L338.1075 128.8452 L337.4264 129.0483 L336.7501 127.5307 L336.5301 127.1966 L336.4411 126.6745 L337.3498 126.0776 L337.4099 125.9054 L335.8289 123.3409 L333.268 118.8622 L332.7658 117.9799 L331.9782 116.8554 L329.9613 114.9317 L329.4186 114.2449 L329.0054 113.554 L328.7361 112.4995 L328.5931 111.2508 L328.5776 111.0196 L328.6194 109.2097 L328.757 107.5219 L328.8714 106.5586 L329.0165 105.9116 L330.1804 103.7003 L330.3228 103.0992 L330.195 101.4155 L330.2783 101.2975 L330.7485 101.2756 L330.606 98.9956 L331.9234 98.4193 L329.8366 98.5476 L328.627 99.023 L326.7459 99.8793 L326.9284 100.6423 L325.2268 102.1792 L324.4103 103.8155 L325.7246 104.8625 L322.3872 109.5198 L326.9471 112.7026 L327.9177 112.1784 L328.0339 113.576 L329.5477 116.933 L327.452 119.8282 L324.4054 119.5174 L324.1917 121.4583 L322.5034 120.7983 L322.6392 120.2934 L321.8048 118.4698 L318.6028 118.8965 L321.0867 124.0002 L321.7852 123.8836 L322.0573 126.0961 L321.6882 126.1929 L322.1735 129.783 L322.6499 135.0869 L322.8943 140.3673 L321.5399 147.729 L321.6704 149.0325 L324.4775 149.3213 L324.5999 151.0521 L323.5011 151.3615 L322.9295 151.8479 L322.2661 153.0209 L323.6191 160.781 L323.2736 162.0596 L322.2866 162.5851 L320.7425 161.8737 L319.8343 161.5548 L319.3174 161.1041 L319.0801 160.3742 L318.3552 157.8703 L318.3098 156.1669 L317.9977 154.1055 L317.1046 150.8737 L315.7551 148.4555 L315.4519 147.0279 L314.8589 147.2907 L315.0339 149.619 L315.4693 151.2634 L316.0761 152.466 L316.1549 154.7373 L318.479 163.5949 L319.8757 165.3695 L320.8485 165.8593 L320.8022 166.5323 L322.9259 169.3935 L325.4574 170.6495 L327.6724 174.0203 L325.4993 176.8149 L324.6453 177.7074 L322.6271 178.3288 L320.1433 178.1347 L318.4741 176.0775 L317.6803 172.6806 L316.7257 170.8285 L317.7244 169.2439 L317.63 167.577 L318.004 165.5163 L317.4835 164.1011 L316.1282 163.588 L313.7717 151.6009 L313.1898 150.0073 L313.7111 148.6627 L314.8366 145.3527 L314.9528 143.8393 L313.9373 143.51 L313.8554 142.1379 L315.3647 141.0671 L316.1055 140.9573 L317.3682 139.0089 L319.7617 135.9245 L320.1188 132.1657 L319.865 130.5219 L319.491 130.7064 L319.2399 130.8073 L319.0805 130.8196 L318.8374 130.7901 L318.6758 130.6975 L318.7212 130.5699 L319.0618 130.5116 L319.3877 130.4176 L319.7831 130.1137 L320.2341 129.582 L320.056 129.5161 L319.8596 129.2966 L319.7693 128.9392 L319.6437 128.2188 L319.8311 127.8634 L319.5725 126.9434 L319.0378 126.0399 L318.7199 125.0815 L318.3722 123.426 L318.1923 122.1842 L316.2765 119.6876 L314.6269 120.4251 L314.1612 119.9202 L313.6381 120.0999 L313.9836 120.5609 L314.4141 120.9287 L314.7262 120.9712 L315.1924 121.0144 L315.37 121.0 L315.8932 121.057 L316.386 121.3575 L316.6273 121.6724 L316.6678 121.8734 L316.5507 122.106 L316.4653 122.3475 L316.516 122.672 L316.9675 123.1488 L317.1251 123.9597 L317.0592 124.7569 L316.8295 125.2022 L316.9238 126.1538 L317.6331 126.6436 L318.0467 126.9983 L318.3267 127.4147 L318.5663 127.7111 L318.6923 128.2023 L318.5823 128.6819 L318.4207 129.2822 L318.0276 129.8461 L317.7279 130.1116 L317.4554 129.558 L317.0458 129.5292 L316.8041 129.5916 L316.8437 130.2447 L316.9292 131.5434 L317.2386 132.0202 L317.2818 132.79 L317.3682 133.8719 L317.573 134.1243 L317.6972 134.6691 L317.5837 135.3338 L317.3749 136.0377 L316.9626 136.5907 L316.5414 136.9584 L315.9697 137.2952 L315.0931 137.4462 L313.8852 137.4633 L313.2717 137.3714 L313.5139 138.7119 L313.1256 141.0012 L312.8149 143.2912 L312.1163 145.5427 L310.5638 146.5127 L309.4383 146.4736 L307.498 145.1935 L305.3632 142.8253 L301.4822 137.6636 L302.569 135.7619 L307.3996 132.1458 L307.5626 132.093 L307.8582 131.3136 L307.9228 130.8882 L308.0341 130.5816 L308.2375 130.0396 L308.4196 129.5422 L308.8301 129.0386 L310.8176 127.1156 L312.1582 125.0519 L312.6301 123.7018 L313.0188 122.5382 L313.0562 121.2354 L312.8532 120.163 L312.7481 119.385 L312.8211 118.9089 L312.5794 116.546 L312.6181 115.7893 L312.6902 115.4579 L313.1568 114.2504 L314.3643 114.4425 L312.0865 103.5466 L311.5255 103.6804 L311.0861 105.972 L311.3608 106.6581 L311.306 107.9754 L311.0727 109.1829 L311.5482 110.8467 L311.2375 112.7094 L309.433 112.7876 L309.3359 111.1575 L308.2295 111.2734 L308.4045 112.166 L308.8702 113.5245 L307.628 113.8353 L306.8907 111.5451 L306.677 109.1582 L306.5996 108.0522 L306.677 107.2955 L306.9878 106.9654 L307.0653 105.9761 L306.8324 104.2293 L308.6761 103.725 L309.7241 104.7143 L310.1511 105.7044 L311.0046 103.3174 L311.2473 101.587 L310.6983 101.7243 L309.9628 102.7919 L309.0795 102.6272 L308.604 102.2292 L308.7402 101.1521 L308.3511 99.7983 L308.7033 99.2193 L309.0136 98.1517 L310.6244 98.5592 L311.2646 97.5698 L309.5269 96.0096 L309.9298 95.1917 L311.5251 95.2219 L311.9716 94.1351 L311.2094 93.6383 L310.5598 93.4599 L309.8421 94.0034 L308.7941 93.7118 L310.0554 89.7336 L309.3372 89.501 L309.7838 88.2975 L308.5029 87.7932 L308.4922 88.4587 L308.47 88.8773 L308.3903 89.2677 L308.2554 89.5833 L306.3649 89.5504 L306.5083 88.6131 L305.2621 88.1815 L304.1366 86.5121 L304.1753 84.7268 L304.6219 83.2131 L307.5519 82.3404 L307.7269 80.7101 L307.0862 80.6709 L307.1445 79.3714 L307.746 79.1381 L307.1703 78.1946 L306.7648 77.8309 L305.2817 79.8174 L303.9674 80.9777 L304.17 81.3818 L303.8828 82.0885 L303.2631 82.9716 L301.333 82.8344 L299.809 84.0866 L297.672 84.8235 L297.3323 85.9907 L295.6524 85.8925 L295.441 86.027 L295.0029 86.8792 L294.1961 88.058 L292.0221 90.6592 L291.5938 90.561 L291.0568 91.9656 L288.8058 96.7396 L287.7773 100.0769 L287.0596 101.2611 L286.8268 102.5805 L286.6518 105.491 L285.2547 106.5867 L285.6434 106.8804 L286.0205 107.0423 L286.2458 107.2344 L285.9323 108.1009 L285.8326 108.4742 L285.8139 109.01 L285.6438 110.8508 L285.5503 113.2082 L285.3313 114.8761 L284.5677 117.265 L284.35 117.4002 L284.1221 117.4002 L283.9609 117.0853 L283.8527 116.4253 L283.9351 114.6085 L283.862 113.6151 L283.2971 113.3386 L283.0224 113.0696 L282.8919 112.7527 L282.7601 109.9472 L282.4623 109.773 L282.2321 107.904 L282.1787 107.6982 L281.8853 107.5795 L281.0812 107.5575 L280.4209 107.3997 L279.7112 106.6341 L279.77 105.9795 L280.0603 105.5171 L280.2909 104.9915 L280.7152 104.5236 L281.0531 103.4251 L281.2895 102.5277 L281.6907 101.775 L281.7962 101.6865 L282.1515 101.5308 L282.4004 101.4217 L282.7989 101.1061 L283.0121 100.6066 L282.4302 99.6646 L281.3822 99.7421 L280.3648 99.893 L280.8279 100.844 L278.7081 105.963 L274.2136 106.1051 L273.662 100.1805 L273.7844 99.3819 L273.6517 99.0189 L273.3908 97.8347 L273.3071 96.2511 L272.9991 95.5643 L272.4033 95.6 L270.4617 95.8614 L269.8838 96.1187 L269.5548 96.4789 L268.7708 96.7094 L268.5197 96.6991 L268.1831 97.224 L269.9537 97.5657 L269.691 98.2772 L269.8927 98.7047 L269.7863 100.3651 L269.334 102.2039 L270.5646 102.7452 L270.7841 103.7606 L270.2899 106.5051 L267.3683 111.3112 L265.6604 117.2781 L263.5652 116.933 L262.9076 117.0167 L262.3039 120.3373 L264.6093 122.176 L262.982 126.752 L262.4148 128.0665 L260.4821 133.5481 L259.2706 137.4153 L259.1887 137.8626 L259.0217 138.1775 L258.8517 138.3538 L258.605 138.4512 L259.5266 138.8443 L260.7559 140.4037 L261.068 140.9106 L261.0711 141.2564 L260.9344 141.3977 L260.7661 141.4547 L260.8881 141.5432 L261.0604 141.8951 L261.0755 142.0049 L261.0613 142.1359 L261.0252 142.2998 L260.9317 142.4439 L260.8276 142.6065 L260.56 142.8885 L260.3752 143.0456 L260.2283 143.1375 L259.9344 143.2418 L259.5809 143.2953 L258.5088 143.1649 L257.3526 142.9056 L256.8842 142.7574 L256.7814 142.7039 L256.7578 142.6442 L253.8162 141.5137 L253.814 141.8663 L253.6399 142.2395 L252.3843 142.6504 L251.2076 143.1471 L250.6458 143.4524 L250.2085 143.7721 L249.9597 144.2873 L249.49 144.7071 L249.0519 145.5777 L249.0603 146.0737 L249.4103 146.5738 L249.4672 146.7652 L249.4339 147.1144 L249.3515 147.5541 L249.0888 148.4295 L248.8662 148.7004 L248.2714 148.7485 L248.6997 149.4262 L248.8747 149.3007 L249.0999 149.2637 L249.2518 149.3069 L249.3248 149.2952 L249.3702 149.2479 L249.5599 149.1525 L249.8012 149.1573 L250.0131 149.2643 L250.221 149.3899 L250.3995 149.514 L250.5687 149.6526 L251.9494 150.1219 L251.8714 149.9682 L251.8064 149.7692 L251.7227 149.3432 L251.7828 148.8616 L251.9204 148.1701 L251.9035 147.2125 L252.1168 146.3289 L252.1978 145.7403 L252.176 144.9129 L252.3242 144.3751 L252.5945 144.0314 L252.8808 143.9278 L253.1243 143.9641 L253.9034 143.7577 L256.9697 144.301 L258.166 146.8928 L258.2644 147.0458 L258.3125 147.4876 L258.1722 147.8951 L258.0093 148.094 L258.3864 148.2401 L257.804 149.8708 L256.6638 149.3782 L256.5432 149.9757 L255.9862 151.723 L254.842 155.7746 L254.4395 157.9876 L254.9698 159.2917 L255.0419 160.7336 L254.8985 160.9881 L255.199 161.834 L255.1728 162.5577 L255.4577 163.7437 L254.464 163.4844 L253.9823 163.2896 L252.7619 163.1126 L252.3291 163.2533 L252.1341 162.9295 L252.1533 162.3766 L252.4587 162.2243 L252.7276 161.3544 L252.5517 161.2255 L252.1101 160.617 L251.3131 160.2315 L250.3577 158.4438 L250.3359 158.4458 L249.8234 157.3674 L249.6075 157.3359 L249.4085 156.9085 L249.2259 155.2717 L248.4913 154.0938 L249.1302 153.7968 L248.921 153.7687 L248.7941 153.6075 L248.7357 153.4682 L248.665 153.2281 L248.6645 152.9928 L248.002 152.9805 L246.4014 149.0585 L245.9295 146.4311 L245.6276 145.5893 L245.5457 145.1071 L245.6552 144.3188 L244.5426 144.456 L244.4193 142.837 L244.9407 141.8628 L245.7777 143.0428 L246.1192 142.5605 L245.9504 142.5372 L245.7011 142.2731 L245.5346 141.9925 L245.4139 141.6152 L245.3418 141.3223 L245.2732 140.4448 L245.34 140.2349 L245.4366 140.0538 L245.6918 139.7732 L246.0711 139.5173 L246.3044 139.483 L246.5973 139.2923 L246.852 139.0796 L246.986 138.8278 L247.1445 138.3167 L247.4535 137.8427 L247.6329 137.3522 L247.8217 136.8603 L247.6062 136.2463 L247.2122 135.4923 L247.1904 135.2158 L247.3164 135.0937 L247.4112 135.0491 L247.5586 135.1177 L248.0385 135.9458 L248.372 136.5625 L248.3738 136.8157 L248.3017 136.9207 L248.3471 137.051 L248.5581 137.0359 L248.7567 137.051 L249.0545 137.0702 L249.5002 137.0901 L249.8559 137.2163 L250.0861 136.9316 L249.9668 136.675 L249.5915 136.3835 L249.1779 136.07 L248.8105 135.4127 L248.5666 134.9126 L248.4753 134.5428 L248.3546 133.8842 L248.3359 133.3409 L247.8524 132.4703 L247.5848 131.9784 L247.2264 131.3575 L247.047 130.8889 L246.9353 130.4958 L246.8787 130.0238 L246.8266 129.6506 L246.8596 129.4537 L246.031 129.0434 L246.5159 127.6466 L245.507 127.4525 L245.1967 128.345 L245.2545 131.1784 L245.7011 136.0302 L245.2296 137.5127 L244.2261 138.6303 L243.4113 143.3069 L243.5859 145.2669 L245.0413 147.8285 L246.2055 151.9624 L247.5056 154.2523 L249.2313 158.3683 L250.2954 160.5738 L250.9472 160.5217 L251.1925 160.9477 L250.847 161.6542 L250.4966 162.7587 L249.7531 162.8739 L251.1542 162.8876 L251.0571 164.6534 L250.6689 165.1967 L249.815 165.5465 L250.0287 166.9631 L250.6493 166.9823 L251.5032 167.8747 L251.4841 168.5929 L250.1257 168.263 L250.1836 170.1453 L251.6586 170.087 L250.9792 171.6201 L251.969 172.4351 L251.9885 174.6672 L250.5527 175.5404 L250.6106 178.5092 L251.7557 182.1187 L251.4645 184.8742 L249.4851 187.4746 L249.5238 190.0948 L250.9792 193.3742 L250.8822 196.7318 L252.5647 196.5789 L252.6181 198.116 L250.5046 198.2806 L250.6422 194.8503 L249.0501 196.6612 L248.6026 200.051 L248.7967 205.4847 L247.283 208.5898 L247.0501 210.2969 L246.8947 211.9273 L246.429 213.7127 L245.5751 214.6057 L244.9545 213.4019 L244.1393 209.7928 L244.3334 207.1144 L244.9545 205.174 L245.9246 203.6602 L246.7006 201.7973 L247.1245 196.7106 L247.234 192.3735 L246.555 191.3062 L246.1307 189.5811 L246.0969 189.4418 L246.0787 189.2113 L245.9829 188.8135 L245.9909 188.2469 L246.2047 187.6508 L246.2149 187.1707 L245.9754 187.1803 L245.8814 186.1301 L246.2759 184.8982 L246.2933 184.8975 L246.4535 184.5991 L246.7509 183.9255 L247.112 183.5002 L247.1392 183.3802 L247.149 183.1943 L247.128 183.0104 L247.0305 182.7148 L246.9669 182.6147 L246.7211 182.3993 L246.7305 182.3615 L246.7647 182.3279 L246.3587 182.3423 L246.3418 182.1269 L246.8614 180.3771 L246.5657 177.6909 L246.8663 172.4357 L247.1712 172.3884 L246.8542 170.36 L246.5586 167.2093 L245.5885 162.653 L245.2341 160.7693 L245.2087 160.7 L245.1366 160.0161 L245.0235 159.6847 L244.9019 159.1689 L242.5342 159.6388 L242.1656 159.3479 L242.3789 157.8147 L242.975 157.4607 L242.0 155.7327 L241.9421 155.4542 L241.2146 156.2232 L241.7582 157.5623 L241.813 159.4289 L241.5659 159.7581 L241.1545 159.2368 L240.7974 159.4289 L239.59 157.233 L241.4011 155.4494 L245.2158 149.9332 L244.5889 148.507 L244.6161 148.9076 L244.5783 149.2294 L244.4603 149.7308 L244.2599 150.1616 L243.9287 150.3366 L243.4104 151.1831 L242.9349 152.1339 L242.5169 152.3528 L242.1282 152.9036 L241.4546 153.4771 L241.248 153.9189 L240.8682 154.2653 L240.6202 154.6317 L240.3313 154.8039 L239.8184 155.0241 L239.2182 155.234 L238.9043 155.3211 L238.1973 155.044 L237.8567 154.9184 L237.6835 154.7943 L237.619 154.6015 L237.6154 154.4039 L237.9275 153.7598 L238.6243 152.4406 L239.305 150.8092 L239.7093 149.9325 L239.9413 148.7944 L240.557 146.5367 L240.878 145.459 L241.0485 145.1976 L241.248 145.07 L241.5681 144.939 L241.8023 144.9013 L242.0432 144.9067 L242.2279 144.9788 L242.4042 145.1002 L242.6086 145.5633 L242.7404 145.8281 L242.8731 146.1087 L243.1371 146.4791 L243.2982 146.7055 L244.2065 147.6467 L243.8165 146.8043 L243.016 145.1777 L242.9381 143.237 L243.5979 138.9678 L239.7169 138.5411 L239.6118 134.8145 L241.2858 134.7322 L241.4506 130.067 L241.7248 125.95 L240.63 125.8402 L240.4751 124.1326 L232.9842 124.676 L233.0229 123.1625 L240.0089 121.4158 L240.2422 118.8156 L241.9497 118.3113 L242.8423 115.4003 L243.3859 111.9849 L243.9679 108.3363 L243.8904 107.2111 L242.8423 106.5126 L239.5432 106.1243 L239.7373 103.3689 L239.3883 101.0786 L239.5432 96.3046 L238.7267 93.4325 L244.8191 91.4839 L244.9839 88.657 L245.0115 86.5169 L247.2621 83.4979 L249.4027 81.9884 L249.5946 81.0552 L248.9361 81.2748 L248.1676 80.3141 L248.9633 79.4908 L248.3048 76.5821 L249.238 71.4496 L247.3716 71.2849 L247.1521 69.6937 L244.3512 69.2586 L243.9327 70.1788 L242.7929 71.5951 L241.321 72.4006 L239.1968 73.0051 L238.9075 73.0779 L239.5227 75.2372 L241.0868 77.927 L242.0476 80.2593 L240.2912 81.0552 L239.2757 78.832 L232.5243 80.0671 L233.0341 84.029 L229.3775 83.8025 L230.0569 82.0563 L229.6686 80.1158 L228.9892 80.5234 L226.4452 80.0809 L225.6465 80.2812 L225.0325 81.8601 L224.049 84.1367 L223.5762 85.555 L223.4943 85.6853 L222.314 88.5575 L219.5581 95.3104 L217.3458 100.162 L216.4143 98.6093 L216.4531 91.0798 L217.7727 86.1896 L220.8029 84.2931 L221.1404 83.0402 L221.3234 81.5527 L221.7855 80.7725 L223.3037 78.7744 L223.4938 78.419 L223.8117 77.9476 L223.9796 77.5812 L224.0472 76.5794 L224.0036 76.1869 L225.37 76.0641 L225.2979 76.5787 L225.4016 77.2251 L227.1469 76.6693 L227.4376 75.3916 L225.6634 75.3347 L224.2356 75.3882 L224.1577 74.4598 L223.2427 74.5339 L221.9547 74.5449 L220.2272 74.0467 L220.0211 73.7778 L220.0091 73.458 L220.1128 72.4651 L219.4156 72.6202 L217.0604 72.73 L215.0248 72.4363 L214.4661 73.06 L211.5841 73.1149 L211.4198 72.4569 L210.3767 71.9903 L208.9497 72.0726 L209.9007 73.1904 L210.1372 73.3695 L210.5695 73.8299 L211.2734 74.337 L211.6874 74.4454 L212.1424 74.4084 L213.3445 74.2402 L213.6891 74.1421 L213.8899 73.834 L216.4224 73.3016 L217.4851 73.375 L217.2932 73.7078 L216.8787 74.1558 L216.6138 74.5483 L216.393 74.7954 L216.8698 75.1426 L216.8903 75.535 L215.1593 75.8795 L214.3939 75.4952 L213.8966 75.4548 L209.7926 75.6874 L209.6394 75.6997 L209.5633 75.8294 L209.4729 75.8555 L209.3642 75.8891 L207.6194 75.5282 L205.542 75.2503 L204.7023 75.2441 L203.937 74.9408 L202.5568 74.6622 L200.8943 74.7096 L200.6717 74.6286 L200.5711 74.3768 L200.6989 73.5808 L200.5266 73.2048 L200.0929 73.646 L199.2163 73.799 L197.9532 73.6618 L196.7898 73.4011 L195.2502 72.7766 L194.1225 72.2359 L192.7338 71.6246 L191.217 70.8739 L190.4075 70.246 L190.3176 69.8199 L191.3639 69.4013 L192.2454 69.2312 L192.7013 69.4542 L192.9676 69.3835 L194.7133 68.2952 L195.2186 67.3058 L186.9851 69.5557 L185.174 70.1047 L184.076 69.94 L181.5788 74.0845 L182.4296 74.9353 L181.6888 76.307 L179.2427 75.4747 L177.724 80.0047 L176.8029 81.9794 L176.298 82.5339 L175.8221 83.5994 L175.2442 84.6246 L174.8684 85.0939 L176.9957 86.0497 L176.9409 87.3671 L175.3488 90.1665 L173.6747 93.707 L171.0951 93.6795 L171.9735 90.2763 L173.8395 87.7239 L174.506 85.0431 L174.1734 84.6678 L174.1685 84.0674 L174.2099 83.3524 L174.7183 81.9993 L176.225 79.2472 L176.9948 77.6868 L178.0357 76.2041 L178.297 75.7676 L178.3567 75.5097 L178.1541 75.216 L178.4275 74.7055 L178.7859 73.327 L179.2894 71.9121 L179.3838 69.918 L180.5009 68.4084 L170.6739 64.161 L167.7925 63.7355 L164.8063 62.0475 L162.3363 61.1692 L159.2299 61.3064 L156.7376 60.7575 L153.1424 57.7663 L150.0414 56.7233 L146.4186 56.3939 L142.1285 56.4694 L137.7466 55.4332 L128.0461 51.2878 L123.3659 42.9735 L119.6349 40.5628 L109.1726 35.1415 L104.3878 33.7676 L98.3573 33.4958 L91.8321 33.5453 L88.3442 34.7839 L86.5473 35.4393 L85.4138 36.549 L83.3733 39.0064 L80.462 43.6481 L76.8584 53.2415 L75.7609 54.8644 L74.5677 55.6995 L72.3242 56.3795 L69.5442 57.4891 L68.4704 57.9907 L66.3467 58.9212 L65.8097 56.9525 L63.7693 57.1906 L65.1891 59.8757 L62.3971 61.5226 L58.7458 63.1331 L53.7584 65.9608 L49.4269 70.292 L46.0743 73.7284 L41.4925 76.473 L42.4827 77.2367 L40.7646 79.2053 L38.6404 80.0047 L36.982 78.8835 L33.9754 80.6847 L32.6388 83.3456 L31.4857 87.363 L33.1736 86.672 L33.8485 86.0984 L35.2999 84.7988 L35.6374 84.4276 L36.6329 83.6008 L37.3417 81.9307 L38.7758 82.5551 L36.059 89.1867 L35.2999 93.8435 L35.4856 94.6202 L35.6205 95.987 L35.1481 97.9945 L34.3547 99.4965 L32.5663 98.5517 L31.4523 98.5009 L31.4399 105.5027 L31.5111 111.5637 L31.6901 111.4923 L32.227 111.5163 L32.5614 111.8738 L32.2751 115.3941 L32.1673 116.6942 L32.2751 119.009 L32.621 122.2192 L32.406 125.7387 L31.7618 127.0875 L31.3682 127.9464 L30.2943 130.3922 L29.2324 131.717 L27.4783 133.5899 L26.7267 133.7216 L24.6386 135.4511 L22.4312 136.979 L21.7153 137.4201 L21.1663 137.9929 L20.2714 138.4347 L18.792 138.4347 L17.1041 138.9671 L17.4091 139.0041 L18.2408 138.8299 L18.5645 138.941 L18.7661 139.1475 L18.5867 139.979 L18.3476 140.4565 L17.8245 140.7837 L17.1335 142.2326 L16.0253 143.6403 L15.1434 145.7053 L14.9252 146.0325 L14.5316 146.9271 L13.911 149.0277 L13.6127 150.8888 L13.1951 153.1321 L13.9947 153.9313 L14.5552 152.4282 L15.5694 150.8175 L15.7627 149.8564 L15.5583 149.8488 L15.4773 149.6073 L15.4288 148.9309 L15.4666 148.4823 L15.6282 148.271 L15.6206 148.0981 L15.5027 147.9348 L15.7302 146.7837 L16.1037 146.3632 L16.1643 145.9687 L16.3642 145.6922 L16.5672 145.5338 L16.7377 145.2786 L18.3797 144.3648 L18.4972 143.9902 L19.0346 142.4679 L19.6757 141.3881 L20.2176 140.9168 L20.811 140.9285 L20.0092 140.2472 L24.0291 137.4571 L25.1943 136.6209 L26.4765 136.2497 L29.0414 135.3551 L29.8348 134.5284 L30.4929 133.701 L32.3659 132.5876 L33.7158 132.9587 L30.7627 139.6072 L29.4297 137.4647 L28.3496 138.4601 L26.6555 140.7837 L26.5103 142.0392 L26.5184 142.7506 L25.6471 144.3373 L24.6938 145.8322 L24.2704 146.2438 L23.9427 146.9202 L23.2816 148.5152 L23.2077 149.0777 L22.7665 150.3544 L22.9334 150.5815 L22.5399 151.345 L22.7068 151.5837 L22.3609 152.4426 L21.5016 153.5766 L18.8846 156.287 L19.7928 155.5736 L22.2304 153.3763 L24.5469 151.7402 L25.8706 151.0274 L27.2472 151.4664 L27.4863 151.8245 L27.753 151.9947 L28.1363 152.0811 L28.6345 151.9851 L29.1723 151.9967 L29.6585 152.2855 L30.1852 152.7685 L30.646 153.4305 L30.5766 153.8695 L30.813 154.4451 L30.8348 154.8505 L31.2364 155.306 L32.9781 155.1626 L36.0568 155.3534 L38.2998 155.306 L41.1582 156.1471 L42.6016 156.6238 L45.329 156.9037 L47.4407 156.534 L47.9314 156.7295 L48.3543 156.7946 L49.2799 157.3565 L50.7977 157.836 L52.5118 158.2757 L53.4931 158.6242 L54.2014 158.8753 L54.1315 159.2334 L52.8983 159.1661 L50.7959 158.8856 L49.4821 158.664 L48.7946 158.6331 L48.1019 158.8382 L46.5369 159.0207 L44.6216 158.9164 L42.35 158.6804 L42.094 158.6866 L40.1515 158.7353 L35.2692 158.3601 L33.3361 158.5755 L31.284 159.4344 L30.4724 160.2932 L30.6398 161.7016 L31.4986 162.083 L32.1193 163.4193 L32.2836 163.6052 L33.4077 164.8749 L34.1713 165.281 L36.9156 167.6909 L37.417 169.1465 L38.3239 171.223 L39.9227 173.6568 L41.5215 174.9292 L41.7058 174.9951 L42.0749 175.2125 L43.1189 176.0679 L45.484 177.6148 L48.2034 178.6924 L53.3341 181.2222 L55.7205 181.9856 L58.2979 182.4631 L59.4194 182.7971 L59.5258 183.682 L59.3402 183.9522 L58.3785 184.5092 L56.4382 184.2897 L55.0037 183.6312 L53.8056 183.2437 L52.9112 182.9226 L50.8525 182.2813 L49.6882 182.2312 L48.3383 181.4719 L48.2711 180.9149 L47.7644 180.1555 L47.5453 179.9696 L46.1954 180.3243 L45.8749 179.9189 L46.3303 179.1095 L45.4938 178.499 L45.3437 178.8577 L44.9007 179.104 L43.358 179.1053 L42.8794 179.1383 L42.419 179.318 L41.9827 179.3413 L41.8518 179.4758 L41.6381 179.2761 L41.8118 179.058 L42.2205 178.7713 L41.9752 178.5621 L41.8852 178.5134 L41.6497 178.6567 L41.5206 178.6608 L41.3429 178.6012 L40.0941 177.4275 L39.8421 177.1325 L38.6992 176.8081 L37.1133 174.5808 L36.742 173.8049 L33.4006 170.8683 L33.1985 169.2487 L31.3967 167.1935 L30.8001 166.3107 L29.3201 164.7713 L28.891 164.1272 L29.1412 163.2203 L28.6283 162.5762 L28.0673 162.9459 L27.1964 163.0173 L26.2539 163.328 L23.8555 162.2064 L21.7554 160.0826 L19.954 157.9821 L19.19 157.3736 L18.4741 156.8372 L17.9015 156.8372 L17.15 157.0155 L17.4287 157.5856 L18.1544 157.9403 L19.2345 158.8176 L19.1553 159.3267 L18.8685 160.7782 L19.9482 161.3346 L19.2189 166.581 L19.1352 167.8356 L18.5524 170.646 L18.158 172.0015 L17.8285 171.9727 L17.5111 171.2621 L16.0427 167.5942 L15.4417 167.105 L15.4546 166.2935 L15.3277 165.9999 L15.3054 161.9053 L15.524 159.9571 L15.7974 159.6134 L16.2698 156.9984 L14.7511 155.6991 L13.1733 153.7323 L12.3741 158.7086 L12.2561 161.7784 L12.1043 166.3175 L12.5406 169.5581 L13.0299 170.775 L14.4973 171.9926 L14.9626 172.6127 L15.6189 173.5319 L14.8793 174.7248 L15.0343 175.6913 L15.4283 175.8944 L16.2039 176.1447 L16.4305 176.4905 L16.1322 178.7102 L16.0365 179.5094 L15.0703 180.882 L14.1634 181.8244 L13.8771 181.2633 L11.932 184.7116 L10.4405 188.5659 L9.6529 191.394 L9.522 194.8538 L10.0469 194.0903 L10.6315 194.1384 L10.8461 195.6296 L10.4765 197.1804 L9.4263 197.8368 L8.4481 199.6744 L7.2188 200.9632 L6.7255 202.0085 L6.4891 204.6239 L5.7803 206.2611 L5.9998 206.3956 L4.3293 209.3998 L3.84 210.1248 L4.2358 211.4636 L5.1668 213.0391 L5.596 213.4328 L6.4076 213.1701 L6.8969 213.5995 L7.6008 214.9479 L7.6008 217.3464 L8.3644 218.1098 L9.2237 219.2079 L9.4027 220.341 L8.7464 221.1283 L7.6244 221.3437 L6.4909 221.4987 L5.6321 219.9233 L5.0114 217.2744 L4.5702 216.535 L4.0809 216.0577 L3.7826 215.1983 L3.6753 213.8382 L4.1045 212.4897 L3.2577 210.9266 L2.7087 209.6145 L2.613 211.2846 L1.5988 212.0844 L0.0 213.1104 M29.4555 214.0625 L29.4844 213.6585 L29.8633 211.703 L30.167 210.1193 L30.4105 207.919 L30.504 207.6391 L30.687 207.5074 L31.0236 207.3634 L31.532 207.3106 L31.987 206.9086 L32.6019 206.5801 L33.0912 206.6116 L34.2154 206.637 L34.9834 207.0417 L35.9446 208.4032 L36.2104 208.6323 L36.4869 208.6899 L36.6726 208.4711 L36.6209 208.1535 L36.2572 207.4525 L35.5506 206.495 L35.4669 205.7659 L35.6753 205.2913 L37.2015 203.9421 L38.079 203.1218 L38.9873 201.6869 L39.8292 201.1855 L40.2708 201.0009 L40.8332 201.1656 L41.1867 201.49 L42.0842 201.7568 L43.1443 204.1225 L43.3549 204.8839 L43.6002 206.089 L43.797 206.9951 L43.3331 209.4272 L43.7641 211.5576 L43.5958 212.2949 L42.631 213.1838 L42.4747 213.7723 L42.3287 214.0995 L41.7401 216.9747 L41.3692 217.0419 L40.8715 217.1832 L40.1689 217.0776 L39.1021 217.0097 L37.9989 217.0995 L37.3947 217.105 L36.5737 217.0975 L36.0657 216.9226 L35.0751 216.7244 L34.2109 215.8787 L33.056 215.175 L31.8984 214.8389 L30.9416 214.4891 L29.9239 214.2106 L29.4555 214.0625 M34.4558 106.4886 L34.6045 105.7332 L34.8756 104.8879 L35.0978 104.5792 L35.3218 104.6787 L35.5176 104.3534 L35.6143 103.714 L35.8195 102.8927 L36.4802 100.8385 L36.6356 100.6231 L36.3711 99.6179 L36.6748 95.4833 L38.9699 96.5804 L39.3915 96.5132 L40.4209 93.9986 L40.9289 93.8682 L41.2686 93.6425 L41.3385 93.5135 L41.3211 93.2239 L41.5032 93.0297 L41.7387 92.509 L41.985 91.6595 L42.4484 89.6787 L42.7472 89.4811 L43.0437 89.4076 L43.444 89.3528 L44.9346 89.8975 L45.1429 90.0732 L45.2898 90.2461 L45.5904 90.9089 L45.7435 91.3542 L46.101 92.0369 L46.3504 92.3697 L46.8517 93.2267 L47.1206 93.8051 L47.2364 94.2476 L47.5409 94.2799 L48.2225 95.071 L48.1005 95.5451 L48.1161 97.0415 L48.0885 97.8422 L47.9265 97.8985 L47.7243 97.8951 L44.9421 97.2474 L40.8772 98.0439 L40.9957 97.6755 L39.6947 97.6865 L38.7998 97.6981 L39.1386 99.0608 L37.9909 101.3387 L38.9192 101.4402 L38.5478 103.043 L37.9174 104.3377 L37.7709 106.3486 L37.7838 106.6574 L37.6694 107.0752 L37.5523 107.8018 L37.0799 108.6285 L36.3542 108.6121 L36.2024 107.0725 L34.7683 107.0697 L34.6388 106.9936 L34.5569 106.9009 L34.4558 106.4886 M52.4904 206.5424 L52.88 206.0156 L53.1592 205.6527 L53.4414 205.556 L53.7357 205.3832 L56.7201 208.1096 L57.6479 209.0562 L57.9164 209.5541 L57.9791 209.7969 L57.8429 210.0185 L57.6194 210.2284 L57.4489 210.4252 L57.0041 210.7112 L56.59 210.9307 L56.3238 211.0699 L56.0291 211.168 L55.6493 211.2791 L54.473 211.3806 L53.2669 211.1879 L52.7567 211.0624 L52.6365 210.7194 L52.6472 210.3161 L52.7611 209.967 L52.7941 209.537 L52.8048 209.1344 L52.7945 208.8566 L52.6592 207.4073 L52.5603 206.945 L52.4904 206.5424 M57.907 138.8347 L58.3807 136.7958 L60.4604 132.5746 L60.6434 130.3003 L61.7373 129.0133 L66.4348 126.2786 L71.1969 124.5731 L74.6719 121.2594 L76.9768 119.6423 L77.5369 118.2255 L77.0756 115.8208 L76.9274 112.8062 L76.4456 110.4179 L77.2364 109.1006 L80.1027 106.1188 L82.7491 103.3949 L84.9236 101.8629 L87.1145 99.2934 L90.6621 94.3197 L95.1668 90.6646 L97.3546 88.1163 L99.7847 87.013 L101.473 86.9924 L104.3758 87.6868 L108.7038 90.8334 L114.6756 91.5031 L116.57 92.2235 L119.0152 93.8325 L120.1581 95.2096 L129.2722 98.6738 L127.1165 104.6732 L126.5697 108.8412 L130.3831 109.233 L129.29 113.7084 L127.974 114.4837 L130.0536 115.6781 L128.8973 120.1809 L131.2829 126.7143 L133.4039 128.1145 L136.8219 132.3564 L139.6343 137.8146 L137.0396 144.1158 L139.4064 149.9476 L139.0765 152.398 L134.3202 157.1959 L134.1301 168.217 L144.4525 167.6785 L146.0972 167.5516 L148.5953 173.4976 L149.1225 174.8154 L150.894 178.6972 L151.5663 180.5163 L151.7079 184.4509 L152.9701 191.9297 L154.865 198.5598 L158.9597 210.037 L159.7963 214.2524 L159.603 218.6277 L164.1078 218.8533 L172.441 221.2662 L173.1155 227.5521 L173.4615 230.7482 L173.0096 232.8215 L169.2617 238.1964 L164.0005 236.7616 L161.2722 236.8131 L158.9815 236.6327 L153.6531 234.1102 L142.4949 224.1084 L133.6973 210.7229 L128.7326 198.092 L118.1167 183.7129 L111.8346 172.5249 L104.143 168.855 L96.401 166.7435 L89.6643 162.8225 L80.1121 160.9621 L70.6141 160.641 L69.5598 159.9331 L68.8185 158.8787 L68.5189 157.2577 L68.6899 154.0424 L65.7345 147.7119 L64.1668 146.6801 L62.5195 144.6001 L59.0187 140.7906 L57.907 138.8347 M61.4541 302.6674 L61.9772 302.3636 L62.5004 302.3129 L62.8379 302.7181 L63.5551 303.7248 L64.7928 306.1953 L65.5203 308.6947 L66.1169 310.2457 L66.1619 312.9946 L66.5501 313.6528 L66.685 314.8843 L66.567 317.6181 L65.9932 317.939 L65.2002 317.4158 L64.4068 317.2465 L63.7995 317.3651 L62.8379 316.3523 L63.7826 315.0866 L64.1709 312.4714 L64.1032 310.6825 L62.7025 307.2403 L62.1629 305.4856 L61.8085 303.8489 L61.4541 302.6674 M63.9126 300.1084 L64.2465 298.8439 L75.1046 302.7812 L74.0788 306.0746 L73.5535 307.9596 L72.1933 306.0986 L70.9525 304.0703 L69.6159 304.1897 L68.4227 304.4043 L66.49 304.0223 L65.0105 302.5426 L64.2946 301.3735 L63.9126 300.1084 M64.1428 216.2689 L64.3868 215.7237 L66.189 214.2037 L66.7696 213.7545 L67.2856 214.2079 L68.4085 214.5686 L68.8168 214.7332 L69.225 214.688 L69.4503 214.8615 L70.2152 215.0097 L70.6377 214.9754 L70.8634 214.6352 L71.4111 214.3121 L71.9128 214.2593 L73.1635 214.009 L75.0534 213.188 L77.8989 211.6763 L79.6642 210.3882 L81.1842 209.1885 L81.9851 209.253 L82.7242 209.4656 L84.1449 210.4142 L83.3965 211.6817 L83.1186 213.8409 L83.1445 214.1571 L83.1044 214.6379 L82.7789 215.271 L82.6578 215.9863 L82.8671 216.5138 L82.713 217.0522 L83.502 217.8849 L82.8195 219.2895 L83.0634 219.7148 L84.1671 220.7319 L84.6012 221.341 L84.6818 221.7305 L84.1493 222.3183 L84.8283 222.319 L85.1511 222.2682 L86.2365 223.2559 L86.7441 224.199 L87.1119 224.6269 L87.2214 224.8347 L87.1791 225.3395 L82.612 228.5075 L81.6881 229.3607 L80.9121 229.5198 L80.3093 229.1694 L79.5319 228.9945 L78.9033 228.6207 L78.2234 228.3175 L76.7279 228.3648 L75.9514 227.7661 L74.911 227.2565 L74.3909 226.6982 L73.9916 225.8025 L73.2538 225.6832 L72.4315 225.428 L69.1142 222.474 L69.0714 221.9459 L69.3443 221.5769 L67.6556 219.6667 L67.5599 219.581 L65.6815 217.4541 L64.4536 216.6331 L64.1486 216.3396 L64.1428 216.2689 M73.525 283.3987 L74.3366 283.4947 L78.471 290.149 L79.7363 291.1783 L82.6556 291.7186 L83.2633 292.0725 L82.2843 292.7987 L81.2719 293.1189 L80.6307 293.2876 L78.8254 292.7308 L75.2311 290.976 L73.9991 289.6258 L74.0668 288.2591 L73.8473 286.1327 L73.525 283.3987 M84.1355 295.656 L86.2682 294.1955 L87.6929 294.3737 L91.0766 295.368 L95.7291 300.8811 L93.2982 305.5782 L89.7632 304.0628 L84.1355 295.656 M85.8127 205.1774 L89.4916 203.3214 L92.8325 200.8576 L95.9375 199.339 L98.8061 200.3514 L99.9872 201.8028 L101.5736 203.1526 L101.8434 204.6712 L103.4969 207.7427 L103.5646 208.0801 L104.2258 209.2921 L104.4306 210.7942 L104.9711 213.1447 L102.6421 215.4061 L100.7971 216.2813 L98.5024 217.5296 L97.8613 218.1036 L97.4223 218.1709 L97.5234 215.5721 L96.815 214.4589 L95.4651 212.6022 L94.8574 209.6666 L95.4313 207.4724 L95.8698 205.7179 L95.6 204.6712 L94.8912 203.6931 L88.5125 206.8311 L86.5892 207.6755 L85.8804 206.5616 L85.8127 205.1774 M86.2597 234.4099 L94.4184 230.2338 L94.6366 230.1851 L94.8788 230.301 L95.5809 230.5726 L96.0248 230.8771 L96.5773 231.148 L96.8627 231.1679 L98.2495 230.6967 L98.6391 230.8572 L99.8132 230.1391 L100.1489 230.2269 L100.4935 230.4464 L101.0402 231.4107 L101.0585 231.8675 L101.2526 232.4395 L102.5143 232.7303 L103.4253 233.3715 L104.4715 236.1389 L100.1324 238.3644 L98.1333 239.5214 L93.0111 241.8553 L92.7453 241.6235 L92.5823 241.284 L92.2706 241.247 L92.0133 241.3423 L91.8325 241.4747 L91.9238 241.8382 L91.9278 242.1166 L91.4505 242.3964 L90.9871 242.31 L90.6353 241.786 L90.3508 241.1558 L90.3148 240.8615 L89.4061 239.8403 L88.5989 238.4762 L88.253 237.7808 L87.8603 237.0771 L86.834 235.4085 L86.2597 234.4099 M89.7449 373.0239 L92.1901 372.1505 L93.9019 367.5744 L96.8711 364.0115 L92.9238 360.0989 L93.5177 359.3653 L95.6134 358.7366 L98.059 358.7366 L101.5522 359.4352 L105.9537 359.4352 L107.024 360.0467 L109.0275 363.487 L108.259 364.8849 L107.1064 367.1905 L104.8006 369.0065 L103.4034 370.7184 L102.5299 372.919 L102.6697 376.5518 L97.1855 374.3511 L95.0546 376.3427 L89.7449 373.0239 M90.0512 270.8672 L90.695 269.5601 L92.7279 268.4183 L95.275 266.1148 L95.3823 264.6891 L95.0804 262.5549 L94.6232 262.8519 L94.34 263.9265 L93.5498 263.681 L93.406 263.4416 L93.621 262.8155 L93.7897 261.8493 L93.6508 261.2725 L93.2083 260.9893 L92.853 260.4427 L92.1727 259.462 L92.1344 258.6055 L92.9581 258.4951 L93.4193 257.8641 L93.6219 256.3122 L93.7613 254.4523 L94.4945 254.0587 L96.5657 253.2782 L96.9758 253.5422 L97.5692 255.6223 L98.0626 256.1572 L98.6146 256.1929 L99.2103 256.0831 L99.6956 256.1366 L100.5251 257.7023 L99.9939 260.9872 L99.697 262.5021 L100.0411 263.7118 L99.6467 264.0218 L99.213 264.0012 L99.2117 263.5994 L98.4085 263.5843 L98.1641 263.8449 L97.8003 264.3078 L96.8774 264.4875 L96.1868 265.1067 L96.4161 265.9605 L97.8738 265.2912 L98.3056 265.0649 L99.2905 265.7273 L100.627 265.5511 L101.4832 266.527 L102.9208 266.9919 L103.1808 267.1565 L102.9863 267.4198 L99.7847 268.2373 L98.0158 269.0081 L96.7469 269.4531 L96.4985 269.8008 L96.1009 270.5442 L96.0715 271.2156 L95.6811 272.4534 L96.6512 272.8573 L96.9789 273.1707 L97.1757 273.5526 L94.9549 275.3829 L92.2488 273.9504 L91.8446 272.7647 L91.2956 272.6852 L90.9608 272.3416 L90.4973 271.7512 L90.1362 271.4042 L90.0512 270.8672 M94.7185 246.128 L94.7817 245.9929 L98.9303 243.8072 L98.9966 243.7893 L99.0906 243.8065 L99.1119 243.9224 L98.9566 246.1245 L98.9298 246.56 L98.7375 246.7733 L98.5875 246.9029 L97.3213 247.2486 L96.3338 247.2589 L95.8529 246.9578 L95.2755 246.8117 L94.9429 246.5367 L94.7354 246.2569 L94.7185 246.128 M103.7863 220.0584 L104.1982 218.7998 L105.0419 216.9438 L105.9871 215.83 L106.8383 217.1921 L106.1968 217.7998 L107.1295 219.4137 L104.8629 221.365 L103.7863 220.0584 M105.0463 228.9554 L105.1812 228.0446 L105.7213 226.9307 L106.565 225.8505 L108.9612 223.2518 L110.9522 226.4246 L108.8263 228.0103 L105.6874 229.7654 L105.0463 228.9554 M134.7422 156.984 L139.2497 154.3346 L140.0733 154.3072 L138.2435 159.1161 L134.7422 156.984 M164.5161 100.9798 L166.2391 96.5544 L166.4528 96.2936 L168.9149 97.4258 L167.4768 101.8169 L164.5161 100.9798 M169.1909 164.0415 L176.7508 159.8706 L178.1176 156.9689 L178.83 157.0786 L179.4266 160.001 L182.138 158.2105 L179.057 162.7587 L175.9805 167.3067 L172.9887 166.3464 L169.1909 164.0415 M178.7632 152.894 L179.7649 149.4983 L185.0809 144.4423 L185.4638 144.36 L187.2402 145.0803 L186.5769 149.903 L178.7632 152.894 M183.6606 115.4565 L185.0408 112.4172 L186.7149 112.4172 L188.3845 112.4172 L189.6712 116.9247 L183.6606 115.4565 M190.152 136.5948 L190.205 136.3307 L190.4075 135.9307 L190.9792 135.0121 L191.9387 133.782 L192.5411 133.0054 L195.9332 131.7403 L196.3072 131.6354 L196.6509 131.9914 L197.6932 130.8917 L198.3045 129.8413 L198.2751 129.3172 L198.8134 129.0318 L199.0288 129.4496 L199.853 131.0502 L200.2056 131.6113 L200.5012 131.9688 L200.3195 132.3468 L199.9282 132.7426 L199.7817 133.179 L199.8721 133.9295 L200.129 134.4852 L200.2732 134.7768 L200.6446 134.5037 L203.0884 138.0005 L203.3293 138.1987 L203.5105 138.4183 L203.5977 138.7332 L203.5603 139.1942 L203.3021 139.9694 L203.4441 140.5896 L203.1957 142.1818 L202.7456 142.4158 L202.0359 142.791 L201.3391 143.0366 L200.7692 143.7014 L200.4411 144.3778 L200.0208 145.0618 L199.6838 145.6332 L198.9656 146.0627 L198.4861 146.4133 L198.0022 146.7858 L197.5369 145.8836 L196.8615 144.834 L196.2137 144.1439 L196.0788 143.0778 L196.0619 141.6371 L196.0512 140.6602 L195.1621 140.0407 L193.7164 138.9753 L192.915 138.4032 L191.1809 137.1861 L190.3635 136.8438 L190.152 136.5948 M212.0191 221.116 L212.4149 221.127 L212.6482 221.0337 L212.8076 221.9431 L213.475 222.1119 L213.6121 222.9733 L213.6366 223.5097 L214.1281 223.0988 L213.804 222.2154 L214.4393 221.675 L214.6829 220.2511 L214.3944 219.5755 L215.1268 218.4027 L216.9041 217.9493 L217.6169 218.1455 L218.2607 218.094 L218.6623 217.7148 L218.5536 217.439 L218.6485 217.0851 L219.1284 216.7614 L220.2971 216.7909 L221.538 216.6654 L222.1034 216.3917 L222.2485 215.5879 L221.9614 215.0851 L221.9271 213.8073 L221.7895 213.404 L221.6666 212.1022 L221.4966 210.9033 L221.3795 210.1392 L221.538 209.4211 L221.6364 208.801 L221.4658 208.2948 L221.3563 207.5424 L221.1778 207.161 L220.8657 206.8092 L220.5981 207.7831 L220.8581 209.408 L220.7085 210.4657 L220.5344 211.216 L220.3559 212.6043 L220.0509 212.5727 L218.847 211.9465 L216.4967 210.026 L216.3796 208.9526 L216.4874 208.5294 L217.0889 207.491 L217.547 206.2783 L217.7531 206.1569 L218.1334 206.4354 L218.5933 206.3242 L219.2308 205.9635 L219.7264 205.8366 L220.0158 206.1349 L220.1084 206.5979 L220.4806 206.5492 L220.7321 206.5286 L220.8866 206.2255 L220.7704 205.7543 L220.9035 204.8194 L220.8906 204.0471 L220.867 203.523 L221.1747 203.2823 L221.7223 203.1821 L221.5878 201.0064 L223.3607 200.9214 L225.1955 210.3326 L225.3366 211.2428 L225.0014 211.7586 L224.7031 211.6529 L224.2445 211.4732 L223.9088 210.6714 L223.7984 210.6804 L223.9796 211.7853 L223.9266 212.2785 L223.7961 212.8834 L223.4507 213.2696 L223.2681 213.9157 L222.5865 214.5707 L222.3456 214.9493 L222.558 215.3649 L223.6608 215.6537 L224.7805 216.1571 L225.281 216.0117 L225.8143 217.3547 L225.8451 217.1228 L225.4488 215.8745 L226.3361 215.4006 L227.0053 218.1242 L228.0716 218.651 L228.1985 219.3087 L228.8 220.2689 L228.9492 221.0549 L228.8806 222.4274 L229.3071 222.9006 L229.2724 223.5467 L229.4701 224.3169 L229.7853 225.1694 L229.7955 226.6845 L229.4465 227.4863 L229.2831 228.6008 L229.6455 229.3511 L230.0275 229.8024 L230.1846 230.1487 L229.8543 230.9546 L229.7759 231.5925 L228.4768 231.6926 L228.4808 231.1336 L228.2306 229.3161 L228.0169 228.548 L227.6371 227.9972 L226.8481 227.3923 L226.6269 226.8663 L226.4523 225.9952 L226.3228 225.3066 L225.9866 223.1125 L225.5387 221.3794 L225.5241 221.8883 L225.9261 224.3615 L226.0062 226.0501 L225.911 226.7071 L225.4087 226.6797 L224.9982 226.9417 L223.9555 226.939 L223.6305 226.9657 L223.3558 227.3093 L222.9048 227.5315 L222.2846 227.4143 L222.1359 226.9438 L222.3251 226.1489 L221.8096 225.9554 L221.554 225.6914 L221.6177 224.9438 L221.8937 224.5446 L222.1573 224.2881 L222.0736 223.8615 L221.7156 223.4761 L221.2526 223.5508 L221.0825 224.1208 L220.8875 224.8423 L220.7433 225.5035 L220.5282 225.8978 L219.7994 225.8148 L219.4517 225.5522 L219.4152 224.8684 L219.5011 224.3231 L219.0318 224.0885 L218.7442 224.3471 L218.5924 224.9157 L218.4441 225.5281 L218.0643 225.4843 L218.031 224.8375 L217.3823 224.1352 L216.8413 223.2381 L216.6352 223.1311 L216.8364 224.7915 L217.0532 226.3395 L216.8925 227.4904 L216.775 228.026 L216.3734 228.3985 L215.4188 228.4204 L215.3765 227.4335 L214.9794 227.0034 L214.5457 225.9232 L213.8695 224.6413 L213.3948 224.2648 L212.9901 224.0625 L213.097 223.5529 L213.1264 223.1482 L212.9746 222.7154 L212.5249 222.498 L212.2172 222.1208 L212.0583 221.6016 L212.0191 221.116 M221.7762 231.6871 L221.8563 230.456 L221.9992 229.9306 L222.8536 228.1234 L223.2129 227.9149 L223.7498 227.6859 L224.5383 227.4369 L224.7979 227.3662 L225.5784 227.4828 L227.1692 228.1365 L227.6794 228.6975 L227.8717 229.3628 L227.9145 231.5486 L226.9541 231.3311 L226.8517 228.9759 L226.6825 228.7914 L226.4679 228.8834 L226.4185 231.4176 L225.9906 231.5472 L224.9804 231.7934 L224.139 231.9169 L222.7085 231.9271 L222.1573 231.9038 L221.7762 231.6871 M274.8912 131.1537 L278.1859 129.3769 L279.7976 128.5399 L281.5919 131.1194 L283.5686 132.2514 L283.8536 129.912 L290.5675 125.9672 L295.189 121.4254 L295.3314 121.3568 L294.9472 125.6577 L294.6057 125.8299 L290.7545 129.7748 L293.8622 132.1485 L286.4359 142.741 L282.1662 143.0703 L277.0639 139.5441 L275.1628 136.9989 L274.8912 131.1537 M289.9051 103.9809 L290.6134 99.2536 L291.832 93.4325 L291.9967 93.2061 L295.3715 96.6161 L299.4453 98.9284 L298.5504 100.6711 L297.753 103.0039 L297.1925 109.6728 L295.8301 109.5424 L291.2042 108.4721 L289.9051 103.9809 M311.8581 272.1146 L312.3746 268.8092 L312.5883 268.8092 L312.2677 271.9843 L314.9034 269.5361 L317.2288 266.7869 L319.5511 259.9304 L320.4505 254.7554 L321.3039 248.972 L319.2083 238.3768 L318.7902 222.9548 L324.8279 223.723 L323.291 231.5719 L322.852 236.4023 L323.4009 240.0248 L324.4437 248.9714 L327.4627 249.795 L333.3356 275.9768 L333.4069 276.7298 L334.0097 279.2259 L334.3917 280.6886 L334.4754 281.1007 L334.6962 281.2735 L334.6548 281.9483 L335.0368 282.7246 L334.2127 282.6649 L333.8009 281.7988 L334.1829 281.4827 L334.0934 281.0644 L333.6335 280.7483 L333.556 279.4467 L333.4185 278.3838 L332.7248 276.6557 L331.2872 276.9026 L331.3228 275.1354 L330.9208 274.5497 L329.9328 274.3845 L329.5553 275.3562 L329.6332 276.2936 L329.854 277.1659 L329.1368 277.4745 L329.0597 277.8818 L329.6928 279.0586 L330.1884 280.0015 L330.2182 280.5871 L329.5855 280.6289 L329.2988 279.8527 L328.6599 279.1299 L327.7762 277.8763 L327.5175 276.9643 L327.4627 275.1532 L328.6154 273.8907 L328.6154 269.3901 L325.3221 252.2097 L324.2242 250.1242 L322.962 243.6474 L321.974 243.4279 L322.6873 250.2888 L322.1383 258.5767 L322.3582 261.2663 L320.3271 266.3713 L319.9429 270.3227 L323.1815 277.349 L322.1383 277.6233 L319.6228 272.1695 L317.9657 275.8602 L317.9065 277.5479 L319.8886 278.0492 L319.8049 278.6046 L320.1931 278.9687 L319.8588 279.3329 L319.6798 279.267 L318.987 279.1121 L318.2466 279.0942 L317.345 279.3747 L316.3241 280.0913 L315.8166 279.9836 L312.8064 276.0097 L311.8581 272.1146 M316.4483 280.1379 L316.8891 280.1379 L322.0359 282.0992 L323.0198 280.3985 L326.4026 280.3121 L330.4631 280.7421 L330.5842 283.8547 L327.6769 284.6638 L316.4483 280.1379 M343.7525 367.0595 L343.9475 366.5734 L344.1025 366.1827 L344.3482 365.8125 L344.8478 365.3442 L345.4016 365.2414 L345.984 365.1954 L346.5009 365.2565 L346.9746 365.3751 L347.1696 365.434 L347.5445 368.6487 L345.5116 368.1646 L343.7525 367.0595 M352.8239 265.6238 L352.8778 264.6507 L354.1792 264.4415 L355.0661 265.5401 L355.6783 265.5401 L355.855 265.2692 L356.6333 265.654 L356.9142 265.7136 L357.542 266.3425 L358.4965 265.4448 L358.8723 265.8686 L359.2187 265.9763 L359.5232 265.8748 L359.6786 265.6835 L359.5771 265.3851 L360.6625 264.353 L360.013 263.9039 L359.4569 263.2201 L359.9689 263.0213 L361.3246 264.0993 L361.8744 264.9977 L360.6265 265.9393 L360.395 266.7018 L360.6759 268.1584 L360.1203 268.7557 L360.1861 270.4393 L360.8161 271.5015 L361.0401 272.9917 L360.634 274.1266 L359.822 274.2336 L358.5624 272.5583 L355.3657 269.9976 L354.5073 267.3341 L354.2629 266.5078 L353.1645 266.2033 L352.8239 265.6238 M379.6606 153.4291 L379.7385 152.9345 L380.0475 152.7054 L380.3374 152.3171 L381.0462 151.5364 L381.1797 151.1975 L381.2349 150.3455 L382.1623 148.5015 L384.2959 147.4265 L387.5068 147.3442 L389.0161 147.8656 L388.338 149.6121 L389.2868 151.0363 L389.6817 151.2894 L390.0535 150.9746 L390.4996 150.8312 L393.9665 151.9096 L395.434 151.7498 L397.332 151.5666 L397.9152 151.7614 L398.7131 152.064 L398.8529 152.3727 L398.6814 153.8874 L397.7986 155.3149 L397.8475 155.9433 L398.055 156.5333 L397.9134 157.3119 L397.385 157.7996 L397.0782 158.5172 L396.9442 158.8499 L397.5617 160.0195 L397.4642 160.2685 L397.2812 160.5244 L396.1593 160.6945 L394.9946 160.7878 L394.5805 161.6316 L394.6321 162.2778 L394.2248 163.2814 L390.9773 164.1114 L390.5218 164.4325 L388.6568 165.2213 L387.8937 164.4393 L387.8728 163.7108 L388.7125 163.5626 L388.9961 163.0948 L388.602 160.1684 L388.5188 159.1229 L388.9418 158.3155 L388.757 158.0089 L388.2521 158.334 L387.8247 158.0034 L387.8434 157.2282 L387.5883 157.0505 L387.1662 157.3256 L386.6293 157.2453 L386.0963 156.6012 L385.9356 157.1397 L385.2379 157.5177 L384.8457 157.6295 L384.8083 158.1646 L385.1404 159.3136 L385.0314 160.3721 L382.7794 159.8027 L380.7572 159.894 L380.06 159.4364 L379.7644 159.0454 L379.6865 153.7488 L379.6606 153.4291 M403.2321 137.2349 L403.3095 136.5749 L405.3166 132.851 L406.8882 131.0076 L409.1749 129.9861 L409.8926 128.4624 L411.1334 128.0782 L413.3894 127.7845 L413.5808 129.2122 L413.2095 130.1274 L412.6583 130.4869 L412.8164 131.5448 L413.0243 131.8316 L412.7897 133.8142 L412.3636 135.0903 L412.4954 135.3647 L412.7407 135.8744 L412.8854 137.9072 L413.9615 140.8304 L415.2789 142.8507 L415.3261 143.7865 L415.3764 144.2358 L415.7931 145.0501 L416.5162 145.92 L416.5941 147.362 L416.9316 147.314 L416.4975 149.2835 L416.4561 150.1205 L413.608 151.9329 L412.5319 152.4461 L410.414 149.1779 L409.9149 149.1347 L408.3379 146.9696 L407.2248 147.1692 L407.1701 147.1734 L406.6122 144.3188 L406.5058 143.3886 L406.4711 143.1361 L406.2516 141.172 L406.0601 139.116 L404.2022 139.1757 L403.2321 137.2349 M409.56 267.6873 L410.1513 267.2751 L413.5376 266.612 L416.8341 264.6774 L417.4253 265.2151 L417.5865 265.4475 L417.3897 268.0638 L416.1894 267.8306 L415.9383 267.0962 L413.86 269.1027 L413.197 271.1628 L412.9108 271.6106 L410.5097 270.4818 L409.865 268.2784 L409.56 267.6873 M420.0339 261.7169 L420.175 261.5509 L420.6559 261.2403 L421.2627 260.8014 L421.5855 260.442 L421.5258 260.2363 L421.2685 260.1766 L420.9902 258.6213 L421.0686 258.1323 L420.8006 257.6742 L423.5244 254.4146 L423.9697 254.6203 L425.2817 255.4261 L426.3934 256.5248 L428.1294 257.812 L429.9071 258.5877 L430.4432 258.8167 L432.6738 259.8694 L433.5264 259.8392 L435.4773 259.9654 L436.6932 260.7767 L439.7087 262.3218 L441.4064 263.716 L443.0532 264.628 L441.913 269.4675 L437.8334 268.3017 L435.5027 267.6681 L433.273 266.7306 L431.2713 268.2256 L429.4325 266.8033 L427.6156 265.5196 L427.6094 265.4722 L425.2247 264.7775 L424.719 264.3908 L424.0747 264.0465 L423.6242 264.1199 L423.418 263.7777 L423.0445 263.4238 L421.7155 263.0789 L421.3277 263.0912 L420.6768 263.2057 L420.5049 262.9842 L420.0339 261.7169 M423.1638 277.7995 L425.657 273.1775 L427.4023 270.1807 L428.9784 271.3397 L426.2759 276.2909 L428.6178 278.6704 L425.5368 280.8168 L423.1638 277.7995 M427.3017 215.4123 L427.5822 214.4431 L427.8965 214.1557 L428.4539 213.6125 L428.9326 213.3594 L429.9779 213.8491 L430.5923 214.2936 L430.9677 213.8279 L431.2499 213.784 L431.92 214.0563 L432.6306 214.522 L434.2138 214.5042 L434.7547 214.0069 L436.2574 212.0926 L438.2422 211.8964 L440.0133 210.4252 L441.4527 209.6783 L442.9811 209.4917 L443.6708 209.1741 L444.681 208.6014 L445.705 208.6803 L446.0238 209.1186 L446.1921 209.526 L446.1716 210.0411 L445.9975 210.5775 L445.1013 211.6358 L444.7869 212.7257 L444.8404 213.6242 L445.1044 214.0899 L445.1369 214.5007 L443.1325 214.9664 L442.3271 215.4884 L442.2153 215.7586 L442.6036 215.987 L444.1667 215.4061 L444.7375 215.5131 L444.6899 216.544 L444.5639 217.9438 L445.4797 218.8691 L446.245 220.1935 L446.0015 220.4665 L445.6551 220.9953 L444.0884 222.3149 L443.7932 222.4486 L443.2238 222.3848 L441.2657 222.5837 L441.0404 222.7751 L440.7448 222.8883 L439.9514 223.0172 L438.252 222.6743 L437.7796 222.7333 L437.2302 222.9301 L435.5793 223.4534 L435.2062 223.4191 L434.3002 223.7744 L434.0442 223.5556 L433.4965 222.4013 L430.9022 220.4034 L429.8119 219.0707 L428.3578 218.1263 L428.9285 217.127 L428.0697 216.9781 L427.5858 216.7319 L427.3939 216.1036 L427.3017 215.4123 M429.8506 191.0976 L438.6055 189.6003 L438.5654 191.4584 L439.7528 191.7541 L440.3757 194.5945 L438.8819 195.0273 L437.7898 197.8368 L435.4493 198.854 L434.7013 198.7971 L434.3589 198.0776 L435.935 193.1088 L435.3184 192.6972 L434.6327 194.5081 L433.9475 196.3642 L432.4053 196.5014 L430.258 197.0371 L429.9721 194.9779 L429.8506 191.0976 M469.4839 238.8281 L470.7937 237.9619 L471.0787 237.2623 L472.1681 237.0236 L472.9117 237.7602 L472.3004 238.2142 L473.2296 239.4405 L473.4784 239.937 L474.5354 241.9582 L475.0567 244.0547 L474.3715 244.3291 L472.7563 244.0486 L471.0008 244.4902 L469.9389 244.1631 L469.8521 241.2038 L469.6344 239.7772 L469.4839 238.8281 M66.925 217.3615 L67.327 217.83 L67.8244 218.26 L68.5149 218.6373 L70.3706 219.6928 L71.188 220.1091 L71.5344 220.199 L71.7948 219.5275 L71.3385 219.1441 L70.6524 218.9774 L69.8212 219.0015 L69.2344 218.6839 L68.8537 217.9404 L68.2642 217.1743 L67.6102 216.5261 L67.1645 216.8903 L66.925 217.3615 M77.8094 212.7078 L77.9585 213.0206 L78.3147 213.1166 L78.6072 213.0425 L78.6865 212.7867 L78.5734 212.6214 L78.463 212.4808 L78.3841 212.4369 L77.9086 212.4006 L77.8094 212.7078 M79.8788 211.8416 L79.9175 212.013 L80.2692 212.3594 L80.8756 212.4842 L80.9678 212.0782 L81.287 211.4033 L81.3329 211.05 L81.1766 210.6639 L80.905 210.6858 L80.482 210.9945 L80.3209 211.157 L80.2056 211.2661 L80.0279 211.5302 L79.8788 211.8416" stroke-dasharray="" fill="none" fill-opacity="1.0" stroke="#ff0000" stroke-opacity="1.0" stroke-width="1.0px" stroke-linecap="butt" stroke-linejoin="miter" stroke-dashoffset="0.0px"/>
</g>
</svg>