<?xml version="1.0" standalone="no"?>
<!DOCTYPE svg PUBLIC "-//W3C//DTD SVG 1.1//EN" "http://www.w3.org/Graphics/SVG/1.1/DTD/svg11.dtd">
<svg width="512px" height="512px" version="1.1" xmlns="http://www.w3.org/2000/svg" xmlns:inkscape="http://www.inkscape.org/namespaces/inkscape">
<g id="layer" inkscape:groupmode="layer" inkscape:label="layer">
<path d="M0.0 294.4083 L6.769 294.592 L6.7367 295.4938 L7.6421 295.5105 L7.6637 294.6087 L21.7083 294.9761 L21.676 295.8779 L22.5922 295.9113 L22.6245 295.0095 L36.6584 295.3769 L36.6261 296.2787 L37.5962 296.2954 L37.6177 295.4103 L51.6301 295.7777 L51.5977 296.6794 L52.5355 296.6961 L52.5463 295.7944 L66.5694 296.1785 L66.537 297.0635 L67.4317 297.0969 L67.4532 296.1952 L81.541 296.5625 L81.5087 297.481 L82.4249 297.481 L82.4464 296.5959 L111.5705 297.3641 L111.5382 298.2659 L112.4544 298.2826 L112.4759 297.3975 L126.4883 297.7649 L126.4667 298.6666 L127.3721 298.6833 L127.3937 297.7983 L141.503 298.1657 L141.4815 299.0507 L142.3977 299.0841 L142.4085 298.1991 L156.5178 298.5664 L156.4962 299.4515 L157.3801 299.4849 L157.4124 298.5831 L171.4894 298.9505 L171.4679 299.869 L172.3733 299.8857 L172.3841 298.9839 L186.4287 299.368 L186.418 300.2531 L187.3018 300.2865 L187.3342 299.3847 L201.3896 299.7521 L201.3573 300.6705 L202.2627 300.6705 L202.2735 299.7855 L216.2211 300.1529 L216.2104 301.0546 L217.1373 301.0713 L217.1697 300.1863 L231.2682 300.5536 L231.2359 301.4554 L232.1736 301.4721 L232.1844 300.5703 L246.2938 300.9544 L246.283 301.8395 L247.1561 301.8729 L247.1884 300.9711 L261.1792 301.3385 L261.1468 302.2403 L262.063 302.2737 L262.0738 301.3719 L276.2047 301.7393 L276.1939 302.641 L277.1101 302.6744 L277.1425 301.7727 L291.1332 302.1401 L291.1332 303.0585 L292.0387 303.0585 L292.0494 302.1568 L306.0941 302.5408 L306.0833 303.4426 L306.9456 303.476 L307.0211 302.5575 L321.0873 302.9416 L321.055 303.8267 L321.9927 303.8601 L322.0035 302.975 L336.0589 303.3257 L336.0374 304.2442 L336.932 304.2609 L336.9536 303.3591 L351.0845 303.7265 L351.0521 304.6449 L351.9576 304.6616 L351.9683 303.7599 L365.9591 304.1273 L365.9483 305.029 L366.8214 305.0457 L366.8538 304.1607 L380.9523 304.528 L380.92 305.4298 L381.8038 305.4632 L381.8362 304.5447 L395.9132 304.9288 L395.9024 305.8306 L396.797 305.864 L396.8186 304.9455 L410.9064 305.3296 L410.874 306.2314 L411.7795 306.2481 L411.8118 305.363 L425.8134 305.7304 L425.8026 306.6321 L426.6864 306.6488 L426.7188 305.7471 L440.882 306.1145 L440.8712 306.9661 L441.7659 307.0496 L441.7874 306.1479 L455.8105 306.5319 L455.8429 307.3001 L456.6082 307.4337 L456.6405 306.5486 L485.7862 307.3168 L485.743 308.1184 L486.6377 308.2519 L486.67 307.3335 L500.7794 307.7343 L500.7578 308.6193 L501.6524 308.6527 L501.6848 307.7343 L509.4131 307.918 L512.0 217.525 L504.1208 217.2578 L504.1854 216.4396 L503.28 216.3728 L503.2369 217.2411 L488.8473 216.857 L489.009 216.0054 L488.0605 215.9887 L487.9958 216.8236 L459.2274 216.0722 L459.2597 215.1704 L458.3543 215.137 L458.3435 216.0388 L444.1372 215.6547 L444.1695 214.7529 L443.2749 214.7362 L443.2425 215.638 L429.2194 215.2873 L429.0901 214.3855 L428.1631 214.3688 L428.1523 215.2372 L414.2586 214.8531 L414.1723 213.9848 L413.2777 213.9848 L413.3424 214.8364 L399.2222 214.4523 L399.2546 213.5506 L398.3923 213.5339 L398.3707 214.4356 L384.3368 214.0683 L384.3476 213.1498 L383.4099 213.1331 L383.3775 214.0349 L369.3329 213.6508 L369.3436 212.7657 L368.4598 212.7323 L368.4274 213.6341 L354.372 213.2667 L354.3935 212.3649 L353.5205 212.3315 L353.4881 213.2333 L339.3357 212.8492 L339.3465 211.9641 L338.4518 211.9307 L338.4303 212.8325 L324.5257 212.4651 L324.5581 211.5801 L323.6419 211.5467 L323.6203 212.4317 L309.511 212.0643 L309.5433 211.1626 L308.6271 211.1459 L308.6055 212.0309 L294.5393 211.6802 L294.5717 210.7618 L293.6662 210.7451 L293.6555 211.6468 L279.5569 211.2628 L279.5892 210.361 L278.6838 210.3276 L278.6515 211.2461 L264.6176 210.862 L264.6499 209.9769 L263.7445 209.9435 L263.7122 210.8453 L249.6783 210.4612 L249.6998 209.5594 L248.8052 209.5427 L248.7729 210.4445 L234.6743 210.0604 L234.7066 209.1586 L233.7689 209.1419 L233.7473 210.0437 L219.735 209.6763 L219.7458 208.7746 L218.8511 208.7412 L218.8188 209.6429 L204.7202 209.2755 L204.9143 208.5241 L203.9011 208.4239 L203.8364 209.2421 L189.8133 208.8748 L189.824 207.973 L188.9402 207.9396 L188.9079 208.8414 L174.8524 208.474 L174.8847 207.5555 L174.0009 207.5555 L173.9685 208.4406 L159.8161 208.0732 L159.9239 207.3217 L159.0292 207.2883 L158.9322 208.0398 L129.8081 207.2549 L129.9051 206.5535 L129.0321 206.5368 L128.9674 207.2382 L114.8149 206.8708 L114.858 206.1862 L113.9742 206.1862 L113.9203 206.8374 L99.8541 206.4868 L99.8972 205.752 L99.0133 205.752 L98.9702 206.4534 L84.9363 206.1027 L84.9579 205.2009 L84.0632 205.1675 L84.0309 206.086 L69.9323 205.7186 L69.9216 205.0506 L69.0269 205.0673 L69.0269 205.7019 L55.0254 205.3345 L55.0254 204.6164 L54.12 204.583 L54.1092 205.3178 L39.9352 204.9504 L39.9352 204.2156 L39.0729 204.1321 L39.0836 204.9337 L25.0282 204.5663 L25.1144 203.7982 L24.2198 203.7481 L24.1443 204.5329 L10.0458 204.1822 L10.1212 203.3473 L9.2805 203.3473 L9.2158 204.1655 L1.9509 204.0152 L0.0 294.4083" stroke-dasharray="" fill="none" fill-opacity="1.0" stroke="#ff0000" stroke-opacity="1.0" stroke-width="1.0px" stroke-linecap="butt" stroke-linejoin="miter" stroke-dashoffset="0.0px"/>
</g>
</svg>