<?xml version="1.0" standalone="no"?>
<!DOCTYPE svg PUBLIC "-//W3C//DTD SVG 1.1//EN" "http://www.w3.org/Graphics/SVG/1.1/DTD/svg11.dtd">
<svg width="512px" height="512px" version="1.1" xmlns="http://www.w3.org/2000/svg" xmlns:inkscape="http://www.inkscape.org/namespaces/inkscape">
<g id="layer" inkscape:groupmode="layer" inkscape:label="layer">
<path d="M0.0 307.6629 L21.452 370.9191 L101.6982 386.2754 L510.3448 248.0677 L512.0 210.3376 L491.0777 125.7246 L365.0806 169.0481 L153.0769 235.9656 L152.2162 233.3215 L12.1826 280.5094 L0.0 307.6629 M67.5339 349.2574 L68.0636 344.8844 L69.2554 340.613 L71.1755 336.6468 L73.6915 332.9857 L76.7371 329.833 L80.2462 327.1889 L84.1526 325.0532 L88.3238 323.7312 L92.6274 323.0193 L97.0635 323.0193 L101.3671 323.7312 L105.6046 325.0532 L109.4447 327.0872 L113.02 329.833 L116.0657 332.9857 L118.5155 336.6468 L120.4355 340.613 L121.6935 344.7827 L122.2232 349.2574 L122.0246 353.6304 L121.1638 357.9017 L119.5748 362.0713 L117.3899 365.9358 L114.6091 369.2919 L111.2986 372.2411 L107.5908 374.5802 L103.552 376.309 L99.2484 377.4277 L94.8786 377.7328 L90.4425 377.4277 L86.2051 376.309 L82.1663 374.5802 L78.4586 372.2411 L75.1481 369.2919 L72.3673 365.9358 L70.1161 362.0713 L68.5933 358.0034 L67.7326 353.6304 L67.5339 349.2574 M136.988 326.8838 L137.5177 322.5108 L138.7756 318.2395 L140.6295 314.2732 L143.1455 310.6121 L146.1911 307.4595 L149.7002 304.8153 L153.5404 302.7813 L157.7116 301.3576 L162.0815 300.6457 L166.4513 300.6457 L170.7549 301.3576 L174.9262 302.7813 L178.8325 304.8153 L182.3417 307.4595 L185.3873 310.6121 L187.8371 314.2732 L189.7571 318.2395 L190.9489 322.5108 L191.4786 326.8838 L191.3462 331.2568 L190.4192 335.5281 L188.8964 339.6978 L186.7115 343.4606 L183.9307 346.9183 L180.6202 349.7659 L176.9125 352.2066 L172.8737 353.9355 L168.6362 354.9525 L164.2664 355.2576 L159.8965 354.9525 L155.5929 353.9355 L151.6203 352.2066 L147.9126 349.7659 L144.6021 346.9183 L141.8213 343.4606 L139.6364 339.6978 L138.0473 335.5281 L137.1866 331.2568 L136.988 326.8838 M223.7227 298.9168 L224.2524 294.5438 L225.5104 290.2725 L227.3643 286.3062 L229.8803 282.7468 L232.9259 279.4925 L236.435 276.8483 L240.3414 274.8143 L244.5126 273.3906 L248.8825 272.6787 L253.2523 272.6787 L257.6221 273.3906 L261.7934 274.8143 L265.6997 276.8483 L269.2088 279.4925 L272.2545 282.6451 L274.7705 286.3062 L276.6243 290.2725 L277.8823 294.5438 L278.412 298.9168 L278.2134 303.3915 L277.3526 307.6629 L275.7636 311.8325 L273.5787 315.5953 L270.7979 319.053 L267.4874 322.0023 L263.7796 324.3413 L259.7409 326.0702 L255.5034 327.0872 L251.0674 327.494 L246.6975 327.0872 L242.3939 326.0702 L238.3551 324.3413 L234.6474 322.0023 L231.3369 319.053 L228.5561 315.5953 L226.3711 311.8325 L224.7821 307.6629 L223.9214 303.3915 L223.7227 298.9168 M293.243 276.5432 L293.7727 272.1702 L294.9644 267.8989 L296.8845 263.9326 L299.4005 260.2715 L302.4461 257.1189 L305.9553 254.4747 L309.8616 252.4407 L314.0328 251.017 L318.3365 250.3051 L322.7725 250.3051 L327.1424 251.017 L331.3136 252.4407 L335.1538 254.4747 L338.7291 257.1189 L341.7747 260.2715 L344.2245 263.9326 L346.1446 267.8989 L347.4026 272.1702 L347.9322 276.5432 L347.7336 280.9162 L346.8729 285.2893 L345.2838 289.4589 L343.0989 293.2217 L340.3181 296.6795 L337.0076 299.6287 L333.2999 301.9678 L329.2611 303.6966 L324.9575 304.7136 L320.5876 305.1204 L316.1516 304.7136 L311.9141 303.6966 L307.8753 301.9678 L304.1676 299.6287 L300.8571 296.6795 L298.0763 293.2217 L295.8252 289.4589 L294.3023 285.2893 L293.4416 281.0179 L293.243 276.5432 M380.044 248.5762 L380.5736 244.2032 L381.8316 239.9318 L383.6855 235.9656 L386.2015 232.3045 L389.2471 229.1518 L392.7562 226.5077 L396.6626 224.4737 L400.8338 223.0499 L405.2037 222.338 L409.5735 222.338 L413.9434 223.0499 L418.1146 224.372 L422.0209 226.5077 L425.5301 229.1518 L428.5757 232.3045 L431.0917 235.9656 L432.9456 239.9318 L434.2035 244.2032 L434.7332 248.5762 L434.5346 252.9492 L433.6739 257.3222 L432.0848 261.3902 L429.8999 265.2547 L427.1191 268.7124 L423.8086 271.56 L420.1009 274.0008 L416.0621 275.7296 L411.7584 276.7466 L407.3886 277.0517 L403.0188 276.7466 L398.7151 275.7296 L394.6763 274.0008 L390.9686 271.56 L387.6581 268.7124 L384.8773 265.2547 L382.6924 261.3902 L381.1033 257.3222 L380.2426 252.9492 L380.044 248.5762 M450.6898 225.8975 L451.2194 221.5245 L452.4774 217.2531 L454.3313 213.2869 L456.8473 209.6257 L459.8929 206.4731 L463.4683 203.7272 L467.3746 201.6933 L471.5458 200.2695 L475.9157 199.5576 L480.3517 199.5576 L484.7216 200.2695 L488.8928 201.6933 L492.7992 203.7272 L496.3083 206.4731 L499.3539 209.6257 L501.8699 213.2869 L503.79 217.2531 L505.048 221.5245 L505.5777 225.8975 L505.379 230.3722 L504.5183 234.6435 L502.9293 238.8132 L500.7443 242.6777 L497.8973 246.1354 L494.5868 249.0847 L490.8791 251.4237 L486.8403 253.1526 L482.5367 254.1696 L478.1006 254.5764 L473.7308 254.1696 L469.4271 253.1526 L465.3883 251.4237 L461.6144 249.0847 L458.3039 246.1354 L455.5231 242.6777 L453.3382 238.8132 L451.7491 234.7452 L450.8884 230.3722 L450.6898 225.8975" stroke-dasharray="" fill="none" fill-opacity="1.0" stroke="#ff0000" stroke-opacity="1.0" stroke-width="1.0px" stroke-linecap="butt" stroke-linejoin="miter" stroke-dashoffset="0.0px"/>
</g>
</svg>