<?xml version="1.0" standalone="no"?>
<!DOCTYPE svg PUBLIC "-//W3C//DTD SVG 1.1//EN" "http://www.w3.org/Graphics/SVG/1.1/DTD/svg11.dtd">
<svg width="512px" height="512px" version="1.1" xmlns="http://www.w3.org/2000/svg" xmlns:inkscape="http://www.inkscape.org/namespaces/inkscape">
<g id="layer" inkscape:groupmode="layer" inkscape:label="layer">
<path d="M55.9143 137.5974 L60.2808 144.9767 L64.6474 142.3679 L66.1514 144.9767 L67.8981 143.9332 L78.1838 160.4806 L76.4857 161.5241 L78.0382 164.0584 L73.7687 166.6673 L78.0867 173.972 L82.4533 171.3631 L84.0058 173.972 L85.6554 172.9284 L95.3589 189.0286 L93.6123 190.0722 L95.1648 192.6065 L90.8953 195.2898 L95.3589 202.7436 L99.677 200.2093 L101.2295 202.7436 L102.9761 201.7746 L112.5826 217.8003 L110.836 218.8438 L112.3885 221.4526 L108.119 223.9869 L112.5826 231.4407 L116.8521 228.9064 L118.4047 231.4407 L120.1028 230.3972 L129.8063 246.6464 L128.1082 247.6154 L129.6607 250.2242 L125.3427 252.833 L129.6607 259.9887 L133.9788 257.4544 L135.5313 259.9887 L137.2779 259.0197 L146.9814 275.2689 L145.2348 276.2379 L146.7874 278.8467 L142.5178 281.4555 L146.9329 288.8348 L151.2024 286.226 L152.755 288.8348 L154.5016 287.7912 L164.2051 303.9659 L162.4585 304.9349 L164.011 307.5437 L159.6445 310.1526 L164.1081 317.6063 L168.4261 314.923 L169.9787 317.5318 L171.7253 316.4883 L181.3317 332.6629 L179.6821 333.7064 L181.2347 336.2407 L176.9167 338.8495 L181.3317 346.1542 L185.6013 343.5454 L187.1538 346.1542 L188.8519 345.1107 L198.5069 361.2854 L196.8573 362.3289 L198.3613 364.8632 L194.0433 367.472 L198.4584 374.8512 L202.7279 372.2424 L204.2805 374.8512 L206.0271 373.8077 L215.7306 389.9078 L213.9839 391.0258 L215.5365 393.5601 L211.267 396.1689 L215.6335 403.4736 L219.9031 400.8648 L221.4556 403.4736 L223.1537 402.4301 L232.8572 418.6047 L231.2076 419.6482 L232.7602 422.257 L228.4421 424.8658 L232.8572 432.245 L237.2238 429.7108 L238.7278 432.245 L240.4259 431.2015 L250.0324 447.2271 L248.2857 448.2706 L249.8868 450.8794 L245.5688 453.4882 L249.9838 460.7183 L254.2534 458.1841 L255.903 460.9419 L257.6496 459.8984 L267.4986 476.4457 L265.8005 477.4892 L267.4016 480.098 L263.1321 482.7814 L267.159 489.4897 L271.4285 487.3282 L272.4959 489.1916 L279.5795 484.8684 L278.5606 483.2286 L284.1401 479.7999 L283.1212 478.0855 L299.326 468.1721 L300.4419 470.11 L306.167 466.5322 L307.1858 468.3211 L309.7573 466.6813 L311.8435 470.1846 L312.7168 469.6628 L317.7626 477.9365 L318.636 477.4147 L329.9405 495.9745 L329.1157 496.4962 L334.113 504.6208 L333.2397 505.2171 L337.5577 512.0 L344.7383 507.6023 L344.3017 506.7824 L347.989 504.4717 L347.4553 503.6518 L365.3582 492.7694 L365.8919 493.5893 L369.3851 491.4277 L369.9188 492.3222 L402.9107 471.079 L403.4444 471.8989 L410.819 467.4267 L410.2853 466.6068 L431.2933 452.6683 L431.7785 453.5627 L435.2232 451.4757 L435.7569 452.2211 L443.0345 447.8234 L438.5224 440.3696 L437.6976 440.8914 L420.3769 413.8343 L421.2502 413.3871 L416.1559 404.8153 L417.0292 404.2935 L414.943 400.7902 L417.2233 399.5231 L416.2044 397.7342 L421.978 394.4546 L421.0076 392.6657 L437.6491 383.0503 L438.5709 384.7647 L444.3445 381.485 L445.3634 383.1994 L452.738 378.9508 L451.7677 377.3109 L456.0857 374.7767 L451.2825 366.7266 L446.9645 369.2609 L445.4119 366.7266 L443.6653 367.7701 L434.0588 351.67 L435.7569 350.701 L434.2044 348.0922 L438.5224 345.4834 L434.1073 338.1787 L429.8378 340.713 L428.2853 338.1042 L426.5386 339.2222 L416.8837 323.1966 L418.6303 322.1531 L417.0777 319.5443 L421.3473 316.9355 L416.7866 309.4817 L412.5171 312.016 L411.0131 309.4817 L409.2664 310.4507 L399.563 294.3506 L401.3096 293.307 L399.66 290.6982 L404.0266 288.1639 L399.5144 280.6356 L395.2449 283.1699 L393.5953 280.6356 L391.9457 281.6792 L382.2908 265.6535 L383.9889 264.6845 L382.4363 262.0012 L386.7544 259.4669 L382.2908 251.9386 L377.9242 254.5474 L376.4202 252.0131 L374.6735 252.9821 L365.0671 236.9565 L366.7652 235.9875 L365.2612 233.3787 L369.5307 230.7698 L365.2126 223.6142 L360.8946 226.223 L359.342 223.5397 L357.5954 224.6577 L347.8434 208.334 L349.493 207.2904 L347.9405 204.6071 L352.21 202.0728 L347.9405 194.8426 L343.6224 197.4514 L342.0699 194.8426 L340.3232 195.9607 L330.6197 179.7114 L332.2693 178.6679 L330.7168 176.059 L335.0833 173.5248 L330.7168 166.2946 L326.3987 168.9034 L324.8462 166.2946 L323.0996 167.3381 L313.3961 151.0888 L315.0942 150.0453 L313.5416 147.4365 L317.8597 144.8276 L313.3476 137.3738 L308.981 139.9827 L307.4284 137.2993 L305.6818 138.2683 L295.7357 121.8699 L297.4824 120.7518 L295.9298 118.2176 L300.1993 115.6087 L296.0268 108.6021 L291.8058 111.3601 L290.2533 108.8258 L288.5552 109.7948 L278.9002 93.6945 L280.6468 92.7255 L278.9972 90.1167 L283.3638 87.5079 L278.8517 80.1286 L274.5822 82.6629 L273.0296 80.1286 L271.283 81.0976 L261.6765 65.0719 L263.3261 64.0283 L261.7736 61.4195 L266.0916 58.8852 L261.628 51.3569 L257.3585 53.9657 L255.8059 51.4314 L254.0593 52.4749 L244.4043 36.3747 L246.1025 35.3311 L244.5499 32.7223 L248.8679 30.188 L244.4043 22.6596 L240.8141 24.8958 L239.8922 23.405 L232.4205 27.9519 L233.4394 29.7408 L227.4718 33.2441 L228.5392 35.033 L211.5096 45.2447 L210.4422 43.5303 L204.523 47.2573 L203.5042 45.3938 L201.3694 46.7355 L181.2347 16.7711 L182.2536 16.1003 L177.3048 7.8265 L178.3237 7.1557 L174.1997 0.0 L166.9706 4.4723 L167.4558 5.2922 L164.0595 7.3793 L164.5932 8.2738 L146.5448 19.1563 L146.0596 18.3364 L142.4693 20.5726 L141.9356 19.6781 L134.658 24.1504 L135.2402 24.9703 L108.9438 40.9215 L108.3616 40.1016 L101.1325 44.4993 L101.6662 45.3938 L80.6096 59.3324 L80.173 58.5125 L76.6797 60.5996 L76.146 59.7797 L68.8684 64.1774 L72.9439 71.0349 L73.9142 70.3641 L78.9115 78.5633 L79.8334 78.0415 L91.2349 96.9742 L90.5072 97.4214 L95.553 105.8442 L94.8252 106.2915 L96.9115 109.7948 L94.6312 111.211 L95.6985 112.9999 L89.925 116.7268 L90.9924 118.5157 L73.6231 128.5783 L72.6043 126.864 L66.7822 130.4418 L65.8118 128.802 L58.4857 133.1997 L59.7472 135.2868 L55.9143 137.5974" stroke-dasharray="" fill="none" fill-opacity="1.0" stroke="#ff0000" stroke-opacity="1.0" stroke-width="1.0px" stroke-linecap="butt" stroke-linejoin="miter" stroke-dashoffset="0.0px"/>
</g>
</svg>