<?xml version="1.0" standalone="no"?>
<!DOCTYPE svg PUBLIC "-//W3C//DTD SVG 1.1//EN" "http://www.w3.org/Graphics/SVG/1.1/DTD/svg11.dtd">
<svg width="512px" height="512px" version="1.1" xmlns="http://www.w3.org/2000/svg" xmlns:inkscape="http://www.inkscape.org/namespaces/inkscape">
<g id="layer" inkscape:groupmode="layer" inkscape:label="layer">
<path d="M49.575 319.7742 L50.0386 322.1706 L50.3768 324.3722 L50.4802 325.2009 L50.8013 327.0511 L54.5533 325.8733 L58.3791 324.8208 L57.2207 323.3239 L56.8012 322.4152 L56.3109 321.926 L55.4032 321.0755 L57.0709 319.2114 L57.8388 320.0327 L58.8926 319.4718 L62.0016 319.5037 L63.3294 321.4256 L67.5685 320.423 L71.6787 321.4964 L72.6232 321.9375 L76.6528 324.3579 L79.7645 327.0326 L75.8476 330.5933 L73.9657 328.9267 L69.154 326.3034 L68.0603 328.1452 L67.4037 331.1024 L69.4825 332.0476 L70.7307 332.5192 L70.4516 333.3451 L70.3785 333.5009 L70.1617 333.9638 L69.6047 334.2098 L69.0556 337.2492 L67.7733 341.0395 L68.5074 345.295 L68.3059 347.3091 L70.5988 349.4758 L73.3265 351.4973 L75.8538 350.2401 L77.4302 349.7149 L79.1901 351.1196 L82.9137 354.0196 L84.275 354.5462 L86.0147 354.5888 L88.5438 354.193 L87.3758 355.4298 L88.0362 356.6925 L90.1334 355.4529 L90.1798 356.067 L88.7315 358.3552 L87.3969 359.9554 L86.1431 360.5532 L85.3808 360.1658 L84.4205 360.8122 L81.5897 366.334 L80.9307 368.7206 L78.6611 369.9426 L77.6528 372.2945 L77.5218 373.1026 L76.7624 373.5927 L76.2486 374.5677 L76.8476 376.2242 L80.4719 378.9801 L82.5885 383.0272 L88.3611 387.3914 L87.4769 390.5905 L88.8135 392.5136 L89.119 398.0148 L89.4087 399.5172 L88.6837 399.617 L87.4278 400.652 L88.1528 401.6926 L93.545 405.0778 L92.9413 405.8137 L92.6643 407.1196 L87.3975 406.71 L87.065 401.6741 L86.5773 401.559 L85.9119 401.6783 L85.4807 404.9044 L86.0573 409.8681 L90.1023 410.6202 L94.6002 411.223 L96.4498 411.8202 L103.9486 421.1366 L133.1186 460.3859 L134.9027 462.0242 L139.3272 464.5937 L144.91 467.5052 L152.732 471.6879 L160.9555 476.1232 L165.1547 478.3067 L180.5924 483.8575 L196.8479 489.318 L207.8691 496.695 L210.4883 498.1172 L217.9942 500.5435 L217.936 500.3592 L217.9466 500.093 L218.0618 499.8264 L218.5556 499.1282 L218.8714 498.7226 L219.2136 498.0198 L219.2703 497.6044 L219.2345 497.2504 L218.9866 496.5721 L218.7087 496.1548 L218.5174 495.8106 L218.392 495.2889 L218.5632 494.6171 L218.5594 494.112 L217.5747 493.4684 L216.3843 492.7217 L214.0685 490.9283 L212.2439 489.5153 L211.1608 488.4936 L209.6308 486.6235 L208.8517 485.6712 L208.659 485.167 L208.644 484.8658 L208.7328 484.3995 L209.5107 483.4785 L210.2912 482.4351 L210.5565 481.8825 L210.6446 481.4781 L210.58 481.211 L210.4049 480.9657 L209.9034 480.7499 L209.3423 480.6477 L209.0691 480.5276 L208.4575 479.8829 L207.2166 478.3663 L207.0997 477.5521 L207.414 477.0909 L207.5333 476.9158 L207.8503 476.7734 L208.8112 476.3423 L209.6631 476.023 L211.6361 474.1537 L212.9742 473.2678 L213.8558 472.9508 L214.6693 471.6698 L218.7098 468.9105 L217.6323 466.9797 L214.2392 469.1101 L213.6123 464.6778 L215.2316 464.8502 L217.1925 463.6801 L216.174 460.8527 L214.6696 460.7187 L214.3391 457.7364 L213.6476 456.2899 L213.1517 455.7876 L210.4631 456.1711 L209.095 456.6421 L208.3882 455.4109 L208.8062 453.9288 L208.4719 451.7437 L209.3338 451.581 L209.5738 449.608 L210.5588 449.3353 L210.7242 448.0348 L209.2093 448.0251 L208.2971 448.6051 L207.6258 448.6157 L205.4243 448.4771 L202.5471 446.7462 L202.4355 445.9499 L203.2407 445.991 L204.855 444.4257 L204.5098 444.0083 L204.2104 443.6469 L204.1543 443.5789 L202.4669 443.3964 L201.4672 444.1594 L200.4569 443.4823 L201.2093 440.3732 L200.1499 439.2201 L200.2736 437.6417 L200.9246 435.8414 L200.9231 434.3971 L202.9822 433.0132 L203.6235 432.0727 L203.3832 430.9574 L203.1203 429.0087 L203.9519 428.4688 L204.8867 428.7272 L206.0013 427.818 L206.8926 428.0108 L208.6605 428.7868 L209.2833 429.0156 L212.1476 429.1866 L214.2836 429.7778 L214.8823 431.133 L215.3506 430.8769 L216.0171 429.9826 L216.9628 429.7718 L218.9974 428.1785 L220.2971 427.0997 L221.8702 426.5571 L222.3814 427.7431 L223.619 426.9504 L224.5665 427.4446 L226.4895 426.6213 L228.765 424.8945 L229.0967 425.3609 L228.7339 426.4693 L229.2107 427.4644 L230.4645 425.2467 L231.0491 424.5936 L232.5814 422.7447 L233.4237 421.2915 L233.9425 419.5646 L234.0144 417.8409 L234.7345 416.2531 L234.7271 416.2254 L235.1963 415.012 L235.4892 413.8911 L235.5876 413.6526 L235.6613 413.3886 L235.8053 413.0794 L236.2304 411.897 L236.3808 411.6561 L236.6396 411.2174 L236.9848 411.3538 L237.4524 411.6016 L237.8843 411.7994 L238.5514 412.1433 L238.6607 412.1988 L238.6998 412.4909 L238.4339 413.1011 L238.0653 413.7875 L237.7445 414.3293 L237.3094 415.3351 L237.0917 415.6439 L237.0582 415.7082 L236.9798 415.9998 L236.6678 416.5402 L236.5544 416.7718 L236.1748 417.0246 L235.8329 417.6981 L236.0858 417.8423 L237.5932 416.8748 L240.3596 414.1236 L241.5227 412.4669 L242.2371 411.2207 L241.6061 411.357 L240.7397 412.8774 L240.2456 413.5083 L239.7212 413.7515 L239.2718 413.6202 L240.451 411.5396 L240.4204 409.7914 L239.4809 410.4876 L239.2286 408.9358 L238.2841 407.8208 L237.1452 407.5652 L236.6763 408.4814 L235.1575 407.9489 L231.8587 405.7781 L231.7806 405.8747 L230.3529 405.436 L228.9827 405.2262 L227.4895 404.867 L226.387 404.5517 L225.9081 403.9096 L225.3823 403.0863 L225.2286 402.8044 L224.7092 402.2076 L224.5776 400.8721 L225.6249 400.0317 L227.9813 400.5688 L228.2198 401.3732 L228.9912 401.3089 L230.0271 400.4902 L231.5885 398.7951 L234.2436 398.3587 L234.6073 395.0312 L235.8273 393.7091 L238.6836 393.7641 L238.49 395.3553 L239.2785 395.6206 L241.8625 395.144 L242.3899 392.938 L244.0356 393.2972 L246.1372 395.6345 L245.75 396.5609 L244.2016 397.2936 L242.7356 397.4873 L242.4389 398.2722 L247.0829 399.0595 L248.1463 402.1983 L248.0614 403.7742 L247.3264 405.43 L249.7524 409.1516 L251.322 409.5251 L251.2982 409.6916 L251.3907 409.7077 L251.443 409.8811 L251.3061 410.6119 L250.7894 410.7191 L250.0356 410.929 L249.0458 410.9198 L248.2092 410.8652 L247.785 410.6678 L247.6117 410.2763 L247.2627 409.9837 L247.0103 410.1108 L247.0291 410.2985 L246.8834 410.5301 L246.399 410.5255 L245.9251 410.1381 L245.78 410.2721 L245.3476 410.8934 L245.0529 411.26 L245.5532 411.6261 L249.9606 413.8194 L250.9421 414.8687 L252.5931 416.1431 L252.5673 417.4508 L252.2603 418.0277 L253.1654 418.7538 L254.636 418.3766 L255.3684 418.4871 L255.8158 418.5296 L257.5006 418.801 L257.7729 418.7561 L258.3123 418.6669 L258.8892 418.2366 L259.5761 417.724 L260.0232 417.3103 L260.5326 417.2391 L261.1519 417.3209 L261.6266 417.3172 L261.7888 417.3158 L262.6457 416.0701 L263.0276 415.0356 L265.6504 414.0584 L265.3126 413.3087 L266.2935 412.8372 L266.6718 412.1424 L266.5346 409.797 L266.1762 409.1558 L266.0802 408.5392 L267.1192 408.609 L267.8296 408.112 L270.1072 408.045 L271.7576 407.7714 L279.1598 408.6478 L288.3072 408.3926 L289.9197 408.8267 L288.8263 411.6358 L288.0716 411.6913 L287.3122 412.698 L286.4236 413.4057 L285.4805 413.9304 L284.8818 414.3626 L284.9779 414.5428 L287.1821 415.275 L287.8945 415.6661 L288.4406 415.8593 L290.2232 416.7265 L293.863 418.1552 L294.8069 417.6218 L295.6104 415.6716 L296.311 415.539 L297.7717 415.8154 L300.4253 415.3975 L302.3154 413.9322 L305.7966 412.4299 L305.9905 412.2746 L306.7035 410.7917 L307.2008 409.7558 L309.3001 408.327 L309.7149 407.5513 L309.5918 405.7462 L308.8189 402.9181 L307.0548 398.7484 L306.1074 396.9991 L305.0431 396.5618 L304.4599 392.9606 L304.1967 391.9302 L303.7334 390.8054 L303.182 388.7094 L302.4929 384.7942 L302.2114 383.1918 L301.9579 382.7619 L301.9303 382.4859 L302.0957 380.1091 L302.1013 377.2631 L302.3163 375.8183 L302.0625 374.5608 L302.5478 373.0827 L302.3604 372.399 L302.5149 371.1419 L302.7132 370.7447 L302.7132 370.0055 L302.5093 370.091 L302.4873 370.5931 L302.3936 370.6481 L302.3383 369.796 L302.4265 368.9911 L302.6362 368.6268 L302.7243 368.0863 L302.6635 367.6813 L302.9614 365.5577 L302.7849 364.9017 L303.0607 364.5595 L302.9835 364.0741 L303.1932 363.3685 L303.138 361.8021 L303.16 360.931 L303.4688 358.5374 L304.4285 351.4779 L304.6462 348.7194 L304.7041 347.0539 L305.1124 343.9323 L305.1565 341.8917 L305.2502 341.6407 L305.5369 341.9717 L305.6527 341.8395 L305.7687 341.514 L305.5977 341.1723 L305.8292 341.1612 L306.0222 339.3301 L305.9397 338.8394 L305.7079 338.7289 L305.5589 339.4623 L305.4376 339.4512 L305.4928 338.9111 L305.4267 337.892 L305.333 337.5211 L304.8477 337.3903 L301.1859 336.7836 L296.7355 335.9064 L281.7068 333.0002 L281.4753 333.6512 L281.2655 333.629 L281.0452 332.8046 L273.1698 331.4256 L258.2241 328.6668 L256.1507 328.3098 L255.6322 329.7216 L255.4116 329.6666 L255.5549 328.1221 L246.2236 326.2802 L235.1275 324.1683 L219.8843 321.1185 L205.2475 318.2671 L189.6511 315.03 L177.7499 312.7288 L170.6136 311.266 L158.6242 308.889 L141.7044 305.8117 L141.1527 305.5153 L135.8143 301.8492 L129.1633 297.2715 L116.7189 288.7278 L116.2418 288.3869 L116.3108 288.2602 L116.8208 288.5955 L116.9918 288.2643 L116.8043 286.2487 L111.6146 286.2598 L109.552 286.7394 L107.2688 287.1529 L106.0115 287.2662 L105.0741 287.3157 L100.8053 287.3268 L97.0553 287.448 L95.6766 287.5807 L94.7445 287.7875 L92.2627 281.2299 L91.6469 280.6411 L86.2715 283.8214 L75.3085 289.6139 L68.3564 294.6677 L67.5036 295.2879 L69.1238 297.0791 L70.149 297.7414 L69.5788 299.1451 L66.6778 299.8564 L65.7583 299.9179 L67.3127 301.7512 L68.4845 301.6869 L69.5559 301.9505 L66.6834 303.5835 L67.4399 305.4741 L63.9434 308.2767 L61.9669 308.421 L60.8785 307.5053 L56.8964 307.3272 L56.5392 307.866 L57.8291 312.9355 L57.9337 314.0338 L59.6737 312.7968 L61.6329 315.7218 L60.8565 317.8981 L58.7075 319.0445 L57.588 318.6745 L59.0327 317.2118 L59.3397 316.0381 L57.7595 314.6115 L57.3841 315.855 L54.8882 318.8211 L51.1614 319.2151 L50.1356 319.3261 L49.575 319.7742 M64.3876 314.5032 L68.3782 312.1738 L68.6696 313.3397 L69.1129 315.1123 L69.263 315.713 L66.1032 317.2479 L64.5683 316.0381 L64.3876 314.5032 M89.5133 390.1323 L89.5244 389.91 L89.7333 389.5221 L90.02 389.1074 L90.2304 388.9729 L90.6375 388.91 L91.3317 388.9613 L92.7013 389.4329 L93.2953 389.5808 L93.8711 389.5933 L94.28 389.5207 L94.4351 389.6076 L94.8637 390.0482 L95.0844 390.1101 L95.5188 390.0672 L95.9043 390.1675 L95.9942 390.3491 L95.978 390.6066 L95.8579 390.7241 L95.6581 390.8248 L95.4219 391.1004 L95.2653 391.35 L95.0115 391.5516 L94.4287 391.9043 L94.1687 391.9468 L93.7086 391.9098 L92.8114 391.6722 L91.6828 391.0588 L91.1046 390.7814 L90.8767 390.7587 L90.5456 390.5988 L90.2119 390.48 L89.8482 390.3815 L89.5133 390.1323 M175.0251 452.3468 L175.2772 452.063 L175.6397 451.7635 L176.207 451.5745 L176.6482 451.4012 L177.5466 450.9598 L178.7284 450.3137 L179.6899 450.2666 L180.2413 450.4242 L180.667 450.5975 L181.4235 451.0703 L181.6597 451.2122 L182.1955 451.6221 L180.9349 452.0787 L178.8862 452.8196 L176.2701 454.0018 L175.6241 454.0803 L175.4191 453.7966 L175.1039 452.93 L175.041 452.662 L175.0251 452.3468 M175.6897 454.8147 L175.7055 454.72 L175.7234 454.6109 L175.8122 454.4126 L175.959 454.189 L176.6412 454.0619 L178.1491 453.425 L179.0369 452.9157 L179.4464 452.8223 L180.3853 452.4776 L180.9969 452.1915 L181.1893 452.1411 L181.8909 451.9563 L182.3591 451.7515 L182.5827 451.7316 L183.1206 452.0219 L183.741 452.4267 L184.2422 452.6467 L184.8973 453.1431 L184.9314 453.169 L184.704 453.4772 L184.704 454.0041 L184.4825 455.4465 L184.194 455.6933 L182.6876 456.6051 L181.4023 457.4518 L181.1958 457.4629 L181.1829 457.4633 L180.8838 457.082 L180.5516 456.5644 L180.2211 455.9646 L180.1996 455.9387 L177.0845 457.0543 L176.6297 457.1865 L176.4764 457.0317 L176.0768 455.9438 L175.6897 454.8147 M177.5237 409.1678 L177.7223 408.0556 L178.5801 408.0399 L179.1271 408.4005 L179.2554 408.866 L179.1282 410.0891 L178.3498 409.8825 L177.5237 409.1678 M180.8318 439.4844 L181.2084 438.8831 L181.719 437.8497 L182.4667 436.6355 L182.803 436.2828 L183.1106 436.1548 L183.895 435.4208 L184.3339 435.7652 L185.7487 436.6563 L185.89 436.7007 L186.0698 436.7141 L186.5413 437.0824 L186.5627 437.6241 L186.915 437.6542 L187.1923 437.9657 L187.3168 438.3692 L187.4208 438.696 L187.8973 439.4789 L188.0806 439.7562 L187.6979 442.2012 L187.6077 442.6994 L187.2857 443.1071 L186.8859 443.2448 L185.6321 443.09 L184.9085 443.1491 L184.3709 442.9046 L184.0289 442.6805 L183.6138 442.4415 L183.3935 442.2465 L183.3248 442.0847 L183.3127 441.9502 L183.6984 441.5735 L183.8741 441.2204 L180.8318 439.4844 M182.7628 451.4169 L183.3774 450.1247 L183.7399 449.6995 L184.0551 448.9901 L184.5595 448.5016 L185.0007 448.2654 L185.5366 447.9345 L185.8045 447.5245 L186.1197 447.446 L186.4978 447.4298 L186.7816 447.4931 L187.333 447.9816 L187.7587 448.423 L188.1526 448.9744 L188.4361 449.3053 L188.7672 449.0372 L188.9719 448.4701 L189.0034 447.9345 L189.1453 447.2884 L189.6655 446.768 L190.9734 446.1061 L191.4461 445.539 L191.8086 445.1291 L192.5492 445.1924 L193.479 444.9401 L193.8888 444.6877 L194.1253 444.3411 L194.33 443.5531 L194.7398 443.0174 L195.1024 442.655 L195.1179 442.1665 L194.85 441.6466 L194.598 441.2052 L194.598 440.8114 L194.724 439.8815 L195.4017 439.1563 L195.7328 438.6363 L196.9775 437.0445 L197.4032 436.9188 L197.813 436.8869 L198.3171 436.9502 L198.6482 437.1393 L199.8142 437.565 L199.9246 437.8169 L199.9088 438.274 L199.8773 439.0934 L199.8773 439.5191 L200.1138 439.8343 L200.2081 440.181 L199.8459 440.559 L199.3256 441.0633 L198.9475 441.5047 L198.333 442.3555 L198.5063 442.986 L198.7898 443.1907 L199.0577 443.5216 L199.0736 443.963 L198.8844 444.5463 L198.6165 444.9086 L198.3644 445.35 L198.2542 445.7438 L197.813 446.2952 L197.4187 446.8941 L197.4187 447.1622 L197.5765 447.824 L197.3559 448.0288 L196.9146 448.423 L196.3001 448.8011 L195.8744 449.0372 L195.4331 449.3524 L194.5507 449.6048 L193.684 449.7152 L193.3374 449.9357 L193.0695 450.2352 L192.5651 450.4085 L191.6511 450.9127 L190.9734 450.9127 L190.6268 450.8022 L190.5322 450.5346 L190.6582 449.9514 L191.3674 449.4629 L192.2657 449.4157 L192.9904 449.4786 L193.4002 448.9115 L193.1955 448.5806 L192.7225 448.4073 L192.187 447.7769 L191.4934 447.4298 L190.8629 447.3512 L190.3588 447.3512 L189.9649 447.8869 L189.9017 448.533 L189.8703 449.1005 L189.8862 449.8095 L189.9176 450.4085 L189.8544 451.086 L189.6182 451.6693 L189.0351 452.2682 L188.6884 452.6463 L188.2628 452.7881 L187.9949 452.5991 L187.538 452.4887 L187.0022 452.3782 L186.4191 452.3468 L185.8201 452.3468 L185.1899 452.3468 L184.8115 452.5201 L184.717 452.6148 L182.7628 451.4169 M185.6062 434.05 L186.1053 433.1769 L187.3738 431.763 L187.5592 431.3641 L188.1943 429.9969 L188.3303 429.7043 L190.0145 428.6019 L191.0336 428.124 L193.4249 430.3278 L194.0277 431.0974 L194.0072 431.7838 L192.7178 434.2164 L191.9901 434.2164 L190.7008 434.3619 L190.3682 434.6115 L189.1829 434.9859 L188.2472 435.6931 L187.353 436.7326 L186.7707 436.7742 L186.4796 436.275 L186.521 435.5891 L186.4173 434.9027 L185.8556 434.6323 L185.6062 434.05 M191.0633 435.4712 L191.1047 434.972 L191.271 434.5357 L192.6852 434.6813 L193.496 434.8681 L194.4525 435.076 L195.4299 435.4712 L196.1162 435.804 L196.4904 436.1368 L195.3468 438.8194 L191.7078 437.2803 L191.271 436.6568 L191.0633 435.4712 M193.3864 463.2789 L194.0521 462.143 L194.1908 461.875 L194.2134 461.6342 L194.1065 461.3893 L193.8747 460.5611 L193.6038 459.7962 L193.5809 459.4228 L193.7002 459.2518 L193.7111 459.2333 L194.1027 459.0721 L194.9543 458.8475 L195.662 458.8211 L196.0648 458.8008 L196.7111 458.9445 L197.291 459.1562 L198.048 459.3438 L198.4287 459.4145 L198.8732 459.4741 L198.1065 460.4317 L197.7378 463.876 L197.87 464.8687 L198.7216 468.7695 L198.6911 468.8171 L198.4749 468.8268 L198.147 468.9073 L197.4734 468.8583 L196.9731 468.7973 L196.7257 468.5995 L196.481 468.1152 L196.3518 467.5745 L196.2633 467.3018 L196.0674 467.0407 L195.8738 466.8739 L195.8068 466.6132 L195.8174 466.1442 L195.7252 465.4542 L195.4643 464.804 L195.3697 464.3821 L195.135 464.2166 L194.5148 464.1094 L193.8001 464.0794 L193.5586 464.053 L193.4834 463.9292 L193.424 463.6103 L193.3864 463.2789 M195.9337 416.0983 L196.4934 415.8311 L197.3156 416.2698 L198.2028 416.5092 L198.4793 417.6491 L197.5686 417.7489 L196.3362 417.895 L195.9337 416.0983 M196.4602 421.6992 L196.9658 419.6224 L198.3612 421.3035 L200.008 421.5309 L202.3168 419.6469 L202.758 420.1521 L200.8121 422.8191 L198.1273 423.8 L198.6029 422.4905 L197.3065 422.4027 L196.4602 421.6992 M197.82 463.9033 L198.2542 460.4876 L198.9657 459.5176 L199.0233 459.5106 L199.2766 459.4949 L199.7633 459.6655 L200.4878 460.1008 L200.9587 460.1341 L201.5545 460.3901 L201.8321 460.5546 L202.0774 460.8883 L202.4337 461.1563 L202.956 461.3209 L203.1869 461.4036 L203.5668 461.4484 L204.2442 461.5131 L204.6981 461.6282 L204.9302 461.8348 L205.4842 465.1335 L205.9325 468.4382 L205.9443 469.6009 L205.8094 469.9383 L205.1805 470.2872 L204.6326 470.4752 L204.1514 470.5746 L202.2627 470.686 L200.4531 470.7396 L200.006 470.7012 L199.5145 470.5335 L199.1514 469.5972 L198.8444 468.8412 L198.8259 468.8416 L198.8039 468.7968 L197.9522 464.896 L197.82 463.9033 M197.9452 450.6151 L198.0081 450.3789 L198.1658 450.0951 L198.7487 449.7014 L199.521 449.4176 L200.0727 449.2286 L200.4508 448.8343 L200.4508 448.472 L201.1599 448.3615 L201.8059 448.1882 L202.011 447.7468 L202.1843 447.2583 L202.5151 447.2583 L202.9408 447.6683 L203.0509 448.0306 L203.1928 448.4877 L203.3189 448.8658 L203.4449 449.181 L203.6026 449.7171 L203.6185 450.0794 L203.7601 450.7884 L204.0674 451.2057 L204.3664 451.4627 L204.5166 452.1125 L204.8632 452.9476 L205.2889 453.4832 L205.5327 453.9981 L205.8247 454.744 L206.2536 455.2362 L206.6875 455.599 L206.7386 455.91 L206.4393 455.8472 L205.5095 455.6424 L204.6426 455.2958 L203.9334 454.9963 L202.8935 454.2398 L202.3103 454.145 L202.4522 453.9403 L202.7792 453.5059 L202.8147 453.1995 L202.3891 452.9005 L201.9795 452.5062 L201.7272 451.9549 L201.5697 451.7816 L201.1126 452.0177 L200.8761 452.0177 L200.7028 451.7497 L200.3247 451.3088 L199.8203 451.0093 L198.6858 450.7412 L198.6699 450.7412 L198.3706 450.7727 L197.9452 450.6151 M212.1161 422.7757 L212.5677 421.9894 L213.2284 420.9633 L214.3256 419.9011 L214.4258 419.4661 L214.929 419.4957 L215.4927 419.2133 L217.4134 418.3688 L217.7292 417.6477 L218.6831 417.9583 L220.4989 416.9502 L220.6631 417.1855 L220.5923 417.7415 L219.8159 418.1885 L219.5994 418.7737 L219.144 419.2216 L217.5838 420.5246 L217.2095 420.5413 L216.2307 421.1297 L215.9287 421.3072 L215.647 421.0876 L215.3602 420.857 L214.7081 421.4907 L214.31 421.8771 L213.5095 422.3819 L213.5345 422.453 L213.5312 422.5288 L213.4998 422.5977 L213.4449 422.65 L213.3744 422.6781 L213.2986 422.6781 L213.2284 422.6495 L213.174 422.5968 L212.4358 422.9569 L212.1338 423.1043 L212.1161 422.7757 M214.689 398.4211 L214.9087 397.6815 L215.8159 396.0145 L217.6981 393.783 L216.6053 393.33 L215.5095 392.8723 L215.0659 390.7366 L216.0776 389.8577 L215.3332 387.7825 L215.1161 387.2171 L216.4613 386.28 L217.3573 386.2754 L218.0512 385.9545 L218.9692 386.2823 L219.4695 387.5791 L217.6863 388.1708 L223.2886 390.3898 L225.7474 388.3372 L227.3103 389.3081 L227.4213 390.7213 L223.5882 393.4895 L221.758 395.9373 L219.85 397.6024 L217.6302 397.6006 L217.2921 399.3544 L216.4275 399.2102 L214.689 398.4211 M229.4013 398.5954 L229.5706 397.6625 L229.8488 397.1378 L230.1002 396.8928 L230.8808 397.5238 L231.4463 398.1932 L231.3502 398.2977 L230.9069 398.6148 L230.3449 398.9379 L229.8966 398.943 L229.5905 398.8459 L229.4013 398.5954 M91.8767 280.3585 L92.5274 281.2082 L93.862 284.8205 L94.877 287.3957 L96.6305 287.1751 L100.9101 287.0428 L105.6916 286.9934 L107.0153 285.5152 L107.0429 285.6641 L106.2209 286.905 L106.2653 287.0317 L109.3481 286.5632 L111.8408 285.8514 L113.9145 285.9564 L117.0855 286.0003 L117.2097 288.6533 L129.2185 296.9737 L135.0202 300.9779 L141.1747 305.0852 L141.8257 301.0741 L142.0793 301.1402 L141.6712 305.0121 L142.0132 305.4366 L158.6574 308.5578 L170.6688 310.9238 L177.8163 312.3866 L194.1735 315.5923 L193.6773 314.8973 L189.3424 311.8645 L189.8389 311.2355 L190.0924 311.346 L190.1588 312.074 L193.5119 314.2248 L194.8574 315.6806 L204.6961 317.8537 L205.0268 313.6347 L205.1482 313.662 L205.0492 317.4786 L205.5785 317.9416 L219.9284 320.7763 L235.1055 323.8039 L246.4113 325.9602 L255.3455 327.7693 L255.6102 327.3503 L255.3014 325.8941 L255.3123 325.1334 L255.599 325.1223 L255.5217 325.8613 L255.7644 326.8536 L256.2168 327.6592 L256.8675 328.0453 L259.636 328.6229 L281.1113 332.4735 L281.3868 332.1234 L281.5634 332.1373 L281.613 332.4295 L281.7179 332.5479 L282.0928 332.6751 L296.4097 335.4102 L305.4544 337.1753 L306.2264 332.9618 L306.3366 331.2189 L306.7998 331.2629 L306.5572 334.528 L308.8956 338.0136 L319.2416 339.9326 L326.9846 341.6531 L327.3377 339.6459 L327.536 339.6015 L327.3818 341.4987 L328.4405 341.9181 L337.3306 343.727 L338.3453 342.1387 L338.5991 341.3914 L339.3271 341.4876 L338.4226 343.2193 L338.533 343.9392 L339.3159 344.1903 L341.6323 344.5542 L347.7428 345.5275 L357.9346 347.7419 L362.7545 348.5802 L368.1593 349.7052 L377.0823 351.6162 L377.9539 349.0213 L378.1302 349.0652 L377.7113 351.2712 L378.0309 351.7789 L380.6452 352.0873 L388.0129 353.72 L388.2007 353.6095 L388.5206 350.5874 L388.6968 350.6646 L388.4213 353.6539 L388.7521 353.8083 L402.4844 356.5353 L402.7711 355.4848 L402.8704 355.0544 L403.146 355.0988 L403.2124 355.882 L403.6645 356.6098 L413.5144 358.7385 L417.4189 359.3234 L418.3895 359.2818 L419.2444 359.7256 L425.7464 360.9638 L433.9691 362.6805 L439.6938 363.7338 L447.8833 365.2614 L448.4955 364.7856 L449.1497 364.5928 L450.6629 354.2591 L450.729 353.7584 L450.321 353.0653 L450.3595 352.7837 L449.9955 352.2806 L449.8136 352.2048 L449.2898 352.0064 L448.071 351.3887 L447.3483 350.5171 L447.4423 349.8938 L448.4735 350.9971 L449.3063 350.181 L449.8413 350.3904 L449.9514 349.8222 L450.0895 348.3319 L450.492 346.9105 L450.6133 346.4084 L450.9441 346.5022 L451.0766 346.9822 L450.9664 347.8533 L450.9056 348.3111 L450.5252 348.1789 L450.4588 348.5044 L450.7843 349.0061 L451.3689 349.8827 L451.071 350.4454 L451.0545 351.631 L450.5581 352.1881 L450.7843 352.5192 L450.8175 352.8775 L451.0061 353.1536 L451.2972 353.0694 L451.8477 352.6898 L454.8377 351.2454 L454.573 350.5393 L453.994 350.3904 L453.5363 350.4343 L453.415 350.181 L453.7073 349.9438 L453.3929 349.5299 L453.0563 349.4583 L453.1694 348.9936 L453.2328 348.46 L453.2164 348.14 L453.7898 348.4988 L453.9444 348.5372 L454.1318 348.2394 L454.3744 348.2616 L454.7716 350.2526 L454.7108 350.4894 L455.0915 351.1404 L458.1303 350.0029 L460.0983 349.2026 L460.8782 348.5353 L461.9247 347.1292 L462.1435 346.5147 L462.42 345.7388 L462.425 344.3045 L461.7328 341.9888 L444.6582 294.5067 L443.1074 293.9462 L441.8169 293.6923 L441.8169 293.4717 L443.3392 293.6594 L444.1441 293.9573 L444.398 293.6261 L441.6168 288.0178 L440.8225 285.3103 L436.9135 275.0028 L433.4397 264.0742 L433.0869 262.6958 L432.6841 261.0199 L432.645 259.2075 L433.3372 255.7456 L435.9194 248.6926 L432.1113 250.8765 L430.1527 251.1064 L428.707 248.8526 L427.022 245.7694 L425.2899 245.6663 L422.0129 245.1852 L421.9688 247.5592 L421.4979 247.5944 L419.6001 247.8904 L418.3986 248.1638 L417.247 248.3808 L413.5484 248.7416 L411.7367 247.4954 L411.4923 246.7765 L412.0796 245.1426 L410.6577 240.4795 L414.609 239.4109 L412.4856 226.7881 L413.3134 225.9896 L415.3064 224.6382 L415.8522 222.3162 L416.6736 220.1056 L420.3877 215.015 L421.4991 215.7414 L422.366 213.516 L422.6859 211.6662 L423.7864 207.6451 L424.3701 204.5317 L424.7103 202.6929 L424.8604 200.9722 L426.049 197.4006 L427.1509 193.7332 L423.873 195.0057 L422.45 193.5824 L422.1912 196.0838 L423.2261 198.3482 L422.299 199.1029 L419.1084 198.0544 L419.6927 195.7016 L421.1838 192.5811 L416.97 190.0792 L417.8014 188.7785 L421.3019 190.6557 L422.0646 190.2161 L422.3871 189.3943 L420.0796 187.7619 L421.1689 184.8666 L425.5176 188.5041 L428.1785 187.8632 L428.997 186.3441 L427.9312 184.9457 L425.0663 184.6329 L425.3989 183.2151 L424.5775 181.9731 L425.5161 180.3989 L426.2984 180.4479 L427.3545 182.0222 L429.222 181.7089 L432.289 178.7862 L434.4791 177.3587 L436.2667 176.8376 L436.153 175.7899 L434.1212 173.9986 L430.6142 170.3336 L421.643 162.2958 L407.8296 146.8672 L394.993 132.1077 L389.807 124.4156 L380.265 109.5388 L375.698 102.7745 L373.2409 98.612 L374.0388 97.8982 L353.9716 58.6447 L332.6702 31.4095 L331.7968 29.8596 L319.2978 7.6766 L316.1573 2.0683 L315.1823 2.4286 L311.3113 4.1634 L312.5877 5.6801 L314.2337 7.0588 L304.3169 21.7129 L299.7108 18.5783 L301.0196 16.067 L304.7796 10.5988 L307.7381 6.4053 L307.1482 6.1895 L304.333 9.4364 L304.7649 6.2224 L303.0637 8.5912 L298.7285 4.7173 L299.3304 0.3038 L299.1462 0.0 L295.4685 2.1239 L290.1495 5.3522 L289.1101 16.9325 L289.0217 18.3917 L288.9065 20.9168 L293.9679 21.197 L293.8278 22.301 L291.5892 23.3058 L294.0452 23.3197 L296.5011 23.3383 L297.0739 25.1072 L301.8712 27.3901 L303.1198 27.2512 L303.1198 26.0704 L305.182 27.1308 L304.5769 28.1032 L303.9717 29.0756 L305.0293 29.6313 L306.5158 31.7938 L302.9068 31.4715 L295.4212 27.8559 L288.2996 27.2813 L287.8901 32.2453 L290.9426 35.3834 L288.3598 37.3657 L289.2405 39.8888 L292.7675 40.5509 L293.1456 38.0042 L290.908 36.1428 L292.7643 35.1694 L291.8419 35.1463 L291.7185 33.8127 L293.6016 32.3541 L294.2949 33.5488 L294.8853 34.9888 L293.866 39.7813 L302.1151 40.6796 L300.4326 38.5886 L301.0222 34.7545 L303.7625 33.683 L306.6024 35.2889 L306.8277 35.889 L306.4905 39.8193 L304.2055 40.1143 L303.7625 41.1214 L303.4929 41.5733 L307.3824 41.9113 L308.306 43.7949 L305.6397 63.4218 L267.2062 59.0938 L265.2967 61.0152 L234.8135 61.6884 L230.0191 61.7666 L228.2054 63.6709 L225.7747 63.6584 L222.5559 62.0315 L219.629 59.8508 L219.1455 59.0044 L219.5685 54.455 L216.7119 54.3036 L216.2283 58.7928 L214.5248 59.7424 L214.028 62.6889 L209.4475 61.3898 L210.4695 58.6567 L208.3535 55.5583 L206.2375 54.8782 L205.6934 56.5857 L204.8015 57.1149 L200.9884 57.6326 L199.6576 59.1998 L195.2816 56.5964 L192.2205 57.1575 L191.2299 56.3496 L190.5636 55.3439 L189.3201 54.3082 L187.8421 52.095 L184.34 50.149 L183.6726 48.565 L182.8071 47.4885 L181.8071 47.5278 L180.9822 48.2173 L179.4238 49.7188 L179.1459 50.3708 L179.4132 51.8885 L180.0448 52.6326 L179.2819 53.3725 L179.5248 53.9841 L179.9067 54.3596 L180.3133 54.8874 L183.0939 55.8023 L183.5328 56.4676 L184.4405 58.1307 L185.5289 59.1415 L185.5404 60.8124 L184.5924 61.5606 L183.5748 62.3357 L182.1371 63.8705 L181.3374 63.9107 L179.5219 62.8338 L179.4799 63.4181 L181.5357 68.7725 L182.8982 71.4165 L183.8274 73.7531 L183.8183 73.9342 L184.5721 76.1971 L188.1497 88.5351 L207.7225 119.0065 L208.1276 119.5301 L208.5327 119.0996 L209.0477 119.8846 L209.0506 120.6858 L215.8168 134.7847 L226.748 154.695 L228.3461 160.2484 L228.3549 171.8172 L229.3508 177.7034 L231.4366 183.3905 L237.2988 192.2849 L240.2142 191.5548 L241.3737 194.7234 L241.9266 197.582 L241.4007 202.1798 L238.7959 201.0647 L237.0183 202.6518 L233.8937 203.6739 L229.8852 203.7766 L221.0938 202.463 L217.7721 201.6394 L212.1138 198.8091 L207.677 196.1911 L195.8197 195.5322 L173.534 193.965 L172.791 193.9127 L171.9015 194.2334 L171.7687 194.549 L171.5366 194.66 L170.6958 194.9154 L168.5839 195.6474 L167.2011 196.0134 L166.1594 196.3295 L165.9426 196.3817 L164.5354 196.8889 L161.7393 197.8966 L144.5566 207.6085 L140.8492 211.4673 L139.0279 218.2222 L140.8169 228.7335 L139.7829 235.5943 L142.5252 241.7563 L143.6365 243.0637 L137.3581 250.9657 L136.5349 251.9349 L137.4759 254.0623 L136.2361 255.1369 L135.5514 255.1642 L132.2832 258.2815 L128.9674 262.2739 L128.438 263.1782 L127.9439 263.2661 L126.3813 265.1427 L124.0984 266.1918 L122.4509 266.9883 L121.1707 267.356 L120.8878 268.0439 L122.23 271.3608 L124.376 270.3571 L124.7797 272.5995 L124.2911 273.0574 L122.7629 272.5828 L121.8904 272.0125 L120.1539 267.9231 L117.0341 268.4856 L114.099 268.6322 L111.8279 268.6239 L113.0881 269.6258 L113.827 270.432 L114.8425 271.1448 L117.4377 270.9135 L119.1319 270.6735 L119.537 271.3016 L118.3187 271.6726 L118.2062 271.7355 L117.7523 271.8455 L117.5285 271.9135 L117.4057 271.9293 L115.6163 272.2637 L114.527 272.136 L113.72 271.9875 L113.1243 271.7914 L112.7482 271.7345 L111.5946 271.7244 L110.5056 272.192 L107.4189 273.3169 L106.5353 273.5093 L106.359 273.494 L106.181 273.55 L106.0306 273.4654 L105.1625 273.3904 L103.5429 272.6744 L103.2853 272.8844 L103.032 273.8141 L102.9342 273.7767 L102.8537 273.9788 L102.312 273.8747 L101.4695 273.4237 L100.9959 272.8636 L100.5567 272.1277 L100.4956 271.6707 L100.1769 271.0893 L98.8781 271.4302 L97.4163 272.5694 L93.5356 278.5163 L91.8767 280.3585 M138.7288 250.591 L138.8396 250.4204 L139.1283 250.1891 L139.4033 249.7353 L139.2782 249.4554 L139.7467 249.0159 L140.3575 248.1957 L140.344 247.921 L140.6298 247.3677 L141.0129 247.1304 L141.0514 246.7006 L141.4864 246.3694 L141.6918 245.8124 L141.9635 245.4831 L142.3939 245.0283 L142.7702 244.8137 L143.3348 244.6842 L143.4374 244.3631 L143.8698 244.0439 L144.4479 243.9588 L144.9964 243.5929 L145.1503 243.3112 L145.5296 243.1682 L145.7326 243.0253 L145.8862 242.6283 L146.0161 242.5108 L146.6656 242.3855 L146.955 242.2004 L147.7435 241.9104 L148.2693 241.5477 L148.653 241.266 L149.1421 240.8006 L149.477 240.4407 L149.6157 239.8152 L149.9312 239.7111 L149.9224 239.4743 L150.1233 239.0861 L150.4849 238.123 L150.9512 237.5017 L151.0234 237.3365 L151.232 236.663 L151.566 236.526 L151.8733 236.0157 L152.653 234.8592 L153.0434 234.5682 L153.2834 234.2439 L153.6624 233.7549 L154.0525 233.234 L154.2934 232.9171 L154.6239 232.5808 L155.1865 232.3208 L155.5801 231.9992 L156.8154 231.4418 L157.7561 230.9158 L158.2687 230.5091 L159.0302 229.9609 L159.2702 229.9211 L159.477 229.6935 L159.633 229.3118 L159.8842 229.0703 L160.3339 228.7104 L160.6403 228.3084 L160.8903 228.0595 L161.1926 227.7421 L161.4987 227.7398 L161.6371 227.6287 L161.5366 227.2198 L161.6174 227.0782 L161.9212 227.0606 L162.2437 226.7793 L162.252 226.4398 L162.8272 225.8712 L163.3266 225.5964 L164.2123 224.8862 L164.9796 223.8073 L165.8166 222.2732 L166.3316 221.3668 L166.5945 220.7552 L167.0184 220.7196 L167.2044 220.4624 L167.8095 220.3129 L168.0055 219.9331 L168.0384 219.4514 L168.1189 218.8662 L168.3765 218.7524 L168.5284 219.1651 L169.0207 219.7531 L169.4984 220.2097 L170.2061 220.3731 L171.0539 220.1408 L171.8492 219.5935 L172.1979 218.9125 L172.5466 218.5544 L172.8615 218.4257 L173.1168 219.6897 L173.3122 219.7952 L173.5739 219.7494 L173.7358 219.6421 L173.8703 218.355 L174.0204 218.1953 L174.2502 218.2291 L174.5316 218.4924 L175.0334 218.4077 L175.4958 218.3776 L176.1955 219.1975 L176.6867 219.3788 L177.1118 219.3307 L177.7416 218.9819 L178.4267 218.2379 L178.7792 218.1583 L179.2913 219.1442 L179.5574 219.4524 L180.36 219.7642 L181.0451 219.7582 L181.5463 219.2775 L182.2081 219.1137 L182.689 219.1137 L183.4106 219.3173 L183.6758 219.1424 L184.0098 218.2828 L184.4529 217.9982 L185.108 218.1033 L185.4558 218.169 L186.0445 218.0371 L186.4338 217.6938 L187.3656 217.6619 L187.5521 217.4782 L187.6855 216.4021 L188.0377 216.3928 L188.3685 216.0856 L188.833 215.8117 L189.1379 216.2207 L189.5169 216.1962 L190.2554 216.6926 L190.5181 216.4853 L191.3532 217.1141 L191.501 217.531 L191.1458 217.9858 L191.0715 218.2208 L191.4126 218.5479 L191.4091 218.9189 L191.2963 219.3571 L191.2155 219.9428 L191.1949 220.7728 L191.3691 221.1045 L191.3735 221.5019 L191.5433 221.9035 L191.7989 222.0414 L192.0918 221.9623 L192.4102 221.8799 L192.8344 221.991 L193.2848 222.5188 L194.4079 223.1656 L194.7957 223.6972 L195.0994 223.465 L195.6685 223.0074 L196.7601 222.48 L197.1253 222.6923 L197.9273 221.8656 L198.5436 221.9947 L198.6834 221.9974 L198.7851 221.8767 L198.7816 221.7693 L198.6194 221.5977 L198.6523 221.4432 L198.7842 221.3072 L198.8145 221.1313 L198.7848 221.0707 L198.7134 221.0157 L198.229 220.9639 L197.8861 220.8228 L197.3814 220.8625 L197.1491 221.0962 L196.949 221.5639 L196.8089 221.6791 L196.6388 221.6481 L196.6229 221.4894 L196.7058 221.1452 L197.013 220.7173 L197.3371 220.4156 L197.4981 220.238 L197.7181 220.3004 L197.7651 220.4124 L197.8667 220.6136 L198.4913 220.6372 L198.5489 220.5863 L198.5075 220.3555 L198.6355 220.07 L198.8371 219.9354 L198.882 219.7897 L198.7507 219.2058 L198.8327 219.098 L199.3932 218.7218 L199.5653 218.5271 L199.5924 218.2869 L199.5377 218.0366 L199.6899 217.6508 L200.3233 217.1146 L200.3829 217.0637 L200.3723 217.3875 L200.6661 218.6265 L200.5609 218.8019 L200.419 218.8639 L200.1217 218.8824 L199.9939 218.7274 L199.8424 218.7154 L199.5647 219.3654 L199.39 219.5819 L199.0418 221.2299 L199.1085 221.4894 L199.7407 222.3527 L200.2166 222.1334 L200.3932 222.3953 L200.4393 223.3049 L200.2472 224.1094 L200.1884 224.5846 L200.172 225.0426 L200.286 225.65 L200.6543 225.5006 L200.9375 225.7967 L201.0509 226.1483 L200.9666 226.5156 L200.9787 226.9366 L201.1379 228.0497 L201.2971 228.3287 L201.7548 228.4879 L202.5304 228.3703 L203.3332 228.8755 L203.8788 229.0116 L204.6617 228.9482 L205.3274 229.1517 L208.5568 229.2207 L208.9716 229.4154 L209.3197 229.2156 L210.696 229.1291 L212.761 229.3123 L213.201 229.2808 L214.3121 229.2854 L215.4798 229.4848 L216.5568 229.5658 L217.3846 229.2322 L217.5057 229.1536 L217.7698 229.0365 L218.2789 228.7738 L218.8285 228.3338 L219.7994 227.7856 L220.1534 227.6195 L220.8761 227.3678 L221.6246 227.2572 L222.1405 227.4469 L222.2982 227.5667 L221.9304 227.8466 L221.4948 227.9586 L220.728 228.2908 L219.9219 228.7136 L219.5903 228.9473 L219.1805 229.1883 L218.6176 229.5283 L218.221 229.7707 L217.5092 230.0992 L217.2172 230.201 L216.8191 230.3513 L215.9698 230.2523 L215.7166 230.2621 L215.2545 230.3421 L214.4675 230.3014 L214.0788 230.3412 L213.2419 230.8515 L212.84 230.937 L212.4687 230.9546 L212.325 231.1892 L212.1261 231.2479 L211.971 231.1573 L211.8497 230.8385 L211.7372 230.6932 L211.4898 230.517 L211.2278 230.4989 L210.7668 230.4726 L210.4111 230.5526 L210.2868 230.6696 L210.0838 230.6969 L209.9966 230.5415 L209.2184 230.6525 L209.0753 230.7784 L208.672 230.8524 L208.3799 230.8112 L207.9842 230.7908 L207.8232 231.1332 L207.4972 231.3377 L207.4314 231.5935 L207.1664 231.8563 L206.6012 232.3134 L206.3914 232.3411 L206.2815 232.1154 L205.8459 232.1468 L205.4117 231.9377 L205.0183 232.0372 L204.8385 232.2884 L204.0286 232.5109 L203.1217 232.5054 L202.9378 231.9747 L202.5477 231.9979 L202.0762 232.0201 L201.734 232.2939 L201.2909 232.664 L201.1784 233.2733 L200.5157 233.302 L200.4584 233.4704 L200.1852 233.6203 L199.9602 233.3834 L199.1364 233.6004 L199.0477 233.8868 L198.2989 234.0672 L197.667 233.7942 L196.7701 234.0445 L196.2325 234.9124 L196.328 235.227 L196.3603 235.4167 L196.1961 235.6392 L195.9954 235.6327 L195.6743 235.5217 L195.5151 235.777 L195.5592 235.9584 L196.0266 235.9158 L196.0686 236.1309 L195.6535 236.5714 L195.5148 236.681 L195.3659 236.6597 L195.1752 236.3775 L194.7028 237.2218 L194.486 237.3809 L194.3891 237.5082 L194.4722 238.1706 L193.5827 238.4857 L193.395 238.2553 L192.9508 238.3367 L192.7707 238.5292 L192.4819 238.5569 L192.4499 238.3168 L192.2874 238.3168 L191.3967 238.8655 L191.0736 238.9196 L190.9191 239.1412 L190.34 239.6366 L190.1367 239.6223 L189.8271 239.8518 L189.3386 239.9383 L188.5142 239.7976 L188.1864 239.7861 L187.6979 239.9771 L187.3224 240.3893 L186.8973 240.5859 L186.3301 240.5503 L185.8915 240.2815 L185.4866 240.1617 L185.6191 239.9073 L185.8568 239.8124 L186.0187 239.7768 L186.2766 239.9933 L186.4238 239.8481 L186.5483 239.7407 L186.4643 239.3688 L186.033 239.2596 L185.7781 238.9103 L185.4352 238.9423 L185.2419 238.8988 L183.9664 240.01 L183.9796 240.1617 L184.2531 240.1807 L183.8712 241.0786 L183.8268 241.1841 L182.8242 241.7637 L182.5677 241.4302 L182.7766 241.0444 L182.4884 240.4735 L181.7848 240.5485 L181.2549 240.2616 L180.9297 240.3537 L180.9658 240.987 L180.64 241.2919 L180.2455 241.2965 L179.7795 241.9974 L179.1018 242.0496 L178.7716 242.1037 L178.4975 242.3628 L178.1629 242.4563 L177.7795 242.4012 L177.6773 242.6469 L177.3357 242.6154 L177.3418 242.3725 L177.0777 242.2726 L176.5301 242.7139 L177.0322 243.4495 L176.9156 243.6586 L174.8747 244.5514 L174.4294 244.3206 L173.875 244.9367 L173.8595 245.3258 L172.4705 246.4795 L172.4361 247.3066 L172.2563 247.5398 L172.0016 249.033 L171.7008 249.2172 L171.4132 250.5513 L170.8771 250.7576 L167.5492 252.1379 L167.3668 252.3919 L166.9632 252.5099 L166.675 252.4465 L166.0351 252.6981 L165.3451 253.3393 L165.0363 253.4059 L164.5205 253.5391 L164.4464 254.0336 L163.7176 254.4601 L162.6679 254.5415 L162.5284 254.9333 L162.8539 255.8155 L162.7528 256.3905 L162.3474 256.8785 L161.452 257.2152 L160.4065 256.9719 L159.9685 257.3378 L159.6157 257.7421 L158.5945 258.1853 L157.9409 258.1964 L156.6201 258.3444 L156.6086 257.6565 L156.2764 257.6551 L156.1615 257.7393 L155.9758 258.5803 L155.6618 258.887 L155.4673 258.8897 L155.0322 258.8907 L154.3084 259.2177 L153.8757 259.6664 L153.1092 259.758 L152.6647 259.3463 L152.1218 259.7409 L152.1265 260.4643 L151.6768 260.8695 L151.1727 261.0407 L151.0264 260.8881 L150.0249 260.9306 L149.46 261.0754 L149.0178 261.537 L148.774 261.5121 L148.8066 261.0708 L148.4958 260.6299 L148.7602 259.9504 L149.039 259.6368 L148.8545 259.4545 L148.4253 259.3283 L147.8372 259.7011 L147.2423 259.6201 L146.8037 258.9092 L146.4371 258.9929 L145.9764 258.4841 L145.8055 258.5761 L146.126 259.1493 L145.8854 259.492 L145.5179 259.8283 L145.153 260.2682 L144.7643 260.2742 L144.3959 260.1743 L144.0845 259.9865 L144.6439 259.3713 L145.0023 259.1395 L145.0857 259.0669 L145.1559 258.9207 L145.2376 258.516 L145.1101 258.2495 L145.2194 257.8957 L145.3439 257.6413 L145.3539 257.4576 L145.2937 257.274 L145.1821 257.3813 L145.0199 257.3683 L144.7737 257.0681 L144.5217 257.3665 L144.3633 257.1408 L144.1078 256.9016 L143.9447 256.7198 L143.7197 256.6352 L142.9691 255.4722 L142.8046 255.012 L142.4729 254.6854 L142.1242 254.6322 L141.5117 255.277 L141.2223 255.339 L141.0467 255.2248 L140.9597 254.9148 L141.1462 254.6831 L140.727 254.3741 L140.2115 254.2321 L139.9544 253.9457 L139.6442 253.6409 L139.3821 253.3804 L139.2511 252.9674 L139.1339 251.9612 L138.7429 251.3039 L138.7288 250.591 M164.774 198.1812 L165.5234 197.8374 L166.19 197.6264 L166.8324 197.6112 L167.6042 197.2771 L168.3692 197.0194 L170.0196 196.5585 L170.7531 196.3174 L170.8195 196.5344 L170.3233 197.2354 L170.274 197.4941 L170.2787 197.8356 L170.0954 198.0382 L170.1027 198.3436 L170.274 198.4047 L171.1685 197.7685 L172.0157 196.589 L172.7872 196.0028 L173.2352 195.7539 L174.5031 195.5003 L174.9549 195.6872 L176.0293 196.651 L175.9094 196.9476 L175.2646 197.7592 L174.6982 198.3829 L173.7264 199.1797 L172.7249 200.0838 L171.8083 200.7395 L171.1568 201.1675 L170.6471 200.999 L170.1547 200.5169 L169.0607 199.9533 L169.0008 199.7243 L169.2978 199.5258 L169.9053 199.0289 L169.7496 198.5842 L169.5113 198.6161 L169.1591 198.9197 L168.4209 199.2912 L168.0915 199.3939 L167.3227 199.1529 L166.7049 199.1015 L165.9317 198.7647 L165.3621 198.6351 L164.774 198.1812 M177.8242 196.689 L177.8597 196.5034 L178.1946 195.7802 L178.5154 195.6359 L178.9764 195.5591 L179.2972 195.5743 L180.5477 195.61 L182.6086 195.8566 L184.0695 195.951 L184.9916 195.9144 L185.3447 195.9547 L185.9643 196.2383 L186.1664 196.2513 L187.3847 196.2624 L188.3259 196.3688 L189.5839 196.4613 L190.749 196.5085 L192.4114 196.6293 L194.3779 196.7811 L195.8136 196.9046 L197.7748 197.0226 L199.6632 196.9962 L200.387 198.1803 L200.5536 200.2888 L200.3456 200.764 L200.1793 200.8598 L187.6118 199.8363 L185.2319 197.8388 L178.4191 196.9981 L177.8923 196.9111 L177.8242 196.689 M179.6829 53.2437 L180.0901 52.8817 L180.3145 52.6863 L181.1039 51.9612 L182.2131 51.0972 L182.7933 50.7764 L183.6935 50.4101 L183.9593 50.4069 L184.0824 50.3948 L184.4652 50.493 L184.6838 50.655 L184.9264 50.8671 L185.4831 51.2134 L186.0968 51.9487 L187.7111 53.2738 L189.3847 54.7823 L190.3635 55.6917 L190.59 55.9607 L191.4975 56.8862 L191.996 57.4497 L192.573 58.3011 L193.3524 61.0184 L194.0413 62.3963 L194.0988 62.7199 L194.2451 63.0533 L194.5157 63.407 L194.6585 63.5362 L194.8841 63.6593 L195.1814 63.689 L195.4731 63.7839 L195.7401 64.0672 L195.8512 64.6247 L196.0454 64.8321 L197.5712 65.702 L198.9164 67.9716 L199.585 69.9193 L199.5116 71.0476 L199.3941 71.5388 L199.6429 72.292 L199.3979 72.8258 L199.0266 73.474 L198.4422 73.7818 L198.0377 74.0661 L197.2175 74.5522 L196.7381 74.5832 L196.3274 74.5101 L196.2639 74.4629 L196.0962 73.8129 L195.9998 73.0818 L195.7475 71.5263 L195.974 69.9698 L196.0389 69.6327 L195.9963 69.304 L195.8538 68.7457 L195.6241 68.6558 L195.2989 68.6179 L194.8835 68.6387 L194.5031 68.7369 L193.3415 69.2943 L192.7892 69.3318 L192.3471 69.2679 L191.4816 68.8859 L190.8198 68.1581 L190.6132 67.4452 L190.8286 66.8271 L191.048 66.171 L191.1024 65.7562 L191.0228 65.4395 L190.1182 64.027 L189.3629 62.8852 L188.6038 61.9801 L188.5283 60.9897 L187.9147 60.9115 L187.1611 60.8059 L185.7939 60.6221 L185.8747 59.0104 L185.5195 58.5775 L185.0566 57.9738 L184.2155 56.5496 L183.368 55.531 L181.9778 54.974 L180.3304 54.4638 L179.9476 53.879 L179.6829 53.2437 M183.64 275.4751 L183.6735 275.0371 L184.9205 274.9358 L185.2463 274.1268 L185.2352 273.1948 L185.8756 273.161 L186.2575 276.6661 L184.3812 276.5648 L183.64 275.4751 M219.0691 89.6448 L219.0794 88.7347 L219.6091 87.2931 L220.4296 86.0024 L220.4842 85.9163 L220.5565 85.7885 L220.7239 85.4918 L221.877 83.9247 L222.4595 83.4576 L223.3306 82.9433 L224.3761 82.6178 L225.9172 82.4831 L227.0732 82.4706 L228.0947 82.5461 L230.2706 82.6345 L231.0124 83.0169 L231.1566 83.4789 L230.941 84.0724 L230.5973 84.3136 L229.8573 84.4872 L230.6358 84.9353 L233.654 86.3797 L235.4207 87.1778 L236.3555 87.3977 L236.8197 87.3287 L237.3132 87.4282 L237.6275 87.7792 L237.9604 88.2176 L238.4557 88.4337 L239.1598 88.312 L239.54 88.3393 L240.614 88.636 L241.24 88.5962 L241.6648 88.7596 L241.9419 88.9962 L242.3981 89.3934 L242.8852 89.6276 L243.901 90.0822 L245.178 90.6896 L248.6381 90.597 L248.8132 90.6188 L248.8901 90.6743 L248.6983 90.803 L248.2914 90.8864 L247.4054 91.0623 L246.7444 91.1465 L245.0185 91.3423 L244.7312 91.3497 L244.2685 91.0743 L243.5303 90.8845 L242.6425 90.7396 L241.8158 90.809 L241.1992 90.9164 L240.4833 91.2016 L239.8702 91.5224 L238.6099 91.2873 L236.604 91.0535 L236.0932 90.9192 L234.6129 90.397 L234.2262 90.3253 L233.5726 90.5035 L233.0347 90.5257 L232.3831 90.4318 L232.0133 90.547 L231.7418 90.6003 L230.6475 90.4188 L230.1361 90.4197 L229.6434 90.553 L229.5209 90.6128 L228.7927 90.9674 L228.3303 90.8956 L227.6378 90.6878 L226.5979 91.0525 L226.7113 91.7807 L226.9686 92.7154 L227.2177 93.4 L227.2636 93.8704 L227.2501 94.206 L227.0418 94.3259 L226.7498 94.131 L225.8179 93.7463 L224.2536 93.1704 L223.1643 92.7899 L220.602 92.4561 L220.5929 91.8895 L220.7983 91.2025 L220.7363 90.8239 L220.5844 90.4123 L220.4055 90.167 L220.0559 89.9364 L219.6199 89.6948 L219.0691 89.6448 M224.3476 70.4786 L224.5059 70.2462 L224.9105 70.3198 L225.5541 69.9461 L225.845 69.3447 L226.0503 68.9688 L226.3226 68.6392 L227.0506 68.2822 L227.3285 67.8966 L227.5571 67.6651 L227.8664 67.81 L228.2371 67.8762 L228.6443 67.8466 L229.0015 67.6252 L229.1337 67.2604 L229.3012 66.8493 L229.5823 66.7373 L229.9663 66.2229 L230.2404 65.996 L231.882 65.5367 L232.8937 65.3516 L233.2268 65.8405 L233.6334 66.3321 L233.9754 66.8011 L234.0406 67.2914 L233.4642 67.7428 L232.481 67.6887 L231.9293 67.7461 L230.3617 68.204 L229.3931 68.7137 L229.2045 69.0281 L228.9322 69.3295 L228.679 69.4045 L228.3229 69.2619 L227.9915 69.1822 L227.3411 69.0545 L226.6854 69.0795 L226.3784 69.3776 L226.095 69.8068 L226.2019 70.2448 L226.0947 70.8091 L225.6284 71.4152 L225.4096 71.5337 L225.3285 71.5513 L224.8532 71.5707 L224.3949 71.0179 L224.3476 70.4786 M234.6637 65.3284 L234.674 65.0543 L234.9101 64.7886 L235.3573 64.5339 L236.1842 64.5089 L236.7295 64.7011 L237.0244 64.7006 L237.2489 64.6395 L237.4313 64.4358 L238.0473 64.2742 L238.4281 64.264 L238.6502 64.5279 L238.8476 64.6075 L239.1143 64.596 L240.6557 64.5853 L241.0232 64.6649 L241.1737 64.8585 L241.2424 65.0293 L241.211 65.2613 L241.0388 65.496 L240.7453 65.6965 L240.349 65.821 L239.4407 66.0238 L238.2612 66.4497 L237.609 66.5636 L237.015 66.6521 L236.5729 66.5965 L236.7715 66.371 L237.0908 66.2974 L238.3188 65.9932 L239.0876 65.9298 L239.339 65.9192 L239.4425 65.8891 L239.5285 65.7756 L239.4777 65.6465 L239.3276 65.5761 L238.8623 65.5576 L238.3949 65.6733 L237.7336 65.8497 L237.0541 65.9229 L236.5353 66.1724 L236.238 66.2358 L235.6869 66.1988 L235.0 65.8136 L234.7453 65.6247 L234.6637 65.3284 M239.3279 68.6262 L239.3852 68.4679 L239.9751 68.2905 L240.886 68.1225 L240.8361 68.5313 L240.817 68.6234 L240.7392 68.8406 L241.1563 69.0248 L240.9824 69.2383 L240.9222 69.4235 L241.0012 69.5767 L241.1407 69.6434 L241.4536 69.5429 L241.6258 69.4147 L241.6443 69.3072 L241.3508 68.8674 L241.4554 68.6239 L241.6543 68.4989 L242.2806 68.448 L242.5832 68.4665 L242.7768 68.1058 L243.156 68.0618 L243.4821 68.11 L244.4228 69.4406 L242.9971 69.7628 L242.2509 70.1383 L241.6707 70.1434 L241.2768 70.0781 L240.2615 69.2165 L239.5171 68.8702 L239.3279 68.6262 M241.8643 64.6552 L242.5926 64.5191 L243.0644 64.4788 L243.6078 64.6307 L244.9113 64.9978 L246.842 64.7159 L247.1084 64.2168 L248.104 63.7742 L251.9154 63.3172 L253.5881 63.0445 L255.2673 63.1255 L256.5144 62.8973 L256.913 62.4718 L257.2756 62.3185 L257.8646 62.3208 L259.2191 62.3236 L260.4315 62.338 L260.8484 62.1782 L262.1128 61.9852 L262.7359 62.238 L263.4641 62.2046 L264.272 62.0486 L264.3081 62.544 L264.4121 62.7727 L264.2115 63.0681 L262.6072 64.4071 L261.7823 65.0955 L261.866 65.6164 L262.0085 65.9252 L261.8766 66.1321 L261.4753 66.1127 L261.213 66.3738 L261.1392 66.6386 L260.7697 66.8558 L259.8848 65.0923 L258.4471 65.1617 L257.9324 65.3011 L257.2139 65.3881 L256.8749 65.0886 L256.7136 64.9645 L256.3543 64.933 L255.9935 65.0539 L255.8957 65.2997 L255.9019 65.5451 L256.0167 66.0219 L256.636 65.9414 L256.6669 66.1946 L256.0417 66.3437 L255.9709 66.521 L256.1022 67.0155 L256.3558 67.3428 L256.9559 67.6053 L257.8939 67.5748 L259.0258 67.2558 L259.2424 67.5766 L259.2059 67.9021 L259.0734 68.1373 L258.8775 68.4855 L258.2747 68.748 L257.5767 68.8415 L257.042 68.7452 L256.512 68.5757 L255.8702 68.3262 L254.8311 67.7077 L254.6434 67.5604 L254.4004 67.5345 L254.1516 67.6586 L254.0091 67.9415 L253.485 69.4582 L253.3499 69.6809 L252.9568 69.7434 L251.7979 69.9309 L251.2233 70.2758 L250.8308 70.6813 L250.5182 70.7948 L249.7644 70.4471 L249.688 70.2577 L249.6516 69.9563 L249.5582 69.754 L249.2671 69.6355 L248.3064 69.6318 L247.2491 69.685 L247.1942 69.8948 L247.7521 70.0249 L247.9122 70.2938 L247.9601 70.6837 L247.5594 70.8883 L247.2468 70.8568 L246.9063 70.8888 L246.1569 70.236 L245.8196 70.1212 L245.4577 70.1091 L245.3755 69.9878 L245.5529 69.7415 L245.6025 69.4818 L245.4442 69.3767 L245.2159 69.329 L244.891 69.3239 L244.7559 69.2577 L243.9222 68.0095 L244.1331 67.9141 L244.6616 67.8253 L244.8088 67.6674 L244.7903 67.5734 L244.5085 67.4424 L243.9557 67.3479 L243.5987 67.5044 L242.9348 66.5812 L242.1454 65.4377 L241.8643 64.6552 M242.6593 75.1897 L242.6593 75.0448 L242.7741 74.9328 L242.9257 74.9175 L243.0185 74.9629 L243.1055 75.0768 L243.6125 76.1781 L243.631 76.2818 L243.5729 76.386 L243.5009 76.4587 L243.4031 76.4814 L243.2183 76.4286 L243.0626 76.1258 L242.6998 75.3485 L242.6593 75.1897 M248.0182 71.8804 L248.1266 71.8003 L249.8029 71.642 L250.1431 71.6355 L251.1904 71.4147 L252.092 71.3415 L252.2594 71.3911 L252.4222 71.4948 L252.5529 71.8059 L252.54 72.0226 L252.4477 72.1365 L252.3167 72.2254 L252.1451 72.2781 L251.6366 72.3522 L250.9186 72.2147 L250.1642 72.2129 L248.9994 72.4152 L248.265 72.4388 L248.1175 72.2258 L248.0444 72.0323 L248.0182 71.8804 M280.0992 92.289 L280.5399 90.1318 L281.0411 87.9241 L281.2682 87.4417 L282.2035 85.9871 L282.6727 85.7084 L283.1222 86.1742 L282.7153 86.6889 L285.2482 88.6078 L286.6677 88.4828 L287.1224 89.03 L287.1083 90.0647 L286.9183 90.6304 L285.6007 90.7651 L283.7361 90.772 L283.4065 90.9206 L281.8249 92.9524 L281.1336 93.3325 L280.4427 93.4301 L280.2338 93.0265 L280.0992 92.289 M281.9462 217.0461 L283.5402 216.4719 L283.5402 215.7941 L283.774 215.7122 L284.3002 216.1097 L285.212 215.864 L285.3525 215.5133 L285.7115 215.4439 L286.0707 215.5119 L286.8275 215.2783 L287.6083 215.2176 L286.5082 212.5083 L283.8343 212.6401 L283.7314 211.7263 L284.3146 210.7001 L285.4991 209.9113 L286.2808 211.3035 L286.834 210.1972 L289.3319 210.2546 L291.3151 209.4727 L294.7476 214.3543 L295.3577 217.5772 L297.3601 227.8365 L296.403 227.7611 L295.94 226.6202 L294.8486 226.3389 L294.0881 226.8348 L293.4761 226.6035 L292.3519 227.8434 L292.5631 229.5376 L286.7455 231.823 L286.6307 230.7205 L286.9283 230.2579 L286.1016 229.0009 L286.2379 227.8082 L285.7543 227.0167 L287.8046 226.3389 L288.0393 225.6648 L287.3416 224.9001 L287.6888 224.5036 L287.5731 223.9415 L286.3992 223.1309 L283.5287 224.7011 L283.5173 223.9753 L285.9503 222.3518 L284.1451 220.1514 L281.9462 217.0461 M307.0166 93.3019 L307.0742 92.5131 L307.1676 91.5076 L307.4091 90.2711 L307.5666 89.7471 L307.7334 88.9272 L308.0854 88.0342 L308.4505 87.2871 L309.0337 86.9278 L309.254 87.1801 L309.7434 88.0523 L309.6224 88.7249 L309.8671 90.216 L310.091 90.9239 L310.4044 91.2076 L310.4849 92.0594 L311.0445 92.9774 L311.1553 93.1376 L313.7046 94.0319 L314.3906 94.3014 L315.0058 94.6411 L315.509 94.6351 L315.9538 94.7596 L316.5648 94.9851 L317.687 95.3776 L318.115 95.4536 L318.5122 95.8646 L318.8251 96.0044 L319.1673 96.197 L319.6949 96.422 L320.1811 96.7104 L320.5619 96.9872 L320.8101 97.0678 L321.7452 97.1242 L322.5416 97.4154 L323.0492 97.9737 L323.3559 98.1811 L323.7507 98.344 L324.0375 98.2033 L324.288 98.2153 L325.7557 98.6213 L326.3198 98.6935 L326.6955 98.8819 L326.7525 99.056 L326.6138 99.2902 L326.4678 99.2981 L325.8098 99.0791 L325.4928 99.1106 L325.3036 99.3059 L325.1702 99.3235 L324.9355 99.1736 L324.6118 99.0351 L324.0624 99.074 L323.5425 99.1499 L323.293 99.1472 L323.0375 99.0981 L322.4761 98.8879 L322.1012 98.6107 L321.7628 98.2042 L321.6 98.095 L321.2552 97.9982 L320.2402 97.8543 L319.378 97.6126 L318.9408 97.445 L318.2954 97.1386 L317.5263 96.9738 L317.0563 97.2312 L316.7184 97.2969 L316.529 96.79 L316.2699 96.3748 L315.9608 96.2725 L315.6738 96.26 L315.2863 96.4137 L314.9311 96.6099 L314.5328 96.9368 L314.0613 97.1039 L313.7014 97.0344 L313.2399 96.1688 L312.9006 95.7989 L311.6591 95.5471 L310.9441 95.4471 L310.5407 95.7355 L310.4837 95.991 L310.6054 96.2225 L310.1365 96.5067 L309.3022 97.2696 L308.7593 97.6811 L308.3659 97.6552 L307.9482 97.346 L307.3639 95.586 L307.0968 94.1616 L307.0166 93.3019 M313.8251 44.4381 L313.8885 44.3274 L314.1062 44.2922 L314.3224 44.3839 L314.4352 44.3746 L314.4949 44.3246 L314.526 44.2422 L314.6136 44.2246 L315.5125 45.1164 L315.5842 45.203 L315.5771 45.3303 L315.5169 45.3748 L315.2778 45.3826 L315.014 45.297 L314.2261 44.8784 L313.848 44.5182 L313.8251 44.4381 M315.7928 271.3062 L316.8683 270.2206 L317.6018 269.9958 L318.5307 269.9468 L318.9023 270.1522 L319.4106 270.8955 L321.0924 272.0102 L321.4053 272.8215 L318.7164 273.643 L317.328 273.9459 L317.0836 271.4528 L315.9297 271.6582 L315.7928 271.3062 M329.0806 47.9135 L329.1003 47.7413 L329.1485 47.6987 L329.3935 47.6403 L329.8074 47.6487 L330.5827 47.9283 L330.8932 48.1742 L331.4866 48.7419 L332.1068 49.3878 L332.598 49.9855 L333.6887 49.8392 L334.7028 49.4142 L334.9252 49.3331 L335.0136 49.3012 L335.0418 49.3336 L335.0098 50.2735 L334.6082 50.6592 L334.0792 50.8592 L332.7401 50.9051 L332.0659 50.8926 L331.8929 50.8555 L331.7393 50.7375 L331.6514 50.5745 L331.637 50.5101 L331.6955 50.3638 L331.7122 50.1267 L331.6356 49.9564 L331.2519 49.6887 L330.0565 49.1433 L329.6121 48.7812 L329.4763 48.6155 L329.1353 48.2186 L329.0806 47.9135 M342.5107 100.0517 L342.5122 99.7809 L342.5929 99.5448 L342.7231 99.174 L342.9678 98.9597 L343.6505 98.3681 L344.251 98.4158 L344.8747 99.031 L346.0612 99.2948 L346.3227 99.3661 L347.2871 99.6295 L348.0756 99.898 L350.0174 100.0989 L350.1931 100.1785 L351.0615 100.5725 L351.5586 100.8706 L352.0653 101.2437 L352.6376 101.464 L353.2427 101.3687 L354.751 101.2502 L355.691 101.1386 L355.7583 101.2659 L355.6878 101.3525 L355.3003 101.5117 L354.3041 101.8797 L353.4604 102.2996 L353.4202 103.1073 L353.949 104.0183 L355.2777 104.9849 L355.5859 105.8343 L356.2342 107.5146 L357.4701 109.7365 L357.7151 110.1508 L359.03 112.761 L358.3135 112.0708 L357.4642 111.0002 L357.0615 109.8647 L355.5982 107.4433 L354.9164 105.3908 L354.4137 104.9557 L353.8685 104.4414 L352.9754 103.71 L352.7695 102.8518 L352.4402 102.6375 L352.2621 102.119 L351.5136 101.464 L350.7551 101.0233 L350.4839 100.9391 L349.8805 100.6794 L349.3794 100.6137 L348.4575 100.6396 L347.9372 100.5521 L346.9763 100.3419 L345.6217 100.2919 L344.6156 100.3429 L343.833 100.4651 L343.3905 100.5428 L342.8841 100.5581 L342.7193 100.5086 L342.5712 100.3966 L342.5169 100.2387 L342.5107 100.0517 M350.3829 120.8497 L357.5773 116.8505 L357.6097 116.8412 L358.6467 118.1465 L363.0532 119.1972 L369.0756 123.9555 L372.8123 130.8103 L370.1449 132.3331 L360.3035 137.9334 L350.3829 120.8497 M268.1169 432.0292 L269.537 435.3201 L272.6078 433.9552 L274.0293 433.5614 L271.6821 431.6881 L272.814 430.717 L272.8305 430.5534 L273.0423 430.1869 L273.4817 429.6105 L273.6933 429.4103 L273.7238 429.408 L273.9333 429.3909 L274.2044 429.4806 L274.9585 429.8074 L275.7541 430.2858 L277.9177 431.6465 L278.9559 432.2996 L279.425 432.5265 L279.8293 432.6671 L280.0343 432.7382 L280.1486 432.8348 L280.7629 432.7188 L280.9347 432.8991 L281.1539 433.1598 L279.688 433.6515 L279.6468 433.8452 L279.9935 434.153 L281.4929 434.7257 L287.2632 436.7695 L290.5831 438.1483 L294.4215 439.7696 L297.6533 440.8285 L300.3445 441.733 L303.9626 443.7735 L303.7085 444.0217 L302.8483 443.8479 L302.6829 444.8296 L304.1829 445.668 L302.8043 448.0944 L301.6462 447.5541 L301.6571 446.2855 L300.9623 446.0211 L301.6021 444.8079 L302.0983 443.1422 L300.3116 442.1966 L297.4218 441.1927 L296.1312 444.7774 L294.9512 444.4904 L294.576 443.266 L295.3151 440.553 L291.4656 439.1854 L294.7091 444.8037 L295.274 445.6084 L296.3924 447.2921 L300.6039 448.7387 L301.5675 449.0539 L301.8915 449.5382 L302.2608 450.7158 L312.0613 454.4136 L316.4164 455.9978 L323.761 458.8239 L327.9526 460.721 L327.0921 455.6637 L326.9267 455.1013 L326.5739 455.0019 L326.2428 453.3145 L326.0994 452.4101 L325.8016 451.4285 L326.0333 451.1692 L326.6729 452.2114 L327.0148 452.6222 L327.3459 452.8843 L327.4452 453.6122 L327.7428 454.0203 L328.1952 454.0864 L329.0225 456.8884 L329.0554 457.9028 L329.3865 458.322 L328.3606 458.6529 L328.4167 460.7991 L328.8224 462.8889 L329.4332 462.2253 L329.8744 461.8477 L330.0398 462.0349 L331.1317 461.8916 L332.1191 461.5552 L334.0604 461.7372 L334.7387 459.909 L335.5988 459.6553 L335.8306 459.1811 L335.7974 457.5594 L336.0401 457.5044 L336.1614 458.7176 L336.1782 459.8896 L336.4757 462.8566 L336.4208 464.7319 L337.1376 466.1987 L337.2551 467.184 L337.667 466.9159 L337.6009 464.5554 L337.4575 460.3309 L337.7995 460.5075 L338.417 461.8532 L337.9096 462.3824 L338.0862 464.2795 L338.726 465.7796 L339.2774 465.4598 L339.0016 463.2868 L339.3547 462.9892 L339.6414 463.5738 L339.9393 462.162 L339.8509 461.0366 L340.0495 460.7196 L340.1267 459.8979 L340.4575 460.8712 L341.0924 459.9991 L340.8747 455.6337 L340.1276 455.1595 L339.033 450.4057 L340.1079 449.4564 L339.3782 448.5445 L339.7431 445.0325 L339.2416 441.384 L338.2381 440.2438 L336.7331 439.6508 L334.1335 439.7876 L333.0389 440.7453 L332.902 442.4327 L332.0354 442.3874 L330.8497 440.4717 L329.4813 439.4683 L327.6115 438.5106 L326.4714 436.5495 L325.6961 435.0899 L324.4646 434.178 L325.1488 433.9039 L326.3345 435.0899 L327.3835 437.1421 L328.4326 438.328 L331.0777 439.6051 L332.4849 439.8297 L337.0871 437.9435 L337.3197 437.5183 L337.4173 436.3212 L337.8159 433.1727 L338.0697 433.3821 L337.7193 437.8159 L338.2572 438.1358 L338.6485 438.1455 L340.4273 437.8719 L341.8418 437.8159 L341.875 438.1358 L340.7278 438.3678 L341.1729 439.1863 L345.8092 439.2404 L346.6326 440.1084 L348.7924 440.4051 L351.3168 441.1802 L354.0098 441.9937 L354.6432 440.9903 L353.4713 438.9668 L354.1552 438.921 L354.4745 438.0544 L353.7903 437.2336 L349.9593 435.774 L344.5777 434.6337 L346.3565 428.4771 L342.434 427.6562 L342.9358 426.1513 L342.5254 425.1936 L341.7498 424.5095 L338.0101 424.8742 L337.2348 423.9622 L335.8209 423.597 L332.5371 423.5517 L329.9376 423.7339 L327.3835 424.0533 L325.3312 423.8707 L322.6403 423.3234 L322.6858 422.7304 L325.0119 422.6851 L325.2399 420.7239 L325.9241 420.8149 L326.8818 422.1831 L329.2534 422.0463 L328.2957 420.9975 L334.4984 420.4045 L335.6385 421.4537 L339.9255 420.8607 L340.4728 421.5905 L343.9848 420.0398 L345.3529 418.2611 L344.7601 417.6223 L343.8935 418.6258 L342.4795 417.577 L340.4273 417.668 L339.5151 416.5277 L337.8277 416.756 L337.8732 415.8436 L337.2804 415.5699 L336.8242 416.4824 L335.4561 415.9804 L335.8665 414.9773 L344.0304 416.163 L345.8547 415.5699 L343.4375 415.0684 L342.662 414.4301 L342.2971 412.3777 L343.8024 412.3777 L343.939 411.511 L346.402 411.602 L347.9525 412.3777 L348.4543 411.4199 L343.9848 410.5532 L343.5286 409.4128 L348.5912 410.2795 L349.2295 408.455 L348.2718 408.0903 L348.2718 407.1783 L345.0336 406.9046 L346.7213 405.9011 L344.8056 405.6274 L344.9881 405.1716 L349.0929 405.9011 L349.4772 405.1975 L351.9205 403.0281 L354.1097 402.7087 L355.9795 402.3892 L358.8984 402.7087 L360.9052 402.2982 L361.0421 403.9854 L362.1367 403.575 L362.1822 401.7966 L364.0065 400.9299 L370.8021 401.7051 L372.2615 402.435 L374.4052 401.4772 L377.0961 401.2035 L377.1416 400.3825 L377.6434 399.972 L380.5623 399.4705 L381.1551 400.4736 L381.9762 400.2004 L382.6601 400.6104 L381.4745 403.1192 L381.8393 404.168 L380.9727 405.1716 L381.3831 406.2205 L382.2953 406.4031 L383.7547 404.5785 L384.302 405.0348 L385.9897 403.4381 L386.6281 403.8944 L384.1695 407.4062 L382.5229 409.7309 L382.1587 412.3777 L383.1619 413.4723 L381.7627 415.8847 L382.7718 416.2296 L385.3055 413.2439 L386.5276 409.8506 L387.5893 409.8302 L388.3129 410.3512 L388.3155 409.8691 L388.3155 409.3218 L387.1754 408.2729 L387.5403 407.6341 L388.4991 408.9709 L390.1592 408.5521 L390.5893 408.9011 L391.2773 409.5672 L391.0223 410.2084 L390.1592 409.8034 L389.5382 410.1543 L388.8202 411.0275 L388.8696 411.9584 L387.9004 413.3068 L387.0144 415.9781 L386.1625 418.5412 L385.8243 419.8733 L385.7768 421.5776 L386.0946 422.3759 L387.5758 423.6336 L387.0823 424.5062 L386.5479 424.0597 L385.9865 423.3969 L385.6078 422.3421 L385.3778 420.8949 L385.6957 418.5209 L386.5952 415.5112 L386.5749 414.8826 L386.3951 414.1818 L384.0541 417.2086 L382.0476 419.7167 L381.186 423.4588 L381.186 424.8603 L378.8458 429.9913 L378.5227 429.6442 L378.3543 430.7068 L377.4272 432.4142 L377.342 433.4754 L377.7201 435.9759 L376.6343 435.6589 L374.4436 435.3418 L374.0244 433.89 L371.8405 433.2499 L371.0709 437.5104 L373.6725 437.2132 L375.2562 436.8541 L376.7307 436.855 L377.6972 437.0811 L375.1384 439.343 L374.4398 440.4167 L376.0952 442.674 L377.6167 441.537 L378.9128 442.5048 L378.7559 443.1958 L378.7007 444.7912 L378.8755 445.7803 L379.7738 446.1685 L381.379 443.878 L382.5996 443.8442 L381.617 445.2566 L382.0133 447.7191 L383.5635 449.0576 L383.9137 449.3811 L386.441 450.9792 L390.2568 452.3643 L393.4894 453.5475 L395.5517 455.6845 L394.6111 456.9868 L393.7926 457.7545 L393.3149 457.7041 L393.064 459.0305 L390.9604 459.4857 L390.1475 460.5283 L389.1589 459.9548 L388.404 461.1281 L389.4254 462.1486 L392.9131 463.2863 L394.5558 464.0147 L396.1689 463.6477 L397.411 462.4249 L397.6425 460.7589 L398.7068 460.4118 L397.6657 459.5324 L398.1204 455.9183 L399.2374 454.7856 L400.4809 453.858 L400.829 452.6721 L402.5655 451.9683 L408.3237 452.039 L408.9553 447.7917 L410.4964 444.593 L410.1463 443.1218 L411.6639 441.3702 L412.5534 440.5784 L412.3178 439.362 L412.9509 437.8053 L412.0382 437.5774 L411.3569 436.5768 L411.8892 436.2158 L411.7044 435.9006 L412.9897 435.8724 L414.4859 435.9269 L414.4444 437.0339 L415.2758 436.9234 L415.2723 437.9139 L416.6057 439.7719 L417.5379 443.7934 L417.3354 444.9766 L415.3678 446.6201 L414.0147 447.3577 L414.1883 449.4892 L412.9618 450.9469 L414.2347 453.3076 L408.4462 457.0668 L407.7764 457.0132 L404.7999 460.0227 L404.0015 463.6353 L404.2042 464.0553 L404.7873 465.7102 L405.0176 468.7441 L405.304 469.1656 L405.3278 469.1965 L405.616 470.6134 L405.5452 471.5538 L405.6416 471.9332 L405.703 472.381 L406.3657 472.7655 L407.3804 475.2434 L408.6601 477.8132 L409.9583 478.9606 L410.7476 481.7434 L412.1859 485.4651 L412.2852 493.7539 L411.8402 495.4433 L411.3716 496.2584 L410.4671 492.3192 L409.3428 491.6372 L408.163 489.3147 L408.9189 492.3931 L410.0658 498.5724 L410.4856 500.051 L411.4826 501.6737 L413.0196 503.5714 L414.5919 504.9039 L419.1941 508.6955 L420.4106 507.4605 L422.0834 509.7379 L422.4162 511.7306 L425.9785 511.5301 L425.7867 509.6228 L428.9479 509.4505 L430.3862 510.9613 L430.8425 511.5491 L431.1909 512.0 L431.6821 511.5444 L432.4462 510.6236 L433.0707 509.255 L433.6254 507.5649 L433.6721 506.6283 L433.5781 504.9705 L433.6086 503.6966 L433.8733 502.3747 L434.4938 499.2761 L434.9027 495.3222 L434.9106 493.0798 L434.9185 490.883 L434.546 486.344 L434.4779 483.7443 L434.5134 483.3464 L434.554 482.8912 L434.6133 482.2281 L435.0648 481.0535 L440.5901 470.4374 L447.0992 457.9315 L447.4376 457.0229 L448.2041 454.9658 L448.2693 454.0887 L448.3298 453.2757 L448.2167 451.9641 L448.1935 451.8213 L446.8327 443.4033 L445.0349 433.7089 L444.8777 433.0114 L444.6074 433.1685 L444.1112 433.7971 L444.0161 433.731 L444.7455 432.4817 L444.7675 431.7482 L444.442 430.204 L444.3125 429.2805 L442.111 415.1082 L441.9441 414.149 L441.757 412.3846 L441.7138 411.5983 L441.7664 410.7053 L441.8145 409.9023 L442.3648 406.8284 L444.6441 393.3106 L438.5355 393.5131 L438.5907 393.1492 L440.19 393.2704 L442.7326 392.9782 L444.7243 392.846 L445.3345 389.1236 L445.6609 387.0109 L445.8815 384.5954 L446.3777 382.1359 L446.1462 381.8599 L446.5322 380.9667 L446.5874 380.1503 L446.9074 379.191 L446.3668 379.2571 L446.2058 378.3255 L446.9679 378.5483 L448.398 369.0951 L448.8927 365.9438 L448.7602 365.7672 L448.1206 365.646 L440.1348 364.0565 L434.4711 363.0444 L429.2264 362.0406 L428.6142 362.0887 L427.809 362.5964 L427.445 361.7138 L419.1063 360.0594 L418.7314 362.8058 L418.6101 362.8609 L418.5881 360.1478 L418.1909 359.8606 L416.1615 359.4445 L413.9333 359.2156 L403.9512 357.1614 L403.6425 357.5914 L403.4107 359.4667 L402.7271 358.4435 L400.5652 356.8553 L388.5975 354.3599 L381.5497 352.8845 L381.1193 353.0911 L380.943 353.4333 L381.0864 354.1199 L379.9724 353.4661 L379.5532 353.4772 L379.4098 352.8156 L378.8581 352.6061 L373.3655 351.3485 L371.9316 351.0757 L363.4495 349.7491 L357.4272 348.2824 L348.6032 346.727 L342.647 345.7675 L341.7648 345.0064 L338.5551 344.4992 L337.5624 345.1192 L336.9998 344.3004 L335.6981 344.0576 L319.7049 340.6826 L319.3962 341.5431 L317.3004 340.727 L316.6385 339.9765 L310.1089 338.697 L309.5575 339.0281 L306.2705 338.962 L306.1988 339.9201 L306.061 341.7072 L306.0058 342.1567 L305.4984 343.4029 L305.3219 344.6051 L305.1289 346.727 L304.3953 353.676 L303.91 358.8707 L303.7778 359.6401 L303.6894 363.2913 L303.4635 366.8953 L303.1656 370.4137 L303.0002 371.6712 L302.9062 376.3149 L302.5478 380.0647 L302.8733 381.8271 L303.2041 385.0036 L303.3586 386.9559 L303.4467 387.8273 L304.9555 392.4942 L305.8013 394.0687 L306.4282 394.506 L307.4779 394.6082 L306.8947 395.9932 L307.6673 398.0198 L309.8979 402.5681 L312.1917 407.2578 L313.4987 411.199 L313.5525 412.0033 L314.2466 411.8493 L314.581 411.309 L315.4167 412.3634 L315.8924 413.1478 L316.098 415.0763 L315.7252 417.6606 L315.5839 419.0876 L315.8025 419.9875 L315.5965 420.8875 L314.9667 421.1833 L314.1053 419.4735 L313.306 417.4138 L313.3151 417.4702 L312.9261 417.7346 L312.7546 417.7891 L312.3965 418.0327 L307.0425 418.7155 L306.9 420.8029 L306.8272 420.9416 L306.826 421.071 L306.6054 421.3627 L305.588 423.2957 L304.9244 425.5111 L304.8715 425.7436 L304.836 425.806 L304.7957 425.9405 L307.0595 426.8705 L309.0102 427.6946 L311.7986 428.7628 L312.9358 429.1127 L311.281 430.8113 L310.3313 432.1235 L308.4579 436.348 L307.9429 437.3195 L307.6879 437.6921 L307.167 438.7602 L306.9508 438.6983 L307.2088 437.5955 L306.927 437.5617 L306.5404 437.7244 L306.5886 437.3528 L305.375 436.7654 L303.7199 436.0476 L301.9702 435.2595 L298.1095 433.4343 L297.264 432.2363 L296.1365 431.7131 L294.2628 431.0105 L289.4899 429.121 L289.2922 428.9768 L289.1803 428.8566 L289.0763 428.6911 L288.6721 428.5673 L288.4412 428.8927 L288.3043 428.8501 L288.7073 428.1989 L288.7884 427.7501 L288.7837 427.3632 L288.7358 426.9431 L288.6451 426.5659 L288.5087 426.2516 L287.757 425.1862 L285.3936 423.1866 L283.8633 421.2513 L283.0801 420.9744 L282.9723 421.0141 L282.3404 420.8685 L281.7614 421.0451 L279.8927 423.4191 L278.4124 425.2148 L277.5693 425.304 L277.0825 425.4566 L275.7194 425.6854 L274.9956 425.9502 L274.0208 427.359 L273.2644 427.7043 L272.7776 428.0353 L271.841 428.3537 L271.5966 428.4425 L271.4776 428.4855 L270.4888 429.017 L270.0631 429.298 L269.656 429.5666 L268.5147 430.5404 L268.1169 432.0292 M337.1652 390.228 L337.6585 389.511 L338.3162 389.8845 L338.8415 388.5494 L339.7504 389.3168 L340.6773 389.1074 L341.32 388.1218 L342.7548 387.6577 L343.3377 388.0913 L344.578 385.924 L346.3415 386.8209 L345.6987 387.8518 L346.4461 388.659 L344.3838 391.1397 L344.8767 391.7379 L345.8932 390.6168 L346.1323 390.1088 L346.8644 389.7801 L347.253 390.4374 L346.5656 390.7661 L346.6106 391.5432 L345.5941 392.7392 L343.5318 392.8289 L343.4869 391.7078 L341.7087 391.2146 L341.32 391.7379 L340.7222 391.7379 L340.3785 390.841 L338.1817 390.7366 L337.1652 390.228 M392.2823 443.15 L392.6334 442.4813 L393.1014 441.4446 L394.3052 438.7523 L393.854 438.2675 L394.3387 436.9133 L393.8038 436.1608 L394.3052 433.3183 L395.5259 431.7297 L395.5593 430.9606 L395.4938 430.216 L396.3422 429.677 L396.5123 428.9708 L397.4824 428.7702 L398.1011 428.2853 L399.3217 429.188 L399.9069 429.8906 L400.8766 430.4924 L402.4985 431.3451 L406.1936 432.7831 L406.1604 433.6026 L404.6889 433.5688 L402.9333 433.8198 L403.8696 434.3046 L403.5684 435.358 L404.6386 437.4984 L406.5449 438.3345 L405.809 441.2939 L407.7987 441.7787 L407.6483 443.4343 L408.1668 445.3736 L406.3275 446.2434 L405.391 448.6508 L402.8998 447.5305 L399.9903 446.2767 L394.8907 444.153 L392.2823 443.15 M394.1498 411.5332 L394.8293 410.139 L399.1454 412.001 L403.2006 413.115 L404.9932 413.5499 L406.9251 413.6544 L409.814 414.3505 L410.5103 415.8824 L412.6163 418.6147 L411.1818 420.153 L410.8052 418.9725 L410.1383 417.4457 L408.9976 416.0336 L407.4903 415.6758 L404.9853 414.7005 L404.0117 414.4046 L402.9941 414.4823 L402.2332 414.2207 L400.6742 413.5509 L398.4054 413.3729 L395.3164 411.9076 L394.1498 411.5332 M396.062 424.7577 L397.0558 424.2525 L402.5799 425.4912 L403.688 423.2425 L404.5928 424.3703 L406.2465 423.8453 L408.6745 424.7253 L409.9292 425.0184 L410.371 425.176 L411.2588 422.3218 L415.3487 423.4182 L417.1936 423.2961 L418.8642 423.6793 L420.6366 425.2204 L421.7552 425.7741 L422.6365 426.1809 L424.1504 426.3616 L425.9582 427.1298 L427.4309 427.5772 L427.0093 428.5871 L424.8163 428.0648 L424.9382 430.9366 L425.5472 431.5633 L425.2864 432.3463 L423.3196 431.1977 L420.0475 429.5619 L419.1254 431.372 L416.4383 432.2843 L416.3049 432.7396 L414.8545 432.2423 L413.4115 430.9634 L411.5596 429.6206 L409.0578 428.6777 L408.7861 428.5756 L407.4853 427.9558 L406.6328 427.1233 L406.4066 426.9024 L406.0673 428.9292 L402.629 428.2285 L400.869 426.4198 L396.9909 425.7681 L396.2573 425.7681 L396.062 424.7577 M406.4368 460.3846 L407.5014 459.3304 L408.2526 458.8923 L409.7553 459.0591 L413.3137 463.254 L409.8701 463.7864 L406.4368 460.3846 M408.4759 457.9185 L408.8428 457.4943 L409.0749 457.6061 L409.4997 457.6463 L409.8672 457.4559 L410.3642 457.2179 L410.71 456.7807 L411.0893 456.319 L411.3739 455.8033 L411.4926 455.5135 L411.7341 455.6115 L411.9574 456.0856 L411.6589 456.6786 L411.1254 457.2863 L411.0194 457.5618 L411.017 458.0974 L410.7779 458.4029 L410.3672 458.6021 L409.6877 458.8516 L408.9115 458.7185 L408.7456 458.426 L408.4759 457.9185 M412.9309 501.5698 L413.1113 501.3692 L414.6668 500.3416 L414.7931 500.2557 L414.9212 500.4151 L415.0505 500.5819 L414.8866 500.6729 L414.8287 500.8725 L413.8496 501.4556 L413.705 501.6358 L413.8184 501.7971 L413.2497 502.1261 L413.081 502.0106 L412.97 501.8641 L412.9559 501.7583 L412.9309 501.5698 M415.0584 459.3101 L415.6742 458.7153 L417.2705 457.797 L417.7194 456.8057 L418.3454 456.3361 L420.4221 457.7656 L421.4759 457.9638 L424.544 458.7047 L424.5334 459.8212 L423.4691 461.5538 L421.8933 462.7535 L418.7837 460.5103 L417.0514 461.8352 L415.0584 459.3101 M418.9174 503.3921 L419.0229 503.241 L419.2479 503.1177 L419.4794 503.0719 L419.6988 503.0941 L419.8184 503.2212 L419.8137 503.4448 L419.6151 503.7114 L419.4127 503.8181 L419.1985 503.8352 L419.0243 503.7271 L418.9386 503.5954 L418.9174 503.3921 M419.3131 504.3047 L420.1433 503.2849 L421.9007 504.715 L421.0707 505.7352 L419.3131 504.3047 M419.5455 452.3394 L421.3196 450.9307 L422.1125 448.5515 L422.9474 448.729 L423.2291 449.7933 L424.4186 449.7203 L425.7858 450.7324 L426.1404 454.3429 L423.3959 455.6267 L421.1316 455.1673 L419.5561 454.4159 L419.5455 452.3394" stroke-dasharray="" fill="none" fill-opacity="1.0" stroke="#ff0000" stroke-opacity="1.0" stroke-width="1.0px" stroke-linecap="butt" stroke-linejoin="miter" stroke-dashoffset="0.0px"/>
</g>
</svg>