<?xml version="1.0" standalone="no"?>
<!DOCTYPE svg PUBLIC "-//W3C//DTD SVG 1.1//EN" "http://www.w3.org/Graphics/SVG/1.1/DTD/svg11.dtd">
<svg width="512px" height="512px" version="1.1" xmlns="http://www.w3.org/2000/svg" xmlns:inkscape="http://www.inkscape.org/namespaces/inkscape">
<g id="layer" inkscape:groupmode="layer" inkscape:label="layer">
<path d="M55.8111 211.1416 L71.8478 229.147 L95.785 230.1217 L98.1384 228.0185 L114.8138 246.6908 L113.5699 247.8193 L115.15 249.5635 L116.3603 248.4862 L133.8426 268.0818 L133.1366 268.8513 L134.0779 269.8259 L129.5393 274.0836 L133.0021 277.8796 L137.6416 273.7246 L138.5494 274.5453 L139.1209 273.981 L145.1725 280.3419 L139.0537 286.0872 L138.6839 291.8325 L153.9808 308.9659 L159.4609 309.2223 L163.7642 304.7082 L168.5046 310.6587 L167.5968 311.3768 L168.4373 312.4028 L163.7306 316.3014 L166.2857 320.7643 L171.7657 317.8916 L172.3036 319.0714 L175.363 317.5838 L189.7523 332.46 L185.9869 335.6405 L185.617 343.6429 L204.1079 363.5462 L211.9749 363.7514 L215.7067 360.3145 L229.8606 375.1394 L227.1711 379.7048 L228.0452 380.2691 L224.7504 385.7066 L229.0538 388.6818 L232.8864 383.8086 L233.8614 384.219 L235.6096 381.3463 L241.8965 388.2202 L236.282 393.6064 L235.7441 399.3004 L251.7471 417.4595 L257.3616 417.4595 L264.926 410.2779 L275.8861 422.6406 L273.7344 424.8976 L274.6085 425.7184 L270.1371 430.0786 L273.5663 434.0285 L278.3067 429.7709 L279.2817 430.7968 L281.3997 428.591 L314.616 465.884 L304.1267 475.1688 L303.1517 496.2005 L317.0703 511.3844 L336.8387 512.0 L352.7409 498.5602 L379.5022 505.0236 L378.9979 509.0761 L379.4013 509.589 L383.8391 510.2559 L384.3434 509.8455 L385.3184 504.2542 L398.5982 493.174 L400.5482 495.4824 L401.2542 495.6363 L404.3136 493.1227 L404.3472 492.3533 L402.3972 489.9936 L418.6356 476.5025 L420.5855 478.8109 L421.2243 478.8109 L424.2837 476.2973 L424.3846 475.6304 L422.4346 473.3221 L442.9763 456.1889 L448.5572 456.2402 L448.9942 455.7272 L449.0615 451.213 L448.658 450.7514 L444.5228 450.4949 L442.8082 418.0238 L447.3805 415.2538 L451.1795 411.5091 L454.0708 407.0462 L455.113 404.2762 L456.1889 398.4796 L456.1889 395.5557 L455.8527 392.6317 L455.1803 389.7591 L454.3061 387.3481 L453.1967 385.091 L450.2045 380.936 L439.379 374.0621 L436.723 373.344 L433.9662 372.9849 L431.243 372.9849 L425.8302 374.1134 L423.3087 375.1907 L412.0461 350.0037 L413.29 349.4907 L415.946 342.1552 L410.466 325.9453 L403.1033 321.9954 L401.9602 322.4571 L398.4637 313.8904 L380.1073 282.1373 L382.4943 280.8036 L382.6288 271.724 L373.4506 259.6178 L364.9112 257.8223 L364.1043 258.5405 L350.0849 236.7391 L358.3217 231.2502 L359.0278 225.2484 L352.4719 223.3504 L346.7902 227.0438 L330.8544 204.0113 L336.7042 200.0613 L337.4775 193.2388 L330.8544 191.5459 L325.3408 196.0088 L309.1696 172.1554 L314.7169 168.4107 L316.1289 161.742 L308.9679 160.2544 L303.5888 163.9478 L298.6803 156.92 L299.9915 155.9967 L298.6803 154.15 L297.3691 155.0733 L289.7038 144.1982 L295.3183 140.4535 L296.3941 134.1439 L307.724 125.3207 L311.8928 124.2947 L319.1211 132.6562 L323.6934 128.1933 L317.2384 120.2422 L325.0382 103.4165 L335.1913 103.1087 L335.0232 96.2861 L323.8279 96.2348 L303.8913 68.534 L307.2869 57.7102 L300.9664 56.0173 L297.8062 65.5074 L280.0213 67.8158 L277.7016 63.712 L295.4864 47.6045 L296.8648 23.6997 L280.7273 6.1045 L256.9582 4.8733 L254.3022 7.1304 L255.647 1.3337 L250.0661 0.0 L245.4602 3.3344 L245.83 4.2064 L245.83 5.1298 L245.4602 6.0019 L244.8214 6.72 L243.9473 7.0791 L243.006 7.1304 L242.1318 6.8226 L241.4258 6.2071 L236.7863 9.4901 L234.6683 15.1842 L240.3836 17.39 L240.5517 16.4666 L242.5689 18.1082 L239.4086 21.0322 L239.1733 28.8294 L185.3817 28.6243 L185.4489 19.8523 L173.2786 6.72 L155.7627 6.0019 L142.8863 18.3134 L142.2812 36.3702 L148.1982 42.7825 L145.6095 45.1422 L133.9771 38.3709 L134.3133 30.0606 L125.8411 29.7015 L118.5792 36.3189 L123.6558 41.9104 L107.1149 57.0946 L102.0383 51.5031 L94.8437 58.0692 L94.373 66.1743 L102.509 66.636 L108.2243 78.8449 L105.7701 81.3585 L99.3487 75.1001 L81.3285 74.5872 L67.9815 86.6421 L67.0738 104.4938 L79.0424 117.8825 L87.4473 118.3955 L86.7413 126.5005 L85.094 126.3466 L84.9259 128.655 L86.5732 128.8089 L83.3793 166.3588 L81.6984 166.2049 L81.5303 168.6159 L83.2112 168.7185 L83.0095 170.9756 L74.9072 170.873 L57.2232 187.1856 L55.8111 211.1416 M148.9715 111.7268 L149.812 110.393 L152.0981 110.6495 L170.8916 91.7206 L171.295 89.5148 L173.0096 87.9246 L173.5139 88.4376 L187.8696 75.1514 L187.3653 74.6385 L192.2737 70.0729 L213.4878 76.8956 L225.3556 90.4382 L228.8184 112.4962 L226.1288 114.9072 L225.6245 114.3429 L210.9663 126.757 L211.437 127.27 L206.2259 130.3991 L204.2424 130.3991 L183.4318 146.917 L183.1628 149.0202 L182.0533 149.8923 L161.9823 144.3008 L150.6189 131.1686 L148.9715 111.7268 M159.36 216.374 L168.202 209.6027 L168.7399 214.0143 L176.1026 213.1422 L174.9932 204.1138 L190.9626 191.392 L199.4348 194.4186 L201.9226 187.2369 L197.8882 185.698 L206.5285 178.9267 L208.6466 179.3371 L229.7598 162.5628 L229.8943 160.1518 L231.6425 159.0232 L255.2772 194.6751 L253.5289 195.8549 L255.7142 199.1893 L257.4625 198.0094 L314.6497 284.3944 L304.1939 292.2942 L303.1853 290.9092 L301.5043 290.6527 L299.6553 292.089 L299.4535 293.7818 L300.4621 295.1156 L294.0408 299.9888 L292.9985 298.6551 L291.2167 298.4499 L289.334 299.9375 L289.4685 301.3226 L290.4771 302.7076 L281.2316 309.684 L280.223 308.3503 L278.5084 308.0425 L276.6257 309.4788 L276.3904 311.2229 L277.399 312.608 L270.944 317.4812 L269.9018 316.1475 L268.1535 315.891 L266.3045 317.3273 L266.0355 319.0714 L267.0777 320.4565 L256.5547 328.4076 L216.0093 283.3172 L217.7911 275.4687 L208.6129 265.517 L203.2002 265.9786 L196.2745 258.1814 L197.7538 257.0016 L196.14 255.1549 L194.6944 256.4373 L183.499 243.7668 L186.2894 241.2533 L183.23 237.765 L180.406 240.2786 L169.2778 227.6594 L170.6562 226.377 L169.0761 224.6329 L167.6641 225.864 L159.36 216.374" stroke-dasharray="" fill="none" fill-opacity="1.0" stroke="#ff0000" stroke-opacity="1.0" stroke-width="1.0px" stroke-linecap="butt" stroke-linejoin="miter" stroke-dashoffset="0.0px"/>
</g>
</svg>