<?xml version="1.0" standalone="no"?>
<!DOCTYPE svg PUBLIC "-//W3C//DTD SVG 1.1//EN" "http://www.w3.org/Graphics/SVG/1.1/DTD/svg11.dtd">
<svg width="512px" height="512px" version="1.1" xmlns="http://www.w3.org/2000/svg" xmlns:inkscape="http://www.inkscape.org/namespaces/inkscape">
<g id="layer" inkscape:groupmode="layer" inkscape:label="layer">
<path d="M63.3374 350.463 L63.4568 351.252 L64.3584 353.7671 L64.5045 354.0249 L65.2136 354.9641 L65.9084 355.8768 L66.2112 356.1171 L66.4423 356.5024 L66.4464 356.5218 L66.4883 356.5809 L67.0368 356.0818 L67.5215 355.2813 L67.885 355.529 L67.3943 356.2692 L67.0762 356.7517 L67.1528 357.1157 L67.8635 358.0267 L67.8881 358.2656 L67.9962 359.1641 L67.7804 360.2073 L66.8162 361.8771 L66.3699 362.8349 L66.3418 363.6474 L67.2178 365.6492 L67.5122 366.0665 L68.8523 367.1471 L69.8824 368.1276 L69.957 368.3227 L70.1108 368.8484 L70.611 369.2771 L70.9639 369.7084 L71.4664 370.1082 L72.2849 371.2408 L72.3756 371.4501 L73.4151 372.6815 L73.7471 372.9641 L73.9825 373.119 L74.5677 373.3647 L75.1914 373.6225 L75.4333 373.8203 L76.3653 374.7088 L76.5964 375.0273 L76.8186 375.1992 L77.1366 375.686 L77.9738 376.9537 L79.1505 377.4998 L79.2977 377.606 L80.1776 378.1721 L80.8366 378.4857 L81.6002 378.6321 L82.4066 378.8447 L82.9209 378.8871 L83.2171 379.0338 L84.3911 379.5463 L85.805 379.9165 L87.015 380.1261 L87.8889 380.5723 L89.2939 380.9165 L89.7788 381.7467 L91.8984 383.0428 L92.7035 383.7356 L93.2294 384.1512 L94.6285 385.9475 L94.9291 386.3614 L96.0792 387.4452 L96.3624 387.9199 L96.5497 388.3992 L96.8457 389.0075 L97.0777 389.5484 L97.3486 390.153 L97.8394 391.7588 L98.1038 392.2362 L98.4116 392.5566 L99.085 392.9585 L99.4361 393.214 L99.527 393.2813 L99.864 393.5147 L100.7635 393.8006 L101.8374 393.9207 L103.3651 394.3527 L104.6284 394.6271 L105.5065 395.0044 L105.7337 395.1281 L106.8826 395.8643 L107.9577 396.6361 L108.7475 396.9731 L109.2317 396.8626 L109.8319 396.8924 L110.9806 397.1775 L111.5986 397.5616 L112.5424 398.3312 L113.0228 398.4899 L113.5428 398.4595 L114.1599 398.7298 L114.8865 399.4958 L115.3674 400.365 L115.7827 400.536 L116.665 400.6996 L117.3473 400.4624 L117.9079 400.6747 L118.7548 401.4755 L119.1834 402.2568 L119.2726 402.3996 L119.929 402.9339 L120.9945 403.4466 L122.7148 404.1376 L123.7622 404.8954 L124.3668 405.2702 L124.7098 405.6006 L125.9404 407.3126 L126.8679 408.0045 L128.053 408.7182 L128.7483 408.9034 L130.1891 409.18 L131.3585 410.0056 L132.6371 410.4777 L133.253 410.8509 L133.4374 411.0497 L134.2575 412.4301 L135.0317 413.8039 L135.4898 414.7651 L136.0793 415.5828 L136.8864 416.4907 L137.542 417.0151 L138.3288 417.7041 L138.9664 419.0934 L139.6545 420.2363 L139.9795 421.4327 L140.4847 422.4046 L140.8187 422.6863 L141.1377 422.9555 L141.8976 423.5061 L142.9033 424.4326 L144.7841 426.2923 L145.2309 426.8664 L145.5255 427.304 L146.0485 427.8486 L147.786 429.1851 L148.0704 429.3861 L150.6239 430.3497 L151.658 430.8699 L152.4715 431.3395 L153.9141 432.2796 L154.7053 432.6097 L155.8357 432.8636 L156.2776 432.8108 L157.5618 433.0534 L157.8941 433.2629 L158.1488 433.5214 L158.4099 434.4595 L158.7871 434.9477 L159.3759 435.1985 L160.3343 435.3615 L160.9823 435.3736 L161.4834 435.158 L162.0604 434.7106 L162.5535 434.4401 L163.1956 434.2492 L163.977 434.3548 L165.8271 435.3583 L167.2756 435.9654 L168.3277 436.4162 L168.7242 436.6905 L169.5227 437.6048 L170.2582 438.3444 L170.5378 438.7368 L171.3527 440.1992 L171.4839 440.6456 L171.7236 442.2822 L171.9478 443.4475 L172.3133 443.7894 L172.8211 443.994 L174.4795 444.4846 L176.3177 445.0682 L177.8487 445.5444 L178.579 446.0449 L179.3452 446.7803 L180.497 448.3976 L181.3032 449.6611 L181.9793 450.2931 L182.6087 450.7837 L182.8698 451.2027 L184.3827 449.1757 L185.9953 449.4459 L186.4619 449.7784 L186.7782 449.9803 L187.0576 450.5849 L187.2905 450.9046 L187.8219 451.4376 L188.0575 451.9053 L188.1202 452.7158 L188.8311 454.0132 L189.6414 454.9129 L190.5866 456.1593 L190.8421 456.5034 L191.4878 457.2373 L191.9907 457.8619 L192.1874 457.9445 L192.3223 457.5608 L191.4512 456.7402 L191.4473 456.5075 L191.1089 456.3111 L191.2819 456.0382 L191.7683 456.4271 L191.7342 456.546 L191.7959 456.6428 L192.0546 456.6458 L192.2712 457.0653 L192.8341 457.5896 L193.1504 457.872 L193.7722 458.1359 L194.0144 458.0659 L194.354 458.1955 L194.477 458.4302 L194.6525 458.5748 L195.1543 458.5932 L195.3944 458.8874 L195.5674 459.0091 L196.5214 459.2287 L197.1486 459.9287 L197.6592 460.0512 L198.0281 460.2995 L198.9558 460.2391 L198.7634 458.7307 L200.2599 459.1114 L200.3845 457.5376 L200.5787 457.5507 L200.9054 456.5695 L201.2563 456.546 L201.5908 457.6541 L203.2907 457.7733 L203.3628 457.7963 L203.6636 456.8788 L203.8511 456.2523 L203.8253 455.1546 L203.8675 452.6398 L203.886 451.0208 L203.8602 450.3891 L203.2759 448.3867 L202.6409 446.0897 L202.8143 445.9382 L202.92 444.9988 L203.008 443.4508 L202.9925 442.7597 L202.7956 442.3246 L201.9646 441.189 L202.4592 440.6716 L202.7277 440.3959 L203.0223 440.2709 L203.8406 440.2635 L204.1733 440.3445 L204.6505 440.7063 L205.0859 441.1748 L205.0367 442.4293 L205.5842 442.4304 L206.0013 442.373 L206.3715 442.1692 L206.6701 442.1419 L206.8774 442.2685 L208.0124 442.6112 L208.5436 441.5812 L209.0233 441.9346 L208.9013 442.2554 L209.5783 442.4466 L209.7479 442.0535 L210.1539 442.457 L210.4493 442.5696 L210.6586 442.3098 L211.0665 442.6153 L210.5939 443.741 L211.2972 444.0 L212.2109 444.1069 L212.6074 443.1669 L213.0216 443.2156 L213.6731 443.6546 L214.0494 443.814 L214.3545 444.1504 L214.1098 444.4975 L213.9261 444.8598 L213.929 445.4727 L213.9655 445.9396 L213.8855 446.431 L213.6959 446.5762 L213.2577 446.4138 L213.1793 447.4322 L213.8058 447.3475 L214.485 447.2124 L215.0194 446.9498 L215.6563 446.5092 L216.3959 446.4143 L216.8218 446.7015 L216.9205 446.4417 L217.1885 445.4224 L217.9083 445.7063 L218.4613 445.217 L219.2942 445.0797 L220.1526 445.086 L220.9985 444.8801 L221.7144 444.3572 L222.4719 444.3435 L222.7892 444.2628 L223.3455 443.9056 L223.7206 443.9245 L224.1761 444.111 L224.6555 444.2472 L224.9135 444.1854 L225.1297 443.9335 L226.0931 443.9694 L228.2005 444.445 L228.6881 445.2468 L229.0449 445.9737 L230.1734 446.5492 L230.7396 446.6397 L231.4581 446.8536 L231.901 446.8656 L232.4033 446.7942 L233.1274 447.4703 L233.1944 447.758 L233.2152 448.2054 L233.0007 448.7904 L232.7015 449.3217 L232.0531 449.9286 L231.5658 450.3768 L231.2612 450.7939 L230.2941 451.6712 L229.6477 452.2895 L229.5577 452.9382 L229.7809 453.1345 L229.8666 454.2631 L230.0879 454.9648 L230.6968 455.3502 L231.2174 455.7713 L231.5871 456.1331 L232.4283 457.3656 L234.3499 459.1138 L234.7068 459.7715 L235.6613 460.9826 L235.807 461.08 L236.9796 461.596 L239.6253 462.6912 L241.1081 463.2843 L241.6322 463.5862 L242.535 464.2091 L243.2084 464.6228 L244.4192 465.1544 L245.3121 465.8254 L245.7514 466.4054 L246.9482 467.3781 L247.7249 468.4426 L247.9619 468.7786 L248.3096 469.2473 L248.77 469.6807 L249.3301 469.9861 L250.0622 470.6618 L251.2815 470.7351 L251.7004 470.3782 L251.8337 469.7173 L251.9414 469.471 L252.3555 469.6025 L252.2486 470.4474 L251.7997 471.589 L251.5445 471.8559 L251.2934 472.2737 L251.8692 473.001 L252.2662 473.3633 L252.8351 473.6966 L253.0083 474.3638 L253.1188 474.6539 L253.8204 475.2582 L253.9211 475.8991 L254.3274 476.3199 L254.5239 476.6332 L254.4477 477.1945 L254.4487 477.8207 L254.5959 478.6412 L254.8819 479.5717 L255.0983 479.771 L255.6108 480.0037 L256.2067 480.0209 L256.4797 479.9446 L257.4814 479.3953 L258.703 479.1345 L260.5113 479.0678 L261.5393 479.211 L263.6106 479.3846 L264.3199 479.9681 L264.7073 480.2681 L265.1229 480.396 L266.2851 480.8718 L266.9202 481.7048 L267.1015 482.1046 L267.2916 482.9631 L267.0555 484.3326 L267.1387 484.6087 L267.339 484.8436 L268.0538 485.4134 L268.2853 485.835 L269.1599 487.6244 L269.3319 486.8023 L270.0991 486.9906 L271.4048 487.71 L272.3514 487.9629 L273.1121 487.9503 L273.6888 488.2029 L274.9398 488.8435 L275.6298 489.7115 L276.3157 490.4844 L276.6285 490.935 L277.0134 491.2871 L277.2135 491.6108 L277.5081 492.6453 L276.7495 493.2979 L276.9445 494.0319 L277.4955 494.6408 L278.2584 493.8704 L279.5115 495.0703 L278.8259 495.9243 L279.838 496.6734 L280.536 497.1253 L281.3581 497.2899 L281.8545 497.7554 L282.3391 498.2883 L283.3304 498.8175 L284.829 500.1087 L285.1843 499.7899 L287.5044 502.0089 L288.8377 503.5597 L288.7618 503.972 L289.7291 505.5176 L290.377 506.3527 L290.704 506.9054 L290.9243 507.5145 L291.1394 507.9746 L291.3033 508.2512 L291.7478 509.1016 L292.1434 510.3995 L292.5116 510.5138 L293.0346 512.0 L293.5318 511.3461 L293.6897 510.9345 L294.4998 509.8739 L295.077 508.5628 L299.7574 507.0361 L303.3252 505.7644 L306.3561 504.5343 L307.0317 505.5077 L307.4022 506.0588 L307.644 506.4005 L307.8401 506.6857 L308.7534 507.9248 L309.2698 508.6328 L309.5617 508.5188 L309.7037 508.4415 L309.8689 508.372 L309.9792 508.3042 L309.9839 508.2343 L310.1059 508.2269 L311.1985 507.6206 L311.5818 507.4995 L311.6615 507.4503 L312.2763 507.172 L312.6794 506.9538 L313.4011 506.8068 L314.8387 506.5137 L315.4965 506.4172 L315.5209 506.5894 L317.0645 506.3672 L318.5251 505.8287 L318.061 503.3708 L317.8359 502.2711 L317.2354 501.0179 L319.4221 500.1623 L318.4238 497.9583 L317.6351 495.997 L316.7671 493.6604 L318.7644 493.3157 L318.0858 492.3995 L318.5161 491.6975 L318.6801 491.3057 L319.0435 490.4634 L319.5428 486.84 L319.5702 486.7011 L320.8285 486.6185 L320.9328 484.9502 L321.2521 484.9439 L321.5697 483.3284 L321.6479 482.5144 L321.5478 480.4428 L323.1178 480.9707 L324.0004 481.0279 L323.9649 480.7536 L325.3567 481.3923 L326.2351 481.704 L326.7116 482.0827 L327.2701 482.842 L327.7875 483.0437 L328.8636 483.5014 L328.6808 482.5464 L329.6652 481.5498 L329.9812 480.717 L330.5099 479.7065 L331.3314 478.4498 L332.0727 478.2007 L332.4639 477.8538 L332.8348 477.5153 L333.2452 477.1289 L333.6164 476.8153 L334.4224 476.1561 L334.3771 475.3946 L334.8741 475.1163 L335.1748 474.8893 L335.4177 474.8346 L335.8429 474.5825 L335.093 474.0534 L334.3643 473.762 L333.6777 473.6674 L332.8342 473.8156 L332.962 473.0833 L333.4569 472.7336 L333.8316 472.7426 L334.7241 473.0705 L335.0614 472.4492 L335.7933 472.8386 L336.0635 472.1785 L336.1779 471.8736 L336.4238 471.0555 L336.6779 469.9705 L335.8247 469.955 L335.1527 469.9344 L333.8605 469.5172 L332.9636 469.2913 L331.1194 468.4811 L328.1253 467.2528 L325.5959 466.4336 L324.283 465.8484 L324.9292 464.2911 L324.368 464.1883 L324.5912 463.7388 L325.6672 462.5733 L326.6904 461.7032 L327.132 462.0414 L327.4421 461.8525 L327.8646 461.4852 L328.3041 461.0321 L328.6924 460.8366 L329.4875 460.4048 L329.6263 460.375 L329.5542 460.2708 L328.5883 459.9271 L327.1636 459.378 L326.8537 459.3099 L326.537 459.32 L325.6224 459.55 L325.61 459.2393 L325.6779 458.909 L325.7983 458.6747 L325.9952 458.1906 L326.5979 457.2064 L327.3437 456.4878 L328.1218 455.1524 L328.7171 455.4623 L329.2927 454.4565 L329.6659 453.737 L329.9425 453.0746 L329.4481 452.8206 L329.618 452.2476 L329.7821 451.5213 L330.511 450.9555 L332.041 450.6268 L332.9014 450.3555 L333.9687 449.8936 L335.5408 451.7352 L335.7921 452.1686 L337.7835 454.2366 L338.1029 454.6372 L338.5393 455.3567 L338.8314 456.5594 L339.6518 456.0385 L339.8181 456.2447 L340.0865 456.7506 L340.6874 457.4342 L343.8024 455.5148 L345.0044 454.5689 L345.858 453.6774 L345.9617 453.7941 L346.5601 454.1362 L347.8065 455.077 L348.7868 456.0139 L349.7359 456.639 L350.2839 456.8085 L351.6842 457.5496 L352.1823 458.2182 L352.832 458.9024 L353.4998 459.2109 L353.8532 460.0797 L353.859 460.6124 L354.6173 461.684 L354.8217 462.0915 L355.316 462.5979 L355.5598 462.931 L355.5609 463.2567 L355.9513 463.2517 L356.76 463.4265 L357.6785 463.7451 L358.136 463.8624 L359.1154 463.7224 L359.8031 463.1708 L360.1103 463.6556 L360.6216 464.6193 L361.0359 464.9873 L361.7368 465.3855 L361.2326 465.7932 L361.895 465.8107 L362.9598 466.0188 L363.6099 466.3803 L363.0131 467.587 L363.1826 467.7103 L363.5956 468.4718 L363.6769 468.7319 L363.7357 469.0387 L363.931 469.2768 L364.1582 469.4693 L364.2302 469.7767 L364.3942 470.1915 L364.7075 470.6046 L365.8143 469.2432 L366.6467 470.8135 L367.0446 471.3446 L368.0084 471.7151 L368.3389 471.9592 L368.9199 472.7188 L369.1683 473.3904 L369.6673 473.6225 L372.448 472.4435 L371.4201 471.6136 L371.1068 471.2371 L370.7787 470.5748 L370.5446 470.2407 L370.0476 469.7411 L369.9451 469.6252 L369.3324 468.9728 L368.773 468.4185 L368.6887 468.2216 L368.0768 467.2747 L367.8312 466.9274 L366.3744 465.1312 L365.6696 464.4527 L366.0092 464.0483 L366.0538 463.602 L366.2489 463.3201 L367.2547 462.3529 L367.9471 461.5766 L369.3923 460.4267 L369.5728 460.3258 L369.9266 460.2366 L370.0877 460.1727 L370.1848 460.322 L371.2642 460.0195 L371.8929 460.8842 L372.1106 461.1166 L372.2382 461.2818 L373.0694 460.8448 L373.151 460.7836 L373.4641 460.5845 L374.6194 459.7452 L375.6562 458.7731 L377.5079 457.2918 L379.342 455.9761 L379.9984 456.9691 L380.5305 457.7421 L381.3677 458.9426 L381.6072 459.4053 L381.7758 459.6517 L382.0208 460.0403 L382.34 459.5965 L383.2055 460.1393 L383.3345 459.7108 L383.3087 459.3933 L383.2463 458.5005 L383.19 457.5283 L383.2064 457.257 L383.3924 456.202 L383.4049 455.9583 L383.2807 454.8005 L382.758 454.6435 L382.7855 453.9741 L382.6739 452.5714 L382.4173 452.4719 L381.0829 451.8697 L380.1568 451.4166 L378.8414 453.0784 L378.4104 452.593 L378.0563 452.2971 L377.6238 452.0863 L376.9421 451.6627 L376.5939 451.4934 L376.1386 451.4518 L374.6344 451.1351 L374.3628 450.9656 L374.1951 450.7865 L373.9412 449.8834 L373.7122 448.51 L373.4866 447.4117 L373.3319 446.8399 L373.0863 446.2976 L371.264 443.9409 L369.7703 441.7948 L369.2879 441.2229 L368.7556 440.7501 L366.7832 439.2387 L364.0747 437.3589 L363.2784 436.7933 L360.9347 435.0623 L359.8426 434.1833 L359.3324 433.8671 L357.6311 433.1705 L355.7674 432.4694 L355.0145 432.301 L352.8561 431.7241 L352.0854 431.1757 L352.3104 430.8893 L353.2309 430.4769 L353.763 429.8114 L353.866 429.8757 L354.6802 428.5967 L356.5072 426.1495 L356.8208 425.6317 L357.786 424.5658 L357.3383 424.1516 L357.2198 424.2857 L356.942 424.0387 L357.0605 423.9046 L356.8509 423.7148 L357.5126 422.9697 L358.4216 423.819 L358.4307 423.854 L358.5932 423.6727 L360.5679 425.6394 L361.5933 426.6016 L364.4998 428.9493 L366.3202 430.4498 L365.5377 429.0029 L365.928 427.6347 L366.6412 424.9175 L368.2489 425.3702 L368.7575 425.6919 L369.5099 425.7064 L371.243 426.1872 L372.325 426.463 L374.9895 427.1766 L377.4741 427.9238 L376.8878 429.1727 L379.2203 430.1913 L380.4562 430.5636 L381.0245 428.3103 L383.0018 428.8667 L384.8578 429.4143 L386.1272 429.76 L387.5033 430.0773 L387.7891 430.1984 L390.9733 431.1998 L391.5129 431.1317 L391.9014 431.0384 L393.2497 433.5744 L394.6809 434.5254 L394.2405 435.0552 L395.0373 435.4646 L395.4869 435.6301 L395.7916 435.8451 L396.3091 436.245 L396.7817 436.6946 L397.7153 437.4177 L397.625 437.7481 L397.3311 438.5161 L397.586 439.4362 L397.5263 440.0723 L397.6319 440.4648 L397.8606 440.9552 L398.9503 442.2119 L400.1095 442.4135 L401.2625 442.3842 L401.6886 442.2907 L401.7437 442.4632 L402.1314 442.5942 L402.6926 442.9115 L403.7465 444.3347 L404.0331 444.9629 L404.3545 445.2911 L404.634 445.5362 L404.1867 446.0648 L404.1161 446.3476 L404.2236 446.6386 L404.4155 446.9443 L404.7304 447.2952 L405.1367 447.773 L404.8066 447.9784 L404.4878 447.8671 L404.436 448.0487 L404.2248 448.2781 L403.9489 448.3407 L403.1064 448.2215 L402.7359 447.9828 L402.1737 448.2117 L401.9523 448.3131 L401.8279 448.6903 L401.9119 448.7444 L402.4379 448.6684 L403.1901 449.2189 L403.0663 449.4136 L403.0727 449.5 L403.275 449.7095 L403.4302 449.9636 L402.8917 449.8501 L402.5639 449.7612 L401.1116 449.6573 L400.0233 449.5 L399.9388 449.6789 L400.3337 449.9772 L400.5974 450.1331 L401.4724 450.3298 L402.3045 450.5808 L402.6491 450.6642 L402.4768 451.0594 L402.8334 451.2125 L403.0301 451.3651 L403.4336 451.6906 L403.4541 452.0163 L403.7729 452.1765 L404.4793 452.4577 L405.3701 452.8258 L405.5806 452.7038 L406.3137 453.0779 L407.7837 453.6273 L408.1738 453.6779 L408.6295 453.6866 L409.0618 453.8825 L409.6196 454.2322 L409.9463 454.3859 L410.4558 454.602 L411.3749 454.833 L413.2252 455.4207 L413.1288 455.7705 L414.9023 456.4096 L415.3195 456.5315 L415.7399 456.7016 L415.4786 457.0115 L416.2586 457.3079 L416.6154 457.1088 L417.1251 457.3519 L417.2931 457.455 L417.9676 457.5762 L418.234 457.7175 L418.6801 457.8373 L418.9697 457.9144 L419.5528 457.974 L420.3121 458.1504 L420.7409 458.4939 L421.0727 458.6954 L421.6809 458.9044 L422.2863 459.2804 L422.3583 459.2957 L422.6915 459.3876 L422.8309 459.4365 L423.8001 459.7414 L423.9815 458.8918 L424.7257 458.3506 L425.2099 458.1469 L426.2185 457.7646 L426.7209 457.8102 L427.1322 457.8663 L427.0345 458.0823 L427.6342 458.1863 L428.03 458.2363 L428.2305 458.3842 L428.6797 458.3667 L428.9896 458.2645 L429.2291 458.0834 L429.2022 457.889 L429.237 457.6516 L429.2682 457.5368 L429.1657 457.2978 L429.2505 457.1197 L429.1924 456.82 L429.0946 456.4342 L428.9613 456.2395 L428.7849 455.8626 L428.5193 455.1984 L428.3894 454.9624 L428.6318 454.7288 L428.4855 454.4551 L428.8743 454.267 L428.784 454.0711 L429.8518 453.848 L430.3671 453.624 L430.5849 453.431 L430.9458 452.9064 L430.6788 452.5564 L430.2791 452.4016 L429.6657 452.2195 L429.0907 451.9058 L429.3583 451.4885 L429.7445 450.9864 L429.789 450.5409 L430.0239 449.9436 L430.4817 449.197 L430.6877 448.5472 L431.0032 448.1239 L431.3225 447.8397 L431.6144 447.5528 L431.7564 447.4106 L432.0603 446.8601 L432.3919 446.1769 L432.7601 446.009 L433.23 445.9423 L433.6614 445.9341 L434.2034 445.9171 L434.7945 445.8578 L435.3701 445.8474 L435.7766 445.8545 L436.103 445.8015 L436.5526 445.592 L435.1402 445.0464 L435.3154 444.7234 L435.5592 444.4378 L435.5281 444.1791 L435.0602 444.1572 L435.2118 443.4637 L435.3473 442.839 L435.6664 442.8404 L435.6718 442.181 L436.2554 441.9649 L436.5696 442.0795 L436.9575 441.2842 L436.0825 440.8789 L435.0931 440.4186 L435.2168 440.1068 L435.4537 439.786 L435.7381 439.5363 L435.8167 439.219 L435.6459 438.8049 L435.7924 438.5268 L435.7605 438.3501 L435.7343 438.2763 L435.6201 438.0996 L435.6019 437.7328 L435.6803 437.3677 L436.1871 437.5389 L437.0719 437.6138 L437.7104 437.7252 L437.9849 436.3812 L438.2271 435.9794 L438.488 435.6627 L438.6432 435.5018 L438.7323 435.1701 L438.663 434.6302 L440.115 434.0241 L440.6122 434.014 L440.7091 433.7547 L441.0008 433.6937 L442.0811 433.6045 L442.4332 433.7287 L442.6938 433.7205 L442.9602 433.7344 L443.0186 433.9114 L443.2672 433.93 L443.9576 433.9918 L444.8723 434.1059 L445.5146 434.2292 L446.5095 434.3485 L447.5265 434.3755 L448.6626 434.4144 L447.6596 434.0495 L447.3932 433.9598 L446.8231 433.6836 L446.6342 433.4667 L446.3709 433.2541 L446.1616 433.0821 L446.1911 432.9426 L446.4045 432.491 L446.2108 432.3838 L445.6858 432.3316 L445.2505 432.1628 L444.3252 431.9574 L443.1036 431.726 L442.4885 431.5802 L442.216 431.4807 L441.5411 431.3371 L441.4005 431.1495 L441.2145 431.3201 L440.4386 431.1508 L439.7062 430.7099 L439.197 430.3765 L438.6473 430.0324 L438.1708 429.6128 L437.5814 429.1758 L437.2885 428.827 L437.0343 428.6243 L436.9317 428.4668 L436.6371 427.8574 L435.9459 427.0105 L435.5807 426.6949 L435.1406 426.4126 L435.0317 426.4033 L434.211 425.8606 L433.6026 425.6221 L432.6717 425.3779 L432.1428 425.202 L432.1715 425.0961 L432.8971 424.6765 L433.2856 424.3833 L433.6016 424.1341 L433.8334 423.7383 L433.9288 423.4454 L433.9705 422.9924 L433.9501 422.151 L433.5449 422.0966 L433.5198 421.2008 L433.4403 420.8009 L433.1947 420.3583 L433.0787 419.9269 L433.0632 419.716 L433.3612 419.4348 L433.2562 418.813 L433.181 418.3201 L433.0784 417.531 L433.0796 417.3622 L433.5346 417.1822 L433.9849 417.0621 L434.6198 416.9319 L435.1532 416.863 L435.255 416.7899 L435.273 415.6044 L435.4462 415.6427 L435.2874 415.0496 L435.2243 413.8118 L435.1147 413.1594 L434.6164 412.8973 L434.5464 411.5676 L434.3705 410.3464 L433.9758 409.1387 L433.6996 407.4965 L433.5937 406.5105 L433.5287 406.084 L433.4296 404.8092 L433.4057 404.4019 L432.6655 404.0041 L431.7689 403.5967 L431.1042 403.2326 L430.9665 403.1259 L429.7586 401.9797 L429.1983 401.3967 L429.0684 401.3685 L428.2939 400.8241 L428.1645 400.7548 L427.4697 400.35 L426.9037 399.6988 L426.6407 399.3618 L426.1783 398.7271 L426.0569 398.7317 L425.6761 398.0035 L425.4907 397.1247 L425.0557 396.682 L424.6669 396.2172 L424.3037 396.0922 L423.4408 395.8643 L422.7384 395.638 L421.7511 395.5103 L421.6226 395.4651 L421.1393 394.5089 L420.6026 393.3032 L420.2907 392.4616 L420.1027 391.7837 L420.1152 391.0731 L420.3681 390.2909 L420.5199 390.0023 L420.27 389.8337 L419.9967 389.7185 L419.5333 389.8012 L419.2258 389.7314 L417.9992 389.1402 L418.3508 388.2091 L416.421 387.2175 L414.7781 386.4438 L414.7427 386.3119 L415.1564 385.1028 L415.6766 384.0708 L415.4387 383.9673 L415.1386 383.9424 L414.7202 383.5304 L409.6203 380.8788 L408.0931 379.384 L406.8612 377.5841 L406.4335 375.5877 L405.818 374.7031 L405.625 373.9777 L405.2899 373.3735 L404.8933 372.1011 L404.2441 370.5028 L403.9748 369.5333 L403.8288 368.7808 L404.2287 368.3257 L403.9434 367.9065 L403.8247 367.4851 L403.8889 367.1 L403.7624 366.1612 L402.7562 366.5183 L403.2735 365.4324 L403.7183 364.6254 L403.9783 364.3556 L404.4836 363.6438 L404.3082 363.0377 L403.7903 362.5988 L402.4158 362.0271 L402.0266 361.957 L401.499 361.9921 L400.2585 362.2362 L399.8436 362.3235 L397.7677 363.1513 L395.6148 363.9829 L395.2926 364.0915 L391.3276 364.762 L390.9245 364.7634 L391.1073 365.02 L391.2834 365.4368 L391.3358 366.1606 L391.2203 366.6934 L391.0039 367.0138 L391.5681 367.1329 L391.721 368.02 L392.2165 369.663 L392.264 370.3077 L392.3695 371.2416 L390.8015 371.8948 L389.5134 372.4541 L388.8584 372.9242 L388.0662 373.5306 L388.6185 374.6566 L388.8024 374.8569 L389.1303 375.2947 L388.6221 375.9612 L387.6881 377.1096 L385.2645 378.6455 L383.5111 379.7449 L383.5332 378.8181 L383.3458 378.796 L382.6538 378.3133 L382.0673 378.2214 L381.6872 378.1434 L381.2543 378.1341 L381.0763 377.9806 L380.7771 377.1173 L380.2997 377.1551 L379.8463 377.1014 L379.1467 378.2977 L378.6158 378.1292 L378.644 377.8145 L378.5232 377.6977 L378.4141 377.6355 L378.2293 377.629 L378.1921 377.3559 L378.0504 377.3762 L377.9994 377.6834 L377.4547 377.6117 L377.4172 377.8 L376.7212 377.7141 L376.7165 378.1278 L376.7689 378.7533 L376.6221 379.2839 L376.153 379.2918 L375.2269 379.2795 L374.75 379.2286 L374.6117 379.352 L374.2773 378.9084 L374.0898 379.0015 L373.6193 379.123 L373.5432 379.1654 L372.4966 377.5685 L371.5439 377.5644 L370.9058 377.6041 L370.0627 377.8512 L368.2726 378.0547 L367.5243 378.0255 L367.0787 377.9412 L367.2146 377.2125 L367.4183 376.9165 L367.4892 376.6743 L367.1744 376.2269 L366.4581 375.6143 L366.1848 375.1748 L366.3022 374.9477 L366.1714 374.2959 L366.1117 374.1134 L366.4874 373.8691 L367.2191 373.5861 L367.0106 373.1302 L366.6109 372.4541 L366.2652 371.5812 L365.1339 371.657 L364.8301 371.1798 L364.5391 370.4166 L364.8003 370.2374 L364.6249 370.0521 L363.9469 369.9208 L363.2193 369.7661 L361.8318 369.5346 L360.7754 369.4194 L360.7971 368.6127 L361.3378 368.2392 L359.6345 368.0518 L358.6401 367.7267 L358.5581 367.0508 L357.9572 366.8691 L357.5746 366.0353 L357.2711 363.7361 L357.6839 362.3256 L357.8419 362.0835 L357.928 361.8134 L358.2475 361.0627 L358.3983 360.8282 L358.5366 360.5606 L359.109 360.6183 L360.6009 360.7918 L361.6024 360.97 L361.8255 359.8239 L361.5477 359.1331 L360.5957 359.079 L359.6619 359.1028 L359.3574 359.2243 L359.0013 359.1307 L358.5651 359.1496 L358.2037 359.1345 L357.5484 358.7347 L357.1173 358.5716 L356.8985 358.461 L356.6779 358.3858 L356.0813 358.481 L355.014 358.2281 L354.9409 357.8724 L354.8818 357.2361 L354.796 356.582 L354.9644 356.5043 L355.2385 356.4277 L355.7045 355.9542 L356.1805 355.2703 L356.4052 355.0919 L355.6097 353.7501 L355.6741 353.7069 L355.0619 352.6984 L354.7641 352.2681 L354.8739 352.1491 L355.3096 351.431 L355.8435 350.2804 L356.4628 350.417 L357.3458 350.7966 L357.5523 350.5459 L357.9499 350.232 L358.0661 350.1978 L358.8253 351.0448 L359.0824 350.8716 L360.0041 350.8499 L360.9835 350.7903 L362.3218 350.7585 L362.247 350.0021 L362.628 349.6592 L362.9081 348.9328 L362.6847 348.785 L362.5098 348.5669 L362.4608 348.3937 L362.6374 348.0488 L362.5301 347.883 L362.3895 347.6172 L362.4879 346.9442 L362.9742 346.0684 L363.4896 346.2876 L364.0011 346.6065 L365.2811 347.3175 L365.727 345.9951 L366.0039 343.964 L366.6996 343.9673 L367.9323 343.7103 L368.5123 343.7043 L368.6773 343.3058 L368.2903 342.1965 L368.3184 341.2175 L368.3881 340.8816 L368.7336 340.1303 L368.8969 339.5525 L368.9432 338.7621 L368.9552 337.7702 L369.4178 335.2578 L370.3963 335.5104 L370.6207 335.4335 L370.7226 334.7958 L371.0418 334.9368 L371.7549 335.3648 L371.9895 334.8155 L372.2414 334.8743 L372.9102 334.5963 L373.1084 333.6856 L373.8554 333.6785 L374.3703 333.6194 L375.4224 333.2135 L375.7031 331.7693 L375.9784 330.6495 L376.0486 330.1109 L376.1504 329.5527 L376.3017 328.9757 L376.6695 327.7431 L377.8385 328.0007 L378.976 328.3831 L379.0271 329.5637 L379.393 329.651 L379.6615 329.7487 L380.6579 330.1744 L380.456 330.7426 L380.9437 331.3451 L381.2055 331.7474 L381.5215 332.0389 L381.6819 332.4178 L381.4803 333.0566 L381.0423 334.1854 L380.6495 335.3569 L380.5399 335.8507 L381.2479 336.267 L382.5107 336.8434 L382.4014 337.4089 L383.3235 337.2304 L383.8016 337.2151 L384.2136 336.2325 L385.298 336.4493 L386.2949 336.6921 L385.9568 337.7981 L386.5052 338.1213 L387.3176 338.5448 L387.3267 339.1395 L387.64 339.295 L387.7127 338.9849 L388.1168 339.1559 L388.2804 339.2422 L389.3135 339.6385 L390.1815 339.9943 L390.1473 340.464 L390.681 340.9115 L391.2663 340.0025 L392.0855 340.6731 L391.937 341.1625 L392.7177 340.2423 L395.409 337.2841 L397.2221 334.2612 L398.3357 332.643 L398.1485 331.621 L398.2384 331.6314 L398.0903 330.9213 L397.9162 329.9119 L397.8889 329.1983 L398.6465 329.2547 L399.3687 329.6247 L399.3919 328.8788 L399.1037 327.3137 L399.0716 325.6146 L400.0643 322.1352 L399.3972 320.7539 L398.6869 318.7381 L398.5948 315.5443 L398.444 315.5514 L398.4071 315.0252 L397.6553 313.4993 L397.033 312.8426 L396.6669 310.9137 L396.6048 310.428 L396.5666 310.0114 L396.8386 309.5131 L397.1151 309.3015 L397.2547 308.7657 L398.3729 308.6269 L398.4754 308.6059 L399.1428 308.5295 L399.0255 307.896 L398.281 308.0411 L397.8253 306.9772 L396.9783 307.3093 L396.5108 306.1669 L396.658 303.4346 L396.5392 302.5125 L396.1876 301.1401 L396.1434 301.0421 L397.4569 299.4941 L398.5292 298.4874 L399.0904 297.2638 L398.8858 296.1243 L399.0057 295.1633 L400.1325 293.8505 L400.9423 293.4976 L401.6947 293.5211 L402.4267 293.3168 L402.9009 293.347 L404.1845 292.9067 L404.9451 292.5275 L404.8968 292.41 L404.5315 291.6319 L403.9903 291.233 L403.0964 290.98 L402.0872 290.8554 L402.2476 289.5513 L402.4055 288.0976 L401.6925 287.947 L401.677 287.2571 L401.7777 286.483 L402.0619 285.9006 L402.0368 285.678 L401.8834 285.5482 L400.802 285.5759 L400.3292 285.6331 L400.3975 284.6197 L400.5951 283.6403 L399.2907 283.2331 L398.5251 283.1071 L395.8629 282.9596 L395.6678 282.9078 L395.6663 282.5012 L394.8402 282.206 L394.9198 281.3511 L395.0366 279.9185 L395.3247 278.238 L395.4756 277.5828 L395.1668 277.5165 L395.1385 276.976 L395.3103 275.1284 L392.9246 274.4564 L391.9839 274.1892 L390.4301 274.5662 L389.9568 274.6457 L389.7453 273.8912 L389.2554 273.3879 L388.9802 273.2004 L388.5902 272.7318 L388.7436 272.47 L388.8683 272.3024 L388.9665 271.6146 L389.0437 271.2733 L390.0347 270.7807 L391.3666 270.256 L391.2402 269.948 L391.1481 269.7669 L390.9141 269.7965 L390.9275 269.4988 L391.4473 269.3704 L391.4122 269.0569 L392.1142 268.8057 L392.8468 268.5081 L393.8451 268.4454 L394.8384 268.3868 L395.6464 268.412 L395.6809 267.7104 L395.7232 266.6804 L395.7278 265.9161 L395.6013 264.1651 L394.7356 263.9936 L393.9493 263.6743 L392.7006 263.1543 L391.4329 262.8719 L390.5066 262.7243 L389.7927 262.5145 L389.5869 262.4389 L388.1646 262.1678 L387.4675 261.9446 L386.8436 261.8764 L386.3583 262.0065 L385.5883 262.2697 L383.9269 262.7961 L383.0783 263.1554 L382.3638 263.3435 L381.236 263.8841 L380.6303 264.2319 L380.3116 264.5112 L379.9755 264.9414 L379.7433 264.0416 L379.1522 264.271 L378.5816 264.5033 L378.3336 264.5361 L378.0919 264.5246 L378.3325 264.2319 L377.9878 264.1579 L377.4466 264.0662 L376.8081 263.9501 L375.8959 263.8384 L375.7172 263.8534 L375.6865 263.8723 L375.259 263.9868 L375.7006 262.9061 L376.5814 262.1152 L376.9115 261.6973 L377.1323 261.1545 L377.1702 260.684 L375.877 260.273 L375.2925 260.0407 L374.9106 259.9074 L375.5366 258.5572 L373.1451 258.4063 L372.4968 258.0369 L372.494 257.8939 L372.4973 257.7682 L372.4763 257.6151 L372.4767 257.5548 L372.9817 257.4554 L373.6471 257.1098 L374.4394 257.0457 L375.0409 257.0865 L376.168 257.2309 L376.6212 257.304 L376.7121 257.3086 L377.7031 257.709 L378.6007 258.185 L379.3504 258.5057 L379.2046 259.0849 L379.2483 259.5097 L379.3573 259.5407 L379.4491 259.5732 L379.6077 259.5787 L379.9442 258.5983 L379.7875 258.03 L379.3896 257.1262 L379.1968 255.3543 L379.0683 254.975 L378.7308 254.5647 L378.5631 253.9479 L378.2576 253.3714 L378.14 252.4904 L378.1917 250.6597 L378.5344 250.6137 L378.477 250.1766 L378.2035 249.4341 L377.2936 249.4818 L377.1964 248.5678 L377.2046 247.4468 L377.1392 247.4429 L377.1234 246.9283 L377.2094 246.7949 L377.2611 246.6824 L377.6468 246.1836 L377.7877 245.6029 L377.7672 245.48 L377.6694 245.477 L377.9233 244.9229 L377.9454 244.6953 L378.0254 244.6114 L378.2992 244.3061 L378.5716 243.6183 L378.6338 243.4058 L375.8918 243.1543 L376.1416 242.3099 L376.6996 241.1631 L376.9616 240.3235 L377.2025 239.4169 L377.779 238.0608 L378.0276 237.5048 L378.2179 236.9506 L378.2241 236.7411 L378.6777 235.9142 L378.8782 235.4682 L379.0503 235.0242 L379.0344 234.2334 L379.1431 233.3928 L379.4076 233.0739 L378.2414 232.4754 L378.3492 232.0815 L378.6117 231.4455 L379.0649 230.9146 L379.2789 230.5826 L379.4901 229.9318 L379.8617 229.8121 L380.0511 229.1483 L379.964 229.1809 L378.8659 229.3467 L378.2772 229.4598 L377.4972 229.5411 L377.3971 228.252 L377.9235 227.8858 L378.9362 226.8871 L379.3794 226.2625 L378.9291 225.5053 L378.2338 225.2829 L377.1207 224.9432 L375.4247 224.3104 L374.9471 224.368 L374.7053 224.3592 L374.0773 224.1806 L371.5983 223.09 L370.2202 222.4501 L369.6954 222.1633 L369.172 221.8118 L367.8132 220.9837 L367.5243 220.8358 L367.3121 220.7706 L365.7733 220.4785 L363.601 220.0986 L360.4323 219.5523 L360.149 219.5299 L359.9296 219.5723 L359.7453 219.7222 L359.6409 220.0558 L359.4522 221.1409 L359.2825 221.6472 L358.8074 222.2104 L358.4247 222.5449 L357.9774 222.821 L357.3681 223.0659 L356.9356 223.1369 L356.4298 223.1185 L354.6597 222.3066 L352.7756 221.479 L351.6427 220.8497 L349.6757 219.7474 L349.3506 219.631 L348.875 219.5666 L348.0921 219.614 L347.1291 219.6781 L346.7631 219.6846 L346.4072 219.5488 L345.3943 218.9239 L344.3575 218.0905 L343.7771 217.71 L341.7439 216.6107 L341.5693 216.5649 L341.4412 216.5723 L341.3248 216.4041 L341.4219 216.2937 L341.4624 216.0937 L341.4426 215.8724 L341.3433 215.6031 L340.9898 215.205 L340.0367 214.2051 L339.6502 213.7577 L338.4646 212.0967 L337.327 210.4893 L337.1938 210.2447 L337.093 209.8324 L336.8675 208.1401 L336.5355 206.4924 L336.4741 206.271 L336.3604 206.0414 L336.2321 205.8839 L335.0671 205.1403 L334.527 204.8814 L333.8445 204.5883 L333.3375 204.4617 L332.5455 204.2195 L331.6331 203.5263 L331.1849 203.1707 L330.5667 202.6348 L330.6213 202.4247 L330.8861 201.1386 L331.0787 200.3725 L331.129 200.138 L331.2491 199.6434 L331.8698 199.8969 L332.9885 200.4298 L333.4818 200.8588 L333.3808 201.0098 L334.5958 201.7153 L334.8823 200.8101 L335.0085 200.5336 L333.5331 199.9777 L334.0323 198.9946 L335.3327 199.6977 L336.2463 200.2911 L336.339 200.1681 L336.8895 199.4771 L337.1922 198.8722 L336.1212 198.551 L336.4144 197.3077 L336.6758 196.0588 L336.8412 195.316 L336.7606 194.4557 L337.147 193.9126 L338.0694 192.0697 L338.2278 191.7047 L338.7399 190.8282 L339.8355 190.7868 L339.8165 190.3388 L340.0456 189.4946 L340.6131 187.9297 L340.8486 187.1663 L340.8768 185.9543 L340.8447 185.1781 L340.625 183.7669 L340.54 181.9115 L340.2852 180.5435 L339.6279 177.2163 L339.5322 176.3002 L339.2476 175.0193 L338.9654 174.2863 L338.9169 174.1079 L338.798 173.6861 L322.7293 176.3733 L319.8951 159.3498 L325.4515 155.1556 L322.6288 152.9641 L324.2137 150.7569 L325.6964 148.7459 L325.3357 147.2579 L325.0178 146.3547 L324.7831 145.4088 L324.7474 144.4796 L324.8169 143.5501 L324.7154 142.6451 L324.6858 142.087 L327.0064 140.2614 L327.3983 140.6751 L328.3333 139.9347 L329.2901 139.1628 L328.8818 138.4918 L329.188 138.0861 L328.6642 137.4512 L330.2492 136.2295 L329.8046 135.3101 L328.2045 136.6492 L327.6146 136.5697 L327.3863 136.1552 L328.4165 135.2389 L327.7413 134.4691 L328.7621 133.1714 L328.712 133.0782 L329.2124 132.777 L329.9273 132.4626 L330.7774 131.8123 L330.973 131.2353 L330.6876 130.2059 L330.6163 129.3307 L330.6427 128.576 L330.4056 127.8964 L330.0077 128.0378 L329.848 127.3909 L329.7969 126.5945 L329.8732 126.0435 L330.0407 125.9555 L329.9175 125.3253 L330.0421 125.2312 L329.7862 124.266 L329.9026 124.1509 L329.8799 123.9565 L329.7718 123.508 L329.7251 123.3139 L328.4256 124.5089 L328.0569 124.7877 L326.933 125.1792 L326.725 124.4272 L326.4481 123.375 L326.1392 122.5156 L325.7014 120.9299 L325.536 120.1012 L324.0965 120.6454 L322.8029 121.1879 L321.7671 121.6646 L320.8718 120.4203 L320.3816 119.6329 L319.9719 118.5487 L319.4997 117.2486 L319.1089 116.6449 L318.6829 115.9535 L317.6048 116.4467 L317.0853 116.5525 L314.9594 116.9279 L314.5244 117.0087 L311.7834 117.7841 L311.3576 117.9433 L311.0201 118.0969 L310.5188 118.337 L310.4818 118.5234 L310.3381 118.9443 L309.3926 118.3864 L309.0843 118.893 L308.3624 118.7658 L307.4724 118.0837 L307.3457 116.6364 L307.5572 116.2619 L306.0507 114.9268 L304.8311 115.0482 L304.6144 114.7914 L304.251 114.9849 L302.5087 115.962 L302.5479 115.565 L302.3602 112.6005 L302.1794 109.9617 L301.9338 109.965 L302.0765 109.3659 L302.2517 108.7295 L301.0795 108.891 L299.9286 109.1751 L299.1447 109.5416 L297.9595 110.4138 L297.8488 109.6362 L297.8237 109.0333 L297.9351 108.3051 L297.8909 107.394 L297.6882 106.2973 L298.4465 105.9327 L298.4399 105.574 L299.0207 105.1252 L299.5749 104.777 L300.2448 104.6076 L301.1069 104.9327 L302.2248 105.5658 L302.5848 105.6758 L304.0797 105.3871 L305.0677 105.1005 L307.1689 104.6778 L308.9679 104.425 L309.1782 104.3737 L310.0416 103.8097 L310.1703 103.5936 L310.0487 103.1116 L309.988 102.9298 L310.3257 102.5811 L310.1097 102.2312 L311.3822 101.4484 L312.5675 100.5864 L312.6669 100.2264 L311.6339 99.8096 L310.9807 99.6064 L310.5039 99.2352 L309.7271 98.7581 L309.538 98.4584 L309.4911 98.2763 L309.3329 98.0092 L308.7669 97.0079 L308.753 96.6424 L308.6038 96.1987 L308.0692 95.3948 L307.8247 95.159 L307.8167 94.7537 L307.6134 94.4932 L308.1451 93.757 L308.2424 93.7751 L308.7352 93.5406 L308.5554 93.3001 L308.4709 92.964 L308.3793 91.9236 L308.1056 91.1166 L307.9128 90.8263 L307.6308 90.6242 L307.2488 90.4947 L306.7357 90.2427 L306.2743 90.0376 L305.8645 89.8514 L305.783 89.8322 L304.8489 89.7184 L303.5792 89.8177 L302.8972 89.9359 L301.6521 89.6765 L300.3544 88.969 L299.4436 88.119 L298.5488 88.4365 L297.8053 87.4954 L297.5084 86.3338 L297.5703 85.6584 L296.3579 85.6085 L294.8806 85.6521 L294.5848 85.7064 L294.0725 86.0261 L293.5619 86.4684 L291.7168 86.5946 L291.2148 86.3629 L290.8314 86.3034 L289.9552 86.2238 L287.5154 85.3126 L284.1584 86.5957 L281.5202 87.6734 L280.5326 87.7564 L279.3702 87.304 L278.7149 86.9615 L278.0199 85.8687 L277.5707 85.4623 L276.8345 85.1102 L278.166 84.5508 L278.0821 84.0973 L277.8335 83.3119 L277.463 81.157 L277.2467 80.3014 L277.1273 79.5643 L277.1524 78.1364 L277.2544 77.4445 L277.269 77.419 L277.7257 75.9611 L278.232 74.3913 L278.3605 74.0299 L278.0042 72.8027 L277.6496 71.6974 L278.3248 70.7362 L277.5013 70.9123 L276.8634 70.7949 L276.2675 70.921 L275.583 70.8711 L274.9799 71.0406 L273.712 71.7805 L272.4294 72.5539 L271.9857 72.6669 L270.526 72.6507 L270.2728 72.6145 L269.8959 72.3682 L269.5333 71.9275 L269.1086 70.629 L269.4322 70.1082 L268.8621 69.5128 L268.7584 69.2347 L268.5868 68.8842 L268.3054 68.5841 L267.8579 68.2753 L269.1451 67.958 L270.1408 67.7847 L270.4925 67.712 L271.9306 67.381 L272.7873 67.161 L273.5343 66.954 L275.9634 66.3007 L278.5269 65.6433 L278.4806 65.3482 L278.5399 62.9678 L278.6078 59.5055 L278.6082 57.8719 L278.6452 57.7177 L278.8229 56.693 L279.1063 55.3759 L279.5245 55.5057 L279.3616 53.7791 L279.2545 52.4995 L279.1513 50.9462 L278.5444 50.4912 L277.812 50.4319 L276.6559 50.5894 L276.5021 49.5888 L276.4027 48.6208 L276.3387 47.0411 L276.0565 46.7383 L275.3679 46.2259 L274.7008 45.8501 L275.0535 45.2927 L274.646 45.0565 L273.7793 44.5436 L273.2806 44.2424 L273.1139 44.1634 L272.4965 43.834 L271.1606 43.2985 L269.8113 42.7856 L268.4482 42.2603 L267.5423 41.9289 L266.8142 42.1596 L266.3455 41.6551 L266.0169 41.2061 L265.0879 40.9033 L265.4491 40.4227 L264.8242 39.5627 L264.119 39.03 L262.9733 38.3763 L261.9971 37.0179 L260.8049 35.3777 L260.0773 34.3471 L259.0487 32.9189 L257.8685 31.2644 L259.4996 30.8743 L260.083 29.5158 L257.2075 29.7413 L257.133 29.7542 L257.7954 27.4065 L258.074 26.4386 L258.7435 24.164 L258.4102 23.3528 L259.8783 19.8888 L259.0184 19.4477 L257.6327 18.7157 L257.3462 18.5848 L253.8305 21.4197 L253.7186 21.2828 L253.2189 20.761 L252.5626 20.3305 L251.9551 19.9127 L251.0899 19.2356 L250.6865 18.6389 L250.4951 17.7409 L249.4132 16.6684 L248.3178 16.0168 L247.6473 15.5345 L246.9643 15.1309 L245.343 14.5465 L244.4623 14.2444 L243.1678 14.0439 L242.6375 13.9498 L242.028 13.9116 L241.6401 15.1114 L241.2728 16.1419 L240.7895 17.5607 L239.632 17.3162 L239.4513 17.4037 L239.4365 17.7319 L239.1544 18.5365 L238.8813 18.8219 L238.5346 19.4109 L238.3139 19.9262 L238.1367 20.2172 L237.8004 20.5723 L237.3669 21.2927 L236.9034 21.8573 L236.5753 22.2099 L235.3781 22.8392 L234.9422 23.5934 L234.4217 24.3275 L234.3973 24.3931 L235.9464 25.1805 L236.5051 25.4093 L235.6875 26.5659 L236.3607 27.4987 L236.8276 28.0268 L237.1885 28.7293 L237.3016 28.6339 L237.428 28.7749 L237.2746 28.8983 L237.4451 29.2341 L237.6862 29.0629 L237.7516 29.1359 L237.938 29.8612 L237.7985 29.9389 L238.468 31.3945 L238.5583 31.8243 L238.6282 32.0921 L238.746 32.7746 L238.6058 32.9623 L237.4052 31.8902 L236.985 31.5879 L236.2538 30.924 L234.7323 29.625 L234.1683 29.2785 L232.9812 28.1005 L232.6295 27.7266 L231.8662 27.1908 L231.2133 26.1944 L230.6348 25.5873 L229.9894 25.0504 L229.3252 24.3964 L229.0046 24.302 L228.6933 24.0974 L228.3935 23.4642 L227.3861 22.6927 L227.454 22.423 L227.2045 22.192 L226.8882 22.4672 L226.6471 22.3602 L225.3503 21.4365 L225.0892 21.3467 L224.8424 21.251 L224.3513 21.0312 L224.141 20.8639 L223.474 20.5917 L224.0263 20.0329 L223.5036 19.7739 L222.9536 19.2768 L223.1097 19.1456 L222.406 18.4238 L222.2328 17.9321 L221.4544 16.979 L221.1169 16.3941 L220.6853 16.129 L219.9049 15.4201 L219.4804 15.1765 L219.1841 14.938 L218.5258 13.9673 L217.3175 12.5167 L216.8514 13.1725 L216.262 12.7996 L215.8213 12.4226 L215.5161 12.1019 L214.831 12.1535 L214.7824 11.6333 L214.7648 11.5019 L215.672 11.52 L215.6672 10.8148 L215.078 9.992 L213.9716 8.9883 L212.702 7.2685 L212.504 6.8279 L211.687 6.3924 L210.8884 5.7591 L210.1933 5.4335 L209.5859 5.3945 L209.2358 5.2087 L208.5842 4.4953 L207.4781 3.3981 L205.8413 1.8318 L204.8687 0.5908 L204.0598 0.3976 L202.9428 0.177 L202.2924 0.0579 L201.6955 0.0104 L200.8555 0.0 L200.436 0.0686 L199.9149 0.3298 L199.6344 0.5071 L198.976 0.9066 L198.6702 1.2057 L198.4672 1.2186 L198.3189 1.6038 L197.8212 2.2281 L197.3575 2.6772 L196.8751 3.2104 L196.644 3.3978 L196.1436 3.9927 L195.4698 4.5883 L194.936 4.9176 L194.0751 5.4131 L193.3889 5.6573 L192.2377 5.7416 L190.7231 5.9059 L190.4775 5.8936 L189.5785 5.7855 L189.3192 5.7325 L188.8662 5.5929 L188.5992 5.4809 L188.389 5.361 L188.0586 5.0993 L187.9096 4.956 L187.7235 4.7228 L187.1975 4.3323 L187.1177 4.163 L187.0022 3.7312 L186.7898 3.3728 L186.6203 3.1135 L185.7514 2.5052 L184.1767 2.6819 L182.9649 3.5473 L182.5558 4.0698 L182.0946 4.3837 L181.0638 5.577 L180.6499 5.8335 L180.2607 6.2102 L180.0971 7.0197 L179.7168 7.3549 L179.3438 8.4675 L179.1875 9.0912 L179.0305 9.384 L178.814 9.714 L178.3582 10.136 L177.727 10.4922 L177.3397 10.5495 L176.6082 10.6288 L176.0955 10.5062 L175.6608 10.659 L175.507 10.6236 L175.352 10.6661 L174.9475 11.4563 L174.7901 11.3076 L174.5472 11.1098 L173.6441 10.8623 L172.7616 11.0535 L172.5674 10.8516 L171.5427 10.828 L171.4347 10.7353 L170.9776 10.9457 L169.9098 11.4876 L169.3331 11.8723 L168.1409 12.5288 L167.3547 12.9535 L166.88 13.2883 L166.6365 13.5086 L165.8007 14.6228 L165.0608 15.6563 L164.6308 16.1669 L163.4871 16.9414 L162.0968 17.8641 L160.6725 18.8888 L160.0584 19.3135 L158.8274 20.4164 L157.5793 21.5594 L156.7477 22.1119 L155.0915 23.107 L154.2951 23.5465 L153.2234 24.2178 L151.7259 25.0869 L151.2111 25.5865 L149.4126 27.3096 L149.1428 27.5006 L148.846 27.5099 L148.2418 27.3519 L147.0954 26.6263 L145.1284 25.3928 L144.4462 25.0178 L144.051 24.9185 L143.6203 24.8836 L143.2464 24.9473 L142.6683 25.1069 L142.2716 25.3069 L141.475 25.9143 L140.1528 26.9796 L139.7976 27.1129 L139.4458 27.1011 L139.071 26.8331 L138.6225 27.077 L137.5723 27.8015 L136.8574 28.5732 L136.1506 29.1463 L135.3931 29.7062 L134.4318 30.403 L134.0547 30.5975 L133.7671 30.7992 L133.0556 31.0579 L132.906 31.0826 L132.3589 30.8979 L130.9249 31.3196 L130.5368 31.5539 L130.3707 31.6872 L130.1938 32.1223 L129.8808 32.5346 L129.7474 33.0714 L129.0246 34.0033 L129.0664 34.5923 L128.9164 35.3061 L128.6895 36.1499 L128.5623 38.1069 L128.6747 38.3642 L128.8925 38.1239 L129.2949 37.9996 L129.7564 37.7585 L130.4931 37.9412 L131.3471 37.8778 L131.7817 37.6011 L132.4559 37.0623 L132.9871 36.8694 L133.4164 37.183 L133.454 37.378 L133.8368 37.6716 L134.2558 37.8636 L134.4643 37.5081 L134.9436 36.785 L135.2264 36.6541 L135.5665 36.2413 L135.7607 35.6257 L136.3301 35.9326 L136.9105 36.1746 L137.7718 36.4613 L138.3197 36.5123 L138.296 36.8815 L138.1508 37.4461 L137.897 37.8518 L138.4541 37.9689 L139.0532 37.9198 L139.8273 37.8372 L140.7424 37.3876 L141.5253 37.2156 L141.6204 37.8751 L141.4419 38.686 L141.3423 39.2064 L141.125 40.1788 L141.1236 41.1649 L140.4136 41.1584 L139.4841 41.0544 L138.854 40.9477 L138.4883 40.8695 L137.6937 40.6868 L137.3175 40.4879 L136.8485 40.2081 L136.5318 40.0529 L135.9767 39.8897 L135.4838 39.8776 L135.0812 39.944 L134.3732 40.1566 L133.6973 40.4062 L132.7792 40.7856 L132.2745 40.9743 L132.2003 41.6861 L132.1086 42.0551 L132.0863 42.4336 L131.9352 43.0969 L131.7582 44.111 L131.2824 46.1008 L131.0825 46.8044 L130.7931 48.2491 L130.6136 48.3772 L129.8685 48.4389 L129.6811 48.3325 L129.5661 48.5124 L129.0946 49.4522 L128.5304 49.7602 L128.4263 49.9234 L128.144 49.9464 L127.3965 50.608 L127.0502 50.7682 L126.9338 50.6083 L126.9342 50.3505 L126.9884 50.0476 L127.0908 49.6318 L126.7072 49.4949 L126.4972 49.3954 L125.8382 49.3718 L125.754 50.1426 L125.1081 50.2723 L125.0875 50.4912 L124.547 50.4769 L124.4798 50.8785 L124.3664 51.3788 L124.1227 51.8283 L123.7919 51.8536 L122.9333 51.7913 L122.8947 52.395 L122.9048 53.0975 L122.5883 53.7876 L121.4293 54.2089 L121.2714 54.7626 L121.1744 56.0616 L120.8342 56.6297 L119.9054 57.3828 L119.6093 57.3658 L119.5355 57.4712 L118.9597 57.3118 L117.8154 56.4928 L116.5632 55.8088 L116.3424 55.069 L115.9876 54.8065 L115.2912 54.6118 L114.7574 54.3381 L114.3057 54.0278 L113.6315 53.8216 L113.0866 53.3383 L112.4372 53.0607 L111.9268 53.0152 L111.4582 52.2077 L111.2286 52.259 L110.9613 52.2425 L110.7163 52.1857 L110.7509 52.1246 L110.8437 52.1704 L110.9098 52.0272 L110.8097 52.0195 L110.6942 51.7049 L110.4278 51.3031 L110.3397 51.2101 L110.2141 51.4356 L110.0562 50.7221 L109.9174 50.6327 L109.7561 50.4152 L109.5182 50.1659 L109.02 49.8436 L108.781 49.6069 L108.5529 49.394 L108.4638 49.5635 L108.1275 49.5482 L108.0268 49.3861 L107.4466 49.044 L107.389 49.1463 L107.2397 49.1373 L107.1746 48.965 L106.9385 48.9721 L106.9374 48.7371 L106.7594 48.7711 L106.6001 48.5047 L106.2045 48.4979 L106.0794 48.7017 L105.7479 48.7777 L105.556 48.7596 L105.5179 48.7875 L105.5115 48.6677 L104.8434 49.12 L104.6666 49.2489 L104.8494 49.2821 L104.1001 49.8367 L103.9432 49.7953 L103.6774 50.0131 L103.8374 50.0463 L103.5209 50.303 L103.3905 50.2687 L103.1199 50.7232 L102.7853 51.2499 L102.7168 51.3385 L102.4454 51.8146 L102.3759 51.9076 L102.4169 51.9189 L102.2163 52.3465 L101.6562 53.1449 L101.5131 53.5116 L100.6784 54.82 L100.0573 55.91 L100.9801 56.0548 L101.8768 56.2333 L103.2106 56.7073 L103.6161 56.6184 L104.521 56.4404 L105.3518 56.0776 L105.8691 55.9374 L106.7546 55.6203 L107.7331 55.4456 L108.5114 55.2961 L109.4844 55.5786 L110.2451 55.7218 L111.1173 55.9602 L111.8643 56.2904 L112.5709 56.6371 L113.3598 57.3683 L114.0421 57.8135 L114.239 58.2059 L114.3829 58.9015 L114.4848 59.1346 L115.0877 59.738 L115.327 59.9262 L115.4745 59.9407 L115.9733 59.1039 L117.2325 59.4119 L118.1093 59.7125 L118.6113 59.763 L119.2026 59.9026 L119.881 60.6067 L119.9821 60.6673 L119.5508 61.7435 L119.5116 62.3222 L119.5888 62.8132 L120.1252 63.3951 L120.7033 64.1335 L120.6797 64.1976 L120.8665 64.3263 L121.4018 64.484 L122.6792 64.7983 L123.1579 64.8002 L123.4886 64.8378 L122.9725 66.3635 L122.6653 67.3261 L122.069 68.1489 L121.92 68.3996 L121.8293 68.5959 L121.59 69.4543 L121.0536 70.1564 L120.8145 70.4768 L120.5616 71.2521 L120.2308 71.8675 L119.935 72.5347 L120.1097 73.0327 L120.2216 73.2118 L120.0765 73.9964 L119.3783 74.7287 L118.9392 75.5629 L118.5628 76.2384 L118.3365 76.6574 L118.2328 76.9585 L118.1767 77.459 L117.8775 78.6887 L117.3325 79.7044 L117.0089 80.104 L116.9396 80.3245 L116.9711 80.4937 L117.3587 81.0525 L117.3696 81.267 L117.2457 81.5045 L117.0591 81.6857 L116.7487 82.2251 L116.9016 82.6647 L117.1458 83.2409 L117.275 83.2543 L117.2562 83.5801 L117.4831 83.3209 L117.6406 83.3541 L117.9602 83.0887 L118.3337 82.9324 L118.4023 83.1465 L118.7587 83.4825 L119.0501 83.7092 L119.4728 83.9294 L119.8295 84.1025 L120.0779 84.0158 L120.2219 84.2741 L120.1745 84.6249 L120.651 84.8621 L121.289 84.6101 L121.3733 84.5462 L121.6167 84.7236 L122.0072 85.0754 L122.0956 85.3675 L122.3233 85.5984 L122.604 85.7695 L123.4777 86.0738 L124.347 86.3483 L124.9107 86.2993 L125.5736 86.2299 L126.1636 86.1816 L126.8877 86.0497 L128.0683 85.6581 L128.4008 85.5131 L129.287 85.0905 L129.8894 84.5607 L129.87 84.2418 L130.2208 84.0666 L130.9374 83.7408 L131.6828 83.3303 L132.1595 82.8652 L132.4532 82.6718 L132.8328 82.3631 L133.3653 82.2594 L133.9619 82.0943 L134.0109 82.8482 L133.915 83.364 L133.4868 84.5489 L133.3929 84.9742 L133.4031 85.2778 L133.5182 85.5024 L133.9095 85.9998 L134.5284 86.2477 L136.6717 87.5752 L137.309 87.6295 L137.2756 87.9481 L137.1762 88.6756 L137.2368 89.051 L137.2869 89.6798 L137.1723 90.2622 L137.106 90.62 L137.2523 91.0149 L137.7805 91.7374 L137.9653 91.2787 L138.128 91.0887 L138.4889 90.7928 L140.6915 90.6735 L141.4346 91.3612 L141.6415 92.1976 L142.2005 92.7904 L142.273 93.2267 L142.3085 94.0065 L142.3636 94.5036 L142.0868 94.5683 L142.4464 95.5176 L142.6576 95.7943 L143.1177 96.3388 L143.6174 96.8261 L143.925 97.3482 L144.1861 97.7043 L144.8048 98.1299 L145.5602 98.8151 L145.7821 99.7054 L145.7249 101.4194 L146.4291 101.4514 L146.7242 101.5726 L147.6684 101.5795 L149.2336 101.135 L149.3239 101.6 L149.2332 101.8018 L149.2724 102.0599 L150.5934 102.2852 L151.2585 102.1967 L151.8375 102.2924 L151.8421 103.802 L151.6529 104.7098 L151.8394 105.1759 L152.5081 105.8935 L151.9909 106.2929 L152.0348 106.6198 L151.1974 106.6836 L151.0539 107.354 L150.945 107.8061 L150.7838 108.1708 L150.7292 108.57 L151.7806 108.9927 L152.3436 109.3371 L152.9768 109.4991 L154.2329 109.4698 L154.8729 109.5773 L155.4943 109.4089 L155.9423 109.2011 L156.9737 109.2888 L157.0523 109.0643 L158.5699 109.2198 L158.9513 109.2041 L159.0115 109.101 L160.1379 109.1052 L160.9439 108.9472 L161.4317 108.7378 L161.9804 108.8606 L163.3501 109.3278 L163.5313 109.0229 L164.605 109.4967 L164.8604 108.9382 L165.6332 109.1134 L166.4366 109.2088 L168.1379 109.7094 L168.4674 109.1877 L169.7542 108.6635 L170.5496 110.0483 L170.9249 110.6309 L171.3289 111.1965 L171.7303 111.84 L171.4356 114.1665 L171.2414 114.7966 L170.6474 118.3611 L170.8757 118.5144 L169.7535 119.8531 L169.7692 120.1911 L170.9368 120.1705 L171.3978 120.1234 L172.0591 119.8396 L173.9422 118.7088 L174.8407 118.6512 L176.3879 118.5073 L177.0106 119.5976 L177.1364 120.5395 L177.2864 120.9494 L177.9674 122.4364 L177.1291 122.5079 L176.8684 122.8961 L175.388 124.3858 L175.0337 125.0621 L174.6158 125.4242 L173.7328 125.4796 L173.223 125.6414 L172.3575 126.9767 L172.201 127.7922 L172.1894 128.6651 L172.6126 128.9323 L172.9926 129.5472 L172.8746 129.8501 L172.3257 129.8485 L171.2586 130.7465 L171.7204 130.9291 L172.5879 131.2701 L173.4753 131.5494 L175.5562 131.6607 L175.5748 131.9472 L175.184 132.1928 L174.4123 132.6262 L173.0851 133.0675 L172.8855 133.2751 L172.6449 133.8041 L171.9688 134.1109 L171.5862 134.7249 L171.0819 135.2136 L170.8698 135.834 L170.7066 135.8019 L170.2815 136.6358 L169.6414 136.5214 L168.6982 136.7646 L167.8952 137.0192 L167.4614 136.9773 L166.7438 136.8482 L166.4099 136.6662 L165.5851 136.1415 L165.28 136.468 L165.3542 136.7873 L164.6528 137.2594 L164.2848 137.8161 L163.9057 138.3344 L164.1614 138.9871 L164.3001 139.6219 L164.4633 139.9087 L164.217 140.4602 L164.3259 140.7143 L163.4228 141.6745 L162.7287 141.5969 L162.1773 141.7857 L162.0321 141.9647 L161.863 142.6412 L161.4989 142.6426 L160.9409 142.5573 L160.5572 142.2649 L160.4093 142.4411 L160.3143 142.6053 L159.9305 142.471 L159.7856 142.8942 L159.5327 143.4301 L159.4563 143.3309 L159.174 143.6485 L159.5019 144.3563 L159.9392 145.0621 L160.5394 145.7841 L161.4668 146.8292 L162.1221 147.678 L162.065 147.8192 L162.2222 148.3564 L162.3826 149.0644 L164.1903 151.3095 L165.419 151.0589 L166.0506 150.7177 L166.8372 150.3765 L167.7334 150.166 L168.9124 149.8129 L169.9387 149.6808 L170.3462 150.4395 L170.6969 150.6673 L171.0512 150.6621 L171.3239 151.8034 L171.8619 152.0158 L172.2357 152.2285 L172.3594 153.037 L172.6725 153.0589 L172.9462 152.9452 L173.3918 152.8345 L173.6106 153.0077 L174.2017 153.0617 L174.2751 152.7791 L174.6224 152.6415 L174.9429 152.5765 L175.6817 152.7517 L176.0091 152.7558 L176.6946 153.0381 L176.8087 154.96 L176.8919 155.6446 L177.2214 156.355 L178.1466 155.9061 L178.3906 155.7912 L178.6591 155.7222 L179.2321 155.6068 L180.037 155.2782 L180.4986 155.2338 L181.8693 155.4547 L182.026 155.7403 L182.1233 156.3928 L182.6568 156.3361 L183.0861 155.7227 L183.4172 155.6188 L184.0983 153.9193 L184.4173 153.4558 L185.7143 153.7038 L186.7563 153.8275 L187.5796 154.6818 L187.5958 155.148 L187.2452 155.9976 L187.3907 156.1108 L187.1831 156.6918 L187.1838 157.664 L187.0859 158.6145 L187.332 158.8359 L187.6895 159.5019 L188.9459 159.0289 L189.4853 159.6853 L189.0874 160.7903 L190.6319 161.6111 L190.184 162.9195 L190.2111 163.2884 L189.9766 163.942 L189.6523 164.5682 L188.5005 166.0205 L188.0212 166.5582 L188.5793 167.3107 L188.0165 168.0457 L187.7738 168.4376 L187.9816 168.7311 L187.9283 169.3075 L186.6042 169.8531 L186.2851 170.0518 L186.067 170.3746 L186.101 171.4431 L186.2523 172.3809 L186.3442 173.2893 L186.1657 174.0657 L185.9488 174.6343 L185.9356 175.189 L186.5526 175.5403 L186.5633 176.1401 L187.4689 176.1095 L187.599 175.8584 L188.5228 176.1325 L189.2344 176.4747 L190.2364 176.6868 L190.2468 177.1023 L190.1765 178.291 L189.7913 179.1523 L189.5339 179.6118 L189.17 179.6677 L189.0084 179.9207 L189.3589 180.2142 L189.2675 180.7181 L189.216 181.3782 L189.5259 182.0474 L190.0252 183.4575 L189.9648 183.9195 L190.1076 184.8199 L189.8217 184.9745 L190.017 185.1822 L191.4365 185.8316 L192.9904 186.2977 L194.2266 186.5421 L196.411 186.9863 L196.5087 186.749 L197.7335 187.3288 L198.3895 188.0114 L199.7358 190.2988 L198.8959 191.4118 L198.5358 192.0162 L198.9268 192.3111 L199.5628 192.764 L200.6188 193.5287 L201.2857 193.9995 L202.1402 194.6299 L201.9735 194.8568 L202.1154 194.9691 L200.8011 196.4487 L201.1338 196.7233 L200.2442 197.7836 L199.6111 198.4401 L199.0228 199.164 L197.9935 200.6679 L197.3194 201.3479 L197.2237 201.3186 L195.2971 200.7942 L195.0544 200.8062 L194.6144 201.0164 L193.6772 201.4011 L193.3541 201.5871 L193.1991 201.6945 L192.5992 202.574 L192.8006 203.305 L193.2565 203.8474 L193.0802 204.7554 L192.8113 205.6472 L192.5659 206.5477 L192.3736 207.2247 L192.0062 207.6825 L191.5425 208.1313 L189.8472 208.2518 L189.3882 208.3135 L189.0373 208.474 L188.291 209.0403 L187.5856 209.6483 L187.1672 209.9756 L186.842 210.0439 L185.9773 210.2852 L184.8357 210.6784 L184.0409 211.1249 L183.573 211.4748 L183.4821 211.4115 L182.8056 211.7082 L182.1865 211.9586 L182.0417 212.0263 L180.2163 212.7399 L181.3167 213.8048 L181.6257 214.1755 L182.0677 214.9316 L182.4285 215.9565 L182.4631 216.1792 L182.4626 216.9139 L182.6568 217.4566 L183.1221 218.262 L183.4145 219.1488 L183.6621 219.5723 L183.8706 219.8685 L184.3776 220.4175 L185.5295 221.5927 L186.1931 222.4559 L186.4271 222.9448 L187.5208 224.2978 L188.5796 225.4881 L188.4973 225.5853 L187.8087 226.8723 L186.7518 229.1004 L186.5233 229.6535 L186.3164 230.5432 L186.4139 230.6382 L186.6657 230.9938 L187.242 231.6164 L187.7567 232.3401 L188.8552 233.2057 L188.9824 233.4333 L189.2436 233.9023 L189.6189 235.3962 L190.8329 237.6916 L191.0938 238.1276 L191.4653 239.1321 L192.1593 240.0959 L192.2539 241.2436 L192.5632 240.9858 L192.8172 241.3625 L192.9469 242.0743 L193.1677 242.924 L193.1413 243.8393 L193.0269 244.9393 L193.2862 245.1329 L193.1948 245.3228 L192.9451 245.9908 L191.9499 246.2901 L192.1739 246.7459 L192.2386 247.3539 L192.2409 247.6418 L192.8165 248.3799 L193.1251 248.5703 L193.2844 248.968 L193.7722 249.3865 L194.2034 249.5072 L194.6256 249.7066 L194.7906 249.8562 L195.782 250.5387 L196.1981 250.9862 L196.2565 251.012 L196.1968 251.216 L197.0825 251.7912 L197.7301 252.552 L198.2296 252.879 L198.3772 253.1811 L198.7154 253.2589 L199.1747 253.8483 L199.7351 254.4847 L200.642 255.0519 L200.9774 255.021 L200.9642 255.6265 L201.2696 255.7793 L201.6811 256.1047 L202.663 256.2529 L203.5006 256.9586 L204.0227 257.9533 L204.3506 257.8917 L204.9171 258.3225 L205.0007 258.52 L205.3047 259.014 L205.8577 259.6036 L206.1332 259.6836 L206.4196 259.7545 L207.0891 260.173 L207.6004 260.9804 L207.5589 261.2397 L207.5239 261.2715 L207.3908 261.2641 L206.838 261.1959 L206.243 261.4391 L205.9088 262.3781 L205.7656 262.698 L205.7068 262.907 L205.726 263.2923 L205.5227 263.9022 L205.8215 264.3422 L205.8385 264.457 L206.2385 264.5854 L206.7826 265.0797 L206.727 265.4508 L206.7126 265.706 L206.7311 266.0514 L206.6944 266.3581 L206.6153 266.7642 L206.4812 267.1142 L206.2296 267.5258 L205.8819 267.9919 L205.3407 268.4388 L205.1645 268.3553 L204.9604 268.3802 L203.8133 268.688 L203.577 268.7773 L203.317 268.9665 L203.018 269.2554 L202.6162 269.3107 L202.2619 269.2036 L201.9032 269.1407 L201.4626 269.1407 L201.2892 269.1872 L200.956 269.3756 L200.8924 269.4813 L198.9685 268.2027 L198.5547 267.8333 L198.2054 267.4773 L196.9093 269.0254 L196.1067 268.4144 L195.6371 268.2405 L195.3283 268.5617 L194.8024 268.4235 L194.5743 268.3449 L194.2892 268.6258 L194.0096 269.056 L193.8453 269.4167 L192.9824 270.4924 L192.464 271.0409 L192.2617 271.4431 L191.9953 271.7115 L191.7684 272.1066 L191.638 272.5505 L191.7025 272.7285 L192.4492 273.2277 L192.109 273.328 L191.7358 273.7686 L191.4858 274.0443 L191.4414 274.202 L192.4257 276.3374 L192.518 276.798 L190.1184 279.7641 L187.9964 277.5253 L186.2084 276.1791 L185.8504 276.2287 L185.0982 275.9403 L184.1917 275.2897 L183.4085 274.5265 L183.009 274.1462 L182.8874 273.8614 L182.6734 273.4285 L182.5185 273.102 L182.3676 272.8063 L182.1541 272.8753 L181.7054 272.9783 L181.2415 273.1587 L180.9519 273.2184 L180.3843 273.2962 L180.2277 273.2354 L179.8531 273.0706 L179.498 272.8904 L179.2032 272.5563 L178.4105 271.468 L178.243 271.2892 L178.0349 271.2276 L177.2066 271.0819 L176.3876 270.4217 L176.0201 270.2738 L175.7492 270.4272 L175.4725 270.5269 L175.1804 270.4436 L174.7575 270.1506 L174.2003 269.7445 L173.9998 269.5788 L173.5288 269.1637 L173.1975 268.5168 L173.0726 268.0932 L173.0539 267.1744 L172.9696 267.0326 L172.8309 266.9107 L172.404 266.7828 L172.194 266.7056 L171.5473 265.7611 L171.4003 265.4588 L171.2962 265.1937 L171.4951 264.7385 L171.3052 264.2431 L170.7939 263.7025 L170.2851 263.2518 L170.0021 263.137 L169.6756 263.0464 L169.2845 262.8237 L169.0806 262.6731 L168.8678 262.7142 L168.5806 262.5529 L168.2839 262.2683 L167.9463 261.8143 L167.8587 261.6037 L167.9374 261.2663 L167.9756 261.0825 L167.9487 260.9543 L167.8571 260.7884 L167.5475 260.4266 L167.3868 260.3253 L167.292 260.2935 L167.1621 260.4148 L166.801 260.752 L166.4933 260.0804 L165.9235 259.3407 L165.4664 259.2777 L165.0794 259.4514 L164.6102 259.1184 L163.9578 258.2365 L163.8075 257.8528 L163.6653 257.1928 L163.6698 256.9159 L163.8886 256.6001 L163.8214 256.2353 L163.4083 255.0662 L163.3421 254.1827 L163.297 252.6955 L163.3045 252.1707 L163.4734 251.1226 L163.815 250.1257 L164.0412 249.5508 L164.2425 249.2514 L164.2163 249.1756 L164.5193 248.1805 L164.8192 247.5476 L164.9381 247.5372 L165.2143 246.9097 L165.2905 246.6218 L165.3461 245.6939 L164.762 244.9535 L164.4824 244.3973 L164.0137 243.8486 L163.689 243.7227 L163.3741 243.6156 L163.3494 243.9681 L163.4454 245.5854 L163.6197 246.3852 L163.5363 247.0663 L163.1318 247.9472 L162.3557 249.0266 L161.9084 249.6395 L161.3782 250.8117 L161.2141 251.0878 L161.1113 251.3395 L160.7372 251.6485 L159.9469 252.6717 L159.54 253.3405 L159.2223 253.9102 L159.091 254.195 L159.0929 254.703 L159.1131 255.1322 L159.1213 255.4381 L159.0637 255.8393 L158.999 256.1984 L158.8557 256.6861 L158.8336 256.9299 L158.899 257.149 L158.8916 257.3442 L158.8124 257.5535 L158.7759 257.8693 L158.6815 258.165 L158.62 258.3718 L158.4813 258.9532 L158.3293 259.2101 L158.2422 259.4747 L158.1893 259.7628 L158.1825 260.0824 L158.2678 260.443 L158.4223 260.8254 L158.5801 261.1603 L158.9215 261.9457 L159.2954 262.4776 L159.7899 262.9604 L160.3147 263.5256 L160.5143 263.915 L160.3414 264.1516 L160.4785 264.6917 L160.6818 264.7681 L161.0102 265.1164 L161.1478 265.18 L161.3356 265.6945 L161.5921 265.881 L161.2693 266.4197 L161.0354 266.6831 L160.443 266.7278 L160.198 266.7861 L159.781 267.0077 L159.5007 267.5233 L159.2797 268.2074 L159.1132 268.5785 L157.6087 269.512 L157.0295 269.9285 L156.5262 271.1 L156.2242 271.6072 L156.101 272.2132 L155.8646 272.9813 L155.4511 273.802 L155.1485 274.0451 L153.9963 274.7133 L153.0242 275.3141 L151.6609 276.046 L150.6931 276.5406 L150.7216 276.5677 L150.9269 278.2271 L152.1693 278.9864 L151.8154 279.5921 L151.4518 279.5242 L150.8973 279.3492 L150.3309 279.303 L150.1306 279.8722 L150.6813 280.6699 L151.2965 281.2137 L150.7887 282.5828 L150.8043 283.0995 L150.7738 283.3421 L150.5441 283.623 L150.0209 283.6403 L149.4982 284.1898 L149.6842 284.6465 L149.1532 284.8744 L148.5451 285.2845 L147.5759 285.759 L146.9358 285.9417 L146.7442 285.647 L146.579 285.5827 L145.7272 286.7379 L145.3266 287.1369 L145.2305 287.4695 L144.8923 288.1532 L144.8957 288.5327 L145.0436 288.9987 L146.8834 288.6792 L147.6432 288.8512 L148.3543 289.0677 L148.5225 289.2605 L148.6722 289.4319 L149.1553 289.9644 L149.8573 290.5794 L150.6852 291.3562 L151.4941 292.3991 L151.819 293.0967 L152.1707 293.79 L152.4291 294.2743 L152.9588 295.349 L153.6243 296.4222 L154.3892 298.4261 L155.8473 300.3576 L157.1765 301.8292 L157.9344 302.9495 L158.1611 303.5061 L158.2778 304.009 L158.1198 304.6647 L157.5746 306.6293 L156.9587 308.9429 L156.4678 310.1274 L155.2444 311.0152 L156.2096 311.6238 L156.0369 312.2247 L155.6839 313.3093 L155.1984 313.0988 L154.7396 313.0274 L154.9358 313.2001 L155.3476 313.6704 L156.1189 313.8771 L157.0892 314.5886 L157.2061 314.7364 L157.24 314.9417 L157.2252 315.3231 L157.0639 316.2327 L156.7604 316.2059 L156.3648 316.9626 L155.8054 316.5618 L155.6122 316.3488 L155.016 316.2639 L155.0739 317.2007 L155.1544 317.8583 L155.1377 317.8796 L154.3354 318.3677 L154.4266 318.7827 L154.6576 319.4865 L154.8385 320.3564 L154.2386 320.415 L153.6901 320.6162 L153.5267 321.3288 L153.8719 321.2841 L154.8971 322.2603 L154.667 322.836 L154.6549 322.9991 L154.9869 323.5102 L155.3854 323.7034 L155.578 324.2027 L155.8501 324.2449 L156.0004 324.4885 L156.2798 324.6341 L156.7969 324.9714 L157.3647 325.1602 L157.7165 325.2188 L157.8348 325.6007 L158.2495 325.7874 L158.6952 325.6478 L159.4363 325.8268 L159.5858 325.9001 L159.7835 326.3274 L159.7459 327.0315 L159.6735 327.8373 L159.4164 328.2994 L159.3522 328.6889 L159.0307 329.8057 L159.6233 329.948 L159.8277 329.6365 L160.7167 329.5289 L161.0942 329.6677 L161.7931 330.0279 L162.3327 330.268 L162.0586 331.2594 L162.4329 331.2733 L163.0134 331.437 L163.5201 331.6078 L163.4288 332.0452 L164.1748 332.7525 L164.5563 333.1803 L164.7595 333.272 L165.1111 333.3396 L165.184 333.5947 L165.2875 333.7343 L165.6678 333.7477 L165.9342 333.8118 L165.8588 334.1052 L165.8629 334.2599 L166.1525 334.4093 L166.4056 334.5262 L166.512 334.7315 L166.9372 335.1199 L167.0589 335.9117 L166.9963 336.5987 L167.8489 336.9143 L168.1588 337.8014 L167.9977 338.4955 L167.8733 338.7465 L167.8182 339.4146 L168.6433 339.5651 L168.6661 339.9642 L168.6178 340.4675 L168.8413 340.5061 L168.8917 340.8956 L169.4892 340.9635 L169.8961 341.0604 L169.7532 341.5623 L169.5634 342.2605 L169.5709 342.7863 L168.9571 343.1235 L168.6125 343.2335 L167.8902 343.3219 L167.1583 343.3088 L166.6611 343.3236 L165.8555 343.2721 L165.1927 343.1938 L165.1241 343.6022 L163.9376 343.814 L162.9322 344.0513 L162.713 344.065 L161.9699 343.9123 L161.4132 343.8211 L160.2447 343.5072 L159.3918 343.0794 L158.4655 342.9574 L157.6272 343.2042 L157.0181 343.17 L156.5038 342.9965 L155.9114 342.6979 L154.9133 341.937 L154.6913 342.7455 L155.287 343.1514 L155.9162 343.8228 L156.6799 344.3754 L157.1537 344.6975 L158.3252 345.0883 L158.6173 345.3026 L158.9814 345.2917 L159.4732 345.7085 L160.0342 346.0181 L160.3712 346.7452 L160.5941 346.9423 L160.4537 347.6785 L160.3577 348.0121 L160.1413 348.3189 L159.923 348.4744 L159.4803 348.5934 L159.2767 348.8028 L159.1494 349.0505 L159.5486 349.5669 L159.5222 349.7495 L159.8614 350.2695 L161.0138 350.3458 L161.3602 350.5363 L162.5458 351.4121 L162.6889 350.7093 L162.9452 350.2123 L163.7327 350.9685 L164.186 351.8481 L164.9981 352.6108 L165.452 352.9759 L165.8357 353.1885 L166.7998 353.5908 L167.5415 353.6245 L168.3781 353.9283 L168.8457 354.3024 L169.568 355.0221 L169.9907 355.6141 L169.9127 355.8809 L170.2349 356.4988 L170.2352 356.6652 L170.1117 356.8905 L170.1023 357.0073 L170.2748 357.8653 L170.2372 358.3795 L170.1381 358.5092 L169.3084 358.2801 L169.0974 358.2019 L169.0031 358.403 L169.5341 358.7465 L170.266 359.5464 L170.9856 360.1473 L172.1297 360.9809 L172.5471 361.2981 L173.3882 361.8402 L174.1072 363.2191 L174.1643 363.5092 L173.4313 363.6753 L172.8898 363.839 L172.1937 364.0081 L171.0473 364.3329 L169.9927 364.5294 L169.5591 364.5923 L169.3228 364.6386 L169.2743 365.3046 L169.3183 365.8875 L169.82 366.3845 L171.1401 367.7461 L170.7923 368.2488 L171.4123 368.9231 L170.8023 369.756 L170.5888 370.2395 L170.121 371.2999 L169.5826 371.0019 L168.2308 369.811 L167.2756 370.4552 L166.3281 369.9566 L165.3194 369.2687 L164.4261 368.431 L164.6902 368.1413 L163.5409 367.207 L163.3472 367.0976 L162.7044 366.7479 L162.2514 367.3608 L162.0073 367.3452 L161.6634 367.2782 L161.2341 367.1258 L160.2276 366.6075 L159.8074 366.4195 L159.6357 366.2873 L159.0696 365.7115 L158.4184 364.8742 L158.5027 364.2943 L158.4683 364.2388 L158.3443 364.1008 L157.7548 364.4604 L157.4572 364.1394 L156.8859 364.635 L156.0346 365.3618 L155.9727 366.0867 L155.8936 366.7011 L155.8779 367.1991 L155.2858 367.3214 L155.3592 368.5758 L155.3535 369.1819 L155.2375 369.464 L154.502 370.2779 L154.1591 371.0824 L154.1488 371.1595 L154.6995 371.3341 L156.0303 371.7366 L156.9122 371.996 L156.5729 372.8624 L154.0185 372.1501 L153.67 373.0506 L153.2669 373.029 L152.6936 373.5951 L151.9441 374.0611 L151.7742 374.9228 L151.7421 375.3751 L151.8002 375.5883 L151.9997 375.938 L152.8859 376.6836 L152.5704 377.5628 L152.4981 377.8367 L152.4804 378.0985 L153.0744 378.0567 L153.3938 378.3812 L153.8159 378.631 L154.0299 378.7254 L154.1745 378.9284 L154.2639 379.187 L154.3087 379.7145 L154.3122 379.9148 L154.3776 380.1444 L153.9865 380.3849 L154.0585 380.5026 L154.4746 381.2419 L155.2761 382.0515 L155.5083 382.2138 L156.698 382.894 L157.2385 383.088 L157.5908 383.227 L157.1956 384.2114 L156.4229 384.4388 L156.1525 384.0866 L156.1237 383.6634 L155.6035 383.3334 L154.7526 382.9886 L154.1857 382.8327 L153.8664 382.6132 L153.2817 382.2781 L152.8818 382.0085 L152.6269 381.7347 L152.4051 381.4137 L151.8279 380.9206 L151.4146 380.6361 L150.7649 379.8407 L150.2853 379.2469 L150.1002 378.9437 L149.7213 378.0036 L149.4861 377.8553 L148.9231 377.9576 L148.7043 378.0041 L148.3088 376.043 L147.9754 375.5379 L147.0848 375.1956 L143.6948 373.9955 L143.299 373.828 L142.17 373.0181 L140.3962 373.017 L139.8799 372.9433 L139.2273 372.9102 L138.6279 372.8531 L137.9407 372.8347 L137.6942 372.8506 L137.4328 372.8807 L136.6651 373.1921 L136.5428 373.281 L135.8956 372.9625 L135.2828 374.1599 L135.124 374.7556 L135.3077 375.779 L135.3548 376.2294 L135.2968 376.6316 L135.1694 376.9862 L134.847 376.9318 L134.8613 377.0111 L134.9419 377.5967 L135.006 379.9996 L134.9996 380.3671 L134.7423 381.5669 L134.2796 381.4742 L133.5527 381.098 L133.2165 380.8205 L132.9572 380.5797 L132.8449 380.4358 L132.4105 380.3989 L131.8578 380.4005 L131.5162 379.0986 L131.4581 378.7314 L131.4285 378.3645 L131.4964 377.5513 L131.6996 376.7638 L131.4241 376.4871 L131.0965 376.0523 L131.045 375.5273 L130.7416 374.8566 L130.7558 374.6453 L130.7564 374.4743 L129.1883 372.5737 L129.1498 372.5359 L129.3997 372.1542 L129.8537 371.7205 L130.1198 371.2895 L130.3588 371.0024 L130.3497 370.3309 L129.9976 369.4312 L130.0229 368.6237 L130.1048 368.24 L130.107 368.0378 L130.1039 367.9856 L129.8218 368.0575 L129.6098 367.9267 L129.3605 367.6555 L129.2769 367.5354 L128.7578 367.1654 L128.4677 366.9785 L127.9104 366.8163 L127.3492 366.5191 L127.2202 366.3784 L126.7182 366.2654 L126.4153 365.9228 L125.9418 365.0928 L125.7281 364.5671 L125.6985 364.1769 L125.757 363.5858 L125.8912 363.0073 L126.3869 361.9885 L124.7947 360.4319 L124.7806 360.4484 L124.2536 359.9596 L122.3173 358.0828 L121.7951 357.55 L121.2999 356.9942 L120.7792 356.3568 L120.3148 355.772 L119.7436 354.9389 L119.0957 353.7805 L118.6072 352.9553 L118.0174 352.4077 L116.0664 352.0785 L115.2249 351.5125 L114.6737 351.3157 L114.4582 351.3675 L114.1744 351.6458 L112.9162 351.6247 L112.67 351.541 L112.2881 351.244 L112.2109 350.9348 L112.0605 350.775 L111.8563 350.7205 L111.5252 350.7027 L111.2185 350.3483 L110.7671 350.0639 L110.3389 349.7292 L110.2836 349.6791 L110.035 349.4837 L109.7531 349.3474 L109.2301 349.0204 L108.3911 348.6304 L107.5902 348.5757 L107.4083 348.6153 L106.6739 349.0007 L105.7333 349.4079 L104.6229 349.6945 L106.398 348.502 L106.7903 347.7888 L107.0515 347.5121 L106.6087 347.3764 L106.5085 347.2795 L105.5694 347.465 L104.7846 347.3794 L104.4747 347.4681 L104.019 347.1837 L103.6216 347.6826 L103.1388 348.0231 L102.5655 348.1635 L102.1626 348.1985 L101.2798 348.0078 L101.4546 347.3145 L101.8654 346.376 L102.5408 345.1833 L103.2946 344.2738 L103.8593 343.6753 L103.4573 342.8624 L105.6374 340.9739 L105.002 340.456 L104.5844 339.9409 L103.9835 339.2017 L103.7146 338.8584 L102.3627 337.1697 L102.1166 336.9406 L101.7633 336.7046 L101.3197 336.5251 L100.6703 338.2921 L99.9479 339.5408 L99.4808 340.8493 L99.4199 341.157 L99.2504 341.2821 L98.8623 342.3966 L98.3241 343.5431 L98.1922 344.5579 L97.8185 345.853 L97.576 347.3244 L97.9513 347.6071 L98.2405 347.9147 L98.3599 348.4249 L98.423 348.9364 L98.6561 349.5023 L99.5143 350.2339 L99.8107 350.7539 L99.8873 350.7134 L100.039 350.8538 L100.456 351.6269 L100.5851 352.1146 L100.5875 352.723 L100.465 353.6144 L100.3159 353.6327 L100.029 354.3483 L99.7622 355.4586 L99.2165 356.0963 L99.0991 356.5128 L98.6197 356.8628 L97.7508 358.2087 L97.7706 358.4197 L98.0258 358.6121 L97.9953 358.8888 L97.3554 359.4284 L96.5693 359.0617 L96.0441 359.3362 L95.3555 359.363 L94.2874 359.8422 L93.9586 361.5679 L93.4069 362.5853 L93.2096 363.582 L92.9145 364.9141 L92.2681 364.6005 L90.4925 363.9681 L89.9778 363.7506 L88.7493 362.9832 L88.2238 362.7671 L88.1307 362.714 L87.9057 362.3473 L87.3222 361.6021 L86.5237 361.2023 L85.1055 360.412 L84.7208 360.0901 L84.3712 359.6328 L84.032 359.0814 L83.9902 358.7856 L83.5047 358.3929 L82.6114 358.0204 L81.8907 357.7826 L81.2458 357.6348 L80.853 357.4206 L80.1721 356.822 L79.6076 356.425 L79.0013 355.755 L78.3851 355.238 L77.6403 354.7441 L77.1269 354.4805 L76.8276 354.148 L76.6845 353.8393 L75.3912 354.1092 L75.0008 354.315 L74.7001 354.4036 L74.5629 354.2832 L74.1452 354.0925 L73.8465 354.009 L73.3461 353.7309 L73.1391 353.4148 L73.0336 353.3221 L72.853 353.2112 L72.6383 353.1584 L71.7257 352.6332 L70.4464 352.154 L69.7106 351.6198 L68.7353 350.8469 L67.0042 349.4427 L66.1365 348.6457 L65.9371 348.5403 L65.0177 348.1109 L64.199 347.7817 L63.7901 347.0107 L63.7813 347.0956 L63.5593 348.2338 L63.414 348.2779 L63.4757 349.3212 L63.3374 350.463" stroke-dasharray="" fill="none" fill-opacity="1.0" stroke="#ff0000" stroke-opacity="1.0" stroke-width="1.0px" stroke-linecap="butt" stroke-linejoin="miter" stroke-dashoffset="0.0px"/>
</g>
</svg>