<?xml version="1.0" standalone="no"?>
<!DOCTYPE svg PUBLIC "-//W3C//DTD SVG 1.1//EN" "http://www.w3.org/Graphics/SVG/1.1/DTD/svg11.dtd">
<svg width="400px" height="400px" version="1.1" xmlns="http://www.w3.org/2000/svg" xmlns:inkscape="http://www.inkscape.org/namespaces/inkscape">
<rect x="0" y="0" width="400px" height="400px" fill="#ffffff"/>
<g id="layer" inkscape:groupmode="layer" inkscape:label="layer">
<path d="M0.0 165.0969 L0.6965 166.6779 L2.5442 170.362 L3.318 172.7927 L3.5018 173.3497 L2.9409 174.5965 L2.8149 176.8044 L6.3597 182.6301 L6.409 182.8536 L5.859 189.2555 L5.3779 190.9829 L5.0051 192.9627 L5.5458 195.3661 L6.7925 200.9093 L7.6014 202.6947 L9.2023 203.8374 L11.8582 206.5679 L13.2653 207.4826 L15.3948 208.0318 L16.9818 208.8397 L18.2952 209.8742 L27.0874 214.4684 L31.3981 218.2626 L32.356 220.2335 L31.4666 221.9088 L30.5771 223.3376 L30.5207 223.9921 L31.1927 224.668 L33.4509 226.7375 L36.8725 231.6017 L37.7006 234.2655 L39.1336 235.9465 L41.3007 238.4879 L41.6711 240.7575 L41.8758 241.6062 L42.7351 245.1701 L42.0075 246.2841 L41.6477 247.7427 L40.4464 250.1982 L38.456 251.7678 L36.6639 253.1515 L34.3805 254.2489 L32.4912 255.5978 L30.7492 257.4622 L28.713 259.2543 L26.778 260.4421 L24.932 262.0 L22.8951 263.4245 L21.4554 264.8348 L20.8916 265.9996 L20.331 268.0751 L19.9145 269.3723 L18.9984 272.2518 L18.0558 274.6353 L17.5562 275.8341 L17.3401 277.1053 L17.5637 279.3799 L19.9656 284.5141 L21.6892 289.7767 L23.1587 293.8317 L27.7132 306.0844 L30.1737 312.7045 L32.5629 318.8289 L31.0997 322.9694 L28.459 326.6603 L26.0077 330.4062 L24.0649 333.6174 L21.6012 337.6376 L19.5945 340.8509 L19.4522 344.4496 L22.3175 345.3337 L23.3209 345.7463 L24.3544 346.2502 L25.2595 346.8856 L26.2007 348.0514 L27.7189 349.4032 L29.0515 349.6249 L31.9895 350.0496 L34.7381 350.3398 L36.4099 350.5378 L37.8514 350.6464 L39.3511 350.9001 L40.1012 351.1119 L41.5058 351.3134 L43.4774 351.3287 L43.593 351.4702 L45.8942 351.2055 L46.8933 351.0711 L47.5749 350.9689 L50.0506 350.8713 L55.2721 350.3175 L60.5234 349.6906 L62.9594 348.8742 L65.7974 348.2047 L68.3061 347.7761 L70.536 347.4816 L72.2255 347.0662 L73.435 346.049 L74.7169 343.5026 L75.0958 342.7494 L76.5526 341.3522 L76.8023 341.2142 L80.2215 340.3641 L81.7716 340.0083 L85.0083 338.6072 L86.4133 338.7612 L88.4768 338.9829 L90.0003 338.6132 L91.7955 338.891 L94.2031 340.8158 L96.659 342.6625 L98.9396 343.7212 L101.8393 344.0001 L106.0011 343.0712 L109.6267 341.4874 L111.5145 340.489 L115.6067 339.6709 L116.7204 341.0461 L118.207 341.3143 L118.8793 340.1846 L119.7965 339.6052 L122.2275 340.3492 L123.5644 339.3835 L122.0923 337.3268 L124.2945 335.1412 L128.6929 332.415 L130.5967 331.5781 L140.2176 330.9898 L143.2273 334.5303 L144.644 336.2021 L147.085 338.3039 L150.8766 339.2011 L153.1892 340.2769 L156.6076 342.2807 L158.432 343.5814 L159.5606 346.2189 L159.0433 348.2955 L158.9216 349.6335 L160.1527 350.5009 L158.3628 351.6607 L157.6773 352.822 L158.2758 353.9261 L160.1509 355.1164 L162.3758 356.3656 L163.6424 357.3782 L162.7885 359.9239 L162.9641 360.7115 L164.517 362.8825 L165.7258 363.7496 L166.8327 364.853 L167.9 366.0675 L169.5714 367.5232 L171.7991 368.5329 L172.9774 368.9679 L175.2005 369.4823 L176.4632 370.5584 L177.9129 371.4649 L178.868 371.941 L180.4358 372.707 L181.788 373.3868 L183.3579 373.7377 L186.3563 373.8285 L188.094 373.9449 L189.7853 374.2997 L191.56 374.5452 L194.1386 373.8725 L195.1282 373.3755 L197.4783 372.4566 L200.0949 371.7055 L201.8511 371.5032 L203.5506 371.9059 L204.9449 372.4275 L206.7505 373.2807 L208.6309 373.9925 L209.5739 374.2926 L210.3956 373.0718 L210.9711 371.9073 L211.5671 370.3924 L212.6258 369.2744 L213.9467 369.1549 L215.8285 368.7011 L217.3673 368.4442 L219.5961 367.9049 L221.5109 367.2603 L222.5959 366.8303 L223.7206 366.2896 L224.7065 365.6644 L225.5218 364.9389 L226.1229 364.478 L226.6817 364.1753 L227.3501 364.4514 L228.026 364.7913 L228.8058 365.2461 L229.3972 365.7112 L232.3612 364.875 L233.5519 364.9112 L234.2959 364.6465 L235.291 364.2452 L236.3019 363.9568 L237.6671 363.8386 L238.8557 363.9064 L239.8853 364.2413 L240.9213 364.6561 L242.3433 364.891 L244.2293 364.5493 L245.9409 364.3616 L247.5193 363.9944 L249.3192 363.8096 L251.1666 363.5623 L253.4866 363.1699 L255.7448 363.079 L258.6964 363.0251 L261.2197 363.1181 L263.9132 363.1362 L265.8213 363.37 L268.2573 363.4441 L270.5972 363.4675 L272.5475 363.5431 L274.755 363.5623 L276.8355 363.6737 L279.0466 363.8213 L281.5251 363.9288 L283.7483 364.0604 L285.6443 364.1182 L287.4225 364.3002 L287.6478 364.3187 L289.9064 364.5039 L292.4638 364.5819 L294.2367 364.6681 L295.521 364.8033 L296.7152 364.7757 L298.3086 364.7207 L299.043 362.3553 L299.9719 360.0679 L300.5325 357.6574 L300.8635 356.1506 L301.5142 353.7107 L302.0595 352.1305 L302.9479 349.9694 L304.0832 347.7364 L305.005 345.3848 L305.7323 343.7141 L306.0974 343.1344 L307.2522 342.0838 L308.1782 340.9783 L309.5878 339.9192 L310.5284 339.1334 L311.5977 338.224 L313.2734 336.1989 L314.082 335.2175 L314.8728 334.1556 L315.2762 333.114 L315.4923 332.0666 L315.6353 331.3201 L316.2242 330.5076 L316.8494 329.8243 L317.3493 329.025 L317.5309 328.1841 L317.7587 327.1212 L317.8371 325.9734 L318.0745 324.98 L319.8048 324.2452 L321.2712 323.5392 L322.9993 322.506 L324.6332 321.5821 L325.7564 320.8818 L326.8176 319.9242 L327.2753 319.0915 L327.0475 318.0785 L325.9963 317.1678 L324.7946 316.7477 L323.4453 316.4029 L320.7585 316.4486 L319.2914 316.228 L319.4362 314.5076 L319.7785 313.1923 L319.8999 311.8704 L319.7594 309.742 L319.7778 307.9219 L319.7959 306.2934 L319.9087 304.556 L319.7232 303.3845 L319.5628 301.7826 L319.5586 300.5369 L319.8179 299.315 L319.5472 299.1092 L319.5142 298.5607 L319.7516 297.6521 L319.6515 297.1408 L318.1376 297.1692 L317.742 296.8197 L317.3681 296.0974 L316.8994 295.5886 L316.3374 294.9922 L316.2789 294.46 L316.1817 293.2076 L316.2285 292.0393 L316.3509 291.1054 L316.4793 290.1439 L316.9459 289.263 L317.4341 288.2348 L317.488 287.7374 L317.9326 286.7397 L318.9909 285.6186 L319.4908 285.2904 L319.9119 284.4169 L320.8656 282.9363 L321.8374 281.7013 L322.5356 280.5525 L325.3342 279.4739 L327.2654 278.3059 L328.7282 277.696 L330.0626 276.7686 L330.5032 275.8639 L330.4628 275.0873 L330.654 274.1545 L331.0517 273.7593 L331.8163 273.2324 L332.473 272.4277 L333.1876 271.6252 L333.7478 271.2449 L335.3749 271.1207 L338.2118 271.203 L339.306 271.1977 L340.9703 270.5789 L342.4682 270.2273 L343.9172 270.1241 L345.6085 270.1908 L347.1543 269.7913 L348.7793 269.186 L351.9079 268.938 L353.3788 268.3583 L354.1682 267.5692 L354.5571 266.7709 L355.7801 263.7527 L356.3946 261.8648 L356.6976 260.5723 L357.3184 259.4938 L357.9613 257.6414 L357.5721 256.2517 L357.2329 256.0604 L357.3536 254.7811 L358.2782 252.5994 L358.5836 250.8091 L359.02 249.8654 L359.4444 248.1 L360.7205 246.4608 L362.0567 244.8334 L362.7163 244.3189 L363.9009 242.5843 L365.8019 241.1219 L367.2388 239.801 L368.741 238.4013 L369.6134 237.3781 L369.7021 236.3432 L369.5811 236.0154 L369.2544 235.685 L368.7853 234.2943 L368.8854 233.1082 L370.7012 231.4779 L372.1073 230.8329 L373.3905 230.4685 L374.3105 230.234 L375.5949 229.8842 L376.3545 229.6922 L377.7772 229.2527 L378.462 228.9617 L378.7834 228.443 L379.527 226.5938 L380.1188 224.9174 L380.1994 223.4302 L380.0333 223.191 L382.8287 219.8535 L384.1667 219.5509 L386.0052 219.2138 L386.8666 218.6121 L388.3035 218.0813 L389.5673 217.5335 L390.0612 217.029 L389.9526 216.4922 L391.8674 215.177 L393.277 213.8617 L395.1074 213.006 L396.0473 212.1995 L396.8913 210.4362 L397.4231 209.5524 L398.2856 208.884 L400.0 207.5628 L399.6179 205.1729 L399.3674 202.0681 L399.2145 200.1724 L399.0697 197.647 L399.4703 197.5434 L398.1842 194.6824 L398.1508 194.1849 L397.6144 192.6569 L396.6458 189.6092 L395.8656 187.3946 L394.3155 183.4067 L393.1965 180.1838 L392.9457 179.3042 L392.395 178.1402 L391.2895 175.6949 L390.6473 174.4982 L389.8458 173.6847 L389.3186 173.3696 L388.1375 171.5577 L387.2441 170.383 L386.1553 168.8886 L384.5243 166.9869 L383.0516 164.9405 L381.2918 162.5978 L380.4247 161.5816 L378.9399 160.2423 L377.3809 158.7887 L374.418 156.1501 L373.5523 155.1911 L372.4823 154.0263 L370.7406 152.0696 L368.8645 150.0179 L365.5929 146.1297 L366.317 144.8202 L367.5759 142.889 L368.9265 140.6215 L370.3305 138.446 L371.2182 137.0481 L372.9581 134.1093 L374.9751 130.8087 L375.2958 130.2361 L375.8755 129.7159 L375.6194 129.3973 L373.0272 127.1369 L370.7339 125.2455 L369.5396 124.3877 L369.5013 122.6087 L369.447 120.0819 L369.1721 116.104 L368.8815 110.7317 L368.9155 110.3929 L367.0224 106.7832 L365.8228 103.8831 L364.051 99.9332 L370.1932 98.8738 L372.4205 98.6804 L374.0356 98.7954 L375.3377 98.8128 L377.2809 98.3824 L378.4361 98.0454 L380.1344 97.0072 L381.0484 96.408 L382.7486 96.2608 L384.6275 96.154 L384.9809 95.9822 L385.4539 95.4713 L386.3071 94.4708 L386.7024 93.8262 L386.806 93.1751 L386.7549 92.4737 L386.6101 91.7173 L387.0043 90.9417 L386.4175 90.1537 L386.3738 89.4572 L385.4407 87.9348 L384.9415 87.4431 L384.371 86.361 L383.6802 85.5045 L383.5426 84.5629 L383.0757 82.0531 L383.1938 81.4198 L382.9951 81.0004 L382.9575 79.8974 L383.1019 78.271 L383.433 77.7583 L383.4305 77.4294 L383.1676 75.9542 L382.4317 75.0275 L381.4376 74.2044 L381.499 73.5242 L380.6996 71.5292 L380.2111 70.3378 L380.6709 68.7682 L380.4346 68.3616 L380.38 67.1 L379.9606 66.5678 L379.2358 66.1733 L378.9665 65.7922 L378.5297 65.0766 L378.5971 64.9698 L379.1914 64.9024 L379.3546 64.6406 L379.3947 64.3638 L379.5654 63.8817 L379.4156 63.5215 L379.3287 63.2104 L380.2487 62.9078 L381.786 62.3121 L381.7676 62.0414 L382.1624 61.3885 L383.3638 59.9459 L383.7569 59.4283 L385.0934 58.7936 L385.071 58.4356 L384.9 57.8591 L385.0973 57.3861 L385.8118 56.7727 L385.8541 55.4262 L386.2667 54.7294 L386.8617 54.2089 L387.5017 54.0486 L388.316 53.7105 L389.7217 52.9292 L390.4227 52.5719 L390.432 52.5737 L391.744 52.308 L392.5476 52.3186 L394.1637 52.2902 L394.6238 52.0915 L395.5438 51.9496 L397.6722 51.9024 L398.4662 52.0185 L399.5175 52.0515 L398.6653 48.9484 L398.0792 46.1874 L398.0401 46.003 L397.4771 44.3159 L396.5511 40.4465 L396.0164 38.5154 L396.1831 36.9103 L396.4727 34.623 L395.3888 32.5815 L394.3588 30.3247 L394.1488 29.9284 L393.6673 29.7754 L390.6583 28.2122 L390.565 28.5103 L388.9936 28.9711 L388.1325 28.7969 L384.619 29.0893 L381.075 29.2521 L379.1439 29.6215 L377.0045 29.5161 L376.3953 28.9314 L376.0022 27.7989 L376.0884 26.8285 L377.0868 25.9657 L377.1343 25.4548 L375.735 25.5222 L374.2325 26.125 L373.0911 26.6905 L372.24 27.0524 L371.6141 27.586 L371.8437 28.0394 L372.7608 28.2612 L373.2359 28.5532 L373.5789 29.0396 L373.3661 29.7503 L372.4699 29.9326 L371.5236 29.6736 L369.5393 28.7018 L367.9526 27.9383 L366.4646 27.1979 L365.7004 28.0437 L364.156 30.0107 L363.7842 30.1866 L363.5759 29.7435 L361.7463 29.587 L360.6879 29.471 L359.3269 29.2958 L357.0534 29.0634 L356.6848 29.6296 L356.1331 30.5943 L356.9204 30.9094 L359.7356 31.5203 L359.3227 32.3512 L358.611 33.477 L357.5033 35.0494 L357.7183 36.0468 L356.9569 36.4924 L354.446 36.5924 L353.9752 36.8401 L354.0873 37.4865 L354.5092 37.7934 L355.4824 38.9302 L355.548 39.3034 L354.39 40.179 L353.1613 41.2636 L351.9611 41.9335 L351.6283 43.2122 L350.918 44.0342 L350.064 44.4316 L348.7342 44.1059 L347.369 43.7709 L346.5959 43.6791 L344.8304 43.9221 L342.2898 45.0663 L341.0704 45.9494 L340.0766 47.0265 L339.5653 47.7329 L339.0079 47.9664 L336.9072 46.5195 L336.3594 46.4954 L335.7286 46.4511 L334.5564 46.4443 L333.8929 46.4571 L332.5546 46.4546 L331.6382 46.4241 L331.1195 46.318 L330.5894 46.2094 L329.8784 45.9909 L329.2217 45.9096 L327.061 48.1086 L325.2431 50.3619 L324.6637 50.5805 L324.173 51.0148 L324.3153 51.7329 L324.537 52.0564 L324.2929 52.1841 L323.8757 52.1196 L323.5762 51.9762 L323.2495 51.951 L322.762 52.4371 L322.5307 52.9519 L322.4068 53.1307 L321.9896 53.5238 L321.8083 53.7137 L321.2559 54.05 L320.6595 54.2796 L320.188 54.8181 L319.114 55.5675 L318.3732 56.1163 L317.5891 56.8539 L316.5921 57.8278 L316.1146 57.8647 L315.3557 57.7622 L313.7907 57.7299 L312.3939 57.1246 L311.2614 56.7844 L309.1901 56.5868 L308.1151 56.6595 L307.2377 56.9696 L306.8229 57.3145 L305.8458 57.6171 L305.2505 57.9378 L305.0575 58.2461 L304.2986 58.4076 L304.1414 58.844 L303.8235 59.0139 L303.2732 59.1814 L302.9983 59.4748 L302.5278 59.6224 L302.2053 59.6912 L301.8792 59.8392 L301.2424 60.0527 L300.7421 60.1929 L300.4796 60.3295 L300.1713 60.4764 L299.7842 60.6318 L299.4564 60.7779 L299.0955 60.9021 L298.5939 61.1239 L297.7867 61.27 L297.3787 61.2835 L296.8664 61.5067 L296.3565 61.6426 L295.8371 61.8026 L295.1705 62.2251 L294.931 62.5264 L294.529 62.6204 L294.3431 62.7637 L293.565 63.0142 L292.952 63.3761 L292.6915 63.4939 L292.3194 63.6074 L291.9461 63.623 L291.7371 63.7561 L291.1436 63.794 L289.5914 64.129 L289.0013 64.0463 L288.698 64.0892 L288.4443 64.2968 L288.1197 64.3539 L287.7603 64.2964 L287.0244 64.3322 L286.4383 64.4316 L285.6759 64.7623 L285.0788 64.8485 L284.4965 65.0482 L284.058 65.1667 L283.6227 65.1962 L283.2019 65.2515 L282.835 65.2834 L282.5675 65.2057 L282.2833 65.1806 L281.3282 64.9844 L280.9674 64.9879 L280.7893 64.9003 L280.2106 64.9279 L279.7881 64.8545 L279.1746 64.8087 L278.6786 64.9822 L278.2735 64.7832 L277.7399 64.7647 L276.8426 64.8531 L276.3051 64.9758 L275.9304 65.0369 L274.1746 65.0759 L273.6271 65.1266 L273.4242 65.099 L272.4286 65.3885 L271.9795 65.4839 L271.0591 65.6336 L269.7127 65.546 L269.0925 65.5591 L268.6735 65.6954 L268.0551 65.7983 L267.6368 65.8685 L267.0528 66.1268 L266.8059 66.3734 L266.3982 66.5203 L265.8664 66.8538 L265.3679 66.8087 L265.127 66.7356 L264.852 66.8381 L264.1999 67.0368 L264.0977 67.2504 L263.8543 67.3977 L263.3197 67.536 L262.9918 67.6428 L262.763 67.7922 L262.1261 67.9231 L261.8008 68.0104 L261.1441 68.2754 L260.6672 68.3811 L260.4916 68.5227 L260.2465 68.5734 L259.6692 68.8704 L259.3683 69.045 L258.9912 69.0602 L258.6456 69.0343 L258.2383 69.0801 L258.1181 69.1223 L257.1683 68.9229 L257.004 69.0024 L256.4576 68.9981 L256.2015 69.1759 L255.8846 69.2951 L255.7111 69.4239 L255.4124 69.6847 L255.0526 70.0483 L254.8905 69.9937 L254.4715 70.0763 L253.1818 70.2371 L252.8178 70.3662 L252.4996 70.5472 L252.0153 70.8413 L251.3426 71.0651 L250.4929 71.2418 L250.1916 71.5541 L249.9933 71.8319 L249.5885 71.8453 L249.0939 71.9645 L248.6713 72.1093 L248.1211 72.4127 L247.7496 72.5613 L247.2791 72.809 L247.0329 73.1794 L246.3528 73.4188 L245.9338 73.3656 L245.5538 73.3898 L245.0698 73.3858 L244.7615 73.3915 L244.4167 73.4717 L243.9498 73.5455 L243.3314 73.6789 L242.895 73.7343 L242.5966 73.9333 L242.3443 73.9925 L242.2393 74.1149 L241.9033 74.3523 L241.5113 74.5542 L241.22 74.6042 L240.9337 74.8029 L240.3738 75.0058 L240.1691 75.1836 L239.9232 75.2269 L239.8335 75.4518 L239.2495 75.6721 L238.949 75.7009 L238.5576 76.011 L238.1148 76.281 L237.704 76.1745 L237.0586 76.4232 L236.7471 76.4307 L236.4384 76.4545 L236.15 76.4527 L235.8154 76.5375 L235.3588 76.7535 L234.8174 76.9813 L234.558 77.1768 L234.1855 77.2747 L233.8861 77.5089 L233.0917 78.2266 L233.0729 78.4874 L232.6684 78.6978 L232.2508 78.7876 L231.5569 78.9692 L231.0378 79.3066 L230.8476 79.5706 L230.666 80.2025 L230.6979 80.3788 L230.3403 80.7733 L228.5617 81.6653 L226.5649 82.5714 L225.4789 83.066 L223.8351 83.7174 L220.9379 84.6771 L217.6004 85.7731 L215.4599 86.6352 L213.9591 87.2125 L211.0105 88.6657 L206.5968 90.9807 L201.5116 93.5622 L191.7009 98.4406 L190.221 99.2538 L188.0763 100.2919 L185.6506 101.5276 L177.2207 105.777 L176.0297 106.3386 L175.1157 106.8758 L174.8645 107.2455 L172.2699 109.282 L170.7319 110.5532 L169.3589 111.6499 L165.9433 114.357 L163.6251 116.2735 L161.8891 117.7087 L159.6063 118.1813 L158.4525 118.4144 L156.7556 118.7408 L153.3939 119.2843 L153.0118 119.2776 L150.7628 121.5734 L148.3087 124.0701 L145.8496 126.6037 L142.3308 130.1012 L140.9896 131.4094 L138.8144 133.7531 L137.1267 135.306 L135.5982 136.7614 L134.4856 137.6707 L130.7099 139.0988 L129.2166 139.9787 L126.9622 141.4514 L125.3479 142.7194 L124.0657 143.847 L122.2651 145.4765 L121.5328 146.4629 L119.4186 149.2948 L117.7809 151.2611 L115.0986 151.0663 L114.481 151.0461 L113.3995 151.0109 L109.0104 150.6679 L101.586 150.1477 L100.2775 150.0871 L99.0514 150.0104 L94.8882 149.7266 L94.3603 149.7457 L88.4651 149.238 L84.4531 148.8378 L81.1549 148.5444 L77.1585 148.3933 L74.4827 148.2428 L71.5003 148.0889 L71.0877 148.2148 L66.5279 147.7458 L65.4656 147.6322 L63.1009 147.38 L61.3461 147.3548 L60.6908 147.3452 L59.8603 147.3459 L59.4867 147.3463 L58.6643 147.1139 L57.9444 148.6441 L57.5662 149.4254 L56.5068 151.1376 L55.4392 152.8012 L52.8208 155.669 L48.4913 160.3633 L46.2589 163.1239 L44.9189 164.685 L43.8573 163.5784 L43.4919 163.6685 L42.7422 163.936 L41.9539 163.8605 L41.3624 163.6146 L40.5478 163.0849 L39.8003 163.0459 L39.0762 163.2172 L38.5688 163.7281 L38.209 164.4657 L37.552 165.374 L37.1049 165.4294 L36.3144 165.1799 L34.5298 165.1753 L33.3604 165.005 L32.5859 165.5191 L31.7178 165.8281 L29.7664 166.2784 L29.0898 166.2159 L28.2759 165.7636 L26.6463 164.7148 L23.5086 163.3833 L18.9509 163.0356 L16.0306 162.2146 L12.6743 160.4105 L10.4398 159.5625 L7.8558 159.2347 L6.8177 158.6674 L5.6355 157.2908 L4.0908 154.4138 L3.8005 154.589 L3.4149 155.145 L2.128 156.656 L1.18 157.9095 L0.5223 159.5253 L0.1256 160.5978 L0.0965 162.6382 L0.0 165.0969" stroke-dasharray="" fill="none" fill-opacity="1.0" stroke="#008000" stroke-opacity="1.0" stroke-width="1.0px" stroke-linecap="butt" stroke-linejoin="miter" stroke-dashoffset="0.0px"/>
</g>
</svg>