<?xml version="1.0" standalone="no"?>
<!DOCTYPE svg PUBLIC "-//W3C//DTD SVG 1.1//EN" "http://www.w3.org/Graphics/SVG/1.1/DTD/svg11.dtd">
<svg width="512px" height="512px" version="1.1" xmlns="http://www.w3.org/2000/svg" xmlns:inkscape="http://www.inkscape.org/namespaces/inkscape">
<g id="layer" inkscape:groupmode="layer" inkscape:label="layer">
<path d="M0.0 294.9593 L0.8524 304.9264 L1.3418 306.5506 L6.7719 315.1149 L15.9906 321.2674 L14.8067 325.2296 L26.4721 328.7981 L27.0404 326.9031 L79.5585 343.8594 L78.9113 345.8035 L108.5879 355.2291 L109.1877 353.3342 L180.5536 376.2706 L179.8906 378.3378 L190.6247 381.7832 L190.3721 382.5707 L197.6018 384.9086 L196.1338 388.4771 L208.2097 392.4146 L220.617 396.4507 L221.8483 392.71 L228.9359 394.9987 L229.1885 394.2112 L240.0962 397.7304 L240.7434 395.6139 L311.8883 418.4764 L311.2884 420.3222 L340.9019 429.7231 L341.4859 427.8281 L384.8327 441.7819 L384.2328 443.6522 L395.8193 448.3034 L396.0403 447.639 L406.9007 448.328 L417.6032 446.3101 L420.5235 444.9073 L431.3523 437.7951 L431.9364 438.2873 L439.5765 428.1235 L438.0611 426.8191 L466.7274 393.0545 L489.1111 366.6727 L490.6108 367.9524 L512.0 342.8257 L488.9691 322.744 L487.58 324.3683 L447.3903 289.8896 L448.7794 288.2654 L425.8274 268.6019 L406.0167 291.7354 L348.1316 242.0968 L349.8048 240.1034 L342.3857 233.7786 L345.4323 229.6195 L345.1639 229.3734 L350.3415 223.2947 L340.4599 214.8288 L329.0154 205.0093 L323.8378 211.088 L323.5695 210.8665 L319.8125 214.5581 L312.3934 208.2332 L310.8149 210.079 L252.7561 160.2924 L272.2353 137.454 L249.3622 117.6427 L247.9889 119.267 L207.6256 84.7878 L209.0305 83.1881 L185.9838 63.672 L152.8975 102.4827 L155.9915 105.0175 L147.9094 114.3695 L146.4255 113.1144 L31.0657 248.8892 L32.6285 250.2182 L28.7137 254.8695 L24.7831 259.5208 L21.7523 256.9121 L2.3362 279.9718 L5.1145 282.8758 L3.3307 285.4844 L0.663 291.6616 L0.0 294.9593 M41.8629 277.7815 L43.694 275.5912 L47.6088 270.9399 L51.5236 266.264 L52.9759 264.5659 L61.5789 271.8751 L62.5892 272.5396 L63.6784 273.0564 L64.8307 273.4501 L65.9988 273.6962 L67.2143 273.7947 L68.414 273.7208 L69.5979 273.524 L70.7502 273.1794 L71.8552 272.6872 L74.8702 270.4477 L75.7542 269.4141 L76.5119 268.3066 L77.1118 267.1007 L77.5538 265.821 L77.8379 264.4921 L77.9484 263.1385 L77.8852 261.8096 L77.6485 260.456 L74.2862 254.8941 L66.6934 248.4955 L93.4339 217.1421 L113.5445 234.1232 L120.9952 225.4604 L122.921 227.1093 L139.622 207.4949 L137.6962 205.846 L145.1627 197.134 L125.0363 180.1037 L151.8241 148.701 L161.0113 156.0841 L162.1162 156.6255 L163.2686 157.0439 L164.4683 157.3392 L165.6995 157.4623 L166.9308 157.4623 L168.162 157.3146 L169.346 156.9947 L170.4983 156.5763 L171.6033 155.9856 L172.6135 155.2965 L173.6554 154.3614 L174.5867 153.3277 L175.3602 152.171 L175.9916 150.9159 L176.4652 149.587 L176.7651 148.2334 L176.8914 146.8306 L176.844 145.4524 L176.623 144.0496 L173.0397 138.6107 L165.8416 132.2613 L167.1518 130.7354 L175.1866 120.719 L175.8653 121.2604 L182.9688 113.1144 L195.1078 123.4015 L191.7455 127.29 L208.7937 141.7609 L212.0771 137.8478 L224.0424 147.9873 L212.0613 162.3597 L215.9445 165.6821 L160.1431 231.6621 L198.9278 265.378 L197.223 267.396 L212.2507 279.7749 L212.6769 279.2827 L296.9079 348.8059 L296.4817 349.3228 L315.2032 364.7778 L318.013 361.4554 L334.7929 375.803 L330.594 380.5527 L328.1788 384.1211 L323.7431 392.6361 L320.6965 391.6517 L320.223 393.0791 L248.5414 369.9458 L250.925 362.0707 L241.9904 359.1913 L242.3851 357.9362 L240.9012 357.4686 L241.1854 356.8534 L237.9967 350.7501 L208.3991 341.3245 L202.5427 344.2285 L201.8481 346.2465 L191.3824 342.875 L188.8567 350.6763 L117.2383 327.5676 L117.7119 326.0417 L88.714 316.69 L88.1931 318.2158 L49.8661 305.8862 L51.2079 296.4851 L47.6246 284.3032 L41.8629 277.7815 M199.0225 223.3931 L234.6818 181.6542 L251.4775 196.002 L215.5814 237.8393 L199.0225 223.3931 M229.5989 259.004 L269.8991 211.7279 L292.7879 231.2684 L291.2725 233.0649 L299.2757 239.9558 L286.8684 254.5496 L260.4752 285.6075 L229.5989 259.004 M282.0538 303.8435 L285.4793 299.7337 L287.4998 301.481 L310.3413 274.6806 L308.1629 272.8103 L320.586 258.3149 L328.6208 265.255 L330.2941 263.2862 L353.2618 282.9004 L312.9617 330.3239 L282.0538 303.8435 M345.7006 399.6745 L363.7118 378.6331 L370.247 384.0227 L371.2257 382.8414 L370.4364 382.2016 L412.0941 333.1048 L412.8676 333.7693 L413.9094 332.5634 L412.2046 330.6684 L422.9545 318.2158 L429.5528 323.8515 L426.2536 327.7152 L448.6058 346.8864 L451.826 342.998 L464.5806 353.9002 L446.2222 375.3846 L426.3483 398.6409 L422.323 395.4663 L412.6782 398.2472 L412.0467 397.1643 L411.289 396.2046 L410.4051 395.3186 L409.4264 394.5803 L408.353 393.9405 L407.2006 393.4729 L406.0009 393.1529 L404.7854 392.9807 L403.5384 392.9807 L402.3071 393.1529 L401.1232 393.4483 L399.9709 393.9158 L398.7554 394.1866 L397.5715 394.5803 L396.4507 395.1463 L395.3931 395.8108 L394.446 396.6229 L393.5936 397.5335 L392.8675 398.5425 L392.2518 399.6499 L391.794 400.8066 L391.4783 402.0125 L391.3047 403.2676 L391.2889 404.4981 L381.7861 407.3036 L379.9234 412.2255 L349.2997 402.357 L349.7259 400.9789 L345.7006 399.6745" stroke-dasharray="" fill="none" fill-opacity="1.0" stroke="#ff0000" stroke-opacity="1.0" stroke-width="1.0px" stroke-linecap="butt" stroke-linejoin="miter" stroke-dashoffset="0.0px"/>
</g>
</svg>