<?xml version="1.0" standalone="no"?>
<!DOCTYPE svg PUBLIC "-//W3C//DTD SVG 1.1//EN" "http://www.w3.org/Graphics/SVG/1.1/DTD/svg11.dtd">
<svg width="512px" height="512px" version="1.1" xmlns="http://www.w3.org/2000/svg" xmlns:inkscape="http://www.inkscape.org/namespaces/inkscape">
<g id="layer" inkscape:groupmode="layer" inkscape:label="layer">
<path d="M0.0 76.4111 L269.2015 86.3559 L268.263 118.0752 L267.5956 118.0752 L267.679 115.4752 L247.637 114.9877 L247.5744 117.5552 L231.7035 117.1002 L231.62 119.5701 L228.9714 119.4726 L228.0121 153.7268 L230.5356 153.7918 L228.3666 224.6073 L225.8431 224.6398 L225.2591 243.9443 L191.0354 243.2943 L188.6371 282.683 L214.7689 283.5605 L214.2266 307.8371 L214.1641 306.0822 L213.8512 304.5548 L213.3299 303.0923 L212.6416 301.6949 L211.7448 300.4274 L210.7021 299.2899 L209.5133 298.315 L208.1994 297.5025 L208.3454 291.0352 L201.9011 290.9052 L201.7968 296.2025 L200.2327 296.4625 L198.7311 296.95 L197.3129 297.6 L195.999 298.4775 L194.8103 299.5174 L193.7884 300.7199 L192.9333 302.0523 L192.2659 303.4823 L191.8071 304.9772 L191.5568 306.5372 L191.536 308.1296 L191.7237 309.6896 L192.1199 311.217 L192.7247 312.6795 L193.5381 314.0119 L194.5183 315.2469 L195.6445 316.3518 L196.9375 317.2618 L198.3348 317.9768 L199.8156 318.5293 L201.3589 318.8217 L202.923 318.9192 L204.4872 318.8217 L206.0305 318.4968 L207.5112 317.9443 L208.8877 317.1968 L210.1807 316.2868 L211.3069 315.1819 L212.2662 313.9469 L213.0587 312.582 L215.624 312.6145 L215.4571 322.5591 L206.6144 322.4941 L205.9262 334.2587 L222.5479 334.7137 L222.5271 335.0062 L222.6939 335.0387 L222.6105 339.426 L228.2206 339.621 L228.3249 335.1687 L238.1478 335.3961 L238.0435 340.011 L243.9247 340.1735 L244.029 335.4936 L257.585 335.8186 L257.4807 340.8559 L275.9795 341.3434 L276.1255 336.2411 L277.064 336.2411 L277.1265 334.0962 L296.9809 334.7462 L294.6868 411.3781 L286.6783 411.1507 L286.282 427.0425 L326.8041 428.2774 L326.7415 430.1624 L342.9462 430.6498 L341.528 432.1123 L340.2975 433.7047 L339.2339 435.4271 L338.358 437.247 L337.6906 439.132 L337.2318 441.1144 L336.9815 443.0968 L336.9398 445.1442 L337.1275 447.1591 L337.5237 449.1415 L338.1286 451.0589 L338.9419 452.9114 L339.943 454.6663 L341.1317 456.2912 L342.4873 457.7861 L344.0098 459.1186 L345.6574 460.2885 L347.4092 461.2635 L349.2653 462.0759 L351.184 462.6609 L353.1653 463.0184 L355.1674 463.1484 L357.1487 463.0834 L359.1299 462.8234 L361.0903 462.3034 L362.9465 461.621 L364.74 460.711 L366.4293 459.6386 L367.9935 458.3711 L369.4116 456.9412 L370.663 455.3812 L371.7475 453.6913 L372.6442 451.9039 L373.3325 450.019 L373.833 448.0691 L374.1041 446.0867 L374.1667 444.1042 L374.0207 442.0893 L373.6662 440.1069 L373.1031 438.1895 L372.3314 436.3371 L371.3512 434.5822 L370.2042 432.9247 L368.8903 431.4298 L384.9698 431.8198 L385.0115 430.1299 L425.6795 431.4298 L426.2843 415.668 L416.8785 415.3105 L417.5459 397.8587 L430.6431 398.3462 L431.2062 378.5545 L418.6095 378.132 L420.6951 338.6785 L442.3221 339.3935 L442.6349 329.6114 L476.0244 331.4638 L476.0244 333.3812 L491.0195 333.8037 L491.4783 319.5692 L475.9619 319.4067 L475.941 319.9917 L442.9895 318.1393 L446.5141 206.4079 L444.6579 206.4079 L446.3264 156.3917 L446.8895 156.3917 L447.9114 125.8425 L488.8505 127.1425 L489.0174 123.015 L502.5734 123.4375 L502.907 112.7778 L510.9989 113.0378 L512.0 80.0835 L494.5232 79.2385 L494.7109 73.3886 L490.8318 73.2586 L491.228 62.9563 L169.1998 54.344 L0.7925 48.8516 L0.0 76.4111" stroke-dasharray="" fill="none" fill-opacity="1.0" stroke="#ff0000" stroke-opacity="1.0" stroke-width="1.0px" stroke-linecap="butt" stroke-linejoin="miter" stroke-dashoffset="0.0px"/>
</g>
</svg>