<?xml version="1.0" standalone="no"?>
<!DOCTYPE svg PUBLIC "-//W3C//DTD SVG 1.1//EN" "http://www.w3.org/Graphics/SVG/1.1/DTD/svg11.dtd">
<svg width="512px" height="512px" version="1.1" xmlns="http://www.w3.org/2000/svg" xmlns:inkscape="http://www.inkscape.org/namespaces/inkscape">
<g id="layer" inkscape:groupmode="layer" inkscape:label="layer">
<path d="M0.0 393.3 L4.188 397.9857 L5.7784 396.6123 L93.0909 492.669 L91.6065 494.1232 L96.0066 498.8089 L100.3007 494.8503 L97.438 491.7804 L113.766 476.9154 L116.6287 480.0661 L120.8697 476.0267 L118.0601 472.9568 L134.3881 458.0111 L137.1978 461.1618 L141.5448 457.1224 L138.7351 454.0525 L155.0101 439.1875 L157.8729 442.1767 L162.1139 438.3796 L159.3042 435.3097 L175.4202 420.4447 L178.2299 423.5955 L182.5769 419.6369 L179.7672 416.4861 L196.0422 401.6212 L198.8519 404.7719 L203.146 400.8133 L200.3363 397.7433 L216.5583 382.8784 L219.421 385.9483 L223.7681 381.9897 L220.9054 378.9198 L237.2334 363.974 L240.0961 367.0439 L244.4432 363.0853 L241.5805 359.9346 L257.9085 344.9888 L260.7712 348.1395 L265.0652 344.1809 L262.2025 341.0302 L278.4245 326.3268 L281.2342 329.3967 L285.5813 325.4381 L282.7716 322.3682 L299.0996 307.3416 L301.9093 310.4923 L306.2564 306.5337 L303.4467 303.383 L319.5096 288.7603 L322.3193 291.8303 L326.7724 287.7101 L323.9097 284.7209 L340.1847 269.7751 L342.9944 272.9259 L347.2885 269.048 L344.4788 265.8973 L360.7008 250.9515 L363.5635 254.1022 L367.9105 250.1436 L365.1008 246.9928 L381.2168 232.2894 L384.0265 235.4401 L388.3206 231.4815 L385.5109 228.4116 L401.7329 213.4657 L404.5956 216.6165 L408.8366 212.7386 L406.1329 209.5071 L422.1429 194.8036 L425.0056 197.8736 L429.2996 193.9958 L426.4369 190.9258 L442.6589 176.0607 L445.4686 179.2115 L449.7627 175.2529 L446.953 172.1021 L463.122 157.3178 L465.9847 160.3878 L470.2787 156.51 L467.416 153.44 L483.532 138.6557 L486.3947 141.8065 L490.6888 137.9286 L487.8261 134.7779 L503.677 120.236 L506.5397 123.3867 L512.0 118.3778 L506.8577 112.8034 L506.3806 113.2074 L505.7975 113.7729 L499.3299 106.7443 L481.7296 87.759 L418.0079 18.8463 L419.0151 17.9576 L414.668 13.1911 L410.215 17.2306 L413.1307 20.3005 L397.0677 35.0041 L394.152 31.8533 L389.8049 35.8927 L392.6676 39.0435 L376.4987 53.9086 L373.6359 50.8386 L369.2889 54.7973 L372.1516 57.948 L356.0356 72.5707 L353.2259 69.5008 L348.9319 73.3786 L351.7946 76.5294 L335.5196 91.4753 L332.7099 88.3245 L328.3098 92.2831 L331.1725 95.4339 L314.9505 110.2182 L312.1408 107.0674 L307.8468 111.0261 L310.7625 114.1768 L294.5405 128.9611 L291.7308 125.8912 L287.4367 129.769 L290.2994 132.9197 L273.9714 147.8656 L271.1087 144.7149 L266.7616 148.7543 L269.6244 151.8242 L253.4554 166.6085 L250.6457 163.4578 L246.4046 167.4164 L249.2673 170.5671 L232.9393 185.4322 L230.1296 182.3622 L225.8356 186.3209 L228.6453 189.3908 L212.3703 204.2559 L209.5606 201.1859 L205.2135 205.1445 L208.0232 208.2953 L191.9072 222.9987 L189.0975 220.0096 L184.8035 223.8874 L187.6132 226.9574 L171.3912 241.8224 L168.5285 238.7525 L164.2344 242.7111 L167.0971 245.8618 L150.8751 260.5653 L148.0654 257.5761 L143.7184 261.5347 L146.5281 264.6047 L130.3061 279.5505 L127.4434 276.3997 L123.0433 280.4392 L125.853 283.5899 L109.896 298.2125 L107.0333 295.1426 L102.6863 299.1012 L105.549 302.2519 L89.274 317.1169 L86.4643 313.9662 L82.2232 317.9248 L85.0329 320.9948 L68.7579 336.0213 L65.8952 332.8706 L61.6012 336.8292 L64.4639 339.8992 L48.2419 354.6834 L45.4322 351.6134 L41.1381 355.4913 L43.9478 358.642 L27.7788 373.507 L24.9691 370.437 L20.516 374.3956 L23.3788 377.5464 L7.1568 392.4113 L4.3471 389.2606 L0.0 393.3" stroke-dasharray="" fill="none" fill-opacity="1.0" stroke="#ff0000" stroke-opacity="1.0" stroke-width="1.0px" stroke-linecap="butt" stroke-linejoin="miter" stroke-dashoffset="0.0px"/>
</g>
</svg>