<?xml version="1.0" standalone="no"?>
<!DOCTYPE svg PUBLIC "-//W3C//DTD SVG 1.1//EN" "http://www.w3.org/Graphics/SVG/1.1/DTD/svg11.dtd">
<svg width="512px" height="512px" version="1.1" xmlns="http://www.w3.org/2000/svg" xmlns:inkscape="http://www.inkscape.org/namespaces/inkscape">
<g id="layer" inkscape:groupmode="layer" inkscape:label="layer">
<path d="M40.6431 152.1792 L41.6524 153.5415 L47.708 161.3632 L57.4883 169.9198 L62.2591 183.4245 L62.7 183.3756 L62.6946 183.357 L62.6686 182.4863 L63.4142 181.9349 L64.2382 182.1541 L64.7282 182.7459 L64.8168 183.1421 L66.3842 182.9693 L66.663 182.3278 L67.1822 181.8068 L67.8225 181.9729 L68.2877 182.2443 L68.7853 182.2401 L69.5001 181.736 L70.6633 181.1636 L72.4349 180.673 L76.0862 185.3507 L71.8547 192.3642 L71.8114 201.5986 L71.5413 207.0937 L72.2275 208.203 L72.7602 208.2317 L73.2351 207.9012 L73.6247 207.7537 L74.0958 207.4005 L74.6361 207.1435 L75.5956 207.0431 L75.9058 207.3011 L75.8798 207.6138 L76.0165 208.5646 L76.4952 211.251 L76.4877 214.2147 L75.3152 218.2716 L75.211 218.8785 L74.1985 223.5153 L74.0812 224.4517 L73.7489 225.2382 L72.9714 226.6542 L72.2518 228.0644 L71.5683 229.6852 L71.2598 229.7822 L69.4779 233.0567 L66.9278 240.8827 L65.3582 249.8675 L63.7271 255.86 L64.2474 259.4201 L64.2474 262.7408 L66.5868 263.7521 L66.0487 267.7158 L66.0671 267.7335 L66.0298 267.8558 L65.4414 272.1886 L62.0738 273.0667 L61.6961 273.3162 L61.42 273.237 L60.5269 273.4704 L60.4183 273.5488 L63.7071 274.7085 L64.2312 281.4254 L66.9866 282.9846 L69.6503 289.457 L69.3758 290.1708 L67.2028 295.7776 L59.7629 303.8889 L59.4393 304.5361 L58.8083 305.3704 L57.8401 305.9856 L55.063 309.0135 L54.7674 309.568 L53.7819 311.2079 L53.1265 313.1166 L52.7397 313.5649 L51.9347 314.2745 L51.5467 314.5669 L51.2885 314.7228 L51.1399 314.7548 L53.173 316.4596 L56.6022 319.3737 L56.6752 319.4074 L57.7098 320.3571 L58.1059 320.909 L58.2031 321.5099 L57.7731 323.3528 L57.317 324.2031 L57.8033 327.487 L57.9346 327.6657 L58.57 328.9887 L59.2248 330.1119 L59.2183 331.0987 L59.7765 331.5344 L59.8921 333.4809 L59.9904 334.6084 L60.0066 335.4654 L60.233 336.2499 L60.1774 337.3715 L60.528 338.4509 L60.6144 339.4571 L60.8543 339.9483 L60.7868 340.2887 L61.0078 340.6595 L61.0764 340.9401 L61.9798 341.369 L62.3299 341.8072 L62.4666 342.8175 L62.2812 344.0368 L61.9554 344.957 L61.8323 345.6142 L61.889 346.1839 L61.8247 347.1276 L61.8998 348.159 L62.0176 349.1221 L61.8755 349.7592 L61.5616 350.563 L61.3136 351.3012 L61.1326 352.0755 L61.1634 352.1935 L62.5579 355.489 L62.6238 356.7942 L64.517 361.1556 L65.5819 365.6837 L70.243 365.1512 L73.4393 373.3411 L65.6845 372.0553 L64.6526 372.7968 L67.9754 373.2013 L71.4451 375.654 L71.7553 375.82 L79.0319 376.4705 L81.0288 376.6727 L81.2574 377.2279 L81.3876 377.2734 L82.0748 377.9711 L82.6124 378.7816 L83.2429 380.3134 L83.4034 381.4467 L83.4542 382.2825 L83.7627 382.7493 L84.954 383.6853 L85.5683 383.9845 L86.9466 384.4538 L88.4611 385.0553 L89.2299 385.5465 L89.6945 386.0487 L89.9895 386.9258 L89.9998 387.4634 L89.928 387.594 L90.4515 388.0051 L87.615 389.4037 L87.5923 391.1234 L87.8073 391.1781 L87.6074 397.9926 L87.4675 398.9143 L87.3524 403.6543 L87.4648 405.4025 L87.1465 405.6325 L86.9191 405.7387 L86.3507 405.8533 L85.771 405.6418 L84.3203 405.571 L83.7962 405.6907 L83.5936 405.3385 L83.432 405.288 L83.1381 405.4126 L82.8388 405.6924 L82.1245 405.539 L80.8586 404.8903 L80.28 405.0293 L79.845 404.9459 L79.2745 404.9231 L79.2302 404.9333 L77.2241 406.2198 L76.3634 407.0539 L75.4271 407.7068 L72.992 409.182 L72.2982 409.3615 L69.4288 411.1914 L68.0494 413.7509 L68.1423 416.8926 L69.2456 420.2793 L70.6055 422.64 L78.9449 427.5154 L85.745 428.2079 L96.6503 424.0764 L104.4893 420.6382 L101.1168 413.7585 L102.2947 410.9218 L107.2918 406.7623 L110.278 405.7218 L111.5607 406.01 L120.0395 408.8332 L120.4042 408.7372 L121.0639 409.0514 L121.6063 409.7372 L122.4254 409.6041 L123.2104 409.2587 L123.7767 408.9048 L124.1468 408.7717 L124.5055 409.0194 L124.5882 409.5291 L125.0599 409.7575 L125.6223 409.7389 L127.5139 410.4778 L127.5263 410.6455 L127.6198 411.9336 L127.6554 412.4223 L128.0941 414.093 L128.1768 416.9726 L128.7128 417.591 L129.2828 417.4874 L129.7074 417.4098 L130.9361 416.9541 L131.5644 416.8125 L132.6969 416.2 L132.8066 416.104 L133.4101 415.5741 L133.9801 414.8183 L134.0816 414.2505 L134.4064 413.6768 L134.7127 413.0558 L134.8802 412.4391 L135.166 411.1173 L135.5599 410.5696 L136.0305 410.423 L136.4919 410.5722 L137.0938 410.8316 L137.7454 410.7053 L137.6454 410.5056 L137.5757 410.3657 L137.3299 409.8754 L136.1094 408.9604 L136.38 407.8812 L136.6442 407.4313 L137.0295 407.0699 L137.6427 406.0799 L138.2446 403.319 L138.5531 400.9667 L138.6557 400.5176 L138.6849 400.3887 L138.787 399.9422 L138.5769 399.2513 L137.9815 398.8856 L137.1883 398.2875 L136.8469 398.0296 L135.3427 396.54 L134.7257 395.8037 L134.603 395.2847 L134.6981 394.9224 L134.972 394.7235 L135.6928 394.9148 L136.5573 394.8129 L136.8939 394.5272 L136.9636 394.2458 L137.1327 393.8717 L137.3639 393.6417 L137.6443 393.48 L137.955 393.5069 L138.4391 393.6594 L140.0216 394.4421 L140.9406 394.678 L141.6679 394.6755 L142.0039 394.6216 L142.1914 394.3596 L142.2233 394.0849 L141.6657 393.7133 L140.8461 393.3839 L140.1632 393.1868 L138.2019 392.4259 L137.8302 392.0241 L137.6649 391.473 L137.5735 390.9102 L137.8934 389.7694 L138.7865 389.1712 L138.7438 388.9092 L138.0004 387.3884 L136.0234 385.8212 L135.7576 385.3637 L135.9883 385.0368 L136.3719 384.185 L137.0295 383.2497 L138.3775 381.9792 L138.4321 381.4635 L138.1138 380.7254 L137.7686 380.0278 L138.8983 377.3004 L139.6083 376.1924 L140.825 375.4804 L142.2109 374.9176 L144.2867 373.7355 L145.2592 372.9409 L147.6613 370.6626 L149.1785 369.1467 L149.816 368.4634 L150.144 368.2182 L150.5314 368.2898 L151.0587 368.7044 L151.8264 369.4282 L152.4958 370.1764 L153.108 370.7224 L153.5867 370.7434 L155.5917 370.8168 L156.9473 370.965 L157.2499 371.0417 L157.9452 371.2178 L158.4644 371.6855 L158.1068 372.2609 L157.3347 374.1205 L156.6934 375.8427 L156.4054 377.142 L156.3876 378.4547 L156.0402 379.8601 L155.8602 381.3531 L155.6447 382.3903 L155.8419 383.1166 L155.8862 383.8159 L155.542 384.9079 L155.0741 386.1347 L155.0428 386.8382 L155.1336 387.2898 L155.3653 387.9369 L156.1693 389.0263 L156.6572 389.8436 L157.1078 390.9532 L157.8064 391.3921 L158.2645 391.9676 L158.525 392.1563 L158.7427 392.083 L159.0182 391.8918 L159.3603 391.8741 L159.8271 391.6828 L160.1015 391.484 L160.0286 391.0341 L159.8433 390.8327 L159.5385 390.8437 L159.2036 390.6667 L158.5968 389.8907 L158.7427 389.2386 L158.3197 387.8046 L158.2002 386.5913 L158.4844 385.5053 L158.8016 383.912 L158.9972 383.2253 L159.2036 382.8445 L159.6709 382.6532 L160.0815 382.5866 L160.1804 382.7248 L160.235 383.0627 L160.3144 383.3197 L160.5132 383.3643 L160.6818 383.2211 L160.7947 382.9717 L160.8531 382.3844 L160.8812 381.6093 L161.0443 381.1973 L161.2415 381.0936 L161.362 381.0296 L161.9039 380.8265 L162.6063 380.9049 L162.9478 380.888 L163.0461 381.2571 L163.1309 381.7828 L163.0856 382.2142 L162.9154 382.82 L162.2778 383.6171 L161.8396 384.4588 L161.6489 385.1758 L161.5706 386.1136 L161.2567 387.1727 L160.758 388.6724 L160.8271 390.0483 L161.1135 391.9684 L161.878 394.6561 L162.5426 396.3977 L162.9008 396.9554 L163.3762 397.2907 L163.6648 397.5721 L164.0548 397.9521 L164.4725 397.9302 L164.9577 397.9049 L166.2063 397.2495 L167.5916 396.0194 L167.5538 395.3571 L167.9525 394.4699 L168.0557 394.0504 L167.8293 393.1244 L167.9946 392.2499 L168.77 391.1217 L169.9305 389.6995 L170.9549 388.8881 L171.7 388.3834 L172.1489 387.9883 L172.3343 387.5763 L172.4737 387.107 L172.6509 386.2501 L172.6628 386.1936 L173.1112 385.0334 L174.7364 382.6878 L175.6808 382.3271 L176.5556 381.7247 L177.0002 381.338 L179.1138 379.513 L179.9589 378.9156 L181.2755 378.6603 L182.7284 379.1178 L184.4406 379.9958 L186.2641 381.0869 L187.007 381.2748 L188.6132 381.3245 L190.1839 381.2596 L191.037 380.851 L191.1942 380.4019 L191.1105 380.059 L191.3941 379.5913 L191.8771 379.1212 L192.7535 379.2863 L193.9492 379.0614 L194.7909 378.7783 L195.5241 378.4834 L196.2108 377.9492 L196.9618 378.2323 L198.1424 379.8517 L198.4638 380.3758 L198.7664 380.8678 L198.8728 381.2748 L199.0663 382.0137 L199.0387 382.558 L198.6448 383.2 L198.1829 383.6601 L195.8078 385.3132 L194.7996 386.0833 L194.1907 386.673 L193.1641 387.0926 L192.7351 387.5156 L192.3645 388.2048 L193.1144 388.5671 L194.4895 388.1896 L197.0996 386.6764 L198.2358 385.8473 L200.4818 384.1167 L200.9692 383.4848 L201.2436 383.2868 L201.9682 383.4149 L202.6003 383.5733 L203.9256 384.0974 L204.2455 384.3695 L203.5577 385.8659 L202.7392 387.0042 L199.9237 390.6608 L198.0813 393.5153 L197.4141 394.807 L197.2698 395.0867 L196.4134 396.1887 L196.3756 396.1786 L194.9784 395.8433 L193.2057 394.5904 L192.8124 394.3537 L192.1451 393.9535 L191.7032 393.865 L191.5913 393.8431 L191.1985 394.0217 L190.8549 394.502 L190.4248 394.6873 L189.8651 394.7783 L189.3226 395.2131 L189.0968 395.7118 L188.9639 396.3117 L189.1049 396.7128 L189.1319 397.3615 L189.1195 397.7044 L188.6505 398.3582 L188.0449 399.1114 L187.7272 399.2707 L187.0599 399.6566 L186.3057 400.9203 L186.2635 400.9903 L185.8891 401.3736 L185.5444 401.7974 L184.8209 402.0072 L184.373 401.3205 L183.9716 401.0931 L183.7474 400.9658 L183.4551 400.7434 L183.031 400.7619 L182.6555 400.7855 L181.9752 400.8293 L180.9795 401.0678 L180.6423 401.3542 L180.1788 402.2768 L179.9686 402.5582 L179.9037 402.645 L179.5709 402.8598 L178.7945 403.1951 L178.4034 403.1429 L177.3622 402.6264 L176.9959 402.2549 L176.7263 401.2969 L176.6604 400.6524 L176.5253 400.2884 L176.0158 400.0374 L173.9341 399.9009 L173.377 400.0079 L172.9183 400.0955 L171.8345 400.5867 L171.2721 399.2842 L170.93 398.4922 L170.2698 397.8173 L168.4777 397.3329 L168.0098 396.9428 L167.6256 397.3177 L166.6612 397.4592 L165.4753 398.22 L165.5207 398.4079 L166.0977 400.6052 L166.0869 400.6558 L165.8464 401.7966 L165.405 402.7587 L164.7869 403.0047 L164.3493 402.8539 L163.9041 402.3737 L163.3816 402.051 L162.9283 402.0797 L162.0201 402.1732 L161.5247 401.6685 L161.1702 401.2001 L161.1351 401.1537 L160.4036 400.6558 L160.0977 400.8984 L159.9659 401.2666 L159.4402 402.2566 L159.2889 403.1244 L158.8751 403.8599 L156.661 405.1051 L154.8829 406.1625 L153.7137 407.0699 L152.4829 407.9048 L151.8545 408.6715 L151.4542 409.2764 L151.1619 409.7667 L150.6097 410.8485 L149.4275 412.2378 L148.5739 412.8756 L147.8299 413.526 L146.5645 413.9843 L146.0102 414.6507 L145.3894 415.2901 L144.2445 417.2093 L143.9171 418.265 L143.2677 418.987 L142.7933 419.3299 L142.5134 419.5329 L141.857 420.4487 L141.1865 421.6324 L141.1119 421.7646 L140.3366 422.8919 L142.9651 427.1784 L146.5008 431.6417 L152.0598 432.3519 L153.168 432.6839 L153.4527 433.0225 L153.711 433.1851 L155.1584 433.5364 L156.963 433.3966 L158.0101 433.6257 L159.0139 433.6721 L160.0923 433.4867 L160.9487 433.202 L161.7467 433.1186 L162.7997 433.1009 L164.0116 433.496 L166.98 434.3233 L169.508 434.7993 L170.0224 435.1388 L170.4805 435.6038 L171.0619 436.3569 L171.2267 437.1396 L171.3904 439.5785 L171.4185 441.8859 L171.5103 444.104 L171.6983 445.2683 L171.8064 446.1747 L172.4639 447.0188 L173.4916 446.5058 L175.1416 445.8142 L176.0444 445.4747 L176.4443 444.8706 L176.8127 444.5412 L177.2309 444.0493 L177.5881 443.4132 L177.862 443.2144 L178.0116 443.1908 L178.2596 443.3046 L179.1133 444.3214 L179.2424 444.6465 L180.6634 449.8864 L180.8784 451.4575 L181.3047 452.1972 L183.9116 454.5863 L184.661 455.1962 L185.8756 456.0782 L187.0713 457.0781 L188.6521 458.0924 L190.2854 459.1942 L193.4321 461.8419 L195.7002 463.5545 L196.2708 463.7693 L196.8916 464.054 L197.2882 464.375 L197.7269 464.9587 L198.5751 465.7068 L199.3856 466.5609 L200.7233 467.7967 L202.5295 469.2397 L203.7744 471.2572 L204.4173 472.6783 L204.4389 472.8131 L204.6745 473.1862 L204.8717 476.3485 L205.6254 477.3686 L206.3764 477.6011 L207.4683 477.8226 L207.5937 477.9456 L208.0416 478.0728 L210.2897 482.0833 L210.6566 482.5988 L211.0586 483.239 L211.5075 484.1251 L211.8177 484.5278 L212.177 485.2353 L212.3418 485.5083 L213.8838 487.1963 L214.9071 488.6948 L215.0827 489.4976 L215.3334 490.1967 L215.6084 490.4755 L216.1135 491.7626 L216.5371 492.4651 L217.1968 493.1087 L220.29 495.3375 L225.0554 503.7952 L227.6228 505.6078 L229.7035 512.0 L234.1998 510.9766 L241.0626 511.8829 L241.2473 508.1078 L238.9317 507.6714 L235.4079 508.0235 L233.1095 503.3925 L236.8007 499.7512 L242.5559 499.3149 L242.3755 496.3862 L238.8971 496.7357 L236.7802 496.7029 L235.7299 496.4974 L234.7185 495.6331 L234.0285 493.3521 L234.0031 492.4811 L234.0404 491.6236 L234.5904 490.3374 L234.3424 489.7031 L233.5417 489.4799 L231.3022 490.7257 L230.2097 491.9227 L229.1086 493.7741 L228.5527 494.7419 L227.6315 495.4579 L225.7059 495.2035 L224.9911 494.2804 L224.4124 492.3118 L224.3719 490.5918 L224.7717 488.1869 L225.5546 486.541 L225.9857 485.1359 L225.8507 483.1632 L226.2651 480.8484 L229.0357 476.7057 L231.7015 475.7058 L234.4753 475.2795 L238.1466 475.2905 L241.2463 479.0272 L254.2305 482.0243 L261.7514 485.9084 L269.436 488.0732 L273.2953 488.1911 L273.2115 479.7845 L269.0669 476.9988 L268.3624 474.3479 L270.4598 468.5759 L268.3116 467.5861 L265.2579 468.6096 L261.1976 465.5728 L259.8047 465.187 L254.3683 463.4416 L247.7098 465.0859 L246.8869 466.6022 L247.0901 467.2466 L246.8372 467.416 L246.2521 467.3309 L245.8279 467.0495 L245.2866 467.0782 L244.4686 467.683 L244.018 467.4294 L243.1989 467.2197 L242.6094 466.8777 L242.2977 466.7867 L241.9481 466.7412 L241.7585 466.6292 L240.3078 466.1937 L238.6129 467.8043 L233.9966 466.9484 L233.8518 467.1077 L232.5773 467.4909 L229.3847 468.9786 L217.488 469.1631 L217.8009 468.5675 L217.2298 468.8472 L216.7884 468.8202 L216.3561 468.5667 L216.3642 468.3148 L218.3282 467.2896 L218.6167 467.0234 L218.688 466.8684 L218.5351 465.9974 L218.7691 465.4498 L219.2559 465.4928 L219.7005 465.7152 L219.7702 465.6225 L220.7752 464.6176 L220.1652 464.4398 L219.372 463.9479 L218.346 463.5267 L218.0483 463.0499 L218.0159 462.8452 L217.2044 462.6523 L217.0979 462.8224 L216.7646 462.5478 L216.3637 462.4518 L216.281 463.0448 L216.3572 463.1813 L216.2394 463.3455 L215.4074 469.3307 L212.2699 466.7303 L212.0878 466.1886 L212.016 466.1515 L211.0877 464.2435 L210.9889 463.5401 L211.1056 463.0633 L211.0667 462.7879 L210.2935 459.7898 L209.8629 459.4697 L209.5036 457.7984 L208.1529 455.4261 L207.8568 454.7227 L206.5271 453.3841 L206.478 453.3766 L205.8923 452.7448 L205.5055 452.7304 L205.01 452.9259 L204.4875 452.8147 L204.0996 452.5476 L203.4426 451.1998 L202.7581 450.5393 L202.9655 449.8511 L203.0125 449.8089 L201.0448 447.8031 L196.0784 445.4629 L190.6723 434.346 L190.8873 432.3941 L194.571 426.7184 L196.159 424.6619 L197.8285 424.3106 L204.4854 425.8338 L211.7982 425.8043 L214.5224 427.913 L223.0249 429.5482 L227.8238 436.1927 L230.8824 436.0848 L231.0013 435.993 L231.5923 435.9585 L231.9144 435.8683 L232.278 435.9391 L232.4536 436.0301 L233.5455 435.9913 L236.3739 436.8093 L236.737 436.7352 L237.2146 436.8498 L237.7057 437.0461 L238.2655 437.3561 L238.7285 437.49 L239.0273 437.5069 L239.1959 437.6248 L241.1463 438.1893 L244.5318 439.2491 L244.6128 439.0688 L244.8657 438.8304 L245.7296 438.4909 L247.6736 436.8801 L248.1604 436.8978 L248.3225 436.8363 L248.6196 436.8919 L248.651 436.9163 L251.7511 437.0317 L252.4557 435.7394 L247.1365 435.3367 L239.1564 432.6451 L235.7996 430.924 L233.2975 428.2331 L230.0033 424.052 L229.1254 423.4546 L226.8448 422.993 L224.3243 421.3164 L223.0795 419.8606 L220.9713 418.1774 L217.0726 415.5943 L214.7515 414.8664 L211.8339 414.9582 L209.6273 414.6684 L207.37 414.0643 L205.9879 413.4341 L205.231 412.729 L205.0257 412.0255 L205.2823 411.3388 L205.8631 410.4542 L208.5468 403.7318 L209.1416 400.5833 L209.1886 400.0214 L209.3847 399.5268 L209.5722 399.2656 L210.0661 398.9084 L210.3724 398.8123 L211.2596 398.8991 L212.1894 399.5344 L212.9328 400.1536 L213.5504 400.5614 L214.1242 400.6996 L214.5343 400.6794 L215.5198 400.5193 L216.7419 400.6903 L220.7163 401.1091 L221.4997 401.1209 L227.39 400.0079 L230.4172 398.8031 L232.0321 397.6665 L233.2418 396.5796 L234.4024 395.4245 L235.3933 394.1666 L236.6338 393.3671 L238.5886 393.1497 L239.9425 393.5743 L240.512 394.4169 L240.7168 394.7202 L240.908 395.3361 L240.418 396.5712 L240.6017 397.1425 L241.4591 397.327 L243.5263 397.038 L244.4767 396.3749 L244.5453 395.9477 L244.3713 394.8668 L244.6641 394.4034 L245.3006 393.7917 L245.5794 393.4597 L245.8404 393.1488 L245.7301 392.891 L245.6188 392.6298 L244.5426 391.3719 L243.6792 390.8647 L243.2761 390.9296 L243.0071 391.061 L242.8504 391.1377 L242.7326 390.8327 L242.4879 390.4569 L242.4889 390.1789 L242.476 389.8115 L242.6256 389.6017 L243.7089 389.1948 L244.8516 388.8713 L248.2171 388.6488 L253.8631 388.8889 L254.169 388.7929 L254.371 388.621 L254.4391 388.4719 L253.8675 388.3194 L253.4947 388.2874 L249.0713 388.2183 L246.3709 388.2865 L244.4967 388.637 L242.1896 389.1501 L241.7649 389.0802 L241.3543 389.1004 L241.1836 388.8974 L240.364 386.9494 L240.0441 386.6781 L239.634 386.6983 L238.9538 387.0396 L237.6658 388.1736 L237.1925 388.9437 L237.0331 389.6632 L237.0077 390.3609 L236.6846 390.922 L236.0951 390.9709 L235.7672 390.9321 L235.657 390.5336 L235.1955 390.2387 L234.8373 390.2968 L233.3413 391.2792 L231.8538 392.0291 L230.435 392.3518 L229.8456 392.4015 L229.3296 392.6239 L228.8806 392.9736 L228.4997 393.1741 L227.9173 393.2685 L227.19 393.2078 L226.9215 393.2516 L226.6152 393.3477 L225.6859 394.4228 L225.3033 394.9013 L224.9149 395.0563 L222.7494 395.593 L222.0022 395.8062 L219.6676 395.8618 L218.7642 395.9621 L217.8176 395.7919 L217.4146 395.3344 L216.073 393.8027 L215.6392 393.1059 L215.8758 392.2001 L216.4058 391.4545 L217.4988 390.5479 L221.3684 386.1212 L223.7792 383.4663 L224.9289 382.4813 L225.9782 381.7281 L226.1451 380.5342 L225.8145 380.0969 L225.7956 379.6478 L224.6345 379.3756 L223.3032 379.2846 L222.7494 377.7478 L222.8785 376.4587 L223.0892 376.0542 L223.2465 375.8908 L228.2274 372.8625 L230.9748 370.521 L235.9714 365.5952 L238.2277 363.0565 L238.5264 362.9158 L238.9598 362.7531 L239.8329 362.7498 L240.2505 362.7742 L240.6536 362.7093 L241.0048 362.6057 L241.4899 362.481 L241.9011 360.6677 L242.0513 360.4587 L242.2982 360.2792 L244.2989 359.8622 L246.03 354.5453 L252.7053 345.5485 L254.9864 345.7154 L255.7752 347.822 L249.6456 358.2073 L265.0196 353.9243 L265.688 356.2541 L265.8657 356.5027 L266.3952 361.7808 L266.4908 362.0883 L266.7356 362.465 L267.4585 363.9024 L268.048 364.5201 L270.1519 366.0359 L271.9375 367.6655 L273.3941 368.5805 L275.6904 369.6279 L279.9787 371.1639 L280.4168 371.6012 L280.0716 373.738 L280.1359 374.4213 L280.3698 375.5858 L280.7978 376.243 L281.5769 376.6617 L282.4537 376.6887 L283.7461 376.2564 L284.6754 375.9447 L285.515 375.6928 L286.5302 375.5824 L290.2831 376.1798 L293.1159 376.6449 L294.0851 376.6727 L295.8465 376.4797 L297.8537 376.3854 L299.8068 376.8606 L302.2895 376.6878 L302.4197 377.2119 L302.5704 378.1463 L302.6434 379.7388 L302.4883 380.7692 L302.2954 381.8519 L302.1738 383.6129 L302.1052 385.0815 L303.1004 387.3227 L303.6472 387.342 L304.4787 388.1357 L306.4562 388.6286 L307.5924 388.605 L308.6784 388.268 L309.6358 387.5148 L310.6467 386.0462 L311.5776 384.4142 L312.7279 382.3398 L314.2418 381.3809 L315.7368 380.9243 L318.6554 379.3765 L322.1819 378.5137 L322.927 378.769 L323.0788 379.1894 L323.4413 379.5374 L323.6315 379.7674 L323.9152 380.1053 L324.1961 380.5662 L324.4522 381.0616 L324.7894 381.445 L326.6658 383.623 L327.8144 385.3325 L327.9549 385.7504 L328.2613 386.0849 L328.7173 386.3023 L330.216 387.0572 L332.2989 388.3506 L333.1233 389.1881 L333.7236 390.0618 L334.7005 391.8454 L334.9133 392.597 L334.9182 393.1969 L334.9085 393.7066 L334.9798 394.4354 L334.889 394.7269 L334.8209 394.8769 L334.1942 395.0766 L333.602 395.2029 L332.4804 395.5071 L331.5803 395.7607 L330.8552 396.1542 L330.1647 396.4735 L329.4261 396.9234 L328.674 397.482 L328.0727 397.8325 L327.5713 398.0448 L327.0732 398.279 L326.7074 398.3843 L326.2638 398.4787 L325.3291 398.6607 L324.5781 398.7517 L323.5883 399.0196 L323.0556 398.7989 L322.4002 398.675 L321.6184 398.5714 L320.6107 398.6354 L319.495 398.7854 L317.4711 399.1898 L314.781 399.7332 L314.3444 400.3491 L314.1224 401.0417 L314.2229 401.9499 L314.4692 403.4816 L315.2176 404.7007 L316.0199 405.4034 L316.8698 405.5424 L319.5366 405.2677 L321.5222 405.0386 L324.1243 405.2172 L325.2054 405.3663 L326.2962 406.7152 L327.4411 408.7776 L328.0911 409.4398 L328.7216 409.7886 L329.7562 410.2225 L331.4652 411.702 L333.2676 414.0449 L334.8836 416.9448 L335.5865 418.1715 L335.8615 418.4512 L336.7136 419.1226 L338.0665 419.7781 L338.6694 420.4327 L338.8007 421.2474 L338.7051 422.2221 L338.1189 423.1918 L337.3835 424.1665 L337.3252 424.5322 L337.4349 424.929 L337.5078 425.2474 L337.9233 426.3923 L338.1664 426.8591 L338.5365 427.0688 L339.2362 427.5609 L340.2044 428.1556 L340.8517 428.8026 L341.6113 429.3856 L341.7956 429.7698 L341.7464 430.2466 L339.3118 432.5364 L338.4052 433.469 L338.0227 433.9467 L337.8714 434.4336 L337.8844 434.8018 L337.9125 435.2592 L338.1194 435.688 L338.3771 436.6695 L338.7326 438.399 L339.2362 441.2406 L339.5431 445.2346 L338.8991 446.1292 L337.9514 446.7046 L338.8612 447.1789 L339.9678 447.9169 L340.0904 448.9328 L340.0358 449.766 L339.2994 450.7061 L337.9071 452.2747 L337.4576 453.0455 L336.9859 453.2519 L336.5353 453.2561 L335.6978 453.139 L335.8977 454.1794 L336.284 456.448 L338.315 464.4457 L338.7856 462.9496 L340.1007 461.9767 L341.6508 461.6245 L343.2446 462.1721 L345.6014 463.7036 L347.0013 463.322 L347.7923 462.0584 L348.4525 460.8858 L349.5158 459.9482 L350.2198 459.3307 L352.616 459.2448 L354.0937 460.3138 L355.3563 461.9227 L355.8939 462.8747 L355.9015 463.8223 L356.0976 464.7852 L356.3083 465.5796 L356.3591 466.1515 L356.2981 467.8186 L355.9334 468.6239 L354.4978 469.6853 L354.1428 469.7839 L352.509 470.3803 L352.368 470.5269 L352.1011 471.4476 L351.912 472.3001 L351.423 472.2495 L351.1599 472.2773 L350.8411 472.4365 L350.625 473.0051 L350.0555 473.305 L349.8535 473.5864 L349.8124 473.8416 L349.8913 474.0775 L350.2916 474.2611 L350.6661 474.283 L351.5624 474.2215 L351.9719 474.0059 L352.3788 473.9857 L353.7495 473.7641 L356.1106 474.0859 L358.3868 475.1279 L359.3912 476.3746 L360.0552 477.3745 L361.0278 478.4258 L362.4233 479.6093 L363.2646 469.0089 L362.9944 467.33 L363.6206 464.0447 L364.0026 461.8579 L365.0881 459.1892 L366.24 455.5576 L366.6738 454.7354 L367.8073 453.9839 L371.5672 452.2536 L371.8298 451.7456 L371.7261 450.1712 L371.5294 449.2268 L370.3413 448.7289 L369.1046 448.7416 L367.2341 449.1198 L365.5732 449.3279 L364.4602 449.5798 L363.7368 449.4568 L362.9961 448.6683 L362.6984 447.4704 L362.8307 446.312 L362.7221 445.9287 L362.3515 444.6187 L362.5714 443.3821 L362.6351 442.7561 L362.573 442.0906 L362.2202 441.0982 L362.0532 440.6281 L361.9355 439.8969 L361.5956 439.3662 L361.1861 438.592 L360.7636 438.105 L360.3924 438.03 L360.2152 438.6518 L360.6307 440.3484 L360.6328 440.9188 L360.1736 440.8826 L359.2 440.8682 L358.5143 440.9794 L358.0627 441.0873 L357.6936 440.8884 L356.8211 440.6273 L356.0241 440.1412 L354.6691 438.1025 L354.2758 436.6291 L353.8246 434.3822 L353.5858 432.9012 L353.2492 431.4749 L353.34 430.1405 L355.1391 425.5836 L355.5065 424.9475 L356.1581 423.8186 L356.2651 423.1867 L356.3218 422.854 L356.8162 421.9635 L357.31 421.2019 L358.0102 420.3687 L359.5706 419.4638 L359.8343 419.2692 L361.3136 418.19 L361.5546 418.0855 L361.7431 418.0552 L361.8469 418.2978 L361.9587 418.9929 L361.4757 424.0006 L361.8188 424.5288 L361.9776 424.64 L363.4504 424.6788 L364.6477 424.5541 L366.0709 424.3502 L367.85 423.6897 L369.0203 422.2423 L366.415 419.5944 L366.1103 418.3644 L365.9358 416.5859 L365.134 415.4367 L364.7434 414.1991 L363.9702 412.9606 L362.9971 411.52 L362.5557 410.6783 L362.332 409.9091 L361.6005 408.5004 L363.1192 407.2417 L365.6716 405.5087 L367.5199 404.3957 L368.6907 403.4926 L369.5908 402.8455 L370.0793 402.447 L370.8703 401.6795 L371.0426 401.2262 L371.1988 400.8159 L371.5013 400.3196 L371.7028 400.1157 L372.6365 399.7088 L373.5987 399.5218 L375.4379 399.1949 L376.0128 399.055 L377.8551 399.0803 L381.3163 400.0062 L381.4092 400.0306 L382.9949 400.8218 L383.5077 401.0779 L386.1394 401.4385 L388.1979 401.35 L389.2429 401.3054 L390.438 401.0198 L390.9756 400.933 L391.3116 400.8226 L391.4532 400.8462 L391.7957 400.9759 L392.1286 401.6154 L393.0573 405.6721 L393.4577 407.8728 L393.6327 408.6765 L393.9726 409.3615 L395.1234 411.2605 L395.6572 411.9126 L399.992 417.2169 L401.6912 420.3569 L402.6669 422.7613 L403.1797 423.8523 L403.4163 423.8818 L405.8266 424.1834 L407.0741 424.9947 L409.2547 428.1523 L410.0868 430.6982 L409.647 432.0436 L408.3967 437.7268 L408.374 437.827 L409.0235 438.6661 L410.1851 438.7899 L410.5087 438.8245 L411.0733 439.148 L411.2106 439.9761 L410.3488 444.0451 L409.5659 447.1764 L409.6259 448.6927 L409.829 449.9538 L409.9933 451.5452 L409.7588 452.4162 L410.1251 453.0152 L413.8483 441.9836 L425.1458 430.7032 L427.5495 426.0031 L423.406 421.7646 L406.8866 400.366 L406.2258 386.7244 L407.442 381.5427 L408.8549 377.8085 L406.6851 373.1659 L407.0384 369.3313 L408.7101 368.8114 L418.9216 334.6227 L439.2177 317.0065 L443.829 308.8399 L451.5622 302.3779 L445.9632 294.3449 L449.4286 284.2555 L454.5322 269.3989 L455.7263 264.9574 L457.8496 257.1613 L456.299 248.674 L456.5264 244.4328 L465.8189 227.1389 L465.773 195.4485 L471.3569 183.2896 L468.6489 169.8085 L464.9436 164.28 L469.2027 148.4791 L467.1934 143.1324 L465.2354 139.2501 L460.8687 130.966 L462.5501 125.432 L455.9748 119.9096 L457.3363 115.2809 L454.8996 107.0436 L450.6907 107.794 L444.11 104.4299 L439.5661 93.7134 L433.5959 84.6375 L433.0659 80.5244 L432.7131 67.2523 L432.8892 60.3902 L433.0934 58.7543 L436.3968 46.9159 L436.5135 44.8997 L436.7096 43.4105 L435.6361 40.561 L434.2772 40.3308 L431.2748 38.2614 L427.9693 37.252 L423.453 38.0346 L420.2734 38.5136 L418.2803 37.7318 L414.2962 34.8385 L411.2219 29.8606 L407.9132 18.3174 L403.218 13.0424 L399.3922 12.2311 L395.6242 7.4198 L384.4948 1.6808 L375.9739 0.0 L372.2637 1.217 L372.7548 3.4611 L372.0665 3.8052 L370.0393 4.6081 L363.1938 8.8155 L358.6807 10.4213 L355.9274 9.6951 L352.7532 10.7274 L349.5406 11.225 L348.0105 7.5531 L346.2135 10.3066 L346.481 11.8743 L344.4543 12.5633 L341.3179 9.3123 L338.1437 6.1 L336.6903 6.482 L328.8507 14.2078 L331.4511 20.1356 L330.6861 21.3972 L328.4682 23.6159 L329.9978 24.6481 L331.9866 25.9106 L335.0846 29.1606 L336.3462 31.7614 L336.4699 34.0981 L332.2119 38.156 L328.325 40.287 L325.2054 38.5397 L320.0013 36.5276 L319.5075 36.4298 L317.135 35.5857 L316.2852 35.2189 L311.1854 40.556 L307.6654 43.7748 L307.1537 45.4149 L307.7556 47.8216 L308.4261 49.5536 L309.0642 51.1162 L310.8904 53.2564 L311.0049 54.9816 L315.0063 61.3599 L314.3088 62.0707 L314.2764 62.2731 L313.9587 63.1577 L312.9618 64.1063 L311.6722 65.1114 L311.0957 66.6891 L311.656 69.2769 L311.751 69.4388 L311.9256 70.5207 L312.1012 71.3251 L311.4641 71.9372 L311.1389 72.6 L310.503 72.4727 L310.0199 72.6801 L309.4299 72.7299 L307.788 72.5334 L306.2071 72.1413 L303.45 71.0148 L298.5577 68.0602 L297.6262 67.7018 L296.9622 67.5787 L293.4292 64.495 L293.1602 63.4637 L293.3919 62.6197 L293.4389 62.5547 L292.6226 59.9458 L286.192 67.5424 L278.2568 76.2511 L276.1059 78.7942 L266.1121 90.0962 L258.2714 81.7993 L263.0746 78.435 L259.9679 71.6219 L256.6181 69.6825 L260.7783 66.6385 L257.5366 61.4948 L251.9986 65.0448 L238.3454 73.6877 L238.8938 79.5252 L235.7996 81.6762 L239.8799 86.9596 L231.219 95.5852 L226.1132 94.5734 L225.7567 89.3795 L223.7684 87.6426 L222.8661 88.6712 L225.8269 95.7791 L214.4862 100.7622 L213.1463 101.1247 L211.99 93.2328 L209.2291 93.6206 L206.0576 94.1265 L206.1009 95.5768 L207.7433 102.9881 L204.1342 110.0873 L205.0041 113.9151 L211.2336 126.8062 L210.7203 128.6357 L214.5834 134.2507 L215.5289 132.4886 L212.4385 127.624 L213.6811 127.624 L225.5243 128.4502 L222.7418 135.2708 L215.3939 138.5166 L214.0431 138.7948 L216.107 140.7929 L213.773 142.8584 L211.5308 141.1639 L211.7469 148.2203 L207.0139 154.6442 L204.7231 153.8434 L202.697 159.8542 L199.1851 163.2347 L196.8889 156.8024 L196.079 151.584 L195.3831 149.5548 L194.3976 146.1927 L155.3859 154.366 L155.5566 155.1669 L153.5575 160.9164 L150.0834 162.1809 L150.4454 167.1716 L146.577 167.4919 L147.7116 162.8132 L150.4725 146.9388 L141.1038 148.431 L129.0575 139.5089 L134.1205 127.2952 L132.3662 125.8965 L136.8344 119.0353 L135.5955 116.8019 L142.1844 115.7278 L142.1844 115.2725 L145.6044 114.3957 L147.4198 108.7636 L135.9543 106.8084 L126.9655 111.9177 L103.2564 128.5683 L101.5275 131.1481 L112.9222 132.6825 L120.4485 128.7875 L126.57 120.1457 L129.9738 117.4983 L131.9189 117.7007 L127.4452 120.23 L124.0144 124.6563 L121.113 128.8634 L112.6737 133.5931 L97.6163 130.7468 L100.9067 133.8013 L102.5637 135.0364 L104.1203 136.5961 L104.492 137.0944 L107.857 140.1859 L109.8118 140.7246 L110.3704 141.0964 L110.6179 141.4421 L111.5693 143.5961 L111.8038 143.8111 L111.9254 144.5302 L112.4538 145.917 L113.0151 147.6841 L113.2729 149.135 L113.7597 150.483 L113.7132 151.1465 L113.4155 153.335 L114.6295 160.5117 L130.244 152.1236 L133.637 158.1344 L136.7707 158.8931 L135.7819 160.3094 L115.7912 172.7607 L110.6638 168.3518 L105.7688 171.3765 L105.6369 171.4835 L103.7167 172.6444 L100.7603 174.4467 L97.7292 167.6605 L93.4987 168.4277 L84.2003 168.925 L80.2616 166.3286 L73.4809 169.1442 L77.7384 163.4454 L84.7352 160.0312 L88.2903 149.645 L90.6082 143.1366 L89.6627 141.9563 L88.7344 140.1286 L81.9776 144.2242 L79.8715 139.2105 L58.8877 146.433 L52.6095 150.3363 L49.1516 151.0192 L40.6431 152.1792 M89.1067 223.1537 L89.2542 223.0846 L89.4903 223.0593 L89.6038 223.0736 L89.7275 223.1233 L89.9539 223.2776 L90.0387 223.3846 L90.0555 223.447 L90.0501 223.5709 L89.982 223.8162 L89.8631 223.9924 L89.7832 224.0573 L89.5443 224.1643 L89.4552 224.1399 L89.3439 223.957 L89.164 223.4858 L89.1067 223.1537 M89.9026 373.8576 L90.0533 373.1794 L89.9906 372.3317 L90.1597 370.2699 L90.1192 369.2647 L90.2781 368.1272 L90.3645 367.2383 L91.0356 364.0465 L91.4537 362.3242 L91.7309 361.389 L92.1604 360.6365 L92.6424 359.4526 L93.0287 358.6682 L93.3118 357.8163 L93.4679 356.849 L93.5587 356.4563 L94.0958 356.3687 L94.5199 356.383 L95.3627 356.5852 L97.4034 357.2307 L99.107 357.3394 L102.0791 357.2408 L103.4644 357.5172 L104.5763 357.7598 L105.5008 358.2646 L105.9962 358.7238 L106.2194 359.076 L106.4155 359.3852 L105.9724 359.9557 L104.9961 361.0662 L104.2235 361.9206 L103.137 363.011 L99.9936 365.7705 L96.5001 368.2578 L94.3092 370.2792 L93.3658 371.2616 L92.2074 372.3326 L90.8621 374.0371 L90.3688 374.3227 L89.9026 373.8576 M109.2104 246.2584 L109.211 245.8193 L109.3509 245.0751 L109.7626 244.1631 L110.0954 243.1416 L110.9518 241.053 L111.431 239.6547 L111.8881 238.3213 L113.167 235.3603 L113.295 234.1491 L113.8202 233.2455 L114.1865 231.8759 L114.2648 231.3221 L113.8121 230.2297 L113.9941 229.5638 L114.0082 229.5124 L114.6647 229.3455 L114.6949 228.6434 L114.6695 228.1908 L114.9775 227.4853 L115.2633 226.8194 L115.5945 226.6458 L115.9084 226.3592 L116.2196 226.5076 L116.6464 226.8953 L117.2791 227.5738 L117.7308 227.176 L118.2414 227.3698 L118.2079 227.9042 L117.9388 228.4647 L119.2209 228.978 L119.8628 229.0177 L121.7419 231.1552 L123.6043 233.844 L125.243 235.9823 L125.3938 236.4897 L125.9141 237.0991 L126.6321 237.6672 L126.5403 238.1392 L125.9357 237.9437 L125.2987 237.8004 L124.3099 237.0233 L122.4983 234.8647 L121.6171 233.7504 L121.1962 233.2792 L120.958 233.7032 L124.4499 237.7616 L124.3931 237.8855 L124.4239 238.4317 L124.7827 238.9897 L125.2662 239.374 L125.6639 239.4633 L126.0799 239.6656 L126.2766 240.173 L126.5543 240.7066 L127.7743 242.088 L128.7463 243.1256 L128.9251 243.52 L128.6036 243.8336 L127.5819 243.9077 L124.1435 242.9545 L123.4152 242.8036 L123.0062 243.1719 L123.3223 243.4669 L125.3597 243.9844 L128.7279 244.6705 L129.4962 244.9191 L131.7179 246.1 L132.8838 246.9125 L133.5792 247.1856 L134.2264 247.1569 L134.629 247.5159 L134.9607 247.6314 L135.1568 247.6997 L135.615 247.0473 L136.5762 246.0772 L136.8604 245.3245 L136.2504 244.4412 L134.8418 243.8715 L134.415 243.4113 L133.5819 243.4071 L133.503 242.9191 L133.188 242.3923 L132.6801 241.8579 L132.2392 241.7365 L131.8032 241.8849 L131.3651 242.4951 L130.9982 242.5937 L130.4833 242.2532 L130.1483 242.0762 L130.2429 241.7146 L130.2688 241.4019 L129.97 241.45 L129.6637 241.9236 L129.2536 241.7593 L128.5912 240.9805 L128.0887 240.715 L128.0282 240.3399 L128.8684 240.0871 L129.5297 239.6715 L130.4071 238.9804 L130.452 238.0752 L129.9598 237.8282 L128.8948 237.5829 L128.1838 237.2728 L127.6549 237.3208 L127.1643 237.1303 L126.0929 235.9554 L125.364 235.0021 L124.2645 233.1764 L121.5615 229.7299 L121.6571 228.9182 L121.5107 228.533 L120.4577 228.1756 L119.8277 227.7761 L118.9113 226.323 L118.3862 225.4464 L118.1123 224.8656 L118.1836 224.5537 L118.3732 224.3076 L118.605 224.2242 L119.0399 224.15 L119.2777 223.9907 L119.4138 223.5676 L119.5121 223.3636 L119.9195 223.2135 L120.2259 222.959 L120.3739 222.5384 L120.2491 222.138 L120.3788 221.9003 L120.9969 221.9694 L121.3108 222.728 L121.5928 223.1815 L122.2293 223.1958 L122.5167 222.8401 L122.4319 222.315 L121.917 221.6264 L122.0353 221.3187 L123.4401 220.5399 L124.1986 220.0173 L124.9896 219.5756 L125.5434 219.241 L125.9465 218.9636 L126.4322 218.704 L127.1151 218.2565 L128.4848 217.9016 L129.815 217.6015 L131.5769 216.9306 L132.0464 216.2124 L132.1922 215.989 L132.3046 215.5018 L132.3824 215.1647 L132.9881 214.1641 L133.0232 213.269 L132.8644 212.2128 L132.5386 210.7149 L132.7725 210.1594 L132.8881 210.1105 L133.3674 209.9066 L134.1038 210.0878 L135.0979 210.5994 L135.5556 210.9096 L136.1407 211.0428 L137.5352 210.1839 L138.4223 209.9563 L138.5131 209.9327 L139.0367 209.6065 L139.3133 209.4345 L139.7839 208.9355 L140.2583 207.8852 L141.1103 206.6284 L141.696 205.8917 L142.1466 205.2199 L143.0191 204.9358 L144.0203 205.0496 L144.6173 205.9988 L145.398 207.3862 L146.2344 208.5849 L146.832 208.7442 L147.3155 209.1277 L147.8893 210.1434 L148.7203 212.1673 L149.4108 212.7455 L150.2834 212.9798 L151.9021 212.7169 L153.6267 212.2069 L154.5457 211.8857 L154.7397 211.6615 L154.7283 211.3547 L154.5079 211.1844 L151.4617 211.8478 L150.413 212.2583 L149.8792 212.1816 L149.4637 211.7475 L148.8089 211.1608 L147.778 209.3806 L147.6532 208.4626 L147.6705 207.3778 L148.2324 206.974 L150.5956 206.2651 L151.6168 205.3834 L151.8794 205.5318 L152.1706 205.697 L152.9681 206.0173 L153.3879 206.2137 L154.268 206.5104 L154.7197 206.9302 L154.5349 208.1128 L153.6883 208.7863 L153.5867 209.3426 L153.611 209.6916 L153.6159 209.7624 L153.8007 210.21 L153.8174 210.2505 L154.3842 210.4949 L154.9704 210.3693 L155.3124 210.296 L156.4945 210.2589 L157.0537 210.3988 L157.4817 210.6761 L160.8855 214.6615 L162.6566 216.6103 L163.1958 217.54 L163.6599 218.5582 L163.9365 219.0066 L164.5341 218.849 L164.9004 219.1862 L165.586 218.6063 L165.8745 218.5355 L166.2754 218.8667 L166.4753 219.321 L166.7487 219.9043 L166.8017 220.0164 L166.725 220.6815 L166.5948 221.8084 L166.5332 222.9851 L166.5721 223.6181 L166.6364 224.6633 L166.3635 226.0903 L166.5742 228.0955 L166.2355 228.9359 L166.0555 230.4202 L165.9118 232.5712 L166.1458 233.3509 L166.7649 233.3956 L167.5024 233.2152 L167.503 233.2135 L168.0681 232.4861 L168.8181 231.859 L169.2352 231.1771 L170.1077 229.7501 L170.6269 228.4386 L170.7188 227.6758 L170.7971 227.0285 L171.6043 225.3595 L172.3688 222.8907 L172.901 221.8042 L172.8065 220.7759 L173.4429 219.4458 L174.0648 218.6956 L175.4517 218.8912 L175.073 219.9625 L175.7543 220.7658 L175.7965 222.2139 L175.6889 223.109 L175.9893 225.1159 L175.9818 225.4413 L175.5712 226.1544 L175.3918 226.4629 L175.3415 226.7478 L175.522 227.4128 L175.7084 227.5477 L175.8564 227.6547 L176.6836 228.2532 L177.447 228.6207 L178.4201 228.8617 L178.9058 229.4045 L178.6703 229.842 L178.1829 230.1437 L177.6686 230.416 L177.0791 230.5289 L176.4464 230.6925 L175.73 231.1569 L174.7704 233.0078 L174.1486 233.6863 L173.7017 234.3354 L172.7643 235.0653 L171.6443 235.8483 L169.9521 236.5799 L169.3789 236.8892 L169.1471 237.384 L169.3178 238.2935 L169.9062 239.857 L170.7404 241.1642 L171.5136 241.6632 L171.2137 243.2031 L176.6642 242.4791 L177.5438 241.1406 L180.2971 237.5079 L177.8879 234.0277 L178.8821 231.9618 L182.0568 230.9293 L184.8485 230.9293 L188.5198 231.1206 L190.6231 233.2624 L189.9348 238.8843 L189.2465 241.6379 L188.4052 243.1677 L189.0168 245.156 L189.8581 247.9483 L190.9673 248.5602 L192.9604 247.934 L193.1901 247.5336 L193.4948 246.8434 L193.7384 246.491 L193.9675 246.159 L195.0622 244.7834 L196.2243 243.8732 L197.8549 243.2554 L198.6394 243.2924 L198.6956 243.295 L199.2456 243.3826 L200.0501 243.198 L200.7871 242.5946 L200.9881 241.9405 L201.1712 241.6404 L201.3933 241.2755 L201.9973 240.8996 L202.2729 240.9206 L203.0298 240.9796 L203.9926 241.7753 L203.9937 241.7778 L204.8436 242.2372 L204.8544 242.2406 L205.3477 242.5819 L206.7184 241.8242 L207.1053 241.2864 L207.5229 240.7057 L207.7066 240.4503 L207.6072 239.5535 L207.4721 238.9998 L207.1809 236.6743 L206.7449 235.7674 L206.5925 235.4496 L206.6185 234.9625 L206.6649 234.0808 L206.518 233.0896 L206.5574 232.1009 L207.2922 231.1982 L208.2723 229.826 L210.2416 227.8292 L210.742 226.7233 L211.1131 225.9984 L211.2806 224.4273 L211.6804 223.6687 L211.9193 223.5187 L212.4568 223.1798 L212.8475 222.8258 L213.1668 222.5367 L213.7519 222.0815 L214.5181 221.6576 L215.1772 220.952 L216.053 220.4488 L216.6625 219.8124 L216.7667 219.3607 L217.0461 219.1853 L217.6761 219.8318 L218.8469 220.7784 L219.6514 221.5277 L220.8114 222.6092 L221.3457 223.3594 L221.5651 224.3371 L220.9583 225.6512 L220.6687 226.0777 L219.848 227.2881 L218.2217 229.8816 L218.4735 230.3418 L218.5254 230.4371 L218.5891 230.5534 L219.2877 230.7649 L219.6962 230.5846 L220.1998 230.8686 L219.566 232.2998 L218.7096 233.8634 L218.4065 234.4609 L217.6372 235.5988 L215.851 236.88 L214.1199 238.0237 L213.4353 238.4764 L212.3558 239.7617 L211.0467 241.321 L210.575 241.6615 L210.0704 242.0265 L209.5809 242.7227 L209.4247 242.9443 L209.3161 243.005 L208.7261 243.3337 L207.839 243.461 L207.0237 242.4235 L206.2797 242.8373 L205.5471 243.8175 L204.4919 244.5087 L205.8145 245.8024 L204.5907 247.103 L204.3995 248.1354 L204.8204 250.621 L205.6616 252.7247 L205.8793 255.7791 L203.6344 257.0079 L202.2961 258.0404 L201.798 260.5857 L202.4107 261.9418 L203.4053 263.2802 L205.1262 263.2414 L205.3936 262.171 L206.9621 260.4112 L208.9125 258.155 L209.7921 258.8057 L210.3654 260.9473 L211.8955 261.1765 L213.1192 263.0121 L211.7804 263.7387 L211.7042 265.0391 L213.3105 265.1925 L215.6813 265.7277 L218.7793 266.4162 L220.5126 265.7698 L219.4671 265.1251 L218.466 264.5857 L218.1758 264.4289 L218.2747 264.1398 L218.5529 263.3248 L218.628 263.1049 L219.7881 262.847 L221.0043 262.6497 L222.563 262.1129 L224.2681 261.4369 L225.1942 261.624 L226.8599 260.0421 L227.9681 259.0787 L228.8136 257.6291 L229.5327 256.5831 L230.3091 254.9447 L231.0202 254.085 L230.8867 253.1166 L230.5393 252.0057 L229.9531 250.9345 L229.8396 249.709 L228.5089 248.674 L228.0313 247.7536 L228.2912 247.3339 L228.517 246.9681 L228.6105 246.9057 L229.4079 246.3705 L229.6424 245.88 L230.1163 245.3043 L230.0887 244.802 L229.771 244.6157 L229.7083 244.5795 L229.3199 244.4016 L229.1335 244.3856 L228.6623 244.6005 L227.0798 244.9908 L226.1792 245.0523 L225.969 244.3173 L225.8296 243.8293 L225.7388 243.5116 L225.3471 242.8381 L224.5475 242.1546 L224.0304 241.541 L222.5106 240.0542 L222.1178 239.6698 L221.7164 239.1506 L221.1793 238.4561 L219.9982 237.1118 L219.5601 236.1543 L219.7238 235.5466 L219.8475 235.0872 L220.2322 234.3413 L221.1361 233.9645 L222.1486 232.8401 L223.442 231.0338 L224.9608 229.536 L225.8118 228.8297 L226.1024 228.9224 L226.6427 229.0944 L227.4251 230.0493 L227.9373 230.7574 L229.0962 232.6724 L229.657 234.0631 L231.601 237.1674 L231.8203 237.9799 L232.4519 238.3845 L233.1673 238.2142 L235.1826 237.3731 L236.2345 237.2028 L237.2006 236.8774 L237.8662 237.1143 L238.4638 237.6394 L238.4551 239.0074 L238.1007 241.4036 L237.8678 242.3417 L237.6776 242.8255 L237.6501 243.5057 L238.7939 243.9718 L239.3142 244.1884 L239.3796 244.2154 L240.7222 244.6115 L241.5353 244.7641 L242.3814 244.7421 L243.4604 245.0734 L244.0839 245.4248 L244.8203 245.7662 L246.3018 245.1265 L247.8951 244.6334 L248.1966 244.5356 L248.7515 244.8441 L249.396 245.5833 L251.7258 251.1899 L255.6391 260.3463 L255.6521 260.997 L255.0685 261.3999 L254.8395 261.5583 L252.2126 262.7366 L248.3354 263.9494 L245.5491 265.2304 L242.3982 266.3859 L238.8474 268.482 L236.3312 270.3951 L233.1689 271.9062 L231.6156 272.5729 L229.9969 272.835 L227.7725 272.9504 L224.3903 272.5779 L222.8715 271.8464 L220.2327 271.6551 L216.1405 271.5792 L214.5726 272.6883 L213.0809 272.6116 L212.66 270.1642 L210.863 271.3879 L214.605 281.299 L216.723 284.4426 L220.6617 296.9827 L226.4698 300.7919 L220.2738 305.0047 L220.257 305.4698 L220.0901 306.1449 L218.1791 309.9691 L216.6722 313.6484 L213.8303 318.8268 L213.4683 319.7175 L213.2797 320.2568 L213.1933 321.6236 L213.4699 322.6762 L213.4413 324.1787 L213.4386 324.3312 L213.1306 324.6152 L211.5783 326.1303 L210.9921 327.2384 L209.0854 329.5844 L207.0021 331.772 L206.8519 331.9818 L206.807 331.9894 L206.0274 331.5411 L204.4184 330.5737 L204.0975 330.5796 L203.7911 330.6757 L203.4243 330.9664 L202.6479 331.7762 L198.1742 336.5288 L197.6955 337.326 L197.3995 338.1088 L197.2152 339.0433 L196.4594 339.8211 L195.7797 340.3553 L194.8633 340.8508 L194.1896 341.4221 L193.2263 342.5732 L192.7005 343.3518 L192.1932 344.2441 L191.1586 344.9511 L190.5983 345.0421 L189.9656 344.6823 L189.401 344.7438 L188.9963 344.9241 L187.9357 345.3977 L187.0875 346.0743 L186.5207 346.3591 L185.6935 346.4552 L185.2948 346.5968 L184.5081 347.4183 L183.5983 347.9517 L182.757 348.389 L182.2394 348.7421 L181.1016 349.4061 L180.5905 349.5123 L180.1204 349.396 L179.7282 349.053 L179.4013 346.8841 L179.5493 345.7204 L179.9345 344.4076 L180.5516 343.3012 L181.1399 342.6768 L182.1087 342.1358 L182.6403 341.2586 L182.7727 340.6081 L182.5458 340.0966 L182.3853 339.8143 L180.7839 339.1495 L180.0756 339.0332 L179.572 338.9995 L178.8691 339.152 L178.1024 339.6231 L177.4162 340.1202 L177.2217 340.5752 L176.9565 342.1282 L176.937 343.3358 L177.1326 344.0579 L177.3055 344.4152 L178.0614 345.0632 L178.3834 345.3968 L178.7346 346.1485 L179.2813 349.2974 L179.2268 350.2631 L178.7735 350.8664 L178.1694 351.2481 L177.6372 351.6492 L174.8585 353.5897 L174.275 353.8054 L171.2294 352.0267 L168.8478 350.5639 L166.3592 349.3884 L161.2983 347.5464 L162.4221 345.4314 L162.6793 344.9477 L163.9138 342.8664 L165.1522 341.0471 L166.0366 339.902 L172.0771 332.2144 L173.7509 329.8617 L175.2988 328.1216 L176.2222 327.5342 L176.8711 327.4289 L178.0954 326.3856 L180.0469 324.4416 L181.8828 323.0613 L182.9499 321.7517 L183.9646 319.929 L184.5486 318.5217 L184.6259 316.2987 L184.5103 314.6832 L184.8717 314.079 L186.1468 312.8748 L187.6229 311.775 L189.0655 309.4298 L189.6436 304.2386 L189.2924 301.7526 L190.9457 301.188 L190.4816 297.6257 L183.8506 292.4117 L183.4821 291.8689 L183.5831 291.2158 L184.4498 290.1211 L185.5746 288.7819 L186.4607 288.1305 L187.4462 287.265 L188.5452 286.2031 L189.2843 285.4159 L190.2363 284.2555 L192.1192 282.2151 L193.8973 279.6143 L194.3987 278.6847 L194.5316 278.2811 L194.0291 277.054 L193.41 276.7472 L192.9615 276.2904 L192.7503 275.7418 L192.8291 275.092 L193.0037 274.5678 L193.4051 273.7772 L193.8308 273.3786 L194.1004 273.2791 L194.5748 273.1038 L196.434 273.591 L197.2747 273.4713 L197.9338 273.6643 L200.3349 275.4948 L201.865 275.108 L199.7676 267.2178 L195.6057 264.155 L189.9461 261.5246 L185.7854 262.6641 L185.3964 263.195 L184.2428 264.112 L180.7455 266.7146 L176.0504 270.3201 L174.1459 271.8253 L169.2433 275.9002 L168.2318 276.8197 L167.6278 277.4813 L166.3127 279.2098 L165.4196 280.2826 L165.1495 281.0681 L163.9646 282.9728 L163.1023 284.0793 L162.1725 285.0064 L161.1735 285.4067 L160.2798 285.705 L158.6449 285.4867 L157.855 285.1471 L157.2969 284.1097 L156.3249 283.1287 L155.9191 282.4005 L156.152 281.3176 L156.93 280.0492 L157.7572 279.9742 L158.1435 279.2502 L157.8069 277.6473 L157.3369 276.1581 L156.4702 274.9175 L155.9451 274.5568 L155.4118 274.4287 L154.8764 274.3394 L154.3247 274.4287 L153.121 274.7009 L152.2846 274.7372 L150.9814 274.7262 L148.5139 275.2976 L147.4387 276.0612 L146.363 276.5247 L145.5682 276.2811 L144.5428 275.8707 L144.171 275.9432 L144.063 275.5698 L143.9279 275.1055 L144.2883 274.5096 L144.6373 273.9323 L144.5601 272.9344 L144.0868 272.1582 L143.5654 271.8936 L142.7263 271.8262 L141.8921 272.0874 L141.8478 272.1009 L140.5797 272.0428 L139.6558 271.5194 L138.7373 271.6205 L137.1651 270.7946 L136.4514 269.8658 L135.5707 268.7331 L134.9429 267.9442 L134.4777 266.9143 L134.4247 266.4019 L134.3966 266.1297 L134.7662 265.8431 L134.898 265.7412 L135.5745 265.8381 L136.8749 266.6859 L136.9922 266.7871 L139.7212 269.1773 L142.0201 270.149 L143.7831 270.6378 L144.8734 270.2763 L144.9361 270.1541 L145.397 269.2548 L145.7741 268.6573 L145.813 268.5957 L145.7833 268.5814 L145.0966 268.2434 L143.0294 268.058 L140.3555 266.5738 L137.9242 265.4782 L137.6584 264.8714 L137.3596 264.1896 L136.0975 263.2987 L134.8737 263.3653 L133.7688 262.3902 L132.564 262.5747 L132.4148 262.0218 L132.2652 261.469 L132.4429 259.1554 L133.3971 258.2393 L133.818 257.4824 L133.9606 257.2262 L134.2497 256.5503 L134.1589 256.38 L134.019 256.1196 L133.4522 255.6459 L133.1464 255.3897 L132.4111 255.3981 L131.431 255.3408 L129.8306 255.7353 L129.0072 256.0715 L128.1238 256.0951 L127.4615 255.8541 L126.43 255.978 L126.3328 255.9898 L125.5758 255.9645 L124.3742 254.6952 L123.7124 253.7226 L122.5329 252.5072 L121.864 251.9425 L121.3259 251.2202 L119.8941 249.5345 L119.9006 249.0524 L120.1238 248.6555 L120.5133 247.2816 L121.2108 246.5551 L122.1223 246.9007 L123.3061 247.1282 L123.5595 246.9909 L123.3682 246.3132 L122.507 245.4897 L122.0537 245.2934 L121.7079 245.2917 L121.5939 245.2908 L120.8153 245.456 L119.9384 246.1733 L119.4495 246.7093 L119.3295 246.926 L118.967 247.5808 L118.2392 247.6752 L117.7335 247.6618 L116.8318 247.3516 L115.3919 246.9723 L115.0774 245.9896 L114.689 245.7401 L114.086 245.7898 L113.5522 246.4177 L113.3712 246.7835 L113.134 246.8509 L112.9703 246.8973 L112.9417 246.8122 L112.7726 246.309 L112.4095 246.0266 L111.9713 245.7611 L111.2354 246.3259 L110.8615 246.3916 L110.3726 246.4776 L109.5497 246.5037 L109.2104 246.2584 M126.7499 239.1953 L126.8671 238.9846 L126.9401 238.8194 L127.5187 238.5143 L128.662 237.9934 L128.9748 237.9749 L129.185 238.0768 L129.3201 238.1805 L129.3211 238.3002 L129.3244 238.5842 L129.3271 238.8236 L129.2109 239.1692 L128.9905 239.4558 L128.7392 239.6833 L128.5318 239.835 L128.2789 239.8679 L127.8456 239.8123 L127.3966 239.6825 L127.0962 239.4912 L126.7499 239.1953 M143.9436 426.6493 L144.0133 426.2314 L145.7244 424.9332 L146.8341 423.8371 L147.6883 423.0182 L149.4297 421.7217 L150.8582 420.7149 L152.0377 420.0384 L152.4975 419.6812 L154.0351 418.8252 L154.9499 418.377 L155.4523 418.1672 L155.8246 418.0122 L157.299 417.666 L157.7691 417.377 L158.3294 417.1874 L158.8502 417.0838 L159.4094 417.1605 L159.6855 417.4697 L159.8071 417.7873 L159.8125 417.8943 L159.8292 418.2287 L159.7023 418.618 L159.1209 419.0358 L158.3775 418.9533 L158.3326 418.9482 L157.3671 419.0822 L156.6782 419.7461 L156.4783 420.3543 L155.683 420.6323 L154.248 420.3324 L153.4624 420.5371 L152.9216 420.9323 L152.7476 421.7048 L153.0561 422.4757 L152.9335 423.1185 L152.8654 423.4732 L152.1992 423.6964 L151.6168 423.8911 L150.4433 424.2019 L148.8386 425.2533 L147.563 425.9054 L145.4532 427.4842 L144.5244 427.5356 L144.1105 427.1093 L143.9436 426.6493 M146.4403 430.2399 L146.7061 429.7513 L147.51 428.929 L148.9229 427.9088 L149.8517 427.0284 L151.3007 425.5457 L152.7827 424.9585 L153.4619 424.929 L154.4474 424.886 L155.8305 424.9079 L157.3288 424.4176 L159.5034 422.9273 L159.9011 422.8026 L160.1604 422.7217 L161.2918 423.6257 L161.9753 424.5027 L161.9391 425.4976 L161.7419 425.6754 L160.7348 426.5827 L159.4672 427.2828 L158.4029 427.4067 L157.493 426.961 L156.4535 426.9324 L155.4977 427.7302 L154.7672 428.3924 L153.6456 428.7723 L151.9323 429.1497 L150.6572 429.8018 L149.7733 430.7361 L148.2351 431.2828 L146.9562 430.9964 L146.4403 430.2399 M154.8488 283.4262 L154.9028 283.0697 L154.9774 282.907 L155.0293 282.8337 L155.173 282.7216 L155.2557 282.6947 L155.4361 282.6879 L155.6868 282.7334 L155.8035 282.7789 L155.9591 282.8952 L156.0169 282.9711 L156.0623 283.0714 L156.1109 283.293 L156.1385 283.6268 L156.1288 283.7911 L156.0612 284.0515 L155.998 284.1619 L155.9267 284.226 L155.7398 284.3027 L155.4734 284.3305 L155.3497 284.3052 L155.2281 284.2352 L155.0336 284.0161 L154.8796 283.6293 L154.8488 283.4262 M161.8175 287.1672 L161.9283 286.4551 L162.6404 285.8761 L163.1293 285.3426 L164.6005 283.2913 L165.3083 282.2126 L165.5396 281.9825 L165.8205 281.8215 L167.9244 281.7878 L168.7122 282.3921 L169.3821 282.505 L169.8635 282.398 L170.1574 282.0803 L170.246 281.6808 L170.1353 281.4676 L169.9057 281.235 L169.7619 280.8566 L169.1714 280.7066 L168.6857 280.9695 L167.8509 281.2055 L166.3878 281.1971 L165.8972 281.0538 L166.2241 280.522 L167.6267 278.5212 L168.9272 277.0759 L169.7819 276.4337 L172.1495 274.4708 L176.2908 270.905 L182.3588 266.2544 L184.2126 264.9118 L185.9058 263.522 L186.4089 263.7875 L186.6817 264.0522 L186.3424 264.8014 L180.511 273.6146 L178.4385 276.8989 L177.1202 278.6401 L176.2978 279.7804 L174.6019 281.626 L172.0295 284.2748 L168.8078 287.5439 L167.9714 288.2552 L167.4063 288.5004 L166.8357 288.8999 L166.2868 288.8662 L165.9961 288.7423 L165.4429 288.5072 L164.3855 288.3698 L163.2968 288.2771 L162.5685 287.7892 L161.8175 287.1672 M167.9725 204.3382 L169.361 200.0645 L170.2255 200.9243 L169.8905 206.4455 L173.1917 210.6601 L175.261 208.9659 L175.8337 212.8601 L175.6284 214.0655 L174.7369 216.1391 L174.5262 213.7705 L169.9175 210.0448 L167.9725 204.3382 M178.399 163.6992 L181.355 161.9019 L183.3854 159.8449 L187.4419 159.0617 L187.7315 163.0037 L187.6153 168.8576 L189.8764 173.9594 L191.3833 177.6686 L190.4562 178.944 L183.8479 174.4231 L180.7174 170.6549 L179.0366 167.003 L178.4568 164.8583 L178.399 163.6992 M189.6857 199.9389 L189.7068 197.7279 L189.8192 197.1681 L190.1477 196.7762 L190.4432 196.4786 L190.5686 196.3522 L190.7398 196.1794 L190.9046 196.176 L191.4935 196.165 L191.7421 196.4499 L191.9323 197.1235 L191.9296 197.6925 L192.2602 197.7338 L192.7162 196.7113 L192.8924 196.1279 L193.2219 195.9113 L194.6402 195.9113 L195.7348 196.1676 L197.0688 196.8175 L197.2811 197.2971 L197.38 198.2429 L196.7743 199.262 L195.992 200.1884 L195.6019 200.2786 L195.4955 200.4581 L195.5468 200.7751 L195.4398 201.1173 L195.1086 201.7403 L194.6845 202.3775 L193.5234 203.2972 L192.8016 203.4278 L192.0268 203.2289 L191.5805 203.0578 L191.0748 203.3562 L190.9797 203.6023 L190.5956 203.6512 L190.5243 203.6031 L190.353 203.4868 L190.1596 203.126 L190.145 202.1128 L189.6857 199.9389 M191.6513 211.0192 L191.9236 210.4823 L192.9685 209.4598 L193.4786 209.2246 L194.6629 209.298 L195.5079 209.7295 L196.0812 210.4705 L196.4042 214.9303 L196.2216 215.9081 L196.1914 217.1261 L195.617 217.9024 L194.9033 218.9847 L193.8973 220.9495 L193.6601 221.8219 L193.4386 221.972 L193.082 221.4038 L193.0047 221.1206 L192.8043 220.3873 L192.7227 219.128 L192.6897 218.624 L192.3024 215.5204 L192.0581 213.1906 L191.6513 211.0192 M205.4428 240.3011 L205.7837 239.8114 L206.2278 239.803 L206.5725 240.2067 L206.5828 240.6644 L206.0819 240.9501 L205.6443 240.919 L205.4428 240.3011 M252.0272 148.1149 L252.3806 147.2204 L253.5125 146.4532 L254.8205 145.8268 L256.1097 145.3075 L256.2377 145.2232 L257.1843 144.886 L259.0289 144.6221 L260.8416 144.7966 L261.6812 144.3068 L262.745 143.4966 L265.239 142.9318 L268.5747 142.4209 L271.7976 142.1292 L274.0765 141.8746 L275.6866 141.8392 L276.933 141.8687 L279.1218 141.4404 L279.8803 141.1849 L280.2618 139.8672 L279.9603 139.1388 L280.1726 137.6533 L280.519 136.9519 L281.3451 136.9949 L287.177 136.7866 L288.6417 137.0868 L289.4862 137.3026 L292.4988 137.311 L294.4893 139.9473 L294.8351 140.0906 L295.283 140.0181 L295.7011 140.0426 L296.0064 140.2247 L296.1458 140.803 L296.1204 141.5011 L295.9486 141.8796 L296.0323 141.9901 L296.0129 144.7005 L297.335 145.3294 L299.8949 145.5157 L302.0869 145.9938 L305.0255 147.3907 L306.1947 148.7337 L308.9902 150.5884 L309.7574 151.5967 L314.613 155.4957 L314.2888 156.74 L314.292 157.3082 L314.6589 157.7829 L314.3012 158.7692 L314.3039 159.2447 L313.9473 159.9064 L313.4913 161.9145 L313.0969 162.9961 L312.4691 163.4159 L312.0822 163.8459 L311.1654 163.5635 L309.7487 163.7928 L309.3889 163.915 L309.3883 164.0136 L309.7909 164.7024 L309.3138 164.8685 L309.001 165.8219 L308.3499 166.8807 L307.6691 167.7541 L307.4611 168.4234 L307.5211 168.7952 L307.9171 169.6854 L310.2625 170.8336 L310.8936 170.1238 L311.2016 169.4477 L311.724 169.1906 L312.9548 167.8055 L315.1889 169.6804 L316.1215 170.8125 L316.4656 171.0393 L319.1946 172.0593 L319.4664 172.1318 L322.6968 171.9025 L323.5164 171.6058 L326.3892 170.4298 L328.7129 170.7898 L332.6414 175.8722 L335.8653 179.9354 L340.8879 185.6331 L341.3217 184.8086 L341.2844 184.6898 L338.3393 179.846 L337.6629 178.52 L337.3765 178.128 L336.2576 175.9835 L336.0868 175.4288 L334.4854 172.2886 L336.9297 169.8152 L338.804 166.3066 L339.1935 166.4567 L339.5258 166.9861 L339.7868 164.6602 L339.716 164.3306 L340.0439 160.2437 L340.8263 155.4232 L342.1916 152.0224 L342.7621 149.7529 L343.39 149.0566 L345.1194 144.8455 L344.9665 143.5607 L346.0606 137.2933 L346.9375 134.985 L346.9953 134.4505 L346.8003 134.2599 L346.7803 134.077 L345.9174 133.3958 L345.731 133.2137 L342.2073 131.8209 L341.6167 131.5528 L340.963 131.4162 L340.702 131.9895 L340.2103 131.9853 L339.8251 131.541 L339.1238 130.5639 L339.0455 130.3877 L338.51 130.1449 L337.7693 126.5128 L338.362 125.7903 L338.3307 125.4025 L338.7062 124.8342 L339.3929 124.4852 L339.6376 124.4346 L341.6978 123.7837 L348.3055 124.201 L353.2168 117.8356 L353.9192 116.3854 L357.0799 113.9151 L350.3316 114.1765 L350.3316 116.748 L341.7086 116.3517 L330.3381 113.4969 L329.8168 113.4295 L329.7579 113.351 L327.3692 112.7516 L330.1085 104.6406 L330.0113 100.4544 L329.8114 99.285 L329.4629 98.2125 L328.8642 96.8736 L329.2397 96.3685 L329.5239 96.1375 L329.9021 95.7606 L329.8816 95.5768 L331.0162 95.543 L329.8006 94.877 L328.493 94.0928 L329.2765 89.253 L339.3907 90.9394 L338.4182 93.1569 L344.5991 99.0337 L354.5999 103.8481 L353.595 90.0119 L355.5346 82.4233 L357.3608 77.0184 L359.2918 72.5157 L360.2989 69.0509 L361.541 66.254 L362.7092 64.9976 L364.1182 63.855 L365.2139 63.161 L366.4318 61.8608 L366.9823 61.047 L368.5475 55.4345 L371.2247 60.5841 L373.7781 61.1027 L374.3627 60.8472 L375.259 61.1297 L375.339 61.4198 L377.1193 61.7815 L375.64 63.1948 L375.6789 63.5953 L378.9509 66.6638 L379.3653 66.8004 L380.0487 66.4504 L381.4756 66.1739 L382.6664 66.9985 L383.0684 67.211 L383.5314 67.2287 L384.987 66.6587 L387.2103 64.366 L387.5183 63.9958 L385.9044 61.0901 L386.288 60.9332 L386.4328 60.2738 L388.1466 58.3605 L389.0981 57.7213 L390.6552 56.8216 L392.0162 56.416 L393.9191 56.5239 L394.9808 56.26 L396.6697 55.894 L399.1815 55.2102 L401.2579 54.9665 L403.7502 55.3038 L404.7255 55.932 L405.0064 56.5349 L405.0458 56.7094 L405.7547 56.9835 L405.128 60.4922 L405.2533 60.5909 L406.4679 60.6516 L409.4341 61.655 L408.8646 66.9033 L409.46 68.4927 L409.614 69.1614 L409.4827 70.0619 L409.285 70.8343 L408.9916 71.2981 L408.535 71.6033 L408.347 71.6716 L408.3157 71.9592 L406.5597 72.4735 L406.5705 76.4282 L410.6227 78.0302 L407.1649 80.4502 L407.2308 81.4241 L407.6598 82.0109 L408.4048 82.5126 L410.5736 82.9831 L410.9264 83.4638 L410.9734 83.9536 L412.1788 85.307 L413.0108 98.4182 L411.1684 100.3828 L416.1337 106.5293 L420.2994 110.7618 L417.144 113.7043 L416.9225 116.9925 L418.7287 118.4544 L420.503 118.9485 L421.0757 119.1787 L421.3232 120.1828 L421.3659 120.5883 L423.3088 122.1607 L421.1595 123.1809 L421.139 124.4691 L421.2816 125.926 L421.2573 126.3467 L421.0622 126.5634 L420.6819 126.4858 L420.3242 126.3113 L420.2075 126.8644 L421.0061 127.3584 L421.3972 128.3592 L421.5874 129.2537 L421.6755 129.5176 L421.5166 129.9594 L421.2622 130.0934 L419.8001 129.6019 L419.7704 130.246 L419.2231 129.4097 L415.5756 128.1914 L410.8491 126.8273 L408.6771 125.8198 L407.3226 126.4209 L408.7285 127.0785 L408.8382 127.4765 L409.1121 128.0338 L409.7269 128.9983 L409.5249 129.1702 L408.9867 129.2571 L408.6609 128.6619 L408.447 128.188 L407.8959 127.9073 L407.3507 127.9486 L406.3209 127.8382 L404.4656 127.1671 L403.7497 127.0052 L401.5972 127.8761 L399.2237 129.1719 L398.8881 129.0868 L398.6131 128.8077 L398.4883 128.3187 L398.3387 126.8163 L397.9659 125.0728 L397.9675 124.7946 L397.6984 124.6428 L396.3007 125.2912 L394.3762 125.5104 L394.2995 125.3426 L392.6915 128.1619 L391.417 131.1608 L390.8475 134.3392 L388.4438 135.4141 L388.098 135.6502 L387.5636 131.611 L385.8244 129.3465 L379.167 129.8717 L378.1177 125.8383 L383.9848 124.5425 L381.5021 122.0469 L380.5917 121.079 L378.9422 119.4957 L374.2941 114.7725 L373.2486 113.3215 L372.3896 112.6993 L371.9951 111.9278 L366.0627 113.2735 L370.0144 122.127 L371.7153 126.093 L371.4003 128.2218 L370.411 129.8118 L368.5378 130.5908 L368.6972 130.9205 L368.5967 131.8487 L368.0834 131.9373 L368.9495 133.4995 L369.8037 134.367 L369.9053 134.9985 L369.9534 135.6299 L369.7221 136.0877 L369.5698 136.6256 L368.1326 137.392 L366.3486 138.9862 L365.8056 140.105 L365.5365 141.3249 L365.1718 143.253 L365.2188 147.1614 L365.1399 148.6089 L364.9384 149.0937 L362.2137 147.631 L359.2556 146.6943 L358.0259 149.468 L360.8857 151.6734 L362.7005 152.3908 L363.4331 152.7558 L363.6136 153.2102 L363.6774 153.6065 L363.0625 153.829 L362.1829 153.7413 L360.8705 153.3401 L360.2816 153.0585 L359.8618 152.7811 L358.7926 152.325 L358.0205 151.9179 L356.3986 152.1438 L355.8026 153.6174 L353.4221 158.69 L352.5873 160.6677 L351.791 160.4991 L351.1367 159.8306 L349.6147 159.1991 L348.3099 158.7793 L346.3389 160.8886 L346.2476 161.0277 L344.7866 162.6033 L344.2215 163.7009 L344.0286 164.1527 L344.5916 165.0919 L344.7628 165.6702 L345.0746 166.3631 L345.1281 166.9043 L345.6133 168.544 L346.6809 169.3035 L347.1969 169.4957 L348.1008 169.9543 L351.4138 170.0395 L352.4361 170.3522 L352.6235 170.3531 L353.4686 170.5158 L354.178 170.547 L354.7285 170.488 L355.6108 168.603 L356.5714 166.6059 L358.8655 164.1173 L359.9602 163.5171 L360.8187 162.8132 L361.2369 162.8663 L362.1613 162.2593 L362.8172 161.2839 L363.4386 159.0196 L363.9183 158.3747 L364.1652 158.1513 L364.3317 157.8899 L364.5235 157.8275 L364.8633 157.5198 L365.429 157.5316 L365.5068 157.5063 L365.6575 157.5367 L366.3026 157.5502 L372.3955 159.2034 L372.9358 159.2253 L373.2119 159.4251 L373.4847 159.4993 L373.508 159.64 L373.6549 159.7463 L374.1871 160.865 L374.1255 162.3343 L374.4686 165.1804 L374.3659 166.3488 L374.0715 167.3258 L373.7819 167.8139 L373.7392 168.2102 L372.5819 168.9815 L372.5543 169.0051 L371.1004 169.9796 L372.4274 172.6047 L373.0466 172.7042 L374.8338 172.6334 L375.2688 171.2694 L375.1337 169.4249 L375.5686 167.341 L377.8433 160.8237 L379.2912 152.975 L380.7117 151.7476 L381.9225 152.4861 L381.5961 155.4957 L382.5108 157.1599 L379.992 167.6555 L377.5326 174.6726 L381.1163 177.7015 L385.5397 175.5426 L386.529 174.2528 L385.9892 169.5446 L385.8995 167.1758 L385.7931 166.6042 L385.3701 165.4577 L385.3204 164.4832 L385.4511 164.1586 L385.5397 162.9177 L385.3182 161.8041 L385.1442 161.5655 L383.6503 160.0987 L383.7162 158.8763 L387.3086 154.5212 L389.6929 151.4921 L390.0976 151.4028 L390.4423 151.5975 L391.0123 152.4667 L389.573 161.5908 L393.5225 158.3114 L398.0123 163.7405 L402.1823 164.5667 L402.9695 165.4813 L403.2445 165.5521 L403.4471 166.036 L404.9562 167.7903 L405.6267 168.0036 L406.1021 167.7971 L407.2049 167.5905 L407.6754 166.4795 L407.2675 165.5446 L407.7473 162.3967 L407.7614 161.8951 L407.9013 161.3851 L408.045 160.4434 L408.9965 156.1786 L411.0982 156.6169 L412.3706 157.8427 L412.5807 157.9304 L412.8628 158.255 L412.9368 158.389 L413.0054 158.4548 L412.9995 158.502 L413.1216 158.722 L412.8763 162.7323 L412.5883 164.9941 L412.0912 166.8917 L411.9108 167.1985 L411.6406 167.5197 L411.3181 167.803 L410.8815 168.0196 L410.9415 168.4858 L410.8929 169.0135 L410.8048 169.296 L410.7637 170.2384 L410.8108 170.8505 L410.9631 171.7971 L411.0701 172.9116 L412.8882 173.4132 L414.4923 174.3877 L418.7541 175.1759 L419.8931 174.187 L420.8018 174.7687 L421.3432 175.2829 L422.2633 176.0602 L422.4011 176.6949 L422.4746 177.3778 L422.7091 178.0614 L421.9202 180.0947 L422.212 180.7185 L424.9729 179.6361 L426.5327 176.7868 L427.837 175.7828 L428.5415 176.802 L428.4918 176.963 L428.7998 177.3095 L428.8268 177.7512 L428.5885 178.6667 L427.8564 179.4254 L427.6376 179.7305 L427.5371 180.0559 L426.9071 182.949 L428.4578 183.7044 L429.5086 181.6247 L430.2267 181.4789 L430.4584 181.7234 L429.648 183.0435 L429.6567 184.2017 L429.7409 184.329 L432.102 182.0664 L432.2971 181.6955 L432.4867 181.2471 L432.833 181.3659 L433.3398 180.8804 L433.4349 184.5996 L433.7234 185.3423 L433.4781 186.3032 L433.5149 187.0577 L434.3026 189.7164 L434.5847 189.9592 L435.273 190.4574 L435.5237 191.6502 L435.5815 192.1913 L435.7846 192.9011 L435.7533 194.614 L435.9543 195.2926 L436.4551 196.1692 L436.4071 196.5385 L436.071 196.6843 L435.7592 196.6969 L435.4594 196.4997 L434.992 196.3522 L433.7375 196.3834 L433.3387 196.8638 L433.2998 196.9726 L432.8611 197.5576 L432.7898 197.6318 L432.4667 198.9181 L432.8298 200.9117 L431.6006 203.6259 L425.5078 206.0999 L424.6217 209.0839 L424.706 209.142 L431.3753 213.7283 L436.0056 222.6041 L434.898 222.1574 L435.8057 224.096 L436.8252 229.0691 L436.3384 229.6254 L436.1331 230.0274 L436.1634 230.4312 L436.0796 231.451 L435.9748 231.977 L435.6452 232.2847 L434.951 232.7921 L434.6408 233.3408 L434.2324 234.7045 L433.6678 235.0948 L433.2469 235.1352 L432.3203 238.2614 L433.5203 241.4255 L432.3149 243.8369 L431.5871 246.239 L431.8459 247.848 L431.3986 250.7297 L430.9858 251.7327 L430.721 252.7045 L430.1154 253.7462 L429.2693 252.5789 L428.9132 252.1701 L428.6317 252.3108 L426.7645 253.0256 L426.1415 253.645 L425.263 254.9379 L424.6114 255.5507 L423.7502 256.4803 L422.9333 256.6818 L421.6377 256.1002 L421.5831 256.0109 L418.9746 256.573 L418.8832 256.6303 L418.8568 256.6405 L418.8854 258.0379 L419.6202 259.7328 L425.2879 264.5452 L424.5833 266.825 L424.565 267.1006 L425.0161 268.0117 L424.3202 270.7811 L423.8485 276.1808 L424.9459 278.8634 L425.7676 279.8992 L427.6365 279.7913 L429.3536 279.4137 L430.1851 279.3488 L430.3234 279.3876 L431.3969 279.1415 L428.0217 285.2381 L427.616 286.3337 L427.0098 291.5976 L426.4014 291.8866 L426.3041 292.3839 L425.7385 292.7934 L425.3786 292.9148 L424.2824 292.1386 L423.8296 292.6569 L423.8966 294.5952 L424.3251 295.4009 L424.2618 296.5318 L424.3207 298.1339 L423.9215 301.0767 L422.9959 301.0809 L421.7862 297.5473 L423.271 305.6628 L418.7271 313.5338 L416.996 315.59 L415.2973 316.1984 L415.0936 316.0897 L414.8959 315.863 L412.2285 315.1796 L409.9322 315.6886 L408.3151 316.1504 L406.4981 316.8304 L405.4213 316.8136 L405.2738 316.7369 L404.793 316.8456 L403.874 315.9801 L402.6291 315.1678 L402.4233 314.6141 L401.9294 314.1489 L401.5572 312.1138 L400.6468 309.1323 L400.3075 308.4817 L399.4333 307.9938 L398.0874 307.8126 L396.9399 307.7679 L396.4709 307.9626 L396.11 308.432 L396.2148 310.6517 L395.2752 310.8143 L395.3779 311.3292 L394.9273 311.6705 L394.1703 311.77 L393.5085 312.0278 L393.4696 312.0337 L392.2517 311.9579 L391.7061 312.2444 L390.9853 313.0871 L390.1397 313.5548 L389.6519 313.5397 L388.7139 316.0029 L387.8603 320.9832 L390.297 325.1882 L380.0476 325.1882 L377.2705 315.9355 L367.3519 308.957 L362.479 307.0828 L359.5252 305.4783 L357.6358 305.5238 L356.5315 306.1685 L355.8507 306.8536 L354.8025 307.1764 L353.0849 308.3907 L351.1005 309.4997 L349.2673 313.045 L345.4463 315.1796 L345.087 313.8548 L342.4218 307.1064 L340.9381 305.4066 L339.3886 306.6977 L338.8023 307.28 L337.7191 308.6039 L336.8595 309.4315 L336.2106 309.3455 L335.3007 310.1039 L331.9968 305.9131 L330.5732 306.514 L329.0647 307.232 L327.9792 308.2441 L326.9186 308.6916 L326.2519 308.2087 L325.4971 307.3719 L325.3178 305.9274 L325.4366 303.7018 L325.4145 303.3647 L323.4203 297.7715 L317.8871 297.6653 L317.3209 297.8398 L315.7476 298.6901 L314.1705 299.0221 L312.7311 299.2556 L311.8218 299.7983 L310.0972 301.3759 L308.9739 302.7799 L308.5763 302.9998 L307.9512 304.542 L307.7966 308.8525 L308.7562 312.0759 L309.7941 314.5332 L310.3176 315.7922 L307.6972 319.913 L304.543 314.8644 L303.0129 308.8652 L296.7077 313.4074 L296.2112 312.6321 L293.4984 308.3174 L297.1291 306.2106 L311.4506 296.7341 L312.7295 294.7427 L310.8525 292.2296 L310.8417 292.1841 L310.8034 292.1378 L310.8136 292.0619 L310.5554 290.9495 L317.5878 282.0879 L318.3826 280.1537 L316.2933 279.3438 L315.0987 277.4703 L315.2127 276.1581 L315.6087 274.2913 L320.1763 267.3695 L321.2931 264.8478 L322.3986 263.4243 L322.5958 262.9709 L328.0684 257.6636 L333.9008 252.251 L340.0931 242.1596 L344.3668 231.9188 L342.5974 229.9549 L342.4758 228.7951 L342.3742 228.6392 L342.4012 228.0812 L342.3191 227.299 L342.6163 226.2926 L342.733 225.7329 L342.9388 225.2019 L345.6711 215.9511 L346.8413 214.2425 L345.791 210.8076 L345.5808 208.1836 L339.3043 210.6433 L338.7408 209.3603 L338.3642 208.5697 L332.5663 216.2655 L328.0981 221.3634 L325.6014 222.0857 L325.2443 222.2543 L324.8029 222.2628 L323.9524 222.0824 L323.6358 221.9374 L323.3154 221.9779 L317.0626 220.239 L317.8093 219.2553 L318.0017 218.1654 L319.2087 217.3672 L319.7538 216.6094 L320.112 216.2234 L320.9819 215.0778 L321.3347 214.5308 L320.5864 213.5665 L319.153 213.6162 L318.7646 213.8767 L318.3086 213.6449 L317.5278 213.6719 L317.0778 212.8618 L316.9681 211.6986 L316.8692 211.4904 L316.9346 211.3463 L315.8632 199.9971 L314.5697 197.8391 L311.6954 197.4033 L310.3382 197.4826 L309.0685 197.9234 L306.5135 198.269 L303.4376 197.9462 L303.2712 197.8939 L302.4726 197.9403 L302.5067 197.6225 L302.0631 197.1715 L302.2203 196.5233 L302.2727 195.9467 L302.1176 195.4114 L301.8426 195.0338 L301.6184 194.92 L292.7906 195.9003 L292.9732 195.2808 L292.2238 194.8273 L292.561 193.4516 L293.5011 190.6892 L294.1581 189.2545 L294.8226 188.248 L294.8232 187.4421 L294.3434 186.8141 L277.2896 186.4339 L280.3639 181.4603 L273.8696 183.5341 L269.4878 185.5235 L265.749 184.8238 L265.5459 184.2439 L264.6614 183.7187 L264.1962 183.0182 L264.4728 182.5512 L265.5388 181.9746 L271.4864 175.8208 L271.7009 175.3833 L272.5583 174.3843 L273.888 173.0861 L275.5856 171.175 L276.3009 170.4829 L277.818 169.7765 L280.8123 167.2179 L284.3113 164.5085 L286.3271 162.9076 L287.2218 162.3782 L287.7437 161.3413 L287.7907 160.8886 L287.7605 160.7899 L285.3076 157.5932 L285.2406 157.6117 L281.7578 165.7637 L278.9159 167.1884 L278.6085 167.1851 L277.751 167.8704 L276.8769 168.3299 L275.2889 168.0525 L273.3455 167.1277 L271.9894 167.1126 L272.0996 166.4171 L271.9148 166.3117 L271.5636 165.3701 L271.5512 164.4352 L271.7808 162.5864 L273.1391 155.6711 L273.3623 154.9663 L273.8393 154.5389 L272.7566 149.9485 L255.7374 153.8012 L254.5164 151.783 L253.7518 151.5899 L252.6707 150.0143 L252.0272 148.1149 M287.8669 77.2393 L288.0879 75.0082 L288.3861 74.0857 L289.4624 73.4188 L291.1184 71.358 L291.3767 69.9953 L291.4609 68.771 L292.26 68.4624 L292.6788 68.1478 L293.8728 69.3756 L295.0695 70.7846 L297.1383 73.7114 L298.0071 75.7637 L298.4312 77.2284 L298.0952 79.1306 L297.4863 79.9578 L295.1587 80.7605 L293.6237 81.0767 L292.2255 81.5497 L291.1054 81.5303 L290.3382 81.2065 L289.5986 80.4974 L288.8648 79.2723 L287.8669 77.2393 M320.6048 336.8886 L321.6686 334.2478 L322.3424 333.1565 L323.1982 331.1526 L323.9978 328.2294 L324.2291 327.1946 L324.5106 324.9632 L325.2065 318.5327 L325.6101 315.3894 L326.0482 315.2107 L326.3789 315.1728 L326.8036 316.1478 L327.0926 317.0428 L327.6464 318.2908 L328.2791 319.9838 L329.0161 321.1383 L329.579 322.1141 L330.672 323.6714 L331.3139 324.7112 L332.5323 325.875 L332.6619 328.1443 L331.7958 330.101 L328.5206 338.6077 L322.0274 337.6125 L320.614 337.4406 L320.6048 336.8886 M338.8412 25.0335 L338.8591 24.8977 L338.9277 24.3816 L339.2394 23.8934 L339.0671 23.2997 L339.6047 22.8966 L341.2736 21.9529 L342.5568 21.2825 L343.8254 20.3624 L343.9665 19.2416 L344.2577 18.4801 L344.7963 18.1167 L345.5652 17.9918 L345.9526 18.1462 L346.7797 16.6889 L346.8878 16.3254 L346.9834 16.0033 L346.9462 15.2949 L347.4654 14.8117 L348.2537 14.2846 L349.2543 13.8385 L351.3803 12.393 L352.6452 12.3652 L353.6085 13.0938 L354.1099 13.5281 L354.2747 13.6706 L354.5459 14.5334 L354.7512 15.8093 L354.8382 16.7859 L355.3499 16.968 L355.8258 16.6906 L356.311 16.328 L356.6266 15.9544 L356.8881 15.5361 L356.7789 15.0006 L355.6313 14.0569 L354.7647 13.2743 L354.5189 13.0525 L354.3157 12.4486 L354.648 12.3238 L355.2045 12.0565 L355.9582 12.3593 L356.5968 12.5642 L356.7714 12.6207 L357.0215 12.3997 L357.4754 12.0 L358.0702 11.3093 L359.877 10.4862 L361.8847 9.7955 L362.3477 9.6749 L362.7167 9.9684 L362.7032 10.4086 L362.05 11.5353 L360.6771 13.222 L359.5025 13.5897 L358.9493 14.3031 L358.6672 15.2628 L358.3252 16.7867 L357.6693 17.5297 L356.9248 18.9018 L356.7946 20.8043 L356.5817 22.8586 L356.2624 23.8706 L355.4163 24.7527 L354.3449 24.4727 L353.3216 23.7323 L352.4766 23.0011 L351.9212 21.7395 L351.7882 21.2007 L351.3533 20.6618 L350.9119 20.4282 L349.304 18.7609 L348.2196 17.3543 L347.453 17.3484 L346.9602 17.6663 L346.3913 18.3199 L346.4161 18.33 L346.6404 19.008 L346.6717 19.6793 L347.0277 20.2739 L347.7463 20.311 L349.7713 20.8515 L349.9815 21.823 L350.2409 21.8197 L350.2576 21.8087 L350.8184 22.2565 L349.5963 24.3209 L347.9095 24.9391 L346.1876 24.8033 L344.9573 25.4408 L344.2069 26.107 L343.779 26.161 L343.397 25.7857 L343.31 25.2469 L342.7108 24.9517 L342.0003 25.1516 L340.7063 25.3919 L339.6149 25.6534 L338.8412 25.0335 M353.1595 386.7902 L353.3092 385.6426 L353.7787 384.8826 L354.9317 384.051 L356.3305 383.3079 L357.8995 382.8217 L358.1934 384.1681 L358.4144 385.8027 L358.5257 386.2315 L359.1097 388.8991 L358.9071 390.1974 L357.819 390.6313 L356.4169 390.6692 L355.0851 389.7492 L354.4535 389.1341 L354.0834 388.8013 L353.2876 387.6917 L353.1595 386.7902 M365.5651 30.3674 L365.7786 29.4566 L366.0314 27.7953 L367.3119 26.3744 L367.5059 25.8667 L367.9748 25.5454 L368.6389 24.7232 L368.9538 23.8883 L369.4655 22.5314 L368.3314 22.0313 L367.1244 22.0533 L365.9704 21.3297 L365.7024 20.2022 L366.1054 18.8149 L367.179 17.4268 L368.8971 16.2824 L369.3234 16.2689 L370.8762 16.2217 L371.3392 16.279 L373.8456 16.5919 L375.6048 16.9444 L376.9269 15.5934 L378.7099 15.0132 L379.6678 13.1149 L380.4696 13.1461 L381.0953 13.8435 L381.2963 14.3335 L381.8836 14.7914 L381.9711 15.3379 L381.8517 16.5076 L381.9754 17.275 L382.1726 18.2145 L382.5519 18.5695 L383.4385 18.9347 L383.9005 19.2307 L384.0615 19.945 L383.8929 20.8979 L383.3142 23.3056 L383.2753 23.6353 L383.3942 23.8014 L383.6622 24.0359 L384.1793 24.105 L385.0518 23.8639 L385.6823 23.3545 L386.8478 22.9354 L388.0629 22.8696 L389.1807 23.0568 L389.7972 23.2718 L389.8496 24.4685 L389.6724 25.6542 L389.5098 26.0531 L389.178 26.4671 L389.4093 26.9065 L389.3871 27.598 L389.3401 28.1605 L389.0867 28.8014 L389.3077 29.6034 L389.446 29.9879 L389.7464 30.0925 L390.2127 29.9938 L390.4909 29.8184 L390.8383 29.7391 L391.2355 29.8285 L391.3133 30.1692 L391.0772 30.4146 L390.8454 30.7368 L390.9923 31.1736 L391.3997 31.7993 L392.1972 32.3306 L393.2724 33.109 L394.6355 33.679 L395.7366 34.4759 L396.057 35.0384 L395.9538 35.4929 L395.433 35.7771 L394.3805 35.9011 L392.8223 36.0234 L390.3559 36.1153 L389.7362 36.2156 L389.4368 36.8784 L389.1353 37.8103 L389.4228 38.6468 L390.0295 39.8729 L390.5558 40.3578 L390.7876 40.583 L393.9888 41.0367 L395.0553 41.3251 L397.3602 41.9474 L397.5914 42.3859 L397.6795 42.6945 L397.9675 43.2469 L397.7762 44.0075 L395.7339 43.9308 L394.287 44.3203 L392.2118 44.2858 L390.9821 43.7908 L389.0289 43.0892 L386.5976 42.5571 L384.1117 42.2408 L382.7977 42.385 L381.8106 42.8227 L381.0629 43.036 L380.5247 43.1237 L378.6737 43.0529 L376.5395 42.1607 L370.5407 39.5306 L369.8291 38.5852 L368.6707 37.9056 L368.1791 35.9955 L367.6653 35.9255 L366.5166 35.7046 L365.9277 35.331 L366.2427 34.0518 L365.6899 33.2346 L365.5651 30.3674 M421.7549 295.0705 L421.9283 295.0141 L423.5395 294.7528 L423.339 293.2199 L423.292 292.6443 L422.5869 292.2853 L421.7549 295.0705" stroke-dasharray="" fill="none" fill-opacity="1.0" stroke="#ff0000" stroke-opacity="1.0" stroke-width="1.0px" stroke-linecap="butt" stroke-linejoin="miter" stroke-dashoffset="0.0px"/>
</g>
</svg>