<?xml version="1.0" standalone="no"?>
<!DOCTYPE svg PUBLIC "-//W3C//DTD SVG 1.1//EN" "http://www.w3.org/Graphics/SVG/1.1/DTD/svg11.dtd">
<svg width="512px" height="512px" version="1.1" xmlns="http://www.w3.org/2000/svg" xmlns:inkscape="http://www.inkscape.org/namespaces/inkscape">
<g id="layer" inkscape:groupmode="layer" inkscape:label="layer">
<path d="M0.0 213.3463 L1.0018 216.7972 L3.729 217.7434 L3.3951 221.2497 L6.3449 220.9717 L9.5732 218.6896 L13.859 216.0735 L14.9165 218.5781 L17.4821 219.4669 L18.3674 219.4688 L21.7625 218.634 L25.8234 218.1225 L27.1592 221.2949 L25.8042 223.0102 L29.5527 231.425 L28.7177 232.2041 L26.9923 229.8663 L24.9193 230.5736 L23.8234 229.3849 L22.2719 230.0267 L22.1547 229.2874 L20.4803 230.1346 L20.4237 230.461 L21.7603 231.4805 L21.5226 231.9568 L23.2649 233.8597 L23.8598 233.7552 L24.5197 234.9178 L25.3562 236.8288 L25.7837 238.3296 L26.2275 239.2452 L27.6078 240.6359 L26.7917 242.4373 L27.5616 243.8386 L27.4691 244.4699 L26.6478 245.2317 L26.0872 246.6136 L25.4987 247.0654 L26.1306 247.4723 L26.8782 247.643 L27.3724 247.5806 L30.3732 246.4372 L30.4417 245.9729 L30.0143 244.8552 L29.7333 244.3322 L29.9262 244.0375 L31.3218 243.6861 L31.6082 244.2424 L32.4318 244.7203 L32.8892 243.4997 L31.9807 243.2073 L31.7019 242.7181 L32.104 241.806 L32.2733 240.0968 L34.9833 240.6974 L36.3606 240.2471 L38.0321 237.8332 L38.7096 235.8162 L41.0039 235.2467 L43.6986 238.0798 L43.8678 238.788 L40.9731 237.8178 L40.65 239.7037 L42.3898 241.4671 L42.6514 245.3014 L43.2975 247.2348 L47.1716 250.5372 L48.717 251.5748 L49.1826 251.3206 L51.5114 253.0143 L51.469 254.3477 L50.8127 255.0041 L50.22 254.9193 L44.3934 249.7509 L43.2339 249.7754 L43.8161 251.2362 L45.3583 253.4507 L45.914 253.2452 L46.4102 254.8572 L47.2929 258.0609 L50.0349 265.9889 L53.2076 268.2154 L53.3317 270.0246 L52.9084 271.5082 L52.2987 272.1776 L51.7324 272.6987 L50.0307 275.9086 L52.5102 273.4441 L54.0529 272.6181 L54.973 273.3249 L56.4398 274.8878 L61.1669 277.8444 L76.8626 266.5455 L82.3172 266.6013 L83.779 266.3434 L84.8416 265.6372 L85.5524 264.563 L86.7141 260.5498 L88.2779 256.1649 L88.6548 255.2933 L89.3766 253.889 L89.6627 252.954 L90.414 251.9026 L93.1668 247.9053 L98.1724 242.5565 L101.5445 238.906 L103.4304 236.4017 L104.3025 234.1757 L104.5937 233.4452 L103.3043 232.5298 L102.18 231.6016 L101.1426 232.3108 L99.2011 231.8602 L98.7601 231.3314 L99.6788 228.4878 L100.8328 226.2306 L101.4204 225.87 L102.8934 225.5606 L104.2449 225.8989 L107.5345 226.5685 L108.3095 226.8105 L108.8812 226.9696 L108.889 226.8033 L108.3644 226.4207 L107.6438 225.7755 L108.3199 225.5675 L108.7631 225.8976 L108.915 225.6117 L108.5339 225.2829 L108.4396 224.9678 L108.0803 224.8598 L107.4905 225.0648 L106.4949 225.1181 L105.3914 224.3829 L105.4344 223.6614 L105.1856 223.0821 L104.1686 223.2158 L103.0837 223.7537 L102.6896 223.5465 L104.1408 221.7026 L105.389 220.4448 L106.0843 220.0355 L106.6702 221.3401 L107.183 222.4278 L107.3043 222.6111 L107.4142 222.6701 L107.4226 222.5066 L107.3551 222.2728 L106.8197 221.1684 L106.2447 219.9229 L106.3477 219.824 L106.9352 219.8441 L107.4806 220.3104 L107.6366 220.7564 L107.9044 220.9795 L108.3009 220.9958 L108.695 221.5557 L107.8381 221.6564 L107.618 221.8921 L107.6776 222.2442 L108.5487 222.7629 L109.3607 222.9123 L110.3908 223.25 L110.3369 224.038 L110.222 224.241 L110.1534 224.4808 L110.3101 224.7889 L110.4959 224.6471 L110.4814 224.3584 L110.682 224.1309 L110.8679 223.7345 L110.9462 223.7417 L111.1884 223.9915 L111.8015 223.6526 L112.1304 223.3479 L112.3679 223.3652 L112.3463 222.9035 L113.0903 221.5937 L113.0667 221.1185 L112.453 221.052 L112.4934 220.2543 L112.717 219.3671 L112.4934 218.135 L112.8741 217.3357 L114.0253 216.8791 L114.3251 217.2152 L114.5891 217.0081 L114.6914 216.7037 L115.3479 216.5317 L115.0885 217.4142 L114.7484 218.2587 L114.8627 218.7533 L115.2218 218.1491 L115.657 216.5675 L115.9164 215.964 L116.3731 215.9853 L117.1628 215.1458 L117.5529 214.6317 L118.0549 215.3407 L118.6115 215.7926 L118.3213 216.1089 L117.6077 216.794 L117.151 217.2842 L117.1724 217.648 L117.4078 218.1262 L117.3651 218.4332 L117.0391 218.0597 L116.8131 217.9122 L116.5633 217.7518 L116.2518 217.9241 L116.1946 218.3277 L116.4826 218.4903 L116.5205 219.1967 L116.0805 219.1349 L115.9768 219.8071 L115.481 222.3186 L115.5769 223.213 L116.4142 223.9652 L117.3887 224.2266 L120.6461 224.3116 L119.6584 225.2273 L117.4606 225.0965 L115.9826 225.2207 L115.2238 225.2145 L114.3918 225.2907 L113.1273 224.89 L112.9276 225.2082 L113.2004 225.6419 L114.2613 226.3037 L114.7979 226.8783 L114.7869 228.0588 L114.5639 229.6583 L114.9394 229.8936 L115.4756 229.4951 L115.8443 229.0922 L115.9628 228.3121 L115.4196 227.9204 L115.3419 226.9599 L115.7901 227.1168 L116.3605 227.67 L117.0529 228.608 L116.9058 229.62 L117.197 231.1375 L116.3077 232.6635 L115.3367 233.2776 L114.7933 234.0712 L113.5637 235.5931 L112.1103 235.8463 L111.0229 237.1197 L109.8289 237.2332 L109.2513 236.6317 L110.4728 234.1415 L111.0049 233.3319 L110.8872 232.0158 L110.8936 231.745 L110.6366 231.6515 L110.145 231.7883 L110.0167 231.9716 L108.6095 234.2679 L107.6626 236.1956 L107.6338 237.2988 L106.7907 238.9983 L104.6746 242.7454 L102.1538 246.0789 L100.163 248.7117 L93.5169 252.8367 L91.2253 256.0451 L88.9113 260.5702 L87.7878 262.7676 L85.8016 267.9619 L81.9057 269.1842 L80.2503 268.3032 L78.0862 268.4203 L75.4127 268.8786 L73.9507 270.7339 L72.2043 273.8441 L67.7546 279.2294 L69.2184 282.1593 L70.7344 283.9044 L71.3058 285.5794 L72.3006 286.7344 L71.765 287.4411 L69.3276 291.2012 L67.6439 290.2297 L66.6653 290.4894 L65.2054 292.8219 L65.4628 294.2208 L66.9594 297.5112 L68.7062 298.242 L69.5798 299.2046 L70.483 300.1151 L70.4904 301.7348 L73.1017 303.4831 L74.2646 304.4908 L76.2085 305.816 L76.062 307.589 L75.6657 310.5331 L75.1573 312.2825 L77.2183 313.3121 L76.8899 316.3947 L77.8761 318.3793 L85.1561 315.7091 L85.6937 318.3122 L88.7491 317.2089 L90.1919 314.1956 L92.2947 311.7904 L94.1244 309.3297 L95.4681 309.2447 L96.2097 309.8807 L96.8968 310.0087 L98.085 309.8105 L99.0187 312.2718 L99.7967 309.754 L99.7967 308.5092 L100.4332 308.0848 L100.8886 307.3026 L100.9186 306.1616 L102.4853 305.3082 L103.3253 306.8309 L104.1536 308.4527 L105.653 309.7681 L105.896 310.0984 L105.8075 310.4663 L106.72 310.491 L108.0305 310.6839 L108.0805 310.4913 L107.6986 309.3456 L106.9674 308.5901 L106.9873 308.0588 L109.0133 306.6543 L111.8137 304.7487 L113.2222 307.4168 L116.6105 304.0966 L121.2306 307.9653 L114.9664 312.6378 L113.7402 313.7581 L115.73 315.1788 L116.3609 317.3136 L115.5301 317.7376 L114.228 319.0306 L113.7675 319.5588 L114.0261 319.7789 L114.5431 320.0047 L117.9208 319.4725 L117.927 319.8893 L113.5363 328.1026 L105.3932 329.8756 L103.859 334.6515 L102.4002 338.0027 L99.6408 338.775 L97.1312 339.0403 L96.6468 338.7575 L96.5215 338.1441 L97.7937 332.5834 L98.2063 330.8205 L96.9591 331.3686 L95.1824 332.0707 L92.4723 333.0695 L91.9323 336.6691 L91.2601 338.5003 L90.595 338.6973 L89.7577 336.2097 L88.6494 335.2247 L88.2061 335.2492 L88.2061 332.7619 L85.1052 333.0814 L83.2235 333.2752 L81.7041 333.5991 L81.2854 334.6829 L81.6302 336.5791 L81.9237 337.7879 L81.6138 338.9475 L83.8913 340.2225 L84.3088 338.6872 L85.7097 339.1316 L85.2653 341.3137 L84.3358 341.0848 L85.1809 343.3634 L85.6569 344.1085 L88.5708 348.5914 L95.0774 350.5191 L95.5207 349.2385 L97.3186 349.854 L97.5403 351.1349 L100.8886 350.6921 L105.3764 348.6867 L110.7238 346.8725 L114.1612 344.9629 L122.3733 342.2892 L124.9514 341.5253 L128.0488 341.8467 L128.8449 340.4169 L132.2084 346.5862 L132.6859 352.5063 L136.7918 354.0342 L139.3699 352.9838 L141.1841 350.3099 L143.7622 353.652 L147.1044 354.798 L151.1148 359.7634 L153.907 363.1253 L155.799 363.3874 L156.8612 364.8609 L159.6516 366.6395 L161.6446 368.2531 L160.2823 368.8601 L159.0243 369.4924 L159.0457 369.7203 L159.8113 369.942 L160.4142 370.1417 L161.6448 370.6872 L163.098 371.0863 L164.5633 371.1838 L166.1292 371.533 L168.2032 370.6518 L169.4366 371.6456 L170.8321 371.3741 L172.4154 371.0477 L172.9947 370.9201 L173.125 369.8285 L173.9764 369.8903 L175.668 370.285 L177.5967 370.6051 L179.8619 371.528 L181.3457 371.7315 L181.649 371.0791 L180.2817 370.522 L178.2783 370.0357 L176.5821 369.9875 L175.8986 369.9548 L174.8908 369.8072 L174.0055 369.562 L173.1017 369.268 L171.7867 368.5842 L173.3219 367.5976 L175.8986 367.8716 L178.0711 368.8381 L179.2306 369.0353 L180.6956 369.8113 L181.7811 369.6909 L182.152 369.9248 L182.505 370.0919 L180.5313 373.1074 L179.5719 373.0526 L179.2703 374.889 L177.4886 374.6699 L175.5147 374.889 L173.733 374.1489 L170.8758 373.4614 L168.2717 372.8447 L165.3249 373.1532 L165.3934 374.0783 L166.7297 373.9413 L167.8948 374.9006 L168.2373 375.9286 L171.7324 376.7509 L174.4736 376.8195 L174.8507 378.6014 L173.5485 379.3208 L171.8353 379.3208 L171.5611 380.0403 L174.2681 380.6572 L174.2338 382.5074 L173.3772 383.1585 L176.975 385.0776 L176.3924 386.4481 L174.0967 388.5383 L171.1842 390.6285 L170.2713 391.4218 L170.3301 392.7888 L170.5657 393.1399 L172.8253 395.624 L173.1622 395.9187 L173.12 396.1854 L173.9904 397.4906 L173.3025 397.9818 L172.6428 398.8381 L172.2499 398.782 L171.127 397.1258 L170.3271 396.4663 L170.1446 396.7327 L171.2955 397.8555 L172.0535 398.9362 L171.6043 399.4556 L171.2393 399.9891 L171.899 400.4379 L171.3798 401.0416 L171.2254 400.9855 L171.2815 400.5364 L170.7202 400.0452 L170.1166 401.2943 L168.7551 400.6906 L168.0535 400.2276 L167.436 400.8871 L168.9236 401.5046 L169.878 401.8136 L169.892 402.1926 L170.2289 402.4452 L170.0183 402.852 L169.8079 402.7257 L169.5833 402.459 L169.3447 402.7398 L169.6674 403.0627 L171.4919 403.9748 L171.2254 404.7047 L170.2289 404.6627 L169.2323 404.6765 L168.4745 404.5925 L167.913 405.2661 L167.885 405.5607 L168.8674 405.9679 L170.4955 406.2487 L170.4114 406.5574 L170.5939 406.6696 L170.4114 407.9049 L171.1692 408.438 L171.4078 408.0591 L171.9552 408.0873 L172.1658 407.961 L173.0359 408.1713 L173.0219 408.9432 L173.443 409.1539 L173.5973 409.5748 L174.4394 410.5291 L174.3972 410.7539 L175.1692 411.3854 L176.3763 411.3434 L177.3868 411.3854 L179.1832 412.41 L179.45 412.761 L178.8605 413.5188 L179.2394 413.6169 L180.1095 414.3328 L180.8113 415.0906 L182.0323 415.2592 L182.0184 415.0066 L182.7622 415.0765 L183.3939 415.3573 L183.4498 415.582 L184.1377 415.582 L184.1656 415.2031 L183.6183 414.7399 L184.0114 414.1923 L185.0359 414.1782 L186.5797 414.1362 L187.6323 414.1504 L187.9131 413.4627 L187.8007 413.0556 L188.4604 412.3257 L189.9622 413.28 L190.9586 413.7993 L190.9307 414.0519 L191.3096 414.4873 L191.7868 414.5293 L191.7306 415.3012 L191.043 415.231 L190.4814 414.9784 L189.1763 414.8803 L188.7964 415.2611 L188.9938 415.5958 L189.7798 415.8484 L190.6077 415.9468 L191.5621 416.6206 L191.8569 417.0835 L191.8991 417.3926 L192.8393 417.6872 L193.7236 418.4873 L193.1763 422.1923 L192.699 422.3186 L192.5306 422.5715 L191.6884 422.6837 L190.8605 423.2309 L191.2816 423.4136 L191.8289 423.5258 L191.7446 423.7925 L191.6183 424.2977 L191.0709 424.073 L190.5657 424.4099 L189.8639 424.1714 L188.727 423.9047 L188.2078 423.1187 L187.6744 422.3468 L186.692 421.4765 L185.4009 421.5329 L184.5727 422.6696 L183.5763 423.5399 L182.257 424.1996 L181.5973 424.6625 L181.1482 424.9852 L180.9236 425.266 L181.0359 426.2206 L181.2324 425.6029 L181.5551 425.5186 L181.7236 425.7433 L181.0217 426.6697 L179.9692 427.3153 L179.4218 426.6274 L179.45 426.1222 L180.3481 425.4625 L180.1516 425.2099 L179.8429 425.4625 L179.45 425.1958 L178.692 425.3644 L178.3972 425.7994 L177.7518 426.1642 L178.0044 426.5434 L178.5517 426.4732 L178.2148 427.8064 L177.906 427.5679 L177.5271 426.9082 L176.8675 427.0765 L176.7691 427.975 L176.5165 429.2241 L175.8289 429.8975 L175.5763 430.4732 L174.9026 431.1329 L174.692 430.7537 L174.4254 430.9223 L173.9622 431.3855 L171.9412 431.4976 L171.6324 430.838 L171.8289 430.445 L171.6043 430.1783 L171.0149 429.2379 L170.9166 427.8907 L171.113 427.0066 L170.5517 426.3187 L170.3552 426.5995 L170.7341 428.424 L170.5517 429.5187 L170.6358 430.0802 L169.5693 430.3187 L168.8956 429.8556 L168.4745 429.8556 L167.1832 430.3187 L166.8744 429.8697 L166.8183 429.1959 L167.6184 429.0837 L167.4218 428.6064 L166.9306 428.5362 L165.8079 428.7888 L165.5553 428.7888 L164.8255 428.7609 L164.3902 429.0135 L162.8464 429.0414 L161.3167 428.3256 L160.8394 427.7785 L160.6288 427.5118 L160.4885 426.8941 L160.5587 426.3328 L161.3027 426.5854 L161.5411 425.9257 L161.429 425.5186 L161.5972 425.1958 L160.6008 424.9993 L159.8148 425.7712 L159.3376 425.5609 L158.7623 425.1958 L157.7517 424.775 L157.4429 426.0802 L156.9939 426.1504 L157.0359 426.5713 L158.313 426.6556 L159.1834 427.1749 L159.6885 428.4942 L160.685 429.3222 L160.685 430.4171 L162.3131 430.6556 L162.2429 431.9608 L162.692 432.2134 L162.3412 432.6205 L160.9517 433.224 L162.0043 434.3327 L171.127 435.3574 L171.7447 435.1469 L183.4218 426.9925 L183.6884 426.4732 L184.3061 426.6136 L184.671 427.0204 L185.8781 427.7644 L187.9972 429.0276 L189.1341 430.6274 L190.3973 432.2695 L192.2358 432.9573 L193.9341 433.0416 L197.1341 430.9643 L200.8394 428.9994 L201.9341 428.6625 L205.106 429.4908 L207.1833 429.5046 L208.9517 430.5854 L210.4675 433.1538 L211.5902 434.5013 L211.7307 434.3468 L211.4499 433.5048 L211.071 433.0695 L210.4815 431.1608 L210.2569 429.0135 L210.4393 427.3855 L210.3412 425.8414 L209.513 425.2801 L209.6393 424.7189 L210.3832 424.1996 L210.4815 423.9188 L210.4253 420.3116 L210.7762 416.6344 L210.6357 415.4557 L207.0288 406.1362 L206.6779 405.2943 L202.9447 400.2417 L199.1833 396.8029 L198.5236 395.7083 L197.5412 393.7853 L197.021 392.0259 L196.5032 388.4019 L196.5086 387.3581 L197.4001 386.4503 L200.3881 384.4491 L202.6883 382.297 L205.2606 383.2698 L207.4123 384.4312 L208.2005 383.5995 L209.0502 384.2024 L213.5211 386.3098 L215.079 386.7449 L217.1 386.8148 L218.8826 386.5763 L219.9072 385.987 L219.5546 385.5569 L217.5363 383.3503 L218.2103 382.8318 L219.2471 383.7651 L219.8172 382.8839 L218.0546 379.7215 L219.61 377.8033 L219.2988 377.233 L217.0179 378.9958 L215.8256 378.892 L215.6182 377.4405 L216.8624 375.6778 L218.2103 376.0408 L218.8324 375.0558 L215.2035 373.0858 L216.0848 371.9973 L215.048 370.2865 L213.5446 371.0123 L211.8596 368.2425 L208.9149 369.5282 L206.4681 371.4358 L206.3438 372.3067 L205.058 372.3067 L205.0166 371.5603 L201.8551 370.2994 L197.7204 371.0637 L195.6459 370.8289 L192.4854 369.7479 L190.1695 369.9429 L188.0128 371.5603 L186.9778 371.4976 L185.672 370.9728 L185.0449 371.6801 L185.5256 372.9689 L183.6517 372.5848 L184.9994 371.3722 L185.4222 370.3875 L183.6479 369.61 L183.9404 367.3681 L187.0749 367.2515 L188.4007 366.3272 L189.3021 365.6475 L189.4552 364.6117 L188.1285 362.4722 L186.5867 361.31 L185.676 361.1172 L184.3869 361.4473 L184.8029 362.9275 L186.2136 362.524 L187.4296 363.1789 L185.7862 363.773 L184.987 364.2022 L183.2835 364.5615 L182.5084 363.1447 L182.1572 362.259 L182.2765 361.2965 L181.7406 360.2522 L180.0102 359.2856 L179.3609 358.9385 L177.3846 360.0719 L174.1968 356.6121 L173.377 356.3108 L171.901 355.494 L169.6682 354.3938 L169.7637 353.873 L170.2617 353.6639 L170.7631 353.5868 L172.4879 353.3215 L175.1145 352.0874 L176.5817 353.4071 L176.2971 353.8338 L177.1928 354.3546 L177.7671 354.2963 L178.0185 354.8466 L178.5517 355.3081 L178.6848 355.2592 L178.7136 355.0134 L178.2983 354.7014 L178.5805 354.3553 L179.3019 354.3797 L179.6161 353.5297 L178.7156 353.2227 L178.0829 354.0151 L177.3261 353.5949 L176.2513 351.519 L176.2126 350.3767 L175.5705 350.118 L174.6258 349.9769 L173.7094 349.9675 L172.7645 349.2122 L170.8525 348.6274 L171.6584 348.2888 L172.697 347.873 L173.2527 347.5783 L173.3195 347.3989 L173.0505 347.372 L172.5267 347.5372 L171.4853 347.8699 L171.3816 347.5294 L172.0403 347.0481 L171.972 345.982 L171.609 345.8788 L171.2575 345.928 L171.1772 346.7492 L169.5357 346.6492 L169.1702 347.3845 L168.3606 347.4319 L167.5539 347.4165 L167.8648 346.917 L167.915 346.4451 L167.6348 346.4429 L167.4082 346.9211 L167.0303 346.9703 L166.7046 346.9951 L166.5259 346.5925 L167.2004 344.5108 L167.6574 344.8607 L168.0241 344.7315 L169.1616 345.3191 L170.5999 345.9274 L170.9901 345.089 L171.3287 344.5092 L169.5781 343.7416 L170.7002 341.5558 L171.468 341.3303 L171.8912 340.8835 L172.0539 340.6185 L171.7929 340.5414 L171.5393 340.6759 L170.7763 340.8932 L169.719 340.3347 L168.8087 340.6301 L166.669 344.6337 L166.4358 345.0426 L165.2941 345.3486 L164.7004 344.7444 L165.9911 341.5075 L167.7813 338.6226 L168.0847 338.2222 L169.208 338.4495 L169.4012 338.1965 L169.2737 337.6399 L168.4082 337.5374 L167.0409 336.9964 L165.1258 335.4452 L164.191 334.813 L163.8163 334.2047 L164.9038 331.8923 L165.5037 330.8195 L166.2711 331.2065 L167.2295 331.6627 L167.9408 332.2604 L168.6706 332.5461 L169.0067 332.6929 L169.2076 332.4687 L169.2933 330.6665 L166.6382 327.6187 L165.7213 326.5274 L166.2179 325.6167 L168.9833 326.6055 L170.9929 328.0847 L172.7837 329.3275 L177.3663 330.6869 L177.0519 331.653 L176.7905 332.2927 L176.8195 332.6198 L177.2394 332.0779 L177.487 331.2921 L177.9854 330.5696 L179.8233 331.33 L179.4362 331.8612 L179.9028 332.1466 L180.3725 331.8537 L180.5823 331.1968 L181.5365 330.6445 L181.426 327.3487 L181.2698 326.0357 L180.7362 325.0735 L180.0359 323.7912 L178.8275 322.2721 L176.9378 319.7482 L173.1636 317.5294 L173.6153 315.3209 L170.453 313.3632 L168.9204 313.17 L162.1532 310.5663 L161.935 311.3667 L165.7347 314.7686 L163.1022 314.8981 L159.7597 312.1341 L157.4645 313.9761 L156.0445 315.5445 L155.5223 315.6665 L152.1875 311.5517 L148.5404 310.3825 L148.5724 308.2169 L144.8064 307.4516 L144.4581 306.8914 L143.5074 306.7111 L142.3648 306.5166 L141.4912 304.2525 L141.0246 302.8815 L138.3438 300.3391 L139.1018 298.5353 L138.1941 296.3033 L139.2562 295.3679 L139.8056 293.9847 L140.251 292.9072 L140.0836 292.1331 L140.9057 291.3464 L143.2532 288.7382 L141.1114 286.448 L143.7818 283.2064 L142.4411 281.5912 L140.5456 279.9945 L140.6641 278.8498 L141.765 279.5102 L142.3208 278.8702 L141.6499 277.414 L139.0798 277.8739 L138.2304 278.2977 L137.2211 279.6344 L135.3198 278.73 L133.9427 275.48 L132.1451 272.1758 L132.235 268.5718 L134.6527 269.7846 L135.4704 269.369 L131.6055 267.2473 L131.757 266.5806 L133.8252 266.9182 L132.4027 266.0655 L131.3823 264.9605 L133.3332 263.3517 L135.3014 264.8664 L136.9748 262.1417 L136.8114 260.3145 L137.2402 258.3207 L132.995 256.7341 L132.2876 256.8627 L131.3655 256.0692 L129.8743 255.1343 L129.0596 254.466 L129.9792 253.2113 L128.7428 252.2569 L127.3161 252.6098 L127.9301 254.7289 L128.706 256.9531 L125.1193 258.8113 L121.7742 262.5486 L122.1065 262.9398 L124.9554 266.2939 L125.5218 266.9605 L123.0252 270.0522 L117.9964 272.6156 L117.163 274.0116 L116.725 274.5436 L116.5849 276.1373 L116.5545 278.3012 L115.8285 276.6564 L114.5889 274.7177 L113.5865 273.9564 L113.3459 273.4334 L115.0969 272.7605 L114.4244 271.506 L111.8583 270.4463 L111.3581 271.3058 L101.3816 276.1486 L96.2481 276.1065 L93.6432 275.7298 L90.5319 276.397 L89.2235 275.9108 L89.5716 274.639 L88.5221 274.3548 L87.8932 276.6467 L86.2119 276.2436 L87.0245 273.2436 L87.7171 273.0843 L87.9983 272.6272 L86.4925 272.3856 L85.4921 271.9395 L85.0832 271.4432 L84.4881 271.7155 L83.3184 270.4331 L82.9151 270.2988 L83.2409 269.6698 L84.3868 269.6096 L85.5592 270.2179 L87.2595 270.3076 L88.2387 271.138 L88.4789 270.7939 L87.7361 269.7156 L89.6084 270.7869 L89.0059 272.1485 L90.8204 272.7891 L92.2705 271.5035 L92.7091 271.7977 L93.4881 272.1532 L93.37 273.2549 L93.9028 273.2113 L95.6981 273.4786 L95.9415 272.9346 L97.9813 272.4948 L98.2329 273.8033 L102.2595 274.0706 L103.3355 273.4855 L105.3055 271.7165 L105.6788 270.834 L105.8528 268.8871 L107.4458 268.2675 L108.9842 267.8797 L110.3449 268.0626 L112.1057 268.3233 L112.3045 266.1106 L111.4466 264.628 L112.5051 260.5237 L114.3301 260.588 L114.3587 259.5753 L113.2456 259.0978 L112.9086 259.6619 L112.2334 259.5489 L112.1063 258.8546 L110.3746 258.3163 L110.5483 257.4331 L111.23 255.3492 L110.2951 254.9968 L111.676 252.2958 L112.4186 252.5722 L113.4214 251.625 L113.486 250.7 L115.4766 250.4634 L116.8053 249.343 L117.2468 249.6869 L116.8419 250.0819 L116.1375 251.5729 L116.3543 251.9102 L117.3737 250.1625 L118.6606 248.2251 L120.4938 248.9743 L122.5649 250.535 L123.1409 253.0623 L124.5751 252.837 L125.7308 251.742 L125.301 250.4506 L126.2996 250.3495 L127.3625 248.3794 L128.3825 245.2531 L131.5364 243.7209 L132.5126 245.3209 L130.9489 246.1897 L131.2116 249.8569 L132.3627 252.7714 L136.6315 254.8557 L139.7826 254.4939 L140.838 254.856 L141.5726 253.0889 L142.4041 251.5183 L140.8995 251.2924 L141.5252 250.3797 L142.7167 249.1061 L145.0972 248.44 L147.3935 248.2072 L147.337 249.9699 L147.777 250.2742 L148.3456 249.9934 L148.5962 248.6339 L148.8446 247.7268 L148.2844 245.5038 L147.6409 245.0868 L146.8272 245.7664 L145.6951 247.3079 L144.0202 246.5078 L144.7445 245.2813 L143.0204 243.0652 L145.0398 242.1091 L145.7481 243.7746 L146.5334 243.9763 L147.1963 242.0404 L147.6545 239.9017 L148.336 239.7322 L147.9367 238.3108 L147.5604 237.9945 L146.2009 236.6728 L145.0392 235.9762 L146.6348 235.0807 L146.1256 233.1286 L146.7481 231.714 L147.7664 231.1764 L148.2331 232.9397 L148.2678 235.8827 L148.0962 237.3547 L149.1671 237.3111 L150.8656 236.9549 L150.7133 238.2803 L151.2479 241.7784 L151.0524 243.7012 L150.9283 245.4768 L150.9537 247.6314 L151.4275 249.4155 L151.4433 250.9902 L152.2936 251.7498 L152.7193 255.421 L153.7113 261.5484 L150.8588 262.6615 L147.4497 263.9136 L145.5017 265.5836 L146.5706 269.1506 L149.5774 271.4194 L151.623 275.9211 L153.6094 278.3852 L153.2645 275.9032 L155.3996 275.9086 L159.1134 280.4478 L161.0876 282.8466 L161.935 283.0016 L162.6176 284.1277 L163.6182 285.1177 L164.8864 286.0763 L165.6624 286.6745 L166.5409 287.4941 L165.6934 288.3543 L166.7002 289.315 L168.4833 290.8812 L169.7917 292.3624 L170.4396 293.2341 L171.0949 293.2908 L171.7373 293.8062 L172.5193 295.1825 L172.456 296.6618 L172.0393 297.7975 L173.0869 298.0729 L173.9628 297.8085 L175.2839 298.4305 L176.3049 299.3837 L177.1103 300.8102 L178.6139 302.6846 L180.244 305.3189 L181.2468 308.5471 L183.0441 308.1623 L181.5787 304.5705 L180.2614 301.6721 L179.5357 300.903 L178.6476 299.9618 L177.389 298.4496 L175.9336 297.1122 L174.5635 295.7277 L173.1884 294.2052 L171.8475 292.8269 L171.6294 292.6764 L171.2969 292.4464 L171.3079 290.7216 L171.224 289.5895 L170.7735 288.9653 L170.5195 289.1708 L170.3682 289.4016 L169.7775 289.7285 L168.216 288.0672 L167.3672 286.8605 L166.3858 285.7971 L165.4356 284.9941 L164.1504 283.9633 L163.6522 282.6132 L162.7857 282.6829 L160.0563 278.6848 L158.164 274.628 L155.5898 258.2783 L154.2841 251.3382 L154.055 249.4007 L153.6204 247.9857 L153.353 246.5223 L153.3906 245.661 L154.123 245.0334 L155.6803 244.3055 L154.8966 242.9964 L153.5486 240.6378 L152.6474 238.3023 L152.6088 236.0252 L153.334 234.2309 L153.6088 231.0657 L154.5996 228.7872 L157.5712 224.6851 L159.7099 222.5329 L161.5778 220.1096 L162.4362 218.2675 L164.177 216.1535 L166.4282 214.2065 L168.3544 213.2719 L169.3021 212.5444 L170.2441 211.5357 L170.4865 211.0527 L172.8093 204.7067 L173.1494 201.2239 L172.7477 200.0987 L171.5047 199.9235 L166.2867 198.9669 L165.5039 197.8363 L158.5467 196.271 L157.2935 196.4025 L157.4967 198.4433 L154.8026 198.4917 L151.7761 196.6706 L151.0261 197.3134 L150.6362 197.5174 L148.6054 197.3269 L148.9803 194.0099 L142.1054 192.4731 L142.997 183.3116 L144.3566 182.8464 L143.8492 176.4207 L152.8046 174.3602 L154.0992 172.2667 L157.3172 171.6834 L163.1186 174.1414 L163.2697 175.3136 L166.7481 177.8032 L170.6664 180.3857 L173.0917 186.2613 L175.4308 186.1744 L182.6353 192.5149 L181.5138 195.5818 L183.5315 201.2869 L184.9228 206.0874 L182.0008 207.7571 L180.8877 205.8787 L179.218 200.4521 L178.2542 200.2989 L178.2755 200.878 L178.3615 201.4567 L177.9112 201.7355 L176.8391 201.4997 L174.0869 200.8488 L173.6456 201.6297 L176.9418 209.138 L178.4056 208.2325 L179.6345 207.9811 L182.7662 213.7405 L185.6369 217.6809 L186.6563 218.7655 L187.724 219.9015 L189.5843 221.8805 L192.4794 226.325 L192.7312 228.5317 L196.5418 230.9947 L198.1115 230.4789 L198.7778 228.7605 L197.3701 227.6 L196.0434 227.2592 L195.5678 225.0114 L198.6985 225.0114 L201.0238 227.5577 L203.9479 229.5431 L203.9353 231.698 L209.2944 236.8881 L212.1184 238.5662 L216.371 239.2085 L219.2825 238.5706 L223.5766 237.4579 L225.1272 238.7589 L227.0649 242.0065 L227.9889 242.3353 L226.848 239.6196 L225.7719 236.5825 L231.8155 236.6301 L231.7845 238.1859 L228.9244 238.8404 L228.7991 239.3036 L229.3067 240.4476 L230.189 241.9952 L230.4034 243.6246 L230.462 244.5022 L230.962 245.3011 L232.3878 246.6628 L233.381 248.7751 L232.5189 251.437 L232.9995 252.8216 L230.4903 253.9405 L230.0761 255.3454 L230.8137 257.0629 L231.4675 260.2156 L230.2709 267.0016 L221.1582 271.9841 L220.2469 270.0136 L219.8774 269.3981 L219.2371 269.6444 L218.8924 270.3339 L219.9543 272.7404 L221.2943 275.1074 L224.2651 274.4338 L232.9216 273.5592 L238.0085 270.5466 L238.5755 269.5098 L237.3726 267.0556 L235.7138 266.0382 L234.1298 262.6113 L231.4084 261.9631 L236.3249 257.0619 L237.3291 258.7439 L237.2206 262.2951 L239.4236 264.8375 L241.7476 266.7108 L244.2248 268.5558 L246.2506 267.8333 L248.4776 269.1569 L250.9618 270.1043 L251.4208 271.0225 L253.4528 272.1823 L257.6083 272.9754 L255.0935 275.6313 L262.221 275.9898 L261.5959 272.9177 L263.4842 272.2234 L265.7089 273.7387 L265.7786 270.4303 L266.533 269.95 L266.6016 267.9836 L267.4477 267.8923 L267.6305 270.6361 L268.3775 272.1845 L268.4595 272.4167 L268.5708 272.7329 L268.8576 272.9996 L269.2045 273.2192 L269.8412 273.3264 L270.2578 273.3854 L270.8997 273.5818 L270.7552 273.3792 L270.1425 273.2502 L269.7888 273.1724 L269.5866 273.0331 L269.4685 272.7903 L269.3534 272.6404 L269.1269 272.3803 L268.9433 272.1579 L268.7986 272.0587 L268.773 271.8539 L268.5372 271.5 L269.0096 268.7036 L267.7448 265.5143 L266.0986 264.4397 L265.7514 262.4256 L271.0374 265.6288 L273.6667 262.9536 L275.1074 262.702 L276.783 263.8744 L278.2661 267.182 L279.8474 267.6849 L283.0582 267.0368 L290.1961 265.7188 L292.7359 263.9594 L295.5757 263.1011 L298.0299 266.7243 L300.6013 268.0065 L301.5065 265.9845 L302.3485 265.8308 L303.4558 266.1483 L305.0773 268.4488 L305.9322 269.8998 L308.1335 270.919 L308.508 270.5906 L307.3321 269.3398 L306.3395 268.2251 L305.2252 266.6634 L305.3049 266.2201 L305.1626 265.8324 L305.7723 265.0779 L306.2196 264.6744 L306.3529 264.0451 L309.925 265.6256 L311.0803 266.0404 L311.7472 265.6369 L312.9614 266.0564 L314.1317 266.3798 L314.5549 266.5615 L314.491 267.3546 L314.4584 268.0893 L314.9618 269.0559 L315.465 270.845 L316.0082 271.516 L315.8005 272.4506 L315.8643 273.4253 L316.2158 274.1041 L317.4209 275.2667 L318.1896 274.2221 L318.972 274.6261 L319.6385 274.8297 L319.7556 274.1267 L319.0845 273.5806 L318.3645 273.1138 L317.6936 271.8677 L316.8629 270.7571 L316.4554 269.9346 L316.5034 269.1117 L315.7132 267.4822 L315.5575 266.7553 L315.27 266.0724 L313.5379 265.4644 L314.1579 264.9533 L313.1427 263.5892 L312.9448 263.5949 L312.8263 263.7247 L312.5381 264.5665 L312.7897 265.3574 L312.0188 265.2617 L311.7522 265.0672 L311.4764 264.0695 L311.7432 263.5152 L312.3913 262.7817 L313.0625 262.4049 L313.7526 262.68 L313.5098 263.0923 L313.5266 263.5158 L314.3627 263.7699 L314.6225 264.0639 L314.1311 264.6851 L314.2892 264.9618 L314.8709 264.606 L315.1307 264.1542 L315.6505 263.4932 L316.0402 263.8377 L315.5601 264.5721 L315.0913 265.2328 L314.6676 265.747 L315.289 265.9786 L315.6279 265.5437 L316.4242 264.6681 L317.5436 264.1373 L318.9065 265.2479 L318.6267 267.9804 L317.8357 267.3652 L317.029 267.6049 L317.0689 267.9563 L317.5561 267.9004 L318.0516 268.3638 L318.5564 268.92 L318.303 272.0948 L318.8383 273.0535 L319.9073 273.9667 L320.3999 274.826 L320.4638 275.5528 L319.697 275.9443 L318.6107 276.6633 L319.6571 278.1729 L320.4478 277.9734 L320.2162 277.2462 L321.7786 277.6832 L321.2786 277.2942 L320.1443 276.6473 L320.4558 276.152 L321.3745 276.4397 L321.8777 275.513 L321.3505 274.5703 L320.6315 273.5241 L321.031 273.4999 L322.4049 274.2268 L322.7724 273.8434 L321.8172 272.476 L322.2344 271.5684 L322.9213 272.1836 L323.1931 273.925 L323.1291 274.3325 L323.4804 274.6039 L323.7734 275.4019 L324.022 275.6451 L324.2818 275.5886 L324.2874 275.315 L324.1675 274.5719 L324.4796 273.6254 L324.9183 272.7028 L325.6543 272.5949 L325.3945 272.0299 L324.0616 272.4029 L323.3367 271.8642 L322.5859 271.0652 L323.0172 270.0268 L323.0991 268.4883 L324.1355 268.9806 L324.9343 268.4454 L326.8475 269.5926 L326.4121 271.0812 L326.3639 272.7806 L326.2756 273.12 L326.484 273.3898 L327.0728 273.0369 L327.6343 271.6324 L327.738 268.7889 L328.2486 264.5222 L330.3006 264.6455 L328.4479 273.046 L331.499 274.3595 L333.7291 275.9525 L334.9077 277.1822 L335.1237 277.4937 L334.9201 277.7371 L335.004 277.9928 L335.2237 278.0646 L335.4287 277.909 L336.075 279.6162 L336.6473 279.5986 L336.3028 279.2143 L336.3198 278.8699 L335.9447 277.4874 L336.4219 275.0967 L336.4613 274.2014 L336.1921 273.8425 L335.7824 273.9576 L335.31 274.4702 L334.4097 274.0699 L335.1593 273.5263 L335.371 272.8236 L335.0474 272.428 L335.0178 271.9122 L336.2161 272.6005 L336.3532 273.1119 L336.4677 273.5391 L336.5556 273.9504 L336.8831 273.8667 L336.8716 272.8825 L337.6076 272.1205 L337.7349 271.9919 L338.269 272.4807 L337.9055 273.3754 L337.4063 273.4271 L337.2505 273.627 L337.0628 274.2578 L337.586 274.7134 L336.8568 274.9427 L336.9411 275.7138 L337.3917 278.7247 L338.0482 279.4189 L338.063 280.1987 L337.9751 280.6658 L338.308 280.7973 L338.7938 279.7806 L339.9121 278.0295 L341.3468 276.6175 L342.6987 276.9811 L340.1945 282.1188 L340.4267 283.2186 L341.058 282.4043 L342.0412 281.1367 L343.9963 280.152 L346.1973 277.0097 L349.5714 274.5913 L349.8033 272.8681 L351.5409 273.3315 L350.8128 276.8014 L351.7727 276.2712 L353.0325 274.1132 L354.4517 273.4761 L355.8708 274.0411 L353.603 277.2785 L354.8051 280.0563 L356.2151 280.86 L356.389 281.3923 L356.0675 281.8346 L356.0387 282.5122 L356.188 282.9774 L356.0794 283.3934 L355.9553 283.6948 L356.2153 283.7008 L356.5555 283.2933 L356.659 282.7995 L357.2435 281.5583 L357.427 280.8104 L357.4092 280.7336 L357.0429 281.1925 L356.8025 280.7549 L357.1184 280.3069 L357.5305 279.8706 L357.5187 279.4775 L357.8738 279.0359 L358.2189 279.5365 L358.7599 279.2884 L358.3756 278.6117 L358.4396 278.0308 L359.2325 275.6212 L360.9775 276.4444 L360.9314 277.1709 L360.7869 277.6148 L358.9522 277.0395 L358.8616 277.2296 L360.6652 277.9693 L360.4448 278.8138 L360.3053 279.2542 L360.3834 279.3521 L360.5033 279.3618 L360.7663 278.4565 L360.8544 278.4935 L360.8307 278.6707 L360.8307 279.374 L360.7561 280.152 L360.9552 280.7932 L361.3536 281.3036 L361.1232 282.2747 L360.8307 282.7105 L360.3265 282.057 L360.3203 281.4469 L360.3888 281.1044 L360.0839 280.5068 L359.8411 280.9428 L359.455 281.254 L359.4987 281.3785 L360.0339 281.3785 L360.0091 281.8638 L360.0962 282.2001 L360.5817 282.8039 L360.4448 283.196 L360.0091 283.4762 L360.3576 283.6754 L360.8371 283.5072 L361.391 283.0031 L361.7583 283.3516 L362.2873 283.9056 L362.6172 284.3975 L363.4016 283.9803 L363.1402 283.4577 L362.4492 282.7293 L362.2499 282.1066 L361.8702 281.4159 L361.6338 280.9303 L361.6088 280.7436 L362.138 280.843 L362.5239 280.513 L361.5389 279.4421 L361.2285 279.5039 L361.1096 279.2419 L361.0657 278.9317 L361.0899 278.6036 L361.0986 278.4825 L361.4092 278.4474 L361.5411 278.2052 L361.4398 277.9831 L361.4877 277.5521 L362.0685 276.9049 L362.5947 276.5357 L362.857 276.4008 L363.446 276.994 L363.7449 278.0361 L363.2783 278.6522 L363.3872 279.0111 L363.5365 279.2862 L364.0485 278.9148 L364.2679 279.3219 L364.5467 280.0042 L364.7837 279.8762 L364.5701 279.3524 L364.3249 279.0653 L364.2433 278.5706 L364.3974 278.4392 L364.207 277.633 L363.8401 276.4325 L363.386 276.0858 L363.6654 275.9189 L364.1614 275.5619 L364.6392 275.0114 L364.7783 273.8817 L365.0611 272.678 L365.8696 272.8797 L365.9738 274.8752 L366.9722 275.9032 L366.5847 276.6633 L366.3499 276.8004 L366.3001 277.2989 L366.0689 278.0552 L365.9014 278.821 L365.3712 280.0077 L365.1494 280.4563 L364.7597 280.5739 L364.7779 280.8004 L364.8413 281.2537 L364.9002 281.5887 L364.9953 281.5934 L365.2535 281.3848 L365.471 281.0633 L365.7799 280.6661 L366.0735 280.1256 L366.3273 279.4142 L366.5129 278.522 L366.8437 277.5116 L367.1698 277.19 L367.7693 277.3265 L368.416 277.5373 L369.3315 277.5138 L369.8469 276.2188 L371.2542 273.9865 L372.1195 275.0826 L372.4668 276.5818 L373.5168 279.6987 L373.5587 280.6053 L374.6391 281.8274 L375.3751 281.8952 L375.6017 283.6983 L374.8769 283.3174 L374.0977 283.6528 L373.9618 284.7852 L374.5507 286.9778 L374.9584 286.7423 L374.5144 284.4771 L374.8315 284.1964 L375.2212 284.9665 L375.511 286.9236 L375.5026 288.5914 L375.502 288.7084 L374.8095 290.3401 L374.2434 291.2231 L373.8787 291.7507 L375.4236 291.7702 L376.1491 291.2865 L376.4314 291.0983 L376.988 289.9753 L377.2088 288.8188 L377.0889 288.7517 L376.6618 289.8793 L376.263 288.2012 L376.6708 286.5431 L377.1509 284.7491 L377.0603 283.245 L377.2438 281.5078 L377.6439 280.7706 L377.9838 279.8044 L379.0659 277.3136 L382.1589 277.4206 L383.0641 278.4508 L384.9253 280.3703 L386.9644 282.8783 L387.8501 283.1179 L388.2268 284.6836 L388.6205 284.9298 L390.3937 286.1814 L391.6155 288.342 L392.7508 289.0723 L393.1267 288.7347 L394.7364 286.6488 L395.6018 286.8044 L395.7906 287.38 L397.3118 288.8197 L398.0398 288.6102 L399.1353 286.4624 L400.1681 284.8987 L400.8955 284.1384 L401.6042 285.1942 L401.845 286.4173 L402.4287 286.7689 L403.354 287.4433 L404.6322 285.6525 L406.7271 283.2983 L407.643 282.5533 L408.0187 282.9495 L408.4151 283.1819 L408.7839 282.351 L409.119 282.6421 L409.6586 282.8745 L409.9733 282.9429 L410.3492 284.0088 L410.8582 285.2974 L412.8176 290.694 L417.5413 288.768 L424.437 287.4518 L431.3591 286.1174 L437.5475 284.9794 L438.1578 291.3978 L437.7496 297.9117 L434.3241 297.1065 L434.3145 295.8776 L433.0777 295.9165 L431.8411 295.6195 L431.3738 298.4255 L428.2557 298.0086 L427.7124 297.9663 L426.4142 296.993 L423.6372 296.8798 L423.6602 296.1878 L423.6712 294.9608 L422.0021 296.2161 L419.7471 294.3589 L419.0635 295.0138 L418.6244 295.8127 L418.0473 296.0984 L417.4825 296.3061 L417.1188 296.2637 L416.612 294.9589 L415.7737 292.974 L415.7119 292.1117 L414.5129 291.8831 L412.925 292.0023 L411.8246 292.4464 L411.4761 292.9775 L410.1945 293.5518 L410.8482 295.2857 L409.1298 296.6947 L409.7655 297.594 L410.336 297.7461 L414.2811 299.4928 L417.4505 302.4446 L421.3295 306.2212 L423.6236 308.2401 L423.7899 308.9524 L429.1154 308.3094 L429.2212 307.2757 L428.8842 306.7908 L428.9398 305.9323 L429.3968 305.6896 L430.1107 305.4189 L430.9902 305.5823 L430.8327 306.4853 L430.3393 306.3802 L430.412 307.7621 L431.0055 307.9123 L435.6644 308.6613 L437.4662 308.7184 L438.3649 309.9494 L439.1191 310.4415 L439.2945 314.582 L440.0363 316.268 L441.3379 316.5355 L450.755 320.8167 L453.1613 321.2918 L456.5006 322.6999 L456.5052 321.8083 L457.1785 321.7437 L457.5392 322.4402 L458.4842 324.0261 L459.9159 323.1107 L461.6475 321.9654 L466.0398 322.4923 L469.5482 323.8834 L475.653 326.1805 L486.0936 322.2339 L484.452 321.7437 L484.605 320.9468 L488.0365 321.1576 L490.9256 320.0765 L491.5575 321.1246 L492.0291 322.8783 L490.8071 323.5199 L491.9428 323.8348 L494.2378 324.4579 L494.3279 322.9423 L493.673 320.2929 L493.663 319.025 L496.1684 317.8188 L496.4392 316.7949 L497.7595 315.9792 L498.689 315.7361 L501.149 315.4723 L501.8759 314.1586 L503.8099 314.7055 L506.0108 314.772 L507.4848 313.4115 L503.523 310.0629 L502.7228 307.9428 L500.3093 307.2546 L499.506 306.4062 L497.92 304.0696 L496.667 304.6749 L495.68 303.1008 L495.0731 302.5274 L493.5191 302.5873 L493.3924 303.5678 L491.9252 303.1008 L491.4883 303.0681 L489.8403 302.3452 L487.2633 300.58 L485.9372 301.2763 L483.5387 302.5898 L483.2443 301.2644 L482.7951 297.5679 L482.5557 295.8456 L484.7931 296.2399 L487.8327 296.3738 L490.6534 296.3174 L495.5761 295.2145 L495.3425 293.8009 L496.8457 293.3413 L497.7855 292.9552 L497.9048 293.4323 L499.1067 292.8313 L498.5519 291.3891 L497.8215 291.5186 L496.6892 291.7752 L495.9262 289.5955 L497.4892 289.103 L498.2376 290.7329 L498.8477 291.0562 L499.45 292.7049 L499.8777 292.4574 L500.5785 292.167 L500.47 291.2338 L501.9746 290.8273 L501.8053 289.7874 L501.719 289.3875 L500.5112 289.4261 L498.7134 289.2438 L498.8385 288.8467 L499.236 287.4505 L500.0867 287.7096 L500.3445 287.6271 L501.3373 286.965 L501.014 285.2955 L503.8153 284.2833 L505.3349 283.7356 L505.4248 284.2278 L505.5717 284.8385 L506.6459 285.0038 L508.8915 284.5869 L508.1854 282.7522 L509.9778 282.4281 L511.6982 281.5228 L510.8867 279.0032 L510.5296 277.8943 L510.3607 277.7089 L509.1327 276.3616 L510.3393 275.965 L512.0 275.2147 L510.7324 273.4642 L508.9818 274.4 L507.6539 275.4863 L504.9073 279.1987 L503.0455 278.0038 L502.2815 277.3576 L500.9064 276.3142 L499.1998 276.9319 L496.2921 274.0778 L495.3059 271.0285 L494.92 270.6593 L494.5343 271.6362 L490.7633 268.9125 L490.2825 268.0535 L486.2753 269.8706 L484.9925 270.1147 L484.5101 267.412 L482.4925 266.5295 L475.2423 268.7359 L471.2075 267.5381 L467.1094 268.2314 L469.0009 265.8989 L473.7922 265.3944 L473.7922 261.5487 L475.4114 258.2494 L473.6244 256.3626 L472.1785 255.4342 L470.2019 255.6667 L467.7109 257.0196 L467.3082 257.0582 L466.8975 256.8426 L469.1623 254.9012 L468.0772 253.007 L467.4459 251.7247 L467.288 250.5409 L467.5642 250.3238 L468.827 250.2648 L469.4583 250.5607 L471.6484 251.2315 L473.562 250.4816 L475.8308 249.6135 L478.2773 246.9305 L476.9715 246.1693 L475.9423 245.869 L475.6959 245.4297 L475.1793 243.5807 L473.9159 242.8088 L473.1901 242.0915 L472.4981 241.87 L471.1354 238.4664 L470.0304 239.019 L469.8726 241.0115 L468.61 242.2349 L468.3534 243.3792 L466.8935 244.8587 L466.124 245.9242 L465.5704 247.0425 L465.5234 247.5784 L465.6511 248.2618 L466.0648 249.081 L465.6505 249.3966 L464.9205 249.653 L464.3682 249.7321 L463.6775 249.5149 L463.5592 249.0612 L463.4013 248.2326 L464.0524 247.9367 L465.042 247.4372 L465.1174 247.2744 L465.2309 247.0685 L465.2357 246.9553 L464.9889 246.7294 L462.7466 244.1244 L462.057 242.853 L461.31 241.7586 L461.2816 241.2164 L462.5864 240.8207 L463.8558 240.548 L464.796 240.378 L466.0428 239.8307 L466.2385 238.3607 L469.8858 236.1726 L469.4571 234.3787 L468.6753 233.4395 L468.3778 232.7677 L468.3408 232.7087 L465.3654 227.9587 L470.0822 228.0017 L476.1286 227.7014 L472.1835 226.1578 L470.0394 226.7581 L466.3516 225.0001 L466.6441 223.383 L464.8686 223.0476 L464.2932 225.3431 L463.5644 227.7014 L461.2488 227.573 L456.8961 226.8736 L457.0852 223.8475 L456.4071 221.9815 L458.6381 219.3009 L452.3777 215.3689 L462.4755 219.6091 L462.7373 219.8708 L462.6499 221.1217 L471.8122 224.2049 L477.1058 227.4915 L481.9122 228.8609 L480.5381 227.2881 L481.1198 226.6191 L479.4909 225.6299 L479.5491 225.1065 L479.8354 224.4666 L476.5734 219.9411 L477.1738 219.5281 L481.2779 220.0974 L479.7673 217.8997 L476.9857 214.6054 L474.2043 211.4294 L470.1202 209.8156 L467.866 210.9859 L455.1875 206.5644 L452.8258 208.1713 L451.4718 207.1645 L452.9499 205.245 L453.7572 204.9669 L454.3961 203.9554 L454.0008 203.6826 L453.2098 204.4425 L452.2878 204.2309 L442.4073 201.6196 L442.0338 200.6793 L437.1882 198.9964 L434.5403 199.7001 L432.5327 198.5541 L429.9818 200.1495 L428.8511 198.6389 L430.2931 195.5755 L430.8081 192.1257 L432.6606 191.707 L433.6502 190.2788 L433.9736 188.2153 L433.218 188.5063 L432.9652 187.9849 L435.8619 186.7664 L435.8317 186.4531 L433.5541 186.8649 L430.8479 187.6346 L428.9889 186.8508 L425.661 186.8791 L424.3562 186.3925 L423.6266 184.6507 L424.2541 184.0989 L426.11 183.957 L433.6402 182.2133 L425.8708 183.258 L422.8079 183.618 L422.2983 183.0828 L421.9809 180.7386 L421.1254 180.2187 L418.4032 181.2101 L416.8218 180.2388 L418.1554 179.2861 L417.7127 175.6184 L414.3334 176.0789 L413.7135 176.4182 L413.2021 176.0042 L411.1949 175.931 L409.9647 176.2365 L407.047 177.2162 L402.9479 178.1761 L403.1607 182.7877 L400.789 186.3549 L399.2722 191.7572 L397.6647 193.976 L395.9669 195.5237 L393.0788 197.3482 L391.5334 196.7111 L394.9793 194.4465 L397.0986 192.8181 L396.6759 191.1539 L395.7251 189.313 L396.5898 188.634 L396.7588 186.0494 L399.7552 182.2946 L401.2618 180.8123 L400.6975 178.4555 L392.9135 178.852 L389.0348 177.9398 L386.8521 178.6436 L385.4391 181.7424 L384.1653 183.1374 L382.3129 182.6154 L377.8861 179.5614 L375.5369 178.8586 L374.5078 179.5103 L373.9936 179.1311 L373.0479 179.1439 L372.3129 177.3788 L373.0805 176.125 L372.5721 173.0675 L370.188 171.5164 L369.2947 169.921 L370.3667 169.1965 L369.8657 166.0085 L369.8541 164.1556 L370.503 163.6087 L369.7759 163.4646 L368.8581 163.6527 L367.996 164.5301 L366.928 163.6156 L365.0045 163.4706 L364.3834 161.5458 L364.5413 159.3011 L365.5163 157.5307 L359.144 147.6336 L357.9715 146.5092 L353.8446 149.9639 L353.3878 149.7284 L352.2537 150.6195 L350.8956 150.7661 L349.8644 149.9893 L348.6801 148.9137 L349.9975 147.3815 L347.5654 146.2562 L343.0882 142.6174 L342.6186 139.9341 L340.0694 140.261 L337.6597 140.6764 L335.8306 142.3719 L333.042 144.2555 L330.1457 145.5186 L327.9193 141.6224 L325.4704 140.8431 L324.7096 140.9294 L324.789 139.5598 L323.8272 139.6999 L323.3042 140.1256 L321.7378 139.8757 L320.2358 138.6552 L321.1627 137.6994 L322.472 138.7343 L327.8342 135.4917 L328.8156 133.191 L329.1839 132.0938 L325.8298 129.8016 L324.22 128.0914 L322.6873 126.7459 L324.2246 124.5791 L323.8214 124.012 L321.3563 123.28 L320.7524 122.9688 L321.2148 121.9061 L319.3601 121.095 L314.0497 119.1634 L312.0947 118.6641 L312.3127 117.4277 L311.7951 116.8998 L310.5421 116.1018 L309.8613 115.9922 L309.7584 113.9899 L311.0529 114.15 L311.3899 113.7289 L312.3935 114.0084 L315.4986 114.9788 L316.2462 112.6781 L317.0633 109.6864 L317.0933 109.4694 L315.5162 108.4958 L313.5174 108.081 L314.2844 105.87 L310.654 103.8166 L309.3851 105.8894 L307.0931 103.7789 L306.2595 103.2142 L304.9234 104.2284 L303.5827 104.2777 L302.9156 104.7104 L302.4858 104.2698 L300.1404 101.7004 L297.3393 100.5201 L295.958 99.0572 L294.1716 94.7128 L291.695 95.3802 L293.5067 100.5644 L293.0693 100.6954 L292.7643 100.2663 L291.8171 99.8888 L288.5625 93.7463 L287.8666 92.4626 L284.5932 92.6065 L282.5908 92.7079 L281.7857 90.7898 L282.0055 89.8905 L282.3656 88.9225 L281.6084 89.0412 L280.822 89.5698 L280.2013 90.2926 L279.4905 91.0932 L278.9911 91.6227 L278.2671 91.9755 L275.9507 91.4845 L275.9729 90.204 L275.082 89.6716 L273.6795 89.3726 L273.9685 86.1436 L270.3717 84.0008 L265.3204 93.3628 L260.6999 91.9434 L251.1718 89.8456 L246.7314 87.5772 L245.8301 86.7709 L246.5629 85.3913 L246.217 85.653 L245.5255 85.9448 L244.9218 85.4406 L245.234 84.8869 L244.5537 84.2037 L242.1049 81.7448 L241.4984 81.1357 L242.5297 79.8083 L242.1814 79.5001 L241.0641 80.5549 L239.8185 78.2213 L238.458 77.1656 L237.8113 78.0888 L235.981 76.6426 L224.2093 77.8136 L223.5147 77.9245 L187.9856 81.7451 L187.423 82.3523 L187.004 82.8049 L185.9105 83.7014 L185.4952 84.0416 L184.4708 83.0798 L183.9406 82.8734 L183.0911 82.5427 L182.5465 82.3306 L179.9314 81.5029 L178.0327 80.4978 L177.8307 81.1301 L176.3463 80.8489 L175.0069 79.6412 L172.2797 79.7423 L170.2543 79.868 L169.5657 80.8753 L167.4314 81.1829 L165.5431 81.1423 L165.3243 81.3142 L166.5443 81.9116 L167.2295 82.3335 L167.2157 83.2456 L167.3788 83.474 L167.7641 83.7281 L170.407 84.1487 L170.5243 83.9747 L172.3688 84.6274 L173.5941 85.0832 L173.8013 85.1246 L174.2418 85.2129 L174.9674 85.7497 L175.3417 85.816 L176.9042 86.9402 L178.2494 87.7625 L178.1534 88.7324 L177.2737 88.6146 L176.2084 88.0734 L175.5991 87.9723 L175.4248 88.2151 L175.431 88.3894 L175.2567 88.5826 L174.8854 89.1986 L172.5107 89.0808 L172.6476 88.321 L173.3327 87.3124 L173.3409 86.8142 L172.5917 86.3534 L172.3551 85.8926 L171.6888 85.6809 L171.4646 86.017 L170.7735 85.849 L170.5367 85.3134 L170.2565 85.3508 L170.0573 85.6435 L169.5615 85.549 L168.9428 84.3796 L168.3824 84.2175 L168.0709 84.0017 L167.6352 84.062 L167.8456 84.5146 L164.2801 84.8683 L161.0301 85.2459 L159.7483 86.3958 L155.8 85.5493 L152.4921 84.3752 L150.3214 84.3805 L150.2784 84.1531 L150.2401 84.0827 L150.1376 84.0538 L150.0574 84.1886 L149.9437 84.3485 L148.5824 84.3645 L148.4561 84.5759 L148.5344 84.9123 L148.5246 85.1843 L148.7892 85.4789 L149.1332 85.527 L149.572 85.2453 L150.0244 85.3335 L150.3188 86.5981 L149.7059 87.303 L149.2403 87.3146 L148.7511 87.1792 L148.9131 87.4138 L149.1747 87.6026 L149.6651 87.5527 L149.9289 87.6362 L150.147 87.6789 L150.343 87.8605 L150.596 87.7882 L151.602 90.177 L152.4423 90.7568 L152.4837 91.6309 L151.7589 92.098 L152.0688 92.565 L151.3082 92.7946 L150.5698 93.0173 L150.3396 93.0048 L150.0448 93.0283 L149.6701 93.1203 L148.9189 92.5119 L148.6006 91.8235 L148.6629 91.38 L148.3342 90.922 L147.8482 91.0461 L147.8068 91.4475 L147.8804 91.7663 L148.0073 91.9805 L147.7966 92.2142 L146.611 91.7437 L146.6939 90.6761 L146.6405 90.1672 L146.2934 90.1653 L146.3472 90.7624 L146.3905 91.7063 L144.8218 91.1375 L144.3654 90.4367 L144.3863 89.9012 L144.599 89.0261 L144.9997 87.9952 L145.1455 87.6953 L144.3865 87.831 L144.3422 87.9478 L144.1635 87.9896 L143.9873 88.6256 L143.7584 89.5899 L143.2818 89.8129 L143.254 90.073 L143.3915 91.7418 L143.505 92.4438 L142.9877 92.5437 L142.7103 92.1463 L142.6219 91.3906 L142.585 91.0787 L142.4577 90.4926 L142.3394 89.893 L142.1989 89.1197 L142.0904 88.7846 L141.8715 88.7924 L141.8056 88.9272 L141.7774 89.219 L141.8302 89.611 L141.863 90.1653 L142.0744 90.7615 L142.2195 91.3052 L142.3526 91.9623 L142.0428 92.1796 L141.4589 92.4677 L141.2504 92.5704 L140.9169 92.5179 L140.7241 92.8835 L140.3048 93.0472 L140.061 92.9846 L139.9956 93.1357 L140.1763 93.2356 L140.6026 93.3386 L140.7572 94.0771 L140.9235 94.9772 L141.1295 96.0137 L141.2007 96.3828 L140.6141 96.3715 L140.6381 96.7678 L140.7448 97.1384 L140.8298 97.7512 L140.8552 97.9997 L140.8146 98.2619 L140.5618 99.7409 L140.2141 100.4708 L140.1259 100.8 L140.1247 101.1822 L140.1159 102.3116 L140.0462 102.9448 L139.9085 104.0283 L140.3855 104.424 L140.0224 106.7358 L139.9513 108.134 L140.1869 109.2185 L140.4729 109.8956 L141.1309 110.4483 L141.9009 110.7837 L143.3046 112.2368 L144.4225 113.0942 L145.4253 113.3344 L146.3354 113.9387 L147.2794 113.9635 L151.0646 115.5227 L151.6701 116.2661 L152.0215 117.1093 L152.6274 117.645 L152.9347 117.7153 L153.3212 117.1796 L153.3828 116.6175 L153.6989 116.5735 L154.7041 117.0841 L157.1596 119.1295 L157.1859 119.7355 L157.827 119.9287 L158.641 120.5175 L159.5485 121.3076 L159.9262 121.7906 L160.3302 121.6766 L160.9713 121.9313 L162.2897 122.9713 L162.8352 122.9914 L163.4763 122.5348 L163.7399 122.6953 L163.3712 122.9415 L163.652 123.2461 L165.135 122.8937 L165.7741 122.2396 L165.618 121.8565 L165.5611 121.7648 L165.5015 121.6091 L165.351 121.2011 L165.1974 120.6723 L165.0493 120.5156 L165.0409 120.3831 L164.9054 120.097 L164.6248 119.478 L164.1922 118.5237 L164.7505 117.9757 L164.9855 117.6632 L164.8568 117.4057 L164.3173 116.6077 L164.5245 115.4276 L164.7981 114.8205 L166.1508 114.8755 L166.6894 114.2844 L166.8385 115.2599 L166.928 115.8446 L167.3111 116.7164 L167.4088 116.9387 L167.157 117.3658 L167.6184 118.5139 L167.7799 118.823 L168.0013 119.2463 L168.1618 118.9935 L168.7413 118.4075 L168.8419 118.2963 L169.1374 117.9691 L169.1078 117.7408 L169.5577 116.8596 L170.7709 117.4729 L170.2827 118.61 L170.1702 118.8644 L169.876 119.5292 L170.5489 120.6544 L170.8063 120.7084 L172.2222 120.7555 L174.5391 120.9157 L175.2374 121.2209 L177.1492 121.985 L177.45 121.989 L182.3819 121.2332 L182.5949 120.5357 L183.6926 119.886 L184.2899 119.7541 L184.8929 119.8254 L185.0543 121.3936 L184.3419 126.9597 L184.5409 128.5191 L184.7851 129.5095 L185.4818 130.3442 L187.2704 133.6658 L186.5691 133.7848 L185.3305 134.6272 L185.6896 135.2713 L187.9566 134.9865 L189.8041 139.1218 L191.1964 138.6448 L191.3349 138.9698 L191.5156 138.9579 L191.5396 138.4882 L192.3765 138.187 L192.5993 139.6383 L192.8237 139.7875 L194.0142 139.3096 L196.507 137.5754 L196.8521 137.0658 L198.1007 136.444 L199.7045 135.7633 L199.6717 136.3159 L199.4451 137.0136 L199.3645 137.4727 L199.8058 137.3835 L200.1129 137.2582 L200.247 137.1091 L200.3128 136.8557 L200.4273 136.9559 L201.3066 137.203 L200.7934 138.3811 L200.8941 139.0703 L201.5848 139.3045 L201.4033 140.4343 L201.1985 142.6818 L201.2616 145.3434 L199.3729 146.0311 L199.2274 146.1271 L199.1153 146.3642 L199.0088 147.1717 L198.9936 148.0204 L199.4161 148.3633 L199.827 148.5809 L199.8499 148.7162 L199.8124 148.794 L199.4141 148.67 L198.9339 148.8553 L198.3645 149.2923 L198.1393 150.5677 L197.971 151.4735 L199.2526 151.7877 L199.7504 152.0571 L200.7922 152.5708 L200.5989 153.7083 L199.4371 156.0865 L198.3953 155.9656 L197.7528 156.056 L197.572 156.4749 L198.7284 157.6453 L198.9473 157.3646 L198.7854 156.6318 L199.2756 156.5747 L199.4992 157.0029 L199.9131 157.6666 L199.4469 158.05 L199.6427 158.8113 L199.4193 159.5846 L198.8202 159.6919 L198.2448 159.7952 L197.3843 159.9497 L196.0825 159.5252 L193.9011 159.5105 L193.4876 159.1381 L191.8225 157.6387 L190.9303 155.6919 L192.3541 155.3041 L192.3549 154.5842 L191.6888 154.2991 L190.4051 152.773 L189.9346 152.173 L190.032 151.7943 L190.2228 151.5441 L190.3479 151.3799 L189.8641 150.9513 L189.0148 150.4192 L188.8279 150.7011 L188.2252 150.4546 L186.9776 150.7294 L186.7586 150.2179 L185.3997 149.621 L184.1253 149.2882 L183.9772 148.3538 L183.3231 148.1027 L182.6077 147.7388 L181.8497 147.5023 L181.0547 147.3523 L179.5088 147.4176 L177.2546 148.302 L176.5735 148.3554 L173.967 147.9127 L174.0195 148.6581 L174.1113 148.902 L174.168 148.9871 L174.6806 149.7557 L175.3475 151.0044 L175.9152 151.4838 L175.7374 152.1394 L175.3307 152.4241 L175.957 153.5252 L174.7236 154.0571 L173.3535 151.9893 L172.0873 149.9793 L171.8093 149.6593 L171.0951 148.4358 L169.8634 147.1425 L169.2393 146.102 L168.6836 146.2716 L168.2867 145.7651 L165.164 142.0865 L164.2913 140.6321 L163.0531 137.8215 L162.7223 136.693 L162.4973 136.0032 L161.2683 136.4167 L161.1208 135.655 L160.7503 135.3874 L158.7507 135.4973 L158.3162 134.6354 L157.2485 132.9272 L156.7557 131.7996 L156.311 131.3346 L155.8106 131.864 L154.8052 131.7095 L154.7503 131.1367 L155.4026 129.1104 L155.2483 128.9657 L154.2243 127.9649 L152.0872 127.0461 L151.3886 126.6561 L151.1134 126.0484 L150.7601 125.8641 L150.5964 126.0619 L150.5306 126.246 L150.578 126.4152 L150.7343 126.7314 L150.2946 126.8822 L149.2906 126.2959 L147.9505 126.0707 L144.4921 125.5143 L144.0008 125.3764 L144.096 124.8539 L143.779 124.8187 L143.4415 125.796 L141.6707 125.3256 L141.5 124.896 L140.3675 124.6969 L138.6767 123.9341 L137.6575 123.2188 L136.1503 121.8537 L136.5012 121.5642 L136.4623 120.9116 L136.2091 120.7806 L135.9099 121.2379 L135.5148 120.8993 L135.5854 120.4142 L134.9912 119.7198 L133.7322 118.9558 L133.1725 118.4414 L131.3955 117.1413 L130.2402 115.9482 L129.2506 115.1955 L128.4367 114.2304 L126.0955 111.8493 L125.4243 111.8214 L125.0993 111.665 L123.679 110.8874 L122.9574 110.5721 L123.008 109.9207 L123.1483 109.1174 L123.3265 108.3909 L122.9806 108.0584 L122.1575 108.2879 L120.9672 106.2264 L121.1884 105.707 L121.679 105.3895 L124.0813 105.2764 L124.979 105.0622 L126.4568 105.1435 L126.6465 105.6753 L126.9882 106.0063 L127.0172 106.2509 L127.042 106.7343 L127.1437 106.8351 L127.3591 106.8037 L127.6667 106.5581 L128.0076 105.8499 L128.445 105.0016 L128.809 104.2252 L129.1175 104.1027 L129.3054 103.5779 L129.0418 103.381 L128.0232 103.4916 L127.2702 103.734 L125.2452 103.8279 L122.1127 103.3747 L121.1291 103.1637 L120.1804 103.4623 L117.3998 104.5465 L116.4212 103.3747 L117.1942 102.0748 L116.5619 101.5478 L115.7889 100.8801 L114.8221 102.1024 L114.5769 100.7045 L115.1916 100.3882 L114.5319 97.939 L114.6295 96.1196 L114.5066 94.8199 L115.6408 92.7522 L115.4332 91.657 L117.2819 91.1133 L117.4132 90.2191 L101.1158 90.1028 L100.2109 92.0471 L98.4879 91.9211 L98.5577 92.7993 L99.3328 92.8182 L99.2077 94.6631 L99.641 95.3328 L98.9865 96.4742 L98.0167 94.8981 L98.0023 92.5836 L97.5097 93.2557 L96.8862 92.7629 L96.8546 91.6105 L96.7705 90.7376 L95.9623 89.9715 L96.7607 89.3666 L97.5315 89.9068 L97.8001 89.8349 L97.8684 89.6436 L97.6967 88.8223 L98.0337 88.8172 L97.9593 88.6504 L97.6816 88.4702 L97.3242 88.4139 L96.1432 88.5226 L94.7893 87.9148 L93.162 86.9128 L92.4641 87.3406 L91.6969 87.8109 L90.5488 88.5097 L90.4215 89.5682 L90.0896 90.7354 L89.6388 90.8099 L89.5123 91.096 L88.8434 91.1827 L88.2631 92.3832 L87.9433 93.2899 L87.2427 95.0118 L87.0149 96.6036 L69.2852 145.1751 L52.3175 194.0133 L32.136 195.0676 L8.8607 197.029 L3.2684 198.5582 L10.5194 205.5541 L13.1911 210.1737 L10.6307 211.5652 L9.5732 210.2295 L3.3393 211.2869 L0.0 213.3463 M87.7828 95.0209 L88.1356 94.0265 L88.5508 94.1628 L89.2261 93.9216 L89.5738 93.3892 L90.5628 93.8584 L90.9565 94.3927 L90.8836 94.5686 L89.8314 96.917 L88.845 96.7147 L89.2455 96.2455 L88.9573 95.8444 L88.2363 96.21 L87.9689 95.9817 L88.1422 95.3978 L87.7828 95.0209 M91.5139 91.8963 L92.0321 91.0979 L93.3256 91.0363 L94.2063 91.4949 L95.4192 91.5879 L95.0311 92.2575 L94.2517 92.5597 L93.377 93.0748 L93.2077 93.2582 L93.0894 93.5004 L92.9839 93.8691 L92.3328 94.3387 L92.2851 93.7089 L91.9751 93.0996 L92.2121 92.6866 L91.5139 91.8963 M94.1943 94.2215 L94.6108 93.649 L96.1728 95.1588 L96.355 96.161 L95.7823 96.9682 L95.7433 97.4616 L95.1444 97.4626 L94.4545 96.226 L94.1943 94.2215 M96.6154 98.9987 L97.4094 97.9833 L97.943 98.1137 L98.2423 98.4651 L97.9951 98.8166 L98.4376 99.0116 L98.9324 98.7384 L98.9324 98.1137 L99.5571 98.3087 L99.9476 98.4259 L100.0387 99.1938 L99.9867 99.7535 L100.2209 100.7689 L100.1168 101.5628 L99.596 102.5 L99.6482 103.9579 L99.2055 104.049 L98.9973 103.7887 L98.9843 103.164 L98.6068 102.0186 L98.1532 101.9667 L98.1382 101.4978 L98.7371 101.4068 L98.9713 101.9014 L99.2967 101.68 L99.3878 100.3785 L99.7004 100.6907 L99.9086 100.3785 L99.6352 98.9727 L99.0754 99.0766 L99.2967 100.001 L98.8412 100.6128 L98.3726 99.9488 L98.0211 100.7039 L97.9691 101.4328 L97.6326 101.9397 L96.9278 100.5867 L96.9667 99.9359 L97.4136 99.8279 L96.6154 98.9987 M102.1378 93.5842 L102.2169 93.3612 L102.5407 92.8361 L102.4616 92.1674 L102.2673 91.5847 L102.3392 91.0093 L102.4831 90.7361 L102.9793 90.9229 L103.4971 91.8294 L103.7345 92.5053 L103.4899 92.973 L103.0801 93.354 L102.6054 93.649 L102.2601 93.7425 L102.1378 93.5842 M103.7489 99.354 L103.7761 97.8043 L103.8169 96.4041 L103.8714 95.4116 L103.9122 94.6641 L104.3742 94.1747 L104.8908 93.4677 L105.625 92.9919 L106.2503 92.5704 L106.4813 92.5704 L106.2911 93.0462 L105.6658 93.7397 L105.0949 94.5824 L104.5647 95.0039 L104.2383 95.8604 L104.2927 96.744 L104.3878 97.8043 L105.1356 97.8586 L105.625 98.7286 L105.7745 99.7211 L105.122 100.0474 L104.7142 100.2104 L104.6326 100.6863 L104.3878 100.9991 L103.9801 100.7271 L103.7489 99.354 M104.0153 105.2453 L104.3229 104.457 L105.438 104.3801 L106.6108 104.8223 L108.0335 106.0528 L109.9752 107.5329 L111.4748 107.9751 L113.1858 107.9946 L114.8199 108.2251 L114.9546 108.8212 L113.455 108.8787 L112.5139 109.1698 L112.4112 109.8576 L113.4214 109.7207 L114.7729 109.5376 L115.4026 110.0576 L115.4018 110.5906 L113.8361 111.1537 L110.197 112.2434 L110.0371 111.8101 L109.2831 111.8107 L108.9658 112.6853 L108.1488 112.6278 L107.9949 112.0896 L107.4086 111.724 L108.3219 111.1763 L107.8219 110.5513 L107.2933 111.2146 L107.178 111.6665 L106.5627 110.9552 L105.9476 110.3208 L105.9572 110.0708 L105.0343 108.3021 L104.3806 106.6485 L104.0153 105.2453 M113.6874 225.5047 L113.8189 225.4078 L114.2006 225.5132 L115.1159 225.7504 L116.4792 225.9933 L117.2216 226.2208 L117.2851 227.236 L117.1115 227.8106 L116.0078 226.9847 L115.0617 226.4939 L114.1039 225.9767 L113.7488 225.7081 L113.6874 225.5047 M116.931 222.4278 L117.0583 221.1851 L117.3617 220.2649 L117.8511 219.8049 L117.9294 219.1882 L117.665 217.9844 L117.7532 217.6323 L118.6732 217.5246 L118.9668 217.6517 L119.0745 218.0434 L119.1918 218.7774 L119.5931 219.658 L119.6714 220.0299 L119.9652 220.1083 L119.8575 219.5799 L119.6812 219.0611 L119.4562 218.6108 L119.3681 217.5736 L119.7498 217.5344 L120.0042 217.8767 L120.2196 218.6892 L120.6209 219.5896 L121.5603 220.9108 L122.0497 221.5372 L121.4528 222.0462 L119.9358 222.5944 L118.732 222.8194 L117.4498 222.741 L116.931 222.4278 M118.1566 190.6024 L118.495 190.0512 L120.1145 186.939 L121.4117 184.8262 L122.2704 184.2113 L122.8961 184.593 L123.3143 186.2541 L123.9177 188.0885 L125.7916 189.5474 L127.1237 189.6488 L128.6713 189.0989 L129.1225 191.2681 L129.1517 192.0751 L125.6109 191.9938 L122.6655 192.2801 L120.1922 193.2381 L118.9308 193.0293 L118.2152 191.8127 L118.1566 190.6024 M124.6145 216.666 L128.1343 212.9797 L127.1667 209.6006 L127.5875 205.2397 L131.4904 203.5882 L133.5066 199.3972 L135.0506 198.7205 L140.0568 197.8981 L140.5322 197.9223 L137.7348 202.2034 L137.753 203.8584 L138.6759 205.9976 L140.309 207.2216 L140.6123 207.6246 L140.4573 208.4786 L140.1305 209.1527 L139.356 210.5669 L138.4365 210.2484 L137.2352 210.1263 L136.9011 210.0142 L134.5122 211.3007 L131.4582 213.0249 L128.242 215.3969 L125.8545 217.8626 L124.6145 216.666 M128.6469 195.6901 L128.8747 195.423 L130.5048 194.2673 L131.8449 193.3705 L132.0566 192.9386 L133.1505 193.5199 L134.3182 194.7089 L135.2684 195.8853 L135.3459 196.3169 L135.063 196.772 L135.1357 197.3592 L134.1711 197.7977 L131.8823 197.8495 L130.1913 197.6 L129.5648 197.1053 L129.0745 196.3884 L128.6469 195.6901 M132.2614 221.6404 L132.8523 221.0577 L134.0732 220.741 L134.4469 220.7831 L134.7588 221.7819 L134.6987 222.5998 L134.4567 223.3419 L133.8176 223.6193 L133.0726 223.2421 L132.503 222.5521 L132.298 222.0355 L132.2614 221.6404 M134.7314 228.6585 L134.7962 226.7254 L135.7844 226.0294 L136.4816 224.8718 L137.0498 224.2376 L138.0616 224.2012 L138.9455 224.423 L139.9619 225.1059 L141.3703 225.8276 L142.0298 225.9732 L143.259 225.5267 L144.4867 226.5089 L144.9763 226.3994 L145.2173 225.8433 L145.553 225.1963 L146.0756 224.7648 L146.8838 224.3443 L147.4171 224.2084 L147.1975 223.6768 L146.6373 223.3583 L146.525 223.1718 L146.5528 222.7689 L148.0724 223.0633 L149.4431 223.3206 L149.9483 223.8738 L150.1725 224.5325 L149.9591 225.0588 L147.9167 226.3702 L147.1547 226.3131 L146.4203 225.8424 L145.7275 225.9412 L145.547 226.352 L145.9831 227.0367 L145.258 228.3011 L145.1226 228.6444 L144.2039 228.9211 L142.2842 228.6516 L141.4553 228.1947 L141.2133 227.3358 L139.9858 227.2426 L139.2384 227.5872 L139.1219 228.4589 L138.9737 229.0388 L138.6343 229.2808 L137.3659 229.2208 L136.4129 229.4245 L136.0754 229.7223 L136.3989 230.5043 L136.1247 230.7999 L135.0802 229.6313 L134.7458 229.1355 L134.7314 228.6585 M135.0054 221.7722 L135.0844 220.752 L135.4057 219.9357 L135.9766 219.728 L137.0426 219.5924 L137.3643 219.7192 L137.486 220.6164 L137.536 221.2805 L137.2286 221.5497 L136.2214 221.8704 L135.3637 221.8792 L135.1385 221.846 L135.0054 221.7722 M135.0961 214.8097 L135.4017 214.3543 L137.0418 212.8557 L137.0314 213.1577 L137.1423 213.8945 L137.2756 215.2547 L137.4239 215.4135 L137.5732 215.3128 L137.5668 214.9851 L137.3168 213.1686 L137.3773 212.2086 L138.3202 211.5715 L138.8198 211.527 L138.6963 213.0817 L138.8016 213.2261 L138.9761 212.7911 L139.2436 211.575 L139.7041 210.7276 L140.4079 209.6069 L140.8096 209.4813 L140.8677 210.2201 L140.9181 211.6205 L141.2225 213.9218 L141.2808 216.285 L140.2868 216.3788 L139.1461 216.2031 L138.8629 215.2239 L138.6839 215.2359 L138.7438 216.4664 L137.8533 216.6469 L137.5596 215.668 L137.4157 215.7738 L137.6471 216.7812 L136.6119 217.0514 L135.5816 216.8665 L135.2612 216.317 L135.0961 214.8097 M137.588 219.3712 L138.9139 218.4702 L141.2746 218.1306 L142.6603 218.0657 L143.9397 217.3238 L144.1433 217.593 L144.3746 218.0038 L144.8734 216.9309 L145.8794 216.0565 L146.6889 215.743 L146.4101 218.1623 L146.5382 219.0332 L146.4251 220.2496 L146.358 221.0824 L146.4935 221.5268 L146.4737 221.8118 L146.2952 222.0352 L145.8154 222.1796 L144.1903 222.0214 L142.8566 222.2863 L141.273 222.4482 L140.0284 221.4531 L139.4956 220.7467 L138.326 220.8038 L137.8773 220.7749 L137.6953 220.0707 L137.588 219.3712 M141.0242 102.3226 L141.0688 100.9834 L142.2011 99.017 L143.5174 98.8687 L143.4185 99.8917 L143.8408 102.3512 L141.3424 102.3216 L141.0242 102.3226 M164.3294 152.5739 L165.362 151.2697 L166.4897 150.8348 L166.7207 150.2371 L167.1962 150.0333 L167.9705 150.4138 L168.0521 151.1202 L167.8075 151.5143 L168.351 151.3513 L168.6362 151.1202 L168.908 151.5278 L168.9216 152.0169 L168.5003 152.4653 L167.8618 152.3975 L167.3864 152.0986 L167.1282 152.4653 L167.1418 153.389 L167.101 153.8238 L166.8295 153.7814 L166.6664 153.756 L166.4761 152.8593 L166.2451 152.4245 L165.6338 152.6282 L165.2125 153.0087 L164.7779 152.9952 L164.3294 152.5739 M202.9617 142.3242 L203.4677 141.439 L203.8486 140.8717 L204.7966 141.3609 L204.6895 142.1945 L204.2309 143.1578 L203.3667 142.7449 L202.9617 142.3242 M208.3396 162.0635 L208.3831 161.991 L208.3867 161.953 L208.4611 161.9128 L208.6467 161.8679 L208.6627 161.8095 L208.7455 161.7753 L208.566 161.6299 L208.4663 161.462 L208.4293 161.4387 L208.4521 161.3389 L208.5702 161.376 L208.7371 161.4937 L208.8712 161.6092 L208.9563 161.7398 L209.1024 161.8189 L209.5464 162.0155 L209.6525 161.9919 L209.8564 162.0801 L209.8839 162.0914 L210.1018 162.1806 L210.3206 162.309 L210.5966 162.5372 L210.6048 162.7265 L210.7149 162.8157 L210.607 163.0587 L210.5142 163.2565 L210.4205 163.232 L210.1873 163.7415 L210.0398 163.9839 L209.6863 163.9063 L209.3012 163.7381 L209.0466 163.577 L208.9189 163.3858 L209.0206 163.2351 L208.9309 162.8678 L208.8264 162.6327 L208.6757 162.4804 L208.4599 162.303 L208.3654 162.1828 L208.3396 162.0635 M220.4106 101.4127 L220.9224 101.1282 L222.678 100.5898 L223.9395 103.7993 L222.2071 104.717 L221.668 104.7648 L220.4106 101.4127 M228.1084 270.8933 L230.3566 270.8654 L230.4556 272.9356 L228.3864 272.9055 L228.1084 270.8933 M239.1784 253.0343 L239.7342 251.1528 L243.1492 251.4919 L247.933 251.9917 L252.3775 253.9053 L253.5258 254.4814 L256.5056 254.2096 L258.9564 255.4442 L261.1755 259.5894 L261.9077 261.395 L260.5901 264.4808 L258.6699 266.5903 L258.7302 267.539 L256.8525 267.5644 L252.437 267.2037 L247.1217 265.4336 L245.0022 263.9475 L243.8763 262.4708 L241.3497 260.1363 L240.5621 258.9623 L239.1784 253.0343 M241.2563 245.5992 L241.9322 244.7711 L242.9992 244.3949 L243.3423 245.0381 L241.3595 245.8972 L241.2563 245.5992 M270.0948 88.347 L270.6769 86.926 L272.3072 87.406 L272.118 88.5352 L271.8386 89.4988 L270.284 89.1131 L270.0948 88.347 M291.6498 210.3362 L291.9322 209.1684 L294.8422 210.8105 L297.1912 212.3872 L298.1286 212.6549 L298.7585 212.7522 L298.6196 213.276 L300.6742 214.2558 L301.5751 214.6509 L303.5415 214.9239 L305.0237 216.2433 L306.1085 217.2337 L305.4314 218.1912 L299.2835 215.5202 L296.5966 214.1924 L295.5377 214.5401 L292.851 213.4338 L292.4242 213.023 L292.8193 212.4066 L292.851 211.8694 L291.6498 210.3362 M307.1373 146.8044 L308.4566 143.3129 L311.4746 141.6516 L314.4406 139.2973 L314.6091 137.7631 L315.8773 137.5801 L319.5494 139.5912 L320.5164 140.3077 L320.5286 143.058 L317.3659 145.3356 L313.5515 147.9969 L311.0425 149.946 L308.6774 148.8619 L307.1373 146.8044 M315.1333 227.1836 L317.4237 225.7897 L319.6549 229.127 L320.6307 228.8712 L323.3289 230.3025 L326.7408 232.4341 L326.7184 233.6859 L326.544 234.1277 L326.3114 233.6394 L326.1545 233.6799 L326.2882 234.331 L326.5416 235.0261 L326.8985 236.1507 L327.5032 236.7497 L329.1271 237.7322 L330.0618 237.114 L329.5108 235.5473 L329.3711 234.9781 L329.1801 234.2262 L329.9317 233.6793 L330.5902 234.3398 L330.9912 234.7556 L331.1947 234.9417 L331.494 234.1857 L332.5252 233.7841 L332.9767 234.5871 L333.558 234.433 L334.7177 235.209 L334.1132 236.8718 L334.8456 237.2088 L335.52 237.1915 L336.7461 236.628 L339.3094 238.3183 L341.1252 239.9337 L341.7693 240.5069 L342.2934 241.0865 L343.3262 241.345 L343.9195 241.5678 L344.0852 241.9478 L344.4161 242.1533 L344.7057 243.9923 L346.3856 244.5571 L347.2625 245.3682 L348.411 246.1445 L347.1144 247.3195 L347.8078 247.9072 L347.7945 248.2935 L346.9915 248.1884 L346.0948 249.2187 L346.1618 249.6069 L346.5766 249.1118 L347.5269 248.7236 L348.4234 248.8975 L349.6813 249.3257 L350.0962 249.8877 L350.1498 250.3028 L350.5379 249.8475 L350.8456 250.0483 L350.8456 250.8512 L350.5385 251.1939 L349.6686 251.2601 L347.4437 251.4289 L348.4475 252.0106 L349.3792 252.5505 L348.0948 253.4193 L347.2353 254.402 L348.6304 255.3065 L350.0255 256.345 L351.1326 255.4414 L352.4318 256.4241 L353.7647 258.3106 L354.9735 257.1469 L356.4082 258.5704 L355.0982 259.602 L354.5411 259.8392 L354.5946 261.1801 L353.863 261.6789 L353.0467 261.7727 L353.6222 263.2313 L353.1136 263.2313 L351.1512 261.0009 L344.121 257.9915 L339.8402 256.3014 L337.7311 252.6437 L337.6943 251.1452 L337.6941 249.385 L336.2085 249.2689 L335.0882 247.8263 L333.8102 246.6487 L330.8965 243.7046 L328.8761 241.6632 L327.1313 239.9001 L325.8056 237.4808 L325.3649 237.4322 L324.3254 236.2288 L322.3425 234.963 L319.5342 233.9061 L316.6369 230.3687 L315.1333 227.1836 M328.2972 214.6264 L329.0466 213.6761 L329.5552 213.6761 L330.538 211.6051 L331.5796 210.9313 L331.4555 210.7587 L331.8008 209.5614 L331.4157 209.0743 L331.5358 208.5238 L332.4591 209.4204 L333.048 210.2769 L333.1259 210.9131 L332.9179 211.5765 L333.4227 211.9497 L334.3328 211.8427 L334.2658 211.4413 L333.6233 211.3876 L333.4629 210.8258 L333.7171 210.1567 L334.7876 209.6213 L336.0188 209.7283 L335.9119 210.7988 L336.1527 210.9059 L336.4605 209.9825 L338.2137 210.3306 L337.9673 213.822 L337.5464 213.7684 L337.2005 213.7241 L336.5009 213.6959 L336.2634 213.6862 L334.9683 213.6184 L334.3462 213.6246 L333.5584 213.6325 L333.0088 213.6789 L331.6945 215.2437 L330.3018 215.2679 L329.9603 215.4166 L329.5418 215.7565 L328.7622 215.8852 L328.2972 214.6264 M335.31 263.6739 L336.1637 263.1456 L338.3865 264.0488 L338.2425 265.1886 L338.4187 265.8355 L338.7515 265.8183 L339.3688 265.5801 L340.2075 265.3884 L340.574 264.4601 L342.1917 265.2686 L342.0524 267.166 L338.8556 266.3265 L336.5636 264.8564 L335.535 264.3211 L335.31 263.6739 M337.3762 270.1903 L337.8616 270.3107 L338.11 270.7173 L338.6072 270.6891 L338.7145 270.4858 L338.353 270.2712 L337.4717 269.6271 L337.9179 268.9608 L337.8446 268.5991 L338.2037 267.7273 L341.4041 268.8422 L340.6913 270.1467 L339.7762 270.2599 L339.1212 270.5423 L339.844 271.5251 L339.594 272.2743 L339.3594 273.004 L338.8082 273.7547 L338.2571 274.3218 L338.2011 273.8585 L338.9919 272.6802 L338.844 272.4007 L337.9911 271.7331 L337.4265 270.5648 L337.3762 270.1903 M340.556 282.1301 L341.6292 280.1984 L342.3348 279.0465 L342.5217 278.7413 L343.4481 276.9225 L343.5159 275.9848 L343.9225 275.4088 L344.9957 275.7815 L345.2781 276.222 L344.2952 278.086 L343.5384 279.2721 L342.9413 279.7734 L342.6234 280.0403 L341.8778 280.9554 L340.8272 282.3108 L340.556 282.1301 M341.618 275.8719 L341.8666 274.7987 L343.03 275.2504 L342.7814 276.5385 L341.776 276.2784 L341.618 275.8719 M350.1498 248.6298 L350.4575 248.5228 L350.9929 249.3524 L351.0465 249.7405 L350.8456 249.8077 L350.2971 249.6335 L350.1498 248.6298 M365.8063 271.5637 L366.0191 271.3234 L366.3227 271.7312 L366.7394 271.985 L367.2288 272.4016 L367.5639 272.5964 L367.3918 273.0043 L367.1744 273.643 L366.7801 274.3498 L366.5719 274.1641 L366.3589 273.4799 L366.2773 272.4198 L365.8063 271.5637 M452.7266 309.5169 L452.8321 308.3564 L453.4652 308.2862 L453.4652 309.5169 L452.7266 309.5169 M453.4652 316.8667 L456.4545 317.2186 L457.826 318.2736 L459.1975 320.4889 L457.5446 321.1221 L456.1027 319.8561 L456.4193 318.9767 L454.6961 317.7812 L453.4652 316.8667 M458.9195 304.4959 L463.035 305.2555 L467.6703 308.3652 L465.2261 310.0181 L462.1521 308.0519 L462.6247 305.5654 L462.1024 305.3167 L460.6104 308.0519 L459.4914 307.7038 L459.8148 305.9882 L458.9195 304.4959 M466.8862 305.6218 L469.4723 294.2328 L470.9147 294.8792 L468.5772 307.3127 L466.8862 305.6218 M473.2795 312.9546 L474.2992 312.269 L474.8092 312.7611 L474.6334 313.4294 L473.5257 313.3237 L473.2795 312.9546 M475.407 314.0447 L475.8994 313.1832 L476.6378 314.0272 L476.1983 314.7833 L475.407 314.0447 M487.9943 311.791 L488.4612 311.325 L489.3037 311.0916 L489.8133 310.6068 L490.6908 311.2472 L490.6908 312.4917 L491.8698 312.7855 L493.0631 312.5952 L493.2835 310.3399 L494.6057 309.9249 L494.3982 306.723 L493.5725 306.4821 L493.4925 304.9215 L494.1594 304.1013 L494.5261 305.0018 L494.9196 305.9552 L494.9798 306.8623 L495.2266 307.1424 L495.6181 307.0495 L495.9668 308.7322 L495.6556 310.8712 L495.4866 311.8378 L495.4332 312.338 L494.8063 312.4311 L493.9927 313.065 L493.9993 313.4849 L494.1528 313.7252 L495.0531 313.4451 L495.4266 312.9847 L495.5065 312.4446 L498.424 310.789 L498.8723 310.7727 L499.2088 311.4884 L499.2795 312.4208 L497.2605 313.1848 L495.9802 314.879 L495.6097 315.2801 L494.9176 315.5511 L494.2062 315.399 L493.2983 314.7808 L491.9386 314.4521 L491.9252 315.0123 L492.8189 315.0389 L493.0857 315.7725 L491.5591 316.0811 L491.7727 314.1388 L487.9943 311.791 M489.7375 303.4878 L489.931 303.1008 L491.8051 303.601 L493.0323 303.9947 L492.7921 304.2747 L492.3854 304.2481 L492.5253 304.7483 L492.0785 305.0215 L490.7248 304.7349 L489.9712 304.3679 L489.7577 303.861 L489.7375 303.4878 M136.1743 228.5763 L136.527 229.0642 L137.2924 228.9293 L138.7932 229.0181 L139.0266 227.1789 L140.1981 227.0295 L142.554 227.2947 L142.7868 226.6285 L142.1863 226.3928 L140.0846 225.8534 L138.4239 224.4974 L137.3731 224.428 L136.8721 225.9695 L136.1743 228.5763 M137.6643 219.546 L137.9199 220.624 L139.584 220.478 L140.1743 221.396 L140.9271 222.1375 L143.3656 222.0697 L145.0338 221.5588 L145.5312 219.1051 L144.8592 218.0876 L141.8853 218.837 L140.5 218.3208 L138.9882 218.6334 L137.6643 219.546" stroke-dasharray="" fill="none" fill-opacity="1.0" stroke="#ff0000" stroke-opacity="1.0" stroke-width="1.0px" stroke-linecap="butt" stroke-linejoin="miter" stroke-dashoffset="0.0px"/>
</g>
</svg>