<?xml version="1.0" standalone="no"?>
<!DOCTYPE svg PUBLIC "-//W3C//DTD SVG 1.1//EN" "http://www.w3.org/Graphics/SVG/1.1/DTD/svg11.dtd">
<svg width="512px" height="512px" version="1.1" xmlns="http://www.w3.org/2000/svg" xmlns:inkscape="http://www.inkscape.org/namespaces/inkscape">
<g id="layer" inkscape:groupmode="layer" inkscape:label="layer">
<path d="M104.0941 175.028 L105.7575 174.6221 L107.5004 175.7555 L107.8912 175.3474 L106.5877 173.4011 L105.7885 172.5189 L105.9144 171.1667 L108.304 170.5693 L110.9356 169.7401 L111.3541 171.1353 L112.7374 171.3241 L114.8442 171.6383 L114.9384 170.7582 L114.9071 165.2871 L114.2469 160.7905 L113.3979 159.3439 L111.417 157.8663 L111.1339 155.6963 L111.4483 155.3822 L112.0142 154.4391 L112.9576 153.967 L114.0581 154.5329 L115.033 155.8852 L116.1649 156.4826 L117.1082 156.3567 L117.4226 154.9106 L118.3972 154.9421 L119.7496 155.6025 L121.449 156.5073 L122.0133 158.5896 L123.8006 159.9875 L125.3465 160.4758 L125.7865 161.0108 L125.2418 162.0005 L125.2041 162.0829 L125.1761 162.1033 L125.0664 162.2743 L124.8819 163.5085 L125.0374 164.9179 L128.6962 166.6283 L125.97 168.3429 L126.6817 169.7391 L127.7492 170.4781 L127.1729 173.2065 L127.8553 174.0829 L128.1249 174.5691 L128.1236 174.7941 L128.2326 175.1838 L128.1613 175.3113 L128.2111 175.4775 L128.1037 175.8725 L128.7127 176.3114 L128.7356 176.3282 L128.7343 176.4038 L128.6908 178.5625 L128.6865 178.7775 L130.2317 178.8158 L130.5923 178.2504 L130.9205 177.6615 L131.6867 177.3929 L133.0613 177.115 L134.757 178.9538 L135.0408 179.7426 L135.0964 179.8968 L135.7865 179.7457 L136.5157 179.7174 L136.741 180.1344 L137.0497 180.9772 L137.4425 181.5767 L137.6082 181.7744 L137.6769 182.2837 L137.5348 182.6298 L137.5233 182.6576 L137.5085 182.6424 L137.1406 182.2663 L136.8211 182.0896 L136.2952 180.9667 L136.0474 180.3531 L135.8394 179.8947 L135.2422 180.0594 L135.2859 180.8261 L135.9246 183.1968 L134.7543 183.5891 L134.7086 183.6158 L133.8713 184.1062 L133.6242 183.76 L133.6198 183.4212 L133.6151 183.0305 L131.9379 183.4102 L130.7451 184.0737 L130.0991 184.0621 L129.179 184.0244 L129.2995 183.1254 L129.3453 182.0906 L129.3406 181.1838 L128.9558 180.9069 L129.1201 180.4963 L129.4271 180.7202 L129.7139 180.6971 L130.0728 180.7055 L130.3081 180.6326 L130.6306 180.533 L130.7609 180.3615 L130.8387 180.2597 L130.0809 179.1179 L128.5828 179.0477 L128.5212 179.2538 L128.5693 179.4609 L128.5235 179.9991 L128.1791 181.3071 L127.8367 181.4875 L127.5146 181.4025 L127.1446 181.3045 L126.6803 182.5821 L126.6457 182.8915 L126.647 183.2838 L126.5006 183.5156 L126.4214 183.737 L126.4208 183.8759 L126.3652 184.2132 L126.246 184.7833 L126.1104 185.0827 L126.1154 185.164 L126.1245 185.3119 L126.035 185.3985 L125.8404 185.613 L125.6064 185.9518 L124.8035 186.6844 L124.4806 186.9545 L124.0426 187.1098 L123.8221 186.9996 L123.5387 187.189 L123.3121 187.4937 L122.935 187.9374 L123.2939 188.219 L123.777 188.0963 L124.2874 188.0124 L124.6944 187.6736 L125.1051 187.3867 L125.7172 187.2241 L125.8363 187.1643 L126.3689 186.8974 L127.1503 186.6928 L127.6516 186.8449 L128.0485 187.64 L128.2794 187.9258 L128.5181 188.1183 L128.6488 188.2122 L128.8959 188.1718 L129.1167 188.1125 L129.217 187.9741 L129.2988 187.8608 L129.9442 187.8152 L130.9707 187.5519 L132.0702 187.4208 L132.2288 187.4879 L132.3634 187.5451 L132.4496 187.4523 L132.688 187.1958 L132.8677 187.0421 L133.167 187.3363 L133.1906 187.3568 L133.235 187.3253 L133.5794 187.083 L133.8615 186.9414 L134.0595 187.1926 L134.1315 187.2839 L134.6587 187.5084 L134.7089 188.0496 L134.8654 188.9223 L134.8574 189.7216 L134.7783 190.0258 L134.384 190.2382 L133.9124 190.7359 L133.8588 191.1088 L133.8423 191.2236 L133.7787 191.2572 L133.6888 191.2719 L132.7307 190.6766 L131.881 189.9492 L131.4275 189.5611 L131.2753 189.5815 L131.2107 189.7976 L131.3625 190.117 L131.8325 190.6326 L132.8277 191.9746 L133.0785 192.1996 L133.2687 192.3706 L133.3579 192.6087 L133.6535 193.3298 L133.3606 193.784 L133.3791 194.9802 L133.5818 195.2 L133.7511 195.9462 L134.2218 196.8839 L134.3487 197.1362 L134.4103 197.2589 L135.0223 197.6968 L135.6391 197.8673 L136.0188 198.4032 L136.6262 199.116 L136.7248 199.4914 L134.5796 201.2383 L133.7693 202.0433 L133.6397 202.1839 L133.5612 202.2694 L133.4411 202.6139 L133.5447 203.1263 L133.6555 203.4053 L133.8982 203.872 L134.1514 204.2847 L133.8322 204.9581 L134.0258 205.3561 L134.0682 205.3892 L134.3857 205.6367 L133.9716 206.1821 L133.8454 206.3557 L133.1562 207.6819 L136.2013 210.4367 L135.1907 210.8258 L135.2873 210.9946 L135.6381 211.3072 L135.8135 211.3942 L136.1723 211.4745 L136.3774 211.6024 L136.6834 211.9223 L136.8625 212.0319 L137.5594 212.1798 L137.6025 212.1882 L137.9947 212.3319 L138.1512 212.5306 L138.2852 212.7005 L138.5313 212.9381 L138.6845 213.0283 L139.0464 213.3676 L139.4524 213.1101 L140.8778 212.484 L141.4363 212.0922 L141.7181 211.9318 L142.5755 211.443 L143.2569 211.239 L143.6919 211.2652 L143.7932 211.2715 L143.9121 211.1913 L144.2396 210.9695 L144.4036 210.9427 L144.852 210.8688 L145.4257 211.5253 L146.3885 211.6161 L146.8248 211.6019 L146.7851 210.9202 L146.511 210.1435 L146.604 209.6317 L146.5222 209.3055 L146.0741 208.9825 L146.167 208.7334 L146.1061 208.2703 L145.9135 207.5277 L145.4492 207.0164 L144.6716 206.8995 L143.74 207.0521 L142.2584 207.0804 L141.4777 206.8665 L140.4206 206.4611 L140.0738 206.1553 L139.8015 205.9152 L140.1722 205.31 L140.4294 204.8904 L140.4556 204.4373 L140.3425 204.2118 L140.2469 204.1368 L139.8453 203.8206 L139.8045 203.8033 L139.8015 203.3161 L139.9567 203.1001 L140.1395 202.9647 L140.19 202.8908 L140.3051 202.7225 L140.5088 202.5699 L140.6593 202.4115 L140.9266 202.1813 L142.1783 201.8262 L143.065 201.7502 L143.3909 201.6275 L144.2932 201.3642 L145.3893 201.3002 L146.2986 200.7181 L146.4171 200.6421 L147.4658 200.265 L148.0061 200.5109 L148.0772 200.7349 L148.436 201.8645 L148.4111 202.1215 L148.4626 202.9349 L148.9912 204.602 L149.0164 204.8196 L149.0548 204.9927 L149.1319 205.128 L149.1817 205.2156 L149.1952 205.2979 L149.3851 206.4432 L150.149 208.9316 L150.6425 209.7397 L150.3563 211.9029 L150.1995 212.3156 L150.0978 212.8621 L150.2234 213.3099 L150.1597 213.7693 L150.2638 214.8176 L150.12 215.7489 L149.8965 216.3813 L149.9008 217.1328 L151.1266 217.4369 L151.2717 216.9702 L151.3771 216.7678 L151.7972 215.2423 L152.1595 214.3162 L152.3079 214.0294 L152.6281 214.0053 L152.925 214.4536 L154.3979 215.7463 L154.8234 215.9618 L155.3166 216.2119 L156.3683 216.5743 L156.5168 216.6205 L156.7972 216.644 L157.346 216.901 L158.0924 217.3798 L158.365 217.4972 L158.4738 217.4563 L158.4852 217.385 L158.4667 217.2723 L158.3512 217.1296 L157.082 216.4123 L156.402 216.1999 L155.8065 215.795 L155.1527 215.3504 L154.8988 214.7851 L154.9914 214.6644 L155.1463 214.4625 L155.5708 214.6419 L156.6084 214.634 L157.3817 214.9665 L158.087 215.2214 L159.1064 215.6786 L160.9984 216.9645 L162.7554 217.9461 L163.8586 218.6116 L165.5577 220.1827 L166.1691 219.9871 L166.2478 220.2367 L166.1189 220.3819 L165.9799 220.405 L165.856 220.6399 L165.8907 220.7841 L165.9001 220.824 L165.2625 221.7354 L164.5804 221.8355 L163.8623 221.814 L163.4284 221.8387 L162.9971 221.9535 L162.7241 222.0815 L162.6386 222.1219 L162.8847 222.3211 L163.3637 222.5099 L163.726 222.4506 L163.8115 222.4564 L164.6679 222.5146 L165.013 222.6604 L165.1675 222.9242 L165.2917 223.2021 L165.1231 223.4832 L164.8147 223.6384 L164.4434 223.9336 L163.7088 224.307 L163.1412 224.5671 L162.6722 224.7291 L162.2447 224.8764 L160.8849 224.8691 L160.318 224.9205 L159.711 224.9756 L157.9755 225.3452 L155.7512 226.1937 L153.9444 226.7459 L152.5702 227.2 L151.0838 227.9304 L150.6923 228.0138 L150.0863 227.8963 L148.3515 228.384 L146.6528 229.1428 L147.3938 230.191 L147.3396 231.3656 L148.8575 232.3231 L152.4352 232.9922 L151.3872 233.4615 L151.7124 234.1122 L151.9656 234.9433 L151.8753 235.7026 L151.1704 235.5757 L150.1234 235.9233 L151.0014 236.186 L152.8011 237.0171 L155.081 238.2347 L157.1161 239.8214 L159.9951 242.1448 L161.2542 242.8275 L162.1235 243.0985 L162.578 243.4053 L162.7934 244.1063 L162.7039 245.111 L162.4901 245.4146 L161.7898 245.8697 L161.5515 245.9593 L161.3293 246.0679 L161.4091 246.4706 L161.6468 246.8581 L161.8885 247.0977 L161.9992 247.1554 L162.3194 247.1029 L162.4463 246.8738 L162.9281 246.8004 L163.1584 246.8135 L163.6546 246.91 L163.8865 246.8245 L164.0906 246.7909 L164.202 246.7443 L164.3414 246.62 L164.4996 246.5235 L164.5636 246.3316 L164.4797 245.9919 L164.6107 245.941 L164.6639 245.9578 L164.7544 245.8922 L164.747 245.6904 L164.8235 244.9164 L164.7551 244.4959 L164.8127 244.3853 L165.0972 244.11 L165.9112 243.8242 L166.1697 243.8583 L166.5138 244.1069 L166.5959 244.1441 L166.9205 244.1163 L167.1053 244.0099 L167.4012 243.9616 L168.086 244.2809 L168.6145 244.5751 L168.8236 244.7696 L168.9549 244.799 L169.2831 244.7958 L169.4434 244.8457 L169.9719 245.1403 L170.2184 245.1 L170.5601 245.0973 L170.8974 245.1807 L171.0529 245.0832 L171.0583 244.9107 L168.8037 243.732 L167.3026 243.216 L165.657 242.9014 L164.7002 242.9308 L164.1091 242.8752 L163.289 242.5018 L161.1 241.2953 L157.251 238.543 L154.5241 236.4818 L152.9893 235.744 L152.2241 234.8185 L152.0891 234.516 L152.1894 234.3419 L152.3645 234.2464 L152.5614 234.2281 L152.8355 234.0834 L153.0977 233.3954 L153.3479 233.1778 L154.5793 232.957 L155.2853 233.0803 L155.7873 233.0923 L156.5666 233.3723 L157.7985 233.1563 L158.8848 233.0116 L160.1015 232.7599 L162.0767 232.4557 L162.8937 232.4369 L163.5546 232.4557 L164.0515 232.5522 L165.6873 233.2355 L166.0489 233.3298 L166.5404 233.3639 L166.9821 233.2391 L167.3501 232.9832 L167.9772 232.9423 L168.6371 233.1641 L169.5777 233.6744 L170.8614 234.5857 L171.0129 234.7388 L172.6393 236.1541 L172.8699 236.3407 L173.1705 236.4923 L173.3772 236.6784 L173.8223 237.833 L174.372 238.4885 L174.6376 238.7743 L174.8703 239.4722 L175.1844 239.5592 L175.5029 239.8172 L176.4411 240.901 L177.5726 241.7956 L178.4981 242.2412 L179.4993 242.5983 L180.6217 242.8395 L181.1247 243.044 L181.1954 243.0173 L182.0673 242.689 L182.9598 242.4667 L183.9452 242.463 L184.333 242.591 L184.8104 242.5988 L184.9854 242.9711 L185.3144 243.2375 L185.7773 244.6475 L186.0641 245.7087 L186.6088 246.9189 L186.7781 247.7269 L186.6101 248.0719 L185.6147 248.0703 L184.0876 248.4337 L183.3261 248.3487 L182.4898 248.6277 L182.201 248.7242 L181.5903 249.0099 L181.2937 249.6176 L181.4388 250.7449 L181.4293 251.329 L181.6394 252.9848 L181.5889 253.2973 L181.6091 253.4211 L181.4411 253.6581 L181.3842 253.8059 L181.2159 254.001 L180.6389 254.4058 L179.6949 254.928 L179.4141 255.2541 L180.0066 255.4471 L180.9085 254.9023 L181.8394 253.9218 L182.7366 253.3445 L183.6873 253.0929 L185.9193 259.9131 L187.2824 262.6049 L186.0021 263.4249 L187.2202 266.4947 L188.0897 268.6763 L188.8452 269.2504 L190.8796 268.2584 L191.3099 268.3554 L191.5688 267.8972 L191.7596 267.9281 L192.1902 268.087 L192.606 268.7691 L192.7444 269.1523 L192.6154 269.5602 L192.2212 269.8585 L191.9387 270.2292 L191.5681 270.3965 L190.0747 271.6516 L188.7058 273.0195 L188.6533 273.3477 L188.0749 273.8677 L188.0675 273.8646 L188.0682 273.8615 L187.7208 273.7278 L187.7137 273.7456 L187.709 273.744 L187.6329 273.9406 L187.1542 274.1692 L186.6051 274.3354 L186.3156 274.4591 L186.2647 274.6426 L186.2196 276.0938 L185.9584 276.0697 L185.012 274.6148 L183.9546 273.1579 L183.6981 272.9482 L183.5607 273.1285 L183.6166 273.2858 L183.5806 273.3136 L183.8408 273.9134 L184.2825 274.639 L184.8138 276.1185 L184.6171 276.227 L184.3125 276.2579 L183.9933 276.0807 L182.8888 273.4483 L182.6911 273.5238 L182.7746 273.8012 L182.9951 274.1902 L183.5267 275.5554 L183.9226 276.2228 L183.8704 276.3911 L183.557 277.0595 L182.9588 277.0999 L182.3279 276.735 L182.0518 275.9701 L181.837 275.7924 L180.0918 275.3331 L179.4306 275.2031 L179.4639 275.4081 L179.9868 275.8291 L181.3418 277.6703 L181.3395 278.0955 L181.39 278.4363 L181.5536 278.7388 L181.7835 278.8352 L181.9815 278.7928 L182.0033 278.7713 L182.2138 278.9233 L182.3558 278.9799 L183.1039 278.9868 L183.6001 278.9055 L183.9226 278.83 L183.9479 278.9857 L184.1317 279.3013 L184.3552 279.5655 L185.5729 279.175 L186.3482 278.6995 L186.8812 278.1065 L186.9552 277.9083 L186.9855 277.7704 L186.9562 277.589 L186.9091 277.4637 L186.6051 277.177 L187.0333 274.9483 L187.3616 274.5939 L187.7154 274.3684 L188.0547 273.9369 L188.5446 273.55 L188.5638 274.1676 L187.6504 275.7546 L187.1609 276.4938 L187.304 276.7287 L187.7171 276.5599 L187.8474 276.2338 L188.0288 276.0891 L188.1749 276.1127 L188.3338 277.2624 L188.3544 278.1804 L188.2837 279.0041 L188.0756 280.1842 L188.0443 280.5858 L188.0386 280.6576 L187.9877 280.6723 L187.608 280.7808 L186.7111 280.9328 L186.5697 282.3169 L186.088 282.6634 L185.7204 282.5418 L185.7113 281.6359 L186.054 281.0088 L185.916 280.786 L184.97 281.0314 L184.3401 281.0817 L184.0633 281.2846 L183.5153 282.4537 L183.3493 282.8962 L183.2082 283.2013 L182.5285 283.7932 L182.308 283.9022 L182.1676 284.0354 L182.0027 284.1455 L181.5287 284.2351 L180.6534 284.5932 L179.8878 284.6776 L179.6084 284.5901 L179.3242 284.6367 L179.096 284.7007 L179.0142 284.6876 L178.9627 284.696 L178.6876 284.6346 L178.3587 284.4815 L178.7991 285.3466 L179.3252 285.3854 L180.6749 285.1767 L182.9069 284.8375 L184.4121 284.3421 L184.8491 284.4658 L183.6341 286.7683 L185.6278 288.739 L186.2196 288.664 L187.0145 288.534 L187.5508 288.2032 L187.7245 287.69 L188.0995 287.0221 L188.5873 286.3054 L189.2957 285.8252 L189.7788 286.0952 L189.9956 286.4087 L189.9986 286.9843 L189.9434 288.0397 L190.3339 289.4163 L190.5127 290.1456 L190.6682 290.5445 L190.4393 290.8092 L190.1396 290.9188 L189.8508 290.8145 L189.333 290.7023 L188.9516 291.0525 L188.9159 291.4829 L189.1243 292.1162 L189.5704 292.9985 L190.0659 294.373 L190.3497 295.3733 L190.5376 295.7822 L190.1841 295.8398 L189.9084 295.3544 L189.3852 294.7426 L189.2044 294.6519 L189.3121 295.2265 L189.3428 295.6894 L189.1798 296.1696 L188.6345 296.2603 L188.2537 295.5945 L187.9049 294.2871 L187.5302 293.3775 L187.4262 292.9246 L187.0764 292.6331 L186.2274 293.454 L186.0412 293.3329 L185.7739 292.6184 L185.5052 292.1775 L185.0673 291.248 L184.7774 291.2349 L184.9868 291.777 L185.3406 292.2803 L185.6655 292.7883 L185.855 293.2118 L185.6261 293.3859 L185.4679 292.9717 L184.7649 291.9951 L184.3919 291.3739 L184.0367 290.4916 L184.0196 290.1172 L183.2436 290.7825 L188.6772 296.9842 L192.3266 297.7601 L195.1141 301.8857 L198.3695 302.2055 L201.7327 306.4988 L203.4867 306.394 L204.9983 310.3046 L207.6006 313.6647 L209.1661 313.4812 L210.1761 316.2333 L209.6038 317.0091 L209.2789 318.5093 L209.5263 321.559 L207.8767 322.838 L208.045 324.5153 L208.8597 323.0424 L211.4688 321.3703 L210.9975 328.4571 L213.3194 330.8714 L215.8858 332.7929 L216.5389 337.7032 L219.2587 344.2659 L219.3021 344.2827 L219.46 344.4048 L219.7455 345.1077 L220.0492 345.6753 L220.1313 346.1795 L220.1199 346.3441 L220.6595 347.646 L220.3767 351.9019 L220.7626 354.3443 L224.3301 360.2813 L224.5573 361.6519 L224.6008 363.6256 L232.0856 365.6491 L231.0191 366.6774 L227.7155 367.2125 L225.2731 368.8628 L224.1288 369.6494 L223.3181 371.9145 L223.6517 373.1068 L225.8215 374.5134 L225.5118 377.804 L222.2213 374.4657 L221.9422 375.942 L226.4063 380.1502 L230.6448 381.1983 L238.7403 388.9705 L243.839 392.4836 L243.1734 394.7233 L238.7508 397.2444 L232.8754 401.643 L231.5796 403.237 L227.2058 407.5779 L223.005 408.7668 L219.3301 412.4846 L221.7473 418.0755 L225.4131 425.9272 L228.1091 435.1975 L233.4245 439.6242 L230.3354 439.8773 L226.0511 442.1863 L223.07 446.1676 L217.33 450.7518 L212.8996 452.7322 L213.8894 454.8383 L209.8842 457.7334 L208.9742 458.406 L208.9153 459.3202 L209.1398 460.0647 L209.2435 460.7012 L209.1775 461.409 L208.9436 461.8433 L208.7429 461.9942 L208.6914 462.791 L203.3218 463.4668 L203.8776 464.6985 L205.4407 464.7178 L205.7814 464.8247 L205.8177 465.1092 L206.5018 468.8759 L208.6655 472.8861 L213.3524 475.0721 L213.3834 475.0727 L213.6972 475.1591 L213.7638 475.3241 L215.1996 475.123 L215.0522 474.9181 L214.8845 474.7646 L214.829 474.5682 L214.7421 474.4152 L214.961 474.1507 L215.2932 473.8243 L215.7046 473.6902 L216.6853 473.4298 L217.0018 473.279 L217.1758 472.9578 L217.2139 472.5943 L217.1257 472.2511 L216.8903 471.9965 L216.4978 471.7681 L216.2049 471.556 L215.8992 471.2579 L215.7437 470.7393 L215.9134 470.4061 L216.0965 470.1567 L216.6028 470.0284 L217.0819 470.0724 L217.3997 470.1583 L218.4841 469.9147 L219.0749 469.8895 L219.692 470.1132 L220.5319 470.9781 L223.0306 473.4508 L223.9938 474.0087 L224.46 474.2539 L227.3506 475.6316 L228.7952 476.7155 L228.8315 477.0948 L229.3372 477.9256 L229.4452 479.6229 L230.0051 480.9954 L230.9986 483.1625 L231.0656 484.5365 L235.5317 489.3029 L235.2603 490.6727 L235.2172 490.7817 L235.1772 490.8058 L236.1457 494.0231 L235.6475 496.9146 L236.8224 497.3703 L249.7971 492.2945 L252.1978 491.624 L255.1156 490.5517 L255.2987 490.6848 L255.3957 491.0845 L257.6412 493.3736 L256.7794 494.7774 L255.4873 494.1609 L254.747 492.5355 L248.8242 494.3269 L244.8362 497.2991 L244.8489 497.3143 L246.1309 497.187 L247.3244 497.9716 L248.6067 499.7055 L250.0496 505.6202 L249.0767 508.0978 L246.6898 510.5648 L245.2893 511.3138 L248.6558 511.1777 L253.4936 511.5181 L254.9681 512.0 L254.7651 508.8615 L256.7336 507.1639 L256.1377 504.8524 L258.5394 503.624 L259.28 501.5655 L260.0745 500.554 L263.1627 500.1386 L264.102 499.2539 L265.8357 497.6647 L268.6394 494.8382 L269.0885 494.648 L269.2956 494.7413 L269.9796 494.2955 L271.0603 494.6412 L271.1344 493.3055 L268.5994 492.6664 L265.2564 488.6015 L267.7947 488.2663 L267.7655 488.129 L276.1839 483.8126 L275.1362 480.2552 L271.8134 480.833 L270.8741 483.4333 L266.9396 484.2537 L266.5828 482.8812 L268.9865 481.3097 L266.9329 477.0927 L264.4787 475.3639 L262.2904 474.7301 L256.3542 470.6832 L256.3148 473.3418 L255.5055 470.0692 L255.361 473.916 L255.054 473.6451 L254.0787 473.1758 L250.871 470.5234 L251.9551 466.5001 L249.5278 459.9777 L250.8138 459.9777 L254.1097 462.9586 L254.3083 465.7614 L254.4026 469.0356 L265.7411 474.0124 L265.7411 472.1422 L259.4288 469.308 L257.7085 466.8877 L262.3544 468.4227 L262.8988 466.6368 L263.196 466.8506 L263.3879 466.2381 L265.4045 467.6998 L267.5086 468.1241 L275.861 469.9367 L276.7979 468.5526 L279.8137 466.2046 L291.529 463.0477 L297.774 463.8964 L299.2519 463.5873 L298.2217 462.0104 L301.9317 459.852 L303.3638 459.2128 L305.3743 457.7821 L306.8246 456.9538 L308.3116 456.497 L309.1304 456.2057 L309.6115 456.2088 L310.9312 455.8358 L311.4435 455.0033 L312.5912 454.568 L314.2082 454.13 L318.384 451.4224 L318.7742 450.406 L318.9129 449.2948 L319.397 448.5236 L319.5553 448.3712 L320.4174 446.1256 L316.2429 448.9915 L316.5762 446.1833 L309.4223 439.6185 L308.3349 436.4853 L309.8498 433.5774 L311.1055 434.1485 L315.0208 437.4295 L315.3259 437.1308 L315.8312 436.7415 L316.524 435.8828 L316.889 435.1645 L315.7534 436.3229 L315.3252 436.0583 L315.3188 435.1383 L315.479 434.4823 L315.6194 434.2638 L317.2445 434.4807 L317.7252 434.98 L317.902 434.9848 L318.9463 435.7073 L319.5428 435.6098 L320.4434 436.0337 L321.1867 436.5707 L322.0583 437.0868 L322.937 437.6459 L322.4158 438.2138 L322.1155 438.7891 L321.4739 439.4204 L320.6329 440.1717 L319.49 440.1387 L319.2587 439.2549 L318.7123 439.1244 L318.4207 439.2161 L318.007 439.6347 L318.0922 440.003 L318.6749 440.4913 L319.1405 440.4154 L319.1668 440.8497 L319.1382 440.8796 L325.6491 446.3352 L326.1911 447.9698 L324.9993 450.4741 L325.6339 450.5119 L326.051 450.4076 L326.8166 450.4024 L329.1372 450.7733 L330.637 451.1013 L332.6788 451.9175 L334.2715 452.738 L335.9023 453.9896 L337.5165 455.2585 L339.9068 456.8543 L340.9602 457.6275 L341.6258 457.6815 L342.3738 457.5406 L342.9367 457.3436 L343.507 457.4562 L345.1219 458.1137 L346.3703 458.6502 L347.1755 459.0677 L347.3307 459.1735 L352.5782 456.2528 L362.9506 461.7747 L365.7717 459.852 L368.5054 464.9651 L370.7475 465.971 L372.6698 472.2941 L374.2959 472.2941 L387.5904 473.0223 L387.173 468.889 L392.9453 470.4978 L397.9493 465.3821 L399.2428 467.1848 L400.6729 465.6881 L401.0297 465.3214 L403.5668 462.923 L395.1399 447.327 L383.2856 430.756 L381.4552 397.6149 L389.1969 370.6672 L393.0961 365.0391 L399.7619 353.3102 L404.1956 346.8646 L407.9059 338.8464 L401.9629 312.8737 L397.9604 294.6619 L396.8377 291.4609 L396.7508 289.8819 L395.8752 288.329 L395.6537 286.501 L394.5154 284.8952 L394.5185 283.6212 L393.6415 281.8582 L392.5335 279.6332 L391.5461 278.7288 L390.249 278.1196 L389.1784 276.2181 L387.9968 272.8669 L386.7319 271.2888 L386.2058 269.8486 L384.0643 269.027 L382.9658 269.4056 L382.546 269.1471 L382.0013 269.221 L380.1641 269.9042 L380.1274 268.6763 L379.1606 268.0608 L376.7063 266.1051 L375.2627 266.2672 L374.5783 267.354 L373.8942 267.6004 L372.3887 267.3268 L370.6095 266.425 L364.9301 266.1681 L364.2231 264.0132 L366.4249 260.9513 L365.3038 258.6496 L366.4104 258.2915 L367.084 257.8668 L367.6637 257.171 L367.721 256.6393 L367.6132 255.5823 L370.862 257.4069 L372.3965 260.47 L372.9779 260.664 L373.7811 260.3499 L377.8287 258.7712 L378.595 258.5777 L380.2042 258.854 L380.1227 257.0174 L380.0675 255.8728 L379.5612 253.721 L377.3628 250.316 L375.7657 247.7589 L375.4041 246.7396 L374.9389 245.6998 L374.5935 244.4267 L375.2395 243.7435 L376.9013 243.0236 L376.6336 241.1034 L379.338 240.1806 L377.8705 239.5068 L376.8918 239.8759 L375.8394 239.1832 L374.6797 237.4298 L371.0141 233.0047 L367.6637 234.0529 L364.9779 232.1049 L362.1554 232.0132 L361.0845 230.7757 L359.9382 225.6625 L359.0821 219.3856 L347.5688 222.0867 L346.0703 220.2687 L345.3472 220.6032 L342.9808 220.9582 L340.6431 221.4894 L339.2197 222.2162 L338.7874 222.2016 L338.3652 222.0453 L338.5699 221.6551 L338.5918 221.6132 L337.3691 220.1066 L336.6567 219.4008 L336.1342 218.6441 L335.5717 218.2204 L334.7119 218.1627 L334.0779 217.6724 L333.6083 216.7468 L332.7111 215.9162 L331.2153 214.6246 L329.9573 213.6303 L329.2156 213.0844 L329.0045 213.076 L328.3544 212.3272 L328.1588 212.5023 L328.6581 213.0561 L328.4817 213.1709 L328.31 212.936 L328.0215 212.6533 L326.6109 214.5601 L325.7629 215.472 L325.3232 215.6965 L324.9431 215.9686 L324.4162 216.0871 L324.3227 216.1081 L323.9443 216.1076 L323.3396 215.7405 L322.3586 215.4065 L322.2946 215.4049 L321.9209 215.3955 L321.2732 215.9398 L320.9884 216.3703 L321.1466 216.6734 L321.3291 216.8428 L321.4271 216.9335 L321.4681 217.1422 L320.9197 217.4527 L320.2447 217.835 L319.4425 218.3845 L318.7897 218.4144 L317.8993 217.8858 L317.3545 217.2298 L317.303 216.4117 L317.3131 216.3347 L317.405 215.6309 L317.3657 215.2061 L317.1482 214.87 L316.8927 214.7111 L316.661 214.5674 L316.0803 214.1725 L315.2851 213.9271 L314.9505 213.9271 L314.6626 213.7441 L314.2327 213.4709 L313.8867 213.2506 L313.4413 212.8568 L312.704 212.5107 L311.9718 211.8625 L311.5338 211.8515 L311.0944 212.0545 L310.5527 212.2385 L309.94 212.3382 L309.3347 212.0734 L309.2257 211.9679 L309.0304 211.7797 L308.8651 211.3481 L308.826 210.2547 L308.8196 210.0733 L308.7786 209.9002 L308.6732 209.4555 L308.3692 209.0936 L308.1881 208.9861 L308.1339 208.6012 L308.1918 208.0186 L308.5863 207.5146 L309.5576 206.6153 L309.8262 206.3761 L309.866 205.7106 L309.5367 205.2507 L309.4933 205.2072 L309.1348 204.8459 L308.8796 204.5894 L308.1975 204.0655 L308.1537 204.1138 L308.0952 204.1777 L307.6848 204.6282 L307.5855 205.3493 L307.5912 205.954 L307.5925 206.1165 L307.5235 206.1921 L307.3552 206.3766 L307.3081 206.8638 L307.3081 206.9519 L307.3067 207.5781 L307.1424 207.6772 L307.061 207.7013 L306.867 207.758 L306.7219 207.9142 L305.9621 208.8409 L304.6963 210.7859 L304.4687 210.862 L304.3556 210.8997 L304.0196 210.8452 L303.6244 210.5211 L303.5735 210.09 L303.7813 209.768 L303.8627 209.6417 L304.6084 208.6888 L304.267 208.3369 L304.2186 208.2074 L304.1889 208.2174 L304.0637 208.2604 L303.7176 208.7481 L303.4372 208.5456 L303.2901 208.2257 L303.4547 207.866 L303.9923 207.1475 L304.2277 206.717 L304.3707 206.4553 L304.3983 206.1218 L304.2617 205.9519 L304.2472 205.9634 L304.1435 206.0452 L304.0021 206.116 L303.6291 206.4726 L303.2231 207.2031 L302.5538 207.6725 L301.8549 207.4538 L300.9493 207.2278 L300.8143 207.0002 L300.5908 207.0033 L300.5116 206.8282 L300.3901 206.5586 L299.7488 207.0689 L298.8977 207.6662 L298.5156 208.3065 L298.1392 208.6883 L298.0561 208.9552 L298.0234 209.0606 L297.5518 209.6485 L296.8778 209.3097 L296.4778 208.9489 L296.3856 208.7276 L296.288 208.4932 L296.5226 208.178 L296.5044 207.6012 L296.3943 207.4271 L296.2351 207.4528 L295.7695 207.7758 L295.2867 207.9913 L294.5333 208.3888 L293.9549 208.93 L293.2241 209.7266 L292.0592 212.7955 L291.26 214.7368 L290.925 215.5502 L290.8372 216.6886 L290.9846 217.5969 L290.9109 218.4863 L290.7412 218.953 L290.3719 219.125 L290.1575 219.2141 L288.6755 218.6535 L288.4385 218.3672 L288.3907 217.9545 L288.6459 217.149 L288.7112 216.202 L288.4843 215.7132 L288.2964 215.5245 L287.9133 215.2476 L287.5915 214.966 L287.3292 214.4353 L289.4067 211.0633 L289.4693 210.862 L289.3707 210.8405 L289.1485 211.1509 L287.274 214.096 L286.6451 213.8306 L285.4456 212.5558 L285.4133 212.5217 L285.447 212.4058 L285.6271 211.7849 L285.7779 211.1583 L285.6675 210.7702 L285.243 210.5526 L284.9036 210.379 L284.6881 209.9317 L284.3377 209.5924 L284.1579 209.2368 L284.0855 209.0936 L284.4239 208.4796 L284.9016 208.0768 L284.9275 207.7669 L284.7275 207.3557 L284.4929 207.1376 L284.032 206.7091 L282.7571 205.7515 L282.4834 205.1799 L282.4524 204.8018 L282.3794 203.893 L282.1747 203.5495 L282.1403 203.1714 L281.5869 202.5389 L280.043 200.7679 L279.8824 200.4606 L279.739 200.1868 L279.7847 199.5297 L279.9982 199.0399 L281.0031 197.5049 L282.0144 195.3379 L282.2056 195.0054 L282.4275 194.8591 L282.8651 194.8701 L283.0971 195.019 L283.4435 195.2419 L283.6856 195.5592 L283.9943 195.79 L284.0633 195.8534 L284.2407 196.0176 L284.5218 196.1052 L284.9756 196.1162 L285.5234 196.3013 L285.9641 196.5389 L286.094 196.5803 L286.3452 196.6605 L286.6495 196.8577 L286.7293 196.9275 L287.3551 197.4776 L287.8766 197.7267 L288.36 197.3192 L288.5291 196.9936 L288.5469 196.9595 L288.5866 196.9663 L288.8418 197.0103 L289.2178 196.9778 L289.7104 196.52 L289.7467 196.4135 L289.9083 195.9426 L290.0538 195.704 L289.8144 195.3956 L289.6599 195.0332 L288.7489 194.761 L287.9426 194.5203 L287.3972 194.611 L286.2216 194.2544 L285.5995 194.3194 L285.245 193.9691 L284.7992 193.528 L285.0578 193.9927 L285.418 194.6404 L285.1073 195.0447 L283.8913 194.0394 L284.0455 193.8312 L284.6043 193.0765 L284.704 192.9417 L285.0383 192.916 L285.7136 193.0608 L286.3536 193.1835 L287.2242 192.7933 L287.4581 192.2977 L287.4528 192.2646 L287.406 191.9767 L287.1646 191.6038 L287.1003 191.5346 L286.8555 191.2713 L286.7323 191.2378 L285.7769 190.9797 L285.1685 190.6708 L284.8373 190.5025 L281.7953 188.477 L281.4283 188.3092 L281.2909 188.2463 L281.0886 188.1535 L280.4466 188.2311 L279.6006 188.561 L278.3812 189.1195 L277.0427 189.6487 L276.0357 190.1952 L275.4038 190.9572 L274.477 192.069 L273.9088 192.6779 L273.5293 193.2747 L273.2977 193.9623 L273.2795 194.9063 L273.3509 195.3473 L273.3563 195.3804 L273.3768 195.5068 L273.1934 195.8136 L273.0799 196.1198 L272.9449 196.4848 L273.5297 196.9768 L273.7478 197.4094 L273.8232 197.744 L273.9007 198.087 L273.5152 198.5894 L273.2314 199.1899 L272.8352 200.1528 L272.2982 201.3055 L271.4697 202.5216 L270.3708 203.6072 L268.83 204.8994 L265.9297 207.1827 L263.6461 208.6663 L262.8567 209.2337 L262.3645 209.7245 L261.7312 210.3108 L261.2279 211.0628 L261.0414 211.2579 L260.8674 211.388 L260.4452 211.8389 L259.9557 211.8757 L259.3184 211.8956 L258.3233 211.7031 L258.1647 211.6727 L257.1672 211.0675 L256.9292 210.7775 L257.0228 210.5153 L257.0999 210.4865 L257.5365 210.3218 L257.8398 209.7387 L257.9728 209.4828 L257.926 208.8598 L257.9452 208.4727 L258.2246 208.1801 L258.4724 208.1948 L258.8316 207.8891 L258.941 206.8843 L259.2982 206.3478 L259.5766 205.9304 L260.593 205.02 L260.8118 204.8238 L263.0402 202.5872 L264.3885 201.1492 L264.4652 201.0474 L265.1995 199.9309 L265.4489 199.4962 L265.4678 199.4631 L265.4254 199.2025 L265.284 199.0347 L264.8453 198.9151 L264.506 198.7032 L264.2912 198.2029 L264.2713 197.7283 L264.3915 197.0591 L264.4315 196.2499 L264.5147 195.5456 L264.7403 194.7474 L265.0055 194.15 L265.1584 193.4662 L265.1049 193.2354 L264.9355 193.0146 L264.4605 192.6721 L263.5751 192.1477 L262.5722 191.6044 L262.2645 191.2341 L262.2069 190.8806 L262.3106 190.4621 L262.7331 189.8962 L263.1135 189.3041 L264.3191 187.9746 L264.4703 187.8021 L265.0257 187.3484 L265.4099 187.2336 L265.5573 187.1895 L265.6135 187.1947 L266.0485 187.2362 L266.1939 187.2503 L266.6922 187.4281 L267.988 187.8897 L268.9067 188.3433 L269.0845 188.347 L269.2074 188.3491 L269.6632 188.3019 L270.625 187.1224 L271.2562 186.3016 L271.2933 186.2533 L271.3657 185.9313 L271.1098 185.6481 L270.7038 185.5873 L270.5546 185.5647 L269.6251 185.3203 L268.8175 185.1079 L267.2945 184.4104 L267.1393 184.3396 L265.1661 182.934 L264.6723 182.4709 L264.7116 182.1478 L264.75 181.8316 L264.8029 181.3983 L265.2075 180.4512 L265.7836 179.1027 L265.858 179.0272 L266.0404 178.8415 L266.5101 177.7784 L266.4912 177.6405 L266.4353 177.234 L266.1498 176.6497 L266.0549 175.8971 L266.4468 175.1203 L267.0282 174.5041 L268.5536 173.4871 L268.8114 173.0612 L268.83 172.8388 L268.4233 172.6857 L266.6592 171.9367 L266.4023 171.4101 L266.3953 170.2216 L266.4326 170.1697 L266.6673 169.8429 L269.5228 167.735 L271.4104 166.7683 L275.151 165.1041 L272.2383 165.6621 L270.2587 166.4756 L269.3716 166.9839 L268.8212 167.0662 L268.2223 167.3122 L266.9501 165.5987 L267.0554 164.3477 L267.386 163.7854 L267.3796 163.6349 L267.5678 163.476 L267.9698 162.792 L270.1251 161.6145 L271.3236 161.1938 L271.3236 160.0604 L271.2125 159.8317 L271.2438 159.3491 L271.9363 159.1194 L273.1785 158.2759 L273.2556 157.7116 L273.2041 157.2904 L271.6915 154.865 L271.3094 152.2392 L270.966 150.6178 L272.0174 149.6826 L275.3183 150.7233 L278.3883 149.6191 L276.8525 147.5493 L276.5589 147.1485 L276.5848 147.0536 L276.5118 146.6492 L276.6592 146.2086 L277.1474 145.6761 L277.379 145.1091 L276.3276 143.3954 L275.6072 143.2422 L275.2301 143.2664 L274.6534 143.2407 L274.068 142.9144 L273.6425 142.8236 L273.533 142.4811 L273.2553 142.0919 L273.1839 141.6812 L273.2065 141.5679 L272.9523 140.8566 L276.7585 141.3245 L281.4896 139.6742 L281.9626 137.7186 L280.1019 135.9315 L277.1265 134.428 L276.4118 134.9222 L275.6725 136.3611 L272.4961 136.797 L266.7188 137.5823 L264.947 137.4936 L264.5995 137.6158 L263.9501 137.3415 L263.1644 137.3168 L262.348 137.1012 L262.1601 136.8384 L262.2116 136.4225 L262.6655 135.6141 L262.7345 134.8907 L264.5006 132.3151 L265.0241 132.2301 L265.3065 132.1267 L266.1431 131.9898 L266.5491 131.8949 L267.3938 131.9059 L267.6601 131.9862 L268.8879 132.2395 L269.1286 132.4011 L269.6349 132.5574 L270.5866 132.8129 L271.3111 132.9697 L272.0494 133.2572 L272.3813 133.4182 L272.7746 133.5499 L273.6172 133.3406 L274.1326 133.2567 L274.6847 133.2813 L275.3331 133.5195 L275.7937 133.8028 L275.8486 133.9056 L279.0424 134.63 L281.2617 134.0661 L281.164 133.9533 L281.3559 133.5803 L282.0063 133.5011 L282.5288 133.4156 L282.8917 133.6706 L283.5597 133.8605 L283.8957 133.9239 L284.6249 134.1065 L286.2011 134.1395 L287.2629 133.8573 L288.118 133.6648 L288.6768 133.5546 L289.3667 133.4613 L291.1472 132.9509 L292.2447 132.901 L293.5291 132.9456 L297.981 132.9745 L301.7738 133.9764 L302.5299 134.1768 L302.9504 134.3735 L306.2001 135.4693 L306.5667 135.5349 L307.8848 135.8454 L308.2945 136.0511 L308.3645 136.1995 L308.8129 136.3506 L308.1834 138.2652 L310.8598 139.7497 L312.1391 137.683 L313.7214 134.3677 L307.8534 126.9607 L301.8475 120.0413 L297.7642 119.321 L296.6866 119.3226 L291.3809 117.0773 L290.179 115.9982 L288.9512 114.7701 L287.7988 112.5132 L285.725 111.6633 L279.2915 112.6758 L280.1332 111.3643 L274.3797 104.8537 L272.1376 96.003 L266.3539 91.6641 L263.0277 92.1993 L262.0177 93.9044 L259.6813 102.9598 L257.4661 104.7907 L258.1832 102.9808 L257.0049 98.2642 L259.1898 97.8865 L258.9407 93.8047 L258.8801 92.194 L263.9602 86.6851 L262.1558 85.5098 L261.7252 82.6755 L261.3101 82.389 L260.8553 81.8182 L260.6327 80.741 L260.5307 80.1124 L260.2961 79.9881 L259.9116 80.2961 L259.7015 81.113 L260.8596 86.2443 L259.8497 86.5591 L259.0918 86.6971 L258.9632 86.9059 L259.5433 87.6714 L259.0417 90.4312 L257.7826 91.2286 L256.0623 89.6756 L255.2105 85.2002 L253.0526 80.3207 L249.0965 80.7116 L248.9555 80.9089 L251.2649 89.6966 L251.2649 95.2265 L250.2752 95.683 L250.1503 95.8776 L249.6864 96.3356 L249.1174 96.854 L248.3926 97.0869 L247.5546 97.2669 L246.949 97.216 L245.8818 97.7081 L244.8934 95.642 L243.6531 93.0387 L240.5761 92.1101 L238.3697 83.8602 L238.2798 83.621 L238.2771 83.5145 L237.3375 80.0007 L237.3203 78.5531 L237.1813 77.851 L237.1382 77.1658 L237.2796 76.5257 L237.2957 76.4895 L237.2937 76.3279 L237.5018 76.0256 L237.7135 75.5912 L237.8455 75.1447 L238.5249 74.333 L238.9437 73.9311 L239.8186 72.6603 L240.4226 67.0963 L240.4118 66.7867 L240.4276 66.2242 L240.564 65.5368 L240.6057 65.4072 L240.6165 65.3091 L240.6481 65.2761 L240.8757 64.5714 L241.0646 64.2077 L241.5689 63.5193 L242.1772 62.8986 L243.3966 61.4236 L244.0117 60.8432 L244.4631 60.4481 L244.8298 60.0635 L245.6229 59.5466 L246.0195 59.3766 L246.3403 59.1788 L246.5632 58.7034 L246.8066 58.4117 L247.1914 58.2868 L247.3867 58.2674 L247.5483 58.0994 L247.6314 58.2275 L247.9206 58.1677 L248.3088 58.2233 L248.701 58.7475 L248.8895 59.1111 L249.2379 59.5587 L249.345 60.1002 L249.6369 60.4345 L250.0011 61.2494 L250.2263 61.8874 L250.2981 62.3303 L251.4568 64.1128 L256.1916 60.998 L256.1804 60.8338 L255.8266 60.5048 L255.4994 60.2849 L255.2796 59.925 L255.2328 59.6343 L255.2897 59.3399 L255.3768 59.1877 L257.4682 50.1234 L257.5015 49.7934 L257.4089 40.1373 L250.0866 39.1455 L251.8103 35.7293 L252.4432 32.9637 L250.558 27.6056 L255.1567 23.1973 L255.1264 19.5552 L255.4731 17.4612 L252.864 14.4697 L250.6051 8.8331 L248.4236 4.3352 L247.7267 0.6823 L246.4945 0.1312 L246.0468 0.0 L241.8621 0.3674 L240.6737 4.7603 L242.3334 6.7967 L241.9631 12.6538 L243.0674 13.9396 L237.7751 16.1124 L239.4853 12.4019 L238.1791 11.1371 L237.9872 9.6623 L233.1629 6.6655 L225.7094 9.8198 L225.2014 9.4954 L224.7425 10.1593 L224.0089 11.1623 L223.3881 11.0673 L222.9074 10.7492 L222.835 10.364 L222.7872 9.6885 L222.7593 8.8992 L221.4554 8.3466 L220.3182 7.8732 L219.796 7.3635 L218.6184 5.9806 L218.508 5.4117 L218.75 4.6874 L219.2358 4.1395 L217.7542 4.5871 L215.7915 13.0317 L208.7655 15.4616 L207.1428 19.4817 L206.1665 20.7045 L206.8263 21.2083 L203.3756 27.0756 L201.6822 34.1864 L202.1064 38.2849 L200.8187 37.8079 L198.6119 38.2219 L197.4033 35.2675 L195.0097 34.8739 L195.6931 33.3468 L193.3938 31.8721 L193.082 32.419 L192.773 33.1138 L192.4606 33.616 L192.266 33.8506 L191.3967 35.3756 L191.3206 35.5472 L191.1052 35.8872 L189.4751 38.7467 L185.3006 36.7053 L183.7452 43.7949 L181.594 48.5859 L180.1834 48.6646 L183.7991 37.1042 L183.3288 37.2081 L183.1443 37.1042 L182.0754 37.1042 L182.1784 36.56 L181.6653 36.2708 L180.9506 34.6047 L180.6877 34.2001 L178.3217 33.9555 L174.0832 29.2482 L173.1607 29.3951 L171.6885 28.3408 L170.7267 29.4775 L170.0756 30.5659 L169.1135 31.3143 L168.5061 32.4809 L167.9682 37.0947 L168.0049 37.218 L167.9991 37.6835 L167.9015 38.2025 L166.0701 40.1321 L165.759 41.5888 L165.6385 42.4878 L165.4012 43.1411 L165.08 43.6265 L164.5498 43.9377 L164.3794 44.0374 L163.8152 44.1439 L163.0429 44.6718 L162.3019 45.099 L161.6111 45.5996 L161.0391 45.98 L160.4695 46.2308 L160.2089 46.4743 L160.0402 46.7267 L160.0365 47.1429 L160.0598 47.6078 L160.3675 48.0927 L160.8829 48.5056 L161.5727 48.9375 L161.9726 49.2261 L162.176 49.6276 L162.2383 50.3995 L162.2339 50.5868 L162.1278 51.1084 L161.8865 51.6756 L161.8871 52.0986 L162.4608 52.9303 L163.2526 53.1806 L163.4792 53.3149 L164.407 53.6754 L165.0103 53.8648 L165.2928 53.9866 L165.3806 54.0774 L165.7173 54.3969 L165.7479 54.5843 L165.5806 54.8755 L165.1305 55.4238 L164.9433 55.6516 L164.7763 55.799 L164.6406 55.8452 L164.37 55.7938 L164.2966 55.756 L163.8256 55.5146 L162.8648 55.0891 L162.5238 55.0445 L162.2659 55.3352 L161.8999 55.8966 L162.0511 56.074 L162.1454 56.1983 L162.2265 56.2571 L163.7364 56.9298 L164.4993 57.3407 L164.8709 57.4855 L165.3564 57.7453 L165.7449 57.8775 L166.4939 58.2333 L166.8696 58.5455 L167.002 58.7664 L167.0663 58.8734 L167.0612 59.0817 L166.9552 59.3383 L166.8064 59.4742 L166.7892 59.49 L166.6996 59.6432 L166.4845 59.7261 L166.0512 59.7014 L165.8358 59.6364 L165.3981 59.3782 L165.1059 59.2901 L164.7814 59.055 L164.3949 58.8787 L163.9768 58.8031 L163.3489 58.7223 L163.0829 58.865 L163.0032 59.1872 L162.8884 59.3609 L162.8981 59.6243 L163.2634 60.0079 L163.2957 60.0425 L163.3684 60.0782 L163.7364 60.2582 L164.4016 60.3731 L164.7847 60.5011 L165.922 60.9324 L166.1192 60.9723 L166.3243 61.0589 L166.4108 61.1586 L166.4401 61.1838 L166.7091 61.3701 L166.6751 61.8649 L166.6071 62.3544 L166.396 62.8141 L166.1913 63.3446 L166.0233 63.6589 L165.7513 64.478 L164.9339 66.103 L164.6188 66.188 L164.1347 66.2006 L163.6758 66.1067 L163.5378 66.0783 L163.1143 66.6398 L162.8372 67.1635 L162.717 67.5365 L162.2295 68.3194 L161.9632 68.353 L161.6895 68.3404 L161.4609 68.2538 L161.0556 68.1956 L160.8422 68.025 L160.2527 67.8015 L159.8241 67.599 L159.3289 67.4269 L158.9084 67.3618 L158.7064 67.4379 L158.5505 67.7406 L158.4997 68.354 L158.5101 68.8562 L158.4485 69.8368 L158.4788 70.2776 L158.3923 70.7713 L158.4398 71.7955 L158.3627 72.1497 L158.3334 72.5564 L158.1671 72.7652 L157.8277 72.9352 L157.5786 72.9856 L157.3359 72.9583 L157.0369 72.8785 L156.7962 72.6597 L155.8122 71.338 L155.4371 70.8789 L155.2759 70.6816 L154.9369 70.1543 L153.9232 68.5272 L153.6175 67.7737 L153.3192 67.1619 L153.091 66.8224 L152.8085 66.3475 L152.1335 65.158 L151.9396 64.5829 L151.9423 64.0419 L152.0568 63.1058 L151.9437 62.632 L151.0273 60.9702 L150.901 60.5462 L150.7317 60.0913 L150.5247 59.8431 L150.2368 59.8326 L149.7766 60.286 L149.3285 60.6076 L149.0026 60.8905 L148.7458 60.9125 L148.2256 60.8023 L147.8647 60.4602 L147.0766 60.2734 L146.1906 59.9759 L144.5655 59.4323 L144.3699 59.2696 L144.2346 59.1568 L144.1481 58.9175 L144.6436 58.0952 L145.3008 56.7735 L145.6122 56.3206 L145.9603 55.8279 L145.2509 55.3819 L143.9552 55.3299 L142.5005 55.9019 L140.7839 56.5457 L137.4146 59.2801 L137.6671 60.6286 L139.6375 61.7662 L143.335 63.2937 L142.0568 65.3647 L141.7905 66.7059 L141.7346 67.5407 L141.681 67.876 L141.4955 68.2333 L141.0485 68.6888 L140.528 69.0083 L140.4257 69.1951 L140.2267 69.1416 L139.7975 69.3195 L139.3413 69.2938 L138.977 69.2172 L138.3808 68.758 L138.2404 68.608 L134.0992 67.4945 L132.6041 67.0653 L129.8988 66.4021 L129.7166 66.591 L130.1927 67.9222 L132.8819 69.4108 L133.7494 69.9045 L134.0507 72.9562 L133.8454 75.7874 L134.682 77.8626 L134.6436 78.5709 L134.4036 79.3139 L134.0962 79.773 L132.9674 80.7672 L131.5598 81.6539 L130.7333 82.0055 L129.0097 83.0087 L128.5427 83.2616 L126.913 84.3844 L127.0621 84.7102 L127.1681 84.6997 L127.5317 84.706 L127.6364 84.7606 L127.4856 84.8629 L127.4957 85.014 L127.4533 85.2795 L127.4008 85.451 L127.8556 86.4448 L128.4484 87.2611 L128.7592 87.8829 L131.1888 85.6966 L131.5117 85.7396 L131.6133 85.7118 L131.6837 85.7627 L132.0635 85.8131 L131.9561 86.5203 L131.9301 86.8005 L131.8914 86.8944 L131.8126 87.3514 L130.2708 91.2444 L131.0138 92.4894 L130.9845 93.5744 L130.6737 94.4327 L130.4307 96.3865 L130.1624 96.6069 L129.991 97.1425 L129.3305 97.3897 L128.5175 98.9232 L127.9765 100.1047 L127.6479 100.5784 L127.3085 101.42 L127.2328 101.4719 L127.0005 102.0128 L127.8973 102.6188 L129.079 103.7729 L129.6203 104.2908 L129.7055 104.3154 L129.8499 104.3826 L129.9695 104.6244 L130.0129 104.6659 L130.063 104.8133 L130.298 105.2891 L130.6606 105.5263 L130.4223 105.8741 L129.8674 106.6836 L127.2274 108.4264 L124.6735 109.9053 L124.1992 110.2741 L123.0929 110.8208 L120.0199 112.6003 L119.7917 112.7981 L119.719 112.8484 L119.6126 112.9853 L119.3995 113.1396 L118.6565 113.5813 L118.4073 113.6563 L118.3141 113.6715 L117.9492 113.809 L118.3164 114.4202 L118.6228 114.6909 L118.9127 114.6867 L119.6425 114.2801 L120.5236 113.9543 L121.1521 113.66 L121.9335 113.3935 L122.1149 113.4717 L122.6738 113.2293 L124.4153 112.4891 L124.8062 112.456 L125.0681 112.3018 L125.8387 112.147 L126.6123 112.3033 L127.8064 112.2021 L128.672 112.1197 L130.2236 111.6943 L130.2196 111.5678 L131.0053 111.3291 L131.4443 111.1571 L132.014 111.0254 L132.5085 110.8727 L132.9913 110.7935 L133.1694 110.8874 L133.3815 110.8292 L133.4134 111.0159 L133.772 112.6024 L131.8032 113.1532 L130.7441 113.7041 L129.3281 113.8457 L128.3316 114.2869 L128.1549 114.9101 L128.2158 114.9794 L130.4404 114.3063 L131.5501 114.5697 L129.6008 117.6911 L130.4391 121.6466 L130.1519 121.7017 L130.121 121.8013 L130.1513 121.9876 L129.6604 122.4125 L128.9797 122.4476 L128.3841 122.5069 L127.8162 122.3564 L127.2412 122.2577 L127.049 122.2945 L126.6864 122.1932 L126.1205 122.1276 L125.7205 121.9828 L125.5054 121.8638 L124.1069 121.4735 L123.9783 121.4698 L123.676 121.3533 L122.995 121.0916 L121.9971 120.7076 L121.6116 120.4001 L120.708 120.0607 L119.418 120.1861 L118.7117 121.6114 L117.5485 123.9385 L115.6986 123.2644 L112.5802 121.8947 L111.1026 121.7688 L110.3478 122.6806 L111.9382 124.7663 L112.9895 125.6025 L113.0885 126.8904 L112.5418 127.8262 L111.6732 129.0774 L111.6183 130.0237 L111.9617 130.6076 L112.129 129.7614 L112.4637 129.0223 L113.1579 128.5066 L113.7874 128.5974 L114.0611 129.7494 L113.8032 129.8947 L113.0373 130.4492 L113.1821 131.3383 L113.7884 132.2652 L113.983 132.9939 L113.1306 134.0462 L112.5142 134.4511 L111.9459 134.6101 L111.4019 135.442 L110.7881 136.1701 L109.0557 137.2581 L107.8549 137.385 L107.0068 137.4522 L107.0775 139.723 L107.6751 143.119 L107.6438 147.521 L108.0208 152.0808 L109.4674 154.7532 L109.7819 158.2749 L109.7502 162.1112 L109.216 165.8845 L107.4236 168.0224 L104.6879 171.953 L104.0941 175.028 M107.7811 145.6525 L107.8081 145.1831 L107.8108 144.252 L108.2097 143.8502 L108.3141 143.7038 L109.216 142.9097 L109.2705 141.6597 L109.2486 140.5775 L109.1133 139.7466 L108.9089 138.6681 L109.6634 137.7433 L110.9837 138.2506 L111.1575 137.576 L110.2256 137.2371 L112.0378 135.6996 L111.9914 135.8832 L113.1185 136.6339 L112.9256 137.054 L112.4381 137.3661 L112.1856 137.8729 L111.6183 138.6539 L111.8867 139.6564 L111.5291 140.5035 L111.4591 141.3271 L110.9982 141.6612 L110.4313 142.297 L108.8103 144.2174 L108.641 144.9171 L107.7811 145.6525 M109.963 155.4199 L110.033 155.1236 L110.1872 154.9085 L110.4373 154.7018 L110.5646 154.4669 L110.4464 154.1778 L110.4239 154.0394 L111.0002 152.6394 L111.2012 152.2743 L111.2861 152.0708 L111.4325 151.9517 L111.9833 151.2683 L112.5226 150.6577 L112.5818 150.1494 L112.323 149.4324 L112.2058 148.8585 L112.1762 148.5307 L112.2576 148.3041 L112.2735 148.1116 L112.2432 147.9264 L112.1287 147.8032 L111.8836 147.6059 L111.7836 147.5745 L111.6917 147.5897 L111.5608 147.6589 L111.2547 147.3767 L111.247 147.3306 L111.1783 147.1994 L111.1639 146.9644 L111.1073 146.6177 L111.3228 145.9164 L111.2847 145.7795 L111.1389 145.6604 L111.1322 145.3284 L111.2251 145.0278 L111.2824 144.701 L111.314 144.3149 L111.2611 143.9902 L111.0292 143.6315 L110.9329 143.2344 L110.9235 142.8871 L111.3453 142.1832 L111.4604 142.1165 L111.6476 142.1019 L111.8419 142.2288 L111.9048 142.5199 L112.1701 142.8892 L112.6478 143.2076 L113.0229 143.6697 L113.241 144.5227 L113.3319 144.9837 L113.3255 145.4291 L113.2993 145.6557 L113.0966 145.8634 L112.8737 145.9479 L112.7303 145.9395 L112.4364 145.7811 L112.3085 145.7706 L112.1264 145.9117 L112.1082 145.9935 L112.0307 146.197 L112.3566 147.3148 L112.4408 147.3956 L112.4906 147.4113 L112.737 147.1811 L112.9636 147.1202 L113.2249 147.1249 L113.4703 147.1795 L113.6235 147.2492 L113.7076 147.3306 L113.7302 147.4696 L113.9857 148.0209 L113.9854 148.163 L113.7931 148.2899 L113.5662 148.3508 L113.1939 148.388 L113.0979 148.3796 L113.033 148.2716 L112.9565 148.237 L112.8751 148.4641 L112.9582 148.8297 L113.1457 149.1077 L113.3296 149.2199 L113.4945 149.2168 L113.6793 149.0442 L113.9716 148.9488 L114.1789 148.9147 L114.2517 148.9267 L114.3624 149.1696 L114.3106 149.724 L114.4439 150.1054 L114.589 150.2716 L114.4304 150.8565 L114.3038 150.846 L114.1924 150.7401 L113.7416 150.0068 L113.4706 149.5053 L113.3902 149.4476 L113.3248 149.4817 L113.3245 149.6244 L113.4265 150.1059 L113.4225 150.2255 L113.3801 150.2559 L113.2383 150.1132 L113.139 149.9396 L112.9633 149.7309 L112.8902 149.7193 L112.8441 149.7267 L112.8555 149.7959 L112.9357 149.9968 L113.1417 150.3902 L113.168 150.5518 L113.2403 150.706 L113.1976 150.8791 L113.0814 151.1828 L113.0542 151.306 L112.9044 151.402 L112.6815 151.4859 L112.6236 151.5667 L112.5771 151.7167 L112.596 151.8321 L112.5835 152.0477 L112.3058 152.5203 L112.3206 152.7553 L112.362 153.0097 L112.2617 153.1209 L112.0775 153.1513 L111.8708 152.9001 L111.5759 152.6877 L111.48 152.6798 L111.4066 152.8104 L111.142 153.9455 L111.2706 154.5885 L111.2312 154.9274 L111.1615 155.0811 L110.6235 155.2641 L111.1578 157.5264 L110.9194 157.6602 L110.7552 157.3785 L110.676 156.8933 L110.5272 156.704 L110.4542 156.6924 L110.3276 156.6421 L110.1286 156.437 L109.963 155.4199 M111.9775 141.4409 L112.0799 141.3969 L112.229 141.3864 L112.3687 141.4047 L112.5778 141.3428 L112.7626 141.2159 L112.9188 140.9148 L113.1091 140.4018 L113.1057 139.9617 L113.007 139.5231 L112.9161 139.3868 L112.7347 139.1958 L112.6175 138.9813 L112.5687 138.8512 L112.5896 138.559 L112.7078 138.3602 L113.0818 138.1336 L113.2777 137.9091 L113.372 137.5629 L113.5013 137.4317 L113.6393 137.3536 L113.9025 137.374 L114.0715 137.3189 L114.4348 136.9423 L114.8422 136.2834 L114.865 136.0867 L115.3293 135.2396 L115.5192 134.8089 L115.6845 134.5618 L115.8602 134.3814 L116.045 134.2544 L116.1544 134.085 L116.3086 133.7708 L116.4419 133.6664 L116.6379 133.6066 L116.6891 133.5017 L116.7123 133.2226 L116.8678 132.8333 L117.0193 132.6707 L117.089 132.3423 L117.2452 132.1241 L117.3634 132.0082 L117.428 131.8188 L117.6263 131.6074 L117.8825 131.4138 L117.9094 131.3268 L118.1808 131.2271 L118.2208 131.1379 L118.2188 131.0419 L118.1107 130.798 L118.3414 130.3983 L118.5996 131.1064 L119.113 131.3902 L119.8341 130.7329 L120.5535 133.1465 L120.2576 134.8278 L120.4882 135.4672 L120.7023 136.0615 L121.375 136.6092 L121.4534 136.6732 L121.4615 136.4183 L121.5369 134.01 L121.5716 132.8979 L121.4817 132.5758 L121.3753 132.1955 L121.5877 131.9972 L123.6484 132.1493 L123.8625 131.9946 L124.522 131.5167 L124.253 130.2341 L124.1578 129.7798 L122.7859 127.7701 L122.8138 127.7549 L122.9761 127.7418 L123.1451 127.7969 L123.3404 127.9028 L123.5084 128.1782 L123.9413 128.3136 L124.1679 128.3592 L124.2611 128.4269 L124.3651 128.5612 L124.3826 128.6687 L124.4268 128.7715 L124.5335 128.7542 L124.6691 128.663 L124.8607 128.494 L124.8742 128.4327 L124.9237 128.2081 L124.9795 128.13 L125.1549 128.1153 L125.332 128.3613 L125.3596 128.4101 L125.6017 128.8408 L125.9161 129.2573 L126.1279 129.3811 L126.1733 129.3885 L126.2965 129.4084 L126.3878 129.4624 L126.4097 129.5967 L126.3602 129.7976 L126.1487 130.1984 L126.0585 130.3841 L126.038 130.5939 L126.1151 130.8982 L126.2814 131.3257 L126.616 132.0418 L126.7302 132.5742 L126.7231 132.7819 L126.6403 133.0295 L126.4437 133.3359 L126.4541 133.4854 L126.4006 133.6595 L126.4066 133.8647 L126.579 134.0845 L126.714 134.3237 L126.9604 134.4071 L127.0739 134.3473 L127.1429 134.267 L127.2749 133.9843 L127.4018 133.9218 L127.6082 133.9297 L128.0849 134.3331 L128.4431 134.8524 L128.7558 135.0906 L129.0608 135.2731 L129.2739 135.4273 L129.4534 135.6047 L129.7816 135.7709 L129.9092 135.8129 L130.4717 135.9745 L130.8007 135.976 L131.9103 135.4772 L132.7277 135.4536 L132.9075 135.548 L133.198 135.6519 L133.4848 135.6466 L133.6929 135.8328 L133.8676 136.1481 L134.0514 137.192 L134.1086 137.2932 L134.0608 137.7554 L133.9066 138.4898 L133.9211 138.9141 L133.8195 139.5504 L133.6912 140.1085 L133.6811 140.5507 L133.7575 141.0202 L133.6929 141.967 L133.6191 142.1029 L133.6033 142.2571 L133.6141 142.8294 L133.5575 143.3209 L133.4946 143.6068 L133.4757 143.9955 L133.6424 144.6837 L133.4192 145.0787 L133.3946 145.1789 L133.5266 145.6531 L133.6195 145.8031 L133.7215 145.8414 L133.8481 145.8618 L134.1861 145.7517 L134.382 145.5266 L134.4907 145.5224 L134.6328 145.5544 L134.8796 145.5555 L134.9994 145.5356 L135.0243 145.4354 L134.987 145.2901 L134.9718 145.1133 L134.9789 144.9885 L135.0213 144.83 L134.9691 144.508 L134.9833 144.2693 L135.1573 143.9934 L135.2287 143.8439 L135.2445 143.6897 L135.2186 143.4463 L135.1237 143.2003 L135.1176 143.077 L135.2297 142.6736 L135.2991 142.5105 L135.2617 142.2828 L135.2068 142.1129 L135.1556 141.2951 L135.1274 141.1204 L135.0533 140.9179 L134.9924 140.46 L134.9132 140.1426 L134.8513 140.0146 L134.7941 139.8316 L134.6759 139.19 L134.5901 138.9152 L134.6352 138.6875 L134.6628 138.3523 L134.6422 137.8052 L134.6517 137.6106 L134.8301 137.2785 L134.8527 137.1647 L134.8351 137.0577 L134.883 136.5956 L134.8681 136.4188 L134.8927 136.3186 L134.9597 136.2247 L135.0351 136.1848 L135.1637 136.2189 L135.2193 136.306 L135.2321 136.4691 L135.259 136.5557 L135.3455 136.583 L135.4256 136.5699 L135.5142 136.6102 L135.5896 136.7356 L135.6071 136.8426 L135.5889 136.9837 L135.5239 137.1731 L135.5034 137.3 L135.5388 137.4322 L135.667 137.631 L135.8576 137.7103 L136.1266 137.6798 L136.2777 137.6001 L136.3713 137.502 L136.4558 137.5156 L136.5201 137.5739 L136.8019 137.6242 L136.9063 137.6762 L136.946 137.7522 L137.0702 137.8419 L137.2698 137.8918 L137.4917 137.993 L137.4739 138.0507 L137.4001 138.1866 L137.322 138.2957 L137.2884 138.4252 L137.3163 138.6823 L137.3692 138.8386 L137.3756 138.9613 L137.355 139.1712 L137.1655 139.4361 L136.8517 140.3682 L136.6901 140.6352 L136.5252 140.7994 L136.3891 140.9735 L136.206 141.3612 L136.1276 141.6361 L136.0788 142.3463 L136.1111 142.7124 L136.1128 142.9742 L136.0633 143.1746 L136.0825 143.461 L136.1552 143.6556 L136.3252 143.7752 L136.3582 143.8937 L136.3491 144.0049 L136.3087 144.177 L136.3262 144.2845 L136.4124 144.3941 L136.5194 144.39 L136.4588 144.6989 L136.3804 144.6349 L136.1983 144.6097 L136.0693 144.6585 L135.9316 144.6533 L135.8384 144.6685 L135.7384 144.7262 L135.7091 144.7996 L135.6754 144.9292 L135.4219 145.0535 L135.3196 145.1804 L135.2812 145.3656 L135.298 145.6384 L135.2196 145.9956 L135.187 146.4687 L135.1237 146.6445 L135.0082 146.8065 L134.7109 146.9188 L134.3524 146.9455 L134.0174 146.8259 L133.803 146.6707 L133.774 146.4137 L133.4326 146.0842 L133.2088 145.8041 L132.7674 145.5324 L132.663 145.5634 L132.5913 145.7123 L132.4553 145.8865 L132.419 146.1676 L132.354 146.357 L132.1133 146.5621 L131.6127 146.9183 L131.3491 146.9455 L131.1316 146.87 L130.9552 146.7562 L130.798 146.5569 L130.8054 146.2668 L131.004 145.8902 L131.2383 145.6452 L131.4336 145.544 L131.852 145.2549 L132.2924 145.1002 L132.5062 144.8998 L132.6849 144.4849 L132.7792 144.2216 L132.7442 144.0065 L132.4789 143.5543 L132.1328 143.2805 L131.6443 143.1399 L131.3555 143.215 L131.0969 143.4778 L130.9407 143.696 L130.8734 143.9551 L130.9303 144.3039 L131.0094 144.6213 L130.898 144.7776 L130.7956 144.8217 L130.6047 144.6601 L130.397 144.4073 L130.3657 144.369 L130.3263 144.1272 L130.0388 143.7059 L129.894 142.9857 L129.89 142.7937 L130.1573 142.5844 L130.1886 142.4418 L130.1452 142.1732 L130.1152 141.6549 L130.1354 140.77 L130.1661 140.5413 L130.2095 140.215 L130.2011 139.9958 L130.1351 139.7587 L130.0375 139.6642 L129.9476 139.6611 L129.8998 139.6595 L129.7001 139.6097 L129.3362 139.3936 L129.1635 139.1738 L129.081 138.4987 L129.0423 137.9264 L128.8662 136.8227 L128.8588 136.7996 L128.9262 136.5405 L128.9043 136.4062 L128.8336 136.3076 L128.6407 136.1895 L128.6205 136.1775 L128.2916 136.1759 L128.002 136.4162 L127.9485 136.5903 L128.0936 137.1453 L128.2209 137.758 L128.2552 138.1383 L128.3912 138.8045 L128.3983 138.9188 L128.4084 139.0773 L128.3141 139.3406 L128.406 139.904 L128.5599 140.5125 L128.7272 141.036 L128.8151 141.4073 L129.1117 141.8826 L129.1106 142.2131 L129.0521 142.5257 L129.0659 142.6107 L129.074 142.66 L129.1268 142.8163 L129.1978 142.9149 L129.2551 143.0985 L129.2366 143.322 L129.0891 143.5942 L128.9026 143.6246 L128.6939 143.5213 L128.468 143.3104 L128.34 142.863 L128.1542 142.5624 L127.9559 142.0164 L127.8364 141.7882 L127.6947 141.5909 L127.6381 141.2421 L127.523 141.0407 L127.2483 140.6997 L126.9608 140.2785 L126.5588 139.3249 L126.2137 138.7206 L126.0063 138.2862 L125.94 138.0491 L125.941 137.7181 L126.0582 137.0928 L126.0414 136.8201 L125.7855 136.0904 L125.7104 135.965 L125.7118 135.4693 L125.663 135.3392 L125.7131 134.9731 L125.6599 134.8162 L125.5714 134.7758 L125.4778 134.8739 L125.2768 135.154 L125.0758 135.6005 L125.1236 135.8958 L125.1364 136.1418 L125.0735 136.4272 L125.1172 136.6957 L125.1967 136.8479 L125.3701 136.9024 L125.4233 136.8935 L125.4317 137.1128 L125.3731 137.4254 L125.3499 137.7874 L125.4902 138.4803 L125.3074 138.7033 L125.2176 138.9933 L125.2482 139.1811 L125.2647 139.6197 L125.2953 139.8074 L125.2502 140.0351 L125.3115 140.4107 L125.4347 140.8314 L125.5498 141.0328 L125.6828 141.1765 L125.6912 141.3953 L125.5616 141.6093 L125.4327 141.6581 L125.064 141.581 L124.8779 141.4462 L124.6826 141.2573 L124.6351 141.1304 L124.5372 140.8681 L124.3736 140.5366 L124.2628 140.3619 L124.3971 140.0094 L124.3665 139.8216 L124.1938 139.6018 L124.1238 139.5766 L123.9144 139.6485 L123.8066 139.8269 L123.7797 140.0834 L123.8127 140.2848 L123.7491 140.4558 L123.7225 140.7123 L123.2966 140.759 L123.1296 140.8555 L123.1104 140.8854 L122.966 141.1115 L122.9098 141.3271 L123.0461 141.603 L123.238 141.8013 L123.3121 141.8349 L123.4713 141.8317 L123.9006 141.945 L124.1446 142.0426 L124.4372 142.0174 L124.6335 141.9623 L124.726 141.9702 L124.7557 142.0111 L124.7813 142.168 L124.7735 142.2608 L124.7361 142.3127 L124.6843 142.4129 L124.6951 142.4801 L124.8243 142.5734 L125.0095 142.5892 L125.1539 142.6343 L125.2681 142.7759 L125.334 143.0408 L125.3337 143.1782 L125.3519 143.29 L125.4404 143.4132 L125.6475 143.5627 L125.8835 143.8911 L125.8865 144.0511 L125.6939 144.1287 L125.4384 144.1014 L125.1721 144.0076 L124.5621 143.6257 L124.1743 143.345 L123.8558 143.3513 L123.6673 143.3136 L123.5639 143.1011 L123.5939 143.0046 L123.6056 142.7964 L123.5875 142.6846 L123.4616 142.6133 L123.3134 142.6836 L123.239 142.7874 L123.1757 142.9585 L123.1124 142.9915 L123.0316 142.981 L122.86 143.2024 L122.7872 143.3047 L122.4516 143.2428 L122.0671 143.1583 L121.8412 142.9008 L121.6517 142.7103 L121.5992 142.6663 L121.3881 142.6317 L121.277 142.65 L121.0407 142.4596 L120.8188 142.3578 L120.6151 142.3683 L120.4448 142.3043 L120.1893 142.2776 L120.0411 142.3479 L119.93 142.3662 L119.586 142.2157 L119.5516 142.2068 L119.3715 142.1596 L119.356 142.1643 L119.1971 142.211 L118.9483 142.5037 L118.7548 142.8567 L118.6514 142.7817 L118.5373 142.5026 L118.445 142.3568 L118.405 142.1113 L118.4245 141.8097 L118.3952 141.6308 L118.4366 141.4635 L118.5258 141.3114 L118.5306 140.9206 L118.4865 140.7905 L118.5386 140.6898 L118.6016 140.6567 L118.7016 140.7092 L118.8453 140.8922 L118.9228 141.0858 L118.9261 141.2458 L118.9699 141.3764 L119.1362 141.5558 L119.3469 141.5899 L119.4321 141.6906 L119.4315 141.828 L119.5062 141.8516 L119.5277 141.8585 L119.6873 141.7174 L119.8102 141.4908 L119.6341 140.9693 L119.4678 140.7899 L119.2645 140.663 L119.25 140.5733 L119.3092 140.5177 L119.8947 140.4679 L120.0869 140.5282 L120.1273 140.6363 L120.1162 140.7065 L120.1155 140.8445 L120.1337 140.9562 L120.1815 141.1089 L120.2738 141.2547 L120.2472 141.5112 L120.158 141.6633 L120.0943 141.8343 L120.1458 142.0095 L120.2492 142.0845 L120.401 142.0363 L120.5606 141.8957 L120.6057 141.7504 L120.5949 141.5458 L120.4407 141.1582 L120.3448 140.9903 L120.3266 140.8786 L120.3606 140.6667 L120.361 140.5292 L120.3206 140.4212 L120.0873 140.3902 L119.9654 140.3414 L119.6839 140.2958 L119.4506 140.2654 L119.247 140.2759 L119.1551 140.1301 L119.2332 139.9108 L119.2264 139.7288 L119.3456 139.4796 L119.4793 139.3201 L119.5904 139.3018 L119.7126 139.3506 L119.8378 139.5593 L120.0448 139.7094 L120.0926 139.862 L120.3697 140.023 L120.5545 140.1762 L120.9131 140.4154 L121.0609 140.4831 L121.2831 140.4469 L121.4945 140.3435 L121.552 140.2213 L121.6473 140.0199 L121.6773 139.9234 L121.7049 139.9008 L121.818 139.8085 L121.8853 139.66 L121.9634 139.4408 L121.9604 139.2808 L122.0533 139.1507 L122.1372 139.0998 L122.157 139.0878 L122.3533 139.1701 L122.4045 139.3453 L122.5078 139.4203 L122.6563 139.35 L122.8596 139.4775 L123.0774 139.6941 L123.2852 139.5683 L123.4303 139.338 L123.3488 139.2047 L122.8468 138.8664 L122.6122 138.602 L122.4263 138.302 L122.2001 138.0911 L121.9072 137.9736 L121.1353 137.4385 L120.9356 137.3887 L120.6916 137.2361 L120.43 136.9759 L120.2573 136.7561 L120.1031 136.3128 L119.9762 136.1901 L119.9078 136.1245 L119.9085 135.9593 L119.7934 135.7578 L118.7982 135.1499 L118.7814 134.8084 L118.74 134.1668 L118.7746 134.0824 L118.8965 133.7833 L118.9106 133.5331 L118.8309 133.3805 L118.8096 133.0809 L118.8588 132.88 L118.8059 132.7237 L118.7036 132.7678 L118.267 133.2803 L118.1505 133.5746 L118.1495 133.9056 L118.1602 133.9711 L118.2195 134.3347 L118.0289 134.8272 L117.7731 135.2752 L117.7674 135.5936 L117.5122 136.2142 L117.2597 137.6882 L117.0701 137.9175 L117.0308 137.9652 L116.857 138.0764 L116.6655 138.2453 L116.5628 138.4551 L116.5625 138.6204 L116.8412 138.9881 L117.0476 139.4135 L117.1772 139.7046 L117.3189 139.9013 L117.5364 140.0587 L117.6556 140.2874 L117.7034 140.748 L117.7152 141.3245 L117.4607 141.7793 L117.0456 142.426 L116.6884 143.0906 L116.5766 143.2464 L116.4793 143.1525 L116.4443 142.9375 L116.5204 142.7324 L116.5386 142.5089 L116.6507 142.1874 L116.6827 141.8794 L116.6035 141.5616 L116.9341 140.8088 L117.1156 140.396 L117.018 140.3766 L116.5786 140.2879 L116.0918 141.7835 L116.0242 142.2078 L115.6282 142.8189 L115.4323 144.123 L115.198 145.3735 L114.9701 145.8241 L114.7691 146.1047 L114.5597 146.3318 L114.4617 146.4032 L114.2476 146.7688 L114.1843 146.923 L114.0793 146.956 L113.9665 146.9429 L113.5521 146.8202 L113.4629 146.7557 L113.3854 146.677 L113.7514 146.0659 L113.983 145.8078 L114.0416 145.4952 L113.9281 144.7975 L113.8221 144.4844 L113.1407 143.494 L113.1188 143.3603 L113.1191 143.1945 L113.073 143.0382 L112.9357 142.9506 L112.7852 142.7822 L112.7189 142.628 L112.6259 142.478 L112.5064 142.3321 L112.4576 142.2026 L112.4024 142.115 L112.3028 142.0074 L112.1944 141.8464 L112.0459 141.6917 L111.9974 141.5616 L111.9775 141.4409 M114.0466 151.8793 L114.2739 151.6758 L114.5509 151.488 L114.624 151.3574 L114.6051 151.242 L114.5749 151.1996 L114.5476 151.1817 L114.6923 150.2423 L114.789 150.1914 L114.8354 150.0414 L114.8704 149.9643 L114.9701 149.1916 L115.1418 149.1061 L115.3448 149.0631 L115.6003 149.1407 L115.8673 149.1129 L116.481 149.2493 L117.155 149.756 L117.2738 149.7602 L117.4122 149.7377 L117.4846 149.6941 L118.8773 149.8017 L118.8975 149.8504 L118.9706 149.862 L119.082 149.82 L119.1359 149.7162 L119.1019 149.5084 L118.5632 148.6708 L118.5026 148.4436 L118.5225 148.2742 L118.6147 148.2076 L118.8187 148.0597 L118.8888 147.7633 L118.6975 147.4622 L118.5713 147.4119 L118.3185 147.1685 L118.2882 147.126 L118.2905 146.5144 L118.2989 146.4577 L118.3575 146.2274 L118.578 146.0675 L118.5932 145.321 L118.7029 145.0687 L118.6642 144.4964 L118.7225 144.349 L118.7989 144.0611 L118.8642 143.7059 L118.9608 143.3734 L119.0231 143.3356 L119.112 143.376 L119.2153 143.676 L119.3288 144.4566 L119.3685 144.6155 L119.4904 144.7744 L119.6058 145.4065 L119.7863 145.9652 L120.0246 146.6041 L120.0458 147.17 L120.1297 147.394 L120.2754 147.4176 L120.2886 147.4082 L120.2896 147.4071 L120.3603 147.3563 L120.3606 147.2136 L120.3916 147.1134 L120.4892 146.5516 L120.4875 146.3565 L120.4195 146.1057 L120.3939 145.6966 L120.4017 145.2408 L120.4333 145.0981 L120.4848 144.9932 L120.6784 144.8374 L120.7299 144.7325 L120.8175 144.4288 L120.9154 144.2751 L121.0178 144.2305 L121.0932 144.2735 L121.2238 144.4865 L121.2191 144.6249 L121.0875 144.8253 L120.8794 145.3142 L120.9144 145.4464 L121.0033 145.5697 L121.0851 145.6525 L121.1962 145.662 L121.3726 145.3987 L121.3595 145.2355 L121.3177 145.0635 L121.4144 144.7304 L121.4238 144.5363 L121.5554 144.3354 L121.6601 144.2321 L121.7157 143.921 L122.9367 144.3128 L122.9475 144.4671 L123.305 144.903 L123.438 145.1296 L123.7484 145.2712 L123.8952 145.2471 L124.0403 145.1269 L124.1315 145.0157 L124.1611 144.7765 L124.1934 144.7629 L124.2123 144.7545 L124.3789 144.7687 L124.4877 144.8474 L124.6314 145.0121 L124.656 145.0399 L125.1526 145.4821 L125.6407 145.705 L125.9686 145.7512 L126.2578 145.6761 L126.3689 145.6856 L126.4844 145.7218 L126.7483 145.9122 L126.8948 145.9709 L126.9951 145.9132 L127.1951 145.8807 L127.4597 145.9059 L128.3512 146.0507 L128.6154 146.1587 L128.7006 146.2904 L128.7814 146.475 L128.8154 146.6833 L128.7151 146.7945 L128.6437 146.7971 L128.4346 146.8165 L128.2387 146.9198 L128.2061 146.9455 L127.7492 147.3017 L126.4847 148.5874 L125.265 150.1599 L124.861 150.44 L124.6335 150.7857 L124.4022 151.4277 L124.5143 151.5043 L124.1268 152.2224 L123.9834 152.6184 L123.9056 152.7086 L123.6905 152.8387 L123.5013 153.4472 L123.4575 153.5888 L123.4723 153.8238 L123.3602 154.0084 L123.2606 153.9769 L123.1801 153.9192 L123.1592 153.8935 L123.0616 153.7724 L122.9889 153.7603 L122.8616 153.8526 L122.8337 154.2607 L122.7721 154.3179 L122.5492 154.4023 L122.2264 154.4548 L122.1765 154.4396 L122.0234 154.3698 L121.5453 153.7598 L121.4113 153.6628 L121.3652 153.6706 L121.277 153.7089 L121.2443 154.2361 L121.1854 154.7443 L121.0848 154.9982 L120.977 155.0632 L120.8158 155.0895 L119.7247 155.3633 L119.5254 155.3009 L119.2012 154.6184 L119.0022 154.4139 L118.1858 154.0488 L118.0973 154.0871 L118.1044 154.2759 L118.1424 154.3646 L118.0885 154.4684 L117.8811 154.5025 L117.559 154.4128 L117.4667 154.428 L117.3206 154.5466 L117.186 154.5927 L117.0476 154.6153 L117.0092 154.6688 L116.9742 154.7459 L116.9705 156.0278 L116.9163 156.1317 L116.8702 156.1396 L116.4941 156.1537 L116.1948 156.0604 L116.1107 155.9791 L115.74 155.4467 L115.5636 155.3806 L115.4946 155.3916 L115.1724 152.919 L114.0466 151.8793 M124.3547 158.2807 L124.4059 157.8689 L125.0115 156.9389 L125.2613 156.8744 L125.6189 156.7449 L126.0107 156.5382 L126.5803 156.1128 L127.116 155.4792 L127.9196 155.0386 L127.897 154.9001 L127.8664 154.8576 L127.7974 154.8692 L127.6206 154.9452 L126.6517 155.389 L126.171 155.6339 L126.0249 155.7525 L125.8478 155.9717 L125.7781 156.1254 L125.701 156.2329 L125.5545 156.352 L125.2785 156.2544 L125.0374 156.0808 L125.0034 155.8726 L125.0997 155.7383 L125.1115 155.6649 L125.1118 155.5227 L125.0815 155.4802 L124.6601 155.2169 L124.6025 155.155 L124.5419 154.9274 L124.55 154.8314 L124.6193 154.6777 L124.9795 154.1574 L125.194 153.8479 L125.4653 153.5683 L125.9414 153.0512 L126.0407 152.7873 L126.104 152.5906 L126.378 152.1112 L126.5591 151.9155 L126.6015 151.8846 L126.6972 151.893 L126.8699 151.9355 L126.9274 151.9974 L126.986 152.0871 L127.0533 152.1904 L127.3449 152.2376 L127.4604 152.2187 L127.5529 152.0614 L127.5839 151.9612 L127.9505 151.3076 L128.3316 151.0317 L128.4966 151.0286 L128.6612 151.1676 L128.94 151.573 L129.0238 151.7965 L129.0615 152.0278 L129.0568 152.2895 L128.8147 152.4002 L128.7838 152.5004 L128.8063 152.6389 L128.9477 152.7821 L129.0437 152.7899 L129.3089 152.6756 L129.4816 152.7181 L129.5503 152.8492 L129.5729 152.9882 L129.5375 153.2075 L129.6867 153.3968 L130.0351 153.6481 L130.0381 153.956 L130.0031 154.0331 L129.8186 154.2056 L129.7072 154.2476 L129.2884 154.2927 L129.082 154.0415 L129.0322 154.0257 L128.8093 154.1102 L128.6861 154.225 L128.5585 154.4595 L128.5727 154.8372 L128.7902 155.2998 L128.9548 155.4388 L129.1625 155.2626 L129.4466 155.2636 L129.482 155.2893 L129.5806 155.3601 L129.7688 155.3528 L129.9573 155.2033 L130.0731 155.0423 L130.3458 154.9736 L131.0292 154.9568 L131.4087 155.1084 L131.6231 155.2631 L131.9497 155.2332 L132.1264 155.1566 L132.116 154.8026 L132.1318 154.6101 L132.2166 154.5487 L132.5506 154.5649 L132.654 154.6195 L132.7913 154.8818 L132.7401 155.2935 L132.4661 155.7892 L132.2887 156.0084 L132.292 156.1737 L132.4334 156.3169 L132.4833 156.3321 L132.6024 156.3368 L132.7065 156.2481 L132.857 156.01 L133.5851 155.1078 L133.904 155.0318 L134.8833 154.9426 L134.9749 155.0701 L134.7826 155.1965 L133.879 155.6056 L133.7902 155.786 L133.7935 155.9518 L133.87 156.1291 L133.939 156.1175 L134.0272 156.0793 L134.2736 155.8495 L134.3813 155.7839 L134.513 155.7509 L134.654 155.7158 L134.85 155.7551 L134.992 155.7556 L135.1301 155.7325 L135.2109 155.6481 L135.2226 155.5752 L135.3539 155.3638 L135.7795 155.0764 L136.3329 155.1493 L136.9349 154.7055 L136.9042 154.2791 L136.9278 154.1333 L137.2274 154.084 L137.3503 154.1112 L137.5304 154.2004 L137.6375 154.278 L138.8296 153.6082 L138.9723 153.4661 L139.0804 153.2583 L139.8379 152.8261 L140.088 152.6189 L140.1964 152.4112 L140.1826 152.3262 L140.1661 152.2261 L139.5254 150.9074 L139.4588 150.8964 L139.3069 150.8717 L139.145 151.0406 L139.1366 151.2793 L139.5285 152.3782 L139.5584 152.5633 L139.547 152.6362 L139.443 152.7244 L139.2699 152.824 L139.1278 152.8235 L139.0585 152.835 L138.909 152.7884 L138.675 152.8025 L138.4444 152.8403 L137.7526 153.0963 L137.5685 153.1262 L137.3533 153.1141 L137.1887 152.9751 L137.1008 152.8707 L136.8366 152.7002 L136.6985 152.5806 L135.9495 151.6113 L135.5916 150.7207 L135.228 150.3771 L135.1163 150.419 L135.0392 150.5266 L135.6222 151.926 L135.7206 152.3845 L135.7276 152.5733 L135.7034 152.5959 L135.666 152.631 L135.2661 152.7915 L135.1816 152.8529 L135.1119 153.0066 L135.054 153.0873 L134.9277 153.0365 L134.8702 152.9751 L134.6022 152.7815 L134.2568 152.6955 L134.1918 152.6719 L134.0309 152.6142 L133.675 152.2219 L133.304 151.7839 L133.2249 151.4954 L132.7452 150.9924 L132.3489 150.8528 L131.9362 151.2662 L131.8732 151.4246 L131.9147 151.679 L132.0897 152.1726 L132.3462 152.439 L132.4267 152.4972 L132.4378 152.5665 L132.4105 152.6892 L132.3681 152.7202 L132.1035 152.6924 L132.0002 152.6378 L131.6938 152.3561 L131.1639 152.4427 L130.9952 152.2806 L130.9283 151.8673 L130.9202 151.818 L130.4741 150.8235 L130.0125 149.8782 L129.7257 149.5693 L129.6762 149.4114 L129.7072 149.3112 L129.8499 149.1691 L130.3024 149.3327 L131.7403 150.1542 L132.5479 150.6152 L133.1424 150.557 L133.1519 150.1237 L133.1175 149.9113 L133.0768 149.6611 L133.0317 149.5567 L133.0004 149.4838 L132.8933 149.4067 L132.7206 149.3637 L132.4829 149.2126 L132.4105 149.0584 L132.456 148.9949 L132.4685 148.9776 L133.2441 148.9456 L133.1586 148.6225 L133.2973 148.4573 L133.5232 148.5391 L133.7299 148.7904 L133.841 148.8905 L134.1282 149.0573 L134.2891 149.1733 L134.5618 149.1046 L134.6422 149.1628 L134.7988 149.3983 L134.8176 149.5137 L134.9476 149.7298 L135.0355 149.8342 L135.1085 149.8457 L135.2465 149.8232 L135.2819 149.6039 L135.291 149.2226 L135.357 148.9031 L135.229 148.1174 L135.2873 147.8944 L135.4337 147.7754 L135.5337 147.6642 L135.6913 147.6143 L135.7987 147.692 L135.871 147.8462 L135.9266 148.4777 L135.8646 148.6776 L135.8522 148.8932 L135.8751 149.0322 L135.9555 149.0904 L136.0818 149.1407 L136.4349 149.1303 L136.7379 149.2467 L136.9568 149.2824 L137.0874 149.2131 L137.1029 149.1633 L137.0234 148.8203 L137.0392 148.6277 L137.1399 148.3739 L137.0877 147.9081 L136.8807 147.7995 L136.505 147.671 L136.3902 147.5477 L136.3791 147.478 L136.4329 147.3741 L137.1604 146.7567 L137.2951 146.7111 L137.3984 146.7651 L137.4607 147.7282 L137.7809 148.3875 L138.0112 148.4924 L138.0957 148.431 L138.1192 148.2847 L138.0805 148.1457 L138.0623 148.0806 L137.8674 147.7565 L137.7573 147.3709 L137.7546 147.063 L138.0472 146.8254 L138.4993 146.5081 L138.7235 146.1503 L138.8302 146.0727 L138.972 145.9893 L139.6655 145.9237 L139.8941 145.8624 L140.3438 145.6929 L140.5431 145.6725 L140.8667 145.6074 L141.3784 145.4516 L141.8743 145.4186 L142.1184 145.3787 L142.5654 145.4133 L142.8348 145.3095 L143.3741 144.9208 L143.463 144.8731 L144.0211 144.7907 L144.3726 144.4576 L144.4679 144.3097 L145.056 143.8696 L144.9203 143.6309 L145.2897 143.5276 L145.4607 143.1746 L145.4425 142.8289 L145.2587 142.5199 L144.8658 140.983 L144.9621 140.1405 L144.8927 139.5404 L145.3789 139.1596 L146.9921 138.3843 L147.047 138.8386 L147.0477 139.5457 L146.7117 141.785 L146.7053 142.3594 L146.273 142.6023 L146.2532 142.9495 L146.3851 143.4966 L147.0234 143.9032 L147.86 145.0614 L147.7257 146.1393 L147.6436 146.6308 L147.62 146.9833 L147.9597 147.138 L148.3425 147.3526 L148.4031 147.5766 L148.5205 147.8299 L148.3576 148.1483 L148.0684 148.42 L148.1102 148.9099 L148.4398 149.1192 L148.6545 149.1219 L148.8235 148.9608 L149.04 149.4125 L149.48 150.621 L149.5127 150.8214 L149.4457 151.1429 L149.3066 151.1655 L149.0545 151.871 L149.0804 151.9433 L149.0858 152.2387 L148.0829 154.7732 L148.4165 155.4986 L149.1339 155.8721 L149.642 156.0661 L149.9783 156.374 L150.5398 156.7218 L150.9485 156.8031 L151.269 156.6935 L151.604 156.3803 L151.9427 156.2057 L152.7388 155.9749 L153.7731 156.3263 L155.3675 150.9 L156.5545 151.1067 L156.7296 150.9541 L157.0326 150.7946 L158.6152 151.5295 L158.6997 154.2156 L160.4634 160.6022 L160.827 162.8361 L161.4222 166.0833 L161.3482 167.2377 L160.891 167.5608 L161.6037 171.3178 L161.8289 172.5058 L158.7751 172.5661 L155.3412 172.693 L152.6089 172.5047 L151.2633 172.1995 L150.8697 172.1538 L150.6028 172.1454 L148.2684 172.0699 L147.794 172.051 L147.4419 169.5377 L147.5136 169.353 L147.6941 168.8899 L147.0608 167.7224 L147.0403 166.923 L147.8721 166.677 L148.8596 165.9517 L148.4219 164.5491 L148.1549 163.6155 L148.1974 163.2636 L148.2617 162.728 L148.0253 162.2806 L147.5331 161.3475 L147.5446 160.7538 L147.5661 159.6182 L147.4924 157.1157 L147.5109 156.673 L147.3133 154.8749 L147.1446 154.8949 L147.0524 154.9101 L146.9332 155.048 L146.8898 155.3638 L146.7107 157.3156 L146.5484 157.6266 L146.3134 157.9261 L146.2249 157.9644 L146.132 157.9649 L145.7758 157.967 L145.2924 157.9035 L144.2746 158.0467 L144.036 158.0515 L142.9543 158.073 L142.7812 158.1726 L142.6112 158.4375 L142.2187 158.9604 L141.8793 159.3166 L141.41 159.6308 L141.2791 159.7 L140.6034 159.763 L140.4034 159.8432 L140.3263 159.9507 L140.1725 160.0236 L139.8537 160.0997 L139.3359 159.9707 L139.1023 159.8427 L138.9804 159.5306 L138.9693 159.1147 L138.3848 158.6929 L138.0044 158.4186 L137.8014 158.1905 L137.923 157.4823 L137.8617 157.3974 L137.7203 157.2547 L137.8866 156.8241 L137.9721 156.4779 L137.958 156.1002 L137.6556 155.8411 L137.2968 155.5962 L136.7837 155.4168 L136.6006 155.7672 L136.5608 156.0918 L136.2632 156.7339 L136.0804 157.4997 L135.9532 157.5915 L135.7458 157.6255 L134.5012 157.6093 L134.1339 157.6046 L134.0113 157.4346 L133.7053 157.1529 L133.5787 157.1021 L133.099 157.0622 L132.6964 156.9143 L132.2244 156.9206 L132.1015 156.8933 L131.9483 156.8235 L131.8985 156.8078 L131.5729 156.5529 L131.3471 156.3284 L130.8488 156.1726 L130.4418 156.1448 L129.554 156.5036 L128.8447 156.7485 L128.77 156.7742 L128.7622 156.8708 L128.7309 156.9704 L128.7336 157.0024 L128.7868 157.6025 L128.7134 157.7331 L128.305 158.1322 L128.0869 158.4837 L127.8492 158.8666 L127.7805 158.9772 L127.528 159.8967 L127.4203 159.9618 L127.3244 159.9539 L127.0843 159.3523 L126.9658 159.2059 L126.9315 159.1404 L126.955 158.994 L127.2776 158.4983 L127.3873 158.3064 L127.3994 158.0908 L127.3466 157.7672 L127.2816 157.6591 L127.0823 157.5967 L126.8675 157.5846 L126.752 157.6035 L126.3316 157.8883 L125.9619 158.1385 L125.9212 158.1663 L125.8555 158.3436 L125.8279 158.609 L125.8272 158.7517 L125.8996 159.1954 L125.9441 159.4682 L125.8744 159.6219 L125.7862 159.6602 L125.7057 159.6019 L125.6444 159.517 L125.4933 158.7349 L125.4135 158.5345 L125.1223 158.3452 L125.0455 158.31 L124.7846 158.3053 L124.7728 158.3782 L124.6722 158.6321 L124.4917 158.6856 L124.3887 158.4889 L124.3547 158.2807 M136.5066 144.7383 L136.5743 144.3595 L136.6975 144.2599 L136.7403 144.1014 L136.7426 143.8995 L136.6783 143.7584 L136.6349 143.4903 L136.5841 143.3471 L136.6332 143.2286 L136.711 143.2024 L136.7645 143.1935 L136.9174 143.2926 L136.9995 143.2926 L137.0729 143.2396 L137.189 143.1106 L137.2759 142.9721 L137.3766 142.7492 L137.6822 142.1895 L137.7095 141.9371 L137.6301 141.785 L137.5994 141.6801 L137.5954 141.4876 L137.62 141.3874 L137.7398 141.0291 L137.9499 140.5539 L137.9708 140.2612 L138.0442 140.1253 L138.1489 140.012 L138.2562 139.829 L138.4555 139.2042 L138.4616 139.1329 L138.4693 139.0369 L138.5363 138.9435 L138.6939 138.9036 L138.8979 138.9115 L139.3928 139.092 L139.4749 139.0925 L139.5638 139.1329 L139.5945 139.2383 L139.6096 139.4146 L139.4864 139.7513 L139.3982 140.1101 L139.2393 140.7558 L138.9804 141.2662 L138.7838 141.5742 L138.7922 141.7929 L138.8962 141.9272 L139.0376 142.0845 L139.2871 142.1443 L139.621 142.2251 L139.6163 142.1512 L139.6433 141.9922 L139.6268 141.6376 L139.8587 141.2967 L139.8968 141.1115 L139.8749 140.9777 L139.8894 140.6452 L139.9298 140.4731 L139.9947 140.2837 L140.0705 140.1615 L140.1156 139.9339 L140.156 139.8447 L140.2338 139.8179 L140.3735 139.8363 L140.6175 139.9066 L140.8327 140.0503 L140.9478 140.1689 L140.9364 140.267 L140.8916 140.4123 L140.8583 140.459 L140.667 140.545 L140.5334 140.6499 L140.4711 140.6871 L140.4576 140.7721 L140.5506 140.8393 L140.7462 140.78 L141.0023 140.5041 L141.0629 140.2879 L141.141 140.1788 L141.2033 140.1411 L141.2899 140.1678 L141.5178 140.3923 L141.5797 140.5198 L141.575 140.6578 L141.505 140.9856 L141.5248 141.1063 L141.4329 141.3003 L141.4615 141.4745 L141.508 141.5081 L141.5969 141.4661 L141.6885 141.272 L141.7406 140.9195 L141.85 140.7506 L142.0265 140.4049 L142.2803 140.1159 L142.423 139.9827 L142.5001 139.9643 L142.6075 139.9386 L142.8516 139.926 L143.0226 139.9669 L143.2135 140.0456 L143.3387 140.0598 L143.9104 140.1243 L144.1551 140.0293 L144.2417 139.9737 L144.2908 139.8557 L144.3602 139.7755 L144.5776 139.7671 L144.6574 139.8368 L144.6769 139.9575 L144.683 140.1626 L144.6066 140.5329 L144.4144 140.9499 L144.1915 141.2615 L144.1575 141.4734 L144.2501 141.7058 L144.2733 142.1837 L144.248 142.4491 L144.1763 142.681 L143.9245 142.9836 L143.6885 143.1321 L143.3152 143.1935 L143.0001 143.1898 L142.7671 143.1043 L142.6028 143.1038 L142.4294 143.1321 L142.2382 143.2186 L142.1753 143.4211 L142.0796 143.5056 L141.8309 143.5743 L141.3531 143.5837 L141.1044 143.6519 L140.6798 143.8177 L140.3263 143.9168 L140.1105 144.0207 L139.8685 144.0469 L139.6463 144.028 L139.5069 143.9273 L139.4847 143.8759 L139.55 143.6037 L139.5305 143.483 L139.5642 143.2711 L139.5911 143.184 L139.5823 142.9564 L139.2878 142.906 L139.2177 142.8939 L139.1188 143.1263 L139.0026 143.3377 L138.9777 143.5213 L139.004 143.6818 L139.079 143.8901 L139.0918 144.0532 L138.9935 144.2069 L138.7427 144.262 L138.2731 144.4901 L137.9482 144.7634 L137.4314 145.289 L137.1133 145.5198 L136.8655 145.9326 L136.7386 145.9945 L136.7032 145.9452 L136.7036 145.8624 L136.7463 145.7039 L136.7443 145.5251 L136.7763 145.3 L136.7123 145.0761 L136.5066 144.7383 M147.0426 142.7628 L147.0925 142.1622 L147.3571 141.9267 L148.0011 141.8322 L148.0428 141.8259 L148.3004 141.9225 L148.3654 141.988 L148.5071 142.1312 L148.4108 142.5913 L148.8841 142.8341 L150.5805 142.7035 L151.8854 142.778 L153.7431 142.9994 L154.5255 143.2391 L156.0007 143.7815 L156.3377 144.0081 L156.573 144.1083 L156.6154 144.0857 L156.7706 144.0039 L157.6466 144.262 L158.4798 144.4817 L158.7438 144.6816 L159.438 145.2072 L159.7228 145.4228 L159.7171 145.5933 L159.6894 146.7709 L159.2807 147.4208 L159.2016 147.9595 L158.9801 149.1476 L158.6219 149.0243 L158.4206 148.8711 L158.2637 148.6671 L157.8099 148.7127 L157.4958 148.8334 L157.0979 148.8638 L155.3779 148.7667 L154.0693 148.5748 L152.7644 148.0812 L150.9468 146.8113 L148.2741 144.7356 L147.6883 144.1529 L147.2689 143.5092 L147.0426 142.7628 M148.4364 155.0318 L149.7423 150.8313 L149.5692 148.3303 L151.1421 147.6537 L152.3379 148.2989 L154.5874 148.9278 L157.1201 149.1953 L156.8683 150.5166 L155.185 150.7212 L153.7694 155.8338 L153.2974 155.8495 L150.6075 156.1013 L148.4364 155.0318 M187.4696 285.5547 L187.612 285.4519 L187.9921 285.0173 L188.1608 284.75 L188.183 284.5602 L188.2621 284.4742 L188.4214 284.3017 L188.8981 283.8655 L189.7478 283.746 L190.1999 283.5919 L190.4467 283.1526 L190.3756 282.5523 L190.4362 282.4359 L190.5443 282.2854 L191.152 280.8846 L191.902 279.3485 L193.2756 278.6554 L193.8361 278.5548 L194.1556 278.7073 L194.3438 278.5778 L194.2977 278.2931 L193.958 278.1621 L193.8506 278.1532 L192.9642 277.9136 L192.0044 277.6934 L191.8512 276.897 L192.6057 276.1478 L192.941 275.9832 L194.5179 274.2594 L195.2275 273.5841 L195.8096 273.0929 L197.0397 273.5123 L198.0719 274.0602 L198.8287 274.8775 L199.0109 275.2057 L198.9994 275.7808 L196.8852 277.7453 L196.3883 278.4378 L196.083 278.6979 L195.7729 278.7251 L195.4962 279.1902 L195.14 279.5781 L194.5805 280.0327 L194.0624 280.5664 L193.5786 281.0178 L192.843 281.8545 L192.205 282.6755 L191.1466 283.5809 L189.7851 284.7809 L188.8795 285.4782 L187.7989 286.1565 L187.4878 285.9112 L187.5016 285.7036 L187.4696 285.5547 M189.9861 266.9388 L193.9503 263.2734 L196.9233 259.4822 L198.9526 256.7767 L201.2964 256.1318 L202.2246 257.7519 L204.191 257.9092 L209.3216 256.8213 L213.8998 253.9601 L217.4286 252.5056 L220.266 254.5321 L216.2601 260.8029 L215.439 260.5171 L213.8823 258.971 L211.5473 261.1605 L209.8384 259.6237 L207.1643 260.4888 L204.3169 262.1252 L202.1303 262.2825 L201.4223 263.179 L199.9279 264.8149 L198.4335 267.2534 L199.1257 268.4802 L198.9526 269.2514 L197.4582 270.3052 L194.3122 269.22 L192.4558 267.5679 L189.9861 266.9388 M190.5053 286.5733 L190.6382 286.1314 L190.7904 285.2805 L192.0559 283.8362 L193.8658 282.0506 L195.4618 280.6193 L197.3744 278.8499 L197.9319 277.9136 L198.7981 276.9741 L199.7997 276.1038 L200.5857 275.6361 L201.4954 275.3724 L202.3821 275.3184 L202.6417 275.5098 L203.0319 275.742 L203.4615 275.7772 L203.8604 275.7405 L204.0826 275.6707 L204.4694 275.708 L204.9559 275.9916 L204.9098 276.108 L204.9333 276.3413 L205.0737 276.8462 L205.5504 277.4942 L205.6622 277.858 L205.6373 278.1149 L205.4965 278.3912 L203.3204 279.8597 L202.5158 280.5643 L201.0241 281.4959 L200.0801 281.8702 L199.0853 282.1664 L197.1179 282.8369 L196.2691 283.3004 L195.3066 284.1167 L193.3365 285.9143 L192.2182 287.1479 L190.955 289.2507 L190.6995 288.4994 L190.5692 287.0546 L190.5053 286.5733 M202.2354 266.5068 L202.4629 265.562 L202.9629 265.1221 L203.5392 264.7126 L204.0998 264.4106 L204.7307 264.4395 L205.1963 264.5039 L206.3907 263.7065 L206.9889 263.1979 L207.7643 261.9296 L207.7229 261.1772 L207.7259 260.9046 L207.8582 260.6629 L207.9986 260.5303 L208.3147 260.3352 L208.683 260.3756 L208.9439 260.0752 L209.4688 259.846 L209.7529 259.9236 L210.0424 259.9766 L210.4676 260.6283 L210.8235 260.914 L211.0628 261.214 L211.1877 261.3366 L210.575 261.8761 L206.8933 264.7708 L205.6319 265.5137 L204.866 266.3248 L204.5458 266.7201 L204.4516 266.9288 L204.5532 267.3745 L204.5108 267.9926 L204.3809 269.0695 L202.6841 269.1796 L202.2694 267.213 L202.2354 266.5068 M204.9798 268.2028 L205.1498 267.5396 L205.3956 266.943 L205.6716 266.5272 L206.0352 266.0837 L206.9522 265.4702 L207.9558 264.7367 L208.6803 264.1548 L210.2976 262.9767 L211.2702 261.97 L213.2487 259.8455 L213.3531 259.7139 L213.8409 259.0999 L213.9759 259.2462 L214.5307 259.8476 L214.9923 260.2492 L214.9404 260.9859 L215.4464 261.3403 L214.3775 262.5614 L212.9717 264.2345 L210.0943 266.5985 L209.1658 267.3068 L208.4032 267.8154 L207.2697 267.8285 L204.9798 268.2028 M205.1814 270.8872 L205.2582 270.3923 L205.2114 269.6357 L205.2319 269.0307 L205.1946 268.6831 L205.676 268.4514 L206.0716 268.4823 L206.4537 268.8687 L206.89 268.8881 L207.3832 268.6978 L207.7912 268.4257 L208.0511 268.4409 L208.3537 268.4865 L208.2679 269.5419 L208.3803 270.3498 L208.3948 270.8778 L207.7767 271.8812 L207.7797 272.3678 L207.7121 273.301 L206.0773 272.589 L205.4434 272.1481 L205.1814 270.8872 M223.6275 372.3374 L223.8096 371.7798 L224.1584 371.4963 L224.5688 371.1273 L224.6957 370.8805 L224.2244 370.3538 L225.0394 369.5226 L225.3791 369.2407 L225.9188 369.03 L226.621 368.9529 L227.1954 368.7837 L227.6579 368.7365 L228.0454 368.8051 L228.4999 368.8251 L228.9766 368.7475 L229.5281 368.5536 L230.2095 368.4047 L230.0926 369.0179 L229.4203 369.684 L228.7814 370.3826 L228.0761 371.3092 L226.991 372.1865 L226.3143 372.4197 L225.8622 372.5313 L224.7048 372.9307 L224.6799 372.9108 L224.0813 372.9899 L223.8605 372.8468 L223.6275 372.3374 M224.8701 373.0643 L227.1297 372.2656 L227.8734 372.1058 L228.0027 372.2468 L228.439 371.9701 L229.0463 371.5408 L229.3836 371.8757 L229.3806 371.8783 L229.4651 372.2185 L229.3106 372.5549 L228.9184 373.0151 L228.7804 373.6073 L229.0211 373.7 L229.6873 373.4589 L230.0371 373.3547 L230.5003 373.2614 L230.8767 374.4589 L231.2188 376.563 L231.4016 377.3439 L231.214 377.5372 L230.5555 377.7872 L230.0267 377.9649 L229.8805 378.1509 L229.8927 379.0114 L229.8731 379.7708 L229.7334 380.0276 L228.9281 380.1397 L228.1811 380.0852 L227.5189 379.7593 L226.8661 379.2881 L226.5318 379.0926 L226.2676 378.4543 L226.2625 377.8768 L226.2948 376.9718 L226.3638 375.6286 L226.4493 374.6067 L226.3999 373.5161 L225.8124 373.5585 L225.2475 373.3987 L225.2067 373.3693 L224.8701 373.0643 M227.6307 442.7668 L227.7498 442.4802 L228.1626 442.0233 L228.5568 441.7252 L229.2537 441.5224 L229.9078 441.3936 L230.3317 441.3464 L230.5427 441.5565 L230.572 441.9416 L230.5633 442.0076 L230.5168 442.3508 L230.3576 442.7998 L230.161 443.0879 L229.5439 443.4447 L229.0302 443.6176 L228.538 443.7203 L228.1195 443.7329 L227.8616 443.5747 L227.6923 443.1461 L227.6307 442.7668 M230.971 441.9201 L231.0726 441.4145 L231.1383 441.2406 L231.5921 441.1059 L231.9789 441.0792 L232.3593 441.0928 L232.6926 441.1379 L232.9286 441.2201 L233.7501 441.4239 L233.9665 441.5334 L234.1086 441.667 L234.2614 442.0893 L234.0834 442.5111 L233.4733 442.6468 L232.7909 442.5918 L231.1329 442.7636 L231.0131 442.6924 L231.0151 442.4084 L230.971 441.9201 M231.9793 381.4493 L232.225 381.1066 L232.733 380.5191 L233.9423 380.2204 L234.5527 381.0925 L235.1697 381.584 L234.93 380.5726 L235.8239 379.1063 L237.3419 378.011 L237.8805 380.4772 L238.6386 381.572 L238.5683 382.9958 L238.9935 384.9951 L239.3025 388.2651 L239.8617 388.4553 L239.6813 385.6444 L239.0487 382.0431 L239.5446 381.5756 L241.2602 385.6334 L243.2152 388.9961 L244.4827 391.4046 L243.5599 391.4696 L240.4182 389.4479 L239.8695 388.9406 L239.448 388.6325 L239.2497 388.5266 L238.7932 388.5292 L237.085 386.8701 L237.3116 385.1685 L237.2361 383.4659 L236.6557 382.2286 L236.3181 382.4655 L236.7712 383.3904 L237.0187 384.9138 L236.8089 386.2187 L236.3544 386.2926 L231.9793 381.4493 M232.0621 424.7635 L233.2791 413.7615 L250.6381 405.8246 L265.3335 415.6416 L269.9975 420.2578 L273.8562 421.5311 L275.5446 420.4051 L282.3248 424.3768 L287.8796 420.2374 L290.9903 420.5413 L290.9769 422.9149 L288.0042 426.8446 L287.782 428.5475 L289.3912 429.3387 L288.9637 431.4293 L290.7715 434.159 L289.1421 443.0397 L284.8464 443.3017 L283.6277 445.083 L282.5335 444.0457 L280.8738 446.1518 L280.4092 446.5657 L275.5042 445.3293 L274.134 449.0701 L273.629 450.1493 L267.9738 452.0254 L263.7643 451.5094 L260.1712 455.5555 L252.6462 455.5691 L256.133 452.5656 L249.6402 452.5478 L246.6474 448.4262 L245.7899 447.5947 L245.4721 446.9671 L245.053 445.8616 L243.1216 445.3398 L238.6407 443.5521 L236.8392 440.4557 L232.0621 424.7635 M236.9311 168.42 L237.6937 165.8462 L247.321 159.1739 L252.8496 161.1755 L254.5177 162.7008 L258.7118 163.4634 L258.664 167.7528 L259.5218 169.1826 L257.4251 170.1356 L255.328 176.1882 L245.5576 179.6676 L236.9311 168.42 M243.7134 491.7649 L244.1022 491.5716 L244.4483 491.5151 L245.1832 491.2652 L246.2343 490.811 L249.0201 490.0216 L251.9783 488.9378 L252.8469 488.7482 L253.7383 488.6125 L253.9966 488.8849 L254.0652 489.1604 L254.0817 489.5523 L254.2066 489.9724 L254.2373 490.2202 L254.0413 490.3333 L244.4766 493.8183 L244.2898 493.5768 L244.0427 492.8152 L243.8238 492.2306 L243.7134 491.7649 M244.552 116.857 L245.8448 116.8675 L248.6558 117.9901 L249.7816 118.6884 L250.8441 118.7298 L252.6116 121.6204 L248.0936 121.0485 L245.8515 120.6971 L245.5451 117.6701 L244.552 116.857 M248.1916 182.73 L248.195 182.2228 L248.4246 181.5835 L248.7084 181.1025 L248.9619 180.8078 L249.3076 180.406 L250.7576 179.8029 L252.4254 179.1636 L254.0986 178.552 L254.3904 178.7865 L254.2147 179.1421 L254.0726 179.4305 L254.108 179.8197 L254.2682 179.9844 L254.4477 179.9167 L254.6224 179.9073 L254.8109 179.9529 L254.9355 180.3672 L255.1159 181.2457 L255.0153 184.0569 L255.0156 185.3518 L254.9557 186.2738 L254.8362 186.8287 L254.5827 187.2619 L253.9582 187.2587 L251.884 187.1911 L250.8744 186.9881 L249.65 186.8108 L248.4633 186.546 L248.5431 185.4819 L248.3754 183.8036 L248.1916 182.73 M259.4504 181.0003 L259.6551 180.2199 L260.8048 179.6996 L263.2411 179.0975 L264.6372 179.2071 L264.5002 180.2199 L264.5002 182.1358 L264.2265 183.7506 L263.2634 184.8126 L262.0955 184.4791 L261.3808 184.3841 L260.1415 183.288 L259.6648 182.4536 L259.546 181.8342 L259.4504 181.0003 M261.2811 120.1677 L261.4552 119.9196 L262.6681 119.8745 L264.5871 119.7192 L264.9379 119.619 L265.3422 119.5865 L265.6371 120.1336 L266.0472 120.9337 L266.403 121.7164 L266.6154 122.1166 L266.3384 122.6685 L265.0247 122.7682 L264.2531 122.9754 L263.3034 123.2592 L262.6604 123.2886 L262.5321 123.2943 L262.113 122.9423 L261.9975 122.3207 L262.0598 121.9582 L262.0931 121.7651 L261.6696 121.0937 L261.3525 120.6965 L261.2818 120.3781 L261.2811 120.1677 M265.7523 119.7344 L266.0876 119.6269 L270.147 119.3279 L271.3741 119.2854 L275.8162 119.406 L276.1829 119.3751 L277.274 119.1679 L277.2861 119.448 L277.5133 120.0849 L277.6941 120.9347 L277.7907 121.5306 L277.8961 121.8575 L278.1308 123.0378 L278.4715 124.0812 L278.0274 124.311 L277.8618 124.2449 L277.4315 124.0739 L275.9432 123.8294 L274.1858 123.7481 L273.2964 123.7596 L272.3157 123.8814 L271.4643 123.8913 L270.5415 123.9322 L269.7753 124.1143 L269.7046 124.5895 L269.5538 124.7291 L269.4602 124.8156 L269.1478 124.8288 L268.8178 124.7343 L268.7529 124.705 L268.5246 124.6006 L268.1782 124.248 L267.993 123.9905 L267.9398 123.6631 L267.8139 123.18 L267.6096 122.9764 L267.6103 122.9659 L267.4753 122.7598 L267.1187 122.5893 L266.9225 122.3915 L266.7777 122.1476 L266.436 121.3911 L266.0125 120.6619 L265.8142 120.1216 L265.756 119.9631 L265.7523 119.7344 M286.4421 118.9748 L286.4731 118.8594 L286.5276 118.8012 L286.5889 118.7539 L286.6626 118.7219 L286.7653 118.7461 L286.8707 118.8137 L286.975 118.9019 L287.0397 119.0141 L287.037 119.1259 L286.9464 119.2801 L286.8646 119.4763 L286.8151 119.4994 L286.7333 119.5088 L286.6374 119.4978 L286.5657 119.4564 L286.561 119.3861 L286.5472 119.3016 L286.4694 119.0965 L286.4421 118.9748 M288.6338 228.8879 L289.2229 226.6856 L290.9903 222.8681 L295.451 221.6567 L297.8076 219.4123 L298.9388 219.4071 L300.4133 221.9609 L295.6766 222.6111 L295.8584 225.3589 L296.8313 225.8203 L293.2628 230.8805 L291.8084 227.0998 L288.6338 228.8879 M262.517 468.4767 L262.6708 468.5275 L262.7136 468.3907 L262.517 468.4767" stroke-dasharray="" fill="none" fill-opacity="1.0" stroke="#ff0000" stroke-opacity="1.0" stroke-width="1.0px" stroke-linecap="butt" stroke-linejoin="miter" stroke-dashoffset="0.0px"/>
</g>
</svg>