<?xml version="1.0" standalone="no"?>
<!DOCTYPE svg PUBLIC "-//W3C//DTD SVG 1.1//EN" "http://www.w3.org/Graphics/SVG/1.1/DTD/svg11.dtd">
<svg width="512px" height="512px" version="1.1" xmlns="http://www.w3.org/2000/svg" xmlns:inkscape="http://www.inkscape.org/namespaces/inkscape">
<g id="layer" inkscape:groupmode="layer" inkscape:label="layer">
<path d="M0.0 113.3402 L222.4972 234.7209 L176.1126 320.5131 L68.7415 262.0196 L48.4451 299.5428 L107.2413 331.6062 L101.0274 343.022 L98.7074 341.9052 L90.1573 357.242 L105.5053 365.5804 L106.7708 363.2476 L142.3664 382.7784 L141.8473 383.7463 L167.5138 397.6933 L168.1303 396.6013 L262.3923 447.9718 L273.23 428.0441 L294.1591 439.2612 L315.8507 399.083 L275.6636 377.2195 L253.9395 417.4722 L246.1682 413.2533 L267.876 373.0254 L246.2655 361.3119 L240.5547 372.008 L226.7155 364.687 L242.1122 336.3214 L209.9885 318.9248 L248.1151 248.3455 L270.9424 260.754 L266.5781 269.0676 L266.4645 268.8443 L261.0781 268.6457 L256.5678 269.3158 L250.7758 271.4252 L246.0222 274.0807 L242.0797 277.6543 L238.6727 282.5681 L236.3688 288.4993 L235.5739 294.9517 L236.4824 301.3793 L236.6771 301.9997 L238.3969 306.6653 L239.4514 308.4273 L241.4308 311.4798 L247.0443 316.8898 L251.7817 319.6445 L258.0767 321.3817 L264.0958 321.4313 L264.2743 321.4313 L269.2389 320.4635 L270.6341 320.0168 L275.1607 318.1555 L278.6326 315.649 L281.7314 312.5469 L284.8789 308.1791 L287.2314 302.5953 L288.1886 297.756 L287.8641 291.8 L286.8258 286.5388 L284.6842 281.5009 L281.4556 276.9842 L285.755 268.8691 L325.6825 290.5839 L321.2046 298.8976 L316.8404 298.4757 L315.2991 298.4509 L311.3242 299.1209 L309.3773 299.8654 L301.8331 303.1909 L300.1133 304.4814 L296.7063 307.8069 L293.6237 312.1746 L293.3479 312.7702 L292.0499 315.6986 L290.7033 320.5131 L290.7196 321.0342 L290.3951 324.7071 L290.7682 329.5216 L291.0603 330.6135 L291.7417 333.5668 L293.429 337.5374 L297.047 342.6497 L302.0927 346.9678 L307.2681 349.6977 L309.1826 350.2188 L313.5955 351.2115 L314.7799 351.4349 L318.1383 351.3108 L322.2592 350.74 L323.8978 350.3429 L328.9598 348.432 L329.1382 348.1342 L331.4907 346.8189 L335.6765 342.9475 L336.147 342.6497 L339.7163 337.8104 L339.8299 337.3141 L342.1337 331.8296 L342.296 331.3829 L342.88 328.0574 L342.5393 321.0342 L342.1337 318.9993 L341.6794 316.7409 L339.5216 311.6535 L335.9523 306.9134 L340.5762 298.6246 L380.5362 320.4386 L376.2692 328.3552 L376.107 328.5538 L371.694 328.0822 L366.9566 328.5538 L362.6085 329.9187 L357.5304 332.3011 L352.7605 336.0236 L348.3962 341.8556 L346.3682 346.4963 L345.9951 347.5634 L345.0541 353.6187 L345.0216 354.1647 L345.5895 359.8477 L347.3579 365.4563 L350.6189 370.916 L351.495 371.9087 L356.6543 376.5494 L356.8976 376.8969 L361.1321 379.0063 L365.4964 380.4208 L366.5185 380.5946 L370.8017 381.0661 L373.7058 380.6442 L378.4595 380.123 L384.2839 377.7158 L388.6969 374.6385 L392.688 370.3949 L394.7322 367.0446 L396.2898 362.8009 L397.1821 360.3937 L397.2956 358.0858 L397.831 355.0085 L397.4903 351.6086 L397.1821 349.3006 L395.7706 344.1139 L394.0833 340.6644 L393.4181 339.9695 L391.0656 336.8674 L390.8547 336.6192 L395.3001 328.5289 L435.2114 350.2437 L430.6686 358.5573 L430.3117 358.6069 L423.7571 358.0858 L418.9548 359.1529 L413.9902 361.4112 L408.9445 364.6622 L405.9918 367.7395 L405.4726 368.4095 L402.7632 372.3802 L400.7838 377.5669 L399.8428 384.8382 L400.1998 390.3227 L402.1304 396.4524 L405.3752 401.5895 L411.3133 406.5528 L419.0846 410.0272 L424.4872 410.8958 L429.3382 410.8709 L433.7999 409.9527 L435.3736 409.4812 L440.1435 407.1484 L443.6966 404.2449 L445.1081 403.2026 L448.4015 399.2815 L448.434 398.9837 L450.8027 393.7226 L451.0298 393.5489 L452.1655 388.9578 L452.2791 388.6104 L452.2304 382.9025 L452.3764 382.4806 L451.6626 377.2691 L451.3219 376.2268 L449.0505 370.9905 L445.5137 366.5235 L445.611 366.0519 L450.0402 358.3091 L470.7746 369.4767 L497.4794 320.2649 L476.5504 309.0725 L481.4014 300.6844 L485.9279 301.0567 L489.8217 300.61 L494.5429 299.2698 L497.5443 298.1283 L501.9897 295.2991 L505.4941 291.924 L508.4307 287.9037 L509.9395 285.0001 L511.6431 279.0441 L512.0 275.5945 L511.5133 269.3654 L510.3614 265.2458 L507.2626 259.389 L504.6992 256.2621 L499.7346 252.341 L495.5325 250.1075 L488.4102 248.4199 L481.9043 248.4695 L475.3498 249.9834 L470.4014 252.5892 L466.1832 256.3117 L462.6788 261.697 L461.5106 264.2283 L460.7805 266.3378 L459.4015 272.6661 L459.6611 277.5302 L460.6832 283.114 L460.7319 283.6352 L462.9059 288.2015 L466.3129 292.5445 L461.8351 300.9326 L421.8914 279.193 L426.4179 270.8545 L431.2851 271.3012 L432.291 271.2763 L436.2821 270.6807 L438.5048 270.1348 L440.8411 269.0925 L445.8219 266.5611 L451.2732 261.4736 L453.9015 257.5774 L456.6109 250.4301 L457.2112 245.8141 L456.254 237.5997 L454.3071 232.7852 L454.0313 232.2888 L450.5269 227.2262 L449.1803 225.9109 L446.4547 223.4788 L444.3455 222.2876 L441.5874 220.6745 L437.7748 219.4088 L436.8987 219.0862 L431.853 218.4409 L426.0285 218.8876 L422.9297 219.8803 L421.1451 220.2774 L415.9534 223.0321 L411.5404 226.978 L407.89 231.991 L406.0242 236.7559 L404.921 241.2974 L404.6452 242.5631 L404.3856 247.998 L404.5965 248.1469 L405.9755 253.6067 L406.6083 255.5424 L411.5891 262.9378 L407.0301 271.1026 L367.1675 249.487 L371.5642 241.1733 L371.8563 241.4215 L377.1291 241.893 L379.6601 241.7193 L382.4506 241.223 L387.0907 239.5354 L391.3739 237.3019 L392.542 236.5822 L397.0847 231.9166 L399.6806 228.2437 L400.216 227.0524 L401.8546 223.9503 L402.9254 220.1285 L403.2337 214.4454 L402.5685 209.9287 L399.6319 202.8806 L395.2352 196.999 L392.0553 194.3435 L389.9948 192.3582 L386.6689 190.6706 L385.5818 190.2735 L381.9801 189.2808 L381.0067 189.0823 L377.8916 188.6108 L371.11 189.1568 L363.8578 191.7626 L358.3091 195.5099 L353.3608 201.615 L352.6469 203.5259 L351.1056 206.628 L349.7915 213.1053 L350.1971 218.8132 L351.5437 224.0744 L351.4464 224.397 L353.1499 228.3181 L356.5083 232.7356 L356.6867 233.083 L352.3062 241.223 L312.3625 219.6818 L317.0026 211.4673 L321.4804 211.8396 L325.1471 211.6659 L326.2179 211.3184 L330.6957 209.8046 L335.4169 207.5711 L339.8137 204.047 L343.1234 200.1507 L346.5467 192.9786 L347.585 187.6181 L347.1794 179.8503 L345.0216 173.6957 L340.8845 167.5162 L336.2768 163.4462 L333.8594 162.2302 L331.7016 160.9397 L327.1751 159.5499 L326.7533 159.3762 L320.5232 158.9295 L314.0498 159.8725 L313.774 159.8725 L309.1664 161.8083 L304.2991 165.1338 L300.1782 169.4768 L296.9983 175.3088 L296.8685 176.1774 L295.9437 178.6591 L295.2136 182.8284 L295.7977 191.5888 L296.544 194.0457 L297.8257 197.5449 L298.6531 198.9347 L302.1251 203.4266 L297.5824 211.5666 L276.7993 200.2252 L290.0057 177.319 L257.6711 159.7733 L245.2596 183.0269 L26.6075 64.0282 L0.0 113.3402" stroke-dasharray="" fill="none" fill-opacity="1.0" stroke="#ff0000" stroke-opacity="1.0" stroke-width="1.0px" stroke-linecap="butt" stroke-linejoin="miter" stroke-dashoffset="0.0px"/>
</g>
</svg>