<?xml version="1.0" standalone="no"?>
<!DOCTYPE svg PUBLIC "-//W3C//DTD SVG 1.1//EN" "http://www.w3.org/Graphics/SVG/1.1/DTD/svg11.dtd">
<svg width="512px" height="512px" version="1.1" xmlns="http://www.w3.org/2000/svg" xmlns:inkscape="http://www.inkscape.org/namespaces/inkscape">
<g id="layer" inkscape:groupmode="layer" inkscape:label="layer">
<path d="M0.0 149.0058 L6.9003 150.8837 L5.5754 175.2104 L14.4078 221.1325 L8.6115 221.5592 L11.0404 238.3746 L17.2783 237.4356 L29.2019 300.1729 L21.6944 301.9654 L23.8473 317.5856 L31.8516 316.7321 L47.5291 375.9696 L40.5736 377.5914 L44.9898 392.8702 L52.2212 390.4802 L53.9877 392.8702 L56.1958 394.8334 L58.7351 396.3698 L60.2808 397.0527 L63.4273 397.7355 L67.1258 397.6502 L70.3827 396.9673 L77.8902 395.5162 L100.3575 395.5162 L100.8543 410.7951 L116.4213 411.5633 L117.8566 394.9187 L156.3877 401.6619 L154.8973 417.2822 L166.8209 418.3064 L169.029 410.6243 L213.1355 411.3926 L205.7936 445.4498 L221.195 450.059 L219.6494 464.5696 L225.832 465.5085 L228.8681 449.3762 L242.4479 452.1929 L256.0276 454.9244 L294.1723 459.0215 L293.3443 463.3746 L307.0344 465.6793 L308.028 462.5211 L368.2536 472.5931 L364.003 497.6025 L392.1009 503.6628 L396.4067 478.3974 L405.2942 480.0191 L409.9864 465.6793 L421.4685 468.6667 L427.6511 469.5203 L437.9739 469.6057 L445.5918 468.6667 L453.0993 466.8742 L457.1291 464.9111 L460.8828 462.5211 L464.2501 459.619 L467.2311 456.2901 L469.8256 452.7051 L471.9232 448.6933 L473.5241 444.5109 L485.7238 450.4858 L496.3778 424.7082 L443.3285 375.6282 L452.4369 359.9225 L465.9614 369.1411 L489.8639 313.2325 L476.781 310.4157 L491.9616 232.9971 L476.1738 168.2965 L479.7067 169.3208 L483.3501 169.9183 L487.0486 170.0036 L490.692 169.4915 L494.2801 168.5526 L497.7026 167.1015 L500.8492 165.1383 L503.7197 162.8337 L506.259 160.1022 L508.3015 156.8587 L509.9023 153.4444 L511.1168 149.8594 L511.7792 146.1037 L512.0 142.2626 L511.724 138.5069 L511.0064 134.7512 L509.7919 131.1662 L508.0806 127.7519 L505.8726 124.3376 L503.2229 121.2648 L500.1867 118.5333 L496.8194 116.2287 L493.1761 114.4362 L489.3671 113.1558 L485.3926 112.3023 L481.3076 112.0462 L477.2778 112.3023 L473.3033 113.1558 L469.4391 114.5216 L465.7958 116.3141 L462.4837 118.6187 L459.4475 121.3501 L456.7978 124.423 L433.7785 101.4619 L436.9251 96.5112 L422.1309 83.2808 L391.3833 60.5758 L393.2602 57.759 L394.6402 54.6008 L395.5235 51.2719 L395.8547 47.8576 L395.5787 44.4433 L394.7506 41.1144 L393.4258 37.8708 L391.6041 35.054 L389.2856 32.4933 L386.6359 30.274 L383.5998 28.6522 L380.3981 27.4572 L377.0307 26.8597 L373.829 26.689 L370.6825 27.1158 L367.6464 28.1401 L364.8311 29.6765 L362.347 31.7251 L360.3045 34.2004 L358.7036 36.9319 L357.5996 40.0047 L357.1027 43.1629 L357.2132 46.3212 L327.4592 45.1262 L327.6248 37.1026 L312.6098 35.054 L311.6162 43.7604 L249.6242 37.2733 L249.5137 29.5911 L234.0019 27.884 L232.7875 36.0783 L221.195 34.7979 L221.8575 31.3836 L221.9127 27.9693 L221.4711 24.5551 L220.4222 21.2261 L218.8213 18.1533 L216.7789 15.4218 L214.2396 13.0318 L211.4243 11.0686 L208.2777 9.6175 L204.9104 8.7639 L201.5431 8.3372 L198.0653 8.5932 L194.7532 9.3615 L191.6067 10.7272 L188.7362 12.605 L186.1969 14.9097 L184.0992 17.6411 L182.4431 20.714 L181.3943 23.9576 L180.8423 27.3718 L180.9527 30.7861 L181.5599 34.2004 L168.8634 36.8465 L168.3666 25.494 L152.5236 29.8472 L154.2348 39.0658 L107.9202 48.2844 L104.7737 37.8708 L89.0963 41.7972 L90.5867 50.7597 L76.455 53.5765 L74.6333 50.4183 L72.37 47.6869 L69.6099 45.2969 L66.5186 43.3337 L63.2065 41.9679 L59.6735 41.1144 L56.0854 40.9437 L52.442 41.2851 L48.9643 42.224 L45.6522 43.6751 L42.7817 45.4676 L40.2424 47.6869 L38.0895 50.333 L36.3782 53.2351 L35.1638 56.3933 L34.4461 59.7222 L34.3357 63.1365 L34.7222 66.4655 L35.6606 69.709 L37.1511 72.7819 L39.0831 75.5987 L41.4568 77.9887 L5.3546 133.4708 L0.0 149.0058" stroke-dasharray="" fill="none" fill-opacity="1.0" stroke="#ff0000" stroke-opacity="1.0" stroke-width="1.0px" stroke-linecap="butt" stroke-linejoin="miter" stroke-dashoffset="0.0px"/>
</g>
</svg>