<?xml version="1.0" standalone="no"?>
<!DOCTYPE svg PUBLIC "-//W3C//DTD SVG 1.1//EN" "http://www.w3.org/Graphics/SVG/1.1/DTD/svg11.dtd">
<svg width="512px" height="512px" version="1.1" xmlns="http://www.w3.org/2000/svg" xmlns:inkscape="http://www.inkscape.org/namespaces/inkscape">
<g id="layer" inkscape:groupmode="layer" inkscape:label="layer">
<path d="M0.0 225.329 L0.5327 231.3796 L1.7165 237.337 L3.6106 243.1083 L6.0375 248.6934 L9.1154 253.9062 L12.726 258.7466 L16.8102 263.2147 L21.4271 267.2173 L26.3991 270.6615 L31.7262 273.454 L37.3494 275.7812 L43.1501 277.3636 L49.1283 278.3875 L54.929 292.6295 L51.6735 297.7492 L49.0099 303.1482 L46.9383 308.9194 L45.5177 314.7838 L44.689 320.8343 L44.5706 326.8848 L45.1625 332.9353 L46.3464 338.8928 L48.1813 344.664 L50.6673 350.2491 L53.7452 355.4619 L57.3558 360.3023 L61.4992 364.7704 L66.0569 368.773 L71.0881 372.1241 L76.4153 375.0097 L82.0384 377.2437 L87.8983 378.9193 L93.8765 379.8501 L99.618 393.7197 L96.3625 398.7463 L93.699 404.0522 L91.6273 409.7303 L90.1475 415.5016 L89.3188 421.459 L89.0821 427.4164 L89.5556 433.3739 L90.621 439.3313 L92.3376 445.1025 L94.7052 450.5945 L97.6055 455.8073 L101.0386 460.7407 L105.0044 465.2088 L109.3845 469.3045 L114.2382 472.8418 L119.3877 475.8205 L124.8925 478.2407 L130.5748 480.1024 L136.4347 481.2194 L142.3538 481.7779 L148.332 481.6848 L154.3103 480.9401 L160.111 479.6369 L165.7341 477.5891 L171.1205 474.9827 L176.2109 471.9109 L180.9461 468.1875 L185.2079 463.9987 L189.0553 459.3445 L192.3699 454.411 L195.0927 449.0121 L197.2236 443.427 L198.7625 437.6557 L199.7096 431.6983 L212.1397 426.2063 L216.9933 429.4643 L222.2613 432.3499 L227.7068 434.4909 L233.3891 436.1664 L239.249 437.1903 L245.1089 437.5627 L251.028 437.3765 L256.8879 436.4456 L262.6294 434.9563 L268.1341 432.9084 L273.4613 430.209 L278.4333 427.0441 L282.991 423.3207 L287.1935 419.1319 L290.9225 414.4777 L294.1188 409.5442 L296.7824 404.2383 L298.9133 398.6532 L300.3931 392.9751 L301.2809 387.1107 L323.2999 377.1507 L328.1535 380.4086 L333.3623 383.2012 L338.8671 385.4352 L344.4902 387.0176 L350.3501 388.0416 L356.2099 388.4139 L362.129 388.1347 L367.9297 387.2038 L373.6712 385.7145 L379.176 383.5735 L384.4439 380.874 L389.3568 377.7092 L393.9145 373.9858 L398.0578 369.7039 L401.7276 365.1427 L404.9239 360.1161 L407.5283 354.8103 L409.6 349.3183 L411.0206 343.547 L411.8492 337.6827 L423.0363 332.6561 L427.8899 335.9141 L433.0987 338.7066 L438.5443 340.9406 L444.2266 342.5231 L450.0273 343.547 L455.8872 343.9194 L461.8062 343.6401 L467.6069 342.8023 L473.3484 341.313 L478.8532 339.2651 L484.1212 336.6587 L489.0932 333.4008 L493.6509 329.7704 L497.8534 325.5816 L501.5824 321.0205 L504.7787 316.087 L507.4423 310.7811 L509.5732 305.2891 L511.1121 299.6109 L512.0 293.7466 L507.5607 265.0764 L505.1339 259.9567 L502.1151 255.2094 L498.6229 250.7413 L494.7163 246.6455 L490.3362 243.0152 L485.6601 239.8503 L480.6289 237.2439 L475.3609 235.1961 L469.9154 233.7067 L464.3514 232.7758 L458.0772 219.3716 L467.1926 198.7067 L465.8904 170.5949 L450.856 146.5789 L446.2983 142.6693 L441.4446 139.4114 L436.1766 136.6188 L430.6719 134.3847 L424.9896 132.7092 L419.1889 131.7784 L413.6842 118.7464 L416.9397 113.6267 L419.6032 108.1347 L421.6749 102.3634 L423.0955 96.4059 L423.865 90.3554 L423.9834 84.2117 L423.3914 78.1612 L422.2076 72.2037 L420.3135 66.3393 L417.8867 60.7542 L414.8088 55.4483 L411.139 50.6079 L407.0548 46.0467 L402.4379 42.044 L397.4067 38.5998 L392.0795 35.7142 L386.3972 33.387 L380.5965 31.7115 L374.5591 30.5945 L368.4624 30.2221 L362.3658 30.5945 L356.3875 31.5253 L350.4684 33.1078 L344.8453 35.3418 L339.459 38.2275 L334.3686 41.5786 L329.7517 45.5812 L325.5491 49.9563 L321.8201 54.8898 L318.683 60.1026 L316.1378 65.6877 L314.1845 71.459 L312.9415 77.4165 L298.2622 83.6532 L276.4208 75.2755 L247.4173 78.3473 L223.8002 95.4751 L211.8437 122.1906 L188.2858 132.43 L183.1954 129.4512 L177.7498 127.031 L172.1859 125.1693 L166.3852 123.9592 L160.4661 123.3076 L154.5471 123.3076 L148.6872 123.8661 L142.8865 125.1693 L137.2634 126.9379 L131.877 129.3581 L126.7274 132.3369 L121.9329 135.8741 L117.5528 139.7837 L113.6462 144.2518 L110.154 148.9991 L107.1945 154.2119 L104.8268 159.6109 L102.9919 165.2891 L101.8081 171.0604 L85.8266 177.4832 L80.6178 174.4114 L75.1131 171.8981 L69.3716 169.9433 L63.4525 168.7332 L57.415 168.1747 L51.3776 168.2678 L45.3401 169.0125 L39.4802 170.4088 L33.7979 172.4566 L28.3524 175.063 L23.2028 178.321 L18.4675 182.1375 L14.1466 186.3263 L10.3584 191.0737 L7.1029 196.1934 L4.4393 201.6854 L2.3676 207.3636 L0.8879 213.228 L0.1184 219.2785 L0.0 225.329" stroke-dasharray="" fill="none" fill-opacity="1.0" stroke="#ff0000" stroke-opacity="1.0" stroke-width="1.0px" stroke-linecap="butt" stroke-linejoin="miter" stroke-dashoffset="0.0px"/>
</g>
</svg>