<?xml version="1.0" standalone="no"?>
<!DOCTYPE svg PUBLIC "-//W3C//DTD SVG 1.1//EN" "http://www.w3.org/Graphics/SVG/1.1/DTD/svg11.dtd">
<svg width="64px" height="64px" version="1.1" xmlns="http://www.w3.org/2000/svg" xmlns:inkscape="http://www.inkscape.org/namespaces/inkscape">
<g id="layer" inkscape:groupmode="layer" inkscape:label="layer">
<path d="M0.0 37.9505 L0.133 37.9505 L0.0578 38.3867 L0.3297 38.4246 L0.2082 39.2496 L6.0853 40.2168 L5.2581 45.2616 L4.4309 50.3348 L3.8814 50.2495 L3.7773 50.9038 L3.7021 51.3969 L4.5235 51.5201 L4.3557 52.6296 L5.5416 52.8287 L5.7383 51.871 L31.2538 56.1856 L31.1439 56.9442 L32.5206 57.2192 L32.7809 56.233 L35.9103 56.7261 L35.8698 57.039 L36.7028 57.1718 L36.8879 56.214 L36.697 56.1856 L36.9747 54.7253 L42.5568 55.664 L42.4353 56.489 L43.2972 56.6028 L43.4476 55.7873 L48.0463 56.5364 L47.9017 57.4562 L49.3362 57.7028 L49.5271 56.783 L55.2249 57.6838 L55.086 58.5942 L55.7397 58.6985 L56.2545 57.9588 L57.0933 58.0821 L57.2495 57.02 L56.3991 56.8873 L57.5271 49.8701 L58.4006 50.0029 L58.5221 49.0262 L57.6312 48.8934 L58.0651 46.665 L62.0853 47.3857 L62.5423 47.5564 L64.0 40.1315 L60.8821 39.5341 L61.1482 37.9505 L59.7946 37.7513 L59.6095 38.9651 L56.8619 38.472 L57.0412 37.3341 L55.7339 37.116 L55.543 38.3298 L52.6681 37.9125 L52.8532 36.6893 L51.5633 36.4901 L51.3724 37.7324 L48.509 37.2772 L48.6941 36.0539 L47.3811 35.8453 L47.196 37.0875 L44.2343 36.6229 L44.4194 35.4091 L43.1121 35.2005 L42.8865 36.4048 L42.094 36.272 L41.4461 36.1582 L40.9776 35.9307 L41.0701 35.2384 L40.4281 35.1246 L40.6826 33.6074 L41.2957 33.7022 L41.4461 33.029 L41.6949 33.0669 L41.8742 32.0807 L41.6775 32.0333 L41.799 31.2841 L41.2899 31.2083 L41.5965 29.6247 L42.1056 29.71 L42.227 29.0367 L42.389 29.0652 L42.5741 28.0126 L42.4006 27.9747 L42.5394 27.254 L41.8915 27.1497 L42.1287 25.5566 L42.7477 25.6609 L42.8691 25.0066 L43.0832 25.0445 L43.9682 19.9713 L43.7137 19.9239 L43.8236 19.2885 L43.2451 19.1842 L43.517 17.5817 L44.107 17.667 L44.2169 17.0411 L44.4657 17.0696 L44.6565 16.0075 L44.3442 15.9411 L44.5177 15.2774 L43.9335 15.173 L44.1533 13.4946 L44.8069 13.6084 L44.9226 12.9067 L45.1887 12.9636 L45.3507 11.9774 L44.9342 11.892 L45.6804 7.9851 L44.2227 7.5774 L44.0723 8.4403 L40.1215 7.8145 L40.2025 7.1601 L38.6001 6.961 L38.4093 7.2834 L36.8648 7.0938 L36.7838 6.7429 L34.5683 6.4679 L34.3485 6.7903 L32.8156 6.5912 L32.6999 6.2403 L25.1396 5.3015 L24.3991 9.6636 L30.4382 10.4222 L29.8771 13.5894 L29.0325 13.4472 L28.9111 14.2153 L29.7325 14.3386 L29.6688 14.7937 L27.812 14.5851 L27.6153 16.3679 L29.4143 16.6239 L29.2408 17.8377 L28.7549 18.0463 L28.0607 17.942 L27.9277 18.7954 L28.5756 18.8997 L27.9219 22.6075 L27.2393 22.4937 L27.0195 23.3756 L27.731 23.4989 L26.979 27.4626 L26.3138 27.3583 L26.1345 28.2687 L26.7997 28.3824 L26.1056 32.0902 L25.5155 31.9859 L25.3594 32.9436 L26.0188 33.0479 L24.9487 37.666 L24.4338 37.5712 L24.1851 38.5005 L24.4743 38.5479 L23.9884 41.0513 L21.2234 40.6435 L21.2581 40.416 L20.7028 40.3401 L20.6681 40.5487 L14.82 39.6004 L14.8604 39.3918 L14.3514 39.2875 L14.2993 39.5246 L8.3239 38.5573 L8.3991 38.1401 L8.2603 38.1117 L8.3239 37.6849 L8.0752 37.647 L8.5033 34.7643 L8.7404 34.7832 L8.8156 34.3755 L8.9429 34.3945 L9.1453 33.266 L9.0065 33.2376 L9.0644 32.7919 L8.8156 32.7445 L8.8503 32.4884 L8.5727 32.441 L8.6189 32.2229 L8.1909 32.1471 L8.2256 31.9953 L7.3695 31.8436 L1.4519 31.5591 L1.4288 31.7678 L1.1916 31.7678 L1.1511 32.1186 L0.8503 32.0902 L0.7751 33.1238 L0.9602 33.1617 L0.8503 34.0341 L1.0239 34.0626 L0.6652 35.9686 L0.5322 35.9401 L0.3644 36.7936 L0.1851 36.7651 L0.0 37.9505" stroke-dasharray="" fill="none" fill-opacity="1.0" stroke="#ff0000" stroke-opacity="1.0" stroke-width="1.0px" stroke-linecap="butt" stroke-linejoin="miter" stroke-dashoffset="0.0px"/>
</g>
</svg>