<?xml version="1.0" standalone="no"?>
<!DOCTYPE svg PUBLIC "-//W3C//DTD SVG 1.1//EN" "http://www.w3.org/Graphics/SVG/1.1/DTD/svg11.dtd">
<svg width="512px" height="512px" version="1.1" xmlns="http://www.w3.org/2000/svg" xmlns:inkscape="http://www.inkscape.org/namespaces/inkscape">
<g id="layer" inkscape:groupmode="layer" inkscape:label="layer">
<path d="M37.529 341.899 L38.1937 342.3955 L38.8584 342.892 L39.1106 340.9425 L40.9386 339.7127 L40.3718 341.1703 L38.3361 344.8324 L40.0513 344.5454 L42.7517 341.0199 L49.4552 339.6489 L50.0161 342.1404 L51.571 343.0696 L57.8205 340.1636 L58.0015 341.6485 L60.6426 342.851 L60.9957 346.0895 L60.0995 346.3628 L61.1085 346.5131 L62.1412 346.3127 L62.7495 348.5081 L62.9364 349.2277 L66.8951 348.1072 L66.4588 345.0237 L68.0346 344.9462 L70.3907 347.3876 L74.3256 346.6907 L74.382 344.4452 L73.8508 342.3272 L69.2037 342.0175 L69.1711 338.3827 L72.4324 337.7267 L71.6371 336.2373 L73.0615 335.267 L73.1505 333.6409 L75.6105 333.2218 L79.0824 333.6272 L79.3377 335.094 L79.6759 335.8273 L78.4771 336.5607 L79.67 338.3417 L79.8303 341.7624 L81.4861 341.4026 L88.2697 336.0232 L88.154 334.7751 L79.219 333.9734 L79.219 333.6591 L79.9875 332.2562 L86.5189 331.6686 L86.4002 328.7578 L81.0736 324.4805 L67.3669 326.1067 L68.2542 319.5107 L87.1807 319.1645 L88.0858 320.9183 L89.5992 320.8454 L91.1155 320.7771 L91.7209 317.8435 L95.0741 319.6155 L96.9496 317.4608 L101.5848 316.4769 L101.7717 318.3036 L100.4838 318.3036 L100.1693 319.5472 L101.0566 319.9161 L106.1013 322.6675 L110.0806 320.8181 L122.5232 319.989 L117.7604 323.7654 L118.4904 325.2458 L117.0334 328.6622 L117.6477 330.7484 L113.7158 336.3602 L111.1934 338.7425 L108.7453 339.0568 L106.9648 334.0326 L108.4752 333.4314 L102.8459 325.4189 L103.7481 324.763 L102.4987 324.2254 L97.5431 323.1231 L92.1126 327.6373 L92.3085 329.2361 L91.2461 330.7074 L90.6289 331.1356 L92.4242 331.7369 L92.1334 333.2856 L90.7921 335.1167 L93.2729 335.5813 L92.4272 338.0228 L99.4185 336.342 L92.899 339.1433 L95.2552 345.2878 L93.5014 345.7433 L93.7863 346.8911 L95.3917 349.3188 L97.4689 352.7758 L97.1721 349.7287 L98.7775 350.6397 L99.0862 353.1038 L97.6588 355.4494 L96.1098 356.9615 L97.3799 357.1209 L109.7156 354.6933 L107.8521 344.5955 L108.8551 344.2129 L111.3032 343.68 L112.7514 343.5251 L112.0273 343.1243 L112.3003 339.3164 L113.79 338.6286 L114.9384 338.3189 L115.1224 339.5214 L114.2499 339.9678 L114.971 341.0609 L115.1253 342.2133 L114.0036 343.2017 L115.4785 342.9603 L123.179 343.3019 L124.6598 343.3247 L118.8376 337.9363 L116.7545 335.2261 L117.5141 334.4699 L119.7249 336.4559 L119.1195 333.7821 L118.4222 330.7211 L120.9 330.1289 L121.6122 329.9695 L124.2117 329.3682 L124.9358 329.1678 L124.1791 328.4071 L124.9209 327.865 L123.4046 323.7562 L124.9951 319.9617 L125.2563 320.5584 L132.5384 324.3029 L133.8174 329.2498 L129.9716 331.4545 L132.1616 331.3406 L132.7818 333.5498 L133.5593 333.0943 L135.2774 333.3448 L135.6187 337.3168 L136.862 337.1801 L137.5386 338.7334 L138.8473 338.2733 L138.1173 336.0642 L145.1057 334.1738 L146.5805 335.3172 L145.9662 337.2485 L147.358 337.7085 L150.1296 337.3213 L152.0525 336.1917 L152.6638 342.2133 L150.8091 342.2407 L151.4026 342.6734 L155.5482 344.764 L154.7232 345.8936 L151.6994 345.174 L150.3907 343.4249 L147.999 344.5363 L145.2451 345.4609 L146.5775 348.0845 L142.3519 348.2985 L141.2806 346.4584 L143.0492 343.9442 L142.4973 343.2518 L137.9392 340.1226 L138.782 342.2725 L139.1618 344.0353 L140.6337 343.803 L140.7198 345.7342 L133.1497 346.4584 L129.7401 348.8497 L130.3841 349.3279 L129.9093 350.8583 L130.0784 351.6964 L129.9864 353.4818 L131.5918 354.2242 L133.9895 354.4565 L133.7403 353.1766 L131.028 352.8578 L130.9212 351.6007 L134.2269 350.6716 L140.9631 351.5552 L139.7494 354.7343 L141.8177 358.3279 L143.613 359.9538 L143.1679 357.6993 L146.7289 357.6993 L146.4618 358.6786 L145.6903 359.1431 L146.4944 359.1067 L147.3788 358.1958 L147.6399 354.7389 L152.2068 353.377 L153.5125 353.336 L154.6615 353.2914 L154.8879 351.945 L155.2725 351.6882 L155.0517 350.7376 L155.6254 349.8426 L156.4841 349.481 L156.7797 348.3623 L157.3557 347.874 L157.8593 347.782 L158.8421 347.8927 L159.1923 348.335 L159.4979 349.4213 L159.6635 351.9045 L159.6074 354.4401 L160.1276 354.6988 L160.6849 354.8937 L163.4624 352.7986 L165.878 351.4459 L166.4804 349.0865 L172.9168 347.4605 L174.6439 348.2985 L177.2938 346.0348 L180.5551 338.533 L181.2999 325.3597 L180.2702 325.3597 L179.7331 322.0571 L180.4838 321.4877 L177.1306 321.7474 L174.7448 320.6905 L175.267 318.5313 L175.7418 316.2992 L169.0561 316.8094 L166.053 315.3471 L165.234 317.1602 L159.489 320.1029 L159.9341 324.394 L158.8213 324.4714 L160.3822 326.6534 L158.299 327.9379 L155.6313 326.9449 L151.9546 325.3825 L151.4768 326.1933 L153.6787 327.2501 L153.0348 328.5984 L150.6014 328.3524 L151.1504 326.1295 L149.2334 324.2254 L150.2898 324.2254 L150.3818 321.5151 L152.2513 320.8044 L152.0703 319.4378 L150.2542 319.4378 L150.4382 318.1259 L152.4175 317.7979 L158.9341 312.3542 L161.863 311.9123 L163.1241 313.8939 L169.8751 314.1991 L172.6082 311.188 L177.2552 309.4296 L177.4392 311.188 L178.3799 311.4476 L179.3621 311.147 L178.7568 294.3958 L179.8547 286.7829 L179.5532 280.767 L180.7272 280.4864 L181.0586 280.429 L180.7373 276.24 L179.9251 275.7835 L179.915 273.6512 L181.0999 273.5696 L182.2287 268.508 L181.6026 267.5011 L180.118 267.1744 L180.3209 264.9308 L182.002 264.8902 L182.2195 263.1948 L182.0729 260.8067 L178.8013 261.605 L177.4422 254.8886 L180.1456 254.4649 L177.1721 249.8444 L173.4776 239.9606 L165.053 238.197 L171.899 237.6137 L174.0533 238.7621 L173.7863 237.4998 L174.3768 234.6927 L174.9554 239.7054 L177.1632 241.355 L178.9289 246.3129 L182.7836 251.0975 L186.5034 259.9054 L193.0315 258.4555 L198.3715 255.8041 L200.0671 254.2607 L206.1495 253.101 L208.8282 253.266 L210.1582 253.5909 L211.1633 254.535 L212.6672 253.3398 L212.6942 252.6249 L215.7967 251.5714 L220.8414 245.4061 L220.7049 248.0581 L219.0194 251.0975 L221.3637 251.6124 L221.9008 253.7495 L222.6872 254.916 L223.4884 251.7764 L224.8297 252.6422 L227.809 251.2706 L230.4679 247.0511 L232.3938 246.3129 L232.9546 246.9736 L231.7409 247.5295 L231.0258 251.6944 L236.1981 253.3485 L244.3913 252.428 L244.8156 254.2142 L234.8449 254.597 L230.4442 252.9247 L225.5241 255.6541 L216.4733 255.9822 L215.6543 257.937 L214.5094 257.8199 L203.5619 256.7022 L191.1133 263.7192 L191.9739 265.3869 L189.1459 267.0454 L187.8521 267.0454 L187.1844 268.9272 L186.1665 273.0188 L185.3297 272.8274 L185.9915 274.8504 L186.4722 277.7527 L188.4545 277.7527 L185.0003 289.5893 L183.8311 298.5962 L185.2259 301.7169 L183.1664 303.3661 L183.2555 305.2976 L185.8965 307.1609 L186.5019 310.0719 L188.7334 310.2541 L186.8016 311.5843 L186.8876 316.6135 L188.2527 321.6973 L187.6889 323.3417 L189.1845 331.2176 L188.2616 333.8732 L193.0897 333.3312 L194.9295 333.3312 L195.0244 332.1787 L196.3301 334.6977 L203.4075 336.7474 L204.8913 336.7474 L204.1761 334.602 L204.8171 332.8802 L206.2771 334.7022 L208.5146 333.5088 L211.4049 332.3063 L207.5234 331.746 L211.8975 330.3248 L211.1348 329.5595 L214.2418 327.3776 L215.5742 322.1756 L216.9244 320.9183 L218.7241 318.5482 L220.3304 318.4061 L220.3835 316.644 L220.4646 315.3216 L221.7969 314.2707 L222.5655 315.2801 L222.2913 318.7723 L222.0044 321.4845 L223.9258 321.6453 L223.5955 323.1609 L220.4907 323.9079 L219.6334 325.8872 L219.4663 328.9687 L220.5414 330.9097 L222.0789 329.8374 L230.0881 329.8602 L230.9308 329.0084 L229.9664 328.9537 L235.0408 323.2916 L236.1743 323.2461 L243.7236 325.0454 L249.1808 317.9072 L252.1215 316.0213 L253.3827 316.0213 L254.1513 317.9892 L254.0949 319.8979 L255.3887 317.3788 L256.0297 319.0962 L253.7269 323.6515 L254.6706 324.5625 L255.3302 325.3588 L256.6155 325.7031 L263.8145 324.6655 L267.0882 323.8674 L269.4334 324.9584 L267.5277 326.9945 L263.44 328.8672 L264.5801 332.6944 L259.5803 331.7173 L257.1567 332.2922 L254.8896 334.4066 L252.7067 335.5094 L251.0532 335.6884 L246.9552 335.6223 L240.2783 332.156 L233.7173 333.3221 L229.6637 335.4948 L229.8447 337.3669 L228.0257 337.5992 L222.6219 335.0074 L214.8709 339.3255 L205.6331 340.5052 L208.8974 349.0455 L206.556 347.6882 L205.8557 349.2733 L201.4045 349.2869 L201.8971 349.9155 L209.5265 350.4803 L209.1941 352.8715 L212.2981 354.2834 L213.2002 357.0162 L212.4672 360.3227 L209.9508 361.3657 L210.0873 360.2089 L206.8943 361.5798 L204.7815 365.1004 L205.3364 369.09 L202.003 365.4046 L197.9631 355.6571 L196.9144 351.6918 L195.2678 349.8066 L194.2197 348.5231 L191.3151 350.3664 L188.5257 351.9423 L190.4931 353.7505 L189.8314 355.1943 L189.6296 357.1528 L188.131 358.2277 L190.7958 360.4913 L184.3861 361.2154 L183.5374 364.7041 L182.2406 365.0047 L179.6826 365.5877 L183.0804 366.4348 L183.0804 367.4914 L179.6678 367.4914 L180.1129 372.5421 L181.0744 374.1042 L183.3475 378.326 L185.4603 376.8185 L186.4633 382.6387 L182.9112 384.6379 L179.5491 380.2432 L179.8162 377.324 L177.7033 376.0534 L178.5787 374.4139 L176.0356 372.0457 L177.8932 371.4218 L176.4362 369.2312 L174.6528 366.5805 L168.4982 367.9468 L166.3795 365.0412 L164.3111 366.8037 L161.8897 365.7835 L162.3081 367.3457 L156.7085 369.8141 L155.753 367.7738 L154.4354 368.1154 L152.9932 368.4615 L153.3226 371.5948 L158.7768 375.9532 L159.2041 378.5354 L159.0439 380.1658 L155.3167 381.5093 L156.8064 384.5741 L161.0499 386.6644 L158.4385 388.0853 L160.7264 389.3285 L159.3377 390.9815 L160.8244 392.3113 L161.1063 397.7121 L163.4951 400.508 L161.5395 400.0162 L162.3081 402.029 L159.8659 403.5818 L158.7501 405.0389 L157.3168 408.0078 L155.9073 402.0517 L159.2101 401.0773 L157.1833 397.5436 L155.931 395.6264 L156.5334 395.1346 L155.6639 393.8596 L154.7915 392.5845 L155.3345 390.7311 L154.1594 390.426 L154.5927 389.0689 L153.6668 389.3922 L152.3671 386.4959 L153.1 385.8174 L152.4383 384.3419 L148.2927 376.0534 L149.1118 374.8967 L148.364 373.3027 L146.5419 371.9045 L145.2214 374.3319 L141.3667 377.4151 L142.794 378.6994 L140.5922 381.4045 L140.0016 380.4983 L134.6988 383.8318 L134.1112 384.1871 L134.8264 387.0196 L135.6009 386.7965 L136.3487 390.7174 L133.2862 390.3668 L134.1468 393.7366 L129.8024 386.2409 L129.7935 383.718 L127.838 384.3692 L120.7338 386.6781 L107.3357 387.6299 L97.2463 392.7029 L71.2869 400.0527 L62.0818 407.4204 L58.9304 407.6162 L58.4467 409.1781 L58.4467 410.5259 L61.3014 409.8429 L65.1977 410.5214 L72.1653 406.2593 L70.5658 406.4961 L69.7468 404.9569 L74.4532 402.2521 L76.7292 404.11 L78.7798 402.7849 L81.0083 406.9104 L80.8184 408.4768 L78.9014 406.9241 L76.4444 408.3903 L76.6936 409.6653 L81.9104 411.0496 L82.038 413.0804 L86.0501 410.7263 L84.0411 409.9112 L89.884 408.4677 L91.4063 410.3848 L87.1569 413.6632 L88.0027 414.1322 L88.8514 414.6741 L87.5308 418.1529 L91.4598 419.6145 L89.9107 422.8154 L87.8662 420.2019 L88.4181 418.9178 L87.4596 420.1427 L85.5367 421.2263 L83.9669 421.5223 L84.1598 423.1068 L87.0827 422.5377 L87.0827 423.3208 L87.0827 424.1085 L86.0827 425.1239 L85.2963 426.3851 L85.8958 428.434 L79.6937 431.5529 L79.9964 433.8613 L83.2725 433.5426 L91.3114 433.233 L94.0385 428.5934 L90.528 427.5052 L92.4094 423.2753 L98.7301 427.9286 L106.3772 427.8012 L105.5909 430.3327 L101.6946 432.6274 L100.2138 434.4031 L95.3145 434.4076 L94.6845 434.8051 L89.8573 437.8497 L87.3023 437.959 L84.1895 435.6825 L81.8511 435.8191 L84.5752 437.9134 L85.786 439.5024 L83.4891 440.677 L85.6969 441.7561 L87.2133 443.3086 L81.3407 443.3086 L79.8303 441.5831 L79.4089 443.2403 L74.563 443.8777 L72.9071 446.0448 L69.5984 443.3769 L69.1889 443.7639 L65.4202 443.172 L65.0374 444.3921 L65.2837 446.4136 L60.3726 447.7339 L59.8978 449.7371 L59.2627 450.3608 L66.1947 449.1953 L72.097 450.1832 L72.1564 452.1135 L72.2869 452.9239 L67.1176 452.7099 L56.4703 455.2685 L59.5595 455.9423 L61.5625 454.8679 L69.7468 454.8223 L72.3789 454.8997 L73.3582 454.0029 L72.6519 453.1697 L82.2072 454.7586 L82.7829 456.9484 L79.9282 459.2201 L73.9517 458.1958 L69.7498 455.8467 L68.5865 461.0638 L67.6814 459.129 L65.3253 458.56 L64.6695 458.56 L65.1264 459.6253 L61.5714 460.381 L58.1677 461.3415 L58.3665 463.7407 L58.4734 464.7058 L62.0996 464.7741 L64.5626 463.5267 L67.0354 467.6325 L68.1426 468.3017 L68.7126 468.7068 L69.2414 469.219 L69.3489 469.7065 L68.7788 470.5327 L67.6467 470.144 L64.9039 468.5165 L67.0684 470.2022 L67.2336 470.7308 L66.9942 471.1191 L63.5819 468.7974 L63.235 469.9296 L66.0606 472.0609 L67.6518 472.8043 L68.3325 473.4985 L70.4056 474.3612 L76.4954 478.398 L82.3944 481.0746 L83.3363 481.6036 L83.682 482.1453 L85.1153 483.1012 L85.9818 481.7583 L86.8513 480.4109 L86.9964 480.2817 L87.2195 479.8274 L87.4715 479.7236 L89.062 480.9094 L90.987 483.0661 L92.185 482.8595 L94.3661 482.0082 L96.3656 480.8188 L95.2997 479.4636 L93.986 480.2484 L92.9782 479.4473 L92.5726 478.2487 L92.7218 477.9269 L92.6082 477.4339 L92.8046 477.1339 L92.3749 476.8858 L92.4411 476.6545 L92.8871 475.7705 L94.0978 474.6343 L94.7709 472.9864 L95.6964 472.3668 L95.9855 473.2509 L95.3988 475.0599 L96.2415 473.9697 L96.4893 473.8622 L96.7787 473.9697 L96.9852 474.5892 L96.8448 475.4073 L97.9932 476.1506 L97.9188 476.5307 L98.1832 477.0761 L98.6953 477.3324 L98.9351 477.8772 L99.5464 478.9761 L100.5708 479.943 L100.3809 479.0754 L99.72 477.3733 L98.9351 476.0104 L98.1419 474.556 L97.5552 473.6474 L96.9686 472.4907 L97.5223 471.689 L98.3206 471.0289 L98.8856 470.5655 L99.315 470.5327 L100.2156 470.103 L100.761 468.8721 L104.0715 465.2293 L106.9589 464.6284 L106.3387 461.1777 L107.1132 458.4006 L101.5165 459.7391 L101.3266 458.3324 L107.5286 455.6691 L107.4574 453.0969 L108.2794 453.5522 L108.9115 451.9861 L109.861 448.8129 L111.8611 449.6414 L111.8611 446.9553 L110.9916 445.8763 L111.4902 443.7411 L112.7632 443.8595 L113.974 440.4494 L114.2526 439.079 L113.8232 437.7158 L113.633 437.1212 L113.1787 436.5425 L114.6823 434.8324 L115.7978 433.7666 L116.6073 433.3946 L117.0619 433.0477 L118.8961 431.6927 L120.8294 430.4533 L121.2092 429.1976 L121.6472 428.4705 L126.6243 422.9065 L128.8054 422.3146 L129.5947 423.2116 L130.8678 422.8773 L133.1052 420.7437 L133.5029 421.5724 L131.9806 423.6987 L131.636 424.2406 L131.5286 424.8188 L133.3711 424.4801 L132.3693 427.6646 L131.117 426.9178 L131.2313 425.2154 L130.6197 424.8685 L130.314 425.0501 L129.3392 426.4216 L129.3888 427.3472 L129.2069 428.2642 L127.3365 428.1973 L125.9518 428.3384 L125.1503 429.0492 L122.8948 430.3627 L121.3499 431.5524 L117.1616 433.8872 L116.2417 435.952 L115.8785 437.0529 L115.6209 438.2831 L116.101 438.9037 L117.1352 438.732 L117.1678 438.0386 L117.2186 437.6434 L117.318 437.0552 L117.4316 436.63 L117.4595 436.3436 L117.8937 435.7417 L118.2753 435.0542 L118.5071 434.7578 L118.7014 434.6831 L119.0281 434.3494 L119.3783 434.3676 L119.557 434.6271 L119.6418 434.796 L119.6685 435.2336 L119.7359 435.3014 L119.943 434.8639 L120.2291 434.5338 L120.6674 434.2069 L121.2267 434.2761 L121.7179 434.7295 L121.9968 434.7291 L122.5674 434.6494 L123.2592 434.6371 L123.812 434.5875 L124.1215 434.4737 L124.4788 434.2032 L124.9189 434.0971 L125.5551 434.1795 L126.1501 434.287 L126.6376 434.4523 L127.2985 434.7746 L127.8107 435.5677 L126.3498 435.4703 L125.7115 435.5272 L125.6667 435.6711 L125.3495 435.6993 L125.0082 435.8245 L124.7174 435.9657 L124.4785 436.0444 L124.1666 436.13 L124.0064 436.1778 L123.4758 436.3358 L123.3084 436.4378 L123.223 436.4897 L123.2292 436.7442 L123.2179 436.9382 L123.2698 437.0611 L123.3894 437.1613 L123.5639 437.2359 L123.8375 437.2241 L124.104 437.4549 L124.3755 437.7431 L124.5002 437.9458 L124.9141 438.0855 L125.1135 438.162 L125.6233 438.1329 L125.7613 438.5768 L125.8162 439.3326 L125.9438 440.7253 L125.1192 440.9894 L124.8824 440.6779 L124.4135 440.3825 L124.2188 440.4986 L123.8705 440.637 L123.6467 440.8883 L123.6713 441.3099 L124.1918 441.9213 L124.9913 442.5464 L125.1474 442.734 L125.3049 443.2621 L125.4952 443.5125 L125.691 443.5485 L125.7966 443.6295 L125.8444 443.772 L125.8447 443.8016 L125.8061 444.0147 L125.8616 444.1768 L125.8661 444.3962 L126.0456 444.3553 L126.2234 444.1873 L126.4038 444.2369 L126.5534 444.4413 L126.6094 444.613 L126.6332 444.7878 L126.5916 444.8734 L126.4421 444.9895 L126.2263 444.9212 L126.0082 445.086 L125.9418 445.2604 L126.1616 445.4752 L126.4815 445.6719 L126.9201 445.9738 L127.1284 446.1163 L127.5486 446.5101 L128.3122 446.9886 L128.5297 447.1252 L129.4819 447.3728 L129.9437 447.5864 L130.3143 447.5162 L130.652 447.3956 L129.711 446.2752 L129.8514 444.0693 L130.2398 442.4831 L132.0904 442.2519 L133.2471 442.1526 L133.5693 441.3513 L132.2248 440.1443 L131.9633 439.695 L131.7577 439.4546 L131.3577 438.4589 L131.2583 437.8961 L131.198 437.5401 L131.3411 437.3052 L131.3485 437.1567 L131.2553 436.8936 L131.0752 436.803 L131.0322 436.6422 L131.0924 436.4437 L131.2298 436.2835 L131.3541 436.1159 L131.5194 435.9452 L131.828 435.7735 L133.3216 433.5353 L135.589 433.579 L134.445 435.3692 L133.7593 435.667 L134.0863 436.721 L133.1144 436.9742 L132.1933 437.128 L132.3019 437.8187 L132.3174 438.7903 L133.0043 439.4614 L135.04 439.4259 L135.7092 439.038 L140.8236 435.8874 L142.0611 434.0343 L139.3399 435.1043 L139.5535 433.7566 L141.6159 433.3104 L146.1947 434.0343 L139.3844 438.4962 L143.156 438.5281 L143.4498 439.3704 L137.3873 441.1642 L134.7166 444.078 L135.1474 445.788 L134.5442 446.2752 L132.3456 447.4971 L132.2969 448.1591 L132.4375 448.9276 L131.8426 449.7207 L130.9865 450.8889 L127.4403 448.7036 L125.2118 447.2331 L125.1287 447.4334 L125.5768 447.8295 L129.4998 450.2378 L131.0695 452.1864 L133.0281 455.5052 L134.0697 455.396 L134.4376 455.141 L135.9403 455.1488 L137.279 454.8182 L138.8817 454.6776 L139.1618 452.1727 L142.1412 452.3002 L141.2391 454.4809 L142.129 455.3436 L142.3252 455.3477 L142.7145 455.8162 L143.0825 456.2864 L143.4979 456.5555 L144.0092 456.9256 L144.3128 457.161 L144.689 457.2366 L144.9888 457.4287 L145.3864 457.7428 L146.0051 458.3437 L146.3398 458.6856 L146.4039 459.1614 L146.2959 459.577 L145.5573 459.8415 L144.4834 460.7092 L141.9967 462.5183 L143.3163 462.771 L144.4531 463.2349 L145.1238 463.2463 L145.4229 463.173 L146.0315 465.1169 L145.465 464.9794 L144.9389 465.0199 L141.7869 465.6467 L141.4578 465.959 L140.8358 466.4803 L139.5817 465.4624 L139.3384 465.4924 L139.0995 465.5712 L138.8099 465.7246 L138.4164 465.9076 L137.7793 466.3469 L137.8826 466.6788 L138.057 466.9382 L137.1362 467.3657 L135.4196 467.9712 L135.297 467.7481 L135.1833 466.743 L135.0074 465.822 L134.7465 465.1014 L134.4789 464.6238 L134.8201 464.5219 L135.4285 464.3102 L136.032 464.1663 L136.6905 464.0175 L140.8482 463.7079 L141.5091 462.5347 L140.7402 461.8983 L139.796 462.2948 L138.768 462.395 L137.376 462.5484 L136.3579 462.7583 L135.7116 462.9108 L135.446 463.0127 L135.4771 463.3783 L135.1403 463.8126 L134.437 464.2947 L133.4987 465.0772 L132.9447 465.3936 L132.6794 465.421 L132.2877 465.1719 L131.155 464.4203 L129.803 463.6451 L129.1214 463.0719 L128.4689 462.3417 L127.9119 461.9315 L127.5454 461.545 L127.365 461.4499 L127.1454 461.4244 L126.7913 461.5423 L126.3596 461.5728 L126.0073 461.6206 L125.4177 461.7189 L124.7892 461.7504 L124.0817 461.8136 L123.5259 461.9661 L123.3188 461.4044 L123.1247 461.0033 L122.936 460.2799 L122.9399 460.0332 L123.4684 459.7068 L123.9188 459.3826 L124.4144 459.2852 L124.6969 459.1445 L124.9928 458.9702 L125.2429 458.5868 L125.8222 458.2509 L125.918 457.7997 L123.9595 455.8831 L123.1013 456.7267 L122.3826 459.0403 L120.8128 459.2547 L117.2767 460.035 L115.2443 459.5442 L114.2858 459.643 L113.187 459.5442 L112.2534 459.9904 L111.8611 460.686 L112.3597 463.1762 L112.9888 461.7089 L112.8997 460.6131 L115.0375 460.9323 L114.6327 461.3616 L115.0274 461.9243 L113.6119 464.4691 L113.7158 465.6254 L114.4577 467.1504 L115.6737 466.3355 L116.7248 466.5313 L117.6486 466.6246 L119.6727 467.8473 L119.0531 469.0455 L118.1937 469.4748 L116.6322 468.3349 L115.5995 468.2602 L114.4924 467.9466 L113.5917 468.4505 L113.4926 470.103 L111.8831 473.6328 L110.0213 477.7161 L111.3445 478.6456 L111.2783 479.0175 L111.7492 479.6371 L110.321 481.1302 L108.5227 479.76 L107.582 481.6764 L107.3458 482.6446 L106.7758 484.3384 L106.379 485.4291 L107.0152 486.3294 L108.1518 488.6045 L107.2052 489.0278 L107.3224 489.0952 L109.7097 490.4662 L110.6474 490.9942 L110.4783 492.8332 L111.6386 493.5432 L112.5261 493.3521 L113.1787 493.6743 L114.0867 492.56 L114.9138 492.6829 L115.6348 494.0535 L117.1444 494.0794 L120.3748 493.9224 L120.8463 493.4631 L121.0027 492.3029 L123.1669 491.4162 L123.2963 490.6747 L126.2415 490.3752 L126.5961 490.8736 L128.0089 491.3529 L128.7787 491.9046 L133.8204 490.8986 L134.2385 490.9478 L135.1225 490.9728 L135.3374 491.113 L135.6762 491.2286 L135.7421 491.4107 L136.0148 491.3279 L136.1635 491.6501 L136.592 492.1322 L136.8057 491.108 L137.4348 491.108 L138.0846 492.0411 L138.42 489.9883 L141.129 492.2369 L141.5753 492.8068 L141.8892 493.8559 L141.4842 494.9962 L138.8354 494.1486 L138.1974 495.2046 L137.6751 494.8997 L137.3012 491.3584 L135.3783 494.5219 L125.9931 493.3439 L122.0603 493.5091 L121.4282 494.1987 L118.4085 494.6079 L114.5419 495.0044 L114.955 495.9052 L120.3585 495.1864 L121.6555 495.6075 L125.894 495.8473 L146.5538 496.8751 L149.8566 497.2984 L167.3201 497.3986 L183.0804 501.6817 L197.0394 501.6908 L210.3544 505.8828 L220.2628 512.0 L220.7672 511.29 L217.3695 508.1768 L217.503 506.3607 L219.2716 506.3607 L220.4705 499.6335 L224.1591 497.9357 L224.7318 496.2697 L226.0345 496.6885 L226.3075 498.1177 L229.5895 498.4045 L229.9456 498.3954 L231.3908 498.3271 L231.5243 495.8282 L230.4857 494.9725 L230.2008 495.9466 L224.9158 494.8997 L222.0492 492.1914 L221.8622 485.9098 L227.5182 484.7308 L225.9692 483.2377 L223.0789 480.6385 L221.2124 480.6385 L221.058 479.6052 L223.3341 479.0499 L225.4974 476.3049 L226.1829 475.1714 L221.7791 479.2729 L220.8533 479.414 L220.6189 480.0832 L221.064 483.0147 L218.2894 482.7279 L217.4288 484.9538 L214.9124 484.1026 L213.6691 485.4682 L207.7104 483.2787 L207.7104 482.0724 L207.7104 480.8661 L209.473 480.8661 L208.8232 480.4064 L211.939 478.0939 L214.4287 476.3914 L211.1971 477.0879 L208.4552 479.9876 L203.0693 475.1214 L195.2292 473.4917 L191.3092 469.7406 L190.2023 466.9137 L195.2648 464.8287 L194.6743 464.4235 L195.2915 462.4705 L199.8199 460.8044 L200.449 464.7058 L205.9418 464.1868 L206.3008 461.3962 L202.363 460.8044 L203.096 458.4462 L198.1403 458.1457 L194.7989 459.7027 L194.4309 458.6783 L200.2234 455.3641 L202.3541 455.9832 L202.5173 454.2351 L203.6301 453.7479 L204.2236 453.361 L207.9478 453.3245 L208.9181 454.8633 L208.6629 456.912 L212.4405 457.654 L213.0756 457.4218 L210.9194 452.2975 L209.4814 450.2183 L207.1804 449.7339 L202.0781 450.2788 L201.1078 450.1058 L197.9919 449.341 L199.897 451.1575 L198.0335 452.0453 L194.5437 454.2351 L193.8375 457.5948 L193.0956 457.7451 L191.3715 455.5781 L191.1252 453.4566 L187.9025 453.0832 L185.2288 449.819 L184.7214 450.4108 L186.1962 454.3671 L185.5285 454.7358 L187.1102 455.487 L189.3121 458.7967 L190.1281 462.3158 L185.7837 464.4827 L184.3416 461.3461 L186.1873 461.0775 L183.9825 458.9151 L183.8549 457.085 L183.3742 455.5872 L181.8934 455.8876 L181.5788 454.8997 L180.8548 453.4019 L182.6649 452.8101 L179.3888 451.2759 L174.8457 445.8217 L175.0866 443.9259 L176.2582 443.1765 L175.5813 443.0058 L173.9741 443.5139 L173.3946 443.0946 L175.389 442.0579 L173.5895 441.1237 L171.7862 441.1505 L170.1013 440.2969 L167.832 440.3784 L165.1002 440.9866 L164.0945 440.2491 L166.5857 438.9865 L165.5863 438.0983 L164.0651 437.2523 L162.339 436.3336 L161.6354 435.3437 L160.2457 433.8613 L158.1892 434.0115 L158.029 431.8215 L160.1685 430.788 L161.9698 434.5898 L164.234 436.2562 L165.4239 436.6568 L166.7937 436.1487 L167.6338 436.3112 L168.3855 435.5641 L169.1392 432.6092 L173.9791 431.4755 L177.198 432.4294 L179.0657 430.4984 L180.8393 429.8642 L180.8809 428.1212 L181.9468 426.937 L184.7077 426.1074 L184.9508 426.774 L185.5018 427.3732 L188.1022 427.4 L188.0835 429.9092 L186.2022 429.8045 L183.5611 433.4583 L182.1106 434.7669 L184.2582 434.6735 L188.1993 434.6763 L187.3832 435.3456 L188.0865 435.4139 L189.0747 435.5687 L190.8664 436.0217 L193.3193 435.5541 L194.0283 437.3443 L195.3449 438.2549 L192.324 439.6435 L187.3921 440.331 L188.1993 441.0367 L184.9885 441.3053 L183.5255 439.6526 L183.2406 441.3691 L184.5315 441.4283 L185.8164 443.6136 L186.7719 444.8565 L189.0153 445.6715 L189.0153 447.4061 L187.6918 448.7628 L188.7839 449.1862 L189.7542 449.473 L195.3153 451.0755 L196.434 448.7719 L189.6177 447.0965 L189.9263 446.5274 L188.6117 445.2708 L186.5019 444.0052 L185.122 441.92 L185.3268 441.6058 L187.7126 441.5512 L194.6238 439.516 L200.0246 437.7905 L199.9208 441.9837 L192.5199 442.9671 L192.1994 446.0266 L199.5943 447.2695 L200.0543 448.9176 L204.4462 447.875 L205.559 447.6337 L207.0219 443.946 L207.2118 443.3404 L207.4047 442.9853 L208.8974 446.4682 L210.6482 448.0799 L211.6731 447.7717 L214.9388 450.8538 L216.4576 451.295 L217.2152 451.2759 L218.3621 453.6619 L216.6487 454.3926 L217.1822 456.5833 L219.2888 455.6983 L220.272 458.0997 L220.0331 459.6867 L221.3963 461.9871 L221.7593 463.0387 L222.018 463.9073 L222.7718 464.7285 L220.7497 464.6903 L221.699 465.5298 L224.6677 465.4164 L225.5383 466.5823 L228.7052 467.6694 L230.9724 470.5646 L233.0348 470.3142 L239.0706 476.9286 L239.8748 476.4278 L241.949 479.7281 L243.1844 479.4454 L243.3022 479.018 L249.2579 476.223 L248.6377 475.7132 L250.436 471.0699 L248.6525 469.0077 L249.1808 467.6238 L249.9671 466.7543 L256.5549 467.2096 L257.4006 468.6026 L258.0297 466.7134 L258.558 467.4508 L258.9645 466.1489 L257.5282 466.3674 L255.5015 465.0381 L254.5608 464.4599 L255.4985 466.2763 L254.4539 466.5768 L252.8901 466.0032 L250.068 465.9941 L242.136 471.3339 L237.9875 467.1458 L239.3881 465.7346 L236.4651 464.856 L236.6966 462.9531 L238.0023 463.5449 L239.6225 463.7771 L239.0261 462.6617 L241.9639 464.6102 L242.5692 463.5722 L245.7682 464.4144 L247.0026 463.6633 L246.7445 462.7209 L248.2282 462.202 L250.2758 462.3021 L249.1184 460.0486 L250.5636 460.4402 L251.4983 461.0593 L250.8663 459.7027 L251.9435 459.2429 L253.3441 460.6268 L254.0177 461.2095 L252.7506 461.856 L256.0059 462.7938 L256.7389 461.8742 L257.4719 460.95 L255.2641 460.604 L256.8754 460.0714 L257.7834 459.7209 L257.3739 459.7072 L254.8189 459.9667 L253.632 459.2337 L255.2314 456.261 L257.5253 456.8619 L258.1574 457.1533 L257.8576 455.2594 L259.0298 450.8388 L260.6738 450.3653 L260.7865 448.7719 L261.5937 443.3905 L256.8457 440.9183 L257.3858 439.8985 L262.0299 438.997 L263.7214 435.1452 L264.8253 435.1134 L266.8253 428.7254 L266.3327 427.2092 L267.7868 425.3106 L265.855 425.4973 L261.7124 422.433 L264.3801 421.8729 L272.5603 427.232 L275.2945 426.9953 L280.1582 424.9828 L277.0008 427.8649 L277.0008 429.331 L274.4042 430.9018 L279.4489 432.4089 L284.0129 432.4407 L286.8676 434.8812 L284.9299 434.8857 L283.728 438.6055 L275.3271 442.1886 L274.8761 441.1915 L274.2826 442.9899 L273.6624 446.0448 L273.6386 447.2968 L276.1105 448.7036 L277.6744 445.9811 L280.4876 451.4398 L279.2264 451.3897 L278.6863 454.1121 L279.538 456.2245 L271.0658 457.9818 L271.0658 459.7027 L272.2053 459.7027 L272.7009 460.5358 L271.14 461.1094 L267.7096 459.7072 L264.5522 461.1685 L263.8964 461.6784 L269.0806 462.202 L272.0659 468.4023 L271.3567 470.2915 L273.0333 468.9895 L276.4221 471.6799 L276.3242 472.1442 L277.4667 471.4523 L280.5291 471.079 L282.1197 475.1532 L283.4283 475.9499 L284.737 476.751 L285.283 474.6206 L282.6241 472.736 L285.5708 472.7315 L286.1851 471.1336 L289.1733 470.551 L293.2863 471.0107 L295.0282 473.5827 L297.687 473.5827 L296.2151 475.877 L298.6188 474.2383 L299.7286 473.3005 L302.3637 472.5676 L302.3845 470.683 L307.1295 469.0305 L308.6785 469.0123 L307.8239 467.8196 L307.4173 465.7847 L304.0196 465.853 L302.2985 465.2384 L300.8058 467.4417 L300.147 466.7361 L300.7316 464.9789 L297.9452 464.1231 L296.7552 464.2961 L295.5534 467.3552 L292.7669 467.9425 L290.7253 465.2156 L283.0099 463.1807 L281.3778 461.5828 L282.4223 459.3567 L282.0306 458.0911 L285.6391 455.3277 L291.0488 453.7206 L294.8798 454.7586 L298.7761 458.1047 L300.3043 455.9377 L301.2836 450.3653 L304.1175 450.9936 L307.4351 454.012 L302.0937 456.1927 L303.2866 457.308 L303.7021 458.5236 L302.7436 459.4659 L303.6487 460.4265 L306.8238 458.997 L307.8951 459.3066 L307.536 456.3201 L308.1058 456.0743 L310.0881 456.789 L314.9992 453.8344 L311.002 453.2881 L310.2394 451.7721 L314.5393 451.1029 L315.2663 449.4002 L317.0735 447.4835 L314.6965 442.4754 L319.2368 440.973 L322.1004 443.2403 L323.8868 439.4386 L325.8156 439.5616 L325.4417 440.8136 L325.0678 441.9427 L325.7593 441.9427 L326.2608 443.6591 L320.7769 450.4609 L328.2786 448.089 L333.1097 445.3437 L334.1424 446.3271 L333.4777 447.4061 L332.5666 447.4425 L333.1601 447.7885 L335.0178 448.0343 L338.4304 447.1284 L341.6768 443.0354 L344.846 443.996 L344.6502 446.6321 L346.1636 447.4653 L346.3001 449.5231 L345.03 450.857 L345.7956 450.6157 L347.1577 450.4017 L349.2587 449.8144 L355.0423 447.0646 L353.609 444.9931 L350.4189 446.4864 L349.4901 445.1616 L350.2973 442.9034 L353.4072 442.3388 L354.8227 442.1704 L353.2914 441.2052 L352.9977 439.0881 L353.8582 438.7056 L359.6003 445.2754 L359.3599 442.3935 L362.2206 444.4741 L365.0189 444.4604 L371.3515 439.6663 L373.0281 431.6986 L362.4461 431.949 L357.1373 426.7858 L359.0454 424.5229 L359.8733 423.3208 L361.5707 424.3817 L361.0069 422.8792 L360.1641 422.1461 L360.0157 422.0232 L360.0157 422.7107 L357.8643 421.7955 L363.2058 419.5553 L362.3244 417.9252 L363.4402 415.9445 L376.6336 425.4062 L384.3549 425.6657 L383.5982 428.3202 L377.2716 431.1568 L378.598 432.0401 L383.0492 428.7391 L384.9425 430.2735 L387.4203 429.3401 L387.6547 429.5678 L385.9811 430.6332 L390.1355 433.1556 L392.9932 433.0008 L395.388 435.5869 L399.2605 434.9085 L400.3733 434.7537 L398.7145 434.1481 L396.9667 431.6713 L398.1032 430.6651 L401.409 429.2308 L401.8214 432.4407 L403.7859 433.6837 L405.4833 432.8869 L412.3916 431.9308 L419.9467 433.447 L421.8786 434.3849 L426.1102 431.4118 L429.4634 432.8141 L428.2942 431.6212 L419.6619 428.2883 L413.8219 422.1507 L409.1808 425.7796 L409.0235 422.8336 L405.8068 419.3458 L412.1067 419.7511 L410.3618 417.2422 L409.9523 416.0401 L407.2994 417.5837 L403.5633 415.1568 L403.2607 417.2422 L401.0232 415.0338 L403.0351 412.2198 L404.7503 410.4485 L402.7236 410.2982 L400.9668 408.2765 L399.2071 406.2593 L398.1952 406.9059 L395.3286 403.3996 L393.3998 400.9907 L390.919 403.0672 L388.7112 399.9206 L391.9754 395.845 L387.0523 387.5524 L385.7556 388.9232 L383.9484 386.0997 L385.4737 384.228 L384.711 382.6387 L378.9333 378.9317 L378.3517 378.6493 L375.5356 375.1198 L379.1233 372.0457 L374.1439 372.0457 L372.5652 371.7497 L373.1468 370.0828 L372.1349 370.347 L365.6539 374.168 L357.4429 376.5999 L356.8613 375.3749 L359.9326 372.0457 L361.4193 374.2454 L362.8853 373.5167 L372.399 368.2793 L370.8233 364.6859 L368.844 358.3825 L363.182 355.3264 L364.1049 354.8482 L362.7547 353.1174 L355.8999 350.8674 L356.1432 350.2981 L354.79 349.0683 L354.2945 347.9068 L355.5912 347.9068 L355.7159 346.5632 L354.9532 347.6791 L354.1936 347.6791 L354.7158 346.8274 L355.2411 345.9802 L354.0482 345.1876 L354.3034 346.7681 L353.5615 346.4949 L353.7425 345.4017 L352.6891 345.4017 L347.9559 337.0845 L349.2409 333.9188 L348.0094 332.6661 L346.2437 334.7068 L341.8519 328.6622 L343.3504 327.4961 L340.4809 326.6351 L339.4957 325.8152 L343.9914 315.1193 L355.2233 318.1851 L355.5349 319.0871 L353.4487 320.1485 L347.6711 318.5222 L344.1843 319.0871 L343.2021 322.0799 L353.2707 324.5489 L352.9532 325.9291 L356.796 328.2158 L356.437 330.0788 L363.3927 339.0249 L365.3572 340.8241 L364.0604 330.7575 L368.381 332.0557 L367.3662 334.1784 L368.5413 334.8844 L369.1318 333.8003 L369.7253 332.7162 L368.568 332.1332 L369.4998 329.2316 L371.9598 329.8465 L372.0993 325.3597 L374.1854 325.9336 L373.9628 325.059 L367.3276 317.9983 L367.4878 316.5087 L365.553 316.7365 L365.1762 311.4476 L367.1377 308.7189 L365.5441 306.1769 L367.0516 306.8557 L367.651 305.3341 L368.2505 303.808 L367.0279 303.5619 L366.7222 300.3092 L359.7902 297.6395 L363.4788 293.8855 L367.8083 298.0495 L369.5116 296.1908 L368.1407 293.3981 L368.111 291.4208 L362.4461 280.6094 L362.1582 277.329 L363.7488 271.3603 L363.9429 273.5022 L364.5011 273.3072 L365.0616 266.3492 L365.0367 264.143 L363.596 258.6957 L361.5312 256.0843 L360.7377 254.8011 L359.1483 254.2748 L358.6002 253.3211 L360.395 254.2402 L361.0825 253.9181 L361.3366 251.8215 L363.1565 249.1239 L363.8797 246.1351 L365.4913 243.6886 L365.7809 241.5013 L365.607 238.3123 L365.1486 236.598 L364.8061 232.128 L365.186 231.2029 L365.5254 228.1373 L364.9239 224.3429 L365.3714 222.9994 L365.9406 222.1322 L367.2178 220.883 L369.136 220.5918 L371.1055 221.1054 L372.8696 222.0132 L373.6231 222.0474 L374.4281 221.4481 L375.4246 220.1848 L377.4728 218.7442 L380.007 209.7091 L379.0393 208.5669 L381.4872 205.2813 L383.6635 203.7203 L387.5301 203.0267 L394.3983 199.896 L397.5195 196.448 L398.5554 193.6248 L398.2836 191.9111 L397.6412 192.7675 L396.437 192.9279 L396.1426 191.9111 L396.7313 190.7871 L397.3201 188.4055 L397.0319 185.5577 L398.6195 184.7874 L400.7591 186.1183 L401.7591 183.3242 L401.7087 181.9386 L403.9343 181.9614 L407.5843 184.9059 L406.8572 187.6316 L408.4715 188.2059 L410.6823 188.1512 L407.8484 184.678 L409.7208 184.4455 L410.2609 180.8856 L412.0236 179.5228 L414.2611 180.8856 L415.2136 178.8983 L417.0416 177.0066 L418.1574 177.0385 L417.736 176.3639 L417.5728 174.6865 L415.7507 173.3281 L415.5579 171.1538 L412.4865 170.7709 L411.4271 173.8751 L408.3024 173.0045 L408.1421 169.7726 L409.6912 168.6057 L410.5369 169.4672 L416.6944 166.2444 L423.1486 165.515 L419.6915 164.7219 L424.1873 163.6734 L424.8045 164.2432 L424.4632 162.7708 L428.0064 162.1645 L428.9204 162.9942 L429.0094 164.617 L429.5109 163.8193 L430.0124 163.0215 L428.9768 162.4198 L428.7364 161.6358 L431.3923 160.177 L432.2054 161.964 L433.9947 161.0204 L433.7722 159.2744 L433.7573 158.9462 L440.7843 155.7871 L442.1167 156.4891 L443.7518 154.6428 L452.307 151.2375 L453.5148 148.6663 L453.3872 146.2684 L452.6512 146.2684 L453.2685 143.1364 L450.0042 141.436 L451.7461 136.0427 L450.5859 135.7418 L453.0014 131.4516 L455.6246 131.8665 L455.8353 130.1751 L455.9629 129.172 L453.8441 128.2374 L454.0845 127.0976 L459.0105 127.1797 L458.4942 125.0961 L460.5239 123.7009 L461.0017 125.2967 L462.2361 124.6994 L460.9097 123.4775 L462.886 123.8742 L463.4083 121.9091 L464.1175 118.9136 L466.7645 121.2115 L467.9841 116.4105 L469.2898 116.8299 L469.5332 115.3846 L471.097 114.5821 L470.4827 114.5821 L471.9546 111.9604 L470.7379 111.0986 L470.183 106.2746 L474.471 93.7671 L473.4027 92.4173 L472.3344 91.0676 L470.1801 89.7315 L470.9486 91.9841 L468.269 91.6239 L464.0641 96.3388 L462.9127 95.208 L459.0431 89.8272 L460.0551 88.026 L456.8472 86.1108 L456.0519 85.6138 L456.1825 86.9955 L455.6958 87.6795 L454.9926 86.2157 L454.9747 82.4354 L459.0669 81.765 L456.1172 80.1553 L461.2064 80.5976 L467.6874 87.2873 L468.0049 88.7055 L467.2304 90.1464 L463.6546 90.1875 L463.9721 91.3548 L461.5952 89.7634 L462.2777 92.0069 L462.6338 94.7246 L466.2155 92.5997 L468.9219 88.8286 L469.8774 88.9517 L464.5597 81.5872 L457.4407 78.1032 L456.5594 77.6472 L455.1825 77.3599 L454.5534 75.4856 L454.31 76.8491 L456.0846 79.0517 L455.7789 79.9273 L452.1111 79.5852 L452.9242 74.911 L450.3277 79.6993 L449.4315 79.184 L448.5294 83.8034 L445.7756 81.8152 L444.2325 83.3839 L442.1404 82.6178 L442.4728 84.2275 L440.2861 88.6672 L433.1858 87.4843 L426.7838 90.4702 L424.6324 91.3275 L422.6412 90.3015 L421.5424 92.0169 L421.1634 94.6882 L421.3682 100.3332 L423.1279 102.0751 L424.5226 105.0617 L426.0775 107.5057 L427.7482 105.431 L430.4338 109.2247 L429.3625 109.3706 L426.19 109.8557 L425.9232 109.3979 L425.3683 108.6547 L424.9499 109.7399 L422.6056 110.3007 L419.8102 107.1363 L416.5401 108.0118 L414.543 102.8958 L416.273 104.9842 L418.7419 101.993 L417.0713 100.315 L417.5668 98.8239 L416.8131 99.1295 L415.8991 97.2462 L414.8041 94.9572 L414.9703 94.6973 L415.8843 94.5696 L416.1039 94.4374 L415.819 89.3074 L416.1009 87.5655 L418.5135 87.7296 L416.7923 86.8313 L416.6143 85.8326 L415.3264 81.1722 L413.2195 80.5703 L413.2254 77.939 L414.6914 77.0771 L412.3174 76.311 L410.2401 72.1337 L407.4211 71.9468 L407.611 66.4743 L408.8989 65.7719 L408.4152 64.6318 L410.2372 59.5194 L412.5251 58.0327 L411.1482 57.5355 L408.3261 58.3428 L407.2905 58.7897 L407.703 59.752 L405.056 62.1646 L404.2607 61.5261 L403.8749 61.8864 L401.7651 63.6741 L399.9757 66.0182 L399.1121 66.7205 L400.4475 66.8254 L400.1359 67.8834 L399.8273 68.8183 L400.6285 68.5812 L399.7828 76.6211 L396.753 85.7916 L398.2516 91.2636 L397.7768 92.6727 L401.041 93.6439 L400.2249 94.4556 L399.4059 97.8299 L398.1002 100.3332 L401.0351 100.9807 L397.8539 102.3213 L395.7856 103.5661 L397.1684 104.3777 L391.8389 109.7399 L390.7646 109.1745 L389.913 110.5469 L389.0673 115.1521 L387.1325 116.8619 L385.9959 116.8619 L393.5867 99.7086 L394.4384 94.866 L393.8229 94.9289 L393.0615 95.9467 L392.9956 94.2098 L391.6341 93.1565 L391.1682 91.5783 L393.2514 91.0949 L393.0229 89.7634 L393.6223 87.6795 L394.6146 86.6922 L394.1298 86.088 L392.2365 84.9434 L385.86 83.9557 L380.6664 84.5193 L379.8589 85.9941 L386.9909 86.7141 L391.9902 87.8619 L392.1831 90.4702 L386.7467 89.1432 L386.3588 90.6111 L384.8683 90.9262 L384.1279 89.7912 L381.3195 90.2782 L382.0459 91.2418 L381.1227 92.8359 L378.9805 93.7999 L376.135 90.0767 L372.7011 90.9121 L370.371 91.9057 L369.6977 95.8847 L368.4692 98.4341 L362.5381 104.7653 L353.5496 100.8075 L352.8342 97.8969 L352.5603 95.5035 L352.2232 97.8025 L351.7617 99.3579 L348.6919 100.3925 L344.1635 99.9201 L342.843 96.2248 L346.9865 95.7889 L347.1488 94.5422 L347.4832 94.1898 L349.0806 95.0625 L349.4824 93.3174 L348.8764 92.2755 L349.5082 91.8031 L352.3858 94.6932 L352.6962 93.9426 L351.9234 92.8765 L350.3667 91.1487 L350.9575 89.3918 L350.597 88.5194 L350.4246 86.6398 L350.3305 86.1327 L351.0089 85.6968 L355.1886 85.9754 L359.7682 85.4177 L364.6993 85.3935 L368.0795 83.6976 L369.9938 84.6425 L372.0055 84.4865 L377.1662 84.7879 L377.8784 81.2707 L373.7284 78.1123 L372.199 76.5372 L372.0657 73.2902 L370.2725 74.5019 L368.2763 72.7945 L370.6215 69.7674 L368.6054 69.4513 L367.93 68.531 L369.1852 60.5456 L378.8592 59.3735 L378.6069 62.5084 L377.3903 63.5054 L376.2994 65.0569 L376.1143 66.3238 L376.3807 68.4188 L375.978 68.5297 L374.9362 66.8578 L373.7486 67.4274 L372.3192 67.3061 L372.0767 67.9724 L373.264 67.8634 L375.148 70.5426 L377.4339 71.5824 L379.4046 72.7384 L380.9575 72.0918 L381.1144 71.5044 L381.2331 70.907 L385.0475 66.6229 L385.9582 67.39 L387.9966 66.2157 L386.7764 65.2475 L386.579 63.8045 L389.64 60.6979 L391.7039 61.2967 L391.8858 60.5579 L391.2205 59.5591 L393.3033 58.1348 L393.5113 57.0863 L393.3404 56.3361 L393.1831 55.8116 L389.7981 56.0497 L389.1622 55.4148 L389.3521 53.4765 L385.2867 53.513 L377.7582 49.8689 L375.6632 47.7938 L373.5652 45.7231 L371.3455 45.5407 L373.034 48.0081 L372.0548 48.5965 L366.9834 43.7939 L365.9803 44.2135 L365.286 44.7745 L366.3958 45.8828 L365.283 48.9477 L365.1969 54.0557 L366.8943 58.9037 L365.9329 59.2139 L363.3304 60.6596 L363.461 62.8623 L361.9446 62.7164 L361.9001 64.3399 L361.8585 65.9726 L356.7515 67.1811 L354.9236 66.2645 L353.238 65.4938 L357.713 63.852 L357.1373 61.9776 L357.894 61.3573 L359.0513 63.3959 L359.0513 61.6903 L359.6418 61.0062 L359.2323 58.9858 L358.7041 60.7918 L358.3094 57.3531 L357.529 57.3531 L357.713 54.1606 L361.1078 54.6167 L361.8971 51.1961 L359.2383 50.3889 L356.9236 50.7948 L358.2115 46.5943 L359.7279 46.8862 L360.3778 44.8246 L361.722 44.4005 L359.4222 41.9467 L358.259 40.7152 L357.5438 39.3515 L357.4489 38.6855 L356.7812 39.0413 L356.6031 38.9957 L354.2321 39.4062 L355.4607 37.8418 L353.7217 34.9591 L351.3389 38.0105 L351.8878 38.5122 L352.968 39.1827 L353.422 39.7163 L354.152 43.6707 L357.5676 43.9535 L357.5676 45.4267 L356.3301 49.0845 L353.2885 51.6431 L356.25 50.512 L356.5735 51.8803 L356.0868 52.0171 L353.425 52.8289 L355.4162 54.3203 L354.8227 54.7855 L353.2914 55.4148 L352.3537 55.579 L353.1223 57.3622 L346.9589 62.2193 L347.5405 63.1953 L346.582 65.3341 L345.1428 65.3341 L345.5018 61.2297 L346.0686 60.2537 L345.3891 60.801 L343.8223 60.7599 L342.2554 60.7189 L341.5462 62.5431 L343.9172 63.3686 L343.5374 64.7686 L343.3979 65.1198 L343.0596 65.9316 L343.8757 65.7491 L344.941 69.133 L349.5821 75.8094 L347.0093 78.1032 L343.3564 76.6758 L341.4839 73.2921 L338.5965 71.7187 L337.6618 68.0704 L333.1483 62.42 L334.4213 60.8648 L333.3085 60.2582 L329.0799 56.4319 L329.9493 54.2427 L328.4003 53.5449 L321.8838 53.0478 L316.8391 50.2384 L315.4265 47.8211 L316.4622 46.8405 L317.4949 45.8554 L317.0141 45.039 L317.2753 39.8441 L321.7176 41.5043 L322.6345 37.112 L327.2994 39.5658 L328.9315 39.4746 L327.9997 38.4757 L331.2313 36.3776 L330.3826 37.4541 L335.457 43.8623 L333.4866 44.1861 L334.3264 45.3172 L337.5372 50.2566 L338.2286 50.357 L339.8785 51.6705 L344.9558 53.6909 L339.6084 49.4311 L343.2228 49.1347 L345.0597 47.3194 L345.6443 44.031 L346.0686 42.7813 L343.8252 42.7585 L343.1902 40.7517 L341.6649 41.4358 L340.7865 40.1451 L343.1753 39.3925 L338.1722 35.3514 L339.0506 34.2476 L336.1632 32.7105 L335.6439 32.4368 L335.3234 29.7594 L332.9702 30.9499 L331.528 30.8359 L331.4924 28.797 L330.8574 30.959 L333.2165 31.6386 L333.5162 32.9522 L332.7002 32.9249 L330.7862 32.5965 L326.8068 35.096 L320.7353 29.7594 L320.3614 29.5359 L319.5662 29.5359 L320.771 26.9269 L319.5543 26.5164 L318.2219 25.8823 L316.6402 25.9234 L316.6165 26.1332 L316.6165 27.2234 L316.3738 27.2302 L307.4173 27.4788 L307.4173 26.3385 L303.343 25.563 L297.325 19.3094 L294.6899 13.4524 L295.7314 9.5386 L297.3309 8.1792 L294.2329 2.9332 L294.0548 1.2682 L292.9628 0.0 L289.7283 0.5383 L287.3305 4.1147 L286.3691 6.8928 L286.8409 9.2147 L285.9774 9.9218 L285.4907 13.4479 L287.6095 15.8564 L285.924 16.9694 L284.4729 21.5491 L282.7132 21.8319 L281.9001 20.582 L281.6004 18.4473 L279.5765 17.4346 L278.8109 17.7904 L278.9029 20.874 L280.8882 27.5655 L279.9326 28.163 L278.0216 30.0605 L278.1165 31.2418 L282.093 34.5486 L284.639 34.3799 L285.924 36.8246 L284.3453 41.3902 L285.2355 42.193 L282.9268 45.9147 L275.707 50.7401 L269.2112 50.7127 L267.6503 53.2759 L265.2793 53.7502 L263.3504 59.5331 L264.4929 59.3644 L265.579 62.6525 L268.407 64.0025 L268.0123 65.3341 L267.1102 64.9374 L266.5701 66.5609 L265.8401 69.4386 L267.3565 69.4386 L266.7719 72.5852 L276.6269 81.195 L276.977 81.4914 L279.2115 80.6113 L278.4815 79.4028 L281.0247 76.2107 L283.0366 76.2791 L282.8942 77.3097 L286.5323 76.6667 L288.7371 79.7585 L288.5472 81.0673 L295.7908 82.3122 L293.6186 88.1081 L286.2237 85.591 L283.8645 82.2256 L282.1939 89.4305 L278.3628 88.4364 L276.6298 93.3658 L274.9799 93.2244 L270.7275 94.9344 L268.8462 97.4651 L267.9263 100.429 L268.864 102.677 L267.496 103.4795 L269.5079 105.349 L268.4011 105.9964 L271.5851 106.9996 L274.5912 105.7912 L275.6179 110.857 L273.4547 109.0104 L268.4129 111.2172 L266.9856 109.6031 L258.8399 112.9817 L254.813 112.0379 L249.519 110.6244 L248.8009 109.9633 L249.2668 109.1699 L248.1036 109.6715 L247.9285 109.7946 L247.3083 108.1303 L247.9285 106.8308 L250.1452 105.9372 L242.3556 103.8899 L241.498 103.6847 L242.2814 102.1207 L240.4534 102.6542 L238.2427 103.9218 L236.0942 103.0691 L234.744 101.4549 L240.2042 98.9972 L239.4623 97.57 L242.2873 95.8144 L241.4831 94.5194 L249.7742 92.6772 L250.9612 93.571 L251.3707 92.5404 L251.1482 90.4884 L252.531 89.9504 L256.1246 92.2212 L258.3087 91.9887 L258.92 90.3334 L259.193 89.5035 L257.7122 89.5491 L258.3295 87.374 L258.6025 86.4346 L257.1425 85.3994 L257.1929 82.3214 L254.7448 79.7722 L256.7478 77.8478 L254.7448 77.4602 L255.0296 74.5142 L252.8723 75.3214 L247.9255 80.0048 L245.8542 77.8752 L246.8988 76.4752 L246.4358 74.3364 L248.4567 72.9272 L247.6762 72.4165 L246.0946 72.681 L245.4002 70.8933 L246.3617 69.4978 L248.1421 70.2913 L252.1838 68.002 L254.0237 73.0139 L255.6083 72.5031 L255.0237 67.4593 L254.4124 66.0182 L253.632 65.968 L258.2909 64.08 L257.5817 62.1919 L256.8724 60.3039 L250.7149 59.8797 L249.4775 57.8685 L248.2579 58.5708 L247.2104 60.3175 L243.5426 59.6152 L253.5489 65.7035 L251.7684 66.7433 L248.9968 65.1335 L247.4804 64.0891 L238.5275 62.1509 L239.6225 59.752 L238.4415 59.4556 L238.1625 59.4328 L237.1773 62.1418 L238.0527 62.1554 L234.1594 64.0618 L231.9694 67.774 L230.3373 68.4535 L231.7647 68.7864 L231.4294 71.0347 L230.2691 71.4725 L230.5807 73.2419 L229.2868 73.9989 L219.0609 73.9989 L218.5476 75.025 L219.5061 76.27 L210.9598 78.6094 L204.3037 75.9097 L200.3214 76.5071 L199.9119 76.5071 L199.1789 75.7182 L199.5528 76.4569 L203.1464 77.3872 L203.2087 78.4224 L207.7133 79.3025 L204.9714 82.1982 L209.1822 82.823 L205.1791 84.1363 L205.8824 87.114 L215.1498 87.0411 L215.8917 90.5796 L221.1441 89.2755 L222.3993 93.8355 L224.254 94.752 L225.0968 95.7871 L220.1767 97.3466 L220.3963 97.8709 L221.1026 99.5535 L222.7703 99.2663 L223.5359 100.1919 L224.2273 102.1982 L228.2423 102.7317 L222.2272 109.9998 L222.1619 110.319 L218.8295 109.4025 L219.1114 110.9117 L219.4526 112.7583 L223.9276 114.5183 L228.3046 113.4331 L227.5657 111.4543 L228.8536 111.1397 L230.456 113.2097 L231.8952 114.3724 L231.3759 113.4468 L233.4532 113.4331 L236.5067 114.9241 L234.3434 117.0807 L227.1028 117.4272 L226.3965 117.2585 L226.7081 115.9682 L225.5864 117.3087 L225.2184 118.6081 L227.726 120.6234 L223.6605 123.0581 L218.4674 121.2617 L211.0488 121.4076 L211.7135 122.0049 L210.3485 124.3484 L210.2001 125.5247 L213.9569 124.5626 L214.126 125.9943 L223.6605 127.4806 L229.3492 126.1903 L231.9813 125.8073 L231.1771 127.6994 L235.0348 124.4304 L237.3851 124.1113 L237.3851 122.1872 L240.8303 121.517 L241.4179 123.3772 L244.2043 122.1872 L241.8541 120.6963 L244.8779 118.2616 L255.0712 118.2981 L254.7418 121.8726 L250.7357 121.8818 L249.8633 123.1675 L251.6734 126.245 L259.7924 130.6036 L258.3057 134.2965 L258.4541 139.8449 L254.6884 142.3022 L246.0827 139.658 L242.1419 140.2187 L244.507 137.6064 L244.3349 136.0791 L240.216 136.2433 L240.038 134.757 L238.4682 134.8299 L236.8984 134.9029 L237.9726 133.3482 L237.1121 131.5747 L240.3911 129.7693 L238.1655 126.9061 L237.2545 128.0186 L235.6817 129.7556 L234.9992 130.1523 L235.6313 131.1872 L233.9636 134.529 L234.1565 134.8299 L227.6666 136.2524 L225.809 137.7204 L226.1384 138.9741 L226.2244 139.3935 L226.6636 140.6381 L222.5774 144.6409 L222.3904 143.3507 L221.2124 144.0619 L218.8413 145.1971 L220.9126 149.2043 L220.242 150.1981 L222.4379 152.9652 L221.6604 153.918 L222.1412 155.0349 L224.1056 157.0134 L222.2628 156.9176 L215.7581 149.0219 L215.9036 147.0252 L213.9777 146.0405 L209.6155 134.9348 L204.4847 129.4 L205.0753 126.8924 L206.9507 125.9715 L206.3513 123.5642 L203.4817 119.634 L201.4193 118.8133 L200.7339 119.023 L203.9268 122.5474 L204.7429 125.6478 L200.5143 127.6447 L195.7663 125.6158 L186.1458 127.9775 L184.7273 125.1873 L184.9796 118.713 L176.5787 107.3324 L172.4479 104.1543 L170.0977 104.8474 L172.3589 107.8021 L174.8011 115.3846 L174.6676 119.0048 L174.6231 119.8073 L174.3857 122.479 L169.4656 134.1552 L169.2609 135.8375 L171.4746 141.4496 L173.9346 145.1879 L179.9111 147.5768 L180.7005 150.4899 L179.5936 151.8939 L173.1453 154.8024 L171.6467 157.7199 L172.8426 163.7372 L172.0087 165.4148 L166.6851 166.3584 L163.3437 168.6193 L153.9606 175.5936 L154.9191 176.2044 L152.5065 178.6749 L149.9872 176.7742 L148.2809 179.0988 L145.714 184.2085 L144.9781 186.1548 L147.1918 188.885 L154.7084 186.3827 L156.4473 188.3244 L157.115 187.1667 L157.9904 186.3736 L158.1329 188.0236 L162.6078 187.2259 L164.3705 188.0464 L164.9996 190.4393 L164.4292 190.871 L165.1809 190.7871 L165.4984 191.0387 L165.6679 191.2825 L165.7679 191.4835 L165.9518 191.8003 L166.1136 192.144 L166.3026 192.3783 L166.5038 192.6563 L166.5103 192.8245 L167.0412 193.1422 L162.9016 197.6453 L162.9016 199.7556 L158.3168 201.7655 L160.0083 204.8101 L155.1149 205.3297 L149.6696 198.8395 L144.8742 196.3646 L145.987 194.4001 L145.2006 193.6344 L139.6574 192.9918 L135.2507 192.3081 L137.7018 189.6599 L136.1202 187.6179 L126.7994 188.4976 L124.9922 189.3591 L118.2234 190.649 L127.5145 191.4102 L128.3573 194.1221 L121.998 194.5506 L111.9501 196.948 L111.4101 201.1366 L114.4992 199.8012 L126.1346 197.4812 L127.7757 195.9544 L135.0816 200.2888 L137.9689 204.368 L151.3344 203.7527 L149.2364 206.0634 L145.7645 209.8462 L140.8681 211.4505 L140.0076 211.9062 L120.9861 212.8952 L119.8347 211.9792 L120.9505 210.9218 L119.3569 209.6822 L114.0452 211.6875 L113.4546 213.2006 L112.8255 213.8842 L106.214 215.1375 L104.7392 212.5899 L108.6711 211.4232 L106.1517 209.9192 L103.8579 210.5208 L104.487 208.5337 L105.0241 207.3396 L104.3683 207.7953 L98.6648 215.8439 L98.1277 217.2248 L95.8724 223.5686 L94.8724 225.0725 L92.5933 226.0341 L92.0355 228.4859 L92.534 229.4019 L95.8546 224.4391 L99.8577 226.8498 L96.27 231.047 L89.6407 233.8815 L90.0502 231.8035 L88.8662 233.8177 L85.9314 237.5408 L85.6049 240.6806 L84.5426 243.1003 L85.6673 245.0506 L89.3825 242.5762 L92.2996 242.3848 L92.804 240.8173 L91.7565 239.2725 L99.0238 233.5534 L100.1574 229.9806 L106.036 228.5953 L111.8077 227.9664 L114.9859 224.3251 L115.2737 220.2236 L112.4724 220.3694 L111.8967 218.6467 L113.8642 217.161 L128.108 215.5568 L130.0576 215.5568 L132.666 216.3726 L138.6129 215.0464 L138.4289 216.4455 L140.2746 216.7964 L118.7605 222.4475 L117.5349 223.1904 L117.9088 225.2411 L115.158 226.3531 L115.5734 228.3401 L111.4427 228.7912 L109.1904 228.4813 L109.1904 229.452 L115.1253 229.9852 L114.5348 231.7306 L111.2647 232.6557 L110.962 234.1458 L115.6446 235.5221 L118.1967 233.5534 L117.7219 234.9524 L117.2026 236.7616 L118.9267 235.1438 L119.8911 235.6633 L119.5884 239.6325 L114.4577 241.0132 L113.1751 240.8679 L109.2646 240.4254 L108.9678 240.8173 L107.7719 241.9428 L106.7482 243.0091 L105.7214 246.8961 L109.5613 247.1604 L113.514 245.3969 L116.4607 247.2242 L116.4607 248.491 L115.1995 249.015 L105.3327 248.5366 L102.4709 250.5156 L101.8073 250.9744 L103.6056 253.8816 L107.22 253.8133 L108.3002 262.3705 L103.6946 262.7715 L107.9322 264.5713 L112.7098 266.9725 L118.5706 265.6056 L120.0602 270.7315 L116.71 272.0574 L114.5704 268.868 L112.1549 270.121 L111.4902 268.868 L108.4485 269.155 L106.4099 265.7241 L104.4365 265.6876 L103.8489 270.0845 L101.6144 270.3761 L98.5223 270.9912 L98.8043 272.2032 L93.5904 273.9801 L93.7655 275.429 L92.261 275.9803 L93.1304 276.3266 L99.104 275.4791 L98.2048 272.7408 L99.193 272.7408 L101.1782 277.7117 L99.4719 278.8917 L98.0594 276.3312 L95.5489 277.3016 L93.1423 277.8575 L93.3382 279.9169 L99.8191 280.942 L101.2732 280.4271 L102.5255 281.8168 L100.7331 283.7303 L96.3917 284.4001 L96.0593 284.0173 L92.0918 283.3339 L87.8305 288.6964 L85.9136 289.1474 L85.2845 284.3044 L82.1122 279.9943 L82.5574 280.0627 L89.1155 279.1697 L88.4715 275.2923 L89.8929 275.019 L90.4597 276.7139 L91.0948 274.4403 L95.4006 270.3898 L94.5815 269.5696 L92.2788 272.1121 L88.6881 273.9984 L87.1302 274.7638 L84.8571 278.8917 L82.317 277.7527 L81.7413 269.3828 L87.7504 268.5991 L90.6348 262.7988 L94.7952 258.8711 L95.6142 261.3362 L94.8842 261.3498 L95.54 262.3751 L96.4926 264.4847 L99.8429 262.5391 L100.9557 262.2201 L98.9111 260.9671 L100.3622 260.9307 L97.1069 257.1715 L95.0682 254.6016 L91.4004 255.923 L90.7921 255.6268 L91.5399 254.1186 L87.5753 253.1434 L84.3645 255.6724 L82.8749 254.0684 L82.3645 255.358 L78.6759 255.6724 L75.5096 256.0415 L70.6103 255.3534 L71.5035 260.1424 L70.3284 260.4932 L71.1326 267.1593 L76.474 266.1205 L79.0735 271.9435 L78.8866 272.0301 L77.6017 272.9185 L75.6253 270.3306 L69.7231 272.0392 L71.2335 272.791 L68.4411 272.7454 L64.4439 275.511 L66.6072 277.0328 L64.8445 279.443 L67.0879 280.7689 L68.545 283.4478 L56.1469 282.0628 L53.5771 283.4296 L51.6096 286.3728 L51.3989 287.038 L52.3366 285.776 L56.4436 282.6642 L58.5209 282.6824 L65.6398 286.0038 L67.1028 287.7943 L63.4558 288.2043 L66.1473 290.5096 L66.8298 290.6736 L64.6309 292.332 L66.4381 292.3365 L72.6163 294.7511 L74.9221 293.635 L74.5867 292.1042 L75.9191 292.1042 L77.8094 293.1976 L80.4297 291.1383 L80.9994 290.7511 L79.6047 288.7647 L77.0913 290.3137 L72.5421 287.7168 L74.6194 286.3728 L74.6194 284.359 L69.3462 283.9946 L68.9812 283.2793 L74.3582 282.4501 L74.3701 279.803 L76.6165 278.1901 L78.7471 278.1764 L79.0884 280.4545 L79.9846 279.9715 L81.4 282.2496 L78.1774 284.2543 L80.1863 287.3296 L83.4239 291.3525 L81.4357 292.1771 L83.2191 296.8286 L78.848 298.1088 L69.2928 298.1407 L69.1266 299.6623 L67.2986 302.4504 L68.72 302.2818 L69.2156 303.2886 L69.1177 302.1269 L73.7143 302.8695 L75.1476 304.9514 L77.8094 306.1359 L80.673 303.4481 L83.4921 303.7715 L81.4831 309.8669 L79.6255 309.2154 L77.8836 308.5731 L77.0675 310.5593 L71.9813 310.5821 L69.0702 310.5593 L70.0198 313.534 L69.0168 316.2445 L63.3311 316.3675 L61.0996 315.215 L62.1323 313.3883 L55.3308 313.8529 L55.3308 315.1512 L53.5325 318.0257 L56.6662 319.3285 L58.0757 325.7879 L53.2595 323.3281 L48.2178 322.6721 L49.0991 326.8356 L46.2355 327.9789 L44.6895 332.2061 L41.8021 331.3725 L41.7428 333.1034 L43.6865 334.889 L45.2741 335.9685 L43.544 338.5694 L37.9711 338.6377 L37.529 341.899 M47.3276 334.93 L49.4582 328.0974 L50.2327 328.0974 L51.0102 328.0974 L49.7075 332.3063 L47.3276 334.93 M67.5716 463.0988 L71.281 461.1048 L71.9487 461.0866 L74.1921 462.8848 L67.5716 463.0988 M74.72 300.1051 L75.3767 299.8363 L75.9871 299.4609 L76.4435 299.1525 L76.7589 298.9639 L77.221 298.8113 L77.9821 298.6978 L78.7685 298.5493 L79.1157 298.44 L79.7525 298.2719 L80.6347 298.0445 L80.6555 298.1416 L80.8054 299.6828 L80.8451 300.0372 L80.9603 300.7301 L80.9671 301.8194 L80.5822 301.9647 L80.1855 301.8399 L79.8647 301.6918 L79.5463 301.7082 L79.2347 301.6622 L78.708 301.6436 L78.0762 301.6877 L77.4563 301.6322 L76.8025 301.5675 L76.1055 301.5233 L75.4963 301.3748 L75.1001 301.0818 L74.8045 300.4518 L74.72 300.1051 M84.964 293.9038 L91.7565 292.0723 L95.0534 289.1201 L98.2849 289.808 L99.4334 288.8695 L99.6589 288.7009 L101.7747 291.2978 L99.9349 292.7238 L101.0506 293.2933 L100.3918 294.373 L100.3206 294.6372 L99.8399 294.7739 L92.6646 296.7375 L94.9525 297.6623 L90.3232 300.5871 L89.3083 299.7488 L90.4953 296.3275 L84.964 293.9038 M85.805 259.2661 L85.9017 258.8857 L85.902 258.6446 L86.0806 258.4537 L86.3106 258.3453 L86.5599 258.2136 L86.7465 258.1092 L86.9821 258.0664 L87.3923 258.0295 L87.565 258.014 L87.7454 258.0855 L87.8199 258.1881 L87.9706 258.4154 L88.3727 258.7736 L88.5703 259.0406 L88.6896 259.4019 L88.6502 259.6899 L88.2688 260.0526 L88.0119 260.0977 L87.6507 259.9546 L87.3946 259.9423 L87.321 260.0394 L87.2474 260.0872 L87.162 260.1401 L87.0516 260.1456 L86.9462 260.1141 L86.8406 260.0781 L86.7267 260.0886 L86.4809 260.2299 L86.272 260.2813 L86.1694 260.2782 L86.137 260.2399 L86.1133 260.1105 L86.1332 259.9647 L85.8628 259.6024 L85.805 259.2661 M86.783 306.0949 L91.9909 304.2726 L93.1839 302.0768 L97.736 302.9469 L101.9231 307.1244 L108.7809 308.0492 L108.5732 304.2362 L110.5228 303.6485 L107.4604 301.5073 L110.0806 300.0768 L113.7514 298.906 L114.0541 297.6896 L111.7335 297.1612 L110.4071 297.1156 L109.8996 293.8946 L116.5883 290.7374 L117.2026 289.1474 L112.9086 289.1474 L109.0005 290.9424 L108.2082 292.1042 L107.2734 291.4208 L106.1369 289.7488 L107.039 288.956 L103.9231 288.9059 L104.3356 286.8785 L104.1249 284.6461 L105.7689 284.3272 L107.1666 281.1698 L109.7958 281.4659 L110.5258 284.1586 L110.6623 282.0172 L109.0242 280.2631 L107.4841 280.2586 L108.5969 279.1287 L110.0243 276.7959 L111.784 274.6089 L113.0422 278.4088 L120.6419 275.8801 L122.7666 276.5681 L126.8231 274.0758 L128.473 271.2236 L134.4881 268.221 L135.859 268.2027 L137.233 268.1845 L137.049 269.556 L135.8976 269.6334 L136.224 271.1461 L137.3814 271.2418 L136.4466 272.8547 L134.859 273.6521 L136.227 278.263 L134.2774 275.8391 L133.6483 276.117 L134.1231 277.5249 L133.126 277.5249 L132.8025 276.4405 L131.6156 276.928 L130.6244 279.0193 L129.0724 278.9054 L126.286 281.6573 L126.105 283.4205 L124.7192 283.6529 L123.7903 283.9672 L124.1346 286.0949 L122.0544 286.2954 L121.6271 284.359 L120.2086 283.8898 L117.7931 284.6643 L118.4014 285.3933 L117.8791 289.9265 L117.9652 290.455 L129.7965 292.3912 L137.6959 287.5164 L139.2301 289.3251 L139.8354 287.6622 L145.6903 285.3204 L146.3758 285.2703 L146.8446 283.5709 L144.6517 282.1904 L145.2006 281.8395 L145.5508 281.6391 L146.4499 281.1379 L147.0316 282.482 L150.0287 284.1996 L153.8419 287.2384 L147.2897 294.7147 L151.922 304.4002 L151.9398 310.6094 L150.1652 311.885 L149.6963 309.8714 L134.8204 309.3886 L132.7936 309.7029 L132.4583 307.6483 L126.372 309.4159 L123.461 310.3908 L122.6983 313.5659 L123.1375 315.1102 L122.4045 315.1102 L117.8969 313.5158 L118.5824 314.9553 L117.7456 314.805 L108.1221 314.0989 L106.5286 309.8213 L106.0775 309.9215 L104.4335 312.5592 L105.03 314.8825 L99.101 314.1126 L99.101 312.8325 L92.8129 313.1104 L86.783 306.0949 M93.0118 421.5997 L97.1632 421.0442 L97.5282 421.0397 L103.1694 421.7409 L107.0212 421.24 L107.9619 422.3419 L109.1785 420.9987 L108.7453 422.4921 L106.5642 423.503 L93.7536 422.6652 L93.0118 421.5997 M108.1399 253.6036 L112.33 256.5017 L113.5822 255.481 L114.4161 249.9856 L115.5972 249.7851 L115.9028 249.7669 L116.6091 249.8763 L115.4013 255.9275 L115.4488 258.1238 L116.9236 258.6706 L116.2797 259.632 L115.0719 259.6412 L112.0985 260.4613 L110.2438 260.0877 L111.413 258.2332 L108.6088 258.8483 L108.2823 257.7638 L108.1399 253.6036 M111.8018 418.7721 L113.3478 411.5505 L118.2738 408.9823 L118.5142 408.955 L120.1671 410.4531 L123.8705 412.6888 L123.1701 413.7771 L121.8021 416.2177 L122.2473 416.8233 L121.3006 417.0919 L118.4637 417.3606 L116.1699 415.7669 L114.8405 417.9981 L115.4636 418.631 L113.8048 419.9651 L111.8018 418.7721 M114.7218 262.0607 L118.3539 261.1813 L118.5706 261.1539 L119.1641 262.2612 L120.9861 261.9786 L120.3273 263.0312 L120.9208 264.5075 L120.1107 264.1703 L115.3894 264.8811 L114.7218 262.0607 M121.8021 261.5276 L122.6746 259.0944 L124.0604 257.937 L126.013 261.0947 L126.7726 261.3043 L127.1436 258.8073 L126.737 254.2871 L125.7667 254.2871 L126.5827 249.4616 L127.2712 249.6165 L128.0041 249.8398 L127.5887 254.2871 L129.203 254.9889 L129.9122 256.2237 L128.4433 256.7568 L130.0903 257.5542 L129.6897 260.393 L128.4255 261.0992 L127.4611 261.605 L126.8973 261.8921 L123.6568 262.5892 L121.8021 261.5276 M130.7194 242.4395 L131.1942 241.1636 L132.856 238.393 L135.0875 237.2537 L134.859 240.1611 L137.3784 236.6203 L140.8681 235.1529 L141.6011 236.8026 L142.702 234.8385 L144.5062 234.638 L144.5864 234.4375 L144.7911 234.237 L145.0938 235.3352 L145.7645 235.0709 L144.6724 236.5337 L142.6486 238.4978 L143.9098 240.6304 L143.9024 240.7024 L143.4647 244.9139 L146.6399 248.5867 L148.185 249.3951 L148.818 249.7259 L159.1181 248.7416 L164.2073 254.1732 L153.2662 258.8939 L153.83 260.5889 L152.554 261.0901 L145.6309 264.1202 L143.3371 262.9446 L141.61 267.4783 L137.687 267.9567 L137.4674 267.255 L136.1202 267.2505 L134.9332 267.2596 L137.6692 266.0658 L138.4378 264.3617 L143.1056 262.4343 L143.3341 261.2086 L138.96 263.0221 L138.6425 261.3544 L142.9454 259.1764 L140.6693 257.8413 L141.3904 255.6541 L146.9277 252.6923 L144.1798 252.3141 L142.975 250.1861 L141.0996 250.8696 L139.9957 250.8696 L140.7939 248.6414 L137.7879 246.363 L134.8768 246.8323 L133.3456 245.1007 L134.0429 244.5084 L133.2224 244.4997 L132.3159 244.4901 L132.666 242.4395 L130.7194 242.4395 M131.8494 282.733 L131.9892 282.3485 L132.0844 282.0455 L132.1197 281.7953 L132.0574 281.5092 L132.1856 281.1069 L132.374 280.8035 L132.6055 280.4909 L132.7933 280.5137 L134.064 280.7825 L135.1854 280.7566 L135.9403 280.85 L136.2653 280.7648 L136.8819 280.5552 L137.2137 280.5547 L137.3787 280.7133 L137.4941 280.8714 L137.5407 281.0714 L137.5033 281.2208 L137.2635 281.4609 L136.9546 281.7416 L136.7187 281.7981 L136.5178 281.8163 L136.4074 281.8154 L136.2763 281.8669 L136.3312 282.0195 L136.4822 282.0696 L136.3104 282.4072 L136.1309 282.9198 L136.0656 283.4068 L135.9783 283.8966 L135.9249 284.2734 L135.8685 284.7823 L135.8887 285.335 L135.6949 285.5199 L135.1109 285.6862 L134.2783 285.8215 L133.5026 286.1537 L133.2673 286.2626 L133.0646 286.2954 L132.7752 286.2612 L132.4803 286.0366 L132.3687 285.4375 L132.4393 284.9299 L132.4515 284.365 L132.4286 283.841 L132.2123 283.2966 L131.9334 283.0966 L131.8494 282.733 M140.2004 331.5091 L140.2004 329.0084 L142.9839 329.0084 L142.9335 323.0821 L143.9958 323.0821 L145.4291 323.7654 L147.5449 323.7745 L148.0969 325.0773 L148.3462 326.5987 L145.2036 325.9564 L147.2393 327.8286 L148.0108 326.9813 L148.545 328.0472 L149.0791 329.104 L147.9871 330.9443 L147.5924 330.9534 L146.2956 330.425 L145.8208 332.4201 L144.6635 331.5091 L140.2004 331.5091 M146.1176 350.8765 L146.8327 349.8973 L147.0256 349.7287 L149.6014 353.2814 L146.9069 354.543 L146.1176 350.8765 M146.1829 412.575 L146.4974 410.025 L149.8714 408.3038 L150.0228 408.2765 L150.5183 411.8783 L146.1829 412.575 M148.7794 450.7523 L153.6609 448.3576 L153.7084 448.3394 L154.5927 450.939 L152.9517 452.414 L150.7261 453.3746 L148.7794 450.7523 M150.8448 416.9827 L154.2217 413.2717 L154.6669 413.4037 L156.566 414.1186 L157.8539 416.3953 L155.9814 418.2667 L150.8448 416.9827 M160.6226 494.5219 L161.3199 493.3839 L166.145 493.3839 L167.9463 490.8713 L167.9849 485.6093 L169.3974 479.0726 L171.3618 474.038 L172.4153 474.038 L170.5072 469.2171 L168.065 471.6162 L166.6614 470.0775 L167.2489 468.8029 L169.1244 469.1989 L170.4686 468.4615 L169.7772 468.5434 L169.0888 468.6253 L169.2816 467.1458 L168.243 461.0638 L167.3795 460.8817 L166.8335 460.3946 L167.6673 460.381 L167.5101 459.9986 L168.2193 459.4158 L167.7415 458.1639 L168.0858 456.5113 L170.0116 455.5644 L174.5697 455.4187 L178.2315 454.0939 L178.3295 454.0848 L172.6794 457.2489 L174.2759 459.129 L173.5815 464.3962 L175.0682 464.7058 L175.2463 463.5722 L178.733 464.0548 L179.2434 464.5373 L174.9584 467.3871 L175.1988 470.0457 L175.813 471.8757 L175.2047 481.0983 L177.0238 484.4213 L177.3205 486.5561 L176.3324 486.943 L175.8071 487.3254 L179.5936 487.2116 L182.1901 490.0702 L181.8845 492.1458 L178.9586 495.546 L182.2881 496.6475 L183.0744 499.7882 L180.6025 499.6426 L178.1336 499.4924 L174.3679 497.8355 L173.4717 495.6689 L174.178 494.2988 L173.2224 490.3979 L174.0533 485.6457 L172.7892 482.0497 L173.7239 477.0469 L172.9969 476.8375 L172.0622 482.3455 L172.8574 491.809 L171.5814 496.0968 L170.5784 496.4063 L166.7979 495.4322 L160.6226 494.5219 M161.4208 381.1541 L162.6553 381.1541 L164.504 382.1787 L164.3467 384.5833 L162.4743 384.8292 L161.4208 381.1541 M170.3321 377.8569 L170.7149 375.179 L172.4183 375.0606 L174.1246 374.9468 L174.5014 376.3449 L175.5193 375.6026 L174.3204 373.7308 L175.1721 373.0932 L175.3709 372.9748 L176.5698 374.7145 L175.6617 375.4477 L175.9792 378.3077 L177.5965 380.8398 L176.3947 382.8391 L178.3532 385.8675 L176.1454 386.4458 L174.1691 385.0796 L173.3174 386.4413 L172.264 385.3392 L173.8872 384.4967 L170.3321 377.8569 M177.5294 405.5567 L177.8992 404.62 L178.4778 404.028 L178.6381 403.9233 L180.7738 405.5689 L180.8845 406.9605 L179.7939 407.71 L178.5443 406.849 L177.5294 405.5567 M178.0648 413.2266 L179.1509 412.1064 L180.3924 411.7016 L182.072 412.8896 L179.434 413.9656 L178.0648 413.2266 M186.9072 408.3926 L189.9234 407.9445 L193.9232 406.5384 L195.6832 406.9286 L196.2224 406.4719 L195.5381 405.645 L196.6536 404.2329 L197.1972 403.6423 L196.5073 402.5954 L198.478 401.2362 L199.2985 400.6743 L199.7392 400.4684 L200.1522 400.162 L201.6063 398.9051 L202.7399 397.9398 L203.69 396.6574 L203.6141 395.6597 L202.6449 395.4315 L202.5559 393.7002 L203.5648 393.5454 L203.9447 393.4907 L204.4462 396.8195 L205.5857 397.1292 L206.7252 397.4343 L206.2029 398.2357 L204.4868 400.0814 L206.0085 402.069 L204.6836 402.8167 L204.312 404.9451 L203.4253 405.2944 L200.2175 404.4378 L198.6388 405.4396 L199.1106 406.0407 L195.7663 408.873 L192.8549 409.4226 L190.9531 410.3074 L187.9806 411.4057 L187.4883 411.0477 L186.9072 408.3926 M187.0865 498.3908 L187.6622 495.2729 L192.692 496.074 L192.8701 492.5236 L191.6801 492.3461 L192.0006 493.5569 L189.0153 494.3626 L189.4604 492.7057 L191.2083 487.4073 L192.5436 488.1083 L194.9918 484.9903 L194.9621 482.8827 L195.2529 482.4593 L198.5083 486.5925 L197.3539 488.0446 L200.449 491.3311 L202.9268 491.8318 L204.4016 490.0884 L209.1704 488.8639 L209.2267 490.1294 L208.4463 491.6815 L209.5057 494.6948 L208.3039 497.0253 L206.8943 497.0344 L211.3604 502.4646 L212.31 501.4587 L216.4852 505.7736 L215.9926 506.4108 L209.0813 503.1701 L200.1433 501.2629 L203.093 496.3426 L201.4757 496.6612 L201.0989 498.2224 L199.538 499.993 L198.0216 500.3253 L196.7307 495.2729 L196.6002 489.2326 L194.9235 496.3289 L195.9889 500.2115 L193.7039 500.0294 L195.4696 499.0144 L194.6951 498.6184 L194.3479 498.318 L193.2974 498.3908 L187.0865 498.3908 M187.3556 402.5795 L188.3123 401.488 L190.0364 402.3036 L188.8023 403.7466 L187.3556 402.5795 M190.9353 427.4915 L192.2053 424.9099 L192.2528 425.1193 L194.7054 426.0751 L197.5376 425.8278 L197.994 426.9433 L197.6676 428.9476 L195.4841 429.8027 L194.5449 431.5424 L192.7425 431.1522 L190.9353 427.4915 M190.959 361.1152 L191.8107 361.1152 L192.5881 357.2758 L193.3923 357.0526 L193.701 357.0344 L194.6327 357.2894 L194.06 359.676 L195.0333 365.0913 L194.9325 366.1297 L193.1342 365.7471 L192.4546 365.3144 L192.9057 363.775 L192.4338 362.263 L191.2765 362.518 L190.959 361.1152 M196.434 324.8996 L198.1403 323.779 L198.8376 323.8018 L199.538 323.8291 L198.0424 327.405 L196.434 324.8996 M201.3303 328.5028 L201.5796 324.6445 L203.5411 323.2005 L203.8675 323.1048 L205.0812 324.3666 L208.295 324.1116 L206.7875 327.4323 L204.8942 326.0111 L201.3303 328.5028 M202.5173 434.7127 L205.0515 433.3787 L206.3079 432.6816 L207.0931 432.5546 L208.8264 431.5137 L209.8075 429.5127 L211.1467 428.9668 L217.9481 431.0156 L217.0104 428.8985 L217.1766 429.8774 L216.138 429.8774 L213.0993 428.6571 L213.8679 427.619 L213.0637 427.0044 L218.0817 424.6504 L216.9511 422.096 L213.8886 422.5969 L212.948 422.0732 L212.2399 422.0564 L210.3209 423.0495 L209.7633 423.7903 L210.2001 425.5565 L207.9475 428.5993 L206.637 426.3687 L207.5911 424.7009 L207.1519 423.0613 L206.6311 421.9389 L206.7617 419.5475 L209.3247 419.1318 L211.298 417.1648 L209.7668 416.673 L210.5942 414.1933 L209.9731 413.9246 L208.7582 414.6008 L207.8676 416.1767 L206.5097 417.0478 L205.9524 416.6926 L206.1468 413.0303 L204.0426 410.3966 L203.5025 408.659 L206.9329 406.6144 L208.9368 406.3062 L209.6686 407.4514 L206.8587 409.5802 L208.6155 410.2177 L209.6968 410.6812 L210.8262 410.576 L209.3716 411.9024 L209.8372 412.0067 L210.8452 411.8346 L212.5162 411.218 L217.957 408.231 L219.7079 407.2492 L221.3195 409.5979 L213.215 414.3868 L211.7645 418.2781 L222.724 413.3044 L231.7492 410.2422 L232.3481 409.0451 L229.1705 408.2392 L229.9996 404.003 L224.1935 401.774 L219.7544 398.5481 L216.549 398.5331 L212.0631 402.7343 L210.7206 400.9261 L209.3558 401.0713 L208.384 400.1847 L212.8845 398.1734 L217.1573 397.7567 L218.2686 396.3733 L223.2658 395.8678 L224.2659 394.069 L227.4678 394.9206 L226.8446 396.4402 L227.4797 396.6374 L227.9868 395.6875 L229.6797 396.5071 L230.8596 394.6155 L231.776 395.177 L232.6896 394.9352 L233.0389 393.7931 L233.5766 394.9252 L233.833 394.5262 L233.7134 392.9602 L233.8398 392.4734 L234.3894 392.3645 L235.0779 393.4811 L235.747 393.5636 L237.4207 393.4042 L237.0349 391.9893 L237.0242 391.6596 L237.4477 391.0872 L238.1151 389.6623 L238.2516 388.7319 L238.7531 385.7081 L236.8925 384.611 L238.4154 381.8964 L242.7057 381.655 L244.8836 381.5626 L250.6719 375.2578 L249.6556 374.5688 L251.8636 371.8367 L253.0919 371.9455 L252.6649 373.1401 L254.5311 372.3167 L256.822 372.9247 L256.9852 373.4165 L256.3674 373.964 L254.1572 374.1589 L253.6854 374.965 L254.5964 376.0534 L260.0625 376.058 L259.92 376.272 L260.6293 377.6747 L261.3889 376.8276 L262.1575 377.8888 L268.0539 379.0182 L266.3179 381.1358 L258.9734 382.115 L253.4836 384.8565 L251.7981 383.932 L248.3172 386.8557 L245.9136 386.8648 L244.507 387.1335 L246.7296 387.7255 L245.9996 390.1482 L244.9937 390.2893 L242.7737 393.9042 L241.292 394.5554 L238.413 401.9889 L240.0757 403.1592 L242.249 402.7589 L242.8838 403.2612 L242.5529 403.6537 L240.9371 405.7493 L232.6193 409.7245 L233.8152 410.5032 L234.9912 410.459 L233.5713 412.3487 L230.9646 414.221 L231.5985 416.8461 L232.6609 418.0345 L231.8893 418.5718 L237.5284 419.7743 L236.8545 422.0045 L234.1208 422.5094 L230.9872 423.7142 L230.5537 426.1188 L230.5741 427.8977 L232.468 428.0106 L239.2902 424.8689 L239.762 426.7221 L242.5603 426.5855 L243.7206 428.4841 L243.7087 429.6497 L242.3556 429.2809 L236.8658 431.0839 L238.2723 431.8079 L239.6819 432.5318 L241.406 431.4573 L244.5456 434.2028 L246.2074 434.8038 L249.9968 429.4221 L250.8129 431.1932 L253.448 429.8774 L253.9524 432.7822 L249.9464 432.7321 L249.0324 436.1378 L246.4744 437.0119 L245.0144 437.2168 L241.4653 434.1345 L236.7174 431.7942 L232.652 433.6154 L233.7054 434.5852 L232.5629 435.9693 L228.7883 437.6721 L229.2216 446.0858 L228.2126 447.3105 L222.1649 441.7515 L220.9542 443.3951 L218.8117 441.7925 L219.3399 439.9486 L214.8353 436.7524 L209.4849 438.3824 L209.8024 441.6513 L206.8908 441.9618 L207.0813 438.6815 L204.4818 438.3232 L204.2889 436.7433 L202.817 436.2607 L202.5173 434.7127 M220.7376 78.7097 L222.3341 75.6726 L222.6219 75.6224 L228.5806 77.3006 L228.361 79.0745 L224.7733 78.1533 L224.7733 79.2478 L224.0849 79.9227 L220.7376 78.7097 M224.4766 154.4605 L226.901 154.9255 L232.3344 150.8682 L234.7411 150.581 L234.9517 149.5234 L235.1862 149.4641 L236.2663 150.5537 L238.2842 149.4049 L238.7798 153.02 L236.9043 154.2873 L235.9755 152.9151 L234.7232 153.7676 L235.6461 156.5803 L233.3493 157.6607 L230.5688 157.2641 L230.7468 159.2653 L228.1384 158.1165 L225.4143 157.3507 L224.8475 155.2081 L224.4766 154.4605 M224.9365 459.17 L225.6962 458.3324 L226.3075 456.138 L226.5538 456.088 L227.4292 457.6131 L226.2571 457.9226 L229.002 460.4902 L225.5716 460.3446 L224.9365 459.17 M228.0435 450.8889 L228.907 450.4746 L229.1592 450.3881 L230.186 453.1561 L232.1742 456.006 L231.4205 456.4886 L230.2275 456.9666 L228.9278 456.0242 L229.4649 453.4384 L228.0435 450.8889 M229.818 91.291 L231.6341 88.3635 L230.9279 84.9754 L233.4472 81.4276 L234.3879 79.9592 L235.9126 80.055 L236.253 79.7781 L236.6616 79.6299 L237.3931 79.3837 L238.0827 79.3039 L238.2263 79.3987 L238.4124 79.5816 L238.575 79.8903 L238.8495 79.9569 L239.1964 80.0705 L239.6697 80.1535 L240.4306 80.3564 L241.0422 80.376 L241.6962 80.4964 L242.298 80.7777 L242.8657 80.9145 L243.2874 81.045 L243.5559 81.2018 L243.812 81.9164 L243.8859 82.4901 L244.058 82.9 L244.5106 83.2151 L245.2845 83.7633 L245.615 83.9252 L245.799 84.0738 L245.8857 84.4008 L246.029 84.7989 L246.0949 85.1851 L246.3468 85.6635 L246.4842 85.964 L246.518 86.2709 L246.4869 86.726 L246.7008 87.0607 L246.7691 87.824 L247.0014 88.4579 L247.2006 88.7976 L247.3202 89.0511 L247.3905 89.1893 L247.3955 89.3471 L247.2961 89.4711 L245.9136 89.7174 L244.3892 89.8181 L243.7375 90.1629 L242.9126 90.4602 L241.7318 90.2787 L241.498 90.3434 L241.3585 90.4875 L241.1757 90.8478 L240.9831 91.1857 L240.8368 91.2851 L240.6089 91.4159 L240.2703 91.4825 L239.8997 91.6918 L239.6988 91.7269 L239.538 91.7187 L239.3976 91.7019 L239.1688 91.649 L238.8332 91.4935 L234.4651 91.5053 L234.1208 89.2755 L231.8685 90.0826 L234.3137 91.6695 L230.7083 92.016 L229.818 91.291 M231.5985 446.928 L232.37 446.9963 L233.5452 449.6141 L238.5424 451.7311 L237.9044 451.8859 L235.1713 453.361 L234.6639 453.6523 L234.0081 454.0347 L233.2069 450.4063 L231.9694 451.2531 L231.5985 446.928 M233.9636 162.2284 L235.6194 158.7912 L238.3643 156.48 L238.6462 156.3979 L238.1269 158.4037 L239.0765 160.4323 L237.0141 162.2147 L233.9636 162.2284 M234.2633 447.7475 L236.1625 447.0145 L236.3079 446.9736 L236.9637 448.526 L240.3288 450.6521 L237.4029 450.1741 L234.2633 447.7475 M236.6432 441.2917 L238.1774 440.6452 L238.3495 440.6133 L242.3081 444.7518 L238.2308 446.9098 L237.5156 445.585 L238.121 444.2738 L236.6432 441.2917 M239.9044 459.8256 L241.5514 459.0152 L244.8779 456.7572 L245.1747 456.8482 L248.7831 459.6389 L242.7473 462.2475 L242.2784 460.8499 L240.5246 460.5585 L239.9044 459.8256 M242.2814 451.0528 L244.3349 451.0983 L245.0174 450.3653 L245.3052 450.3653 L245.053 451.2759 L246.4447 451.2759 L247.0828 452.8101 L246.4744 454.3853 L248.6763 453.7889 L248.5309 455.4916 L249.5131 456.4795 L249.8425 455.3732 L252.0325 456.352 L250.3529 459.038 L244.7266 454.0393 L243.2785 452.4459 L242.2814 451.0528 M244.231 108.755 L244.3853 106.8308 L245.7058 106.8308 L247.0293 106.9357 L246.3082 109.1517 L244.231 108.755 M250.3262 426.804 L251.5547 425.8023 L252.2788 425.7887 L253.0058 425.7796 L252.8218 428.1381 L250.4805 428.7391 L250.3262 426.804 M250.3648 253.8998 L251.5162 252.0134 L252.2076 252.0134 L253.8931 253.2847 L250.9612 255.6541 L250.3648 253.8998 M257.5045 436.4246 L259.9319 434.0206 L260.012 433.9888 L262.6353 434.7309 L258.7123 437.1667 L257.5045 436.4246 M268.1981 124.8485 L268.2604 124.0534 L268.3447 123.8085 L268.3384 123.0325 L268.496 121.905 L268.6744 119.7585 L268.5652 118.4882 L268.7242 118.1727 L268.6963 117.7099 L268.9423 116.9503 L269.2661 116.6608 L269.5836 116.0507 L269.9738 115.8638 L270.4344 115.7954 L271.17 115.7945 L271.1851 116.291 L271.3751 116.7164 L271.7774 116.8888 L272.1386 116.8113 L272.3786 116.7994 L272.4979 116.8637 L272.6873 117.2649 L272.6721 117.6985 L272.6671 118.2115 L272.6656 118.4153 L272.668 118.909 L272.676 119.0691 L272.6968 119.3262 L272.8152 120.4802 L272.9018 121.4418 L273.0422 121.6128 L273.2858 122.0933 L273.417 122.3245 L273.4149 122.5556 L272.9241 123.9485 L272.8074 124.1154 L272.622 124.243 L272.3896 124.2636 L271.9246 124.1569 L271.2679 123.923 L271.0112 123.8509 L270.846 123.799 L270.7002 123.7944 L269.3895 123.6572 L269.0221 124.9826 L268.1981 124.8485 M268.6607 157.2741 L268.7661 156.8925 L268.937 156.702 L268.9672 156.3054 L269.2189 155.8887 L269.3607 155.39 L269.575 154.7577 L269.9613 154.1054 L270.3442 153.5588 L270.5314 153.3582 L270.6581 153.3646 L270.9448 153.3081 L271.2994 153.0847 L271.424 152.7669 L271.7386 152.451 L272.5318 151.8028 L272.9834 151.5849 L273.0959 151.6874 L273.3416 151.718 L273.5799 151.3401 L273.7846 151.2694 L274.2496 151.0934 L274.614 150.9982 L274.7707 150.891 L274.8111 150.7502 L274.7277 150.6093 L274.7764 150.2797 L275.0345 149.8083 L275.5182 149.3283 L276.0779 148.9586 L276.2916 148.6677 L276.5551 148.6445 L276.8871 148.5578 L277.0842 148.4589 L277.1854 148.2829 L277.4696 148.1981 L277.8326 148.2684 L278.3358 148.1968 L278.5596 148.091 L278.6596 148.0828 L278.8201 148.0632 L279.367 148.0327 L280.3469 148.1147 L280.9353 148.344 L281.2238 148.406 L281.5116 148.4316 L281.7045 148.7457 L281.7033 148.9777 L281.5369 149.2312 L281.2704 149.5594 L280.6339 150.2496 L279.9148 150.8436 L279.5222 151.2826 L279.3676 151.5953 L279.1842 151.9377 L278.8273 152.627 L278.443 153.4498 L278.2952 153.8811 L277.8884 154.5261 L278.0943 155.0472 L278.4409 155.535 L278.4382 155.8299 L278.3014 156.0825 L277.9545 156.1189 L274.1737 157.4186 L274.0621 157.4437 L273.8152 157.5057 L273.6547 157.5636 L273.4137 157.6187 L273.1941 157.688 L272.9742 157.8458 L272.6745 158.0536 L272.1914 158.2059 L271.6765 158.1945 L271.0504 158.1051 L270.4008 157.9957 L269.5139 157.8116 L269.1536 157.6032 L268.8358 157.5303 L268.6607 157.2741 M270.6554 373.0609 L272.1012 371.8927 L274.3657 371.1485 L278.5023 369.3487 L279.2383 369.928 L282.685 367.4185 L283.98 366.8201 L284.9987 366.7158 L286.6952 367.899 L288.6128 368.1896 L290.2502 368.4027 L293.015 367.7232 L296.4517 365.1568 L300.1349 366.7541 L304.2706 366.5947 L306.963 365.2402 L306.7354 364.5634 L307.8455 363.9276 L308.3503 364.1421 L309.9655 362.1477 L308.9414 361.4035 L309.7708 360.208 L309.0414 357.8761 L308.9934 355.7258 L313.5244 353.2768 L314.3167 351.5597 L315.023 351.5552 L315.7292 351.5552 L314.2425 354.5521 L314.7381 359.1841 L314.2425 360.6325 L313.2128 360.4138 L312.5867 360.2408 L312.7796 361.976 L311.6727 363.1374 L309.91 364.6996 L310.3011 365.1833 L310.332 367.1243 L309.7946 370.7965 L310.0881 372.5512 L311.9748 373.2116 L312.4935 376.3053 L311.1875 377.3108 L312.7042 378.7067 L314.1787 380.6308 L314.3194 382.3176 L314.6995 382.962 L315.5289 383.9589 L316.5747 384.5632 L318.7712 385.1388 L322.255 387.6107 L321.7867 388.9132 L319.7967 390.2648 L318.6305 391.0512 L314.9621 391.0335 L314.2351 389.4501 L313.795 386.587 L310.7409 385.5396 L303.2659 388.4541 L308.9931 388.363 L309.2776 388.6354 L308.6936 390.4342 L305.3173 391.8937 L302.9121 390.7789 L300.6002 390.4255 L299.2972 390.8841 L298.1847 392.043 L297.1075 391.5275 L295.8769 392.3113 L295.1611 391.8946 L294.8632 391.319 L296.1855 390.0662 L297.584 388.2055 L299.6696 387.2774 L298.9247 385.2413 L301.586 384.1688 L303.3142 383.4261 L304.8629 382.2229 L306.9238 378.4662 L304.565 378.0222 L303.87 376.5722 L302.767 375.4281 L302.2682 374.7514 L303.2344 373.4343 L306.3624 375.0629 L307.4449 375.2815 L309.1429 374.5068 L309.5005 373.7522 L307.2066 373.0076 L303.9493 370.674 L303.4528 372.074 L301.9634 371.8554 L299.6972 373.0267 L297.1472 375.2514 L293.7426 376.1732 L292.0132 376.0033 L287.9804 374.0359 L287.6243 372.5011 L285.6688 372.5011 L280.3006 374.3684 L276.1847 372.6287 L275.5141 371.8818 L273.3858 373.3696 L270.6554 373.0609 M273.5793 63.8839 L274.2054 61.3026 L274.9028 61.5078 L275.7544 54.904 L277.6685 52.6054 L277.9652 52.724 L283.826 57.2847 L287.2296 62.3196 L285.3483 63.2819 L285.1613 67.6007 L283.2977 71.8328 L278.072 72.4575 L275.3301 70.9572 L275.4963 67.5368 L274.3271 65.0788 L273.5793 63.8839 M277.6358 76.9814 L278.5053 74.6419 L278.8287 74.7833 L280.719 75.3807 L279.8644 76.8537 L278.5854 78.5729 L277.6358 76.9814 M277.8851 142.8811 L278.0928 142.7758 L279.7329 141.5312 L280.1303 141.1574 L280.2715 140.9883 L280.4012 140.8811 L280.706 140.7448 L281.1173 140.7539 L282.3802 142.65 L282.0873 142.96 L281.9689 143.1515 L281.9591 143.5066 L282.2217 143.7833 L282.4188 144.0473 L282.4787 144.1462 L282.574 144.2502 L282.6965 144.4489 L282.9506 144.2784 L283.0651 144.2041 L283.1556 144.2224 L286.0513 148.0737 L284.015 149.1801 L282.6321 147.5991 L281.7915 146.5337 L281.3211 145.9953 L280.8629 145.7314 L280.5873 145.4925 L280.4481 145.2167 L280.2697 144.9609 L279.654 144.7275 L279.3291 144.5793 L278.8872 144.314 L278.5477 144.0478 L278.3341 143.8609 L278.1252 143.6324 L278.0447 143.3721 L277.9729 143.1155 L277.8851 142.8811 M283.6835 90.6207 L286.2563 89.7862 L286.4106 89.7634 L288.6896 91.6832 L286.0456 93.3931 L283.6835 90.6207 M285.6064 21.3757 L286.4225 17.4438 L286.7934 17.4985 L287.838 22.2834 L287.5472 21.9505 L285.6064 21.3757 M290.8105 138.9582 L293.1127 139.901 L294.8264 140.7991 L294.0711 142.5182 L293.1284 143.6384 L291.7755 142.8511 L290.8105 138.9582 M303.7258 436.9664 L319.4712 426.7813 L319.5098 426.7767 L319.7472 427.9969 L323.9254 426.8905 L323.5426 434.4304 L320.5336 434.8857 L318.1625 434.0252 L314.9844 436.0285 L314.0615 434.3758 L314.2663 435.7963 L312.4828 435.7963 L311.8507 434.4395 L311.3908 435.8555 L308.4619 437.1667 L307.8625 435.3683 L303.7258 436.9664 M320.6374 395.162 L323.1004 394.1783 L323.2221 394.1556 L325.5159 396.6738 L325.2222 398.0035 L321.0796 397.4753 L320.6374 395.162 M321.8935 209.0391 L324.7091 208.0724 L326.3201 206.8683 L328.1071 206.8373 L328.8897 205.9399 L330.0864 206.8068 L328.2377 208.916 L328.5751 209.7524 L331.4209 213.2885 L330.0404 214.37 L327.2635 213.0967 L325.1848 214.2169 L324.5634 213.6185 L325.0233 212.7763 L325.5278 211.6971 L321.8935 209.0391 M327.7297 399.0053 L330.7951 398.2858 L333.5014 396.0135 L333.7981 395.9907 L335.8694 400.8496 L330.4864 402.3113 L328.4656 401.1956 L329.8277 401.1956 L329.433 399.4379 L327.7297 399.0053 M328.3736 424.2451 L329.2787 424.0812 L333.2136 423.9583 L334.2729 430.7288 L338.7063 429.4266 L340.926 426.9178 L341.0269 425.4472 L341.1308 423.981 L343.0774 423.7989 L343.1902 423.7762 L343.9855 429.0305 L345.579 431.7714 L344.3178 432.377 L341.478 430.3372 L337.4986 431.9763 L332.9376 431.5893 L332.9376 430.105 L331.7506 430.105 L331.1986 433.4105 L329.1541 433.8613 L329.8425 428.0152 L328.3736 424.2451 M332.7744 433.9751 L333.7774 432.5136 L333.9168 432.3861 L335.7567 436.6796 L337.1662 436.9983 L339.1218 440.5814 L337.6173 440.9457 L336.1959 436.9801 L335.6676 437.2305 L332.7744 433.9751 M333.6524 39.7227 L333.7447 39.517 L333.7714 39.3104 L333.7901 39.0185 L333.9973 38.5984 L334.1682 38.2705 L334.3587 38.3302 L334.6934 38.494 L334.9454 38.5583 L335.1753 38.6532 L335.384 38.7211 L335.7178 38.9387 L336.0484 39.1485 L336.3054 39.2242 L336.4341 39.3323 L336.5724 39.5052 L336.8365 39.7086 L337.0662 39.9845 L337.2977 40.1907 L337.2535 40.5277 L337.2092 40.8653 L337.1716 41.3214 L337.1092 41.5946 L337.03 41.7902 L335.9567 41.1932 L335.0267 40.8361 L334.3204 40.6477 L333.9174 40.5474 L333.7412 40.2285 L333.6524 39.7227 M337.9823 408.9368 L337.9823 406.4095 L341.1723 406.4551 L344.2644 404.6519 L344.3356 404.6291 L346.2912 406.5644 L346.2259 407.0334 L337.9823 408.9368 M338.371 404.3786 L338.552 402.1975 L340.2821 401.3277 L338.6114 400.8541 L338.9022 399.3696 L346.5879 398.2631 L346.5879 397.325 L346.8876 397.325 L350.7305 399.2877 L350.1281 400.2121 L352.3567 404.406 L349.7691 405.5535 L347.4426 403.4451 L338.371 404.3786 M339.1752 46.4073 L339.9853 42.0835 L340.2999 42.0789 L341.9884 45.039 L339.1752 46.4073 M343.7214 424.409 L344.2881 423.5166 L344.6086 423.5713 L350.3715 432.3588 L356.7515 436.9937 L354.0956 437.3534 L352.3745 435.3456 L345.4929 430.6514 L343.7214 424.409 M350.3002 73.5748 L350.9056 73.2784 L350.775 72.4438 L351.0599 72.1748 L351.3448 72.6126 L352.1252 72.1611 L352.7781 73.78 L353.2321 75.0432 L351.4843 75.3716 L350.3002 73.5748 M350.3329 378.877 L350.5198 377.324 L353.4131 377.3332 L356.3064 377.3468 L354.2054 378.877 L350.3329 378.877 M380.7966 132.7583 L385.7176 129.3097 L386.9963 128.7549 L387.5292 128.7882 L388.1325 129.4752 L390.8172 132.1328 L391.6608 131.2237 L393.4015 132.9201 L390.6154 135.5858 L389.6637 134.7843 L388.5479 135.7873 L383.7347 136.0472 L380.7966 132.7583 M390.4412 115.1429 L391.4709 110.091 L391.8418 110.4831 L400.9668 114.8101 L401.3793 115.7494 L400.2991 114.7691 L396.3435 116.3603 L391.8715 113.921 L390.4412 115.1429 M400.8956 67.8424 L401.7057 65.2977 L403.2666 65.4573 L404.8483 65.6488 L403.7948 67.8424 L400.8956 67.8424 M407.0142 93.8719 L407.697 92.3033 L411.8426 91.2317 L413.724 83.434 L415.6142 87.2235 L415.262 89.7734 L413.932 91.11 L412.096 92.602 L409.5045 94.7593 L412.5963 98.3862 L412.2571 100.3501 L410.0918 99.9092 L407.0142 93.8719 M408.7564 429.158 L408.7564 428.1199 L414.2996 424.96 L414.4688 424.7824 L414.8397 424.4273 L416.635 427.0681 L418.6589 428.5706 L418.095 429.4357 L410.7209 429.2946 L408.7564 429.158 M415.5169 147.4273 L415.6751 147.1255 L416.4653 146.4959 L417.1817 145.6347 L417.3306 144.6628 L417.893 144.1973 L418.406 143.6831 L418.7043 143.3348 L418.5592 142.6883 L418.939 142.3601 L420.6269 140.3122 L420.5109 139.9155 L422.2222 137.9684 L422.724 137.7017 L424.043 136.318 L424.4428 135.4472 L424.7223 134.8878 L425.0211 134.6476 L425.3535 134.7871 L425.3591 135.1322 L424.6828 136.4056 L423.9864 137.4505 L423.638 137.5964 L423.1213 138.5351 L422.378 139.6994 L420.8631 141.8946 L419.6369 143.0275 L419.2227 143.3425 L420.08 144.6546 L421.0797 145.5832 L419.4699 146.9267 L418.2612 147.8398 L416.3974 148.9052 L415.8953 148.4188 L415.5712 147.9533 L415.5169 147.4273 M428.9471 155.9557 L430.6356 155.2172 L430.7424 155.1762 L431.6059 157.7929 L429.9174 158.3308 L428.9471 155.9557 M430.0896 123.8149 L431.0035 120.9334 L432.606 122.3514 L434.1283 119.6522 L435.5378 119.7708 L436.8257 120.1674 L436.0542 121.7632 L434.977 123.9426 L435.9711 123.3088 L437.0364 122.4927 L437.8376 123.6052 L435.7396 126.1174 L437.9949 125.6797 L439.5855 127.549 L440.4341 127.1979 L439.7694 126.8651 L440.538 123.5049 L440.0276 121.1431 L441.0276 119.6066 L448.2327 121.9547 L448.2386 123.4046 L446.8825 125.1736 L446.7163 125.2876 L441.7873 133.2069 L436.9889 137.2052 L435.7426 136.2113 L434.4992 135.2129 L434.1372 131.5155 L431.0065 128.4608 L430.0896 123.8149 M432.6386 108.6547 L435.1342 108.3766 L435.4814 106.1469 L436.2708 106.1469 L440.5083 110.5971 L440.7991 116.2372 L437.7634 115.5807 L434.3004 112.2249 L432.6386 108.6547 M442.2888 110.6336 L442.5114 107.8841 L453.7996 97.8162 L453.7403 99.9548 L454.8264 97.2554 L455.0163 97.2554 L454.7433 98.6233 L456.2359 98.7464 L455.6335 100.6843 L457.0371 102.1024 L456.227 103.0965 L458.6099 104.2318 L456.2567 105.5131 L452.0548 113.0866 L448.2475 114.3177 L445.4047 115.2661 L444.6628 112.3024 L442.2888 110.6336 M467.5153 95.974 L470.3818 93.2335 L470.5184 93.1515 L471.9635 96.2887 L467.5153 95.974" stroke-dasharray="" fill="none" fill-opacity="1.0" stroke="#ff0000" stroke-opacity="1.0" stroke-width="1.0px" stroke-linecap="butt" stroke-linejoin="miter" stroke-dashoffset="0.0px"/>
</g>
</svg>