<?xml version="1.0" standalone="no"?>
<!DOCTYPE svg PUBLIC "-//W3C//DTD SVG 1.1//EN" "http://www.w3.org/Graphics/SVG/1.1/DTD/svg11.dtd">
<svg width="512px" height="512px" version="1.1" xmlns="http://www.w3.org/2000/svg" xmlns:inkscape="http://www.inkscape.org/namespaces/inkscape">
<g id="layer" inkscape:groupmode="layer" inkscape:label="layer">
<path d="M0.0 225.1031 L0.4136 231.1432 L1.5363 237.0904 L3.3089 242.9447 L5.6725 248.5201 L8.6269 253.8169 L12.1722 258.7419 L16.1902 263.2952 L20.74 267.3838 L25.6443 270.8221 L30.9623 273.7956 L36.5166 276.2117 L42.3663 277.9773 L48.3342 278.9994 L54.7158 292.9381 L51.525 298.049 L48.9251 303.4386 L46.9161 309.1999 L45.498 315.0541 L44.7889 321.0013 L44.6707 327.0414 L45.2616 333.0815 L46.4434 339.0287 L48.2751 344.79 L50.6977 350.2725 L53.7113 355.5692 L57.3156 360.4013 L61.3927 364.8617 L65.8834 368.8574 L70.8469 372.2956 L76.1057 375.2692 L81.66 377.5923 L87.4507 379.2649 L93.3595 380.38 L99.741 393.8541 L96.5503 398.872 L93.8322 404.1687 L91.7641 409.6512 L90.2869 415.4125 L89.4006 421.2667 L89.1642 427.2139 L89.5188 433.161 L90.5233 438.9223 L92.1777 444.6836 L94.4231 450.1662 L97.2002 455.3699 L100.5683 460.2949 L104.409 464.7553 L108.7224 468.8439 L113.3904 472.3751 L118.472 475.4416 L123.849 477.9505 L129.4624 479.809 L135.194 481.1099 L141.1028 481.7604 L147.0117 481.8533 L152.8614 481.2029 L158.652 479.9948 L164.2654 478.1364 L169.7016 475.7203 L174.7832 472.6538 L179.5102 469.1227 L183.8827 465.127 L187.7826 460.6666 L191.1506 455.8346 L193.9868 450.6308 L196.2913 445.1483 L198.0048 439.4799 L199.0684 433.6257 L213.3087 427.2139 L218.4494 430.2804 L223.8855 432.7893 L229.558 434.6478 L235.4077 435.9488 L241.3166 436.5992 L247.3436 436.6922 L253.2524 436.0417 L259.1021 434.8337 L264.8337 433.0681 L270.3289 430.6521 L275.4696 427.6785 L280.3739 424.2403 L288.8826 415.7842 L301.1139 388.8361 L324.2765 378.4286 L329.3581 381.4951 L334.7351 384.097 L340.3485 385.9555 L346.1392 387.3494 L351.9889 387.9998 L357.9568 388.0927 L363.8657 387.5352 L369.6563 386.3272 L375.3288 384.4687 L380.7649 382.0527 L385.9056 379.0791 L390.6917 375.548 L395.0643 371.5522 L399.0232 367.0918 L402.4503 362.2598 L405.3456 357.056 L407.7092 351.5735 L409.4227 345.9051 L410.5454 340.0508 L424.963 333.732 L429.9855 336.7985 L435.3034 339.4004 L440.9168 341.4447 L446.6484 342.7456 L452.4981 343.582 L458.4069 343.6749 L464.3158 343.1173 L470.1064 342.0022 L475.7789 340.2367 L481.215 337.9136 L486.3557 335.0329 L491.2009 331.5947 L495.6325 327.6919 L499.5915 323.2315 L503.0777 318.4924 L506.0321 313.3815 L508.4547 307.899 L510.2274 302.2306 L511.4091 296.4692 L512.0 290.5221 L511.9409 284.6678 L511.2319 278.7206 L509.9319 272.9593 L508.0411 267.3838 L505.5003 261.9942 L502.4277 256.8834 L498.8824 252.1442 L494.8053 247.8697 L490.3146 244.0598 L485.4103 240.7145 L480.2105 237.8338 L474.7153 235.6036 L469.0428 234.0239 L463.1931 233.0017 L457.2252 218.7842 L460.475 213.7663 L463.134 208.2838 L465.2021 202.6153 L466.6202 196.7611 L467.3883 190.8139 L467.4474 184.7738 L466.9156 178.7337 L465.7339 172.8794 L463.843 167.1181 L461.3613 161.6355 L458.3478 156.4317 L454.7435 151.5996 L450.6073 147.2322 L445.9984 143.2364 L441.035 139.8911 L435.717 137.1034 L430.1627 134.8732 L424.313 133.2005 L418.4042 132.2713 L412.5544 117.775 L415.8043 112.6641 L418.4632 107.1815 L420.4722 101.5131 L421.8904 95.5659 L422.6585 89.5258 L422.7176 83.4857 L422.1858 77.4455 L420.945 71.4983 L419.1132 65.737 L416.6315 60.1615 L413.5589 54.9577 L409.8954 50.1256 L405.8183 45.6652 L401.2095 41.6694 L396.187 38.2312 L390.869 35.3505 L385.2556 33.1203 L379.4059 31.5406 L373.438 30.5184 L367.411 30.1467 L361.384 30.5184 L355.416 31.5406 L349.5663 33.2132 L343.9529 35.4434 L338.635 38.3241 L333.6716 41.7623 L329.0627 45.7581 L324.9265 50.2185 L321.3221 55.0506 L318.3086 60.3473 L315.8269 65.8299 L313.9952 71.5913 L312.7543 77.5385 L297.805 83.7644 L292.7234 80.7908 L287.3463 78.2819 L281.792 76.4234 L276.0014 75.2153 L270.1516 74.5649 L264.2428 74.5649 L258.334 75.2153 L252.6024 76.5163 L246.989 78.3748 L241.612 80.7908 L236.5304 83.8574 L231.8033 87.3885 L227.4899 91.3843 L223.6492 95.8447 L220.2811 100.6768 L217.4449 105.8806 L215.1405 111.3632 L213.486 117.0316 L212.4224 122.8858 L188.3144 133.4793 L183.2328 130.2269 L177.7967 127.625 L172.1242 125.5807 L166.2744 124.1868 L160.3065 123.4434 L154.2795 123.3505 L148.3116 123.908 L142.4028 125.116 L136.6712 126.9745 L131.176 129.3906 L125.9762 132.3642 L121.131 135.8953 L116.6994 139.984 L112.6814 144.5373 L109.1952 149.4624 L106.2998 154.6662 L103.9363 160.2416 L102.2227 166.003 L101.1001 171.9502 L86.6234 178.362 L81.4237 175.1096 L75.9875 172.6006 L70.1969 170.6492 L64.2881 169.2553 L58.2611 168.6049 L52.234 168.6049 L46.207 169.3483 L40.2982 170.6492 L34.5666 172.6006 L29.0714 175.2025 L23.8717 178.362 L19.0855 182.079 L14.713 186.2606 L10.8722 190.9998 L7.5042 196.0177 L4.7271 201.4073 L2.5999 207.0757 L1.0636 213.0229 L0.1773 218.9701 L0.0 225.1031" stroke-dasharray="" fill="none" fill-opacity="1.0" stroke="#ff0000" stroke-opacity="1.0" stroke-width="1.0px" stroke-linecap="butt" stroke-linejoin="miter" stroke-dashoffset="0.0px"/>
</g>
</svg>