<?xml version="1.0" standalone="no"?>
<!DOCTYPE svg PUBLIC "-//W3C//DTD SVG 1.1//EN" "http://www.w3.org/Graphics/SVG/1.1/DTD/svg11.dtd">
<svg width="512px" height="512px" version="1.1" xmlns="http://www.w3.org/2000/svg" xmlns:inkscape="http://www.inkscape.org/namespaces/inkscape">
<g id="layer" inkscape:groupmode="layer" inkscape:label="layer">
<path d="M0.0 357.3471 L5.895 360.4364 L10.4713 363.2469 L19.1199 369.6449 L23.9417 373.0536 L29.6556 377.1394 L29.3972 372.6949 L31.2973 372.914 L32.4607 379.1324 L35.7572 382.7601 L40.1914 386.1283 L45.2849 388.8585 L44.977 390.2824 L51.335 395.383 L58.2635 400.3192 L61.5479 402.1682 L70.6563 407.7642 L80.0935 413.5933 L82.9053 407.5148 L83.0878 407.5728 L83.4297 407.3088 L83.7601 407.2152 L84.0494 407.1875 L84.2892 407.382 L84.4934 407.6455 L84.8102 408.1919 L85.4906 408.4367 L85.8946 407.3904 L86.2643 407.5932 L86.7307 407.8359 L86.7473 407.7689 L87.7177 408.2139 L88.8014 408.8607 L89.8003 409.209 L91.7642 410.3426 L92.9649 411.0772 L93.5242 411.4579 L93.5252 411.4929 L94.4464 412.0027 L94.5133 411.8542 L94.7239 411.7915 L95.1096 411.7355 L95.5932 411.8683 L96.1743 412.2328 L98.0418 413.6874 L98.8596 414.2605 L100.1102 415.0757 L101.0694 415.6665 L105.7868 418.2761 L105.993 418.331 L109.8003 419.2408 L116.7821 420.914 L116.7418 425.397 L116.0787 427.7623 L116.1655 428.4389 L116.0397 429.1923 L115.9155 429.6671 L115.6024 430.3347 L115.2008 431.3083 L114.9973 431.6214 L114.9441 431.8107 L114.7029 432.0732 L114.4207 432.5071 L113.4072 433.8278 L112.7445 434.633 L111.9952 435.2196 L111.6611 435.4172 L111.5709 435.4852 L116.2974 438.3184 L125.3062 442.6149 L133.1838 444.7946 L138.0514 442.6092 L143.5659 440.1242 L146.6565 439.1899 L146.7671 439.191 L147.8006 438.7816 L147.9421 439.0279 L147.9346 439.2025 L148.095 439.2041 L148.2198 438.5338 L148.7676 438.996 L149.0254 439.225 L152.3793 439.8984 L152.8341 438.5458 L152.9216 437.667 L153.1028 437.6403 L153.135 437.6513 L153.2276 437.3763 L160.285 440.4646 L161.8768 441.0585 L163.2627 441.5683 L164.0493 441.8657 L164.2789 441.9525 L164.438 442.0932 L164.5764 442.604 L164.669 443.0813 L164.652 443.5712 L164.7453 444.0516 L164.7782 444.129 L168.2559 444.8798 L172.5784 443.2606 L169.8917 441.8286 L170.1346 441.0559 L170.0413 440.9466 L169.8985 440.4364 L169.9586 440.0808 L170.0722 439.6406 L170.3476 439.0707 L171.0884 438.0209 L171.1444 437.8431 L171.3228 437.6832 L172.3736 435.9207 L173.0482 435.2421 L173.7507 434.7543 L175.4106 433.9387 L175.6074 433.8466 L176.0123 433.4843 L179.9913 429.5609 L182.1526 430.0592 L187.061 425.2019 L188.2729 426.8521 L191.6057 425.2642 L191.3635 419.1305 L194.0499 417.3867 L196.6857 409.3894 L199.2207 407.6403 L196.0032 403.7191 L195.6583 403.6255 L195.429 403.3975 L195.256 403.0645 L195.2292 402.7758 L194.9792 402.471 L204.9899 396.4047 L207.1411 398.842 L213.1134 405.6235 L215.4368 404.1385 L216.7122 403.5894 L216.7285 403.3317 L216.587 402.586 L216.7003 401.7483 L216.8821 400.8965 L216.8957 400.8322 L216.8658 400.2685 L216.6572 400.0159 L216.3567 399.9396 L216.0623 399.9255 L215.6973 399.834 L215.503 399.4591 L215.4762 399.1783 L215.4928 399.1474 L215.1926 398.9618 L216.2611 398.0524 L216.2394 397.8239 L216.2268 397.78 L215.4233 397.2571 L212.9981 399.4324 L212.3733 397.119 L211.758 396.7363 L211.4148 396.4325 L210.5628 396.2819 L210.364 396.1747 L210.0848 395.8855 L209.8566 395.4651 L209.5425 394.38 L209.3298 393.4325 L209.2572 392.7684 L209.3315 392.3124 L209.4726 391.9636 L209.7294 391.7926 L209.9912 391.7205 L210.3243 391.7074 L210.8076 391.9872 L210.983 391.9704 L210.6781 390.8409 L211.2276 390.6108 L218.8524 385.1881 L220.1176 387.3007 L221.592 393.7044 L221.8115 394.3779 L221.9841 395.0556 L222.0923 395.9038 L222.6988 398.5696 L238.8881 386.7516 L242.4665 384.958 L241.5032 382.7721 L245.1495 381.0882 L246.4994 384.367 L247.2497 383.374 L247.6435 382.7601 L248.5447 381.1557 L249.8967 379.3092 L251.653 377.3183 L252.1523 376.8272 L253.5239 374.9959 L253.9011 375.3034 L254.1077 375.1423 L254.355 375.0199 L254.532 374.998 L254.7369 375.0947 L255.4956 376.2191 L256.2395 377.5557 L256.8405 378.8516 L257.587 380.4256 L257.8954 381.5746 L257.9327 381.9678 L258.666 383.5617 L258.9214 383.3489 L259.1639 382.907 L259.2192 382.6936 L259.2467 382.0954 L258.8695 380.7483 L263.3807 378.1388 L261.2574 377.7309 L262.0385 376.9601 L261.6624 376.7263 L261.0807 376.059 L260.8944 375.9304 L260.6241 375.9136 L260.1014 375.9639 L259.6401 375.9649 L259.3603 376.0439 L259.1185 376.1756 L258.9177 376.3932 L258.8838 376.6327 L258.9075 376.8806 L258.9699 377.2901 L258.9231 377.5923 L258.8458 377.7696 L258.551 377.9396 L258.4197 377.962 L258.4591 378.165 L257.5263 378.2434 L256.1119 375.2521 L256.7811 375.0471 L256.7482 374.8855 L256.6597 374.486 L256.6546 374.202 L256.7934 373.9128 L257.0993 373.6618 L257.5043 373.3632 L258.1559 373.0839 L258.6192 373.0018 L259.0086 373.052 L259.9067 373.3229 L260.8626 373.6613 L261.7007 373.9316 L261.7417 373.9703 L262.1169 373.9479 L262.1416 373.9081 L259.3511 369.7976 L258.3444 364.9612 L258.8163 364.7531 L258.8308 364.7154 L259.0242 364.5172 L259.538 364.2745 L262.087 363.2898 L262.3512 363.1909 L266.8258 361.2141 L267.305 359.9186 L268.0757 359.6116 L268.1923 359.5232 L269.3975 358.9689 L270.0806 358.7712 L270.1572 358.7827 L270.6528 358.585 L275.8423 365.6296 L280.3264 365.3629 L274.7468 359.0086 L271.6873 357.5966 L270.6155 355.5098 L272.9993 354.786 L277.849 356.1453 L280.3549 356.8513 L280.7388 361.0242 L281.1913 361.4091 L283.9356 359.5306 L283.9726 359.4772 L284.3576 359.0672 L284.7744 358.7958 L285.1377 358.6007 L285.5763 358.4077 L285.6346 358.3601 L287.1202 357.743 L286.8048 356.4564 L288.0971 354.9868 L289.0641 358.4815 L289.8198 358.7492 L290.0325 358.9087 L290.1549 359.0573 L290.2414 359.2241 L290.586 360.5232 L290.8872 361.8123 L291.2122 363.0753 L291.3275 363.523 L293.0743 370.455 L293.0607 371.1234 L292.6405 371.4607 L290.1912 371.9068 L289.2235 371.7347 L289.1184 371.4235 L289.2876 369.1356 L288.7056 367.2686 L288.1378 366.9919 L287.4123 367.2879 L287.0022 368.6738 L286.5887 369.7835 L286.1807 371.4884 L285.9256 373.5447 L285.8703 374.5367 L285.3863 374.793 L282.3391 373.8893 L282.0752 376.434 L283.1314 377.7785 L283.5113 379.1 L284.693 381.3774 L284.8362 382.6523 L285.7998 386.0472 L285.9545 387.2631 L285.694 390.1428 L286.0664 392.1853 L286.4676 394.8773 L286.9544 395.7375 L287.4682 395.6931 L287.7766 396.2447 L287.8095 397.6482 L287.7413 398.7144 L287.1277 400.0473 L286.4127 401.5465 L281.4311 407.6183 L279.9455 409.5311 L279.3363 410.1088 L278.4876 410.7943 L277.3107 411.3753 L271.8623 413.3345 L270.2783 414.5293 L264.7401 421.498 L264.0204 424.2598 L265.4131 424.4997 L266.7522 422.4486 L266.5415 421.931 L267.0802 420.8058 L269.5681 418.2082 L271.7826 415.5734 L274.5205 414.387 L277.041 413.0432 L278.9995 412.4064 L280.0387 411.4171 L282.2102 408.6688 L283.1396 407.7532 L285.8703 405.2632 L289.6102 397.4568 L289.5441 396.6976 L288.1643 394.2059 L287.4801 392.5739 L287.2037 390.3201 L287.7199 388.1923 L288.1609 385.5484 L289.3121 385.072 L292.7768 384.8999 L293.0224 384.5098 L292.7344 382.9818 L292.9508 382.4421 L293.7567 381.8878 L295.7376 382.0201 L296.0171 382.1869 L296.1402 382.3924 L296.2155 382.6403 L296.2538 383.4917 L296.2898 384.8152 L296.7582 387.1558 L297.1048 388.4454 L297.3426 389.0651 L298.2414 390.7457 L298.6881 392.0306 L299.1983 393.6349 L299.6993 395.3443 L299.8719 395.9587 L301.3762 394.9746 L304.4811 401.0691 L305.599 398.831 L304.5035 394.9144 L304.8121 394.253 L304.4211 393.363 L303.3346 390.0084 L302.9137 389.8421 L302.1733 389.3464 L302.1302 389.2941 L301.403 388.4883 L300.2637 386.5628 L299.8129 384.4183 L299.6185 382.4306 L300.2623 378.3375 L300.8135 378.2423 L315.4503 375.9774 L315.8221 376.1082 L316.0819 376.8571 L316.9516 376.8027 L317.7666 376.5218 L320.0663 375.3253 L319.9266 374.8892 L319.9839 374.6664 L320.0446 374.4515 L320.3767 374.2778 L320.9791 374.1215 L321.9454 373.9301 L322.908 373.6937 L322.6024 370.9429 L322.6241 370.9429 L322.3195 369.2281 L322.153 368.4646 L322.1591 368.1806 L322.3239 367.9803 L322.4928 367.9741 L322.7717 368.1315 L323.2173 368.8589 L324.1867 370.3917 L324.6243 370.7845 L325.0852 370.854 L326.503 370.7442 L329.9756 371.0716 L333.11 371.2102 L338.5193 371.9554 L340.0738 378.6722 L342.8891 375.3776 L344.5952 371.2672 L349.1945 366.9109 L350.171 369.0942 L351.058 370.2662 L352.0084 371.5653 L353.2756 375.1449 L353.8994 373.1472 L354.7331 369.9812 L353.897 366.0997 L355.2005 364.9889 L356.0952 364.1522 L354.9077 358.1033 L359.4304 356.3205 L360.1651 360.9552 L360.4117 362.4781 L360.8998 363.8044 L362.1005 373.5473 L369.1183 368.3229 L373.548 364.7039 L374.7406 364.6615 L375.7995 371.2253 L376.6753 381.8674 L375.0513 381.5662 L374.3061 381.7022 L373.1271 381.7895 L372.0936 381.6148 L371.0038 381.3973 L370.0954 381.1531 L368.4202 380.5705 L368.2096 380.3357 L368.1933 380.2949 L367.5071 380.1678 L367.5071 380.7358 L367.5929 381.1358 L367.6296 382.1712 L367.5071 383.2433 L367.5071 383.5037 L367.5566 383.7353 L368.1431 384.6186 L368.3843 384.8963 L368.544 385.2215 L369.3692 386.464 L368.9175 387.5277 L369.0752 387.7546 L369.7091 387.9768 L371.7714 388.6572 L373.3289 389.0996 L374.1141 389.498 L381.4985 390.1193 L381.5436 390.6678 L381.6138 391.0067 L381.6033 391.3947 L381.7258 393.1104 L388.0855 390.5951 L389.7265 389.4719 L391.2999 387.2024 L392.5882 382.8615 L392.8368 372.4496 L393.8143 364.7039 L392.6136 357.1049 L393.7668 351.3467 L394.1264 346.9634 L397.2703 347.0272 L398.1596 349.4514 L400.0831 349.5152 L399.6076 353.3263 L410.8014 352.3488 L410.7946 351.2155 L406.7274 351.4163 L406.2794 348.7077 L410.1871 348.7333 L410.2285 345.8635 L411.5513 344.7992 L417.3344 344.3666 L417.5288 343.1088 L416.9196 342.0324 L417.2408 341.2714 L418.082 340.6814 L418.6681 340.8953 L419.6501 342.9132 L420.6741 342.7856 L422.1943 342.5622 L424.3688 345.5042 L427.3682 345.4843 L428.7802 344.3933 L430.9839 345.5863 L433.694 345.2824 L434.1791 344.7976 L435.8872 344.671 L438.9531 342.0946 L450.0139 342.5392 L455.7397 340.581 L457.8423 338.2556 L460.4703 337.379 L477.1487 335.1697 L485.6962 331.4164 L501.3764 323.931 L501.6481 325.9641 L502.8501 325.4259 L503.0964 323.6417 L503.4976 322.8001 L507.2331 321.5233 L501.7848 296.0645 L510.7677 279.6214 L510.6433 278.7964 L510.5429 278.4652 L510.3733 277.4137 L510.3685 276.9779 L510.3475 276.8392 L510.3665 276.7958 L510.3651 276.6771 L510.5259 276.4307 L511.0927 275.0919 L511.1252 274.7864 L511.2226 274.5175 L511.6255 273.6427 L511.7151 273.6061 L512.0 272.926 L511.6981 270.2474 L510.2193 274.5687 L508.0994 274.8199 L507.577 278.7488 L505.7149 282.1074 L504.849 281.885 L504.7292 281.93 L504.5183 281.9405 L504.3348 281.8442 L504.0593 281.6826 L502.842 281.3697 L502.1535 278.189 L500.4487 275.5361 L500.1957 275.5026 L499.9298 275.1782 L499.8657 274.8962 L499.8945 274.6734 L498.2979 272.1889 L497.9621 272.0173 L497.6949 272.0539 L496.256 271.2827 L495.444 270.915 L494.6012 270.5697 L493.3852 269.8623 L492.8737 269.4333 L492.8544 269.4067 L491.9179 268.928 L491.7303 267.867 L493.4876 267.0754 L493.9153 266.4429 L496.0959 262.5138 L497.2695 261.4151 L497.0789 259.0968 L497.1267 257.9966 L498.5299 255.9875 L498.4981 254.9986 L498.2108 253.7231 L496.7441 253.9705 L495.5227 253.7084 L494.5408 253.541 L493.0185 253.3872 L491.4071 253.3364 L488.0512 252.9895 L487.1652 252.9723 L484.7641 253.2286 L481.2135 253.2129 L478.3433 252.3198 L477.6083 251.7035 L477.2379 250.5624 L476.6735 247.805 L476.4453 245.0001 L475.8446 240.8859 L475.8259 240.1283 L475.9612 239.4785 L476.0518 239.2828 L476.4832 238.3158 L476.7234 237.3656 L476.7298 236.6645 L476.719 236.4416 L474.8423 235.224 L474.8002 235.1879 L474.5031 235.1361 L474.3186 234.9995 L473.8451 234.6495 L472.8373 234.6082 L472.4707 235.1204 L471.9039 236.36 L470.6808 238.1343 L469.8742 239.7589 L469.379 241.7399 L469.7331 244.0311 L469.4204 244.9886 L469.2555 245.1215 L469.0035 245.1973 L468.7349 245.1942 L468.3747 245.0796 L466.5404 244.2587 L465.2664 243.4445 L464.0558 242.8025 L462.5933 242.1747 L460.6589 241.0963 L459.6376 240.4606 L455.389 238.2211 L454.405 237.9365 L453.7979 237.7083 L449.8681 240.1634 L448.4876 240.1634 L447.6749 237.7329 L446.7194 237.6356 L446.4498 237.6785 L444.9373 237.8313 L444.3024 237.745 L443.9632 237.5456 L443.8279 237.3599 L443.8282 237.341 L443.4096 237.2981 L444.6202 229.6954 L438.0698 229.4714 L437.7826 230.4374 L437.8016 230.6158 L437.7137 231.0349 L437.575 231.2609 L437.5251 231.3028 L437.401 231.7204 L430.814 231.2819 L429.6574 234.5019 L429.5417 230.5158 L429.7398 229.631 L429.7418 229.2009 L429.8521 228.6709 L429.9599 228.3674 L430.0325 228.2444 L430.0461 228.1811 L430.1818 227.8305 L430.5321 227.4014 L430.8259 226.9054 L431.2702 226.3199 L431.6847 225.8646 L432.0795 225.5057 L432.3763 225.1357 L432.3366 225.131 L432.1355 225.2503 L431.7756 225.3785 L431.5015 225.4235 L431.1104 225.3236 L430.1251 225.0201 L429.5967 224.7914 L427.5158 224.534 L427.18 224.0159 L429.0692 220.8292 L426.0878 220.7507 L421.1832 222.3676 L420.7707 222.1458 L420.2453 222.0961 L419.8003 222.0767 L419.2298 222.0218 L417.4009 221.5194 L417.5196 220.9789 L417.7954 220.3122 L419.1525 216.3746 L419.301 215.7817 L419.1284 215.7325 L415.104 215.1444 L415.3292 214.5682 L415.3214 214.4625 L415.7026 213.0669 L416.9264 210.484 L417.832 208.1689 L422.3642 200.8489 L417.3914 196.5368 L417.215 196.4253 L415.8084 195.1945 L413.4006 193.1493 L413.3175 193.0049 L412.8463 192.5962 L412.9369 192.1053 L412.8694 191.7672 L413.4525 188.9825 L414.18 184.9612 L414.3459 184.4761 L414.4944 183.6706 L412.7626 180.9769 L412.3094 180.5488 L410.2261 179.1745 L406.722 177.0884 L411.4245 171.0791 L407.7399 165.4936 L406.9805 163.6706 L406.1725 161.7535 L402.9408 163.2247 L398.0416 158.5932 L397.0559 156.7733 L396.8605 156.5315 L396.0007 155.0173 L394.2163 149.6775 L394.2427 149.4173 L395.0144 148.3658 L395.6568 147.1352 L396.3429 145.6518 L396.3931 145.2436 L396.4661 144.8678 L396.5756 144.5783 L396.8616 144.3621 L396.9559 144.3255 L397.0234 144.18 L396.8778 142.9578 L396.4352 142.9415 L396.0306 142.8997 L395.862 142.9112 L395.653 142.997 L395.247 143.2388 L394.1684 143.9983 L390.9028 146.4417 L390.4208 146.4872 L390.0226 146.4721 L389.6498 146.3658 L389.6223 146.3742 L389.5989 146.3318 L389.3011 146.1339 L388.9436 145.6791 L388.6648 144.8437 L388.6635 144.3087 L388.7259 143.8722 L389.0688 142.4118 L389.1522 141.9454 L389.2265 141.5838 L389.2886 141.4812 L389.4931 140.2647 L396.1659 135.0716 L396.8151 134.4812 L397.0457 134.3268 L397.0712 134.3147 L397.4361 133.6348 L397.313 133.5741 L397.2347 133.3516 L397.2163 132.9873 L397.3537 132.4963 L397.5331 131.9498 L397.7906 131.4289 L398.7617 129.7816 L400.1269 127.7134 L401.6946 125.0919 L402.298 124.0942 L403.0588 122.963 L403.5669 122.2008 L404.2042 121.2606 L404.7734 120.3985 L405.4253 119.6651 L405.7475 119.3316 L405.9402 119.1243 L405.9917 119.0673 L406.0219 119.0667 L406.1257 118.9935 L406.3686 118.9186 L408.2453 118.9202 L408.4176 118.9746 L408.5322 116.5525 L408.442 115.9227 L408.4797 114.424 L408.7093 112.498 L408.7558 111.4024 L408.4783 109.455 L408.2565 108.3472 L408.0665 106.7338 L408.0764 106.6359 L408.0601 106.5223 L406.1878 105.0685 L405.9768 105.1832 L405.6749 105.2617 L405.2303 105.2041 L404.8633 105.1188 L404.5611 104.9151 L401.2435 101.629 L399.3926 99.2617 L398.6918 97.721 L395.7629 93.0794 L393.2218 87.577 L392.5336 86.1838 L392.3141 85.6807 L390.9279 85.1299 L388.2822 80.8525 L386.4099 79.4075 L384.541 77.9677 L382.163 79.7881 L379.1028 81.3561 L373.6572 87.143 L372.2849 88.2335 L369.2943 90.6098 L368.3174 91.0847 L366.6015 91.9836 L366.5323 91.9485 L366.5147 91.9569 L366.4702 91.9166 L366.3783 91.87 L365.2848 91.0753 L363.7184 89.4753 L362.035 90.124 L360.5097 90.9905 L355.4532 93.1637 L355.3236 93.1123 L355.2805 93.1108 L355.1835 93.0569 L354.9793 92.8422 L354.9366 92.8584 L354.4678 92.3045 L352.7882 90.5386 L351.5352 89.2675 L350.1266 87.7607 L348.7556 86.6189 L348.3679 84.0032 L348.24 83.3692 L348.0599 82.1493 L348.0549 81.8891 L347.6444 79.8232 L346.6547 77.2006 L346.4159 74.6194 L346.3467 69.2088 L345.4703 67.1202 L343.5026 68.7297 L331.7784 80.9027 L320.8885 92.7108 L318.2954 95.3489 L315.1122 97.3943 L313.0116 98.267 L306.6125 99.5392 L302.0502 99.4763 L298.1126 99.4392 L291.7437 99.8438 L278.0633 100.0129 L272.7507 99.9192 L268.0618 100.8862 L264.5424 101.829 L247.2439 109.7439 L200.6114 128.6133 L176.5954 136.9848 L164.8586 140.9849 L159.3126 142.8327 L159.7816 149.0567 L159.9621 149.3095 L160.2728 149.7272 L161.1299 150.6301 L162.3405 151.8046 L163.2858 152.7729 L165.171 154.843 L165.3477 155.0634 L168.5591 158.4388 L168.88 164.7886 L168.9929 165.7611 L169.229 167.7431 L169.3012 168.6014 L169.366 169.1337 L169.6194 169.7147 L169.9491 170.3542 L170.3208 171.2879 L170.585 172.7235 L170.7604 173.9215 L170.6298 174.9269 L170.4178 175.6706 L169.9572 177.2653 L169.5766 178.5721 L169.6184 179.3943 L171.4486 181.7724 L169.7147 185.4877 L168.209 183.6 L168.1351 184.0343 L167.9998 184.3782 L167.7735 184.8722 L167.5307 185.1936 L166.9466 185.5944 L166.5179 185.7917 L166.0301 185.9189 L165.6947 186.0597 L164.303 187.2681 L163.6769 188.074 L163.1979 188.7879 L162.9751 189.3196 L162.5626 189.9088 L162.3028 190.0517 L161.7676 190.1088 L160.7829 189.9151 L160.2351 189.9062 L159.0558 190.0946 L157.8568 190.966 L156.8351 191.7682 L155.1324 192.4988 L152.9539 193.3314 L151.7087 194.0515 L151.2823 194.4006 L150.839 194.7632 L149.7642 197.5306 L149.3717 200.5757 L149.3453 201.3591 L149.1916 202.3189 L148.6282 203.725 L148.1961 204.376 L147.2281 206.2944 L145.7977 208.7979 L144.2616 209.4949 L139.0819 210.1606 L135.7782 210.8021 L131.6415 214.0015 L131.0072 213.7257 L128.7947 211.338 L127.1303 208.2008 L125.3435 205.6 L123.731 201.3497 L123.364 199.7562 L122.8888 199.3125 L122.2932 199.5213 L122.955 201.5334 L123.7232 203.7695 L124.02 205.5147 L124.1818 207.8481 L124.2598 208.8146 L124.8378 211.7603 L124.9914 212.8754 L125.104 214.349 L125.2675 216.8523 L125.2526 217.8319 L125.2238 219.0752 L124.8863 220.4148 L124.4484 221.7382 L124.0716 222.7695 L123.112 224.5366 L122.0368 226.3497 L121.8058 226.751 L121.6633 226.8405 L121.4598 226.7322 L120.9317 225.9782 L120.7221 224.9787 L120.6356 224.3681 L120.6756 223.7025 L120.8595 223.1599 L121.217 222.8564 L121.6023 222.7439 L122.0755 222.8637 L122.4903 222.8145 L122.939 222.6769 L123.1439 222.454 L124.5308 218.8612 L124.8612 217.2364 L124.85 216.4039 L124.6936 215.5792 L124.2079 214.789 L122.1402 212.0847 L121.7051 211.8278 L121.2807 211.5771 L120.3697 211.3788 L119.8236 211.1266 L119.6028 210.6692 L119.5947 210.6519 L119.5322 210.2469 L119.5546 209.8382 L119.6489 209.4463 L119.7744 209.0323 L119.6455 208.3217 L119.2473 207.3625 L118.9332 206.1448 L118.7759 205.2379 L118.6144 204.4833 L117.9971 203.4979 L117.1247 201.322 L116.8306 200.4491 L116.4192 198.8232 L115.9793 197.2773 L115.7059 196.6645 L115.2287 196.2076 L115.0123 195.9852 L114.6008 195.5613 L113.7953 194.9553 L113.393 194.6277 L113.219 194.2855 L113.237 194.0285 L113.276 193.6983 L113.3323 193.4471 L113.588 193.2147 L113.7814 193.0195 L111.0387 191.3072 L102.6554 203.9563 L100.0047 210.8989 L99.1469 215.3265 L98.654 218.8769 L98.514 221.3447 L98.7151 223.7878 L98.7799 227.9922 L98.7327 229.4547 L98.6859 231.1485 L98.032 234.2926 L96.4293 237.431 L86.2582 244.087 L82.5597 250.9333 L73.0669 259.111 L65.7894 265.0575 L37.6889 311.088 L34.9602 317.7065 L35.1671 321.448 L36.6222 321.7802 L37.1937 321.6196 L37.5553 321.993 L38.9117 322.3027 L40.4241 324.6748 L40.0751 327.2069 L39.9085 327.4057 L39.9187 327.4428 L39.8817 327.6447 L39.4374 328.6134 L39.1542 329.0993 L38.8353 329.3613 L38.4924 329.569 L38.1515 329.6019 L37.8907 329.6841 L37.6601 329.8807 L37.1903 330.1909 L36.847 330.5926 L36.668 330.9357 L36.3902 331.2318 L35.9377 331.5257 L35.2295 331.94 L34.989 331.9007 L34.9629 331.873 L28.1819 338.151 L25.4328 340.2756 L23.0239 343.0371 L23.0239 344.5099 L22.4978 345.1287 L22.4893 345.2615 L22.0915 346.2213 L21.8992 346.5283 L21.6091 346.8442 L21.2974 347.1292 L21.1228 347.2186 L20.7629 347.4033 L20.3257 347.3363 L19.8644 347.3808 L19.3933 347.4932 L18.5951 347.7521 L17.9822 348.0581 L17.638 348.1543 L17.3425 348.2908 L16.5577 348.5999 L16.0146 348.6067 L14.9353 348.908 L14.5985 349.1386 L13.0254 349.8907 L12.5047 350.0073 L11.922 349.9969 L11.0252 350.3499 L10.9499 350.3525 L10.6874 350.4158 L10.3713 350.3086 L10.2054 350.296 L9.2004 350.6872 L5.701 352.842 L0.0 357.3471 M119.1737 231.319 L119.5916 230.6126 L120.2798 229.9162 L121.5836 229.2632 L122.3624 228.8294 L122.8627 228.6395 L123.4715 228.4537 L123.9674 228.2167 L128.7079 226.0839 L129.741 225.5496 L131.9712 224.1258 L134.4059 222.4268 L135.6164 221.6304 L136.0475 221.5037 L136.4304 221.5142 L137.0315 221.7873 L137.6308 222.376 L140.131 226.1174 L141.2377 227.9864 L142.6206 230.1794 L142.9523 230.9889 L143.1931 231.5377 L143.5011 232.0987 L143.6687 232.3237 L143.9122 232.5037 L144.29 232.7606 L144.7635 232.9322 L145.5735 233.1242 L146.9167 233.2697 L147.4516 233.445 L147.8556 233.6757 L148.1106 233.93 L148.3291 234.1927 L148.945 235.2162 L149.2116 235.7384 L149.6627 236.9617 L150.0012 238.0401 L150.101 238.6402 L150.2651 240.066 L150.4944 241.1831 L151.049 243.0961 L151.2929 243.8239 L151.6917 244.7453 L151.996 245.269 L152.4902 246.0533 L153.0644 246.7356 L154.1641 247.7407 L155.0639 248.6281 L155.3539 249.0016 L155.5317 249.3815 L155.5774 249.7127 L155.5449 250.1129 L155.4184 250.712 L154.4948 252.0138 L153.3236 253.0518 L149.7896 254.9552 L148.5231 255.4983 L147.9902 255.7343 L147.7647 255.8499 L146.6755 257.1783 L146.2546 257.6063 L145.3649 258.457 L142.9876 260.5565 L141.9056 261.5213 L141.5572 261.7661 L141.0278 261.8975 L140.7055 261.8765 L140.3467 261.7217 L139.8094 261.4758 L139.2077 260.9944 L138.358 260.24 L134.9947 257.2923 L132.888 255.5616 L127.0747 250.6942 L124.3164 248.4591 L123.8036 248.0735 L123.44 247.715 L123.1883 246.96 L122.8766 245.5201 L122.3465 242.2866 L121.469 239.2184 L120.6909 236.9444 L119.8989 234.9174 L119.2721 232.3493 L119.1737 231.319 M122.0527 227.9566 L122.0622 227.6102 L122.2654 226.9765 L122.4821 226.4308 L124.0488 223.7376 L124.7452 222.489 L124.9256 221.7157 L125.2251 220.7476 L125.7916 218.384 L125.9588 216.8147 L125.7729 214.8895 L125.6545 212.3845 L124.8686 208.7168 L124.9036 207.8371 L124.9738 206.9637 L125.2217 206.8926 L125.7159 207.4787 L126.1175 208.0297 L126.4048 208.5232 L126.6456 209.0721 L126.9885 209.8476 L127.2189 210.3835 L127.4007 211.0041 L127.7466 211.4196 L128.4325 212.2851 L128.8768 212.7906 L129.39 213.2804 L130.493 214.1716 L131.112 214.7786 L131.438 214.9366 L131.6941 214.7037 L131.9946 214.3961 L133.5935 213.1224 L134.628 212.3568 L135.2891 211.9246 L136.1696 211.3249 L137.2452 210.8387 L138.0816 210.5174 L138.5836 210.441 L140.2405 210.2207 L141.7723 209.9743 L143.7552 209.8597 L144.4756 209.7529 L145.0386 209.5289 L145.6556 209.1768 L146.0772 208.9047 L146.5405 208.4253 L146.7993 208.2165 L147.1127 208.16 L147.4858 208.1773 L147.9644 208.3782 L148.4549 208.7283 L148.985 209.2448 L149.1855 209.6179 L150.0002 211.9957 L150.2387 212.901 L150.876 214.1967 L151.1735 214.6504 L151.5961 215.125 L151.6361 215.1742 L151.8468 215.4316 L151.9149 215.6451 L151.9142 215.8147 L151.9139 215.912 L151.7813 216.192 L151.0934 216.9219 L150.9198 217.182 L150.8346 217.4039 L150.8495 217.5624 L150.8987 217.7984 L151.0164 217.9204 L152.5804 220.4567 L154.0538 222.7114 L155.1704 224.6841 L155.34 224.8333 L155.203 225.423 L154.5663 225.862 L152.9111 225.4586 L150.2628 224.7197 L149.3754 225.0033 L146.6335 225.9044 L144.8341 226.1106 L143.5482 226.4177 L143.3688 226.166 L143.2053 225.5386 L143.2481 224.1536 L143.4295 222.4262 L142.221 216.1611 L141.911 216.3186 L140.8751 217.1224 L139.4974 218.2893 L137.7672 219.7696 L136.9972 220.2924 L136.0363 219.2123 L135.9322 219.2081 L135.9149 219.3233 L136.7795 220.4315 L135.5404 221.4247 L129.7122 225.3968 L128.0492 226.1943 L126.0314 227.121 L124.1455 228.0058 L122.6161 228.6253 L122.4082 228.5699 L122.1874 228.4302 L122.0849 228.2936 L122.0527 227.9566 M123.4987 248.908 L123.6377 248.8944 L123.9427 249.1476 L125.2027 250.1888 L125.7858 250.7188 L126.7749 251.7014 L128.0098 252.887 L129.0616 253.7879 L131.6992 255.6945 L133.7838 257.3771 L136.4773 259.6922 L138.3465 261.3042 L138.7281 261.6505 L139.0914 261.9984 L139.8694 262.5473 L140.1598 262.7749 L140.5824 262.9564 L141.1268 263.0317 L141.7495 262.8915 L142.5531 262.5216 L143.0117 262.1418 L143.6164 262.0602 L144.2151 262.2109 L144.8399 262.7843 L145.3619 263.5136 L145.8791 264.1922 L146.318 264.9393 L146.7692 265.8648 L147.2518 267.269 L147.4238 268.6794 L147.3936 269.8922 L147.2213 270.9531 L146.7647 271.9466 L146.1267 273.0254 L144.9406 274.2156 L144.1544 274.7906 L143.9865 275.0375 L143.8427 275.2985 L143.8101 275.5926 L143.764 275.9583 L143.9488 277.8468 L143.9763 278.5358 L143.7853 278.9387 L143.6263 279.2557 L143.1921 279.7935 L142.7101 280.2225 L142.1769 280.5149 L140.249 281.5455 L138.489 282.3292 L138.2512 282.4935 L138.2224 282.5269 L138.1081 282.6582 L138.0738 282.8931 L138.3041 284.9125 L138.9533 289.1975 L139.359 292.1165 L139.3807 292.5397 L139.2654 293.1602 L139.0537 293.6582 L138.6067 294.3136 L138.4944 294.3581 L138.1759 294.4842 L137.7539 294.5715 L137.2672 294.6181 L136.7537 294.3853 L136.2351 293.7298 L135.9661 293.1204 L135.7979 291.584 L135.422 289.3759 L135.1717 288.0858 L135.0249 287.3346 L134.9343 286.7811 L134.9309 286.6509 L134.9258 286.4463 L134.8403 286.3412 L134.726 286.3286 L134.5659 286.3767 L134.3824 286.6263 L134.1416 286.9187 L133.9741 287.1379 L133.8262 287.4638 L133.7383 287.8269 L133.8927 289.2958 L134.0256 290.5916 L133.9025 291.2272 L133.7241 291.8257 L133.5837 292.1354 L133.4711 292.3838 L133.0918 292.704 L132.5892 292.9174 L124.888 290.33 L124.8066 290.1271 L124.7516 289.989 L124.6838 289.7823 L124.5922 289.503 L124.5705 289.1792 L124.6071 288.8684 L124.7099 288.2208 L124.8653 287.5773 L125.0817 286.7816 L125.1603 286.5478 L125.6138 285.1997 L126.0083 283.8055 L126.2193 282.8544 L126.3221 281.8097 L126.6117 277.5382 L126.5992 276.6656 L126.475 276.3511 L126.1843 276.2183 L125.4408 276.0346 L124.9294 275.6114 L124.5169 275.1065 L124.4277 274.9977 L124.1245 274.5353 L124.0722 273.5433 L124.1408 272.237 L124.1774 270.1543 L124.2656 269.47 L124.2802 269.3554 L124.2388 268.8725 L124.1157 268.3221 L123.9847 266.5057 L124.0088 263.68 L124.0125 263.2426 L123.9227 260.5241 L123.8521 258.1587 L123.6249 251.2855 L123.5512 250.1203 L123.5085 249.2266 L123.4987 248.908 M143.8081 261.2367 L144.344 260.6282 L146.3221 258.9095 L147.5106 257.6151 L148.3538 257.1469 L149.0101 257.2008 L149.4928 257.6214 L149.678 258.5846 L149.2184 260.8474 L149.4935 261.2016 L150.1668 262.5698 L150.3509 262.8968 L150.9605 263.6287 L151.3156 264.3366 L151.7708 264.5793 L152.6798 264.663 L153.3381 264.8153 L153.7272 264.9665 L153.9578 265.2526 L153.9612 265.7235 L153.832 266.3576 L153.8113 267.3527 L153.8066 269.2073 L153.8262 269.9497 L154.1013 270.5718 L154.2112 274.4406 L154.1149 276.3281 L154.082 278.4694 L153.7106 279.2907 L153.8123 281.7747 L154.1237 283.7694 L154.334 285.1175 L154.1162 285.4942 L152.8901 286.1209 L151.3346 286.6603 L149.2913 287.2294 L146.5243 288.5467 L145.7275 288.4034 L145.6637 288.3918 L145.5749 288.3066 L145.0865 287.8363 L144.2317 285.9676 L144.3447 285.3069 L144.4379 284.7602 L145.1621 283.4864 L147.3525 281.444 L147.997 280.3983 L148.3959 279.2573 L148.8792 278.2952 L149.7211 277.3661 L150.2885 277.1081 L150.7698 277.3671 L151.2691 278.1675 L151.5018 278.3438 L151.7793 278.3731 L152.0445 278.1278 L152.211 277.7548 L152.462 277.0804 L151.9614 273.7505 L151.7175 272.4191 L151.5551 271.0635 L151.6571 270.385 L151.8064 269.8524 L151.8244 269.6421 L151.7155 269.426 L151.5381 269.4276 L151.3373 269.4789 L150.8682 269.8085 L150.7685 270.2102 L150.6016 271.1425 L150.6331 272.5467 L150.3994 273.0092 L149.9538 273.4696 L149.6587 273.366 L149.5149 273.0866 L149.2483 272.9731 L148.9196 273.129 L148.655 273.7264 L148.8341 274.303 L149.0783 274.7927 L149.2411 275.5026 L148.9291 275.987 L147.9427 277.3718 L147.6046 278.042 L146.9377 279.0956 L146.6823 279.025 L146.2621 278.6033 L146.2234 278.1231 L146.1579 277.895 L145.9249 277.6752 L145.6251 276.8204 L145.0502 275.2965 L144.4881 275.0234 L145.8829 273.8667 L147.0948 271.8091 L147.6727 270.0873 L147.4343 266.9723 L146.2997 264.5118 L145.621 263.3415 L143.8081 261.2367 M151.2864 257.1762 L151.4102 256.6933 L151.8702 256.3218 L152.2704 256.1769 L152.5624 255.8321 L152.6031 255.5914 L152.556 255.3759 L152.0377 254.9128 L151.9149 254.7517 L151.9892 254.6005 L153.2523 253.8502 L154.0749 253.4003 L154.5487 253.0403 L155.7955 251.5125 L155.9858 252.0441 L156.2748 252.3429 L156.7459 252.4098 L157.6153 252.2612 L158.4286 252.0153 L159.2627 251.8887 L159.7861 251.624 L160.031 251.4607 L160.3745 251.4555 L160.8219 251.5617 L161.1706 251.6125 L161.3619 251.8646 L161.8178 252.1566 L162.6824 252.6426 L163.2271 252.9911 L163.4357 253.3139 L163.5188 253.6158 L163.3048 254.7836 L163.1704 255.1321 L162.9418 255.4617 L162.3004 256.1481 L161.0075 256.9245 L160.7931 257.1129 L160.2992 257.1045 L158.466 256.0665 L156.8002 257.7972 L156.2419 257.4796 L155.6463 257.3253 L155.2189 257.1935 L155.1026 257.1417 L154.9327 257.1385 L154.6091 257.1987 L154.3069 257.2808 L154.0691 257.3944 L153.8096 257.6544 L153.6872 257.9714 L153.6611 258.1886 L153.8208 258.3816 L153.9945 258.4643 L154.5158 258.5579 L154.8401 258.7065 L155.0853 258.9943 L155.3166 259.1675 L155.7233 259.5295 L156.0252 260.1626 L156.1788 260.894 L156.1256 261.2158 L155.5581 261.6992 L153.407 262.8811 L153.2825 262.8983 L153.1784 262.8743 L152.5136 262.2433 L152.014 261.6851 L151.705 261.1739 L151.4245 259.112 L151.4431 257.8417 L151.2864 257.1762 M166.2781 285.5941 L166.451 284.8356 L166.7305 284.2606 L167.3557 283.6998 L169.4728 282.1838 L170.8591 281.3514 L171.1281 281.1082 L171.4883 280.5871 L171.7776 280.1623 L172.4149 279.1845 L172.9532 278.5515 L174.0271 277.4095 L174.6295 276.7608 L173.7578 275.8709 L172.533 273.5501 L171.9034 272.1831 L171.6826 271.401 L171.6158 270.7978 L171.7328 268.5136 L172.1646 266.2702 L172.436 264.4673 L172.8335 262.756 L172.8491 261.5825 L172.7931 260.8982 L172.9756 260.635 L173.4518 260.5895 L174.527 261.3889 L174.9643 261.6259 L175.7308 261.9069 L176.1595 262.0026 L176.494 262.0037 L177.1395 261.852 L178.4219 261.909 L180.5676 261.7787 L181.8446 261.6286 L183.0443 261.5087 L184.2915 261.8383 L185.6683 262.2449 L186.0559 262.2553 L187.8102 261.9739 L191.2221 261.628 L193.4095 261.4376 L194.1872 261.491 L194.9643 261.6856 L195.8543 262.0256 L196.5585 262.4405 L197.4231 263.5063 L198.7245 264.4543 L199.7444 264.8718 L201.0829 264.6254 L202.5071 264.144 L203.2754 263.7966 L203.699 263.0992 L204.0348 261.8928 L204.7434 260.9531 L205.8976 260.1573 L207.295 259.5886 L209.6551 258.8384 L210.7456 258.7107 L211.2849 258.7301 L212.2261 258.7672 L212.9279 258.615 L214.3267 258.4575 L215.3314 258.3188 L215.9921 258.3314 L217.1423 259.2752 L217.8661 260.1987 L218.0503 260.8474 L217.8681 262.5467 L217.2189 265.2835 L217.0734 266.2807 L216.6881 268.4723 L216.6189 269.6792 L216.7861 270.6931 L216.9784 271.5255 L217.0714 271.909 L217.0741 272.1826 L217.0113 272.3683 L216.9028 272.5629 L216.5897 272.938 L215.8425 273.704 L215.3317 274.3767 L214.829 274.9867 L214.4715 275.3896 L213.9756 275.7254 L212.915 276.1152 L212.2529 276.4385 L211.5274 276.9329 L210.9376 277.6177 L210.0608 279.1003 L209.0035 280.9643 L208.159 282.935 L207.7462 284.1419 L207.2272 285.8688 L206.945 286.4678 L206.1316 286.9328 L205.4149 287.3226 L205.0289 287.8227 L204.6599 287.9932 L204.4381 287.8091 L204.1301 287.5873 L203.8683 287.2111 L204.1881 286.5614 L203.8042 285.5962 L203.195 284.5442 L202.6625 283.9478 L201.8335 282.3166 L206.3229 278.7917 L207.3374 277.816 L207.2537 277.082 L207.1068 276.6802 L207.4545 276.3208 L208.5595 275.5062 L209.3359 275.0966 L210.2561 274.7157 L211.5566 274.0194 L212.6331 273.6992 L213.9519 273.0484 L215.4033 272.6022 L216.7403 272.2904 L216.6705 272.0037 L214.808 272.338 L213.0707 272.7973 L210.4617 273.5569 L209.4329 273.9865 L208.6365 274.6817 L208.0416 274.8659 L207.1539 275.1918 L206.0309 275.7202 L205.4461 276.3616 L205.0988 276.9198 L205.0449 277.4916 L204.9801 277.8997 L202.8748 279.1976 L201.478 280.0681 L198.9504 281.0381 L197.9213 281.2641 L196.1521 281.6365 L195.3269 282.2732 L194.8771 282.9967 L192.7911 284.3443 L191.334 285.67 L189.4631 287.2064 L188.6622 287.728 L188.1565 287.7766 L187.6118 287.4178 L186.7971 286.3663 L186.2015 285.557 L185.7663 285.6883 L184.5408 286.3773 L183.7756 287.0505 L181.5295 288.4991 L180.803 289.2351 L179.1301 290.567 L177.749 291.2523 L176.7809 291.5767 L176.2338 291.4731 L175.8743 291.2617 L175.3601 290.7109 L174.3961 288.9511 L173.9467 287.7939 L173.6085 287.6087 L172.1656 287.7944 L170.4609 288.2977 L169.0421 288.5896 L167.567 288.4384 L166.6508 287.6757 L166.3144 286.2711 L166.2781 285.5941 M171.9984 252.2911 L172.0388 252.0519 L172.1738 251.2891 L172.421 250.6958 L172.6012 250.5101 L174.7733 250.8528 L177.0218 251.2535 L178.7536 251.5952 L179.2838 251.7485 L179.2482 252.4935 L179.2376 252.7201 L179.1522 253.4023 L177.6323 253.3427 L176.2342 253.5038 L174.3731 253.2286 L172.0208 252.8603 L171.9984 252.2911 M192.8101 252.9759 L192.8461 252.1812 L192.8461 251.7113 L193.1086 251.5089 L194.192 251.7312 L194.3138 252.1357 L194.1068 253.09 L193.8413 253.3045 L193.1032 253.2862 L192.8101 252.9759 M195.1173 295.2683 L195.3612 294.8624 L195.9571 294.4889 L197.2731 293.5378 L198.0156 292.773 L198.2568 292.3404 L198.3806 291.6666 L198.4393 290.3055 L198.6156 289.6981 L199.5545 288.621 L200.3323 287.7913 L201.2538 287.2619 L201.5866 287.1358 L202.1462 287.0819 L202.5146 287.3304 L202.87 287.7693 L204.2278 289.8461 L204.7349 290.3269 L204.9696 290.7627 L204.7288 291.8152 L203.5589 294.8054 L203.2503 296.1676 L203.253 297.7249 L203.6071 299.0463 L204.1203 299.7404 L204.3682 300.6208 L204.3967 300.9206 L204.3055 301.3186 L204.0158 301.6707 L203.7614 301.6859 L202.5295 301.1654 L201.5737 300.8442 L200.8359 300.115 L199.7115 299.1854 L198.75 298.734 L197.7114 298.6084 L197.1554 298.4661 L196.4374 297.9017 L195.3567 296.2994 L195.1532 295.7941 L195.1173 295.2683 M203.8404 296.8246 L204.3994 294.5203 L205.1355 292.7987 L205.7175 292.2374 L206.0859 291.9355 L206.2605 291.5463 L206.4742 291.1294 L206.6302 289.3989 L207.1119 287.9765 L207.6936 286.8559 L208.2665 285.9221 L208.4683 284.7048 L208.838 283.3033 L209.5381 282.0383 L210.849 280.235 L211.8513 278.2486 L212.318 277.5915 L213.246 277.0501 L213.7131 276.9522 L214.3216 276.947 L215.8554 278.1963 L216.7726 278.7749 L217.7908 278.6305 L221.03 278.0561 L221.7854 278.2199 L222.7629 278.4903 L223.9406 278.7843 L225.3821 278.9821 L226.4075 279.0114 L227.5261 279.0318 L228.9395 278.3972 L229.1474 278.6881 L229.3875 279.2322 L230.4173 280.3009 L231.9491 281.6496 L233.6067 283.5638 L234.8745 284.2418 L235.8314 284.6561 L237.0063 284.8711 L237.5161 284.9418 L237.8024 285.1521 L237.8092 285.5434 L237.7437 285.8473 L236.9297 287.3948 L235.4922 291.1608 L235.2405 292.1301 L235.2375 292.7919 L235.271 293.2941 L235.4817 294.785 L235.5549 295.6863 L235.6112 296.2947 L235.5186 297.7353 L235.4213 298.3448 L235.019 299.6165 L234.7412 300.659 L234.71 301.1251 L234.6476 301.6084 L234.7019 302.0285 L234.9003 302.5631 L235.3518 304.417 L235.2273 305.2288 L235.1801 306.0694 L235.2921 307.0984 L235.4603 308.0274 L235.7266 309.3435 L235.7283 309.9058 L235.6933 310.4807 L235.539 311.2847 L235.2595 311.9631 L234.7463 312.957 L233.8329 314.3463 L232.0905 316.4428 L230.8749 318.0282 L230.42 318.5439 L219.599 311.9129 L219.5529 311.7047 L219.4708 311.5394 L219.0685 311.2052 L216.5619 309.7557 L214.4454 308.6541 L211.2231 307.1931 L209.1992 305.6039 L208.7793 305.085 L207.7034 304.0707 L207.6234 303.7856 L207.5247 303.0234 L207.5206 302.7043 L207.6892 302.5286 L207.8466 302.5134 L208.6362 302.3978 L208.76 302.3063 L208.9309 302.1572 L209.0802 301.9166 L209.1032 301.7413 L209.07 301.5315 L209.0062 301.418 L208.7413 301.1371 L207.117 299.6431 L205.9024 298.5619 L205.652 298.4478 L205.2342 298.4264 L204.9957 298.4222 L204.6447 298.3495 L204.2074 298.2051 L203.9988 297.9592 L203.8588 297.5999 L203.8404 296.8246 M203.8489 311.247 L203.9225 310.6219 L204.3814 310.194 L205.0184 309.945 L205.6843 309.5914 L206.9002 309.1845 L207.4738 309.1295 L207.6 309.1902 L207.6227 309.4298 L207.6135 309.842 L207.6888 310.125 L208.3326 311.0556 L208.509 311.1759 L208.7617 311.2559 L210.4325 310.5644 L211.2632 310.17 L212.12 309.7981 L212.7179 309.7405 L213.3943 309.7484 L214.0235 310.0272 L214.2365 310.4906 L214.635 311.1298 L215.1204 311.6639 L215.6987 312.2173 L216.8587 312.527 L217.4977 312.5735 L218.1239 312.5615 L218.8168 312.4956 L219.5661 311.9495 L230.4102 318.568 L230.1887 318.9551 L229.6959 319.0989 L229.0317 319.2109 L228.566 319.6424 L227.5335 320.9888 L225.5605 323.228 L223.8897 324.9797 L222.6394 326.0018 L221.0775 326.869 L219.8429 327.4595 L218.925 327.7896 L217.4703 328.1165 L215.8595 328.2875 L214.8056 328.286 L213.8919 328.1526 L212.4686 327.6907 L211.9015 327.4376 L211.2259 327.006 L210.7747 326.6179 L210.1493 325.8166 L210.1123 325.7586 L208.2658 321.3591 L207.2754 318.9158 L206.866 317.5857 L206.4596 315.9385 L205.7294 314.3892 L204.9106 313.1317 L204.1437 311.7193 L203.8489 311.247 M204.3876 206.5938 L204.4255 206.1505 L204.5548 205.7267 L204.7824 205.1945 L205.0849 204.6596 L207.9249 202.4073 L216.6572 195.3515 L218.4732 193.9772 L220.7627 192.279 L222.6201 190.9435 L225.4462 188.7915 L226.6188 187.838 L227.1994 187.4 L228.0033 187.03 L228.3971 186.7604 L229.0643 186.191 L230.1124 185.3678 L231.6357 184.2814 L233.0178 183.2509 L234.3634 182.234 L236.8442 180.4133 L241.7132 176.6388 L244.0485 174.7757 L246.8264 172.7565 L247.0964 172.622 L247.324 172.633 L247.5139 173.2438 L248.8252 177.4228 L249.8173 180.0244 L251.1439 182.7767 L251.942 184.8277 L252.7933 187.736 L253.2652 189.6268 L253.7268 191.6102 L254.0093 192.5998 L254.239 193.2822 L254.1514 193.7014 L249.9601 197.113 L248.5091 198.2632 L247.4505 198.9786 L247.0574 199.2052 L246.6819 199.5202 L246.1419 200.2853 L245.6681 201.1012 L245.0233 201.905 L244.5922 202.3288 L243.8389 202.9819 L243.0408 203.7104 L242.3132 204.1395 L242.6063 204.0971 L242.825 204.1191 L243.0472 204.2253 L243.423 204.5581 L243.7215 204.9736 L243.9789 205.4504 L244.3212 205.9281 L244.5983 206.0668 L244.9219 206.1495 L245.627 206.2761 L247.98 206.6372 L250.6921 206.9548 L252.2205 207.2155 L253.566 207.1909 L254.3051 207.0825 L255.669 206.9004 L256.6482 206.7403 L257.2448 206.622 L257.9001 206.4227 L258.6494 206.2233 L259.0194 206.2494 L259.6008 206.5153 L259.8247 206.7869 L260.3399 208.2929 L260.5658 209.4813 L260.6384 211.091 L260.5878 211.5023 L260.3599 212.0298 L259.7103 212.7341 L258.5178 213.5243 L255.0303 215.9601 L252.3195 217.9868 L251.8168 218.5975 L249.3754 222.9139 L247.2555 226.6014 L246.1897 227.4103 L240.6712 229.9256 L237.5127 231.3761 L236.526 231.6236 L235.7313 231.5906 L234.4122 231.5843 L233.7671 231.734 L232.2614 232.5408 L232.1153 232.8202 L232.1502 233.2843 L232.3116 233.5481 L232.5467 233.738 L233.1942 233.8557 L233.4628 234.0572 L233.5334 234.4522 L233.7118 234.7892 L233.9038 235.3716 L233.7423 235.708 L233.397 235.9916 L232.4843 236.3055 L232.1499 236.158 L232.0033 236.0539 L231.716 235.6609 L231.6845 235.4276 L230.9234 235.4532 L230.0754 235.7514 L229.3458 236.0575 L228.4103 236.383 L227.5709 236.6713 L226.4624 237.1082 L224.6532 237.858 L223.1458 238.4602 L221.2596 239.2409 L220.3594 239.6862 L219.9538 240.0791 L219.6651 240.8582 L219.5312 241.5803 L219.2144 242.2155 L218.4973 242.5535 L214.5529 243.2991 L213.4367 243.354 L212.3279 243.1437 L211.6098 243.1745 L211.0112 243.2222 L209.9617 243.3838 L208.8604 243.4513 L208.5565 243.3765 L208.3798 243.252 L208.356 243.1029 L208.3642 242.6911 L208.5165 242.0145 L208.7658 241.4144 L209.1005 240.527 L209.5767 239.4889 L210.0658 238.5863 L210.4284 238.0369 L210.8595 237.4661 L211.3398 236.867 L211.7597 236.326 L212.1149 235.7488 L212.3381 235.0231 L212.6382 233.8222 L212.9357 232.5366 L213.3135 231.5555 L213.7263 230.4949 L214.0404 230.0303 L214.4441 229.7174 L214.829 229.5531 L215.2188 229.4871 L216.5877 229.5593 L216.9204 229.5421 L217.0839 229.3752 L217.2569 229.2119 L217.6436 228.3245 L217.7182 228.1659 L217.8854 228.0414 L218.3606 227.8352 L219.8517 227.2575 L221.124 226.7107 L222.3287 226.1985 L223.6065 225.8071 L224.5331 225.5904 L225.1487 225.5224 L225.5968 225.3283 L225.6219 224.648 L225.9234 221.374 L226.902 217.3908 L226.98 216.8727 L226.9186 216.4771 L226.8348 216.1873 L226.5906 215.3552 L226.4807 214.7938 L226.3081 214.0209 L226.2402 213.4557 L226.2212 212.214 L226.3667 211.9591 L227.0797 211.8251 L228.216 211.631 L229.4201 211.4547 L230.5116 211.2841 L231.4708 211.013 L232.1858 210.7508 L233.1806 210.1595 L234.0272 209.5441 L234.5072 209.0402 L234.8613 208.5525 L235.9508 206.9737 L236.7584 205.9464 L237.0063 205.7811 L237.2624 205.6476 L237.0185 205.5623 L236.7485 205.3991 L236.3225 204.9815 L236.1095 204.7748 L235.9433 204.6628 L235.636 204.6026 L235.1669 204.6759 L234.6578 204.8234 L232.6491 205.4598 L230.6032 206.0527 L229.8146 206.2316 L229.0694 206.3269 L228.4456 206.3107 L227.9511 206.2165 L226.5913 205.8925 L225.8563 205.7455 L224.9947 205.8088 L223.9633 206.0631 L222.4414 206.6628 L220.9591 207.532 L220.1017 207.7325 L219.3863 207.8434 L218.23 207.9774 L217.5571 208.037 L216.9849 208.2149 L216.5752 208.4148 L216.14 208.6974 L215.6577 209.1265 L213.4896 211.8529 L212.7797 213.0601 L212.1742 213.8791 L211.8062 213.8764 L211.4284 213.6195 L211.1682 213.1151 L210.229 209.7733 L209.9217 209.3165 L209.5605 209.2186 L208.9031 209.2375 L208.0413 209.2783 L207.2303 209.3228 L206.8212 209.2867 L206.1924 209.0679 L205.6154 208.6974 L204.894 208.0009 L204.395 207.3159 L204.3876 206.5938 M208.6053 173.8859 L208.9825 172.3514 L210.0811 167.9917 L210.9064 164.2301 L211.1845 162.9395 L211.4755 161.5896 L211.3595 159.4306 L211.4087 157.9997 L211.4158 157.7898 L211.6685 156.385 L212.1451 155.1011 L212.4368 154.4489 L213.0646 153.8643 L213.7976 153.3921 L214.7062 152.8326 L216.2258 152.1056 L216.8112 151.8193 L217.9465 151.265 L218.9651 150.0282 L220.5711 148.4558 L221.0093 148.0266 L221.7481 146.8212 L221.8044 146.7144 L222.3233 145.7309 L222.7056 145.3833 L222.7877 145.3085 L223.1187 145.1206 L223.4949 145.0609 L224.2089 145.2342 L225.8217 145.8314 L226.4912 145.9329 L226.8728 145.9314 L227.0614 145.9303 L227.928 145.923 L229.0911 145.7079 L230.8162 145.1604 L231.4762 144.6621 L233.2125 143.4372 L233.7393 143.0797 L233.9954 142.9934 L234.1765 143.1378 L234.2555 143.2006 L234.6883 143.9863 L235.4834 145.4566 L236.9531 147.8261 L238.2504 149.9669 L238.8254 151.108 L239.5539 153.2178 L240.3466 155.6569 L240.8689 157.6825 L241.2397 159.1506 L241.6694 160.2016 L242.5852 162.0005 L245.2899 167.1501 L245.3123 167.337 L245.2974 167.5746 L245.1016 167.9844 L244.64 168.4978 L244.2116 168.6004 L243.6767 168.7271 L241.8265 169.1175 L239.6821 169.6006 L239.3084 169.6362 L238.9963 169.576 L238.0218 169.3949 L237.1152 169.2264 L234.1582 167.9938 L233.9591 167.9111 L233.7237 167.9148 L233.5266 167.9833 L233.241 168.1927 L232.0634 169.9361 L231.5729 170.4322 L231.1679 170.5934 L231.0326 170.6473 L230.7677 170.5374 L230.5089 170.3966 L230.1741 170.046 L229.7579 169.3703 L228.9198 168.01 L228.6634 167.4437 L228.4063 166.5749 L228.2811 166.4969 L228.1081 166.5608 L227.6 167.1239 L227.4647 167.3809 L226.806 168.6339 L226.3043 170.6473 L225.8688 172.3624 L225.6616 172.6398 L224.4113 174.3125 L223.2666 175.1875 L218.9338 176.3918 L217.3563 176.8304 L216.1881 176.9895 L215.9602 176.8743 L215.4257 176.5049 L215.0549 176.0767 L214.8514 175.9689 L214.5475 175.9977 L214.2775 176.0506 L214.1635 176.0726 L211.4813 177.4971 L211.0807 177.7096 L210.8256 177.8002 L210.519 177.7018 L210.2371 177.5118 L209.845 177.2559 L209.4746 176.9795 L209.1009 176.4195 L208.8882 175.7685 L208.705 174.9824 L208.6053 173.8859 M216.3682 276.4992 L217.1243 274.0529 L218.4586 272.2736 L217.8359 269.1602 L219.3483 261.4653 L218.6812 258.7076 L218.7256 257.4174 L222.9512 255.0154 L225.4866 256.3501 L228.0664 252.8807 L229.4896 252.7028 L234.7382 257.3284 L232.3364 260.7088 L234.8274 262.0434 L234.1602 269.6939 L227.9328 268.6266 L229.7121 272.407 L225.9312 275.1207 L227.7995 276.099 L224.9083 277.6559 L219.3928 277.478 L216.3682 276.4992 M218.3552 255.379 L218.5099 254.726 L218.6147 254.0448 L218.7988 253.5546 L219.1099 253.3076 L219.5691 253.1313 L220.5416 252.8022 L222.0065 252.0002 L223.1503 251.4419 L223.6679 251.0856 L223.9283 250.8528 L224.1298 249.1555 L224.1156 248.4622 L224.2316 248.0447 L224.4639 247.8621 L224.7899 247.7695 L225.627 247.7035 L226.4234 247.5042 L226.8548 247.6805 L227.1937 248.5695 L228.1834 251.3953 L228.1247 251.6705 L227.9128 252.0169 L227.6621 252.4046 L226.9223 253.3495 L226.0401 254.5257 L225.2305 255.5292 L225.0633 255.5548 L224.1861 254.9536 L223.755 254.6308 L223.4287 254.421 L223.194 254.2306 L223.0275 254.3127 L222.1256 254.692 L221.2586 255.1389 L220.0135 255.9195 L219.4443 256.3286 L219.1109 256.4882 L218.5997 256.4657 L218.3986 256.282 L218.3691 255.8734 L218.3552 255.379 M227.2856 246.4892 L227.7086 244.5647 L227.8483 243.9039 L228.0338 241.9962 L228.5046 241.3888 L229.7566 240.1817 L230.5201 239.1922 L230.8847 238.8124 L231.3467 238.5539 L230.9881 242.362 L230.4502 244.2806 L229.3434 247.398 L228.7824 249.472 L228.7902 251.9484 L228.1973 250.0993 L227.3124 247.173 L227.2856 246.4892 M229.5283 251.4654 L229.6436 250.2966 L229.7959 248.4742 L230.9895 245.1591 L231.8707 243.2881 L232.4198 240.8818 L232.7312 239.9949 L233.0036 239.6857 L233.2332 239.1263 L233.4618 238.9531 L233.8027 238.9207 L234.3522 239.2733 L234.7558 239.0729 L235.0828 238.4958 L235.7568 236.9141 L236.4002 236.0638 L236.8503 235.7174 L237.4815 235.3737 L238.0045 235.1623 L238.5845 234.7023 L239.5604 233.9619 L240.1987 233.6988 L241.0993 233.2284 L242.0588 232.9547 L243.6801 232.658 L245.0101 232.4707 L245.7183 232.3017 L246.2952 232.0244 L247.3952 231.1103 L248.3975 230.6503 L249.0664 230.2317 L250.2735 230.0878 L250.6812 230.8099 L251.1137 231.69 L251.3983 232.3059 L251.2904 232.5178 L250.4143 234.0975 L249.4324 235.8294 L248.7984 236.7796 L248.0556 237.6393 L247.2982 238.1364 L246.4536 238.5607 L245.2224 238.9411 L244.8171 239.1216 L244.505 239.4345 L244.0854 240.1011 L243.5848 241.1805 L241.7508 244.9551 L240.4986 247.4404 L239.827 248.4146 L239.0964 249.1921 L238.0893 250.2385 L236.9914 251.1724 L236.5986 251.6951 L234.9593 254.3389 L234.5618 255.2895 L229.5283 251.4654 M230.6137 320.9302 L231.4142 320.3815 L232.6583 319.6387 L233.4686 319.0466 L234.0157 318.5549 L234.8352 317.4607 L235.4918 316.3397 L233.7976 314.8714 L234.824 313.479 L235.5485 312.4271 L235.9582 311.3344 L236.0905 310.5937 L236.1102 309.8598 L236.0352 309.1677 L235.8633 308.3522 L235.5485 306.9226 L235.4783 305.8853 L235.5136 305.5134 L235.5692 305.2576 L235.9559 305.2581 L237.259 305.5872 L239.0343 305.9753 L241.9157 306.399 L245.3367 306.6511 L248.9083 307.0424 L249.6152 307.1047 L250.0907 307.3003 L250.6823 307.2768 L251.694 306.8682 L252.061 306.6161 L252.4993 306.2672 L252.8931 305.7001 L252.9989 305.3261 L252.9955 305.0431 L252.8754 304.8229 L252.7679 304.6304 L252.5827 304.5038 L252.4155 304.4782 L252.2381 304.4949 L251.7378 304.5844 L251.1961 304.8161 L250.1731 305.3423 L249.5867 305.8273 L249.3822 306.1375 L249.3455 306.4728 L249.3306 306.751 L249.2824 306.8248 L249.1898 306.8614 L247.8121 306.7714 L244.5447 306.4612 L241.663 306.2201 L239.5655 305.9104 L238.2077 305.6525 L237.1834 305.3868 L236.061 305.1253 L235.7255 305.0212 L235.6306 304.8124 L235.6675 304.2606 L235.5746 303.8254 L235.3704 303.2635 L235.136 302.4355 L235.0445 301.7685 L235.0143 301.1528 L235.1062 300.6334 L235.4874 299.2885 L235.9118 297.8541 L235.9613 296.7906 L235.8758 295.3437 L235.7045 293.8904 L235.5756 292.3341 L235.9721 291.3512 L236.9826 288.6466 L237.9557 286.6869 L238.6575 285.4278 L238.8345 285.2755 L239.0004 285.2876 L240.3096 285.8761 L243.1666 287.3801 L245.318 288.4499 L246.5432 289.3445 L247.3036 290.1077 L248.0797 291.1346 L248.7526 291.5243 L250.7043 292.377 L252.1153 292.9985 L253.5321 293.5766 L254.0612 293.7905 L254.4716 293.846 L254.994 294.0892 L255.5065 294.3754 L256.138 294.7735 L256.7269 295.3175 L257.3455 295.929 L257.6647 296.1634 L257.9123 296.0928 L258.0684 295.8982 L258.1955 295.2526 L258.3712 294.1672 L258.5215 292.0103 L258.4052 290.4744 L257.8516 288.385 L256.9446 286.0016 L256.5305 284.8136 L256.5858 284.4537 L256.6974 283.9896 L257.2109 283.7893 L258.1331 283.6779 L259.3318 283.5492 L262.1386 282.9878 L262.5483 282.8356 L264.1333 282.358 L265.0946 282.0634 L265.8571 282.1037 L266.3811 282.1623 L266.9645 282.4516 L267.3424 282.8597 L267.572 283.49 L267.8986 283.9551 L268.1747 284.1319 L268.5058 284.2941 L269.1848 284.5975 L269.7502 285.0448 L270.1152 285.4162 L270.6331 285.6595 L271.1931 285.9514 L272.7676 286.8026 L272.9474 286.9605 L273.0441 287.1829 L272.8636 287.5166 L272.4179 287.932 L271.7426 288.3652 L271.184 288.6832 L270.6158 289.0541 L270.2943 289.3398 L269.9466 289.8456 L269.6274 290.4525 L269.3076 290.9081 L268.7272 291.8424 L267.6859 293.1324 L266.9431 293.6948 L266.7149 293.7733 L266.5459 293.7801 L265.4772 293.688 L265.2235 293.6461 L264.8809 293.4615 L264.695 293.4416 L264.6038 293.5211 L264.5851 293.6221 L264.5821 293.7879 L264.655 294.1588 L264.7886 294.4768 L265.3388 295.2087 L265.9558 295.9013 L266.2285 296.6405 L266.218 297.2227 L265.4616 299.8796 L264.2198 303.0266 L263.6144 303.5476 L262.9831 304.0472 L262.3356 304.4405 L261.7461 305.0107 L260.9002 306.1547 L260.403 306.5293 L259.769 306.7087 L258.5873 306.7322 L255.9756 306.6543 L255.0306 306.479 L254.6138 306.5565 L254.104 306.8928 L251.8816 311.5384 L251.6862 311.9736 L251.6666 312.3915 L251.8762 312.7289 L252.1709 313.0281 L252.6489 313.6961 L252.79 314.2479 L252.5729 315.0289 L252.1991 315.8067 L251.8758 316.1729 L251.208 316.6007 L250.2345 316.3533 L249.6114 316.3889 L248.8171 316.5076 L247.557 316.4757 L243.2714 313.9236 L239.7367 314.1104 L239.3704 314.1737 L239.153 314.2652 L238.9505 314.464 L238.6096 315.1393 L238.1511 315.769 L237.2509 316.606 L236.6424 317.1463 L236.6373 317.2886 L237.8909 318.6805 L239.1466 320.0959 L239.4349 320.5034 L240.1533 321.4689 L241.0243 322.7515 L241.7149 323.7249 L242.3868 324.4493 L243.3145 324.9891 L243.6818 325.2847 L243.6486 325.5807 L243.52 325.815 L242.8203 326.1843 L241.7003 326.4945 L240.6085 326.9061 L239.7425 327.3622 L238.2742 328.0694 L237.7155 328.3874 L237.203 328.5966 L236.2445 328.6223 L235.9786 328.4021 L235.655 328.1212 L234.107 326.0583 L233.5982 325.2721 L230.6137 320.9302 M235.0048 269.1341 L235.3582 268.4524 L235.754 268.5126 L235.9782 268.952 L235.8663 269.0865 L235.3504 269.1927 L235.0048 269.1341 M235.0733 283.0312 L236.2445 276.2188 L236.7489 276.1607 L237.9211 276.235 L238.4058 276.3213 L238.6856 276.4809 L238.957 276.8277 L239.0109 277.1155 L238.6551 278.6666 L238.5927 279.1249 L238.6517 279.4655 L238.7267 279.6978 L238.9614 279.9415 L239.6425 280.1424 L241.6328 280.1921 L242.7162 280.1681 L243.4593 279.9107 L244.4514 279.2039 L245.8577 277.2865 L246.4597 276.936 L247.5041 276.7833 L248.9785 276.6954 L249.2248 276.7786 L249.3547 277.0323 L249.3448 278.0446 L247.1812 284.5327 L247.0638 284.9695 L247.1429 285.5209 L247.3928 285.9226 L247.9851 286.5849 L248.5413 287.1436 L248.8751 287.6286 L249.0491 288.0466 L247.9413 289.8299 L246.9577 288.6477 L246.2379 288.1167 L242.5187 286.4118 L239.6119 284.7806 L238.2796 284.3454 L235.9311 283.6815 L235.0835 283.3373 L235.0733 283.0312 M235.5614 259.5086 L235.7367 258.8253 L235.696 257.5534 L235.6363 256.8267 L235.7249 256.27 L235.9748 255.5276 L236.7964 253.6111 L237.7451 252.3387 L238.4716 251.5042 L239.4098 250.7146 L239.9789 250.2066 L240.6407 249.5337 L241.4171 248.1315 L242.2474 246.5546 L243.2687 244.7552 L244.4026 242.5535 L244.9999 241.5986 L245.7247 240.797 L248.0994 238.827 L249.4371 237.6586 L249.7291 237.1108 L250.1898 236.1549 L250.8295 234.8504 L251.8053 233.2168 L254.1565 229.0931 L256.1157 226.3492 L257.2618 224.2216 L258.8244 220.329 L259.4573 219.1532 L259.5903 218.9659 L259.6323 218.8104 L259.9312 218.1867 L260.2839 217.4342 L260.4515 217.0637 L261.1587 215.2809 L261.3856 215.136 L261.5535 215.1203 L261.6342 215.1266 L261.6959 215.2296 L261.7248 215.4348 L261.6495 215.6828 L261.4517 216.1836 L261.3089 216.5143 L261.3354 216.9936 L261.6783 217.8733 L261.7811 218.3594 L261.8608 218.8528 L261.9398 219.3892 L261.9551 219.6477 L261.5036 220.352 L260.6299 221.6063 L260.4515 221.9794 L259.9308 223.8914 L259.2708 226.7191 L259.0296 227.3046 L258.5449 227.7102 L257.9737 228.0482 L257.08 228.809 L256.4152 229.8984 L255.7639 231.1798 L255.3539 232.9212 L255.0364 233.9865 L254.9885 234.4297 L255.1866 235.9377 L256.3141 239.7265 L256.3857 240.1095 L256.388 240.336 L256.2232 241.9256 L255.4983 245.01 L254.8681 247.2672 L253.6223 249.9471 L252.6577 252.2843 L251.6062 255.5417 L248.2459 264.1613 L247.9131 264.9251 L247.6228 265.4399 L246.0744 264.8644 L238.2603 261.6798 L237.489 260.6523 L236.6078 260.3535 L235.6859 260.2243 L235.5614 259.5086 M235.7981 140.0888 L235.8382 139.7632 L236.6736 139.4754 L237.9347 139.2037 L239.5427 138.9079 L240.0922 138.7588 L240.8384 138.6049 L241.741 138.3767 L242.4696 138.1087 L243.2646 137.5925 L244.136 137.0366 L245.2224 136.5122 L246.4923 136.0835 L247.7541 135.7694 L248.5976 135.6176 L249.2444 135.7259 L249.6135 136.0358 L249.8811 136.3745 L250.1677 136.8105 L250.5293 137.3905 L251.1157 138.351 L253.1569 141.7256 L253.491 142.1663 L254.2908 143.0923 L255.0717 144.0674 L255.3946 144.6369 L255.6859 145.4221 L255.7198 145.8303 L255.7656 146.36 L255.5747 146.8322 L255.2999 147.3169 L254.9126 147.9026 L254.1677 148.8955 L253.4938 149.9905 L252.9626 151.1001 L252.599 151.6879 L251.8993 152.6578 L251.808 152.8886 L251.8857 153.0608 L252.0342 153.1367 L252.3863 152.8347 L254.3628 150.9002 L255.5526 149.9109 L255.9773 149.8476 L256.329 149.9737 L258.3397 151.6267 L259.7341 152.6568 L261.3327 153.6334 L262.6619 154.5096 L266.0589 158.3111 L266.7172 159.1286 L266.9418 159.7572 L266.916 160.0315 L266.7362 160.5214 L266.4215 161.0809 L266.509 161.2568 L267.7151 160.9009 L268.2487 160.9113 L268.6133 161.0275 L268.7812 161.3049 L269.0651 161.7645 L269.2703 162.4349 L269.7183 164.1794 L270.1518 165.9626 L270.3784 167.6573 L270.4907 168.0435 L270.9045 168.8783 L271.4458 169.9141 L271.7161 170.3281 L272.5014 172.6717 L273.0614 175.5131 L273.8082 178.8642 L274.0338 180.0004 L274.0117 180.4614 L273.9558 180.9157 L273.9741 181.2072 L274.1142 181.5432 L274.352 181.9132 L274.7712 182.4073 L274.9109 182.6867 L275.164 183.3671 L275.4533 184.5258 L275.8203 185.8331 L276.4234 187.8286 L277.0156 190.2145 L277.1736 194.0662 L277.0797 194.5147 L276.79 195.0903 L276.5346 195.5263 L276.2246 195.9857 L275.8742 196.4164 L275.2277 197.0549 L273.7689 198.0209 L273.4599 198.2915 L272.9467 198.8462 L272.1228 199.8986 L270.8478 201.9583 L269.45 204.365 L268.6692 205.5739 L268.0753 206.3682 L267.4546 207.0794 L265.5864 208.7989 L264.2656 209.979 L263.7026 210.4013 L263.4051 210.2971 L263.1873 210.1386 L263.0503 209.9863 L262.7935 209.1171 L261.6644 204.9192 L260.9704 202.523 L260.3077 200.5067 L259.7297 198.8886 L259.4288 198.2507 L258.3594 196.5661 L257.5039 195.1018 L256.6183 193.2205 L256.133 191.9807 L255.6415 190.3307 L254.9227 187.4785 L254.3081 185.372 L253.7325 183.6308 L252.9361 181.5463 L251.2344 177.6248 L250.474 175.523 L249.6783 172.9517 L248.8313 170.4374 L248.06 168.3743 L247.1137 166.2525 L246.0307 164.0302 L243.9233 159.8112 L243.7503 159.3788 L243.8043 159.0046 L244.038 158.6372 L244.0668 158.3933 L243.9759 158.2321 L243.5902 158.0421 L243.2789 157.7406 L242.5645 155.3319 L241.9184 153.2472 L241.2258 151.4649 L240.1231 148.9368 L239.2097 147.4121 L238.1073 145.7822 L237.2183 144.3166 L236.6108 142.8855 L236.0247 141.1828 L235.8555 140.5416 L235.7981 140.0888 M244.6186 205.7078 L246.4648 200.0959 L248.9985 198.9127 L256.1689 196.6101 L259.2277 204.3462 L259.7568 205.7078 L253.4249 207.0176 L244.6186 205.7078 M247.5054 266.5951 L247.652 266.3 L249.5752 261.4397 L251.6137 256.4578 L252.7649 253.046 L253.6603 250.7152 L255.3881 246.5797 L255.9875 244.3534 L256.6516 241.3223 L256.8866 241.4181 L257.3428 242.1019 L258.204 243.2295 L258.5205 243.6863 L258.9814 244.1242 L259.265 244.1823 L259.6517 243.6177 L259.8508 243.1426 L260.0007 242.8831 L260.2079 242.8632 L261.1393 243.422 L261.9934 244.1299 L262.7318 245.0566 L262.9401 245.5139 L263.1656 246.4991 L263.263 247.1798 L263.3356 247.6926 L263.4858 248.0844 L263.6931 248.5799 L264.1832 249.3271 L266.567 252.5966 L267.5754 254.0836 L267.862 254.8218 L268.2985 256.0937 L268.5478 256.4856 L269.1353 257.4127 L269.3249 257.7726 L269.4731 258.1415 L269.4996 258.5689 L269.4002 259.0131 L269.3059 259.5086 L269.3442 259.8644 L269.5396 260.4315 L269.6271 260.9573 L269.5484 261.5176 L269.4477 261.9948 L269.0817 262.507 L268.6475 262.9977 L267.9186 263.6104 L267.1626 264.0844 L265.6071 265.0219 L264.6173 265.4201 L263.2969 265.476 L262.5161 265.34 L262.103 265.0287 L260.8001 264.1707 L259.5798 262.7084 L259.171 261.3445 L259.0438 259.6378 L258.9268 258.7719 L258.7667 258.1907 L258.5924 257.6962 L258.3689 257.3771 L258.0104 257.1233 L257.7438 257.0443 L257.2706 257.0234 L256.8113 257.1003 L256.1594 257.432 L255.6686 257.7721 L255.2813 258.2582 L254.9746 258.8494 L254.6772 259.6389 L253.6929 262.62 L252.8134 264.278 L252.3839 264.9141 L252.0875 265.2165 L251.6449 265.3568 L251.4061 265.4148 L251.0784 265.2704 L250.9136 265.0057 L251.1646 264.3313 L251.7008 262.5363 L253.4154 258.9038 L254.722 255.7405 L255.982 252.2356 L258.6222 246.5985 L258.7935 246.1961 L258.6419 246.0701 L258.4099 246.1977 L256.5203 249.8184 L255.229 252.5966 L254.5371 254.5393 L253.2838 257.7161 L250.957 262.7398 L250.4489 263.7867 L249.9425 266.5376 L249.5392 267.0675 L248.5515 267.6886 L247.9749 267.4981 L247.6109 266.9713 L247.5054 266.5951 M248.0468 226.8892 L248.0916 226.5674 L248.2659 226.267 L250.9343 221.4655 L252.4311 218.5671 L253.2136 217.8215 L257.8798 214.6896 L259.151 214.1124 L259.38 214.1177 L259.5876 214.2679 L259.8725 214.4913 L259.9746 214.7001 L259.9362 214.9628 L259.4593 216.6906 L258.9886 218.2861 L257.2638 222.1086 L255.7938 225.0619 L254.8366 226.7264 L254.0259 228.2125 L251.5879 231.971 L251.3667 231.6754 L251.11 231.2034 L250.8247 230.6922 L250.4635 230.0554 L249.7709 228.9163 L249.0023 228.1309 L248.2245 227.2931 L248.0977 227.0597 L248.0468 226.8892 M253.9021 372.7461 L254.0612 372.2378 L254.164 371.4434 L254.4153 371.4136 L254.3583 371.0564 L254.0707 371.0899 L254.0612 370.6809 L254.0955 369.9111 L254.0904 369.5043 L254.0426 369.0508 L254.0402 368.8286 L254.0711 368.7078 L254.2128 368.6142 L254.4757 368.6032 L254.6684 368.6978 L255.3203 369.282 L255.5309 369.4316 L255.7232 369.4467 L256.0088 369.3029 L256.2184 369.3244 L256.426 369.5163 L256.3585 370.011 L257.0182 370.0476 L256.9931 370.4832 L256.3029 370.4744 L256.1425 370.4482 L255.8769 370.102 L255.6296 369.9472 L255.4081 369.9268 L255.1754 370.1355 L255.0567 370.2866 L255.0391 370.5664 L255.0951 370.7118 L255.2087 370.7672 L255.5034 370.7437 L256.1119 370.8258 L256.7489 370.7986 L256.8914 370.8096 L257.0277 370.8467 L257.1349 371.3106 L257.1583 371.606 L257.0545 371.6536 L256.9131 371.6531 L256.4704 371.5857 L256.0421 371.5673 L255.5669 371.684 L255.1307 371.8267 L254.649 372.0568 L254.5415 372.2394 L254.4645 372.8591 L254.3638 373.0531 L254.1575 373.1258 L253.9859 373.0651 L253.9235 372.9108 L253.9021 372.7461 M264.0048 212.4944 L264.0445 212.0182 L264.3887 211.6734 L265.0105 211.1224 L266.6881 209.6765 L268.2164 208.2024 L268.9474 208.8042 L269.4514 208.7513 L269.7241 208.6922 L270.1461 208.5195 L270.6572 208.2961 L270.9313 208.104 L271.5808 207.3002 L272.3501 206.1678 L272.1578 205.8789 L271.7402 205.352 L271.6568 205.0197 L272.1591 204.9998 L273.1173 205.0647 L273.9565 205.1165 L274.7681 205.1761 L275.3034 205.4043 L275.457 205.7816 L275.4648 206.2112 L275.4336 206.6252 L275.0554 207.857 L274.0131 210.8304 L273.4867 211.6891 L272.5136 212.7603 L271.7161 213.5452 L270.491 214.2433 L268.5885 215.0978 L267.6151 215.1747 L266.474 215.0711 L265.7004 214.866 L265.1102 214.5536 L264.6757 214.0988 L264.2938 213.5023 L264.0746 212.9319 L264.0048 212.4944 M282.4107 374.8547 L282.4968 374.5393 L283.2417 374.6277 L283.7118 374.6769 L286.179 375.0571 L286.5443 375.0466 L287.5161 375.3191 L288.1687 375.4451 L288.2789 375.4665 L289.0573 375.6961 L290.025 376.0271 L290.9924 376.3216 L291.6748 376.5611 L291.8953 376.7974 L291.8966 377.1112 L291.8363 378.0049 L291.7851 378.5661 L291.6497 378.9692 L291.4391 379.2328 L291.2376 379.272 L290.2872 379.088 L288.8667 378.6686 L287.0097 378.1822 L285.2378 377.7001 L283.921 377.3319 L283.1708 377.05 L282.7736 376.7357 L282.6033 376.252 L282.4151 375.3368 L282.4107 374.8547 M288.6283 348.3755 L289.0651 348.0115 L290.6844 347.5199 L290.9937 347.4294 L291.1755 347.7202 L291.4123 348.0476 L291.4669 348.5936 L291.3577 349.067 L290.8116 349.3761 L290.0111 349.6125 L289.4654 349.8128 L289.0468 349.6308 L288.7921 349.103 L288.6283 348.3755 M289.3734 351.1626 L289.4019 350.8154 L289.5451 350.6365 L289.7309 350.4629 L291.1474 350.2442 L291.5564 350.2448 L291.954 350.3373 L292.303 350.444 L292.8216 350.6543 L293.2341 350.9048 L293.7452 351.2657 L294.0108 351.5335 L294.1648 351.9152 L294.2428 352.6401 L294.3428 353.0465 L294.5925 353.8446 L294.7967 354.3587 L295.2817 354.9031 L295.3791 355.0825 L295.4679 355.3247 L295.5917 356.2859 L295.8705 356.9397 L296.2172 357.3173 L297.2147 357.9025 L298.7746 358.3063 L300.377 358.8622 L302.5511 359.7366 L302.9554 359.9772 L303.2119 360.2455 L303.4937 360.587 L303.7152 360.9343 L304.0958 362.0174 L304.4401 363.364 L305.1937 364.7091 L305.85 366.664 L307.3872 373.1917 L307.974 375.6062 L307.9452 375.9016 L307.8729 376.0831 L307.7023 376.1704 L307.4615 376.2123 L304.0537 376.6296 L300.7945 377.084 L300.4197 376.9543 L300.1382 376.7687 L299.8875 376.3106 L299.2675 375.3823 L298.9971 375.1156 L298.8761 375.0325 L298.774 375.0471 L298.7258 375.1365 L298.677 375.5141 L298.7916 375.8295 L299.1749 376.5438 L299.3689 376.9507 L299.4608 377.4234 L299.4123 377.9014 L298.2055 379.7819 L297.9823 379.9121 L297.6869 379.978 L297.5152 379.9566 L297.3646 379.9048 L296.4109 376.354 L294.3639 368.3945 L293.964 366.5401 L293.9572 366.1724 L294.2811 366.0092 L295.0612 365.7587 L295.1657 365.5987 L295.1267 365.2928 L294.969 364.5779 L294.8255 364.4978 L293.8446 364.785 L293.519 364.7489 L292.0371 359.086 L290.9266 355.5213 L289.3734 351.1626 M292.0126 347.8112 L292.3583 347.4838 L292.9407 347.2474 L293.0862 347.4111 L293.1588 347.9932 L293.1225 348.4843 L292.9586 348.83 L292.6313 348.9576 L292.2674 348.9576 L292.1765 348.5936 L292.0126 347.8112 M304.5812 356.8508 L304.6493 356.5281 L305.1028 355.3984 L305.6157 354.0501 L306.1054 352.8038 L306.3232 352.0225 L306.4117 351.5654 L306.4416 351.1323 L306.3639 350.0157 L306.1404 348.1046 L306.0546 346.7997 L306.0824 345.9514 L306.1468 345.2887 L306.2279 344.851 L306.3229 344.5115 L306.5213 344.2186 L306.8127 343.9121 L307.0229 343.7469 L307.1064 343.681 L307.5928 343.4974 L308.995 343.1323 L309.7893 342.9623 L311.4418 342.6067 L312.8033 342.2594 L313.4067 342.0648 L313.7415 342.0188 L313.9664 342.1061 L314.057 342.2097 L314.1038 342.2631 L314.2303 342.5533 L314.2896 342.8834 L314.3867 343.6062 L314.5559 344.5492 L315.1834 347.692 L315.2021 347.988 L315.0894 348.3907 L315.0057 348.5497 L314.8798 348.6658 L314.5969 348.7118 L314.2683 348.7239 L314.0515 348.7212 L313.8616 348.7579 L313.7378 348.8405 L313.7032 349.0235 L313.7795 349.5309 L314.3025 353.4116 L314.5054 355.1542 L314.6617 356.3581 L314.7408 357.64 L314.791 358.5186 L314.8334 359.2136 L314.7835 359.9317 L314.6797 360.6738 L314.3195 363.2872 L313.9996 366.2744 L313.6466 368.8636 L313.2701 371.2044 L313.2314 372.0866 L313.2602 372.6886 L313.3952 373.37 L313.4488 373.7857 L313.4827 374.1461 L313.4322 374.5048 L313.3253 374.6711 L313.0554 374.907 L312.0853 375.1057 L310.9911 375.1862 L310.7553 375.1852 L310.5959 375.1439 L310.3741 374.9901 L310.1882 374.6674 L309.6479 373.1415 L309.1588 371.4591 L308.0914 367.4662 L306.7061 363.283 L306.6057 362.8081 L306.6054 362.3076 L306.7112 361.9337 L306.9694 361.4745 L307.4842 360.4479 L307.5999 359.9265 L307.589 359.3653 L307.4822 358.9835 L307.3631 358.721 L307.1786 358.5636 L306.9185 358.4516 L306.5528 358.4203 L306.0098 358.3068 L305.4352 358.0589 L304.9926 357.8131 L304.7948 357.6149 L304.6551 357.3351 L304.5906 357.1002 L304.5812 356.8508 M306.3676 366.5578 L306.4891 366.3476 L306.6827 366.254 L306.8852 366.2059 L307.0657 366.2692 L307.2085 366.3832 L307.3414 366.5453 L307.5378 367.1263 L307.7681 368.1153 L307.9961 369.0807 L308.206 370.0528 L308.3247 370.4618 L308.494 370.8049 L308.6792 371.1699 L308.9058 371.7718 L309.6533 374.4917 L309.7419 374.9797 L309.6828 375.1501 L309.5248 375.3211 L309.1561 375.4555 L308.9047 375.489 L308.5472 375.4948 L308.3987 375.4665 L308.3315 375.3546 L308.029 373.9526 L307.7766 372.7984 L307.0894 369.8996 L306.5966 367.8302 L306.3761 366.7461 L306.3676 366.5578 M313.4352 372.5819 L313.4352 371.6923 L315.0586 358.7042 L315.6369 353.7222 L318.3056 354.0559 L317.3715 362.7297 L315.5256 372.2927 L321.7751 371.3362 L322.2422 373.4714 L313.6354 375.0947 L313.5465 373.5159 L313.4352 372.5819 M313.9179 126.9261 L313.9179 121.9768 L317.557 116.1546 L320.1043 114.9171 L325.9268 113.3157 L327.3822 117.5371 L327.6736 119.7933 L331.8428 118.7066 L333.7144 124.5972 L334.5878 128.4547 L338.8819 132.312 L339.7553 136.3148 L343.2486 140.2448 L339.3185 145.3399 L342.0113 149.2697 L346.8877 153.4911 L348.4161 156.3295 L350.0174 159.4594 L350.1629 162.1523 L346.2327 164.1171 L341.3563 168.848 L338.154 169.5032 L338.518 171.3225 L334.9515 171.5407 L334.8789 169.867 L326.8002 170.7405 L326.1452 168.6297 L327.6006 166.8827 L326.0723 164.3354 L329.9298 159.4594 L330.4393 156.8393 L327.621 156.2489 L324.7555 153.5413 L323.5976 143.3017 L322.2876 140.3176 L318.7543 137.3455 L317.1201 133.6217 L314.2089 131.5111 L313.9179 126.9261 M314.4667 342.762 L314.5803 342.1762 L314.6336 341.9498 L315.839 342.0957 L317.5743 342.3012 L318.2367 342.1815 L319.3154 342.0314 L320.5418 341.7489 L321.0394 341.6658 L321.3057 341.6522 L321.5184 341.807 L321.7188 342.0434 L322.0078 342.5539 L322.5227 343.7144 L322.8327 344.7008 L323.3988 345.9556 L323.6305 346.4237 L323.5765 346.8374 L323.4246 347.0732 L322.9959 347.17 L321.5279 347.3123 L320.261 347.818 L319.8163 347.7903 L319.2021 347.5685 L318.5769 347.4765 L317.9003 347.4331 L317.1805 347.4922 L316.457 347.4451 L315.8753 347.2908 L315.2858 347.0821 L314.888 345.2343 L314.4667 342.762 M318.1631 362.1936 L318.2354 361.7146 L318.4002 361.1649 L318.6387 360.6984 L318.6804 360.4437 L318.6421 360.0886 L318.5576 359.6948 L318.3985 359.3088 L318.289 359.097 L318.2812 358.9134 L318.3276 358.7581 L318.5485 358.7513 L318.7818 358.8282 L318.9507 358.9725 L319.1661 359.5049 L319.3635 360.0483 L319.9961 365.8827 L320.0714 366.3293 L320.243 366.7995 L320.5805 367.575 L320.9502 368.1492 L321.0184 368.4212 L321.0116 368.5969 L320.9774 368.7324 L320.8909 368.8631 L320.4604 369.0932 L319.913 369.2302 L319.4558 369.2789 L319.141 369.2851 L318.8798 369.1162 L318.7442 368.7747 L318.636 368.28 L318.5719 367.9505 L318.523 367.4699 L318.5295 366.6086 L318.6285 366.0134 L318.6533 365.628 L318.5831 365.2855 L318.4715 365.003 L318.254 363.8002 L318.1686 362.9488 L318.1631 362.1936 M323.372 340.9932 L323.5006 340.8582 L324.9828 340.4947 L326.6957 339.9837 L326.8198 339.9466 L327.9842 339.9068 L328.2336 339.922 L328.7142 339.9508 L329.5062 340.1066 L331.4334 341.0204 L334.0753 342.273 L335.7356 342.8086 L336.8495 342.8708 L337.9142 342.8917 L339.4351 342.5826 L339.5491 342.7929 L340.395 345.1119 L340.685 346.1852 L340.7329 346.5915 L340.5799 346.9498 L340.0721 347.2783 L338.1286 347.5952 L333.4506 348.2589 L331.3344 348.2082 L329.5727 348.1444 L327.487 347.7547 L326.7462 347.6569 L325.9895 347.3928 L325.5981 347.01 L325.2803 346.3044 L323.4334 341.195 L323.372 340.9932 M339.1312 356.447 L339.233 356.3283 L339.4894 356.2002 L340.2675 356.0129 L340.874 355.8984 L341.0971 355.7682 L341.2121 355.5401 L341.2376 355.3979 L341.2664 355.2352 L341.5018 354.4685 L341.7026 354.1045 L341.9146 353.9053 L342.1418 353.8174 L342.5712 353.7766 L343.0091 353.7253 L343.5389 353.7975 L343.9541 353.8054 L344.102 353.7253 L344.1729 353.6286 L344.1 352.9069 L343.9806 352.1135 L343.7604 351.1961 L343.2957 349.6831 L343.1438 348.9226 L343.2048 348.5513 L343.2303 348.3949 L343.3653 348.1789 L343.5763 348.0691 L343.8367 348.0821 L344.0257 348.1867 L344.181 348.2856 L344.2312 348.5685 L344.5216 350.6904 L344.6426 351.6156 L344.8957 353.5507 L345.0083 353.7949 L345.0968 353.933 L345.2379 354.0799 L345.5663 354.115 L346.4356 353.9947 L348.2082 362.2768 L347.0264 362.2328 L346.577 362.1104 L346.1842 361.5943 L345.5676 360.2444 L344.8051 358.9976 L344.2617 358.4009 L343.6024 358.1514 L342.9891 357.993 L342.4095 357.892 L340.2685 358.0155 L339.7292 358.1379 L339.4745 358.0343 L339.2957 357.8387 L339.212 357.5871 L339.1312 356.447 M339.9968 342.5471 L340.0901 342.387 L340.4279 342.2746 L341.0544 342.3237 L341.1979 342.3645 L341.6788 342.5005 L343.0675 342.9398 L343.9487 343.4074 L344.3204 343.6046 L344.7142 343.8133 L346.4125 344.8374 L346.8755 345.2987 L347.1662 346.1308 L347.3429 346.6051 L347.3093 346.8965 L347.1906 346.9817 L347.1516 347.01 L347.1194 347.033 L346.8212 347.1648 L346.2745 347.1763 L345.2932 347.1972 L341.9502 346.9624 L341.6076 346.7777 L341.3532 346.6271 L341.1392 346.4064 L340.8567 345.0293 L340.8116 344.7066 L340.0284 342.7333 L339.9968 342.5471 M346.5353 353.9513 L347.1007 353.8556 L347.4057 353.7933 L347.6682 353.6788 L347.7737 353.4989 L347.7516 353.1657 L347.5366 351.6438 L347.7011 351.5361 L349.1545 351.3645 L350.3572 351.2835 L350.8932 351.3692 L351.6502 351.6564 L352.567 352.2353 L352.8425 352.4968 L352.9964 352.6427 L353.2471 353.0015 L353.4323 353.4142 L353.8288 355.6155 L353.8888 356.049 L354.1829 358.1656 L354.5831 360.3051 L355.3311 363.4838 L355.3368 363.842 L355.2659 364.0376 L354.6432 364.5271 L354.3559 364.7243 L353.9112 364.9037 L353.4347 364.8969 L352.6983 364.6788 L352.003 363.7531 L351.4609 362.635 L351.1038 362.4122 L350.7025 362.304 L350.1632 362.2794 L348.3255 362.2799 L346.5353 353.9513 M400.5563 276.1335 L400.5563 274.54 L402.1498 273.6794 L404.9888 273.7892 L405.6665 277.1594 L403.3953 278.3496 L403.1022 276.4448 L400.5563 276.1335 M431.7149 329.8938 L432.1117 329.7515 L431.932 329.1296 L432.9811 328.9199 L433.348 330.7783 L432.0744 331.52 L431.7149 329.8938 M439.2628 277.1735 L439.274 276.9931 L439.3357 276.7979 L439.4863 276.5949 L439.6328 276.4484 L439.9879 276.2685 L441.2483 275.8939 L443.3455 275.0997 L443.5511 274.981 L443.6349 274.7702 L443.7749 272.7058 L443.9391 272.3976 L444.2752 272.1151 L445.0455 271.6877 L445.4973 271.4842 L445.9406 271.3382 L446.4498 271.2901 L447.2228 271.2927 L448.0517 271.1384 L449.0723 271.1692 L449.3389 271.2006 L449.7677 271.3492 L450.1821 271.5982 L451.7828 272.9349 L452.1959 273.2169 L452.5727 273.4178 L452.9791 273.4785 L454.153 273.1358 L455.1838 272.8256 L455.9459 272.5122 L459.6715 270.397 L461.2477 269.2848 L461.9542 268.7799 L462.5071 268.3849 L463.0922 267.947 L463.6142 267.5855 L463.8696 267.3438 L464.0236 267.1785 L464.3129 266.9477 L464.6945 266.7463 L464.9947 266.581 L465.2416 266.4015 L465.4 266.3817 L465.5598 266.48 L465.5516 266.6935 L465.4831 267.1157 L464.8614 269.3716 L464.5022 271.0123 L464.0765 272.5457 L463.487 273.7924 L462.6584 274.948 L462.1985 275.4686 L461.767 275.9912 L461.2793 276.6143 L460.2624 277.6742 L458.9677 278.7373 L457.8484 279.5565 L456.9943 280.0436 L456.4449 280.2141 L455.7143 280.2596 L455.0264 280.4098 L454.444 280.5311 L453.8691 280.7791 L453.4705 281.0009 L450.8208 282.6316 L449.8301 283.1652 L449.3562 283.3896 L449.0771 283.4252 L448.878 283.3122 L448.8017 283.1537 L448.6823 282.7351 L448.5992 282.5018 L448.4947 282.3465 L448.4092 282.2758 L448.3363 282.2151 L448.1752 282.1571 L448.0243 282.1027 L447.548 282.1482 L445.9674 282.4254 L445.7002 282.4778 L445.5004 282.517 L445.2494 282.5008 L445.1164 282.4919 L444.9539 282.37 L444.8125 282.02 L444.8539 279.8568 L444.8217 279.1129 L444.7552 278.8074 L444.6483 278.6237 L444.5663 278.5039 L444.4391 278.4547 L444.1172 278.5374 L443.8757 278.6263 L443.354 278.8884 L442.9707 279.0239 L442.1733 279.161 L441.1954 279.1825 L439.8635 279.0961 L439.5863 279.0564 L439.4446 278.9517 L439.3476 278.7718 L439.2892 278.404 L439.2628 277.1735 M447.9096 246.6231 L447.9334 246.0727 L447.9985 245.6646 L448.1684 245.2659 L448.4896 244.626 L449.0469 244.2377 L449.5028 244.0243 L449.8711 243.9327 L450.2656 243.9191 L450.6373 244.0159 L452.0616 244.3774 L455.0186 244.853 L457.0384 245.3375 L457.9973 245.5118 L458.8117 245.5526 L459.9907 245.5118 L461.1589 245.3585 L461.8749 245.2057 L462.0821 245.1759 L462.4576 245.1366 L463.178 245.281 L463.9598 245.5369 L465.496 246.261 L467.5603 247.2337 L468.5148 247.5638 L468.2556 251.118 L468.2461 251.7192 L468.144 253.4866 L468.0633 253.981 L467.7831 254.5084 L467.5613 254.8553 L467.2835 255.4062 L467.0359 256.3323 L466.5702 258.4413 L466.3006 259.483 L466.0034 260.579 L465.8484 261.3356 L465.7843 261.7573 L465.6514 265.8124 L465.2328 266.0113 L464.4669 266.4324 L463.8727 266.8761 L463.2489 267.3082 L462.4444 267.8194 L462.0492 268.0265 L461.6893 268.1641 L461.4397 268.2593 L461.0934 268.1835 L460.9075 267.7613 L460.4693 266.1588 L460.2437 264.087 L459.8757 262.6681 L459.5389 261.5799 L459.4358 260.4849 L459.4205 260.3227 L459.2815 259.8837 L459.1234 259.4202 L458.8982 259.1298 L458.233 258.673 L457.8447 258.1525 L457.7375 257.8129 L457.7307 257.2416 L457.7775 256.4385 L457.864 256.1042 L458.0377 255.7479 L458.4054 255.4481 L458.4254 255.4397 L458.6726 255.333 L458.982 255.1671 L459.3758 254.9971 L460.1718 254.3404 L461.1812 253.6022 L461.7029 253.1371 L461.9743 252.9179 L462.3189 252.7719 L462.6055 252.7164 L463.0729 252.7761 L463.5169 252.8854 L463.7706 252.9791 L465.0615 253.8779 L467.0057 253.8591 L467.136 253.6352 L467.0458 253.5059 L464.5453 252.2492 L461.5204 251.2504 L458.4837 250.6257 L454.6685 250.2924 L453.5051 249.9084 L450.5631 248.9681 L449.2263 248.1425 L448.5357 247.7166 L448.2088 247.4974 L448.0192 247.1845 L447.9096 246.6231 M456.0816 241.979 L456.1973 241.6085 L456.6582 241.2485 L457.3712 240.8122 L457.7589 240.7755 L458.2188 240.8551 L458.441 240.9623 L458.579 241.0288 L459.5104 241.7106 L459.87 241.979 L460.2536 242.0988 L460.7135 242.2301 L461.2277 242.4363 L461.9057 242.8779 L463.3405 243.3043 L464.2471 243.7245 L465.8854 244.7599 L466.5214 245.1063 L467.8147 245.6829 L469.0229 246.103 L469.0419 246.1428 L469.1348 246.3358 L468.9781 246.5938 L468.8811 246.7529 L468.6308 246.7963 L468.4161 246.7068 L466.4685 245.8958 L464.4289 245.0063 L463.0468 244.5375 L461.8138 244.0541 L461.2952 244.0039 L460.1898 244.1744 L457.7606 244.447 L456.7695 244.4324 L456.494 243.5084 L456.2152 242.5001 L456.1243 242.1464 L456.0989 242.0465 L456.0816 241.979 M457.9352 280.0305 L457.9895 279.7558 L459.6054 278.5536 L460.5303 277.8191 L461.6008 276.7775 L462.7574 275.4487 L463.7438 274.0655 L464.3414 272.9553 L464.7145 271.9655 L464.9699 270.3724 L465.1972 269.1838 L465.5062 267.8602 L465.6914 267.077 L465.7965 266.3916 L465.9621 264.4951 L465.9054 263.0977 L465.9482 261.9451 L466.0251 261.3612 L466.1503 260.7397 L466.8409 258.4627 L467.3812 255.9451 L467.8422 254.8338 L467.9826 254.6737 L468.178 254.5466 L468.4286 254.3577 L468.6881 254.3096 L469.7372 254.4414 L470.98 254.5319 L471.2706 254.5136 L471.6861 254.4226 L471.9945 254.5445 L472.2109 254.9918 L472.4225 255.9404 L472.6209 257.1976 L472.7098 258.04 L472.3272 259.9329 L472.027 260.8495 L471.8232 261.3366 L471.6977 261.5564 L470.9823 261.865 L470.7853 261.9739 L470.7405 262.101 L470.7829 262.2998 L471.0376 262.6017 L471.5067 262.8314 L472.7071 263.219 L475.4063 263.8657 L476.6403 264.2073 L476.8248 264.4166 L476.8679 264.6254 L476.7227 265.8867 L476.683 267.4165 L476.6901 267.9449 L476.7292 268.0595 L476.7651 268.1411 L477.4204 268.7454 L478.0954 269.6076 L478.6489 270.283 L479.1357 271.1017 L479.2707 271.435 L479.5284 272.0706 L479.562 272.5258 L479.7309 272.8873 L479.9833 273.49 L480.2777 273.783 L481.5229 274.9543 L481.184 275.7568 L479.9443 276.4171 L475.3358 277.6407 L474.8636 277.5272 L475.3799 276.4239 L475.1699 275.5994 L474.5455 274.7979 L473.3902 274.3882 L473.1572 274.0403 L474.5289 272.3892 L474.6598 270.9014 L473.7074 270.996 L472.8061 271.1807 L472.2373 271.2958 L471.8042 271.3984 L471.5681 271.5438 L471.4755 271.8122 L471.523 273.2676 L471.5104 273.7369 L471.4409 273.9985 L471.3219 274.1847 L471.2099 274.3464 L470.8704 274.5436 L470.5617 274.8188 L470.2748 275.0255 L469.9665 275.253 L469.7701 275.3723 L468.6738 276.0367 L467.5413 276.3663 L465.9424 276.7493 L463.6587 277.466 L462.9521 277.8165 L461.7568 278.7849 L461.4797 278.9068 L460.1688 279.4833 L458.984 280.2476 L458.8717 280.3198 L458.5027 280.5008 L458.3321 280.4652 L458.2527 280.449 L458.0017 280.2366 L457.9352 280.0305 M480.9357 257.7292 L481.0795 257.2055 L481.899 257.3499 L483.0502 257.567 L483.8598 257.4571 L484.7644 257.3054 L485.2583 257.1453 L485.4069 257.0747 L485.4435 256.9104 L485.4513 256.7445 L485.4364 256.6373 L485.1728 256.237 L485.0874 256.0796 L484.9941 255.8426 L484.9452 255.6207 L484.949 255.412 L484.989 255.1341 L485.0633 255.0232 L485.1362 254.9458 L485.3133 254.8767 L485.4679 254.8668 L485.7366 254.917 L485.9346 254.9693 L486.1375 254.9735 L486.3345 254.9646 L486.6181 254.9233 L487.388 254.7423 L488.0963 254.7083 L488.2214 254.635 L488.2709 254.4603 L488.1499 254.2259 L487.9904 254.1322 L487.0 254.1217 L486.7382 253.9957 L486.7795 253.732 L487.1842 253.5279 L487.8527 253.3704 L488.5247 253.4013 L488.9836 253.8209 L489.3567 253.9794 L489.8878 253.9669 L490.4366 253.8915 L491.2341 253.9533 L491.8005 253.5122 L492.1336 253.4473 L492.6285 253.4479 L493.0314 253.4714 L494.5231 253.9538 L494.9977 254.0888 L495.8473 254.2541 L497.0331 254.3875 L497.0453 254.4665 L496.9961 254.5471 L496.9178 254.6157 L496.7129 254.6397 L496.2167 254.6774 L495.6401 254.6565 L495.44 254.6198 L495.1713 254.5827 L494.0842 254.3452 L493.5622 254.2573 L493.2997 254.2206 L493.1305 254.2274 L492.9541 254.2536 L492.4429 254.4812 L492.0657 254.6779 L491.6594 254.9667 L491.0431 256.1303 L490.6239 256.5813 L490.2145 256.7901 L489.972 256.8649 L489.6524 256.9758 L489.2135 257.0689 L488.6291 257.1668 L484.6729 257.8862 L483.8934 258.0164 L483.4511 258.0724 L482.7307 258.0792 L482.2172 258.0285 L480.9357 257.7292 M481.5198 259.4788 L481.6148 258.9362 L481.7135 258.7332 L481.9821 258.684 L482.2904 258.774 L482.8494 258.9373 L483.018 258.9263 L483.2887 258.8488 L484.0783 258.3769 L484.3422 258.2765 L484.6342 258.2252 L485.0066 258.2278 L485.9133 258.0996 L486.7619 257.9055 L487.3524 257.7695 L488.5762 257.5545 L489.0256 257.4744 L490.2881 257.1186 L490.6639 257.0077 L490.803 257.0841 L490.8694 257.1914 L490.8664 257.3567 L490.2843 257.8323 L489.5748 258.254 L489.3058 258.4496 L489.2871 258.6024 L489.3591 258.7657 L489.4791 258.8394 L489.6816 258.8394 L490.0049 258.7191 L490.455 258.3455 L490.7429 258.1483 L490.9179 258.1556 L491.054 258.2984 L491.1432 258.5972 L491.1432 258.9467 L490.9824 259.6425 L491.0343 260.195 L491.3029 260.6988 L491.3443 260.9882 L491.3019 261.1859 L491.2066 261.2749 L490.9312 261.4051 L490.3111 261.6244 L489.5585 261.7902 L488.9965 261.9236 L488.5708 262.0063 L488.2075 261.9508 L488.0596 261.4831 L487.9525 261.1954 L487.7974 261.2477 L487.9575 261.7478 L487.9457 261.9754 L487.8982 262.169 L487.8076 262.4091 L487.6177 263.7454 L487.4681 264.2607 L487.0597 264.6771 L486.7663 264.7143 L486.4478 264.6358 L486.1426 264.1451 L485.9496 263.5439 L485.895 262.9632 L485.8634 262.4275 L485.5117 261.3931 L485.4276 261.401 L485.4438 262.2266 L485.2936 262.3825 L485.1243 262.4364 L484.8788 262.4311 L484.6362 262.4065 L484.4517 262.4479 L484.2947 262.6325 L484.197 263.5968 L483.9938 263.7611 L483.8727 263.8589 L483.6509 264.0028 L483.5196 264.0357 L483.4114 264.0629 L483.0841 264.041 L482.885 264.0279 L482.5214 263.5659 L482.3067 263.1374 L482.1534 262.6456 L482.205 262.35 L482.2229 262.2475 L482.4278 261.8692 L482.7507 261.6966 L483.5122 261.5877 L483.6401 261.4324 L483.659 260.5006 L483.5719 260.33 L482.7402 259.9308 L482.169 259.8712 L482.0204 259.8256 L481.7325 259.7377 L481.5198 259.4788 M492.2459 255.1901 L492.2676 254.9704 L492.4182 254.8192 L492.6095 254.6973 L492.7984 254.6036 L493.0813 254.5063 L493.7003 254.4712 L494.1629 254.5314 L495.0418 254.7601 L495.7863 254.86 L496.313 254.8997 L496.4056 255.0803 L496.5443 255.2043 L496.7923 255.3366 L496.8479 255.4779 L496.8472 255.6197 L496.7794 255.8007 L496.4477 256.281 L496.2737 256.5337 L495.9735 256.8502 L495.4111 257.3337 L495.1866 257.9029 L494.8206 258.6699 L494.1901 259.5803 L493.9381 259.8591 L493.5388 259.9727 L493.1976 259.9528 L493.0348 259.8738 L492.9225 259.6812 L492.7889 258.8101 L492.7448 257.893 L492.6451 257.3305 L492.5125 256.5729 L492.2774 255.5271 L492.2459 255.1901" stroke-dasharray="" fill="none" fill-opacity="1.0" stroke="#ff0000" stroke-opacity="1.0" stroke-width="1.0px" stroke-linecap="butt" stroke-linejoin="miter" stroke-dashoffset="0.0px"/>
</g>
</svg>