<?xml version="1.0" standalone="no"?>
<!DOCTYPE svg PUBLIC "-//W3C//DTD SVG 1.1//EN" "http://www.w3.org/Graphics/SVG/1.1/DTD/svg11.dtd">
<svg width="512px" height="512px" version="1.1" xmlns="http://www.w3.org/2000/svg" xmlns:inkscape="http://www.inkscape.org/namespaces/inkscape">
<g id="layer" inkscape:groupmode="layer" inkscape:label="layer">
<path d="M97.3854 412.8571 L97.6744 413.3692 L97.9327 414.2633 L98.2407 414.403 L98.7577 414.403 L98.881 413.6026 L101.0355 413.7013 L101.614 413.9722 L101.8272 415.0922 L102.934 419.7665 L102.5054 421.5652 L101.5445 423.1263 L100.6264 423.9593 L101.5883 424.5221 L102.5456 425.0918 L104.0905 426.3041 L101.3354 429.413 L106.9531 439.9451 L105.0185 447.2061 L105.4006 450.9908 L107.0191 453.2166 L113.9852 459.0005 L118.0757 467.524 L116.4861 485.5013 L121.9639 489.8148 L125.8475 485.6402 L127.3874 483.2854 L137.4126 483.9801 L145.8347 489.4675 L150.459 500.6923 L161.9338 506.9227 L176.4975 512.0 L175.3324 503.7068 L181.9572 500.8243 L183.2397 502.9011 L180.6792 510.2011 L186.4775 508.1382 L200.698 511.5902 L203.9314 509.4093 L205.7377 508.1243 L203.8185 511.5485 L207.6254 508.2146 L214.7649 503.0122 L213.6405 501.88 L222.2026 500.9979 L228.2493 495.8787 L230.1957 493.6421 L239.9906 487.6268 L253.484 488.9952 L265.1214 486.9114 L275.9595 486.8836 L270.0888 484.8414 L250.6706 488.3006 L234.4902 485.2026 L223.4083 499.5184 L220.8659 501.0882 L221.0917 500.6159 L230.7692 489.2383 L233.9167 485.022 L253.064 487.6338 L273.6338 482.0768 L278.7819 481.7225 L277.7658 480.3819 L279.9018 479.2983 L280.7508 478.2702 L283.528 480.4305 L282.6475 484.4177 L288.2155 484.6955 L286.7433 479.3955 L289.9586 475.4847 L295.048 476.7767 L299.4194 473.4216 L306.7396 471.1293 L315.8291 471.2293 L315.8368 471.2231 L322.2923 482.2504 L316.9274 483.9801 L319.4473 486.8211 L327.332 489.6759 L332.6562 490.0857 L339.3532 485.7861 L344.1491 482.4658 L342.6769 481.7781 L350.259 472.206 L351.882 467.0565 L344.0863 464.6245 L351.2435 456.715 L359.8733 457.1943 L361.2145 456.2148 L366.9181 459.4242 L368.8734 459.32 L367.2884 455.8883 L371.9216 451.227 L375.6472 451.095 L377.2639 453.5195 L379.3141 452.4636 L382.3126 451.9425 L381.6597 450.269 L382.2594 449.0471 L383.5924 450.3309 L383.9835 447.7535 L385.3563 444.7108 L384.9409 438.2638 L380.9489 444.8705 L371.3797 439.1809 L374.2563 433.2688 L376.4104 432.9214 L372.9558 427.7109 L376.2704 424.3206 L375.6472 423.473 L377.2594 414.7121 L375.8685 413.2323 L376.9957 406.3936 L377.6419 403.4262 L374.9789 404.0126 L367.8032 396.7173 L361.8738 396.2726 L361.8738 392.1038 L358.0805 391.4159 L357.8141 388.1086 L360.3068 386.448 L364.8146 386.3729 L363.9109 383.2823 L362.357 377.2206 L357.1051 373.3434 L359.3901 373.2669 L359.3901 371.37 L365.9065 369.4174 L366.1142 365.4567 L366.1775 364.3797 L366.6561 356.5762 L362.8899 356.3539 L363.3415 353.4076 L361.8522 353.6362 L361.6652 356.1975 L353.981 356.9841 L352.4984 356.3963 L351.4426 354.8092 L348.9454 353.3193 L348.2355 354.7508 L347.1806 355.2393 L341.5073 351.302 L334.327 348.7657 L338.73 352.4417 L338.1804 353.3006 L343.3574 355.0357 L349.6584 363.2888 L355.2897 371.1129 L357.7418 372.5234 L357.5973 372.5443 L355.0865 371.5506 L342.2799 356.5318 L330.8272 351.1353 L330.9988 351.9539 L331.478 352.9712 L330.8814 353.2338 L328.7247 355.7243 L327.4381 355.9634 L326.0318 353.3902 L327.7673 351.0561 L325.4931 348.1236 L323.1891 351.4153 L322.3812 351.0561 L320.1969 349.6795 L318.9699 349.0214 L318.0424 348.1236 L317.3243 346.7171 L312.8658 348.7518 L311.3995 349.4105 L309.1253 351.236 L307.24 351.0262 L306.3287 349.4884 L307.4798 348.9318 L304.6217 347.0979 L303.4697 346.8074 L300.7168 350.9365 L298.5252 352.2402 L292.8623 349.0228 L292.5056 347.8623 L292.2188 347.0764 L292.4582 345.7595 L298.1138 341.2711 L296.4082 338.1593 L298.6824 337.0821 L307.8085 332.3545 L309.604 333.7305 L310.6639 333.5054 L309.2549 329.2176 L310.3749 325.8054 L308.2118 326.1599 L307.706 324.1306 L303.7691 318.2902 L302.9612 316.4652 L301.9257 316.9865 L300.1193 317.3965 L298.9813 314.3407 L296.7731 314.6792 L292.0992 315.8398 L291.7402 314.9092 L299.2509 312.1564 L297.0066 312.0369 L294.2537 313.3233 L290.9621 314.6097 L287.5562 316.5139 L287.8091 318.6266 L283.4964 321.9207 L279.4416 321.4627 L278.8433 321.5225 L275.0129 319.1881 L273.9955 317.1831 L275.8208 315.5375 L281.3866 314.1913 L290.3651 314.4151 L294.3436 311.2585 L294.2239 310.6601 L294.5874 307.6738 L297.324 306.9788 L302.5715 308.0213 L306.0622 306.4506 L305.6693 304.9981 L307.5434 304.1294 L311.3616 307.0407 L314.1953 310.8082 L313.6001 307.7134 L312.9227 301.9937 L308.3138 297.9439 L308.569 293.3395 L307.0927 293.7475 L306.7911 292.9795 L307.5014 292.2087 L307.2589 290.9598 L305.2024 291.3796 L305.808 296.31 L307.0282 297.1551 L307.4251 298.372 L305.7908 296.8055 L304.7906 296.9834 L304.9784 298.1316 L303.1409 296.3871 L302.2129 296.1772 L297.884 300.7309 L290.9747 300.7309 L289.9148 299.8281 L289.6452 297.9731 L287.1019 295.4593 L289.0171 293.5445 L295.9291 291.8084 L294.4023 286.914 L293.7023 284.8359 L294.5829 284.1186 L293.0267 282.7119 L291.1418 283.3103 L288.4278 284.3355 L285.576 287.3199 L285.6356 288.2179 L285.8221 289.1868 L285.2576 290.5073 L281.985 293.3346 L277.6163 294.5016 L274.3789 293.9476 L275.791 296.4768 L275.4266 297.9439 L271.8112 305.4235 L268.6094 306.4708 L266.151 309.4391 L265.6773 310.5406 L262.6331 314.2413 L255.1684 307.3055 L253.7978 304.4658 L254.5542 301.4189 L255.3838 300.7559 L259.5429 298.96 L259.1785 296.818 L261.5087 294.6635 L260.5003 293.9031 L260.5603 291.3003 L266.6161 289.3953 L276.9281 285.1959 L279.741 284.6274 L282.1647 282.7717 L282.3901 279.7344 L289.498 275.8143 L287.8046 274.2852 L287.9401 273.1669 L292.9671 272.5385 L288.2381 271.2826 L282.4041 270.7126 L276.4196 268.4989 L273.2179 264.3695 L272.4398 262.9327 L273.259 262.4969 L277.4678 259.3135 L282.2139 261.8783 L281.4959 262.9835 L283.3614 265.2967 L284.4985 269.3962 L286.0253 268.3633 L288.957 264.938 L291.1418 265.1174 L291.0217 263.9503 L290.7823 263.1725 L290.6089 262.3996 L288.6283 262.873 L287.2514 261.1971 L288.2991 257.6668 L285.3963 255.2132 L283.3926 256.269 L281.2159 255.0248 L281.2656 251.7301 L282.1372 250.8959 L280.823 248.3449 L281.6991 247.7263 L277.5761 240.8029 L277.5716 240.7265 L278.2671 233.6362 L275.2225 228.611 L271.8112 225.7686 L271.9909 224.901 L269.5289 222.3957 L269.8662 221.0109 L268.4451 218.2108 L270.1954 214.817 L269.178 214.0391 L267.592 210.867 L268.7928 206.1634 L273.837 201.9992 L277.4542 207.6858 L280.1141 207.4564 L282.7739 207.2201 L283.2029 211.2174 L282.8462 212.6842 L283.7629 212.0585 L286.0073 215.4023 L287.3114 214.5473 L288.6897 215.1729 L292.4284 220.1434 L294.8222 217.9286 L294.759 215.159 L293.6752 211.7527 L297.8479 210.4527 L293.2417 204.6479 L296.4389 201.8393 L293.2372 198.4397 L293.4043 196.4584 L294.0143 194.0502 L295.0914 193.1527 L295.7525 189.5549 L295.3908 183.188 L297.7246 182.8292 L298.5388 188.8179 L300.2413 189.0474 L303.0456 186.3777 L302.6934 190.6951 L305.0416 191.7031 L304.8023 190.3057 L307.5394 189.5618 L308.9759 191.5071 L310.6684 190.9036 L311.8782 190.9982 L313.4041 194.9477 L313.0889 196.5418 L316.6957 194.0203 L317.8929 193.6317 L316.2365 187.7751 L317.803 187.1981 L320.4064 192.7035 L321.4537 191.1177 L322.4711 191.4473 L322.1121 188.4543 L321.9621 186.3304 L324.2476 185.5643 L326.0224 191.1956 L326.66 193.1228 L327.6774 193.6317 L328.8448 193.1527 L329.0241 191.537 L331.3583 189.6216 L331.6446 187.4762 L331.6573 184.2058 L337.4963 182.4552 L339.9913 189.9407 L341.8568 189.6258 L343.165 191.4911 L345.3458 190.2988 L346.9986 192.9823 L342.7943 196.1108 L342.1232 201.7871 L339.7249 201.8351 L339.2647 199.8003 L335.1706 201.9324 L334.7588 205.3966 L333.7626 207.6302 L329.7886 207.2687 L328.0048 205.0928 L328.7545 207.3661 L333.0626 208.6104 L340.4189 211.704 L335.1986 218.7044 L337.5017 220.9081 L337.2669 223.4037 L331.1343 227.7484 L328.0048 227.7484 L329.7525 228.9996 L334.5574 226.2677 L338.3326 226.3372 L339.7054 233.9421 L344.6458 232.9619 L347.6082 229.0761 L349.4146 230.6819 L348.543 233.3025 L346.0683 234.9361 L347.8566 235.2072 L349.5094 239.1277 L352.3408 239.5587 L354.9384 227.7317 L357.4817 227.9256 L358.6689 234.0303 L361.0673 227.8047 L362.8768 227.6886 L362.9152 227.642 L363.2069 227.389 L363.6612 227.357 L364.9925 226.9809 L364.936 228.6103 L365.0801 228.8335 L365.6066 228.944 L366.088 229.2672 L366.3242 229.5947 L366.8187 229.6531 L366.4714 230.3475 L366.485 230.5748 L365.5493 232.1924 L365.342 232.6074 L364.8362 233.6709 L363.4499 238.0433 L361.7248 239.802 L362.6325 239.7047 L365.911 237.6679 L366.8327 242.2182 L364.6768 240.3532 L363.337 240.6354 L363.2173 240.7744 L363.1216 240.846 L361.9632 241.7094 L361.075 242.2537 L361.0027 242.3169 L360.7575 242.4302 L359.736 242.0521 L359.5888 241.9047 L359.592 241.6413 L359.7279 241.3966 L359.8507 241.3027 L359.4759 241.0115 L354.9871 243.7919 L356.3432 244.3501 L356.6097 247.0152 L356.1026 248.2059 L356.5677 249.0678 L356.0524 249.2194 L356.0041 249.6072 L355.7503 249.8185 L355.7133 251.0363 L355.156 253.725 L356.6097 255.5906 L357.6018 256.832 L359.2745 255.5663 L360.4613 251.2782 L362.763 252.4168 L362.6659 257.9886 L360.2919 262.6158 L358.0534 270.7265 L354.8968 272.0541 L355.7142 274.1114 L356.5361 276.1688 L356.8115 275.8769 L358.3551 278.9837 L358.6974 278.5875 L358.7574 278.5271 L359.6863 277.2718 L363.3686 278.2894 L363.7592 279.9137 L363.7872 280.0291 L363.8843 280.5649 L364.0658 282.0224 L364.153 282.6354 L364.1643 282.9614 L364.1096 283.106 L364.353 285.3224 L359.0067 286.602 L356.1044 283.4903 L354.9871 283.4737 L352.806 285.1278 L350.1199 280.0791 L347.1277 273.3163 L345.3322 274.7523 L346.23 281.0063 L345.721 282.2629 L342.7586 282.3831 L336.2955 282.8919 L336.7444 285.4051 L336.0259 285.8242 L330.4904 286.4227 L326.8993 285.6442 L326.301 285.9139 L327.3482 286.9912 L330.8792 287.9788 L335.9961 286.8418 L338.9287 288.188 L339.0732 291.2301 L340.694 291.9585 L341.5321 294.0832 L342.7288 294.6517 L343.1479 296.1174 L343.1479 303.9271 L344.285 298.4513 L343.8058 296.2071 L343.5665 294.3222 L343.6564 293.1553 L341.5569 291.9182 L341.8013 288.0984 L345.1525 288.0087 L348.3307 287.2546 L344.7135 304.8939 L342.9885 305.6792 L341.2625 304.4963 L338.8985 305.543 L335.8764 307.9372 L338.3304 309.4036 L338.0906 312.1265 L337.4624 314.1614 L340.9934 314.3407 L340.9333 313.2934 L342.6091 313.0238 L344.42 318.0984 L349.5812 315.3283 L352.0347 318.4702 L353.8302 326.0403 L354.7279 326.6088 L359.5455 324.4545 L362.1403 325.6873 L363.9742 326.31 L364.423 327.4469 L363.6526 330.0071 L363.9489 330.4254 L364.2641 330.62 L364.5581 330.9153 L364.7021 331.326 L365.2594 336.3205 L365.3718 337.2823 L365.4802 338.5609 L369.1218 339.7388 L369.4686 340.7874 L369.6741 341.0564 L369.8294 341.301 L369.8407 341.6936 L369.7892 341.7582 L370.0385 342.5115 L369.9301 348.0708 L367.9928 350.1763 L368.383 353.0719 L368.4074 355.0343 L368.0831 356.3539 L367.5367 369.4105 L370.0548 370.9746 L371.484 372.5248 L370.9507 373.5664 L368.4313 374.075 L367.6564 376.2311 L362.2803 371.6271 L360.7855 373.1697 L363.1518 375.421 L364.1182 380.7921 L366.8774 384.0786 L367.7625 380.9936 L373.1319 387.5249 L371.1314 390.2486 L373.3012 389.872 L375.5479 397.7046 L378.0316 401.8879 L379.2915 406.6042 L380.6147 407.952 L379.4541 400.4483 L381.4637 400.5248 L386.4627 400.9625 L386.955 396.3838 L389.809 391.5896 L381.265 387.8307 L382.3397 386.1422 L384.697 381.7926 L381.9785 379.0411 L385.5731 376.8176 L387.113 372.1343 L390.1115 369.0144 L392.1798 370.1609 L392.6314 366.3948 L395.928 368.7017 L394.1894 372.0926 L399.4684 376.4146 L405.8223 367.0341 L414.4972 360.3216 L414.4837 348.2723 L414.6146 346.2779 L413.4157 344.9673 L413.487 345.2675 L413.5146 345.5156 L413.5028 345.6928 L413.4762 345.8471 L413.4365 345.9958 L413.3723 346.0973 L413.3168 346.1445 L413.6212 346.945 L411.9413 346.945 L404.2751 340.0918 L402.7379 336.5978 L396.5327 322.6698 L394.086 323.3724 L391.7729 317.3548 L390.2159 313.709 L388.7464 310.672 L387.7023 309.2862 L379.5038 300.5085 L380.0656 299.2735 L380.1139 298.7098 L381.3526 295.3585 L381.3679 295.3175 L381.4199 295.1625 L381.8195 294.904 L381.8168 294.7657 L382.2246 294.6419 L386.4063 291.9363 L386.5278 288.7301 L385.8978 286.9134 L380.2033 280.6282 L379.8054 280.3495 L379.5128 279.1686 L380.0046 272.3856 L380.1992 272.3071 L380.1992 271.8803 L381.4018 271.8803 L381.5305 271.8435 L381.5016 270.7967 L381.6222 270.192 L381.9329 269.604 L382.3957 269.1432 L382.5944 269.0417 L382.4481 265.5831 L383.8571 266.9593 L386.2225 263.7703 L386.2293 263.6932 L386.3376 263.616 L386.7292 263.0877 L385.4873 261.8366 L382.123 264.6934 L381.0166 261.5238 L383.6629 258.8617 L387.4291 256.5019 L386.7861 256.4873 L386.2794 256.4497 L385.9104 256.4595 L385.6413 256.465 L385.5383 256.6082 L385.5483 256.8084 L385.5288 257.0871 L385.2547 257.2692 L384.9874 257.3492 L384.66 257.5056 L384.3958 257.6675 L384.1736 257.8121 L383.9474 257.9191 L383.7351 257.9303 L383.5523 257.8058 L383.1987 257.393 L383.0727 257.2185 L382.9864 256.8946 L383.1025 256.6423 L383.2565 256.506 L383.6281 256.4643 L384.1036 256.4546 L384.5435 256.4052 L384.7196 256.4108 L384.7756 256.1779 L384.73 255.9944 L384.553 255.87 L383.9266 255.8207 L383.0555 255.4905 L382.7349 255.3696 L382.5281 255.2041 L382.4165 254.99 L382.3691 254.9351 L381.3919 253.725 L381.61 251.2303 L383.112 250.5275 L376.3047 239.2869 L369.4469 236.521 L371.7952 236.0205 L373.0 236.7073 L373.607 236.1727 L374.1096 236.5662 L374.4645 236.822 L374.8949 237.1675 L375.7452 237.6874 L376.1643 238.0113 L376.6005 238.2143 L377.3167 238.3353 L377.9377 238.5612 L378.5649 238.956 L378.8729 239.1861 L379.3182 239.469 L379.5769 239.3355 L379.847 239.0137 L376.6588 237.9182 L372.1474 234.665 L378.1039 233.1357 L379.1669 232.7193 L379.2852 232.5358 L380.1256 231.9755 L380.5686 231.6745 L380.8703 231.5084 L381.1728 231.3555 L381.4393 231.2686 L381.7965 231.2665 L382.1311 231.2852 L382.3316 231.3951 L382.3881 231.4569 L384.6446 230.5727 L384.5841 230.5428 L378.7998 231.1233 L377.6852 227.4898 L379.0906 224.6793 L380.1807 219.5921 L383.8629 217.0728 L378.1459 215.7645 L376.4149 209.3751 L372.2287 195.2904 L367.8167 186.6906 L368.4557 186.6461 L369.0374 186.5738 L369.4004 186.5981 L370.0656 187.0938 L370.4224 186.9005 L370.4314 186.8435 L370.4585 186.6954 L370.5371 186.6113 L370.6676 186.4896 L370.9665 186.2991 L371.2849 186.1184 L371.5671 186.0051 L372.1479 185.7576 L372.3028 185.6866 L373.5153 184.1585 L373.5835 183.7309 L373.7903 183.384 L373.9691 183.188 L374.3345 182.9773 L374.4862 182.9349 L375.1911 182.0464 L370.8753 181.2642 L369.773 181.5639 L369.5124 181.1905 L369.2306 179.2515 L369.2695 178.9025 L369.4284 178.753 L369.7111 178.7023 L370.4115 178.8504 L371.9582 178.8434 L378.9154 177.188 L378.6963 176.5797 L377.5254 174.2798 L377.1596 172.8211 L377.0544 172.0466 L377.0508 171.9778 L376.6091 171.1449 L375.5253 169.2746 L367.4627 170.5122 L366.8571 170.1006 L366.5663 169.301 L366.2027 167.7992 L364.5788 160.6532 L366.5432 158.4839 L365.4414 149.8761 L363.4499 148.6454 L364.1769 143.5488 L363.0209 141.6853 L358.6901 135.1006 L350.6248 135.3092 L348.3127 131.2762 L340.9879 131.9994 L333.0942 137.7428 L326.8397 139.356 L317.3293 140.7953 L309.2369 141.0109 L319.1989 151.086 L319.7778 153.1155 L318.7247 156.3494 L315.5884 160.3869 L317.2796 163.5734 L313.5541 167.2097 L312.1993 167.3557 L306.7532 165.7635 L314.2359 159.6937 L308.3789 153.888 L309.124 146.49 L307.7963 139.7106 L305.3848 135.7959 L307.1912 142.2068 L300.9593 137.3952 L300.1464 140.6632 L299.8936 139.21 L297.6356 140.1904 L293.3455 141.0109 L287.931 148.1309 L293.4946 159.2626 L290.6541 162.0438 L296.5875 165.9227 L297.4256 167.9877 L295.1514 171.9375 L298.7122 173.8223 L297.7124 175.1426 L295.7073 179.9954 L297.9743 179.6965 L297.9743 177.8471 L306.3964 172.0626 L311.4587 171.3743 L313.2845 172.2364 L311.6985 175.1989 L309.3769 176.3662 L303.5297 176.2758 L299.0414 179.7771 L296.3712 181.5945 L292.7874 181.8121 L287.7003 179.6874 L280.2197 180.854 L278.2174 180.0163 L279.5315 177.5628 L281.8653 176.2161 L282.3901 174.3987 L283.7209 171.6976 L284.1512 165.541 L279.1725 170.5907 L276.0304 175.9769 L270.5246 175.7975 L267.1264 173.175 L266.1871 172.2642 L266.6346 170.6505 L270.4501 170.387 L265.2162 169.6153 L264.1509 167.7179 L265.4077 165.0849 L267.2931 165.3839 L270.2017 163.4343 L265.0189 151.6791 L258.9446 150.3927 L258.7648 154.0132 L258.1367 154.7314 L255.5929 155.0909 L256.012 156.8562 L257.6277 159.0401 L262.5351 169.5736 L265.6172 173.6429 L267.8914 177.8617 L266.6644 181.9616 L261.5778 180.1957 L264.3311 177.5829 L258.4605 167.9814 L256.5507 164.6657 L255.8024 164.2471 L253.6181 163.6784 L252.3911 159.3697 L251.3439 159.3996 L247.3343 158.3525 L246.0418 157.0099 L246.665 154.9657 L244.8767 153.1093 L246.2992 150.9191 L245.21 151.889 L242.9358 152.8166 L240.1829 151.8292 L239.3746 150.5422 L236.293 147.5197 L236.7116 145.6048 L237.31 143.7198 L239.9432 143.959 L243.0614 146.2188 L242.664 147.7137 L244.5245 147.0671 L249.9932 146.3718 L248.5075 144.4179 L247.4241 142.373 L250.7835 136.4704 L250.3093 132.5 L251.5557 131.8325 L251.1222 128.7034 L248.5012 124.8088 L248.9907 122.2784 L255.2041 124.0905 L258.735 127.8607 L259.1062 129.9342 L259.2435 134.1146 L261.2829 133.0424 L263.4031 127.472 L265.1214 126.3114 L256.6903 122.6399 L265.5052 119.1492 L266.4129 115.6306 L267.9393 116.02 L267.9393 114.3233 L269.5672 114.1856 L273.5471 116.4303 L273.9359 116.2502 L272.9203 115.7349 L273.1596 115.0465 L273.3944 114.1105 L277.6335 115.5917 L279.3902 116.9122 L279.7975 116.5145 L279.9357 116.2342 L279.9944 116.0326 L279.9772 115.8107 L279.8395 115.3205 L279.5008 115.0945 L278.8532 114.8017 L277.8904 114.6084 L276.878 114.3637 L274.2376 113.1947 L274.0827 112.8783 L273.7246 112.7045 L273.5155 112.7406 L273.3095 112.7518 L273.0038 112.71 L272.7013 112.587 L272.1896 112.3297 L271.9625 112.1544 L271.7863 111.9792 L271.7317 111.8276 L271.598 111.6983 L271.374 111.66 L270.9374 111.571 L270.1286 110.9007 L269.9669 110.692 L269.8603 110.5217 L269.751 110.2762 L269.8567 109.9306 L269.8269 109.8332 L269.532 109.722 L269.1437 109.5015 L269.0082 109.1893 L269.0199 108.8423 L269.0836 108.5704 L268.7774 108.3667 L268.2405 107.8959 L267.7306 107.3577 L267.5157 107.1741 L267.247 107.0155 L266.9566 106.891 L266.2774 106.6525 L265.4203 106.1136 L264.8283 105.7019 L263.9093 105.2833 L263.0075 104.793 L262.8246 104.5051 L262.6869 104.1686 L262.4322 103.1839 L262.4561 102.9481 L262.5442 102.7812 L263.1019 102.2715 L264.1401 101.5128 L264.4097 101.508 L264.6431 101.5761 L264.8473 101.7736 L265.5888 102.6839 L265.9455 103.0657 L266.188 103.1582 L266.4996 103.2548 L266.7918 103.2847 L267.2605 103.2701 L268.1186 103.2555 L268.7494 103.1714 L270.2302 103.0052 L270.3824 103.0761 L270.4393 103.1894 L270.4271 103.3605 L270.3381 103.5782 L270.0888 103.8139 L267.6986 103.9314 L267.6792 104.2047 L269.5573 104.1129 L269.9732 104.1853 L270.2509 104.3118 L270.6619 104.9572 L270.7847 105.7179 L270.8985 105.9502 L271.1907 106.2068 L271.4463 106.3605 L271.682 106.3904 L271.9164 106.2443 L272.037 106.0865 L272.0383 105.9293 L271.9968 105.7263 L271.929 105.4564 L271.9485 105.2972 L272.0117 105.1331 L272.9844 104.2367 L273.5584 103.9266 L273.7986 103.8306 L273.977 103.7979 L274.0849 103.8111 L274.5487 104.1428 L275.2049 104.736 L276.4874 105.5983 L276.6079 105.8368 L276.5686 106.1553 L276.4458 106.5719 L276.1171 107.1122 L275.4126 107.6574 L274.5347 107.9446 L273.1149 108.2617 L270.6651 108.3486 L269.5578 108.5489 L270.3435 108.674 L271.528 108.6038 L272.1815 108.6121 L273.38 108.5023 L275.1218 108.1998 L275.6316 107.9348 L276.0213 107.6017 L276.4666 106.9286 L276.8468 106.3445 L277.0464 105.9947 L277.1435 105.745 L277.3603 105.5503 L278.272 105.9265 L278.9395 106.3827 L279.9352 107.4216 L280.1895 107.8437 L280.3882 108.2179 L280.2974 109.0335 L280.1127 110.2998 L280.021 110.8826 L279.644 112.0015 L279.7961 111.959 L280.1746 111.0794 L280.488 108.9995 L280.8253 109.7727 L281.0646 110.0606 L281.3126 110.2025 L282.9094 110.6774 L282.4424 110.151 L280.4076 107.3284 L279.4453 106.0148 L279.0601 104.9252 L278.9738 104.7145 L278.8379 104.51 L278.6225 104.2694 L277.3878 103.3828 L276.0782 101.9947 L274.9777 100.4683 L274.4561 98.4899 L274.3925 98.145 L274.4597 97.848 L274.812 97.0156 L274.8228 96.775 L274.0786 95.5059 L273.8207 94.5469 L273.6451 93.8181 L273.5828 93.485 L273.4717 93.2207 L273.114 92.4363 L272.704 91.4634 L271.6251 89.0551 L271.4955 88.6233 L271.496 88.4028 L271.5515 88.1699 L271.6319 87.9911 L272.8011 86.7206 L273.2368 86.0738 L273.4179 85.7261 L273.4735 85.4931 L273.5959 85.297 L273.7268 85.1252 L273.9341 84.9569 L274.0917 84.8512 L274.2484 84.7393 L274.3843 84.6607 L274.607 84.5793 L274.8413 84.5404 L275.0491 84.548 L275.3137 84.6697 L275.6013 84.9396 L276.0403 85.5571 L276.5149 86.2769 L277.0916 87.8945 L277.3526 89.0398 L277.8358 91.5656 L278.2332 94.3341 L278.2589 94.6769 L278.3551 94.9746 L278.7896 95.832 L279.1589 97.3383 L279.3906 98.3439 L280.0404 100.3411 L280.4546 101.3515 L279.7492 96.4558 L282.4953 98.7069 L286.3934 104.2054 L289.2104 107.7909 L290.1984 111.6698 L288.9986 118.6221 L290.0083 123.1058 L290.5683 117.4177 L291.9547 113.7921 L292.3999 113.7642 L292.7616 113.5967 L293.0398 113.1794 L293.2625 112.6788 L293.2349 111.927 L293.0954 111.6211 L292.8172 111.3151 L292.5824 110.9737 L292.3114 109.7143 L292.7336 109.117 L293.0954 108.9223 L293.4851 108.811 L294.0139 108.7832 L294.5147 108.8388 L294.4872 109.3395 L294.4592 109.8958 L294.6818 110.5641 L295.1271 111.5098 L295.3772 112.1503 L295.767 112.5675 L296.1567 113.0125 L296.8521 113.4854 L297.1863 113.8199 L297.1027 114.2093 L296.9637 114.5431 L296.9081 115.0437 L296.9081 115.4338 L297.9648 115.8747 L298.1324 114.6543 L298.9154 113.516 L300.6007 110.5467 L301.8056 109.5064 L302.2806 109.8019 L302.2671 111.3916 L303.1752 111.5105 L303.2249 109.5899 L303.5306 107.0579 L304.0319 104.6644 L303.6697 102.3272 L300.1916 95.3981 L299.2175 94.5629 L298.388 92.8223 L297.823 92.6227 L297.3407 92.5503 L297.1872 92.5803 L297.1199 92.7075 L297.0802 92.9134 L297.8411 95.832 L297.9472 96.5643 L297.5417 97.074 L297.2007 96.9663 L296.9199 96.7409 L296.5261 96.266 L294.5739 93.8995 L294.4465 93.8258 L294.251 93.873 L294.0645 94.001 L293.6147 95.3146 L293.5266 95.5719 L293.4092 96.049 L293.3943 96.2263 L293.3907 96.2653 L293.3672 96.542 L293.5718 96.7389 L293.9755 97.0622 L294.2004 97.2423 L294.2993 97.5045 L293.4756 98.4468 L293.0538 98.0407 L292.6618 97.6192 L291.6512 99.3564 L291.1526 100.734 L290.9196 101.1185 L290.7855 101.266 L290.6121 101.3425 L290.3127 101.4134 L290.0896 101.4384 L289.7929 101.4217 L288.1767 100.6032 L286.9547 99.7778 L286.6056 99.5149 L286.2881 99.1478 L285.9355 98.6276 L284.5446 96.2917 L284.2176 95.6116 L284.1928 95.3877 L284.2736 95.0448 L284.3648 94.7959 L284.5586 94.5093 L284.9438 94.0615 L287.3322 92.2096 L287.7815 91.7374 L287.9035 91.4843 L287.9509 91.2339 L287.9315 90.9467 L287.852 90.7979 L286.7718 90.1706 L286.5717 89.9543 L286.4999 89.761 L285.7223 86.7338 L285.6966 86.3902 L285.9788 85.7164 L286.0068 85.4618 L285.8397 84.9208 L285.6352 84.3832 L285.0445 83.2545 L284.6746 82.9186 L284.3567 82.7148 L284.0329 82.5688 L283.8022 82.5257 L283.3583 82.6509 L282.9929 82.9756 L282.2988 83.8964 L282.1909 83.9965 L282.0473 84.0571 L281.6255 84.048 L281.425 83.9381 L280.7237 83.388 L280.4044 83.2879 L280.1935 83.4701 L279.9248 84.66 L279.373 85.6732 L279.214 85.8798 L279.0144 85.8895 L278.8112 85.868 L278.6062 85.6649 L278.519 85.2782 L278.4436 84.2107 L278.3479 83.3533 L277.8575 80.4254 L277.8254 80.0263 L277.8945 79.5777 L278.0029 79.3141 L278.2093 79.0269 L278.7205 78.4907 L278.9395 78.2084 L279.1364 77.9469 L279.2511 77.6826 L279.2709 77.4663 L279.1282 76.9225 L279.7659 76.8154 L280.4338 76.581 L282.0184 75.9426 L282.474 75.8097 L283.2815 76.6311 L284.5735 78.2543 L285.2581 79.0457 L285.7946 79.7467 L286.7732 81.1918 L288.2227 84.2685 L288.3776 84.5536 L288.4932 84.6913 L288.5903 84.7184 L288.6974 84.7191 L288.9868 84.6739 L291.8761 84.1349 L292.2703 84.128 L292.418 84.1558 L292.6018 84.3582 L292.702 84.603 L293.2101 86.4139 L293.4002 87.1601 L293.5104 87.3618 L293.733 87.4438 L294.0667 87.4563 L294.8096 87.2533 L295.7828 86.6406 L296.0623 86.5585 L296.2483 86.5377 L296.3865 86.5982 L296.5486 86.756 L296.6083 86.8937 L296.7225 87.6928 L296.9429 88.3729 L297.203 88.9035 L297.3976 89.1421 L297.8926 90.0218 L298.4562 86.8103 L298.8106 84.3116 L298.1531 81.9693 L297.6645 80.5708 L296.3116 78.7807 L295.0665 77.5511 L293.3112 76.4433 L292.0414 75.4112 L290.7254 74.6302 L290.1397 74.4925 L289.8557 74.2846 L288.9051 73.3937 L288.6522 72.9396 L291.1933 70.2523 L291.7754 70.1007 L292.1574 70.5423 L294.5377 68.394 L294.5246 67.7312 L293.383 67.6422 L292.8854 66.6157 L291.3021 64.9688 L291.0998 64.0035 L290.2075 59.9502 L292.53 58.7164 L290.3511 54.2367 L294.717 52.6551 L296.0957 50.2876 L298.2561 52.5529 L307.3931 44.8786 L307.9526 44.4376 L308.1906 45.0998 L310.0023 50.4253 L310.1626 50.684 L310.2647 51.2015 L310.3049 52.235 L310.248 52.5689 L309.7919 53.1642 L310.7294 53.7491 L310.6666 54.0934 L310.3026 54.1956 L309.637 54.5921 L309.2405 55.4934 L309.0124 56.504 L308.8526 58.3019 L308.6092 58.7414 L307.5389 60.2819 L307.2544 60.9711 L307.4003 61.2695 L307.7042 61.4489 L308.0745 61.2646 L308.3418 60.9955 L309.0702 60.0107 L309.3823 59.6775 L309.8754 59.2289 L310.3275 59.1232 L310.5758 59.2088 L310.7565 59.5913 L310.9841 59.4077 L310.8378 58.7491 L310.4706 57.9868 L310.8499 57.333 L311.2686 56.9568 L312.0327 56.6021 L312.4802 56.3566 L312.7963 56.0582 L312.3682 55.3703 L312.0399 54.9037 L311.7545 54.5956 L311.563 54.7847 L311.204 54.7799 L310.8206 54.6484 L310.668 54.261 L310.8251 54.1087 L310.8242 53.7436 L311.0387 53.4111 L310.8793 53.1684 L310.5293 53.3777 L310.0637 53.135 L310.341 52.4944 L310.3618 51.3983 L310.2489 50.6117 L310.5474 50.3071 L310.1784 48.2407 L309.6352 46.3573 L308.6968 44.921 L307.9544 44.092 L307.776 43.7769 L307.7019 43.4013 L307.8171 42.7406 L308.1842 42.5409 L308.4272 42.6168 L309.1506 42.6884 L309.5101 43.1822 L310.3455 43.3318 L310.8897 43.6545 L311.2952 43.7908 L311.6691 44.848 L311.8719 46.5228 L312.123 46.9964 L312.5384 47.1759 L312.8103 47.139 L313.0989 47.025 L313.5459 47.2621 L314.0774 48.4257 L314.3624 48.3937 L315.3469 45.6186 L315.765 45.4378 L316.1001 45.5804 L316.6203 45.3536 L317.1279 45.4308 L317.482 46.0415 L317.3916 46.2759 L316.903 47.5417 L316.0789 48.761 L314.469 50.6973 L313.9347 51.3051 L312.9512 52.1641 L311.8412 53.0126 L311.6664 53.2463 L311.7653 53.6253 L312.0295 54.1936 L312.3908 55.1047 L312.4662 55.2424 L312.6694 55.4809 L313.0293 55.739 L313.0718 55.7696 L313.2858 55.6075 L313.3955 55.0692 L313.8494 54.7743 L314.2865 54.7096 L314.5615 54.727 L314.7042 54.8814 L314.7616 54.944 L315.299 55.3745 L315.8431 55.6054 L316.4144 55.5261 L316.7612 55.4302 L317.0119 55.2605 L317.2376 55.056 L317.4702 54.9197 L317.5379 54.88 L317.8297 54.7694 L318.293 54.6477 L318.8299 55.1061 L318.937 55.4114 L318.5748 56.5263 L318.8837 57.292 L319.105 57.9159 L319.2468 58.1669 L319.4134 58.3005 L320.0501 58.5724 L320.5541 59.0113 L320.7876 59.4042 L321.0531 59.7805 L321.0865 59.8278 L321.0797 59.8653 L321.021 60.1936 L320.9876 60.2124 L320.2777 60.6171 L318.4479 61.4267 L316.9116 61.8892 L315.4363 62.2182 L314.7715 62.6709 L314.5841 63.2962 L314.5882 64.1196 L314.8077 66.0836 L314.7639 67.0955 L314.8226 68.2403 L315.4399 69.8927 L315.9186 70.5214 L317.0417 71.5904 L318.0839 72.3797 L319.7358 72.8582 L321.9811 73.5085 L322.3135 73.843 L322.5664 74.3903 L322.6066 75.5399 L322.0827 76.4287 L321.7716 77.0358 L321.1055 79.5944 L320.7903 80.8059 L320.6087 81.8942 L320.6385 82.671 L320.6688 83.4506 L320.6674 84.4576 L320.7018 85.1016 L320.69 86.0182 L320.6205 86.7505 L320.5338 87.3319 L320.4055 87.8799 L320.0704 89.9376 L320.1246 91.099 L320.6688 91.0455 L321.2206 87.8388 L321.3295 87.2373 L321.0919 83.3477 L322.257 78.2118 L323.4415 76.0594 L327.0755 73.9988 L330.3174 74.8117 L332.7695 75.8271 L335.8651 80.2871 L339.1224 81.3504 L340.5034 81.0924 L341.9932 80.4442 L342.6538 79.4769 L342.1381 78.1353 L342.1445 77.5748 L342.5455 75.083 L342.6584 73.2922 L342.1413 72.0376 L341.8026 71.308 L341.9945 71.171 L341.8279 70.9888 L341.3388 71.2593 L340.9473 71.2336 L338.8063 70.1375 L336.4463 66.857 L335.3639 64.0514 L334.8364 63.5444 L334.9123 63.1821 L335.6281 63.18 L335.3187 62.5944 L334.915 61.9434 L334.6748 60.992 L334.6675 60.9642 L334.747 60.6658 L335.5508 60.629 L336.8866 60.3814 L337.8715 60.3424 L338.2482 60.323 L339.1541 60.5413 L341.8807 60.9642 L343.427 60.1533 L343.8311 59.8034 L344.3383 59.7339 L344.5903 60.0267 L344.9904 60.5163 L345.1019 60.7868 L344.9475 61.2577 L344.6643 61.4698 L344.6774 61.5053 L345.3178 61.1172 L345.1236 61.5901 L345.1281 62.6994 L345.6289 64.0271 L345.8434 64.3352 L345.9342 64.4075 L346.5736 64.2114 L346.7416 64.2344 L346.9051 64.5897 L346.9326 64.8359 L346.911 64.9806 L346.7561 65.9904 L346.4625 67.4224 L346.3013 68.065 L345.88 68.7355 L345.6167 68.8913 L346.3663 70.1431 L346.8554 70.0861 L346.9281 69.7822 L347.0735 69.6208 L347.6132 69.6236 L348.9106 69.723 L349.2971 69.7731 L350.4211 69.8816 L350.726 73.9848 L350.9445 74.0349 L351.0059 74.2728 L350.9766 75.2555 L350.9906 76.1895 L352.115 78.6555 L356.1951 84.3658 L357.1877 83.9583 L358.318 85.8756 L360.2734 86.9925 L361.7415 86.6336 L361.7641 86.5321 L361.1639 84.0501 L360.8054 83.3241 L360.1352 81.9672 L359.5861 81.4338 L359.2957 81.1932 L359.4881 80.9512 L359.8254 80.6556 L360.2721 80.2154 L360.7525 80.5826 L361.8201 81.5312 L365.011 84.1697 L366.3888 85.8499 L367.5647 85.3798 L373.8359 84.0007 L375.9371 82.7893 L377.1628 83.8735 L382.4129 82.331 L382.5443 82.1022 L382.7254 82.0382 L383.0311 82.0208 L383.7925 81.6383 L384.3601 82.3463 L384.7074 82.5396 L384.7593 82.5619 L388.2366 81.7461 L389.2513 79.0617 L392.6314 80.2551 L394.4179 78.9886 L398.619 82.5632 L401.3913 83.6314 L400.9022 80.648 L398.7066 77.5393 L395.2958 74.8848 L388.7712 71.0862 L386.3769 69.4796 L379.8881 61.4323 L377.2011 57.3942 L375.8297 55.5303 L374.199 54.4279 L372.5471 52.7991 L369.3277 50.2869 L366.555 48.6935 L361.1499 46.3294 L357.7477 45.8099 L346.0186 45.8266 L343.0436 45.0859 L338.418 42.662 L331.324 38.6481 L323.4727 34.2989 L318.4316 32.5871 L311.5255 31.1995 L305.5777 29.6095 L303.6765 29.0106 L302.0052 28.1871 L300.1762 26.8669 L298.6377 25.5224 L296.7121 24.6745 L293.696 23.0754 L292.8967 22.1183 L290.3407 16.8619 L290.123 15.4081 L290.268 13.7492 L290.0029 12.927 L289.4334 12.3789 L286.7131 10.3332 L283.2968 7.9292 L282.717 7.966 L282.2532 8.4717 L277.6136 7.6287 L276.6856 6.7849 L275.8 7.3755 L276.6012 11.8461 L271.2869 7.6704 L266.0146 5.0974 L264.4959 7.4172 L262.5979 8.3451 L262.7248 11.7619 L262.5559 16.697 L260.405 15.6001 L259.6454 19.2693 L259.3925 14.9254 L259.519 11.0447 L260.2361 7.7129 L260.2781 5.3089 L259.9832 2.989 L261.4138 2.4395 L261.0846 0.0 L260.2388 0.3408 L259.1311 0.3708 L257.4083 0.6782 L256.5737 1.1874 L255.9795 1.2041 L254.9458 1.106 L251.9694 0.3735 L246.8606 0.5941 L245.5401 1.4914 L244.1641 1.9178 L241.3404 2.2719 L240.4575 1.529 L237.8139 3.0982 L237.0571 3.9093 L236.8891 4.3385 L230.0981 7.0799 L226.1824 7.8833 L220.4531 8.6213 L216.9023 8.6269 L213.3194 8.3737 L217.6619 10.2657 L218.0773 14.7988 L216.3482 19.6915 L213.8595 30.6153 L211.6156 27.3072 L210.7016 30.2821 L208.5321 32.4842 L209.3915 35.434 L209.364 37.145 L208.79 38.2579 L208.1406 40.3041 L210.6121 43.0584 L217.8244 39.642 L224.4885 42.1299 L224.2776 44.197 L228.3902 45.4635 L229.6077 46.0012 L230.0805 47.9243 L229.3151 49.1052 L227.1777 50.4163 L225.3072 50.3565 L223.7 49.9579 L221.5947 51.9033 L221.3437 53.5718 L222.3155 58.3269 L225.4572 60.3988 L226.14 61.1374 L226.3179 64.5181 L228.8427 63.2099 L232.3163 65.247 L246.5332 67.645 L251.7138 70.5924 L251.3593 71.936 L246.3476 70.3594 L244.5222 70.5333 L237.925 69.2814 L231.5016 67.3995 L230.3131 67.6999 L232.0833 73.537 L230.2273 75.4592 L232.2504 81.6529 L233.9944 82.9715 L231.9347 86.8005 L225.8631 83.8839 L222.898 87.2999 L224.1399 93.2945 L221.769 98.072 L217.5422 97.5295 L219.8498 93.2319 L218.2196 86.1872 L211.5813 83.1759 L208.5285 86.8061 L205.7919 88.0231 L204.7623 87.3486 L204.2701 87.2373 L202.0166 90.0746 L200.3918 92.0559 L196.1564 95.5928 L194.341 95.9537 L196.8622 98.9774 L195.1155 101.1943 L200.05 104.4898 L206.9389 99.4628 L211.7754 96.9593 L214.4895 97.8425 L212.7147 106.4585 L214.3043 109.1219 L212.9631 109.9563 L216.2823 110.5961 L213.8753 115.0117 L209.1246 111.354 L205.2861 111.8478 L207.7337 119.0449 L209.5491 119.7194 L208.0408 121.6108 L212.0012 122.0697 L214.8733 123.5995 L217.479 120.7833 L219.1453 121.889 L218.4544 123.384 L218.6757 124.1002 L219.6105 124.5313 L221.5387 124.8373 L224.4786 127.6813 L213.1889 141.5671 L210.9779 137.7651 L210.17 136.7478 L210.1998 135.611 L210.2897 134.8927 L212.2049 134.803 L214.6701 137.7081 L216.6435 134.8155 L211.9954 134.3538 L211.6806 131.9716 L213.1921 129.8654 L210.9481 129.0873 L209.1526 129.1172 L206.3099 132.1398 L203.6767 131.4215 L203.1081 135.401 L203.8862 138.7525 L205.9211 143.3611 L207.806 146.054 L207.6886 150.0082 L209.3053 151.5866 L210.2671 153.596 L209.6891 157.0586 L207.5983 158.0528 L210.2536 161.2442 L210.7729 160.9661 L211.0168 164.1296 L214.2321 161.6544 L213.9972 163.8793 L218.4996 165.6105 L221.3852 164.1852 L227.5042 157.4688 L230.9137 162.8642 L224.1579 169.4415 L221.1504 168.0301 L217.6732 172.1252 L217.2532 174.2109 L220.9788 175.5319 L218.066 178.5146 L223.1464 183.2978 L219.4795 188.811 L215.221 185.5365 L213.5276 187.7751 L217.4022 193.608 L225.4404 205.5655 L230.575 205.9062 L232.6071 209.2987 L228.0597 213.9772 L230.9995 218.6001 L232.7426 221.8048 L230.9317 223.64 L232.3994 225.6073 L233.6097 230.369 L237.7191 235.8259 L231.6136 244.7721 L226.1269 237.3412 L224.3386 239.6699 L226.6101 243.4931 L225.1695 244.7512 L222.8574 246.6836 L223.4173 248.7759 L229.4406 259.342 L228.2733 261.1374 L230.4576 262.5741 L231.3856 264.0101 L230.3853 266.5005 L230.6974 268.4092 L230.575 269.6909 L231.4452 271.5509 L230.6671 272.8075 L231.0862 273.8849 L230.9367 276.4579 L234.1064 281.5971 L234.9734 282.9663 L230.9046 286.0314 L226.9036 283.8698 L228.8815 287.4284 L230.9679 289.3675 L232.0435 289.9833 L237.2503 286.1231 L238.4172 280.5274 L239.7151 280.1444 L240.7813 271.79 L240.3026 268.8276 L239.4938 266.9871 L234.8199 259.7444 L233.849 255.3098 L233.061 255.1833 L235.3352 252.3105 L241.7924 251.9386 L245.7185 251.6223 L250.5577 253.6555 L246.6018 257.965 L246.9753 259.3719 L245.868 259.342 L247.7832 262.7235 L249.0101 265.7756 L248.4714 267.0024 L252.9647 267.71 L255.6922 268.5718 L255.0736 276.2452 L253.484 277.5589 L252.1518 278.1337 L250.797 276.9264 L249.9377 275.022 L249.5787 274.2741 L245.2696 271.1915 L244.6713 268.9173 L244.3421 267.5411 L243.5938 266.7633 L243.2948 264.938 L243.9831 263.3818 L242.8162 258.8033 L240.7813 259.4622 L239.3448 261.0477 L237.31 257.6369 L237.6992 259.5519 L238.8065 262.3044 L241.6488 264.3396 L243.5342 267.1817 L244.1027 268.7678 L240.8576 277.0306 L242.2711 281.3677 L243.6538 290.5817 L246.5562 293.5744 L243.0568 296.5053 L243.5581 300.3417 L248.2636 305.5472 L246.5562 294.2326 L247.7533 293.5744 L251.254 299.1998 L251.3164 308.1325 L252.3595 315.2143 L252.7804 315.837 L252.4724 318.1748 L250.7456 317.5424 L247.2837 312.9904 L246.9455 314.6097 L246.4067 315.2087 L248.6385 316.4166 L245.7754 316.3054 L246.6163 318.1109 L245.8982 318.1408 L245.3599 317.5772 L239.8822 316.3332 L242.4269 312.6651 L241.0504 311.6477 L235.4846 314.4603 L235.5379 320.5377 L233.3902 318.6794 L226.2086 313.6228 L225.7299 315.8968 L225.7001 317.2728 L228.6923 319.3076 L230.8766 320.4752 L234.6768 323.018 L229.9202 326.2016 L240.5099 328.9744 L248.7107 335.2774 L249.921 336.2156 L249.6139 334.0821 L254.5091 334.5547 L262.9086 331.6499 L271.2178 334.7701 L263.1163 341.08 L266.8916 343.1508 L266.6116 345.854 L259.8017 347.0632 L251.8718 351.1283 L249.1939 350.3848 L249.7448 352.4973 L248.2411 351.2881 L230.9137 357.1391 L232.5439 358.4038 L233.2664 372.8361 L234.0974 377.3109 L239.3809 378.5477 L240.9895 384.3176 L241.3047 385.4544 L241.8041 387.3846 L243.7252 387.511 L243.6931 388.2142 L243.214 389.3002 L244.4279 389.9867 L247.9096 388.9326 L250.5929 386.9204 L250.3215 386.1054 L248.8521 384.0453 L248.4664 383.1274 L251.9987 381.202 L252.957 381.3458 L253.4998 383.8055 L254.0327 384.5525 L255.1508 384.326 L257.2051 382.8488 L256.8397 381.6794 L253.6235 378.7701 L253.1855 373.3788 L252.4164 368.7796 L256.8528 361.4404 L256.2942 360.8421 L255.9767 359.8769 L255.3084 357.7992 L258.8985 354.4569 L261.4951 354.6445 L263.8344 359.3627 L263.4866 362.7815 L265.004 363.8863 L265.004 361.9129 L266.4174 361.7461 L266.86 360.1618 L267.3658 358.515 L265.0898 358.0494 L262.0912 354.1233 L267.1535 351.5175 L266.142 351.031 L267.0406 348.1403 L276.3 344.8923 L280.9978 342.5581 L283.7209 343.6053 L282.6136 346.8971 L277.018 352.0136 L282.1914 358.5984 L284.0203 363.261 L284.1395 363.9829 L282.6158 368.9588 L280.1231 373.5727 L276.1852 375.6016 L277.12 375.7128 L281.1518 375.5974 L284.088 375.0527 L287.521 371.6729 L288.4783 371.1942 L292.5959 369.48 L295.2711 371.9425 L296.3938 374.5246 L295.9593 375.9219 L294.0455 377.165 L295.5132 379.4927 L295.9891 381.2784 L292.7273 383.702 L290.6315 384.565 L290.4283 383.6756 L289.0767 382.9544 L288.957 384.3906 L289.3463 385.2883 L290.0535 385.1208 L295.9593 386.0061 L300.2679 387.9516 L304.6668 390.3751 L307.0331 389.5955 L313.6435 387.8015 L314.9901 385.6468 L316.6361 385.9164 L317.4332 386.8996 L316.0784 384.294 L318.4086 382.8349 L320.075 384.836 L324.5863 398.1486 L325.2538 399.2922 L324.715 400.3691 L321.8425 400.9375 L315.1147 396.2024 L317.2796 393.5073 L313.4041 392.1406 L313.1296 391.1449 L306.6854 393.6601 L306.0731 395.0727 L304.7481 395.4597 L302.9011 396.479 L301.7342 395.9704 L300.3876 396.5095 L298.2633 393.8762 L296.797 394.2952 L296.6173 396.8979 L300.0286 397.1675 L301.7943 397.9158 L303.35 399.6208 L304.4275 403.1823 L307.8388 405.2764 L307.0106 407.285 L309.9233 420.5273 L308.7717 421.6875 L301.8241 418.4131 L300.7769 416.5276 L299.5594 414.0382 L298.0836 410.094 L292.7449 410.5574 L293.2959 414.7622 L293.0565 416.0787 L290.9883 416.6019 L290.0047 416.7673 L289.3463 417.2758 L290.4834 418.9814 L292.0093 426.4021 L293.8644 428.9156 L293.2959 430.6212 L291.8896 431.4292 L290.0941 430.3822 L287.9401 427.0009 L286.504 427.2177 L283.0923 424.4276 L280.3986 420.2424 L279.322 413.5352 L280.5191 413.1163 L282.0328 411.7149 L282.6023 410.3559 L281.9254 409.5688 L282.223 405.3049 L280.5069 405.0409 L279.1124 404.1099 L278.2747 403.8702 L277.2573 403.5707 L276.0606 403.0323 L270.3151 398.0652 L269.8066 397.2273 L269.238 395.7911 L269.9308 394.7093 L274.4444 391.9009 L276.7488 387.2929 L277.3472 383.6423 L276.9755 380.3891 L272.1706 379.0411 L270.824 376.9399 L269.4173 378.0169 L266.874 378.6749 L265.288 378.0766 L261.9666 373.8277 L260.9532 371.1059 L261.5855 367.5622 L260.1494 366.7422 L260.032 367.3468 L260.5062 370.4111 L262.2583 377.3735 L261.5999 381.2444 L261.6035 382.4284 L262.5943 382.7814 L264.4666 382.9912 L265.2898 383.1906 L268.3773 388.4629 L268.5534 393.7991 L268.7892 398.6634 L271.3713 401.6434 L275.5517 404.5587 L276.5646 405.9997 L277.2573 407.3114 L277.4407 411.3981 L278.9928 413.6547 L276.8446 415.0178 L275.4266 418.1234 L275.842 422.3267 L277.8823 429.5173 L281.9927 434.4915 L286.1743 437.8123 L285.1176 439.8478 L286.3821 441.3206 L281.3198 445.204 L279.685 446.4753 L286.4905 452.3316 L285.6821 453.0818 L284.8783 453.8251 L287.082 455.409 L285.5421 460.5288 L285.8447 466.1139 L280.0102 462.1265 L275.9188 458.8338 L274.415 460.758 L275.9143 462.3974 L274.4783 464.0091 L269.8224 458.0557 L264.8007 455.673 L264.3492 453.1582 L266.0155 447.8022 L264.3577 446.8532 L261.3624 445.5583 L258.3769 444.4183 L257.3708 444.8983 L259.8934 446.2051 L260.419 447.0311 L260.284 447.4965 L259.5781 447.6764 L257.3261 446.881 L253.7071 444.9435 L251.7269 444.1585 L251.5218 444.9678 L251.9956 445.8299 L253.4971 447.5264 L253.572 448.367 L250.919 449.789 L246.2676 451.3243 L249.6365 458.7365 L254.1704 461.9667 L253.6646 465.0511 L249.8803 465.0511 L243.9329 460.5218 L239.8957 461.3138 L246.7689 467.7602 L239.9228 467.8436 L236.7211 468.8786 L229.1615 465.3637 L228.4254 470.1082 L224.3702 468.184 L222.7851 469.087 L217.4022 468.1631 L213.4147 466.4543 L212.9992 471.5252 L216.4313 472.3449 L220.5227 476.7212 L220.0711 479.6386 L214.5572 480.7292 L210.3845 477.7353 L206.7267 469.2468 L202.6895 465.0511 L205.1732 463.5089 L207.657 462.3696 L206.7583 459.5354 L202.8295 460.7094 L203.6198 459.5007 L200.9148 453.978 L199.9664 451.5813 L200.7477 449.3583 L200.3255 447.4083 L199.607 445.8223 L200.2013 444.815 L206.5492 445.6729 L212.8629 446.0015 L213.2819 444.5656 L213.4147 443.766 L214.5387 443.2192 L217.5011 445.1637 L217.8005 448.6052 L217.3661 448.9623 L212.9527 451.3882 L211.6363 454.8887 L210.4993 455.0985 L209.6914 454.7393 L207.4312 455.2006 L227.5268 459.98 L228.9267 460.5149 L231.3878 459.1186 L236.9726 457.6153 L237.4179 454.1232 L237.9986 453.798 L238.3062 453.1159 L240.4977 454.0169 L239.5006 456.6629 L239.7716 457.9717 L239.5625 459.1637 L239.9752 459.4215 L241.3002 457.4722 L241.7653 457.3124 L242.9801 457.6111 L246.8728 461.1331 L249.6907 459.7994 L246.3173 457.8334 L244.6148 456.0551 L243.4859 457.4236 L241.9279 457.0624 L241.2776 455.2909 L243.7613 452.4566 L238.7848 447.6841 L241.8538 444.8761 L243.2831 444.239 L243.5775 443.6228 L243.0817 442.9462 L240.7154 442.6176 L238.0262 443.9813 L232.6704 453.5889 L225.79 451.1485 L221.7501 447.857 L221.3613 446.2412 L220.2242 445.9716 L219.3865 444.3558 L217.2017 441.9924 L215.5733 440.5495 L210.2897 440.7058 L209.1526 438.6411 L207.7021 426.6688 L206.579 423.6794 L202.3603 416.6471 L193.2333 411.8706 L184.9647 413.3574 L183.1494 414.3731 L180.0673 414.4627 L179.7683 413.1461 L177.7122 414.1355 L173.1851 413.595 L166.6917 414.3432 L161.9248 416.6436 L160.8319 418.2068 L163.415 419.4226 L164.2084 418.862 L166.4226 417.5454 L167.1812 418.6723 L167.2905 418.8015 L167.6793 419.5796 L167.7999 420.173 L168.0384 420.3876 L168.3974 421.2554 L168.7266 421.6444 L170.1333 423.6794 L175.7253 427.8568 L177.1053 430.831 L178.302 431.7883 L179.9205 430.8372 L180.8756 430.3822 L179.2896 427.8686 L177.7037 429.2748 L176.9554 428.6468 L176.0143 427.1204 L176.791 425.8074 L177.584 424.6965 L179.4391 424.6068 L180.0673 426.3124 L179.3651 427.565 L187.7736 437.3607 L186.8614 439.3268 L188.1258 438.4375 L189.1342 438.4014 L188.2432 439.5352 L190.736 440.0284 L191.0192 441.3935 L185.2357 444.9331 L182.5212 445.8521 L183.7179 450.7296 L181.115 459.0484 L188.9251 478.944 L180.6972 487.2587 L171.4352 474.8248 L169.9133 475.1791 L167.8677 472.72 L164.991 476.5822 L159.4049 468.5869 L158.2082 469.3649 L152.1524 463.1963 L150.9738 464.3842 L145.9025 454.8811 L141.4137 452.5191 L138.6094 454.9783 L140.9621 460.5844 L142.521 461.9549 L144.5396 462.826 L145.4816 463.5874 L145.664 463.818 L145.6437 464.3043 L145.4911 464.5662 L147.623 466.4404 L142.8543 468.5799 L138.1307 467.2531 L138.79 465.8638 L136.7578 465.0997 L132.5762 462.9323 L128.128 466.1208 L126.3894 464.8774 L126.6622 464.5877 L126.5705 464.4773 L126.5597 464.1584 L126.6378 463.9042 L126.8293 463.6562 L127.8074 462.7093 L128.1073 462.3676 L128.7435 461.8438 L126.3262 459.584 L128.9666 457.5431 L128.9156 457.3416 L128.9716 457.0589 L129.2001 456.9707 L129.4254 457.1888 L130.7815 456.1405 L130.8606 456.0148 L127.839 453.4917 L126.3849 454.9436 L123.8334 456.1106 L123.6618 452.5539 L128.0648 450.7963 L132.3549 449.9696 L130.7743 449.5875 L124.0005 450.8797 L125.8024 449.1221 L123.7702 448.8998 L123.6302 446.9685 L125.0301 446.2183 L123.8605 445.0859 L121.0381 444.4676 L124.3573 442.4738 L119.9137 437.986 L115.3978 439.695 L115.032 436.3325 L114.0024 436.6382 L112.1915 435.874 L115.4791 431.9697 L108.9582 422.8269 L109.4459 420.8538 L106.5648 415.8238 L105.8151 413.4685 L98.2601 412.8293 L99.1073 412.2784 L100.7275 412.0637 L102.1284 412.2416 L101.4212 411.5579 L100.0664 411.3008 L98.7699 411.4975 L97.785 411.8303 L97.4382 412.4611 L97.3854 412.8571 M159.3778 485.6749 L162.8325 482.4936 L162.9138 482.431 L164.2866 483.7369 L167.2896 485.3207 L166.531 486.182 L171.1371 491.4472 L169.9043 493.4615 L167.1271 491.5166 L164.3859 493.8713 L159.3778 485.6749 M186.7033 459.2923 L186.8302 458.9581 L187.9371 457.5521 L187.3089 454.4997 L188.2365 451.1485 L190.027 450.4142 L191.6482 452.9151 L194.9267 451.1575 L195.8028 450.1363 L196.9995 450.1294 L197.8756 450.9144 L199.7181 450.5393 L198.9955 451.5188 L196.706 454.6657 L198.5123 457.0832 L196.7828 458.9797 L199.5103 461.0567 L200.4496 464.8774 L199.3116 466.2181 L202.4592 469.3927 L198.156 468.8626 L196.869 470.0901 L192.8296 474.6081 L190.7351 475.4757 L187.653 473.1716 L188.4907 471.1967 L189.5935 471.0946 L191.3953 468.3924 L189.8328 467.3643 L188.8755 466.4959 L189.8193 465.7249 L187.7876 460.3947 L186.7033 459.2923 M188.6677 430.7956 L193.9071 427.5991 L195.5544 425.5017 L195.8705 425.1057 L198.0364 427.2399 L199.2931 430.1724 L199.3071 432.7478 L196.0313 435.2293 L193.129 436.3068 L188.6677 430.7956 M194.206 485.4103 L194.5054 482.4178 L196.2707 478.5279 L194.5054 473.6807 L196.4802 472.3935 L196.8094 472.0351 L197.9763 472.3338 L199.7587 475.7695 L199.5325 476.1342 L201.4775 476.6128 L202.0257 477.0546 L203.0034 476.4037 L203.632 475.9251 L205.8461 474.2788 L208.3596 473.9197 L208.3614 475.1235 L208.8085 476.4037 L209.1675 477.2116 L209.9104 480.625 L208.8686 481.5503 L206.4146 480.4132 L205.1877 481.3106 L204.1405 484.4531 L205.0983 484.9018 L205.6339 488.3631 L205.1877 490.3177 L204.1405 491.9035 L201.9561 492.5023 L198.455 490.7963 L194.206 485.4103 M199.0181 427.8082 L199.8716 425.5781 L200.3819 425.5017 L201.8514 427.0308 L202.9605 428.6349 L203.1727 433.7273 L204.3053 437.3843 L203.7065 438.3417 L201.0435 439.4789 L200.3255 436.7257 L200.5445 434.8041 L199.0181 427.8082 M204.634 138.5731 L205.2048 137.8124 L208.2124 135.2744 L208.6369 135.2744 L208.8532 141.6554 L208.4644 143.2408 L208.7498 145.148 L208.5841 145.9942 L206.1306 143.5405 L204.634 138.5731 M206.4603 92.9885 L211.78 86.1037 L213.0986 88.35 L214.4172 90.7701 L209.8788 95.332 L206.4603 92.9885 M218.5072 10.7881 L218.5497 10.4166 L219.4831 10.7157 L220.0363 10.8041 L220.6708 10.7797 L221.3997 10.6295 L221.7641 10.5307 L221.8016 10.9974 L221.8034 11.517 L221.8002 11.8238 L221.7361 12.1737 L221.6729 12.4902 L221.5035 12.8581 L221.1748 13.2706 L220.1749 14.1345 L219.7423 14.4455 L219.4908 14.5512 L219.2095 14.595 L219.1191 14.5505 L219.06 14.4441 L218.9909 14.2403 L218.6319 11.9782 L218.5443 11.444 L218.5072 10.7881 M219.2953 26.5449 L219.671 26.0872 L220.8618 25.5127 L221.7451 25.4445 L222.3602 25.2748 L222.6645 24.7997 L223.7443 23.9609 L224.778 23.2145 L225.7904 22.0557 L226.0578 20.465 L226.0501 18.7253 L225.8378 17.9407 L225.8961 17.7328 L226.0158 17.5679 L226.2813 17.4142 L226.5405 17.2639 L226.9456 17.0734 L227.3394 16.8341 L227.5733 16.3986 L227.2084 15.5521 L225.9679 13.6087 L224.5061 11.652 L224.1019 10.1175 L224.181 9.7565 L226.3251 8.6714 L226.9564 8.4238 L228.5636 7.7581 L229.0956 7.6857 L229.8886 7.6982 L230.164 7.861 L230.2806 8.0412 L230.7597 12.607 L232.2413 21.5389 L233.0375 29.2144 L232.9661 30.0338 L232.0855 30.4101 L231.2966 30.65 L230.393 30.7078 L228.4042 30.8246 L227.9775 31.219 L227.6505 31.8283 L225.8722 33.1554 L223.0814 35.2239 L222.8217 35.2232 L222.702 35.2052 L222.5345 35.1801 L222.245 35.0048 L221.9664 34.8164 L221.5265 33.7452 L221.6905 33.0219 L221.1964 31.8631 L220.701 30.0185 L220.0526 28.3728 L219.5802 27.463 L219.3657 27.0026 L219.302 26.7709 L219.2953 26.5449 M229.9306 44.7381 L231.4723 43.0918 L232.3655 42.1035 L233.075 40.8724 L234.1041 41.1527 L235.2972 41.4156 L235.5912 41.5116 L235.906 41.698 L236.0563 41.851 L238.517 44.357 L239.2391 44.9029 L239.9838 45.4058 L240.8603 45.9386 L241.4935 46.2237 L242.8672 46.6675 L243.2781 46.8038 L243.6891 47.4492 L243.7672 47.8116 L243.7396 48.3499 L243.54 48.9766 L243.3806 49.4036 L243.2614 49.9649 L244.1434 50.9956 L245.5595 52.1648 L246.3051 52.8255 L246.4528 54.1428 L245.9511 53.9223 L245.2516 53.391 L244.0806 53.0189 L238.7306 51.0854 L236.1259 49.7361 L233.4087 47.8895 L232.1257 46.8003 L230.2553 45.0434 L229.9306 44.7381 M230.8934 8.27 L230.9755 7.8833 L231.1178 7.788 L231.4267 7.5431 L232.5186 7.0924 L232.9463 6.8183 L233.4584 6.6284 L235.5885 5.9224 L236.8186 5.6393 L238.2894 5.4362 L239.1646 5.3499 L239.8537 5.3353 L240.4792 5.3722 L241.8078 5.5808 L243.484 5.8076 L244.5986 5.8966 L246.423 5.7666 L247.4043 5.7318 L248.1386 5.7874 L249.0471 5.8862 L249.459 5.9349 L248.0505 11.6423 L246.9328 19.4995 L242.9069 19.0926 L240.9195 19.2025 L240.4092 19.2616 L240.1938 19.4021 L240.9868 24.5069 L240.3008 24.5257 L239.4952 24.6606 L239.3832 24.6794 L238.2777 24.7851 L235.6499 24.6342 L234.6975 24.2002 L234.343 23.739 L233.5442 22.6998 L233.2547 22.3548 L233.1585 22.0571 L233.0095 21.6773 L232.8505 21.2106 L232.6681 20.2556 L231.7094 14.2709 L230.8934 8.27 M233.1716 161.5571 L234.3186 159.7841 L234.6618 159.6381 L237.0056 162.3984 L237.0507 166.9594 L233.1716 161.5571 M235.9042 123.7567 L236.0293 123.4716 L237.0435 122.5016 L239.6559 120.1693 L241.6899 122.8659 L241.852 123.8102 L242.3908 128.5129 L243.0478 131.635 L243.3481 133.4763 L243.5369 134.8829 L243.6105 135.6548 L243.6787 136.2639 L243.5608 136.6108 L243.3761 136.7005 L243.0727 136.6783 L242.5177 136.0358 L241.9938 135.5602 L241.4862 135.2271 L240.9529 134.9476 L239.9305 134.2759 L239.3525 134.1021 L239.2567 133.5389 L239.0431 132.1238 L238.5211 130.4675 L236.4005 125.2733 L235.9168 124.0383 L235.9042 123.7567 M236.1557 80.6063 L236.246 79.6208 L236.3932 78.6917 L236.5824 78.1416 L236.8191 77.901 L237.0891 77.789 L237.3705 77.7827 L237.6848 77.8412 L238.0167 77.9489 L238.2452 77.917 L238.3062 77.5637 L238.2217 77.2584 L238.1418 77.0476 L238.1793 76.6533 L238.2127 76.3911 L238.5622 76.0371 L238.9813 75.9147 L240.3216 76.846 L242.4838 77.8864 L246.8868 80.2224 L248.8805 81.0493 L249.4283 81.3462 L253.5748 83.4659 L253.7924 83.9506 L253.8425 84.5119 L253.8976 85.1155 L253.9089 85.6114 L253.7965 86.0648 L248.2736 82.6905 L247.6441 82.3901 L247.0705 82.146 L246.5454 82.1049 L246.0147 82.4666 L245.2845 82.9513 L244.66 83.4242 L244.2134 83.8338 L244.1136 84.4868 L244.2147 85.5578 L244.2554 86.2011 L244.2183 86.5453 L244.1673 86.8715 L244.0987 87.1566 L244.0431 87.3889 L244.0386 87.7422 L244.1027 88.1441 L244.1343 88.3729 L244.2097 88.6539 L244.2075 88.9126 L244.17 89.1365 L244.0508 89.3639 L243.8543 89.7387 L243.5572 90.1122 L243.2691 90.3396 L243.0266 90.3605 L242.7168 90.2819 L242.3853 90.124 L241.941 89.8535 L241.4429 89.6643 L240.9737 89.3959 L239.9693 88.7227 L239.2382 88.1879 L238.6146 87.7171 L238.0799 87.3117 L236.6344 86.0022 L236.3964 85.6698 L236.3214 85.2817 L236.4154 84.8874 L236.4045 84.3978 L236.3991 83.7879 L236.3788 82.9916 L236.2975 81.9874 L236.1905 81.4206 L236.1557 80.6063 M237.6053 3.5302 L237.6839 3.389 L237.8315 3.3097 L237.9923 3.2854 L238.336 3.4982 L238.7857 3.4224 L239.0039 3.2972 L239.5724 2.8242 L240.1102 2.8645 L240.6097 2.8395 L241.432 2.8416 L241.8141 2.9995 L242.0656 3.1163 L242.2101 3.1755 L242.4806 3.4029 L242.7547 4.2849 L243.5008 4.3329 L244.5033 4.3712 L245.5907 4.4442 L246.3602 4.4206 L246.8714 4.4449 L247.4585 4.6995 L247.8084 4.7983 L248.1616 4.8157 L248.4745 4.7489 L248.7229 4.5569 L248.8448 4.1347 L249.5019 3.8905 L250.0862 3.6172 L250.3947 3.4572 L250.4421 3.4321 L250.6995 3.3215 L251.0716 3.2798 L251.2933 3.3354 L251.3814 3.3577 L251.7901 3.2687 L251.8533 3.2548 L251.8664 3.2582 L252.164 3.3389 L252.4557 3.6464 L252.5745 4.1486 L252.6612 4.4164 L252.6296 4.6397 L251.2184 5.3214 L250.4692 5.5815 L250.0384 5.6553 L249.2025 5.592 L247.5628 5.4946 L246.2243 5.5057 L245.2692 5.6066 L244.7002 5.6268 L244.1099 5.624 L243.5531 5.5857 L243.1413 5.5502 L242.7967 5.5015 L242.2277 5.4076 L241.5418 5.2776 L240.7113 5.1503 L240.1382 5.0765 L239.4744 5.0884 L239.0851 5.0884 L238.7392 4.9701 L238.163 4.4178 L237.8139 4.0477 L237.6053 3.5302 M240.1988 19.4042 L240.411 19.2658 L240.9177 19.2088 L242.901 19.1003 L246.9369 19.5058 L248.0523 11.6423 L249.4608 5.9342 L250.3753 5.8633 L251.5932 5.4744 L251.4415 5.6866 L251.3733 5.864 L251.432 6.1088 L251.5846 6.2368 L251.8 6.3133 L252.0628 6.4156 L252.3424 6.5039 L252.8518 6.7362 L253.1638 6.9463 L253.5093 7.2851 L253.7974 7.5612 L253.9148 7.5417 L253.8344 7.3303 L253.1001 6.6576 L252.7113 6.4371 L252.4219 6.3189 L252.2037 6.2173 L252.0163 6.1693 L251.8163 6.1227 L251.6564 6.0399 L251.5801 5.8598 L251.6799 5.5774 L251.814 5.3736 L252.0696 5.2442 L252.3672 5.1544 L252.7533 4.9882 L252.882 4.9325 L253.4704 4.6397 L254.4079 4.0999 L255.1083 3.8509 L255.5197 3.8801 L255.8756 3.9789 L256.2192 5.0425 L256.2509 5.0891 L256.4243 5.3457 L256.6957 5.4723 L256.9892 5.5155 L257.1454 5.3402 L257.2764 5.055 L257.2949 4.952 L257.3306 4.7531 L257.868 4.3399 L258.4745 4.3155 L259.0317 4.3601 L259.4336 4.671 L259.6635 4.8491 L259.8356 5.0939 L259.9001 5.672 L259.64 6.3752 L258.8055 6.6013 L258.7346 6.9804 L258.5661 7.2698 L258.2929 7.4075 L257.8617 9.6654 L257.5876 9.9102 L257.2385 9.9874 L257.0014 10.0014 L256.791 9.9116 L256.7277 8.5093 L256.7363 7.9667 L256.6279 7.6141 L256.0892 7.5111 L255.5351 7.3845 L254.9083 7.3922 L254.6504 7.6732 L254.4924 8.2721 L254.5985 10.9404 L254.6125 11.0684 L255.0578 11.7556 L255.2009 12.4763 L255.8449 12.9117 L256.1768 13.4403 L256.3638 13.5509 L256.3818 13.544 L256.7038 15.3595 L256.6559 15.8874 L256.3249 16.183 L255.6525 16.567 L254.8685 17.0198 L254.3135 17.2208 L254.0444 17.3391 L253.9139 17.6312 L254.0692 17.8969 L254.3695 17.9943 L254.4797 18.2016 L254.4996 18.3755 L254.4373 18.6022 L254.2842 18.7956 L253.9189 18.8512 L253.2397 18.8401 L252.8843 18.9173 L252.6607 19.0495 L252.7 19.3472 L253.0911 19.8522 L253.577 20.4351 L254.9286 21.7859 L255.4263 22.2143 L256.0896 24.5674 L253.2776 25.9662 L252.5998 26.3008 L252.0926 26.8175 L251.2107 26.8941 L251.0919 26.9045 L251.0233 26.8579 L250.6778 26.6242 L249.3899 25.8813 L247.3668 25.304 L245.8404 24.9535 L243.9447 24.726 L241.0134 24.6655 L240.9881 24.5048 L240.1988 19.4042 M242.458 94.5838 L242.51 94.4335 L242.8464 94.131 L243.1788 93.7917 L243.7198 93.1331 L243.802 92.8591 L243.8553 92.4947 L243.7848 92.2006 L243.6493 91.7756 L243.2917 90.8779 L244.6889 88.875 L247.9859 94.1164 L248.0564 94.2055 L247.7168 94.5893 L247.5623 94.8904 L247.2408 95.549 L246.5196 97.5184 L246.3313 98.1874 L246.162 99.1443 L246.0987 99.8119 L242.463 94.7402 L242.458 94.5838 M243.0379 128.912 L245.08 128.2097 L246.1579 129.3216 L246.9924 130.1087 L247.3239 130.2666 L247.6852 130.5218 L248.013 130.818 L248.27 131.3179 L248.3942 131.813 L248.1936 133.5535 L247.5235 135.5226 L247.253 136.1151 L247.0168 136.3383 L246.7806 136.5622 L246.6303 136.6776 L246.4437 136.7645 L246.1714 136.6637 L245.872 135.9607 L245.4566 135.611 L244.6744 135.2549 L244.4378 135.1833 L244.305 135.1652 L244.1655 135.0825 L244.0219 134.9671 L243.4326 131.4521 L243.0379 128.912 M244.6898 88.8736 L245.1585 88.2137 L245.2222 88.1664 L245.6738 87.8284 L246.3268 87.6671 L247.0814 87.5697 L247.4129 87.5989 L247.5822 87.6135 L247.7199 87.6107 L247.8527 87.5641 L247.9435 87.4223 L248.1358 86.9535 L248.3603 86.2971 L248.545 85.6739 L248.6127 85.2136 L248.6755 84.7657 L248.7477 84.3484 L248.8146 84.1586 L248.9776 84.0459 L249.1447 83.9708 L249.8808 83.9319 L250.7347 84.3262 L252.2051 85.1301 L254.0661 86.2859 L254.3262 86.5335 L254.4757 86.8061 L254.5357 87.0641 L254.4892 87.3472 L251.9599 89.7826 L250.3053 91.4224 L247.9828 94.1011 L244.6898 88.8736 M245.0529 78.7487 L246.5467 74.9432 L248.0008 71.2809 L248.8466 71.381 L249.7412 71.6391 L250.4895 71.9318 L251.1019 72.2469 L251.5367 72.4312 L251.4013 72.6224 L251.1818 72.6217 L250.9858 72.8325 L250.8765 73.0905 L250.7993 73.5891 L250.3893 74.3347 L250.3739 74.3743 L249.9011 75.4217 L249.2327 76.7931 L247.7813 79.8635 L247.6427 80.1132 L245.0529 78.7487 M246.4785 52.0187 L247.1207 51.5882 L249.0408 49.7924 L250.1702 48.6698 L251.2021 47.443 L251.3805 47.1355 L251.5408 46.6835 L252.0087 46.0025 L252.3586 45.8106 L252.4778 45.2417 L252.7908 44.5044 L252.8816 43.9563 L253.1308 43.7331 L253.2356 43.5807 L253.1864 43.0862 L253.2668 42.8268 L253.4036 42.6891 L253.67 42.5124 L253.988 42.4707 L254.2819 42.5966 L254.4346 42.8171 L254.7846 45.837 L254.7678 46.3392 L254.631 46.9102 L254.3117 47.7031 L253.4808 48.6573 L250.9556 50.1937 L248.3517 51.6223 L247.911 51.7635 L247.4838 51.7565 L246.8931 51.9693 L246.7982 52.267 L246.8046 52.4861 L246.9536 52.5668 L248.4208 51.8038 L248.7943 51.5826 L251.2044 50.3488 L253.5621 48.8924 L254.2246 48.2317 L254.8256 47.1265 L255.0198 46.5798 L255.0334 46.102 L254.6328 42.63 L254.6482 42.3844 L254.9796 42.1939 L255.3965 42.1104 L255.676 42.1584 L255.937 42.3671 L256.1623 42.6411 L257.2543 46.2251 L257.2349 46.7078 L257.0484 47.2976 L256.8415 47.7852 L256.5376 48.2282 L255.9442 48.626 L254.169 49.9663 L253.087 50.851 L253.3684 50.8071 L254.4147 50.3655 L255.4312 49.8181 L256.6157 48.5433 L257.1581 47.8957 L257.4878 47.0347 L257.8183 46.0144 L258.1611 45.4322 L258.1407 45.2514 L257.989 45.0914 L257.434 44.7019 L257.0339 44.2283 L256.8041 43.5884 L256.7223 42.9137 L256.7462 42.2029 L256.7842 41.8871 L257.2561 41.4983 L258.3074 41.6938 L259.5967 47.3372 L259.118 48.2824 L259.9087 48.279 L260.0875 47.8067 L260.7423 46.9151 L260.8268 45.8189 L260.9465 45.0358 L260.6534 42.1994 L260.895 40.6582 L261.0919 40.0252 L261.1528 39.3714 L261.2693 38.6745 L261.8112 37.9657 L262.0027 38.0423 L262.0524 38.3149 L261.8952 39.0438 L261.6658 40.75 L261.6031 41.4246 L262.0117 45.5825 L262.0366 46.8128 L261.8934 47.1884 L261.4947 47.8679 L260.652 48.61 L260.7098 48.9091 L261.8153 48.9919 L262.5126 48.914 L262.383 47.8658 L262.2032 45.7125 L262.051 43.3728 L261.7399 41.1318 L262.028 38.8275 L262.2908 37.6966 L262.4733 37.2445 L263.9956 35.5397 L264.0457 35.4917 L264.0534 35.5599 L264.076 35.7588 L263.6 37.6187 L263.6045 38.0527 L263.3936 40.0398 L263.7296 44.5016 L263.7246 46.0818 L263.7513 46.7148 L263.9278 47.6767 L264.0389 47.9729 L264.2674 49.2534 L264.3677 49.1692 L264.2173 47.8519 L263.9567 44.9537 L263.8732 43.009 L263.6849 41.2403 L263.7707 40.1546 L263.9915 39.8214 L264.5176 39.2977 L265.0758 39.2838 L265.2979 39.7609 L265.5346 40.3994 L266.3876 41.8871 L266.7606 42.5368 L267.1765 43.2622 L268.0197 45.3835 L269.9448 47.3282 L270.2744 47.1126 L270.6967 47.0771 L271.1293 46.6988 L271.5244 46.0255 L271.8884 45.7584 L271.8776 45.4427 L273.0684 43.2448 L274.2768 41.2041 L274.6828 38.8032 L274.4692 35.8235 L274.7605 35.6176 L275.3819 35.6211 L275.9604 35.788 L276.1252 36.1727 L275.9604 36.8752 L276.1685 38.1946 L276.1518 39.7839 L275.7418 41.2347 L274.1463 44.1733 L272.9325 46.2759 L272.2935 47.0931 L272.5649 47.2336 L273.1226 46.6702 L273.7051 45.3467 L274.4633 44.2846 L275.0007 43.3206 L275.4487 42.2078 L275.8678 41.5992 L275.9861 41.024 L276.4851 39.0626 L276.3862 36.3264 L276.4883 35.8263 L276.4052 35.2984 L276.5948 32.7492 L276.9805 32.0161 L277.0618 32.0231 L277.424 31.9938 L277.7554 32.1893 L278.1858 32.2964 L278.552 32.5197 L278.314 34.2717 L278.0625 38.1229 L277.7283 41.9219 L276.4074 44.1059 L275.5932 44.5865 L275.6957 45.0872 L275.0644 46.5103 L273.9472 48.2991 L274.3468 48.4097 L274.8901 47.3073 L275.381 46.568 L276.0191 45.4865 L276.556 45.0219 L277.027 44.9377 L277.4935 45.227 L277.9221 45.1791 L278.2517 44.9398 L279.126 43.4736 L279.5053 43.3999 L279.7758 43.603 L279.751 44.3514 L279.1657 45.7696 L278.6292 46.7934 L278.0928 47.5376 L278.6198 47.4005 L279.2298 46.7572 L279.7573 45.5164 L280.1308 44.8376 L280.4017 43.6566 L280.8533 42.9847 L280.9075 42.4964 L280.9368 41.3745 L280.6704 40.2387 L280.553 38.6355 L280.6135 37.9296 L280.5187 36.526 L280.7201 35.4152 L280.8998 33.4211 L280.8384 31.6252 L280.9188 30.264 L280.809 29.4217 L280.7964 28.8945 L280.5855 28.8096 L280.4825 31.2148 L280.2441 34.07 L280.1831 36.1594 L279.9456 36.6679 L279.5821 36.88 L278.944 36.8585 L278.4825 36.1949 L278.9919 32.1594 L279.4579 30.5061 L279.2357 28.7227 L280.0228 28.2441 L280.1506 26.6131 L280.1398 26.5379 L280.0237 25.7478 L279.5455 24.1153 L278.6094 22.5844 L277.993 21.0416 L277.6294 20.4378 L277.0311 19.8063 L277.0144 19.7882 L276.6969 19.1545 L275.8615 16.4522 L275.3173 15.4227 L275.1809 14.7745 L275.1958 14.7661 L275.5015 14.5915 L276.0281 14.618 L276.854 15.9048 L277.6109 18.685 L278.8713 19.9656 L279.3147 21.4638 L279.5455 22.1316 L279.8535 23.7828 L280.3376 25.464 L281.2304 28.939 L282.0509 34.6494 L282.1317 41.0595 L282.1552 41.6423 L281.9552 44.5232 L281.6522 45.8321 L280.4044 46.4539 L278.9639 47.8436 L278.5985 48.0404 L278.207 47.8665 L277.876 47.9062 L276.9489 49.5246 L274.8382 49.0538 L274.4132 48.7352 L273.8492 48.7005 L273.4753 49.044 L272.0031 51.7899 L271.5782 51.9109 L271.0236 51.7412 L270.5756 51.438 L269.9235 51.3768 L269.3487 51.3559 L268.7458 51.0819 L268.6018 51.3177 L268.8217 51.8671 L269.2308 52.4805 L269.2489 53.0766 L269.0854 53.681 L269.1405 54.1755 L269.5031 54.5865 L271.0439 54.8494 L270.861 55.9949 L270.0545 57.8999 L269.4142 59.6282 L269.2724 60.0107 L268.2902 61.378 L268.035 61.4921 L267.8201 61.4183 L267.6051 61.5651 L267.0239 62.7905 L266.7512 62.9672 L265.6746 62.1117 L265.1164 60.2611 L265.213 59.8354 L265.633 59.2721 L266.3249 58.0967 L266.8519 57.0959 L266.8966 56.8768 L266.8071 56.6417 L266.5764 56.4282 L262.8029 54.7826 L262.8445 54.4822 L263.0274 54.3229 L265.9848 54.4495 L267.3278 54.7326 L268.7539 54.912 L268.9635 54.8793 L269.1437 54.7493 L268.9413 54.3779 L268.7901 54.2847 L268.6148 53.5022 L268.1267 53.2762 L266.3361 53.0502 L263.2726 52.4423 L262.606 52.4687 L261.7024 52.3387 L261.0463 52.1314 L260.8801 51.9547 L260.8173 50.7404 L261.0923 50.3676 L262.6096 49.5622 L264.2385 49.6477 L265.9383 50.9094 L266.4382 51.2439 L267.14 51.5312 L267.8526 51.5854 L266.8911 51.2662 L266.156 50.8969 L264.2557 49.4746 L263.6208 49.2409 L262.6891 49.1866 L261.7422 49.6477 L259.9959 50.6868 L258.4989 51.8928 L258.0179 51.9471 L257.6747 51.9248 L257.7307 51.6842 L257.7763 51.6591 L258.4555 51.287 L258.609 51.0255 L258.964 50.6075 L259.5122 49.8494 L259.6332 49.2986 L259.967 48.6872 L259.1555 48.6198 L258.6976 48.6615 L257.0574 50.6423 L255.8191 51.3253 L254.5181 51.7767 L253.7843 51.8045 L253.4646 51.5047 L252.9841 51.1799 L251.0233 51.5597 L249.636 51.728 L248.2045 52.4812 L247.272 52.9097 L246.6474 53.0961 L246.5106 53.014 L246.5241 52.5404 L246.5268 52.4478 L246.4785 52.0187 M248.0315 79.9678 L248.1097 79.6006 L249.6112 76.4739 L250.177 75.252 L250.4037 74.8111 L250.6065 74.4925 L250.9248 74.142 L251.1953 73.923 L251.3855 73.7129 L251.5092 73.5293 L251.5796 73.32 L251.642 72.8095 L251.7815 72.6551 L251.9576 72.6607 L253.0067 73.1719 L253.3634 73.3332 L253.7342 73.4486 L254.0575 73.4813 L254.5872 73.5036 L254.2436 74.5809 L254.5606 74.1045 L254.8017 73.8506 L254.9462 73.74 L255.1436 73.5982 L255.3116 73.5293 L255.5518 73.4327 L255.8453 73.3617 L256.5575 73.3888 L257.0145 73.4382 L257.5117 73.5078 L258.0175 73.5391 L258.5178 73.4702 L259.3925 73.3214 L259.6883 73.2755 L260.0099 73.2901 L260.3048 73.4014 L260.8101 73.6531 L261.235 73.8061 L261.6862 73.9132 L261.9991 73.9598 L262.3888 74.0224 L262.7492 74.0593 L264.8784 73.7296 L266.0521 73.7303 L266.9819 73.852 L267.4005 73.9494 L268.1177 74.19 L268.4256 74.4195 L268.9188 74.8987 L269.033 75.0246 L272.5942 76.3418 L273.45 76.4788 L273.6518 76.4871 L273.7146 76.5998 L273.7295 76.7305 L273.5868 76.9725 L273.3132 77.3877 L272.918 78.0046 L272.4285 78.7897 L271.9692 79.4518 L271.5578 79.9824 L271.3302 80.3601 L271.3271 80.5555 L271.3659 80.7906 L271.6007 81.4311 L271.5985 81.6327 L271.5407 81.8469 L269.1193 84.322 L268.9535 84.3533 L268.8176 84.3749 L268.6194 84.2267 L268.4405 84.0334 L266.8862 82.534 L266.081 81.6745 L265.755 81.2836 L265.4257 80.7544 L265.1354 80.0631 L264.5759 79.1006 L263.8262 78.3474 L263.3209 77.8697 L262.7939 77.476 L262.4272 77.2278 L261.7823 76.9037 L259.887 76.1164 L258.6113 75.5927 L258.0554 75.3911 L257.4945 75.1463 L257.1838 75.0614 L257.0249 75.1546 L256.5286 75.5441 L255.3707 76.3543 L254.6771 76.8856 L252.8016 78.072 L251.0567 79.1869 L250.1124 79.8906 L249.4021 80.4366 L249.1907 80.5673 L248.9862 80.6473 L248.6516 80.6278 L248.4289 80.5458 L248.2623 80.4581 L248.0649 80.2662 L248.0315 79.9678 M253.9297 102.7312 L254.4684 101.9913 L254.9146 101.4377 L255.4434 100.8369 L255.8508 100.3821 L256.0774 100.0546 L256.305 99.8459 L256.4848 99.8258 L256.7842 100.145 L257.6043 101.3612 L257.798 101.6916 L258.2649 102.4447 L258.6705 103.0406 L258.9622 103.4043 L259.393 104.0045 L259.5547 104.3821 L259.4996 104.7673 L258.3173 106.5037 L257.8567 106.2534 L254.8284 104.4231 L254.1618 103.234 L253.9297 102.7312 M254.5615 117.4595 L254.8157 116.9838 L255.2194 116.4414 L255.5545 116.1271 L255.8815 115.461 L256.2721 114.97 L256.5439 114.4297 L256.8293 113.8943 L257.1066 112.9513 L257.527 111.6642 L257.6146 111.1002 L257.6955 110.7581 L257.9813 110.3423 L258.6407 109.8402 L259.0593 109.7109 L259.6364 109.7658 L260.1946 109.6524 L260.6543 109.3868 L260.7663 109.0106 L260.9505 108.5044 L261.1239 107.7547 L261.6509 105.9029 L265.2383 107.7951 L265.4831 107.9626 L266.0607 108.64 L266.7593 109.4988 L267.1648 109.9883 L267.5789 110.537 L267.6241 110.9493 L267.1738 111.6037 L266.715 112.2337 L266.6383 112.7288 L266.5231 113.2726 L266.2919 114.4659 L266.282 114.8824 L265.5192 115.6348 L264.0529 115.8191 L263.4934 116.536 L261.5466 118.1799 L260.1941 118.9017 L258.1236 119.9656 L256.9151 120.2145 L256.3701 120.1631 L256.1082 119.8967 L255.8372 119.6631 L255.6764 119.4607 L255.4981 119.2104 L255.2348 118.9879 L254.8744 118.3488 L254.5615 117.4595 M257.4399 454.9297 L259.0159 452.8665 L259.4224 452.5747 L262.5925 456.972 L267.6819 458.6532 L263.2473 461.3138 L257.4399 454.9297 M257.9944 35.7004 L258.2853 34.4846 L258.5138 31.9292 L259.1911 30.3551 L259.4074 29.9907 L259.9557 29.6707 L260.1806 29.3814 L260.2253 29.1706 L260.2587 29.0134 L260.1878 28.8319 L260.1178 28.6517 L259.9945 28.112 L260.0492 27.703 L260.0333 27.4324 L260.009 27.0088 L260.1417 26.1756 L260.2059 25.4021 L260.2113 25.3374 L260.7992 24.6481 L261.0341 24.502 L261.0986 24.4846 L261.3082 24.4269 L261.6916 26.8447 L261.5602 27.5771 L261.3642 29.8648 L260.7161 32.1587 L260.4402 32.937 L259.7777 34.7572 L259.1582 35.5001 L258.6623 35.7261 L258.5987 35.7233 L257.9944 35.7004 M259.5492 71.4158 L259.5497 71.1953 L259.6116 70.9053 L259.7484 70.6132 L260.3951 69.666 L261.0232 68.7709 L261.3294 68.2577 L262.0397 67.0893 L262.5112 66.3695 L262.9718 65.5495 L263.3891 64.7914 L263.7644 64.0507 L264.3103 63.2092 L264.7371 62.5944 L265.1232 62.3433 L265.4984 62.2759 L265.6931 62.3016 L266.2684 62.7634 L266.8433 63.2454 L267.0659 63.3838 L267.2782 63.0388 L267.4516 62.8497 L267.8146 62.5631 L269.2706 60.373 L269.4679 60.2882 L269.5952 60.2485 L269.7194 60.291 L269.8888 60.4043 L270.2609 60.702 L270.2803 60.8195 L270.2649 61.0727 L270.1638 61.3488 L268.1118 64.153 L268.7846 64.6127 L268.8632 64.7546 L268.9048 65.0147 L268.8659 65.3395 L268.6474 66.4717 L268.506 66.777 L268.3055 67.0072 L268.1136 67.1992 L267.8634 67.3717 L267.4619 67.5427 L266.9359 67.6651 L266.4111 67.686 L266.1799 67.8063 L266.0638 67.9454 L266.006 68.1033 L265.9943 68.5011 L266.002 69.2425 L266.0607 69.5443 L266.1113 69.7147 L266.1677 69.8281 L266.2345 69.8649 L267.0948 70.0951 L267.3093 70.1591 L267.485 70.2711 L267.6421 70.3858 L267.8106 70.7134 L268.2626 71.7823 L268.7368 72.7671 L269.0529 73.3485 L269.3988 73.9202 L269.3875 74.0975 L269.3415 74.1907 L269.2118 74.2679 L269.057 74.2853 L268.8939 74.2853 L268.6943 74.238 L268.4532 74.1587 L268.0996 73.9153 L267.6512 73.7199 L267.3089 73.6329 L266.8514 73.5265 L266.3872 73.4723 L265.8394 73.4584 L265.0992 73.4598 L264.5614 73.5328 L263.9391 73.6343 L263.5313 73.6928 L262.7361 73.7067 L262.3504 73.6809 L261.7823 73.594 L261.0598 73.3603 L260.6895 73.1941 L260.3093 72.9917 L260.0162 72.7288 L259.8351 72.5105 L259.6423 72.1356 L259.5962 71.8887 L259.5492 71.4158 M260.3973 19.2616 L260.4953 17.2744 L260.5143 16.5482 L260.6881 16.206 L261.0548 16.5941 L262.1328 16.9329 L262.2398 17.2278 L262.5835 18.267 L262.7939 19.5899 L262.872 20.2862 L262.8174 21.4249 L262.9786 22.2324 L263.1461 24.982 L263.0725 25.6128 L262.7745 26.5407 L262.4886 26.5665 L261.9819 26.4093 L261.7128 26.2507 L261.5629 25.5815 L261.4455 24.701 L261.4947 23.9748 L261.3411 23.5992 L260.993 22.6184 L260.5364 21.4555 L260.489 20.4872 L260.3973 19.2616 M263.269 26.5852 L263.3728 22.407 L263.5512 21.1411 L264.7727 20.8399 L265.0663 20.0956 L265.092 19.3757 L265.1345 18.8547 L265.325 18.7636 L265.5852 18.678 L266.0566 18.6815 L267.0528 19.1302 L267.3861 20.1054 L267.5834 20.8705 L267.4872 22.3847 L266.8767 25.0592 L265.9053 27.4282 L265.2596 29.1184 L264.9466 29.6318 L264.5641 29.9705 L264.3668 30.1687 L264.1369 30.3016 L263.9572 30.2654 L263.8971 30.1214 L263.8506 29.4843 L263.6781 29.1762 L263.507 28.5411 L263.66 28.1148 L263.539 27.9332 L263.4979 27.7872 L263.432 27.3663 L263.5499 26.9629 L263.269 26.5852 M269.7411 65.6079 L269.7465 65.4 L269.8355 65.1628 L269.9899 64.909 L270.1841 64.6656 L270.5418 64.379 L271.4088 65.3339 L270.8782 65.7505 L270.4907 65.9438 L270.2062 65.9807 L269.9547 65.9265 L269.775 65.7832 L269.7411 65.6079 M269.8283 61.8377 L270.176 61.3919 L270.5007 60.88 L271.6924 61.7139 L271.1573 62.81 L269.8283 61.8377 M271.1568 63.6599 L271.1708 63.4505 L271.5958 62.7606 L272.0329 62.07 L272.4849 61.4524 L273.0318 60.7305 L274.0307 59.2839 L274.607 58.2622 L275.0301 57.5034 L275.2428 57.1021 L275.4397 56.8434 L275.5517 56.8344 L275.7341 56.9526 L276.841 58.4326 L276.8735 58.6114 L276.8834 58.8117 L276.8342 58.9306 L275.94 60.309 L274.9204 61.6256 L274.1676 62.4713 L273.2892 63.3128 L272.7812 63.71 L272.5369 63.8254 L272.1743 63.9478 L271.7443 63.9777 L271.454 63.9596 L271.2286 63.8532 L271.1568 63.6599 M272.2759 74.8423 L272.3811 74.7172 L272.9858 74.1775 L274.2899 72.9354 L276.0516 71.573 L276.3352 71.4721 L276.4535 71.4652 L276.7023 71.5563 L279.9388 72.8353 L280.7074 73.0321 L281.1125 72.3888 L281.8621 71.404 L283.5475 69.4713 L283.9349 69.063 L284.1874 68.9086 L284.4023 68.8655 L284.5956 68.9135 L285.0526 69.2397 L285.1772 69.3447 L285.2021 69.4553 L285.1145 69.6229 L283.8681 71.1028 L284.0094 71.2447 L285.5146 70.0054 L285.8162 69.8392 L285.9734 69.8406 L286.1436 69.9602 L286.2854 70.1076 L286.327 70.2537 L286.2719 70.4366 L286.1337 70.7162 L283.5989 73.9146 L283.7168 74.0718 L284.3865 73.2157 L286.845 70.5103 L287.0468 70.349 L287.1561 70.3184 L287.2758 70.3232 L287.4365 70.3559 L287.7671 70.6056 L287.9753 70.7989 L288.1098 70.9909 L288.1166 71.0215 L288.1726 71.2732 L288.4964 73.1002 L287.0983 74.012 L285.9287 74.6594 L284.0925 75.1303 L283.0611 75.3911 L282.7156 74.996 L282.2821 74.4849 L281.6201 73.8416 L281.8617 74.2046 L282.0112 74.4209 L282.1769 74.7798 L282.1647 75.0642 L282.092 75.3111 L282.0053 75.4912 L281.7931 75.7228 L281.4765 75.9787 L281.2575 76.0977 L280.9387 76.1651 L279.7284 76.2819 L278.4748 76.2972 L277.6506 76.2201 L275.8651 75.8542 L274.7131 75.6505 L273.8451 75.4085 L273.2111 75.2402 L272.6624 75.1011 L272.466 75.0287 L272.3219 74.9752 L272.2759 74.8423 M277.9902 8.2151 L278.1894 8.0266 L280.9779 8.8209 L282.9649 11.812 L284.0736 13.3499 L284.541 14.5721 L284.7175 15.6606 L284.755 16.4884 L284.6168 17.2243 L284.3639 17.9178 L284.1409 18.3859 L284.2018 18.9333 L284.2876 19.6998 L284.5066 20.6723 L285.3981 22.7339 L285.5932 23.9866 L280.8136 21.6419 L278.6225 15.349 L278.4518 14.3147 L277.9902 8.2151 M281.1026 26.4489 L281.3776 25.9898 L282.1281 26.6416 L282.2528 27.7545 L282.4957 28.4695 L282.8669 29.0385 L284.056 27.9736 L284.3341 27.9979 L284.6674 28.514 L285.2486 29.2798 L285.3954 30.5923 L285.3308 31.9841 L285.6212 32.1177 L286.5198 30.2995 L286.4647 29.8077 L285.4103 27.4241 L284.1481 25.8479 L282.3205 24.8262 L281.5885 24.2287 L281.2683 22.8236 L281.2259 22.3715 L286.2294 24.7462 L286.8788 26.6131 L287.726 28.281 L288.5998 30.6751 L288.0706 32.135 L287.4379 32.93 L286.0755 34.3858 L286.2629 34.5472 L287.6813 33.3119 L287.4121 35.0598 L287.39 36.1511 L287.1556 37.5373 L286.7813 39.8576 L287.0513 39.802 L288.099 34.4102 L288.3379 32.7847 L288.9123 31.6941 L290.4947 31.982 L290.6925 32.5705 L290.1253 35.8061 L289.4005 38.4742 L289.4827 38.4777 L290.1704 36.0968 L290.6487 33.6951 L290.8284 32.3284 L291.1648 32.6428 L291.1955 33.6465 L291.7406 34.2022 L291.7686 34.2432 L291.5184 32.8862 L291.3093 32.0286 L291.6069 31.8819 L292.0292 32.0105 L292.5015 31.8005 L292.4993 30.9387 L292.7219 30.4038 L292.7264 30.2209 L292.7662 30.0713 L293.0389 30.0407 L293.5063 31.0771 L293.5104 31.5049 L293.5899 31.7664 L293.5632 33.0469 L293.6269 33.7257 L293.9787 34.4032 L294.4167 35.009 L294.8272 35.2587 L294.0595 34.1744 L293.7998 33.4795 L293.7262 32.8208 L293.7335 32.2095 L294.1236 32.222 L294.2889 31.3978 L293.8364 30.3788 L293.159 29.5991 L292.5331 28.8263 L291.9334 27.8991 L292.4618 27.8525 L293.6156 28.5724 L295.142 30.0999 L296.2628 32.8883 L296.4493 32.7033 L295.8853 30.4636 L295.599 29.9795 L296.0375 29.8613 L296.5387 30.0755 L296.769 29.6658 L297.6677 31.1376 L298.3812 31.9639 L297.9332 30.8754 L296.9781 29.4029 L296.303 28.585 L295.5913 27.8345 L295.0164 27.1813 L293.8116 26.5115 L291.7835 25.2101 L291.1269 24.1633 L290.4373 23.2152 L290.1009 22.567 L289.8187 21.9507 L289.6561 21.6161 L289.568 21.2802 L289.5522 21.0235 L288.8992 20.5749 L288.7493 20.017 L288.7168 19.8967 L288.8121 19.9433 L289.0419 20.0553 L289.1029 20.2626 L289.1219 20.4302 L289.5662 20.8141 L289.7965 21.0214 L290.0593 21.2941 L290.5078 22.2192 L290.4147 21.9465 L290.338 21.653 L290.6143 21.3664 L290.6283 21.3518 L290.8216 21.1515 L290.7882 20.0101 L290.4965 19.199 L289.7473 17.7731 L289.4484 16.5607 L289.3224 15.0958 L289.2307 14.5018 L289.0993 13.9439 L288.9223 12.9187 L289.1079 12.6717 L289.3454 12.7768 L289.5689 12.9214 L290.1339 13.8779 L289.8092 14.8454 L289.8087 15.7963 L289.9555 17.2208 L290.1745 18.0583 L290.6134 18.8401 L290.9034 19.4119 L291.1048 20.0935 L291.1192 20.6716 L291.173 21.3762 L290.865 21.4297 L290.8627 21.4151 L290.5796 21.6822 L290.6843 22.3374 L292.6966 24.2259 L293.6522 25.3645 L294.5007 26.1067 L294.7279 26.6221 L295.3104 26.9469 L295.8153 27.0853 L296.2962 27.3462 L297.6776 28.7575 L298.1328 29.3487 L298.5925 29.6999 L298.9434 29.7486 L299.39 30.1513 L299.3923 31.2399 L299.8601 31.3825 L299.9649 30.7474 L299.9581 30.2953 L299.8118 29.7702 L299.6425 29.0969 L298.005 28.0918 L296.3838 26.6687 L295.4043 25.9356 L295.1158 25.4897 L294.964 25.0849 L295.0706 24.8596 L295.8835 25.2901 L296.0862 25.3652 L297.7973 26.5164 L298.63 26.9448 L299.2356 27.1417 L299.4993 27.1973 L299.8059 27.6188 L300.0507 28.3714 L300.5456 29.3167 L302.8244 31.2886 L300.4129 33.7431 L300.1058 33.3557 L299.8945 33.0504 L299.5499 32.311 L299.5169 31.6788 L299.2306 32.2081 L298.6743 32.3966 L298.4083 32.7096 L296.7478 33.0163 L295.8952 33.6402 L295.2476 34.1918 L295.1781 34.9603 L295.1126 35.8534 L294.7441 36.0057 L293.2326 36.2867 L292.8754 36.0495 L292.2635 35.0104 L292.2057 34.9388 L291.8869 35.2872 L291.895 35.8082 L292.0612 36.3375 L292.1809 37.0845 L290.5295 41.0358 L290.291 42.5653 L290.1144 42.8372 L289.89 43.1328 L289.8168 43.4305 L289.5671 43.4458 L289.5238 43.281 L289.5703 42.1807 L289.5608 41.7035 L289.4434 41.2132 L289.2763 39.6816 L289.0948 39.5356 L288.9859 39.5481 L288.5574 40.1497 L288.2629 41.4566 L288.7525 43.8457 L288.468 43.941 L288.0037 43.7164 L287.7445 43.5314 L286.7763 40.7639 L286.471 40.7861 L286.9737 42.2523 L287.2735 43.0807 L287.2983 43.5814 L286.8273 44.3646 L285.8989 44.3681 L285.2649 44.1434 L284.1765 42.8817 L283.1383 41.57 L283.1311 38.1341 L282.9821 36.5775 L282.7147 34.4116 L282.5436 32.1524 L282.1543 29.4015 L281.5898 28.0556 L281.3388 27.102 L281.1026 26.4489 M282.3431 9.6077 L283.0426 8.4377 L283.4495 8.5434 L285.207 9.6104 L287.2207 11.2284 L287.5178 11.5282 L287.7012 12.3824 L287.6863 12.7559 L287.7942 13.2157 L287.7951 13.6184 L287.5156 13.7568 L287.2378 13.5739 L286.8671 13.2887 L285.8244 12.493 L285.4961 12.3093 L285.1596 12.7253 L285.7006 14.1373 L285.3895 14.499 L285.0942 14.3815 L284.9131 14.0559 L284.722 13.5231 L284.1571 12.2905 L283.9164 11.8767 L283.9078 11.6325 L284.0343 11.4169 L284.0469 11.3021 L283.5881 10.7366 L282.3431 9.6077 M286.3541 74.706 L287.2401 74.2102 L288.5095 73.4445 L288.7637 73.4723 L288.9259 73.5175 L289.0812 73.6455 L289.3391 73.8485 L289.5314 74.053 L289.783 74.3395 L289.932 74.6233 L288.3533 74.6261 L287.0427 74.6921 L286.3541 74.706 M286.653 441.0344 L286.653 439.5984 L287.3078 438.4792 L289.4032 436.5757 L290.4283 435.478 L290.4536 434.5714 L292.3986 432.0878 L296.5279 433.2848 L296.2885 436.5159 L295.72 444.2064 L290.7525 443.279 L287.3715 442.8302 L286.653 441.0344 M302.2824 440.2785 L307.743 426.4507 L313.6764 429.923 L316.8249 427.39 L318.8873 429.9688 L324.7895 423.6606 L334.4702 429.5742 L335.1286 431.9078 L332.9438 433.1347 L332.2859 431.7585 L327.3785 437.2641 L325.8146 437.59 L324.5357 436.6959 L323.1593 438.5806 L323.5206 439.8964 L323.8177 441.274 L320.6665 445.2457 L315.243 446.3989 L302.2824 440.2785 M309.0359 459.1707 L310.6097 457.1777 L320.0944 462.6885 L322.2078 465.7957 L331.1321 471.1189 L334.108 471.1786 L336.2264 472.454 L329.4531 481.2418 L327.1554 478.5446 L326.072 472.6235 L320.0072 467.7783 L315.289 465.5721 L313.6037 463.1407 L314.3543 461.3811 L313.4041 461.5652 L309.0359 459.1707 M311.2767 55.5533 L311.3164 55.355 L311.4253 55.1624 L311.7229 54.8835 L312.1564 55.3613 L312.5457 55.7904 L312.2959 56.0554 L312.1352 56.1173 L311.9365 56.1771 L311.7567 56.1785 L311.5422 56.0964 L311.3982 55.9754 L311.3223 55.7974 L311.2767 55.5533 M327.9497 72.9013 L328.3679 72.2059 L328.7576 71.4262 L329.2471 69.8545 L329.4382 69.4866 L333.3823 72.1022 L333.908 72.1989 L334.5989 72.3011 L336.0115 73.6941 L335.6204 74.2088 L334.2932 76.0205 L334.1301 76.0385 L332.8946 74.5982 L328.0211 73.1447 L327.9497 72.9013 M328.6136 42.1542 L328.7296 41.7891 L328.9215 41.4844 L329.0688 41.3419 L329.234 41.248 L329.435 41.0803 L329.6757 40.7075 L329.7814 40.4182 L329.9927 40.2874 L330.3486 40.2165 L330.6931 40.1525 L331.7336 39.2991 L336.0277 41.6743 L337.4886 42.3914 L337.6191 42.5945 L337.1504 43.354 L336.6789 43.9675 L335.6931 45.0281 L335.2514 45.7389 L334.5605 46.7982 L334.1143 48.7046 L333.8177 48.914 L333.4505 48.9995 L333.1615 48.994 L332.1314 48.4807 L331.9038 48.2984 L331.4306 47.9931 L331.0634 47.9083 L330.6294 47.9569 L329.7159 47.5876 L329.2914 46.9867 L328.7942 46.4699 L328.6565 45.7995 L328.6646 44.7478 L328.8538 43.8012 L328.7775 42.8915 L328.6759 42.6008 L328.6136 42.1542 M330.9776 64.4666 L330.9948 64.265 L331.1099 64.114 L331.2364 64.0118 L331.4071 64.0236 L331.8803 64.4068 L336.4052 70.132 L337.4032 71.4339 L336.9932 72.8081 L336.7444 73.1684 L336.0169 73.6573 L334.6201 72.2851 L334.4562 71.3212 L332.6927 68.3411 L332.2619 67.4078 L331.1605 64.7942 L330.9776 64.4666 M331.7426 63.3191 L331.8347 63.0193 L332.0894 62.714 L332.4566 62.6855 L333.6926 63.5848 L335.2131 65.3457 L338.8136 70.8379 L338.198 71.171 L337.424 71.3922 L336.4052 70.0896 L336.6039 69.8211 L335.2293 67.8487 L331.7426 63.3191 M346.6039 308.0554 L346.7502 307.8503 L347.0645 307.5758 L347.2049 307.3715 L347.223 307.1998 L347.2582 307.0073 L347.3074 306.7752 L347.6841 305.9913 L347.8001 305.6827 L347.8182 305.397 L347.7983 303.9278 L347.9478 303.2447 L348.1004 302.8124 L348.5281 302.2612 L348.6875 302.0048 L348.902 301.5656 L349.2439 300.5835 L349.4064 300.0185 L349.7347 299.3652 L350.1163 298.9642 L350.3968 298.6681 L350.8556 298.3401 L351.6305 297.9203 L352.0265 297.6492 L352.4948 297.2385 L353.1013 296.4615 L354.3536 295.1062 L354.6394 294.8213 L355.1077 294.2409 L355.2238 294.2152 L355.4089 294.3014 L355.7941 294.774 L356.0827 295.1125 L356.1504 295.2681 L356.1107 295.4739 L355.772 295.8137 L353.9548 297.0884 L353.1979 297.807 L352.927 298.133 L352.5084 298.7647 L352.1566 299.32 L351.77 300.3507 L350.907 304.2941 L350.0617 307.2464 L349.8702 307.7141 L349.667 308.0262 L349.2926 308.2694 L348.9097 308.4883 L348.4938 308.5849 L348.0851 308.6308 L347.4822 308.5669 L346.827 308.4265 L346.6549 308.2889 L346.6039 308.0554 M351.379 399.7813 L356.229 398.9545 L356.8206 398.5654 L357.1412 398.3848 L357.8186 399.2116 L359.372 399.0032 L360.2933 401.4836 L359.6069 404.499 L354.7659 406.7153 L352.3905 402.6647 L351.379 399.7813 M355.7544 76.0267 L357.7974 70.6098 L361.5514 69.5401 L361.48 71.4408 L363.1432 70.3956 L364.8064 71.1084 L362.264 75.1477 L357.9875 75.4328 L355.7544 76.0267 M366.7239 237.4872 L368.1554 235.944 L368.5844 235.7633 L371.601 245.7452 L371.6823 253.6346 L372.3597 260.0155 L369.2618 260.5924 L367.9657 247.9 L370.4811 247.6776 L368.616 245.6896 L369.5418 244.9319 L367.7309 243.2081 L366.7239 237.4872 M369.0775 289.8999 L369.1728 289.5746 L369.4027 288.8254 L369.4944 288.2999 L369.7016 287.402 L369.7481 285.7763 L369.2211 284.6552 L369.9094 283.1915 L369.9586 282.9023 L370.0548 282.5833 L370.2201 282.5298 L370.7453 281.4122 L370.7227 281.2065 L370.7195 280.8986 L370.7263 280.6212 L370.8094 280.4106 L371.0487 280.1952 L371.3626 280.0277 L371.401 280.0179 L372.599 277.4685 L373.3983 277.4546 L373.8097 279.4195 L373.9511 279.5676 L374.1213 279.929 L374.1073 280.3905 L374.0825 280.7234 L375.0827 285.5031 L376.3382 286.7264 L375.0511 287.1226 L372.2111 287.3735 L372.1664 287.4589 L372.1416 287.7446 L372.1492 287.926 L372.1804 288.2061 L372.2107 288.5863 L372.1592 288.8559 L372.0923 289.159 L371.862 289.3988 L371.5811 289.6399 L370.9521 290.1237 L370.6007 290.2321 L370.2738 290.2814 L369.9491 290.2925 L369.465 290.1709 L369.0775 289.8999 M370.766 333.7034 L370.8437 333.4428 L370.8541 333.415 L370.9164 333.2524 L371.0636 333.0536 L371.5956 333.0439 L372.0115 333.2302 L372.3818 333.6853 L372.3935 333.7159 L372.6315 334.349 L372.772 335.6096 L372.6731 336.6332 L372.6541 336.9689 L372.6803 337.2044 L373.1341 338.1607 L373.1477 338.1898 L373.1504 338.4407 L373.0375 339.0571 L373.0343 339.3087 L373.0592 339.5324 L373.1789 339.6513 L373.3988 339.7082 L373.8133 339.6054 L374.0734 339.5762 L374.3706 339.5991 L375.7931 339.8736 L376.0026 340.064 L376.013 340.3232 L375.948 341.0661 L375.7872 342.9111 L375.7023 343.7255 L375.2313 343.7721 L375.1649 343.7742 L374.7811 343.7846 L374.3056 343.7943 L373.5419 343.9173 L373.5099 343.9222 L373.0303 343.9938 L372.6234 344.0014 L372.1551 344.073 L371.68 344.1453 L371.4705 344.0619 L371.2966 343.7985 L371.0284 342.9674 L370.8947 342.6109 L370.7967 342.1821 L370.8225 341.9653 L370.9318 341.7645 L371.0031 341.6908 L371.2185 341.4685 L371.5938 341.0112 L371.8607 340.6478 L372.2138 340.0488 L372.2346 340.0043 L372.3556 339.7437 L372.3732 339.6061 L372.3922 339.4567 L372.3854 339.1683 L372.3163 338.8299 L370.7845 334.2607 L370.766 333.7034 M371.0451 56.5854 L371.1128 56.0679 L372.6473 54.9711 L373.4923 54.3347 L374.1945 54.6651 L374.6835 55.0003 L375.7949 55.7946 L376.2058 56.3273 L377.0223 57.5132 L377.1745 57.8108 L377.2531 58.0661 L377.1921 58.249 L372.8424 61.5693 L372.3705 60.6464 L372.2052 60.124 L371.9984 59.4487 L371.8747 58.7894 L371.1214 57.4388 L371.0979 57.0013 L371.0451 56.5854 M377.8419 389.9707 L379.7386 390.0263 L379.4586 388.6575 L379.9508 387.2401 L380.3392 387.247 L379.7296 388.4629 L380.5018 389.9359 L386.0157 391.541 L385.0447 394.1882 L382.8816 393.6254 L380.1902 391.4159 L377.8419 389.9707 M401.7914 338.2156 L401.8058 338.1197 L401.9083 338.0265 L402.0881 337.8931 L402.2109 337.8167 L402.3477 337.8076 L402.4787 337.9119 L402.5952 338.0564 L402.9452 338.7777 L403.5201 339.67 L404.4666 340.8396 L405.0098 341.3823 L405.2758 341.7423 L405.479 342.1029 L405.7243 342.5032 L406.2896 343.1877 L406.9065 343.7158 L407.3793 344.1348 L408.3304 345.2981 L408.8863 345.9527 L409.3379 346.3481 L409.6007 346.6268 L410.0003 347.0604 L410.171 347.2987 L410.2076 347.4579 L410.1877 347.5607 L409.9579 347.7504 L409.621 347.9374 L411.1329 349.7316 L406.2422 347.5843 L403.2857 341.6908 L403.1769 341.531 L402.9899 341.2065 L402.6846 340.4921 L402.5166 340.1766 L402.1549 339.5644 L401.9652 338.875 L401.8411 338.3796 L401.7914 338.2156" stroke-dasharray="" fill="none" fill-opacity="1.0" stroke="#ff0000" stroke-opacity="1.0" stroke-width="1.0px" stroke-linecap="butt" stroke-linejoin="miter" stroke-dashoffset="0.0px"/>
</g>
</svg>