<?xml version="1.0" standalone="no"?>
<!DOCTYPE svg PUBLIC "-//W3C//DTD SVG 1.1//EN" "http://www.w3.org/Graphics/SVG/1.1/DTD/svg11.dtd">
<svg width="512px" height="512px" version="1.1" xmlns="http://www.w3.org/2000/svg" xmlns:inkscape="http://www.inkscape.org/namespaces/inkscape">
<g id="layer" inkscape:groupmode="layer" inkscape:label="layer">
<path d="M115.0373 25.9936 L115.2409 27.3386 L116.3946 27.1575 L118.3796 39.7534 L117.2259 39.9345 L117.3617 40.8397 L118.4984 40.6587 L120.4665 53.5132 L119.3297 53.6942 L119.4485 54.6771 L120.6022 54.496 L122.6212 67.4281 L121.4844 67.6092 L121.6032 68.4886 L122.7569 68.3075 L124.725 81.1879 L123.5713 81.3689 L123.707 82.3 L124.8437 82.119 L126.8627 94.9735 L125.726 95.1545 L125.8447 96.0597 L126.9984 95.8787 L128.9665 108.759 L127.8128 108.9401 L127.9485 109.8712 L129.0852 109.6901 L131.0703 122.5705 L129.9166 122.7515 L130.0353 123.6309 L131.189 123.4498 L133.208 136.356 L132.0543 136.537 L132.1561 137.4423 L133.3098 137.2612 L135.2779 149.8829 L134.1242 150.0639 L134.2938 151.4865 L135.685 151.2537 L135.5323 150.0898 L139.8587 149.4949 L140.0114 150.6588 L140.9276 150.5036 L142.9296 163.0994 L141.9964 163.2546 L142.1152 164.1857 L143.0483 164.0305 L145.0503 176.859 L144.1002 177.0142 L144.2359 177.9195 L145.1691 177.7901 L147.1032 190.4118 L146.1701 190.5411 L146.4076 191.9377 L147.7819 191.7049 L147.5952 190.5411 L154.3647 189.5324 L154.5513 190.7221 L155.6711 190.5411 L155.4845 189.3513 L167.9715 187.4115 L168.1581 188.5754 L169.0913 188.4202 L171.0424 200.9901 L170.0583 201.1453 L170.2619 202.2833 L171.212 202.1281 L173.1801 214.879 L172.2469 215.0342 L172.3657 215.9394 L173.3158 215.7843 L175.2669 228.5093 L174.3168 228.6645 L174.4525 229.3887 L161.9825 231.3026 L161.8807 230.6301 L160.693 230.7853 L160.7779 231.4836 L148.1551 233.4234 L148.0533 232.7251 L146.8827 232.8803 L147.1202 234.07 L147.7988 233.9666 L149.716 246.5881 L149.0034 246.6916 L149.207 247.8296 L149.9196 247.7261 L151.8876 260.3477 L151.1751 260.477 L151.3447 261.615 L152.0573 261.5115 L153.0922 268.1844 L139.4685 270.1759 L142.4884 290.5565 L155.4675 288.565 L164.1032 344.4306 L192.0803 340.1631 L193.9635 352.4225 L165.6641 356.8451 L170.1432 385.6572 L157.8936 387.4935 L157.7409 386.4589 L156.3497 386.5883 L156.5703 388.0108 L157.7409 387.8039 L159.6751 400.4511 L158.5044 400.6322 L158.6571 401.5632 L159.8278 401.3822 L161.7958 414.2622 L160.6252 414.4433 L160.7779 415.3485 L161.9146 415.1675 L163.9166 427.9957 L162.7459 428.1768 L162.8986 429.1337 L164.0354 428.9527 L166.0034 441.781 L164.8667 441.962 L165.0194 442.9189 L166.1561 442.7379 L168.1412 455.6179 L166.9366 455.7989 L167.0893 456.7042 L168.2769 456.4972 L170.2449 469.3514 L169.0743 469.5324 L169.227 470.4893 L170.3976 470.3083 L172.3827 483.1883 L171.212 483.3693 L171.3308 484.3004 L172.5014 484.1193 L174.4695 496.9993 L173.3328 497.1803 L173.4855 498.0855 L174.6222 497.9045 L176.5394 510.4741 L175.3857 510.681 L175.5723 512.0 L176.9635 511.8965 L176.8108 510.9655 L189.4166 508.9223 L189.5693 509.8533 L190.5024 509.8016 L190.3498 508.8964 L203.1591 506.8015 L203.3118 507.7067 L204.228 507.6291 L204.0753 506.7239 L216.9356 504.6807 L217.0883 505.6118 L217.9875 505.5342 L217.8348 504.6031 L230.5763 502.6375 L230.729 503.5686 L231.8658 503.4392 L231.7131 502.4823 L244.4715 500.5167 L244.6242 501.4219 L245.5234 501.2926 L245.3708 500.3874 L258.0783 498.37 L258.231 499.3011 L259.3847 499.1201 L259.232 498.189 L271.9566 496.2234 L272.0923 497.1545 L272.9915 497.051 L272.8558 496.1199 L285.6822 494.1026 L285.8518 495.0337 L286.768 494.9043 L286.6153 493.9733 L299.4925 492.0077 L299.6283 492.9387 L300.5444 492.7577 L300.3917 491.8525 L313.2181 489.8869 L313.3708 490.8179 L314.253 490.6628 L314.1003 489.7575 L326.9776 487.7919 L327.1133 488.6971 L328.0125 488.5161 L327.8768 487.585 L340.7032 485.697 L340.8389 486.6022 L341.7381 486.4212 L341.5854 485.4901 L354.293 483.5245 L354.4287 484.4297 L355.5994 484.2487 L355.4636 483.3434 L368.1712 481.3778 L368.3239 482.283 L369.2401 482.102 L369.0874 481.1968 L381.9307 479.2312 L382.0834 480.1622 L382.9996 480.0329 L382.8469 479.1277 L395.4188 477.188 L395.5715 478.119 L396.9627 477.8863 L396.7761 476.5155 L395.792 476.6707 L393.8749 464.0752 L394.808 463.92 L394.6723 462.7821 L393.7222 462.9372 L391.7202 450.3935 L392.6872 450.2383 L392.5685 449.0227 L391.6014 449.1779 L389.6333 436.5307 L390.6004 436.3755 L390.4477 435.2375 L389.4806 435.3927 L387.5295 422.7713 L388.4796 422.6161 L388.31 421.4523 L387.3429 421.6075 L385.3918 409.0119 L386.3419 408.8568 L386.2232 407.667 L385.2391 407.8222 L383.2541 395.175 L384.2212 395.0198 L384.0854 393.8818 L383.1184 394.037 L381.1842 381.519 L382.1343 381.3638 L381.9647 379.9672 L380.5904 380.1741 L380.7431 381.1052 L368.3748 383.0191 L368.2221 382.1139 L367.2381 382.269 L365.3379 370.2684 L379.1313 368.251 L353.3938 200.3435 L339.6173 202.4902 L337.802 190.5152 L338.803 190.36 L338.6163 189.1961 L337.6153 189.3513 L335.6982 176.7556 L336.7161 176.5745 L336.5295 175.4107 L335.5115 175.5658 L333.5944 162.9184 L334.6293 162.7373 L334.4596 161.6252 L333.4247 161.7803 L331.4566 149.107 L332.4916 148.9518 L332.3049 147.8138 L331.27 147.9948 L329.3359 135.3214 L330.3878 135.1663 L330.2351 134.0024 L329.1493 134.1834 L327.2491 121.6652 L328.4197 121.4842 L328.759 120.4755 L327.0624 119.9323 L331.27 106.8451 L333.1024 107.44 L333.4756 106.3537 L331.6602 105.7588 L336.1732 91.9473 L338.0225 92.5422 L338.3618 91.4301 L337.0894 91.0162 L341.5854 77.2565 L342.9596 77.6962 L343.299 76.6099 L341.4836 76.015 L345.793 62.8502 L347.2181 63.3157 L347.9307 61.3242 L346.8109 60.1603 L346.0135 60.9621 L334.6972 49.4266 L335.5115 48.599 L334.7141 47.7455 L333.8998 48.5731 L322.7191 37.167 L323.5335 36.3393 L322.7191 35.5117 L321.9047 36.3135 L310.6562 24.8556 L311.4876 24.0538 L310.6562 23.2261 L309.8419 24.0021 L298.6782 12.5959 L299.5095 11.7683 L298.6951 10.9406 L297.8638 11.7683 L287.9217 1.6295 L288.7361 0.8018 L288.0065 0.0 L286.9207 0.7242 L281.5424 1.526 L281.3728 0.3621 L280.1851 0.5432 L280.3718 1.6812 L267.6472 3.6469 L267.4606 2.483 L266.5444 2.6123 L266.7141 3.7762 L253.9556 5.7419 L253.769 4.578 L252.8358 4.7332 L253.0225 5.8971 L240.264 7.8628 L240.0943 6.6989 L238.8897 6.9058 L239.0763 8.0438 L226.3857 10.0095 L226.1991 8.8456 L225.249 8.9749 L225.4356 10.1388 L212.6092 12.1304 L212.4226 10.9923 L211.4895 11.1475 L211.6591 12.2855 L198.9346 14.2254 L198.7649 13.0873 L197.6112 13.2684 L197.7979 14.4064 L185.0903 16.398 L184.9206 15.2341 L184.0044 15.3893 L184.1741 16.5273 L171.4835 18.493 L171.2968 17.355 L170.1601 17.536 L170.3298 18.674 L157.6391 20.6656 L157.4525 19.5017 L156.5364 19.6051 L156.723 20.769 L143.8797 22.7865 L143.71 21.6484 L142.7769 21.7519 L142.9635 22.8899 L130.1202 24.8815 L129.9505 23.7434 L129.0174 23.8469 L129.204 24.9849 L116.5982 26.9765 L116.4285 25.8384 L115.0373 25.9936" stroke-dasharray="" fill="none" fill-opacity="1.0" stroke="#ff0000" stroke-opacity="1.0" stroke-width="1.0px" stroke-linecap="butt" stroke-linejoin="miter" stroke-dashoffset="0.0px"/>
</g>
</svg>