<?xml version="1.0" standalone="no"?>
<!DOCTYPE svg PUBLIC "-//W3C//DTD SVG 1.1//EN" "http://www.w3.org/Graphics/SVG/1.1/DTD/svg11.dtd">
<svg width="512px" height="512px" version="1.1" xmlns="http://www.w3.org/2000/svg" xmlns:inkscape="http://www.inkscape.org/namespaces/inkscape">
<g id="layer" inkscape:groupmode="layer" inkscape:label="layer">
<path d="M0.0 105.027 L1.1827 117.502 L3.4977 127.0347 L2.1641 127.5447 L17.2621 156.4175 L31.9575 181.9165 L49.9494 208.2786 L51.1321 207.4548 L66.1043 234.2091 L79.7932 251.9014 L92.9033 264.7686 L162.153 323.2198 L189.2792 347.0318 L215.122 367.1955 L214.2413 368.5685 L231.1008 379.5918 L241.1158 385.0838 L260.4917 394.028 L278.861 401.1284 L310.7933 409.6803 L311.2966 408.2681 L419.147 435.179 L419.6503 433.1391 L433.4901 436.552 L437.0382 422.665 L438.7241 423.0573 L510.2134 128.1724 L508.3261 127.7016 L512.0 112.1275 L497.6317 110.0091 L497.8582 107.93 L420.229 100.8687 L420.5813 97.7303 L374.8846 92.709 L374.8342 93.1013 L374.0542 93.062 L374.0542 93.2582 L372.645 93.2189 L372.6198 93.8074 L356.9682 92.3167 L357.0689 91.4144 L316.4299 87.4522 L316.3545 88.433 L300.4763 86.8638 L300.5267 86.3538 L254.5279 81.1363 L254.5028 81.5286 L253.8485 81.5286 L253.4711 81.8816 L252.0619 81.6855 L251.5838 84.9415 L174.2315 77.6448 L173.9295 79.7632 L157.8501 78.1548 L157.523 75.448 L15.4252 86.8245 L15.5258 88.9037 L0.6291 90.0021 L1.9376 104.7132 L0.0 105.027 M59.5115 140.4119 L64.3429 136.8028 L66.9347 131.8207 L67.2115 125.8578 L76.371 125.3086 L76.5471 128.9962 L79.4409 134.8806 L86.0589 136.7636 L125.5403 133.6252 L125.1628 130.3692 L145.4697 128.8393 L145.3439 126.4855 L151.7857 126.0932 L151.6851 131.3107 L189.7825 134.7629 L190.3361 129.1139 L197.7844 129.6238 L197.5076 132.2914 L210.7688 133.6645 L210.9952 130.9969 L218.3933 132.0168 L217.89 137.4697 L273.2495 142.4518 L271.7397 155.476 L291.8956 157.2021 L292.3486 152.4553 L367.2349 159.6343 L366.8574 164.3418 L387.0636 166.3033 L388.2967 153.2791 L431.6029 157.4767 L436.8117 156.1429 L439.6803 151.3961 L446.7764 152.4161 L448.9656 156.7313 L453.0673 160.615 L451.0794 166.9702 L446.2228 167.8332 L442.9768 172.6192 L435.3774 203.2965 L440.6617 204.6303 L439.0261 211.8484 L436.6859 211.2992 L433.4901 224.2449 L435.78 224.8333 L434.0689 231.9338 L428.6588 230.6392 L421.1349 261.591 L417.9392 260.8457 L416.6307 265.3178 L393.1784 259.9434 L374.96 337.6561 L401.3816 343.972 L397.0284 362.0565 L397.6826 363.3118 L404.4516 365.0379 L402.6146 373.7859 L397.6826 374.3744 L394.512 378.3365 L392.6248 387.163 L384.5725 385.1623 L388.0199 371.236 L387.5166 370.1769 L350.7528 360.9188 L349.0166 367.7839 L343.1535 365.9401 L343.9587 362.7626 L331.3518 359.5851 L330.5466 362.8018 L324.4571 361.5857 L326.2437 354.7207 L294.8901 346.4434 L293.1789 352.9161 L285.7809 350.0132 L287.0391 346.9534 L274.9355 342.0105 L273.6521 345.1096 L265.8766 341.8144 L269.475 335.8908 L253.2446 326.0836 L236.6368 313.8049 L232.6106 319.2577 L227.5528 315.1387 L229.6665 312.628 L219.6766 304.233 L217.6384 306.7044 L212.8322 302.86 L217.2358 297.6818 L171.7403 259.0804 L168.0916 263.3563 L162.9331 259.1588 L164.5687 257.1974 L154.2517 248.3708 L152.5155 250.4499 L147.4576 246.2524 L151.3328 241.6626 L128.8618 222.5972 L120.0043 213.6922 L112.0778 203.4534 L107.6743 206.9056 L103.3965 200.472 L105.5354 199.1382 L98.5399 187.9578 L96.4765 189.2916 L92.8278 183.4072 L97.6089 180.4258 L82.0076 155.2406 L76.5723 150.9254 L69.5768 152.1807 L67.2366 153.7499 L59.5115 140.4119" stroke-dasharray="" fill="none" fill-opacity="1.0" stroke="#ff0000" stroke-opacity="1.0" stroke-width="1.0px" stroke-linecap="butt" stroke-linejoin="miter" stroke-dashoffset="0.0px"/>
</g>
</svg>