<?xml version="1.0" standalone="no"?>
<!DOCTYPE svg PUBLIC "-//W3C//DTD SVG 1.1//EN" "http://www.w3.org/Graphics/SVG/1.1/DTD/svg11.dtd">
<svg width="512px" height="512px" version="1.1" xmlns="http://www.w3.org/2000/svg" xmlns:inkscape="http://www.inkscape.org/namespaces/inkscape">
<g id="layer" inkscape:groupmode="layer" inkscape:label="layer">
<path d="M0.0 413.7945 L0.1828 415.0294 L2.0893 417.6981 L2.8978 417.7357 L3.7658 418.2747 L4.2531 418.8833 L4.3757 419.3638 L4.575 419.7052 L5.4709 419.7383 L6.1812 419.8278 L8.8095 419.8929 L10.3856 420.0675 L12.1043 420.3878 L14.81 420.4629 L16.0292 420.8285 L17.1351 420.5325 L19.19 419.3462 L20.7052 418.6227 L23.1873 418.0416 L25.1655 417.6573 L25.8406 417.8616 L26.4105 418.2581 L26.5258 417.7534 L26.9645 417.5159 L27.6655 417.3645 L28.2919 417.3877 L29.6788 417.6584 L29.7727 418.5365 L30.3661 424.9099 L30.5396 434.9714 L34.3125 453.3011 L35.6779 455.8812 L36.085 454.5713 L35.9152 453.797 L36.3344 453.7661 L36.4957 453.247 L37.2454 453.6976 L37.6081 453.6711 L37.7873 454.0245 L39.7784 455.2229 L41.9938 455.3621 L51.8318 459.7724 L55.3704 462.6562 L52.9693 476.1762 L52.5392 481.1451 L55.2442 482.3026 L55.2084 483.4501 L55.5259 484.1128 L55.2772 485.1201 L55.1647 490.9902 L54.7095 491.6451 L53.9268 493.8761 L53.944 498.3081 L56.8605 497.069 L57.5973 501.4391 L58.2495 499.914 L60.8463 471.6026 L60.5166 465.5058 L62.5306 464.2246 L58.696 461.7483 L58.4789 460.9608 L58.2603 460.8482 L57.9671 460.0529 L57.9972 459.2146 L57.3392 456.8587 L56.8404 453.8257 L53.5477 443.4885 L53.3355 441.5644 L52.6525 439.289 L52.1013 437.9746 L51.9666 437.2202 L51.9558 436.8358 L51.9859 436.6348 L51.9716 436.584 L52.0124 436.5277 L52.6711 434.9305 L53.6975 434.2059 L54.506 433.0925 L49.3727 432.506 L46.6412 432.5038 L44.8522 432.1868 L43.8738 431.9736 L43.6258 431.8146 L43.1929 431.7626 L43.0818 431.4655 L42.4382 431.0535 L42.0841 430.5675 L41.9702 430.2737 L42.054 427.5973 L41.8741 425.4092 L42.1107 424.3687 L42.1185 421.6536 L42.1759 420.4231 L42.259 420.0498 L42.7012 419.7913 L43.1621 419.5825 L43.4395 419.6499 L70.9989 423.833 L88.9367 425.2115 L90.3681 425.1143 L92.0811 424.8525 L92.8631 424.9165 L93.5526 425.185 L94.151 425.8543 L94.5925 427.4802 L94.8413 428.618 L95.5953 430.2295 L101.6861 427.8503 L101.9047 427.6139 L101.7148 425.354 L101.8761 424.784 L103.1977 424.1433 L111.6194 421.1013 L123.9911 416.3715 L125.1128 416.2456 L126.1291 416.9492 L126.1513 417.1293 L126.3778 417.0497 L128.3854 429.0786 L130.1766 428.8057 L131.8301 429.1758 L133.6277 429.6585 L136.777 431.3374 L137.8077 432.1459 L138.4148 433.2372 L138.5381 433.9541 L138.8348 434.0932 L139.2648 437.0976 L143.9953 436.1146 L152.8112 434.3915 L151.1849 437.5836 L149.3307 443.3118 L148.5086 446.0024 L147.6356 448.2556 L147.2386 450.0317 L147.164 450.669 L147.1719 450.9496 L165.562 445.5252 L170.9634 444.403 L175.9555 443.0853 L179.4797 442.6336 L184.2116 441.6505 L184.2166 440.9779 L183.9364 435.9887 L183.9808 435.5789 L184.2926 435.2287 L185.524 434.9393 L186.3031 434.8167 L219.3462 417.4032 L219.7319 419.3362 L220.0565 419.9371 L220.3282 420.5579 L220.622 421.8723 L220.6815 422.4964 L220.4715 423.0432 L225.4328 419.0722 L233.823 413.3902 L242.1243 408.1246 L239.157 403.0434 L251.3129 398.6691 L256.8031 387.8547 L262.2217 383.4361 L265.9258 372.2491 L267.2604 370.5755 L276.0017 375.0627 L276.0741 373.5802 L277.6681 363.236 L277.2582 360.4841 L273.5584 354.7187 L269.7725 352.8307 L266.2046 351.1493 L265.5875 350.2313 L268.1814 342.9997 L264.7869 340.7306 L266.5895 337.0606 L260.3983 331.5987 L256.7278 327.7917 L252.7808 323.0334 L251.5071 321.3806 L249.3848 320.7907 L248.1191 320.2615 L246.3702 318.6839 L241.6347 309.5008 L239.7676 304.6407 L238.5456 298.5741 L234.916 300.8755 L234.5282 300.301 L233.8309 297.1776 L233.9111 295.0243 L234.3419 294.3824 L234.0065 292.629 L233.3657 286.2054 L233.757 285.179 L235.3977 285.1403 L237.3766 286.0176 L240.1317 286.096 L242.5901 285.7292 L245.0242 285.7668 L245.6972 284.8497 L242.6676 279.8292 L240.6836 278.036 L236.181 274.8209 L230.4013 269.629 L229.8013 268.3142 L230.6242 266.321 L230.9983 265.2072 L231.4441 262.5124 L232.9177 259.5623 L233.1062 258.5955 L231.672 256.1304 L231.0327 253.6896 L231.4599 253.0709 L232.4984 252.8322 L233.752 253.0311 L235.3152 253.1305 L239.4178 254.5924 L242.0913 255.6774 L244.172 255.4056 L246.31 252.819 L244.8543 249.2169 L241.925 244.8226 L239.5555 242.7663 L237.9285 241.8326 L235.3962 239.9011 L234.7469 237.8658 L231.4369 230.5222 L230.5697 226.9454 L230.8162 225.625 L232.1487 224.6681 L237.0877 223.5863 L238.8208 222.8415 L245.4972 225.0791 L251.4562 227.878 L262.5084 232.6537 L271.4203 236.7343 L273.7218 238.3995 L276.4038 241.6149 L279.966 250.2489 L281.7901 251.8986 L283.3849 251.3295 L284.7223 251.0422 L288.7074 253.0642 L289.8312 254.6388 L291.7578 256.1514 L294.6205 256.8873 L297.8516 258.5082 L300.2863 259.4153 L302.1649 261.5776 L304.2083 259.5567 L300.1286 257.0508 L299.604 255.7105 L299.7359 253.2664 L293.0064 251.4632 L289.5173 249.9926 L286.899 247.6446 L285.1695 245.3783 L284.1353 241.11 L282.8065 240.1387 L282.6753 239.3807 L283.0423 238.3851 L284.2751 237.436 L285.3896 237.1564 L287.3384 238.4625 L288.7676 238.1741 L291.2432 241.0768 L295.0763 244.5629 L300.3272 246.3452 L304.3158 248.2578 L305.3881 248.9528 L308.4027 247.9285 L309.3366 245.8612 L304.2864 245.9065 L298.1698 244.1972 L292.9648 240.1973 L288.554 234.3311 L286.335 230.383 L284.3675 226.6338 L281.5672 223.4548 L279.3826 221.0095 L274.5632 222.0437 L271.6755 222.4415 L268.9963 222.194 L266.0376 221.4493 L264.2622 220.4713 L262.8187 218.3741 L262.3457 215.6016 L262.9062 210.3341 L263.5799 208.7351 L266.7543 205.6687 L267.0109 204.3637 L268.1993 203.0045 L275.0893 198.1788 L278.4766 197.4384 L279.4908 196.7809 L281.2311 196.1367 L283.5296 195.9146 L286.9277 196.1389 L287.9584 195.7444 L289.9602 196.1643 L290.4727 196.718 L290.8963 198.4495 L291.4898 199.1457 L292.8817 201.4188 L293.9511 199.3557 L299.0213 198.6562 L303.392 199.7634 L314.0047 206.6643 L324.4441 206.8853 L330.3507 208.1738 L332.3676 207.524 L332.549 207.7406 L334.2935 208.5362 L335.5306 209.5959 L333.5653 213.6148 L329.6125 216.9276 L324.0914 219.2459 L321.7699 221.8493 L323.7933 220.0967 L325.3092 219.3244 L326.9677 218.6746 L329.7752 217.4459 L331.2395 216.6912 L332.1254 216.0094 L332.8034 215.4171 L333.7782 214.4668 L334.9966 212.8325 L335.7614 211.8977 L336.4495 210.7628 L337.2128 209.67 L337.7769 208.5252 L337.7324 208.1804 L336.8688 207.5715 L336.6838 206.8422 L336.9562 206.1671 L338.528 201.7613 L338.437 200.3314 L338.2291 199.2927 L337.1003 197.1633 L335.4718 193.6769 L334.7393 192.2657 L334.1294 190.5308 L333.6671 188.2356 L332.8013 180.6438 L332.6092 176.9319 L332.1841 172.7425 L331.5255 168.3796 L330.5994 165.0676 L328.9266 159.3708 L329.3645 158.7342 L329.6727 158.5055 L330.1128 158.1772 L330.7292 157.838 L331.2595 157.6899 L331.8917 157.6291 L333.0005 157.786 L333.5474 158.1596 L333.6255 158.2734 L334.1107 158.9785 L334.3745 160.267 L334.4132 161.6219 L334.5014 164.7184 L335.3779 171.5357 L335.6861 173.2862 L335.8194 174.4333 L335.9463 175.0256 L336.7283 178.2259 L337.7202 184.1811 L338.2248 185.4288 L338.7982 186.3272 L340.0898 186.6156 L342.7761 186.2973 L343.9222 185.7724 L344.3422 185.2276 L345.0145 184.1502 L345.5083 183.528 L346.853 182.5821 L348.0284 182.2417 L348.424 182.2893 L349.3264 182.3965 L350.2066 182.875 L351.2638 184.506 L353.3774 191.1518 L353.4312 191.2181 L353.9759 191.8856 L354.7156 192.2248 L356.754 192.6558 L358.4512 193.1586 L360.2266 193.7343 L361.8952 194.1222 L362.3338 194.046 L362.6191 193.8714 L362.6642 193.5244 L362.5818 193.1221 L362.2758 192.4304 L362.1296 191.6336 L362.1045 191.4977 L362.1245 191.448 L362.341 190.9231 L363.0398 190.3231 L363.9831 189.7926 L365.4165 189.1716 L367.1267 188.5152 L368.462 187.8731 L371.5576 183.0694 L373.9422 179.7498 L374.6238 179.0614 L375.9591 178.8006 L376.1203 178.8094 L379.77 179.0746 L380.1979 179.0779 L381.9288 179.089 L384.1579 179.2349 L386.2378 179.1906 L387.1173 179.3575 L387.9989 179.846 L388.3193 180.2449 L388.3945 180.6096 L388.4712 180.9842 L387.8985 181.5456 L386.9962 182.2661 L385.8931 182.9523 L383.75 184.7834 L382.3739 186.0432 L381.0207 188.1306 L380.1642 191.5508 L380.0509 192.9409 L380.1147 194.046 L380.2724 194.751 L380.8379 194.488 L381.03 192.7718 L381.445 191.2038 L381.5375 191.1916 L383.0813 191.28 L384.871 191.7331 L387.2398 192.0624 L389.3291 192.5033 L389.1206 193.2205 L387.0951 193.5907 L385.5849 193.0337 L384.3163 192.8757 L383.7027 193.0105 L383.4992 194.0095 L384.1557 194.3708 L386.2744 194.4394 L388.5178 198.7578 L388.049 199.6297 L388.1745 199.885 L389.3922 200.5933 L391.6514 200.4474 L393.2705 200.2309 L394.2288 199.359 L396.0357 193.1807 L397.1746 190.8225 L397.9623 189.5893 L398.2934 188.5196 L397.7867 187.6466 L396.0249 186.6565 L393.6676 185.6708 L394.7807 183.3645 L394.7577 182.7423 L394.504 181.8064 L393.9407 181.1853 L393.4389 180.1277 L393.5407 178.8481 L393.4146 178.5696 L393.1322 178.3674 L392.7165 178.4768 L392.3624 178.732 L392.4928 179.6515 L392.2728 180.1012 L391.5252 180.5322 L390.8085 180.888 L390.1892 180.5477 L390.3713 179.8891 L390.6157 179.3586 L391.0486 178.6248 L392.052 176.4036 L393.8116 171.8131 L394.7097 169.9897 L395.7769 167.5817 L396.4306 165.9009 L396.923 165.7307 L397.4247 165.7484 L398.1551 165.8169 L399.4832 166.1462 L402.7229 167.3253 L403.6374 167.7386 L404.0875 168.0823 L404.2718 168.6061 L403.4496 169.551 L402.591 171.0285 L401.2192 172.1049 L400.6694 172.3358 L400.2229 172.2021 L399.9505 171.8662 L399.4961 171.5103 L399.0603 171.2506 L398.6833 171.1666 L398.1909 171.2119 L397.8777 171.4683 L397.7566 172.3137 L397.4477 173.6188 L397.6849 174.3128 L397.6398 175.0311 L396.9309 175.1118 L396.4679 176.2003 L396.4191 177.0755 L396.4779 177.6601 L396.2206 178.5298 L396.3023 180.0626 L396.7725 180.5565 L397.3559 180.9079 L397.9723 180.5333 L398.3515 179.8305 L398.5615 179.1321 L398.5163 178.2823 L399.0532 177.1109 L399.9305 176.765 L402.5136 178.1519 L404.3234 179.3885 L403.6919 179.9388 L402.7222 180.6748 L401.8126 181.4693 L402.0133 181.4439 L403.2977 180.3499 L404.9763 179.0271 L405.6988 178.5928 L406.1582 177.9883 L406.9789 176.5219 L407.9479 175.5417 L408.4546 175.4687 L409.1886 175.9152 L409.7677 176.6733 L410.9819 177.3861 L411.7459 177.4325 L412.8196 176.986 L413.2224 176.4092 L413.9327 176.2611 L414.7906 176.67 L415.9647 177.9684 L417.9873 180.4173 L420.6163 183.422 L420.6894 183.2805 L415.678 177.5596 L413.6804 175.1427 L411.9337 174.1913 L410.4694 172.9304 L410.8443 172.1679 L411.5474 171.8474 L412.7071 172.2806 L413.5543 172.716 L414.2674 171.8153 L415.1848 170.3831 L415.8063 169.2869 L416.5567 167.8403 L418.2503 164.2244 L418.5987 164.1029 L418.5249 163.7227 L418.9778 163.9614 L420.445 165.0709 L420.6865 165.5682 L417.2849 171.8098 L419.3835 174.0343 L421.4255 175.8699 L422.2204 176.4644 L422.7758 176.5539 L423.5083 175.9461 L424.0352 175.335 L424.772 175.1682 L425.6027 175.4577 L426.6534 177.0302 L427.654 178.6569 L429.5297 180.9245 L429.1326 181.876 L427.9321 182.0185 L427.2927 181.813 L426.7509 181.5422 L426.3502 181.7135 L426.2843 182.1964 L426.2721 182.7788 L426.0012 183.2927 L425.5804 183.3943 L426.447 184.2729 L426.8892 184.9602 L426.7667 186.0376 L426.2047 187.4311 L426.1316 187.9825 L425.6528 187.8743 L425.0536 187.4842 L421.9824 184.6121 L421.7703 184.8331 L423.375 186.2576 L426.0822 189.1219 L425.9424 190.8899 L425.1733 192.3519 L425.2801 193.2647 L426.2979 195.3996 L426.4527 196.1687 L426.4843 197.0926 L426.4212 198.2506 L426.743 200.117 L432.3257 213.3032 L419.8365 222.8007 L417.5831 226.151 L416.4341 226.5874 L414.7964 226.7918 L414.6165 226.9896 L410.4723 234.3974 L401.5489 236.4305 L399.7713 239.2702 L401.5417 242.6072 L406.0744 248.491 L406.4521 248.8014 L406.9301 249.6025 L409.8917 253.4466 L410.6902 253.546 L414.5462 253.0178 L415.3511 253.0433 L416.2392 254.1979 L416.6147 254.2421 L417.1265 255.4056 L418.2711 256.9635 L419.4659 260.4572 L419.5441 260.9014 L420.1848 262.6427 L418.4919 268.8534 L424.6358 270.4157 L423.7176 273.2685 L412.3838 281.4026 L394.165 293.4156 L393.2447 299.0812 L397.3667 298.9476 L420.7102 290.0415 L431.3258 281.6777 L437.3357 273.674 L436.6763 273.748 L436.3617 273.6276 L436.08 273.1425 L437.373 268.2899 L437.3701 266.8524 L437.221 263.4162 L437.0856 258.0132 L436.2921 252.3836 L435.6406 250.6931 L434.9948 248.1528 L434.8852 245.8711 L434.6064 243.9574 L433.6646 242.7773 L432.874 240.7928 L432.8174 239.5 L433.294 239.0061 L433.9627 238.8846 L435.0436 239.1796 L436.0535 239.6989 L442.4461 240.3199 L442.0261 238.9199 L439.4924 237.0957 L436.1552 233.7664 L435.1561 232.7023 L435.0077 231.8195 L435.1081 231.193 L435.6872 230.6493 L437.1687 230.0637 L437.0418 229.8559 L445.8864 222.9609 L446.6963 220.2095 L453.2904 226.1543 L462.9656 233.5123 L463.9942 233.1222 L464.455 233.0637 L465.3402 232.3487 L461.0835 227.8029 L460.8993 227.3764 L460.9595 226.9753 L462.5929 225.7686 L456.8325 216.5784 L456.5307 216.1066 L453.8766 210.5606 L452.1285 206.6256 L451.4404 204.094 L451.3186 203.5283 L451.6168 203.2001 L452.064 203.0222 L452.9434 202.9503 L453.1728 203.4531 L453.7369 203.1835 L453.0983 201.4475 L451.8225 199.0772 L451.1251 198.3048 L451.2763 197.8175 L449.7353 191.7441 L450.2872 189.6998 L453.8637 186.9261 L455.5094 187.4245 L455.6714 187.3869 L456.6354 187.4234 L459.7654 188.0058 L462.1306 188.6146 L465.2728 190.3783 L469.3367 191.6082 L469.4005 191.5939 L469.4442 191.6414 L470.4061 191.932 L472.1284 194.3068 L474.1819 196.6019 L478.8479 203.4586 L481.7829 207.461 L482.1248 208.029 L482.2553 208.1207 L484.2442 208.1207 L485.5759 207.6787 L487.5685 207.4047 L491.1264 207.7185 L504.8813 206.209 L508.0321 203.6343 L507.9031 202.7514 L508.0723 202.273 L508.3633 201.8851 L509.0384 201.3315 L510.0103 200.7016 L510.9184 199.9866 L511.8982 199.4463 L512.0 199.3745 L511.4252 196.6782 L510.9614 196.55 L510.3959 195.8196 L502.3656 199.2142 L501.6524 197.2893 L501.4324 197.0671 L501.2969 196.3301 L500.8102 195.0151 L498.2723 191.6381 L491.5335 192.6735 L485.7444 193.2249 L485.5645 192.921 L485.444 192.9177 L484.4678 192.6879 L483.7905 191.9795 L482.142 189.3373 L477.7477 181.2947 L476.4791 179.068 L475.0097 176.1959 L474.5998 175.2975 L474.4557 174.5559 L474.6177 174.1183 L475.0807 173.7061 L475.9895 173.1602 L476.8224 172.8055 L479.1941 172.1192 L483.5526 171.7512 L485.1437 171.1302 L482.6043 167.5519 L482.3707 167.427 L481.5443 166.7275 L469.8327 170.4605 L469.0586 169.5145 L468.8408 169.5609 L468.0058 168.9631 L466.9199 167.9088 L463.3649 164.0377 L463.2272 164.0178 L462.1493 164.714 L469.8327 171.9855 L465.4678 172.1292 L464.1346 170.6793 L464.0192 170.6705 L462.737 169.7157 L460.4879 167.5419 L455.89 161.9302 L454.1017 159.8393 L454.0666 159.6062 L453.5125 158.9785 L450.0148 162.7911 L446.2878 159.2658 L451.6132 152.2748 L453.8931 149.2843 L454.9625 147.3735 L455.1582 146.7823 L455.5732 143.1187 L455.3868 140.8841 L455.604 139.5225 L455.981 138.0748 L456.0125 137.7278 L456.0326 132.1058 L455.0973 130.006 L454.8829 128.9339 L454.5927 127.873 L454.8607 126.1732 L454.9202 124.9265 L454.7654 124.3187 L453.9763 123.03 L453.3255 122.0939 L451.7852 120.0438 L450.6527 118.3805 L450.3567 117.5173 L450.5546 116.7547 L450.9875 116.3281 L451.3566 116.1204 L453.466 115.7711 L454.1239 115.4948 L454.9862 115.0041 L455.8807 113.8038 L456.1673 113.091 L456.7049 110.9634 L457.14 110.1489 L457.4632 109.7289 L458.1577 109.2603 L459.0931 108.9741 L460.6971 108.7685 L461.8489 108.6204 L464.3633 108.49 L466.2168 108.5485 L467.3485 109.0625 L468.4974 109.8903 L469.7646 110.5413 L471.4289 110.9248 L473.4222 111.0342 L475.285 110.7579 L478.7361 109.0404 L481.0468 107.0841 L481.9141 105.9579 L480.9164 105.024 L479.5352 105.0804 L478.8135 104.9013 L478.3469 104.6747 L477.7355 103.8911 L477.8194 103.0545 L479.1317 100.0118 L478.6694 98.4976 L479.3668 97.6178 L481.712 95.3145 L482.8917 94.4789 L483.9274 94.3463 L485.3322 94.3562 L486.4891 93.4776 L487.4509 91.3267 L487.5398 89.9076 L487.1442 88.5017 L484.4198 86.1177 L483.2766 84.7471 L482.8444 83.9889 L482.6688 82.8593 L482.8064 82.2912 L482.9978 80.9638 L483.2415 80.1149 L483.7755 78.751 L483.3426 76.2807 L483.5891 74.9101 L485.5838 71.1157 L486.15 70.773 L486.6145 70.6537 L487.2438 70.8139 L488.4142 71.4561 L492.4803 73.2091 L493.3024 73.2865 L493.8636 73.4556 L495.1473 72.6299 L494.619 72.2608 L493.0415 70.2845 L492.7856 69.6854 L489.5302 65.3372 L490.5953 63.7389 L482.3771 65.8191 L480.2713 67.7213 L478.1405 70.4359 L477.8616 72.5658 L478.3433 75.1279 L478.3182 76.8787 L477.8108 78.0458 L476.593 78.73 L470.2513 78.0458 L467.4101 76.8024 L465.8627 75.1533 L465.5588 73.5053 L465.9136 72.1348 L467.1707 70.048 L466.4225 68.5702 L466.1917 69.6213 L465.4119 70.4691 L464.2149 70.615 L463.1176 70.3254 L461.9486 69.733 L460.9258 68.915 L458.0452 66.2756 L456.8905 66.0379 L452.9678 62.7651 L444.3361 54.6001 L442.9621 53.9911 L441.9185 53.1145 L440.7524 51.6389 L438.7455 50.5988 L436.2599 51.157 L434.5605 50.1931 L433.6216 47.9603 L431.9996 45.5651 L431.3151 45.6391 L430.7632 45.4755 L428.0876 43.3941 L425.698 40.4749 L424.8952 39.0357 L424.7942 38.6831 L424.5046 37.6717 L423.2654 36.5288 L422.4669 35.5704 L422.0548 35.3261 L422.0641 34.7314 L421.4864 34.024 L420.4371 33.2359 L418.8345 32.3803 L417.5487 31.1511 L416.5846 30.6006 L415.5884 29.3571 L414.681 29.4533 L413.6489 29.6644 L413.55 30.8493 L415.6873 32.3007 L418.7356 34.8442 L418.9105 35.8644 L419.9268 36.8161 L421.8627 37.8486 L422.191 38.3614 L424.9332 42.8116 L425.374 43.5113 L425.65 43.7788 L426.3438 44.4498 L427.3981 45.6192 L428.3227 47.086 L429.4064 47.579 L430.2099 48.0333 L430.7725 48.6766 L431.7229 49.9323 L432.2913 50.6485 L433.5485 51.9716 L435.1575 52.8039 L435.6069 53.0979 L435.8363 53.2472 L436.4634 53.8706 L436.6426 55.1439 L436.3796 55.7187 L435.9502 56.0437 L435.2916 56.4051 L434.7891 56.4902 L434.6343 56.5167 L433.8516 56.4471 L432.3974 56.205 L431.3997 56.0846 L430.8736 56.2426 L430.3812 56.4427 L430.0959 56.9522 L430.1705 57.076 L430.0787 57.3159 L430.2407 57.464 L430.5374 58.0366 L430.9703 58.4389 L431.4513 58.7141 L432.4146 58.9728 L433.0374 59.0347 L434.6788 59.0391 L434.9633 58.9706 L437.4002 58.4146 L438.3786 58.713 L439.5469 59.3419 L439.8665 60.4108 L439.9332 60.9347 L440.0514 62.0566 L440.0615 62.166 L439.8744 63.0801 L439.415 63.8782 L439.1684 64.4175 L438.8244 64.9116 L438.4481 65.3327 L437.998 65.5107 L437.3816 65.3869 L435.9761 64.0031 L434.9547 63.2813 L434.0738 62.7949 L434.1462 63.0569 L434.4888 63.446 L436.9114 65.6256 L437.5156 66.3209 L437.8525 67.1079 L437.4934 67.8683 L435.9854 69.0167 L434.8859 69.7407 L433.7592 70.9234 L432.5902 72.0563 L431.6907 72.473 L430.9517 72.3514 L430.8807 72.8919 L430.9589 73.3528 L430.7274 73.6523 L430.4944 73.8535 L429.8572 74.0646 L428.2847 75.6242 L427.3816 76.2553 L426.338 77.3639 L424.5139 79.1478 L422.9314 80.1746 L420.235 82.6814 L418.5471 83.6186 L417.6676 84.2232 L417.4483 83.822 L418.431 82.7013 L421.9394 79.5225 L425.5367 76.4056 L428.0532 74.5156 L429.1355 73.4711 L429.8293 72.6631 L430.2221 71.7877 L429.5161 70.2602 L429.3276 70.1839 L429.382 71.56 L429.1706 72.7206 L427.2712 74.3277 L426.3538 74.9975 L425.2171 75.9723 L423.3234 77.4236 L419.4681 81.2114 L417.4462 83.3788 L416.2721 83.9756 L415.6056 84.6698 L414.347 87.4473 L413.054 90.9797 L412.6039 92.0971 L412.1982 93.5804 L411.5187 95.5488 L411.442 96.9779 L412.0133 99.1408 L412.3179 99.8736 L412.1853 101.1071 L411.4951 102.7163 L410.9403 104.1674 L410.865 105.4329 L410.9847 105.8452 L411.8463 107.5096 L412.3043 108.6944 L412.7329 110.1091 L412.9314 110.4307 L413.4826 110.7612 L413.8195 110.738 L413.5951 110.0174 L412.6239 107.4964 L412.2469 106.3989 L411.948 105.2064 L412.0118 104.2172 L412.1853 103.6933 L412.5652 103.3043 L412.9873 103.0191 L413.3794 103.1926 L413.699 103.6126 L413.8732 104.3929 L414.228 104.7554 L414.4086 104.6018 L414.2853 103.596 L413.1816 100.4505 L412.8447 99.3199 L412.5745 98.2412 L412.4641 96.4551 L412.4612 95.6361 L412.7436 93.8611 L413.1952 93.4168 L413.6295 93.43 L413.6102 94.0656 L414.9648 99.0557 L415.4508 100.2748 L415.9883 100.4428 L416.1381 99.8924 L416.3653 98.2423 L416.4406 96.5457 L416.6341 94.5795 L417.3938 91.0659 L417.9214 89.0046 L418.484 87.8507 L418.8768 87.7026 L419.0466 87.6385 L419.2129 87.8474 L418.9778 88.1701 L418.6008 88.6874 L418.4897 89.5429 L418.4302 90.8835 L418.0532 93.7362 L418.1894 97.326 L418.3249 97.7593 L418.6797 97.6366 L418.623 96.5402 L418.6438 95.3499 L418.7234 94.3275 L418.9492 93.1869 L419.3362 92.2507 L420.7231 91.2925 L420.5224 90.0358 L421.2248 89.5285 L422.3637 89.4489 L422.6282 89.0013 L422.6511 88.1922 L422.7687 88.0905 L423.8323 87.1688 L424.0753 86.5178 L424.8107 85.9806 L425.903 84.9096 L427.2239 84.4332 L427.8962 84.4741 L428.5176 84.725 L429.3261 85.2533 L429.5627 86.1154 L429.6114 86.2945 L429.7676 87.6153 L430.1776 89.4765 L430.5983 90.4315 L431.8835 91.7799 L432.3092 92.5226 L433.3865 92.222 L434.3333 92.3513 L435.1145 93.0112 L435.6148 93.0963 L436.0843 93.0963 L436.4312 92.7614 L436.6921 92.2176 L436.0936 90.2602 L435.7811 88.7891 L435.6808 86.1851 L435.8728 84.7272 L436.2835 83.2849 L436.5967 82.5432 L436.9307 82.2768 L437.9213 81.6645 L438.7498 81.7883 L439.1397 81.9209 L439.3261 82.3929 L439.0838 83.2351 L437.2576 86.0535 L437.1343 87.9922 L436.9128 89.4732 L438.0001 92.5602 L439.1476 95.057 L439.9762 98.2655 L439.9153 99.5586 L439.4594 100.6451 L439.5031 102.2874 L439.4372 102.9981 L439.124 103.8127 L438.747 104.1376 L439.1082 104.7223 L439.577 105.3511 L439.9203 106.3779 L440.2077 107.4223 L441.2434 107.1814 L441.9135 107.6091 L441.897 108.4745 L441.4813 109.2791 L441.2484 110.0793 L441.3595 111.6774 L441.9336 112.3052 L441.6469 113.438 L440.5403 113.6922 L439.8644 113.3861 L439.5669 113.2512 L439.0946 112.6334 L438.1198 110.2683 L437.6568 108.5331 L437.2941 107.0112 L436.9981 105.3301 L437.2927 103.0047 L437.4325 101.9006 L437.0942 100.1809 L436.6175 99.6559 L436.4362 99.6747 L430.4636 100.3102 L428.0582 100.5334 L425.86 100.6683 L422.6526 100.9501 L421.5438 101.1037 L421.4112 101.5337 L421.2348 102.1073 L422.6841 107.8589 L422.7844 108.7243 L422.3859 109.1697 L421.738 109.4604 L418.9585 110.6131 L417.1967 111.0585 L416.1152 111.9018 L414.8336 111.9537 L413.7671 111.4387 L410.516 111.3326 L410.182 111.526 L409.4688 111.5746 L408.4446 111.7559 L406.5703 112.2963 L402.6949 114.1785 L400.8185 115.2174 L400.6006 115.3368 L400.0186 115.3931 L399.4703 114.7609 L399.1506 113.7751 L397.4047 109.6958 L395.7146 105.5523 L394.6846 103.5574 L392.5459 104.4692 L391.4321 104.8184 L390.2774 104.8991 L389.6624 104.478 L389.2238 103.7574 L388.7436 103.239 L388.2619 102.44 L387.4456 101.2253 L386.8464 100.1753 L386.6514 99.1232 L386.8019 98.8866 L386.7697 98.8457 L386.9675 98.628 L387.189 98.281 L387.4914 98.0511 L389.0131 96.3755 L388.7823 96.0252 L388.1795 95.2902 L387.2327 94.6005 L386.422 93.8821 L385.7325 93.1902 L385.4724 92.6608 L385.3269 92.0286 L383.8869 90.7144 L383.8253 90.7399 L383.0627 90.9277 L382.1066 90.6636 L378.3401 86.4194 L377.6699 85.9928 L376.8091 85.2124 L375.7885 83.9502 L374.5822 82.9942 L373.9622 82.0845 L373.4734 80.9306 L373.2204 79.6054 L373.3365 78.5289 L373.553 77.1329 L374.2446 74.72 L375.1513 72.2597 L375.5176 71.7568 L375.6387 71.2804 L370.1183 61.9041 L370.0266 61.7416 L365.9505 64.0561 L365.9648 64.0937 L366.1096 64.9315 L368.7981 72.3989 L368.768 81.9143 L371.0014 89.5672 L370.6968 90.2104 L367.862 92.1756 L367.6915 92.6011 L367.0263 97.5106 L366.8565 99.1508 L354.4267 104.5145 L346.1778 108.6513 L345.4553 108.5839 L344.8984 107.5074 L344.4096 106.4508 L344.0448 105.9966 L343.4986 104.2857 L343.1503 103.5806 L343.0693 102.944 L342.5425 101.2938 L340.6689 97.8875 L339.6418 95.8638 L339.4089 94.8669 L339.3859 93.0764 L336.4731 87.8496 L335.0418 84.2133 L335.0382 84.179 L331.0789 81.4158 L329.8246 79.979 L329.5308 78.9179 L333.2729 75.3512 L331.5219 72.7593 L329.8906 70.5299 L327.8213 67.9678 L326.9505 66.7354 L326.9577 66.1595 L327.2874 65.2963 L327.8565 64.8221 L329.0513 64.2396 L329.8899 63.7588 L330.2102 63.32 L330.1393 62.7563 L329.0871 61.6189 L328.8076 61.4387 L327.7948 61.4299 L326.9949 60.9214 L325.9643 58.4477 L323.1167 58.6246 L321.1033 55.9044 L321.036 55.816 L320.5357 54.61 L320.1558 51.0984 L320.3801 50.349 L320.8467 49.6172 L322.0946 48.6667 L322.7576 48.3008 L321.6466 48.0134 L321.056 47.4375 L320.3601 47.3181 L318.5317 46.1277 L314.3868 41.1757 L313.7309 40.298 L312.9848 39.5707 L312.177 38.8898 L309.6627 36.3331 L299.2485 26.2156 L298.03 23.7506 L301.9649 20.6776 L311.3184 30.3829 L317.167 34.5723 L316.2768 33.678 L314.801 32.335 L314.4133 31.8044 L314.0685 31.1367 L313.8779 30.5 L314.0241 30.2204 L313.7266 29.8081 L328.4987 20.357 L322.5425 12.0996 L298.8471 18.0688 L294.2714 10.5609 L287.175 14.5337 L289.7015 18.92 L289.938 21.7387 L281.9034 24.5796 L281.1795 22.9989 L280.3516 22.5578 L279.4872 21.5785 L278.582 21.049 L274.5209 20.4344 L273.9619 27.3873 L273.6121 28.674 L273.4759 34.3313 L272.8588 34.947 L271.8819 35.0321 L271.1164 37.8441 L266.4397 39.0247 L252.2998 42.5961 L251.4942 42.7995 L252.7034 44.7979 L252.5808 45.5562 L252.603 45.5927 L252.5751 45.5927 L252.5328 45.8558 L252.102 45.7662 L250.0134 45.753 L248.3262 45.5927 L245.2113 45.5927 L244.9905 45.6612 L244.9848 46.5101 L245.8054 57.4629 L245.7072 58.0642 L241.8239 60.1433 L246.3186 58.9064 L247.1106 58.5583 L249.1877 58.1393 L250.6133 58.5804 L250.7818 59.3762 L263.0531 60.6694 L272.2037 72.8156 L273.3663 72.7095 L273.5863 72.6366 L274.6679 71.6584 L277.0732 70.4613 L281.3708 68.1977 L283.6149 67.2206 L285.5702 65.5848 L286.2482 65.4985 L287.0639 64.6729 L287.9713 64.8464 L289.0077 65.5405 L290.6677 66.2192 L291.4898 66.1197 L292.0947 65.8379 L292.7104 65.2642 L293.4221 64.6784 L294.2069 63.8859 L295.935 63.0967 L298.0214 63.4427 L300.0634 63.5996 L300.1996 63.8605 L300.3236 63.8196 L307.6351 67.4958 L308.0508 67.5555 L308.1497 67.7556 L308.5661 67.9645 L317.1226 77.3561 L318.3998 82.4658 L320.9521 83.9126 L321.6108 84.2674 L321.8007 84.3979 L324.2821 87.4119 L324.6713 88.1967 L325.2454 88.9339 L326.2359 89.4345 L327.1132 90.4403 L327.6551 91.7622 L327.6336 91.9998 L329.1229 95.0183 L331.0209 100.3168 L332.5411 106.3547 L333.8527 110.7546 L333.7868 112.0012 L333.7896 112.1648 L333.0657 112.6378 L332.6543 112.5925 L332.2293 112.545 L325.9306 100.6473 L321.8136 103.0854 L324.9221 109.7212 L322.7267 110.791 L321.2187 111.9449 L317.8737 113.49 L315.9536 114.0923 L313.5833 115.2472 L309.6233 115.287 L309.1137 115.476 L306.9427 115.36 L304.7767 115.3357 L293.4608 115.434 L293.8478 116.033 L293.8299 118.2114 L294.7258 123.5804 L290.7143 127.5812 L291.4267 127.2043 L292.6896 127.1524 L293.6192 127.5547 L296.011 129.197 L296.3428 129.6678 L296.4209 130.2347 L296.3614 131.1973 L296.0697 132.8341 L294.9667 134.1923 L294.7674 135.8567 L294.7947 136.101 L294.5553 137.6283 L293.4802 146.3413 L293.721 147.6233 L293.3139 148.0686 L293.2644 148.0863 L293.1562 148.966 L271.3845 149.2346 L268.8257 147.9769 L267.0274 148.1825 L267.0281 149.986 L267.2962 150.8447 L258.4444 152.2372 L244.9554 155.0 L231.8749 166.46 L231.4441 168.2437 L231.2721 169.341 L231.0628 169.8195 L228.6309 179.8769 L228.9441 180.4195 L236.3545 189.2578 L234.0903 191.2557 L227.0713 193.605 L219.5835 195.0339 L218.7506 194.8991 L216.2564 194.9201 L211.637 192.2392 L210.3992 191.5994 L209.5491 189.8247 L209.519 189.5882 L208.6453 188.4953 L209.499 187.5284 L209.6358 186.8322 L210.3225 185.4884 L211.1116 184.8033 L211.6735 184.3823 L212.3967 184.0021 L212.9802 183.5899 L218.8302 176.9694 L222.9744 168.7399 L220.6801 167.2878 L216.4176 159.8493 L210.0573 156.7218 L209.2854 153.4838 L208.7743 146.9569 L208.9922 145.6738 L210.6522 130.5431 L210.9661 129.9264 L211.7509 128.9417 L218.5062 122.3128 L220.0666 121.1291 L220.8937 120.3345 L223.2783 119.0944 L224.8451 118.6756 L225.7733 118.3838 L224.6888 116.8962 L224.1169 116.0861 L222.7923 115.2163 L222.2964 114.8438 L220.979 114.8648 L220.3798 115.129 L220.1927 115.2119 L219.2438 115.8253 L217.0025 117.1239 L214.6401 118.8248 L214.5054 118.1539 L214.6953 117.3427 L214.6093 116.6652 L213.3342 116.6321 L213.097 115.9247 L212.7723 114.0625 L211.9889 111.6774 L212.1616 111.0353 L211.6585 109.9279 L211.5531 109.1045 L212.2828 107.5362 L212.3086 107.4201 L212.5609 106.2707 L212.3021 104.2393 L211.857 103.0965 L210.559 99.7664 L208.8188 97.2354 L207.9343 95.4991 L206.4779 94.9774 L206.4098 94.4458 L206.503 93.9097 L206.9552 93.5406 L207.4892 93.3239 L207.5236 92.8277 L207.2211 92.3745 L205.1297 90.9211 L204.6774 90.5288 L203.206 89.25 L202.2606 88.6598 L201.9861 89.6523 L201.2127 90.489 L201.4256 91.3964 L202.0276 91.5157 L202.6691 90.794 L203.1909 90.2845 L204.4574 91.4008 L206.1632 92.5105 L206.0744 92.7934 L205.3562 93.3737 L205.167 93.5395 L205.0817 93.4632 L203.3959 91.9534 L202.8598 92.6033 L202.2943 93.4975 L202.1309 94.4203 L202.1158 94.5043 L201.9295 94.4856 L201.4715 94.4391 L200.0423 93.1968 L199.0912 93.0233 L196.7589 91.6008 L195.9232 91.5611 L195.6358 91.991 L195.7748 92.3171 L196.1611 92.6608 L196.9503 93.1007 L198.2562 93.3759 L199.2445 93.8401 L200.7239 94.8768 L201.4987 95.4195 L202.0119 95.9931 L203.2174 96.969 L203.7779 98.3871 L204.3284 98.68 L204.9011 99.8217 L205.3426 100.245 L205.4099 101.5569 L204.8065 101.0441 L204.1729 100.2892 L203.4368 99.4989 L203.2275 99.4039 L202.0871 98.8844 L201.3482 99.2248 L200.9353 99.8195 L199.8975 100.0007 L198.826 99.647 L197.8612 98.9839 L196.2715 98.4003 L195.1333 97.9074 L193.8883 97.7261 L193.2676 97.4587 L192.5086 97.2597 L191.8033 96.7115 L191.0185 95.9268 L190.3254 95.4747 L189.6151 95.2703 L188.5078 95.0194 L187.2399 94.5773 L186.7432 94.8337 L185.0646 94.0843 L183.9507 93.7837 L182.8384 93.8777 L181.6823 93.6323 L181.1533 93.6997 L180.3412 93.104 L179.5707 91.3511 L178.773 90.5011 L177.1625 89.8556 L176.2572 91.5345 L171.7217 86.8129 L169.8496 85.2533 L167.465 83.0218 L163.6096 76.3758 L163.2541 70.846 L164.9793 66.4823 L165.1822 63.3366 L161.6307 62.4236 L162.6098 57.7094 L162.1833 56.2216 L161.0494 54.7372 L161.1677 53.812 L157.6055 51.8832 L156.4387 51.577 L145.7291 46.2614 L144.7873 52.3784 L136.3147 51.9219 L129.7702 52.784 L126.4216 52.8857 L124.5953 53.5965 L123.5804 52.5309 L121.1456 49.9433 L118.6593 48.7252 L118.6593 44.9715 L118.8943 44.1767 L111.9785 38.199 L102.4753 38.7815 L99.9896 38.7306 L99.9387 36.8537 L96.1235 34.1843 L82.638 29.3958 L81.5536 29.5351 L78.3333 27.6968 L76.7443 27.8604 L79.2249 30.122 L82.0453 31.4352 L84.2371 32.304 L86.636 33.9853 L88.2472 34.6651 L90.7279 36.2756 L93.8887 39.6945 L97.3484 40.7623 L101.4582 42.2932 L104.8391 43.0703 L106.7205 44.3447 L107.152 44.8123 L107.5605 48.0112 L108.6772 50.8 L111.5463 54.2066 L119.4857 64.7105 L123.7245 71.0538 L124.7279 75.2826 L125.4375 77.5407 L124.6469 79.6275 L123.6241 80.6167 L121.4424 81.313 L119.2685 80.6366 L112.7418 78.8019 L110.1637 77.3429 L109.7208 75.36 L109.1639 74.4758 L106.7434 73.3837 L100.2089 72.2353 L97.2287 72.0574 L87.9333 71.717 L86.9471 73.4169 L80.0707 81.3562 L78.906 94.0401 L67.1048 107.1162 L61.8884 112.7517 L60.108 117.6201 L61.3301 117.115 L64.7804 116.9625 L65.242 117.5825 L65.0872 119.226 L65.2664 121.0319 L66.3652 122.3039 L67.307 122.7582 L69.2902 122.4841 L71.4712 122.3802 L73.1333 122.3603 L74.2486 122.9505 L75.0205 124.1065 L75.614 126.5898 L75.576 128.1117 L75.0979 130.4757 L69.2042 139.7082 L68.0273 144.3078 L66.9615 146.7933 L63.9684 147.8598 L62.2941 149.3815 L62.0941 153.0837 L64.7683 159.6382 L65.2435 161.9346 L65.103 162.8684 L67.3915 161.7468 L68.4079 159.7443 L71.8762 156.5361 L73.0817 155.8576 L75.2219 155.1216 L76.9292 154.2353 L77.4538 153.2561 L77.8079 151.9587 L78.8759 150.6536 L84.5159 147.2508 L91.7765 144.5322 L99.9007 138.0273 L114.1452 129.6766 L114.9573 129.4766 L116.9355 128.7228 L117.2265 129.5495 L115.9708 131.1321 L115.6748 134.4929 L115.4002 138.9744 L115.0849 142.3561 L115.0383 144.1675 L116.1693 149.3594 L116.4058 151.2127 L116.1485 154.6983 L115.5092 157.5584 L116.2216 166.3274 L123.3518 181.2593 L124.8612 183.1534 L126.3893 184.6928 L127.1397 185.1757 L131.0725 189.1285 L134.5351 194.2559 L136.5584 196.6649 L137.4586 198.0517 L138.5904 200.2032 L139.176 201.9006 L139.7128 203.0487 L139.6949 203.5216 L138.7294 203.9913 L138.3453 204.5581 L137.6321 206.9063 L136.2538 208.4368 L135.8073 209.1219 L135.436 209.8755 L134.9278 210.176 L134.5544 210.3031 L133.9208 210.2269 L133.8871 210.2037 L133.7818 210.3639 L138.0535 214.1209 L138.6413 214.6071 L141.4509 216.9718 L149.0426 220.7034 L151.0695 223.0449 L146.6831 236.7067 L151.2917 238.9277 L162.9459 242.5077 L163.7379 249.9782 L141.0925 262.9157 L136.7118 265.7099 L123.4069 274.1966 L121.8523 277.2405 L109.1818 279.5122 L104.3252 285.4508 L99.8627 291.2402 L94.5861 288.0439 L90.4261 292.4577 L87.5133 295.5855 L81.6676 304.8584 L82.7398 308.2833 L70.2499 328.322 L57.5564 338.9718 L35.4048 347.9368 L34.8393 348.2317 L32.1114 349.4779 L30.9689 349.7331 L26.862 351.3946 L26.3237 351.6442 L26.1388 351.6873 L17.4046 355.2224 L15.6178 362.5842 L14.8014 367.9099 L14.1055 371.9199 L13.7449 373.3162 L12.9092 373.7415 L11.1138 381.1384 L11.1726 382.2442 L10.9554 383.3941 L10.4451 383.8934 L10.1727 385.0157 L6.1668 398.4482 L4.1592 399.2214 L3.0411 404.0707 L2.4613 405.9253 L2.4613 407.7733 L2.7437 409.7252 L2.5287 410.8949 L2.2929 411.0827 L1.5904 411.2771 L0.7411 411.4251 L0.0 413.7945 M61.768 115.1555 L62.1701 114.6383 L63.2903 114.1111 L63.8566 113.6546 L64.7339 113.5187 L64.9869 113.4789 L66.2426 113.5452 L68.4408 112.7307 L69.331 112.5207 L71.9063 111.8708 L72.7033 111.5978 L74.5582 111.4641 L75.113 111.6885 L76.3472 112.167 L75.1997 110.6065 L74.7259 110.4031 L73.8888 110.6253 L72.9792 110.2616 L72.5005 110.3501 L72.0059 110.4407 L70.7667 110.1036 L69.9109 109.5068 L69.936 109.1299 L69.984 108.4203 L70.1961 107.839 L70.3431 107.4367 L71.1114 106.7117 L71.6088 106.2419 L72.9921 104.6626 L73.734 103.48 L74.1848 102.7616 L76.9772 98.8667 L78.7949 97.0807 L78.9526 97.0508 L79.8843 96.8718 L80.5968 96.2617 L83.1118 96.4043 L86.006 97.0796 L87.6767 97.1271 L89.3424 96.6773 L90.1445 96.6872 L90.2426 96.664 L90.3853 96.5756 L90.4491 96.4551 L90.4713 96.3357 L90.4398 96.0893 L90.3294 95.9743 L88.8937 95.9025 L87.8896 95.6394 L86.3163 95.5709 L83.6257 95.9522 L81.9758 96.0594 L81.1995 95.6881 L80.948 94.9354 L81.0289 94.3496 L81.2504 93.6411 L81.8683 92.7768 L81.9808 92.0297 L81.96 91.4572 L82.3678 90.9863 L83.1534 90.6238 L84.2199 90.0159 L85.6741 88.1657 L86.8446 86.5819 L87.3886 85.2158 L87.9018 84.2674 L89.2184 82.7886 L89.6951 82.4338 L90.4247 82.3443 L91.5622 82.0215 L93.2365 82.2315 L95.2039 83.5733 L96.4783 84.3006 L97.6831 94.7265 L95.6118 95.1421 L94.1819 94.9243 L93.7561 95.1885 L92.9448 95.3543 L92.6401 95.5145 L91.9879 95.6041 L91.669 95.9058 L90.9379 96.4849 L90.8383 96.9801 L91.0526 97.4896 L91.2497 100.0538 L90.677 101.5701 L89.3725 104.0801 L89.1869 104.1575 L87.9505 105.8065 L87.5491 106.8056 L87.4474 107.6268 L87.1929 108.5143 L86.2533 109.6051 L82.7627 112.408 L80.075 114.1652 L78.0115 115.1113 L77.4796 114.7676 L75.3452 115.0748 L73.1255 115.14 L69.6048 115.7324 L65.8907 116.0828 L64.2221 116.4541 L62.3636 115.8363 L62.135 115.7601 L61.768 115.1555 M63.577 152.9622 L63.9039 152.2615 L64.726 152.1819 L65.3065 151.636 L65.4714 151.3012 L65.943 150.7165 L66.2526 150.4944 L66.578 150.1905 L66.9866 149.9286 L67.2073 149.8225 L67.5528 149.8822 L67.8868 150.0535 L68.9748 151.5808 L70.166 152.8318 L72.2166 154.0916 L72.9972 154.8088 L73.3491 155.1868 L70.2406 156.2676 L69.3009 156.766 L68.4595 157.575 L67.4947 158.7795 L66.5594 160.6317 L66.4669 160.7223 L66.3802 160.6549 L66.2999 159.415 L63.577 152.9622 M66.2369 119.4271 L66.4454 118.6159 L67.1787 117.8412 L68.5168 117.6157 L71.9607 117.283 L74.2242 117.4035 L77.9276 116.5171 L81.1558 114.8947 L83.2186 113.532 L83.6673 113.7873 L83.8809 115.4628 L83.4573 116.4663 L82.4445 119.3431 L81.8597 121.9635 L81.426 123.1815 L81.2533 124.175 L80.0155 123.8832 L79.341 123.0809 L79.1912 122.315 L79.364 120.7235 L79.7438 119.3144 L79.6141 118.7032 L79.1704 118.0799 L78.6472 118.4612 L77.7728 120.9799 L77.1815 122.0497 L77.2395 124.1352 L77.1636 124.7066 L77.0625 124.9022 L76.9371 124.942 L76.7278 124.9696 L76.4884 124.952 L76.3493 124.8868 L76.2891 124.8116 L76.0662 123.5009 L75.085 121.5612 L73.8429 120.9092 L72.5642 120.4417 L70.9702 120.2461 L69.0716 121.2573 L67.727 121.3513 L66.9859 120.9523 L66.3601 120.0858 L66.2369 119.4271 M69.87 148.8036 L69.8707 148.367 L70.0592 147.9769 L70.9 147.7691 L71.7572 147.7603 L72.1385 148.0145 L72.2123 148.3825 L72.2044 148.8688 L71.8941 149.2887 L70.9738 149.5473 L70.4255 149.4213 L70.0399 149.1473 L69.87 148.8036 M72.6194 151.2448 L73.3211 150.48 L73.858 150.353 L74.551 150.7033 L74.6915 150.8127 L74.7467 151.3531 L74.5733 151.7554 L74.0149 152.319 L73.6501 152.4229 L73.1828 152.3842 L73.0359 152.2195 L72.7492 151.9211 L72.6194 151.2448 M73.3254 146.3535 L73.3462 145.8097 L73.4308 145.0671 L73.6487 144.3476 L74.5166 143.164 L77.0926 140.2586 L80.0492 136.6535 L81.6102 135.5815 L83.8257 132.0406 L84.0708 131.688 L84.3625 131.551 L84.8556 131.4173 L86.4525 132.0759 L88.6207 133.7923 L89.2858 134.6024 L90.9336 136.227 L93.0444 138.7025 L93.602 139.2816 L93.9202 139.4529 L94.1252 139.2341 L94.0937 138.907 L93.4544 137.9676 L89.8879 133.5359 L89.2715 132.9037 L87.5929 131.4162 L84.7818 129.3517 L84.6191 129.1627 L84.4206 128.6985 L84.2278 127.4629 L84.7194 124.9895 L85.0757 123.6003 L85.6713 121.7447 L87.1349 119.3597 L88.1111 118.3816 L89.2313 117.7306 L91.3127 116.7956 L93.7167 115.276 L93.779 115.2682 L94.5173 114.6007 L95.1057 113.2512 L96.6044 111.5934 L97.4323 109.6394 L98.1848 108.5883 L98.5353 108.3518 L98.66 108.3363 L99.4477 108.553 L99.6735 108.333 L100.4454 108.4248 L100.7171 108.0722 L100.5666 107.3903 L98.8399 106.274 L96.8646 105.1909 L96.193 104.8947 L96.2618 104.4393 L97.0703 103.8259 L97.4172 102.5715 L99.4707 98.8048 L100.6662 97.2498 L102.9053 95.4339 L105.6977 93.4831 L106.1801 93.293 L110.0713 99.6095 L113.3167 104.6195 L115.3601 107.5417 L115.9156 107.3593 L119.2398 105.5622 L120.8317 104.2691 L121.6882 103.596 L122.3963 103.1871 L122.5662 103.2368 L123.0679 103.3827 L123.1511 103.407 L123.6284 105.8949 L124.4412 108.7851 L124.7989 111.095 L124.9193 112.0355 L124.9415 113.0567 L123.8714 115.6285 L122.6214 118.4678 L122.1799 119.4724 L121.8867 119.9786 L120.431 122.4918 L117.8243 126.1732 L112.167 130.1452 L108.9775 131.9267 L104.1266 134.5438 L98.3174 138.1853 L93.8342 141.8334 L91.0834 143.4215 L89.8384 143.8415 L86.1013 145.7147 L83.3412 146.8298 L80.2993 148.3129 L79.154 148.8102 L78.1269 149.4534 L77.3385 149.7772 L76.778 149.744 L76.4167 149.6733 L75.4957 149.1904 L74.4772 148.409 L73.9827 147.9813 L73.7017 147.5769 L73.4179 146.9226 L73.3254 146.3535 M82.3886 84.0287 L83.3261 83.0141 L83.6752 82.0801 L84.9244 80.6178 L87.5305 79.2827 L89.1052 78.8383 L90.6032 79.3202 L92.4395 79.4904 L94.0027 78.3078 L95.4412 77.3484 L96.145 77.9254 L97.0037 78.2901 L98.0286 78.9179 L98.8579 79.0793 L99.6183 79.1169 L99.8154 79.6651 L99.6398 80.7715 L99.1044 81.5418 L98.2637 81.9044 L96.985 81.8137 L96.102 81.3528 L95.004 81.6855 L94.0127 81.3661 L92.8043 81.3307 L91.502 81.0511 L90.7537 81.1473 L90.0219 81.3694 L89.6714 81.6048 L89.3919 81.8955 L86.8897 83.759 L85.252 85.0975 L84.3152 85.7817 L83.5031 86.0259 L82.8559 85.848 L82.4947 85.0566 L82.4803 84.536 L82.3886 84.0287 M82.9534 306.2427 L84.308 303.4453 L86.9535 298.4769 L87.6896 296.8042 L89.1819 294.8994 L89.8097 295.1525 L93.7088 296.1092 L98.4543 297.5488 L98.8486 297.7908 L96.2203 298.71 L95.2871 298.9122 L89.8327 302.04 L87.3786 304.3501 L85.5803 306.9177 L84.9474 307.1542 L84.1403 307.1022 L83.3154 306.7863 L82.9534 306.2427 M93.1125 35.7019 L93.1956 35.4643 L93.3304 35.2675 L93.6457 35.0851 L94.1059 35.2211 L94.9602 35.6146 L95.2577 35.8412 L95.4046 36.2568 L95.272 36.5321 L95.176 36.7653 L94.8671 37.3545 L94.6829 37.6043 L94.4019 37.7634 L94.189 37.7911 L93.8342 37.6662 L93.6421 37.4175 L93.3648 36.6415 L93.2279 36.3099 L93.1619 35.9407 L93.1125 35.7019 M95.3645 100.8882 L95.9242 100.3069 L96.4374 99.8581 L96.6109 98.2423 L97.944 95.7765 L98.7138 95.3598 L98.1383 93.3295 L97.2122 84.5891 L99.5273 84.3559 L100.4361 83.538 L101.5356 81.229 L102.2739 80.5604 L103.1913 79.8054 L104.1567 79.4263 L104.3438 79.4031 L105.53 79.7601 L106.9527 80.9804 L108.2966 84.0585 L108.6586 84.9682 L109.4714 85.3395 L110.1057 86.0259 L109.672 87.3876 L110.3608 89.8501 L109.6305 90.2336 L108.9152 90.426 L107.5942 89.6235 L106.4818 89.6766 L105.3558 90.4016 L104.9946 91.4096 L103.8887 93.1548 L102.9304 93.8688 L101.4575 93.9882 L99.475 96.8552 L98.8794 98.1428 L97.3599 100.6318 L96.1722 102.251 L95.9307 102.3449 L95.7279 102.2443 L95.72 102.1813 L95.3645 100.8882 M99.2127 315.0856 L100.6619 315.1518 L102.1069 315.2181 L102.744 319.8914 L101.3098 320.066 L99.9029 320.2372 L99.2127 315.0856 M103.3117 40.9944 L103.3174 40.5965 L103.3468 40.235 L103.4192 39.7719 L103.7776 39.4812 L104.7308 39.2833 L104.8821 39.4337 L105.0763 40.0737 L105.0204 40.7236 L104.6377 41.5195 L104.27 42.0357 L103.9173 42.0489 L103.6084 41.8433 L103.392 41.4741 L103.3117 40.9944 M106.2568 295.3005 L106.3457 294.6078 L106.5377 294.1084 L106.7814 293.9415 L108.4378 293.451 L109.8089 293.1969 L112.9949 293.1019 L116.4746 293.1218 L116.5069 293.1218 L118.055 292.8157 L121.3986 291.3662 L126.6366 289.3896 L130.5665 287.3843 L133.007 286.1391 L134.3752 285.5558 L134.7687 285.5845 L135.2489 285.6795 L135.4991 285.8043 L135.8646 286.2275 L136.195 286.8098 L136.514 287.8925 L138.4735 297.5057 L138.9523 300.0336 L139.0305 300.6512 L139.3007 300.9296 L139.7035 301.0357 L143.7903 300.6678 L145.2202 300.8766 L145.8932 301.2611 L146.1828 301.6953 L146.3778 302.6112 L146.5039 302.9349 L146.61 303.2089 L147.3203 303.2752 L147.9861 303.1901 L150.3127 302.8907 L153.2656 302.198 L160.59 300.3175 L165.5484 299.4458 L168.0405 298.8128 L169.3357 298.5686 L174.4195 298.0725 L177.8348 297.9488 L180.1678 298.0283 L180.7333 298.0482 L181.149 298.1775 L181.6263 298.3255 L182.1094 298.8128 L182.3947 299.7784 L181.9245 302.0842 L181.607 304.2916 L182.227 306.0946 L182.1575 306.3819 L181.9783 306.6404 L181.511 306.889 L180.4072 307.1122 L178.2878 307.6193 L177.6656 307.9982 L177.4477 308.9826 L177.3854 309.7085 L177.4348 310.7105 L178.2405 311.0022 L178.5229 311.105 L178.8275 311.5358 L178.7823 312.107 L178.8217 312.4153 L178.5637 312.8406 L178.5386 312.9135 L178.5071 313.0052 L178.2096 313.1212 L174.3944 313.8217 L173.6082 314.3398 L172.1905 314.7143 L171.6314 314.8624 L171.8321 318.0188 L172.4858 321.4348 L172.4026 322.6224 L172.4915 323.3173 L172.3696 324.1956 L172.3403 324.2674 L172.1317 324.7756 L171.8737 325.201 L171.3096 325.6661 L168.3229 324.8718 L154.4346 320.5333 L149.0082 318.9545 L147.3554 318.2254 L146.7498 317.7536 L145.1715 316.387 L145.0117 316.3207 L141.1362 314.7077 L139.9637 314.0736 L138.427 313.6438 L135.9994 313.4394 L134.2097 313.2892 L132.0774 312.7865 L129.3401 311.4629 L123.7087 309.2224 L122.9669 308.2976 L122.658 307.7099 L121.8703 304.5943 L121.3857 303.2442 L121.0159 301.566 L120.474 300.3794 L119.877 300.1341 L118.5819 299.6027 L117.9088 299.2182 L116.8617 298.9608 L116.1062 299.7629 L115.4454 300.0833 L114.6018 300.1916 L113.7704 301.5439 L112.782 301.8621 L111.9463 302.0433 L110.2397 301.4577 L109.5574 300.9959 L108.2465 299.2812 L106.5377 296.2838 L106.3156 295.7634 L106.2568 295.3005 M118.3976 60.9933 L118.4679 60.2129 L118.4478 59.5033 L118.8119 59.0711 L119.6132 59.2436 L120.3543 59.0988 L120.6518 58.7694 L120.7686 58.2333 L120.5522 57.5204 L120.9105 57.3535 L121.3793 57.4242 L121.7541 58.2234 L122.344 58.954 L122.4458 59.7542 L123.5159 61.0872 L124.4641 61.3558 L126.0438 63.2857 L126.375 63.6062 L126.8552 63.8461 L127.0301 66.1573 L126.5484 66.3054 L126.514 66.5961 L127.1921 66.7884 L127.8436 68.7934 L128.5058 69.4975 L128.8836 70.6382 L128.708 71.4561 L129.515 73.6711 L130.0318 74.699 L132.0895 79.3932 L131.9304 80.4145 L131.671 81.4965 L130.7356 81.9309 L129.4899 83.0284 L128.642 83.5656 L126.2323 83.3943 L125.578 83.1975 L125.517 82.7996 L127.3806 79.8099 L127.1892 76.6609 L126.4911 71.7435 L126.2689 70.6039 L125.3766 69.4865 L124.4613 68.8211 L123.9689 67.9512 L124.0398 66.6049 L123.7811 66.0501 L123.2679 64.6264 L120.2139 62.0721 L119.1782 62.0953 L118.3976 60.9933 M135.3837 270.672 L135.4081 270.0566 L135.7886 269.007 L136.777 267.88 L138.3474 266.743 L141.552 265.2348 L142.45 265.2812 L143.6757 267.0922 L143.3811 267.743 L142.3662 268.3893 L140.5729 269.3937 L139.1308 270.1914 L137.3225 270.8112 L135.9384 270.988 L135.3837 270.672 M138.6492 58.6489 L138.6943 57.7459 L138.7696 57.3468 L138.9946 57.2197 L139.573 56.8948 L140.679 56.6516 L141.9662 56.6792 L144.2003 56.4471 L145.5793 56.1199 L148.2635 55.7751 L149.1602 56.1177 L149.6088 56.5167 L149.9744 57.1556 L150.6947 59.2347 L151.281 61.1602 L151.6315 63.4581 L152.0429 65.3482 L152.159 66.7044 L152.4894 67.6506 L152.9173 67.7965 L153.2097 67.3698 L153.1094 66.5828 L152.5088 64.5458 L151.1348 58.7561 L150.3363 56.4239 L150.2037 55.4479 L150.2009 55.4291 L150.737 54.9295 L151.4215 54.9726 L151.5684 55.218 L153.4799 58.4079 L153.6297 58.1858 L152.298 55.0953 L152.1404 54.7294 L152.6012 54.2696 L154.211 54.2696 L155.3234 54.5271 L155.4223 54.5691 L156.4731 55.0157 L156.8895 54.6012 L157.4464 54.4995 L158.9759 55.0864 L160.2223 55.4987 L161.3304 56.614 L161.7397 57.59 L161.4558 58.4831 L160.5363 59.7443 L160.241 61.4387 L160.5241 64.1556 L160.4882 65.8301 L160.7649 71.0085 L161.3641 74.6305 L161.7124 77.1384 L161.0308 77.4169 L160.924 77.46 L159.4203 77.6535 L158.1789 77.407 L157.3503 77.2887 L156.6078 76.6532 L156.6071 76.5858 L156.5906 75.5214 L155.9491 73.2467 L156.1656 71.8629 L156.1025 70.8847 L156.2702 68.6343 L155.9807 65.4709 L154.8203 61.2774 L154.3486 60.2516 L153.867 59.0512 L153.6226 59.017 L153.7824 60.2671 L153.8139 61.4067 L153.7824 62.4965 L153.6548 64.17 L153.8584 66.658 L154.2512 69.3992 L147.6679 70.2734 L145.5929 70.5067 L143.2356 70.7719 L141.0782 71.088 L140.9062 70.6979 L140.5808 69.9606 L139.9013 63.0193 L139.5558 61.074 L139.2856 59.7907 L138.6492 58.6489 M180.5276 118.7717 L180.6666 117.7715 L180.6802 117.671 L180.7741 117.7229 L181.4529 118.1009 L183.2591 118.2401 L184.8108 119.0524 L187.1653 119.1818 L185.1312 118.8215 L183.4791 117.8511 L182.3245 117.808 L181.6737 117.4809 L181.9482 117.262 L182.5352 116.4983 L183.2254 114.2459 L183.1143 111.4575 L183.2748 110.7977 L183.6411 110.6031 L183.9113 108.5032 L185.8472 104.5178 L185.8816 103.2545 L184.4259 101.4243 L182.9337 99.3044 L182.4269 98.7794 L182.1481 98.1273 L182.7301 97.7084 L183.9292 98.292 L185.4745 98.1428 L187.8434 99.8548 L188.9722 101.0385 L190.3376 102.9285 L190.8823 104.1376 L191.2586 105.171 L191.4134 106.3812 L191.4414 107.7539 L190.9497 111.9482 L190.1448 116.7569 L189.4209 117.9815 L189.1657 119.0469 L189.0238 119.8515 L189.4352 124.2248 L189.4252 124.4082 L189.0582 126.371 L188.5637 128.0034 L187.3029 132.7965 L186.2321 137.2503 L183.4361 143.4989 L182.9215 143.3552 L182.1094 142.6976 L182.5259 142.0412 L184.613 138.0074 L186.0099 133.6685 L185.5806 131.5256 L184.7047 130.7752 L184.1514 130.1132 L183.3687 127.8895 L182.8226 126.9391 L182.4821 126.0339 L182.5724 125.289 L182.328 124.4568 L181.2171 121.3933 L181.0071 120.235 L180.7225 119.5343 L180.5276 118.7717 M184.6367 142.4777 L184.684 142.2357 L184.9613 141.9649 L185.7462 141.3936 L186.9016 139.4396 L188.4089 133.5171 L189.7269 128.5615 L189.8022 127.9238 L190.2509 127.1601 L190.2115 126.8507 L189.9986 126.4075 L190.1828 124.4038 L190.2129 123.0433 L189.5936 119.3354 L189.8072 118.3252 L190.5842 116.7503 L191.25 114.3045 L191.9402 108.2159 L192.0915 106.5525 L191.6951 104.0514 L190.5627 102.0918 L189.4754 100.3842 L188.6181 99.4116 L187.6599 98.7971 L187.0628 98.3329 L186.9962 98.1936 L187.0492 97.8433 L188.836 98.0566 L193.8274 99.6294 L196.3934 100.5788 L198.9227 101.632 L200.5311 102.3604 L201.5374 102.9683 L203.5357 107.9108 L204.0625 108.9741 L204.0209 110.9469 L204.1714 112.8943 L204.8036 115.1732 L205.0552 116.7636 L205.3218 119.2381 L206.098 121.9768 L205.7189 123.5042 L207.1065 124.1198 L207.7386 123.5174 L207.8311 122.7537 L206.2034 120.7865 L205.7389 118.2899 L205.7289 117.0609 L205.2107 114.9146 L204.7398 112.3693 L204.0331 107.5914 L202.0004 103.1506 L201.6098 102.0808 L202.2792 101.7647 L203.459 101.6939 L204.2065 102.818 L204.7849 103.1374 L205.7497 103.8005 L205.8966 104.5686 L205.5927 105.6407 L205.544 107.1714 L205.7167 108.5264 L206.5861 109.5952 L207.0104 110.6219 L207.1925 111.2873 L206.5811 111.8576 L206.222 112.4942 L206.4119 113.6005 L207.5716 114.2636 L207.5286 115.8429 L207.3537 117.5372 L207.429 118.5109 L207.8347 119.3929 L209.6466 121.6474 L210.2236 121.6441 L211.5395 120.9235 L212.252 120.3024 L212.9916 121.7701 L212.0312 122.7891 L211.4492 123.0013 L211.0973 123.6081 L209.4022 125.0183 L208.3765 125.5421 L207.6519 125.5786 L206.5152 125.6239 L204.0467 125.2338 L201.6456 125.2614 L199.4725 125.5709 L196.9796 127.3204 L195.7791 127.0783 L195.4229 126.7324 L195.4014 125.9499 L195.6207 124.374 L195.4924 123.04 L195.0717 121.149 L194.2317 121.2242 L194.1958 121.8608 L193.669 122.9295 L193.2203 124.5519 L192.5602 125.8228 L191.4987 128.0155 L190.9648 130.1762 L190.9074 131.6062 L191.245 133.3546 L192.3395 137.5686 L192.6907 139.0915 L192.7115 140.3437 L192.0126 140.9824 L190.9483 141.1968 L190.1706 141.2178 L188.11 142.1893 L186.1705 142.9253 L185.2996 142.7849 L184.6367 142.4777 M185.1577 147.7868 L185.185 147.3912 L186.4643 145.1864 L187.4993 144.74 L190.038 143.237 L190.4673 142.3197 L191.0615 142.0865 L191.5417 142.1815 L191.7446 142.5473 L191.8528 143.3972 L191.6048 145.4296 L191.4271 146.5303 L192.0592 147.4608 L193.3501 152.1521 L193.4805 154.3325 L193.9701 155.5835 L195.0688 158.6502 L197.1072 164.483 L197.6097 165.9594 L197.1445 166.4092 L196.3876 166.1241 L195.2989 165.0842 L194.4861 164.4941 L193.8274 163.7846 L193.6525 163.0221 L192.8656 162.054 L190.3562 157.8358 L186.5317 151.2216 L185.1577 147.7868 M192.7423 142.4202 L192.9508 141.608 L193.1616 141.4245 L193.4583 141.3074 L193.7751 141.346 L194.3342 142.0589 L194.7104 142.5606 L195.3455 143.2635 L196.3697 143.7597 L197.0585 144.7134 L197.452 144.9289 L197.5796 145.2715 L197.3717 145.928 L197.5839 146.7436 L197.8749 147.8045 L197.4971 149.2235 L197.1208 150.5729 L196.4306 151.1111 L195.3268 151.2139 L194.909 150.8536 L194.6201 150.4193 L194.3091 149.2036 L193.5572 148.2013 L193.0275 147.7205 L192.7953 147.1215 L193.1178 145.9821 L193.287 144.8615 L193.1967 143.5387 L192.7423 142.4202 M194.4431 135.5694 L194.4703 135.1737 L194.6316 134.6035 L194.8323 134.3415 L196.9589 133.705 L197.4362 132.7424 L197.1724 130.6668 L197.4269 129.9297 L197.9888 129.5959 L198.9758 128.7582 L199.4789 128.567 L200.2781 129.3274 L200.9117 129.4036 L201.6693 129.2279 L202.1101 129.0135 L202.4276 129.0522 L202.6971 129.3318 L203.0275 130.7011 L203.077 131.0879 L202.9823 131.5709 L203.0533 132.739 L203.335 134.6609 L203.3056 135.607 L203.6539 135.9131 L203.8955 132.003 L203.7399 131.3952 L203.6611 130.7774 L203.8976 129.5694 L204.0883 129.2312 L204.3657 128.9605 L206.584 129.2257 L207.3709 129.2821 L209.6839 129.0632 L210.1576 128.9516 L210.2651 129.3428 L210.2006 130.1596 L209.1965 137.4857 L208.8818 138.0748 L208.7399 138.7998 L208.8482 139.6485 L208.7578 143.1651 L208.2934 146.3126 L208.3192 146.7933 L208.4668 149.5075 L208.4905 151.1685 L208.5163 152.9544 L208.8016 155.1945 L209.1026 156.3328 L209.1327 156.9561 L208.9564 157.5031 L206.2277 158.5099 L205.7468 157.6391 L204.9813 155.9195 L204.2596 154.4419 L204.0446 153.3711 L203.8618 150.0977 L203.7371 149.7274 L203.9729 147.5028 L204.1413 144.436 L204.3413 142.0865 L204.1908 140.9029 L203.9636 140.6918 L203.8381 141.5892 L203.8589 142.6888 L203.9413 143.8105 L203.6805 146.1479 L203.4604 148.9715 L202.7702 149.5108 L201.7481 149.428 L200.6737 149.565 L200.1935 149.47 L199.0804 148.0808 L199.5054 145.9081 L199.4481 143.0115 L199.1965 142.2589 L198.6468 141.6223 L198.0798 141.4599 L196.8126 141.3085 L196.1597 141.0786 L195.7339 140.1912 L195.5017 139.5933 L194.4431 135.5694 M196.8363 154.3425 L196.9273 154.0021 L197.0642 153.686 L198.0383 152.1477 L198.8123 151.4183 L200.0093 150.8746 L200.4472 150.6701 L200.673 152.6881 L200.8149 153.9568 L203.173 159.647 L207.257 170.7644 L207.4498 172.1314 L206.4614 172.6707 L205.5404 172.2673 L204.6072 171.1346 L204.6316 170.2163 L204.2381 167.1275 L203.5099 166.47 L202.8247 165.3748 L202.1266 165.2267 L201.7367 165.2511 L201.3353 165.7727 L201.3346 166.1086 L200.4351 166.3926 L200.0014 165.7086 L199.6724 164.9659 L199.4201 164.2134 L199.2352 163.3746 L199.5929 161.9888 L199.6703 161.3478 L200.516 159.6658 L200.6501 158.5629 L200.6436 157.1263 L200.2336 155.0055 L200.1684 154.4928 L200.0122 154.1712 L199.4753 154.2397 L199.0345 154.453 L198.8432 154.7912 L199.0704 155.5758 L198.7894 155.8896 L197.8003 155.7891 L197.204 155.3946 L196.9051 154.8829 L196.8363 154.3425 M234.2322 243.6281 L234.3641 242.9895 L234.7712 242.6083 L235.6815 242.0701 L236.2964 241.8812 L236.5143 241.9077 L236.8978 241.9541 L237.793 242.4049 L239.2559 243.3143 L240.6234 244.4845 L241.6978 245.7242 L242.3493 246.2546 L243.9792 248.3363 L244.5648 249.7528 L244.6981 250.1948 L245.0299 250.8489 L245.2292 251.377 L245.3288 251.9428 L245.2184 252.3273 L244.8787 252.5615 L244.2731 252.6775 L243.5728 252.251 L243.1069 251.84 L242.7464 251.6323 L242.2232 251.5085 L241.0212 250.5384 L240.4564 250.029 L239.9296 249.555 L238.2517 247.7407 L234.4344 244.3541 L234.2322 243.6281 M238.6574 180.5952 L238.8595 177.6115 L238.8058 176.9683 L238.7828 176.3495 L238.8681 175.6887 L239.0996 174.7748 L239.6687 172.7569 L241.1251 170.4019 L241.7702 169.8991 L242.3895 168.878 L242.6482 168.163 L243.7921 166.7949 L244.4006 166.3959 L245.2901 165.85 L245.8384 165.2102 L247.0855 164.8101 L248.299 164.1879 L248.4739 163.9968 L249.9331 162.3811 L250.5997 161.7346 L251.0764 161.4738 L251.9006 161.3401 L252.7034 161.5202 L253.1943 161.781 L253.5742 162.1954 L253.734 162.7358 L253.3542 163.1248 L252.5894 163.7846 L251.7071 164.3084 L250.546 164.9173 L249.0222 165.8942 L248.0689 166.6468 L247.3077 167.3364 L245.8162 168.5686 L243.5291 171.1556 L242.3895 172.9547 L241.9186 173.8067 L241.4935 174.7825 L241.0621 175.5693 L240.9388 176.5462 L240.8893 177.6446 L241.0327 178.3784 L241.3287 178.9011 L241.8978 179.3752 L242.2712 179.6813 L242.7722 180.0913 L243.8215 180.8328 L244.6673 181.3477 L246.143 181.8008 L247.1049 181.9776 L248.2037 182.0572 L249.7877 181.9445 L250.4922 181.7997 L250.9696 181.7025 L253.4308 181.5643 L254.0171 181.5223 L254.6242 181.4163 L255.0306 181.1002 L256.019 180.5035 L256.2376 180.362 L257.6926 179.6095 L258.309 179.3608 L258.562 179.4614 L258.676 179.5067 L258.9555 179.7874 L258.9576 180.1963 L258.8257 180.5388 L258.0725 181.7102 L257.3041 182.4594 L256.1122 183.4319 L255.1188 184.0364 L254.1598 184.4298 L252.9915 184.537 L252.1507 184.6574 L248.0316 184.8641 L244.7339 184.5359 L242.7528 184.1977 L242.254 184.0474 L241.3086 183.7623 L240.9137 183.3126 L239.9834 182.2992 L239.2638 181.7666 L238.8932 181.214 L238.6574 180.5952 M252.6202 160.2924 L253.0653 159.9167 L253.6882 159.6261 L255.065 158.7652 L256.7171 158.0866 L258.3412 158.1585 L258.3728 157.1893 L262.0131 155.2984 L262.9284 154.6862 L263.9956 154.2795 L265.2184 153.8949 L265.5588 154.0319 L266.4368 154.3867 L268.0502 153.7988 L268.9325 153.3567 L269.0393 152.9279 L269.4729 152.5754 L269.8048 152.1134 L269.7632 151.5741 L269.6894 150.6259 L269.6815 150.5254 L269.3475 149.7429 L269.4536 149.3561 L270.7903 150.6701 L270.8183 150.6978 L271.0125 150.763 L272.7355 151.3398 L273.6651 151.4636 L274.6155 151.1232 L275.5903 151.2172 L276.0619 151.6018 L277.6631 152.4892 L279.2321 153.1191 L281.2927 153.8474 L283.0 154.3104 L284.3446 154.989 L284.7911 155.5128 L284.9947 156.3284 L284.8778 157.1351 L284.2794 158.0026 L283.3383 158.3983 L281.927 158.0435 L281.4339 157.5462 L281.0003 157.3749 L280.1244 156.5218 L277.7506 155.9294 L276.7328 154.8122 L276.1013 153.7667 L274.6026 152.4372 L272.5915 152.6936 L272.1485 153.5059 L272.0869 154.1878 L271.745 154.4762 L270.7072 155.052 L269.1497 155.7471 L267.1901 157.1661 L265.3409 157.3926 L263.8859 157.3241 L262.3657 156.7019 L261.7658 156.6179 L260.5431 157.1605 L259.3425 158.4668 L258.9899 159.352 L258.5885 159.7498 L257.6145 160.3355 L256.5186 160.5157 L255.2757 160.8759 L253.681 161.0594 L253.5814 161.034 L253.1986 160.9345 L252.7542 160.6074 L252.6202 160.2924 M261.8755 177.9938 L261.9715 177.7773 L262.2174 177.4413 L262.4001 177.259 L264.1834 176.4467 L264.9051 176.344 L265.5581 176.3241 L265.91 176.428 L266.0548 176.5683 L266.1852 176.7639 L266.1867 176.986 L265.6154 178.5961 L265.5294 179.0846 L265.4943 180.7687 L265.3803 181.3621 L265.2542 181.7191 L264.5597 182.2616 L263.853 182.4318 L263.6179 182.4617 L263.0531 182.2639 L262.899 182.1732 L262.8158 182.1235 L262.5836 181.8152 L262.5499 181.5433 L262.6703 181.2472 L262.7205 180.9753 L262.7306 180.477 L262.6646 179.9598 L262.6503 179.9145 L262.3973 179.1033 L262.1729 178.7298 L262.064 178.479 L261.8769 178.3276 L261.8762 178.0933 L261.8755 177.9938 M289.9402 176.4324 L289.9495 175.9174 L290.2878 175.0101 L290.8418 174.1968 L291.2927 172.9381 L292.0323 171.9424 L292.6659 170.7124 L293.8665 169.1112 L293.9195 169.0261 L295.1401 167.0767 L296.0303 166.6148 L296.1507 165.2466 L296.646 164.6278 L296.4976 163.7194 L296.4776 162.8021 L296.5062 161.928 L296.5686 161.3301 L296.6338 160.708 L296.6682 159.9012 L296.5908 159.6868 L296.3292 159.2945 L295.2885 158.8282 L293.8199 158.3309 L290.8562 157.4854 L290.5387 157.2335 L290.1882 156.8688 L290.1373 156.4046 L290.3322 156.0941 L291.1486 155.5647 L292.0101 153.9734 L292.3061 153.6496 L292.8587 153.518 L293.4866 153.5888 L296.198 155.0067 L296.9277 155.2266 L297.8616 155.1072 L298.5267 154.9182 L300.2827 155.6543 L302.2122 156.8389 L303.0529 157.5529 L303.9195 157.8634 L304.4348 158.175 L304.8441 158.6922 L304.7867 159.2415 L304.2692 159.4382 L303.9783 159.9112 L304.2012 160.8527 L304.5982 161.3025 L305.3938 161.634 L306.9348 161.8551 L308.2916 162.2297 L308.5468 163.1005 L308.3274 163.9371 L307.5677 164.0343 L306.8388 163.7989 L306.479 163.7846 L306.1937 164.0332 L305.9271 164.8079 L305.7034 165.7218 L305.2863 166.9485 L305.158 167.806 L304.9738 168.5708 L304.8742 170.1732 L304.9803 171.1147 L305.1351 173.6056 L304.9975 175.4267 L305.1129 176.4733 L305.2411 177.0534 L305.6597 178.9442 L305.7945 179.8581 L305.8776 181.8428 L305.8095 181.9146 L305.4512 182.2926 L305.358 182.9402 L305.6411 184.0187 L306.1736 184.9215 L306.3636 185.1514 L307.6673 186.6742 L307.9261 187.062 L307.8257 187.4455 L307.4423 187.5748 L306.8818 187.567 L306.7692 187.5206 L305.4856 186.988 L302.5534 186.1338 L301.8373 185.9172 L300.6777 185.2851 L299.2908 184.5911 L296.0174 182.3357 L294.0356 180.6438 L293.3096 179.9244 L292.3226 179.3896 L290.6462 177.827 L290.2978 177.2313 L289.9402 176.4324 M296.3356 256.3249 L296.3528 255.2741 L297.3885 253.6941 L297.8265 253.5814 L298.3268 253.7162 L298.7539 254.2288 L298.8672 255.1216 L298.7245 256.1326 L298.283 256.927 L297.5985 257.2419 L296.8732 256.9944 L296.3356 256.3249 M298.9797 137.4073 L299.1209 136.9486 L299.3882 136.6944 L299.9287 136.5187 L300.988 136.3894 L301.7607 136.4988 L302.2316 136.8646 L302.4358 137.4062 L302.5369 137.8327 L302.8107 138.7003 L302.8795 139.2429 L303.0178 139.4651 L303.627 139.7778 L304.3072 140.274 L304.748 141.367 L305.0118 142.5761 L305.0182 142.7264 L305.0046 142.7197 L304.8763 142.9684 L305.7551 145.7478 L305.8719 146.664 L306.6933 148.7129 L306.795 148.766 L307.0853 149.2136 L307.1613 149.0235 L306.9047 146.8519 L306.7513 146.0396 L306.3342 145.4318 L305.993 144.5543 L305.8948 143.6249 L305.267 142.3827 L304.9953 141.4256 L304.9975 140.8951 L305.2282 140.3647 L306.0453 140.4442 L306.5743 140.9261 L307.076 141.8036 L307.357 142.7883 L307.782 143.6746 L308.5202 144.6316 L309.6376 145.9236 L309.7186 146.0175 L310.6611 146.9326 L310.5601 147.5923 L310.5465 147.6785 L310.3694 148.3317 L310.4053 149.1594 L310.8038 149.6457 L311.0912 150.6237 L311.7764 150.9066 L312.4903 151.8626 L312.7311 152.6782 L312.9282 155.4078 L312.8063 157.4589 L312.3197 159.1044 L311.7069 159.8548 L311.1263 160.477 L310.1078 160.7212 L308.8793 160.8781 L307.5154 160.5986 L307.0631 160.1852 L306.8302 159.3741 L306.3492 158.7696 L305.6024 157.46 L304.1918 156.787 L303.6923 156.2842 L302.9605 155.4365 L302.911 154.7967 L303.0658 154.2861 L303.5819 153.3987 L303.6801 152.7544 L303.2543 151.5266 L303.0773 150.7685 L302.9246 148.7041 L302.2337 144.8715 L301.5342 142.0765 L301.2804 140.5835 L301.0618 139.9049 L300.2698 139.3103 L299.2556 138.5544 L299.0614 138.0483 L298.9797 137.4073 M302.8322 134.2012 L302.9978 131.8251 L302.8451 128.7836 L302.8788 127.2099 L303.2407 126.3788 L303.7288 125.9234 L305.6755 125.2824 L306.4668 124.6624 L307.061 124.5033 L308.8743 124.5961 L309.5803 125.0636 L309.7172 125.3388 L309.2105 126.0859 L308.5525 127.6608 L308.4027 128.9361 L308.6019 130.0358 L308.6665 130.3928 L308.0192 131.2946 L306.7449 133.0717 L305.9794 133.7978 L305.3078 134.0409 L303.9854 134.6808 L303.2178 134.7792 L302.8322 134.2012 M303.688 137.4028 L303.7553 137.0392 L303.8227 136.6734 L304.4026 136.122 L305.4397 135.6909 L305.7508 135.7385 L306.4725 135.8479 L307.0466 135.0709 L307.1262 133.9901 L309.4735 130.6138 L309.7752 130.0048 L310.0118 127.7392 L310.0254 126.9557 L310.0333 126.507 L310.2834 125.646 L310.9306 124.9067 L310.993 124.8635 L311.8516 124.2679 L312.2358 123.6788 L312.5412 122.9273 L313.212 122.6565 L313.9402 122.8046 L314.5258 122.6079 L315.2253 122.5272 L316.1284 123.0919 L317.4953 123.376 L319.2326 123.2179 L320.8711 123.1627 L321.5807 123.3008 L321.9713 123.5274 L322.286 124.0988 L322.5906 124.9951 L323.1009 125.835 L323.6291 126.0583 L325.3651 126.4517 L326.1865 126.381 L326.709 125.8814 L327.2565 125.5974 L328.0493 125.3078 L328.7768 125.3344 L329.2462 125.4592 L329.5308 125.5344 L329.9192 126.1467 L329.9493 126.2439 L330.0913 126.7037 L331.5312 128.2111 L333.2234 129.6611 L333.8133 130.1187 L334.3867 130.8238 L334.5888 131.0724 L334.9715 131.8096 L334.7766 133.4276 L334.4928 133.9448 L334.5057 134.2034 L335.0102 134.4001 L335.8022 134.5792 L337.2436 135.0665 L337.6823 135.6777 L337.7367 136.3198 L337.1512 137.0835 L337.1655 138.0715 L337.7274 139.8309 L339.1466 140.4564 L340.6324 141.6223 L341.362 142.0765 L341.4953 142.1594 L341.7361 142.3097 L343.4162 142.2909 L343.6348 140.3271 L343.7401 139.8607 L343.8842 139.2241 L344.5493 138.9434 L344.6053 138.9755 L345.269 139.3501 L345.3055 139.895 L345.4245 140.4111 L345.3127 141.5295 L345.6811 142.6623 L346.0222 143.4237 L346.5598 143.5398 L347.1389 143.3773 L348.0915 142.9728 L348.9544 143.3552 L349.7436 144.0117 L350.6775 144.8693 L351.4093 145.76 L351.9518 146.7557 L352.2787 147.4586 L352.2758 148.4698 L352.5073 149.1517 L353.1402 149.6335 L353.1187 150.4557 L353.3215 151.1995 L353.8139 151.8902 L354.8403 152.7069 L356.2802 153.2329 L357.1848 153.7811 L357.8535 154.5425 L358.5222 154.2784 L359.2669 154.0894 L359.803 154.3403 L360.0532 154.6585 L359.9342 155.0542 L359.4912 155.5813 L358.8096 155.9537 L358.2355 156.5638 L358.08 157.9352 L358.4928 159.3221 L359.0712 160.9643 L358.9178 161.6075 L358.1775 161.7479 L357.2235 161.402 L356.2286 160.9445 L355.218 160.7897 L353.3617 160.2206 L351.6931 159.8515 L350.2926 159.1586 L349.4174 158.3552 L348.8183 157.8645 L347.9202 157.1296 L346.6351 155.9294 L344.482 154.4408 L343.9 153.7844 L343.2391 153.3092 L342.0587 153.1125 L340.5098 152.5566 L339.5716 151.7653 L337.1755 146.2374 L331.5369 137.0459 L331.2452 135.0897 L331.5147 134.546 L331.8817 134.2178 L332.4242 134.0487 L333.0012 133.9315 L333.6778 133.9304 L333.6047 133.7182 L332.5999 133.7713 L332.1476 133.8718 L332.1949 133.9083 L331.8566 133.9083 L331.6487 133.9359 L331.5548 133.863 L331.0968 133.9216 L330.322 133.9514 L327.898 130.9144 L326.8029 130.2447 L325.6589 129.618 L324.0735 129.0058 L323.0701 128.6709 L321.9383 128.6123 L320.6618 128.3305 L319.8067 128.283 L318.7947 128.3393 L317.8508 128.5339 L316.6818 128.8776 L313.7059 129.1914 L312.4344 129.5992 L311.5162 129.8335 L310.7242 130.4359 L310.0096 131.4559 L309.4986 132.9811 L309.2793 133.6663 L309.1897 134.1327 L308.9195 135.8843 L308.918 137.7919 L309.7731 140.6244 L309.9193 141.1084 L310.6905 142.628 L311.6631 144.7598 L312.3405 145.686 L312.3985 146.8397 L312.1727 147.768 L311.3886 147.4266 L311.4015 146.6275 L311.0066 145.5655 L309.8383 144.7035 L308.698 143.2314 L308.3403 142.4302 L308.3231 142.3915 L308.0572 141.6323 L307.4817 140.8973 L306.7793 140.2155 L305.9135 139.5756 L304.2821 138.5765 L303.8414 138.0615 L303.688 137.4028 M316.4481 144.1819 L316.4553 143.4668 L316.742 143.1684 L317.3426 142.9264 L318.3353 142.7308 L319.1753 142.7253 L320.3486 142.6004 L322.3161 142.7728 L323.4069 143.1972 L323.966 143.7586 L324.0513 143.8801 L324.5423 144.5819 L324.854 145.2351 L326.0653 146.9989 L326.3269 147.5404 L326.5068 148.1913 L326.6731 148.598 L326.8165 149.1318 L326.7383 149.8446 L326.5792 150.5187 L326.5126 151.4294 L326.2918 152.0825 L326.2352 152.4715 L326.2997 153.0241 L326.4387 153.5689 L326.7878 153.991 L326.8724 154.4883 L327.4544 156.2378 L327.7145 157.2865 L327.8694 157.6877 L328.0313 157.9452 L328.4277 158.4038 L328.4958 158.574 L328.7768 159.2735 L330.6991 165.7926 L330.3156 166.8225 L331.1492 171.6385 L332.3519 182.2318 L332.7927 183.9049 L333.8649 191.2668 L334.2398 192.5796 L334.6332 193.6271 L336.2989 196.8572 L337.6027 199.5424 L338.1059 200.6784 L338.2549 201.9768 L337.5525 204.3769 L336.7906 206.2544 L335.8983 207.0754 L335.2676 207.0168 L334.7551 207.0466 L333.2707 206.6455 L331.3484 205.6797 L330.0755 204.6233 L328.1252 203.0542 L327.1025 201.9249 L325.9772 200.0795 L324.4011 197.3821 L322.9518 194.7499 L322.7067 193.9885 L322.3705 192.9464 L321.6065 190.3264 L321.0739 188.4975 L321.1098 187.4157 L321.0575 187.0189 L320.9069 185.8708 L320.8073 183.9292 L320.7808 181.0505 L320.6819 179.4537 L321.0094 178.0955 L321.3606 177.291 L321.785 176.4268 L321.8416 176.0533 L321.6488 175.4942 L321.4309 175.0322 L321.289 174.5869 L321.2589 174.0156 L321.3413 173.6343 L321.3463 172.7105 L321.413 171.7137 L321.0926 169.4526 L321.1291 166.775 L321.3793 165.4047 L321.7584 164.7162 L322.2222 163.8752 L322.5182 162.9812 L322.3454 160.2847 L322.3368 159.1685 L322.0867 158.0568 L321.4983 157.4037 L321.4108 157.3075 L320.932 156.2212 L320.8962 155.9117 L320.8446 155.4719 L320.6081 154.5757 L320.2031 153.7523 L319.6505 152.8251 L319.4032 152.4284 L319.0814 151.5841 L319.0126 151.2437 L318.9101 150.7364 L318.5646 150.0247 L317.7088 147.9427 L317.6164 147.421 L316.6395 144.8571 L316.4481 144.1819 M318.1568 75.5766 L318.4098 75.1168 L319.0807 75.0185 L321.0825 75.3058 L323.455 76.2199 L324.973 76.4763 L325.7457 76.7162 L326.6445 77.1185 L327.2293 77.7972 L327.2974 78.8416 L326.7828 79.8961 L326.7011 81.0544 L327.5977 82.3078 L328.847 83.7911 L329.2355 84.7703 L329.887 86.0867 L330.8216 87.056 L331.2223 87.8562 L332.2888 89.2378 L332.8056 90.5807 L333.2428 92.0573 L333.2571 93.1316 L333.3152 94.2214 L333.1811 95.2106 L332.3332 95.53 L331.8129 95.3731 L331.4437 94.4314 L330.965 91.6871 L330.3443 90.1839 L329.1667 87.9557 L327.3727 85.1229 L326.623 84.0331 L325.7844 82.5222 L325.6568 82.3951 L325.0949 81.8325 L324.4584 81.4589 L323.0306 81.2301 L321.2151 80.4985 L320.474 79.5125 L320.2941 78.6637 L320.0791 78.1099 L319.2047 76.9151 L318.5654 76.2873 L318.1568 75.5766 M355.1542 150.658 L355.155 150.0711 L355.3492 149.8855 L355.805 149.9164 L356.6823 150.5375 L357.8456 150.9641 L359.4669 151.331 L360.3033 151.773 L360.9369 151.8493 L361.3971 151.7907 L362.0586 151.4702 L362.9087 151.1398 L363.5093 151.0415 L364.2504 150.921 L365.9677 150.9486 L367.5574 151.3487 L368.391 151.9587 L369.8023 153.0008 L370.4323 153.3037 L371.5181 153.5932 L373.4232 154.232 L374.2253 154.0043 L375.0008 153.717 L375.7555 153.3943 L375.9713 153.2462 L376.741 152.7168 L378.2111 151.478 L378.7794 151.0083 L380.2703 149.9197 L381.2988 148.6831 L383.5952 145.9633 L384.6947 144.2636 L385.4659 143.1043 L386.2708 142.1417 L386.8757 141.6975 L388.1394 141.177 L388.7995 141.4997 L389.1428 142.0743 L389.0267 143.3663 L387.5366 144.9267 L387.695 145.7534 L386.3654 147.0884 L386.1425 147.7968 L386.5346 148.5074 L386.4851 148.9329 L386.5668 149.607 L386.207 150.4756 L385.7777 151.173 L385.4057 152.1897 L384.2145 153.5645 L383.1781 154.5834 L382.0901 155.4266 L381.44 156.0786 L380.6229 156.6389 L379.0167 158.6348 L378.4741 159.0105 L377.8448 159.2348 L377.0757 159.4559 L376.64 159.3907 L375.3986 158.5309 L374.78 158.248 L374.1658 158.175 L372.3295 158.5917 L371.592 159.1431 L370.5728 159.7763 L369.732 160.3952 L369.4597 160.8583 L369.0017 161.4749 L368.1982 162.0717 L367.136 162.2772 L365.9104 162.4043 L363.8798 162.5192 L362.7044 162.3877 L361.4795 162.1037 L360.7807 161.6694 L360.3606 161.1069 L359.8668 159.6305 L359.8023 159.1287 L359.6676 158.5441 L359.7987 157.9164 L360.1499 157.365 L361.0738 156.7119 L361.5891 156.1538 L361.6314 155.7206 L361.1254 153.9004 L360.423 153.328 L358.2498 153.0462 L357.6327 152.5942 L357.1353 152.2847 L355.9341 151.7675 L355.4424 151.4249 L355.2094 151.0536 L355.1542 150.658 M383.282 124.5099 L383.6203 124.1584 L383.9149 123.9661 L383.9866 123.9186 L384.4202 123.8733 L385.2057 124.0656 L386.8714 125.1631 L389.0066 126.9048 L389.8803 128.0034 L390.0817 128.588 L390.1892 129.4224 L392.4262 133.2949 L392.5502 133.8431 L393.6317 136.1396 L393.6905 136.6834 L393.5034 137.0978 L393.0827 137.7289 L391.842 137.9609 L390.9368 138.4273 L390.0495 139.2849 L389.3399 139.8784 L388.7894 140.5979 L387.8562 141.1117 L386.5245 141.5969 L386.1282 141.3969 L386.0637 141.3074 L385.7763 140.9106 L385.9762 140.1237 L386.417 139.0948 L387.7745 136.6082 L388.6411 134.1327 L388.459 133.5657 L387.6147 132.0306 L387.1854 130.9332 L386.8937 130.0491 L386.4593 129.5429 L385.7218 129.0411 L384.6073 127.5823 L383.3931 125.1465 L383.282 124.5099 M387.5753 166.5131 L387.6126 165.5262 L387.7344 164.6466 L388.7493 163.1204 L389.5363 161.7545 L389.6517 160.6306 L389.3858 159.4128 L389.5958 157.4224 L389.9635 156.7539 L390.6049 156.661 L392.404 156.6621 L393.0497 156.6179 L393.449 156.2742 L393.9736 154.3756 L394.4775 153.991 L395.3283 154.0585 L396.594 154.7027 L398.092 154.5105 L398.7213 154.4729 L399.3406 154.8166 L399.8143 154.863 L400.4924 154.506 L400.8715 153.9082 L401.169 153.0992 L401.3145 152.1444 L401.1367 151.9477 L400.8464 151.625 L399.1564 151.2371 L397.333 151.3398 L395.6486 150.921 L394.1299 150.7851 L392.6046 150.5486 L391.8291 150.4281 L392.1495 149.4014 L392.4921 148.6853 L393.3888 147.0608 L395.8809 144.5454 L396.4621 143.6989 L396.6958 142.6358 L397.3122 141.8069 L397.9766 140.463 L398.3579 140.0033 L398.96 139.8662 L399.6301 139.8707 L401.7646 140.3194 L401.8836 140.3757 L402.2326 140.5404 L402.9164 141.8279 L403.641 142.113 L404.7986 142.1053 L407.0635 141.9141 L411.4908 141.8146 L415.9833 141.8887 L416.3911 141.8577 L416.8491 142.0699 L417.2268 142.3639 L418.1127 144.3587 L418.1987 144.3498 L418.2088 142.2058 L418.16 141.2576 L418.0841 139.7845 L418.2532 136.6701 L418.8338 135.1826 L419.0187 133.2563 L420.3167 130.185 L420.2938 129.1063 L420.3654 128.0852 L420.3877 127.7613 L419.9411 126.8496 L419.9935 126.129 L419.9039 125.4493 L419.5584 124.8182 L418.9413 124.2988 L417.7916 123.5252 L417.3171 123.3251 L416.9753 123.313 L416.6491 123.6799 L415.5174 124.7276 L414.2201 125.1343 L411.9932 125.4172 L409.7161 125.8505 L408.7227 126.182 L407.0599 127.3513 L406.1926 128.42 L405.4888 129.1693 L404.8143 129.4909 L403.3909 129.6932 L402.3079 129.0301 L401.9703 128.5725 L401.7008 128.1062 L401.632 127.4033 L401.6155 126.644 L401.8449 126.0936 L402.4111 125.751 L403.0282 125.5012 L403.5586 125.194 L404.084 124.7663 L404.5025 124.6016 L405.005 124.6281 L406.0772 125.2017 L407.2541 125.583 L408.2045 125.5919 L408.836 125.4504 L409.3993 125.1686 L409.8079 124.6856 L409.7383 123.9827 L408.8195 121.8961 L408.9076 121.3745 L409.2323 121.0219 L410.0401 120.6185 L410.4873 120.2715 L411.0435 119.9886 L411.7402 119.6901 L411.9215 119.7156 L412.3401 119.773 L413.031 119.6249 L413.8166 119.9399 L414.3427 119.9908 L415.6751 119.3674 L416.4026 119.5852 L416.9072 119.8615 L417.3444 120.4759 L417.6268 121.2816 L417.11 122.1691 L417.2856 122.6079 L418.6338 123.4677 L421.0614 124.5276 L422.0412 125.1852 L422.1688 125.5808 L422.158 126.1224 L421.9308 126.7733 L421.8821 127.569 L422.1551 128.1371 L422.3286 128.7262 L422.8346 129.092 L423.3227 128.9991 L423.9893 128.7438 L424.8465 129.008 L426.0456 131.9035 L426.0714 133.4209 L426.2062 135.2644 L425.8836 136.6016 L425.8485 140.5094 L425.7883 141.7129 L425.8141 143.1065 L426.1417 143.7962 L426.7523 144.4394 L427.5916 144.719 L428.0503 145.2958 L428.2646 145.96 L428.294 146.8342 L428.8208 147.4033 L429.6343 148.083 L431.0743 148.5759 L431.2026 149.2567 L430.7059 150.1872 L430.4837 150.8381 L429.9497 151.4581 L427.5293 153.5479 L425.4636 155.0531 L425.068 155.1536 L424.797 155.2233 L424.4036 155.1956 L424.061 155.0033 L423.7943 154.5038 L423.1686 153.5114 L422.2304 152.1422 L421.8111 151.9919 L421.4642 152.0582 L421.3051 152.2681 L421.1001 152.4328 L420.9288 152.6295 L420.7869 152.7323 L420.5281 153.1931 L420.073 153.8496 L419.7433 154.7691 L419.4394 155.8399 L419.2208 156.419 L419.0975 156.7461 L418.7241 157.2788 L418.2611 157.4888 L417.5616 157.4921 L416.8255 157.2534 L416.2248 156.7737 L415.9819 156.5019 L415.7819 156.2786 L415.6823 156.1107 L415.4443 155.7095 L415.5411 154.8652 L415.5561 154.201 L416.0019 152.6881 L416.3667 151.9421 L416.6434 151.0801 L417.2684 149.9529 L417.5938 149.407 L417.449 148.8942 L416.4872 148.8522 L415.9862 148.9063 L415.5676 149.2666 L415.1404 149.7805 L414.6064 150.0258 L414.2832 150.0524 L413.5922 150.028 L413.0561 149.8656 L411.766 150.0921 L411.4857 150.4988 L411.4198 150.774 L411.991 152.1167 L411.6943 152.8362 L411.3804 154.2541 L411.3173 154.7304 L410.7066 157.0224 L410.587 157.6634 L410.1892 158.8591 L409.4144 160.3632 L408.2504 160.0637 L400.726 157.691 L400.1519 157.4644 L399.4803 157.4755 L396.3661 165.6599 L395.238 168.5133 L393.5464 168.2625 L388.196 167.2082 L387.7796 166.7418 L387.5753 166.5131 M389.2697 145.3633 L389.4582 144.7278 L389.8438 144.0139 L390.3763 143.6989 L390.5139 143.1231 L390.2265 142.5728 L389.742 141.4554 L389.8581 140.7194 L390.2695 140.1856 L390.6415 139.8077 L390.9655 139.6065 L391.321 139.4209 L392.1789 139.3457 L392.6871 139.1402 L393.125 138.7931 L393.9342 138.2848 L394.9183 137.7786 L395.6931 137.1884 L396.3009 137.1807 L396.6162 137.3807 L396.713 137.5896 L396.7997 137.8935 L396.5001 138.5887 L396.1668 139.1921 L395.7325 139.8585 L395.0616 141.02 L394.4503 141.8621 L394.1184 142.4136 L393.8281 143.0259 L393.4167 143.7122 L393.1902 144.5488 L392.9057 145.15 L392.5351 145.6429 L391.9754 146.2374 L391.5639 146.5866 L391.1167 146.8861 L390.4759 147.084 L390.2272 147.0663 L389.9993 147.0508 L389.5255 146.5922 L389.3585 146.1435 L389.2697 145.3633 M390.5942 128.9041 L390.6852 128.6024 L390.7942 128.4377 L391.3281 128.1592 L391.9711 128.0498 L392.7645 128.4244 L393.1021 128.4278 L393.4461 128.2719 L394.0618 127.9934 L396.8879 126.7136 L397.3022 126.6716 L397.9601 126.4141 L398.6195 126.0737 L399.4782 125.7853 L400.2602 126.0704 L400.5583 126.3622 L401.1891 127.821 L401.1984 128.3261 L401.0414 128.9516 L400.7977 129.4412 L400.3512 129.9816 L400.1713 130.2944 L399.9613 130.532 L399.7262 131.1929 L399.5018 132.2782 L399.2746 132.949 L399.0338 133.5005 L398.3465 134.5537 L398.0526 134.9052 L397.5516 135.3196 L395.5748 136.4369 L394.6302 136.7641 L394.3714 136.6381 L394.2037 136.4292 L394.1736 136.2855 L392.6684 133.4983 L392.2319 132.5887 L391.6163 131.4305 L391.0916 130.5475 L390.8092 129.7949 L390.7863 129.5573 L390.6221 129.1395 L390.5942 128.9041 M395.4207 296.9821 L395.6637 296.2551 L396.0163 295.8894 L396.2994 295.7888 L397.2728 295.4662 L398.7944 295.0177 L400.3189 294.5536 L400.8006 294.3934 L401.9724 294.0741 L402.634 293.8465 L403.1472 293.7825 L403.6253 293.7029 L403.8811 293.3494 L404.165 293.1439 L404.7971 292.9814 L406.022 292.4544 L407.1036 291.7617 L408.1629 291.333 L409.2388 291.0888 L410.4845 290.553 L411.2177 289.868 L411.7366 289.1808 L412.5186 288.572 L413.3292 288.1433 L413.7134 287.9953 L414.266 288.224 L414.6616 288.3543 L414.9354 288.8327 L414.9168 289.2548 L414.6258 289.8393 L414.2803 290.0138 L413.8617 290.4911 L413.2697 290.7088 L412.839 291.0137 L412.3344 291.3363 L411.756 291.6656 L411.1711 291.9374 L410.4214 292.2732 L409.671 292.5539 L409.152 293.1284 L408.7578 293.5747 L408.2418 293.9515 L407.6856 294.3194 L405.6572 295.1293 L403.9248 295.6364 L402.3932 296.0551 L401.1482 296.6042 L399.6903 297.1356 L398.6131 297.6207 L397.768 298.0316 L396.8958 298.2173 L395.8852 297.9819 L395.6099 297.4593 L395.4207 296.9821 M423.8832 112.3372 L423.8925 111.8531 L424.1728 111.4685 L424.5555 111.0563 L425.397 110.2871 L426.0169 109.7112 L427.0935 109.0625 L427.9321 108.7442 L428.7427 108.4402 L429.3326 108.3651 L429.8823 108.5253 L430.6385 109.6814 L431.8218 111.5238 L433.3535 113.5927 L434.134 115.1754 L434.721 117.2841 L434.9318 119.0348 L435.0758 120.4649 L435.2371 122.2078 L435.2048 123.4787 L435.0988 125.173 L434.8063 126.6495 L434.5182 128.1901 L434.2788 129.7639 L434.0143 130.9564 L433.6904 132.381 L433.2252 133.2386 L432.6346 133.6508 L431.8956 133.7348 L431.3036 133.7105 L430.794 133.3944 L430.3934 133.075 L430.2092 132.4871 L430.0242 131.74 L429.711 130.217 L429.3118 128.3349 L428.8409 125.73 L428.4044 123.4113 L428.1686 121.6176 L427.9701 120.645 L427.4447 119.5774 L426.5445 118.0699 L425.2981 116.2154 L424.8401 115.0583 L424.5304 114.3156 L424.2466 113.438 L424.1104 112.7893 L423.8832 112.3372 M428.4309 155.1105 L429.7461 154.0032 L430.918 153.1942 L432.0211 152.0118 L432.8647 151.2072 L435.0099 150.0888 L435.7761 149.0434 L436.0707 148.0388 L436.0062 147.9305 L434.8716 146.0595 L435.3489 145.1975 L436.3165 145.0682 L437.7908 145.9114 L438.0281 145.8108 L439.1913 145.3202 L440.1518 144.3266 L441.0964 143.458 L442.1565 142.386 L443.1951 141.2234 L443.6695 140.2464 L443.5728 139.3446 L442.8188 138.8197 L441.4104 138.466 L439.1455 138.1521 L439.0451 137.9687 L438.8258 137.5675 L438.6696 136.8293 L438.8172 136.1982 L438.7563 135.3704 L438.8301 134.5836 L438.934 133.9978 L438.8387 133.1822 L438.8143 132.465 L439.1548 132.0483 L439.3691 131.5035 L439.9712 130.9177 L440.4421 130.0468 L440.7001 128.6621 L441.2613 127.3778 L441.3423 127.1944 L441.8763 126.1069 L441.7759 124.7199 L441.4132 123.1715 L440.7352 121.5226 L440.4636 120.8893 L440.2392 119.2381 L439.7676 117.8135 L439.7698 116.3027 L440.1331 115.896 L440.4277 115.5666 L441.1323 115.1179 L442.254 115.1179 L443.046 114.8339 L443.7369 114.9057 L444.5368 115.8032 L444.6336 117.7118 L444.8027 119.8559 L445.9624 123.586 L446.1079 124.9608 L446.4756 126.6142 L446.348 128.0885 L447.1135 129.7352 L447.1429 131.4438 L447.3034 133.1071 L446.9637 135.029 L446.5551 136.1419 L446.6103 137.0746 L446.472 138.4848 L446.1373 141.0885 L445.9602 142.1119 L445.6635 142.8601 L445.2557 143.2204 L444.7196 143.3309 L443.924 143.3033 L443.3248 143.0004 L442.9062 142.6523 L442.5435 142.8457 L442.3343 143.2966 L443.2137 143.6934 L444.2773 143.9796 L444.9862 144.6217 L445.093 145.1533 L445.1374 145.3776 L444.7232 146.7215 L444.1225 147.6288 L443.3613 148.4366 L442.5228 149.4445 L441.4211 150.5618 L440.3166 152.1134 L439.9102 152.3422 L437.8854 153.4893 L437.0132 154.2386 L435.804 154.9879 L434.248 155.4399 L432.8181 155.8355 L430.0916 156.0134 L428.9083 155.9261 L428.4675 155.5426 L428.4309 155.1105 M437.555 56.3741 L437.6998 56.1675 L437.7808 55.7275 L437.8876 55.3528 L437.8754 54.8565 L437.7758 54.3768 L437.7916 54.0596 L438.0223 53.5843 L438.2123 53.4804 L438.4373 53.4793 L438.7957 53.7424 L439.4229 54.4785 L440.3001 55.5452 L441.4648 56.3819 L441.4154 57.107 L441.8927 58.199 L441.3358 58.8799 L440.2743 59.0501 L438.0661 57.0307 L437.6375 56.6217 L437.555 56.3741 M438.9541 79.0959 L439.1627 78.7687 L439.8085 78.5576 L440.4657 78.5543 L440.9273 78.2105 L441.7974 77.3882 L442.3651 77.4191 L443.1521 77.8226 L444.3189 78.6747 L445.7696 80.3072 L446.6999 80.9494 L447.1049 81.4589 L447.7801 81.5253 L448.3434 81.4048 L448.9118 81.5617 L449.4386 82.2072 L449.7124 83.0295 L449.855 83.7435 L449.7332 84.4763 L449.263 85.0975 L449.0451 85.6424 L448.9598 86.3918 L449.0028 88.3204 L449.3891 89.2223 L450.1173 90.0811 L450.7502 90.3409 L451.4347 90.384 L452.2124 90.8106 L452.4317 91.3654 L452.5055 92.0231 L452.9492 92.1126 L453.6717 92.4243 L453.944 94.0412 L454.6335 94.8315 L456.4454 96.1313 L456.5723 96.7745 L457.1127 97.1426 L457.5234 97.3249 L458.018 97.6156 L458.4143 98.2986 L457.9155 98.9342 L457.4732 99.0701 L455.8613 99.8272 L455.4105 100.1356 L454.7683 100.4273 L454.0716 100.172 L453.8121 99.7432 L453.7856 99.2514 L454.1318 98.2445 L453.9827 98.0942 L453.2058 98.7441 L452.5406 98.6987 L451.9106 98.2986 L451.6225 97.6841 L451.7336 96.8276 L451.325 96.0484 L450.7954 95.4151 L450.3854 94.0744 L449.5361 90.6161 L448.3792 88.4862 L446.7221 85.2213 L446.2011 83.9093 L445.7574 83.0439 L444.8371 81.7795 L444.1139 80.9594 L443.5785 80.7571 L443.0782 80.7516 L442.3694 81.0577 L441.5752 81.2722 L440.6786 81.3064 L439.9059 80.9649 L439.6106 80.5106 L439.6171 80.1017 L438.9541 79.0959 M441.472 61.0021 L441.6161 60.4837 L441.9322 60.1941 L442.3185 60.3511 L443.3714 61.3194 L445.0916 62.5849 L445.9524 63.3233 L447.2504 64.2175 L447.965 64.8475 L448.4194 65.7649 L450.0148 67.0305 L451.0011 68.1071 L452.5234 69.4389 L453.405 70.3873 L454.3088 71.6009 L455.4585 72.4553 L456.9242 73.1185 L458.3548 73.5904 L459.9603 74.0458 L461.5594 74.6725 L463.5548 75.7082 L464.9345 76.252 L466.2311 76.4686 L466.9607 76.8842 L467.5499 77.3219 L469.3618 77.8049 L469.7166 78.2713 L469.9252 79.139 L470.0334 80.1481 L470.2119 80.8378 L470.0571 81.6214 L469.9008 82.9997 L469.5647 84.7372 L469.0479 86.331 L468.7039 88.2829 L468.2394 90.0944 L467.7176 91.5047 L467.3091 93.2112 L465.9129 94.8348 L465.0091 95.1586 L464.1561 95.2625 L463.1678 95.309 L462.5506 95.1664 L461.7558 94.5143 L460.5502 93.0145 L457.9621 89.9518 L456.8812 88.4354 L456.3903 87.5656 L456.3895 87.266 L456.1172 86.4128 L456.0727 85.7087 L456.6175 84.7637 L456.6526 83.969 L456.3788 83.4153 L453.6917 79.6397 L453.2502 78.7698 L452.8302 77.6126 L451.8748 76.515 L450.923 75.8861 L449.9869 75.108 L448.6552 73.2843 L448.2488 72.2088 L446.9637 70.9554 L446.0197 69.8457 L445.06 68.9504 L444.5339 68.3292 L443.7921 66.1871 L442.8861 65.157 L442.388 64.5259 L441.8483 63.089 L441.5731 61.7449 L441.472 61.0021 M449.9066 86.1431 L450.1725 85.5363 L450.6821 85.2666 L451.2763 84.7947 L452.0131 84.4653 L452.9714 84.6454 L453.7813 86.0469 L454.4938 88.484 L454.703 89.0223 L455.1008 89.6401 L455.7946 90.4028 L456.6547 91.0703 L457.6116 92.0009 L458.7971 93.3029 L459.6672 94.4071 L459.9983 95.4018 L460.4506 96.3733 L461.2856 97.3912 L462.8725 98.1627 L464.2679 98.0411 L465.252 97.7129 L466.3773 97.4167 L467.0582 96.6695 L467.9785 96.0804 L468.7361 95.0592 L469.9395 94.3209 L470.829 94.343 L471.1945 94.5508 L471.6941 95.0503 L471.8862 95.4792 L471.9958 95.7234 L471.6489 96.6308 L471.1917 97.0254 L470.7315 97.6101 L470.0313 97.8809 L469.5066 98.4677 L468.8623 98.6656 L467.9054 99.4227 L468.0108 99.9775 L467.8803 100.466 L467.5277 101.432 L466.4848 102.1504 L465.2377 102.6256 L463.9196 102.7605 L462.7076 103.0025 L461.6346 103.0876 L460.7366 102.976 L460.3768 102.892 L459.3361 102.65 L458.1427 102.2211 L457.2568 101.7735 L457.1923 101.0297 L457.4439 100.7302 L457.5306 100.6263 L458.5333 100.1411 L459.2816 99.6691 L459.7898 99.1143 L459.7052 98.4501 L457.4582 94.1938 L456.0254 93.3339 L455.1496 92.5359 L453.8895 91.4947 L453.0932 90.9333 L451.9035 89.7341 L450.9989 88.7183 L450.5201 88.1049 L450.0457 87.0372 L449.9066 86.1431" stroke-dasharray="" fill="none" fill-opacity="1.0" stroke="#ff0000" stroke-opacity="1.0" stroke-width="1.0px" stroke-linecap="butt" stroke-linejoin="miter" stroke-dashoffset="0.0px"/>
</g>
</svg>