<?xml version="1.0" standalone="no"?>
<!DOCTYPE svg PUBLIC "-//W3C//DTD SVG 1.1//EN" "http://www.w3.org/Graphics/SVG/1.1/DTD/svg11.dtd">
<svg width="512px" height="512px" version="1.1" xmlns="http://www.w3.org/2000/svg" xmlns:inkscape="http://www.inkscape.org/namespaces/inkscape">
<g id="layer" inkscape:groupmode="layer" inkscape:label="layer">
<path d="M0.0 115.9566 L11.2364 186.9796 L11.3903 192.1842 L7.1831 192.9849 L10.5694 213.6431 L13.2374 213.6431 L13.6992 215.0844 L13.8531 215.9652 L12.8269 216.1253 L14.7253 227.2552 L17.7012 226.7748 L20.8309 249.7551 L17.7525 250.3156 L18.3169 253.8387 L16.9316 254.0789 L17.0855 254.9597 L15.9567 255.1999 L18.8299 272.8955 L7.3883 275.2176 L13.5966 315.6532 L24.8329 314.1319 L27.6549 332.7083 L28.6297 332.5481 L28.7836 333.4289 L29.9637 333.2688 L30.3742 337.0321 L33.504 336.7118 L36.839 359.3717 L33.7092 359.7721 L35.351 372.4232 L32.17 373.0638 L35.2997 395.9639 L40.3792 395.2433 L51.8721 467.4668 L218.4684 443.5257 L274.4451 435.2785 L286.2972 465.0647 L324.8293 459.2195 L330.4732 426.9512 L504.9708 402.2094 L512.0 392.601 L467.5675 56.624 L458.2808 49.4176 L366.3886 61.5884 L276.8053 73.9994 L264.7993 44.5332 L225.8054 49.4976 L223.0861 81.446 L86.4022 100.9834 L1.6418 115.7164 L0.0 115.9566 M52.18 183.7767 L52.9496 183.5365 L52.18 181.6949 L53.3087 181.2945 L52.2313 178.2518 L81.3228 147.5046 L82.0924 148.3053 L85.8379 144.4619 L393.2226 99.2218 L393.3252 99.9424 L394.7105 99.7022 L394.8131 100.583 L397.4298 100.2627 L431.2929 121.5616 L430.7798 122.5225 L435.3462 125.1648 L465.1047 331.3471 L464.3864 331.4271 L464.489 332.7883 L463.7707 332.8684 L464.1299 334.9502 L440.1692 368.0194 L439.3482 367.3788 L436.1672 371.5425 L129.7573 417.9032 L129.6547 417.2627 L128.1668 417.5029 L128.0128 416.7022 L125.6527 416.462 L120.9837 413.8997 L119.4957 414.3801 L88.7624 397.0049 L88.1467 395.4835 L83.6316 392.7611 L82.9133 392.8412 L82.6055 390.6793 L81.8359 390.7594 L78.1417 367.5389 L78.0904 365.8575 L81.9898 365.377 L81.8872 364.3361 L82.9646 364.0959 L82.2976 357.8504 L105.4887 354.5675 L105.6426 355.6084 L113.8519 354.4074 L113.698 353.2864 L138.9927 349.6031 L139.1466 350.6441 L174.4463 344.4786 L174.6516 345.5195 L186.1958 343.758 L186.0419 342.7171 L188.1968 342.3167 L187.9916 341.0356 L208.9251 338.1531 L209.0791 339.4342 L211.3366 339.1139 L211.4905 340.2349 L223.24 338.3933 L223.0348 337.3523 L225.3436 336.952 L225.0358 335.3506 L246.072 332.6282 L246.2259 334.0695 L248.5347 333.7492 L248.6373 334.8702 L249.6122 334.7901 L250.1253 339.9947 L251.254 339.8345 L251.408 340.7954 L255.1534 340.2349 L255.3587 341.9964 L279.5759 339.5143 L279.1654 336.6317 L320.2116 330.7866 L320.5708 333.589 L343.4027 330.2261 L343.1975 329.2652 L344.3263 329.1051 L344.0697 327.4236 L348.0204 326.703 L347.6613 323.8204 L371.3655 320.3774 L371.7759 323.34 L382.9097 321.8187 L382.7045 320.7777 L383.9359 320.5375 L383.4228 316.6941 L399.0203 298.358 L403.638 282.6641 L407.4861 282.3438 L404.972 258.1625 L402.0475 258.5628 L395.9932 218.7677 L398.9177 218.2873 L395.4801 195.4671 L394.454 195.6272 L394.1974 194.4262 L390.3493 194.9866 L382.0375 181.2945 L361.1552 168.323 L360.4882 164.3996 L359.5134 164.5597 L359.2568 163.5188 L348.1231 165.1202 L348.4822 168.0028 L324.6754 171.4458 L324.3163 168.5633 L320.3143 169.1238 L320.109 167.5223 L295.9431 170.0846 L296.4049 172.9672 L256.0257 178.9725 L255.6152 176.17 L232.6806 179.4529 L232.8346 180.4138 L231.7571 180.654 L232.0136 182.2554 L228.2682 182.8959 L228.4221 183.8568 L227.2933 184.097 L227.4472 189.8621 L225.2923 190.2625 L225.6002 191.7838 L204.6666 194.9866 L204.4101 193.5454 L202.1012 193.7856 L201.9986 192.7447 L190.2491 194.4262 L190.403 195.4671 L188.1968 195.7874 L188.3507 196.8283 L61.4667 215.4047 L60.184 209.2393 L59.2091 209.4795 L59.0552 208.3585 L54.848 208.8389 L52.18 183.7767" stroke-dasharray="" fill="none" fill-opacity="1.0" stroke="#ff0000" stroke-opacity="1.0" stroke-width="1.0px" stroke-linecap="butt" stroke-linejoin="miter" stroke-dashoffset="0.0px"/>
</g>
</svg>