<?xml version="1.0" standalone="no"?>
<!DOCTYPE svg PUBLIC "-//W3C//DTD SVG 1.1//EN" "http://www.w3.org/Graphics/SVG/1.1/DTD/svg11.dtd">
<svg width="512px" height="512px" version="1.1" xmlns="http://www.w3.org/2000/svg" xmlns:inkscape="http://www.inkscape.org/namespaces/inkscape">
<g id="layer" inkscape:groupmode="layer" inkscape:label="layer">
<path d="M49.983 44.8573 L50.1341 48.486 L58.7528 46.5204 L62.2303 47.8814 L63.8492 51.3323 L67.0376 53.7287 L66.5622 58.816 L67.9536 59.465 L68.7311 61.7106 L68.153 65.1279 L68.7482 67.9844 L68.153 72.082 L65.0076 70.0078 L65.2945 73.0839 L67.063 74.2071 L72.3052 83.4923 L85.5788 95.6123 L83.8705 97.5989 L82.8753 101.5323 L84.9766 102.1612 L84.7072 107.9313 L86.0827 111.1737 L91.6799 124.3673 L92.7233 127.0619 L92.421 128.9266 L95.1425 131.1445 L100.9505 135.4272 L102.7539 137.5432 L128.8225 162.7302 L130.7248 162.319 L131.732 163.9029 L130.6265 165.0366 L133.1516 167.6131 L134.3148 167.7907 L134.8666 168.2543 L142.4573 177.4558 L150.1242 196.1672 L162.729 207.3135 L164.9235 209.8006 L165.8417 210.9267 L165.4756 213.4183 L163.9613 214.8252 L161.0524 218.0012 L166.9294 224.662 L164.012 227.4283 L159.9304 229.3899 L158.2243 227.6927 L153.7342 223.9122 L153.0084 225.5934 L147.5981 223.4432 L138.1089 214.8222 L131.2978 210.8608 L123.2633 197.4994 L121.7071 198.0083 L120.1509 198.5172 L119.2296 198.4384 L114.6171 194.9697 L111.622 195.8678 L109.1815 196.9705 L108.5825 198.158 L106.6419 203.6992 L104.9567 208.5109 L104.0033 209.379 L102.4148 210.8259 L97.6778 219.261 L96.3808 222.7213 L96.2994 222.9388 L96.7922 223.6029 L97.0173 226.4465 L98.2609 228.8352 L100.4878 233.1116 L99.5528 234.9673 L100.1363 237.5106 L102.6313 241.9903 L102.9485 242.5525 L106.9867 244.7006 L108.2836 245.3905 L112.0308 248.9213 L112.8983 249.7763 L114.3914 251.2493 L117.2477 252.8017 L118.7247 253.6043 L117.9938 257.565 L116.0503 260.4062 L122.6342 269.0904 L125.6549 272.6438 L136.1185 270.3968 L136.5375 270.2795 L136.9647 272.9551 L137.6303 274.9532 L138.7903 273.9257 L138.3402 270.8133 L138.3339 269.3717 L137.6113 267.197 L137.5542 266.0847 L137.2176 262.8933 L137.4046 260.0271 L140.9839 262.8629 L141.4875 270.6187 L141.7277 270.9933 L142.2516 271.8098 L145.3406 276.3957 L142.7236 278.8541 L143.5673 279.9794 L143.5631 282.369 L144.4382 285.0433 L146.6565 287.982 L148.9816 292.0553 L149.3968 291.4573 L149.2234 283.7151 L151.5821 286.395 L152.3745 287.7716 L154.221 290.015 L155.7002 292.9057 L159.1561 297.0014 L160.2334 295.738 L160.9741 296.8108 L162.1417 295.6617 L163.6456 298.0058 L164.4044 296.3096 L166.1593 299.9778 L171.1651 300.9902 L171.3704 302.441 L174.085 307.7409 L178.7504 312.0063 L180.6727 310.9715 L182.5414 310.773 L183.0989 310.7222 L185.1286 311.4109 L185.921 309.1612 L185.9222 308.8081 L186.926 305.5605 L187.4001 304.59 L187.3443 304.2025 L187.2642 304.1626 L187.1415 303.9197 L187.2819 303.7696 L187.1174 302.6255 L188.4574 301.9682 L188.5291 301.9039 L188.5541 301.9208 L194.3583 299.0731 L191.9733 296.3301 L197.8145 287.7017 L199.9821 289.7441 L200.8448 290.2967 L203.2752 287.3312 L203.9056 285.1291 L204.5746 284.363 L205.0507 283.8094 L205.8174 279.732 L203.3921 277.6396 L204.5556 274.9028 L203.9075 272.4258 L203.137 271.8138 L202.9221 272.0887 L202.9614 272.1126 L202.9224 272.4782 L202.8039 272.7765 L202.5947 273.0713 L202.2369 273.8304 L201.776 274.3457 L201.3725 274.7602 L200.6778 276.3298 L200.3821 277.0286 L200.3552 277.059 L200.3837 277.5364 L197.3509 277.4301 L190.0463 278.295 L189.1344 279.939 L189.0913 280.3769 L188.7021 280.7176 L185.8817 285.8015 L188.3982 288.0758 L186.3032 290.2653 L184.998 289.1401 L184.7771 289.3192 L184.5011 289.3047 L183.5074 288.4194 L183.4627 288.386 L183.3835 288.4833 L183.5299 288.6155 L182.6042 289.5621 L182.5487 289.5052 L182.3477 289.7516 L180.4176 288.5945 L179.2576 287.612 L180.0372 285.5072 L178.1071 283.8962 L180.68 281.0418 L180.6851 281.0148 L180.879 280.7964 L180.9912 280.6966 L181.1687 280.4996 L182.1227 279.093 L181.6124 277.1728 L182.0356 276.4396 L182.3658 275.5732 L182.807 274.8075 L183.0206 274.6963 L183.0441 274.6898 L184.4618 272.2298 L186.0404 272.7989 L186.1824 272.4722 L186.1888 272.4089 L186.3041 272.1929 L186.6303 271.4432 L186.5526 270.9225 L187.3871 269.7044 L187.9212 268.4769 L190.3112 259.8366 L190.4085 259.6535 L190.5594 258.8524 L191.0881 257.7386 L191.8668 256.6885 L193.2005 253.8123 L193.1666 253.3973 L193.4838 252.7728 L193.9181 252.2654 L194.2109 251.6339 L194.4892 251.598 L194.8562 251.1695 L195.4879 250.949 L197.0472 250.964 L199.0481 251.0947 L200.0474 251.3212 L200.2116 251.4788 L200.57 252.2645 L203.3084 254.4219 L203.8073 254.802 L203.9163 254.9242 L204.4219 255.4899 L205.2329 256.8881 L205.9882 259.7877 L206.1774 260.1633 L207.1314 261.4722 L207.9447 262.6703 L208.428 263.3093 L208.6812 263.8375 L208.9855 264.9823 L209.1183 265.2626 L209.1925 265.4193 L208.9567 266.0228 L208.5367 268.0 L209.8108 268.4988 L212.0161 267.0234 L212.5752 267.0309 L213.6823 267.8953 L213.7374 267.9043 L213.8195 268.0115 L215.1966 269.1827 L215.2892 269.1762 L215.454 269.4017 L216.4977 270.6437 L215.9453 271.1579 L215.5481 271.4308 L212.5207 277.1029 L215.5459 279.1599 L215.7513 279.6746 L216.3345 280.5126 L216.3652 280.8537 L216.5326 281.1749 L214.9428 285.6778 L215.2394 286.6663 L214.9098 287.176 L214.6588 287.5641 L214.3932 287.6399 L214.0845 287.3386 L211.9027 291.4563 L209.3649 294.9815 L205.3049 298.704 L204.3826 297.4567 L204.1065 297.2632 L203.4428 297.4392 L202.4736 297.6088 L201.9694 297.6677 L201.3827 297.2213 L200.5155 297.553 L200.829 299.3359 L199.7511 301.1428 L198.5815 302.6639 L196.8903 299.9045 L198.6345 296.9455 L198.4579 294.8099 L195.5801 298.9514 L195.2641 300.7079 L191.0713 302.5876 L193.6499 304.5391 L195.7354 306.0253 L194.892 308.3922 L194.7244 309.241 L194.5548 309.7372 L194.2293 310.2524 L193.3678 312.698 L188.6327 310.6883 L189.4156 313.7353 L188.7246 316.8672 L188.9997 317.1045 L189.7335 319.1502 L190.6894 320.6966 L191.6972 319.9974 L194.0147 321.2497 L195.4793 320.7679 L195.8875 321.4706 L197.2843 319.5736 L198.1793 317.8411 L197.4982 317.4302 L197.6339 316.0174 L199.2306 311.755 L200.5846 312.2587 L201.4226 310.9815 L202.453 311.1875 L203.4802 311.5834 L204.4247 312.9678 L204.5505 313.3115 L204.6269 315.9775 L204.2507 316.8971 L204.5287 319.421 L203.5173 323.3257 L203.3357 325.5004 L204.265 327.0019 L205.2862 328.7572 L206.9105 329.5701 L207.7615 329.0041 L210.588 327.8008 L210.801 327.2817 L211.162 326.403 L212.836 322.3497 L214.842 317.4801 L216.9547 313.7154 L219.7378 309.8794 L220.41 308.9533 L219.5695 308.3772 L219.2478 307.4626 L219.4047 306.7539 L218.4171 304.8244 L218.3353 304.6668 L218.4653 304.5386 L218.7641 304.3192 L218.9581 304.2469 L219.1831 304.2075 L219.1999 304.2459 L219.4259 304.0793 L219.2243 303.5387 L219.7879 303.5048 L220.3286 303.3427 L220.2991 303.2903 L220.7051 303.1342 L223.0305 301.4171 L224.5043 304.1581 L224.5477 304.1272 L224.7902 303.8923 L225.5027 301.9672 L225.3993 301.5243 L225.5258 301.1428 L225.1572 300.2451 L225.4678 297.6477 L225.4513 297.541 L225.2545 297.0986 L225.2583 297.0457 L223.0689 294.8338 L223.9173 292.2139 L224.3259 290.78 L225.5882 291.5671 L225.7657 291.5596 L225.793 291.4673 L226.733 291.3775 L227.6959 291.3745 L228.4819 291.1556 L228.5878 291.0693 L226.3048 286.6439 L226.8402 284.1605 L228.0826 283.1032 L229.1922 283.6907 L230.0223 284.1306 L231.29 283.7117 L232.3867 286.2354 L232.8684 285.3775 L234.2237 283.3535 L234.3558 283.0029 L234.5536 282.8608 L234.8588 282.4049 L235.9821 282.7989 L236.4213 282.8982 L236.6914 283.0478 L237.8729 283.4623 L240.2893 286.191 L241.2487 287.2095 L241.2836 287.3142 L241.4113 287.4583 L242.6451 284.3506 L245.8013 286.977 L249.3051 288.5047 L249.5662 289.388 L249.6889 290.2249 L248.449 290.8105 L247.193 293.5705 L246.6564 295.1231 L246.103 296.4832 L250.9151 299.7963 L256.5504 303.5965 L257.4029 304.185 L256.88 299.6716 L263.5618 302.9028 L264.6159 302.852 L267.263 304.0254 L272.2707 307.4516 L273.8618 309.9003 L273.5845 311.7111 L277.5878 312.6267 L278.7269 312.8876 L300.027 324.9135 L300.4866 323.7146 L304.287 326.8618 L304.6024 326.9715 L305.6156 326.5621 L305.8546 326.6359 L306.7455 327.4607 L306.8657 328.0102 L306.5395 328.6011 L305.5367 329.7885 L305.0971 329.948 L304.4578 330.0583 L304.5044 330.5749 L304.5136 331.4765 L304.5035 332.407 L303.8943 333.3709 L303.4367 334.4475 L303.2218 334.5268 L303.1799 334.243 L303.2291 333.9259 L303.1524 333.7269 L303.0757 333.7269 L303.037 333.9388 L302.9926 334.1383 L302.8937 334.4924 L302.8031 334.995 L302.6446 335.2613 L301.6713 336.4251 L301.3816 337.0165 L301.555 337.1741 L301.9962 337.0599 L302.4852 336.7323 L303.1235 335.7879 L303.482 335.2638 L304.0579 334.5971 L304.9367 333.6701 L305.1738 333.6197 L305.3599 333.6706 L305.6201 333.704 L305.8552 333.7658 L306.4501 333.8017 L306.8498 334.3019 L307.1712 334.8284 L307.3259 335.4692 L308.096 335.5156 L308.2577 335.5515 L308.5546 335.6298 L308.7245 336.4042 L309.1641 336.9163 L309.522 336.8809 L310.0852 337.1223 L310.6439 337.5995 L310.9878 336.9507 L310.1245 336.6037 L309.3923 336.3364 L309.1866 336.1165 L309.1331 335.8472 L309.3128 335.4518 L309.4693 335.3431 L309.9492 335.1167 L311.0769 334.8284 L312.5104 334.4963 L313.7046 334.2769 L314.1126 334.2256 L314.3975 334.2375 L314.6403 334.3133 L315.4662 334.9626 L316.1755 335.4174 L316.972 335.8896 L317.6354 336.1803 L317.881 336.5294 L317.8433 336.7049 L317.7073 336.9831 L317.4233 337.1756 L317.192 337.3117 L316.8211 337.2783 L316.6376 337.3267 L316.4361 337.2958 L315.9518 337.1128 L315.3103 336.9746 L314.9803 336.9228 L313.9227 336.9996 L313.4983 337.1432 L313.1624 337.4708 L313.0638 337.6314 L312.9063 337.7486 L312.5922 337.8348 L312.3364 337.8009 L312.1814 337.7062 L311.7713 337.3471 L311.2433 338.2597 L312.0401 339.6489 L312.3209 340.0947 L312.8822 340.5315 L313.7414 340.8646 L314.5537 341.3573 L316.0142 341.9287 L316.4731 342.2005 L316.63 342.2369 L317.0516 342.1431 L317.5374 342.1456 L317.9881 341.9536 L318.3919 341.8255 L319.3656 341.1359 L319.6676 340.9838 L319.8533 340.9573 L320.0967 340.9608 L320.3126 340.9992 L320.536 341.0636 L320.7256 341.3034 L320.8742 341.5393 L321.1037 342.361 L321.3734 342.6816 L322.2916 342.724 L322.7721 342.6253 L323.224 342.1306 L322.883 341.6724 L322.4244 341.4415 L322.149 341.2386 L322.0795 341.0257 L322.1715 340.8097 L322.5622 339.625 L322.7166 338.6192 L322.9223 338.4103 L323.1819 338.3579 L325.255 338.9353 L325.9076 339.1712 L326.3792 339.5183 L326.7969 339.6998 L325.2667 336.5797 L327.4061 337.1532 L327.2508 338.0901 L327.4061 339.063 L329.5679 341.7068 L329.541 342.4832 L329.6364 342.6482 L329.464 342.9115 L328.6723 342.6378 L328.0365 342.3141 L327.6476 342.2189 L327.0498 342.1077 L326.5117 342.0434 L325.8943 342.2154 L325.075 342.724 L324.3653 343.3463 L325.1739 343.8829 L325.1174 344.4199 L325.2163 345.1828 L324.6934 345.5074 L324.637 345.7478 L324.952 345.9407 L325.1802 345.9283 L325.3501 346.0759 L326.2515 347.3793 L326.93 348.0001 L327.3801 348.3137 L327.8343 348.5097 L328.5407 348.8612 L328.9017 349.0676 L328.3075 349.1404 L328.2948 349.2277 L328.3252 349.2965 L328.9036 349.2795 L329.1959 349.3947 L329.5965 349.5717 L332.9304 349.7463 L335.6203 350.1003 L335.6307 351.6799 L335.904 352.4867 L336.5683 352.3994 L336.8427 352.3421 L337.153 352.2269 L337.4256 352.0983 L337.6183 351.9776 L337.8306 351.827 L338.2167 351.8185 L339.067 352.0544 L339.8093 352.4538 L340.3266 352.7978 L340.6641 353.1513 L341.5294 353.3044 L343.1803 354.5894 L344.0678 356.1306 L344.9381 357.5396 L345.1805 357.2998 L345.4442 357.0889 L345.8518 356.9154 L346.2299 356.8765 L346.7152 356.9109 L347.0103 357.2873 L346.9824 357.8273 L347.1091 358.6201 L347.2679 358.664 L347.8273 358.3972 L348.0635 358.5473 L348.3005 358.7737 L348.3867 359.1397 L348.2682 359.5814 L349.0431 359.6487 L349.5629 359.6333 L349.6409 358.6525 L348.8311 357.1348 L349.1037 356.0996 L349.5319 355.5856 L349.4929 354.7609 L349.3683 353.4999 L348.73 352.6981 L347.8505 351.9118 L345.9159 351.0083 L345.3878 350.189 L344.6474 349.098 L344.4709 347.845 L342.9074 346.5575 L341.3766 345.9412 L337.2136 344.3845 L339.3168 339.4629 L343.2019 341.1259 L343.9229 340.9663 L344.4842 341.1259 L344.2231 342.2927 L345.2034 342.2753 L346.6692 342.0339 L348.1525 341.6091 L351.7825 340.9718 L352.6135 340.9554 L353.0052 341.0301 L353.2112 343.6949 L353.3244 344.5072 L353.4236 345.2023 L354.0385 349.2741 L353.718 352.544 L352.8407 354.8576 L351.541 357.781 L351.3479 358.3753 L351.2741 358.9781 L351.2481 361.2627 L351.6696 363.0512 L352.3707 364.4846 L351.8303 364.6701 L352.0563 365.2515 L351.837 365.3447 L351.5546 365.3637 L351.0985 365.075 L350.4202 365.1273 L350.8652 365.5541 L351.3625 366.1644 L351.669 366.6794 L351.7086 367.1805 L351.5961 367.6128 L351.5352 368.2968 L351.5955 368.5466 L351.8462 369.3209 L352.1752 369.9551 L352.2455 370.2134 L352.8369 372.0222 L352.9507 372.5587 L352.9187 373.1042 L353.1846 373.3799 L354.5598 374.3187 L354.9753 374.4179 L355.1826 373.9806 L357.7036 371.9544 L357.9518 371.6393 L358.2994 371.1796 L358.9324 370.5385 L359.1932 370.3415 L359.4848 370.2174 L359.7913 370.182 L361.9829 370.6197 L362.956 370.7873 L364.7337 371.1866 L365.1159 371.3008 L365.5289 371.411 L365.9954 371.4788 L366.8572 371.6957 L367.4908 371.8074 L367.7846 372.0532 L367.6451 372.3782 L367.8543 372.4401 L368.962 371.4893 L370.7236 373.4013 L370.1395 374.5081 L370.1401 374.7086 L370.3258 374.7559 L371.3118 375.2585 L371.5952 375.4305 L371.7087 375.6339 L371.6152 375.8239 L371.4846 375.9345 L371.3936 376.1036 L370.7616 376.6664 L370.3049 376.8514 L369.794 376.9701 L369.2213 377.0528 L367.3244 377.4946 L365.1102 378.3067 L365.1793 378.6403 L365.365 379.5377 L365.6211 379.6334 L365.842 379.6753 L366.0436 379.7875 L366.1444 380.1549 L366.1111 380.5333 L366.0037 381.0867 L365.9213 381.8181 L366.0126 382.2633 L366.1428 382.6138 L366.2512 382.7364 L366.3419 383.1727 L366.4119 383.9808 L366.4867 384.3966 L366.5029 384.5861 L366.4753 384.7556 L366.2081 384.6962 L366.0227 384.7476 L365.6164 384.6648 L365.4145 384.8388 L363.8215 384.3951 L359.5897 384.9984 L356.2276 386.0358 L355.2612 386.2721 L354.7262 388.6352 L354.0423 390.1902 L353.5275 391.3603 L353.0845 392.5812 L352.2351 394.4183 L350.9457 396.6387 L350.8025 397.6871 L351.1169 398.7315 L353.7944 402.3557 L353.7174 402.3811 L352.7463 403.0063 L352.9979 403.3273 L352.9374 404.0153 L353.0331 404.3019 L353.262 404.7675 L353.8201 405.5148 L354.2505 406.3672 L354.1579 406.4998 L353.9164 406.6314 L352.9263 406.7052 L352.2801 406.6399 L351.4766 406.4978 L350.9663 406.1279 L350.7378 406.096 L350.5011 406.5427 L351.1118 406.8468 L351.4056 407.0158 L351.7993 407.1145 L352.1279 407.2346 L352.5571 407.2122 L353.1111 407.2565 L353.99 407.4664 L354.2587 407.4579 L354.4381 407.6494 L354.5472 407.8533 L354.8245 407.9973 L354.8549 408.2236 L354.7912 408.3752 L354.7665 408.5497 L355.4612 408.117 L356.6507 408.0646 L357.5584 408.5382 L356.8659 410.2441 L356.4434 410.6897 L355.8973 410.7241 L355.8587 411.094 L355.7338 411.415 L355.5053 411.7749 L355.1772 412.0925 L354.756 412.5381 L354.5592 412.9399 L354.8793 413.3402 L354.3446 414.1687 L353.9136 414.9987 L353.7291 415.9233 L353.2211 416.9098 L352.6639 417.1745 L352.3796 417.2817 L351.5524 417.8605 L351.051 417.9063 L350.4206 417.9143 L349.8089 418.4417 L349.4669 418.9093 L349.0228 419.9361 L348.3997 420.0144 L347.7097 420.7511 L347.5082 421.2107 L346.0014 421.7346 L345.9342 421.6419 L345.894 421.6524 L345.5812 421.4978 L345.5549 421.12 L345.3809 420.8802 L345.23 420.9231 L344.9035 421.277 L344.8411 421.4121 L343.753 422.2176 L342.7943 422.4838 L342.0783 422.08 L341.7465 421.6215 L341.3436 421.3961 L341.0565 421.3608 L341.0254 421.4046 L340.84 421.608 L340.4156 422.2615 L340.2451 422.4614 L339.9653 422.5705 L339.4299 422.569 L339.1567 422.736 L338.9821 423.1348 L338.3679 423.9772 L337.83 424.4224 L337.4611 424.6591 L336.8595 424.9811 L336.4225 425.2119 L336.1863 425.2707 L335.7353 425.1421 L335.5439 425.0021 L335.1988 424.9946 L334.1845 425.4731 L333.4838 425.9232 L333.3412 426.1914 L333.4825 426.4396 L333.4965 426.7582 L333.4784 427.0717 L333.4163 427.5203 L336.844 428.6498 L337.0015 429.5814 L336.7755 431.3245 L336.1616 432.6215 L339.1621 433.3153 L341.0349 433.748 L341.8089 430.5021 L342.1877 429.4792 L344.3936 430.2728 L344.8842 430.024 L345.7644 429.078 L346.0534 428.5885 L345.9456 428.1803 L345.52 428.3732 L345.365 428.2799 L345.0921 428.0327 L345.4065 427.3842 L345.6125 427.0483 L345.6658 426.8828 L345.6686 426.4651 L345.572 425.3934 L345.6528 424.6925 L346.4344 424.4747 L347.1193 424.4343 L348.175 424.2329 L348.4825 423.7629 L348.086 423.5331 L348.1519 423.236 L348.7601 422.6314 L348.9734 422.6513 L349.3753 422.8686 L349.4333 422.7874 L349.2472 422.5192 L349.2533 422.1842 L350.5302 420.9236 L351.1115 421.3219 L351.4937 420.7122 L352.8059 419.5967 L353.3602 419.0648 L354.5316 418.661 L354.3586 418.995 L354.6479 418.9706 L355.3734 419.1555 L355.1452 420.1764 L355.9956 420.4396 L357.0675 417.5778 L355.982 417.2194 L355.2663 416.9667 L355.5855 413.584 L356.232 412.8462 L356.968 411.8841 L357.2301 411.1413 L357.9419 410.5157 L358.5666 410.3981 L358.6129 411.2665 L358.6135 412.6244 L359.6588 412.1947 L360.197 413.3158 L359.8423 416.3271 L359.0078 416.3835 L358.8024 417.2234 L358.9238 419.3544 L358.9479 420.2671 L358.8313 421.0721 L359.1308 421.5821 L359.287 422.0422 L359.4778 423.0396 L359.6195 424.196 L359.7396 425.4407 L359.9574 426.164 L360.0439 426.8464 L360.0803 427.3543 L360.0791 427.616 L359.9951 428.0531 L359.9133 428.7694 L359.8578 429.0491 L360.2211 429.0516 L360.39 428.7978 L360.6068 428.8452 L361.0838 430.1023 L360.9015 430.4856 L360.8391 430.9233 L361.0305 431.1276 L361.2137 431.1969 L361.7034 431.1132 L362.0359 431.2283 L362.3034 431.4815 L362.349 431.6839 L362.5775 431.9506 L362.8843 432.1544 L363.1417 431.5493 L363.2222 431.2109 L363.1658 430.7114 L362.8675 429.9139 L362.7807 429.3222 L363.2463 427.9475 L363.7673 427.0268 L364.0846 427.0851 L364.5283 426.8005 L364.8082 426.4167 L365.0792 426.309 L365.4763 426.3983 L365.6817 426.6993 L366.256 427.5487 L366.8464 428.2655 L367.4141 428.8631 L367.615 429.1238 L367.9285 428.9952 L368.0721 429.0306 L368.2708 429.1159 L368.8137 429.4189 L369.1883 429.8222 L369.4355 430.4881 L369.5661 431.4212 L368.1842 433.8935 L367.3925 435.4232 L366.9003 436.0348 L366.474 436.0024 L366.1492 435.8778 L366.0392 435.7009 L366.0192 435.5274 L365.3194 434.4852 L364.921 434.4229 L364.6919 434.5031 L364.4101 434.7523 L364.4082 435.2079 L364.605 435.51 L364.7936 435.7049 L365.4005 435.8604 L365.8741 436.144 L366.5 436.464 L366.6766 436.8677 L366.7406 437.2675 L367.9938 437.752 L368.8955 438.3511 L369.3547 438.3027 L369.4916 438.1253 L369.3547 437.9319 L369.7496 437.4564 L371.1591 438.0052 L370.2184 438.9397 L368.8993 440.0961 L368.5681 440.5392 L367.7456 441.728 L367.4841 442.2892 L367.3878 443.3199 L367.3577 444.3128 L367.4201 446.467 L367.9421 448.032 L368.073 448.1327 L368.7183 448.4148 L369.0051 448.6735 L369.0121 449.0622 L369.0711 449.4734 L369.227 449.9619 L369.1262 450.4254 L368.7183 450.5465 L368.6476 451.1057 L368.1488 452.6493 L368.0026 453.2075 L367.7202 453.7971 L367.9992 453.7398 L368.1868 453.7682 L368.3947 453.8161 L368.583 453.8126 L368.8803 453.6969 L369.2352 453.6561 L369.4498 453.7622 L369.6454 453.8978 L369.7636 453.9875 L369.8415 454.1186 L369.9316 454.5906 L370.4215 454.6424 L370.8063 454.7565 L370.8063 455.1059 L371.0504 455.3387 L371.5885 455.7075 L371.8101 455.9527 L372.2341 456.1605 L372.5977 456.5727 L372.9625 457.1005 L373.1171 457.3891 L373.3355 457.8695 L374.022 458.2997 L374.5643 458.5573 L375.1938 459.0258 L375.7465 459.5352 L375.9094 460.4049 L375.8004 461.143 L375.3915 461.9703 L376.0878 462.6526 L376.7791 463.308 L377.0279 463.5721 L377.2295 463.8796 L377.4967 464.1308 L377.9378 464.7757 L378.6716 465.154 L378.7549 464.9995 L379.3796 464.976 L379.7717 465.1829 L380.2395 465.3334 L381.4594 463.6823 L383.1855 465.8811 L383.4298 466.4677 L382.2083 467.6758 L380.2968 469.1161 L380.7558 469.4963 L381.0772 469.5541 L381.7469 469.0802 L383.1798 468.4991 L384.2602 467.898 L384.5832 468.0092 L384.7638 468.2504 L385.1797 468.7797 L385.4792 469.0787 L385.6164 469.3333 L385.9251 469.6722 L386.1368 469.9498 L386.1273 470.1043 L384.9214 470.9406 L384.4314 471.2147 L383.2897 472.2294 L382.1662 473.0517 L381.5957 473.5884 L381.3222 473.8505 L381.107 474.015 L380.2306 474.4904 L379.9929 474.8283 L380.2065 474.9489 L381.7716 476.0079 L382.5097 476.4056 L382.8422 476.755 L382.9661 476.9752 L383.0134 477.2344 L383.4444 477.2837 L383.8894 477.1646 L384.1338 476.9987 L384.8725 476.4624 L385.5873 475.988 L386.1479 475.6621 L386.643 475.4288 L386.8214 475.377 L387.0563 475.5435 L387.2975 476.1968 L387.3739 476.5895 L387.0278 477.3734 L386.8655 478.0009 L387.1292 478.259 L387.4518 478.4065 L388.5599 479.2482 L388.9348 479.1062 L390.1943 478.2844 L390.4073 478.26 L390.6282 478.3024 L390.8916 478.4025 L391.2922 478.6811 L391.7461 478.719 L392.0922 478.7967 L392.354 479.1182 L392.6395 479.1391 L392.9169 478.8505 L393.2744 477.966 L393.5365 477.0744 L393.849 475.839 L394.0319 475.5116 L394.198 475.4293 L394.4943 475.4269 L394.2293 478.4065 L394.3783 484.2322 L394.3938 485.6041 L394.6328 487.7773 L394.513 488.1167 L393.8436 490.0163 L393.3958 491.7196 L392.264 493.4617 L391.6523 494.7514 L390.8799 496.2249 L389.7636 497.976 L388.8315 499.0862 L388.1745 499.7968 L386.1216 501.928 L385.1096 503.9581 L384.3959 505.9488 L385.476 506.2881 L386.8715 507.2319 L387.0335 507.213 L387.4439 507.3864 L387.8911 507.7501 L388.0394 508.1114 L388.2496 508.218 L388.3193 508.4353 L388.2844 508.6779 L388.1586 509.0621 L388.1342 509.525 L388.1843 509.8081 L388.3247 509.8953 L388.5504 509.9007 L389.4616 509.8095 L389.7937 509.6855 L390.0752 509.7478 L391.8171 510.981 L392.0196 511.1021 L392.411 511.2596 L392.7156 511.4863 L392.9444 511.4823 L393.2902 511.713 L393.5793 512.0 L394.8325 510.9985 L396.7493 509.1384 L396.9883 509.4124 L397.6425 509.6496 L398.3233 509.6297 L398.8475 509.4034 L400.3482 509.8031 L400.5992 509.7233 L400.7745 509.232 L401.0379 509.2943 L401.248 509.6521 L401.5383 508.959 L401.6109 508.672 L401.6261 508.2554 L401.5944 507.6639 L401.5152 507.051 L401.4312 506.6325 L401.3491 506.033 L401.3701 505.6658 L401.474 505.2387 L401.9127 504.2775 L402.3231 503.545 L402.4686 503.3208 L402.8223 503.0726 L401.4122 499.9513 L403.0926 498.8964 L404.2672 499.9503 L405.4564 500.7107 L406.3945 499.3483 L403.8565 496.3814 L404.0637 493.9132 L406.0877 495.4216 L406.7993 496.3968 L407.7099 497.6137 L408.3453 497.5888 L409.956 495.8342 L410.3066 495.4625 L409.9659 493.829 L410.2121 493.3107 L414.3038 495.7146 L418.2178 497.4976 L418.8222 497.1229 L421.3428 497.3327 L424.9122 499.4679 L426.1581 501.5703 L426.8526 503.989 L430.1957 508.8329 L432.0358 507.3884 L429.8591 504.8516 L432.2181 501.4756 L432.9629 501.494 L434.5708 503.255 L443.6451 496.1327 L446.1525 491.3364 L447.8617 491.7236 L449.7238 490.251 L449.9044 490.3188 L460.5474 494.0468 L460.6117 493.5589 L460.5588 492.4173 L461.3233 487.8645 L462.017 486.0975 L461.8684 485.6181 L461.3892 485.3868 L460.1506 485.3704 L459.0771 485.1391 L458.4327 484.6438 L458.2017 483.9666 L458.3338 483.0745 L458.7005 482.4755 L458.6166 482.2667 L457.8153 482.4232 L456.8455 482.4023 L455.7454 482.1606 L453.4729 480.9949 L453.1005 480.9162 L452.8241 481.0039 L452.5224 481.3238 L449.4176 483.4747 L448.9954 483.4782 L448.5333 482.9769 L448.2627 482.1043 L448.1603 481.7734 L447.3952 481.8356 L446.271 482.0459 L445.0739 482.2747 L444.0077 481.8745 L443.4258 479.5966 L443.1963 479.1665 L442.7713 478.3587 L442.3466 477.8713 L440.831 476.6473 L439.9753 476.3628 L438.608 474.9056 L437.3443 473.9597 L436.7447 473.6318 L436.423 473.3352 L436.2125 473.0302 L436.0192 472.8314 L435.9384 472.5972 L435.8224 472.2792 L435.8851 472.0126 L436.1263 471.881 L436.1133 471.5416 L435.79 471.1763 L435.7701 471.0238 L435.5396 470.8554 L435.295 470.3017 L434.4573 469.8816 L433.8824 469.7176 L432.7299 469.3543 L432.0774 468.9556 L431.1031 467.751 L430.421 466.9003 L430.1 466.374 L429.7773 465.8049 L429.365 465.4754 L428.9146 465.2213 L428.3023 465.1644 L427.8918 465.1749 L427.4937 464.9382 L425.9543 462.2384 L425.1163 459.585 L424.9591 457.108 L425.3388 456.0624 L424.0799 453.0889 L425.1598 452.4559 L426.4466 451.8977 L430.0397 451.1396 L432.9471 449.7989 L434.56 448.1486 L436.9988 446.9016 L440.0437 446.2183 L439.4998 445.8479 L438.7379 445.3306 L437.486 444.244 L437.042 443.8069 L435.707 442.9651 L434.6988 442.1701 L432.9407 440.9155 L431.2951 439.6166 L431.3582 439.3883 L431.6872 439.0798 L431.9126 438.8869 L432.0463 438.7992 L433.2069 439.5094 L434.3105 439.9959 L435.0408 440.286 L436.0189 440.5387 L437.2299 441.1797 L438.0809 441.8172 L438.5424 442.1157 L439.0726 442.4651 L441.3445 443.2188 L442.6224 443.6584 L443.0395 443.9215 L443.2163 444.1717 L443.3051 444.4653 L444.0743 444.3801 L442.3216 442.8115 L444.1152 442.9072 L444.6819 444.0262 L447.2903 444.9538 L449.7022 445.8365 L453.0026 443.7301 L453.6339 443.1111 L454.1131 442.4916 L454.8852 441.8291 L455.9948 440.934 L455.5172 440.4918 L455.3112 439.8783 L454.9052 440.2003 L453.9911 440.3991 L452.7005 440.1709 L451.7912 439.7113 L448.6959 437.8307 L448.0399 437.6239 L447.6415 437.4758 L447.9511 437.8691 L448.0922 438.6282 L448.1888 439.1989 L448.0887 439.6206 L447.619 439.6834 L446.8482 439.3121 L445.7658 438.2145 L445.123 437.4404 L444.1713 436.5128 L442.9111 435.3649 L442.6591 435.1331 L441.5242 434.0884 L440.4117 432.6604 L439.8881 431.6201 L438.2983 429.9493 L437.3928 428.8357 L437.3576 428.5691 L437.3719 428.3781 L437.4144 428.2381 L437.5808 428.1194 L437.8118 428.0566 L438.0929 428.115 L438.4739 428.3552 L438.8232 428.247 L439.1949 428.0377 L439.4358 427.8234 L439.5914 427.5467 L439.5445 427.3399 L439.2941 426.9919 L438.2673 426.0608 L438.3243 425.8106 L439.045 424.5235 L439.1953 424.38 L439.3921 424.371 L439.4878 424.4228 L440.07 425.2264 L440.2374 425.2344 L440.4107 425.1785 L440.4193 424.9552 L440.2665 424.6432 L439.6742 423.5575 L439.4672 423.1807 L439.4992 422.8472 L439.9638 420.7686 L440.1752 418.9312 L440.3096 418.3525 L440.4763 418.1979 L440.7312 418.1825 L441.9432 420.0503 L442.6445 420.9934 L443.2087 421.4425 L443.5558 421.3303 L444.0397 421.275 L444.4375 421.2516 L445.1848 421.439 L445.613 421.8363 L446.4466 422.1528 L446.8545 422.0157 L446.6418 421.7291 L446.5956 421.5223 L446.6631 421.2845 L446.6726 420.9361 L447.3553 419.825 L447.5236 419.5259 L447.6513 419.3848 L447.9245 419.2951 L448.3178 419.3534 L448.6557 419.4915 L448.5429 419.153 L448.037 418.7143 L446.5353 416.6397 L444.834 413.8347 L444.3529 411.9748 L443.7599 410.9719 L443.0179 410.0142 L441.9016 405.8024 L438.5012 400.9559 L438.7883 400.7974 L438.8729 400.5122 L439.4206 400.1877 L439.8678 400.087 L440.3248 400.1518 L440.6361 400.4394 L441.0633 401.4155 L441.3647 401.4863 L442.4059 400.9664 L442.6138 400.9424 L442.8458 401.1279 L443.2046 401.6518 L443.4033 402.0935 L443.6001 403.0676 L443.4201 403.5397 L443.6147 404.4554 L444.1443 405.7027 L444.422 406.1259 L444.6882 406.763 L444.7655 407.4395 L444.5332 407.6942 L444.6052 408.7321 L444.7855 409.5801 L445.2086 410.4105 L445.5582 410.7131 L445.9274 410.8737 L446.3905 410.6234 L446.8234 410.3143 L447.9096 408.7525 L448.4684 407.6992 L449.481 404.6563 L449.7089 403.9071 L449.913 403.5008 L450.1082 403.4066 L450.1761 403.2406 L449.9532 402.7136 L450.2575 402.2037 L450.6984 401.8866 L451.2543 401.6334 L453.4498 401.3223 L453.9337 401.1498 L454.3597 400.902 L454.9137 400.4733 L455.4053 400.0516 L454.5977 398.7325 L453.6621 397.5969 L452.1753 396.2324 L451.1732 395.0978 L451.008 394.8734 L450.7963 394.3609 L450.4432 393.6705 L450.0968 392.8444 L448.3353 390.6563 L446.0149 387.5938 L444.621 385.6704 L443.8157 384.4908 L442.7387 383.2524 L440.7933 381.5045 L439.7223 380.7103 L434.3124 377.8356 L434.1657 378.6971 L431.3031 380.3753 L430.4305 380.822 L429.7875 381.1121 L429.1247 381.1869 L428.2671 381.0473 L427.8608 380.8275 L425.4609 379.6459 L424.671 379.0745 L422.8683 377.1251 L421.4531 375.5945 L419.7369 373.7383 L418.7686 372.6604 L417.2403 371.2499 L416.0543 371.069 L413.5378 369.5059 L412.8605 367.8935 L414.0091 367.5156 L413.2288 366.0582 L412.445 364.4288 L409.3979 361.8376 L409.0822 359.5236 L409.1729 358.4237 L408.5212 358.0657 L409.3263 356.5693 L406.2174 351.9153 L406.6639 351.6585 L406.3755 350.6912 L404.1094 347.6296 L403.692 346.8697 L403.3028 346.0958 L404.2476 345.4057 L405.057 344.1078 L405.2662 343.3264 L404.0698 341.9736 L402.7963 341.5123 L400.9263 340.8147 L401.0937 340.1884 L402.6011 340.3121 L404.736 340.2283 L405.6152 340.2702 L407.4709 341.277 L407.8202 341.1493 L408.7691 341.638 L409.5773 341.8439 L411.168 340.6841 L409.6159 339.1632 L409.8391 337.596 L409.0531 337.4209 L408.5783 337.0873 L405.1398 334.2605 L403.0727 332.3476 L401.3311 330.6936 L399.2545 328.8659 L398.696 328.3124 L398.1559 327.7609 L395.8178 325.1424 L395.1691 324.5853 L393.8195 323.1751 L392.3248 321.7139 L391.4719 320.5939 L390.7474 319.6888 L390.2555 319.0868 L389.7291 318.263 L388.9751 317.5738 L388.3916 316.7609 L387.4991 315.5955 L387.5872 315.1212 L388.1139 314.6136 L388.5019 314.3074 L388.9129 313.9667 L389.3218 313.7254 L389.8178 313.4202 L390.6022 313.1584 L390.8663 313.3399 L391.9933 314.8529 L393.0211 316.0069 L394.6448 317.4531 L395.2204 318.0007 L395.6486 318.2376 L396.0489 318.651 L396.3357 318.4271 L396.6448 317.9812 L396.8169 317.2846 L396.8023 316.9614 L396.4334 316.372 L396.2058 315.7212 L396.1494 315.385 L396.2594 315.0474 L396.427 314.6669 L396.6216 314.3607 L396.6641 314.1029 L396.6165 313.9069 L394.1428 311.8527 L393.0107 310.604 L392.5096 309.7731 L391.671 308.266 L391.4824 307.6017 L391.5955 307.1734 L391.8003 306.92 L392.1137 306.5904 L393.0101 305.8917 L394.5339 304.9715 L394.8768 304.9007 L395.2366 304.8997 L395.7865 305.2199 L396.053 305.6912 L396.8669 305.7191 L397.2352 306.0273 L397.4511 305.9625 L397.6884 306.0702 L398.5515 307.0452 L399.0992 307.5459 L399.5996 308.1429 L400.3799 309.2575 L401.3393 310.3656 L401.8572 311.1182 L403.1915 312.6701 L403.1471 312.8332 L402.8302 312.8561 L402.2131 312.6926 L401.6059 312.7355 L400.5777 312.6297 L404.962 317.3853 L407.6252 320.2398 L409.5373 322.1109 L409.8454 322.2505 L409.7925 321.9693 L409.7706 321.9398 L409.7773 321.7344 L409.8239 321.5469 L409.938 321.4711 L410.1478 321.4037 L410.5145 321.1719 L410.7636 321.0372 L411.1015 320.9529 L411.3775 320.921 L411.6688 320.9559 L412.0814 321.0602 L412.5657 321.2472 L413.0307 321.6541 L413.4069 322.4689 L413.522 322.5068 L413.6639 322.5258 L413.7603 322.5193 L413.9448 322.5642 L414.2737 322.7786 L414.5365 322.7632 L414.6725 322.6948 L414.7606 322.6145 L414.8522 321.9229 L414.8094 321.5509 L414.5907 321.1275 L413.9625 320.1441 L413.5527 319.9256 L413.0611 319.1746 L413.0757 317.8695 L412.0488 317.3225 L411.1493 316.736 L408.8277 314.4674 L406.4465 312.4362 L405.1905 311.2623 L404.0308 310.0414 L402.0176 307.6795 L401.0306 306.4527 L400.1498 304.6952 L399.8516 304.2918 L397.7195 302.2116 L395.1237 299.9848 L393.3073 298.308 L392.1198 297.0926 L391.76 296.4692 L391.5442 296.0303 L391.322 295.5994 L390.8396 295.355 L390.6333 291.2678 L390.6542 290.6164 L390.9832 288.7182 L391.2086 285.0164 L391.1696 284.6399 L390.9674 284.9491 L390.3576 285.403 L389.3979 285.9421 L389.0762 285.988 L388.7516 285.9985 L388.3931 285.8548 L386.8208 284.2309 L386.0383 283.4498 L385.6586 283.0433 L384.7724 282.1844 L384.38 281.8991 L384.2086 281.8961 L382.9962 282.6677 L381.9469 283.6822 L381.4461 283.9067 L381.0965 283.8792 L380.6784 283.787 L380.2141 284.3331 L378.3702 284.1147 L377.4279 284.0194 L376.574 284.1999 L377.2634 285.4015 L377.5797 286.2209 L377.7955 287.4125 L379.044 289.0618 L378.7762 289.598 L377.8548 291.4419 L375.6666 289.1037 L373.3054 287.7012 L370.3192 286.4523 L368.5953 286.2065 L366.1346 287.8474 L362.5801 285.5037 L361.9503 284.0847 L362.6286 283.0328 L365.0944 283.9411 L368.9364 285.3641 L368.2232 283.2488 L363.6967 281.137 L361.0635 272.784 L361.3392 272.4667 L357.109 268.2604 L360.5019 265.5784 L361.2904 264.7693 L362.2498 263.5971 L359.7653 261.2931 L359.3935 260.0685 L357.1366 261.8259 L352.1276 260.4182 L352.7425 259.6101 L350.3052 257.2108 L346.7706 259.7358 L345.6021 259.5313 L344.4906 256.083 L343.3157 251.2708 L342.4735 248.6708 L341.9569 250.7909 L342.9838 256.4476 L341.7002 259.9194 L335.878 260.6477 L334.7021 258.8968 L333.3995 255.4599 L333.8876 254.4673 L334.8542 251.0952 L331.4978 247.4237 L333.783 244.4407 L324.1574 240.0408 L320.2749 236.5887 L320.6077 235.6508 L319.2131 235.3615 L310.6652 234.6531 L293.4644 217.903 L291.7199 219.3338 L289.3733 218.0342 L287.9626 219.255 L286.2771 219.0789 L285.235 220.0697 L284.1627 220.7502 L283.3393 222.0588 L281.928 224.2464 L279.9724 224.6356 L278.1624 225.4128 L275.076 224.9534 L272.4232 221.7659 L268.0459 216.2441 L262.8068 216.4686 L259.181 213.6697 L259.9512 212.9218 L258.6771 211.5344 L256.6499 209.4978 L253.8754 209.6584 L253.5933 208.1517 L247.6348 203.347 L244.1386 201.1502 L243.041 199.2926 L236.9779 191.5289 L234.1457 187.7597 L225.5226 182.1124 L225.9464 180.32 L224.7274 180.3285 L218.8652 177.1265 L216.0014 176.5936 L214.7783 179.8101 L213.0319 181.8215 L210.5335 181.1334 L205.1987 175.408 L197.0285 183.1373 L196.4092 182.6428 L197.6374 181.2816 L197.239 180.8998 L203.5493 173.7333 L202.6508 172.5497 L202.2555 171.9165 L202.7925 171.0991 L204.8634 171.7249 L206.2364 171.3546 L206.6008 169.5856 L202.5345 167.5866 L201.389 168.2673 L198.9651 166.5227 L200.0094 165.364 L198.7239 164.7662 L194.8489 159.3613 L193.1663 156.0881 L188.8546 151.457 L188.0011 150.6146 L186.7089 152.247 L184.6234 152.2904 L179.1599 145.7179 L179.1428 144.5452 L179.4661 144.0521 L178.4969 142.3518 L179.8914 141.3661 L174.7852 137.5722 L173.8936 136.568 L171.1289 136.5785 L170.6107 138.5379 L168.7192 138.3103 L166.7443 135.7486 L166.0442 135.6108 L165.0189 135.0474 L162.0251 135.7625 L161.394 137.1335 L161.1364 138.2534 L160.2337 138.7834 L161.6584 140.5506 L162.2495 141.1885 L163.5822 144.0666 L164.0491 144.5606 L164.0956 144.9639 L164.0811 145.2538 L164.1112 145.5148 L164.1914 145.7938 L164.4639 146.2909 L165.3897 147.4816 L165.5688 147.9727 L167.0708 149.9025 L167.4787 150.3926 L167.8793 150.8202 L168.1741 151.195 L168.3807 151.4575 L169.6092 153.2022 L170.0241 153.7546 L170.592 154.7322 L171.3486 155.9808 L172.1837 157.442 L173.9082 159.6677 L176.085 161.7586 L176.8811 162.6513 L178.3511 164.3665 L180.4505 166.2507 L180.9614 166.7443 L181.1301 166.866 L181.202 167.4129 L180.603 168.5437 L180.3066 169.915 L180.1878 169.7842 L179.8696 169.6405 L179.6296 169.4334 L179.4255 169.421 L179.2474 169.4778 L179.1935 169.674 L179.2306 170.5856 L179.2287 171.8117 L179.0129 173.2548 L178.8294 173.7323 L178.6642 173.7518 L178.4246 173.5392 L177.5591 172.3287 L175.1164 169.5417 L174.8692 169.6246 L174.7259 169.7089 L174.0914 169.9858 L172.2893 171.1116 L171.6864 171.5836 L171.3295 172.158 L171.2538 172.4784 L171.47 172.8686 L172.8658 175.0592 L173.5694 175.5282 L173.9412 175.8236 L175.5886 178.0032 L177.0643 179.7627 L177.3492 180.1618 L177.3559 180.5161 L177.1115 180.7791 L176.6406 181.3804 L175.3734 182.1054 L174.124 181.9706 L172.2208 181.6723 L171.2139 181.7666 L170.9857 182.0505 L170.864 182.3623 L170.6028 183.4945 L170.315 183.6138 L170.0279 183.6607 L169.3163 183.5444 L168.1053 182.6872 L166.3101 181.2511 L165.2075 180.3939 L164.5942 179.7761 L164.1432 179.4583 L162.9949 178.1993 L162.4555 177.4888 L162.393 177.4538 L162.1972 177.5397 L162.4089 177.883 L162.4995 178.2088 L163.0897 178.6774 L163.9391 179.5226 L164.3799 180.2207 L165.2249 181.0261 L165.2442 181.3489 L165.1184 181.6613 L164.6915 182.1762 L164.1388 182.7321 L163.4957 182.8973 L162.5867 183.0569 L161.6019 182.7196 L160.983 182.3898 L160.7662 182.3833 L160.4216 182.4417 L160.0492 182.4532 L159.4442 182.3189 L159.3913 182.2541 L159.2975 182.0665 L159.2648 181.781 L159.4112 181.2177 L159.6236 180.561 L160.0892 179.6399 L160.158 179.1444 L160.1117 178.5491 L160.0099 178.1365 L159.8518 177.6629 L159.5675 177.1135 L159.0762 176.4075 L157.8775 174.7628 L157.3603 173.7937 L156.8995 173.0792 L156.5175 172.3052 L156.3569 171.8511 L156.3334 171.4923 L156.4044 171.0552 L156.6706 170.0851 L156.7917 169.3396 L156.9283 169.0796 L157.0776 168.8501 L157.4288 168.7732 L157.631 168.912 L158.8648 170.9075 L159.6084 171.7758 L159.9782 172.171 L161.7148 174.2992 L162.3249 175.4873 L162.7965 176.13 L163.0288 175.904 L161.575 173.6745 L161.11 172.6899 L160.0036 171.4544 L159.5247 170.7378 L158.9152 169.9464 L156.6776 166.6749 L156.258 165.3825 L156.1733 164.8825 L156.1762 164.3625 L156.2329 163.9947 L156.4396 163.7587 L156.7334 163.8056 L157.1888 164.6289 L157.2731 165.0481 L157.6129 165.4149 L157.7508 165.7917 L159.0074 167.1779 L161.1167 170.1295 L161.3348 170.381 L162.3848 171.5926 L162.5578 171.6445 L162.8662 171.3252 L163.5949 170.6944 L164.3147 170.0238 L164.7232 169.6171 L164.8985 169.4424 L164.9305 169.2343 L164.8268 168.921 L163.9017 168.0846 L163.6354 167.4564 L162.9791 166.4129 L162.4773 165.5412 L162.2412 165.094 L162.1056 164.3874 L161.9664 164.0785 L161.5522 163.6524 L161.0559 163.331 L160.6112 162.6778 L160.1621 161.9487 L159.7497 161.4597 L159.1805 160.8573 L158.9184 160.6937 L158.9044 160.6952 L157.3071 160.8578 L156.7904 160.8094 L156.7743 160.795 L156.4836 160.534 L156.1505 160.2351 L155.9556 159.9586 L155.9141 159.8708 L155.5712 159.1487 L155.2355 158.5204 L154.9636 158.1137 L154.7696 157.6441 L154.5645 157.0542 L154.1218 155.624 L153.744 155.0811 L153.589 154.7916 L153.6451 154.4603 L153.8162 154.1469 L154.0425 153.9622 L154.6885 154.1359 L155.5366 155.7079 L155.8041 155.7627 L156.1515 155.65 L156.3626 155.6844 L156.6624 155.9025 L156.8199 155.9788 L157.3441 155.9544 L157.5276 156.1001 L158.669 157.4036 L158.9856 157.8452 L159.1352 158.7899 L159.3244 158.9845 L159.8806 159.3174 L161.5122 160.1482 L161.5167 159.6013 L161.5417 159.3503 L161.5208 159.0419 L161.4374 158.735 L161.014 157.5872 L159.3463 155.627 L159.1187 155.4499 L158.2084 154.8605 L157.7761 154.3145 L157.4452 153.829 L157.3907 153.2391 L157.3955 152.539 L156.6805 152.244 L155.4979 152.4082 L154.4917 153.6513 L153.1595 153.7107 L152.3602 155.6051 L154.9946 160.5784 L155.7645 163.5092 L156.1344 165.7887 L156.8301 167.8606 L156.38 170.5268 L155.5572 170.5986 L154.3402 169.1076 L153.5145 167.8311 L151.6896 166.388 L150.276 164.5132 L147.8907 162.0286 L147.6441 161.7276 L147.8501 161.2885 L147.916 160.5355 L147.5192 160.0624 L146.7659 160.0913 L146.3263 160.0654 L146.2629 159.7525 L147.9642 157.9291 L145.2113 157.3372 L143.5533 155.7682 L142.9961 155.1779 L142.2947 154.7582 L141.8808 154.0361 L142.0358 152.8693 L141.0305 151.6262 L140.608 150.8836 L138.641 149.2537 L138.2103 148.841 L137.4129 141.7015 L143.3727 140.6145 L151.313 141.5143 L152.2524 141.0777 L153.2055 138.7166 L151.3758 138.2015 L151.3457 138.5204 L150.7352 138.7635 L150.6494 139.0125 L150.7809 139.4083 L150.5223 139.5625 L149.1144 139.5061 L147.8625 139.4796 L146.9221 139.4262 L146.1072 139.1388 L145.4036 138.7425 L145.2325 138.2859 L145.0842 137.9779 L144.0699 136.3584 L142.8348 134.7714 L142.3502 134.2987 L141.9981 134.1475 L141.0986 133.603 L140.4143 133.0575 L139.1256 132.253 L138.4975 131.8832 L138.197 131.7374 L137.8182 131.5019 L137.63 131.1575 L137.3359 130.7178 L137.1872 130.5227 L136.9197 130.2736 L136.6433 129.6887 L135.7933 128.5378 L135.1369 127.8206 L133.8349 126.4815 L132.5079 125.3381 L131.2347 124.0439 L130.3818 123.2388 L129.2123 121.9292 L128.8611 122.0505 L130.0829 123.7544 L130.0785 123.9231 L128.9603 123.9955 L128.3895 123.6691 L126.8888 122.597 L126.5234 122.4767 L126.1677 122.4008 L124.3089 122.4902 L122.3898 122.876 L122.2516 122.6933 L121.8561 122.7392 L121.6564 123.0382 L120.8932 123.2942 L118.9814 124.2889 L118.2613 124.6074 L117.9047 124.9513 L117.7678 125.1299 L117.4908 125.3835 L117.1482 125.6131 L116.7146 125.6814 L115.3499 125.0591 L113.0666 124.0868 L111.8492 123.7275 L110.2354 123.5223 L110.0157 123.4529 L109.0487 122.3369 L108.8284 122.051 L108.9603 121.8818 L109.1394 121.8468 L109.3879 121.7215 L109.4991 121.444 L109.6503 121.3063 L110.1117 121.8294 L111.0917 122.1962 L112.434 122.5526 L112.7611 122.4602 L112.9332 122.2736 L112.5462 121.6547 L111.1662 120.361 L111.0157 120.1838 L111.1203 119.6842 L111.6898 119.1975 L111.6984 118.9979 L111.782 118.8257 L112.2384 118.4878 L112.4318 118.4069 L112.7402 118.4249 L113.0587 118.1804 L113.297 118.0985 L113.5382 118.12 L113.832 118.3251 L114.2247 118.5642 L114.9058 119.1576 L115.4402 119.7281 L115.7489 119.8639 L116.4449 119.7286 L116.7514 119.5754 L116.9479 119.52 L117.1536 119.2315 L117.2024 118.8003 L116.4129 117.8939 L115.2884 116.9485 L114.2387 115.9313 L113.671 114.9066 L112.272 113.3958 L110.8375 112.2193 L110.3342 111.7631 L109.4718 111.0459 L109.2576 110.7908 L109.0975 110.1859 L109.1378 109.5984 L109.3688 109.1661 L110.0059 108.683 L110.6528 108.4878 L111.3751 108.7404 L112.5433 109.542 L112.8977 109.7436 L113.4143 110.1989 L114.0865 111.2181 L114.599 111.6778 L115.2887 112.1894 L115.6849 112.419 L116.6021 113.6997 L117.976 115.2465 L119.2036 116.3536 L120.3354 117.266 L121.1746 117.6293 L121.4887 117.8499 L122.0126 118.1369 L122.4215 118.5951 L122.8104 118.8027 L123.2972 119.5459 L123.5083 119.774 L124.0262 120.3959 L124.4071 120.4194 L125.1047 121.1151 L125.1104 121.3582 L125.2787 121.5284 L125.4825 121.5004 L126.0109 121.8229 L126.8045 122.0644 L127.6786 122.0669 L127.9918 122.008 L128.0843 121.9282 L128.128 121.7819 L128.1328 121.0288 L128.1854 120.4239 L128.7787 120.5162 L129.2129 120.8451 L129.7758 121.0373 L130.9865 121.6916 L131.5745 121.9846 L131.9073 122.004 L132.196 121.9846 L132.4106 121.9322 L132.8115 122.0485 L134.8564 122.4792 L135.4678 122.7782 L135.9942 123.164 L136.5647 123.5403 L136.9733 123.5268 L136.0991 122.9568 L135.3642 122.3884 L135.0301 122.2286 L133.0498 121.8897 L132.0033 121.6048 L130.3219 120.8925 L127.4457 119.0768 L126.3883 117.9577 L125.5367 116.6705 L124.9234 116.2358 L123.6975 115.529 L123.1175 114.983 L123.0455 114.5258 L121.9603 113.2425 L121.4123 112.2243 L120.8025 111.2061 L119.4996 108.8312 L117.7672 105.1486 L117.8116 104.8316 L118.3786 104.4767 L119.2593 104.031 L120.2282 103.4485 L121.0355 102.7946 L120.788 101.4729 L121.7226 100.6368 L121.6583 100.2739 L121.7591 100.0543 L122.6735 100.1331 L122.9216 99.942 L123.3653 99.4927 L124.0423 99.2696 L124.7412 99.6265 L124.8813 100.2919 L125.0756 100.7256 L125.2467 100.5704 L125.2654 99.8361 L125.3618 99.5406 L125.5472 99.2347 L125.8793 98.9112 L126.7126 98.5613 L127.0736 98.5283 L127.291 98.5753 L127.3892 98.6861 L127.4751 98.8433 L127.7563 98.8603 L127.8758 99.2711 L128.2051 99.4313 L128.0605 99.7373 L128.051 100.0453 L128.1442 100.4231 L128.1841 101.1185 L129.2627 102.7726 L129.6887 103.6901 L129.8668 104.1797 L130.2164 104.9025 L130.3457 105.3977 L131.0452 107.5519 L131.2268 107.9557 L131.5678 108.5662 L132.087 109.1202 L132.5088 109.4596 L132.9335 110.0157 L133.5392 111.2006 L133.9721 111.9453 L135.663 114.4544 L137.2972 116.3656 L138.7789 118.4189 L138.815 118.5771 L138.9459 118.7743 L139.0733 118.8636 L139.377 119.3069 L139.5957 119.4082 L140.4035 120.3166 L140.9313 120.8696 L141.1116 121.183 L141.2827 121.4161 L141.7797 121.7016 L143.1854 123.2633 L149.7613 129.9287 L150.4443 130.4997 L150.8817 130.8146 L151.4404 130.4887 L158.2839 134.6601 L158.3552 133.0475 L159.5168 132.8145 L160.4378 133.588 L165.5793 131.4425 L168.4847 133.6105 L172.6525 133.9169 L176.8456 132.9118 L175.9423 130.631 L176.7125 129.1437 L179.752 131.9635 L178.6807 132.3628 L180.8581 132.9218 L190.6085 135.7675 L188.414 131.0402 L185.6027 121.4226 L186.262 118.8771 L180.1228 106.2891 L177.3553 100.8899 L175.4416 98.9167 L172.9726 99.0016 L172.8712 97.8335 L171.6066 93.5856 L172.7602 93.8552 L171.0741 88.8185 L169.2612 89.742 L169.0964 100.9233 L163.0808 95.9118 L162.2219 92.4376 L161.0698 95.1371 L158.9444 96.2247 L157.4481 89.458 L154.8308 88.6987 L151.5219 90.361 L151.1745 89.4071 L150.8855 88.7951 L155.5439 86.8368 L156.837 84.1961 L154.2178 85.0717 L153.3507 87.2307 L152.5516 87.6729 L151.0725 87.8601 L150.102 84.1013 L147.9056 80.2575 L145.0087 75.4102 L147.2273 72.3401 L148.658 71.8439 L145.9564 66.4343 L148.6377 62.8299 L146.1053 60.5334 L143.462 62.9048 L141.459 61.6467 L139.9218 59.9293 L135.9442 64.9716 L131.9887 62.5703 L131.8429 58.2619 L135.6779 54.5075 L131.0452 45.4724 L127.8846 34.4797 L128.0681 29.7484 L126.8574 26.5029 L123.2886 23.1525 L123.9986 19.4026 L122.5185 16.5364 L117.2731 12.1722 L117.2731 10.2548 L106.1008 4.722 L99.7981 0.5942 L98.1272 0.0 L94.4697 0.5198 L86.4019 2.2192 L86.2051 4.4958 L89.6423 5.6782 L84.4188 7.9927 L75.2496 8.4322 L70.0169 12.0474 L67.8839 17.0158 L68.3301 18.1947 L66.5033 21.7754 L67.4215 23.1825 L70.0803 25.0 L67.1413 30.1933 L70.8536 33.0737 L74.8756 32.889 L77.6752 34.9076 L74.747 35.7689 L77.189 38.0996 L73.3546 45.3067 L53.9416 36.6936 L52.3676 33.1062 L50.3189 34.9361 L50.3338 36.0835 L54.0316 43.2397 L53.9644 44.5548 L49.983 44.8573 M76.9513 23.1934 L77.1893 22.1613 L77.1484 21.8078 L77.4518 21.7484 L78.0714 21.7479 L78.5668 21.9057 L79.0663 21.8952 L80.5118 22.2288 L82.082 22.4045 L83.5855 22.8274 L83.9915 23.4496 L84.6448 24.3538 L85.6108 25.0779 L85.8618 25.5986 L86.445 26.1049 L87.9698 27.1225 L90.0093 29.0848 L88.2934 32.7991 L87.4272 32.7327 L86.768 32.188 L85.5683 31.2997 L84.9506 30.7021 L82.7948 28.9685 L80.9318 27.2968 L80.4079 27.0946 L79.7895 26.9038 L79.0285 26.9208 L78.4048 26.6826 L77.8134 26.1059 L77.4388 24.9301 L77.4644 24.3294 L77.9126 23.4641 L78.7335 23.3447 L79.4139 23.4566 L80.0333 23.8625 L81.3026 24.5276 L83.8562 25.1627 L84.6834 25.3055 L84.7142 25.1587 L84.2968 24.8487 L83.8524 24.9241 L82.4122 24.6375 L81.4319 24.2021 L80.3591 23.5859 L79.1639 23.151 L78.4264 23.165 L77.4283 23.4012 L76.9513 23.1934 M87.3866 40.4227 L88.1023 39.1131 L88.3638 38.9199 L88.6227 38.9394 L89.0126 39.1296 L89.3438 38.9658 L89.5003 38.5799 L89.6772 37.8499 L89.6943 37.2453 L89.6702 36.8219 L89.8895 36.6097 L90.2179 36.5827 L90.4778 36.5912 L90.7069 36.7011 L91.4052 37.5474 L91.6549 37.8864 L91.9047 38.1915 L92.0894 38.6808 L92.271 39.0432 L92.4862 39.5016 L92.6064 39.6823 L93.1994 40.3673 L93.2704 40.916 L93.0098 41.2211 L93.0117 41.3924 L93.0998 41.608 L93.3892 41.8906 L93.5826 41.8826 L94.0925 42.3999 L94.2269 42.665 L94.2874 42.9156 L94.2183 43.1358 L94.2969 43.3041 L94.4186 43.5417 L94.6022 43.6875 L94.7331 43.8303 L95.0183 44.403 L95.0725 44.6766 L95.2272 45.079 L95.4411 45.447 L96.7656 48.1705 L97.1596 48.9653 L97.2971 49.4146 L97.3618 49.8545 L97.2556 50.4176 L97.3266 50.6807 L97.5491 51.3188 L97.693 51.8216 L97.7066 52.2349 L97.6014 52.5869 L97.2591 52.6883 L96.9523 52.545 L96.7124 52.225 L96.5586 52.0257 L96.3663 51.4925 L96.1495 51.0207 L95.8975 50.7521 L95.8173 50.6797 L95.7016 50.5759 L95.0053 49.817 L94.6152 49.2479 L94.1299 48.5993 L93.1705 47.0846 L92.9354 46.4929 L92.735 46.095 L91.8822 44.402 L91.5551 43.9881 L91.0752 43.8902 L90.5751 43.8538 L89.9919 43.8358 L88.9923 43.9217 L88.3444 43.2951 L87.6519 42.4978 L87.5359 42.3609 L87.5502 41.7393 L87.7587 41.3988 L87.4297 40.7937 L87.3866 40.4227 M93.0564 127.0255 L93.1309 126.9671 L93.3357 127.0245 L93.657 127.0774 L94.2377 127.0729 L94.8491 127.0245 L95.0788 127.1423 L95.4611 127.563 L95.9783 127.6095 L96.3919 127.7841 L97.4182 128.6361 L97.7174 128.7684 L97.9126 129.2105 L98.2197 129.7216 L99.2587 130.7972 L100.1784 132.0903 L100.7959 133.3011 L101.0855 133.8181 L101.026 134.1191 L100.8523 134.1755 L100.6627 134.2513 L100.3819 134.2728 L100.0399 133.9673 L99.4222 133.0276 L98.3601 131.986 L97.9339 131.9226 L97.5009 131.5662 L96.8445 130.604 L96.4363 130.0735 L96.2309 129.7915 L95.7929 129.6517 L95.3853 129.7895 L95.218 129.8224 L93.4976 128.4754 L93.258 127.9868 L93.1601 127.6249 L93.0564 127.0255 M94.3857 35.318 L94.5153 35.2307 L94.6614 35.2501 L94.7435 35.3355 L94.9197 35.4958 L97.544 39.4417 L97.9469 40.0812 L98.3164 40.626 L98.7991 41.6809 L99.0717 42.2456 L99.5379 43.1583 L99.8358 43.8648 L100.1274 44.4769 L100.5702 45.3831 L101.0513 46.5019 L101.1879 46.8654 L102.0887 48.4955 L102.3625 48.9558 L103.0094 49.9219 L103.454 50.6768 L104.1719 51.5465 L104.4023 51.9803 L104.4144 52.3178 L104.1878 52.5025 L102.8547 52.1561 L101.5261 51.1496 L100.7084 50.0327 L99.7899 48.6208 L99.388 47.8839 L99.1652 47.2239 L98.8086 46.457 L98.6207 46.0571 L98.343 45.5902 L97.8559 44.9607 L97.5098 44.5962 L97.2753 44.1508 L96.9555 43.1154 L95.9999 40.919 L95.2633 38.5549 L94.831 36.9472 L94.5365 36.4664 L94.4662 36.2487 L94.4304 35.6656 L94.3857 35.318 M99.008 229.1974 L99.0647 229.0702 L99.2235 228.9714 L99.3699 228.9135 L99.5065 228.8841 L99.6029 228.8616 L99.6869 228.8651 L99.7566 228.923 L99.7858 228.9983 L99.7804 229.0896 L99.7471 229.1525 L99.6742 229.2238 L99.5851 229.2727 L99.4736 229.3221 L99.2476 229.3755 L99.0859 229.3366 L99.008 229.1974 M100.1613 78.6311 L100.322 78.2282 L100.5677 77.8608 L101.2801 77.0866 L101.4247 76.817 L101.6405 76.5434 L101.9717 75.9404 L102.3742 75.1751 L102.8503 74.5007 L103.3685 73.6046 L103.6455 73.0799 L103.887 72.5188 L104.0562 72.3456 L104.3123 72.2792 L104.5963 72.4624 L106.6688 76.3512 L106.2961 76.6343 L105.6885 77.3012 L105.317 77.6741 L105.0568 78.0341 L104.9567 78.3755 L104.8641 78.6665 L104.7792 78.9426 L105.1015 79.0814 L105.5275 79.2985 L105.9563 79.8751 L106.51 80.7427 L106.7014 81.0727 L107.0634 82.0067 L108.0231 83.4818 L108.3296 84.0454 L108.6763 83.9795 L107.4339 81.5609 L106.8377 80.537 L105.7189 78.4224 L105.7316 78.1409 L105.814 77.6072 L105.9233 77.2693 L106.5449 76.6053 L106.697 76.479 L107.6732 76.4286 L107.9432 76.4651 L108.187 76.5449 L108.3797 76.6942 L108.8484 77.0057 L108.9977 77.0107 L109.7565 77.8848 L110.0515 78.1758 L110.3422 78.3136 L110.4258 78.5702 L110.4518 78.7165 L110.1412 78.9511 L109.9026 79.1463 L109.7343 79.2516 L109.6817 79.3799 L109.6645 79.5037 L109.7276 79.6589 L109.8696 79.8367 L110.0626 79.9859 L110.3276 80.2126 L110.6093 80.5455 L110.706 80.873 L110.8097 81.2634 L111.0385 81.6837 L111.2886 82.2103 L111.5434 82.5418 L111.8724 82.7385 L112.8314 83.1238 L114.3765 83.7074 L115.167 84.1532 L115.2424 84.3389 L115.4957 84.7747 L115.7162 85.2414 L116.1663 85.8215 L117.3574 86.8483 L119.2391 88.2779 L120.375 89.0631 L120.6495 89.4106 L120.916 89.8448 L120.8355 90.1613 L120.4869 90.6535 L119.6612 91.6938 L119.3411 92.2369 L118.6597 93.5896 L118.2128 94.554 L117.7716 95.1021 L117.3288 95.6372 L117.0987 95.6322 L116.8493 95.3856 L116.5346 94.9449 L115.4383 92.9088 L113.8295 90.5716 L113.1687 90.0236 L112.8099 89.6082 L112.0267 88.3942 L111.6045 87.7837 L110.5466 86.4255 L110.2471 86.0176 L109.9022 85.9582 L109.6465 85.6942 L109.5035 85.5888 L109.4985 85.5789 L109.4433 85.7675 L109.6509 86.1998 L109.694 86.5338 L109.791 86.8248 L110.1488 87.4752 L110.5422 87.9844 L110.8689 88.1991 L110.8746 88.4427 L111.6185 89.2274 L111.9586 89.5179 L112.4032 89.9362 L113.5211 90.8766 L114.032 91.6299 L114.3673 91.8036 L114.5581 92.1291 L114.561 92.6212 L115.108 93.3391 L115.2668 93.3475 L115.7543 94.4472 L116.2151 95.1206 L116.2069 95.438 L116.5102 95.764 L116.7076 96.0301 L116.5305 96.4843 L115.6304 97.6653 L114.7315 98.6901 L114.6187 98.7664 L114.3721 98.6192 L114.0288 98.3022 L113.8501 97.8849 L113.6393 97.5026 L113.4045 97.227 L113.1455 96.8487 L112.8476 96.5467 L112.5262 96.2477 L112.1678 95.6098 L111.8156 95.1356 L110.9304 94.1412 L109.3669 92.1545 L108.4944 90.7658 L107.8802 89.5453 L107.4916 88.8725 L107.1502 88.3743 L106.9309 88.1716 L106.7268 88.1437 L106.6143 88.3783 L106.794 88.8001 L107.3892 89.9726 L108.166 91.4317 L109.2427 93.0715 L109.4956 93.4224 L109.998 94.0643 L110.2033 94.1262 L110.3913 94.5066 L110.6724 94.6843 L111.4622 95.3138 L111.8819 95.8643 L111.737 96.3645 L111.6004 96.5068 L111.2198 96.4878 L110.8334 96.3026 L110.4905 96.0036 L109.6278 95.187 L108.9758 94.6893 L107.4602 92.9232 L107.0656 92.472 L106.9968 92.1096 L106.7658 91.6713 L106.3306 91.2465 L105.5811 90.075 L104.8004 89.0137 L104.132 87.8312 L103.8677 87.4553 L103.6208 86.8787 L103.3875 86.5358 L101.6117 83.8826 L101.4253 83.3625 L101.2687 82.9526 L101.16 82.3546 L101.2491 82.1614 L101.2453 81.9213 L101.3198 81.7486 L101.3502 81.5055 L101.2034 81.4461 L100.7854 81.2189 L100.5759 80.9274 L100.2884 79.7683 L100.1613 78.6311 M106.6387 62.739 L106.8076 62.1365 L107.3762 61.6367 L107.9914 61.154 L108.2979 60.6078 L108.702 59.7791 L109.2246 59.7002 L109.2119 60.2938 L109.3917 61.8449 L109.4363 62.427 L109.7488 63.6871 L109.9732 63.7964 L110.4971 63.7675 L110.6071 64.1339 L110.7377 64.1728 L111.1161 64.1334 L111.4981 64.1254 L111.8264 64.3536 L112.1392 65.031 L112.2872 65.5063 L112.7316 66.2182 L112.8929 66.7189 L113.092 67.1517 L113.1636 67.2655 L113.2542 67.5032 L113.3303 67.7338 L113.4305 67.8576 L113.4729 68.264 L113.664 68.906 L113.6529 69.3543 L113.7214 69.5949 L113.5572 69.7721 L113.3087 69.8825 L112.9119 70.154 L112.7474 70.3273 L112.6226 70.495 L112.5202 70.7376 L112.4774 70.8699 L112.6603 72.4499 L112.6302 73.2227 L112.6451 74.5915 L112.7341 75.567 L112.8834 76.0303 L113.7534 77.0766 L113.9103 77.3791 L113.9918 77.5773 L114.0637 77.772 L113.9547 77.8798 L113.7934 77.8488 L113.6187 77.779 L112.7918 77.099 L112.0727 76.4611 L111.6309 75.7432 L110.7241 74.31 L110.3577 73.7354 L110.1751 72.6276 L110.3663 72.1354 L110.0417 71.8614 L109.7181 71.4021 L109.3403 70.9403 L109.1676 70.3053 L109.1086 69.874 L108.9444 69.6987 L108.5777 68.7752 L107.9641 67.8127 L107.7958 67.2486 L107.6047 66.8821 L107.5683 66.4888 L107.4627 66.1638 L107.3543 65.5742 L107.4158 65.4449 L107.3661 65.1708 L107.251 65.0709 L107.1829 64.6771 L107.0041 64.4175 L106.7125 63.5343 L106.6387 62.739 M113.6358 76.5849 L113.7873 76.5125 L114.1515 76.3118 L114.3816 76.1585 L114.5797 76.0003 L114.7819 75.8006 L115.1521 75.7302 L115.6386 75.6918 L115.7597 75.8041 L115.9346 75.7971 L116.0868 75.6713 L116.3504 75.6903 L116.3441 75.8715 L116.6506 76.8839 L116.6069 77.1285 L116.6918 77.3172 L116.9701 77.3481 L117.525 77.158 L117.4965 77.0701 L116.9349 75.9679 L116.6256 74.3709 L115.83 72.751 L115.4041 71.9108 L114.7569 70.5709 L114.625 70.1221 L114.76 69.8894 L115.5825 69.5999 L115.9521 69.5205 L116.1425 69.5704 L116.5159 69.7217 L117.1644 70.4591 L117.5225 71.1809 L117.9291 72.2403 L118.1459 74.3115 L118.435 74.4707 L118.8806 74.587 L120.2409 74.7408 L121.663 74.6884 L122.2339 74.7937 L122.5632 74.8366 L123.1349 76.5859 L123.4966 76.6343 L123.598 76.8484 L123.4161 77.145 L123.6382 77.6252 L124.1045 78.5018 L124.1913 78.9027 L124.3054 79.2641 L124.4556 79.5901 L124.8791 80.3314 L125.0515 81.3143 L125.2033 81.5764 L125.266 81.8449 L125.6619 82.1514 L125.9088 82.5333 L126.1798 83.008 L126.4254 83.3001 L126.8818 83.7803 L127.0818 84.1861 L127.7648 84.7931 L128.0463 85.0857 L129.3067 86.9856 L129.831 87.5841 L130.1783 88.0947 L130.6306 88.8914 L130.8639 89.3112 L131.0915 89.5648 L131.4027 89.9172 L131.8245 90.6046 L132.3897 91.0129 L132.802 91.6968 L132.7164 92.2803 L132.3868 92.8968 L132.2027 92.9407 L132.2112 93.2108 L131.9592 93.6016 L131.6413 93.8916 L131.3041 93.9351 L130.9327 93.9965 L130.5837 94.0958 L130.3352 94.1377 L130.192 94.1732 L129.8148 94.3908 L129.6513 94.2176 L128.7781 92.3093 L128.2345 91.3109 L127.6602 90.8222 L127.388 90.6505 L127.1081 90.335 L126.5706 89.738 L125.7202 88.5769 L125.1903 88.1237 L123.2826 86.0416 L122.7711 85.6313 L121.8614 84.5041 L121.3626 83.7758 L121.0536 83.2836 L120.8111 82.9411 L120.316 82.5558 L119.8134 82.1075 L118.8159 80.9254 L118.4603 80.1427 L118.2179 79.2945 L117.61 77.42 L116.8934 77.6597 L116.9628 77.9861 L116.9124 78.1728 L116.971 78.4459 L117.1041 78.5073 L117.1637 78.7489 L117.4331 79.6749 L117.0949 79.7503 L116.7628 79.8387 L116.429 79.914 L116.1929 79.8192 L115.8646 79.4737 L115.4823 79.012 L114.9153 78.396 L114.6012 78.6401 L114.445 78.4139 L114.0136 77.1819 L113.6358 76.5849 M114.966 99.354 L115.1077 98.9037 L115.5093 98.3646 L116.8335 96.6116 L118.2597 95.1945 L118.6521 94.5755 L118.9247 94.1282 L119.1259 93.8427 L119.3481 93.3875 L119.62 92.8953 L119.9509 92.3282 L120.3246 91.8605 L120.7835 91.3099 L121.3537 90.5527 L121.8519 90.5761 L122.2484 90.6156 L122.4899 90.7953 L122.8677 91.3344 L122.9127 91.4916 L123.2075 91.8595 L123.5095 92.172 L124.1907 92.6846 L124.4331 93.0675 L125.4318 93.7189 L126.4324 95.0078 L126.3259 95.178 L126.104 95.4026 L125.8061 95.785 L125.1995 95.9552 L123.777 96.8612 L123.3787 97.0384 L123.0322 97.263 L122.8316 97.4092 L122.4969 97.7102 L122.2732 98.0342 L122.1736 98.5164 L121.8966 98.6337 L121.6529 98.7694 L121.2963 98.8573 L120.8742 98.9466 L120.2295 99.4872 L120.0302 99.7902 L119.6016 100.2509 L119.3513 100.5015 L118.3912 101.0421 L117.513 100.8085 L117.1938 100.7391 L116.9923 100.8255 L116.8645 101.0077 L116.7168 101.2867 L116.5802 101.664 L116.489 102.0045 L116.476 102.2046 L116.3663 102.3843 L116.0785 102.4677 L115.9552 102.1028 L115.6579 102.0244 L115.4548 101.7858 L115.4465 101.2492 L114.9879 100.9053 L114.9946 100.5749 L115.0656 100.3318 L115.1277 100.0892 L115.1423 99.9025 L114.9698 99.5027 L114.966 99.354 M116.2554 127.9798 L116.443 127.2666 L116.7067 127.0145 L116.882 126.737 L117.242 126.3068 L117.8914 125.653 L118.0854 125.4229 L118.6229 125.2787 L119.0955 125.2372 L120.3623 124.6248 L120.5259 124.6738 L120.8643 124.526 L121.2887 124.3773 L121.5635 124.4177 L121.8139 124.5555 L122.7511 125.9235 L122.8354 126.1441 L123.0167 126.3892 L123.1983 126.5713 L123.5308 126.9392 L123.919 127.3364 L124.2807 127.8545 L124.5339 128.2902 L127.407 130.8965 L127.8101 131.1884 L128.0399 131.7349 L128.4637 132.0878 L128.5822 132.3723 L128.4504 132.5954 L127.5791 133.1618 L126.1975 133.9139 L125.5824 134.0846 L124.4978 134.0527 L123.7631 133.7772 L123.3371 133.6774 L123.0123 133.4757 L122.6059 133.04 L122.0843 132.5405 L121.6497 132.1711 L121.0998 131.973 L120.5877 131.983 L119.9817 132.0399 L119.5658 132.1063 L119.2838 132.1212 L119.0492 131.9226 L118.8207 131.7005 L118.454 131.3731 L117.474 130.3759 L117.4537 130.1618 L117.2151 130.0855 L117.0423 129.9158 L117.1162 129.7765 L116.9913 129.5924 L116.9225 129.1532 L116.5492 128.7674 L116.2864 128.5992 L116.2554 127.9798 M121.9984 135.224 L122.0291 134.8682 L122.2202 134.6112 L122.6706 134.3781 L123.0066 134.2848 L124.2037 134.3536 L124.8917 134.3456 L125.0651 134.4794 L125.3006 134.452 L125.4635 134.3427 L125.9541 134.2628 L126.4422 134.1201 L127.0717 133.7987 L128.5816 132.7965 L128.664 132.8459 L129.2133 132.7057 L129.4725 132.6757 L129.8104 132.8659 L130.3929 133.5027 L130.8233 133.9544 L131.2151 134.2249 L131.7393 134.7464 L132.3063 135.2091 L132.4071 135.3418 L134.3658 136.8505 L134.4073 136.866 L134.922 136.9913 L135.6653 137.149 L136.8085 137.3771 L137.5222 137.6286 L138.2227 137.9984 L139.0505 138.3812 L138.9827 138.7685 L138.9437 138.9761 L138.7516 139.2241 L138.4914 139.3494 L137.9251 139.5146 L137.0696 139.5959 L135.9343 139.5924 L135.276 139.5874 L134.6688 139.4776 L134.1883 139.4113 L133.7902 139.4757 L132.7659 139.536 L131.8705 139.5046 L130.6379 139.3229 L128.6538 139.2241 L127.6403 139.1837 L127.2599 139.1647 L127.0574 139.1293 L126.8552 138.9771 L126.7921 138.8982 L126.6267 138.9087 L126.1319 139.1108 L125.6999 139.269 L125.1836 139.3609 L125.029 139.3474 L124.4404 138.9327 L124.0829 138.5678 L123.5 137.6146 L123.2652 137.2987 L122.4297 136.1902 L122.2041 135.7965 L121.9984 135.224 M124.6756 123.9066 L124.7437 123.6007 L124.8569 123.411 L125.0604 123.3786 L125.4331 123.448 L125.7766 123.5348 L126.0847 123.7065 L126.4216 123.8932 L126.7046 124.1991 L127.0533 124.4477 L127.2073 124.4566 L127.5949 124.5744 L127.9727 124.6478 L128.2326 124.6358 L128.6177 124.5774 L128.9153 124.5425 L129.1961 124.5959 L129.4497 124.6837 L129.9127 124.9098 L130.6046 125.2857 L131.3897 125.9984 L133.1757 127.8865 L133.2631 128.0976 L133.3104 128.2728 L133.2647 128.4225 L133.0464 128.678 L132.6844 129.0139 L132.5564 129.1911 L132.4882 129.538 L132.4461 129.9133 L132.4629 130.2137 L132.5088 130.4568 L132.6879 130.7972 L133.4606 131.6376 L133.781 131.9166 L134.1034 132.0149 L134.323 132.0074 L134.5306 131.8927 L135.329 131.3576 L135.489 131.1445 L136.0497 131.0477 L136.4814 131.1196 L136.9032 131.6127 L137.16 131.8447 L137.5111 132.3907 L137.7187 132.7057 L138.2135 132.9552 L138.4724 133.0291 L138.8987 133.056 L140.4577 133.9948 L141.1763 134.6062 L141.4596 134.9081 L141.7151 135.3663 L141.9125 135.6323 L141.9639 135.9607 L142.0707 136.4538 L142.1233 136.8316 L142.3832 137.131 L142.9226 137.3576 L143.1828 137.7384 L143.6367 137.925 L143.7717 138.1576 L143.8557 138.3782 L144.2522 138.6527 L144.1416 138.747 L143.9032 138.9826 L143.9752 139.1772 L144.1657 139.2271 L144.3758 139.3698 L143.8522 139.4761 L142.7683 139.5296 L142.4361 139.5006 L142.0482 139.4552 L142.0222 139.1757 L141.329 137.934 L140.8045 137.3222 L140.3652 137.0367 L139.989 136.8361 L139.5009 136.4727 L138.1206 135.3987 L136.8937 134.4135 L135.5838 133.5062 L135.3407 133.8356 L134.9271 133.6849 L134.646 133.7492 L134.7195 134.1111 L135.6954 134.8377 L136.702 135.52 L139.8521 137.6016 L140.3316 137.9295 L141.2599 138.7834 L141.271 138.8783 L141.1531 138.8917 L139.1976 137.8936 L137.5371 137.1729 L136.443 137.0117 L135.9033 136.9493 L135.1581 136.7742 L134.8973 136.6624 L133.5113 134.8048 L131.4883 132.3957 L130.2373 130.7937 L128.9423 129.3099 L128.3524 128.7534 L127.0514 127.6309 L125.8977 126.3348 L124.8195 124.6573 L124.7 124.1567 L124.6756 123.9066 M132.5843 97.4497 L132.8863 97.1392 L133.3405 97.1721 L133.8406 97.4841 L134.2349 97.7002 L135.264 98.3397 L136.4934 98.9601 L137.2588 98.9976 L137.7143 99.0395 L138.3326 99.2072 L138.9339 99.3405 L139.3633 99.2771 L139.7747 99.017 L140.2384 98.7011 L141.0954 98.3621 L141.4225 98.2294 L141.6881 98.3067 L141.8973 98.5174 L141.8494 98.8433 L142.0241 99.7313 L142.232 100.4795 L142.3157 100.8899 L142.8085 102.6978 L143.4132 103.7719 L144.0899 104.8716 L144.8338 105.7226 L145.719 106.5572 L146.2385 107.1242 L146.5583 107.6158 L146.7031 108.2482 L146.9205 109.3044 L147.3034 110.5268 L147.8412 111.7926 L148.2542 112.3631 L149.0187 113.6384 L149.5629 114.3821 L149.8874 115.3299 L150.0126 115.9258 L150.1888 116.6326 L150.4395 117.2131 L150.585 117.4367 L151.0684 117.6548 L151.2652 117.9163 L151.5964 118.4064 L151.9225 118.7329 L152.1298 119.2859 L152.3859 119.6408 L152.6223 119.8005 L152.7786 119.8274 L152.9893 120.0151 L153.2312 120.2352 L153.4064 120.5042 L153.2163 120.9644 L153.021 121.1451 L152.893 121.3632 L153.0017 121.6607 L153.0816 121.9397 L153.4568 122.2281 L154.1268 122.5296 L155.0152 122.8915 L155.5445 123.1919 L155.6738 123.6775 L155.9746 124.2166 L157.0928 125.0441 L157.9045 125.6769 L158.9964 126.8643 L160.6983 128.1839 L162.0539 128.9615 L164.5901 130.8066 L165.0309 131.1066 L164.894 131.3641 L164.5397 131.6895 L163.419 132.2804 L163.1597 132.2849 L162.4022 131.6671 L161.0834 130.3884 L160.3297 129.7151 L160.0236 129.4771 L159.6543 129.1681 L159.3574 128.8951 L159.1669 128.5742 L158.7983 128.5403 L158.7751 128.8093 L158.8981 128.9755 L159.0857 129.0399 L159.3193 129.3872 L159.5672 129.503 L159.758 129.5579 L160.0667 130.1633 L160.6191 130.8126 L161.2558 131.7639 L161.7084 132.1721 L162.027 132.3563 L161.9747 132.4891 L161.5072 132.4571 L161.2571 132.4771 L160.6723 132.6762 L160.3424 132.8229 L160.1459 132.9542 L159.9855 133.0495 L159.7206 132.782 L159.4952 132.6637 L158.6588 132.7925 L158.4829 132.8674 L158.3267 132.9577 L158.2357 133.0675 L158.2357 133.2616 L158.2886 133.6804 L158.1441 133.7962 L157.9539 133.5925 L157.2826 133.2776 L156.4377 132.5899 L156.4269 132.4601 L156.1876 132.2575 L155.9097 132.0369 L155.5585 131.7255 L155.1579 131.6501 L154.7075 131.0657 L154.407 131.0372 L154.0064 130.7273 L154.0023 130.5741 L152.7792 129.7266 L152.3038 129.5414 L152.0724 129.4002 L151.5533 128.8357 L150.1888 127.6599 L148.826 126.3158 L148.1775 125.9709 L147.8752 125.8377 L147.588 125.5023 L147.001 125.098 L146.5389 124.4062 L145.3127 122.4817 L144.1406 120.613 L143.4766 119.4162 L142.1226 116.5927 L141.2957 115.6064 L140.7867 114.5902 L140.4939 113.8734 L137.8512 108.8747 L137.6823 108.3481 L137.5945 107.814 L137.4931 106.936 L137.3466 106.4963 L137.0823 106.0705 L136.5784 105.4321 L136.0098 104.4403 L134.8599 102.1457 L133.9024 100.4781 L133.0194 98.6412 L132.6654 97.9553 L132.5843 97.4497 M141.4653 156.8666 L142.7616 155.8286 L146.0565 159.8638 L145.5133 160.9202 L141.4653 156.8666 M144.5549 272.8777 L144.6078 272.7605 L144.8335 272.6458 L145.0474 272.7027 L145.4575 272.9396 L145.5903 273.1301 L145.6005 273.3571 L145.5222 273.4414 L145.3288 273.5082 L145.1834 273.4997 L144.8911 273.3636 L144.6167 273.1625 L144.5549 272.8777 M150.6012 181.7731 L151.6595 180.6149 L152.0718 180.2322 L152.4122 180.3105 L153.1469 180.6269 L153.5408 181.0371 L153.9871 181.5859 L154.3278 181.8444 L155.058 182.2426 L155.6409 182.7665 L156.2079 182.9172 L157.0659 183.3688 L157.7565 183.8124 L158.2782 184.2345 L159.5348 185.0548 L160.1148 185.3218 L160.8093 185.7539 L161.6853 186.3631 L162.0181 186.672 L162.8291 187.3002 L164.4354 188.2243 L164.9321 188.6274 L165.5438 189.089 L165.9216 189.4742 L166.4401 189.8699 L167.1294 190.4581 L168.0695 191.3877 L168.3119 191.6936 L168.6856 192.2369 L169.9556 193.408 L171.8214 194.8899 L172.8794 195.5375 L173.3827 195.5715 L174.0654 195.9621 L174.6039 196.5005 L175.181 197.0419 L175.5848 197.5049 L175.9515 198.0862 L176.2754 198.3646 L176.5217 198.6056 L179.707 199.4343 L179.9574 199.4857 L182.6644 200.6827 L183.065 200.9511 L183.5341 201.3133 L183.9451 201.5593 L184.2665 201.689 L184.5648 201.8936 L184.7239 202.182 L184.7806 202.3621 L184.973 202.5801 L185.1974 202.5382 L185.3318 202.3371 L185.4259 201.951 L185.5821 201.7753 L185.8218 201.707 L186.0848 201.8392 L186.5495 202.3541 L186.8658 202.8321 L186.9526 203.0631 L187.041 203.2991 L187.2749 204.2336 L187.2797 204.6263 L187.1348 204.8912 L186.7875 205.198 L186.3964 205.2434 L186.0049 204.9321 L185.7622 205.2085 L185.2608 205.7593 L185.1188 205.915 L185.1093 206.0008 L185.1055 206.0342 L185.191 206.1505 L186.467 207.3749 L187.0122 207.9257 L186.893 208.0399 L186.037 208.1746 L185.7197 208.2265 L185.3784 208.2824 L182.7389 208.5074 L182.2961 208.5723 L181.3164 208.4695 L180.6553 208.5144 L180.0607 208.6691 L179.7336 208.8786 L179.456 208.9694 L178.7371 209.0213 L177.7581 209.4329 L177.1239 209.6265 L176.6497 209.6579 L176.4659 210.1354 L176.3727 210.5375 L176.0032 210.8469 L175.5791 210.801 L174.2159 209.4065 L173.229 208.5004 L172.3476 207.7785 L170.9014 206.137 L169.5753 204.8568 L168.9864 204.2391 L167.8517 203.4992 L166.2223 201.9819 L164.8405 200.5849 L163.9622 199.3729 L162.7952 197.9235 L162.078 196.9371 L161.5252 196.0889 L159.4451 193.1296 L159.2125 192.6341 L159.2293 192.3677 L159.1992 192.1072 L159.1564 191.9441 L159.0693 191.8098 L158.8347 191.5479 L158.519 191.5035 L158.1913 191.3967 L155.613 188.3326 L155.2219 187.6669 L154.305 186.2858 L152.1542 183.6352 L151.1596 182.5644 L150.6757 182.0046 L150.6012 181.7731 M159.4185 182.3728 L159.6978 182.4896 L160.2619 182.6947 L160.7151 182.9946 L161.0707 183.3823 L161.5284 183.8752 L161.6932 183.978 L162.1341 184.0893 L162.4057 184.2205 L163.4469 185.0478 L164.1692 185.5688 L164.366 185.6361 L164.6059 185.6087 L164.939 184.9061 L165.1127 184.7325 L165.2775 184.6771 L165.4889 184.6751 L166.6667 185.4775 L166.9529 185.7334 L167.105 185.9595 L167.1966 186.206 L167.2461 186.4395 L167.2011 186.6346 L166.5386 187.4883 L166.5402 187.9304 L166.7069 188.3989 L167.0147 188.6474 L167.3044 188.6589 L167.4445 188.4304 L167.5494 187.7408 L167.7399 187.5562 L167.9468 187.4783 L168.1687 187.4883 L168.5411 187.6709 L169.3227 188.1629 L169.9112 188.618 L170.8991 189.4517 L171.0307 189.811 L171.2291 190.1268 L171.391 190.2436 L171.6329 190.1523 L171.817 189.9138 L172.0417 189.6758 L172.326 189.566 L172.707 189.4722 L172.9564 189.4477 L173.1811 189.4847 L173.3729 189.5845 L173.571 189.7781 L173.7104 190.051 L173.7963 190.3254 L174.279 190.7251 L175.0904 191.7465 L175.556 192.3472 L176.6203 193.5692 L177.5115 194.5805 L178.211 195.7276 L178.9213 196.6976 L179.97 197.9749 L181.4578 199.0441 L182.4184 199.7227 L182.9182 200.4866 L182.9138 200.6557 L182.2089 200.3249 L180.6521 199.6344 L180.2347 199.4119 L179.2351 198.864 L177.825 198.1705 L177.2653 197.8746 L176.1696 197.2814 L175.4682 196.8133 L174.97 196.4112 L174.0974 195.5096 L173.7672 195.3404 L173.5558 195.2252 L173.3054 195.0825 L173.1022 194.9617 L172.3821 194.4583 L171.5169 193.8271 L170.7543 193.189 L169.9787 192.3936 L169.001 191.5369 L168.5721 191.3338 L167.1332 189.9068 L165.9431 188.9208 L165.2794 188.4378 L164.5628 187.9254 L163.3654 187.3057 L162.2625 186.6436 L161.6932 186.1591 L161.5477 185.7963 L161.4663 185.4041 L161.1829 185.1347 L161.0717 184.8722 L160.8004 184.24 L160.2328 183.3393 L160.0502 183.0854 L159.6765 182.6952 L159.4185 182.3728 M161.9658 136.4278 L162.0888 136.2057 L162.3369 136.055 L162.4834 136.0335 L162.6326 136.0795 L162.8535 136.2751 L163.0716 136.5251 L163.2174 136.346 L163.3233 136.0535 L163.5752 135.8164 L163.9346 135.6527 L164.1194 135.5774 L164.3283 135.5779 L164.7121 135.7975 L165.0699 136.2796 L165.6842 137.3102 L166.0227 137.7454 L166.2426 137.932 L166.2293 137.7798 L165.6487 136.8855 L165.4541 136.5651 L165.4427 136.4667 L165.4518 136.312 L165.5897 136.1788 L165.7799 136.1883 L165.9231 136.2576 L166.0442 136.4103 L166.5269 137.2353 L167.1576 138.3677 L167.2565 138.7176 L167.0831 139.0494 L166.7573 139.3085 L165.7539 139.7861 L164.9752 140.2966 L164.6306 140.5486 L164.3476 140.5546 L164.1505 140.4533 L163.8779 139.9563 L163.6082 139.534 L163.0659 138.8563 L162.5521 138.3468 L162.4108 138.1376 L162.3762 137.9195 L162.445 137.6141 L162.5141 137.3531 L162.4789 137.1679 L162.3163 137.0467 L162.0146 136.7337 L161.9658 136.4278 M170.8491 185.5473 L171.1172 185.0239 L171.4785 184.6028 L171.7359 184.4151 L171.9416 184.3637 L172.7621 184.9191 L173.4711 185.2878 L173.7988 185.2774 L174.2578 185.197 L174.7015 185.1002 L175.3912 184.9525 L175.6175 185.0389 L175.8767 185.2574 L176.3715 185.719 L177.2019 186.5937 L178.3372 188.0826 L179.3422 189.3385 L180.3783 190.6677 L181.422 192.1401 L182.3037 193.9299 L182.4555 194.3096 L182.3918 194.4977 L182.1779 194.5177 L181.0987 193.189 L180.4584 192.5727 L179.1641 191.4226 L178.6256 191.2171 L177.8963 191.1093 L177.451 191.1851 L177.1407 191.251 L176.8779 191.3942 L176.606 191.5748 L176.1959 191.5324 L175.6235 191.0414 L175.0283 190.3898 L174.4394 189.1898 L173.5393 188.2961 L173.0686 187.8451 L172.0959 186.7528 L171.5853 186.3876 L170.9131 185.9465 L170.8491 185.5473 M185.3663 205.9833 L186.061 205.1436 L186.9872 205.6795 L190.8228 203.2766 L192.3717 204.6372 L193.3704 204.2755 L195.1506 205.216 L196.5113 203.0741 L199.3482 205.3173 L197.0466 206.0123 L195.1072 206.5766 L194.1665 207.9661 L194.3691 209.2398 L193.6889 210.5425 L191.6624 209.0517 L189.7664 208.6032 L188.3189 209.6015 L187.132 209.8335 L185.9742 208.3567 L187.345 208.0235 L185.3663 205.9833 M186.0284 201.2724 L186.1704 200.9037 L186.3254 200.4117 L186.5247 200.2665 L186.7342 200.0525 L186.8857 199.7282 L186.9051 199.3106 L186.9843 198.8271 L187.0597 198.5836 L187.1551 198.4324 L187.4229 198.3745 L187.5599 198.3137 L187.4971 198.0408 L187.3865 197.6291 L187.1818 197.1886 L187.0502 196.6662 L187.1028 196.4975 L187.255 196.2944 L187.3976 195.9302 L187.6115 195.6393 L187.8362 195.4777 L188.053 195.4073 L188.3237 195.3714 L188.4815 195.4522 L188.6349 195.6109 L189.0083 196.3483 L189.034 196.4541 L189.1509 196.6886 L189.5376 196.8787 L189.7157 197.0159 L189.9132 197.1282 L190.077 197.2988 L190.5144 197.5777 L192.2177 199.3445 L192.4715 199.595 L192.6798 199.4079 L192.4468 199.3405 L191.9777 198.8665 L191.6532 198.5113 L190.8035 197.6256 L190.4789 197.1905 L190.361 196.9905 L190.2656 196.749 L190.2751 196.5175 L190.4995 196.004 L190.5578 195.6134 L190.4168 195.4447 L190.1474 195.3719 L189.5414 195.1937 L189.368 195.097 L189.3699 194.839 L189.7677 194.111 L189.9322 193.5457 L190.1588 193.0907 L190.6944 192.464 L191.4789 191.6916 L192.2776 191.0434 L192.6604 191.1617 L193.301 191.9136 L193.5637 192.2394 L193.9561 192.5194 L194.2648 192.8132 L194.4176 193.0438 L194.5253 193.2748 L194.6803 193.4873 L194.8923 193.7652 L195.2413 194.2123 L195.4425 194.5142 L196.4393 195.5814 L196.794 195.809 L197.0875 195.9307 L197.2878 196.1467 L197.3442 196.4017 L197.4586 196.6507 L197.4935 197.3058 L197.1759 198.5706 L197.051 198.6979 L196.7743 198.6804 L196.2194 198.632 L195.3937 198.5786 L194.969 198.6051 L194.6115 198.6694 L194.2619 198.9942 L193.9764 199.5241 L193.7171 199.6578 L193.255 199.9058 L193.0265 200.307 L192.746 200.4117 L191.9365 200.4197 L191.1362 200.3908 L190.3978 200.4312 L189.7167 200.6547 L188.1389 201.5738 L187.6562 201.7609 L187.5164 201.8761 L187.3703 202.0557 L187.2258 202.0907 L187.0616 202.15 L186.8458 202.1525 L186.5371 202.0123 L186.236 201.7853 L186.0557 201.6257 L186.0284 201.2724 M188.1551 201.9105 L188.1827 201.7584 L188.7475 201.5029 L189.8685 200.7999 L190.3949 200.6393 L190.8136 200.5998 L191.7422 200.6093 L192.9656 200.5983 L193.5095 200.7071 L193.933 200.6223 L194.415 200.5569 L195.028 200.5215 L195.7275 200.3414 L196.4251 200.1024 L196.5582 200.0869 L196.6225 200.1383 L196.6073 200.4332 L196.5284 200.6862 L196.4818 201.0259 L196.4273 201.4116 L196.2409 202.0198 L196.1598 202.5262 L196.0508 202.7917 L195.4974 204.5125 L195.2714 204.7011 L194.9532 204.752 L194.4153 204.5389 L193.828 204.0924 L193.3469 203.552 L192.5286 204.2246 L192.4088 204.2795 L192.339 204.2605 L192.2357 204.1458 L192.0769 203.8619 L191.8858 203.6898 L191.6405 203.5515 L191.3492 203.4089 L190.9309 202.866 L190.8171 202.893 L190.696 202.9384 L189.8213 203.5501 L189.4371 203.5765 L189.2542 203.4762 L189.0967 203.359 L188.42 202.3721 L188.1551 201.9105 M192.2047 213.9177 L193.6743 211.3787 L195.0223 210.2871 L199.3486 213.3504 L198.8956 214.5882 L197.1334 213.2257 L195.731 214.6281 L194.0594 214.9594 L192.2047 213.9177 M193.4258 200.5215 L194.4017 199.1514 L195.1434 198.8191 L195.6321 200.2611 L195.1773 200.4367 L193.4258 200.5215 M204.496 317.3045 L204.889 316.1082 L205.9026 316.0762 L206.1001 316.9694 L206.1993 317.7927 L206.2386 318.4834 L206.3311 318.9736 L206.4541 319.221 L206.3679 319.3706 L206.1736 319.4025 L205.6047 319.3871 L205.0263 319.3277 L204.967 318.4909 L204.496 317.3045 M205.9644 327.7749 L206.0617 327.5649 L206.6804 327.3894 L207.0614 327.336 L207.3441 327.3305 L207.5174 327.3106 L207.6496 327.0513 L207.6379 326.5611 L207.5925 326.3227 L207.6122 326.1801 L207.6762 326.033 L207.7057 325.9392 L207.9444 325.8215 L208.2515 325.7542 L208.5155 325.7418 L208.9595 325.6495 L209.2831 325.4904 L209.4796 325.1653 L209.6153 324.6621 L209.6707 324.52 L209.711 324.4796 L210.2948 324.6237 L210.9097 324.8052 L211.4859 325.0002 L211.5442 325.0386 L211.1467 325.8475 L210.93 326.2694 L210.8092 326.6264 L210.7198 327.2762 L210.5883 327.5589 L210.3835 327.8127 L209.6283 328.0945 L208.8955 328.3329 L207.6984 328.8011 L207.2154 329.1008 L206.7603 329.4469 L206.3796 329.229 L206.1901 328.9896 L206.0636 328.5573 L205.9644 327.7749 M208.7985 321.1275 L209.0283 320.4702 L209.5551 320.5026 L210.7674 321.0721 L212.6605 322.0301 L212.6944 322.0271 L212.8256 322.1014 L212.5565 322.7731 L211.857 324.4741 L211.5832 325.0252 L210.9414 324.8062 L210.3005 324.5963 L209.7763 324.4821 L209.6616 324.2053 L209.4704 323.4468 L209.1186 322.6978 L208.8727 322.2031 L208.8191 321.5164 L208.7985 321.1275 M209.0369 320.4532 L209.4023 320.1087 L209.7826 319.5456 L209.9348 319.2255 L210.1198 318.9966 L210.4365 318.5403 L211.0504 317.8147 L211.4108 317.3893 L211.7911 317.0567 L211.9711 316.9001 L212.0342 316.5904 L211.9809 316.0508 L212.1736 315.7032 L212.2269 315.5666 L212.7768 315.6154 L213.3796 315.8074 L214.4157 316.558 L214.603 316.8163 L214.4398 317.1963 L214.3247 317.5254 L214.1232 317.8466 L214.0633 318.3817 L213.906 319.203 L213.3723 320.5465 L212.8313 321.9807 L212.7029 322.0101 L212.669 322.0131 L210.7759 321.0552 L209.5636 320.4857 L209.0369 320.4532 M213.9232 295.0827 L213.9739 294.8194 L214.0693 294.6323 L214.1751 294.5341 L214.2845 294.4942 L214.499 294.4154 L214.6385 294.2593 L214.7051 294.1346 L214.7548 293.7855 L214.7875 292.8972 L214.7146 292.4997 L214.7491 292.2858 L214.8442 291.8663 L215.0062 291.6598 L215.2746 291.4573 L215.3735 291.4703 L215.4366 291.7361 L215.5247 292.1077 L215.7735 293.4059 L216.2578 295.5386 L216.5075 296.9629 L216.5088 297.3101 L216.3269 298.0896 L216.0435 298.3255 L215.2321 298.4327 L214.1498 298.4906 L213.99 298.2726 L213.9305 298.1913 L213.9913 297.8592 L214.0262 297.8083 L214.3843 297.2856 L214.7104 296.9904 L214.8724 296.6782 L214.894 296.3959 L214.7738 296.2926 L214.3929 296.3051 L214.1672 295.9909 L214.0265 295.7834 L213.9542 295.5844 L213.9295 295.3705 L213.9232 295.0827 M215.5776 291.3162 L215.6711 291.0349 L216.6457 290.592 L216.8717 290.3227 L218.3648 289.2199 L219.7105 288.2828 L220.5891 287.3915 L220.7406 287.1436 L220.9942 287.0783 L221.1989 287.1262 L221.3412 287.1596 L221.7574 287.414 L223.1411 289.1087 L223.3313 289.393 L221.9485 290.1995 L221.9142 290.3257 L222.112 290.3741 L223.556 289.7012 L223.6466 289.7337 L223.6844 289.8514 L223.6517 290.376 L223.6799 290.8558 L223.8701 291.2494 L223.9122 291.3885 L223.9259 291.5855 L223.8856 291.9785 L223.4416 293.2394 L223.2711 293.7915 L222.9183 294.559 L222.6904 294.9241 L222.2375 295.0937 L221.6109 295.5136 L221.3796 295.6942 L221.2097 295.7804 L220.9678 296.0044 L220.8319 296.2537 L219.1385 297.5335 L218.8865 297.4946 L218.7413 297.2497 L218.3077 296.7779 L218.0475 296.4637 L217.472 296.7031 L217.0032 296.734 L216.776 296.5979 L216.5725 295.6917 L216.9899 295.7201 L217.7645 295.6074 L219.0592 294.6588 L219.4858 294.1037 L219.3416 293.7506 L218.6757 292.6588 L218.4862 292.4598 L218.2263 292.5486 L217.2314 293.2862 L216.6888 293.8503 L216.3161 293.8573 L216.0635 293.58 L215.6337 291.578 L215.5776 291.3162 M247.0849 295.2802 L247.1685 294.0518 L247.6208 293.0648 L247.7806 292.973 L247.9955 293.18 L248.152 293.0279 L248.2259 292.8239 L248.2173 292.7511 L247.9045 292.5092 L248.0142 292.2483 L248.3054 291.7676 L248.6179 291.199 L248.8401 291.2139 L249.1856 291.2055 L249.3523 291.4793 L249.564 291.7167 L249.6727 292.0743 L249.9649 293.1361 L250.1503 293.9147 L250.5275 294.1416 L250.9963 294.4852 L253.1302 296.3041 L253.1144 296.5181 L252.9147 296.934 L252.7011 297.2492 L252.535 297.7086 L252.2837 297.8647 L252.0472 297.8826 L250.9379 297.3161 L249.4125 296.6532 L247.2839 295.4059 L247.0849 295.2802 M278.0394 226.1123 L278.1636 225.8224 L278.3586 225.7187 L278.711 225.6508 L279.5984 225.6159 L280.1829 225.5301 L280.4415 225.6269 L281.1603 226.3203 L281.6228 227.0113 L282.5111 228.1233 L282.8572 228.5478 L283.2151 228.8407 L283.4189 228.8896 L283.6132 228.8576 L284.042 228.5553 L284.2347 228.3887 L284.4242 228.3942 L284.7066 228.4605 L284.9602 228.6706 L285.2524 229.0971 L285.3424 229.3306 L285.3738 229.801 L285.1142 230.2824 L285.2204 230.9335 L285.0822 231.0627 L284.6996 231.3371 L284.3215 231.4932 L284.0055 231.7601 L283.6151 232.0445 L283.0864 232.1058 L282.6775 231.9951 L282.3546 231.7706 L281.85 230.9849 L281.4472 230.3942 L281.3267 230.2325 L280.9277 229.9716 L280.6219 229.7002 L280.2352 229.2348 L279.8098 228.9819 L279.3709 228.3732 L279.1037 228.2056 L278.4619 227.2822 L278.1747 226.6246 L278.0394 226.1123 M283.5301 221.9111 L283.6829 221.5549 L284.3339 220.834 L284.8096 220.6255 L285.0518 220.6564 L285.4815 220.9093 L285.8501 221.4886 L286.072 221.8029 L286.5465 222.397 L286.8754 222.6171 L287.2174 222.7353 L287.657 222.9149 L288.205 223.2576 L288.8136 223.5395 L289.1771 223.7231 L289.5051 223.992 L289.8623 224.2035 L290.1587 224.3906 L290.3098 224.689 L290.4731 224.9728 L290.6341 225.356 L290.6721 225.6857 L290.6448 226.0364 L290.7101 226.4485 L290.8778 226.8082 L291.1098 227.1425 L291.4023 227.3226 L291.6331 227.583 L291.9564 227.8888 L292.3231 228.2979 L292.6378 228.7264 L292.7956 229.3944 L292.9636 229.9936 L293.259 230.6047 L293.8254 231.1849 L294.8437 231.7656 L295.1353 231.8913 L295.6145 231.7905 L296.114 231.4757 L296.4354 231.2173 L296.6699 231.1405 L296.8576 231.1684 L298.4717 232.9544 L300.433 234.6236 L300.7525 234.7583 L300.9464 234.7843 L301.0615 234.7468 L301.1604 234.5673 L300.8548 234.1941 L299.4321 233.0372 L297.9374 231.2423 L297.2915 230.4775 L297.0595 230.3009 L296.5558 229.6778 L296.4712 229.3351 L296.579 229.0971 L296.8297 228.8876 L297.177 228.6985 L297.4778 228.7314 L297.9726 229.1979 L299.0892 230.256 L300.2723 230.914 L301.5046 231.805 L302.1188 232.1767 L302.3178 232.3792 L302.4858 232.6671 L302.56 232.92 L302.6015 233.1634 L302.5942 233.4129 L302.5524 233.7157 L302.4142 234.002 L302.2646 234.3448 L301.9014 234.8287 L300.2869 237.4258 L299.5937 238.3925 L299.312 239.2855 L299.1598 239.5285 L298.9177 239.5758 L298.7735 239.5684 L298.5507 239.498 L298.3168 239.3329 L297.9513 239.0625 L297.6883 238.853 L297.3222 238.6984 L297.1552 238.5781 L296.9698 238.4499 L296.8195 238.3591 L296.6493 238.3651 L296.3796 238.4868 L296.1429 238.5816 L295.7546 238.9243 L295.3999 239.0106 L294.9657 239.07 L294.6 239.0221 L294.2688 238.9608 L293.9797 238.8725 L293.7119 238.7767 L293.4628 238.5667 L293.1794 238.2155 L293.0207 237.6966 L293.2251 236.3826 L293.3674 235.5036 L293.2882 235.0886 L293.156 234.449 L293.2435 233.8384 L293.6035 233.3276 L293.678 232.8811 L292.9243 231.7676 L291.4816 229.4378 L290.8949 228.1018 L290.5853 227.6319 L290.3026 227.3261 L290.1086 226.8716 L290.1118 226.5673 L290.1672 226.1502 L290.0734 225.9217 L289.8455 225.6229 L289.5688 225.3704 L289.1964 225.1065 L288.7857 224.8606 L288.5413 224.6949 L288.3774 224.6011 L288.0472 224.3502 L287.8732 224.2484 L287.6713 224.1362 L287.4272 223.9705 L287.0659 223.8453 L286.8469 223.9745 L286.6656 224.1985 L286.445 224.5128 L286.1864 224.651 L285.4476 224.3347 L284.834 224.0085 L284.571 223.6418 L284.3836 223.2252 L284.2128 222.7488 L283.971 222.5732 L283.584 222.3382 L283.5301 221.9111 M292.8663 240.6658 L292.8736 240.5252 L292.943 240.4274 L293.0311 240.3067 L293.3636 240.0892 L293.5221 239.9929 L293.7224 239.942 L293.9579 240.0163 L294.2675 240.2194 L294.9293 241.0664 L295.0507 241.4865 L294.9413 241.6616 L294.7765 241.8421 L294.665 241.8915 L294.5128 241.8975 L294.0583 241.8905 L293.7629 241.7499 L293.214 241.2595 L292.9668 240.9023 L292.8663 240.6658 M294.7027 242.7805 L295.7568 241.3183 L296.6069 239.516 L299.1231 240.366 L300.2111 238.2239 L301.2995 239.4821 L300.7553 241.6241 L301.1975 244.0047 L300.9933 245.8409 L299.7693 246.1806 L298.5792 245.7726 L294.7027 242.7805 M309.1033 324.7698 L311.1444 322.9177 L311.2341 322.7991 L311.9253 322.0785 L312.158 321.8306 L312.4689 321.4426 L312.5931 321.3878 L312.7177 321.4137 L313.0489 321.8316 L314.593 323.756 L314.9486 324.0712 L315.2703 324.2462 L315.9946 324.519 L316.5248 324.8232 L317.4297 325.454 L318.391 326.1462 L319.3031 326.7989 L319.427 326.9381 L319.4366 327.0996 L319.4946 327.174 L319.5896 327.2577 L319.8194 327.2582 L320.0885 327.331 L320.5031 327.5225 L321.162 327.8546 L321.4593 328.1568 L321.5921 328.4705 L321.7122 329.1746 L321.7398 329.5636 L321.8815 330.3639 L322.1325 330.9439 L323.0598 331.6535 L323.6069 332.3032 L324.5222 333.1814 L324.5555 333.313 L324.4788 333.4302 L324.3856 333.4816 L324.1704 333.4477 L323.8373 333.4093 L322.9356 333.1973 L321.5756 332.8358 L320.9994 332.6358 L320.4565 332.1796 L320.1116 331.7637 L319.5719 331.6864 L318.5298 331.5089 L315.813 331.087 L313.9576 330.7599 L313.7947 330.6751 L313.7176 330.5125 L313.6758 329.953 L313.6806 329.3661 L313.6847 328.9323 L313.7018 328.5333 L313.6241 328.2491 L313.3408 327.7808 L313.1769 327.4886 L312.8869 326.8453 L312.8369 326.2145 L312.738 325.7433 L312.2245 324.8521 L311.9253 324.9763 L311.2895 326.4175 L310.5378 327.5076 L310.1593 327.3779 L309.9758 326.7845 L309.7619 326.0654 L309.4247 325.5129 L309.1033 324.7698 M343.4237 276.7553 L343.4947 276.4261 L343.5467 276.1318 L343.5375 275.8864 L343.5806 275.7677 L343.8938 275.5293 L344.3955 275.2879 L344.9441 274.9023 L345.1051 274.8774 L345.4503 274.9198 L346.1494 274.8579 L346.8328 274.6589 L347.093 274.6449 L347.1399 274.6424 L347.7636 275.2978 L348.0777 275.5078 L348.2232 275.5672 L348.9316 275.5866 L350.2063 275.2639 L350.2184 275.2609 L350.5419 275.224 L350.869 275.2175 L351.3673 275.2739 L352.2785 275.6874 L352.8173 276.0425 L353.5298 276.5927 L354.1782 277.2446 L355.021 277.9025 L355.9854 278.0481 L356.2098 278.1359 L356.4761 278.2721 L357.4713 279.0078 L358.0402 279.5813 L358.1017 279.9694 L358.192 280.0826 L358.3549 280.1834 L358.6921 280.2078 L358.7536 280.2512 L358.7685 280.3255 L357.8468 281.8542 L357.276 283.0892 L356.9949 283.8403 L356.9207 284.2049 L356.7933 284.4134 L356.6719 284.4743 L356.4089 284.4349 L355.7366 284.0698 L354.4017 283.0413 L353.1647 282.2044 L352.4034 281.7799 L351.9121 281.6722 L351.8626 281.6273 L351.7958 281.6478 L351.7736 281.6188 L351.6408 281.6153 L351.4107 281.534 L351.3476 281.4782 L351.3036 281.3694 L351.2006 281.35 L351.1698 281.3026 L350.9178 281.2497 L350.6557 281.1091 L350.6995 280.9395 L350.8342 280.9051 L351.3086 281.0273 L351.399 280.9919 L351.4002 280.7829 L351.347 280.7575 L351.3473 280.7071 L350.8652 280.3515 L350.0174 279.8866 L348.8872 279.4861 L348.3794 279.3484 L347.8971 279.2651 L347.2663 278.8766 L346.4049 278.5145 L345.9003 278.4017 L345.0693 278.3015 L344.3318 278.083 L343.8998 277.8361 L343.592 277.5174 L343.4329 277.1463 L343.4237 276.7553 M352.6972 294.7251 L352.6987 294.6164 L352.701 294.4812 L352.8265 294.2583 L352.9945 294.0747 L353.6404 293.8797 L354.1915 293.8792 L354.525 293.8792 L354.8261 293.9925 L355.007 294.0688 L355.1991 294.2752 L355.2425 294.4348 L355.2485 294.763 L355.1642 295.2912 L355.0387 295.4064 L354.7088 295.6089 L354.2822 295.7909 L354.074 295.7894 L353.6749 295.6647 L353.2959 295.4368 L353.1215 295.2927 L352.6972 294.7251 M356.9759 294.7266 L357.0031 294.6264 L357.516 293.989 L358.0123 293.6224 L358.2677 293.4827 L359.1733 293.3346 L360.1754 293.4134 L360.455 293.4857 L360.6898 293.7062 L360.7887 294.0209 L360.7916 294.4792 L360.7088 295.1051 L360.6096 295.4154 L360.2778 295.7026 L360.0702 295.7515 L359.7922 295.7615 L358.224 295.5869 L357.5591 295.4538 L357.2288 295.3455 L356.9981 295.0029 L356.9759 294.7266 M376.8593 307.3459 L377.0086 307.2407 L377.2507 307.0706 L377.5078 306.7609 L377.4418 305.952 L377.0729 304.1441 L377.0098 303.1228 L377.1401 302.9791 L377.2212 302.8894 L377.4326 302.656 L377.5318 302.6914 L377.639 302.7806 L378.0291 303.1048 L378.9574 303.1946 L379.6484 303.4439 L380.0195 303.5696 L380.0547 303.5965 L380.2198 303.7232 L380.4953 303.8494 L381.0661 304.0 L381.3225 303.991 L381.8594 303.9721 L382.1754 303.9806 L382.5563 304.023 L382.654 304.0339 L382.7988 303.9257 L382.8685 303.9282 L382.9173 303.8708 L383.5208 303.3113 L383.6257 303.1277 L382.6039 301.6051 L381.9652 300.693 L379.6046 297.8058 L379.3495 297.2667 L379.4047 296.8452 L378.8452 295.2623 L378.8227 294.7505 L378.721 294.4149 L378.6003 294.1984 L378.3641 293.7745 L378.327 293.567 L378.3134 293.0179 L378.6221 292.1017 L378.7232 291.802 L378.6982 291.386 L378.688 291.2194 L378.7923 290.8733 L378.8094 290.8548 L379.005 290.6459 L379.2934 290.5721 L380.732 291.4618 L380.9846 291.5052 L381.3836 291.5316 L381.7136 291.6244 L382.782 293.5635 L383.4916 294.6912 L384.1604 296.365 L384.2428 297.0821 L384.2729 297.345 L384.5638 297.5839 L385.0874 298.0138 L385.3888 298.8362 L385.7311 299.5868 L386.2354 300.1379 L386.5146 300.7688 L386.9526 301.3323 L386.8997 301.4146 L386.8069 301.5588 L386.7425 301.6585 L386.5473 302.2315 L386.404 302.8669 L386.3771 302.9866 L386.391 303.423 L386.2975 304.1781 L386.1397 305.1575 L386.3673 306.5933 L386.3457 307.2681 L386.2424 307.8985 L386.0265 308.0486 L385.7923 308.2117 L384.8925 308.4511 L384.2536 308.6466 L382.981 308.9328 L381.9583 309.037 L380.6696 308.7478 L379.4173 308.3458 L378.3971 308.0441 L376.8593 307.3459 M386.9536 329.8992 L390.1807 326.7251 L390.5249 326.6763 L393.036 328.9457 L394.2766 330.3869 L394.7586 331.1389 L396.0207 332.3381 L397.561 333.5279 L397.9065 333.6372 L398.5353 334.061 L398.9093 334.5771 L399.3457 334.9287 L400.2814 335.6333 L401.3108 336.295 L401.7583 336.5867 L402.0632 336.7363 L402.3171 336.7523 L403.8653 337.8637 L404.7829 338.6386 L404.4561 338.9289 L402.8933 338.2876 L402.7316 338.329 L402.5535 338.3853 L402.3897 338.5259 L401.6775 339.2216 L401.4404 339.3123 L401.0674 339.2375 L400.6303 339.076 L399.6982 339.0002 L399.2307 338.9169 L398.5768 338.5095 L398.3337 338.2347 L396.8273 337.3252 L395.2886 336.122 L394.8001 335.4986 L394.0984 335.1341 L392.3457 334.5482 L391.974 334.4465 L391.9236 334.24 L392.0678 334.0475 L392.4808 333.684 L392.9204 333.2412 L392.8243 333.0308 L392.3448 332.8518 L390.7208 332.2145 L386.9536 329.8992 M394.6879 392.0497 L396.8463 387.5385 L400.3105 383.2988 L404.4466 380.1838 L405.2608 380.3648 L405.7651 381.4636 L405.9591 382.3944 L405.3683 383.7973 L405.5515 387.9079 L406.0326 388.2942 L406.1746 388.6402 L406.1933 388.9045 L406.1543 389.1283 L406.0633 389.3287 L405.9264 389.5077 L405.7835 389.6368 L405.5711 389.741 L405.2523 389.7894 L405.012 389.7156 L404.8574 389.6268 L404.6729 389.4329 L403.852 387.9911 L402.5595 388.198 L399.5996 389.8781 L397.3506 390.602 L396.2261 392.5408 L394.6879 392.0497 M407.7368 437.8935 L407.9723 437.5551 L408.5421 436.953 L408.5653 436.5263 L408.6068 436.3409 L408.7371 436.0642 L409.0632 435.8464 L409.5541 435.6954 L410.0045 435.6615 L410.9008 435.7931 L412.0364 435.6939 L413.2107 435.5 L413.8341 435.4462 L414.358 435.5035 L414.7311 435.659 L415.1228 435.7806 L415.4201 435.8639 L415.6648 435.9571 L415.9748 436.1111 L416.3896 436.3563 L417.1807 436.9864 L418.181 437.5077 L419.0818 437.9907 L420.2858 438.8037 L421.3191 439.7761 L422.1992 440.4325 L423.1377 441.1677 L423.8765 441.8451 L424.7103 442.3096 L425.9601 442.8773 L427.4085 443.2337 L427.9657 443.3095 L428.2585 443.3523 L428.5118 443.3638 L428.7295 443.4201 L429.1051 443.4401 L430.8809 443.3937 L431.9062 443.2352 L432.2194 443.1809 L432.4409 443.2322 L432.8364 443.2472 L433.2691 443.5113 L433.9895 443.8343 L434.4275 443.9689 L434.7099 444.1169 L435.2439 444.3033 L435.7802 444.5889 L436.0772 444.9428 L436.1681 445.4238 L436.1932 445.9576 L436.0084 446.1909 L435.8192 446.3837 L435.5555 446.5178 L432.7597 446.6499 L432.5528 446.8044 L432.0431 446.8722 L431.0593 446.922 L430.601 446.9255 L430.0917 446.8827 L429.6445 446.8189 L429.2765 446.7177 L425.1065 445.7174 L423.7218 445.2902 L422.4623 444.7768 L421.0249 444.0446 L420.5549 443.8283 L419.4833 443.0717 L418.9233 442.7757 L418.4159 442.339 L417.9725 441.9428 L417.7775 441.8835 L417.6555 441.9562 L417.6394 442.1297 L417.6647 442.2707 L417.7512 442.4776 L418.4463 443.3628 L419.2783 444.1508 L420.0526 444.3143 L421.107 444.8018 L421.7333 445.2439 L421.965 445.659 L422.5488 445.7677 L424.44 446.5741 L425.3566 446.8024 L426.1322 446.9385 L426.7467 447.1204 L427.6544 447.3905 L429.0547 447.9149 L430.1427 448.5025 L430.1776 448.6879 L430.2169 448.7961 L430.1526 448.9027 L429.8695 449.3772 L429.6195 449.3922 L429.2176 449.3394 L427.9127 448.7044 L423.9237 447.0935 L422.4911 446.4824 L421.7314 446.0922 L421.474 445.9277 L421.2994 445.7762 L421.1755 445.7547 L421.0028 445.9367 L420.8351 446.1993 L420.6852 446.764 L420.0367 447.4369 L419.7366 447.566 L419.5439 447.6108 L419.347 447.6198 L419.0577 447.5675 L418.5857 447.241 L418.0707 446.6843 L417.4498 446.0932 L416.4381 445.2508 L416.1469 444.9259 L415.8781 444.7001 L415.6857 444.6074 L415.4074 444.5959 L415.075 444.5575 L414.6015 444.3911 L414.334 444.2146 L414.1032 443.8488 L413.5039 443.2098 L413.1844 442.7776 L412.8611 442.4676 L412.5062 442.2334 L412.0447 442.0519 L411.0441 441.247 L410.9065 441.1862 L410.7744 441.1697 L409.9662 440.6314 L409.5177 440.2501 L409.2575 439.97 L408.2071 438.7723 L408.1225 438.5928 L408.0569 438.4114 L407.7996 438.1298 L407.7368 437.8935 M443.7399 394.169 L443.764 393.8798 L443.8461 393.7477 L443.9675 393.5523 L444.0803 393.5668 L444.3602 393.7203 L444.8223 394.1416 L444.8799 394.3405 L444.84 394.5738 L444.7494 394.6237 L444.5288 394.5898 L444.2733 394.5838 L443.7919 394.4113 L443.7399 394.169 M183.7356 288.0519 L183.7699 288.1182 L183.7993 288.1067 L183.7356 288.0519" stroke-dasharray="" fill="none" fill-opacity="1.0" stroke="#ff0000" stroke-opacity="1.0" stroke-width="1.0px" stroke-linecap="butt" stroke-linejoin="miter" stroke-dashoffset="0.0px"/>
</g>
</svg>