<?xml version="1.0" standalone="no"?>
<!DOCTYPE svg PUBLIC "-//W3C//DTD SVG 1.1//EN" "http://www.w3.org/Graphics/SVG/1.1/DTD/svg11.dtd">
<svg width="512px" height="512px" version="1.1" xmlns="http://www.w3.org/2000/svg" xmlns:inkscape="http://www.inkscape.org/namespaces/inkscape">
<g id="layer" inkscape:groupmode="layer" inkscape:label="layer">
<path d="M96.5139 210.4684 L103.3232 210.8624 L110.3818 216.2728 L112.3577 221.1695 L103.9649 224.8068 L104.3665 236.9215 L102.7461 240.1168 L101.9581 245.2594 L101.6012 253.7351 L104.1219 255.8525 L102.2337 263.4148 L105.4237 263.4148 L106.8918 265.7222 L102.4738 272.2642 L103.0 275.5493 L99.7639 280.199 L97.4847 282.5344 L98.8475 285.2925 L101.7148 284.3372 L103.8319 283.0908 L107.5385 286.9638 L108.6386 289.2407 L113.2574 288.9003 L118.4145 285.4465 L127.4952 287.3668 L128.1623 287.1896 L128.2675 286.617 L128.6788 286.2632 L129.411 286.1218 L130.8149 285.9621 L132.0863 285.9537 L132.5549 286.024 L133.0073 285.9037 L137.3759 287.8803 L138.3019 287.9978 L138.379 288.0801 L140.6522 285.5872 L142.7416 286.9335 L142.8113 286.9244 L143.1433 286.8358 L143.4401 286.8667 L143.8214 287.1544 L148.2814 298.9427 L148.2662 300.3797 L147.991 301.4819 L147.8604 301.5966 L148.1148 302.5124 L148.311 302.5982 L148.395 302.959 L148.0584 303.7018 L146.4459 308.8878 L146.5368 310.189 L146.7908 311.2145 L147.7593 313.1875 L148.6946 314.2516 L153.0152 319.5999 L157.4161 325.5586 L158.8038 326.5644 L158.9049 326.774 L158.8661 327.0392 L158.6501 327.3648 L158.1926 327.7397 L158.35 327.9528 L158.7752 327.592 L159.0882 327.4548 L159.3716 327.5153 L159.5161 328.0534 L160.8831 338.7586 L160.8678 339.2066 L160.3757 339.3093 L160.7847 342.5311 L160.2862 344.5426 L162.0404 346.1883 L171.3796 353.0875 L169.6346 354.8457 L170.3963 359.3678 L172.4737 361.2244 L175.9961 360.4789 L177.418 364.3891 L174.8097 366.6395 L175.6314 369.0587 L178.609 369.4384 L179.5416 370.0081 L178.2536 375.2402 L176.5362 375.2402 L174.8143 375.2402 L174.2741 379.7409 L176.3082 382.5207 L175.4407 387.1711 L172.6307 386.8441 L171.7812 385.5045 L171.5523 382.1712 L168.9841 380.1537 L168.5021 381.1326 L167.5871 382.1712 L166.9284 382.8562 L166.1962 383.5193 L165.6768 384.1156 L165.0476 384.8962 L164.6307 385.6472 L164.2656 386.3983 L163.93 387.406 L163.5362 388.5395 L163.2149 389.3489 L163.0251 389.8053 L162.551 391.2399 L162.2523 392.3361 L161.9389 393.469 L161.7274 394.2566 L161.6185 394.874 L161.6129 395.8817 L161.732 396.9772 L162.0561 397.6235 L162.4398 398.9391 L162.7486 399.4243 L162.8954 399.5783 L163.292 399.9602 L163.6816 400.6064 L163.8806 401.0768 L164.1608 402.0247 L164.8523 403.4578 L165.4705 404.5449 L166.1842 406.0068 L167.92 409.2098 L168.4717 410.2751 L168.5829 410.8636 L168.6139 411.9444 L168.564 412.8564 L168.3022 414.0482 L168.0396 414.622 L167.3365 415.219 L166.4279 415.6177 L165.5554 415.6704 L164.6169 415.65 L163.5685 415.4974 L162.7615 415.3224 L161.1836 414.5165 L160.2663 414.0989 L159.3864 413.8507 L158.5287 413.9843 L157.8542 414.1839 L157.1511 414.5306 L156.5436 414.9877 L156.3312 415.2605 L156.039 415.9742 L155.5367 418.0267 L155.4084 419.902 L155.4093 420.4828 L155.5579 421.5558 L155.7352 422.3131 L155.9485 422.7687 L156.6765 424.0097 L157.2351 424.869 L157.9848 425.956 L159.2119 427.4171 L160.1818 428.4303 L160.7981 428.9366 L161.5474 429.5012 L162.0095 429.8022 L162.377 430.2135 L162.6346 430.7865 L162.9365 431.5361 L163.1138 432.3369 L163.2841 433.3881 L163.5136 434.4688 L163.6027 435.3217 L163.6991 435.7625 L163.8547 436.8059 L164.032 437.5927 L164.3639 438.5771 L164.8043 438.9666 L165.253 439.9066 L165.5185 440.8108 L166.2119 443.1037 L166.7132 444.9113 L167.3831 446.4764 L167.5608 447.285 L167.5858 448.9464 L167.6993 451.0416 L167.781 451.6666 L168.347 452.7022 L168.7288 453.0397 L170.4406 455.059 L171.4978 455.9617 L174.1407 458.1405 L174.9703 458.6685 L175.7773 459.1375 L176.7611 459.9298 L177.2162 460.3334 L177.803 460.5675 L178.2873 460.6624 L178.8519 460.7791 L179.1459 461.1904 L179.6971 462.1825 L180.0872 462.8504 L180.638 463.4965 L181.3577 464.3261 L182.5169 464.7725 L183.4264 465.0214 L184.255 465.3139 L185.1788 465.2464 L185.8015 465.0024 L186.2115 464.7739 L187.0835 464.331 L187.3402 464.4414 L187.9422 464.9103 L188.5594 465.7624 L188.9052 466.6954 L188.2635 468.711 L187.2908 469.9407 L186.7932 470.5221 L186.5448 471.074 L186.4945 471.7503 L186.3712 472.5229 L186.5189 473.1697 L187.0702 473.9628 L187.7238 474.6229 L188.2451 475.0855 L188.8244 475.276 L189.7334 475.333 L190.503 475.2064 L191.8367 475.0061 L192.7457 474.9526 L193.6256 475.0103 L194.1172 475.2156 L194.6163 475.5896 L194.7118 475.8026 L195.0281 476.339 L195.1463 476.8094 L195.2571 477.3528 L195.3674 477.757 L195.5659 478.11 L195.9186 478.4179 L196.5418 478.6077 L197.2675 478.6583 L198.1327 478.5761 L198.748 478.3617 L199.5393 477.9855 L200.2055 477.5581 L200.8061 477.3584 L201.1288 477.2846 L201.752 477.3205 L202.0747 477.5475 L202.4496 478.0544 L202.4948 478.8116 L203.016 479.4352 L204.0289 480.1909 L204.1692 480.8159 L204.0104 482.338 L203.9684 483.5219 L204.0732 484.8224 L209.0331 475.3674 L212.5403 476.1893 L213.5328 479.3037 L218.7495 480.1614 L223.583 481.9541 L230.9694 492.0494 L235.6786 494.1373 L243.8632 504.0396 L240.9992 494.0529 L249.8402 498.3602 L251.0276 499.0146 L254.0888 500.7665 L254.2827 500.5837 L257.0059 500.1106 L256.8481 498.6526 L273.382 495.4969 L274.0182 499.847 L287.0118 497.9053 L288.135 497.4653 L290.5328 496.079 L293.9984 494.5872 L297.006 493.035 L298.6509 492.462 L299.3351 492.1408 L300.1139 491.9235 L300.1947 491.9242 L300.5949 491.785 L300.9347 491.932 L301.3917 491.972 L301.4637 492.1611 L301.7804 492.2982 L297.1021 494.7334 L295.9803 495.5665 L295.724 496.4958 L297.5508 499.4118 L298.8965 501.2382 L299.1735 502.8754 L298.2363 503.8448 L293.6734 501.719 L291.1098 500.95 L288.4447 500.6681 L280.4813 501.2234 L280.5598 502.8543 L283.7858 503.6888 L285.793 504.9942 L287.6461 507.1003 L293.1305 511.29 L293.9845 512.0 L295.2984 511.6563 L296.4474 510.9153 L297.1039 510.4711 L298.5327 508.9386 L299.3429 506.6265 L301.184 505.0504 L302.0237 504.1366 L302.436 501.8392 L304.9109 497.9356 L306.5899 496.389 L306.9731 495.0188 L307.6355 494.5183 L308.8404 494.4185 L309.9992 494.4185 L310.6085 495.9665 L311.2886 496.4037 L312.2608 496.4185 L313.1107 494.9949 L313.7118 495.0758 L313.8212 495.9447 L314.3544 497.2726 L316.0011 497.4273 L318.7581 498.4164 L318.9081 499.7964 L320.2473 500.8101 L323.6003 501.7268 L324.0993 501.525 L323.7194 499.9721 L323.5218 498.1781 L323.5463 496.6709 L324.2332 495.106 L324.1538 494.744 L323.8602 494.5352 L317.9672 492.2343 L318.0748 491.875 L317.9539 491.7246 L317.9617 491.5003 L318.2091 491.1341 L318.9644 490.7003 L320.1772 490.095 L320.5917 489.5952 L322.4826 488.5294 L324.6062 487.8911 L327.5742 485.9051 L328.1743 486.5097 L330.917 486.232 L338.4105 490.6673 L337.1543 486.62 L335.7237 482.8336 L337.8154 480.527 L338.6201 479.6391 L338.9769 479.2454 L339.2715 479.497 L344.7595 482.0546 L348.4481 479.9554 L362.5963 488.5006 L365.7277 489.1804 L366.9852 487.9157 L368.3886 485.9051 L368.6102 482.9946 L369.8105 476.4916 L373.9017 477.9813 L378.032 478.7019 L379.5292 479.5336 L380.7765 480.7808 L383.3267 482.1116 L385.3173 482.2634 L383.8816 479.149 L383.7754 478.6077 L383.6739 476.4143 L385.2527 476.0838 L385.7374 477.8977 L388.7289 476.4002 L391.3128 475.4293 L394.1408 475.3253 L394.5623 474.4092 L394.1201 470.7548 L393.778 469.1659 L392.1636 469.4225 L392.2176 469.0365 L392.128 469.0351 L391.8691 468.948 L391.7246 468.7188 L391.5676 468.3574 L391.6507 467.8632 L392.2527 466.8191 L392.574 465.8855 L392.5034 464.781 L392.1382 463.6772 L391.803 463.0901 L391.4319 462.9678 L390.9153 463.0036 L389.6291 463.9696 L389.5622 464.0041 L388.2211 465.4257 L386.4585 466.4535 L385.6553 466.7263 L385.3219 467.7851 L386.3717 468.3145 L387.2973 469.4457 L386.4234 471.2322 L384.99 471.4944 L384.4097 471.4192 L383.9227 471.5851 L383.197 471.4459 L382.3568 471.9936 L381.0258 474.6264 L379.736 475.0855 L379.3071 474.1554 L379.6173 472.9855 L379.2628 471.9739 L379.1534 471.4775 L378.9927 471.1225 L378.9498 470.8926 L378.785 470.7217 L378.3473 470.5122 L377.8266 470.3702 L377.521 470.3681 L377.4023 470.3463 L376.4961 470.5312 L372.2342 472.2593 L371.1294 471.7159 L370.5358 470.1389 L369.154 468.2224 L368.9454 468.1317 L368.4883 467.7964 L368.0267 467.0343 L367.6782 466.5576 L367.3628 466.0183 L366.4986 465.1191 L366.0698 464.7535 L361.4177 462.3041 L362.3936 460.9669 L362.4237 460.8839 L362.612 460.6667 L364.4351 458.168 L364.5334 457.9732 L362.1804 455.1806 L357.9438 452.0695 L357.8769 452.0533 L356.8525 451.5014 L354.0761 455.7543 L353.4917 456.65 L353.3024 456.6114 L353.0886 456.8483 L353.1519 456.8736 L353.0757 456.8624 L352.314 456.8884 L350.7028 456.9882 L349.1328 456.3245 L346.3818 455.3929 L345.4382 453.2169 L344.5283 451.5422 L344.5721 451.313 L344.597 451.2764 L344.4798 451.0057 L347.6421 446.3442 L347.4205 444.3045 L337.1488 442.653 L335.0104 439.9474 L333.6093 436.1816 L334.5926 435.9629 L337.6774 436.5029 L343.7933 437.0169 L344.134 436.8945 L344.7295 436.8805 L345.6196 436.782 L345.9894 436.8868 L346.6288 437.2552 L349.3677 437.4669 L354.4962 437.7495 L355.8327 436.1816 L356.8372 433.8739 L357.6451 431.9917 L359.0273 431.2351 L359.0855 431.1747 L359.5522 430.8076 L359.7198 430.435 L359.5734 429.7016 L359.3366 429.0568 L358.2697 427.6963 L358.1571 427.1169 L358.2245 426.7344 L358.1783 426.6831 L358.6155 424.0864 L359.5023 422.1457 L360.0143 420.2444 L360.3195 419.9238 L360.1819 419.7192 L359.6861 419.5982 L358.7281 419.6123 L357.5694 419.5047 L356.3867 419.2143 L355.8728 418.8909 L355.8262 418.8944 L355.7999 418.8452 L354.2575 417.8966 L353.4076 417.3088 L352.8444 417.8017 L349.8534 419.7958 L349.1018 421.7238 L347.192 422.0536 L346.8748 422.0979 L345.5785 421.9109 L344.8131 421.6479 L343.9374 421.1255 L343.3561 420.6874 L339.9187 419.4639 L338.8615 417.2982 L339.4769 415.835 L339.7082 412.9555 L342.0603 411.7735 L344.0657 410.0894 L344.7983 406.3493 L339.8111 403.8298 L339.0729 403.4965 L338.501 402.7912 L338.1095 402.0128 L332.2073 395.0266 L332.9459 393.9099 L333.523 393.2313 L334.3627 392.0 L337.1257 385.2049 L341.4131 386.4538 L342.3839 383.8899 L342.1429 383.11 L338.4146 381.9202 L337.9091 381.7268 L337.8616 381.5411 L337.6548 380.6269 L339.0503 374.352 L337.0435 373.2634 L336.7652 371.2472 L337.2919 364.8884 L338.2558 363.9081 L338.6284 363.9088 L338.7863 363.849 L338.9645 363.9095 L339.457 363.9109 L354.3416 372.5454 L357.5999 375.0222 L358.6571 375.9505 L359.0587 377.3014 L360.2027 378.4195 L362.6503 381.2176 L365.1063 383.2521 L366.109 383.5608 L368.5253 384.4602 L371.5417 384.1008 L374.198 384.5045 L376.6162 388.491 L378.9359 388.785 L378.7725 391.3341 L382.3346 392.7067 L389.4911 396.7255 L394.0656 399.3076 L399.3921 396.7255 L400.4705 390.9093 L403.2483 389.1773 L404.9799 388.6549 L406.8427 385.5502 L405.8086 384.802 L393.9022 380.7141 L395.0461 378.1326 L393.8523 369.2936 L394.8038 367.5713 L391.449 365.579 L391.1018 363.3553 L393.0223 362.4411 L395.0351 362.7772 L404.8405 368.2007 L406.8985 371.6973 L407.1298 372.3527 L408.6537 377.9265 L412.027 376.3759 L412.166 371.7599 L411.9434 370.8864 L412.2195 370.3273 L412.4513 368.9722 L413.6077 366.6585 L412.9748 362.2301 L413.3358 361.3489 L413.3367 361.1878 L413.4355 361.1056 L413.6723 360.5275 L415.4861 359.5295 L413.2056 355.8866 L413.2056 352.7359 L408.8116 352.3688 L401.5531 337.7838 L400.9834 328.621 L399.0768 325.0797 L393.8269 319.7575 L393.5569 319.0506 L393.3514 318.6265 L392.9655 316.1458 L392.9784 314.5386 L393.5809 302.9752 L393.5855 298.0093 L392.447 298.2632 L391.3026 298.5115 L390.9892 298.6902 L390.4449 298.8576 L390.0446 298.9103 L389.6882 298.8611 L388.8397 299.0503 L387.344 297.8194 L381.5918 297.6224 L376.9661 302.4969 L372.5292 297.6049 L371.2084 297.8166 L363.1798 300.7785 L362.3599 305.252 L361.27 309.39 L349.1517 315.5092 L342.6216 315.5578 L341.4791 315.0556 L340.7931 314.2059 L340.1721 311.4283 L338.7997 310.3501 L337.2965 308.1936 L335.1069 307.2785 L332.6565 306.9845 L330.5647 307.6048 L327.5262 309.2064 L323.2453 310.1538 L322.069 312.6698 L320.0964 311.8314 L319.4094 312.1092 L318.2405 312.5179 L317.4368 311.7878 L316.6774 310.6476 L316.4724 309.5813 L317.4548 309.0031 L317.6529 308.8758 L318.3283 308.4411 L318.5914 307.813 L318.2313 307.1638 L317.5541 306.6588 L316.4673 305.9132 L315.8981 303.4978 L315.1789 302.1663 L313.8923 300.8264 L312.9426 299.4527 L311.4954 294.7849 L311.2004 291.18 L307.4924 290.1664 L306.4583 288.8018 L304.6717 290.9542 L304.1732 290.7643 L305.1842 289.6037 L305.18 288.8285 L301.2685 286.7394 L300.9942 285.666 L300.8982 284.9281 L298.541 283.6036 L294.8834 281.3857 L293.5017 280.7188 L290.8707 279.8008 L289.9996 279.0735 L288.2947 276.8352 L286.3599 273.3771 L286.6882 272.2875 L286.588 271.8605 L286.155 271.5664 L284.8028 270.564 L283.0047 268.8293 L283.1233 268.4241 L283.3897 268.128 L284.0872 267.7678 L285.1375 266.8006 L285.8387 265.7897 L286.0797 265.203 L286.1273 264.3483 L285.6033 263.0195 L285.7362 262.0388 L288.3492 258.2823 L288.5851 257.46 L288.9641 256.3189 L289.6912 255.2152 L291.3485 253.5803 L291.7672 252.02 L290.1939 251.6492 L289.4041 251.4635 L288.7351 250.7727 L289.1672 242.0374 L286.0317 240.8119 L281.4004 239.1277 L278.8997 242.9224 L277.8651 246.1993 L275.4073 249.9503 L273.2943 252.5807 L271.8715 252.5377 L266.4388 241.2403 L266.5681 238.0928 L265.5765 237.1009 L263.3342 235.7213 L260.4452 234.8159 L257.9703 233.3258 L257.2446 232.782 L256.2682 232.5674 L254.6658 231.6043 L252.0598 228.9485 L250.727 227.2727 L250.3069 226.0077 L248.9229 224.8631 L247.7212 224.6801 L246.2772 224.3009 L243.7044 223.7318 L246.256 219.3557 L245.2874 218.61 L243.0687 222.4844 L242.0965 222.7757 L241.4493 222.4464 L240.2365 221.4952 L238.7426 221.0161 L237.9703 220.658 L237.4218 219.6772 L237.5072 218.2877 L236.4168 217.5891 L236.4491 216.3283 L236.276 215.5404 L236.6998 214.8403 L237.3475 214.4935 L237.2819 213.4557 L236.042 212.8788 L234.6616 214.3879 L234.4091 215.1801 L233.6275 215.5769 L231.5783 214.9402 L230.6448 215.4616 L229.2543 215.8344 L227.5458 215.5368 L226.5564 214.587 L225.9877 214.3239 L225.5773 213.6189 L225.3663 212.8373 L229.1057 210.3115 L229.6975 210.83 L230.5146 211.1438 L230.9056 210.8237 L230.9947 210.436 L230.7242 210.1201 L232.4129 209.2153 L234.4054 208.0826 L235.7179 207.8103 L237.8973 208.0333 L239.3585 208.8009 L240.2005 209.0486 L241.934 209.8408 L244.7496 211.5469 L247.8399 212.3589 L251.4606 211.2789 L252.3428 211.0179 L253.3709 209.895 L252.9628 209.3047 L253.1299 208.2486 L253.5196 207.3867 L254.8011 204.0025 L256.6689 199.7043 L258.1148 197.1405 L259.6881 194.9164 L260.9346 193.3551 L262.7719 191.6228 L265.3009 190.5533 L265.3964 190.5526 L266.6133 189.3403 L267.7065 188.5073 L268.4378 188.2582 L268.7951 187.8283 L268.5319 187.3266 L268.1709 186.851 L267.8099 186.4267 L268.1086 184.5748 L268.5315 183.1408 L269.2092 181.7054 L269.5864 179.6775 L269.9155 178.7403 L270.6426 177.6813 L271.2372 177.1691 L272.6111 176.6308 L273.3913 176.7068 L273.6276 176.5794 L273.9379 176.412 L274.616 176.3416 L275.0477 176.4317 L276.2909 177.3457 L276.4848 177.4935 L276.8241 178.093 L276.9086 178.7396 L276.904 179.4355 L276.6907 180.9187 L276.4414 182.1254 L276.603 182.9719 L277.0129 183.2822 L277.4833 183.3286 L277.9491 182.9993 L278.0802 182.542 L277.9367 181.4436 L278.3988 179.6726 L278.6942 179.1526 L278.9408 178.7593 L279.6166 178.4785 L280.4194 178.6798 L281.1027 179.3806 L281.6451 180.5092 L281.9009 180.7625 L282.0924 181.108 L281.959 181.355 L281.7411 181.5365 L281.7397 182.06 L281.9161 182.777 L281.7794 183.1907 L281.4277 183.665 L280.6438 184.4826 L278.8757 185.8089 L278.5811 186.0298 L278.1333 186.4977 L277.4833 186.7806 L277.0503 187.5588 L276.8084 188.4334 L276.6057 189.4614 L276.6062 189.9018 L276.97 190.058 L277.2239 190.0503 L277.4436 190.2255 L277.6038 190.5238 L277.6006 190.9389 L277.4358 191.3308 L277.3254 191.7537 L277.3642 192.4883 L276.6999 194.9586 L276.5042 195.7853 L277.4589 195.9753 L281.2818 195.9429 L282.9156 192.8056 L286.2699 193.6394 L287.9102 193.6281 L288.6746 193.4895 L290.596 193.2939 L293.3027 193.41 L296.8925 193.9081 L304.2983 194.7785 L306.2049 194.521 L307.3198 194.0425 L307.6512 193.5141 L308.3571 193.1215 L308.9826 191.8747 L309.7111 191.4251 L310.4608 190.9628 L310.9095 190.5013 L311.1168 190.0404 L311.9303 188.6698 L312.7114 187.2464 L312.9288 186.7285 L313.1573 186.3261 L313.2256 186.0235 L313.1319 185.7428 L312.294 184.6402 L311.9847 183.9281 L311.4317 183.005 L311.4524 181.8982 L311.7557 181.5907 L312.1389 181.4063 L312.7455 181.5689 L313.4417 181.9305 L313.9375 182.0248 L314.2463 181.8567 L314.5995 181.3444 L314.7348 181.0967 L315.1918 180.3284 L315.1738 179.6036 L315.2537 178.7572 L315.6664 177.6307 L316.5297 176.0559 L316.0505 176.2846 L315.6424 176.1115 L314.7237 175.847 L311.572 174.978 L306.2847 173.7142 L306.1666 173.2956 L306.2898 172.9733 L307.546 172.321 L307.7403 172.1099 L307.702 171.8172 L307.395 171.4485 L306.7478 171.5604 L305.788 171.9607 L300.401 174.5579 L296.6709 176.3951 L295.5745 177.1297 L294.7153 177.0565 L293.7883 176.4268 L291.391 175.4811 L290.2276 175.054 L290.6417 174.1821 L294.2846 170.1165 L294.4757 169.6324 L296.097 167.8416 L297.506 166.4667 L298.5461 165.6603 L302.3681 164.1974 L305.0438 163.4437 L305.6989 163.2939 L306.1435 163.3375 L306.558 163.6844 L307.7098 164.9503 L308.3474 165.87 L308.5796 167.3624 L309.2476 168.7979 L310.1534 169.7928 L310.7166 170.3297 L311.6048 170.507 L312.4298 170.9278 L313.0428 170.8476 L313.9273 170.4634 L314.2154 170.336 L315.8067 169.3805 L317.9423 167.9106 L319.697 166.639 L320.6471 165.9938 L316.9982 164.2128 L310.8874 159.7361 L304.71 154.2052 L297.3153 146.2719 L294.6202 144.2663 L292.529 143.469 L288.1525 140.1919 L284.7031 133.724 L283.6039 130.0379 L285.4579 116.8435 L285.5008 114.9462 L283.8841 112.2944 L281.5126 110.8714 L277.7183 109.8368 L272.7597 110.0311 L258.552 104.9428 L254.5638 102.5929 L251.5174 100.6462 L251.0959 99.6595 L251.2819 96.1694 L239.2837 80.784 L238.6558 76.8989 L238.4158 75.1886 L233.5084 75.1534 L233.435 75.1316 L232.4305 75.1872 L232.3123 75.1752 L216.889 95.4304 L206.7512 101.6801 L203.5566 106.1139 L202.0101 116.8815 L203.1767 123.6283 L201.4325 124.5889 L197.021 124.066 L191.989 121.7458 L189.2764 119.5565 L187.2834 111.7138 L185.7475 104.0997 L181.9897 97.3356 L173.1477 94.5084 L174.2275 91.3068 L174.2081 91.1259 L174.5913 90.2279 L174.7404 89.7859 L174.8046 89.7282 L174.9052 89.4924 L175.2131 89.3601 L175.8207 88.8132 L176.0972 88.253 L177.1581 87.1684 L177.7047 87.0649 L177.7213 87.0783 L178.4567 86.4076 L179.7373 85.8931 L179.6727 85.6179 L180.5387 85.3314 L180.8231 85.4567 L190.3811 81.6082 L191.5916 80.3399 L192.8459 78.7725 L193.091 78.5381 L193.2747 78.4818 L193.3107 78.4825 L193.4834 78.2784 L198.3372 79.0963 L198.9096 78.3009 L200.7022 76.73 L201.5359 76.1317 L201.6546 76.005 L201.7358 75.9881 L201.8019 75.941 L202.7566 75.5532 L204.1115 75.4004 L204.4577 75.4258 L208.2386 74.6445 L208.5793 74.4685 L208.9745 74.3792 L209.1125 74.4636 L209.6227 74.358 L214.7054 65.9822 L218.8187 66.2145 L219.1959 65.2291 L219.3672 64.357 L219.9899 62.5516 L221.1302 60.1796 L221.3855 59.4856 L221.734 59.3026 L221.7696 59.2512 L222.1754 58.8739 L222.6846 58.5832 L224.6115 57.7935 L224.9494 57.6274 L223.6984 45.0982 L212.9512 43.5637 L212.1465 44.231 L211.5934 45.4445 L210.7403 46.2209 L209.3651 47.3345 L207.7137 48.5797 L207.3781 48.7387 L207.1187 48.3981 L206.862 48.6106 L206.3496 48.1953 L199.9326 45.3375 L195.7547 56.3534 L194.8577 56.7862 L194.6472 57.0945 L194.0942 57.2438 L193.4465 57.3036 L192.9797 57.2888 L192.7152 57.1635 L192.4521 56.7581 L192.4156 56.4822 L192.4784 56.2541 L189.7533 54.4177 L183.9873 54.4177 L179.3745 53.9179 L178.0121 53.0951 L178.1257 50.2 L179.6939 48.1327 L182.1153 44.3823 L182.485 44.1423 L183.1217 44.2035 L183.3202 44.1536 L186.0167 44.5794 L189.3946 44.8638 L191.0408 44.5231 L192.5001 43.3736 L193.5152 42.5367 L194.8554 41.2922 L196.094 40.299 L195.1236 36.7815 L195.9735 34.4734 L197.9369 28.9088 L197.9517 26.8076 L197.268 16.9186 L197.1295 16.3357 L197.1161 15.1629 L197.4536 14.9207 L198.3238 14.9081 L199.4197 14.5272 L199.9091 14.2266 L200.957 13.9162 L201.2839 13.4002 L201.5184 11.1095 L201.6786 10.6794 L201.8019 9.8205 L202.1624 8.93 L202.5908 8.1289 L202.7441 7.2757 L205.911 2.0169 L206.1049 1.3059 L205.4678 0.0 L197.3022 3.9156 L195.3669 6.1986 L188.6222 7.7825 L179.5337 6.5794 L178.6806 17.0474 L175.7053 22.2137 L172.109 21.7068 L167.5433 16.2864 L166.2645 13.0412 L164.4549 13.2876 L159.4136 13.6043 L165.3135 21.8828 L162.142 28.6899 L158.7904 43.6763 L159.0628 52.5031 L160.734 52.7213 L160.457 54.2417 L156.9715 57.0643 L155.6974 61.0341 L154.3955 65.6092 L155.1249 68.2346 L158.1949 70.2546 L158.1441 75.3716 L159.9907 77.3845 L161.5788 86.2879 L161.1448 92.8756 L163.7347 97.3799 L169.7454 101.4689 L172.2844 103.1228 L171.3196 103.7844 L166.8 102.0671 L160.9186 104.9175 L161.5141 106.501 L163.6701 112.3422 L161.4818 115.1291 L159.289 117.909 L153.8877 130.7874 L145.7811 129.4574 L143.8745 137.9935 L144.9871 140.8224 L140.3752 145.0939 L143.2236 155.1777 L143.5006 156.7329 L144.2438 159.639 L141.4278 163.1503 L135.0432 162.4115 L132.7183 159.1683 L129.2121 158.2443 L125.0683 158.4301 L124.2918 161.9252 L124.3693 168.4488 L113.7297 168.9534 L113.2634 177.186 L113.5741 191.981 L114.8557 196.9512 L111.4385 199.6305 L108.0214 196.9512 L107.0118 195.2816 L105.4583 186.3113 L104.4487 182.4674 L101.1479 181.2248 L99.2842 181.9235 L101.5722 185.8877 L101.9392 188.8562 L102.6852 193.8849 L100.0967 203.6149 L97.6338 207.6428 L96.5139 210.4684 M138.8564 180.7421 L139.5738 179.6262 L141.3193 179.3848 L143.3925 179.2849 L144.3828 179.3187 L145.6842 179.7901 L147.4578 181.305 L148.6064 183.176 L149.2703 185.1953 L149.0108 185.4613 L146.1712 184.7823 L145.3541 184.6374 L144.5333 184.6268 L144.4017 184.612 L143.6294 184.4467 L142.7878 184.0639 L141.8036 184.4959 L141.0691 185.2031 L140.8309 184.7654 L139.9759 184.4523 L138.9626 184.453 L139.2788 183.5179 L139.5018 182.7749 L139.1094 181.8932 L139.0521 181.4366 L138.8564 180.7421 M152.8651 158.1437 L153.2668 139.3503 L157.1216 125.0541 L165.1529 111.9636 L177.1198 101.2817 L181.0553 99.4343 L182.9827 102.4866 L185.1511 114.6942 L184.6691 117.7457 L182.0188 119.6733 L184.0265 122.1631 L185.3117 121.9224 L186.2757 126.6607 L184.1872 129.2308 L184.1872 131.6403 L187.3194 131.3989 L189.167 132.9253 L187.9621 135.0935 L186.1953 136.7803 L187.3194 143.4458 L185.874 146.6589 L192.5398 152.3609 L187.3194 150.9155 L183.7057 151.076 L183.8663 152.0393 L188.2834 152.6818 L190.8534 154.1278 L192.2185 159.8297 L172.2207 173.1619 L165.9561 171.395 L158.2461 171.4752 L155.4351 171.9572 L152.8651 158.1437 M154.8239 183.0085 L155.3216 174.0829 L160.3762 172.8396 L168.2219 173.5348 L172.4072 175.111 L200.2364 156.704 L201.9713 156.5985 L204.0598 157.4654 L206.0006 158.136 L206.6884 158.5012 L207.5669 159.2386 L208.1971 159.5145 L208.2963 159.1239 L208.2405 158.3717 L209.0336 157.9242 L209.5225 157.2289 L210.1356 156.6998 L210.4652 156.0334 L211.1336 156.1171 L211.5191 156.3895 L214.8846 159.6179 L215.6615 160.5749 L216.8179 161.7451 L217.8068 164.1136 L218.274 165.3922 L219.0606 166.3843 L220.3352 166.3006 L221.596 167.5686 L222.7728 169.9652 L222.6273 171.3859 L222.7945 171.7201 L223.2399 171.9854 L223.4352 172.4308 L223.4075 172.7932 L223.059 172.9881 L222.6689 172.8206 L222.2788 172.7791 L221.8051 172.4167 L221.3735 173.1415 L221.5125 174.033 L221.2479 176.7356 L220.844 177.0143 L220.272 177.9951 L220.7369 180.1229 L222.7151 181.6308 L223.3697 185.8518 L223.3831 187.7952 L222.3679 189.7548 L220.7443 192.1238 L219.2919 193.3509 L217.9282 194.0144 L217.6115 194.4633 L218.9521 195.0409 L220.5961 196.1273 L222.4187 197.5007 L222.5244 198.0031 L221.7322 200.0364 L221.2304 200.4593 L219.9622 199.2709 L217.8225 197.8708 L215.7441 196.8724 L213.3588 196.4179 L209.4565 195.8128 L209.0793 196.2328 L210.2154 196.7084 L211.5888 197.2896 L214.3093 197.5535 L215.1283 197.818 L215.4718 198.1614 L215.9473 198.7953 L217.6905 200.1687 L219.4604 201.6476 L219.9096 202.4934 L219.995 204.0525 L220.068 206.0591 L219.8302 208.9381 L219.5398 212.1344 L219.4073 213.9306 L219.0376 214.644 L218.2717 215.0929 L216.6074 215.8858 L214.4875 216.9383 L210.4532 218.923 L207.2295 220.8282 L203.6702 222.6068 L201.6911 223.3941 L198.6502 225.0671 L196.2334 226.1934 L192.8906 227.865 L190.0713 229.1208 L187.0009 230.5736 L184.9392 231.9089 L183.2722 232.4738 L181.9943 232.2614 L177.0953 224.7744 L172.8329 212.0781 L166.5226 202.5623 L157.3699 189.1321 L154.8239 183.0085 M177.2661 257.7181 L178.5333 243.4184 L183.6918 234.3684 L221.6122 215.7247 L227.1358 219.2699 L228.4801 219.2826 L229.7344 219.8208 L230.7071 220.9851 L230.8272 221.7316 L230.016 222.457 L228.2775 223.6642 L228.0831 224.1342 L228.3135 225.3879 L229.2608 226.719 L229.8623 227.2058 L230.7039 227.362 L233.7392 225.8614 L235.1482 225.9388 L236.6075 226.9111 L236.7612 227.628 L237.1194 228.1655 L238.0834 228.4856 L241.3417 227.6716 L254.1931 235.1831 L250.6633 242.6945 L241.0702 236.7217 L232.9249 238.8934 L226.1373 251.1111 L195.1855 278.081 L179.2572 281.1578 L177.628 273.6465 L177.2661 257.7181 M179.5286 282.2438 L196.2718 278.8955 L213.9469 263.0068 L219.5075 268.7062 L222.7972 274.4519 L223.4823 275.3305 L223.3669 276.3034 L223.7298 277.0132 L224.3728 277.5407 L225.1479 277.59 L225.9397 277.3592 L226.6326 277.8045 L226.8043 278.548 L226.8801 279.2395 L226.6326 279.5856 L225.1646 279.3387 L224.3401 279.3387 L223.9952 279.4963 L222.9874 281.0206 L222.2783 282.6539 L221.8989 283.9567 L221.602 286.0353 L221.5688 287.3549 L221.7881 287.9908 L222.1297 288.3439 L224.4389 289.5481 L224.7435 289.9751 L223.4925 293.7749 L224.6508 296.3233 L220.573 298.2696 L212.2324 298.1303 L206.9963 299.3816 L187.4044 300.0836 L179.5286 282.2438 M186.5406 342.2892 L194.5572 318.2284 L197.1558 318.2861 L202.6421 320.375 L207.6653 321.8232 L205.4401 322.9436 L203.8959 328.2728 L205.1737 329.3524 L204.4628 330.8969 L203.203 330.8139 L202.8914 332.3043 L204.8261 334.8763 L199.7641 332.0384 L198.6917 333.0027 L202.4768 335.6472 L198.0053 338.4098 L200.0753 340.6048 L199.9511 343.3786 L203.3193 344.5292 L204.8289 341.9263 L207.4603 342.6669 L210.3973 342.5621 L211.9508 345.8739 L213.8103 343.9898 L214.9806 343.9328 L216.5059 346.6173 L222.7552 346.3156 L223.0497 347.334 L225.3418 348.2067 L226.4863 345.5279 L229.3873 348.9614 L230.7893 349.0816 L232.3737 354.0813 L230.9195 355.7642 L227.8154 356.3564 L228.4824 353.8204 L227.4941 353.9948 L224.9351 358.0091 L223.5691 355.8226 L223.992 352.6536 L217.3087 352.0755 L216.0091 354.5342 L208.192 357.6377 L201.6232 357.4176 L195.2958 357.0604 L192.4258 359.4388 L187.0457 352.1388 L186.5406 342.2892 M187.4515 300.8925 L218.0339 299.7797 L219.0906 301.2815 L217.9227 302.5602 L216.0294 304.4629 L214.3638 305.6185 L211.1946 309.1776 L208.7478 316.0719 L209.137 320.5206 L194.8466 316.8505 L187.4515 300.8925 M193.5471 142.6703 L193.6699 141.493 L193.9792 140.239 L194.1099 139.3925 L194.4561 138.5684 L194.9251 137.453 L195.2811 137.0618 L195.6993 136.7571 L196.2856 136.6677 L203.6955 139.6141 L205.1322 140.2179 L205.3741 140.5564 L205.7079 140.8731 L203.7159 145.5808 L201.8499 147.269 L200.9617 147.3415 L199.8477 146.8503 L198.9424 147.0333 L197.2532 147.2556 L196.2828 147.1346 L194.7839 146.5731 L194.5743 146.3626 L194.1828 145.9693 L193.9681 145.5442 L193.8005 144.9475 L193.5646 144.3592 L193.5471 142.6703 M195.2118 133.8036 L195.3905 133.33 L195.5954 132.786 L195.8004 131.5552 L195.7667 131.2181 L195.5576 129.1111 L195.8207 127.7381 L196.1129 126.584 L196.4855 125.3694 L196.8525 125.0147 L196.8728 125.0161 L198.5846 125.1435 L201.3397 125.3004 L204.5344 125.3553 L204.9799 125.501 L205.1193 125.8402 L204.894 126.3039 L204.7832 126.7205 L204.3118 127.9317 L204.4 128.3152 L205.8339 128.8156 L206.3002 129.1182 L206.9756 130.0506 L206.8366 132.5685 L206.7517 132.7656 L206.3519 133.1583 L201.7008 133.7965 L195.5156 134.432 L195.2377 134.1864 L195.2233 134.1737 L195.2118 133.8036 M196.4712 6.5787 L196.4781 6.2246 L196.6083 5.7748 L196.7726 5.2567 L197.4804 4.5252 L198.3441 3.8557 L202.8193 1.7691 L204.4 1.032 L205.1761 0.7371 L205.3953 0.949 L205.4918 1.3207 L204.9023 1.8212 L203.3562 3.6706 L202.6481 4.4851 L202.1887 5.4045 L201.3379 6.1859 L200.7567 6.7047 L199.7794 7.698 L199.7978 8.0887 L198.9535 9.1173 L198.5191 9.0433 L197.9595 8.7568 L197.5214 8.3506 L196.9324 7.6474 L196.5266 6.7427 L196.4712 6.5787 M207.416 136.9013 L207.5683 134.3271 L207.7244 131.7853 L207.8158 130.9873 L207.7779 129.4531 L207.8582 128.5214 L207.9353 127.6635 L208.5069 127.2941 L209.3152 126.9908 L210.7117 126.938 L212.1941 126.546 L213.2231 126.1808 L214.3333 125.9366 L214.8652 126.2596 L215.1158 127.1766 L215.1398 129.1055 L215.3762 129.6636 L215.6449 130.2174 L215.5299 131.0844 L215.4561 132.7642 L215.4533 134.2378 L215.6043 135.888 L216.0931 136.3806 L216.1282 136.8999 L213.741 137.6072 L211.5057 138.2292 L210.3525 138.643 L208.3739 139.2313 L207.5051 139.5754 L207.416 136.9013 M207.7027 141.0912 L207.7331 140.8252 L207.9321 140.6021 L210.5118 139.8696 L213.2369 139.2482 L215.0941 138.4798 L216.1361 138.2116 L216.5133 138.1835 L216.6942 138.8147 L217.2025 140.6254 L217.5543 142.3143 L217.9139 143.3149 L218.491 144.4831 L218.497 144.7772 L217.7158 146.1551 L217.5367 147.1635 L217.275 148.9002 L217.1263 150.7537 L216.884 151.1456 L216.5843 151.349 L213.9723 150.8416 L212.7443 150.665 L212.4323 150.2914 L211.0496 147.4611 L209.9823 145.5386 L209.4117 144.1734 L208.3134 142.5169 L207.7027 141.0912 M208.5443 123.71 L208.577 123.5206 L209.6647 122.401 L211.9582 119.6177 L213.1261 118.2172 L214.0485 116.9976 L214.2008 117.0539 L214.3292 117.1011 L215.2299 118.4382 L215.9057 119.4931 L216.0816 120.617 L216.0733 121.4291 L215.8873 122.1716 L215.6033 122.5439 L214.4718 123.2131 L213.0615 123.5045 L210.1868 123.9084 L208.9205 123.9091 L208.7118 123.8218 L208.5443 123.71 M210.6134 320.9897 L211.0145 317.2198 L211.3492 315.031 L211.7172 313.2859 L213.0135 310.3409 L213.9312 308.9975 L215.0535 307.6435 L216.931 306.2234 L220.0887 304.2209 L220.5781 304.1309 L221.0674 304.3827 L223.4375 310.4408 L223.2912 310.9353 L222.1892 311.7392 L222.0124 312.2682 L220.8966 313.1445 L220.9986 314.1011 L221.506 315.8103 L220.6284 316.0909 L220.2411 315.0626 L219.5375 315.9531 L218.707 316.9764 L217.8216 318.5653 L218.009 319.2391 L218.0598 320.0058 L218.3289 321.4919 L218.5533 322.6349 L218.3423 323.3804 L217.4906 323.4367 L211.8229 321.9561 L210.6697 321.5503 L210.6134 320.9897 M215.2442 262.7845 L215.2442 261.6794 L227.0606 251.5627 L233.1816 240.342 L238.9619 238.3862 L250.0133 243.9122 L247.8879 247.1427 L247.718 249.2679 L249.5032 252.243 L259.7892 258.874 L260.3843 262.444 L259.5344 265.0792 L265.0599 271.6255 L261.7448 275.7906 L257.4939 278.8512 L253.8386 278.171 L245.5076 278.171 L240.152 279.4463 L231.9914 283.1864 L226.6358 273.9208 L224.5954 273.6655 L224.1702 271.795 L215.2442 262.7845 M215.7866 124.1378 L216.0544 123.9387 L216.5677 123.8711 L217.5529 124.1667 L218.8044 124.755 L219.8768 125.4651 L220.9206 126.2117 L221.3453 126.7128 L221.7557 126.8557 L222.3693 126.8071 L222.7349 126.8571 L224.0169 127.4778 L224.7606 128.5819 L225.9452 130.0795 L227.0633 131.0027 L227.2489 131.1752 L227.3593 131.5207 L226.1326 132.3701 L225.7005 132.558 L222.8563 134.0133 L222.3166 134.3785 L220.8209 135.1653 L220.1894 135.5762 L218.8815 136.3053 L216.6587 137.0238 L216.4689 136.819 L216.5349 135.8282 L216.342 133.8563 L216.3858 133.1956 L216.3101 130.1273 L216.0124 129.3476 L215.8692 127.0084 L216.0788 125.8676 L215.8406 125.0478 L215.7866 124.1378 M216.8881 137.807 L219.8159 137.1286 L221.5568 136.0928 L222.9777 135.5776 L224.2191 134.8211 L225.6285 134.3201 L226.4018 133.7775 L227.0384 133.6234 L227.7295 133.2962 L228.0799 133.7501 L228.3038 135.2497 L228.9007 136.4221 L229.5849 139.0005 L229.222 139.446 L228.7737 139.7063 L227.4437 140.1968 L222.2497 142.4064 L220.4294 143.4536 L219.099 144.3473 L218.6636 143.7871 L218.671 143.3318 L218.3377 141.9132 L217.3618 138.7634 L217.0003 138.3573 L216.8881 137.807 M217.6083 153.0998 L217.6821 151.6002 L218.0879 148.4688 L218.3709 146.8925 L218.7772 145.7582 L219.5463 144.9039 L220.5762 144.0475 L221.9049 143.4796 L224.0381 142.5767 L225.3238 142.1777 L226.0911 142.3058 L226.1225 142.5634 L225.8067 143.3909 L225.2093 144.8124 L225.5417 147.8467 L225.7855 150.2048 L225.773 153.3503 L226.0583 154.3354 L226.3238 157.6075 L226.4817 159.0606 L226.9692 160.0443 L227.9534 160.831 L230.0677 162.0266 L232.0173 163.2101 L232.7684 163.963 L233.6995 164.5935 L234.4945 164.685 L235.0711 165.1002 L234.9502 165.6729 L234.5111 166.0578 L233.8039 165.8897 L232.8847 165.8467 L231.449 165.3478 L227.6718 163.9138 L224.0802 162.6514 L221.5254 161.5797 L220.1691 160.9401 L219.3132 160.1358 L218.7121 159.036 L218.0879 156.7603 L217.6951 154.258 L217.6083 153.0998 M220.7586 300.7638 L220.9959 300.1089 L222.1883 299.1537 L223.2086 298.3075 L224.4762 297.7308 L225.4577 297.2525 L226.0131 297.1294 L226.5301 297.6604 L227.5647 299.2951 L228.4963 301.093 L229.5609 303.1482 L229.7007 304.0282 L229.7608 305.2429 L229.2608 305.9822 L228.5254 306.2537 L228.2207 306.3936 L227.7572 306.0799 L227.2272 306.3993 L227.3468 306.9324 L226.9313 307.9354 L225.8949 309.0432 L224.9725 309.2149 L224.4236 308.439 L223.751 307.4796 L223.2252 306.5012 L222.6393 305.2563 L221.9039 304.0057 L220.8592 301.7232 L220.7586 300.7638 M221.6117 209.4194 L221.6657 208.599 L221.8416 207.8321 L222.487 208.0467 L222.5424 207.9376 L221.9672 207.6238 L222.4972 207.3206 L223.9892 206.0077 L224.3447 205.8114 L224.6438 205.9958 L224.8553 205.9676 L225.1743 205.5384 L225.0976 205.2922 L224.7519 204.9348 L224.4236 203.9378 L224.3354 203.4277 L224.6512 202.7241 L226.7208 201.1418 L226.9516 201.0594 L228.2516 202.0093 L228.9829 202.3956 L229.7054 203.0063 L232.1835 204.5302 L232.1115 204.8715 L231.6683 205.7657 L230.6143 205.4217 L230.4925 205.4385 L230.022 205.504 L229.2585 205.4125 L228.5522 205.3274 L227.1437 204.8349 L226.4623 204.9263 L225.8843 205.1297 L224.8206 206.5593 L224.4661 206.9456 L224.2971 206.9695 L223.4583 207.7786 L222.728 208.0594 L222.9353 208.7024 L222.9306 209.7817 L222.5193 210.4283 L222.6144 210.8131 L222.9967 212.2934 L222.9583 212.5397 L222.7972 213.1257 L222.4995 213.1947 L221.9963 212.3518 L221.681 211.1677 L221.9538 210.5352 L221.7502 209.8654 L221.7497 209.6565 L221.6117 209.4194 M222.6633 210.6337 L224.3156 209.496 L225.8594 211.6131 L224.0224 212.7163 L223.9107 212.8352 L222.7284 210.7646 L222.6633 210.6337 M224.9988 126.5622 L225.6318 126.4137 L227.0158 126.2638 L228.626 126.0935 L229.9777 125.71 L230.4278 125.1597 L230.4694 124.7283 L230.9684 124.3025 L231.2417 124.3975 L231.4462 124.9598 L231.6669 125.6516 L231.6484 126.5052 L231.8179 127.3018 L231.545 127.9598 L230.8082 128.8099 L230.0539 129.5313 L229.1888 130.3989 L228.4654 130.8543 L227.9746 131.3448 L227.0107 129.9655 L226.7231 129.5115 L226.2024 129.0239 L225.9489 128.337 L225.5177 128.033 L225.1572 127.5242 L224.9988 126.5622 M226.5657 294.8475 L226.845 291.2307 L228.9049 286.2695 L240.1331 280.8166 L246.8547 279.5518 L258.6393 280.0323 L261.603 278.5016 L269.464 271.4089 L281.7961 283.0978 L294.5971 293.8508 L296.2702 293.3289 L297.5716 296.6426 L295.4369 297.3636 L297.1648 303.6505 L295.2795 311.422 L293.0529 314.0259 L293.5515 317.0334 L292.1259 319.2426 L291.9307 320.56 L294.6267 318.2861 L296.7664 319.9593 L293.4892 323.1047 L296.4673 326.0489 L293.2477 328.3438 L289.8371 333.5618 L289.6021 336.6768 L286.7819 335.747 L285.9985 330.4538 L284.7889 328.5935 L284.6421 330.821 L282.1511 332.4372 L276.524 331.8225 L275.4636 328.3804 L269.2355 326.2444 L269.1787 323.3248 L268.0897 323.0126 L267.346 326.6622 L266.0547 328.135 L266.521 330.5593 L269.6727 329.5001 L271.1458 331.0003 L270.0942 332.7206 L271.7884 336.7725 L273.5473 336.5931 L275.9876 337.8415 L277.1316 339.7946 L273.2777 340.4318 L270.7257 339.4 L270.066 336.9982 L266.412 336.9602 L265.0816 338.6489 L254.3948 337.3654 L245.0792 334.3432 L240.9313 331.6439 L237.3203 332.0187 L235.9556 324.2659 L234.344 321.7789 L232.9346 307.0182 L231.166 300.6245 L226.5657 294.8475 M228.5023 132.2575 L229.679 131.7747 L230.1822 131.3814 L230.8272 130.5756 L231.9314 130.0372 L232.9327 129.7093 L233.4969 130.0281 L233.7776 130.6783 L233.9364 131.6403 L234.441 132.7522 L234.9719 133.5671 L235.5498 134.2441 L236.3693 135.0203 L237.1661 135.3736 L237.1121 135.7085 L236.2063 136.515 L234.483 137.5607 L232.8926 138.6219 L231.3474 139.2834 L230.8539 139.2503 L230.6217 138.7239 L230.269 137.5262 L229.6684 135.1822 L229.228 134.0611 L228.5097 132.8134 L228.5023 132.2575 M232.1313 192.0485 L232.6655 191.5124 L232.8598 191.2 L233.2781 190.896 L233.8897 190.8024 L234.7249 190.2417 L235.668 190.2606 L235.9695 190.635 L236.7224 190.8123 L237.0465 190.763 L237.8775 190.4499 L238.2399 190.4978 L238.6854 191.0564 L238.8543 191.4434 L239.1313 191.7016 L239.1692 191.7157 L240.0145 191.6102 L240.2277 191.9268 L239.5777 192.2286 L238.9471 192.3511 L238.7168 192.5854 L238.509 192.8935 L238.2602 192.9836 L237.9412 193.0258 L236.8415 192.9857 L236.2359 193.512 L235.8767 194.0249 L235.5171 194.2895 L235.0591 194.2923 L234.3671 193.8666 L234.2609 193.3959 L234.2757 193.0237 L234.0213 192.8781 L233.435 193.6 L232.8446 193.4163 L232.4499 192.9766 L232.1516 192.4482 L232.1313 192.0485 M232.3718 346.8649 L232.4697 345.1833 L232.6959 342.7337 L233.1543 339.7798 L233.9835 337.0017 L234.3703 336.726 L234.5702 336.9244 L234.6099 337.4181 L234.2018 338.6693 L234.4714 339.2073 L235.1376 339.17 L235.4547 340.0759 L235.4774 341.1956 L235.5942 342.2772 L235.7945 343.0495 L235.5106 344.1093 L235.7105 344.3077 L236.126 344.2528 L237.6513 344.7008 L238.6604 345.3598 L238.9457 346.1384 L239.1839 346.3444 L239.4743 347.8031 L240.3995 348.6041 L241.4266 348.6681 L242.7479 347.5267 L243.9883 345.907 L244.2907 345.3851 L244.7796 344.5538 L245.3941 343.9645 L246.6885 343.5727 L248.0633 343.4412 L248.0753 342.3919 L248.6487 342.2168 L249.6158 342.3891 L250.6841 342.4587 L251.6351 342.6219 L252.1711 343.2998 L251.606 345.8184 L251.7639 347.0104 L253.0805 347.969 L253.2255 348.6983 L253.7564 349.1991 L254.086 349.2483 L254.5698 349.069 L256.385 347.789 L257.4551 347.5098 L258.6092 347.2911 L260.2273 347.8769 L262.5979 348.4051 L263.5244 348.9916 L263.7728 349.453 L264.2391 350.0423 L266.5602 350.4959 L267.851 351.1831 L269.7401 351.8132 L270.3675 352.4293 L270.7733 354.063 L270.4132 355.1081 L270.2844 356.5969 L269.5873 357.2425 L269.4973 358.1638 L269.6505 358.7672 L270.1953 358.9536 L271.0572 358.308 L271.5285 357.9212 L271.9417 358.0414 L273.1055 359.3354 L273.6452 360.6112 L274.207 361.4853 L274.1161 362.1204 L273.617 362.4854 L272.8465 362.4875 L272.5354 362.5782 L272.4033 363.4685 L272.6448 363.5958 L273.093 363.9854 L273.6092 364.8905 L274.839 365.5516 L274.875 366.3948 L275.7461 367.9265 L275.6663 368.8351 L276.3717 369.6649 L276.5794 370.6853 L276.6962 371.7676 L277.3167 372.3239 L277.4501 373.1544 L276.7105 373.8773 L275.8676 374.7346 L275.5195 375.8654 L275.9908 376.4272 L275.9423 377.0074 L275.1077 377.4659 L275.17 378.705 L275.5578 378.6291 L275.9511 378.9765 L276.061 379.4357 L275.0149 379.7978 L274.9747 380.2521 L275.4613 380.3625 L275.0994 381.5798 L275.3154 382.4771 L275.7752 383.1395 L275.5906 383.4384 L275.0181 383.8132 L274.4512 384.0376 L273.7213 383.2106 L272.8751 382.2493 L272.5003 382.4237 L272.0082 382.4631 L272.3142 381.001 L271.9509 380.1262 L270.7576 379.9343 L270.2364 380.122 L270.0863 378.6009 L269.6482 377.0946 L270.0896 376.4125 L270.2622 375.5173 L270.1588 375.1073 L269.23 374.8443 L266.9023 374.1523 L266.3336 373.6038 L265.7463 372.5341 L264.764 371.8646 L264.0599 371.2345 L263.512 370.084 L263.7529 369.0798 L264.8069 367.0811 L264.7127 366.1704 L264.161 365.3406 L263.1588 363.951 L262.6593 362.2209 L262.3204 359.8214 L262.2798 359.7194 L261.8389 358.6125 L261.0066 357.9486 L259.4047 357.4858 L258.9153 357.9247 L258.582 358.4177 L257.7432 358.6526 L256.181 359.6315 L254.2624 359.7841 L253.4983 358.8875 L252.876 359.0689 L252.4014 359.4304 L251.9315 360.5901 L251.841 361.2258 L250.9412 361.5683 L249.8638 361.3109 L249.0748 360.7258 L248.5471 359.922 L248.4682 358.8199 L248.6593 357.3628 L248.5614 356.8023 L248.3569 356.3803 L247.7614 356.0097 L247.3371 355.6165 L247.1059 354.7986 L247.0842 354.2529 L247.3118 353.5243 L246.9424 352.6002 L246.6248 352.6424 L246.4582 352.8885 L246.7255 353.6016 L246.0491 354.7114 L244.7201 355.76 L243.9066 355.9935 L242.8993 355.7023 L241.9215 355.831 L240.556 356.4098 L240.1206 356.6911 L239.7024 356.4745 L239.3903 355.9921 L238.7135 355.2832 L237.9001 355.2403 L237.5354 355.3008 L237.5783 355.8191 L237.9139 356.4858 L237.95 356.855 L237.7967 358.7215 L237.9103 359.7785 L238.0709 360.057 L238.0441 361.1829 L237.7962 361.5648 L237.3055 361.8039 L236.7995 361.5465 L236.3356 361.2335 L235.9746 360.1836 L234.7184 356.2832 L233.5038 352.4771 L232.7693 350.0001 L232.4369 348.1554 L232.3718 346.8649 M234.7175 125.0203 L234.8731 122.9696 L235.4935 121.4798 L236.3093 120.9794 L238.1956 121.4882 L240.3801 121.7247 L242.0129 120.9858 L243.9759 121.0217 L246.1987 120.3038 L246.5436 118.9484 L247.0906 119.1384 L247.856 120.2489 L247.2767 121.3081 L248.2314 121.8697 L248.7858 122.6156 L249.3901 122.9942 L250.2912 124.6445 L251.1037 125.6495 L249.5503 126.2469 L248.94 126.8191 L247.7988 127.0893 L246.7901 128.1069 L245.2773 130.1196 L245.9226 129.5601 L246.1489 129.4391 L246.5269 129.4109 L247.0565 129.7318 L247.495 130.0837 L248.1395 130.5003 L248.6787 130.5826 L249.2798 130.3631 L249.6569 130.1069 L250.0147 129.7044 L250.2654 129.5678 L250.5401 129.6354 L253.2301 129.5235 L253.6377 129.33 L253.9503 128.995 L254.2887 128.9056 L255.0144 129.4933 L255.7484 129.9964 L257.1089 130.7621 L257.2289 131.097 L257.0235 131.3729 L256.3942 131.2329 L255.9344 131.6122 L255.639 132.1238 L254.9525 132.8134 L254.7425 133.2497 L255.3966 134.1062 L255.1607 134.5988 L254.4886 135.3377 L254.0629 135.6431 L253.4835 135.6874 L249.8513 135.6044 L248.8984 135.1301 L247.5149 135.0632 L246.5643 135.325 L246.5385 135.332 L246.4909 135.2821 L244.9961 133.71 L244.7256 132.2885 L244.3914 131.3764 L244.3424 131.147 L244.4435 130.9486 L244.7639 130.5643 L245.0769 130.2934 L244.1781 130.8409 L243.8665 131.7008 L242.8601 133.7325 L241.7798 134.9556 L241.2789 135.2553 L239.6211 134.5573 L237.7145 133.2033 L236.5904 131.8451 L235.8342 130.3096 L235.3329 128.4764 L234.7175 125.0203 M234.7332 190.2227 L234.8569 189.8504 L237.107 186.6441 L238.5279 184.8048 L238.4255 184.5445 L238.2177 184.5178 L236.9228 185.0293 L236.1661 185.3888 L235.7031 185.2861 L235.4991 185.0807 L235.422 184.8034 L235.4691 184.5375 L235.5646 184.3341 L235.9302 184.1083 L238.0617 183.1169 L238.4481 183.0528 L239.2504 183.043 L239.4596 182.974 L239.7702 182.5371 L240.1617 182.1986 L240.4978 181.8538 L240.6815 181.488 L240.7789 181.1882 L240.983 180.8751 L241.2581 180.6879 L241.6011 180.6021 L241.8966 180.4677 L242.1957 180.0455 L242.4238 179.8112 L242.674 179.6409 L244.1804 179.4974 L245.7888 179.5037 L245.8322 179.731 L245.7495 179.9329 L245.2057 180.0455 L244.0977 180.4234 L243.4002 180.6112 L242.7825 180.9926 L242.7022 181.2086 L242.554 181.4331 L241.6552 182.0572 L240.5472 183.5826 L240.5135 183.8465 L240.6686 183.99 L240.9096 183.9577 L241.1284 183.8606 L242.2299 183.7431 L242.5364 183.6896 L242.9436 183.4722 L243.3309 183.202 L244.1499 182.9029 L244.655 182.4948 L244.8729 182.2887 L245.0991 182.2451 L245.2163 182.3119 L246.0685 183.3061 L246.0782 183.4827 L243.7104 185.7885 L243.3956 185.8849 L243.0443 185.9039 L241.825 185.1222 L241.3348 184.7077 L241.0144 184.655 L240.6529 184.7021 L239.111 185.4106 L238.4753 186.3823 L238.1905 186.5976 L238.0451 186.9445 L237.9444 187.4223 L237.7967 187.6467 L236.9454 188.4285 L236.3365 189.0821 L235.9085 189.7667 L235.6616 190.2381 L234.7332 190.2227 M235.8467 166.473 L236.6176 164.6364 L237.4698 162.9195 L238.0963 161.7233 L238.2971 161.7627 L238.4915 161.9991 L238.672 162.6303 L239.942 163.6091 L241.1446 164.0728 L242.0429 163.9546 L242.5822 163.5887 L243.3111 162.6739 L243.6666 162.3981 L244.233 162.4875 L245.575 162.7689 L247.0791 163.2917 L247.3593 163.189 L248.3191 163.2917 L248.9959 163.7266 L249.782 164.9981 L250.2497 165.3295 L250.4888 165.6589 L250.8669 165.8052 L250.8641 166.0346 L250.3803 166.328 L250.4477 166.8431 L251.1448 167.9295 L251.5386 168.6965 L251.9213 168.8753 L252.3567 169.2109 L252.7071 169.3938 L252.7703 169.8773 L252.0035 170.5014 L249.8933 170.9897 L247.892 171.0538 L245.582 170.8307 L244.5575 170.4754 L243.0203 169.9328 L240.6829 168.8872 L239.0888 168.1653 L237.6074 167.3849 L236.3799 167.0577 L235.8651 166.8635 L235.8467 166.473 M236.3231 203.2026 L236.7201 200.9687 L240.0458 195.8064 L248.236 185.78 L255.1358 175.8526 L259.2556 173.4701 L260.0002 174.363 L262.5314 173.5693 L265.7085 177.8382 L263.9214 188.7085 L260.0002 191.5877 L255.8306 196.9976 L252.1572 203.2518 L251.0156 205.8825 L249.9732 206.776 L249.8739 210.3502 L245.4564 209.705 L242.0813 208.8115 L238.7057 206.826 L237.0677 205.2873 L236.3231 203.2026 M240.4258 428.0549 L241.0749 424.6503 L241.7997 422.7842 L243.9002 419.4646 L245.3359 417.5478 L248.2715 414.3429 L250.3134 412.1511 L251.5548 411.5162 L254.8971 409.6507 L260.1484 405.7178 L261.4585 405.0962 L262.6995 405.0822 L263.9879 405.8106 L266.5538 407.5679 L268.1889 409.0487 L269.5503 410.7153 L269.3408 411.4107 L269.2974 411.6055 L268.5033 411.4515 L268.0634 410.936 L267.5251 410.4333 L267.0874 410.3159 L266.5893 410.3067 L266.6281 411.1744 L266.888 412.213 L267.3977 413.0687 L267.4535 413.6847 L266.8811 414.0595 L266.2154 415.6184 L265.5838 416.2997 L263.2645 415.8568 L262.6958 415.3083 L261.9368 415.2084 L261.6206 415.4496 L261.4816 415.7175 L261.0597 415.7232 L260.8593 414.9518 L260.2656 414.7802 L259.8345 415.2858 L259.3742 415.9454 L259.4301 416.5613 L258.9809 417.1189 L258.2949 417.384 L257.7677 417.1541 L257.415 416.9263 L257.1661 416.7343 L256.9385 416.5149 L256.391 415.9383 L256.174 415.7597 L255.8449 415.9025 L255.6441 416.079 L255.3666 416.6141 L256.2165 418.1729 L256.6001 419.3943 L257.6338 420.4554 L259.3363 421.503 L263.1011 424.0667 L264.0567 425.2037 L263.3338 426.643 L263.0369 426.7688 L262.2844 426.8546 L261.2166 426.8096 L259.7357 425.7254 L258.3433 424.7424 L257.149 424.3508 L255.879 423.5703 L254.8745 422.73 L254.3635 423.1962 L254.4373 424.708 L254.6409 425.2719 L255.2378 425.4673 L255.5887 426.8174 L256.0508 427.8791 L256.7543 428.5098 L257.3171 429.009 L256.6911 430.063 L256.1925 430.2507 L255.6094 429.9625 L254.5934 429.4675 L253.7781 428.5527 L253.3631 427.6597 L252.8437 426.7302 L252.2805 426.605 L251.8419 426.8624 L252.1942 427.4642 L252.8151 428.031 L252.4915 428.597 L251.8096 428.5126 L251.2649 427.9607 L250.9052 427.1099 L250.2622 426.6683 L248.922 426.1374 L247.2393 426.1684 L245.7094 425.8709 L244.937 426.0474 L244.0137 426.9671 L242.8901 427.1148 L241.6404 428.2025 L240.6335 428.4845 L240.4258 428.0549 M243.1269 154.574 L244.1024 151.8036 L245.3821 150.3455 L246.1318 150.0134 L246.7144 150.1696 L247.7175 150.8923 L248.4539 152.2251 L248.3574 153.7612 L248.7826 155.2439 L248.8177 156.1404 L248.585 156.7617 L248.1566 156.7716 L245.888 156.0834 L243.3956 155.1137 L243.1269 154.574 M244.5257 178.4166 L244.7385 177.9487 L245.1152 177.0509 L245.5847 176.692 L245.8234 176.253 L246.0635 175.9898 L246.3178 175.8357 L246.3372 175.4804 L246.3709 175.2334 L246.7116 175.0673 L248.3629 175.2686 L248.6741 175.3819 L248.6958 175.7977 L248.489 175.9792 L248.1413 176.3444 L247.7554 176.5823 L247.592 177.0115 L247.5126 177.4949 L247.5883 177.9916 L247.5541 178.3153 L247.3427 178.6298 L247.1119 178.8803 L246.7762 179.0013 L246.1696 178.9823 L245.7768 179.0013 L245.3391 178.9261 L245.1046 178.8142 L245.0017 178.7839 L244.7981 178.8212 L244.5622 178.6981 L244.5257 178.4166 M246.9895 148.1557 L247.0486 147.3619 L247.3648 146.5343 L249.0993 142.9307 L250.36 140.999 L251.0253 140.8456 L251.4781 140.0659 L252.003 139.3418 L252.7324 139.18 L252.967 139.4769 L252.7805 139.7964 L253.4295 140.2672 L253.5569 140.7415 L254.4761 140.7844 L255.3999 140.8597 L255.9769 140.7837 L256.2105 141.5712 L256.0078 143.7597 L255.5757 145.9447 L255.6538 147.5392 L255.6062 148.9206 L255.8906 150.095 L255.8523 151.0492 L255.6081 151.1794 L252.4735 150.4138 L249.1611 149.5398 L247.8343 149.1253 L247.1977 148.7503 L246.9895 148.1557 M248.1016 248.7621 L248.248 248.1691 L248.531 247.4832 L248.9345 246.7551 L249.9672 245.13 L251.6125 243.2439 L252.4268 241.991 L253.49 240.6395 L255.524 238.7351 L256.0956 238.3651 L258.4597 237.5603 L258.9573 237.6285 L260.5486 240.2596 L261.5504 242.6818 L261.3307 244.7403 L260.8496 246.6502 L260.8302 247.6105 L260.6599 248.7811 L260.1211 250.174 L259.9236 251.3228 L260.3123 253.3425 L260.7268 256.1325 L259.6964 256.6172 L259.3793 257.2328 L258.7999 256.9844 L255.4894 254.6763 L252.4116 252.4364 L250.6019 251.5268 L249.4903 250.8248 L248.4276 249.5423 L248.1016 248.7621 M248.3814 117.4916 L248.639 115.4064 L249.1302 113.9834 L249.5803 113.5921 L250.3762 113.8194 L251.5996 113.9356 L252.2339 113.6027 L253.7601 112.6533 L254.4212 111.6244 L254.7143 109.8115 L255.3985 108.0584 L255.7424 106.1835 L256.0235 105.1764 L256.4441 104.7887 L257.0992 104.8407 L258.865 105.5016 L260.297 106.3046 L261.6349 107.071 L265.5894 108.4631 L265.8599 108.9543 L265.4061 109.5405 L264.6961 109.7453 L264.173 110.7011 L263.4256 113.3219 L262.7793 114.2382 L261.9082 115.2396 L261.7111 115.9863 L261.7895 116.5859 L261.3487 117.947 L260.7453 119.1905 L259.8755 119.7486 L258.8091 120.6093 L258.2496 121.736 L257.8886 123.0308 L255.6228 126.2117 L255.4982 127.0597 L255.23 127.2617 L254.3935 127.1773 L253.4752 126.6889 L251.8373 124.8528 L251.0396 123.5727 L248.8227 119.5121 L248.3814 117.4916 M251.5008 101.3387 L251.6259 101.1022 L252.8848 101.9651 L254.0611 102.5943 L254.1853 102.9455 L253.1396 104.1116 L252.353 105.6606 L252.0811 105.5741 L251.5714 104.4656 L251.9467 102.3578 L251.5008 101.3387 M252.5579 160.3751 L252.708 160.1492 L253.0542 160.1787 L254.706 161.8281 L256.0517 163.455 L256.8836 164.3275 L257.4034 165.307 L257.4547 166.2274 L256.8767 167.7663 L255.8384 168.5579 L255.1399 168.3848 L254.4447 167.5601 L254.0274 165.6173 L253.4489 162.9427 L252.5579 160.3751 M256.5789 151.4736 L256.9251 148.3822 L257.3452 145.609 L257.6615 143.5373 L257.8254 142.7956 L258.143 142.2298 L258.3609 142.3973 L258.6079 142.7907 L259.8511 143.3142 L260.4882 144.4423 L260.0491 144.8279 L260.0597 145.9067 L260.3644 146.4886 L260.3894 147.9263 L260.3903 148.6792 L260.7328 149.5511 L261.0472 150.4595 L261.6631 151.4264 L262.1686 152.0478 L262.2277 152.4981 L262.4622 152.7944 L262.4793 152.9231 L259.7781 152.2314 L258.2348 151.9105 L256.9616 151.6523 L256.5789 151.4736 M257.391 140.1722 L258.6674 136.5347 L258.8295 136.4073 L260.9669 136.8091 L261.0897 136.7085 L263.596 137.0695 L264.0604 135.1843 L264.3157 134.1477 L264.9209 133.8486 L265.3161 134.4067 L265.8253 134.0055 L266.0003 133.4468 L265.8451 132.9887 L265.5266 132.8388 L265.4158 132.5277 L265.0469 132.2385 L264.8175 132.1083 L265.0303 131.2434 L268.9359 131.6692 L270.9999 131.957 L276.5342 132.5108 L281.9046 133.0823 L282.4835 133.3595 L284.8665 135.9823 L278.5331 144.7624 L275.0629 146.6652 L273.5436 149.1922 L272.5658 148.7939 L270.5207 151.8627 L269.9335 152.3166 L264.6675 149.8959 L267.1945 144.2987 L257.391 140.1722 M261.1359 264.5115 L261.4078 263.8045 L267.2836 263.6955 L267.61 266.3067 L269.7867 268.3742 L266.359 272.1826 L261.1359 264.5115 M262.2193 148.4371 L262.5563 145.9003 L262.6865 145.5196 L263.1907 144.8483 L263.7128 144.7076 L264.6195 144.951 L265.8322 145.5661 L265.6586 145.9918 L265.2371 147.5076 L264.2525 149.815 L264.0876 149.9339 L262.7207 149.1218 L262.2193 148.4371 M263.8614 466.7973 L264.017 466.2778 L264.2224 465.3779 L266.0598 463.327 L267.3326 462.0376 L269.7969 459.7927 L273.166 457.0557 L274.948 456.0482 L277.4344 455.0618 L280.533 454.0557 L286.9135 451.9197 L291.9667 450.6563 L294.0252 450.4355 L294.7435 450.9895 L294.6867 451.6947 L292.0068 453.2443 L291.036 453.4222 L290.5397 454.185 L290.0245 455.9491 L291.5424 457.2954 L290.2489 457.6646 L288.8016 456.8574 L287.4351 456.2893 L286.5174 456.1108 L286.5284 456.9573 L286.8821 457.7588 L288.3012 457.9711 L290.2396 459.1122 L290.8859 459.875 L295.2933 461.4984 L294.894 462.3723 L294.0395 462.2893 L290.7867 460.8066 L288.7707 460.8016 L287.6341 460.8516 L286.5377 460.4473 L286.227 459.5903 L285.4043 459.0004 L284.4736 458.7241 L283.9192 459.0461 L283.6242 459.5235 L283.5342 459.56 L283.3084 460.074 L283.3684 460.9141 L283.8282 462.058 L284.3555 462.38 L285.2437 462.7119 L288.3561 462.9509 L288.2929 463.6076 L286.5788 464.182 L285.1347 464.9209 L283.831 465.5909 L283.1704 465.4784 L282.7577 464.9842 L281.7037 464.5244 L279.8987 463.2652 L278.3217 462.2261 L277.4464 461.9919 L276.5245 462.1635 L275.2439 462.631 L274.4106 462.3421 L273.8862 462.5108 L273.5108 463.0585 L273.3271 463.699 L273.2722 463.919 L273.695 465.2288 L271.5225 465.7139 L270.4986 466.2475 L269.0781 466.784 L268.4678 466.4901 L268.0209 465.3518 L267.3783 465.1873 L266.3728 465.6689 L265.3549 466.6258 L264.6647 467.3014 L263.8614 466.7973 M264.8027 155.2931 L264.9131 154.8843 L265.052 154.5669 L265.8599 154.365 L266.6858 154.4206 L267.544 154.4726 L269.1339 154.0997 L270.0055 154.0167 L271.0789 153.7113 L272.0557 153.4185 L272.7076 153.3981 L273.5265 153.6522 L274.6285 154.0659 L275.6229 154.6577 L276.6339 155.379 L277.2308 156.1875 L277.5881 156.6667 L277.7608 157.2353 L277.5175 157.6286 L276.9058 157.7089 L275.8745 157.5822 L272.5778 157.1614 L270.5512 156.9348 L269.5965 156.8968 L267.5112 156.9735 L265.4943 157.0748 L265.1919 157.0164 L264.8304 156.5049 L264.8844 155.9074 L264.8027 155.2931 M265.0963 164.5724 L265.1504 164.2368 L265.9587 163.4079 L267.0427 162.1807 L267.4032 161.9365 L267.9673 161.9935 L269.9317 162.491 L270.8794 162.7274 L271.2908 162.8703 L273.858 163.2228 L274.3958 163.5788 L274.9812 163.7977 L276.2826 163.9877 L277.096 163.9469 L277.4949 163.9926 L277.7022 164.3268 L277.933 165.8404 L278.2266 167.0838 L278.2492 167.5074 L278.0105 167.9331 L277.4173 168.4059 L276.1635 168.8337 L274.7882 169.08 L272.4283 169.0624 L271.1006 168.9245 L269.8204 168.6494 L268.5172 168.1969 L267.3538 167.5615 L266.3211 166.6785 L265.5575 165.5962 L265.0963 164.5724 M267.3035 160.8423 L269.1981 158.226 L269.549 157.9171 L272.2247 158.0642 L273.7629 158.283 L276.1118 158.7102 L276.7498 159.3097 L277.2941 160.0535 L277.6906 161.1589 L277.9256 162.1011 L277.7516 163.1229 L277.0674 163.4494 L276.2124 163.3255 L273.7324 162.8456 L267.3404 161.1266 L267.3035 160.8423 M267.635 405.3993 L267.8579 405.092 L268.1788 405.073 L268.4507 405.6988 L268.3224 406.1123 L268.0287 406.1158 L267.6899 405.7516 L267.635 405.3993 M273.2759 151.2484 L273.4421 150.3125 L273.9416 149.9578 L275.291 149.3688 L276.3334 148.288 L278.0345 148.1859 L278.8309 147.7764 L279.4075 147.1979 L280.4259 147.0945 L281.2859 147.0572 L281.8515 147.3183 L282.1229 148.1198 L282.2115 150.0725 L283.0601 153.6613 L282.9696 154.13 L282.567 154.1827 L280.4508 153.8977 L277.9653 153.9203 L276.3407 153.2299 L273.6346 151.9014 L273.2759 151.2484 M275.0089 253.8969 L275.0297 253.2954 L275.6963 252.3091 L276.6819 251.4811 L278.6596 249.8736 L279.6148 248.0509 L280.5773 247.4255 L281.159 246.4723 L282.7946 244.9661 L284.1745 244.2935 L284.3619 243.4831 L284.9842 243.5 L285.8397 244.3041 L286.6932 244.8465 L286.9056 245.4733 L285.4943 246.4343 L285.0959 246.8057 L285.1029 247.429 L285.0899 248.2788 L285.2991 249.4987 L285.6144 250.5799 L285.83 251.849 L285.6582 253.1941 L285.2317 254.7129 L285.1518 255.6218 L285.7824 256.4287 L286.1351 257.2236 L286.0594 257.7822 L285.3194 257.83 L283.6588 257.2996 L280.1037 255.9707 L277.9584 255.1554 L275.0089 253.8969 M278.4149 163.1862 L278.6878 162.4016 L279.323 163.5887 L280.7767 165.1761 L282.5698 166.6067 L283.5628 167.1956 L284.4602 167.4025 L286.0234 167.8747 L287.2283 168.3658 L288.5398 169.0969 L289.7734 170.0356 L290.939 171.0263 L290.9284 171.6343 L290.4917 172.2 L289.9271 172.4723 L288.9318 172.0944 L287.7818 171.794 L283.2826 169.7597 L282.0541 169.0885 L279.5155 167.8134 L279.0465 167.0985 L278.6181 165.6582 L278.4149 163.1862 M278.7847 188.8077 L278.8337 188.1737 L279.0677 186.6075 L279.2501 185.9229 L279.7847 185.5802 L280.2957 185.6611 L280.6595 185.9602 L281.1996 187.0698 L282.2014 188.1998 L283.3144 189.277 L284.0609 190.153 L284.0041 190.5238 L283.5028 190.8538 L282.5564 190.5984 L281.4941 190.2592 L280.9448 189.8195 L280.0838 189.5451 L279.2242 189.1602 L278.7847 188.8077 M280.4836 360.1013 L283.0213 358.7095 L285.011 357.6427 L286.8894 360.6196 L284.7885 361.7821 L281.8311 363.7231 L280.4836 360.1013 M281.6779 389.7223 L283.0407 388.3447 L283.5365 387.8434 L285.9712 385.8519 L286.4804 386.1036 L287.2828 386.8399 L287.8331 387.2077 L288.6576 387.3356 L289.1575 387.2695 L289.4604 387.2998 L289.8431 388.5522 L290.2752 389.9656 L290.958 392.365 L290.9095 392.557 L290.6842 392.8094 L289.941 393.0555 L288.7794 393.2081 L287.6304 393.1737 L287.4014 393.0274 L286.8433 392.6695 L286.6619 392.4522 L286.0894 391.7687 L285.8484 391.4803 L285.7344 391.4149 L284.5974 390.7645 L283.8938 390.685 L283.2152 390.6977 L282.4142 390.9431 L282.212 391.0022 L282.0827 390.8707 L281.9623 390.7476 L281.8986 390.2589 L281.6779 389.7223 M281.7808 185.5338 L281.9729 184.446 L282.8205 184.1258 L283.4603 183.1344 L283.2364 181.9348 L282.4848 180.5437 L282.1488 179.7444 L282.9807 178.9605 L283.62 177.6651 L287.0104 175.8737 L288.466 176.082 L291.6283 177.181 L293.3119 178.1767 L293.8714 178.5123 L293.6955 179.5523 L293.1037 179.9998 L292.2081 181.2635 L291.8245 182.9747 L292.1763 184.9575 L290.849 188.3644 L290.241 190.2993 L290.0014 190.6828 L288.3538 190.1234 L286.1471 189.6119 L284.0997 188.204 L282.5167 186.3169 L281.7808 185.5338 M282.4752 376.3415 L282.6778 376.2254 L284.674 375.0862 L284.9597 375.0116 L285.1241 375.1389 L286.997 380.9047 L288.0833 384.4968 L287.9716 384.7717 L286.5986 385.2084 L286.4961 381.8477 L286.1757 381.6347 L286.0603 382.6916 L285.8521 384.598 L285.811 384.9735 L285.5507 384.752 L284.9482 384.2401 L284.6809 383.6072 L283.1372 378.5222 L282.4752 376.3415 M283.5633 140.1025 L284.2373 139.2862 L284.7474 138.4305 L285.2187 137.7768 L285.4316 137.6501 L286.2621 138.4938 L286.8225 139.275 L287.4407 140.1771 L288.1705 141.0687 L289.947 142.9567 L289.9479 143.507 L289.1871 143.785 L287.6932 143.8751 L285.5142 143.2234 L284.4025 142.0525 L283.7765 140.8027 L283.5633 140.1025 M283.7133 368.3034 L283.7475 368.0017 L283.9021 367.7626 L284.3005 367.1487 L284.8116 366.8216 L285.0341 366.8294 L285.1767 367.0706 L286.2556 370.5207 L288.213 375.916 L288.7379 377.364 L288.7596 377.4969 L288.9226 378.4912 L289.0906 380.6234 L288.8745 380.949 L288.267 381.103 L287.9212 381.0003 L287.5833 380.6733 L285.2866 373.4828 L284.0194 369.5151 L283.7133 368.3034 M284.5378 155.6851 L284.9597 154.9068 L285.7538 153.7176 L286.2321 152.8661 L286.7311 152.1765 L286.8539 151.8648 L287.443 151.3603 L288.0246 151.0535 L288.8547 151.1414 L289.3607 151.5024 L289.8362 151.6368 L289.9294 152.3475 L289.7743 152.6635 L290.1621 152.8753 L290.572 152.7557 L291.2465 152.4038 L291.6818 152.4784 L291.9722 153.1955 L292.2187 153.3278 L292.8937 153.7317 L293.9181 154.0568 L294.5214 153.9118 L295.4581 154.3143 L296.1372 154.7506 L296.441 155.0722 L296.7087 155.3656 L296.706 155.5957 L296.4068 156.0623 L293.8594 157.6132 L292.5063 158.2838 L290.0674 159.1633 L288.2795 159.7601 L287.2029 159.9993 L286.8867 159.8776 L285.8096 158.9023 L285.0096 157.7912 L284.5983 156.4 L284.5378 155.6851 M287.5778 166.5497 L288.2407 165.8158 L288.9738 165.5385 L289.8537 165.2585 L290.9764 165.0776 L291.4732 165.3739 L292.2012 165.1797 L292.3882 164.8595 L292.7856 164.6428 L294.0035 164.9425 L295.5966 165.357 L296.5933 165.7187 L296.5629 165.9861 L295.9502 166.5595 L295.4747 167.1802 L294.918 167.6805 L294.2121 168.7922 L293.5132 169.7056 L293.208 169.8773 L292.8009 169.7661 L292.0096 169.4762 L290.2973 168.6501 L288.6326 167.6861 L287.701 166.8227 L287.5778 166.5497 M288.6857 411.5119 L289.5481 407.4125 L292.1126 398.7275 L293.2214 395.0378 L292.9768 381.8611 L296.3579 381.8491 L296.1885 385.0425 L295.4512 385.6001 L295.0376 382.5615 L293.8968 382.5636 L294.8691 388.1556 L295.6986 388.6971 L294.9185 389.8559 L295.4651 393.9964 L295.0329 395.3142 L298.3748 396.9484 L299.0502 399.8273 L297.885 401.8468 L300.3585 404.2116 L302.652 400.5811 L305.3162 401.0818 L306.7413 402.0852 L307.1139 400.8167 L308.5713 400.4461 L310.116 401.0944 L311.9593 403.9057 L310.9169 410.8334 L311.8365 412.791 L310.2789 416.6056 L306.6088 417.7046 L301.5865 415.7829 L301.1332 416.9038 L305.6213 419.4238 L306.9578 422.8446 L309.4004 423.8424 L309.2919 426.0756 L315.9231 424.4478 L324.1663 432.9697 L322.7181 437.6314 L324.5314 443.7913 L323.7891 446.9109 L323.243 448.3016 L321.9351 447.0551 L321.84 445.9695 L318.3758 444.5513 L316.501 441.0661 L315.954 437.2369 L317.8934 435.7252 L316.4447 434.3331 L311.7918 433.0956 L308.9886 434.3661 L307.088 434.1524 L304.933 431.6289 L301.4236 431.8771 L300.1148 431.2562 L298.7802 431.9699 L299.209 433.0281 L300.7745 432.5268 L302.2767 433.6792 L302.2444 435.6908 L298.9159 436.067 L297.3638 433.8043 L297.0079 431.1367 L298.2373 429.26 L301.5307 428.7988 L300.6988 425.5651 L293.8622 421.7119 L292.3531 417.6948 L294.1373 414.814 L290.2553 407.9173 L289.5038 411.4613 L288.6857 411.5119 M290.2336 163.9912 L290.4132 163.367 L290.7719 162.8562 L290.9635 162.6943 L291.2128 162.8259 L291.3365 163.2552 L291.6094 163.4923 L292.4505 163.8631 L292.2741 164.2867 L292.0391 164.5633 L291.5318 164.7483 L290.9497 164.6611 L290.7955 164.6632 L290.2641 164.1509 L290.2336 163.9912 M291.8056 162.6296 L291.8734 162.111 L292.715 161.3004 L292.137 159.2309 L292.8027 158.7622 L294.19 158.3809 L295.2042 160.5911 L295.9544 160.9288 L296.5809 161.1371 L297.4049 161.5818 L298.8665 162.2735 L300.8308 163.2432 L300.8659 163.5113 L300.7099 163.7231 L299.8581 164.1622 L298.963 164.4894 L297.4423 165.1346 L297.0393 165.2331 L296.5213 165.1199 L293.7653 164.0813 L292.6508 163.5458 L291.9911 163.087 L291.8056 162.6296 M292.7598 380.7409 L293.5478 358.8171 L297.4995 353.8689 L312.7797 337.8155 L317.5721 327.2023 L319.3194 325.444 L318.6366 321.0636 L323.5347 310.7032 L328.5473 309.3844 L331.8477 307.5359 L333.7524 307.5732 L335.6055 308.0149 L337.0491 308.7344 L337.5772 309.5201 L338.5808 310.623 L339.2913 311.8905 L339.7336 314.0385 L339.6911 314.6912 L340.1546 316.7176 L338.2683 316.8801 L337.8168 317.5553 L337.1816 317.8915 L336.5533 318.2713 L334.2787 318.4401 L332.0886 319.0506 L331.7304 319.4086 L331.723 319.749 L331.8777 320.1035 L332.9307 320.3145 L334.0664 320.349 L334.4057 320.4819 L334.4897 321.6614 L334.36 322.1664 L333.3942 322.189 L332.572 322.2804 L332.2572 322.6525 L332.2359 323.0942 L332.4677 323.5569 L333.0784 324.0423 L334.1102 323.9368 L334.7316 324.2828 L335.1706 327.3648 L334.7422 327.6433 L334.005 327.4541 L333.5235 327.701 L333.3522 328.3171 L333.451 329.3545 L333.8785 329.8335 L334.5317 330.0234 L335.202 330.0143 L335.3396 330.3132 L335.142 331.3077 L334.4929 334.0133 L334.9541 339.853 L333.4468 340.218 L332.9002 338.5983 L329.894 339.272 L325.0799 341.7083 L320.8336 347.5168 L324.5587 354.4076 L323.9821 362.5156 L325.1067 363.2857 L322.2209 368.136 L317.765 367.6733 L312.036 371.1579 L302.0551 371.2662 L295.6169 373.8288 L295.6959 378.4779 L296.1021 379.3829 L295.3381 381.2043 L292.7598 380.7409 M293.6318 190.5273 L293.8225 189.6471 L294.1415 188.9737 L294.3705 187.6094 L294.809 186.148 L295.5874 183.2442 L297.5743 178.1971 L298.433 177.0248 L300.6955 175.4958 L301.6802 175.194 L302.5772 175.0441 L303.3685 175.061 L305.2179 175.7815 L306.1453 176.2515 L307.335 176.9242 L307.3451 177.0016 L307.7002 177.3105 L307.8082 177.5786 L307.5058 177.9733 L306.6554 179.083 L305.0281 180.3115 L304.3583 181.0763 L303.9571 182.048 L302.9719 185.5598 L302.3302 186.5013 L301.6765 188.2568 L300.1217 191.3519 L299.36 192.5818 L298.8623 192.4826 L298.8231 192.4826 L298.2012 192.4791 L296.8149 192.1956 L294.3211 191.7579 L293.883 191.5215 L293.6318 190.5273 M294.7061 158.1205 L294.7435 157.6561 L295.3381 157.4464 L296.333 156.7899 L297.0116 156.4704 L297.4215 156.3508 L298.5318 156.8293 L299.4445 157.3007 L300.0289 158.0121 L301.394 158.687 L302.6839 159.5363 L303.6543 160.197 L304.4483 161.0126 L304.6828 161.8028 L304.3721 162.4354 L303.4964 162.7478 L302.3155 163.2312 L301.8801 163.1573 L300.588 162.5388 L299.0447 161.7556 L298.4233 161.5094 L297.7008 161.2427 L297.0817 160.7656 L295.9396 160.2913 L295.406 159.9669 L294.9743 159.1697 L294.7061 158.1205 M297.0868 450.1416 L297.3657 449.5623 L299.306 449.4744 L303.0306 450.5417 L304.0545 451.1864 L305.6532 452.6544 L307.8373 455.8977 L310.2406 459.6064 L313.6453 464.9202 L316.3556 468.9698 L316.2984 469.6531 L315.8427 470.198 L315.3474 470.2191 L312.0078 468.877 L309.8325 467.9911 L310.5121 465.787 L310.2203 464.0034 L309.7785 463.0753 L309.1682 461.8935 L307.8045 460.4199 L303.9114 457.1851 L301.1577 455.1553 L300.2154 454.6681 L299.1065 453.7147 L298.6394 452.8583 L297.7867 451.4262 L297.0868 450.1416 M303.429 448.727 L303.621 448.2194 L305.307 444.7334 L305.5101 444.313 L305.9704 443.8806 L306.2921 443.8011 L307.6318 443.8855 L310.5134 443.6176 L311.0864 443.6092 L311.4714 443.6036 L312.2589 443.9825 L312.7349 444.5141 L312.7344 445.9259 L312.6573 447.3096 L312.8937 448.0731 L313.6037 448.7432 L314.0229 449.139 L315.9678 450.9748 L316.4258 451.6575 L316.3907 452.5159 L316.0265 453.2225 L315.5071 454.2293 L315.1812 455.1258 L315.19 455.3072 L315.2232 456.0116 L316.0168 457.2814 L320.8133 459.8075 L321.2431 460.2715 L321.3918 460.8459 L321.3765 461.2938 L320.9897 462.5698 L321.1148 463.5267 L321.7426 465.0812 L321.7043 465.6155 L320.1111 467.5686 L319.7644 467.9932 L319.2174 468.5753 L319.2612 469.0541 L319.319 469.1279 L321.0691 471.3678 L324.2051 473.3328 L326.3374 473.832 L326.8092 473.7877 L327.6914 473.5318 L328.4961 473.5599 L329.1424 473.4938 L329.5676 473.3933 L330.0422 473.3244 L330.4313 473.4327 L331.1437 473.4861 L331.5453 473.446 L331.777 473.4678 L332.0799 473.4967 L333.3074 473.9586 L333.5304 474.0373 L335.0086 474.5526 L337.2217 474.6068 L337.9359 474.7677 L338.4017 474.9203 L338.844 475.1966 L338.8601 475.603 L338.6949 476.0332 L338.6699 476.0557 L337.4401 477.1637 L335.937 477.807 L334.5723 478.0973 L333.5465 478.1578 L332.7447 477.9701 L331.1095 477.5869 L327.9869 476.2891 L323.8597 474.2805 L320.9292 472.4744 L319.3748 470.7478 L319.3365 470.6894 L319.0734 470.2929 L318.8776 469.9976 L312.7995 460.8277 L308.5764 454.2153 L306.0687 451.128 L303.8911 449.3689 L303.5495 449.0828 L303.429 448.727 M306.0036 159.7523 L306.2247 159.3681 L309.0454 159.6545 L309.3722 160.1752 L310.121 162.3657 L310.0781 162.8808 L309.5403 162.8752 L307.142 161.876 L306.0248 160.1513 L306.0036 159.7523 M307.0751 486.3789 L307.2251 485.0678 L307.4065 483.4769 L307.4102 483.4459 L307.6623 483.1155 L307.9337 482.9313 L311.47 482.0026 L311.8947 481.8908 L312.5872 481.54 L314.4315 479.5519 L315.8704 478.1374 L316.7277 477.7184 L316.8071 477.6797 L317.5693 477.5799 L317.8537 477.7149 L318.1205 477.8414 L318.7497 477.9841 L319.6753 478.2576 L320.7953 478.7989 L321.8174 479.2257 L322.159 479.1765 L322.31 479.1547 L322.8497 478.9051 L323.3676 478.5374 L323.6354 478.2534 L323.7739 477.9996 L323.8847 477.7029 L323.8916 477.6846 L324.2549 477.3324 L324.6445 477.2073 L331.1044 479.2826 L331.519 479.4162 L333.0249 480.0419 L333.0946 480.2929 L332.9418 480.5354 L331.4271 480.8089 L330.4299 481.0887 L329.0815 481.7854 L327.4481 482.3752 L325.1722 483.299 L323.3949 484.1953 L321.6138 485.3666 L319.3453 486.4626 L316.6206 488.1864 L314.2999 489.6121 L310.9765 491.3752 L309.7688 491.6676 L309.1483 491.7365 L308.2435 491.5896 L307.8691 491.2676 L307.8516 491.2205 L307.6983 490.8072 L307.8853 490.263 L308.8261 488.9878 L308.9148 488.3572 L308.9217 488.3073 L308.8137 487.7645 L308.2329 487.4573 L307.6978 487.3491 L307.2427 486.9821 L307.1891 486.7902 L307.0751 486.3789 M309.52 468.6688 L310.3403 468.8601 L311.7124 469.4443 L313.8147 470.3484 L316.0195 471.2448 L316.0579 471.9598 L315.9092 472.6157 L315.5325 472.9012 L314.5755 472.653 L313.1795 474.1104 L312.7926 474.1055 L311.8753 473.4235 L311.1653 473.2675 L310.663 473.5409 L310.3939 473.3828 L309.6996 469.3656 L309.52 468.6688 M339.0346 469.1244 L339.0743 468.7124 L339.09 468.5507 L339.205 468.0994 L339.8273 466.9625 L340.3628 465.9846 L340.9362 465.2562 L343.7315 461.7072 L345.0024 460.2905 L345.3915 461.0294 L345.8707 461.3873 L345.8827 461.7339 L345.9954 463.7447 L346.0069 463.9394 L345.5065 466.3389 L345.6224 467.956 L346.3098 469.7656 L347.2054 471.0248 L347.511 473.2675 L348.0322 474.5315 L350.364 476.8072 L350.7476 477.8084 L350.7688 477.8639 L350.8349 477.9075 L354.7584 480.47 L355.756 480.2247 L357.6239 481.1393 L357.2029 482.5911 L358.4535 483.5999 L358.1876 483.8734 L358.134 483.9289 L357.8778 483.9626 L356.6969 483.1577 L354.5733 481.6898 L352.9783 480.5853 L351.8763 479.8225 L348.3078 477.4801 L347.583 477.0048 L342.1069 473.4102 L342.0409 473.356 L341.4444 472.866 L340.9352 472.3641 L340.7377 471.5176 L340.6832 470.2493 L339.3638 469.6482 L339.0346 469.1244 M344.4812 323.7827 L345.4497 322.4084 L348.1674 322.4393 L350.4171 323.4395 L350.448 324.4389 L349.1988 326.4069 L347.0429 327.094 L345.4811 326.6882 L344.4812 323.7827 M353.5189 468.3019 L353.7843 467.6551 L353.8974 467.4645 L354.1333 467.0673 L354.5502 466.8993 L354.7192 466.8311 L355.4804 466.8205 L356.3266 466.4353 L360.5415 465.3139 L360.9653 465.2963 L361.3822 465.4714 L361.577 466.1681 L361.559 466.2946 L361.2949 468.1479 L361.0364 468.9276 L360.1902 469.9252 L358.4202 470.8785 L357.0163 471.133 L356.5602 471.0873 L356.3271 471.0641 L356.2731 471.0044 L355.6434 470.3055 L354.92 469.8661 L353.9999 468.9655 L353.8651 468.7792 L353.5189 468.3019 M363.3608 310.0856 L363.6816 308.1035 L364.5833 306.1875 L365.6321 304.2912 L366.5596 303.0062 L367.2701 302.5243 L367.9334 302.179 L368.6181 300.0196 L370.942 299.0686 L372.3584 300.0463 L373.6334 299.9436 L374.1819 300.1947 L374.168 300.5844 L373.5545 301.3117 L374.9819 302.8697 L374.6878 304.0725 L374.6338 305.6312 L375.0636 305.9625 L374.6758 307.436 L373.7341 307.6245 L373.5397 309.5897 L372.1386 311.1955 L370.641 312.5565 L369.5506 313.0876 L369.5778 312.3083 L368.6361 312.4961 L368.4274 313.364 L366.9238 313.6911 L365.0477 312.6445 L363.7195 311.849 L363.3608 310.0856 M379.3653 379.7184 L379.4378 379.2697 L379.6949 379.0601 L380.1745 379.217 L380.614 379.4005 L380.9894 379.5932 L381.0558 379.9357 L380.8541 380.4012 L381.0471 380.705 L381.6952 381.1466 L382.119 381.3766 L382.4472 381.8822 L382.6684 382.4019 L382.8757 382.4841 L383.1762 382.7739 L383.2108 383.2085 L383.1997 383.6269 L382.8572 384.3526 L382.5022 384.816 L382.1823 384.88 L381.6689 384.4644 L380.8033 383.1951 L379.9179 381.2704 L379.3653 379.7184 M381.3619 389.4488 L381.4833 388.6598 L382.0899 386.9826 L382.7981 385.7042 L383.4596 384.778 L384.4559 383.994 L385.2079 383.771 L385.875 383.8083 L386.7166 384.2246 L387.6316 385.2021 L389.2367 386.4397 L390.1051 387.7308 L391.0067 388.2709 L391.8077 389.0437 L392.1188 389.3707 L392.4009 390.2392 L392.0223 391.6934 L391.9365 392.7145 L391.6544 393.2341 L391.3566 393.3832 L391.2038 393.469 L390.8991 393.8164 L390.7689 394.4922 L390.3669 394.7643 L389.0821 394.9767 L388.0558 395.1553 L386.9502 394.7298 L385.6654 393.9324 L384.3913 393.2222 L383.3193 392.0457 L382.3577 391.3812 L381.7118 390.4565 L381.3619 389.4488 M393.062 388.2646 L393.1848 387.195 L393.8689 386.4025 L394.9838 386.5635 L396.2815 386.7885 L397.6618 387.3096 L398.7116 387.1366 L399.6626 387.2231 L400.3925 387.7857 L400.6861 388.5332 L400.2979 389.0712 L399.743 389.3651 L398.7647 390.0627 L398.0921 390.941 L397.5446 392.1104 L397.3096 393.3263 L397.3959 394.3248 L397.269 394.6926 L395.7469 394.7608 L394.3481 394.7685 L393.9963 394.4197 L393.3445 392.4416 L393.2766 390.9143 L393.2074 389.6668 L393.062 388.2646 M393.218 397.9237 L393.5222 397.0722 L393.8985 396.1004 L394.0217 395.5357 L394.2041 395.4239 L395.4445 395.5462 L396.9181 395.4408 L398.1526 395.3451 L398.4863 395.3887 L398.7892 395.7002 L398.6867 396.087 L398.3146 396.421 L397.2385 396.8915 L396.6965 397.0947 L395.8854 397.7494 L394.8541 398.0602 L393.862 398.1685 L393.3376 398.1713 L393.218 397.9237" stroke-dasharray="" fill="none" fill-opacity="1.0" stroke="#ff0000" stroke-opacity="1.0" stroke-width="1.0px" stroke-linecap="butt" stroke-linejoin="miter" stroke-dashoffset="0.0px"/>
</g>
</svg>