<?xml version="1.0" standalone="no"?>
<!DOCTYPE svg PUBLIC "-//W3C//DTD SVG 1.1//EN" "http://www.w3.org/Graphics/SVG/1.1/DTD/svg11.dtd">
<svg width="512px" height="512px" version="1.1" xmlns="http://www.w3.org/2000/svg" xmlns:inkscape="http://www.inkscape.org/namespaces/inkscape">
<g id="layer" inkscape:groupmode="layer" inkscape:label="layer">
<path d="M0.0 299.4673 L22.4383 363.7127 L56.2005 351.732 L61.7682 367.7606 L62.0822 368.6094 L73.113 365.3776 L74.0339 368.3482 L74.327 369.5235 L88.1625 364.6594 L87.8276 363.6474 L86.6346 360.187 L95.7606 356.6614 L106.8123 353.201 L108.3403 357.6734 L121.7572 353.0378 L120.1874 348.5328 L135.0905 343.3422 L134.6928 342.2649 L130.5484 343.7013 L124.9807 327.6074 L158.8265 315.7899 L164.4361 331.9818 L160.4382 333.3529 L160.815 334.4954 L175.8018 329.2722 L177.3089 333.712 L190.5584 329.1417 L188.9885 324.6367 L198.8681 321.111 L203.9962 319.3808 L203.5985 318.2709 L199.4751 319.7073 L193.9492 303.7765 L227.5439 292.0896 L233.0698 308.0203 L229.7836 309.1303 L230.1813 310.2402 L233.7396 308.8691 L244.6239 305.2129 L246.1728 309.7179 L259.3176 305.1149 L257.7478 300.5773 L268.5483 296.8231 L262.4782 279.4233 L295.445 267.8669 L301.1592 284.1895 L296.973 285.6585 L297.3707 286.7684 L312.5668 281.4473 L314.1366 285.9849 L327.1768 281.4473 L325.607 276.9423 L335.8005 273.6777 L340.9287 271.6864 L340.531 270.5438 L336.3238 272.0128 L330.7351 255.6903 L364.9368 243.9054 L370.5464 260.2932 L366.1299 261.7949 L366.5276 262.9049 L371.279 261.2726 L381.5144 257.7469 L383.0633 262.252 L396.5221 257.4531 L394.9732 252.9807 L405.1668 249.6183 L415.1091 246.0273 L416.6371 250.4671 L430.0959 245.7662 L428.5261 241.2611 L443.3035 236.1032 L442.9059 234.928 L439.0336 236.2664 L433.5077 219.9438 L467.3745 208.3221 L472.9004 224.5794 L468.7769 226.0158 L469.1327 227.1258 L484.1195 221.8699 L485.6475 226.277 L498.8552 221.674 L497.3272 217.2016 L512.0 211.9457 L511.7279 210.8032 L507.9184 212.109 L492.7851 168.0705 L496.8248 166.6994 L496.3853 165.4262 L482.1311 170.4536 L480.9171 167.0258 L466.3698 172.1838 L467.5629 175.6116 L458.395 178.7782 L447.8247 148.1895 L451.8854 146.7857 L450.3992 142.4765 L435.9567 147.5039 L434.8054 144.1741 L421.0536 148.875 L420.4675 149.1362 L421.5769 152.4987 L404.2876 158.5054 L405.7947 162.782 L412.8904 160.2683 L421.7862 185.7642 L420.6978 186.1233 L422.3932 191.0528 L413.3718 194.2194 L412.2415 190.9875 L397.7152 196.1781 L398.8246 199.3447 L389.7613 202.5113 L388.631 199.3447 L387.417 199.7691 L388.5473 202.9357 L379.3794 206.1675 L378.2701 203.0009 L363.66 208.061 L364.8113 211.2928 L355.8108 214.4594 L343.6707 179.6596 L333.4353 183.12 L332.3468 179.8554 L317.8205 184.8175 L318.909 188.0821 L308.5689 191.6078 L317.9043 218.5401 L316.3344 219.0624 L317.988 223.8612 L308.7154 227.0931 L307.5851 223.8612 L293.1216 228.9212 L294.231 232.1205 L285.3352 235.2218 L274.3672 203.5886 L263.8806 207.2448 L262.7713 204.0129 L248.2659 209.073 L249.3962 212.3048 L232.0651 218.3768 L233.5931 222.6534 L240.7516 220.0418 L251.4893 249.9121 L242.6772 253.0787 L241.547 249.9447 L226.6439 255.3312 L227.837 258.5304 L219.0458 261.7296 L217.2876 256.8982 L216.1782 257.3225 L215.8015 256.2779 L205.5452 227.844 L195.54 231.3043 L194.3679 227.9745 L179.2136 233.1978 L180.3858 236.5602 L170.3387 240.0206 L182.437 274.3633 L173.7296 277.4319 L172.5575 274.1348 L157.5079 279.4233 L158.6591 282.6878 L149.9935 285.7564 L137.8534 251.3811 L127.5552 254.8742 L126.4249 251.5117 L112.087 256.4085 L113.2173 259.7383 L95.6559 265.7123 L97.163 269.9888 L104.175 267.5405 L111.6056 288.7598 L110.3916 289.1842 L113.6568 298.5533 L104.5099 301.7525 L103.4005 298.5533 L89.1672 303.5806 L90.2766 306.7472 L81.1087 309.9464 L79.9993 306.7798 L78.7853 307.2042 L79.8947 310.3708 L70.7059 313.57 L69.5965 310.4361 L55.4051 315.4308 L56.5145 318.5973 L47.4093 321.7965 L35.0808 286.9643 L25.1594 290.49 L24.0082 287.2255 L9.7958 292.2854 L10.968 295.5499 L0.0 299.4673" stroke-dasharray="" fill="none" fill-opacity="1.0" stroke="#ff0000" stroke-opacity="1.0" stroke-width="1.0px" stroke-linecap="butt" stroke-linejoin="miter" stroke-dashoffset="0.0px"/>
</g>
</svg>