<?xml version="1.0" standalone="no"?>
<!DOCTYPE svg PUBLIC "-//W3C//DTD SVG 1.1//EN" "http://www.w3.org/Graphics/SVG/1.1/DTD/svg11.dtd">
<svg width="512px" height="512px" version="1.1" xmlns="http://www.w3.org/2000/svg" xmlns:inkscape="http://www.inkscape.org/namespaces/inkscape">
<g id="layer" inkscape:groupmode="layer" inkscape:label="layer">
<path d="M10.1751 211.0218 L12.0847 211.0218 L15.6945 215.5503 L13.5681 216.5437 L19.3081 220.3125 L17.3803 222.4493 L17.4172 222.662 L17.5268 223.9154 L17.6713 225.2505 L17.445 226.1684 L17.1125 226.1977 L15.1254 225.8114 L14.4179 225.7326 L13.7032 226.5249 L10.8016 235.7596 L11.4456 236.0693 L23.6349 238.6933 L29.4894 253.2046 L44.961 258.5451 L50.6012 281.5585 L41.7292 280.7856 L43.0222 286.4896 L54.3351 299.4493 L60.5159 288.2316 L67.6374 289.1627 L74.8695 297.0992 L75.7193 298.0315 L79.2371 327.1403 L79.0811 321.7023 L80.8118 321.8775 L81.6639 326.2875 L105.373 323.1451 L106.187 325.9546 L83.9424 328.7991 L84.0679 329.6344 L81.972 331.375 L82.3372 332.6892 L77.5254 335.0138 L75.7946 340.4924 L72.3598 340.1245 L72.9684 336.988 L75.2241 334.5816 L75.2241 333.9975 L76.1256 333.9975 L75.6387 330.2126 L74.7448 330.5573 L75.0681 334.4589 L73.1205 335.8607 L71.192 339.8149 L71.3023 340.7553 L67.5442 346.555 L65.7678 344.8028 L65.6575 347.215 L66.8633 348.0152 L66.6465 354.2645 L67.3464 357.1847 L69.7085 362.6979 L68.4038 363.2586 L69.0467 364.2981 L70.1471 364.1089 L70.1658 364.0301 L70.2696 363.8461 L70.6013 363.5827 L70.882 363.4022 L71.0266 363.435 L80.7168 348.5116 L87.7766 349.2884 L88.157 351.8115 L86.4491 351.426 L87.4913 350.3514 L86.5708 350.0593 L86.2399 352.0218 L82.9268 352.4072 L80.1081 356.4605 L83.3071 356.6357 L81.2835 359.112 L77.126 359.112 L77.126 360.7181 L79.4957 360.6305 L85.7796 361.5649 L89.6861 362.3241 L91.7706 359.9763 L91.4169 359.0828 L91.1848 357.4825 L92.0749 356.2035 L98.4007 356.4663 L101.4475 355.8414 L101.0899 354.2762 L104.9166 354.1477 L107.5564 357.1146 L116.6171 353.2482 L118.2033 358.9777 L105.9018 362.1665 L100.9949 360.2684 L99.2831 360.2917 L102.4251 363.0892 L98.5186 366.056 L95.8825 363.8309 L94.73 365.0866 L89.6443 367.0021 L88.0619 366.6459 L88.9178 368.0183 L91.4929 371.6158 L95.8141 372.2758 L98.393 375.4118 L93.4481 377.5843 L89.1384 373.0408 L87.3658 369.3324 L85.7492 369.6477 L74.1019 371.464 L75.8136 377.9464 L85.0721 378.4253 L85.4411 380.6444 L82.9268 381.6372 L85.6845 382.4489 L85.6845 381.0182 L88.796 381.0182 L96.4683 382.4256 L101.0899 390.648 L106.0349 392.0495 L104.1596 393.0889 L104.5248 394.1926 L104.8938 395.4306 L102.3832 396.8438 L100.9949 394.7941 L97.8491 396.6511 L98.7506 398.7183 L87.8717 404.2774 L86.5822 407.1738 L85.2889 410.0642 L88.0809 409.5854 L91.569 410.6131 L91.1772 412.5459 L83.6305 412.5985 L84.0109 413.4276 L84.551 417.5501 L83.2121 420.347 L84.2543 421.5674 L85.8747 425.0533 L82.9914 425.4678 L82.4094 426.3962 L81.9834 430.1215 L81.8579 431.4936 L83.6875 431.6688 L87.0577 430.3609 L88.157 435.4932 L82.8317 436.7777 L83.1398 440.1642 L83.4517 442.0617 L84.182 440.2284 L84.8857 440.4269 L87.7766 447.4332 L84.7336 448.379 L85.2661 451.9405 L85.2661 452.1098 L83.7826 452.6061 L83.6 450.2182 L80.5494 450.5568 L79.3131 450.5159 L80.0092 451.178 L80.344 451.4968 L80.9153 453.2857 L82.7252 458.9524 L87.963 467.6922 L90.1084 466.7814 L93.5052 468.5212 L88.5184 471.7321 L89.6709 475.1707 L97.1074 480.2263 L100.759 482.4505 L99.6863 483.1219 L100.5156 483.5247 L102.4441 486.9923 L106.2897 487.5527 L102.2805 491.5107 L105.3502 497.0447 L108.3172 498.3289 L111.6455 502.6778 L113.3572 503.9912 L113.7376 503.8453 L114.0495 506.9157 L116.366 510.3014 L118.2603 508.8771 L119.3254 510.7625 L121.2425 512.0 L119.1618 508.3576 L121.9158 510.8909 L125.2327 507.8731 L124.704 506.6356 L132.5322 502.0007 L134.8754 500.0276 L139.6035 498.5216 L137.5342 498.1772 L135.8263 498.0779 L133.7608 498.0079 L132.6349 500.6581 L131.0868 501.6096 L125.6473 492.9175 L119.0629 493.6881 L123.7835 484.9433 L125.4495 485.4978 L124.6545 477.5584 L128.3138 475.2758 L131.1324 474.6569 L130.3869 473.0573 L128.8121 473.6995 L126.8607 470.401 L124.7763 471.5278 L123.3841 468.743 L125.1452 467.7564 L126.9102 466.7639 L122.9694 465.3511 L121.0371 463.1034 L121.8321 462.718 L120.1242 457.7438 L129.8239 456.5879 L132.0758 451.5844 L126.6173 451.5143 L124.8637 447.7718 L130.9498 447.1004 L130.0255 444.1578 L130.2842 442.0851 L128.291 438.0097 L129.0517 437.0813 L125.8718 437.6827 L122.57 434.3663 L126.4956 431.8147 L130.7596 434.2437 L132.091 438.7395 L130.0369 435.7793 L131.8019 440.6488 L140.3643 459.2268 L147.9338 468.5095 L148.4473 470.6754 L146.5873 468.889 L140.2007 459.4428 L139.7785 459.2793 L140.4403 460.1609 L142.1673 462.9924 L148.143 471.7613 L151.5855 472.7829 L152.3462 475.2115 L154.8187 473.5536 L156.0854 475.8654 L157.3825 474.9138 L166.679 476.4784 L170.7947 481.715 L159.33 487.074 L160.4293 489.8995 L154.6476 493.6998 L155.2219 493.6998 L156.3821 495.597 L156.6522 493.1802 L157.8618 492.8066 L158.3601 493.9449 L160.0566 492.4038 L159.8702 492.0652 L165.1727 490.7109 L165.7623 493.3203 L160.4141 497.0505 L163.324 498.5391 L163.111 500.8916 L164.2065 501.8839 L165.5607 498.3756 L175.9755 495.3109 L178.4936 494.4703 L177.9307 493.5188 L181.8372 491.6566 L185.7437 489.7827 L182.3203 489.987 L172.4532 476.7353 L170.5018 476.9162 L164.0544 461.1709 L168.5923 458.3861 L170.46 460.0792 L172.0157 457.6504 L173.2672 461.5387 L175.4468 463.1559 L174.5795 464.1659 L177.9991 466.0166 L178.9425 466.5829 L180.0456 465.8823 L174.9256 462.1167 L174.511 460.7155 L178.2844 460.7155 L180.3042 463.0158 L183.3473 464.884 L186.5159 463.7572 L181.7307 460.4061 L182.2061 460.1317 L186.2914 458.351 L182.1301 447.9295 L189.8061 446.4407 L190.9131 443.9417 L191.263 451.0239 L189.2888 451.4384 L190.1561 452.2208 L190.7305 455.2626 L194.4088 455.5953 L198.5625 458.1584 L201.035 460.3652 L201.3013 458.6021 L199.251 456.1383 L201.2252 455.5078 L207.8818 460.9491 L209.2474 459.8807 L209.8522 461.8248 L208.0036 462.467 L208.0378 461.2118 L206.4554 462.6947 L204.7437 463.1734 L207.026 466.507 L207.4102 472.6954 L210.7347 475.2407 L214.5385 476.1806 L210.9287 471.7555 L212.1992 471.8547 L213.4734 471.9539 L212.0052 469.0875 L211.5677 465.2168 L213.0512 464.849 L216.7295 463.2668 L216.5165 461.6555 L217.593 464.8548 L218.0494 463.3719 L220.7007 458.9524 L222.3972 459.6063 L223.3063 462.8348 L224.1241 461.3402 L227.9774 458.0358 L227.5513 459.256 L229.5065 459.2735 L239.3583 459.1742 L248.2478 453.7738 L248.8641 452.4193 L247.0306 452.5419 L245.4368 442.6164 L246.9736 442.6164 L246.5628 440.5729 L243.7555 440.5729 L241.4542 431.0557 L245.3493 428.5041 L249.1341 427.5815 L247.3273 425.7773 L242.1739 427.188 L240.3854 414.6656 L244.2082 413.6145 L244.7826 411.9912 L246.015 411.0627 L247.3844 409.1883 L247.9017 408.9898 L248.031 408.1898 L242.4851 406.8234 L237.7874 408.8146 L237.3575 406.9694 L234.7748 406.7066 L232.5267 401.5972 L229.6929 401.7899 L228.5707 399.1796 L234.0596 398.0935 L230.6552 394.035 L227.9888 390.21 L225.4288 391.3954 L227.616 394.6481 L225.2424 395.3664 L222.4048 390.4436 L224.9001 387.3719 L226.1325 387.6464 L225.25 386.747 L226.9009 385.3689 L224.7707 386.0346 L223.2074 382.5716 L227.3763 379.7392 L227.3763 377.853 L201.3203 360.4436 L198.1403 356.1743 L197.661 354.8193 L197.1361 354.3346 L203.6558 356.9569 L203.8916 359.2054 L207.8476 359.7019 L210.7347 363.6791 L225.3071 372.2582 L232.4164 379.9436 L232.58 380.4284 L243.8735 388.8961 L248.6739 392.1429 L251.0018 383.2957 L250.7774 377.7128 L252.2837 376.1535 L251.1882 374.5417 L252.006 372.5678 L254.3682 372.7138 L253.3449 369.3849 L245.8476 360.7181 L246.597 355.8764 L244.6761 347.9509 L240.7277 341.2985 L240.5033 332.4731 L241.2869 327.9989 L244.3413 319.8332 L249.2749 314.0446 L250.5149 310.2594 L250.5834 313.034 L245.9656 318.075 L245.2466 319.36 L246.3916 319.5411 L245.1591 322.2572 L243.8621 321.936 L241.0548 332.2862 L241.3706 337.502 L244.4935 343.1032 L245.6651 349.1833 L251.774 355.1172 L261.0857 353.9725 L263.0827 353.5111 L264.0412 355.6662 L267.7538 353.8381 L269.397 355.8239 L266.0116 356.5656 L264.7488 358.7148 L255.2354 365.7757 L257.6166 369.9514 L256.6657 373.4262 L263.0827 376.2645 L264.9808 374.0394 L271.6831 373.8584 L270.367 375.9783 L269.0509 378.0924 L263.9652 378.5362 L262.3828 381.5963 L263.1321 378.8516 L260.0815 378.8224 L259.6935 381.0182 L257.8068 381.8883 L255.768 380.1247 L254.5622 382.2212 L253.9954 383.9323 L255.5664 383.9323 L254.9083 388.3121 L253.0863 388.3121 L252.7554 392.6218 L252.6488 394.0058 L254.3872 393.9123 L256.1293 393.8189 L255.6729 390.356 L256.7608 391.8159 L257.2362 393.2758 L256.833 388.1661 L257.0689 385.6842 L258.0312 385.6842 L258.3241 393.7138 L262.436 403.1738 L262.9419 406.3154 L264.1059 406.0526 L263.8587 403.7869 L264.2238 403.7869 L264.4673 406.1227 L266.217 406.1227 L265.9622 403.5008 L268.0771 403.5008 L268.0771 405.8307 L269.7888 405.8307 L269.7888 410.0642 L272.3031 418.2391 L273.5964 421.8068 L275.3005 421.2054 L273.7714 416.0553 L274.8288 416.0553 L276.5938 421.1587 L276.8601 425.3569 L275.4945 425.8299 L276.5558 429.9405 L277.4116 434.1269 L277.967 435.1662 L278.7544 437.7995 L280.0248 437.7469 L280.3824 437.7294 L284.4182 436.7193 L281.1508 420.9718 L282.4365 421.1587 L283.726 428.2997 L284.7986 424.2884 L287.8949 425.0416 L288.2487 428.3114 L286.8983 428.3114 L288.6519 436.4858 L289.7778 435.464 L291.0977 437.1455 L291.8433 436.696 L290.938 433.362 L290.0897 428.58 L293.2583 428.7493 L293.962 432.4336 L295.2363 431.3593 L298.5646 428.8136 L298.9069 430.8805 L300.2573 429.958 L304.2399 428.0195 L302.6423 409.9183 L304.0687 413.1123 L304.9702 412.8379 L305.2061 415.121 L306.5146 415.3546 L308.31 414.5254 L307.9144 412.2598 L315.6741 418.3909 L314.3618 415.4013 L320.6647 416.7793 L322.7949 420.2711 L323.78 420.639 L324.7957 419.623 L322.8519 419.2084 L321.9276 417.3983 L320.9652 413.5269 L321.8325 411.5065 L323.8561 407.9679 L319.4285 405.7723 L320.8435 400.5928 L320.5886 399.2497 L324.2061 395.3839 L329.4743 395.9854 L326.8535 398.5373 L326.8459 402.2628 L332.3614 399.9037 L331.5512 402.076 L333.9058 400.2482 L340.7488 395.962 L332.7038 398.0117 L333.1716 395.4248 L333.5482 393.8598 L328.2685 393.2758 L324.7538 391.4305 L323.1866 388.5515 L322.7264 388.3354 L321.1668 387.9559 L323.1258 386.2799 L322.6922 384.0899 L328.7098 380.1948 L325.6934 377.0762 L327.4165 375.4235 L326.0091 373.7124 L330.4785 365.3143 L328.493 360.794 L329.4059 359.7369 L332.9624 358.0899 L336.3897 359.7019 L334.7959 356.7758 L333.0271 357.319 L329.2119 359.3982 L321.2467 366.8211 L315.0427 369.7762 L318.7628 363.755 L325.1266 360.3618 L327.6599 357.5176 L327.7664 359.7252 L328.55 357.1146 L326.0623 354.6324 L328.0137 352.7869 L326.2069 350.9821 L324.2365 353.5636 L321.6994 353.0789 L323.7078 351.4961 L321.8972 349.3585 L317.9602 348.0619 L317.8651 347.1332 L317.7054 344.2071 L316.9712 344.8087 L316.4501 338.1795 L321.5206 340.1712 L321.3722 343.3485 L323.0497 343.3485 L322.4715 341.6314 L322.6952 339.9055 L322.8401 337.2654 L323.3274 334.1435 L324.7869 330.2956 L324.3928 327.9867 L321.3703 322.089 L319.8515 319.2771 L318.5958 317.0867 L317.1667 314.5796 L313.9704 308.708 L314.2949 304.4321 L311.6992 297.6185 L311.6155 294.2771 L309.0631 293.6054 L306.4157 279.9648 L307.5188 273.1238 L307.2563 269.9983 L309.8733 261.1824 L310.8775 264.1327 L313.5896 265.2544 L322.1862 264.6352 L321.2353 266.7559 L308.3442 268.5728 L307.0547 277.6397 L311.9616 288.2894 L312.7985 296.4444 L314.5786 297.2096 L313.7038 298.9621 L314.7947 303.1452 L314.6829 306.41 L314.4946 308.6764 L316.142 310.9662 L319.1432 313.8576 L320.3695 317.2146 L320.4289 319.2006 L321.9949 322.1018 L324.9071 327.5398 L325.5313 329.9282 L327.1057 329.9708 L326.1612 331.0374 L325.0924 332.4135 L323.7496 335.7848 L323.3719 339.1111 L323.7116 340.8394 L324.4077 341.5087 L327.0323 342.268 L327.5877 344.1195 L331.4751 346.701 L329.0331 343.6464 L335.4121 347.2734 L333.8982 349.1716 L341.3308 353.6863 L340.9923 351.6655 L336.0321 350.1937 L337.8119 349.7831 L339.1117 349.2645 L345.8821 352.8312 L344.2788 358.2126 L347.725 352.9329 L353.6628 356.3845 L348.8852 357.0679 L348.8928 358.6786 L351.9427 358.0087 L352.2668 359.8595 L352.5178 361.3955 L350.3496 362.0321 L351.2778 363.4805 L352.2059 364.9289 L351.9739 363.3579 L355.6445 367.2416 L358.0143 368.6432 L356.4738 366.4882 L356.8922 366.0911 L360.4183 367.5978 L360.4868 363.2002 L363.2141 363.2002 L362.9821 364.6077 L364.4846 362.7972 L365.6486 360.1632 L366.0898 359.0244 L362.6359 360.5721 L360.5476 359.953 L360.1292 357.2664 L361.9436 355.6428 L366.455 355.9056 L366.5843 359.2872 L365.2644 362.3241 L366.4207 363.0542 L368.6688 360.5721 L371.2554 365.9801 L373.1306 366.2663 L367.0674 371.8436 L366.2686 373.4379 L365.3785 374.419 L360.715 376.6324 L358.1589 376.0992 L358.7104 377.4792 L362.0311 377.3741 L364.9863 376.4584 L365.2754 377.0973 L368.6083 376.393 L370.6353 374.0044 L371.1454 374.1446 L371.188 378.5555 L377.2197 374.4132 L375.0329 371.6182 L375.7321 370.7363 L376.322 371.3676 L378.238 372.1023 L381.2175 369.9164 L382.2598 372.5502 L383.9296 372.9182 L383.69 375.6104 L385.1469 376.463 L386.5999 377.3215 L383.4275 380.5159 L380.9893 379.5465 L381.4648 381.8358 L383.6938 384.2534 L388.4828 384.9133 L392.5072 385.4623 L396.098 383.6987 L394.3711 379.2604 L390.2668 377.2923 L389.2664 374.3898 L390.2706 373.9577 L391.309 373.8584 L391.5411 375.4644 L392.1991 374.5475 L396.4898 373.9343 L396.0486 370.5705 L388.7186 368.7483 L388.285 367.2883 L392.4616 366.8503 L394.1771 365.84 L391.5715 365.8283 L391.2786 362.6162 L393.7853 362.6162 L394.4434 360.6129 L395.1014 358.6097 L388.0872 359.4449 L386.9194 358.1717 L387.3455 357.4708 L388.4752 356.7758 L386.5657 353.8089 L388.4904 351.2391 L398.2129 349.7089 L400.2594 354.7376 L398.019 354.7376 L398.1559 359.1937 L402.7052 359.4566 L403.1046 361.2203 L400.2822 362.1022 L399.898 363.7842 L395.1128 363.0367 L395.0025 364.9172 L397.3191 365.5363 L399.5937 367.7146 L398.9014 365.9801 L401.7543 369.6302 L406.0412 371.5107 L404.6148 372.1298 L405.3375 372.5502 L406.0602 372.9707 L400.0236 373.4262 L400.3241 376.2119 L403.4888 376.9244 L406.3455 375.7272 L407.5133 378.3902 L401.4005 379.0735 L404.7859 381.5379 L404.5273 385.3338 L406.1477 384.4462 L408.8332 381.1992 L412.1463 386.9281 L426.1253 388.1719 L424.9081 383.8213 L420.9369 368.4271 L421.2298 364.6836 L421.5569 362.6804 L421.3211 360.0231 L419.2784 359.6318 L418.5063 351.5136 L419.4686 348.1612 L415.7447 343.0098 L415.3225 340.4224 L413.5727 340.4224 L411.6138 332.9286 L405.7825 326.8424 L407.7111 324.6053 L411.8154 327.2805 L415.0904 335.9425 L419.3279 337.8875 L422.8768 336.3338 L429.3357 336.7077 L424.5962 339.1082 L425.0032 340.6385 L423.7897 341.8183 L429.2558 342.5484 L426.1139 344.3823 L427.1713 345.6497 L424.7749 348.4065 L426.791 349.9367 L441.1503 346.3857 L442.0062 345.9768 L443.0256 348.424 L441.6182 351.1457 L435.243 353.2716 L435.8668 351.8115 L434.4024 352.3897 L431.9223 353.5111 L433.421 350.9237 L428.6092 350.9004 L423.4284 351.2625 L424.2804 354.5039 L423.3675 359.258 L431.4848 362.2073 L432.5119 364.2397 L433.5351 366.2663 L430.1801 366.5583 L428.2288 369.9864 L428.7727 371.5983 L432.4967 371.4698 L427.4566 375.6338 L429.9405 381.3043 L431.0702 383.3249 L429.7389 383.7045 L430.8344 385.6842 L430.3627 392.686 L430.7849 393.9999 L432.413 393.2758 L430.88 393.3167 L430.88 392.6918 L435.5968 394.362 L439.8342 393.6203 L445.2851 394.1518 L446.4757 393.5911 L444.5737 393.1999 L445.7415 390.4261 L450.0893 390.0056 L449.9295 387.15 L447.0348 387.4536 L440.3287 387.7281 L439.4881 385.8302 L440.9601 383.9323 L443.794 384.8374 L447.3315 383.5176 L452.5237 380.5101 L445.5818 381.9526 L445.3345 378.3201 L442.1964 374.495 L453.5127 371.8436 L451.8466 371.026 L445.1557 372.5444 L441.8198 373.3854 L440.595 373.4262 L442.1774 363.7959 L439.4881 354.8777 L447.3315 349.2826 L450.1311 348.3072 L450.3099 353.5636 L457.5561 354.0425 L463.5928 353.4819 L461.8811 358.7324 L462.0408 364.9639 L453.6268 361.9737 L450.6598 356.0925 L450.7625 359.8829 L452.5199 365.0982 L456.7688 370.6289 L456.3656 377.6894 L457.3469 377.4325 L455.9471 381.7014 L457.3165 385.3922 L456.3922 385.3922 L456.2933 388.096 L456.9361 396.4584 L458.7011 398.9227 L456.6508 400.3884 L458.9331 401.0658 L461.4056 399.3431 L465.2018 401.6789 L470.4511 399.5942 L475.1259 401.3636 L481.3185 399.0161 L489.588 399.3022 L492.3229 398.1694 L491.779 396.8964 L495.1302 394.9109 L494.6813 393.5444 L493.4451 391.8685 L491.6991 395.0277 L488.3822 394.2685 L487.9219 391.9327 L491.6991 389.7019 L497.6331 391.4655 L499.8925 381.4328 L500.1322 379.2078 L501.8249 379.4122 L500.0865 363.5155 L497.4467 360.975 L498.74 356.3145 L495.9137 352.0393 L497.7282 351.3735 L499.9382 345.1591 L501.6309 344.7678 L501.414 342.8696 L497.789 343.6172 L494.8601 339.1082 L496.3207 337.5954 L495.0693 336.1411 L479.3862 340.6501 L478.6483 335.0255 L476.3013 331.8072 L477.199 325.9721 L479.4356 325.9079 L480.3371 322.7011 L485.6625 317.9348 L482.9694 313.0515 L485.6435 309.5701 L479.9948 310.6333 L479.021 308.6764 L481.2729 306.7312 L479.8541 305.7616 L478.4124 307.2219 L477.3816 305.4228 L480.942 303.5769 L479.7666 301.065 L480.7365 297.6185 L485.4647 296.0355 L484.9968 294.797 L483.9432 292.2968 L482.8324 291.5024 L483.7644 286.9516 L482.2314 285.8534 L482.6499 281.2091 L479.39 279.8187 L479.759 277.3184 L475.2895 280.8294 L479.0933 273.6846 L482.9047 272.3293 L482.7183 271.044 L475.3237 268.9175 L474.9091 269.6361 L471.2422 274.0235 L470.7516 274.2981 L469.1045 276.8978 L472.3415 277.0672 L471.7025 280.251 L469.7055 280.3445 L464.7948 277.2249 L470.995 268.2223 L472.7524 261.9419 L471.6416 258.2612 L470.0364 257.2972 L472.7752 256.9233 L478.0777 256.6954 L473.3191 252.7226 L474.1103 251.075 L474.8825 247.8207 L476.8491 250.7537 L478.9982 249.6611 L475.6889 246.3717 L474.5287 246.3659 L471.7634 245.5362 L473.4751 247.7623 L470.7858 250.2161 L466.845 247.0261 L466.2783 245.2908 L463.2276 246.0796 L461.3638 242.6324 L462.5125 233.5235 L468.6328 234.4759 L474.9776 238.3556 L475.765 240.9731 L478.2451 242.0657 L482.5662 243.0297 L482.2352 238.4783 L477.8685 233.4651 L478.2603 230.6372 L476.9556 230.012 L475.9552 229.1238 L476.9289 227.3125 L476.3964 222.6848 L481.0485 218.3317 L483.9279 220.8501 L486.4004 215.7139 L482.5624 204.67 L474.6048 205.3887 L472.1285 197.6461 L468.5263 196.6001 L470.1544 194.0405 L471.0102 194.1983 L470.5728 192.6439 L468.5111 191.0486 L464.0287 192.5615 L463.3452 193.7449 L462.487 194.8084 L462.0496 193.888 L461.1515 193.143 L458.2294 192.1939 L456.5481 187.0573 L454.569 188.6053 L453.3366 187.45 L441.5307 188.565 L434.2883 187.6475 L433.5123 185.6314 L432.971 184.8278 L429.5898 185.0318 L427.419 186.0217 L425.8818 186.8878 L424.1287 187.7398 L422.6631 188.4872 L421.4618 189.2545 L417.8341 194.1568 L416.7333 195.2706 L416.9037 195.7913 L416.7398 196.3552 L416.3757 196.5673 L415.9897 197.3095 L415.9402 197.7507 L415.5994 198.1141 L416.068 200.1121 L423.6186 203.8811 L422.6942 206.9314 L414.8052 205.0323 L402.8692 207.2756 L400.8923 209.0894 L399.5937 210.1745 L398.5279 212.1226 L397.2163 215.1121 L394.9074 217.4324 L393.2414 220.5754 L389.9853 224.7007 L386.9575 225.9277 L385.6033 224.9286 L385.9381 221.5103 L390.3432 219.4693 L389.0869 216.4432 L387.9103 215.732 L388.7768 215.1921 L387.3983 212.8174 L387.7068 211.6937 L387.4341 210.7389 L388.6623 211.9094 L390.3954 210.5438 L391.4646 210.2189 L393.9649 209.6942 L393.9534 207.5824 L391.5201 207.6051 L390.8682 207.4772 L388.8137 206.2127 L380.1068 203.2267 L374.4582 199.0894 L371.727 192.0362 L379.909 190.9901 L375.2684 187.069 L376.5503 187.069 L375.1695 182.1835 L379.1026 178.5894 L383.4998 181.9673 L382.7467 182.8322 L383.7014 184.8191 L383.4846 187.5423 L380.2552 192.118 L383.0434 195.256 L380.647 197.2896 L381.3164 199.031 L387.1439 194.0756 L391.8872 196.2319 L391.2451 198.7271 L391.0584 199.9741 L391.0203 200.6964 L393.8043 196.8046 L396.1018 195.5833 L396.5697 195.5365 L397.4484 196.1793 L396.7964 198.0493 L397.6903 199.9882 L398.4069 201.1522 L400.7554 205.3268 L408.6392 202.8135 L409.2402 200.0653 L410.1607 198.1837 L409.2174 197.611 L405.463 194.6658 L404.417 192.977 L407.4866 190.7096 L405.4326 186.0346 L405.4288 180.2024 L415.2806 158.614 L414.7367 155.5048 L407.3607 152.9636 L404.9598 151.7362 L403.6155 148.9133 L404.242 143.9909 L404.9951 141.4777 L403.8654 142.9389 L402.9221 142.7109 L405.7673 138.8709 L404.6338 135.744 L397.6234 132.804 L396.0372 129.7763 L396.4708 127.2045 L393.1729 124.8197 L393.1843 120.582 L389.9891 120.7749 L387.7182 114.0938 L384.5763 110.2417 L383.4466 109.0258 L382.9635 110.3528 L382.9521 108.9674 L375.877 108.8329 L377.7371 105.7816 L369.8289 107.0793 L372.3965 104.3962 L380.6888 103.1979 L381.9022 104.9399 L382.6249 103.8234 L382.1647 99.2872 L388.4296 89.0105 L390.5597 87.6367 L390.1793 85.9122 L390.1793 87.6367 L386.2462 89.7646 L383.6177 90.1153 L384.466 88.765 L385.3142 87.4087 L383.6177 88.5779 L375.6792 87.9933 L376.128 86.0116 L373.4692 85.6023 L374.2718 82.8197 L379.5286 83.5855 L379.3346 81.709 L375.1543 81.4634 L373.5719 82.1474 L367.6417 78.5755 L366.5881 77.0614 L367.4516 76.3248 L365.5497 74.606 L367.3983 73.9162 L368.5128 75.5589 L369.0986 75.5297 L367.7178 73.6707 L366.5919 72.7937 L362.5713 70.9347 L358.0603 55.5868 L358.5301 53.4149 L358.6256 50.643 L357.8625 45.4974 L357.6507 43.9141 L357.5111 42.9932 L355.3402 41.4462 L355.0154 40.644 L353.7704 39.5226 L351.6213 38.0655 L350.1792 35.6958 L349.2579 32.5928 L346.911 32.9086 L339.4099 38.3053 L342.6317 32.8092 L341.8329 29.6401 L339.0257 26.8452 L339.7789 26.278 L338.7785 25.0852 L334.8225 12.8528 L334.0199 9.5373 L333.1108 6.0932 L332.1712 0.0 L324.6777 2.4677 L322.4719 1.8724 L315.1564 3.2723 L311.1202 3.4442 L303.9698 2.2712 L299.9891 2.5601 L296.9579 3.8249 L294.9434 6.0873 L293.1708 7.6252 L292.6307 8.0287 L290.8216 8.2655 L288.8425 7.4977 L287.7481 7.6047 L285.9352 8.5801 L284.2923 10.4688 L284.6389 14.6187 L279.2641 13.1335 L279.5227 11.4904 L272.5838 10.2109 L269.0942 8.6316 L266.0021 8.8064 L263.8861 9.7209 L262.0519 11.426 L259.5185 15.2853 L260.5113 23.3194 L261.1047 26.0208 L262.3371 26.0208 L262.1812 28.4415 L260.8422 31.1252 L260.7167 31.4761 L262.9686 33.9727 L261.5764 38.4631 L261.2683 40.0242 L262.8392 39.802 L262.3295 53.7931 L259.8723 56.3539 L267.3277 60.8147 L263.5125 62.1419 L254.8322 73.7642 L253.8166 72.5014 L254.1932 74.7931 L254.1323 88.5779 L251.5305 90.9221 L254.3149 92.7225 L253.014 99.977 L251.4925 97.2237 L251.6941 95.3122 L250.9219 96.3878 L252.0516 101.1812 L258.948 106.4772 L258.2823 107.8509 L260.1576 110.1482 L256.8787 110.8788 L252.9265 105.6296 L252.7858 107.5703 L256.3385 111.0016 L251.637 113.1644 L250.572 112.837 L250.1878 111.2822 L250.1041 116.5897 L249.0581 112.837 L249.6552 102.8998 L251.1121 101.8768 L250.7507 98.3753 L250.5682 91.5008 L246.0683 91.8574 L245.7982 82.9658 L246.4905 82.2293 L248.2973 81.8259 L250.4845 85.2808 L250.3437 80.6333 L251.9071 78.6807 L251.4468 77.6869 L250.3894 77.6401 L251.3403 78.4352 L250.7622 79.5226 L249.4841 77.8389 L247.9397 81.4927 L245.7944 81.9077 L245.045 83.0886 L239.248 85.655 L238.2172 81.8551 L239.0578 81.8551 L235.7447 80.0955 L228.5403 79.5869 L226.6156 76.962 L237.8368 70.7768 L236.65 73.4719 L238.5557 72.0279 L240.0354 71.2328 L239.0731 71.0808 L237.6542 70.163 L240.8951 66.1174 L251.831 61.5221 L253.3373 59.1485 L256.776 60.7913 L257.3884 57.0146 L255.9125 59.9612 L254.4861 58.4703 L249.1531 59.7039 L250.009 56.7164 L252.7744 56.1902 L254.041 46.5141 L253.0292 46.1224 L253.6188 32.7448 L255.7147 29.4413 L256.1522 25.3659 L249.0086 27.1902 L249.2597 30.6282 L242.7818 31.8678 L240.8342 30.3067 L241.0815 27.1902 L249.37 24.1672 L256.1902 21.9219 L257.2248 20.5712 L251.5115 23.3896 L244.2843 25.4945 L242.428 25.132 L229.4684 20.9922 L228.7533 20.197 L229.2783 21.191 L229.2783 21.6997 L226.2542 20.045 L225.3071 21.4074 L216.0524 16.9459 L215.6834 15.0631 L214.5385 15.9343 L214.0364 17.326 L212.9257 19.5889 L212.1535 18.513 L211.4955 19.01 L202.644 16.1565 L202.8418 18.1797 L197.6382 16.4606 L194.4392 13.3674 L192.6818 13.6539 L189.7225 15.3087 L194.656 18.5656 L192.7541 25.2197 L194.888 27.1902 L193.9219 29.7336 L194.8804 30.8446 L193.2448 34.4638 L195.0478 34.5223 L195.8656 39.726 L201.2518 38.5157 L202.3625 43.8071 L200.084 47.3326 L198.5435 47.1105 L196.7063 48.1746 L198.2772 48.5897 L194.0246 50.8757 L191.5711 48.3617 L180.5971 41.5795 L180.9699 43.2107 L179.9429 43.6024 L181.8942 44.4853 L184.1004 46.3387 L185.1883 53.7288 L190.0952 57.0496 L189.5399 58.6983 L191.7347 60.4873 L194.3289 59.1193 L191.632 65.0475 L187.7787 61.8086 L184.6786 63.0539 L185.3138 65.1176 L181.3008 66.129 L180.3879 62.3757 L184.9981 53.0623 L180.9243 59.9319 L180.5895 59.9319 L180.5895 58.6633 L179.6157 60.0664 L181.046 60.5575 L180.308 61.4637 L179.3837 62.7031 L167.1316 71.0925 L159.4974 69.4088 L160.1973 59.4174 L167.5615 56.8742 L170.924 58.4703 L173.3775 57.5057 L174.6061 54.2667 L168.132 53.53 L164.2788 53.495 L158.8127 56.4474 L153.3969 63.4187 L153.5114 63.5906 L148.8464 69.7865 L143.9893 73.9688 L141.7526 75.6583 L140.6914 77.6928 L142.1711 78.6632 L141.3494 82.1825 L142.9318 89.9867 L139.7937 89.4606 L138.9835 90.3316 L138.7438 88.4727 L137.6293 89.1625 L136.8077 83.0535 L138.5574 81.9837 L138.9416 80.8379 L138.0934 81.8551 L137.0359 81.1244 L135.9176 79.5752 L137.3859 77.2251 L136.4349 76.8743 L135.484 76.5235 L133.0191 77.7629 L135.1568 77.7629 L132.8708 80.9431 L135.5106 80.9899 L130.6455 84.6553 L128.6295 86.3448 L125.5294 83.9655 L129.4017 83.5387 L132.6615 78.5872 L127.1993 82.3286 L127.5835 79.8207 L131.4824 77.1783 L132.8517 77.1783 L132.8517 74.986 L132.6615 72.7937 L132.0415 74.5417 L124.7686 76.0442 L126.5146 74.3663 L126.483 74.3126 L116.3497 74.8498 L115.8339 74.9059 L114.8715 75.1538 L114.7327 75.1287 L114.6311 75.1111 L114.2435 74.9574 L114.1362 74.9626 L113.8627 75.3526 L113.5866 75.2608 L113.3911 75.1304 L113.3466 75.0439 L108.4313 77.1783 L106.1794 79.0373 L95.9662 75.7226 L93.1019 75.1322 L91.569 74.0916 L91.1848 76.0792 L90.8356 77.8851 L91.0213 78.4253 L91.2248 78.8596 L91.9445 80.2042 L92.1852 80.3545 L92.2628 80.5392 L92.7482 76.8042 L98.3775 77.8383 L103.6309 78.8035 L104.9698 86.4617 L108.7927 91.3546 L109.0627 92.7459 L109.3328 94.1314 L110.0289 93.2604 L114.9929 93.1844 L115.7232 91.5885 L118.9793 95.622 L118.0777 97.6154 L116.6437 96.7152 L112.6345 99.0183 L111.4743 99.977 L115.2287 99.2463 L116.2291 99.4012 L116.3942 99.3925 L116.8529 99.4053 L117.0602 99.4872 L117.0998 99.5363 L119.9416 99.977 L123.6275 100.4914 L128.5725 96.9841 L140.1372 98.1193 L140.343 97.9913 L140.5788 97.3915 L141.1128 97.3167 L141.1676 97.3254 L143.4872 95.3005 L143.3331 97.6265 L143.5073 97.7077 L143.5739 97.8165 L143.5188 98.1643 L143.421 98.3449 L143.3327 98.6384 L143.2513 98.8582 L143.1144 100.924 L142.8976 102.3445 L144.5484 103.3441 L127.3362 108.8096 L122.4864 108.4413 L111.2651 109.8968 L109.0171 108.605 L108.0851 107.5353 L107.3206 109.1428 L106.5522 110.7502 L103.6423 100.2751 L99.595 106.6351 L95.7874 105.6472 L94.0073 105.6764 L90.7246 103.3908 L92.6219 100.5218 L93.2008 99.6614 L93.3161 99.6625 L93.4656 99.5193 L94.2777 99.4796 L94.7844 99.3135 L95.2458 99.0569 L95.3219 98.9634 L95.6243 97.4377 L95.5672 96.9502 L95.571 96.8964 L88.7124 99.6438 L89.3438 96.7619 L92.1928 96.7619 L91.9456 95.2654 L95.3614 95.4466 L94.6235 94.0437 L94.6235 93.8391 L97.0959 93.8391 L96.902 92.5881 L95.7836 88.8936 L94.2241 89.7061 L93.0411 90.6648 L90.2491 92.1087 L89.6215 92.4712 L89.4427 85.0704 L88.2255 86.4032 L81.7095 91.2611 L80.9416 90.5304 L80.6182 90.3626 L80.3257 90.0873 L79.9385 89.6886 L79.8639 89.505 L79.5224 89.18 L79.4273 90.5538 L81.0857 92.5121 L81.2607 95.359 L82.6377 99.0768 L84.3418 98.1064 L83.117 97.9486 L84.6385 95.2947 L88.9596 94.5932 L89.4883 95.9318 L88.4461 97.6388 L84.745 99.1645 L85.2813 100.7603 L84.1288 101.5904 L83.8739 101.7307 L83.2539 99.7724 L79.7848 100.6493 L75.787 99.6847 L74.4937 98.3812 L75.9772 95.9085 L75.4675 92.9856 L74.4146 93.1592 L74.4348 93.1844 L74.4751 93.2224 L75.2431 93.6228 L75.129 95.1544 L70.3742 94.1664 L65.7754 95.9435 L62.8959 100.2401 L62.2797 98.954 L62.5117 101.0643 L62.6791 103.3441 L61.9552 103.5767 L62.0024 104.0373 L61.9613 104.0373 L62.336 104.3694 L62.5197 104.4611 L62.6335 104.9656 L62.7263 105.5782 L62.9256 105.9354 L63.4756 106.2668 L64.4056 106.6105 L65.0493 106.7882 L65.0694 107.0448 L65.031 107.0273 L64.953 107.1606 L64.8842 107.3938 L64.713 107.6037 L64.4056 107.8784 L63.3965 109.3035 L63.4022 109.3438 L63.5951 109.6665 L63.3889 109.9132 L63.1728 110.047 L62.8575 110.0646 L62.8274 110.1072 L57.4519 110.4147 L56.7916 110.5784 L56.6999 110.458 L56.3952 110.4755 L56.488 110.154 L56.3914 109.9757 L56.4047 109.7051 L56.6063 109.1813 L56.7535 108.7564 L56.8688 108.3297 L56.8642 107.7971 L57.1206 107.3576 L57.3378 107.2173 L57.5508 106.4802 L57.4641 106.2276 L57.4504 105.3502 L57.7163 104.2314 L57.8289 103.6018 L58.0232 103.3581 L58.2496 103.2383 L58.927 103.4382 L59.2089 103.3604 L59.0198 102.9173 L60.549 98.5624 L58.7387 97.4488 L58.6668 97.471 L58.5535 97.3348 L58.202 97.1185 L49.5788 103.2447 L47.9089 104.1332 L45.7331 102.818 L45.2767 104.0923 L41.005 106.5649 L44.6567 109.7273 L48.1942 116.3734 L47.0759 116.8995 L52.5914 124.2995 L70.4959 118.6823 L70.4693 121.0321 L72.6108 122.4817 L76.9129 124.2352 L82.7632 122.9843 L83.7826 124.2001 L75.612 129.0457 L79.336 129.2035 L80.1728 131.4889 L77.6623 134.5925 L77.7874 134.6796 L90.8197 143.763 L88.8607 144.4819 L89.6747 145.5222 L93.1286 146.0307 L93.6953 146.2593 L93.7984 146.247 L94.1362 146.4369 L96.0324 147.2014 L96.2272 147.2482 L96.7977 147.2581 L96.1032 144.9202 L99.9336 146.2178 L99.538 147.4101 L99.3143 148.088 L99.4174 148.1517 L99.7267 148.0202 L99.7845 147.9618 L99.7628 147.6585 L99.8914 147.3838 L100.3737 147.2464 L100.9758 147.1997 L101.3783 147.3329 L101.713 147.3317 L101.9899 147.3072 L103.0668 147.1219 L103.4818 146.932 L104.4776 146.3873 L106.8615 144.915 L107.1635 144.86 L107.5393 144.687 L107.8002 144.5748 L107.96 144.6555 L108.1491 144.7765 L108.2552 144.9045 L108.0505 145.455 L107.5233 145.7835 L107.3814 146.0763 L106.5031 147.3902 L105.6051 148.9063 L106.0106 149.0226 L106.3152 148.6614 L106.4731 148.5422 L106.6154 148.5457 L106.7492 148.6924 L107.0456 149.0144 L107.1768 149.2505 L107.3248 149.4002 L112.3226 150.835 L113.4968 151.8777 L113.776 151.7777 L113.8962 151.8794 L113.9613 151.9858 L113.9833 152.2365 L113.9989 152.3236 L114.7837 153.0209 L115.9172 146.8373 L117.4311 146.0658 L119.3178 148.5439 L119.158 144.2481 L119.8047 144.1487 L123.5552 144.1078 L122.0489 147.4802 L124.0611 147.79 L127.8764 145.8086 L128.2529 140.4198 L125.0539 139.2976 L126.2902 136.1999 L131.2884 137.1 L131.5242 138.5319 L130.3374 141.1153 L130.965 144.441 L132.1328 141.2264 L132.7566 140.3088 L131.6155 138.8008 L135.2291 140.8289 L141.4103 138.2689 L143.0041 140.8348 L148.2077 141.1679 L147.3252 143.7279 L139.478 144.9904 L140.8131 147.4627 L137.9336 148.9297 L133.4375 146.7964 L133.2397 147.1587 L133.1256 147.7958 L132.2507 147.1412 L131.5128 147.7607 L131.7589 147.6193 L131.7939 147.61 L131.9008 147.5211 L131.9586 147.5685 L132.1785 147.5281 L132.3318 147.683 L132.4641 147.9244 L132.63 148.1225 L132.7224 148.1991 L134.1907 147.9069 L136.743 149.8122 L119.0135 157.3282 L123.3803 163.4882 L119.9249 162.2562 L119.6963 162.1744 L119.9256 162.4245 L120.7244 162.9441 L120.8173 163.0481 L120.6312 163.0586 L120.4042 162.9891 L120.1717 162.9143 L119.8925 162.9704 L119.6598 162.8967 L118.8883 162.3748 L117.7605 161.6034 L117.223 161.2925 L114.2359 160.227 L112.2047 156.9063 L112.0103 156.7876 L111.9312 156.5416 L111.9239 156.4469 L111.7444 156.1535 L109.6698 155.8338 L109.58 155.9641 L109.421 156.0623 L109.2575 156.1044 L109.119 156.1167 L108.8067 156.06 L108.437 155.9799 L108.2263 155.8017 L107.8292 155.5503 L105.179 155.1424 L103.7412 154.9788 L102.9652 154.7917 L102.8435 153.465 L102.1128 154.2622 L102.1379 154.4153 L102.33 155.0162 L102.7522 155.5468 L103.0196 155.6924 L103.349 155.8484 L103.8085 156.0506 L104.141 156.0635 L104.454 156.036 L104.9139 156.0594 L105.4008 156.0325 L105.9417 156.1436 L106.249 156.1693 L106.5142 156.4358 L106.7454 156.8537 L106.976 157.0863 L107.2042 157.4095 L107.3655 157.7543 L107.2913 157.9875 L107.0395 158.1149 L106.7101 158.1979 L106.5754 158.5748 L106.1075 159.2896 L105.9752 159.6946 L105.7675 160.1902 L105.5651 160.4322 L105.3076 160.6794 L105.0417 161.1522 L104.7861 162.3819 L104.5662 162.6945 L104.2467 162.8278 L105.5366 163.6986 L104.5971 175.5213 L102.6952 175.6967 L99.3098 163.3596 L93.5888 163.1375 L89.5834 167.772 L85.5362 167.8129 L85.1984 168.239 L83.9523 169.9361 L83.5586 170.1617 L83.3463 170.105 L83.2238 170.0466 L83.0576 169.7509 L83.088 169.558 L83.0736 169.4896 L78.1682 168.6545 L76.9548 169.8146 L76.5185 170.3458 L76.3119 170.4288 L74.8056 171.8688 L73.132 168.3155 L73.132 164.8557 L74.0582 164.8557 L74.1384 164.6518 L73.9722 164.255 L73.7257 163.7804 L73.7413 163.2988 L73.8311 162.9546 L73.7976 162.8102 L73.5161 161.0569 L74.3423 161.3486 L74.3568 160.3433 L74.0829 158.1581 L74.0829 156.0892 L75.7376 156.9624 L75.7935 156.794 L76.388 157.2376 L76.8281 156.0541 L77.2656 155.6456 L74.1932 152.5942 L73.5276 150.5545 L77.5596 149.9057 L77.6357 147.527 L77.0955 146.2178 L77.6014 145.1891 L77.9773 144.8507 L77.9377 144.6572 L78.3786 144.4889 L78.638 144.2557 L78.6958 143.9991 L78.9845 143.6309 L79.5904 143.9418 L80.4326 144.7911 L81.9785 146.1114 L82.9173 146.915 L82.9043 147.0845 L82.9488 147.3452 L82.7449 147.6585 L82.5684 147.8695 L82.2805 148.3639 L81.662 149.2359 L81.2299 149.6462 L80.9804 149.6678 L80.6137 149.5182 L80.5939 149.4931 L80.3744 149.7187 L81.3178 150.9168 L82.9899 151.5492 L82.9682 151.4849 L82.5673 150.9291 L82.9884 151.0507 L83.136 151.1331 L82.9534 150.804 L82.9287 150.7917 L82.6426 150.7064 L82.3615 150.6199 L82.0036 150.5568 L81.624 150.4265 L81.7902 149.9899 L81.7594 149.7497 L82.0062 149.4434 L82.2299 149.1705 L82.7092 148.8163 L82.8845 148.4744 L83.1809 148.015 L83.3665 147.7304 L83.4962 147.4662 L83.8131 147.4223 L84.4506 147.4931 L84.926 147.8151 L85.4924 147.8554 L85.6997 148.1219 L85.7538 148.9823 L85.718 149.6608 L85.6845 149.7555 L85.6845 150.3791 L86.6583 148.8829 L80.0016 142.4187 L77.3846 144.1312 L76.3234 141.1329 L78.016 137.1 L74.7486 131.033 L72.5348 127.1577 L68.5332 124.7145 L49.2479 125.9244 L48.7876 127.6136 L49.8907 128.1806 L50.1684 131.6233 L48.9854 131.3544 L46.9009 145.1248 L45.4593 155.1132 L43.177 157.2172 L41.975 156.0775 L41.1077 157.9828 L40.8719 158.5088 L39.841 161.0336 L40.9898 162.5005 L42.6863 158.6491 L45.9804 159.9231 L45.0827 161.3901 L42.5151 160.5719 L42.1119 162.781 L43.0629 163.0849 L45.3642 165.7324 L45.5163 171.5766 L43.3177 172.3772 L48.4072 173.3357 L54.9384 175.1006 L58.6433 176.2694 L61.5303 173.3357 L61.7738 166.5623 L63.417 165.7324 L55.8246 165.7324 L55.0639 163.9849 L63.36 163.1025 L66.4297 168.5961 L69.5183 173.7681 L62.1352 180.9329 L61.0511 178.8524 L59.0845 181.9205 L57.1179 184.9885 L55.4709 183.0951 L58.3922 181.377 L49.9021 181.5757 L50.8873 180.1732 L48.9778 178.0693 L42.9031 181.2601 L42.6064 181.377 L41.6555 181.7686 L42.4162 181.8328 L41.5984 182.4874 L40.7844 183.1419 L41.3919 183.198 L41.9567 182.7761 L41.7464 182.478 L41.9617 182.2326 L42.3732 182.1274 L42.8099 182.3056 L42.9381 182.6901 L42.6114 183.0455 L42.2101 183.5083 L42.1998 183.5451 L42.9564 183.9308 L42.3249 185.532 L39.5923 186.238 L39.1381 186.574 L38.4526 186.8557 L37.6584 187.2209 L36.9581 187.3933 L36.5964 187.5254 L35.3556 187.4552 L35.3552 187.4552 L35.0593 187.5125 L34.7512 187.4763 L34.4419 187.4301 L34.1578 187.2489 L33.9927 187.0099 L31.6705 187.1332 L34.8657 190.2772 L34.7097 191.1923 L35.1049 191.2326 L36.1285 190.7973 L37.5055 191.9602 L38.3385 192.0508 L38.5584 192.8496 L39.4515 193.604 L40.0936 193.7162 L40.1727 194.2129 L41.0202 194.9288 L41.2979 196.1361 L41.5855 196.2226 L41.4352 196.7339 L41.5604 197.2779 L45.174 196.0624 L48.4414 200.8016 L44.8149 198.962 L45.096 199.6224 L45.0348 200.1705 L45.1173 200.7519 L45.7575 201.3965 L45.9172 201.4344 L46.1557 201.6103 L46.1489 201.7903 L46.357 201.9995 L46.1021 205.3186 L43.2911 207.469 L40.7806 205.9146 L40.9925 205.4741 L40.8141 205.3081 L40.989 204.7594 L41.2173 204.178 L41.3093 203.9296 L41.5874 203.8864 L41.7281 203.9436 L41.7582 203.8811 L38.6352 203.0543 L38.3914 203.1349 L38.0072 202.8877 L37.825 202.841 L37.6181 202.5909 L37.2662 202.3221 L37.2099 202.0971 L34.9265 199.3349 L33.2159 198.3718 L27.201 194.9697 L31.0048 200.2114 L29.198 201.2808 L29.198 202.969 L31.7481 204.8044 L31.694 205.1199 L33.1768 206.0257 L34.0174 206.5574 L30.6244 210.3089 L24.7894 213.1663 L26.2348 217.4494 L16.3601 211.0977 L10.5783 209.7654 L10.1751 211.0218 M41.3816 257.2037 L50.4042 252.483 L51.6214 251.5307 L52.0208 251.3671 L51.4731 252.2669 L52.5876 254.7967 L49.788 255.6029 L43.6525 257.4316 L41.3816 257.2037 M44.2116 188.6702 L48.1181 183.849 L48.7838 183.8607 L49.9135 184.3107 L46.0907 189.1844 L44.2116 188.6702 M49.2707 189.6987 L52.3061 186.4437 L54.5808 186.7534 L56.8707 185.608 L58.1069 185.7599 L62.4433 187.8228 L58.1412 193.462 L55.4443 193.1172 L54.5428 190.5109 L49.2707 189.6987 M57.5706 252.4421 L58.6014 249.6202 L63.3372 247.4877 L64.1436 247.622 L64.9043 249.0301 L60.587 252.7985 L57.5706 252.4421 M66.8747 254.2591 L69.621 253.8034 L72.8315 252.9037 L73.2727 252.8453 L73.7025 254.8025 L77.1754 257.7003 L73.6074 260.3995 L67.8561 261.9243 L67.1752 255.3575 L66.8747 254.2591 M78.3622 230.9293 L79.6973 230.9118 L81.8883 231.8057 L82.9458 235.1245 L82.0443 240.0675 L78.3622 230.9293 M81.9686 262.574 L82.1694 261.0795 L82.3026 259.4121 L82.3939 258.107 L82.4399 257.6121 L82.8701 256.8917 L82.9446 256.7667 L83.1234 256.5657 L83.4285 256.2228 L83.869 256.0312 L84.4236 256.12 L84.616 256.3694 L84.7203 256.505 L84.9816 256.9677 L84.9778 257.469 L84.7127 258.1671 L84.419 258.5989 L84.637 259.9508 L84.8313 260.2499 L85.0459 260.479 L85.5377 260.4521 L86.2418 260.3218 L86.7542 260.0495 L87.1083 259.9502 L87.4206 259.7329 L87.947 259.4969 L88.2764 259.4151 L88.6043 259.5553 L89.1814 260.264 L89.3879 260.7045 L89.4328 261.0381 L89.3997 261.1993 L89.332 261.3898 L89.0889 261.617 L88.3921 262.1265 L87.4639 262.5191 L86.4464 262.6716 L84.9656 262.7539 L84.1288 262.8059 L83.1371 262.8299 L82.4228 262.7867 L82.0793 262.7656 L81.9686 262.574 M84.8971 317.5902 L86.1828 313.0691 L91.4853 311.5679 L93.178 311.6088 L94.8745 311.6555 L95.7494 315.6567 L87.6283 315.9137 L86.2056 318.2502 L84.8971 317.5902 M85.3384 138.3683 L96.3238 132.6052 L97.1074 132.0032 L97.4763 131.8688 L97.0655 132.1786 L98.0469 133.8678 L96.4417 137.4448 L93.4405 139.7652 L90.4849 138.3332 L88.1988 138.3566 L87.6435 137.8656 L86.2209 139.4379 L85.3384 138.3683 M89.9178 261.9331 L93.1853 260.8657 L95.245 259.3561 L98.4695 254.934 L101.5757 252.8529 L102.5571 254.2761 L108.1646 250.8793 L108.7904 251.796 L106.4822 253.9635 L103.2901 254.9988 L99.3649 256.9402 L97.0891 259.1942 L95.4394 260.9195 L90.1871 262.6453 L89.9178 261.9331 M93.0943 333.0046 L98.5908 331.6028 L100.4699 334.6926 L106.4001 326.0364 L106.8261 324.0679 L108.2335 324.0679 L111.5124 324.8273 L108.6823 333.7405 L100.1884 337.502 L97.4953 338.4365 L93.0943 333.0046 M93.7144 299.2425 L97.6589 299.7098 L100.4243 298.4072 L102.4213 298.5357 L107.2711 300.183 L102.4213 304.3071 L104.7987 304.4589 L105.6735 303.9975 L105.9132 305.3293 L110.6147 302.6539 L109.6523 307.9054 L105.1182 312.555 L106.2213 316.1591 L104.4183 318.7993 L101.8583 318.811 L99.6521 309.8388 L96.9172 305.9835 L95.2055 306.702 L94.0529 301.0709 L93.7144 299.2425 M96.363 236.6787 L98.0857 235.8297 L99.2748 238.5232 L101.4833 238.2077 L103.4243 238.5232 L98.5228 240.9012 L96.363 236.6787 M102.3985 387.9325 L104.3764 384.8491 L104.7758 385.2462 L108.1118 386.9397 L107.2179 388.6858 L107.7238 391.2319 L102.3985 387.9325 M105.8245 242.8165 L107.5248 239.5002 L111.1849 238.2486 L109.4568 243.3265 L106.5591 244.2853 L105.8245 242.8165 M106.7447 85.3065 L106.7926 85.1171 L106.8257 84.9874 L107.1475 84.6957 L107.3731 84.5647 L107.6983 84.3145 L108.1369 84.0333 L108.5698 83.869 L108.8143 83.7235 L108.8398 83.7083 L108.9745 83.5013 L109.0022 83.3353 L108.8569 83.1044 L108.8634 83.0243 L108.887 82.7232 L109.8368 82.808 L111.0567 83.1009 L111.3412 83.2459 L111.5466 83.5095 L111.5957 83.5721 L111.8095 84.0432 L111.7904 84.2987 L111.9608 84.5635 L112.1172 84.9669 L112.3983 85.417 L112.501 85.6298 L112.6124 86.1215 L112.9129 86.7914 L113.0735 87.0042 L113.2153 87.1977 L113.3603 87.4163 L113.4999 87.5718 L113.7639 87.7168 L113.8879 87.9372 L113.9719 88.1821 L113.9765 88.4756 L113.8958 88.7562 L113.7361 89.0853 L113.5725 89.3729 L112.962 90.0744 L112.1004 90.1498 L111.3229 90.044 L110.6584 89.5863 L110.5051 89.5156 L110.2149 89.5407 L109.9163 89.4834 L109.4777 89.5004 L109.2872 89.2437 L109.1822 89.0005 L109.0243 88.8678 L108.8238 88.8141 L108.7889 88.8047 L108.5332 88.7638 L108.2392 88.5165 L108.2392 88.0331 L108.5884 87.4771 L108.5846 87.3339 L108.5785 87.1211 L108.5268 86.768 L108.4127 86.4208 L108.224 86.1788 L108.0726 86.0706 L107.8714 85.9356 L107.5359 85.8911 L107.1795 85.7847 L107.1251 85.7596 L106.8341 85.6251 L106.7618 85.3679 L106.7447 85.3065 M111.5504 82.2234 L114.1636 82.3111 L119.0173 83.326 L119.9348 82.9629 L120.4528 82.8062 L121.1562 82.6075 L121.4582 82.6507 L121.7754 83.3026 L122.117 83.9737 L122.1897 83.9889 L119.7704 85.4387 L119.2904 86.8119 L119.3045 86.8668 L119.247 86.9352 L119.1204 87.2976 L119.123 87.4134 L119.0055 87.756 L118.9614 87.7525 L118.0473 90.3667 L114.719 87.853 L111.5504 82.2234 M115.4048 238.3526 L116.3314 238.2667 L116.4326 238.9796 L117.2565 239.1169 L117.4296 238.3871 L117.996 238.147 L119.6179 239.0929 L119.7609 240.7861 L115.7122 241.2103 L115.4048 238.3526 M122.9542 454.1474 L127.321 452.8863 L127.4427 452.8688 L128.4469 454.7955 L124.6774 455.8114 L122.9542 454.1474 M124.1943 198.6804 L127.127 197.5234 L128.2796 197.0383 L128.6599 196.9974 L131.4557 205.9672 L126.7276 207.5157 L124.1943 198.6804 M125.386 178.8378 L126.6477 177.9156 L127.7763 179.663 L125.8714 180.4396 L125.386 178.8378 M131.3492 242.9129 L132.3458 239.4423 L138.1695 239.0684 L138.915 241.1133 L143.9703 239.343 L144.2974 236.4391 L144.8984 236.4567 L147.5268 237.2688 L143.723 241.2419 L140.06 244.6014 L139.0862 242.2527 L131.3492 242.9129 M138.4833 226.5301 L138.802 225.0337 L141.0379 223.7313 L142.9877 223.2954 L144.8645 223.4906 L146.4214 222.8876 L149.5071 221.5074 L152.2892 222.3868 L159.1688 220.1676 L162.0764 220.3593 L166.4812 221.5396 L167.1811 223.4619 L167.6566 225.729 L159.4597 226.1544 L158.3118 227.9108 L153.5448 227.2476 L151.2078 226.6563 L147.997 226.5266 L144.5888 227.0116 L143.8984 227.7881 L139.1558 227.1027 L138.4833 226.5301 M146.5949 107.5177 L147.5458 103.9988 L148.5006 104.1741 L159.5012 108.9791 L153.7575 108.6576 L152.6315 110.4989 L154.3699 110.4989 L153.2972 111.7264 L153.0081 116.4903 L151.3154 117.3671 L151.0606 112.3986 L149.4135 108.8271 L146.5949 107.5177 M147.6752 415.5356 L149.5809 413.0831 L152.061 413.4919 L152.061 415.4655 L155.2752 413.5035 L156.3402 415.3487 L157.5765 413.6904 L155.1154 411.0861 L156.2223 409.5387 L156.4429 409.492 L157.451 412.5459 L160.3457 411.927 L158.9116 416.2304 L148.862 417.2581 L147.6752 415.5356 M149.3907 322.4266 L151.498 320.0259 L150.7829 317.8822 L151.1823 318.624 L158.7823 318.4663 L162.1639 320.6684 L164.7162 325.3062 L167.5387 328.0165 L169.1819 334.2253 L172.7841 335.96 L170.8061 336.7427 L169.9274 336.9939 L170.3459 339.4645 L161.4754 343.7165 L157.1429 346.6076 L154.91 344.4991 L152.0457 347.361 L151.5398 346.2805 L151.1366 345.2701 L160.8782 338.5475 L160.4369 338.3839 L159.4746 335.6037 L160.9695 333.3258 L160.2125 331.2114 L160.6956 328.1566 L160.2391 326.7723 L161.3841 325.9195 L159.2996 323.4897 L158.497 323.4897 L156.4772 324.1614 L153.7422 321.4278 L152.7799 322.6018 L152.3957 323.0574 L149.3907 322.4266 M155.8648 113.1293 L159.7142 110.8671 L159.8397 110.8321 L163.3773 115.4499 L155.8648 113.1293 M161.2091 98.9248 L164.9825 90.3609 L165.2031 90.0452 L168.2386 94.4237 L169.1819 94.903 L168.444 97.9544 L167.706 101.0 L161.2091 98.9248 M163.8528 108.4062 L166.2111 103.8234 L166.504 104.0806 L167.6338 105.3841 L165.3058 110.1774 L163.8528 108.4062 M167.6345 245.3691 L169.2998 244.7539 L170.4341 247.6145 L171.6087 249.9363 L172.5369 251.262 L173.8062 252.5672 L175.4696 252.6992 L176.354 253.9647 L174.5034 256.7889 L174.6552 258.3874 L174.3958 260.1413 L175.4544 261.2057 L173.0199 263.6361 L169.7144 261.1239 L168.7863 258.343 L172.2014 257.4327 L171.9473 255.1121 L171.1256 255.562 L167.6345 245.3691 M167.8163 105.3841 L169.2275 102.5432 L170.5132 96.1189 L170.8442 96.3352 L173.0542 98.3519 L172.1945 107.8568 L168.8281 105.6998 L167.8163 105.3841 M170.8898 329.2956 L172.7879 323.3028 L172.845 323.1918 L174.6746 324.4126 L172.7917 330.75 L178.3224 336.1294 L177.284 337.794 L183.4766 340.0778 L188.5509 345.9943 L196.7709 354.1418 L195.8047 355.6078 L187.0902 349.3526 L181.6394 341.3744 L179.5967 340.434 L175.3935 338.8454 L172.6814 334.8328 L170.8898 329.2956 M171.6981 224.1269 L171.8248 219.6803 L171.8408 219.1205 L172.6141 216.6675 L173.8294 216.0785 L175.1033 215.5772 L176.0683 216.2819 L176.5442 216.7166 L177.5887 216.4268 L178.5476 215.6835 L180.3891 215.4632 L181.1723 215.5299 L182.008 215.4258 L182.3385 215.1687 L182.8825 215.0203 L184.1792 215.0881 L185.1221 214.9858 L186.466 215.1869 L187.846 214.9122 L188.8586 215.0753 L189.708 214.6902 L190.8655 214.8012 L190.632 215.5602 L190.5148 216.8685 L191.2626 220.4153 L190.9758 220.6678 L189.7457 220.2862 L189.5307 220.2003 L189.4855 219.862 L189.6726 219.4775 L189.4741 218.9248 L188.3968 218.7167 L187.9586 218.3784 L187.5307 218.2575 L187.3778 218.2592 L186.6775 217.9378 L186.4348 217.9203 L186.1663 218.1821 L186.2077 218.3878 L187.3907 219.2181 L188.56 219.8597 L188.3162 221.1732 L187.6121 222.0847 L186.8692 222.2308 L186.2812 222.0561 L185.3667 222.6778 L184.8083 223.3924 L184.6497 223.9866 L183.6056 225.2219 L182.7307 225.4129 L181.0022 226.4904 L178.2216 228.9596 L177.4776 228.7207 L176.3003 229.1612 L175.9036 228.8054 L174.718 229.1297 L173.6457 228.4022 L172.1344 225.6285 L171.6981 224.1269 M172.104 214.0696 L173.314 211.3063 L174.4985 211.5991 L175.1223 210.3638 L176.3604 210.7763 L175.0987 213.3363 L174.0143 213.2545 L173.2246 214.4775 L172.104 214.0696 M174.724 431.9607 L174.8572 426.5597 L176.6336 426.5597 L176.4167 425.6839 L176.5765 425.6839 L179.0452 431.2308 L177.7138 431.2308 L174.724 431.9607 M180.3993 97.0601 L181.1373 97.0601 L182.4914 108.3302 L180.4982 110.4989 L180.3993 97.0601 M196.5834 220.7817 L197.5172 218.7652 L198.0749 219.54 L198.7052 219.4629 L199.0916 219.9643 L199.7683 219.7773 L199.6165 218.6034 L200.5268 218.3177 L200.9152 218.8874 L201.7908 218.9844 L203.8076 217.4441 L203.3511 218.9487 L203.9917 219.0223 L205.2032 217.076 L206.8997 216.9492 L207.6239 217.8116 L210.5388 216.6249 L210.516 218.3691 L208.81 221.5781 L207.6186 221.6173 L207.8765 221.2515 L207.6487 220.5456 L206.8658 220.9541 L207.0108 221.6979 L204.8502 222.0941 L203.5109 220.4744 L202.919 221.3123 L203.4824 222.1864 L201.9403 223.3778 L201.0871 222.9951 L200.2579 223.3533 L200.6382 224.1415 L198.5359 224.9169 L198.2023 221.6687 L197.5777 220.7747 L196.5834 220.7817 M200.491 31.4059 L204.4356 28.4473 L204.5687 28.3888 L204.3367 30.6165 L203.1689 37.703 L201.4838 38.2994 L200.491 31.4059 M202.2712 142.6116 L206.1473 132.6695 L208.091 130.9628 L211.1493 133.8385 L213.055 132.1669 L213.3365 126.9239 L215.4895 125.7198 L216.4822 125.8601 L219.6736 126.8596 L221.2903 129.4665 L221.2903 132.6754 L215.9649 135.3407 L218.038 137.6377 L222.2108 135.5628 L222.4352 134.1717 L224.3295 134.4815 L226.4254 136.6908 L216.5507 140.9575 L215.3944 143.3831 L209.9891 146.9191 L211.0352 142.4947 L209.7837 140.6711 L205.5805 143.3013 L202.2712 142.6116 M204.6281 34.5907 L205.0514 33.9926 L205.331 33.8207 L205.4801 33.5383 L205.5178 33.2448 L205.4067 32.9957 L205.2538 32.3233 L205.6334 31.8468 L207.4201 31.089 L208.0256 30.3657 L208.3421 30.1956 L208.754 30.2704 L209.2771 30.1143 L210.1367 29.7699 L210.888 29.3928 L211.2608 29.4448 L211.4821 29.4466 L211.5381 29.7904 L211.7651 30.5166 L211.64 33.3208 L211.6879 37.2762 L211.8047 39.588 L212.1596 41.6783 L212.028 42.8301 L211.6385 43.6767 L211.0641 44.0906 L210.5502 44.0515 L210.1885 44.4309 L209.9888 44.7969 L209.4996 44.9238 L209.1919 44.8928 L208.934 44.7098 L208.6669 43.9994 L208.3805 42.8213 L207.9431 42.3261 L207.6121 41.6689 L207.1397 40.4072 L207.4357 39.695 L207.29 39.291 L207.0237 39.0712 L206.565 38.4573 L205.5824 36.7751 L204.8103 35.2731 L204.6281 34.5907 M209.7343 446.8669 L211.427 442.4004 L210.4798 440.5553 L211.1759 441.4954 L214.5005 447.2113 L213.1387 454.2934 L212.3323 452.5594 L213.6636 445.9093 L212.8268 444.6949 L211.3091 447.801 L209.7343 446.8669 M214.1323 194.6693 L214.1958 193.6759 L216.5522 193.1283 L221.1119 193.4848 L219.2141 197.9301 L218.0422 197.5987 L215.839 195.3443 L214.1323 194.6693 M215.3887 199.2577 L220.9376 200.4107 L221.2979 202.5108 L215.9451 203.6246 L215.3887 199.2577 M222.0423 94.2594 L222.3074 93.735 L222.7106 93.1668 L222.9392 93.0148 L223.3831 92.9763 L224.3356 92.9774 L225.0944 93.1119 L225.9663 93.0353 L225.9975 93.033 L227.0435 92.7149 L227.8861 92.3619 L228.0667 92.3829 L228.446 92.3864 L229.0584 92.5916 L229.8614 92.6904 L230.4829 92.5782 L231.2969 92.1958 L231.6069 91.8895 L231.8546 90.9232 L231.7812 90.4392 L231.5016 89.9464 L230.7602 90.0107 L229.9017 90.1229 L229.1124 90.2445 L228.3429 90.3486 L227.8214 90.4047 L227.6114 90.1644 L227.8769 88.8591 L228.5297 88.4382 L228.8671 87.7805 L229.9679 87.3678 L230.2383 87.0913 L230.2292 87.0229 L230.0816 86.1922 L229.9842 85.7362 L229.9983 85.1703 L229.5225 84.5998 L229.0824 84.6805 L228.4289 85.033 L227.888 85.8344 L227.1116 86.889 L226.9956 87.3742 L226.2542 88.4095 L226.072 89.159 L225.8898 89.4226 L225.5132 89.8143 L223.7007 89.3606 L222.4451 88.7737 L222.4105 88.133 L222.6338 87.127 L222.8281 85.669 L223.5136 85.7467 L224.2063 85.6649 L224.8476 85.8993 L225.3877 86.2425 L225.9119 86.5242 L226.285 86.7025 L226.7248 86.7382 L226.9781 86.505 L227.1379 86.1636 L227.2006 85.9157 L227.1831 85.4106 L227.1493 84.8383 L226.7114 83.8533 L226.3843 82.9951 L226.8438 82.8337 L227.6795 82.6396 L229.2292 82.1877 L229.7328 81.9907 L230.5187 81.8271 L231.3692 81.7475 L231.9158 82.4701 L232.117 82.9699 L232.1813 83.3441 L232.2224 83.9421 L232.9714 84.0245 L233.4883 83.9164 L234.0106 83.7492 L234.5298 83.672 L235.3617 83.2517 L236.1358 83.5639 L235.7778 84.5343 L235.5188 85.3697 L235.4613 86.2238 L235.2628 86.4208 L235.1502 86.5149 L235.1726 86.9563 L235.3149 87.2655 L235.5785 87.3321 L235.6808 87.4187 L235.7934 87.5619 L235.8615 87.7402 L235.8942 88.0594 L235.5389 89.4834 L235.3084 90.6485 L235.1886 90.9647 L232.1463 96.7479 L230.8587 95.2736 L228.8465 94.457 L227.3862 94.1203 L226.7312 94.0297 L226.0678 94.0238 L224.8023 94.1132 L223.9388 94.1676 L223.1518 94.3734 L222.916 94.4464 L222.2055 94.319 L222.0423 94.2594 M228.042 115.0875 L228.4901 114.04 L231.777 111.3874 L236.5093 108.9867 L237.9566 109.2404 L240.2016 108.491 L240.6707 108.7745 L242.9716 110.2154 L239.7714 113.3426 L237.4405 113.0913 L231.2836 115.4195 L228.8979 115.4966 L228.042 115.0875 M233.0516 130.1328 L234.7824 127.2746 L237.984 124.2299 L241.7205 124.2118 L242.7742 124.4047 L244.1131 125.5211 L242.9263 128.9112 L233.0516 130.1328 M233.9798 24.6818 L234.6302 23.6819 L235.3301 23.6878 L239.773 26.2488 L239.9289 28.3888 L239.9289 31.0551 L238.4644 30.4002 L237.4755 30.0143 L238.5025 29.4822 L238.8144 28.1783 L233.9798 24.6818 M235.3567 381.17 L235.7371 380.7203 L243.4474 385.0301 L244.5772 384.2768 L245.4292 386.2215 L246.1748 388.1603 L235.3567 381.17 M236.8859 437.0696 L237.5515 437.0696 L238.8258 439.1132 L241.0624 438.7512 L240.5413 440.6896 L241.8993 443.5389 L244.6761 450.7553 L241.1652 451.4034 L236.8859 437.0696 M245.8552 272.4987 L249.8759 270.1969 L260.8727 268.9233 L262.8202 267.7432 L263.3261 267.7257 L268.2635 270.1619 L268.0771 273.4568 L264.8667 275.2912 L251.5419 274.1228 L249.6476 272.9777 L247.3806 275.2912 L245.8552 272.4987 M245.9808 140.3146 L246.9774 129.3496 L249.8515 118.3953 L251.4476 117.1088 L251.6458 114.7368 L252.8543 114.8829 L254.954 116.5722 L258.0198 116.7125 L257.7726 118.9746 L260.1385 122.6629 L260.5113 127.0291 L257.6509 129.0866 L258.1872 131.068 L256.3918 133.1547 L254.1932 133.5229 L255.7794 130.5946 L253.8585 129.3204 L251.7207 133.143 L258.3926 139.5256 L259.7087 136.0011 L258.9327 134.9257 L265.8899 139.093 L266.7343 140.4783 L253.0787 147.8075 L252.4777 153.0209 L255.4066 154.3008 L257.9133 155.7327 L257.4302 157.2172 L257.3313 158.1932 L257.0118 155.3762 L254.8589 154.4235 L252.238 156.434 L250.2296 149.0758 L247.9359 144.365 L245.9808 140.3146 M248.8884 323.5936 L249.5278 321.089 L254.8741 319.4944 L254.9958 319.4184 L257.1411 320.7444 L259.3512 320.2712 L258.8148 321.8016 L253.9079 325.3822 L260.7852 325.5632 L258.2667 327.5632 L263.2158 329.3248 L271.3065 330.3295 L272.4781 335.6914 L262.3866 337.5312 L257.7117 340.7962 L251.8348 340.5684 L251.4963 339.0089 L251.3031 336.1942 L254.297 333.3182 L249.0314 329.3949 L251.5035 327.1473 L254.0928 323.9248 L248.8884 323.5936 M252.4815 343.5238 L265.1482 341.8825 L273.4481 335.8082 L273.7333 335.7731 L274.3534 336.3338 L275.7265 336.3338 L275.5972 337.7239 L274.8288 340.0894 L269.0242 340.2588 L267.031 344.2129 L263.4174 344.2188 L253.364 346.9931 L252.4815 343.5238 M257.296 76.862 L259.9754 72.9223 L261.9727 74.0132 L260.9773 75.1392 L265.3292 82.6297 L260.9693 78.7503 L257.296 76.862 M258.948 129.5366 L261.6867 126.8772 L262.5007 128.052 L265.5932 126.5732 L268.5183 122.0257 L268.5792 121.9322 L270.5001 123.8553 L277.3964 123.9897 L282.5392 129.525 L279.5608 133.558 L276.8411 136.5447 L267.9972 139.3853 L266.9588 136.6207 L264.5205 137.1818 L261.1694 135.0192 L258.948 129.5366 M259.7886 70.6657 L260.2412 68.5552 L263.7027 68.1168 L263.7065 66.5091 L267.7918 62.8902 L268.3738 62.8727 L271.1201 66.7838 L262.0975 70.2156 L259.7886 70.6657 M261.5954 321.8775 L264.4368 316.6322 L269.0204 315.3647 L269.1498 315.3413 L269.785 316.2175 L267.6473 320.3647 L261.5954 321.8775 M265.3775 54.5766 L265.4753 54.3065 L265.6229 54.0586 L265.7838 53.8539 L265.9705 53.6955 L266.1558 53.6557 L266.4917 53.6417 L266.9067 53.6107 L267.3605 53.6107 L268.0143 53.6055 L268.1775 53.5347 L268.203 53.4067 L268.2372 53.3266 L268.3985 53.2833 L269.6819 53.1886 L270.8037 53.1681 L271.3191 53.1412 L271.7242 52.9875 L272.2875 52.8659 L272.7253 52.8811 L273.4154 52.8448 L273.6398 53.0155 L273.4926 54.0644 L273.4195 54.2205 L272.8581 54.2872 L272.2373 54.2877 L271.2536 54.4088 L270.4111 54.4526 L270.1486 54.6678 L269.8942 54.7765 L269.4309 54.8326 L268.8063 54.6707 L268.4301 54.4468 L267.6959 54.4456 L267.2007 54.5304 L266.9504 54.7128 L266.5152 54.804 L266.0025 54.8309 L265.3787 54.7964 L265.3775 54.5766 M265.3992 112.8136 L266.3806 109.4409 L266.2322 109.0843 L267.5141 109.248 L268.796 109.4116 L269.7698 104.0689 L270.5382 104.0689 L271.3103 104.5892 L275.4413 104.9574 L275.97 106.9566 L280.1732 106.6701 L279.5418 109.0375 L279.2831 110.0546 L280.5688 109.3298 L280.3824 111.6037 L279.6787 115.5492 L275.5896 115.1284 L275.2473 107.6288 L273.5926 108.453 L274.9125 108.453 L274.5436 114.8829 L274.9354 116.6365 L272.7368 114.6432 L271.8809 116.6657 L269.3856 116.6365 L270.5648 119.4948 L272.1548 118.9453 L271.9798 120.6054 L269.0813 120.4066 L266.9359 117.484 L265.3992 112.8136 M268.9272 20.4759 L269.0733 20.2894 L269.5043 20.1759 L270.545 20.1923 L271.6044 20.1309 L272.4515 20.0526 L273.1921 19.9882 L273.604 20.1736 L273.7752 20.2584 L274.0346 20.7969 L274.2374 21.2711 L274.6269 21.7874 L275.4177 22.3067 L276.312 22.7896 L277.3428 22.9937 L278.0682 23.0645 L278.3002 23.2843 L278.4253 23.8082 L278.9864 24.1333 L279.6878 24.2327 L280.1823 24.4035 L280.1538 24.994 L280.0298 25.4056 L279.9994 25.8366 L279.6 26.0038 L279.3002 26.0406 L278.978 26.0687 L278.9545 26.2985 L278.983 26.5026 L279.3379 26.602 L279.8312 26.678 L280.3242 26.73 L280.5357 26.8446 L280.5638 27.2656 L280.5205 27.6381 L280.5791 27.9848 L280.9047 28.39 L281.0709 28.8157 L280.5912 29.1244 L279.6509 29.3396 L278.4607 29.4436 L276.7931 29.2676 L275.3203 29.1823 L274.819 28.4479 L274.6234 27.7392 L274.7885 27.4206 L275.1389 27.2095 L275.5432 27.1381 L275.6505 26.5827 L275.6577 25.3852 L275.3009 24.9624 L274.8787 24.8227 L274.3705 24.8548 L273.7451 24.8952 L273.2746 24.9367 L272.7504 25.1665 L272.1905 25.2688 L271.5028 25.4027 L270.9102 25.3507 L270.6203 25.1577 L270.5032 24.9291 L270.3811 24.4555 L270.0577 23.7854 L269.7934 23.2656 L269.3723 22.6943 L269.1505 21.7611 L269.0102 21.339 L268.9535 20.7963 L268.9272 20.4759 M276.4683 339.5463 L277.0351 336.988 L281.7061 336.3981 L281.9115 336.3806 L283.2467 338.5358 L281.98 339.5463 L276.4683 339.5463 M281.5985 54.4327 L281.7232 53.9311 L281.9857 53.7393 L282.2664 53.5195 L282.546 53.2845 L284.1607 53.091 L287.273 52.4508 L290.0285 52.0053 L292.1727 51.4335 L293.3378 51.023 L294.3367 50.6272 L295.2956 50.094 L295.6509 49.8104 L295.8631 49.3971 L295.9164 48.7171 L296.2515 48.6984 L296.3367 47.435 L296.0027 46.4451 L296.3367 45.9733 L297.0663 45.7096 L297.4006 45.5009 L297.5794 45.681 L298.7989 44.6934 L299.573 43.9661 L299.8199 43.2961 L300.112 42.7903 L300.5776 42.5342 L301.4365 42.4594 L302.0919 42.2904 L302.4437 42.4845 L302.5092 42.8137 L302.3502 43.1657 L302.0006 43.6866 L301.775 43.9152 L300.7906 44.9384 L300.5875 45.4307 L300.6514 45.8517 L300.7286 46.1352 L301.0363 46.3457 L301.3813 46.3405 L302.152 46.4071 L303.198 46.2738 L304.1311 45.9289 L305.152 45.8716 L305.8093 46.0464 L306.1783 46.2364 L306.2213 46.4913 L305.5016 47.5987 L304.9512 48.5575 L304.4947 49.1585 L303.7789 49.6426 L302.8108 50.2548 L302.2528 50.7991 L301.8557 51.4405 L301.3905 51.7819 L300.8298 51.8673 L300.1767 51.7398 L299.7145 51.627 L298.9492 51.5405 L298.312 51.596 L296.6224 52.1964 L295.7384 52.5005 L294.6984 52.7068 L294.3816 53.6633 L293.7627 53.8703 L293.0278 53.7072 L291.9114 54.0627 L290.6382 54.3111 L289.6287 54.4409 L288.0326 54.8438 L286.9428 54.9016 L286.6157 55.0092 L286.9676 52.7519 L285.9504 52.9775 L285.5145 55.4799 L283.4844 56.3422 L283.2581 56.4626 L283.0333 56.4188 L282.8378 56.2878 L282.8537 55.7429 L282.6377 55.3132 L282.298 54.9788 L281.8937 54.8028 L281.6183 54.6631 L281.5985 54.4327 M285.0485 10.7846 L285.0535 10.4255 L285.1718 9.9303 L285.4829 9.5981 L285.8279 9.2455 L286.1444 8.966 L286.4871 8.7929 L286.8896 8.6865 L287.3084 8.5596 L287.696 8.4906 L287.906 8.4362 L288.4062 8.4286 L289.1042 8.4216 L289.3621 8.507 L289.6603 8.6427 L289.8402 8.6625 L290.0665 8.7865 L290.558 8.8877 L290.879 8.8771 L291.0795 8.914 L291.1377 8.9625 L291.2757 9.1122 L291.2929 9.3081 L291.2769 9.5426 L291.1742 9.8028 L291.0563 9.8852 L290.7048 10.1671 L290.5104 10.2016 L290.1011 10.3343 L289.6367 10.5647 L289.3198 10.9156 L289.273 11.2068 L289.4469 11.3535 L290.5131 11.2606 L290.9091 11.0822 L291.3956 10.9144 L291.8581 10.677 L292.2666 10.6413 L292.3903 10.8278 L292.3549 11.2442 L292.3636 11.6681 L292.31 11.9658 L292.2571 12.1856 L292.0917 12.3435 L291.8961 12.4686 L291.5884 12.6224 L291.2385 12.7739 L290.9266 13.0019 L290.4906 13.2563 L288.3122 13.7463 L287.6245 13.8276 L287.0493 13.9305 L286.5176 13.9872 L285.9923 13.9381 L285.691 13.9217 L285.5491 13.5013 L285.4867 13.1428 L285.4635 12.885 L285.4327 12.5283 L285.3798 12.3353 L285.3433 12.123 L285.4213 11.9909 L285.6336 11.9546 L285.8721 12.0231 L286.2361 12.0997 L286.4997 12.0406 L286.6518 11.9377 L286.6047 11.6009 L286.4559 11.3266 L286.2292 11.1845 L285.9485 11.0477 L285.6419 11.0202 L285.3289 10.922 L285.0485 10.7846 M286.2304 43.482 L286.6846 43.2464 L287.2471 42.9722 L287.8835 42.5799 L288.0642 42.087 L288.0037 41.39 L287.6614 40.6615 L287.5111 40.368 L287.2753 40.0996 L287.1479 39.8073 L287.187 39.4191 L287.2285 39.1162 L287.2566 38.8133 L287.1908 38.5543 L286.9946 38.3889 L286.761 38.162 L286.7344 37.9398 L286.9227 37.7615 L287.2445 37.7019 L287.6313 37.7048 L287.9048 37.8252 L288.1418 38.0433 L288.4366 38.2626 L288.7181 38.4485 L288.9984 38.6432 L289.2772 38.8911 L289.572 39.0934 L289.9452 39.291 L290.3168 39.4922 L290.7383 39.6529 L291.1244 39.9295 L291.4998 40.13 L291.8718 40.3347 L292.3534 40.6744 L292.9597 41.0644 L293.4356 41.3415 L293.7612 41.5742 L294.1237 41.8654 L294.2005 41.5368 L292.3328 40.1143 L292.1084 39.8962 L292.1 39.6845 L292.5192 39.3676 L293.129 39.2109 L293.6938 39.1185 L294.237 38.88 L294.7692 38.6631 L295.3808 38.5573 L295.7315 38.4146 L296.6848 37.5621 L297.0511 37.2587 L297.5151 37.0137 L297.7403 36.9254 L297.9362 36.9809 L298.1915 37.1096 L298.4554 37.1599 L298.6669 37.337 L298.9005 37.6177 L299.0987 37.765 L299.3402 37.9714 L299.5049 38.2544 L299.6582 38.5999 L299.8408 38.9326 L300.0321 39.3618 L300.1938 39.6483 L300.1774 39.8821 L300.0268 40.1178 L299.8248 40.606 L299.4684 41.0322 L298.9476 41.4239 L298.3428 41.7864 L297.8963 42.0899 L297.1131 42.4951 L296.487 42.8231 L296.1108 42.9704 L295.9658 43.2171 L295.684 43.3195 L295.5105 43.4095 L295.4352 43.5896 L294.9814 44.1643 L294.4481 44.9969 L294.369 45.2413 L294.4641 45.4974 L294.6908 45.5962 L294.8072 45.7862 L295.0138 45.9692 L295.1161 46.206 L295.1107 46.6585 L295.2317 47.4519 L295.3264 48.3213 L295.4036 48.8978 L295.4725 49.2749 L295.4337 49.5608 L295.0815 49.9017 L294.4656 50.2466 L293.6459 50.6459 L292.7927 50.9757 L292.1065 51.2037 L290.6919 51.6188 L288.8337 51.9404 L288.2323 51.9561 L287.8371 51.9275 L287.6237 51.6445 L287.5484 51.4048 L287.6663 51.1938 L287.8569 51.1072 L288.2909 50.9815 L288.9957 50.5302 L290.2993 49.4614 L290.9676 49.1229 L291.251 48.8452 L291.4039 48.3546 L291.0361 47.2315 L290.663 46.8737 L290.3096 46.6802 L288.9798 46.7959 L288.6918 46.3714 L288.2517 45.4828 L287.4263 44.656 L286.4198 44.0556 L286.2475 43.6773 L286.2304 43.482 M295.1248 44.3117 L296.1203 43.3686 L298.4897 42.0221 L299.4323 43.6644 L297.6551 45.3875 L297.2945 45.4184 L296.5368 45.7587 L295.1248 44.3117 M302.6917 276.6057 L303.6503 271.4939 L304.1676 271.4939 L305.75 274.4032 L305.3392 276.7517 L302.6917 276.6057 M306.6173 305.3118 L310.5903 304.0804 L310.3986 305.4263 L310.4545 306.3597 L309.3762 306.7914 L306.8835 307.2161 L306.6173 305.3118 M308.5914 19.0235 L308.6683 18.6662 L308.9216 18.3463 L309.4926 17.9856 L310.1457 17.6739 L310.7417 17.6096 L311.167 17.7072 L311.3766 17.9622 L312.9183 19.8929 L313.3409 20.4578 L313.8529 21.3255 L314.1579 21.9781 L314.393 22.6721 L314.6437 23.2241 L314.641 23.6264 L314.3816 23.8918 L313.7817 24.0754 L312.9472 24.0427 L312.4367 23.9813 L311.8833 23.7872 L310.9787 23.2481 L310.3142 22.6832 L309.6748 22.257 L309.1301 21.6734 L308.8627 21.1045 L308.7714 20.587 L308.7052 20.1707 L308.6344 19.6111 L308.5914 19.0235 M310.2043 405.3928 L310.8699 397.9475 L311.2009 397.9533 L316.899 399.1562 L315.5296 402.1052 L310.2043 405.3928 M325.0208 57.4852 L327.089 56.5287 L327.286 57.0607 L328.1731 58.8006 L328.8813 60.6692 L329.4877 62.2255 L329.5063 62.3342 L329.4599 62.4652 L329.0354 62.5493 L328.4637 62.6306 L328.1046 62.799 L328.148 62.8744 L328.5964 62.8253 L329.3153 62.7417 L329.7376 62.6359 L330.2187 62.8241 L330.7174 64.0109 L331.156 65.8087 L331.2599 66.0659 L330.3409 66.3302 L329.9243 66.1396 L329.5653 65.9654 L329.1784 65.6397 L328.8486 65.5357 L328.4496 65.5713 L328.2944 65.4515 L328.2172 65.2124 L328.6501 64.9855 L328.6687 64.7569 L328.6078 64.4973 L328.2263 64.2272 L327.7592 64.2869 L327.5032 64.1577 L327.2712 63.932 L327.0848 63.683 L326.9148 63.2433 L327.4131 62.8978 L326.887 62.0536 L326.3495 61.1205 L326.6591 60.9381 L326.4986 60.6113 L326.0262 59.9524 L325.6781 58.5446 L325.0208 57.4852 M331.4645 56.8029 L331.4839 56.4796 L331.754 56.0709 L332.0461 56.1037 L332.2713 55.968 L332.3972 55.7196 L332.8365 55.2647 L333.5292 54.4497 L334.2508 53.606 L334.5855 53.1547 L334.8141 52.8325 L334.8575 52.6507 L335.1884 52.4584 L335.7639 52.3613 L336.4513 52.0322 L338.1387 50.8997 L339.7678 49.7233 L340.2452 49.5976 L340.5552 49.5333 L341.3928 49.4819 L341.3612 49.9069 L341.4069 50.436 L341.6245 51.541 L341.9904 52.6858 L341.6587 52.8676 L341.8915 53.4277 L341.5461 53.6318 L341.2372 53.775 L340.9634 53.7089 L340.7956 53.7762 L340.5373 53.7721 L340.3597 53.6031 L340.0341 53.1249 L339.7279 52.687 L338.6042 53.3231 L339.2109 54.1357 L339.4795 54.6239 L339.3357 54.8478 L341.1132 57.1525 L341.7043 56.6796 L341.9645 56.5293 L342.8333 57.3881 L343.1456 57.6565 L343.4784 57.8547 L343.7976 57.9535 L344.0368 58.0295 L344.6462 58.154 L345.2103 58.2265 L347.4705 59.5396 L347.4203 59.5928 L347.2533 59.7063 L346.4625 60.1021 L345.4617 60.5318 L343.7717 61.9817 L341.1612 60.3879 L341.8633 59.6835 L341.8717 59.5981 L341.8173 59.4549 L341.7504 59.3245 L341.4967 59.1941 L341.0858 59.2707 L340.8477 59.1964 L340.1406 58.7457 L339.4962 58.1803 L338.9755 57.6226 L338.1227 58.0453 L336.9207 57.8962 L336.1017 57.978 L335.3763 58.1096 L334.8103 58.1955 L334.3337 58.1722 L334.0294 58.1108 L333.6403 58.0494 L333.1576 57.9091 L332.8034 57.8056 L332.5132 57.5513 L332.3386 57.3548 L331.8293 57.2934 L331.4645 56.8029 M334.848 42.9271 L335.1956 42.5892 L335.6685 42.2121 L336.1922 42.0338 L336.7952 41.9104 L337.1276 41.7917 L337.6529 41.7584 L337.9808 41.8373 L338.3121 42.0817 L338.8758 42.3916 L339.2007 42.7436 L339.8701 43.1236 L340.5313 43.1903 L341.0254 43.4101 L341.5514 43.5375 L343.1475 43.9936 L343.6865 44.1959 L344.0072 44.4157 L344.6352 44.3543 L345.2084 44.3058 L345.7619 44.4643 L346.3648 44.5461 L347.0795 44.5461 L348.4508 44.8402 L349.3998 44.8595 L350.1089 44.9384 L350.843 45.1583 L351.6083 45.4436 L352.3535 45.937 L352.9727 46.4153 L353.1903 47.0959 L353.1451 47.5566 L352.9811 47.9506 L352.7635 48.1237 L352.5231 48.5295 L352.304 48.8984 L352.0876 49.0849 L351.6479 49.3024 L351.0853 49.172 L350.1758 48.9416 L349.2522 48.6668 L348.544 48.5277 L347.9068 48.8686 L347.8353 49.0176 L348.3127 49.1819 L349.3382 49.5415 L350.4006 49.6602 L352.5965 49.9373 L354.5099 50.0847 L355.0591 50.1075 L355.3018 50.1805 L355.2664 50.6781 L355.0751 51.1435 L354.8107 51.5568 L354.1922 52.0117 L352.4341 53.0401 L351.3904 53.2968 L349.76 53.5786 L348.6105 53.9539 L348.1799 54.0346 L347.7939 54.1942 L347.7577 54.4667 L347.9274 54.7058 L348.2796 54.9502 L348.6878 55.3886 L349.3451 55.7143 L349.8806 55.7049 L350.8445 55.4103 L351.6266 54.9624 L352.3097 54.5234 L352.9518 54.0983 L353.3079 53.865 L353.5304 53.7323 L353.9039 53.7768 L354.2303 53.9001 L354.5015 54.0229 L354.1888 55.7254 L353.5996 56.4217 L352.6372 57.0379 L352.864 57.5302 L350.2477 58.9041 L349.4599 59.0608 L348.137 59.0316 L347.7223 58.8632 L347.6006 58.3674 L345.2134 53.3032 L343.844 50.0513 L343.2753 48.6405 L343.0676 48.5248 L342.7816 48.6014 L342.437 48.6926 L342.0029 48.8194 L341.537 48.6815 L341.4883 48.1915 L341.3753 47.8051 L341.0429 47.4297 L340.3388 46.7187 L339.5617 46.0101 L338.9044 45.4027 L338.3517 44.8542 L338.0588 44.6315 L337.8751 44.4526 L338.0063 44.2666 L338.0386 43.9685 L337.9823 43.6252 L337.656 43.5411 L337.3726 43.5937 L337.0317 43.6866 L336.5928 43.7317 L336.1751 43.8772 L335.7712 44.0316 L335.3855 44.0503 L335.0431 43.8369 L334.8799 43.4592 L334.848 42.9271 M338.7294 53.3886 L339.6883 52.8682 L340.7085 54.0416 L341.4331 53.868 L342.0452 53.4499 L341.8717 52.9091 L342.9531 52.5829 L343.5655 53.7048 L342.9022 54.2047 L343.8611 56.113 L343.8816 56.4393 L344.6162 57.4799 L344.4838 57.7857 L343.4838 57.7044 L341.8923 56.3369 L341.1475 56.9801 L339.5046 54.8987 L339.5967 54.5315 L338.7294 53.3886 M338.7899 340.4212 L339.974 338.1988 L342.7698 340.3201 L342.402 340.9223 L343.583 341.9433 L344.7238 341.1758 L345.5302 342.4082 L344.0429 343.5121 L341.2053 343.442 L340.8085 343.025 L338.7899 340.4212 M341.5176 50.0145 L341.5317 49.5064 L341.5491 49.2638 L341.901 49.0896 L342.3582 48.9598 L342.9398 48.8095 L343.2863 48.7423 L343.8056 50.0636 L345.1282 53.3155 L347.5527 59.031 L347.1514 59.1976 L346.5839 58.8404 L345.5226 58.1254 L345.1259 57.7956 L344.9737 57.6822 L344.7965 57.5185 L344.4826 57.0496 L344.1955 56.6527 L343.9992 56.3896 L343.9847 56.1007 L343.0406 54.2462 L343.7143 53.8183 L343.0151 52.428 L342.2297 52.6542 L342.1878 52.4736 L341.9687 51.7644 L341.6796 50.8552 L341.6024 50.4454 L341.5176 50.0145 M348.1434 198.7739 L348.2104 198.6366 L348.5858 198.4139 L348.9917 198.2415 L349.4767 198.1363 L349.7391 198.1293 L350.1111 198.0709 L350.6053 197.9832 L352.6966 197.5403 L352.8837 197.5134 L353.4147 197.4515 L353.7913 197.4293 L354.101 197.6028 L354.4547 197.8623 L354.8815 199.6866 L355.5833 199.6048 L355.9488 199.5733 L357.0847 199.575 L357.2501 197.4632 L357.5004 197.3814 L357.8603 197.2873 L358.3376 197.2721 L358.6286 197.2312 L358.9508 197.1873 L359.3882 197.2598 L359.6553 197.49 L359.3415 198.91 L358.8409 200.0554 L358.3509 200.8998 L358.0014 201.5414 L357.7887 201.7605 L356.9211 202.3682 L356.9173 202.6324 L356.4452 202.9678 L356.0356 203.1998 L355.686 203.3564 L355.1896 203.5153 L354.6438 203.5597 L354.2805 203.5913 L353.7499 203.7981 L353.2527 203.8636 L352.8894 203.8951 L352.3558 203.6456 L352.2063 203.3739 L351.8753 202.9543 L351.393 202.4214 L350.9567 201.8154 L350.3006 201.1855 L349.5893 200.3522 L348.7802 199.4465 L348.2127 198.9813 L348.1434 198.7739 M349.6573 179.6764 L350.0111 174.6681 L354.7012 171.0564 L355.6103 172.2194 L356.2341 174.3993 L349.6573 179.6764 M350.5866 156.4603 L350.7129 156.0325 L350.8422 155.6415 L351.312 155.2365 L351.9537 154.7882 L352.1142 153.7426 L352.4912 153.1851 L353.2166 152.3178 L354.0173 151.7216 L354.4608 151.1284 L354.7643 150.5007 L355.1246 149.7415 L355.4433 149.2868 L355.6301 149.2213 L355.845 149.2517 L356.3673 149.6339 L355.6133 151.5615 L355.4509 152.1185 L356.0915 152.4113 L355.5183 153.4475 L354.8522 154.2014 L354.4905 154.8239 L353.9933 155.5264 L353.7122 156.2891 L353.6255 157.0512 L353.4357 157.5947 L352.9613 157.5836 L352.5186 157.9384 L352.0537 158.2213 L351.5562 158.4281 L350.8034 158.3037 L350.6695 157.666 L350.6627 157.0974 L350.5866 156.4603 M352.2785 49.4404 L352.9518 48.3178 L353.3394 47.6647 L353.36 47.1549 L353.2169 46.5018 L352.87 46.0119 L355.0333 45.4202 L355.686 46.4814 L356.0329 47.9506 L355.8492 49.1954 L352.2785 49.4404 M353.91 329.8867 L358.2806 327.3161 L363.1605 326.8699 L370.266 326.5889 L370.8099 327.1917 L370.6353 328.4761 L368.5908 329.1011 L368.0088 327.2548 L364.8962 327.3576 L361.8847 329.0386 L362.4883 331.625 L359.5598 333.0887 L359.0429 335.1797 L357.5069 336.5102 L357.9945 340.0953 L356.2124 339.7536 L355.1424 335.2416 L357.516 332.9286 L355.7358 331.6787 L353.91 329.8867 M354.1588 197.2376 L357.0668 196.9144 L356.9591 199.4856 L355.586 199.405 L354.9397 199.5663 L354.5897 197.7355 L354.1588 197.2376 M354.2702 156.835 L354.3908 156.3446 L354.8583 155.4989 L355.3254 154.496 L355.953 153.2336 L356.1501 152.8367 L356.7674 152.9782 L357.1702 151.9203 L356.476 151.738 L356.7556 150.648 L356.7864 149.97 L356.8287 149.6076 L357.1524 148.4188 L357.3578 147.8998 L357.7503 147.5141 L359.3415 148.2324 L362.6717 150.0337 L363.2115 150.3674 L362.0966 151.3446 L361.5606 151.9612 L360.3012 153.2149 L359.5499 153.8344 L358.47 154.9723 L358.1627 155.4948 L358.0078 155.9565 L357.4 156.5088 L357.0615 156.6929 L356.5483 156.7794 L356.2554 157.0424 L356.0782 157.427 L355.3212 158.1044 L355.0036 158.6911 L354.3832 158.4223 L354.5684 158.0962 L354.6613 157.8297 L354.7666 157.5883 L355.2425 157.1301 L355.98 156.2277 L355.8374 156.0395 L355.6449 156.0033 L355.0051 156.6339 L354.7636 156.9448 L354.5551 157.0267 L354.3794 156.9413 L354.2702 156.835 M355.2337 349.0081 L356.6107 348.0385 L357.2992 348.0327 L358.4023 352.1094 L355.9488 351.8757 L355.2337 349.0081 M357.0398 137.0205 L357.8131 134.1436 L360.3799 131.4842 L362.9471 129.6904 L364.8338 129.3812 L365.978 129.5355 L366.1948 130.4017 L363.7204 131.144 L363.4728 131.4842 L363.844 133.1851 L362.3594 133.8654 L360.906 135.2881 L358.1531 138.1953 L357.0398 137.0205 M358.7561 138.4858 L359.3852 137.4916 L362.0886 134.506 L363.4321 133.849 L364.3054 133.7257 L364.3446 133.5112 L364.0544 132.7087 L363.8185 131.8057 L364.2191 131.5707 L364.2552 131.2562 L365.0399 130.9611 L365.9795 130.5735 L366.0913 130.8909 L366.2735 131.4187 L366.412 131.8659 L366.4618 132.0775 L366.0837 132.2055 L365.7041 132.3171 L365.1453 132.4872 L364.7136 132.6041 L364.7451 132.7274 L365.3975 132.5445 L366.5033 132.3744 L366.6566 132.8729 L366.5272 133.3855 L365.9875 133.6538 L365.4348 133.731 L365.5489 135.0321 L365.7372 135.0788 L365.8958 135.2705 L366.0396 135.4745 L365.9551 135.7773 L365.7052 135.9585 L366.0807 136.5196 L366.4359 136.8486 L366.73 137.1976 L366.0103 138.2467 L365.4325 139.1094 L364.7954 139.5069 L363.9022 139.1153 L363.4617 139.3753 L360.9969 141.1662 L360.6336 140.7588 L360.3164 140.5344 L359.5978 139.7681 L358.7561 138.4858 M359.3765 148.2207 L360.5785 146.3773 L361.1951 145.4165 L361.8166 144.635 L362.1856 144.1546 L362.6919 143.7414 L363.0722 143.3971 L364.1027 142.6589 L365.1677 142.0178 L365.8707 141.6297 L367.6338 140.3006 L369.4706 141.286 L370.5079 142.2136 L371.9085 143.5111 L373.7313 145.247 L372.2177 146.9133 L371.6118 147.3879 L370.8708 148.2488 L370.2067 148.9022 L369.4756 149.3931 L368.4649 150.2985 L368.8536 151.0875 L367.8084 152.2015 L366.6767 153.1068 L364.8832 151.7064 L365.6927 150.6024 L366.4447 149.503 L365.3895 148.856 L363.9167 148.0027 L363.1046 149.3183 L362.7067 150.022 L359.3765 148.2207 M362.2255 121.2191 L363.5679 120.1436 L367.1792 124.9541 L367.8806 124.6794 L369.3443 126.3412 L368.9392 126.9508 L368.4637 127.4143 L367.5672 127.8772 L367.2241 127.9228 L365.7961 127.1659 L365.321 126.7077 L364.0974 125.4036 L362.7968 124.2293 L362.8995 123.7138 L363.1323 123.4823 L363.4576 123.3 L362.5492 122.093 L362.4667 121.7937 L362.2255 121.2191 M362.4495 101.491 L364.2944 103.3441 L369.6387 99.8893 L370.6658 97.8375 L370.9891 97.6446 L371.8259 99.1002 L377.6267 99.1996 L372.8644 101.1403 L371.2211 103.9345 L366.2001 106.3837 L364.2982 106.9975 L362.5979 106.6117 L362.887 106.3837 L364.884 106.0388 L365.4546 105.1211 L363.8379 104.3962 L362.4495 101.491 M371.1641 123.6238 L371.2493 123.3356 L371.7339 122.4144 L372.4562 120.7328 L373.403 118.3065 L373.9804 116.903 L374.9177 115.9157 L375.4384 114.832 L375.9576 114.0569 L376.5263 113.5303 L377.0805 113.4818 L377.6237 113.6314 L377.7606 113.8196 L377.3692 114.8893 L376.1197 116.9071 L375.6263 117.5577 L375.236 118.3404 L375.0341 118.8822 L374.3631 120.7848 L374.0565 121.4155 L373.6932 121.9544 L372.9758 122.5723 L372.1652 123.2228 L371.6285 123.7045 L371.4634 123.743 L371.2961 123.7576 L371.2223 123.7395 L371.1641 123.6238 M372.4802 333.8865 L377.1513 331.7254 L378.6728 330.8259 L379.8748 330.8084 L384.8616 335.4344 L383.8079 337.1866 L385.8316 336.2988 L386.5923 337.6422 L385.7973 341.2985 L384.4736 341.2985 L383.6634 344.2597 L379.7607 344.102 L381.0235 341.9351 L379.7302 341.7015 L382.294 340.1303 L381.7995 338.9914 L381.0958 338.2555 L378.9505 339.0147 L375.8313 335.8432 L376.3296 334.6984 L372.9671 335.4402 L372.4802 333.8865 M372.554 102.2948 L379.3346 100.1232 L379.6352 98.9774 L380.0764 98.5156 L380.2171 101.3858 L378.9086 102.3445 L372.554 102.2948 M376.847 121.8095 L380.8486 113.5034 L380.2476 111.9602 L382.1609 112.2057 L382.838 111.0542 L383.2792 112.1999 L383.7204 113.3514 L387.7487 115.5434 L387.5623 118.1095 L389.9054 122.1894 L389.5783 128.9755 L389.9891 130.8518 L388.3078 132.1318 L389.2474 130.8167 L387.8019 125.7491 L386.7977 126.0472 L383.2145 117.5133 L383.0472 119.7344 L380.6698 121.7101 L378.5929 123.0662 L376.847 121.8095 M381.9859 346.6193 L383.283 346.1287 L383.6596 346.0761 L386.3527 349.3293 L382.9369 350.3514 L381.9859 346.6193 M387.9845 148.7952 L390.2554 150.2213 L389.6011 148.1991 L389.8522 148.1991 L392.3665 150.7532 L395.4666 151.8519 L396.0828 154.5463 L397.0109 156.9892 L397.7337 156.2938 L397.2506 152.9215 L399.2932 153.2488 L401.5299 150.2681 L402.3515 157.2873 L397.8896 158.3218 L397.4065 161.6005 L400.8794 162.0154 L398.0304 164.1486 L395.516 166.609 L393.9831 166.609 L394.3863 163.4005 L393.7891 163.0732 L390.7499 163.5174 L388.9925 162.9154 L390.7499 161.8868 L391.1949 158.4094 L389.3729 155.5632 L390.4342 154.7099 L387.9845 148.7952 M422.4683 190.986 L422.5706 190.6074 L422.8578 190.5039 L423.2397 190.2041 L423.5391 189.6168 L423.9849 189.0558 L424.8061 188.2097 L425.6144 187.3962 L426.107 187.0684 L426.4342 186.7762 L426.9207 186.7452 L427.2071 186.588 L427.4399 186.2409 L428.3041 185.771 L429.3756 185.3532 L430.0584 186.0399 L428.6251 187.0561 L428.0751 187.3886 L427.9154 187.6714 L427.8336 187.9408 L428.0964 188.3406 L428.5118 188.6742 L427.4399 190.0914 L427.2835 190.411 L426.4874 191.3074 L426.1652 191.5938 L425.9225 191.7679 L425.7643 191.824 L425.1222 191.8795 L424.606 191.9596 L424.0849 191.869 L423.1142 191.6598 L422.7159 191.36 L422.4683 190.986 M450.0779 199.7731 L450.7854 195.9806 L451.9684 195.7995 L452.5617 191.4109 L453.0829 191.9777 L458.5786 193.8495 L457.8338 196.3546 L459.0701 198.9959 L461.7822 200.2114 L460.7057 201.8651 L459.633 203.513 L458.1571 202.6072 L454.8212 207.8079 L453.5241 207.8079 L450.656 202.9871 L450.0779 199.7731 M466.362 232.8691 L471.6226 230.8124 L471.3792 227.4878 L472.6877 226.401 L473.243 224.2858 L473.6957 223.8885 L474.4755 227.8208 L477.8571 232.8984 L474.5287 232.577 L470.7744 234.3941 L466.362 232.8691 M99.1424 148.6082 L99.2824 148.4674 L99.1873 148.472 L99.1424 148.6082 M122.2962 155.5749 L123.2852 154.6865 L126.1951 151.3902 L128.6824 151.0676 L128.8258 150.9741 L130.6684 148.5498 L130.7315 148.4972 L130.7703 148.3844 L128.7626 150.0694 L128.5725 150.5778 L125.3582 151.4019 L124.6203 152.9157 L122.4864 154.7742 L122.2962 155.5749 M382.237 201.2048 L384.9704 202.876 L388.2162 204.7407 L391.8302 204.7635 L393.5746 204.1733 L393.0789 202.495 L390.3448 201.7091 L388.1389 201.4508 L386.9232 200.1296 L382.237 201.2048" stroke-dasharray="" fill="none" fill-opacity="1.0" stroke="#ff0000" stroke-opacity="1.0" stroke-width="1.0px" stroke-linecap="butt" stroke-linejoin="miter" stroke-dashoffset="0.0px"/>
</g>
</svg>