<?xml version="1.0" standalone="no"?>
<!DOCTYPE svg PUBLIC "-//W3C//DTD SVG 1.1//EN" "http://www.w3.org/Graphics/SVG/1.1/DTD/svg11.dtd">
<svg width="512px" height="512px" version="1.1" xmlns="http://www.w3.org/2000/svg" xmlns:inkscape="http://www.inkscape.org/namespaces/inkscape">
<g id="layer" inkscape:groupmode="layer" inkscape:label="layer">
<path d="M0.0 256.4233 L0.0351 256.8575 L0.7555 258.8205 L1.1209 259.404 L1.6562 260.0504 L2.0794 260.3937 L2.2616 260.6087 L2.4643 260.9703 L2.7489 261.6268 L3.2994 263.3154 L3.3233 263.6391 L3.2713 263.8326 L2.9933 264.0326 L1.6841 264.516 L1.4305 264.7461 L1.3661 265.0282 L1.5541 265.7646 L1.7545 266.3498 L1.9437 266.6137 L2.1518 266.6844 L2.8898 266.673 L3.4294 266.752 L5.6148 266.8429 L7.043 266.9227 L7.4599 266.8903 L9.2857 266.4388 L10.6498 265.9641 L11.5398 265.7084 L12.2755 265.6194 L13.5824 265.3597 L14.3997 265.2341 L15.0773 265.1446 L15.6793 265.136 L15.8357 265.4624 L15.6131 266.2471 L15.3613 266.9405 L15.3599 267.1104 L15.4682 267.2364 L15.6103 267.2788 L15.9113 267.5436 L16.0918 267.5354 L16.3925 267.4687 L17.0896 267.1903 L17.2259 266.8607 L17.3602 266.7155 L17.8351 266.5443 L18.0498 266.5438 L18.1473 266.5726 L18.3684 266.7566 L18.6745 266.7598 L19.1161 266.6657 L19.4435 266.6744 L20.6599 266.568 L21.8739 266.5037 L23.2898 266.2544 L24.0691 266.1837 L25.3591 266.2206 L25.5011 266.2631 L25.7302 266.2772 L26.0295 266.2608 L26.7953 266.2708 L26.9408 266.3375 L27.0851 266.5164 L27.1495 266.9552 L27.0339 267.7371 L27.1938 267.8476 L28.3796 267.9987 L28.8836 268.1485 L29.9726 268.2877 L30.181 268.2713 L30.3713 268.1831 L30.4829 267.9732 L30.7956 266.8529 L30.8988 266.7018 L31.048 266.5858 L31.2234 266.5078 L31.4482 266.4603 L31.8504 266.3215 L32.3661 265.7162 L32.8534 264.8118 L33.2838 264.3964 L33.8197 263.6966 L34.0255 263.2419 L34.1641 263.1689 L34.6597 262.595 L35.3792 261.729 L35.822 261.1337 L35.991 261.0109 L36.0985 261.0123 L36.1695 261.0771 L36.4056 262.3741 L36.5047 263.1561 L36.3423 263.8367 L35.6457 265.0807 L34.6111 266.5986 L33.7843 267.6783 L33.6342 267.9681 L33.6224 268.1229 L33.6475 268.2146 L33.7343 268.3644 L33.9459 268.4927 L34.2377 268.6305 L34.3641 268.7702 L34.7637 268.9428 L35.0998 269.3728 L35.1412 269.6156 L34.8874 269.9612 L34.5053 270.3502 L33.8651 270.7902 L32.8836 271.2819 L31.7794 271.994 L31.4747 272.1122 L31.3775 272.1364 L30.4305 272.2798 L29.5733 272.4436 L28.6283 272.9015 L27.6336 273.5401 L26.8876 274.1528 L26.3494 274.8361 L25.8682 275.3917 L25.7684 276.2873 L25.7932 276.7689 L25.9915 277.0441 L26.2707 277.1459 L26.908 277.3354 L27.5293 277.4979 L28.254 277.5718 L28.9549 277.6818 L29.1797 277.7544 L29.2898 277.8635 L29.3447 278.3237 L29.4465 278.4629 L29.7627 278.5683 L31.1024 278.818 L31.5485 278.8185 L32.1097 278.7537 L32.6778 278.65 L32.873 278.6564 L33.7682 278.9796 L34.5832 279.4388 L34.9339 279.705 L35.0202 279.9127 L34.9794 280.0966 L34.3003 280.476 L33.7673 280.7448 L32.9356 280.9753 L31.9519 281.0908 L31.7667 281.1575 L31.6486 281.2899 L31.6569 281.5911 L31.7768 281.9805 L32.4121 282.4561 L33.0492 282.9724 L33.3321 283.1075 L33.6788 283.1673 L34.3754 283.2449 L36.3685 283.0815 L37.7159 283.2057 L39.0541 283.3851 L39.7872 283.5489 L40.2227 283.7133 L40.6298 284.12 L40.8906 284.5148 L41.2603 285.8514 L41.523 287.103 L41.6521 287.3212 L42.0436 287.4038 L42.6407 287.4207 L42.9981 287.1062 L43.2131 287.0765 L43.3681 287.0925 L43.573 287.2007 L43.9005 287.4207 L44.2964 287.9251 L44.4378 288.2327 L44.5134 288.7234 L44.5031 288.9484 L44.3372 289.1246 L44.1242 289.2287 L44.0738 289.3725 L44.1569 289.5555 L45.2146 290.3991 L45.3327 290.7473 L45.5041 291.1545 L45.7484 291.3982 L46.0069 291.5365 L46.3217 291.6625 L46.4827 291.7812 L46.7848 292.2367 L46.8946 292.4946 L46.9441 292.8854 L46.9653 293.251 L46.8371 293.5796 L46.8736 293.8147 L47.2037 295.0448 L47.1249 295.4944 L47.3209 296.18 L47.0812 298.7078 L47.5389 299.7977 L48.3452 302.1077 L50.6483 303.0096 L52.8972 303.9864 L53.0591 303.9932 L53.7341 304.3059 L55.6476 305.2758 L56.2269 305.494 L59.5409 307.4009 L60.5805 307.9326 L63.0695 309.0631 L64.0696 309.5794 L64.0809 309.1745 L64.4132 309.2348 L65.8026 310.1444 L66.6581 310.0901 L65.9535 311.5387 L66.5311 312.4365 L66.8295 312.5939 L67.5893 312.7126 L69.2187 313.0303 L69.424 313.1097 L70.0389 313.2781 L69.0313 314.7441 L70.7527 314.7815 L71.9625 315.0645 L80.9307 318.2684 L72.6924 304.7888 L69.7937 295.7655 L69.0963 295.4497 L69.3906 294.4797 L67.2222 288.4975 L65.5329 284.1601 L63.2883 279.6707 L61.3483 276.9898 L54.9191 271.3996 L53.9166 270.7893 L52.6089 269.7216 L52.903 269.1875 L51.8568 267.7161 L50.2116 265.0574 L49.2088 260.9274 L48.5942 259.2328 L46.7089 257.934 L47.1082 256.9752 L46.5091 256.7205 L45.6484 257.8682 L44.1385 257.3158 L43.2246 255.7915 L42.6712 254.4552 L41.6961 253.0646 L39.1496 249.5351 L37.0394 247.7555 L35.5259 247.5733 L35.5322 245.1285 L33.6564 242.9695 L30.6881 241.7874 L29.0426 246.1119 L26.6191 247.0556 L24.3008 249.5164 L22.3825 253.7038 L14.6803 249.8789 L13.453 248.7028 L11.5806 248.7978 L12.4802 252.6957 L7.5306 252.8359 L7.313 252.9811 L7.327 254.8168 L7.2402 255.5664 L7.018 255.8472 L5.6525 255.8275 L5.1997 255.8695 L4.3939 256.0184 L1.9762 256.127 L0.0135 256.1183 L0.0 256.4233 M32.2069 337.8245 L33.5026 338.7728 L34.0499 339.7598 L34.4127 339.3145 L35.9717 340.2983 L37.059 347.5614 L38.5683 348.8529 L38.6746 351.0387 L36.3992 351.5694 L36.2529 352.0015 L36.2032 353.5352 L36.4656 354.5291 L37.4393 355.0534 L39.452 355.7269 L40.2388 356.3374 L40.505 356.629 L41.0777 357.4978 L42.0572 358.0148 L44.8153 358.7322 L46.0296 359.4098 L46.4091 359.669 L48.0017 361.1118 L48.8532 360.9028 L51.2442 360.0331 L53.9503 361.2756 L54.8116 360.734 L56.0066 361.2806 L57.5162 361.2377 L57.8764 360.7271 L58.0837 360.1134 L60.7576 359.9701 L60.8332 358.8024 L67.1882 358.6295 L73.2452 359.8725 L80.3331 363.6566 L87.1901 365.6451 L92.4309 368.3783 L93.0199 367.2814 L94.1382 367.0039 L96.6037 367.0478 L97.5918 366.3373 L99.1856 366.4162 L101.751 365.5949 L104.3283 365.2892 L109.2917 365.1523 L109.6108 363.14 L111.0166 363.14 L111.3184 364.5044 L113.4947 364.2169 L119.3737 362.6924 L123.2932 362.3771 L129.0106 363.7278 L130.4544 363.8122 L130.7102 363.4567 L130.6717 362.8407 L129.7863 362.2863 L129.0474 362.0171 L128.2224 361.2601 L126.7553 360.2863 L126.5854 360.2517 L126.3914 360.1622 L125.1345 359.789 L122.6639 359.3263 L121.781 359.2409 L120.3911 359.1013 L119.9955 359.0771 L119.6997 359.1177 L119.3352 359.2012 L119.0862 359.2811 L118.8821 359.402 L118.7619 359.6571 L118.6225 359.7547 L118.4092 359.8547 L117.6229 359.9633 L117.2937 359.971 L117.1037 359.9103 L116.9413 359.7506 L116.8726 359.5489 L116.6299 359.1063 L116.2832 358.4132 L115.7284 357.2268 L115.5269 356.7823 L115.2385 356.3958 L115.018 356.1116 L114.7375 355.7068 L114.6851 355.3262 L114.8027 355.1145 L115.0502 354.8111 L115.4237 354.4885 L115.7557 354.2046 L115.8575 354.1038 L115.8678 353.9988 L115.7911 353.678 L115.5996 353.4271 L115.1293 352.7964 L114.7285 352.1024 L114.3586 351.4827 L114.0294 351.0391 L113.9017 350.8 L113.8626 350.607 L113.9549 350.4368 L114.2163 350.2643 L114.6193 350.1009 L115.2946 349.9376 L115.7172 349.7965 L116.1714 349.5556 L116.8217 349.1184 L117.0764 348.9879 L117.2799 348.9062 L117.4096 348.8885 L117.3055 348.6607 L115.7908 349.3909 L114.5704 349.8048 L112.9551 350.1215 L111.8353 350.1319 L109.852 349.7286 L106.2013 348.203 L106.1688 349.3909 L105.2534 350.2082 L102.8995 349.8486 L102.9757 346.7756 L100.3605 345.3154 L98.6169 343.4193 L98.8894 343.0706 L99.9572 344.4328 L101.1232 345.152 L102.6051 345.8164 L101.5047 340.913 L101.4719 340.3791 L102.736 339.4637 L104.4033 339.2894 L104.2288 338.7769 L101.8752 335.9219 L95.7944 329.1654 L92.4599 324.698 L89.0383 322.6707 L81.5411 319.5759 L80.2986 318.8133 L71.9949 315.566 L70.6875 315.3155 L68.1502 315.3228 L68.8901 316.5624 L69.0212 316.8841 L69.0715 317.4318 L68.9324 317.9233 L68.2436 319.3724 L67.7428 320.2076 L67.5715 320.3724 L67.1253 321.0729 L64.0182 320.5458 L63.2155 320.3085 L61.8011 319.8251 L60.5701 320.5878 L59.5542 321.8036 L58.8093 322.6707 L58.2608 323.1741 L58.0406 322.8766 L56.4885 321.559 L55.2028 320.4983 L54.6951 319.9593 L53.9037 319.3687 L53.2043 318.9977 L52.2987 318.6298 L51.4466 318.3793 L51.25 318.3606 L51.0502 318.471 L50.562 319.5157 L49.5854 321.3362 L49.1186 321.9058 L47.9957 322.5411 L47.2502 322.9176 L46.3004 323.1276 L45.1042 323.5 L44.4683 323.7697 L44.1926 323.9573 L44.0388 324.2804 L43.9795 324.5414 L43.9726 324.7327 L44.4266 325.0302 L45.1786 325.4232 L45.7769 325.7796 L46.4499 326.1091 L47.5719 326.4304 L47.7456 326.4021 L48.4907 326.5354 L48.7322 326.6097 L48.8961 326.7193 L49.0852 326.9543 L49.0617 327.2637 L48.0759 328.8661 L47.0887 330.5469 L45.6021 332.5909 L45.3649 332.8803 L40.1437 331.1648 L37.6598 332.3331 L36.9756 336.5042 L35.4169 337.3038 L34.1767 336.9852 L33.1556 336.7064 L32.5849 337.1536 L32.2069 337.8245 M33.0216 338.0499 L33.0986 337.6269 L33.3407 337.4735 L33.6523 337.3937 L33.9441 337.3809 L33.9686 338.0129 L34.0364 338.4159 L33.5971 338.4693 L33.2125 338.3374 L33.0216 338.0499 M37.9128 352.3939 L37.9476 352.2566 L38.4047 351.5269 L38.6623 351.3878 L38.913 351.3782 L39.5362 351.5858 L39.9603 351.4859 L40.4044 351.6232 L40.8308 351.8418 L41.0901 352.075 L41.2962 352.6139 L41.4678 352.6317 L41.8229 352.8101 L42.0083 353.0113 L42.2567 353.1724 L42.177 353.5174 L42.2949 354.4903 L42.2371 355.1309 L42.34 355.5243 L42.3975 355.7086 L42.2739 356.4552 L42.0666 356.9781 L41.6829 357.1688 L41.2571 357.1684 L40.5252 356.2713 L40.3213 356.3662 L39.6751 355.6083 L39.2487 354.8321 L38.1132 352.5386 L37.9128 352.3939 M44.823 354.8097 L44.8799 354.1722 L45.0355 353.501 L45.473 353.3495 L45.7806 353.0337 L46.2578 353.0214 L46.7655 353.1998 L46.7322 355.7506 L47.0156 356.4319 L47.0461 356.8335 L47.1439 357.4244 L47.2936 358.0043 L47.7366 358.5227 L48.0995 358.8494 L48.4648 358.985 L48.6802 359.0794 L48.8483 359.131 L48.9377 359.0894 L49.0162 359.0 L49.0159 358.938 L48.9162 358.8732 L48.7385 358.7819 L48.5499 358.5218 L48.2696 358.1344 L47.9393 357.5339 L47.7341 357.0324 L47.6309 356.6409 L47.6418 356.54 L47.6849 356.4638 L47.7648 356.4155 L47.9226 356.4515 L48.4643 356.5756 L50.0471 356.8868 L50.8969 357.1214 L51.1125 357.2108 L51.2083 357.4057 L51.2939 359.1871 L51.168 359.3943 L51.0372 359.7643 L51.0016 359.8355 L50.9481 359.8674 L50.704 359.8643 L50.2093 359.5389 L49.7004 359.2615 L49.5803 359.2286 L49.4664 359.3021 L49.4072 359.3806 L49.3977 359.5229 L49.3342 359.8419 L49.3704 360.2553 L48.6632 360.8786 L48.5335 360.8969 L48.3634 360.8914 L48.15 360.8709 L47.937 360.7928 L47.1519 360.013 L46.5215 359.4408 L45.9002 358.937 L45.5107 358.7016 L45.4218 358.5651 L45.3856 358.3918 L45.3922 358.1093 L45.4368 357.7141 L45.4388 357.308 L45.185 356.7221 L44.9811 356.1996 L44.8383 355.4905 L44.823 354.8097 M55.6211 359.6457 L55.6766 359.5188 L55.8002 359.5143 L56.0101 359.6347 L56.0477 359.6868 L56.0745 359.8419 L55.9733 359.945 L55.7827 359.9551 L55.7019 359.8862 L55.6366 359.7598 L55.6211 359.6457 M49.2045 259.5601 L50.2444 262.4699 L56.385 263.6706 L55.5947 265.3081 L54.276 267.1715 L55.2569 267.76 L55.6927 268.3594 L55.1261 269.3509 L53.9963 269.1715 L55.2132 270.9094 L57.2511 272.8381 L61.915 276.6739 L63.5933 279.0604 L65.9035 283.4193 L66.688 283.7571 L70.0007 285.2283 L67.4726 286.9934 L71.6681 299.6562 L73.1282 304.734 L77.4436 311.3379 L79.9064 315.1083 L81.3884 313.0376 L82.4783 312.1444 L82.8845 311.7496 L83.3775 310.9554 L83.8079 310.2316 L83.9637 309.9878 L85.8435 304.9919 L86.5527 303.6632 L89.5492 299.2044 L90.2684 298.0418 L90.6229 297.4662 L91.3238 296.4205 L90.6416 295.9093 L90.7876 295.5606 L91.9146 296.0682 L92.2302 295.6245 L92.5059 295.0092 L93.2528 293.1396 L93.8763 292.0966 L94.5295 291.5854 L96.4251 290.4187 L98.1912 289.3177 L98.6468 288.9822 L98.9823 288.6467 L99.2499 287.9835 L99.4299 287.4996 L99.1741 287.2002 L100.0213 287.2563 L101.0878 287.0003 L102.2866 286.7565 L106.9412 284.891 L108.0558 284.2797 L108.6472 283.8762 L109.6142 283.2089 L109.6861 282.909 L108.048 281.2351 L105.1873 279.469 L102.3904 277.8188 L101.8071 277.5591 L100.4007 277.2637 L99.9491 277.1039 L99.4578 276.768 L98.4749 275.7212 L98.1552 275.2342 L97.7798 274.8265 L96.8449 274.2071 L95.4744 273.668 L94.915 273.2681 L94.2797 272.3574 L93.7363 271.7621 L91.483 270.4154 L90.9196 269.984 L90.612 269.4047 L90.436 268.122 L90.5441 267.0314 L90.4041 266.4722 L90.0485 265.5053 L89.1895 264.5781 L87.5995 266.7438 L86.129 267.335 L85.2341 268.006 L84.2753 267.9503 L84.6588 267.1752 L84.2192 266.8716 L85.3381 265.2734 L85.362 264.7379 L83.7877 264.7219 L83.732 262.8603 L83.9157 262.5727 L84.2034 262.4608 L84.3552 262.2928 L84.0864 262.1285 L81.6998 261.7774 L79.5212 262.1015 L79.155 263.0684 L78.1459 265.4706 L77.8297 268.688 L76.3003 268.2407 L73.9619 267.4386 L73.4459 266.4338 L72.0197 265.2944 L69.4228 264.4512 L70.1335 262.8876 L67.9107 261.4126 L66.6216 261.0502 L64.2036 258.7228 L61.3938 261.0063 L59.5861 259.713 L56.7774 254.5086 L54.6756 254.3913 L51.6507 258.4512 L49.2428 258.8251 L49.2045 259.5601 M80.691 316.4811 L82.1729 318.8567 L89.1254 321.9734 L92.9394 324.2621 L104.3487 338.0467 L105.8091 339.2022 L107.8899 340.1432 L107.906 340.0501 L107.9604 339.9638 L108.0926 339.9041 L108.3269 339.7475 L108.4387 339.5376 L108.429 339.3774 L108.4413 339.2556 L108.5051 339.0895 L108.6216 338.974 L108.7685 338.8713 L109.0341 338.76 L109.4495 338.6573 L109.524 338.6181 L109.5625 338.5793 L109.7459 338.5003 L109.854 338.415 L109.9259 338.2767 L110.0394 337.6898 L109.9952 337.0665 L109.8828 336.9081 L109.6858 336.7365 L109.5392 336.5412 L109.1896 336.3413 L109.0548 336.3226 L108.9228 336.2332 L108.7892 336.0401 L108.7406 335.8069 L108.5428 335.4779 L108.4238 335.0927 L108.8222 334.8969 L108.9803 334.7842 L109.1339 334.6386 L109.2299 334.4972 L109.2811 334.2375 L109.2353 334.0536 L109.2184 333.8405 L109.3932 333.369 L109.476 333.2499 L109.5521 333.082 L109.5596 332.8657 L109.6479 332.7251 L109.8278 332.5928 L109.927 332.5626 L110.0216 332.4997 L110.0943 332.4276 L110.0745 332.2523 L110.0176 332.0492 L109.9362 331.8781 L109.549 331.3724 L108.9111 330.7564 L108.7828 330.4844 L108.8073 330.3899 L108.9309 330.2982 L111.152 329.4498 L111.7019 329.2745 L111.8003 329.2982 L111.9382 329.3704 L113.3366 331.2561 L113.6511 332.2852 L114.1084 333.3941 L113.9914 334.5282 L114.1478 335.2766 L112.5054 336.4308 L112.2907 336.8825 L112.1599 337.4635 L112.1596 337.7327 L112.1973 337.9472 L112.2671 338.0951 L112.3056 338.3461 L112.2976 338.6788 L112.2249 338.9909 L112.1817 340.5457 L112.7055 341.0819 L113.4809 341.6167 L113.6738 342.0913 L113.7083 343.0346 L113.773 343.1747 L113.8017 343.3239 L113.7747 343.3983 L113.6887 343.464 L113.5844 343.5156 L117.9268 346.5251 L118.425 347.0841 L119.5289 346.2518 L121.3593 345.3213 L124.3928 344.9279 L123.9484 344.8271 L123.5496 344.7363 L121.4628 343.7834 L121.0376 342.9105 L119.1259 341.3151 L118.408 340.2669 L118.0001 339.549 L116.4092 335.1142 L116.3324 334.4041 L117.0836 333.1039 L117.5775 332.4896 L117.5643 331.5801 L117.263 330.7687 L117.0479 330.2849 L116.7145 329.7802 L116.5667 329.6058 L116.3735 329.4918 L115.5378 329.3297 L115.0106 329.1289 L114.7357 328.7816 L114.6276 328.5649 L114.6046 328.3362 L114.5756 327.7023 L114.6581 327.5211 L114.8579 327.3527 L115.0364 327.2993 L115.2503 327.3235 L115.4323 327.4148 L115.7905 327.4066 L116.448 327.3532 L117.8247 327.1843 L119.9231 327.1268 L120.1283 327.1483 L120.6035 327.3605 L121.5876 329.6592 L122.3477 331.1073 L122.7875 332.2975 L123.0816 332.0041 L121.9064 328.9117 L121.8903 328.3134 L122.5501 327.883 L123.3915 327.3943 L123.9728 327.0867 L124.1131 327.0547 L124.3497 327.1547 L124.488 327.4089 L124.5889 327.7553 L124.8238 328.2034 L125.1391 328.6361 L125.2579 328.7479 L125.3366 328.7205 L125.3941 328.6589 L125.3887 328.4982 L125.2722 328.2203 L125.2975 328.0428 L125.3703 327.9415 L125.5108 327.8228 L126.4541 327.4111 L128.285 326.8836 L128.7623 326.7165 L131.3217 334.8773 L131.9685 337.0044 L132.087 337.1486 L132.2669 337.2563 L132.3348 337.1185 L132.3308 336.9989 L132.181 336.6594 L131.849 335.5002 L131.8495 335.0188 L131.9674 334.7673 L132.2816 334.4456 L132.482 334.4182 L134.9345 335.597 L135.6371 336.5061 L135.7371 336.9647 L135.6989 337.4087 L135.8237 337.9586 L135.9737 338.4802 L136.1658 338.9179 L136.2215 339.4153 L136.1592 339.7138 L136.0327 339.967 L135.9815 340.1646 L136.4556 342.3601 L137.4922 341.9448 L138.66 341.6008 L138.5042 341.5191 L138.392 341.3936 L138.3179 341.2133 L138.2865 341.0148 L138.2998 340.9299 L138.3584 340.8473 L138.5042 340.4631 L138.5208 340.3449 L138.5004 340.2564 L138.1638 339.9387 L138.0169 339.7393 L137.9735 339.6047 L137.8654 339.0562 L137.7133 338.5181 L137.5198 337.6793 L137.5494 337.5639 L137.6144 337.4347 L137.7323 337.3604 L137.8688 337.3334 L138.0379 337.3307 L138.3095 337.5046 L138.5893 337.7391 L139.0918 338.2416 L139.9269 338.822 L140.311 338.9138 L140.3673 338.9311 L140.8305 338.8467 L141.1096 338.4729 L141.3143 338.2334 L141.5072 337.8468 L141.8306 337.5867 L142.2756 337.3973 L142.746 337.2746 L144.4625 336.9925 L144.6494 337.0003 L144.8598 337.0911 L145.0797 337.3092 L145.2269 337.5087 L145.3419 337.5342 L145.4592 337.5178 L145.5492 337.4808 L145.605 337.4357 L145.6423 337.3768 L145.6153 337.2399 L145.3991 336.988 L145.1855 336.8146 L144.8161 335.9876 L144.7175 335.5993 L144.3837 334.9704 L144.2538 334.8974 L144.1693 334.9421 L144.2791 335.3825 L144.2541 335.7129 L144.1644 335.9612 L143.9218 336.1811 L143.5704 336.449 L143.4069 336.5211 L143.2528 336.5421 L143.1174 336.5197 L142.9067 336.4285 L141.1352 335.7946 L140.2742 335.3583 L139.9574 335.0955 L139.2686 334.4369 L138.8572 333.6944 L138.5772 333.2486 L138.2319 332.5672 L138.181 332.3463 L138.2109 332.2637 L138.2388 332.2268 L138.4061 332.1209 L139.218 331.6572 L139.73 331.4747 L140.1348 331.2949 L141.0768 330.9375 L141.2071 330.8618 L141.2398 330.77 L141.1921 330.6026 L140.4651 329.7879 L140.0333 329.4082 L139.7832 329.2398 L139.7004 329.2512 L139.6802 329.3329 L139.6946 329.4676 L140.2288 330.0814 L140.4633 330.7696 L140.4455 330.8796 L140.3432 330.9763 L140.1569 331.0639 L139.8283 331.1675 L139.4497 331.2072 L139.0515 331.3159 L138.6128 331.3679 L138.0399 331.4674 L137.7119 331.4838 L137.4868 331.4692 L137.3384 331.4108 L137.247 331.3159 L137.1651 331.1406 L136.9282 330.7678 L136.4469 330.2995 L135.9597 329.8783 L135.8059 329.7793 L135.4833 329.385 L135.2266 328.9564 L135.0958 328.6059 L134.998 327.9816 L134.779 327.4075 L134.4869 326.843 L134.3578 326.5048 L133.6492 325.4017 L133.1547 325.0184 L132.7468 324.6313 L132.1514 323.8728 L131.9024 323.7747 L131.7394 323.5196 L131.1783 322.8601 L131.096 322.6516 L131.1535 322.1965 L131.4068 321.8762 L131.7693 321.7182 L131.9913 321.6507 L132.7571 321.6032 L133.0052 321.6352 L133.2326 321.7283 L133.387 321.8602 L133.5759 322.124 L133.8835 322.7401 L134.7994 324.4232 L135.8553 326.0041 L136.5407 326.6431 L137.7728 327.8894 L138.5542 328.4982 L138.6623 328.5042 L138.7353 328.4129 L138.7339 328.3326 L138.3432 328.014 L138.1925 327.8191 L137.9413 327.5517 L137.8438 327.4764 L137.293 326.9493 L136.3998 325.8261 L136.0979 325.2507 L135.7967 324.8312 L135.3286 324.0225 L135.3373 323.7131 L135.6035 323.4196 L138.3406 322.5292 L138.6223 322.5137 L138.8083 322.5749 L138.9256 322.8902 L139.0478 323.4489 L139.1438 323.7587 L139.692 325.1986 L139.9439 325.6194 L140.125 325.7353 L140.1549 325.7253 L140.2788 325.7431 L140.7091 325.7504 L141.318 325.7038 L141.8134 325.6103 L142.1598 325.6372 L142.5232 325.728 L142.7402 325.8348 L143.107 325.859 L143.7645 325.8056 L144.4976 325.7006 L144.8952 325.77 L145.0173 325.7572 L145.1792 325.6728 L145.3221 325.5706 L145.8571 325.4346 L146.4134 325.3666 L146.7566 325.3689 L147.1056 325.4451 L146.9958 326.4537 L148.631 326.2533 L148.5436 326.6257 L146.9107 327.256 L146.5094 327.6056 L146.4789 327.9246 L146.6399 328.1966 L146.9265 328.3599 L147.3543 328.5288 L147.9088 328.6885 L149.2154 328.9103 L149.626 329.0441 L150.2418 329.3485 L151.0113 330.2032 L151.463 330.7915 L151.7599 331.0274 L151.8749 331.053 L153.1735 330.5227 L153.3305 330.4926 L153.7355 330.5569 L153.9566 330.6633 L154.5477 331.6627 L154.995 332.5161 L155.4403 333.6885 L155.7094 334.6286 L156.1003 335.221 L156.3217 335.2689 L156.3206 335.0498 L155.885 332.5923 L155.8689 332.2341 L155.9391 331.9926 L156.0587 331.7197 L156.2326 331.5422 L156.4453 331.3766 L156.7581 331.2177 L157.1407 331.0863 L157.5662 331.0274 L157.9765 331.0083 L158.4718 330.7335 L159.7358 331.5258 L160.4146 331.9251 L160.5897 332.0876 L160.7624 332.3536 L160.8326 332.6256 L160.7964 334.3219 L160.4712 335.0252 L160.4709 335.2032 L160.6612 336.2619 L161.0289 339.0393 L161.5432 339.7311 L162.5224 339.7745 L162.8967 338.4606 L163.1758 338.5537 L164.5112 342.591 L164.9168 342.528 L164.8841 341.5318 L165.3984 341.7723 L165.6496 341.875 L165.8175 341.2608 L165.9055 340.9331 L165.5645 339.7731 L165.4743 338.9325 L165.5366 338.8015 L166.5216 336.6895 L166.6889 335.8297 L166.7352 335.3227 L166.4983 335.4628 L166.2004 335.9717 L166.1125 336.0543 L166.0098 336.1182 L165.7063 336.193 L165.3811 336.109 L165.3141 335.953 L165.307 335.7248 L165.3095 335.4359 L165.4001 334.8604 L165.6123 333.735 L165.7583 332.7032 L165.9 331.9968 L165.9463 331.8827 L166.0461 331.7654 L166.2096 331.6641 L166.5489 331.518 L169.4579 329.4493 L173.3265 325.6089 L173.7934 325.483 L175.4367 324.1809 L175.631 323.317 L175.9234 321.9172 L176.0263 321.846 L176.0539 321.7598 L176.2269 321.6653 L176.2896 321.6635 L176.6021 321.4471 L175.1877 320.1578 L175.5948 319.7142 L177.0353 319.6275 L179.8041 321.2555 L179.7391 320.8639 L177.8159 316.7883 L174.139 309.8833 L174.2971 309.7898 L174.1726 309.5465 L174.1163 309.3758 L174.1582 309.2914 L174.254 309.237 L174.4299 309.2539 L174.7272 309.1928 L174.9474 309.1124 L175.1328 308.9586 L175.399 308.6697 L175.4628 308.5273 L175.0618 308.0029 L172.6211 306.4237 L172.6248 307.1352 L172.8462 309.2046 L172.6389 309.6962 L172.6426 310.3781 L172.5662 310.4835 L172.4285 310.5935 L172.2189 310.693 L172.0519 311.1248 L169.5249 310.0207 L168.8691 309.7829 L168.2028 309.593 L167.2716 309.3361 L166.3833 309.1229 L165.0511 308.714 L164.2735 308.1914 L163.718 307.8746 L163.4728 307.6515 L162.8634 307.363 L162.6406 307.0125 L161.0511 306.0718 L160.7535 306.0713 L160.37 306.0207 L159.7985 305.9449 L159.2253 305.8883 L158.8142 305.9034 L157.9592 305.9919 L157.9359 305.9919 L157.4343 306.1603 L156.8179 306.3324 L155.6576 306.5168 L154.4741 306.5885 L153.9963 306.6583 L153.3445 306.8765 L153.1358 306.9796 L153.0484 307.0663 L152.9363 307.2434 L152.7684 307.4032 L152.5646 307.4849 L152.3533 307.5387 L152.1529 307.5538 L151.9888 307.531 L151.8223 307.463 L151.6498 307.499 L151.5512 307.5332 L151.3031 307.8327 L151.0798 307.9504 L150.7607 308.0645 L150.3148 308.0348 L150.1112 307.9098 L150.067 307.8824 L149.9456 307.7213 L149.8922 307.4511 L149.1554 305.6601 L145.0392 296.6844 L143.5716 296.4319 L142.9087 296.2955 L142.7712 296.2275 L142.7172 296.0444 L142.7123 295.8587 L143.0662 294.5222 L143.2102 293.7029 L143.2304 292.7644 L143.1999 292.6316 L143.1476 292.5229 L142.873 292.2669 L142.5108 292.1044 L142.1187 296.0928 L141.759 298.5772 L141.3775 298.6315 L141.7915 296.169 L141.8352 294.7851 L142.173 292.344 L142.4018 290.7857 L142.3584 289.2926 L141.4974 289.7395 L137.847 290.3169 L137.738 289.9139 L141.0725 289.4346 L142.3691 288.8462 L142.1187 286.9606 L142.5654 286.5251 L143.0883 287.6366 L143.7424 288.094 L149.2126 285.6747 L155.0861 282.82 L158.8702 280.8882 L160.6466 269.6531 L160.6247 268.2366 L156.9191 248.4636 L154.3688 247.4779 L153.0456 246.6954 L152.8297 246.6776 L152.6313 246.736 L152.1032 247.1647 L151.7157 247.8368 L151.3494 249.378 L150.8932 249.7657 L149.6961 251.4708 L147.4894 253.349 L146.165 253.8909 L143.0593 255.0145 L142.3245 253.8553 L141.9916 252.5213 L141.2105 252.0803 L140.4556 251.4489 L139.2697 251.5845 L137.4235 251.5804 L135.4865 251.1074 L135.4255 251.3896 L135.2257 252.3113 L135.5572 252.7998 L135.8401 252.9354 L136.0479 253.0349 L136.6801 253.2171 L137.3169 253.4317 L137.5885 253.6147 L137.6946 253.6864 L137.7139 254.3712 L137.7052 254.7725 L137.6558 255.3938 L137.598 255.6048 L137.452 255.7449 L136.8451 255.928 L135.8501 256.1147 L135.088 256.0996 L134.2569 255.9741 L133.673 255.8431 L132.346 255.6239 L130.2448 255.0934 L129.8176 254.8994 L129.4988 254.5187 L129.4818 254.4986 L129.2564 253.9704 L129.1075 253.1541 L129.1095 252.3542 L129.2219 251.9365 L129.2159 251.695 L129.3119 251.6014 L131.8964 248.2714 L132.0795 248.312 L132.4374 248.3915 L132.9284 248.4481 L133.1343 248.3947 L133.2358 248.3686 L133.3602 248.291 L133.483 248.2143 L133.592 247.9842 L133.7872 246.6447 L133.876 246.1681 L133.9223 246.1229 L134.1787 245.8736 L134.4038 245.5567 L134.5947 245.2321 L134.7991 245.0344 L134.9138 244.7865 L134.9796 244.5122 L134.9957 244.2989 L134.9506 244.1807 L134.8459 244.1414 L134.3437 244.1524 L134.3242 244.1419 L134.2635 244.1099 L134.2483 243.9999 L134.2488 243.7926 L134.3199 243.3151 L134.5159 242.7576 L134.741 242.2422 L134.9494 241.4834 L134.2543 236.421 L133.7794 236.2593 L132.9284 232.9364 L132.0315 231.8999 L130.9034 232.8788 L128.5581 228.2915 L127.328 228.9321 L126.9066 232.3529 L125.5752 231.8981 L124.1091 229.2522 L124.5136 228.5107 L126.3506 228.5614 L127.6649 226.1853 L124.8505 220.607 L123.8894 218.3559 L124.5656 218.3573 L125.5948 218.5126 L126.281 219.3285 L126.5808 219.3472 L127.6966 218.7399 L127.7736 218.6486 L127.9021 218.4418 L127.9389 218.2989 L127.8012 217.4176 L127.3297 216.0574 L128.8433 215.8003 L128.4236 212.9738 L130.1169 212.6496 L130.2534 213.0647 L131.0512 212.851 L131.7403 212.8158 L132.1074 213.1135 L132.323 213.5998 L132.6349 213.6199 L134.413 217.3331 L134.5004 217.455 L138.0908 216.4359 L141.0556 216.1564 L141.6133 216.703 L143.249 216.3391 L144.3176 216.7546 L144.5588 216.5135 L145.193 214.5628 L145.2117 214.4574 L145.2263 214.4601 L145.2476 214.3948 L146.5223 214.5674 L146.8081 214.7729 L147.1016 214.8309 L147.1344 215.1852 L147.3319 215.6181 L147.6274 217.6907 L149.8439 218.8961 L152.1207 218.8961 L152.4982 218.0254 L154.4396 213.5441 L153.0168 213.2213 L150.8325 212.5167 L149.8637 212.0108 L149.6889 211.7916 L149.6297 211.7701 L149.864 210.9761 L150.5108 209.0149 L151.4567 209.234 L152.1837 209.3382 L153.1065 209.5012 L153.3261 209.529 L154.2927 209.8875 L154.9766 210.1076 L155.3328 209.9943 L155.7893 207.6258 L153.3003 207.7377 L151.9652 207.4705 L152.2731 206.4668 L150.9478 205.9965 L150.4755 203.311 L150.7552 202.284 L152.6112 202.1041 L154.376 201.9329 L157.0165 201.6767 L159.227 200.8127 L161.8034 199.8053 L163.5447 201.0182 L164.9272 198.466 L167.4481 194.4593 L168.0484 194.9173 L168.0251 195.1529 L168.1461 195.2137 L169.0048 195.837 L171.0014 197.0869 L172.2298 197.6107 L172.7418 196.9362 L172.4868 195.9251 L172.3603 195.6037 L171.988 194.3912 L171.7276 193.3952 L171.5965 193.0404 L171.5738 192.7824 L171.6252 192.6472 L171.654 192.6203 L171.7865 192.4965 L172.9022 191.9823 L173.0646 191.9312 L173.1926 191.9303 L173.3501 191.9956 L173.4433 192.1317 L174.1027 193.9012 L174.4785 194.7447 L174.6668 194.8844 L174.8654 194.8862 L175.5146 194.7835 L176.0398 194.6502 L176.4236 194.5269 L176.6967 194.3177 L176.9436 194.1282 L177.1889 193.7464 L177.4321 193.3345 L177.5511 193.1331 L177.932 193.0473 L178.2905 193.1308 L178.482 193.4733 L178.8206 194.4995 L179.0046 194.6648 L179.1843 194.7397 L179.4582 194.81 L179.8285 194.7383 L180.2963 194.773 L180.3773 194.8004 L180.647 194.8908 L180.6812 194.9684 L180.9339 195.5388 L181.1757 196.3097 L181.3671 196.7722 L181.6822 197.2344 L182.5355 198.3062 L182.6855 198.4052 L182.804 198.4263 L182.9279 198.4258 L183.0771 198.3683 L183.2648 198.1102 L183.6615 197.6582 L184.1134 197.186 L184.1402 196.9873 L184.0971 196.7325 L183.9056 196.1494 L183.7762 195.4753 L183.832 195.3393 L183.9619 195.2023 L183.9766 195.1867 L184.246 195.1625 L184.7646 195.2689 L185.1573 195.331 L185.349 195.342 L185.4635 195.3635 L185.5097 195.3945 L187.8829 195.6891 L187.9605 193.9492 L187.0302 189.7981 L187.5471 183.3735 L187.4609 180.7037 L182.6694 179.2647 L181.8722 178.9984 L180.9537 178.1846 L180.8166 178.0955 L180.6706 177.9339 L180.1761 177.4959 L179.1555 176.6556 L179.3453 175.2855 L176.2031 175.2855 L174.5731 173.6916 L173.5008 174.7785 L172.4974 174.6917 L171.7974 174.6694 L171.7244 174.6251 L171.361 174.5936 L171.3458 174.3725 L171.2368 174.2542 L171.1598 174.0533 L171.152 173.6938 L171.1923 173.3527 L171.3015 170.3174 L171.4269 169.662 L171.4783 169.5254 L171.5631 168.1512 L171.5677 166.2818 L171.6807 166.027 L171.7063 165.5675 L168.5647 164.6669 L167.3113 162.7303 L164.9539 163.8859 L160.6877 156.4456 L154.1826 156.1191 L153.9733 156.9033 L151.6613 156.6018 L148.1032 156.9028 L145.3126 156.4808 L138.9615 160.4284 L136.499 165.7995 L135.2616 168.6317 L135.2616 172.7311 L125.0601 168.9737 L123.844 169.3254 L121.7684 171.5724 L126.5693 173.6139 L125.9038 174.2953 L125.8259 175.4334 L126.2267 175.3869 L126.3882 176.1052 L126.768 177.8713 L126.5593 178.6532 L126.1381 179.8296 L127.4692 189.5661 L131.7584 190.4018 L131.853 193.8177 L131.5428 195.3794 L126.3546 195.9041 L125.6782 191.0685 L122.6507 191.1521 L122.1582 194.1734 L121.5554 195.0173 L121.0212 195.8439 L119.919 195.8009 L118.4463 195.827 L117.0534 195.8311 L116.6978 196.4339 L116.358 200.0812 L115.9325 204.1745 L115.5079 205.1969 L113.2207 205.5988 L110.4387 205.3358 L110.2996 207.7623 L109.697 208.6541 L107.8422 207.4221 L106.0339 206.9897 L104.7294 206.2066 L104.3341 203.4503 L104.4522 200.6433 L102.6031 200.1583 L102.5991 195.8361 L101.5058 193.7756 L99.8675 193.4204 L99.6668 193.5747 L98.863 194.8575 L98.662 195.3831 L97.5803 196.8047 L98.3841 199.0455 L97.8212 200.4483 L95.6947 199.9419 L94.0799 199.3546 L93.3689 199.4012 L92.6887 203.7284 L92.9866 207.3486 L90.9926 207.4705 L89.7766 207.4842 L92.8431 218.3285 L90.9889 221.0225 L89.1214 223.7124 L88.7169 224.6082 L88.6755 227.756 L89.5566 228.3491 L89.8197 230.1147 L93.2321 233.1505 L94.1446 233.5286 L95.9126 233.6564 L95.1924 232.7218 L94.8371 231.8255 L94.0218 231.0169 L92.7043 230.0019 L92.6531 229.0006 L93.5615 228.5842 L94.0951 228.997 L94.3734 228.8892 L95.5618 228.9504 L96.8178 229.5892 L97.6774 230.3658 L98.0051 232.877 L100.7247 235.8676 L99.845 236.5935 L102.0785 238.9485 L103.8844 240.32 L109.4699 242.958 L109.206 243.2845 L110.5971 244.0437 L115.8618 246.9921 L117.1802 250.1875 L116.5601 251.2987 L115.94 253.3874 L112.6561 250.9134 L110.1375 248.3928 L105.1301 246.8319 L101.0421 250.6495 L99.3086 249.6748 L100.0776 250.6372 L99.7749 252.5505 L98.9403 254.1886 L96.8222 253.4568 L96.336 253.5549 L94.4662 255.8116 L93.1933 255.859 L91.0662 257.5733 L88.8374 258.4439 L88.2998 258.4389 L85.3186 261.6669 L85.0023 262.133 L85.8496 262.884 L86.8402 262.852 L88.2946 263.3716 L89.1015 262.7963 L88.9259 263.4756 L89.3494 264.2745 L90.2043 265.3734 L90.5321 265.3094 L90.5881 265.4131 L90.8158 266.4598 L90.6959 268.6853 L90.8356 269.1409 L91.2672 269.9758 L91.7866 270.3675 L94.2598 271.8338 L94.6712 272.2213 L95.1269 273.0207 L95.8778 273.536 L97.2603 274.0633 L97.8197 274.4709 L98.1633 274.8786 L98.5908 275.5496 L99.8493 276.7442 L100.1889 276.9282 L100.6405 277.0478 L101.2157 277.1555 L101.7671 276.9318 L102.5663 277.2158 L102.5143 277.5791 L103.1215 277.8471 L103.9247 277.4993 L104.8515 277.6513 L105.7226 277.5714 L106.9093 278.5702 L107.0131 279.3174 L105.3831 278.5861 L105.1752 279.0933 L107.7764 280.8393 L108.1958 281.1552 L110.3373 282.9888 L110.7567 282.9409 L110.9565 282.6095 L110.8567 281.0392 L111.1804 281.0593 L111.2043 283.1888 L111.0206 283.6325 L110.1935 283.4006 L109.6502 283.5603 L108.9188 284.0556 L107.6525 284.7951 L107.2049 285.6459 L106.8932 285.1543 L102.4505 286.8807 L99.9891 287.496 L99.6734 287.7356 L99.3339 288.3149 L99.0662 288.7024 L98.8245 288.9704 L98.4608 289.3017 L97.3342 290.0531 L94.8153 291.6571 L93.9123 292.7037 L93.1651 293.9306 L92.7416 295.1849 L92.4059 296.028 L92.4818 296.3516 L92.3659 296.5912 L91.7386 296.8592 L91.0556 297.4343 L90.2362 298.5211 L89.8329 299.1085 L88.4424 301.1063 L86.5846 303.9111 L86.4007 304.1648 L85.7096 305.6409 L85.0104 307.5351 L84.0913 310.0718 L83.3456 311.5748 L82.7833 312.3187 L81.6719 313.4301 L80.7999 314.7158 L80.9744 315.3917 L80.691 316.4811 M89.7998 228.723 L90.6051 228.9664 L91.5825 228.9449 L92.1011 230.0453 L93.2979 231.4374 L92.0592 231.9415 L89.9884 229.9992 L89.7998 228.723 M120.446 251.774 L121.6017 251.774 L126.3854 253.6503 L127.1797 255.5468 L127.305 255.881 L128.6346 259.1054 L128.9094 259.7724 L123.1914 257.8641 L120.6903 254.5771 L120.446 251.774 M154.5563 174.2414 L154.6566 174.0989 L154.7912 174.0556 L158.4862 173.365 L158.6756 173.3595 L158.8093 173.4902 L159.1928 175.1448 L159.1534 175.3407 L159.0741 175.4261 L155.093 176.3509 L155.0002 176.1856 L154.5563 174.2414 M162.3603 325.2917 L162.3991 324.8513 L162.4807 324.5131 L162.7199 324.0577 L162.9286 323.8925 L163.2287 323.3708 L163.5033 322.6269 L163.1922 321.5092 L162.5471 320.2017 L162.4704 319.9721 L162.483 319.8836 L162.5083 319.8261 L162.6187 319.7279 L162.8659 319.6029 L162.9973 319.5682 L163.1543 319.5673 L163.3147 319.6239 L163.38 319.7197 L163.5731 320.0027 L164.1268 321.0318 L164.3048 321.5676 L164.3393 321.7972 L164.4827 322.9085 L164.7602 324.1499 L164.7685 324.4219 L164.7237 324.577 L164.2844 325.3209 L164.2039 326.0895 L164.23 326.3063 L164.2355 326.4299 L164.2344 326.5532 L164.1694 326.7736 L164.1228 327.4591 L164.1504 327.9314 L164.1412 328.9222 L164.174 329.9445 L164.3514 331.1497 L164.3203 331.2866 L164.249 331.3086 L164.1329 331.304 L164.0041 331.2679 L163.8141 331.178 L163.6927 331.0457 L163.5887 330.5259 L163.6502 330.0412 L163.6125 329.5246 L163.4265 329.1769 L163.2486 328.9167 L163.1557 328.631 L163.0666 328.1299 L163.1876 327.2934 L163.181 327.1245 L163.1296 326.9 L163.0419 326.7421 L162.9321 326.6043 L162.8194 326.5039 L162.5946 326.3642 L162.4528 326.1191 L162.3764 325.8937 L162.3637 325.4172 L162.3603 325.2917 M164.2338 327.2738 L164.2568 326.9602 L164.339 326.6549 L164.4715 326.4459 L164.6963 326.3697 L164.8047 326.2264 L164.9393 326.0009 L165.0525 325.7121 L165.2906 325.2196 L165.3734 325.1297 L165.5269 325.0754 L166.0205 325.1813 L167.284 325.964 L167.7655 326.0425 L167.9081 326.089 L167.9337 326.089 L167.9739 326.0886 L168.0642 326.1132 L168.1493 326.2218 L168.2614 326.4089 L168.5449 326.6682 L168.8893 326.9233 L169.1681 327.0588 L169.2426 327.0611 L169.2322 326.9548 L169.1946 326.8603 L168.97 326.5764 L168.7783 326.4126 L168.6035 326.1922 L168.3686 325.9553 L167.6591 324.9353 L167.4398 324.5387 L167.4245 324.3301 L167.4156 324.211 L167.455 324.0768 L167.6235 323.7683 L167.7419 323.6693 L167.8796 323.6332 L167.9135 323.6246 L168.0242 323.709 L168.364 324.3826 L168.6187 324.7039 L168.9085 325.4341 L169.213 325.9389 L169.3863 326.209 L169.5151 326.3359 L169.6025 326.3405 L169.6221 326.2428 L169.5315 325.8914 L169.5076 325.7988 L169.1903 325.0476 L168.8361 323.9988 L168.6093 323.3964 L168.5492 322.9286 L168.6567 322.5662 L168.841 322.1641 L169.2802 321.9337 L169.75 321.836 L169.7963 321.8177 L170.1421 321.6826 L170.9059 321.5608 L171.1057 321.4371 L171.5051 321.2299 L171.8147 321.1998 L172.0194 321.2463 L172.2197 321.3221 L172.2519 321.3467 L172.358 321.4275 L172.4135 321.5316 L172.4345 321.595 L172.3678 321.9232 L172.2769 322.1632 L172.2956 322.4507 L172.3827 322.6662 L172.5685 322.9058 L173.0644 323.7236 L173.4361 324.4178 L173.5281 324.6081 L173.5295 324.6784 L173.495 324.7578 L172.03 325.8823 L171.6833 326.0046 L171.4872 326.1725 L171.3607 326.3925 L170.3192 327.4139 L169.6632 328.6183 L169.4542 328.9551 L168.9997 329.4502 L168.5911 329.7838 L167.4941 330.3365 L166.2355 331.0685 L165.9776 331.3857 L165.7646 331.7918 L165.637 332.5795 L165.6074 332.6042 L165.5519 332.6202 L165.4527 332.5595 L165.2535 332.2802 L165.0925 332.0994 L164.805 331.8699 L164.7366 331.7923 L164.4747 331.2364 L164.3347 330.1544 L164.2338 327.2738 M136.1839 343.511 L137.0961 343.2983 L137.3838 343.2591 L137.5897 343.2842 L137.7926 343.4097 L138.0422 343.652 L138.7531 344.3621 L139.0084 344.447 L139.3338 344.4397 L140.612 343.9737 L140.4168 343.8145 L140.217 343.5311 L140.1253 343.2249 L139.9723 343.072 L139.7262 342.9032 L139.1332 342.5545 L138.9946 342.4162 L138.9518 342.3145 L138.948 342.257 L138.9753 342.2159 L139.0521 342.1721 L138.0649 342.2314 L136.572 342.9178 L136.1839 343.511 M143.7205 288.628 L143.8295 288.9224 L144.7011 288.5299 L144.8319 288.7805 L144.5212 289.0703 L144.6382 289.1566 L144.9805 289.409 L145.1318 289.5601 L145.9948 290.4205 L146.7994 290.5319 L147.0303 290.5638 L147.2059 290.7688 L147.4333 291.0345 L147.9643 292.9201 L148.012 292.9593 L148.4318 293.3053 L148.7046 293.5303 L149.0599 293.7713 L149.2715 293.8704 L151.076 293.8261 L153.1902 293.2811 L154.8682 292.4093 L157.3043 292.3463 L157.214 290.6305 L158.7831 281.4766 L150.4114 285.3698 L143.7205 288.628 M154.928 230.0864 L156.0992 230.1553 L157.2523 231.0507 L162.4586 230.1786 L163.9161 228.5166 L164.1168 228.9732 L164.3045 228.976 L164.473 229.2718 L164.5819 229.7663 L164.6167 230.1106 L165.6603 232.4848 L166.1685 232.6273 L167.2745 232.6081 L167.6468 232.5095 L167.965 232.5405 L168.2214 232.5423 L168.6455 232.4095 L169.0296 232.4396 L169.2354 232.4031 L169.4789 232.3113 L169.7419 232.2711 L169.9239 232.4533 L170.1111 232.5227 L170.3028 232.4757 L170.5233 232.578 L170.8257 232.7642 L171.2199 232.7761 L171.2452 232.9044 L171.3602 232.9373 L171.2831 233.0711 L171.3317 233.2619 L171.0238 233.5208 L169.896 235.4781 L169.61 236.1087 L169.5861 236.1411 L169.3656 236.6766 L169.3242 236.7063 L168.6484 237.7829 L168.7602 238.1623 L168.6136 238.3458 L168.3407 238.0824 L168.2088 238.1267 L167.9731 238.3303 L167.925 237.9468 L166.7835 237.9664 L166.1593 237.7509 L165.2722 237.6313 L164.8846 237.5592 L164.5253 237.5879 L163.9578 237.9107 L163.6574 238.4107 L162.8927 238.5928 L162.4709 239.1868 L162.3054 239.3051 L162.0087 239.3704 L161.6832 239.4069 L161.3268 239.3982 L161.1428 239.2617 L160.9625 239.0919 L160.9545 239.0554 L160.9306 239.0608 L160.9197 238.8992 L160.8964 238.5609 L160.5733 237.4428 L160.3689 237.0487 L160.1449 236.8191 L159.6217 236.4082 L158.5086 237.1506 L157.4857 237.4848 L157.1758 241.0414 L157.2531 241.7217 L157.7614 242.2814 L157.7442 244.2971 L157.6924 244.6674 L157.9681 245.6147 L157.0982 246.2521 L157.1916 248.0276 L160.9953 267.6591 L161.1695 269.5116 L160.4505 273.62 L159.317 280.6704 L157.628 290.8701 L157.8764 291.9323 L160.059 291.1874 L160.6716 292.9264 L161.2437 293.3532 L161.5806 293.6166 L161.9566 293.859 L162.1855 294.0511 L162.2631 294.1356 L162.4701 295.9623 L163.5424 296.7848 L164.7987 296.9619 L165.5714 300.1035 L166.7679 299.5417 L167.4933 299.1838 L167.3328 297.1536 L166.1125 295.1361 L166.6699 294.8558 L167.4872 294.8937 L167.5145 294.5998 L167.7215 294.131 L168.1358 293.7061 L168.5497 294.3601 L168.7774 294.8485 L170.6173 298.0391 L172.2445 297.3042 L170.4448 294.8759 L169.9665 293.6841 L170.4287 292.4832 L171.6011 292.3057 L172.0314 293.0848 L175.7949 294.3013 L176.8215 294.8869 L178.5918 295.1156 L178.8025 295.1776 L178.9506 295.3228 L179.0109 295.5839 L179.0575 296.861 L178.9534 299.5298 L178.86 300.6403 L178.7102 301.5678 L178.6211 301.8535 L178.4874 302.0539 L178.1965 302.2803 L178.0671 302.4222 L178.0427 302.6367 L178.1344 303.0051 L178.1838 303.3049 L178.1893 303.5569 L178.1111 303.9526 L177.9406 304.4565 L177.794 305.106 L177.6733 305.4912 L177.5942 305.6679 L177.3444 305.9257 L176.9356 306.1973 L176.6044 306.342 L176.1005 306.5232 L175.6816 306.7217 L175.5974 307.222 L175.6252 307.305 L175.7072 307.4511 L175.8041 307.5866 L176.3649 307.9112 L176.49 308.0723 L176.5121 308.1727 L176.4078 308.6177 L176.4523 308.8226 L176.5596 308.9737 L176.9885 308.9687 L177.1575 309.0572 L177.4749 309.4443 L177.7914 310.1585 L178.4095 310.9545 L178.505 311.4013 L178.6018 311.8564 L178.6297 312.5442 L178.7706 313.3324 L179.2027 314.1051 L180.4713 315.6204 L181.2205 316.7385 L181.5661 317.2543 L181.7673 317.9891 L182.0283 318.9425 L182.743 319.8502 L183.105 320.2021 L183.5025 320.4207 L183.8199 320.4477 L184.0674 320.2642 L184.3023 319.9876 L184.3989 319.7991 L184.5392 319.5253 L184.6832 319.3309 L184.9411 319.1629 L185.071 319.1246 L185.207 319.0849 L185.3832 319.1351 L185.6604 319.4409 L186.3475 320.1163 L186.5662 320.5088 L186.7439 320.538 L186.7758 320.5353 L187.1153 320.5079 L187.4646 320.5549 L187.7047 320.6795 L188.0787 320.8182 L188.1839 320.8922 L188.3207 320.988 L188.5568 321.2039 L188.6499 321.2203 L188.7114 321.0957 L188.6924 320.9584 L188.683 320.8885 L188.7016 320.7826 L188.7589 320.6877 L188.9469 320.6152 L189.0412 320.5786 L189.2858 320.4038 L189.4158 320.266 L189.404 320.0606 L189.2867 319.8365 L189.1234 319.7124 L189.0147 319.6298 L188.5849 319.2044 L188.3961 318.398 L188.5366 317.1904 L188.7652 316.8691 L188.9693 316.7002 L189.1265 316.6413 L189.324 316.6057 L189.5011 316.6934 L189.7009 317.0676 L189.7119 317.074 L189.9476 317.2118 L190.1707 317.1808 L190.2776 317.1164 L190.3535 316.9777 L190.3331 315.8235 L190.3225 315.2096 L190.4771 313.2443 L190.4869 313.1211 L190.2334 311.6277 L189.3525 312.0431 L188.5961 311.5259 L188.5507 311.3744 L188.6626 311.0444 L188.6792 310.4707 L188.5553 310.0778 L188.3489 309.7172 L188.2561 309.4607 L188.24 308.709 L188.0703 308.4342 L186.382 308.0787 L184.9287 307.5209 L184.4576 306.9312 L182.1588 300.6631 L182.2546 299.7635 L182.1916 298.8488 L182.0801 298.396 L182.0766 298.0984 L182.12 297.9021 L182.2784 297.7931 L182.7907 297.7643 L183.6345 297.4183 L183.8354 297.0367 L183.7938 296.7939 L183.8127 296.5388 L183.9628 296.3069 L184.8054 296.0668 L185.3157 295.7847 L185.7731 295.5318 L186.3109 295.1763 L187.0578 295.0197 L187.5164 294.6587 L188.0666 294.4838 L188.4728 294.556 L188.8253 294.6856 L189.0248 294.907 L189.0961 294.9759 L189.1401 294.9964 L189.1711 295.011 L189.2778 295.0046 L189.3606 294.9768 L189.3836 294.9462 L189.4937 294.8011 L189.7521 294.728 L190.273 294.702 L190.4357 294.7294 L190.6789 294.7705 L190.9437 294.87 L191.0185 294.8978 L191.2444 295.132 L190.9483 295.6528 L190.8503 295.9495 L190.5918 296.7332 L190.8598 297.0504 L192.0819 296.756 L194.0333 296.7405 L195.5216 296.8423 L196.6017 297.2198 L197.7407 298.4832 L197.9396 298.6676 L198.0419 298.873 L198.0494 299.381 L198.0155 300.2176 L197.9612 300.6978 L197.9991 300.7959 L198.1316 300.9187 L198.2573 300.8101 L198.3133 300.6161 L198.4099 299.7831 L198.3495 298.4951 L198.4352 298.3965 L198.5367 298.3823 L198.7192 298.4193 L199.7021 298.8725 L200.754 299.1049 L200.9958 299.1213 L201.3017 299.0916 L201.7384 299.0852 L202.0146 299.1715 L202.1716 299.1418 L202.3073 299.0775 L201.2704 297.1705 L201.2163 296.8961 L201.2232 296.767 L201.4144 296.6004 L201.4262 296.5899 L201.6783 296.4392 L202.1544 296.2498 L202.2941 296.2014 L202.5873 296.1403 L202.8906 296.1234 L203.0145 296.1613 L203.557 296.3137 L203.6858 296.3206 L204.0885 296.2448 L204.1294 296.1521 L204.1334 296.0458 L204.1348 296.0107 L203.9845 294.9093 L204.2291 294.7057 L204.351 294.7235 L205.1128 294.8399 L206.2875 295.0193 L207.072 295.1681 L207.8988 295.2657 L208.3283 295.2648 L208.5296 295.3776 L208.5537 295.4123 L208.6684 295.5784 L209.5113 295.7318 L209.9949 295.7646 L210.3145 295.9276 L211.2322 296.5388 L211.8859 296.8176 L212.6949 296.7852 L213.2767 297.0532 L213.7911 297.4005 L214.2795 297.7725 L214.6871 297.9154 L215.1253 298.2618 L215.664 298.7461 L216.1162 298.5663 L217.3093 297.1225 L217.6255 297.1823 L216.0004 299.213 L218.4195 300.7485 L221.1201 302.6509 L221.3251 302.8795 L221.6773 303.1005 L224.8904 303.587 L223.719 307.6629 L223.6684 307.8208 L222.0553 309.7692 L221.2041 310.3995 L220.4851 311.0613 L220.1036 311.6191 L219.8069 312.0531 L219.6741 312.9723 L220.0009 313.7445 L223.9622 312.4821 L224.6835 312.3758 L229.8084 312.2151 L229.8774 311.5766 L229.8193 310.7222 L229.9337 310.3571 L230.5475 310.1476 L232.369 310.3854 L233.5885 311.8724 L237.0897 311.7774 L238.6275 311.368 L240.4455 310.6793 L244.8949 307.4543 L244.831 307.3799 L244.6137 306.8468 L244.4766 305.8427 L244.4383 304.4734 L244.4389 303.4172 L244.5387 301.3952 L244.4392 301.1812 L244.403 300.9749 L244.3834 300.4395 L244.4079 299.8315 L244.4096 298.6635 L244.3791 298.3485 L244.307 298.0934 L244.0741 297.8688 L243.7426 297.6602 L243.7354 297.6584 L243.6038 297.5397 L243.5138 297.395 L243.4603 297.2157 L243.4281 296.798 L243.4347 296.4534 L243.5204 295.9614 L243.6107 295.5925 L243.8318 294.3077 L244.1802 293.5933 L244.4613 293.3847 L244.7347 293.2683 L245.8536 292.9328 L245.8729 292.8744 L245.9295 292.7028 L245.9422 292.6987 L246.1414 291.7598 L246.6019 290.6373 L247.107 289.4067 L247.241 289.268 L247.713 285.4351 L249.6202 284.5783 L251.8462 284.4829 L254.3102 285.7742 L255.1844 286.1905 L255.5196 286.3169 L256.3027 286.2115 L257.4038 286.0189 L257.791 286.0111 L257.9086 285.9851 L257.7051 285.4063 L249.2082 277.423 L248.6088 277.1071 L248.8158 276.7798 L248.7724 272.5847 L248.3147 269.2829 L249.2626 265.109 L249.6768 264.3681 L250.1345 263.4638 L254.1227 258.1677 L254.8639 255.6614 L254.6023 254.4625 L253.578 253.3728 L251.4204 255.5523 L251.1151 255.2907 L253.2729 252.8496 L248.4128 246.6821 L245.841 244.1757 L226.7818 229.3011 L224.9292 227.514 L223.6433 228.0039 L222.2376 227.7861 L221.148 224.6694 L217.9659 220.9865 L216.5276 218.4906 L216.9634 220.7682 L216.5492 220.9645 L214.3479 220.812 L210.0983 214.3291 L209.292 209.9825 L205.6522 210.961 L205.7936 212.3012 L207.1269 216.524 L205.5492 217.0697 L205.2971 218.019 L205.8065 219.7386 L204.7647 221.165 L203.0481 218.55 L198.3357 217.5514 L197.1099 219.0824 L199.473 221.675 L199.3914 223.8 L196.6833 222.4462 L194.3369 222.9384 L193.615 219.7714 L193.481 219.3212 L193.283 218.3135 L192.5939 217.082 L192.1287 214.5071 L193.5325 212.2765 L191.6466 211.467 L188.3825 210.6226 L187.6158 210.7432 L185.3766 211.8715 L184.6878 212.6382 L184.1195 214.0245 L182.9566 213.9902 L179.9165 213.8953 L177.5456 214.9464 L176.4046 214.214 L176.4615 212.0638 L176.0248 211.409 L175.4769 211.9491 L175.2463 212.8067 L174.4368 212.4204 L173.535 212.4478 L172.663 211.688 L171.4177 209.0601 L172.0924 206.9367 L172.0863 205.275 L169.4783 203.6891 L169.008 203.4768 L168.2076 203.0028 L168.0955 202.8987 L165.7856 202.1297 L164.1332 201.4411 L163.9794 201.3926 L163.8808 201.336 L163.6502 201.2251 L163.2322 201.9753 L163.7005 202.7818 L165.1106 203.5823 L166.4759 204.1106 L166.5463 205.0353 L165.5203 205.5988 L165.0755 206.2682 L165.4541 207.2902 L165.3837 209.034 L165.058 210.1085 L164.4402 211.6647 L163.6787 213.4743 L160.6359 213.8094 L159.3595 216.1473 L159.1824 217.0217 L159.0706 217.2455 L158.2786 218.3984 L157.902 219.2386 L157.0551 221.3969 L156.0733 224.1096 L155.9184 224.816 L155.3845 226.0561 L155.281 226.435 L155.1002 227.4254 L154.928 230.0864 M165.8592 213.9656 L166.097 211.7377 L167.5318 211.9245 L167.9179 212.5597 L167.8949 213.5843 L166.6167 214.3446 L165.8592 213.9656 M172.8375 207.9139 L174.2126 208.2979 L174.2824 209.3587 L175.9162 209.7359 L176.7171 208.4957 L176.6912 206.6267 L174.2712 206.8422 L173.1713 206.9504 L172.8375 207.9139 M187.7064 187.6453 L187.9519 190.5475 L188.658 192.4335 L188.6838 193.4067 L188.3998 193.4153 L188.1554 193.8496 L188.4607 196.0571 L190.7908 203.4987 L192.0031 205.4435 L193.6274 207.9847 L194.7161 209.0678 L195.4235 209.871 L195.9016 210.5825 L196.5801 211.2459 L197.3497 211.5217 L197.7269 211.6587 L198.1885 211.8208 L198.4999 211.7176 L198.7031 211.724 L199.3598 211.5811 L199.6691 211.4039 L201.4121 209.8642 L203.8364 207.9897 L208.161 204.2964 L208.3608 201.8612 L208.5353 199.8136 L208.6693 198.2838 L209.1951 193.2838 L209.2621 192.0125 L209.6634 190.1387 L211.327 184.4024 L210.1702 179.7182 L210.0075 178.1595 L209.7781 175.7792 L209.4627 171.9072 L209.6732 170.0333 L209.998 168.9724 L210.6196 167.8443 L212.1395 165.9416 L213.7267 163.1788 L214.1076 161.8397 L212.2102 157.5144 L208.4816 158.3868 L207.7853 157.0298 L207.5676 154.5579 L208.8093 153.6554 L206.027 150.0283 L202.8239 152.3806 L197.3043 153.2712 L198.4312 155.3631 L195.0015 157.8707 L190.3 158.7344 L190.1592 158.8979 L190.1454 158.9422 L190.5053 160.3964 L188.2342 161.0222 L188.4958 162.0178 L188.4461 164.0361 L188.286 165.0916 L188.1503 168.4978 L188.2402 172.2767 L187.9507 176.9205 L188.0545 180.3585 L187.9001 181.1513 L187.9519 182.6757 L187.8743 183.7781 L187.8829 184.0796 L188.0082 184.0485 L187.7064 187.6453 M204.5724 189.1628 L205.0505 189.1934 L205.2833 188.9646 L205.2819 189.3784 L206.6698 190.2885 L207.3037 190.9078 L207.2575 191.2005 L206.9335 190.9539 L206.2225 190.3041 L205.0211 189.6122 L204.5724 189.1628 M206.5235 155.9144 L206.8906 153.659 L207.5248 153.9093 L207.1537 155.4951 L207.2152 156.3342 L207.5107 158.29 L206.9487 158.279 L206.8809 157.3874 L206.5235 155.9144 M207.3793 191.353 L207.5196 191.1777 L207.99 191.116 L208.05 191.5074 L207.9437 191.6631 L207.6105 191.5996 L207.3793 191.353 M208.8484 201.7657 L209.2152 201.7187 L209.7562 201.7269 L210.7929 202.0374 L211.035 202.7699 L210.7297 204.17 L210.3991 207.4532 L210.9591 208.5701 L215.3616 213.6633 L216.669 216.8126 L217.2032 218.3272 L218.2384 220.365 L220.0909 222.8713 L222.0849 224.6913 L226.4003 227.8952 L246.2549 243.6091 L248.9576 246.3333 L253.9485 252.6756 L254.842 252.1305 L255.7355 250.7358 L255.9753 250.9102 L254.842 253.591 L255.3215 254.3972 L255.2235 256.3914 L254.7221 258.1567 L253.774 259.6605 L251.0171 263.1693 L250.1454 264.4334 L249.35 266.275 L248.9466 267.9859 L248.9576 269.4897 L269.2828 265.8381 L269.2561 266.0389 L259.0344 267.9809 L248.8814 269.8494 L249.1755 272.5409 L249.2192 276.6712 L257.8143 284.8832 L258.2498 284.7431 L259.0485 284.3313 L260.7259 283.4727 L261.7344 282.8574 L264.0343 281.6103 L264.5164 281.4199 L265.0051 281.2784 L265.2819 281.3109 L266.3151 281.9517 L266.4339 281.9727 L266.8904 281.8979 L267.1054 281.8102 L267.7408 281.6528 L269.3067 281.173 L270.1524 280.8334 L270.5512 280.7293 L270.962 280.6522 L271.5539 280.6001 L271.7523 280.6019 L272.5311 280.7393 L272.8913 280.7768 L273.6577 280.7571 L274.13 280.7439 L274.5006 280.9169 L274.7375 280.9877 L274.9764 281.0132 L275.5177 280.9553 L275.8748 280.9685 L276.2186 281.0374 L276.4043 281.1278 L276.6849 281.3378 L277.0655 281.4638 L277.4148 281.4199 L277.8656 281.3332 L278.2246 281.1187 L278.4635 281.0237 L278.8528 280.9703 L279.4186 280.8183 L279.8403 280.6695 L280.6237 280.0665 L280.8105 279.9948 L280.5426 278.5227 L279.9309 276.7251 L279.2903 273.867 L282.6841 273.3124 L282.6363 274.67 L282.1011 275.3866 L282.0053 275.8363 L282.1488 276.2855 L282.5504 276.1613 L282.4834 276.8593 L282.321 277.2226 L281.6805 277.1651 L281.7569 276.7251 L281.7089 276.0371 L281.3648 275.5875 L280.2272 276.4 L280.6289 277.5855 L281.3749 280.2422 L281.414 281.0046 L281.899 281.199 L282.0344 281.2218 L282.5869 281.2456 L283.0667 281.3414 L283.5204 281.2168 L284.0321 280.4157 L284.5205 280.8562 L284.687 280.8667 L284.8546 280.9142 L284.9097 281.0475 L285.3171 282.7414 L285.4203 283.0354 L285.575 283.5941 L285.6644 283.7352 L285.7713 283.7616 L285.9691 283.7594 L286.2966 283.6772 L287.0023 283.5517 L287.69 283.5362 L288.0433 283.5832 L288.5507 283.7 L288.8109 283.8214 L289.0225 284.041 L289.2812 284.5148 L289.4589 284.7887 L289.6909 285.0055 L289.7282 285.058 L289.8389 285.2132 L290.0209 285.6396 L290.4855 284.8896 L290.8103 285.4634 L290.9681 287.0938 L291.995 286.862 L292.4973 286.7688 L293.3793 286.7401 L293.4574 286.7666 L293.87 286.8629 L294.1514 286.8944 L294.7206 286.8716 L294.9848 286.8907 L295.1979 286.8875 L295.5 286.8729 L295.7035 286.8916 L295.724 287.0902 L295.7472 287.1409 L295.7533 287.2148 L295.7378 287.6475 L295.91 290.6387 L296.1043 293.2167 L296.1894 293.7946 L296.2736 294.1872 L296.3619 294.2401 L296.3607 294.2209 L296.9837 293.8827 L297.851 293.7312 L298.2003 293.7494 L298.5381 293.8147 L298.7511 295.0033 L298.8535 295.8956 L298.9535 296.9422 L299.0268 297.9966 L299.0826 298.2541 L299.289 298.3746 L299.582 298.4339 L299.9281 298.428 L300.5988 298.3193 L300.8656 298.3367 L301.1496 298.422 L301.4848 298.0756 L303.6484 308.6104 L303.8088 308.6373 L304.9786 308.494 L305.795 308.3945 L306.7972 308.1873 L307.3773 308.0663 L307.3785 308.0691 L307.5104 308.0107 L307.6024 307.6875 L307.5199 306.08 L307.5297 305.7267 L307.5659 305.4483 L307.9333 305.2032 L309.7341 304.4474 L310.6598 304.0891 L312.761 303.5363 L312.761 303.5405 L313.2655 303.4218 L313.691 302.7837 L313.7988 300.3299 L313.8146 298.5229 L313.3989 298.05 L313.336 297.8875 L313.1686 297.7912 L312.7179 297.4265 L312.514 296.0504 L312.5517 295.8705 L312.5767 295.7518 L312.838 295.4885 L313.3906 295.3009 L313.9279 295.1822 L314.4384 294.959 L315.3607 293.9671 L315.5958 293.7494 L315.6651 293.6855 L316.1547 293.581 L316.4502 293.6275 L316.6707 293.701 L316.8743 293.7102 L316.9482 293.5842 L317.1997 293.4007 L317.7569 293.246 L319.0945 293.0008 L319.6151 293.0328 L320.6161 292.6644 L321.1178 292.4504 L321.5151 292.2139 L321.8862 292.1509 L322.1783 292.2641 L322.4244 292.5243 L322.4267 292.7188 L322.433 293.219 L322.6918 294.3967 L323.5637 296.4639 L324.4129 299.8215 L324.4512 299.92 L324.4946 299.9625 L325.048 299.8753 L325.0816 299.6969 L325.0278 299.3317 L324.8082 298.7201 L324.5477 297.7784 L324.4767 297.3161 L324.3681 296.8217 L324.1438 296.2352 L324.1539 295.824 L324.3715 295.5414 L324.814 295.3032 L326.2344 294.7568 L326.5616 294.5792 L326.776 294.4259 L327.0129 294.377 L327.2762 294.3697 L327.4608 294.4811 L327.4996 294.7367 L327.5884 294.9937 L327.7673 295.7313 L327.9314 296.1188 L328.1602 296.4644 L328.2419 296.8838 L328.3385 297.1974 L328.7453 299.0341 L328.9034 300.4993 L328.8605 300.5942 L328.7479 300.8434 L328.8344 301.0552 L329.0023 301.2268 L329.6934 300.5426 L329.6753 300.497 L329.5971 300.2263 L330.0533 299.816 L330.2706 299.5914 L330.4972 299.2833 L330.7128 298.9264 L330.841 298.5946 L330.3465 298.0245 L330.2318 297.5762 L330.448 296.8592 L330.582 296.8122 L330.9554 296.8852 L331.1133 297.348 L331.3447 297.7428 L331.656 297.9985 L331.8463 298.3869 L332.0852 298.8753 L332.5872 299.7717 L332.559 300.355 L332.599 300.6188 L332.6958 300.9657 L332.8836 301.2218 L333.2007 301.9443 L333.6517 302.6486 L333.855 303.0516 L334.2477 303.3871 L334.4196 303.5583 L334.7036 303.7636 L334.8951 304.0188 L335.4962 305.6135 L335.5546 305.8002 L335.5135 305.9837 L336.0666 306.8317 L336.5544 307.3817 L336.6861 307.5296 L336.9126 307.9499 L337.117 308.5346 L337.4591 308.3899 L337.422 308.2653 L337.5195 308.1736 L337.5255 308.1508 L337.6785 307.8742 L337.7906 307.7573 L338.513 307.4835 L338.948 307.3698 L339.115 307.3607 L339.1291 307.3653 L339.1205 307.2046 L339.1412 307.0604 L339.207 306.9504 L339.3028 306.8911 L339.3373 306.881 L339.803 306.8824 L340.1273 306.9016 L341.3008 307.0905 L341.5971 307.1521 L342.1465 307.117 L341.8266 306.8372 L341.7234 306.8043 L341.4502 306.7911 L340.8267 306.7021 L339.8832 306.4132 L339.4324 305.9531 L338.8574 305.4602 L338.6608 305.1685 L340.0378 304.5743 L340.8077 304.1626 L341.3056 303.0261 L341.4114 302.4071 L341.3631 301.9626 L341.3206 301.2232 L341.3864 300.8375 L341.314 299.8698 L341.1538 299.5732 L340.9075 298.9775 L340.8943 298.0888 L340.9147 297.2084 L340.9586 296.5602 L340.9917 296.3776 L341.8674 296.1047 L342.4107 296.0307 L343.3401 295.8208 L343.5779 295.6355 L342.5151 290.7574 L342.4188 290.4433 L342.3276 290.2147 L342.2296 290.0554 L342.1132 289.9262 L342.0025 289.8422 L341.8792 289.8468 L341.6983 289.8837 L341.289 290.0019 L341.0015 290.012 L340.921 289.9983 L340.601 289.7829 L340.4119 289.5359 L338.9684 286.8159 L338.9285 286.6433 L339.0135 286.4142 L338.9983 286.3863 L339.0391 286.3562 L339.0731 286.28 L339.272 286.1038 L339.6124 285.9038 L340.5634 285.4186 L340.6853 285.4141 L340.8054 285.4414 L341.4209 285.8965 L342.054 286.2489 L342.5648 286.379 L342.8333 286.3982 L343.0251 286.3699 L343.0311 286.3667 L343.9878 286.0951 L343.989 286.0947 L343.9933 286.1093 L344.158 286.0723 L344.1488 286.0371 L344.8106 285.8929 L345.1283 285.8559 L345.3045 285.8212 L345.6072 285.74 L345.6659 285.8961 L345.7412 285.9641 L345.7981 286.0664 L345.8852 286.4457 L346.265 287.4919 L346.2817 287.5097 L346.6517 287.4481 L347.2809 286.201 L347.3796 285.8792 L347.7524 283.2837 L347.7498 282.951 L346.7546 278.6395 L348.7776 276.5657 L349.0199 276.3024 L350.0172 274.9922 L350.6318 275.8974 L351.4201 275.7765 L351.511 275.404 L350.9466 274.2103 L351.6918 272.3327 L353.7663 271.8707 L355.2206 271.7785 L356.7086 271.9018 L357.2353 271.9643 L357.6326 270.3104 L357.6674 270.1584 L357.954 269.9105 L358.4726 269.6435 L358.809 269.5974 L359.0574 269.7435 L359.1192 270.3935 L359.0591 270.6619 L359.3454 270.8742 L359.3629 271.4348 L359.2419 272.5473 L359.0875 275.5656 L359.283 276.3055 L359.4762 276.6315 L359.4742 276.7305 L359.4601 276.7547 L361.4748 275.2716 L362.6287 274.5006 L362.9936 276.5146 L363.8181 276.7862 L366.1136 276.4028 L366.8671 276.0499 L367.2667 273.7561 L366.6794 272.4656 L366.8886 271.0714 L366.8797 270.9874 L366.5391 270.2516 L366.0728 269.9507 L365.3066 269.7804 L364.5284 269.7101 L364.2407 269.6293 L364.159 269.4833 L364.015 268.6387 L363.6114 267.5208 L363.2095 266.2047 L363.0327 264.9949 L363.0217 264.2467 L362.9665 264.1189 L362.0889 265.4879 L359.8982 265.0844 L360.6178 263.5592 L361.8799 263.6993 L362.2473 262.6507 L362.3947 261.8518 L362.3717 260.4677 L362.2849 259.8582 L362.2838 258.7461 L362.2473 258.044 L361.9652 257.0848 L360.0771 255.6874 L359.8275 255.6221 L357.5228 256.1083 L357.3756 256.484 L357.0637 257.6687 L356.8984 259.0954 L356.7635 259.4409 L356.6543 259.5587 L356.5864 259.6267 L356.5169 259.8829 L356.2886 259.8281 L356.2498 259.8545 L355.9123 259.9545 L355.5668 259.9646 L355.0315 259.7934 L355.0194 259.781 L354.9947 259.7842 L354.8932 259.7587 L354.7736 259.6719 L354.6238 259.4332 L352.7903 259.1059 L349.5115 260.1376 L349.1634 260.1362 L349.0375 260.1823 L348.5991 260.2088 L346.1839 260.096 L343.5161 259.8851 L343.2401 259.7696 L343.1771 259.6414 L343.2392 258.7014 L343.3424 257.6062 L343.381 257.4642 L343.4986 257.3281 L343.5897 257.0259 L343.6101 256.7205 L343.6466 256.5333 L343.7676 256.3594 L343.3459 256.2804 L341.2921 256.3882 L339.1616 257.2341 L338.1744 257.5537 L337.8717 257.8947 L337.8932 258.0243 L337.8964 258.3508 L337.8728 258.5115 L337.9884 259.9372 L337.9516 260.2732 L337.9381 260.6315 L337.9815 261.404 L338.0833 261.5765 L338.1436 261.8372 L338.1612 262.6343 L338.2586 263.4122 L338.1965 264.5343 L338.0493 265.031 L337.9277 265.2296 L337.673 265.3017 L337.5324 265.3003 L337.2556 265.1478 L337.2447 265.1383 L336.927 264.857 L335.7955 263.7655 L334.5015 262.6338 L334.2491 262.2741 L334.0568 261.9472 L333.8455 261.5318 L333.8397 261.0392 L334.0611 260.2015 L334.4503 258.9799 L334.5789 258.7383 L333.1216 259.2588 L333.0834 259.0853 L334.3894 258.6219 L334.5211 258.527 L334.4664 258.4886 L334.411 258.3553 L334.4199 257.9362 L334.4894 257.566 L334.714 257.3172 L334.7953 257.2346 L334.8729 257.0748 L334.879 256.6639 L334.9129 256.3361 L334.8821 256.2631 L334.8209 256.117 L334.7761 255.7874 L334.81 255.46 L334.9057 255.161 L335.1006 254.8939 L334.7511 253.8147 L335.9599 253.1267 L336.0528 254.1073 L336.4294 254.048 L336.8005 254.0507 L337.1613 254.1302 L337.4203 254.1813 L337.673 254.3548 L338.4676 254.5333 L338.6111 254.6132 L338.7229 254.4324 L338.7729 254.3881 L338.8267 254.3854 L338.9072 254.3972 L339.019 254.3666 L339.3985 254.331 L339.5057 254.2708 L339.9105 253.98 L340.0603 253.9644 L340.3794 254.0046 L340.4622 254.1101 L340.4541 254.3484 L340.5306 254.4872 L340.7005 254.5219 L340.9908 254.4077 L341.4166 254.4114 L341.5707 254.4812 L342.0341 254.6086 L342.1491 254.6634 L342.4176 254.9373 L342.6749 255.0679 L343.0015 255.1309 L343.3183 255.1204 L343.5394 255.0619 L343.7596 254.9578 L343.88 254.8154 L343.926 254.5689 L343.9358 254.3854 L344.2296 253.3308 L344.2756 253.1034 L344.3469 252.9048 L344.4435 252.7345 L344.6079 252.6373 L345.7921 252.5665 L346.1325 252.4958 L346.204 252.4688 L346.315 252.4948 L346.5947 252.5469 L346.925 252.4807 L347.1714 252.3529 L347.2801 252.1807 L347.2488 251.8657 L347.3284 251.6854 L347.3876 251.6649 L347.4825 251.6023 L347.6475 251.2983 L347.6584 251.1681 L347.6067 251.0458 L347.4848 250.939 L347.2151 250.8285 L347.1151 250.7541 L346.9049 250.3021 L346.8244 250.1062 L346.8095 250.0254 L346.7839 249.9583 L346.687 249.9136 L346.4122 249.8684 L346.2929 249.6278 L346.2167 249.4022 L346.0801 249.189 L346.0324 248.9886 L346.064 248.6444 L346.0278 248.318 L346.0293 247.8418 L346.181 246.9844 L346.382 245.7298 L346.426 245.2431 L346.4723 244.6295 L346.4703 244.2195 L346.5088 244.1725 L346.5594 243.5415 L346.5068 243.0854 L346.474 243.0822 L346.3492 242.8489 L346.1799 242.0846 L346.2817 241.2551 L346.2911 241.219 L346.2325 240.7099 L344.2972 240.6803 L342.9713 239.8169 L341.4934 235.0896 L341.2136 234.8143 L340.8609 234.7627 L339.6799 235.8667 L339.6293 236.6561 L339.4022 237.2629 L338.9606 237.6916 L338.7011 238.0294 L338.3357 238.4111 L338.0358 238.6052 L337.5879 238.8362 L337.2044 238.901 L337.1311 238.9024 L336.6108 239.522 L333.3266 238.439 L333.7009 236.8442 L335.5859 236.6483 L336.0602 234.822 L336.6611 231.0553 L336.7028 230.9941 L336.6826 230.9726 L336.6602 230.8466 L336.6711 230.7471 L337.1446 229.9375 L337.6799 229.2956 L339.0966 224.2429 L338.4696 223.6557 L337.523 222.9088 L337.3962 222.764 L337.3795 222.5731 L337.2872 222.5037 L337.4706 222.2567 L337.757 221.5992 L338.15 221.1015 L338.5004 220.849 L338.5708 220.8111 L339.2861 219.8719 L342.4481 223.969 L344.0543 223.6882 L345.1964 222.5316 L345.268 222.3462 L345.3039 222.2828 L345.3652 222.2207 L345.4477 222.1581 L345.621 222.1015 L346.3607 221.3527 L345.9209 220.581 L346.056 220.0321 L346.0491 219.9792 L346.081 219.9308 L346.1304 219.7299 L341.1481 210.6633 L335.7992 211.7546 L333.9898 212.003 L332.3928 211.9409 L330.6277 211.666 L327.044 210.6546 L322.2804 209.1199 L317.6945 207.8427 L313.8623 206.9733 L309.9238 206.592 L309.5067 208.8537 L307.7769 208.3304 L307.7326 205.8554 L300.0951 203.3809 L288.9891 199.5752 L283.0635 197.6769 L274.6366 194.8917 L269.6867 193.277 L267.1054 192.0796 L263.0603 189.5428 L260.9936 187.7951 L257.8088 184.7879 L256.9841 183.8033 L256.1236 182.4729 L255.1479 180.0246 L254.7929 178.7646 L254.4117 176.8752 L253.8882 177.1593 L254.2607 178.6408 L253.8703 184.9121 L251.2359 184.5394 L248.8408 181.2928 L248.424 180.6366 L248.5746 179.2437 L249.8786 179.7584 L252.1406 179.2085 L251.7326 178.5075 L252.7793 176.9552 L254.0744 175.8641 L253.1787 170.5773 L252.3979 170.5151 L250.9487 165.2492 L249.8697 161.8516 L250.6681 160.9705 L249.3641 160.5714 L247.0932 161.2455 L245.2749 161.4049 L242.2055 161.2277 L241.3275 160.5535 L242.0548 159.6752 L242.1258 159.5245 L242.3317 159.2363 L241.4324 159.123 L240.9535 159.1075 L240.8698 159.0979 L240.5366 159.0194 L240.0103 158.9463 L239.8395 158.9367 L239.6569 158.9618 L233.2041 159.6154 L233.0164 159.662 L232.6993 159.7013 L231.7595 159.6894 L231.4042 159.9511 L231.3484 160.0982 L231.3134 160.2644 L231.4111 161.1624 L232.1258 164.1544 L232.1442 164.2316 L232.4052 164.9336 L232.5441 165.5858 L232.5449 165.9256 L232.5087 166.386 L232.4409 166.7061 L232.3063 166.8409 L232.2299 166.9176 L231.9001 166.992 L231.7299 166.9779 L231.4097 166.7815 L231.1285 166.5093 L230.9592 166.1763 L230.6723 165.4077 L229.9544 164.7189 L225.771 162.7888 L214.4226 162.7235 L212.0823 166.8308 L210.9732 167.9877 L210.132 169.5556 L209.9408 170.6933 L209.8068 172.0314 L210.3039 178.7714 L210.7725 180.8654 L211.6329 184.412 L209.5774 192.2038 L209.1474 199.1062 L209.0229 200.4638 L208.8484 201.7657 M215.2684 178.6728 L215.3452 177.8416 L215.4438 177.4986 L215.572 177.0524 L216.4974 172.3635 L216.6426 170.3087 L215.9739 165.4451 L216.5581 165.4986 L216.6604 165.5081 L216.6966 165.5323 L216.9482 165.8913 L217.129 166.0946 L217.2414 166.1617 L217.4153 166.2252 L217.5312 166.2257 L217.7103 166.2051 L218.0047 166.1233 L218.0869 166.058 L218.5998 165.3661 L220.2942 165.3099 L220.6691 165.2976 L220.6291 162.9162 L223.5853 162.9578 L224.419 163.2825 L225.1342 163.4291 L225.3173 163.1428 L225.499 163.0806 L225.6942 163.0578 L226.1637 163.2588 L226.7082 163.6438 L227.1319 163.9626 L227.47 164.4714 L227.6172 164.824 L227.6954 165.3095 L227.7543 165.6758 L227.6865 166.692 L227.7394 167.625 L227.8725 169.0313 L227.8889 169.2039 L227.8061 169.8077 L227.5011 170.4973 L227.2837 170.8111 L226.4164 172.0639 L226.4903 175.3334 L226.4506 175.6166 L226.3649 175.7152 L226.2111 175.7696 L225.8702 175.8162 L225.7049 175.8143 L225.5942 175.7919 L225.4881 175.7403 L225.3746 175.6358 L225.3311 175.5298 L225.2777 175.1685 L224.4977 175.2964 L223.6244 175.528 L223.6083 175.5924 L223.6287 175.9833 L223.6853 176.0957 L223.6945 176.2226 L223.6155 176.4615 L223.5341 176.593 L223.3791 176.7592 L223.3053 176.9433 L223.2874 177.0246 L223.3067 177.0757 L223.3475 177.1031 L223.3837 177.094 L223.5154 176.9392 L223.5956 176.8912 L223.6646 176.8816 L223.9366 177.0885 L224.0383 177.2278 L224.1168 177.4411 L224.3244 177.8101 L224.7154 178.1627 L225.3294 178.5134 L225.7618 178.5468 L225.8515 178.5536 L225.859 178.6312 L226.0513 180.6517 L226.17 181.2193 L226.1559 181.2668 L225.3493 181.7756 L225.2748 181.7445 L225.2277 181.7011 L225.1768 181.5714 L225.1857 181.4303 L225.1874 181.3463 L225.238 181.2317 L225.3516 181.0814 L225.399 181.0188 L225.395 180.928 L225.3202 180.8348 L225.1644 180.8147 L225.0215 180.8261 L224.9591 180.8416 L224.8016 180.8814 L224.5285 180.8773 L224.011 180.9316 L223.7497 181.0755 L224.3071 181.9806 L223.6796 182.4976 L223.5594 182.6177 L223.52 182.752 L223.4651 183.1073 L223.4154 183.226 L223.119 183.4781 L222.492 183.6055 L222.1571 183.6347 L222.0481 183.6156 L221.8141 183.5745 L221.6451 183.3653 L221.549 183.0557 L221.5217 182.8547 L221.5091 182.7625 L221.5051 182.5519 L221.4021 182.4044 L221.2164 182.2848 L221.0554 182.1039 L220.9016 181.7938 L220.845 181.5614 L220.7809 180.7288 L220.7107 180.3365 L220.5112 180.0963 L220.4238 179.9908 L217.693 180.026 L216.6797 179.8666 L215.944 179.6862 L215.7431 179.6058 L215.5473 179.5044 L215.4205 179.3314 L215.3032 178.9578 L215.2684 178.6728 M233.6859 172.1187 L233.7535 171.1637 L234.0246 170.5526 L234.0036 170.1566 L234.3822 170.2507 L234.4207 170.9239 L234.5303 172.4416 L234.574 173.8825 L234.3299 173.8619 L234.3529 173.4988 L233.9188 173.4294 L233.9036 173.74 L233.7092 173.6747 L233.6859 172.1187 M234.0361 170.0233 L234.4538 169.0441 L235.0253 169.4492 L234.9868 169.8771 L234.5225 170.1703 L234.0361 170.0233 M235.1843 168.5211 L235.88 167.5438 L236.2477 167.7808 L235.5373 168.7728 L235.1843 168.5211 M235.4962 169.5583 L235.8096 168.9874 L235.8728 169.024 L236.3414 168.1471 L237.1147 168.5764 L236.8129 169.161 L236.9653 169.2386 L236.787 169.5629 L236.7324 169.5492 L236.6864 169.5949 L236.603 169.5949 L236.3587 169.4487 L236.0827 169.8917 L235.4962 169.5583 M309.1672 262.4005 L309.2503 261.9792 L309.4972 261.519 L309.8419 260.8963 L310.4818 260.4978 L311.1146 260.1709 L311.7206 259.9805 L312.7144 259.7865 L313.0778 259.7244 L313.3618 259.7477 L313.6056 259.9007 L313.7427 260.0887 L313.881 260.7699 L314.0696 261.6094 L314.3603 262.7128 L314.5704 263.802 L314.5914 263.8559 L314.8872 264.9146 L314.8481 265.2346 L314.7343 265.3487 L314.6043 265.3546 L312.6848 265.9403 L310.8001 266.4306 L310.4925 266.4311 L310.2378 266.3211 L309.9348 265.1862 L309.2399 262.8753 L309.1672 262.4005 M309.3538 272.3861 L309.3972 272.0985 L309.7476 271.3051 L309.8284 271.05 L309.8451 270.4433 L309.7387 269.5714 L309.6984 268.9432 L309.9457 268.1183 L310.0719 267.8029 L310.1616 267.3391 L310.2151 266.7315 L310.2398 266.6698 L310.4396 266.589 L310.8403 266.4845 L312.7251 265.9942 L314.6446 265.4085 L314.7745 265.4026 L314.8702 265.3985 L315.0203 265.4692 L315.1411 265.5975 L315.5056 266.2722 L315.689 266.831 L315.7956 267.2802 L315.8615 267.6732 L316.0443 268.0457 L316.3079 268.4032 L316.2996 268.4954 L316.2772 268.573 L314.0279 270.2223 L313.0226 270.7578 L312.7 271.0586 L312.159 271.5138 L310.2645 273.3717 L310.1052 273.447 L309.8077 273.3845 L309.6516 273.2402 L309.4578 272.9394 L309.3756 272.6979 L309.3538 272.3861 M309.8945 274.2048 L309.9135 274.0697 L309.9713 273.9501 L310.0739 273.8241 L310.4571 273.7259 L310.6446 273.6465 L310.9266 273.4425 L311.1695 272.8915 L311.4164 272.5801 L311.8137 272.1323 L312.7136 271.4006 L312.8262 271.3476 L313.0128 271.2933 L314.1314 273.7415 L314.2214 274.0268 L314.2516 274.3605 L313.421 276.9894 L311.1255 275.6929 L310.2924 275.0036 L310.0273 274.6339 L309.9201 274.392 L309.8945 274.2048 M313.2011 271.2152 L313.4691 271.0582 L313.5961 270.9002 L313.6752 270.7528 L313.85 270.5798 L315.1393 269.6741 L316.3818 268.7634 L316.3853 269.3404 L316.548 270.5871 L316.4554 271.8753 L315.8678 275.351 L315.4662 277.3938 L315.0764 277.282 L314.6957 277.2473 L314.2582 277.2491 L313.6243 277.1122 L314.2593 275.0338 L314.4321 274.3248 L314.466 274.0195 L314.2999 273.5639 L313.2011 271.2152 M315.4797 277.407 L315.8813 275.3643 L316.4689 271.8885 L316.5615 270.6003 L316.3988 269.3536 L316.3953 268.7766 L317.2287 268.19 L317.687 267.9161 L318.0423 267.5815 L318.3396 267.4002 L319.1043 267.1008 L320.1728 266.5448 L320.5946 266.3001 L320.6817 266.2813 L320.9723 268.8118 L321.1767 271.3837 L321.1592 274.5116 L321.2173 275.068 L321.1713 275.7039 L321.1126 277.3819 L320.8266 277.5992 L320.6688 277.9562 L320.4963 278.6012 L320.4385 278.692 L320.3703 278.7386 L319.8687 278.8153 L317.5145 278.9349 L317.3481 278.9573 L317.1123 278.9235 L316.8843 278.8262 L316.7052 278.6647 L316.2824 278.1675 L315.831 277.5212 L315.4797 277.407 M315.804 265.188 L315.9256 264.9269 L316.1656 264.658 L316.3278 264.5448 L316.7142 263.7422 L317.0419 263.1465 L317.2509 262.4969 L317.1632 262.3389 L316.7524 262.0513 L316.5908 261.8043 L316.4899 261.7313 L316.4117 261.7623 L316.264 261.8614 L316.0857 261.9481 L315.9282 261.8158 L315.9 261.5551 L315.9483 260.9685 L316.0788 260.8347 L316.3246 260.7598 L316.8343 260.8018 L316.9393 260.7543 L317.0327 260.6503 L317.2164 260.6046 L317.9863 260.6772 L318.1268 260.6165 L318.1783 260.5101 L318.3399 260.422 L318.5262 260.4252 L318.6365 260.4476 L319.0005 260.7247 L319.0735 261.0173 L318.9982 261.3752 L318.8961 261.6322 L318.6593 261.7368 L318.4687 261.8655 L318.3764 262.086 L318.3479 262.3745 L318.5983 262.6562 L318.8289 262.8315 L318.7811 262.9977 L318.5529 262.9493 L318.2786 263.146 L318.1501 263.3674 L318.0599 263.645 L318.1225 263.9773 L318.0817 264.3211 L318.1182 264.6804 L318.2674 264.926 L318.7846 265.0862 L318.9789 265.2378 L319.6422 265.9545 L319.8831 266.1453 L318.6058 266.4115 L318.4983 266.3868 L318.4609 266.2279 L318.523 266.0458 L318.6564 265.9203 L318.5638 265.4729 L318.2068 265.3309 L317.7341 265.1971 L317.4449 265.2574 L317.313 265.3583 L317.1129 265.7509 L317.1908 266.2115 L317.3478 266.5753 L317.3734 266.8862 L317.3164 267.1053 L317.2313 267.2994 L317.1572 267.4212 L316.9531 267.5609 L316.8079 267.6979 L316.6316 267.7787 L316.4617 267.7134 L316.2171 267.4295 L316.0561 266.4621 L316.1179 266.2795 L316.3666 266.0426 L316.6426 265.9467 L316.8461 265.6829 L316.905 265.4473 L316.8838 265.3218 L316.4776 265.1547 L316.3364 265.1232 L316.009 265.4788 L315.8526 265.3633 L315.804 265.188 M320.6972 266.2503 L322.4293 265.1054 L322.8562 264.873 L322.9606 264.8507 L322.9933 264.879 L323.0362 264.9808 L323.0856 265.2227 L323.0658 265.503 L323.1408 266.0225 L323.2107 266.2946 L323.3441 267.03 L323.4384 267.7833 L323.6485 268.3881 L323.7526 268.515 L323.8351 268.6652 L323.8541 268.8364 L323.8362 269.0085 L323.8871 269.4116 L324.118 270.7135 L324.0869 271.244 L324.0981 271.3873 L324.155 271.5037 L324.1628 271.7717 L323.9581 272.3921 L323.2193 273.1845 L322.9873 273.7259 L322.9169 274.1496 L322.8418 274.2965 L321.9731 274.8914 L321.6295 275.1 L321.3041 275.3474 L321.3078 275.4962 L321.3509 275.6021 L322.2879 275.5359 L323.0221 275.5596 L323.4375 275.6975 L323.6709 275.8354 L324.726 275.9394 L325.541 276.101 L325.836 276.206 L326.3557 276.9515 L326.7913 276.9857 L326.8554 277.8768 L326.8588 277.9252 L326.5319 277.8001 L326.1315 277.7101 L325.6666 277.6618 L324.772 277.6143 L322.0648 277.5376 L321.7649 277.4586 L321.3935 277.4308 L321.1923 277.3797 L321.1192 277.3897 L321.1161 277.3792 L321.1868 275.6729 L321.2328 275.037 L321.1747 274.4805 L321.1923 271.3526 L320.9879 268.7807 L320.6972 266.2503 M326.8255 276.8415 L327.0672 276.9492 L327.1995 276.8273 L327.2803 275.7523 L327.355 275.1785 L327.4507 274.8799 L327.6862 274.5161 L327.8219 274.3901 L327.9728 274.3157 L328.3773 274.3139 L329.4861 274.8749 L329.7578 274.8667 L329.938 274.7964 L330.0878 274.6517 L330.2327 274.1391 L330.2617 273.5926 L330.3031 273.3507 L330.3957 273.243 L330.4969 273.1959 L330.6033 273.1896 L330.7827 273.2023 L331.1043 273.2909 L331.2231 273.4032 L331.5002 273.8419 L331.6468 274.5029 L331.7276 275.5135 L331.769 276.6867 L331.6678 279.678 L331.5911 280.9352 L331.4628 282.0873 L331.3769 282.2439 L331.1495 282.2421 L330.9796 282.2074 L330.7737 282.0613 L330.6119 281.8436 L329.2601 279.4361 L329.0422 278.9276 L328.5435 278.5692 L328.1669 278.3515 L327.5864 278.2447 L326.9016 277.9539 L326.8375 277.0629 L326.8255 276.8415 M332.0318 278.6628 L332.0548 276.2827 L332.2678 275.1146 L332.296 274.8375 L332.3434 274.7608 L332.4265 274.7037 L333.2711 274.3851 L333.6008 274.4107 L334.0668 274.3755 L334.6044 274.2276 L334.7358 274.04 L334.5653 273.2877 L334.4984 272.5879 L334.6904 271.9757 L334.8692 271.5731 L335.1837 271.3882 L335.4491 271.1472 L335.9967 270.9518 L336.1658 270.9495 L336.304 270.9637 L336.4406 271.0281 L336.4734 271.1477 L336.4509 271.2545 L335.9588 271.6448 L335.6969 272.0575 L335.8374 272.361 L336.373 273.3854 L336.5484 274.1276 L336.7123 275.0575 L337.0952 277.8416 L337.2013 277.9845 L337.4226 278.0041 L337.7751 277.9229 L337.9872 277.7818 L338.1129 277.6736 L338.302 277.6974 L338.8871 281.7714 L339.107 283.0368 L338.8689 283.1399 L338.58 283.0509 L338.4058 282.7104 L338.2471 282.6369 L338.1022 282.6652 L337.9887 282.8008 L338.1057 283.6626 L338.1097 284.602 L337.8863 284.7819 L337.5911 284.8882 L337.1909 284.9224 L336.6893 284.9991 L336.5823 284.9722 L336.5107 284.8704 L336.4196 284.5641 L336.2787 283.5896 L336.2092 283.2303 L336.152 283.0518 L336.0183 282.95 L335.5336 283.0619 L335.19 283.2084 L334.8678 283.48 L334.2873 283.8575 L333.7012 284.377 L333.6164 284.5418 L333.4795 284.6887 L333.1449 284.9001 L333.0072 285.0722 L332.6539 285.7541 L332.5328 285.928 L332.421 285.9846 L332.3422 285.9828 L332.1611 285.6847 L332.1315 285.4364 L332.1749 285.1489 L332.2945 284.8134 L332.3523 283.9319 L332.2149 282.0125 L332.0318 278.6628 M347.803 265.414 L348.7388 264.1184 L350.2863 264.9461 L350.5381 267.429 L349.0987 268.3648 L347.803 265.414 M363.6536 273.6748 L363.8204 273.18 L364.6221 272.7792 L365.7445 272.5386 L366.4661 272.6189 L366.7866 273.1398 L367.0272 273.8615 L366.5586 274.5207 L366.6265 275.3848 L366.2657 275.9458 L365.5841 276.3069 L364.7023 276.1462 L364.3013 275.6254 L363.9006 274.6631 L363.6536 273.6748 M243.4138 158.5535 L243.4652 159.5332 L247.1821 158.6905 L249.7277 158.1671 L250.2423 157.9721 L249.4882 156.8987 L247.3063 154.9027 L246.3305 154.5127 L245.9744 155.2846 L246.1066 156.5201 L246.2797 158.2708 L243.4138 158.5535 M247.4595 153.0168 L247.6877 154.2998 L249.1335 155.7454 L249.7191 156.5881 L251.5021 159.3204 L252.3358 160.9084 L252.7172 160.7751 L253.1097 160.0963 L252.8593 158.5932 L253.7861 158.0949 L253.933 157.7656 L254.0302 157.3879 L253.925 156.4657 L254.2188 155.2156 L254.4884 154.4743 L254.7078 153.2959 L254.2742 153.422 L254.0598 153.4553 L253.511 153.6426 L253.2382 153.8248 L253.009 154.0221 L252.794 154.2628 L252.6071 154.5291 L252.0739 155.1037 L251.8318 155.2074 L251.578 155.2252 L251.4124 155.1914 L251.3483 155.1782 L251.1119 155.0822 L250.8877 154.831 L250.5953 154.324 L250.4786 153.8929 L250.3113 153.4845 L250.1727 153.0438 L249.8424 152.592 L249.6513 152.5226 L249.429 152.4993 L249.3638 152.5053 L249.1758 152.5217 L248.6764 152.6482 L248.3429 152.8392 L247.9959 152.9611 L247.7559 153.0155 L247.6711 153.0346 L247.4595 153.0168 M253.8882 169.9475 L254.7308 176.7067 L255.5291 179.7849 L256.6647 182.4195 L257.6228 183.6969 L259.0243 185.1605 L261.641 187.6001 L266.2004 189.9862 L267.2296 188.7441 L268.1343 188.1056 L270.343 189.3651 L270.4761 192.4787 L274.7961 194.2172 L275.4881 194.6611 L282.8241 197.1271 L288.5366 199.0254 L299.9531 202.8398 L307.8658 205.4563 L309.7729 205.6869 L314.3413 206.4764 L318.1734 207.1774 L326.9465 210.0071 L330.5213 211.1158 L332.8985 211.4176 L336.0654 211.2313 L324.3827 201.8548 L325.4119 201.1986 L327.9311 201.642 L330.1841 202.5822 L332.6326 204.6047 L332.4018 204.9421 L331.3639 205.3764 L338.1678 210.7167 L338.6999 210.5217 L338.8152 209.6258 L339.2409 209.519 L339.7466 210.3441 L340.9175 210.2112 L340.4461 209.335 L335.7219 201.5753 L334.3377 199.5642 L334.0298 199.7149 L333.487 199.9464 L333.1314 200.0656 L332.6539 200.3214 L332.4265 200.3816 L332.1629 200.4177 L331.9113 200.3899 L331.4873 200.22 L331.1156 199.9478 L330.8723 199.7989 L330.4374 199.4565 L330.0717 199.1377 L329.5137 198.5888 L329.3214 198.3002 L329.1414 197.9477 L328.638 197.1631 L328.3917 196.9029 L328.3396 196.8344 L326.9258 195.468 L324.2611 193.3583 L323.2538 192.5143 L322.2059 191.4937 L322.0944 191.4631 L319.1937 194.5757 L318.6115 193.9254 L318.5788 193.9104 L317.2092 192.7281 L314.832 190.2283 L314.6184 190.0255 L314.4637 189.9515 L314.2726 189.7912 L313.5208 188.8834 L312.7081 187.6481 L311.6849 185.7378 L311.6076 185.4692 L310.391 186.3511 L308.0316 181.993 L305.674 182.0039 L304.4761 179.2323 L304.449 179.2167 L304.345 178.929 L303.1266 176.1103 L289.6607 170.4398 L287.3407 169.5309 L284.1209 168.2795 L285.0265 170.49 L285.6644 171.0815 L283.8429 173.8532 L279.2941 177.569 L277.997 175.7938 L277.5548 175.4389 L277.1667 174.9576 L276.8243 174.2337 L276.705 174.0263 L276.3215 173.486 L272.4877 167.5725 L271.618 167.7397 L271.422 167.7981 L271.0597 167.8685 L270.5937 167.9365 L270.1493 168.0101 L267.9385 167.969 L267.8833 167.6968 L267.7088 167.5986 L267.5927 167.4739 L267.5042 167.341 L267.3561 166.8308 L267.334 166.5769 L267.3535 166.1142 L267.3866 165.9028 L267.3682 165.7685 L267.3216 165.6379 L267.2492 165.5611 L267.1414 165.3766 L266.8947 164.9012 L266.8441 164.6221 L266.8706 164.3905 L267.1008 163.5342 L267.3052 162.9427 L267.618 162.1749 L267.7129 161.9918 L267.7807 161.8931 L267.7241 160.7828 L266.7397 156.6169 L264.7288 156.4936 L264.0268 156.6302 L263.0933 156.4803 L262.4686 156.3547 L261.3377 156.3648 L261.3135 157.6734 L261.2555 157.7309 L260.9984 157.7871 L260.8955 157.8798 L260.8602 158.1666 L260.8858 158.5069 L260.8495 159.0586 L260.7797 159.6072 L260.6374 159.7757 L260.5152 160.4553 L260.5281 160.5197 L260.675 160.9596 L260.6098 161.9671 L260.6793 162.5668 L260.671 163.2021 L260.763 163.5748 L260.8058 163.979 L260.7184 164.0658 L260.5879 164.1083 L260.5758 164.2923 L260.7754 166.0882 L260.9685 166.5052 L261.0079 166.8847 L260.7618 167.7474 L260.4617 168.0 L259.5401 168.1991 L259.2385 168.4417 L259.0513 168.7193 L259.0568 168.9715 L259.177 169.3071 L259.5268 170.4485 L259.7864 171.5026 L259.7758 171.8186 L259.578 171.9743 L258.9878 172.221 L257.3446 172.7156 L257.1522 172.6384 L257.0033 172.5178 L256.7394 172.4918 L256.4867 172.6676 L256.0348 172.8996 L255.6708 173.3353 L255.3376 170.2731 L253.8882 169.9475 M262.0314 171.2692 L262.807 170.4777 L263.3618 170.2489 L267.0255 169.1669 L267.6936 169.2537 L270.0251 172.1566 L270.0978 173.1531 L268.8556 174.7105 L266.4569 174.9256 L265.4633 174.4652 L262.5569 171.8022 L262.3237 171.4943 L262.0314 171.2692 M270.8352 179.5268 L273.3768 176.3432 L274.1786 176.1715 L276.8896 179.2834 L276.9546 179.81 L275.3556 180.9307 L273.8035 181.1846 L271.3673 180.5745 L270.8352 179.5268 M336.4455 198.9496 L336.8264 199.3478 L337.3387 199.9346 L337.9441 200.5154 L338.8891 201.8945 L347.0208 213.9017 L347.8047 215.1975 L348.2184 215.9368 L349.17 216.0062 L351.1013 216.7592 L355.9546 215.2254 L366.9783 222.611 L367.0361 222.6334 L367.2512 222.7572 L367.5455 222.9782 L367.5729 223.0092 L368.9033 223.9005 L365.9503 231.4908 L366.0869 231.4621 L366.2913 231.6917 L366.8306 232.1999 L367.039 232.3451 L367.5251 232.6149 L367.8951 232.8464 L368.8085 233.2432 L369.0741 233.4057 L370.0035 234.0742 L370.2723 234.1367 L370.7168 234.0052 L371.0094 233.8167 L371.1799 233.7664 L371.307 233.7491 L372.437 234.0938 L372.8085 234.3495 L373.0295 234.5472 L373.2929 234.8134 L373.426 235.0024 L373.4062 235.1914 L373.0681 235.5895 L372.0035 236.8451 L375.119 241.5514 L375.0724 242.0851 L375.1083 242.1207 L375.4407 242.4659 L376.082 242.6572 L376.3985 242.6964 L377.8774 242.3645 L379.5534 242.1819 L379.5534 240.8396 L380.8959 241.3738 L381.8918 242.0641 L382.2249 241.3208 L383.029 238.3559 L384.2842 237.1912 L384.7217 236.1438 L384.9638 235.7667 L385.0661 235.6411 L385.1009 235.6119 L385.1593 235.2649 L385.9843 234.7353 L389.7233 234.9595 L390.0183 234.9681 L392.5044 235.1097 L392.1632 235.9146 L389.1579 243.2242 L389.3378 243.3082 L389.8162 243.363 L389.9878 243.3607 L392.4671 243.095 L393.9815 241.1852 L394.3558 240.3826 L394.6444 239.8338 L394.7957 238.5294 L397.3715 237.8445 L398.2282 233.3929 L407.536 240.1406 L407.2385 241.088 L407.2474 241.1122 L407.2399 241.3911 L407.2083 241.7057 L406.9564 242.7425 L406.9599 242.8288 L406.9602 242.8297 L407.0079 242.9092 L407.1025 242.9959 L407.2298 243.0822 L407.7806 243.2763 L408.0368 243.3073 L408.3708 243.3032 L409.8384 243.158 L410.1239 243.3457 L410.3093 243.4032 L410.7417 243.6383 L411.6668 244.2451 L411.8241 244.3688 L411.9514 244.5172 L412.0466 244.7318 L412.5103 245.0523 L412.2737 249.1785 L413.0516 249.6182 L413.133 249.5118 L413.1531 249.447 L414.1668 247.876 L414.7903 247.0825 L414.857 247.057 L415.2313 246.5077 L415.7249 245.4476 L415.7068 245.3134 L415.7459 245.0847 L416.2361 244.2031 L416.5365 243.705 L419.8842 236.5159 L423.587 238.6161 L424.0435 239.0549 L424.341 239.2033 L424.8614 239.5384 L425.1655 239.9233 L425.5959 240.5465 L426.295 241.2185 L426.9821 244.0629 L426.0984 246.0457 L426.1217 246.0626 L427.0942 246.0626 L427.5904 245.1632 L427.9044 244.3419 L428.312 243.4785 L428.4365 243.3913 L428.5432 243.3562 L428.5952 243.3493 L428.8623 242.8667 L431.6155 244.1387 L431.8029 243.91 L432.206 243.3105 L432.9646 241.9125 L435.3249 242.9398 L433.2464 247.2743 L432.8082 249.4671 L432.563 250.7034 L432.5369 251.1526 L432.5645 251.3558 L432.6219 251.5051 L432.5852 251.8128 L433.4907 251.9246 L434.3408 250.8353 L435.0805 247.8614 L436.7295 248.0267 L436.1338 252.2008 L436.9879 252.0155 L438.6131 252.4519 L438.804 252.7135 L438.8632 253.5599 L441.2407 250.3592 L441.8389 246.4694 L443.8401 245.4691 L446.1054 245.8891 L446.5395 250.5139 L445.0705 253.8466 L446.4648 256.1613 L451.1737 257.6724 L455.6009 258.8456 L457.5702 257.6815 L457.628 257.1131 L462.8895 255.7029 L463.1068 254.8346 L461.9687 253.8466 L466.6891 252.1209 L468.3651 248.6558 L471.24 248.1171 L469.3713 254.9652 L471.9989 256.668 L471.3334 259.7929 L470.7895 270.4323 L468.807 277.214 L467.7289 281.3926 L475.0859 282.0188 L475.0971 281.8769 L475.027 281.7641 L474.9608 281.3675 L474.9913 280.8914 L475.2357 279.1563 L475.6169 275.9828 L476.2505 271.695 L476.5265 268.8642 L476.7668 265.5436 L477.1408 264.0974 L477.286 263.7696 L477.3145 263.5478 L477.4395 263.0383 L477.4683 262.6407 L477.4714 262.2385 L477.5191 261.7975 L477.6267 261.493 L477.704 261.4245 L477.8109 261.3889 L477.8449 261.3889 L478.5943 258.3389 L478.3528 258.259 L478.7243 257.7326 L478.7582 257.6715 L479.7753 253.5316 L481.0244 251.374 L481.033 251.0202 L481.8601 249.9305 L482.4288 248.822 L482.8588 248.2006 L483.3602 247.3318 L483.6477 244.0127 L485.9015 245.1997 L487.3936 246.8205 L486.1976 248.528 L485.0598 251.2252 L485.8481 251.7146 L488.6211 253.3125 L490.7859 250.0619 L496.5412 257.2158 L497.5244 256.7365 L500.8707 259.7085 L500.2843 260.8361 L502.3052 263.4108 L504.328 265.9495 L506.7092 268.0042 L506.8325 267.6682 L505.9304 267.035 L507.0484 264.1905 L507.9589 264.9173 L509.935 258.9643 L510.7486 256.4124 L512.0 248.7266 L505.7579 249.7789 L498.3006 246.647 L498.9992 241.739 L495.9806 238.2098 L497.7558 237.088 L497.6207 236.7542 L494.8336 234.4705 L494.2213 236.6757 L493.3286 236.1854 L493.2036 236.2073 L492.7134 235.8475 L489.4922 234.0778 L489.5784 232.9364 L489.6675 231.7949 L485.203 228.6125 L490.0884 224.5598 L489.8576 224.3909 L488.6637 223.6589 L487.6052 222.9165 L486.9051 222.2923 L486.8014 222.2339 L486.7493 222.1535 L485.9679 221.4412 L485.5839 221.6549 L484.4774 222.5138 L483.2705 223.5786 L482.5874 224.4525 L482.4279 224.5288 L482.3819 224.5507 L482.2068 224.5995 L481.9757 224.631 L481.6008 224.4872 L480.9991 224.0347 L478.1223 226.4789 L477.2771 225.631 L477.7672 225.1872 L477.9791 224.6539 L475.1526 222.4713 L479.7868 217.5993 L478.2192 215.8395 L478.078 215.7153 L476.3117 213.7898 L476.2125 213.5866 L475.7074 213.0195 L477.2167 211.4761 L478.9761 209.5537 L479.9619 207.2523 L479.9205 206.6929 L479.1946 206.1426 L478.1395 207.5125 L477.944 207.2523 L477.6635 206.1431 L477.5706 206.2212 L475.808 208.3938 L474.5949 207.1701 L476.4517 204.78 L476.3916 204.6814 L476.2212 204.5513 L475.9432 204.2371 L475.6278 203.9818 L474.8864 203.6147 L473.7813 203.3891 L468.2904 209.9327 L467.3705 209.7281 L467.0114 209.7852 L466.7406 209.7683 L466.4836 209.671 L466.4373 209.645 L463.7183 209.7199 L462.144 209.7683 L462.1584 207.0696 L459.3497 209.0925 L458.4959 210.4487 L456.5723 210.3414 L456.4004 210.377 L454.5712 210.2615 L454.3242 210.2158 L452.3668 210.1062 L454.9972 206.9171 L455.6636 205.975 L454.0025 203.9553 L455.3974 202.8073 L455.398 202.5813 L455.2059 202.1393 L454.9547 201.8091 L454.637 201.268 L455.6625 199.4651 L456.2926 198.561 L456.7509 197.6993 L456.6914 197.6435 L456.2757 198.1125 L456.1526 198.15 L455.9916 198.1513 L455.8683 198.0934 L455.8074 198.0395 L455.7047 197.8006 L455.7208 197.7367 L455.9997 197.1435 L456.0698 197.0599 L455.8654 196.8681 L456.2564 195.3566 L453.4604 193.2322 L450.0387 193.1317 L446.4188 194.1049 L442.852 193.6674 L442.317 193.9053 L442.2552 193.8314 L442.0499 193.3829 L442.0404 192.4742 L442.1203 192.2253 L442.9825 191.5078 L443.5284 191.116 L445.4255 189.2231 L445.5851 189.0637 L445.3358 189.0368 L445.2329 189.13 L445.1323 189.1647 L444.8394 189.0994 L441.9694 188.9733 L441.5155 188.8875 L441.5577 188.7605 L441.4885 188.7578 L441.6607 188.4523 L441.7475 188.191 L442.1316 187.4521 L442.5346 186.7749 L442.6999 186.6055 L443.1386 185.8259 L447.1116 184.7618 L449.4316 183.9626 L448.5407 183.11 L448.0557 183.1223 L447.8076 183.0895 L447.6184 183.0054 L447.4255 182.794 L447.4301 182.5903 L447.4971 182.4442 L447.6917 182.2976 L447.5515 182.1633 L449.6955 181.3495 L449.9775 181.2362 L450.3817 181.0828 L450.9282 180.7508 L451.1499 180.6603 L451.8013 179.9164 L451.8154 179.8593 L451.9965 179.6401 L452.666 178.9286 L453.0766 178.46 L451.4917 174.9023 L451.153 174.452 L451.0498 174.2095 L451.0415 174.0862 L451.0751 173.9989 L451.0852 173.9898 L451.0777 173.9729 L457.1203 168.5965 L457.045 168.3923 L456.3458 167.7881 L457.5964 166.5919 L457.9477 166.2019 L456.3352 162.1667 L456.127 161.6068 L455.8666 160.9596 L456.1029 160.8162 L456.1503 160.7422 L456.4844 160.5846 L457.0614 160.242 L457.08 159.8282 L455.5176 160.1041 L456.2524 158.912 L456.1966 158.7969 L456.4671 158.5635 L457.473 156.9316 L456.7425 155.9811 L457.0211 155.5586 L456.9935 155.4979 L457.0286 155.3896 L457.1053 155.317 L457.2387 155.1124 L457.465 154.8845 L457.9655 154.1249 L457.5288 154.3565 L456.7997 154.7995 L456.2389 155.2033 L455.0073 155.9967 L454.8782 156.0181 L454.7474 155.9989 L454.447 155.8866 L454.2874 155.7756 L454.0319 155.5367 L453.8712 155.3558 L453.7662 155.1919 L453.6895 154.9909 L453.745 154.6684 L453.8703 154.5273 L454.117 154.3167 L454.0485 154.1619 L455.0257 153.1867 L455.001 152.8981 L454.9446 152.7569 L454.5942 152.2303 L452.2173 151.0313 L449.5426 148.1003 L450.4993 147.9382 L452.5534 148.2172 L452.5232 147.1516 L452.453 146.9931 L450.5387 145.198 L445.274 143.6217 L435.3746 144.7792 L426.4808 150.728 L426.8263 151.2661 L426.6078 152.2266 L426.2105 152.4299 L421.9696 154.7306 L421.3857 154.8539 L420.8858 155.0617 L420.5106 155.0384 L420.0153 155.2261 L419.6835 155.2174 L418.6135 155.4545 L418.2493 158.0488 L418.2246 158.4119 L418.0003 158.7353 L417.7028 159.5569 L417.5795 160.2069 L417.2624 160.939 L417.087 161.6328 L416.905 161.842 L416.6017 161.9205 L416.2938 161.9626 L416.107 161.9525 L412.1693 163.3035 L410.7515 169.3355 L408.5589 169.1742 L406.0911 169.1624 L403.793 168.9609 L403.1496 168.9409 L401.5995 169.0573 L400.8998 169.1692 L400.3817 169.3103 L398.4544 169.9045 L395.6581 170.2781 L395.3663 170.2598 L395.2318 170.121 L395.1907 169.9689 L395.1915 169.9342 L394.4998 168.8815 L394.4481 168.8522 L393.7834 168.3092 L393.0026 168.0968 L392.1822 168.1713 L391.6532 168.3225 L391.3942 168.4339 L390.6246 170.1932 L390.1514 170.3169 L390.1203 170.3918 L389.8472 170.5412 L389.0437 170.833 L388.8063 170.8485 L388.6151 170.7175 L388.4768 170.7631 L387.9133 170.1461 L387.4933 170.0959 L386.6021 169.7702 L386.3388 169.778 L385.782 169.8913 L385.4715 169.915 L385.1621 169.8465 L384.8706 169.7081 L384.6162 169.4779 L384.4118 169.4021 L384.0982 169.3455 L383.8067 169.3441 L383.5479 169.2587 L382.9842 168.9418 L382.2942 168.1982 L381.6514 168.6476 L381.4643 169.3551 L380.3899 171.9775 L380.4233 175.1069 L380.2557 178.5376 L379.9584 179.8123 L379.8667 180.6288 L379.8601 181.6445 L380.2336 182.9027 L380.6619 183.3785 L381.3498 183.6014 L382.2117 184.0827 L382.8925 184.3791 L383.3812 184.8134 L383.5804 185.155 L383.6672 185.7026 L383.694 186.0241 L384.4679 186.7612 L385.2998 186.863 L386.2319 186.6986 L387.6675 186.805 L388.9207 186.6009 L391.8567 186.3461 L393.1993 186.5612 L393.6883 187.4197 L390.8744 190.8128 L380.6875 189.3076 L379.6025 189.2692 L377.6482 189.0555 L375.5913 188.7564 L375.292 188.624 L373.6554 192.2613 L373.3024 193.2866 L373.0971 193.7825 L372.8786 193.988 L372.7122 194.3579 L370.0823 194.4095 L367.988 196.4809 L365.1879 195.0242 L366.6296 192.0348 L366.2205 191.9175 L366.0863 191.8403 L366.011 191.68 L365.9931 191.6421 L365.9397 191.4005 L365.9529 191.2247 L366.0207 191.0251 L366.3608 190.3945 L366.3789 190.1013 L366.3982 189.7885 L366.3522 189.2368 L364.8843 188.5911 L364.1696 189.6108 L363.5036 190.5612 L363.3543 190.9347 L363.3135 193.5528 L362.884 194.2369 L362.784 194.5081 L361.8249 195.9242 L361.5659 196.3065 L361.2172 196.6896 L360.6422 196.259 L360.0489 195.9959 L359.515 196.1727 L359.2534 196.4074 L358.7322 196.7974 L358.2559 196.8791 L357.885 196.6732 L357.3856 196.3434 L356.8512 196.0891 L356.6598 196.1402 L356.2757 196.4745 L355.6823 197.0942 L355.5147 197.2289 L355.3141 197.3348 L354.9487 197.1695 L353.7223 196.1398 L353.3669 195.7452 L353.1502 195.5804 L352.7854 195.2365 L351.4882 196.9092 L350.0494 198.2367 L349.722 198.4724 L349.6262 198.4979 L349.536 198.4728 L349.3931 198.3637 L349.0346 198.007 L348.2193 197.2983 L347.8962 197.2303 L347.7527 197.2376 L347.6107 197.2572 L347.237 197.3664 L346.7451 197.454 L346.4432 197.454 L345.8599 197.3554 L345.4333 197.1654 L344.6082 196.901 L343.5627 196.5056 L342.0735 197.3431 L342.0094 197.5709 L341.5 198.013 L340.9181 198.6902 L340.7747 198.7884 L340.5907 198.834 L340.2359 198.808 L339.1507 198.3934 L339.0725 198.3957 L338.977 198.4212 L338.5082 198.7697 L337.9973 199.0962 L337.6814 199.3149 L337.491 199.403 L337.399 199.3948 L337.2904 199.356 L336.4455 198.9496 M380.2054 180.11 L380.3244 179.435 L380.3569 179.0952 L380.4058 179.0834 L380.5087 179.0578 L380.6369 179.119 L380.7683 179.2336 L381.1233 180.084 L381.15 180.1895 L381.3542 180.9933 L381.9596 181.739 L382.3543 181.9793 L382.3874 181.9993 L382.7965 182.1779 L383.0595 182.293 L383.8443 182.4428 L384.1537 182.3483 L384.3362 182.2925 L384.6867 182.1039 L385.2294 180.6544 L385.4491 180.173 L386.0625 179.2441 L386.327 178.7897 L386.534 178.3344 L386.6162 177.9649 L386.6366 177.8731 L386.5366 177.1369 L386.5484 175.9463 L386.6398 175.159 L386.8132 174.9448 L387.0888 174.7904 L387.1164 174.7749 L387.387 174.7877 L387.4744 174.8324 L387.6043 174.8991 L387.7386 175.0338 L388.2727 174.9818 L388.8899 175.1462 L389.9582 175.2238 L390.6102 175.2179 L390.8405 175.3311 L391.3209 176.6948 L391.9433 177.9439 L392.1894 178.296 L392.4242 178.5664 L392.5959 178.6422 L393.9088 178.666 L394.148 178.7034 L395.1795 178.8655 L395.506 179.2021 L396.0778 179.4263 L396.7554 179.3962 L397.4112 179.4474 L398.5065 179.298 L399.1953 179.2578 L399.3997 179.3958 L399.5874 179.7428 L399.5903 179.8365 L399.6282 181.0796 L399.513 182.0852 L399.3968 182.3871 L399.201 182.5876 L398.9777 182.7095 L398.7301 182.7721 L397.3652 182.9063 L396.8903 183.0977 L396.7146 183.3247 L396.7365 183.8809 L396.7916 184.3791 L397.1835 184.4664 L398.0318 184.465 L398.4898 184.4705 L399.5437 184.5335 L399.8329 184.5646 L400.0434 184.623 L400.9277 185.082 L401.1479 185.1514 L401.4969 185.3482 L401.5613 185.4889 L401.5561 185.6154 L401.5546 185.651 L401.5133 185.7729 L401.431 185.867 L401.3442 185.9287 L400.8374 186.1218 L399.4281 186.2397 L398.6045 186.2899 L397.2988 186.2899 L396.6614 186.2196 L395.3134 186.304 L394.7206 186.2899 L394.0146 186.1707 L392.9932 185.8296 L390.1097 184.6198 L389.4413 184.1974 L388.3515 183.8987 L387.8955 183.7375 L387.3893 183.5936 L386.9888 183.4799 L386.0648 183.3078 L385.9395 183.3292 L385.8113 183.3881 L385.6138 183.5475 L385.0167 184.1097 L384.6151 184.2558 L383.0503 184.0508 L381.926 183.6201 L381.3024 183.258 L380.9885 183.015 L380.8304 182.8543 L380.4828 182.4254 L380.2137 181.7536 L380.2054 180.11 M402.696 234.2646 L403.7306 229.091 L410.838 229.3613 L410.3881 231.4306 L413.762 233.0948 L411.6927 238.0879 L409.8034 236.9186 L411.6927 233.2295 L409.3535 236.4684 L402.696 234.2646 M405.26 224.053 L406.1147 220.0495 L408.7687 220.4993 L412.3223 211.9523 L417.7853 212.7971 L414.3916 221.5339 L410.5681 221.2641 L409.3986 220.4993 L405.26 224.053 M411.0392 181.6157 L414.2726 180.7019 L415.1865 182.9511 L412.2343 183.2324 L411.0392 181.6157 M420.7797 231.1256 L423.3708 223.5685 L424.918 223.1005 L423.1549 228.3906 L424.0904 227.5628 L425.9978 222.7407 L427.4013 222.3809 L432.5834 218.1345 L429.6324 226.0515 L431.1799 227.3473 L429.2725 232.3131 L427.6531 232.0616 L427.1494 225.584 L420.7797 231.1256 M425.0681 177.7242 L428.0191 174.8813 L430.5023 174.6653 L430.6102 177.9759 L426.6156 178.8039 L425.0681 177.7242 M429.006 199.251 L431.1086 197.713 L433.5111 200.8456 L431.4125 202.5233 L429.006 199.251 M434.2155 201.0712 L435.5801 199.9469 L438.1269 203.2535 L436.6487 204.3791 L434.2155 201.0712 M434.465 238.4801 L436.2894 235.7717 L437.8001 237.2825 L436.8235 238.9038 L435.1469 239.2722 L434.465 238.4801 M436.7982 173.5226 L441.2608 172.083 L442.3403 173.1627 L441.8725 175.2859 L440.2169 174.6744 L438.9215 174.8183 L436.7982 173.5226 M437.0078 241.5756 L438.8134 238.9777 L440.693 239.7699 L439.9007 241.944 L441.8352 242.9758 L441.5957 244.0629 L439.6057 243.0863 L439.2927 245.3344 L438.095 245.5001 L437.9108 242.7919 L437.0078 241.5756 M448.012 164.1978 L451.4635 162.1685 L452.8144 164.4463 L448.8742 166.4047 L448.012 164.1978 M463.0608 218.2336 L463.1252 218.0925 L463.2583 218.0149 L463.7657 218.0537 L464.186 218.3317 L464.4318 218.6463 L464.4692 218.8331 L464.4177 218.9838 L464.27 219.0399 L464.0475 218.9861 L463.1404 218.5582 L463.0608 218.2336" stroke-dasharray="" fill="none" fill-opacity="1.0" stroke="#ff0000" stroke-opacity="1.0" stroke-width="1.0px" stroke-linecap="butt" stroke-linejoin="miter" stroke-dashoffset="0.0px"/>
</g>
</svg>