<?xml version="1.0" standalone="no"?>
<!DOCTYPE svg PUBLIC "-//W3C//DTD SVG 1.1//EN" "http://www.w3.org/Graphics/SVG/1.1/DTD/svg11.dtd">
<svg width="512px" height="512px" version="1.1" xmlns="http://www.w3.org/2000/svg" xmlns:inkscape="http://www.inkscape.org/namespaces/inkscape">
<g id="layer" inkscape:groupmode="layer" inkscape:label="layer">
<path d="M0.0 213.0842 L2.7597 216.288 L2.8021 215.6107 L2.8732 215.5152 L3.4062 214.946 L9.0043 215.0227 L11.4947 213.7909 L14.3316 213.1325 L15.6999 213.0779 L18.4234 212.9981 L19.3508 213.1472 L19.7328 213.4738 L20.4716 214.4609 L29.0713 216.3227 L32.2445 215.9257 L32.5479 215.4007 L33.4247 214.8872 L35.3343 214.2981 L36.9431 213.4391 L39.1253 214.2487 L40.5755 214.8662 L43.8581 214.4483 L44.2463 213.9001 L44.778 213.6292 L45.2372 213.5126 L47.6094 213.4475 L49.7855 213.6953 L58.8007 212.5486 L58.5328 210.8369 L58.405 209.6524 L58.7945 209.0234 L58.7665 207.1972 L75.292 207.1762 L76.4107 208.1476 L76.9466 208.2211 L78.0619 208.6779 L78.7932 209.4319 L79.3372 210.691 L85.4239 219.6368 L85.7499 221.5417 L85.903 221.9134 L86.2331 222.535 L86.2672 222.5676 L99.5621 226.3017 L93.1638 235.7492 L86.5686 243.5511 L77.7188 245.5357 L70.9111 248.2868 L66.1954 253.9044 L65.1033 255.2674 L46.1025 273.3295 L45.5297 274.7596 L43.6879 276.6999 L40.9063 282.0664 L41.1817 290.7537 L43.1418 290.7443 L44.6563 292.0903 L44.8525 294.2521 L43.9982 296.52 L38.7699 297.6644 L39.1724 303.0495 L40.471 310.1827 L40.5174 310.3412 L43.1931 319.4207 L47.4024 321.9037 L62.4707 323.2224 L64.9646 318.9304 L68.9818 320.9546 L69.2237 322.1053 L72.738 325.5321 L73.5383 325.4208 L74.3611 324.3153 L75.3863 323.8271 L76.9739 323.5909 L79.0358 323.4082 L80.4273 323.6791 L81.0205 323.8534 L81.5638 324.3006 L82.3751 327.2035 L82.8364 327.4555 L83.4132 327.7694 L84.2087 328.0056 L94.696 328.4917 L95.7574 327.9983 L96.2878 327.3914 L96.8482 326.3521 L97.0204 321.9174 L97.3792 319.5835 L97.8173 318.4989 L98.3148 318.1493 L100.279 318.0926 L103.8172 320.583 L107.4476 311.936 L108.6279 312.9093 L110.1929 313.5655 L110.8087 313.9371 L114.6681 316.6259 L115.5306 315.786 L116.7279 314.2185 L118.103 312.2415 L119.1254 310.4609 L120.0153 309.1044 L120.2921 308.6813 L121.5564 307.2482 L122.7456 306.0743 L123.9594 304.8134 L124.2068 304.5541 L125.0262 303.1671 L125.0645 303.0044 L125.3775 301.6773 L125.3187 301.2185 L125.057 299.1858 L125.0556 296.5977 L125.441 294.0495 L125.465 290.0208 L125.2845 288.8008 L124.1432 288.4921 L123.6197 287.8506 L123.6074 286.7985 L124.1781 285.1806 L125.2647 284.1558 L127.0253 283.1762 L128.8275 282.4769 L131.3247 281.0027 L134.0968 279.7764 L137.1763 278.696 L138.3429 277.5641 L139.202 276.2863 L140.5368 275.0053 L142.6616 273.5878 L147.7907 272.226 L155.2559 271.9078 L157.7983 271.386 L158.6075 270.7392 L159.3169 270.0588 L160.9024 269.3438 L163.7975 268.6266 L166.0193 267.8643 L168.9471 267.0464 L171.6139 266.1896 L173.1544 266.1539 L174.8896 266.6432 L177.5639 267.0128 L178.6676 267.711 L179.5363 269.4036 L180.014 272.6386 L180.0981 275.7886 L179.7003 277.2858 L180.1377 279.2808 L180.8587 280.6647 L182.488 281.3198 L183.0553 280.3255 L183.8112 279.6378 L185.7098 278.3012 L188.8426 277.2617 L189.1187 276.5498 L188.928 274.6136 L187.3445 269.0498 L185.9865 266.9519 L184.6559 264.0182 L184.0511 263.4911 L181.9017 260.025 L181.6987 258.0594 L184.4085 255.5404 L186.6126 254.2919 L188.2774 253.8404 L188.1824 249.9773 L188.7141 248.7677 L191.9557 249.3484 L193.3102 251.5251 L192.9227 247.5097 L192.7778 242.1398 L191.0364 238.4153 L190.7945 235.5612 L189.4885 237.8346 L184.457 237.6414 L182.8127 235.2221 L182.909 231.3515 L185.6182 229.8037 L186.9174 226.162 L196.7219 229.3648 L187.3937 220.0747 L188.859 218.5846 L189.3914 218.0753 L189.604 218.1761 L189.9382 217.9923 L187.922 212.7418 L189.2957 212.0698 L198.652 219.8405 L209.7441 223.5998 L211.2545 216.3647 L215.7925 218.4649 L221.2381 215.8291 L226.6974 215.9856 L233.7921 220.3992 L236.9475 217.0095 L237.0617 216.7196 L231.7644 211.8702 L230.172 211.5132 L230.2806 210.1271 L230.0517 209.8572 L229.9936 209.4602 L229.9717 207.8609 L230.7057 204.6811 L230.7734 203.8158 L231.232 203.9545 L231.4391 203.7738 L231.5703 203.7549 L232.3986 203.9019 L233.5051 204.6412 L235.5028 205.244 L253.689 216.8582 L255.9347 221.3663 L256.3762 221.9344 L256.6728 222.8469 L260.1133 229.7533 L258.0192 230.0232 L257.7506 230.7509 L259.0266 235.9067 L263.0999 238.9414 L263.3869 240.5322 L263.8482 240.7685 L263.4881 241.0908 L263.5995 241.7072 L263.6295 241.6851 L264.0847 241.6746 L264.3212 242.6995 L264.4715 244.2998 L264.4544 246.4397 L264.7743 248.2133 L269.8727 250.6703 L270.8842 255.217 L267.5135 254.8526 L265.6388 254.9208 L264.8686 254.5386 L263.4074 254.3874 L263.8407 251.8275 L262.8497 250.9822 L255.7393 249.4303 L254.5583 248.2154 L251.6544 247.9266 L250.3709 248.8254 L246.9182 266.1465 L246.3366 270.9334 L247.4929 271.3377 L249.0799 271.1025 L250.0811 273.6876 L250.9983 275.1533 L253.9302 276.9246 L254.6342 278.7873 L254.2815 280.2783 L253.3595 283.7253 L252.9324 287.7697 L249.2637 293.7776 L251.9537 296.477 L263.827 298.455 L267.21 300.4342 L270.7208 305.2859 L273.2742 303.1146 L275.8712 304.5877 L275.9218 308.5437 L276.2204 307.9316 L276.53 307.8781 L277.0214 309.8729 L280.1516 309.7207 L282.6188 318.1514 L295.9116 326.225 L295.8521 326.8697 L295.9184 327.1395 L295.7879 327.572 L294.9616 336.5767 L295.358 336.7447 L301.2171 337.53 L303.4635 338.5389 L307.1206 341.3546 L307.7863 342.0055 L310.2705 344.4348 L320.8768 354.8796 L318.2961 360.9643 L325.8836 363.276 L327.1869 361.5049 L331.809 359.82 L337.8758 361.1365 L337.8027 365.131 L338.4356 365.2611 L340.0772 365.953 L341.4755 367.0395 L346.9648 368.0945 L347.8875 368.0053 L355.313 369.6902 L358.8928 371.0633 L360.5009 372.4365 L362.4105 373.5419 L363.0467 373.8799 L364.8865 374.325 L363.6331 375.8713 L360.1613 385.9207 L367.9114 395.3338 L368.2183 398.4379 L368.5655 399.306 L368.6673 402.9811 L369.5585 411.9929 L370.9131 415.6374 L371.453 416.8498 L371.5555 417.4166 L372.4426 419.8761 L377.5 422.3113 L386.4804 440.0926 L385.0315 442.4543 L395.4457 450.9563 L400.8052 453.8428 L401.8727 454.8116 L402.9634 456.3755 L405.0377 458.7875 L405.678 459.3008 L411.2166 462.1179 L416.9752 464.8469 L418.4337 465.5984 L418.394 465.7737 L419.0597 466.1127 L426.4135 461.6414 L428.4433 458.6185 L423.9326 449.4659 L442.1735 447.5031 L441.7087 456.0785 L442.6088 456.8793 L442.6573 456.8258 L443.0633 456.6705 L443.4986 456.7481 L444.4548 457.4209 L446.7409 460.3388 L447.0477 460.4858 L450.2025 460.3441 L452.7072 459.9956 L452.7606 459.8319 L451.2529 454.1157 L451.3096 453.5321 L451.5946 453.2025 L457.5009 449.9812 L459.1384 448.9904 L453.9901 443.7559 L447.6724 445.4878 L446.067 446.0504 L445.2899 446.1407 L442.8091 446.8208 L443.0168 446.4062 L442.8378 446.4325 L442.943 446.1774 L443.3442 445.7523 L446.7907 441.6262 L452.0341 441.3784 L454.9694 440.4873 L455.5845 438.8939 L454.9113 437.5567 L452.3908 435.4217 L454.843 433.1114 L456.5297 431.9137 L466.6404 439.4523 L470.659 430.0369 L471.8967 429.8354 L472.2255 429.6465 L472.8173 429.4628 L473.5554 429.5656 L488.6108 427.4904 L505.8887 427.3561 L505.9646 427.2469 L506.3637 427.0443 L506.9624 426.9079 L510.2156 427.0632 L511.2284 427.0275 L511.2776 427.0065 L512.0 423.72 L497.3745 410.9673 L488.9409 404.5042 L468.7727 386.0646 L470.4677 382.9048 L466.6951 371.7982 L468.7796 364.5756 L466.9753 358.6967 L466.8571 358.8867 L466.5598 358.8972 L463.3763 360.4331 L462.8371 361.2729 L461.8537 361.8955 L459.8717 362.5894 L457.3833 363.3253 L456.9903 363.5153 L456.8953 363.4397 L454.0987 360.5349 L448.2724 354.594 L445.2216 351.474 L457.1653 344.6563 L457.2364 344.523 L457.5986 344.4086 L457.7947 344.3172 L458.0749 344.4747 L458.1447 344.5913 L459.3892 345.0175 L463.3053 346.5607 L462.1537 344.7603 L459.9441 342.4296 L458.8869 340.4286 L458.8527 340.1935 L458.9784 340.079 L459.1643 340.0832 L457.0915 339.4439 L455.0753 338.6806 L449.3304 336.1536 L441.3117 334.1106 L432.7626 332.6607 L433.692 339.9047 L430.5687 344.4611 L425.5318 340.7656 L423.5909 339.9992 L421.777 338.3751 L421.626 338.3142 L419.0235 336.161 L413.6202 331.1636 L407.4372 325.7683 L405.8653 324.9295 L403.5532 324.246 L402.457 323.593 L401.8337 322.919 L401.6649 322.4171 L402.1255 321.3431 L402.3552 320.6376 L402.1987 319.8942 L401.4059 318.7184 L399.7089 316.7131 L396.7319 313.0542 L400.8995 309.4719 L415.3117 316.2511 L416.2774 309.4173 L415.9856 306.3662 L413.476 296.016 L413.8847 294.9587 L417.3381 293.8437 L418.3674 292.0021 L416.1886 287.2805 L419.0993 274.3595 L419.6536 273.2707 L419.357 271.2547 L417.9983 270.1144 L410.1621 266.387 L409.696 260.361 L408.4138 261.369 L406.2439 262.2038 L405.0828 262.1229 L402.9498 260.6917 L400.6685 258.8343 L399.0774 257.8021 L398.6831 258.3156 L401.9759 261.055 L403.2539 262.7844 L398.5252 263.4081 L397.3524 262.5723 L392.8014 260.739 L388.6523 259.101 L387.8541 258.2127 L384.0911 256.0832 L381.1824 254.8347 L376.6464 253.9748 L374.0487 253.5863 L372.6169 252.9773 L371.4612 251.8506 L369.3918 250.9832 L367.7768 249.3231 L366.0914 248.4086 L361.5254 247.4205 L359.2352 246.9627 L355.6684 243.3642 L354.5011 233.6942 L352.9661 232.6851 L349.1108 206.1324 L352.569 201.8804 L361.9929 197.41 L364.3159 197.8353 L364.808 197.5738 L365.8311 197.6043 L366.7325 197.3292 L367.3039 197.3271 L367.923 197.5161 L368.1759 197.8479 L369.1238 197.912 L369.81 198.1388 L370.0854 198.3446 L370.2365 198.8151 L370.2372 198.9201 L376.9601 200.1509 L377.2041 199.8747 L377.2608 199.4158 L377.4857 198.7258 L378.2197 198.1661 L379.279 197.5287 L384.0624 194.8487 L389.9645 193.7671 L390.5516 194.8676 L390.3315 196.6266 L383.3653 199.3402 L377.6319 205.2188 L379.3535 208.8617 L381.1646 211.7327 L383.817 214.841 L386.0095 213.4906 L386.6416 211.0816 L386.3717 207.6992 L386.5965 205.8846 L387.0524 203.7528 L388.461 204.8922 L392.3845 207.5522 L396.1974 211.2181 L398.4288 217.272 L397.9573 219.9445 L396.3273 220.0411 L393.1015 221.2277 L391.8932 221.9512 L392.336 226.8299 L394.3768 230.5776 L397.0039 235.6358 L395.8304 245.2417 L391.8043 252.9269 L396.1701 249.0197 L400.3343 244.9644 L402.8725 242.8822 L408.3243 240.7947 L410.3534 240.5385 L413.9811 243.1657 L415.3842 245.5367 L416.2966 245.984 L418.025 245.1377 L420.1675 243.1206 L420.9719 238.3733 L416.8556 235.5276 L417.3046 234.4755 L419.2921 232.7418 L418.8526 231.8629 L419.3269 229.9413 L418.0578 229.4771 L416.7968 228.9269 L415.7819 228.6675 L412.9395 228.4334 L410.7006 228.1509 L409.7021 227.7256 L408.7419 227.0084 L408.6886 226.6472 L408.7754 225.8565 L409.033 221.821 L409.1075 220.6491 L408.9701 220.2301 L408.813 219.7513 L408.6872 219.5013 L408.2375 218.6088 L407.5664 217.6437 L407.4522 217.1439 L407.3743 216.3374 L407.3641 215.4375 L408.3448 210.2163 L408.4808 210.0325 L408.5826 209.8939 L408.8389 209.7931 L409.0829 209.6976 L409.8907 209.6598 L411.6902 209.7207 L415.324 209.7963 L418.2102 209.7784 L419.2975 209.6997 L419.6973 209.456 L420.8804 208.094 L423.9353 204.2432 L424.8443 202.6754 L425.2086 201.557 L425.3589 200.9206 L425.3097 200.2874 L425.268 199.7476 L424.4745 196.0165 L424.6557 195.8663 L426.6137 195.6174 L428.7631 195.0125 L429.0857 194.7196 L429.5149 194.0422 L430.7321 192.634 L430.7498 192.5962 L430.7813 192.529 L430.8872 192.3032 L430.7355 191.5481 L430.281 190.6733 L429.7944 190.1315 L429.1998 189.6872 L428.7631 189.1517 L428.1569 188.4082 L427.6464 187.7066 L427.4502 187.2026 L427.4051 186.0631 L426.8871 183.2813 L426.626 181.8793 L426.0136 180.5676 L425.5407 179.8892 L424.627 179.5353 L423.6346 179.4229 L422.9238 179.4712 L421.9889 179.7527 L421.2358 180.095 L420.5188 180.4889 L419.2784 181.4529 L418.9613 182.1534 L419.0337 183.7318 L419.0802 184.7494 L418.785 184.9563 L417.7892 185.1411 L417.7154 185.1558 L417.1194 185.5307 L416.559 186.1461 L416.1353 186.8634 L416.0587 187.4483 L416.1783 188.5363 L416.043 189.4636 L414.4486 189.6032 L412.347 189.4415 L408.9879 188.9227 L408.379 187.7791 L408.4897 186.396 L408.7364 185.9791 L409.1854 185.5423 L409.6604 184.8985 L410.2946 184.2317 L411.1455 183.6551 L413.0325 182.9252 L412.9969 182.6848 L412.7345 182.5545 L412.4263 182.4012 L410.2755 181.6136 L405.1846 180.4847 L404.8648 180.2452 L404.8231 179.9648 L405.0889 179.5573 L405.7505 179.0921 L405.974 178.9346 L406.9403 178.587 L408.4111 177.7962 L408.7221 177.4223 L408.7207 177.1356 L408.6113 176.9477 L407.9593 176.4593 L407.4686 176.0928 L406.9356 175.5163 L406.8713 175.0762 L407.4625 173.8423 L408.8553 171.7765 L410.1005 170.2821 L410.2687 169.7654 L410.3233 169.3075 L410.0657 167.831 L410.011 167.1294 L409.9741 166.6568 L410.0623 166.1527 L410.1641 166.0425 L410.4136 165.7726 L410.9138 165.5762 L411.3635 165.5909 L411.8706 165.7978 L415.6507 167.6178 L416.3458 167.6377 L417.4974 168.0914 L419.439 168.4695 L420.864 167.0916 L424.2511 166.8763 L426.1585 166.8406 L427.0983 166.8648 L427.7359 166.7702 L428.2642 166.4877 L428.99 165.8891 L429.6741 165.0091 L430.8448 163.1785 L431.505 162.2407 L432.0839 161.7461 L432.8822 161.39 L433.1268 161.2315 L433.6442 161.0319 L434.2408 160.7799 L435.3767 160.2022 L436.3021 159.5742 L438.1077 158.5692 L439.8648 157.9002 L440.499 157.2333 L441.1442 156.3595 L441.6308 155.7966 L442.4188 155.0656 L444.0577 153.7581 L445.2448 152.7037 L445.8667 152.2416 L446.0991 152.1722 L446.5502 152.1754 L446.9507 151.8372 L446.0793 148.9753 L443.6128 144.4603 L442.8521 143.5267 L442.6136 143.3187 L442.4202 143.325 L440.6173 142.363 L440.5414 142.1886 L435.6494 140.2635 L435.2769 140.3181 L415.307 132.3834 L411.2392 131.7637 L409.2476 131.7564 L403.3455 134.3495 L401.4489 137.2083 L398.4603 139.5714 L397.2397 143.1727 L395.73 144.2356 L394.7848 146.8811 L393.6195 150.7859 L386.8542 147.2876 L385.3602 141.089 L383.7883 140.7739 L382.3531 140.4011 L381.468 136.1181 L377.8889 133.7624 L375.585 130.9456 L374.877 128.6024 L374.7923 125.0714 L375.8393 123.3163 L376.645 115.6502 L372.7707 112.1968 L369.6542 112.5339 L362.3264 107.7329 L356.5152 103.185 L349.6924 108.5753 L343.5436 111.6916 L339.501 107.6489 L337.8164 101.9215 L326.6347 105.7226 L326.6497 105.8224 L326.2164 106.0913 L324.4573 106.9977 L323.8012 107.129 L323.0357 107.2078 L321.5889 107.2529 L320.4599 107.3863 L318.9249 107.7497 L317.5375 108.193 L315.0696 109.1025 L313.6488 109.5521 L309.8707 110.1455 L306.718 111.2252 L305.2015 111.4836 L298.7376 112.1023 L293.1156 112.9362 L292.165 112.9068 L291.828 112.6852 L291.6838 112.1621 L291.6162 111.0162 L291.7371 109.7748 L291.9743 109.0941 L292.3509 108.6646 L292.8252 108.5196 L293.6173 108.5448 L295.1741 108.7896 L297.2326 109.2317 L297.696 109.1635 L297.9837 109.0532 L298.2188 108.8137 L298.2257 108.4051 L297.8689 106.2142 L297.9708 104.8393 L298.4246 104.4643 L299.6793 103.7932 L301.4918 103.6209 L302.3816 103.5862 L302.9366 103.7459 L303.9119 103.6524 L304.3834 103.4119 L304.6137 103.1399 L304.7491 101.6074 L304.9903 99.804 L305.2644 98.9133 L305.8596 97.9071 L307.0707 96.2654 L307.666 95.2592 L308.5237 92.5577 L309.1176 91.6691 L309.8591 91.1229 L310.3792 90.876 L311.513 91.0231 L312.8881 91.2552 L313.3269 91.021 L313.4622 90.7962 L313.6747 88.4371 L313.6857 88.3163 L313.7574 87.5233 L313.6371 87.1672 L313.32 87.0779 L312.6489 87.1094 L311.7891 87.2376 L311.3579 87.454 L309.7914 88.978 L309.1032 89.352 L307.4678 89.4927 L306.8001 89.3194 L306.3927 89.0736 L305.8494 88.372 L305.7195 87.9497 L305.9779 86.7219 L305.699 86.6609 L305.0177 86.6263 L304.829 86.7219 L303.6938 86.5843 L302.3256 86.2429 L301.718 85.7891 L301.1371 85.0591 L299.7969 83.763 L298.0179 82.7 L296.8055 82.2683 L295.5521 82.2504 L293.8729 82.0908 L293.361 81.8271 L293.0507 81.3293 L292.6577 80.1738 L291.9456 78.7831 L291.5424 77.6529 L291.4747 76.507 L291.8889 75.1877 L292.6195 73.9577 L292.5245 73.7675 L290.7093 73.3505 L289.1421 73.5218 L284.9862 75.362 L284.8317 75.5122 L284.2952 75.4849 L281.5437 75.5133 L279.6848 75.2938 L279.1264 75.0406 L278.635 75.1478 L278.268 75.4062 L277.8026 75.9177 L277.3495 76.9702 L276.7071 78.7999 L276.146 80.0383 L276.1719 80.4427 L276.3763 80.6843 L276.6606 80.7778 L278.2448 80.7474 L278.7751 80.907 L279.2221 81.4185 L279.5002 82.1591 L279.5768 84.0518 L279.2214 84.8522 L278.8209 85.1159 L278.1696 85.2797 L277.6768 85.1495 L277.0508 84.7997 L276.4494 84.6169 L275.6464 84.6684 L274.8905 84.8144 L274.0369 85.2135 L273.3275 85.6746 L271.2724 86.8637 L268.9077 88.4728 L268.6165 88.7879 L268.566 89.1345 L268.5844 89.9486 L268.7696 90.0568 L268.9631 89.9937 L270.2677 88.9843 L273.0425 87.1788 L274.1558 86.7082 L275.0155 86.5801 L276.0838 86.4897 L276.571 86.5874 L277.6803 87.0013 L278.1477 86.9655 L279.3308 86.2807 L280.4304 85.9477 L282.3474 85.4247 L283.5332 85.2156 L284.4791 85.2104 L287.1862 85.6936 L288.2345 85.4698 L288.8688 85.6473 L289.5044 86.0633 L290.0921 86.7922 L291.23 88.3237 L291.4474 89.1072 L290.9218 89.1902 L289.9903 89.0705 L288.4532 89.2984 L287.1301 90.0105 L284.7853 91.8003 L284.0547 92.1407 L282.5456 91.9905 L281.5273 91.7342 L280.9348 91.2542 L277.6926 91.4107 L276.7091 91.5987 L275.0402 90.8267 L274.5529 90.729 L273.4799 90.7857 L269.2405 91.1428 L269.0519 91.2384 L269.1489 91.6659 L269.4811 92.0178 L273.1464 92.1207 L274.0451 92.2594 L274.5392 92.628 L275.0354 93.4715 L276.1323 96.0973 L276.4972 96.2811 L278.0322 96.8347 L278.3555 97.1949 L278.5715 98.6591 L278.8469 99.8418 L279.1291 100.3775 L279.4825 100.7125 L280.1748 101.0518 L282.8976 101.8721 L283.4423 102.1305 L283.6241 102.4445 L283.646 103.0527 L283.4751 103.7238 L283.1566 104.3152 L282.4342 105.3739 L281.554 106.9662 L281.2977 107.7529 L281.3688 108.694 L281.7686 110.9459 L281.7508 111.9689 L281.5403 112.3732 L281.2293 112.556 L280.4735 112.702 L279.4374 112.5497 L278.0199 111.8764 L276.0489 111.115 L275.1734 110.9049 L273.8441 110.7379 L272.8607 110.7137 L272.0057 110.8744 L271.0284 111.1213 L269.2918 111.7189 L266.3523 112.869 L265.319 113.1925 L264.8508 113.2271 L264.0184 113.079 L263.2878 112.7114 L263.0835 112.4699 L262.9721 111.9426 L263.0664 111.5445 L263.335 110.4112 L263.6008 109.3336 L263.5373 108.9009 L263.0322 108.2276 L262.5565 107.755 L262.2257 106.8864 L262.1034 106.0545 L262.3413 103.7753 L262.2811 103.1504 L262.1683 101.9729 L262.1513 101.7975 L261.8423 100.6201 L261.3093 99.9846 L260.5876 99.4458 L260.4495 99.1948 L260.224 97.8945 L259.7627 95.6856 L259.5604 95.0018 L259.6143 94.4493 L259.8911 94.0344 L260.1741 93.8906 L260.958 93.7067 L263.5933 93.2477 L265.144 93.2215 L266.3886 93.4105 L267.1752 93.7025 L267.4178 93.9725 L267.8074 96.1583 L268.3042 97.0027 L268.7655 97.614 L268.9938 97.7842 L269.3622 97.7632 L269.5412 97.6004 L269.3205 97.0216 L268.8592 94.8117 L268.3862 92.0608 L268.1006 90.8109 L267.9475 90.4601 L267.711 90.4611 L267.5367 90.6565 L267.3645 91.0903 L267.3078 91.167 L266.0168 91.1197 L263.0787 90.6723 L262.5996 90.4034 L261.9585 89.9549 L259.479 89.1839 L251.4302 86.1652 L249.5111 85.2944 L249.0929 84.9825 L248.8502 84.7125 L248.4634 83.9205 L247.9057 83.1201 L247.8019 82.5834 L248.3247 82.3261 L248.3882 82.2683 L248.8072 82.1769 L249.425 82.1633 L252.847 83.5655 L259.0191 86.2734 L262.1916 87.5569 L266.5423 88.6461 L267.3372 88.7785 L267.467 88.7365 L267.5237 88.6598 L267.6304 86.995 L268.1327 83.1611 L268.6172 81.0173 L270.0149 75.6498 L271.1357 71.6741 L271.4412 70.1973 L271.1774 69.5691 L270.7154 69.024 L270.306 68.317 L269.7196 66.4085 L269.4346 64.9936 L269.5118 64.4831 L269.7832 64.2509 L270.1987 64.2278 L273.4614 64.6259 L276.1364 64.9967 L285.5056 65.9473 L289.3226 66.2257 L293.0616 65.9778 L294.4019 65.9379 L294.8639 65.9914 L295.319 66.1164 L295.984 66.6574 L297.6072 68.8717 L298.2886 69.6153 L298.7697 69.7739 L300.4468 70.0239 L300.9054 70.0323 L301.5745 69.3958 L302.15 69.1574 L302.6031 69.129 L303.2332 69.2656 L304.2276 69.5397 L305.1345 70.13 L306.2649 71.0743 L306.5506 71.5491 L307.7275 71.9525 L309.1709 72.3863 L310.2719 72.6258 L310.9212 72.6457 L311.1091 72.8863 L311.1918 73.4493 L311.2636 74.9723 L311.3825 75.2612 L311.6244 75.6089 L312.2122 75.7129 L317.6277 75.716 L317.8102 75.9187 L317.6209 77.4807 L317.6489 77.6676 L317.8198 77.7958 L318.8675 78.1771 L319.1361 78.4439 L319.3739 79.0226 L319.3985 79.7085 L319.1982 80.1602 L318.6775 80.5058 L318.2141 80.7274 L318.0815 80.8629 L318.0508 81.1738 L318.1868 81.575 L318.6358 81.7767 L320.0512 82.0656 L320.4312 82.3166 L320.6041 82.7126 L320.6758 83.2 L320.5651 83.4846 L320.2945 83.7168 L318.9522 84.1842 L317.4651 84.4426 L315.9629 84.8575 L315.5255 84.9982 L315.4735 85.16 L315.805 85.3406 L317.4787 85.0539 L318.1936 84.9867 L319.2926 84.9383 L320.2104 84.9562 L321.4919 83.0403 L322.0776 81.8418 L322.5519 80.6602 L322.9551 79.2579 L322.9681 78.8273 L322.0475 78.2737 L319.1818 77.2023 L319.0103 77.0742 L318.9331 76.549 L319.3691 74.3358 L319.3459 73.9167 L319.1675 73.173 L315.5227 72.2812 L315.0942 72.0207 L314.4798 71.9525 L314.296 71.4808 L314.1606 71.4451 L314.0178 71.4073 L312.3605 71.8065 L311.4426 71.7886 L309.7381 71.3516 L307.1281 70.2036 L305.4557 68.8937 L305.0628 68.2992 L304.4586 67.0461 L303.7198 64.6238 L303.4792 64.544 L302.9995 64.6543 L299.8687 64.8875 L295.9943 64.7331 L295.0183 64.8402 L294.0068 65.2204 L292.504 65.6343 L291.2348 65.8234 L289.4217 65.9379 L287.3242 65.9421 L279.5426 65.2583 L272.6967 64.356 L269.8672 64.0471 L269.4941 64.1018 L269.2398 64.4463 L269.3683 65.5786 L270.185 68.5271 L270.3819 71.4136 L269.8406 74.985 L269.7401 76.1131 L268.907 78.9985 L267.8422 83.4153 L267.6673 84.9184 L267.4472 87.977 L267.3392 88.3132 L267.0904 88.4676 L266.5922 88.5022 L265.6429 88.3699 L264.1879 87.9623 L260.7181 86.7618 L253.4498 83.7094 L248.8755 81.8544 L248.6035 81.5835 L248.3636 81.0908 L247.9748 80.4669 L247.0576 79.4764 L246.6639 77.7118 L246.014 75.6309 L245.6429 74.5974 L243.0014 72.3726 L242.3665 71.8632 L241.2498 70.7624 L239.8658 69.6195 L238.5639 69.0313 L238.2222 69.0733 L237.4581 69.1952 L236.789 69.3716 L235.4146 70.3202 L233.7914 71.9136 L233.4388 73.2308 L232.3631 74.1667 L229.3163 77.4502 L227.0166 79.0678 L226.2313 79.3514 L224.8173 79.1172 L224.1694 79.2138 L223.6151 79.573 L222.8777 80.1822 L222.4 80.3083 L221.8436 80.2799 L220.1815 79.8608 L220.0968 79.7978 L219.6853 79.49 L219.3511 79.0962 L219.2329 78.6697 L219.1728 77.7065 L219.0306 75.424 L219.3354 73.381 L219.0675 72.3107 L218.4292 71.3506 L217.1484 70.1531 L216.7664 69.4326 L216.398 68.4326 L216.1677 67.2456 L215.5991 66.3864 L214.4653 65.0555 L214.3894 64.8549 L214.0108 63.8465 L213.9459 61.9137 L214.1277 60.7604 L214.1454 60.6459 L214.3293 60.3969 L214.5288 60.2562 L214.999 60.0755 L215.9709 59.9306 L221.0105 59.6827 L221.9742 59.4841 L222.2537 59.1701 L222.5421 58.8444 L222.7676 57.7562 L220.8752 50.3643 L214.6922 48.2897 L212.7088 45.8873 L212.2557 46.422 L211.2832 47.6353 L210.0701 47.8485 L208.4859 47.9241 L207.0985 48.358 L206.2408 49.0807 L205.3886 49.984 L205.3401 53.6165 L206.9721 64.8034 L206.4076 65.4316 L206.6099 67.1868 L209.3511 71.5418 L215.8246 78.4208 L217.8995 81.2484 L218.3697 82.4521 L217.2639 86.5244 L215.6162 88.2134 L210.1535 85.0234 L203.8112 79.0478 L195.9654 76.1509 L193.9855 77.9849 L194.0224 81.4311 L193.069 83.9237 L190.5389 84.9499 L186.3228 82.7137 L183.3902 79.2674 L179.934 74.7843 L175.8649 73.1699 L175.1883 69.1889 L173.928 65.3265 L167.8461 67.1732 L164.4727 66.6007 L158.5466 72.2844 L161.4492 74.8967 L162.2235 78.3798 L159.1269 82.2504 L153.9991 86.2891 L152.5707 90.8424 L153.7018 90.1198 L155.4958 89.5673 L157.6411 89.3919 L162.0984 89.1671 L163.5289 89.5379 L165.4329 91.1491 L166.5722 91.9999 L170.3919 93.837 L173.1749 95.026 L179.0155 95.8337 L179.5541 96.0459 L179.8356 97.4092 L180.4712 98.823 L180.6817 100.2493 L179.9607 101.5433 L177.8291 103.0044 L173.6512 104.1345 L171.0637 105.2479 L170.1814 105.1596 L169.5096 104.5315 L168.5337 100.3775 L168.0368 94.8075 L167.6479 94.3023 L166.754 93.7214 L165.8587 93.6605 L165.1958 93.4694 L164.6176 94.4147 L164.2431 95.3799 L163.2302 96.1036 L162.4156 96.1961 L161.7718 96.6067 L161.6863 97.1928 L161.728 97.6634 L161.6112 98.2253 L161.2524 99.1286 L160.2026 99.867 L159.4221 100.1643 L159.036 100.2598 L157.2474 97.948 L156.8579 97.8136 L156.4533 98.0195 L153.3614 97.6781 L152.8051 97.8335 L152.2091 98.2138 L151.6029 100.7241 L151.1949 101.6421 L151.5729 102.2418 L152.9144 102.9897 L162.0349 106.8801 L165.2791 107.2729 L169.9443 107.964 L171.847 107.6079 L176.6542 106.1018 L177.9548 105.375 L178.0621 104.958 L178.6294 104.2532 L178.9909 103.9707 L179.4037 103.8551 L179.9033 103.7816 L181.4759 103.6188 L182.6083 105.2573 L183.4134 107.1983 L183.4831 107.9892 L182.1497 109.2107 L171.929 116.9935 L165.9127 120.8744 L165.1438 121.0613 L164.8493 121.033 L163.451 115.4853 L162.9384 114.4686 L162.2167 113.9928 L156.9535 113.1725 L149.4009 110.5782 L136.5004 106.5335 L130.3597 104.6775 L123.7673 102.1494 L123.8035 101.7524 L123.5971 101.0003 L122.587 101.0549 L121.8974 101.348 L117.6267 99.867 L116.501 100.1191 L111.7601 113.2775 L114.4692 110.3745 L116.5974 110.2295 L117.274 111.4006 L121.0138 119.0647 L124.7316 127.591 L126.3391 132.2322 L127.1435 137.369 L127.5371 139.3183 L128.1857 140.358 L127.22 142.6497 L126.1812 144.6378 L124.3482 146.8024 L120.4369 150.0833 L116.4737 152.1229 L114.7945 152.1628 L112.533 150.3228 L107.7872 151.4476 L102.6533 151.4287 L95.1683 151.0926 L92.9656 152.0284 L93.2561 152.4442 L93.3777 153.1416 L93.3114 153.9534 L92.9184 155.1612 L92.4708 155.994 L91.8174 156.7292 L91.1736 157.5263 L90.8401 158.2782 L90.7027 159.0649 L90.2503 160.2506 L90.0432 161.1695 L89.6366 162.1588 L89.1356 163.063 L88.582 163.9074 L88.0968 165.0007 L87.6327 166.4352 L87.2104 168.6648 L86.9411 169.2603 L87.0799 170.197 L89.8457 175.594 L89.9906 176.1464 L89.2299 176.7838 L88.28 177.5074 L87.7462 177.5683 L86.4613 175.7641 L84.558 173.1922 L81.2317 171.0036 L79.3147 170.3063 L78.7078 169.6142 L78.3845 169.1658 L77.9587 168.9904 L77.5412 169.129 L76.1094 169.1027 L74.0679 168.0599 L71.3123 166.1706 L69.5313 165.2863 L67.2712 164.6005 L64.303 164.276 L62.9963 164.0229 L62.3443 163.481 L62.021 162.7312 L61.7531 161.368 L61.6035 160.0342 L59.9372 154.822 L57.3005 156.5317 L56.7955 160.28 L60.838 160.5751 L60.5434 162.7648 L53.1528 162.624 L52.4311 169.5837 L50.9282 170.4333 L52.1317 177.751 L51.4626 179.3253 L51.3294 179.4523 L50.5974 179.9722 L49.452 180.1423 L48.5567 180.0887 L47.1543 180.4573 L46.9151 180.6243 L45.976 181.6136 L45.9712 182.0998 L47.7495 193.3019 L46.7025 193.9256 L40.8954 192.5657 L40.1894 191.525 L39.5476 187.5565 L32.4235 189.3617 L26.6232 190.7342 L18.2826 192.3872 L16.289 191.3937 L11.9731 193.6894 L12.3606 195.1743 L17.2738 195.2814 L17.8151 196.7589 L18.5266 204.7903 L18.6304 210.776 L0.0 213.0842 M58.1501 295.5677 L58.2826 295.1729 L58.7542 294.8265 L59.6974 294.3802 L61.2364 293.913 L63.5212 293.6589 L65.428 293.1654 L66.8953 292.7948 L67.4947 292.7056 L68.0756 297.2455 L64.7548 297.3022 L60.9528 298.1737 L59.6618 298.6241 L59.5156 298.6755 L58.8492 298.1988 L58.2751 297.0597 L58.1501 295.5677 M63.0927 183.8788 L63.5335 179.111 L63.7214 178.086 L64.2559 177.1955 L64.8778 176.7019 L65.3685 176.5433 L66.2098 176.5034 L67.183 176.9697 L67.5719 177.5421 L67.8692 178.1375 L67.9444 178.7361 L68.1432 179.7957 L68.4371 180.1727 L69.5169 179.9627 L69.7049 179.926 L70.4027 179.947 L71.1305 180.1727 L71.7244 180.5802 L72.1953 181.2555 L72.0696 181.9549 L70.8312 189.2189 L70.5018 190.8792 L70.3295 191.7466 L69.5429 191.7686 L66.3745 188.4974 L66.2952 188.3787 L65.1785 186.7184 L64.5258 186.4244 L63.6374 185.8888 L63.6039 185.8195 L63.2403 185.0697 L63.0927 183.8788 M66.1353 167.0549 L66.3007 166.6295 L66.693 166.0645 L67.2855 165.824 L67.8302 165.9122 L70.1689 167.2407 L75.1751 170.5079 L76.7525 171.1107 L79.5545 171.9519 L82.2753 173.0441 L83.9976 174.2308 L85.4656 176.3028 L87.8446 180.1181 L88.8458 182.4663 L89.3448 183.4209 L91.2263 185.2829 L93.5315 187.9912 L95.482 189.9151 L96.6343 190.4612 L98.5021 191.0209 L98.8575 191.6857 L97.8262 194.3016 L96.9616 196.5017 L95.7233 200.0364 L95.1745 200.5762 L94.8088 200.6119 L93.6757 200.216 L93.5041 200.1561 L92.5132 199.4441 L91.8372 199.4399 L90.7314 199.8148 L89.5771 200.1194 L89.2416 200.0543 L88.7146 199.9524 L87.3594 199.379 L85.0097 197.8784 L78.6613 194.6597 L77.1639 193.6138 L76.6752 193.1422 L76.6739 193.0992 L76.6705 192.9963 L76.6643 192.8093 L76.844 192.2864 L76.8803 192.2696 L77.3874 192.0333 L78.1774 192.4659 L78.6387 192.719 L78.9381 192.7337 L79.2532 192.5626 L79.5443 192.405 L79.6147 191.6762 L79.463 190.875 L79.0228 188.5447 L78.4747 186.1923 L78.7754 185.0686 L79.7897 182.7887 L80.6344 182.3865 L80.7082 182.3855 L81.1948 182.3792 L81.7778 182.5892 L82.5439 183.1332 L85.7376 186.0001 L86.218 186.1577 L86.7272 185.5475 L86.9842 182.4537 L86.9063 181.8257 L86.8851 181.6577 L86.3089 181.0055 L84.7965 179.6687 L83.6306 178.6384 L83.4289 178.4232 L81.449 176.3091 L78.8779 174.82 L77.2507 174.3075 L75.9016 173.5535 L73.4528 171.6075 L68.0838 168.3203 L67.1099 167.8635 L66.3547 167.5085 L66.2604 167.3132 L66.1353 167.0549 M67.5186 292.6814 L67.5432 292.6772 L67.8193 292.484 L68.1685 292.4032 L69.4315 291.7375 L71.4094 290.9574 L72.8118 290.4618 L74.765 289.9379 L74.7978 289.9285 L75.2093 290.2014 L75.3849 291.1957 L75.2455 295.2727 L75.0746 296.625 L74.6454 297.3159 L72.7961 297.1164 L68.0995 297.2214 L67.5186 292.6814 M90.32 165.1088 L90.3542 165.0038 L90.5777 164.756 L90.7171 164.6709 L91.0007 164.673 L91.1299 164.7213 L91.231 164.8011 L91.3725 165.0311 L91.406 165.3105 L91.3746 165.4396 L91.1743 165.677 L91.0438 165.7526 L90.7567 165.7694 L90.6269 165.7242 L90.5093 165.6234 L90.3412 165.3399 L90.32 165.1088 M93.1433 159.6015 L93.6012 158.1302 L93.7105 156.6147 L93.7673 155.0026 L94.4172 152.7005 L95.1827 152.2142 L96.4996 152.3623 L96.7464 153.2613 L97.5494 155.5382 L97.7237 156.8647 L97.3806 157.291 L97.1803 157.9989 L97.546 158.2215 L98.8882 157.897 L99.9291 158.441 L100.7089 158.2373 L101.3985 157.4286 L102.1974 157.3572 L102.4954 156.6073 L102.9212 155.7514 L103.0633 154.8419 L103.5889 153.2466 L104.4329 152.7772 L104.953 152.6238 L105.8736 152.9253 L106.2276 153.3884 L106.3172 153.9954 L106.7047 154.3011 L107.3861 153.9513 L109.91 153.5092 L110.724 154.0563 L111.0766 155.2168 L111.1033 157.1776 L111.0404 157.8214 L111.3643 158.4085 L112.8884 158.5786 L113.3518 158.5093 L113.9122 158.0293 L114.3448 154.5521 L114.7692 153.6657 L117.3663 152.9452 L119.8594 151.8278 L120.6878 150.7523 L121.5024 150.4026 L121.9391 149.6212 L122.4182 149.2536 L123.2677 148.822 L126.6405 145.1041 L127.6274 143.2767 L128.3108 142.8797 L129.1207 142.6917 L130.3276 143.4479 L130.9324 144.0875 L131.1908 145.5536 L133.7701 148.0637 L138.7147 152.5356 L142.5454 155.9342 L143.8412 156.6945 L144.485 157.3131 L144.7536 158.0661 L144.7419 158.2289 L144.703 158.7887 L143.9567 159.6141 L143.265 160.8481 L142.5898 160.4039 L142.0096 160.6622 L141.6145 161.4079 L141.1559 162.0139 L139.9196 164.2372 L138.6758 173.5965 L138.7434 175.218 L139.0031 175.9437 L139.2533 176.6032 L139.2888 176.7786 L139.4323 177.4927 L139.1904 177.9873 L138.7496 178.3118 L137.8379 178.9818 L136.54 179.8094 L135.7794 180.0016 L134.8868 180.4878 L134.2054 182.899 L133.8432 185.0487 L133.1502 186.6449 L131.6931 186.2511 L130.7903 186.3278 L130.1889 187.4105 L129.9722 188.0049 L129.7597 188.3714 L129.2847 188.6329 L128.9498 188.7495 L127.7306 188.8734 L127.1326 189.1433 L127.015 189.5717 L127.2337 190.1493 L127.5057 190.5106 L128.1481 190.5389 L128.837 190.436 L129.7597 190.3656 L130.2962 190.0663 L130.7411 189.6001 L130.9085 188.9931 L131.268 188.5289 L131.5797 188.2538 L132.2132 188.0353 L132.8481 188.3987 L132.5741 190.0916 L130.9714 195.923 L129.9203 200.1456 L129.6367 200.2632 L129.0284 200.5153 L127.3082 200.0564 L122.4613 198.2375 L121.6302 197.9603 L121.5878 197.8364 L121.4129 197.325 L121.3445 197.1244 L122.0116 195.3265 L123.0265 193.0467 L124.3776 190.1451 L124.2327 189.6452 L124.0667 189.074 L123.4167 188.2832 L119.2115 187.715 L115.3577 185.8531 L113.9204 185.3532 L113.6791 185.2692 L114.4432 179.7621 L114.8458 178.7508 L114.9414 178.6374 L115.3829 178.1155 L115.3911 177.6387 L114.9175 177.0789 L114.0065 176.9088 L112.7374 176.306 L111.393 175.1392 L109.9913 174.5375 L107.3457 173.5755 L103.9928 171.3722 L98.5089 169.5617 L97.9403 168.9977 L97.7633 167.9927 L97.6328 164.4703 L98.0866 162.7133 L99.1739 162.3415 L100.2189 162.5243 L104.0516 164.9681 L104.6086 165.3619 L106.0643 165.7799 L109.4801 166.6327 L112.8911 167.1084 L115.4041 168.396 L116.2058 168.669 L116.8339 168.5367 L117.8679 167.9349 L118.7215 167.5884 L122.4975 167.3132 L123.578 167.6682 L124.2573 168.2311 L125.5422 170.1351 L126.1457 171.4489 L126.6719 171.7587 L127.0266 172.0233 L127.6444 171.9309 L128.1816 171.2955 L128.4031 170.7505 L128.1987 169.1101 L128.3928 167.5926 L128.8965 167.1357 L129.3763 166.9015 L129.8745 166.9897 L130.4479 167.5831 L130.9789 168.3434 L131.2338 169.2319 L131.4136 171.41 L131.0151 173.2258 L128.3668 176.369 L127.9294 177.7227 L128.3094 178.8117 L129.4289 180.0772 L130.1362 181.3846 L130.6967 182.1513 L130.8142 183.7181 L130.9024 184.3157 L130.8518 184.8103 L131.1662 185.0697 L131.9159 184.28 L132.1995 180.534 L132.6322 179.1425 L134.2492 176.3638 L135.7438 173.4012 L136.5728 171.0256 L135.4452 168.7394 L135.8299 167.2218 L136.4867 165.5489 L137.8386 163.1628 L138.5596 163.1502 L139.0715 163.1985 L139.5847 163.5734 L139.3305 162.7595 L138.9888 162.3804 L138.1318 162.2502 L137.4333 162.6786 L136.9549 163.3697 L136.6166 164.0408 L135.7302 164.9366 L135.5477 165.4407 L135.0925 167.5127 L134.7221 168.2269 L134.228 168.816 L133.7236 169.1384 L133.1775 169.1153 L131.5359 167.602 L130.6447 166.4657 L129.9996 165.3199 L129.513 164.2183 L129.2697 163.3476 L129.6906 161.7482 L130.0399 161.1516 L130.3153 160.3094 L129.9702 159.1961 L129.7091 158.6521 L129.3646 159.6099 L128.9327 160.2947 L128.5179 161.6736 L128.8432 163.0389 L128.8842 163.7005 L128.1276 164.1185 L126.5393 164.5165 L124.9298 164.2487 L123.5794 164.3936 L120.9878 165.6003 L117.3991 165.7894 L115.7684 166.4804 L114.7774 166.4079 L114.055 166.2872 L113.4987 166.1307 L111.7102 165.8807 L107.4585 164.1647 L105.5661 164.045 L104.4302 163.899 L104.2368 164.2624 L101.6698 162.4192 L100.5298 161.8542 L98.6873 161.6883 L98.5212 161.7891 L98.0435 161.5843 L97.5111 160.9468 L97.3232 160.1256 L97.0115 159.6278 L96.4627 159.8431 L96.0998 160.4795 L95.2954 160.7179 L93.1433 159.6015 M109.9571 285.4766 L110.4608 285.0178 L111.1928 284.8141 L111.6856 284.9664 L112.9417 285.3685 L113.7106 285.7328 L114.0899 285.7244 L115.2668 283.8261 L116.4286 283.2528 L119.3544 282.3792 L122.5843 281.2516 L124.2047 280.2919 L125.506 279.4278 L125.7958 278.7569 L125.8607 278.6078 L125.5634 277.8854 L125.56 277.2155 L126.5421 276.4469 L129.176 275.5754 L129.9633 275.7466 L131.1259 276.4123 L131.16 276.4312 L132.1995 276.3724 L134.5588 274.9013 L136.1006 273.9826 L136.7635 273.3841 L136.797 273.3537 L136.4444 271.2873 L135.981 269.8876 L136.3432 269.1149 L136.959 268.4481 L138.0757 267.9462 L139.3476 267.5535 L141.227 267.1986 L142.2788 267.1493 L143.442 266.8164 L143.8104 266.5067 L144.0359 266.0888 L143.8309 264.9831 L144.3189 264.0959 L145.167 263.1383 L146.2134 262.6206 L146.7881 262.2395 L150.5785 259.7152 L151.2503 259.4244 L152.1565 259.4328 L153.0491 259.6764 L154.0975 259.6837 L155.1588 259.5252 L156.7266 259.0894 L157.8693 258.4405 L158.848 258.2956 L160.3338 258.8416 L161.3542 258.9771 L162.7873 259.0033 L164.0893 259.4338 L166.3446 261.159 L166.4089 261.916 L165.8081 262.1912 L165.2566 262.3235 L163.7284 262.4327 L162.2365 262.7886 L161.4957 263.2517 L160.9161 264.225 L160.2101 265.1795 L159.4529 266.304 L158.7701 267.6081 L158.3314 268.761 L157.2823 269.8425 L156.1191 270.3402 L155.07 270.9324 L152.0834 270.7056 L150.6776 270.6804 L149.9511 270.7822 L148.5685 271.4196 L146.4779 271.7776 L142.8146 272.2785 L141.5838 272.5053 L140.3392 273.171 L139.1084 274.118 L138.1311 274.5874 L136.8647 276.0637 L135.7452 277.4423 L134.5875 278.3012 L132.4579 278.8944 L131.3685 279.3816 L130.2217 280.315 L127.2891 281.3996 L126.1935 282.164 L125.4725 282.7583 L124.5847 283.32 L123.8234 284.0917 L122.9643 284.7816 L122.5303 285.6478 L122.341 286.8122 L122.8085 289.6996 L122.6547 290.8692 L122.6349 292.084 L122.8317 292.5796 L122.9779 293.5697 L122.7046 295.2622 L121.9378 296.0633 L121.7143 296.0969 L120.6345 296.2565 L117.9998 295.5604 L116.6801 294.8663 L115.5955 294.2952 L114.9818 294.0253 L114.5758 293.8469 L114.0263 292.0598 L113.7557 290.2308 L113.2568 288.8397 L112.7223 288.2895 L111.8879 287.4306 L110.6707 286.7607 L110.0146 286.1864 L109.977 285.7181 L109.9571 285.4766 M111.9104 209.7921 L112.0232 209.3846 L112.2514 209.1767 L114.3571 208.7115 L115.8477 208.4899 L117.816 207.5102 L120.9851 206.5745 L132.5406 203.7696 L134.1965 203.567 L135.5778 204.1445 L139.759 209.0444 L139.8342 209.5547 L139.6941 210.3581 L139.4221 211.4418 L139.4207 212.3113 L139.2143 213.2553 L138.7653 214.0177 L137.9998 216.7564 L138.3525 217.21 L139.1788 217.1355 L140.2607 217.3087 L140.8628 217.0966 L141.2872 218.0722 L142.1292 219.8206 L142.5303 220.1954 L142.8577 220.3645 L143.6314 220.3362 L144.4433 220.3614 L144.9299 219.9844 L145.1677 219.326 L145.0905 218.5111 L145.1055 218.0312 L145.2121 217.5807 L145.5908 217.2195 L145.8259 217.0546 L146.1642 217.0042 L146.7745 217.0441 L148.4899 217.8327 L151.0138 219.2556 L151.4211 219.6735 L151.497 220.1839 L151.076 220.5504 L145.5265 222.7661 L144.6886 223.2386 L144.3285 223.7269 L144.3148 224.5113 L144.405 227.125 L145.6632 231.195 L145.7247 232.3008 L145.1725 233.4159 L144.4508 234.2003 L143.5972 234.1562 L142.5891 234.7663 L142.4818 235.3292 L141.5353 236.3708 L143.5808 238.2336 L143.9478 238.7608 L143.4297 239.9169 L142.7094 240.129 L141.6815 240.7118 L140.8532 241.0415 L139.9599 241.1265 L137.462 240.3474 L135.6495 239.3708 L134.3414 238.976 L134.053 238.8889 L133.7366 238.3617 L134.4234 237.2046 L134.4911 237.0145 L135.057 235.4247 L135.3693 233.9945 L135.6242 233.4033 L135.6311 232.851 L135.6365 232.4562 L136.0131 232.095 L136.3787 231.7442 L137.0512 231.1898 L137.5016 230.7309 L138.0108 229.7869 L138.278 228.9657 L138.4297 227.944 L138.7503 226.8971 L139.4029 225.7567 L140.1383 224.3013 L140.4978 223.4864 L140.4459 223.309 L140.2121 222.5172 L139.6155 222.0237 L138.1591 221.7275 L137.2262 221.6152 L136.2236 221.4944 L134.4911 220.8833 L134.0086 219.956 L133.8637 218.9773 L134.1501 218.2832 L134.4193 217.7655 L134.8089 217.1869 L134.8055 216.5789 L134.4227 215.6727 L133.263 212.9235 L133.075 212.4793 L132.5112 212.1716 L131.7724 212.1653 L130.1909 212.8006 L128.9314 214.0671 L127.8912 216.1116 L127.5453 217.1838 L126.0999 217.7708 L125.4267 217.6616 L124.5499 217.5912 L123.8746 217.2709 L122.9349 217.0956 L122.1271 216.6524 L120.9967 216.1526 L118.4727 215.239 L115.5709 213.5084 L112.1626 210.6238 L111.9733 210.2174 L111.9104 209.7921 M116.9179 105.7258 L116.9699 102.9214 L117.1681 101.6757 L117.5002 101.0381 L118.103 100.6716 L125.0392 103.6692 L125.8463 104.7521 L126.3227 105.7216 L126.3514 106.3675 L125.5244 107.8548 L124.3633 109.6603 L123.8329 110.4554 L123.5001 111.4216 L123.6217 111.9857 L123.9054 112.5539 L124.7084 113.8668 L125.1369 115.0253 L125.288 115.5945 L125.2333 116.6438 L124.9579 117.1616 L125.3474 118.6415 L125.2353 120.3955 L126.1962 122.3238 L126.1764 123.3489 L125.5757 124.1156 L124.4166 124.2595 L123.9204 123.8394 L118.3238 112.0193 L117.4141 109.216 L117.0348 106.65 L116.9179 105.7258 M126.3938 129.2641 L126.5455 128.9364 L127.138 128.886 L127.4777 128.9984 L127.8679 129.5004 L128.3299 130.1894 L128.9054 131.3153 L128.9102 131.3436 L129.3291 133.086 L129.4801 133.7225 L129.9545 134.2245 L130.9085 135.3336 L131.3712 136.5341 L131.2666 137.1127 L130.8935 137.8752 L129.9251 138.519 L129.0749 138.6461 L128.4946 138.1494 L127.3 133.0083 L126.9405 132.1229 L126.3938 129.2641 M133.5978 120.0982 L133.7407 118.6824 L134.12 117.901 L134.4357 117.587 L135.1219 117.399 L136.0172 117.5323 L143.7742 118.0985 L145.5853 118.0491 L146.8032 117.9157 L146.9159 117.3926 L146.7546 116.3003 L147.1025 115.3036 L147.6759 113.3847 L148.0347 112.4625 L148.4072 112.0833 L149.1986 111.9657 L150.5265 112.2545 L152.0936 113.4456 L153.2425 114.6766 L154.0148 115.7206 L155.1363 117.4935 L155.9188 119.8682 L157.0226 121.8774 L158.2589 123.6125 L159.0886 125.1512 L160.7309 127.3589 L160.8252 128.1802 L160.5539 128.7053 L160.1349 129.1454 L159.6429 129.4342 L158.9341 129.6411 L157.0137 129.2966 L153.0785 127.2748 L152.1401 127.132 L150.1383 127.3494 L141.2591 130.5202 L138.617 131.1325 L136.1491 131.6335 L135.6673 131.0748 L135.0167 126.6751 L134.3906 123.9801 L133.5978 120.0982 M135.0925 203.7108 L136.4013 203.0734 L136.458 202.9673 L136.6343 202.9589 L137.8761 202.9726 L138.7557 203.3853 L140.0823 203.6657 L141.9091 203.6615 L144.3517 203.4798 L145.5149 203.3937 L146.8278 203.1312 L148.075 202.8791 L150.4855 202.0065 L150.3762 200.2359 L150.5662 199.7991 L151.0111 199.3759 L151.6077 199.2866 L151.7184 199.294 L154.3695 199.4809 L155.7384 199.7455 L156.3419 199.7067 L156.5537 199.42 L156.7007 199.0409 L156.6672 198.1273 L156.6467 197.9897 L156.5271 197.1779 L156.674 196.7978 L156.9351 196.5038 L157.7231 196.3357 L160.7439 196.4996 L162.4627 196.4491 L163.5412 196.1866 L163.8508 196.0784 L164.5554 195.8317 L165.7097 195.0472 L166.7807 194.7353 L168.0443 194.7584 L170.7972 195.0934 L174.0463 195.566 L175.6277 196.1782 L176.6214 196.0301 L178.0095 196.488 L178.317 196.8513 L178.3088 196.9018 L178.1592 197.8448 L178.0402 200.824 L178.1803 202.4832 L178.5583 204.594 L178.7544 205.9203 L178.5303 207.108 L176.5059 207.1321 L175.2928 207.0681 L174.185 207.0093 L172.9015 206.6365 L170.1035 202.1041 L169.8541 201.9183 L169.647 201.7639 L169.021 201.6526 L168.3901 201.8489 L167.136 203.2351 L166.5476 204.2779 L165.7794 205.0697 L165.1643 206.3823 L164.5547 207.2844 L164.008 208.6264 L163.7797 209.8341 L164.5164 211.6623 L164.0626 212.7796 L162.9377 213.0737 L162.2645 213.3267 L161.007 213.4118 L159.9969 213.102 L159.1795 213.0705 L158.3908 213.6218 L157.9254 215.0468 L157.8318 216.2817 L157.3663 217.7067 L157.1278 218.6676 L156.6152 219.4509 L155.8334 219.6336 L154.8547 219.4541 L153.7872 219.0592 L147.5802 216.1715 L147.1586 215.3639 L147.7757 212.2294 L148.3047 210.5429 L148.3436 209.9286 L147.5707 209.0633 L140.6167 208.8155 L136.7621 203.9944 L136.62 203.7245 L135.0925 203.7108 M148.2616 141.9124 L148.4721 141.715 L148.835 141.5711 L149.256 141.7916 L149.4276 142.1466 L149.2895 142.3808 L148.8466 142.5646 L148.3928 142.4039 L148.3006 142.1361 L148.2616 141.9124 M151.6494 134.8305 L151.8312 134.674 L152.0301 134.6016 L152.2187 134.6541 L152.3964 134.8536 L152.5495 135.3273 L152.3643 135.6739 L152.0246 135.634 L151.8107 135.2559 L151.6494 134.8305 M152.093 130.7124 L152.1989 130.2566 L152.6336 130.2797 L152.8509 130.7103 L152.922 131.1084 L152.6582 131.4056 L152.3615 131.1924 L152.093 130.7124 M155.0338 148.0364 L155.4575 145.0506 L155.6673 144.5601 L155.9455 143.909 L160.4131 141.2214 L162.0233 140.7813 L162.719 140.8506 L165.2607 140.2058 L165.8751 139.5315 L166.4902 140.023 L166.6597 141.172 L167.1852 144.1484 L166.8162 146.2268 L167.0513 148.3977 L166.5599 149.0047 L164.7625 149.2725 L164.3059 150.3711 L165.3338 151.0779 L165.884 151.645 L166.3501 152.4821 L166.1772 154.341 L166.2729 154.7274 L168.0484 155.9247 L169.6258 156.7407 L173.3293 157.9086 L174.6231 157.9642 L175.0181 157.6103 L175.2792 156.6073 L175.1637 155.3733 L175.5765 154.8157 L176.9563 154.6875 L177.6281 154.4638 L178.3758 154.6298 L178.9103 155.2179 L178.9868 158.1848 L178.9595 159.6782 L178.8515 160.8786 L178.4797 162.1651 L177.9254 163.1155 L177.8694 164.5701 L177.8209 166.6631 L177.216 168.9494 L176.6474 169.4157 L175.9059 169.5543 L174.9238 170.3777 L174.2533 170.3535 L173.1831 170.5793 L172.652 170.2086 L171.4683 168.8959 L170.7972 168.6039 L170.0666 168.6837 L168.1434 169.1983 L166.5292 169.4199 L165.9851 169.7297 L165.7685 170.3913 L165.2997 170.824 L163.9861 171.0193 L163.6 170.7232 L163.1537 170.7326 L162.7436 170.7936 L162.0116 170.7967 L160.3864 168.8811 L159.9299 168.2426 L159.0346 164.757 L159.4741 164.444 L160.0543 164.1857 L161.2455 164.3243 L161.3815 164.4461 L162.3971 165.3924 L163.4592 166.4195 L163.9635 167.7102 L164.3121 168.3266 L165.3236 168.4726 L166.62 168.1649 L169.742 167.2617 L170.5013 166.5382 L170.5628 166.4037 L170.9626 165.5342 L170.9858 164.8022 L171.0255 163.5776 L170.625 161.9403 L170.5225 161.5234 L170.5662 161.4751 L171.0706 160.9174 L170.735 159.611 L170.301 159.3789 L169.7017 159.0586 L168.8528 158.4683 L167.1859 157.8183 L166.3501 157.8949 L166.0829 157.7752 L165.1472 157.3583 L164.0216 156.9529 L162.6684 156.6861 L161.5449 157.2627 L160.8109 158.9945 L160.7186 159.9155 L160.3065 160.4154 L159.4775 160.5394 L158.6375 160.072 L158.237 159.6162 L158.2897 159.1972 L158.4633 158.8286 L159.31 158.4347 L159.5533 157.7017 L159.6962 156.9266 L159.5615 156.5937 L159.3565 156.3658 L158.9533 156.2156 L158.4687 156.2881 L157.8536 157.019 L157.6718 157.981 L157.626 160.1172 L157.4941 160.9668 L157.6903 161.7786 L158.088 162.7312 L158.3792 163.6039 L158.0846 163.6249 L157.1312 162.8918 L156.2236 162.0181 L155.3495 161.3333 L155.1315 160.5467 L155.5197 154.3011 L155.3577 151.5284 L155.0338 148.0364 M157.3616 255.281 L157.7928 254.9775 L158.984 254.4882 L162.9937 253.5569 L164.0749 253.6125 L165.1493 253.7889 L167.1545 254.6174 L168.6697 255.3514 L170.5532 256.4864 L172.475 257.1731 L175.1213 259.0422 L176.3289 260.2969 L176.9905 260.5825 L177.855 260.7894 L178.2173 261.1432 L179.0818 262.3382 L179.0893 262.8432 L178.8966 263.3388 L178.3259 264.245 L178.0867 264.8813 L177.7819 265.3947 L177.4381 265.5795 L176.849 265.1112 L175.7015 264.4424 L174.7051 263.9909 L173.6253 264.0549 L172.7559 264.1652 L171.7397 264.0486 L170.6701 263.2958 L169.5991 262.6637 L168.8644 261.8856 L168.1755 260.9332 L167.6165 259.8885 L166.8305 258.9267 L165.7466 258.8479 L165.6455 258.5991 L165.8649 257.3432 L166.1861 256.9904 L166.5387 256.7395 L167.5208 257.0975 L168.2664 257.4661 L168.777 258.0142 L169.6805 259.774 L170.1063 260.2381 L170.7336 260.2885 L171.059 260.0733 L171.3385 259.3834 L170.9797 258.4059 L169.0271 256.3226 L168.412 255.869 L166.8593 255.1057 L165.7008 254.8673 L165.0454 255.26 L164.7098 255.826 L164.4296 256.6975 L163.8945 257.0062 L162.5864 256.8476 L161.7253 256.6891 L159.5369 256.2407 L158.045 255.8753 L157.4497 255.5561 L157.3616 255.281 M159.9812 267.5609 L160.4575 266.4027 L161.6768 264.7626 L162.3349 263.951 L163.1796 263.4407 L163.7421 263.3189 L165.0557 263.448 L167.5338 263.9867 L169.0223 264.8529 L169.3148 265.4777 L169.1863 265.8977 L167.9521 266.1098 L165.5163 266.8248 L164.7331 266.9981 L162.1456 267.7173 L160.3933 267.8339 L159.9812 267.5609 M164.9798 246.7128 L165.2094 246.0113 L165.5231 245.7709 L165.9619 245.6984 L166.348 245.794 L166.6713 245.9945 L166.8579 246.2486 L166.9536 246.5532 L166.5408 247.0761 L166.2517 247.6588 L165.9489 247.9014 L165.6537 248.0001 L165.2067 247.347 L164.9798 246.7128 M167.1101 237.2466 L167.1244 236.4433 L167.6698 235.6274 L167.788 235.0761 L168.0245 234.3201 L168.7127 234.278 L169.1283 235.0635 L169.6846 236.1965 L170.4972 236.7436 L170.7316 236.9767 L170.9653 237.2088 L171.3419 237.9543 L171.4499 238.493 L171.6262 238.9802 L172.2659 240.1542 L172.6903 241.2263 L172.5837 241.7271 L172.2297 242.1629 L171.9338 242.3057 L171.5032 242.2039 L170.7555 241.6473 L170.1575 241.2021 L169.7468 241.1297 L169.1706 241.2819 L168.9998 241.1832 L168.7941 240.9564 L168.3553 240.2676 L167.3875 238.6746 L167.1101 237.2466 M167.9637 230.0064 L168.1482 229.4383 L168.7462 229.0834 L168.8768 229.0067 L173.058 228.51 L174.3456 228.1792 L175.7555 228.1729 L177.2775 228.0144 L178.1325 227.8873 L178.2835 227.9797 L178.762 228.2737 L179.4714 228.8838 L180.2402 229.6472 L180.5368 230.6249 L180.545 231.1299 L181.5873 232.1737 L181.4273 232.5927 L180.9961 232.829 L179.239 232.9844 L179.0012 233.3057 L179.1235 233.5556 L181.0624 234.4408 L181.2394 234.4146 L181.2415 234.7485 L181.1089 234.9595 L179.6053 236.6911 L178.9144 236.9074 L178.6758 237.571 L178.7497 238.8889 L180.1275 239.3236 L180.7774 240.1836 L180.2867 241.304 L179.9279 241.7114 L179.5377 241.7545 L179.4317 241.766 L178.9957 241.3911 L178.1571 240.1888 L176.1335 238.4279 L173.1475 235.0351 L171.6146 233.4968 L170.329 232.8321 L169.567 232.6746 L168.9068 232.2997 L168.4441 231.8954 L168.1783 231.4618 L167.9637 230.0064 M174.9641 129.4888 L175.1138 129.0299 L177.0383 128.0405 L178.695 126.3138 L180.107 125.085 L180.9202 123.727 L182.9664 120.0289 L184.1905 116.9064 L184.5192 114.8142 L184.9935 114.5306 L186.5634 114.3709 L187.6992 112.7461 L189.8186 107.4809 L191.7725 103.5495 L192.1846 103.4129 L192.6603 103.476 L193.1114 103.7879 L193.1954 104.3582 L193.0492 105.3266 L190.6025 112.1065 L189.9464 114.2323 L190.0209 118.6625 L189.822 119.2748 L189.0634 119.5437 L187.0452 119.0889 L186.657 118.7171 L186.2996 117.8443 L186.1061 117.7582 L184.9723 121.7419 L184.2062 122.4383 L183.7681 123.8866 L183.8023 124.6092 L183.4654 125.4053 L182.7512 126.1132 L181.9816 126.9913 L181.3966 127.4418 L181.0843 127.779 L181.0972 128.3598 L181.2633 128.99 L182.3172 129.4899 L185.7282 130.2934 L186.2975 130.7177 L186.5552 131.4802 L186.5401 134.3222 L186.0392 134.4556 L181.2804 133.4914 L177.0588 130.9256 L175.0769 129.764 L174.9641 129.4888 M175.152 143.2483 L175.1808 142.3042 L175.3133 141.6824 L176.182 141.6782 L176.8634 141.7853 L176.9003 142.615 L176.9016 143.5498 L176.0952 143.7472 L175.3981 143.6905 L175.152 143.2483 M178.341 90.6702 L178.3997 90.1103 L178.6813 89.541 L179.796 88.5779 L180.2334 87.9613 L180.3421 87.5369 L179.7249 85.6106 L178.8276 83.8197 L178.7661 82.8271 L179.0873 82.3061 L179.8206 81.8313 L182.363 81.7851 L183.6383 82.2977 L185.5341 83.68 L186.5456 84.8953 L188.2945 87.455 L189.6819 88.3384 L190.4712 88.3069 L192.063 87.5464 L192.6165 87.4372 L193.7613 87.6073 L196.1895 88.8457 L198.6021 88.6356 L198.9404 88.7596 L199.2479 88.873 L200.5294 89.7259 L201.0597 89.8498 L203.8208 88.6356 L204.8001 88.6031 L205.7904 88.8509 L206.8197 89.4497 L207.7601 90.3435 L208.3424 91.8245 L208.3321 93.1227 L207.948 93.6049 L207.771 93.8275 L206.4212 94.735 L205.9545 95.7654 L205.3544 96.2738 L204.2739 96.5469 L201.7554 96.5616 L200.3257 96.9134 L199.4762 97.3168 L197.0049 98.4911 L193.885 100.4794 L193.2303 100.6695 L192.894 100.7671 L192.2536 100.7188 L189.3784 98.8408 L185.8205 96.5164 L183.5241 95.4104 L180.9941 94.8747 L180.1732 93.3769 L178.6929 91.7174 L178.341 90.6702 M179.0469 249.865 L179.0668 249.6959 L179.1187 249.6035 L179.2984 249.4618 L179.7516 249.215 L179.986 249.1583 L180.1466 249.1667 L180.4767 249.2622 L180.6858 249.3883 L180.815 249.6634 L180.8956 250.097 L180.8861 250.2944 L180.8396 250.3942 L180.191 250.998 L179.8343 251.0452 L179.6607 251.0106 L179.4652 250.915 L179.1372 250.621 L179.0914 250.5044 L179.0791 250.2283 L179.0469 249.865 M179.349 265.4493 L179.3948 264.8813 L179.7249 263.9667 L180.1186 263.4648 L180.8717 262.86 L181.3884 262.6469 L181.875 262.6416 L182.4327 262.8117 L183.2309 263.3913 L184.0203 264.0234 L184.3155 264.2649 L184.4215 264.4875 L184.4167 264.8046 L184.2848 265.1007 L183.5351 265.8987 L182.7471 266.7881 L182.5776 266.9592 L182.3138 267.0411 L181.6713 267.0726 L181.0959 266.9718 L180.6352 266.8542 L180.0598 266.6873 L179.6655 266.4059 L179.4522 266.0247 L179.349 265.4493 M181.344 137.2388 L181.646 136.6128 L182.2488 136.4406 L184.5213 136.5666 L185.7357 136.9458 L186.5005 137.9509 L186.9707 139.2952 L187.0807 140.8055 L186.2059 141.631 L184.4215 141.7265 L182.9008 141.3778 L181.9474 139.9989 L181.4178 138.7217 L181.344 137.2388 M183.3082 224.924 L183.7442 224.5428 L184.8766 224.5953 L185.2149 224.8463 L185.3011 225.1634 L184.796 225.4931 L183.7572 225.4774 L183.3082 224.924 M187.4245 132.9537 L187.6234 132.3414 L188.1093 132.1964 L194.7523 133.5397 L195.461 133.4337 L195.6107 132.9747 L195.1008 132.4685 L194.3689 131.9223 L194.1536 131.4445 L194.0798 130.9456 L194.2028 129.326 L194.1392 128.8986 L193.4989 128.4837 L190.7487 129.4741 L190.3024 129.3954 L190.1787 129.0498 L190.9449 126.3874 L191.1779 124.5336 L191.2483 122.557 L190.8273 119.7075 L190.5772 116.5409 L190.7549 113.8206 L191.6201 110.8534 L193.6185 105.751 L193.9021 105.709 L194.0859 105.9726 L194.5165 106.9284 L197.0609 110.9185 L198.2146 112.1474 L199.6628 113.6903 L203.5618 117.671 L205.649 119.5447 L206.2736 120.8355 L205.0865 128.0006 L205.2129 128.8555 L208.8222 129.2662 L212.5202 131.2649 L213.2556 132.3214 L213.4736 133.3076 L213.0724 134.0229 L210.1911 135.1057 L206.0727 136.1539 L202.2858 136.4973 L198.1312 136.3135 L196.2469 136.2809 L195.1712 135.8293 L187.6692 135.1004 L187.4245 132.9537 M188.4018 142.5615 L188.4127 142.071 L188.4606 141.2224 L188.818 140.1532 L189.4891 139.1103 L190.5574 138.6787 L191.6256 138.8835 L192.9207 139.374 L194.4106 139.3582 L195.7487 139.6397 L196.3994 140.2247 L196.6775 141.4913 L196.1656 142.7631 L195.0974 144.7765 L195.7761 146.8318 L196.6235 148.8398 L195.7802 150.1537 L194.9607 150.4068 L194.5493 150.432 L192.6828 150.7271 L191.4875 150.704 L191.1458 149.2032 L188.9964 143.5676 L188.4018 142.5615 M203.6663 101.097 L203.7347 100.3323 L204.0299 99.8208 L204.4864 99.429 L205.0667 99.1706 L205.5512 99.032 L207.9603 99.4857 L213.1907 101.7072 L213.8789 102.9508 L214.4906 103.29 L215.4508 103.2144 L216.4835 102.8605 L217.186 102.7848 L218.2665 102.7481 L220.4084 103.1367 L224.8699 105.1764 L225.5116 105.1386 L225.759 104.5578 L225.6121 103.4339 L224.386 101.4488 L223.5057 100.7104 L222.4765 100.5098 L221.8279 100.2441 L221.2566 99.8513 L220.0954 98.9543 L218.8393 98.3104 L218.3349 97.927 L217.8086 97.842 L214.753 95.1363 L215.4897 94.902 L216.681 93.9431 L218.041 92.9673 L218.9794 92.3602 L219.7885 91.7153 L220.4221 91.9558 L220.364 94.1825 L220.7946 95.2287 L221.1342 95.2886 L221.5122 95.2329 L222.0186 95.0491 L222.3384 94.8243 L222.1949 93.6836 L222.4273 92.8665 L223.4887 91.0168 L224.196 90.0021 L225.3141 88.1945 L225.8725 87.0254 L226.5853 85.8837 L227.2079 84.9825 L228.134 84.0875 L229.2022 83.4741 L229.7161 83.3733 L230.2772 83.5928 L230.8185 84.0172 L230.7666 84.8585 L230.2724 85.4373 L229.5336 86.4057 L229.0949 87.3552 L228.8017 88.6115 L228.4128 89.5757 L230.99 90.6639 L230.0209 98.7316 L232.564 100.5812 L233.8625 102.9739 L236.124 106.0566 L236.5997 107.2403 L237.1949 109.028 L237.6118 110.4365 L236.2388 113.5139 L235.6046 114.247 L234.7674 114.6387 L232.076 113.9497 L225.3462 112.5339 L224.5138 111.7315 L224.384 111.0435 L224.5863 110.03 L219.1618 107.8474 L218.0096 107.589 L215.5396 106.9147 L211.2702 105.1428 L209.9061 104.4769 L207.81 103.8236 L206.3447 103.4392 L204.8384 103.1672 L204.3416 102.7061 L204.0736 102.3069 L203.8672 101.8784 L203.6663 101.097 M207.8729 123.7837 L207.8913 122.7429 L209.8056 116.188 L210.7064 110.929 L210.9839 109.3105 L211.0823 108.5175 L211.331 108.3253 L211.4295 108.2497 L211.7302 108.2486 L216.1294 110.3629 L217.6603 110.8272 L218.0465 111.116 L218.3321 111.5928 L218.4244 111.9247 L217.7512 114.3604 L217.7909 114.916 L218.2317 115.2836 L222.8859 116.7982 L223.4873 116.795 L223.8898 116.606 L224.8419 114.6051 L225.3941 114.2638 L226.0256 114.1693 L226.7179 114.1966 L230.1207 114.8163 L233.3622 115.5021 L235.647 116.2352 L235.8171 116.5135 L234.9205 120.9301 L234.9362 121.6201 L235.1795 122.1032 L235.7064 122.7607 L235.824 123.2628 L235.4255 125.2257 L235.5595 125.5524 L237.2968 126.0723 L238.391 126.4945 L238.9869 126.6573 L240.3449 126.4199 L240.9894 126.4325 L248.0329 127.6866 L253.3185 128.4113 L253.6972 128.5562 L254.5959 129.3218 L255.6265 130.4982 L256.6086 131.8257 L257.2538 132.8077 L257.7534 133.7761 L258.5981 135.6266 L259.0772 136.4542 L260.6757 138.5737 L262.1663 140.6889 L262.5511 141.6015 L262.8497 142.6024 L262.3207 142.7988 L261.8266 142.8724 L254.6055 141.9292 L246.746 140.7277 L235.9579 138.9013 L235.1959 138.7669 L234.7975 137.1884 L234.7551 136.6643 L235.0107 135.7789 L235.5041 131.749 L235.2526 131.4686 L234.7893 131.185 L232.3241 130.725 L229.289 130.8027 L227.8319 130.9235 L227.0384 131.4875 L226.1951 131.7186 L225.3743 131.6283 L219.9314 127.9607 L217.8203 127.0637 L216.7411 126.7476 L214.1762 126.5659 L210.6982 126.6069 L209.9266 126.3327 L209.2746 125.9967 L208.8146 125.503 L208.3779 124.876 L208.0253 124.2364 L207.8729 123.7837 M228.7757 148.7191 L229.045 148.2843 L229.563 148.2013 L229.818 148.4239 L230.0298 148.801 L229.984 149.2998 L229.397 149.4721 L228.8775 149.2022 L228.7757 148.7191 M232.0808 80.4911 L232.1553 79.5058 L232.7724 78.2086 L232.9884 77.0616 L233.2919 76.7853 L233.7539 76.8525 L234.1297 77.2695 L235.2834 79.2159 L235.28 80.4007 L235.351 81.0226 L235.962 81.3566 L236.3495 81.6013 L236.2047 82.138 L235.3599 82.3859 L234.0997 82.2641 L232.933 81.9805 L232.3426 81.7536 L232.089 80.991 L232.0808 80.4911 M235.919 139.4706 L235.9579 139.0925 L246.746 140.9189 L254.6055 142.1204 L261.8266 143.0635 L262.3207 142.99 L262.8497 142.7936 L262.9283 143.1381 L263.376 143.7546 L264.2979 145.1629 L265.9095 146.8853 L267.3611 148.2507 L267.8894 148.927 L268.1976 149.5645 L268.3199 149.9058 L268.2509 150.1673 L266.5997 151.5621 L262.3385 154.6623 L261.558 155.3996 L261.2286 155.2084 L260.729 155.0446 L260.2889 154.9658 L259.5569 154.97 L258.1231 155.3828 L256.1849 155.7283 L254.7524 156.182 L251.8457 156.9634 L250.2704 157.3215 L250.1802 157.291 L249.5993 157.0967 L248.989 155.0835 L248.6609 153.5869 L248.3438 153.1311 L247.6419 152.732 L246.9066 152.5902 L245.5124 152.5808 L244.7872 152.5094 L243.8017 151.8362 L243.5536 151.6503 L243.1914 149.9237 L242.5825 145.31 L242.497 144.3921 L242.3385 142.6896 L242.1314 142.2538 L241.8348 141.9387 L241.0194 141.736 L237.3781 141.2004 L236.329 140.8601 L236.0386 140.4746 L235.9313 139.8791 L235.919 139.4706 M240.3565 116.7593 L240.3613 116.293 L240.5903 115.6943 L241.1015 114.8583 L242.4916 112.7955 L243.5789 111.3261 L244.2623 110.6413 L244.6335 110.4953 L245.1747 110.4764 L245.9327 110.6969 L247.3125 111.1391 L248.0171 111.5088 L248.4955 111.6811 L248.9821 111.6989 L249.6533 111.4542 L250.4488 111.3859 L251.6838 111.1528 L252.752 111.1171 L253.2748 111.1874 L253.8154 111.3765 L254.5617 111.8061 L255.8514 112.2766 L256.6783 112.6484 L257.5463 112.7934 L259.1236 112.8322 L260.8999 112.5833 L261.3872 112.6295 L261.9107 112.8175 L262.0686 112.9929 L262.1718 113.2439 L262.1656 113.8762 L261.8266 114.0894 L258.4518 114.6293 L256.7549 115.2143 L255.6655 115.7374 L254.8269 116.3266 L253.5933 117.3737 L252.9481 117.7025 L250.8288 118.3484 L250.3729 118.6163 L249.6683 119.2181 L247.7773 120.9616 L247.0309 121.5035 L246.3195 121.6096 L245.7686 121.4584 L245.2403 121.2378 L243.76 120.1612 L242.3501 119.0448 L241.2703 118.3169 L240.7208 117.7361 L240.4515 117.2362 L240.3565 116.7593 M243.0909 93.9515 L243.6657 93.2919 L244.5439 93.42 L245.159 93.983 L245.3374 94.6373 L245.5151 94.8222 L246.3564 94.7403 L246.597 94.4914 L246.5915 93.6647 L246.8293 92.7919 L248.2181 92.5619 L248.2406 93.087 L249.4387 93.4662 L249.5788 94.0712 L249.5248 95.9566 L249.248 98.5236 L248.7737 99.1486 L248.1825 99.1937 L247.6488 99.1748 L246.165 99.5698 L245.2369 99.8943 L244.4906 99.3051 L243.9616 98.4165 L243.7744 97.5279 L244.2767 96.7843 L244.2254 96.3473 L243.445 95.966 L243.1347 94.7886 L243.0909 93.9515 M248.1251 122.8584 L248.1579 122.4372 L248.4313 121.9173 L249.0594 121.2168 L250.7085 119.884 L252.2401 119.0532 L252.9809 118.9818 L255.0066 120.5583 L257.1089 121.6527 L259.2009 122.2975 L260.0927 122.0423 L262.0105 121.8858 L262.9126 121.7514 L263.6015 121.4573 L264.138 120.7252 L265.1174 119.7495 L266.7767 118.6057 L266.9517 118.4366 L266.9852 118.3012 L265.9942 116.9767 L265.1372 115.6964 L265.0326 115.2364 L265.0374 114.8163 L265.5507 114.3583 L266.8758 113.6798 L267.6399 113.4708 L267.7178 113.433 L268.0008 113.2198 L269.1565 112.8564 L271.7603 112.1821 L272.1123 112.1936 L272.9693 112.1212 L273.6309 112.0235 L274.3998 112.0718 L275.0812 112.2377 L275.9922 112.3512 L276.6469 112.7209 L278.1511 113.1757 L280.0046 113.7985 L281.4275 114.0264 L282.629 114.039 L283.7184 114.2596 L284.5959 114.5306 L285.9498 114.7112 L287.3597 114.6167 L288.5038 114.3037 L290.5336 113.8699 L291.5034 113.7596 L293.3091 113.4918 L293.9973 113.4708 L294.2057 113.85 L294.2488 114.5306 L294.1319 114.8352 L293.4649 114.895 L292.8682 115.1082 L292.6571 115.5494 L292.724 116.4274 L293.2961 117.6227 L293.5934 118.4419 L294.4019 118.9628 L295.4721 119.3157 L296.1904 119.6571 L296.9162 120.2663 L299.0335 122.5444 L299.4873 123.2449 L299.7627 124.0368 L299.8502 124.6313 L300.0019 125.7257 L299.965 126.7623 L299.8741 127.3106 L299.68 127.6729 L298.5196 128.7652 L294.8017 130.9487 L289.6978 134.025 L282.7172 138.6766 L280.2028 140.4578 L275.9703 143.6779 L270.8958 147.6625 L270.4078 148.0228 L270.1058 148.1309 L269.6561 148.1015 L269.2193 147.9429 L267.7178 146.8213 L266.4562 145.6009 L264.9267 143.4279 L264.1093 141.9807 L263.3028 141.0449 L262.8197 140.5271 L261.7931 139.1755 L259.9629 136.47 L259.0006 134.6929 L257.9174 132.7415 L257.1629 131.5096 L256.1363 130.1579 L255.483 129.3912 L253.9377 127.9764 L249.3717 124.2616 L248.3589 123.3667 L248.1928 123.1042 L248.1251 122.8584 M258.2967 258.6862 L258.4402 258.0426 L258.9849 257.1679 L259.6 257.1437 L260.0435 256.7342 L260.2923 256.3772 L267.0207 257.0566 L267.8367 256.981 L269.5351 257.1395 L273.1026 257.2592 L276.0585 257.8798 L276.1152 257.9365 L276.8964 258.7198 L277.3536 260.6466 L277.4814 261.2671 L277.0385 261.6115 L276.1384 261.6483 L275.6231 261.39 L272.642 260.2497 L272.1731 260.2507 L270.755 260.4418 L269.6554 260.6928 L268.2919 261.4708 L266.3284 265.0787 L266.1131 265.7727 L266.2772 266.5634 L266.8273 267.0569 L269.041 268.1667 L270.1194 268.5248 L270.8644 268.929 L270.8316 269.6 L270.8124 269.9958 L270.3566 270.1312 L270.3197 270.1155 L268.2741 269.2377 L267.3139 268.7306 L266.2573 268.277 L264.5098 267.7814 L262.141 267.207 L260.2212 266.8857 L259.952 266.3513 L259.5173 263.7305 L259.099 261.5401 L258.8325 260.3809 L258.4607 259.4769 L258.2967 258.6862 M263.7348 275.1859 L264.0922 274.7008 L265.9307 274.2367 L268.6165 273.6939 L270.2616 273.2109 L271.4562 273.2256 L272.3584 273.5227 L274.1278 274.7239 L274.2125 274.7816 L276.0571 275.3234 L277.1438 275.4053 L280.9758 275.6962 L281.1432 275.8631 L281.3592 276.3587 L281.5902 277.0632 L281.6736 278.0145 L281.5396 278.8723 L281.3093 279.5769 L280.3129 280.1449 L278.6924 280.9009 L277.1069 282.1178 L276.7023 282.6092 L276.5868 283.4418 L277.0344 286.156 L277.0898 286.9403 L277.2121 287.7718 L277.2497 288.7966 L277.4219 290.3558 L276.8663 290.7821 L276.1815 291.1695 L275.673 291.5307 L276.1343 293.7104 L276.2075 294.0568 L276.2184 294.9052 L276.4617 295.3934 L276.4836 296.3163 L276.7973 296.8318 L276.787 297.4093 L276.3298 297.8566 L274.9083 297.8954 L273.9665 297.6833 L272.5832 296.3216 L271.5123 295.2674 L269.8857 294.2626 L265.6846 293.2557 L265.3422 292.8746 L264.926 292.3139 L264.464 290.7999 L264.0088 286.745 L263.8147 282.8433 L263.7348 275.1859 M271.0516 149.4994 L271.1384 149.2893 L272.359 148.2822 L273.7382 147.2918 L274.11 147.1574 L274.6458 147.0786 L275.4591 146.7614 L275.9881 146.3676 L276.3141 145.9265 L276.5738 145.2984 L276.9435 144.8888 L280.0613 142.4207 L283.0111 140.4106 L283.6337 140.1217 L284.0335 140.1806 L286.8369 141.4167 L288.4389 142.2012 L289.4271 142.802 L290.1051 143.6842 L290.332 144.1621 L290.3347 144.7124 L290.576 145.8172 L291.0141 146.9316 L291.4494 147.4966 L292.6092 148.4649 L293.8995 149.2568 L295.181 149.4595 L295.805 149.4458 L297.5429 149.031 L298.1457 149.1381 L298.7553 149.5593 L299.3164 150.1831 L299.5222 150.7817 L299.5618 151.0516 L299.1763 151.6198 L298.7198 152.2384 L298.197 152.67 L297.0133 153.3958 L295.7838 153.8137 L294.1702 154.0143 L292.9379 153.9902 L292.7582 153.987 L291.6415 153.839 L289.8871 153.3516 L285.7885 152.3466 L284.1538 151.6062 L281.8 150.5003 L279.7114 149.8659 L277.6768 149.0667 L276.34 148.7537 L275.984 148.7285 L274.3649 148.8892 L272.3563 149.8565 L271.7166 150.0298 L271.4378 149.992 L271.1678 149.7567 L271.0516 149.4994 M284.6082 139.7972 L284.639 139.4758 L286.3182 138.038 L288.5585 136.3975 L290.7441 134.925 L291.6893 134.3884 L292.6974 134.2781 L293.0288 134.3873 L293.6152 134.8946 L294.2693 135.5909 L295.0819 136.0247 L297.0857 136.5204 L297.5867 136.4458 L298.8244 136.0247 L299.7422 135.572 L299.9725 135.2601 L300.2938 134.5028 L300.3341 133.7046 L300.0771 133.0293 L298.877 131.3048 L298.7102 130.9729 L298.6255 130.6683 L298.8114 130.3238 L301.4057 128.949 L307.3905 125.5366 L309.868 123.9013 L312.3769 121.9436 L314.6889 119.8293 L317.7466 116.2531 L322.1056 110.8114 L323.6344 109.1582 L324.3971 108.4503 L325.4735 107.7361 L327.0899 106.942 L327.4753 106.8843 L327.9168 106.9378 L328.0665 107.1542 L328.208 107.8464 L328.2797 108.8662 L328.4082 109.2034 L328.7123 109.3966 L331.1939 109.6624 L331.7024 109.9039 L331.9081 110.2306 L332.3011 111.5592 L333.167 115.8298 L333.264 116.4894 L333.1499 116.7835 L332.5184 117.3139 L331.9129 117.4819 L331.0593 117.5691 L330.464 117.5386 L330.0785 117.5954 L329.7812 117.7193 L329.7054 118.0081 L329.8243 118.5448 L330.0259 119.1099 L330.7811 120.2264 L331.7851 121.4247 L333.113 122.4173 L334.2468 123.1609 L334.5414 123.5526 L334.9323 124.604 L336.8288 135.8682 L336.8418 137.2923 L336.4563 140.5597 L336.1549 141.1867 L335.5795 141.8274 L334.7546 142.1078 L332.2013 141.8925 L331.3073 141.7076 L331.0429 141.6163 L330.1865 141.319 L326.4645 139.7205 L326.2752 139.6397 L325.6355 139.5756 L325.2234 139.7163 L325.0259 139.9831 L324.2782 141.3232 L323.0515 142.8913 L321.7741 144.1116 L320.7517 144.6588 L318.2674 144.9088 L316.9368 144.976 L316.6525 144.9907 L314.4805 144.8752 L312.6099 144.4792 L308.8948 143.408 L308.2934 143.3387 L307.9851 143.3838 L307.8484 143.5235 L307.7124 143.9394 L307.8238 146.2993 L307.6455 148.028 L307.1589 149.804 L306.6463 150.8699 L306.2349 151.2869 L305.14 151.6083 L303.7225 151.3426 L300.7626 150.2367 L298.7478 148.5951 L297.9564 148.0396 L297.7466 147.9513 L297.2901 148.0595 L295.3751 148.6991 L294.4442 148.7978 L293.8319 148.6508 L292.748 147.9797 L292.0939 147.2876 L291.7713 146.7005 L291.664 146.2415 L291.5656 144.2345 L291.3353 143.4762 L290.9184 142.7852 L289.9985 141.8914 L288.7608 141.2424 L286.9668 140.8349 L285.306 140.5261 L284.8194 140.1627 L284.6082 139.7972 M287.8833 101.4257 L288.3029 100.2189 L289.3185 100.1422 L290.6997 100.8165 L290.8876 101.077 L290.3074 102.0223 L289.3643 102.1767 L287.9612 101.6284 L287.8833 101.4257 M289.9773 98.99 L290.0197 98.5394 L291.2751 98.8114 L292.8382 99.3229 L292.8703 99.6233 L292.5279 99.7714 L291.7747 99.7357 L290.6368 99.5897 L289.9773 98.99 M294.814 223.268 L294.8796 222.807 L295.3204 222.5728 L295.3477 222.5697 L296.5089 222.4342 L300.5685 222.1507 L303.1498 221.9648 L304.0554 222.0405 L304.3725 222.1507 L304.9958 222.3765 L305.0908 222.4122 L305.5897 223.4077 L305.9068 224.9156 L305.7893 225.2768 L305.6498 225.4007 L305.5952 225.449 L304.1695 225.9982 L296.7467 229.4551 L296.6647 229.4929 L296.3524 229.3102 L296.1289 228.8954 L295.6724 227.5429 L295.0286 224.1427 L294.814 223.268 M298.3166 113.099 L298.523 112.723 L299.0759 112.4688 L299.732 112.5392 L305.4352 111.9563 L306.3251 111.9857 L308.4 111.4689 L310.1831 111.1297 L310.8446 110.8912 L312.7815 110.3241 L315.7503 109.7968 L318.3877 109.0238 L319.9152 108.4062 L321.5834 107.8432 L321.8308 107.9693 L321.9764 108.1898 L320.3102 110.1182 L317.2559 114.2134 L313.6337 118.7066 L313.0665 119.3157 L310.9417 121.0865 L308.6248 122.2902 L301.9798 123.1892 L301.3415 123.121 L301.243 122.3248 L301.4269 120.7273 L301.2977 120.3261 L300.6833 119.2265 L299.7764 117.3296 L299.5652 116.1354 L299.4231 115.876 L298.8736 115.2227 L298.6918 114.9339 L298.5373 114.3615 L298.3166 113.099 M301.0305 228.1782 L306.7078 225.1466 L312.0482 223.9684 L313.7472 227.4851 L313.9604 226.6041 L314.4914 226.0108 L315.5658 225.2306 L316.7433 224.9513 L317.5061 225.029 L318.1259 224.8074 L318.7588 224.9051 L318.7793 225.5152 L319.2071 225.5939 L319.2092 225.2821 L320.328 225.6013 L320.5993 225.8491 L320.7039 227.2846 L321.157 227.0168 L322.1582 226.4267 L322.8553 226.833 L323.2886 227.8674 L323.4984 229.2661 L323.7773 230.3791 L323.5428 233.9557 L323.3364 235.3985 L322.83 236.6764 L321.619 237.613 L321.1508 237.7243 L320.7114 238.1832 L318.4212 239.8339 L311.4467 239.3698 L311.2964 238.6599 L310.6109 236.5577 L309.9322 235.8626 L301.5157 235.1612 L303.361 233.9536 L301.0305 228.1782 M314.462 346.4883 L316.105 344.8873 L317.2901 342.2239 L318.1089 340.8969 L318.6453 340.7677 L320.0546 341.0984 L328.0849 346.5492 L329.4641 346.7676 L333.0043 345.6516 L341.8473 345.1015 L358.8751 345.9833 L364.7 349.0258 L365.8898 351.0645 L367.256 352.0934 L367.5875 353.4938 L366.7523 356.7378 L367.3442 357.564 L372.036 357.881 L378.7664 357.0443 L379.1218 357.3089 L379.7321 360.1119 L379.4239 366.7319 L378.1206 368.7517 L370.6493 376.8151 L366.0914 372.5078 L362.9326 370.3642 L358.929 368.4662 L352.7358 366.3498 L350.3314 366.0075 L345.315 366.2028 L341.4816 365.8963 L340.5665 365.4658 L340.2597 364.2239 L348.7951 362.7752 L349.1826 359.7056 L356.3422 358.7009 L358.8265 358.2138 L361.3655 357.4306 L360.4176 356.6454 L358.7322 357.0978 L358.4165 357.543 L357.4925 358.0017 L355.5064 357.7288 L352.5813 358.154 L351.8275 358.4059 L351.6573 358.9749 L347.8547 357.375 L344.9262 356.9803 L339.7095 355.1966 L335.0143 354.445 L324.1696 355.0014 L320.9431 352.9773 L314.462 346.4883 M317.9113 222.2872 L318.4328 220.0138 L318.7397 219.3869 L319.3554 219.4289 L320.5945 219.6368 L323.2763 220.3939 L324.7265 220.7425 L326.0893 221.1416 L327.4637 221.4913 L328.5271 221.9921 L328.6877 222.4363 L328.2333 223.6775 L327.7952 225.0973 L327.3079 226.4393 L327.0612 226.896 L326.593 227.1691 L326.5349 227.2027 L325.9889 227.3318 L318.2223 223.5578 L317.9127 223.2029 L317.9373 222.7892 L317.9113 222.2872 M332.7419 245.2606 L332.9455 244.703 L333.5107 244.3313 L335.7968 243.9921 L340.2952 243.1342 L341.9737 242.7016 L342.9128 242.459 L343.3057 242.2091 L343.3693 241.6725 L343.3344 238.849 L342.908 236.2763 L342.6544 232.641 L342.7105 232.2819 L342.9995 231.5815 L343.1731 231.5773 L344.2263 231.7726 L344.8824 231.7841 L345.2385 231.6875 L350.0218 232.4908 L351.0238 232.7807 L351.3955 232.7912 L352.8847 232.9875 L353.111 233.0411 L353.3262 233.3445 L353.3864 233.4611 L353.5545 233.7877 L354.7731 242.3792 L354.9405 245.1335 L354.6309 245.9473 L354.3172 246.3694 L353.8689 246.7884 L351.3306 248.1524 L350.1647 248.6679 L347.0154 250.0613 L341.3641 252.1393 L340.4667 252.3283 L335.2412 253.4214 L334.9521 253.4645 L334.7307 253.2576 L332.9558 246.7138 L332.7644 245.7362 L332.7419 245.2606 M337.3783 123.916 L337.4644 123.2943 L337.8089 122.4908 L338.1745 121.8281 L338.3563 121.3722 L338.3358 120.2652 L337.8546 117.7235 L337.8355 117.1133 L338.033 116.7614 L338.2756 116.4747 L338.6139 116.3528 L338.8408 116.3192 L339.1361 116.2751 L339.4238 116.3497 L339.84 116.4579 L341.8493 117.9756 L342.3031 118.5385 L343.0201 119.0721 L343.2401 119.4691 L343.7042 119.969 L343.765 120.1392 L344.5017 121.0319 L346.5671 122.4813 L347.1658 122.6798 L348.3727 122.8952 L349.3405 123.1808 L350.0751 123.5736 L351.3655 124.6008 L352.9504 125.691 L353.2948 125.8549 L353.6188 125.878 L353.858 125.8076 L354.4696 124.6418 L355.0731 123.9076 L355.8618 123.2176 L356.6266 122.8405 L356.6915 122.808 L357.3189 122.7156 L357.7125 122.7282 L357.9196 122.8552 L358.4172 123.1619 L359.4833 124.1135 L361.0743 126.7686 L361.5507 127.3431 L362.4761 128.0657 L363.2197 128.2779 L364.1259 128.1434 L364.5551 128.4029 L364.9658 128.7715 L365.1476 129.2819 L365.0704 129.7231 L364.7786 130.161 L364.3309 130.2629 L363.234 130.0665 L361.6143 129.9489 L359.7246 129.6915 L357.9579 129.0572 L357.3052 128.9753 L355.9657 129.0666 L354.9146 129.1864 L354.6063 129.2672 L354.7 129.9898 L356.0996 130.8994 L360.3663 131.3877 L361.3033 131.4634 L362.1098 131.3793 L362.6702 131.6251 L363.3399 131.8415 L363.7063 131.8236 L364.3624 132.4076 L365.1504 132.6848 L365.9671 133.524 L366.7031 135.0521 L368.4192 139.4538 L370.7921 144.9266 L370.9254 145.5872 L371.0443 147.3611 L371.1707 147.736 L371.2903 147.8253 L372.2143 148.2979 L372.595 148.7075 L372.7939 149.1717 L373.1158 150.4929 L373.301 150.5937 L373.5689 150.682 L374.5209 150.7975 L378.8109 151.06 L380.067 151.2165 L382.8417 151.874 L385.6725 152.9095 L386.0313 153.3264 L386.0874 153.7035 L385.9302 155.5225 L385.175 158.6574 L384.7103 160.8649 L384.5633 161.745 L384.821 163.4926 L384.4553 165.4071 L383.6906 167.4487 L382.7331 169.1563 L381.0614 172.6913 L380.9568 173.1334 L381.0908 173.9714 L381.4913 175.2674 L381.5644 177.185 L381.2883 180.157 L381.4626 181.3426 L381.4598 181.4277 L381.4523 181.6881 L381.4168 182.8948 L381.6184 183.9754 L381.1311 184.134 L375.4101 185.4078 L375.2713 185.3322 L375.2256 185.307 L375.0438 184.6507 L374.3432 181.3353 L374.2633 180.7924 L374.2503 179.5542 L374.0658 178.3003 L373.6126 176.9571 L373.3482 176.3123 L372.7966 175.4532 L372.459 173.4526 L372.5239 173.314 L372.6777 173.2058 L372.9196 172.8288 L373.1869 171.5539 L372.4672 164.339 L372.4611 163.2531 L372.4542 161.9256 L371.7763 157.9978 L371.5056 156.6525 L371.4209 156.3028 L371.2117 156.035 L369.618 155.5298 L367.0742 155.1906 L365.4306 155.1486 L364.3501 155.3408 L363.1991 155.2337 L361.9478 154.8199 L359.743 153.9692 L358.8675 153.8221 L357.0585 153.6625 L356.1482 153.5407 L355.5098 153.2508 L354.9665 152.732 L354.4471 151.227 L354.132 149.0919 L353.9106 148.7401 L350.8119 147.6174 L348.141 146.5157 L347.3072 146.3403 L345.8686 146.3823 L344.5462 146.5524 L343.1191 146.6784 L342.2143 146.5986 L341.7256 146.4579 L341.4037 146.2909 L341.0682 145.7427 L340.1722 139.374 L340.0321 138.7112 L339.5373 137.3732 L338.9065 136.2683 L338.6092 135.1151 L337.5984 126.1374 L337.3783 123.916 M355.6704 106.8139 L355.8372 106.7162 L357.0428 107.2676 L358.3372 107.4399 L358.7199 107.5239 L359.214 108.6824 L359.6972 110.5383 L359.2851 110.9721 L359.9255 112.9299 L362.053 117.8947 L363.249 119.7884 L363.927 121.2483 L364.402 122.1852 L364.8804 122.9162 L366.06 124.1734 L366.7933 124.7206 L371.0183 126.5754 L372.1221 127.1782 L372.526 127.7013 L372.9894 128.3976 L374.0234 131.0222 L374.5141 132.6103 L375.9623 134.4293 L377.4337 135.7579 L379.0569 136.6769 L380.2618 136.9006 L380.4764 137.1243 L380.5912 138.393 L380.6561 139.9295 L380.8625 141.2224 L381.1769 142.5289 L382.2273 145.2344 L382.3217 145.8467 L382.0674 146.8538 L382.0018 147.3222 L382.1091 147.6835 L382.459 147.8736 L383.3167 148.0427 L384.2428 148.3116 L387.2267 148.9386 L387.9873 149.3608 L388.4869 149.8208 L388.6796 150.2272 L388.7473 150.9183 L388.3379 151.7469 L387.8889 152.0819 L386.7975 152.3434 L386.3327 152.3455 L385.8482 152.2174 L382.2656 150.9099 L381.1899 150.6011 L380.203 150.4467 L377.5096 150.2104 L375.2091 149.7157 L374.1977 149.1644 L373.0242 147.9681 L372.1938 146.6207 L371.6163 145.4035 L370.8249 143.4153 L369.4136 140.3833 L367.9647 136.8586 L366.9731 133.0808 L365.7299 128.0857 L365.205 126.2477 L364.8886 125.8213 L362.9381 124.395 L359.8141 121.6485 L359.4088 120.8691 L359.2776 119.9774 L359.3186 119.0227 L359.4054 118.1342 L359.3617 117.5933 L359.1354 117.0429 L358.5122 115.7678 L357.4583 113.0423 L355.7442 107.3139 L355.6704 106.8139 M382.3463 177.7836 L382.4044 173.9504 L383.0898 171.2955 L383.9018 170.154 L384.5059 169.2162 L386.9697 170.2012 L387.0913 172.519 L390.1456 180.7892 L390.8393 184.2495 L392.8342 187.8243 L394.7472 188.3399 L395.1654 189.9361 L395.2051 191.0356 L394.3262 191.902 L393.327 192.4481 L391.3177 192.5027 L390.0383 192.1667 L388.4705 191.6405 L387.6565 191.1837 L387.1173 190.0768 L386.6881 189.0624 L385.4668 186.3603 L383.9421 183.8757 L383.5641 182.5524 L382.3463 177.7836 M385.909 161.1191 L386.4489 159.8305 L386.7223 158.2656 L386.7722 156.6284 L387.3196 154.9942 L387.7515 153.3821 L388.2915 152.3812 L389.6631 150.5234 L390.1395 150.3196 L393.5081 153.3642 L395.842 155.325 L397.226 157.959 L398.787 160.2789 L400.4163 162.3688 L397.9955 162.9412 L396.4401 163.6721 L395.3807 164.8473 L394.6686 165.0983 L393.1616 164.6436 L391.2186 163.857 L389.4622 163.1817 L387.6217 162.5652 L386.0204 161.8206 L385.909 161.1191 M387.0319 261.7323 L387.2943 259.6333 L387.6053 259.1556 L387.8923 259.1619 L388.9353 259.773 L390.2509 260.2969 L391.3929 260.6067 L393.0297 261.37 L396.1243 262.9724 L396.2521 263.1929 L396.1865 263.3945 L394.9953 264.1883 L393.0372 266.2725 L391.9171 267.8412 L390.8769 270.3433 L390.9849 275.2132 L391.0607 276.7986 L390.4532 277.0958 L389.9946 277.2113 L389.4164 276.9057 L389.1936 276.301 L389.0795 276.0395 L388.2224 272.9316 L387.5363 267.1461 L387.3094 265.2351 L387.0319 261.7323 M389.3979 295.3094 L390.19 294.9104 L391.1516 294.9451 L391.833 295.4848 L393.0133 296.519 L393.7254 297.2665 L394.631 297.8167 L396.0136 298.8477 L397.3251 301.4977 L397.6839 302.7681 L398.23 304.3283 L398.8444 305.1924 L399.3638 306.2182 L399.5169 306.9815 L399.3453 307.8687 L399.0385 308.485 L398.2006 309.4162 L396.4749 311.0604 L395.9159 311.3806 L394.9221 311.705 L393.9804 311.094 L392.6798 309.9034 L392.1146 308.6025 L391.8802 307.0466 L392.0756 305.3489 L392.1091 303.8548 L391.6027 302.5529 L390.853 300.9381 L390.0452 296.8161 L389.3979 295.3094 M390.8858 365.0722 L390.9678 364.4013 L391.5644 364.1221 L391.3874 363.5668 L391.6218 363.0261 L395.5987 362.6377 L395.7436 362.3962 L396.0505 362.2178 L396.708 362.1579 L396.9943 362.2304 L397.3094 362.3647 L397.5602 362.5191 L398.7822 365.0669 L396.9 363.9814 L395.8817 364.0455 L394.3481 364.2922 L394.0432 364.4801 L394.007 365.2685 L394.1601 365.8564 L394.4171 366.1808 L394.6659 366.3823 L394.9324 366.4485 L398.9626 365.8417 L399.3235 366.3508 L400.1388 366.5261 L400.7457 367.0951 L408.7378 366.1619 L409.0843 366.2542 L409.4588 366.5345 L414.7752 375.4724 L414.4684 375.969 L412.5848 376.2293 L412.6422 376.6209 L414.3706 376.4036 L414.8251 376.5841 L415.3104 377.2276 L417.9607 382.1122 L413.6059 381.6115 L412.4058 380.9596 L411.3191 379.9749 L411.1442 376.9767 L411.574 376.665 L412.172 376.5285 L412.0907 376.2356 L411.2378 376.1894 L410.7396 375.8787 L408.6236 372.8459 L405.7785 372.7808 L403.2402 372.7934 L400.1962 372.8627 L398.9681 372.596 L398.2956 372.1047 L397.2978 371.078 L396.7216 370.7159 L395.568 369.4068 L393.7617 367.9486 L390.9473 365.4921 L390.8858 365.0722 M396.6143 153.1017 L396.6793 152.6039 L397.0059 151.9979 L397.4392 151.4108 L398.7617 150.2734 L400.8995 148.2454 L402.9306 146.3445 L403.8362 145.0149 L405.0001 143.4584 L405.7102 142.8661 L405.8407 142.8104 L406.5904 142.4911 L406.9861 142.1193 L407.5384 141.4902 L407.9122 140.7372 L408.1459 138.0884 L408.4938 136.9216 L408.8116 136.3408 L409.4499 135.1761 L410.0274 134.2539 L411.2145 132.2952 L412.5554 132.2006 L434.5757 140.7361 L434.1663 141.2497 L434.0618 141.7181 L434.2067 142.4638 L434.7466 143.7787 L434.942 144.1673 L436.8488 145.3499 L437.7667 145.7017 L438.2075 145.6366 L439.2374 145.101 L439.8416 144.7323 L440.173 144.16 L440.6118 142.385 L442.3942 143.3418 L442.1249 143.5298 L441.8803 144.8836 L441.2091 145.8467 L439.9933 146.7037 L438.9893 146.9956 L437.8685 147.4672 L436.9404 147.8106 L431.7347 148.9302 L426.8474 149.6895 L423.3797 149.6086 L422.5835 149.3786 L422.0285 148.9029 L421.3588 147.6289 L420.7772 146.4736 L420.4033 145.4518 L419.9659 144.2587 L419.8149 144.1757 L417.0771 144.4068 L414.9659 144.8941 L414.845 145.0159 L414.7445 145.2753 L414.8347 146.7625 L415.16 150.0077 L416.0177 152.5115 L417.7017 154.7716 L418.8998 155.8491 L419.4786 156.2513 L419.5237 156.559 L419.5791 159.757 L419.305 160.2506 L418.8895 160.4869 L418.12 160.6706 L417.1611 160.6885 L414.7322 160.2274 L413.7173 159.9292 L412.0914 158.7435 L409.6686 156.1736 L408.9134 155.5183 L408.4767 155.3744 L408.2443 155.4437 L407.9641 155.659 L407.6327 156.2314 L407.3962 156.8006 L406.4305 159.1279 L405.2427 160.9426 L404.6877 161.4079 L404.2517 161.5077 L404.0255 161.4846 L403.6892 161.4509 L402.7605 161.0309 L402.211 160.5898 L401.6594 159.904 L401.207 159.1384 L400.5489 158.4337 L399.8634 158.0125 L398.9291 157.0306 L397.6641 155.5498 L396.6799 153.569 L396.6143 153.1017 M398.9496 146.0252 L399.8244 144.0602 L400.3397 143.7336 L401.5576 143.8501 L401.9007 144.5065 L401.8351 145.4213 L401.2268 146.2951 L399.7916 147.2624 L399.4718 147.2498 L399.236 146.8412 L398.9496 146.0252 M401.0655 374.6032 L401.2357 374.0248 L402.6798 373.5734 L404.1629 373.797 L404.9919 373.6427 L405.8824 373.4789 L406.8228 373.6563 L407.4331 373.945 L408.5314 373.9093 L409.6611 375.7989 L410.0855 376.9694 L410.2051 377.9961 L409.791 379.0385 L409.2162 378.775 L407.1358 377.2801 L406.22 376.8455 L405.4887 377.0177 L404.873 376.476 L403.5669 376.3847 L402.416 376.4917 L401.8139 376.0424 L401.1045 375.294 L401.0655 374.6032 M401.2644 140.3591 L401.5508 139.2038 L402.6361 138.5401 L404.0754 137.7009 L404.8504 137.5076 L405.7765 137.2325 L406.2419 138.2628 L406.1708 139.3046 L405.6801 140.3328 L404.005 142.4544 L403.3626 142.5415 L402.6784 142.1529 L401.7729 141.3064 L401.2644 140.3591 M401.507 190.5179 L401.6485 190.1609 L401.7374 189.9361 L402.2028 189.6778 L402.1987 189.6694 L402.3531 189.6011 L404.21 188.6602 L408.4412 186.2343 L408.4179 186.4675 L408.3311 187.8747 L408.9401 189.0183 L412.2992 189.5371 L414.4007 189.6988 L416.3396 189.5812 L416.8132 191.8873 L417.2069 192.0753 L417.7516 192.1667 L418.5006 192.2927 L418.815 192.4922 L419.1588 192.8913 L420.1921 199.2667 L419.8443 199.6353 L418.8765 199.692 L418.6859 199.6269 L417.8186 199.3307 L415.8927 198.9243 L414.6591 198.7332 L412.5343 198.7311 L409.985 198.9642 L410.0841 198.7059 L409.6843 198.478 L409.4663 198.101 L409.3604 197.3796 L409.2524 195.2667 L408.9045 195.1134 L407.77 194.8718 L406.1722 194.2491 L403.9223 192.4922 L402.1433 191.3958 L401.7756 191.169 L401.6 190.7426 L401.507 190.5179 M406.3485 135.5395 L406.8146 134.7223 L407.9716 134.3264 L408.5362 134.5522 L408.5368 135.1298 L408.1022 135.9196 L407.6436 136.7588 L407.1939 136.7136 L406.4367 135.8766 L406.3485 135.5395 M446.6267 415.861 L446.6951 415.4222 L447.2022 415.1178 L450.5852 414.5121 L454.6865 414.5982 L454.992 414.4093 L455.0528 414.2224 L455.1594 413.8949 L455.1888 413.8046 L455.223 412.5377 L455.3077 411.4953 L455.7062 411.1027 L456.0766 410.8382 L460.3446 410.982 L461.5167 410.8571 L466.6343 409.7161 L470.6488 409.7213 L471.3206 409.8893 L471.4176 409.9984 L471.8291 410.5012 L471.6937 413.0111 L471.57 414.108 L471.406 415.0002 L471.0759 417.5395 L470.4588 418.9083 L469.668 418.902 L462.7394 418.1966 L462.2268 418.2721 L462.1783 418.3383 L448.9866 419.3575 L446.9876 416.2473 L446.6267 415.861 M448.9709 419.3733 L462.1626 418.354 L461.9726 418.6112 L461.9391 419.2127 L461.881 420.2529 L461.6028 420.6297 L461.2645 420.9195 L460.6071 421.3036 L454.1794 422.9254 L452.4052 423.8103 L451.9391 423.8796 L448.9709 419.3733 M455.1888 428.3669 L455.2237 428.0971 L455.2332 428.0247 L456.1292 427.3172 L457.2719 426.6696 L461.4504 425.6199 L462.4845 425.8508 L462.8385 426.1731 L463.254 426.551 L463.5786 427.461 L463.7454 428.9211 L463.6675 430.6573 L462.8993 434.1715 L462.2391 434.4256 L462.2002 434.4235 L461.3937 434.3699 L460.4205 434.1548 L457.4147 431.1989 L455.2435 428.7416 L455.1888 428.3669" stroke-dasharray="" fill="none" fill-opacity="1.0" stroke="#ff0000" stroke-opacity="1.0" stroke-width="1.0px" stroke-linecap="butt" stroke-linejoin="miter" stroke-dashoffset="0.0px"/>
</g>
</svg>