<?xml version="1.0" standalone="no"?>
<!DOCTYPE svg PUBLIC "-//W3C//DTD SVG 1.1//EN" "http://www.w3.org/Graphics/SVG/1.1/DTD/svg11.dtd">
<svg width="512px" height="512px" version="1.1" xmlns="http://www.w3.org/2000/svg" xmlns:inkscape="http://www.inkscape.org/namespaces/inkscape">
<g id="layer" inkscape:groupmode="layer" inkscape:label="layer">
<path d="M34.4356 389.0316 L35.0881 396.0504 L38.5578 399.6871 L40.396 401.9216 L42.1836 406.1596 L42.6073 406.6423 L47.2326 409.8367 L50.1479 412.6795 L50.6988 413.3491 L51.2356 415.1606 L51.5939 421.1971 L51.7637 422.3073 L52.3511 424.188 L54.8656 429.2683 L55.5071 439.6743 L55.7135 452.8415 L55.5472 455.5472 L54.3791 460.3594 L54.4502 460.7737 L56.1196 464.1968 L56.6586 473.2481 L56.8384 475.1882 L57.0643 475.5412 L59.9847 477.9758 L60.2568 478.5444 L61.4182 483.4875 L61.8303 484.0917 L69.1624 491.0287 L72.3132 494.3465 L88.5636 512.0 L88.5447 511.7622 L86.5658 509.5139 L82.8698 505.6287 L83.1583 505.431 L87.7634 501.87 L91.1046 499.8119 L92.5551 497.3316 L96.4267 493.8937 L101.1594 491.3475 L101.6721 490.8976 L101.2043 489.3403 L101.999 488.2032 L99.3968 477.5288 L101.6529 471.6698 L103.2149 472.2978 L103.5155 472.1178 L104.1933 472.5025 L104.5513 472.8347 L104.7166 472.901 L104.7878 473.0537 L105.3181 473.5457 L105.7081 474.6424 L106.0543 475.7731 L108.5523 481.1371 L109.6817 482.4295 L115.5389 483.5854 L116.1411 484.6212 L116.3135 484.8303 L116.3792 485.0311 L117.4617 486.893 L119.2756 486.8979 L123.9256 485.1626 L126.1497 479.2296 L125.9724 477.3741 L132.6997 471.5868 L137.4046 470.3398 L138.0022 468.9806 L137.7555 469.0651 L136.4457 469.3865 L135.8067 469.1892 L135.7936 469.0162 L136.2406 468.3274 L139.1117 464.3051 L139.9635 462.1691 L140.0722 461.7735 L140.2718 460.0869 L139.27 457.3807 L139.0223 457.2403 L138.797 456.9604 L138.773 456.5347 L138.7868 456.0862 L137.635 453.0022 L137.4639 452.8237 L133.7246 450.6707 L133.3452 450.5184 L132.3389 449.8727 L129.1576 447.4334 L123.5683 446.3776 L119.6079 447.4724 L119.4002 444.6603 L118.3315 442.3693 L118.6106 436.281 L118.0869 435.2406 L115.8754 435.3493 L111.1247 435.47 L110.4431 435.0487 L109.6012 433.7862 L122.7979 421.2688 L135.4657 428.9468 L139.3338 428.5512 L139.3338 430.0051 L142.3142 432.4233 L151.9123 435.1184 L157.2 434.2728 L172.5826 431.4442 L182.8341 431.6548 L182.869 431.6415 L183.0437 431.6593 L184.24 431.6835 L186.35 431.6172 L187.2909 431.5544 L187.6873 431.4941 L187.943 431.4842 L188.1046 431.3858 L188.1622 431.0426 L188.4507 430.6643 L188.7763 430.4532 L189.3941 430.1035 L190.1459 429.8414 L190.435 429.7945 L190.5975 429.6327 L190.6763 429.3721 L190.8487 429.1595 L191.8954 428.4746 L194.7181 426.8837 L195.8586 426.2907 L197.719 425.4224 L200.5599 423.8062 L203.057 422.3587 L203.2545 422.3266 L203.6224 422.5155 L204.1249 423.0432 L204.918 422.7158 L204.7757 422.517 L204.6902 422.2381 L204.6956 421.9938 L204.8164 421.7984 L204.9411 421.6792 L205.0901 421.6006 L205.4554 421.5546 L205.9237 421.5912 L207.1908 421.7776 L208.7739 421.1244 L209.7812 420.4182 L211.9065 418.6467 L209.3565 413.8387 L209.8334 413.2502 L209.7658 413.1364 L209.8404 412.8224 L209.9459 412.5573 L210.1715 412.2863 L211.0829 411.3758 L211.8235 410.72 L212.0068 410.4638 L212.2597 409.8946 L212.4343 409.0291 L212.6417 408.629 L213.274 407.7808 L215.275 406.0063 L216.0656 405.3347 L216.2556 405.2585 L216.4126 405.2556 L216.653 405.352 L217.7628 406.2343 L220.1961 409.0009 L221.5802 410.4539 L222.151 410.949 L222.359 411.0682 L222.9214 411.1839 L225.2967 411.7339 L227.4839 412.3931 L228.8296 412.6908 L229.4523 412.8461 L229.7557 412.8056 L230.2163 412.6542 L232.6749 411.8308 L234.5458 411.1473 L235.4922 410.7111 L238.6709 409.0484 L239.6121 408.5098 L239.8012 408.2996 L239.0962 406.4994 L237.8752 403.0918 L239.8589 400.7722 L242.8393 401.1036 L243.2869 402.4652 L243.8616 403.1032 L244.0872 403.3297 L247.9764 402.0532 L253.5814 397.1667 L255.2642 396.5267 L256.1484 396.1825 L256.5458 395.8363 L253.277 397.0084 L254.389 389.8516 L250.6972 387.7298 L249.8072 379.5182 L249.4762 378.6209 L249.2801 377.4086 L249.1519 374.6693 L249.1432 373.3927 L248.9346 371.4666 L242.8649 366.3964 L243.0357 365.8884 L243.0421 365.8113 L243.16 365.5689 L243.1757 365.4912 L243.1918 365.4967 L243.2158 365.4422 L243.2793 365.3428 L243.569 365.3191 L244.1189 365.4472 L244.5381 365.5837 L245.0527 365.7173 L245.5088 365.9324 L246.1773 366.3618 L246.999 366.8317 L247.7283 367.0909 L248.6292 367.2383 L249.1 367.2299 L249.5637 367.0771 L249.7845 366.9841 L250.9375 366.3569 L253.9147 361.6082 L253.3667 359.7779 L251.5432 356.7654 L251.8893 355.3506 L253.8455 355.7577 L254.3852 355.6138 L255.7638 352.9119 L256.6451 346.4463 L242.9738 346.7283 L232.0846 344.5269 L231.6177 344.7332 L231.41 344.8554 L230.7889 345.3333 L230.5133 345.7167 L229.9064 346.1554 L229.3792 346.4176 L227.3029 348.0145 L231.4754 331.9168 L231.5491 331.7337 L238.1636 329.8884 L239.0609 327.3158 L245.9094 324.1099 L246.6913 324.1297 L246.2907 323.2343 L249.8704 322.7296 L251.3477 324.4315 L250.6267 322.9275 L252.7001 322.1409 L254.4178 322.2052 L254.2448 321.1811 L255.2479 318.9844 L258.0552 317.0104 L257.9142 311.8104 L261.2342 312.3102 L263.5544 315.63 L263.3397 319.7315 L265.74 318.2472 L265.5372 322.4773 L266.2643 322.8558 L266.7922 323.165 L270.1273 323.5603 L275.7833 324.8842 L280.1804 324.4513 L281.2508 323.9368 L285.0644 322.9374 L297.6198 319.4361 L299.01 327.115 L287.1154 330.6928 L286.984 331.7209 L303.9798 334.4908 L309.1432 333.8699 L310.9837 326.7251 L312.2476 317.1672 L308.5744 316.6145 L305.8703 311.9886 L312.6434 306.984 L311.1221 305.2622 L305.8761 306.6856 L305.9629 301.3133 L306.0507 297.3852 L305.8213 294.7455 L311.3647 277.1854 L313.0546 276.8301 L315.362 278.5754 L316.3003 278.6155 L316.848 278.659 L322.5915 274.6855 L328.9041 275.8899 L329.1749 275.8494 L329.3579 275.7563 L329.6482 275.7682 L330.1844 275.6989 L330.7 275.7331 L333.5156 276.4531 L333.9223 276.8475 L334.4969 276.9568 L334.0515 278.5997 L335.2757 278.7679 L342.5055 280.7868 L341.5793 283.8102 L342.8356 284.0625 L347.4792 285.4381 L346.1428 289.55 L348.6393 288.2091 L358.0547 292.5238 L357.1827 295.2254 L357.2458 295.3516 L357.3496 295.4387 L357.9765 295.7177 L358.7918 295.9874 L359.9775 296.5119 L359.6381 300.6825 L359.7144 300.7107 L359.9217 300.9383 L359.883 301.3099 L359.6689 301.5429 L359.5679 301.5439 L358.9937 308.5994 L355.571 310.7022 L358.3784 311.3602 L362.0221 311.0485 L362.8617 309.3119 L365.6723 310.1381 L367.515 310.6923 L367.156 313.7944 L367.9893 313.7944 L367.3611 317.0104 L361.66 317.2379 L356.0037 321.656 L356.9385 323.3001 L357.008 323.399 L357.018 323.4396 L357.7759 324.7729 L358.2662 329.0078 L358.295 332.9656 L357.2118 334.5982 L359.4712 338.5311 L359.8548 343.9234 L359.8987 343.9392 L360.979 344.3271 L362.8531 344.8608 L365.0236 345.6716 L365.2877 345.917 L365.4543 346.1421 L365.6905 347.5233 L365.763 347.8043 L365.8726 348.0387 L366.012 348.1782 L366.1591 348.2851 L366.3443 348.4587 L366.6366 348.5141 L367.6018 348.8441 L367.8508 348.7996 L368.0197 348.6774 L368.3322 348.4963 L368.5248 348.4379 L368.7257 348.3464 L368.9728 348.3741 L368.9962 348.5191 L369.1817 348.5834 L369.4349 348.5923 L369.565 348.5077 L369.8887 348.343 L370.1031 348.3623 L370.362 348.4642 L370.6197 348.6116 L370.8152 348.7377 L370.9472 348.8604 L371.0235 349.0553 L371.0465 349.2814 L370.9139 349.7128 L370.6719 350.3291 L370.5264 350.5512 L371.3023 353.3952 L395.4237 352.6106 L397.511 350.5077 L399.4755 350.2703 L405.6285 351.2893 L401.7187 347.1043 L402.0392 346.9262 L404.0015 348.0734 L403.9716 348.0407 L403.947 347.9141 L403.9976 347.0152 L403.4557 343.5573 L400.9656 342.0534 L401.936 341.4138 L402.0024 341.3371 L402.1568 341.2683 L404.5011 339.7234 L404.4626 339.6937 L403.2003 338.7043 L402.1094 338.124 L401.9021 337.8692 L401.8662 337.7312 L401.9306 337.5447 L402.0709 337.3285 L402.3719 337.0262 L402.5923 336.719 L402.7241 336.6087 L402.6151 336.4227 L403.1173 336.2866 L403.9297 335.6653 L404.2479 335.5455 L404.5857 335.5915 L404.8029 335.6014 L405.0324 335.5193 L405.4083 335.454 L405.8355 335.457 L406.0518 335.4906 L409.2806 334.615 L409.6308 334.3345 L410.6874 333.3327 L411.8517 332.4813 L413.837 331.8203 L414.2809 331.5705 L414.6282 331.4107 L414.8096 331.4216 L415.9944 331.9148 L417.2055 332.3764 L418.728 332.8399 L419.351 332.9211 L420.1724 333.1392 L420.6512 333.3233 L421.1713 333.5682 L422.1772 333.955 L422.4878 334.098 L422.7666 334.3236 L422.8518 334.517 L422.7893 334.7703 L422.6281 334.9138 L422.4048 334.9499 L421.0662 334.896 L420.6502 334.9365 L419.6212 335.1572 L418.2399 335.4258 L418.0823 335.5055 L417.9909 335.6643 L418.0243 335.8706 L418.2111 336.111 L420.6249 337.4383 L420.7044 337.652 L420.737 337.8192 L420.7287 337.9335 L420.6367 338.0701 L420.5085 338.1136 L420.3105 338.1274 L416.8882 336.7126 L415.3679 336.8689 L413.3675 337.1702 L412.2433 337.2755 L411.6036 337.4873 L410.7614 338.0607 L410.5935 338.3585 L410.6967 338.5336 L410.9416 338.7231 L413.2743 340.1048 L413.2076 340.4174 L413.1909 340.46 L414.0248 341.1036 L412.9993 347.0647 L413.5249 347.5609 L414.6151 348.1753 L415.0195 348.432 L415.1202 348.5824 L415.1926 348.7827 L415.1173 349.0637 L416.3803 350.2554 L416.7866 352.0714 L417.1282 352.2084 L417.1231 352.5112 L417.0943 352.6962 L417.0052 352.8683 L417.0212 353.1196 L421.7738 353.4807 L425.6482 353.4709 L427.0135 352.0115 L425.7957 351.7692 L427.2343 351.3897 L427.2362 351.3695 L427.3339 351.223 L427.4842 351.041 L427.6672 350.8941 L429.9938 350.6625 L430.8815 350.4286 L438.1706 349.3309 L438.2831 349.3017 L438.8026 349.2359 L438.8744 349.2062 L439.9963 348.6759 L440.1514 348.5443 L440.3706 348.2881 L440.4213 347.9601 L440.2232 347.0627 L440.2187 346.9044 L438.012 344.7149 L435.3809 344.5665 L435.1278 342.9835 L440.768 342.6619 L440.595 341.0047 L441.1923 340.9646 L441.1965 340.829 L441.5423 340.7998 L441.9983 340.7306 L442.5527 340.74 L442.6633 340.7227 L442.8671 340.6905 L442.6902 340.6257 L442.2557 340.6529 L441.5948 340.225 L438.9926 339.2732 L438.8289 337.7668 L438.7289 337.5833 L438.3581 336.0304 L438.0613 335.2507 L442.0602 332.4689 L443.8381 329.8736 L443.6298 326.3115 L442.1781 326.45 L442.5082 324.9263 L443.6202 324.9263 L442.4018 322.2928 L441.8067 322.1171 L441.7737 322.036 L441.8102 321.7233 L441.8765 321.5596 L441.9579 321.4863 L442.0236 321.4755 L442.0179 321.4631 L440.2553 321.4631 L441.5275 317.0104 L442.3383 315.4321 L441.1366 315.155 L441.0776 314.2298 L440.9991 313.7999 L440.9013 313.5471 L440.0018 313.5471 L439.6252 313.643 L439.4596 313.5891 L439.4201 313.5471 L439.0119 313.5471 L438.733 309.7126 L436.5795 308.4807 L435.9642 306.8677 L436.7301 303.9733 L440.7616 303.3301 L445.0912 302.6324 L444.7707 300.8116 L449.0362 300.3119 L454.1957 307.0755 L453.6734 307.2388 L452.5934 307.6445 L453.1093 309.8363 L451.1513 313.9082 L451.2186 317.9702 L452.2729 320.6863 L451.4429 321.4631 L452.353 321.4829 L451.3147 322.1805 L451.8307 325.5595 L452.9299 332.5698 L458.0382 338.4866 L461.3262 339.8916 L462.1017 338.6152 L462.6017 338.4569 L462.4286 338.071 L462.1017 336.8986 L468.1458 334.4992 L477.2151 330.1209 L477.5644 328.3647 L475.1439 321.141 L474.7356 319.9195 L474.6815 319.7913 L474.3937 319.2714 L474.0742 318.2492 L474.0476 317.8613 L472.4369 313.0424 L462.8914 313.1052 L460.0443 312.0974 L459.7716 311.4898 L460.0789 309.8927 L461.0858 308.1046 L461.0858 307.506 L461.2781 306.1256 L459.3713 306.1256 L457.0819 303.6037 L457.535 303.1509 L458.4708 303.4043 L458.8826 302.9412 L458.8736 302.8852 L458.8711 301.4138 L459.0102 300.9744 L458.8929 298.6316 L458.6823 295.74 L458.689 295.4026 L458.6038 293.6035 L458.5711 291.3096 L458.7227 289.0092 L458.8217 288.6193 L458.8397 288.1161 L458.6416 286.7464 L458.6814 286.1274 L458.6724 285.7909 L458.7265 283.7543 L458.9397 282.4806 L458.9592 282.2757 L458.9874 280.8967 L458.956 280.7383 L458.8752 280.5711 L458.6974 280.4038 L458.3186 280.2346 L457.7113 280.0713 L456.1964 279.7778 L455.9298 279.664 L455.7942 279.4651 L455.6853 279.235 L455.6673 278.76 L455.8032 277.5932 L455.7859 277.1503 L455.7366 276.6757 L455.5289 275.8177 L455.4661 275.4283 L455.4337 274.9413 L455.5052 274.7617 L455.6728 274.5183 L455.7715 274.4371 L455.75 273.9334 L458.7208 273.7156 L458.5096 273.3979 L457.6491 273.3905 L456.9002 273.3094 L456.4634 273.3989 L456.1948 273.294 L455.9253 273.0446 L455.7023 272.6072 L455.5843 272.1534 L455.6343 271.7664 L455.8125 271.4765 L456.0218 271.3483 L456.3291 271.2582 L456.5316 271.1444 L456.6368 271.0464 L456.6662 270.9811 L456.4993 270.7604 L455.7862 270.0835 L455.6574 269.8702 L455.6221 269.6015 L455.9731 268.351 L457.8863 265.5387 L459.412 262.9392 L460.2228 261.2067 L460.5157 260.0076 L458.956 259.3346 L458.6538 259.2148 L458.3288 258.9437 L458.2615 258.6512 L458.3327 258.1915 L458.6496 257.4432 L459.0858 256.1516 L459.2303 255.5498 L459.2447 254.9936 L459.4255 253.6752 L459.6408 252.8289 L459.8392 252.295 L459.038 251.1646 L459.2976 250.3644 L459.2419 250.2536 L459.2752 249.484 L459.6059 248.7065 L460.2049 247.9607 L460.9551 246.9516 L461.0451 246.5216 L461.4355 245.8599 L461.6819 245.4907 L461.7531 245.4061 L461.4682 244.7271 L461.2938 244.5306 L460.9785 244.0065 L454.8815 241.5488 L455.6282 237.8369 L461.2973 240.3561 L461.5697 239.9007 L462.701 238.0844 L465.4603 237.3717 L466.0701 237.6994 L466.1304 237.6588 L465.0725 235.6148 L467.6628 231.4926 L467.8378 230.8427 L467.975 230.5987 L468.1551 230.3478 L468.5166 230.127 L468.5483 230.0988 L468.9053 229.5371 L468.9066 229.1634 L468.6819 228.9303 L468.5605 228.7061 L468.5137 228.3577 L468.8101 227.5752 L468.9117 227.4534 L468.9136 226.8075 L468.8585 226.7674 L468.6054 226.2908 L468.4406 225.8147 L468.3785 225.3366 L468.5304 225.0015 L468.8518 224.559 L468.921 224.4016 L468.9213 224.266 L468.2285 223.3731 L467.6593 223.3528 L467.461 223.1821 L467.3299 223.0093 L467.269 222.6703 L467.3347 222.2219 L467.162 221.9991 L467.6167 219.8332 L467.7285 219.0735 L462.0344 217.7673 L462.3527 216.8774 L462.3424 216.6289 L462.7523 215.5638 L462.9846 214.5209 L463.1481 214.1115 L463.3522 213.817 L462.9702 210.6151 L463.7272 210.3488 L464.5395 209.7222 L465.1295 209.094 L465.3875 208.6961 L465.5715 208.0021 L465.8426 207.2186 L466.2521 205.9247 L466.3601 205.0991 L466.4431 203.9948 L466.3967 203.5651 L466.3678 203.0241 L466.3476 201.7787 L466.3137 201.4282 L466.347 201.3297 L466.2813 200.2818 L466.2345 200.2101 L466.0916 200.0754 L466.0291 199.9101 L465.906 198.8662 L465.9217 198.3494 L466.1304 197.8692 L466.0147 196.0229 L468.4567 196.4634 L467.7356 194.825 L460.9192 192.8499 L460.3359 192.4391 L462.1626 189.3205 L463.9707 189.4324 L464.1473 189.3274 L464.4239 189.3141 L464.6616 189.4413 L464.918 189.4725 L465.2449 189.4066 L466.0663 189.2962 L466.4669 189.3264 L466.8944 189.469 L467.0286 189.5779 L467.0761 189.6472 L467.2196 189.6571 L466.2989 173.3171 L466.2166 171.1379 L464.2553 160.7465 L464.6815 153.8154 L463.0119 148.3743 L465.2936 133.3872 L465.4641 131.4958 L465.634 130.4754 L465.4327 129.6584 L464.835 128.9295 L463.2996 127.2669 L461.5066 125.2734 L461.3717 125.4487 L460.9798 125.9404 L460.8618 126.1355 L460.1135 126.7999 L459.3108 127.4055 L459.0467 127.5838 L458.9839 127.7526 L459.0448 127.9917 L459.9488 128.4344 L460.0741 128.6122 L460.1757 128.7127 L460.1783 128.8974 L459.5277 129.9406 L459.281 130.1114 L458.964 130.1535 L458.2971 130.0599 L458.0808 130.0575 L457.593 130.3144 L457.4402 130.4704 L457.136 130.6779 L456.7595 131.2359 L456.6092 131.3369 L456.4018 131.3889 L454.9331 131.5676 L454.1813 131.5384 L454.0586 131.583 L453.7413 132.545 L453.6833 132.6312 L453.5189 132.6713 L453.2212 132.6653 L453.0674 132.6044 L452.9437 132.4217 L453.0292 131.5914 L452.9844 131.4726 L452.8805 131.3666 L452.5027 131.2973 L452.486 131.2943 L451.8031 131.2463 L444.6233 130.3724 L442.8527 130.1268 L441.2116 129.9322 L439.1394 129.8257 L437.5242 129.8213 L435.2938 129.7089 L434.9082 129.6044 L433.8699 129.3846 L433.7837 129.3816 L433.4498 129.3712 L432.7653 129.5049 L432.6643 129.548 L432.6326 129.6297 L433.7645 130.6105 L434.2564 130.8705 L434.7329 131.1973 L435.2111 131.738 L436.4282 133.21 L436.5465 133.3531 L436.6189 133.5224 L436.5708 133.6432 L436.4087 133.7606 L436.3693 133.7893 L436.0953 133.7655 L433.2142 131.3879 L431.5475 129.9822 L431.2997 129.8411 L431.1751 129.9064 L431.1562 130.0684 L432.9623 131.6414 L435.27 133.5323 L436.2741 134.4567 L436.6346 134.6597 L436.8439 134.982 L437.5544 135.6985 L437.7909 135.9089 L438.2555 136.5585 L438.2732 136.6387 L438.3376 136.9299 L438.2331 137.3997 L437.9094 137.9053 L437.7559 137.93 L437.0144 137.0987 L436.0844 135.9361 L435.2351 135.2964 L433.4754 133.6645 L432.3634 132.8139 L431.1642 131.3775 L428.9042 129.5019 L428.7834 129.5896 L428.8193 129.6742 L430.9088 131.7474 L431.326 132.3816 L431.8061 132.8475 L434.3141 134.8642 L436.7362 137.1888 L437.8184 138.5989 L437.8973 138.8088 L437.9267 138.8876 L437.9364 139.0029 L437.7739 139.196 L437.6874 139.2738 L437.6213 139.3327 L437.4127 139.4342 L437.2707 139.4218 L437.1685 139.3153 L436.7003 138.644 L434.9207 136.3961 L434.4221 135.956 L433.6824 135.5549 L432.9694 135.2435 L432.3724 134.6869 L432.1769 134.3111 L432.0397 133.8804 L431.8038 133.5338 L431.4472 133.2743 L430.779 133.1788 L427.3637 129.8599 L427.1202 129.6049 L426.6298 129.7747 L427.939 130.922 L430.588 134.0557 L432.7108 135.7322 L433.4427 136.2263 L434.4859 136.7323 L435.0573 137.225 L436.4436 138.8905 L436.4843 139.2936 L436.4301 139.5005 L436.3186 139.5471 L435.9783 139.6887 L435.5146 139.6486 L434.4532 138.3355 L433.8077 137.3824 L433.6917 138.1013 L433.7821 138.1964 L434.9611 139.963 L434.9605 140.0981 L434.4032 140.5259 L432.0202 141.9177 L431.7577 141.7394 L430.4261 139.8357 L430.4297 139.7288 L430.4329 139.6268 L430.538 139.4416 L430.6764 139.3292 L431.0184 139.143 L432.7947 138.1761 L433.2024 137.93 L433.5155 137.1442 L433.37 137.0254 L433.22 136.9526 L432.8845 136.7892 L430.3178 134.7216 L430.0787 134.9405 L429.9816 135.2311 L430.0961 135.4381 L430.4108 135.7856 L431.2241 136.9219 L431.5907 137.266 L431.6132 137.6008 L431.2834 137.8706 L431.068 137.9008 L430.3467 138.1122 L429.9483 138.0959 L429.7781 137.934 L429.6173 137.5765 L429.3763 136.768 L429.359 136.5219 L429.4038 136.0822 L429.5166 135.7213 L429.5897 135.5787 L429.7346 135.1494 L430.2415 134.5379 L429.3452 133.6586 L425.7623 129.6029 L425.1631 129.6326 L422.7435 129.8871 L422.0894 129.9931 L421.5411 130.0594 L421.1633 130.0753 L420.9264 130.2714 L420.9505 130.56 L421.0662 130.7214 L421.2905 130.865 L422.2455 130.8229 L422.474 130.8531 L422.7804 131.3661 L422.8986 131.6845 L424.5455 133.5779 L426.7221 136.3986 L426.9324 136.4545 L427.3407 136.2001 L427.6967 135.953 L428.9664 137.8349 L429.0664 138.1791 L429.0686 138.4712 L428.0883 139.3272 L427.6156 139.449 L427.2846 139.4827 L427.1811 139.249 L427.3387 138.841 L427.9242 137.8914 L427.8419 137.6572 L427.6352 137.6943 L427.2083 138.0295 L426.5642 139.1693 L426.161 139.1668 L425.9264 139.2292 L425.6367 139.2173 L425.3941 138.9683 L425.4124 138.5454 L425.5262 138.2796 L426.4552 136.8239 L426.5539 136.6056 L426.4456 136.4882 L425.9963 136.3357 L425.6457 135.9782 L425.6434 135.6727 L425.5723 135.3692 L425.0781 134.6622 L424.8634 134.4354 L424.4366 133.9849 L424.3193 133.9794 L424.0084 133.9641 L423.5139 134.0893 L423.1745 134.482 L423.0803 134.5127 L422.8983 134.5716 L422.6006 134.5295 L422.1673 134.0596 L421.1168 132.6772 L420.7793 132.445 L420.614 132.3311 L420.3051 132.3588 L420.1442 132.6099 L420.2788 132.8342 L420.9332 133.6204 L422.1878 135.3073 L422.6304 135.9614 L422.5945 136.2426 L422.5253 136.3709 L422.4006 136.4902 L422.2487 136.5239 L421.9523 136.5541 L421.6927 136.6457 L421.584 136.7279 L421.4802 136.8061 L421.452 136.9368 L421.4728 137.2898 L421.578 137.5255 L421.9068 137.6116 L421.9978 137.6468 L422.366 138.2726 L422.8768 139.1411 L422.8871 139.2886 L422.8092 139.3911 L422.6012 139.5783 L422.2574 139.7332 L422.1836 139.7184 L422.0593 139.6481 L421.3036 138.4207 L420.1432 136.4937 L420.1278 136.4501 L420.0609 136.2595 L420.1134 135.801 L420.2224 135.5846 L420.3797 135.6678 L420.4909 135.8569 L420.8438 136.2327 L421.02 136.4882 L421.1806 136.6204 L421.3088 136.6353 L421.4328 136.5115 L421.3796 136.3491 L420.382 134.9107 L420.1006 134.5067 L420.0583 134.2859 L419.9487 134.2765 L419.7779 134.4468 L419.0091 135.5069 L418.7956 136.1268 L418.9152 137.0071 L419.0011 137.2636 L419.1251 137.369 L419.1565 137.3958 L419.3055 137.3492 L419.3927 137.3062 L419.5135 137.2472 L419.9897 137.0135 L420.1528 137.0546 L420.7002 138.0909 L420.7278 138.4014 L420.4986 138.5058 L419.037 138.18 L418.4707 138.137 L418.1361 138.281 L417.7173 138.5964 L417.5208 138.6281 L417.4054 138.4667 L417.4615 138.1201 L417.475 137.7552 L417.4782 137.6676 L417.7032 136.8437 L417.4795 136.565 L417.3087 136.615 L417.1366 136.9353 L416.9568 137.8765 L416.7238 139.095 L416.4966 139.8134 L416.0018 140.8725 L415.8451 141.0735 L415.7778 141.1379 L415.5457 141.0854 L415.4092 140.7928 L415.3384 140.3541 L415.3663 139.8323 L415.6537 138.8405 L416.0393 137.9478 L416.6257 136.6803 L417.3808 135.9772 L417.7243 135.597 L418.2374 134.8464 L418.9395 134.5166 L419.5026 133.9868 L419.6487 133.7833 L419.693 133.6412 L419.5366 133.6437 L418.9539 134.0532 L418.5248 134.1676 L418.2534 134.0091 L418.1204 133.7383 L417.9832 133.5803 L417.7714 133.6279 L417.4795 133.9096 L417.0359 134.73 L416.5725 135.4544 L416.313 135.7128 L416.0982 135.8876 L415.847 135.9461 L415.6271 135.897 L415.4281 135.7718 L415.2467 135.7564 L415.0647 135.8757 L414.8093 137.7622 L414.8561 138.0543 L414.8833 138.2226 L414.8856 138.5147 L414.8503 138.6643 L414.7327 138.7059 L414.4247 138.8143 L414.2658 138.7499 L414.1918 138.6499 L414.3997 136.3298 L414.4741 135.9579 L414.8324 135.4049 L416.1069 133.7358 L417.0885 132.6094 L417.0709 132.4995 L416.8424 132.4693 L416.1021 133.1516 L414.8885 134.6439 L414.1001 135.5816 L413.9694 136.4357 L413.7575 138.3147 L413.7604 139.3045 L413.7931 139.8535 L413.8021 140.0021 L413.7351 140.2293 L413.588 140.4502 L413.5435 140.5175 L413.2393 140.719 L413.2102 140.7383 L412.659 140.8052 L412.5106 140.7977 L412.2145 140.7824 L412.0116 140.668 L411.8389 140.3199 L411.6854 139.9253 L411.4649 138.7796 L411.3357 137.7216 L411.222 137.3512 L411.1329 136.9982 L411.1726 136.6308 L411.4527 136.1099 L411.686 135.7297 L411.7562 135.4707 L411.7427 135.2479 L411.8091 134.9672 L411.6873 134.627 L411.3325 134.3696 L411.0617 134.076 L410.9611 133.867 L410.8531 133.3768 L410.7784 133.0377 L410.7669 132.5752 L411.1169 131.8781 L411.1582 131.7984 L411.2575 131.4448 L411.2623 131.1968 L411.2431 131.1596 L411.2075 131.0908 L411.1976 131.072 L410.8874 130.8972 L410.6627 130.9254 L410.2077 130.9824 L409.5347 131.118 L408.9575 131.2537 L408.5547 131.9622 L408.2403 132.5158 L408.0294 132.595 L407.8702 132.6074 L407.7641 132.6158 L406.6184 132.2648 L406.3319 132.1539 L406.1864 132.2227 L406.0509 132.492 L405.6926 133.0446 L404.6456 133.9175 L404.253 134.2448 L403.6858 134.4716 L403.3445 134.4369 L402.9407 134.1997 L402.2655 133.8472 L401.0525 133.1218 L400.6769 132.7327 L400.5654 132.4584 L400.3529 132.1108 L400.3068 131.8256 L400.4317 131.4909 L400.3199 131.3513 L400.142 131.3577 L400.0834 131.2423 L399.9254 130.9314 L399.9074 130.5962 L400.0574 130.1025 L400.2189 130.0827 L400.2955 130.0733 L400.5708 130.1639 L401.0236 130.0723 L401.2666 129.848 L401.7697 129.2029 L401.4435 128.5909 L398.9537 130.8789 L396.1092 130.7606 L395.1475 131.3671 L394.4434 131.932 L393.7166 132.1945 L392.8122 132.6653 L392.6344 132.8297 L392.5408 133.3679 L392.494 133.3669 L392.4424 133.4967 L392.0002 133.6472 L391.4227 133.6734 L390.0863 133.3194 L387.2258 133.263 L386.8169 134.07 L389.1025 134.6364 L392.4046 135.2445 L393.3298 135.5985 L394.8472 135.7579 L397.2793 136.817 L397.3825 136.9724 L397.5171 137.1091 L397.5619 137.2294 L397.8664 137.6661 L394.9889 144.4185 L389.621 153.4639 L389.8069 157.8949 L386.5765 158.6375 L386.9194 163.1031 L397.2898 170.8607 L403.8018 185.9197 L408.2563 192.4886 L412.5346 197.2554 L412.5346 198.2702 L415.4188 202.641 L415.281 202.141 L412.8551 198.2009 L412.8519 196.8 L412.0122 191.4045 L413.8165 191.0283 L414.1241 193.7657 L416.6046 194.4834 L418.3576 194.2805 L416.1976 193.0479 L415.5182 190.5679 L418.2518 190.5679 L419.4407 194.0627 L423.6197 193.5528 L427.1705 197.2554 L428.7055 198.29 L429.4234 196.013 L432.7499 196.6713 L435.5283 197.2802 L435.2816 196.8842 L435.7815 194.2805 L438.0152 194.2805 L437.5313 196.1417 L442.8992 196.2407 L449.3695 200.6115 L449.9912 201.4926 L449.863 199.7255 L451.7121 195.5081 L453.1542 195.2358 L453.3785 201.3342 L450.1546 208.0165 L449.3951 208.6352 L449.0983 209.1826 L449.2954 209.2029 L449.5348 209.5727 L449.6707 209.0708 L451.2923 207.6502 L452.4363 212.4811 L453.3753 213.1196 L453.0452 217.9702 L450.9942 218.782 L450.2892 220.8855 L450.9622 222.3654 L450.1706 226.617 L446.905 230.4428 L446.6519 233.8776 L444.8188 234.2735 L444.7098 235.4861 L443.1395 235.3178 L444.0593 236.1394 L444.9822 236.4759 L445.9564 259.0877 L445.8699 259.3648 L446.9723 275.2001 L443.9535 276.6896 L436.4898 278.9361 L435.1278 276.4719 L434.7816 273.1812 L431.4199 278.4512 L430.4008 278.0999 L430.7918 276.7193 L429.0004 271.9985 L425.6739 268.782 L425.9944 267.0401 L431.5802 267.6735 L433.0383 263.9473 L427.9685 261.7798 L426.7914 259.1767 L425.7329 259.0149 L424.4705 258.7417 L423.8206 258.7358 L423.6511 258.763 L423.5988 258.9308 L423.6261 259.197 L423.5389 259.7364 L423.3034 260.1407 L422.9188 260.5342 L422.7611 260.5594 L422.7063 260.7306 L419.7003 260.7306 L418.9953 260.6861 L416.6972 264.5926 L416.47 265.5709 L416.4495 266.1306 L416.5924 266.3305 L416.7587 266.4785 L416.8552 266.6853 L416.8978 266.9491 L417.0635 267.1925 L417.0811 267.3009 L416.7132 267.965 L416.204 268.1431 L415.4128 268.1436 L414.793 267.8309 L413.9053 267.0362 L413.2211 266.5581 L412.4891 266.2048 L410.0093 265.709 L410.1519 265.1894 L409.6312 264.5841 L409.2174 264.2184 L409.17 263.924 L409.2206 263.832 L408.804 263.7087 L408.6553 263.8141 L408.447 263.8958 L408.2647 263.8453 L408.1089 263.6642 L407.9429 263.5157 L407.6913 263.4291 L407.6132 263.3554 L407.0898 263.2 L411.5488 257.7124 L411.5293 257.7005 L410.9089 257.5669 L410.0128 257.5051 L409.2248 257.4254 L408.2147 257.1156 L406.7697 256.7301 L403.5358 256.0887 L403.6159 255.9279 L403.4083 255.8586 L403.3086 255.7314 L403.2278 255.4266 L403.2576 255.1193 L403.979 254.0003 L404.5834 253.3901 L404.8369 252.8438 L405.3244 252.4306 L406.3835 252.1317 L406.5441 252.0683 L407.1571 251.7521 L407.8567 251.1617 L408.5691 250.3783 L408.8441 250.1803 L408.9937 250.166 L409.2876 250.4476 L409.7026 250.6668 L410.242 250.6752 L410.6006 250.8395 L411.247 251.0216 L411.7995 251.275 L413.1201 251.4175 L413.8226 251.3438 L415.025 251.1869 L415.0779 251.0731 L415.0519 250.9573 L411.7398 249.7146 L411.4312 249.4256 L411.3348 249.3761 L410.7211 248.8035 L410.674 248.6219 L410.6958 248.5061 L410.7903 248.3957 L411.361 248.0602 L411.9289 247.8736 L413.123 247.5905 L418.4761 244.8696 L417.4731 241.232 L419.4311 228.7848 L420.0657 226.3695 L418.2037 227.9483 L416.643 226.122 L417.8544 221.0835 L415.8002 218.5345 L415.8034 215.6241 L416.0598 214.1541 L413.4447 214.852 L413.7748 213.9561 L412.9352 213.6146 L412.5256 212.9434 L412.459 212.9696 L412.2231 213.1394 L412.0831 213.1355 L411.9485 213.0805 L410.5432 212.0594 L409.9939 211.4674 L409.8667 211.0962 L409.9157 210.7858 L410.0718 210.6388 L410.2013 210.6047 L410.4365 210.5032 L410.5881 210.3839 L410.7108 210.2518 L410.682 210.0172 L410.4759 209.9107 L410.3077 209.7578 L410.2859 209.5677 L410.3977 209.4578 L409.8202 208.5114 L415.2682 206.9721 L415.0631 204.9773 L411.0989 205.6851 L410.4205 204.8877 L410.0926 204.6387 L409.9564 204.4229 L409.7526 204.2759 L409.5446 204.1833 L409.3363 203.9779 L409.1104 203.6359 L408.7172 203.1196 L408.6524 202.8281 L408.6588 202.8172 L408.471 202.5964 L414.137 201.1907 L409.1697 200.963 L409.1697 199.0176 L412.2558 198.6117 L403.6896 186.1672 L397.9757 172.5983 L387.1374 164.5734 L386.3362 162.7615 L385.8875 144.6314 L387.3777 140.5368 L387.2332 140.4373 L387.1114 140.3709 L387.0066 140.2818 L384.9825 138.8925 L385.1424 138.2365 L385.1206 138.2053 L385.2866 137.6458 L385.4017 137.1839 L384.3509 135.3088 L383.9259 135.089 L383.0331 134.8503 L382.5678 134.7815 L381.9191 134.8097 L379.0359 136.3481 L375.469 137.6552 L371.7612 140.1674 L374.5909 142.2994 L373.6641 144.0367 L373.4571 144.6546 L373.0008 145.8667 L372.7306 146.9024 L372.7611 147.6446 L372.862 148.6338 L373.0046 149.5121 L373.1757 150.1186 L373.2517 151.2266 L373.1982 151.5306 L373.0129 151.7752 L372.7857 152.2188 L372.7399 152.2613 L372.5172 152.2975 L372.3746 152.2851 L371.9493 152.3717 L371.2055 152.8812 L370.9972 152.8975 L370.5473 152.7228 L370.5162 152.7233 L364.641 155.316 L364.1132 155.8126 L363.8824 155.9339 L363.5245 156.0037 L363.22 155.9601 L362.9864 155.8492 L362.6528 155.7319 L361.9266 155.1121 L361.7654 154.8506 L361.6199 154.4665 L361.4664 154.1798 L361.3164 153.9882 L361.1408 153.5649 L361.1107 153.3778 L361.1363 153.2416 L361.2379 153.0574 L361.8676 152.3079 L362.2685 151.7633 L362.4618 151.3365 L362.6627 151.1048 L363.1248 150.2745 L363.6841 149.3284 L363.7212 149.1962 L363.6427 148.6541 L363.7321 148.4278 L363.9818 147.9679 L364.2176 147.6183 L364.3647 147.6159 L364.3824 147.6129 L364.4128 147.1762 L361.019 152.9391 L359.7916 153.0183 L357.6285 152.444 L356.4812 148.919 L355.3339 145.3938 L359.7852 145.7107 L359.8275 145.1794 L359.8064 144.8299 L359.8471 144.5799 L359.8839 144.4754 L359.9935 143.1015 L362.4611 140.3586 L363.2412 139.856 L363.8584 138.4459 L364.1491 138.0741 L364.4314 137.9562 L364.8435 137.7404 L366.2183 136.963 L366.7381 136.7571 L367.6236 136.2713 L368.1085 136.0792 L368.3703 135.8069 L368.9257 135.5138 L371.4708 134.5562 L375.6004 131.8969 L375.7889 131.9122 L375.9183 131.7781 L376.2337 131.9479 L376.6295 131.8929 L376.8519 131.9335 L377.0054 132.0212 L379.1852 132.2148 L381.0375 130.9561 L380.752 130.9165 L380.1482 130.9373 L379.9396 131.0586 L379.7781 131.1161 L379.5694 131.0507 L379.4922 130.9596 L378.6609 130.9883 L378.011 130.6843 L378.1594 130.5803 L377.7985 130.5803 L376.9121 130.6338 L375.8161 130.5863 L374.9877 130.3288 L374.9457 130.2842 L374.8557 130.2753 L374.8794 130.2139 L374.5829 129.9 L374.5153 129.6183 L374.6313 129.1504 L376.0318 126.1498 L377.3925 123.7548 L377.7976 122.6055 L377.7854 122.2842 L377.6844 122.0752 L377.2928 121.6702 L376.8378 121.4687 L376.6029 121.4345 L375.4174 121.7044 L374.5903 121.8836 L374.5659 121.8762 L374.466 122.0485 L373.2097 121.3726 L371.8711 120.7046 L371.8189 120.6239 L370.8318 120.0926 L371.9951 117.9734 L364.4705 115.1905 L363.5123 115.0222 L362.3237 116.8998 L359.4587 115.8437 L359.2709 115.7624 L358.92 115.6065 L359.2693 113.0861 L357.1317 112.1155 L354.5295 109.7238 L356.2793 108.0056 L354.6096 106.2922 L354.6897 99.7854 L345.5563 95.4524 L344.7359 93.6448 L345.0359 89.1636 L343.7614 88.6818 L341.6537 88.146 L341.2739 87.36 L340.1757 86.5929 L338.2817 84.9339 L339.9584 83.7746 L339.9385 83.7548 L338.7047 83.4675 L337.7045 83.1224 L337.5667 82.8267 L337.567 82.7896 L337.5898 82.6068 L337.6987 82.5301 L337.8644 82.5311 L345.4714 81.4148 L348.106 83.3997 L352.6118 83.5879 L351.4562 80.3778 L351.9145 78.7138 L356.5603 83.0342 L356.5683 83.0095 L356.7286 82.8891 L357.1106 82.7188 L357.3349 82.7995 L357.5541 83.0709 L358.0284 82.8044 L357.8743 82.3785 L358.3607 82.2993 L358.6754 82.1309 L359.2375 81.7105 L359.45 81.3831 L359.7721 81.3445 L359.7936 81.3623 L361.019 80.462 L362.0894 83.5819 L363.602 82.3884 L364.6596 84.0722 L364.8531 84.1242 L365.5508 83.9885 L366.0007 84.0732 L366.3029 84.2183 L366.966 84.3679 L367.4406 84.4669 L367.7633 84.4595 L368.1082 84.5615 L368.4293 84.6853 L368.6834 84.8111 L369.099 85.0998 L369.216 85.2117 L369.2359 85.284 L370.5883 85.6421 L369.7454 86.999 L370.4377 86.5979 L370.9184 85.8749 L372.1169 88.4055 L374.2256 88.143 L374.8762 88.3431 L375.9879 88.6565 L376.6907 88.1677 L376.698 87.9117 L376.7951 87.833 L376.8794 87.8325 L377.2771 87.0738 L376.956 86.7781 L376.8794 86.7975 L376.0026 86.2403 L375.8126 85.9828 L375.7635 85.6792 L375.6523 85.5851 L375.6994 85.492 L375.67 85.4059 L375.7289 85.1573 L375.8533 84.925 L376.234 84.4347 L376.5432 83.8236 L377.2457 83.8865 L377.3053 83.9316 L377.3755 83.9286 L377.9959 84.1455 L378.3892 84.4892 L378.5196 84.7398 L378.6686 84.9651 L380.0498 85.8511 L380.2466 86.1131 L380.527 86.2978 L380.9987 84.149 L382.4768 84.4318 L382.6655 86.2141 L380.419 87.4318 L380.211 88.2485 L380.0165 88.4386 L379.7284 88.2886 L379.4903 88.2911 L379.3285 88.4302 L379.3935 88.6947 L381.3343 89.904 L383.7455 89.8936 L385.4645 89.4429 L388.2846 88.2896 L388.0017 86.1824 L390.004 85.8471 L393.1269 85.9789 L393.2231 84.9037 L393.4666 82.1854 L395.6298 81.8437 L397.7013 78.5885 L405.5644 66.2333 L408.0256 67.0852 L409.5876 65.7668 L409.9676 65.4459 L411.6729 66.7464 L412.1116 66.8623 L414.1783 63.1087 L416.4863 61.2702 L416.8898 60.8918 L417.5019 60.2158 L419.317 58.9201 L419.8548 58.3911 L420.7553 57.6992 L421.3764 57.3099 L421.8949 56.8236 L422.6394 56.0138 L423.7495 54.6066 L425.3319 52.9945 L425.4678 52.7998 L426.1713 51.9182 L427.7124 49.9102 L426.7792 49.5432 L424.3785 51.9231 L422.7897 51.152 L421.9532 49.4531 L421.0973 49.5749 L420.4579 50.0048 L420.1823 49.8023 L420.0118 49.8127 L419.9019 49.7721 L419.849 49.6675 L419.8183 49.5348 L419.061 48.9786 L418.3934 48.9518 L418.2271 49.0063 L417.981 49.2956 L417.6432 49.9964 L417.1814 51.0529 L417.8224 54.1584 L415.8547 55.9365 L414.842 53.4105 L410.2913 56.1346 L410.7496 50.8845 L411.0082 50.779 L411.089 50.6002 L411.4332 50.6052 L412.9064 50.0029 L411.7725 47.7393 L411.0992 47.3183 L410.955 47.2876 L410.773 47.3302 L410.6272 47.4308 L410.5708 47.5843 L411.1906 49.2124 L411.1479 49.2951 L410.6115 49.5328 L410.407 49.5204 L410.0702 48.8275 L409.2815 47.8453 L408.6021 47.6502 L408.432 47.5699 L408.3624 47.4511 L408.4105 47.3297 L408.5226 47.2123 L408.7018 47.1514 L410.5243 47.0325 L411.5033 47.2019 L411.3335 46.8631 L410.8172 46.7953 L410.1974 46.6828 L409.9801 46.403 L409.8574 46.0305 L409.8923 45.5783 L410.1833 44.5669 L409.8298 43.8611 L411.089 42.8912 L411.2841 42.6282 L411.6334 42.4227 L412.2965 41.7921 L413.838 39.3863 L415.531 35.9508 L414.5247 34.4351 L409.833 33.7168 L409.9933 31.1856 L411.8296 30.0216 L411.3649 28.2037 L413.4383 15.7949 L423.6709 25.2613 L427.5486 26.0638 L431.5119 25.2549 L431.4888 25.2237 L424.7766 24.4687 L418.3992 19.4854 L418.6876 17.7219 L416.1014 15.8574 L415.8733 15.8995 L414.6975 15.2188 L414.5055 15.0876 L414.4257 14.9563 L414.3606 14.6021 L414.0568 14.3831 L410.7945 13.1298 L405.3513 13.49 L404.5847 13.6044 L401.7739 13.807 L401.5024 13.7441 L400.831 13.7887 L400.5298 12.4754 L400.1747 11.2484 L399.7421 10.2155 L399.6241 9.7068 L399.6238 9.4809 L399.6703 9.2995 L398.4339 9.0231 L393.4923 10.6282 L392.6433 9.4932 L388.8615 4.3516 L388.7314 3.7958 L388.4404 3.3747 L388.293 3.0467 L388.3224 2.8659 L388.4942 2.7832 L388.0122 0.7253 L388.0693 0.4919 L387.9818 0.1194 L388.0129 0.0 L380.7279 2.9248 L359.7372 17.6922 L358.0306 19.5241 L353.3268 25.4689 L351.1165 28.4514 L350.2352 29.5609 L351.0845 30.1157 L349.8026 29.9622 L332.9747 47.5759 L322.0819 55.6344 L304.6163 61.8106 L239.5137 67.4586 L220.6688 68.9325 L201.1583 70.8566 L197.5857 70.9928 L195.7077 71.5822 L195.8776 72.7757 L192.2274 76.5347 L190.7093 78.7291 L188.9147 80.7551 L187.9158 83.678 L188.3625 86.2413 L188.4244 88.1465 L185.8898 88.6184 L185.4828 90.6533 L183.8747 91.5674 L183.3933 92.5237 L184.3438 94.1203 L188.3401 95.5514 L187.4139 97.1212 L188.3882 99.4338 L188.8593 101.1714 L190.7927 101.0605 L190.8616 101.2249 L190.9263 101.2537 L191.0417 101.3567 L191.1461 101.5017 L191.2855 101.7498 L191.6121 102.7115 L191.7932 103.4399 L191.9121 103.6969 L191.7826 105.3989 L190.6539 108.267 L190.9128 109.2658 L194.1784 109.3029 L193.841 107.0697 L193.6067 106.5274 L193.4971 106.1843 L193.2715 104.9849 L193.2497 104.7408 L193.2846 104.568 L193.4035 104.4402 L193.4407 104.4199 L193.4013 104.1594 L195.3501 104.4254 L195.4202 104.4229 L195.5465 104.4521 L195.6955 104.4739 L197.2267 107.4064 L198.2811 110.3111 L198.8086 111.9858 L200.9487 111.6189 L201.1791 111.5139 L201.3743 111.4683 L201.5681 111.4728 L201.7479 111.5837 L202.2328 112.0774 L202.4866 112.2844 L203.3762 112.8608 L203.8175 113.1138 L204.2287 113.403 L204.4662 113.6758 L204.7661 113.8452 L209.145 114.3042 L216.0704 114.5389 L216.7456 114.9088 L217.2177 113.9189 L218.679 114.4092 L219.0091 114.271 L219.0934 114.1809 L219.2283 114.0957 L219.4263 114.0408 L219.5709 114.0556 L220.0484 113.8729 L221.0537 114.1507 L221.843 112.4854 L221.9513 112.4805 L221.994 112.4547 L222.1721 112.4166 L222.6381 112.377 L223.4389 112.4111 L224.4238 112.3651 L225.8928 111.6005 L226.5933 112.5037 L227.8884 112.4017 L228.7671 112.633 L229.3593 113.6045 L230.9081 113.1059 L231.4488 114.9811 L231.6039 115.446 L231.7539 116.0392 L232.2669 117.8545 L230.9787 118.2853 L231.5042 119.5232 L230.5268 119.5232 L231.2607 120.5977 L231.9977 121.6722 L234.0763 120.1417 L235.0752 119.1657 L235.5351 118.7844 L235.6995 118.7438 L235.9084 118.728 L235.9738 118.7448 L236.3017 118.5032 L238.8625 119.6925 L238.9404 119.6777 L239.0763 119.6826 L239.3686 119.7663 L239.9935 120.0431 L240.1217 120.1397 L240.1883 120.2461 L240.2111 120.3184 L240.3107 120.365 L239.4836 127.3332 L239.5301 127.4129 L240.3123 128.3052 L240.5931 128.3418 L241.2818 127.104 L242.0682 127.4451 L242.2509 127.3793 L242.4451 127.357 L242.6143 127.3743 L242.7345 127.4223 L243.1588 127.6828 L243.518 127.8452 L244.8512 128.6072 L245.1931 128.7498 L245.4754 128.8092 L246.0007 128.9954 L246.2632 129.1514 L246.7826 129.1058 L247.014 129.0216 L247.4524 128.8964 L247.6873 128.8761 L248.7202 128.8662 L248.9519 128.7968 L249.239 128.6825 L249.8047 128.3695 L250.2511 128.2383 L251.1154 128.2151 L251.4 128.2225 L251.664 128.27 L252.1733 128.4171 L252.6078 128.5176 L253.0475 128.5597 L253.6135 128.5102 L254.8784 130.0386 L254.9674 130.0708 L255.5187 130.4976 L255.8513 130.8314 L255.8984 130.9274 L255.9058 131.0571 L255.8388 131.1988 L254.7598 132.449 L251.3509 134.3389 L250.3062 137.2096 L251.6586 137.7394 L249.6108 141.6013 L244.6916 146.5078 L242.9258 145.8394 L239.2436 148.2209 L239.3846 150.5033 L238.7212 152.2509 L237.2342 150.4686 L234.0648 149.9339 L233.7443 147.9664 L233.6847 147.7758 L231.6484 146.8098 L229.683 145.7879 L226.5562 145.2205 L225.8406 145.1938 L225.6646 145.1913 L225.0759 145.1775 L224.3385 145.6414 L224.3385 144.9215 L224.2779 144.8755 L224.2507 144.7358 L224.2827 144.4328 L224.3385 144.1942 L224.3385 141.4577 L225.249 141.123 L225.3445 140.9903 L225.4493 140.9146 L225.9883 140.9369 L226.6116 140.8017 L227.5922 141.1166 L227.6874 141.0735 L227.8582 140.9329 L227.9794 140.8774 L228.1153 140.8552 L228.3742 140.8765 L228.4062 140.8665 L228.4566 140.8873 L228.7245 140.923 L228.8527 140.9651 L229.0106 141.0794 L229.0324 141.1245 L229.4609 141.3013 L230.7284 141.5879 L233.1075 143.1634 L233.5764 143.254 L233.9058 143.3446 L234.3064 143.4872 L234.4458 143.4867 L234.6141 143.4466 L235.9556 140.7943 L234.6705 139.9922 L235.2697 138.4326 L232.9015 137.269 L233.6994 135.7688 L232.6868 134.7934 L231.7414 133.917 L230.655 135.1945 L228.5463 131.7434 L225.9088 133.5605 L224.4218 134.1893 L223.9427 133.7249 L222.25 134.7058 L219.3546 134.2616 L217.6282 134.2616 L217.6003 134.2958 L217.2302 134.5364 L216.8385 134.6454 L216.312 134.6993 L215.8034 134.6964 L215.6768 134.6736 L214.7984 135.2207 L214.8231 135.2529 L214.9657 135.5227 L215.0221 135.7029 L215.0224 135.9555 L214.9183 136.2565 L214.7757 136.46 L214.5815 136.6769 L214.444 136.7714 L214.3238 136.8358 L214.0434 136.8818 L213.5598 136.8655 L213.2448 136.8086 L212.9743 136.6947 L212.6692 136.5867 L212.6228 136.5749 L211.4524 137.3037 L210.8477 137.5359 L210.276 138.0271 L209.9847 138.2008 L209.1316 138.5969 L208.4121 138.8767 L207.8679 139.1133 L208.1333 140.4596 L210.2981 140.6259 L210.3759 140.6175 L210.7105 140.7393 L210.8262 140.8423 L210.8698 140.9205 L211.1954 141.0884 L211.2447 141.8419 L211.4345 142.3197 L211.7392 143.2886 L211.8834 143.8446 L211.9331 144.2066 L211.9235 144.3091 L212.0462 144.7428 L211.8959 146.0295 L212.0587 147.3158 L212.0469 147.4842 L212.1203 148.0639 L211.9209 148.4125 L211.787 148.8031 L211.3537 149.5997 L211.0374 150.0349 L210.899 150.179 L210.6243 150.3998 L210.4327 150.5023 L210.1593 150.7647 L209.0271 152.7025 L209.836 153.0307 L210.1141 153.1693 L213.5912 154.5298 L214.6379 156.0384 L214.5911 156.3438 L214.7581 156.7389 L214.7869 156.9736 L214.7888 157.2077 L214.7311 157.6276 L214.086 159.4777 L213.3832 161.1342 L213.1031 161.5723 L212.9647 161.7164 L212.7426 161.8159 L212.1818 161.907 L211.4082 161.9793 L213.1605 162.5932 L213.2137 162.8877 L213.3973 163.166 L213.4345 163.313 L213.4666 163.5105 L213.4326 164.0957 L213.605 165.0482 L212.6337 168.878 L212.5042 171.1721 L212.9577 172.9577 L213.0387 175.1825 L213.2458 177.6176 L213.3371 178.0428 L213.4329 178.3294 L213.4509 178.3606 L214.4478 179.169 L215.1468 179.6581 L216.479 180.5239 L218.2352 181.3016 L220.9979 181.662 L222.2955 181.6615 L222.7586 181.7169 L223.1996 181.8303 L223.6569 182.0169 L224.915 182.704 L225.2326 182.806 L227.0273 183.806 L227.1699 183.8307 L227.9076 184.1802 L231.4267 185.6772 L233.3232 184.1045 L233.9244 183.4941 L235.2611 181.5239 L236.9724 175.6681 L234.9743 174.4656 L233.5392 173.3359 L236.9041 171.7617 L238.5514 173.2518 L238.966 174.2062 L238.6424 174.8077 L238.3139 175.9364 L237.2038 175.9824 L236.3145 181.7516 L238.4392 183.5436 L235.8764 185.8915 L234.766 193.3875 L233.3662 197.7554 L229.2353 205.1109 L225.489 208.7342 L220.4929 207.9917 L213.6829 211.1002 L215.5256 208.2244 L224.7942 203.7195 L224.808 203.6572 L224.8779 203.5315 L225.3076 200.609 L225.1326 200.0789 L225.1099 199.8839 L225.1714 199.1795 L225.5416 198.0509 L225.6454 197.6831 L225.4185 196.0912 L225.0541 195.1497 L224.7808 194.0716 L224.759 193.8543 L224.7856 193.6018 L224.8522 193.3474 L225.4864 191.6807 L226.1213 188.6413 L225.9825 188.0854 L225.7938 187.6077 L224.659 185.9049 L214.0194 182.9694 L211.0326 180.712 L210.7685 180.2348 L210.7118 180.1903 L210.581 179.9883 L210.5343 179.8116 L207.4936 174.3206 L207.4513 174.2934 L207.1132 174.1231 L206.6957 174.0151 L206.1098 174.034 L206.0099 173.9736 L205.8442 173.7741 L205.4564 173.9498 L205.0545 172.4711 L204.6081 171.5097 L204.4126 170.4414 L204.3533 170.3245 L204.2575 170.2052 L204.1233 170.182 L203.9915 170.2161 L203.2432 170.5775 L201.7527 171.5325 L200.5468 172.5884 L199.9094 172.8651 L200.3103 173.1523 L200.6538 173.331 L200.8343 173.4998 L200.9333 173.6686 L200.9955 173.8567 L201.0086 173.9943 L200.9695 174.1137 L200.8827 174.2721 L200.3664 174.8632 L200.159 175.2221 L199.9139 175.1399 L199.8671 175.1636 L199.371 175.2938 L198.8951 175.2993 L198.317 175.1993 L196.7175 174.8468 L195.4433 174.3914 L195.0998 174.2409 L194.0701 173.9795 L190.7532 172.2518 L188.7298 171.4681 L186.9428 171.3557 L189.1669 176.6082 L188.0196 177.2517 L188.3478 180.816 L183.219 189.3997 L183.5997 191.0337 L183.7798 191.1312 L183.9224 191.2614 L184.0625 191.4594 L184.2826 192.0416 L184.3211 192.2787 L184.3493 193.2568 L184.3272 193.4543 L184.241 193.6716 L184.2189 193.6914 L185.6738 194.2904 L185.6578 198.9434 L184.456 201.9084 L184.5714 209.1252 L189.2823 210.7933 L196.6178 220.5044 L199.5021 219.955 L202.194 216.8021 L206.8088 215.7578 L207.4401 216.6438 L206.5684 218.0445 L201.9857 222.2169 L205.9692 229.1164 L203.2612 230.2399 L202.6042 233.8776 L205.3474 234.1943 L206.8088 237.5004 L209.7988 239.2029 L200.2231 240.8757 L199.7328 243.2612 L200.7263 246.6958 L199.7424 252.1297 L200.8 252.1891 L202.6267 252.1891 L198.1849 259.7063 L197.7715 269.0641 L199.6944 275.3733 L206.3185 276.5016 L207.7862 276.9024 L207.9561 276.8479 L218.5989 280.6631 L216.3973 281.0243 L217.3202 282.0387 L211.039 280.5542 L208.1548 279.7526 L207.9144 279.7675 L198.0055 277.2636 L197.8549 276.9865 L196.8838 276.655 L195.7205 272.0282 L193.8874 273.2802 L191.1698 275.6752 L188.7375 280.4503 L187.0871 279.0005 L179.4951 281.1332 L179.3862 283.7953 L177.6748 283.4193 L175.3675 285.3392 L173.1947 282.875 L170.3393 282.7216 L168.8555 282.0684 L164.0485 278.8669 L161.5488 278.9015 L157.8768 278.276 L156.195 277.7238 L155.9982 280.8957 L156.072 282.4395 L156.4052 287.5262 L156.479 289.1492 L157.4243 287.7489 L162.7441 289.6094 L166.2001 292.4367 L166.7987 292.7796 L167.5599 293.267 L167.8572 293.5317 L167.9704 293.6935 L168.1284 293.8563 L168.3094 293.9756 L168.4562 293.9379 L168.8834 294.1829 L169.1218 294.4055 L169.2965 294.6613 L169.4151 294.8919 L169.4875 295.1269 L170.5623 296.0062 L171.1091 296.3857 L171.8513 297.0641 L172.6057 297.6836 L173.9205 298.6182 L174.6554 299.4544 L175.9321 300.5835 L176.5657 301.0877 L176.6006 301.1263 L176.6205 301.1926 L176.6708 301.3069 L176.6683 301.395 L178.0851 307.3922 L185.5232 319.0091 L178.601 317.7921 L177.6716 320.0283 L174.483 319.1675 L173.3838 316.5552 L171.9673 315.7042 L171.3584 316.7877 L170.429 319.6771 L159.1613 321.7105 L158.8536 321.4631 L155.9822 321.4631 L153.114 321.4631 L152.4763 315.8477 L153.114 313.9181 L150.855 314.075 L150.407 314.2422 L150.0385 314.3476 L149.76 314.4005 L149.5267 314.4084 L149.1854 314.2882 L149.0396 314.1898 L146.2239 314.3684 L145.998 316.9723 L137.942 317.609 L137.4664 315.8556 L137.3472 315.2332 L137.1376 314.0369 L134.4104 315.6107 L132.3636 315.1451 L131.9726 315.3579 L127.1335 317.5645 L114.6896 323.0364 L111.5641 325.887 L98.8424 330.9174 L94.0097 333.0893 L93.3559 334.5042 L96.8715 336.6314 L96.4837 338.3382 L92.3593 336.1714 L90.7117 338.3055 L88.6194 338.2937 L88.8405 339.2732 L86.4338 339.2732 L86.6168 338.3857 L82.0337 338.2838 L73.9771 356.4636 L72.319 359.215 L68.2038 363.7228 L65.4907 366.9623 L59.9469 367.2917 L54.1272 365.1202 L53.7907 365.0262 L42.5393 368.0881 L36.5975 377.6099 L34.4356 389.0316 M62.5514 420.4498 L62.8949 418.9968 L63.0779 418.7689 L63.1693 418.7224 L63.3439 418.7209 L68.2042 420.706 L69.8809 421.4592 L72.0928 422.3543 L72.9539 422.7321 L73.0933 422.8711 L73.1759 422.9927 L73.2673 423.0862 L73.4064 423.1401 L73.5204 423.2068 L73.7925 423.1668 L74.2287 423.2805 L75.1462 423.5901 L77.8615 424.7364 L78.1359 424.9036 L78.7457 425.1192 L81.0021 426.0118 L81.5216 426.3056 L81.729 426.3931 L81.9155 426.5741 L81.9334 426.7111 L82.0411 426.7927 L82.1558 426.8367 L82.3244 426.8501 L82.4933 426.8946 L82.6224 427.0533 L82.9378 427.8895 L83.0442 428.3228 L83.249 428.7263 L83.4172 429.1808 L83.7412 430.0961 L83.9284 430.7504 L84.0892 431.188 L84.1783 431.5698 L84.3475 432.0875 L84.4908 432.4154 L84.9446 433.6611 L85.0862 434.0072 L85.431 435.1629 L85.4814 435.3889 L85.4801 435.4928 L85.4243 435.6189 L85.4897 435.8562 L85.5807 435.9175 L85.6813 435.9284 L85.8233 436.1663 L86.2418 437.4718 L86.3207 437.6528 L86.3896 437.7452 L86.5408 437.7072 L85.9685 435.7598 L86.0403 435.5946 L86.0031 435.4206 L85.8412 435.2534 L85.5855 434.7861 L85.3862 434.1388 L84.51 431.7048 L84.3975 431.1514 L83.9229 429.9992 L83.621 429.0799 L83.4871 428.615 L83.3207 428.2006 L83.0871 427.536 L83.0387 427.2106 L83.0576 427.0498 L83.147 426.8822 L83.3727 426.6112 L83.5851 426.4816 L86.61 425.9955 L87.0356 426.6433 L87.1449 426.582 L86.8305 425.9599 L89.6875 425.4985 L91.6174 425.2102 L91.7074 425.6301 L91.8235 425.6113 L91.7988 425.1914 L93.4361 424.9239 L93.6101 425.3956 L93.6982 425.3378 L93.596 424.9085 L97.0375 424.2632 L100.2855 423.7553 L108.818 422.3335 L110.1261 422.2282 L110.6392 422.2074 L111.0898 422.242 L111.8605 422.3414 L113.1283 422.6797 L114.9063 423.5876 L116.6275 424.7261 L117.3444 425.2503 L117.4034 425.41 L117.413 425.6736 L117.3925 426.0143 L117.3463 426.221 L115.911 427.6176 L113.9212 429.474 L112.3454 431.0288 L110.2527 432.9698 L108.0034 435.107 L106.9926 436.0308 L106.716 436.3354 L106.477 436.7354 L106.0738 437.5262 L105.5018 438.4301 L104.6913 439.387 L104.442 439.8419 L104.1551 440.15 L103.7065 440.3765 L103.5036 440.5085 L102.5313 440.69 L100.6393 440.8265 L99.6317 437.4406 L103.1569 438.8312 L103.2671 438.6774 L101.4247 437.9069 L99.5798 437.2047 L98.079 431.8769 L101.7923 434.0092 L105.4688 436.0807 L105.5569 435.9576 L97.2721 431.1539 L96.3072 430.4576 L95.8457 430.0308 L95.2252 429.2915 L94.8179 428.5309 L94.4962 427.7155 L93.8036 425.6998 L93.6761 425.7478 L94.3295 427.6888 L94.7468 428.7594 L95.1961 429.5269 L95.7005 430.1362 L96.2623 430.6816 L97.8358 431.7943 L99.8951 439.1467 L100.4396 440.8339 L99.4144 440.915 L98.6565 440.9491 L98.022 441.0525 L97.7342 441.1627 L97.058 441.5074 L96.9237 441.6191 L96.659 441.901 L96.2841 442.3001 L96.0896 442.6062 L95.2496 443.9512 L95.0653 444.1163 L94.8077 444.19 L94.1472 443.9962 L93.4937 443.7336 L93.6271 443.0087 L93.7453 441.904 L93.7437 441.5603 L93.7008 440.8527 L93.0643 433.2679 L92.9563 432.4357 L92.7878 431.6761 L91.8802 426.089 L91.7911 426.0944 L91.9792 427.4207 L92.6426 431.727 L92.8198 432.4846 L92.9307 433.3896 L93.3399 437.9628 L93.5652 440.7394 L93.5985 441.6112 L93.5633 442.4494 L93.3508 443.696 L92.8115 443.5704 L92.3644 443.2782 L91.9292 443.0883 L91.3517 442.9192 L91.4437 442.3841 L91.4767 441.8085 L91.5821 437.7388 L91.5866 436.5441 L91.6136 436.0426 L91.5668 435.5887 L91.4552 435.0235 L91.237 434.5571 L89.6721 431.4882 L88.4409 429.1837 L87.3209 426.9514 L87.2414 427.0187 L87.7237 428.0433 L88.3005 429.2065 L89.485 431.4466 L91.0127 434.4083 L91.2623 434.9463 L91.3937 435.4225 L91.4501 436.0466 L91.4306 436.5381 L91.4424 437.721 L91.3738 440.0753 L91.2825 442.0573 L91.1947 442.8499 L90.09 442.5508 L89.0302 442.3589 L88.6428 442.2422 L88.4159 442.1438 L88.1342 441.9871 L88.0002 441.7724 L87.864 441.4006 L87.824 441.1553 L87.741 440.9209 L87.4801 441.0851 L87.5199 441.6058 L87.5086 441.8689 L87.5423 442.4623 L87.4692 442.7278 L87.3827 442.8885 L87.0686 442.9627 L86.9398 442.9573 L86.8228 442.8727 L85.9505 441.8169 L85.4756 441.3541 L85.0856 441.1385 L84.6997 440.8908 L84.2014 440.783 L83.7947 440.7953 L83.3711 440.8418 L82.8163 440.8418 L82.7551 440.8388 L82.541 440.7656 L82.3036 440.5481 L82.1779 440.3977 L78.1881 435.6208 L77.0934 434.5522 L75.2004 433.1577 L74.0489 432.0989 L72.4991 429.1674 L70.8 426.2868 L69.262 423.6237 L69.0432 423.2988 L68.722 423.0362 L68.5009 422.919 L68.2381 422.8221 L68.0478 422.8399 L67.7725 422.9433 L67.3453 422.9952 L66.9758 422.9883 L66.6829 422.9546 L66.0157 422.7756 L65.6664 422.6436 L65.4927 422.514 L65.335 422.3464 L65.1244 422.2949 L64.9261 422.3187 L64.5466 422.2227 L64.2066 422.0936 L64.057 421.8073 L63.7118 421.5076 L63.2273 421.6228 L62.993 421.5353 L62.5757 420.5987 L62.5514 420.4498 M77.5609 406.5865 L77.6407 406.3951 L77.7439 406.2116 L77.9192 406.0607 L77.9955 405.9148 L78.1343 405.8139 L78.2714 405.7694 L78.5935 405.7724 L79.1691 405.901 L79.7084 406.1463 L80.1231 406.446 L80.4625 406.624 L80.7307 406.7027 L80.9611 406.6873 L81.114 406.6735 L81.3027 406.7427 L81.4268 406.8224 L82.8865 407.8189 L83.9947 408.5613 L84.0178 408.6354 L83.9508 408.7022 L80.6746 410.6612 L80.6269 410.6686 L80.5939 410.6409 L80.4881 410.536 L79.5219 409.3699 L78.7576 408.2156 L78.5711 408.0232 L78.3358 407.8728 L78.0176 407.7576 L77.7535 407.5672 L77.5818 407.2615 L77.5699 407.0523 L77.5609 406.5865 M83.023 407.399 L83.0352 407.397 L83.0644 407.3417 L83.1201 407.2942 L83.5774 407.0672 L83.9796 406.8105 L84.1383 406.7719 L84.4776 406.7546 L84.7882 406.7932 L84.9298 406.8842 L85.1154 407.3243 L85.2932 407.6389 L85.3384 407.6819 L85.4333 407.6414 L85.722 407.4668 L85.8518 407.4282 L85.9877 407.444 L86.3819 407.626 L86.4825 407.6428 L86.6491 407.6335 L86.8219 407.6814 L86.9248 407.7487 L87.0555 407.8718 L87.2407 407.9386 L87.3241 407.944 L87.4083 407.9178 L87.7544 407.5113 L88.099 407.2897 L88.2412 407.2284 L88.3358 407.2259 L88.3746 407.2704 L88.3938 407.3501 L88.4194 407.7017 L88.462 407.8471 L90.0724 409.8966 L90.3317 410.4554 L90.3765 410.5212 L90.4349 410.5623 L90.5903 410.588 L90.8085 410.5266 L90.8922 410.4811 L91.0873 410.2779 L91.1537 410.2764 L91.1828 410.31 L91.4466 413.2833 L91.3828 413.2808 L86.3697 409.815 L84.4382 408.5415 L83.1128 407.5627 L83.031 407.449 L83.023 407.399 M86.6895 461.2138 L86.7184 461.0343 L86.7879 460.6031 L87.4224 453.335 L87.5955 450.422 L87.7038 449.846 L87.8278 449.2808 L88.039 448.8946 L88.3005 448.5415 L89.4981 447.508 L89.2305 447.1866 L88.4281 447.5565 L88.1191 447.4447 L87.989 446.8716 L87.9192 446.4414 L87.2234 443.9007 L87.4035 443.5165 L87.7038 443.3187 L87.9698 443.3252 L88.2457 443.4468 L88.9895 444.735 L90.6162 446.9512 L91.8603 448.5272 L92.9512 449.9889 L93.2957 450.6173 L93.7376 451.501 L94.0184 452.6882 L94.1183 453.8458 L94.0068 455.0236 L92.8887 459.3952 L93.0041 460.9616 L93.1034 461.4363 L93.6328 462.1246 L94.0853 462.6141 L95.0618 463.5941 L95.6845 464.3031 L96.1966 464.9939 L96.5058 465.3222 L96.553 465.5303 L96.7247 465.6465 L96.8872 465.6243 L97.7246 466.3843 L99.3692 468.4441 L100.6572 471.1215 L100.5877 471.9566 L100.1124 473.3494 L99.4715 475.0661 L99.2997 475.3914 L99.0719 475.5368 L98.8309 475.4908 L98.6709 475.3637 L98.471 475.0448 L98.2361 474.5113 L97.242 472.9801 L97.5176 472.494 L97.034 471.4241 L96.8959 470.9875 L96.6786 470.811 L96.4789 470.8258 L96.2572 471.2585 L95.9957 470.9766 L96.1165 469.48 L96.0146 469.2397 L95.8297 469.207 L95.6496 469.3984 L95.4153 469.5042 L95.2067 469.5744 L94.9157 469.8018 L94.4622 469.3039 L93.679 468.049 L92.9621 466.5944 L92.7064 466.1632 L90.4464 464.0722 L90.0452 463.8601 L87.8211 462.6828 L87.4811 462.3278 L87.1545 462.1696 L86.8664 461.8338 L86.6895 461.2138 M91.2078 479.1055 L91.2431 478.6808 L91.4959 477.9535 L91.8228 477.5392 L92.4096 476.5825 L92.7288 476.2631 L93.1621 476.7358 L93.2505 476.8307 L94.0004 477.8576 L94.4196 478.4331 L94.2664 478.7545 L94.1405 478.9785 L93.8665 479.1105 L93.7213 479.1391 L92.8051 479.464 L92.275 479.6261 L91.7469 479.73 L91.6414 479.6766 L91.445 479.5668 L91.2078 479.1055 M101.8574 377.0213 L101.9019 376.8071 L102.1009 376.5682 L102.3615 376.3189 L102.7041 376.1834 L103.0668 376.172 L103.612 376.2101 L104.1231 376.4287 L105.0025 376.4757 L107.6931 376.3545 L110.3601 376.3798 L112.5476 376.0865 L113.2158 376.1997 L113.66 376.3976 L114.0705 376.68 L114.4323 377.5431 L114.4772 377.9171 L114.3605 378.1748 L113.8734 378.4928 L112.6178 379.254 L110.4354 380.3576 L109.3682 381.0085 L108.9276 381.2236 L108.6007 381.2607 L107.4002 381.0911 L106.3802 380.8606 L106.1081 380.6504 L105.7363 380.4095 L105.3284 380.1419 L104.9922 379.9267 L104.5942 379.7215 L104.0119 379.3554 L103.7555 379.1433 L103.3944 378.6773 L102.9358 378.196 L102.1032 377.3626 L101.9215 377.1217 L101.8574 377.0213 M107.8268 402.6101 L107.9787 402.2278 L108.1831 402.1704 L108.2934 402.2223 L108.6722 402.4004 L109.3064 402.8584 L109.6958 403.1393 L110.1191 403.4039 L110.7854 403.7006 L111.4904 403.943 L111.8801 404.1022 L112.2336 404.2748 L112.3871 404.488 L112.5358 404.9643 L112.9383 406.9603 L113.1453 407.9881 L113.385 408.8788 L113.6334 409.5296 L114.1304 410.6879 L114.1795 410.9901 L114.1746 411.2532 L114.1897 411.3456 L114.0971 411.361 L113.966 411.2868 L112.032 408.5988 L110.735 406.7605 L108.3902 403.5908 L107.9069 402.8119 L107.8268 402.6101 M133.9073 319.065 L133.9784 318.8375 L134.0643 318.7623 L134.1121 318.7207 L134.2569 318.6702 L134.5149 318.6821 L134.6745 318.7237 L134.9193 318.8479 L135.0174 318.8978 L135.1651 318.9231 L135.317 318.9161 L135.41 318.8973 L135.5388 318.8711 L135.8913 318.7459 L136.1451 318.7588 L136.2996 318.7964 L136.7005 318.8305 L136.9094 318.8998 L137.0299 319.0596 L137.07 319.1125 L137.344 319.167 L137.535 319.1101 L137.6097 319.0878 L138.0407 319.0636 L138.0727 319.0616 L138.7909 318.9443 L139.1159 318.8419 L139.8603 318.4723 L140.1763 318.3714 L140.3567 318.3467 L140.665 318.3368 L140.7275 318.4169 L140.7766 318.553 L140.8099 318.8132 L140.7352 325.1123 L140.6189 327.8036 L140.5349 327.9159 L140.5192 327.9372 L140.2244 327.9763 L140.0824 327.959 L139.5613 327.8501 L139.3787 327.8031 L139.2822 327.7576 L138.8044 327.532 L138.0337 327.297 L135.2962 326.0176 L135.0623 325.7673 L134.9379 324.5577 L134.7277 323.0413 L134.4309 321.7109 L134.163 320.1411 L133.9073 319.065 M141.5037 327.2154 L141.5188 325.1588 L141.5758 322.3165 L141.5899 319.8265 L141.6729 318.6406 L141.7498 318.4565 L141.8883 318.3026 L142.0725 318.1636 L142.8747 317.8687 L143.9136 317.5571 L144.5293 317.4566 L145.2151 317.5199 L145.4586 317.611 L145.665 317.7416 L145.774 317.8767 L145.8381 318.2047 L145.856 318.5842 L145.9618 319.1022 L146.1633 319.5395 L146.2707 319.6637 L146.4191 319.7706 L146.629 319.8566 L146.9277 319.9022 L148.2409 319.9086 L149.6834 319.8809 L149.8324 319.9066 L149.8962 319.918 L150.0061 320.013 L150.0955 320.2054 L150.5259 322.7341 L150.6695 323.5776 L150.6756 323.9165 L150.8416 323.9986 L152.7865 323.915 L153.1137 323.9012 L153.6704 323.9091 L154.1953 323.9872 L154.4475 324.0664 L154.6167 324.2351 L154.743 324.477 L154.8058 324.7289 L154.8933 327.2164 L154.7724 328.2197 L154.6622 328.4121 L154.4581 328.6313 L153.9796 328.9059 L153.3723 329.1251 L151.3691 329.6702 L150.3621 329.9112 L149.9324 329.9483 L147.184 329.8612 L146.0787 329.8993 L145.4506 329.8592 L144.3501 329.8538 L143.041 329.6411 L142.0415 329.3892 L141.7396 329.2745 L141.6091 329.1429 L141.5521 328.8569 L141.5037 327.2154 M185.4751 186.2197 L185.4831 186.0202 L185.5562 185.8865 L185.8266 185.5584 L186.3782 184.995 L187.5107 183.9084 L188.733 182.4877 L189.4403 181.858 L189.7986 181.516 L190.6209 180.818 L191.8646 179.8353 L192.5126 179.4502 L192.8421 179.32 L192.9661 179.3086 L193.1042 179.3269 L193.2817 179.3972 L193.4952 179.52 L193.8269 179.7635 L194.4239 180.2571 L195.128 180.9308 L195.5885 181.5061 L195.6766 181.6897 L195.716 181.8506 L195.7151 181.9952 L195.7144 182.0625 L195.6478 182.4837 L195.5943 182.7362 L195.5353 182.8991 L195.4154 183.1035 L195.2712 183.2397 L194.9514 183.4312 L190.3671 185.3866 L189.9114 185.6549 L189.6374 185.794 L189.2945 185.9266 L188.9717 186.0153 L188.0187 186.1841 L186.7477 186.5533 L186.2609 186.7682 L186.0821 186.7746 L185.9087 186.7311 L185.7094 186.6098 L185.5443 186.3979 L185.4751 186.2197 M189.0938 89.1384 L189.1438 88.8913 L189.1669 88.8338 L189.2464 88.6352 L189.3659 88.4852 L189.504 88.4218 L189.7207 88.4272 L190.2088 88.4966 L191.9646 88.8105 L192.2332 88.8026 L192.4187 88.7546 L192.5081 88.6679 L192.5357 88.6139 L192.5562 88.5743 L192.6344 87.364 L192.6549 87.0282 L192.6911 86.0487 L192.6373 85.8813 L192.5463 85.7926 L192.4069 85.7654 L191.7496 85.706 L191.5913 85.6728 L191.4544 85.605 L191.2987 85.45 L191.1679 85.2568 L191.1449 85.2226 L190.9093 84.6833 L190.5738 83.836 L190.4808 83.5398 L190.4651 83.3031 L190.5263 83.1803 L190.6923 83.0679 L190.9071 83.0327 L191.3028 83.0055 L191.3387 83.003 L191.988 82.9015 L192.6107 82.746 L192.8065 82.6781 L193.1898 82.4895 L194.7187 81.8749 L195.5811 81.5629 L196.3012 81.342 L197.0787 81.3158 L197.1066 81.3148 L197.5305 81.3494 L197.9446 81.4351 L198.1648 81.5153 L198.4186 81.7228 L199.1191 82.2245 L201.5803 85.1256 L200.5808 86.324 L199.9546 87.0129 L198.0068 89.2335 L197.0995 90.6577 L196.4515 91.6293 L196.3192 91.7006 L196.1314 91.763 L196.0006 91.7616 L195.5987 91.6962 L193.1923 91.141 L192.0627 90.9147 L190.858 90.6146 L189.8559 90.2323 L189.5518 89.9659 L189.3723 89.7742 L189.2227 89.5727 L189.1669 89.439 L189.1345 89.3617 L189.0938 89.1384 M195.2802 97.5164 L195.3475 97.3242 L195.5846 96.9504 L195.7856 96.676 L195.8981 96.5488 L195.9641 96.4428 L196.0112 96.4042 L196.123 96.3675 L196.1785 96.3769 L196.4592 96.5349 L196.8277 96.7756 L197.0143 96.8899 L197.1107 96.9137 L197.194 96.9835 L197.2216 97.0281 L197.2488 97.1192 L197.2674 97.3119 L197.2421 97.3807 L197.2158 97.4 L197.0319 97.3916 L196.9357 97.3792 L196.7768 97.299 L196.5598 97.294 L196.464 97.3237 L196.4121 97.3728 L196.3544 97.5223 L196.3358 97.6956 L196.3326 97.9328 L196.3297 98.0512 L196.3262 98.119 L196.3067 98.1899 L196.2778 98.2943 L196.1884 98.4167 L196.1336 98.4637 L196.0823 98.4835 L195.9663 98.4909 L195.8679 98.4538 L195.6779 98.2597 L195.4331 97.8888 L195.2972 97.6407 L195.2802 97.5164 M221.153 170.5983 L222.0247 168.9993 L222.8964 167.4002 L246.7522 164.6873 L320.361 152.449 L345.7967 135.6054 L348.2803 135.744 L353.6354 137.2443 L353.8886 139.101 L346.8543 139.0465 L323.2036 154.7808 L313.9997 156.479 L221.153 170.5983 M233.5911 85.654 L234.4798 84.41 L235.9607 83.5805 L236.3754 83.4819 L237.6393 83.3041 L238.1331 82.4548 L238.9625 81.5267 L239.8707 80.9542 L240.878 81.3291 L241.2334 80.9344 L241.8653 80.1445 L243.1488 80.5194 L245.6174 81.3489 L245.5975 81.4084 L246.2494 81.4871 L248.6587 80.8552 L250.179 79.0783 L251.0875 78.8608 L252.2723 81.132 L248.7769 86.6018 L246.3679 89.9193 L244.4128 90.3541 L241.0754 91.0059 L239.2981 91.7957 L237.2445 92.8223 L234.2824 93.1581 L233.5911 85.654 M237.5451 226.9486 L239.5288 226.9486 L246.9317 220.2718 L247.172 220.2965 L246.8387 220.5539 L248.1879 222.0684 L244.2718 225.2658 L243.086 224.0581 L242.2143 224.8797 L242.7239 225.6667 L239.282 227.7652 L237.5451 226.9486 M245.4492 278.1325 L245.5866 277.8713 L245.894 277.659 L246.0962 277.5768 L247.2092 277.4269 L247.6918 277.466 L248.0767 277.4294 L248.1241 277.3641 L248.1651 277.3076 L248.4164 277.2488 L248.4943 277.1191 L248.4779 276.8781 L248.344 276.3007 L248.2687 275.835 L248.2494 275.216 L248.2956 275.0284 L248.4065 274.8528 L248.477 274.539 L248.4923 274.3891 L248.4997 274.3188 L248.6811 274.1902 L249.0311 274.1268 L249.8601 273.9759 L251.224 273.676 L252.529 273.443 L253.5359 273.1936 L254.4819 272.8457 L255.1514 272.7324 L255.5209 272.627 L255.8519 272.4518 L256.2762 272.3508 L258.4785 271.6007 L259.6338 271.4626 L261.9656 271.0113 L262.5466 270.9346 L263.9114 270.51 L264.2361 270.3428 L264.6537 270.0033 L266.1855 269.2571 L267.6859 268.3554 L269.6636 266.9476 L270.5074 266.4379 L270.6157 266.3349 L270.609 266.2939 L270.7368 266.1598 L270.9586 266.1415 L271.0868 266.6843 L271.1614 267.2851 L271.2922 267.8452 L271.3351 268.3609 L271.3246 268.7954 L270.9227 269.4783 L270.9913 270.9588 L271.0538 271.3453 L271.1544 271.4958 L271.296 271.7882 L271.844 272.2583 L272.2187 272.9635 L272.5635 274.3079 L272.9474 275.2912 L273.1676 275.6589 L273.2108 275.7306 L273.283 275.8509 L273.5929 276.2378 L274.145 276.5674 L274.5684 277.1562 L274.5607 277.5813 L274.6305 277.9034 L274.926 278.2295 L274.9981 278.425 L274.95 278.5997 L274.5273 278.9886 L273.588 279.5329 L272.426 279.9743 L271.6162 280.5255 L271.0573 280.9318 L270.4651 281.4113 L269.794 281.7364 L269.1643 281.9833 L268.5817 282.105 L265.2369 283.5454 L264.3973 283.966 L263.9092 284.1714 L261.6742 284.779 L260.1533 285.2526 L259.3931 285.4218 L258.9695 285.4451 L258.5173 285.2922 L258.1289 284.8364 L257.6373 284.304 L257.2409 283.6246 L256.6743 283.0947 L255.8644 282.4781 L255.7241 282.3514 L255.4546 282.2144 L255.0799 282.2406 L254.0547 282.5157 L253.1036 282.7196 L251.01 283.0016 L249.7547 283.0209 L249.5871 282.9314 L249.6047 282.7344 L249.5409 282.1456 L249.5451 282.0729 L249.5566 281.8814 L249.5727 281.8131 L249.6403 281.4533 L249.7438 281.0936 L249.7342 280.6448 L249.771 280.0935 L249.7246 279.8417 L249.6156 279.7234 L248.8308 279.5883 L248.4209 279.5829 L248.1222 279.6541 L247.8831 279.8145 L247.3338 279.809 L247.2492 279.1469 L247.0294 278.8446 L246.6343 278.6788 L246.0516 278.6343 L245.7123 278.5091 L245.5133 278.28 L245.5043 278.2592 L245.4492 278.1325 M258.0504 270.4264 L260.3119 268.8191 L260.7564 268.4119 L260.9699 268.2164 L261.4832 267.8626 L261.7547 267.6513 L262.7571 267.3172 L263.5327 266.7244 L263.8291 266.4983 L264.2435 265.8361 L264.7072 264.7281 L265.3423 263.3094 L265.6455 262.3998 L265.7368 261.4343 L265.6503 260.7598 L265.4962 260.4352 L263.6019 257.9757 L263.5102 257.8257 L263.2968 257.4759 L263.1244 256.9399 L262.9494 256.5806 L262.4658 255.8977 L262.4155 255.5859 L262.4056 255.3306 L262.4719 255.1574 L262.8642 254.859 L263.0526 254.8283 L263.7368 255.2014 L263.8326 255.342 L263.9621 255.5325 L264.4139 255.964 L264.9664 256.212 L266.1871 257.1349 L266.4105 257.4155 L266.6207 257.5481 L266.8428 257.4759 L267.2697 257.706 L268.1413 257.949 L269.9036 258.4092 L271.7646 258.7858 L273.2794 258.9699 L275.1196 259.0783 L275.4323 259.344 L275.4926 259.7117 L275.3702 260.0111 L275.1212 260.4812 L274.8507 260.6905 L274.2668 260.9701 L273.3275 261.5828 L272.6116 262.2984 L271.7309 263.3564 L271.0506 264.2531 L270.7346 264.8024 L269.8007 266.0415 L268.9188 266.8699 L268.4083 267.1871 L267.6706 267.5642 L266.7896 267.8205 L265.8346 268.3154 L265.2523 268.6815 L264.2015 269.4184 L263.0048 270.0884 L259.2531 271.3775 L258.807 271.4349 L258.0504 270.4264 M258.118 76.2068 L258.1513 76.1335 L258.5775 75.9607 L261.9656 74.9197 L263.1987 74.5502 L265.1411 74.0723 L265.6035 74.0104 L267.0492 73.5771 L267.1543 73.5568 L267.6908 73.4547 L268.3727 73.2492 L269.0457 73.266 L269.6684 73.2502 L270.5336 73.0645 L271.3669 72.6811 L271.588 72.4647 L271.845 72.3553 L272.2651 72.2552 L273.092 72.1121 L276.3588 71.4227 L276.5742 71.4465 L276.7357 71.4158 L276.8565 71.4955 L276.993 71.6718 L277.3459 72.2414 L277.7054 72.9362 L277.6965 73.1858 L277.6215 73.3062 L277.5763 73.4443 L277.5609 73.6543 L277.592 73.9876 L277.4157 74.2328 L276.9802 74.6557 L276.0618 75.4308 L275.8483 75.6111 L275.0737 76.134 L274.1203 76.5817 L271.4973 77.3018 L270.3212 77.5381 L268.8092 77.7565 L267.2847 77.7882 L266.5633 77.7639 L265.5615 77.7297 L265.2084 77.6891 L264.6678 77.6272 L263.7541 77.5683 L262.1469 77.5618 L262.1293 77.5618 L261.714 77.5257 L260.9731 77.3662 L260.6276 77.2057 L260.5558 77.123 L261.5092 76.7873 L262.078 76.5565 L262.4168 76.4188 L262.8658 76.1925 L264.0364 75.7809 L264.4559 75.6497 L265.7577 75.3253 L266.6983 75.1802 L271.6168 74.3952 L272.1379 74.2788 L272.2331 74.2001 L272.168 74.0753 L270.2359 74.367 L267.5209 74.8533 L266.7646 74.944 L265.1071 75.1421 L264.7456 74.9935 L264.4937 74.8543 L264.1464 74.8201 L263.8945 74.8479 L263.6612 74.9355 L263.4577 74.9548 L263.1564 75.04 L262.9391 75.1703 L262.4309 75.672 L262.0518 76.1756 L261.9383 76.3252 L261.4518 76.5169 L261.1522 76.611 L260.7234 76.8249 L260.2568 77.027 L260.0584 77.0502 L259.8796 77.0299 L259.1089 76.7987 L258.5522 76.6095 L258.1234 76.3232 L258.118 76.2068 M261.9002 252.7329 L261.9409 252.5676 L262.3046 252.0332 L262.3549 251.904 L262.3495 251.7545 L262.1226 250.6886 L262.1492 250.5757 L262.3517 250.2377 L263.091 249.9225 L263.5955 249.6241 L263.9537 249.4756 L264.2704 249.433 L264.6415 249.4766 L265.0347 249.629 L265.3023 249.966 L265.4564 250.2367 L265.6603 250.8568 L265.866 250.9904 L265.9971 251.0503 L266.2438 250.9919 L267.7625 250.1541 L268.266 249.7077 L269.1466 249.0455 L269.6078 248.6981 L269.6806 248.6437 L269.8651 248.4091 L270.0837 248.0508 L270.1016 247.9394 L270.101 247.6019 L270.1266 247.5282 L270.1837 247.3629 L270.3391 247.1842 L270.5301 247.0585 L270.7801 246.964 L272.3437 246.8764 L272.501 246.9051 L272.5577 246.9769 L272.5709 247.011 L272.8641 247.7608 L273.0003 248.0186 L273.3448 248.4997 L273.4794 248.6338 L273.5304 248.6847 L273.6323 248.7471 L273.7787 248.7753 L274.0489 248.708 L274.5296 248.5813 L275.4785 248.1983 L275.5641 248.0839 L275.6169 247.8588 L275.6262 247.7489 L275.6708 247.2164 L275.8099 247.0749 L276.0986 246.9798 L276.4031 246.8794 L276.7601 246.8076 L276.9825 247.015 L277.3837 248.4418 L277.4061 248.6362 L277.3446 249.0614 L277.3901 249.288 L277.4718 249.5137 L277.8807 250.209 L278.1156 250.6896 L278.4435 251.2988 L278.5117 251.5264 L278.4784 252.1 L278.4134 252.336 L278.1169 252.8661 L276.8725 254.3171 L276.596 254.5244 L275.7865 254.8926 L274.9241 255.1237 L273.6851 255.3929 L272.0623 255.7923 L270.9579 256.1981 L268.864 257.3274 L268.8816 257.41 L268.9611 257.4289 L269.145 257.3987 L269.3284 257.3373 L269.7411 257.081 L270.9833 256.4792 L271.7723 256.351 L272.0873 256.3569 L272.3517 256.4356 L272.6494 256.5811 L272.8734 256.5495 L272.9099 256.4985 L272.8728 256.059 L272.9388 255.9125 L273.3483 255.8007 L275.8544 255.4385 L276.2124 255.3484 L276.3309 255.388 L276.5383 255.53 L276.9379 255.8616 L278.6204 257.5941 L279.4584 258.4913 L280.7759 260.0022 L280.8589 260.2095 L280.8287 260.3001 L280.7207 260.4124 L280.5788 260.4614 L280.5464 260.4723 L279.5094 259.924 L278.7906 259.6216 L276.4758 258.8709 L276.2056 258.8115 L275.8506 258.7566 L275.3657 258.7314 L274.9802 258.7942 L274.4783 258.8308 L274.1534 258.8318 L272.8792 258.7447 L271.4268 258.528 L269.9456 258.2706 L268.4512 257.9445 L267.2091 257.5738 L266.994 257.4105 L266.6601 257.0681 L265.491 255.9828 L263.6403 254.5165 L262.7584 253.7316 L262.2793 253.2788 L262.0261 253.0393 L261.9306 252.8651 L261.9191 252.8151 L261.9002 252.7329 M266.0775 322.3887 L266.6178 317.6036 L266.8377 317.185 L270.035 312.5283 L272.6821 308.6098 L273.9688 306.7559 L276.1041 301.3084 L276.3332 300.6374 L276.4123 300.0135 L276.3393 299.0046 L276.0108 297.1121 L276.0941 296.3738 L276.0416 295.7717 L275.931 292.3041 L276.2252 290.9206 L276.7014 289.2749 L277.3289 287.5886 L277.6112 287.2487 L278.6531 287.0111 L279.2472 286.9023 L279.6116 286.8355 L279.7456 286.8107 L280.2359 286.5727 L281.0479 285.3317 L282.3103 282.8408 L283.0916 280.9936 L283.9985 279.7204 L284.2216 279.2677 L284.5093 278.6823 L284.2321 277.8574 L283.7627 276.8702 L283.5226 276.1101 L282.9618 274.0838 L283.0445 273.4845 L283.7011 272.9857 L283.9139 273.0501 L284.1065 273.3524 L284.393 275.0413 L284.3385 275.5955 L284.1825 275.9365 L284.5834 277.7659 L284.627 277.9643 L284.635 277.846 L284.742 276.5347 L284.9385 275.8855 L285.1984 275.1581 L285.2717 274.0828 L285.3932 272.8595 L285.3935 271.8318 L284.6241 271.7452 L286.1469 270.9386 L286.3639 270.9123 L286.6094 271.0123 L286.8648 271.2864 L287.3119 272.1613 L287.9115 274.3975 L288.3085 275.6039 L288.4216 276.2482 L288.6107 277.8341 L288.7133 278.4136 L288.7722 278.5546 L289.3856 279.428 L288.3111 280.2366 L288.0586 279.8135 L287.856 279.7561 L287.5355 279.9436 L287.4747 280.2059 L287.5471 280.4602 L289.103 282.2173 L290.8473 284.2506 L293.1777 286.4362 L293.3079 286.6856 L293.0486 287.1106 L293.8619 287.6999 L293.6713 288.0681 L292.8499 289.652 L291.7542 291.6406 L291.4613 292.1225 L290.4566 293.7747 L289.1462 296.5218 L288.9296 297.2432 L288.6489 298.1779 L288.4104 298.5108 L288.1983 298.5905 L286.2271 298.0368 L286.054 297.9883 L285.9909 298.0047 L285.5791 298.1111 L285.4842 298.2021 L285.2089 298.4653 L284.6718 299.4574 L284.2943 300.7409 L284.1373 302.3242 L284.0889 302.811 L283.7303 304.279 L283.3774 305.3176 L283.3643 305.3567 L283.2884 306.1384 L283.3422 306.3334 L284.3373 306.5852 L284.7026 306.6777 L285.1871 306.8934 L285.314 307.1215 L285.4256 307.5332 L285.3044 307.7568 L284.901 308.1843 L284.6548 308.6088 L284.4529 308.8908 L284.1094 308.9918 L282.6827 308.7939 L282.375 308.8983 L282.2991 308.924 L282.1331 309.2901 L281.9171 311.0025 L281.8847 311.9134 L281.9635 312.374 L282.4385 312.9271 L283.1217 313.6757 L283.4012 314.0151 L283.5255 314.9225 L283.7457 315.5884 L283.9306 315.8976 L284.0722 316.0782 L284.111 316.9322 L284.3639 318.5792 L284.3821 319.0794 L284.4206 319.9046 L284.2065 320.3647 L284.1905 320.3984 L283.8777 320.6878 L283.0663 320.9599 L282.8176 320.9802 L282.4522 320.9387 L282.0504 320.9584 L281.7004 321.0257 L281.2537 321.3246 L280.9637 321.6209 L280.6746 321.9168 L280.5865 322.1354 L280.4019 322.5946 L280.1391 323.4742 L279.9696 323.8106 L279.5001 323.9907 L277.8231 324.2633 L277.368 324.2831 L274.811 323.865 L273.4419 323.5692 L270.7048 322.8696 L269.0787 322.6519 L268.0644 322.6049 L266.3393 322.6178 L266.2153 322.5471 L266.0775 322.3887 M280.9576 268.2852 L280.9883 267.918 L281.6716 266.8565 L281.8238 266.2662 L281.7126 265.7184 L281.1992 263.5162 L281.2845 263.2594 L281.5001 263.0466 L281.6177 262.9303 L281.9882 262.7754 L282.1847 262.7121 L282.2744 262.7383 L282.3667 262.8086 L282.6695 263.4039 L282.8573 263.6756 L284.0415 264.7722 L284.5122 265.1824 L284.8907 265.6619 L285.174 266.134 L285.3493 266.719 L285.6422 267.5592 L285.9986 268.9839 L286.1187 269.6178 L286.3703 270.4516 L286.3101 270.5516 L285.8595 270.7104 L285.5525 270.8416 L285.3916 270.9306 L284.5122 271.4868 L283.0643 272.3276 L283.0047 272.34 L282.8862 272.3652 L282.7509 272.3063 L282.6074 272.0906 L282.5378 271.948 L281.4956 269.8049 L281.062 268.6528 L280.9576 268.2852 M282.0295 261.5021 L282.1424 261.3938 L282.2279 261.3665 L282.3497 261.3962 L282.8211 261.6714 L283.2239 261.9391 L283.4531 261.9109 L284.5257 261.4843 L285.5999 261.1354 L291.4494 258.7843 L291.5712 258.7709 L291.7013 258.8115 L291.7818 258.9892 L291.8635 259.44 L292.0029 259.7191 L292.4657 260.1353 L292.6044 260.2976 L292.6557 260.5327 L292.6195 260.8633 L292.7409 261.0597 L292.9611 261.227 L293.1592 261.2903 L293.4514 261.2285 L293.9655 260.933 L294.1449 260.9311 L294.2987 260.9914 L294.4067 261.132 L294.5673 261.4304 L294.5795 261.6174 L294.4843 261.8629 L294.2372 261.9752 L293.9139 262.0593 L293.295 262.0965 L293.2143 262.3488 L293.104 262.5829 L293.0832 262.7893 L293.2265 263.5637 L293.4735 263.731 L293.7591 263.8557 L294.1891 263.6484 L295.2102 263.156 L296.6484 262.5567 L296.9186 262.5582 L297.2734 262.7358 L297.4294 262.7051 L298.2101 262.2667 L298.3742 262.3078 L298.5485 262.5512 L298.7831 263.1129 L298.8052 263.1659 L299.06 263.3504 L300.4559 263.0788 L300.5008 263.0966 L300.6966 263.1753 L301.6109 264.8563 L301.5523 265.4115 L301.558 265.6501 L301.5651 265.9366 L301.6862 266.2578 L301.7301 266.374 L301.8932 266.6046 L302.4227 267.1539 L302.5877 267.3974 L302.5672 267.5498 L302.3111 267.7443 L299.8041 268.9923 L298.7501 269.5173 L295.4579 271.0484 L294.0972 271.7922 L294.1017 271.9792 L294.109 272.2816 L293.9632 272.525 L293.8011 272.7957 L293.8802 273.0624 L293.9526 273.5959 L294.026 274.1882 L294.0638 274.7998 L294.2379 276.5877 L294.235 277.6248 L294.1488 277.8144 L293.9289 278.0934 L293.6488 278.2785 L293.1322 278.615 L292.6243 278.9772 L292.4852 279.1168 L292.3766 279.3914 L292.2628 279.8832 L292.0853 280.1465 L291.8686 280.3078 L291.4334 280.5631 L291.221 280.6111 L291.1184 280.5602 L291.0376 280.339 L291.0018 279.8941 L290.8918 279.7135 L290.7191 279.6472 L290.2615 279.5413 L290.0205 279.4453 L289.8974 279.235 L289.1956 276.7054 L288.7754 274.9403 L288.5655 274.4129 L288.1739 274.2689 L287.8294 272.8447 L287.1382 270.9757 L286.8574 270.5164 L286.7292 270.0013 L286.7719 269.7103 L286.7578 269.3159 L286.6389 268.5237 L286.5725 268.3361 L286.4636 268.2189 L286.2848 267.919 L285.8451 266.5616 L285.6313 265.654 L285.6797 265.2319 L285.6134 265.0444 L285.4583 264.8623 L285.3019 264.7568 L284.7356 264.4792 L284.3212 264.3615 L284.0075 264.2006 L283.4101 263.73 L283.1973 263.4984 L282.9224 263.1599 L282.6641 262.7017 L282.5622 262.3488 L282.4529 262.1187 L282.0379 261.609 L282.0295 261.5021 M285.0625 314.5494 L285.083 313.0073 L285.1214 312.5486 L285.2064 312.3923 L285.2333 312.3819 L285.3195 312.3492 L296.3417 312.3359 L296.7859 312.471 L296.9651 312.7169 L297.0493 313.0726 L297.1061 316.145 L297.2387 317.6624 L297.2089 318.2833 L297.0683 318.4916 L297.0436 318.6331 L297.0481 318.791 L297.1426 318.9503 L297.1779 319.1531 L296.9478 319.2313 L295.7492 319.543 L293.3854 320.2109 L290.0471 321.186 L288.3092 321.5002 L288.114 321.4596 L287.9579 321.3275 L287.8249 321.0604 L287.708 320.6423 L287.6349 319.9962 L287.523 318.4065 L287.4695 317.8603 L287.4695 317.0806 L287.523 316.8555 L287.6147 316.6081 L287.6352 316.5527 L287.6048 316.4775 L287.523 316.2766 L287.3378 316.103 L287.0314 316.0169 L286.6664 315.9857 L286.2944 315.9105 L285.988 315.8244 L285.6711 315.6725 L285.4057 315.4212 L285.2278 315.156 L285.0625 314.5494 M294.5923 300.6721 L294.6093 300.4994 L294.7721 300.1169 L294.9881 299.8112 L295.2416 299.5717 L295.5406 299.3926 L296.0219 299.2179 L296.7968 299.0017 L297.7611 298.8448 L298.2822 298.8389 L298.4921 299.0254 L298.7174 299.3629 L298.8853 299.5385 L299.0093 299.5004 L299.1603 299.35 L299.4788 298.7078 L299.6987 298.3698 L300.8383 297.3016 L301.2949 296.9572 L301.5362 296.8097 L301.9362 296.6138 L303.2758 296.171 L303.503 296.0755 L303.6254 295.8785 L303.9071 295.6742 L304.0388 295.6529 L304.1407 295.7271 L304.7916 297.2506 L305.2335 298.595 L305.3572 299.6385 L305.1483 302.5236 L305.0726 304.9796 L304.9723 306.3081 L304.7849 306.5164 L304.4535 306.552 L303.9628 306.4922 L303.8321 306.4051 L303.701 306.179 L303.4815 305.0163 L303.3469 304.8797 L302.863 304.9133 L301.6708 305.044 L299.5311 305.234 L297.5409 305.656 L297.0253 305.7446 L296.6151 305.8148 L296.1738 305.7282 L295.8133 305.5867 L295.6979 305.5412 L295.4819 305.2335 L295.2695 304.5853 L295.3364 304.1934 L295.4454 303.9777 L295.8418 303.5393 L295.8351 303.2746 L295.7345 302.5909 L295.3185 301.6859 L294.6939 300.8819 L294.5923 300.6721 M306.0837 330.8774 L306.0888 330.772 L306.185 330.354 L306.3298 329.5475 L306.4593 328.6466 L306.5423 328.1935 L306.6852 327.3792 L306.7458 326.9675 L306.798 326.877 L306.8599 326.8448 L306.9961 326.8597 L307.1368 326.9487 L307.4371 327.1308 L307.9992 327.3792 L308.4183 327.6404 L308.4994 327.724 L308.5106 327.814 L308.5036 328.0015 L308.5151 328.1638 L308.5395 328.3612 L308.5808 328.5259 L308.6529 328.6481 L308.9007 328.7738 L309.0029 328.8638 L309.034 328.9371 L309.0372 329.0033 L309.0211 329.0879 L308.884 329.2517 L307.9863 330.2308 L307.596 330.7507 L307.5713 330.773 L307.5483 330.8126 L307.2429 331.196 L307.1073 331.2776 L306.9576 331.3167 L306.7827 331.2929 L306.5154 331.2024 L306.2145 331.0421 L306.1013 330.9412 L306.0837 330.8774 M325.6632 94.2119 L325.666 93.9043 L329.1303 93.9722 L329.3579 94.0187 L329.4373 94.1604 L329.3867 94.3223 L329.0964 94.6065 L328.3705 95.0488 L327.4847 95.2236 L327.0537 95.2652 L326.7903 95.175 L326.4727 94.9572 L326.1596 94.4956 L325.9647 94.4659 L325.8122 94.4679 L325.7096 94.3703 L325.6632 94.2119 M325.9497 83.0278 L326.2548 82.7871 L327.2623 82.4924 L327.8654 82.4592 L329.4643 82.5657 L330.103 82.7708 L330.5561 82.9758 L330.7852 83.2338 L330.8887 83.3903 L330.9134 83.521 L330.8426 83.6072 L330.6151 83.6805 L329.8645 84.2901 L329.5537 84.5972 L329.2685 84.8388 L328.9348 84.9726 L328.5208 85.0146 L327.9802 84.9597 L327.4908 84.7334 L327.0005 84.402 L326.5057 84.0554 L326.1487 83.7449 L325.9788 83.4819 L325.9497 83.0278 M342.7497 63.8684 L342.7622 63.7926 L342.8538 63.7842 L343.0038 63.7699 L343.7515 63.7882 L344.9385 63.8417 L344.9737 63.8605 L344.9478 64.1027 L344.9641 64.5593 L345.0208 64.8619 L345.0926 65.1046 L345.1865 65.2289 L345.3121 65.2988 L345.7611 65.3904 L346.0713 65.4384 L346.2031 65.4414 L346.33 65.4211 L346.8011 65.5499 L347.5891 65.9713 L348.198 66.3978 L348.339 66.5637 L348.4226 66.5746 L348.6104 66.5196 L348.7053 66.5533 L348.7848 66.639 L348.944 66.9168 L349.4401 68.7726 L347.3862 67.9078 L347.1228 66.8841 L346.2482 66.4354 L345.6067 65.6534 L344.7001 65.6608 L344.378 65.795 L344.2652 65.7559 L344.2216 65.64 L344.2533 65.4295 L344.335 65.2279 L344.5251 65.0328 L344.5956 64.9144 L344.5751 64.8362 L344.5158 64.7718 L344.2075 64.6906 L343.6595 64.6891 L343.1938 64.7381 L343.1438 64.7401 L343.0727 64.7025 L343.0605 64.6797 L343.0291 64.6356 L342.7497 63.8684 M350.7823 70.5129 L350.8012 70.3515 L350.88 70.2242 L350.9447 70.1192 L351.1335 70.0072 L351.2485 69.9389 L351.8113 69.9424 L352.0981 70.0766 L352.5878 70.4614 L352.9836 71.4935 L353.4108 71.9383 L354.1879 73.0635 L354.5971 73.9257 L354.7939 74.8939 L354.9923 75.9444 L355.1868 76.5084 L355.5291 77.3305 L355.5816 77.4103 L355.6803 77.5603 L355.7483 77.8426 L355.7502 77.9491 L355.754 78.166 L355.697 78.6509 L355.0958 79.5136 L354.884 79.679 L354.6353 79.8365 L354.1321 79.8142 L353.9953 79.7736 L353.2778 78.8658 L352.5692 77.4019 L352.5519 77.3563 L351.967 75.8072 L351.6818 75.0514 L351.2517 73.1457 L350.7823 70.5129 M354.0312 25.5035 L354.1103 25.2692 L354.2472 25.1117 L354.4568 25.0463 L354.7522 25.0929 L355.4868 25.4342 L355.6198 25.2276 L355.6005 24.969 L355.49 24.6169 L355.3233 24.3375 L355.2826 24.1681 L355.2813 23.965 L355.4246 23.7931 L355.6665 23.5642 L355.9088 23.2814 L356.91 22.0133 L358.3409 19.9228 L358.5319 19.7113 L358.7382 19.5691 L358.8885 19.6098 L358.9552 19.7415 L358.9248 19.8594 L358.8344 19.9689 L358.5722 20.4083 L358.156 21.1751 L358.3155 21.9974 L358.3671 22.9861 L358.4005 24.1131 L358.3838 24.8739 L358.0935 25.557 L358.2213 25.6809 L358.3707 25.7695 L358.9177 26.0098 L358.8168 26.2203 L358.1553 26.3323 L357.0811 25.9469 L356.9052 25.9167 L356.8587 26.0464 L356.934 26.2911 L357.0532 26.5829 L357.0202 26.7959 L356.8084 27.2407 L356.6055 27.7504 L356.578 27.8198 L355.9989 28.5811 L355.5598 28.6208 L355.1855 28.5871 L354.9641 28.0541 L354.0722 25.7581 L354.0312 25.5035 M359.4599 24.4331 L359.5635 24.1547 L359.7317 23.8882 L359.9432 23.6915 L360.1909 23.4983 L360.4435 23.3354 L360.7261 23.3032 L360.9879 23.3641 L361.7119 23.752 L361.8872 23.8907 L362.017 24.0546 L362.0102 24.4573 L361.8574 24.5995 L361.8369 24.7788 L361.9843 24.9398 L362.2977 24.9294 L362.565 25.0533 L362.9399 25.1454 L363.0755 25.3445 L363.1556 25.5347 L363.2046 25.8379 L363.1338 26.1247 L362.8454 26.5685 L362.7473 26.6146 L362.5945 26.6859 L362.3028 26.7469 L362.0808 26.7375 L361.859 26.7285 L360.1323 26.5393 L359.9679 26.4125 L359.874 26.2203 L359.9054 26.0801 L360.0166 25.8498 L360.0301 25.6536 L360.0044 25.4956 L359.9365 25.24 L359.6102 24.9185 L359.4638 24.6535 L359.4599 24.4331 M362.8435 117.0677 L362.8457 116.9409 L362.9704 116.7454 L363.3242 116.1908 L363.5142 115.8258 L363.5908 115.5936 L363.6289 115.4114 L363.7581 115.2371 L363.8513 115.1727 L363.9382 115.1539 L364.2619 115.2098 L364.4586 115.2861 L364.5564 115.4733 L364.3897 115.9739 L364.3766 116.1155 L364.457 116.2244 L364.6945 116.3304 L365.048 116.5433 L365.5697 116.9053 L365.6787 117.0231 L365.7005 117.186 L365.2053 118.1868 L365.0656 118.2407 L364.6734 118.1239 L362.9726 117.2271 L362.8621 117.0905 L362.8435 117.0677 M385.892 258.7942 L385.9894 258.5483 L386.2932 258.1845 L386.4406 258.0321 L386.458 257.9455 L386.4435 257.8856 L386.2109 257.6486 L386.1541 257.5961 L386.1442 257.562 L386.3631 256.7296 L386.3791 256.7182 L386.715 256.6103 L388.1763 256.9092 L388.3609 256.9548 L388.4686 256.9686 L388.6057 256.9681 L388.6916 256.9543 L389.014 256.8182 L389.2198 256.6959 L389.7642 256.2095 L389.8146 256.1654 L389.8222 256.1333 L389.8277 256.1105 L389.82 255.8457 L389.837 255.7324 L389.9331 255.6681 L390.0799 255.6755 L390.2001 255.6824 L390.2808 255.6607 L390.3353 255.6161 L390.4773 255.5934 L390.907 255.8205 L391.2256 255.9556 L391.233 255.9799 L391.2298 255.9853 L390.5923 256.5267 L390.5872 256.55 L390.7298 256.6375 L390.7308 256.6727 L390.193 257.5303 L390.1642 257.5659 L389.1659 258.3082 L388.4333 258.7234 L388.3872 258.7353 L388.1199 258.7789 L387.9805 258.7883 L387.802 258.6695 L387.7494 258.6779 L386.9659 259.003 L386.8585 259.0342 L386.4913 259.1253 L386.3602 259.148 L386.2179 259.1446 L385.9494 258.9842 L385.9148 258.906 L385.892 258.7942 M414.6949 310.1723 L414.7388 309.9986 L414.8119 309.959 L415.0487 309.8309 L415.6819 309.958 L416.2187 310.0654 L416.6735 310.1268 L418.8642 310.1144 L421.4062 310.0496 L422.5589 309.9298 L422.9797 309.8042 L423.0095 309.7789 L423.0201 309.77 L423.1101 309.6929 L423.1752 309.538 L423.1191 309.3579 L422.9214 309.0788 L422.7406 308.5989 L422.7009 308.2674 L422.7349 308.066 L422.8323 307.931 L423.0713 307.8335 L423.4287 307.8206 L423.9059 307.6307 L423.9536 307.4248 L423.8062 307.318 L423.5357 307.312 L423.2117 307.365 L423.229 307.0824 L423.3181 306.7707 L423.387 306.602 L423.4149 306.5342 L423.5639 306.4833 L423.678 306.4887 L424.4901 306.4862 L424.9272 306.4382 L425.1419 306.3492 L425.2589 306.0419 L425.3021 305.8539 L425.3646 305.5833 L425.5191 305.4546 L425.9537 305.3344 L426.2229 305.3314 L426.4097 305.4215 L426.4469 305.4393 L426.6558 305.6491 L426.8545 305.9969 L427.2871 307.5609 L428.1761 309.4267 L428.4046 309.8403 L428.6802 310.4756 L428.7542 310.6448 L428.8828 311.1915 L429.183 311.661 L429.3333 312.0311 L429.3349 312.4611 L429.2753 312.7871 L429.1388 313.1463 L429.2343 313.4867 L429.3776 313.7069 L429.4086 313.7949 L429.4202 313.8271 L429.5102 313.8612 L432.3361 313.8588 L432.4493 313.9488 L432.3483 314.4653 L432.2977 314.9329 L432.1951 315.4405 L431.9878 316.2178 L431.832 316.3103 L431.6141 316.4087 L431.3811 316.4691 L430.1066 316.477 L428.5914 316.2761 L427.9883 316.2435 L427.6198 316.2984 L427.2099 316.4864 L426.6564 317.0672 L426.6007 317.2092 L426.4619 317.563 L426.468 318.0756 L426.8792 319.0091 L427.1849 319.6419 L427.3849 319.9185 L427.9454 320.247 L428.4988 320.2519 L428.8517 320.1545 L429.1359 320.203 L429.6458 320.3143 L430.0941 320.2237 L430.7303 320.1565 L431.1456 320.2247 L431.7349 320.1743 L432.1432 320.2252 L432.4307 320.197 L432.7636 320.1159 L433.1831 319.9036 L433.3879 319.8349 L433.4398 319.8898 L433.7289 320.1669 L433.9792 320.5498 L434.3259 321.3364 L434.7265 321.425 L434.8704 321.6763 L435.1854 322.1255 L435.5431 322.5951 L435.7431 322.7207 L435.9985 322.7702 L436.3119 322.9003 L436.4096 323.0883 L436.4484 323.3307 L436.576 323.4232 L436.9557 323.4069 L437.397 323.494 L437.7937 323.724 L438.0011 323.8942 L438.1206 324.0783 L438.1527 324.2767 L437.853 324.8253 L437.8377 325.1207 L438.0283 325.608 L438.5533 326.1898 L438.6411 326.4278 L438.6837 326.6375 L438.6972 326.8607 L438.6792 327.111 L438.5209 327.5513 L438.3565 327.8437 L438.203 328.2019 L438.1786 328.4403 L438.2376 328.5571 L438.4074 328.5789 L438.6863 328.5789 L439.5749 328.4621 L440.3508 328.2944 L440.7052 328.2598 L440.8869 328.4117 L440.9994 328.9657 L441.1266 329.7563 L441.2484 330.1511 L441.4529 330.6948 L441.7307 331.5284 L441.7512 331.9351 L441.715 332.2972 L441.616 332.4075 L441.3247 332.5223 L440.5668 332.6989 L439.5852 332.9933 L438.5481 333.0259 L435.4402 333.2001 L434.822 333.1556 L434.4314 333.0749 L434.0128 332.8182 L433.4376 332.5129 L432.8364 332.271 L431.6263 331.8787 L429.5035 331.5438 L428.452 331.5779 L427.6323 331.7238 L426.3212 331.8233 L423.5059 332.1122 L422.857 332.1775 L422.6672 332.0865 L422.0792 331.1752 L421.7379 330.7324 L421.5828 330.3277 L421.4603 329.1483 L421.2331 328.5744 L420.8954 328.1539 L420.4704 327.7477 L419.534 325.9662 L419.0104 325.0866 L418.5229 324.012 L418.3601 323.4416 L418.0422 322.5896 L418.0445 322.1805 L417.8105 321.2889 L417.7128 320.5429 L417.708 320.0664 L417.4128 317.8138 L417.2359 316.6002 L417.3574 316.3771 L417.5843 316.2499 L418.198 316.1505 L418.4681 316.152 L418.6524 316.2499 L418.8177 316.2999 L419.0584 316.288 L419.2985 316.1589 L419.2981 315.9066 L419.1558 315.6369 L419.2392 315.2124 L419.3936 314.9156 L419.4827 314.6301 L419.4609 314.4337 L419.3427 314.1734 L419.1693 313.9899 L418.553 313.5668 L418.0755 313.5045 L417.8195 313.5594 L417.5814 313.643 L417.3718 313.7944 L417.0215 313.8781 L416.7584 314.0017 L416.6533 313.8251 L416.4934 313.3328 L416.4645 313.0716 L415.9441 312.1825 L415.4695 311.5517 L414.6949 310.1723 M431.0754 300.0313 L431.234 299.7627 L431.4792 299.4801 L431.5154 299.304 L431.2411 298.8775 L431.1321 298.6474 L431.1635 298.3941 L431.269 298.2689 L431.4616 298.1254 L431.6923 297.9121 L431.9179 297.7494 L432.189 297.6469 L432.5044 297.596 L432.9838 297.784 L433.0889 297.9067 L433.1956 298.1511 L433.3376 298.8082 L433.4007 299.0056 L433.4408 299.0304 L433.735 299.1274 L434.0016 299.1382 L434.0667 299.1501 L434.5048 299.3317 L434.9118 299.5722 L435.1223 299.7904 L435.3059 300.2065 L435.3277 300.5365 L435.3034 300.8606 L435.2665 300.9655 L434.9066 301.4385 L434.5608 301.7087 L434.1978 301.9714 L433.0194 302.2757 L431.9875 302.6369 L431.691 302.6522 L431.3488 302.5325 L431.2334 302.4023 L431.2126 302.3212 L431.209 302.3073 L431.1914 301.9531 L431.2116 301.5137 L431.3029 300.6562 L431.2818 300.5246 L431.0818 300.2728 L431.0754 300.0313 M453.5247 303.0668 L453.558 302.9669 L453.6029 302.91 L453.8929 302.7868 L454.0945 302.7541 L454.1422 302.7606 L454.5729 302.8793 L455.0953 303.1376 L455.9173 303.7793 L456.4429 304.1405 L456.9335 304.7328 L457.4411 305.1236 L457.7148 305.3992 L457.9699 305.5338 L458.166 305.6911 L458.1744 305.7441 L458.1574 305.7891 L458.1205 305.8861 L458.0161 306.0444 L457.9481 306.0949 L457.3261 306.3329 L456.756 306.4165 L456.1474 306.369 L455.6558 306.2864 L455.3578 306.222 L455.2863 306.1978 L455.054 306.037 L454.7841 305.7292 L454.5415 305.2434 L454.1925 304.6199 L453.949 304.0653 L453.8378 303.7477 L453.5811 303.2786 L453.5538 303.2083 L453.5388 303.1356 L453.5247 303.0668 M455.3997 196.3189 L455.4231 195.9046 L455.6039 195.6591 L456.3692 195.2487 L456.9191 195.1121 L457.377 194.9171 L457.9824 194.5438 L458.9329 194.0993 L459.6232 193.8186 L460.4103 193.6236 L461.1781 193.5627 L461.9268 193.6469 L463.7252 194.1379 L464.6831 194.4206 L465.0344 194.481 L465.0738 194.6305 L465.0536 194.7547 L464.7754 194.7705 L464.354 194.6943 L463.8896 194.6572 L463.5474 194.6537 L462.7795 194.575 L462.0299 194.5834 L461.6245 194.6626 L461.4759 194.8265 L461.4124 194.9631 L461.3291 195.2561 L461.4925 197.5015 L461.4544 198.0489 L460.9804 198.8681 L460.5253 199.4557 L458.6554 201.3585 L457.004 202.5494 L456.7198 202.6761 L456.4845 202.6578 L456.3096 202.5652 L456.0692 202.2668 L455.9891 201.5475 L455.8686 199.8413 L455.4013 196.7199 L455.3997 196.3189 M441.1558 119.2063 L442.7742 122.1228 L444.0089 129.6222 L447.7392 130.0981 L448.5705 129.8916 L448.9294 129.8842 L448.3984 129.7133 L450.6706 123.6033 L448.5074 123.2022 L447.8024 119.642 L447.671 119.595 L446.0782 119.0231 L442.8992 119.5381 L441.1558 119.2063" stroke-dasharray="" fill="none" fill-opacity="1.0" stroke="#ff0000" stroke-opacity="1.0" stroke-width="1.0px" stroke-linecap="butt" stroke-linejoin="miter" stroke-dashoffset="0.0px"/>
</g>
</svg>