<?xml version="1.0" standalone="no"?>
<!DOCTYPE svg PUBLIC "-//W3C//DTD SVG 1.1//EN" "http://www.w3.org/Graphics/SVG/1.1/DTD/svg11.dtd">
<svg width="512px" height="512px" version="1.1" xmlns="http://www.w3.org/2000/svg" xmlns:inkscape="http://www.inkscape.org/namespaces/inkscape">
<g id="layer" inkscape:groupmode="layer" inkscape:label="layer">
<path d="M147.0686 495.917 L149.8308 497.2279 L154.2231 479.7402 L155.8985 479.8339 L166.6603 475.4561 L166.3584 476.2286 L169.7696 477.563 L165.5735 490.2048 L160.5171 503.3147 L173.9958 508.465 L184.2294 482.0579 L188.1537 483.5796 L188.516 482.807 L193.5875 494.0675 L194.9006 495.121 L186.267 511.1104 L189.1348 512.0 L191.1272 506.8029 L194.0403 501.4418 L197.6779 496.549 L201.9796 492.2181 L206.8699 488.5426 L212.4697 485.4992 L211.232 482.7602 L196.6364 493.2247 L195.8817 492.5926 L189.814 479.6232 L226.9295 383.7329 L230.9444 396.6557 L232.2425 397.7326 L223.8957 413.6519 L226.7484 414.5181 L228.6502 409.3677 L231.5029 403.9599 L235.1103 399.0202 L239.3667 394.6658 L244.2118 390.9435 L249.7512 387.8532 L248.4833 385.0908 L233.9632 395.6959 L233.1934 395.0638 L228.2728 380.2916 L264.9959 285.3837 L269.2523 297.7447 L270.5202 298.8451 L261.8715 314.7177 L264.7393 315.6073 L266.7618 310.3398 L269.7504 305.0022 L273.4182 300.1327 L277.7651 295.8485 L282.6555 292.2198 L288.21 289.2466 L287.0327 286.4841 L272.2559 296.9254 L271.5012 296.2933 L266.309 281.8253 L302.7302 186.8464 L306.9413 200.0971 L308.2394 201.174 L299.7869 217.0702 L302.5792 217.9364 L304.7225 212.3178 L307.6809 206.98 L311.3638 202.1105 L315.6957 197.8262 L320.586 194.1741 L325.7934 191.3413 L324.616 188.6725 L309.9449 199.2309 L309.1752 198.5988 L304.0886 183.4049 L339.6645 90.9303 L345.0077 101.8868 L346.3208 102.9637 L337.823 118.8366 L340.555 119.6794 L342.8191 113.85 L345.8076 108.5122 L349.5207 103.6661 L353.8979 99.4052 L358.8335 95.7998 L363.7842 93.1544 L362.5617 90.462 L348.0264 100.9738 L347.2566 100.3417 L340.8267 87.6058 L348.1472 67.1677 L351.5281 68.5021 L355.211 58.6225 L345.4907 54.8766 L364.9314 3.1372 L357.0977 0.0 L337.5815 52.0907 L327.7404 48.3917 L324.0425 58.2479 L327.5593 59.5355 L319.5295 79.3416 L306.896 84.6794 L305.9149 84.6092 L302.0811 67.0038 L299.2435 68.2212 L301.7189 75.6426 L302.6698 81.7062 L302.7603 87.8166 L301.9906 93.8567 L300.3453 99.7564 L298.8209 103.4554 L301.6434 104.7898 L305.93 87.2313 L307.6054 87.3483 L318.005 83.3684 L282.1574 176.7093 L268.7693 182.9601 L267.7731 182.9133 L263.9393 165.2847 L261.1922 166.4552 L263.1846 172.1441 L264.377 178.1374 L264.7091 184.2243 L264.1808 190.3113 L262.7771 196.2811 L260.6338 201.7827 L263.3054 203.0704 L267.758 185.4885 L269.4032 185.5354 L280.8141 180.0806 L244.8608 273.8187 L230.9897 278.1497 L229.9784 278.1497 L225.3447 260.7553 L222.5674 262.1366 L225.1333 268.3405 L226.522 274.2869 L227.0804 280.3972 L226.7635 286.5075 L225.5862 292.5007 L223.8957 297.3702 L226.7635 298.5173 L230.0841 280.8186 L231.7444 280.7952 L243.6533 277.0026 L206.4624 373.0576 L193.195 379.4488 L192.2139 379.3785 L188.6669 361.7034 L185.784 362.9207 L187.8066 369.148 L188.833 375.1646 L188.999 381.2748 L188.2896 387.3382 L186.7198 393.2377 L184.7727 398.0369 L187.5047 399.3479 L192.1687 381.9771 L193.829 382.0708 L205.1644 376.4288 L167.9282 472.2723 L155.2796 477.2119 L154.2985 477.1651 L150.5704 459.5135 L147.778 460.7074 L149.7704 466.4664 L150.9024 472.4595 L151.1741 478.5697 L150.5855 484.6565 L149.1365 490.6028 L147.0686 495.917" stroke-dasharray="" fill="none" fill-opacity="1.0" stroke="#ff0000" stroke-opacity="1.0" stroke-width="1.0px" stroke-linecap="butt" stroke-linejoin="miter" stroke-dashoffset="0.0px"/>
</g>
</svg>