<?xml version="1.0" standalone="no"?>
<!DOCTYPE svg PUBLIC "-//W3C//DTD SVG 1.1//EN" "http://www.w3.org/Graphics/SVG/1.1/DTD/svg11.dtd">
<svg width="512px" height="512px" version="1.1" xmlns="http://www.w3.org/2000/svg" xmlns:inkscape="http://www.inkscape.org/namespaces/inkscape">
<g id="layer" inkscape:groupmode="layer" inkscape:label="layer">
<path d="M89.7871 77.3223 L92.1222 86.8924 L97.5706 95.2663 L106.7693 102.2264 L118.2322 105.1627 L131.0396 103.2052 L120.2842 110.3827 L113.2791 122.0191 L111.7224 133.003 L113.8452 142.6819 L118.9398 151.2732 L127.6432 158.3421 L140.3798 161.9309 L153.1872 159.8646 L142.361 167.0422 L135.4267 178.6786 L133.87 189.7712 L135.9927 199.45 L141.0874 207.9326 L149.72 215.0014 L162.4566 218.699 L175.4055 216.6327 L164.5086 223.8103 L157.5035 235.4467 L155.9468 246.4305 L158.0695 256.1094 L163.1642 264.7007 L171.8675 271.7695 L184.6042 275.4671 L197.4823 273.292 L201.2325 282.9709 L190.4064 290.2572 L183.4013 301.7848 L181.8446 312.8774 L183.9673 322.5562 L189.062 331.0388 L197.6946 338.2164 L210.502 341.9139 L223.3801 339.7389 L212.4832 346.9164 L205.4781 358.5528 L203.9214 369.6454 L206.0441 379.3242 L211.1388 387.8067 L219.8422 394.8755 L232.6495 398.5731 L245.4569 396.5068 L234.6308 403.6844 L227.6256 415.2119 L226.0689 426.3045 L228.1917 435.9833 L233.1448 444.5746 L241.8482 451.6434 L254.7971 455.3409 L267.6045 453.2747 L256.8491 460.4522 L249.844 471.9798 L248.358 483.0723 L250.3393 492.7512 L255.5047 501.2337 L264.1373 508.4112 L276.8739 512.0 L289.6813 510.0425 L300.5074 502.865 L307.1588 491.5549 L308.857 480.3536 L306.9465 470.566 L312.0411 479.0486 L320.6737 486.1174 L335.6039 489.9236 L346.2885 487.8574 L355.6994 481.9848 L364.049 469.261 L365.6057 458.0597 L363.6244 448.3809 L368.7191 456.8634 L377.3517 463.9322 L392.0696 467.6298 L402.8249 465.5635 L413.6511 458.386 L420.5147 447.0759 L422.2129 435.8746 L420.1609 426.1958 L415.137 417.7132 L406.5752 410.5356 L393.5555 406.8381 L380.7481 408.7956 L391.5035 401.6181 L398.4379 390.308 L400.0653 379.2154 L398.0841 369.5366 L393.0602 360.9453 L384.4983 353.8765 L371.4079 350.0702 L358.6006 352.1365 L369.4267 344.9589 L376.4318 333.5401 L377.9885 322.3387 L375.9365 312.6599 L370.9126 304.1773 L362.28 296.9997 L349.3311 293.3022 L336.5237 295.3685 L347.2791 288.1909 L354.2843 276.7721 L355.841 265.6795 L353.8597 255.8919 L348.8358 247.4093 L340.1325 240.3405 L327.1836 236.5342 L314.3762 238.7092 L310.6259 229.0303 L321.3813 221.8528 L328.3865 210.3251 L329.9432 199.2325 L327.9619 189.5537 L322.938 180.9623 L314.3054 173.8935 L301.3565 170.0872 L288.5491 172.2622 L299.3045 165.0846 L306.3097 153.6658 L307.8663 142.4644 L305.8143 132.7855 L300.8612 124.3029 L292.1578 117.2341 L279.209 113.4278 L266.4016 115.4941 L277.2277 108.3165 L284.0913 96.8976 L285.648 85.8049 L283.6668 76.1261 L278.6429 67.5347 L269.9395 60.4658 L257.1321 56.7683 L244.3248 58.8346 L255.0801 51.657 L261.59 41.5431 L263.7127 30.2329 L261.5192 19.3578 L257.3444 11.7452 L249.2071 4.3501 L246.6598 2.61 L234.9846 0.0 L222.1772 1.9575 L212.9078 7.7214 L203.9921 22.0766 L203.0015 32.9517 L204.9828 41.5431 L200.6665 33.9305 L192.4584 26.6441 L176.2546 22.0766 L165.4992 24.2516 L156.2298 30.0154 L147.3849 44.2619 L146.3235 55.137 L148.3048 63.7284 L143.9885 56.1158 L135.7805 48.8294 L121.7702 44.3706 L108.9628 46.4369 L98.1367 53.6145 L93.6789 59.2696 L90.8485 66.4472 L89.7871 77.3223" stroke-dasharray="" fill="none" fill-opacity="1.0" stroke="#ff0000" stroke-opacity="1.0" stroke-width="1.0px" stroke-linecap="butt" stroke-linejoin="miter" stroke-dashoffset="0.0px"/>
</g>
</svg>