<?xml version="1.0" standalone="no"?>
<!DOCTYPE svg PUBLIC "-//W3C//DTD SVG 1.1//EN" "http://www.w3.org/Graphics/SVG/1.1/DTD/svg11.dtd">
<svg width="512px" height="512px" version="1.1" xmlns="http://www.w3.org/2000/svg" xmlns:inkscape="http://www.inkscape.org/namespaces/inkscape">
<g id="layer" inkscape:groupmode="layer" inkscape:label="layer">
<path d="M0.0 13.4307 L0.0366 14.0895 L0.2637 15.2093 L0.5272 15.9341 L1.53 17.9469 L2.1192 18.7156 L2.4633 19.0525 L2.9975 19.455 L3.627 19.5939 L5.2302 19.6819 L5.6693 19.7989 L5.9915 19.9895 L7.1113 21.3803 L7.5945 20.7431 L8.7584 21.2263 L8.8388 20.9994 L10.4327 21.311 L11.9982 22.6716 L10.8335 24.5496 L12.1214 26.9652 L14.771 30.2713 L17.0016 28.914 L17.2851 28.5079 L17.3177 28.0928 L18.4549 27.7384 L19.3493 28.0692 L20.068 29.2138 L20.6497 31.8706 L20.5597 33.3688 L18.6529 34.1411 L19.8692 35.3643 L21.1938 36.379 L23.5639 38.6222 L23.924 39.4776 L23.9957 40.5518 L23.8826 50.9156 L22.9902 63.7756 L22.5618 65.5518 L16.4961 72.9796 L10.577 99.4619 L12.1169 98.5677 L15.8596 108.4815 L16.9738 108.9579 L16.9912 110.2707 L15.2648 111.5207 L15.0794 113.5225 L21.9556 122.7621 L22.8435 125.3984 L22.359 129.6764 L21.9556 133.4429 L23.0049 138.7162 L23.0946 139.2597 L23.6285 140.2474 L24.6025 141.0837 L27.2283 143.1958 L28.7716 144.5381 L30.4136 147.1962 L33.9279 151.4684 L35.8547 152.2827 L36.2956 153.7824 L42.8332 159.7281 L43.0646 160.0305 L43.5245 160.3965 L43.9028 161.0487 L44.232 161.3153 L44.5839 162.2036 L51.2138 173.0123 L51.5478 175.8914 L51.3415 177.1675 L53.3731 177.3019 L53.3338 178.998 L53.3375 179.4198 L55.1994 179.0888 L55.317 178.4734 L55.5724 176.8435 L55.7974 176.5826 L56.0494 176.5073 L56.9367 176.7645 L61.2654 176.3941 L61.0944 185.5983 L59.2221 187.2061 L60.4326 187.8679 L61.3592 190.0622 L60.5103 191.2194 L57.3723 189.448 L55.6087 190.7872 L56.0066 192.1617 L54.1039 192.362 L54.5592 193.6762 L54.0587 194.7337 L53.7461 195.5754 L53.7204 195.6715 L53.1523 196.1188 L52.9731 195.9694 L53.2413 196.6971 L54.3956 200.8772 L57.286 200.8723 L57.9027 202.6944 L56.6271 206.1633 L62.7332 207.0375 L63.9372 206.751 L64.4211 205.7531 L65.8581 205.7046 L66.5603 205.3603 L67.0638 204.7681 L68.0799 204.1853 L68.3437 202.8267 L68.768 202.2931 L69.2265 201.6765 L69.6984 201.3289 L72.0647 200.9744 L72.208 199.0538 L68.8433 196.3105 L68.7258 194.6091 L72.8674 197.5486 L75.0173 197.1473 L75.4761 198.1791 L77.5702 196.6402 L78.452 197.0227 L78.7699 193.2456 L80.2631 194.0584 L80.5124 194.0967 L80.759 194.0352 L80.8522 194.3389 L80.8472 194.3767 L82.8662 195.4761 L82.2436 197.153 L82.9359 198.2401 L83.6277 199.3224 L84.7502 200.8312 L83.4601 202.852 L83.4457 204.4718 L85.2087 207.3672 L86.3986 207.6537 L89.3084 212.757 L91.5444 213.6027 L93.5941 210.4347 L102.1288 211.5853 L105.1055 215.5045 L109.7174 217.6086 L116.1303 216.9493 L118.0675 219.3952 L119.3234 218.5772 L121.469 218.1784 L122.2065 216.522 L130.3562 210.6533 L132.7343 209.4038 L142.3723 211.8946 L148.3924 217.5638 L150.4659 218.1377 L150.7385 216.5912 L148.4405 209.4933 L148.8306 207.1735 L149.5628 210.6207 L151.1206 212.4277 L151.353 215.1179 L152.3043 217.983 L154.8961 217.3685 L161.619 223.2166 L161.619 225.0317 L161.0231 225.0032 L161.5789 226.3665 L156.9429 226.6595 L151.2307 228.6507 L144.8162 232.5648 L143.6496 240.6136 L143.9355 243.9219 L142.3135 251.1975 L148.9145 258.1946 L145.109 262.3469 L148.8058 267.05 L147.4858 268.6726 L145.7511 270.8051 L143.9753 272.9883 L142.9869 278.1819 L147.043 278.9467 L145.5066 287.7061 L148.0798 296.5749 L147.3664 299.1093 L152.8681 302.2946 L155.3822 300.1146 L160.1697 302.352 L166.752 298.2009 L164.8786 308.1729 L156.5835 303.9027 L152.6613 315.4035 L158.2121 320.4536 L160.8815 322.882 L160.7239 325.3388 L155.7143 326.863 L153.8247 330.0043 L154.4387 331.8046 L156.0745 333.4251 L156.0745 335.0276 L156.625 334.3077 L167.2436 325.6317 L173.2824 323.2847 L172.251 319.2943 L173.765 319.1943 L173.9715 318.6476 L174.1995 318.4629 L175.2226 318.4023 L175.8069 318.4206 L176.1586 318.4991 L176.2668 318.6146 L176.3975 318.7915 L176.7192 318.9339 L176.9586 318.9823 L177.2074 318.9661 L177.3466 318.9486 L177.3348 319.1206 L177.4895 319.4159 L177.4492 319.7625 L177.2643 320.166 L177.1836 321.3607 L175.0593 324.8263 L174.2684 325.3307 L174.6451 326.1117 L175.7621 331.5256 L171.3532 330.1019 L170.613 327.7468 L169.6752 327.9136 L167.6776 330.1975 L167.5616 332.6685 L164.5697 338.2986 L169.5151 339.0413 L167.7032 342.2109 L169.6565 341.7631 L169.6605 341.7891 L169.7764 341.7257 L169.7855 342.5888 L170.0786 344.4638 L170.1601 347.9005 L170.4511 349.9841 L170.2098 349.9914 L170.2205 350.4417 L170.4973 351.6085 L170.8391 351.8375 L170.795 352.587 L170.7589 352.7111 L170.7814 352.8054 L171.1231 352.8132 L171.1624 352.692 L171.2621 352.6769 L171.5328 352.8221 L175.0823 353.8596 L175.5266 352.9425 L175.5983 352.6127 L175.8462 352.5386 L175.8842 352.5329 L176.5874 351.9103 L176.2291 349.6742 L175.6557 348.585 L175.5665 345.8901 L175.42 342.9874 L175.7081 342.9422 L175.8027 342.7328 L178.4362 342.518 L178.5933 342.4936 L178.9284 342.202 L179.209 339.8637 L180.8496 342.1414 L181.8436 342.6864 L182.6773 340.6975 L183.1369 339.823 L185.1329 340.7138 L189.2131 344.1669 L188.4836 346.2086 L185.4669 345.5375 L184.5715 352.5842 L185.7755 353.5875 L186.7788 354.3184 L187.7087 355.5222 L188.4847 356.153 L188.3182 362.9927 L188.0275 365.7732 L187.1791 368.319 L187.0292 369.417 L186.9792 371.5134 L186.9792 372.4617 L186.7796 373.6097 L186.3305 374.4084 L185.9313 375.0574 L185.2323 375.4568 L184.3839 375.5564 L183.1361 375.5564 L180.1912 375.6564 L179.6421 374.7077 L178.7935 373.36 L177.9948 373.2604 L176.2331 373.9529 L174.8504 374.7577 L174.2513 375.5564 L174.0017 376.1554 L173.4529 376.9541 L173.1533 377.7027 L172.8038 378.4014 L172.205 379.3001 L171.8056 379.799 L171.3064 380.2984 L169.6084 380.6436 L168.9812 381.1015 L168.0955 382.258 L167.5485 382.3048 L166.4447 381.9112 L165.9715 382.2035 L165.5749 382.1885 L164.4631 381.4899 L163.9832 381.2402 L163.6361 381.2674 L164.4612 381.8111 L165.0451 382.3479 L165.165 382.5854 L164.8703 383.5345 L164.4011 383.7264 L163.5501 383.97 L162.4834 384.0794 L162.3736 385.1192 L162.1999 386.0967 L161.0731 386.2777 L160.9341 391.6111 L163.0245 396.0985 L163.7165 397.5786 L166.0596 403.0329 L170.0383 401.3459 L180.7091 424.6508 L182.3168 428.6115 L184.1795 427.4931 L184.1653 427.4195 L182.7951 426.8731 L183.1246 426.1108 L183.5037 426.1344 L183.6611 425.7307 L183.702 424.9098 L183.8327 424.7517 L183.7194 424.2874 L186.4849 422.5717 L187.1957 422.161 L186.4136 414.5211 L186.1327 412.9733 L185.8768 411.5636 L186.8537 410.8135 L190.2792 414.3264 L192.1176 416.3064 L192.7108 411.7852 L193.9805 413.7141 L196.9558 413.1733 L197.0149 418.3234 L197.5023 419.0638 L197.9725 416.1495 L198.8767 413.116 L200.717 412.2394 L199.5293 411.1522 L198.418 412.7862 L196.6264 411.7974 L196.2392 410.9375 L196.4225 408.3089 L194.1868 407.2123 L194.7303 405.174 L192.2175 402.1611 L191.3475 400.9889 L191.3173 399.8146 L191.5997 399.1652 L191.7598 396.6759 L191.3502 395.8025 L191.4095 395.4219 L191.7026 394.9925 L192.6875 392.2564 L195.6433 393.5665 L198.5011 390.7149 L198.8431 391.5484 L198.4583 392.4268 L199.984 393.3579 L201.5151 394.285 L204.2673 393.6263 L213.7771 401.0104 L214.6588 400.4615 L212.9781 402.5311 L215.1655 407.0627 L215.9313 407.3241 L216.1595 407.2786 L216.5357 407.4916 L216.5418 407.5327 L216.8611 407.6417 L216.8384 406.9472 L216.7633 406.9582 L216.4245 406.7398 L216.1667 406.5475 L215.6833 406.3885 L215.6876 406.1572 L216.3374 405.3688 L216.6097 405.1366 L216.7954 405.109 L216.7796 404.4324 L221.5596 405.2643 L221.8688 405.2017 L222.4962 405.3009 L222.9253 405.3525 L223.1295 405.4375 L223.2582 405.5339 L223.4961 405.8445 L223.5126 405.9571 L223.4528 407.1208 L223.3333 408.6354 L223.1425 408.6407 L223.1425 409.6059 L225.005 409.3701 L225.4432 410.7647 L229.3254 410.0719 L230.3971 409.5092 L230.6886 410.9627 L231.1105 413.8234 L230.5179 413.9113 L230.0182 414.4906 L229.1183 415.2631 L228.2079 417.2814 L227.7382 417.3395 L227.5599 417.6831 L226.8767 417.4465 L226.4965 417.4936 L226.8746 418.5967 L227.0074 418.7333 L228.272 423.5381 L228.0853 423.7906 L228.2154 424.4215 L228.664 424.522 L228.7493 425.6229 L228.4532 425.5762 L229.2129 429.2604 L232.6988 425.5262 L229.8226 417.1318 L230.5216 417.4595 L230.9125 417.4253 L231.6442 417.5432 L231.9183 418.4043 L232.1887 418.3641 L232.0957 417.135 L232.4527 416.6975 L232.7755 416.082 L233.7465 415.7246 L233.9899 416.0377 L234.1503 416.0222 L234.5687 416.4987 L234.8228 416.9224 L234.8567 417.1513 L235.1336 417.5835 L235.3043 417.8502 L235.4668 418.1718 L235.4569 418.6735 L235.9496 419.3683 L236.6075 419.6936 L236.4698 420.2494 L236.4156 420.4681 L236.1227 420.686 L235.3476 421.2633 L234.8589 422.1041 L234.8471 423.0665 L235.4205 424.0959 L235.6215 424.8541 L235.7284 425.664 L236.3296 426.0352 L237.1085 426.5133 L237.7925 426.9333 L238.426 427.0223 L238.8995 427.0886 L238.9738 428.4489 L239.2212 429.2661 L240.157 431.3151 L240.0766 433.364 L240.5912 434.2125 L241.1154 434.1548 L242.3753 434.891 L242.3823 434.0905 L242.7371 434.1105 L244.2778 435.3988 L245.3223 436.6168 L245.5435 437.2518 L245.2536 438.049 L246.3446 436.8383 L246.6121 436.1968 L247.6657 435.3081 L250.9752 433.562 L252.6177 433.9552 L252.6175 436.0635 L253.4701 439.0978 L252.6351 438.7913 L251.8396 439.1283 L251.9398 439.6442 L252.7353 439.8808 L252.8716 440.0886 L253.1415 440.289 L254.1595 441.1549 L252.288 442.6334 L251.9423 442.8968 L251.7117 443.5944 L251.1008 443.9855 L249.5983 454.5414 L246.921 458.5942 L245.7212 463.2932 L247.4206 463.472 L246.2556 468.6017 L250.5977 468.3091 L255.553 462.4326 L255.8544 461.9473 L255.9444 460.529 L256.5937 461.2363 L257.4327 458.8259 L258.6913 455.3137 L258.2557 450.7243 L259.907 451.3137 L261.2858 450.5698 L261.2618 450.3788 L262.4882 450.3056 L262.4588 450.0617 L264.5804 452.5495 L264.7798 452.5694 L264.7961 452.5072 L265.3142 452.3235 L265.6888 452.4511 L266.3063 452.6052 L266.8848 452.6751 L266.8664 452.7796 L267.207 452.8138 L267.4983 452.7528 L268.2491 450.6552 L270.7608 450.4723 L271.1269 449.4113 L273.8845 450.5373 L271.1082 453.2081 L273.2164 455.3219 L273.5879 453.0048 L274.6246 453.0048 L276.1797 454.2568 L275.6373 455.3584 L275.0976 456.4601 L275.9152 456.8259 L277.3928 461.842 L275.3754 465.3337 L277.0722 465.7117 L279.3568 466.5734 L283.6104 468.1432 L286.4831 469.2033 L287.095 471.3088 L290.7557 474.8207 L290.7049 471.9714 L289.1792 468.9025 L299.3623 466.2808 L301.3743 467.6791 L302.6107 467.6815 L302.616 467.6689 L302.9963 467.6823 L309.5908 467.6953 L309.6897 467.5278 L311.6713 467.5266 L311.6723 467.6994 L315.6617 467.7075 L323.3155 472.1205 L323.3871 472.0527 L324.1008 472.5234 L324.2018 472.6319 L329.5563 475.719 L320.0585 485.855 L333.1261 488.8353 L339.1074 491.1463 L339.376 487.6209 L339.6392 487.5079 L342.1351 486.8072 L343.4968 484.1568 L344.6768 481.5816 L345.2889 481.4613 L348.0422 481.528 L349.0381 483.1029 L355.1533 481.0707 L356.9254 473.1205 L355.095 468.8086 L355.2585 467.6384 L356.0385 465.9593 L357.389 466.0271 L357.4328 466.3409 L357.6153 467.6494 L358.1248 468.7131 L359.98 471.5836 L361.5079 474.3894 L362.1385 477.1989 L361.7863 480.7265 L363.5731 485.918 L359.5023 486.4914 L357.3238 482.8936 L356.5638 483.1659 L358.7295 486.6321 L360.0057 490.1465 L361.8905 490.6626 L360.4556 494.9943 L361.5191 497.7153 L365.5325 500.1212 L376.8566 506.7456 L378.4828 507.0313 L379.4461 507.1963 L379.5083 507.1894 L380.0045 507.2707 L381.7509 507.4657 L382.0687 507.5295 L383.3991 507.7421 L383.6016 507.8445 L383.643 507.9144 L384.1993 508.0095 L384.7845 508.0326 L385.3558 507.6547 L384.8005 507.5624 L384.7925 507.3674 L384.8559 507.0845 L384.8465 507.0821 L384.6522 506.863 L385.0448 506.2392 L385.7919 502.897 L387.7678 503.2993 L388.0572 503.3363 L388.6034 503.459 L388.9775 503.459 L389.3259 503.5257 L389.3505 503.5359 L389.3665 503.3513 L389.176 503.2819 L389.0929 503.0652 L389.1666 502.5231 L389.2313 501.6745 L389.2554 500.8845 L389.4843 499.2548 L389.7727 498.5813 L389.9279 496.7383 L389.8771 496.5338 L389.6463 495.8624 L389.5987 495.7848 L385.7358 495.7848 L385.3403 492.9805 L389.8539 492.7436 L389.8849 492.7175 L389.8766 492.4761 L389.6743 490.7045 L389.4269 487.3413 L389.2754 486.9527 L389.3783 486.6821 L389.3083 485.7298 L385.3724 485.8639 L384.4211 484.608 L384.9988 481.2638 L387.8555 480.826 L389.1578 479.5786 L389.4314 477.1159 L387.6364 476.1969 L386.4217 472.4648 L384.3861 469.9037 L383.2641 469.687 L382.8211 469.094 L383.0509 468.0652 L382.1314 467.551 L382.4598 466.1828 L381.7045 465.2268 L380.9387 467.5835 L379.9882 466.8946 L381.1465 464.202 L380.8593 463.4679 L379.2312 464.7053 L376.5023 461.7652 L374.3524 459.8014 L373.1131 459.4519 L373.244 457.5739 L371.1988 457.4222 L367.785 457.2446 L362.6975 457.6958 L358.0663 458.8645 L351.4322 461.8461 L351.5711 459.9559 L349.5938 460.3705 L348.7949 460.5047 L349.3662 457.2011 L349.647 457.1401 L349.6524 456.4767 L349.693 456.2893 L349.8501 456.1812 L349.8805 456.1845 L349.7622 455.0942 L350.7909 455.2398 L350.9419 455.182 L351.1121 455.2853 L352.2311 455.4438 L353.0942 453.9845 L353.9573 452.5251 L351.9188 450.9902 L350.695 451.856 L347.165 454.4072 L342.9605 448.9731 L342.9939 448.0169 L343.7247 447.8324 L346.5798 449.1231 L347.8583 446.9913 L347.4509 445.7527 L345.8663 443.5493 L352.2445 434.0202 L335.9023 431.5606 L335.4347 430.0401 L332.6852 429.6864 L333.249 426.6861 L352.2819 428.7148 L354.9729 422.777 L356.0765 423.2787 L356.7789 420.8421 L357.8451 421.0958 L360.4054 422.8916 L360.7282 420.2908 L360.6186 416.8756 L362.5128 414.071 L362.2633 413.9686 L363.4368 412.2841 L363.8438 411.943 L364.0215 411.8373 L364.2927 411.4356 L364.9193 411.7966 L365.0043 411.7901 L365.1419 411.9251 L365.948 412.3874 L365.9881 412.3435 L366.2975 412.3939 L366.3061 412.5927 L369.5486 414.4524 L369.035 413.5628 L368.8466 413.4437 L368.6235 413.255 L368.4303 413.0432 L367.9475 412.5899 L367.7559 412.2378 L367.6055 411.9162 L367.5448 411.7035 L367.6148 411.427 L367.707 411.2624 L367.272 410.5085 L369.2995 409.4746 L369.2693 409.2689 L369.4225 408.9062 L369.5785 408.6395 L369.8219 408.6403 L370.0381 409.0591 L370.0688 409.0822 L374.1044 407.0241 L375.916 405.9466 L374.6962 403.8278 L376.5742 402.9247 L375.9003 401.5772 L376.3735 400.5595 L372.8966 397.2859 L359.7593 391.3394 L359.7021 390.4099 L360.6849 390.6628 L361.1851 390.0338 L363.3294 390.9141 L364.2916 391.8888 L373.733 395.8716 L374.4323 397.2899 L375.0369 397.4078 L375.9347 398.7171 L375.737 398.1601 L375.3709 396.8426 L375.7557 391.1581 L375.8412 389.682 L378.6549 389.6332 L377.0356 383.9484 L379.2347 383.2775 L380.2864 383.0067 L382.3479 386.0752 L382.2215 387.5704 L383.352 388.4186 L385.4055 388.8724 L386.7506 389.9288 L388.2042 390.2667 L388.9542 390.7653 L389.5084 390.8682 L390.2485 391.1487 L389.6425 392.746 L391.9188 393.8377 L396.5441 395.7488 L397.0013 395.537 L397.7647 394.6119 L398.8522 393.5742 L398.461 393.4559 L397.8882 393.2888 L398.0442 393.0257 L398.5484 392.1291 L398.5669 391.94 L398.5738 391.4041 L398.6411 391.1325 L398.8605 390.8535 L399.0534 390.3936 L399.2049 389.7552 L399.291 389.0615 L399.455 388.3723 L399.6749 388.2881 L400.0261 388.6142 L400.422 388.7163 L400.8758 389.1107 L401.1983 389.5047 L401.341 389.6499 L401.3402 389.6885 L401.4446 389.8243 L402.6845 388.4947 L404.0934 386.3732 L404.2941 385.3001 L405.2825 383.4101 L407.4335 381.5305 L408.4002 380.8897 L409.9329 381.0243 L411.1161 379.749 L414.0165 379.5319 L414.3532 379.2167 L413.6363 377.3811 L414.0489 376.6967 L414.6111 376.5568 L416.0043 376.6747 L416.5411 376.9053 L417.5094 377.5974 L418.5571 378.8584 L419.774 380.4769 L421.3056 382.4756 L421.7836 385.072 L426.5959 386.4082 L427.226 387.0056 L428.4316 387.5378 L430.4196 389.8841 L431.8625 390.6608 L432.0036 389.8662 L432.08 389.6076 L431.9144 389.5027 L431.8617 389.2689 L431.9686 389.0733 L432.0907 388.7488 L432.0907 388.1868 L431.8008 386.2065 L431.8187 385.7324 L431.7252 384.6153 L431.4884 384.2327 L431.0182 382.918 L432.9097 381.3553 L433.7022 380.1744 L433.5545 379.819 L431.8123 381.6298 L430.6043 381.6721 L429.8823 379.4989 L429.3035 377.5612 L429.0486 377.0793 L428.2911 376.3368 L428.2384 375.5243 L428.127 374.9899 L428.1131 373.9643 L428.0167 373.5316 L429.2739 372.075 L428.7606 371.3633 L428.5588 370.1624 L428.8872 369.0571 L429.0489 368.7785 L428.837 368.4621 L427.7115 368.0994 L427.3861 367.1848 L427.3919 366.4462 L427.948 365.8399 L428.662 365.3128 L428.9233 365.3628 L429.7158 365.7825 L430.2687 366.2112 L430.5781 366.5613 L430.6235 367.2494 L431.1421 368.0489 L432.0087 368.3796 L432.239 368.2161 L433.0697 368.4784 L433.5211 368.3897 L434.1674 368.8525 L434.0416 369.1518 L433.6923 369.8688 L432.7312 370.2795 L432.6433 370.4739 L432.8597 370.8448 L432.9434 371.5422 L433.042 371.8379 L433.1793 372.0209 L433.4307 372.1177 L434.041 371.2364 L434.472 371.1559 L434.911 371.3153 L435.1203 371.6585 L434.9917 371.7887 L434.9054 372.0799 L434.7408 374.2043 L434.5303 374.4792 L434.577 375.2006 L434.7742 375.6926 L434.5602 376.4445 L434.7219 376.6686 L434.5674 377.0976 L434.5952 377.2379 L435.4898 377.7861 L436.3425 378.1484 L437.2173 378.6108 L438.0224 379.1281 L438.6409 379.4766 L439.3223 379.3964 L440.2765 379.2374 L440.9899 379.3379 L442.6215 380.0621 L443.2855 380.1679 L444.1162 380.984 L444.3332 381.2333 L444.2792 381.5956 L444.506 381.8099 L444.9429 381.7237 L445.9019 382.9904 L446.3169 383.5869 L446.3743 384.1034 L446.2204 384.5661 L446.1595 384.826 L446.2517 385.0269 L446.586 385.2473 L448.2725 386.2903 L448.676 386.5619 L448.8286 386.7616 L448.8382 386.7868 L448.8887 386.9198 L448.9264 387.304 L448.772 388.0132 L447.611 389.9097 L446.6266 390.871 L446.5678 390.9727 L446.625 391.1125 L446.7126 391.0812 L447.8971 389.8491 L447.9508 389.7113 L448.0321 389.384 L448.3575 388.835 L449.1118 387.8148 L449.1634 387.7887 L449.2176 387.7806 L449.2925 387.7879 L449.4087 387.8266 L449.7058 388.1104 L450.0225 388.4764 L450.4409 388.9598 L451.3577 390.0329 L451.8509 390.2818 L452.1708 390.516 L452.5403 390.7864 L452.7183 390.945 L452.9609 391.1939 L453.4742 391.8054 L453.7243 392.2824 L453.747 392.5634 L453.6497 392.7748 L453.2786 393.1127 L449.2943 395.0442 L449.0277 395.2178 L449.3144 395.4073 L451.8133 394.2143 L451.9108 394.1256 L452.0431 393.8601 L453.3342 393.2672 L453.6348 393.2563 L453.8224 393.325 L454.0439 393.6356 L454.8393 394.5017 L456.0198 396.0168 L456.9962 396.924 L457.7812 397.5945 L458.3271 397.9226 L458.5687 397.8986 L458.7969 397.873 L460.383 397.677 L460.9257 397.686 L461.4136 397.5697 L462.3988 397.5798 L462.4498 397.8014 L462.4127 399.6397 L462.4496 399.9776 L463.2915 402.279 L472.0427 402.6307 L472.9437 402.3441 L473.4078 402.3681 L473.4613 402.6877 L473.6927 402.697 L473.7571 402.6901 L473.806 402.4205 L474.8058 402.1774 L474.8595 402.4384 L474.9758 402.477 L475.1567 402.5799 L475.3066 402.5954 L475.441 402.6311 L475.5599 402.6881 L475.7229 402.7938 L475.799 403.0386 L476.0072 403.187 L476.1806 403.4163 L476.2135 403.6058 L476.8884 404.458 L477.0891 404.3913 L477.8538 404.1388 L477.9254 404.0583 L478.0043 402.5165 L478.6439 402.1074 L479.4178 401.8765 L480.2629 402.0013 L480.2894 401.92 L479.9236 401.0064 L479.9329 400.2419 L480.9347 400.2342 L481.4851 400.3013 L482.1844 400.3903 L482.5267 401.5882 L483.973 401.7179 L484.1788 401.7541 L484.341 401.7496 L484.6611 401.7952 L484.7594 401.8362 L484.7749 401.8586 L485.1006 401.9155 L485.3238 402.6669 L485.8445 403.1951 L487.0424 403.1284 L487.3847 403.0837 L488.3667 402.8605 L488.5925 402.8654 L488.7549 402.4941 L488.7536 401.9676 L489.2223 401.8411 L489.8991 401.9676 L490.6237 402.0298 L491.1157 401.9973 L491.295 402.3441 L491.5723 402.7487 L491.9247 402.7787 L492.2165 402.7637 L495.1801 402.7348 L495.2544 402.6572 L495.2423 402.6572 L495.2383 402.3693 L495.2512 402.3303 L495.4259 402.1375 L495.6271 402.1412 L495.6611 402.0867 L496.6134 402.0497 L496.8862 402.1644 L497.1085 402.1684 L497.2381 402.2981 L497.2416 402.3136 L498.8079 402.9719 L499.1187 403.0532 L499.4219 403.0195 L499.6814 403.1553 L499.738 403.2146 L500.1768 403.3293 L500.1918 403.422 L500.2626 403.7054 L500.2647 403.8705 L500.3702 404.5194 L500.6332 408.7277 L502.2746 408.4398 L503.6873 408.3902 L503.7311 412.3455 L503.7464 412.4232 L504.021 412.8562 L503.737 412.8712 L503.7437 413.4795 L503.9358 413.4929 L504.0432 413.8243 L504.0702 414.2121 L504.1255 414.5142 L504.1215 415.4461 L504.0945 415.5685 L504.4777 416.5959 L504.4267 414.2117 L504.2463 411.7153 L504.2434 411.5673 L504.3564 411.4791 L504.3473 411.1306 L505.515 410.4679 L511.4255 406.9346 L512.0 403.202 L510.68 394.3989 L511.3454 381.6509 L509.2051 363.9366 L508.9031 362.0821 L508.5127 361.3111 L507.9548 361.6458 L507.4116 360.701 L506.4817 361.0431 L506.0798 360.2248 L505.1983 360.5375 L505.1454 360.3472 L505.0188 360.2773 L504.8039 359.7656 L504.7021 359.5635 L504.7895 359.4456 L505.1644 359.2849 L505.3322 359.1088 L505.0324 358.1173 L504.9971 358.0852 L504.7826 357.9799 L504.5603 357.8945 L504.4643 357.6423 L504.5135 357.3727 L504.7572 357.2076 L504.6776 356.944 L506.2637 356.4137 L506.3981 356.3494 L506.5274 356.3258 L507.9332 355.8557 L507.8076 354.8349 L507.1636 350.4913 L503.7675 352.0937 L502.1854 348.5374 L506.3663 346.6255 L506.2995 346.2834 L502.0811 348.1803 L501.8359 347.5556 L505.1537 345.8966 L505.4439 344.8253 L502.8282 345.8893 L501.6996 346.3709 L501.5395 346.4128 L501.4473 346.4197 L501.3597 346.4547 L501.341 346.4278 L501.2841 346.4319 L501.1884 346.4087 L501.0436 346.3001 L500.8696 345.7437 L499.827 344.2303 L499.4847 343.449 L499.5342 343.4209 L499.4882 343.355 L499.4722 343.246 L499.6338 342.9625 L499.7415 342.8169 L499.9376 342.7694 L500.2741 342.7535 L500.6754 342.6425 L500.9001 342.6465 L501.4265 342.348 L502.6987 341.8868 L503.2194 341.8123 L505.1315 340.5698 L498.607 342.7498 L498.1829 341.2173 L498.3702 341.1327 L499.2357 340.741 L504.6516 339.3349 L504.949 339.0449 L504.6663 338.7623 L501.8393 339.5879 L499.0535 340.4953 L498.6107 340.4433 L498.343 339.6624 L498.4408 339.0881 L498.4694 338.8587 L498.6203 338.8017 L501.5566 337.8174 L501.3039 336.8352 L498.2462 336.8502 L497.6966 336.2804 L499.1636 335.6865 L498.5944 333.722 L498.4619 333.2172 L498.1623 333.1395 L497.7904 332.2589 L497.5446 331.2307 L497.3273 330.6783 L497.1812 330.1825 L497.167 329.9588 L497.2664 329.7302 L497.5748 329.2929 L497.7386 329.0049 L497.7671 328.7898 L497.6669 328.5172 L498.0394 327.6 L498.2962 325.0989 L498.2743 324.8987 L498.3526 323.5157 L498.2345 323.2452 L498.5276 322.0575 L499.8217 321.8842 L500.0913 321.8448 L501.5165 322.003 L502.5007 322.1738 L502.5268 322.1881 L502.829 322.221 L502.5993 320.9068 L502.4937 319.9622 L500.6575 307.9813 L499.8855 302.7527 L499.551 299.2017 L499.5048 297.6476 L499.2956 296.0712 L498.8768 294.5392 L498.0122 292.6198 L496.5548 289.8924 L490.7857 281.49 L485.2198 280.7344 L484.1262 280.184 L484.155 279.6425 L484.007 279.4557 L483.8151 279.4191 L483.6676 279.2413 L483.6187 279.0082 L483.6789 278.7909 L483.665 278.7706 L482.8802 278.544 L481.7873 277.8808 L478.6557 277.8523 L473.7712 279.0037 L470.5471 275.6109 L468.9704 275.2525 L464.4552 277.4312 L462.7494 278.0476 L461.1352 278.2998 L462.0701 280.6384 L462.1706 280.6283 L462.2227 280.7316 L462.3202 281.2633 L463.6095 284.488 L461.4737 285.2577 L461.4165 286.5478 L460.6566 288.6979 L458.2344 288.7553 L456.8295 288.2105 L456.5286 288.894 L456.2935 289.6548 L453.8106 289.5502 L453.7938 289.9184 L453.3601 293.2605 L453.2904 293.2894 L453.2783 293.2906 L453.1886 293.955 L451.1151 293.6376 L451.8926 290.7451 L451.4491 288.2472 L453.0737 287.9583 L452.9922 283.796 L452.5507 280.6653 L452.6496 280.2051 L452.5938 279.8235 L452.624 279.6522 L452.7805 279.4134 L452.9515 279.1961 L453.0833 278.9882 L453.2559 278.8259 L453.3222 277.6936 L452.9668 277.6245 L452.7343 277.5557 L452.629 277.6387 L452.5489 277.5948 L452.3698 277.4479 L451.3555 277.1484 L451.5319 276.7619 L451.165 276.4617 L451.1132 276.3579 L451.1231 276.301 L451.2799 276.1106 L451.4579 276.0658 L451.9143 275.2749 L452.4503 274.3977 L453.4534 272.5513 L453.8726 271.6192 L452.7958 269.9551 L451.4918 268.8321 L452.0147 266.1154 L452.1518 265.3656 L452.3391 265.4205 L452.8289 265.3041 L454.1048 265.7598 L454.9262 266.0052 L455.4555 266.1451 L455.6319 266.1045 L457.731 264.6047 L458.407 264.4818 L458.6505 264.3048 L458.9011 264.197 L459.1635 264.0208 L459.6453 263.887 L459.9106 263.9626 L460.1716 264.1616 L460.8049 264.0465 L460.6825 263.8194 L460.7098 263.5529 L460.8773 263.3621 L461.202 263.3141 L462.9156 263.4837 L463.7952 263.5037 L464.2802 263.4247 L464.6756 265.2341 L464.8934 265.6886 L464.9979 266.3193 L464.9816 266.6338 L466.025 271.4076 L466.3392 271.8979 L470.2388 271.6762 L473.1032 271.5744 L473.8193 276.7375 L478.4526 276.5137 L480.0195 277.1859 L481.1653 277.0667 L482.3912 276.6195 L482.5117 275.8465 L482.2515 273.4737 L483.0771 267.0903 L482.0802 267.0236 L482.1622 266.2127 L482.244 265.558 L482.3004 265.0116 L482.668 262.954 L482.7733 261.0974 L483.3852 259.6122 L482.0564 255.8867 L480.5128 255.0102 L478.8775 260.7393 L477.9677 260.0785 L474.6709 266.9015 L473.8968 266.2705 L476.6594 260.4292 L476.9069 259.9064 L476.1616 259.2757 L475.445 258.7883 L474.0705 257.3743 L473.6494 256.1308 L473.0474 254.6399 L472.5028 254.3535 L472.1301 254.0666 L471.6427 253.8945 L470.4673 253.2353 L471.4995 255.4712 L462.3349 250.3512 L460.9187 248.2922 L461.7481 247.537 L462.0811 247.2342 L456.6114 242.4366 L450.9766 241.9328 L450.6897 241.7864 L450.4476 241.4669 L450.2683 240.7287 L450.2146 240.144 L449.4234 233.7323 L449.2291 233.3457 L448.0163 231.9556 L447.8819 231.5674 L445.3739 229.7479 L443.1241 232.6502 L444.3067 236.4649 L444.3634 236.6525 L444.3463 237.2173 L444.2522 237.7248 L444.1942 237.8517 L443.9922 239.8083 L443.6531 241.1792 L441.2475 242.6734 L438.1923 243.9101 L437.633 243.4539 L437.6443 241.7005 L434.9885 241.5634 L431.6741 241.7892 L427.9523 240.8134 L426.9072 241.5703 L426.0989 243.0096 L427.781 245.8556 L426.663 249.2924 L428.3306 252.7234 L426.3239 257.4638 L425.6324 257.7979 L425.5571 257.9041 L425.2904 257.9631 L417.7333 261.6141 L416.6031 264.149 L414.4548 264.4013 L410.9998 261.138 L409.5836 258.1026 L404.8408 257.6551 L400.1407 261.5815 L398.8394 265.4225 L392.146 269.2065 L390.4786 270.6305 L384.1325 272.7421 L381.8613 276.1557 L380.8272 277.5756 L379.5267 278.7356 L379.9129 281.1177 L379.3338 285.5519 L378.5295 286.7211 L376.2019 289.2195 L374.8253 289.5006 L373.9796 290.6759 L374.8397 293.3565 L373.6929 294.4602 L372.4691 293.6946 L368.7683 293.6946 L367.8705 292.0185 L366.67 292.4102 L366.4544 293.7003 L365.68 294.459 L363.9499 295.0005 L364.6935 297.8401 L364.9901 299.8701 L362.7926 299.9994 L362.2558 300.0889 L362.1641 300.0588 L362.1417 300.0377 L360.7148 299.5279 L355.3147 299.5149 L354.978 300.4599 L351.3788 299.9392 L351.2681 298.8644 L348.7008 298.8266 L346.8595 298.8063 L346.8229 296.4894 L346.8978 293.6336 L339.5684 292.9338 L334.4656 294.0489 L333.3786 293.9131 L333.0219 294.8687 L330.4207 295.6709 L326.6544 297.4251 L324.0976 297.5276 L321.0875 297.1261 L319.1094 300.8672 L315.7766 302.6445 L314.8953 298.9177 L319.095 298.746 L320.1128 296.9398 L319.3961 295.8361 L318.5649 294.7039 L315.3683 294.0013 L313.204 294.7324 L312.4154 296.2519 L314.7233 295.9651 L314.0782 298.5451 L309.3664 296.2657 L306.9399 295.8935 L303.3284 296.2991 L302.8985 295.4256 L301.5731 293.431 L299.894 290.8834 L301.8339 289.2968 L301.4999 287.1528 L304.3804 283.9876 L303.7484 282.5242 L302.5564 280.8675 L302.1826 279.6441 L302.0041 278.8686 L301.4203 277.8283 L301.4532 277.7583 L301.6586 277.6855 L300.896 275.9197 L301.3933 275.7179 L301.3898 275.665 L301.6437 275.3542 L301.7006 274.8127 L301.7535 274.6031 L301.9274 274.4579 L302.0226 274.0819 L302.2649 273.9709 L302.5134 273.9001 L302.4691 273.647 L302.6492 273.5245 L302.8811 273.5722 L303.3824 273.4159 L303.7508 273.3752 L303.9523 273.8171 L304.2502 274.5592 L305.0291 274.2431 L305.1956 274.0901 L305.9352 273.7617 L305.7129 273.2963 L304.7651 271.2245 L305.7752 269.8981 L304.2414 267.8028 L305.7559 266.1028 L305.7575 266.0182 L306.1482 265.5995 L306.1607 265.6483 L306.596 265.1597 L307.1975 264.4643 L307.0588 264.2641 L306.8344 264.4737 L306.7574 264.326 L306.6425 263.6624 L305.5347 262.0617 L310.4005 254.2086 L312.7307 254.6151 L314.7468 254.1985 L317.2649 253.4884 L317.4934 253.1377 L317.6791 252.8003 L318.2557 251.9662 L319.0405 250.7605 L319.2361 250.3975 L319.3713 250.2494 L320.1764 249.0027 L321.3291 247.2261 L322.8495 246.0558 L322.8503 245.9768 L322.9534 245.467 L323.0491 245.0926 L323.4202 245.012 L324.139 244.2747 L324.4751 244.118 L325.281 243.292 L325.1193 243.2041 L324.0976 242.8826 L323.7563 242.6824 L323.4189 242.3361 L323.4394 242.2889 L323.0686 242.0867 L323.0418 241.2907 L323.7857 239.3342 L324.8123 236.7453 L325.0354 234.5136 L324.656 234.0448 L324.132 234.0212 L322.6921 232.6612 L324.4925 230.0128 L325.6008 229.9607 L325.0256 229.2009 L324.8725 229.2779 L324.5876 229.0378 L324.0928 228.1665 L323.0098 227.1723 L320.2538 221.1529 L319.9947 220.9038 L319.8715 220.7024 L319.9011 220.4786 L319.938 220.4631 L319.8942 220.3679 L321.3646 219.5287 L321.72 219.2821 L322.2087 218.7888 L322.3394 218.6972 L320.303 215.5371 L319.7098 214.3487 L320.2341 213.8208 L319.9241 213.3373 L320.8812 212.5966 L321.4691 211.9548 L321.8167 211.4339 L322.1146 210.6451 L321.3181 208.0839 L320.0385 206.5561 L318.3922 204.5455 L317.6858 203.178 L317.7189 203.0709 L315.7098 203.1238 L315.5139 203.0445 L315.4319 203.0746 L314.1309 202.9305 L313.9783 202.4213 L310.5741 201.04 L310.0266 200.7298 L309.0711 200.7783 L308.6513 200.3818 L308.6054 199.9252 L308.557 199.8979 L306.3328 199.7343 L301.3743 199.6008 L301.0291 199.6928 L299.6514 199.7302 L299.1344 199.5401 L297.3903 199.4933 L295.3224 198.3801 L290.7883 198.8177 L290.3204 198.884 L290.314 198.8637 L290.1109 198.8832 L290.155 199.0635 L290.3428 199.613 L290.4591 199.751 L290.7255 199.882 L290.8267 200.1702 L290.302 200.3883 L289.4712 200.7815 L288.5555 200.8023 L287.7443 200.3794 L287.4792 199.7908 L287.5669 199.4986 L287.5132 199.1339 L281.9537 199.6708 L281.4629 199.8767 L280.6019 200.1189 L280.0726 200.1108 L279.5069 200.0668 L279.0035 199.9553 L278.5204 200.0021 L269.8363 195.1708 L269.0978 194.1822 L268.7451 194.0169 L268.2596 193.5008 L268.0062 193.0091 L267.8024 192.5142 L267.6054 192.2109 L267.5966 192.1727 L264.7787 188.4003 L263.9717 187.561 L263.0689 186.2634 L263.0109 186.042 L263.0368 185.9939 L257.9458 178.9626 L245.7319 168.4604 L243.8695 165.0857 L244.2516 162.1466 L240.778 155.226 L242.0285 151.4277 L247.6932 149.6731 L247.8455 146.2737 L246.1835 142.7684 L244.8101 137.7199 L245.6448 137.1744 L248.1261 135.5499 L246.2316 132.3701 L238.9901 127.5214 L238.8792 127.5718 L238.5238 127.5132 L237.9755 126.9725 L237.8259 126.7421 L236.9035 126.1244 L236.4813 124.1822 L231.5114 122.2645 L231.4005 122.3244 L231.2743 122.6257 L231.0918 123.0625 L230.8027 123.8956 L228.1336 125.5984 L227.4199 127.5841 L225.0245 130.2525 L221.7566 132.4581 L220.8545 132.6356 L219.9219 132.546 L218.7524 132.5696 L217.1973 133.1885 L216.5359 133.1034 L215.5652 133.866 L214.9928 135.7535 L214.1244 139.9551 L209.9424 143.0082 L207.4871 145.9154 L208.1043 141.7546 L208.7056 139.9445 L207.8158 139.7401 L204.8391 143.3953 L205.7743 146.4202 L204.3207 146.1434 L202.7966 145.8499 L201.5539 147.6257 L199.7337 150.6314 L197.6441 150.1734 L196.4679 150.0326 L195.3598 151.019 L194.7506 151.0939 L193.8619 150.7047 L193.5952 149.5754 L193.04 146.932 L192.0783 147.3415 L190.8593 148.2071 L190.7791 148.1733 L190.5686 148.1012 L190.4526 147.8268 L190.4975 147.5317 L191.1882 146.5375 L192.1579 144.543 L192.3554 144.0101 L192.5392 143.465 L192.8267 143.2891 L193.0905 143.4149 L194.0575 142.4182 L194.6627 143.1226 L196.4399 140.5426 L197.257 140.8581 L198.8909 139.6827 L202.6908 136.1565 L203.9948 136.7428 L204.5158 135.782 L206.5706 133.3025 L205.1063 131.1528 L205.5232 129.915 L205.2298 129.0417 L205.4753 128.2628 L206.3296 126.7225 L207.1162 125.6252 L208.7261 124.0125 L209.1157 123.6224 L210.3622 122.5927 L210.4002 122.6057 L210.5012 122.521 L210.8146 121.7885 L210.8394 121.6041 L211.0805 121.1672 L212.5236 117.7942 L212.4811 117.6338 L213.291 116.0006 L214.4854 113.2089 L216.2527 109.5556 L207.4978 98.0326 L208.6353 96.9559 L211.268 95.1536 L209.1168 92.3954 L210.9543 92.2708 L210.8803 91.9434 L210.8023 91.1412 L210.8752 89.8963 L211.4604 89.1885 L212.3689 88.7072 L211.0703 85.9054 L205.5713 85.6488 L201.7983 83.69 L195.7807 83.6802 L190.4484 82.1461 L189.402 82.8201 L187.8049 84.3212 L180.2511 83.2542 L171.1581 88.1818 L165.7874 85.6529 L159.158 77.3206 L158.3431 73.9933 L155.508 70.3319 L152.7024 69.1997 L150.2201 66.3081 L148.9859 65.1876 L145.8871 63.4371 L143.8949 63.0274 L140.775 62.6238 L127.8891 64.4065 L126.1515 64.4158 L125.0284 64.7734 L123.6959 66.4384 L121.3381 62.4796 L121.7442 58.3456 L115.3928 53.1892 L111.3126 50.6761 L102.527 48.106 L98.4014 49.442 L96.0874 49.9307 L92.2129 47.6294 L81.8588 44.7171 L81.4046 43.1407 L80.8381 41.1448 L81.5037 39.0499 L79.454 36.876 L69.9683 33.9961 L63.2297 33.0515 L58.0069 30.9178 L51.2867 29.1332 L48.8774 29.3825 L44.5075 28.384 L41.808 28.483 L38.3565 24.8946 L36.9018 21.1562 L25.4575 16.5121 L23.823 16.9855 L22.6465 19.0827 L19.0126 17.0866 L18.3042 18.0504 L16.7921 18.932 L9.1402 9.6204 L7.8836 8.0308 L7.1635 8.5168 L6.9582 7.7272 L5.4988 4.3079 L3.8205 3.9674 L3.0707 5.4385 L2.0893 7.6812 L1.5263 9.0607 L1.0271 10.3187 L1.9949 10.9831 L1.3438 12.1112 L1.1006 12.95 L0.015 12.7862 L0.0 13.4307 M17.1267 24.5862 L17.3458 23.8122 L17.5475 23.3988 L17.9553 24.0994 L18.4352 24.5353 L19.1772 24.7598 L19.4797 24.684 L19.6418 24.5479 L20.405 24.5052 L20.4707 24.4037 L18.8616 24.3398 L19.0278 24.1626 L19.1868 23.9381 L19.3728 23.7581 L19.3653 23.7084 L19.2151 23.7206 L18.8958 23.8192 L18.4124 24.2469 L18.0549 23.8839 L17.7736 23.4892 L17.5136 22.8301 L17.5996 21.9771 L17.7861 21.665 L18.5754 21.5269 L18.8969 21.509 L19.2373 21.2324 L19.4479 21.0613 L20.6348 19.6453 L20.7045 19.6375 L21.2544 19.8624 L21.893 20.2771 L22.2957 21.08 L24.2407 23.3381 L23.1238 23.6574 L21.9908 24.1414 L21.9946 24.5064 L21.1176 24.9419 L20.7302 26.2181 L17.5545 27.4667 L17.3225 26.5876 L18.1204 26.4381 L17.8901 25.0914 L17.1304 25.2254 L17.1267 24.5862 M17.1269 25.3073 L17.8409 25.1842 L18.0488 26.4043 L17.3255 26.5224 L17.1269 25.3073 M60.4398 191.7864 L62.2747 190.0663 L63.7654 188.6327 L65.6575 187.7153 L66.5748 187.4287 L68.0655 187.4861 L69.0974 187.5435 L71.4483 187.4861 L72.0789 187.4287 L72.0789 188.5184 L70.8177 189.665 L69.5562 190.4676 L67.9509 190.1237 L65.6 191.4425 L66.5173 192.5891 L67.0336 193.3917 L66.5173 193.9078 L64.1093 191.9582 L61.9305 193.3343 L60.8411 192.5891 L60.4398 191.7864 M74.4896 173.0985 L74.547 171.866 L77.6431 171.7512 L79.4778 171.9234 L80.3093 172.4106 L80.5369 173.5545 L80.6246 175.1628 L80.3379 175.8507 L77.385 176.596 L75.6936 175.306 L74.4896 173.0985 M101.8205 187.9493 L101.9089 187.5492 L102.0866 187.2671 L102.3212 186.9643 L102.5093 186.8381 L102.64 186.8373 L102.9705 187.1524 L103.35 187.6217 L103.8641 188.1158 L104.1195 188.3059 L103.6463 188.763 L103.0555 189.2685 L102.8896 189.4106 L102.0428 188.3438 L101.8205 187.9493 M153.1318 181.4338 L153.3164 180.8798 L153.8415 180.6462 L154.1429 181.3365 L153.888 181.998 L153.2192 182.0562 L153.1318 181.4338 M167.0745 386.0927 L167.0905 385.5006 L167.4924 384.8337 L167.5298 384.6202 L167.1974 383.8891 L167.2837 383.772 L167.4838 383.7252 L168.0265 383.5203 L168.38 383.4678 L168.6534 383.4715 L168.8444 383.4174 L168.9281 383.2604 L168.9478 383.0949 L169.1188 383.0807 L169.2917 383.103 L169.2858 383.4365 L169.265 383.6207 L169.5122 383.909 L169.5389 384.127 L169.6826 384.3274 L169.8753 384.458 L170.0947 384.7467 L170.278 385.0635 L170.5158 384.8764 L170.6793 384.5121 L171.1199 384.103 L171.6268 383.8167 L172.1652 383.7183 L172.2831 383.4938 L172.0789 383.0103 L171.9704 382.55 L172.0412 382.0551 L172.3753 381.8725 L172.7726 381.6904 L173.5146 381.4586 L174.0287 381.4342 L174.2986 381.3943 L174.7731 381.2195 L175.726 380.6619 L175.8128 380.6664 L175.6811 381.2931 L175.5969 382.2418 L175.7548 382.8428 L176.0156 383.3243 L176.1669 383.789 L176.0498 383.9692 L175.881 384.0977 L175.5082 384.2197 L174.4712 384.1851 L173.9368 384.4348 L174.7707 384.8654 L174.3488 385.353 L174.3587 385.5437 L174.2884 385.7169 L174.165 385.9792 L173.9582 386.25 L174.1409 386.5147 L174.8068 386.283 L175.1291 386.3448 L175.2878 386.357 L176.3459 385.9345 L176.4258 385.8068 L176.5882 385.6189 L176.8402 385.4782 L177.1451 385.4347 L177.5235 385.4282 L177.8166 385.5173 L178.041 385.6994 L178.1583 386.0463 L178.3451 386.8636 L178.3189 387.1324 L178.1249 387.4927 L176.3026 388.5422 L176.3031 388.6577 L176.5573 389.0757 L177.2087 389.2453 L177.5502 389.1871 L177.8054 389.1676 L177.9975 389.0855 L178.3179 388.9952 L178.4311 389.2372 L178.4194 390.455 L178.0998 390.9129 L177.3869 391.0955 L177.2405 391.1329 L176.5348 391.2532 L175.9069 391.3606 L175.0521 391.3618 L174.4846 391.2874 L173.6426 391.0637 L173.2696 390.9649 L172.0888 391.1849 L171.7246 390.64 L171.5421 390.7523 L171.7636 391.929 L171.2861 392.1974 L170.4134 392.2682 L170.042 392.2983 L168.4992 392.232 L168.3226 391.9823 L168.0888 391.6517 L167.9295 391.2597 L167.5122 390.2322 L167.4026 389.8788 L167.3756 389.6954 L167.5696 389.4323 L167.8731 389.2904 L167.9327 388.9712 L168.0324 388.6236 L168.0062 388.1214 L167.8523 387.5033 L167.0745 386.0927 M169.5309 229.203 L169.8355 226.9647 L170.0813 226.9647 L171.6925 229.3535 L171.4147 231.0872 L169.5309 229.203 M170.2996 159.3698 L170.3536 159.1105 L171.5552 158.3244 L173.156 157.2493 L173.1972 157.2216 L173.5314 157.7004 L173.8574 158.2984 L173.9109 158.3969 L173.8107 158.6102 L171.9189 159.8954 L170.9516 160.4584 L170.7298 160.5874 L170.694 160.5553 L170.6539 160.5195 L170.5898 159.908 L170.2996 159.3698 M171.9491 234.2288 L171.9731 231.6487 L172.1655 231.6487 L172.6411 232.2429 L172.4915 233.7811 L174.3352 233.6509 L175.42 235.238 L174.4848 236.7314 L173.7794 235.124 L171.9491 234.2288 M174.9177 233.1137 L176.1816 233.712 L178.8643 233.423 L178.891 230.1145 L181.034 228.4094 L181.213 227.1682 L181.5149 227.1682 L181.9692 229.3454 L184.3313 231.8522 L191.4656 230.2204 L195.4202 233.4393 L184.6332 235.0711 L182.1295 235.1362 L182.525 233.4352 L180.4114 234.0985 L178.3112 234.3142 L175.2597 233.8788 L174.9177 233.1137 M175.5483 155.397 L180.1522 150.5769 L181.726 151.9 L182.0047 151.5906 L181.8992 151.521 L181.7528 151.2543 L181.8065 151.0687 L182.6465 150.7849 L182.8274 150.6762 L182.9199 150.5736 L182.9872 150.3676 L183.3795 150.0627 L184.1041 149.2578 L184.1763 149.2212 L186.1349 151.5417 L184.4969 153.6383 L185.4001 153.9396 L184.3072 154.4729 L178.9509 156.129 L178.405 156.3553 L177.7511 156.4921 L176.9912 156.773 L176.5904 156.3333 L175.5483 155.397 M177.8099 190.8181 L177.8102 190.7599 L177.854 190.6431 L177.971 190.4392 L178.1321 190.002 L178.1471 189.9291 L178.1736 189.9043 L178.2112 189.888 L178.2438 189.8884 L178.278 189.9002 L178.6989 190.2226 L178.7264 190.2641 L178.713 190.3101 L178.6911 190.3643 L178.6254 190.4412 L178.2465 190.7172 L177.9189 190.9072 L177.8676 190.9044 L177.8326 190.8661 L177.8099 190.8181 M181.7656 318.2396 L183.0268 318.168 L183.457 317.3654 L184.661 317.0355 L185.6358 317.1502 L186.1659 317.8812 L186.2808 319.2288 L186.0801 319.9024 L185.3632 319.1284 L185.2486 319.7593 L184.7901 320.1176 L184.059 320.0029 L183.2133 319.5156 L183.0698 319.4151 L183.7293 319.501 L183.7007 319.1572 L182.5824 318.8705 L181.9088 318.6695 L181.7656 318.2396 M190.0165 298.41 L190.1582 298.0797 L190.9608 297.9853 L191.3625 297.5366 L192.0235 297.4186 L192.2832 296.7575 L192.7316 296.8519 L192.897 296.5684 L193.1094 297.1823 L193.6527 297.9617 L193.9124 299.0003 L193.7235 299.9449 L192.4957 299.6614 L191.4803 299.567 L190.6776 299.0947 L190.1347 298.9295 L190.0165 298.41 M191.0148 191.1649 L191.1941 191.0432 L191.0795 190.8531 L191.2299 190.7314 L191.3841 190.6919 L191.4664 190.7172 L191.6134 190.7599 L191.6887 191.0322 L191.7849 191.3358 L191.6457 191.4559 L191.4359 191.4286 L191.1492 191.3021 L191.0293 191.2402 L191.0148 191.1649 M192.3741 230.3384 L199.5619 228.7391 L203.0114 226.3909 L203.3321 226.5781 L204.7456 226.7613 L204.3047 227.506 L200.6574 232.5196 L198.7175 233.069 L199.4646 237.282 L196.6699 259.6875 L196.6654 260.1871 L196.2913 300.9188 L195.4541 300.927 L195.8571 258.94 L198.4078 238.0853 L197.5057 235.2221 L194.469 232.1452 L192.3741 230.3384 M192.5478 327.8648 L192.8096 326.4412 L193.149 325.9693 L195.8878 325.3673 L196.5665 326.6161 L198.4262 324.1348 L198.143 321.9505 L198.3247 321.0841 L198.6934 322.8169 L199.3636 319.6523 L198.298 317.6957 L197.6246 316.2598 L196.7028 313.5673 L197.6115 310.7881 L198.3397 308.9104 L199.5629 308.7343 L198.7271 314.8116 L200.2881 319.7698 L201.6156 323.2701 L202.3675 327.9095 L201.7796 328.6824 L200.1764 329.5691 L193.7235 328.3732 L192.5478 327.8648 M194.8059 154.8275 L194.9216 154.6337 L194.9563 154.6219 L194.9745 154.5865 L194.9323 154.4859 L194.9625 154.3206 L195.6043 152.4764 L195.84 152.1841 L196.2397 150.8932 L196.3578 150.4043 L197.1036 150.5687 L196.8634 152.6934 L197.0924 152.9475 L197.2898 154.2807 L197.1533 155.1446 L196.9312 155.7394 L196.1272 155.8892 L194.8059 154.8275 M203.1122 325.5792 L203.5421 325.4361 L205.6634 328.0735 L205.3767 328.647 L203.1694 327.0989 L203.1122 325.5792 M220.8419 350.0358 L221.9562 350.0358 L221.892 349.747 L222.0657 350.0358 L222.9555 353.932 L221.8306 353.692 L220.8419 350.0358 M222.7719 132.9242 L223.3157 132.4752 L224.1865 131.7557 L225.7847 130.5827 L226.1828 129.9289 L226.2926 129.7485 L227.4186 128.8267 L229.732 126.4224 L231.1378 125.0703 L231.8667 124.2071 L233.7446 124.78 L234.3704 125.0202 L234.3213 125.1342 L233.9197 126.0678 L233.354 126.7624 L232.7343 127.365 L231.293 129.0514 L230.2154 130.1512 L228.9598 131.5216 L227.7286 132.7809 L226.159 134.2466 L225.9412 134.3969 L225.7801 134.3269 L224.2557 133.662 L223.3705 133.3147 L222.7719 132.9242 M223.4231 359.4671 L224.2114 358.7839 L227.8052 362.7328 L230.1887 364.7907 L230.9743 364.266 L231.4258 367.6333 L232.2248 370.7891 L233.673 374.6605 L237.4395 379.1736 L237.5894 379.3131 L244.5856 387.6245 L247.1908 388.4499 L246.2743 383.8875 L246.5466 382.5553 L247.3792 380.9535 L248.4363 379.3842 L249.3953 378.967 L252.4013 378.1334 L252.4013 380.0365 L251.383 379.7047 L250.4542 379.9926 L249.9417 380.7616 L250.1301 381.5248 L250.358 382.9074 L251.2229 383.9647 L249.7213 388.576 L250.0499 389.0721 L252.1341 388.7224 L249.9778 391.4102 L253.0025 395.1227 L256.0978 396.7934 L265.3607 399.9451 L267.2979 401.2137 L273.0588 404.186 L278.5204 406.1458 L285.6895 407.8657 L289.9835 410.1182 L287.6134 409.3091 L287.0675 410.1036 L285.1204 409.8092 L283.5235 407.6453 L282.987 408.1446 L282.2009 407.2835 L277.1123 406.2678 L274.6112 405.5562 L274.1623 406.3125 L273.8925 406.2597 L274.2933 405.4139 L272.6794 404.4137 L270.6994 404.3283 L270.2371 403.877 L271.2231 404.0884 L271.0868 403.5558 L268.4469 402.9133 L265.4729 400.2541 L264.9599 400.2541 L264.9599 401.474 L262.7554 400.4493 L263.4047 399.693 L259.2257 398.9448 L249.3365 398.0096 L246.6778 395.6025 L246.3705 393.3498 L244.3184 391.3411 L239.9603 382.6309 L239.0091 383.3791 L235.2148 378.3611 L233.7585 377.2875 L231.5301 374.6361 L231.8507 371.8261 L229.3764 366.7224 L225.2695 362.7328 L223.4231 359.4671 M242.441 292.2638 L242.499 291.968 L242.7053 291.8781 L242.7579 292.0998 L242.9904 292.0364 L243.1489 291.9151 L243.45 291.968 L243.6528 292.2972 L243.7562 292.8915 L243.8067 293.1812 L243.2651 292.9875 L242.8162 292.7129 L242.441 292.2638 M244.3109 434.6943 L244.5006 434.3938 L244.864 434.2556 L245.3755 434.1072 L245.6229 434.0552 L246.0419 434.0214 L246.7582 433.7864 L247.1975 433.7511 L247.4073 434.3044 L247.3041 435.0292 L246.6246 435.3614 L246.3395 435.4333 L245.9809 435.8252 L245.8834 435.6882 L245.593 435.2797 L245.2143 435.0951 L244.7061 435.0923 L244.5284 435.0914 L244.3109 434.6943 M246.3011 297.7986 L246.3011 297.1823 L246.8886 296.4943 L248.0069 296.0212 L246.8889 295.1335 L246.3155 294.9749 L246.3727 294.6164 L246.817 294.2296 L247.7774 294.4301 L248.4368 294.2149 L248.537 293.9428 L249.3111 293.7275 L249.3806 293.4521 L250.0136 293.2691 L250.4293 293.097 L250.8422 292.8594 L250.9955 293.2841 L251.4175 294.5868 L251.7854 295.7242 L251.791 295.8776 L251.231 296.057 L250.944 296.1534 L250.47 296.3336 L250.2188 296.4504 L249.9425 296.6693 L249.267 297.05 L248.0069 297.4975 L247.0607 297.9707 L246.8029 298.028 L246.6164 298.028 L246.3011 297.7986 M249.4714 290.5677 L249.5286 290.0803 L250.7329 290.4099 L250.6038 289.3635 L250.7756 289.3204 L251.1342 290.5104 L252.1231 291.0262 L254.1157 291.3989 L257.1543 291.5567 L256.9967 292.5168 L256.5523 292.1588 L256.0077 292.5742 L255.4915 291.9151 L254.517 291.9005 L254.3305 292.9184 L253.0693 292.6889 L252.9403 293.4057 L251.6502 291.4851 L251.1342 291.2699 L250.8331 292.732 L249.9588 293.0189 L249.6005 292.2878 L250.3601 292.1157 L249.4714 290.5677 M292.6662 410.6224 L293.9915 411.6389 L301.4999 414.6801 L304.3643 414.9322 L303.9929 415.9568 L302.0343 415.8876 L299.4959 415.355 L298.6301 413.9442 L295.1538 412.2081 L295.1538 413.2815 L294.753 412.1349 L293.5319 411.7568 L292.6662 410.6224 M295.4993 202.6973 L295.6121 202.5361 L296.6456 202.3208 L297.6054 204.6273 L297.7831 205.0078 L297.7374 206.1023 L297.7329 207.1499 L297.6196 207.9838 L297.4496 207.9911 L297.0769 207.5536 L296.822 207.0253 L296.1684 205.1291 L296.0116 204.6745 L295.5445 202.9533 L295.4993 202.6973 M296.0559 214.61 L296.4931 213.5514 L298.1893 210.0403 L299.1135 208.6619 L299.1611 208.6435 L299.6821 208.4409 L300.0233 208.3273 L300.919 208.9757 L301.2049 209.1144 L302.0081 209.674 L299.6054 213.9991 L298.134 216.6481 L297.9234 216.5602 L297.6287 216.3726 L296.854 215.8785 L296.3538 215.5599 L296.1361 215.1545 L296.1072 214.9575 L296.0559 214.61 M297.6917 207.9765 L297.8162 207.1454 L297.8424 206.0778 L297.9258 204.9334 L298.1829 204.712 L298.3763 204.6753 L298.6924 204.7958 L298.9481 205.0795 L299.1947 205.7791 L299.3308 206.854 L299.1825 207.8857 L297.6917 207.9765 M301.7877 218.1165 L302.0151 217.5386 L302.15 217.1951 L303.4751 214.9608 L305.7305 211.1791 L306.184 211.0448 L306.4266 211.0761 L306.5968 211.1172 L306.8491 211.2275 L307.124 211.6679 L306.3633 212.7948 L302.9316 219.0236 L301.7877 218.1165 M302.7884 219.9235 L302.8643 219.6341 L303.0101 219.3236 L303.2252 218.8649 L306.2398 213.5685 L307.1326 211.8461 L307.4866 211.6256 L308.1509 211.4274 L308.7876 211.2922 L309.0222 211.3578 L308.6206 212.024 L306.9276 215.0483 L306.5231 216.0316 L305.2028 218.0404 L304.414 219.9613 L304.3911 219.9922 L304.2163 220.2291 L303.9125 220.3137 L302.7884 219.9235 M304.643 220.4444 L304.666 220.1253 L304.6689 220.0826 L305.3968 218.5833 L306.6989 216.1512 L309.3872 211.5926 L309.5906 211.3635 L309.8612 211.3236 L310.2623 211.289 L310.7692 211.4249 L311.2507 211.5902 L311.5331 211.7037 L311.6095 211.8478 L311.5794 211.9235 L311.5529 211.9894 L311.3953 212.0964 L310.6193 212.6638 L310.3871 213.0435 L308.2762 216.443 L307.5593 217.4625 L306.7769 219.0395 L306.2746 220.1383 L305.9943 220.5901 L305.8155 220.6824 L305.5296 220.8298 L304.7935 220.6605 L304.643 220.4444 M310.1894 210.5991 L310.4779 210.344 L311.7581 209.1743 L313.8028 207.1218 L314.3182 206.9671 L314.8114 206.7579 L315.2734 206.9154 L317.6411 208.066 L317.4263 208.3875 L317.2262 208.5577 L316.6453 209.4978 L316.1402 210.0017 L315.3421 210.3676 L314.8579 210.687 L313.8073 211.5193 L313.2176 211.7729 L312.6618 211.6036 L312.5589 211.593 L312.428 211.58 L312.4109 211.5328 L312.3187 211.2772 L312.646 210.5186 L312.4376 210.405 L311.9289 210.8832 L311.6368 211.1299 L311.4257 211.1612 L311.3912 211.1665 L310.9939 211.0216 L310.3385 210.7522 L310.1894 210.5991 M315.9388 251.482 L316.1277 250.6848 L316.1304 250.2775 L316.0534 249.9044 L316.1304 249.6745 L316.3358 249.4926 L316.3949 249.2916 L316.4302 248.7797 L316.5146 248.6006 L316.7396 248.3752 L317.0533 248.177 L317.3769 248.0961 L317.72 247.3945 L318.1143 247.1919 L318.2707 247.0507 L318.2389 246.5079 L318.5504 246.0696 L318.8748 245.3412 L318.9942 245.1239 L319.1273 245.0006 L319.2847 244.9184 L319.523 244.9091 L319.7101 244.9774 L320.0858 245.2509 L320.1798 245.2371 L320.225 244.5168 L320.8933 243.3416 L321.0058 243.2549 L321.2152 243.2497 L321.3395 243.2696 L321.6505 243.3257 L322.1494 243.657 L322.3792 243.9015 L322.3236 244.0261 L321.9474 244.8688 L321.5538 245.3661 L321.3398 245.6367 L320.8898 245.9593 L320.7971 246.0261 L320.1283 246.973 L319.8752 247.3311 L317.8618 250.5172 L317.8194 250.6047 L317.7988 250.5925 L316.4927 249.8059 L316.4286 249.8966 L317.6804 250.7621 L317.0934 251.6105 L316.5806 251.7086 L315.9823 251.6529 L315.9388 251.482 M332.9262 301.5713 L333.0374 301.4257 L333.1835 301.3411 L333.4363 301.3297 L333.6095 301.3753 L333.8489 301.3277 L334.0172 301.2378 L334.1359 301.023 L334.3192 300.8407 L334.5682 300.704 L334.9284 300.1243 L335.1932 299.713 L335.3917 299.3583 L335.6226 298.9214 L335.758 298.7648 L335.9229 298.707 L336.0838 298.698 L336.2868 298.801 L336.6123 299.2338 L336.7643 299.5918 L336.891 300.1203 L336.853 300.61 L336.6393 300.9489 L336.4341 301.2662 L335.8254 301.752 L334.8282 302.5041 L334.3571 302.8048 L334.1257 302.8719 L333.8104 302.8975 L333.4267 303.0415 L333.2196 302.9663 L332.9775 302.7987 L332.9417 302.5306 L332.9994 302.2706 L332.9262 301.5713 M343.7071 463.8301 L344.1677 461.7855 L345.0372 461.8473 L345.7608 461.7201 L345.846 461.705 L347.4311 461.2006 L348.0414 460.9221 L348.2038 460.9758 L347.8469 462.081 L346.6837 462.4379 L345.2988 463.2667 L344.5311 463.9598 L344.5114 463.9602 L344.168 463.9691 L343.7071 463.8301 M344.9667 460.4055 L345.05 459.9632 L345.5903 459.2559 L345.6467 458.612 L345.7784 457.8279 L346.1151 457.4125 L346.1718 457.3861 L346.3946 457.2824 L346.7211 457.2491 L346.9929 457.3938 L347.1548 457.643 L347.2221 457.8511 L347.6165 457.3015 L347.873 457.2413 L348.0617 457.3726 L348.1312 457.595 L348.0232 460.2709 L347.7958 460.3782 L347.492 460.7925 L346.801 460.7542 L346.5181 460.7075 L345.7517 460.7579 L345.3758 460.9055 L345.3226 460.8701 L345.2082 460.7937 L344.9667 460.4055 M347.266 341.8672 L348.1239 339.8369 L348.2672 339.4549 L348.3978 338.9241 L348.6883 338.3157 L348.8344 338.2831 L349.4279 338.4837 L349.6775 338.4763 L349.7274 338.3397 L349.2013 338.1957 L348.9571 338.1131 L348.7329 337.9171 L348.3489 337.6616 L348.59 336.7945 L348.7203 336.3259 L348.6391 335.0728 L349.4568 334.0104 L349.7667 333.41 L350.0251 333.3384 L350.3415 333.5837 L350.4956 333.831 L350.7757 334.3073 L351.2171 334.8295 L351.5393 335.041 L352.0441 335.1399 L353.0448 335.4026 L353.7157 335.6804 L354.2675 335.9985 L354.9026 336.4333 L355.0472 336.9405 L355.4122 336.9421 L355.4883 336.7571 L355.3513 336.0489 L354.058 335.3164 L352.0061 334.6876 L351.6099 334.4712 L351.5025 334.2581 L351.5738 334.0246 L351.6053 333.9221 L352.1007 333.2982 L353.1014 332.1487 L354.4492 331.2103 L354.9497 330.939 L355.6161 330.7186 L356.3087 330.6437 L357.681 330.6519 L358.0361 330.6104 L358.4912 330.5213 L358.7015 330.649 L359.075 331.3848 L359.2623 331.4572 L359.9907 331.2201 L361.0758 330.9789 L361.3874 330.7922 L361.0985 330.1548 L360.9997 329.6814 L360.9628 329.2543 L360.8663 328.9248 L360.5842 328.6596 L360.2814 328.682 L358.7234 329.4666 L358.717 329.9002 L358.5876 330.0487 L358.3624 330.2016 L357.7 330.3452 L355.825 330.4379 L355.3342 330.5103 L354.7722 330.7487 L354.3848 330.998 L353.1976 331.5451 L352.8879 331.7131 L352.7404 331.7241 L352.6776 331.7289 L352.5841 331.7119 L352.5197 331.5841 L352.4593 331.3787 L352.4738 331.3193 L352.6009 330.7926 L352.7436 330.42 L352.8203 330.3448 L352.9571 330.2105 L357.363 328.4107 L357.8841 328.3704 L358.0212 328.3761 L358.1772 328.3826 L358.5208 328.6389 L359.1554 328.645 L360.0647 328.2333 L360.5342 328.3196 L360.9184 328.0743 L361.618 327.9929 L363.8775 328.5168 L364.6387 328.6291 L365.0601 329.6167 L365.1496 329.827 L365.5942 331.334 L365.7222 331.9514 L365.6087 332.193 L365.6204 332.6311 L365.6338 333.1253 L365.7524 333.3413 L365.7861 333.4023 L365.7872 333.5284 L365.7962 334.4867 L365.7257 335.0211 L365.9814 335.9509 L366.1834 337.1252 L366.1409 337.8422 L366.3571 338.5866 L366.5591 338.5312 L366.4747 337.7044 L366.5455 337.2317 L366.5113 336.7489 L366.5204 336.7282 L366.6136 336.5159 L367.0948 336.5814 L367.121 336.282 L366.5182 336.0677 L366.386 335.9692 L366.278 335.2347 L366.2732 334.2312 L366.4501 334.1788 L367.1226 334.265 L367.2009 334.4395 L367.3663 335.717 L367.2228 336.5736 L367.983 336.7115 L368.6588 336.8644 L369.3204 336.8327 L369.8155 336.9718 L369.8607 337.0979 L369.664 337.3582 L368.8613 338.4206 L369.0452 338.493 L369.3637 338.3279 L369.6547 338.1001 L370.0352 337.7296 L370.2233 337.4701 L370.3293 337.3241 L370.7657 337.2818 L371.5801 337.6665 L371.625 337.7511 L371.7298 337.9492 L371.7236 338.386 L371.5823 338.94 L371.7364 339.2011 L372.4205 339.1409 L372.9698 339.2926 L373.4719 339.6254 L373.7816 340.0528 L373.5096 340.5104 L373.5892 340.6503 L373.7517 340.6523 L374.3935 339.6001 L374.829 339.6062 L375.8957 339.7665 L376.5509 339.7848 L377.4826 339.7543 L378.2575 340.2387 L379.2192 340.9655 L379.6959 341.2502 L379.8514 341.4304 L380.0563 341.5223 L380.3153 341.251 L380.7487 341.3165 L380.8807 341.1864 L380.9069 341.0123 L380.8168 340.826 L380.6159 340.6117 L380.6036 340.403 L380.8534 339.9707 L381.0322 339.5558 L381.107 339.3122 L381.0677 339.0445 L381.1826 338.8981 L382.0235 338.9254 L382.5464 339.1995 L382.734 338.9205 L382.7297 338.7737 L382.7348 338.6988 L383.6695 339.0153 L384.2057 339.1544 L384.543 339.2931 L385.1987 339.4663 L385.1976 339.7319 L385.1973 339.7844 L385.2636 339.8336 L385.3138 339.7771 L385.5038 339.5619 L386.0521 339.7063 L386.2645 340.146 L386.3538 340.331 L387.1856 340.8256 L387.1706 341.1754 L386.982 341.6984 L386.3907 342.4175 L386.4684 342.5932 L386.5969 342.7511 L386.6926 342.8686 L387.6129 343.3872 L387.7008 343.5848 L387.6879 343.6361 L387.6032 343.9761 L387.2676 344.2254 L386.9414 344.1843 L384.4529 342.4224 L384.3204 342.1723 L384.7818 341.3983 L385.0493 340.6084 L385.1762 340.0166 L383.9594 339.5603 L383.5802 339.2874 L383.1642 339.1637 L383.0773 339.2764 L383.173 339.4509 L383.5041 339.7238 L384.1576 340.1077 L384.7567 340.3485 L384.8054 340.6035 L384.5964 341.1888 L384.4134 341.4487 L384.2891 341.9588 L383.7742 342.6705 L383.5065 342.9316 L383.1225 343.3542 L382.6089 344.0733 L382.3083 344.0103 L381.8725 343.7532 L380.8379 343.307 L380.8251 343.3201 L380.362 343.329 L379.721 343.4827 L379.1984 343.2863 L380.0323 341.7847 L379.7362 341.6769 L378.9597 343.1923 L378.7414 343.2355 L378.4307 343.1777 L376.4267 342.2056 L375.8404 344.0367 L375.0522 346.3265 L373.725 346.6519 L373.2167 347.5324 L372.7654 348.0502 L372.1287 348.1812 L371.9713 349.143 L371.6199 349.9377 L371.3041 350.7756 L370.5578 351.9945 L370.464 352.3853 L369.974 353.0381 L369.4903 353.335 L369.0412 353.2125 L368.623 353.0747 L368.4143 352.8579 L368.4322 352.4605 L368.9893 349.6844 L368.3237 348.247 L368.3836 346.4197 L368.1735 346.3436 L367.7073 348.5155 L366.0124 348.6696 L365.7725 348.8034 L365.1483 349.152 L364.779 349.3582 L360.7458 348.9222 L360.0572 348.7762 L357.995 347.9908 L356.457 347.1233 L355.9934 347.3799 L355.8007 347.9001 L355.0659 347.5394 L354.6151 347.2547 L354.4163 346.6039 L354.3418 345.6286 L354.1163 345.2878 L354.0906 344.9628 L354.443 343.7719 L354.7396 343.233 L355.1877 343.0968 L355.7684 343.0589 L358.0698 345.2166 L358.287 345.1527 L358.6718 343.9574 L358.3047 343.3648 L358.5772 342.4334 L360.2924 341.8404 L361.3957 341.3706 L361.4825 340.6072 L362.577 339.6254 L363.6057 339.2516 L363.6127 340.5295 L364.0963 340.3843 L364.2181 339.5566 L364.0105 338.5451 L363.0128 338.4259 L361.3553 338.6854 L360.8725 338.7863 L360.0514 339.4696 L358.0677 340.2428 L356.6093 340.5763 L354.9136 340.8268 L353.7782 341.9555 L353.2155 342.5672 L352.9419 342.9365 L352.6402 343.1773 L352.2397 343.4368 L351.5773 343.6751 L350.8468 343.7227 L350.4366 343.643 L349.5618 343.2513 L349.0159 342.7909 L349.0295 342.0678 L349.224 341.6891 L349.03 341.6476 L348.6399 342.2654 L348.3957 342.5017 L348.0943 342.4863 L347.3202 342.0995 L347.266 341.8672 M350.8459 361.6604 L351.8771 357.576 L352.0462 357.2222 L353.9212 357.8176 L354.0527 357.6643 L354.1793 357.443 L354.3591 357.4865 L354.5774 357.5431 L354.9141 357.8005 L355.339 358.2511 L355.7457 358.6977 L356.1857 359.1097 L356.5438 359.4411 L357.2097 359.8084 L357.6839 360.1524 L358.5868 360.7547 L359.4488 361.3473 L359.5322 361.4457 L359.5792 361.5774 L359.6396 361.8003 L359.6361 361.9784 L359.5325 362.2005 L359.3735 362.2721 L359.0101 362.4331 L358.8957 362.7084 L358.6029 362.9142 L358.0383 363.1086 L357.1511 363.2672 L355.9207 363.4352 L355.8544 363.451 L355.5797 363.4388 L354.9587 363.3392 L354.0422 363.011 L352.939 362.6751 L352.1376 362.4128 L351.6011 362.222 L350.8569 361.8735 L350.8459 361.6604 M355.2655 357.4121 L355.4135 357.2128 L355.5156 357.1055 L355.7962 357.0083 L356.6819 356.5369 L356.8845 356.5072 L357.0063 356.5894 L357.1552 356.8261 L357.53 357.2958 L358.073 357.781 L358.3613 358.315 L358.7525 358.6196 L359.5696 359.0385 L359.9464 359.4708 L360.4471 359.7445 L360.7017 359.873 L361.2271 359.8364 L361.8339 359.9535 L362.0207 360.0963 L362.2358 360.4302 L362.3189 361.3493 L362.849 362.0476 L362.8589 362.2159 L362.6884 362.3595 L362.1735 362.6682 L361.9245 362.9565 L361.6452 363.2379 L361.3628 363.2981 L361.1386 363.0501 L360.3701 362.0228 L359.6693 361.1964 L358.4655 360.1036 L357.8205 359.7831 L357.4616 359.5163 L356.9478 359.2874 L356.7426 359.0125 L356.5083 358.7957 L356.1777 358.4785 L355.6968 357.888 L355.2655 357.4121 M380.2169 350.8081 L380.253 350.6389 L380.3423 350.5031 L380.4887 350.3949 L380.6314 350.2257 L380.7292 350.0699 L380.7203 349.9068 L380.7161 349.7779 L380.7604 349.6286 L380.7738 349.4798 L380.7826 349.2968 L380.8184 349.1341 L380.8363 348.9714 L380.8761 348.7274 L381.0276 348.6322 L381.1831 348.5781 L381.3037 348.4838 L381.313 348.3003 L381.3619 348.1108 L381.4373 347.9481 L381.5174 347.8326 L381.6243 347.7244 L381.8164 347.602 L381.9762 347.5821 L382.1277 347.5686 L382.2389 347.4666 L382.3591 347.3783 L382.493 347.297 L382.5459 347.1274 L382.5595 346.9244 L382.4617 346.789 L382.3949 346.6059 L382.3588 346.4502 L382.3367 346.2802 L382.3679 346.1041 L382.3679 345.9284 L382.4395 345.7852 L382.5106 345.6567 L382.5865 345.494 L382.6576 345.3655 L382.738 345.2365 L382.8534 345.108 L382.9384 345.182 L383.0138 345.3378 L383.0806 345.4533 L383.1169 345.4802 L383.1703 345.5074 L383.5262 345.8124 L383.406 345.8739 L383.3344 346.0296 L383.3702 346.2057 L383.4771 346.3208 L383.6465 346.3619 L383.7667 346.2672 L383.8824 346.2265 L383.9538 346.3749 L384.0251 346.5787 L384.0607 346.7345 L384.0473 346.8902 L383.9848 347.0395 L383.9981 347.2026 L383.9848 347.3653 L384.1721 347.4121 L384.2787 347.541 L384.323 347.6903 L384.3094 347.8261 L384.3145 347.9615 L384.2611 348.0295 L384.1764 348.0701 L384.0649 348.1242 L384.0115 348.2121 L383.9404 348.3142 L383.9094 348.4768 L383.8822 348.6391 L383.8381 348.768 L383.8108 348.9039 L383.7932 349.0597 L383.6954 349.1813 L383.6999 349.3513 L383.6289 349.4867 L383.5345 349.588 L383.4637 349.6966 L383.3435 349.758 L383.1963 349.8056 L383.0271 349.8324 L382.8938 349.8662 L382.7909 350.0085 L382.7824 350.1781 L382.7383 350.3066 L382.6709 350.4624 L382.5328 350.4087 L382.3594 350.3815 L382.1852 350.3343 L382.0035 350.2119 L381.8829 350.3066 L381.8031 350.4494 L381.7403 350.5714 L381.593 350.6178 L381.437 350.6332 L381.329 350.7268 L381.2283 350.9452 L381.2149 351.1205 L381.1123 351.2693 L381.0944 351.4458 L381.041 351.6016 L380.8943 351.7102 L380.7428 351.6154 L380.7289 351.4324 L380.7292 351.2697 L380.5737 351.2286 L380.4622 351.0594 L380.2931 350.9911 L380.2169 350.8081 M380.5191 337.3139 L380.5485 337.0621 L380.7356 337.0048 L381.0586 336.9718 L381.6761 337.0727 L382.7607 337.1422 L383.0001 337.1919 L383.1361 337.2386 L383.2259 337.2992 L383.2796 337.4131 L383.0439 338.0432 L383.2967 338.0834 L383.5439 337.7328 L383.9629 337.523 L383.9006 337.0483 L384.6549 336.4118 L384.9152 336.4512 L384.7458 337.5335 L384.9243 337.6954 L385.3462 337.3045 L386.2584 337.889 L386.866 338.3161 L386.7343 338.8233 L386.3824 339.4366 L385.2062 338.8888 L384.2603 338.6268 L383.8774 338.5744 L383.2192 338.4552 L383.2045 338.3336 L382.9459 338.2795 L382.8911 338.3836 L380.9619 338.3303 L380.5191 337.3139 M381.5407 284.5856 L382.357 284.2968 L382.4425 283.8143 L382.3679 283.3948 L383.3633 282.6434 L384.0673 283.9689 L384.3169 285.1552 L385.0742 285.8635 L385.0023 286.0539 L383.1837 287.6414 L383.064 287.6389 L382.9328 287.5584 L381.8423 285.4205 L381.5407 284.5856 M383.8736 344.064 L383.9268 343.9009 L384.0828 343.955 L384.2923 344.0566 L384.4257 344.1319 L384.5638 344.2669 L384.7329 344.3352 L384.8668 344.4296 L385.0314 344.5382 L385.2273 344.5585 L385.3387 344.626 L385.5084 344.7554 L385.6505 344.8432 L385.7798 344.9652 L385.8819 345.1011 L386.0024 345.243 L386.016 345.372 L385.9757 345.494 L385.9666 345.5147 L385.9888 345.5684 L386.1315 345.5281 L386.2515 345.5619 L386.4209 345.6022 L386.5189 345.6839 L386.59 345.8328 L386.6255 345.9548 L386.59 346.0906 L386.5326 346.2326 L386.4476 346.3749 L386.3004 346.7955 L386.2696 346.9647 L386.2381 347.1416 L386.2199 347.3246 L385.5765 347.4466 L385.6708 348.1905 L385.0744 348.245 L384.9395 348.0543 L384.7752 347.8123 L384.6661 347.5544 L384.5149 347.2229 L384.4478 347.0936 L384.4259 346.9447 L384.3637 346.7821 L384.4748 346.6393 L384.5058 346.4766 L384.3898 346.3888 L384.2701 346.3343 L384.1852 346.1923 L384.7474 345.7132 L385.3991 346.0605 L385.4466 345.9576 L384.8267 345.494 L384.9202 345.3988 L385.0178 345.25 L385.1647 345.1344 L384.2608 344.4028 L384.1005 344.3145 L383.9401 344.2197 L383.8736 344.064 M383.9348 343.0044 L384.2025 342.7222 L384.3482 342.662 L384.598 342.7803 L385.2131 343.2135 L385.9963 343.7382 L386.4211 344.0635 L386.7343 344.2893 L386.9139 344.4564 L386.9411 344.5785 L386.8572 344.7948 L386.7359 345.0258 L386.5646 345.1092 L386.0238 344.9177 L385.2492 344.382 L384.2779 343.6328 L384.0834 343.2928 L383.9514 343.1183 L383.9348 343.0044 M387.2909 387.8782 L387.5057 387.5952 L389.2137 385.8247 L389.5605 385.4998 L391.5036 385.6555 L392.9625 385.7726 L393.5635 385.821 L393.7438 385.9788 L393.8395 386.0963 L393.8146 386.2842 L393.5258 386.7595 L393.3981 386.9702 L393.0649 387.422 L392.4936 388.3487 L392.4038 388.8098 L392.3357 389.0765 L392.2705 389.3319 L392.3758 390.0996 L392.3154 390.3501 L392.1692 390.4245 L391.9271 390.381 L391.8039 390.3164 L388.7853 388.7309 L387.3865 387.9961 L387.2909 387.8782 M392.7771 382.6086 L393.0854 382.2231 L393.2565 381.9319 L393.4959 381.6664 L393.6893 381.5911 L394.3111 381.4846 L394.8372 381.9059 L395.2145 382.075 L395.5453 382.1116 L396.2804 381.5452 L396.4217 381.6798 L397.1087 382.2434 L397.602 382.7175 L395.8563 384.4348 L395.4526 384.7975 L394.1796 384.1314 L393.3823 383.469 L392.8247 382.8826 L392.7771 382.6086 M395.0649 360.6685 L397.2437 359.7652 L398.5228 360.0959 L398.5241 360.0963 L398.9623 359.9222 L399.1755 359.8376 L399.7287 359.7156 L400.1965 359.6392 L400.4822 359.8779 L400.9281 360.0044 L401.6314 359.7234 L401.9857 359.4492 L402.3406 358.9535 L402.3967 358.4858 L402.3657 357.4898 L402.2195 356.6439 L402.3024 356.5064 L402.4162 356.3169 L402.5811 356.0428 L402.9137 355.7235 L403.6801 355.1932 L403.8992 355.1794 L404.2944 355.4274 L404.6388 355.9021 L404.6973 356.909 L404.809 357.1962 L405.0639 357.5089 L405.1654 357.7273 L405.2226 358.1161 L405.1614 358.8059 L405.0212 360.3875 L404.7927 360.8881 L404.7299 361.4111 L404.6412 362.8093 L404.2316 362.9805 L403.905 363.0736 L403.5187 363.1306 L402.7542 362.9866 L401.7987 362.9638 L400.86 363.0557 L399.8334 363.1834 L399.7645 363.2054 L398.6053 363.6353 L397.2006 364.3665 L396.1398 362.8471 L395.0649 360.6685 M400.3122 381.3337 L400.3259 381.1223 L400.7026 380.6323 L400.9591 380.5944 L404.1271 382.413 L405.112 382.9965 L405.1318 383.0343 L405.1988 383.1612 L405.1927 383.4206 L404.9752 383.848 L404.238 385.0285 L403.8978 386.1024 L403.8115 386.1305 L403.7327 386.1561 L403.5374 386.03 L403.446 385.8015 L403.3845 385.6486 L403.2817 385.3912 L403.5018 384.8081 L403.5721 384.6629 L403.5689 384.4002 L403.5646 384.2559 L403.5213 384.0322 L402.172 382.8237 L400.4039 381.6895 L400.3122 381.3337 M403.7487 375.5003 L403.7506 375.4645 L403.7554 375.3673 L404.3147 374.1778 L404.3539 374.1579 L404.4608 374.1038 L405.3672 374.593 L405.7942 374.7821 L407.1462 375.325 L407.4898 375.4043 L407.6999 375.5776 L408.2348 376.3339 L408.2204 377.1151 L408.121 377.4453 L408.0849 377.4506 L407.9713 377.4303 L407.3848 377.0553 L407.0829 376.9813 L406.8902 377.3018 L407.3362 377.5539 L408.0138 377.721 L408.0841 377.8219 L408.16 378.0891 L408.1498 378.9569 L408.0122 380.2264 L407.7298 380.5652 L407.4396 381.1036 L406.4494 380.4712 L405.6309 379.9487 L405.7212 379.3025 L405.7602 378.9207 L405.4049 378.6071 L405.2376 378.5262 L404.3395 378.1013 L404.2067 377.9097 L404.1469 377.6816 L403.8147 376.909 L403.8567 376.5922 L403.9294 376.4262 L403.9865 376.2961 L405.1109 376.8028 L405.4936 376.924 L406.1172 377.2396 L406.2872 377.1403 L406.3614 377.0179 L406.3323 376.8183 L406.0328 376.7882 L405.8802 376.7548 L405.7252 376.7036 L405.3773 376.5389 L404.8961 376.3587 L403.889 375.7431 L403.7487 375.5003 M405.4249 362.3725 L405.4377 362.0821 L405.5157 361.3574 L405.8495 359.9157 L406.0461 358.866 L406.9469 355.9496 L407.116 355.1098 L407.1818 354.7828 L407.2178 354.7775 L407.286 354.7812 L407.4038 354.7873 L407.5516 354.9138 L408.5675 356.4344 L408.952 357.5467 L408.9907 357.5598 L409.0602 357.5309 L409.0957 357.3959 L409.0378 357.1258 L408.7134 356.1717 L408.0173 355.1981 L407.757 354.6795 L407.683 354.3009 L407.7007 354.1683 L407.8316 354.0231 L408.0015 353.9568 L408.0999 353.9979 L408.3633 354.0333 L408.6001 353.8873 L408.9747 353.4997 L410.0961 352.7025 L411.0728 352.0486 L411.6986 351.7419 L413.1297 354.3403 L413.3461 354.3342 L413.3282 354.0406 L413.2943 353.9344 L412.9085 353.0633 L412.074 351.6126 L412.9814 351.0135 L413.9324 350.4372 L414.7987 351.4857 L414.917 351.4129 L415.0068 351.2697 L414.975 351.0517 L414.4211 350.1248 L419.6949 344.8176 L419.9354 344.8396 L420.2672 344.9197 L420.9614 345.3838 L420.9868 345.5456 L420.7226 345.7518 L420.4615 345.9829 L420.31 346.172 L420.4487 346.8585 L420.5187 347.336 L420.3429 348.4927 L420.3864 348.7046 L421.759 347.7574 L422.1692 347.2343 L422.1133 347.1139 L421.8825 346.8524 L421.8229 346.7072 L421.9442 346.4839 L422.2902 346.4843 L422.5743 346.2367 L422.5671 345.8397 L422.3316 345.5863 L421.6134 345.555 L421.5348 345.3964 L421.188 345.0197 L420.5617 344.661 L420.1454 344.467 L420.7741 343.5779 L421.7275 342.6132 L423.456 341.4048 L423.6348 341.5191 L424.7824 340.3449 L425.863 339.3171 L426.4613 338.7224 L426.6678 338.6826 L426.6459 338.4275 L426.4594 338.1522 L426.7483 337.5425 L426.9254 338.0212 L427.2466 338.212 L427.1734 338.5666 L427.2017 338.8509 L428.0637 339.3956 L428.2026 339.5192 L428.3095 339.6144 L428.736 339.8853 L429.474 340.3892 L429.8227 341.114 L429.8216 341.3625 L429.8211 341.4804 L430.0081 342.2288 L430.4295 342.8836 L430.8359 343.7703 L430.9278 344.1465 L430.9738 344.5854 L430.9156 345.4472 L430.8076 345.9703 L430.822 346.3208 L430.8538 346.5384 L431.1967 347.8054 L431.3001 348.2853 L430.3793 349.6221 L429.9606 350.5637 L429.3105 351.6866 L429.059 352.0083 L429.1472 352.0067 L429.7391 351.0395 L430.4001 349.7409 L431.3177 348.4565 L431.4585 348.8128 L431.5031 349.0426 L431.3431 349.8129 L430.9904 350.072 L430.9567 350.2688 L431.3423 350.9143 L430.0159 352.9059 L429.6506 353.884 L429.3246 354.4013 L429.0988 354.9223 L428.7918 355.6959 L428.3226 357.55 L428.014 358.0352 L427.8387 357.8949 L427.696 357.55 L427.9413 355.6251 L428.13 354.5477 L427.9814 353.786 L427.9258 353.4061 L427.8072 353.1243 L427.4352 352.9238 L426.9291 353.0429 L426.6056 353.0979 L426.8899 354.1772 L426.5727 354.2793 L426.5211 354.3058 L426.3408 354.3322 L426.2117 354.3326 L425.8951 354.0081 L425.6255 353.9039 L425.4643 354.2899 L425.6728 355.0614 L425.5266 355.3241 L425.2818 355.4161 L425.0988 355.4242 L425.013 355.3441 L424.9371 355.0769 L424.9949 354.7161 L424.9759 354.4591 L425.0328 354.2866 L425.1063 354.1838 L425.2319 353.91 L425.2613 353.6323 L425.261 353.2516 L424.9192 353.3167 L424.6558 353.9121 L424.2932 354.2069 L424.2462 354.6405 L424.2512 355.8089 L424.0436 356.155 L423.9651 356.1294 L423.8066 356.1046 L423.4862 354.9939 L423.4283 354.7238 L423.3879 354.2777 L423.2182 353.9995 L422.9887 353.3992 L422.7039 351.9566 L422.8519 351.5821 L422.8385 351.4914 L422.6686 351.5906 L422.5374 351.7025 L422.2838 351.7716 L422.2697 351.297 L422.3939 351.0127 L422.4479 350.6275 L422.5446 350.3656 L422.5024 350.0171 L422.5647 349.7641 L422.3878 349.6128 L422.1198 349.5192 L421.9242 349.7698 L421.7604 349.7828 L421.5741 349.6437 L421.3898 349.139 L421.6284 348.8819 L421.6428 348.6025 L420.8364 349.0096 L420.4658 349.5741 L420.3188 350.0061 L420.3632 350.2326 L420.6678 350.5018 L420.8733 350.643 L420.8676 351.1078 L420.7132 351.8171 L420.1697 352.6395 L419.8103 353.0824 L419.5172 353.3484 L418.5986 353.6599 L418.5972 353.8267 L418.8762 353.9963 L419.0066 354.0544 L419.1196 354.0711 L419.0568 354.6238 L418.9088 355.2001 L418.9494 355.8943 L419.3499 357.2458 L419.7481 358.0368 L420.4171 357.698 L421.0646 357.5138 L421.968 357.4874 L421.5196 358.8339 L421.5031 359.226 L421.5271 359.3895 L421.3379 359.921 L421.3181 359.9767 L421.0563 360.3309 L420.7717 360.7812 L420.7426 360.7934 L420.4936 360.8962 L420.2948 360.9255 L420.0134 360.893 L419.9292 360.5713 L420.0396 359.8128 L420.0056 359.7063 L419.9589 359.6392 L419.8704 358.9096 L419.914 358.829 L419.8742 358.5566 L419.6064 358.3016 L419.3817 357.8245 L419.0819 357.5142 L418.676 357.2336 L418.4118 356.1729 L418.3322 355.8366 L418.3682 355.4376 L418.4305 354.7458 L418.3204 354.3725 L418.1537 353.9889 L418.0187 353.823 L417.3879 353.1438 L416.975 353.1674 L416.6453 353.5599 L415.9102 353.6237 L415.5351 353.7787 L414.8895 354.4282 L414.6413 354.6978 L414.0224 355.7561 L414.3826 356.0257 L414.6872 355.9919 L414.9381 356.0436 L415.3721 357.0441 L415.5754 357.9791 L418.4628 361.7153 L418.6589 361.8971 L419.304 362.7036 L420.1507 363.6446 L420.1948 363.8293 L419.9439 364.9082 L419.1156 367.406 L418.5662 369.6423 L418.4927 370.6508 L418.4949 371.0424 L418.9652 371.8123 L419.9658 372.4816 L421.0929 373.1063 L421.6054 373.4597 L421.5226 373.6752 L420.6651 373.5056 L419.9511 373.16 L417.522 371.0416 L416.4222 370.1246 L416.3877 369.6878 L416.1932 368.8627 L416.3046 368.3637 L416.6253 367.6626 L416.5748 367.393 L416.3116 367.332 L416.1764 367.3621 L415.9161 367.4747 L415.682 367.639 L415.4397 367.7492 L415.1169 367.6854 L414.474 367.3405 L413.8864 367.1795 L413.6371 367.5154 L413.6085 367.6972 L413.4103 367.6264 L413.0252 367.262 L411.2475 365.8244 L410.2126 364.678 L409.7341 364.4332 L409.4912 364.4133 L409.4578 364.4368 L409.4557 364.5483 L409.6582 364.7968 L409.9508 365.0322 L410.9891 366.0758 L412.7407 367.5809 L415.4482 369.9465 L415.8493 369.9871 L416.2159 370.3767 L417.3694 371.3523 L418.2245 372.1156 L418.6683 372.5626 L420.0906 373.8375 L420.2745 373.959 L420.6803 374.0847 L421.3155 374.1396 L422.1625 374.3198 L422.5224 374.5743 L422.3359 374.7488 L421.9982 375.3124 L421.3395 375.9968 L421.0841 376.7443 L420.9807 377.2692 L420.6568 377.5767 L420.3605 377.6946 L419.7294 378.1114 L419.1909 378.0655 L419.1583 378.0626 L418.7145 377.7251 L418.7535 377.5641 L418.9913 377.4514 L419.243 377.3591 L419.2965 376.8728 L419.3 376.8406 L419.0897 376.336 L418.3864 375.5857 L418.2277 375.4999 L418.1347 375.4495 L417.8982 375.3214 L417.4127 375.101 L417.2994 375.2579 L417.2019 375.5495 L416.9662 375.6508 L416.4251 375.7305 L415.8458 375.8992 L414.1194 376.2404 L412.9694 376.4653 L412.3706 376.5535 L411.9369 376.4104 L411.4701 375.9655 L409.772 375.0143 L409.3923 374.6601 L408.8216 374.3023 L408.8066 373.5565 L409.5965 373.5142 L410.001 373.5837 L410.1277 373.3173 L410.3628 372.2295 L409.4979 372.0355 L408.4096 372.1295 L408.2001 372.0827 L408.2108 370.8468 L407.982 369.0843 L406.6719 369.1222 L406.5009 368.6419 L406.2011 367.3499 L405.4909 363.9297 L405.5529 363.1773 L405.6346 363.0252 L406.4822 363.3254 L406.7772 363.3522 L406.9744 363.2896 L407.014 363.1066 L406.9378 362.9362 L405.5096 362.5482 L405.4249 362.3725 M405.5125 370.6419 L405.5216 370.3902 L405.5831 370.3068 L405.7041 370.2519 L405.8954 370.2978 L405.9601 370.3625 L406.0357 370.5 L406.4552 372.6089 L406.8301 373.9086 L407.0751 374.4474 L406.8558 374.4759 L406.4325 374.4052 L405.9467 373.7793 L405.8329 373.6325 L405.6405 372.9436 L405.6825 371.5971 L405.7923 371.3877 L405.7068 371.1242 L405.555 370.9314 L405.5125 370.6419 M406.6305 370.2478 L407.3635 370.0697 L408.0101 369.9302 L408.0961 373.007 L407.4845 373.1083 L407.1468 373.1433 L406.9065 371.9814 L406.6305 370.2478 M408.1488 374.9509 L408.3024 374.8622 L408.424 374.7919 L408.9859 375.1563 L410.121 375.7614 L411.6582 376.7211 L412.1146 376.9679 L412.3684 377.1412 L412.7781 377.3729 L413.4127 377.961 L413.9914 378.8385 L414.1221 379.126 L414.1424 379.3155 L413.9821 379.3538 L413.5262 379.1586 L412.3837 379.2086 L411.2216 379.1191 L410.8539 378.8763 L409.3779 377.7389 L409.1112 377.5555 L408.9808 377.2965 L408.6287 376.4018 L408.1488 374.9509 M408.8392 380.2309 L408.89 380.0751 L409.1102 379.074 L409.0538 378.3875 L409.4212 378.2037 L410.6498 379.3704 L410.7171 379.4534 L410.7332 379.5624 L410.7128 379.6766 L410.634 379.8922 L410.5755 380.1235 L410.4959 380.2093 L410.1849 380.4781 L409.1738 380.627 L409.0313 380.5367 L408.9151 380.4981 L408.8603 380.3765 L408.8392 380.2309 M415.8389 345.1328 L416.5096 344.6643 L416.9269 345.4175 L417.1388 345.204 L417.1666 344.8892 L417.1514 344.7302 L417.1089 344.4394 L417.0688 344.1669 L416.886 343.6743 L416.8775 343.4901 L416.877 343.3599 L416.9045 343.1704 L416.9454 343.0716 L417.4365 342.6465 L417.8539 342.4737 L417.9468 342.4785 L418.1745 342.5119 L418.3867 342.6766 L418.5387 342.8096 L418.7148 342.9792 L418.9414 343.5706 L419.0274 343.9053 L418.9005 344.2974 L418.8102 344.5362 L418.7263 344.7765 L417.1188 345.8722 L416.66 345.9703 L416.2627 346.5006 L415.8389 345.1328 M418.0577 337.4355 L418.1096 337.2155 L418.1235 337.1561 L418.3028 337.0963 L418.6058 337.052 L418.8497 337.15 L419.3793 337.3692 L419.8902 337.3773 L420.4997 337.2773 L420.9473 337.1382 L421.6856 336.8522 L421.8322 337.1435 L421.7841 338.2356 L421.9161 339.1735 L422.1518 339.8995 L422.6635 340.9017 L422.7156 341.3548 L422.4864 341.6293 L422.333 341.7147 L421.8918 342.0234 L421.6094 342.2349 L421.2957 342.4944 L421.2233 342.505 L420.7308 342.9044 L420.1574 343.1631 L419.7804 342.0759 L419.499 341.2116 L418.7642 339.542 L418.1983 338.0692 L418.0577 337.4355 M421.2041 376.996 L421.2252 376.9211 L421.3499 376.6572 L421.4964 376.2847 L421.592 376.2176 L421.6725 376.2933 L421.7048 376.4502 L421.6898 376.5999 L421.6409 376.7284 L421.5039 376.863 L421.3125 376.9903 L421.2041 376.996 M422.6218 333.0814 L422.9158 332.6575 L423.2856 332.3631 L423.4242 332.1609 L423.4924 332.0617 L423.6439 331.8408 L423.6407 331.4743 L423.3107 329.8522 L423.3101 329.7224 L423.3409 329.6805 L423.3692 329.6208 L424.0311 329.3307 L424.857 329.6545 L425.0614 330.0906 L425.2273 331.8302 L425.4077 331.3084 L425.5942 329.814 L425.9571 329.2551 L425.844 328.719 L425.8579 327.8807 L425.848 327.879 L425.719 327.5284 L425.4729 327.5349 L424.2812 328.3053 L423.3096 329.0924 L423.0595 329.1392 L422.9 329.0635 L422.7365 328.959 L422.6806 328.7788 L422.8401 328.5868 L423.4638 327.4646 L424.0164 326.7324 L424.5211 326.152 L424.9425 325.7509 L426.2144 324.9882 L426.3434 324.9874 L426.4239 325.0313 L426.5732 325.5479 L426.9521 326.3667 L428.3264 328.575 L429.0505 329.4894 L429.9368 330.25 L430.0717 330.4155 L430.2641 330.8805 L430.0207 331.1355 L429.4649 331.3897 L428.6633 332.0625 L428.0228 333.0887 L427.5028 333.4015 L427.0871 334.1096 L426.5008 335.2159 L426.1906 335.9676 L425.8539 336.864 L425.5068 337.9167 L424.7683 338.8387 L424.4976 339.13 L424.1374 339.2125 L423.7906 338.9827 L423.6511 338.6594 L423.7011 338.1945 L423.3649 337.045 L423.4868 336.7298 L423.8448 336.4093 L424.2189 336.1958 L424.5115 335.3599 L424.3613 334.8072 L424.2504 334.7242 L423.207 334.8881 L422.7068 334.2202 L422.6218 333.0814 M427.3014 243.0995 L427.6068 242.6922 L428.0172 242.3727 L428.5679 242.1807 L429.1443 242.717 L429.4462 242.7394 L430.7766 243.3384 L432.1295 243.707 L432.8357 243.8267 L433.0222 243.766 L433.3976 243.7624 L433.9892 243.8491 L435.0751 243.7144 L436.3042 244.1221 L436.1827 244.5506 L435.6763 245.1724 L435.9099 245.2305 L436.9546 244.8086 L438.2329 244.7772 L439.9184 244.4773 L440.4884 244.693 L440.6802 245.0718 L440.5814 245.5557 L439.9949 245.7567 L437.9008 246.0354 L437.5254 246.0651 L436.9808 245.8454 L436.6567 245.9488 L436.4491 246.1937 L435.329 246.4769 L434.8181 246.6889 L434.3155 246.9591 L433.2416 247.3058 L432.289 247.5239 L432.1289 247.4364 L431.6589 247.3245 L431.3658 247.1874 L431.4123 247.0743 L432.2358 246.4326 L432.8068 245.8666 L433.0743 245.5288 L433.2854 245.329 L433.4243 245.2603 L433.2798 245.2574 L433.1315 245.3274 L432.8194 245.6912 L432.6134 245.8906 L432.5222 245.9569 L432.4429 245.9736 L432.2962 245.9565 L432.1923 246.0342 L432.0969 246.2698 L431.9186 246.4651 L431.6736 246.6263 L431.2776 246.8102 L430.9874 246.8961 L430.4846 246.9075 L430.4266 246.9254 L430.2628 246.905 L429.7901 246.6491 L429.3016 246.4106 L428.8132 246.0721 L428.5874 245.8133 L428.4191 245.1687 L428.1885 244.903 L427.9696 244.3398 L427.4753 243.7579 L427.3455 243.3998 L427.3014 243.0995 M430.2443 265.0807 L430.3336 264.6523 L430.7649 264.2011 L431.9438 264.2556 L432.2005 264.6682 L432.7809 264.8598 L433.0684 264.7849 L433.2731 264.4961 L431.8334 263.7022 L431.322 263.6851 L431.0657 263.3198 L430.4119 262.8262 L430.5372 262.3644 L430.7771 261.9274 L431.0059 261.8794 L431.9272 262.5198 L432.8795 262.8921 L433.4401 263.218 L433.5264 263.4308 L433.5106 264.254 L433.3129 265.003 L433.4139 265.1267 L433.8759 265.2728 L433.9892 265.0812 L434.5907 263.6839 L435.0308 263.8528 L435.4241 264.553 L435.5235 264.9469 L435.7712 264.9937 L435.9366 264.9815 L436.0015 264.9766 L436.7024 263.8113 L437.0794 262.9943 L437.325 262.4039 L437.2606 261.9901 L437.3498 261.6922 L437.6435 261.608 L437.7047 261.5588 L438.0098 261.3138 L438.3703 261.2829 L438.5637 261.3439 L438.6949 261.385 L438.3665 262.9153 L437.4457 265.2118 L436.5819 265.2561 L435.9579 265.3192 L435.174 265.3985 L434.9757 265.5194 L435.1769 265.6109 L435.8059 265.8965 L435.7971 265.9148 L435.4337 266.6578 L435.1123 267.0098 L435.1021 267.0085 L434.386 266.9353 L433.4139 266.6366 L432.402 266.2314 L431.2071 266.124 L430.4236 265.9844 L430.2443 265.0807 M430.418 251.0645 L430.5174 250.8614 L430.7093 250.7369 L431.3639 250.9253 L431.5494 250.7316 L431.5093 250.3825 L431.2661 250.1815 L431.3655 249.8787 L431.5985 249.456 L431.8155 249.3091 L431.8569 249.281 L433.3089 250.258 L433.3797 250.1884 L432.126 249.2045 L432.3454 248.8395 L432.554 248.6531 L432.8229 248.6507 L433.0975 248.7398 L433.6384 248.7304 L434.0146 248.6307 L434.4023 248.5587 L434.4637 248.7272 L434.2169 249.7103 L433.7517 250.3113 L433.5339 250.284 L433.5136 250.3719 L433.6576 250.5505 L433.6592 250.6148 L433.6627 250.7568 L432.4993 253.2911 L432.2692 253.584 L431.0906 252.4337 L430.5979 251.4856 L430.418 251.0645 M441.5235 244.3593 L441.6884 244.0505 L442.898 243.2956 L444.3874 242.4106 L444.5149 242.365 L444.8427 242.2474 L445.2644 242.4073 L445.6443 242.9876 L445.6101 243.2069 L445.1901 243.5907 L445.0116 243.7538 L444.5758 244.1026 L444.0355 244.4411 L443.2764 244.9742 L442.7217 245.2151 L442.1846 245.3237 L441.9315 245.283 L441.6871 244.8977 L441.5235 244.3593" stroke-dasharray="" fill="none" fill-opacity="1.0" stroke="#ff0000" stroke-opacity="1.0" stroke-width="1.0px" stroke-linecap="butt" stroke-linejoin="miter" stroke-dashoffset="0.0px"/>
</g>
</svg>