<?xml version="1.0" standalone="no"?>
<!DOCTYPE svg PUBLIC "-//W3C//DTD SVG 1.1//EN" "http://www.w3.org/Graphics/SVG/1.1/DTD/svg11.dtd">
<svg width="512px" height="512px" version="1.1" xmlns="http://www.w3.org/2000/svg" xmlns:inkscape="http://www.inkscape.org/namespaces/inkscape">
<g id="layer" inkscape:groupmode="layer" inkscape:label="layer">
<path d="M0.0 366.4716 L3.3477 366.7667 L7.1501 366.6064 L9.4562 369.0587 L23.2476 370.7278 L24.3228 372.7938 L24.9373 373.5486 L25.117 375.9523 L26.4431 377.1819 L26.4144 374.2707 L28.9531 371.6091 L31.2392 373.4279 L30.6781 375.3709 L26.3906 377.7544 L23.2688 379.2786 L20.1432 378.3701 L14.9389 379.2981 L14.8148 378.8179 L11.4365 378.272 L8.9526 378.4813 L3.4839 380.293 L4.0389 381.4924 L4.3723 381.9514 L9.7638 380.2131 L11.872 381.0417 L13.97 382.1229 L17.59 383.2768 L25.3955 386.3168 L25.59 397.357 L24.1469 405.8869 L26.7765 406.7562 L27.3743 404.7987 L28.8953 404.9584 L28.3277 407.3181 L32.6826 409.0863 L28.498 417.3361 L26.7651 416.3367 L27.2872 417.3184 L23.8253 415.5088 L21.5363 420.9671 L18.1046 420.9021 L20.2007 422.0138 L19.898 424.2728 L17.3819 423.4982 L18.3997 425.426 L19.0505 426.0883 L20.3683 426.7388 L26.1238 432.4713 L28.3516 434.0325 L30.1154 435.6557 L30.9838 435.674 L35.2327 432.0136 L39.4475 432.0018 L39.9697 432.3803 L38.3579 428.8204 L42.7506 428.5069 L43.8792 433.1851 L45.1554 431.7079 L46.9738 430.8138 L49.1447 432.0846 L50.0301 433.1017 L49.735 435.3074 L45.4936 440.5643 L44.7123 442.44 L42.1301 443.5091 L46.1482 449.346 L53.2586 454.4808 L66.1623 453.9546 L58.4886 452.5851 L56.1844 451.8939 L54.9703 450.2678 L59.4473 449.6091 L52.0736 447.6341 L49.769 443.8154 L53.8439 439.9612 L52.6899 438.3942 L53.3256 437.5604 L54.3017 436.4191 L59.8957 429.6766 L58.5885 428.5235 L58.0228 428.0244 L54.0845 429.1604 L53.7716 427.4396 L49.8682 428.1096 L47.5644 424.4881 L64.2902 421.1918 L63.3292 419.7844 L68.0208 414.7932 L66.7968 413.0989 L71.7143 403.872 L72.6897 400.8777 L77.7975 394.7506 L79.0214 394.2527 L80.284 395.523 L78.3858 398.3961 L74.6912 401.8949 L73.9148 405.5356 L75.4396 406.0738 L80.3968 401.9718 L81.2632 404.1955 L77.4857 408.2921 L79.606 409.3879 L78.7434 412.2916 L78.2401 411.8304 L78.1229 412.197 L78.0094 412.8594 L75.1982 420.7661 L74.188 419.9441 L72.7881 422.6939 L77.1123 422.5638 L78.6041 425.4366 L79.6264 426.2657 L81.1183 426.0723 L81.8088 423.6963 L82.5273 423.3095 L83.7906 423.575 L78.7244 431.1148 L80.8243 429.4295 L90.3948 428.012 L87.8692 431.5938 L93.4992 430.8191 L94.097 430.7541 L96.6641 429.608 L98.9058 430.9947 L101.1888 432.9675 L101.3651 439.837 L110.4305 440.0203 L105.4408 450.7704 L105.4937 453.1894 L108.1509 453.9031 L110.3953 455.3453 L110.1838 456.5527 L109.8573 457.5295 L107.8664 457.4018 L105.5626 457.6862 L104.2402 456.7337 L101.3742 459.5872 L100.6637 459.2289 L96.6119 462.9215 L97.5271 463.4648 L96.0489 465.2948 L94.9528 465.5562 L92.8548 467.6564 L91.1787 469.0967 L88.5072 468.8744 L87.0694 469.8701 L86.4349 470.8865 L85.1886 472.6455 L86.7894 473.7878 L88.0391 474.1035 L86.7879 479.7819 L83.791 480.0266 L83.4489 478.8702 L81.7899 479.624 L81.8765 480.9708 L89.8004 482.1539 L90.2691 482.038 L90.4447 481.9298 L90.6441 481.6324 L90.8458 481.0885 L91.1326 480.1147 L91.8102 478.8394 L92.3266 478.302 L92.6051 478.0495 L92.9275 477.7557 L93.1768 477.3146 L93.5404 477.0639 L93.7977 477.0243 L95.4931 474.2797 L96.7946 475.3085 L97.8245 475.7785 L98.4083 475.3871 L98.6527 475.2233 L102.7881 478.1743 L105.6844 479.8339 L106.8403 480.4967 L112.1198 482.2266 L114.1459 481.6147 L114.8493 481.4829 L117.2492 481.069 L117.259 478.4539 L124.8151 475.9003 L125.0489 475.9583 L125.0909 475.9464 L125.4825 475.8116 L126.1306 476.2255 L126.8665 476.407 L128.2475 477.3974 L128.8881 477.7628 L129.1299 478.03 L129.4779 478.2795 L129.6179 478.3522 L129.6357 478.3924 L130.7216 479.1711 L130.8654 479.1143 L131.022 479.0984 L131.8869 478.8158 L134.1237 477.7994 L137.7594 476.8954 L138.6428 476.6063 L138.6859 476.7021 L138.7949 476.6831 L139.0696 477.4618 L139.1634 477.7551 L139.6178 478.7578 L140.6284 478.8004 L140.0454 479.8889 L140.059 479.9167 L140.0707 480.1703 L140.1074 480.1892 L139.9943 480.5534 L139.605 481.4521 L138.2334 483.5812 L137.8059 484.0719 L136.5479 486.4214 L136.6489 486.5793 L137.4639 486.7312 L138.2576 491.869 L138.4589 493.1992 L146.7449 483.7219 L156.828 475.9589 L158.6706 472.2162 L157.3047 469.8512 L152.6661 468.3848 L154.0244 463.8616 L159.5294 457.9015 L164.7772 455.962 L172.0295 446.2717 L174.3965 443.9018 L177.3563 442.7439 L191.1678 444.0573 L200.5854 443.6244 L205.8184 444.6078 L218.0279 450.279 L223.8405 452.0145 L233.8635 453.4804 L237.2713 452.5349 L239.9754 451.1483 L244.3246 447.8003 L246.5523 444.6385 L246.7827 441.786 L246.1206 437.9288 L242.6583 430.5524 L242.5259 426.7222 L245.5565 418.5437 L247.7468 413.7139 L251.7785 409.8433 L258.9328 404.3102 L266.596 399.3755 L268.4915 399.1673 L271.182 399.0656 L281.0313 398.7267 L294.7833 393.0 L306.7484 390.9436 L313.4384 388.4223 L314.1706 386.7072 L316.3828 387.8008 L319.2363 387.6476 L326.8613 383.6896 L321.5946 381.4191 L325.2185 379.7518 L330.0996 381.1121 L330.3111 381.0967 L330.5158 381.1724 L330.8877 381.2694 L330.9664 381.2813 L332.3576 380.83 L333.0909 380.4314 L333.8003 380.0085 L333.9346 379.9629 L334.0209 379.9754 L334.0557 380.1114 L334.0761 380.2646 L343.1929 377.2635 L352.6874 372.4319 L353.4142 372.2041 L353.8462 371.9687 L356.5284 371.1259 L358.9442 370.3363 L361.4179 369.6585 L361.4182 369.6561 L361.6335 369.6159 L362.0225 369.5076 L366.212 368.2046 L366.5446 367.9858 L368.5589 367.1636 L369.288 367.1056 L369.8934 367.0778 L370.0814 367.0205 L370.7046 367.0814 L371.0284 367.0879 L371.7643 367.1488 L372.2433 367.1441 L372.3069 367.1376 L375.3481 366.1989 L376.8869 367.36 L378.3814 368.0644 L379.3238 368.5654 L384.1081 370.1275 L384.8837 367.0648 L387.3555 365.5205 L390.2216 364.0814 L391.8659 365.2786 L392.8394 370.8828 L392.8564 370.9804 L409.4851 374.2412 L410.137 374.1347 L411.5365 373.574 L412.2966 373.3386 L412.8445 373.1138 L417.6681 371.1537 L417.8482 370.9615 L418.7142 370.5486 L419.9428 370.5001 L421.127 370.7462 L422.6661 371.075 L422.8198 371.088 L423.8337 370.9881 L423.9624 371.185 L425.0316 371.2761 L425.8829 371.0159 L427.06 371.9516 L428.6366 373.6615 L429.2306 374.2678 L428.5367 374.699 L428.3267 374.7954 L426.3165 375.8003 L425.6691 376.4112 L425.6109 376.7478 L425.794 377.1216 L426.1652 377.3546 L426.5148 377.7089 L426.7157 378.0721 L426.7384 378.6481 L426.5844 379.1769 L425.9302 380.0836 L424.8054 382.2513 L426.1402 383.0083 L424.5708 386.1086 L426.1099 386.4588 L427.934 387.6068 L428.4985 387.7694 L429.4568 388.0403 L429.985 388.3076 L430.8957 389.0031 L432.0766 390.0671 L432.4613 390.4575 L436.5941 393.0592 L437.4227 392.3731 L435.2434 390.1138 L431.021 379.2195 L431.7209 372.8258 L436.893 367.2718 L445.5573 359.9433 L452.1093 356.7557 L464.3615 343.0793 L468.1261 337.933 L468.2926 333.3781 L469.6013 331.7223 L469.6463 331.6294 L471.0364 329.336 L471.7954 328.3794 L471.9857 328.0369 L472.4787 327.7405 L472.68 327.7843 L472.7004 327.8009 L473.9448 326.2267 L473.5555 326.1167 L473.3387 326.0256 L473.2244 325.8925 L473.229 325.7215 L473.3175 325.5364 L473.8097 324.8022 L474.9947 323.3162 L475.9951 322.1603 L476.5698 321.4806 L476.8702 321.1729 L477.2058 321.0653 L477.5305 321.0907 L477.8937 321.2297 L478.3137 320.6991 L477.7287 320.5269 L477.552 320.411 L477.5399 320.3429 L477.5887 320.1885 L478.0893 319.6419 L479.3292 318.2641 L479.6054 318.0926 L479.8199 317.9429 L479.9167 317.7891 L479.9519 317.6039 L480.0397 317.414 L480.1729 317.1389 L480.4044 316.7846 L480.7143 316.4657 L481.0181 316.0883 L481.7608 315.1281 L482.8119 314.2177 L483.2932 313.9083 L483.4479 313.7486 L483.6382 313.6231 L483.7994 313.5267 L484.0181 313.4202 L484.0888 313.3918 L484.5164 312.8505 L473.2868 307.0345 L472.6274 306.9286 L471.5109 306.7393 L470.574 306.2063 L469.7682 305.6501 L469.3826 305.1431 L468.8344 304.7284 L466.4689 303.5032 L459.7191 304.3551 L455.169 303.1305 L454.9946 303.176 L454.1176 302.9293 L453.4918 302.6791 L451.1683 302.0537 L451.348 301.5822 L451.2511 301.4012 L451.2765 301.1764 L451.5485 300.5995 L452.4899 298.1236 L453.3639 295.9245 L453.4653 295.7382 L454.4032 293.1498 L454.6053 292.3327 L455.2155 291.2199 L455.7887 290.4898 L456.2549 289.8544 L456.7906 289.1982 L457.3529 288.4912 L457.8368 288.1096 L458.1902 288.0114 L459.5276 287.7996 L460.4228 287.4257 L460.9094 287.2346 L461.6865 287.2689 L462.976 287.4724 L465.402 287.0559 L465.6358 287.5298 L465.6369 287.3197 L465.6645 287.0026 L465.7084 286.8873 L465.7016 286.7825 L465.7292 286.705 L465.7784 286.6494 L465.9494 286.3394 L466.0872 285.7886 L466.0716 285.4282 L466.1019 284.9561 L465.9453 284.4479 L465.8439 283.7953 L465.7277 283.3563 L460.4834 281.6837 L460.192 279.5359 L466.2593 277.8639 L466.6297 277.6787 L467.2294 277.4379 L468.0625 276.9119 L468.8261 276.3824 L469.3474 276.1013 L469.6728 275.9942 L470.0727 275.9439 L470.8325 275.9173 L472.5918 275.4339 L473.5207 275.0694 L474.8385 274.7464 L480.4862 271.3584 L480.6405 271.0324 L480.8388 270.8419 L480.9845 270.7496 L484.1108 270.7526 L484.3544 270.7129 L484.4971 270.5898 L484.6201 270.4224 L484.6866 269.5603 L484.7404 267.9853 L484.6435 266.7173 L484.7642 266.0522 L484.81 265.9516 L484.8115 265.9096 L484.8387 265.8889 L484.8535 265.8564 L484.953 265.7688 L485.0105 265.7575 L486.5421 264.5854 L486.3862 264.6008 L486.1425 264.6404 L486.0184 264.6369 L486.2822 264.1109 L486.382 263.7162 L486.5073 262.6565 L486.4142 262.0464 L486.4774 261.8287 L486.4505 261.0257 L486.3692 260.9228 L486.3279 260.7181 L486.3181 259.9506 L486.3635 259.308 L486.3692 258.5761 L486.3249 257.6199 L481.7506 258.0992 L482.1679 252.2418 L482.1358 252.0808 L481.9197 251.795 L477.0477 250.1702 L471.7015 243.6434 L470.2297 244.1937 L464.3274 227.0387 L461.0698 221.4345 L445.6519 233.2404 L439.3826 234.7198 L437.1162 235.6412 L433.9861 235.6211 L430.495 237.5306 L428.9135 237.7378 L428.0509 238.1106 L426.4429 239.1994 L418.1948 246.1819 L415.2777 249.8447 L408.2554 255.5193 L399.8976 263.3061 L401.6191 262.7618 L402.9395 267.9391 L395.9941 273.8926 L394.4743 273.2287 L392.1576 274.5576 L390.4981 276.4131 L389.2386 275.2712 L388.1421 271.4715 L388.8761 269.9272 L394.6914 266.0812 L395.5162 266.1049 L395.8757 265.9747 L395.9551 265.88 L395.5125 265.4481 L400.7981 259.8684 L402.7541 259.8684 L408.1873 255.0163 L404.5778 254.6672 L418.0661 244.4422 L425.9094 236.2288 L445.1789 230.8023 L461.7735 218.3277 L465.3868 217.5938 L467.2483 216.5286 L466.2495 215.8895 L468.0391 215.1556 L470.7859 213.6288 L470.854 209.5749 L472.7458 211.5989 L478.1563 207.4385 L479.2951 204.0947 L477.6228 204.3018 L478.3984 198.6617 L485.7195 185.2978 L486.6579 183.0014 L487.3654 182.3267 L488.595 181.0423 L506.8506 179.4088 L512.0 177.1715 L510.3731 174.0582 L507.6149 176.4257 L507.1155 175.1472 L509.5748 172.3299 L507.8907 171.5462 L507.4779 171.6533 L507.1321 171.6604 L506.8858 171.487 L506.6894 171.223 L506.529 170.9123 L505.9501 170.643 L502.9611 169.323 L500.6755 171.1153 L500.6607 171.1402 L500.6081 171.0857 L500.2578 170.9318 L499.8609 170.527 L499.2559 169.9558 L498.9808 169.4503 L498.5299 169.1863 L497.3501 169.7664 L497.0441 170.0724 L496.1424 170.5566 L495.0414 171.1301 L494.4433 171.5361 L494.1746 171.7315 L493.6131 172.1251 L493.3377 172.1854 L492.5193 172.4323 L492.1304 172.4328 L492.0498 172.3725 L489.1626 173.7918 L489.7414 172.8093 L488.4777 170.8916 L485.1936 169.3941 L483.583 169.2721 L483.5898 169.3402 L483.1929 169.5344 L482.5342 169.6687 L481.1975 169.6829 L480.493 169.5651 L480.1857 169.0147 L479.8645 168.9904 L479.9095 169.1094 L479.7938 169.3402 L479.2576 169.1473 L478.6379 168.8975 L469.0152 168.1689 L460.4077 152.1576 L470.2967 150.1977 L470.3058 150.071 L470.3168 149.7342 L470.1983 149.3015 L470.0126 149.0363 L469.8147 148.8149 L469.5968 148.4408 L469.4851 148.1916 L469.3709 147.8951 L469.3947 147.7903 L469.4621 147.7838 L469.1594 147.3144 L467.8582 144.415 L467.7262 143.9953 L467.7629 143.7899 L467.5813 143.3495 L466.0452 143.9592 L467.2181 140.5733 L462.9918 133.3632 L451.8985 120.4638 L454.7778 108.523 L456.4944 105.8334 L463.1621 95.3739 L469.072 89.2579 L452.7952 53.2346 L444.1207 47.8478 L440.8498 47.8099 L440.6398 47.987 L440.4681 48.1907 L440.2592 48.1848 L440.0958 47.987 L440.0617 48.0065 L439.6535 48.9297 L439.63 49.0546 L439.4949 49.3619 L439.4677 49.3501 L438.3156 51.9555 L437.708 49.1121 L436.8378 49.1819 L433.6562 51.4954 L430.7406 53.0391 L427.1549 56.0851 L425.8231 57.6069 L423.8424 59.1405 L423.6521 59.3264 L420.746 61.8915 L419.5602 62.6903 L417.197 64.6732 L415.0896 66.3264 L414.0503 67.4834 L410.5596 74.2369 L403.2642 73.5092 L403.0269 73.6158 L402.4401 73.6146 L399.6028 73.2907 L397.1587 73.048 L394.4724 72.8479 L394.2741 72.6128 L393.4618 72.5317 L393.7145 71.7466 L394.0323 70.772 L394.0592 70.7116 L395.993 64.9054 L394.1148 61.5711 L393.5567 60.7321 L393.083 59.9819 L392.7792 59.4987 L392.4327 59.1742 L392.1179 59.2524 L387.6389 61.7316 L386.3676 62.2361 L385.9734 62.5357 L385.2946 62.2497 L385.2697 61.6694 L385.2534 61.0057 L385.0389 57.5897 L385.001 56.5025 L384.875 55.7073 L385.1032 54.8825 L385.1766 53.9499 L384.6435 52.6495 L384.2462 52.1912 L383.8429 51.2361 L383.1384 50.7446 L382.3518 50.0145 L381.9901 49.43 L381.8777 48.9628 L375.7866 43.6139 L374.7287 42.853 L372.2925 40.9172 L371.4545 39.8821 L371.2573 39.5594 L371.0284 39.1857 L370.778 38.9702 L370.5895 38.7374 L370.2812 38.1524 L369.91 37.3068 L369.8514 35.6173 L370.1847 34.0865 L370.2948 31.9825 L370.1412 31.6242 L370.1113 31.5265 L368.3277 32.5682 L367.5188 30.4778 L367.2366 29.2691 L367.711 28.713 L368.6947 28.713 L368.3202 26.5634 L368.8461 22.9332 L366.4027 18.8008 L365.2646 19.3314 L363.9468 19.0181 L362.0342 20.4347 L361.3532 20.9937 L360.8242 21.3674 L359.9385 21.9448 L359.8874 22.0408 L359.8696 22.1633 L359.9351 22.3682 L360.0834 22.6176 L360.5295 23.5201 L360.6578 24.0104 L360.6335 24.3604 L360.4341 24.6636 L360.1001 24.9532 L359.0244 25.7337 L357.9904 26.3745 L357.6748 26.654 L357.3282 27.0561 L356.7898 27.5814 L355.4194 29.2099 L354.9851 30.0016 L354.6071 30.3866 L354.1728 30.7454 L353.6423 30.9906 L352.9007 31.2618 L352.1921 31.4335 L351.5042 31.3252 L350.8705 31.1742 L349.8399 31.0569 L348.8592 31.0628 L348.2981 31.1611 L347.5137 31.4318 L346.4615 31.9049 L345.9769 32.0761 L345.3999 32.2294 L345.3488 32.2211 L345.118 32.1827 L344.796 31.8937 L344.4339 31.3175 L344.0113 30.6448 L342.0711 31.7942 L340.9591 32.3112 L339.4658 33.2344 L337.4896 34.5111 L335.0625 36.2491 L333.7507 37.2404 L332.2933 38.3478 L331.9615 38.5687 L331.6199 38.6682 L331.3104 38.699 L330.9456 38.6107 L330.6134 38.436 L329.7674 37.7479 L327.8579 39.3379 L326.5374 39.107 L320.2768 41.3566 L315.8387 54.7149 L313.7805 56.3966 L312.8535 69.4291 L308.4854 74.922 L303.8782 79.3579 L302.7473 78.5568 L299.3402 82.3882 L300.2922 84.2135 L303.4056 87.2514 L303.5944 87.3178 L304.1124 87.6185 L304.6308 87.6588 L305.0863 87.6594 L305.4544 87.5641 L306.1275 87.1236 L306.4468 86.853 L306.7147 86.8263 L307.067 86.8891 L307.8328 87.0969 L308.8123 87.5019 L309.1434 87.7991 L309.4116 88.1117 L309.6977 88.6102 L309.7711 88.8293 L309.7858 89.1413 L309.9111 89.3835 L310.3193 89.8352 L310.8687 90.2384 L311.7003 90.728 L313.1819 91.8654 L314.5474 93.7422 L315.9363 95.8529 L319.8686 101.0255 L321.2919 103.4878 L323.2405 106.49 L325.6214 109.0943 L328.2877 112.3498 L329.8257 114.0394 L333.487 118.2551 L335.159 120.0477 L336.2021 121.7864 L337.2797 123.2048 L338.7344 124.8884 L341.4779 127.3842 L346.7105 131.6026 L348.718 132.9062 L349.4278 133.1495 L349.7763 133.333 L350.1066 133.507 L350.4206 133.7485 L350.6253 134.0747 L350.6355 134.0652 L352.2666 136.4426 L353.5178 137.9734 L353.7229 138.3351 L353.8012 138.531 L354.105 138.8661 L355.2322 141.1936 L356.4262 143.9391 L356.6578 144.83 L356.5753 145.02 L355.6896 144.8975 L354.3408 144.5216 L353.1622 144.3103 L352.2829 144.5174 L351.2674 145.2396 L350.6756 146.2033 L350.5595 146.8379 L350.6102 147.2569 L350.8618 147.6666 L351.4846 147.9862 L352.4959 148.59 L352.766 148.9014 L352.8924 149.134 L352.8122 149.3684 L351.8031 150.1663 L350.7309 151.0264 L350.2141 151.4461 L349.9189 151.3899 L349.5425 151.0317 L349.2326 150.4587 L349.0007 150.2409 L348.9065 150.3966 L349.1081 151.0643 L350.298 153.6469 L350.7903 154.7153 L351.7203 156.4271 L351.7854 156.6065 L351.8024 156.7284 L351.8289 156.9214 L351.7763 157.2801 L351.5466 157.7288 L351.5163 157.7714 L351.1134 158.6664 L351.0279 159.137 L351.0404 160.5031 L351.1126 161.4294 L351.0775 161.4981 L350.6726 162.2871 L350.5481 162.647 L350.5928 163.1022 L350.8716 164.0907 L351.6219 166.5003 L351.6351 166.8288 L351.5829 167.0602 L351.4384 167.3106 L350.8947 167.7131 L349.9503 167.9575 L349.6204 167.9528 L349.272 167.8486 L348.964 167.426 L348.9311 167.371 L348.4494 166.5701 L348.0866 166.421 L347.8815 166.4204 L347.622 166.4873 L346.6333 166.8531 L346.1524 166.9626 L345.3322 166.9176 L344.8445 167.2632 L344.2527 168.0238 L344.283 169.0312 L344.5569 170.3518 L345.4464 171.7498 L345.6269 172.2825 L345.636 172.8057 L345.0325 173.5136 L344.0719 173.9765 L343.4964 174.3062 L343.2921 174.6554 L343.227 174.7661 L343.1941 175.1206 L343.1441 175.6562 L343.507 176.9969 L343.6939 177.5674 L343.7457 178.083 L343.6738 178.3789 L343.1404 178.811 L342.7964 178.9808 L342.2024 179.3934 L341.7692 179.5774 L341.1559 179.7941 L340.7942 179.5609 L340.5937 179.0998 L340.2482 178.4612 L339.7844 178.3315 L339.3583 178.3031 L339.0587 178.077 L338.5971 177.6148 L337.7178 175.6699 L337.5498 174.3985 L337.257 173.3207 L337.372 172.318 L337.7723 171.5142 L338.047 170.8951 L338.414 170.292 L339.7798 169.1088 L340.3576 168.4796 L340.6561 168.2091 L341.1131 167.4177 L341.3504 166.7607 L341.4086 166.3221 L341.5532 166.0753 L341.6682 165.9273 L341.8816 165.9723 L342.1214 166.1179 L342.3424 166.4381 L342.8891 166.7495 L343.5308 167.352 L343.9671 167.2875 L344.5611 166.9294 L345.065 166.3156 L344.5565 165.3437 L343.9462 163.9373 L342.4359 161.4348 L339.2297 156.3833 L339.0027 156.365 L337.5517 156.8178 L337.2411 156.7864 L336.5415 155.6523 L335.0186 153.5007 L332.7602 151.1969 L330.6289 149.0837 L328.5688 146.8817 L327.1534 146.037 L325.9707 145.8073 L325.3664 145.7386 L322.0698 145.0762 L320.5178 144.904 L317.3098 144.2676 L315.4672 143.9829 L314.4872 143.7272 L313.6095 143.4235 L312.5312 142.9263 L311.6012 142.0934 L310.8043 140.8254 L309.6719 138.6861 L309.2735 136.9824 L309.1706 135.5588 L309.2349 134.788 L309.2187 134.3754 L308.8906 132.2923 L307.532 130.0327 L306.5055 129.2525 L305.6928 129.111 L304.7416 129.8605 L303.7023 130.295 L301.9823 130.4282 L300.6921 130.3263 L299.714 130.0333 L297.8037 129.5331 L297.0236 129.33 L296.0633 128.9198 L295.2249 128.0454 L294.5643 127.0527 L292.5567 123.9738 L290.4523 124.5403 L288.5087 122.7028 L287.6253 119.593 L285.8584 118.1089 L283.7736 120.0169 L282.7135 119.4515 L282.0918 121.269 L283.4849 122.2416 L283.8311 122.6625 L284.138 123.1616 L284.3113 124.0596 L284.2897 124.252 L284.326 124.5865 L284.474 124.8641 L284.7153 124.9955 L284.9352 125.0624 L285.4724 125.1039 L285.8508 125.1613 L286.7274 125.1501 L287.3245 125.3205 L287.6521 125.4851 L287.8269 125.5425 L287.9639 125.5562 L288.0906 125.4685 L288.4028 125.1666 L288.7997 125.0257 L289.1553 125.2258 L289.5662 125.5538 L289.9885 126.1588 L292.5843 129.4413 L293.0229 129.8309 L293.5238 130.0434 L294.4371 130.3269 L296.358 130.4465 L297.1836 131.0332 L298.0039 131.9945 L299.0848 133.3306 L299.7186 133.8616 L300.4242 134.5826 L301.1359 135.4694 L301.851 136.5983 L302.5233 137.9811 L303.7034 139.751 L306.6319 142.0709 L306.6795 142.1082 L306.9126 142.3823 L307.0586 142.435 L307.2535 142.4284 L307.6065 142.2887 L307.7582 142.2396 L308.0424 142.1792 L308.6553 142.1775 L308.9883 142.242 L309.5845 142.358 L310.3307 143.1269 L310.8115 143.7834 L311.1823 144.2895 L311.8096 144.8862 L313.1244 145.7499 L314.0385 147.1244 L314.8482 148.033 L315.3472 148.9298 L315.7967 149.2701 L316.3518 149.44 L316.8387 149.4021 L317.0733 149.3471 L317.3442 149.0097 L317.6809 148.1531 L318.3268 147.0249 L318.463 146.9142 L318.665 146.9024 L318.9064 147.0314 L319.4656 147.5529 L319.4876 147.4061 L317.8463 145.9819 L317.9972 145.9174 L318.8516 145.9002 L318.8576 145.9002 L319.1739 145.9357 L320.2768 145.7676 L321.8099 145.886 L323.5605 146.3507 L326.0535 146.713 L326.6861 146.8627 L327.4243 147.2226 L328.6263 148.3224 L330.7538 150.3877 L331.9891 151.8504 L333.5725 153.6303 L335.7863 156.9457 L338.8362 162.6979 L339.1026 164.4446 L338.9962 165.8279 L338.8922 166.1132 L338.6909 166.3594 L337.7991 165.5574 L337.1881 164.5464 L336.8094 164.5239 L336.5543 164.8359 L336.3618 166.5447 L336.1862 167.3621 L335.7568 167.7368 L335.2865 167.2402 L335.0564 166.4328 L335.2857 163.8752 L334.6372 162.9435 L333.8317 162.2534 L333.4613 161.7017 L333.2203 161.3939 L333.0224 161.3679 L332.8397 161.9598 L332.7466 162.6932 L332.4662 162.9021 L332.0224 162.8252 L331.4186 162.6766 L330.4099 162.7032 L329.7924 163.0092 L329.3853 163.2874 L329.4379 163.3969 L330.6918 165.7971 L332.6694 169.9469 L332.7069 171.0289 L332.4352 171.7344 L332.3293 171.8936 L332.2627 172.0688 L332.086 172.4109 L332.4276 172.2346 L332.792 172.218 L334.1991 175.6178 L334.9694 178.2416 L335.1321 179.1341 L335.4851 179.8479 L335.8707 181.0553 L336.1696 182.3569 L336.1378 183.2796 L335.8949 184.6563 L335.9407 185.2824 L335.8502 185.7725 L335.3436 186.665 L335.1472 187.0237 L334.2547 187.7594 L333.3561 188.2707 L333.2222 188.8028 L333.3902 189.4982 L333.4114 189.5858 L333.8446 190.4825 L334.1677 191.1465 L334.2173 191.2892 L334.4053 191.8289 L334.2683 192.0615 L333.9562 192.2474 L333.0436 192.5628 L330.6316 193.7447 L330.321 194.2579 L330.2933 195.0456 L330.1269 195.9523 L329.6486 197.2064 L329.0149 198.2108 L328.8363 198.3859 L327.7932 199.4104 L325.5938 200.906 L325.3252 200.9699 L324.6623 200.9598 L324.2 201.1569 L323.8034 201.5581 L323.469 202.1346 L322.1743 203.2312 L317.9776 206.317 L317.6287 206.3916 L317.3703 206.1785 L316.8731 206.7354 L316.4641 206.9644 L313.2724 208.9736 L309.7537 210.7017 L308.7881 211.2894 L307.7147 211.8664 L307.4412 211.1764 L306.7654 209.0879 L306.0927 206.7336 L304.9463 203.5289 L304.5312 202.1316 L304.5135 201.032 L303.6565 199.5169 L303.4953 199.2323 L303.3311 198.5049 L303.0243 197.1466 L302.4371 195.035 L302.4791 194.3076 L302.4518 193.4317 L302.4779 192.67 L302.9244 191.7911 L303.5543 191.0021 L303.1805 189.5166 L301.4541 185.4843 L300.9134 184.6503 L300.7685 183.7773 L300.5797 182.3557 L300.1151 181.8686 L299.4216 181.3661 L298.4129 180.7416 L297.7795 180.0811 L297.0633 178.4351 L297.5956 178.0989 L297.1681 177.12 L296.8847 176.4636 L296.4243 176.7098 L295.4462 174.7459 L295.2737 174.8323 L295.117 175.1904 L295.5627 176.766 L296.7046 179.8911 L296.6706 180.3137 L296.4227 180.4907 L295.2604 179.8438 L293.8696 179.1821 L292.4145 179.0217 L291.657 178.6393 L290.181 175.5852 L289.5515 174.5814 L288.8545 174.0404 L287.9877 173.3047 L287.5326 171.9522 L287.3608 171.3136 L287.351 170.112 L287.1202 169.4243 L285.7914 167.5337 L284.8005 167.8924 L283.8561 168.55 L285.4388 172.6436 L284.4149 171.7776 L283.6586 170.9756 L283.1944 170.4873 L282.2795 169.5533 L282.1274 169.4829 L281.3204 169.5989 L280.2773 170.376 L279.216 170.6418 L278.6556 170.5998 L277.6443 169.4604 L276.9882 168.1955 L274.7181 170.5589 L277.8077 171.0496 L277.855 171.0603 L278.0764 171.3645 L278.1872 171.8344 L278.3579 172.5341 L278.5943 174.1203 L278.6019 174.627 L278.6912 175.2348 L278.7131 175.648 L278.8183 176.1191 L278.8354 176.5606 L278.8879 176.7879 L279.076 176.8365 L279.3885 176.8548 L279.5614 177.1626 L279.6583 177.9279 L279.7805 178.386 L279.8342 178.5801 L280.0029 179.1501 L280.1963 180.029 L280.3681 181.1725 L280.7699 182.5439 L280.9466 183.2855 L281.0684 183.2358 L281.1062 183.1772 L281.1066 183.1772 L281.188 183.7389 L281.3098 184.2585 L281.1509 184.1857 L281.9102 187.6528 L282.4861 190.4653 L282.6283 191.3993 L282.39 193.5187 L281.2678 195.5013 L280.9303 195.8588 L280.743 195.9772 L280.6424 195.9624 L280.4184 195.7102 L280.2773 195.3711 L279.7918 192.8907 L279.3953 190.3854 L278.1256 184.0744 L278.0979 184.0076 L278.0083 183.5998 L277.874 183.4997 L277.7661 183.556 L277.6318 184.1484 L277.7222 184.9463 L277.9602 185.8382 L278.6526 189.5551 L278.8403 191.5632 L278.8232 192.625 L278.7408 194.1709 L278.8354 194.4952 L279.0885 194.7657 L279.4161 194.8692 L279.6401 195.1882 L279.7956 195.7298 L279.8191 195.9718 L280.2841 197.8071 L280.4937 198.7961 L280.8365 199.9555 L280.9356 201.2143 L280.6987 202.1168 L279.7029 204.1314 L279.4067 204.757 L279.1176 205.5015 L278.9613 205.9826 L278.7245 206.1087 L278.4305 205.8879 L278.2557 205.347 L277.7264 203.117 L277.1214 200.8805 L276.953 200.6822 L276.7748 200.7112 L276.6666 201.1084 L276.7332 201.4812 L276.9863 202.5169 L277.6095 204.9611 L277.8698 206.1365 L277.9284 206.3389 L278.0279 206.8597 L278.0287 207.3254 L277.6208 208.583 L277.5671 209.524 L277.667 209.975 L277.8762 210.2963 L278.3639 211.0858 L278.877 212.0138 L279.3711 213.8051 L279.9409 216.0463 L279.8823 216.3079 L279.5096 216.4783 L279.129 216.2836 L278.7086 215.8143 L278.1426 215.132 L277.8028 214.6769 L277.4979 214.3437 L277.2111 213.9632 L276.7775 213.472 L276.3098 212.9843 L276.143 212.5576 L275.1525 209.3867 L274.6035 207.1 L274.5021 207.0337 L274.3363 207.0881 L274.1948 207.3882 L274.4048 208.5493 L274.6648 210.4111 L275.835 214.7562 L276.8899 218.9064 L276.897 219.5308 L276.8176 220.1208 L276.6205 220.4711 L276.2996 220.6244 L275.2421 220.6066 L274.6981 220.928 L274.283 220.9641 L273.9247 220.6297 L272.9349 217.637 L271.9584 213.9028 L271.742 213.4672 L271.4737 213.1678 L271.3848 213.1879 L271.2198 213.4542 L271.6932 215.3876 L273.3015 220.3344 L274.1124 223.0998 L276.1226 227.7228 L277.5281 232.0421 L277.1619 232.3794 L276.9035 232.7315 L276.2255 233.0984 L275.2115 233.125 L274.9133 232.9587 L274.7181 232.7386 L271.6621 226.1907 L269.9176 221.9121 L269.0352 218.9088 L268.9804 217.253 L267.4662 212.0268 L267.2774 211.6539 L266.812 211.4178 L266.8907 211.9102 L268.1677 217.1488 L268.4454 218.6679 L268.2891 219.2982 L268.563 220.2918 L272.5187 229.346 L273.9012 232.5824 L273.8581 232.8043 L273.7442 232.9682 L273.5036 232.9487 L269.9887 231.6219 L269.6194 231.3971 L269.3387 230.7503 L269.0984 230.2952 L268.8044 229.9543 L266.7757 229.2312 L264.8847 228.2796 L264.5896 228.1311 L264.422 227.9737 L264.4019 227.9453 L264.1019 227.5234 L263.8775 227.1588 L263.702 226.9783 L263.5109 226.641 L263.3081 226.1865 L262.0016 223.7437 L261.394 221.9837 L261.0977 221.3801 L261.0043 220.8351 L260.6774 219.5219 L260.3225 218.7265 L260.1394 217.5364 L259.3168 213.6223 L259.2366 213.1329 L259.1023 212.9062 L259.0312 212.8932 L258.993 212.7322 L259.0179 212.8908 L258.9884 212.8855 L258.9676 213.1601 L259.6986 217.2275 L259.8235 218.2199 L260.1598 219.1437 L261.0103 221.9778 L262.478 226.1463 L263.1571 227.463 L263.1284 227.476 L262.5344 227.7441 L260.5624 228.1808 L259.4005 228.3441 L259.3592 228.2305 L258.705 226.4303 L255.9321 219.2514 L255.4164 215.1675 L254.8409 211.9635 L254.4754 210.3484 L254.3169 209.356 L253.8417 206.8774 L253.6926 207.0863 L253.6695 207.4651 L253.8405 208.3345 L254.2306 210.6881 L254.9457 214.3697 L255.22 216.6837 L255.8205 219.4148 L256.3657 221.2103 L257.9945 226.1481 L258.4341 227.5742 L258.2843 228.1299 L256.6143 228.6856 L253.6253 228.8791 L253.3725 228.8957 L251.9189 224.9036 L251.7153 224.3443 L250.7819 221.7813 L251.2938 223.6875 L252.8776 229.5857 L253.2673 230.5603 L255.424 235.4536 L256.1175 237.4218 L256.7183 239.0443 L256.8171 239.4479 L256.6801 239.5503 L256.3838 239.5207 L253.2893 238.2046 L251.032 236.746 L250.1493 235.5347 L248.4482 231.6888 L246.6866 228.6933 L245.6299 226.0226 L244.9549 225.0462 L244.6617 225.0752 L244.5947 225.3634 L244.6484 225.6575 L244.6647 225.7463 L244.5372 225.9546 L243.953 226.3144 L242.8838 226.6381 L241.8335 226.7144 L241.3083 226.8233 L240.877 226.3144 L240.2247 223.2744 L239.9516 222.2914 L238.5577 215.4752 L237.8055 212.4547 L240.6931 229.2235 L241.0011 229.9603 L241.4714 230.5633 L241.8607 231.2332 L241.8025 231.5213 L241.65 231.922 L241.608 232.032 L240.0409 233.5836 L239.7329 233.712 L239.4563 233.6262 L239.2289 233.2043 L238.605 232.4427 L238.1578 231.4829 L237.6497 230.5005 L237.0515 229.2016 L236.8835 228.3915 L236.7764 227.3097 L235.7677 223.03 L235.5528 222.6376 L235.3954 222.5175 L235.291 222.6637 L235.8899 224.5077 L236.4556 227.2097 L236.5888 228.8803 L236.9554 229.8916 L237.762 231.0408 L238.5471 232.941 L239.0685 233.757 L239.2853 234.0967 L238.7053 234.6411 L236.4109 236.9655 L236.1465 236.9626 L235.9433 236.6874 L235.6436 236.1377 L235.2717 235.2873 L235.0496 234.8458 L235.0129 234.7731 L234.8007 234.4624 L234.7095 234.2103 L234.4144 233.7369 L234.2483 233.2398 L232.9516 229.8875 L230.9343 222.7554 L230.2767 219.6077 L229.7178 216.6002 L229.5457 216.5428 L229.4345 216.7115 L229.6607 218.0708 L230.4367 221.3345 L231.3678 225.7184 L232.0224 227.5009 L233.3338 231.3799 L233.879 232.5285 L234.7333 234.9666 L234.7375 235.7163 L234.5831 236.2335 L234.5532 237.4005 L234.9493 238.0668 L234.9043 238.8881 L234.8551 239.0869 L234.7995 239.3118 L234.173 239.7367 L233.6815 240.0692 L233.2498 239.9627 L232.8782 240.0639 L232.3728 239.7006 L230.599 235.124 L228.6948 230.4124 L227.5949 226.7132 L227.4511 226.3345 L227.0856 224.8598 L226.8518 223.6265 L226.8117 223.2241 L226.652 222.1494 L226.3043 221.0031 L226.0887 220.8564 L225.9778 220.8865 L225.9256 221.0747 L225.9336 221.3262 L226.139 222.0464 L226.4474 223.2951 L226.5862 224.3591 L227.0501 226.5984 L227.1844 227.6506 L227.1984 227.6891 L227.2695 228.2051 L227.4118 228.5021 L229.4443 233.283 L230.8298 236.5684 L231.8987 239.1828 L232.2721 240.2095 L231.8253 240.5426 L230.8075 240.8095 L229.7939 241.0758 L228.9343 241.1723 L228.271 240.987 L228.1235 240.5681 L227.7428 239.5319 L226.702 236.7152 L225.6494 233.4457 L225.4016 232.5563 L225.3967 232.1717 L225.7243 231.9871 L226.388 231.5119 L226.4632 231.3361 L226.4678 231.2349 L226.4837 231.2148 L226.4701 231.1858 L226.4757 231.0675 L226.3339 230.9627 L225.346 230.6917 L224.845 230.5213 L224.0554 229.4525 L223.7361 228.5578 L223.4527 227.5157 L223.3725 227.489 L223.352 227.4825 L222.9941 226.4806 L222.7516 225.883 L222.595 226.0114 L222.4818 226.1498 L222.5136 226.4724 L222.8416 227.8033 L222.8526 228.2921 L223.0603 229.2525 L222.0948 230.5177 L220.853 231.7468 L220.0982 233.1132 L219.4474 235.4826 L218.7426 237.3543 L217.7199 239.1656 L217.004 240.2403 L216.8341 243.2789 L217.2042 243.2481 L217.0112 243.7221 L217.0861 245.6121 L216.8054 245.9724 L216.6809 246.0221 L216.6703 246.215 L216.5439 246.0665 L216.4221 246.0896 L215.8289 245.5659 L215.0892 243.9049 L214.5326 242.9759 L213.1618 242.7587 L212.6344 242.8049 L212.1403 242.5972 L210.1899 242.2889 L209.9421 241.5285 L209.7423 241.4308 L209.3658 240.2923 L209.0291 239.2349 L208.771 238.3615 L207.6723 234.5612 L207.0231 232.5688 L206.2978 230.3704 L200.6603 230.0035 L200.8797 233.7257 L207.0772 245.602 L210.7483 249.0903 L211.886 253.0282 L219.0029 256.9453 L218.6888 259.1465 L213.8383 260.405 L213.8784 260.5399 L213.9307 260.7967 L213.5724 261.2174 L212.9708 261.3423 L212.5383 261.4322 L211.7476 261.3612 L210.3609 260.9754 L208.9969 260.2832 L207.9897 259.7471 L206.6262 258.8944 L205.4351 258.0998 L205.2448 257.9731 L205.0768 257.9459 L204.9039 257.9175 L204.4919 257.8506 L204.0931 257.8098 L203.6867 257.8506 L202.8271 257.8347 L202.1052 257.6501 L199.8502 256.3791 L199.6402 256.2371 L195.7152 253.3578 L195.3266 252.9371 L195.2668 252.7885 L195.1151 252.4128 L195.6199 251.1601 L195.8045 250.6015 L195.8643 250.2039 L195.8756 250.1287 L195.3849 249.3246 L195.3062 249.0483 L195.296 248.9459 L195.3875 248.8335 L196.5044 249.4719 L196.7156 249.5281 L196.8911 249.4849 L196.918 249.1974 L196.8015 248.9897 L195.5926 248.463 L195.3115 248.3145 L195.0697 248.2962 L194.851 248.4571 L194.635 248.8045 L194.5041 248.9299 L194.4549 248.9772 L194.3092 248.853 L194.3732 248.6382 L195.1443 247.2731 L195.5366 246.6618 L195.7969 246.0588 L195.9759 245.6612 L196.3675 245.1464 L196.4276 245.0487 L196.6017 244.7653 L196.6671 244.3706 L196.6982 243.902 L196.6982 243.3848 L196.4466 242.4019 L196.4042 241.535 L196.4299 241.2007 L196.2774 240.6332 L196.0118 240.0503 L195.6959 240.8941 L195.8669 241.3314 L195.8344 242.1883 L194.9978 242.1344 L194.4496 242.1463 L193.9271 243.2197 L193.1802 242.2463 L192.3683 241.9048 L191.8885 241.5155 L191.8753 241.5048 L191.8768 240.874 L191.9877 240.1089 L192.3115 239.3804 L192.4076 238.8692 L192.5086 238.5869 L192.5779 238.3183 L192.5972 238.1691 L192.6324 237.9011 L192.7133 237.5093 L192.8204 237.0537 L192.7603 236.5004 L192.6051 236.0459 L192.5945 236.0146 L192.3914 235.4441 L192.3452 235.0003 L192.506 234.418 L192.7727 233.9588 L193.2264 233.7955 L193.8688 233.7606 L194.0641 233.9618 L194.2585 233.6842 L191.209 230.0626 L193.8348 226.944 L197.4295 230.8745 L195.8287 225.7368 L194.6142 224.3698 L195.1817 222.411 L193.6683 216.8067 L191.503 214.1656 L191.265 214.6662 L190.8197 214.9236 L190.7118 215.1053 L190.6199 215.5433 L190.6649 215.8676 L191.0694 217.1245 L191.9952 219.5148 L192.1659 220.0072 L192.3448 220.6782 L192.4057 221.5186 L192.2082 221.7979 L191.9336 221.9837 L191.6895 222.0192 L191.45 221.9867 L191.0176 221.8263 L190.5393 221.434 L186.9136 216.7706 L186.1557 215.8303 L183.7081 213.1725 L183.326 212.7245 L183.1145 212.1812 L183.0665 211.9262 L183.0937 211.7433 L183.7123 210.8722 L184.0176 210.3993 L184.1081 210.1626 L184.1304 209.9347 L183.7974 209.076 L183.2496 208.0918 L183.2254 207.8456 L183.2621 207.5373 L183.4195 207.3071 L183.6026 207.2639 L183.7498 207.229 L184.0963 207.3189 L186.3543 210.2265 L189.0634 213.2861 L189.8643 214.265 L190.119 214.523 L188.4081 212.2665 L186.606 210.0614 L185.2715 208.3771 L184.4558 206.8538 L184.3665 206.6372 L184.4751 206.0039 L184.5625 205.4044 L184.4637 205.0008 L184.2254 204.67 L183.3389 204.0201 L182.8826 203.5633 L182.127 202.5583 L181.4774 201.9115 L181.2765 201.899 L180.9219 201.8766 L180.3158 201.4126 L179.4195 200.4384 L178.278 198.9801 L177.8017 198.4771 L177.5448 198.554 L178.8232 200.1768 L179.4577 201.2522 L179.3094 201.802 L178.5171 202.5755 L177.1698 204.1533 L176.9613 204.4149 L176.8955 204.5729 L176.8452 204.6936 L177.8138 206.2614 L179.805 208.8695 L180.1944 209.5394 L180.2326 209.7986 L180.2844 210.1508 L180.1039 210.7005 L179.6647 211.306 L178.2103 212.3369 L177.894 212.4014 L177.3159 212.1747 L176.7007 211.4208 L176.4468 211.1095 L173.7506 207.5379 L171.476 204.145 L170.7817 203.03 L170.2656 202.453 L169.5842 201.3694 L168.1745 199.2601 L167.9138 199.0405 L167.5263 199.2713 L169.0348 201.7404 L174.6908 209.3784 L176.3276 211.7693 L176.5728 212.128 L176.6609 212.3079 L176.8009 212.5937 L178.4997 214.5431 L180.5659 217.1109 L181.9261 218.6573 L182.3801 219.3313 L183.1425 220.4628 L183.3812 221.0428 L183.2602 221.4345 L182.3313 221.9068 L181.5421 222.1192 L180.25 222.2104 L179.7975 221.9423 L178.9674 220.8877 L174.1732 214.9325 L173.2153 213.7122 L172.8377 213.4015 L171.1801 211.087 L168.4745 207.4953 L165.4934 202.7572 L163.3304 199.7525 L161.0482 195.57 L161.1238 195.4439 L161.2313 195.3451 L161.7258 195.2954 L163.5521 194.8178 L164.1889 194.7248 L164.4098 194.8799 L167.3239 198.9494 L167.8343 198.744 L165.3875 195.0687 L165.3856 194.6195 L165.6066 194.0827 L165.9686 192.4332 L166.3016 191.3845 L166.5313 190.0149 L166.5903 189.6616 L168.0825 191.8337 L168.6939 192.7238 L170.3878 195.0509 L168.9372 192.2947 L166.8525 189.036 L166.9282 188.0417 L167.0239 186.784 L167.1037 186.1395 L166.9444 184.178 L166.8165 183.408 L166.879 183.2565 L166.986 183.2405 L167.2108 183.3684 L167.4083 183.5873 L168.0201 184.6278 L169.381 186.6076 L170.8611 188.8815 L171.1907 189.284 L171.9122 190.0552 L173.364 192.2201 L173.5823 192.538 L173.7177 192.6942 L173.8551 192.8008 L173.9897 192.738 L174.0034 192.5883 L173.877 192.3107 L173.3817 191.5395 L171.235 188.0109 L170.1551 185.9507 L169.3299 184.4379 L168.0776 182.2497 L166.7783 180.4652 L165.5131 179.2365 L165.1669 179.1371 L164.5858 179.1294 L164.2638 179.2744 L162.8783 180.1989 L161.9604 180.6748 L161.4965 180.7363 L161.1079 180.573 L160.6494 180.1959 L159.2631 178.0463 L159.0955 177.8006 L158.9861 177.7432 L158.9036 177.7787 L158.8242 177.8409 L158.8 177.916 L158.8098 178.0143 L158.8832 178.0966 L158.8802 178.0972 L159.4235 178.8607 L159.7909 179.417 L159.7708 179.6384 L159.6687 179.8189 L159.4038 180.1652 L158.8439 180.7026 L158.1912 181.2169 L157.7103 181.6389 L157.3819 181.8212 L157.0667 181.9656 L156.8919 181.9822 L156.7448 181.8425 L155.6865 180.0154 L154.2692 177.964 L153.6362 177.1555 L153.3063 177.017 L153.4444 177.4781 L153.71 177.7687 L154.9847 179.594 L155.2783 180.1368 L155.2662 180.5191 L155.105 180.8506 L154.6003 181.5685 L154.3706 181.9934 L154.013 182.5853 L153.6672 183.2346 L153.0342 184.2709 L150.9703 181.2045 L150.4316 180.3445 L149.6555 179.0258 L149.0086 177.8764 L148.6419 177.2928 L148.3548 177.3058 L149.4618 179.0613 L149.805 179.5082 L151.8394 183.1926 L152.5749 184.6959 L153.0055 186.0962 L152.1152 189.2124 L152.2522 189.4533 L152.4728 189.4029 L152.6812 188.9437 L152.9748 188.4903 L153.2333 188.2524 L153.447 188.4146 L153.6407 190.1718 L153.3891 191.2785 L153.1886 191.3282 L152.4338 190.7411 L151.7267 189.8457 L150.9007 188.456 L150.3298 187.5658 L150.1902 187.438 L150.0615 187.4226 L149.9272 187.493 L149.9355 187.7185 L152.4739 192.5445 L154.8144 196.5116 L154.9135 196.7986 L154.9491 197.0721 L154.7119 197.4751 L154.3032 197.9758 L153.4523 198.6967 L153.0562 198.6955 L152.6608 198.5511 L152.262 198.2007 L151.2719 196.9211 L150.8598 196.3198 L150.4149 195.3652 L149.8648 194.1892 L149.0865 193.2245 L147.9443 191.4371 L147.3109 190.5547 L147.1141 190.4186 L146.931 190.5642 L146.9897 190.7393 L147.4588 191.7615 L147.7388 192.4504 L148.0347 192.8735 L148.5466 193.4814 L149.3869 194.7308 L149.679 195.5102 L149.7834 195.9949 L149.5383 196.382 L149.015 197.017 L148.4588 197.8059 L147.5054 199.1849 L146.9299 200.5609 L146.0215 202.5282 L145.4903 203.0306 L145.3192 202.7838 L145.1917 202.6004 L144.9473 202.2346 L144.026 200.5781 L142.7415 198.7606 L142.4714 199.4506 L143.9053 201.9967 L145.6276 204.7741 L146.7002 206.4099 L146.9904 207.5622 L147.0109 208.3576 L146.4131 210.5567 L146.1187 211.0302 L145.7638 211.1083 L145.0771 210.1502 L143.5939 207.6142 L141.7377 204.49 L141.9935 207.1219 L141.7317 208.4043 L140.2538 208.8778 L138.0897 209.0091 L137.8093 209.5536 L139.1029 212.6446 L138.9235 213.5909 L138.5951 214.5129 L137.9167 215.3077 L137.3912 215.4882 L136.8237 215.6249 L136.0439 215.6119 L135.5774 215.1562 L134.689 213.9401 L130.3016 208.1984 L130.0897 207.8397 L128.84 207.7332 L126.7992 207.5586 L127.1132 208.3611 L129.8419 212.2747 L130.6891 213.2281 L132.0129 215.0734 L132.5199 215.9907 L133.3803 217.4068 L134.0965 218.6614 L134.5063 219.1869 L134.6493 219.7716 L132.0118 220.4758 L129.0523 223.8585 L128.7837 224.2704 L128.467 224.6763 L128.0065 225.1391 L127.8219 225.258 L126.061 227.0227 L120.077 231.6231 L119.8012 231.8444 L119.7815 232.2368 L120.0611 232.9575 L120.4296 233.8239 L120.8988 235.0163 L121.2083 235.9217 L121.4451 236.6945 L121.3445 237.1856 L121.0721 237.6087 L120.6752 237.8514 L120.2389 238.0236 L119.6203 238.2348 L119.245 238.4591 L119.0115 238.6538 L119.0191 238.6792 L119.1258 239.0319 L119.1368 239.2029 L119.1667 239.6763 L119.2541 239.971 L119.4319 240.5071 L119.783 241.4338 L119.9374 242.0735 L119.8432 242.8421 L119.1848 243.7789 L118.0657 244.528 L117.7289 245.1724 L117.6128 245.3955 L117.4796 245.986 L117.822 246.2671 L118.2598 246.7044 L118.7335 247.5257 L119.0585 248.0897 L119.0081 248.9234 L118.7062 249.6429 L118.6101 250.2299 L118.9245 251.6063 L118.8269 251.9294 L118.5674 252.1903 L117.4384 253.0613 L116.6623 253.6601 L116.1921 253.8897 L115.9352 253.9158 L115.8988 253.8341 L115.7679 253.5406 L115.6113 252.7465 L114.6718 247.8808 L114.3283 247.7494 L114.3196 248.1991 L114.5587 249.1589 L115.1194 251.9039 L114.7297 251.3069 L114.4289 250.7755 L114.032 250.1897 L113.7611 249.7678 L113.4967 249.308 L113.3427 249.0991 L113.2057 248.9133 L112.8152 248.6169 L112.396 248.0802 L112.2776 247.3393 L111.8194 246.3216 L111.4937 245.5322 L110.7317 244.4416 L109.5444 243.0102 L108.9235 242.1261 L108.2383 241.3444 L107.7461 240.5225 L107.2194 239.6231 L106.6371 238.8585 L105.689 237.5792 L104.4672 236.2844 L104.3133 236.1128 L102.7768 234.4008 L101.3863 233.3369 L100.0719 232.6664 L99.3284 232.138 L97.4613 232.0936 L97.6732 233.0984 L98.316 233.5582 L99.3273 234.0772 L100.1828 234.7453 L101.311 236.1187 L101.6954 236.6199 L102.3768 237.5093 L102.496 238.1123 L102.5479 238.3739 L102.4147 238.8579 L102.1544 239.1355 L102.0768 239.5864 L102.0091 240.032 L102.0556 240.9308 L102.0745 241.5486 L102.0991 242.5457 L102.1366 243.4617 L102.3715 244.1446 L102.8698 244.8854 L103.3197 245.8718 L103.4907 246.4642 L103.49 247.5595 L103.2841 248.4092 L103.7926 249.1281 L104.5248 249.4133 L105.065 249.5412 L105.5077 249.1654 L106.1933 249.1447 L106.8142 248.8725 L107.1585 248.9423 L107.5134 249.1163 L107.6908 249.3335 L107.804 249.6879 L107.7858 250.0293 L107.6753 250.2228 L107.4233 250.5619 L107.0249 250.7323 L106.7779 250.8613 L106.7219 251.4601 L107.2512 252.2246 L107.4411 252.5714 L107.4517 252.9359 L107.1558 253.3572 L106.9837 253.4524 L106.8346 253.5199 L106.5751 253.5199 L106.2406 253.2921 L105.9012 253.0708 L105.8929 252.8258 L105.3689 252.0607 L104.9553 251.653 L104.4237 251.4009 L103.6466 250.1814 L102.3837 248.5743 L101.0814 245.9298 L99.8536 243.77 L99.2142 242.4865 L98.6512 241.8107 L98.7935 242.7587 L99.0772 243.2007 L99.5362 244.331 L99.7927 244.7653 L100.1063 245.3482 L100.3447 245.8778 L100.7654 246.4535 L101.2565 247.3719 L101.3027 247.8908 L101.3935 248.3311 L101.4601 248.7417 L101.5346 248.969 L101.7405 249.2098 L101.9024 249.2719 L102.1154 249.0394 L102.5089 249.3678 L102.9909 250.2992 L103.2781 250.6548 L103.3829 251.0134 L103.9092 251.5862 L104.8728 252.7755 L105.5936 253.9465 L105.6685 254.2702 L105.5766 254.472 L105.454 254.7021 L104.9527 254.8832 L104.4847 254.8773 L103.6247 254.7311 L102.5698 253.9329 L101.6954 253.1276 L101.1638 252.6495 L100.5244 252.0743 L99.501 251.0004 L98.5978 249.5832 L96.9728 246.6955 L96.6524 246.0363 L96.1567 245.0168 L94.0345 242.6676 L93.8105 242.9362 L94.8832 244.6251 L94.9274 244.8523 L94.8994 245.3511 L94.8351 246.0109 L94.4708 247.3092 L94.5222 247.5648 L94.6225 247.7902 L94.6686 248.2559 L94.7587 248.8997 L94.7473 249.3536 L95.0171 250.1388 L95.1128 251.5299 L95.1321 252.2069 L95.1658 252.5459 L95.2339 253.0678 L95.4132 253.6382 L96.3194 254.2448 L96.4685 254.3448 L97.647 256.0158 L98.6625 257.8731 L98.7916 258.1998 L99.218 259.2808 L99.781 259.982 L100.5392 260.8198 L100.6731 261.1204 L100.6935 261.3269 L100.3542 261.5701 L98.8116 261.7239 L97.7038 261.8086 L97.0231 261.5754 L96.0103 259.6453 L94.7905 257.9927 L93.5253 256.5797 L92.0837 255.056 L90.9876 254.0057 L90.5741 253.5548 L90.178 252.9672 L89.1375 251.3737 L87.5174 249.2903 L86.2945 248.1938 L84.7883 246.6127 L83.2775 245.0369 L82.9537 244.8091 L82.8353 244.9257 L82.8867 245.1813 L83.203 245.4896 L84.2416 246.5352 L85.7611 248.2376 L87.0236 249.7045 L87.836 250.8246 L88.2987 251.5619 L88.6029 252.0578 L88.9313 252.3566 L89.3607 253.1016 L89.713 253.5104 L90.1265 253.756 L91.1628 254.7761 L92.7803 256.6832 L93.0788 257.3323 L93.7909 258.2276 L94.2842 259.0139 L94.6955 259.495 L95.3641 260.2121 L95.9656 261.0399 L96.5339 261.7926 L96.4291 262.089 L96.1779 264.386 L95.5207 265.4463 L94.6456 264.5233 L93.3315 263.2115 L91.6172 261.4103 L88.4897 257.5643 L86.9317 255.5702 L85.8889 254.5158 L84.2768 252.672 L82.7486 250.8684 L80.892 249.0903 L79.8444 247.9192 L79.6393 248.1216 L80.3162 248.9258 L81.3184 249.9423 L83.808 252.8122 L84.2325 253.3501 L84.94 253.8755 L86.2393 255.4442 L86.7917 256.2175 L87.0297 256.6513 L87.1841 257.0282 L88.2752 258.069 L89.4379 259.4429 L90.2162 260.476 L90.7224 261.279 L91.0489 261.6902 L91.2218 262.15 L91.4961 262.4435 L91.2063 262.7452 L91.7394 263.0659 L92.3841 263.6221 L92.8692 264.4369 L94.5479 265.741 L93.8877 266.0155 L93.2173 266.1895 L92.635 266.2853 L91.545 265.9877 L90.6744 266.1871 L90.1666 265.6925 L89.5567 265.2404 L88.9025 264.3972 L86.9635 262.3192 L85.5462 260.5044 L84.4122 259.5009 L84.0286 258.8068 L83.64 258.3276 L83.4694 258.382 L83.3691 258.7299 L83.7785 259.2915 L84.1898 259.9281 L84.9385 260.9251 L84.976 261.0441 L86.8367 263.2351 L87.0792 263.4138 L87.0993 263.615 L86.8632 263.7286 L86.3691 263.7334 L85.8394 263.6055 L85.2836 263.2251 L84.578 263.0979 L84.1436 262.8582 L82.7751 263.5671 L82.5409 263.7268 L82.0199 263.4766 L80.7872 262.1245 L80.5364 261.5222 L79.9355 260.7453 L78.3722 258.9613 L77.9556 258.3039 L77.5493 258.1353 L76.6719 257.1518 L76.4328 256.5743 L76.0903 256.269 L75.3673 255.7921 L74.5258 254.9092 L74.1838 254.6033 L74.0242 254.5672 L73.9008 254.6317 L73.8906 254.7897 L74.0011 255.1187 L74.2561 255.3282 L74.4642 255.595 L74.6291 255.9442 L75.0151 256.1672 L75.2773 256.4548 L75.4422 256.8039 L75.8331 257.34 L76.2704 257.5578 L77.0862 258.4429 L77.9121 259.1707 L78.7176 260.4755 L79.3737 261.3251 L80.1584 262.1612 L80.57 262.6429 L81.4963 263.857 L81.7891 264.4499 L82.1883 265.17 L81.9964 265.5475 L81.5901 265.9623 L80.2916 266.6267 L79.5587 266.5812 L78.7328 266.1788 L77.4221 264.7919 L75.5898 262.6068 L73.8448 260.4459 L73.0926 259.4648 L71.9428 258.8743 L71.0688 258.2643 L70.1438 257.5394 L69.611 256.6305 L69.1714 255.9631 L68.9338 255.9335 L68.7945 256.14 L68.8176 256.714 L69.0567 256.7684 L69.2524 256.9057 L69.4298 257.1234 L69.6719 257.7264 L69.9137 258.0684 L70.261 258.1643 L70.9814 258.6145 L71.7998 259.5264 L73.1222 261.0666 L74.6197 262.5375 L76.0998 264.0937 L77.1906 265.396 L77.6563 266.1599 L77.8107 266.667 L77.7517 267.1172 L77.4713 267.4332 L76.1747 268.5036 L75.1358 269.5106 L74.7843 270.0479 L74.5429 270.5159 L73.6106 270.5768 L72.9001 269.3278 L71.4536 267.277 L71.3117 266.9746 L70.9296 267.0451 L70.9069 267.7261 L71.1233 268.2923 L71.5259 268.9095 L72.056 269.4124 L72.5217 269.9147 L72.846 270.562 L73.2727 271.1987 L73.471 271.6229 L73.5868 272.004 L73.3991 272.4667 L72.2046 274.8239 L71.7854 275.8327 L71.5667 276.2469 L71.3798 276.7658 L69.748 275.1487 L67.0235 272.2519 L63.899 269.6195 L62.9702 268.4829 L62.6505 268.5527 L62.5192 268.8012 L62.4934 269.0651 L62.6349 269.4426 L63.5718 270.0798 L64.8914 271.3425 L66.3038 272.8915 L67.3337 273.8393 L67.8816 274.6476 L68.4298 275.2966 L68.7438 275.9984 L69.2558 276.4439 L70.8819 278.1633 L71.3681 278.6112 L72.0317 279.0153 L72.1785 279.1833 L72.3431 279.7945 L72.3147 280.5554 L72.1195 281.4636 L71.9061 281.6677 L71.6129 281.8541 L71.157 281.8996 L70.8229 282.2037 L69.8747 281.7801 L69.3534 281.7896 L68.4877 281.876 L67.4241 282.5439 L66.784 282.5386 L66.3352 282.8504 L65.5188 283.2687 L64.5846 282.5049 L64.277 281.9878 L64.1007 281.56 L63.8498 280.3731 L63.3133 279.391 L62.4813 278.7786 L61.7568 277.8479 L61.1658 277.3438 L60.4693 276.9326 L59.526 276.7226 L58.974 276.5315 L58.0281 276.07 L56.5745 275.0393 L55.2211 273.711 L54.5185 273.1802 L53.3221 272.385 L52.5836 271.7531 L51.8942 271.0904 L51.3797 270.3579 L51.0887 269.7857 L50.6793 269.0686 L48.3426 269.6372 L49.5042 272.6726 L51.3127 273.4181 L47.0562 275.8321 L48.9442 278.6603 L50.9608 282.0268 L55.2249 281.5535 L55.7735 282.3345 L59.6365 285.3223 L62.9357 285.3105 L63.3027 286.9375 L61.6229 289.807 L59.0841 289.1325 L61.0553 291.3394 L60.2267 292.7179 L59.8257 293.3391 L52.4478 297.9361 L50.3668 295.1672 L46.1028 295.2619 L48.7475 297.1374 L51.3922 299.0128 L47.3286 306.0826 L42.3987 301.8875 L40.5837 300.5989 L40.4733 301.0681 L42.1906 302.8761 L43.3204 305.6342 L49.8806 309.76 L56.5113 314.9566 L55.4822 317.8979 L47.8686 311.4402 L38.0037 304.3096 L37.2807 304.3486 L48.8061 313.706 L53.6396 318.3286 L54.5855 319.1864 L54.2714 324.0728 L52.8942 327.4625 L35.7056 313.0635 L35.7056 311.4544 L33.1063 310.5788 L30.9913 312.6967 L32.7166 317.7725 L42.8943 328.0541 L41.1917 329.2431 L52.444 338.6606 L45.3272 343.4697 L51.6116 347.5808 L50.3328 349.521 L48.6415 348.3912 L47.34 350.077 L48.2745 350.0889 L47.2832 351.6445 L31.5929 342.5174 L35.1684 346.3682 L30.9838 351.053 L29.9021 350.1498 L28.3152 348.6645 L26.9036 347.0792 L23.7799 344.008 L20.0985 339.3586 L15.5988 336.253 L13.679 334.977 L12.5061 335.1426 L15.6048 336.4677 L19.9105 339.8454 L17.9998 341.8803 L22.4379 342.6611 L24.1552 344.6055 L25.1685 346.0831 L24.904 346.5587 L24.4647 348.1812 L23.6747 350.4798 L23.8484 350.5922 L25.8499 346.7698 L27.8014 349.1117 L30.2535 351.2482 L34.7711 353.6616 L37.7941 355.5248 L34.8392 362.1733 L26.9846 359.1448 L25.1685 358.228 L23.5037 362.5104 L16.5356 359.8919 L5.2973 365.0325 L0.0359 365.0053 L0.0 366.4716 M27.0035 378.7759 L28.5093 378.7759 L31.26 380.4734 L41.5436 384.0102 L40.9231 385.3291 L37.8812 385.2936 L27.0035 378.7759 M32.4419 313.0617 L33.2361 312.0856 L52.3835 328.5214 L51.0706 330.8462 L41.0442 322.7359 L40.7642 319.707 L32.4419 313.0617 M59.3278 405.5663 L63.9217 401.0019 L64.3943 401.695 L62.4719 403.539 L63.4488 405.0991 L60.7364 407.3961 L59.3278 405.5663 M103.9103 295.2684 L103.9985 293.5994 L105.1895 293.1291 L106.227 294.4632 L109.4089 292.4635 L109.4959 292.4221 L110.6821 292.8605 L114.7172 297.0782 L111.471 296.3801 L106.4313 298.4094 L105.1733 297.49 L104.6114 295.9896 L103.9103 295.2684 M108.1066 334.9238 L108.1774 334.0826 L108.7903 333.6585 L109.6866 333.8708 L110.174 334.641 L109.6473 335.2308 L108.6515 335.5532 L108.5311 335.5922 L108.3189 335.6869 L108.1066 334.9238 M134.364 229.1395 L134.4688 228.5305 L134.5433 227.7263 L134.8521 226.8079 L135.2497 226.6239 L135.5195 226.5138 L135.8543 226.3765 L136.3432 226.4132 L136.5225 226.6321 L136.6239 226.7558 L136.734 226.9807 L137.1309 227.3127 L137.5089 227.3074 L137.8517 227.2198 L138.2531 227.2328 L138.7086 227.3103 L139.0775 227.6423 L139.4865 228.4359 L140.4491 229.5585 L140.9012 230.1786 L141.4714 231.1349 L142.3563 232.7469 L143.3484 234.0428 L143.9072 234.7837 L144.2046 235.3098 L144.1883 236.2205 L143.9836 237.1123 L143.5856 238.0449 L143.1456 238.6603 L142.4979 238.1478 L141.8399 237.6951 L141.1309 236.8892 L140.3284 236.1087 L140.2232 236.0181 L139.1509 235.0979 L138.1158 234.1215 L136.748 232.7398 L135.5422 231.1284 L134.6712 230.0869 L134.4056 229.504 L134.3901 229.3697 L134.364 229.1395 M142.6261 226.0765 L142.8705 224.9888 L143.118 223.9301 L143.2005 223.6638 L143.429 222.9241 L143.5542 221.8186 L143.5542 221.5233 L143.9208 221.3683 L144.3684 221.4416 L144.4324 221.5067 L144.7929 221.8725 L145.4006 223.259 L145.6791 224.6728 L146.2197 225.387 L146.897 226.2942 L147.3359 226.5753 L147.9231 227.1665 L148.3332 228.0417 L149.0596 229.446 L149.3824 230.0342 L150.4599 230.8308 L153.6109 234.4742 L158.3747 239.9402 L159.3785 241.4527 L161.3584 243.5292 L161.5695 243.586 L166.0549 241.5285 L166.1737 241.6226 L166.5294 241.9036 L169.1548 244.8328 L169.9081 245.2819 L170.0401 245.1996 L170.6462 244.8233 L172.9008 242.4818 L173.0586 242.5179 L178.342 247.1139 L178.6257 247.4062 L178.7869 247.5719 L178.5788 247.9453 L176.5879 250.2873 L176.7003 250.7506 L177.4619 251.3542 L178.2069 251.9453 L178.2027 252.0394 L178.1868 252.3785 L177.852 253.8678 L177.813 254.0406 L177.6511 255.156 L177.4475 255.1761 L176.8497 255.0773 L176.6129 254.8826 L176.4146 254.7199 L175.7014 254.3578 L174.894 254.2779 L174.0885 254.2193 L173.2372 253.7483 L172.4461 253.2175 L171.1328 252.4175 L169.0821 251.0359 L168.4911 250.3998 L167.7231 249.7494 L166.1904 248.3784 L164.7723 247.1411 L162.3088 244.3398 L158.0921 247.5855 L158.0645 247.6068 L156.5121 245.5002 L155.2098 243.6043 L154.1288 242.3451 L152.0274 239.897 L150.0574 236.9549 L149.7554 236.5039 L146.4168 231.7243 L144.8119 230.0532 L143.7714 228.4436 L142.7336 226.5676 L142.6261 226.0765 M148.8565 208.9902 L149.1206 207.6219 L150.0835 206.7401 L150.7509 206.1602 L151.5356 205.7932 L151.8114 206.2164 L154.3971 210.1857 L156.1617 212.763 L156.5166 213.2779 L156.8098 213.7087 L157.1091 213.9833 L157.2351 214.3401 L157.6778 214.7716 L158.4182 215.5154 L159.0981 216.5653 L159.7678 217.8021 L159.8983 218.6129 L160.3024 219.1929 L160.7636 219.9219 L161.3051 220.7558 L162.1999 222.0938 L163.254 223.4212 L162.8783 224.0946 L162.5506 224.3556 L161.7814 224.9687 L160.4761 225.6764 L159.9142 225.5989 L159.8393 225.5255 L159.0936 224.7982 L157.2465 221.3848 L156.2393 219.7266 L155.1504 218.3703 L153.6313 216.0072 L152.0834 214.0573 L151.4554 213.1524 L150.556 211.5042 L149.7482 210.4567 L148.8565 208.9902 M150.511 266.761 L150.6896 266.867 L152.0411 267.6693 L153.6302 268.6491 L155.1069 269.5367 L156.5022 270.6029 L158.0119 272.3773 L159.3482 273.3926 L159.7046 273.8169 L160.2078 274.376 L160.4099 274.6387 L160.596 274.7434 L161.537 275.7682 L165.3667 278.2491 L164.4306 277.4503 L162.3315 275.7451 L159.2343 273.1045 L157.1019 271.1685 L155.7705 269.623 L154.5155 268.6846 L153.0464 267.9385 L151.0362 266.6048 L151.0097 266.4327 L150.9756 266.2102 L151.1353 265.6706 L151.92 264.496 L152.626 264.2375 L152.6525 264.2274 L153.0509 263.8387 L153.7073 262.8204 L153.8273 262.6056 L154.3993 261.5796 L155.2662 262.0671 L154.2991 261.1275 L153.4641 260.5855 L153.2272 260.4323 L153.2249 260.1482 L154.0252 257.6151 L154.36 257.7856 L155.6029 258.4199 L154.5113 257.3773 L154.2957 257.1714 L154.6457 255.811 L155.6313 254.3548 L156.2189 254.4193 L159.9502 256.9441 L160.2952 256.8779 L156.5548 254.3696 L155.7909 253.901 L155.153 253.5098 L154.3551 252.1276 L154.234 251.9175 L153.5889 250.8009 L154.0165 250.2773 L154.7754 250.0252 L155.2242 249.5524 L155.5605 249.0216 L156.5299 248.679 L156.7588 248.5979 L157.1662 249.0258 L157.6017 249.7838 L157.7584 249.9997 L157.834 250.1039 L157.8723 250.1222 L157.9687 250.1678 L158.0936 250.1299 L158.5752 250.608 L158.7826 250.7104 L159.0028 250.4583 L159.0913 249.8992 L159.6414 250.8222 L160.2264 251.8814 L160.321 252.0856 L160.6006 252.7045 L160.929 253.4311 L161.6104 255.0897 L162.2385 255.3477 L162.4795 255.7193 L162.8518 256.5317 L163.2332 257.1512 L163.296 257.7867 L163.0061 258.424 L162.9853 258.4696 L162.9399 258.4471 L162.453 258.2074 L162.0765 258.1755 L162.7409 259.1778 L163.022 259.8613 L163.2744 260.3636 L163.302 260.6453 L163.3728 260.8737 L163.5892 261.066 L163.9952 261.7736 L164.1911 262.1701 L164.0296 263.3576 L157.7349 259.763 L157.9945 260.0684 L164.1128 263.8736 L166.2324 266.4238 L166.1506 268.9408 L161.0905 265.4842 L157.5794 263.2476 L158.29 263.9623 L166.1885 269.1615 L166.3103 269.726 L166.2112 270.0141 L165.8393 270.4129 L165.3531 270.6946 L164.467 271.0934 L163.8381 271.2336 L163.1582 271.6377 L161.9782 272.4436 L161.9592 272.9021 L162.0345 273.1246 L162.4288 273.3364 L162.8718 273.6666 L163.9891 273.795 L164.0428 273.792 L164.5551 273.7607 L165.4446 274.5056 L166.1139 274.7541 L166.5017 274.6298 L168.4348 276.009 L168.4488 276.0386 L168.6864 276.535 L168.7102 276.5853 L168.5744 277.3633 L167.4359 279.107 L167.0803 279.5265 L167.0303 279.5856 L166.6641 279.5472 L166.3792 279.5756 L166.2051 279.6815 L165.5581 280.8121 L163.6452 279.3673 L163.246 279.2093 L163.6437 279.6188 L165.5532 281.0317 L163.4087 286.227 L161.0364 284.5017 L159.8136 283.4586 L159.8 283.4267 L159.5491 282.8333 L159.5264 282.2848 L159.8181 281.518 L160.0943 280.3447 L160.2797 279.5584 L160.2245 279.0028 L160.2199 278.981 L160.1333 278.5686 L158.671 277.474 L155.4012 274.4973 L155.3891 274.4085 L155.3407 274.0488 L155.5503 273.8518 L156.0005 273.3364 L156.2525 273.5743 L158.7883 275.9711 L159.9226 276.9273 L162.5052 278.7271 L160.5533 277.1048 L162.7863 278.7685 L158.2767 275.2203 L156.43 273.4033 L156.2154 273.1921 L156.3271 273.0542 L156.6108 272.7039 L156.4247 272.4525 L155.0562 271.1803 L155.3051 270.8934 L155.4693 270.6153 L155.1186 270.249 L154.7558 270.2479 L154.5193 270.6567 L152.9041 269.3686 L150.5727 267.7361 L150.5765 267.0729 L150.5681 267.0326 L150.511 266.761 M152.0475 205.012 L152.5273 204.8516 L153.892 204.5818 L154.3449 204.3072 L154.943 203.9959 L154.9748 204.0432 L155.6475 205.0464 L156.4152 205.9394 L157.1485 207.1497 L157.6127 207.6912 L158.1299 208.3883 L159.2003 209.9336 L160.1204 211.6492 L163.6251 216.7854 L164.2063 217.9093 L164.7061 219.0023 L164.2785 219.5846 L163.7121 219.6249 L163.3815 219.9468 L162.8014 220.3894 L161.585 220.7031 L160.4428 218.9141 L159.7947 217.7217 L159.125 216.4848 L158.4451 215.435 L156.6218 212.8583 L154.0096 209.0985 L152.6309 206.8626 L152.1977 205.8962 L152.1171 205.7163 L152.0475 205.012 M155.57 203.2756 L155.6536 203.1513 L155.8859 202.8057 L155.9608 201.8949 L155.87 201.2912 L155.8515 201.1681 L155.6948 200.8255 L155.7221 200.4378 L155.8708 199.856 L156.0543 199.7075 L156.542 199.3133 L156.8412 199.5353 L157.5987 200.2934 L158.257 201.019 L161.5763 205.9311 L167.1238 214.1928 L168.546 216.0049 L169.3072 217.2867 L169.0768 217.6518 L167.854 218.2768 L167.6762 218.5774 L168.0379 218.7342 L168.4087 218.8147 L168.7575 218.8922 L169.4453 218.5188 L169.8801 218.4383 L170.4211 218.4644 L171.4457 219.442 L173.8047 222.3181 L175.622 224.6231 L175.9265 225.0527 L177.7665 227.6482 L178.8001 229.2028 L179.2617 230.2579 L179.4097 230.7722 L179.4812 231.0219 L179.4259 231.4823 L179.1588 232.1232 L177.7983 233.4564 L177.2742 232.525 L176.5637 231.5965 L176.0658 231.0367 L175.1626 230.2603 L172.4317 226.7535 L167.8888 220.6682 L165.7167 218.0087 L163.0039 214.4727 L160.5222 210.3437 L159.0179 208.499 L158.6396 207.99 L158.5624 207.645 L158.6123 207.0733 L158.4564 206.6821 L157.7417 206.3578 L156.5079 204.7753 L155.9472 204.1202 L155.6248 203.3987 L155.57 203.2756 M157.4576 197.5272 L157.5567 197.0206 L158.0202 197.3378 L158.2385 197.658 L158.7901 198.3836 L159.2362 198.6866 L159.6925 198.8819 L160.0338 198.8795 L160.3077 198.9227 L160.3263 198.9257 L160.7228 198.731 L161.2071 198.654 L161.6202 198.6724 L161.9399 198.9358 L164.2729 202.6205 L173.0333 214.697 L170.689 216.2724 L170.737 216.7594 L171.2917 216.9766 L173.6742 215.3012 L175.331 217.2991 L177.7177 220.045 L179.0256 221.6866 L179.1244 221.9322 L179.2201 222.1695 L179.1936 222.2571 L179.1096 222.5353 L178.5046 222.9501 L177.8418 223.6662 L176.7131 224.4284 L176.3178 224.2887 L175.2769 223.2697 L173.0563 220.419 L170.9414 217.9045 L170.151 216.8855 L167.2997 213.0044 L162.985 206.5129 L160.8018 203.1555 L160.0327 201.7185 L159.7584 201.4274 L158.9498 200.3674 L158.3335 199.5305 L157.8806 199.105 L157.5707 198.5055 L157.5143 197.9924 L157.4576 197.5272 M162.7042 289.7668 L163.1654 289.3041 L163.1968 289.2645 L163.7068 289.3952 L166.3776 290.3519 L167.0348 290.8016 L167.8797 291.3802 L169.5256 292.4848 L169.8789 292.8575 L170.3621 293.1717 L170.8407 293.4415 L171.6326 293.6793 L171.8116 293.6615 L172.2278 293.303 L172.5142 293.4557 L175.729 295.8086 L177.003 298.1733 L176.8342 298.3046 L175.8705 299.0566 L175.4018 299.1737 L174.6076 299.3725 L174.0631 299.5086 L171.314 296.722 L170.8479 296.2499 L170.0685 295.7204 L166.1972 293.0888 L164.5479 291.776 L162.9097 290.4714 L162.8957 290.4235 L162.7042 289.7668 M164.3871 286.7388 L164.4261 286.382 L164.4492 286.3051 L164.5665 285.9134 L165.5074 282.88 L166.6682 280.5033 L166.8146 280.2589 L166.9652 280.0572 L167.1521 280.0063 L167.4605 280.2696 L167.7189 280.511 L168.0239 280.6305 L168.3141 280.8684 L168.5789 280.9062 L168.7897 280.9334 L169.0931 280.6625 L169.8596 279.3969 L170.6731 278.0544 L170.7563 277.5894 L170.8403 277.319 L170.9016 276.8586 L171.0151 276.6066 L171.2361 276.1995 L171.2297 275.8197 L171.4608 275.5357 L171.5176 275.3215 L171.5407 275.0322 L171.4843 274.7245 L171.3609 274.5281 L171.0348 274.3778 L170.4911 274.334 L169.9739 274.3855 L169.6519 274.4713 L169.1956 274.4044 L168.8615 274.4375 L168.6901 274.4174 L167.9319 274.3269 L167.5585 274.0541 L167.0946 273.2453 L166.9917 272.2081 L167.1185 271.3306 L167.1234 271.2969 L167.2055 271.0798 L167.8389 270.9153 L168.6451 271.4661 L169.4075 271.791 L170.4188 272.369 L171.8672 273.0944 L173.67 274.5328 L174.5667 274.9393 L174.967 275.3168 L175.6401 276.0847 L175.8225 276.0924 L175.8842 275.9297 L175.5993 275.6422 L174.947 274.8677 L174.2152 274.3151 L172.7003 273.066 L172.6152 272.0483 L172.5516 271.4075 L172.8418 270.7857 L172.5876 270.533 L171.4741 270.5372 L171.8853 269.9562 L172.5342 269.9928 L172.7075 269.6443 L172.8679 269.4893 L173.6712 269.8479 L174.0465 270.0343 L175.0302 271.0585 L175.2837 271.3815 L175.7003 271.8004 L176.5043 272.0596 L176.5584 272.0803 L175.4082 270.8484 L174.4343 270.0035 L172.261 268.7645 L172.1929 268.5201 L172.1483 268.3586 L172.056 267.9669 L172.2436 267.3871 L172.5569 266.8374 L173.1339 266.2025 L173.4415 265.8203 L173.9542 266.1179 L174.3151 266.3279 L174.6329 266.3362 L174.7279 266.3386 L174.9039 266.2954 L174.9368 266.1108 L174.8146 265.9161 L174.6606 265.58 L174.4196 265.4593 L174.429 265.1806 L174.8361 264.9315 L175.569 264.4203 L176.1078 263.7251 L176.8925 263.2914 L177.3859 262.3168 L177.6874 261.1086 L177.7748 260.4855 L178.0294 259.5536 L178.1494 259.208 L178.5141 259.0169 L178.852 258.9293 L179.3257 259.1631 L179.3843 259.192 L180.0918 258.9613 L180.4361 258.5631 L181.2999 258.5092 L181.9023 258.2406 L182.6529 257.7489 L184.5193 256.6655 L184.9363 256.3666 L185.2212 256.4453 L185.2825 256.6069 L185.4883 257.1512 L185.4493 258.3412 L185.4232 259.1299 L185.1266 260.4423 L185.1391 261.5902 L185.06 262.7263 L184.8882 264.4913 L184.4486 265.7001 L184.231 266.8391 L183.9352 267.3557 L183.5848 267.9663 L183.5568 268.2024 L183.4236 268.6994 L183.6328 269.4106 L183.057 270.462 L181.9257 271.2117 L181.1418 271.6525 L181.1864 272.1028 L181.3453 272.211 L182.2765 272.9169 L182.7452 273.511 L182.847 273.7488 L183.0487 274.2204 L183.0536 274.9683 L182.8932 275.6096 L182.7138 276.2741 L182.62 276.6569 L181.3135 275.8581 L180.2307 274.8748 L179.2909 273.9589 L177.9121 273.0867 L178.9235 274.2192 L180.3461 275.4872 L181.5455 276.3332 L182.4622 276.9462 L182.9912 277.5722 L183.1853 278.2183 L183.357 279.4277 L183.5133 280.482 L183.497 280.8411 L183.1909 281.4648 L182.7899 281.4511 L182.2568 281.6772 L182.0846 281.773 L182.0793 281.9819 L182.4028 282.2753 L182.6079 282.5706 L183.2579 282.6765 L183.6892 282.6179 L183.9912 282.1706 L183.9616 281.3346 L184.0093 279.2064 L184.0661 278.9916 L184.1508 278.8005 L184.3305 278.7827 L184.8073 278.8762 L184.8599 278.8869 L186.1671 279.5135 L187.5231 280.3696 L189.2643 281.7097 L189.8416 282.2842 L190.0985 282.5398 L190.5968 283.3776 L191.1761 284.539 L191.2192 284.6485 L191.2453 284.7147 L191.2351 284.8721 L190.4928 285.7613 L190.1636 286.3619 L189.9714 286.3932 L189.7592 286.4275 L188.8477 285.9945 L187.4966 284.8413 L186.539 284.3219 L187.9597 285.8507 L188.9022 286.7228 L189.2079 286.9269 L189.3286 287.0979 L189.2692 287.286 L188.8348 287.8777 L188.3623 288.3421 L187.8806 288.5551 L187.4118 288.719 L186.4675 288.2256 L185.7736 287.9475 L184.679 287.4949 L183.99 287.1044 L183.5666 286.8683 L183.3487 286.8204 L183.3786 287.0156 L184.1807 287.5061 L185.3956 288.2463 L185.9707 288.5368 L186.7732 288.9965 L187.1031 289.4236 L187.1247 289.8005 L186.8954 290.0159 L186.242 290.8453 L185.881 291.2341 L185.6203 291.5648 L185.0555 292.2091 L184.6597 292.8954 L183.5084 294.3993 L182.8209 294.885 L181.5296 295.676 L180.5406 296.2931 L179.8429 296.4588 L179.2054 296.4262 L178.3295 296.1931 L177.5504 295.4849 L176.7377 294.7058 L176.1017 293.9887 L174.9296 293.0255 L172.7207 291.2311 L169.4329 289.3035 L167.6886 288.3226 L164.9898 287.3896 L164.5843 287.1144 L164.3871 286.7388 M164.425 223.2105 L164.5623 222.9294 L165.8551 222.859 L167.6641 223.6117 L167.93 224.0958 L168.7011 224.452 L169.2925 224.6657 L170.0174 224.8769 L170.3659 225.3823 L170.6924 225.6315 L173.1108 228.108 L174.471 230.2763 L174.9617 231.345 L175.1452 231.745 L175.2062 232.9504 L174.8849 234.5594 L174.5664 236.1844 L174.3269 236.4655 L174.1199 236.6832 L173.8721 236.601 L173.6004 236.2803 L173.1649 235.0849 L172.941 234.4701 L172.0242 233.1818 L171.2667 231.6166 L170.5611 230.7053 L168.2093 227.9867 L165.9702 225.4622 L164.6705 223.6993 L164.425 223.2105 M168.1423 291.1743 L168.7102 290.0756 L168.9856 290.2283 L171.0163 291.566 L174.2939 293.6408 L176.8702 295.921 L178.4085 297.5681 L178.729 297.9112 L177.7869 298.4596 L177.5353 297.9769 L176.6863 296.3475 L174.8217 294.4034 L173.7033 293.7201 L172.7427 293.0249 L170.6803 292.2795 L169.0208 291.4932 L168.5384 291.3181 L168.1423 291.1743 M194.6482 257.2276 L194.7088 256.7081 L195.2101 255.6856 L195.509 255.2601 L195.8465 255.0075 L196.2578 254.8542 L196.3542 254.9134 L196.9301 255.269 L199.7019 257.066 L201.8177 258.6779 L202.6822 259.6021 L202.8093 260.0228 L202.6338 261.1038 L202.2308 262.0417 L201.9255 262.0565 L200.0205 261.0914 L198.8555 260.3062 L195.7629 258.308 L195.3088 257.9205 L194.8389 257.5347 L194.7689 257.4222 L194.6482 257.2276 M195.7375 291.434 L197.9112 287.0553 L200.0924 289.013 L202.7639 287.5357 L203.0878 287.1014 L201.473 284.0071 L200.2619 282.7031 L199.5555 281.5653 L201.0084 277.1811 L205.2913 281.7375 L210.1214 277.1586 L208.608 276.4155 L208.1214 276.2019 L207.7275 275.9836 L203.675 273.9938 L198.7329 269.8917 L198.7594 269.8479 L198.6213 269.7295 L199.0277 268.9355 L199.6747 267.7699 L200.1976 267.29 L200.3205 267.248 L200.5752 266.8238 L202.9134 268.0166 L207.1483 269.9538 L207.953 268.7041 L208.3499 267.9586 L209.6636 265.7771 L210.5667 264.6457 L211.7347 262.8328 L212.0071 262.8328 L221.8216 265.2173 L222.4448 267.3557 L221.9612 268.1817 L221.3082 269.2077 L220.0793 270.4508 L219.2412 272.5187 L217.2727 275.0097 L217.2208 275.9268 L216.8992 278.181 L215.749 279.246 L214.6026 280.3169 L215.0907 279.3939 L205.7605 288.5705 L203.9482 287.9611 L202.7526 288.748 L200.4352 290.4874 L200.5256 292.0523 L204.546 290.375 L203.1688 294.7714 L199.8608 295.9624 L198.1473 296.6972 L197.9551 296.4333 L197.3512 294.5508 L198.0194 292.2682 L196.4681 291.8068 L195.7375 291.434 M279.7771 211.2503 L280.7018 211.0568 L281.8527 210.7822 L282.295 210.6739 L282.7873 210.6893 L282.8304 210.755 L283.1698 211.2716 L283.3665 212.2357 L283.656 213.1157 L283.9677 214.2235 L284.497 216.1806 L284.945 218.0087 L285.3283 218.6206 L285.836 219.6036 L288.1281 225.2782 L288.5076 226.3457 L287.2163 226.4422 L286.1557 226.2854 L285.4929 225.9966 L285.4263 225.9676 L285.0521 225.0326 L284.7494 224.2976 L284.7619 224.2502 L284.9159 223.6608 L285.0025 222.54 L284.4634 223.0211 L284.1323 222.311 L284.1115 221.779 L284.3196 221.186 L284.6609 220.4853 L284.4959 219.7042 L284.2609 219.1076 L283.5493 218.1448 L283.1085 216.9488 L282.6518 215.9043 L282.3544 215.5379 L281.7449 215.3048 L281.424 215.2556 L280.9818 215.1882 L280.8327 214.5988 L280.5845 214.4579 L280.2625 213.1962 L279.8694 211.8611 L279.7771 211.2503 M280.1244 176.1173 L280.2039 175.4627 L280.4702 175.2366 L280.5826 175.1413 L281.4021 175.1597 L281.9276 175.2798 L282.1857 175.4609 L282.5765 176.109 L283.0131 178.1031 L283.135 179.0104 L283.4588 180.8334 L283.5103 181.839 L283.648 184.4236 L283.6495 184.9084 L283.3147 185.1516 L282.9545 185.3908 L282.163 185.5281 L281.648 185.0126 L281.5618 184.3526 L281.3926 183.8294 L281.2735 183.2695 L281.1475 182.6404 L281.0188 181.6638 L280.8925 180.3824 L280.9084 179.7343 L280.827 179.3413 L280.7294 179.0359 L280.6496 178.7867 L280.3336 177.7485 L280.1244 176.1173 M280.8951 170.9614 L280.9712 170.4891 L281.0063 170.463 L281.2791 170.2606 L281.4846 170.2784 L281.5451 170.2837 L281.9352 170.318 L282.589 170.8359 L282.8512 171.3876 L282.9874 171.5367 L283.2579 171.8339 L283.7384 172.9732 L283.99 173.9327 L284.3797 175.4171 L284.2568 176.3991 L284.2099 176.7755 L283.3166 177.394 L283.0404 176.2274 L282.749 174.9957 L282.242 173.545 L282.0502 172.9963 L281.7672 172.6589 L281.5088 172.3506 L281.3798 172.1967 L280.9628 171.864 L280.8951 170.9614 M281.9658 198.7825 L281.9757 198.5836 L282.0411 197.2774 L282.575 196.208 L282.9621 195.0734 L283.0093 194.9343 L283.0389 194.9124 L283.5057 194.5639 L283.8039 194.8823 L284.3328 196.4613 L285.3078 201.206 L285.83 204.6049 L286.738 208.4203 L287.105 209.7252 L288.2484 213.6495 L288.9022 215.3012 L289.9181 217.3985 L291.178 220.8925 L291.3895 221.8731 L292.5949 224.8136 L293.3732 226.386 L294.3373 228.092 L294.8488 229.7839 L295.3475 232.0166 L295.7073 233.3777 L295.7217 233.6558 L295.6017 233.7872 L295.3811 233.8357 L295.1659 233.8038 L294.1027 233.5103 L293.4179 233.0197 L291.4826 230.2047 L289.4455 225.6912 L289.2374 225.2829 L287.4841 221.6251 L286.7358 219.5503 L286.6154 219.0035 L286.4834 218.604 L286.3956 218.1205 L286.2885 217.7057 L285.7664 216.8523 L285.4422 215.445 L285.0211 213.8637 L285.0487 213.6081 L285.2068 213.1932 L286.0604 211.4983 L285.9499 210.2454 L285.8387 209.7868 L285.7153 209.4796 L284.984 208.1155 L284.4535 206.3194 L284.2454 205.5648 L283.0328 203.8124 L282.788 203.2218 L282.6726 202.3234 L282.631 201.6321 L282.5527 200.8379 L282.4581 200.1514 L282.0298 198.9606 L281.9658 198.7825 M285.7831 200.7527 L286.0929 199.7329 L285.9136 198.4605 L285.8879 197.9018 L285.9257 197.3964 L286.0918 196.9957 L286.5163 196.5406 L286.9556 196.2311 L287.3392 196.2518 L287.7607 196.3577 L287.9699 196.3962 L288.1735 196.3761 L288.2057 196.1068 L288.133 195.6712 L288.1538 195.2853 L288.3926 194.7302 L288.1247 193.6347 L287.5689 192.1663 L287.3721 190.9293 L287.7463 189.9705 L287.6714 189.21 L287.3873 188.1163 L287.4138 187.4072 L287.5761 187.161 L287.8738 187.1527 L288.0918 187.0403 L288.0305 186.6058 L287.615 186.2632 L287.3653 185.8151 L287.3309 185.4647 L287.3892 185.1635 L287.5288 184.7953 L287.3956 184.0407 L287.4542 183.7395 L287.7043 183.5968 L288.3396 183.717 L288.5817 184.1591 L289.0029 184.603 L289.1447 185.9844 L289.7183 186.8787 L289.9847 187.4729 L290.4217 188.2287 L289.9495 185.8246 L289.7554 184.7515 L289.175 183.6276 L289.1201 183.0724 L289.2249 182.6486 L289.6207 182.1675 L290.6438 182.1533 L291.1757 182.4841 L291.7308 182.4587 L292.1137 182.1982 L293.4209 185.608 L293.7421 186.8112 L294.4148 189.1248 L294.5249 189.3497 L294.615 189.3704 L297.0073 197.4201 L297.1087 198.4469 L297.2339 199.4986 L297.3395 200.3005 L297.3478 201.5724 L297.187 202.0482 L296.0837 202.8631 L295.842 204.0314 L295.3864 204.3332 L295.6343 206.4093 L296.0887 208.4227 L296.209 209.64 L296.2362 210.942 L296.9305 212.8458 L297.0217 213.4501 L297.3584 214.4798 L297.7542 215.3563 L298.1813 216.3889 L298.6297 218.0708 L298.1344 218.3981 L297.6592 219.4183 L297.9176 220.1995 L299.0341 223.3549 L298.1019 223.9017 L297.4322 223.607 L295.5412 219.6178 L294.7024 217.9282 L294.1685 216.3866 L293.3967 214.5147 L292.9877 213.0494 L292.3146 211.2858 L291.9548 210.613 L291.7951 210.481 L291.6555 210.5538 L291.5855 210.7378 L291.6869 211.171 L293.4148 215.9528 L294.1564 218.0655 L294.8514 219.2745 L295.5957 220.7078 L296.0542 221.8441 L296.072 222.5104 L296.2097 223.4218 L296.506 224.3171 L297.1329 225.3184 L297.8726 226.5718 L298.7629 229.3472 L298.7511 229.8206 L298.3459 230.0999 L296.5306 230.884 L296.0909 230.8225 L295.8355 230.6118 L295.5018 229.6117 L294.8049 227.982 L293.282 224.8669 L291.8401 220.7635 L289.108 214.1454 L288.2609 211.8084 L287.4406 209.1689 L286.5243 205.3411 L285.8451 202.1902 L285.7831 200.7527 M290.3078 180.5327 L290.4274 180.2551 L290.6162 180.0888 L290.9718 180.1083 L290.9998 180.1101 L291.674 180.1729 L292.4708 180.3611 L293.0172 180.7079 L294.2506 181.6442 L294.9392 181.7626 L295.8874 182.0396 L296.478 182.0112 L296.9468 182.1675 L297.3096 182.4954 L297.781 183.2186 L298.6308 185.318 L299.3516 187.0994 L300.0856 189.1822 L300.1147 189.7924 L299.5986 190.3996 L299.5044 191.4028 L299.4938 191.5141 L299.7129 192.2598 L299.9887 193.2162 L299.7473 194.1756 L299.8086 195.6611 L299.6842 196.5607 L299.7042 197.1952 L299.6372 197.5438 L299.6096 198.0101 L299.6172 199.1766 L299.481 200.6603 L299.4972 201.9576 L299.4098 202.6933 L298.9467 203.1886 L298.6206 202.7986 L298.3088 201.4232 L297.9146 199.5915 L297.4689 198.3688 L297.0784 197.4609 L294.6759 189.4716 L294.6963 189.3035 L294.7084 189.1248 L293.8874 186.4602 L293.7024 185.8151 L292.366 182.4297 L292.1973 182.0722 L291.9907 181.8147 L291.5628 181.5312 L291.4357 181.4253 L290.8364 180.9245 L290.3078 180.5327 M334.6558 39.2817 L334.6985 38.8796 L334.7799 38.5971 L334.9963 38.3312 L335.5309 37.8557 L335.6228 37.7888 L336.137 37.4412 L336.8033 37.125 L337.1862 37.0492 L337.5608 37.0717 L337.6955 37.1226 L338.0761 37.2665 L338.2554 37.3885 L338.3803 37.6484 L338.3057 37.8983 L338.126 38.1086 L337.7904 38.4123 L337.4162 38.6907 L336.8786 39.1395 L336.8442 39.2301 L336.9577 39.3237 L337.6395 39.2651 L338.112 39.1135 L338.5388 38.94 L338.8237 38.7149 L338.8301 38.7138 L338.8676 38.6978 L339.1385 38.6344 L339.3107 38.6617 L339.4094 38.7694 L339.4692 38.8813 L339.6027 39.3906 L339.7064 39.4486 L339.8127 39.4386 L339.91 39.3308 L339.9837 39.0365 L340.0848 38.7712 L340.3545 38.2246 L340.759 37.8166 L341.179 37.5644 L341.6303 37.3618 L341.6349 37.3417 L342.0333 36.9686 L342.1725 36.8911 L342.3065 36.8632 L342.4964 36.8543 L342.664 36.878 L342.7968 36.9337 L342.8452 36.9935 L342.899 37.2008 L343.0034 38.0529 L343.098 38.3052 L343.2527 38.481 L343.4771 38.593 L343.6303 38.5776 L343.8331 38.4331 L343.9239 38.2057 L343.944 37.8812 L343.8952 37.5294 L343.4669 36.0431 L343.3969 35.596 L343.423 35.4189 L343.5649 35.3159 L343.7643 35.2632 L343.922 35.3123 L344.4146 35.5912 L344.5963 35.5948 L344.7336 35.4722 L344.8244 35.3325 L344.7915 34.9179 L344.8074 34.7829 L344.8834 34.6503 L345.0 34.5526 L345.1172 34.4898 L345.2315 34.4708 L345.359 34.4732 L345.5804 34.5224 L345.622 34.5768 L345.9084 34.9552 L346.124 35.2975 L346.3885 35.8725 L346.502 35.9791 L346.6152 36.0366 L346.8509 36.1947 L347.199 36.7324 L347.6083 37.4483 L347.9216 38.214 L347.9871 38.3283 L348.1078 38.3887 L348.2133 38.3898 L348.7585 38.2098 L348.9004 38.1832 L349.253 38.2181 L349.5553 38.4041 L349.7369 38.7594 L349.7559 39.1253 L349.5099 43.4617 L349.2754 45.7368 L349.3049 47.2456 L350.2197 52.0586 L351.3624 55.6084 L352.981 59.8712 L353.3729 61.7109 L353.6518 64.3494 L353.7808 67.3419 L353.6003 67.5959 L353.2424 67.8381 L352.6665 67.9547 L352.1955 67.9423 L351.6927 67.6078 L351.5773 67.4354 L350.7286 66.1671 L348.5171 61.3053 L348.4608 61.1146 L348.0764 59.8131 L347.4623 58.411 L346.5633 56.9757 L345.8191 56.1348 L345.0594 55.3597 L344.734 55.0281 L343.8513 54.1162 L343.6856 54.0351 L343.4964 54.0049 L343.297 54.0037 L342.9164 54.1666 L341.3477 54.9843 L340.053 55.4142 L339.2562 55.6368 L339.2244 55.628 L339.126 55.5824 L338.8668 55.4616 L338.6372 55.2188 L338.2229 53.3986 L338.235 52.6294 L338.381 52.0236 L338.2649 51.74 L338.0591 51.5043 L337.9516 51.3089 L337.8286 50.8595 L337.8419 50.1276 L338.4147 48.5394 L338.5581 47.8762 L338.5558 47.2752 L338.3621 46.8731 L337.9997 46.1164 L336.9395 43.9745 L336.8014 43.7845 L335.8533 42.4776 L335.7538 42.2099 L335.7863 41.9138 L335.8404 41.7989 L335.8741 41.7528 L336.064 41.6468 L336.2199 41.6397 L336.3648 41.6616 L337.1257 41.9659 L337.8582 42.3645 L338.3591 42.4142 L338.7401 42.3064 L338.8222 42.1673 L338.8196 42.0542 L338.686 41.8327 L338.1552 41.4046 L337.8858 40.9687 L337.6936 40.874 L337.0731 40.8373 L335.6709 40.6288 L335.5502 40.4044 L335.8828 40.0195 L336.0935 39.6666 L336.0595 39.4824 L335.9441 39.3717 L335.7659 39.3284 L335.5563 39.4102 L335.3538 39.74 L335.2161 39.8454 L334.9929 39.8762 L334.7356 39.6358 L334.6558 39.2817 M344.017 300.4493 L344.0632 300.2298 L344.3091 299.9955 L344.6061 299.9736 L344.8963 300.1097 L345.1755 300.4422 L345.2243 300.7072 L345.0684 300.9474 L344.7185 301.0433 L344.4449 301.0326 L344.2069 300.9196 L344.0991 300.748 L344.017 300.4493 M344.5282 32.7304 L346.8622 31.8978 L347.816 31.5431 L348.841 31.7456 L348.9019 32.6795 L349.4399 34.8208 L349.785 36.5665 L349.5413 37.9262 L348.1513 38.1293 L347.1868 36.3326 L346.4767 35.6937 L345.7359 34.3435 L345.0155 34.1712 L344.5282 32.7304 M360.3369 295.7944 L372.1075 286.7719 L376.5077 286.1152 L386.8746 277.3645 L388.4535 276.1599 L389.3782 279.5703 L387.6124 284.5887 L384.0748 288.4462 L374.2301 292.8776 L372.2513 293.3687 L369.0655 300.9119 L366.0727 301.6396 L360.3369 295.7944 M385.3608 270.7088 L385.418 270.149 L385.6128 269.978 L386.5254 269.6266 L387.0044 269.5562 L387.4055 269.8319 L387.6279 270.0419 L387.7483 270.2461 L387.8705 270.4532 L387.8814 270.6395 L387.7755 271.0099 L387.4573 271.3484 L387.1633 271.5501 L386.7471 271.6921 L386.2451 271.7158 L385.7244 271.6703 L385.6363 271.6288 L385.558 271.5916 L385.4131 271.3933 L385.3608 270.7088 M390.2303 288.0569 L390.2556 287.8593 L390.3759 287.6375 L390.4864 287.544 L390.7804 287.4174 L391.1886 287.3807 L391.466 287.3558 L391.6366 287.4754 L391.8371 287.744 L391.9525 288.1563 L391.9389 288.7048 L391.797 289.0385 L391.7161 289.084 L391.3789 289.0154 L391.0097 288.8344 L390.4565 288.3794 L390.2303 288.0569 M416.5951 250.0293 L416.6397 249.8169 L416.8342 248.8885 L417.0586 248.4311 L417.5224 247.8234 L418.2969 247.1843 L418.8342 246.8683 L419.5398 246.6097 L419.6711 246.6156 L420.1247 246.6352 L420.2401 246.8044 L420.1675 247.066 L419.8255 247.6707 L419.5266 248.0524 L418.7161 248.7849 L418.0642 249.5317 L417.6594 249.8264 L417.0139 250.108 L416.6866 250.1151 L416.5951 250.0293 M452.4388 229.7484 L452.5137 229.4993 L452.715 229.2377 L452.9791 229.0412 L453.3064 228.9093 L453.6098 228.9643 L454.1796 229.1359 L454.575 229.4099 L454.1323 229.823 L453.4872 230.1851 L452.768 230.3562 L452.5425 230.0798 L452.4388 229.7484 M460.5515 213.1826 L460.5855 213.0399 L460.6525 212.905 L460.934 212.6795 L461.8352 211.9759 L463.1182 210.9527 L463.3607 210.6816 L463.604 210.2241 L463.8076 209.9637 L464.2272 209.5163 L465.0013 208.8198 L465.3331 208.3966 L465.5646 208.1492 L465.811 207.8362 L466.0255 207.5746 L466.1889 207.2858 L466.2048 206.9047 L466.2843 206.7898 L466.4462 206.8112 L466.6051 207.0739 L466.7905 207.3331 L467.349 208.1339 L467.7171 208.6262 L468.0168 209.0192 L468.2767 209.3838 L468.5128 209.7826 L468.9229 210.32 L469.1594 210.6118 L469.215 210.852 L469.26 211.0402 L469.1719 211.2841 L468.8851 211.5101 L467.8949 212.0848 L466.5771 212.8736 L465.5673 213.4465 L465.0902 213.5844 L464.461 213.8549 L463.2567 214.6739 L462.668 215.0852 L462.3717 215.1621 L462.1042 215.1515 L461.8628 214.8651 L460.7482 213.4459 L460.6211 213.3465 L460.5515 213.1826" stroke-dasharray="" fill="none" fill-opacity="1.0" stroke="#ff0000" stroke-opacity="1.0" stroke-width="1.0px" stroke-linecap="butt" stroke-linejoin="miter" stroke-dashoffset="0.0px"/>
</g>
</svg>