<?xml version="1.0" standalone="no"?>
<!DOCTYPE svg PUBLIC "-//W3C//DTD SVG 1.1//EN" "http://www.w3.org/Graphics/SVG/1.1/DTD/svg11.dtd">
<svg width="512px" height="512px" version="1.1" xmlns="http://www.w3.org/2000/svg" xmlns:inkscape="http://www.inkscape.org/namespaces/inkscape">
<g id="layer" inkscape:groupmode="layer" inkscape:label="layer">
<path d="M0.0 85.8928 L0.9167 93.3072 L4.0675 98.2733 L11.942 106.1187 L15.8192 105.7491 L16.7159 108.4438 L17.5223 110.0144 L18.6644 107.6354 L21.655 108.0588 L23.7538 113.5559 L30.6666 112.6397 L42.273 117.2359 L42.5786 116.4044 L53.7041 116.8125 L61.6388 113.5097 L63.4371 103.9783 L65.7213 103.501 L67.1539 107.543 L62.7258 115.3882 L64.1434 116.1427 L65.4408 112.5473 L72.6641 112.4395 L77.2376 118.6063 L78.9307 126.0971 L81.3702 127.76 L84.1904 131.3168 L84.9167 132.9796 L75.6596 130.0003 L68.9923 131.0242 L71.2315 134.4962 L58.2776 141.9945 L56.4241 138.8997 L60.6269 135.2969 L54.5357 127.1595 L51.6804 126.3358 L48.5997 129.4537 L29.3392 130.0619 L27.2453 127.8678 L26.9247 130.4699 L29.8351 133.7187 L36.4072 131.5015 L48.8802 133.0489 L52.4919 136.8597 L50.1225 137.8758 L42.1478 143.9652 L9.0868 146.3979 L8.4456 149.2308 L16.6708 151.2323 L16.3602 159.3229 L15.4335 156.5363 L14.8274 158.7687 L11.3259 159.677 L24.8659 160.3853 L23.7689 165.4736 L15.5988 165.6814 L16.8812 173.7486 L24.2397 173.5177 L30.1657 184.6868 L47.3925 188.1815 L48.1839 185.8415 L46.4357 181.4 L48.1839 180.4224 L50.5383 183.3167 L58.9488 185.4951 L58.6432 187.989 L64.9399 187.7581 L64.9499 193.1847 L64.4389 194.7242 L67.75 196.2636 L67.1189 206.6855 L73.5157 208.1556 L75.4458 212.1541 L75.4513 212.0495 L75.7037 211.5245 L77.3067 208.5982 L80.3398 204.5372 L80.6809 204.0 L79.09 203.5828 L78.8641 203.6821 L78.5009 203.7152 L77.1073 203.405 L76.3865 202.8 L76.2367 202.2435 L76.2733 201.5361 L77.5697 198.886 L77.6884 197.4875 L77.2636 196.0327 L76.9415 195.2576 L76.9821 195.0682 L75.1237 188.701 L75.0475 188.6849 L74.0462 188.4139 L73.9455 187.9082 L74.1769 186.3934 L75.0064 186.2979 L75.9872 186.3341 L78.0816 186.7428 L80.3413 187.2893 L80.3062 187.4933 L81.2249 187.6503 L81.6086 185.1587 L81.3396 185.1287 L81.2114 184.5491 L81.275 183.9463 L81.7739 184.0857 L82.0414 182.3468 L90.747 182.4045 L91.0861 181.5193 L91.2369 181.3384 L92.4296 181.6055 L94.9768 182.0358 L96.5617 182.5531 L97.2024 182.898 L97.3301 184.1657 L97.3306 184.6376 L97.259 184.7638 L99.8683 185.7899 L100.0712 185.502 L100.6042 185.0517 L101.8976 185.7968 L102.7231 186.3479 L103.1674 186.5966 L103.1544 186.9068 L103.0757 187.0515 L104.6381 187.6657 L101.2569 191.4297 L104.2725 193.7774 L104.583 197.803 L108.1997 197.803 L110.6943 192.9923 L115.6585 200.0352 L107.9893 205.6695 L111.4006 212.4582 L109.0212 214.8057 L108.8008 209.364 L105.0188 209.0407 L101.2619 204.4379 L100.9213 204.1608 L98.5519 204.7535 L93.2671 215.4061 L90.3117 217.4226 L89.5548 219.0335 L89.4441 219.5061 L88.4057 222.4147 L87.9634 223.4268 L87.2485 223.9433 L85.3976 227.8824 L82.2518 227.6284 L82.0965 232.6311 L75.4342 237.857 L64.5992 240.9047 L57.947 240.9047 L60.4165 244.4527 L59.4197 248.0853 L62.4352 247.3388 L62.4352 243.5676 L66.7732 243.7908 L69.1877 257.7361 L65.6762 258.2748 L69.2528 264.4085 L75.4593 267.7638 L81.8411 271.1884 L84.2255 269.6647 L84.2255 267.4329 L83.1134 268.2256 L82.9731 265.8322 L84.6613 266.1092 L99.7541 264.6162 L99.7541 261.6841 L114.2859 259.3754 L114.9672 261.7149 L114.1407 262.6769 L93.6829 266.394 L89.7957 266.925 L88.7388 268.418 L93.3974 268.4872 L105.0739 274.4129 L109.3969 283.0396 L120.1818 281.9699 L121.4692 288.0954 L110.9648 288.8957 L109.988 286.3486 L106.8522 288.7264 L103.0352 286.541 L105.7251 283.7937 L103.6363 280.6924 L92.3655 278.1221 L88.9592 274.1743 L81.9262 275.7442 L79.5769 279.7921 L77.8587 282.0315 L73.8563 281.0387 L58.0972 272.312 L60.166 269.6877 L58.9388 267.2174 L59.4297 264.0852 L44.402 266.7326 L44.402 268.6103 L40.3645 268.6103 L40.5298 270.3419 L40.7001 272.0734 L38.9168 272.0734 L40.9606 275.6134 L48.785 275.598 L47.5327 276.229 L31.8438 278.2299 L32.0091 280.2692 L32.1744 282.3085 L37.9951 281.0772 L58.2976 280.6078 L57.9269 283.1011 L63.938 285.933 L63.938 287.8877 L56.1737 288.3109 L56.9451 296.9449 L60.4315 298.3378 L60.4315 300.2077 L60.4315 302.0853 L65.8866 302.0853 L78.2194 304.9709 L76.7116 312.181 L68.4463 311.2269 L68.4463 313.9124 L69.5734 317.3596 L65.6462 317.9444 L61.9343 318.3369 L61.9343 323.2461 L55.6728 323.2461 L55.6728 327.4396 L55.6728 331.6254 L44.943 332.1871 L44.6123 336.5498 L38.1304 343.8363 L36.1317 352.5306 L23.7388 360.7247 L15.724 364.4946 L14.2122 364.9293 L16.8666 365.9172 L18.2868 364.9293 L21.4661 363.3552 L24.6765 362.028 L26.3987 361.4017 L29.8 358.9089 L37.6745 353.9309 L62.9963 362.8866 L66.1671 359.3628 L82.898 347.4833 L87.4815 350.2993 L87.4965 351.9151 L88.1828 350.5148 L91.7393 352.1998 L89.7757 355.5082 L93.0267 355.7544 L98.3265 348.1681 L103.3658 348.7144 L106.8923 351.5919 L109.7626 347.768 L110.4509 346.9593 L110.1012 346.6116 L109.4139 346.0345 L110.9488 344.9704 L113.1528 344.2595 L120.0165 341.0817 L121.2037 339.8968 L126.9293 340.1738 L127.4307 341.3057 L127.6746 341.2833 L128.0478 340.9579 L128.4125 340.7024 L128.8658 340.6309 L129.1103 340.2161 L129.3563 340.0423 L129.2315 339.7914 L129.5411 339.1605 L129.4604 338.6319 L129.0347 337.5978 L128.9395 336.903 L129.0166 335.8742 L129.3207 335.1771 L129.6418 335.0479 L129.3588 334.2954 L128.8879 333.1643 L128.2217 331.6793 L125.8072 335.3264 L122.7726 335.4972 L122.0252 336.1112 L117.3516 341.7127 L112.5507 341.7127 L112.4506 341.7527 L112.2131 341.885 L111.883 341.915 L111.589 341.8789 L111.2408 341.7127 L109.2717 341.7127 L108.2979 342.419 L108.2172 342.516 L107.9658 342.6606 L106.0908 344.0209 L100.9283 343.4169 L81.6186 341.2079 L78.6366 341.9404 L77.4094 341.0787 L76.2042 340.9232 L75.1667 340.5585 L75.0009 340.45 L68.9523 339.7583 L67.9204 335.2264 L71.8601 330.2504 L71.8566 330.0865 L71.9889 329.7064 L72.6982 329.1516 L70.4801 323.7616 L72.4011 323.1137 L72.8199 322.7436 L73.673 322.3673 L74.7495 322.3219 L75.6596 322.0149 L75.9241 323.2953 L76.5428 323.5469 L79.2127 323.6762 L83.5001 323.7878 L84.529 323.2291 L85.1983 323.0437 L89.3895 322.9714 L90.4454 323.2368 L91.847 323.8055 L92.3404 323.8416 L93.0162 323.2114 L94.0225 322.1827 L94.824 321.8426 L96.6699 322.0111 L99.4666 322.9514 L100.3091 323.3822 L100.9243 324.1394 L101.058 324.244 L102.2612 324.2748 L102.3404 324.174 L102.7582 324.0978 L103.1243 324.2979 L103.7415 324.3133 L104.9717 323.9347 L106.0037 323.6192 L107.3336 324.4718 L108.0259 325.6252 L109.5722 327.6166 L107.7143 328.2991 L107.5184 328.6161 L106.5662 329.5841 L104.6857 330.4766 L104.1633 331.2945 L105.941 332.7649 L108.081 333.3243 L106.5416 332.0178 L107.0681 331.63 L109.2862 333.3128 L109.8032 333.0589 L109.3468 332.7095 L110.277 332.6541 L110.4383 332.7472 L113.7449 331.1253 L112.8082 325.9392 L115.0724 325.9392 L114.3561 321.9995 L122.2226 322.3019 L122.472 322.1834 L122.9434 322.1057 L123.5165 322.1657 L124.3996 322.3858 L125.9299 322.4443 L126.4364 322.2011 L126.9328 321.6356 L127.6471 321.2585 L127.7939 321.2693 L129.3838 320.1143 L130.4924 321.0085 L132.8417 322.8552 L134.0419 321.731 L134.5919 322.4597 L135.5111 323.2868 L136.9237 324.9035 L137.4211 325.5875 L136.9237 326.063 L138.0799 326.9933 L139.1563 327.1726 L140.3746 326.3039 L140.6656 326.2108 L141.0473 326.8587 L143.847 331.0529 L144.1115 331.6185 L148.9083 331.717 L148.8177 331.2507 L149.555 330.976 L150.7623 330.9998 L152.1959 331.3846 L153.7914 331.817 L154.951 331.8408 L153.6401 333.5782 L153.4602 333.8968 L153.2093 334.41 L158.6228 339.3736 L155.0011 343.0361 L155.9649 343.3061 L158.1354 343.914 L158.3367 343.7247 L158.6022 343.6724 L158.7014 344.0725 L159.2194 344.2179 L159.4308 344.1056 L159.5685 343.5578 L160.2498 343.7401 L160.5318 344.1794 L160.5338 344.5857 L164.5968 345.7237 L164.7927 345.5813 L164.8267 345.5782 L164.6439 344.8519 L164.5232 344.3556 L164.2922 344.0148 L164.0177 343.5808 L163.6801 343.2154 L163.4261 342.6968 L163.2693 341.9535 L163.2869 341.9243 L160.1456 340.0353 L160.9921 339.0428 L161.5732 339.0351 L164.0663 341.1864 L164.3018 340.874 L164.0528 340.0284 L164.184 339.8468 L164.1129 339.4044 L165.8261 338.9504 L167.0498 341.7127 L167.146 341.7712 L169.0906 342.062 L169.064 342.1051 L169.2073 342.1051 L167.5543 344.4903 L167.3619 344.3749 L166.5634 345.2482 L166.3004 345.8691 L165.8436 346.1745 L165.7094 346.4646 L165.7259 346.8032 L166.1226 347.4418 L166.1136 348.0396 L166.1902 348.352 L166.4788 348.4028 L166.8154 348.2958 L166.9251 348.1958 L166.2869 347.8372 L167.5893 345.8291 L168.2751 345.9199 L168.4704 345.5836 L168.9278 345.5082 L169.2263 345.7452 L169.6737 346.1045 L171.1294 346.2969 L171.3157 346.1061 L172.0936 346.2861 L172.7253 345.7567 L173.7011 344.5849 L174.0608 344.1148 L174.5707 344.3956 L175.3562 344.8111 L175.7985 345.0358 L176.1757 345.2235 L176.2358 345.6629 L176.3274 345.9953 L176.9005 346.1245 L177.708 346.5585 L177.5722 347.1494 L180.6234 347.5526 L180.9039 356.7008 L182.7172 357.7625 L183.9094 365.6025 L180.0273 369.7956 L173.896 370.565 L172.5685 373.6424 L175.3787 376.4121 L174.5171 380.1434 L170.134 386.3597 L154.5953 388.0676 L154.5738 388.1084 L153.3405 393.0536 L153.3631 393.3083 L153.2068 394.0991 L155.1113 395.7916 L157.3955 396.1609 L159.3641 393.4144 L162.0591 392.7528 L164.0748 392.8113 L165.27 392.5489 L167.2091 392.3958 L167.7281 392.5436 L168.2115 392.9321 L174.7225 393.1221 L175.0581 393.1721 L175.5425 393.1113 L177.3784 393.1959 L179.4587 393.6891 L180.6344 393.5144 L181.3392 393.4921 L181.8892 394.1891 L186.5999 394.8907 L186.9651 394.91 L187.6684 394.7215 L188.3166 394.7677 L188.833 395.2231 L190.0919 395.4108 L190.3007 395.27 L189.9937 394.4707 L189.9711 394.1399 L190.4069 393.906 L190.7751 393.6852 L190.4916 393.1482 L191.0551 392.9444 L191.796 392.6282 L192.3951 392.4351 L192.6696 392.4866 L192.8725 392.6636 L192.9827 393.0421 L193.0573 393.1421 L193.3869 392.8759 L194.1969 395.3839 L194.514 395.4539 L194.9769 395.7524 L195.0801 395.8416 L197.74 396.2763 L197.9353 393.8606 L201.9928 391.7219 L202.3184 393.5375 L208.4402 395.6824 L208.6772 395.687 L209.7121 395.5662 L210.8567 395.6647 L211.4398 395.7585 L211.9712 395.9678 L212.3469 396.2947 L214.1412 397.4672 L214.1127 397.6703 L214.1302 397.6764 L213.9449 401.5306 L214.9567 398.0842 L219.42 396.3686 L220.6888 395.8801 L220.8682 395.7862 L221.7583 395.4346 L219.8242 394.5484 L219.6078 394.5445 L218.5544 394.193 L217.817 393.8791 L217.3311 393.6383 L217.007 393.4175 L216.5988 393.2667 L216.5677 393.0559 L215.9876 392.7897 L215.7116 392.7974 L215.2994 392.7774 L214.7534 392.6259 L214.4884 392.1297 L214.5144 391.4419 L214.6812 390.2579 L215.086 389.7494 L215.5949 389.634 L216.172 389.7348 L216.693 389.7509 L217.1192 389.7955 L217.5095 389.7394 L217.8556 389.9725 L218.1546 390.1402 L237.0074 392.4912 L235.8578 394.333 L235.8673 394.3691 L235.9244 394.6207 L235.9951 394.7115 L235.9515 394.7707 L235.8057 394.84 L235.5257 394.8646 L235.3053 395.2177 L235.2597 395.4723 L234.9612 396.3186 L234.6346 396.2924 L233.7514 397.7072 L237.5965 398.1303 L237.7919 397.9257 L238.0929 397.6557 L238.8223 397.9388 L239.482 398.3373 L242.0768 398.6227 L242.6083 399.0042 L242.7841 398.9981 L242.9123 399.222 L244.1401 400.1028 L244.5834 399.8366 L244.9346 399.1943 L245.1224 399.205 L245.4841 399.999 L246.4594 400.5298 L246.6823 401.3152 L246.4819 401.7837 L246.8155 402.023 L246.1133 402.6454 L245.3528 404.4209 L245.0969 404.5832 L244.4462 404.5855 L244.0149 404.5032 L243.6447 404.8309 L247.627 408.1158 L254.6049 405.9387 L256.0426 405.4464 L255.6594 405.3002 L255.1615 405.2525 L255.1534 405.2425 L255.1194 405.2941 L254.5383 404.9163 L254.2718 404.0532 L254.1826 403.6739 L254.0023 403.3208 L253.8425 403.18 L253.5961 403.1231 L253.1387 402.4715 L252.9389 401.5299 L252.9258 401.2114 L252.5847 400.6252 L252.2541 399.979 L252.2942 399.9366 L252.2756 399.8997 L253.015 399.1773 L253.1447 398.9219 L253.4603 398.6581 L253.7158 398.4711 L253.7754 398.4111 L254.2893 397.6564 L254.7347 397.1494 L255.2947 396.5571 L256.1773 396.4294 L256.9322 396.4317 L257.5954 396.5625 L257.5559 396.7225 L259.9598 396.7225 L260.1401 396.8663 L260.6696 396.9925 L261.0759 397.0302 L261.3694 397.1579 L261.7371 397.3787 L262.2505 397.5972 L262.7725 397.8464 L262.0276 398.2949 L264.0273 399.8074 L266.4167 397.9995 L268.0648 397.8072 L266.6872 399.4304 L267.2367 402.0869 L267.3004 402.1038 L267.2788 402.2892 L267.6039 403.8616 L265.8602 407.7612 L265.8797 407.9096 L265.5932 408.3574 L265.3808 408.8328 L265.1369 409.8336 L264.948 411.1283 L265.1103 412.2207 L265.2426 413.2969 L265.2856 415.3963 L265.0327 417.5103 L264.8108 417.738 L262.0787 418.2587 L260.6115 418.3903 L259.535 418.4511 L258.3769 418.4095 L257.333 418.4311 L256.9097 418.288 L256.5019 418.0672 L256.4689 418.0003 L254.378 418.1503 L254.3269 418.2141 L252.8211 418.9603 L252.191 419.1142 L251.9125 418.9449 L251.5999 418.6188 L251.403 418.3626 L247.7838 418.6211 L236.7269 419.4242 L235.2617 415.4432 L234.3896 413.49 L232.8743 409.1674 L232.4565 408.2474 L230.3702 406.3926 L224.5344 413.2931 L224.825 417.978 L225.6966 419.7319 L223.8181 420.1858 L222.4907 419.3596 L222.3123 419.3119 L221.7488 418.9734 L221.7528 418.9003 L220.7524 418.278 L211.4999 418.6657 L209.2813 418.7549 L208.9557 417.0625 L201.0661 417.5087 L198.5815 418.3318 L185.7629 420.1242 L183.8994 423.0705 L187.1655 423.2628 L189.4847 423.382 L189.6751 423.3667 L189.7823 423.3967 L200.1609 423.9359 L200.3142 423.6851 L203.2687 423.8082 L204.8155 424.0721 L205.639 424.2205 L205.7483 424.2036 L205.9201 424.1121 L206.1961 424.0244 L206.5758 424.2405 L206.5893 424.2559 L206.8267 424.2705 L214.7113 428.316 L215.0028 428.3376 L215.114 428.5222 L217.7118 429.8553 L213.1684 432.1092 L211.7804 431.4322 L211.7418 431.443 L210.5466 431.3215 L210.2245 430.6738 L208.8304 429.9938 L206.3258 432.1092 L205.7498 431.1645 L205.6906 431.1899 L205.1281 431.1284 L205.0029 430.9838 L204.7704 430.3776 L204.5545 429.7037 L204.5681 429.6137 L204.5641 429.3937 L204.812 427.5937 L204.79 427.4937 L203.3654 427.4937 L204.1969 430.1168 L202.9135 431.1153 L202.4201 431.5507 L201.0391 432.5653 L199.9961 433.3884 L200.1434 433.6307 L200.208 433.7515 L201.0811 435.0015 L202.1932 436.5861 L202.1932 437.5323 L192.4652 439.9553 L193.0714 441.7861 L193.5372 443.9091 L190.1409 444.0399 L190.9374 445.7475 L196.9736 446.9552 L198.1758 444.6091 L198.3711 444.0399 L202.4887 448.5321 L206.2156 453.4627 L208.4097 453.1934 L208.0971 447.5544 L207.7209 444.9506 L208.5234 444.8053 L212.8879 443.5399 L213.8662 445.1153 L214.8891 446.2021 L215.5604 447.0521 L216.452 448.7359 L218.6175 452.7627 L221.5439 457.4702 L224.9111 459.0416 L224.9903 458.9678 L225.9641 459.1724 L226.8026 459.6454 L227.7223 460.3269 L227.7939 460.3869 L228.8123 460.8623 L230.5054 462.216 L229.8177 463.8305 L230.5686 463.9736 L231.2518 464.0928 L231.8119 464.1743 L232.721 464.662 L233.793 465.3435 L234.0695 465.7027 L235.129 466.308 L240.5139 474.6996 L241.3495 476.7394 L240.1057 479.9829 L239.9799 482.8025 L242.1054 482.771 L244.2057 480.5528 L248.2231 476.6917 L249.3302 476.2148 L248.2682 475.3457 L254.2342 468.2617 L259.5521 465.9042 L259.505 465.2804 L259.4719 465.0489 L257.6856 462.0314 L246.0241 454.7934 L234.2524 454.0626 L233.5115 453.3804 L233.3347 453.3157 L232.3273 452.7327 L231.3761 451.9289 L231.2528 451.635 L231.328 451.4681 L231.5899 451.6112 L227.8656 448.2167 L228.2413 439.1476 L228.4126 438.9269 L228.4181 438.82 L228.7131 438.1684 L229.0317 437.473 L229.5126 437.27 L229.6318 437.3561 L230.4503 436.3015 L234.5745 441.0492 L235.2041 441.5299 L235.397 441.9961 L237.5735 444.5014 L235.6555 448.3452 L235.8884 448.7305 L246.2946 450.9858 L248.5387 450.9243 L249.4354 452.0012 L249.1198 450.3628 L248.679 448.6782 L247.2223 444.3668 L246.7184 444.3776 L245.3889 444.8445 L244.0444 444.9091 L242.9339 444.9606 L242.1139 444.6937 L241.4141 443.6037 L241.8844 442.1238 L242.742 441.9953 L242.3573 439.4938 L245.0072 438.9784 L243.1302 430.6491 L242.8292 430.2961 L242.5166 429.7407 L242.2817 428.9699 L242.3608 428.1945 L242.479 427.7591 L242.4575 427.6629 L242.5126 427.6352 L242.5201 427.6083 L243.0887 427.3068 L243.2845 427.2522 L247.6321 425.0936 L249.1549 427.8783 L251.0183 427.8783 L256.3431 435.3092 L256.3066 435.7361 L256.525 435.8577 L256.7444 436.1438 L256.8175 436.5577 L256.6337 437.0007 L256.4353 437.5677 L256.2505 438.3684 L256.1493 438.9407 L255.9529 439.8407 L255.5266 444.6476 L257.923 444.3091 L258.6048 444.1091 L258.9334 444.0653 L259.3622 444.0614 L259.6402 444.063 L262.5396 443.6476 L262.9849 444.9245 L263.3506 445.5183 L263.3801 445.8522 L263.3466 445.9883 L263.5314 446.5321 L264.0974 444.8245 L264.0574 438.263 L262.239 438.263 L264.3229 427.8783 L264.5583 437.9246 L266.9377 444.363 L271.0252 446.9167 L269.0997 449.189 L269.0967 449.3336 L268.9734 449.6036 L268.6819 450.0366 L268.2566 450.1782 L267.8323 450.6951 L267.7727 450.9682 L267.8684 451.0481 L270.5944 450.4705 L273.0089 451.1166 L271.9469 456.6164 L276.7057 453.878 L279.0701 452.3935 L278.464 448.4167 L276.7358 444.4168 L272.3176 445.3168 L270.0985 442.8784 L278.3487 438.6477 L286.5439 443.263 L288.6027 432.1092 L296.8679 432.1092 L296.0464 434.9861 L297.9299 434.8553 L300.0538 432.8784 L300.9254 441.0399 L302.9642 434.5784 L304.2766 429.2322 L314.1498 423.0166 L317.4209 418.7472 L313.8843 417.3472 L314.4654 415.124 L309.8419 418.6934 L307.6278 416.4779 L314.3853 413.2623 L314.9713 410.1544 L315.4923 407.7312 L313.6489 409.4851 L313.6088 407.0234 L320.4164 404.4155 L324.8596 410.5391 L327.2991 408.1312 L324.0832 407.2157 L322.0143 403.8385 L318.9086 395.3762 L320.3112 393.2606 L320.6689 391.6488 L320.6183 391.5227 L320.72 390.5118 L308.3286 387.8991 L308.1658 388.0261 L307.8752 387.5699 L306.0589 385.6104 L305.5915 385.4034 L305.1938 384.9811 L305.3636 384.8603 L304.507 383.9363 L298.8115 384.8056 L293.1811 390.4987 L272.8837 392.4912 L271.1755 390.9695 L270.897 390.7172 L270.7096 390.5449 L268.8667 389.1016 L268.7631 389.3662 L267.935 389.7324 L267.7983 389.7955 L267.3484 390.5679 L258.729 388.69 L258.6414 388.7331 L257.9766 388.8139 L257.4211 388.4054 L241.6505 384.9949 L240.4829 384.9564 L238.3419 385.0034 L236.8101 385.2142 L235.4982 385.3519 L234.5484 385.5642 L233.501 386.3366 L230.4538 386.3166 L227.7819 386.5797 L227.8896 386.2997 L227.1292 386.2943 L227.0416 386.3551 L221.9041 386.9136 L221.6356 386.8544 L221.576 386.6513 L221.5895 386.2574 L213.7696 386.2058 L213.1905 385.0795 L212.9886 385.1103 L212.657 384.9664 L212.2883 384.0971 L211.4999 383.3339 L210.9499 382.7584 L210.5 381.8337 L210.0031 380.5373 L209.953 379.8195 L210.0031 378.884 L209.923 378.7278 L209.7672 378.5932 L209.5583 378.3478 L209.4045 378.2478 L202.8193 380.0819 L202.7728 379.9388 L202.5093 380.1488 L201.9808 380.3558 L201.6011 377.5838 L201.5355 376.1282 L200.6854 373.5039 L201.7178 373.0115 L201.9923 372.5061 L202.2738 372.1683 L202.5639 372.0029 L203.5287 372.1037 L203.72 372.1191 L212.1866 369.9956 L210.9794 368.0568 L202.8193 367.8106 L216.2191 364.3331 L216.5246 367.8722 L219.3148 368.2107 L227.9758 370.0264 L228.8173 367.1028 L236.5165 372.7961 L235.3644 367.8722 L233.2756 362.5558 L220.7324 354.131 L220.6307 353.5962 L220.5411 353.467 L220.5335 353.0838 L219.6905 348.6451 L219.9905 348.3735 L219.8337 347.848 L219.8072 347.4902 L220.0652 347.4002 L221.2604 347.1509 L221.3686 347.1271 L221.604 346.9139 L222.7136 345.4005 L222.4987 345.3582 L220.7024 345.0196 L219.7596 345.1666 L219.2296 345.1243 L218.8605 344.648 L218.5033 344.598 L218.1647 343.5524 L217.4634 342.2613 L217.6908 342.0874 L213.7094 329.7864 L218.3079 333.5952 L222.3554 332.8411 L228.9275 336.5421 L230.1348 327.0549 L232.4791 324.6926 L234.7332 325.2159 L237.7638 333.9414 L244.0204 335.2802 L244.5303 338.3803 L244.7648 338.4211 L246.4714 345.8999 L245.9294 346.8862 L245.979 347.2756 L245.9484 347.2733 L245.982 347.9442 L245.4195 348.0781 L244.8349 348.2073 L244.2193 348.3666 L243.294 348.4774 L242.1665 348.4189 L241.2067 348.2204 L240.1027 347.7988 L239.0091 347.5703 L239.0051 347.5741 L238.4296 347.5887 L238.0203 347.4448 L237.588 347.274 L235.7952 353.1615 L237.4633 353.8001 L244.7683 355.0619 L245.1324 354.9042 L245.6719 354.8627 L246.1538 357.7017 L246.221 358.0464 L247.8324 364.41 L247.595 373.2193 L247.6095 373.2277 L247.5885 373.4739 L247.5269 375.7581 L251.7687 375.4196 L251.7522 375.335 L253.0731 375.0011 L254.3364 374.7972 L255.6143 374.6826 L257.0539 374.748 L257.6576 374.7634 L258.1465 374.9119 L264.5277 374.4025 L268.7946 373.5209 L269.4233 373.347 L269.4734 374.3764 L269.8997 376.1236 L270.0099 376.5152 L269.9748 376.5275 L270.1035 376.966 L270.7773 376.8129 L287.3504 372.8961 L290.7116 371.8344 L288.9082 370.0187 L291.505 365.8418 L291.6864 364.917 L293.7933 361.511 L294.1449 361.5964 L295.0646 360.1168 L299.2323 362.1049 L300.4771 362.0588 L301.0081 362.5689 L305.6041 361.294 L305.6356 361.5502 L306.0113 361.4379 L306.375 361.6341 L306.5062 362.1711 L305.9908 363.3082 L305.8615 363.3844 L305.9547 364.1407 L307.5126 361.848 L310.1675 359.9245 L315.4823 355.7544 L297.3138 355.9467 L298.8716 351.7151 L295.8711 350.8072 L297.5893 346.6062 L299.2273 351.7151 L300.2742 350.3301 L300.3579 348.2212 L300.2346 347.6049 L300.1615 345.9306 L299.9837 344.4049 L299.5434 342.8045 L300.0428 341.725 L300.2692 341.0033 L300.5532 340.0676 L300.5467 339.686 L300.706 339.4729 L300.725 338.9966 L301.0176 339.0566 L301.2645 338.7258 L302.1667 338.1241 L302.891 338.0871 L303.382 338.1541 L303.8148 338.428 L304.1449 338.7873 L304.225 339.0651 L304.5376 339.2313 L304.8567 339.2374 L305.5249 339.1982 L306.2382 339.4259 L306.5097 339.4436 L306.7161 339.4252 L307.7104 339.3913 L308.3586 339.7499 L308.572 340.3562 L308.6792 340.6239 L313.3914 341.5888 L313.6339 341.4303 L314.0356 341.3341 L315.072 341.3226 L315.889 341.0063 L317.3112 340.7193 L318.5284 340.3877 L320.9594 340.934 L321.4989 341.2326 L322.4146 340.617 L322.8479 340.2161 L324.9042 339.4152 L327.3447 338.0725 L328.4452 337.0676 L329.1941 336.7506 L329.8643 336.6121 L331.8675 335.3957 L332.2933 332.5333 L332.4185 326.9164 L326.6729 326.1007 L324.9347 328.9477 L320.5767 326.2239 L322.2899 325.5237 L320.9724 323.2384 L322.4501 323.8308 L323.2917 323.8693 L331.9326 326.0777 L331.4568 322.8613 L329.413 316.8979 L331.2063 315.4129 L332.0228 315.8668 L335.1987 317.9213 L337.002 322.4381 L342.4521 327.9705 L342.7962 330.008 L342.8969 330.2858 L343.4244 331.7031 L343.6473 332.9888 L343.756 333.8298 L343.9448 333.7644 L351.9696 330.2943 L353.8481 332.7257 L355.7165 332.0255 L356.3026 328.186 L359.3628 328.4345 L359.2431 328.1006 L359.2436 327.7181 L359.3758 327.5873 L359.1679 324.5003 L360.2033 324.2086 L360.1567 324.1217 L360.1006 323.807 L360.0781 323.3161 L359.9113 322.532 L359.7315 322.145 L359.5456 320.9946 L359.4449 320.406 L359.2947 319.5619 L359.3357 318.7808 L359.4124 318.1522 L359.6172 317.7105 L360.1758 316.9441 L360.4808 316.734 L360.2199 314.8896 L367.8489 312.7735 L377.5969 313.9385 L377.631 313.9024 L377.6245 313.6546 L375.443 309.0184 L379.7709 308.5183 L379.7709 311.1653 L390.7913 310.5497 L393.2208 312.2657 L392.6798 315.7791 L392.7098 315.8399 L393.0224 316.4717 L393.2854 316.7818 L393.3901 316.9934 L393.4492 317.2188 L393.4767 317.452 L393.4066 317.6736 L393.2067 317.7682 L392.9753 317.7336 L392.809 317.422 L392.5901 317.295 L392.4684 317.1542 L392.3892 317.6674 L391.6449 317.3112 L391.5958 317.3288 L391.3889 317.5151 L390.1486 317.1803 L388.9379 316.8095 L388.1374 316.297 L386.3852 315.2867 L384.8643 314.4641 L383.7839 313.9632 L383.3716 313.4368 L383.3641 313.3507 L381.5943 312.5042 L379.8962 312.535 L382.7765 314.4741 L385.5316 318.2445 L383.027 320.6683 L379.0296 320.1682 L378.9509 318.6239 L378.743 318.5408 L378.0197 318.1953 L377.0103 317.4781 L376.5821 317.1165 L373.02 317.1088 L373.011 317.148 L372.8376 317.3566 L372.4299 317.6959 L371.6069 318.2899 L370.6671 318.7 L369.6012 319.2541 L367.8715 320.2151 L366.0181 321.4155 L364.7788 322.3535 L364.0725 322.8767 L364.0655 323.6031 L364.2829 323.8401 L365.0593 325.4036 L365.0708 325.4005 L365.7451 326.8994 L366.5055 328.7631 L366.6713 329.4571 L366.9368 329.8711 L366.9137 329.1432 L367.63 328.9123 L367.7838 328.3937 L369.4514 328.2821 L369.8977 328.119 L370.4853 328.0251 L370.7393 328.196 L375.4084 327.8828 L375.5101 327.8243 L375.7099 327.662 L376.015 327.5858 L376.2665 327.6881 L376.4969 327.7097 L376.5149 327.7051 L376.5149 324.4002 L385.0607 325.5467 L386.9742 325.5621 L387.8458 328.463 L388.1299 328.2945 L388.0537 327.7543 L388.0217 327.3942 L388.2361 327.0695 L388.8923 326.9687 L389.3652 327.5612 L390.7627 326.7325 L391.0222 326.2677 L391.3623 326.1561 L391.4786 326.3077 L391.5677 326.2546 L393.9125 327.4804 L394.0593 327.3542 L394.4145 327.7428 L395.3798 328.2475 L395.5571 328.8654 L395.9117 329.1824 L396.05 329.8149 L395.9934 330.3874 L396.6521 332.6026 L401.2356 333.1027 L402.8135 332.6641 L399.307 329.3248 L399.7378 328.209 L400.1636 327.101 L400.5488 326.8687 L400.4591 326.7271 L400.4155 326.7086 L400.0489 326.7086 L399.9276 326.7463 L399.578 326.9164 L399.1167 326.9787 L398.7745 326.9471 L398.3853 326.7732 L398.1619 326.21 L398.0557 325.559 L397.959 324.9427 L397.8729 323.5823 L397.8343 322.8352 L397.9871 322.2157 L398.3467 322.1165 L399.027 322.6936 L399.7047 323.2622 L411.5797 326.0161 L411.0246 326.2485 L411.0852 326.4231 L411.1098 326.6986 L410.8889 327.1003 L410.6564 327.3642 L410.2898 327.682 L409.6711 327.8135 L409.0941 327.7889 L408.4584 327.6512 L408.0466 327.5419 L407.986 327.5227 L406.7157 328.0552 L414.8106 328.4245 L417.4204 328.1398 L415.2965 335.1956 L419.5944 330.1173 L422.6516 325.2482 L422.621 325.212 L422.4853 325.0089 L422.9982 324.5457 L423.4626 324.2333 L424.1859 323.8008 L424.9694 323.3415 L425.4733 323.0383 L428.9718 320.5298 L432.368 320.8376 L450.3512 308.9569 L450.5566 306.7869 L432.7437 306.8716 L431.6547 305.9351 L431.2274 305.9028 L430.5061 305.585 L430.2476 305.1702 L430.1099 304.8632 L429.6741 304.5615 L429.3474 304.0006 L428.8836 303.8474 L428.3276 303.8059 L427.5186 303.6312 L427.1203 303.465 L426.5628 303.1449 L425.7844 302.804 L425.2083 301.9321 L425.0871 301.6874 L424.8662 301.235 L424.4018 300.8779 L423.3579 300.8987 L422.5294 300.5009 L421.766 299.6259 L421.6067 299.3635 L421.4955 299.1234 L421.3347 298.8741 L420.9169 298.5532 L419.8675 298.1031 L418.3697 297.0765 L417.5837 296.3493 L417.3308 295.9369 L417.4099 295.2043 L417.7756 294.4463 L417.976 294.1747 L417.8412 294.0593 L418.2074 293.9931 L418.6056 293.8099 L418.9392 293.5098 L419.3445 292.9242 L419.5408 292.8026 L419.9716 292.7895 L420.6714 292.7226 L421.1178 292.6518 L422.2984 292.5464 L423.8268 292.7003 L424.5105 292.8526 L426.6475 292.4663 L430.9905 290.8888 L431.6632 291.2782 L432.1121 291.162 L433.6339 291.2436 L434.817 291.5737 L434.9899 291.6522 L435.8995 290.127 L441.582 287.8761 L441.8545 287.5121 L442.0078 287.2082 L442.396 286.9688 L442.8173 286.7226 L443.171 286.6495 L443.6328 286.6987 L443.9995 286.9188 L446.0032 286.1254 L450.4414 293.7438 L450.1058 298.9149 L451.6737 296.868 L452.1896 296.3678 L456.6178 298.9611 L458.1857 292.9896 L463.8662 287.2259 L472.7526 282.1623 L472.0663 278.4684 L466.0552 278.0221 L454.2083 260.8915 L453.8928 256.3124 L461.587 237.0489 L464.1767 225.6504 L460.1994 212.0271 L455.8113 206.2698 L447.6212 204.9998 L447.9919 200.8819 L463.9513 204.7073 L482.9764 227.2436 L484.5243 241.6051 L491.8528 239.7503 L499.2665 238.5958 L505.1273 241.0048 L508.6288 242.544 L512.0 241.1741 L505.5481 235.7943 L506.9507 233.978 L511.0132 235.1325 L509.7308 231.9 L498.8658 227.8208 L498.8107 223.8571 L495.2341 221.5788 L489.5085 205.5771 L486.4829 202.6137 L486.4679 193.5696 L487.7202 194.3701 L486.7183 192.0378 L477.9972 178.5596 L480.2063 174.6416 L482.4505 174.911 L482.7109 172.8942 L477.346 174.1489 L472.5121 174.7801 L472.2266 172.594 L469.4515 172.7171 L466.6814 172.8326 L456.1619 164.6191 L456.4775 156.6594 L461.1862 152.0868 L469.4364 148.3224 L468.1891 139.4309 L466.3958 137.9528 L463.1849 127.1595 L467.7533 123.903 L470.5034 128.9225 L475.4175 125.9047 L476.2791 133.8496 L478.7035 134.1036 L476.7099 124.9577 L477.331 123.826 L477.5314 115.4806 L477.7017 113.8099 L474.4457 115.1264 L472.8177 113.5251 L475.1921 113.0323 L472.7275 97.7882 L470.6888 95.0396 L471.8158 95.0088 L470.9392 94.2235 L468.665 80.3414 L461.9426 64.6032 L460.4148 62.6936 L460.4148 67.2134 L458.2708 68.4762 L456.6729 68.4762 L457.1387 70.532 L453.0312 73.0653 L429.8634 70.4319 L432.8689 59.1362 L432.6385 56.5336 L432.2864 58.1645 L430.8202 64.9497 L429.3224 67.8217 L425.3551 81.9737 L418.1317 94.3082 L412.6717 89.0341 L416.1331 74.3126 L420.3559 64.3414 L420.2992 62.3363 L420.2006 58.8436 L417.0633 55.4487 L411.7249 49.6728 L408.7795 51.9598 L399.0966 43.2431 L399.0615 40.4864 L390.3455 39.6162 L384.7752 36.4283 L385.782 33.71 L365.2892 29.1975 L365.0838 29.1975 L363.005 30.3526 L357.3205 30.7884 L355.4761 30.9301 L357.5399 33.2865 L353.3572 37.4139 L356.7434 41.78 L360.1648 40.5172 L359.8993 40.8252 L357.9807 42.0111 L357.7854 45.2221 L353.272 48.4485 L353.1178 48.3468 L348.8389 45.5224 L344.7513 46.8699 L341.1998 50.1502 L342.2166 53.9695 L341.6806 57.9658 L340.4884 58.7974 L340.9443 50.489 L337.5029 52.2755 L329.7687 64.3029 L329.4631 67.7678 L328.1507 63.4328 L329.7085 58.1814 L328.1807 55.9099 L317.7214 55.9561 L307.5276 63.1479 L302.3931 62.2547 L293.7572 69.2077 L288.8581 72.5725 L294.739 72.3723 L289.6546 78.0546 L286.614 79.8255 L287.6058 82.2355 L292.029 80.788 L292.555 82.9131 L288.0466 83.8678 L290.8568 89.2035 L282.7068 92.7991 L281.3393 95.363 L287.8062 102.1305 L285.9177 105.9185 L282.7669 105.5335 L278.3337 101.3837 L273.3996 103.655 L272.1072 103.8859 L271.3208 102.6849 L272.0722 100.2519 L270.9 101.1681 L270.4742 105.1178 L270.5644 114.78 L280.3374 133.6186 L279.3005 134.2037 L278.5692 133.1413 L260.1752 129.8232 L257.7893 131.1274 L257.4266 131.5562 L256.5746 132.2229 L256.0907 132.6802 L255.7631 132.7856 L255.2055 132.8357 L254.8519 132.7341 L254.4446 132.9565 L253.2274 123.1701 L253.1482 122.9884 L252.9709 122.3232 L253.003 121.9037 L253.004 121.3755 L252.8402 120.6257 L252.3132 117.6424 L252.3022 117.4692 L252.4575 117.2682 L252.48 117.2567 L252.4009 116.6354 L265.0742 116.5738 L264.8764 117.2051 L264.8849 117.5146 L264.6159 118.3799 L264.377 118.8881 L264.3399 118.9204 L264.3078 119.022 L270.0484 116.8433 L270.0935 114.0871 L269.7278 106.9656 L263.857 96.6256 L263.0405 92.853 L256.794 94.516 L254.8404 95.6324 L258.7927 97.1723 L258.0363 101.1912 L253.042 101.6686 L251.404 106.3881 L251.0534 86.5703 L260.5459 88.7569 L258.7826 84.3606 L260.8214 81.9275 L256.5235 79.0479 L257.0745 75.0826 L262.6989 74.2672 L263.1808 74.1971 L265.5601 75.3213 L265.5601 73.227 L256.9292 73.481 L253.553 73.481 L246.52 73.8583 L236.782 70.0393 L235.129 70.0624 L236.1308 70.7245 L233.1253 70.7014 L233.0 70.2087 L218.1476 69.816 L218.2228 71.5484 L219.7055 85.1536 L223.7129 94.6238 L224.1888 102.9004 L217.1558 101.8996 L216.2191 105.01 L209.5367 107.3505 L183.9545 110.815 L181.9608 109.2522 L183.153 101.9073 L181.9057 100.3674 L186.6645 100.5753 L187.1805 84.6531 L185.2269 86.2546 L185.1317 81.7658 L186.6796 79.8255 L185.1517 76.6225 L182.7373 74.2433 L181.6553 74.2433 L180.6434 82.7129 L181.8607 82.7129 L180.7035 84.8302 L178.0937 91.5749 L180.1525 91.8136 L179.9922 92.3987 L176.7913 98.4965 L177.6479 98.9277 L175.2685 107.3505 L175.6642 110.2299 L175.554 112.8322 L180.7536 117.2513 L180.8117 117.2498 L180.8077 117.1951 L180.7376 117.0496 L180.8708 116.814 L181.0892 116.697 L181.6377 116.6339 L182.025 116.4668 L182.4062 116.3906 L183.0088 116.3759 L183.2132 116.4252 L183.393 116.9449 L183.5272 117.1451 L183.5383 117.1635 L184.0702 117.1466 L184.0918 117.025 L184.0948 116.67 L183.9856 116.1511 L184.3628 115.951 L184.9544 116.0572 L185.3115 116.4075 L185.7328 117.0942 L186.1185 117.0819 L186.6745 119.4685 L187.7616 117.5362 L188.6131 117.2898 L189.5148 118.1367 L195.1151 120.3616 L195.1953 125.9278 L186.9 121.6242 L188.6782 124.6498 L190.0307 123.8568 L190.6669 125.0424 L192.4252 126.2203 L192.0044 128.5607 L189.5028 129.7547 L188.8581 130.406 L188.1618 130.5092 L188.0015 130.4707 L184.0347 132.3638 L172.3631 133.9573 L171.5276 135.0297 L171.5446 135.0428 L171.7275 135.0752 L171.9549 134.9851 L172.4989 134.7903 L172.9632 134.7141 L173.2503 134.6671 L173.651 135.1175 L174.0102 135.1829 L174.4199 134.8049 L174.73 134.9374 L174.7235 135.4354 L175.8681 135.6495 L175.9658 135.4909 L176.614 134.7965 L176.9716 134.8496 L177.2897 135.0559 L177.4335 135.5455 L177.4104 136.2561 L177.5126 136.8827 L177.984 138.3839 L178.2315 138.5063 L178.8736 138.8805 L179.5739 138.7273 L179.9967 138.1299 L180.2878 138.0367 L180.5462 138.3147 L180.4686 139.026 L181.0196 138.9552 L181.0131 138.8089 L181.0346 138.3046 L181.3893 138.1722 L184.1374 138.3601 L186.2553 138.203 L186.3214 138.2746 L186.7898 138.2146 L188.0185 139.9906 L188.3266 139.9036 L188.1172 138.8381 L188.6347 138.8443 L188.6236 138.6357 L190.0633 138.8605 L192.8109 138.892 L196.5578 147.3601 L195.6211 148.7535 L197.2491 149.5618 L200.7756 149.5864 L200.201 156.8973 L200.2571 156.6387 L200.723 156.5755 L200.9719 156.8134 L202.5198 156.6456 L202.6245 156.0167 L202.8739 155.6233 L204.4343 155.3608 L206.2657 155.661 L206.7381 155.9174 L206.683 156.1929 L208.9056 155.9512 L205.6896 164.6037 L201.3166 166.4358 L202.7973 167.0655 L203.1645 167.017 L203.4455 166.8846 L204.2219 167.0616 L205.7407 167.5905 L206.5913 168.6774 L207.5831 169.0992 L208.8154 170.8235 L197.5847 172.0859 L193.6624 170.0691 L190.6268 171.6318 L186.915 175.0957 L184.4104 172.848 L185.9632 172.3246 L184.2851 171.5856 L183.1581 171.6703 L184.766 168.8452 L181.7805 170.5079 L180.7536 176.5198 L181.0993 178.5211 L180.2777 178.7983 L176.9867 174.5184 L176.4006 170.9313 L176.7412 166.7129 L173.0694 166.6282 L171.1058 165.7276 L167.7546 161.7401 L167.0133 162.7639 L171.4865 166.5589 L172.5875 166.6659 L172.8796 166.6282 L175.6226 166.8338 L176.0174 166.9854 L176.0344 167.0023 L176.1451 167.0131 L176.1065 167.0747 L176.2533 167.2217 L176.0364 167.7413 L175.7018 168.1816 L175.3777 168.7459 L175.52 169.0946 L174.994 169.8782 L174.4375 170.0052 L174.2566 170.0491 L173.7457 170.8697 L172.3882 171.8781 L175.8946 173.5023 L175.8946 174.349 L180.3879 180.0837 L180.6083 180.4686 L181.9608 183.1781 L181.6352 179.1369 L184.5556 177.4127 L188.8586 177.7899 L191.1628 183.0473 L191.4554 182.9811 L191.5801 182.6963 L191.6733 182.6216 L193.4671 182.3684 L198.6316 178.8829 L205.905 175.0418 L213.7595 167.3287 L219.5202 166.7437 L230.3682 166.5459 L230.4538 166.4666 L229.9594 165.0425 L234.8084 165.0887 L234.4778 162.4021 L241.1451 162.7023 L246.0241 164.6653 L246.4469 164.556 L246.3497 164.4459 L247.1832 163.9178 L249.3227 163.1973 L249.9473 163.058 L250.7107 162.9895 L250.9687 163.0841 L251.1866 163.1203 L251.4546 163.0957 L252.5556 162.9702 L253.013 162.8517 L253.0781 162.7277 L253.2088 162.7162 L253.3586 162.7655 L255.8928 162.1096 L256.9613 161.62 L258.7576 160.5515 L259.1734 160.2629 L253.538 160.8625 L253.538 158.3222 L253.6467 158.3107 L253.5249 157.9188 L253.5926 157.6987 L253.7814 157.564 L254.9315 157.7941 L255.6549 157.8265 L256.4909 157.8765 L257.4707 157.8973 L260.596 157.5601 L265.4064 157.1937 L266.1582 156.9458 L266.2489 157.1298 L266.4618 157.1136 L266.305 157.2437 L266.592 157.8241 L267.1957 158.363 L267.6961 158.5277 L267.9761 159.1405 L269.4679 161.4006 L262.6162 164.7446 L256.4824 167.485 L257.6325 172.701 L253.4182 180.0553 L248.5187 195.1013 L248.5262 200.8796 L248.6089 201.0143 L248.7616 201.9633 L248.8288 202.713 L248.7286 203.512 L248.5307 203.9992 L248.5337 206.3391 L250.1567 203.776 L250.0916 197.4798 L256.9192 193.685 L262.0627 191.5352 L270.9366 188.0267 L271.4205 187.6727 L272.4103 187.4387 L274.4165 186.642 L280.4627 190.075 L277.5237 191.8385 L277.424 192.3434 L277.4175 192.3603 L278.7695 193.3617 L282.9072 196.9179 L293.116 192.7229 L301.3312 191.2604 L305.7944 193.7851 L308.3331 196.0142 L308.3521 195.9711 L307.182 191.8454 L307.5321 191.683 L307.2626 190.8001 L307.0262 189.5955 L307.1374 189.2221 L307.8958 188.828 L308.6071 188.8588 L310.1414 188.6587 L311.018 188.3854 L311.7965 188.0791 L312.6911 187.999 L313.2051 188.0976 L313.5232 188.4324 L313.4606 189.3453 L313.6063 189.7671 L313.6579 190.1589 L313.8868 190.8263 L313.9825 191.0179 L314.3647 191.4975 L314.7579 191.6291 L315.4552 191.0595 L316.2602 190.5284 L316.8653 189.9111 L317.499 189.3468 L317.8992 189.3838 L318.4262 189.627 L319.0238 190.2621 L319.4135 190.59 L319.8779 190.844 L320.3773 190.7708 L322.3595 189.6901 L323.5562 189.1244 L324.3672 189.0944 L324.7444 189.2783 L325.1566 189.8579 L325.2012 190.2343 L326.5477 190.0211 L334.0856 186.4157 L334.6857 186.0216 L336.3022 185.1125 L337.5009 184.255 L338.0529 183.837 L338.7643 183.2659 L339.2567 182.8818 L339.3063 183.0511 L339.3528 183.262 L339.3423 183.4576 L339.3103 183.6408 L339.3689 183.8301 L339.3909 183.8778 L340.1779 183.5014 L345.1721 188.7972 L335.8389 192.0478 L334.2078 192.7698 L332.8293 193.1855 L332.2332 193.3433 L331.7899 193.5011 L331.4553 193.712 L331.2329 193.9337 L331.047 194.3393 L330.8647 194.6133 L330.3948 199.15 L344.1953 200.0352 L349.6754 198.9576 L350.2364 204.1532 L355.977 205.1153 L341.7593 207.7477 L341.6776 207.8785 L340.766 208.1779 L339.2497 208.5681 L337.8446 208.6559 L336.8402 208.659 L336.7315 208.679 L336.3909 213.1971 L327.9408 212.8091 L327.9753 212.8861 L327.2916 212.9939 L326.5116 213.0631 L325.628 213.0031 L323.4355 212.7822 L321.7218 212.7506 L321.0095 212.5367 L321.01 212.4913 L320.2862 212.4582 L318.8535 214.1091 L318.839 214.6464 L318.3882 215.5762 L317.7976 215.8386 L319.1991 218.8157 L290.9821 223.3645 L322.0143 221.4403 L323.6293 221.5881 L323.9229 221.4726 L325.0394 220.9416 L325.7347 221.0462 L326.3829 221.398 L327.0121 221.7728 L327.2009 221.9144 L336.4109 222.7564 L337.6432 226.8741 L323.477 227.7669 L321.6687 229.1677 L322.896 230.2067 L322.9456 230.5 L322.9741 230.4946 L323.3453 230.2075 L323.6318 229.7826 L324.0907 229.6687 L324.3507 229.7542 L324.7439 230.1182 L324.9483 230.3907 L323.4871 230.9925 L323.0563 231.1572 L323.0778 231.285 L324.3031 230.7978 L325.6941 230.159 L326.2902 230.3145 L326.5377 231.4589 L326.7917 232.2078 L326.99 232.9613 L326.8888 234.3874 L326.177 234.2574 L326.1119 233.5262 L325.9797 232.7389 L325.4918 232.7065 L325.3996 232.9929 L325.0575 233.1968 L324.8912 233.7402 L324.6487 233.9772 L324.3652 234.058 L324.1247 234.1627 L323.8062 234.0873 L323.5492 233.9995 L323.2712 234.0727 L323.0422 234.302 L322.9776 234.509 L323.4475 234.8839 L323.464 235.2995 L324.1984 235.271 L345.648 235.6481 L346.8918 235.5396 L346.8913 235.4796 L346.9233 234.7084 L346.8832 234.2997 L347.8115 233.8556 L347.7719 233.7625 L349.1825 233.1991 L349.5612 233.0175 L351.2929 232.0008 L351.8023 231.6598 L354.5163 230.3853 L355.1801 230.3052 L355.7421 230.5454 L355.7721 230.5654 L356.7084 230.1913 L364.0119 229.6834 L365.0187 231.6537 L367.7498 230.1051 L369.0642 229.0415 L370.1782 227.8577 L371.109 227.3367 L372.2305 226.938 L373.4062 226.8988 L378.6889 223.9032 L380.1251 224.3258 L380.4843 223.6916 L382.1664 223.6731 L383.5139 223.7886 L384.0909 224.2026 L384.1946 224.9785 L384.6334 225.4672 L384.9215 225.735 L385.1559 225.8043 L390.5659 229.1215 L390.2603 231.9153 L392.0286 231.8076 L401.2771 229.1638 L400.9626 228.0301 L400.8088 226.7656 L400.8058 224.6259 L400.7632 222.8573 L398.761 207.232 L398.4174 207.2674 L398.4199 207.683 L396.346 207.8131 L394.6755 207.8862 L392.9833 207.947 L391.6774 208.064 L390.631 208.1433 L389.5305 208.1741 L385.5717 208.5866 L383.3125 202.2289 L387.4321 200.8288 L387.0203 200.3162 L387.2793 200.046 L387.3815 199.9228 L387.4772 199.725 L387.5794 199.6019 L387.6355 199.5965 L387.9571 199.6057 L388.3132 199.5742 L388.8973 199.6704 L389.0561 199.6111 L390.1371 198.1679 L390.1892 197.9685 L390.078 197.7145 L389.8485 197.3943 L389.6196 197.158 L389.1848 195.5362 L388.6599 194.3878 L388.2306 193.3879 L388.4915 192.9646 L388.5146 192.9469 L388.0813 191.8377 L391.5577 189.8826 L392.5145 189.781 L392.4123 189.6732 L392.4739 189.2799 L392.788 189.0705 L393.5689 188.9666 L394.2647 188.7834 L394.5933 188.3954 L394.5452 188.4131 L393.9361 188.5794 L393.2138 188.7133 L392.3672 188.7819 L392.244 188.4039 L392.2224 188.0098 L392.2234 187.551 L392.3647 187.1908 L392.7649 187.0161 L393.4221 187.0061 L394.947 186.4665 L395.9929 185.9908 L396.9091 185.4643 L397.7586 184.6514 L402.2775 179.2832 L405.014 178.6058 L405.2725 178.2887 L405.554 178.1039 L405.9513 178.0547 L406.4482 178.184 L406.4757 178.244 L412.9772 176.6352 L404.0658 186.4034 L404.0658 192.7614 L402.1372 192.9923 L407.5572 210.3184 L411.3292 238.5958 L410.5377 238.5958 L410.693 239.3685 L411.1078 240.142 L411.1574 240.2767 L411.7299 241.1279 L412.7067 244.3603 L412.2248 244.5027 L411.7274 245.1607 L411.501 244.8752 L411.4113 244.7436 L409.611 245.2762 L410.0819 246.6923 L416.2408 255.415 L428.7013 273.0354 L425.5214 273.2024 L424.9463 273.5687 L424.0351 273.868 L422.864 274.0812 L421.9373 274.2005 L420.708 274.1651 L419.5403 274.4144 L418.9242 274.3921 L418.2254 274.2143 L417.7385 273.7549 L417.723 273.6118 L403.4822 274.3713 L403.4471 274.379 L403.0329 274.3952 L402.8986 274.3898 L402.6281 274.3621 L402.3471 274.3175 L402.0926 274.1805 L401.9569 273.9011 L401.9088 273.6756 L401.9168 273.4525 L401.9579 273.1362 L402.0676 272.8107 L400.5743 269.9725 L412.331 267.456 L410.3724 261.5225 L416.5438 258.7751 L415.3717 254.8963 L403.8454 247.6928 L396.3766 238.7267 L391.9194 238.926 L391.8623 238.9806 L391.2732 239.5202 L390.8789 239.7641 L390.1952 239.0884 L390.0103 239.0107 L388.1013 239.0961 L381.0984 234.4552 L380.2318 236.7025 L375.3127 236.918 L375.201 236.9727 L374.7807 237.6946 L374.112 237.5091 L373.6672 237.7277 L374.1175 237.7954 L374.7026 237.9863 L374.0965 239.0345 L372.8176 241.094 L372.1729 241.7144 L371.7191 242.0607 L371.5513 242.2777 L371.2006 242.3093 L371.141 242.1061 L370.9602 241.9414 L370.8525 241.8745 L370.0695 243.5622 L370.4492 243.6754 L371.0333 243.9648 L371.0949 244.0163 L371.1185 244.071 L370.9291 245.0984 L370.5329 245.0091 L370.1557 244.916 L370.0194 245.0799 L369.7439 245.1615 L369.3081 245.143 L368.8388 245.1661 L368.3454 245.1346 L367.9707 245.1684 L367.1351 245.3185 L366.7694 245.4463 L366.553 245.5602 L366.3166 245.7403 L366.4088 246.1559 L366.515 246.9593 L366.8781 248.9957 L366.799 249.7292 L366.6447 249.9801 L366.7669 250.802 L364.8574 252.0442 L364.8439 252.0834 L364.0229 252.5875 L363.4563 253.1131 L363.1027 253.6149 L362.4299 254.1475 L361.6245 254.8309 L361.0484 255.2857 L360.7574 255.6728 L360.2689 256.2585 L358.9515 258.1132 L357.4207 259.5154 L355.9254 260.1557 L354.088 260.6052 L351.8579 261.0762 L349.3753 261.3609 L347.7629 261.304 L347.1502 261.1916 L346.5406 261.1146 L346.3473 260.8868 L346.234 260.9145 L346.2706 260.7699 L346.1619 260.2104 L346.3022 259.5239 L346.5742 258.4572 L347.1016 256.1315 L347.2424 256.1523 L347.4743 255.3912 L335.5143 259.183 L326.1324 263.8759 L326.7997 265.2796 L326.5061 265.5628 L325.9887 265.6644 L326.0132 265.9299 L326.965 265.9622 L327.1864 266.2093 L327.0897 266.6687 L325.8224 267.4352 L324.9753 267.7038 L324.7945 269.3799 L324.6041 275.1517 L335.2187 270.9191 L338.8204 272.0503 L335.5593 275.0978 L334.1868 277.8528 L337.5681 275.9751 L344.7914 279.592 L343.3938 281.0003 L342.8638 281.0772 L342.4696 281.5297 L342.0984 281.4858 L341.8399 281.4605 L341.602 281.4335 L341.5614 281.3381 L337.4428 285.6945 L340.4484 287.9338 L333.4605 294.5056 L334.9632 297.853 L351.6841 297.4759 L354.5594 299.392 L353.6177 302.3315 L356.478 309.3955 L341.7257 307.4179 L341.1647 303.2395 L338.3846 303.809 L335.359 304.3245 L333.4655 311.2961 L334.4523 315.1666 L332.684 315.1666 L332.7291 309.3109 L336.4159 301.8236 L334.3972 298.6225 L334.9683 302.7163 L329.929 303.6243 L328.7167 308.2413 L326.0217 303.1703 L315.1066 299.0072 L320.7871 297.0219 L312.5769 292.1355 L309.9285 291.9546 L309.8614 292.0993 L309.391 292.4964 L309.0344 292.6895 L308.1888 292.6264 L307.3277 292.4171 L306.638 292.1316 L306.0634 291.6907 L305.8144 291.6737 L302.1126 295.9292 L301.3016 297.4105 L300.983 298.1893 L300.8828 298.2 L300.4545 299.0072 L300.3779 298.2554 L300.3178 298.2624 L299.9882 296.8195 L299.7918 295.0866 L299.7738 293.9484 L299.7382 292.6941 L299.6721 292.1024 L297.434 297.6683 L295.3952 299.0534 L292.8004 296.3139 L288.2771 296.3139 L284.7606 296.2616 L284.9494 296.758 L284.8923 297.2766 L284.448 297.963 L282.7143 298.7156 L280.5343 299.4389 L279.7694 299.4866 L276.8309 302.8548 L273.5599 300.0076 L273.3044 295.9369 L259.2435 290.4579 L259.3256 291.0889 L259.9117 292.0816 L259.5956 292.5818 L259.2149 292.678 L251.9701 297.422 L246.7354 301.1234 L244.917 298.9072 L244.2558 301.2388 L243.0336 304.0783 L244.6015 306.7407 L246.7439 306.4253 L246.6548 305.4241 L247.2233 305.5973 L247.611 305.6735 L248.0493 305.6204 L248.2983 305.8481 L248.3434 306.189 L250.0315 305.9405 L250.1918 310.6498 L249.0296 314.1663 L248.5738 313.9585 L248.5678 313.9862 L247.8139 313.9224 L247.1692 313.7115 L247.5419 314.7819 L240.9347 317.2057 L236.762 315.7514 L235.2191 307.8796 L234.4427 297.9992 L235.7151 294.1516 L234.4627 294.5056 L232.975 307.4795 L231.2368 307.4795 L231.9932 301.9929 L229.7591 301.819 L229.0392 302.0337 L228.2413 302.4685 L228.2413 303.555 L226.9263 303.8405 L226.8677 303.9005 L226.3538 304.1145 L225.3179 304.1899 L224.0936 304.4553 L224.0245 304.2045 L223.6608 304.1552 L223.3307 303.8167 L222.9134 302.5501 L222.9735 301.7521 L223.1669 301.0942 L221.7593 295.9907 L220.0011 296.955 L219.5918 297.5559 L218.7868 297.6283 L212.6775 301.0157 L209.2061 299.0072 L209.387 297.8884 L209.3584 296.661 L209.3769 295.2697 L208.9932 294.5579 L208.7262 294.4948 L208.3766 294.304 L207.8822 294.0423 L207.5396 293.8507 L207.2635 293.7091 L206.8593 293.3705 L206.693 292.9057 L206.1815 292.2986 L205.5594 291.7715 L205.0359 291.4921 L204.7604 291.0443 L204.5886 290.6241 L199.4777 286.531 L199.2808 286.7849 L199.1355 287.2566 L199.4171 288.6972 L199.374 289.2982 L199.2462 289.8861 L198.7012 290.4563 L197.474 290.5949 L196.9255 289.9631 L197.8882 289.2651 L197.7635 288.7972 L198.9061 288.02 L198.8761 287.3043 L198.5014 288.1185 L192.1747 287.9492 L193.938 279.5843 L192.6556 279.7151 L191.3732 279.8536 L189.7252 277.3988 L190.5467 279.7844 L187.1304 288.2416 L183.1581 289.8577 L176.2403 282.6933 L164.4235 284.8711 L156.7944 283.0857 L158.5015 281.669 L158.2401 281.0495 L160.2448 279.0625 L161.3969 278.1599 L161.5231 277.4057 L162.3066 276.9455 L163.0494 276.7331 L163.8454 277.0294 L164.0818 277.0386 L167.7095 274.0281 L163.4968 271.9118 L166.6476 270.819 L169.4633 268.9974 L169.5675 268.5873 L169.6692 268.1748 L169.5514 266.5525 L169.7839 264.8156 L170.3249 263.9683 L171.6112 262.7823 L171.9499 262.7731 L172.2885 262.9162 L172.5725 263.2618 L172.6952 263.4965 L178.3747 259.7825 L178.4248 259.5639 L178.0852 258.9783 L176.075 257.1205 L172.3381 260.9915 L171.4339 257.6292 L170.8759 256.1923 L170.6905 254.8871 L170.6745 254.7647 L169.7583 251.31 L170.3018 250.1101 L170.3705 249.0758 L170.9635 247.1456 L172.3641 245.5556 L172.839 244.5066 L174.2666 243.1982 L173.1396 243.3752 L170.3795 244.0756 L170.0088 243.5984 L169.6381 243.1289 L165.9864 243.1982 L168.6312 247.2156 L167.2737 247.9645 L167.1946 248.3439 L167.2292 248.9534 L167.2557 248.9765 L167.4591 249.0088 L167.4706 249.1612 L167.8789 249.5114 L168.1744 251.7733 L167.9259 254.2075 L167.8728 254.373 L168.1504 257.967 L165.3302 260.2527 L166.5674 264.47 L167.439 263.5773 L166.1667 265.9476 L160.3009 262.7539 L163.602 267.2251 L162.2595 268.1324 L162.2004 268.2163 L162.1022 268.2386 L160.7667 269.1414 L159.3341 269.0336 L151.5247 262.2151 L145.0728 265.3089 L145.7139 271.9965 L145.5386 272.5275 L141.4932 274.3644 L141.3479 274.4491 L141.2788 274.4614 L133.5715 277.9605 L134.8033 272.7545 L134.896 272.265 L134.9025 272.0434 L133.802 257.1897 L131.9385 256.7434 L139.2776 254.5554 L139.532 254.4084 L139.9653 254.2991 L140.1281 254.57 L140.2443 254.8578 L140.4883 255.5728 L141.683 261.6418 L141.946 262.6392 L142.2395 262.9809 L142.8712 262.994 L144.1886 262.229 L144.2072 262.2544 L144.8694 261.8873 L145.1214 261.5056 L146.0926 260.9807 L147.2763 260.2696 L147.7267 260.0411 L148.2747 259.6732 L148.6023 259.5377 L148.8848 259.637 L140.1336 253.8958 L138.3203 244.3911 L128.0614 250.9098 L112.7681 255.4658 L110.6142 252.0257 L109.6474 250.1709 L106.3914 251.8641 L103.1354 253.5495 L96.448 250.1402 L85.7232 238.6805 L89.9911 235.1402 L94.4093 243.9832 L95.5964 243.8001 L95.9651 243.5261 L96.9019 242.9096 L97.238 243.149 L97.276 243.2082 L97.5375 243.0966 L97.3036 242.6818 L97.6182 242.4086 L98.5494 241.8013 L99.8062 241.1395 L100.4023 240.8355 L104.2389 239.2662 L104.5715 239.1877 L105.0739 238.996 L106.1945 238.5897 L106.6278 238.5512 L109.2466 237.7792 L109.5302 237.9563 L109.5432 237.8908 L109.4741 237.7662 L109.5747 237.73 L110.3186 233.9241 L113.0401 236.4832 L113.8035 236.2084 L115.6835 235.0401 L115.945 234.9562 L116.7299 234.5437 L116.7375 234.5398 L116.8542 234.3767 L117.6597 233.9287 L118.2758 233.6163 L119.3874 233.1252 L121.1977 232.7412 L124.5374 231.9677 L125.0037 231.9438 L125.1485 231.9892 L125.2812 231.9461 L126.5886 233.2622 L126.0627 231.7537 L126.2195 231.6668 L126.217 231.188 L126.6237 231.0464 L127.8029 230.6716 L128.4491 230.4245 L146.1788 220.5475 L146.0982 218.838 L145.8722 218.4155 L145.488 217.8175 L144.644 216.7176 L144.0063 215.8648 L142.8296 214.6433 L141.941 213.077 L141.1836 212.0472 L140.6847 211.4037 L139.8316 207.5013 L139.766 207.4783 L137.2684 210.9342 L133.6918 208.8714 L131.2918 204.5018 L130.573 203.2811 L130.5815 203.2203 L130.3005 202.7138 L129.7004 198.6559 L129.5586 198.398 L129.0136 197.4036 L128.5823 195.761 L128.123 194.5025 L127.9922 193.0415 L127.6997 191.7122 L127.7107 189.7725 L127.6736 188.243 L127.8966 187.1977 L127.9962 187.1238 L127.9862 187.0576 L129.3988 179.722 L130.2604 179.3063 L148.3438 183.1781 L148.3438 185.4104 L150.5078 185.5951 L158.4875 181.9619 L163.6821 177.8669 L161.3578 176.4043 L159.3491 175.573 L159.84 177.6282 L156.1783 179.8374 L151.5748 172.594 L152.6718 172.3323 L154.1545 174.6185 L155.9929 173.841 L160.4612 174.3336 L160.0704 172.6325 L156.2183 166.9746 L155.8527 165.8892 L156.2634 162.125 L155.5421 163.2335 L154.6354 166.328 L155.9478 169.2301 L151.4746 168.799 L146.6156 162.3405 L145.5436 154.8889 L142.468 150.4625 L145.0778 151.1553 L145.5186 148.3301 L143.3496 147.4756 L141.8117 149.8312 L140.9552 145.2662 L146.0846 147.4679 L146.6106 150.4625 L148.0933 150.4625 L149.9718 159.5077 L151.9004 157.8449 L148.5392 146.9983 L150.3124 144.6889 L150.5429 149.6388 L151.0788 145.5972 L155.3968 142.2793 L157.4005 139.7696 L154.1094 140.0699 L154.946 137.3754 L160.8018 136.6056 L161.1474 132.5793 L157.4356 127.1749 L157.3114 126.6507 L157.1095 126.2295 L156.8595 125.3765 L156.6827 124.4819 L156.0801 122.7082 L155.9664 121.4394 L156.0751 121.4356 L155.3718 118.4677 L155.5852 118.4769 L155.6227 118.0643 L156.2499 117.9457 L156.6411 118.0566 L157.0704 117.9758 L157.3189 117.8841 L157.8864 117.5485 L158.3708 117.5669 L158.8712 117.53 L159.5094 117.6593 L161.3503 117.7086 L161.6839 117.8734 L161.6554 118.1936 L161.9013 118.0335 L161.9284 117.8164 L162.4258 117.2105 L162.816 116.5037 L162.9217 115.9633 L163.1561 115.4775 L163.4241 115.1049 L163.9105 114.763 L164.3403 114.4928 L164.4074 114.0986 L164.6845 113.9054 L164.8979 113.9277 L163.8574 109.2676 L166.9081 93.569 L166.1016 89.7425 L168.8897 86.9969 L169.1272 86.7628 L168.0051 85.2691 L169.1622 84.9611 L168.3908 83.1594 L169.052 80.6879 L166.7528 74.2587 L162.8756 74.9671 L147.4772 80.6032 L144.8624 81.2885 L145.5887 83.6214 L144.3114 84.2605 L143.039 84.7301 L143.3546 87.3325 L141.1305 87.3325 L140.5143 83.4289 L137.9095 81.2192 L132.0638 81.3193 L125.677 81.7196 L131.3124 86.2931 L129.494 86.0544 L125.0708 87.0785 L128.3519 89.5038 L127.5705 92.3679 L122.8167 92.7991 L122.0403 84.8302 L113.6548 83.5136 L116.2846 81.7581 L112.4626 81.889 L98.7222 80.9574 L97.7304 85.0304 L94.8701 80.8265 L91.7694 84.7532 L90.1764 90.9128 L89.946 102.7311 L84.8366 102.4 L81.5004 99.3973 L83.96 93.7153 L78.1392 90.035 L74.768 88.6953 L75.2589 86.1776 L77.2125 86.1776 L77.0522 82.428 L76.3209 78.5166 L73.13 77.9006 L81.9513 68.6995 L72.7092 70.3857 L67.4896 64.6263 L66.3024 67.7755 L59.1792 63.4636 L57.431 65.7659 L57.1204 62.7706 L54.9314 63.4636 L54.6358 61.6772 L51.0392 64.2028 L47.9084 65.7736 L47.9084 68.0835 L43.7908 68.3761 L45.8396 71.8872 L47.5327 74.6899 L55.1318 70.5243 L66.5879 69.6235 L66.6129 75.0133 L59.7453 76.7149 L50.6685 79.3097 L49.2359 77.916 L49.6717 79.7331 L41.5166 77.8544 L32.3898 80.788 L32.0842 78.917 L29.6547 79.8255 L15.0578 83.9833 L12.9489 88.8031 L9.1519 86.0159 L8.0098 79.7485 L4.0976 77.4233 L2.7901 78.8631 L4.313 74.2972 L1.4226 76.6302 L0.3056 81.6272 L2.0438 83.4905 L0.0 85.8928 M20.6431 160.085 L20.9236 152.0021 L21.2793 152.0021 L25.3267 153.0029 L24.7657 159.6386 L20.6431 160.085 M78.9457 116.9741 L85.9787 122.5788 L85.8935 122.448 L81.25 116.2659 L84.2956 117.3591 L92.9766 116.8818 L94.2339 114.8493 L97.0541 114.9955 L99.0628 115.1187 L100.6458 127.6676 L93.2822 128.9918 L87.5366 133.2029 L83.1084 125.181 L78.9457 116.9741 M80.8693 251.2484 L80.9674 250.6419 L81.0571 250.4041 L81.2424 250.1756 L81.288 250.1194 L81.7334 249.9885 L82.2588 249.9762 L82.7683 249.937 L83.1986 249.7938 L83.6855 249.5837 L84.0436 249.4052 L84.4879 249.2605 L85.0635 249.2643 L85.5404 249.1728 L85.8024 249.0034 L86.0373 248.8434 L86.3328 248.7402 L86.7436 248.5294 L86.9219 248.4632 L87.2019 248.3585 L87.6633 248.2792 L87.9498 248.1492 L88.1953 247.9537 L88.2749 247.759 L88.3686 247.5696 L88.4102 247.5173 L88.4868 247.4203 L88.597 247.2572 L88.6887 247.0409 L88.8525 246.9355 L89.0879 246.9347 L89.4486 247.1733 L89.9024 247.5981 L90.5657 248.1915 L92.3104 249.3036 L93.456 249.9801 L94.2199 250.4672 L94.822 251.1568 L95.6145 251.5716 L96.3088 251.7379 L96.7876 252.0565 L97.262 252.5552 L97.8075 253.1185 L98.339 253.6742 L98.7893 254.0575 L98.9381 254.2522 L99.0238 254.4322 L99.0578 254.5823 L98.9867 254.7139 L98.859 254.8363 L98.6671 254.9371 L98.2378 255.0025 L98.1066 255.0225 L97.545 255.1703 L96.4485 255.4958 L95.0795 255.9553 L94.4017 256.357 L93.9855 256.5825 L93.4815 256.9127 L92.8644 257.1351 L92.1531 257.3175 L91.6502 257.4252 L91.0716 257.4637 L90.6248 257.5037 L89.7642 257.6438 L89.0258 257.9047 L88.6171 258.0601 L87.8376 258.1786 L87.2806 258.1456 L86.8147 258.0486 L86.5337 257.8516 L86.154 257.5599 L85.8219 257.4852 L85.4838 257.5784 L85.0705 257.7615 L84.6297 257.947 L83.3759 257.9493 L83.0538 257.9085 L82.7998 257.7792 L82.3795 257.2682 L82.1095 256.6533 L81.9963 256.0869 L81.9112 255.365 L81.8461 254.5646 L81.4453 253.5726 L81.0842 252.7153 L80.9179 252.098 L80.8993 252.0103 L80.8863 251.7471 L80.8693 251.2484 M83.2842 233.9257 L84.1824 233.497 L85.2418 232.9474 L86.6374 232.2309 L88.561 231.4043 L90.0527 230.7978 L90.2115 230.6377 L89.6404 229.3817 L89.389 228.9737 L89.4361 228.9145 L89.2848 228.5674 L88.9842 226.0891 L92.0549 220.3166 L94.2084 219.8609 L94.1898 219.7617 L94.4098 219.8178 L97.8155 219.0967 L98.348 218.9304 L98.3921 218.9673 L98.9612 218.8396 L99.0228 218.571 L99.2211 218.3862 L99.5713 218.5079 L99.71 218.6795 L102.1335 218.1615 L104.5279 216.7838 L104.7634 216.7068 L104.5179 217.2764 L106.8647 222.1045 L107.3857 222.9727 L107.3917 223.189 L107.7689 223.9648 L104.9838 226.5047 L107.268 229.1677 L106.2211 228.7598 L103.8567 227.536 L101.1918 229.8142 L94.3221 231.8184 L94.01 232.0185 L93.0893 232.5888 L92.2713 232.7581 L90.8046 233.0914 L89.8368 233.3461 L88.5504 233.5316 L87.5546 233.958 L85.9807 234.5868 L84.4118 235.2848 L83.8833 235.194 L83.5332 234.773 L83.2842 233.9257 M124.0389 93.1071 L124.8554 93.1148 L127.4653 93.569 L127.8109 101.5454 L124.3545 102.7773 L124.0389 93.1071 M140.8399 126.9825 L146.0496 126.9825 L146.6106 124.3803 L150.3475 123.8414 L150.6531 121.9783 L151.4395 121.986 L154.8859 122.4788 L160.1306 133.9189 L158.2972 135.882 L155.2315 132.5716 L152.1007 132.7641 L151.2842 132.1636 L148.9098 131.1628 L144.8173 131.6478 L140.8399 126.9825 M156.4483 288.3848 L157.6229 286.5948 L158.9679 285.4767 L159.9377 285.4082 L162.1999 285.7376 L162.9723 285.8553 L163.331 286.1423 L163.3139 286.4986 L163.1722 286.8634 L163.1386 287.2474 L162.7674 287.666 L162.1879 287.8499 L161.5902 288.0569 L160.9701 288.1755 L159.7619 288.3748 L158.9704 288.5079 L157.6174 288.6441 L156.8179 288.7649 L156.4718 288.6149 L156.4483 288.3848 M157.1455 324.7704 L157.2973 324.2217 L157.403 323.1783 L157.4185 323.0229 L157.4456 322.1657 L157.65 321.1954 L157.9034 319.8889 L158.6553 318.6154 L159.7083 315.8692 L160.0404 313.9293 L160.2663 311.924 L160.2683 311.9079 L160.7983 311.714 L162.8365 311.1138 L163.1015 311.0999 L163.1952 311.0953 L163.4342 311.2892 L163.5268 311.6478 L163.5173 312.2849 L163.5649 312.8159 L163.7898 313.0975 L164.0994 313.2037 L164.4701 313.343 L165.6718 313.7692 L165.9783 314.1055 L166.1376 314.3925 L166.2799 314.4618 L166.8339 314.7319 L167.8999 314.7365 L168.1223 314.9843 L168.1213 315.1666 L168.1183 315.6876 L167.5793 317.4774 L166.2313 319.9089 L166.1892 320.1805 L166.2488 320.4768 L166.3941 320.6283 L166.4147 320.6499 L166.5429 320.7845 L169.2669 321.0754 L171.5962 321.0654 L171.8457 321.4455 L171.9494 321.6033 L172.1327 322.3373 L172.0716 322.3873 L170.9946 323.2638 L169.9707 323.72 L168.5817 324.4556 L167.9325 324.3202 L166.9506 324.0332 L166.5734 323.7285 L166.2519 323.8001 L165.2766 323.9824 L164.0813 324.2494 L162.9012 324.9189 L160.0148 327.1595 L159.8325 327.3011 L159.3987 327.4911 L158.7751 327.7651 L158.5962 327.742 L158.1684 327.6858 L157.7482 327.4558 L157.5232 326.8056 L157.2272 326.0684 L157.1455 324.7704 M168.9664 334.7932 L169.2809 334.1253 L169.6767 333.3605 L170.0208 332.8026 L170.1485 332.5957 L170.8408 332.8704 L172.4463 333.5075 L173.2488 333.5482 L173.2813 333.5498 L173.2883 333.569 L173.6064 334.4177 L174.1304 334.5993 L174.5612 334.4562 L174.6584 334.283 L174.9494 333.7637 L175.5475 334.1869 L176.3831 334.4492 L176.7026 334.9371 L177.4385 335.4965 L178.1268 336.0905 L178.1488 336.1112 L178.3837 336.6129 L178.9839 336.5867 L179.4292 337.0746 L179.3751 337.5516 L179.3365 337.8955 L179.084 338.3357 L178.6102 338.8366 L178.0126 339.1259 L177.446 338.9828 L177.2652 339.0297 L176.9135 339.1212 L176.4422 339.3567 L176.3209 339.4175 L175.6026 339.5167 L174.9264 339.3136 L174.8162 339.2474 L174.4976 339.0574 L174.2591 339.2105 L173.8358 339.4821 L173.4617 339.9938 L172.9532 340.2638 L172.3546 339.8399 L171.3813 339.4867 L170.9039 339.1059 L170.4276 338.9681 L169.837 338.7158 L169.2063 338.1679 L169.4768 337.5531 L169.5034 337.1076 L169.5324 336.6244 L169.4007 336.1636 L169.0911 335.3018 L168.9664 334.7932 M174.2216 300.3146 L177.3739 299.4682 L179.902 298.8464 L180.98 298.5809 L181.3893 300.5239 L181.3873 301.4273 L181.4028 302.1484 L181.4279 302.4292 L181.496 303.1895 L181.6007 303.7359 L181.8156 304.3107 L182.035 304.5254 L182.2113 304.6808 L182.4502 304.9517 L182.6651 305.2587 L183.0338 305.7396 L183.8398 307.3202 L182.7774 308.1381 L181.3482 309.8203 L180.8593 310.3951 L180.688 310.2958 L180.4135 310.1365 L179.9241 309.3886 L179.4106 308.9138 L178.9122 308.3752 L178.2896 307.688 L177.6915 306.8108 L175.7178 302.8686 L174.2216 300.3146 M180.9991 350.8379 L182.041 347.8449 L188.2925 352.3767 L189.3294 349.5992 L186.7347 347.291 L187.6664 345.4905 L187.9419 345.1751 L194.2836 349.5761 L191.6387 352.7768 L193.427 354.4695 L191.9343 356.7084 L190.4415 358.001 L192.2849 361.771 L203.18 364.587 L196.2823 366.3334 L190.6719 366.3334 L191.1779 364.9486 L188.9838 362.1942 L180.9991 350.8379 M181.5401 372.9885 L183.0328 370.2341 L184.0146 370.2111 L189.1391 374.7965 L181.8807 379.5049 L181.5401 372.9885 M182.7443 304.8278 L182.834 304.6885 L182.9562 304.4992 L183.3494 304.3907 L183.6294 304.5815 L183.7917 304.8447 L184.0437 304.9763 L184.1769 305.0463 L185.0986 305.3595 L186.5904 305.7727 L187.758 306.1275 L188.2189 306.3652 L188.1954 306.6784 L188.3912 306.9239 L190.5437 306.5045 L192.1887 306.1305 L193.2101 305.665 L193.5883 305.9435 L193.7877 306.3976 L192.8755 306.7261 L190.7 307.3317 L188.8726 307.7219 L188.4238 307.9673 L187.5862 307.9812 L187.0307 308.1751 L186.7702 308.4652 L186.2292 308.3698 L185.7809 308.1643 L185.1668 307.9319 L184.8722 307.6103 L183.966 307.3217 L183.695 305.6242 L183.1901 305.201 L183.1125 305.1363 L182.7443 304.8278 M193.3228 301.9368 L193.4676 301.1049 L193.8688 300.7148 L194.6488 300.9156 L195.592 301.6151 L195.6431 301.6528 L196.5463 302.1484 L196.2617 302.9171 L196.1606 303.7312 L196.0794 304.1137 L196.3419 304.4653 L196.6319 304.4969 L197.0186 304.3176 L197.4054 303.9328 L197.5907 303.6797 L197.8166 303.5689 L197.8346 303.6327 L197.9313 303.9706 L197.9579 304.0637 L198.1207 304.1044 L198.4433 303.8128 L198.6547 303.622 L199.0514 303.6258 L199.2488 303.6281 L199.4807 303.5096 L199.4797 303.4942 L199.4616 303.1433 L199.9065 303.168 L200.2276 303.1857 L201.5776 304.0298 L202.3339 304.5869 L202.5884 304.5638 L202.8043 304.343 L203.1625 304.4015 L203.5397 304.6662 L203.8713 304.9701 L204.3326 305.4011 L204.4829 305.7627 L204.4473 306.2175 L204.3932 306.6284 L203.8603 306.7915 L203.4159 307.2932 L203.6083 307.6818 L203.7791 308.1274 L203.9715 308.5668 L203.9329 309.5271 L203.7085 309.9234 L203.3288 310.5059 L202.9366 310.9452 L202.3189 311.4339 L202.2733 311.4662 L201.804 311.7971 L201.1753 311.854 L200.3393 312.1603 L200.1925 312.1279 L199.7812 312.0371 L199.3529 312.0756 L198.7198 312.3926 L198.323 312.7228 L198.291 312.7489 L198.1978 312.762 L197.7505 312.8259 L197.4033 312.7997 L197.2786 312.6951 L197.0407 312.2834 L196.3299 311.7417 L195.8059 311.3554 L196.2372 311.0283 L197.4003 310.5197 L198.1457 310.4805 L198.7118 310.0549 L198.4613 309.5001 L198.036 309.2493 L197.476 308.4629 L196.8513 307.5957 L196.4801 307.2948 L196.5548 306.5799 L196.3319 305.9674 L195.4067 304.954 L195.1833 304.3961 L194.7585 303.8282 L194.3187 303.4134 L193.5016 302.6424 L193.3228 301.9368 M208.2193 391.1295 L208.4603 390.6956 L208.8109 389.744 L209.2898 388.7492 L209.6299 388.0584 L209.972 387.7014 L210.0502 387.666 L210.5737 386.6674 L211.3301 386.8905 L212.1245 387.2975 L212.4156 387.3014 L212.7582 387.4929 L212.9931 387.7214 L213.0066 387.7491 L214.2154 388.3677 L213.4034 391.1265 L209.4566 393.2529 L208.2193 391.1295 M220.512 79.8255 L220.6022 73.9738 L222.6309 72.0951 L223.0116 72.0027 L224.3591 73.3732 L233.3757 78.2009 L231.0715 79.8101 L230.27 80.6417 L233.7514 82.4973 L232.3789 83.5521 L228.7823 90.035 L223.5376 90.035 L220.512 79.8255 M223.5927 315.082 L224.4943 305.548 L225.4912 305.548 L225.7366 311.9502 L230.7609 312.9044 L230.2099 317.0903 L229.7841 314.0586 L225.6465 314.5203 L223.5927 315.082 M250.9832 85.7927 L251.5793 76.5609 L254.3695 78.8554 L257.2548 81.581 L254.5348 81.7581 L254.0038 85.7927 L250.9832 85.7927 M252.2416 188.1499 L252.4499 188.1199 L252.5737 188.1091 L252.7365 188.0945 L253.1517 188.0329 L253.9617 187.9167 L254.908 187.695 L255.9324 187.4071 L256.7619 187.1508 L257.6806 186.9214 L258.3794 186.859 L258.6609 187.0269 L258.8753 187.1308 L258.9129 187.3355 L259.1002 187.8859 L259.1658 188.464 L258.456 189.1075 L257.9185 189.4715 L256.1964 190.1843 L254.8539 190.5399 L254.0133 190.824 L253.5725 190.8994 L253.2018 190.8632 L253.1558 190.8417 L252.7961 190.6731 L252.6037 189.8187 L252.4324 189.0797 L252.2811 188.4386 L252.2416 188.1499 M257.9306 176.6429 L258.1495 176.3804 L259.5105 175.4798 L260.9707 174.4453 L261.6975 173.8933 L262.7715 172.7972 L264.6394 171.574 L265.6122 170.2215 L265.8031 169.5295 L266.6632 169.4664 L271.2021 168.07 L278.9223 165.8161 L279.3827 165.6968 L279.4067 165.7684 L279.7904 166.9146 L280.0133 167.5797 L280.7617 169.3686 L281.0072 169.9714 L280.5628 170.1068 L277.4516 171.0552 L274.5753 171.9035 L269.4674 173.4461 L265.0171 175.0618 L264.423 175.3928 L263.1041 176.1441 L259.0637 178.1955 L258.8483 178.3048 L258.6013 177.8684 L258.2296 177.2764 L257.9306 176.6429 M258.9114 180.3355 L259.2435 179.4957 L259.3487 179.4364 L259.9974 179.0707 L261.2883 178.6281 L262.5551 177.9931 L263.2268 179.1939 L263.8209 179.0538 L266.2484 178.0647 L269.1377 177.131 L272.6818 176.0002 L275.7339 174.9433 L277.113 174.443 L277.7406 174.6077 L278.1464 175.0372 L278.487 175.4375 L278.9674 176.0063 L278.6779 176.6437 L278.5626 177.1402 L278.5656 177.161 L278.7199 178.1801 L278.3187 178.6482 L278.2786 178.6943 L278.7385 179.6481 L278.505 179.9706 L277.677 180.3462 L277.0554 180.2084 L276.6476 180.2169 L276.4613 180.5394 L276.4447 180.972 L275.3106 181.3623 L274.9385 181.4893 L274.4506 181.6925 L273.2599 182.1682 L272.3963 182.5092 L270.7362 183.3952 L268.8953 184.3528 L268.0497 185.3173 L265.7976 186.7567 L262.7525 188.1976 L261.7696 188.5309 L261.5162 188.1176 L260.624 185.8022 L260.5845 185.679 L259.8752 183.4737 L259.2655 181.4955 L258.9114 180.3355 M259.7129 313.9793 L260.1316 313.316 L260.4026 313.0144 L260.6205 312.8143 L260.857 312.8274 L261.127 312.9005 L261.5543 313.0359 L262.1519 313.4407 L262.5356 313.3922 L262.8046 313.0698 L262.9754 312.7343 L263.6606 312.7397 L264.1826 312.2041 L264.4331 312.4042 L265.5882 313.5507 L266.539 314.0894 L268.1058 315.1151 L269.0721 315.9246 L269.798 316.6863 L270.3866 317.849 L270.4221 318.0129 L270.1161 318.0937 L273.605 321.5994 L270.6596 326.2316 L264.6184 325.4159 L263.1211 316.9964 L262.759 316.6186 L261.0418 315.4282 L261.2517 315.2128 L260.6376 314.7157 L259.7129 313.9793 M262.7835 150.7489 L262.7875 150.3717 L263.031 150.1615 L263.6797 149.8767 L264.3013 149.7081 L264.9405 149.1192 L265.5637 147.899 L265.9839 146.7304 L265.9749 145.6481 L266.0265 144.518 L265.8146 144.0853 L265.8026 143.9029 L265.7911 143.7327 L265.758 143.3586 L265.8427 143.0499 L266.012 142.8459 L266.9908 142.8243 L267.7928 142.6511 L268.8983 142.839 L269.5435 142.7027 L269.9683 142.4055 L270.5874 142.7397 L271.3734 143.2385 L271.4014 143.2577 L271.5968 143.3948 L271.9645 143.6511 L272.7194 144.5434 L272.6953 145.1107 L272.7123 145.8151 L272.6597 146.3948 L272.4148 146.9983 L272.1258 147.7096 L271.4976 149.3263 L271.0102 150.1607 L270.3134 151.1661 L269.6772 152.0144 L269.5986 152.8127 L269.3952 153.4717 L269.1618 153.7942 L268.441 153.7881 L268.0102 154.243 L267.5598 154.3146 L267.1511 154.3516 L266.8646 153.6611 L266.8731 153.2261 L266.4558 153.1322 L265.77 153.6033 L265.1283 153.9459 L263.8204 153.9721 L263.3876 153.3477 L263.058 152.5679 L262.8266 151.2346 L262.7835 150.7489 M266.1773 169.3494 L266.309 168.886 L266.299 168.5396 L266.4047 168.0923 L266.3872 167.739 L266.4728 167.6135 L266.6006 167.5674 L266.7894 167.5089 L267.0604 167.4427 L267.4211 167.3688 L269.4894 166.7468 L277.0338 164.4767 L277.2622 164.5052 L277.41 164.6861 L277.5032 164.8724 L277.5488 165.0602 L277.653 165.2342 L277.8859 165.315 L278.1479 165.3427 L279.1377 165.1125 L279.306 165.5859 L278.6718 165.6221 L278.1148 165.6722 L277.7001 165.7584 L277.2081 165.93 L276.9241 166.0132 L276.7097 166.0763 L276.4032 166.2149 L276.0981 166.3673 L274.5382 166.8291 L272.7995 167.3026 L271.2732 167.7452 L269.6607 168.2378 L267.8729 168.7805 L266.4899 169.2447 L266.1773 169.3494 M268.9234 162.5438 L268.9694 162.4953 L270.3114 161.0835 L271.5547 160.2636 L272.6242 160.209 L274.8172 159.9357 L275.7164 160.1474 L276.4487 160.0465 L276.7328 160.8202 L272.9443 161.4229 L271.0929 161.8409 L269.0446 162.4899 L268.9234 162.5438 M269.0716 408.8389 L272.4178 403.2923 L273.9857 401.9922 L277.6575 404.1463 L277.9936 404.1316 L278.6483 403.8562 L278.6132 403.6931 L278.8231 403.41 L279.045 402.9462 L279.7268 403.2108 L280.4411 403.2231 L280.8434 403.2293 L281.3027 403.307 L282.3927 402.59 L283.0524 402.1484 L286.3535 398.8381 L289.7298 394.0837 L290.2307 394.0606 L290.702 394.3138 L290.8278 394.2768 L291.21 394.3676 L293.7066 395.6508 L295.5911 396.9387 L296.3319 397.3364 L299.1672 398.1757 L299.2644 398.6388 L299.3159 398.9381 L300.1039 399.3612 L303.948 398.1134 L304.0807 397.7418 L304.5456 397.7357 L304.6788 397.8764 L308.8566 396.5209 L309.0639 396.2432 L309.9325 395.8755 L310.9339 395.7855 L311.0065 395.8232 L311.7905 395.5685 L314.5205 398.0765 L315.9031 404.4155 L312.7898 404.8909 L312.3856 405.061 L311.3056 405.2133 L309.9285 405.5448 L308.9107 406.3241 L308.5785 406.7149 L308.2519 407.4035 L308.1447 408.0666 L306.7011 408.8066 L305.7578 408.5012 L304.6979 408.3428 L303.9174 408.4851 L303.4 408.7489 L302.5043 409.0374 L301.7805 409.0743 L301.0877 409.1013 L300.6068 408.9628 L300.2867 408.9443 L300.3519 408.5389 L299.3861 408.8489 L299.4206 409.0151 L299.1166 409.2574 L298.3787 409.5251 L297.4991 409.8329 L297.4565 409.4675 L296.5108 409.7706 L296.5473 410.1821 L295.9557 410.3883 L295.1798 410.3883 L293.95 411.0406 L292.9011 411.6276 L292.7629 411.5499 L292.7288 411.4307 L292.6682 411.0022 L292.2269 411.143 L292.2379 411.1799 L292.2694 411.5314 L288.9057 412.4861 L288.4554 412.7969 L287.1054 413.2654 L286.0379 413.5462 L285.0882 413.8131 L284.4054 413.82 L283.9766 413.7477 L283.6611 413.5785 L283.3375 412.5315 L276.8309 411.993 L272.4579 412.9008 L272.0271 408.2312 L269.0716 408.8389 M270.362 425.859 L270.3956 425.0706 L270.5974 424.3098 L270.7683 423.0374 L270.9631 422.4297 L271.0112 421.7235 L271.0543 420.5812 L271.2371 419.7588 L271.4896 419.0142 L272.1233 419.0542 L272.802 419.2088 L273.1361 419.5396 L273.2238 420.1627 L274.0744 420.0796 L273.9416 419.4888 L275.793 419.2042 L278.0171 419.6973 L280.122 419.4934 L280.3975 419.478 L280.7933 419.7773 L281.3493 419.8519 L283.0695 421.4974 L287.4405 424.8013 L279.4858 428.8014 L277.5573 428.4553 L278.8447 425.7783 L276.344 425.926 L274.9164 426.0052 L274.9565 426.1267 L274.0508 426.146 L273.1081 426.2098 L272.5095 426.1398 L270.5694 426.2475 L270.6195 425.8883 L270.362 425.859 M273.074 115.6807 L277.5072 115.2034 L278.0181 115.2111 L281.715 116.5969 L303.1295 114.9416 L304.4169 117.9288 L305.7092 120.0921 L303.7556 120.2307 L302.313 120.5002 L304.0141 123.1639 L304.2335 123.2894 L304.9774 123.6259 L310.0673 121.7397 L309.8319 126.228 L304.9729 126.1972 L300.1089 126.1664 L295.6457 130.8087 L280.9035 131.7171 L273.074 115.6807 M281.0788 320.5606 L284.1144 312.1733 L288.6177 313.8662 L289.1637 310.5497 L289.7448 310.5497 L289.6045 313.82 L291.6082 314.5587 L290.0003 322.669 L288.1769 324.4772 L288.8481 328.5091 L287.5908 329.2709 L285.3517 327.0703 L281.0788 320.5606 M281.5361 153.9082 L281.7069 153.3477 L282.1252 151.8097 L282.5735 151.1738 L283.1331 150.9413 L283.894 150.9344 L284.7571 150.9128 L285.7199 150.9021 L286.5614 150.8074 L287.4826 150.8089 L287.6609 151.2762 L287.6329 151.608 L287.5688 151.8489 L287.4776 152.009 L287.3158 152.2808 L287.1049 152.8374 L286.5414 153.8035 L285.8842 154.3169 L284.6534 154.8042 L283.5819 154.9751 L282.4804 154.8104 L281.7931 154.2854 L281.5361 153.9082 M286.9556 154.3854 L287.1806 154.1915 L287.4215 154.1699 L287.9174 153.9798 L288.2049 153.6341 L288.8431 153.1738 L289.6301 152.7488 L290.3624 152.2592 L291.0918 151.7773 L292.2219 150.5834 L292.818 149.7012 L293.2818 148.939 L293.8163 148.2447 L294.21 147.6119 L294.0472 147.1815 L293.9601 146.5156 L293.8459 146.0114 L293.6059 145.2685 L293.3104 144.6696 L292.9462 144.16 L292.843 143.7035 L293.0814 143.3486 L293.5558 143.23 L294.0527 143.3586 L294.214 143.3917 L294.5466 143.4602 L295.28 143.7558 L296.0048 144.1915 L295.9753 144.4756 L295.9547 144.6658 L295.9993 144.8528 L295.9833 145.0976 L295.9938 145.4579 L295.8586 145.6927 L295.8696 146.0938 L295.7769 146.3732 L295.7519 146.6889 L295.7474 146.7443 L295.6672 147.2447 L295.5981 147.7096 L296.9776 148.0306 L298.1358 148.3509 L298.6748 148.4171 L300.427 148.6319 L302.7212 148.9475 L302.9206 149.1592 L302.9987 149.8051 L302.7418 150.7319 L302.7052 150.8004 L301.8281 152.4417 L301.1869 153.4671 L300.0353 153.9621 L297.46 154.3747 L295.8601 154.6156 L293.6274 154.6764 L291.6628 154.561 L290.1886 154.4286 L288.78 154.6387 L287.9069 154.7172 L287.3428 154.7673 L286.9556 154.3854 M290.1305 341.4357 L291.6533 335.9958 L292.014 336.2113 L295.2149 342.3667 L292.7353 342.9053 L295.3902 345.0212 L292.545 344.7057 L290.1305 341.4357 M302.1276 67.1595 L302.1276 65.0652 L303.8859 64.8342 L304.507 64.8958 L308.1387 66.6359 L308.1387 68.4916 L312.8374 66.7129 L307.8532 71.6023 L308.4493 72.7034 L314.0847 80.4723 L312.8023 82.4896 L304.6673 86.6627 L302.1276 67.1595 M312.2112 63.6022 L318.9988 57.5269 L324.1783 56.9956 L324.5791 56.9802 L326.3724 56.9263 L325.4206 64.9882 L329.2527 72.2491 L337.002 78.3549 L335.7597 78.4704 L332.7842 76.6071 L326.3874 73.0884 L323.8878 74.3896 L326.147 71.1788 L321.4283 65.2038 L321.4132 62.0699 L312.2112 63.6022 M315.2769 304.4092 L316.4641 304.4015 L317.6563 304.3938 L317.6413 307.3794 L318.6882 307.8026 L317.9118 305.9866 L320.5266 305.4634 L321.6687 306.5561 L318.1322 310.6728 L315.2769 304.4092 M315.9281 122.0938 L321.4733 121.3547 L323.6073 118.8988 L323.9579 113.8946 L327.6347 113.8946 L327.9002 118.7988 L324.4288 122.1477 L316.419 123.5797 L315.9281 122.0938 M330.9158 166.3319 L330.9273 165.997 L331.1783 165.6275 L331.607 165.3804 L331.7879 165.2318 L332.2147 164.8878 L332.6926 164.8108 L333.1709 164.6568 L333.6478 164.1757 L334.0611 163.68 L334.2008 163.1465 L334.5219 162.7839 L335.107 162.5861 L335.6139 162.2066 L335.7923 161.8779 L336.0778 161.5815 L336.4345 161.3829 L337.1828 161.3544 L337.1994 161.3529 L337.1883 161.3229 L337.4639 161.1689 L340.5075 159.5962 L341.081 159.2998 L342.0984 158.5909 L342.3153 158.4392 L343.3502 157.8572 L344.2153 157.5055 L344.7668 157.6001 L345.7957 157.9773 L346.1319 158.2398 L346.6107 158.022 L346.507 157.9312 L346.9263 157.5917 L348.5929 156.9527 L349.3919 156.758 L354.0284 154.6503 L364.0169 159.8002 L370.4688 157.283 L369.6923 155.4662 L371.0498 155.4662 L387.0955 152.9128 L387.4777 152.2562 L387.8448 151.7858 L388.0502 151.2108 L388.1805 151.0399 L388.2706 150.9621 L388.3969 150.9021 L388.753 150.9329 L389.1082 151.1099 L389.1913 151.4217 L389.275 151.8174 L389.4067 152.0491 L391.1755 152.1476 L391.5221 152.2084 L394.7942 151.688 L394.8212 151.377 L397.7361 150.9567 L399.3912 150.4748 L400.7006 150.3162 L401.3142 150.3586 L401.8973 150.2931 L402.6707 150.1053 L403.5263 149.8274 L404.4209 149.4487 L405.3351 149.0545 L405.3807 149.7781 L421.3377 145.9052 L421.4078 145.8898 L423.9269 150.4086 L424.4504 150.9098 L424.8381 151.4786 L425.026 152.3293 L425.1923 152.6796 L425.7087 153.106 L426.1566 153.6611 L426.7336 154.2507 L427.1835 154.2484 L427.6638 154.1676 L427.8567 153.8112 L428.1783 153.631 L428.5976 153.7072 L428.9076 154.2453 L429.3655 155.5994 L429.5784 157.2506 L430.2391 157.5909 L429.623 159.4061 L429.6365 159.4969 L429.8584 160.3075 L429.4156 162.0742 L428.9928 163.4806 L428.9868 163.8878 L428.2449 164.8885 L425.7308 168.2756 L417.4655 174.4491 L407.0738 177.7899 L406.8119 178.057 L406.7112 177.9069 L402.6181 175.1573 L402.8145 174.6739 L402.7689 174.6 L402.8796 174.2082 L403.1311 173.8933 L403.3144 173.4407 L401.0617 172.5355 L400.5428 172.9619 L400.2673 173.3283 L400.5593 173.6717 L399.6076 175.7885 L400.6345 176.0325 L400.7006 176.0002 L400.7807 176.0679 L402.3576 176.4428 L397.7491 180.4917 L390.8729 180.1684 L390.8213 180.3509 L390.922 180.6434 L390.8369 180.952 L389.9217 181.0721 L388.6729 180.5856 L386.2449 177.9815 L385.1429 176.7322 L384.2863 175.516 L383.7323 174.2728 L383.5424 173.7263 L380.9045 175.0272 L380.8003 175.1712 L380.2423 175.5445 L378.9514 176.0556 L380.2368 177.3804 L380.5514 177.5389 L380.6561 177.8122 L382.7615 179.9837 L381.5923 180.7904 L381.5537 181.4862 L381.1605 181.9735 L380.6711 182.316 L380.2784 182.0312 L379.8852 181.5801 L379.1393 180.9867 L378.2181 180.2146 L377.119 179.2285 L376.0726 178.6066 L374.8308 177.9669 L373.9958 177.5566 L376.3797 179.7758 L372.6127 182.0697 L371.1851 190.7447 L363.6512 191.9993 L363.5199 191.656 L363.3772 191.6807 L362.8948 191.7861 L362.4194 191.7384 L362.0217 191.5506 L361.8924 190.9086 L361.2823 187.3725 L361.906 187.4279 L360.5154 183.7862 L364.4567 180.0922 L365.0828 179.4649 L365.8252 178.3072 L366.2014 177.7745 L366.8306 178.047 L370.4723 176.2996 L369.9453 176.1049 L369.0166 175.7731 L368.8042 175.4914 L369.0717 175.128 L369.8962 174.7147 L371.2482 174.3306 L373.7288 173.5808 L375.4925 173.1967 L375.5587 173.1282 L376.4528 172.8072 L376.4343 172.7087 L376.294 172.7556 L375.4835 171.7064 L375.8046 171.3062 L376.1197 171.0344 L376.0391 170.6772 L396.2964 161.8017 L389.1783 157.0828 L377.642 164.0649 L373.3867 164.897 L373.4337 165.0571 L371.1881 165.5698 L368.4851 165.9246 L367.9246 165.9647 L364.5328 166.6282 L362.8192 168.8667 L362.3834 169.6088 L361.8293 170.3116 L361.2152 170.9621 L360.1903 172.3007 L360.2209 172.3253 L360.547 172.6994 L360.4017 173.1151 L359.9323 173.5254 L359.0317 174.1912 L358.5017 174.5068 L357.7854 175.4421 L352.3644 177.8822 L352.149 178.0231 L351.882 178.2463 L351.7988 178.137 L340.6337 183.1627 L340.5045 182.7394 L340.0341 182.9788 L339.6789 182.5654 L339.0187 181.5678 L338.7562 181.1545 L338.4847 180.5949 L338.0159 179.8444 L337.56 178.9268 L337.9843 178.6312 L339.162 178.0046 L340.7003 177.151 L341.0665 176.4705 L341.2093 175.8208 L341.322 175.5961 L341.3095 175.0318 L341.0615 173.5092 L340.6547 171.8873 L340.539 171.5194 L340.1563 171.8211 L339.5131 172.5316 L339.2602 172.8049 L339.0588 172.955 L338.7026 172.9242 L338.3275 172.527 L338.1386 171.9882 L336.5211 172.3477 L335.9951 170.6849 L335.4692 169.0222 L335.8003 168.946 L335.6721 168.9291 L335.1015 168.8313 L334.541 168.9884 L333.8777 168.9368 L333.211 168.6073 L332.8834 168.1986 L332.6931 167.6944 L332.3564 167.1825 L332.0534 166.7375 L331.2339 166.6367 L330.9158 166.3319 M347.5865 284.0015 L357.1041 281.0003 L358.4817 280.9695 L359.8592 280.9387 L354.3941 285.4944 L347.5865 284.0015 M363.5059 304.7785 L368.2948 301.7005 L374.8969 301.7005 L375.2716 301.6005 L375.1349 301.4135 L375.6684 301.0249 L376.3737 300.8579 L377.1747 300.8279 L377.6044 300.9795 L380.332 300.2538 L380.6726 300.2385 L382.6463 301.6928 L382.3778 304.5754 L382.4013 304.6046 L382.3407 304.9709 L390.1451 305.6942 L393.7968 308.1566 L390.8414 308.626 L386.9241 305.5557 L381.7246 305.548 L374.5112 307.3102 L375.3473 305.9651 L374.6525 305.9582 L373.7719 305.7935 L372.5551 305.6665 L370.9988 305.3749 L370.6291 305.7404 L372.2821 306.1252 L371.5908 307.5641 L369.3267 305.4788 L363.5059 304.7785 M386.6316 270.2803 L386.9843 269.3784 L387.3695 268.862 L388.0728 267.83 L388.2621 267.1235 L389.4213 265.6005 L390.0379 264.7471 L390.4552 264.5916 L390.6625 264.5147 L391.6934 264.7486 L392.1808 264.9595 L395.6092 266.3193 L397.1686 266.8742 L397.3965 267.0974 L396.6706 268.0047 L395.4634 268.9659 L395.4243 268.9967 L395.0942 269.1021 L394.4996 269.5792 L394.434 269.9325 L394.453 270.1495 L394.4571 270.1941 L394.3544 270.4396 L394.0693 270.5073 L392.7499 270.5489 L390.5518 270.5297 L388.4099 270.8106 L387.2227 270.8444 L386.6667 270.6766 L386.6316 270.2803 M399.4933 302.2222 L399.6391 300.8264 L399.825 298.8841 L400.1405 296.3524 L400.375 296.3078 L400.374 296.2909 L400.4641 296.2901 L401.2045 296.1485 L402.9868 295.9169 L403.6676 295.8815 L404.6338 295.7607 L405.0912 295.7614 L406.1256 295.7106 L406.4021 295.6229 L406.8279 295.509 L407.3473 294.1008 L407.4585 293.4029 L407.8257 292.8319 L408.0602 292.5895 L408.5541 291.3736 L410.4977 291.0196 L411.0787 290.9812 L422.8454 302.1468 L420.2206 303.8859 L421.2225 304.3168 L419.344 305.1017 L404.0007 307.1717 L404.0808 304.7785 L400.9701 304.5862 L400.8534 302.9594 L400.4336 302.8925 L399.6336 302.8186 L399.4933 302.2222 M402.4428 105.5181 L403.7752 102.8235 L404.0452 102.534 L403.905 102.1583 L404.3939 101.8149 L404.992 101.2059 L405.1057 101.3968 L405.6788 100.7832 L407.2517 105.1563 L409.9416 98.204 L415.0511 104.2863 L418.1668 98.2579 L431.5916 96.1868 L430.3593 92.4526 L437.3372 91.9522 L440.6784 83.8678 L441.0941 83.8678 L448.5228 85.4693 L451.6486 90.8512 L447.9618 92.7914 L448.2123 96.1868 L445.1416 97.7266 L444.826 101.9612 L446.454 101.9612 L446.6995 97.819 L458.9371 93.6152 L460.6753 97.5341 L461.1662 97.0029 L461.6871 98.4965 L464.5324 101.6686 L464.7328 106.5344 L470.7839 105.2333 L471.4902 107.3505 L472.442 114.934 L475.6128 117.8672 L475.3474 122.9099 L467.057 121.2316 L460.7153 125.9893 L460.9658 128.3605 L454.2835 131.5708 L454.9146 124.5959 L457.5595 124.465 L453.7675 118.383 L450.5265 114.7954 L447.4659 116.1196 L441.2594 113.4019 L438.2539 108.9519 L436.671 110.8612 L430.9053 108.5054 L427.8597 108.5054 L426.4922 111.9699 L424.5736 111.9699 L418.9583 114.0486 L408.0431 111.685 L404.0157 113.0246 L404.2862 108.0126 L404.5667 104.7713 L402.4428 105.5181 M128.1836 343.0045 L128.6274 344.0056 L130.3306 342.5821 L132.0387 341.151 L131.7066 340.3054 L130.1843 341.5072 L130.2629 341.7935 L130.304 342.2551 L128.9861 343.2354 L128.2347 342.9691 L128.1836 343.0045 M160.8849 356.9616 L161.2727 357.1024 L161.4079 357.1224 L164.729 356.77 L165.6097 356.8662 L165.8241 356.7969 L166.4963 356.6461 L167.5683 356.71 L168.6207 356.8585 L169.8936 356.7646 L170.5212 356.5761 L171.0186 356.253 L171.0492 356.9039 L170.9696 357.6402 L170.8754 358.1349 L170.5162 358.535 L170.141 358.9405 L170.0218 359.1951 L170.0954 359.6629 L173.0143 357.6086 L177.5727 354.1771 L175.5761 353.0554 L175.2429 352.9907 L174.6824 352.6868 L174.4224 352.4945 L174.3498 352.3667 L173.6225 351.9582 L173.5864 352.049 L173.0349 352.0013 L172.3416 351.6889 L171.2756 351.305 L171.1614 350.6487 L171.1669 350.5786 L169.9146 349.8754 L169.88 350.0347 L169.8059 350.5209 L169.6286 351.0157 L167.8072 350.2424 L167.9871 349.3922 L167.8939 348.7398 L167.3789 348.4505 L167.0057 348.6397 L166.6751 349.0521 L166.4041 349.3476 L166.4973 350.2347 L165.8797 350.1447 L165.4564 350.1255 L165.4604 350.3763 L164.7811 350.3363 L164.718 350.4017 L164.3473 350.4355 L163.6956 350.3547 L163.1747 350.2416 L162.7379 350.2155 L162.0877 350.264 L161.443 350.3355 L161.0322 350.1147 L161.4515 351.1819 L161.4926 351.1996 L162.0867 351.7227 L162.0055 352.0567 L161.8377 352.1636 L162.6201 354.1541 L160.8849 356.9616 M165.4909 114.5829 L165.6638 115.2565 L165.7053 115.5606 L166.7528 114.8801 L165.4909 114.5829 M175.4408 346.867 L175.9012 346.9278 L176.0089 346.2253 L175.7148 346.113 L175.4408 346.867 M239.9975 346.867 L240.4037 347.0855 L241.2037 347.1586 L242.2341 347.3925 L242.5787 347.2163 L242.6293 347.0471 L239.9975 346.867 M245.5863 344.8034 L245.6339 345.092 L245.6083 344.8042 L245.5863 344.8034 M337.3141 168.5966 L337.6382 168.5219 L337.6833 168.1647 L337.3637 168.3187 L337.3141 168.5966 M364.1206 317.0903 L364.5153 318.9247 L364.5203 318.9247 L365.8938 318.9263 L366.1213 319.2256 L367.7483 318.9063 L368.1575 318.2091 L369.4784 317.8759 L371.0889 317.7051 L372.733 317.1088 L366.6357 317.0957 L365.6714 317.2858 L365.5888 317.0934 L364.1206 317.0903 M389.5846 152.5171 L390.076 152.4386 L389.5901 152.4163 L389.5846 152.5171 M426.6164 155.2122 L427.0232 155.9358 L427.5361 156.1999 L427.2761 155.0721 L426.6164 155.2122" stroke-dasharray="" fill="none" fill-opacity="1.0" stroke="#ff0000" stroke-opacity="1.0" stroke-width="1.0px" stroke-linecap="butt" stroke-linejoin="miter" stroke-dashoffset="0.0px"/>
</g>
</svg>