<?xml version="1.0" standalone="no"?>
<!DOCTYPE svg PUBLIC "-//W3C//DTD SVG 1.1//EN" "http://www.w3.org/Graphics/SVG/1.1/DTD/svg11.dtd">
<svg width="512px" height="512px" version="1.1" xmlns="http://www.w3.org/2000/svg" xmlns:inkscape="http://www.inkscape.org/namespaces/inkscape">
<g id="layer" inkscape:groupmode="layer" inkscape:label="layer">
<path d="M35.6327 175.6021 L35.7915 178.2755 L37.1254 178.1765 L38.6816 187.5828 L37.3795 187.7808 L37.8241 190.3552 L39.1263 190.1077 L43.0963 213.97 L41.7624 214.168 L42.1435 216.8414 L43.5409 216.5444 L47.4792 240.3077 L46.1453 240.5057 L46.5581 243.0801 L47.9556 242.8821 L51.8938 266.5958 L50.4964 266.8434 L50.9728 269.5168 L52.3702 269.2197 L56.3085 292.884 L54.8475 293.082 L55.3239 295.8049 L56.7849 295.5573 L57.1343 297.7356 L104.4568 289.1215 L105.8542 296.8445 L107.601 296.5475 L142.0925 512.0 L156.448 509.7722 L152.9862 487.1973 L215.8711 475.8108 L220.3175 499.7224 L289.2369 488.9795 L284.3776 457.939 L330.3662 450.6121 L334.7809 481.8506 L354.3769 478.8307 L351.5502 466.7017 L365.2706 464.5729 L366.795 476.6525 L411.8626 469.5235 L406.1458 433.7799 L423.0104 431.255 L428.8225 466.8007 L476.3673 459.3747 L467.9191 396.1549 L437.1436 399.9669 L436.7307 397.6896 L438.0647 397.5411 L437.6518 394.9667 L436.3179 395.1648 L432.3478 371.3521 L433.65 371.1541 L433.2371 368.5302 L431.9032 368.7282 L427.9332 345.0146 L429.2036 344.8165 L428.759 342.1432 L427.4568 342.3907 L423.455 318.7265 L424.7889 318.5285 L424.3443 315.8551 L423.0421 316.1026 L419.0721 292.3889 L420.3743 292.1414 L419.8979 289.468 L418.6275 289.7155 L414.8798 267.5365 L416.182 267.2394 L415.2927 261.8927 L413.9588 262.0907 L410.2111 239.8621 L411.5768 239.6641 L411.1004 237.0402 L409.7664 237.1888 L405.7964 213.5245 L407.0986 213.3264 L406.6857 210.653 L405.3835 210.9006 L401.3182 187.1372 L402.6839 186.8897 L402.2711 184.2658 L400.9054 184.4639 L396.9354 160.7995 L398.2693 160.6015 L397.8564 157.9281 L396.4907 158.1756 L392.7113 135.7984 L394.077 135.6004 L393.1877 130.2536 L391.822 130.5011 L388.1061 108.3219 L389.4717 108.0249 L389.0589 105.5 L387.6614 105.7971 L383.6596 82.0831 L385.0888 81.7861 L384.6124 79.1622 L383.2468 79.4097 L379.245 55.5967 L380.6107 55.2997 L380.166 52.6758 L378.7686 52.9234 L374.7986 29.2093 L376.196 29.0113 L375.7831 26.3874 L374.3539 26.635 L370.3839 2.9209 L371.7814 2.6239 L371.3685 0.0 L368.5736 0.3961 L368.8277 1.6833 L341.6093 6.1389 L341.4505 4.7527 L338.7509 5.1983 L338.9732 6.535 L312.3583 10.8916 L312.1677 9.5549 L309.4681 10.0005 L309.7222 11.2877 L283.1707 15.5948 L282.9484 14.2581 L280.3759 14.6542 L280.6299 16.0404 L253.9832 20.3475 L253.7609 19.0603 L251.0931 19.5059 L251.2836 20.7931 L226.0344 24.8527 L225.8756 23.615 L220.3811 24.5062 L220.5399 25.7438 L195.5764 29.8034 L195.3541 28.5658 L192.718 29.0113 L192.8768 30.249 L166.3889 34.5561 L166.2937 33.3185 L163.594 33.7145 L163.8164 34.9522 L137.2332 39.2593 L137.0426 38.0712 L134.4383 38.4672 L134.5653 39.7049 L108.0774 44.012 L107.9186 42.7744 L105.2825 43.2199 L105.5049 44.4576 L88.6403 47.131 L88.2591 45.9428 L85.5595 46.7844 L84.2256 49.1608 L85.4007 49.8044 L75.6504 75.1026 L74.38 74.657 L73.4272 77.1324 L74.6658 77.6275 L64.4708 104.1138 L63.2322 103.6188 L62.2476 106.0941 L63.4863 106.5892 L53.3548 132.828 L52.0844 132.3329 L51.0998 134.8578 L52.402 135.3033 L42.207 161.7401 L40.9049 161.2451 L39.9838 163.7204 L41.2542 164.2155 L37.6653 173.4733 L36.3949 173.0772 L35.6327 175.6021" stroke-dasharray="" fill="none" fill-opacity="1.0" stroke="#ff0000" stroke-opacity="1.0" stroke-width="1.0px" stroke-linecap="butt" stroke-linejoin="miter" stroke-dashoffset="0.0px"/>
</g>
</svg>