<?xml version="1.0" standalone="no"?>
<!DOCTYPE svg PUBLIC "-//W3C//DTD SVG 1.1//EN" "http://www.w3.org/Graphics/SVG/1.1/DTD/svg11.dtd">
<svg width="512px" height="512px" version="1.1" xmlns="http://www.w3.org/2000/svg" xmlns:inkscape="http://www.inkscape.org/namespaces/inkscape">
<g id="94b69b98-2d3a-4cef-866b-5cc06b92d8b4" inkscape:groupmode="layer" inkscape:label="94b69b98-2d3a-4cef-866b-5cc06b92d8b4">
<path d="M476.0348 538.0646 L481.2679 538.0646 L483.8844 533.5326 L483.8844 524.4687 L491.2 511.7977 L491.734 501.8089 L491.4546 501.325 L497.768 473.2299 L499.5836 470.0851 L512.6663 447.4252 L518.7376 442.8933 L523.1324 438.3613 L520.5159 433.8293 L515.2828 433.8293 L504.8167 424.7654 L496.9671 420.2334 L489.1175 415.7015 L481.2679 411.1695 L476.0348 411.1695 L475.6322 411.8669 L468.1852 424.7654 L465.5687 429.2974 L452.486 433.8293 L444.6364 438.3613 L442.0199 442.8933 L442.1622 443.1398 L437.9923 461.0211 L434.1703 465.5531 L435.8088 468.3911 L436.7868 470.0851 L428.9372 501.8089 L426.3207 506.3408 L431.2121 510.8728 L436.7868 524.4687 L440.3598 524.4687 L452.486 524.4687 L457.7191 524.4687 L468.1852 533.5326 L476.0348 538.0646" stroke-dasharray="" fill="#374c70" fill-opacity="0.0" stroke="#ff0000" stroke-opacity="1.0" stroke-width="2.0px" stroke-linecap="butt" stroke-linejoin="miter" stroke-dashoffset="0.0px"/>
<path d="M476.0348 538.0646 L481.2679 538.0646 L483.8844 533.5326 L483.8844 524.4687 L491.2 511.7977 L491.734 501.8089 L491.4546 501.325 L497.768 473.2299 L499.5836 470.0851 L512.6663 447.4252 L518.7376 442.8933 L523.1324 438.3613 L520.5159 433.8293 L515.2828 433.8293 L504.8167 424.7654 L496.9671 420.2334 L489.1175 415.7015 L481.2679 411.1695 L476.0348 411.1695 L475.6322 411.8669 L468.1852 424.7654 L465.5687 429.2974 L452.486 433.8293 L444.6364 438.3613 L442.0199 442.8933 L442.1622 443.1398 L437.9923 461.0211 L434.1703 465.5531 L435.8088 468.3911 L436.7868 470.0851 L428.9372 501.8089 L426.3207 506.3408 L431.2121 510.8728 L436.7868 524.4687 L440.3598 524.4687 L452.486 524.4687 L457.7191 524.4687 L468.1852 533.5326 L476.0348 538.0646" stroke-dasharray="" fill="#374c70" fill-opacity="0.0" stroke="#0000ff" stroke-opacity="1.0" stroke-width="2.0px" stroke-linecap="butt" stroke-linejoin="miter" stroke-dashoffset="0.0px"/>
</g>
</svg>