<?xml version="1.0" standalone="no"?>
<!DOCTYPE svg PUBLIC "-//W3C//DTD SVG 1.1//EN" "http://www.w3.org/Graphics/SVG/1.1/DTD/svg11.dtd">
<svg width="512px" height="512px" version="1.1" xmlns="http://www.w3.org/2000/svg" xmlns:inkscape="http://www.inkscape.org/namespaces/inkscape">
<g id="layer" inkscape:groupmode="layer" inkscape:label="layer">
<path d="M85.6292 10.3465 L88.3587 30.2211 L96.1733 29.1689 L98.6785 47.4067 L90.8639 48.4589 L91.1256 50.2125 L98.9029 49.1019 L101.408 67.7489 L93.6682 68.8011 L93.8925 70.5547 L101.6324 69.5025 L108.8862 122.1701 L101.0715 123.1638 L103.5019 141.0508 L111.2792 139.9987 L113.5226 156.3659 L105.7454 157.4765 L108.6992 178.9293 L116.4765 177.8771 L116.7382 179.6892 L124.5155 178.5785 L127.245 198.6284 L119.5425 199.6805 L122.459 220.8994 L130.2737 219.8473 L132.8536 239.0787 L122.459 240.5985 L120.2904 248.7236 L120.8512 265.4415 L127.8433 280.6396 L130.6102 280.2889 L136.1066 320.9144 L143.9213 319.8038 L146.6508 339.7366 L138.7988 340.7888 L139.0605 342.8347 L131.3954 343.8869 L134.3119 365.2226 L142.1265 364.1704 L144.37 380.479 L136.5553 381.5312 L138.9857 399.5935 L146.5386 398.5413 L154.0542 451.1497 L146.2769 452.2019 L146.5386 454.1309 L154.3159 453.0202 L156.8585 471.6085 L149.0812 472.6607 L149.343 474.4727 L157.1202 473.3621 L159.7002 491.3074 L151.8481 492.418 L154.6524 512.0 L218.1793 503.1735 L217.0576 495.3407 L228.8356 493.6456 L229.92 501.7122 L231.7147 501.5953 L230.7052 493.7625 L252.0179 492.7103 L252.4292 500.6015 L298.3076 498.2634 L297.8963 490.3722 L314.8343 489.5538 L315.2082 497.3866 L316.7786 497.2697 L316.4047 489.4369 L336.9322 488.3847 L337.3435 496.2175 L339.1757 496.1591 L338.7644 488.1509 L350.6546 487.6248 L350.9911 495.5161 L415.2284 492.418 L415.6023 472.6022 L407.7503 472.4269 L408.1616 453.8386 L416.0136 454.0139 L416.0136 452.4357 L408.1616 452.3188 L408.5729 433.672 L416.4249 433.7889 L416.4249 432.0353 L408.6476 431.86 L408.9842 415.7852 L411.265 416.0774 L413.8449 392.6374 L417.2849 392.9882 L419.4162 372.5293 L411.1154 371.6525 L412.9476 354.9347 L421.2483 355.8699 L421.4353 353.9994 L417.584 353.5902 L419.117 339.5028 L422.9309 339.912 L423.1926 337.8661 L414.8545 336.9308 L417.8084 309.2236 L426.1465 310.1589 L426.3708 308.2299 L404.572 305.8333 L403.899 303.4951 L402.8521 301.2739 L401.506 299.228 L399.8234 297.4744 L397.9165 295.9546 L395.7852 294.7855 L393.467 293.9671 L391.074 293.4995 L388.6436 293.441 L386.2132 293.7333 L383.895 294.4348 L381.6889 295.4869 L379.6698 296.8898 L377.9125 298.585 L376.4542 300.514 L375.2951 302.6768 L352.5242 300.2217 L339.5496 420.2277 L292.2877 422.6243 L292.5494 427.8851 L269.7411 428.9957 L269.4794 423.7349 L219.7871 426.2484 L206.4386 333.3067 L214.328 332.1961 L208.869 292.4473 L213.0941 259.9468 L204.5691 261.1159 L201.6152 238.4941 L209.7664 237.2666 L197.2779 207.6303 L191.5571 167.5307 L183.8172 168.6413 L174.1704 95.924 L176.0773 95.6317 L174.993 87.8573 L192.5666 85.4022 L193.6136 93.2351 L195.184 93.0013 L194.0997 85.1684 L210.7385 82.8886 L211.7855 90.7215 L238.7816 86.922 L237.6598 79.1475 L254.4483 76.8094 L255.4952 84.6423 L257.0656 84.4085 L255.9813 76.5755 L273.4428 74.1789 L274.5271 82.0118 L278.4157 81.4857 L277.3314 73.6528 L294.3442 71.2562 L295.4285 79.0306 L329.4541 74.3543 L329.828 77.1601 L331.1741 76.9847 L330.8001 74.1789 L345.233 72.1915 L346.0182 77.8615 L375.7812 73.7113 L380.8663 66.9305 L378.249 47.6405 L381.3524 47.1729 L381.0907 45.127 L377.9499 45.5362 L375.4821 27.5321 L378.6229 27.123 L378.3612 25.2524 L375.2203 25.7201 L372.603 6.0208 L365.7979 0.8768 L336.147 4.9686 L336.8574 10.1711 L314.9091 13.2108 L314.1987 8.0083 L267.1985 14.4968 L266.1516 6.8392 L226.4426 12.3339 L227.1531 17.5364 L204.4569 20.693 L203.7465 15.4905 L163.8506 20.9852 L160.9715 0.0 L85.6292 10.3465" stroke-dasharray="" fill="none" fill-opacity="1.0" stroke="#ff0000" stroke-opacity="1.0" stroke-width="1.0px" stroke-linecap="butt" stroke-linejoin="miter" stroke-dashoffset="0.0px"/>
</g>
</svg>