<?xml version="1.0" standalone="no"?>
<!DOCTYPE svg PUBLIC "-//W3C//DTD SVG 1.1//EN" "http://www.w3.org/Graphics/SVG/1.1/DTD/svg11.dtd">
<svg width="512px" height="512px" version="1.1" xmlns="http://www.w3.org/2000/svg" xmlns:inkscape="http://www.inkscape.org/namespaces/inkscape">
<g id="layer" inkscape:groupmode="layer" inkscape:label="layer">
<path d="M0.0 293.1914 L6.6552 311.9362 L4.0017 312.9979 L4.3013 313.8605 L3.6807 314.9553 L3.2313 316.1165 L3.0173 317.344 L2.9959 318.5715 L3.2313 319.8323 L3.6593 320.9934 L4.3013 322.0551 L5.1144 323.0172 L6.0774 323.7803 L7.1688 324.3775 L8.3457 324.7756 L8.6453 325.605 L11.5984 324.5433 L18.275 343.6863 L21.0569 342.6578 L27.1557 342.0274 L36.015 337.0509 L39.1179 336.2215 L37.9196 332.8043 L71.3453 320.5953 L71.8161 321.8229 L73.5066 321.1593 L81.0606 320.4626 L89.0853 315.5193 L91.0327 314.8226 L90.6689 313.5287 L124.0732 301.3529 L125.293 304.6373 L127.8181 303.7084 L132.0766 303.6089 L136.228 302.5804 L140.0371 300.6561 L141.7705 299.4286 L143.354 297.9688 L145.9219 297.2058 L145.0018 294.054 L194.9692 284.8308 L196.8523 298.566 L208.3865 297.4048 L206.8244 285.8925 L208.6005 285.8593 L209.7347 286.7219 L210.9758 287.3855 L212.324 287.8499 L213.715 288.049 L215.1487 288.049 L216.5397 287.8499 L217.8878 287.3855 L219.1504 286.7551 L220.2845 285.8925 L233.9587 285.9257 L234.0871 288.1485 L246.7769 288.0822 L251.121 295.9782 L260.9004 295.945 L265.0947 288.2149 L277.7845 288.2149 L277.7845 285.992 L291.4587 286.1247 L292.5714 286.9542 L293.8126 287.5845 L295.1179 288.0158 L296.4661 288.248 L297.8571 288.248 L299.2266 288.049 L300.532 287.6177 L301.7731 287.0205 L302.8859 286.2243 L304.662 286.2243 L303.8061 297.6702 L315.1477 298.566 L316.0251 287.12 L367.1694 294.054 L366.0995 297.2721 L368.5604 298.2342 L373.846 301.7841 L384.2033 303.7416 L386.7284 304.6373 L387.884 301.2865 L421.4809 313.4955 L421.0957 314.7562 L423.043 315.4861 L426.3171 318.1403 L430.1048 319.9981 L434.1921 320.9603 L436.2892 321.1262 L438.3864 321.0266 L440.3551 321.7565 L440.8045 320.4626 L474.0804 332.5057 L472.989 335.9229 L475.7924 336.9182 L480.9924 340.4681 L491.1999 342.4919 L494.0032 343.4872 L501.1077 325.0078 L503.4403 325.7709 L503.7827 324.9415 L505.0452 324.5433 L506.2008 323.913 L507.2494 323.1167 L508.1267 322.1214 L508.8115 320.9934 L509.2823 319.7659 L509.5391 318.472 L509.5605 317.145 L509.3679 315.8179 L508.9185 314.5903 L508.2765 313.4292 L508.6189 312.5997 L506.2008 311.6376 L512.0 292.7601 L492.2056 285.793 L493.1686 283.1388 L486.9628 280.9492 L481.3134 297.1726 L486.492 298.9641 L484.1595 305.7322 L450.3914 293.49 L456.319 278.0296 L453.2161 276.9348 L452.2959 275.7072 L451.2259 274.6124 L448.7222 272.8872 L447.3099 272.29 L445.8333 271.8587 L444.314 271.6265 L442.7946 271.5933 L441.2753 271.7592 L439.7773 272.1242 L436.653 271.0293 L431.0892 286.0584 L397.6421 274.2475 L405.1318 254.0428 L384.4387 246.7439 L377.0987 266.2187 L365.9497 262.5361 L349.1084 259.517 L349.9858 254.8391 L353.1743 255.4031 L356.0418 239.8763 L334.9849 235.9946 L332.1602 251.5545 L335.2203 252.1186 L334.3643 256.7965 L318.272 253.9765 L308.7707 253.711 L310.3329 250.3934 L310.7822 248.6018 L311.0176 246.7771 L311.0176 244.9192 L310.7822 243.0945 L309.6267 239.6109 L308.7493 237.9852 L307.6579 236.5255 L306.3954 235.1652 L304.876 235.1984 L304.8974 233.4068 L289.8751 233.1414 L289.8751 234.9661 L268.1334 235.0988 L268.8396 212.1405 L271.9425 212.2732 L276.5433 207.6948 L276.6075 204.543 L315.5543 203.614 L315.4473 174.7832 L290.7097 174.6505 L290.6027 173.1576 L229.2937 174.5178 L229.3151 168.4133 L216.5397 168.3137 L216.4969 174.4515 L196.5527 174.3188 L196.3815 203.2822 L235.4781 204.4766 L235.6493 207.4625 L240.2073 212.1073 L244.2304 212.3063 L244.5728 235.2647 L222.4459 235.0988 L222.5315 233.3405 L207.7659 233.4732 L207.6803 235.2647 L205.8828 235.3311 L205.8614 236.1937 L203.5717 238.8478 L202.7157 240.374 L202.0737 241.9996 L201.4317 245.4168 L201.4531 247.1752 L202.1807 250.5924 L203.7857 253.6779 L194.263 253.4788 L145.8363 261.773 L134.5803 266.1523 L127.6255 247.0425 L107.3818 254.3746 L114.2723 274.3802 L80.7396 286.556 L75.2614 271.5601 L72.4795 272.5886 L71.0029 272.2237 L69.4836 272.0578 L67.9642 272.091 L64.9897 272.7213 L63.5774 273.3517 L61.0736 275.0769 L60.0037 276.1717 L59.1049 277.3993 L56.3016 278.4277 L61.7584 293.0919 L27.8833 305.7985 L20.7573 285.8925 L0.0 293.1914" stroke-dasharray="" fill="none" fill-opacity="1.0" stroke="#ff0000" stroke-opacity="1.0" stroke-width="1.0px" stroke-linecap="butt" stroke-linejoin="miter" stroke-dashoffset="0.0px"/>
</g>
</svg>