<?xml version="1.0" standalone="no"?>
<!DOCTYPE svg PUBLIC "-//W3C//DTD SVG 1.1//EN" "http://www.w3.org/Graphics/SVG/1.1/DTD/svg11.dtd">
<svg width="512px" height="512px" version="1.1" xmlns="http://www.w3.org/2000/svg" xmlns:inkscape="http://www.inkscape.org/namespaces/inkscape">
<g id="layer" inkscape:groupmode="layer" inkscape:label="layer">
<path d="M0.0 175.5603 L14.0607 224.4293 L15.9985 229.2463 L25.0147 228.248 L23.0929 221.3095 L26.5521 220.3361 L28.6339 227.8487 L42.5025 226.3012 L39.8281 216.6173 L42.4064 215.8935 L45.241 226.0017 L55.2341 224.8786 L54.2892 212.574 L63.6737 210.153 L66.9567 222.832 L75.5725 220.3361 L72.0173 207.6072 L75.2682 206.7087 L78.7754 219.3877 L97.0479 214.0715 L93.5728 201.5672 L98.3291 200.2694 L101.7882 212.6738 L119.4042 207.5573 L115.9931 195.3026 L120.5733 194.0297 L123.9844 206.2095 L139.9668 201.5672 L134.57 191.0846 L138.99 188.7884 L147.2534 199.4208 L159.1522 195.9515 L151.9617 182.0495 L163.7644 175.9347 L172.8607 188.7135 L186.0086 180.2276 L178.2415 165.2523 L182.8217 162.8812 L190.3485 177.4571 L206.0908 167.3239 L199.3647 154.2954 L203.8648 151.9493 L210.3827 164.5535 L226.3651 154.2455 L220.664 143.2137 L223.8028 141.5914 L229.3438 152.3487 L236.9187 147.4817 L231.762 137.4732 L235.0931 135.7511 L240.0896 145.4101 L251.7161 137.9225 L247.3121 129.3616 L249.7303 128.1386 L254.0062 136.4499 L262.67 130.6844 L260.6522 122.448 L269.6524 117.7807 L272.9033 124.0454 L281.5672 119.8523 L278.2041 113.363 L280.5743 112.0901 L283.9373 118.6044 L299.5515 110.5427 L296.1884 104.0034 L300.6565 101.6823 L304.0355 108.2215 L321.4273 99.0865 L318.0803 92.6222 L320.9789 91.1247 L324.406 97.7388 L332.2691 91.2994 L339.1233 99.8852 L335.5201 105.8753 L344.0238 122.1236 L352.047 115.8589 L354.3371 118.804 L345.8014 125.518 L350.0132 133.6046 L360.2144 126.2168 L362.0401 128.6877 L351.6947 136.7744 L360.2945 153.2472 L373.2503 143.1139 L375.6364 146.1589 L362.1202 156.7414 L365.0508 162.3571 L379.0956 154.57 L380.8411 157.6649 L366.5562 165.2523 L371.7289 175.0861 L384.6846 164.4536 L385.8537 166.5502 L373.3463 178.2059 L378.1507 187.3907 L392.7559 178.755 L394.6136 182.0246 L379.4319 189.8616 L383.6116 197.8733 L402.5088 195.8018 L406.7046 203.7885 L409.1708 202.4907 L419.7884 222.208 L420.429 225.7771 L402.0283 232.7905 L408.0498 246.942 L423.0554 243.0734 L424.3526 248.5643 L410.1477 251.8838 L415.6086 264.7374 L427.3313 261.2682 L428.148 264.7374 L416.6816 267.2582 L421.5981 278.8639 L431.0787 277.1418 L431.5911 279.2383 L433.2887 286.4014 L426.5305 290.4696 L429.3971 297.2583 L437.5165 295.2617 L437.9969 297.2084 L430.1979 299.1302 L431.8634 303.0237 L435.5147 317.8491 L442.6411 316.102 L443.6981 320.3449 L436.5076 322.1169 L441.1358 340.5113 L446.869 339.1386 L452.5862 363.5728 L437.8048 368.3398 L436.0912 361.4014 L407.0569 370.2866 L402.5088 358.5562 L392.82 360.453 L378.9034 362.824 L373.6826 363.6726 L363.1931 365.5445 L340.3244 369.5628 L343.8156 383.7391 L336.9133 385.4362 L333.278 370.7109 L315.1656 373.8806 L319.0892 389.8539 L314.7332 390.9271 L310.7296 374.6044 L292.6172 377.7491 L296.9251 395.3447 L292.1848 396.4928 L288.1171 379.9704 L271.2859 388.2815 L274.3767 400.9104 L262.2697 403.9054 L259.8355 393.9221 L246.6715 400.4362 L248.3851 407.3496 L243.3565 408.5725 L241.675 401.7589 L223.8669 406.1766 L225.5484 412.9652 L221.1925 414.0384 L219.5269 407.2498 L201.7188 411.6424 L203.3683 418.456 L196.0977 420.253 L199.6209 434.6539 L197.3629 435.2029 L199.2205 442.7653 L201.4946 442.2162 L206.331 461.9581 L244.1413 452.8484 L248.4492 471.2425 L299.2152 459.3624 L294.603 439.5956 L362.0561 422.5741 L412.8381 410.694 L512.0 386.3098 L507.9804 372.2084 L496.6261 324.2883 L482.213 267.1584 L470.7626 219.2379 L467.2715 204.4125 L447.4935 169.7449 L423.0874 126.9656 L401.2436 93.371 L394.5976 83.9115 L365.7875 40.7575 L262.2216 64.3687 L216.5162 88.0298 L159.6006 117.4063 L114.1835 141.6913 L106.9129 145.1855 L49.613 161.2839 L0.0 175.5603" stroke-dasharray="" fill="none" fill-opacity="1.0" stroke="#ff0000" stroke-opacity="1.0" stroke-width="1.0px" stroke-linecap="butt" stroke-linejoin="miter" stroke-dashoffset="0.0px"/>
</g>
</svg>