<?xml version="1.0" standalone="no"?>
<!DOCTYPE svg PUBLIC "-//W3C//DTD SVG 1.1//EN" "http://www.w3.org/Graphics/SVG/1.1/DTD/svg11.dtd">
<svg width="512px" height="512px" version="1.1" xmlns="http://www.w3.org/2000/svg" xmlns:inkscape="http://www.inkscape.org/namespaces/inkscape">
<g id="layer" inkscape:groupmode="layer" inkscape:label="layer">
<path d="M40.7968 241.7685 L41.7025 242.9819 L42.787 243.7443 L47.5403 242.0378 L52.338 239.6869 L53.8023 238.8393 L54.0973 238.9851 L54.0721 239.861 L54.1165 241.9718 L59.043 239.8411 L65.4652 236.6349 L65.4015 236.4117 L64.168 236.3933 L63.5957 235.6846 L62.8062 234.4382 L64.0049 233.9136 L67.8741 232.1425 L68.6616 232.2445 L69.3456 234.0501 L69.7426 233.9373 L75.1222 230.2625 L75.1767 229.227 L78.7737 226.2924 L80.722 224.8342 L82.3844 223.363 L83.7467 221.987 L86.2673 219.603 L87.4973 218.5851 L88.0175 218.1226 L87.4685 215.5215 L87.2659 213.7872 L87.1214 211.1769 L87.0543 210.6468 L87.2083 209.6834 L87.6417 207.2847 L88.5186 203.1517 L88.9136 200.974 L89.4238 198.2769 L89.4627 197.5543 L89.742 196.8225 L90.1946 194.5772 L90.7149 192.1401 L91.7843 187.2268 L92.3818 184.4813 L92.401 183.7878 L93.1042 180.5313 L93.5472 178.3251 L93.9134 176.3796 L94.4816 174.616 L95.2717 172.8147 L96.5915 169.8666 L97.9958 166.5019 L97.6518 166.3753 L97.0926 167.7815 L96.5729 168.2632 L96.3223 169.2843 L95.8404 170.4212 L94.2993 172.0207 L93.432 173.5619 L92.9698 175.0648 L91.6787 174.1396 L91.1776 174.7372 L91.9292 175.2189 L92.0101 175.7805 L91.8136 176.3558 L91.1923 176.7041 L91.2195 177.0992 L91.7918 177.5349 L92.6773 177.9438 L93.2905 178.0121 L93.1405 178.625 L92.6228 179.5924 L92.0782 180.1785 L91.165 179.8102 L90.9473 179.3883 L90.4432 178.8843 L86.7916 178.7071 L84.2988 178.9794 L82.1869 179.2794 L80.579 179.2656 L81.0286 178.421 L80.9064 177.9438 L81.8191 176.8537 L82.3233 177.3853 L83.5492 177.5219 L85.0343 177.4805 L86.9002 176.7601 L89.6668 175.1399 L89.8779 175.5895 L90.3138 176.1487 L90.6881 176.0873 L90.8245 175.8211 L90.6134 175.3171 L90.4022 174.9765 L89.7506 174.527 L90.0795 173.8511 L91.6014 172.0016 L93.7401 169.5927 L95.648 167.1846 L96.5921 166.3753 L97.1699 164.6799 L97.8059 164.0048 L98.9813 164.0822 L100.2052 161.3327 L100.7093 160.2671 L101.2135 159.075 L102.058 156.752 L102.8278 154.4704 L103.538 152.5294 L103.1774 151.885 L103.5229 150.3422 L103.9462 149.252 L105.0352 146.9496 L104.5806 146.4441 L104.4377 146.1119 L103.9992 146.2753 L103.1471 146.7087 L101.7949 147.4529 L101.0225 147.937 L101.0902 148.8623 L100.9038 149.799 L99.4233 150.4664 L98.3363 150.6567 L98.0746 150.3406 L97.816 150.2808 L97.4053 150.4902 L96.3789 151.1692 L95.8025 151.5236 L95.6828 151.463 L95.6419 151.0825 L95.1944 150.9866 L94.8635 150.613 L94.0174 150.9191 L88.3903 153.6786 L84.1063 155.9978 L81.5782 157.3772 L78.5126 158.9238 L76.483 160.2388 L75.4611 161.0627 L74.463 161.8513 L73.0153 163.1271 L71.0877 164.8364 L67.6064 168.1474 L60.4392 174.6106 L59.684 175.3954 L58.3692 176.5599 L56.3648 178.4869 L55.7945 179.3392 L55.2288 180.2114 L54.4863 181.4649 L54.4186 181.7242 L54.4999 182.5757 L53.9549 183.3858 L53.0416 184.0179 L52.0071 185.9948 L50.4331 189.2849 L47.9833 194.1514 L47.8449 194.4997 L47.7534 195.5782 L48.0424 196.1996 L47.8676 197.0219 L44.9389 202.2005 L45.0955 202.782 L44.1691 203.2039 L43.4614 203.6979 L43.1083 204.9927 L42.9835 206.4057 L43.5033 206.7363 L44.4378 206.0912 L45.4394 206.072 L46.5088 206.0812 L47.1932 205.5189 L49.1774 204.0484 L50.1604 203.1333 L50.7867 202.3302 L50.9408 202.6616 L51.2201 203.095 L51.6217 203.5429 L52.2314 204.0484 L52.8961 204.636 L53.4937 205.2719 L53.7119 205.6816 L53.9847 206.3221 L54.3509 207.7672 L54.5822 208.2973 L54.5696 208.8128 L54.3317 209.3183 L53.821 209.7133 L52.9926 210.06 L51.5666 210.6092 L50.6806 211.1393 L50.3882 211.5389 L50.2659 212.0927 L50.2467 212.642 L50.7382 214.9055 L51.4626 217.8602 L52.1657 220.4713 L52.4597 221.4585 L52.5077 222.6819 L52.9173 223.2986 L52.9219 224.1784 L52.2718 224.3318 L51.5166 226.5463 L50.8387 228.6571 L50.4417 229.6619 L49.6588 230.2694 L48.0813 231.4207 L51.5868 232.6158 L52.9163 233.425 L55.2283 234.9667 L53.8215 235.6217 L50.9317 236.8743 L48.4076 238.1268 L46.1148 239.321 L43.3018 240.5352 L40.7968 241.7685 M87.7332 210.0569 L89.3566 224.3947 L90.6038 232.6135 L91.6403 235.723 L92.1722 236.8152 L99.0626 232.3059 L100.7432 234.9383 L93.5168 239.6439 L96.3354 245.6335 L97.4942 248.4108 L98.1943 252.9766 L104.8327 251.0162 L107.7735 255.974 L106.2329 258.5226 L110.8215 265.5197 L124.5669 271.0271 L133.4839 273.6938 L139.3914 278.2464 L142.1009 281.2811 L136.3273 292.6506 L140.5294 296.7804 L139.9329 303.2299 L141.1795 304.5305 L139.8617 307.0129 L139.8516 307.6065 L141.075 308.2921 L142.0787 309.5398 L142.9348 310.947 L143.5466 312.2384 L140.6825 316.1716 L140.0708 317.2145 L139.5793 318.0512 L137.779 321.0856 L132.108 330.2723 L131.6412 331.0146 L131.6776 331.2715 L132.6202 332.3236 L133.4607 333.0873 L133.5622 333.266 L131.0432 336.7427 L130.6194 337.472 L130.6684 337.6553 L130.9558 337.8393 L132.063 338.4688 L133.8315 339.5524 L137.5421 341.8436 L137.7684 341.862 L138.1841 341.4149 L138.068 340.9748 L138.4044 340.8153 L138.9428 340.9073 L139.1019 341.1887 L138.9858 341.4947 L139.7015 342.3205 L140.0627 342.9938 L140.7234 343.4217 L140.9739 343.4646 L142.3605 341.2501 L145.9666 335.67 L148.3392 332.1035 L149.1661 330.9226 L150.6163 331.6442 L151.277 332.1342 L151.6255 332.2131 L151.9988 332.4463 L152.0968 332.6541 L152.262 332.7883 L152.7025 332.8987 L153.0449 332.9355 L152.9656 333.223 L152.6166 333.6571 L152.5004 334.0428 L152.5434 334.2813 L152.8247 334.887 L153.3021 335.548 L153.742 336.2037 L153.8956 336.1776 L153.9749 335.6945 L154.0729 335.6033 L154.281 335.8417 L154.7028 336.6615 L155.1741 337.9888 L155.4231 338.9481 L155.5776 339.5431 L156.2939 341.4211 L156.5323 342.3696 L156.6116 343.085 L156.7465 343.3112 L157.0279 343.4953 L158.4614 343.4669 L159.3282 343.5927 L160.0869 343.8319 L160.4784 344.1923 L160.6496 344.8287 L160.7294 345.4652 L160.6193 346.199 L160.295 346.7986 L160.2824 347.1107 L159.9 347.2994 L160.1031 347.5938 L160.442 348.2916 L160.6254 348.4388 L161.127 348.4081 L161.4083 348.3039 L161.4326 347.912 L161.5856 347.8146 L161.6897 347.4044 L161.9099 346.4076 L162.216 345.5756 L162.1852 344.7367 L162.2771 344.4798 L163.5864 344.486 L163.5617 344.3457 L163.4334 344.2598 L163.103 344.1563 L162.757 343.9047 L162.759 344.2053 L162.0862 344.2099 L162.0811 343.4715 L162.1423 343.2568 L162.9808 343.1832 L165.1038 343.1709 L167.1041 343.2261 L167.7896 343.22 L167.9179 343.128 L167.881 342.9754 L167.6608 342.7729 L167.3673 342.6449 L167.3259 342.5092 L167.7219 341.9348 L167.9729 340.3261 L167.8199 340.0078 L167.8138 339.5247 L167.5633 339.4266 L167.6244 339.1452 L167.8689 338.8944 L168.1381 338.5333 L168.3215 337.952 L168.3154 336.765 L168.2179 336.3432 L168.224 335.6945 L167.9058 335.5419 L167.9361 334.9116 L168.0159 334.5381 L168.273 334.5075 L168.3952 334.2506 L168.668 333.7414 L168.279 333.6072 L167.5082 333.2967 L167.9487 331.7055 L167.6305 331.5897 L168.0037 330.4701 L167.9608 330.2255 L167.877 329.9901 L167.4936 329.8559 L167.6886 329.2984 L167.3552 329.0139 L167.4547 328.7893 L168.2664 327.8944 L168.9216 327.4205 L168.8109 327.2027 L167.5173 326.5455 L167.439 326.3768 L167.4623 326.1291 L167.5784 325.9397 L168.0679 325.9458 L169.0408 325.9581 L169.4383 325.5294 L169.5666 325.2909 L170.0869 324.679 L170.1066 324.4988 L169.9414 324.4221 L169.7611 324.2879 L169.706 324.1959 L169.6843 323.985 L169.6722 323.8961 L169.703 323.7036 L169.804 323.5656 L169.9232 323.4375 L170.0485 323.2565 L170.1187 323.232 L170.1768 323.2381 L170.2197 323.3056 L170.3359 323.6085 L170.3789 323.7519 L170.6925 323.5717 L171.0779 323.5901 L171.3532 323.7128 L171.5614 324.1346 L171.6801 324.2872 L172.1872 323.9958 L172.2221 323.9758 L172.4105 323.6706 L172.6686 323.2903 L173.0323 322.8654 L173.7516 322.1645 L175.5256 322.8378 L175.2624 324.4099 L175.4033 324.6238 L175.9282 324.8822 L176.0363 324.9351 L176.4777 324.4858 L177.2753 325.0586 L178.028 325.1015 L178.8478 325.0218 L179.5146 324.9298 L179.906 325.0709 L180.3955 325.1621 L180.9097 324.6054 L180.738 324.3485 L180.6142 324.1131 L180.0838 322.7458 L180.0611 322.6231 L179.9737 322.1523 L179.9247 321.6998 L179.906 321.2834 L179.951 320.933 L181.0441 320.568 L182.8918 320.262 L184.4335 320.433 L185.5165 320.6538 L186.8318 320.7612 L187.7678 320.8003 L188.0431 321.3018 L188.3906 321.2926 L188.7468 321.2834 L189.217 321.2328 L189.5055 321.4736 L190.099 321.5833 L190.5637 321.8831 L191.1203 322.0058 L191.821 322.2251 L192.8337 322.2995 L193.8692 322.4575 L193.9652 322.972 L194.3633 323.2964 L194.3814 323.7672 L194.5224 324.7342 L194.5709 325.3339 L195.4765 325.3155 L196.014 325.3684 L196.4737 325.4865 L196.8778 325.7012 L197.5016 326.1536 L198.1441 326.6467 L198.5356 326.9489 L198.7801 327.1935 L198.9761 327.5178 L199.3185 328.0132 L199.9075 328.882 L200.3343 329.5124 L201.6133 331.2952 L202.1614 332.2914 L204.1703 335.9422 L204.7946 337.2373 L205.0204 337.6936 L205.4614 338.5854 L207.7375 343.6279 L208.0461 344.499 L208.6548 346.2143 L208.967 347.2119 L209.4317 347.4566 L209.707 347.8484 L209.6519 348.2333 L209.5236 348.5699 L209.662 349.6411 L209.811 349.6833 L209.9823 349.7815 L210.1045 350.069 L210.0802 350.2523 L210.0924 350.4969 L210.2394 350.73 L210.3182 351.1471 L210.6066 351.4883 L211.041 351.8372 L211.4688 352.1125 L211.9644 352.3142 L212.815 352.5342 L213.6131 352.7489 L214.2652 352.9935 L215.7457 353.5686 L216.4307 353.7396 L217.0672 353.85 L217.7339 353.8807 L218.8902 353.9298 L219.5266 353.9781 L219.612 353.8623 L219.8383 353.9114 L219.9484 354.0149 L219.8812 354.2472 L220.0464 354.4558 L220.2176 354.8591 L220.3035 355.2141 L220.449 356.1734 L220.5177 356.9148 L220.6278 357.7652 L220.75 358.6217 L220.8172 359.4299 L220.8399 359.8017 L220.848 360.1637 L220.7748 360.5125 L220.2424 362.0606 L219.8019 363.3572 L219.6367 363.8526 L219.4968 364.2674 L219.3857 364.6669 L219.2816 365.107 L219.1654 365.9573 L219.0185 367.3889 L218.8048 369.4813 L218.7795 369.8601 L218.9093 369.9329 L219.5448 369.8793 L219.8691 369.867 L220.1686 369.8731 L220.3035 370.1177 L220.4631 370.3562 L221.2456 370.3807 L221.3557 371.3292 L221.4597 373.0053 L221.5592 373.1203 L221.7719 373.3664 L222.1391 373.7276 L222.5932 373.7613 L222.8114 374.673 L222.8746 374.936 L223.0276 375.156 L223.2721 375.3883 L223.3762 375.6575 L223.5232 376.1834 L223.8692 377.0468 L224.1657 377.9883 L224.0859 378.6493 L223.5171 378.9613 L223.4474 379.1706 L223.5414 379.6222 L223.5035 379.8461 L223.4373 380.2341 L223.1009 380.6742 L222.6973 381.1212 L222.5442 381.2983 L222.4624 381.5314 L222.5074 381.7085 L223.1989 381.6656 L224.0631 381.5207 L224.9118 381.4332 L225.1871 382.0206 L225.6745 383.301 L225.6033 384.0332 L225.6599 384.4342 L225.8786 385.3305 L226.1842 385.7154 L226.6332 386.0643 L226.9797 386.4008 L227.0717 386.7252 L227.2798 387.0372 L227.5733 387.1469 L227.8728 388.1934 L227.6809 388.2578 L227.8779 388.9072 L228.0446 389.8273 L228.6623 389.7782 L228.7416 390.9773 L228.7436 392.1887 L228.7452 393.0758 L227.7637 393.5527 L227.0535 393.9238 L227.0247 394.1837 L227.0702 394.5594 L227.0621 394.9013 L225.8917 395.3775 L224.8016 395.9693 L224.2197 396.3105 L224.5814 397.6277 L224.685 397.9597 L224.7537 398.1813 L224.8148 398.3775 L224.9118 398.5454 L226.2089 398.2457 L227.8486 398.1966 L228.2587 398.2257 L228.5951 400.1233 L228.3981 400.3924 L228.0016 400.466 L227.2732 400.6623 L226.7413 400.9253 L226.3983 401.1637 L226.2599 401.3247 L226.264 401.4451 L226.4529 401.4443 L226.7045 401.4021 L227.102 401.3224 L227.6405 401.2802 L227.7617 401.5417 L228.1122 402.2746 L228.3446 402.5376 L228.779 402.4893 L229.1705 403.1617 L229.0361 403.4553 L228.7729 403.6823 L228.675 403.9084 L228.926 404.6184 L229.0998 404.7456 L229.3857 404.9135 L229.715 405.5783 L229.6231 405.8474 L229.666 406.1655 L229.9049 406.68 L230.3085 406.8877 L231.0612 407.0227 L231.6421 407.3769 L231.8381 407.626 L231.979 407.8054 L232.1623 409.3043 L232.0643 410.2649 L232.6821 412.2652 L232.7306 413.1767 L232.5973 414.4647 L232.5846 414.5874 L231.2314 414.5207 L231.1672 414.6035 L231.1526 414.7185 L231.8199 415.4284 L232.6947 416.6091 L233.3858 417.6249 L233.8939 418.2305 L234.4001 418.7496 L234.5728 418.8914 L234.5177 419.0248 L234.4076 419.2893 L234.2854 419.8213 L232.4068 419.6925 L229.7857 419.3836 L229.5928 419.2586 L228.5936 417.6816 L228.1537 416.9863 L227.6475 416.4036 L226.7146 415.3839 L225.9771 414.2968 L225.6942 413.8821 L225.3103 413.7893 L224.8208 413.8192 L224.4314 413.9848 L224.0121 414.7078 L223.658 415.2452 L223.3646 415.098 L223.1135 414.9945 L222.912 415.1409 L222.8018 415.4529 L222.8382 415.7466 L222.9549 415.9911 L223.3327 416.3936 L223.2484 416.6589 L223.1504 417.444 L222.8534 417.5068 L222.7897 417.7843 L222.82 418.1569 L222.9887 418.4276 L223.2666 418.6223 L223.4009 418.564 L223.4691 418.5012 L223.5717 418.4904 L223.6287 418.4659 L223.8172 418.3839 L224.3127 418.1631 L224.5264 418.1286 L225.4204 419.0992 L225.8973 419.6343 L226.1897 419.8091 L226.4817 419.7477 L226.9469 419.3621 L227.0934 419.5155 L227.3505 419.852 L227.0661 420.115 L227.0232 420.4454 L227.0964 420.7452 L227.1485 420.9713 L226.6807 421.8583 L226.5277 422.4003 L226.5706 422.7453 L226.4817 423.3633 L226.0473 425.0215 L225.917 425.6034 L225.9983 426.0005 L226.3898 426.9979 L226.8429 427.5667 L227.3338 427.8711 L227.8642 427.9585 L228.0971 427.891 L228.3714 427.5483 L228.825 427.3099 L228.5128 426.82 L228.4517 426.4651 L228.6113 426.2405 L229.0391 426.1531 L229.7302 426.1477 L230.5075 426.0618 L231.3582 425.8479 L231.4739 425.9024 L231.6451 426.3738 L231.7618 426.5264 L231.9694 426.5264 L232.2876 426.4168 L232.4407 426.8691 L232.3735 427.0102 L232.3487 427.4195 L232.5326 427.9708 L232.7417 428.4614 L232.7341 428.5825 L230.9051 428.8025 L230.6909 428.7412 L230.3363 428.3073 L230.0898 428.0643 L229.7792 427.9217 L229.1614 428.3012 L228.3461 429.0371 L227.4116 429.5914 L227.3015 429.8551 L227.2773 430.2584 L227.4667 430.7605 L227.6258 430.9131 L227.6379 431.4697 L227.7602 431.6843 L228.0233 431.7755 L228.4396 431.7088 L229.1245 431.3232 L229.8529 431.7211 L230.1095 431.9534 L228.9169 432.7668 L228.0774 433.4429 L225.5886 434.8719 L224.3834 435.6669 L223.0287 436.1867 L221.5572 433.8017 L222.8018 432.8634 L222.8231 432.5713 L223.1721 432.1734 L223.1782 431.843 L223.1266 431.5624 L223.2943 431.3662 L224.1935 430.8395 L224.3294 430.7107 L224.1677 430.3688 L223.8141 430.289 L223.117 430.6195 L222.5852 430.966 L222.2846 431.1339 L222.0093 431.2006 L221.4587 430.6072 L221.6557 430.2676 L222.0952 429.9648 L222.1624 429.6834 L222.0831 429.3162 L221.783 428.9497 L221.7219 428.5825 L221.8603 428.177 L222.0336 427.8029 L222.0704 427.487 L221.685 426.6245 L221.6981 426.4444 L221.9426 426.255 L222.1073 426.3432 L222.476 426.8515 L222.6028 426.9427 L223.3883 426.4137 L223.4898 426.1715 L223.4161 424.9502 L223.3737 424.6359 L223.2514 424.5508 L222.9761 424.4588 L222.8478 424.2932 L222.8478 423.627 L223.0004 423.2107 L223.0741 422.9293 L223.0867 422.4471 L223.2883 422.1167 L223.6126 421.9933 L223.7651 421.8829 L223.7348 421.626 L223.8141 421.3815 L223.9621 421.2948 L224.3667 421.4781 L224.5945 421.6345 L224.7658 421.5034 L224.8668 421.3876 L224.787 421.222 L224.2854 420.9407 L223.8475 420.3105 L223.4479 419.6872 L223.1261 419.2364 L222.6887 419.1061 L221.2546 418.0297 L220.0029 416.8483 L219.365 416.044 L219.021 415.857 L218.9164 415.7151 L218.6598 415.3671 L218.4886 415.3609 L218.3052 415.5756 L218.3234 415.765 L218.5679 416.1813 L218.7411 416.6129 L218.8992 417.1672 L219.2251 417.7169 L219.613 418.1293 L219.859 418.4628 L220.0671 418.8546 L220.5258 419.0079 L220.7647 419.2709 L220.6849 419.5768 L220.2813 419.8328 L219.9019 419.9195 L219.8282 420.0536 L219.8529 420.2131 L220.055 420.5558 L220.3267 421.2251 L220.2075 421.6567 L220.1312 422.1888 L219.865 422.4824 L219.614 422.8067 L219.5165 423.1923 L219.5226 423.6691 L219.5716 424.1 L219.6509 424.5201 L219.5958 424.8061 L218.923 425.2178 L218.5588 425.5819 L218.091 425.3826 L217.5955 425.1932 L217.2616 425.0759 L216.8404 423.489 L216.4883 422.2693 L216.0746 421.521 L215.5088 420.8494 L214.9062 420.5865 L214.4107 420.2867 L213.9091 420.3787 L213.6217 420.6355 L213.7439 420.9782 L213.854 421.2718 L213.7439 421.4252 L213.4686 421.6145 L213.4287 421.8445 L213.4015 422.0002 L213.5116 422.4042 L213.701 422.6917 L213.8879 422.6357 L214.1263 422.5744 L214.8037 422.8718 L215.2765 423.5166 L215.5402 424.4005 L216.2948 425.6655 L216.9929 426.8001 L217.0288 427.7277 L216.8277 428.4499 L216.6565 429.5991 L216.6434 429.6857 L216.4903 430.9652 L216.3575 431.8361 L216.114 432.2286 L215.6821 432.513 L214.8365 433.0681 L215.48 434.5109 L217.6329 433.3226 L217.8152 433.3494 L218.0628 434.3514 L218.0405 434.8988 L218.2749 435.6125 L218.6275 436.4136 L218.9467 436.4734 L219.7953 436.4964 L220.5237 436.7524 L220.9975 437.322 L221.4456 438.0243 L219.7837 439.2547 L218.8795 439.8963 L218.3103 440.2681 L218.1572 440.5748 L218.0511 440.8929 L218.2224 441.2831 L218.5108 441.5062 L218.9942 441.5177 L219.611 441.2348 L224.1212 438.1584 L227.0793 436.261 L228.4229 435.6554 L228.9063 435.5895 L229.2129 435.7068 L229.3422 435.9306 L229.3422 436.3791 L229.4129 436.6972 L229.6842 437.2155 L229.9378 437.4025 L230.1792 437.3926 L231.4991 436.8874 L232.9362 436.169 L233.7489 435.627 L234.3869 434.9057 L234.8769 434.6465 L235.3775 434.6389 L235.7189 434.481 L236.0725 434.057 L236.2958 433.2605 L236.0963 432.9492 L235.872 432.6779 L235.8063 432.6549 L235.2123 432.4425 L234.6228 432.2769 L234.4708 432.0224 L234.5955 431.7042 L235.1552 431.3631 L235.1512 431.1737 L234.9173 430.8862 L234.5723 430.8065 L234.1626 430.8977 L233.1746 431.0971 L232.0588 431.2918 L231.7199 431.2604 L231.2561 430.8311 L231.0884 430.6011 L232.7478 430.2867 L234.4536 429.9341 L235.3467 429.849 L236.3256 429.8429 L237.996 429.8245 L237.3111 428.6676 L236.3286 426.5019 L236.7479 426.3309 L237.0414 426.7165 L237.2495 427.0163 L237.7021 427.0247 L238.2653 426.9734 L239.0664 426.7717 L239.2765 426.7365 L239.4907 426.7004 L240.8343 429.2556 L241.3789 430.3442 L242.0941 432.0523 L242.4199 431.6329 L242.5922 431.3194 L244.5177 431.2987 L245.7154 431.3094 L246.2917 431.4881 L246.4205 431.8859 L246.3953 432.4647 L246.1351 432.5138 L246.2675 433.0788 L246.3165 433.7396 L246.3594 434.3391 L246.2796 434.7309 L245.4275 434.7838 L244.9031 434.9509 L244.6273 434.9701 L244.4207 434.9846 L243.3186 435.0613 L239.9473 435.3426 L237.7879 435.4653 L236.5675 435.4461 L235.6831 435.3304 L234.8759 435.5811 L234.001 436.0893 L233.1322 436.5968 L232.2361 437.0338 L231.4678 437.3374 L230.6601 437.723 L230.3176 438.3347 L230.2565 438.8422 L230.5929 439.3191 L230.3176 439.674 L230.2262 439.937 L230.3727 440.2068 L230.4399 440.4452 L230.2959 440.7335 L229.4549 441.5277 L228.4946 442.3909 L227.1222 443.5017 L227.0202 443.7125 L226.9954 444.0184 L227.0525 444.2269 L227.8223 444.7957 L230.0731 446.0368 L231.6517 446.7774 L232.8483 447.2726 L235.3507 447.4987 L237.2646 447.8583 L239.0507 448.6302 L240.0388 449.2259 L239.6877 449.8759 L238.6184 449.4558 L237.0272 448.8778 L236.0826 448.4846 L234.9764 448.2301 L233.8212 448.1595 L232.6311 448.2063 L232.0042 448.1319 L231.1339 447.8882 L230.0363 447.5991 L229.0629 447.3561 L228.529 447.1806 L228.2461 447.1576 L228.0274 447.3247 L227.5627 447.8054 L227.3389 447.8291 L227.15 447.6758 L226.9025 447.7348 L226.7732 447.8529 L226.7732 448.1005 L226.9262 448.2653 L227.4212 448.6425 L227.7455 449.0288 L228.286 450.1404 L229.0639 451.9197 L229.4104 452.9476 L229.3594 453.104 L228.8326 453.3248 L228.8093 453.4659 L229.0371 454.4524 L229.4018 455.8522 L229.5791 456.5299 L229.4438 456.8457 L229.3513 457.0726 L229.3604 457.2804 L229.9171 458.6341 L230.259 459.5302 L230.5636 460.3298 L231.5789 462.7889 L231.7744 463.2964 L231.785 463.4489 L231.7173 463.7264 L231.638 464.0499 L231.2844 464.4033 L230.795 464.5804 L230.5121 464.539 L230.3717 464.3305 L229.7994 462.5766 L229.3629 461.3631 L228.8149 460.0546 L227.943 458.0983 L227.8486 458.004 L227.7011 457.945 L227.5066 457.8032 L227.4657 457.6498 L227.4536 457.4498 L227.4834 457.285 L227.4359 457.1079 L227.2944 456.8465 L227.1 456.6663 L226.4403 456.5536 L226.0806 456.5483 L225.6326 456.684 L225.3911 457.0488 L225.3846 457.1646 L225.3674 457.4735 L225.4027 458.1803 L225.3088 458.9231 L225.132 459.3003 L224.8254 459.347 L224.5188 459.0527 L224.2672 458.9676 L224.0005 458.9798 L223.3994 459.3118 L222.2912 459.5126 L221.1986 459.6107 L220.9243 459.6889 L220.8061 459.8898 L220.8354 460.4601 L220.7591 462.1052 L220.7945 462.7184 L220.9597 463.5908 L221.0748 464.122 L221.4239 469.9041 L221.3607 470.1004 L220.995 470.2498 L220.3939 470.6737 L219.6807 470.8209 L219.5569 470.6323 L219.4155 470.2199 L219.2624 469.8957 L219.121 469.8842 L219.0558 469.9432 L219.068 470.3732 L219.0735 470.8861 L218.875 471.0992 L218.3517 471.5821 L218.237 471.7523 L218.2547 471.9408 L218.4194 472.065 L218.729 472.111 L219.4392 471.9408 L219.9428 471.8803 L219.9898 471.9232 L220.75 476.6022 L221.192 479.7258 L221.6497 482.2584 L221.8876 483.2028 L222.082 483.9394 L222.3801 484.824 L222.6715 485.5368 L222.9913 486.2643 L222.4215 486.8989 L222.1881 487.2692 L221.9345 487.7291 L221.7163 488.0249 L221.5456 488.1468 L221.3809 488.1882 L221.3102 488.1238 L221.293 487.8126 L221.2158 487.3282 L221.094 486.9963 L220.8859 486.6506 L220.6854 486.3854 L220.5081 486.0918 L220.3378 485.743 L220.0489 484.6822 L219.8034 483.5983 L219.371 481.3876 L219.1058 480.3214 L219.0649 480.1972 L218.8821 480.1796 L218.676 480.0853 L218.5952 479.8814 L218.7583 479.7258 L218.8998 479.643 L218.8705 479.3425 L218.7821 479.2958 L218.6876 479.3602 L218.4754 479.5257 L218.4224 479.443 L218.3931 479.1716 L218.3633 478.8006 L218.4224 478.5768 L218.5345 478.435 L218.7841 478.2004 L218.7523 477.9405 L218.6937 477.2982 L218.5906 476.3561 L218.5502 476.2703 L218.4578 476.2312 L218.3684 476.1576 L218.3229 476.0311 L218.1926 475.8126 L218.0218 475.6363 L217.8743 475.6126 L217.6445 475.6593 L217.5147 475.7245 L217.45 475.8954 L217.4793 476.025 L217.6799 476.1131 L217.8188 476.281 L218.0067 476.4404 L218.0683 476.5853 L218.085 478.1268 L215.4422 478.2525 L214.8219 478.241 L214.5683 478.1521 L214.2617 477.9812 L214.044 477.8992 L213.8081 477.8992 L213.5666 477.952 L213.2777 478.1521 L213.0418 478.2702 L212.0871 478.5591 L211.881 478.7354 L211.833 478.9991 L211.8573 479.3195 L211.828 479.6254 L211.7734 479.8262 L211.6275 480.0677 L211.6335 480.1681 L211.7042 480.221 L211.928 480.1681 L212.2584 480.1443 L212.8711 480.1206 L214.295 479.9803 L214.5506 480.05 L214.6683 480.1321 L214.7865 480.303 L214.8395 480.5153 L214.8688 480.7453 L214.9572 480.8334 L215.134 480.9224 L215.5053 480.9339 L215.7291 480.8457 L215.7882 480.7039 L215.7351 480.2915 L215.7644 480.1029 L216.1064 480.0615 L216.1534 480.1681 L216.2771 480.5981 L216.2948 480.8748 L216.2418 481.1286 L216.2438 481.3424 L216.4186 481.6881 L216.6585 482.204 L216.802 482.4247 L217.1141 482.6608 L217.3399 482.7666 L217.6349 483.3239 L217.348 483.4757 L217.0434 483.5914 L216.9843 483.7217 L217.0318 483.9041 L216.9904 484.0222 L216.8313 484.0812 L216.4368 484.1402 L216.4398 484.3096 L215.9973 484.3173 L215.9907 483.9018 L215.6584 483.8037 L215.3285 483.7922 L214.979 484.0889 L214.4269 484.2989 L214.091 484.3579 L214.0617 484.4461 L214.1086 484.5112 L214.6451 484.5404 L215.1936 484.5373 L216.0685 484.5955 L216.5545 484.7941 L217.0727 485.1474 L217.3642 485.2103 L217.5501 485.3245 L217.7859 485.6073 L218.0511 486.0082 L218.1395 486.2612 L218.1092 486.508 L218.0395 487.0216 L217.9804 487.2216 L217.8743 487.4715 L217.6738 487.493 L217.5268 487.3872 L217.5031 487.2101 L217.4738 487.0277 L217.4207 486.9334 L217.2793 486.8391 L217.0611 486.833 L216.6898 486.9097 L216.3953 487.0331 L216.1928 487.0361 L215.8912 486.9212 L215.6912 486.8568 L215.4199 486.2911 L215.3315 486.0964 L215.0749 485.871 L214.8668 486.0749 L214.8128 486.2788 L214.7421 486.3731 L214.6304 486.3731 L214.5597 486.2022 L214.4652 486.0082 L214.4122 485.825 L214.3875 485.5851 L214.0596 485.2502 L214.2677 485.0463 L214.2885 484.8937 L214.147 484.8178 L213.9409 484.7527 L213.5873 484.7052 L213.3161 484.6822 L213.21 484.673 L213.0746 484.673 L213.0418 484.7113 L213.0418 484.791 L213.1039 484.8585 L213.1863 484.8999 L213.2161 485.0179 L213.263 485.1298 L213.3984 485.2532 L213.4429 485.3391 L213.4338 485.4655 L213.3868 485.6426 L213.2807 485.7369 L213.163 485.8396 L213.1009 485.9576 L213.0979 486.055 L213.1509 486.1554 L213.2923 486.2758 L213.4282 486.347 L213.5929 486.3907 L213.7434 486.4084 L213.8581 486.4467 L213.9642 486.5233 L213.9879 486.6092 L214.0026 486.7357 L214.0233 486.8537 L214.0026 486.9564 L213.702 487.066 L213.5545 487.237 L213.5191 487.3895 L213.5252 487.5842 L213.4899 487.8027 L213.4191 488.0794 L213.4308 488.2089 L213.555 488.2994 L213.8374 488.4856 L214.2208 488.6742 L214.8097 488.9394 L214.9335 488.9693 L215.1694 488.9693 L215.3351 488.9095 L215.57 488.9455 L215.7468 489.0436 L215.8352 489.164 L215.8943 489.3403 L216.0594 489.5058 L216.2362 489.7335 L216.2595 489.8592 L216.2302 490.024 L216.1064 490.083 L215.965 490.0692 L215.7397 490.0186 L215.5937 490.3919 L215.4937 490.5077 L215.3401 490.5483 L214.981 490.513 L214.8688 490.5836 L214.7512 490.7254 L214.7037 490.8549 L214.6804 490.9906 L214.5799 491.2382 L214.4385 491.4505 L214.2324 491.6091 L213.7434 491.6567 L213.4722 491.6329 L213.1949 491.6651 L212.8534 491.7448 L212.3644 491.9748 L211.877 492.0614 L211.4289 492.0683 L210.7026 491.9686 L210.3722 491.9395 L210.3015 491.8567 L210.2192 491.6682 L210.0247 491.639 L209.7125 491.751 L209.4352 491.9985 L209.412 492.1219 L209.4933 492.4055 L209.9802 494.0091 L210.2075 494.7212 L210.5293 495.6433 L210.8496 495.6701 L211.3269 495.6402 L212.713 495.0316 L213.1115 494.9856 L213.5313 494.9097 L213.9909 494.6621 L214.2086 494.3969 L214.4562 494.2375 L215.3876 493.9784 L217.4758 493.2472 L219.462 493.2932 L219.465 493.1399 L219.4806 492.7497 L219.3953 492.2576 L219.2478 491.5486 L218.7962 491.337 L218.6613 490.9867 L218.8907 490.2762 L219.0922 489.6829 L219.1493 489.2935 L219.4165 488.9302 L219.7802 488.8443 L220.1227 488.9517 L220.3262 489.2299 L220.4222 489.4008 L221.1713 489.3901 L221.8795 489.4453 L222.076 489.3081 L222.1876 489.2299 L222.4018 489.3794 L222.7867 489.8071 L223.1504 490.267 L223.3428 490.3743 L223.7606 490.1819 L223.9636 490.1175 L224.2309 490.513 L224.8304 491.5938 L224.9966 492.1863 L224.98 492.3963 L224.6375 492.5251 L224.1884 492.5359 L223.9313 492.6639 L223.6944 493.0042 L223.9545 493.8297 L224.5092 493.7554 L225.2901 493.6588 L226.7772 493.402 L227.2268 493.3913 L227.5586 493.7554 L227.8794 493.8726 L228.4234 493.8128 L229.5483 493.7017 L230.0726 493.5944 L230.4793 493.4342 L230.5995 493.1192 L231.0783 492.9636 L231.9234 492.9421 L232.5028 493.1307 L232.8544 493.4235 L233.1751 493.8619 L233.6888 494.0336 L234.3415 494.0443 L234.6506 494.4567 L234.5339 494.5893 L234.2773 494.8568 L234.195 495.2301 L234.1384 495.4884 L233.0711 495.8717 L232.4477 496.0771 L232.0199 496.3017 L231.6709 496.4611 L231.3996 496.6366 L231.2016 496.8214 L231.0647 496.9992 L230.9894 497.1494 L232.6427 497.1571 L233.3979 497.1916 L233.3438 497.7059 L233.3383 498.0378 L233.3368 498.2371 L233.7697 498.2861 L233.956 498.313 L234.052 498.523 L234.148 498.9675 L234.1798 499.3278 L234.0955 499.4466 L234.245 500.0353 L234.2642 500.5266 L234.3864 501.2709 L234.4344 501.4142 L234.7319 501.4517 L234.789 501.9607 L234.939 502.7962 L235.0668 503.2262 L234.7476 503.2798 L234.3172 503.3381 L234.3334 503.4285 L234.8436 503.4553 L235.0825 503.519 L235.2578 503.5987 L235.3108 503.9597 L235.2593 504.1942 L235.1305 504.2732 L234.5031 504.3054 L233.7974 504.3858 L233.7808 504.5499 L233.7646 504.8419 L233.754 504.9484 L233.3716 505.0282 L233.3398 505.1393 L233.3661 505.2351 L233.653 505.2619 L234.0465 505.3202 L234.0677 505.4474 L234.0359 505.6444 L233.855 505.6812 L233.7328 505.7456 L233.7328 505.8943 L233.8818 506.0001 L233.9187 506.2024 L233.8601 506.335 L233.8232 506.5956 L233.8868 506.893 L234.0288 507.2448 L234.1475 507.5736 L234.3016 507.6533 L234.6466 507.6319 L235.2037 507.5606 L235.481 507.5997 L235.9063 507.5736 L236.124 507.4349 L236.7883 507.2548 L237.2136 507.2011 L238.0188 507.1521 L238.2764 507.1904 L238.3451 507.3291 L238.3027 507.5092 L238.138 507.7806 L238.0582 507.9722 L238.0693 508.1807 L238.186 508.5034 L241.3107 508.2803 L241.3036 507.9883 L241.2193 507.264 L241.2248 506.5504 L241.4329 506.4837 L241.64 506.4837 L241.7567 506.6485 L241.9269 506.824 L242.0916 506.8026 L242.2563 506.6914 L242.4391 506.1212 L242.5275 505.6122 L242.7079 505.2826 L242.8614 505.2872 L243.0003 505.416 L243.0801 505.485 L243.2024 505.4689 L243.2499 505.3363 L243.2236 505.0971 L243.1706 504.927 L243.0695 504.7407 L243.0907 504.5391 L243.2286 504.1137 L243.3883 503.9704 L243.5635 503.7044 L243.8717 503.0407 L244.0161 502.5287 L244.0899 502.1638 L244.0843 501.8181 L243.9868 501.1628 L243.9464 500.9252 L243.7656 500.8301 L243.4837 500.8194 L243.2342 500.8562 L243.0362 500.9696 L242.873 501.175 L242.8468 501.3958 L242.7119 501.6112 L242.5154 501.6625 L242.3255 501.6372 L242.1234 501.6165 L241.8103 501.7016 L241.5446 501.7813 L241.4754 501.733 L241.4274 501.3981 L241.4223 501.244 L241.688 501.0585 L241.8577 500.8087 L241.8784 500.5067 L241.691 498.8051 L241.6557 498.2156 L241.6774 498.0186 L241.7092 497.758 L241.7779 497.5242 L241.7673 497.2483 L241.7037 496.9509 L241.443 496.4465 L241.2895 496.0526 L241.0768 496.1323 L240.6889 496.2442 L240.4974 496.2066 L240.3858 496.0794 L239.8918 495.9621 L239.0639 495.841 L238.5896 495.946 L238.2228 495.9361 L238.0319 495.7605 L237.9465 495.5106 L237.9673 495.3298 L238.0849 495.1918 L238.239 495.1443 L238.3986 495.1757 L238.7436 495.2339 L239.9822 495.2079 L240.407 495.2822 L240.7101 495.2983 L240.9334 495.2715 L241.0768 495.224 L241.0339 494.9802 L240.9748 494.6759 L240.9303 494.4414 L240.9091 494.2528 L240.8606 494.0037 L240.4388 494.0436 L239.913 494.0704 L239.6736 494.0436 L239.2856 493.9217 L239.1447 493.7968 L239.0785 493.5867 L239.0947 493.0824 L239.1452 492.8294 L239.3018 492.6409 L239.6261 492.4446 L239.7483 492.3274 L239.6685 492.1043 L239.6736 491.9717 L240.0034 491.7165 L240.115 491.7379 L240.2373 491.8974 L240.4818 492.1679 L240.6358 492.2369 L240.7151 492.2162 L240.7202 491.8376 L240.7364 491.2803 L240.7525 490.8871 L240.7419 490.4195 L240.6889 489.8561 L240.5737 489.256 L240.46 488.6926 L240.3287 488.3277 L240.1575 487.9859 L240.0448 487.8302 L239.9499 487.6992 L239.812 487.5919 L239.7377 487.5344 L239.5872 487.3121 L239.5463 487.1036 L239.5569 486.9127 L239.4983 486.7587 L239.4134 486.6307 L239.4452 486.4766 L239.6155 486.3708 L239.8226 486.3969 L240.0095 486.5578 L240.3752 486.6789 L240.4358 486.5379 L240.6212 486.1424 L240.6146 485.9983 L240.5136 485.7223 L240.5197 485.477 L240.703 485.3805 L240.944 485.3506 L241.147 485.543 L241.3476 485.3398 L241.4996 485.1191 L241.7491 484.7044 L241.9522 484.397 L242.2376 483.9287 L242.2735 483.7148 L242.332 483.4933 L242.3654 483.1583 L242.3548 482.7114 L242.328 482.4301 L242.2492 482.125 L242.175 481.8943 L242.1047 481.8085 L241.8911 481.7249 L241.8421 481.6276 L241.741 481.4313 L241.6481 481.3915 L241.5046 481.4421 L241.438 481.4658 L241.5072 481.7556 L241.4557 481.7556 L241.5057 481.8958 L241.6658 482.427 L241.6991 482.7559 L241.6405 483.084 L240.8399 484.0023 L240.1408 484.7772 L239.6013 485.1145 L238.6325 485.5943 L237.7819 485.8726 L237.0646 485.9615 L237.0323 485.9653 L236.5857 485.881 L236.4094 485.7492 L236.3018 485.5713 L236.2438 485.4127 L236.1387 485.4272 L236.0695 485.4433 L236.075 485.6372 L236.0937 485.9216 L236.115 486.2267 L236.1468 486.5486 L236.1897 486.6973 L236.2422 486.7932 L236.3246 486.8414 L237.1919 486.6054 L237.9334 486.9679 L238.2622 487.2676 L238.4087 487.5965 L238.434 487.8548 L238.432 487.9192 L238.4229 488.1591 L238.2183 488.1759 L238.0021 488.1928 L237.7637 488.3147 L237.7137 488.4251 L237.6945 488.6611 L237.7197 489.1096 L237.6197 489.3617 L237.4035 489.7933 L236.9383 490.1428 L236.8358 490.1758 L236.6282 490.2425 L236.3286 490.4364 L236.2458 490.5912 L236.2902 490.802 L236.5605 491.4673 L236.7054 491.9265 L236.8383 492.3312 L237.0712 492.3795 L237.1434 492.6194 L237.2429 492.9076 L237.2934 493.4304 L237.2762 493.5668 L237.1984 493.6442 L237.0712 493.5998 L236.9161 493.4058 L236.6832 493.284 L236.2569 493.284 L235.7417 493.3782 L235.4093 493.3284 L235.1764 493.2341 L234.837 493.0111 L234.5839 493.018 L234.4122 492.985 L234.2899 492.752 L234.2788 492.5857 L234.1682 492.4193 L233.9798 492.3695 L233.6585 492.3588 L233.4368 492.309 L233.0655 492.0323 L232.8604 491.8046 L232.6887 491.5279 L232.6281 491.2727 L232.6281 490.9683 L232.5947 490.641 L232.6114 490.4747 L232.7776 490.3475 L232.9604 490.2977 L233.0877 490.198 L233.1342 490.0539 L233.2817 489.7657 L233.4979 489.5388 L233.8247 489.2337 L234.0242 488.9348 L234.1071 488.5807 L234.0975 488.1162 L234.0904 487.5834 L233.9798 487.0791 L233.7606 486.4835 L233.509 485.7545 L233.3373 485.3728 L233.2347 485.2701 L233.0933 485.2341 L232.9493 485.3168 L232.8827 485.5552 L232.8165 485.6886 L232.7276 485.6886 L232.5669 485.5307 L232.2735 484.9765 L231.7441 484.6431 L231.4425 484.4668 L231.1819 484.3395 L230.6333 484.118 L230.1237 483.8681 L229.862 483.5807 L229.8236 483.2955 L229.8797 482.8149 L229.8246 482.2454 L229.8802 481.8682 L229.9681 481.577 L229.9852 481.37 L229.8468 481.1814 L229.5862 481.1148 L229.2372 481.3033 L228.6391 481.6858 L228.1845 482.1174 L227.6086 482.4171 L227.4187 482.1718 L226.9383 481.5639 L226.8994 481.4359 L227.2707 481.2259 L227.2545 481.1132 L227.0712 480.9431 L226.8661 480.7882 L226.9989 480.6771 L227.0934 480.5222 L227.0434 480.3613 L226.8717 480.2731 L226.7332 480.1842 L226.7721 480.0178 L226.8661 479.7519 L227.0712 479.5855 L227.3313 479.5303 L227.4591 479.6193 L227.592 480.0401 L227.6692 480.3728 L227.7637 480.5383 L227.9077 480.5169 L228.2178 480.395 L228.2234 480.2447 L228.2623 480.0953 L228.7886 479.8408 L228.8331 479.7741 L228.8164 479.6576 L228.6391 479.1977 L228.4451 478.3943 L228.0405 477.2921 L227.9354 477.2031 L227.7359 477.1204 L227.3424 477.1479 L226.8661 477.3089 L226.7166 477.2476 L226.5893 476.882 L226.6221 476.7271 L226.7444 476.511 L226.6832 475.9621 L226.6115 475.2423 L226.5115 475.0538 L226.4287 474.8154 L226.3898 474.5279 L226.4559 473.9959 L226.5282 473.5521 L226.5337 472.9818 L226.5059 472.6491 L226.5782 472.367 L226.7277 472.0842 L226.9934 471.9845 L227.2374 471.8236 L227.3313 471.6963 L227.3096 471.5085 L227.1985 471.3583 L226.9767 471.1145 L226.7721 470.6385 L226.8105 470.5442 L226.9606 470.4223 L227.1485 470.4223 L227.2318 470.4997 L227.4091 470.9704 L227.592 471.1758 L227.9521 471.3146 L228.5613 471.4249 L229.3372 471.5415 L229.6195 471.6411 L229.8357 471.8182 L229.9408 472.0673 L229.9797 472.9764 L230.0686 473.5521 L230.2954 474.2397 L230.4671 474.5992 L230.6278 474.7878 L230.8106 474.8821 L230.8995 474.9871 L230.9218 475.109 L230.8995 475.2308 L230.9384 475.3972 L231.0324 475.6026 L231.0379 475.7467 L230.7995 475.9016 L230.5616 475.8188 L230.2181 475.5413 L230.0464 475.4531 L229.8079 475.4416 L228.8331 475.6187 L228.5613 475.6524 L228.4345 475.6969 L228.3123 475.7406 L228.19 475.8349 L228.1683 476.0181 L228.5062 477.0874 L228.6335 477.7351 L228.7442 478.0847 L228.9159 478.2065 L229.1988 478.1782 L229.3185 478.1084 L229.3321 477.8961 L229.3751 477.7229 L229.6584 477.5251 L230.3843 477.2254 L230.7111 477.0928 L230.7995 477.115 L230.9975 477.3687 L232.2366 477.4814 L233.0241 477.3971 L233.2347 477.4362 L233.5727 477.6523 L233.9273 478.0126 L234.0879 478.0509 L234.3207 478.0287 L234.4475 477.9674 L234.6748 477.857 L234.7804 477.6907 L234.7915 477.4308 L234.7248 476.9931 L234.7526 476.4834 L234.8521 476.1062 L234.8577 475.8349 L234.9744 475.7521 L235.0906 475.7628 L235.229 475.7406 L235.4063 475.68 L235.628 475.713 L235.7154 475.8333 L235.773 476.0786 L235.8609 476.4335 L235.9771 476.8766 L236.071 477.0537 L236.221 477.1594 L236.6529 477.1817 L236.8691 477.22 L237.0131 477.3197 L237.157 477.3365 L237.2788 477.2645 L237.2788 477.1096 L237.1904 476.744 L237.0353 476.4167 L236.9575 476.1729 L236.9908 475.9905 L237.1459 475.7406 L237.4066 475.4692 L237.401 475.3144 L237.1459 474.915 L236.9908 474.6161 L236.9353 474.439 L236.9519 474.2504 L237.0742 474.0511 L237.1737 474.0565 L237.2459 474.2397 L237.3232 474.4275 L237.4561 474.5218 L237.5394 474.4666 L237.4838 474.2451 L237.4177 473.8242 L237.4672 473.6855 L237.595 473.6579 L237.6667 473.746 L237.6667 473.9124 L237.794 474.3394 L237.9162 474.4888 L238.0935 474.5057 L238.2875 474.4559 L238.4648 474.3447 L238.537 474.173 L238.5143 473.9017 L238.3148 473.1313 L238.1486 472.3946 L238.0713 471.924 L238.143 471.6633 L238.1653 471.4364 L238.0602 471.0923 L237.9076 470.8194 L237.6834 470.4169 L237.6723 470.2452 L237.7778 470.1755 L237.9657 470.1839 L238.2486 470.0344 L238.5365 469.7907 L238.5921 469.5469 L238.6477 469.0203 L238.7638 468.627 L238.83 468.2008 L238.9078 467.9571 L239.1351 467.6298 L239.4841 467.4473 L239.8276 467.3914 L240.0655 467.386 L240.4646 467.2196 L240.6252 467.2419 L240.7252 467.4251 L240.7803 467.6075 L240.9187 467.7516 L241.2294 467.813 L241.5506 467.6742 L241.6668 467.4856 L241.639 467.3032 L241.8052 467.192 L242.0269 467.386 L242.226 467.3967 L242.3871 467.3584 L242.4371 467.2534 L242.3704 467.0541 L242.2154 466.9207 L241.9936 466.8157 L241.8941 466.5995 L241.689 465.7686 L241.5562 465.3584 L241.3455 464.8602 L240.9187 463.8905 L239.8771 461.0427 L238.6365 457.4804 L238.1375 455.9013 L237.7354 454.7537 L237.0686 453.0588 L236.8812 452.5988 L236.7898 452.3459 L236.758 452.04 L236.8302 451.8407 L236.8302 451.4689 L236.8221 450.8618 L236.7746 450.4608 L236.9136 450.3558 L237.0742 450.3834 L237.2858 450.5505 L237.5061 450.9875 L238.1102 452.5935 L238.5421 453.8622 L238.6532 454.1175 L238.7972 454.2447 L239.0629 454.2991 L239.3124 454.2669 L240.8692 453.5969 L240.9187 453.4751 L240.9243 453.1753 L241.1071 453.0427 L241.4506 452.8488 L241.5173 452.6602 L241.3955 452.3834 L241.4395 452.1726 L241.6057 452.1121 L241.7224 452.1895 L241.739 452.3558 L241.7501 452.6272 L241.8052 453.009 L241.9249 453.2842 L242.3538 454.3444 L242.5477 454.6272 L242.6584 454.6157 L243.2625 454.3781 L243.5171 454.2064 L243.6777 453.9457 L243.6999 453.8124 L243.6115 453.7188 L243.4287 453.702 L243.2236 453.7687 L243.0463 453.9787 L242.9079 453.9787 L242.7917 453.8346 L242.5422 453.4528 L242.5866 453.3532 L242.7195 453.1201 L242.6311 452.9208 L242.4164 452.6111 L242.4093 452.4218 L242.5977 452.1673 L242.7195 452.1504 L242.9246 452.3834 L243.0852 452.3612 L243.3842 452.178 L243.4676 451.8123 L243.3898 451.6077 L243.168 451.4191 L242.8912 451.4467 L242.6472 451.5302 L242.4649 451.475 L242.1487 451.1531 L242.0214 450.9262 L242.2265 450.4999 L242.4649 450.4938 L242.7361 450.71 L243.013 450.6877 L243.6363 450.6425 L244.0267 450.6379 L247.3399 449.879 L248.5698 449.6076 L248.6587 449.4911 L248.5254 449.1147 L248.437 448.7766 L248.7694 448.5881 L248.93 448.7268 L249.1129 449.1093 L249.1917 449.1937 L249.6448 449.0649 L249.8291 449.0051 L249.9458 449.708 L250.109 450.4355 L250.1044 450.815 L249.9716 451.3087 L249.919 452.1956 L249.9771 452.4386 L250.0878 452.5935 L250.3428 452.6494 L250.7237 452.7253 L251.0702 453.9419 L251.1743 454.1887 L251.4006 454.385 L251.6541 454.3704 L251.8183 454.109 L252.0648 453.485 L252.3497 453.2397 L252.9331 453.0695 L253.315 453.0174 L253.365 453.1891 L253.3094 454.7905 L253.1488 456.1152 L253.1049 457.5165 L253.0382 458.3359 L252.922 458.6518 L252.7533 459.1385 L252.772 459.3999 L252.9331 459.6215 L252.9826 459.81 L252.9548 459.9542 L252.7669 460.076 L252.573 460.2976 L252.5694 460.6824 L252.6245 461.5256 L252.8053 462.8955 L252.966 463.8705 L252.9104 463.9924 L252.6447 464.0208 L252.2406 464.1204 L251.9966 464.3474 L251.8193 464.5689 L251.5536 464.6241 L251.398 464.6409 L251.2137 464.7337 L251.149 465.012 L251.1824 465.4313 L251.3374 466.2921 L251.2985 466.6907 L251.3541 466.8517 L251.5753 467.1453 L251.7592 467.4151 L252.0577 467.5884 L252.4285 467.6052 L252.7225 467.7271 L252.7988 467.9302 L252.966 468.3472 L253.1155 469.0732 L253.218 469.458 L253.2933 469.6596 L253.3428 469.7217 L253.4979 469.8098 L253.7196 469.8213 L253.9853 469.727 L254.2571 469.76 L254.3788 469.921 L254.5839 470.1532 L255.0213 470.453 L255.1971 470.5518 L255.3759 470.5687 L255.5093 470.6967 L255.5093 470.9405 L255.5477 471.4663 L255.4744 471.7254 L255.2936 471.6978 L254.9163 471.4165 L254.4541 471.3092 L254.0575 470.9512 L253.6752 470.7688 L253.4261 470.8293 L253.2433 471.0401 L253.1847 471.2847 L253.2766 471.9983 L253.512 472.8116 L253.7585 473.4946 L253.9747 473.7162 L254.3015 473.9208 L254.6778 474.1316 L254.839 474.1094 L254.9107 473.9982 L254.9663 473.8902 L255.0632 473.8656 L255.1769 473.9484 L255.2042 474.3363 L255.232 474.669 L256.0053 476.0648 L256.1387 476.8168 L256.1826 477.7995 L256.2932 478.7416 L256.4705 478.8083 L256.7478 478.6527 L257.058 478.1874 L257.1136 477.5006 L257.4015 477.3679 L257.8116 477.545 L258.1268 477.4569 L258.3102 477.1349 L258.3102 476.57 L258.144 474.4091 L258.0884 473.0017 L258.194 472.2237 L258.3102 471.8941 L258.2657 471.1183 L258.0218 469.2564 L258.1551 468.7252 L258.188 468.082 L257.9889 467.3285 L257.6672 466.7635 L257.9445 466.7635 L258.587 466.808 L258.731 467.2733 L258.7865 467.7164 L258.687 468.0268 L258.6092 468.7911 L258.6426 469.1682 L258.7199 469.8773 L258.8532 470.5971 L258.8638 471.3399 L259.0305 471.4947 L259.374 471.5062 L260.216 470.9075 L260.7252 470.3288 L260.8586 470.0214 L260.7808 469.7109 L260.5373 469.5001 L260.5595 469.146 L260.6701 468.6692 L260.6924 468.4032 L260.5686 468.0636 L260.6368 467.7164 L260.947 467.7716 L261.743 468.1096 L262.0552 468.1594 L262.4542 468.1487 L263.1301 468.2154 L263.3625 468.4032 L263.3397 468.6799 L263.2518 470.7749 L263.2963 472.0711 L263.2296 473.8104 L263.0634 474.6199 L262.975 475.3619 L263.0084 478.2433 L262.9417 479.351 L262.7977 479.9274 L262.8088 480.7031 L262.8311 481.567 L263.0266 481.9579 L263.2453 482.2101 L263.2741 482.2431 L263.5292 482.542 L263.5842 482.8969 L263.518 483.5945 L263.3185 483.7501 L263.0968 483.7501 L262.6649 483.2403 L262.2881 483.1407 L261.9001 483.2288 L261.2243 483.6834 L260.8252 483.7945 L260.4484 483.7056 L260.216 483.7501 L260.1494 484.0383 L260.3711 485.523 L260.7697 487.1074 L261.1909 487.4064 L262.033 487.2515 L262.6538 487.0407 L262.9195 486.7525 L262.9306 485.6894 L262.9973 485.0355 L263.1412 484.7358 L263.3625 484.6254 L263.6176 484.8025 L263.8504 485.3122 L264.105 485.3789 L264.105 486.1324 L264.2712 487.0522 L264.4707 487.5949 L264.7697 487.739 L265.1355 487.8387 L265.2976 488.2794 L265.5345 488.7248 L265.9002 488.9133 L266.3321 488.9356 L266.5427 489.3456 L267.0191 489.246 L267.1161 489.256 L267.4606 489.2928 L267.5949 489.4698 L267.6874 489.6185 L267.7525 489.6308 L267.8172 489.5695 L267.8308 489.4323 L267.8586 489.3265 L267.9712 489.2751 L268.1046 489.2889 L268.2708 489.4645 L268.6592 489.8331 L269.1002 489.9221 L269.4209 489.8906 L269.6533 489.7573 L269.967 489.4001 L270.0938 489.1425 L270.31 488.9846 L270.7919 488.8236 L271.2283 488.6987 L272.2451 488.2695 L272.6452 488.2051 L273.0796 488.1775 L273.466 488.215 L273.614 488.2449 L273.9176 488.1897 L274.2111 488.1706 L274.7273 488.1744 L275.2158 488.212 L275.4107 488.445 L275.4072 488.9026 L275.3259 489.1824 L275.2152 489.3878 L274.4651 489.7335 L272.9139 490.3981 L271.3515 490.8748 L270.2236 491.2949 L270.1291 491.3317 L270.0806 491.3984 L270.0433 491.508 L270.0443 491.6505 L270.266 492.0491 L270.6423 492.0384 L272.1719 491.6283 L272.4153 491.6505 L272.5376 492.0606 L272.4153 492.404 L271.3515 492.7696 L270.4211 492.7359 L269.9579 492.6531 L269.8225 492.5841 L269.8826 492.3182 L269.8453 492.0139 L269.7963 491.8774 L269.7493 491.7471 L269.6503 491.6237 L269.5321 491.6252 L269.428 491.7441 L269.1921 491.9633 L268.9916 492.1488 L268.9875 492.5565 L268.8239 492.6455 L268.1066 493.0295 L268.1617 493.1805 L268.2869 493.586 L268.3622 493.8818 L268.4567 494.2551 L268.4961 494.528 L268.4395 494.7595 L268.3324 494.9289 L268.2587 495.0599 L268.2435 495.2293 L267.8338 495.3068 L267.7561 495.0224 L267.5949 494.9166 L267.4348 494.8967 L267.1135 494.4314 L266.7923 493.6228 L266.6852 493.3192 L266.2381 493.4787 L265.7063 493.7446 L265.4001 493.934 L265.1264 494.2022 L264.9157 494.4261 L264.9526 494.797 L265.0304 495.4616 L265.2774 496.1652 L265.4906 498.4502 L265.3628 498.6311 L265.3961 499.0963 L265.6951 499.7831 L266.1275 499.8053 L266.4927 499.4842 L266.7589 499.2626 L267.3131 499.373 L267.5873 499.9119 L267.8227 501.024 L267.8732 501.5276 L267.8227 502.3984 L267.6677 503.1848 L267.6677 504.0823 L267.6202 505.8981 L267.6535 506.6408 L267.648 507.3628 L267.5429 507.9109 L267.3105 508.3838 L267.2302 508.7525 L267.2383 509.1211 L267.1019 509.2737 L266.9979 509.4415 L266.9817 509.7542 L267.1337 510.2356 L267.3424 510.7966 L267.5909 510.8526 L267.7995 510.7246 L268.0718 510.6204 L268.3122 510.6043 L268.633 510.6679 L268.6729 510.8127 L268.4723 511.0687 L268.3844 511.3416 L268.5046 511.606 L268.6648 511.6942 L268.8734 511.662 L269.13 511.3654 L269.1457 511.1094 L269.1861 510.7246 L269.1699 510.5238 L269.0416 510.3559 L268.6729 510.1551 L268.4324 510.0432 L268.3364 509.8508 L268.4723 509.5059 L268.7532 509.5381 L269.3624 509.6906 L269.9953 509.9144 L271.4783 510.5721 L272.4881 511.1814 L273.0952 511.6735 L273.2442 511.8306 L273.4842 511.9295 L273.6549 511.9126 L274.1186 511.8659 L274.4217 511.8023 L274.6121 511.7179 L274.8521 511.6612 L275.4441 512.0 L275.8249 512.0 L276.671 511.6191 L280.5019 510.7131 L281.1131 510.4487 L282.532 509.6945 L283.8857 508.9326 L284.647 508.4535 L284.7035 508.2842 L284.5909 508.2067 L284.1605 507.9523 L283.7024 507.9101 L283.5756 507.7905 L283.6317 507.5223 L283.9984 507.1068 L284.3015 506.9306 L284.499 506.9444 L284.6187 507.1206 L284.7743 507.4165 L284.9238 507.4502 L285.0703 507.3674 L285.5072 506.916 L286.9175 506.056 L287.3544 505.6751 L287.6509 504.9561 L288.5112 504.0816 L288.934 503.5603 L289.183 503.1694 L291.1762 501.9523 L294.2858 499.7739 L296.0451 498.2286 L297.7065 496.6236 L300.8171 493.9209 L302.2375 492.6991 L302.3223 492.6309 L307.757 487.9506 L307.7822 487.6264 L307.565 487.3282 L307.2468 486.8545 L307.2332 486.5088 L307.3554 486.0282 L307.3685 485.4924 L307.1574 484.9872 L306.8831 484.6638 L306.7083 484.4307 L306.5593 484.0789 L306.5321 483.8283 L306.9927 484.0038 L307.3792 484.1395 L307.8802 484.0582 L308.3475 484.0383 L310.0952 483.1506 L310.3245 482.9529 L310.2715 482.6087 L310.2513 482.3305 L310.3124 481.9579 L310.4412 481.3347 L309.2421 480.4203 L308.4995 479.8753 L308.3748 479.8247 L307.3994 479.7496 L306.2275 479.6614 L304.6894 479.6147 L304.6287 479.2621 L303.3306 479.0229 L302.6148 479.0375 L302.4693 478.9439 L302.0273 478.658 L302.3537 477.2629 L305.2268 476.4335 L305.5415 476.3431 L308.1136 475.6003 L309.5088 473.1366 L309.679 472.9711 L310.316 472.7679 L310.4493 472.6016 L310.519 472.1854 L310.4589 471.4441 L312.2698 472.0382 L313.1881 472.1171 L314.704 472.1271 L313.5164 470.1678 L314.704 469.5139 L317.7029 469.8114 L317.1387 462.805 L314.5853 463.2504 L314.4413 465.3025 L314.2787 466.4401 L314.0079 466.7658 L313.4386 466.4132 L313.1133 466.5489 L312.978 467.0909 L313.1133 467.8222 L313.0846 468.4492 L312.2036 468.3457 L311.4333 467.5922 L310.8645 467.2396 L311.3792 465.9932 L311.2166 464.9905 L311.8399 463.7441 L311.9753 462.6333 L312.2248 461.1715 L313.1406 460.6824 L314.2681 461.081 L314.7237 462.7974 L316.0673 462.2539 L316.528 461.2788 L317.7741 460.7637 L318.8309 460.8181 L319.3188 460.8717 L319.5118 459.6951 L319.7522 458.1351 L318.6414 456.4555 L317.9908 455.2627 L317.3948 455.1546 L316.8801 455.8047 L316.3108 455.8047 L316.04 455.2359 L315.7693 454.6395 L316.0941 452.3903 L317.9353 446.7613 L318.7819 446.4953 L318.9041 446.4079 L320.1311 447.4788 L320.4761 447.6881 L321.7091 448.3113 L322.9315 448.9683 L323.6462 449.3278 L323.9988 449.5103 L324.4251 449.6797 L324.754 449.7763 L325.0555 449.8491 L325.2788 449.8882 L325.5975 449.9035 L326.5255 449.9204 L327.0235 449.9189 L327.5382 449.8867 L328.3682 449.8253 L328.3848 450.0338 L328.4424 450.2316 L328.5338 450.3757 L328.6525 450.4693 L328.8081 450.5827 L329.0319 450.733 L329.4451 451.1124 L329.7941 451.472 L330.3462 452.0676 L330.6033 452.3321 L330.7655 452.5007 L331.0226 452.6027 L331.3545 452.5919 L331.6368 452.457 L331.8833 452.1481 L332.0551 451.9541 L332.4981 451.7809 L332.7122 451.6207 L332.8658 451.3991 L332.9077 451.0212 L333.0365 450.8188 L333.2659 450.7483 L333.6083 450.7759 L333.873 450.8702 L334.0539 450.9016 L334.5812 450.8702 L335.1272 450.7161 L335.5728 450.3275 L336.1345 449.6751 L336.3992 449.1293 L336.1855 448.2584 L336.2623 447.8238 L336.5355 447.5079 L336.8331 447.3055 L336.8598 447.0472 L336.8598 446.7053 L336.9346 446.3772 L336.9705 445.9119 L336.9674 445.7294 L337.1927 445.4427 L337.4988 445.6282 L337.7635 445.6022 L337.8499 444.5466 L338.0443 443.9294 L338.302 443.4626 L338.8132 443.1276 L339.7714 442.663 L340.3831 442.351 L340.8695 441.9754 L341.3474 442.0183 L341.902 442.0436 L342.5076 441.8834 L342.841 441.5315 L343.0229 441.0593 L343.0572 439.8917 L342.7137 438.5187 L342.0707 437.7559 L341.409 437.2822 L340.8513 436.767 L340.379 436.0464 L340.0517 435.1824 L340.1123 434.6067 L340.4043 433.9765 L340.9529 433.482 L341.705 433.0144 L341.9586 432.6817 L342.098 432.1604 L342.104 431.5961 L342.3551 431.3616 L342.9198 431.3432 L343.6406 432.51 L344.2791 432.7162 L344.911 432.6817 L346.8048 436.8314 L347.8423 440.019 L348.2757 441.7124 L348.8722 444.1786 L349.2491 445.1575 L349.441 445.7907 L349.5627 446.414 L350.132 445.5462 L350.4573 445.0717 L350.8776 444.8011 L351.3383 444.7735 L351.6701 444.696 L351.8934 444.6148 L351.9166 444.4645 L351.5277 442.4737 L351.119 440.6461 L351.1549 440.4222 L351.311 440.1784 L351.9136 439.9477 L352.5844 439.8059 L352.9774 439.8465 L353.2199 439.9607 L354.6615 446.4148 L356.2506 446.2852 L356.2663 445.1108 L356.0294 443.9486 L355.7515 442.699 L355.1424 440.3724 L355.2454 439.0676 L354.4215 436.6988 L354.2155 434.5699 L354.9019 434.4327 L355.0903 435.187 L355.1934 435.8394 L355.4338 436.5945 L355.9834 436.56 L356.0496 436.2028 L355.942 435.6853 L355.8192 435.1456 L355.6692 434.553 L357.2422 435.2913 L357.4675 435.2184 L357.7973 435.1456 L358.2267 434.954 L358.6237 434.888 L359.0046 434.8819 L359.2081 435.1916 L359.3839 435.5995 L359.6547 435.5458 L359.79 435.2606 L359.9527 435.0038 L360.2103 434.8006 L360.6629 434.8811 L361.267 435.0444 L361.7277 435.2882 L362.009 435.5657 L362.5541 435.5588 L363.2042 435.1931 L363.7058 434.9225 L364.0402 434.6718 L364.1528 434.0685 L364.3695 433.5809 L364.7074 433.0313 L364.7625 432.6464 L364.6948 432.1581 L364.4266 431.4168 L365.1555 431.1017 L366.8355 430.1534 L367.6079 429.8958 L368.3448 430.0215 L368.8404 429.9502 L369.2606 429.7194 L369.6546 429.307 L372.6091 428.1854 L373.3117 428.0804 L373.7992 427.9447 L374.3276 427.6334 L374.9524 427.2838 L375.7369 427.0638 L376.8688 427.0132 L377.1052 427.1321 L377.2815 427.3889 L377.9549 430.332 L379.7203 430.1664 L381.4003 430.0315 L381.662 429.8191 L380.3057 427.431 L380.5709 427.4494 L383.8931 425.9959 L384.2225 424.7854 L385.2817 424.0325 L385.9662 423.5173 L386.5567 422.8626 L387.28 421.9396 L387.6801 421.255 L388.0645 420.5573 L388.8383 418.9044 L389.1904 418.0036 L389.5147 417.8265 L389.8541 417.7728 L389.9562 417.421 L389.6445 417.1902 L389.8814 416.3706 L389.7975 415.5296 L391.611 408.7101 L392.7293 374.5357 L393.2178 375.3347 L395.4939 379.0196 L398.6913 377.286 L395.7106 373.0045 L400.3173 370.2404 L404.9316 367.4303 L404.2735 365.255 L407.579 359.998 L408.2296 358.5887 L407.7416 355.3913 L407.0916 351.8142 L408.609 351.4354 L407.7497 347.9205 L406.2869 347.2158 L406.8203 344.5527 L409.3217 342.9892 L409.4763 339.0248 L408.2296 335.5565 L405.0322 335.9353 L404.9862 334.8602 L395.2312 335.9982 L394.4725 333.2338 L402.1055 332.5758 L403.2981 331.6541 L400.6426 327.9687 L396.9572 323.6875 L396.3152 322.3409 L392.7384 319.7398 L393.9765 316.1547 L389.8657 312.5858 L397.724 309.4968 L393.7678 301.9101 L396.5859 300.555 L399.938 300.601 L400.1547 297.8916 L401.3468 297.6746 L402.3307 297.8456 L406.6582 297.1868 L406.1242 295.3524 L409.8556 295.344 L419.0767 295.9483 L422.8702 294.8647 L424.1628 294.3148 L425.363 294.3225 L425.7883 295.561 L427.043 295.5694 L428.9857 290.9542 L427.631 286.023 L426.0136 280.8823 L425.7342 281.7412 L425.417 282.9415 L422.9783 283.917 L420.1602 283.2667 L418.5135 281.4828 L417.4785 278.8975 L416.6733 275.9471 L415.8722 274.1417 L414.423 271.9759 L411.6518 271.0195 L403.4142 269.7724 L403.4142 269.1765 L411.3811 269.6643 L413.8198 270.965 L413.6031 267.4969 L412.6383 261.8152 L412.3984 259.6739 L413.7345 259.5435 L413.7107 258.89 L422.5418 258.3823 L422.6691 258.9383 L424.9296 258.8808 L424.4916 256.1489 L415.9656 257.7357 L418.0695 253.831 L418.6195 251.5815 L425.9737 251.2578 L425.9979 252.0662 L428.9564 251.9888 L428.9756 251.053 L430.8729 251.1006 L430.9471 249.5543 L428.6109 249.5398 L428.6271 248.5365 L429.7485 248.1116 L431.1406 248.1807 L432.3458 246.4066 L432.1291 244.6187 L425.2978 238.0125 L427.142 236.8896 L436.1393 238.0608 L439.2368 239.0449 L441.5588 239.6869 L443.6263 239.3701 L443.789 235.1423 L445.1437 234.8171 L445.1902 232.8045 L443.4556 231.6662 L442.5428 230.4819 L443.5101 229.9864 L445.1437 229.9941 L443.0843 227.3931 L444.5477 226.9589 L444.8189 225.6043 L443.0762 225.9211 L442.3175 223.6453 L438.0447 224.9539 L436.798 222.9488 L446.4904 219.8515 L449.7424 223.2656 L451.3138 218.4969 L453.3273 211.4599 L453.544 209.0214 L455.17 203.7639 L458.9013 192.104 L455.7039 190.2078 L454.9447 190.4786 L452.5059 187.8773 L457.5461 185.9265 L456.2454 184.2465 L458.6301 182.7829 L457.7087 179.0976 L463.1363 176.9926 L465.3043 180.2981 L470.9324 178.6641 L471.2032 178.0136 L469.1438 175.4667 L465.8463 172.3314 L455.8741 176.342 L452.9479 171.9333 L454.0536 167.1747 L454.9164 166.6883 L458.9539 165.2253 L460.3899 164.1145 L456.9485 161.2691 L455.7837 158.3968 L455.7291 157.2046 L455.4311 155.7953 L456.163 154.007 L455.1063 150.9183 L454.4017 150.2946 L452.1352 148.4863 L448.9549 150.4304 L447.4198 147.7 L444.1143 150.8708 L439.5075 146.942 L437.4754 149.4346 L430.6198 145.37 L429.6444 144.7194 L429.1297 143.5003 L429.6444 142.9311 L430.7552 142.4439 L432.3271 142.1454 L433.5733 141.7388 L433.9259 139.7341 L432.2377 138.2895 L431.479 135.9594 L432.6171 134.2247 L437.1152 128.4261 L436.7359 127.8844 L429.5904 130.819 L429.0943 129.8355 L426.6096 128.868 L430.8825 127.2338 L430.2405 125.6164 L428.7771 126.2126 L427.6391 126.0499 L424.8129 124.6328 L424.7588 123.7659 L427.9563 122.0311 L430.7284 119.9803 L427.9022 117.7499 L424.3795 115.2026 L421.0815 111.6885 L420.9366 110.2223 L425.4716 110.2522 L429.7161 110.3811 L432.7509 110.2998 L435.118 110.0351 L436.8793 109.7642 L437.4213 109.5747 L437.6921 108.0302 L438.4144 107.6711 L438.9655 108.7346 L440.7814 109.0867 L442.2175 107.5698 L442.6782 107.19 L443.9693 105.1238 L443.9764 102.9861 L443.9693 102.116 L442.8312 102.2518 L441.9912 102.0623 L440.8532 101.0595 L439.7692 100.7073 L438.5498 100.5991 L439.3625 98.9456 L438.4144 98.133 L436.301 97.3205 L434.187 95.3056 L433.9188 97.2276 L432.4256 95.3692 L431.0168 95.3961 L429.6621 93.8515 L430.0955 93.4993 L430.3395 92.7681 L430.3395 91.9279 L430.5021 91.0064 L431.1618 90.2275 L432.2185 89.8209 L433.5192 89.8209 L434.0789 90.6542 L434.0612 91.8258 L434.5396 92.6054 L434.6477 94.3395 L435.271 95.2334 L436.0666 96.27 L437.8724 97.1033 L438.6311 97.51 L441.9463 97.1639 L442.7863 96.9207 L443.3828 96.6491 L442.9489 95.782 L441.9639 95.0708 L440.9345 94.1769 L439.3898 92.0906 L437.9265 89.7326 L436.798 88.8993 L436.3373 87.7346 L434.7836 86.8874 L433.645 85.1533 L432.7878 83.7783 L431.3962 84.422 L429.8788 82.5521 L427.5487 78.3794 L426.7894 76.4012 L426.0307 74.4775 L425.2453 72.7156 L424.4593 71.524 L425.1099 70.5755 L425.462 69.6808 L426.2747 69.004 L427.0334 68.9227 L427.4496 68.4147 L426.5727 66.7273 L424.2699 62.473 L422.9692 61.3082 L421.5058 59.953 L418.9317 57.6233 L416.3303 55.645 L416.7379 55.1554 L421.8321 48.4899 L421.2361 47.9481 L411.8685 41.6693 L413.2778 36.7924 L410.289 34.0197 L409.0277 32.7604 L406.9208 30.5977 L404.7695 28.6631 L256.5827 0.0 L248.0986 16.5344 L247.1747 18.4147 L246.5716 19.0371 L245.973 19.3118 L245.4593 19.5474 L244.7617 19.4146 L241.2051 17.2972 L240.4111 19.5812 L237.5177 19.1368 L237.0863 19.3509 L235.9225 19.1207 L234.0455 18.78 L232.9665 18.5697 L231.781 18.5896 L231.2198 19.0363 L230.5247 19.5896 L229.8069 21.1046 L228.1244 25.5987 L228.3436 25.9617 L227.5889 26.7368 L226.1311 26.1367 L224.94 27.558 L224.2273 28.6892 L223.5974 29.6346 L223.3292 30.1972 L224.0015 30.9001 L223.7752 31.2946 L222.6493 31.5885 L222.3119 32.8087 L222.1386 33.8616 L221.1031 35.0511 L219.7322 35.6742 L218.5588 35.5906 L217.1581 35.4079 L216.0806 35.4947 L214.932 36.5591 L213.8263 37.4792 L212.275 38.6196 L208.969 39.4883 L207.292 40.3555 L206.0291 41.5204 L205.0361 42.9907 L205.5563 44.392 L205.6877 46.5814 L205.0416 49.0102 L203.3237 50.1352 L199.7201 53.0612 L188.2452 54.0872 L173.3631 55.6488 L155.9499 62.9097 L144.2997 70.6668 L138.3321 74.413 L136.5925 76.3574 L135.9909 78.2888 L140.9356 86.8859 L144.2775 92.6637 L146.0793 95.9838 L146.9294 99.607 L148.7312 101.4899 L150.1026 103.6843 L151.423 106.2586 L151.9256 108.812 L150.8118 111.189 L150.4536 112.7719 L148.3766 114.9555 L146.5111 118.554 L140.7391 123.2787 L139.7566 127.5951 L138.86 129.8615 L137.4724 136.0407 L112.4939 144.1847 L111.2296 146.9527 L109.691 151.8566 L111.2432 153.8474 L110.9674 154.821 L106.4961 160.5702 L104.5392 159.1463 L103.5997 160.7175 L102.4136 160.0715 L95.4161 173.6701 L94.4574 176.6949 L93.5663 180.6272 L92.3707 186.8079 L91.1766 192.9279 L90.3866 196.4711 L89.3182 201.4994 L87.7332 210.0569 M156.4222 323.6361 L157.9947 321.2742 L158.9059 321.5373 L159.6646 321.7397 L160.4233 321.88 L159.6464 323.3485 L161.3901 324.37 L160.6193 325.9121 L156.4222 323.6361 M210.005 138.2918 L223.7964 139.0636 L235.0688 113.0504 L233.3342 106.1135 L226.5317 95.6278 L227.2121 90.6258 L221.8032 88.2924 L220.8091 84.1734 L223.7 84.4013 L224.7951 88.0376 L225.6538 87.8205 L226.071 86.1815 L232.9185 85.5423 L232.6619 79.7299 L234.6526 77.302 L236.1079 78.819 L238.7189 79.967 L241.0313 78.2666 L251.3203 79.2065 L256.2761 78.4968 L254.9673 74.278 L255.7346 71.3459 L258.9224 65.7213 L267.3807 59.6453 L270.1039 59.0951 L274.0277 59.9653 L277.6101 59.9461 L277.1277 56.7162 L278.3415 52.9039 L269.2664 52.3184 L266.3457 44.514 L276.7347 46.4003 L293.6135 47.2298 L286.0128 31.3015 L287.801 29.7114 L291.3454 35.8247 L294.1524 34.9222 L290.8469 29.4535 L288.6223 28.419 L288.7279 27.0614 L290.5706 27.0177 L291.692 28.8495 L293.3316 30.2885 L294.5727 34.055 L296.6518 37.2728 L298.8764 43.1519 L301.4586 46.3696 L307.9803 51.4052 L318.2616 49.8259 L322.8699 50.8588 L308.5692 53.7188 L310.1579 59.3199 L312.8194 59.3997 L314.7707 70.465 L314.4247 81.6574 L319.3688 80.1964 L321.4474 84.0729 L326.9528 83.1736 L328.1888 85.5331 L332.5708 85.5899 L332.1212 76.8255 L328.7505 75.7021 L326.5032 70.7021 L319.6497 71.4327 L321.453 66.4702 L339.1435 66.7134 L343.975 68.3993 L343.7503 75.3653 L359.7723 75.0906 L353.035 140.7422 L350.8023 148.3912 L346.8245 151.3832 L347.3366 155.862 L354.6125 167.0726 L352.7087 172.6337 L357.8423 175.8948 L356.6037 178.648 L361.4463 180.3526 L360.2967 181.8339 L359.7117 185.2706 L357.0482 184.4682 L355.4141 189.8419 L347.9383 189.9853 L346.5042 193.4603 L340.6463 195.7516 L341.5974 198.4618 L337.5301 207.5095 L331.9995 215.2615 L328.992 215.3313 L328.1984 215.8421 L328.0105 218.154 L326.1239 218.1141 L324.5454 218.7193 L322.0031 219.1481 L317.2003 218.806 L316.823 219.4051 L319.384 220.5595 L319.1425 221.2314 L318.6601 221.8374 L318.9329 222.6735 L318.8339 223.8164 L316.9755 225.0559 L317.1478 225.938 L312.0561 232.9264 L300.5291 231.341 L298.253 229.4012 L299.0769 227.3793 L302.8487 228.5904 L310.5039 216.8201 L308.8561 215.2914 L312.8694 209.7823 L307.5908 204.6261 L302.2092 204.58 L289.8195 210.9667 L288.2541 210.0746 L286.1214 208.2183 L283.5013 205.5826 L281.2091 206.1771 L282.0976 208.6908 L274.8329 210.2165 L268.886 209.2998 L260.6883 217.5841 L255.0531 215.5468 L252.0552 216.7588 L248.5471 214.5903 L251.4157 212.0521 L261.3556 203.1609 L259.1618 198.553 L263.8186 196.0845 L266.1816 194.2742 L262.8765 191.0094 L261.3915 188.6314 L260.9177 186.6292 L263.0841 180.7216 L263.4418 161.4033 L243.7439 163.8989 L245.3153 161.0803 L242.5189 156.363 L244.5753 156.4443 L246.5549 152.1842 L249.3543 152.3284 L248.5113 145.6638 L234.047 147.5335 L212.3356 145.7682 L210.005 138.2918 M228.6992 302.0566 L230.9409 300.9768 L232.6094 300.6401 L233.41 300.703 L234.9804 301.0282 L234.8723 301.6509 L232.7877 301.4615 L230.4323 302.0566 L228.9159 302.6256 L228.6992 302.0566 M230.8975 467.3431 L230.9177 467.2074 L231.1955 467.0824 L231.4905 467.1637 L231.9406 467.3569 L232.1543 467.4918 L232.4811 467.2534 L232.4255 467.0541 L232.1654 466.7881 L231.7608 466.6823 L231.6724 466.378 L231.6724 466.2339 L231.7057 466.0844 L231.9603 465.9679 L232.2649 465.8682 L232.2927 465.6352 L232.1487 465.1369 L232.2209 465.0702 L232.4013 465.0204 L232.4811 464.9982 L232.6084 465.2366 L232.7084 465.5915 L232.9079 465.8904 L233.1074 466.0177 L233.4454 465.9901 L233.6999 465.8682 L233.9106 465.7517 L234.0212 465.5026 L233.8646 464.9261 L233.5823 465.0143 L233.3352 464.2209 L233.6176 464.1327 L234.0101 463.9901 L234.4703 463.8353 L234.6087 463.9403 L234.6698 464.112 L234.7804 464.1503 L234.9299 464.0507 L234.8137 463.7686 L234.7193 463.314 L234.592 462.6824 L234.8137 462.5053 L234.9744 462.2117 L234.9966 461.935 L234.8026 461.6245 L234.4425 461.3309 L234.1818 460.5996 L233.9661 460.0622 L233.6282 459.6629 L233.4065 459.4858 L233.3676 459.2589 L233.8828 459.081 L234.293 459.0036 L234.2096 458.6326 L233.955 458.3336 L233.75 457.9404 L233.6115 457.4191 L233.3565 456.8595 L232.9135 456.5053 L232.8968 456.3559 L233.2125 456.1282 L233.2069 455.9565 L233.3565 455.9013 L233.6004 456.1343 L233.8995 456.2892 L234.1046 456.2777 L234.2541 456.5329 L234.243 456.7598 L233.9823 456.9377 L233.8884 457.2474 L234.049 457.5525 L234.4314 457.6468 L234.6309 457.6299 L234.7137 457.7909 L234.7304 458.1726 L234.786 458.4885 L234.6915 458.5828 L234.7637 458.8434 L234.8966 458.9929 L235.0628 459.0205 L235.2234 459.2367 L235.3012 459.5356 L235.3951 459.7794 L235.5229 459.8461 L235.8164 460.3114 L235.9215 460.3888 L236.0766 460.6272 L236.0877 460.6878 L235.9493 460.7598 L235.9993 460.9315 L236.2928 461.2811 L236.2872 461.4191 L236.2372 461.541 L236.3039 461.7909 L236.221 461.935 L236.0271 462.0845 L236.0599 462.2784 L236.315 462.306 L236.6029 462.3336 L236.8691 462.5498 L237.052 462.8817 L237.257 462.9928 L237.8384 463.3585 L238.2542 463.7349 L238.2875 464.0009 L238.5421 464.3504 L238.5476 464.5666 L238.8467 465.1254 L238.98 465.4911 L239.0406 465.8736 L238.9856 466.1672 L238.8138 466.3611 L238.6532 466.2729 L238.1708 465.6022 L237.6061 464.6992 L237.207 463.7847 L237.0853 463.6352 L236.9519 463.6413 L236.8524 463.8069 L236.8469 464.0453 L236.9964 464.3443 L237.1348 464.9154 L237.2788 465.281 L237.4343 465.4972 L237.595 465.9732 L237.7889 466.4224 L237.8273 466.8655 L237.7167 467.4971 L237.4727 467.9847 L237.3621 468.3005 L237.2015 468.3503 L237.0742 468.1893 L236.9353 467.3753 L236.714 466.9544 L236.509 466.854 L236.42 466.716 L236.3872 466.2729 L236.3817 465.8069 L236.3761 465.4029 L236.3205 465.1254 L236.1488 465.0319 L235.9326 465.0649 L235.6447 464.7598 L235.5613 464.4056 L235.578 464.0844 L235.5285 463.8568 L235.4063 463.8353 L235.3456 463.8905 L235.2845 464.1174 L235.3179 464.4723 L235.8053 465.5577 L235.9048 465.8789 L235.6725 466.4163 L235.3345 466.7107 L235.2623 466.91 L235.1567 466.995 L234.9592 466.4056 L234.3263 466.6179 L234.5647 467.33 L234.5976 467.6244 L234.9744 468.3005 L235.2734 468.4829 L235.434 468.4385 L235.5891 468.4998 L235.6836 468.7827 L235.2234 468.982 L234.9744 469.2587 L235.2123 469.6358 L235.2456 469.9677 L234.9244 470.2613 L234.6804 470.2452 L234.5253 470.328 L234.5198 470.4668 L234.6258 470.6914 L234.6531 470.8102 L234.4829 470.8723 L234.1601 470.2245 L233.7055 469.3921 L233.8767 469.2702 L234.1046 469.2702 L234.2207 469.1314 L233.999 468.5496 L233.6999 467.4918 L233.2236 466.4608 L233.1514 466.3335 L232.9685 466.3665 L232.8468 466.5167 L232.8301 466.6884 L233.2847 467.7854 L233.5838 468.5052 L233.6611 468.6991 L233.3898 468.8378 L233.3231 469.0371 L233.1958 469.1705 L232.8301 469.2755 L232.6973 469.2142 L232.6084 469.159 L232.3038 469.3031 L232.0931 468.9429 L232.0133 468.8401 L231.8527 468.6439 L231.4567 468.4101 L230.996 468.2269 L230.9248 468.0613 L230.9415 467.6918 L230.8975 467.3431 M232.3124 473.0102 L232.7836 472.5725 L233.1766 472.4115 L233.5035 472.39 L233.6146 472.7273 L233.6974 472.9933 L233.2878 473.398 L232.6503 473.7414 L232.4402 473.487 L232.3124 473.0102 M234.9057 440.1209 L235.6598 438.8008 L236.1316 437.3864 L236.2493 436.8207 L236.7206 436.3492 L237.0035 436.7026 L237.0035 438.0703 L237.0979 438.8008 L237.593 438.8484 L238.9836 438.4237 L240.1625 438.1408 L240.4924 438.1645 L240.5631 440.0972 L240.8222 441.3705 L238.8896 441.7002 L237.0979 441.5821 L236.9328 441.0639 L236.4377 440.7105 L234.9764 440.5456 L234.9057 440.1209 M235.3951 299.6831 L235.9003 298.7651 L236.5484 298.3701 L236.9792 297.8786 L237.4424 297.7528 L237.8097 297.8786 L239.3175 297.4782 L239.7327 297.0626 L240.0292 296.3448 L240.2641 294.9705 L241.0056 293.5816 L243.1473 291.3254 L243.9318 290.9258 L244.7354 290.7134 L244.8703 290.2333 L245.4194 289.9565 L246.2387 288.6282 L247.2853 288.3414 L247.6758 288.5975 L248.5855 290.3123 L249.2634 293.7918 L249.2068 294.6729 L248.4158 295.7006 L247.1004 296.7397 L246.4675 297.1216 L246.2852 297.4629 L245.578 298.1707 L245.2855 298.2781 L244.4713 299.331 L244.3793 299.6677 L244.1035 299.7597 L243.9505 300.1731 L243.3453 300.93 L243.0781 301.5197 L242.3896 302.3925 L241.3183 302.5297 L237.645 301.1831 L235.5785 300.0197 L235.3951 299.6831 M237.1702 362.0093 L237.3667 361.5423 L237.8273 361.264 L238.3895 361.3115 L239.223 361.4135 L239.5008 361.6236 L239.6564 361.9081 L239.9206 362.1588 L239.8392 362.4433 L239.4872 362.4433 L239.1755 362.26 L238.0779 362.1243 L237.5904 362.1649 L237.1702 362.0093 M251.7436 451.3209 L251.8188 450.9568 L251.7986 450.7652 L251.8809 450.6556 L252.1209 450.6487 L252.2648 450.8679 L252.4846 451.2251 L252.7659 451.8974 L252.8346 452.2332 L252.8619 452.5835 L252.7866 452.6379 L252.4159 452.618 L251.9153 452.5973 L251.8052 452.3911 L251.7708 451.705 L251.7436 451.3209 M264.6167 398.7778 L264.6955 398.3898 L265.487 398.3016 L267.0458 398.1636 L267.7818 398.1146 L268.8941 398.6788 L270.0483 399.0561 L271.1818 398.7923 L272.0744 398.478 L272.728 397.6729 L272.9796 396.7935 L273.2564 396.2277 L273.8469 396.391 L274.3121 396.7682 L275.6148 396.0675 L276.3488 395.5231 L276.571 395.3798 L277.4171 394.8323 L278.3233 394.1239 L279.1396 393.3235 L279.6801 392.5943 L280.4974 391.35 L281.352 390.2689 L281.9304 389.9799 L282.6972 389.8664 L283.0493 390.9727 L283.3008 392.3682 L283.5271 393.4492 L283.3129 394.6184 L282.7032 395.806 L282.0435 396.881 L281.3268 397.7734 L280.4468 398.9426 L280.2645 399.7445 L280.2963 400.4767 L280.6105 402.1734 L280.8994 403.4308 L281.2768 404.4742 L281.8799 405.681 L282.433 406.5734 L282.9235 408.0569 L283.615 410.1185 L284.3439 412.4446 L284.0004 412.6086 L282.8982 413.1353 L281.4652 413.7395 L280.4468 413.6513 L278.9385 413.7142 L276.2649 413.9518 L275.4542 413.8913 L274.0984 413.7893 L273.3357 413.5984 L272.477 413.2994 L271.9486 412.9475 L271.7476 412.3434 L271.6097 411.2125 L271.9238 410.6843 L271.9486 410.1062 L271.7223 409.0375 L271.6218 408.7485 L270.9055 408.7738 L270.1387 408.5599 L269.4725 407.8054 L268.6173 407.1392 L267.7949 406.5105 L267.6116 405.5928 L267.3353 404.3738 L266.9453 403.4308 L266.6943 403.0911 L266.4175 402.211 L266.2791 401.5325 L265.9149 401.0548 L265.3491 400.7527 L265.0597 400.2628 L264.8839 399.5084 L264.6167 398.7778 M281.7147 463.3983 L281.793 463.025 L282.2077 462.6655 L282.3598 462.3367 L282.2926 461.7855 L282.0461 460.999 L282.9775 460.4172 L283.6397 461.6283 L283.8989 461.7249 L284.2419 461.6375 L284.5237 461.5233 L284.7727 461.994 L285.1526 462.0691 L285.2334 462.2232 L284.7631 462.7767 L284.5843 463.0695 L284.4232 463.4597 L284.3156 463.9227 L284.1979 464.4493 L284.1206 464.9506 L283.9292 465.3814 L283.4417 465.8713 L282.8558 466.2745 L282.0637 465.2741 L281.7657 464.5152 L281.789 463.9365 L281.7147 463.3983 M287.3822 432.7277 L287.5812 431.7817 L287.8328 431.2029 L288.1389 430.4976 L288.645 429.2978 L288.9304 428.3702 L289.3451 427.819 L290.5514 426.4965 L290.9146 426.2627 L291.2909 426.1201 L291.5829 426.1508 L291.7834 426.1722 L292.0041 426.5095 L292.5487 427.1321 L293.4048 427.8972 L294.3646 428.8179 L295.0647 429.4013 L296.0502 430.1281 L297.4251 430.9322 L298.3849 431.3991 L299.1112 431.6191 L299.6169 431.7748 L299.5891 431.9634 L299.5133 432.4755 L299.1799 433.6093 L301.1085 434.9325 L302.094 435.2897 L302.6779 435.6654 L302.8335 436.3009 L302.7168 437.122 L302.4703 437.7667 L301.6404 438.0649 L300.5509 437.3128 L299.9392 437.1863 L299.6866 437.263 L299.1133 437.8364 L299.4194 438.4206 L299.4482 438.9856 L299.3093 439.4417 L298.7203 440.3663 L297.9858 441.0462 L296.669 441.5001 L295.2097 441.4257 L294.1135 441.1083 L293.3159 440.8255 L292.5577 440.3847 L291.5167 439.9255 L290.8236 439.9715 L290.2917 440.0627 L289.8664 439.7813 L289.3972 439.349 L288.9562 438.104 L288.4632 436.9625 L288.1601 435.8003 L287.7757 434.4986 L287.3822 432.7277 M288.8011 232.6395 L288.9117 231.792 L289.8695 229.6558 L290.0907 228.7346 L290.4403 228.6978 L290.5878 228.2184 L291.4535 227.795 L291.748 227.9239 L291.5086 228.4585 L292.2274 228.6057 L291.3247 230.0056 L291.0666 231.3318 L290.7903 231.8288 L291.1222 232.0313 L291.0116 232.4186 L290.6797 232.5843 L290.017 233.2102 L289.1512 233.3022 L288.8562 233.0998 L288.8011 232.6395 M290.6948 488.7654 L291.4939 488.2526 L291.4965 487.4087 L291.9198 487.2715 L292.3244 487.3435 L293.0028 487.7084 L292.8512 488.4458 L292.3183 488.9363 L291.0429 489.3318 L290.6948 488.7654 M292.2208 485.7591 L292.5224 485.0838 L292.9219 484.9558 L293.4099 484.7665 L293.9665 485.0363 L293.8266 485.638 L293.1674 486.0136 L292.7063 486.1684 L292.2208 485.7591 M295.7628 266.6294 L296.7867 264.7259 L297.1281 263.5041 L297.9181 263.432 L298.8344 263.6299 L299.3916 264.1683 L299.8947 265.0127 L300.1099 266.1447 L300.0563 266.8097 L299.6608 266.8994 L299.5351 267.2223 L299.2476 267.6181 L298.8703 267.6717 L298.8168 267.9593 L298.6011 267.6357 L297.5772 267.2768 L296.7685 267.2047 L295.9421 266.9355 L295.7628 266.6294 M304.0044 251.5079 L304.9303 247.8347 L308.8268 248.7927 L307.7408 252.8493 L305.3137 252.1782 L304.0044 251.5079 M352.1005 203.0681 L353.3466 199.383 L355.2707 198.082 L359.1455 197.8657 L363.725 197.0795 L368.7111 197.5129 L368.5211 199.1659 L369.2798 200.1954 L370.3366 199.7351 L370.7159 198.0007 L371.9626 197.1876 L372.938 197.5405 L373.832 197.5129 L374.2387 196.646 L373.6153 195.7248 L374.0487 193.3675 L373.9406 192.8796 L367.9524 191.037 L366.6244 190.441 L366.191 189.5465 L367.7084 186.7013 L367.5998 186.0508 L362.0449 182.5013 L363.8063 179.656 L373.832 185.3466 L380.0916 189.4921 L378.3034 189.4652 L378.1675 189.8718 L381.907 192.9064 L385.4024 195.9956 L387.8412 197.4047 L388.4645 198.326 L388.3564 198.8407 L386.7577 199.2741 L381.9883 200.9272 L377.7069 202.5534 L374.076 203.9349 L372.2333 203.1226 L368.6025 203.5015 L368.5484 205.0188 L367.8438 206.4555 L366.5971 206.5092 L364.1856 205.9132 L361.8282 207.2142 L359.9042 206.8076 L358.5494 205.6961 L358.0615 204.748 L357.3028 205.4254 L356.8694 206.3198 L354.1599 206.4824 L353.1572 206.184 L352.2086 204.3146 L352.1005 203.0681" stroke-dasharray="" fill="none" fill-opacity="1.0" stroke="#ff0000" stroke-opacity="1.0" stroke-width="1.0px" stroke-linecap="butt" stroke-linejoin="miter" stroke-dashoffset="0.0px"/>
</g>
</svg>