<?xml version="1.0" standalone="no"?>
<!DOCTYPE svg PUBLIC "-//W3C//DTD SVG 1.1//EN" "http://www.w3.org/Graphics/SVG/1.1/DTD/svg11.dtd">
<svg width="512px" height="512px" version="1.1" xmlns="http://www.w3.org/2000/svg" xmlns:inkscape="http://www.inkscape.org/namespaces/inkscape">
<g id="layer" inkscape:groupmode="layer" inkscape:label="layer">
<path d="M0.0 41.1437 L1.2804 51.7495 L3.2593 51.4799 L6.2276 76.017 L4.1905 76.2867 L5.1217 83.8365 L7.1006 83.5669 L10.1271 109.0028 L8.09 109.1826 L8.9631 116.6426 L11.0001 116.4628 L14.0266 141.5392 L11.9895 141.8088 L12.9208 149.4486 L14.9578 149.179 L17.9261 174.6148 L15.8891 174.7946 L16.8203 182.3445 L18.7991 182.0748 L21.8838 207.4208 L19.8468 207.6006 L20.778 215.0606 L22.7568 214.8808 L25.7251 240.2268 L23.7463 240.4964 L24.6193 248.0463 L26.6564 247.7766 L29.6828 273.0327 L27.704 273.2124 L28.577 280.7623 L30.6141 280.5825 L33.5824 305.8386 L31.6617 306.0183 L32.4765 313.6581 L34.4554 313.4783 L37.5401 338.6445 L35.503 338.9141 L36.4342 346.5538 L38.4131 346.2842 L41.4396 371.8098 L39.5189 372.0795 L40.3338 379.6293 L42.3708 379.3597 L45.3973 404.6157 L43.3602 404.7954 L44.2915 412.2554 L46.2703 412.0756 L49.2968 437.1518 L47.3179 437.4215 L48.191 444.9713 L50.1116 444.7016 L53.1963 470.0475 L51.1593 470.2272 L52.4397 480.8329 L63.0324 479.5746 L62.7996 477.5074 L86.9533 474.6313 L87.1861 476.6086 L94.6941 475.7098 L94.5195 473.7325 L118.615 470.8564 L118.8478 472.8337 L126.3558 472.0248 L126.123 469.9576 L150.3931 466.9916 L150.6259 469.1487 L157.9593 468.2499 L157.7265 466.1827 L182.1712 463.3066 L182.404 465.2839 L189.912 464.3851 L189.6792 462.4078 L213.8911 459.4418 L214.1239 461.509 L221.6319 460.6102 L221.3991 458.543 L245.5528 455.6669 L245.7856 457.6442 L253.2354 456.7454 L253.0026 454.7681 L269.0663 452.8806 L269.2409 454.858 L294.966 451.8021 L294.7914 449.7349 L310.3312 447.9373 L310.5641 449.9146 L319.0033 448.9259 L318.7705 446.8587 L342.9242 443.9826 L343.157 446.0498 L350.5486 445.151 L350.3158 443.0838 L374.4695 440.2077 L374.7023 442.185 L382.2103 441.2862 L382.0357 439.3988 L406.1894 436.5227 L406.4222 438.4101 L413.9884 437.5113 L413.8138 435.534 L437.9675 432.6579 L438.2003 434.6352 L445.6501 433.8263 L445.4173 431.7591 L469.4546 428.883 L469.6874 430.9502 L477.079 430.0514 L476.9044 427.9842 L501.2327 425.108 L501.4655 427.0854 L512.0 425.8271 L510.7196 415.2214 L508.7407 415.4011 L505.656 389.6957 L507.6931 389.4261 L506.8201 382.2358 L504.8412 382.4156 L501.6983 356.2608 L503.7354 355.9911 L502.8041 348.5312 L500.8253 348.8008 L497.7406 322.9156 L499.7777 322.7359 L498.8464 315.186 L496.8676 315.3658 L493.7247 289.5705 L495.8199 289.3008 L494.8887 281.751 L492.9099 282.0206 L489.767 256.0455 L491.8622 255.7759 L490.931 248.3159 L488.9521 248.4957 L485.8093 222.7902 L487.9045 222.6104 L486.9733 214.9707 L484.878 215.1504 L481.8515 189.5348 L483.8886 189.2652 L483.0156 181.5356 L480.9203 181.8052 L477.8938 156.0997 L479.9309 155.83 L479.1161 148.3701 L477.0208 148.6397 L473.9943 122.7544 L475.9732 122.5746 L475.2166 115.9236 L414.3958 122.4848 L433.8934 284.717 L414.8614 287.0538 L418.2953 315.9949 L437.3273 313.748 L442.8564 360.0357 L437.0363 360.7547 L436.8035 358.7774 L429.1208 359.6762 L429.3536 361.6535 L405.3164 364.5296 L405.0836 362.5523 L397.4591 363.4511 L397.6919 365.4284 L373.5965 368.3045 L373.3636 366.3272 L365.7974 367.226 L366.0302 369.2033 L341.993 372.0795 L341.7601 370.1021 L334.1357 371.0009 L334.3685 373.0681 L309.982 375.9443 L309.7492 374.0568 L302.6486 374.8657 L286.5268 234.6543 L299.9132 232.2275 L298.9237 224.7675 L295.1988 225.3068 L295.7226 229.1716 L239.849 236.8114 L239.3252 231.6882 L233.9707 232.3174 L234.8437 239.6875 L236.8808 239.5077 L239.849 264.3144 L237.812 264.4942 L238.685 271.7744 L240.7221 271.5946 L243.6903 296.3114 L241.6533 296.4912 L242.5845 304.041 L244.5634 303.8612 L247.4153 328.4881 L245.4364 328.7578 L246.3094 336.1278 L248.3465 335.8582 L253.701 380.618 L246.0766 381.5168 L246.3094 383.584 L221.8065 386.4601 L221.5737 384.4828 L214.2403 385.3816 L214.4149 387.3589 L190.0284 390.3249 L189.7956 388.2577 L182.4622 389.1565 L182.6368 391.2237 L158.4249 394.0998 L158.1921 392.1225 L150.8005 392.9314 L151.0333 394.9986 L127.1706 397.7849 L126.9378 395.8075 L118.033 396.8861 L114.8901 370.0122 L116.9271 369.8325 L115.9377 362.2827 L113.726 362.5523 L110.6414 337.3862 L112.853 337.1165 L111.8054 329.3869 L109.5937 329.6566 L106.509 304.6702 L108.6625 304.4005 L107.7313 296.8507 L105.5196 297.1203 L102.8423 275.1898 L104.9958 274.9202 L103.89 266.3816 L101.6783 266.5614 L98.3026 239.1482 L100.4561 238.8786 L99.4666 231.3287 L97.3132 231.5085 L94.8687 211.735 L97.0222 211.4654 L96.0909 204.5447 L93.9375 204.8143 L90.7364 179.6481 L92.9481 179.3785 L91.9586 171.6488 L89.8052 171.8286 L86.6623 146.8421 L88.8157 146.5725 L87.8845 138.8428 L85.731 139.0226 L82.53 114.126 L84.6834 113.8563 L83.694 106.0368 L81.5987 106.2166 L78.3976 81.1402 L80.5511 80.8705 L79.5617 73.3206 L77.4664 73.5004 L74.3817 49.0531 L76.477 48.7835 L75.1965 37.4587 L74.6727 34.8521 L90.62 32.9647 L90.4454 31.1671 L58.8419 34.4926 L1.6878 40.964 L0.0 41.1437" stroke-dasharray="" fill="none" fill-opacity="1.0" stroke="#ff0000" stroke-opacity="1.0" stroke-width="1.0px" stroke-linecap="butt" stroke-linejoin="miter" stroke-dashoffset="0.0px"/>
</g>
</svg>