<?xml version="1.0" standalone="no"?>
<!DOCTYPE svg PUBLIC "-//W3C//DTD SVG 1.1//EN" "http://www.w3.org/Graphics/SVG/1.1/DTD/svg11.dtd">
<svg width="512px" height="512px" version="1.1" xmlns="http://www.w3.org/2000/svg" xmlns:inkscape="http://www.inkscape.org/namespaces/inkscape">
<g id="layer" inkscape:groupmode="layer" inkscape:label="layer">
<path d="M0.0 174.1752 L2.7638 175.4162 L5.4736 175.9808 L5.7362 177.2129 L5.9854 178.3811 L6.2936 180.8998 L6.7236 183.2629 L7.1536 185.6256 L9.0696 186.2129 L9.174 186.1812 L9.5388 186.1747 L9.8091 186.253 L10.1464 186.2852 L10.2965 186.4189 L10.3745 186.6125 L10.7728 186.7348 L11.1274 190.528 L14.3605 194.4237 L15.535 195.7622 L16.187 196.4024 L16.8856 197.3992 L16.9297 197.4829 L19.9689 196.5599 L21.2565 196.0702 L22.55 195.6225 L23.9558 195.2091 L24.7758 195.0991 L26.865 194.4643 L27.9485 193.9003 L28.544 193.7146 L30.267 193.3665 L31.2844 193.0169 L31.9096 192.6742 L32.4133 192.1567 L33.4161 191.1951 L34.9225 189.4748 L35.1858 189.1425 L35.2979 189.1212 L35.4305 188.9583 L35.3809 188.675 L35.3065 188.6042 L35.3059 188.2447 L35.0823 186.9626 L35.2937 186.4862 L36.2898 184.1796 L36.3453 184.1969 L36.5804 183.9998 L36.927 183.9864 L37.7208 184.3346 L38.1371 184.7609 L38.8069 184.9719 L41.5781 189.6892 L42.7076 190.2067 L44.1505 190.8108 L44.2624 190.8757 L44.3304 190.9856 L44.3106 191.1129 L44.3904 190.9623 L46.1126 190.5825 L47.3082 190.4429 L47.375 190.6949 L47.582 190.6518 L51.6804 195.7127 L49.2434 198.4812 L49.2239 198.5837 L48.7646 199.0769 L48.6684 199.1343 L48.01 199.8821 L49.7031 205.631 L50.731 207.1016 L50.632 210.2924 L43.4967 213.651 L51.3057 212.4651 L53.4054 212.6607 L60.7956 214.716 L72.0221 213.0271 L72.3949 211.6006 L82.6949 210.4587 L83.7555 209.9141 L87.2735 209.1649 L87.5903 208.4311 L88.4161 207.2813 L90.1848 205.5245 L90.9694 204.9689 L91.9839 204.3401 L93.378 203.5963 L94.0319 203.4359 L94.8257 203.4889 L95.7725 203.1452 L96.0919 203.0482 L96.375 203.121 L96.8423 203.3601 L97.976 203.8612 L98.8842 204.704 L100.4373 205.8152 L100.612 206.0717 L100.7446 206.3549 L100.5916 206.7872 L100.7532 206.8248 L100.8069 206.7025 L100.9541 206.5549 L101.1682 206.5044 L101.5243 206.499 L102.1402 206.756 L102.7708 207.1278 L103.5407 207.4665 L104.69 207.7314 L105.2992 207.7304 L106.1805 207.8161 L107.4826 208.1186 L108.4185 208.4182 L109.2503 208.495 L110.3467 208.445 L111.1798 208.49 L111.957 208.9025 L112.9913 209.0045 L115.7871 210.0582 L116.0678 210.2072 L116.1813 210.379 L116.5837 210.4716 L116.7802 210.074 L116.9077 209.8977 L117.0629 209.8017 L117.1626 209.772 L117.6392 209.8319 L118.8269 210.2805 L120.003 210.8331 L120.2599 211.1807 L120.6359 211.2866 L121.1997 211.3609 L121.8711 211.4926 L122.6608 211.9105 L123.5539 212.4621 L124.3222 213.3242 L127.0943 214.5511 L127.2888 214.6224 L127.3259 214.6536 L130.0143 215.843 L130.3877 215.8251 L130.9215 215.839 L131.2448 216.0153 L131.4202 216.144 L131.5329 216.2574 L131.9565 216.7847 L132.2335 217.1888 L132.2376 217.416 L133.7805 219.0752 L133.8952 219.1124 L134.5322 219.0104 L134.8896 219.0183 L135.2515 219.1282 L135.5886 219.357 L136.0805 219.8714 L136.1712 220.2343 L136.0604 220.7894 L135.8757 221.2236 L135.8249 221.2741 L136.0447 221.5103 L136.0754 221.5177 L136.1255 221.4717 L136.4348 221.283 L136.8197 221.3018 L137.6467 221.5266 L141.0309 222.6803 L154.0877 225.7436 L154.8716 225.7476 L158.1321 225.5782 L160.2395 225.1534 L160.9081 225.1514 L161.6546 225.3747 L164.1277 225.9842 L165.2863 226.8566 L165.8134 227.4765 L166.037 227.8934 L166.3127 228.6594 L166.3392 228.7906 L166.5226 229.0015 L166.9219 232.0613 L166.4437 242.2548 L166.6136 243.5411 L166.6711 244.1292 L167.6725 246.3397 L167.1806 252.7856 L165.4492 257.6075 L167.1007 258.2659 L181.6353 264.85 L189.5415 276.4782 L189.7759 276.4188 L189.7328 276.2772 L189.8088 275.9847 L189.9484 275.802 L190.4892 275.4228 L192.9863 274.7956 L196.1271 273.7967 L198.7845 273.0621 L199.7741 273.0175 L200.5139 273.1205 L200.9231 273.3606 L201.31 274.0912 L201.3202 274.416 L201.6802 275.3248 L202.0789 275.3996 L202.1607 275.1006 L202.3843 274.7486 L202.6066 274.6437 L202.8756 274.6105 L203.2806 274.7036 L203.7256 274.8466 L204.9363 275.5283 L206.147 276.1649 L211.7241 277.2133 L212.2438 277.2163 L214.187 276.9742 L215.5992 276.8693 L218.3234 276.3658 L218.4531 276.2951 L218.5157 276.1758 L218.3199 272.9586 L220.0787 272.7809 L220.7751 271.2246 L220.9556 270.9488 L221.1405 270.78 L221.191 270.7503 L223.0827 263.5827 L224.8333 264.3946 L224.9588 263.7114 L224.9109 263.6678 L224.7761 263.4485 L224.6908 263.1377 L224.6988 262.905 L225.1482 261.2367 L225.4501 259.8778 L225.5951 259.0604 L225.8261 257.556 L226.0321 254.4317 L226.1845 253.095 L226.4755 251.5182 L226.5394 251.2845 L226.7566 250.8202 L226.9384 250.6013 L227.1783 250.5078 L227.6306 250.382 L228.7033 250.6652 L230.4264 251.1984 L231.323 251.5068 L232.2226 251.7474 L234.2165 252.4366 L236.743 252.991 L237.8058 253.3366 L238.6628 254.0505 L239.3723 254.9074 L239.9655 255.9931 L241.6454 257.8451 L251.2667 263.3198 L284.1883 256.6426 L286.5914 256.7466 L288.6531 257.2154 L307.6355 257.8362 L309.5991 257.8575 L310.6552 256.5683 L312.0553 256.6307 L316.2508 254.9495 L315.2548 252.9717 L315.0788 251.037 L316.369 249.2706 L319.375 247.325 L320.3946 249.1236 L324.8419 246.6031 L326.8841 251.0088 L328.2299 253.5841 L328.0146 253.6633 L328.035 253.7113 L333.2039 251.7182 L335.8693 250.3612 L337.4585 246.4338 L339.1924 244.6035 L339.7428 243.9342 L340.6976 242.3266 L340.7472 242.1038 L340.7251 242.036 L337.7856 241.0953 L337.9064 240.6829 L347.6557 236.9568 L347.9924 236.431 L346.6996 233.045 L347.9033 232.445 L348.3914 232.2524 L348.614 232.1994 L349.4567 231.9078 L351.198 231.4013 L351.7315 231.2136 L353.6896 230.5943 L355.1421 230.2016 L355.605 230.119 L356.4173 229.8828 L359.959 229.2768 L360.7489 230.0432 L363.437 229.0158 L364.213 224.3929 L363.9057 220.9191 L363.0393 219.1148 L363.1345 218.7821 L363.338 218.6108 L363.6207 218.1335 L365.3102 218.1335 L366.589 217.9646 L367.0726 218.0592 L367.2393 218.1335 L367.7798 218.1335 L368.9713 221.8519 L369.0359 221.9049 L369.0346 221.5048 L369.7351 221.6257 L370.244 222.0525 L372.2619 224.4028 L373.7933 225.6817 L373.6764 225.7302 L373.9387 225.9466 L374.7318 225.6604 L375.4915 225.4852 L376.3616 225.3208 L376.8999 225.3346 L377.4017 225.6292 L377.725 225.9862 L377.779 226.1709 L377.9901 227.2438 L383.1354 229.3495 L384.017 229.3515 L384.2215 229.4104 L384.2652 229.4392 L384.661 229.865 L385.0852 231.486 L383.9116 233.0713 L381.8576 238.5471 L378.9737 239.0541 L374.1936 239.516 L371.1081 238.9174 L370.0258 239.9789 L369.6214 241.2265 L372.1265 240.9651 L374.4162 241.7885 L378.032 241.6147 L379.7777 241.6731 L380.4671 241.7587 L380.889 241.983 L384.017 242.386 L384.8571 242.1994 L385.0622 242.3672 L385.1025 242.5261 L384.9878 243.1029 L384.1288 244.5273 L382.6278 249.2354 L381.6691 249.6468 L382.3463 252.5083 L385.8979 250.1583 L386.0205 254.6599 L387.3759 249.1003 L387.8008 248.1641 L388.47 246.5081 L388.7831 245.4263 L388.9827 245.1154 L389.0022 245.0852 L393.9372 244.506 L394.5522 244.5045 L394.8748 244.5743 L394.923 244.6327 L395.2715 245.6293 L395.422 248.0641 L397.6364 250.9048 L398.0133 251.292 L398.2637 251.5494 L398.1491 251.8925 L396.4139 253.2757 L398.6397 253.4915 L401.9785 254.9238 L405.592 254.2708 L410.2057 251.5836 L411.4646 250.5375 L412.1093 250.1053 L412.5514 249.9365 L413.0181 249.9751 L413.2593 250.1588 L413.3861 250.2553 L413.7518 250.8613 L414.0451 251.7068 L414.1767 252.2846 L414.2326 253.0376 L413.9697 254.0396 L413.795 254.2579 L413.5333 254.8678 L409.5905 256.4154 L409.548 256.7683 L409.5234 257.2936 L408.9347 257.7391 L408.8334 257.7555 L405.5253 263.2535 L397.8938 273.3858 L395.9002 276.4238 L396.1165 276.298 L396.2922 276.1193 L396.9256 275.6436 L397.7395 275.2021 L398.2481 274.8907 L398.9113 274.3972 L400.4235 273.3933 L400.9461 273.2601 L401.6006 273.2556 L404.7621 274.0734 L405.9658 274.3249 L408.084 275.2372 L408.2 275.1194 L408.589 274.8838 L409.0136 274.9125 L409.5422 275.2179 L409.8856 275.5392 L411.2148 276.5574 L411.4126 276.5262 L411.5557 276.2629 L411.6525 275.6436 L411.7822 275.3921 L411.8959 275.2912 L412.7574 274.514 L413.7493 274.5358 L414.0393 274.5729 L414.3636 274.2749 L414.529 273.9051 L415.0529 273.3111 L415.4822 273.1294 L415.619 273.121 L415.6608 273.0824 L415.7049 273.1155 L416.0266 273.0952 L416.5981 273.3987 L418.7744 274.9313 L419.1379 275.2115 L420.5821 276.7272 L421.1335 277.1796 L422.6432 278.3103 L422.9112 277.8687 L423.1274 277.3935 L423.5823 276.844 L423.9647 276.6356 L424.3486 276.5921 L424.7189 276.698 L425.2801 277.099 L425.72 277.538 L426.0286 278.0019 L429.3552 280.7304 L425.3111 281.9976 L418.6604 289.1552 L421.5353 289.2146 L421.7101 289.3795 L422.0432 289.4869 L422.7585 289.9636 L424.6042 291.5371 L424.8719 291.5891 L425.1425 291.4267 L426.0701 290.6333 L426.5413 290.319 L426.8131 290.1695 L427.183 290.0695 L427.783 290.0517 L429.0722 290.12 L432.2816 289.9368 L433.8779 290.7585 L434.1513 290.9273 L435.492 291.9291 L435.7185 292.244 L436.244 292.8226 L436.5082 293.3888 L436.6097 294.1348 L436.6762 294.3565 L437.4083 295.298 L438.2002 296.0929 L440.7353 294.1467 L442.8622 296.0726 L443.6416 296.6136 L443.6601 296.6215 L445.602 294.9995 L446.0348 294.4615 L446.9213 293.8061 L447.1404 293.7145 L448.2374 292.7983 L450.1828 293.031 L450.392 292.8676 L450.4262 292.7404 L450.2955 292.2207 L450.401 291.9772 L450.654 291.6955 L451.1903 291.0981 L451.9327 290.4472 L452.2956 290.1294 L453.3363 289.3745 L454.0809 289.0265 L454.5623 289.0285 L454.7843 289.0919 L456.8176 288.1257 L457.4798 288.7686 L457.6817 290.1927 L457.7915 290.8728 L458.6671 291.9915 L459.5612 294.3704 L445.7394 305.3705 L444.6239 307.0915 L446.1383 307.7641 L446.268 307.8077 L446.6312 307.7839 L448.0291 307.3692 L448.5012 307.2692 L449.0063 307.336 L450.3419 307.8513 L451.2021 307.6429 L451.3513 307.5068 L452.271 306.9242 L452.837 306.8891 L453.7656 307.1752 L454.7661 307.533 L455.6621 308.1977 L456.8476 308.9298 L457.796 309.4415 L458.5278 310.0577 L460.8594 312.7047 L461.4159 313.5575 L462.1583 315.0433 L462.258 315.7204 L462.035 318.738 L461.6354 322.8948 L461.5526 324.6849 L461.5769 324.9106 L462.0756 325.9247 L464.6579 324.4682 L465.1016 324.2949 L465.3284 324.2925 L465.5559 324.3434 L465.8973 324.6795 L466.618 325.5758 L466.9186 326.2014 L467.0956 326.7933 L470.3382 332.4149 L470.588 332.6332 L471.1231 333.3453 L471.7965 334.7147 L472.0744 335.0339 L472.4417 335.3932 L480.076 340.396 L480.2214 340.5188 L480.3405 340.5613 L481.0951 341.0839 L482.5939 342.5181 L483.9732 343.687 L484.155 343.7612 L486.3556 344.359 L487.159 344.6807 L488.5313 345.4903 L489.6912 344.5679 L491.8302 346.5696 L492.4962 347.0116 L493.1377 347.5663 L493.3102 347.8053 L493.3517 347.9716 L493.3549 348.2081 L493.329 348.4204 L493.1357 348.652 L492.4525 348.9361 L491.7161 349.1454 L490.8891 349.8333 L480.7149 352.7629 L479.3602 352.2893 L479.2771 352.3096 L478.622 352.4036 L477.8547 352.1037 L477.2148 351.8147 L476.6139 351.4564 L476.483 351.4678 L473.9875 353.5546 L472.9873 352.3017 L471.7715 352.6555 L471.1406 353.279 L470.4922 353.5512 L469.7169 353.7986 L469.4789 353.8352 L467.6083 355.0244 L466.7234 356.5436 L465.9287 355.9235 L465.6686 355.8696 L465.1447 355.4336 L464.9141 355.1322 L464.4969 354.8066 L464.434 354.291 L464.2212 353.756 L463.9114 352.8727 L463.6025 351.6984 L463.7414 349.8011 L463.8251 349.3107 L463.5204 346.8191 L463.3552 346.5018 L461.8197 344.4303 L461.1843 344.9593 L460.0864 346.5444 L458.6869 348.4724 L457.3798 350.3776 L459.29 354.6582 L459.5104 358.4289 L460.9064 361.6899 L463.0904 364.8846 L463.2747 364.6535 L465.0253 363.3457 L467.1703 361.6509 L468.557 360.4429 L470.0456 361.304 L470.4564 361.6711 L471.347 362.212 L472.2041 362.9627 L472.8308 363.7925 L474.9366 365.6739 L475.0279 365.6516 L476.8848 363.6866 L477.472 362.9216 L477.8987 362.5084 L478.0763 362.4258 L478.6034 361.8681 L485.8292 368.4692 L484.874 369.2248 L485.1085 369.3974 L486.1164 370.3173 L487.0849 371.2986 L488.9623 373.0665 L489.3922 373.5188 L489.6794 373.8459 L489.7733 374.0027 L489.8033 374.2412 L489.634 374.4985 L489.787 374.6495 L484.8549 378.7564 L482.753 376.2625 L478.5555 380.9286 L476.9296 381.8093 L471.4984 379.3284 L471.6658 379.8345 L473.5527 382.1611 L473.8882 382.4718 L474.9152 383.0552 L475.4547 383.4669 L475.8984 383.9008 L476.4207 384.4634 L476.7226 385.2234 L476.7654 385.3782 L476.8497 385.4609 L477.9965 389.4934 L475.2397 392.4175 L472.1316 391.6259 L463.6919 384.4911 L460.769 385.1492 L460.5799 384.924 L460.5633 384.9394 L459.628 383.884 L459.3731 383.6207 L458.2477 382.3056 L457.7213 381.5198 L454.7086 377.932 L454.2403 377.6599 L454.0921 377.6327 L453.4762 378.0933 L452.6169 378.5337 L454.4377 379.5085 L453.8755 380.1765 L455.2044 381.2452 L454.3355 382.6504 L456.9933 385.4411 L455.942 386.4796 L456.0714 386.6167 L459.1175 387.8754 L463.4325 392.1029 L463.6252 392.1607 L464.0404 392.325 L464.6681 392.8762 L465.1403 393.3794 L465.4604 393.6233 L465.9181 393.8865 L466.7193 394.364 L467.1451 394.5896 L468.5867 395.7385 L469.4566 398.0505 L469.5058 398.2806 L471.7961 400.6208 L471.507 401.6345 L471.523 401.7963 L471.63 402.1867 L471.8003 402.4296 L473.1228 403.6116 L474.1185 404.5442 L476.0437 405.2794 L477.0979 405.5708 L478.2191 406.6617 L478.5018 408.6496 L484.4077 404.0875 L485.136 403.7378 L485.3542 404.3616 L485.5739 404.6877 L485.7675 405.4046 L485.8017 405.6401 L485.9825 406.1571 L490.0039 411.5696 L491.5312 410.4663 L491.8922 406.632 L494.3295 400.7445 L500.2455 392.2295 L500.993 391.5616 L500.1912 391.428 L500.6736 388.6572 L501.5808 385.8023 L500.7183 384.689 L500.4021 375.6589 L502.5423 366.2226 L505.6569 358.8149 L504.7305 354.2623 L504.7433 352.946 L501.453 350.8428 L491.0709 340.1006 L488.1218 335.4531 L488.8383 330.5031 L490.3841 329.4302 L490.6757 329.0872 L491.06 328.5438 L491.2415 328.13 L491.3973 327.8257 L491.4584 327.5782 L487.8992 325.5689 L487.6078 323.2531 L487.4721 322.6627 L487.12 321.4982 L486.7511 321.0201 L483.2928 316.5464 L485.0146 313.0917 L484.7801 312.2691 L484.7485 312.2276 L484.5517 311.7138 L484.561 311.5005 L483.2519 306.9108 L483.1481 306.6743 L483.0932 306.353 L482.9769 305.3894 L483.0337 305.0855 L483.0766 304.9068 L483.381 304.3707 L483.8033 303.806 L483.978 303.5135 L483.9732 303.1071 L483.649 302.2112 L483.4241 301.7222 L483.395 301.2223 L483.5611 300.8723 L483.8378 300.4655 L484.1952 299.7235 L484.1879 299.3355 L484.0828 298.9558 L482.7654 296.6517 L482.43 296.132 L481.8029 294.9366 L481.6595 294.6258 L479.648 291.1154 L479.6509 290.6877 L479.6665 290.4066 L479.8189 290.0729 L480.2521 289.4408 L480.4543 288.9048 L480.4785 288.5652 L479.7694 285.7348 L479.8713 285.5982 L479.8333 285.4393 L479.9032 285.2012 L480.513 284.633 L481.4413 283.241 L481.5828 282.8193 L481.9879 281.5412 L482.0026 279.5686 L481.4506 278.8686 L480.046 279.773 L478.185 276.305 L480.5424 276.0327 L479.1145 274.6021 L478.897 273.3388 L478.7085 273.1452 L478.6028 272.1087 L478.6689 272.0141 L478.5843 271.5231 L479.9713 269.6375 L479.963 269.5444 L480.0489 269.184 L480.0776 269.1464 L478.7983 268.6667 L477.0033 268.6905 L474.5261 271.6785 L474.4961 271.7151 L474.1833 271.8547 L473.3579 271.9413 L472.4711 271.5379 L472.0198 271.2206 L471.9661 271.085 L471.8418 270.7716 L471.8658 270.4761 L471.8814 270.2835 L472.7826 269.1593 L475.094 266.3812 L476.5523 264.5352 L477.2758 263.4966 L477.4726 263.1629 L476.7219 262.558 L480.1789 255.4035 L480.238 254.9797 L479.318 246.6571 L479.4276 246.1343 L479.4966 245.8323 L479.7109 245.5164 L480.4891 243.8203 L480.4894 243.6747 L480.2342 240.4126 L481.357 238.2352 L482.8143 236.6489 L481.7148 235.0666 L476.1054 232.3682 L476.4089 230.8235 L478.2105 229.7689 L479.3765 231.2691 L479.4761 231.0844 L479.2941 230.6433 L479.7978 229.8877 L481.5787 226.9992 L481.7681 226.571 L481.8314 226.3694 L482.2125 225.7496 L482.8232 224.5419 L483.28 223.7597 L483.5471 223.5477 L485.6289 222.7555 L487.7065 220.4477 L488.4904 219.9016 L488.8469 219.7095 L489.1054 219.5704 L489.4545 219.45 L489.9947 219.3802 L490.2988 219.4139 L490.5467 219.4411 L490.9958 219.5773 L491.3188 219.7684 L491.5845 220.0526 L491.7005 220.3076 L492.0503 220.7859 L492.1567 221.232 L492.3886 221.6405 L492.5189 221.9708 L492.5112 222.0718 L491.7765 223.9428 L491.7363 224.9871 L489.5222 229.1198 L489.8155 230.9597 L489.8142 231.1825 L489.651 231.7558 L489.3529 232.3984 L489.3715 232.6297 L489.4222 232.7995 L489.5695 232.9025 L489.6807 232.9386 L493.2054 232.2994 L493.4386 232.2098 L493.9356 232.0855 L494.3007 231.9276 L495.253 231.7137 L495.9861 231.738 L497.161 231.4681 L500.4366 230.8641 L502.2174 230.1625 L502.2334 230.1323 L502.5874 229.6828 L503.0055 229.3268 L503.6616 229.0356 L504.1996 228.8802 L504.7426 228.6094 L504.8452 228.6019 L505.3448 228.5648 L505.7658 228.3009 L506.3341 228.0528 L506.9183 227.737 L507.6511 227.2829 L508.5421 227.0651 L508.956 227.0502 L510.4894 227.4552 L511.9122 225.5995 L512.0 224.6623 L511.1024 224.6281 L510.5481 223.9062 L509.9262 223.6755 L509.4432 223.4547 L508.4836 222.9323 L508.1769 222.8387 L507.2927 222.3139 L506.5596 221.7356 L506.0725 220.932 L506.0792 220.5136 L506.5449 219.6615 L507.3093 218.6009 L509.924 212.8077 L510.5996 211.9204 L510.8171 210.6494 L510.8072 210.4731 L508.9937 208.7955 L508.5651 208.7435 L507.1713 208.7312 L506.268 207.5616 L506.2319 207.5304 L505.6952 206.8005 L505.5329 206.551 L504.1041 204.5877 L503.8159 204.3059 L503.0189 203.3468 L502.8461 203.1031 L502.512 202.3995 L501.8204 201.4419 L502.0798 200.9893 L502.0881 200.9313 L502.1443 200.81 L502.25 200.6441 L502.3273 200.5565 L503.7147 198.1341 L502.8608 197.6721 L502.4695 198.1351 L502.2328 198.4876 L501.9798 198.8065 L501.392 199.6122 L501.0921 200.0207 L500.9371 199.4042 L500.8972 199.3567 L500.8873 199.2061 L500.7618 198.706 L500.6745 198.5005 L500.51 197.9519 L500.1178 197.2447 L500.1925 196.4411 L500.1114 196.1187 L500.1816 194.3757 L499.6194 194.9204 L496.0225 190.9044 L490.5218 188.6711 L487.2571 184.8283 L488.3726 182.7613 L489.4609 180.7136 L489.5634 180.4298 L489.8781 179.2889 L490.7645 175.2409 L490.9076 174.9274 L490.7933 174.6481 L490.9645 174.2653 L491.582 173.0377 L491.5152 172.9975 L489.343 176.9643 L484.0464 181.5659 L483.994 181.8858 L484.0869 182.481 L484.7482 183.7091 L484.9795 184.3593 L485.1088 185.018 L485.0724 186.0673 L485.0549 186.1257 L484.3853 189.5773 L483.1139 190.1616 L483.0954 190.2983 L483.1695 190.3532 L483.3682 190.7865 L483.3286 192.4038 L483.0382 193.0436 L482.8041 193.4051 L482.6597 193.4799 L482.6124 193.826 L459.5232 193.3803 L458.1924 193.6601 L457.8005 193.9374 L456.4981 194.4291 L454.8434 194.9431 L454.3978 194.9199 L453.7193 195.0605 L450.5581 195.8028 L450.1815 195.827 L449.8078 195.7354 L449.2283 195.5443 L447.7288 195.8592 L447.5838 196.0855 L447.5068 196.3737 L447.5477 196.6386 L447.5078 196.9412 L447.343 197.6052 L445.7834 199.5146 L444.9577 200.5609 L444.1473 201.5087 L443.6122 202.1029 L442.5418 203.8236 L440.8327 200.8229 L438.9928 197.0942 L435.8335 201.3527 L425.6095 198.2777 L423.5791 193.2858 L423.3906 191.9765 L423.6117 189.6218 L423.8928 187.4331 L420.4096 186.3411 L418.807 186.2114 L416.8865 186.1678 L411.7116 184.3588 L411.3931 189.0078 L411.3017 189.6263 L410.7679 196.6461 L410.7532 196.7263 L410.345 198.9744 L409.6049 201.783 L409.4544 202.1301 L409.4413 202.2193 L409.4026 202.2495 L409.3062 202.4723 L409.1391 202.6862 L408.8574 203.2294 L408.382 203.5493 L407.8253 203.6033 L407.8594 203.4582 L408.1824 201.838 L408.7475 198.2534 L408.7839 197.8766 L408.0549 197.2972 L406.4255 199.5275 L406.1686 200.9531 L405.9805 201.1443 L405.2247 201.171 L405.0573 201.4003 L404.4667 202.5174 L404.3079 202.7372 L404.0696 202.915 L403.9278 202.9462 L402.7586 204.5466 L402.2251 206.2499 L401.5252 206.0875 L401.1901 206.0281 L401.0767 205.9845 L400.55 205.8632 L400.4727 205.938 L399.9894 207.7621 L399.392 209.7685 L399.4243 210.0334 L399.2463 210.2508 L399.1904 210.4786 L400.4522 212.3205 L397.8105 213.9248 L397.5223 213.7921 L397.4041 213.9862 L397.2128 213.9362 L397.0658 213.8376 L396.9924 213.5623 L396.9342 213.5207 L396.6509 213.39 L395.1789 213.3177 L395.016 213.0375 L394.9697 212.6151 L394.7822 212.5285 L395.023 211.7199 L395.3118 210.6113 L395.2607 210.3746 L394.1529 210.0438 L393.8781 209.8091 L395.0898 205.3972 L395.0476 205.3616 L392.8879 204.6951 L393.022 202.5659 L394.6224 198.6392 L393.974 195.8365 L393.9075 195.1813 L393.7523 194.5886 L393.597 194.2984 L393.3546 193.9265 L393.2143 192.9807 L392.9677 190.8861 L392.9623 189.6857 L393.1412 189.6491 L393.3674 189.8427 L393.2405 188.524 L393.038 188.3546 L393.0396 188.0506 L393.1089 187.2503 L392.923 185.4522 L390.294 186.9428 L388.8217 186.7071 L388.5818 186.7096 L387.3248 186.6076 L387.0402 186.4223 L386.9814 186.4129 L386.9306 186.2822 L386.7316 185.9499 L386.7287 185.7613 L386.0327 183.9666 L386.003 183.3268 L385.8487 183.1857 L385.6813 182.6553 L385.535 181.2291 L385.6458 179.0616 L385.7621 179.0026 L385.2651 178.0577 L385.0517 177.929 L384.8811 177.564 L384.4553 175.5282 L384.1275 174.7224 L383.2935 174.1722 L382.4307 173.8137 L382.0266 173.4789 L381.9662 172.6974 L382.0649 172.0541 L381.9505 171.9209 L381.633 172.0512 L380.4013 172.9178 L379.4049 174.2237 L378.5373 174.8452 L377.7895 175.1904 L376.5798 175.4895 L376.622 180.1258 L376.552 181.8783 L376.4386 182.9807 L376.2409 183.3803 L376.0684 183.7289 L374.8577 184.6995 L373.6282 185.3101 L372.4031 185.6206 L372.2517 185.5899 L371.3512 185.4092 L371.0963 185.3577 L370.5015 185.1026 L369.8032 184.803 L369.0685 184.1578 L369.0566 183.515 L369.0317 182.1859 L369.4818 175.1028 L369.3783 174.9577 L368.6545 174.7903 L367.8124 174.7254 L367.0119 174.7135 L366.0865 174.814 L365.0831 175.078 L363.5195 175.6425 L361.4757 176.3126 L360.8314 176.3879 L360.2778 176.4522 L359.9008 176.4042 L359.5999 176.2789 L359.2227 176.0447 L359.0428 175.3276 L359.0304 174.5575 L358.9278 171.0245 L358.885 170.2951 L356.0717 169.939 L352.3371 169.7988 L350.7006 169.6413 L350.1914 169.2803 L349.9659 169.0362 L349.9202 168.9871 L349.771 168.4102 L349.7298 167.9491 L349.8301 166.2192 L350.0432 165.2079 L350.6009 163.3859 L349.9058 163.1844 L348.8309 163.1571 L347.8033 162.9981 L345.8557 162.0096 L341.7323 160.8136 L340.9925 160.6848 L339.8789 160.2926 L339.8048 160.2544 L337.2445 159.5121 L336.5884 158.6914 L336.3124 158.5354 L335.8485 157.7658 L334.6315 156.2433 L333.3176 156.122 L332.9132 156.3127 L331.9216 156.387 L331.2349 156.1849 L330.5295 155.7248 L330.7602 154.8596 L330.9311 153.874 L330.6516 153.5907 L329.7086 153.3128 L329.5776 153.2589 L320.8294 151.7745 L317.1469 151.3223 L315.3203 151.1371 L313.9652 150.7894 L313.7384 150.5953 L313.7391 150.5923 L313.4235 150.5051 L311.4081 150.1614 L313.4653 135.1838 L312.0211 134.7038 L311.594 134.6389 L310.2 134.3526 L309.2535 134.1382 L308.2048 133.7266 L307.5962 133.4551 L307.1417 133.0812 L306.658 132.9202 L302.91 128.2469 L302.8631 128.2236 L302.0303 127.6812 L301.9089 127.6371 L299.4291 127.1596 L299.5383 126.6039 L299.5093 126.5122 L299.4668 126.2344 L299.4891 126.0357 L299.6172 125.5236 L299.9894 123.4962 L300.3548 121.1429 L300.2689 120.8288 L299.8278 120.4836 L299.7364 120.4469 L298.9499 120.2696 L298.9956 120.0635 L298.9327 119.9961 L298.803 119.69 L299.3106 118.0841 L299.1818 117.8216 L298.81 117.5051 L298.0577 117.0835 L298.2724 116.5411 L299.1512 113.8464 L299.3825 112.7393 L297.9332 112.0696 L292.3758 110.0604 L292.4202 109.6295 L291.9781 109.4105 L292.4963 105.1741 L292.9272 103.7049 L293.1639 103.3616 L293.6696 102.8286 L294.2845 102.0761 L294.488 101.758 L294.5944 101.4583 L294.2382 100.6534 L293.9571 100.4304 L292.464 101.2676 L291.2227 103.4433 L289.7088 105.4669 L289.5775 107.0838 L286.807 112.6402 L281.5072 107.5029 L280.5853 107.1725 L278.2054 105.8201 L278.0266 106.9743 L280.1106 108.0091 L279.0999 110.323 L274.6724 107.6876 L273.3886 109.9173 L269.278 108.8334 L268.8743 109.8316 L264.4768 120.7055 L263.7284 121.0096 L262.7774 125.002 L258.9208 137.9129 L256.066 135.9366 L254.8757 135.156 L254.6914 134.9851 L251.0785 132.4843 L250.3406 134.9411 L247.4976 133.9851 L245.1845 137.5038 L240.2188 136.2814 L240.4661 133.3883 L238.2868 132.8692 L237.999 132.6983 L238.0134 131.7691 L236.988 131.5085 L234.9116 131.2213 L232.7896 131.2208 L227.3173 127.4752 L214.8693 124.3442 L213.9416 125.6385 L213.8975 125.742 L213.7611 125.7628 L213.3983 125.693 L212.3895 125.4305 L212.1997 125.3621 L209.1008 124.8712 L208.8549 125.0149 L206.5549 134.0792 L205.5732 138.0615 L211.5235 139.5613 L211.9068 139.7098 L211.9822 139.7158 L213.9851 147.4968 L211.6276 153.8809 L209.3117 154.7476 L207.855 154.7476 L204.9161 151.776 L202.5044 151.776 L201.0573 149.7999 L201.1308 149.419 L201.0084 149.2442 L200.957 148.8687 L201.1113 148.001 L201.1851 147.4552 L200.703 147.4453 L200.3651 148.1308 L199.877 148.5057 L199.6368 148.6612 L199.302 148.6558 L198.4535 148.4418 L197.9092 148.0391 L195.9539 146.6687 L194.6302 145.9763 L194.6643 145.6851 L194.3692 145.2017 L194.2561 144.7381 L194.1143 143.6509 L193.7626 142.2943 L194.5033 142.479 L190.5285 139.0026 L192.9211 145.5256 L198.1213 150.0089 L198.8742 150.4021 L199.3892 150.9727 L199.5757 151.2629 L200.0734 151.6918 L200.1418 151.9325 L200.1638 151.9583 L200.4194 152.5209 L200.5839 153.4926 L202.2456 159.3536 L202.8832 159.313 L202.8938 159.2407 L203.0426 159.1109 L203.4109 158.841 L204.2565 158.3269 L205.3356 157.7826 L205.5116 157.7578 L205.8243 157.8633 L205.9607 158.0436 L205.9876 158.2422 L205.9617 158.4012 L205.8671 158.5394 L205.7314 158.7167 L205.3892 159.0787 L205.3311 159.1565 L205.6077 159.1386 L205.4432 159.6656 L203.5905 160.6908 L203.7757 161.8447 L203.1177 166.1385 L207.1657 165.7037 L207.7058 165.4818 L208.8695 165.1847 L210.0215 165.1034 L209.9969 165.3996 L210.1709 165.3808 L209.4091 176.163 L209.4471 177.1748 L209.3487 177.0931 L209.3736 177.7626 L209.4851 178.3301 L209.4765 179.328 L209.442 179.6023 L209.7285 187.5479 L209.8228 189.8496 L209.6611 190.9326 L205.0046 188.9865 L204.729 188.9187 L204.2357 188.9187 L204.6309 193.4249 L204.8126 194.8436 L204.7893 195.2299 L204.8746 196.2227 L204.445 198.8011 L204.4456 198.9576 L204.306 199.636 L204.076 201.0507 L202.7791 200.912 L202.1086 201.2547 L201.9562 201.6181 L201.5566 202.0831 L201.0004 202.1955 L200.6775 202.1712 L200.5366 202.0583 L200.0862 202.2886 L199.5202 195.9786 L199.2659 195.8171 L198.8487 195.4869 L198.7644 195.0417 L198.8123 195.0352 L198.8081 194.9758 L198.7858 195.0273 L197.8383 195.159 L196.4522 195.7087 L196.3136 195.7032 L196.2983 195.6458 L196.2497 195.6681 L195.4166 191.1198 L195.2716 191.8859 L195.1965 191.9418 L195.1215 191.9482 L195.0525 191.7269 L194.9812 190.9821 L194.9346 188.4868 L194.7995 187.75 L194.809 182.9515 L194.6282 183.0421 L194.5104 183.2421 L194.1794 183.4774 L193.6967 183.615 L193.5163 183.6007 L189.7299 185.5018 L187.0629 192.022 L182.125 197.836 L181.4143 199.2685 L181.0801 199.9504 L180.877 200.5189 L180.7201 200.8061 L180.737 200.968 L180.7351 200.9695 L178.8124 202.0504 L175.8614 204.1054 L174.2853 203.9712 L173.4116 203.7087 L172.806 203.3161 L172.338 202.8219 L172.207 202.3554 L172.0208 201.0715 L171.9543 200.0361 L171.7451 198.1509 L171.6767 196.8674 L171.4864 195.1927 L171.3669 194.8773 L170.8861 194.0889 L170.2639 192.9158 L169.3439 191.0099 L168.2536 188.8464 L168.0377 188.4522 L166.03 185.2621 L165.3138 184.5965 L164.864 183.9087 L164.6165 183.3858 L164.4417 182.8782 L164.2999 182.3904 L164.1788 181.5876 L164.083 179.7237 L164.097 179.4359 L164.037 178.3192 L163.975 177.927 L163.9073 176.9722 L163.8888 175.5747 L163.9412 174.917 L164.0427 174.2109 L164.1379 173.782 L164.2526 173.4675 L164.381 173.21 L164.4788 172.9109 L164.6308 172.173 L164.4609 169.1194 L163.5198 170.1227 L162.227 171.3123 L161.9447 171.3469 L161.7236 171.3251 L161.6383 171.4178 L160.6436 174.978 L160.1232 177.6274 L159.6396 183.0337 L158.5097 181.4777 L158.4723 181.4326 L158.3506 181.0974 L157.936 180.1045 L157.5418 180.153 L157.1818 180.0158 L156.8438 179.791 L156.4349 179.3265 L156.1701 178.9269 L155.9229 178.5064 L155.4967 177.0386 L153.9998 174.353 L152.9463 172.8242 L152.4697 171.1786 L152.3279 170.6908 L152.2324 170.5204 L152.1877 170.4971 L150.424 170.1222 L150.2502 170.3728 L150.2579 171.7025 L145.0622 169.8295 L145.1941 168.4637 L145.8528 167.8075 L144.5575 166.2326 L144.3304 166.0751 L144.0745 165.7091 L143.3599 163.5939 L143.2226 163.2908 L142.9539 162.3865 L142.1563 160.0395 L141.9029 159.4006 L141.45 158.9767 L140.9069 158.5384 L140.8114 158.3378 L140.5872 158.2145 L140.3722 157.0897 L139.8263 155.2424 L139.4317 153.6823 L139.3139 152.8656 L139.2541 151.2381 L138.8845 149.3046 L137.915 148.5617 L137.4557 148.3947 L135.9955 148.3645 L135.3154 151.409 L132.3616 150.4348 L131.7709 150.2902 L130.6567 150.304 L130.2239 151.4779 L126.5046 151.8845 L125.1872 151.5115 L125.1036 151.4095 L125.0052 151.1099 L124.9815 150.8439 L125.3498 147.7821 L125.3939 147.0015 L125.339 146.4389 L125.1818 145.7331 L125.154 145.3245 L125.1585 144.9307 L125.2297 143.9362 L125.3489 142.8792 L125.3866 142.3572 L125.3901 141.8025 L125.3521 140.0397 L125.4332 137.9753 L125.568 136.8856 L125.7201 136.1476 L126.0437 134.9108 L126.1845 134.4641 L126.2123 133.9901 L124.3998 134.7311 L123.9251 135.0367 L123.7747 134.9866 L123.2926 135.1838 L122.1554 132.4843 L122.97 131.563 L121.7977 131.043 L118.6544 129.344 L121.6517 123.5175 L90.435 124.7375 L85.8446 126.1987 L83.9727 126.8525 L83.9417 126.9952 L84.0161 126.9729 L84.1762 127.0165 L84.2503 127.1438 L84.2276 127.3385 L83.4325 130.082 L83.428 130.5407 L83.6897 130.6734 L83.9487 130.7309 L84.2634 130.7309 L84.2902 130.8067 L84.5001 130.9578 L84.723 131.3535 L84.9649 132.7533 L85.1827 133.365 L85.2891 133.5289 L85.5386 133.676 L86.6822 133.8499 L86.9636 134.0034 L87.0716 134.5567 L87.046 135.5607 L86.7451 137.9406 L86.3816 138.6004 L86.0915 138.8495 L86.0011 139.4137 L85.1418 139.9223 L85.0757 140.0224 L84.7831 140.38 L84.509 140.6103 L83.988 140.9446 L83.5577 141.0902 L83.1776 141.0848 L81.6471 141.9902 L81.5951 142.0571 L81.3178 142.6871 L80.908 143.8213 L80.3595 145.64 L80.0733 146.06 L80.0295 146.2106 L78.6968 146.4631 L77.6398 146.7143 L75.1366 147.2363 L74.3895 147.3576 L73.8135 147.3878 L73.5605 147.4359 L73.1596 147.3809 L72.8482 147.372 L70.797 147.056 L59.7699 145.5394 L58.956 145.5508 L57.2141 145.5167 L55.7009 145.4483 L54.3758 144.798 L51.0958 144.3468 L50.7888 143.8025 L50.763 143.7945 L50.2474 143.4166 L49.5191 142.7049 L49.2916 142.2111 L48.9862 141.0987 L49.0013 140.6336 L48.8214 140.3151 L49.307 138.1754 L48.8767 135.1129 L48.6083 133.8494 L48.4965 132.8875 L48.3017 132.2763 L47.6816 130.5442 L47.6063 130.1529 L47.5408 129.9161 L46.938 129.7735 L46.6451 130.081 L46.3755 133.0193 L46.2633 133.3556 L46.2237 133.3868 L46.2221 133.4031 L46.1927 133.4106 L46.0883 133.4923 L45.6487 133.5517 L44.2013 133.6785 L43.573 133.3407 L42.3272 132.4952 L42.0397 131.8275 L41.8582 131.6482 L39.136 131.6349 L36.8264 127.7763 L36.736 127.6921 L35.2404 128.3053 L35.4477 128.7224 L35.7525 129.0206 L35.955 129.3638 L36.4581 130.5883 L36.4801 130.7993 L36.6137 131.0677 L36.5578 131.5368 L36.5833 131.7795 L36.5747 132.621 L36.3281 133.4645 L36.3 133.7003 L36.2326 135.479 L36.4073 136.4458 L36.6664 136.851 L38.1425 138.5073 L36.3399 139.9228 L36.0997 140.2517 L35.8572 140.381 L35.6716 140.4473 L35.6509 140.4637 L32.5756 139.7807 L32.4581 140.4989 L32.5711 141.9773 L32.7558 142.5845 L32.9273 146.1021 L32.8481 147.0525 L32.606 148.4359 L32.2549 149.3917 L32.2169 149.9583 L30.9493 152.4426 L30.7826 152.7666 L30.3817 152.8205 L25.5077 151.2337 L19.2406 149.4735 L18.0213 149.0074 L17.5066 148.7885 L15.2961 148.1258 L15.1524 153.9651 L17.231 157.4914 L12.0506 154.1137 L7.9394 153.1281 L8.5335 159.8439 L9.3845 164.6072 L9.727 165.4675 L9.9091 166.0504 L10.0065 166.4391 L10.0014 167.3202 L9.957 167.8129 L9.8506 169.4967 L8.3508 170.1396 L2.8334 168.0655 L2.3869 168.6563 L1.4087 170.3634 L0.5274 172.2289 L0.0 174.1752 M6.3495 176.8306 L6.3744 176.6137 L6.6798 176.3537 L6.8213 176.2334 L7.7966 176.221 L7.9579 176.0808 L8.0352 175.7634 L7.7135 174.7204 L7.8212 174.1262 L8.3604 173.7869 L8.6738 173.6914 L8.898 173.5096 L9.0836 173.3937 L9.2401 173.1763 L9.2421 172.9777 L10.2183 172.6296 L10.4454 172.4305 L11.1791 172.3102 L11.5325 172.4211 L11.5369 172.5682 L10.9527 172.9609 L10.4997 173.1674 L10.3358 173.5849 L9.8586 173.8295 L9.7251 174.3733 L9.5078 175.0399 L9.4903 175.3291 L9.2398 175.6936 L9.044 176.5404 L9.4829 177.1005 L9.2481 178.1132 L8.9782 178.2459 L8.6179 178.3009 L8.316 178.0691 L8.3269 177.7953 L8.4693 177.562 L8.7536 176.943 L8.7217 176.7895 L8.2243 176.5127 L7.9646 176.4022 L7.5439 176.6211 L6.5466 177.1391 L6.3495 176.8306 M17.9532 158.5716 L18.4985 158.0 L19.7194 158.1303 L20.9141 158.7533 L22.7841 160.3897 L22.9659 160.9874 L21.6673 161.6625 L20.4985 161.2469 L18.8103 160.1039 L18.2388 159.2728 L17.9532 158.5716 M37.1679 165.3219 L37.4452 164.994 L38.5696 165.1515 L39.38 165.0762 L39.5349 164.9653 L39.6027 164.9484 L40.0282 164.7221 L40.6533 164.4373 L41.3315 164.1481 L41.5107 163.9406 L41.8515 164.2472 L42.0355 164.5111 L42.1716 165.2614 L42.522 166.1648 L40.7801 168.3478 L39.9515 167.6341 L39.2404 167.2399 L38.9386 166.7026 L38.7443 166.5768 L38.2367 166.6684 L37.7276 166.4832 L37.2407 166.0796 L37.1679 165.3219 M38.9229 164.6132 L38.9861 164.2764 L39.4375 163.793 L39.8672 163.2175 L40.2885 162.5529 L40.6377 161.4797 L40.8156 159.304 L41.0127 157.6296 L41.0606 157.0779 L40.9411 156.543 L40.6067 155.5539 L40.3607 155.0532 L40.2623 154.8031 L40.7408 154.3752 L40.9108 154.6768 L41.3248 154.7689 L41.7634 154.8368 L42.3757 155.6441 L42.6447 156.8129 L42.9332 158.0659 L42.9648 158.7112 L42.8003 160.8408 L42.9603 162.0072 L42.9999 162.7094 L42.7591 163.693 L42.616 164.1838 L42.3646 164.2155 L42.0646 163.903 L41.7043 163.7168 L41.5107 163.9233 L41.3315 164.1308 L40.6533 164.42 L40.0282 164.7048 L39.6027 164.9311 L39.5349 164.9479 L39.2931 165.0084 L39.097 165.0084 L38.9255 164.836 L38.9229 164.6132 M53.6344 209.9091 L53.6363 209.4219 L54.0069 209.0381 L54.7777 208.6841 L55.1441 208.5351 L55.6527 208.4677 L56.5861 208.797 L59.0732 210.4543 L59.5051 210.7865 L59.339 211.2441 L58.5634 213.2583 L58.4353 213.4207 L58.2622 213.5168 L58.0405 213.494 L57.4348 213.1994 L57.1323 212.9687 L56.6637 212.3492 L55.8932 211.7417 L54.2321 210.8554 L53.7743 210.3909 L53.6344 209.9091 M74.0879 184.5277 L74.1684 184.234 L74.285 184.1677 L74.3974 184.2043 L75.4426 184.8352 L76.0119 185.3502 L78.0049 186.095 L78.048 186.1267 L78.0576 186.2332 L77.8017 187.3023 L77.7468 187.3875 L77.6436 187.3791 L75.6656 186.5526 L75.6014 186.4332 L75.5471 186.2773 L75.7892 185.783 L75.6912 185.4998 L74.2757 184.8323 L74.1358 184.7347 L74.0879 184.5277 M90.1717 200.5669 L90.1753 200.455 L90.3094 200.3129 L91.14 199.9336 L92.06 199.2606 L92.1893 198.9066 L92.3858 198.7328 L93.0873 198.2911 L93.6128 197.8414 L93.7655 197.5057 L94.067 197.1923 L94.5286 197.1195 L95.1646 197.2046 L95.501 197.3755 L96.0012 197.4864 L96.7586 197.3824 L97.1787 197.1967 L97.5246 197.0759 L97.8744 196.803 L98.244 196.452 L98.8299 196.1266 L99.2863 195.8483 L99.7633 195.7513 L99.9939 195.8379 L100.0536 196.3509 L100.2146 196.5555 L100.6293 196.7545 L101.0982 196.9135 L101.3784 197.0536 L101.3704 198.2029 L100.2709 198.4188 L99.8974 198.1796 L99.364 198.0197 L98.7334 198.2227 L97.3866 197.7726 L96.5925 197.8132 L96.0153 198.2856 L95.7188 198.7055 L95.4594 198.7961 L95.125 198.8442 L94.542 198.8526 L93.7942 199.1126 L91.2732 200.7664 L90.7879 201.1235 L90.5535 201.0908 L90.2874 200.811 L90.1717 200.5669 M159.7884 183.9285 L159.8986 182.7697 L160.2631 183.3045 L160.6544 184.2885 L161.202 185.0259 L161.5038 185.5572 L161.9012 186.3085 L162.2855 187.2122 L163.5709 189.0677 L163.9242 189.8764 L164.6471 190.9777 L164.9835 191.3496 L165.1902 191.7155 L165.3144 192.1067 L166.5002 194.0424 L167.2157 195.2606 L167.5109 195.9177 L167.4761 196.0776 L167.1825 196.2336 L166.9461 196.3311 L166.7152 196.3386 L166.4331 196.3772 L166.1261 196.5302 L166.053 196.5099 L165.8933 196.1712 L165.2828 195.0328 L164.7666 193.9978 L164.4456 193.2659 L164.3743 193.103 L164.2852 192.955 L164.2223 192.7014 L164.2437 192.5593 L164.2529 192.4974 L164.2172 192.2949 L164.1287 192.1572 L163.9162 191.8259 L163.8153 191.5447 L163.6355 190.8811 L163.6192 190.6994 L163.6517 190.4884 L163.684 190.278 L163.599 189.9769 L163.1972 189.3742 L162.7477 189.084 L162.4513 189.0122 L162.2251 188.9256 L162.013 188.7478 L161.7926 188.5265 L161.4403 187.8787 L160.941 187.1325 L160.7011 186.2961 L160.6445 185.9658 L160.3909 185.6221 L160.0539 184.9461 L159.883 184.4341 L159.7884 183.9285 M162.4599 214.8339 L162.4781 214.3021 L162.7433 213.6688 L163.0292 213.3791 L163.6313 213.1182 L163.7843 213.0518 L164.191 212.8142 L164.5724 212.7439 L165.4742 212.7711 L166.0028 212.8756 L166.0741 212.8899 L166.2523 212.8503 L166.5462 212.785 L167.1595 212.5042 L167.753 212.1358 L168.2974 211.8848 L169.0203 211.5961 L169.2097 211.4223 L169.4266 211.0094 L169.7837 210.9148 L170.2182 210.84 L170.5833 212.425 L171.0158 213.8698 L170.9813 213.9802 L170.7935 214.0733 L169.9051 214.31 L169.8055 214.3367 L168.7586 214.4937 L168.4804 214.4739 L168.374 214.3318 L168.0469 214.111 L167.4387 214.0897 L166.843 214.3046 L166.3769 214.3947 L165.4706 214.6561 L164.4561 214.7745 L163.7287 214.9161 L162.9439 215.0096 L162.497 214.9468 L162.4599 214.8339 M166.3692 197.9964 L166.704 197.5062 L167.309 197.4423 L167.7112 197.9023 L168.0655 198.3807 L168.2731 198.7501 L168.5724 200.2475 L168.7095 201.1289 L168.9273 202.8615 L167.8227 203.0685 L167.5675 202.4614 L167.5358 201.8608 L167.3506 200.8358 L167.0637 199.5379 L166.7292 198.3148 L166.3692 197.9964 M168.613 207.1585 L168.6692 206.9882 L168.8532 206.806 L169.2244 206.7188 L169.539 206.6995 L169.7764 207.4561 L170.0176 208.3058 L170.2393 208.9876 L170.3527 209.2347 L170.7679 210.1602 L170.7996 210.4657 L170.5756 210.4989 L170.0431 210.5786 L169.2039 210.7613 L169.1381 210.5751 L169.1723 210.3127 L169.4036 210.0062 L169.4771 209.8339 L169.4573 209.7106 L169.033 208.8104 L168.613 207.1585 M172.7328 211.4446 L173.1085 211.4594 L173.3391 211.4971 L173.5116 211.4322 L173.6225 211.3238 L173.8505 210.8875 L173.8665 210.685 L173.8694 210.6489 L174.1828 210.3166 L174.4233 210.2146 L175.0069 210.1126 L175.2219 210.2231 L175.572 210.1513 L175.7266 210.1919 L175.864 210.2275 L176.0767 210.1636 L176.293 210.0413 L176.4866 209.8631 L176.8191 209.6947 L177.4618 209.5561 L177.9228 209.5774 L178.002 209.5907 L178.5204 209.6799 L178.8533 209.663 L179.1376 209.5526 L179.4503 209.3635 L179.7969 209.1179 L180.049 208.9297 L180.777 208.7475 L181.0661 208.641 L181.1804 208.6757 L181.2357 208.7386 L181.2897 208.8 L181.4583 208.8426 L181.6417 208.8485 L181.8522 209.0084 L181.9832 209.2778 L182.2231 210.0483 L180.5061 210.5652 L181.0354 212.2759 L180.408 212.4775 L179.8097 212.375 L179.4609 212.4646 L179.0616 212.733 L178.8118 212.7285 L178.5751 212.674 L178.3799 212.4859 L178.0371 212.2443 L177.5487 212.114 L177.0753 212.1031 L176.6747 212.0096 L175.7183 212.0333 L174.8737 212.2076 L174.5824 212.3859 L173.9674 212.5889 L173.8556 212.8315 L173.8767 213.1157 L174.0074 213.3316 L174.0968 213.5336 L174.245 213.7178 L174.3441 213.8555 L174.3 213.958 L174.0023 214.0699 L173.6576 214.0515 L173.3525 213.9807 L173.3251 213.8683 L172.7328 211.4446 M189.238 206.7243 L189.3258 206.6089 L189.446 206.6074 L189.8983 206.8793 L190.2184 206.9714 L190.67 207.0377 L191.4364 207.2283 L190.9234 209.9477 L190.7678 209.8626 L190.3254 209.5046 L189.7756 208.8931 L189.4348 207.824 L189.323 207.1234 L189.238 206.7243 M190.9275 209.9492 L191.4428 207.2293 L192.1558 207.4002 L193.6852 207.6062 L194.7688 207.9107 L195.4879 208.3737 L195.8597 208.742 L196.2615 209.001 L196.6398 209.0431 L196.8892 209.3377 L196.933 209.6289 L196.8896 209.9903 L196.673 210.3092 L196.1373 210.5989 L195.0943 210.3978 L194.3439 210.43 L193.776 210.7583 L193.2917 210.7751 L192.5956 210.5697 L191.7734 210.2458 L190.9275 209.9492 M197.4748 210.231 L197.6067 209.7314 L197.8242 209.3174 L198.5494 209.4571 L199.103 210.0077 L199.3834 210.4246 L199.2761 210.7603 L198.8503 211.1322 L198.3539 210.9678 L198.1571 211.0569 L197.853 210.9395 L197.5796 210.8029 L197.4748 210.231 M201.9335 209.9839 L205.2113 209.3793 L205.932 203.8231 L210.3259 204.2188 L210.3179 206.8664 L216.0733 207.2239 L217.1223 210.0809 L210.9303 209.9373 L210.4147 210.436 L211.3487 212.8894 L202.7705 211.5411 L201.9335 209.9839 M210.4211 205.1556 L210.492 204.9521 L210.5236 204.5604 L210.4955 204.1475 L210.523 203.7087 L210.737 202.8115 L210.7367 202.0608 L210.775 201.4448 L210.7373 200.8224 L210.7562 200.1371 L210.807 199.5112 L210.8581 199.3859 L210.9711 199.3042 L211.343 199.1769 L213.7247 198.8952 L216.3179 198.4827 L216.6237 198.3485 L216.6722 198.1985 L216.7115 198.0771 L216.5521 195.4606 L216.685 195.3165 L217.0121 195.2333 L217.2708 195.1387 L217.4226 194.7431 L217.4449 190.5147 L217.4465 190.2279 L217.5293 190.1581 L217.5941 190.1834 L218.2621 191.1718 L221.2501 194.0602 L222.3247 195.2041 L222.9933 195.5265 L223.7274 195.7107 L225.5172 195.781 L225.8791 195.8969 L226.1778 196.0603 L226.6921 197.062 L226.8438 197.4101 L227.5556 197.9944 L227.9814 198.2198 L228.4969 198.4505 L229.3304 198.4515 L230.2599 198.4797 L230.7024 198.5525 L231.1017 198.6184 L231.4099 198.8155 L231.4914 198.8679 L231.7447 199.0299 L232.3989 199.5597 L232.7596 199.9133 L233.026 200.3495 L233.1688 200.8506 L233.2228 201.1284 L233.3026 201.5493 L233.2627 201.7003 L233.1697 201.8697 L233.1209 201.9588 L232.9353 202.0841 L232.6423 202.2817 L231.095 202.8788 L230.3842 203.3047 L229.4626 203.6156 L229.1307 203.9009 L228.9164 204.0851 L228.7362 204.1742 L228.2957 204.2569 L226.8646 204.5683 L226.6183 204.7407 L223.4581 207.7408 L223.3044 207.8206 L223.0447 207.8438 L221.3306 207.874 L219.8184 208.0102 L219.3737 207.9741 L218.7799 207.8141 L217.6874 207.5586 L216.9159 207.3061 L216.3183 207.0021 L216.0806 206.6886 L216.0046 206.6327 L215.8695 206.6178 L213.9969 206.7109 L212.4898 206.9045 L212.0681 206.8753 L211.9783 206.8164 L211.8867 206.4406 L211.7813 206.1593 L211.3193 205.7805 L210.9999 205.6978 L210.6565 205.7463 L210.5073 205.572 L210.4227 205.3745 L210.4211 205.1556 M210.7108 210.381 L210.7281 210.326 L210.883 210.2136 L212.6239 210.1953 L214.6955 210.2815 L215.4839 210.4251 L216.5285 210.6479 L217.2181 210.9306 L217.9088 211.1277 L218.2371 211.1114 L219.7136 211.8679 L219.7452 211.7758 L218.6061 211.199 L218.7074 211.0336 L218.8776 210.9955 L219.6056 211.2609 L219.8906 211.2574 L220.0992 211.1985 L220.3764 211.2094 L220.6298 211.4996 L220.6732 211.6342 L220.693 211.7575 L220.6981 211.9625 L220.6058 212.0784 L220.4985 212.1234 L220.3455 212.1551 L219.8353 211.8838 L219.8011 211.9496 L220.4857 212.3304 L220.6579 212.6592 L220.6968 213.0934 L220.6885 213.3984 L220.3397 213.8362 L220.0513 214.0991 L219.8957 214.2164 L219.8091 214.2818 L218.9549 214.4482 L218.0487 214.5105 L217.6791 214.5363 L216.1237 214.2382 L215.0153 213.7911 L213.3689 212.989 L212.3971 212.4908 L211.3673 211.3411 L210.952 210.6855 L210.7108 210.381 M215.9091 260.1367 L215.9116 259.9377 L216.1333 259.8778 L216.264 260.0406 L216.3141 260.3139 L216.2732 260.4337 L216.134 260.459 L215.9892 260.4268 L215.9091 260.1367 M221.3223 212.8627 L221.4169 212.725 L221.598 212.6295 L221.6724 212.5899 L222.1628 212.2418 L222.6528 212.0412 L223.4239 211.6412 L223.7571 211.4327 L223.9481 211.1247 L224.3484 210.9143 L224.7962 210.74 L224.9879 210.6915 L225.5622 210.6355 L225.9833 210.4587 L226.4589 210.2953 L226.6122 210.2146 L226.8579 209.8705 L227.483 209.5863 L227.7328 209.4387 L227.9897 209.2189 L228.181 209.1659 L228.5209 209.2293 L228.8857 209.3709 L229.6744 209.8185 L230.0338 210.1483 L230.2369 210.6261 L230.3973 210.7232 L230.4551 210.7227 L230.6142 210.6593 L230.8758 210.4924 L231.2387 210.2141 L231.7016 209.9086 L232.0772 209.5754 L232.6564 209.1208 L232.7382 208.8411 L232.8314 208.238 L232.604 207.3422 L232.6807 207.1521 L233.6326 206.7807 L233.8185 206.5178 L233.9853 206.239 L234.3398 205.47 L234.4421 205.2685 L234.5912 205.0402 L234.72 204.9843 L234.9327 204.9739 L235.3132 205.1903 L235.663 205.2616 L235.8083 205.2437 L236.4347 204.7719 L237.7205 203.8474 L238.3824 203.2245 L238.6807 203.0234 L239.3525 202.909 L239.9745 202.9873 L240.4606 203.1403 L240.691 203.321 L240.8044 203.5429 L240.8296 203.7776 L240.7299 203.9563 L240.4373 204.2732 L239.9518 204.4777 L239.4742 204.6193 L239.2298 204.7263 L238.7264 205.1779 L238.5865 205.6062 L238.2881 205.8612 L238.1402 206.2009 L237.501 206.8748 L236.4507 208.0914 L235.7185 208.6757 L235.0417 209.3704 L234.5634 209.8611 L233.0624 211.0688 L232.0878 211.5644 L230.3238 212.4418 L230.1992 212.5958 L229.891 213.2851 L229.715 213.6094 L229.4732 213.9441 L229.3214 214.0426 L229.1365 214.1174 L228.8902 214.0055 L228.7225 213.7257 L228.3177 213.2346 L228.1484 213.089 L227.868 213.0424 L227.4834 213.0771 L226.917 213.2712 L226.181 213.6638 L225.2767 214.1159 L224.5854 214.612 L224.3854 214.8022 L224.0762 215.0958 L223.6124 215.4904 L223.3255 215.5746 L222.8863 215.6454 L222.318 215.6697 L221.8638 215.5766 L221.612 215.3439 L221.4849 215.226 L221.3747 214.9903 L221.4584 214.5135 L221.4108 213.7074 L221.3974 213.4014 L221.3437 213.1514 L221.3223 212.8627 M231.3109 173.5537 L231.3796 173.3779 L231.5451 173.1842 L231.8677 173.1015 L232.2037 173.0713 L232.5056 173.1065 L232.7455 173.1966 L232.9669 173.3779 L233.1991 173.782 L233.6106 174.2455 L233.8061 174.4382 L234.0948 174.6268 L234.3648 174.6561 L234.5545 174.7818 L234.8203 175.0126 L235.401 175.7253 L235.4758 175.8961 L235.732 176.482 L236.0319 176.7454 L236.3945 176.9217 L236.4977 176.9717 L236.7507 177.2575 L236.7666 177.3372 L236.8145 177.5739 L236.934 177.9117 L237.172 178.2791 L237.5464 179.4746 L237.4764 179.691 L237.3541 179.9168 L237.2212 180.2238 L237.2298 180.3704 L237.2742 180.5185 L237.5365 180.7587 L237.5448 180.8518 L237.4851 181.0805 L237.3193 181.1939 L237.3042 181.2043 L237.0838 181.2331 L236.842 180.9196 L236.5743 180.519 L236.1837 179.7895 L236.0329 179.4498 L235.983 178.8912 L236.0185 178.1905 L236.0096 177.8428 L235.968 177.6853 L235.8946 177.406 L235.6955 177.0217 L234.9452 176.5572 L234.7113 176.4379 L234.5574 176.3596 L234.2945 176.0615 L234.1721 175.7416 L234.0354 175.5574 L233.9051 175.4974 L233.7878 175.4811 L233.5361 175.5083 L233.0675 175.5504 L232.7471 175.4588 L232.374 175.2241 L231.8239 174.5045 L231.4195 173.9429 L231.3553 173.8538 L231.3109 173.5537 M240.6593 201.8216 L241.0832 201.578 L241.6301 201.3636 L242.5214 200.814 L243.3931 200.2213 L244.0684 199.1239 L244.376 198.6684 L244.8015 197.9984 L246.2595 196.5579 L246.8281 196.0865 L247.4976 195.4987 L248.3256 194.8882 L248.5936 194.8951 L248.8757 195.2095 L249.3488 195.5651 L249.5733 195.7815 L248.7383 196.7842 L248.0323 197.5428 L247.643 197.8726 L247.4312 198.1465 L246.7923 198.8788 L243.5666 201.833 L242.6865 202.6095 L242.1102 203.1437 L241.7972 203.3824 L241.4835 203.3487 L241.1656 203.0819 L240.6894 202.1395 L240.6593 201.8216 M243.3768 192.0344 L243.5781 191.9448 L243.7653 191.8923 L244.2377 191.9433 L244.4386 191.8987 L244.7146 191.7933 L245.9298 191.6259 L246.8108 191.6586 L247.3756 191.6437 L247.8353 191.7497 L248.2713 191.9874 L248.5393 192.3682 L248.7738 192.6217 L249.1664 192.6267 L249.5867 192.5935 L249.988 192.3919 L250.1822 192.4236 L250.3908 192.5123 L250.8505 192.7658 L251.2018 193.159 L251.3523 193.5432 L251.2379 193.6116 L249.8771 193.4972 L249.3012 193.4863 L248.9421 193.5096 L248.4198 193.6012 L248.0758 193.6903 L247.7171 193.8166 L247.4666 193.8557 L247.3829 193.8686 L247.1641 193.7814 L247.0456 193.7339 L246.5846 193.413 L245.9046 193.0852 L245.0331 192.9624 L244.238 192.7925 L243.5353 192.4132 L243.4046 192.2464 L243.3768 192.0344 M252.8687 194.6005 L252.8923 194.2761 L252.9869 193.9775 L253.5929 194.0261 L253.7427 194.0632 L254.9377 194.3608 L257.1977 194.9625 L258.0366 195.419 L259.4134 196.3178 L259.7491 196.4188 L260.5982 196.753 L261.4604 197.6528 L261.6894 197.889 L262.565 198.5119 L263.0937 198.7461 L264.0184 199.2215 L265.3719 199.8464 L264.8589 201.685 L264.3877 202.0984 L263.8504 202.1732 L261.7092 201.3557 L258.112 199.0056 L254.4039 196.1207 L253.4986 195.116 L253.0773 194.8832 L252.8687 194.6005 M265.0148 201.9846 L265.6843 199.6815 L269.5227 200.0752 L270.4066 202.1098 L269.9556 203.3819 L268.4989 203.4413 L265.7629 202.4768 L265.0148 201.9846 M276.5696 202.1222 L277.6717 200.8254 L279.8164 200.9318 L283.2622 202.7719 L279.5027 203.9727 L278.7153 203.9727 L276.6287 202.8897 L276.5696 202.1222 M284.7303 208.2409 L284.8476 207.6586 L284.7361 206.7074 L284.9849 206.0013 L285.6637 205.6186 L286.3512 205.579 L287.574 205.624 L287.9615 205.9444 L288.2924 206.1068 L288.846 206.2138 L289.2175 206.3321 L289.5354 206.3975 L289.9075 206.4222 L290.363 206.3811 L290.9975 206.3514 L291.3242 206.3668 L291.6791 206.4955 L292.2085 206.6852 L292.6742 206.7594 L292.7898 206.9055 L292.747 207.0258 L292.6343 207.1115 L292.2129 207.4353 L291.7446 207.6294 L291.1837 207.9884 L290.4947 208.0592 L289.9337 208.0157 L289.2172 208.2271 L288.3228 208.1424 L286.0234 208.3484 L285.0466 208.49 L284.7303 208.2409 M288.5189 204.397 L288.5786 204.2663 L288.7678 204.1375 L288.9831 204.1049 L289.7574 204.0984 L290.0583 204.1158 L290.7818 203.9345 L291.1201 203.7949 L291.8002 203.5136 L292.9949 203.2056 L294.0797 202.8788 L294.3343 202.8873 L294.6199 202.8392 L295.8306 202.2703 L297.1317 202.3327 L298.7736 202.2861 L300.6018 202.294 L302.1817 202.0757 L303.3675 201.9697 L303.6943 202.0697 L305.8441 202.7293 L307.6205 203.2779 L309.5461 204.5109 L309.6365 204.5688 L309.6653 204.5683 L309.9278 204.5639 L310.4709 204.757 L310.974 205.0259 L311.7394 205.0363 L312.2764 205.2611 L313.2487 206.2019 L315.9027 208.5524 L316.5141 209.3996 L317.128 209.9111 L319.4417 211.3946 L320.004 211.152 L320.8898 211.4684 L323.0463 212.2388 L323.69 212.3547 L324.1346 212.5919 L324.4506 212.8855 L324.639 213.1009 L324.8345 213.4455 L324.6119 213.594 L324.456 213.6985 L324.1493 213.9585 L323.8555 214.262 L323.2249 215.1364 L322.8805 215.5246 L322.7313 215.8509 L322.5295 216.1371 L322.3279 216.3247 L321.4331 216.244 L319.887 215.4048 L316.3154 212.2651 L314.8772 211.2411 L313.6522 210.9247 L313.1261 210.6207 L312.9175 210.2384 L313.0382 209.0743 L313.1504 208.3281 L312.79 207.7735 L311.2372 206.859 L310.5367 205.9934 L309.9633 205.7186 L309.1743 205.5384 L308.7507 205.0586 L306.2022 204.9694 L305.976 204.6817 L305.8281 204.6723 L305.7202 204.812 L305.716 205.0135 L305.7968 205.1388 L306.4868 205.3279 L307.004 205.5324 L307.4426 205.4175 L307.8834 205.3279 L308.4434 205.4537 L308.5213 205.7855 L308.4517 206.0553 L308.4514 206.3811 L308.2048 206.5331 L308.0224 206.6881 L307.8924 206.8293 L307.6608 206.8812 L307.2733 206.8357 L306.4536 206.8377 L306.2664 206.6891 L306.152 206.3059 L305.9396 206.2222 L305.686 206.3792 L305.1145 206.5153 L304.6682 206.4613 L303.7773 206.8253 L301.4026 206.7624 L300.1641 206.6332 L298.7615 206.8971 L298.3721 207.2897 L297.9753 207.2269 L297.7431 206.6688 L297.698 205.5176 L297.3582 204.2074 L296.9956 203.2388 L296.0718 203.2769 L295.1479 204.5129 L294.8432 205.0942 L294.0066 205.323 L293.1074 205.0274 L291.967 205.1046 L290.4985 205.1358 L289.6053 205.1908 L288.8684 204.7555 L288.5608 204.6169 L288.5189 204.397 M294.6972 138.1437 L294.7186 137.8822 L294.8371 137.6122 L295.0959 137.2135 L295.2974 137.108 L295.6622 136.9168 L295.8201 136.5364 L295.8843 136.1551 L296.06 136.0768 L296.2459 136.1258 L296.2884 136.1367 L296.5078 136.4478 L296.9467 138.0714 L297.2888 139.856 L297.3821 140.9025 L297.2393 142.0511 L297.1052 142.0947 L297.0857 142.0937 L296.9751 142.0883 L296.8863 141.8906 L296.7001 141.5538 L295.9197 139.751 L295.5904 139.4988 L295.2613 139.2467 L294.8905 138.5746 L294.6972 138.1437 M296.014 131.0108 L296.0782 130.8305 L296.38 130.8661 L296.7975 131.8974 L297.4511 134.3779 L297.4182 135.0604 L297.2476 135.4468 L297.0266 135.7172 L296.8036 135.8178 L296.596 135.8856 L296.4752 135.7846 L296.3494 135.322 L296.174 133.9559 L296.014 131.0108 M296.8921 146.4052 L296.8924 145.7078 L296.9426 145.1714 L297.0799 144.3631 L297.3508 143.0516 L297.5402 141.4251 L297.7025 141.3968 L297.7338 141.4156 L297.769 141.4369 L297.9098 141.5216 L298.1386 142.6856 L297.8552 143.7084 L297.6792 145.633 L297.8268 147.0367 L297.9041 147.3027 L298.5034 148.626 L298.8455 149.3105 L299.8185 150.1753 L300.4315 150.5497 L300.6973 150.6824 L300.9177 150.7518 L301.0672 150.7295 L301.3352 150.5358 L301.6811 150.1649 L301.8271 150.0534 L302.2069 150.0643 L302.4309 150.2228 L302.6963 151.3525 L302.8883 151.5541 L303.2815 151.7651 L303.7741 151.989 L304.4814 152.3728 L305.2602 152.9062 L306.0089 153.6283 L306.0776 154.1251 L305.8939 154.3747 L305.8629 154.4168 L305.7917 154.4064 L305.5646 154.3722 L305.425 154.2375 L304.7756 153.6694 L303.4984 152.7467 L302.9078 152.4733 L300.8148 151.7493 L300.1641 151.4501 L299.661 151.1599 L299.3984 150.9643 L299.1528 150.7092 L298.955 150.5393 L298.7503 150.2936 L297.7722 148.6246 L297.286 147.6251 L296.994 146.946 L296.8921 146.4052 M303.1257 229.9967 L303.2055 229.8709 L303.3307 229.6729 L304.8529 229.3768 L306.5172 228.997 L307.448 228.9391 L307.5825 228.9985 L307.6445 229.0465 L307.7029 229.251 L307.6758 229.5441 L307.6841 229.8877 L307.6681 230.3091 L307.686 231.2592 L307.6093 231.9009 L307.5397 233.0198 L307.755 234.0823 L307.6761 236.7484 L307.6061 237.6128 L307.9546 240.1735 L308.3319 242.5034 L308.4057 244.0837 L308.0917 246.1585 L308.0856 246.6908 L308.3555 247.6675 L308.7178 248.7344 L309.5164 251.3439 L309.2861 252.2583 L308.9884 253.3173 L308.8149 254.2223 L309.0213 255.9376 L309.3544 257.2748 L308.9519 257.3065 L308.3185 257.149 L307.6336 256.8169 L307.2471 256.4272 L306.82 255.1381 L306.4677 253.8604 L305.6566 251.4068 L305.371 250.036 L304.9819 247.5032 L304.4903 242.9039 L303.4742 233.7991 L303.1554 230.4324 L303.1257 229.9967 M306.0447 157.5568 L306.1121 157.4122 L306.1287 157.4037 L306.5807 157.169 L306.9273 157.2051 L307.2918 158.1427 L307.9431 159.3981 L308.5098 160.2549 L308.9992 161.0429 L309.3902 161.5797 L310.2741 162.542 L311.7847 164.006 L311.8604 164.2863 L311.6793 164.5037 L311.6132 164.4997 L311.4417 164.4893 L311.1765 164.3655 L310.6756 163.798 L309.7911 162.9744 L309.2736 162.5202 L308.7909 162.1567 L308.36 161.7258 L307.8646 161.1667 L307.371 160.3302 L306.3919 158.2992 L306.1191 157.7915 L306.0447 157.5568 M307.7512 229.3406 L307.7687 229.0292 L307.7735 228.9411 L307.8738 228.7173 L307.9703 228.6509 L308.3284 228.6009 L308.9011 228.442 L309.5352 228.4499 L310.7143 228.6792 L311.0222 228.7391 L311.1807 228.8188 L311.297 228.9356 L311.3382 228.9772 L311.3113 230.1462 L311.2743 231.7692 L310.8964 232.5267 L310.8242 233.7174 L310.8788 235.3795 L310.7961 236.8039 L310.7057 237.7366 L310.6204 237.9812 L311.0769 242.1013 L310.9465 242.591 L310.8427 243.1178 L310.5408 243.0876 L310.3706 242.6291 L310.3549 241.0077 L310.2118 240.1987 L310.0342 237.6539 L309.9956 236.5226 L309.8614 236.5167 L309.8563 238.4565 L309.9972 239.8873 L310.2077 241.5162 L309.7183 242.0083 L309.7269 242.7049 L309.6589 243.743 L309.4174 244.0822 L309.2829 244.1748 L309.1069 244.1995 L308.9328 244.197 L308.8031 244.1416 L308.5766 242.6514 L308.2913 240.4364 L308.101 239.213 L308.1198 238.7501 L308.1313 237.198 L308.0492 236.2795 L307.9195 236.0261 L308.0144 232.343 L307.8655 231.2745 L308.0693 230.4116 L307.8227 229.7947 L307.7512 229.3406 M313.9528 165.2614 L313.9598 164.9831 L314.0534 164.6657 L314.1246 164.5042 L314.3115 164.2279 L314.9699 164.0614 L315.2238 164.1229 L315.4286 164.2115 L315.7889 164.4299 L315.8324 164.6181 L315.8793 164.731 L316.1122 164.8865 L316.3007 164.939 L316.6188 164.9058 L316.8888 164.9356 L317.1619 164.8974 L317.3884 164.7756 L317.451 164.7419 L317.6625 164.7429 L317.8749 164.7444 L318.324 164.7845 L318.9134 164.9004 L319.2501 164.9697 L319.6219 165.095 L319.9841 165.2763 L320.2403 165.2852 L320.5055 165.3362 L320.5857 165.361 L320.7275 165.3803 L320.9866 165.4744 L321.2804 165.6725 L321.2923 165.8632 L321.2648 166.0315 L321.2239 166.1058 L321.2003 166.1489 L321.0316 166.2282 L320.9479 166.2455 L320.755 166.2851 L320.0761 166.2499 L319.5174 166.193 L318.5719 166.0964 L317.4542 166.031 L316.8725 166.0137 L316.4636 166.0236 L316.0285 166.0786 L315.2449 166.144 L314.9073 166.0617 L314.4789 165.8547 L314.1758 165.615 L313.995 165.4392 L313.9528 165.2614 M321.8612 167.3598 L321.9088 167.1949 L322.1305 167.1795 L322.2474 167.1914 L322.5138 167.23 L322.7543 167.2756 L323.1754 167.3984 L323.5255 167.5282 L324.0442 167.7946 L324.3544 168.0259 L324.801 168.3839 L325.1843 168.685 L325.5562 169.005 L325.8682 169.3566 L326.1327 169.6235 L326.487 170.097 L326.817 170.5501 L327.4779 172.0645 L327.8449 173.0327 L328.5126 173.9206 L329.0553 174.458 L329.6086 175.0161 L330.3478 175.8084 L330.8014 176.2953 L331.025 176.7533 L331.2428 177.2481 L331.4741 177.7948 L331.4182 177.9161 L331.2927 178.0077 L331.0949 177.9404 L330.0622 177.0049 L328.6218 175.4489 L328.3826 175.2647 L328.0893 175.1746 L327.8175 175.074 L327.5753 174.8096 L327.4929 174.2846 L327.3846 173.0698 L326.6729 171.6228 L326.4024 170.7482 L325.8047 170.194 L325.0259 169.6067 L324.4295 169.2665 L324.3257 169.003 L324.1743 168.7529 L323.9056 168.6429 L323.6347 168.6538 L323.4316 168.7257 L323.2297 168.9094 L322.901 168.8717 L322.732 168.6276 L322.449 168.2012 L322.1305 167.7292 L321.9618 167.5386 L321.8612 167.3598 M323.5938 217.6775 L324.134 216.7887 L324.2554 216.2921 L324.3241 215.3835 L324.5857 214.9586 L324.9585 214.6368 L325.4383 214.567 L325.912 215.2914 L326.4704 216.5198 L326.985 217.4576 L327.1163 217.6973 L327.1476 217.8275 L327.216 218.1127 L327.1882 218.5043 L326.9761 218.8227 L326.663 218.9133 L326.319 218.5014 L325.7906 218.2226 L325.2667 218.3454 L324.7831 218.6212 L324.4499 218.5841 L324.0621 218.3325 L323.7117 218.0023 L323.5938 217.6775 M326.3647 214.5922 L326.5055 214.1362 L326.9355 214.0194 L327.6555 213.955 L328.2497 213.6411 L328.8295 213.4589 L329.5025 213.4509 L329.9791 213.5643 L330.8627 214.2243 L331.8686 214.6987 L332.8075 215.0577 L333.3847 215.1364 L334.2919 214.8467 L335.2502 214.8393 L336.4999 215.1963 L336.9698 215.2325 L337.7901 215.1329 L338.5753 215.2191 L339.2787 215.2607 L341.018 215.0007 L342.3035 214.8854 L342.7057 214.7452 L343.3375 214.2714 L343.8055 213.7084 L344.828 212.7909 L346.1981 211.2109 L346.7654 210.1235 L349.1002 214.6685 L348.4518 215.5994 L347.834 216.2222 L347.3308 216.6783 L346.139 217.4289 L345.9678 217.5378 L345.4544 217.7463 L344.9529 217.9503 L342.6306 218.5583 L340.8203 217.9894 L339.7524 218.0092 L337.4726 218.7811 L331.7271 218.7232 L329.7897 218.5885 L328.9202 218.4831 L328.2085 217.9478 L327.7453 217.3482 L326.8138 216.142 L326.4222 215.2389 L326.395 214.9349 L326.3647 214.5922 M332.4222 177.1782 L332.4443 176.9257 L332.5589 176.8128 L332.7036 176.7325 L332.7985 176.7226 L333.0391 176.6984 L333.9159 177.3347 L334.1715 177.5492 L334.7771 178.0444 L335.0752 178.237 L335.4569 178.3187 L336.1852 178.3786 L337.2956 178.445 L337.7665 178.6783 L338.1584 178.8729 L339.0433 179.2002 L339.494 179.2047 L339.663 179.2522 L339.6703 179.3092 L339.6908 179.4642 L339.5026 179.6509 L339.0538 179.7177 L338.8059 179.6875 L337.9316 179.5815 L336.7283 179.6226 L336.5628 179.6281 L335.5243 179.5781 L334.4478 179.481 L333.2563 179.0343 L333.2336 178.9992 L332.796 178.3202 L332.5206 177.5804 L332.4222 177.1782 M342.5226 181.1261 L342.5485 180.6051 L342.7999 179.3765 L342.896 179.1725 L342.9299 179.2948 L343.0075 179.3681 L343.3295 179.6637 L343.5963 179.8697 L344.1189 179.9351 L345.1181 179.7836 L345.2449 179.7628 L345.3867 179.8019 L345.7269 179.9208 L345.7777 179.9728 L346.1045 180.307 L346.3335 180.5769 L346.5865 180.6661 L347.0187 181.4633 L347.6634 182.4964 L347.6918 182.7172 L347.5797 182.8078 L347.4238 182.8618 L346.8261 182.7014 L346.4338 182.6063 L346.1588 182.6712 L345.4311 182.7588 L344.1856 182.6375 L343.2835 182.3161 L342.9331 181.9853 L342.5625 181.4916 L342.5226 181.1261 M346.7827 210.0849 L347.3494 208.9495 L347.7653 208.1137 L348.3649 207.2779 L349.3682 206.2311 L349.9969 205.7176 L350.0988 205.6537 L350.3642 205.4884 L350.6409 205.3918 L350.9648 205.475 L351.3507 205.6057 L351.5117 205.6092 L351.8231 205.5052 L352.2841 205.424 L352.6569 205.4081 L352.9185 205.4428 L353.0686 205.528 L353.1744 205.5141 L353.2513 205.3774 L353.313 204.9655 L353.5848 204.7174 L353.8854 204.4896 L354.6067 204.0271 L356.0346 203.7964 L356.4077 203.531 L356.8744 203.2656 L357.4811 202.8714 L357.6491 202.8075 L357.7274 202.7333 L357.781 202.6347 L357.8654 202.3322 L358.1832 202.0445 L358.5151 201.8415 L358.9243 201.7786 L359.2233 201.9345 L359.8916 202.6605 L359.9111 202.7793 L359.8551 202.9051 L359.3846 203.2245 L359.0316 203.4166 L358.7815 203.6627 L358.1893 204.5203 L357.9883 204.7659 L357.3667 205.8285 L355.5845 208.2301 L354.9901 208.8307 L353.3548 209.968 L352.0164 211.2346 L350.5633 212.3814 L349.6621 213.3227 L349.1044 214.6383 L346.7827 210.0849 M354.2212 190.8088 L354.5 190.3503 L354.7415 190.0606 L355.2105 189.9695 L355.8583 189.9878 L356.915 190.1982 L357.5692 190.1299 L357.8174 189.866 L358.1835 189.7219 L360.0612 189.8204 L360.4947 189.8605 L360.1928 190.5538 L359.7954 191.3273 L359.4169 192.2825 L358.6886 192.0408 L356.7505 191.6021 L354.6463 191.3476 L354.2512 191.0614 L354.2212 190.8088 M357.1693 206.5242 L357.7516 205.7122 L358.356 204.8402 L359.0617 203.9043 L359.3191 203.5944 L360.4046 202.9759 L360.7933 202.8303 L361.0301 202.8358 L361.1607 202.9001 L361.314 203.0205 L361.4393 203.2774 L361.1233 203.7721 L360.5803 204.3678 L359.5677 205.0853 L358.4966 205.8201 L357.4922 206.3648 L357.1693 206.5242 M359.4242 192.2924 L359.8152 191.3298 L360.2001 190.5637 L360.5071 189.8556 L360.5927 189.8694 L360.7307 189.9858 L360.8588 190.167 L361.2319 190.2299 L361.5495 190.48 L361.8456 190.7529 L362.3037 191.3421 L362.733 191.9606 L363.0652 193.1426 L363.0342 193.5432 L362.8148 193.9335 L362.5621 194.0993 L362.2379 193.9949 L361.0818 193.2149 L360.3998 192.7297 L359.4667 192.2993 L359.4242 192.2924 M359.6999 201.1086 L360.418 200.763 L361.2687 200.1059 L362.412 199.579 L362.4861 199.5795 L362.7419 199.581 L362.9419 199.6256 L363.1352 199.7914 L363.2751 199.8103 L363.4546 199.7766 L363.5939 199.6879 L363.7715 199.4305 L364.6688 198.8947 L365.1904 198.6466 L365.5818 198.3346 L365.6763 198.295 L365.8392 198.3302 L366.4088 198.815 L366.6238 199.0774 L366.7937 199.2319 L365.5936 200.0232 L363.2473 201.2522 L361.4607 202.1628 L361.0406 202.1509 L360.0637 201.5409 L359.6999 201.1086 M360.0187 222.8055 L360.0577 222.1312 L360.3822 221.8475 L360.6783 221.7341 L360.9262 221.7371 L361.0901 221.9084 L361.1971 222.2777 L361.2323 223.0194 L361.0879 223.4858 L360.8732 223.7844 L360.6368 223.9795 L360.3544 224.0047 L360.1832 223.8899 L360.035 223.4061 L360.0187 222.8055 M367.5179 196.8664 L367.5607 196.8253 L367.7667 196.6263 L368.3631 196.4322 L369.0819 196.243 L369.7243 196.1004 L370.6031 195.7047 L370.8254 195.578 L371.2646 195.3279 L371.7786 194.9426 L372.4069 194.6406 L373.1199 194.3355 L374.8657 193.719 L375.2004 193.5794 L375.3429 193.52 L375.6949 193.721 L376.2961 194.1142 L376.5731 194.1573 L377.1011 194.1449 L377.1062 194.4529 L376.4983 194.6366 L376.6536 195.2308 L375.8706 195.4973 L375.1643 195.8246 L375.3231 196.3064 L376.5772 196.4148 L377.4589 196.1648 L378.0371 195.9028 L378.2319 196.1895 L378.2859 196.4435 L378.2313 196.6317 L376.6817 197.0368 L375.494 197.1269 L374.7175 197.3175 L373.9776 197.4364 L372.7142 197.3562 L371.8581 197.3453 L371.1643 197.3893 L370.5487 197.5324 L368.8969 198.0742 L368.6315 198.044 L368.3829 197.9014 L367.5879 197.2007 L367.5179 196.8664 M375.2385 195.8404 L376.6593 195.27 L376.6929 195.2511 L376.5549 194.6693 L377.1257 194.4757 L377.1069 194.0766 L377.8678 193.9869 L378.5951 193.5843 L379.5496 193.4125 L379.8256 193.8453 L379.9189 194.0805 L377.7448 195.3893 L377.0548 195.7696 L377.0733 196.2395 L376.5587 196.3925 L375.3579 196.2692 L375.2385 195.8404 M375.8531 193.5091 L375.9447 193.2045 L376.3 192.9733 L376.7136 192.75 L377.2113 192.5529 L377.8742 192.4424 L378.4233 192.8 L378.5635 193.2442 L378.3134 193.6131 L377.7272 193.9364 L376.8216 194.0246 L376.3552 193.9904 L376.0776 193.8027 L375.8531 193.5091 M377.3893 197.1898 L377.5547 197.1437 L378.8127 196.754 L379.0226 196.7085 L379.4024 196.7684 L379.5902 196.9263 L379.7975 197.0551 L379.9333 197.2264 L380.0278 197.4904 L379.9796 197.6468 L379.6672 197.8934 L379.2925 197.9895 L378.7047 198.0469 L378.3246 198.0068 L377.9489 197.8058 L377.7822 197.6533 L377.6442 197.4978 L377.5209 197.3656 L377.3893 197.1898 M378.4821 192.7341 L378.4913 192.6351 L378.5836 192.3721 L378.8104 191.8646 L379.5947 192.3132 L380.392 193.0599 L380.6552 193.3625 L380.6345 193.4809 L380.5092 193.675 L380.0253 194.0488 L379.9448 193.9444 L379.9077 193.7324 L379.5688 193.3486 L378.744 193.4586 L378.6571 193.3486 L378.6501 193.1709 L378.6041 192.9515 L378.4821 192.7341 M378.7517 195.267 L379.6269 194.6837 L379.8176 195.1714 L381.0571 194.3232 L380.7165 193.8532 L380.82 193.7636 L380.9957 193.7592 L381.105 193.8849 L381.5714 194.7287 L381.6825 195.0942 L381.7129 195.2838 L381.6289 195.3943 L381.4299 195.5596 L380.1163 196.1128 L379.6758 196.2346 L379.5886 196.2341 L379.2736 195.9914 L378.8124 195.3957 L378.7517 195.267 M378.9967 177.1555 L379.0012 177.1059 L379.0753 176.9341 L379.2449 176.6865 L380.0154 175.9387 L380.9842 175.0621 L381.4931 174.6977 L381.6723 174.61 L382.0681 174.4986 L382.2939 174.4832 L382.561 174.4773 L382.8776 174.5783 L382.9555 174.7546 L382.9817 174.9983 L382.9814 175.1949 L382.9322 175.445 L382.9683 175.4999 L383.1485 175.0681 L383.2609 174.9284 L383.3836 175.0072 L383.5164 175.1473 L383.5982 175.4662 L383.6624 176.0863 L383.6592 176.5023 L383.6519 176.7712 L383.5577 177.0163 L383.4107 177.0163 L383.2775 176.6706 L383.0146 176.323 L382.9526 176.0244 L382.7597 175.7599 L382.5923 175.6321 L382.4434 175.5603 L382.2991 175.542 L382.0611 175.5722 L381.7605 175.702 L381.504 175.9258 L381.12 176.2195 L380.8437 176.472 L380.338 176.7003 L379.9719 176.7915 L379.4449 176.9816 L379.3008 177.0168 L379.0947 177.156 L378.9967 177.1555 M379.8458 196.3935 L380.821 196.1326 L381.4899 196.037 L381.918 196.088 L382.0013 196.1742 L382.0694 196.6377 L382.1195 197.1026 L382.1211 197.7726 L381.7266 197.6468 L381.2903 197.4493 L380.9041 197.1665 L379.902 196.5228 L379.8458 196.3935 M381.1261 193.1461 L381.1331 192.9223 L381.2245 192.7975 L381.3628 192.7495 L381.5241 192.7574 L381.7062 192.7995 L382.0723 193.0659 L382.8629 193.5809 L383.3654 194.0681 L383.7771 194.3885 L384.9137 195.1254 L385.942 195.7775 L386.6367 196.3232 L387.2041 197.3265 L387.628 198.706 L387.7391 199.4423 L387.856 200.2148 L388.2215 200.8169 L388.4042 201.27 L388.4997 201.3908 L388.4764 201.5315 L388.4163 201.6082 L388.3505 201.6681 L388.1212 201.6974 L386.04 200.8462 L385.3171 200.7367 L384.9255 200.5436 L384.3163 199.8563 L382.9552 198.3822 L382.6603 197.8697 L382.5837 197.2537 L382.5779 196.7629 L382.6687 196.1593 L382.5271 195.7206 L382.2738 195.5289 L382.0984 194.9095 L381.1261 193.1461 M382.1077 200.5807 L382.1227 200.0474 L382.209 199.6152 L382.355 199.1502 L382.4323 199.0571 L383.1983 199.9776 L383.4973 200.2198 L383.8404 200.3188 L384.0783 200.5387 L384.2023 200.8808 L384.5147 201.3215 L385.2392 201.7726 L386.6064 202.454 L387.2446 203.1165 L387.9813 204.2841 L388.1474 204.752 L388.5119 207.3264 L388.9338 208.7074 L390.0059 211.148 L391.7254 213.6594 L392.5084 215.3231 L393.5843 217.8077 L395.1923 220.0298 L396.3516 221.0449 L397.0492 221.1974 L398.2826 221.6034 L398.8649 221.4227 L399.4674 220.9815 L400.0491 220.9364 L400.5085 221.0919 L401.041 221.2142 L401.385 221.4786 L401.6792 221.8163 L401.6505 222.0089 L401.5013 222.2193 L401.2534 222.4555 L400.8065 222.5827 L399.677 222.862 L399.1748 222.9863 L399.0739 222.9957 L397.8622 223.1115 L396.5372 223.1358 L395.5367 222.9169 L394.6563 222.6585 L392.5375 221.4281 L390.9936 220.4393 L390.769 220.2957 L389.8379 219.3481 L388.1908 217.672 L386.9348 216.5882 L386.4243 215.8113 L385.8832 214.4833 L385.8036 213.9406 L385.7992 213.3722 L385.8308 212.7671 L385.4293 210.6538 L384.7718 209.509 L384.2128 207.0976 L384.0825 206.5698 L383.8448 205.7354 L383.5008 204.9258 L383.1168 204.2138 L382.7527 203.628 L382.5025 203.071 L382.5118 202.5203 L383.0743 201.8801 L383.2619 201.4834 L383.6292 200.8026 L383.7097 200.554 L383.5363 200.4574 L383.2513 201.1626 L382.9587 201.631 L382.4284 202.3356 L382.1515 201.9756 L382.2652 201.2997 L382.1435 200.8323 L382.1077 200.5807 M394.6493 217.6913 L394.6985 217.5928 L394.8071 217.5116 L395.7641 217.5378 L397.6705 217.6329 L399.1681 217.5784 L400.428 217.573 L400.9122 217.6057 L401.2138 217.7399 L401.4904 217.7953 L401.7856 217.8052 L402.3337 217.7562 L402.7615 217.6552 L403.9805 217.4794 L404.8819 217.2918 L405.1541 217.1957 L405.2889 217.2036 L405.3691 217.2081 L405.9322 217.475 L406.4057 217.8889 L406.759 218.1028 L407.0685 218.2271 L407.294 218.0553 L407.1749 217.7171 L406.9005 217.3888 L406.644 217.3086 L406.3159 216.5248 L406.366 216.2876 L406.4216 216.1713 L406.475 216.0589 L406.7005 215.7885 L406.9263 215.7108 L406.9816 215.692 L407.3094 215.6182 L407.816 214.9473 L408.3737 214.4551 L408.4894 214.2862 L408.5267 214.2179 L408.4434 213.8812 L408.3552 213.192 L408.192 212.6077 L407.9339 211.808 L407.5384 211.2178 L407.5179 210.9772 L407.6694 211.0638 L408.2399 211.3896 L409.5902 212.4428 L411.1222 213.5703 L411.9361 214.4254 L412.0677 214.6116 L412.1473 214.7244 L412.1064 214.8606 L410.9871 214.722 L410.4686 214.821 L410.1783 215.1121 L410.1731 215.3508 L410.2795 215.6593 L410.5312 215.8227 L411.503 216.0801 L411.9559 216.2495 L412.453 216.6297 L412.4476 216.8179 L412.4124 217.0759 L412.1623 217.1695 L411.8703 217.1957 L411.6077 217.2502 L409.0628 217.1957 L408.6788 217.2883 L408.6679 217.468 L409.057 217.4334 L411.1973 217.4433 L414.032 217.5532 L414.1578 217.5591 L414.3495 217.7611 L414.6543 218.025 L414.6578 218.3221 L414.6584 218.3692 L414.5888 218.7727 L414.2374 219.2099 L413.9905 219.2901 L413.7458 219.2941 L413.3091 219.1946 L412.4584 219.1005 L411.6707 219.0633 L410.9385 219.151 L410.3111 219.4619 L410.0882 219.6605 L409.0819 219.6882 L408.9446 219.5303 L408.7347 218.5212 L408.5711 218.1335 L408.5478 218.6762 L408.5625 219.4926 L408.4769 219.8358 L407.8853 220.1655 L407.5639 220.5963 L407.3771 220.7518 L407.1698 220.7255 L405.6364 220.3665 L404.2648 220.3561 L402.7455 220.4656 L401.7041 220.6116 L401.2323 220.4106 L400.726 219.9833 L400.0692 220.0095 L399.3639 220.0947 L398.649 220.3774 L398.1104 220.6849 L397.4735 220.6884 L396.7506 220.3279 L396.3522 220.0026 L395.9133 219.5119 L395.6073 219.2461 L394.9051 218.2508 L394.6608 217.875 L394.6493 217.6913 M401.4393 210.8415 L401.6805 209.6937 L405.615 210.174 L406.1041 210.2815 L406.2766 210.5375 L405.9521 213.9738 L405.3371 214.3372 L404.2648 214.6561 L403.5396 214.672 L403.0151 214.4863 L403.0442 214.059 L402.7759 213.6985 L402.0319 212.8983 L401.6779 212.4255 L401.5495 211.9313 L401.5323 211.4857 L401.4393 210.8415 M410.1568 220.8389 L410.1572 220.5393 L410.56 220.2086 L411.0657 219.9798 L411.6231 219.9838 L412.6328 219.9482 L413.0644 220.1546 L413.4372 220.2378 L413.4378 220.5953 L413.266 221.0216 L412.8427 222.1277 L412.7162 222.2807 L412.1597 222.4654 L411.7304 222.2985 L411.6512 221.9569 L411.2592 221.6613 L410.9986 221.434 L410.7114 221.1602 L410.1568 220.8389 M412.3818 231.4305 L412.605 230.9671 L412.6328 230.8834 L412.8417 230.2541 L413.1503 229.1624 L413.5094 228.4385 L413.8122 227.078 L413.7592 226.6309 L413.9687 226.3308 L414.5175 226.3892 L415.3414 226.6328 L417.4989 227.1423 L418.692 227.38 L418.7198 227.0869 L418.3438 226.87 L418.1266 226.7824 L417.8467 226.7403 L417.1293 226.5408 L415.818 226.3269 L414.8255 225.9907 L414.0598 225.8491 L413.6694 225.6203 L413.304 225.1658 L413.0376 224.1137 L413.0219 223.6443 L413.1922 223.1021 L413.8033 222.203 L413.9291 221.3395 L414.3722 220.7681 L414.5817 220.5289 L415.1813 220.4576 L416.6849 220.8983 L417.7768 221.4746 L418.3141 222.815 L418.8019 224.1968 L418.9971 225.3906 L418.8846 226.4105 L418.9507 228.7376 L418.9424 232.034 L419.0073 234.157 L418.8795 234.567 L418.9217 235.3453 L419.3695 237.8302 L419.9014 239.667 L421.3762 242.7232 L422.8204 244.6857 L423.2651 245.2273 L424.1672 246.6081 L425.0316 248.2156 L425.4977 248.9963 L425.5168 249.4637 L425.8296 250.0256 L426.4308 250.6781 L426.725 250.9291 L427.1473 251.3692 L427.2128 251.7078 L427.1166 252.0291 L426.9141 252.4583 L427.0013 252.8881 L427.2249 253.4 L427.7312 253.7841 L427.5814 253.95 L427.2891 253.8232 L426.9384 253.4881 L426.5499 253.4782 L426.2129 253.4455 L424.8712 253.2158 L424.2404 253.0594 L423.7312 253.046 L423.4162 252.9128 L422.4413 251.9677 L422.3103 251.7766 L422.2368 250.9499 L421.9822 249.2023 L423.6756 248.8013 L423.7107 248.6953 L423.5884 248.523 L423.3625 248.3869 L422.4026 247.9136 L421.9794 247.7636 L420.8543 247.0373 L419.6682 246.5759 L419.1584 245.2001 L418.7588 243.7564 L417.2829 241.3364 L417.7736 240.4883 L418.0033 239.5115 L417.7001 238.6045 L417.3832 237.9451 L416.2492 237.8228 L415.579 237.65 L414.768 235.4923 L414.1339 234.4853 L413.5844 234.0551 L412.6705 233.6931 L412.6661 232.744 L412.5194 232.2653 L412.4025 231.8825 L412.3818 231.4305 M420.2576 191.7264 L420.446 189.4683 L423.0546 189.6337 L423.0204 189.9962 L423.2542 190.015 L423.0942 191.969 L422.0656 191.8651 L422.0241 192.4444 L421.8324 192.6375 L421.5864 192.588 L421.4427 192.4098 L421.4906 191.8155 L420.2576 191.7264 M428.8215 255.7956 L428.9272 254.5099 L429.0907 254.1515 L429.1738 253.5212 L429.4316 253.3108 L429.8136 253.549 L430.6301 253.8916 L432.3487 254.5485 L433.5987 254.8787 L434.6902 255.0762 L435.1585 255.5347 L435.9082 257.157 L436.3392 257.7025 L436.8972 258.2174 L437.2352 258.7055 L440.8749 262.3292 L442.8283 263.4931 L443.2254 263.5515 L443.608 263.7456 L444.3587 264.2584 L445.189 265.3634 L445.8112 265.7747 L445.9984 266.1331 L446.3635 266.2836 L446.6338 266.2421 L447.2794 266.0861 L448.232 266.198 L448.9472 266.6257 L449.9755 267.8598 L450.6552 268.5558 L452.154 269.4321 L452.0681 269.7167 L451.7362 269.9964 L451.1667 270.1543 L450.6195 270.0647 L449.5091 269.3994 L448.2751 268.495 L447.4921 267.6633 L446.6641 267.0613 L445.7416 266.6406 L445.0998 266.2 L444.6635 265.3985 L443.2343 264.056 L442.6258 263.6723 L442.0316 263.4035 L441.647 263.3287 L440.8104 263.256 L440.3351 263.1263 L439.6626 262.4248 L438.6478 261.4218 L438.1255 261.1104 L437.7345 260.9713 L437.1052 260.9604 L436.5883 260.81 L436.0737 261.3382 L434.9688 262.352 L434.5791 262.3619 L433.9066 260.2624 L433.6568 259.257 L433.5211 258.4114 L433.2329 258.1911 L432.1184 257.7352 L430.7458 257.5322 L429.9395 257.5327 L429.1738 257.0159 L428.9036 256.7208 L428.8215 255.7956 M430.7662 253.6539 L430.8732 253.596 L432.1222 253.5975 L432.6969 253.5787 L433.5262 253.7589 L434.6327 254.0267 L435.5955 254.4327 L436.9848 255.1262 L437.0467 255.1757 L437.7284 255.7213 L438.5928 256.1763 L439.2934 256.3862 L439.6824 256.4545 L440.0287 256.6916 L440.2188 256.9743 L441.011 257.5159 L441.2126 257.9312 L441.593 258.2941 L442.2201 258.6906 L442.6488 258.9025 L442.9267 259.1233 L443.1187 259.2268 L443.4867 259.3595 L443.953 259.4431 L444.9631 260.3317 L446.0384 261.1194 L446.575 261.5778 L446.6945 261.7684 L447.0222 261.8956 L447.2308 261.9392 L447.5621 261.856 L448.223 262.3248 L448.7341 262.5604 L449.1465 262.6401 L449.9474 262.8278 L451.2395 263.5797 L452.9897 264.3263 L453.48 264.5777 L453.5308 264.7406 L453.5545 264.8168 L453.1842 265.3634 L452.9856 266.9945 L452.9373 267.192 L452.8597 267.5093 L452.7498 267.5356 L451.6276 266.7039 L451.1012 266.352 L451.0261 266.302 L449.8017 265.7039 L447.9655 265.3545 L446.5891 265.2584 L445.2005 263.8674 L443.8853 262.501 L442.6274 261.7283 L441.0426 260.9936 L439.5543 259.5847 L437.8504 257.7065 L436.4769 256.3332 L435.7447 255.4475 L435.4016 255.1886 L435.1636 255.0327 L434.8982 254.9277 L433.6278 254.6866 L432.466 254.4039 L431.7546 254.1455 L430.7892 253.7326 L430.7662 253.6539 M436.2047 263.7708 L436.3251 263.1104 L436.5861 262.4733 L436.8902 262.3233 L437.639 262.2317 L438.1105 262.85 L438.9088 263.5119 L439.1774 263.6263 L439.3662 264.0921 L439.5745 264.5154 L439.9418 264.802 L440.2475 264.6926 L440.6909 264.7159 L441.1196 264.8693 L441.3854 265.1153 L441.5585 265.4069 L441.9677 265.652 L442.1603 265.9119 L442.4242 266.1747 L442.8382 265.8693 L443.1953 266.1282 L444.3431 267.0623 L445.1372 267.5772 L445.915 268.0083 L446.591 268.4974 L446.5993 268.944 L446.7363 269.1816 L446.9692 269.2949 L447.2826 269.0123 L448.6699 269.9093 L450.0901 271.0597 L450.3383 271.3815 L450.0116 272.0532 L449.3807 272.6948 L449.0034 272.6438 L448.215 272.0928 L447.5225 271.5201 L447.1903 271.3919 L446.7823 271.7473 L446.4862 272.2651 L446.4837 272.5106 L447.3864 273.5027 L448.138 274.0922 L449.5624 275.4357 L450.0914 275.6743 L450.1786 276.0555 L450.3403 276.1941 L451.1015 277.0331 L452.0208 277.3975 L453.1772 278.1162 L453.2922 278.6662 L453.013 278.9067 L452.7533 279.0454 L452.4757 279.1419 L452.1378 279.0424 L451.8359 279.026 L451.6126 279.0889 L451.4366 278.878 L451.3312 278.6573 L450.998 278.1261 L450.484 277.6539 L450.3035 277.5549 L448.5217 278.0217 L448.3016 277.7999 L448.023 277.5742 L446.9555 276.4292 L446.2096 275.408 L445.1391 273.9888 L444.5772 273.1764 L443.9687 272.6453 L443.4879 271.7453 L443.5761 271.13 L444.5025 269.6177 L444.2217 269.1642 L444.1294 268.9271 L443.9102 268.2138 L443.4755 268.0385 L442.9062 267.8965 L442.4271 267.5034 L440.7142 266.3401 L440.1836 266.1559 L439.8514 265.9034 L439.4917 265.5643 L439.4282 265.0688 L439.0369 264.7847 L438.4718 264.7168 L437.0637 264.2124 L436.3168 264.1183 L436.2047 263.7708 M449.2542 274.3417 L449.4612 274.2303 L449.9167 274.1338 L450.1441 274.1883 L450.476 274.4442 L450.7217 274.7016 L451.0382 275.2743 L451.0462 275.4194 L450.9798 275.4669 L450.9194 275.4872 L450.6402 275.5798 L450.4875 275.5382 L450.3147 275.4595 L450.1486 275.2728 L449.7547 274.9615 L449.3177 274.4976 L449.2542 274.3417 M454.8303 279.0166 L454.8489 278.6686 L455.2686 278.2875 L455.8267 278.037 L456.2883 277.8796 L457.4852 277.8088 L457.8605 278.1236 L458.2455 278.2919 L458.3595 278.6781 L458.6569 279.2681 L458.8383 279.5067 L459.2207 279.7498 L459.3657 279.875 L459.6021 280.2829 L459.7555 280.7071 L459.9379 281.0036 L460.0394 281.1016 L460.0053 281.364 L459.9791 281.561 L460.0065 281.8718 L460.0324 282.348 L459.9832 282.5342 L459.4047 282.6327 L458.8019 282.4678 L458.5304 282.1164 L458.5211 281.5917 L457.651 280.6625 L456.914 280.2141 L456.0736 279.9804 L455.7187 279.6458 L455.3699 279.431 L455.0843 279.2909 L454.8303 279.0166 M455.9579 274.3477 L456.3713 273.1804 L456.8747 271.9696 L457.3858 271.0587 L458.4323 269.781 L459.5437 268.8029 L460.1321 268.5786 L460.3158 268.5049 L460.6055 268.5554 L460.7904 268.69 L461.0655 269.0306 L461.9309 270.2147 L462.8889 271.3716 L463.3552 272.1329 L463.9254 272.5601 L464.264 272.9502 L464.3733 273.323 L464.4401 274.2917 L464.5119 275.3011 L464.7177 275.7347 L465.3447 276.8104 L465.6888 277.2326 L466.1695 277.5806 L467.1167 278.1137 L467.7373 278.6553 L468.1108 279.1775 L468.4564 279.8463 L468.695 280.4626 L468.7573 281.9055 L468.8384 282.8242 L469.0045 283.7766 L469.553 285.3532 L470.4194 287.745 L470.7672 289.1335 L471.4032 291.2372 L471.8917 292.8295 L471.9057 293.0473 L471.5799 293.2413 L470.9206 293.4096 L470.3893 293.4156 L470.0632 293.1978 L469.7651 292.8335 L469.5575 292.3375 L469.3099 291.6193 L469.1195 291.3168 L468.6819 290.7516 L468.4305 290.2244 L468.3034 289.8472 L468.3727 289.47 L468.5513 288.9716 L468.6161 288.6489 L468.4503 288.1464 L468.1433 287.6802 L467.8469 287.3361 L467.5061 287.1812 L466.0331 286.7159 L465.0122 286.2714 L464.1471 285.7225 L463.5108 285.2532 L463.0035 284.6315 L462.7326 284.088 L462.6154 283.687 L462.5257 283.3658 L462.5097 282.9554 L462.6557 282.4149 L462.5691 282.1411 L462.4602 281.8862 L462.4276 281.5189 L462.5151 281.1204 L462.785 280.7056 L463.3639 280.0463 L462.7745 278.5068 L462.4314 277.6326 L461.9842 276.9732 L461.3437 276.6693 L460.3186 276.0842 L459.8705 275.9688 L458.5068 275.658 L457.5034 275.4971 L456.8856 275.3644 L456.3911 275.2164 L456.1062 274.9154 L455.9579 274.3477 M468.7746 298.2668 L469.063 297.7951 L469.837 296.8651 L469.9756 296.6305 L470.3085 296.0677 L470.5481 295.2203 L470.8912 294.5718 L471.3135 294.512 L471.7904 294.6124 L472.2069 295.1916 L472.567 296.0889 L473.1292 297.71 L473.8224 299.8062 L473.8243 300.3823 L473.7703 300.8204 L473.5473 301.3807 L473.5055 301.9652 L473.6911 302.8868 L473.9735 303.512 L474.2721 303.8317 L475.4084 305.2448 L475.8102 305.8615 L476.192 307.0024 L476.4015 307.5602 L477.5873 309.7331 L478.1348 311.2708 L478.9257 313.8356 L479.0535 314.5672 L479.095 315.4991 L479.0976 316.6394 L478.8427 317.8926 L478.7711 318.3346 L478.7561 318.8181 L478.8727 319.1784 L479.0241 319.3536 L482.1706 321.0631 L482.5278 321.4007 L482.7546 321.7684 L482.8788 322.0163 L483.2839 322.3469 L483.4771 322.486 L483.8598 323.0864 L484.2253 323.8936 L484.2786 324.2336 L484.5102 325.8069 L484.7616 326.6824 L485.0408 327.9261 L485.3123 328.3265 L486.2863 329.6692 L486.7466 330.4947 L486.8686 331.1183 L486.807 331.4113 L486.6204 331.6364 L486.5259 331.7211 L486.2419 331.7735 L486.0199 331.6132 L484.8255 329.5222 L484.4211 328.7274 L484.1221 327.7623 L483.8863 326.8091 L483.5963 326.0608 L483.1737 325.2942 L482.5626 324.0272 L481.9834 323.3076 L481.7125 323.02 L480.4022 321.8976 L478.8999 320.9988 L478.4488 320.6325 L478.1307 320.2356 L477.855 318.9834 L477.8527 318.1564 L477.7604 317.6442 L477.7326 317.3022 L477.6362 316.7894 L477.5406 316.634 L477.4058 316.5885 L476.7829 316.8572 L476.0223 317.2284 L475.5563 317.4175 L475.2352 317.3972 L474.865 317.2824 L474.5322 317.123 L474.1964 316.7508 L473.8808 316.2376 L473.7249 315.6768 L473.4873 314.4489 L473.2844 312.8096 L473.0151 311.4797 L472.7235 309.6984 L471.8805 306.0056 L471.9198 305.331 L472.0178 304.4034 L471.4703 303.6342 L471.1598 302.9368 L471.072 302.3132 L471.1531 302.0266 L471.5566 301.7776 L472.3194 301.9548 L473.042 302.3147 L473.1621 301.9603 L470.8372 300.9555 L470.3363 300.565 L470.1398 300.2873 L469.7702 299.6226 L468.9621 298.3485 L468.8455 298.3262 L468.8336 298.3163 L468.7746 298.2668 M485.1465 394.0557 L485.158 393.4294 L485.2468 392.7203 L485.4503 391.8985 L485.9125 390.8837 L486.2489 390.5057 L486.8083 390.1341 L487.8056 389.5453 L487.9915 389.3103 L486.8329 385.3223 L486.2834 383.7791 L486.2863 383.5243 L486.5725 383.5366 L487.2066 383.8597 L488.6633 384.7711 L489.849 385.4876 L492.4489 386.9398 L494.2116 388.0382 L494.9904 388.6493 L495.6044 389.2856 L495.8743 389.7705 L496.2842 390.1717 L496.7164 390.523 L496.9409 390.7947 L496.9729 390.904 L497.0185 391.1692 L497.0122 391.3488 L496.9173 391.5368 L496.7381 391.7768 L495.8213 392.7555 L493.697 395.4554 L493.0754 396.0927 L492.5627 396.7413 L492.2081 397.2698 L491.6698 397.9901 L490.9319 399.1504 L490.7466 399.6713 L490.5333 400.5129 L490.4128 401.2373 L490.2812 401.7627 L490.1886 402.2263 L489.8889 402.3648 L489.7177 402.2416 L489.4229 401.4728 L488.7929 400.0414 L488.2176 398.8199 L487.5564 398.093 L486.2307 396.8977 L485.8091 396.2075 L485.4695 395.3402 L485.1465 394.0557 M498.5285 215.9777 L498.6046 215.3216 L498.5851 215.0171 L498.7189 214.7136 L499.3955 214.3318 L499.6872 214.3442 L499.8913 214.4947 L500.2887 215.3597 L500.5979 216.0593 L501.5798 217.3492 L501.9964 218.1706 L501.9887 218.2592 L501.6664 218.5029 L501.4706 218.7316 L501.1559 219.1371 L500.7512 219.1951 L500.3989 219.0995 L499.6798 217.9374 L498.5285 215.9777 M501.7466 199.8959 L501.7613 199.7182 L501.8606 199.4567 L502.0398 199.3255 L502.1309 199.3176 L502.221 199.3864 L502.2932 199.5102 L502.19 199.7261 L501.9641 199.938 L501.8057 199.9598 L501.7466 199.8959" stroke-dasharray="" fill="none" fill-opacity="1.0" stroke="#ff0000" stroke-opacity="1.0" stroke-width="1.0px" stroke-linecap="butt" stroke-linejoin="miter" stroke-dashoffset="0.0px"/>
</g>
</svg>