<?xml version="1.0" standalone="no"?>
<!DOCTYPE svg PUBLIC "-//W3C//DTD SVG 1.1//EN" "http://www.w3.org/Graphics/SVG/1.1/DTD/svg11.dtd">
<svg width="512px" height="512px" version="1.1" xmlns="http://www.w3.org/2000/svg" xmlns:inkscape="http://www.inkscape.org/namespaces/inkscape">
<g id="layer" inkscape:groupmode="layer" inkscape:label="layer">
<path d="M0.0 326.3943 L5.6309 326.8764 L5.938 323.3407 L31.84 325.8318 L31.4817 329.4479 L37.8804 330.0908 L38.2388 326.4746 L65.0622 329.1265 L64.7039 332.6622 L69.4133 333.1444 L69.7716 329.5282 L97.6701 332.2604 L97.4141 335.7962 L101.8676 336.2783 L102.226 332.6622 L129.8172 335.3944 L129.4589 339.0105 L134.066 339.4927 L134.4243 335.8766 L162.3739 338.5284 L162.0156 342.1445 L166.2132 342.5463 L166.5203 338.9302 L182.4915 340.457 L194.8282 341.6623 L194.4699 345.2785 L197.6949 345.5999 L198.0532 341.9838 L204.8102 342.6266 L219.0922 344.0731 L227.6921 344.957 L227.3337 348.5732 L230.4051 348.8142 L230.4051 348.5732 L230.7634 345.1981 L259.9416 348.0107 L259.8904 348.4124 L259.7369 350.1803 L259.5833 351.6268 L262.4499 351.9482 L262.8082 348.3321 L263.3201 348.4124 L262.757 354.1982 L197.2342 364.0823 L190.7842 406.19 L247.8096 411.7347 L247.6049 414.4669 L257.5869 415.5919 L262.3475 376.2164 L326.2835 382.8861 L325.9252 385.6987 L331.6585 393.3327 L369.2829 397.0292 L396.1064 376.7789 L397.7445 361.2698 L421.4965 363.7609 L421.1382 367.377 L424.3119 367.7788 L424.6703 364.1627 L453.0806 366.8948 L452.7223 370.511 L457.5341 370.9127 L457.8412 367.2966 L485.2789 370.0288 L484.9206 373.6449 L489.7836 374.1271 L490.5003 366.0913 L487.9408 365.8502 L490.7562 337.5641 L493.2645 337.8855 L493.5717 334.9123 L491.0634 334.6712 L494.9538 294.2509 L497.4621 294.492 L497.6669 291.6795 L495.2098 291.4384 L498.0764 262.0272 L500.5335 262.2683 L501.199 255.5182 L498.6907 255.3575 L501.5573 225.8659 L504.0656 226.107 L504.3727 222.973 L501.9156 222.8123 L505.806 182.2312 L508.2631 182.5526 L508.5191 179.9008 L506.0108 179.5794 L508.8262 151.0521 L511.2833 151.3735 L512.0 144.3019 L507.0346 143.8198 L506.5739 147.9181 L479.1874 145.2662 L479.5457 141.0876 L474.7339 140.6054 L474.3243 144.8644 L446.0164 142.0519 L446.3747 137.8732 L443.3033 137.5518 L442.945 141.7304 L413.7157 138.8375 L414.1252 134.7392 L411.0538 134.4178 L410.5931 138.5965 L381.5685 135.7839 L381.9268 131.5249 L378.9066 131.2838 L378.5483 135.4625 L349.6261 132.6499 L350.0356 128.4713 L345.9916 128.0695 L345.5821 132.2481 L317.7349 129.5159 L318.1444 125.3373 L313.4349 124.9355 L313.0254 129.0338 L285.0246 126.3819 L285.4341 122.1229 L280.9294 121.7211 L280.6223 125.8998 L252.6215 123.1676 L252.9798 118.9889 L248.6799 118.5871 L248.2703 122.6854 L220.4231 120.0336 L220.8326 115.8549 L216.4815 115.3728 L216.1232 119.6318 L188.1224 116.8192 L188.4807 112.7209 L184.1808 112.2388 L183.7201 116.4174 L155.8216 113.7656 L156.2312 109.587 L152.136 109.1852 L151.7776 113.2835 L123.6745 110.5513 L124.0328 106.453 L119.784 106.0512 L119.3745 110.1495 L91.3737 107.4976 L91.7832 103.2386 L87.5345 102.8368 L87.1762 107.0155 L59.892 104.3636 L60.3015 100.185 L53.9028 99.5421 L53.5957 103.7208 L27.6937 101.2296 L28.1544 97.051 L22.3187 96.4081 L21.6533 103.4797 L24.1616 103.8011 L21.3973 132.3285 L18.9402 132.0874 L18.6843 134.7392 L21.1414 134.9803 L17.2509 175.4811 L14.7427 175.24 L14.4355 178.2936 L16.9438 178.6151 L14.0772 208.0263 L11.5689 207.7852 L10.9546 214.5354 L13.4629 214.7764 L10.5451 244.1876 L8.088 243.8662 L7.832 246.6788 L10.3403 247.0002 L6.3987 287.3401 L3.9416 287.099 L3.6345 289.9919 L6.1428 290.3134 L3.3785 318.5192 L0.819 318.3584 L0.0 326.3943 M295.6721 355.1625 L296.0304 351.6268 L322.9562 354.1982 L322.5979 357.8144 L295.6721 355.1625" stroke-dasharray="" fill="none" fill-opacity="1.0" stroke="#ff0000" stroke-opacity="1.0" stroke-width="1.0px" stroke-linecap="butt" stroke-linejoin="miter" stroke-dashoffset="0.0px"/>
</g>
</svg>