<?xml version="1.0" standalone="no"?>
<!DOCTYPE svg PUBLIC "-//W3C//DTD SVG 1.1//EN" "http://www.w3.org/Graphics/SVG/1.1/DTD/svg11.dtd">
<svg width="512px" height="512px" version="1.1" xmlns="http://www.w3.org/2000/svg" xmlns:inkscape="http://www.inkscape.org/namespaces/inkscape">
<g id="layer" inkscape:groupmode="layer" inkscape:label="layer">
<path d="M201.1761 8.036 L201.4644 9.8827 L202.3293 9.7829 L204.988 27.8014 L204.1231 27.9012 L204.4114 29.7979 L205.3083 29.6482 L207.9991 47.7665 L207.1022 47.9162 L207.3584 49.8129 L208.2553 49.6133 L210.9461 67.7815 L210.0492 67.9312 L210.3375 69.778 L211.2344 69.6782 L213.9251 87.7465 L213.0282 87.8963 L213.2845 89.743 L214.1814 89.6432 L216.8721 107.7615 L211.2664 108.4603 L211.5867 110.307 L212.4516 110.2072 L215.1103 128.3255 L214.2454 128.4752 L214.5337 130.3719 L215.3986 130.1722 L218.1214 148.3404 L217.2245 148.4402 L217.4807 150.3369 L218.3776 150.1871 L221.0684 168.4052 L220.1715 168.505 L220.4918 170.4017 L221.3567 170.2519 L224.0474 188.3202 L223.1505 188.47 L223.4068 190.3167 L224.3037 190.2169 L226.9944 208.3351 L221.4528 209.0838 L221.709 210.9306 L222.606 210.8307 L225.2647 228.899 L224.3998 228.9988 L224.656 230.8955 L225.5209 230.7458 L228.2117 248.814 L227.3468 248.9637 L227.6031 250.8604 L228.4679 250.7107 L231.1587 268.7789 L230.2618 268.9286 L230.518 270.7754 L231.4149 270.6756 L234.1057 288.7438 L233.2088 288.8436 L233.465 290.7403 L234.3619 290.5905 L237.0527 308.7087 L231.3509 309.4573 L231.6712 311.3041 L232.5361 311.2043 L235.2589 329.3224 L234.3619 329.4721 L234.6182 331.3189 L235.5151 331.219 L238.2059 349.387 L237.3089 349.4869 L237.5972 351.3336 L238.4942 351.2338 L241.1849 369.3019 L240.288 369.4018 L240.5442 371.2984 L241.4412 371.1487 L244.1319 389.2667 L243.235 389.4165 L243.5553 391.3131 L244.4202 391.1135 L247.143 409.3314 L241.5693 410.0301 L241.8256 411.9268 L242.7225 411.777 L245.4132 429.945 L244.5483 430.0947 L244.8046 431.9914 L245.6695 431.7917 L248.3282 449.9596 L247.4313 450.1094 L247.7516 451.9561 L248.6165 451.8563 L251.2752 469.9743 L250.3783 470.0741 L250.6986 471.9208 L251.5635 471.821 L254.2222 489.939 L253.3253 490.0388 L253.5815 491.9355 L254.4784 491.7857 L257.1692 510.0035 L256.2723 510.1034 L256.5285 512.0 L310.8239 503.9143 L310.5676 502.0676 L309.6707 502.1674 L306.98 484.0494 L307.8769 483.9496 L307.6206 482.1029 L306.7237 482.2027 L304.097 464.0847 L304.9619 463.9849 L304.6736 462.0882 L303.7767 462.238 L301.15 444.12 L302.0149 443.9203 L301.7586 442.0736 L300.8938 442.2233 L298.2351 424.0554 L299.0999 423.9056 L298.8116 422.0589 L297.9147 422.1587 L295.288 404.0407 L300.8297 403.3419 L300.5414 401.4952 L299.6445 401.595 L296.9537 383.5768 L297.8507 383.477 L297.5624 381.5803 L296.6655 381.73 L293.9747 363.5621 L294.8716 363.4622 L294.5513 361.5656 L293.6864 361.7153 L290.9636 343.5473 L291.8606 343.4475 L291.5723 341.5508 L290.6753 341.7006 L288.0166 323.6823 L288.8815 323.5825 L288.6253 321.7357 L287.7604 321.8356 L284.9735 303.4679 L290.5792 302.7691 L290.323 300.8725 L289.4261 301.0222 L286.7674 283.1037 L287.6643 283.0039 L287.344 281.1072 L286.4791 281.257 L283.8204 263.1887 L284.7173 262.9891 L284.3969 261.1423 L283.5321 261.2921 L280.8413 243.1739 L281.7062 243.0242 L281.482 241.1774 L280.5851 241.2772 L277.8943 223.1591 L278.7912 223.0593 L278.535 221.2125 L277.6381 221.3123 L274.9473 203.1941 L280.489 202.4455 L280.2327 200.5987 L279.3358 200.6985 L276.6771 182.6302 L277.542 182.5304 L277.2537 180.6337 L276.3568 180.7835 L273.7301 162.7651 L274.627 162.6153 L274.3067 160.7686 L273.4418 160.8684 L270.751 142.8001 L271.6159 142.7003 L271.3917 140.8036 L270.4948 140.9533 L267.804 122.8351 L268.6689 122.6853 L268.4127 120.7887 L267.5478 120.9883 L264.857 102.8701 L270.3987 102.0215 L270.1424 100.1249 L269.2455 100.2746 L266.5868 82.1563 L267.4837 81.9567 L267.1634 80.1099 L266.2985 80.2596 L263.6398 62.0914 L264.5367 61.9417 L264.2804 60.0949 L263.3835 60.1948 L260.7248 42.0265 L261.6217 41.9267 L261.3655 40.0799 L260.4686 40.1798 L257.8419 22.1114 L258.7388 21.9616 L258.4185 20.1148 L257.5536 20.2646 L254.8628 1.9965 L255.7598 1.8468 L255.5035 0.0 L201.1761 8.036" stroke-dasharray="" fill="none" fill-opacity="1.0" stroke="#ff0000" stroke-opacity="1.0" stroke-width="1.0px" stroke-linecap="butt" stroke-linejoin="miter" stroke-dashoffset="0.0px"/>
</g>
</svg>