<?xml version="1.0" standalone="no"?>
<!DOCTYPE svg PUBLIC "-//W3C//DTD SVG 1.1//EN" "http://www.w3.org/Graphics/SVG/1.1/DTD/svg11.dtd">
<svg width="512px" height="512px" version="1.1" xmlns="http://www.w3.org/2000/svg" xmlns:inkscape="http://www.inkscape.org/namespaces/inkscape">
<g id="layer" inkscape:groupmode="layer" inkscape:label="layer">
<path d="M0.0 162.4021 L10.3001 208.5974 L14.8863 207.6769 L16.1269 211.1286 L17.5554 210.956 L19.059 217.6293 L17.217 217.8594 L19.7357 228.6748 L21.3897 228.5022 L22.7806 235.6932 L21.1642 235.9808 L23.57 246.7386 L25.1113 246.566 L26.7653 253.2393 L24.9233 253.527 L27.0285 264.2847 L28.9457 263.9971 L30.2614 269.8074 L28.4946 270.3827 L29.096 275.1 L27.2164 275.3877 L27.7803 278.0915 L25.9383 278.4942 L27.8931 286.7783 L29.6223 286.2605 L31.0508 292.7037 L29.096 293.1064 L31.3891 304.2668 L33.4191 303.9792 L34.7348 310.7675 L33.0056 311.3428 L35.1483 321.9855 L37.0279 321.5828 L38.494 327.7958 L36.6144 328.1985 L38.4188 336.2524 L40.148 335.9073 L41.1254 339.474 L44.6214 338.496 L45.5236 342.6956 L47.0649 342.3504 L48.4934 348.9086 L47.0273 349.3113 L49.358 359.8389 L50.8617 359.5513 L52.1022 365.074 L50.5985 365.4767 L53.23 377.5576 L54.7712 377.2124 L56.1245 383.2528 L54.6209 383.6555 L57.0643 394.7009 L58.568 394.4133 L59.9965 400.9715 L58.4928 401.2591 L59.1695 404.3081 L54.9592 405.2285 L66.0112 452.1713 L70.8229 451.1933 L86.1228 448.0868 L85.7468 447.0513 L91.8743 445.3255 L92.2126 446.5911 L112.0235 441.8738 L111.2717 437.0415 L114.2038 436.4086 L113.8279 434.8554 L121.3463 433.1871 L121.7598 434.6253 L130.3307 432.6693 L129.9548 431.1736 L137.4731 429.4478 L137.849 430.886 L148.901 428.3547 L148.5627 426.859 L155.1037 425.3633 L155.442 426.859 L165.479 424.5579 L165.1407 423.0046 L171.6441 421.5089 L172.02 423.0622 L183.072 420.4734 L182.7336 418.9777 L189.2746 417.4244 L189.5753 418.9777 L199.6499 416.6191 L199.3116 415.1233 L205.815 413.6276 L206.1909 415.1233 L216.7918 412.6496 L216.4159 411.1539 L222.4305 409.7732 L222.8065 411.269 L227.8062 410.1184 L229.3474 416.8492 L243.1812 413.6276 L243.8579 415.6411 L262.0899 411.5566 L262.4282 413.0523 L266.4881 412.1319 L266.1122 410.6361 L279.1565 407.6447 L279.5325 409.1979 L283.5548 408.2775 L283.2164 406.7818 L289.6822 405.2861 L297.3134 403.5602 L297.6893 405.1135 L301.1853 404.3081 L300.847 402.7548 L313.9289 399.8209 L314.2297 401.3166 L318.2896 400.3962 L317.9137 398.9004 L336.5592 394.7009 L336.1457 392.3998 L349.3404 389.2358 L347.9119 382.1023 L351.22 381.3544 L350.8816 379.8587 L356.8963 378.478 L357.2347 380.0313 L368.3242 377.4425 L367.9483 375.9468 L374.0382 374.5661 L374.3389 376.0618 L385.8796 373.4731 L385.5789 371.9198 L391.1048 370.6542 L391.4808 372.2075 L402.0065 369.7913 L401.6681 368.238 L408.7354 366.6848 L409.0361 368.1805 L419.1107 365.8794 L418.81 364.3837 L424.8247 363.003 L425.1254 364.4987 L436.7413 361.91 L436.3653 360.4142 L442.38 359.0336 L442.7559 360.5293 L453.8079 357.9981 L453.4696 356.5023 L460.5369 354.834 L460.9128 356.3873 L464.8975 355.4668 L465.9877 360.1841 L485.3474 355.927 L485.0091 354.3738 L492.0388 352.763 L492.3771 354.3163 L512.0 349.714 L507.4514 329.9819 L506.2109 330.2695 L504.8576 323.7689 L505.9477 323.4812 L501.4367 303.7491 L497.1888 304.727 L496.3242 301.0452 L494.2943 301.563 L492.941 295.5225 L494.8957 295.0048 L492.114 282.9814 L490.084 283.4416 L488.6555 277.4012 L490.6855 276.9409 L487.9037 265.3778 L485.9489 265.838 L484.7084 260.7755 L486.7383 260.2578 L483.8814 248.1768 L481.9266 248.6946 L480.3853 242.1364 L482.3401 241.6761 L481.2123 236.6137 L467.4162 172.9873 L466.326 168.0399 L464.3336 168.4426 L463.1307 162.9198 L465.0855 162.4596 L462.5292 150.8964 L460.4993 151.2991 L459.0708 144.7409 L461.1007 144.2806 L458.6573 133.1776 L456.6273 133.6379 L455.3116 127.5398 L457.3416 127.0796 L454.7853 115.5164 L452.7554 115.9191 L451.5524 110.3963 L453.5824 109.9361 L452.6802 105.9091 L456.5897 104.7585 L446.252 59.8287 L426.0652 64.3735 L426.5915 65.6391 L420.2009 66.7322 L420.0129 65.6966 L400.2021 70.3565 L401.3674 75.3614 L398.3225 76.0518 L398.6984 77.5475 L391.1424 79.2734 L390.8041 77.7201 L380.2408 80.1363 L380.5791 81.6321 L374.0382 83.0703 L373.6999 81.5745 L364.1515 83.7606 L364.4523 85.2564 L356.9339 86.9822 L356.5956 85.429 L328.8905 91.7571 L329.2664 93.1953 L321.7104 94.9212 L321.3345 93.4254 L310.8088 95.7841 L311.1095 97.2798 L305.0949 98.6605 L304.7189 97.1648 L294.1932 99.581 L294.5316 101.0767 L288.4793 102.3999 L288.1786 100.9617 L283.9683 101.8821 L282.5774 95.2088 L268.4805 98.3154 L267.9918 96.3019 L259.4584 98.2578 L259.9095 100.2713 L252.8799 101.8821 L252.3912 99.8111 L242.3166 102.0547 L242.8053 104.0682 L235.2493 105.7941 L234.7606 103.7806 L225.7386 105.7941 L226.1897 107.8076 L217.6188 109.7635 L217.2053 107.6925 L208.6344 109.6485 L209.0479 111.662 L199.9883 113.6755 L199.5747 111.662 L189.4626 113.9056 L189.9137 115.9191 L183.3727 117.4148 L182.9592 115.4013 L175.8919 116.8971 L176.343 118.9681 L162.3965 122.0746 L163.637 129.3232 L160.0658 130.1286 L160.3665 131.6819 L155.3668 132.7749 L154.9909 131.2792 L142.9239 134.0406 L143.2623 135.4788 L137.7363 136.8019 L137.3604 135.2487 L126.8347 137.6649 L127.1354 139.1606 L120.1057 140.7714 L119.7674 139.2181 L91.5736 145.6038 L91.9495 147.0995 L86.3483 148.3076 L86.0476 146.8694 L73.4919 149.6883 L73.7927 151.184 L69.2816 152.2196 L68.9433 150.6663 L57.3651 153.3126 L57.7034 154.8083 L51.6887 156.189 L51.3128 154.6933 L46.8018 155.6713 L45.8996 151.3566 L26.427 156.074 L26.9533 157.3396 L19.886 158.8353 L19.6229 157.4546 L0.0 162.4021 M102.7007 323.8839 L178.8241 306.2228 L190.1392 358.0556 L114.3166 375.1414 L102.7007 323.8839 M104.7307 204.2252 L154.5022 192.8346 L166.4188 244.2074 L138.7512 251.1108 L137.5859 248.0618 L118.1885 252.4915 L118.8276 255.3679 L115.3316 256.7485 L104.7307 204.2252 M191.9812 183.7451 L209.5366 179.9483 L212.3935 193.64 L206.642 195.2508 L208.0705 202.4994 L196.4922 205.2032 L191.9812 183.7451 M225.3251 327.9684 L234.5351 325.8974 L236.3019 333.7787 L243.8579 332.168 L246.6021 344.7666 L229.7609 348.4484 L225.3251 327.9684 M267.2023 167.1194 L283.5924 163.265 L287.8402 184.0328 L277.2769 186.564 L276.074 178.9703 L269.721 180.3509 L267.2023 167.1194 M300.1327 319.2817 L305.6963 317.6133 L304.1927 309.9621 L315.3198 307.3733 L319.6429 328.256 L302.9145 331.9954 L300.1327 319.2817 M318.0264 155.6137 L398.0217 137.1471 L409.7504 188.9802 L329.8302 207.1016 L318.0264 155.6137 M370.2414 261.9836 L390.0147 257.5539 L389.4884 255.3679 L402.3448 252.4339 L402.8711 254.62 L423.8849 249.8452 L435.388 301.1028 L382.6091 314.0466 L370.2414 261.9836" stroke-dasharray="" fill="none" fill-opacity="1.0" stroke="#ff0000" stroke-opacity="1.0" stroke-width="1.0px" stroke-linecap="butt" stroke-linejoin="miter" stroke-dashoffset="0.0px"/>
</g>
</svg>