<?xml version="1.0" standalone="no"?>
<!DOCTYPE svg PUBLIC "-//W3C//DTD SVG 1.1//EN" "http://www.w3.org/Graphics/SVG/1.1/DTD/svg11.dtd">
<svg width="512px" height="512px" version="1.1" xmlns="http://www.w3.org/2000/svg" xmlns:inkscape="http://www.inkscape.org/namespaces/inkscape">
<g id="layer" inkscape:groupmode="layer" inkscape:label="layer">
<path d="M0.0 387.5214 L21.8525 414.379 L70.6906 474.4695 L56.9653 485.8356 L67.7893 484.7394 L74.373 479.114 L77.0697 482.2585 L108.2583 456.4395 L105.6174 453.2374 L119.2497 441.9289 L121.8906 445.1022 L134.1652 434.9477 L153.0979 419.2543 L150.4756 416.0522 L164.1078 404.7437 L166.7487 407.9459 L197.9374 382.0979 L195.2965 378.8958 L208.9473 367.5873 L211.5882 370.7894 L228.2891 356.9423 L242.8141 344.8837 L240.1918 341.6815 L253.8426 330.373 L256.4835 333.5752 L288.1 308.0733 L285.4033 304.9288 L298.8681 293.5625 L301.5462 296.7359 L332.4931 270.5992 L329.8522 267.397 L343.6519 255.973 L346.2556 259.1752 L351.556 254.7903 L377.4814 233.2981 L374.8405 230.096 L388.4914 218.7873 L391.1323 221.9895 L422.3396 196.1124 L419.6987 192.9102 L433.3309 181.6304 L435.9718 184.8326 L445.9403 176.5819 L467.1605 158.9842 L464.5568 155.782 L478.2076 144.4445 L480.8485 147.6467 L512.0 121.8271 L479.9186 82.6216 L434.67 27.2606 L428.4211 32.4246 L423.2323 26.1644 L418.2666 30.2609 L423.4926 36.55 L414.5284 43.993 L409.321 37.7039 L404.3368 41.8293 L409.5442 48.1472 L403.5743 53.1092 L407.8332 58.302 L474.5066 139.9729 L460.8186 151.2239 L389.942 64.3892 L383.6559 69.5819 L378.4485 63.264 L373.4643 67.3894 L378.6717 73.7073 L369.6889 81.1215 L364.5001 74.8324 L359.5159 78.9578 L364.7047 85.2757 L358.7348 90.2377 L424.7945 171.1583 L429.6299 177.1012 L415.9419 188.3233 L395.912 163.7731 L345.0839 101.4887 L338.7978 106.6815 L333.5904 100.3925 L328.6062 104.5178 L333.8136 110.8357 L324.8308 118.2499 L319.642 111.9608 L314.6578 116.0862 L319.8466 122.3752 L313.8766 127.3372 L327.8251 144.4733 L384.809 214.2581 L371.121 225.509 L300.2444 138.6747 L293.9769 143.8675 L288.7695 137.5785 L283.7853 141.7039 L288.9927 147.9929 L280.0099 155.4358 L274.8211 149.118 L269.8368 153.2722 L275.0256 159.5612 L269.0185 164.5232 L339.8207 251.5881 L326.1141 262.7813 L312.8352 246.4819 L255.4049 175.803 L249.1188 181.0246 L243.9114 174.7356 L238.9457 178.8609 L244.1345 185.1499 L235.1518 192.5929 L229.9629 186.275 L224.9787 190.4292 L230.1675 196.7182 L224.1976 201.6802 L251.1088 234.7983 L294.8696 288.6583 L281.3117 300.0534 L224.1418 229.7209 L196.7471 224.4993 L190.3308 229.7786 L185.1606 223.4608 L180.1764 227.5861 L185.3466 233.8751 L179.3395 238.8659 L250.1603 325.8727 L236.435 337.0947 L165.7258 250.1457 L159.4397 255.3384 L154.2509 249.0494 L149.2667 253.1747 L154.4555 259.4926 L145.4727 266.9066 L140.2839 260.6176 L135.2997 264.743 L140.4885 271.0319 L134.5186 275.9939 L195.8172 351.4323 L205.2835 363.0869 L191.5583 374.2801 L169.3524 346.9608 L120.8677 287.3313 L114.5816 292.524 L109.3928 286.235 L104.4086 290.3604 L109.5974 296.6205 L100.6332 304.0922 L95.4258 297.7744 L90.4416 301.9286 L95.649 308.2175 L89.679 313.1794 L108.8163 336.6908 L160.4626 400.2434 L146.7374 411.4365 L82.3329 332.2193 L60.3688 328.4402 L64.7579 333.806 L55.7937 341.2488 L50.6049 334.931 L45.6206 339.0563 L50.8094 345.3741 L44.8209 350.336 L110.0065 430.5051 L115.5115 437.3132 L101.8979 448.5928 L83.1884 425.6009 L31.1887 361.6445 L24.9026 366.8372 L19.7138 360.5483 L14.7295 364.6736 L19.9183 370.9625 L10.9542 378.4053 L5.7653 372.1164 L0.7811 376.2417 L5.9699 382.5595 L0.0 387.5214" stroke-dasharray="" fill="none" fill-opacity="1.0" stroke="#ff0000" stroke-opacity="1.0" stroke-width="1.0px" stroke-linecap="butt" stroke-linejoin="miter" stroke-dashoffset="0.0px"/>
</g>
</svg>