<?xml version="1.0" standalone="no"?>
<!DOCTYPE svg PUBLIC "-//W3C//DTD SVG 1.1//EN" "http://www.w3.org/Graphics/SVG/1.1/DTD/svg11.dtd">
<svg width="512px" height="512px" version="1.1" xmlns="http://www.w3.org/2000/svg" xmlns:inkscape="http://www.inkscape.org/namespaces/inkscape">
<g id="layer" inkscape:groupmode="layer" inkscape:label="layer">
<path d="M0.0 352.1492 L28.3647 464.7623 L119.6223 441.6182 L114.087 419.68 L133.8046 414.6709 L139.3399 436.7019 L282.3899 400.5711 L277.2735 379.8388 L343.2183 363.0488 L339.957 346.9082 L366.1374 340.2293 L366.5863 341.8062 L368.6508 341.3424 L362.7265 317.8272 L381.1576 313.0499 L382.4741 318.1055 L384.4488 317.5953 L383.1024 312.5861 L402.1318 307.6697 L403.3885 312.7716 L405.3932 312.2614 L404.0767 307.2059 L423.1061 302.4286 L424.3927 307.5306 L426.3974 307.0204 L424.9911 302.0112 L443.9009 297.1875 L445.2473 302.0576 L447.3118 301.6865 L446.0252 296.6774 L464.935 291.8537 L466.2515 296.9093 L468.2861 296.3063 L466.9995 291.3899 L485.9392 286.5662 L487.1959 291.529 L489.2006 291.0652 L488.9612 290.0448 L508.4395 285.2676 L508.6489 286.1952 L510.7134 285.6386 L506.1655 267.4572 L512.0 265.8802 L506.1057 242.0866 L500.2412 243.5244 L496.0224 226.7807 L430.4666 243.3389 L432.3216 250.8063 L413.8607 255.4444 L411.9158 247.977 L320.8677 270.9821 L317.2473 256.975 L343.6372 250.2497 L344.0561 251.8267 L346.0309 251.3628 L340.2263 228.033 L358.5077 223.2557 L359.8242 228.3113 L361.8588 227.8475 L360.6321 222.7919 L379.3623 217.9219 L380.6788 222.8847 L382.9528 222.5136 L381.6363 217.5044 L400.4563 212.588 L401.7728 217.69 L403.8373 217.2262 L402.5507 212.1706 L421.4904 207.3469 L422.8368 212.4025 L424.7518 211.8923 L423.525 206.8831 L442.4049 202.0594 L443.7214 207.115 L445.6363 206.6976 L444.3796 201.5492 L463.439 196.7719 L464.7256 201.8739 L466.6704 201.4565 L466.431 200.3433 L485.9991 195.3805 L486.2085 196.4937 L488.3029 196.0298 L482.7676 174.3233 L488.8415 172.9319 L483.6353 152.1066 L477.7111 153.9155 L473.4624 137.0326 L407.8467 153.6835 L409.7017 161.1974 L391.54 165.7891 L389.6849 158.1826 L298.2777 181.2805 L294.777 167.1342 L321.0771 160.4553 L321.5259 162.0322 L323.4708 161.5684 L317.6662 138.1921 L335.9776 133.6467 L337.2342 138.7487 L339.2389 138.2385 L338.0421 133.1365 L356.9518 128.3128 L358.2384 133.4148 L360.3628 132.951 L359.0463 127.849 L377.9261 122.979 L379.2426 128.1273 L381.2473 127.7099 L380.0505 122.5615 L399.05 117.6451 L400.2768 122.8862 L402.3114 122.376 L401.0248 117.0421 L419.9046 112.4503 L421.1613 117.6915 L423.1959 117.0885 L421.9691 111.8938 L440.9388 107.1164 L442.1655 112.3576 L444.1103 111.8474 L443.8111 110.7342 L463.4988 105.6786 L463.7382 106.9309 L465.7129 106.3743 L460.058 83.7865 L465.8027 82.4878 L460.9855 62.3581 L454.9715 63.4713 L450.9023 47.2377 L385.4063 63.8423 L387.2314 71.1243 L368.9201 75.8088 L367.0351 68.3878 L254.1748 96.9589 L258.274 113.378 L265.8439 111.5691 L269.0154 124.324 L262.2534 126.0865 L266.9808 144.3609 L273.5633 142.7375 L284.1851 184.9911 L276.705 186.8463 L280.7742 203.3117 L288.3441 201.3173 L291.4259 214.1186 L284.7835 215.7883 L289.3614 234.0162 L296.0037 232.4392 L306.6255 274.6926 L299.2352 276.5479 L303.3941 293.0596 L310.8742 291.1116 L314.1057 303.8664 L307.4035 305.5825 L310.8144 319.9143 L317.4867 318.291 L318.7134 322.4653 L266.0533 335.7303 L253.8457 287.9113 L234.936 292.7349 L218.3899 296.9556 L221.4418 309.2467 L123.9607 334.107 L120.7892 321.5841 L0.0 352.1492 M132.3983 366.5738 L207.7382 347.743 L216.3254 381.6012 L140.9556 400.6638 L132.3983 366.5738" stroke-dasharray="" fill="none" fill-opacity="1.0" stroke="#ff0000" stroke-opacity="1.0" stroke-width="1.0px" stroke-linecap="butt" stroke-linejoin="miter" stroke-dashoffset="0.0px"/>
</g>
</svg>