<?xml version="1.0" standalone="no"?>
<!DOCTYPE svg PUBLIC "-//W3C//DTD SVG 1.1//EN" "http://www.w3.org/Graphics/SVG/1.1/DTD/svg11.dtd">
<svg width="512px" height="512px" version="1.1" xmlns="http://www.w3.org/2000/svg" xmlns:inkscape="http://www.inkscape.org/namespaces/inkscape">
<g id="layer" inkscape:groupmode="layer" inkscape:label="layer">
<path d="M0.0 220.6523 L10.0625 223.105 L11.3432 226.7119 L10.4284 229.1646 L22.595 234.3586 L23.8756 231.1845 L32.2001 234.7915 L30.8279 237.9656 L32.6575 238.8312 L31.9257 240.7068 L35.1274 242.1496 L29.7302 254.9903 L25.7052 253.259 L23.2353 259.0301 L21.5887 258.3087 L14.0875 276.3434 L15.8256 277.209 L13.9046 281.6816 L15.2768 282.5473 L14.4535 284.2786 L16.283 285.0 L15.3682 287.0199 L20.7654 289.3284 L20.1251 291.0597 L38.7865 299.2835 L39.9757 297.5522 L45.4644 300.0049 L46.928 296.5422 L92.3009 313.7112 L89.831 319.3381 L95.4111 321.7908 L94.0389 324.9649 L96.0515 325.8305 L95.2282 326.9848 L100.4424 329.4375 L99.6191 331.3131 L118.372 338.8155 L119.1038 336.9399 L124.4095 339.104 L125.7817 335.7857 L170.5142 353.6761 L169.0506 357.283 L174.1733 359.3029 L173.4415 361.0342 L192.3773 368.9694 L193.2006 367.0938 L198.5063 369.258 L200.5188 364.2083 L234.0911 378.2032 L233.5423 379.646 L237.6587 381.3773 L238.2991 379.7902 L244.2451 382.3872 L242.2326 387.4369 L247.6298 389.6011 L246.898 391.1881 L266.0168 398.9791 L266.6571 397.6806 L271.9628 399.8448 L273.7009 395.5165 L318.6164 413.5511 L316.9698 417.5909 L322.184 419.755 L321.4522 421.6306 L340.6625 429.4216 L341.5773 427.4017 L343.4068 428.2674 L345.3279 422.6406 L354.3841 421.4863 L361.8853 414.7053 L364.0808 415.571 L365.6359 411.8198 L399.8485 426.1032 L398.3848 429.8544 L430.8594 443.2722 L440.4645 424.2276 L455.4669 431.73 L489.7709 416.4366 L512.0 358.87 L500.1079 322.2236 L486.2948 314.8655 L493.4301 294.9552 L487.8499 292.5025 L489.3136 288.3184 L487.8499 287.8856 L496.7232 264.0798 L497.9125 264.5126 L503.5841 248.7864 L429.0298 219.9309 L429.4872 218.7767 L413.8446 212.4284 L404.8798 236.6671 L399.3911 234.5029 L398.3848 236.9556 L392.8047 234.6472 L391.2496 238.8312 L346.6085 220.2194 L348.1637 216.4682 L342.9494 214.4483 L343.6813 212.5727 L324.5624 204.926 L324.0136 206.3688 L318.6164 204.3489 L316.5124 209.6872 L270.2248 191.6525 L272.3287 186.3142 L266.9316 184.15 L267.5719 182.4187 L260.6196 179.5331 L262.5406 174.6277 L260.4367 173.9063 L268.6696 153.7074 L270.4992 154.4288 L276.8111 138.414 L218.9973 115.7624 L219.4547 114.6082 L214.6064 112.5883 L217.2592 105.9515 L215.5212 105.2301 L216.3445 103.3545 L214.4234 102.6331 L215.1553 100.7575 L196.8597 93.255 L196.1279 95.2749 L194.2984 94.4093 L192.8347 98.0162 L156.0607 82.7228 L157.5244 79.1158 L155.5119 78.3944 L156.3352 76.5188 L137.4908 68.7278 L136.3931 70.4591 L134.5635 69.7378 L133.8317 71.6134 L132.1851 70.892 L124.8669 89.6481 L126.5135 90.3695 L125.8731 92.2451 L129.9896 94.1207 L116.3595 126.4389 L111.2367 124.1305 L111.8771 122.5434 L93.673 114.8967 L92.9412 116.6281 L87.3611 114.0311 L86.5378 116.1952 L84.8912 115.4738 L84.0679 117.2052 L82.4213 116.4838 L80.2258 121.8221 L78.4878 121.1007 L70.7122 139.7125 L72.4502 140.5782 L70.0718 146.205 L74.0054 147.792 L68.6997 160.1999 L66.2298 159.3343 L65.4065 161.0656 L63.5769 160.3442 L62.1133 163.6626 L53.4229 159.7671 L54.7951 156.593 L42.4456 151.399 L41.6223 153.5632 L37.1399 154.7174 L27.8092 148.3692 L2.0125 207.2344 L0.0 220.6523" stroke-dasharray="" fill="none" fill-opacity="1.0" stroke="#ff0000" stroke-opacity="1.0" stroke-width="1.0px" stroke-linecap="butt" stroke-linejoin="miter" stroke-dashoffset="0.0px"/>
</g>
</svg>