<?xml version="1.0" standalone="no"?>
<!DOCTYPE svg PUBLIC "-//W3C//DTD SVG 1.1//EN" "http://www.w3.org/Graphics/SVG/1.1/DTD/svg11.dtd">
<svg width="512px" height="512px" version="1.1" xmlns="http://www.w3.org/2000/svg" xmlns:inkscape="http://www.inkscape.org/namespaces/inkscape">
<g id="layer" inkscape:groupmode="layer" inkscape:label="layer">
<path d="M0.0 281.4797 L2.9802 281.9396 L4.3965 285.4349 L3.4228 287.5965 L4.2195 289.3902 L5.5473 288.6543 L12.3043 306.9588 L11.4486 309.2583 L13.396 310.2241 L14.0157 311.7419 L14.8419 314.0874 L13.9272 316.203 L15.9926 317.2148 L32.8409 363.2059 L31.9557 365.3214 L33.9622 366.3332 L34.5228 367.8969 L35.2015 369.9205 L34.3458 371.9901 L36.4408 373.3699 L45.6763 397.7451 L46.0894 399.0328 L44.7911 402.4361 L49.1286 403.8619 L49.8368 400.4125 L56.7118 398.159 L60.1936 405.9774 L58.5708 408.323 L62.7312 410.2546 L63.2918 408.047 L65.5048 407.3112 L67.8064 406.5293 L69.9013 407.3572 L72.3209 403.9538 L69.5178 402.2522 L67.0392 394.5257 L85.5694 387.811 L88.9331 394.8476 L87.2218 397.7451 L92.0314 400.0446 L92.9461 396.7793 L96.1328 396.0894 L96.9 399.3088 L94.6574 404.1838 L92.3854 404.7357 L94.3919 408.5989 L97.077 407.4951 L100.3227 409.0128 L101.0604 411.5883 L105.6339 410.1626 L103.893 407.1732 L107.4929 401.2404 L117.6432 397.6071 L127.4689 394.1118 L128.3836 395.1696 L126.1411 397.5151 L129.6229 399.6307 L131.4228 396.2274 L135.7603 395.0316 L138.829 396.9172 L141.0124 393.008 L138.0913 392.1342 L136.793 390.6165 L154.9101 384.5457 L155.3527 385.1895 L154.32 386.5233 L157.8018 389.0988 L159.4246 385.7414 L163.1425 384.8216 L167.3029 386.6613 L168.3947 382.66 L164.7948 381.4643 L164.7063 380.1305 L182.9414 373.6918 L183.4726 374.3357 L182.7349 377.877 L187.633 378.6128 L192.1475 389.6507 L189.6985 388.9608 L188.1641 392.962 L190.2001 393.238 L193.0622 399.3088 L190.9378 401.5623 L195.4228 403.4939 L196.9571 399.8147 L213.0973 394.3417 L219.4707 396.6873 L222.5689 405.3796 L220.1789 408.7829 L225.4016 410.6685 L227.4965 406.8973 L230.6243 406.2994 L233.4569 406.2994 L235.4043 402.988 L233.2208 402.7121 L228.7358 388.2249 L264.675 374.8876 L270.0452 389.7886 L268.7469 392.1342 L271.7861 393.4219 L273.9696 389.3747 L278.7201 388.4089 L280.5496 389.2367 L282.5855 385.4195 L292.9129 381.3723 L295.9521 383.2119 L297.1913 379.3947 L307.7842 375.9454 L311.1185 377.5091 L313.3315 373.2779 L323.0097 369.6446 L327.3472 372.0821 L328.734 369.3227 L333.1895 367.805 L334.9009 368.9087 L336.4647 365.5054 L333.0715 363.3438 L328.4684 350.1904 L331.5371 351.7081 L333.8976 347.247 L330.9765 345.7753 L331.5666 344.3035 L336.9368 342.9698 L337.7335 346.0512 L342.1005 344.1656 L341.2153 341.0382 L351.9262 337.5888 L354.9949 339.2905 L357.7391 335.2893 L354.4638 334.4155 L348.887 319.3304 L368.509 312.6617 L370.545 318.6405 L368.745 321.17 L372.8465 323.2396 L374.3808 319.9743 L378.3642 319.3764 L380.2231 320.2042 L382.1411 316.8009 L379.8396 315.3292 L375.0595 299.4162 L388.5145 294.9091 L392.0848 304.0153 L401.2909 305.947 L406.1005 298.6804 L404.0645 290.402 L418.0802 286.1248 L421.2669 287.1366 L421.4735 288.0104 L423.8045 286.8606 L426.7257 289.2982 L426.9322 285.6189 L430.5025 284.7451 L431.7418 284.7451 L432.8041 278.9962 L443.6035 275.4088 L448.0295 279.1341 L450.9212 278.2143 L454.521 279.686 L457.5897 271.3156 L455.9078 270.5798 L453.9308 264.003 L463.668 265.0608 L465.645 271.7755 L472.461 270.2118 L470.7497 264.187 L479.0705 257.5183 L484.4408 260.8756 L488.3061 254.4368 L483.172 251.0795 L484.7653 240.7774 L490.3126 244.1348 L490.2536 245.6065 L498.5745 243.9968 L498.2794 235.9944 L495.8303 236.3623 L489.8995 231.9471 L499.3416 227.21 L503.207 230.8433 L508.0756 224.9564 L503.0005 221.6451 L506.2167 211.7109 L512.0 210.7911 L511.5869 203.7544 L504.4168 204.6743 L498.722 195.338 L500.2858 193.3604 L506.8953 192.8085 L507.751 193.9583 L511.6754 189.0832 L507.456 184.622 L506.5118 185.2659 L501.2301 185.8178 L499.4597 184.2081 L503.7676 173.7681 L509.5509 174.4579 L509.8165 168.755 L503.5611 168.1111 L500.1383 156.6133 L504.2692 153.9918 L500.4629 149.6226 L495.7418 153.1179 L485.4735 149.2086 L485.7686 147.277 L491.8174 143.3677 L493.6763 143.5517 L493.9124 136.469 L486.2997 135.7331 L486.2702 137.1589 L481.3721 140.5623 L478.2739 140.5623 L477.0641 129.2024 L481.9917 127.2247 L479.0705 122.5336 L474.379 124.7872 L464.6713 118.6703 L466.7958 113.1973 L460.9239 111.7716 L459.8027 117.3825 L448.3836 119.4981 L447.3509 117.5665 L449.3573 110.2998 L450.5671 109.7939 L447.1148 104.137 L441.5675 107.9543 L442.3347 108.8281 L440.4463 115.3589 L438.4693 115.8648 L429.3813 107.3564 L432.0664 102.4353 L427.4929 100.4117 L424.7782 105.6547 L413.7722 105.2408 L411.7363 101.4235 L406.3071 104.4129 L408.1955 108.6901 L401.0549 117.0606 L399.7271 117.1986 L397.5141 111.1737 L398.0747 109.7479 L393.1471 109.1501 L392.793 111.2197 L389.5178 109.9779 L389.9604 108.1382 L384.2951 108.0922 L384.2065 112.5074 L375.5906 116.0028 L372.4039 113.1053 L368.8041 117.1526 L364.1125 115.6809 L352.5754 120.28 L351.1886 116.2327 L345.9364 117.8884 L347.9428 122.3036 L341.4514 124.4192 L337.645 114.669 L328.4684 117.9804 L332.1568 127.8686 L325.1932 130.5361 L324.0129 126.2589 L318.8197 128.5125 L318.2886 126.2589 L313.8626 125.3851 L311.2955 127.5007 L310.1448 123.7754 L300.9387 127.5007 L303.9779 136.607 L284.887 143.4137 L281.9069 135.5032 L275.5924 137.7568 L276.035 138.9526 L263.4357 143.6437 L262.6685 140.6082 L256.5606 139.0905 L251.8691 140.7922 L251.3675 139.0905 L240.9516 142.9998 L245.9972 156.1993 L201.8552 172.5723 L196.8096 158.9588 L185.9806 163.0981 L186.6003 165.0757 L181.7317 166.7774 L178.899 171.4685 L180.9055 176.4356 L179.7547 176.8495 L181.2301 179.0111 L175.9484 180.8048 L175.4467 179.7929 L169.7225 181.5406 L171.8469 185.2659 L158.5689 190.325 L155.6183 182.0465 L145.822 185.4499 L146.1171 186.2317 L125.964 193.1304 L125.1379 195.568 L123.2494 195.614 L124.1051 197.6376 L122.7478 200.0291 L125.9345 200.3971 L127.9705 206.7899 L124.2527 208.4916 L122.4232 207.4338 L120.6823 211.573 L122.7773 213.2287 L122.6298 214.6544 L104.7782 220.2193 L104.6602 218.3337 L106.0175 216.724 L102.0931 215.2523 L101.0604 217.7818 L97.6081 219.0696 L94.982 218.2877 L93.1526 221.6911 L95.8082 222.7489 L96.1918 224.1286 L76.4518 230.6134 L77.9862 227.256 L73.6487 225.6003 L72.4979 228.3598 L68.6916 229.6016 L66.7441 228.7277 L64.8262 231.8551 L68.0719 233.5108 L48.2139 240.2715 L40.7192 237.788 L40.0996 235.4425 L35.5851 237.2361 L36.7358 239.3057 L35.3785 243.4909 L32.1328 244.4108 L33.5491 248.8259 L36.4703 248.182 L40.6307 249.8837 L42.5486 253.2411 L39.5095 253.9309 L36.2932 253.0111 L34.1982 257.7942 L38.2702 258.714 L40.1586 262.7613 L37.621 263.2672 L37.326 261.9794 L30.8935 260.4617 L24.3135 262.3933 L22.4251 269.292 L20.6842 269.7979 L18.8253 265.0608 L20.5662 262.5313 L15.9631 260.0938 L14.6353 263.4971 L11.5666 264.6009 L9.4126 263.3132 L6.3144 267.4064 L10.2093 268.9701 L10.8585 274.627 L5.3112 278.0763 L2.2425 276.8346 L0.0 281.4797" stroke-dasharray="" fill="none" fill-opacity="1.0" stroke="#ff0000" stroke-opacity="1.0" stroke-width="1.0px" stroke-linecap="butt" stroke-linejoin="miter" stroke-dashoffset="0.0px"/>
</g>
</svg>