<?xml version="1.0" standalone="no"?>
<!DOCTYPE svg PUBLIC "-//W3C//DTD SVG 1.1//EN" "http://www.w3.org/Graphics/SVG/1.1/DTD/svg11.dtd">
<svg width="512px" height="512px" version="1.1" xmlns="http://www.w3.org/2000/svg" xmlns:inkscape="http://www.inkscape.org/namespaces/inkscape">
<g id="layer" inkscape:groupmode="layer" inkscape:label="layer">
<path d="M52.2836 441.1885 L52.7424 450.6598 L64.2118 465.5169 L67.0886 468.4597 L68.8333 470.2314 L69.7261 468.9271 L72.1982 467.4004 L73.5861 467.0728 L70.6114 466.5289 L67.9593 462.2998 L65.1365 460.8345 L63.7947 459.5535 L65.1365 458.3333 L73.0058 460.7731 L79.967 464.4816 L81.4225 468.4884 L75.934 471.8148 L88.6811 477.1685 L91.0182 479.5316 L95.8873 473.6766 L97.8792 475.1974 L94.1366 480.041 L90.3921 481.8437 L93.5803 486.9831 L96.66 486.6146 L100.7012 491.044 L112.1452 487.0767 L120.4804 487.7025 L127.6078 491.8903 L129.9861 497.9496 L132.7684 494.7714 L132.7901 494.5544 L133.0973 494.1117 L133.495 493.9409 L133.7973 493.6098 L134.6969 493.3267 L134.6421 492.9858 L134.6987 492.8612 L135.0652 492.7635 L136.248 492.7933 L137.0339 492.5916 L138.9103 492.0014 L139.7734 492.6097 L139.997 492.5056 L140.3432 492.7577 L141.1179 493.7806 L141.891 493.8631 L142.3171 493.7052 L142.6855 493.5239 L142.7275 492.8343 L142.9211 492.6109 L143.4965 492.8477 L144.8706 492.2424 L145.6644 491.6932 L146.1697 491.1627 L146.559 491.213 L147.2061 491.1879 L148.4598 491.3703 L149.2464 491.7061 L150.122 491.9002 L151.6352 492.1623 L152.4305 492.119 L154.7007 492.8922 L156.7163 493.3712 L158.5968 493.6057 L160.1903 493.5402 L161.9256 493.1642 L163.2479 492.5606 L167.8136 488.8197 L176.8953 482.7193 L178.1362 482.5052 L179.4589 482.0092 L181.8518 481.6284 L191.1174 480.0726 L192.1145 477.1083 L192.089 477.1007 L191.8024 476.8381 L191.7956 476.5304 L192.7818 474.6137 L193.0058 474.1405 L193.3201 473.5836 L193.8153 473.1332 L194.6995 471.9657 L194.938 471.4159 L195.2787 471.2007 L195.4606 470.9603 L195.5653 470.5262 L195.7847 470.0384 L196.2712 469.2301 L196.6674 469.0171 L197.0132 468.9095 L198.3896 467.0916 L198.6717 466.3774 L198.8911 465.9568 L199.3698 465.559 L199.7854 465.3637 L200.2157 465.2619 L200.8755 465.249 L201.5973 465.5204 L201.7458 465.8498 L201.6895 466.1954 L201.137 469.3862 L201.0837 469.6799 L200.5882 471.3644 L200.4122 471.8283 L198.4124 478.2272 L199.444 478.5372 L199.5885 478.2389 L199.6417 476.9638 L200.3999 475.3658 L201.9169 473.4725 L206.4776 464.9729 L207.5058 464.8489 L210.3226 463.3936 L217.7426 464.4582 L218.5716 469.0651 L221.0902 468.6112 L222.8799 468.4357 L223.2817 468.465 L223.5671 469.0528 L223.5116 469.5038 L222.7715 469.6231 L221.9856 470.256 L222.6417 471.1679 L224.3283 469.9764 L225.5666 470.2431 L226.7568 465.862 L231.5434 465.1543 L236.4575 467.2998 L237.4182 467.2162 L240.1555 467.4402 L242.093 467.3776 L243.6948 467.8648 L244.1093 469.0101 L244.7001 471.9002 L245.1709 472.5267 L245.2925 473.1941 L243.3988 473.4046 L240.6139 474.0802 L243.2038 474.547 L244.0257 474.4809 L245.0407 474.6318 L246.9708 474.5984 L247.3481 474.4908 L248.529 474.4932 L249.3708 474.9669 L249.3817 475.3705 L251.3049 476.3497 L252.3272 479.5977 L252.3474 479.5696 L252.8283 479.6889 L253.1671 479.6871 L253.5309 479.7766 L254.2966 480.2217 L254.95 480.8359 L255.7517 481.5243 L256.8954 483.1386 L256.9543 483.1989 L256.9776 483.255 L257.0845 483.4059 L258.6131 486.6556 L258.902 487.3101 L258.8491 487.7014 L258.8697 487.83 L259.7767 490.0228 L260.1639 490.4936 L261.0195 491.6423 L261.0064 492.1576 L261.0642 492.5085 L260.9119 492.7676 L261.287 493.6747 L261.4659 493.6584 L261.8759 494.0614 L261.9105 494.2275 L264.6369 492.9548 L265.6309 492.8261 L268.842 495.5107 L274.0 494.3877 L274.3226 490.896 L286.4128 489.7964 L291.4432 485.0998 L293.1313 488.615 L293.0495 489.1841 L293.41 489.1601 L294.1726 489.5432 L295.3588 490.2526 L295.9822 490.6632 L296.5018 491.6183 L296.8705 493.2262 L297.1823 494.9761 L297.1541 496.0938 L294.9897 497.3366 L294.6712 497.67 L294.3613 498.1882 L294.2236 498.5578 L294.4889 500.2715 L294.9364 502.1489 L295.4053 503.7514 L296.3037 505.8334 L297.6163 508.2535 L298.4734 509.3501 L299.0241 510.3695 L299.1955 510.7467 L299.6056 511.5152 L299.5932 512.0 L312.4127 508.8863 L315.7663 507.857 L317.6719 507.2254 L318.7898 502.4998 L316.3402 502.2483 L314.6113 504.3116 L312.4502 504.1081 L309.8356 504.1081 L309.2991 502.5115 L310.1657 499.5989 L308.6205 496.2382 L308.2435 493.7999 L307.039 491.8388 L308.3426 485.2103 L308.2435 481.7641 L301.351 467.5086 L304.1809 465.3479 L302.1354 462.1933 L306.677 457.2166 L311.7037 455.8537 L312.3301 453.8063 L326.0477 454.8002 L337.0321 455.0938 L340.3965 464.4553 L345.4994 473.9761 L345.2473 489.9251 L343.4354 492.8495 L344.0356 495.8148 L344.5833 498.8444 L356.8536 495.2065 L360.7024 493.294 L367.5934 488.2874 L366.423 485.8309 L366.423 484.5862 L368.5061 484.6857 L369.8325 484.2435 L370.2819 483.5001 L370.0993 482.2888 L369.2665 481.2664 L368.7285 481.2863 L367.6996 480.7704 L366.5663 477.8599 L367.6793 475.6764 L370.5854 472.1728 L370.6237 471.2621 L373.8906 464.4757 L376.7735 465.0958 L377.0886 465.3245 L377.76 466.6008 L382.5519 467.8081 L383.8457 467.611 L386.5211 468.1532 L386.8635 468.6872 L390.4145 466.4897 L392.8595 466.5698 L393.8694 466.3218 L396.8606 462.7502 L398.7437 461.2644 L400.0717 459.1411 L399.1339 458.7199 L398.9088 457.3161 L406.5426 458.9656 L409.6073 456.4386 L413.5386 458.0297 L416.5359 456.9417 L415.1817 451.3203 L414.0563 447.7461 L417.0858 446.3521 L417.5941 442.8124 L418.2142 440.3321 L418.7814 438.8936 L419.2188 437.9261 L419.1283 437.2399 L417.7633 434.6975 L418.0562 433.2127 L419.897 428.3461 L419.9694 427.6224 L412.3754 431.1535 L403.8113 427.9021 L402.3862 427.9266 L398.0621 426.4536 L400.1666 421.2528 L390.6197 416.8305 L396.3891 401.1564 L388.5006 398.6611 L387.2597 397.3084 L384.8829 398.9279 L383.8588 401.5344 L381.0416 403.5874 L379.7354 403.6722 L379.4098 403.2088 L378.0631 400.8803 L376.994 394.7545 L377.8748 392.3785 L384.5273 391.223 L384.6417 391.1996 L386.661 383.6905 L387.445 382.5495 L388.8922 380.463 L389.9396 378.9277 L393.8071 380.3846 L394.5086 383.5208 L400.6569 387.7042 L405.601 385.317 L407.6904 386.417 L411.7643 382.4266 L415.6693 381.5958 L416.3232 380.0505 L417.2148 377.9447 L421.1424 371.2099 L421.4988 368.0502 L417.56 364.5043 L410.0162 362.702 L410.1269 362.3638 L409.8452 362.0964 L409.7094 361.6441 L409.8463 361.2386 L410.3838 359.9694 L410.3827 359.486 L410.1569 358.9559 L409.2311 356.9839 L408.9415 356.4526 L403.5828 355.2705 L399.4175 348.6646 L399.2108 348.3357 L397.9402 346.3157 L397.7647 346.0482 L398.8 345.1997 L401.0661 345.3302 L405.9124 345.621 L404.5281 341.87 L403.7329 339.6463 L401.9173 339.6346 L399.3327 336.966 L400.2442 335.0934 L397.3531 332.7333 L398.7587 330.4819 L403.0055 326.3702 L401.3422 323.5752 L400.2555 321.5661 L393.0351 319.2667 L389.632 321.0657 L386.9273 319.4738 L388.2365 310.0162 L389.0618 309.2261 L376.3563 311.1224 L369.9218 307.794 L367.1208 306.3408 L365.8528 301.9454 L363.1857 300.254 L370.1143 294.963 L371.1383 291.8024 L382.7799 294.1261 L382.4817 293.8498 L382.4776 293.6069 L382.7027 293.5712 L383.0298 293.4489 L383.3029 293.278 L383.5414 293.1814 L383.6135 293.3435 L384.073 293.3277 L384.2658 293.0883 L384.929 292.9005 L385.3968 292.6839 L385.6174 292.5815 L385.5863 292.1694 L385.6178 291.6286 L385.5401 290.8683 L385.5817 289.9002 L385.7183 288.4311 L386.0259 288.1952 L386.3793 288.0232 L386.8932 287.9014 L387.3733 287.7124 L387.717 287.3694 L387.81 287.1516 L387.7774 286.8912 L387.7605 286.8514 L386.6749 284.6489 L386.4772 283.7311 L386.8264 282.6014 L387.6776 280.9643 L388.7609 279.3295 L389.4887 278.328 L390.0896 277.9973 L391.1051 277.8984 L392.2687 277.7966 L393.5689 277.652 L397.0395 276.6522 L397.7433 276.4339 L398.4207 276.3367 L401.3846 275.8053 L403.818 275.2334 L404.985 274.9817 L406.1708 274.8559 L406.8734 275.0145 L407.3142 275.6262 L407.5385 276.5756 L409.2963 276.7336 L410.6862 277.0731 L411.2185 277.5607 L410.9938 278.3959 L410.8404 278.9532 L410.3482 279.6345 L409.8106 280.7518 L409.7971 282.5493 L409.6328 284.197 L409.5589 284.4446 L409.3597 284.8139 L408.913 285.4747 L408.8132 285.6486 L409.2671 285.9295 L409.8797 286.4709 L410.1749 286.8227 L410.3332 287.2131 L410.5571 287.6515 L410.9053 288.3685 L411.2717 288.8221 L411.5872 289.0609 L411.3865 289.3945 L410.8944 289.4964 L410.275 290.1806 L409.3181 291.5437 L407.8836 292.877 L406.6408 293.5829 L404.9937 294.3163 L403.6155 294.8735 L402.2219 295.4646 L402.0216 296.8172 L407.3843 304.5844 L415.0774 295.22 L417.0003 292.194 L419.7739 289.374 L420.6555 284.7835 L421.8514 282.0044 L423.0255 279.9669 L422.9269 279.9078 L422.0858 279.7363 L421.7317 279.5753 L421.7017 279.6017 L420.9053 279.1961 L420.4713 279.0497 L420.4503 279.0035 L420.3573 278.5891 L420.5463 277.4787 L420.9462 276.2209 L420.9935 275.6162 L421.1953 275.2164 L421.4732 275.0274 L421.857 274.2998 L422.5641 274.3677 L422.7329 274.5029 L422.7367 274.4596 L426.3229 273.8743 L429.2076 273.4119 L425.1975 272.3173 L424.8745 270.3745 L422.3169 263.4376 L429.885 262.2464 L429.7098 261.1248 L428.7799 260.704 L425.6454 253.7761 L428.5578 252.9443 L439.0523 257.8907 L440.5318 255.2091 L448.9016 255.9566 L456.3103 258.9479 L459.7164 260.3645 L458.1904 257.9001 L457.2875 254.9522 L456.4978 252.901 L454.5284 249.2775 L444.2125 241.8898 L436.4737 227.7755 L433.8216 215.6978 L418.434 201.2426 L415.7031 199.8023 L395.9303 185.0125 L388.6266 177.8925 L378.2582 189.8371 L369.7766 192.062 L372.0386 193.678 L373.6179 199.4451 L382.9773 206.4065 L384.1439 212.349 L383.8175 212.8467 L383.2549 208.0693 L382.7109 206.5119 L382.7859 207.5599 L382.7859 209.1699 L376.9528 211.6582 L375.8349 214.6791 L365.4402 222.1553 L364.1273 221.6811 L357.6313 220.8416 L357.5513 224.1604 L356.5689 225.2494 L348.7333 225.1211 L346.6011 224.8723 L340.9127 226.9916 L340.4251 227.4652 L340.9555 227.964 L338.6586 232.3418 L338.3638 235.89 L333.4669 240.2876 L325.0979 250.1082 L321.1741 254.1121 L319.6075 254.5635 L318.5936 252.7956 L315.3765 251.6659 L312.2742 252.1716 L310.8983 252.3964 L309.9909 253.2955 L308.0147 257.0208 L301.3169 254.5342 L302.596 249.5585 L301.7149 248.863 L299.6798 247.4048 L293.7367 249.4531 L289.8246 249.7628 L289.4438 250.9259 L289.2037 255.7869 L290.0335 258.3449 L290.3092 258.0002 L290.7639 258.1892 L291.3922 258.7278 L291.5824 258.9853 L292.0468 259.3635 L292.2355 259.6796 L292.2584 259.7405 L292.4823 259.8552 L295.4758 261.822 L302.2295 262.2394 L302.9517 262.2353 L305.2058 262.1393 L306.611 262.1873 L306.9831 262.2271 L307.2476 262.4788 L307.2239 262.8235 L307.0746 270.0702 L307.7341 276.2741 L307.8455 276.479 L307.9588 276.887 L307.7615 277.0029 L307.7761 277.3862 L307.2626 282.2391 L303.9191 283.8288 L294.8118 284.3837 L290.466 285.7247 L277.9898 282.739 L281.2579 277.8252 L283.4996 273.7531 L283.8811 271.9233 L279.7956 271.0939 L277.83 269.5486 L274.6545 270.5964 L272.4319 269.0043 L271.589 265.9599 L269.0881 263.886 L269.3079 261.9285 L271.2383 260.958 L276.6063 261.5071 L279.1684 262.9406 L284.5976 262.6356 L284.4757 256.6878 L286.8667 249.4724 L287.5284 245.2863 L287.6571 240.4503 L287.4099 237.9893 L286.9849 236.0036 L286.953 235.1711 L287.1664 234.519 L287.2024 233.9429 L287.0179 233.6725 L287.8214 233.6848 L288.4325 233.4102 L285.5688 228.2907 L277.8926 219.6695 L274.5859 217.4173 L271.843 214.2986 L274.7352 211.4064 L278.5014 202.8234 L280.296 194.8736 L279.0371 194.1962 L277.9834 192.9502 L277.1255 191.7769 L277.1079 191.7786 L277.0062 191.6422 L276.0733 191.6135 L270.1549 191.8922 L269.0472 191.521 L268.6754 191.5058 L268.6672 191.3934 L268.6327 190.9297 L274.7817 175.9538 L272.8813 174.3459 L271.2751 172.8199 L270.2768 173.5905 L269.2254 173.9834 L267.2128 173.7117 L264.9298 173.0717 L262.7702 172.03 L260.1522 172.1536 L258.4792 162.7121 L258.4323 162.5628 L258.4323 158.2647 L259.1897 158.048 L266.4007 158.0463 L267.8633 157.6534 L266.1223 152.8305 L264.1312 148.9557 L264.5446 146.0616 L262.8539 144.85 L264.6219 141.2591 L260.4614 139.1919 L258.4323 135.4673 L253.1577 130.6558 L252.2915 130.1551 L251.724 129.6327 L250.9793 128.6688 L249.6874 125.1081 L247.9821 124.9482 L246.3466 123.7418 L244.3937 123.1303 L244.2612 122.9453 L244.2395 122.9148 L244.2916 122.7585 L244.3779 122.2273 L243.987 121.8566 L243.8257 121.0232 L244.561 120.3227 L244.7298 120.0639 L245.3615 116.1786 L244.941 114.6448 L245.0419 114.0093 L245.4579 113.2128 L246.2408 112.2921 L247.3009 112.5832 L248.2852 112.6711 L249.223 112.8175 L249.8255 113.0107 L254.387 114.5013 L258.75 115.8249 L260.7446 111.6977 L261.9986 111.3633 L262.0924 111.3328 L262.2027 111.3972 L265.1069 111.8863 L265.2993 111.8125 L265.7045 111.7475 L265.6977 111.3193 L265.838 110.9867 L265.778 110.6107 L266.0492 109.9934 L266.3797 109.5822 L267.0395 109.3151 L267.2335 109.2683 L269.7487 108.8788 L270.4813 109.1412 L270.8174 109.5471 L270.9956 109.7257 L270.7139 110.9398 L271.0552 111.5729 L271.1243 111.7363 L270.7094 111.9448 L270.5458 112.1416 L271.3043 112.6646 L271.5238 112.6242 L271.9724 112.8099 L272.4725 113.3938 L273.9587 112.7255 L274.5855 111.956 L275.1733 111.5466 L275.4528 111.1343 L276.4383 110.6763 L278.629 109.3772 L280.3883 108.6404 L280.3943 108.6334 L280.9322 108.193 L281.7384 107.6278 L281.8689 107.4931 L284.7263 106.3791 L286.0775 106.0693 L290.6033 103.2088 L290.5928 103.1702 L290.6277 102.7619 L286.7332 98.5725 L286.6945 98.59 L285.6869 98.0752 L281.2807 96.1769 L278.1244 94.5475 L277.9691 94.3888 L277.0002 93.4434 L275.3084 90.1634 L274.8031 89.9883 L274.3698 88.575 L274.5761 87.2852 L273.4928 86.7387 L272.2342 87.3889 L271.2751 89.173 L269.1346 87.9043 L268.423 86.9039 L269.207 85.6557 L271.4116 84.7127 L274.2202 86.3469 L276.541 86.7592 L277.6345 86.7182 L278.8312 84.0672 L279.9142 83.6027 L280.9458 82.747 L281.998 81.6634 L285.5151 80.8486 L286.6139 84.1809 L287.4598 83.5512 L287.9703 81.0653 L289.6828 80.0854 L291.8487 80.2195 L291.45 82.0576 L291.5107 82.3581 L291.2482 82.9889 L290.4758 85.0313 L288.2314 89.5426 L288.0514 90.2015 L290.4203 92.4846 L294.9488 91.4426 L296.3101 89.6064 L300.9312 87.1927 L303.6925 85.0606 L303.7784 84.937 L303.8415 84.9458 L303.8711 84.923 L303.8595 84.9482 L304.0654 84.9769 L304.2293 85.1034 L303.9236 85.5087 L303.6321 86.0499 L303.1884 86.6602 L303.0312 86.7733 L302.6437 87.6261 L303.9124 87.2852 L305.2639 86.4295 L305.5321 85.4595 L305.1022 84.5399 L305.0737 84.5171 L304.6506 84.5317 L304.3081 84.9944 L304.0541 84.7642 L304.4353 84.455 L303.4176 83.345 L303.6753 82.8395 L303.6134 82.231 L303.8917 82.293 L304.3456 81.777 L304.9132 81.3231 L306.2696 81.292 L306.2903 81.8081 L306.3829 81.9732 L306.4347 82.3135 L306.8781 82.4887 L307.332 82.2204 L308.807 81.7255 L309.1217 81.3272 L309.4492 80.7461 L310.0227 80.5288 L310.7464 79.8171 L311.5499 82.3756 L314.1345 84.0625 L313.7541 84.3232 L313.7871 84.5973 L313.5013 84.5393 L313.4848 84.5534 L313.4259 84.5452 L311.6958 85.7131 L311.3169 86.0517 L308.7196 88.8327 L303.6494 92.4536 L305.4545 93.9489 L308.3324 92.9895 L309.6405 92.7136 L309.968 92.5895 L310.4872 92.5356 L312.1493 92.1853 L313.2016 92.4635 L314.1502 92.8144 L314.8003 93.6707 L314.8727 93.8804 L314.9294 93.9518 L314.9286 94.0414 L315.2749 95.0424 L315.6462 96.5278 L314.8003 97.9926 L314.6041 99.6636 L317.2656 100.1691 L315.5431 107.1218 L314.5629 106.7505 L314.1709 106.2761 L313.4079 106.6263 L313.5005 108.9063 L312.1081 110.7009 L314.594 112.1656 L316.9044 111.6192 L319.3903 111.7428 L320.7258 109.5254 L321.8133 108.3318 L322.8899 108.1455 L324.3502 108.0671 L325.4677 108.036 L325.4914 108.0354 L326.1208 108.586 L326.3339 108.9432 L326.2701 109.338 L325.9775 109.7064 L325.8474 109.9939 L325.6069 110.5252 L325.6002 111.3416 L325.8204 112.0866 L326.0582 112.8924 L325.4227 114.4573 L325.3117 114.7297 L325.4028 115.1004 L326.4382 115.4694 L328.1461 116.2594 L332.3137 117.1707 L334.587 118.2466 L335.3185 118.5833 L335.9686 118.8551 L336.2713 119.2258 L335.8024 119.8132 L336.0789 120.0328 L336.1561 120.0943 L336.1937 120.0686 L336.4679 119.8806 L336.7203 119.2615 L336.885 118.656 L336.9214 118.5224 L336.771 118.3813 L336.2889 117.9069 L335.7896 117.5444 L334.8811 117.1473 L333.7456 116.2378 L333.3 115.2486 L332.1573 113.6972 L331.9593 112.927 L332.0988 112.5891 L332.4582 112.6406 L332.6761 112.7466 L333.4624 113.5988 L333.8086 114.1024 L334.0303 114.4246 L335.3275 116.1441 L336.5305 117.0753 L336.7207 117.1309 L337.0081 117.2152 L337.1206 117.2287 L337.5936 117.2861 L337.1067 116.6337 L335.865 115.511 L334.1905 113.6275 L332.5921 112.021 L331.8884 110.8162 L331.3313 110.3278 L329.3668 109.2296 L328.1968 108.904 L327.3842 108.6164 L327.3321 108.2931 L327.4491 108.022 L328.6784 108.1192 L331.8006 108.2287 L333.4012 108.5262 L334.3372 109.0264 L335.1632 109.8001 L335.6002 110.3377 L335.5424 111.0968 L336.1378 112.2219 L337.6379 113.8125 L339.9595 115.0178 L341.2199 115.4571 L341.9923 115.7581 L342.8356 116.1575 L343.141 116.4586 L341.651 118.4469 L341.2064 119.5907 L340.6805 119.894 L340.3789 120.4598 L341.6266 120.8563 L342.4218 121.3617 L343.6129 122.2185 L344.2828 122.9113 L344.8887 124.0059 L345.5035 124.6267 L346.3063 125.4805 L346.813 125.8887 L347.5573 126.2682 L347.6192 126.2999 L347.6076 126.9083 L347.0786 127.6129 L346.8521 127.5233 L345.954 127.1678 L345.0207 127.0834 L343.5435 127.1777 L342.1251 127.6878 L341.8427 127.7985 L340.9018 127.7985 L340.1227 127.8688 L339.6478 127.7751 L339.5431 127.6503 L339.3338 127.4009 L339.2558 127.3657 L338.9182 127.2146 L338.5307 126.7895 L338.5296 126.4679 L338.5063 126.3204 L338.6706 126.0931 L338.982 125.2703 L339.6609 123.8279 L340.0747 123.1913 L339.2419 122.5728 L338.5254 122.109 L337.585 121.4525 L335.7915 121.4355 L335.1474 122.3087 L334.5604 122.9798 L334.2723 123.456 L331.119 127.2673 L329.1282 130.9188 L326.7349 129.0002 L325.5694 127.1953 L326.209 125.689 L328.1585 122.9037 L325.6519 121.3875 L323.986 120.8926 L321.4382 119.7992 L319.0036 121.9444 L319.9114 125.1116 L317.5905 127.2363 L317.1884 127.5045 L314.3412 125.9057 L313.6191 126.4217 L316.4145 128.6494 L319.4474 132.2804 L315.94 132.3735 L313.301 133.8118 L308.8846 133.6525 L304.253 132.0637 L302.8913 133.663 L302.8035 134.5708 L304.9815 137.0134 L301.566 135.1277 L296.6248 134.7769 L293.7776 134.8079 L294.861 136.819 L294.768 138.0985 L293.6951 141.3891 L292.8908 143.0188 L294.1786 143.7227 L296.5453 144.2281 L297.1065 144.3722 L299.0511 144.6579 L300.07 144.9431 L301.3956 145.1024 L305.5321 145.5358 L306.4242 141.0588 L308.08 142.5439 L310.9497 143.8768 L313.1997 148.1007 L308.8389 156.529 L313.574 158.9873 L315.4542 162.1681 L317.2683 163.8329 L320.3627 166.441 L320.2186 167.1261 L318.9259 166.6002 L317.9848 167.8925 L321.6674 169.0724 L322.5928 168.8253 L326.5072 168.8938 L327.9334 168.6731 L329.5206 166.8883 L330.1515 164.2621 L329.3233 157.9965 L332.543 152.2818 L335.5211 149.9471 L344.4558 151.4766 L343.8121 155.4211 L340.9971 159.4768 L341.843 164.525 L341.5598 168.532 L342.0448 169.9818 L347.7805 169.4308 L354.0346 169.829 L353.2521 170.6452 L352.3443 174.6586 L346.1757 174.7938 L340.1764 174.5918 L338.872 173.7422 L336.3242 175.1328 L336.487 178.4417 L334.716 182.1446 L339.3848 183.513 L367.5657 179.0817 L371.9842 177.9586 L381.4824 177.7174 L385.9663 174.3746 L376.5724 166.6096 L372.0649 158.0773 L368.2818 149.8668 L366.8473 140.1704 L364.026 139.8068 L364.3223 135.4556 L366.0817 135.7719 L367.7885 136.1877 L368.1374 133.4469 L369.8442 130.0971 L369.8479 126.4779 L372.335 125.9977 L367.691 102.9224 L364.72 99.9764 L364.7687 97.9264 L363.6284 97.9264 L364.0372 99.8592 L362.1241 100.9311 L358.6017 97.1943 L359.3407 95.3259 L358.4967 93.5395 L357.9527 91.5539 L356.9924 90.0697 L356.2369 87.6964 L355.9451 83.9173 L356.4294 80.8316 L356.208 78.1185 L355.1299 73.4097 L357.12 73.2117 L357.9295 72.5609 L358.0679 71.1785 L355.9361 70.2864 L355.3899 70.9805 L354.1764 71.1481 L352.1882 70.7814 L349.1898 70.895 L346.7553 64.8089 L343.9681 57.9202 L340.1827 56.8482 L336.7286 53.4155 L335.1351 50.6007 L335.2904 45.6014 L336.0267 41.6542 L336.3666 38.5611 L334.4805 36.158 L329.7738 35.7351 L323.211 33.8457 L320.1256 31.1638 L319.3858 30.1655 L313.2454 32.2265 L312.2626 35.1498 L304.2425 38.7644 L289.5789 33.404 L283.3781 23.2806 L284.5559 17.0411 L288.0345 11.2117 L287.8282 11.3798 L287.8675 9.5689 L287.8529 8.806 L287.7618 7.8528 L284.3327 6.1725 L280.8542 0.7769 L276.8044 0.0 L269.7888 6.4865 L267.3415 6.1027 L262.4199 13.2564 L261.3395 11.3757 L261.5871 14.6801 L260.4955 15.3304 L260.4955 12.1608 L259.629 12.0436 L258.995 14.9203 L255.24 17.0939 L251.4925 18.5468 L255.5251 22.0269 L237.4254 30.3928 L242.302 31.8574 L242.3571 32.3091 L242.5 32.455 L242.6647 33.9822 L242.6535 34.7456 L242.8609 36.4504 L241.9193 39.3561 L238.1643 40.6624 L238.571 42.7427 L239.9304 46.9939 L240.2778 48.3307 L240.2189 48.7959 L240.1544 48.8474 L240.2388 49.1684 L239.657 49.2434 L239.6288 49.2657 L237.0851 49.6757 L236.3146 49.8532 L236.2617 49.9013 L234.852 55.5653 L235.3115 58.6917 L235.2785 62.395 L229.8261 68.0189 L229.8062 68.552 L230.1048 70.0837 L230.4593 70.7339 L231.6616 72.2546 L232.6376 74.0259 L233.5773 76.5961 L233.8215 77.3342 L234.0113 77.9082 L233.9678 79.2326 L233.826 79.6402 L233.6835 80.0497 L233.5301 80.2635 L232.9843 80.8697 L232.2153 81.1421 L231.9032 80.9131 L231.1942 78.6439 L229.8854 76.5053 L229.5399 75.9342 L227.9865 73.7968 L225.9556 71.1153 L225.5572 69.2695 L225.6367 67.2516 L227.1766 64.3374 L226.1105 64.492 L224.2971 64.9718 L222.9726 65.3461 L221.8971 65.6132 L221.1101 65.6864 L220.2083 65.3765 L219.64 64.9858 L218.9978 63.8037 L218.5037 62.3832 L218.1515 62.0119 L216.6724 60.8989 L216.1247 60.3043 L215.7135 59.7303 L215.3902 59.4034 L215.1103 58.7877 L213.9561 58.1574 L212.2557 57.5892 L211.8854 57.2741 L212.6297 56.27 L214.5672 54.4037 L215.4052 53.6527 L215.6138 52.6282 L211.5354 51.4372 L210.8666 51.2504 L210.1831 50.4771 L212.5119 46.2962 L209.8151 46.4573 L205.8857 46.8047 L204.949 51.0881 L205.9659 51.9732 L206.7162 53.8226 L205.1771 56.198 L202.3235 58.6425 L200.9209 58.2898 L196.637 54.9461 L195.0851 56.3983 L195.4523 60.336 L196.8681 66.674 L196.051 67.7501 L193.5722 70.6062 L192.2101 75.7398 L190.6346 79.2519 L185.602 83.9003 L182.7626 85.0735 L180.3315 89.9315 L184.0189 93.6391 L185.028 94.9218 L186.4497 93.7796 L190.396 97.5984 L188.3753 104.4669 L177.7656 106.419 L176.2314 104.1875 L169.2312 106.556 L168.6058 106.8787 L168.5807 106.9385 L168.7926 108.9081 L162.2505 112.8614 L160.1085 111.5729 L152.0846 112.6681 L152.0846 114.8351 L147.48 117.5906 L145.7897 118.8756 L144.9771 119.2322 L144.5821 122.1441 L141.176 123.4735 L140.38 122.4651 L140.2078 122.5084 L139.578 122.3339 L138.9088 122.6525 L137.2665 123.3558 L136.6291 123.8788 L136.5222 123.8396 L135.778 124.3227 L132.8595 121.9391 L133.1709 116.9611 L130.2712 114.3666 L127.8141 121.4062 L126.9776 124.7268 L122.4198 126.6243 L121.2554 124.8691 L122.0687 120.256 L121.3286 120.0217 L118.4911 116.5101 L119.2703 109.2906 L116.3721 114.5967 L112.584 124.1002 L110.8247 124.9728 L113.3005 128.9786 L112.8579 131.204 L113.0646 136.1039 L113.6805 142.6874 L110.3674 144.3979 L109.7894 149.3053 L106.7096 153.9138 L103.3991 162.1423 L103.1125 162.5288 L102.7179 162.2887 L102.1759 161.548 L101.1525 160.7434 L100.3134 159.7667 L98.2337 157.9848 L95.4019 155.9341 L91.5561 158.7689 L91.5175 159.5951 L92.0963 160.0156 L92.4819 161.4215 L92.7805 162.0393 L93.3548 162.2718 L94.1647 162.2477 L94.9911 162.5247 L95.6048 162.804 L96.049 163.2174 L97.6856 164.9636 L98.1166 164.8804 L98.7251 164.4934 L100.7811 162.7789 L101.3525 162.5581 L102.2284 162.6418 L102.599 163.1601 L102.5281 163.9107 L100.0572 167.8123 L99.619 168.2556 L98.6838 168.327 L97.8732 168.6766 L97.1064 169.0994 L95.936 169.3951 L94.8444 169.3529 L93.6294 169.1708 L92.055 168.6415 L90.1539 168.5911 L86.798 168.07 L85.0214 167.9599 L82.7699 167.9136 L81.8134 168.6631 L79.662 172.9915 L75.2787 173.9975 L74.1582 176.1066 L65.5998 178.9505 L59.9646 177.5874 L57.2457 179.3557 L55.7047 186.728 L63.5651 186.4927 L69.9906 186.2801 L73.124 188.7762 L73.3176 192.2113 L75.8601 194.2313 L75.9667 198.4557 L72.7031 200.8474 L73.4485 202.8257 L73.3123 203.8597 L73.2785 204.1173 L73.2313 205.2596 L70.9378 213.4789 L70.796 214.6147 L70.6737 219.3791 L70.9186 228.5939 L71.2866 231.4496 L75.4318 237.751 L77.8663 237.8857 L79.108 238.7579 L79.9783 237.2827 L80.4359 235.5792 L79.1305 233.5361 L81.1449 231.8208 L81.7413 233.7819 L80.6572 236.7968 L79.3105 239.0331 L88.6061 247.6794 L89.2213 253.0883 L89.4126 256.1557 L92.3348 259.0942 L95.1847 267.4221 L99.3455 269.5949 L96.5587 273.7338 L96.0084 275.7748 L93.0513 286.7454 L95.6239 290.5839 L97.5041 299.9438 L93.6272 308.3857 L93.659 330.3883 L87.2073 342.3955 L89.2513 343.292 L90.0991 344.6274 L90.5568 347.3239 L89.9603 354.5976 L85.8227 359.7294 L82.2793 370.0443 L79.8732 377.0495 L83.7606 382.6267 L78.3915 387.1133 L75.1898 392.7834 L61.0983 405.0143 L54.0084 428.7515 L57.0319 434.8238 L57.8347 438.8708 L57.3466 442.9879 L54.7737 442.9318 L54.8374 445.0494 L53.4784 445.2992 L52.9239 443.4764 L52.2836 441.1885 M86.3647 175.2886 L86.5707 172.7327 L86.9038 171.7941 L87.5441 171.013 L88.5135 170.6271 L89.9982 170.1042 L91.4634 169.788 L93.8571 170.1721 L95.3362 170.2541 L96.3014 170.0983 L97.1578 169.8635 L98.4201 169.3705 L98.9292 169.1597 L99.4059 169.1468 L99.8148 169.3055 L100.2008 169.918 L100.6412 171.0674 L100.7369 171.6623 L100.7961 172.2315 L100.8869 172.7954 L101.0456 173.1871 L101.2617 173.5378 L101.3202 174.2996 L101.2684 175.3682 L101.2043 176.0996 L101.5329 176.9533 L102.1755 177.6313 L102.3424 178.0857 L102.381 178.6554 L102.0022 179.1373 L101.7463 179.532 L101.3558 179.8845 L100.8145 180.2931 L99.7282 180.8863 L98.8598 181.4443 L98.2359 182.3437 L97.7719 182.7652 L97.2501 183.0258 L96.3948 183.164 L95.2166 183.1786 L94.0593 182.9602 L93.593 182.4063 L92.7475 182.1434 L91.8464 181.9033 L91.3175 181.9888 L90.6843 182.3753 L89.9697 182.363 L89.1208 182.0099 L87.8315 181.829 L86.9469 181.2891 L86.4008 180.7698 L86.4792 180.3306 L86.6423 179.9893 L87.1896 179.3253 L87.4143 179.07 L87.8881 178.6097 L88.2355 178.0576 L88.3972 177.5089 L88.2156 177.0745 L87.8911 176.876 L87.5464 176.6494 L87.0373 176.2301 L86.5339 175.8103 L86.3647 175.2886 M88.5457 218.5472 L89.0671 218.2176 L90.0905 217.4074 L90.8002 216.7487 L91.3573 216.456 L92.0317 216.2136 L92.3337 215.9835 L92.8904 215.9367 L93.3811 215.9788 L93.5829 216.2768 L93.7254 216.3881 L93.9224 216.5421 L94.344 216.7716 L95.3025 216.7159 L95.4698 216.5549 L95.5189 216.5456 L95.8453 216.1943 L95.9694 215.8436 L95.5159 215.5128 L95.0406 215.2781 L94.2469 214.8852 L94.3684 214.5293 L94.7807 214.5 L95.6386 214.5111 L95.8209 214.6194 L96.3824 214.9537 L96.8453 215.507 L96.9879 216.055 L97.3075 216.4531 L98.2993 217.2346 L100.6082 217.9858 L102.5555 218.1105 L102.8046 218.0701 L103.2116 217.9624 L103.3534 217.7212 L103.3072 217.3342 L103.2941 217.0215 L103.1651 216.7235 L102.0164 215.5971 L101.2129 214.9777 L100.693 214.7529 L100.0797 214.6979 L99.7837 214.5749 L99.4858 214.6282 L99.2596 214.5029 L99.2499 214.3243 L98.9187 214.1797 L98.7401 214.0258 L98.7345 213.8929 L99.0837 213.7008 L100.0782 213.5955 L100.5564 213.6282 L101.9677 214.6522 L103.5938 216.028 L103.7236 216.0391 L104.4742 216.3243 L105.4781 215.1598 L105.5749 214.2061 L104.7556 213.5562 L102.8398 212.1014 L102.3833 212.3408 L101.9196 212.3273 L101.4234 211.6359 L100.7478 211.1939 L100.2976 210.8409 L99.628 210.3163 L99.4765 209.9884 L99.4097 209.7782 L99.5147 209.475 L99.7619 209.3028 L99.9409 209.2519 L100.2965 209.4808 L100.7849 209.4785 L101.5344 210.2413 L103.4168 212.3391 L105.1029 213.3232 L109.0886 215.4841 L109.5324 215.8618 L109.7282 216.0872 L109.7789 216.4004 L109.7567 216.6609 L109.6723 216.9314 L109.553 216.9829 L109.0339 217.131 L108.7169 216.9952 L108.7792 216.6984 L107.7498 215.6299 L107.4771 215.233 L106.7351 215.1323 L106.163 215.5181 L106.025 216.1182 L105.7958 216.607 L105.9275 217.4723 L106.1784 218.042 L107.5848 218.4348 L107.949 219.0203 L108.356 220.019 L108.3091 220.7643 L108.6119 221.3925 L106.4358 222.5066 L105.3464 223.205 L106.3371 222.8848 L108.2761 222.0494 L108.5485 222.4849 L108.6955 222.9035 L108.6486 223.1084 L108.6989 223.4205 L108.6974 223.9192 L109.3257 223.9304 L109.3839 222.3778 L109.9788 222.2484 L110.4548 223.02 L110.992 223.9696 L111.7059 223.9649 L112.2794 224.798 L111.7449 225.3694 L111.7625 225.6861 L112.0431 225.7657 L112.1823 225.8049 L112.3042 225.8395 L112.6598 225.795 L113.9709 226.2223 L114.256 226.6286 L115.1814 226.7908 L115.3716 227.1772 L116.3083 227.4436 L117.1234 228.0038 L117.6062 228.1882 L118.3745 227.9031 L118.9878 226.8546 L119.2714 226.3693 L119.8693 225.7107 L120.1769 225.2306 L119.9882 224.4672 L119.902 223.9304 L119.9095 223.537 L119.917 223.1342 L120.0813 222.7542 L120.7636 222.1372 L120.8915 222.0833 L121.4066 221.8679 L122.1313 221.7707 L123.3955 222.3403 L125.1552 223.4989 L125.1451 223.5112 L124.9388 223.7659 L124.5809 224.6821 L123.6964 226.7229 L123.5924 227.6303 L123.6648 228.3334 L123.6179 228.6179 L123.9094 228.9604 L125.0637 229.0271 L125.0697 229.0248 L125.2017 229.0441 L125.2182 230.6359 L125.6661 230.6435 L125.5859 228.7889 L126.3023 228.3814 L126.7082 228.5611 L127.0207 228.8837 L127.3324 228.9616 L127.5252 229.5008 L127.4904 230.0352 L127.3017 230.5733 L127.4082 231.6475 L127.6348 231.6879 L127.7601 230.6201 L128.026 230.2905 L128.1179 229.9539 L128.8521 229.9826 L128.9117 229.9831 L129.4526 229.989 L129.4646 229.9714 L129.755 229.9673 L130.6365 228.6888 L131.5139 228.6536 L132.4529 229.3111 L132.3846 229.7741 L132.6975 229.9439 L133.4143 229.6495 L133.9545 230.1711 L133.9357 230.6698 L134.3713 230.9854 L134.9257 231.1083 L133.3922 232.0948 L131.9003 232.946 L131.2619 233.1456 L130.7899 233.1895 L127.4165 233.1345 L125.9396 233.2065 L124.9954 233.0976 L123.6971 232.6515 L122.604 232.1352 L120.5205 230.7495 L118.227 229.1155 L117.8268 228.8738 L117.7776 228.9229 L117.613 228.8527 L117.7398 228.9616 L117.7229 228.9786 L118.2087 229.3638 L120.7749 231.2359 L121.7761 231.8793 L122.4007 232.4091 L122.6543 232.7452 L122.398 233.3359 L122.3684 233.5806 L121.5574 235.4498 L121.1496 236.219 L121.5413 236.4181 L122.718 233.193 L122.927 232.9021 L123.0361 232.7879 L123.2541 232.7528 L124.6994 233.3306 L125.8938 233.4828 L127.7559 233.3991 L127.3606 234.2233 L127.1501 235.1723 L126.3372 235.9784 L125.767 236.8952 L125.7993 237.0965 L125.7952 237.1053 L125.8012 237.1094 L125.8203 237.2283 L126.2176 237.2856 L126.551 236.7798 L127.1456 236.6505 L128.196 234.838 L128.4646 234.3211 L128.2699 233.9997 L128.3085 233.6455 L128.3569 233.5343 L128.5703 233.4442 L130.5517 233.4851 L131.3598 233.3727 L132.2919 233.0303 L135.0705 231.3027 L135.5469 231.3249 L135.7889 231.1206 L136.1441 231.4157 L135.9081 231.8618 L136.0709 232.1223 L137.0493 232.3278 L137.9188 233.8411 L138.4582 234.3931 L138.3221 234.8451 L138.8169 235.1184 L139.0359 235.1372 L139.3788 235.4685 L139.5532 235.5282 L139.8064 235.311 L140.024 235.2759 L140.2382 235.3432 L140.428 235.403 L142.2117 237.3641 L144.6459 239.7976 L143.9662 240.1126 L143.7827 240.1974 L142.6202 240.2735 L141.5162 239.5962 L140.5668 239.139 L138.2392 238.683 L138.1889 237.8066 L140.024 236.8864 L139.9644 236.1494 L139.2404 235.8455 L138.3982 235.6348 L135.9727 235.4293 L135.3507 235.5938 L135.1571 236.1558 L135.135 236.2202 L135.0165 236.349 L134.4943 236.9157 L133.6338 237.0866 L132.5534 236.8132 L131.8317 236.7219 L130.5949 236.106 L130.4959 235.1945 L130.1496 235.1618 L129.941 234.8211 L129.8169 234.4405 L129.345 235.5405 L127.0368 240.2841 L126.1838 241.3366 L125.7314 242.1486 L125.8075 242.5549 L126.2978 242.655 L129.0861 242.8645 L130.0232 243.0647 L130.252 243.601 L129.9392 244.0482 L129.1293 244.6863 L129.2313 245.2541 L129.0059 245.6984 L128.8254 246.7638 L128.9909 247.1777 L129.5153 247.567 L130.1095 247.5705 L130.8076 247.4686 L131.0308 248.105 L130.8095 248.7799 L130.3732 249.2143 L130.4718 249.2318 L130.4797 249.2552 L130.6253 249.2588 L131.8103 249.4672 L132.7481 249.2166 L133.9406 248.7705 L134.1079 248.578 L134.1075 248.3022 L134.5468 248.0892 L134.9823 248.0189 L135.4291 247.8181 L136.1047 247.4523 L136.2045 247.416 L136.7383 247.221 L137.5624 247.1847 L138.1217 247.2866 L138.3791 247.5213 L138.4211 247.56 L138.6923 247.7602 L138.7032 248.1243 L138.8592 248.4082 L139.1091 248.8619 L139.5067 248.9298 L140.0398 248.6892 L140.6782 249.1042 L140.9817 249.0773 L141.3478 248.8859 L141.9701 248.7302 L141.9784 248.6751 L142.0703 248.0529 L141.8996 247.6062 L141.8396 246.7469 L141.8317 246.6362 L142.1161 246.4799 L142.2864 246.3863 L142.2864 246.3154 L142.2864 245.7031 L142.8232 245.4842 L143.1927 245.8577 L143.513 246.0631 L143.7981 246.0491 L144.2025 246.1861 L144.4801 246.3599 L144.5405 246.5952 L144.7753 246.7562 L145.3962 246.7878 L145.8223 247.7994 L145.6966 247.9943 L145.4749 248.3385 L145.742 248.8092 L146.5433 249.226 L147.2151 249.6311 L147.7816 250.3751 L147.9751 250.9862 L148.1072 251.4873 L148.432 251.8198 L148.4887 251.8778 L149.4614 251.9562 L149.6249 251.9697 L150.5939 250.8065 L150.6205 249.8488 L150.469 249.1879 L150.0672 248.4006 L149.6726 247.6261 L149.2524 246.981 L148.71 245.7236 L148.5326 244.8929 L148.8285 244.6137 L148.6102 243.0501 L148.8559 242.5256 L148.854 242.2393 L149.0319 242.1585 L149.3391 242.0192 L149.5713 241.9138 L150.0323 242.2235 L151.1524 242.4079 L151.7267 242.5894 L152.0929 243.1695 L152.0884 243.2421 L152.1484 243.8006 L152.0685 244.3216 L151.7313 244.5985 L151.5122 244.6078 L150.8767 244.6354 L150.3362 245.2407 L150.3238 245.5737 L150.5871 245.8214 L150.7589 246.1299 L151.0714 246.1913 L151.4972 246.0344 L151.7699 245.7482 L151.8775 245.3226 L152.0092 245.3893 L152.0929 245.4315 L152.5753 245.9706 L152.9091 246.2036 L152.7039 246.5671 L152.8019 247.3036 L152.7621 247.9042 L152.3888 248.842 L152.3735 248.8806 L151.9143 249.7493 L151.8048 251.0998 L152.3258 251.3334 L152.3607 251.3492 L152.8094 251.7419 L153.1526 252.2378 L152.9553 252.788 L152.0861 252.6522 L152.0531 252.6469 L151.8127 252.8624 L151.8018 253.3377 L151.7988 253.4594 L152.3026 254.0993 L152.4354 254.927 L152.51 255.3906 L152.7643 257.5424 L152.5179 258.9654 L152.8217 259.3143 L152.3802 260.0238 L151.7237 260.5927 L151.3816 260.7496 L151.2428 260.8134 L150.7601 260.9574 L150.248 260.9849 L149.8605 260.6952 L149.1185 260.6606 L149.1478 260.8433 L148.8533 261.5808 L148.4009 262.6942 L148.201 262.6825 L147.9447 262.5917 L146.4428 262.3687 L146.3145 262.3494 L145.8534 262.0509 L144.8087 261.2905 L144.7697 261.0786 L144.7183 260.7274 L144.662 259.8388 L144.5746 259.0638 L144.3068 258.7846 L144.1853 258.6581 L143.2598 258.0616 L142.8093 257.7713 L141.7983 257.5664 L140.6523 257.4312 L140.1463 258.0991 L139.8815 258.4486 L139.1818 258.1734 L138.9076 258.0657 L138.8525 258.1992 L138.7808 258.3725 L138.4245 258.3725 L138.1461 258.3268 L138.1082 258.2566 L137.9905 258.037 L138.001 257.6689 L138.0711 257.111 L138.1473 256.7551 L138.0771 256.6099 L137.9991 256.4484 L137.7688 256.1773 L137.4293 255.9122 L137.1037 255.733 L136.9063 255.8097 L136.3279 256.0351 L136.2086 255.6353 L135.793 255.1559 L135.5882 254.92 L135.3972 254.9639 L135.3072 254.9849 L135.0364 256.2768 L135.2408 257.4119 L134.3773 259.0714 L134.3281 259.1662 L134.1574 259.494 L132.753 259.3834 L132.5106 259.2722 L132.1325 259.0983 L131.2596 258.1494 L129.9069 257.9428 L128.9357 258.0558 L129.486 255.9385 L129.6762 255.4117 L129.5847 254.8374 L129.6563 254.5219 L129.3675 254.1057 L129.2782 253.415 L128.7965 253.4267 L128.6397 253.6831 L128.4702 254.0636 L127.8921 256.3506 L127.116 256.7451 L126.329 258.664 L126.3147 258.7213 L126.1212 259.4917 L124.7047 259.24 L122.6625 258.9701 L121.2115 258.6417 L120.6215 258.5083 L119.8956 258.5791 L119.4244 257.9721 L119.3757 256.3705 L119.3892 255.9051 L118.9739 255.4433 L117.8047 255.2132 L117.4603 255.2577 L117.1842 255.5229 L116.8691 255.3426 L116.4666 254.8895 L116.0802 254.7426 L115.7689 254.5834 L116.1417 253.6193 L117.2093 252.4655 L118.1145 250.7146 L118.8149 249.1856 L118.6085 248.7893 L118.1175 248.4714 L116.958 247.8843 L118.2087 245.5123 L118.2916 245.2003 L118.0226 244.8713 L117.2919 244.7688 L117.3459 244.5048 L117.4273 244.1073 L118.6678 243.9346 L119.2181 243.8035 L119.5647 243.6618 L119.7752 243.296 L120.2024 243.0419 L120.7347 243.1086 L120.9276 242.9166 L121.2708 242.6684 L122.7338 242.4325 L123.3906 242.4272 L123.7147 242.254 L123.7309 241.8764 L123.3126 241.6756 L123.2425 241.404 L122.6257 240.5762 L122.1205 239.3802 L121.1181 238.3411 L120.9493 238.0402 L120.1503 237.4501 L119.5235 237.2423 L118.523 237.4753 L115.1807 239.9346 L114.047 240.7103 L113.9266 240.7928 L113.8313 240.7957 L112.7664 240.8256 L112.5649 240.4931 L112.443 240.2917 L112.4059 239.4622 L112.5357 239.2538 L112.8268 238.8756 L112.8346 238.1029 L112.9997 236.6189 L113.3426 235.9082 L113.4937 235.3034 L113.9949 234.9902 L114.654 234.5787 L114.7376 234.2784 L114.7568 234.0553 L114.5688 233.7767 L113.7781 233.1661 L112.4479 233.7814 L111.8218 234.9481 L110.4087 236.2793 L108.8812 238.3452 L107.808 239.797 L107.0315 240.2314 L106.2595 240.1887 L106.1559 240.1828 L105.3209 239.5389 L105.2609 239.2719 L105.1041 238.9113 L104.598 238.4307 L103.8001 237.5017 L102.6298 236.7869 L100.4278 236.4801 L100.2777 236.4573 L99.3744 235.9316 L98.6797 235.2818 L98.5507 235.0394 L98.2971 234.5646 L98.1849 234.3539 L98.0139 233.2884 L98.0319 232.4753 L98.4704 230.8051 L99.0019 229.3807 L98.9063 229.0102 L98.856 228.9908 L97.9745 228.6232 L97.8619 228.5734 L97.7419 228.8123 L97.4512 228.7824 L97.4639 228.4142 L97.7089 227.9622 L97.9936 227.4377 L98.147 226.4758 L97.6215 226.285 L96.8855 226.3693 L96.5055 227.7556 L95.6877 228.6425 L93.8875 227.2006 L93.9989 226.8359 L94.2739 226.2961 L94.2892 226.2504 L94.3755 225.994 L94.3361 225.6808 L94.0173 225.1978 L93.401 224.3103 L92.6004 223.8712 L92.4849 223.808 L91.968 223.3297 L91.6874 223.0007 L91.2905 222.5347 L91.2237 221.9832 L90.948 221.499 L90.1678 220.4335 L89.6235 219.8498 L89.2299 219.4283 L88.5457 218.5472 M92.6057 160.8283 L92.6725 160.7551 L92.8912 160.7616 L93.1973 160.8845 L93.5412 160.9917 L93.7941 161.2968 L93.8215 161.3553 L93.8897 161.5011 L93.8785 161.7231 L93.7581 161.8525 L93.5979 161.8314 L92.8927 161.4426 L92.6274 161.0608 L92.6057 160.8283 M100.974 392.8004 L101.7242 392.6131 L106.6646 393.836 L107.4524 393.6546 L109.8907 392.5371 L116.4591 384.2756 L118.2297 382.7952 L118.7924 382.7835 L116.9167 384.4101 L110.0707 392.7711 L107.2423 394.2221 L102.2869 393.3269 L100.974 392.8004 M106.8994 185.3714 L107.0033 183.8807 L108.0207 183.5452 L109.3013 183.472 L110.0475 183.2161 L110.1315 182.9456 L110.2695 182.7465 L110.5164 182.3905 L110.4203 182.2008 L110.0096 181.391 L110.0576 181.0942 L110.1769 181.0426 L110.4211 180.9706 L111.8556 181.4595 L113.819 181.7113 L120.0344 180.3353 L117.643 179.3692 L117.6794 178.6771 L117.6257 178.0933 L116.4298 177.7484 L115.6364 177.3877 L115.4121 177.2197 L115.2328 176.9392 L115.103 176.5516 L114.4477 175.7828 L113.0788 174.956 L112.823 174.7821 L112.473 174.1087 L112.3987 173.313 L112.2232 171.9692 L112.2442 171.2659 L112.4445 169.6726 L112.7937 168.3376 L112.9097 167.8076 L113.0057 167.4897 L113.3403 167.403 L114.4057 167.2473 L116.563 167.5014 L117.9367 166.9486 L118.4682 166.1534 L118.4472 165.0959 L117.9712 164.5484 L117.5364 164.4588 L117.3024 164.3868 L117.1392 164.3365 L117.1778 163.8821 L116.8612 163.235 L116.7476 162.6612 L116.6782 161.6745 L116.3867 160.7791 L116.5405 160.566 L116.823 160.4483 L117.269 160.4407 L117.4325 160.5262 L118.0474 160.973 L118.7038 161.3337 L119.3813 161.2915 L119.8566 160.8242 L121.0559 160.1865 L121.4647 159.8914 L121.8924 159.7146 L122.2953 159.5799 L122.8272 159.748 L123.1701 159.8563 L123.4604 159.8733 L123.7155 159.6718 L124.5614 159.5161 L125.5881 159.7608 L126.9978 160.6193 L127.3504 160.6269 L128.1787 160.8559 L128.5947 160.8559 L128.7058 161.2956 L128.8506 161.6224 L129.0029 161.9661 L129.5509 162.4217 L130.0716 162.8538 L130.2423 162.9229 L130.7074 163.2333 L130.8976 163.6203 L131.1223 164.2141 L131.5323 165.2968 L131.2266 165.8976 L130.8635 166.1447 L129.327 167.762 L128.9879 168.2345 L129.1143 168.621 L129.4305 168.419 L131.1583 166.7267 L132.373 165.6405 L132.8321 165.23 L133.4537 164.104 L133.6777 163.9067 L133.8903 163.8405 L133.9672 163.8282 L134.1083 163.8053 L134.9906 164.7229 L135.769 165.5937 L136.0162 165.9391 L136.1388 166.3051 L135.781 166.8017 L136.0057 167.3292 L136.1929 167.468 L136.2769 167.5307 L136.6456 167.8047 L137.0887 167.9236 L137.8213 167.4534 L138.5374 166.5481 L138.6923 166.3525 L139.4095 165.8208 L139.9951 165.4326 L140.3958 165.1674 L140.6688 164.9173 L141.1197 164.5045 L141.5586 163.9377 L141.7725 163.5424 L141.8047 163.4821 L141.6776 162.1271 L141.7072 161.4186 L141.541 161.004 L141.3414 160.5063 L141.2398 159.204 L141.3658 159.0792 L142.0891 158.3648 L143.6008 157.0812 L144.273 157.2604 L144.8316 157.1896 L145.3759 157.4396 L146.3298 156.1765 L146.4476 156.0981 L146.6472 155.9645 L146.7717 155.9446 L146.891 156.0313 L146.9162 156.0495 L147.0017 156.5817 L148.4118 156.5454 L149.0701 156.4658 L149.4696 156.2802 L149.7243 155.9429 L150.1287 156.0389 L150.4078 156.4383 L150.4806 157.059 L150.1696 158.1318 L148.213 158.5493 L147.9609 159.0646 L148.064 159.5758 L148.261 159.8487 L148.1034 160.2597 L148.5911 160.8722 L149.219 160.8078 L151.0414 160.0337 L152.5768 160.4694 L154.1497 161.1153 L155.4243 162.1915 L155.4712 162.2313 L155.2912 162.53 L155.0218 162.5616 L154.3785 162.677 L153.6774 162.6559 L152.9714 163.3785 L152.3971 164.0636 L151.8742 165.2382 L151.3306 165.8642 L149.8819 166.2225 L149.6703 166.66 L149.7941 167.098 L148.4268 168.1929 L146.9124 169.5415 L146.3036 169.8448 L145.2637 168.8013 L145.1171 168.1391 L145.4569 167.3304 L145.5908 166.7583 L145.8512 166.3268 L145.227 166.318 L145.2277 165.7236 L144.9231 165.7412 L144.4977 165.8501 L144.2464 166.0393 L143.3011 166.3443 L142.9826 166.5768 L142.7572 167.0669 L142.3712 167.8153 L141.1246 169.497 L140.1013 170.6446 L139.6973 171.2208 L139.7453 172.0353 L139.883 172.4956 L140.5128 173.036 L141.9773 173.6028 L142.2616 173.782 L142.4162 173.95 L142.5084 174.1275 L142.4604 174.4243 L142.2928 174.7727 L141.4037 177.3907 L140.8005 178.8053 L140.7896 178.9353 L140.9491 179.1344 L141.2717 178.954 L141.4652 178.5693 L142.2279 176.116 L142.7647 175.288 L143.1623 174.552 L143.779 174.2873 L145.0529 174.6679 L145.9176 174.987 L146.4495 175.2851 L147.6038 175.9836 L148.0171 176.3385 L148.5401 176.3496 L149.3079 176.0978 L149.8012 175.7248 L150.5136 174.501 L150.4742 174.0537 L150.1092 173.8353 L149.7667 174.2176 L149.7112 175.209 L149.1298 175.6628 L148.7408 175.1814 L148.1807 175.1387 L147.3524 174.6486 L146.7969 174.3705 L145.9056 174.0502 L145.4374 173.6514 L145.2273 173.0401 L145.2574 172.598 L145.3613 172.0535 L146.0504 171.2437 L147.9384 169.1573 L150.2236 167.4288 L151.8986 166.5709 L152.0494 166.5142 L152.6439 166.9685 L152.854 167.3269 L152.2572 168.1233 L151.792 168.683 L151.1963 169.3998 L150.7724 169.9104 L150.0477 170.6599 L149.5672 171.4861 L149.8211 172.5289 L150.2169 173.2398 L150.9619 173.5484 L151.9946 172.4967 L152.7437 171.2665 L152.8758 171.1096 L153.2573 170.6569 L153.9306 169.7774 L155.4142 168.8546 L155.7526 168.7059 L156.5092 168.6538 L156.9762 168.9442 L157.1394 169.0455 L157.3138 169.1538 L157.0141 169.3769 L156.9023 169.5163 L156.8018 169.6024 L156.2414 170.0802 L155.4874 171.7701 L155.0376 172.7778 L154.7052 173.0606 L153.904 173.741 L153.7479 174.2077 L153.4002 174.3219 L154.3522 175.3864 L155.0151 175.5369 L155.8246 175.4057 L157.0666 175.2716 L157.749 175.0409 L158.4388 174.8102 L158.6133 174.8354 L158.82 174.898 L158.9558 174.9947 L158.9865 175.0163 L159.3196 175.4203 L158.982 176.2418 L158.5416 177.5107 L158.0273 178.5846 L158.8181 180.1274 L158.6906 180.3529 L158.6928 180.5654 L158.5214 180.8225 L158.2074 181.1504 L157.9047 181.2528 L157.4868 181.2669 L156.5696 180.5566 L155.8944 179.0255 L155.5519 178.0845 L155.164 177.1998 L154.1902 176.6318 L153.0746 175.2816 L152.381 174.6556 L152.1746 174.7364 L151.8667 174.8237 L151.4507 174.7066 L151.2012 174.7294 L150.9949 174.7481 L150.3163 175.9098 L149.6598 177.5898 L149.4464 178.7468 L153.267 184.1922 L154.8797 185.4645 L158.2044 183.0545 L160.0425 182.9913 L161.0377 185.365 L161.1634 185.687 L160.8063 186.9699 L160.6292 187.4441 L159.182 194.8139 L157.5239 196.9217 L158.2292 199.9487 L156.316 202.718 L157.0963 203.3562 L160.056 208.2976 L162.0067 208.8948 L162.952 209.5681 L162.4493 212.4193 L161.0895 215.5105 L162.4005 217.138 L161.875 218.7252 L161.0343 218.9547 L159.9622 218.6017 L156.7557 220.2532 L156.2643 220.4739 L155.8216 220.6753 L155.5399 221.1577 L155.6806 221.6811 L156.1033 221.9832 L155.17 222.9656 L153.6515 225.4765 L157.145 226.9559 L158.4955 229.7191 L155.9709 233.2141 L154.4104 230.2694 L147.8007 227.1608 L145.975 226.4354 L143.3045 225.9349 L142.4094 225.5333 L141.5991 224.8606 L141.4063 224.6493 L140.6433 224.3507 L141.9563 225.9665 L139.788 229.9943 L138.0175 228.1619 L137.7924 225.3284 L135.8305 225.0884 L133.8723 226.3529 L132.1918 224.5146 L133.1033 221.2362 L132.0155 220.5571 L132.3869 219.474 L129.3408 219.193 L128.6904 217.6901 L128.4248 217.7329 L128.1101 217.3488 L128.0077 216.2212 L126.4393 215.0767 L125.4519 214.5088 L124.3401 213.9514 L124.1075 213.6956 L123.717 213.7272 L123.7594 213.1429 L125.171 208.9568 L120.234 208.506 L116.6774 207.2443 L114.8554 204.016 L113.4712 202.2929 L111.5375 201.5763 L112.7799 199.2789 L113.4093 198.9258 L114.6472 199.2461 L117.3856 200.5049 L119.9038 200.4211 L120.4534 197.8198 L123.2597 198.2624 L123.3816 196.8134 L122.131 195.0446 L121.4141 194.6019 L118.7432 194.6722 L116.1714 193.8027 L115.0471 192.6528 L114.7163 191.8448 L113.3069 191.8436 L111.2006 190.1943 L108.284 186.5536 L107.8474 185.5447 L106.8994 185.3714 M132.2893 369.9987 L138.16 361.7775 L152.7673 349.7173 L152.8799 349.6822 L154.3204 357.0085 L162.1905 370.0461 L162.6875 369.9191 L163.1073 370.2111 L163.8526 371.1848 L164.1471 371.8571 L164.3576 372.915 L164.3538 373.3205 L164.2521 373.4615 L164.2987 373.5387 L164.1846 373.5551 L164.1407 373.616 L163.8823 373.8605 L163.7806 373.6136 L163.4036 373.668 L163.5477 374.0261 L163.4047 374.2947 L162.6909 374.7698 L161.5535 374.7517 L158.4238 374.3872 L157.6927 374.4925 L142.6127 374.2994 L135.898 376.283 L132.2893 369.9987 M135.6651 344.6742 L135.7393 344.3102 L135.8489 343.9995 L136.0177 343.594 L136.2458 343.0614 L136.5008 343.0948 L136.9761 343.4073 L136.9731 343.1568 L136.7841 343.0386 L136.631 342.7805 L136.556 342.6114 L136.721 342.2492 L136.8467 341.973 L136.9765 341.7231 L136.9862 341.5189 L137.0515 341.2953 L137.0421 341.073 L137.1048 340.8336 L137.3974 340.802 L137.7219 340.771 L138.0572 340.8395 L138.5505 340.8664 L138.9238 340.8758 L139.1721 340.5691 L139.36 340.4158 L139.4576 340.0963 L139.5712 339.9769 L139.9617 339.9781 L140.2011 340.259 L140.4955 340.4029 L140.841 340.3368 L141.1272 340.3011 L141.4003 340.2467 L141.759 340.2631 L142.0373 340.3087 L142.2485 340.4983 L142.3036 340.8412 L142.8633 340.3883 L143.5896 339.813 L144.2396 339.3297 L144.7573 339.0113 L145.1182 338.8094 L145.5196 338.6274 L145.8362 338.4484 L146.2514 338.2213 L146.6363 338.0686 L146.8678 337.9884 L147.1892 338.0059 L149.7258 340.1331 L149.9385 340.232 L150.2004 340.3069 L150.4314 340.4884 L150.6629 340.7066 L150.8895 340.9255 L151.2237 341.1865 L151.3254 341.3562 L151.3096 341.5241 L151.6802 341.9121 L151.861 342.0104 L152.1 342.1427 L152.6912 342.5798 L152.8949 342.8244 L153.1406 343.0965 L153.1661 343.4202 L153.2501 343.6782 L153.1699 343.9416 L153.0363 344.0697 L152.8836 344.2757 L152.6972 344.604 L152.7306 344.9773 L152.854 345.5807 L152.6379 345.9885 L152.1533 346.3812 L151.6045 346.7686 L148.967 348.7447 L148.043 349.2456 L146.7173 350.1901 L145.6861 350.8519 L145.0319 351.4108 L144.5971 351.7151 L144.3683 351.9445 L144.099 352.1528 L143.9155 352.2681 L143.6897 352.3523 L143.5258 352.3576 L143.3844 352.2365 L143.2163 352.0182 L143.0355 351.8181 L142.7943 351.6068 L142.6908 351.4582 L142.798 351.2335 L142.9593 351.079 L143.154 350.9356 L143.3255 350.8443 L143.4943 350.7372 L143.5948 350.6354 L143.6087 350.4897 L143.5213 350.1784 L143.402 349.9631 L142.7909 349.3691 L142.5156 349.0777 L142.2511 348.8863 L141.9743 348.6856 L141.795 348.5282 L141.8539 348.3322 L141.9769 348.2058 L142.1633 348.1754 L142.325 348.1227 L142.5141 348.0765 L142.6656 348.025 L142.8314 347.9343 L143.2114 347.7183 L143.4954 347.534 L143.8251 347.3368 L144.8245 346.6106 L143.8818 345.8358 L143.2429 345.2676 L142.8299 345.2114 L142.1783 345.5122 L141.2439 346.4854 L140.8542 346.7721 L140.3695 347.0635 L140.0112 347.2812 L139.3326 347.3912 L138.8431 347.321 L138.387 347.2935 L137.9372 347.1419 L137.4758 346.8488 L137.1119 346.5029 L136.8062 346.2536 L136.5699 346.105 L136.1246 345.4525 L135.8421 345.0821 L135.7828 344.9106 L135.6651 344.6742 M155.8306 344.6578 L155.867 344.2897 L157.0366 342.6354 L158.0318 341.5528 L158.9261 340.9981 L159.6486 340.7324 L160.0924 340.6177 L161.4545 340.6592 L162.1136 340.8342 L161.4661 341.9894 L159.3902 343.46 L158.9824 343.5682 L158.2689 343.5928 L157.0798 344.7918 L156.5591 345.521 L155.9604 345.3671 L155.8306 344.6578 M160.9293 181.6328 L161.0475 181.2552 L161.5895 181.052 L162.9482 180.3745 L163.7131 180.7382 L163.8894 180.8219 L164.2439 181.2001 L163.8643 182.0169 L164.8115 181.9537 L165.1082 181.9736 L167.7303 182.1575 L167.9854 181.7423 L168.2922 181.0461 L168.7731 179.9055 L169.3242 178.485 L169.2867 177.3772 L169.5035 176.7887 L169.9304 176.5334 L170.9226 176.9082 L171.501 176.8531 L172.0221 176.6441 L172.9693 177.0903 L174.0658 177.0798 L174.6048 177.2267 L175.0673 177.3532 L174.7763 178.1185 L174.735 178.2262 L174.7976 178.2315 L177.0514 178.4107 L177.2573 178.6988 L177.7596 178.8428 L178.2567 178.9259 L178.6843 178.8557 L179.1543 178.7784 L179.3633 178.93 L179.5159 179.0413 L179.7136 179.2538 L180.1011 179.3393 L180.6214 179.6584 L180.585 180.6246 L180.3183 181.1925 L179.1626 181.4683 L177.9502 182.1891 L176.7678 182.38 L176.1402 182.6862 L175.7737 183.027 L175.558 183.6318 L175.4155 184.1365 L174.9113 184.8948 L174.0283 185.2801 L172.9059 185.8457 L172.1946 185.9475 L171.8023 186.4464 L171.8642 186.6273 L171.994 187.0044 L171.5622 187.5038 L169.8858 189.4202 L169.5515 190.8811 L169.3201 193.4151 L168.7236 195.5856 L168.661 196.7864 L169.1389 198.4123 L169.6329 199.7929 L169.741 200.0944 L169.6858 200.1747 L169.3343 200.6823 L168.9832 201.0236 L168.3297 201.564 L167.7434 201.4926 L167.7153 201.5166 L167.2603 201.9036 L167.0509 202.0523 L165.6105 203.0787 L164.7762 202.8931 L164.6104 201.4604 L164.5793 201.3778 L164.4408 201.0107 L164.3287 200.5628 L164.3118 200.4961 L164.215 200.4106 L164.1876 200.338 L163.9247 199.8936 L163.7303 199.0804 L163.1838 198.2209 L162.7126 196.4299 L162.7535 195.2612 L161.9091 193.8396 L161.7985 193.685 L161.4072 193.137 L161.4368 193.0603 L161.8435 192.4965 L162.0262 192.0445 L162.4804 191.6124 L162.7828 191.2693 L163.0525 191.2002 L163.0878 191.2482 L163.347 191.6007 L163.4985 191.6018 L163.7303 191.603 L164.5372 191.8571 L164.7709 192.6768 L164.6539 195.0516 L164.7578 196.8912 L165.8633 198.2109 L165.8918 199.1026 L166.3686 199.7379 L166.7613 199.482 L166.8037 199.4545 L167.0063 198.4352 L166.6814 197.7039 L165.9211 196.9509 L165.7962 194.9796 L166.2065 193.2535 L166.5321 192.3542 L166.0554 190.8945 L166.079 190.0075 L166.1371 189.5754 L166.2516 189.261 L166.3465 189.1064 L166.5003 188.8552 L166.9148 188.7715 L167.1365 188.4026 L167.1894 187.8563 L167.3961 187.5542 L167.5795 187.3452 L167.7389 187.0981 L167.8109 187.0501 L168.1358 186.8328 L167.8158 186.3644 L167.668 186.1484 L167.1398 186.0406 L166.2062 186.1911 L165.8607 185.8293 L165.8239 185.2051 L165.1629 183.9837 L164.4918 183.9386 L164.1407 183.342 L163.4513 182.8642 L163.0082 182.7313 L162.2163 182.6516 L162.1777 182.6476 L161.1064 182.257 L160.9293 181.6328 M162.2602 344.089 L162.303 343.4956 L162.3867 343.1574 L162.5772 342.8432 L162.9884 341.647 L163.3432 341.2017 L163.9554 341.2415 L165.2987 341.2965 L166.7704 341.1209 L167.6114 340.7359 L168.452 340.2449 L168.6287 341.4194 L168.6392 342.4786 L168.76 342.9333 L169.0327 343.2089 L169.3681 343.4108 L169.6914 343.6039 L169.9623 343.9328 L170.1003 344.1985 L170.1498 344.7714 L170.5336 347.5322 L170.6368 348.2368 L170.4901 348.4147 L170.2796 348.5604 L169.9124 348.6891 L169.5088 348.6657 L168.6272 348.4451 L167.4928 348.1438 L165.4439 347.998 L164.6802 347.7429 L164.2214 347.5346 L163.9355 347.3093 L163.6591 346.8253 L163.1065 345.7533 L162.539 344.9978 L162.3555 344.5853 L162.2602 344.089 M164.694 373.96 L164.8925 373.2819 L165.3614 372.8512 L166.2564 372.5288 L167.4204 372.9273 L169.5977 373.4814 L170.5614 376.2086 L171.6503 378.2601 L172.6485 378.8826 L173.4078 379.7082 L174.1982 380.2629 L174.8783 380.8562 L175.6409 381.1066 L176.5746 381.7023 L178.9304 383.0457 L179.9706 383.4634 L181.9269 385.7494 L182.5109 386.7611 L181.5761 387.2046 L181.0116 387.5234 L181.2824 388.0003 L181.9779 389.7094 L182.1002 390.47 L182.1628 391.4681 L182.347 392.4136 L183.0935 393.6271 L184.1363 394.4667 L185.2328 396.0458 L185.3356 396.4846 L183.9116 396.9094 L181.5442 397.7145 L179.7361 398.1685 L177.4839 394.2391 L176.384 392.2375 L175.8394 390.862 L175.417 389.2389 L175.1034 388.7042 L174.268 387.5381 L173.365 386.1555 L172.0769 383.9894 L171.2621 382.7549 L170.31 381.6724 L169.5283 381.2459 L167.5086 379.978 L166.974 379.4789 L166.5614 378.9277 L165.0613 375.4123 L164.694 373.96 M190.9617 244.4223 L193.6859 241.531 L196.6066 243.6554 L199.9257 244.4252 L203.3776 244.7706 L204.5461 246.3371 L201.7049 246.9477 L199.6339 247.3194 L198.6248 250.1076 L190.9617 244.4223 M191.2705 79.6965 L191.4591 79.1482 L192.197 78.0798 L193.3554 76.1808 L193.9376 75.2337 L194.3806 74.5806 L194.6304 73.2867 L194.8139 72.3395 L194.9846 71.0157 L195.2693 70.2536 L195.7866 69.6608 L195.9381 69.6099 L196.3695 69.8079 L197.2972 70.9442 L198.4417 72.7683 L199.5318 74.2531 L200.9427 75.5793 L201.8171 76.6904 L202.1517 77.1831 L202.9946 78.6544 L203.3652 79.3245 L203.4564 80.3232 L203.211 81.4133 L202.7721 82.3592 L202.0451 83.3989 L201.2394 84.0784 L200.3503 84.8029 L199.5296 85.0261 L198.7024 85.3728 L197.8588 85.8186 L197.0046 86.1963 L195.8912 86.2854 L195.1072 85.6469 L194.2501 84.8855 L193.8168 83.7339 L193.5932 83.0018 L192.8655 81.8303 L191.7833 80.4081 L191.2705 79.6965 M195.9014 56.8142 L195.9205 56.4364 L196.0732 56.2243 L196.2442 56.2484 L196.8677 56.3638 L197.3148 56.8277 L198.6225 58.8399 L200.332 61.0635 L200.9382 61.6885 L201.4011 61.5872 L202.1277 61.47 L202.8881 61.5614 L204.0952 62.1167 L205.9299 63.4283 L209.4629 66.3671 L210.1996 66.8111 L211.4289 67.3359 L213.0588 68.3698 L214.4963 69.5308 L215.3519 70.3837 L215.6224 71.5722 L215.7398 72.3032 L217.2699 73.8777 L218.0588 75.1435 L218.4347 75.9934 L218.5131 76.493 L218.3555 76.9042 L217.6601 77.948 L216.7241 78.9731 L216.4889 79.3632 L216.2023 79.9642 L215.6952 80.8357 L214.9457 82.3387 L214.9389 82.6937 L215.0927 83.0545 L215.6618 83.5928 L216.6697 84.4064 L217.1341 84.7478 L217.5314 86.1987 L214.721 89.7025 L213.8852 90.8657 L213.605 90.9108 L213.4234 90.5998 L211.7305 88.8995 L209.2843 86.3814 L208.3922 85.6294 L206.3471 83.6227 L205.0867 82.098 L204.7498 80.9254 L204.3417 78.7452 L203.9793 77.3476 L203.3329 76.6588 L199.5615 72.3301 L198.7302 70.9647 L197.6577 68.593 L197.3501 67.8391 L197.5549 67.3424 L197.8681 66.9394 L198.2118 66.8609 L199.1511 66.6471 L200.1433 66.1673 L200.7705 65.3672 L201.1392 64.6145 L201.1092 63.8846 L201.0496 63.6801 L200.4974 63.225 L198.7291 61.6622 L197.2428 59.8662 L196.3954 58.2348 L195.9014 56.8142 M202.2882 86.2081 L202.3693 84.8884 L202.7819 84.1123 L203.3547 83.1699 L203.7426 82.2397 L204.0007 81.6194 L204.1849 81.4162 L204.4388 81.541 L204.6538 82.1519 L204.9824 82.8079 L206.1918 84.1264 L209.8665 87.5189 L213.0851 90.8569 L213.4515 91.151 L213.5131 91.3337 L213.0115 91.9932 L212.1236 93.2291 L210.9442 94.6406 L210.146 95.6369 L209.9168 95.699 L209.7266 95.7084 L209.5079 95.4717 L209.1931 94.7701 L208.8503 94.0895 L208.372 93.5957 L207.9935 93.1927 L207.5535 92.8372 L206.7488 92.2626 L206.3253 91.8456 L205.5233 91.223 L204.7464 90.591 L204.1867 90.0516 L203.737 89.5695 L203.1319 88.9469 L202.3164 87.451 L202.2882 86.2081 M204.1293 58.8135 L204.1901 58.2974 L204.5262 57.9389 L204.9254 57.7193 L204.9775 57.6906 L205.1493 57.5957 L205.1467 57.5933 L205.9217 56.3491 L206.43 55.5782 L206.7259 54.8688 L207.4331 53.9708 L208.4301 53.5221 L209.0202 53.5174 L211.0515 53.0997 L212.5167 53.1044 L213.6965 53.1554 L214.5897 53.4131 L215.0691 53.6521 L214.9445 53.9708 L214.4404 54.4096 L212.8761 55.867 L212.3014 56.5307 L211.8089 57.2073 L211.0639 57.3063 L210.5098 57.5265 L209.3192 57.9061 L208.9861 57.96 L207.8138 58.1486 L206.8216 57.8159 L206.5069 57.6835 L206.1861 57.7128 L205.832 57.745 L205.413 57.8282 L205.3507 57.7732 L205.2813 57.7691 L205.1245 57.8481 L205.0645 57.8786 L205.0784 58.0631 L205.8163 58.7497 L206.5256 59.1837 L209.1748 60.9264 L210.4412 61.7166 L212.8018 63.6198 L213.7989 64.6912 L214.8549 66.3179 L215.5155 67.0934 L216.2612 67.4285 L217.2546 67.6487 L218.0371 68.3739 L218.1218 68.6135 L217.2497 68.6152 L216.2241 67.9908 L214.8549 66.7824 L212.2662 63.8764 L210.9697 62.8905 L208.6098 61.4091 L206.9394 60.4467 L205.1984 59.6412 L204.3409 59.1369 L204.1293 58.8135 M208.4114 250.916 L208.4346 248.8818 L212.6645 249.1938 L212.9766 251.4247 L210.0409 253.655 L208.8968 252.9273 L208.4114 250.916 M216.5692 71.7649 L217.025 71.1703 L217.465 70.673 L217.8251 70.2642 L218.1541 69.8518 L218.4306 69.5226 L218.533 69.474 L219.0188 69.949 L219.634 70.5447 L220.1168 71.4931 L220.2897 72.0812 L220.2387 72.5474 L220.014 72.9153 L219.7446 73.1098 L219.4209 73.3429 L219.1238 73.4542 L218.7404 73.4208 L218.1871 73.2099 L217.7137 72.8128 L216.6401 71.9119 L216.5692 71.7649 M216.8145 102.3508 L216.9365 102.2383 L221.6521 99.813 L224.0612 98.3001 L226.3363 96.5518 L226.9703 96.321 L228.039 96.2127 L228.6144 96.2086 L229.5065 96.2015 L229.7304 96.2882 L230.9713 96.7685 L231.9846 97.3126 L232.2438 97.3349 L232.488 97.2634 L232.5559 97.1925 L232.8166 96.9214 L232.8901 96.7989 L234.203 94.609 L235.0118 91.6828 L235.5231 89.9286 L235.7951 88.9955 L235.9789 88.548 L236.073 88.4941 L236.6811 88.1456 L237.5199 87.9857 L238.2731 87.9605 L238.562 87.9506 L239.0676 88.08 L239.9319 88.3008 L241.0288 88.8708 L241.5739 89.2204 L241.9535 89.4635 L242.3826 90.0545 L242.5342 90.8019 L242.5169 91.264 L242.5038 91.6102 L242.0818 92.9632 L241.8597 93.3029 L241.7997 93.3942 L241.0727 94.2242 L240.6968 94.8661 L240.5678 95.8747 L240.657 96.6314 L240.5501 96.9747 L240.5096 97.1053 L238.7987 99.984 L238.1704 100.8467 L237.7123 101.1776 L236.8784 101.9548 L236.593 101.9689 L235.726 101.1442 L234.5129 100.1509 L234.1813 100.0759 L233.4952 100.3793 L231.0332 102.1575 L228.6947 104.109 L225.5508 106.9554 L224.8163 107.5558 L224.3121 107.7977 L224.1662 107.8082 L223.207 107.8797 L222.7719 107.8269 L220.3219 105.575 L216.8145 102.3508 M223.7393 70.6666 L223.8999 70.5067 L224.3151 70.4399 L224.9063 70.6396 L225.7886 71.3273 L226.244 71.8434 L226.6852 72.6025 L227.5648 73.9292 L228.425 74.9484 L228.9806 76.0906 L229.3381 77.5585 L229.8246 79.0937 L231.3513 81.6435 L232.5938 83.0182 L233.5432 83.9577 L234.2132 84.7496 L234.4724 85.7682 L234.4863 87.0515 L233.8643 87.9553 L231.6019 89.1876 L231.0831 89.9368 L229.9994 90.9471 L228.6058 91.6213 L227.0127 91.8462 L225.6536 91.9364 L225.0691 91.6769 L225.0298 91.2335 L225.2788 90.1974 L225.7913 89.4079 L226.2493 89.0769 L226.6192 87.796 L226.8919 85.9896 L227.022 85.128 L226.9579 84.5276 L226.0366 83.1658 L224.787 82.1454 L224.2889 81.2299 L224.326 79.4692 L224.538 76.6067 L224.8107 75.69 L224.9514 74.4084 L224.8816 74.1055 L224.5117 72.4976 L223.7645 70.8236 L223.7393 70.6666 M246.6767 196.6588 L246.7888 196.5399 L247.1159 196.5042 L248.1667 197.054 L248.4896 197.4972 L248.7271 198.0154 L248.8873 198.5441 L249.0036 198.9282 L249.0309 199.3731 L248.9582 199.5839 L248.7856 199.6097 L248.5999 199.4498 L247.7064 198.321 L247.6066 198.1951 L247.3324 197.6524 L247.2003 197.263 L246.7464 196.8157 L246.6767 196.6588 M249.2875 46.5751 L249.4972 44.7854 L249.6597 44.363 L250.0498 44.117 L250.4399 43.9219 L250.9066 43.8985 L251.1335 43.994 L251.3027 44.1 L251.4539 44.2763 L251.485 44.5364 L250.8019 46.7901 L250.6065 47.0132 L250.3157 47.1398 L249.8108 47.1732 L249.5359 47.0976 L249.3667 46.9892 L249.2875 46.5751 M252.9094 412.572 L253.0523 411.2685 L253.5639 409.6649 L255.2603 404.7844 L256.3973 401.5607 L256.5589 401.4127 L256.9221 401.2875 L257.6344 401.762 L258.5231 402.3605 L258.6878 402.4717 L259.7074 403.265 L260.4794 404.0654 L260.111 404.524 L259.6406 404.9833 L259.0936 405.5994 L258.5617 406.5753 L257.8689 407.7231 L257.5095 408.3152 L257.1764 409.1694 L256.6748 410.1452 L256.4216 410.422 L255.4238 411.5248 L254.3798 412.6352 L253.6859 413.0927 L253.3929 413.2185 L253.22 413.1553 L253.0935 413.1097 L252.9094 412.572 M258.5152 195.1137 L258.645 194.938 L258.7377 194.7653 L258.9822 194.5364 L259.3157 194.4462 L259.5145 194.5182 L259.845 194.7032 L261.2731 195.4087 L261.712 195.5985 L261.8324 195.8631 L261.6149 196.1301 L261.206 196.407 L260.9059 196.6283 L260.569 196.722 L258.8858 196.0821 L258.6112 195.9281 L258.5362 195.5621 L258.5152 195.1137 M261.4832 215.5503 L262.1933 215.6586 L263.4237 215.6574 L264.6245 215.5755 L265.6373 215.5497 L266.3152 215.6194 L267.75 215.3829 L268.6376 215.0164 L269.4212 214.8975 L270.4014 214.8255 L270.5848 214.959 L269.4437 215.8366 L268.8638 216.0585 L267.8183 216.6814 L266.7822 217.525 L265.9063 218.1374 L264.7802 218.7902 L263.5456 219.4599 L262.7642 219.9201 L262.1505 220.2503 L261.8681 220.2444 L261.7199 219.7972 L261.6753 219.3071 L261.544 218.6514 L261.571 217.9103 L261.5211 217.1211 L261.523 216.4349 L261.4832 215.5503 M264.1458 399.8804 L264.3075 399.6189 L266.3868 398.8132 L269.3124 397.6197 L270.5537 397.2288 L270.6392 397.2019 L271.6262 397.1054 L272.771 396.8901 L274.6362 396.4893 L276.4683 395.6567 L276.8682 395.2852 L277.0711 395.2782 L277.1908 395.387 L277.5861 395.7843 L277.9084 396.68 L278.1942 397.3505 L278.1867 397.9409 L278.3165 398.4323 L278.4422 398.8986 L278.8102 399.761 L279.1819 400.6492 L279.2183 401.5139 L279.1695 402.1136 L278.9355 403.0959 L278.7078 403.7471 L278.0918 404.2046 L277.5614 404.2385 L277.0486 404.0654 L276.7856 403.6979 L276.3314 403.4124 L275.9116 403.6593 L275.5912 403.6757 L275.0934 403.2065 L274.8665 402.866 L274.3935 402.0627 L273.6023 401.7187 L272.3764 401.3981 L271.2964 401.305 L269.7817 401.2348 L268.7002 400.9376 L267.6424 400.5895 L266.8373 400.4526 L264.9227 400.5251 L264.2171 400.3245 L264.1623 400.0822 L264.1616 400.0729 L264.1458 399.8804 M274.2667 71.7819 L274.8237 70.5541 L275.0608 70.5746 L275.6644 69.9045 L275.8294 70.5541 L276.4068 69.6567 L276.6855 69.7393 L277.6859 70.6262 L278.6042 70.3579 L279.2434 69.7493 L279.6459 69.6257 L279.6354 69.2028 L279.9967 67.934 L286.6086 64.7984 L287.4339 65.2108 L286.9181 66.9335 L284.3159 69.3428 L284.2363 70.3479 L284.03 69.8629 L283.8338 70.3479 L283.0498 70.3479 L281.9567 72.1116 L281.2241 73.7312 L282.0906 75.2788 L282.7509 76.667 L278.0625 73.8964 L276.1543 73.3083 L274.2667 71.7819 M277.806 257.5512 L277.8191 257.2006 L277.9834 256.6942 L278.058 256.4665 L278.3 256.1756 L278.6335 256.0058 L279.2412 255.9256 L280.2908 255.9959 L282.043 256.5192 L282.7145 256.9424 L283.3567 257.5184 L283.8631 258.3092 L284.0492 258.805 L284.4344 259.8312 L284.4066 260.2737 L284.2108 260.5951 L282.8615 261.2595 L281.9023 261.5914 L280.9795 261.911 L279.9018 262.2224 L279.2247 260.8995 L278.9482 260.3972 L277.9294 257.8099 L277.806 257.5512 M306.0588 359.2719 L306.0686 358.9407 L306.189 358.8113 L306.9696 358.5328 L307.2206 358.5041 L307.3421 358.5784 L307.5608 358.9676 L307.5518 360.084 L307.3132 360.3573 L307.0416 360.3234 L306.6268 359.9816 L306.1721 359.4895 L306.0588 359.2719 M309.1498 282.2965 L309.1566 281.7943 L309.3723 281.3061 L309.3254 280.9637 L309.4732 280.3515 L309.7257 280.1437 L310.0242 280.3287 L310.33 280.4124 L310.7302 280.4756 L311.3334 280.3784 L311.9738 280.3152 L314.0456 280.475 L315.9883 280.7191 L317.4127 281.096 L318.3089 281.4478 L319.0239 281.7644 L319.3806 282.6869 L319.6556 282.77 L319.7362 283.0276 L320.2486 284.1958 L321.3744 286.3269 L322.4247 287.8839 L323.6499 288.355 L323.7058 288.7039 L324.118 289.0989 L324.36 289.3752 L324.2662 289.7352 L323.8926 290.3679 L322.3178 292.8361 L321.6152 293.9312 L321.2937 294.1939 L320.8282 294.5744 L319.1972 295.3751 L318.8573 295.6794 L318.0099 296.2027 L317.9694 296.2278 L316.1009 296.3209 L314.0752 296.4813 L311.9771 296.6984 L311.111 296.4403 L310.4264 295.8152 L309.7545 295.2791 L309.7103 295.2434 L309.579 295.0046 L309.259 294.4316 L309.4968 294.2817 L310.5674 294.1571 L312.8302 294.0482 L313.3092 293.8545 L313.5298 293.6379 L313.6896 293.34 L313.7342 292.9227 L313.741 292.5019 L313.4956 292.1595 L312.0788 292.177 L311.5581 292.2759 L311.2074 292.2812 L311.0071 292.17 L311.1061 291.8838 L311.2018 291.4835 L312.2142 290.3456 L312.4742 289.8142 L312.9153 288.9116 L313.7158 287.2886 L313.9837 285.7896 L313.7819 284.293 L313.6419 283.5543 L313.31 283.1276 L312.6689 282.8075 L312.0 282.5798 L311.3616 282.1437 L310.4579 281.2125 L310.0606 281.3465 L309.7403 281.7721 L309.37 282.5312 L309.1498 282.2965 M309.759 279.3494 L310.0366 278.633 L311.2618 277.6853 L313.0879 277.0842 L315.5611 276.668 L316.2776 277.8703 L318.8899 277.2463 L317.8726 275.4664 L320.1841 270.9587 L323.166 267.0984 L323.4203 267.9536 L321.6869 270.45 L321.7791 272.161 L321.8253 274.634 L323.8134 277.3617 L325.3158 279.3494 L324.7381 283.9032 L323.3509 284.1344 L321.8718 282.8403 L319.7914 281.4068 L317.6648 280.4592 L312.9258 279.7428 L311.1924 279.8815 L309.759 279.3494 M319.5093 40.6859 L319.5742 40.4246 L319.9302 40.3566 L320.1582 40.352 L320.8323 40.5423 L322.6554 40.8435 L323.0456 40.8148 L323.379 41.1346 L323.6626 41.2137 L324.1409 41.5218 L324.387 41.7198 L324.3607 42.9184 L324.7681 44.6688 L324.5453 44.8973 L323.8682 44.7573 L323.7838 44.4427 L323.3644 44.3906 L322.0849 43.912 L321.9389 44.4111 L322.4105 44.5441 L324.7839 45.11 L325.0375 45.5768 L325.6305 45.4023 L327.2766 45.6014 L328.675 46.0894 L329.1361 46.5018 L329.2572 47.0484 L328.9684 47.2874 L328.417 46.9459 L327.8682 46.8305 L326.7567 46.7262 L324.4425 46.0912 L321.9731 45.1187 L321.61 45.1767 L321.4051 45.5077 L321.4633 45.6442 L321.7034 45.7877 L322.6693 46.0139 L323.4679 46.3495 L324.9508 46.8334 L325.8361 47.3835 L326.6813 47.6852 L328.3569 48.8738 L328.4916 49.1069 L328.4518 49.3512 L328.2722 49.6406 L328.0205 49.7601 L327.7511 49.7695 L327.3996 49.4074 L326.6606 48.9488 L325.6395 48.9886 L325.3755 49.9475 L324.9246 49.9522 L324.8405 49.3547 L323.759 48.8041 L323.4578 48.6148 L323.181 48.3653 L322.8921 48.2534 L321.9198 48.172 L321.6992 47.9921 L321.4284 47.9224 L321.2911 47.7016 L321.404 47.4175 L321.4524 47.0132 L321.3024 46.3583 L320.8263 45.0766 L320.7873 43.9852 L320.5379 43.414 L319.9883 43.2201 L319.8521 42.3016 L319.5599 41.4351 L319.5093 40.6859 M321.5844 106.4441 L321.9183 106.1331 L322.4739 105.9955 L322.6554 105.9504 L323.2744 105.6259 L323.9522 105.2136 L324.8627 104.5875 L325.1826 104.1705 L325.3361 103.5304 L325.1785 103.1063 L325.5278 103.0753 L325.8417 103.3336 L325.8354 103.6938 L328.9204 104.2625 L335.2611 105.0801 L337.9136 105.4895 L338.9534 105.698 L339.5837 105.5486 L340.0814 105.0362 L341.3119 104.1828 L341.789 103.8074 L342.3438 103.5526 L343.2359 103.2762 L343.5573 102.7432 L344.2521 102.2852 L344.9772 102.0117 L345.4949 101.816 L346.0497 101.7651 L346.4473 101.932 L346.9455 102.0058 L347.2613 102.3016 L347.0205 102.7719 L346.8277 102.964 L344.9359 103.7178 L342.9455 104.4557 L342.7838 104.642 L342.866 104.7574 L343.2775 104.8692 L343.8623 104.7006 L344.3185 104.526 L344.5754 104.57 L344.8553 104.4235 L345.1978 104.1711 L345.7113 103.8911 L347.2996 103.1133 L347.767 103.0969 L348.0611 103.087 L348.8023 103.5655 L349.2964 103.9866 L349.9183 104.5178 L349.8152 104.7521 L349.2341 104.7175 L348.297 105.028 L346.8236 105.7923 L343.587 106.3692 L342.9624 106.5871 L342.157 106.8682 L340.9394 107.6542 L339.4227 109.1348 L339.1328 109.3778 L338.5217 109.8903 L337.9339 110.2095 L337.7054 110.2487 L337.573 110.2716 L337.0583 110.1784 L336.7241 110.0033 L335.8002 109.5196 L333.3615 108.1813 L331.6742 107.6173 L328.7898 107.6061 L326.5121 107.5236 L324.2482 107.5282 L322.212 107.3713 L321.9018 107.2284 L321.8767 107.1891 L321.6036 106.7622 L321.5844 106.4441 M322.3775 50.7829 L322.529 50.5867 L323.0155 50.6675 L323.3153 50.7794 L324.0708 50.845 L324.3292 51.3294 L324.3221 51.5128 L324.4624 51.709 L324.8143 51.8713 L325.1549 51.9621 L325.6358 52.2491 L326.2086 52.8865 L327.2635 53.5912 L327.7136 54.1389 L327.4795 54.942 L327.107 55.5899 L326.5083 56.1189 L325.617 56.041 L325.2303 56.0445 L324.6563 55.7598 L323.9684 55.5952 L323.9586 55.0662 L323.9042 54.9379 L324.5416 54.6948 L323.6889 53.3838 L323.3655 52.5555 L322.9319 52.4132 L322.6791 51.9357 L322.3775 50.7829 M325.3143 102.9054 L325.7119 102.1253 L325.8999 100.8719 L326.6584 97.6465 L326.649 96.2144 L327.1502 94.5358 L327.1243 93.7468 L326.975 92.9503 L326.6873 91.4684 L327.2499 89.0834 L327.3062 88.9287 L328.0865 86.7791 L328.2099 86.1249 L328.3494 85.193 L328.1821 84.1451 L328.89 84.0174 L328.9294 84.5212 L329.0442 85.4121 L329.4275 86.177 L330.0172 86.201 L330.1264 85.7342 L331.0968 85.702 L332.0939 86.0927 L333.142 86.1173 L334.9681 85.9339 L335.6133 85.8437 L335.8305 86.4289 L335.748 86.9812 L335.4655 87.6542 L335.4168 87.7708 L335.3155 87.8551 L334.8173 88.2686 L334.5461 88.8825 L334.3593 89.3059 L334.4782 89.4336 L334.6354 89.6029 L335.4997 89.3516 L335.7844 89.1595 L336.3201 89.1613 L336.7342 88.9241 L336.9075 88.6277 L336.9529 88.5498 L337.4034 88.5328 L337.3247 89.0582 L337.3475 89.6439 L337.6833 90.1962 L338.0063 90.6677 L338.8732 91.6324 L338.9587 91.7273 L337.7759 92.5789 L337.5167 93.3649 L337.0156 93.2185 L336.6948 93.1248 L336.098 94.9997 L335.8189 95.9339 L335.5398 96.7386 L335.0529 97.1357 L334.6305 97.315 L333.6634 97.4567 L333.0355 97.6541 L332.8727 98.4038 L332.7369 98.6187 L332.202 99.5301 L332.217 100.1837 L332.4473 101.1934 L332.8164 102.4708 L333.6826 102.7315 L333.8034 102.7842 L334.3766 103.0331 L334.8335 103.4829 L333.7989 103.9046 L333.7002 103.945 L333.5532 104.4218 L332.8149 104.4288 L331.5901 104.2953 L329.6935 104.0217 L326.3061 103.4349 L325.6294 103.0296 L325.5506 103.029 L325.3143 102.9054 M342.9395 353.7772 L342.9481 352.6859 L343.3818 350.8157 L343.8706 349.7676 L344.1782 349.341 L344.3766 349.3088 L344.3946 349.3217 L344.6133 349.3182 L344.8328 349.6125 L345.3321 350.6787 L345.4356 350.9526 L345.5635 351.2662 L345.7308 351.6045 L345.9769 351.7086 L346.1337 351.7753 L346.8052 351.7619 L347.3532 351.5635 L347.4721 351.6232 L347.4856 351.9035 L347.2313 352.3687 L346.7894 352.6437 L344.5833 353.9785 L343.6958 354.2541 L343.1826 354.2278 L342.9395 353.7772 M346.8742 349.612 L347.3483 348.317 L347.6038 347.2742 L347.2212 345.8551 L347.2647 345.583 L347.8761 345.078 L348.2655 344.8673 L348.5848 344.8305 L349.565 345.4098 L350.825 346.2846 L352.0254 347.067 L352.4564 347.4029 L352.7768 347.62 L352.9261 347.74 L352.9741 347.874 L352.7471 348.1028 L351.6094 348.5844 L350.5504 348.9472 L349.2765 349.3428 L348.2576 350.0737 L347.6027 350.2931 L347.2467 350.2755 L346.9102 350.0309 L346.8952 349.8144 L346.8742 349.612 M375.4947 446.1503 L377.5267 440.6147 L385.1646 432.9413 L384.7794 430.3486 L381.4858 428.1062 L385.3398 425.3736 L391.6813 424.6377 L397.1119 428.562 L394.7933 431.704 L395.7806 433.2566 L398.4084 436.1646 L397.4976 441.6653 L394.9749 453.2974 L380.2595 455.4348 L377.8069 454.489 L375.4947 446.1503 M386.3121 403.1375 L386.6891 402.3962 L387.2844 401.5157 L387.8396 400.8627 L388.2072 400.4608 L388.3288 400.3783 L389.5382 400.5251 L390.3732 400.7527 L390.9633 401.1131 L391.5387 401.3823 L392.1074 401.903 L392.2717 402.0498 L392.8445 403.0883 L392.8708 403.351 L392.7166 403.6582 L392.3981 404.118 L391.7533 404.7867 L390.6748 405.6825 L390.2851 405.7919 L389.9805 405.7468 L389.3285 405.4116 L388.5962 405.5134 L388.2433 405.4601 L387.924 405.3232 L386.3121 403.1375 M390.0517 275.6982 L390.0551 275.4968 L390.111 275.2398 L390.2055 275.1087 L392.5932 273.6817 L392.7939 273.687 L392.9844 273.7783 L393.3986 274.2916 L393.6675 274.8248 L393.7283 275.258 L393.7171 275.3827 L393.6736 275.4874 L393.5021 275.6794 L393.3738 275.7871 L393.262 275.9182 L393.1049 276.1629 L392.6648 276.5709 L391.9555 276.8706 L391.4603 276.9332 L390.808 276.8524 L390.4051 276.647 L390.2104 276.2612 L390.129 276.0125 L390.0611 275.783 L390.0517 275.6982 M397.035 273.2848 L397.163 272.8072 L397.4027 272.4379 L397.8052 272.1054 L398.01 272.0094 L398.3052 272.0884 L398.6049 272.2921 L399.0048 272.8271 L399.2081 273.3141 L399.3916 273.7736 L399.5097 274.4163 L399.4358 275.2316 L399.2385 275.3739 L398.6586 275.4828 L398.0726 275.3563 L397.6866 275.1029 L397.385 274.7886 L397.1434 274.2606 L397.0399 273.7098 L397.035 273.2848 M406.5546 221.4305 L406.5988 221.1138 L406.8584 221.0026 L407.2673 220.7866 L408.0933 220.8668 L408.4227 220.6993 L408.8541 220.3516 L408.7119 217.8142 L408.8833 217.6767 L409.0364 217.549 L410.0252 217.2838 L411.1487 217.0596 L411.6806 217.0098 L412.2156 217.1287 L412.6158 217.6058 L414.0199 218.5297 L415.7275 219.9031 L416.2425 220.3844 L417.1391 220.7731 L417.755 221.0125 L418.3181 221.4557 L421.013 224.3566 L421.2969 224.7084 L421.5055 225.0316 L423.1639 227.0074 L423.3485 227.7123 L423.8339 228.3791 L422.4812 229.9679 L421.612 229.2625 L420.3756 227.7445 L419.3992 226.0889 L418.8583 225.531 L418.4426 225.2242 L418.057 224.8062 L416.3539 224.3987 L415.8288 224.2248 L413.7963 223.6499 L411.4192 223.3356 L408.8578 223.0698 L407.749 222.9252 L407.2388 222.8415 L406.8003 222.7027 L406.6311 222.2941 L406.7234 221.8128 L406.5546 221.4305 M417.7531 238.9699 L417.8042 238.011 L417.9392 237.6527 L419.1947 237.778 L420.75 237.3857 L421.7186 237.3582 L422.9681 237.8986 L423.7653 237.8675 L424.2544 237.6141 L425.7894 236.5773 L426.9452 235.876 L427.4794 235.8063 L427.9194 235.8485 L428.2784 235.6611 L428.2191 235.3772 L428.0375 235.1419 L427.6872 234.8251 L427.5784 234.0776 L427.1162 232.809 L426.4909 232.5204 L425.7767 232.2733 L424.7661 231.6516 L424.8059 231.5813 L424.4247 231.442 L422.7731 230.239 L422.5217 230.0142 L423.8564 228.4247 L424.0316 228.6501 L424.7218 229.3901 L427.9576 231.5568 L428.3703 232.1884 L428.703 232.47 L428.9296 233.1672 L429.364 233.3768 L430.037 234.1355 L430.4425 235.2496 L430.3521 236.1974 L430.0827 237.0082 L428.6479 239.5681 L428.2941 240.6593 L427.5364 243.3703 L426.9399 245.3958 L426.2617 248.4416 L426.1492 248.7776 L425.8896 249.0193 L425.5336 249.1265 L425.3156 249.1616 L422.5619 248.6728 L421.1413 248.2981 L420.6153 247.9668 L420.2387 247.2064 L420.1153 246.4319 L419.7994 243.7292 L419.538 242.8148 L419.2566 242.4173 L418.865 242.1609 L418.332 241.5854 L417.9433 240.9491 L417.7618 240.0751 L417.7531 238.9699 M426.3896 249.0837 L426.4043 248.6693 L427.2903 245.2225 L428.6437 240.3567 L428.921 239.5623 L429.31 238.8124 L430.1341 237.5965 L430.6514 236.2079 L431.2415 236.6089 L431.6601 237.5011 L432.1076 237.3389 L431.752 236.2764 L431.6147 236.0598 L431.2842 236.0053 L430.9298 236.0978 L430.6503 235.9872 L430.6769 235.1108 L432.2322 235.1225 L432.8616 235.0699 L434.0523 235.0593 L434.469 235.506 L433.4266 236.438 L433.6989 236.8003 L434.4844 238.0771 L434.5568 238.7638 L434.1963 239.0981 L434.19 239.5055 L434.8588 240.3251 L434.9072 241.0955 L434.7129 242.443 L434.7646 242.8985 L434.8907 243.6566 L434.6735 243.9557 L433.7582 244.0429 L433.9911 243.4488 L433.9011 243.1479 L433.3118 242.9559 L433.1764 241.8898 L432.9896 241.4028 L432.6201 241.4514 L432.5518 241.7558 L432.407 242.1451 L432.3687 242.6526 L432.452 243.5477 L432.6081 243.9288 L433.0057 244.2677 L432.7712 244.7641 L432.4272 244.9608 L429.2016 247.2942 L426.8889 249.0035 L426.3896 249.0837" stroke-dasharray="" fill="none" fill-opacity="1.0" stroke="#ff0000" stroke-opacity="1.0" stroke-width="1.0px" stroke-linecap="butt" stroke-linejoin="miter" stroke-dashoffset="0.0px"/>
</g>
</svg>