<?xml version="1.0" standalone="no"?>
<!DOCTYPE svg PUBLIC "-//W3C//DTD SVG 1.1//EN" "http://www.w3.org/Graphics/SVG/1.1/DTD/svg11.dtd">
<svg width="512px" height="512px" version="1.1" xmlns="http://www.w3.org/2000/svg" xmlns:inkscape="http://www.inkscape.org/namespaces/inkscape">
<g id="layer" inkscape:groupmode="layer" inkscape:label="layer">
<path d="M0.0 294.1478 L4.0772 297.6672 L4.7223 298.764 L6.9117 297.415 L9.0439 296.792 L10.8812 296.6934 L11.3362 296.9999 L11.9192 297.0935 L12.6865 297.3101 L14.4798 298.0573 L19.1936 300.7178 L20.7969 301.5954 L21.3609 301.7777 L23.4217 301.7459 L24.2467 301.7746 L25.0273 301.8888 L25.6624 302.063 L27.6194 302.4906 L28.3206 302.4425 L29.7794 302.2159 L31.1112 301.9662 L32.9243 301.4506 L33.69 301.342 L34.5832 301.2559 L35.2957 301.234 L36.3152 301.2415 L37.3391 301.3745 L38.0612 301.5305 L38.977 301.9082 L39.9425 302.5043 L40.7877 303.611 L41.4376 305.2889 L41.551 305.5511 L41.8165 306.003 L42.1654 306.2683 L43.1409 306.9231 L43.5633 307.3526 L44.0402 307.7084 L44.1737 307.7633 L44.3226 307.8245 L44.8205 307.9019 L45.7665 307.9587 L47.0083 307.8888 L48.2311 307.8488 L50.6502 308.1915 L53.3605 308.8975 L54.6789 308.7751 L55.8343 308.4643 L56.5823 308.2127 L57.0261 308.2558 L57.9455 308.4905 L58.6439 308.586 L60.9786 308.4456 L62.0267 308.6384 L63.3589 309.0704 L64.146 308.9955 L64.8427 308.993 L65.4358 309.1091 L65.8247 309.4081 L66.605 310.194 L66.943 310.2657 L67.102 310.0891 L69.2196 308.5498 L69.4383 308.4431 L69.7066 308.312 L70.0979 308.1803 L70.3763 308.1578 L70.7616 308.2283 L70.9649 308.3501 L71.05 308.4006 L71.209 308.7333 L71.2296 309.0361 L71.1215 309.2901 L70.6672 309.7845 L69.7292 310.4936 L69.1494 310.8662 L68.7908 311.1471 L69.0119 311.4411 L69.2334 311.7869 L71.5729 314.514 L73.1806 316.4771 L75.6682 319.2872 L76.2625 320.0369 L76.394 320.294 L76.373 320.8945 L76.212 321.1254 L75.8239 321.2915 L74.7145 321.3358 L74.2683 321.3214 L72.6533 321.1092 L71.533 320.8957 L70.8838 320.6654 L70.3061 320.2653 L69.6788 319.741 L69.2253 319.5918 L67.5651 319.7772 L66.799 319.7966 L65.5592 319.6505 L64.7516 319.53 L63.956 319.525 L61.6588 319.5993 L59.9531 319.6917 L58.2154 319.482 L56.7429 319.2448 L55.1461 319.1012 L54.0511 319.1368 L52.8788 319.2885 L52.1223 319.4857 L51.2581 319.8465 L48.1488 320.8583 L47.2992 321.1011 L42.9747 321.9843 L39.2425 322.8295 L36.0384 323.5092 L33.4794 323.8113 L32.1404 323.9143 L31.6018 323.8918 L30.8599 323.8219 L30.0857 323.6353 L28.5062 323.1565 L26.9989 322.6104 L25.6043 322.0024 L24.3367 321.749 L23.4265 321.6866 L21.8712 321.6235 L20.69 321.5305 L19.7262 321.5237 L17.6589 321.4057 L15.5756 320.9507 L14.0102 320.8883 L11.333 320.6361 L9.6402 320.505 L9.6402 320.5044 L9.2416 320.4114 L8.8551 320.2035 L8.5291 319.9395 L8.2193 319.9245 L6.6559 323.1234 L5.707 323.5641 L8.1273 324.2326 L13.462 324.7469 L18.9427 324.8849 L20.5968 324.7731 L22.0927 325.2107 L23.0896 325.8043 L24.2709 326.9652 L24.6207 327.2948 L24.8397 327.0233 L25.0439 326.9846 L25.8875 327.3522 L26.1707 327.5813 L26.5386 327.7623 L29.334 327.8603 L30.1958 327.6999 L30.3055 327.5644 L29.0149 327.3347 L28.2141 327.0532 L27.8603 326.7973 L27.3786 326.2843 L27.0587 325.8161 L26.6806 325.3336 L26.6391 324.9398 L26.7863 324.6452 L28.5538 324.8356 L30.9099 324.9629 L33.9095 324.8181 L36.0328 324.5366 L42.2659 323.1228 L44.1072 322.6403 L46.1478 322.2377 L47.4505 321.9512 L48.2186 321.6672 L48.687 321.636 L48.8992 321.6766 L49.0134 321.8014 L49.0477 322.1254 L48.8879 322.3857 L48.5531 322.5966 L47.9975 322.8376 L47.5844 323.0604 L46.6634 323.3444 L44.6591 324.134 L44.0717 324.4841 L43.6836 324.7538 L43.5831 324.9198 L43.5807 325.1121 L45.7451 324.5035 L50.0861 323.4599 L52.8525 322.7421 L53.8841 322.6129 L54.7535 322.7421 L56.1345 323.0117 L56.9583 322.9318 L57.8076 322.7677 L60.9846 321.9444 L61.5019 321.7259 L62.9829 321.3595 L63.8039 321.5149 L65.0194 321.9388 L65.4564 321.8807 L66.634 321.5337 L68.1122 321.1542 L68.9917 321.1161 L71.5031 321.4444 L74.1557 321.8526 L74.938 322.068 L74.8916 322.1928 L74.5087 322.4755 L74.3219 322.6815 L73.5804 323.1721 L78.1554 321.626 L78.2865 321.588 L79.0002 321.6304 L79.4565 321.7403 L80.0068 322.0112 L83.0088 322.6347 L83.837 322.6116 L84.5495 322.6435 L86.292 322.7795 L86.2932 323.2196 L86.2819 323.3144 L87.5172 323.571 L87.8755 323.4412 L88.0247 323.4137 L88.2971 323.4867 L88.4726 323.7108 L89.649 326.3223 L91.5 330.1497 L92.0793 331.6908 L92.636 332.8055 L93.9307 334.9426 L94.7932 336.5729 L95.0288 336.9643 L95.206 337.3125 L95.4634 337.9342 L95.3024 338.1289 L95.4375 338.3942 L92.0095 339.4334 L89.2322 340.3746 L88.0526 340.872 L83.8326 344.3478 L88.92 344.6268 L89.4925 344.7485 L90.0657 344.7947 L91.4774 345.2148 L92.1346 345.5736 L92.4452 345.827 L93.4752 346.3925 L95.1511 345.8863 L98.7949 349.0681 L98.8381 349.0482 L99.181 349.0962 L99.3231 349.1836 L99.9286 349.2635 L99.8499 349.882 L99.8717 350.146 L99.8314 351.0422 L99.5385 352.6924 L99.4756 352.8328 L99.1407 354.5878 L98.4496 355.7711 L97.9409 357.2752 L97.5951 358.4236 L97.0065 359.3498 L96.7346 359.7061 L96.2678 360.5062 L96.1686 360.578 L95.9063 361.1172 L95.6247 361.2252 L95.1705 361.2901 L94.6508 361.3119 L93.3138 360.2953 L91.1304 358.3774 L90.7484 358.1509 L89.3307 359.8778 L88.4439 361.3375 L87.5987 362.816 L87.2756 363.457 L87.0545 363.8951 L86.2121 365.9876 L85.189 368.8166 L84.9247 369.832 L85.1857 370.1715 L86.3755 371.3654 L87.048 372.0837 L87.6213 372.875 L87.9178 373.8704 L87.2275 376.1782 L85.0482 380.7376 L83.5897 383.6014 L82.6404 385.9029 L82.475 386.0702 L82.3149 386.2312 L81.2796 386.4989 L80.7794 386.394 L80.2932 386.2143 L79.6861 386.2393 L79.5396 386.3797 L79.5279 388.9214 L79.655 389.6509 L79.7684 390.0846 L80.0713 389.9679 L80.332 388.9551 L80.4106 388.781 L80.5357 388.5033 L80.5555 388.4596 L80.589 388.4459 L80.7411 388.3841 L81.0957 388.3467 L81.5217 388.5214 L81.928 388.8509 L82.2616 389.289 L82.6312 390.074 L82.8414 390.9939 L82.6505 392.3848 L82.5097 393.8732 L82.3314 397.3665 L82.3399 398.1172 L82.448 399.3527 L82.3863 399.6747 L83.7693 402.3399 L84.2893 403.6154 L84.581 408.7459 L88.1361 410.3646 L90.0557 411.2295 L90.4434 412.5274 L90.5624 412.7071 L90.8141 413.3978 L90.9957 414.1572 L91.0316 414.4967 L91.7945 417.0513 L92.795 418.9232 L93.3033 418.2993 L93.8936 417.928 L95.8414 417.6466 L103.5676 414.833 L108.7643 413.2462 L108.8587 413.2007 L109.1879 413.0933 L110.0319 412.7489 L112.5482 415.3366 L112.077 416.2888 L114.8034 415.0127 L119.6882 412.0949 L121.8273 411.0073 L128.4098 410.1075 L130.0373 410.2361 L133.0929 411.2788 L135.8629 411.7786 L137.908 411.9215 L139.1756 411.7474 L141.9415 410.8831 L145.3845 410.3677 L148.0012 409.9266 L150.2262 409.0873 L154.1044 408.8077 L156.8567 408.5974 L158.6766 406.3342 L158.8009 404.3199 L156.5904 399.7084 L155.6331 398.2295 L154.7507 398.8011 L152.7122 396.7505 L150.9221 394.0778 L149.3846 393.2354 L147.9241 390.4435 L147.4989 386.9863 L145.6173 379.922 L145.8129 379.0152 L144.125 377.392 L143.7788 376.2019 L143.4911 375.0168 L146.4322 369.3128 L151.2654 365.069 L152.7953 364.1385 L153.1293 363.7553 L154.0516 362.7886 L154.3965 362.3798 L154.7661 362.0415 L155.0719 361.7969 L159.5613 353.2734 L161.0569 353.8289 L161.2425 360.8876 L157.0588 372.2772 L151.4308 379.0109 L151.3098 384.6586 L152.8993 390.7118 L156.5061 396.3156 L157.785 393.2329 L156.9822 388.821 L159.9273 389.8069 L161.5975 393.988 L159.6045 395.1674 L160.1895 400.041 L162.5242 398.675 L162.3709 397.2242 L162.4092 397.2136 L170.0947 400.5795 L169.7304 398.6707 L169.6614 398.3281 L169.3024 395.12 L168.7303 391.2659 L168.1792 389.0231 L167.9432 387.9591 L168.1461 387.8874 L169.1688 387.7694 L171.7682 388.0939 L172.5501 388.1083 L173.2004 387.9772 L173.6942 387.9136 L174.2429 387.7944 L174.7169 387.5772 L176.1217 387.2895 L176.4005 387.3158 L176.5175 388.1638 L176.8338 388.444 L176.7575 388.7904 L176.7922 389.3851 L177.2078 392.6163 L177.4345 393.9805 L177.5571 394.2919 L178.13 394.2819 L179.96 393.9693 L181.974 393.1967 L181.9344 393.0756 L182.049 392.5914 L182.1475 391.6928 L182.3577 391.3677 L182.6663 391.4138 L183.5167 391.7976 L184.1671 391.9886 L185.3145 392.4123 L185.682 393.1761 L185.5787 393.7964 L185.5702 394.1983 L185.6598 394.705 L185.9773 394.8491 L186.3174 396.3799 L186.4727 396.8335 L187.065 399.0894 L187.3308 400.7031 L188.024 403.0107 L188.2483 403.9124 L188.3282 404.4565 L188.166 404.4522 L188.1845 404.5308 L188.3282 404.5071 L188.4673 405.2915 L188.6287 406.8883 L188.8526 409.7793 L188.8986 410.3733 L188.6997 410.3359 L188.6723 410.4364 L191.1918 410.5861 L196.1367 407.546 L199.0463 406.9888 L199.5208 401.1393 L206.0 401.6073 L209.6188 398.4872 L211.9285 400.5964 L212.6079 401.0095 L213.1098 401.3964 L212.8399 401.4344 L213.5241 402.0628 L215.86 401.807 L215.86 399.8788 L221.5647 396.2095 L222.3998 397.7009 L223.2349 399.1923 L225.1355 397.6023 L232.1412 397.8307 L238.9138 398.7998 L242.1344 398.5602 L246.3197 398.1939 L246.3173 398.9533 L246.3806 399.2342 L246.4867 399.5505 L246.4879 399.9905 L246.4258 400.2001 L246.3193 400.3499 L246.3197 400.5527 L247.9819 400.2532 L248.7 400.0785 L253.3944 398.8173 L258.9409 397.9899 L258.7621 397.8938 L258.5939 397.6061 L258.6395 396.9908 L259.2781 395.4513 L260.0116 393.7639 L260.6801 393.1686 L261.4583 392.7593 L261.8569 392.6806 L263.1459 392.5408 L264.0173 392.8042 L264.5725 392.7855 L265.5553 392.0722 L266.5021 391.4469 L266.9628 391.2797 L267.0375 391.3333 L272.0187 385.0704 L272.7449 391.2422 L275.456 393.963 L273.9593 394.1565 L274.5644 396.0036 L275.1656 398.0129 L274.1408 399.6229 L275.1736 399.9911 L281.318 399.6604 L281.8667 399.525 L281.4015 399.5424 L280.4736 399.4376 L279.7539 399.2822 L279.3234 398.8254 L279.277 398.3849 L279.4747 397.9636 L279.9794 398.0566 L281.3031 398.0691 L281.6307 398.0285 L281.6569 397.5805 L282.1128 397.4251 L282.5352 397.6398 L282.8539 397.7303 L283.3671 397.7945 L284.0808 397.251 L284.4753 397.1761 L284.4773 397.1693 L285.0902 397.2741 L285.4363 397.2285 L287.6924 394.3374 L289.0406 389.5118 L297.7194 386.5251 L299.9702 386.1575 L302.1992 386.0489 L307.239 384.1905 L311.2411 385.6446 L311.6768 379.1419 L314.9003 379.897 L314.521 378.2557 L318.2609 377.5817 L319.5903 380.9024 L320.2099 381.587 L320.6521 381.7804 L320.7445 381.8104 L322.0682 381.8378 L322.2521 381.7998 L322.8791 381.7679 L323.5827 382.1449 L324.0898 382.6897 L325.1222 383.7181 L325.1452 383.9378 L325.1081 384.6186 L325.1 384.6492 L325.547 385.164 L324.5868 379.1669 L325.3937 378.4991 L326.3688 382.0113 L326.4661 381.9027 L326.6549 381.8946 L331.2234 378.5615 L334.4279 378.7874 L334.6276 378.6657 L335.0246 378.5341 L335.4164 378.496 L335.6927 378.7906 L335.9719 379.5738 L336.0566 380.2758 L336.055 380.795 L335.9505 381.1089 L334.7059 383.1271 L332.953 386.4383 L335.2251 392.9315 L337.1512 397.5412 L339.0558 397.2161 L340.1112 400.0473 L341.3211 402.9658 L341.9807 403.6971 L342.0166 403.7489 L344.4078 405.3514 L350.039 401.6142 L350.645 400.7961 L350.9653 400.4678 L353.7341 397.3615 L356.7934 394.637 L357.5853 394.0154 L357.9279 394.8142 L358.3829 396.4092 L359.4 398.5377 L359.4678 398.617 L360.2666 399.3933 L360.7713 400.0473 L360.1569 404.0771 L361.1957 404.9857 L362.8187 403.9037 L365.3943 403.6659 L365.4593 402.6051 L366.3682 401.9561 L367.2558 402.7349 L366.866 400.4629 L365.6973 399.7271 L365.6368 398.4997 L365.9555 398.748 L366.2395 398.7187 L366.4626 398.808 L367.0819 399.188 L367.8363 399.4076 L368.4907 399.6941 L368.9837 400.1558 L369.352 400.4497 L369.8737 400.919 L370.3901 401.4968 L371.4511 402.4965 L372.1697 403.6615 L373.451 404.4809 L369.3726 385.189 L369.9737 378.262 L375.872 369.2878 L377.518 368.8073 L373.3828 375.6596 L372.9471 380.4961 L372.9995 389.0643 L373.4231 391.8663 L374.819 391.211 L374.0081 383.2232 L375.4726 375.5535 L376.2512 373.544 L377.8489 371.6843 L379.4425 369.8245 L387.1078 359.4958 L388.4795 352.9926 L388.2689 352.6144 L387.4273 351.6701 L387.1723 351.1159 L387.0509 350.5473 L387.0198 350.2483 L386.5506 349.3596 L389.8318 345.5874 L390.2296 344.741 L397.8962 343.8392 L404.0389 344.5307 L404.2237 343.7924 L403.9707 343.7212 L401.0502 343.3461 L397.4209 342.7008 L395.0927 342.551 L394.3338 342.408 L393.4361 342.3618 L393.2663 340.4401 L403.4939 340.736 L404.8563 340.7335 L405.9129 340.774 L406.2832 340.8283 L396.992 338.0821 L395.7817 337.8387 L390.767 337.5391 L382.5933 341.5399 L377.9739 341.7708 L379.2609 339.3616 L378.4823 338.3692 L383.8601 335.985 L384.2595 333.2094 L384.084 333.1401 L382.093 332.8436 L381.7929 331.8768 L381.4637 331.7345 L383.1178 326.3604 L386.3211 326.5601 L388.5158 315.843 L389.1129 312.8968 L388.1487 310.943 L388.5093 310.5897 L389.9399 308.9256 L389.9843 309.1453 L402.9295 310.6615 L403.1106 310.3631 L403.5891 309.3969 L403.6665 309.0829 L403.8324 309.0754 L403.8295 308.9936 L403.7908 308.9143 L403.4023 308.5748 L400.6593 307.3039 L400.6706 306.0342 L400.6198 305.8151 L400.6726 305.8314 L400.6754 305.4937 L400.8223 305.5224 L400.9853 305.4843 L401.1479 305.5829 L404.0066 306.1135 L404.1519 306.0636 L404.7413 306.2521 L405.3719 306.5542 L406.6855 307.0998 L410.1906 308.7964 L411.1564 309.0604 L412.7181 309.9774 L416.1877 311.5547 L419.512 310.1752 L419.7557 310.3238 L420.0276 310.1715 L420.3467 310.5822 L420.3976 310.7139 L422.8162 312.1852 L424.5752 310.2002 L429.9853 310.0878 L430.2193 306.8982 L431.7201 305.8245 L428.5716 300.8333 L428.0036 300.1554 L427.3194 299.048 L426.6751 298.3526 L426.289 297.9356 L418.9432 291.6421 L419.5043 290.8767 L419.5249 290.7088 L419.8392 290.421 L420.7062 289.2387 L423.2922 289.5633 L426.0211 291.6764 L427.5388 292.6159 L426.7053 291.0053 L424.1354 289.1076 L411.6078 287.4571 L411.1693 287.4453 L406.8864 287.1231 L400.6379 286.3022 L396.2304 285.4308 L392.8689 284.9876 L394.7852 283.5892 L408.7039 284.8752 L408.7039 284.4907 L408.653 284.4819 L408.6075 284.1542 L408.5845 283.558 L408.6676 283.0074 L408.7039 282.9781 L408.7039 282.1659 L411.2738 279.5565 L411.7297 274.5748 L413.3289 274.7396 L415.7927 274.9825 L415.8956 274.3114 L416.0441 274.0648 L416.0973 274.0729 L416.2401 273.0953 L416.6557 269.3059 L417.7183 267.4267 L418.3848 266.1432 L418.7523 265.0931 L419.0146 264.2079 L419.015 263.6772 L418.7366 263.3888 L417.3698 262.3824 L419.0037 259.1173 L420.0688 258.1478 L420.8409 257.4061 L420.9176 257.3786 L421.2105 257.1133 L423.151 254.36 L422.4031 249.9461 L421.8318 246.5747 L423.026 240.3188 L417.0244 233.7343 L416.5306 233.1824 L421.6305 232.6929 L421.57 232.5443 L417.6401 230.8598 L415.7576 232.4556 L414.8858 234.1121 L413.648 235.4613 L412.4672 236.4946 L411.7845 236.8031 L410.5117 236.903 L410.128 237.2282 L408.672 236.8555 L406.4608 236.7144 L404.9592 236.3423 L404.3298 236.0301 L404.0942 235.3945 L404.3044 235.2278 L404.5081 235.0224 L404.7776 234.5547 L404.9241 233.5789 L404.9156 233.1293 L404.8619 232.3501 L405.2537 231.2119 L405.2892 231.1501 L405.6095 229.0179 L410.8252 225.4508 L410.8562 225.3515 L411.5074 224.9051 L412.0452 224.6166 L414.1995 223.1431 L416.2006 221.5041 L417.9334 220.4695 L418.4736 220.2347 L420.2382 219.034 L423.0502 219.034 L423.1058 219.1895 L423.3269 219.2413 L423.7292 219.4811 L423.7832 220.0511 L423.6521 220.713 L424.0467 221.8125 L422.8363 225.5276 L424.091 227.2322 L433.4629 231.378 L433.7615 232.4032 L433.8406 232.4675 L433.8744 232.7915 L434.104 233.6482 L434.3138 233.6613 L434.499 233.7069 L436.9769 233.7069 L437.0326 235.638 L437.4606 235.9196 L438.6459 236.5489 L439.0723 236.7163 L439.2402 236.8199 L439.9946 237.0722 L440.862 234.3062 L451.2356 232.9495 L453.2674 232.1222 L453.1508 230.8972 L458.1211 228.1999 L459.7881 221.5784 L460.0504 221.2874 L460.2113 220.9952 L460.4929 220.6468 L460.5204 220.4052 L460.4026 220.2047 L460.2343 220.0287 L459.8277 219.8008 L458.6702 218.9572 L458.1837 218.2348 L457.9061 215.8477 L457.405 212.9568 L457.0157 210.978 L459.4444 210.609 L462.2616 209.4863 L465.0611 208.8506 L467.7669 208.2568 L471.2264 207.6393 L474.3797 208.2219 L475.8055 207.5793 L478.1156 206.6152 L482.4537 206.0732 L479.9331 203.9458 L479.6216 203.683 L478.5896 203.3951 L475.5977 202.5596 L475.3036 202.4778 L474.6972 202.7651 L473.8431 203.1104 L471.6065 202.5165 L468.7219 201.7504 L469.8039 197.7415 L469.9713 197.581 L470.3615 195.7739 L471.0352 191.9404 L471.0352 190.0858 L467.6532 190.1208 L465.9692 190.1676 L462.9987 190.1708 L460.8262 190.1439 L460.2803 190.0315 L459.3391 189.9666 L457.7141 189.7624 L456.8273 189.4576 L455.3898 189.4114 L452.1305 190.0708 L451.2889 190.3444 L450.3077 190.0877 L449.891 189.8766 L449.7417 189.6412 L449.4916 189.5238 L452.1018 180.9375 L452.642 181.0686 L452.7856 180.9113 L453.0398 180.9188 L456.1019 181.8854 L457.5648 182.1283 L458.1808 182.0921 L458.6254 181.7618 L459.2669 180.0795 L459.4166 179.894 L459.6869 179.7803 L460.1972 179.8116 L461.6064 180.0576 L463.9912 180.1569 L464.4188 175.6294 L468.9172 175.6732 L470.6241 176.046 L470.8787 176.0416 L472.2088 176.1627 L472.4255 176.1028 L472.5299 176.036 L472.9394 174.7489 L473.3711 172.9004 L466.3085 172.5919 L465.2632 172.6332 L462.7409 172.5258 L462.6792 172.4333 L462.3613 172.4196 L462.2475 170.5748 L462.2011 170.1602 L462.2217 170.1546 L462.0587 167.5111 L461.7561 164.1762 L461.8977 164.1712 L461.8792 163.9664 L466.6107 163.7859 L468.847 163.9264 L469.3412 163.909 L471.3503 163.6798 L472.517 163.7972 L472.891 163.7841 L473.0641 163.7422 L473.1444 163.6685 L473.5067 162.0286 L474.057 159.859 L474.6597 157.6695 L474.7989 157.6545 L475.2011 157.7257 L475.3766 157.8206 L477.3995 158.9285 L479.81 160.2918 L481.2075 160.7527 L481.354 160.7833 L481.5924 160.8795 L484.2458 161.7544 L484.7013 161.835 L485.768 161.7575 L486.1815 161.9405 L486.618 162.2065 L486.8968 162.4464 L487.1106 162.7143 L489.8879 163.6454 L490.3664 165.8518 L485.0942 167.0183 L486.0226 168.9655 L486.0577 168.8188 L486.4462 168.534 L488.2346 168.6058 L489.9767 168.5752 L490.6536 168.589 L491.6118 168.9231 L492.4453 169.1704 L493.4596 169.5251 L494.2797 169.1854 L494.8236 169.111 L495.3452 169.1635 L495.9318 169.5313 L496.3934 169.748 L496.5192 170.1464 L497.3378 170.5973 L499.1372 170.6286 L502.0056 170.8471 L502.9254 170.9483 L503.5467 171.1819 L504.2394 171.6177 L505.9008 172.5951 L506.7944 173.4437 L507.9753 174.7764 L508.7249 175.5308 L510.1143 176.4369 L510.2979 176.5568 L510.5355 176.7604 L512.0 177.1076 L506.788 171.2605 L494.9466 166.5681 L491.546 164.0513 L480.4555 154.9896 L477.4701 151.917 L470.7326 150.3931 L465.5041 149.7124 L461.4858 151.4923 L459.4375 154.3151 L456.2794 157.429 L452.172 160.1332 L449.0655 162.3914 L444.2763 166.4619 L439.9522 172.2822 L437.7164 175.8162 L433.1902 180.0208 L430.3407 182.2614 L426.6037 188.8513 L421.7091 192.4731 L416.6492 196.1323 L411.8527 199.5873 L406.9364 201.8777 L401.59 203.2815 L396.5176 203.5749 L392.8072 204.1563 L389.15 205.0273 L384.5597 206.8488 L379.7547 208.7638 L375.2261 209.4345 L371.9865 208.6858 L366.532 206.5384 L361.7896 202.9137 L358.0186 202.5646 L357.3025 205.6961 L353.7559 205.7105 L352.2926 205.9321 L351.7811 205.7773 L351.7036 205.7267 L349.5004 205.7435 L349.3507 206.062 L348.6992 206.1813 L347.8451 206.0907 L347.0423 206.057 L346.1587 205.7698 L344.3178 205.7841 L331.5684 202.2761 L331.2097 202.3261 L330.4254 202.2443 L329.5362 201.9483 L328.5583 201.4481 L324.5868 200.3554 L317.8236 200.5727 L316.7613 199.2027 L310.0731 200.8237 L309.639 199.9095 L308.7712 197.2682 L315.1222 196.4146 L310.8578 191.1599 L320.2922 197.6322 L321.6772 197.7147 L321.4469 195.0096 L322.9392 193.4628 L325.8222 193.3186 L325.0399 191.2798 L320.0635 190.769 L315.5143 187.9283 L315.6123 187.553 L315.6297 187.0204 L315.7302 186.4228 L316.1929 185.6553 L316.5261 184.5663 L316.6794 184.0036 L314.7268 172.507 L317.3124 172.507 L317.3217 172.4621 L317.5363 172.1454 L318.173 172.0312 L318.3456 170.0403 L322.7149 160.7977 L326.7678 160.6977 L327.066 160.644 L329.5608 160.5953 L329.6427 160.5809 L328.4034 155.2145 L325.9464 150.493 L326.059 150.074 L326.0392 149.6018 L326.1683 149.2196 L326.3495 148.9948 L326.3983 148.813 L326.5887 148.793 L327.1713 148.7031 L327.8438 148.5326 L327.9237 148.4502 L326.3095 146.3898 L324.5626 144.1664 L322.7694 145.0489 L322.4995 145.6604 L322.0799 146.96 L321.3985 149.2852 L321.1665 150.3013 L320.6465 151.6209 L320.2333 152.2461 L319.5564 153.2204 L319.1537 153.4795 L318.3009 153.5339 L316.4765 149.9153 L315.6971 149.8273 L315.6374 149.8623 L315.5296 149.9247 L314.9136 150.2894 L314.4157 151.0951 L313.7731 152.3704 L312.6253 154.6474 L311.6643 156.4879 L311.2705 156.8363 L310.8473 156.9962 L308.4666 155.4949 L307.3895 154.9328 L306.9743 154.3495 L306.117 153.9704 L305.6401 154.0029 L305.5155 154.0116 L304.8663 154.5712 L304.8022 154.6262 L303.6948 156.411 L302.8798 157.8325 L302.5583 158.0854 L302.2686 158.2659 L301.9071 158.234 L301.5993 158.1472 L300.8985 157.8281 L298.9326 160.1363 L297.6057 161.3978 L296.8827 161.9112 L295.9257 162.2097 L294.8227 162.0548 L294.7203 162.0292 L294.2212 161.9043 L293.1828 161.3984 L292.0063 161.0699 L291.7041 160.9201 L290.6459 160.5066 L288.8631 160.0957 L287.8731 159.9271 L286.5877 160.2868 L286.3727 160.3474 L285.6856 160.1419 L285.4178 159.9177 L283.4901 158.3171 L283.0185 158.0448 L282.9023 157.8799 L282.6155 157.6151 L281.9175 157.5826 L281.2006 157.7057 L280.4813 157.8056 L279.8075 157.7787 L279.0563 157.434 L278.3418 156.9338 L278.0651 156.2075 L278.0247 155.666 L278.5658 154.6455 L278.6372 154.3077 L278.8284 153.7681 L280.8468 149.53 L281.2692 148.3165 L281.1768 147.5521 L279.8277 146.7227 L278.0546 145.8146 L277.6927 145.6947 L277.3014 145.8415 L276.9 145.9427 L276.1693 145.9377 L274.6149 145.2151 L274.042 144.5099 L273.9831 143.9491 L274.0706 143.5182 L274.6258 142.3378 L270.1831 140.1943 L255.3365 136.7467 L244.3565 134.1417 L236.4354 132.3123 L234.7692 131.9876 L225.1875 132.9869 L200.3688 141.6676 L187.2578 141.5996 L180.1113 140.8563 L165.1276 132.125 L155.6468 124.4676 L104.0598 98.0396 L98.1043 104.1054 L96.4542 109.015 L96.8322 110.296 L97.0061 109.985 L97.2292 110.0175 L97.1832 111.3947 L97.4543 112.0949 L97.7751 113.1849 L98.4214 114.3185 L99.1068 115.6521 L101.195 117.6496 L101.665 117.9269 L103.0787 116.9475 L106.8266 121.7819 L116.4406 119.6208 L116.2671 121.1448 L104.0348 125.1984 L113.0275 138.7891 L110.3406 139.4511 L108.989 142.5301 L100.2598 132.5116 L98.467 128.8553 L97.3256 127.5556 L95.8369 126.3289 L91.9881 127.5406 L88.8812 129.1995 L84.7787 132.4497 L82.7211 130.5011 L90.1888 122.3877 L92.6514 115.4928 L92.5521 114.5753 L92.7321 114.3585 L93.0802 114.2792 L94.6105 103.7244 L91.9599 98.871 L95.3278 94.6877 L88.333 93.4628 L81.9776 93.0768 L73.1306 94.5828 L52.3434 101.1397 L48.3522 102.4889 L41.0241 103.68 L36.2938 103.3921 L19.3986 99.7224 L22.3013 101.2334 L25.5567 102.6775 L21.8148 106.8425 L27.2172 107.5003 L28.484 109.0424 L23.3063 111.0806 L8.6179 112.2592 L8.089 112.3504 L3.8448 115.5734 L4.3523 115.4841 L4.3789 115.4566 L5.2132 115.1474 L5.9431 115.1768 L7.2506 114.9756 L8.5666 114.5865 L9.6067 114.4079 L10.6859 114.3922 L11.5073 114.3804 L13.3918 114.6771 L15.7523 115.8238 L17.8009 117.2792 L19.8516 117.1724 L20.1845 117.1836 L22.6769 118.1155 L25.0996 118.9112 L26.5798 119.6664 L27.8385 120.2704 L31.1342 119.9906 L31.4565 119.9756 L31.5118 120.0174 L31.8128 120.246 L32.2739 120.597 L32.4793 120.7532 L33.3632 122.1841 L34.6344 123.9798 L35.7278 125.264 L35.8875 125.7611 L35.7322 126.2945 L35.3082 126.6699 L33.7045 127.3207 L31.0063 126.931 L29.8145 127.1252 L29.167 127.2845 L27.7623 128.3769 L27.0437 130.4186 L25.2646 133.2398 L24.1793 134.903 L23.8069 135.5863 L23.3196 136.8354 L23.2328 136.9435 L22.9718 140.1256 L33.9893 135.2828 L36.6916 133.8869 L37.6094 133.2467 L39.1759 131.7927 L39.537 131.0882 L39.7609 131.0594 L39.8477 130.9302 L40.3044 130.458 L40.7268 130.2437 L41.1601 130.1713 L41.3073 130.4074 L41.3702 130.8533 L47.7712 130.0326 L47.5074 138.4025 L44.394 139.8695 L42.8755 136.6718 L42.4297 139.9133 L42.4107 140.045 L42.4297 140.2105 L42.0783 142.67 L41.1108 158.2765 L41.3904 162.2109 L41.3638 162.5332 L41.338 162.555 L40.6687 163.024 L34.9503 166.6393 L33.9571 167.5117 L32.2009 169.4745 L30.0187 171.9131 L25.4445 177.2418 L23.1723 180.8013 L24.1353 181.6213 L25.1012 183.0057 L27.1571 184.5944 L27.2128 184.447 L27.3552 184.0704 L27.7905 183.5047 L30.0514 181.5132 L31.1346 180.8956 L32.008 180.21 L33.3333 178.8486 L34.045 177.8582 L34.5985 176.5462 L35.3836 175.1861 L36.1578 174.4148 L36.4943 174.1363 L36.8259 174.0782 L37.1293 174.1756 L37.3766 174.5447 L37.4242 174.6671 L38.6454 175.9604 L39.4075 173.6448 L39.4547 173.4313 L40.2172 171.1144 L41.2779 168.3698 L41.5744 167.4505 L42.0892 165.0762 L42.0166 162.9616 L41.9919 162.6699 L42.2292 162.5713 L42.3288 162.58 L42.4285 162.5894 L42.7052 162.7417 L42.8012 162.8148 L42.9461 163.0652 L42.9804 163.3887 L42.9667 163.7915 L43.1119 164.5903 L43.1551 165.266 L43.2745 165.5939 L44.1471 166.9184 L45.2844 169.4052 L45.451 170.1814 L45.5664 171.3292 L45.4845 171.7789 L45.259 172.4127 L44.8322 173.9652 L44.7805 174.0813 L44.3952 176.2021 L45.8537 179.8428 L46.7287 182.1377 L48.2602 184.9597 L48.3768 185.0558 L49.4318 186.5639 L50.0599 187.8184 L50.2717 188.6658 L50.4698 189.4576 L50.6025 192.8934 L50.3774 196.2429 L50.6356 198.6825 L52.5036 203.9165 L52.9074 207.1129 L53.3814 211.3651 L53.4956 212.0863 L54.4542 214.2824 L55.2832 215.9951 L56.2031 217.6135 L56.872 219.1458 L57.112 220.1361 L57.5514 221.6814 L57.8189 223.3104 L59.1663 229.1353 L61.0924 233.3859 L61.3897 235.3983 L64.7395 240.9862 L64.8774 241.7055 L64.589 242.9722 L64.8379 244.8215 L64.9408 245.2523 L65.9865 248.7911 L66.1644 249.2406 L66.2987 249.7625 L66.2955 249.8356 L66.0906 250.7215 L63.3839 252.5483 L62.9829 252.6194 L61.4631 252.1012 L56.9055 250.0353 L56.3116 250.0135 L51.3759 254.5717 L50.0692 256.8648 L48.2267 261.3604 L48.2594 264.2491 L48.9363 266.75 L49.038 267.0509 L49.0215 267.0647 L44.2133 269.844 L41.7713 272.2213 L40.9906 274.6528 L40.6207 275.1766 L40.5864 275.2403 L39.2865 277.1799 L38.8141 278.0632 L37.5642 279.8262 L38.1137 281.3937 L38.5212 282.5992 L38.7156 283.912 L38.7773 284.5724 L39.0787 287.0095 L39.8993 289.034 L40.0401 289.381 L40.1777 290.4217 L40.1365 290.5053 L39.8598 291.0671 L36.8642 292.0441 L30.0417 292.4735 L27.0768 292.1077 L24.4444 289.8961 L20.4596 289.019 L18.0902 288.3411 L15.8636 286.8734 L12.8564 285.1056 L12.0604 284.0855 L11.4149 282.606 L8.4682 282.9437 L7.5294 283.2197 L5.8797 284.1785 L5.0724 284.4089 L5.7325 287.7355 L0.209 289.2518 L0.0 294.1478 M7.1969 289.0109 L7.7226 288.8754 L8.4896 288.941 L8.9914 289.1438 L9.2186 289.2356 L10.652 289.9728 L17.0207 292.8013 L19.5418 293.8587 L20.55 294.237 L22.9315 295.1459 L23.9421 295.6029 L24.5872 295.895 L24.8648 295.9749 L26.2102 296.3613 L27.2765 296.5255 L28.4792 296.5898 L30.0324 296.3963 L31.4727 296.1266 L32.6858 295.9974 L33.673 295.9662 L34.9201 295.9967 L35.2937 296.0698 L36.0182 296.4275 L36.7981 296.6154 L37.4133 296.6853 L37.8567 296.6715 L38.2819 296.7564 L38.3477 296.7889 L38.7334 296.9793 L39.2219 297.4462 L39.4995 297.4156 L40.6582 296.9868 L42.911 295.8738 L43.7001 295.2988 L44.1524 294.7876 L44.4481 294.3893 L44.8309 293.7557 L45.2134 292.795 L45.5067 292.1933 L45.2872 291.6302 L44.6764 291.3905 L44.4404 291.1277 L44.2956 290.7706 L44.1475 290.064 L43.903 288.3404 L43.7344 287.5876 L43.6682 287.2929 L43.7239 287.0726 L43.8232 286.8928 L43.9878 286.6943 L44.1536 286.5582 L44.724 286.2604 L45.1037 286.5476 L45.2049 286.7168 L45.4728 287.1631 L45.8254 288.0864 L46.0397 291.9355 L46.0994 292.2832 L46.0973 292.9555 L46.0187 293.81 L45.6491 294.5722 L44.3254 296.3157 L43.7505 296.7327 L42.4958 297.3744 L41.6886 297.7259 L40.9511 297.9905 L39.8489 298.1585 L36.7033 298.7477 L35.8367 298.8058 L34.4343 298.6759 L32.919 298.6766 L32.3812 298.5417 L32.1589 298.5149 L32.0165 298.6335 L31.9415 298.6959 L31.7034 299.156 L31.043 299.1922 L29.7076 298.9675 L27.8091 298.5773 L27.0857 298.3463 L26.7488 298.239 L24.5904 297.3114 L24.3758 297.2496 L23.4729 297.3345 L22.2666 297.209 L21.613 296.9911 L20.6012 296.5798 L18.6691 295.7009 L16.3768 294.5853 L13.9784 293.3057 L10.9413 291.5753 L10.6351 291.2862 L9.9448 290.3493 L9.6648 290.0971 L8.6481 289.6407 L7.8134 289.3061 L7.1969 289.0109 M49.7206 297.1978 L50.1862 295.6409 L50.4275 295.0454 L50.747 293.9748 L51.2109 292.6202 L51.6281 291.6034 L51.668 290.1551 L51.8318 289.3305 L52.1348 288.7905 L52.5342 288.4715 L53.3153 288.0327 L54.1524 287.4865 L55.2167 286.8535 L56.7715 285.8528 L58.9243 284.8165 L60.607 284.0674 L63.8434 282.5261 L65.4128 281.601 L66.7946 280.8918 L68.3284 280.2825 L69.9212 279.8025 L71.447 279.5384 L72.053 279.519 L72.4157 279.6501 L72.8187 279.8948 L74.6108 281.5673 L76.4259 283.5075 L76.8584 284.0943 L76.5909 284.3764 L76.0914 284.7622 L74.6169 285.61 L69.8551 288.062 L69.2426 288.6575 L68.4043 289.2437 L61.7851 292.9673 L59.6162 294.2258 L56.2931 295.9056 L54.9613 296.2002 L54.1706 296.2727 L51.9932 296.2277 L51.2589 296.1778 L50.9882 296.0922 L49.9232 297.3569 L49.7206 297.1978 M54.359 300.0736 L54.4183 299.6216 L54.4804 299.4119 L54.6579 299.1216 L54.9843 298.7196 L55.3833 298.3158 L56.711 297.3001 L58.0888 296.2283 L59.0526 295.4936 L60.2932 294.3456 L61.0302 293.6515 L61.8331 293.154 L63.9164 291.9392 L68.6572 289.2955 L71.7484 287.7081 L72.8905 287.1181 L73.8241 286.5276 L75.2563 285.698 L76.0402 285.2872 L76.5312 285.1393 L76.8995 285.0038 L77.3869 284.9295 L77.7588 284.9857 L78.7352 285.5556 L79.8704 286.8048 L82.6808 290.225 L84.6746 292.8468 L85.1478 293.5978 L85.3423 293.9904 L85.4072 294.2926 L85.3762 294.5329 L85.0211 294.6896 L80.5748 296.164 L76.6901 298.327 L74.5035 299.503 L72.8062 300.3177 L71.3583 301.1547 L70.3912 301.7484 L69.6582 302.2409 L67.7713 303.719 L67.0729 304.3251 L66.473 304.4956 L65.8308 304.425 L64.0738 303.8545 L62.8074 303.5318 L61.1726 303.136 L58.9553 302.6604 L57.8209 302.3639 L57.0491 302.0904 L56.3132 301.7846 L55.625 301.4007 L54.9702 300.9569 L54.6841 300.6997 L54.4925 300.4319 L54.359 300.0736 M99.2242 205.5006 L99.6002 205.1166 L100.8323 204.6564 L101.734 204.3192 L103.9767 202.6864 L104.5218 202.228 L105.507 201.4001 L107.0356 201.0585 L107.625 200.9267 L108.4287 200.6495 L108.9301 200.4378 L109.4647 200.4378 L110.044 200.7488 L111.2802 202.2212 L112.7556 204.1925 L113.251 205.2577 L113.232 205.8809 L112.9581 206.3224 L110.4301 209.4139 L109.2565 210.7751 L108.3226 212.0595 L107.6048 212.9374 L107.385 213.362 L107.3293 213.6892 L107.3511 213.7166 L107.8037 214.2886 L109.8605 217.0222 L112.1629 219.2713 L113.5201 220.5969 L114.9301 221.6246 L116.5652 222.6161 L117.3104 222.904 L118.6365 223.6776 L119.1388 223.8736 L119.8 224.2995 L120.0913 224.6073 L120.251 225.0531 L120.2974 225.7593 L120.3999 226.5166 L120.4407 227.116 L120.6121 227.6736 L121.0555 228.1406 L121.8567 228.6464 L123.9268 229.3051 L125.0169 229.7559 L127.73 231.1688 L128.4134 231.3387 L128.994 231.5597 L129.4954 232.0423 L129.6431 232.2696 L129.6471 232.6248 L129.677 232.9096 L129.5402 233.3191 L129.2445 233.7712 L128.6571 234.3437 L126.8384 236.2031 L126.1521 237.3025 L125.7895 238.1042 L125.3158 238.7236 L124.841 239.0289 L124.3605 239.2786 L123.2837 240.5548 L122.7136 241.3889 L122.641 241.7123 L122.7733 242.218 L122.8669 242.3604 L122.5313 242.4865 L121.0761 241.2859 L118.1124 239.0258 L115.0148 236.6632 L111.333 233.6781 L106.9331 230.3971 L104.7461 228.9867 L102.8834 228.0332 L101.9692 227.1591 L101.6392 226.5391 L101.4108 226.0839 L101.3528 225.6438 L101.4137 225.2591 L101.6743 224.7971 L101.9059 224.4587 L101.9652 224.3719 L102.2274 223.9885 L102.5869 223.9223 L102.9201 224.0659 L103.6394 224.9607 L104.0731 225.2816 L105.1584 226.177 L105.6123 226.6871 L106.5083 227.3371 L109.2065 228.7894 L112.2718 230.8772 L119.9331 236.1125 L120.7126 236.8087 L120.7348 236.75 L120.7227 236.6376 L120.2708 236.0594 L117.264 234.0815 L112.5446 230.5045 L112.2525 230.2835 L109.967 228.7425 L109.472 227.8921 L109.4687 227.3277 L109.7269 226.4704 L110.1102 225.9947 L110.4636 225.7711 L110.9082 225.7693 L114.308 228.0932 L117.8167 230.4658 L118.444 230.7998 L118.1963 230.2791 L110.8178 224.8583 L109.7939 223.7987 L109.1303 223.2199 L108.5558 222.6317 L107.6642 222.0773 L107.1046 221.5778 L105.5195 220.3446 L105.2516 220.1317 L105.2125 219.5485 L105.5679 218.2748 L105.7204 217.8008 L105.9629 217.2726 L105.983 217.2901 L107.1147 218.2629 L108.5469 219.2963 L110.3482 220.8466 L113.299 223.5671 L113.8577 224.0048 L114.6319 224.5661 L116.3994 225.6313 L117.4855 226.1595 L118.7515 226.9512 L119.1614 226.9412 L117.4108 225.665 L115.0878 224.405 L113.6104 222.8909 L113.1977 222.6068 L108.7425 218.7505 L106.4216 216.552 L105.9685 215.9401 L104.4972 213.3127 L104.053 212.2537 L103.0391 210.5434 L100.8307 207.9721 L99.4409 206.1363 L99.2412 205.836 L99.2242 205.5006 M101.1793 165.6676 L101.3479 165.3959 L102.8519 164.496 L103.1783 164.2299 L103.3256 164.0226 L103.3179 163.7915 L102.9213 162.8629 L102.7107 162.0948 L102.6772 161.6183 L102.9318 161.3085 L104.667 159.8821 L106.3538 158.6862 L106.5583 158.5969 L106.7132 158.5694 L106.8807 158.6081 L107.1849 158.8748 L107.4164 159.1496 L107.5855 159.5774 L107.7997 159.8378 L107.8893 159.9464 L108.3157 160.2512 L108.962 160.5497 L109.6769 160.8801 L109.9287 160.9475 L110.7973 161.1811 L111.1257 161.3753 L111.2342 161.5196 L111.283 161.5845 L111.2451 161.9724 L110.7948 162.6131 L110.3805 163.2726 L109.8911 163.4943 L109.7866 163.5673 L109.7003 163.7122 L109.7124 163.9308 L109.7725 164.2349 L108.2237 166.6299 L108.0999 167.0046 L108.1334 167.4249 L108.325 168.0138 L108.6877 169.4208 L108.9656 170.4025 L109.2614 171.1219 L109.3973 171.7682 L109.4074 172.3428 L109.382 173.1696 L109.3001 173.8334 L109.1444 174.4373 L108.9289 174.9569 L108.4291 175.6088 L107.8743 176.0066 L107.2522 176.5131 L107.1352 176.5256 L107.0098 176.5612 L106.9182 176.6561 L106.9521 176.816 L106.3292 177.5822 L105.9834 178.093 L105.6861 178.582 L105.4352 178.7106 L105.1209 178.4558 L104.897 177.8307 L104.6513 176.9421 L104.3213 175.5764 L103.9912 174.6915 L103.7496 173.791 L103.5103 172.6475 L103.0153 171.5316 L102.5526 170.3494 L101.9277 168.5921 L101.2337 166.0741 L101.1793 165.6676 M102.1911 387.0012 L102.3497 385.8386 L103.1343 382.0825 L103.9077 379.7404 L104.5331 378.3337 L105.1156 376.6581 L105.4654 375.5485 L105.7107 374.6761 L105.9548 373.6851 L106.2739 372.8164 L106.7633 371.9632 L107.7799 370.828 L108.7817 369.6292 L109.4514 368.7542 L109.5861 368.3791 L109.5882 367.8406 L109.5756 367.1871 L109.7762 365.1707 L109.902 364.604 L110.5532 363.203 L111.0986 362.2425 L111.6445 361.3382 L112.4066 360.3995 L113.0428 359.7111 L113.932 358.6458 L114.4746 357.8713 L114.4794 357.8744 L114.6876 357.2228 L114.8474 356.8334 L114.8651 356.7909 L115.0903 356.243 L115.5401 355.5465 L115.7959 355.1976 L116.2336 354.8125 L116.6923 354.199 L117.3398 353.4588 L118.0152 352.874 L118.6199 352.6855 L119.048 352.7417 L119.3264 352.9264 L119.4688 353.1031 L119.5345 353.4033 L119.5652 353.5892 L119.4728 354.1522 L118.9649 355.0472 L118.4376 356.9257 L118.3258 357.626 L118.6216 357.9218 L118.8229 358.061 L119.3139 358.4011 L119.0323 359.0408 L119.6499 359.4546 L119.9247 359.5495 L120.5072 359.8434 L120.9724 360.3677 L121.9378 361.931 L123.0231 363.8433 L123.6387 364.7051 L123.8231 365.2412 L123.8235 365.4565 L123.8243 365.7324 L123.7666 366.0376 L123.3882 367.0399 L122.8448 368.4266 L121.5804 371.0877 L119.1206 376.9246 L122.2573 378.8068 L122.9803 379.1182 L123.2575 378.8667 L123.8586 378.0255 L124.239 377.7577 L124.7135 377.5605 L126.0727 377.5911 L126.9163 377.5867 L127.2975 377.6604 L127.5666 377.8538 L127.6433 378.0598 L127.6049 378.247 L127.0534 378.9609 L126.1618 380.3526 L125.7822 381.0752 L125.382 381.9826 L125.2557 382.2148 L126.5273 383.0167 L126.5298 383.0092 L126.7702 383.5546 L127.1281 383.8554 L128.4578 384.4589 L129.4608 384.9506 L129.4644 385.0124 L129.5176 388.7504 L129.4027 391.6996 L129.5431 392.446 L129.7133 392.5639 L130.0127 392.3624 L130.0925 388.967 L130.026 387.0306 L130.2943 385.5447 L130.3979 385.2458 L131.4654 385.6577 L132.3018 385.8449 L132.7217 386.1613 L132.9376 386.638 L133.0417 387.7875 L133.1171 388.6194 L133.333 390.1221 L133.2753 390.8085 L132.9921 391.8594 L132.7919 392.3174 L132.5495 392.6507 L132.4563 392.7973 L132.0916 393.0026 L131.8197 393.2766 L131.5695 393.5742 L131.0846 394.0429 L130.6223 394.7686 L130.2301 395.0083 L129.7286 394.9995 L129.3688 395.1112 L129.1505 395.6023 L129.1759 395.749 L129.2219 396.0123 L129.1501 396.2906 L128.6325 396.3967 L128.2339 396.1908 L127.8668 395.7502 L127.6707 395.3003 L127.6364 395.2217 L127.4367 394.2388 L127.4189 392.9483 L127.3108 391.9 L126.9877 390.1445 L126.8239 388.0066 L126.8364 386.527 L126.773 385.0218 L126.7145 384.52 L126.6427 384.2804 L126.6161 384.1924 L126.4511 383.3574 L125.5595 382.7627 L125.4316 382.6772 L125.2412 382.5561 L125.0419 382.4294 L124.6622 382.2441 L124.2217 382.7084 L124.1793 383.0516 L124.0773 384.0551 L124.1442 385.8087 L124.1382 386.8702 L124.0785 388.0103 L123.577 392.9053 L123.4568 393.792 L123.2514 394.7505 L123.1183 396.9259 L122.5882 398.4023 L122.2122 399.9618 L121.6102 400.6519 L121.0438 401.0956 L120.3192 401.7415 L119.4305 402.4747 L118.6042 403.5343 L117.9623 403.991 L117.2817 404.3411 L116.3353 404.6712 L115.3376 405.269 L114.1753 406.1701 L113.1973 406.4434 L112.5647 406.4521 L112.43 406.2649 L112.3925 406.0153 L112.4292 405.0862 L112.384 403.6466 L112.6785 402.3848 L112.9419 401.4713 L113.4293 399.5855 L113.9973 398.5209 L114.469 397.7658 L115.0197 396.9814 L116.3558 393.734 L116.8137 392.6925 L117.5492 391.1305 L117.7554 390.5271 L117.8207 389.8656 L118.0204 389.1448 L118.133 388.4559 L118.1366 387.5579 L117.8615 385.4773 L117.9228 384.4907 L117.7009 383.959 L117.333 383.6095 L116.3954 382.5705 L115.7321 381.7804 L114.6432 380.6191 L114.1676 380.1591 L113.9542 379.736 L113.7109 379.6156 L113.2397 379.6318 L112.6813 379.5101 L111.8438 379.0408 L110.9627 378.4236 L110.4834 377.7746 L110.1566 378.1422 L110.092 378.5441 L110.0682 379.0096 L110.4277 379.5919 L110.6359 380.0156 L112.4441 380.9635 L113.393 381.5845 L114.1385 382.3346 L114.9575 383.32 L115.4392 384.4196 L115.7434 385.5953 L115.7705 386.5962 L115.6801 387.1254 L115.4158 387.5541 L114.9829 387.8761 L114.4577 387.966 L113.6217 387.7726 L112.6014 387.4356 L111.8894 386.9301 L110.7057 386.4296 L110.0356 385.8911 L109.7185 385.8174 L109.4397 385.6839 L109.1912 385.7269 L109.0802 386.4889 L108.8636 387.4711 L108.5638 387.5654 L106.7996 387.375 L106.2529 387.5286 L105.885 387.9242 L105.7579 388.0609 L105.2584 388.4471 L104.7836 388.2662 L104.0622 388.0946 L103.3498 387.8487 L102.9048 387.7376 L102.5001 387.5835 L102.2101 387.3944 L102.1911 387.0012 M105.5768 179.6779 L106.0205 178.6032 L106.2787 178.0618 L106.7907 177.4204 L107.8223 176.3676 L108.7159 175.7643 L109.1581 175.153 L109.4853 174.0395 L109.6588 172.858 L109.8657 170.2333 L109.4353 168.0257 L109.4042 166.2902 L109.5381 165.8524 L109.8048 165.3946 L110.2845 164.3898 L110.6944 163.7928 L110.9832 163.1183 L111.7361 161.7394 L111.8797 161.4759 L112.5748 161.6051 L113.5685 162.0585 L113.8771 162.314 L113.9102 162.6268 L113.9025 162.688 L113.8582 163.039 L113.5237 163.34 L113.0283 163.6067 L112.4465 163.8552 L111.4734 163.9189 L111.5122 165.0331 L111.4258 165.6007 L111.3685 166.4426 L111.3943 167.6485 L111.4512 168.0263 L111.7151 168.1787 L112.0955 167.9407 L112.1649 167.2675 L112.085 166.5643 L112.2771 166.2502 L112.4986 166.159 L112.7911 165.9979 L113.4604 165.8512 L116.98 165.3553 L118.6131 165.1986 L118.8289 165.9611 L118.8729 166.3445 L118.9443 167.4211 L119.052 167.6478 L119.2227 167.8221 L120.2345 167.6016 L120.5008 167.556 L120.8978 167.5816 L121.2096 168.3504 L121.3637 169.1991 L122.0221 172.7924 L122.4365 174.2618 L122.7846 175.3709 L123.2845 176.4962 L123.7283 177.9644 L124.1709 179.0634 L123.9921 179.2345 L123.6912 179.3176 L122.8561 179.3769 L122.4821 179.3032 L121.3149 179.1577 L120.9474 179.1615 L120.2575 179.1684 L118.9395 178.9473 L118.6587 178.8642 L118.223 178.735 L116.9517 177.9063 L116.0117 176.475 L115.2855 176.2352 L115.0447 176.4588 L114.9499 176.8416 L115.2048 177.4411 L116.3954 179.0422 L117.4302 179.4993 L119.4171 180.1669 L121.4315 181.1667 L123.2389 182.4687 L124.281 183.2655 L125.5567 184.7205 L126.0828 185.5454 L126.4467 186.0038 L127.3649 186.9679 L128.2504 187.6242 L128.9012 188.3461 L129.2877 189.073 L129.579 190.1258 L129.6923 191.627 L129.8928 192.0347 L130.3749 192.4406 L131.1463 192.8671 L132.217 193.3011 L133.061 193.7451 L133.9054 193.8843 L134.6946 193.323 L136.1841 192.214 L136.5004 191.8524 L136.9615 191.5271 L137.352 191.4609 L137.5977 191.4197 L137.9588 191.5339 L138.6999 190.9813 L139.2058 190.651 L139.6718 190.2682 L140.1378 189.6475 L140.5654 189.078 L140.8361 188.8688 L141.687 188.8744 L142.14 188.7926 L142.4168 188.5372 L142.5536 187.9127 L142.7424 187.4581 L142.8481 186.9667 L142.8186 185.9426 L142.9526 185.448 L143.1519 185.0995 L144.2294 180.7564 L144.2553 179.9315 L144.2056 179.3982 L144.0338 178.9985 L143.937 178.6132 L144.1108 178.4989 L144.5264 178.7031 L144.7886 178.9573 L145.3583 179.5974 L146.2926 180.2887 L147.0551 180.6821 L148.9497 181.7231 L149.5782 182.2014 L149.6271 182.3944 L149.4762 182.8359 L149.3136 183.1981 L149.1716 183.3991 L148.9642 183.461 L148.7443 183.3542 L148.3607 182.706 L148.0774 182.5274 L147.7232 182.5873 L147.2266 182.3069 L146.8151 182.1983 L146.3414 182.1358 L145.8848 182.4493 L145.6596 182.6654 L145.5047 183.0657 L145.493 183.4341 L145.7052 183.2024 L145.8779 182.8115 L146.0239 182.5986 L146.2192 182.4193 L146.5549 182.3444 L146.805 182.3688 L147.1197 182.4706 L147.4844 182.7765 L147.5506 183.0857 L147.5389 183.4541 L147.4106 184.1054 L147.1802 184.6949 L146.8885 185.561 L146.828 186.0344 L146.8115 186.1624 L146.4302 186.4453 L146.1821 186.4434 L146.007 186.276 L145.942 186.0906 L145.9001 186.0487 L145.5713 185.7234 L144.9153 185.5898 L144.369 185.6422 L143.9462 186.0088 L143.5952 186.577 L143.4895 187.2827 L143.5194 188.0713 L143.6892 188.481 L144.1423 189.0936 L144.5538 189.3658 L145.1279 189.6325 L145.3659 190.127 L145.441 190.4955 L145.4829 190.7015 L145.6237 191.0762 L145.823 192.3763 L145.5572 194.1266 L145.4131 194.3789 L145.2296 194.703 L144.9601 194.9746 L144.7321 195.857 L144.6886 196.1892 L146.0994 196.7368 L146.5746 196.5644 L146.922 196.4502 L147.392 196.201 L147.467 196.1467 L147.6014 196.0493 L147.8209 196.1567 L148.2905 196.3334 L148.9703 196.271 L149.2474 196.0156 L149.4342 195.6515 L149.404 194.8866 L149.4031 194.7174 L149.4629 194.6918 L149.7662 194.5612 L150.0668 194.4726 L150.517 194.4414 L150.8592 194.2696 L150.9576 194.1329 L151.031 194.0311 L150.9237 193.7601 L150.8434 193.2156 L150.7579 192.829 L150.7518 192.6792 L150.7478 192.5761 L150.9104 192.3557 L151.7286 191.9979 L151.8222 191.9211 L152.0445 191.7388 L152.1925 191.5233 L152.6004 190.9232 L152.8166 190.0927 L152.7573 189.9922 L152.5976 189.7205 L152.2401 189.5382 L152.0203 189.4264 L151.7935 189.1454 L152.0138 188.727 L152.3591 188.3686 L152.431 188.2474 L152.5601 188.0308 L152.7844 187.7585 L154.3763 187.8497 L154.8399 187.761 L155.8485 186.2267 L155.9562 186.0668 L156.5057 185.8907 L158.1852 185.3169 L159.54 184.7611 L159.8228 184.5613 L160.4477 184.3483 L161.0799 184.2022 L161.6616 184.1123 L162.1611 184.1497 L162.3765 184.3246 L161.4297 185.2775 L161.3421 185.5123 L161.5705 185.7028 L161.9751 185.4848 L162.8155 184.5881 L163.3367 184.3527 L166.0099 185.571 L166.7696 186.4215 L166.7716 186.4384 L166.0946 187.1203 L166.9891 187.9683 L167.3715 187.5381 L167.6519 187.4625 L168.786 187.7953 L170.1165 188.0994 L170.451 188.0133 L170.4441 187.7878 L170.2702 187.5299 L169.3112 186.4965 L168.4785 186.0206 L167.708 185.3343 L167.223 184.8491 L167.1577 184.4763 L166.3117 184.6412 L165.7606 184.6993 L165.1385 184.5538 L163.5082 183.7907 L162.8502 183.2636 L162.665 183.6539 L162.0824 183.8306 L161.065 183.9555 L159.6473 184.2865 L157.7176 184.6212 L157.3529 184.3096 L157.0536 183.8219 L156.6396 184.4364 L156.2499 184.743 L155.8574 184.8635 L155.6306 184.7973 L155.627 183.5896 L154.7701 182.5449 L154.6095 182.3538 L152.8239 180.6602 L152.7303 180.569 L152.2942 180.4148 L151.4752 180.1001 L150.8184 180.012 L150.0757 180.017 L149.3471 180.3149 L149.2672 180.9444 L149.335 181.5863 L148.0512 180.4766 L147.7127 180.1944 L147.7014 179.9121 L148.031 179.5655 L148.6189 179.4437 L149.22 179.4306 L149.2676 179.4169 L149.7388 179.2795 L150.1935 178.8361 L150.5578 178.3965 L150.6607 178.2029 L150.774 177.9893 L151.0387 177.7246 L151.2521 177.6115 L151.3518 177.6009 L151.4357 177.5916 L152.0174 177.8744 L152.4269 177.6446 L152.6472 177.1188 L152.6851 176.8384 L152.5524 176.5543 L152.4088 176.2464 L152.6403 175.9336 L153.1551 175.5289 L153.5953 175.4315 L153.7982 175.4689 L154.0604 175.5177 L154.5692 175.8024 L155.1554 176.3957 L155.5495 176.5568 L155.9074 176.5868 L156.2233 176.4856 L156.444 176.2302 L156.8514 176.3563 L157.2827 176.5481 L157.5885 176.8316 L157.5482 177.3049 L157.3888 177.7677 L157.4054 177.9238 L157.5131 178.093 L157.86 178.4458 L158.7718 178.976 L159.2422 179.0054 L159.3665 178.946 L159.6231 178.8236 L160.02 178.6913 L160.7704 178.6001 L161.3522 178.725 L161.7552 178.8424 L162.9559 179.1421 L163.4626 179.3538 L163.8289 179.6255 L164.1912 180.0726 L164.5337 180.2225 L164.9573 180.1269 L165.1437 179.8134 L165.385 179.6467 L165.6593 179.736 L165.8945 179.9664 L166.3339 180.6864 L166.4101 180.8469 L166.8612 180.348 L167.3659 179.6342 L167.8185 179.3882 L168.2607 179.3638 L169.4408 179.3969 L171.1412 179.7497 L172.7578 180.3099 L174.4123 180.7333 L174.7569 181.0068 L173.7717 182.0771 L173.2246 182.6036 L172.9357 182.8546 L172.7836 182.9483 L172.682 183.0113 L171.7573 183.1038 L171.2933 183.0694 L171.065 183.0526 L170.4974 182.6897 L169.8143 182.35 L169.2386 182.2301 L168.767 182.1902 L168.136 181.9747 L166.9475 181.8067 L166.5227 181.5189 L166.137 181.3284 L165.8485 181.3197 L165.6222 181.6819 L165.7695 181.9547 L166.1915 182.5424 L166.5077 182.7116 L167.0399 182.7909 L167.6216 182.8084 L168.2478 182.7135 L168.6718 182.731 L169.0192 182.6598 L169.3338 182.706 L170.1274 183.2218 L170.1916 183.2243 L170.8847 183.5859 L171.6794 184.1279 L172.7861 184.7449 L173.5143 185.029 L174.1904 185.1945 L174.5132 185.4592 L174.7262 185.6853 L174.7242 185.7109 L174.6863 186.158 L174.5733 186.4752 L174.2042 186.8193 L174.0359 187.1984 L173.8737 187.5318 L173.879 187.7398 L174.1489 188.0052 L175.6533 187.7192 L177.754 187.8597 L178.2228 187.9283 L178.8816 187.9827 L179.3456 188.165 L180.6285 188.5316 L181.8175 188.5409 L184.2252 188.1994 L184.763 188.0707 L184.7912 188.0295 L184.8832 187.8953 L184.9925 187.736 L185.1035 187.3457 L185.2402 187.124 L185.2862 187.0497 L185.4234 187.0054 L185.6453 186.933 L186.4635 186.948 L186.929 186.9323 L188.494 187.149 L188.6941 187.174 L191.3612 187.1434 L191.3822 187.1434 L193.5257 186.6632 L193.9121 186.5764 L194.0078 186.148 L193.6782 185.0483 L193.3635 184.3084 L193.2783 183.9786 L193.5555 183.3504 L193.8222 182.9945 L194.3192 182.4793 L194.6948 181.2872 L194.8013 180.802 L194.8542 180.3954 L195.4396 178.7356 L196.0016 177.24 L197.4398 174.368 L199.1573 171.2162 L199.7665 170.1071 L199.8572 170.0128 L200.1473 169.7112 L200.493 169.4657 L200.9247 169.3409 L201.3867 169.2422 L201.6961 169.2378 L202.0088 169.4208 L202.1657 169.5251 L202.3525 169.9066 L202.3194 170.5517 L202.2767 171.4335 L202.6244 172.7574 L202.9919 173.8422 L203.443 174.6421 L203.8299 175.3284 L204.2684 176.7104 L204.4774 177.7327 L204.667 178.9435 L204.665 179.0922 L204.6586 179.6105 L204.5682 180.4111 L204.5351 181.0068 L204.3269 181.5938 L204.2353 182.0097 L204.0348 182.4037 L203.6471 182.8402 L203.1678 183.3142 L202.7152 183.5034 L202.3787 183.7314 L202.0915 184.1566 L202.0249 185.0221 L201.5299 185.882 L201.0292 186.8493 L201.0792 188.0189 L200.8352 188.6939 L200.4503 189.4233 L199.9302 189.7212 L198.8845 191.2323 L200.109 191.2529 L200.3894 191.1405 L200.6952 191.0519 L201.1341 191.1574 L201.2184 191.3691 L201.1087 191.5614 L199.2589 196.419 L199.691 198.3204 L200.3652 199.5343 L201.5714 200.4884 L201.8401 202.2181 L201.7683 203.4419 L199.202 205.0473 L198.9237 207.6324 L198.5529 207.9184 L198.3117 208.343 L197.8566 208.5665 L197.6371 208.6246 L196.6967 209.3495 L195.4339 209.7679 L197.1082 211.0916 L196.2941 211.6898 L196.2908 211.7129 L195.6163 212.8968 L193.2126 214.3429 L192.6877 214.6183 L191.7453 214.3629 L190.9852 213.6111 L183.9315 217.1446 L183.8584 217.197 L183.4223 217.6497 L182.9249 218.3803 L182.542 218.6844 L181.97 219.0403 L178.1433 220.2559 L176.5453 220.8691 L174.9558 221.629 L171.4257 223.3922 L171.2893 223.4903 L173.4755 227.3077 L173.6793 227.5462 L173.6781 227.6605 L173.7007 227.7004 L173.6769 227.736 L173.6752 227.8796 L173.4465 228.0851 L171.0904 231.4404 L170.7031 231.5622 L170.5873 231.6958 L169.5852 232.4962 L169.1394 232.6454 L168.7771 232.6779 L168.3769 232.6473 L167.9158 232.4644 L167.8976 232.4438 L167.8508 232.4581 L167.7927 232.3239 L167.7173 232.2371 L164.7326 226.0602 L159.9918 223.3985 L161.4886 218.0038 L162.7069 217.1796 L161.3796 217.1546 L158.7121 220.6125 L157.4727 222.0423 L158.8295 225.4527 L160.3731 225.7718 L161.8145 227.6724 L161.2433 229.6872 L163.9899 232.4894 L164.4659 235.6611 L162.6222 237.6278 L163.0176 240.0316 L163.8689 244.0024 L167.758 242.4416 L167.7443 242.4734 L168.0489 242.2168 L168.9296 241.3327 L170.0596 240.4112 L170.7342 239.6645 L172.4234 237.9631 L173.4481 237.2576 L175.4463 237.6378 L173.5502 238.8672 L172.916 239.3123 L172.08 240.084 L171.2227 240.8189 L170.7285 241.1479 L169.2273 241.8603 L167.7277 243.227 L167.3114 244.1348 L166.6223 245.243 L166.5227 245.5595 L169.6663 254.8345 L169.2265 256.7761 L163.0136 260.9528 L162.6424 273.8007 L166.1362 278.9884 L167.0883 284.9751 L165.7287 285.7991 L166.8547 290.7407 L174.6084 298.2465 L172.6416 305.5686 L171.8368 308.5648 L176.787 316.7855 L177.5107 321.0593 L172.5811 313.2994 L169.1906 307.5904 L169.6058 303.6522 L171.2437 301.5923 L170.5845 300.2047 L169.1882 301.1029 L167.6874 301.2284 L166.8539 301.5923 L166.6998 302.3264 L166.5473 303.7084 L166.5852 305.1397 L166.6381 305.4206 L166.5469 305.8364 L166.4892 306.0018 L166.1499 306.3414 L158.8182 303.4787 L153.5307 301.2552 L154.589 298.8357 L155.1263 297.3457 L154.9597 296.6185 L154.5688 296.169 L153.4569 295.4462 L152.6658 293.4417 L150.8616 289.9984 L152.3337 290.0284 L153.4859 289.9572 L153.7974 289.5071 L152.4015 289.1239 L150.3637 289.0127 L149.5863 288.474 L147.6018 283.7809 L149.8627 283.0992 L150.304 282.7933 L150.325 282.7409 L151.2319 279.9098 L149.6214 279.3186 L149.6194 275.6111 L149.6771 275.3795 L148.9307 274.6872 L148.9686 274.2989 L149.8639 271.7431 L150.0398 271.3804 L149.2075 270.3734 L148.8807 270.0525 L148.798 269.9077 L148.6148 269.6992 L148.6334 269.5974 L148.5466 269.314 L148.5547 268.8689 L148.9134 268.081 L149.6311 267.5897 L149.8445 266.3623 L149.853 266.1451 L150.3282 265.2642 L150.486 265.1918 L150.7075 265.1961 L151.2396 265.5114 L151.3138 265.4665 L152.8949 260.9397 L152.8719 257.9742 L152.4725 257.5746 L150.3718 257.5665 L150.0842 256.7268 L149.2773 254.6622 L148.8988 253.4566 L147.9814 251.6567 L147.5376 250.714 L146.2668 246.3125 L147.3775 245.685 L145.1723 242.3442 L142.7831 240.601 L147.553 239.4871 L147.5429 239.4697 L140.6138 236.9535 L138.6914 236.4971 L138.1262 236.1562 L137.7664 235.9889 L137.2023 235.721 L136.3721 235.3265 L136.1929 234.5622 L136.2438 234.3743 L136.3011 233.7474 L136.4842 232.8134 L136.7658 231.7826 L137.1919 230.713 L137.5396 229.1415 L137.5243 228.5877 L137.5836 228.2992 L137.8341 228.2162 L137.8741 228.2174 L143.5258 230.0337 L147.4771 229.917 L141.7656 226.8432 L141.1569 225.4583 L136.1768 221.4067 L136.1147 221.3699 L135.5031 219.4136 L135.3639 217.882 L135.1061 217.1471 L134.6925 216.6457 L129.6964 212.4597 L131.1729 210.5022 L131.6131 210.032 L133.6565 210.7744 L134.3573 209.9302 L134.3851 209.8703 L134.367 209.7735 L134.5501 209.161 L134.6203 208.3349 L134.3884 207.0948 L134.2734 206.7957 L131.3912 198.3853 L130.3963 197.7471 L130.3039 197.6878 L128.8386 196.3415 L128.6034 195.9769 L126.483 193.4922 L124.8692 191.0044 L124.2556 189.4601 L124.6042 189.5082 L125.1573 190.375 L125.5898 190.887 L126.3127 191.7206 L127.5868 192.9627 L128.6878 193.7888 L129.9356 194.4638 L130.2321 195.087 L130.2963 195.6959 L129.9582 196.6519 L130.2539 196.9984 L131.7942 197.4561 L132.3361 197.523 L132.8089 196.9366 L132.9037 196.5538 L132.779 196.1211 L132.1763 195.4223 L131.1354 194.7373 L129.656 193.7108 L125.6749 190.1651 L124.6368 189.1417 L124.2758 189.0118 L123.9046 188.8788 L123.3547 188.3929 L122.7988 187.6617 L122.3356 187.1278 L119.2138 183.6851 L117.3774 181.1117 L115.9125 179.3757 L114.3386 176.8103 L113.7843 175.6613 L113.602 175.9117 L113.7125 176.7978 L114.2253 177.3867 L115.7289 179.934 L116.9267 181.6662 L118.5259 183.7357 L120.0889 186.5264 L120.5512 186.9573 L120.7198 187.3289 L120.6367 187.6086 L120.2696 187.7042 L119.7633 187.7148 L117.2922 187.021 L114.8684 186.1936 L111.3262 185.5997 L109.8835 185.6859 L108.4283 185.8851 L107.4019 185.9769 L106.3659 183.366 L105.6349 180.338 L105.5768 179.6779 M108.5299 403.8581 L108.6542 402.5801 L108.9761 400.3312 L109.6128 397.3384 L109.7136 396.8654 L110.1796 395.7889 L110.8424 394.7468 L110.9719 394.5802 L112.3489 392.8098 L113.2538 391.1867 L114.2354 390.0272 L114.6759 389.6584 L115.2787 389.611 L115.6813 389.6927 L116.3885 389.7707 L116.6435 389.9062 L116.3825 390.899 L115.9754 391.8694 L114.5174 394.9221 L113.9848 395.9493 L113.5479 396.876 L113.3216 397.2897 L112.5563 397.7658 L112.0903 398.6276 L111.7175 399.4688 L111.285 400.6994 L111.1321 401.2235 L110.9945 401.9349 L110.8194 402.3624 L110.4939 403.6497 L110.4406 403.943 L110.1501 404.9121 L110.0658 405.4206 L109.9004 406.1782 L109.6612 406.7903 L109.4353 407.2097 L109.1387 407.1167 L108.7926 405.4387 L108.6441 404.9913 L108.5432 404.4097 L108.5299 403.8581 M115.8774 412.0032 L116.4204 411.5215 L116.6701 411.2731 L117.4601 410.9112 L118.1334 410.7565 L121.7083 409.8492 L125.2771 408.8876 L127.8054 408.3329 L129.1933 408.1014 L129.9122 408.0895 L131.6304 408.1569 L133.6723 408.3198 L137.2778 408.7884 L139.8808 409.086 L140.4476 409.0785 L141.0019 409.7718 L141.4885 409.8255 L142.234 409.7462 L143.4556 409.4835 L144.4352 409.3519 L145.6358 409.2246 L146.3039 409.0149 L146.7316 408.8863 L147.2633 408.691 L147.7603 408.6935 L148.3344 408.8564 L148.8992 408.9824 L149.0509 409.1416 L148.6741 409.2489 L148.2013 409.5135 L147.7724 409.7681 L146.7981 410.0239 L145.3607 410.2666 L143.5359 410.4601 L141.8326 410.7933 L139.1639 411.68 L137.7885 411.8148 L136.2075 411.6557 L135.2606 411.3218 L134.0963 411.1633 L133.0207 410.8694 L130.5214 409.9409 L129.2792 409.5534 L128.1375 409.5559 L125.5752 409.9634 L123.5048 410.3864 L121.2762 410.9168 L118.8386 411.5933 L117.0986 412.06 L116.4523 412.2247 L115.8862 412.2453 L115.8774 412.0032 M116.6003 215.9089 L116.8908 214.825 L117.4318 213.5531 L117.8845 213.0929 L118.1786 213.0104 L118.3053 212.9749 L118.6914 213.2165 L118.9294 213.7666 L119.0924 214.4253 L119.7004 215.3807 L124.6614 218.0924 L125.5841 218.6719 L127.567 220.4995 L128.3755 221.9718 L130.4952 224.7503 L130.5093 224.9925 L130.5609 225.8904 L130.5722 226.0852 L130.0506 225.9091 L129.936 225.8704 L129.7367 225.5357 L129.566 225.2491 L129.2288 224.5061 L128.2323 222.9577 L127.0292 221.5578 L126.2506 220.7748 L124.893 220.0718 L123.5798 219.6865 L121.9737 218.9759 L120.5371 218.2198 L119.8924 217.8152 L118.2669 216.7675 L116.8614 216.6476 L116.7052 216.6345 L116.6052 216.2199 L116.6003 215.9089 M123.1481 337.5378 L123.2119 336.8082 L123.598 336.4681 L123.5459 336.1859 L123.3269 335.9812 L123.3478 335.485 L123.5697 334.9757 L123.7977 334.6805 L124.1438 334.3903 L124.8349 334.2205 L125.4219 334.13 L125.4558 334.1169 L126.2445 333.8173 L126.7456 333.5907 L128.0588 333.0939 L130.291 332.0634 L130.3124 332.0534 L130.4629 331.8793 L130.3959 331.7588 L130.2967 331.5809 L130.1127 331.3862 L128.9613 332.1009 L127.9737 332.3917 L126.882 332.6601 L126.2357 332.7231 L124.7736 332.7319 L124.2181 332.6951 L124.0756 332.6177 L123.6867 332.4067 L123.7424 332.0284 L124.2423 330.4886 L124.377 330.1965 L124.6518 328.168 L125.0201 327.4458 L125.9436 325.9485 L126.5245 324.9148 L127.2673 323.6796 L128.4743 322.0505 L130.9515 319.3834 L131.2738 319.0388 L131.3513 318.919 L131.5836 318.5601 L131.9786 318.3035 L132.3671 318.2511 L132.6233 318.3872 L132.8327 318.7741 L133.0501 319.2847 L133.0566 319.3578 L133.0764 319.5769 L133.1155 320.0113 L133.0982 320.5381 L132.8686 321.1891 L132.3264 322.1834 L132.1222 322.7552 L131.7729 323.6584 L131.7281 324.2445 L132.5894 326.8054 L132.9703 327.6961 L132.965 327.9115 L132.2146 328.8546 L131.534 329.7621 L130.3088 331.1109 L130.4992 331.6221 L130.7344 332.3187 L131.6135 333.6781 L132.4478 334.9021 L132.7226 335.0325 L132.8747 335.1049 L132.8884 335.2354 L132.9053 335.3951 L131.8124 335.8102 L130.4113 336.1847 L129.439 336.4125 L128.311 336.5998 L125.8363 337.574 L124.8773 338.0821 L124.0151 338.5009 L123.4229 338.4847 L123.2966 338.1146 L123.1481 337.5378 M125.077 182.2027 L125.0988 181.9853 L126.7355 183.5677 L127.8418 184.4439 L129.115 185.3081 L131.3057 186.2723 L132.8323 186.7032 L133.9236 186.8018 L135.1896 186.9554 L135.8456 187.4619 L136.0578 187.8178 L136.1425 188.5141 L136.0675 189.0474 L135.8613 189.6394 L135.5067 190.2251 L134.7523 190.9713 L134.1649 191.3104 L133.8195 191.4147 L133.5787 191.4403 L133.5355 191.4446 L133.1784 191.2117 L132.9848 190.9213 L132.311 190.0328 L130.8502 188.9437 L130.8199 188.9212 L130.218 188.3923 L129.4874 187.4481 L128.4231 186.2173 L127.7816 185.5398 L126.4709 184.2053 L125.693 183.0875 L125.077 182.2027 M125.3683 227.8234 L125.3731 227.4957 L125.501 227.2671 L125.7741 227.1366 L126.038 227.2896 L126.1655 227.5918 L126.4027 228.0239 L126.5927 228.4385 L126.9155 228.5627 L127.1434 228.3748 L127.2753 228.0782 L127.3903 227.8347 L127.5759 227.7248 L127.8652 227.6936 L128.1831 227.7167 L128.7487 227.6905 L129.2074 227.7148 L129.5983 227.4195 L130.1337 227.0523 L130.7203 226.6908 L131.0539 226.6496 L131.3376 226.7776 L131.6236 227.0349 L132.6806 227.9277 L133.247 228.652 L133.6335 229.2208 L133.9555 229.8189 L134.1544 230.1024 L134.2625 230.6444 L134.2564 231.1757 L134.271 231.6877 L134.3952 232.0642 L134.557 232.4762 L134.843 232.6267 L135.1513 232.8253 L135.3364 233.1387 L135.4268 233.6763 L135.3558 234.1246 L135.1287 234.5323 L134.8067 234.8938 L134.4634 235.0037 L134.1346 234.9256 L133.8724 234.8407 L133.2341 234.2875 L132.6822 233.7537 L131.2625 232.5718 L130.8349 232.307 L130.5153 232.0529 L130.0937 231.7364 L129.629 231.3343 L129.3946 231.1901 L128.7301 231.034 L128.2646 230.9428 L127.962 230.8504 L127.5924 230.7093 L126.9401 230.3946 L125.7701 229.7115 L125.637 229.302 L125.624 229.0216 L125.6079 228.7069 L125.4865 228.2511 L125.3683 227.8234 M127.6106 407.3382 L127.6525 406.9894 L128.3787 406.7828 L129.1666 406.6237 L129.3434 406.4658 L129.4135 406.3473 L129.6919 405.4699 L131.2968 405.0057 L133.0752 404.4316 L133.1667 404.2556 L133.1768 404.0877 L133.0134 402.8004 L133.0715 402.1489 L133.7251 401.8369 L134.1842 401.3433 L134.6328 400.1015 L134.4985 398.9334 L134.5376 398.5571 L134.7353 397.6753 L135.2315 396.6551 L135.4768 396.4117 L135.9888 396.0317 L136.2599 395.3103 L136.3362 394.8878 L136.4302 394.3668 L136.9353 393.3427 L137.2544 392.1015 L137.3456 390.9914 L137.2556 388.434 L137.0866 387.1541 L137.0837 386.6306 L137.0817 386.3079 L137.8341 386.454 L137.8769 386.6306 L137.9539 386.9488 L137.6768 387.4131 L137.8616 387.9916 L137.8515 388.6412 L138.1048 390.031 L138.1718 390.2381 L138.3138 391.4251 L138.3037 392.182 L138.3328 393.3072 L138.1734 394.6781 L138.0818 395.1961 L138.192 395.387 L138.3695 395.5206 L138.5204 395.5106 L138.6362 395.4363 L138.5918 394.431 L138.7608 391.9249 L138.7503 390.7068 L138.9383 390.5177 L139.2115 390.5452 L139.3692 390.7093 L139.6274 391.4999 L139.7493 392.8691 L139.7727 393.3577 L139.6544 393.782 L139.5738 394.4566 L139.4067 394.954 L138.898 394.9852 L138.9569 395.329 L139.2704 395.7446 L139.4757 395.8619 L139.8106 395.6323 L140.0595 394.2076 L140.2068 393.2042 L140.1394 391.5018 L140.3044 391.2528 L140.4827 391.1836 L140.6388 391.1667 L140.8228 391.2597 L140.9777 391.5536 L141.0806 391.8875 L141.1088 392.3692 L141.2428 392.9983 L141.3804 393.875 L141.8677 393.6429 L141.9779 393.2479 L141.9653 392.9159 L141.7781 392.3661 L141.7612 392.046 L141.8145 391.6454 L142.0436 391.4182 L142.368 391.4513 L142.694 391.7159 L142.8138 392.2107 L142.656 392.6906 L142.6661 393.4226 L142.6153 394.1677 L142.953 394.0641 L143.0849 394.2981 L143.1139 394.7349 L143.0796 395.1562 L143.0921 395.8095 L143.4133 396.7175 L143.9208 397.6342 L144.0903 397.8532 L144.2125 398.32 L143.6243 398.2357 L142.7791 397.8513 L142.6496 398.119 L142.8626 398.3218 L143.4738 398.6239 L144.2637 399.0707 L144.8641 399.3228 L145.0896 399.5412 L145.2606 400.6288 L145.4845 400.9384 L146.1276 401.3271 L146.8986 401.5948 L147.5082 401.9312 L147.8648 402.2201 L149.0025 402.7087 L150.1281 403.3002 L149.7408 404.1339 L149.1986 406.8065 L148.115 407.0406 L146.3818 407.4667 L144.8201 407.9148 L143.164 408.2143 L142.2506 408.2492 L140.9684 408.0415 L139.9659 408.1931 L137.3641 408.0627 L134.8382 407.7981 L131.879 407.5335 L129.4866 407.561 L127.8551 407.79 L127.6606 407.5978 L127.6174 407.3731 L127.6106 407.3382 M136.1352 247.5337 L136.3015 247.199 L136.3628 247.0748 L137.1265 246.6833 L138.054 246.353 L139.0557 246.1907 L139.8441 246.3493 L140.3116 246.8363 L141.6006 248.4327 L142.2881 249.24 L142.4087 249.848 L142.5588 250.3119 L142.6351 250.7159 L142.6629 251.2434 L142.7734 251.6193 L143.0522 251.5893 L143.2075 251.4601 L143.1886 250.787 L143.1151 250.4112 L142.8392 249.9267 L142.4757 249.2031 L141.9137 248.3085 L140.471 246.6203 L140.4609 246.3293 L140.7901 246.2488 L141.616 246.393 L142.493 246.6496 L143.2233 247.0273 L143.6424 247.2446 L144.3218 248.0306 L144.5679 248.4127 L145.0948 249.1675 L145.5148 250.32 L145.9554 251.0661 L147.1971 253.8331 L147.0144 254.3944 L145.142 251.0536 L144.8076 250.4967 L144.6793 250.7196 L144.697 250.8882 L147.0531 255.1354 L147.1596 255.5025 L147.1427 255.9277 L146.6606 256.3229 L146.0937 256.4952 L145.6625 256.6263 L145.4297 256.6076 L144.8507 256.5601 L144.7059 256.7899 L144.8592 257.3892 L145.2062 257.9561 L145.5991 258.5298 L146.0836 260.1886 L146.7029 260.821 L146.8796 261.3929 L146.9878 261.9535 L146.9079 262.7096 L146.8651 263.1147 L146.3132 264.3359 L145.4381 265.8061 L144.3416 267.2107 L143.9579 267.6733 L143.2842 267.7451 L142.6193 267.6296 L141.9754 267.4492 L141.2972 267.1034 L141.1677 266.4628 L141.2145 265.7861 L141.6212 264.7323 L142.0533 263.4956 L142.4676 262.2494 L142.6609 261.5171 L142.9292 259.7953 L142.9138 257.5166 L142.7028 257.1158 L141.9387 257.2363 L141.7616 256.9447 L140.7417 255.0037 L138.4821 250.7789 L137.634 249.5415 L136.8449 248.3896 L136.1352 247.5337 M136.8651 331.1659 L137.1713 330.8007 L137.536 330.5954 L138.2307 330.0274 L138.4639 329.7315 L138.6886 328.5001 L138.7939 328.1674 L139.0017 328.0525 L139.0598 328.0207 L139.2635 327.8185 L139.2175 327.6481 L139.1574 327.5388 L139.0646 327.3709 L138.9908 326.5664 L139.7238 325.1701 L139.9203 325.0209 L140.4117 324.6246 L140.4242 323.9567 L140.9951 323.091 L141.9145 322.063 L142.8973 321.1392 L143.3431 320.7204 L144.1431 320.3022 L145.401 320.1686 L146.6501 320.1661 L148.0609 320.0955 L150.4924 319.781 L152.3741 319.4795 L154.7342 319.5001 L156.6977 319.3877 L157.411 319.2666 L156.749 319.766 L155.9397 319.9364 L153.8769 320.4938 L151.3046 321.0774 L149.2349 321.6242 L145.9731 322.3376 L145.6871 322.4525 L145.867 322.6647 L146.8397 322.6572 L148.4647 322.3776 L150.7547 321.8919 L154.1234 321.1223 L158.1658 319.7416 L158.6915 319.492 L159.4165 318.8565 L160.4481 318.341 L162.4068 318.1275 L163.5873 318.0644 L164.8258 318.2261 L165.5952 318.2636 L166.419 318.2324 L167.5434 317.831 L167.7201 317.6731 L164.804 317.8616 L163.8604 317.7193 L163.1241 317.5495 L162.5738 317.3023 L163.2802 317.0189 L163.935 317.0907 L164.8952 317.0171 L165.6984 316.8978 L166.8273 316.6088 L168.222 316.4384 L168.5282 316.406 L169.8627 316.5296 L170.3207 316.7518 L170.9089 317.1013 L171.2211 317.3391 L171.953 317.3404 L172.4932 317.3959 L172.8143 317.6107 L173.0096 317.8098 L173.2391 318.1188 L173.4146 318.4496 L173.3731 318.6406 L173.0931 318.6368 L170.2573 318.6605 L168.8005 318.5613 L168.3269 318.3403 L167.8222 317.9821 L166.1047 318.6156 L165.1558 319.54 L164.4026 319.9245 L162.4483 320.1773 L162.0469 320.1068 L161.3272 319.5793 L160.862 319.1718 L159.9337 319.4395 L158.8779 320.4207 L157.5215 321.1685 L154.2743 322.3932 L152.9022 323.1484 L151.9952 323.9954 L149.3963 324.7001 L148.3014 324.8836 L147.4449 324.9242 L146.8921 325.0222 L146.2729 325.4997 L145.2191 326.2325 L144.1435 327.238 L142.955 328.0812 L142.1009 328.8377 L141.7188 329.324 L141.5922 330.5791 L140.757 331.6215 L140.3903 331.7388 L139.5213 332.0178 L138.5119 332.0515 L137.7744 331.9947 L137.3331 331.8106 L136.8651 331.1659 M140.2233 321.9824 L140.3383 321.4176 L140.5186 321.0992 L140.5404 320.8102 L140.8865 319.3846 L140.889 318.8846 L141.2073 318.4527 L142.1469 317.9184 L143.3374 317.1481 L144.8487 316.215 L145.7335 315.871 L146.5194 315.7318 L147.5102 315.6782 L147.6877 315.3885 L147.7341 314.921 L147.4525 314.9173 L146.2652 314.7606 L146.145 314.4579 L146.0736 314.2787 L146.4129 313.8649 L146.9042 313.7775 L147.2399 313.7176 L148.142 313.3718 L149.224 312.3475 L149.6565 310.845 L150.2685 307.7383 L150.3698 306.2995 L150.3988 305.3994 L150.3424 304.1373 L150.532 302.9806 L150.6316 302.7808 L151.0383 301.9675 L151.2081 301.8788 L151.6442 301.734 L152.3281 301.6835 L152.8179 301.6547 L154.0173 301.7134 L154.0112 301.9232 L152.7658 303.4038 L152.4164 304.254 L152.3777 304.5798 L152.3595 304.8863 L152.3987 305.5767 L152.6101 306.5136 L153.4242 307.9905 L153.6671 308.478 L153.824 309.0598 L153.862 309.6316 L153.8039 309.9874 L153.4888 311.1609 L153.0256 312.531 L152.5625 313.4773 L151.9989 314.3218 L151.5575 314.8879 L151.0189 315.2606 L150.2245 315.3736 L148.3022 315.0534 L148.3627 315.3848 L149.3721 315.6164 L149.7993 315.8005 L149.9914 315.8835 L148.2308 316.64 L146.5113 317.4665 L144.854 318.6131 L143.5496 319.4795 L141.9996 320.6823 L140.7179 322.0823 L140.4355 322.1803 L140.2233 321.9824 M145.9045 318.9133 L145.9134 318.6811 L146.9954 318.0526 L148.0649 317.4708 L149.0332 316.9821 L149.9619 316.5133 L150.766 315.9709 L151.9561 315.2518 L152.6012 314.4329 L153.1571 313.5665 L153.6635 312.3387 L153.8902 311.2314 L154.2827 309.7601 L154.2533 308.958 L154.1948 308.6253 L159.151 310.1478 L160.0459 310.4199 L162.0909 311.242 L163.858 312.0772 L164.1904 312.3475 L164.2953 312.5584 L164.2598 313.021 L164.0234 313.642 L163.252 314.8324 L162.6819 315.5639 L162.5932 316.019 L162.5468 316.2555 L162.1111 316.4996 L161.516 316.6188 L160.9205 316.6313 L159.8651 316.6026 L158.8505 316.4784 L157.2863 316.8591 L156.6412 317.0913 L156.4589 317.3054 L156.5497 317.3791 L156.7494 317.4409 L157.2436 317.4165 L158.5168 317.0501 L159.6214 317.0121 L160.4493 317.1875 L160.5542 317.3192 L159.753 317.65 L158.7553 318.193 L157.5365 318.4802 L155.6117 318.6393 L152.155 318.8428 L149.7029 319.1256 L147.7051 319.2866 L146.5831 319.1068 L146.0239 319.0869 L145.9921 319.0407 L145.9045 318.9133 M169.3552 262.1283 L169.427 261.6863 L169.5049 261.5896 L169.4767 261.5708 L169.5235 261.5671 L169.6461 261.4148 L170.2061 261.1994 L173.434 261.0839 L173.6785 261.0008 L174.1888 260.2442 L174.5685 258.7196 L174.7839 258.39 L174.8868 257.7813 L187.3893 256.0145 L181.6242 254.9282 L177.9368 251.9252 L178.0054 251.6948 L177.9662 251.653 L178.5649 249.0552 L178.6585 248.7686 L178.7921 248.7542 L178.8715 248.7886 L178.9454 248.5413 L179.8531 248.6662 L179.7845 248.3003 L179.2596 248.0106 L179.0309 247.8146 L178.8506 247.5461 L179.0075 245.4577 L179.137 244.8528 L179.0946 244.6267 L179.1943 244.5849 L179.2338 244.4007 L179.6607 244.073 L180.2715 243.9912 L180.4768 244.0505 L182.2253 243.3219 L182.987 244.7398 L183.52 244.864 L192.0773 243.89 L194.2761 245.557 L192.1257 240.3313 L190.9477 239.3386 L192.3799 239.3198 L194.9821 238.1148 L197.0921 238.2834 L202.4594 238.8335 L202.3234 238.623 L202.1322 238.2478 L202.1112 237.9962 L202.5022 238.073 L202.9254 238.1922 L203.6266 238.5413 L204.199 238.8984 L204.2273 239.0151 L204.7655 239.0701 L204.7655 241.505 L212.288 252.6338 L212.8702 253.029 L213.9469 253.2594 L215.3803 254.9413 L217.3233 257.3424 L217.7098 258.0666 L217.6747 258.2689 L217.6053 258.2932 L214.5267 258.7696 L212.2973 260.3584 L212.4857 260.4421 L212.6176 260.8398 L212.7205 261.8168 L213.5495 264.5063 L214.2463 266.7213 L211.9709 267.0709 L211.6493 267.0697 L211.377 267.124 L211.1878 267.0678 L210.2522 267.0647 L209.9973 263.9082 L209.75 263.7559 L205.1052 263.5118 L203.7944 263.5917 L203.117 263.5736 L202.275 263.4974 L202.1504 263.6523 L202.0745 268.3507 L199.6616 268.3676 L199.6309 268.8988 L199.5643 269.3346 L199.3578 269.9383 L199.0629 270.3984 L199.1851 270.8085 L199.5337 271.2867 L199.764 271.9016 L199.8169 274.0267 L199.484 276.7997 L199.4421 277.7355 L199.4957 278.0851 L199.7588 278.6045 L200.8997 278.8704 L201.2596 279.1401 L201.5335 279.5272 L201.7251 280.3412 L204.5678 281.8413 L202.9936 284.4651 L203.7843 285.5613 L203.9445 286.0126 L204.0203 286.5182 L204.0122 286.7517 L204.4145 287.5096 L201.8405 289.632 L198.5081 289.4198 L197.6851 293.2151 L198.2991 293.4012 L199.7168 293.6197 L200.4761 293.8019 L200.9465 294.0454 L200.9251 294.5897 L200.5733 295.0953 L200.4801 295.4949 L200.5846 295.9518 L200.5866 296.3738 L200.3752 297.0636 L200.1465 297.6984 L200.2978 298.5729 L200.3079 298.8258 L200.1691 299.1678 L199.81 299.3351 L200.1279 299.7365 L200.2796 300.2683 L200.09 300.8189 L199.8052 301.3233 L199.5083 302.1335 L199.3299 302.739 L199.4086 303.7016 L199.7652 304.6085 L200.0755 304.93 L200.7367 304.9831 L201.6545 305.6254 L202.5998 306.8513 L202.808 308.9911 L202.9843 309.8076 L203.0327 310.4287 L203.3546 310.8125 L203.6403 311.335 L203.4507 311.4798 L204.4185 312.6408 L201.6009 314.1576 L201.5718 314.2968 L201.5545 314.3393 L202.1552 315.0253 L201.0538 315.9428 L198.8228 320.5306 L196.8016 320.3184 L186.3319 320.1605 L185.122 318.5769 L186.0019 316.5814 L186.0576 316.3292 L182.2491 310.4368 L181.9772 310.1996 L181.6182 309.9443 L180.99 309.164 L180.9827 308.719 L181.0598 308.5966 L180.3655 307.5224 L181.4023 307.3226 L180.7931 304.8289 L180.5958 304.5717 L180.5014 304.2608 L180.5833 303.97 L180.1113 302.0605 L180.3304 301.6941 L180.2957 301.6691 L180.0411 301.3913 L179.9544 300.9943 L179.9431 300.352 L180.0141 299.9044 L180.0903 299.5155 L180.2634 299.1216 L180.919 298.5611 L181.9756 298.1216 L182.5541 297.9699 L182.9071 297.3788 L183.9694 297.6335 L184.9683 297.4431 L185.6481 297.5068 L186.4074 297.8214 L186.4699 297.8644 L186.1266 297.3788 L187.1715 297.0979 L188.2931 297.1915 L186.0096 295.2002 L182.2455 293.7926 L180.7266 293.423 L179.4392 292.9049 L178.4859 292.3986 L175.4677 291.28 L176.4162 290.9392 L176.5247 290.7107 L176.8664 290.2856 L177.2711 289.4098 L177.8395 288.5158 L178.7384 287.615 L179.5485 286.9184 L179.5546 286.743 L179.5029 286.713 L179.1737 286.6512 L176.3327 285.5413 L173.1669 284.3415 L172.5472 283.9613 L172.3955 283.4862 L172.7611 283.0018 L173.1048 282.847 L173.6704 282.8713 L173.9205 282.8545 L175.7743 282.0848 L182.0926 284.0949 L183.4098 284.1754 L185.2023 283.8783 L186.7083 283.5886 L186.8762 283.5262 L186.9302 283.5936 L187.6072 283.1835 L187.0158 282.43 L186.9811 282.4599 L186.2436 282.5386 L185.6013 282.4674 L184.7904 282.1091 L184.4999 281.9175 L181.7694 281.3918 L182.9636 278.7886 L178.2026 274.5636 L176.9972 274.4912 L175.709 274.7952 L174.8908 274.9806 L174.7238 274.6041 L174.401 274.4343 L173.9028 273.3756 L173.5453 272.0808 L173.5478 271.9541 L173.2367 271.2536 L174.1856 270.251 L174.6842 269.2659 L175.2664 268.5018 L175.9414 268.0966 L176.4852 267.9824 L178.1466 267.4143 L172.1991 263.4057 L171.9465 263.465 L171.6189 263.4999 L171.2308 263.4856 L170.3138 263.1665 L169.8535 262.8488 L169.5533 262.5647 L169.3552 262.1283 M170.2218 368.9109 L170.4893 368.3199 L170.8883 368.1751 L174.7863 367.5859 L175.6255 366.6336 L177.2041 364.2645 L179.7018 360.7846 L180.875 357.6641 L180.9557 357.3214 L181.2716 355.9796 L181.2764 355.3867 L182.4944 355.0372 L182.9785 354.8787 L183.497 354.6715 L184.2034 354.6983 L184.6407 354.7932 L184.7319 355.1221 L184.7109 356.0439 L184.5737 357.3944 L184.3361 358.808 L183.3796 361.7263 L182.9999 362.7655 L181.5008 364.6115 L179.9673 366.4033 L178.9458 367.5965 L178.5972 368.2431 L178.4838 368.8191 L178.5097 368.826 L179.6833 369.1493 L180.9944 369.2628 L182.7934 369.5718 L182.895 369.7721 L182.9677 369.9144 L183.242 371.4677 L183.1863 374.0838 L182.891 377.0419 L182.9931 377.2254 L183.6616 377.5431 L184.888 378.0267 L186.1024 378.5054 L186.9621 378.8442 L189.1197 379.5744 L191.2967 380.0655 L191.5698 380.3875 L191.5532 380.4961 L191.5109 380.7776 L191.4935 380.8918 L191.1958 381.4821 L190.7205 381.9315 L190.3131 381.9708 L189.252 381.6151 L184.9312 380.0755 L183.2089 379.5344 L181.7444 378.9959 L179.6175 378.3986 L177.3824 377.9075 L176.8313 377.588 L176.5796 377.2822 L176.5796 376.695 L176.6353 375.9954 L176.5808 375.4818 L174.9219 375.2234 L174.2017 375.0624 L173.4735 374.4009 L171.9171 372.0693 L170.4776 369.8938 L170.2218 368.9109 M172.3249 328.3964 L172.4125 328.105 L172.5198 327.3091 L172.8034 326.449 L173.361 325.1433 L174.0279 323.4455 L174.2481 323.1465 L174.5406 322.6846 L174.6963 322.4393 L173.4893 320.0107 L174.5277 320.0362 L175.0554 321.0412 L175.2959 321.6142 L175.4617 321.8501 L175.8691 321.6604 L175.9502 322.1597 L176.2161 322.5998 L176.8309 322.7209 L176.818 324.3587 L176.3751 325.602 L176.1568 326.0433 L175.5537 326.4572 L175.2362 326.6488 L175.1107 326.8479 L175.2394 327.2692 L175.1668 327.4858 L174.8533 327.9308 L174.5511 328.2111 L174.3797 328.5625 L174.5551 329.5312 L174.4317 329.9619 L173.9689 330.1635 L173.4949 330.259 L173.3134 329.9225 L173.0475 329.5306 L172.5779 329.0862 L172.3274 328.648 L172.3249 328.3964 M172.8183 183.1269 L172.9184 183.0376 L173.0705 182.9021 L174.8021 181.0643 L174.9933 180.9537 L175.2672 180.9362 L175.5496 180.9962 L175.922 181.166 L176.3145 181.4177 L176.6877 181.7 L178.0659 182.5417 L178.4665 182.9795 L179.024 183.2986 L179.9471 183.6695 L180.5898 183.8381 L181.1905 184.091 L181.7033 184.4145 L182.064 184.9522 L182.0656 185.3924 L181.8755 185.729 L181.6274 186.0431 L180.9061 186.3566 L180.6769 186.351 L180.426 186.3453 L179.5513 186.218 L175.8994 185.0565 L173.532 184.0224 L173.1718 183.8119 L172.9527 183.4397 L172.8183 183.1269 M176.4783 233.3235 L176.6934 232.7472 L177.3756 232.2234 L178.0546 231.83 L179.3557 230.8735 L179.9261 230.4627 L182.3032 229.4094 L183.6483 228.928 L184.1001 228.8587 L184.6125 228.7806 L186.4021 228.2973 L187.5301 227.8896 L188.6102 227.4532 L189.5126 226.9912 L192.2375 226.3518 L193.7588 226.2019 L195.0825 225.9435 L196.5341 225.9085 L197.1268 226.2176 L198.2899 226.2525 L199.6866 226.4155 L200.909 226.2631 L201.4282 226.225 L201.4262 226.4736 L201.1866 226.4935 L200.7178 226.639 L199.5107 226.7782 L198.5239 226.6571 L197.9373 226.5385 L197.2115 226.5422 L196.357 226.7114 L194.4201 227.244 L193.4974 227.3077 L189.127 228.1893 L186.7237 228.8899 L182.4484 230.2011 L181.0654 230.7542 L179.6578 231.5522 L178.3071 232.7285 L177.6874 233.5789 L177.09 234.32 L176.8338 234.2401 L176.4783 233.3235 M177.0262 234.7277 L177.1953 234.4611 L178.5137 233.0344 L180.3058 231.6646 L181.7557 230.8392 L183.858 230.1698 L186.3106 229.2951 L191.5262 228.042 L193.046 227.7173 L195.0325 227.3377 L196.3812 226.9968 L197.0687 227.003 L197.8497 227.0954 L197.7513 227.3371 L197.1417 227.6955 L196.5426 227.8634 L196.1674 228.0451 L195.1229 228.2418 L194.0953 228.4347 L190.8093 229.2526 L186.3634 230.7062 L184.8307 231.0664 L180.8129 233.321 L178.8473 234.5404 L177.4692 235.1379 L177.2626 235.1029 L177.1029 235.0299 L177.0262 234.7277 M187.8372 338.2194 L188.4827 336.6778 L198.6977 330.7733 L201.542 329.138 L204.6202 324.0073 L204.7009 323.9074 L201.6025 329.2815 L197.4027 332.0902 L193.9654 335.417 L190.8226 344.0364 L191.0727 346.845 L195.1838 352.4434 L189.81 347.6564 L188.2043 344.6855 L189.0313 338.7499 L187.8372 338.2194 M208.6102 169.4595 L209.4333 166.312 L210.1715 165.0193 L213.9114 167.0802 L223.836 169.5594 L228.4788 168.0856 L230.6541 165.8349 L241.313 166.6618 L246.243 160.4479 L246.3842 160.348 L245.9162 161.5346 L246.4774 162.1972 L249.266 165.4196 L249.2345 165.4658 L253.1983 170.1652 L248.9219 176.1353 L251.7584 177.8794 L256.4178 180.7439 L257.6842 182.4181 L258.0226 182.7266 L258.9001 183.8363 L259.4734 184.7836 L261.7512 187.7941 L261.8997 189.3327 L262.0276 189.4764 L262.2777 190.1551 L262.2511 190.4686 L262.0272 190.7821 L262.2745 193.6221 L262.5444 193.4984 L262.9595 193.426 L263.4106 193.5628 L264.1727 193.9755 L264.9868 194.101 L266.9475 196.823 L268.6944 198.9923 L269.1293 199.7016 L269.2241 199.9326 L269.237 200.0013 L269.2915 200.0769 L268.9437 201.1422 L268.4362 202.8406 L270.2638 203.7891 L270.3497 203.9358 L270.4094 204.589 L271.3571 207.57 L269.9491 209.8241 L269.6441 213.5449 L269.5582 215.1009 L269.5025 215.1509 L269.4125 216.1743 L263.9661 215.5312 L259.1975 213.4332 L256.1083 210.4491 L255.7731 210.1806 L254.6217 209.013 L254.0609 208.506 L253.3347 207.7692 L251.727 206.2818 L249.6275 204.4073 L248.4224 203.4013 L246.9361 202.0001 L246.3128 201.2814 L245.9562 200.7126 L245.9126 200.5633 L245.1215 199.7959 L238.2227 197.4855 L234.1197 192.8209 L227.9229 189.8485 L226.6561 186.3828 L224.1225 179.2077 L221.0858 177.8832 L220.1591 177.6621 L219.4914 177.4779 L218.628 177.1657 L217.4726 176.3076 L213.93 174.762 L213.5742 174.9344 L213.0594 174.8588 L211.7514 174.4667 L211.024 173.6011 L210.9304 173.4537 L210.3773 173.2127 L208.6102 169.4595 M226.8429 300.4725 L226.9445 299.9799 L227.1071 299.7558 L227.3617 299.5062 L227.7042 299.3457 L227.8442 299.3907 L227.9342 299.4194 L228.288 299.8014 L228.4994 300.3819 L228.8439 301.7646 L228.9085 302.5936 L228.6765 302.749 L228.4324 302.7858 L227.6864 302.8994 L227.1729 302.8919 L227.0236 302.842 L226.8735 301.5998 L226.8429 300.4725 M311.0878 268.4943 L314.3556 262.2157 L318.1395 263.9619 L320.7481 260.6631 L323.4233 262.556 L323.6271 264.4258 L324.3206 264.8384 L326.642 263.4849 L327.4311 264.0368 L325.407 265.6494 L325.7709 266.657 L324.6288 269.1916 L323.4572 268.676 L323.9559 266.8062 L323.5706 266.5565 L321.6099 267.6446 L323.1599 268.6298 L322.0492 274.0173 L311.0878 268.4943 M322.2134 261.1513 L322.3022 261.0626 L322.4462 260.9066 L322.6955 260.6288 L323.0655 260.939 L323.2696 261.1213 L323.1329 261.283 L323.0643 261.524 L322.9783 261.6433 L322.9037 261.6851 L322.8166 261.6707 L322.6524 261.5234 L322.2134 261.1513 M328.5353 260.7124 L328.547 260.5214 L329.2583 260.2773 L329.5786 260.2223 L329.9756 260.2286 L330.2677 260.266 L330.446 260.3634 L330.4351 260.8185 L330.2519 261.1806 L329.9482 261.3417 L329.7666 261.3467 L329.0711 261.1469 L328.6503 260.8991 L328.5353 260.7124 M341.9605 385.4417 L342.3975 385.3163 L342.7396 385.3594 L343.0664 385.3644 L343.3197 385.2589 L343.7006 385.2414 L344.1645 385.2658 L344.9863 385.433 L345.6137 385.3494 L346.116 385.579 L346.2673 386.0028 L346.2116 386.2231 L346.2362 386.5482 L346.2414 386.615 L346.0119 386.9494 L345.9538 387.38 L346.0462 387.7314 L346.1781 387.9392 L346.3447 387.9492 L346.4238 387.9136 L346.6897 387.5523 L347.2625 386.9644 L347.5211 386.7984 L347.7338 386.7204 L348.205 386.4764 L348.5451 386.1812 L348.7867 385.9709 L349.3265 385.3307 L349.4431 385.1241 L349.5436 385.0305 L349.7748 384.867 L350.0213 384.7834 L350.129 385.0598 L350.2036 385.6614 L350.2581 385.8305 L350.6873 387.1111 L350.8289 387.342 L350.8959 387.4518 L351.3094 388.1058 L351.5898 388.4715 L351.9828 388.8415 L353.1152 389.7664 L354.2614 390.5458 L354.1335 390.6425 L353.2387 390.7929 L352.8074 390.8934 L352.4483 391.1536 L352.3927 391.4095 L352.4157 392.1564 L352.3281 392.6376 L351.9202 392.9583 L351.7464 393.143 L351.3542 393.3508 L350.768 393.5231 L350.5312 393.6597 L349.6235 393.9499 L348.7028 394.3805 L348.3135 394.6157 L347.9972 394.7599 L347.2908 394.798 L346.993 394.6938 L346.6836 394.4785 L346.4395 394.1371 L346.4662 393.6947 L346.4109 393.0507 L345.3063 391.5942 L344.3658 390.0285 L343.5384 388.3617 L342.2837 386.4852 L342.0311 385.9535 L341.9682 385.4979 L341.9605 385.4417 M350.5373 385.0336 L350.5385 384.2436 L350.8374 383.4223 L351.0859 382.8969 L352.0828 382.4026 L353.07 382.256 L353.672 382.1979 L354.1964 382.2666 L354.9319 382.4631 L355.0554 382.5892 L355.2377 383.0142 L355.3402 383.725 L355.4802 384.3147 L356.0119 384.6536 L356.21 384.7796 L356.5227 385.2658 L356.891 385.9098 L356.8959 386.1469 L356.9019 386.4446 L356.8507 386.5706 L356.705 386.9276 L356.3867 387.9148 L356.5485 388.8303 L356.4605 389.2347 L356.4129 389.4525 L356.1265 389.674 L355.9869 389.7189 L355.2958 389.9592 L354.3873 389.9873 L353.5711 389.5542 L352.4927 388.678 L352.0364 388.4546 L352.0272 388.459 L351.6544 388.0696 L351.1093 387.4356 L351.0359 387.3158 L350.9076 387.1061 L350.791 386.7048 L350.5679 385.7669 L350.5522 385.7013 L350.5373 385.0336 M383.712 234.8176 L385.5663 233.5152 L388.1983 235.1779 L386.3663 237.011 L383.712 234.8176 M440.5429 198.4384 L441.4345 197.7378 L442.1357 197.0659 L443.0204 196.4976 L443.799 195.8682 L444.6249 196.2273 L445.3789 195.8488 L446.4573 195.0346 L447.6422 194.1391 L448.1558 193.6602 L448.2978 193.5565 L449.2023 192.8952 L450.0681 192.2689 L451.0 191.7456 L451.2203 191.6944 L452.3342 192.3707 L452.7977 192.6217 L452.8123 192.6323 L452.8381 192.6317 L453.1499 192.6248 L454.167 192.3763 L454.7464 192.2589 L455.8736 192.2539 L457.426 192.5443 L458.4947 192.7934 L460.6898 193.3055 L461.9941 193.6508 L464.2639 194.0642 L466.1302 194.1229 L467.8069 194.259 L468.8808 194.2877 L469.5146 194.4195 L469.6171 194.5981 L469.6526 194.6605 L469.5332 196.2347 L469.4513 197.3181 L468.7731 198.8998 L468.0457 201.2065 L467.6596 201.3233 L467.424 201.362 L467.0989 201.3538 L465.5222 200.9667 L462.4335 200.509 L456.7385 199.7185 L452.9664 199.1215 L451.6637 199.0366 L451.3284 199.1996 L451.1816 199.4131 L451.1743 199.6123 L451.2151 199.736 L451.8396 200.1799 L453.2944 200.4803 L456.2601 200.8062 L457.0367 201.1721 L457.4651 201.4488 L457.8403 201.4825 L458.0291 201.3757 L458.3087 201.3638 L459.4262 201.1497 L460.3957 201.1365 L460.6789 201.1497 L461.1259 201.2446 L461.9909 201.3551 L463.6152 201.4644 L465.4105 201.786 L466.5853 202.1019 L467.8896 202.7157 L468.6924 203.2521 L469.5425 203.894 L470.424 204.6352 L470.5095 204.6252 L470.4712 205.3065 L470.4369 205.4975 L470.3651 205.8965 L469.5655 206.0539 L467.9437 205.5737 L467.8343 205.5412 L467.6564 205.5824 L466.597 205.8278 L465.1821 206.1563 L464.5233 206.4479 L460.7451 208.1201 L458.8816 208.4354 L457.1335 208.5734 L455.78 208.6296 L454.3921 207.9527 L454.1811 207.8497 L452.2402 207.3152 L450.1673 206.6627 L446.6772 205.4107 L445.4257 205.0735 L444.0229 204.8993 L442.7073 204.8631 L442.3624 203.7623 L441.9569 202.9006 L441.5132 201.7597 L440.8648 199.4137 L440.5429 198.4384 M98.4976 115.4659 L98.9023 115.8126 L98.7857 115.579 L98.4976 115.4659 M259.6723 398.0934 L260.7225 399.2735 L265.8018 392.8872 L265.1575 393.2142 L264.6931 393.5374 L264.1577 394.1384 L263.7499 394.7 L263.3291 395.0326 L262.9656 395.2685 L262.6348 395.3315 L262.31 395.4563 L262.005 395.6579 L261.4144 396.3012 L259.9708 398.0903 L259.6723 398.0934" stroke-dasharray="" fill="none" fill-opacity="1.0" stroke="#ff0000" stroke-opacity="1.0" stroke-width="1.0px" stroke-linecap="butt" stroke-linejoin="miter" stroke-dashoffset="0.0px"/>
</g>
</svg>