<?xml version="1.0" standalone="no"?>
<!DOCTYPE svg PUBLIC "-//W3C//DTD SVG 1.1//EN" "http://www.w3.org/Graphics/SVG/1.1/DTD/svg11.dtd">
<svg width="512px" height="512px" version="1.1" xmlns="http://www.w3.org/2000/svg" xmlns:inkscape="http://www.inkscape.org/namespaces/inkscape">
<g id="carto_tests" inkscape:groupmode="layer" inkscape:label="carto_tests">
<path d="M512.0 180.5234 L502.251 175.8015 L500.5588 175.4803 L488.6447 174.1718 L486.2169 173.3103 L484.0458 171.967 L482.3209 169.9238 L479.4469 166.0278 L476.0615 161.9712 L473.8577 160.0539 L468.7146 156.6704 L458.3024 150.5677 L455.3313 149.0023 L452.5853 148.2053 L449.9344 147.9495 L446.2921 148.1716 L439.426 149.3542 L432.4945 148.9716 L428.3427 149.3542 L425.1159 149.9312 L413.3307 153.506 L405.5694 154.7531 L401.2798 156.031 L395.8501 157.861 L390.6287 159.7159 L387.7756 161.8086 L381.1732 167.5753 L378.4559 168.6053 L369.9273 168.4854 L367.9118 168.3585 L362.8649 167.8777 L358.3968 165.2992 L354.484 162.0763 L349.3547 157.0065 L345.88 154.1345 L343.9142 152.9102 L341.9503 152.2173 L339.7336 152.0616 L337.3127 152.5464 L331.7334 154.3546 L324.5501 156.7775 L321.5502 158.4509 L318.4245 161.5171 L317.335 163.5405 L316.5201 167.2234 L315.7865 169.8614 L315.1491 171.5308 L314.1488 173.2657 L312.3425 175.4942 L309.5975 177.8051 L305.0878 181.2936 L300.6842 183.5866 L298.6252 185.1113 L297.2125 186.6162 L295.9684 188.5375 L293.3433 194.0395 L292.0862 195.5949 L290.7975 196.6973 L289.4145 197.073 L287.9364 197.1206 L285.6414 196.5387 L282.3878 195.7069 L278.2539 195.927 L275.5505 195.8784 L272.1234 195.0298 L269.2316 193.52 L267.582 193.0015 L266.0563 192.9232 L264.6049 193.0441 L262.077 194.8494 L257.3106 200.5913 L249.692 206.5127 L246.4483 212.0315 L240.3386 223.1228 L238.7158 225.7429 L237.5222 227.2032 L235.2153 228.7903 L233.1919 230.0345 L228.947 231.6573 L223.3012 233.6143 L220.226 234.9526 L218.2542 236.2146 L215.5647 238.349 L212.9416 239.9054 L210.714 240.8095 L205.3102 242.0269 L203.8687 242.238 L202.3351 242.1875 L201.318 242.0427 L199.6684 241.559 L198.216 240.8045 L194.4856 238.5651 L190.5449 236.4218 L186.1433 234.4401 L183.2436 233.4368 L180.7762 232.9421 L173.0456 231.6107 L163.5435 229.9948 L152.3332 228.1757 L146.8184 227.5888 L144.5194 227.343 L141.8398 227.1923 L140.5193 227.1427 L138.7577 227.219 L135.9611 227.334 L123.9369 227.8714 L113.8906 228.6674 L108.8753 229.6984 L98.8002 232.9818 L94.4303 234.5382 L92.8303 234.8049 L90.1179 234.8941 L87.2727 234.2715 L83.7822 232.5813 L76.3936 228.2401 L69.48 222.7461 L65.4025 218.5606 L63.1353 215.7164 L62.2242 213.1131 L61.9794 209.7782 L61.0009 201.3765 L56.0293 201.6927 L53.7898 202.3589 L45.1809 206.1102 L41.9184 207.5595 L41.0043 208.0731 L39.5213 209.4302 L38.41 211.2008 L37.3145 213.6078 L36.344 216.3727 L34.8004 221.956 L31.5825 230.4053 L30.5991 235.8498 L29.1755 241.6928 L27.8778 245.2458 L25.4817 250.7954 L9.4268 284.6759 L6.3417 291.6788 L4.2301 296.6385 L2.9304 301.395 L2.5379 303.924 L2.5696 306.2745 L2.8462 309.2465 L3.2606 311.492 L3.8405 315.045 L4.2281 317.676 L5.0569 323.409 L5.6438 326.3791 L6.5766 329.3165 L7.905 332.9647 L8.6704 335.7761 L8.9261 338.5252 L8.5802 344.1342 L7.801 349.8137 L6.6113 356.7433 L5.4733 362.3047 L0.0 364.0505" stroke-dasharray="" fill="none" fill-opacity="1.0" stroke="#ffffff" stroke-opacity="1.0" stroke-width="1.0px" stroke-linecap="butt" stroke-linejoin="miter" stroke-dashoffset="0.0px"/>
</g>
</svg>