<?xml version="1.0" standalone="no"?>
<!DOCTYPE svg PUBLIC "-//W3C//DTD SVG 1.1//EN" "http://www.w3.org/Graphics/SVG/1.1/DTD/svg11.dtd">
<svg width="800px" height="800px" version="1.1" xmlns="http://www.w3.org/2000/svg" xmlns:inkscape="http://www.inkscape.org/namespaces/inkscape">
<rect x="0" y="0" width="800px" height="800px" fill="#ffffff"/>
<g id="layer" inkscape:groupmode="layer" inkscape:label="layer">
<path d="M180.4577 499.246 L182.6438 509.7801 L186.6106 519.7129 L190.489 528.5813 L194.165 539.4989 L562.1684 800.0 L619.5423 686.8645 L589.7188 619.8288 L386.3376 584.9332 L386.6367 410.9051 L380.6706 410.5895 L381.6674 376.7631 L386.7669 376.2526 L386.9206 354.8569 L387.7928 258.5803 L479.2376 258.3447 L589.343 258.2498 L590.2795 238.0072 L590.231 236.7208 L589.9176 234.5562 L586.3141 210.5417 L580.099 178.6256 L577.9752 173.9707 L572.8362 165.0075 L571.7367 163.4284 L569.5265 162.3071 L567.3546 160.1323 L563.5582 152.268 L558.7624 146.9196 L554.1879 143.5145 L541.6678 126.5582 L538.8142 125.0765 L533.9184 126.5646 L523.6986 118.1696 L501.7718 89.9088 L457.045 31.4391 L406.9407 0.0 L388.7345 1.3466 L383.5578 4.6283 L381.9151 8.6756 L302.2872 50.7467 L282.13 45.6996 L270.7045 95.0504 L258.1131 103.591 L244.5762 211.2361 L235.6241 212.5625 L233.6474 267.6792 L221.1352 270.8406 L208.8533 260.5396 L199.0719 262.3647 L207.8762 304.038 L199.878 324.8338 L202.6922 349.7079 L199.5478 380.3758 L202.6446 461.9623 L210.1944 463.2184 L211.5889 498.5359 L180.4577 499.246" stroke-dasharray="" fill="none" fill-opacity="1.0" stroke="#ff0000" stroke-opacity="1.0" stroke-width="2.0px" stroke-linecap="butt" stroke-linejoin="miter" stroke-dashoffset="0.0px"/>
</g>
</svg>