<?xml version="1.0" standalone="no"?>
<!DOCTYPE svg PUBLIC "-//W3C//DTD SVG 1.1//EN" "http://www.w3.org/Graphics/SVG/1.1/DTD/svg11.dtd">
<svg width="512px" height="512px" version="1.1" xmlns="http://www.w3.org/2000/svg" xmlns:inkscape="http://www.inkscape.org/namespaces/inkscape">
<rect x="0" y="0" width="512px" height="512px" fill="#800080"/>
<g id="world" inkscape:groupmode="layer" inkscape:label="world">
<path d="M26.9013 41.0972 L26.9083 41.0573 L26.8492 41.0687 L26.9013 41.0972 M26.6318 41.0736 L26.8515 41.0043 L26.0946 41.1779 L26.6318 41.0736 M30.0246 40.992 L29.7639 40.904 L29.8295 41.0336 L30.0246 40.992 M29.5095 40.7809 L29.5198 40.719 L29.4549 40.741 L29.5095 40.7809 M29.3388 40.7874 L29.4052 40.7377 L29.3238 40.7157 L29.3388 40.7874" stroke-dasharray="" fill="#ffff00" fill-opacity="0.6" stroke="none" stroke-opacity="1.0" stroke-width="0.0px" stroke-linecap="butt" stroke-linejoin="miter" stroke-dashoffset="0.0px"/>
<path d="M316.8466 187.5731 L316.7684 187.1452 L316.7485 187.5594 L316.8466 187.5731 M330.4857 186.7834 L327.8072 187.2944 L328.026 187.6514 L330.4857 186.7834 M317.8327 178.3737 L316.8211 176.7427 L316.7692 187.0641 L322.9977 188.3674 L326.1045 187.76 L326.7184 186.391 L320.4006 183.3523 L317.0315 179.5175 L317.8327 178.3737 M335.9889 121.5376 L335.9558 121.1584 L335.3734 120.9751 L335.9889 121.5376 M335.6531 120.8937 L335.6974 120.7472 L335.2668 120.7177 L335.6531 120.8937 M324.9833 64.5174 L323.6323 63.5019 L320.8999 66.7028 L321.4198 67.2621 L320.4669 70.4228 L316.9707 72.774 L317.5766 73.8493 L316.9177 78.2353 L317.7608 79.5408 L316.2714 80.1963 L313.8691 84.3121 L312.7996 87.2527 L313.3677 90.1495 L311.3726 93.449 L312.6076 100.1187 L313.5305 100.8285 L313.4222 103.7536 L311.2747 107.2575 L311.6819 110.3685 L309.5174 112.867 L310.5446 119.0724 L308.9027 120.3569 L308.066 122.7966 L307.3406 127.0707 L307.979 132.2441 L306.8247 132.982 L306.8105 135.7676 L307.9601 136.4645 L307.6124 141.1277 L309.7371 141.7974 L309.2417 142.8396 L306.9764 142.716 L309.1974 144.8246 L307.8242 146.2668 L308.1402 150.4982 L307.3698 151.0644 L307.5737 152.7588 L306.1752 153.8013 L305.6743 155.7089 L306.383 157.5013 L305.5952 159.4896 L302.6955 162.6813 L303.883 168.0759 L306.3632 167.6106 L306.0606 171.5223 L307.4544 173.7381 L312.8936 173.7407 L317.3212 175.5101 L315.7673 172.0307 L313.9872 172.0358 L315.8242 171.798 L315.211 169.0548 L314.5703 169.5397 L315.9008 166.44 L317.5245 165.3658 L315.7017 164.7686 L318.8701 164.6531 L319.774 160.484 L324.8719 155.8835 L323.5737 155.4497 L324.6309 155.0168 L324.894 152.6239 L321.9429 151.7976 L319.9826 149.5868 L319.7601 147.7012 L321.566 144.6719 L325.391 143.7075 L325.1437 142.5057 L326.4016 140.8946 L326.1937 138.2855 L329.1164 135.7006 L327.2233 134.4379 L328.8233 133.8562 L329.7082 135.3056 L331.1486 134.2736 L330.6753 132.2206 L328.67 133.5863 L327.0724 132.227 L326.7287 127.5027 L330.6216 128.7016 L334.5351 127.7065 L335.1214 126.6841 L334.2522 125.4493 L335.4516 122.5056 L334.8559 121.8786 L335.5875 122.036 L334.5596 119.9125 L338.2202 120.6333 L346.1657 118.7704 L348.2406 117.4946 L350.8251 113.0745 L350.6015 111.0113 L348.7952 109.759 L349.3309 107.5111 L345.6861 104.802 L345.9303 103.1359 L345.5091 101.2916 L345.8078 99.8621 L346.6035 99.7084 L346.4555 97.6745 L347.5729 91.9899 L348.1372 90.1309 L353.3788 83.7472 L358.9467 80.2238 L358.7887 75.6249 L356.6964 75.2846 L356.4136 78.0226 L353.4617 81.2168 L345.3024 80.8244 L348.2264 75.2096 L347.716 74.037 L338.4668 69.7745 L333.8133 64.9082 L333.3349 64.1653 L330.123 64.1773 L329.0319 66.8632 L328.2757 64.8339 L326.5701 64.4654 L324.9833 64.5174" stroke-dasharray="" fill="#ffff00" fill-opacity="0.6" stroke="none" stroke-opacity="1.0" stroke-width="0.0px" stroke-linecap="butt" stroke-linejoin="miter" stroke-dashoffset="0.0px"/>
<path d="M326.5701 64.4654 L328.2757 64.8339 L329.0319 66.8632 L330.123 64.1773 L333.3349 64.1653 L333.8133 64.9082 L336.3769 57.0073 L343.9052 56.1138 L346.5916 57.5605 L346.5703 58.5896 L347.4525 58.0165 L346.6777 57.2985 L348.3844 52.6738 L347.7531 50.8479 L345.8915 49.8227 L346.0906 46.9411 L340.8774 46.8933 L339.708 43.4498 L340.5969 43.4383 L339.9941 39.6596 L338.378 38.7402 L336.1169 38.8912 L332.5867 36.2782 L328.8343 35.7293 L327.1348 34.4091 L325.9938 32.2552 L326.0247 27.7175 L322.462 28.3212 L316.9182 31.7905 L314.1164 31.3412 L316.6609 35.8444 L315.806 36.919 L316.1513 40.8086 L314.6911 42.5813 L315.3438 43.8869 L314.5331 44.9853 L316.2382 47.1206 L313.9729 49.7201 L314.3119 50.586 L314.3577 50.9747 L315.5295 52.1799 L315.9956 55.2294 L317.3333 56.3592 L316.4247 59.3141 L318.0413 62.0231 L318.9293 66.7226 L320.8999 66.7028 L323.6323 63.5019 L324.9833 64.5174 L326.5701 64.4654" stroke-dasharray="" fill="#ffff00" fill-opacity="0.6" stroke="none" stroke-opacity="1.0" stroke-width="0.0px" stroke-linecap="butt" stroke-linejoin="miter" stroke-dashoffset="0.0px"/>
<path d="M373.9006 82.4431 L374.2767 81.0548 L373.9954 81.1892 L373.9006 82.4431 M373.8137 77.8744 L373.937 77.1624 L373.4534 77.6142 L373.8137 77.8744 M374.6631 75.01 L374.7366 74.5463 L374.5193 74.7798 L374.6631 75.01 M375.8143 73.5658 L376.5855 72.8027 L375.9881 73.1675 L375.8143 73.5658 M380.3512 70.3216 L380.235 70.1374 L379.9712 70.2005 L380.3512 70.3216 M383.6405 69.7996 L383.7013 69.7529 L383.612 69.7262 L383.6405 69.7996 M383.3718 69.6692 L382.7445 70.134 L383.3789 70.2178 L383.3718 69.6692 M386.5916 67.793 L386.1942 67.4734 L385.7944 67.7861 L386.5916 67.793 M427.1218 59.5856 L427.087 59.5696 L427.0965 59.5991 L427.1218 59.5856 M425.8268 59.6143 L425.7162 59.5426 L425.758 59.6573 L425.8268 59.6143 M401.3179 39.2732 L401.3148 39.0163 L401.0896 39.0326 L401.3179 39.2732 M401.246 38.9432 L401.3282 38.4256 L400.9568 38.4614 L400.9497 38.6498 L401.1678 38.7569 L401.1109 38.9432 L401.246 38.9432 M401.7643 37.6293 L402.2281 37.2627 L402.0812 36.9846 L401.7643 37.6293 M406.3786 31.8581 L406.6505 31.3453 L406.3391 31.7977 L406.3786 31.8581 M412.8031 20.171 L412.8237 20.1001 L412.7605 20.167 L412.8031 20.171 M412.8592 19.976 L412.8434 19.9449 L412.834 20.0006 L412.8592 19.976 M419.6954 11.0552 L419.8779 10.9316 L419.7712 10.9475 L419.6954 11.0552 M385.1085 8.5602 L385.1046 8.216 L384.9782 8.4621 L385.1085 8.5602 M385.1765 8.6868 L385.468 7.7113 L385.2018 7.9732 L385.1765 8.6868 M392.3887 7.8585 L392.3358 7.6425 L392.0087 7.6188 L392.3887 7.8585 M387.7167 6.6207 L387.9388 6.4372 L387.5863 6.6871 L387.7167 6.6207 M367.3205 5.4363 L366.5114 5.2023 L366.9673 5.6719 L367.3205 5.4363 M372.5535 5.2038 L372.4642 4.8963 L372.1758 5.2861 L372.5535 5.2038 M372.7328 5.109 L372.8988 4.4869 L372.4911 4.8513 L372.7328 5.109 M384.9877 4.6197 L384.8162 4.441 L384.6163 4.6062 L384.6289 4.7454 L384.9608 4.728 L384.9877 4.6197 M364.0186 4.4956 L364.3322 4.3138 L364.0051 4.0956 L363.5176 4.6845 L364.0186 4.4956 M362.899 4.3454 L363.6093 4.0063 L362.8626 4.1715 L362.899 4.3454 M373.6644 4.2237 L373.5964 3.9139 L373.485 4.1225 L373.6644 4.2237 M373.9709 4.3383 L373.8927 3.8862 L373.7813 4.1027 L373.9709 4.3383 M384.0355 3.9882 L384.3382 3.6499 L384.0695 3.589 L384.0355 3.9882 M382.1961 3.8301 L382.2167 3.2057 L382.0389 3.8712 L382.1961 3.8301 M374.4988 3.4499 L374.5493 3.0635 L374.2941 3.058 L374.1424 3.3077 L374.4988 3.4499 M379.7365 2.9023 L379.904 2.8628 L379.8566 2.5277 L379.5958 2.7656 L379.6385 2.8944 L379.7365 2.9023 M366.9697 2.4645 L366.4142 3.1054 L366.7341 2.9521 L366.878 2.8209 L366.8974 2.6156 L367.1585 2.474 L366.9697 2.4645 M365.8659 3.4523 L366.2522 3.2539 L366.3558 2.3942 L366.2254 2.9149 L365.899 3.2128 L365.7947 3.4191 L365.8659 3.4523 M367.1601 2.4036 L367.3805 2.0702 L367.153 2.0741 L367.1601 2.4036 M375.6515 2.0686 L375.8191 1.9145 L375.6587 1.811 L375.5496 1.9343 L375.6041 2.082 L375.6515 2.0686 M376.4109 2.0172 L376.4986 1.766 L376.4187 1.6316 L376.2663 1.8221 L376.3295 2.033 L376.4109 2.0172 M366.558 2.7292 L367.4572 1.6277 L366.7334 1.9754 L366.558 2.7292 M366.7879 1.875 L366.8614 1.5945 L366.6536 1.8031 L366.7879 1.875 M364.3694 4.2008 L365.5585 3.5282 L366.1606 2.8849 L366.5114 1.905 L366.3652 1.5052 L365.8469 1.54 L365.199 2.0876 L365.0497 3.0817 L364.416 3.3535 L364.2248 4.0703 L364.3694 4.2008 M365.7861 1.5384 L366.2522 1.2927 L365.7632 1.4214 L365.7861 1.5384 M367.051 1.6142 L367.5678 1.092 L367.2794 1.0959 L367.051 1.6142 M366.6268 1.536 L367.085 1.0066 L366.8345 0.8051 L366.6268 1.536 M367.1972 0.9553 L367.2502 0.8288 L366.8622 0.708 L367.1972 0.9553 M370.5932 0.6479 L367.9067 0.7941 L367.5109 2.7648 L368.2133 3.0414 L367.5559 3.2769 L367.4919 4.098 L368.1335 5.1232 L372.1489 4.5912 L373.6826 3.0279 L374.4055 0.8225 L370.5932 0.6479 M367.4927 1.0208 L367.6476 0.6447 L367.1949 1.0193 L367.4927 1.0208 M365.8508 1.3788 L366.5422 0.8115 L366.6402 0.3453 L365.8508 1.3788 M368.1936 0.1778 L366.8559 0.6376 L367.3379 0.8051 L368.1936 0.1778 M367.213 0.1351 L367.7938 -0.068 L367.4177 -0.173 L367.213 0.1351 M371.1273 0.3824 L371.1952 -0.2007 L370.1973 0.1833 L371.1273 0.3824 M368.482 0.0648 L368.4551 -0.4172 L367.9479 -0.4867 L368.482 0.0648 M370.8128 -0.6471 L368.6613 -0.3113 L369.8212 0.2054 L370.8128 -0.6471 M369.0864 -0.6526 L369.5399 -0.9102 L369.2539 -0.9221 L369.0864 -0.6526 M368.5934 -0.5997 L368.7143 -1.7675 L368.252 -0.6432 L368.5934 -0.5997 M369.1022 -0.9979 L369.5968 -1.8379 L368.9015 -1.4404 L369.1022 -0.9979 M369.7572 -2.5079 L369.2073 -2.5008 L369.0161 -2.1381 L369.7572 -2.5079 M369.6711 -2.5158 L369.6577 -2.6115 L369.5107 -2.6194 L369.6711 -2.5158 M369.7509 -2.6605 L369.9263 -2.9995 L369.566 -2.7909 L369.7509 -2.6605 M368.6495 -5.3525 L368.7648 -6.0229 L368.3413 -5.7612 L368.6495 -5.3525 M368.4259 -6.0308 L368.6242 -6.2411 L368.3066 -6.268 L368.4259 -6.0308 M341.0536 -14.8606 L339.2558 -14.8252 L339.6843 -14.088 L338.5316 -12.8718 L333.523 -11.4797 L333.1556 -10.1335 L331.8242 -11.2761 L329.9049 -11.0623 L327.6934 -12.1895 L329.4119 -10.2309 L329.8275 -7.0635 L331.7728 -6.8832 L331.682 -6.1209 L325.6352 -1.8481 L325.4336 -2.8138 L323.3793 -2.135 L321.7866 -3.4752 L321.2041 -3.3377 L320.2157 -6.0996 L318.8203 -4.9651 L318.0191 -5.626 L318.1424 -4.905 L313.3266 -4.866 L313.3377 -3.0501 L314.9653 -2.9537 L315.3786 -1.8347 L312.7632 -1.6806 L312.7237 0.448 L314.0053 1.472 L314.6579 3.8064 L313.0114 12.0626 L310.7105 11.8045 L304.7766 14.5965 L304.0031 18.3776 L302.2388 19.6082 L301.4811 21.5133 L304.4575 25.6579 L303.7716 26.8794 L306.1578 27.1309 L306.7907 28.6036 L309.1943 28.5795 L311.425 26.9393 L311.0929 31.5095 L314.1164 31.3412 L316.9182 31.7905 L322.462 28.3212 L326.0247 27.7175 L325.9938 32.2552 L327.1348 34.4091 L328.8343 35.7293 L332.5867 36.2782 L336.1169 38.8912 L338.378 38.7402 L339.9941 39.6596 L340.5969 43.4383 L339.708 43.4498 L340.8774 46.8933 L346.0906 46.9411 L345.8915 49.8227 L347.7531 50.8479 L348.3844 52.6738 L346.6777 57.2985 L347.4525 58.0165 L346.5703 58.5896 L347.55 61.032 L347.0646 64.4565 L353.1386 65.0619 L354.3846 70.2195 L357.2417 70.0959 L357.4597 72.4765 L356.6964 75.2846 L358.7887 75.6249 L358.9467 80.2238 L353.3788 83.7472 L348.1372 90.1309 L350.4031 89.869 L352.6857 93.0892 L353.9002 92.3131 L358.7421 96.0524 L360.9798 98.6179 L359.7574 100.0348 L360.1798 102.0559 L362.2779 99.9725 L364.1877 93.9527 L366.1622 92.1466 L366.1321 89.5558 L367.1372 90.9036 L368.0458 90.1495 L368.1643 91.0282 L366.2183 94.3934 L363.8431 95.5694 L363.8827 96.7452 L367.646 93.0936 L370.4818 87.4594 L373.263 84.7045 L374.0863 80.4867 L373.184 76.8456 L373.8113 77.2028 L373.2748 76.2532 L374.4387 75.2945 L373.4226 74.8166 L375.0929 74.3366 L374.8733 74.9329 L375.3924 73.5283 L380.0668 69.9456 L382.8101 69.8289 L385.2026 68.3554 L384.96 67.4021 L389.0678 67.2441 L389.4732 66.2299 L389.4273 67.1137 L392.4354 67.0039 L393.2073 65.2378 L395.4584 64.1381 L395.49 61.8366 L398.7872 56.9695 L399.2359 52.732 L400.6945 51.119 L400.4788 49.52 L401.4309 45.7422 L400.8762 42.1148 L401.2926 39.977 L400.956 40.7402 L401.1717 39.2911 L400.8383 38.8725 L400.9063 38.4021 L401.1899 38.4094 L401.8481 36.9328 L401.3479 36.4401 L401.9437 36.0677 L402.5213 37.3576 L403.7934 36.2288 L406.3194 30.7548 L406.6939 31.297 L408.4812 30.0136 L411.6117 26.2244 L413.011 21.7707 L411.2569 14.8535 L406.2594 14.0079 L398.2309 8.0997 L394.6722 8.6043 L388.7004 6.7314 L385.8781 8.0538 L386.6643 6.8453 L385.8291 7.1893 L385.6482 8.3379 L384.6076 9.3847 L385.1883 7.2755 L385.8204 6.6547 L384.9774 6.6325 L385.4491 5.6355 L385.3116 5.2125 L384.8675 5.1714 L384.5712 4.8505 L384.5104 4.49 L384.1383 4.5564 L384.3974 4.0545 L383.0115 4.9509 L383.0708 3.736 L382.6852 4.3968 L382.7287 3.7289 L382.0199 3.898 L381.9077 3.3567 L381.5767 3.6183 L381.2275 3.058 L381.0323 3.4428 L380.4168 3.367 L380.6096 2.7237 L379.8803 2.9671 L379.6314 2.9363 L379.569 2.8422 L379.437 2.9284 L378.8184 2.0275 L378.4502 2.583 L378.4399 2.0038 L377.084 1.6569 L377.1907 2.312 L376.768 1.811 L376.2433 2.1563 L376.1793 1.807 L375.5891 2.2053 L375.2944 2.022 L374.6354 2.6881 L374.5232 3.7218 L374.1037 3.7036 L374.0357 4.1486 L374.942 4.1873 L374.2902 4.2656 L374.242 4.7272 L373.4834 4.1794 L371.2284 7.2984 L371.7981 4.86 L367.8494 5.1506 L367.7685 6.3178 L366.9791 5.8782 L367.3711 7.1379 L366.0587 5.0173 L365.6478 6.4689 L365.9749 4.6853 L367.8894 5.0291 L367.4548 4.0956 L367.3363 2.5988 L366.9554 2.632 L366.9072 2.7 L366.9539 2.8406 L366.2017 3.4657 L363.4959 4.8137 L362.0614 4.5612 L363.4275 3.8269 L363.8969 4.0395 L364.2927 3.8056 L364.3164 3.318 L364.9067 2.9205 L364.9422 2.1405 L366.1977 0.4061 L370.0512 -3.329 L369.4309 -3.4539 L369.9769 -4.8592 L368.5112 -5.1944 L367.8443 -6.1589 L366.6813 -11.1352 L365.4044 -12.5033 L365.6596 -11.3086 L364.9875 -11.4844 L361.5012 -6.2475 L356.6826 -6.6271 L352.8083 -7.2067 L352.9837 -5.3857 L351.3724 -5.5321 L348.943 -5.6197 L344.7269 -3.3725 L342.3494 -4.9248 L341.3633 -7.6647 L342.5604 -11.1003 L342.2554 -12.4962 L340.9138 -12.8631 L341.0536 -14.8606" stroke-dasharray="" fill="#ffff00" fill-opacity="0.6" stroke="none" stroke-opacity="1.0" stroke-width="0.0px" stroke-linecap="butt" stroke-linejoin="miter" stroke-dashoffset="0.0px"/>
<path d="M320.0197 192.2662 L318.9831 192.3675 L319.6816 192.6365 L320.0197 192.2662 M320.817 192.5928 L320.7198 192.2605 L320.2449 192.2817 L320.817 192.5928 M321.1796 192.714 L321.1212 192.1284 L320.9339 192.4942 L321.1796 192.714 M320.9465 192.0497 L320.9276 191.9148 L320.7356 192.0694 L320.9465 192.0497 M320.6597 191.7211 L320.4077 190.9818 L319.8396 191.6748 L320.6597 191.7211 M319.3497 191.2321 L319.7447 190.81 L319.4651 190.6146 L319.3497 191.2321 M313.7691 190.1673 L313.92 190.017 L313.5581 189.7932 L313.7691 190.1673 M312.9307 189.9252 L313.0532 189.5405 L312.587 189.5835 L312.9307 189.9252 M321.7786 189.7654 L321.7675 189.2493 L321.2128 189.485 L321.7786 189.7654 M322.6414 189.528 L323.0704 189.079 L322.4857 189.1039 L322.6414 189.528 M321.9437 188.7001 L321.8141 188.2419 L321.2168 188.1248 L321.9437 188.7001 M317.4495 187.91 L312.7941 188.8881 L315.2379 190.6676 L314.5102 188.9157 L316.2919 189.0486 L315.9063 190.404 L318.4253 191.6762 L318.1242 190.0977 L316.4586 189.4601 L317.9789 189.4296 L315.5595 188.395 L317.4495 187.91 M319.202 187.7119 L317.5411 187.8357 L318.3067 189.2895 L321.2697 188.7885 L319.202 187.7119 M311.4418 187.9625 L312.0023 187.6391 L309.9994 187.9458 L312.1367 188.6876 L310.8006 188.1868 L311.4418 187.9625 M313.5652 188.3026 L315.26 187.9045 L313.0825 187.6116 L313.5652 188.3026 M309.7402 187.477 L308.7454 187.5415 L310.2941 187.7367 L309.7402 187.477 M311.1561 187.6391 L311.7693 187.4756 L310.7682 187.4893 L311.1561 187.6391 M307.1399 186.3077 L306.9116 186.4142 L307.3959 186.8491 L307.1399 186.3077 M306.323 185.0069 L305.6624 184.8713 L305.882 185.3041 L306.323 185.0069 M312.0885 184.5503 L312.2662 184.3123 L311.435 183.9922 L312.0885 184.5503 M309.312 183.5811 L308.0549 183.9936 L309.7134 185.0829 L310.0168 183.7104 L309.312 183.5811 M306.2834 184.4651 L306.6113 183.9315 L306.3419 183.5595 L305.7461 184.1961 L306.2834 184.4651 M303.8033 183.8371 L303.6539 183.3859 L303.0171 183.5649 L303.8033 183.8371 M308.1355 182.9411 L306.4675 182.9276 L307.6361 184.8632 L307.3319 183.3065 L308.1355 182.9411 M311.6318 182.5387 L311.3687 181.0983 L310.3897 183.4586 L311.3971 184.3218 L310.9704 182.8579 L311.6318 182.5387 M301.9891 181.2393 L302.4 180.9108 L301.9172 180.5841 L301.9891 181.2393 M304.6084 180.4701 L302.6836 182.033 L303.6444 181.8006 L303.9786 183.2689 L305.1172 182.4383 L304.723 183.8749 L306.8033 182.2549 L304.7996 180.6067 L304.7016 181.6791 L304.6084 180.4701 M303.036 180.6877 L302.0744 180.4687 L302.9483 181.1635 L303.036 180.6877 M300.9659 180.0051 L301.342 179.5822 L300.8181 179.8517 L300.9659 180.0051 M303.1806 177.8572 L302.2159 177.9266 L303.2431 178.211 L303.1806 177.8572 M310.8243 177.9279 L311.1285 177.5877 L310.6678 177.8533 L310.8243 177.9279 M300.4855 178.1887 L304.0995 180.1137 L299.392 177.2832 L300.4855 178.1887 M310.2799 186.6712 L316.7485 187.5594 L316.7684 187.1452 L316.7692 187.0641 L316.8211 176.7427 L314.5371 175.8846 L313.1243 177.6086 L311.6808 177.3603 L312.6052 177.9777 L311.6247 178.4905 L311.6184 180.1772 L314.7196 180.0964 L312.3642 182.3124 L315.757 185.3136 L315.2284 186.043 L314.6627 186.5632 L315.0475 185.3843 L313.2895 184.5869 L313.5431 185.9286 L312.7316 184.4218 L312.3176 184.748 L312.4827 185.296 L310.385 183.8614 L312.5167 185.8863 L307.1913 185.4686 L310.2799 186.6712 L310.4134 186.5618 L310.6947 186.5358 L310.2799 186.6712 M302.0586 177.0093 L302.2443 175.6306 L301.2898 176.5795 L302.0586 177.0093 M299.4078 175.2269 L299.7475 174.7195 L299.1771 174.8201 L299.4078 175.2269 M302.0571 175.6008 L302.1108 174.9815 L301.2472 174.5069 L302.0571 175.6008 M300.9588 174.3898 L300.3204 174.4039 L301.696 175.3213 L300.9588 174.3898 M299.3422 174.6293 L299.8155 174.0977 L299.2774 174.319 L299.3422 174.6293 M300.4855 174.1144 L300.5037 174.0168 L300.3567 173.9757 L300.4855 174.1144 M299.471 174.1607 L300.1236 173.5598 L299.9411 173.4227 L299.471 174.1607 M302.3794 174.8769 L302.1708 174.0733 L301.2401 173.4009 L302.3794 174.8769 M299.0546 174.4013 L299.8068 173.022 L299.3865 172.9913 L299.0546 174.4013 M298.4114 173.3036 L298.7449 172.4843 L298.4651 172.5609 L298.4114 173.3036 M301.0994 173.5329 L301.2488 173.1806 L300.0739 172.441 L301.0994 173.5329 M302.0895 172.9236 L302.099 172.5073 L301.6818 172.2065 L302.0895 172.9236 M299.2893 172.9351 L298.8586 172.1173 L298.7528 174.3035 L299.2893 172.9351 M301.3546 171.7052 L300.8339 172.3823 L301.6818 172.7702 L301.3546 171.7052 M298.6658 170.9834 L298.0827 170.5444 L297.7841 172.074 L298.6658 170.9834 M301.1761 171.252 L301.0244 170.4838 L300.7676 170.5507 L301.1761 171.252 M302.1329 170.8732 L302.1045 170.3714 L301.7544 170.5482 L302.1329 170.8732 M301.3807 170.9087 L301.602 170.2944 L301.2345 170.2111 L301.3807 170.9087 M299.9862 170.4534 L299.2529 170.1367 L298.6066 171.3154 L299.9862 170.4534 M298.6793 169.9904 L299.0728 169.8002 L298.8373 169.634 L298.6793 169.9904 M300.3401 170.1316 L300.1837 169.3159 L299.7957 169.5384 L300.3401 170.1316 M300.7621 170.3108 L300.9667 170.0736 L300.5945 168.8253 L300.7621 170.3108 M300.3828 168.5585 L298.767 169.0335 L299.4615 169.6944 L300.1395 169.1778 L300.3575 169.5938 L300.3828 168.5585 M299.5508 168.695 L299.3809 167.845 L298.7954 167.976 L299.5508 168.695 M298.684 168.3483 L298.7243 167.6766 L298.4651 167.6218 L298.684 168.3483 M299.6582 167.3366 L299.8566 167.0841 L299.5603 167.0369 L299.6582 167.3366 M298.3925 167.0133 L297.2017 167.6704 L297.8449 168.2221 L298.3925 167.0133 M300.476 166.9015 L299.6053 166.8481 L300.3062 167.0456 L300.0462 167.9848 L300.9612 168.5034 L300.476 166.9015 M299.4109 166.94 L299.9648 166.4102 L299.3691 166.4412 L299.4109 166.94 M298.5284 165.4558 L297.5296 164.8781 L298.2582 165.8089 L297.3622 166.3334 L299.2648 165.3781 L298.5284 165.4558 M297.7936 163.269 L296.9829 163.7616 L298.172 164.2872 L297.7936 163.269 M297.2997 162.7215 L297.2887 162.4319 L297.02 162.3601 L297.2997 162.7215 M300.6743 162.78 L300.2714 162.1973 L300.318 163.075 L300.6743 162.78 M298.8926 161.6186 L298.7449 160.4707 L297.9832 160.9883 L298.8926 161.6186 M297.8536 160.771 L297.6458 160.2731 L296.7996 161.2784 L297.8536 160.771 M297.8662 159.8594 L296.7988 160.071 L297.2444 160.537 L297.7493 160.1383 L297.9334 160.6913 L297.8662 159.8594 M298.1657 160.3346 L298.4328 159.8558 L297.7778 159.4704 L298.1657 160.3346 M298.7251 159.2222 L299.1628 158.8738 L298.6911 158.8188 L298.7251 159.2222 M297.8655 159.0965 L297.6766 158.7614 L296.8043 159.3325 L297.8655 159.0965 M298.3237 159.6156 L298.4636 158.7566 L297.9603 159.3469 L298.3237 159.6156 M297.7493 158.6264 L296.8162 158.1012 L296.9568 159.0043 L297.7493 158.6264 M300.3409 158.3076 L300.6522 158.075 L300.0952 157.7463 L300.3409 158.3076 M301.3712 157.9475 L300.8031 157.6488 L301.3001 158.1406 L301.3712 157.9475 M300.7589 158.0369 L300.6396 157.2648 L300.1126 157.5405 L300.7589 158.0369 M300.3196 157.3421 L299.8052 156.6885 L299.983 157.4668 L300.3196 157.3421 M299.7807 157.9892 L299.4204 156.5666 L299.4955 157.9821 L298.5852 158.1573 L299.7728 159.0246 L298.5205 159.4632 L299.1581 160.7517 L298.8997 161.798 L297.3266 161.7786 L298.6177 164.2712 L298.6524 162.5499 L299.6725 161.8829 L298.8942 163.3178 L299.3177 164.9593 L300.337 163.5353 L299.7807 157.9892 M297.9855 157.196 L297.0098 156.4116 L297.9998 159.0881 L297.9855 157.196 M298.88 156.7063 L297.9358 156.3548 L298.541 157.9368 L298.88 156.7063 M299.2205 155.6099 L297.9081 156.1787 L299.0372 156.3371 L299.2205 155.6099 M301.726 155.5593 L300.092 155.716 L302.0808 155.5663 L301.726 155.5593 M298.2913 155.4014 L298.2842 154.7642 L297.803 155.0814 L298.2913 155.4014 M298.7954 155.1226 L298.8049 154.7982 L298.4525 154.7478 L298.7954 155.1226 M300.2161 152.5716 L300.6206 152.0944 L300.1339 152.1802 L300.2161 152.5716 M301.0718 152.553 L301.5814 152.0305 L300.9888 151.9378 L301.0718 152.553 M302.1795 148.566 L302.4118 148.0141 L301.7608 147.783 L302.1795 148.566 M302.4181 147.816 L302.1424 147.3113 L302.0247 147.6954 L302.4181 147.816 M299.4757 147.0945 L298.3766 147.1853 L298.4304 148.0631 L299.4757 147.0945 M302.3533 147.0571 L301.8406 147.1217 L301.7134 147.601 L302.3533 147.0571 M301.4684 147.3635 L301.4013 146.6231 L301.2069 146.8349 L301.4684 147.3635 M299.3698 146.5065 L299.0388 146.0916 L299.0174 146.2702 L299.3698 146.5065 M299.7467 146.7069 L299.9506 145.9765 L299.5697 146.2182 L299.7467 146.7069 M301.5482 146.5755 L301.8066 146.1515 L301.4771 145.814 L301.1982 146.0386 L301.5482 146.5755 M300.2066 146.7975 L300.9138 146.2148 L300.401 145.4342 L300.2066 146.7975 M302.5193 146.7171 L302.3628 145.4342 L302.1313 146.3538 L302.5193 146.7171 M301.4605 145.3902 L301.0994 145.972 L302.0349 145.5637 L301.4605 145.3902 M300.0762 145.8219 L300.2651 145.3531 L299.8898 145.7801 L300.0762 145.8219 M301.8042 145.3948 L302.0073 145.1472 L301.4424 145.2574 L301.8042 145.3948 M300.54 145.281 L300.4097 144.8033 L300.0099 144.8729 L300.54 145.281 M301.5775 144.7202 L301.0386 144.6517 L302.1282 144.9943 L301.5775 144.7202 M300.6325 144.8751 L300.7415 144.5047 L300.3883 144.2637 L300.6325 144.8751 M301.9472 143.6528 L300.8403 144.2872 L302.2751 144.7886 L301.9472 143.6528 M301.5672 143.579 L301.0323 143.1058 L300.4681 143.684 L301.5672 143.579 M301.4368 143.0668 L301.6312 142.7728 L300.9801 142.8885 L301.4368 143.0668 M302.0981 143.5008 L301.745 142.765 L301.7268 143.2084 L302.0981 143.5008 M298.4691 143.3423 L298.6011 143.0245 L298.349 142.7516 L298.4691 143.3423 M302.5035 143.0167 L302.6252 142.6025 L302.2253 142.6637 L302.5035 143.0167 M300.4389 143.0769 L300.2895 142.5158 L300.0138 142.6058 L300.4389 143.0769 M300.9145 142.7761 L301.8714 142.3857 L300.3457 142.1757 L300.9145 142.7761 M300.2153 142.4135 L299.8661 142.118 L299.5951 142.3124 L300.2153 142.4135 M299.3003 142.3879 L299.4457 142.0292 L299.2237 141.8351 L299.3003 142.3879 M302.2349 142.6125 L302.6781 142.4768 L302.3968 141.8163 L302.2349 142.6125 M300.6712 141.9471 L301.1152 141.8407 L300.4634 141.7697 L300.6712 141.9471 M300.3378 141.6899 L300.8916 141.5116 L299.9538 141.5116 L300.3378 141.6899 M301.455 141.8651 L301.6264 141.5703 L301.1429 141.433 L301.455 141.8651 M301.9543 141.4972 L302.1124 141.3301 L301.7987 141.1277 L301.9543 141.4972 M305.1441 141.8351 L304.3611 141.11 L303.0336 142.2157 L303.7661 142.8329 L303.1956 142.9209 L303.5583 143.4003 L303.9621 143.2921 L304.8438 142.4001 L304.403 142.0625 L304.8699 142.2002 L305.1441 141.8351 M302.396 141.3987 L302.4987 141.0526 L302.1139 141.1686 L302.396 141.3987 M301.7118 141.4319 L301.7078 141.0636 L301.2109 140.9333 L301.7118 141.4319 M303.6673 141.194 L303.8751 141.1211 L303.6452 140.8858 L303.4927 141.0946 L303.6673 141.194 M301.9464 140.994 L302.0737 140.7268 L301.5854 140.771 L301.9464 140.994 M302.332 140.8593 L302.4624 140.6496 L302.1906 140.6595 L302.332 140.8593 M300.6815 140.8681 L300.5803 140.6297 L300.3125 140.6948 L300.6815 140.8681 M300.6009 140.4258 L300.7739 140.2848 L300.4144 140.2649 L300.6009 140.4258 M301.4779 140.7798 L301.3199 140.255 L301.1524 140.4765 L301.4779 140.7798 M301.9299 140.4291 L301.7323 140.0448 L301.4795 140.2154 L301.9299 140.4291 M300.6767 139.7798 L300.9288 139.7292 L300.6024 139.7215 L300.6767 139.7798 M302.5177 140.1735 L302.5509 139.693 L302.283 139.4119 L302.5177 140.1735 M303.9146 139.7435 L303.9344 139.2123 L303.5891 139.3406 L303.9146 139.7435 M301.922 138.7293 L301.0204 139.1706 L302.1795 139.232 L301.922 138.7293 M299.6733 138.1261 L299.0578 137.9298 L299.2529 138.2648 L299.6733 138.1261 M302.656 134.251 L302.5951 134.0664 L302.2182 134.2478 L302.656 134.251 M303.1704 134.0128 L302.8314 133.3519 L302.4948 133.3615 L303.1704 134.0128 M304.0537 133.0686 L304.1588 132.8721 L303.8159 132.8379 L304.0537 133.0686 M305.7406 132.4582 L305.7509 132.1067 L305.4451 132.2483 L305.7406 132.4582 M301.8374 131.1688 L300.3512 136.6813 L301.9117 137.2927 L302.9633 136.1785 L302.4956 135.4728 L302.9365 134.9586 L302.0792 134.25 L302.0223 133.8241 L302.5975 133.8616 L302.4434 133.2631 L303.307 132.8347 L302.9302 131.2749 L301.8374 131.1688 M304.3105 131.3555 L304.1351 130.8806 L304.1003 131.278 L304.3105 131.3555 M282.3458 102.1885 L282.353 101.8807 L282.2408 102.0602 L282.3458 102.1885 M287.936 101.6557 L287.6065 101.5087 L287.3126 101.8076 L287.936 101.6557 M201.2689 80.2362 L200.8438 80.0241 L200.6779 80.428 L201.2689 80.2362 M212.0352 78.0932 L211.9846 78.0693 L212.0264 78.1064 L212.0352 78.0932 M284.7786 77.7324 L284.8158 77.713 L284.7091 77.7306 L284.7786 77.7324 M284.2256 77.4618 L284.2153 77.4292 L284.1608 77.4609 L284.2256 77.4618 M314.3577 50.9747 L314.3119 50.586 L313.0279 52.7902 L311.7355 53.1071 L312.7372 62.4162 L311.1182 68.7791 L311.7764 68.9937 L311.6112 74.6276 L310.298 81.8023 L308.5606 86.1572 L309.2258 89.1847 L308.0438 92.0344 L308.7858 98.3146 L303.8151 113.9206 L302.5256 114.1725 L303.7227 122.171 L301.5253 127.9627 L301.884 129.901 L302.9562 130.0466 L302.2214 130.9367 L303.7764 131.0808 L304.5072 129.9041 L305.5747 130.7578 L306.3182 129.7239 L306.2028 130.5473 L304.7553 131.5179 L305.8836 131.7632 L306.0013 133.6141 L304.7893 132.9479 L305.6782 134.0235 L304.7514 134.0825 L305.0801 135.92 L304.0245 137.4483 L304.7941 138.772 L303.5322 140.222 L305.4538 141.5304 L305.0208 142.6514 L303.9502 143.4182 L303.2414 143.5634 L303.0842 144.792 L304.847 145.3474 L302.8891 145.4792 L302.6852 146.7998 L303.8372 146.3425 L302.4687 147.5908 L302.3905 149.0106 L303.1451 148.005 L301.963 150.1243 L301.5253 150.0105 L302.1708 148.9432 L301.8445 148.2785 L301.9267 149.1262 L301.3697 148.5021 L300.5416 148.7934 L300.1047 148.4805 L300.6246 148.7225 L301.2733 148.4633 L301.5838 148.0882 L301.1105 146.9063 L300.4839 146.8462 L296.6257 150.6895 L297.4917 151.5568 L296.8043 150.8544 L298.831 149.5089 L298.6271 150.7933 L300.7573 150.9398 L301.6976 151.983 L300.0059 153.6658 L301.3941 154.4252 L299.4015 154.8382 L301.6976 155.3932 L302.3099 154.0469 L303.7274 156.0476 L302.4948 155.6335 L303.5757 156.4139 L302.7816 157.0904 L299.6496 156.1444 L301.451 157.8082 L301.3783 158.3839 L300.3725 158.6706 L301.3381 159.2174 L300.2319 159.5232 L300.4476 162.1973 L301.9828 160.4623 L301.1934 162.4282 L302.3289 163.6441 L300.5859 163.0725 L301.8382 165.0233 L300.4515 164.6777 L301.8927 166.0203 L299.5382 165.6175 L301.839 167.114 L300.6775 166.8605 L301.3736 168.4096 L302.7445 166.5007 L302.8519 167.9011 L300.7921 168.9206 L302.3312 169.911 L302.6544 172.0015 L301.8121 170.8669 L301.7789 172.0206 L303.0424 172.3173 L302.8045 174.0181 L303.5488 174.4747 L303.2557 172.172 L303.6816 174.1736 L304.5712 173.1269 L303.5551 171.9646 L305.6047 172.7511 L303.6626 171.2875 L305.8662 172.7856 L305.8038 175.236 L304.6416 175.8872 L305.5771 175.2217 L305.2136 173.6804 L304.7482 174.9815 L304.3879 174.0746 L303.424 174.7931 L302.298 173.8716 L302.7974 176.2623 L302.3929 177.1345 L304.6826 176.1531 L302.7547 177.457 L303.6871 177.9096 L303.0724 178.4616 L304.4101 178.7429 L304.3389 177.742 L305.2792 176.8242 L304.6431 176.6679 L304.9268 176.2661 L308.6925 176.7044 L305.1536 177.2337 L304.474 177.7577 L304.5349 178.9349 L305.3424 179.1259 L304.9442 179.2748 L305.1915 179.82 L303.7361 179.5254 L306.0614 180.9999 L305.3392 179.9667 L306.6635 179.3011 L305.6276 178.7836 L309.5593 177.5249 L307.7602 180.8856 L307.1794 181.1089 L307.5855 179.4805 L305.9089 180.3362 L309.2345 182.6634 L310.1195 182.033 L310.5801 177.1697 L314.9906 174.7131 L317.3212 175.5101 L312.8936 173.7407 L307.4544 173.7381 L306.0606 171.5223 L306.3632 167.6106 L303.883 168.0759 L302.6955 162.6813 L305.5952 159.4896 L306.383 157.5013 L305.6743 155.7089 L306.1752 153.8013 L307.5737 152.7588 L307.3698 151.0644 L308.1402 150.4982 L307.8242 146.2668 L309.1974 144.8246 L306.9764 142.716 L309.2417 142.8396 L309.7371 141.7974 L307.6124 141.1277 L307.9601 136.4645 L306.8105 135.7676 L306.8247 132.982 L307.979 132.2441 L307.3406 127.0707 L308.066 122.7966 L308.9027 120.3569 L310.5446 119.0724 L309.5174 112.8671 L311.6819 110.3685 L311.2747 107.2575 L313.4222 103.7536 L313.5305 100.8285 L312.6076 100.1187 L311.3726 93.449 L313.3677 90.1495 L312.7996 87.2527 L313.8691 84.3121 L316.2714 80.1963 L317.7608 79.5408 L316.9177 78.2353 L317.5766 73.8493 L316.9707 72.774 L320.4669 70.4228 L321.4198 67.2621 L320.8999 66.7028 L318.9293 66.7226 L318.0413 62.0231 L316.4247 59.3141 L317.3333 56.3592 L315.9956 55.2294 L315.5295 52.1799 L314.3577 50.9747 M301.3135 147.725 L301.3056 148.1007 L301.0433 148.2603 L301.3135 147.725 M303.2596 177.2049 L303.2233 177.1697 L303.4224 177.0145 L303.2596 177.2049" stroke-dasharray="" fill="#ffff00" fill-opacity="0.6" stroke="none" stroke-opacity="1.0" stroke-width="0.0px" stroke-linecap="butt" stroke-linejoin="miter" stroke-dashoffset="0.0px"/>
<path d="M289.788 -7.1157 L289.8726 -7.2257 L289.7698 -7.5207 L289.5952 -7.5136 L289.5202 -7.3348 L289.788 -7.1157 M290.172 -7.2344 L290.2463 -7.2763 L290.2803 -7.4772 L290.1973 -7.546 L290.0037 -7.3498 L290.172 -7.2344 M290.5386 -7.3222 L290.7393 -7.3775 L290.3577 -7.6654 L290.5386 -7.3222 M290.7883 -7.3736 L290.8452 -7.4408 L290.6232 -7.6939 L290.4612 -7.7319 L290.5892 -7.5128 L290.7883 -7.3736 M291.3596 -8.7343 L291.4686 -9.1339 L291.0925 -8.7532 L291.3596 -8.7343 M291.7025 -11.5985 L291.5721 -11.9693 L291.4544 -11.8639 L291.7025 -11.5985 M291.4331 -11.9384 L292.0683 -12.1047 L291.7657 -12.3417 L291.4331 -11.9384 M308.4413 -35.7059 L303.5464 -32.3398 L301.0702 -32.4437 L300.4002 -30.7387 L299.8266 -31.1296 L300.6901 -31.4901 L299.0626 -31.8466 L297.8994 -30.8987 L296.8762 -27.0131 L293.1816 -24.4635 L293.6739 -22.5969 L291.9348 -24.7704 L292.3646 -22.6496 L291.3454 -21.467 L290.8539 -22.0322 L290.447 -20.617 L292.0106 -18.7227 L291.5832 -17.6438 L292.2927 -16.3871 L291.4639 -15.7225 L291.9885 -14.9273 L291.885 -12.3623 L292.2974 -12.1285 L291.7428 -11.4678 L292.8964 -11.1526 L290.8705 -7.4115 L290.7235 -7.3056 L290.511 -7.285 L290.304 -7.5547 L290.2795 -7.2826 L290.1704 -7.1774 L289.7762 -7.0762 L289.3795 -7.1679 L289.1559 -6.9331 L288.8802 -7.1403 L288.5254 -6.9117 L288.4717 -5.0323 L287.1372 -4.6323 L287.8301 -4.0901 L288.4503 -3.5361 L291.8984 -1.0943 L295.1309 -1.1251 L297.8536 0.3405 L299.3011 0.5807 L300.8648 2.9236 L302.7729 3.8996 L304.6913 7.1316 L308.0589 6.1083 L312.0687 7.1276 L312.6969 7.841 L310.829 10.759 L313.0114 12.0626 L314.6579 3.8064 L314.0053 1.472 L312.7237 0.448 L312.7632 -1.6806 L315.3786 -1.8347 L314.9653 -2.9537 L313.3377 -3.0501 L313.3266 -4.866 L318.1424 -4.905 L318.0191 -5.626 L318.8203 -4.9651 L320.2157 -6.0996 L321.2041 -3.3377 L321.7866 -3.4752 L320.8747 -6.8073 L319.0661 -8.0388 L320.5957 -9.6697 L318.9768 -12.9804 L320.1296 -17.6502 L315.0356 -17.3307 L312.5499 -19.8916 L307.2 -20.015 L305.8583 -21.3714 L306.2747 -23.1044 L304.9821 -25.9371 L303.2802 -26.1996 L305.7975 -31.8339 L306.6045 -32.2076 L307.2648 -33.4121 L309.1208 -33.9585 L309.7149 -34.6797 L308.4413 -35.7059 M288.5823 -6.8745 L288.5586 -6.8476 L288.5681 -6.9236 L288.5855 -6.9212 L288.5823 -6.8745 M279.5796 -35.8143 L279.6421 -36.1065 L279.5528 -35.9867 L279.5796 -35.8143 M280.5602 -38.2429 L280.5934 -38.4053 L280.4922 -38.2778 L280.5602 -38.2429" stroke-dasharray="" fill="#ffff00" fill-opacity="0.6" stroke="none" stroke-opacity="1.0" stroke-width="0.0px" stroke-linecap="butt" stroke-linejoin="miter" stroke-dashoffset="0.0px"/>
<path d="M62.8891 63.9847 L62.7997 63.8076 L62.6836 63.8808 L62.8891 63.9847 M57.6253 61.8925 L57.5929 61.7061 L57.3614 61.7145 L57.6253 61.8925 M64.5221 58.6502 L64.5428 58.5282 L64.4773 58.4836 L64.5221 58.6502 M62.298 58.1294 L62.3446 58.0411 L62.2405 57.9991 L62.298 58.1294 M61.7828 57.5294 L61.749 57.5764 L61.8311 57.5865 L61.7828 57.5294 M63.4065 57.6361 L63.3915 57.3858 L63.3135 57.5185 L63.4065 57.6361 M59.9363 55.8769 L59.8701 55.7931 L59.8929 55.8819 L59.9363 55.8769 M57.491 54.734 L57.5027 54.5862 L57.4483 54.6463 L57.491 54.734 M47.891 52.3312 L47.9155 52.2331 L47.8711 52.3013 L47.891 52.3312 M41.4656 33.0733 L41.4885 33.0427 L41.4293 33.0418 L41.4656 33.0733 M40.3153 31.1594 L40.3025 31.1264 L40.2481 31.1473 L40.3153 31.1594 M53.9795 29.8368 L53.9062 29.7251 L53.9212 29.8031 L53.9795 29.8368 M54.1139 29.7332 L54.1195 29.6826 L54.0089 29.6095 L54.1139 29.7332 M53.8043 28.7111 L53.8389 28.6132 L53.7868 28.6429 L53.8043 28.7111 M62.7437 25.6555 L62.554 25.5659 L62.6567 25.6539 L62.7437 25.6555" stroke-dasharray="" fill="#ffff00" fill-opacity="0.6" stroke="none" stroke-opacity="1.0" stroke-width="0.0px" stroke-linecap="butt" stroke-linejoin="miter" stroke-dashoffset="0.0px"/>
<path d="M283.8945 8.6361 L284.7202 7.739 L283.8566 7.7517 L283.8945 8.6361 M284.9035 7.5175 L284.8521 7.0185 L284.766 7.4748 L284.9035 7.5175 M257.0777 4.0016 L257.0003 3.823 L256.7056 3.8712 L257.0777 4.0016 M254.7642 3.8554 L254.9594 3.6104 L254.6299 3.4681 L254.7642 3.8554 M255.8767 2.3863 L255.887 2.3025 L255.7661 2.2788 L255.8767 2.3863 M257.5826 2.6644 L258.1088 1.9556 L257.054 2.6375 L257.5826 2.6644 M255.2589 2.1366 L255.4579 1.5439 L254.4774 1.6609 L255.2589 2.1366 M251.7365 1.4112 L251.8155 0.7056 L251.2671 0.8992 L251.7365 1.4112 M254.4427 0.8676 L253.7434 0.4251 L253.5127 0.768 L254.4427 0.8676 M252.5329 0.0316 L251.4323 0.0142 L252.9264 1.6703 L252.0857 2.9205 L253.6936 2.0836 L252.5329 0.0316 M254.6939 -0.7577 L254.8385 -0.93 L254.4853 -0.9861 L254.6939 -0.7577 M253.8635 -1.5574 L253.7465 -1.8537 L253.7252 -1.6024 L253.8635 -1.5574 M288.4503 -3.5361 L287.8301 -4.0901 L284.2746 -2.357 L284.25 -0.1786 L283.0167 1.0453 L283.6914 1.7841 L281.8528 2.9331 L281.9128 6.6025 L283.7151 7.7865 L285.1168 5.7161 L284.8829 6.7614 L285.2195 7.406 L284.5922 9.1022 L283.4761 9.6213 L284.0083 11.0569 L283.1155 11.3498 L283.1138 12.6388 L285.4408 12.6214 L287.1329 14.2664 L288.1165 13.0551 L289.1733 9.7417 L293.9431 7.3188 L297.0761 4.3644 L298.052 2.746 L296.8805 0.3096 L297.8536 0.3405 L295.1309 -1.1251 L291.8984 -1.0943 L288.4503 -3.5361 M287.5385 -3.525 L287.292 -3.627 L287.5638 -3.8909 L287.5385 -3.525" stroke-dasharray="" fill="#ffff00" fill-opacity="0.6" stroke="none" stroke-opacity="1.0" stroke-width="0.0px" stroke-linecap="butt" stroke-linejoin="miter" stroke-dashoffset="0.0px"/>
<path d="M3.6757 60.1266 L3.6109 60.0405 L3.5919 60.1013 L3.6757 60.1266 M5.0875 57.6344 L5.1254 57.584 L5.0923 57.5554 L5.0875 57.6344 M4.5605 55.62 L4.555 55.4518 L4.4799 55.5974 L4.5605 55.62 M1023.3734 55.6509 L1023.3544 55.4343 L1023.2611 55.6291 L1023.3734 55.6509 M4.1569 55.6107 L4.0225 55.405 L3.9909 55.5321 L4.1569 55.6107 M1019.7285 55.033 L1019.1841 54.8693 L1018.172 55.4585 L1019.7285 55.033 M3.0245 55.0313 L2.9883 54.84 L2.9377 54.9979 L3.0245 55.0313 M0.6155 54.9018 L0.4409 54.83 L0.3729 55.079 L0.6155 54.9018 M1019.8131 54.7949 L1019.7949 54.6413 L1019.6668 54.7114 L1019.8131 54.7949 M4.2706 54.0855 L4.3433 54.0129 L4.2477 53.9671 L4.2706 54.0855 M1023.7518 53.9871 L1023.8972 53.6828 L1023.5377 53.7903 L1023.7518 53.9871 M1017.3534 53.832 L1017.2609 53.537 L1017.2277 53.6762 L1017.3534 53.832 M1018.6886 53.3138 L1018.7085 53.1173 L1018.6223 53.2838 L1018.6886 53.3138 M3.4749 52.811 L3.5626 52.6663 L3.3319 52.6322 L3.4749 52.811 M1022.1565 52.426 L1021.9141 51.8726 L1021.8547 52.1724 L1022.1565 52.426 M2.8111 52.0495 L2.8697 51.9166 L2.65 51.8618 L2.8111 52.0495 M4.8726 51.9623 L4.9935 51.8177 L4.6996 51.7472 L4.8726 51.9623 M1022.3556 51.6102 L1022.3533 51.4575 L1022.2727 51.4251 L1022.3556 51.6102 M2.0124 51.4177 L1.9366 51.2493 L1.9025 51.382 L2.0124 51.4177 M1020.6443 51.2948 L1020.5637 50.9316 L1020.438 51.226 L1020.6443 51.2948 M2.4405 50.5016 L2.4367 50.3649 L2.3356 50.3707 L2.4405 50.5016 M1019.1099 50.2812 L1016.9181 50.5985 L1016.3175 52.2988 L1020.2398 52.2979 L1019.1099 50.2812 M1015.7865 50.0172 L1015.8704 49.8186 L1015.7518 49.8881 L1015.7865 50.0172 M2.4786 49.9253 L2.499 49.8508 L2.3813 49.8277 L2.4786 49.9253 M1022.2917 50.2556 L1022.3873 49.802 L1022.1715 49.8533 L1022.2917 50.2556 M3.0569 49.8467 L2.7874 49.5365 L2.8847 50.0279 L3.0569 49.8467 M1016.2165 49.4489 L1016.2662 49.2356 L1015.9707 49.5679 L1016.2165 49.4489 M1019.2584 48.593 L1019.0996 48.4551 L1019.1138 48.5872 L1019.2584 48.593 M1023.8506 49.0893 L1024.0 48.4491 L1023.6656 48.9745 L1023.8506 49.0893 M0.019 48.9481 L0.5089 48.4303 L0.3936 48.131 L0.019 48.9481 M1016.7268 48.5988 L1017.1535 48.1532 L1017.0595 48.1226 L1016.7268 48.5988 M1023.7992 48.0682 L1023.8514 47.9313 L1023.7629 47.9692 L1023.6713 48.0633 L1023.7558 48.0765 L1023.7992 48.0682 M1024.0 47.7083 L1024.0 47.5788 L1023.9462 47.6684 L1024.0 47.7083 M0.0678 47.7005 L0.2946 47.3915 L0.0324 47.5275 L0.0678 47.7005 M1023.8806 46.6991 L1019.6732 48.432 L1020.4365 49.1166 L1021.9116 48.1614 L1023.7218 48.3957 L1023.8632 48.314 L1023.634 48.0855 L1023.8585 47.6346 L1023.8079 47.4796 L1022.5168 48.1928 L1023.8806 46.6991 M0.0885 46.6106 L0.1674 46.4943 L0.0 46.5725 L0.0885 46.6106 M1015.8063 35.8831 L1015.8055 35.7965 L1015.5432 35.8621 L1015.8063 35.8831" stroke-dasharray="" fill="#ffff00" fill-opacity="0.6" stroke="none" stroke-opacity="1.0" stroke-width="0.0px" stroke-linecap="butt" stroke-linejoin="miter" stroke-dashoffset="0.0px"/>
<path d="M342.2104 174.8821 L342.2325 174.5572 L342.035 174.5443 L342.0128 175.0254 L342.2104 174.8821 M345.7849 174.1916 L345.792 173.7124 L345.5036 173.8703 L345.7849 174.1916 M337.8505 173.1333 L337.8773 172.8226 L337.596 172.9491 L337.8505 173.1333 M338.3909 173.155 L338.658 172.8367 L338.0638 173.0604 L338.865 173.3112 L338.3909 173.155 M337.9318 172.3734 L337.6213 172.3441 L337.5905 172.5302 L337.9318 172.3734 M343.5789 171.0518 L341.278 170.9125 L340.9572 171.436 L339.5066 170.8011 L340.8679 172.1988 L339.5176 172.478 L340.8197 172.6464 L338.5434 174.0438 L340.2864 174.4941 L343.5789 171.0518 M345.0406 170.7151 L342.1353 174.3177 L343.1877 175.3484 L342.9001 174.4091 L344.0774 174.4232 L343.3537 173.7766 L345.182 174.0682 L344.3469 172.8443 L347.7863 172.3402 L346.6161 171.7065 L347.7001 171.6353 L347.2727 170.896 L346.2273 171.0834 L346.3767 172.167 L345.0406 170.7151 M341.5166 170.7796 L341.6004 170.5621 L341.2614 170.5381 L341.5166 170.7796 M341.0189 171.0277 L341.1397 170.5823 L340.4792 170.4181 L341.0189 171.0277 M342.7318 170.7189 L342.8148 170.3878 L341.8706 170.4105 L342.7318 170.7189" stroke-dasharray="" fill="#ffff00" fill-opacity="0.6" stroke="none" stroke-opacity="1.0" stroke-width="0.0px" stroke-linecap="butt" stroke-linejoin="miter" stroke-dashoffset="0.0px"/>
<path d="M103.872 82.7425 L103.868 82.6969 L103.7969 82.6665 L103.872 82.7425 M101.5253 81.8691 L101.5878 81.6596 L101.4763 81.582 L101.5253 81.8691 M91.9047 69.987 L92.0217 69.8989 L91.8178 69.936 L91.9047 69.987 M86.803 68.4975 L86.8773 68.3727 L86.6835 68.4105 L86.803 68.4975 M127.8523 67.7603 L127.9098 67.6967 L127.8206 67.7362 L127.8523 67.7603 M128.0411 67.6847 L128.1667 67.5189 L127.9557 67.6297 L128.0411 67.6847 M77.1982 66.1931 L77.2938 66.1246 L77.2393 66.0347 L77.1982 66.1931 M81.449 65.7687 L81.4925 65.6027 L81.3858 65.4831 L81.449 65.7687 M117.4337 65.0089 L117.3516 64.8024 L117.2006 64.851 L117.4337 65.0089 M112.0442 63.314 L111.8814 63.1201 L111.8759 63.2808 L112.0442 63.314 M99.6803 57.8486 L99.674 57.7638 L99.655 57.8663 L99.6803 57.8486 M83.4899 51.0552 L83.4978 50.9955 L83.4291 51.0038 L83.4899 51.0552 M87.5764 51.2683 L86.3786 50.7194 L87.6681 51.6774 L87.5764 51.2683 M85.764 50.7899 L85.9417 50.4783 L85.5118 50.5231 L85.764 50.7899 M86.6638 49.0051 L86.6299 48.9753 L86.6331 49.0067 L86.6638 49.0051 M86.55 48.991 L86.5106 48.9505 L86.4939 49.0216 L86.55 48.991 M82.4937 48.5583 L82.5046 48.3751 L82.375 48.4453 L82.4937 48.5583 M81.3502 48.749 L81.1377 48.3091 L81.1331 48.7697 L81.3502 48.749 M82.3799 48.3966 L82.4683 48.3223 L82.3821 48.1688 L82.3799 48.3966 M81.1852 48.1103 L81.2342 47.8901 L80.9749 47.8612 L81.1852 48.1103 M80.3595 47.698 L80.3776 47.5686 L80.2819 47.5167 L80.3595 47.698 M95.7558 46.602 L95.7582 46.4491 L95.6175 46.4408 L95.7558 46.602 M90.353 45.6666 L90.2155 45.5254 L90.2675 45.6617 L90.353 45.6666 M100.6309 45.371 L100.5976 45.2512 L100.5614 45.3423 L100.6309 45.371 M117.5987 30.1791 L117.7078 29.9356 L117.4881 29.836 L117.5987 30.1791 M116.3165 28.5266 L116.4863 28.3421 L116.2643 28.3188 L116.3165 28.5266 M116.7495 27.8481 L116.1314 27.9556 L117.1641 27.8537 L116.7495 27.8481 M113.5581 27.0043 L113.5328 26.6415 L113.3573 26.8025 L113.5581 27.0043 M114.9653 25.342 L114.8815 25.5803 L115.1881 25.4676 L114.9653 25.342 M113.7026 25.4212 L113.0674 25.1381 L113.2389 25.5739 L113.7026 25.4212 M111.7733 22.9567 L111.9635 22.7134 L111.7589 22.7309 L111.7733 22.9567 M112.1138 22.6113 L112.1761 22.5091 L112.0536 22.5817 L112.1138 22.6113" stroke-dasharray="" fill="#ffff00" fill-opacity="0.6" stroke="none" stroke-opacity="1.0" stroke-width="0.0px" stroke-linecap="butt" stroke-linejoin="miter" stroke-dashoffset="0.0px"/>
<path d="M80.2599 32.8354 L80.1722 32.621 L80.1905 32.7871 L80.2599 32.8354 M78.5311 28.8941 L78.5192 28.8668 L78.4876 28.8708 L78.5311 28.8941 M84.6957 28.4576 L84.706 28.3702 L84.6704 28.4127 L84.6957 28.4576 M84.6925 28.3469 L84.7099 28.3052 L84.6823 28.2747 L84.6925 28.3469 M68.6135 16.0686 L68.6759 16.0099 L68.4713 16.0083 L68.6135 16.0686 M22.2222 12.9035 L22.197 12.7902 L22.0974 12.8259 L22.2222 12.9035 M24.941 12.703 L24.93 12.6364 L24.8477 12.6602 L24.941 12.703 M71.284 11.5169 L71.0653 11.5605 L71.2352 11.6793 L71.284 11.5169 M25.378 8.9408 L25.3542 8.8474 L25.3448 8.9289 L25.378 8.9408 M23.8142 8.0602 L23.5361 7.8901 L23.8183 8.1654 L23.8142 8.0602 M1015.0352 7.5958 L1014.9925 7.4946 L1014.8242 7.4202 L1015.0352 7.5958 M1012.5423 7.1276 L1012.521 7.0596 L1012.5091 7.13 L1012.5423 7.1276 M1011.4449 5.4616 L1011.4638 5.358 L1011.3359 5.1825 L1011.4449 5.4616 M1011.2892 5.1382 L1011.2561 5.0576 L1011.1817 5.0347 L1011.2892 5.1382 M1009.897 4.4165 L1009.9089 4.0814 L1009.7825 4.3486 L1009.897 4.4165 M1009.4174 4.0055 L1009.3613 3.9802 L1009.3723 4.0071 L1009.4174 4.0055 M1013.944 4.083 L1013.8207 3.8356 L1013.7331 3.7676 L1013.944 4.083 M1012.4933 3.6388 L1012.4349 3.7052 L1012.6743 3.9526 L1012.4933 3.6388 M1009.1172 3.5724 L1009.1156 3.4341 L1008.971 3.2429 L1009.1172 3.5724 M1008.3262 2.323 L1008.3436 2.1911 L1008.2361 1.8592 L1008.3262 2.323 M1008.2385 1.8537 L1008.0497 1.6917 L1008.0062 1.6996 L1008.2385 1.8537 M1005.8468 -0.38 L1005.8855 -0.6163 L1005.8073 -0.6044 L1005.8468 -0.38 M1005.2543 -0.5792 L1005.2993 -0.6123 L1005.2329 -0.6629 L1005.2543 -0.5792 M1005.1839 -0.6945 L1005.1602 -0.7569 L1005.1451 -0.7119 L1005.1839 -0.6945 M1006.7397 -0.8478 L1006.761 -0.9126 L1006.716 -0.8597 L1006.7397 -0.8478 M1006.4513 -1.2753 L1006.3786 -1.2263 L1006.7104 -1.0801 L1006.4513 -1.2753 M1004.1512 -2.8636 L1004.0359 -2.3373 L1004.3282 -2.7079 L1004.1512 -2.8636 M1003.9174 -3.8008 L1003.9284 -3.8285 L1003.8447 -3.8301 L1003.9174 -3.8008 M1004.449 -3.838 L1004.4277 -3.9067 L1004.3693 -3.8443 L1004.449 -3.838 M1004.2658 -4.0119 L1004.1876 -4.1091 L1004.2018 -4.0332 L1004.2658 -4.0119 M1004.1252 -4.1889 L1004.0809 -4.2687 L1004.1355 -4.1676 L1004.1252 -4.1889 M1004.0374 -4.3509 L1003.9615 -4.6062 L1003.9773 -4.4189 L1004.0374 -4.3509 M1003.7609 -5.2299 L1003.685 -5.2963 L1003.6171 -5.3019 L1003.7609 -5.2299 M1004.1315 -4.8537 L1004.1662 -5.1809 L1003.8897 -5.5082 L1004.1315 -4.8537 M1003.7807 -5.4908 L1003.7633 -5.5303 L1003.7553 -5.4987 L1003.7807 -5.4908 M1005.0243 -5.5201 L1005.0827 -5.5928 L1004.9738 -5.5707 L1005.0243 -5.5201 M1005.0646 -5.641 L1005.0141 -5.7351 L1004.9809 -5.6157 L1005.0646 -5.641 M64.1944 -5.7509 L63.797 -5.2884 L64.9118 -4.8774 L64.1944 -5.7509 M1003.7198 -8.7208 L1003.3753 -8.6061 L1003.4489 -8.5436 L1003.7198 -8.7208 M1003.9987 -9.2454 L1004.0224 -9.3816 L1003.9679 -9.3388 L1003.9987 -9.2454 M58.7661 -11.1613 L58.5828 -10.9997 L58.9605 -10.7875 L58.7661 -11.1613 M55.7661 -13.3427 L55.8088 -13.4362 L55.7352 -13.456 L55.7661 -13.3427" stroke-dasharray="" fill="#ffff00" fill-opacity="0.6" stroke="none" stroke-opacity="1.0" stroke-width="0.0px" stroke-linecap="butt" stroke-linejoin="miter" stroke-dashoffset="0.0px"/>
<path d="M28.7463 55.5012 L28.9635 54.9678 L28.6388 55.1132 L28.7463 55.5012" stroke-dasharray="" fill="#ffff00" fill-opacity="0.6" stroke="none" stroke-opacity="1.0" stroke-width="0.0px" stroke-linecap="butt" stroke-linejoin="miter" stroke-dashoffset="0.0px"/>
<path d="M56.8287 1.1323 L56.8383 1.0659 L56.7506 1.0912 L56.8287 1.1323 M10.0803 -0.6139 L10.0866 -0.6432 L10.0457 -0.6321 L10.0803 -0.6139 M9.5795 -2.2559 L9.5485 -2.312 L9.5446 -2.263 L9.5795 -2.2559 M29.8026 -48.2752 L29.7765 -48.286 L29.7418 -48.2678 L29.8026 -48.2752 M986.0163 -55.9045 L985.9629 -56.0405 L985.9056 -55.9815 L986.0163 -55.9045 M7.582 -83.6441 L7.6302 -83.6656 L7.6183 -83.7069 L7.582 -83.6441 M7.4295 -83.619 L7.5149 -83.7248 L7.4247 -83.7042 L7.4295 -83.619" stroke-dasharray="" fill="#ffff00" fill-opacity="0.6" stroke="none" stroke-opacity="1.0" stroke-width="0.0px" stroke-linecap="butt" stroke-linejoin="miter" stroke-dashoffset="0.0px"/>
<path d="M993.2388 176.4403 L993.2949 175.8067 L992.7135 176.1142 L993.2388 176.4403 M984.4526 168.8403 L984.805 168.68 L983.9604 168.5397 L984.4526 168.8403 M984.1651 167.4039 L984.188 167.3652 L984.0908 167.41 L984.1651 167.4039 M984.8912 168.4071 L984.745 167.0617 L983.8562 168.3058 L984.8912 168.4071 M985.0934 166.971 L985.1219 166.9163 L984.9884 166.9636 L985.0934 166.971 M1020.6332 163.4974 L1020.6293 163.0128 L1020.3456 163.3276 L1020.6332 163.4974 M985.976 156.2165 L985.9476 156.0239 L985.7817 156.2106 L985.976 156.2165 M1021.3743 154.6892 L1021.3538 154.6093 L1021.2953 154.668 L1021.3743 154.6892 M988.2595 152.8717 L988.4072 152.7274 L988.2358 152.7623 L988.2595 152.8717 M988.9729 150.9859 L989.0669 150.8809 L988.9098 150.8336 L988.9729 150.9859 M990.4126 151.4376 L989.229 150.5858 L988.4989 152.9788 L990.4126 151.4376 M986.2155 146.6446 L986.1996 146.1301 L985.6141 146.5529 L986.2155 146.6446 M987.0506 144.8931 L986.9147 144.2592 L986.7132 144.6506 L987.0506 144.8931 M10.9163 140.941 L11.0484 140.697 L10.7069 140.5835 L10.9163 140.941 M10.0914 138.6123 L8.9655 138.9121 L9.8582 139.141 L9.6553 140.1251 L10.0914 138.6123 M1008.0694 128.5127 L1007.8514 128.5756 L1007.9911 128.6365 L1007.913 128.7667 L1007.4832 128.9536 L1007.9983 128.8422 L1008.0694 128.5127 M1006.381 127.8037 L1006.8306 126.9872 L1006.4307 127.1823 L1006.381 127.8037 M1003.6945 126.2275 L1001.5541 127.6448 L1001.4293 129.6016 L997.8144 135.3487 L990.9332 139.8029 L988.4649 143.6472 L987.0135 144.229 L987.625 145.5614 L986.5148 144.9347 L986.1814 145.9641 L987.1398 145.6674 L986.3845 146.3233 L986.9858 146.5144 L985.5556 147.7591 L992.7339 150.5051 L997.7829 147.2023 L997.1326 147.242 L999.2351 141.0161 L1002.4533 138.6024 L1004.3496 139.0862 L1003.4085 136.6639 L1007.7558 130.9124 L1007.0597 129.7491 L1007.8632 128.9168 L1007.5203 129.0934 L1007.0091 128.9673 L1007.8545 128.0883 L1004.3891 129.2595 L1004.1267 127.3106 L1003.113 126.7726 L1003.6945 126.2275 M1015.4706 116.547 L1015.4096 116.4659 L1015.3662 116.522 L1015.4706 116.547 M1013.8697 115.7545 L1013.929 115.6557 L1013.8935 115.5909 L1013.8697 115.7545 M1010.2502 112.8374 L1010.3292 112.4596 L1009.7848 112.6914 L1010.2502 112.8374 M1012.1306 112.1167 L1012.0603 111.9229 L1011.9688 111.9396 L1012.1306 112.1167 M1009.3905 111.5109 L1009.5138 111.4824 L1009.4079 111.2605 L1009.3905 111.5109 M1010.2028 110.6409 L1010.1245 110.4901 L1010.0044 110.5968 L1010.2028 110.6409 M1011.3272 111.1153 L1010.8356 110.138 L1010.7985 110.6977 L1011.3272 111.1153 M1004.1995 104.4473 L1003.2995 104.6486 L1004.3377 107.1308 L1005.1713 108.2354 L1005.9536 107.4859 L1005.2234 108.3957 L1007.1632 111.3331 L1006.6884 109.4321 L1008.3705 110.7045 L1007.6973 111.0957 L1008.222 112.1886 L1007.4674 111.6426 L1008.3626 113.562 L1009.4577 113.6392 L1008.497 113.6907 L1009.7066 116.113 L1008.6241 119.9753 L1006.2277 121.707 L1010.2202 124.691 L1010.1411 126.9987 L1008.617 129.128 L1010.6966 130.4025 L1014.9949 125.0104 L1015.623 121.3979 L1018.055 121.5907 L1019.9197 115.9811 L1018.3623 115.3974 L1015.9201 117.062 L1012.6063 115.7136 L1012.1694 112.5543 L1010.7835 111.5895 L1011.4251 114.3004 L1009.3636 112.8868 L1007.8435 107.2053 L1005.3712 105.7291 L1004.8544 106.4643 L1004.1995 104.4473 M1001.6916 103.5415 L1001.7761 103.468 L1001.6237 103.4708 L1001.6916 103.5415 M3.9672 91.4373 L3.9466 91.4153 L3.9451 91.4575 L3.9672 91.4373 M6.1266 87.1621 L5.824 86.9909 L5.9062 87.182 L6.1266 87.1621" stroke-dasharray="" fill="#ffff00" fill-opacity="0.6" stroke="none" stroke-opacity="1.0" stroke-width="0.0px" stroke-linecap="butt" stroke-linejoin="miter" stroke-dashoffset="0.0px"/>
<path d="M357.4597 72.4765 L357.2417 70.0959 L354.3846 70.2195 L353.1386 65.0619 L347.0646 64.4565 L347.55 61.032 L346.5703 58.5896 L346.5916 57.5605 L343.9052 56.1138 L336.3769 57.0073 L333.8133 64.9082 L338.4668 69.7745 L347.716 74.037 L348.2264 75.2096 L345.3024 80.8244 L353.4617 81.2168 L356.4136 78.0226 L356.6964 75.2846 L357.4597 72.4765" stroke-dasharray="" fill="#ffff00" fill-opacity="0.6" stroke="none" stroke-opacity="1.0" stroke-width="0.0px" stroke-linecap="butt" stroke-linejoin="miter" stroke-dashoffset="0.0px"/>
<path d="M288.1165 13.0551 L287.1329 14.2664 L285.4408 12.6214 L283.1138 12.6388 L283.1155 11.3498 L284.0083 11.0569 L283.4761 9.6213 L280.7759 12.2711 L281.9658 16.1036 L281.103 17.3458 L284.4934 19.2859 L287.3181 23.4819 L291.1217 32.3301 L295.262 38.5215 L294.7018 39.9257 L296.0118 42.1564 L298.5316 44.5457 L308.6293 49.965 L311.7355 53.1071 L313.0279 52.7902 L314.3119 50.586 L313.9729 49.7201 L316.2382 47.1206 L314.5331 44.9853 L315.3438 43.8869 L314.6911 42.5813 L316.1513 40.8086 L315.806 36.919 L316.6609 35.8444 L314.1164 31.3412 L311.0929 31.5095 L311.425 26.9393 L309.1943 28.5795 L306.7907 28.6036 L306.1578 27.1309 L303.7716 26.8794 L304.4575 25.6579 L301.4811 21.5133 L302.2388 19.6082 L304.0031 18.3776 L304.7766 14.5965 L310.7105 11.8045 L313.0114 12.0626 L310.829 10.759 L312.6969 7.841 L312.0687 7.1276 L308.0589 6.1083 L304.6913 7.1316 L302.7729 3.8996 L300.8648 2.9236 L299.3011 0.5807 L297.8536 0.3405 L296.8805 0.3096 L298.052 2.746 L297.0761 4.3644 L293.9431 7.3188 L289.1733 9.7417 L288.1165 13.0551" stroke-dasharray="" fill="#ffff00" fill-opacity="0.6" stroke="none" stroke-opacity="1.0" stroke-width="0.0px" stroke-linecap="butt" stroke-linejoin="miter" stroke-dashoffset="0.0px"/>
<path d="M24.9892 26.7937 L24.9609 26.7016 L24.9631 26.7977 L24.9892 26.7937 M23.2019 26.3037 L23.1712 26.19 L23.1523 26.3013 L23.2019 26.3037 M21.3791 24.5178 L21.3799 24.4587 L21.3419 24.422 L21.3791 24.5178" stroke-dasharray="" fill="#ffff00" fill-opacity="0.6" stroke="none" stroke-opacity="1.0" stroke-width="0.0px" stroke-linecap="butt" stroke-linejoin="miter" stroke-dashoffset="0.0px"/>
<path d="M14.4758 62.4193 L14.4741 62.0511 L14.2942 62.2335 L14.4758 62.4193 M13.8074 61.6603 L14.0878 61.5425 L13.1997 61.4197 L13.8074 61.6603 M14.9025 58.918 L14.9048 58.7993 L14.814 58.7917 L14.9025 58.918 M15.8892 57.8587 L15.9549 57.7226 L15.8648 57.8083 L15.8892 57.8587 M16.1604 57.542 L16.1682 57.3673 L16.0569 57.5118 L16.1604 57.542 M14.061 57.4782 L13.9898 57.1927 L13.9418 57.3237 L14.061 57.4782 M16.2915 57.3329 L16.3381 57.1373 L16.1928 57.2968 L16.2915 57.3329 M14.1701 57.1474 L14.2063 57.0299 L14.1202 57.1029 L14.1701 57.1474 M16.3713 57.0409 L16.2362 56.8546 L16.2647 56.9754 L16.3713 57.0409 M15.2264 54.5528 L15.2944 54.4902 L15.2184 54.4109 L15.1465 54.4751 L15.2264 54.5528 M16.892 54.1756 L16.8572 54.1047 L16.7885 54.1506 L16.892 54.1756 M17.0105 54.2131 L17.0121 54.1447 L16.9434 54.1039 L17.0105 54.2131 M16.8115 54.0838 L16.7372 54.0755 L16.7024 54.1714 L16.8115 54.0838 M17.3211 53.9754 L17.2396 53.7678 L16.8659 53.9587 L17.3211 53.9754 M12.3883 45.0181 L12.4547 44.8163 L12.2768 44.9016 L12.3883 45.0181" stroke-dasharray="" fill="#ffff00" fill-opacity="0.6" stroke="none" stroke-opacity="1.0" stroke-width="0.0px" stroke-linecap="butt" stroke-linejoin="miter" stroke-dashoffset="0.0px"/>
<path d="M347.5729 91.9899 L346.4555 97.6745 L346.8926 99.3118 L346.6058 99.8791 L345.9927 99.9857 L345.8765 102.7033 L347.4765 104.6467 L349.5316 104.5345 L351.8001 106.0854 L357.9875 105.257 L360.1798 102.0559 L359.7574 100.0348 L360.9798 98.6179 L358.7421 96.0524 L353.9002 92.3131 L352.6857 93.0892 L350.4031 89.869 L348.1372 90.1309 L347.5729 91.9899" stroke-dasharray="" fill="#ffff00" fill-opacity="0.6" stroke="none" stroke-opacity="1.0" stroke-width="0.0px" stroke-linecap="butt" stroke-linejoin="miter" stroke-dashoffset="0.0px"/>
<path d="M5.568 41.1616 L5.15 40.917 L5.2891 41.1527 L5.568 41.1616 M10.9186 38.3298 L11.0333 38.0683 L10.9336 37.9231 L10.9186 38.3298" stroke-dasharray="" fill="#ffff00" fill-opacity="0.6" stroke="none" stroke-opacity="1.0" stroke-width="0.0px" stroke-linecap="butt" stroke-linejoin="miter" stroke-dashoffset="0.0px"/>
<path d="M24.3776 40.2823 L23.2611 39.6604 L22.5714 39.8565 L24.3776 40.2823 M21.9424 38.7205 L20.5352 38.8578 L22.1464 39.6612 L21.9424 38.7205" stroke-dasharray="" fill="#ffff00" fill-opacity="0.6" stroke="none" stroke-opacity="1.0" stroke-width="0.0px" stroke-linecap="butt" stroke-linejoin="miter" stroke-dashoffset="0.0px"/>
<path d="M142.0034 73.7315 L142.0373 73.6801 L141.9165 73.6801 L142.0034 73.7315 M157.0678 72.4652 L157.0915 72.4374 L157.0251 72.4348 L157.0678 72.4652 M147.0885 71.6331 L147.0467 71.385 L146.9527 71.3815 L147.0885 71.6331" stroke-dasharray="" fill="#ffff00" fill-opacity="0.6" stroke="none" stroke-opacity="1.0" stroke-width="0.0px" stroke-linecap="butt" stroke-linejoin="miter" stroke-dashoffset="0.0px"/>
<path d="M483.8621 125.7904 L483.6915 125.4762 L483.4742 125.4866 L483.8621 125.7904 M477.2796 113.8294 L477.1287 113.6165 L476.9233 113.8116 L477.2796 113.8294 M495.8941 46.0774 L495.7748 45.8276 L495.522 46.0972 L495.8941 46.0774 M471.1427 22.7716 L471.3442 22.6727 L471.0914 22.4956 L471.1427 22.7716" stroke-dasharray="" fill="#ffff00" fill-opacity="0.6" stroke="none" stroke-opacity="1.0" stroke-width="0.0px" stroke-linecap="butt" stroke-linejoin="miter" stroke-dashoffset="0.0px"/>
<path d="M434.2732 211.4001 L434.0267 211.4405 L434.3522 211.6567 L434.2732 211.4001 M436.3868 209.4129 L436.6191 209.2301 L436.1529 209.1687 L436.3868 209.4129 M437.3436 205.7814 L436.7384 205.8885 L437.3365 206.2768 L437.3436 205.7814 M436.8703 202.554 L436.7834 202.2117 L436.5875 202.3569 L436.8703 202.554 M436.1647 198.7389 L436.1221 198.5819 L435.9712 198.6153 L436.1647 198.7389 M434.8911 196.8174 L434.8318 196.6346 L434.6035 196.6936 L434.8911 196.8174 M433.596 194.7706 L433.6371 194.5328 L433.4933 194.5684 L433.596 194.7706 M406.6457 185.7039 L406.4545 185.5053 L406.5177 185.7093 L406.6457 185.7039 M405.3475 183.2635 L403.8171 183.4491 L406.0745 183.9288 L405.5854 184.5151 L409.2705 187.5525 L410.2187 186.9517 L408.7806 184.5057 L405.3475 183.2635" stroke-dasharray="" fill="#ffff00" fill-opacity="0.6" stroke="none" stroke-opacity="1.0" stroke-width="0.0px" stroke-linecap="butt" stroke-linejoin="miter" stroke-dashoffset="0.0px"/>
</g>
<g id="mask" inkscape:groupmode="layer" inkscape:label="mask">
<path d="M256.4792 127.7604 L384.2396 127.7604 L384.2396 -255.5208 L256.4792 -255.5208 L256.4792 127.7604" stroke-dasharray="" fill="#808080" fill-opacity="1.0" stroke="none" stroke-opacity="1.0" stroke-width="0.0px" stroke-linecap="butt" stroke-linejoin="miter" stroke-dashoffset="0.0px"/>
</g>
</svg>