<?xml version="1.0" standalone="no"?>
<!DOCTYPE svg PUBLIC "-//W3C//DTD SVG 1.1//EN" "http://www.w3.org/Graphics/SVG/1.1/DTD/svg11.dtd">
<svg width="800px" height="800px" version="1.1" xmlns="http://www.w3.org/2000/svg" xmlns:inkscape="http://www.inkscape.org/namespaces/inkscape">
<rect x="0" y="0" width="800px" height="800px" fill="#ffffff"/>
<g id="layer" inkscape:groupmode="layer" inkscape:label="layer">
<path d="M651.3482 651.1109 L640.9523 651.2985 L629.7073 651.5015 L620.1777 651.6735 L601.6382 652.0081 L591.0344 652.1995 L580.4305 652.3909 L568.8737 652.5995 L553.1411 652.8835 L541.8962 653.0865 L518.0201 653.5174 L507.3123 653.7107 L496.7084 653.9021 L479.7977 654.2073 L466.8374 654.4413 L449.4935 654.7543" stroke-dasharray="" fill="none" fill-opacity="1.0" stroke="#ff0000" stroke-opacity="1.0" stroke-width="12.0px" stroke-linecap="butt" stroke-linejoin="miter" stroke-dashoffset="0.0px"/>
<path d="M271.523 403.4999 L263.1991 409.7307 L254.1953 416.4703 L246.565 422.1819 L231.7206 433.2934 L223.2302 439.6489 L214.7397 446.0043 L205.4863 452.9308 L192.8894 462.3601 L183.8856 469.0997 L164.7682 483.4097 L156.1946 489.8274 L147.7041 496.1828 L134.1638 506.3182 L123.7866 514.0859 L109.8995 524.4809" stroke-dasharray="" fill="none" fill-opacity="1.0" stroke="#ff0000" stroke-opacity="1.0" stroke-width="12.0px" stroke-linecap="butt" stroke-linejoin="miter" stroke-dashoffset="0.0px"/>
<path d="M339.9167 550.9993 L329.9548 616.4532 L276.6274 655.6918 L211.173 645.73 L171.9338 592.4032 L181.8958 526.9492 L235.2232 487.7101 L300.6776 497.672 L339.9167 550.9993" stroke-dasharray="" fill="none" fill-opacity="1.0" stroke="#ff0000" stroke-opacity="1.0" stroke-width="12.0px" stroke-linecap="butt" stroke-linejoin="miter" stroke-dashoffset="0.0px"/>
<path d="M754.3641 616.3176 L755.2006 152.0666" stroke-dasharray="" fill="none" fill-opacity="1.0" stroke="#ff0000" stroke-opacity="1.0" stroke-width="12.0px" stroke-linecap="butt" stroke-linejoin="miter" stroke-dashoffset="0.0px"/>
<path d="M84.3341 201.4191 L87.68 608.7893" stroke-dasharray="" fill="none" fill-opacity="1.0" stroke="#ff0000" stroke-opacity="1.0" stroke-width="12.0px" stroke-linecap="butt" stroke-linejoin="miter" stroke-dashoffset="0.0px"/>
<path d="M662.1409 378.441 L652.103 386.806 L637.8826 393.4979 L625.3352 390.1519 L615.2973 382.6235 L606.9324 370.0761 L597.731 359.2017 L588.5296 351.6733 L573.4727 350.8368 L557.5794 356.6923 L541.686 366.7302 L526.6292 380.114 L514.0818 388.8972 L499.8614 395.5891 L487.3141 392.2432 L477.2762 384.7147 L468.9112 372.1674 L459.7098 361.293 L450.5084 353.7645 L435.4516 352.928 L419.5582 358.7835 L403.6649 368.8214 L387.3533 382.8326 L377.3154 391.1975 L363.095 397.8895 L350.5476 394.5435 L340.5097 387.0151 L332.1448 374.4677 L322.9434 363.5933 L313.742 356.0649 L298.6851 355.2284 L282.7918 361.0838 L266.8984 371.1217 L251.8416 384.5056 L239.2942 393.2888 L225.0738 399.9807 L212.5265 396.6347 L202.4886 389.1063 L194.1236 376.5589 L184.9222 365.6845 L175.7208 358.1561 L160.664 357.3196 L144.7706 363.1751 L128.8773 373.213 L113.8204 386.5968" stroke-dasharray="" fill="none" fill-opacity="1.0" stroke="#ff0000" stroke-opacity="1.0" stroke-width="12.0px" stroke-linecap="butt" stroke-linejoin="miter" stroke-dashoffset="0.0px"/>
<path d="M114.848 289.0668 L129.9049 275.683 L145.7982 265.6451 L161.6916 259.7897 L176.7484 260.6262 L185.9498 268.1546 L195.1513 279.029 L203.5162 291.5763 L213.5541 299.1047 L226.1015 302.4507 L240.3218 295.7587 L252.8692 286.9756 L267.9261 273.5918 L283.8194 263.5539 L299.7127 257.6985 L314.7696 258.535 L323.971 266.0634 L333.1724 276.9377 L341.5373 289.4851 L351.5752 297.0135 L364.1226 300.3594 L378.343 293.6675 L388.3809 285.3026 L404.6925 271.2914 L420.5858 261.2536 L436.4792 255.3982 L451.536 256.2346 L460.7374 263.763 L469.9389 274.6374 L478.3038 287.1847 L488.3417 294.7131 L500.8891 298.0591 L515.1094 291.3672 L527.6568 282.584 L542.7137 269.2002 L558.607 259.1623 L574.5003 253.3069 L589.5572 254.1434 L598.7586 261.6718 L607.96 272.5462 L616.3249 285.0935 L626.3628 292.6219 L638.9102 295.9679 L653.1306 289.2759 L663.1685 280.9111" stroke-dasharray="" fill="none" fill-opacity="1.0" stroke="#ff0000" stroke-opacity="1.0" stroke-width="12.0px" stroke-linecap="butt" stroke-linejoin="miter" stroke-dashoffset="0.0px"/>
<path d="M719.1861 169.0107 L643.8015 223.2757 L566.0077 165.5583 L479.0126 233.3135 L383.6525 158.8665 L276.5815 235.823 L176.2025 157.1935 L106.7737 201.5271" stroke-dasharray="" fill="none" fill-opacity="1.0" stroke="#ff0000" stroke-opacity="1.0" stroke-width="12.0px" stroke-linecap="butt" stroke-linejoin="miter" stroke-dashoffset="0.0px"/>
<path d="M112.2657 121.4786 L190.0595 71.2902 L287.929 149.0824 L389.1445 77.1455 L478.6492 146.573 L568.1538 81.3279 L647.6205 144.0635 L725.253 87.3414" stroke-dasharray="" fill="none" fill-opacity="1.0" stroke="#ff0000" stroke-opacity="1.0" stroke-width="12.0px" stroke-linecap="butt" stroke-linejoin="miter" stroke-dashoffset="0.0px"/>
<path d="M530.802 412.7711 L672.1188 419.7593 L689.9775 429.8533 L703.1774 450.0415 L704.7303 477.9942 L702.4009 506.7234 L696.9657 537.7819 L686.0951 550.9818 L648.0483 553.3111 L523.0373 548.6524" stroke-dasharray="" fill="none" fill-opacity="1.0" stroke="#ff0000" stroke-opacity="1.0" stroke-width="12.0px" stroke-linecap="butt" stroke-linejoin="miter" stroke-dashoffset="0.0px"/>
<path d="M584.7465 595.9927 L443.261 597.052 L424.8572 587.99 L410.5306 568.5853 L407.3905 540.7663 L408.0824 511.9511 L411.7427 480.6338 L421.845 466.837 L459.6978 462.3478 L584.7714 459.8901" stroke-dasharray="" fill="none" fill-opacity="1.0" stroke="#ff0000" stroke-opacity="1.0" stroke-width="12.0px" stroke-linecap="butt" stroke-linejoin="miter" stroke-dashoffset="0.0px"/>
<path d="M316.1111 403.9635 L333.6805 512.6742" stroke-dasharray="" fill="none" fill-opacity="1.0" stroke="#ff0000" stroke-opacity="1.0" stroke-width="12.0px" stroke-linecap="butt" stroke-linejoin="miter" stroke-dashoffset="0.0px"/>
<path d="M373.2117 413.8463 L354.5442 536.8321" stroke-dasharray="" fill="none" fill-opacity="1.0" stroke="#ff0000" stroke-opacity="1.0" stroke-width="12.0px" stroke-linecap="butt" stroke-linejoin="miter" stroke-dashoffset="0.0px"/>
<path d="M401.762 430.3177 L518.1594 433.6119" stroke-dasharray="" fill="none" fill-opacity="1.0" stroke="#ff0000" stroke-opacity="1.0" stroke-width="12.0px" stroke-linecap="butt" stroke-linejoin="miter" stroke-dashoffset="0.0px"/>
<path d="M619.1836 511.5761 L501.6881 512.6742" stroke-dasharray="" fill="none" fill-opacity="1.0" stroke="#ff0000" stroke-opacity="1.0" stroke-width="12.0px" stroke-linecap="butt" stroke-linejoin="miter" stroke-dashoffset="0.0px"/>
<path d="M696.041 323.7369 L720.5035 323.931 L720.5035 342.3721 L628.2981 342.3721" stroke-dasharray="" fill="none" fill-opacity="1.0" stroke="#ff0000" stroke-opacity="1.0" stroke-width="12.0px" stroke-linecap="butt" stroke-linejoin="miter" stroke-dashoffset="0.0px"/>
</g>
</svg>