<?xml version="1.0" standalone="no"?>
<!DOCTYPE svg PUBLIC "-//W3C//DTD SVG 1.1//EN" "http://www.w3.org/Graphics/SVG/1.1/DTD/svg11.dtd">
<svg width="512px" height="512px" version="1.1" xmlns="http://www.w3.org/2000/svg" xmlns:inkscape="http://www.inkscape.org/namespaces/inkscape">
<rect x="0" y="0" width="512px" height="512px" fill="#ff6464"/>
<g id="road" inkscape:groupmode="layer" inkscape:label="road">
<path d="M42.6667 0.0 L0.0 85.3333 L42.6667 170.6667" stroke-dasharray="" fill="none" fill-opacity="1.0" stroke="#ffffff" stroke-opacity="0.7" stroke-width="1.0px" stroke-linecap="butt" stroke-linejoin="miter" stroke-dashoffset="0.0px"/>
<path d="M85.3333 0.0 L128.0 85.3333 L85.3333 170.6667" stroke-dasharray="" fill="none" fill-opacity="1.0" stroke="#ffffff" stroke-opacity="0.7" stroke-width="1.0px" stroke-linecap="butt" stroke-linejoin="miter" stroke-dashoffset="0.0px"/>
<path d="M0.0 469.3333 L512.0 469.3333" stroke-dasharray="" fill="none" fill-opacity="1.0" stroke="#ffffff" stroke-opacity="0.7" stroke-width="1.0px" stroke-linecap="butt" stroke-linejoin="miter" stroke-dashoffset="0.0px"/>
<path d="M0.0 512.0 L42.6667 512.0 L170.6667 512.0 L384.0 512.0 L512.0 512.0" stroke-dasharray="" fill="none" fill-opacity="1.0" stroke="#ffffff" stroke-opacity="0.7" stroke-width="1.0px" stroke-linecap="butt" stroke-linejoin="miter" stroke-dashoffset="0.0px"/>
<path d="M213.3333 0.0 L170.6667 85.3333 L170.6667 170.6667" stroke-dasharray="" fill="none" fill-opacity="1.0" stroke="#ffffff" stroke-opacity="0.7" stroke-width="1.0px" stroke-linecap="butt" stroke-linejoin="miter" stroke-dashoffset="0.0px"/>
<path d="M256.0 0.0 L298.6667 85.3333 L298.6667 170.6667" stroke-dasharray="" fill="none" fill-opacity="1.0" stroke="#ffffff" stroke-opacity="0.7" stroke-width="1.0px" stroke-linecap="butt" stroke-linejoin="miter" stroke-dashoffset="0.0px"/>
<path d="M170.6667 213.3333 L170.6667 298.6667 L213.3333 384.0" stroke-dasharray="" fill="none" fill-opacity="1.0" stroke="#ffffff" stroke-opacity="0.7" stroke-width="1.0px" stroke-linecap="butt" stroke-linejoin="miter" stroke-dashoffset="0.0px"/>
<path d="M298.6667 213.3333 L298.6667 298.6667 L256.0 384.0" stroke-dasharray="" fill="none" fill-opacity="1.0" stroke="#ffffff" stroke-opacity="0.7" stroke-width="1.0px" stroke-linecap="butt" stroke-linejoin="miter" stroke-dashoffset="0.0px"/>
<path d="M386.3857 0.0135 L412.3727 3.3157 L438.3597 11.4987 L459.913 23.5939 L477.525 39.6015 L491.319 58.4163 L501.172 78.2039 L507.0837 98.0 L509.0543 122.6811" stroke-dasharray="" fill="none" fill-opacity="1.0" stroke="#ffffff" stroke-opacity="0.7" stroke-width="1.0px" stroke-linecap="butt" stroke-linejoin="miter" stroke-dashoffset="0.0px"/>
<path d="M386.368 336.0145 L412.355 332.7123 L438.342 324.5293 L459.8953 312.4341 L477.5073 296.4265 L491.3013 277.6117 L501.1543 257.8241 L507.066 238.028 L509.0365 213.3469" stroke-dasharray="" fill="none" fill-opacity="1.0" stroke="#ffffff" stroke-opacity="0.7" stroke-width="1.0px" stroke-linecap="butt" stroke-linejoin="miter" stroke-dashoffset="0.0px"/>
<path d="M343.719 42.6802 L369.7061 45.9824 L395.6931 54.1654 L417.2463 66.2606 L434.8584 82.2681 L448.6524 101.083 L458.5053 120.8705 L464.417 140.6666 L466.3876 165.3478 L466.3699 170.6802 L464.3993 195.3614 L458.4876 215.1575 L448.6347 234.945 L434.8407 253.7599 L417.2286 269.7674 L395.6753 281.8626 L369.6884 290.0456 L343.7013 293.3478" stroke-dasharray="" fill="none" fill-opacity="1.0" stroke="#ffffff" stroke-opacity="0.7" stroke-width="1.0px" stroke-linecap="butt" stroke-linejoin="miter" stroke-dashoffset="0.0px"/>
<path d="M343.1895 407.6808 L361.8469 393.3511 L382.4276 387.1208 L407.0495 394.6476 L425.3203 406.4348 L444.5542 419.5688 L470.1363 424.8142 L493.2176 418.1166 L510.1438 401.4505" stroke-dasharray="" fill="none" fill-opacity="1.0" stroke="#ffffff" stroke-opacity="0.7" stroke-width="1.0px" stroke-linecap="butt" stroke-linejoin="miter" stroke-dashoffset="0.0px"/>
<path d="M0.0 341.3333 L17.0667 384.0 L34.1333 341.3333 L51.2 384.0 L68.2667 341.3333 L85.3333 384.0 L102.4 341.3333 L119.4667 384.0 L136.5333 341.3333 L153.6 384.0" stroke-dasharray="" fill="none" fill-opacity="1.0" stroke="#ffffff" stroke-opacity="0.7" stroke-width="1.0px" stroke-linecap="butt" stroke-linejoin="miter" stroke-dashoffset="0.0px"/>
</g>
</svg>