<?xml version="1.0" standalone="no"?>
<!DOCTYPE svg PUBLIC "-//W3C//DTD SVG 1.1//EN" "http://www.w3.org/Graphics/SVG/1.1/DTD/svg11.dtd">
<svg width="500px" height="500px" version="1.1" xmlns="http://www.w3.org/2000/svg" xmlns:inkscape="http://www.inkscape.org/namespaces/inkscape">
<rect x="0" y="0" width="500px" height="500px" fill="#ffffff"/>
<g id="l1" inkscape:groupmode="layer" inkscape:label="l1">
</g>
<g id="l2" inkscape:groupmode="layer" inkscape:label="l2">
<path d="M500.0 250.0 L499.9951 248.4292 L499.9803 246.8585 L499.9556 245.2879 L499.921 243.7175 L499.8766 242.1473 L499.8224 240.5775 L499.7582 239.008 L499.6842 237.4389 L499.6004 235.8704 L499.5067 234.3024 L499.4031 232.735 L499.2897 231.1683 L499.1665 229.6023 L499.0334 228.0372 L498.8905 226.4729 L498.7378 224.9096 L498.5752 223.3472 L498.4028 221.7859 L498.2207 220.2257 L498.0287 218.6667 L497.8269 217.1089 L497.6154 215.5524 L497.394 213.9973 L497.1629 212.4436 L496.9221 210.8914 L496.6715 209.3407 L496.4111 207.7916 L496.1411 206.2442 L495.8613 204.6986 L495.5718 203.1547 L495.2726 201.6126 L494.9638 200.0725 L494.6452 198.5343 L494.317 196.9982 L493.9792 195.4642 L493.6317 193.9323 L493.2746 192.4026 L492.9079 190.8753 L492.5316 189.3502 L492.1458 187.8275 L491.7504 186.3073 L491.3454 184.7896 L490.9309 183.2745 L490.5069 181.762 L490.0734 180.2522 L489.6304 178.7452 L489.178 177.241 L488.7161 175.7396 L488.2448 174.2412 L487.7641 172.7458 L487.274 171.2534 L486.7746 169.7641 L486.2658 168.278 L485.7476 166.7951 L485.2202 165.3155 L484.6835 163.8393 L484.1375 162.3664 L483.5822 160.897 L483.0178 159.4312 L482.4441 157.9689 L481.8613 156.5102 L481.2693 155.0552 L480.6682 153.604 L480.058 152.1566 L479.4387 150.713 L478.8103 149.2734 L478.1729 147.8377 L477.5265 146.4061 L476.8711 144.9786 L476.2068 143.5552 L475.5335 142.136 L474.8513 140.7211 L474.1603 139.3104 L473.4604 137.9042 L472.7516 136.5024 L472.0341 135.105 L471.3078 133.7122 L470.5728 132.324 L469.8291 130.9404 L469.0767 129.5616 L468.3156 128.1875 L467.5459 126.8182 L466.7677 125.4537 L465.9809 124.0942 L465.1855 122.7396 L464.3817 121.3901 L463.5694 120.0457 L462.7486 118.7063 L461.9195 117.3722 L461.082 116.0433 L460.2361 114.7197 L459.382 113.4014 L458.5196 112.0885 L457.649 110.7811 L456.7701 109.4792 L455.8831 108.1828 L454.988 106.892 L454.0848 105.6068 L453.1735 104.3274 L452.2542 103.0537 L451.327 101.7858 L450.3917 100.5238 L449.4486 99.2676 L448.4976 98.0174 L447.5388 96.7732 L446.5721 95.5351 L445.5977 94.3031 L444.6156 93.0772 L443.6258 91.8575 L442.6283 90.644 L441.6233 89.4368 L440.6106 88.236 L439.5905 87.0416 L438.5628 85.8536 L437.5278 84.672 L436.4853 83.497 L435.4354 82.3286 L434.3783 81.1668 L433.3138 80.0117 L432.2422 78.8632 L431.1633 77.7215 L430.0773 76.5867 L428.9841 75.4586 L427.8839 74.3375 L426.7767 73.2233 L425.6625 72.1161 L424.5414 71.0159 L423.4133 69.9227 L422.2785 68.8367 L421.1368 67.7578 L419.9883 66.6862 L418.8332 65.6217 L417.6714 64.5646 L416.503 63.5147 L415.328 62.4722 L414.1464 61.4372 L412.9584 60.4095 L411.764 59.3894 L410.5632 58.3767 L409.356 57.3717 L408.1425 56.3742 L406.9228 55.3844 L405.6969 54.4023 L404.4649 53.4279 L403.2268 52.4612 L401.9826 51.5024 L400.7324 50.5514 L399.4762 49.6083 L398.2142 48.673 L396.9463 47.7458 L395.6726 46.8265 L394.3932 45.9152 L393.108 45.012 L391.8172 44.1169 L390.5208 43.2299 L389.2189 42.351 L387.9115 41.4804 L386.5986 40.618 L385.2803 39.7639 L383.9567 38.918 L382.6278 38.0805 L381.2937 37.2514 L379.9543 36.4306 L378.6099 35.6183 L377.2604 34.8145 L375.9058 34.0191 L374.5463 33.2323 L373.1818 32.4541 L371.8125 31.6844 L370.4384 30.9233 L369.0596 30.1709 L367.676 29.4272 L366.2878 28.6922 L364.895 27.9659 L363.4976 27.2484 L362.0958 26.5396 L360.6896 25.8397 L359.2789 25.1487 L357.864 24.4665 L356.4448 23.7932 L355.0214 23.1289 L353.5939 22.4735 L352.1623 21.8271 L350.7266 21.1897 L349.287 20.5613 L347.8434 19.942 L346.396 19.3318 L344.9448 18.7307 L343.4898 18.1387 L342.0311 17.5559 L340.5688 16.9822 L339.103 16.4178 L337.6336 15.8625 L336.1607 15.3165 L334.6845 14.7798 L333.2049 14.2524 L331.722 13.7342 L330.2359 13.2254 L328.7466 12.726 L327.2542 12.2359 L325.7588 11.7552 L324.2604 11.2839 L322.759 10.822 L321.2548 10.3696 L319.7478 9.9266 L318.238 9.4931 L316.7255 9.0691 L315.2104 8.6546 L313.6927 8.2496 L312.1725 7.8542 L310.6498 7.4684 L309.1247 7.0921 L307.5974 6.7254 L306.0677 6.3683 L304.5358 6.0208 L303.0018 5.683 L301.4657 5.3548 L299.9275 5.0362 L298.3874 4.7274 L296.8453 4.4282 L295.3014 4.1387 L293.7558 3.8589 L292.2084 3.5889 L290.6593 3.3285 L289.1086 3.0779 L287.5564 2.8371 L286.0027 2.606 L284.4476 2.3846 L282.8911 2.1731 L281.3333 1.9713 L279.7743 1.7793 L278.2141 1.5972 L276.6528 1.4248 L275.0904 1.2622 L273.5271 1.1095 L271.9628 0.9666 L270.3977 0.8335 L268.8317 0.7103 L267.265 0.5969 L265.6976 0.4933 L264.1296 0.3996 L262.5611 0.3158 L260.992 0.2418 L259.4225 0.1776 L257.8527 0.1234 L256.2825 0.079 L254.7121 0.0444 L253.1415 0.0197 L251.5708 0.0049 L250.0 0.0 L248.4292 0.0049 L246.8585 0.0197 L245.2879 0.0444 L243.7175 0.079 L242.1473 0.1234 L240.5775 0.1776 L239.008 0.2418 L237.4389 0.3158 L235.8704 0.3996 L234.3024 0.4933 L232.735 0.5969 L231.1683 0.7103 L229.6023 0.8335 L228.0372 0.9666 L226.4729 1.1095 L224.9096 1.2622 L223.3472 1.4248 L221.7859 1.5972 L220.2257 1.7793 L218.6667 1.9713 L217.1089 2.1731 L215.5524 2.3846 L213.9973 2.606 L212.4436 2.8371 L210.8914 3.0779 L209.3407 3.3285 L207.7916 3.5889 L206.2442 3.8589 L204.6986 4.1387 L203.1547 4.4282 L201.6126 4.7274 L200.0725 5.0362 L198.5343 5.3548 L196.9982 5.683 L195.4642 6.0208 L193.9323 6.3683 L192.4026 6.7254 L190.8753 7.0921 L189.3502 7.4684 L187.8275 7.8542 L186.3073 8.2496 L184.7896 8.6546 L183.2745 9.0691 L181.762 9.4931 L180.2522 9.9266 L178.7452 10.3696 L177.241 10.822 L175.7396 11.2839 L174.2412 11.7552 L172.7458 12.2359 L171.2534 12.726 L169.7641 13.2254 L168.278 13.7342 L166.7951 14.2524 L165.3155 14.7798 L163.8393 15.3165 L162.3664 15.8625 L160.897 16.4178 L159.4312 16.9822 L157.9689 17.5559 L156.5102 18.1387 L155.0552 18.7307 L153.604 19.3318 L152.1566 19.942 L150.713 20.5613 L149.2734 21.1897 L147.8377 21.8271 L146.4061 22.4735 L144.9786 23.1289 L143.5552 23.7932 L142.136 24.4665 L140.7211 25.1487 L139.3104 25.8397 L137.9042 26.5396 L136.5024 27.2484 L135.105 27.9659 L133.7122 28.6922 L132.324 29.4272 L130.9404 30.1709 L129.5616 30.9233 L128.1875 31.6844 L126.8182 32.4541 L125.4537 33.2323 L124.0942 34.0191 L122.7396 34.8145 L121.3901 35.6183 L120.0457 36.4306 L118.7063 37.2514 L117.3722 38.0805 L116.0433 38.918 L114.7197 39.7639 L113.4014 40.618 L112.0885 41.4804 L110.7811 42.351 L109.4792 43.2299 L108.1828 44.1169 L106.892 45.012 L105.6068 45.9152 L104.3274 46.8265 L103.0537 47.7458 L101.7858 48.673 L100.5238 49.6083 L99.2676 50.5514 L98.0174 51.5024 L96.7732 52.4612 L95.5351 53.4279 L94.3031 54.4023 L93.0772 55.3844 L91.8575 56.3742 L90.644 57.3717 L89.4368 58.3767 L88.236 59.3894 L87.0416 60.4095 L85.8536 61.4372 L84.672 62.4722 L83.497 63.5147 L82.3286 64.5646 L81.1668 65.6217 L80.0117 66.6862 L78.8632 67.7578 L77.7215 68.8367 L76.5867 69.9227 L75.4586 71.0159 L74.3375 72.1161 L73.2233 73.2233 L72.1161 74.3375 L71.0159 75.4586 L69.9227 76.5867 L68.8367 77.7215 L67.7578 78.8632 L66.6862 80.0117 L65.6217 81.1668 L64.5646 82.3286 L63.5147 83.497 L62.4722 84.672 L61.4372 85.8536 L60.4095 87.0416 L59.3894 88.236 L58.3767 89.4368 L57.3717 90.644 L56.3742 91.8575 L55.3844 93.0772 L54.4023 94.3031 L53.4279 95.5351 L52.4612 96.7732 L51.5024 98.0174 L50.5514 99.2676 L49.6083 100.5238 L48.673 101.7858 L47.7458 103.0537 L46.8265 104.3274 L45.9152 105.6068 L45.012 106.892 L44.1169 108.1828 L43.2299 109.4792 L42.351 110.7811 L41.4804 112.0885 L40.618 113.4014 L39.7639 114.7197 L38.918 116.0433 L38.0805 117.3722 L37.2514 118.7063 L36.4306 120.0457 L35.6183 121.3901 L34.8145 122.7396 L34.0191 124.0942 L33.2323 125.4537 L32.4541 126.8182 L31.6844 128.1875 L30.9233 129.5616 L30.1709 130.9404 L29.4272 132.324 L28.6922 133.7122 L27.9659 135.105 L27.2484 136.5024 L26.5396 137.9042 L25.8397 139.3104 L25.1487 140.7211 L24.4665 142.136 L23.7932 143.5552 L23.1289 144.9786 L22.4735 146.4061 L21.8271 147.8377 L21.1897 149.2734 L20.5613 150.713 L19.942 152.1566 L19.3318 153.604 L18.7307 155.0552 L18.1387 156.5102 L17.5559 157.9689 L16.9822 159.4312 L16.4178 160.897 L15.8625 162.3664 L15.3165 163.8393 L14.7798 165.3155 L14.2524 166.7951 L13.7342 168.278 L13.2254 169.7641 L12.726 171.2534 L12.2359 172.7458 L11.7552 174.2412 L11.2839 175.7396 L10.822 177.241 L10.3696 178.7452 L9.9266 180.2522 L9.4931 181.762 L9.0691 183.2745 L8.6546 184.7896 L8.2496 186.3073 L7.8542 187.8275 L7.4684 189.3502 L7.0921 190.8753 L6.7254 192.4026 L6.3683 193.9323 L6.0208 195.4642 L5.683 196.9982 L5.3548 198.5343 L5.0362 200.0725 L4.7274 201.6126 L4.4282 203.1547 L4.1387 204.6986 L3.8589 206.2442 L3.5889 207.7916 L3.3285 209.3407 L3.0779 210.8914 L2.8371 212.4436 L2.606 213.9973 L2.3846 215.5524 L2.1731 217.1089 L1.9713 218.6667 L1.7793 220.2257 L1.5972 221.7859 L1.4248 223.3472 L1.2622 224.9096 L1.1095 226.4729 L0.9666 228.0372 L0.8335 229.6023 L0.7103 231.1683 L0.5969 232.735 L0.4933 234.3024 L0.3996 235.8704 L0.3158 237.4389 L0.2418 239.008 L0.1776 240.5775 L0.1234 242.1473 L0.079 243.7175 L0.0444 245.2879 L0.0197 246.8585 L0.0049 248.4292 L0.0 250.0 L0.0049 251.5708 L0.0197 253.1415 L0.0444 254.7121 L0.079 256.2825 L0.1234 257.8527 L0.1776 259.4225 L0.2418 260.992 L0.3158 262.5611 L0.3996 264.1296 L0.4933 265.6976 L0.5969 267.265 L0.7103 268.8317 L0.8335 270.3977 L0.9666 271.9628 L1.1095 273.5271 L1.2622 275.0904 L1.4248 276.6528 L1.5972 278.2141 L1.7793 279.7743 L1.9713 281.3333 L2.1731 282.8911 L2.3846 284.4476 L2.606 286.0027 L2.8371 287.5564 L3.0779 289.1086 L3.3285 290.6593 L3.5889 292.2084 L3.8589 293.7558 L4.1387 295.3014 L4.4282 296.8453 L4.7274 298.3874 L5.0362 299.9275 L5.3548 301.4657 L5.683 303.0018 L6.0208 304.5358 L6.3683 306.0677 L6.7254 307.5974 L7.0921 309.1247 L7.4684 310.6498 L7.8542 312.1725 L8.2496 313.6927 L8.6546 315.2104 L9.0691 316.7255 L9.4931 318.238 L9.9266 319.7478 L10.3696 321.2548 L10.822 322.759 L11.2839 324.2604 L11.7552 325.7588 L12.2359 327.2542 L12.726 328.7466 L13.2254 330.2359 L13.7342 331.722 L14.2524 333.2049 L14.7798 334.6845 L15.3165 336.1607 L15.8625 337.6336 L16.4178 339.103 L16.9822 340.5688 L17.5559 342.0311 L18.1387 343.4898 L18.7307 344.9448 L19.3318 346.396 L19.942 347.8434 L20.5613 349.287 L21.1897 350.7266 L21.8271 352.1623 L22.4735 353.5939 L23.1289 355.0214 L23.7932 356.4448 L24.4665 357.864 L25.1487 359.2789 L25.8397 360.6896 L26.5396 362.0958 L27.2484 363.4976 L27.9659 364.895 L28.6922 366.2878 L29.4272 367.676 L30.1709 369.0596 L30.9233 370.4384 L31.6844 371.8125 L32.4541 373.1818 L33.2323 374.5463 L34.0191 375.9058 L34.8145 377.2604 L35.6183 378.6099 L36.4306 379.9543 L37.2514 381.2937 L38.0805 382.6278 L38.918 383.9567 L39.7639 385.2803 L40.618 386.5986 L41.4804 387.9115 L42.351 389.2189 L43.2299 390.5208 L44.1169 391.8172 L45.012 393.108 L45.9152 394.3932 L46.8265 395.6726 L47.7458 396.9463 L48.673 398.2142 L49.6083 399.4762 L50.5514 400.7324 L51.5024 401.9826 L52.4612 403.2268 L53.4279 404.4649 L54.4023 405.6969 L55.3844 406.9228 L56.3742 408.1425 L57.3717 409.356 L58.3767 410.5632 L59.3894 411.764 L60.4095 412.9584 L61.4372 414.1464 L62.4722 415.328 L63.5147 416.503 L64.5646 417.6714 L65.6217 418.8332 L66.6862 419.9883 L67.7578 421.1368 L68.8367 422.2785 L69.9227 423.4133 L71.0159 424.5414 L72.1161 425.6625 L73.2233 426.7767 L74.3375 427.8839 L75.4586 428.9841 L76.5867 430.0773 L77.7215 431.1633 L78.8632 432.2422 L80.0117 433.3138 L81.1668 434.3783 L82.3286 435.4354 L83.497 436.4853 L84.672 437.5278 L85.8536 438.5628 L87.0416 439.5905 L88.236 440.6106 L89.4368 441.6233 L90.644 442.6283 L91.8575 443.6258 L93.0772 444.6156 L94.3031 445.5977 L95.5351 446.5721 L96.7732 447.5388 L98.0174 448.4976 L99.2676 449.4486 L100.5238 450.3917 L101.7858 451.327 L103.0537 452.2542 L104.3274 453.1735 L105.6068 454.0848 L106.892 454.988 L108.1828 455.8831 L109.4792 456.7701 L110.7811 457.649 L112.0885 458.5196 L113.4014 459.382 L114.7197 460.2361 L116.0433 461.082 L117.3722 461.9195 L118.7063 462.7486 L120.0457 463.5694 L121.3901 464.3817 L122.7396 465.1855 L124.0942 465.9809 L125.4537 466.7677 L126.8182 467.5459 L128.1875 468.3156 L129.5616 469.0767 L130.9404 469.8291 L132.324 470.5728 L133.7122 471.3078 L135.105 472.0341 L136.5024 472.7516 L137.9042 473.4604 L139.3104 474.1603 L140.7211 474.8513 L142.136 475.5335 L143.5552 476.2068 L144.9786 476.8711 L146.4061 477.5265 L147.8377 478.1729 L149.2734 478.8103 L150.713 479.4387 L152.1566 480.058 L153.604 480.6682 L155.0552 481.2693 L156.5102 481.8613 L157.9689 482.4441 L159.4312 483.0178 L160.897 483.5822 L162.3664 484.1375 L163.8393 484.6835 L165.3155 485.2202 L166.7951 485.7476 L168.278 486.2658 L169.7641 486.7746 L171.2534 487.274 L172.7458 487.7641 L174.2412 488.2448 L175.7396 488.7161 L177.241 489.178 L178.7452 489.6304 L180.2522 490.0734 L181.762 490.5069 L183.2745 490.9309 L184.7896 491.3454 L186.3073 491.7504 L187.8275 492.1458 L189.3502 492.5316 L190.8753 492.9079 L192.4026 493.2746 L193.9323 493.6317 L195.4642 493.9792 L196.9982 494.317 L198.5343 494.6452 L200.0725 494.9638 L201.6126 495.2726 L203.1547 495.5718 L204.6986 495.8613 L206.2442 496.1411 L207.7916 496.4111 L209.3407 496.6715 L210.8914 496.9221 L212.4436 497.1629 L213.9973 497.394 L215.5524 497.6154 L217.1089 497.8269 L218.6667 498.0287 L220.2257 498.2207 L221.7859 498.4028 L223.3472 498.5752 L224.9096 498.7378 L226.4729 498.8905 L228.0372 499.0334 L229.6023 499.1665 L231.1683 499.2897 L232.735 499.4031 L234.3024 499.5067 L235.8704 499.6004 L237.4389 499.6842 L239.008 499.7582 L240.5775 499.8224 L242.1473 499.8766 L243.7175 499.921 L245.2879 499.9556 L246.8585 499.9803 L248.4292 499.9951 L250.0 500.0 L251.5708 499.9951 L253.1415 499.9803 L254.7121 499.9556 L256.2825 499.921 L257.8527 499.8766 L259.4225 499.8224 L260.992 499.7582 L262.5611 499.6842 L264.1296 499.6004 L265.6976 499.5067 L267.265 499.4031 L268.8317 499.2897 L270.3977 499.1665 L271.9628 499.0334 L273.5271 498.8905 L275.0904 498.7378 L276.6528 498.5752 L278.2141 498.4028 L279.7743 498.2207 L281.3333 498.0287 L282.8911 497.8269 L284.4476 497.6154 L286.0027 497.394 L287.5564 497.1629 L289.1086 496.9221 L290.6593 496.6715 L292.2084 496.4111 L293.7558 496.1411 L295.3014 495.8613 L296.8453 495.5718 L298.3874 495.2726 L299.9275 494.9638 L301.4657 494.6452 L303.0018 494.317 L304.5358 493.9792 L306.0677 493.6317 L307.5974 493.2746 L309.1247 492.9079 L310.6498 492.5316 L312.1725 492.1458 L313.6927 491.7504 L315.2104 491.3454 L316.7255 490.9309 L318.238 490.5069 L319.7478 490.0734 L321.2548 489.6304 L322.759 489.178 L324.2604 488.7161 L325.7588 488.2448 L327.2542 487.7641 L328.7466 487.274 L330.2359 486.7746 L331.722 486.2658 L333.2049 485.7476 L334.6845 485.2202 L336.1607 484.6835 L337.6336 484.1375 L339.103 483.5822 L340.5688 483.0178 L342.0311 482.4441 L343.4898 481.8613 L344.9448 481.2693 L346.396 480.6682 L347.8434 480.058 L349.287 479.4387 L350.7266 478.8103 L352.1623 478.1729 L353.5939 477.5265 L355.0214 476.8711 L356.4448 476.2068 L357.864 475.5335 L359.2789 474.8513 L360.6896 474.1603 L362.0958 473.4604 L363.4976 472.7516 L364.895 472.0341 L366.2878 471.3078 L367.676 470.5728 L369.0596 469.8291 L370.4384 469.0767 L371.8125 468.3156 L373.1818 467.5459 L374.5463 466.7677 L375.9058 465.9809 L377.2604 465.1855 L378.6099 464.3817 L379.9543 463.5694 L381.2937 462.7486 L382.6278 461.9195 L383.9567 461.082 L385.2803 460.2361 L386.5986 459.382 L387.9115 458.5196 L389.2189 457.649 L390.5208 456.7701 L391.8172 455.8831 L393.108 454.988 L394.3932 454.0848 L395.6726 453.1735 L396.9463 452.2542 L398.2142 451.327 L399.4762 450.3917 L400.7324 449.4486 L401.9826 448.4976 L403.2268 447.5388 L404.4649 446.5721 L405.6969 445.5977 L406.9228 444.6156 L408.1425 443.6258 L409.356 442.6283 L410.5632 441.6233 L411.764 440.6106 L412.9584 439.5905 L414.1464 438.5628 L415.328 437.5278 L416.503 436.4853 L417.6714 435.4354 L418.8332 434.3783 L419.9883 433.3138 L421.1368 432.2422 L422.2785 431.1633 L423.4133 430.0773 L424.5414 428.9841 L425.6625 427.8839 L426.7767 426.7767 L427.8839 425.6625 L428.9841 424.5414 L430.0773 423.4133 L431.1633 422.2785 L432.2422 421.1368 L433.3138 419.9883 L434.3783 418.8332 L435.4354 417.6714 L436.4853 416.503 L437.5278 415.328 L438.5628 414.1464 L439.5905 412.9584 L440.6106 411.764 L441.6233 410.5632 L442.6283 409.356 L443.6258 408.1425 L444.6156 406.9228 L445.5977 405.6969 L446.5721 404.4649 L447.5388 403.2268 L448.4976 401.9826 L449.4486 400.7324 L450.3917 399.4762 L451.327 398.2142 L452.2542 396.9463 L453.1735 395.6726 L454.0848 394.3932 L454.988 393.108 L455.8831 391.8172 L456.7701 390.5208 L457.649 389.2189 L458.5196 387.9115 L459.382 386.5986 L460.2361 385.2803 L461.082 383.9567 L461.9195 382.6278 L462.7486 381.2937 L463.5694 379.9543 L464.3817 378.6099 L465.1855 377.2604 L465.9809 375.9058 L466.7677 374.5463 L467.5459 373.1818 L468.3156 371.8125 L469.0767 370.4384 L469.8291 369.0596 L470.5728 367.676 L471.3078 366.2878 L472.0341 364.895 L472.7516 363.4976 L473.4604 362.0958 L474.1603 360.6896 L474.8513 359.2789 L475.5335 357.864 L476.2068 356.4448 L476.8711 355.0214 L477.5265 353.5939 L478.1729 352.1623 L478.8103 350.7266 L479.4387 349.287 L480.058 347.8434 L480.6682 346.396 L481.2693 344.9448 L481.8613 343.4898 L482.4441 342.0311 L483.0178 340.5688 L483.5822 339.103 L484.1375 337.6336 L484.6835 336.1607 L485.2202 334.6845 L485.7476 333.2049 L486.2658 331.722 L486.7746 330.2359 L487.274 328.7466 L487.7641 327.2542 L488.2448 325.7588 L488.7161 324.2604 L489.178 322.759 L489.6304 321.2548 L490.0734 319.7478 L490.5069 318.238 L490.9309 316.7255 L491.3454 315.2104 L491.7504 313.6927 L492.1458 312.1725 L492.5316 310.6498 L492.9079 309.1247 L493.2746 307.5974 L493.6317 306.0677 L493.9792 304.5358 L494.317 303.0018 L494.6452 301.4657 L494.9638 299.9275 L495.2726 298.3874 L495.5718 296.8453 L495.8613 295.3014 L496.1411 293.7558 L496.4111 292.2084 L496.6715 290.6593 L496.9221 289.1086 L497.1629 287.5564 L497.394 286.0027 L497.6154 284.4476 L497.8269 282.8911 L498.0287 281.3333 L498.2207 279.7743 L498.4028 278.2141 L498.5752 276.6528 L498.7378 275.0904 L498.8905 273.5271 L499.0334 271.9628 L499.1665 270.3977 L499.2897 268.8317 L499.4031 267.265 L499.5067 265.6976 L499.6004 264.1296 L499.6842 262.5611 L499.7582 260.992 L499.8224 259.4225 L499.8766 257.8527 L499.921 256.2825 L499.9556 254.7121 L499.9803 253.1415 L499.9951 251.5708" stroke-dasharray="" fill="none" fill-opacity="1.0" stroke="#ffffff" stroke-opacity="1.0" stroke-width="0.0px" stroke-linecap="butt" stroke-linejoin="miter" stroke-dashoffset="0.0px"/>
</g>
</svg>