<?xml version="1.0" standalone="no"?>
<!DOCTYPE svg PUBLIC "-//W3C//DTD SVG 1.1//EN" "http://www.w3.org/Graphics/SVG/1.1/DTD/svg11.dtd">
<svg width="800px" height="800px" version="1.1" xmlns="http://www.w3.org/2000/svg" xmlns:inkscape="http://www.inkscape.org/namespaces/inkscape">
<rect x="0" y="0" width="800px" height="800px" fill="#ffffff"/>
<g id="layer" inkscape:groupmode="layer" inkscape:label="layer">
<path d="M780.9524 400.0 L400.0 780.9524 L19.0476 400.0 L400.0 19.0476 L780.9524 400.0" stroke-dasharray="" fill="none" fill-opacity="1.0" stroke="#ff6464" stroke-opacity="1.0" stroke-width="12.0px" stroke-linecap="butt" stroke-linejoin="miter" stroke-dashoffset="0.0px"/>
<path d="M742.8571 400.0 L400.0 742.8571 L57.1429 400.0 L400.0 57.1429 L742.8571 400.0" stroke-dasharray="" fill="none" fill-opacity="1.0" stroke="#ff6464" stroke-opacity="1.0" stroke-width="12.0px" stroke-linecap="butt" stroke-linejoin="miter" stroke-dashoffset="0.0px"/>
<path d="M704.7619 400.0 L400.0 704.7619 L95.2381 400.0 L400.0 95.2381 L704.7619 400.0" stroke-dasharray="" fill="none" fill-opacity="1.0" stroke="#ff6464" stroke-opacity="1.0" stroke-width="12.0px" stroke-linecap="butt" stroke-linejoin="miter" stroke-dashoffset="0.0px"/>
<path d="M666.6667 400.0 L400.0 666.6667 L133.3333 400.0 L400.0 133.3333 L666.6667 400.0" stroke-dasharray="" fill="none" fill-opacity="1.0" stroke="#ff6464" stroke-opacity="1.0" stroke-width="12.0px" stroke-linecap="butt" stroke-linejoin="miter" stroke-dashoffset="0.0px"/>
<path d="M628.5714 400.0 L400.0 628.5714 L171.4286 400.0 L400.0 171.4286 L628.5714 400.0" stroke-dasharray="" fill="none" fill-opacity="1.0" stroke="#ff6464" stroke-opacity="1.0" stroke-width="12.0px" stroke-linecap="butt" stroke-linejoin="miter" stroke-dashoffset="0.0px"/>
<path d="M590.4762 400.0 L400.0 590.4762 L209.5238 400.0 L400.0 209.5238 L590.4762 400.0" stroke-dasharray="" fill="none" fill-opacity="1.0" stroke="#ff6464" stroke-opacity="1.0" stroke-width="12.0px" stroke-linecap="butt" stroke-linejoin="miter" stroke-dashoffset="0.0px"/>
<path d="M552.381 400.0 L400.0 552.381 L247.619 400.0 L400.0 247.619 L552.381 400.0" stroke-dasharray="" fill="none" fill-opacity="1.0" stroke="#ff6464" stroke-opacity="1.0" stroke-width="12.0px" stroke-linecap="butt" stroke-linejoin="miter" stroke-dashoffset="0.0px"/>
</g>
</svg>