<?xml version="1.0" standalone="no"?>
<!DOCTYPE svg PUBLIC "-//W3C//DTD SVG 1.1//EN" "http://www.w3.org/Graphics/SVG/1.1/DTD/svg11.dtd">
<svg width="600px" height="400px" version="1.1" xmlns="http://www.w3.org/2000/svg" xmlns:inkscape="http://www.inkscape.org/namespaces/inkscape">
<g id="multi" inkscape:groupmode="layer" inkscape:label="multi">
<path d="M287.4277 0.0001 L239.9014 5.4755 L239.7305 19.0721 L227.8242 19.3389 L230.1114 32.3472 L205.7806 21.1803 L198.7436 48.4411 L181.5216 22.5341 L164.8628 45.0917 L141.4033 44.5602 L134.544 50.7916 L143.9775 72.2026 L129.4025 78.2121 L141.2201 89.5165 L139.6341 111.5502 L159.3107 116.0878 L155.4615 131.3273 L190.4872 105.732 L229.4658 122.6118 L257.9088 186.1578 L388.9585 276.2634 L404.9054 317.8906 L387.9544 350.8366 L400.3149 354.0209 L415.5924 321.9433 L432.0653 315.954 L431.5472 300.1631 L412.4843 286.1114 L424.7334 260.6766 L451.8614 266.7744 L465.9275 285.1988 L470.5975 272.2947 L456.2366 253.1675 L396.5853 221.4479 L402.5942 204.6909 L362.3644 198.0743 L341.62 175.3754 L330.2874 140.6373 L294.3292 113.0525 L290.8067 94.1866 L299.2304 84.2627 L288.384 71.9535 L291.8348 63.6164 L317.9985 50.8992 L333.0209 58.3716 L338.8227 56.6739 L326.223 41.2921 L331.6502 34.4083 L323.4417 29.4424 L333.07 19.8969 L296.4013 13.0389 L287.4277 0.0001 M296.9352 127.0509 L295.691 124.5873 L298.3936 123.4319 L296.9352 127.0509 M296.5314 205.1167 L296.7197 204.9289 L296.8634 205.1819 L296.5314 205.1167 M295.8912 65.5585 L294.4727 65.2519 L293.0461 68.6902 L295.8912 65.5585 M221.9108 161.113 L221.5521 159.4987 L220.7632 159.9568 L220.8429 162.0831 L221.9108 161.113 M239.0372 168.559 L229.3065 171.3725 L238.5191 173.8576 L239.0372 168.559 M228.916 179.1877 L229.2985 178.3544 L228.7327 177.3688 L228.916 179.1877 M252.657 188.7894 L251.5651 186.3519 L251.2384 187.4956 L252.657 188.7894 M235.4668 189.0911 L235.7378 188.0886 L234.7894 187.8297 L235.4668 189.0911 M212.4192 234.1058 L174.5244 242.9693 L184.9723 282.4281 L180.6768 316.1282 L193.6511 319.0578 L198.2176 304.7478 L214.021 309.0369 L221.3848 257.6378 L212.4192 234.1058 M178.7323 237.3105 L178.2143 235.0686 L175.1779 239.9726 L178.7323 237.3105 M311.4237 244.0973 L312.1091 242.2941 L311.0252 242.8112 L311.4237 244.0973 M339.7471 251.0134 L339.6515 249.4572 L336.9499 249.7516 L339.7471 251.0134 M347.1826 256.3373 L346.8001 257.2395 L348.657 256.5263 L347.1826 256.3373 M177.3854 311.1428 L177.6883 307.5772 L175.425 308.5127 L177.3854 311.1428 M375.9603 323.0575 L376.6935 321.7489 L375.2909 322.3216 L375.9603 323.0575 M317.4247 326.0099 L318.1419 325.2338 L317.1059 325.1217 L317.4247 326.0099 M366.0543 331.8438 L366.0623 330.1318 L363.9424 330.509 L366.0543 331.8438 M368.5487 334.99 L368.7958 332.3532 L367.3135 332.3837 L368.5487 334.99 M369.5131 337.9696 L368.6523 335.519 L368.1423 336.6787 L369.5131 337.9696 M385.0057 346.2709 L334.5112 352.3333 L321.5369 343.3004 L295.8753 358.6745 L372.1669 399.9998 L378.917 387.106 L372.3183 370.1473 L385.0057 346.2709 M285.8816 352.9499 L285.4592 351.6557 L284.6224 351.7368 L285.8816 352.9499 M293.9228 354.6777 L293.4925 353.6471 L291.5479 353.5764 L293.9228 354.6777 M284.216 396.8095 L285.1484 394.7101 L281.7773 393.5356 L284.216 396.8095" stroke-dasharray="" fill="none" fill-opacity="1.0" stroke="#000000" stroke-opacity="1.0" stroke-width="1.0px" stroke-linecap="butt" stroke-linejoin="miter" stroke-dashoffset="0.0px"/>
</g>
</svg>